{
  "jsonPath": "Soundtracks/Australian Talent Show/Anthony Callea/per-sempre-for-always.json",
  "path": "Soundtracks\\Australian Talent Show\\Anthony Callea\\Per Sempre (For Always).mid",
  "name": "Per Sempre (For Always)",
  "difficulty": "Advanced",
  "bpm": 140.00014000014,
  "notes": [
    {
      "midi": 61,
      "hit": false,
      "t": 12428.559000000001,
      "d": 385.71390000000065,
      "v": 96
    },
    {
      "midi": 62,
      "hit": false,
      "t": 12857.130000000001,
      "d": 1346.4272249999995,
      "v": 95
    },
    {
      "midi": 69,
      "hit": false,
      "t": 13285.701000000001,
      "d": 653.5707750000001,
      "v": 127
    },
    {
      "midi": 61,
      "hit": false,
      "t": 14142.843,
      "d": 392.856749999999,
      "v": 115
    },
    {
      "midi": 62,
      "hit": false,
      "t": 14571.414,
      "d": 1342.8557999999994,
      "v": 108
    },
    {
      "midi": 69,
      "hit": false,
      "t": 14999.985,
      "d": 589.2851250000003,
      "v": 124
    },
    {
      "midi": 61,
      "hit": false,
      "t": 15857.127,
      "d": 378.57105000000047,
      "v": 120
    },
    {
      "midi": 62,
      "hit": false,
      "t": 16285.698,
      "d": 2721.4258499999996,
      "v": 92
    },
    {
      "midi": 69,
      "hit": false,
      "t": 16714.269,
      "d": 2210.7120749999995,
      "v": 120
    },
    {
      "midi": 61,
      "hit": false,
      "t": 19285.695,
      "d": 399.9995999999992,
      "v": 108
    },
    {
      "midi": 62,
      "hit": false,
      "t": 19714.266,
      "d": 1217.8559249999998,
      "v": 89
    },
    {
      "midi": 69,
      "hit": false,
      "t": 20142.837,
      "d": 635.7136500000015,
      "v": 120
    },
    {
      "midi": 61,
      "hit": false,
      "t": 20999.979,
      "d": 396.4281750000009,
      "v": 111
    },
    {
      "midi": 62,
      "hit": false,
      "t": 21428.55,
      "d": 1307.1415500000003,
      "v": 87
    },
    {
      "midi": 69,
      "hit": false,
      "t": 21857.121,
      "d": 660.7136250000003,
      "v": 116
    },
    {
      "midi": 67,
      "hit": false,
      "t": 22714.263,
      "d": 442.8567000000003,
      "v": 119
    },
    {
      "midi": 66,
      "hit": false,
      "t": 23142.834,
      "d": 428.5709999999999,
      "v": 112
    },
    {
      "midi": 62,
      "hit": false,
      "t": 23571.405,
      "d": 1321.4272500000006,
      "v": 86
    },
    {
      "midi": 64,
      "hit": false,
      "t": 24857.118,
      "d": 914.2848000000013,
      "v": 111
    },
    {
      "midi": 66,
      "hit": false,
      "t": 25714.26,
      "d": 242.8569000000025,
      "v": 112
    },
    {
      "midi": 67,
      "hit": false,
      "t": 25928.5455,
      "d": 232.1426250000004,
      "v": 92
    },
    {
      "midi": 66,
      "hit": false,
      "t": 26142.831000000002,
      "d": 957.1418999999987,
      "v": 74
    },
    {
      "midi": 74,
      "hit": false,
      "t": 27428.544,
      "d": 271.4283000000032,
      "v": 124
    },
    {
      "midi": 73,
      "hit": false,
      "t": 27642.829500000003,
      "d": 224.99977500000023,
      "v": 116
    },
    {
      "midi": 71,
      "hit": false,
      "t": 27857.115000000005,
      "d": 214.28549999999814,
      "v": 124
    },
    {
      "midi": 66,
      "hit": false,
      "t": 28499.971500000003,
      "d": 439.28527499999836,
      "v": 119
    },
    {
      "midi": 62,
      "hit": false,
      "t": 28499.971500000003,
      "d": 617.8565249999992,
      "v": 127
    },
    {
      "midi": 59,
      "hit": false,
      "t": 28499.971500000003,
      "d": 628.5707999999977,
      "v": 100
    },
    {
      "midi": 74,
      "hit": false,
      "t": 83999.916,
      "d": 603.5708250000025,
      "v": 75
    },
    {
      "midi": 69,
      "hit": false,
      "t": 83999.916,
      "d": 632.1422250000032,
      "v": 71
    },
    {
      "midi": 78,
      "hit": false,
      "t": 83999.916,
      "d": 664.2850500000059,
      "v": 57
    },
    {
      "midi": 66,
      "hit": false,
      "t": 83999.916,
      "d": 1232.1416250000038,
      "v": 46
    },
    {
      "midi": 62,
      "hit": false,
      "t": 83999.916,
      "d": 1278.5701499999996,
      "v": 68
    },
    {
      "midi": 57,
      "hit": false,
      "t": 83999.916,
      "d": 1346.4272250000067,
      "v": 71
    },
    {
      "midi": 69,
      "hit": false,
      "t": 84857.058,
      "d": 328.571100000001,
      "v": 83
    },
    {
      "midi": 74,
      "hit": false,
      "t": 84857.058,
      "d": 578.5708500000037,
      "v": 92
    },
    {
      "midi": 78,
      "hit": false,
      "t": 84857.058,
      "d": 642.856500000009,
      "v": 69
    },
    {
      "midi": 69,
      "hit": false,
      "t": 85285.629,
      "d": 1128.5703000000067,
      "v": 60
    },
    {
      "midi": 76,
      "hit": false,
      "t": 85714.20000000001,
      "d": 685.7136000000028,
      "v": 80
    },
    {
      "midi": 73,
      "hit": false,
      "t": 85714.20000000001,
      "d": 739.2849750000023,
      "v": 67
    },
    {
      "midi": 57,
      "hit": false,
      "t": 85714.20000000001,
      "d": 1185.7131000000081,
      "v": 67
    },
    {
      "midi": 64,
      "hit": false,
      "t": 85714.20000000001,
      "d": 1207.1416500000196,
      "v": 83
    },
    {
      "midi": 61,
      "hit": false,
      "t": 85714.20000000001,
      "d": 1360.7129250000144,
      "v": 46
    },
    {
      "midi": 69,
      "hit": false,
      "t": 86571.34200000002,
      "d": 339.28537500000675,
      "v": 82
    },
    {
      "midi": 73,
      "hit": false,
      "t": 86571.34200000002,
      "d": 649.9993500000128,
      "v": 66
    },
    {
      "midi": 76,
      "hit": false,
      "t": 86571.34200000002,
      "d": 746.4278250000061,
      "v": 84
    },
    {
      "midi": 69,
      "hit": false,
      "t": 86999.91300000003,
      "d": 274.9997250000015,
      "v": 65
    },
    {
      "midi": 74,
      "hit": false,
      "t": 87428.48400000003,
      "d": 696.427874999994,
      "v": 79
    },
    {
      "midi": 71,
      "hit": false,
      "t": 87428.48400000003,
      "d": 707.1421499999997,
      "v": 79
    },
    {
      "midi": 78,
      "hit": false,
      "t": 87428.48400000003,
      "d": 746.4278250000061,
      "v": 61
    },
    {
      "midi": 66,
      "hit": false,
      "t": 87428.48400000003,
      "d": 1307.1415500000003,
      "v": 60
    },
    {
      "midi": 59,
      "hit": false,
      "t": 87428.48400000003,
      "d": 2978.568450000006,
      "v": 67
    },
    {
      "midi": 62,
      "hit": false,
      "t": 87428.48400000003,
      "d": 2989.282725000012,
      "v": 74
    },
    {
      "midi": 71,
      "hit": false,
      "t": 88285.62600000003,
      "d": 357.14250000000175,
      "v": 81
    },
    {
      "midi": 78,
      "hit": false,
      "t": 88285.62600000003,
      "d": 753.5706749999954,
      "v": 89
    },
    {
      "midi": 74,
      "hit": false,
      "t": 88285.62600000003,
      "d": 782.1420749999961,
      "v": 87
    },
    {
      "midi": 71,
      "hit": false,
      "t": 88714.19700000003,
      "d": 335.71395000000484,
      "v": 56
    },
    {
      "midi": 79,
      "hit": false,
      "t": 89142.76800000003,
      "d": 646.4279249999963,
      "v": 76
    },
    {
      "midi": 74,
      "hit": false,
      "t": 89142.76800000003,
      "d": 714.2850000000035,
      "v": 71
    },
    {
      "midi": 71,
      "hit": false,
      "t": 89142.76800000003,
      "d": 1160.7131250000093,
      "v": 53
    },
    {
      "midi": 67,
      "hit": false,
      "t": 89142.76800000003,
      "d": 1221.4273500000127,
      "v": 61
    },
    {
      "midi": 79,
      "hit": false,
      "t": 89999.91000000003,
      "d": 585.7137000000075,
      "v": 91
    },
    {
      "midi": 74,
      "hit": false,
      "t": 90214.19550000003,
      "d": 1285.7130000000034,
      "v": 80
    },
    {
      "midi": 71,
      "hit": false,
      "t": 90428.48100000004,
      "d": 217.85692500000005,
      "v": 65
    },
    {
      "midi": 69,
      "hit": false,
      "t": 90857.05200000004,
      "d": 367.8567749999929,
      "v": 71
    },
    {
      "midi": 78,
      "hit": false,
      "t": 90857.05200000004,
      "d": 628.5708000000013,
      "v": 76
    },
    {
      "midi": 66,
      "hit": false,
      "t": 90857.05200000004,
      "d": 1174.9988249999878,
      "v": 60
    },
    {
      "midi": 62,
      "hit": false,
      "t": 90857.05200000004,
      "d": 1196.4273749999847,
      "v": 76
    },
    {
      "midi": 57,
      "hit": false,
      "t": 90857.05200000004,
      "d": 1271.4272999999812,
      "v": 64
    },
    {
      "midi": 69,
      "hit": false,
      "t": 91285.62300000004,
      "d": 753.5706749999954,
      "v": 42
    },
    {
      "midi": 78,
      "hit": false,
      "t": 91714.19400000003,
      "d": 649.9993499999837,
      "v": 107
    },
    {
      "midi": 74,
      "hit": false,
      "t": 91928.47950000003,
      "d": 360.7139249999891,
      "v": 72
    },
    {
      "midi": 69,
      "hit": false,
      "t": 92142.76500000001,
      "d": 760.7135249999992,
      "v": 70
    },
    {
      "midi": 76,
      "hit": false,
      "t": 92571.33600000001,
      "d": 717.8564250000054,
      "v": 82
    },
    {
      "midi": 73,
      "hit": false,
      "t": 92571.33600000001,
      "d": 721.4278500000073,
      "v": 66
    },
    {
      "midi": 57,
      "hit": false,
      "t": 92571.33600000001,
      "d": 1092.8560500000021,
      "v": 63
    },
    {
      "midi": 64,
      "hit": false,
      "t": 92571.33600000001,
      "d": 1092.8560500000021,
      "v": 85
    },
    {
      "midi": 61,
      "hit": false,
      "t": 92571.33600000001,
      "d": 1242.855899999995,
      "v": 56
    },
    {
      "midi": 69,
      "hit": false,
      "t": 92999.907,
      "d": 278.5711500000034,
      "v": 61
    },
    {
      "midi": 69,
      "hit": false,
      "t": 93428.47800000002,
      "d": 342.8567999999941,
      "v": 77
    },
    {
      "midi": 73,
      "hit": false,
      "t": 93428.47800000002,
      "d": 596.4279749999841,
      "v": 100
    },
    {
      "midi": 76,
      "hit": false,
      "t": 93428.47800000002,
      "d": 685.7135999999882,
      "v": 111
    },
    {
      "midi": 69,
      "hit": false,
      "t": 93857.049,
      "d": 278.5711500000034,
      "v": 59
    },
    {
      "midi": 71,
      "hit": false,
      "t": 94285.62,
      "d": 360.71392500000366,
      "v": 73
    },
    {
      "midi": 74,
      "hit": false,
      "t": 94285.62,
      "d": 653.5707750000147,
      "v": 89
    },
    {
      "midi": 78,
      "hit": false,
      "t": 94285.62,
      "d": 714.285000000018,
      "v": 71
    },
    {
      "midi": 66,
      "hit": false,
      "t": 94285.62,
      "d": 1314.2844000000186,
      "v": 52
    },
    {
      "midi": 59,
      "hit": false,
      "t": 94285.62,
      "d": 1514.2842000000237,
      "v": 67
    },
    {
      "midi": 62,
      "hit": false,
      "t": 94285.62,
      "d": 1617.8555250000209,
      "v": 67
    },
    {
      "midi": 71,
      "hit": false,
      "t": 94714.191,
      "d": 264.2854500000103,
      "v": 52
    },
    {
      "midi": 71,
      "hit": false,
      "t": 95142.76200000002,
      "d": 342.8567999999941,
      "v": 69
    },
    {
      "midi": 74,
      "hit": false,
      "t": 95142.76200000002,
      "d": 689.2850250000047,
      "v": 87
    },
    {
      "midi": 78,
      "hit": false,
      "t": 95142.76200000002,
      "d": 710.7135750000016,
      "v": 96
    },
    {
      "midi": 71,
      "hit": false,
      "t": 95571.33300000001,
      "d": 289.2854250000091,
      "v": 43
    },
    {
      "midi": 79,
      "hit": false,
      "t": 95999.90400000001,
      "d": 632.1422250000032,
      "v": 91
    },
    {
      "midi": 71,
      "hit": false,
      "t": 95999.90400000001,
      "d": 724.9992750000092,
      "v": 82
    },
    {
      "midi": 74,
      "hit": false,
      "t": 95999.90400000001,
      "d": 946.4276250000112,
      "v": 92
    },
    {
      "midi": 67,
      "hit": false,
      "t": 95999.90400000001,
      "d": 1353.5700750000105,
      "v": 77
    },
    {
      "midi": 59,
      "hit": false,
      "t": 95999.90400000001,
      "d": 1364.2843500000163,
      "v": 71
    },
    {
      "midi": 62,
      "hit": false,
      "t": 95999.90400000001,
      "d": 1385.7129000000277,
      "v": 63
    },
    {
      "midi": 71,
      "hit": false,
      "t": 96857.04600000002,
      "d": 517.8566250000149,
      "v": 69
    },
    {
      "midi": 79,
      "hit": false,
      "t": 97071.33150000001,
      "d": 524.9994750000187,
      "v": 86
    },
    {
      "midi": 74,
      "hit": false,
      "t": 97285.61700000001,
      "d": 414.28530000001774,
      "v": 89
    },
    {
      "midi": 71,
      "hit": false,
      "t": 97499.90250000004,
      "d": 121.42844999999215,
      "v": 65
    },
    {
      "midi": 69,
      "hit": false,
      "t": 97714.18800000002,
      "d": 307.1425500000041,
      "v": 67
    },
    {
      "midi": 78,
      "hit": false,
      "t": 97714.18800000002,
      "d": 660.713625000004,
      "v": 80
    },
    {
      "midi": 74,
      "hit": false,
      "t": 97714.18800000002,
      "d": 667.8564750000078,
      "v": 58
    },
    {
      "midi": 66,
      "hit": false,
      "t": 97714.18800000002,
      "d": 1199.9988000000012,
      "v": 51
    },
    {
      "midi": 62,
      "hit": false,
      "t": 97714.18800000002,
      "d": 1246.427324999997,
      "v": 80
    },
    {
      "midi": 57,
      "hit": false,
      "t": 97714.18800000002,
      "d": 1382.1414749999967,
      "v": 71
    },
    {
      "midi": 69,
      "hit": false,
      "t": 98142.75900000003,
      "d": 292.8568499999965,
      "v": 62
    },
    {
      "midi": 69,
      "hit": false,
      "t": 98571.33000000003,
      "d": 292.8568499999965,
      "v": 81
    },
    {
      "midi": 74,
      "hit": false,
      "t": 98571.33000000003,
      "d": 507.1423499999946,
      "v": 90
    },
    {
      "midi": 78,
      "hit": false,
      "t": 98571.33000000003,
      "d": 624.9993749999849,
      "v": 107
    },
    {
      "midi": 69,
      "hit": false,
      "t": 98999.90100000003,
      "d": 339.2853749999922,
      "v": 64
    },
    {
      "midi": 69,
      "hit": false,
      "t": 99428.47200000002,
      "d": 357.14250000000175,
      "v": 55
    },
    {
      "midi": 76,
      "hit": false,
      "t": 99428.47200000002,
      "d": 674.999324999997,
      "v": 84
    },
    {
      "midi": 73,
      "hit": false,
      "t": 99428.47200000002,
      "d": 767.856375000003,
      "v": 69
    },
    {
      "midi": 64,
      "hit": false,
      "t": 99428.47200000002,
      "d": 1032.1418250000133,
      "v": 85
    },
    {
      "midi": 57,
      "hit": false,
      "t": 99428.47200000002,
      "d": 1067.8560750000179,
      "v": 76
    },
    {
      "midi": 61,
      "hit": false,
      "t": 99428.47200000002,
      "d": 1185.7131000000227,
      "v": 68
    },
    {
      "midi": 69,
      "hit": false,
      "t": 99857.04300000002,
      "d": 314.28540000000794,
      "v": 60
    },
    {
      "midi": 69,
      "hit": false,
      "t": 100285.61400000003,
      "d": 339.2853750000213,
      "v": 86
    },
    {
      "midi": 73,
      "hit": false,
      "t": 100285.61400000003,
      "d": 624.9993750000285,
      "v": 62
    },
    {
      "midi": 76,
      "hit": false,
      "t": 100285.61400000003,
      "d": 660.7136250000331,
      "v": 80
    },
    {
      "midi": 69,
      "hit": false,
      "t": 100714.18500000006,
      "d": 332.14252500000293,
      "v": 42
    },
    {
      "midi": 74,
      "hit": false,
      "t": 101142.75600000005,
      "d": 685.7136000000028,
      "v": 87
    },
    {
      "midi": 71,
      "hit": false,
      "t": 101142.75600000005,
      "d": 703.5707249999978,
      "v": 73
    },
    {
      "midi": 78,
      "hit": false,
      "t": 101142.75600000005,
      "d": 749.9992499999935,
      "v": 65
    },
    {
      "midi": 66,
      "hit": false,
      "t": 101142.75600000005,
      "d": 1335.7129499999864,
      "v": 47
    },
    {
      "midi": 62,
      "hit": false,
      "t": 101142.75600000005,
      "d": 3089.2826249999925,
      "v": 73
    },
    {
      "midi": 59,
      "hit": false,
      "t": 101142.75600000005,
      "d": 3149.996849999996,
      "v": 66
    },
    {
      "midi": 71,
      "hit": false,
      "t": 101999.89800000004,
      "d": 349.9996499999979,
      "v": 78
    },
    {
      "midi": 78,
      "hit": false,
      "t": 101999.89800000004,
      "d": 735.7135500000004,
      "v": 93
    },
    {
      "midi": 74,
      "hit": false,
      "t": 101999.89800000004,
      "d": 760.7135249999992,
      "v": 99
    },
    {
      "midi": 71,
      "hit": false,
      "t": 102428.46900000004,
      "d": 299.9997000000003,
      "v": 54
    },
    {
      "midi": 71,
      "hit": false,
      "t": 102857.04000000004,
      "d": 317.8568249999953,
      "v": 67
    },
    {
      "midi": 74,
      "hit": false,
      "t": 102857.04000000004,
      "d": 710.7135750000016,
      "v": 89
    },
    {
      "midi": 79,
      "hit": false,
      "t": 102857.04000000004,
      "d": 721.4278500000073,
      "v": 69
    },
    {
      "midi": 67,
      "hit": false,
      "t": 102857.04000000004,
      "d": 1371.4272000000055,
      "v": 72
    },
    {
      "midi": 71,
      "hit": false,
      "t": 103285.61100000003,
      "d": 282.1425750000053,
      "v": 58
    },
    {
      "midi": 71,
      "hit": false,
      "t": 103714.18200000004,
      "d": 660.713625000004,
      "v": 79
    },
    {
      "midi": 79,
      "hit": false,
      "t": 103714.18200000004,
      "d": 692.8564500000066,
      "v": 90
    },
    {
      "midi": 74,
      "hit": false,
      "t": 103714.18200000004,
      "d": 753.5706750000099,
      "v": 90
    },
    {
      "midi": 69,
      "hit": false,
      "t": 104571.32400000005,
      "d": 349.9996499999979,
      "v": 76
    },
    {
      "midi": 74,
      "hit": false,
      "t": 104571.32400000005,
      "d": 721.4278499999928,
      "v": 90
    },
    {
      "midi": 78,
      "hit": false,
      "t": 104571.32400000005,
      "d": 724.9992749999947,
      "v": 99
    },
    {
      "midi": 66,
      "hit": false,
      "t": 104571.32400000005,
      "d": 1317.8558249999915,
      "v": 59
    },
    {
      "midi": 62,
      "hit": false,
      "t": 104571.32400000005,
      "d": 1349.998649999994,
      "v": 73
    },
    {
      "midi": 57,
      "hit": false,
      "t": 104571.32400000005,
      "d": 1507.1413499999908,
      "v": 66
    },
    {
      "midi": 69,
      "hit": false,
      "t": 104999.89500000005,
      "d": 299.9997000000003,
      "v": 44
    },
    {
      "midi": 69,
      "hit": false,
      "t": 105428.46600000004,
      "d": 299.9997000000003,
      "v": 79
    },
    {
      "midi": 74,
      "hit": false,
      "t": 105428.46600000004,
      "d": 535.7137499999953,
      "v": 90
    },
    {
      "midi": 78,
      "hit": false,
      "t": 105428.46600000004,
      "d": 671.4278999999951,
      "v": 89
    },
    {
      "midi": 69,
      "hit": false,
      "t": 105857.03700000004,
      "d": 349.9996499999979,
      "v": 65
    },
    {
      "midi": 69,
      "hit": false,
      "t": 106285.60800000004,
      "d": 349.9996499999979,
      "v": 39
    },
    {
      "midi": 76,
      "hit": false,
      "t": 106285.60800000004,
      "d": 721.4278499999928,
      "v": 77
    },
    {
      "midi": 73,
      "hit": false,
      "t": 106285.60800000004,
      "d": 771.4277999999904,
      "v": 68
    },
    {
      "midi": 57,
      "hit": false,
      "t": 106285.60800000004,
      "d": 1235.7130499999912,
      "v": 65
    },
    {
      "midi": 64,
      "hit": false,
      "t": 106285.60800000004,
      "d": 1249.9987499999843,
      "v": 69
    },
    {
      "midi": 61,
      "hit": false,
      "t": 106285.60800000004,
      "d": 1374.998624999993,
      "v": 46
    },
    {
      "midi": 69,
      "hit": false,
      "t": 106714.17900000003,
      "d": 296.4282749999984,
      "v": 67
    },
    {
      "midi": 69,
      "hit": false,
      "t": 107142.75000000003,
      "d": 328.571100000001,
      "v": 78
    },
    {
      "midi": 73,
      "hit": false,
      "t": 107142.75000000003,
      "d": 628.5708000000013,
      "v": 70
    },
    {
      "midi": 76,
      "hit": false,
      "t": 107142.75000000003,
      "d": 667.8564750000078,
      "v": 83
    },
    {
      "midi": 69,
      "hit": false,
      "t": 107571.32100000003,
      "d": 264.2854500000103,
      "v": 69
    },
    {
      "midi": 71,
      "hit": false,
      "t": 107999.89200000004,
      "d": 714.2850000000035,
      "v": 69
    },
    {
      "midi": 74,
      "hit": false,
      "t": 107999.89200000004,
      "d": 717.8564250000054,
      "v": 90
    },
    {
      "midi": 78,
      "hit": false,
      "t": 107999.89200000004,
      "d": 742.8564000000042,
      "v": 84
    },
    {
      "midi": 66,
      "hit": false,
      "t": 107999.89200000004,
      "d": 1335.712950000001,
      "v": 57
    },
    {
      "midi": 59,
      "hit": false,
      "t": 107999.89200000004,
      "d": 1474.9985250000027,
      "v": 60
    },
    {
      "midi": 62,
      "hit": false,
      "t": 107999.89200000004,
      "d": 1560.7127250000049,
      "v": 85
    },
    {
      "midi": 78,
      "hit": false,
      "t": 108857.03400000004,
      "d": 642.8564999999944,
      "v": 80
    },
    {
      "midi": 74,
      "hit": false,
      "t": 108857.03400000004,
      "d": 646.4279249999963,
      "v": 84
    },
    {
      "midi": 71,
      "hit": false,
      "t": 108857.03400000004,
      "d": 710.7135750000016,
      "v": 70
    },
    {
      "midi": 67,
      "hit": false,
      "t": 109714.17600000005,
      "d": 499.99950000000536,
      "v": 63
    },
    {
      "midi": 62,
      "hit": false,
      "t": 109714.17600000005,
      "d": 528.5709000000061,
      "v": 48
    },
    {
      "midi": 59,
      "hit": false,
      "t": 109714.17600000005,
      "d": 614.2851000000082,
      "v": 64
    },
    {
      "midi": 74,
      "hit": false,
      "t": 109714.17600000005,
      "d": 624.999375000014,
      "v": 82
    },
    {
      "midi": 71,
      "hit": false,
      "t": 109714.17600000005,
      "d": 639.285075000007,
      "v": 71
    },
    {
      "midi": 79,
      "hit": false,
      "t": 109714.17600000005,
      "d": 685.7136000000028,
      "v": 69
    },
    {
      "midi": 57,
      "hit": false,
      "t": 110571.31800000006,
      "d": 514.2851999999984,
      "v": 63
    },
    {
      "midi": 64,
      "hit": false,
      "t": 110571.31800000006,
      "d": 517.8566250000003,
      "v": 63
    },
    {
      "midi": 61,
      "hit": false,
      "t": 110571.31800000006,
      "d": 521.4280500000023,
      "v": 30
    },
    {
      "midi": 76,
      "hit": false,
      "t": 110571.31800000006,
      "d": 524.9994750000042,
      "v": 61
    },
    {
      "midi": 69,
      "hit": false,
      "t": 110571.31800000006,
      "d": 532.142325000008,
      "v": 64
    },
    {
      "midi": 73,
      "hit": false,
      "t": 110571.31800000006,
      "d": 535.7137500000099,
      "v": 36
    },
    {
      "midi": 71,
      "hit": false,
      "t": 111428.46000000006,
      "d": 692.8564500000066,
      "v": 63
    },
    {
      "midi": 74,
      "hit": false,
      "t": 111428.46000000006,
      "d": 703.5707250000123,
      "v": 77
    },
    {
      "midi": 78,
      "hit": false,
      "t": 111428.46000000006,
      "d": 735.713550000015,
      "v": 51
    },
    {
      "midi": 59,
      "hit": false,
      "t": 111428.46000000006,
      "d": 3264.282449999999,
      "v": 65
    },
    {
      "midi": 66,
      "hit": false,
      "t": 111428.46000000006,
      "d": 3282.139574999994,
      "v": 56
    },
    {
      "midi": 62,
      "hit": false,
      "t": 111428.46000000006,
      "d": 3289.2824249999976,
      "v": 70
    },
    {
      "midi": 74,
      "hit": false,
      "t": 112285.60200000009,
      "d": 614.2850999999937,
      "v": 85
    },
    {
      "midi": 78,
      "hit": false,
      "t": 112285.60200000009,
      "d": 632.1422249999887,
      "v": 61
    },
    {
      "midi": 71,
      "hit": false,
      "t": 112285.60200000009,
      "d": 664.2850499999913,
      "v": 70
    },
    {
      "midi": 78,
      "hit": false,
      "t": 113142.74400000008,
      "d": 214.28549999999814,
      "v": 127
    },
    {
      "midi": 71,
      "hit": false,
      "t": 113357.02950000008,
      "d": 257.14259999999194,
      "v": 116
    },
    {
      "midi": 74,
      "hit": false,
      "t": 113571.31500000008,
      "d": 274.9997250000015,
      "v": 127
    },
    {
      "midi": 73,
      "hit": false,
      "t": 113785.60050000007,
      "d": 407.14244999999937,
      "v": 124
    },
    {
      "midi": 71,
      "hit": false,
      "t": 114214.17150000007,
      "d": 507.1423499999946,
      "v": 127
    },
    {
      "midi": 61,
      "hit": false,
      "t": 115285.59900000006,
      "d": 385.71390000000247,
      "v": 96
    },
    {
      "midi": 62,
      "hit": false,
      "t": 115714.17000000006,
      "d": 1346.4272250000067,
      "v": 95
    },
    {
      "midi": 69,
      "hit": false,
      "t": 116142.74100000005,
      "d": 653.5707750000001,
      "v": 127
    },
    {
      "midi": 61,
      "hit": false,
      "t": 116999.88300000006,
      "d": 392.8567500000063,
      "v": 115
    },
    {
      "midi": 62,
      "hit": false,
      "t": 117428.45400000007,
      "d": 1342.8557999999903,
      "v": 108
    },
    {
      "midi": 69,
      "hit": false,
      "t": 117857.02500000007,
      "d": 589.2851249999949,
      "v": 124
    },
    {
      "midi": 61,
      "hit": false,
      "t": 118714.16700000006,
      "d": 378.57104999999865,
      "v": 120
    },
    {
      "midi": 62,
      "hit": false,
      "t": 119142.73800000006,
      "d": 2721.4258499999996,
      "v": 92
    },
    {
      "midi": 69,
      "hit": false,
      "t": 119571.30900000005,
      "d": 2210.712075000003,
      "v": 120
    },
    {
      "midi": 61,
      "hit": false,
      "t": 122142.73500000006,
      "d": 399.99959999999555,
      "v": 108
    },
    {
      "midi": 62,
      "hit": false,
      "t": 122571.30600000006,
      "d": 1217.8559249999962,
      "v": 89
    },
    {
      "midi": 69,
      "hit": false,
      "t": 122999.87700000005,
      "d": 635.7136500000051,
      "v": 120
    },
    {
      "midi": 61,
      "hit": false,
      "t": 123857.01900000006,
      "d": 396.42817499999364,
      "v": 111
    },
    {
      "midi": 62,
      "hit": false,
      "t": 124285.59000000005,
      "d": 1307.1415500000003,
      "v": 87
    },
    {
      "midi": 69,
      "hit": false,
      "t": 124714.16100000005,
      "d": 660.713625000004,
      "v": 116
    },
    {
      "midi": 67,
      "hit": false,
      "t": 125571.30300000006,
      "d": 442.85669999998936,
      "v": 119
    },
    {
      "midi": 66,
      "hit": false,
      "t": 125999.87400000005,
      "d": 428.5709999999963,
      "v": 112
    },
    {
      "midi": 62,
      "hit": false,
      "t": 126428.44500000005,
      "d": 1321.427250000008,
      "v": 86
    },
    {
      "midi": 64,
      "hit": false,
      "t": 127714.15800000005,
      "d": 914.2848000000085,
      "v": 111
    },
    {
      "midi": 66,
      "hit": false,
      "t": 128571.30000000006,
      "d": 242.85689999999886,
      "v": 112
    },
    {
      "midi": 67,
      "hit": false,
      "t": 128785.58550000006,
      "d": 232.14262499999313,
      "v": 92
    },
    {
      "midi": 66,
      "hit": false,
      "t": 128999.87100000006,
      "d": 957.1419000000024,
      "v": 74
    },
    {
      "midi": 74,
      "hit": false,
      "t": 130285.58400000006,
      "d": 271.4282999999996,
      "v": 124
    },
    {
      "midi": 73,
      "hit": false,
      "t": 130499.86950000006,
      "d": 224.99977500000386,
      "v": 116
    },
    {
      "midi": 71,
      "hit": false,
      "t": 130714.15500000006,
      "d": 214.2855000000127,
      "v": 124
    },
    {
      "midi": 66,
      "hit": false,
      "t": 131357.01150000008,
      "d": 439.285275000002,
      "v": 119
    },
    {
      "midi": 62,
      "hit": false,
      "t": 131357.01150000008,
      "d": 617.8565250000102,
      "v": 127
    },
    {
      "midi": 59,
      "hit": false,
      "t": 131357.01150000008,
      "d": 628.5708000000159,
      "v": 100
    },
    {
      "midi": 74,
      "hit": false,
      "t": 186856.9560000001,
      "d": 603.5708250000025,
      "v": 75
    },
    {
      "midi": 69,
      "hit": false,
      "t": 186856.9560000001,
      "d": 632.1422249999887,
      "v": 71
    },
    {
      "midi": 78,
      "hit": false,
      "t": 186856.9560000001,
      "d": 664.2850499999768,
      "v": 57
    },
    {
      "midi": 66,
      "hit": false,
      "t": 186856.9560000001,
      "d": 1232.1416249999602,
      "v": 46
    },
    {
      "midi": 62,
      "hit": false,
      "t": 186856.9560000001,
      "d": 1278.570149999956,
      "v": 68
    },
    {
      "midi": 57,
      "hit": false,
      "t": 186856.9560000001,
      "d": 1346.427224999963,
      "v": 71
    },
    {
      "midi": 69,
      "hit": false,
      "t": 187714.09800000006,
      "d": 328.571100000001,
      "v": 83
    },
    {
      "midi": 74,
      "hit": false,
      "t": 187714.09800000006,
      "d": 578.5708499999892,
      "v": 92
    },
    {
      "midi": 78,
      "hit": false,
      "t": 187714.09800000006,
      "d": 642.8564999999944,
      "v": 69
    },
    {
      "midi": 69,
      "hit": false,
      "t": 188142.66900000005,
      "d": 1128.5702999999921,
      "v": 60
    },
    {
      "midi": 76,
      "hit": false,
      "t": 188571.24000000005,
      "d": 685.7135999999882,
      "v": 80
    },
    {
      "midi": 73,
      "hit": false,
      "t": 188571.24000000005,
      "d": 739.2849749999878,
      "v": 67
    },
    {
      "midi": 57,
      "hit": false,
      "t": 188571.24000000005,
      "d": 1185.7130999999936,
      "v": 67
    },
    {
      "midi": 64,
      "hit": false,
      "t": 188571.24000000005,
      "d": 1207.141650000005,
      "v": 83
    },
    {
      "midi": 61,
      "hit": false,
      "t": 188571.24000000005,
      "d": 1360.712925000029,
      "v": 46
    },
    {
      "midi": 69,
      "hit": false,
      "t": 189428.38200000004,
      "d": 339.28537500000675,
      "v": 82
    },
    {
      "midi": 73,
      "hit": false,
      "t": 189428.38200000004,
      "d": 649.9993500000273,
      "v": 66
    },
    {
      "midi": 76,
      "hit": false,
      "t": 189428.38200000004,
      "d": 746.4278250000207,
      "v": 84
    },
    {
      "midi": 69,
      "hit": false,
      "t": 189856.95300000007,
      "d": 274.9997250000015,
      "v": 65
    },
    {
      "midi": 74,
      "hit": false,
      "t": 190285.52400000006,
      "d": 696.427874999994,
      "v": 79
    },
    {
      "midi": 71,
      "hit": false,
      "t": 190285.52400000006,
      "d": 707.1421499999997,
      "v": 79
    },
    {
      "midi": 78,
      "hit": false,
      "t": 190285.52400000006,
      "d": 746.4278249999916,
      "v": 61
    },
    {
      "midi": 66,
      "hit": false,
      "t": 190285.52400000006,
      "d": 1307.1415500000003,
      "v": 60
    },
    {
      "midi": 59,
      "hit": false,
      "t": 190285.52400000006,
      "d": 2978.5684499999916,
      "v": 67
    },
    {
      "midi": 62,
      "hit": false,
      "t": 190285.52400000006,
      "d": 2989.2827249999973,
      "v": 74
    },
    {
      "midi": 71,
      "hit": false,
      "t": 191142.66600000006,
      "d": 357.1424999999872,
      "v": 81
    },
    {
      "midi": 78,
      "hit": false,
      "t": 191142.66600000006,
      "d": 753.5706749999954,
      "v": 89
    },
    {
      "midi": 74,
      "hit": false,
      "t": 191142.66600000006,
      "d": 782.1420750000107,
      "v": 87
    },
    {
      "midi": 71,
      "hit": false,
      "t": 191571.23700000005,
      "d": 335.71395000000484,
      "v": 56
    },
    {
      "midi": 79,
      "hit": false,
      "t": 191999.80800000008,
      "d": 646.4279249999963,
      "v": 76
    },
    {
      "midi": 74,
      "hit": false,
      "t": 191999.80800000008,
      "d": 714.2850000000035,
      "v": 71
    },
    {
      "midi": 71,
      "hit": false,
      "t": 191999.80800000008,
      "d": 1160.7131249999802,
      "v": 53
    },
    {
      "midi": 67,
      "hit": false,
      "t": 191999.80800000008,
      "d": 1221.4273499999836,
      "v": 61
    },
    {
      "midi": 79,
      "hit": false,
      "t": 192856.95000000007,
      "d": 585.713699999993,
      "v": 91
    },
    {
      "midi": 74,
      "hit": false,
      "t": 193071.23550000007,
      "d": 1285.7129999999888,
      "v": 80
    },
    {
      "midi": 71,
      "hit": false,
      "t": 193285.52100000007,
      "d": 217.85692500000005,
      "v": 65
    },
    {
      "midi": 69,
      "hit": false,
      "t": 193714.09200000006,
      "d": 367.8567749999929,
      "v": 71
    },
    {
      "midi": 78,
      "hit": false,
      "t": 193714.09200000006,
      "d": 628.5707999999868,
      "v": 76
    },
    {
      "midi": 66,
      "hit": false,
      "t": 193714.09200000006,
      "d": 1174.9988249999878,
      "v": 60
    },
    {
      "midi": 62,
      "hit": false,
      "t": 193714.09200000006,
      "d": 1196.4273749999993,
      "v": 76
    },
    {
      "midi": 57,
      "hit": false,
      "t": 193714.09200000006,
      "d": 1271.4273000000103,
      "v": 64
    },
    {
      "midi": 69,
      "hit": false,
      "t": 194142.66300000006,
      "d": 753.5706749999954,
      "v": 42
    },
    {
      "midi": 78,
      "hit": false,
      "t": 194571.23400000005,
      "d": 649.9993500000273,
      "v": 107
    },
    {
      "midi": 74,
      "hit": false,
      "t": 194785.51950000005,
      "d": 360.7139250000182,
      "v": 72
    },
    {
      "midi": 69,
      "hit": false,
      "t": 194999.80500000008,
      "d": 760.7135249999992,
      "v": 70
    },
    {
      "midi": 76,
      "hit": false,
      "t": 195428.37600000008,
      "d": 717.8564250000054,
      "v": 82
    },
    {
      "midi": 73,
      "hit": false,
      "t": 195428.37600000008,
      "d": 721.4278500000073,
      "v": 66
    },
    {
      "midi": 57,
      "hit": false,
      "t": 195428.37600000008,
      "d": 1092.8560500000312,
      "v": 63
    },
    {
      "midi": 64,
      "hit": false,
      "t": 195428.37600000008,
      "d": 1092.8560500000312,
      "v": 85
    },
    {
      "midi": 61,
      "hit": false,
      "t": 195428.37600000008,
      "d": 1242.8559000000241,
      "v": 56
    },
    {
      "midi": 69,
      "hit": false,
      "t": 195856.94700000007,
      "d": 278.5711500000034,
      "v": 61
    },
    {
      "midi": 69,
      "hit": false,
      "t": 196285.5180000001,
      "d": 342.85680000000866,
      "v": 77
    },
    {
      "midi": 73,
      "hit": false,
      "t": 196285.5180000001,
      "d": 596.4279749999987,
      "v": 100
    },
    {
      "midi": 76,
      "hit": false,
      "t": 196285.5180000001,
      "d": 685.7135999999882,
      "v": 111
    },
    {
      "midi": 69,
      "hit": false,
      "t": 196714.0890000001,
      "d": 278.5711500000034,
      "v": 59
    },
    {
      "midi": 71,
      "hit": false,
      "t": 197142.6600000001,
      "d": 360.7139249999891,
      "v": 73
    },
    {
      "midi": 74,
      "hit": false,
      "t": 197142.6600000001,
      "d": 653.5707750000001,
      "v": 89
    },
    {
      "midi": 78,
      "hit": false,
      "t": 197142.6600000001,
      "d": 714.2850000000035,
      "v": 71
    },
    {
      "midi": 66,
      "hit": false,
      "t": 197142.6600000001,
      "d": 1314.284399999975,
      "v": 52
    },
    {
      "midi": 59,
      "hit": false,
      "t": 197142.6600000001,
      "d": 1514.2841999999655,
      "v": 67
    },
    {
      "midi": 62,
      "hit": false,
      "t": 197142.6600000001,
      "d": 1617.8555249999627,
      "v": 67
    },
    {
      "midi": 71,
      "hit": false,
      "t": 197571.2310000001,
      "d": 264.28544999999576,
      "v": 52
    },
    {
      "midi": 71,
      "hit": false,
      "t": 197999.80200000008,
      "d": 342.85680000000866,
      "v": 69
    },
    {
      "midi": 74,
      "hit": false,
      "t": 197999.80200000008,
      "d": 689.285024999961,
      "v": 87
    },
    {
      "midi": 78,
      "hit": false,
      "t": 197999.80200000008,
      "d": 710.7135749999725,
      "v": 96
    },
    {
      "midi": 71,
      "hit": false,
      "t": 198428.37300000008,
      "d": 289.28542499998,
      "v": 43
    },
    {
      "midi": 79,
      "hit": false,
      "t": 198856.94400000005,
      "d": 632.1422249999887,
      "v": 91
    },
    {
      "midi": 71,
      "hit": false,
      "t": 198856.94400000005,
      "d": 724.9992749999801,
      "v": 82
    },
    {
      "midi": 74,
      "hit": false,
      "t": 198856.94400000005,
      "d": 946.4276249999821,
      "v": 92
    },
    {
      "midi": 67,
      "hit": false,
      "t": 198856.94400000005,
      "d": 1353.570074999996,
      "v": 77
    },
    {
      "midi": 59,
      "hit": false,
      "t": 198856.94400000005,
      "d": 1364.2843500000017,
      "v": 71
    },
    {
      "midi": 62,
      "hit": false,
      "t": 198856.94400000005,
      "d": 1385.7129000000132,
      "v": 63
    },
    {
      "midi": 71,
      "hit": false,
      "t": 199714.08600000004,
      "d": 517.8566250000149,
      "v": 69
    },
    {
      "midi": 79,
      "hit": false,
      "t": 199928.37150000004,
      "d": 524.9994750000187,
      "v": 86
    },
    {
      "midi": 74,
      "hit": false,
      "t": 200142.65700000004,
      "d": 414.28530000004685,
      "v": 89
    },
    {
      "midi": 71,
      "hit": false,
      "t": 200356.94250000006,
      "d": 121.4284500000067,
      "v": 65
    },
    {
      "midi": 69,
      "hit": false,
      "t": 200571.2280000001,
      "d": 307.14254999998957,
      "v": 67
    },
    {
      "midi": 78,
      "hit": false,
      "t": 200571.2280000001,
      "d": 660.713625000004,
      "v": 80
    },
    {
      "midi": 74,
      "hit": false,
      "t": 200571.2280000001,
      "d": 667.8564750000078,
      "v": 58
    },
    {
      "midi": 66,
      "hit": false,
      "t": 200571.2280000001,
      "d": 1199.9988000000303,
      "v": 51
    },
    {
      "midi": 62,
      "hit": false,
      "t": 200571.2280000001,
      "d": 1246.427325000026,
      "v": 80
    },
    {
      "midi": 57,
      "hit": false,
      "t": 200571.2280000001,
      "d": 1382.1414750000404,
      "v": 71
    },
    {
      "midi": 69,
      "hit": false,
      "t": 200999.7990000001,
      "d": 292.85685000001104,
      "v": 62
    },
    {
      "midi": 69,
      "hit": false,
      "t": 201428.3700000001,
      "d": 292.85685000001104,
      "v": 81
    },
    {
      "midi": 74,
      "hit": false,
      "t": 201428.3700000001,
      "d": 507.1423500000092,
      "v": 90
    },
    {
      "midi": 78,
      "hit": false,
      "t": 201428.3700000001,
      "d": 624.999375000014,
      "v": 107
    },
    {
      "midi": 69,
      "hit": false,
      "t": 201856.9410000001,
      "d": 339.28537500000675,
      "v": 64
    },
    {
      "midi": 69,
      "hit": false,
      "t": 202285.5120000001,
      "d": 357.1424999999872,
      "v": 55
    },
    {
      "midi": 76,
      "hit": false,
      "t": 202285.5120000001,
      "d": 674.9993249999825,
      "v": 84
    },
    {
      "midi": 73,
      "hit": false,
      "t": 202285.5120000001,
      "d": 767.856375000003,
      "v": 69
    },
    {
      "midi": 64,
      "hit": false,
      "t": 202285.5120000001,
      "d": 1032.1418249999988,
      "v": 85
    },
    {
      "midi": 57,
      "hit": false,
      "t": 202285.5120000001,
      "d": 1067.8560749999888,
      "v": 76
    },
    {
      "midi": 61,
      "hit": false,
      "t": 202285.5120000001,
      "d": 1185.7130999999936,
      "v": 68
    },
    {
      "midi": 69,
      "hit": false,
      "t": 202714.0830000001,
      "d": 314.2853999999934,
      "v": 60
    },
    {
      "midi": 69,
      "hit": false,
      "t": 203142.6540000001,
      "d": 339.28537500000675,
      "v": 86
    },
    {
      "midi": 73,
      "hit": false,
      "t": 203142.6540000001,
      "d": 624.9993749999849,
      "v": 62
    },
    {
      "midi": 76,
      "hit": false,
      "t": 203142.6540000001,
      "d": 660.7136249999749,
      "v": 80
    },
    {
      "midi": 69,
      "hit": false,
      "t": 203571.2250000001,
      "d": 332.14252499997383,
      "v": 42
    },
    {
      "midi": 74,
      "hit": false,
      "t": 203999.79600000006,
      "d": 685.7135999999882,
      "v": 87
    },
    {
      "midi": 71,
      "hit": false,
      "t": 203999.79600000006,
      "d": 703.5707249999978,
      "v": 73
    },
    {
      "midi": 78,
      "hit": false,
      "t": 203999.79600000006,
      "d": 749.9992499999935,
      "v": 65
    },
    {
      "midi": 66,
      "hit": false,
      "t": 203999.79600000006,
      "d": 1335.7129500000156,
      "v": 47
    },
    {
      "midi": 62,
      "hit": false,
      "t": 203999.79600000006,
      "d": 3089.2826250000508,
      "v": 73
    },
    {
      "midi": 59,
      "hit": false,
      "t": 203999.79600000006,
      "d": 3149.996850000054,
      "v": 66
    },
    {
      "midi": 71,
      "hit": false,
      "t": 204856.93800000005,
      "d": 349.9996500000125,
      "v": 78
    },
    {
      "midi": 78,
      "hit": false,
      "t": 204856.93800000005,
      "d": 735.713550000015,
      "v": 93
    },
    {
      "midi": 74,
      "hit": false,
      "t": 204856.93800000005,
      "d": 760.7135250000283,
      "v": 99
    },
    {
      "midi": 71,
      "hit": false,
      "t": 205285.50900000008,
      "d": 299.99969999998575,
      "v": 54
    },
    {
      "midi": 71,
      "hit": false,
      "t": 205714.08000000007,
      "d": 317.8568249999953,
      "v": 67
    },
    {
      "midi": 74,
      "hit": false,
      "t": 205714.08000000007,
      "d": 710.7135750000016,
      "v": 89
    },
    {
      "midi": 79,
      "hit": false,
      "t": 205714.08000000007,
      "d": 721.4278500000073,
      "v": 69
    },
    {
      "midi": 67,
      "hit": false,
      "t": 205714.08000000007,
      "d": 1371.4272000000346,
      "v": 72
    },
    {
      "midi": 71,
      "hit": false,
      "t": 206142.65100000007,
      "d": 282.1425750000053,
      "v": 58
    },
    {
      "midi": 71,
      "hit": false,
      "t": 206571.2220000001,
      "d": 660.713625000004,
      "v": 79
    },
    {
      "midi": 79,
      "hit": false,
      "t": 206571.2220000001,
      "d": 692.856449999992,
      "v": 90
    },
    {
      "midi": 74,
      "hit": false,
      "t": 206571.2220000001,
      "d": 753.5706749999954,
      "v": 90
    },
    {
      "midi": 69,
      "hit": false,
      "t": 207428.3640000001,
      "d": 349.9996500000125,
      "v": 76
    },
    {
      "midi": 74,
      "hit": false,
      "t": 207428.3640000001,
      "d": 721.4278500000364,
      "v": 90
    },
    {
      "midi": 78,
      "hit": false,
      "t": 207428.3640000001,
      "d": 724.9992750000383,
      "v": 99
    },
    {
      "midi": 66,
      "hit": false,
      "t": 207428.3640000001,
      "d": 1317.855825000035,
      "v": 59
    },
    {
      "midi": 62,
      "hit": false,
      "t": 207428.3640000001,
      "d": 1349.9986500000232,
      "v": 73
    },
    {
      "midi": 57,
      "hit": false,
      "t": 207428.3640000001,
      "d": 1507.1413500000199,
      "v": 66
    },
    {
      "midi": 69,
      "hit": false,
      "t": 207856.9350000001,
      "d": 299.99970000001485,
      "v": 44
    },
    {
      "midi": 69,
      "hit": false,
      "t": 208285.50600000014,
      "d": 299.99969999998575,
      "v": 79
    },
    {
      "midi": 74,
      "hit": false,
      "t": 208285.50600000014,
      "d": 535.7137499999662,
      "v": 90
    },
    {
      "midi": 78,
      "hit": false,
      "t": 208285.50600000014,
      "d": 671.4278999999806,
      "v": 89
    },
    {
      "midi": 69,
      "hit": false,
      "t": 208714.07700000014,
      "d": 349.9996499999834,
      "v": 65
    },
    {
      "midi": 69,
      "hit": false,
      "t": 209142.64800000013,
      "d": 349.9996500000125,
      "v": 39
    },
    {
      "midi": 76,
      "hit": false,
      "t": 209142.64800000013,
      "d": 721.4278500000364,
      "v": 77
    },
    {
      "midi": 73,
      "hit": false,
      "t": 209142.64800000013,
      "d": 771.427800000034,
      "v": 68
    },
    {
      "midi": 57,
      "hit": false,
      "t": 209142.64800000013,
      "d": 1235.7130500000203,
      "v": 65
    },
    {
      "midi": 64,
      "hit": false,
      "t": 209142.64800000013,
      "d": 1249.998750000028,
      "v": 69
    },
    {
      "midi": 61,
      "hit": false,
      "t": 209142.64800000013,
      "d": 1374.9986250000075,
      "v": 46
    },
    {
      "midi": 69,
      "hit": false,
      "t": 209571.21900000016,
      "d": 296.42827500001295,
      "v": 67
    },
    {
      "midi": 69,
      "hit": false,
      "t": 209999.79000000015,
      "d": 328.571100000001,
      "v": 78
    },
    {
      "midi": 73,
      "hit": false,
      "t": 209999.79000000015,
      "d": 628.5707999999868,
      "v": 70
    },
    {
      "midi": 76,
      "hit": false,
      "t": 209999.79000000015,
      "d": 667.8564749999787,
      "v": 83
    },
    {
      "midi": 69,
      "hit": false,
      "t": 210428.36100000015,
      "d": 264.28544999999576,
      "v": 69
    },
    {
      "midi": 71,
      "hit": false,
      "t": 210856.93200000015,
      "d": 714.2850000000035,
      "v": 69
    },
    {
      "midi": 74,
      "hit": false,
      "t": 210856.93200000015,
      "d": 717.8564250000054,
      "v": 90
    },
    {
      "midi": 78,
      "hit": false,
      "t": 210856.93200000015,
      "d": 742.8564000000188,
      "v": 84
    },
    {
      "midi": 66,
      "hit": false,
      "t": 210856.93200000015,
      "d": 1335.7129500000156,
      "v": 57
    },
    {
      "midi": 59,
      "hit": false,
      "t": 210856.93200000015,
      "d": 1474.9985250000027,
      "v": 60
    },
    {
      "midi": 62,
      "hit": false,
      "t": 210856.93200000015,
      "d": 1560.7127250000194,
      "v": 85
    },
    {
      "midi": 78,
      "hit": false,
      "t": 211714.07400000017,
      "d": 642.8564999999944,
      "v": 80
    },
    {
      "midi": 74,
      "hit": false,
      "t": 211714.07400000017,
      "d": 646.4279249999963,
      "v": 84
    },
    {
      "midi": 71,
      "hit": false,
      "t": 211714.07400000017,
      "d": 710.7135750000016,
      "v": 70
    },
    {
      "midi": 67,
      "hit": false,
      "t": 212571.21600000016,
      "d": 499.99950000000536,
      "v": 63
    },
    {
      "midi": 62,
      "hit": false,
      "t": 212571.21600000016,
      "d": 528.5708999999915,
      "v": 48
    },
    {
      "midi": 59,
      "hit": false,
      "t": 212571.21600000016,
      "d": 614.2850999999791,
      "v": 64
    },
    {
      "midi": 74,
      "hit": false,
      "t": 212571.21600000016,
      "d": 624.9993749999849,
      "v": 82
    },
    {
      "midi": 71,
      "hit": false,
      "t": 212571.21600000016,
      "d": 639.2850749999925,
      "v": 71
    },
    {
      "midi": 79,
      "hit": false,
      "t": 212571.21600000016,
      "d": 685.7135999999882,
      "v": 69
    },
    {
      "midi": 57,
      "hit": false,
      "t": 213428.35800000015,
      "d": 514.285200000013,
      "v": 63
    },
    {
      "midi": 64,
      "hit": false,
      "t": 213428.35800000015,
      "d": 517.8566250000149,
      "v": 63
    },
    {
      "midi": 61,
      "hit": false,
      "t": 213428.35800000015,
      "d": 521.4280500000168,
      "v": 30
    },
    {
      "midi": 76,
      "hit": false,
      "t": 213428.35800000015,
      "d": 524.9994750000187,
      "v": 61
    },
    {
      "midi": 69,
      "hit": false,
      "t": 213428.35800000015,
      "d": 532.1423250000225,
      "v": 64
    },
    {
      "midi": 73,
      "hit": false,
      "t": 213428.35800000015,
      "d": 535.7137500000244,
      "v": 36
    },
    {
      "midi": 90,
      "hit": false,
      "t": 215142.64200000017,
      "d": 253.57117499999003,
      "v": 120
    },
    {
      "midi": 88,
      "hit": false,
      "t": 215356.92750000017,
      "d": 192.85694999998668,
      "v": 123
    },
    {
      "midi": 86,
      "hit": false,
      "t": 215571.21300000016,
      "d": 146.42842499999097,
      "v": 127
    },
    {
      "midi": 86,
      "hit": false,
      "t": 215785.49850000016,
      "d": 32.14282499998808,
      "v": 65
    },
    {
      "midi": 83,
      "hit": false,
      "t": 215785.49850000016,
      "d": 146.42842499999097,
      "v": 127
    },
    {
      "midi": 78,
      "hit": false,
      "t": 215999.78400000016,
      "d": 314.2853999999934,
      "v": 124
    },
    {
      "midi": 76,
      "hit": false,
      "t": 216214.06950000016,
      "d": 235.7140500000096,
      "v": 104
    },
    {
      "midi": 74,
      "hit": false,
      "t": 216428.35500000016,
      "d": 189.28552500001388,
      "v": 108
    },
    {
      "midi": 71,
      "hit": false,
      "t": 216642.64050000018,
      "d": 114.28560000000289,
      "v": 127
    },
    {
      "midi": 66,
      "hit": false,
      "t": 216856.92600000018,
      "d": 242.8568999999843,
      "v": 127
    },
    {
      "midi": 64,
      "hit": false,
      "t": 217071.21150000018,
      "d": 199.9997999999905,
      "v": 119
    },
    {
      "midi": 62,
      "hit": false,
      "t": 217285.49700000018,
      "d": 253.57117499999003,
      "v": 102
    },
    {
      "midi": 59,
      "hit": false,
      "t": 217499.78250000018,
      "d": 242.8568999999843,
      "v": 96
    },
    {
      "midi": 62,
      "hit": false,
      "t": 217714.06800000017,
      "d": 3521.4250499999907,
      "v": 72
    },
    {
      "midi": 50,
      "hit": false,
      "t": 217714.06800000017,
      "d": 3532.1393249999965,
      "v": 84
    },
    {
      "midi": 54,
      "hit": false,
      "t": 217714.06800000017,
      "d": 3532.1393249999965,
      "v": 46
    },
    {
      "midi": 66,
      "hit": false,
      "t": 217714.06800000017,
      "d": 3535.7107499999984,
      "v": 65
    },
    {
      "midi": 57,
      "hit": false,
      "t": 217714.06800000017,
      "d": 3539.2821750000003,
      "v": 63
    },
    {
      "midi": 45,
      "hit": false,
      "t": 217714.06800000017,
      "d": 3553.567875000008,
      "v": 71
    }
  ]
}