{
  "jsonPath": "Religious/Tagalog Worship/Lea Salonga/andrew-lloyd-webber-medley.json",
  "path": "Religious\\Tagalog Worship\\Lea Salonga\\Andrew Lloyd Webber Medley.mid",
  "name": "Andrew Lloyd Webber Medley",
  "difficulty": "Advanced",
  "bpm": 85.00004250002125,
  "notes": [
    {
      "midi": 62,
      "hit": false,
      "t": 5647.056,
      "d": 1805.8814499999999,
      "v": 85
    },
    {
      "midi": 65,
      "hit": false,
      "t": 5647.056,
      "d": 1805.8814499999999,
      "v": 85
    },
    {
      "midi": 67,
      "hit": false,
      "t": 5647.056,
      "d": 1805.8814499999999,
      "v": 85
    },
    {
      "midi": 55,
      "hit": false,
      "t": 7058.82,
      "d": 352.9409999999998,
      "v": 74
    },
    {
      "midi": 57,
      "hit": false,
      "t": 7058.82,
      "d": 176.47050000000036,
      "v": 82
    },
    {
      "midi": 62,
      "hit": false,
      "t": 7058.82,
      "d": 176.47050000000036,
      "v": 84
    },
    {
      "midi": 65,
      "hit": false,
      "t": 7058.82,
      "d": 176.47050000000036,
      "v": 86
    },
    {
      "midi": 43,
      "hit": false,
      "t": 7058.82,
      "d": 1411.764000000001,
      "v": 56
    },
    {
      "midi": 53,
      "hit": false,
      "t": 7058.82,
      "d": 1411.764000000001,
      "v": 66
    },
    {
      "midi": 59,
      "hit": false,
      "t": 7235.2905,
      "d": 176.47050000000036,
      "v": 78
    },
    {
      "midi": 64,
      "hit": false,
      "t": 7235.2905,
      "d": 176.47050000000036,
      "v": 80
    },
    {
      "midi": 67,
      "hit": false,
      "t": 7235.2905,
      "d": 176.47050000000036,
      "v": 82
    },
    {
      "midi": 59,
      "hit": false,
      "t": 7411.7609999999995,
      "d": 41.17644999999993,
      "v": 70
    },
    {
      "midi": 60,
      "hit": false,
      "t": 7411.761,
      "d": 176.47050000000036,
      "v": 78
    },
    {
      "midi": 65,
      "hit": false,
      "t": 7411.761,
      "d": 176.47050000000036,
      "v": 80
    },
    {
      "midi": 69,
      "hit": false,
      "t": 7411.761,
      "d": 176.47050000000036,
      "v": 82
    },
    {
      "midi": 62,
      "hit": false,
      "t": 7588.231500000001,
      "d": 176.47050000000036,
      "v": 78
    },
    {
      "midi": 67,
      "hit": false,
      "t": 7588.231500000001,
      "d": 176.47050000000036,
      "v": 80
    },
    {
      "midi": 71,
      "hit": false,
      "t": 7588.231500000001,
      "d": 176.47050000000036,
      "v": 82
    },
    {
      "midi": 62,
      "hit": false,
      "t": 7764.701999999999,
      "d": 347.05864999999994,
      "v": 80
    },
    {
      "midi": 64,
      "hit": false,
      "t": 7764.702000000001,
      "d": 176.47050000000036,
      "v": 80
    },
    {
      "midi": 69,
      "hit": false,
      "t": 7764.702000000001,
      "d": 176.47050000000036,
      "v": 82
    },
    {
      "midi": 72,
      "hit": false,
      "t": 7764.702000000001,
      "d": 176.47050000000036,
      "v": 84
    },
    {
      "midi": 65,
      "hit": false,
      "t": 7941.1725000000015,
      "d": 176.47050000000036,
      "v": 78
    },
    {
      "midi": 71,
      "hit": false,
      "t": 7941.1725000000015,
      "d": 176.47050000000036,
      "v": 80
    },
    {
      "midi": 74,
      "hit": false,
      "t": 7941.1725000000015,
      "d": 176.47050000000036,
      "v": 82
    },
    {
      "midi": 67,
      "hit": false,
      "t": 8117.642999999999,
      "d": 123.5293499999998,
      "v": 100
    },
    {
      "midi": 67,
      "hit": false,
      "t": 8117.643000000002,
      "d": 176.47049999999945,
      "v": 78
    },
    {
      "midi": 72,
      "hit": false,
      "t": 8117.643000000002,
      "d": 176.47049999999945,
      "v": 80
    },
    {
      "midi": 76,
      "hit": false,
      "t": 8117.643000000002,
      "d": 176.47049999999945,
      "v": 82
    },
    {
      "midi": 69,
      "hit": false,
      "t": 8294.113500000001,
      "d": 205.88224999999875,
      "v": 78
    },
    {
      "midi": 74,
      "hit": false,
      "t": 8294.113500000001,
      "d": 205.88224999999875,
      "v": 80
    },
    {
      "midi": 77,
      "hit": false,
      "t": 8294.113500000001,
      "d": 205.88224999999875,
      "v": 82
    },
    {
      "midi": 55,
      "hit": false,
      "t": 8470.583999999999,
      "d": 1282.3523000000005,
      "v": 82
    },
    {
      "midi": 60,
      "hit": false,
      "t": 8470.583999999999,
      "d": 1282.3523000000005,
      "v": 82
    },
    {
      "midi": 64,
      "hit": false,
      "t": 8470.583999999999,
      "d": 1282.3523000000005,
      "v": 82
    },
    {
      "midi": 57,
      "hit": false,
      "t": 9882.348,
      "d": 705.8819999999996,
      "v": 82
    },
    {
      "midi": 60,
      "hit": false,
      "t": 9882.348,
      "d": 705.8819999999996,
      "v": 82
    },
    {
      "midi": 65,
      "hit": false,
      "t": 9882.348,
      "d": 705.8819999999996,
      "v": 82
    },
    {
      "midi": 60,
      "hit": false,
      "t": 10588.23,
      "d": 705.8819999999996,
      "v": 82
    },
    {
      "midi": 62,
      "hit": false,
      "t": 10588.23,
      "d": 705.8819999999996,
      "v": 82
    },
    {
      "midi": 65,
      "hit": false,
      "t": 10588.23,
      "d": 705.8819999999996,
      "v": 82
    },
    {
      "midi": 69,
      "hit": false,
      "t": 10588.23,
      "d": 705.8819999999996,
      "v": 82
    },
    {
      "midi": 57,
      "hit": false,
      "t": 11294.112,
      "d": 1282.3523000000005,
      "v": 82
    },
    {
      "midi": 60,
      "hit": false,
      "t": 11294.112,
      "d": 1282.3523000000005,
      "v": 82
    },
    {
      "midi": 65,
      "hit": false,
      "t": 11294.112,
      "d": 1282.3523000000005,
      "v": 82
    },
    {
      "midi": 55,
      "hit": false,
      "t": 13058.817,
      "d": 764.7055,
      "v": 95
    },
    {
      "midi": 60,
      "hit": false,
      "t": 13058.817,
      "d": 764.7055,
      "v": 95
    },
    {
      "midi": 64,
      "hit": false,
      "t": 13058.817,
      "d": 764.7055,
      "v": 95
    },
    {
      "midi": 57,
      "hit": false,
      "t": 14117.64,
      "d": 1805.8814500000008,
      "v": 85
    },
    {
      "midi": 60,
      "hit": false,
      "t": 14117.64,
      "d": 1805.8814500000008,
      "v": 85
    },
    {
      "midi": 65,
      "hit": false,
      "t": 15529.403999999999,
      "d": 352.9410000000007,
      "v": 74
    },
    {
      "midi": 69,
      "hit": false,
      "t": 15882.345,
      "d": 364.70570000000043,
      "v": 70
    },
    {
      "midi": 72,
      "hit": false,
      "t": 16235.286,
      "d": 347.05864999999903,
      "v": 80
    },
    {
      "midi": 77,
      "hit": false,
      "t": 16588.227,
      "d": 123.5293500000007,
      "v": 100
    },
    {
      "midi": 55,
      "hit": false,
      "t": 17294.109,
      "d": 764.7055,
      "v": 95
    },
    {
      "midi": 60,
      "hit": false,
      "t": 17294.109,
      "d": 764.7055,
      "v": 95
    },
    {
      "midi": 64,
      "hit": false,
      "t": 17294.109,
      "d": 764.7055,
      "v": 95
    },
    {
      "midi": 55,
      "hit": false,
      "t": 18352.932,
      "d": 705.8820000000014,
      "v": 82
    },
    {
      "midi": 59,
      "hit": false,
      "t": 18352.932,
      "d": 705.8820000000014,
      "v": 82
    },
    {
      "midi": 62,
      "hit": false,
      "t": 18352.932,
      "d": 705.8820000000014,
      "v": 82
    },
    {
      "midi": 55,
      "hit": false,
      "t": 19058.814000000002,
      "d": 705.8820000000014,
      "v": 82
    },
    {
      "midi": 59,
      "hit": false,
      "t": 19058.814000000002,
      "d": 705.8820000000014,
      "v": 82
    },
    {
      "midi": 62,
      "hit": false,
      "t": 19058.814000000002,
      "d": 705.8820000000014,
      "v": 82
    },
    {
      "midi": 55,
      "hit": false,
      "t": 20117.637000000002,
      "d": 764.7055,
      "v": 95
    },
    {
      "midi": 60,
      "hit": false,
      "t": 20117.637000000002,
      "d": 764.7055,
      "v": 95
    },
    {
      "midi": 64,
      "hit": false,
      "t": 20117.637000000002,
      "d": 764.7055,
      "v": 95
    },
    {
      "midi": 55,
      "hit": false,
      "t": 21176.460000000003,
      "d": 1282.3522999999986,
      "v": 82
    },
    {
      "midi": 59,
      "hit": false,
      "t": 21176.460000000003,
      "d": 1282.3522999999986,
      "v": 82
    },
    {
      "midi": 62,
      "hit": false,
      "t": 21176.460000000003,
      "d": 1282.3522999999986,
      "v": 82
    },
    {
      "midi": 55,
      "hit": false,
      "t": 22941.165,
      "d": 764.7055,
      "v": 95
    },
    {
      "midi": 60,
      "hit": false,
      "t": 22941.165,
      "d": 764.7055,
      "v": 95
    },
    {
      "midi": 64,
      "hit": false,
      "t": 22941.165,
      "d": 764.7055,
      "v": 95
    },
    {
      "midi": 55,
      "hit": false,
      "t": 23999.988,
      "d": 1282.3522999999986,
      "v": 82
    },
    {
      "midi": 59,
      "hit": false,
      "t": 23999.988,
      "d": 1282.3522999999986,
      "v": 82
    },
    {
      "midi": 62,
      "hit": false,
      "t": 23999.988,
      "d": 1282.3522999999986,
      "v": 82
    },
    {
      "midi": 59,
      "hit": false,
      "t": 25764.693,
      "d": 764.7055,
      "v": 95
    },
    {
      "midi": 62,
      "hit": false,
      "t": 25764.693,
      "d": 764.7055,
      "v": 95
    },
    {
      "midi": 64,
      "hit": false,
      "t": 25764.693,
      "d": 764.7055,
      "v": 95
    },
    {
      "midi": 67,
      "hit": false,
      "t": 25764.693,
      "d": 764.7055,
      "v": 95
    },
    {
      "midi": 57,
      "hit": false,
      "t": 26823.516,
      "d": 1282.3522999999986,
      "v": 82
    },
    {
      "midi": 60,
      "hit": false,
      "t": 26823.516,
      "d": 1282.3522999999986,
      "v": 82
    },
    {
      "midi": 64,
      "hit": false,
      "t": 26823.516,
      "d": 1282.3522999999986,
      "v": 82
    },
    {
      "midi": 59,
      "hit": false,
      "t": 28235.28,
      "d": 1282.3522999999986,
      "v": 82
    },
    {
      "midi": 62,
      "hit": false,
      "t": 28235.28,
      "d": 1282.3522999999986,
      "v": 82
    },
    {
      "midi": 64,
      "hit": false,
      "t": 28235.28,
      "d": 1282.3522999999986,
      "v": 82
    },
    {
      "midi": 67,
      "hit": false,
      "t": 28235.28,
      "d": 1282.3522999999986,
      "v": 82
    },
    {
      "midi": 57,
      "hit": false,
      "t": 29999.984999999997,
      "d": 764.7055,
      "v": 95
    },
    {
      "midi": 60,
      "hit": false,
      "t": 29999.984999999997,
      "d": 764.7055,
      "v": 95
    },
    {
      "midi": 64,
      "hit": false,
      "t": 29999.984999999997,
      "d": 764.7055,
      "v": 95
    },
    {
      "midi": 57,
      "hit": false,
      "t": 31058.807999999997,
      "d": 705.8820000000014,
      "v": 82
    },
    {
      "midi": 60,
      "hit": false,
      "t": 31058.807999999997,
      "d": 705.8820000000014,
      "v": 82
    },
    {
      "midi": 65,
      "hit": false,
      "t": 31058.807999999997,
      "d": 705.8820000000014,
      "v": 82
    },
    {
      "midi": 55,
      "hit": false,
      "t": 31764.69,
      "d": 705.8820000000014,
      "v": 82
    },
    {
      "midi": 59,
      "hit": false,
      "t": 31764.69,
      "d": 705.8820000000014,
      "v": 82
    },
    {
      "midi": 64,
      "hit": false,
      "t": 31764.69,
      "d": 705.8820000000014,
      "v": 82
    },
    {
      "midi": 57,
      "hit": false,
      "t": 32470.572,
      "d": 705.8819999999978,
      "v": 82
    },
    {
      "midi": 62,
      "hit": false,
      "t": 32470.572,
      "d": 705.8819999999978,
      "v": 82
    },
    {
      "midi": 65,
      "hit": false,
      "t": 32470.572,
      "d": 705.8819999999978,
      "v": 82
    },
    {
      "midi": 55,
      "hit": false,
      "t": 33176.454,
      "d": 705.8819999999978,
      "v": 82
    },
    {
      "midi": 60,
      "hit": false,
      "t": 33176.454,
      "d": 705.8819999999978,
      "v": 82
    },
    {
      "midi": 64,
      "hit": false,
      "t": 33176.454,
      "d": 705.8819999999978,
      "v": 82
    },
    {
      "midi": 60,
      "hit": false,
      "t": 34235.276999999995,
      "d": 764.7054999999964,
      "v": 95
    },
    {
      "midi": 62,
      "hit": false,
      "t": 34235.276999999995,
      "d": 764.7054999999964,
      "v": 95
    },
    {
      "midi": 65,
      "hit": false,
      "t": 34235.276999999995,
      "d": 764.7054999999964,
      "v": 95
    },
    {
      "midi": 69,
      "hit": false,
      "t": 34235.276999999995,
      "d": 764.7054999999964,
      "v": 95
    },
    {
      "midi": 59,
      "hit": false,
      "t": 35294.09999999999,
      "d": 1282.3522999999986,
      "v": 82
    },
    {
      "midi": 62,
      "hit": false,
      "t": 35294.09999999999,
      "d": 1282.3522999999986,
      "v": 82
    },
    {
      "midi": 65,
      "hit": false,
      "t": 35294.09999999999,
      "d": 1282.3522999999986,
      "v": 82
    },
    {
      "midi": 67,
      "hit": false,
      "t": 35294.09999999999,
      "d": 1282.3522999999986,
      "v": 82
    },
    {
      "midi": 60,
      "hit": false,
      "t": 35999.981999999996,
      "d": 176.47050000000309,
      "v": 80
    },
    {
      "midi": 65,
      "hit": false,
      "t": 35999.981999999996,
      "d": 176.47050000000309,
      "v": 82
    },
    {
      "midi": 69,
      "hit": false,
      "t": 35999.981999999996,
      "d": 176.47050000000309,
      "v": 84
    },
    {
      "midi": 43,
      "hit": false,
      "t": 35999.981999999996,
      "d": 705.8820000000123,
      "v": 54
    },
    {
      "midi": 55,
      "hit": false,
      "t": 35999.981999999996,
      "d": 705.8820000000123,
      "v": 64
    },
    {
      "midi": 62,
      "hit": false,
      "t": 36176.4525,
      "d": 176.47050000000309,
      "v": 78
    },
    {
      "midi": 67,
      "hit": false,
      "t": 36176.4525,
      "d": 176.47050000000309,
      "v": 80
    },
    {
      "midi": 71,
      "hit": false,
      "t": 36176.4525,
      "d": 176.47050000000309,
      "v": 82
    },
    {
      "midi": 64,
      "hit": false,
      "t": 36352.923,
      "d": 176.47050000000309,
      "v": 78
    },
    {
      "midi": 69,
      "hit": false,
      "t": 36352.923,
      "d": 176.47050000000309,
      "v": 80
    },
    {
      "midi": 72,
      "hit": false,
      "t": 36352.923,
      "d": 176.47050000000309,
      "v": 82
    },
    {
      "midi": 65,
      "hit": false,
      "t": 36529.393500000006,
      "d": 205.8822500000024,
      "v": 78
    },
    {
      "midi": 71,
      "hit": false,
      "t": 36529.393500000006,
      "d": 205.8822500000024,
      "v": 80
    },
    {
      "midi": 74,
      "hit": false,
      "t": 36529.393500000006,
      "d": 205.8822500000024,
      "v": 82
    },
    {
      "midi": 55,
      "hit": false,
      "t": 37058.80499999999,
      "d": 764.7054999999964,
      "v": 95
    },
    {
      "midi": 60,
      "hit": false,
      "t": 37058.80499999999,
      "d": 764.7054999999964,
      "v": 95
    },
    {
      "midi": 64,
      "hit": false,
      "t": 37058.80499999999,
      "d": 764.7054999999964,
      "v": 95
    },
    {
      "midi": 57,
      "hit": false,
      "t": 38117.62799999999,
      "d": 705.8819999999978,
      "v": 82
    },
    {
      "midi": 60,
      "hit": false,
      "t": 38117.62799999999,
      "d": 705.8819999999978,
      "v": 82
    },
    {
      "midi": 65,
      "hit": false,
      "t": 38117.62799999999,
      "d": 705.8819999999978,
      "v": 82
    },
    {
      "midi": 60,
      "hit": false,
      "t": 38823.50999999999,
      "d": 705.8819999999978,
      "v": 82
    },
    {
      "midi": 62,
      "hit": false,
      "t": 38823.50999999999,
      "d": 705.8819999999978,
      "v": 82
    },
    {
      "midi": 65,
      "hit": false,
      "t": 38823.50999999999,
      "d": 705.8819999999978,
      "v": 82
    },
    {
      "midi": 69,
      "hit": false,
      "t": 38823.50999999999,
      "d": 705.8819999999978,
      "v": 82
    },
    {
      "midi": 57,
      "hit": false,
      "t": 39529.391999999985,
      "d": 1282.3522999999986,
      "v": 82
    },
    {
      "midi": 60,
      "hit": false,
      "t": 39529.391999999985,
      "d": 1282.3522999999986,
      "v": 82
    },
    {
      "midi": 65,
      "hit": false,
      "t": 39529.391999999985,
      "d": 1282.3522999999986,
      "v": 82
    },
    {
      "midi": 55,
      "hit": false,
      "t": 40941.15599999998,
      "d": 1282.3522999999986,
      "v": 82
    },
    {
      "midi": 60,
      "hit": false,
      "t": 40941.15599999998,
      "d": 1282.3522999999986,
      "v": 82
    },
    {
      "midi": 64,
      "hit": false,
      "t": 40941.15599999998,
      "d": 1282.3522999999986,
      "v": 82
    },
    {
      "midi": 57,
      "hit": false,
      "t": 42352.91999999998,
      "d": 247.0587000000014,
      "v": 87
    },
    {
      "midi": 60,
      "hit": false,
      "t": 42352.91999999998,
      "d": 247.0587000000014,
      "v": 87
    },
    {
      "midi": 65,
      "hit": false,
      "t": 42352.91999999998,
      "d": 247.0587000000014,
      "v": 87
    },
    {
      "midi": 57,
      "hit": false,
      "t": 42705.860999999975,
      "d": 199.99990000000253,
      "v": 82
    },
    {
      "midi": 60,
      "hit": false,
      "t": 42705.860999999975,
      "d": 199.99990000000253,
      "v": 82
    },
    {
      "midi": 65,
      "hit": false,
      "t": 42705.860999999975,
      "d": 199.99990000000253,
      "v": 82
    },
    {
      "midi": 57,
      "hit": false,
      "t": 43411.74299999998,
      "d": 1111.7641500000027,
      "v": 82
    },
    {
      "midi": 60,
      "hit": false,
      "t": 43411.74299999998,
      "d": 1111.7641500000027,
      "v": 82
    },
    {
      "midi": 65,
      "hit": false,
      "t": 43411.74299999998,
      "d": 1111.7641500000027,
      "v": 82
    },
    {
      "midi": 55,
      "hit": false,
      "t": 45176.44799999998,
      "d": 1282.3522999999986,
      "v": 82
    },
    {
      "midi": 60,
      "hit": false,
      "t": 45176.44799999998,
      "d": 1282.3522999999986,
      "v": 82
    },
    {
      "midi": 64,
      "hit": false,
      "t": 45176.44799999998,
      "d": 1282.3522999999986,
      "v": 82
    },
    {
      "midi": 55,
      "hit": false,
      "t": 46588.21199999998,
      "d": 705.8819999999978,
      "v": 82
    },
    {
      "midi": 59,
      "hit": false,
      "t": 46588.21199999998,
      "d": 705.8819999999978,
      "v": 82
    },
    {
      "midi": 62,
      "hit": false,
      "t": 46588.21199999998,
      "d": 705.8819999999978,
      "v": 82
    },
    {
      "midi": 55,
      "hit": false,
      "t": 47294.093999999975,
      "d": 705.8819999999978,
      "v": 82
    },
    {
      "midi": 59,
      "hit": false,
      "t": 47294.093999999975,
      "d": 705.8819999999978,
      "v": 82
    },
    {
      "midi": 62,
      "hit": false,
      "t": 47294.093999999975,
      "d": 705.8819999999978,
      "v": 82
    },
    {
      "midi": 55,
      "hit": false,
      "t": 47999.97599999997,
      "d": 1282.3522999999986,
      "v": 82
    },
    {
      "midi": 60,
      "hit": false,
      "t": 47999.97599999997,
      "d": 1282.3522999999986,
      "v": 82
    },
    {
      "midi": 64,
      "hit": false,
      "t": 47999.97599999997,
      "d": 1282.3522999999986,
      "v": 82
    },
    {
      "midi": 55,
      "hit": false,
      "t": 49411.73999999997,
      "d": 1282.3522999999986,
      "v": 82
    },
    {
      "midi": 59,
      "hit": false,
      "t": 49411.73999999997,
      "d": 1282.3522999999986,
      "v": 82
    },
    {
      "midi": 62,
      "hit": false,
      "t": 49411.73999999997,
      "d": 1282.3522999999986,
      "v": 82
    },
    {
      "midi": 55,
      "hit": false,
      "t": 51176.44499999997,
      "d": 764.7054999999964,
      "v": 95
    },
    {
      "midi": 60,
      "hit": false,
      "t": 51176.44499999997,
      "d": 764.7054999999964,
      "v": 95
    },
    {
      "midi": 64,
      "hit": false,
      "t": 51176.44499999997,
      "d": 764.7054999999964,
      "v": 95
    },
    {
      "midi": 55,
      "hit": false,
      "t": 52588.208999999966,
      "d": 764.7054999999964,
      "v": 95
    },
    {
      "midi": 59,
      "hit": false,
      "t": 52588.208999999966,
      "d": 764.7054999999964,
      "v": 95
    },
    {
      "midi": 62,
      "hit": false,
      "t": 52588.208999999966,
      "d": 764.7054999999964,
      "v": 95
    },
    {
      "midi": 59,
      "hit": false,
      "t": 53647.03199999996,
      "d": 1282.3522999999986,
      "v": 82
    },
    {
      "midi": 62,
      "hit": false,
      "t": 53647.03199999996,
      "d": 1282.3522999999986,
      "v": 82
    },
    {
      "midi": 64,
      "hit": false,
      "t": 53647.03199999996,
      "d": 1282.3522999999986,
      "v": 82
    },
    {
      "midi": 67,
      "hit": false,
      "t": 53647.03199999996,
      "d": 1282.3522999999986,
      "v": 82
    },
    {
      "midi": 57,
      "hit": false,
      "t": 55058.79599999996,
      "d": 1282.3522999999986,
      "v": 82
    },
    {
      "midi": 60,
      "hit": false,
      "t": 55058.79599999996,
      "d": 1282.3522999999986,
      "v": 82
    },
    {
      "midi": 64,
      "hit": false,
      "t": 55058.79599999996,
      "d": 1282.3522999999986,
      "v": 82
    },
    {
      "midi": 59,
      "hit": false,
      "t": 56470.559999999954,
      "d": 1282.3522999999986,
      "v": 82
    },
    {
      "midi": 62,
      "hit": false,
      "t": 56470.559999999954,
      "d": 1282.3522999999986,
      "v": 82
    },
    {
      "midi": 64,
      "hit": false,
      "t": 56470.559999999954,
      "d": 1282.3522999999986,
      "v": 82
    },
    {
      "midi": 67,
      "hit": false,
      "t": 56470.559999999954,
      "d": 1282.3522999999986,
      "v": 82
    },
    {
      "midi": 57,
      "hit": false,
      "t": 57882.32399999995,
      "d": 1282.3522999999986,
      "v": 82
    },
    {
      "midi": 60,
      "hit": false,
      "t": 57882.32399999995,
      "d": 1282.3522999999986,
      "v": 82
    },
    {
      "midi": 64,
      "hit": false,
      "t": 57882.32399999995,
      "d": 1282.3522999999986,
      "v": 82
    },
    {
      "midi": 57,
      "hit": false,
      "t": 59294.087999999945,
      "d": 705.8819999999978,
      "v": 82
    },
    {
      "midi": 60,
      "hit": false,
      "t": 59294.087999999945,
      "d": 705.8819999999978,
      "v": 82
    },
    {
      "midi": 65,
      "hit": false,
      "t": 59294.087999999945,
      "d": 705.8819999999978,
      "v": 82
    },
    {
      "midi": 55,
      "hit": false,
      "t": 59999.96999999994,
      "d": 705.8819999999978,
      "v": 82
    },
    {
      "midi": 59,
      "hit": false,
      "t": 59999.96999999994,
      "d": 705.8819999999978,
      "v": 82
    },
    {
      "midi": 64,
      "hit": false,
      "t": 59999.96999999994,
      "d": 705.8819999999978,
      "v": 82
    },
    {
      "midi": 57,
      "hit": false,
      "t": 60705.85199999994,
      "d": 705.8819999999978,
      "v": 82
    },
    {
      "midi": 62,
      "hit": false,
      "t": 60705.85199999994,
      "d": 705.8819999999978,
      "v": 82
    },
    {
      "midi": 65,
      "hit": false,
      "t": 60705.85199999994,
      "d": 705.8819999999978,
      "v": 82
    },
    {
      "midi": 55,
      "hit": false,
      "t": 61411.73399999994,
      "d": 705.8819999999978,
      "v": 82
    },
    {
      "midi": 60,
      "hit": false,
      "t": 61411.73399999994,
      "d": 705.8819999999978,
      "v": 82
    },
    {
      "midi": 64,
      "hit": false,
      "t": 61411.73399999994,
      "d": 705.8819999999978,
      "v": 82
    },
    {
      "midi": 60,
      "hit": false,
      "t": 62117.615999999936,
      "d": 1282.3522999999986,
      "v": 82
    },
    {
      "midi": 62,
      "hit": false,
      "t": 62117.615999999936,
      "d": 1282.3522999999986,
      "v": 82
    },
    {
      "midi": 65,
      "hit": false,
      "t": 62117.615999999936,
      "d": 1282.3522999999986,
      "v": 82
    },
    {
      "midi": 69,
      "hit": false,
      "t": 62117.615999999936,
      "d": 1282.3522999999986,
      "v": 82
    },
    {
      "midi": 59,
      "hit": false,
      "t": 63529.37999999993,
      "d": 1282.3522999999986,
      "v": 82
    },
    {
      "midi": 62,
      "hit": false,
      "t": 63529.37999999993,
      "d": 1282.3522999999986,
      "v": 82
    },
    {
      "midi": 65,
      "hit": false,
      "t": 63529.37999999993,
      "d": 1282.3522999999986,
      "v": 82
    },
    {
      "midi": 67,
      "hit": false,
      "t": 63529.37999999993,
      "d": 1282.3522999999986,
      "v": 82
    },
    {
      "midi": 36,
      "hit": false,
      "t": 64941.14400000001,
      "d": 352.9409999999989,
      "v": 58
    },
    {
      "midi": 60,
      "hit": false,
      "t": 64941.14400000001,
      "d": 2117.6460000000297,
      "v": 68
    },
    {
      "midi": 64,
      "hit": false,
      "t": 64941.14400000001,
      "d": 2117.6460000000297,
      "v": 78
    },
    {
      "midi": 67,
      "hit": false,
      "t": 64941.14400000001,
      "d": 2117.6460000000297,
      "v": 82
    },
    {
      "midi": 72,
      "hit": false,
      "t": 64941.14400000001,
      "d": 2117.6460000000297,
      "v": 88
    },
    {
      "midi": 55,
      "hit": false,
      "t": 65294.084999999934,
      "d": 270.5880999999936,
      "v": 82
    },
    {
      "midi": 60,
      "hit": false,
      "t": 65294.084999999934,
      "d": 270.5880999999936,
      "v": 82
    },
    {
      "midi": 64,
      "hit": false,
      "t": 65294.084999999934,
      "d": 270.5880999999936,
      "v": 82
    },
    {
      "midi": 43,
      "hit": false,
      "t": 65294.08500000001,
      "d": 352.94100000000617,
      "v": 52
    },
    {
      "midi": 48,
      "hit": false,
      "t": 65647.02600000001,
      "d": 352.94100000000617,
      "v": 54
    },
    {
      "midi": 48,
      "hit": false,
      "t": 65999.96699999993,
      "d": 411.7645000000048,
      "v": 68
    },
    {
      "midi": 50,
      "hit": false,
      "t": 65999.96700000002,
      "d": 352.94100000000617,
      "v": 52
    },
    {
      "midi": 55,
      "hit": false,
      "t": 66352.90799999994,
      "d": 411.7645000000048,
      "v": 80
    },
    {
      "midi": 60,
      "hit": false,
      "t": 66352.90799999994,
      "d": 411.7645000000048,
      "v": 80
    },
    {
      "midi": 64,
      "hit": false,
      "t": 66352.90799999994,
      "d": 411.7645000000048,
      "v": 80
    },
    {
      "midi": 52,
      "hit": false,
      "t": 66352.90800000002,
      "d": 352.94100000000617,
      "v": 56
    },
    {
      "midi": 55,
      "hit": false,
      "t": 66705.84900000003,
      "d": 1058.8229999999894,
      "v": 52
    },
    {
      "midi": 55,
      "hit": false,
      "t": 67058.78999999994,
      "d": 223.5292999999947,
      "v": 82
    },
    {
      "midi": 60,
      "hit": false,
      "t": 67058.78999999994,
      "d": 223.5292999999947,
      "v": 82
    },
    {
      "midi": 64,
      "hit": false,
      "t": 67058.78999999994,
      "d": 223.5292999999947,
      "v": 82
    },
    {
      "midi": 60,
      "hit": false,
      "t": 67058.79000000004,
      "d": 188.23519999999553,
      "v": 86
    },
    {
      "midi": 62,
      "hit": false,
      "t": 67235.26050000003,
      "d": 188.23519999999553,
      "v": 82
    },
    {
      "midi": 64,
      "hit": false,
      "t": 67411.73100000003,
      "d": 88.2352499999979,
      "v": 82
    },
    {
      "midi": 65,
      "hit": false,
      "t": 67482.31920000003,
      "d": 88.2352499999979,
      "v": 82
    },
    {
      "midi": 67,
      "hit": false,
      "t": 67552.90740000003,
      "d": 88.2352499999979,
      "v": 82
    },
    {
      "midi": 69,
      "hit": false,
      "t": 67623.49560000002,
      "d": 88.2352499999979,
      "v": 82
    },
    {
      "midi": 71,
      "hit": false,
      "t": 67694.08380000002,
      "d": 88.2352499999979,
      "v": 82
    },
    {
      "midi": 57,
      "hit": false,
      "t": 67764.67199999993,
      "d": 1105.8818000000028,
      "v": 87
    },
    {
      "midi": 60,
      "hit": false,
      "t": 67764.67199999993,
      "d": 1105.8818000000028,
      "v": 87
    },
    {
      "midi": 65,
      "hit": false,
      "t": 67764.67199999993,
      "d": 1105.8818000000028,
      "v": 87
    },
    {
      "midi": 72,
      "hit": false,
      "t": 67764.67200000002,
      "d": 705.8819999999978,
      "v": 88
    },
    {
      "midi": 53,
      "hit": false,
      "t": 68823.49499999994,
      "d": 394.11744999999064,
      "v": 80
    },
    {
      "midi": 57,
      "hit": false,
      "t": 69176.43599999993,
      "d": 476.47035000000324,
      "v": 85
    },
    {
      "midi": 60,
      "hit": false,
      "t": 69176.43599999993,
      "d": 476.47035000000324,
      "v": 85
    },
    {
      "midi": 65,
      "hit": false,
      "t": 69176.43599999993,
      "d": 476.47035000000324,
      "v": 85
    },
    {
      "midi": 57,
      "hit": false,
      "t": 69882.31799999993,
      "d": 241.17634999999427,
      "v": 100
    },
    {
      "midi": 60,
      "hit": false,
      "t": 69882.31799999993,
      "d": 241.17634999999427,
      "v": 100
    },
    {
      "midi": 65,
      "hit": false,
      "t": 69882.31799999993,
      "d": 241.17634999999427,
      "v": 100
    },
    {
      "midi": 59,
      "hit": false,
      "t": 70588.19999999992,
      "d": 247.05869999999413,
      "v": 87
    },
    {
      "midi": 62,
      "hit": false,
      "t": 70588.19999999992,
      "d": 247.05869999999413,
      "v": 87
    },
    {
      "midi": 64,
      "hit": false,
      "t": 70588.19999999992,
      "d": 247.05869999999413,
      "v": 87
    },
    {
      "midi": 68,
      "hit": false,
      "t": 70588.19999999992,
      "d": 247.05869999999413,
      "v": 87
    },
    {
      "midi": 59,
      "hit": false,
      "t": 70941.14099999992,
      "d": 199.99989999999525,
      "v": 82
    },
    {
      "midi": 62,
      "hit": false,
      "t": 70941.14099999992,
      "d": 199.99989999999525,
      "v": 82
    },
    {
      "midi": 64,
      "hit": false,
      "t": 70941.14099999992,
      "d": 199.99989999999525,
      "v": 82
    },
    {
      "midi": 68,
      "hit": false,
      "t": 70941.14099999992,
      "d": 199.99989999999525,
      "v": 82
    },
    {
      "midi": 59,
      "hit": false,
      "t": 71647.02299999991,
      "d": 1111.7641500000027,
      "v": 82
    },
    {
      "midi": 62,
      "hit": false,
      "t": 71647.02299999991,
      "d": 1111.7641500000027,
      "v": 82
    },
    {
      "midi": 64,
      "hit": false,
      "t": 71647.02299999991,
      "d": 1111.7641500000027,
      "v": 82
    },
    {
      "midi": 68,
      "hit": false,
      "t": 71647.02299999991,
      "d": 1111.7641500000027,
      "v": 82
    },
    {
      "midi": 57,
      "hit": false,
      "t": 73764.66899999992,
      "d": 764.7054999999964,
      "v": 95
    },
    {
      "midi": 60,
      "hit": false,
      "t": 73764.66899999992,
      "d": 764.7054999999964,
      "v": 95
    },
    {
      "midi": 64,
      "hit": false,
      "t": 73764.66899999992,
      "d": 764.7054999999964,
      "v": 95
    },
    {
      "midi": 57,
      "hit": false,
      "t": 74823.49199999991,
      "d": 1282.3522999999986,
      "v": 82
    },
    {
      "midi": 60,
      "hit": false,
      "t": 74823.49199999991,
      "d": 1282.3522999999986,
      "v": 82
    },
    {
      "midi": 64,
      "hit": false,
      "t": 74823.49199999991,
      "d": 1282.3522999999986,
      "v": 82
    },
    {
      "midi": 57,
      "hit": false,
      "t": 76588.19699999991,
      "d": 270.5880999999936,
      "v": 82
    },
    {
      "midi": 60,
      "hit": false,
      "t": 76588.19699999991,
      "d": 270.5880999999936,
      "v": 82
    },
    {
      "midi": 65,
      "hit": false,
      "t": 76588.19699999991,
      "d": 270.5880999999936,
      "v": 82
    },
    {
      "midi": 53,
      "hit": false,
      "t": 77294.07899999991,
      "d": 411.7645000000048,
      "v": 68
    },
    {
      "midi": 57,
      "hit": false,
      "t": 77647.01999999992,
      "d": 411.7645000000048,
      "v": 80
    },
    {
      "midi": 60,
      "hit": false,
      "t": 77647.01999999992,
      "d": 411.7645000000048,
      "v": 80
    },
    {
      "midi": 65,
      "hit": false,
      "t": 77647.01999999992,
      "d": 411.7645000000048,
      "v": 80
    },
    {
      "midi": 57,
      "hit": false,
      "t": 78352.90199999991,
      "d": 223.5292999999947,
      "v": 82
    },
    {
      "midi": 60,
      "hit": false,
      "t": 78352.90199999991,
      "d": 223.5292999999947,
      "v": 82
    },
    {
      "midi": 65,
      "hit": false,
      "t": 78352.90199999991,
      "d": 223.5292999999947,
      "v": 82
    },
    {
      "midi": 58,
      "hit": false,
      "t": 79058.78399999991,
      "d": 1282.3522999999986,
      "v": 82
    },
    {
      "midi": 60,
      "hit": false,
      "t": 79058.78399999991,
      "d": 1282.3522999999986,
      "v": 82
    },
    {
      "midi": 64,
      "hit": false,
      "t": 79058.78399999991,
      "d": 1282.3522999999986,
      "v": 82
    },
    {
      "midi": 67,
      "hit": false,
      "t": 79058.78399999991,
      "d": 1282.3522999999986,
      "v": 82
    },
    {
      "midi": 58,
      "hit": false,
      "t": 80470.54799999991,
      "d": 1282.3522999999986,
      "v": 82
    },
    {
      "midi": 62,
      "hit": false,
      "t": 80470.54799999991,
      "d": 1282.3522999999986,
      "v": 82
    },
    {
      "midi": 65,
      "hit": false,
      "t": 80470.54799999991,
      "d": 1282.3522999999986,
      "v": 82
    },
    {
      "midi": 41,
      "hit": false,
      "t": 81882.31200000002,
      "d": 352.94100000000617,
      "v": 68
    },
    {
      "midi": 53,
      "hit": false,
      "t": 81882.31200000002,
      "d": 352.94100000000617,
      "v": 78
    },
    {
      "midi": 72,
      "hit": false,
      "t": 81882.31200000002,
      "d": 705.8820000000123,
      "v": 82
    },
    {
      "midi": 81,
      "hit": false,
      "t": 81882.31200000002,
      "d": 705.8820000000123,
      "v": 88
    },
    {
      "midi": 57,
      "hit": false,
      "t": 82235.25299999991,
      "d": 764.7054999999964,
      "v": 95
    },
    {
      "midi": 60,
      "hit": false,
      "t": 82235.25299999991,
      "d": 764.7054999999964,
      "v": 95
    },
    {
      "midi": 65,
      "hit": false,
      "t": 82235.25299999991,
      "d": 764.7054999999964,
      "v": 95
    },
    {
      "midi": 43,
      "hit": false,
      "t": 82235.25300000003,
      "d": 352.94100000000617,
      "v": 62
    },
    {
      "midi": 55,
      "hit": false,
      "t": 82235.25300000003,
      "d": 352.94100000000617,
      "v": 72
    },
    {
      "midi": 45,
      "hit": false,
      "t": 82588.19400000003,
      "d": 352.94100000000617,
      "v": 64
    },
    {
      "midi": 57,
      "hit": false,
      "t": 82588.19400000003,
      "d": 352.94100000000617,
      "v": 74
    },
    {
      "midi": 72,
      "hit": false,
      "t": 82588.19400000003,
      "d": 352.94100000000617,
      "v": 78
    },
    {
      "midi": 77,
      "hit": false,
      "t": 82588.19400000003,
      "d": 352.94100000000617,
      "v": 84
    },
    {
      "midi": 48,
      "hit": false,
      "t": 82941.13500000004,
      "d": 1764.7049999999726,
      "v": 62
    },
    {
      "midi": 60,
      "hit": false,
      "t": 82941.13500000004,
      "d": 1764.7049999999726,
      "v": 72
    },
    {
      "midi": 91,
      "hit": false,
      "t": 83470.54650000004,
      "d": 176.4704999999958,
      "v": 82
    },
    {
      "midi": 55,
      "hit": false,
      "t": 83647.0169999999,
      "d": 764.7054999999964,
      "v": 95
    },
    {
      "midi": 60,
      "hit": false,
      "t": 83647.0169999999,
      "d": 764.7054999999964,
      "v": 95
    },
    {
      "midi": 64,
      "hit": false,
      "t": 83647.0169999999,
      "d": 764.7054999999964,
      "v": 95
    },
    {
      "midi": 88,
      "hit": false,
      "t": 83647.01700000004,
      "d": 176.4704999999958,
      "v": 82
    },
    {
      "midi": 84,
      "hit": false,
      "t": 83823.48750000003,
      "d": 176.4704999999958,
      "v": 82
    },
    {
      "midi": 79,
      "hit": false,
      "t": 83999.95800000003,
      "d": 176.4704999999958,
      "v": 84
    },
    {
      "midi": 76,
      "hit": false,
      "t": 84176.42850000002,
      "d": 176.4704999999958,
      "v": 82
    },
    {
      "midi": 72,
      "hit": false,
      "t": 84352.89900000002,
      "d": 176.4704999999958,
      "v": 82
    },
    {
      "midi": 67,
      "hit": false,
      "t": 84529.36950000002,
      "d": 205.8822499999951,
      "v": 82
    },
    {
      "midi": 57,
      "hit": false,
      "t": 84705.8399999999,
      "d": 1282.3522999999986,
      "v": 82
    },
    {
      "midi": 60,
      "hit": false,
      "t": 84705.8399999999,
      "d": 1282.3522999999986,
      "v": 82
    },
    {
      "midi": 65,
      "hit": false,
      "t": 84705.8399999999,
      "d": 1282.3522999999986,
      "v": 82
    },
    {
      "midi": 55,
      "hit": false,
      "t": 86117.60399999989,
      "d": 1282.3522999999986,
      "v": 82
    },
    {
      "midi": 60,
      "hit": false,
      "t": 86117.60399999989,
      "d": 1282.3522999999986,
      "v": 82
    },
    {
      "midi": 64,
      "hit": false,
      "t": 86117.60399999989,
      "d": 1282.3522999999986,
      "v": 82
    },
    {
      "midi": 60,
      "hit": false,
      "t": 87529.36799999989,
      "d": 1105.8818000000028,
      "v": 87
    },
    {
      "midi": 62,
      "hit": false,
      "t": 87529.36799999989,
      "d": 1105.8818000000028,
      "v": 87
    },
    {
      "midi": 65,
      "hit": false,
      "t": 87529.36799999989,
      "d": 1105.8818000000028,
      "v": 87
    },
    {
      "midi": 69,
      "hit": false,
      "t": 87529.36799999989,
      "d": 1105.8818000000028,
      "v": 87
    },
    {
      "midi": 50,
      "hit": false,
      "t": 88588.19099999989,
      "d": 394.1174500000052,
      "v": 80
    },
    {
      "midi": 60,
      "hit": false,
      "t": 88941.1319999999,
      "d": 476.47035000000324,
      "v": 85
    },
    {
      "midi": 62,
      "hit": false,
      "t": 88941.1319999999,
      "d": 476.47035000000324,
      "v": 85
    },
    {
      "midi": 65,
      "hit": false,
      "t": 88941.1319999999,
      "d": 476.47035000000324,
      "v": 85
    },
    {
      "midi": 69,
      "hit": false,
      "t": 88941.1319999999,
      "d": 476.47035000000324,
      "v": 85
    },
    {
      "midi": 60,
      "hit": false,
      "t": 89647.0139999999,
      "d": 241.17634999999427,
      "v": 100
    },
    {
      "midi": 62,
      "hit": false,
      "t": 89647.0139999999,
      "d": 241.17634999999427,
      "v": 100
    },
    {
      "midi": 65,
      "hit": false,
      "t": 89647.0139999999,
      "d": 241.17634999999427,
      "v": 100
    },
    {
      "midi": 69,
      "hit": false,
      "t": 89647.0139999999,
      "d": 241.17634999999427,
      "v": 100
    },
    {
      "midi": 59,
      "hit": false,
      "t": 90705.83699999988,
      "d": 270.5880999999936,
      "v": 82
    },
    {
      "midi": 62,
      "hit": false,
      "t": 90705.83699999988,
      "d": 270.5880999999936,
      "v": 82
    },
    {
      "midi": 65,
      "hit": false,
      "t": 90705.83699999988,
      "d": 270.5880999999936,
      "v": 82
    },
    {
      "midi": 67,
      "hit": false,
      "t": 90705.83699999988,
      "d": 270.5880999999936,
      "v": 82
    },
    {
      "midi": 43,
      "hit": false,
      "t": 91411.71899999988,
      "d": 411.7645000000048,
      "v": 68
    },
    {
      "midi": 59,
      "hit": false,
      "t": 91764.65999999989,
      "d": 411.7645000000048,
      "v": 80
    },
    {
      "midi": 62,
      "hit": false,
      "t": 91764.65999999989,
      "d": 411.7645000000048,
      "v": 80
    },
    {
      "midi": 65,
      "hit": false,
      "t": 91764.65999999989,
      "d": 411.7645000000048,
      "v": 80
    },
    {
      "midi": 67,
      "hit": false,
      "t": 91764.65999999989,
      "d": 411.7645000000048,
      "v": 80
    },
    {
      "midi": 57,
      "hit": false,
      "t": 91764.66,
      "d": 176.4704999999958,
      "v": 82
    },
    {
      "midi": 62,
      "hit": false,
      "t": 91764.66,
      "d": 176.4704999999958,
      "v": 84
    },
    {
      "midi": 65,
      "hit": false,
      "t": 91764.66,
      "d": 176.4704999999958,
      "v": 86
    },
    {
      "midi": 59,
      "hit": false,
      "t": 91941.1305,
      "d": 176.4704999999958,
      "v": 78
    },
    {
      "midi": 64,
      "hit": false,
      "t": 91941.1305,
      "d": 176.4704999999958,
      "v": 80
    },
    {
      "midi": 67,
      "hit": false,
      "t": 91941.1305,
      "d": 176.4704999999958,
      "v": 82
    },
    {
      "midi": 60,
      "hit": false,
      "t": 92117.601,
      "d": 176.4704999999958,
      "v": 78
    },
    {
      "midi": 65,
      "hit": false,
      "t": 92117.601,
      "d": 176.4704999999958,
      "v": 80
    },
    {
      "midi": 69,
      "hit": false,
      "t": 92117.601,
      "d": 176.4704999999958,
      "v": 82
    },
    {
      "midi": 62,
      "hit": false,
      "t": 92294.07149999999,
      "d": 176.4704999999958,
      "v": 78
    },
    {
      "midi": 67,
      "hit": false,
      "t": 92294.07149999999,
      "d": 176.4704999999958,
      "v": 80
    },
    {
      "midi": 71,
      "hit": false,
      "t": 92294.07149999999,
      "d": 176.4704999999958,
      "v": 82
    },
    {
      "midi": 59,
      "hit": false,
      "t": 92470.54199999988,
      "d": 223.5292999999947,
      "v": 82
    },
    {
      "midi": 62,
      "hit": false,
      "t": 92470.54199999988,
      "d": 223.5292999999947,
      "v": 82
    },
    {
      "midi": 65,
      "hit": false,
      "t": 92470.54199999988,
      "d": 223.5292999999947,
      "v": 82
    },
    {
      "midi": 67,
      "hit": false,
      "t": 92470.54199999988,
      "d": 223.5292999999947,
      "v": 82
    },
    {
      "midi": 64,
      "hit": false,
      "t": 92470.54199999999,
      "d": 176.4704999999958,
      "v": 80
    },
    {
      "midi": 69,
      "hit": false,
      "t": 92470.54199999999,
      "d": 176.4704999999958,
      "v": 82
    },
    {
      "midi": 72,
      "hit": false,
      "t": 92470.54199999999,
      "d": 176.4704999999958,
      "v": 84
    },
    {
      "midi": 65,
      "hit": false,
      "t": 92647.01249999998,
      "d": 176.4704999999958,
      "v": 78
    },
    {
      "midi": 71,
      "hit": false,
      "t": 92647.01249999998,
      "d": 176.4704999999958,
      "v": 80
    },
    {
      "midi": 74,
      "hit": false,
      "t": 92647.01249999998,
      "d": 176.4704999999958,
      "v": 82
    },
    {
      "midi": 67,
      "hit": false,
      "t": 92823.48299999998,
      "d": 176.4704999999958,
      "v": 78
    },
    {
      "midi": 72,
      "hit": false,
      "t": 92823.48299999998,
      "d": 176.4704999999958,
      "v": 80
    },
    {
      "midi": 76,
      "hit": false,
      "t": 92823.48299999998,
      "d": 176.4704999999958,
      "v": 82
    },
    {
      "midi": 69,
      "hit": false,
      "t": 92999.95349999997,
      "d": 205.8822499999951,
      "v": 78
    },
    {
      "midi": 74,
      "hit": false,
      "t": 92999.95349999997,
      "d": 205.8822499999951,
      "v": 80
    },
    {
      "midi": 77,
      "hit": false,
      "t": 92999.95349999997,
      "d": 205.8822499999951,
      "v": 82
    },
    {
      "midi": 55,
      "hit": false,
      "t": 93529.36499999987,
      "d": 764.7054999999964,
      "v": 95
    },
    {
      "midi": 60,
      "hit": false,
      "t": 93529.36499999987,
      "d": 764.7054999999964,
      "v": 95
    },
    {
      "midi": 64,
      "hit": false,
      "t": 93529.36499999987,
      "d": 764.7054999999964,
      "v": 95
    },
    {
      "midi": 57,
      "hit": false,
      "t": 94588.18799999986,
      "d": 705.8819999999978,
      "v": 82
    },
    {
      "midi": 60,
      "hit": false,
      "t": 94588.18799999986,
      "d": 705.8819999999978,
      "v": 82
    },
    {
      "midi": 65,
      "hit": false,
      "t": 94588.18799999986,
      "d": 705.8819999999978,
      "v": 82
    },
    {
      "midi": 57,
      "hit": false,
      "t": 95294.06999999986,
      "d": 705.8819999999978,
      "v": 82
    },
    {
      "midi": 62,
      "hit": false,
      "t": 95294.06999999986,
      "d": 705.8819999999978,
      "v": 82
    },
    {
      "midi": 65,
      "hit": false,
      "t": 95294.06999999986,
      "d": 705.8819999999978,
      "v": 82
    },
    {
      "midi": 57,
      "hit": false,
      "t": 95999.95199999986,
      "d": 1282.3522999999986,
      "v": 82
    },
    {
      "midi": 60,
      "hit": false,
      "t": 95999.95199999986,
      "d": 1282.3522999999986,
      "v": 82
    },
    {
      "midi": 65,
      "hit": false,
      "t": 95999.95199999986,
      "d": 1282.3522999999986,
      "v": 82
    },
    {
      "midi": 55,
      "hit": false,
      "t": 97411.71599999985,
      "d": 1282.3522999999986,
      "v": 82
    },
    {
      "midi": 60,
      "hit": false,
      "t": 97411.71599999985,
      "d": 1282.3522999999986,
      "v": 82
    },
    {
      "midi": 64,
      "hit": false,
      "t": 97411.71599999985,
      "d": 1282.3522999999986,
      "v": 82
    },
    {
      "midi": 57,
      "hit": false,
      "t": 98823.47999999985,
      "d": 247.05869999999413,
      "v": 87
    },
    {
      "midi": 60,
      "hit": false,
      "t": 98823.47999999985,
      "d": 247.05869999999413,
      "v": 87
    },
    {
      "midi": 65,
      "hit": false,
      "t": 98823.47999999985,
      "d": 247.05869999999413,
      "v": 87
    },
    {
      "midi": 57,
      "hit": false,
      "t": 99176.42099999984,
      "d": 199.99989999999525,
      "v": 82
    },
    {
      "midi": 60,
      "hit": false,
      "t": 99176.42099999984,
      "d": 199.99989999999525,
      "v": 82
    },
    {
      "midi": 65,
      "hit": false,
      "t": 99176.42099999984,
      "d": 199.99989999999525,
      "v": 82
    },
    {
      "midi": 57,
      "hit": false,
      "t": 99882.30299999984,
      "d": 1111.7641500000027,
      "v": 82
    },
    {
      "midi": 60,
      "hit": false,
      "t": 99882.30299999984,
      "d": 1111.7641500000027,
      "v": 82
    },
    {
      "midi": 65,
      "hit": false,
      "t": 99882.30299999984,
      "d": 1111.7641500000027,
      "v": 82
    },
    {
      "midi": 55,
      "hit": false,
      "t": 101999.94899999985,
      "d": 764.7054999999964,
      "v": 95
    },
    {
      "midi": 60,
      "hit": false,
      "t": 101999.94899999985,
      "d": 764.7054999999964,
      "v": 95
    },
    {
      "midi": 64,
      "hit": false,
      "t": 101999.94899999985,
      "d": 764.7054999999964,
      "v": 95
    },
    {
      "midi": 55,
      "hit": false,
      "t": 103411.71299999984,
      "d": 764.7054999999964,
      "v": 95
    },
    {
      "midi": 59,
      "hit": false,
      "t": 103411.71299999984,
      "d": 764.7054999999964,
      "v": 95
    },
    {
      "midi": 62,
      "hit": false,
      "t": 103411.71299999984,
      "d": 764.7054999999964,
      "v": 95
    },
    {
      "midi": 55,
      "hit": false,
      "t": 104470.53599999983,
      "d": 1282.3522999999986,
      "v": 82
    },
    {
      "midi": 60,
      "hit": false,
      "t": 104470.53599999983,
      "d": 1282.3522999999986,
      "v": 82
    },
    {
      "midi": 64,
      "hit": false,
      "t": 104470.53599999983,
      "d": 1282.3522999999986,
      "v": 82
    },
    {
      "midi": 55,
      "hit": false,
      "t": 105882.29999999983,
      "d": 1282.3522999999986,
      "v": 82
    },
    {
      "midi": 59,
      "hit": false,
      "t": 105882.29999999983,
      "d": 1282.3522999999986,
      "v": 82
    },
    {
      "midi": 62,
      "hit": false,
      "t": 105882.29999999983,
      "d": 1282.3522999999986,
      "v": 82
    },
    {
      "midi": 55,
      "hit": false,
      "t": 107294.06399999982,
      "d": 1282.3522999999986,
      "v": 82
    },
    {
      "midi": 60,
      "hit": false,
      "t": 107294.06399999982,
      "d": 1282.3522999999986,
      "v": 82
    },
    {
      "midi": 64,
      "hit": false,
      "t": 107294.06399999982,
      "d": 1282.3522999999986,
      "v": 82
    },
    {
      "midi": 55,
      "hit": false,
      "t": 108705.82799999982,
      "d": 1282.3522999999986,
      "v": 82
    },
    {
      "midi": 59,
      "hit": false,
      "t": 108705.82799999982,
      "d": 1282.3522999999986,
      "v": 82
    },
    {
      "midi": 62,
      "hit": false,
      "t": 108705.82799999982,
      "d": 1282.3522999999986,
      "v": 82
    },
    {
      "midi": 59,
      "hit": false,
      "t": 110117.59199999982,
      "d": 1282.3522999999986,
      "v": 82
    },
    {
      "midi": 62,
      "hit": false,
      "t": 110117.59199999982,
      "d": 1282.3522999999986,
      "v": 82
    },
    {
      "midi": 64,
      "hit": false,
      "t": 110117.59199999982,
      "d": 1282.3522999999986,
      "v": 82
    },
    {
      "midi": 67,
      "hit": false,
      "t": 110117.59199999982,
      "d": 1282.3522999999986,
      "v": 82
    },
    {
      "midi": 57,
      "hit": false,
      "t": 111529.35599999981,
      "d": 1282.3522999999986,
      "v": 82
    },
    {
      "midi": 60,
      "hit": false,
      "t": 111529.35599999981,
      "d": 1282.3522999999986,
      "v": 82
    },
    {
      "midi": 64,
      "hit": false,
      "t": 111529.35599999981,
      "d": 1282.3522999999986,
      "v": 82
    },
    {
      "midi": 59,
      "hit": false,
      "t": 112941.1199999998,
      "d": 1282.3522999999986,
      "v": 82
    },
    {
      "midi": 62,
      "hit": false,
      "t": 112941.1199999998,
      "d": 1282.3522999999986,
      "v": 82
    },
    {
      "midi": 64,
      "hit": false,
      "t": 112941.1199999998,
      "d": 1282.3522999999986,
      "v": 82
    },
    {
      "midi": 67,
      "hit": false,
      "t": 112941.1199999998,
      "d": 1282.3522999999986,
      "v": 82
    },
    {
      "midi": 57,
      "hit": false,
      "t": 114352.8839999998,
      "d": 1282.3522999999986,
      "v": 82
    },
    {
      "midi": 60,
      "hit": false,
      "t": 114352.8839999998,
      "d": 1282.3522999999986,
      "v": 82
    },
    {
      "midi": 64,
      "hit": false,
      "t": 114352.8839999998,
      "d": 1282.3522999999986,
      "v": 82
    },
    {
      "midi": 57,
      "hit": false,
      "t": 115764.6479999998,
      "d": 705.8819999999978,
      "v": 82
    },
    {
      "midi": 60,
      "hit": false,
      "t": 115764.6479999998,
      "d": 705.8819999999978,
      "v": 82
    },
    {
      "midi": 65,
      "hit": false,
      "t": 115764.6479999998,
      "d": 705.8819999999978,
      "v": 82
    },
    {
      "midi": 55,
      "hit": false,
      "t": 116470.5299999998,
      "d": 705.8819999999978,
      "v": 82
    },
    {
      "midi": 59,
      "hit": false,
      "t": 116470.5299999998,
      "d": 705.8819999999978,
      "v": 82
    },
    {
      "midi": 64,
      "hit": false,
      "t": 116470.5299999998,
      "d": 705.8819999999978,
      "v": 82
    },
    {
      "midi": 57,
      "hit": false,
      "t": 117176.4119999998,
      "d": 705.8819999999978,
      "v": 82
    },
    {
      "midi": 62,
      "hit": false,
      "t": 117176.4119999998,
      "d": 705.8819999999978,
      "v": 82
    },
    {
      "midi": 65,
      "hit": false,
      "t": 117176.4119999998,
      "d": 705.8819999999978,
      "v": 82
    },
    {
      "midi": 55,
      "hit": false,
      "t": 117882.29399999979,
      "d": 705.8819999999978,
      "v": 82
    },
    {
      "midi": 60,
      "hit": false,
      "t": 117882.29399999979,
      "d": 705.8819999999978,
      "v": 82
    },
    {
      "midi": 64,
      "hit": false,
      "t": 117882.29399999979,
      "d": 705.8819999999978,
      "v": 82
    },
    {
      "midi": 60,
      "hit": false,
      "t": 118588.17599999979,
      "d": 1282.3522999999986,
      "v": 82
    },
    {
      "midi": 62,
      "hit": false,
      "t": 118588.17599999979,
      "d": 1282.3522999999986,
      "v": 82
    },
    {
      "midi": 65,
      "hit": false,
      "t": 118588.17599999979,
      "d": 1282.3522999999986,
      "v": 82
    },
    {
      "midi": 69,
      "hit": false,
      "t": 118588.17599999979,
      "d": 1282.3522999999986,
      "v": 82
    },
    {
      "midi": 59,
      "hit": false,
      "t": 119999.93999999978,
      "d": 1282.3522999999986,
      "v": 82
    },
    {
      "midi": 62,
      "hit": false,
      "t": 119999.93999999978,
      "d": 1282.3522999999986,
      "v": 82
    },
    {
      "midi": 65,
      "hit": false,
      "t": 119999.93999999978,
      "d": 1282.3522999999986,
      "v": 82
    },
    {
      "midi": 67,
      "hit": false,
      "t": 119999.93999999978,
      "d": 1282.3522999999986,
      "v": 82
    },
    {
      "midi": 55,
      "hit": false,
      "t": 121411.70399999978,
      "d": 247.05869999999413,
      "v": 87
    },
    {
      "midi": 60,
      "hit": false,
      "t": 121411.70399999978,
      "d": 247.05869999999413,
      "v": 87
    },
    {
      "midi": 64,
      "hit": false,
      "t": 121411.70399999978,
      "d": 247.05869999999413,
      "v": 87
    },
    {
      "midi": 36,
      "hit": false,
      "t": 121411.70399999997,
      "d": 352.94100000000617,
      "v": 68
    },
    {
      "midi": 60,
      "hit": false,
      "t": 121411.70399999997,
      "d": 2117.646000000037,
      "v": 78
    },
    {
      "midi": 64,
      "hit": false,
      "t": 121411.70399999997,
      "d": 2117.646000000037,
      "v": 82
    },
    {
      "midi": 67,
      "hit": false,
      "t": 121411.70399999997,
      "d": 2117.646000000037,
      "v": 88
    },
    {
      "midi": 55,
      "hit": false,
      "t": 121764.64499999977,
      "d": 199.99989999999525,
      "v": 82
    },
    {
      "midi": 60,
      "hit": false,
      "t": 121764.64499999977,
      "d": 199.99989999999525,
      "v": 82
    },
    {
      "midi": 64,
      "hit": false,
      "t": 121764.64499999977,
      "d": 199.99989999999525,
      "v": 82
    },
    {
      "midi": 43,
      "hit": false,
      "t": 121764.64499999997,
      "d": 352.94100000000617,
      "v": 62
    },
    {
      "midi": 48,
      "hit": false,
      "t": 122117.58599999998,
      "d": 352.94100000000617,
      "v": 64
    },
    {
      "midi": 55,
      "hit": false,
      "t": 122470.52699999977,
      "d": 1111.7641500000027,
      "v": 82
    },
    {
      "midi": 60,
      "hit": false,
      "t": 122470.52699999977,
      "d": 1111.7641500000027,
      "v": 82
    },
    {
      "midi": 64,
      "hit": false,
      "t": 122470.52699999977,
      "d": 1111.7641500000027,
      "v": 82
    },
    {
      "midi": 50,
      "hit": false,
      "t": 122470.52699999999,
      "d": 352.94100000000617,
      "v": 62
    },
    {
      "midi": 52,
      "hit": false,
      "t": 122823.468,
      "d": 352.94100000000617,
      "v": 66
    },
    {
      "midi": 55,
      "hit": false,
      "t": 123176.409,
      "d": 1058.8229999999894,
      "v": 62
    },
    {
      "midi": 60,
      "hit": false,
      "t": 123529.35,
      "d": 188.23519999999553,
      "v": 86
    },
    {
      "midi": 62,
      "hit": false,
      "t": 123705.8205,
      "d": 188.23519999999553,
      "v": 82
    },
    {
      "midi": 64,
      "hit": false,
      "t": 123882.291,
      "d": 88.2352499999979,
      "v": 82
    },
    {
      "midi": 65,
      "hit": false,
      "t": 123952.8792,
      "d": 88.2352499999979,
      "v": 82
    },
    {
      "midi": 67,
      "hit": false,
      "t": 124023.4674,
      "d": 88.2352499999979,
      "v": 82
    },
    {
      "midi": 69,
      "hit": false,
      "t": 124094.05559999999,
      "d": 88.2352499999979,
      "v": 82
    },
    {
      "midi": 71,
      "hit": false,
      "t": 124164.64379999999,
      "d": 88.2352499999979,
      "v": 82
    },
    {
      "midi": 57,
      "hit": false,
      "t": 124235.23199999977,
      "d": 1105.8818000000028,
      "v": 87
    },
    {
      "midi": 60,
      "hit": false,
      "t": 124235.23199999977,
      "d": 1105.8818000000028,
      "v": 87
    },
    {
      "midi": 65,
      "hit": false,
      "t": 124235.23199999977,
      "d": 1105.8818000000028,
      "v": 87
    },
    {
      "midi": 72,
      "hit": false,
      "t": 124235.23199999999,
      "d": 723.5290499999974,
      "v": 88
    },
    {
      "midi": 53,
      "hit": false,
      "t": 125294.05499999977,
      "d": 394.1174500000052,
      "v": 80
    },
    {
      "midi": 57,
      "hit": false,
      "t": 125646.99599999978,
      "d": 476.47035000000324,
      "v": 85
    },
    {
      "midi": 60,
      "hit": false,
      "t": 125646.99599999978,
      "d": 476.47035000000324,
      "v": 85
    },
    {
      "midi": 65,
      "hit": false,
      "t": 125646.99599999978,
      "d": 476.47035000000324,
      "v": 85
    },
    {
      "midi": 57,
      "hit": false,
      "t": 126352.87799999978,
      "d": 241.17634999999427,
      "v": 100
    },
    {
      "midi": 60,
      "hit": false,
      "t": 126352.87799999978,
      "d": 241.17634999999427,
      "v": 100
    },
    {
      "midi": 65,
      "hit": false,
      "t": 126352.87799999978,
      "d": 241.17634999999427,
      "v": 100
    },
    {
      "midi": 59,
      "hit": false,
      "t": 127058.75999999978,
      "d": 247.05869999999413,
      "v": 87
    },
    {
      "midi": 62,
      "hit": false,
      "t": 127058.75999999978,
      "d": 247.05869999999413,
      "v": 87
    },
    {
      "midi": 64,
      "hit": false,
      "t": 127058.75999999978,
      "d": 247.05869999999413,
      "v": 87
    },
    {
      "midi": 68,
      "hit": false,
      "t": 127058.75999999978,
      "d": 247.05869999999413,
      "v": 87
    },
    {
      "midi": 59,
      "hit": false,
      "t": 127411.70099999977,
      "d": 199.99989999999525,
      "v": 82
    },
    {
      "midi": 62,
      "hit": false,
      "t": 127411.70099999977,
      "d": 199.99989999999525,
      "v": 82
    },
    {
      "midi": 64,
      "hit": false,
      "t": 127411.70099999977,
      "d": 199.99989999999525,
      "v": 82
    },
    {
      "midi": 68,
      "hit": false,
      "t": 127411.70099999977,
      "d": 199.99989999999525,
      "v": 82
    },
    {
      "midi": 59,
      "hit": false,
      "t": 128117.58299999977,
      "d": 1111.7641500000027,
      "v": 82
    },
    {
      "midi": 62,
      "hit": false,
      "t": 128117.58299999977,
      "d": 1111.7641500000027,
      "v": 82
    },
    {
      "midi": 64,
      "hit": false,
      "t": 128117.58299999977,
      "d": 1111.7641500000027,
      "v": 82
    },
    {
      "midi": 68,
      "hit": false,
      "t": 128117.58299999977,
      "d": 1111.7641500000027,
      "v": 82
    },
    {
      "midi": 57,
      "hit": false,
      "t": 129882.28799999977,
      "d": 1282.3522999999986,
      "v": 82
    },
    {
      "midi": 60,
      "hit": false,
      "t": 129882.28799999977,
      "d": 1282.3522999999986,
      "v": 82
    },
    {
      "midi": 64,
      "hit": false,
      "t": 129882.28799999977,
      "d": 1282.3522999999986,
      "v": 82
    },
    {
      "midi": 57,
      "hit": false,
      "t": 131294.05199999976,
      "d": 1282.3522999999986,
      "v": 82
    },
    {
      "midi": 60,
      "hit": false,
      "t": 131294.05199999976,
      "d": 1282.3522999999986,
      "v": 82
    },
    {
      "midi": 64,
      "hit": false,
      "t": 131294.05199999976,
      "d": 1282.3522999999986,
      "v": 82
    },
    {
      "midi": 57,
      "hit": false,
      "t": 133058.75699999975,
      "d": 270.5880999999936,
      "v": 82
    },
    {
      "midi": 60,
      "hit": false,
      "t": 133058.75699999975,
      "d": 270.5880999999936,
      "v": 82
    },
    {
      "midi": 65,
      "hit": false,
      "t": 133058.75699999975,
      "d": 270.5880999999936,
      "v": 82
    },
    {
      "midi": 53,
      "hit": false,
      "t": 133764.63899999973,
      "d": 411.7644999999902,
      "v": 68
    },
    {
      "midi": 57,
      "hit": false,
      "t": 134117.57999999973,
      "d": 411.7644999999902,
      "v": 80
    },
    {
      "midi": 60,
      "hit": false,
      "t": 134117.57999999973,
      "d": 411.7644999999902,
      "v": 80
    },
    {
      "midi": 65,
      "hit": false,
      "t": 134117.57999999973,
      "d": 411.7644999999902,
      "v": 80
    },
    {
      "midi": 57,
      "hit": false,
      "t": 134823.4619999997,
      "d": 223.5292999999947,
      "v": 82
    },
    {
      "midi": 60,
      "hit": false,
      "t": 134823.4619999997,
      "d": 223.5292999999947,
      "v": 82
    },
    {
      "midi": 65,
      "hit": false,
      "t": 134823.4619999997,
      "d": 223.5292999999947,
      "v": 82
    },
    {
      "midi": 58,
      "hit": false,
      "t": 135529.3439999997,
      "d": 1282.3522999999986,
      "v": 82
    },
    {
      "midi": 60,
      "hit": false,
      "t": 135529.3439999997,
      "d": 1282.3522999999986,
      "v": 82
    },
    {
      "midi": 64,
      "hit": false,
      "t": 135529.3439999997,
      "d": 1282.3522999999986,
      "v": 82
    },
    {
      "midi": 67,
      "hit": false,
      "t": 135529.3439999997,
      "d": 1282.3522999999986,
      "v": 82
    },
    {
      "midi": 58,
      "hit": false,
      "t": 136941.1079999997,
      "d": 1282.3522999999986,
      "v": 82
    },
    {
      "midi": 62,
      "hit": false,
      "t": 136941.1079999997,
      "d": 1282.3522999999986,
      "v": 82
    },
    {
      "midi": 65,
      "hit": false,
      "t": 136941.1079999997,
      "d": 1282.3522999999986,
      "v": 82
    },
    {
      "midi": 57,
      "hit": false,
      "t": 138352.87199999968,
      "d": 1282.3522999999986,
      "v": 82
    },
    {
      "midi": 60,
      "hit": false,
      "t": 138352.87199999968,
      "d": 1282.3522999999986,
      "v": 82
    },
    {
      "midi": 65,
      "hit": false,
      "t": 138352.87199999968,
      "d": 1282.3522999999986,
      "v": 82
    },
    {
      "midi": 41,
      "hit": false,
      "t": 138352.87199999997,
      "d": 352.9409999999916,
      "v": 68
    },
    {
      "midi": 53,
      "hit": false,
      "t": 138352.87199999997,
      "d": 352.9409999999916,
      "v": 78
    },
    {
      "midi": 72,
      "hit": false,
      "t": 138352.87199999997,
      "d": 705.8819999999832,
      "v": 82
    },
    {
      "midi": 81,
      "hit": false,
      "t": 138352.87199999997,
      "d": 705.8819999999832,
      "v": 88
    },
    {
      "midi": 43,
      "hit": false,
      "t": 138705.81299999997,
      "d": 352.9409999999916,
      "v": 62
    },
    {
      "midi": 55,
      "hit": false,
      "t": 138705.81299999997,
      "d": 352.9409999999916,
      "v": 72
    },
    {
      "midi": 45,
      "hit": false,
      "t": 139058.75399999996,
      "d": 352.9409999999916,
      "v": 64
    },
    {
      "midi": 57,
      "hit": false,
      "t": 139058.75399999996,
      "d": 352.9409999999916,
      "v": 74
    },
    {
      "midi": 72,
      "hit": false,
      "t": 139058.75399999996,
      "d": 352.9409999999916,
      "v": 78
    },
    {
      "midi": 77,
      "hit": false,
      "t": 139058.75399999996,
      "d": 352.9409999999916,
      "v": 84
    },
    {
      "midi": 48,
      "hit": false,
      "t": 139411.69499999995,
      "d": 1764.704999999958,
      "v": 62
    },
    {
      "midi": 60,
      "hit": false,
      "t": 139411.69499999995,
      "d": 1764.704999999958,
      "v": 72
    },
    {
      "midi": 55,
      "hit": false,
      "t": 139764.63599999968,
      "d": 1282.3522999999986,
      "v": 82
    },
    {
      "midi": 60,
      "hit": false,
      "t": 139764.63599999968,
      "d": 1282.3522999999986,
      "v": 82
    },
    {
      "midi": 64,
      "hit": false,
      "t": 139764.63599999968,
      "d": 1282.3522999999986,
      "v": 82
    },
    {
      "midi": 91,
      "hit": false,
      "t": 139941.10649999994,
      "d": 176.4704999999958,
      "v": 82
    },
    {
      "midi": 88,
      "hit": false,
      "t": 140117.57699999993,
      "d": 176.4704999999958,
      "v": 82
    },
    {
      "midi": 84,
      "hit": false,
      "t": 140294.04749999993,
      "d": 176.4704999999958,
      "v": 82
    },
    {
      "midi": 79,
      "hit": false,
      "t": 140470.51799999992,
      "d": 176.4704999999958,
      "v": 84
    },
    {
      "midi": 76,
      "hit": false,
      "t": 140646.98849999992,
      "d": 176.4704999999958,
      "v": 84
    },
    {
      "midi": 72,
      "hit": false,
      "t": 140823.45899999992,
      "d": 176.4704999999958,
      "v": 82
    },
    {
      "midi": 67,
      "hit": false,
      "t": 140999.9294999999,
      "d": 176.4704999999958,
      "v": 82
    },
    {
      "midi": 57,
      "hit": false,
      "t": 141176.39999999967,
      "d": 1282.3522999999986,
      "v": 82
    },
    {
      "midi": 60,
      "hit": false,
      "t": 141176.39999999967,
      "d": 1282.3522999999986,
      "v": 82
    },
    {
      "midi": 65,
      "hit": false,
      "t": 141176.39999999967,
      "d": 1282.3522999999986,
      "v": 82
    },
    {
      "midi": 55,
      "hit": false,
      "t": 142588.16399999967,
      "d": 1282.3522999999986,
      "v": 82
    },
    {
      "midi": 60,
      "hit": false,
      "t": 142588.16399999967,
      "d": 1282.3522999999986,
      "v": 82
    },
    {
      "midi": 64,
      "hit": false,
      "t": 142588.16399999967,
      "d": 1282.3522999999986,
      "v": 82
    },
    {
      "midi": 60,
      "hit": false,
      "t": 143999.92799999967,
      "d": 2699.998649999994,
      "v": 89
    },
    {
      "midi": 62,
      "hit": false,
      "t": 143999.92799999967,
      "d": 2699.998649999994,
      "v": 89
    },
    {
      "midi": 65,
      "hit": false,
      "t": 143999.92799999967,
      "d": 2699.998649999994,
      "v": 89
    },
    {
      "midi": 69,
      "hit": false,
      "t": 143999.92799999967,
      "d": 2699.998649999994,
      "v": 89
    },
    {
      "midi": 59,
      "hit": false,
      "t": 146823.45599999966,
      "d": 2699.998649999994,
      "v": 89
    },
    {
      "midi": 62,
      "hit": false,
      "t": 146823.45599999966,
      "d": 2699.998649999994,
      "v": 89
    },
    {
      "midi": 65,
      "hit": false,
      "t": 146823.45599999966,
      "d": 2699.998649999994,
      "v": 89
    },
    {
      "midi": 67,
      "hit": false,
      "t": 146823.45599999966,
      "d": 2699.998649999994,
      "v": 89
    },
    {
      "midi": 57,
      "hit": false,
      "t": 148235.2199999999,
      "d": 176.4704999999958,
      "v": 82
    },
    {
      "midi": 62,
      "hit": false,
      "t": 148235.2199999999,
      "d": 176.4704999999958,
      "v": 84
    },
    {
      "midi": 65,
      "hit": false,
      "t": 148235.2199999999,
      "d": 176.4704999999958,
      "v": 86
    },
    {
      "midi": 59,
      "hit": false,
      "t": 148411.6904999999,
      "d": 176.4704999999958,
      "v": 78
    },
    {
      "midi": 64,
      "hit": false,
      "t": 148411.6904999999,
      "d": 176.4704999999958,
      "v": 80
    },
    {
      "midi": 67,
      "hit": false,
      "t": 148411.6904999999,
      "d": 176.4704999999958,
      "v": 82
    },
    {
      "midi": 60,
      "hit": false,
      "t": 148588.1609999999,
      "d": 176.4704999999958,
      "v": 78
    },
    {
      "midi": 65,
      "hit": false,
      "t": 148588.1609999999,
      "d": 176.4704999999958,
      "v": 80
    },
    {
      "midi": 69,
      "hit": false,
      "t": 148588.1609999999,
      "d": 176.4704999999958,
      "v": 82
    },
    {
      "midi": 62,
      "hit": false,
      "t": 148764.6314999999,
      "d": 176.4704999999958,
      "v": 78
    },
    {
      "midi": 67,
      "hit": false,
      "t": 148764.6314999999,
      "d": 176.4704999999958,
      "v": 80
    },
    {
      "midi": 71,
      "hit": false,
      "t": 148764.6314999999,
      "d": 176.4704999999958,
      "v": 82
    },
    {
      "midi": 64,
      "hit": false,
      "t": 148941.1019999999,
      "d": 176.4704999999958,
      "v": 80
    },
    {
      "midi": 69,
      "hit": false,
      "t": 148941.1019999999,
      "d": 176.4704999999958,
      "v": 82
    },
    {
      "midi": 72,
      "hit": false,
      "t": 148941.1019999999,
      "d": 176.4704999999958,
      "v": 84
    },
    {
      "midi": 65,
      "hit": false,
      "t": 149117.5724999999,
      "d": 176.4704999999958,
      "v": 78
    },
    {
      "midi": 71,
      "hit": false,
      "t": 149117.5724999999,
      "d": 176.4704999999958,
      "v": 80
    },
    {
      "midi": 74,
      "hit": false,
      "t": 149117.5724999999,
      "d": 176.4704999999958,
      "v": 82
    },
    {
      "midi": 67,
      "hit": false,
      "t": 149294.0429999999,
      "d": 176.4704999999958,
      "v": 78
    },
    {
      "midi": 72,
      "hit": false,
      "t": 149294.0429999999,
      "d": 176.4704999999958,
      "v": 80
    },
    {
      "midi": 76,
      "hit": false,
      "t": 149294.0429999999,
      "d": 176.4704999999958,
      "v": 82
    },
    {
      "midi": 69,
      "hit": false,
      "t": 149470.51349999988,
      "d": 176.4704999999958,
      "v": 78
    },
    {
      "midi": 74,
      "hit": false,
      "t": 149470.51349999988,
      "d": 176.4704999999958,
      "v": 80
    },
    {
      "midi": 77,
      "hit": false,
      "t": 149470.51349999988,
      "d": 176.4704999999958,
      "v": 82
    },
    {
      "midi": 55,
      "hit": false,
      "t": 149646.98399999965,
      "d": 1282.3522999999986,
      "v": 82
    },
    {
      "midi": 60,
      "hit": false,
      "t": 149646.98399999965,
      "d": 1282.3522999999986,
      "v": 82
    },
    {
      "midi": 64,
      "hit": false,
      "t": 149646.98399999965,
      "d": 1282.3522999999986,
      "v": 82
    },
    {
      "midi": 57,
      "hit": false,
      "t": 151058.74799999964,
      "d": 705.8820000000123,
      "v": 82
    },
    {
      "midi": 60,
      "hit": false,
      "t": 151058.74799999964,
      "d": 705.8820000000123,
      "v": 82
    },
    {
      "midi": 65,
      "hit": false,
      "t": 151058.74799999964,
      "d": 705.8820000000123,
      "v": 82
    },
    {
      "midi": 57,
      "hit": false,
      "t": 151764.62999999966,
      "d": 705.8820000000123,
      "v": 82
    },
    {
      "midi": 62,
      "hit": false,
      "t": 151764.62999999966,
      "d": 705.8820000000123,
      "v": 82
    },
    {
      "midi": 65,
      "hit": false,
      "t": 151764.62999999966,
      "d": 705.8820000000123,
      "v": 82
    },
    {
      "midi": 57,
      "hit": false,
      "t": 152823.45299999966,
      "d": 764.7055000000109,
      "v": 95
    },
    {
      "midi": 60,
      "hit": false,
      "t": 152823.45299999966,
      "d": 764.7055000000109,
      "v": 95
    },
    {
      "midi": 65,
      "hit": false,
      "t": 152823.45299999966,
      "d": 764.7055000000109,
      "v": 95
    },
    {
      "midi": 55,
      "hit": false,
      "t": 154235.21699999968,
      "d": 764.7055000000109,
      "v": 95
    },
    {
      "midi": 60,
      "hit": false,
      "t": 154235.21699999968,
      "d": 764.7055000000109,
      "v": 95
    },
    {
      "midi": 64,
      "hit": false,
      "t": 154235.21699999968,
      "d": 764.7055000000109,
      "v": 95
    },
    {
      "midi": 57,
      "hit": false,
      "t": 155294.0399999997,
      "d": 1805.8814499999862,
      "v": 85
    },
    {
      "midi": 60,
      "hit": false,
      "t": 155294.0399999997,
      "d": 1805.8814499999862,
      "v": 85
    },
    {
      "midi": 65,
      "hit": false,
      "t": 156705.80399999968,
      "d": 352.9409999999916,
      "v": 74
    },
    {
      "midi": 69,
      "hit": false,
      "t": 157058.74499999968,
      "d": 364.70569999999134,
      "v": 70
    },
    {
      "midi": 72,
      "hit": false,
      "t": 157411.68599999967,
      "d": 347.05864999999176,
      "v": 80
    },
    {
      "midi": 77,
      "hit": false,
      "t": 157764.62699999966,
      "d": 123.52934999999707,
      "v": 100
    },
    {
      "midi": 55,
      "hit": false,
      "t": 158470.50899999964,
      "d": 764.7055000000109,
      "v": 95
    },
    {
      "midi": 60,
      "hit": false,
      "t": 158470.50899999964,
      "d": 764.7055000000109,
      "v": 95
    },
    {
      "midi": 64,
      "hit": false,
      "t": 158470.50899999964,
      "d": 764.7055000000109,
      "v": 95
    },
    {
      "midi": 55,
      "hit": false,
      "t": 159529.33199999965,
      "d": 1282.3522999999986,
      "v": 82
    },
    {
      "midi": 59,
      "hit": false,
      "t": 159529.33199999965,
      "d": 1282.3522999999986,
      "v": 82
    },
    {
      "midi": 62,
      "hit": false,
      "t": 159529.33199999965,
      "d": 1282.3522999999986,
      "v": 82
    },
    {
      "midi": 55,
      "hit": false,
      "t": 161294.03699999963,
      "d": 764.7055000000109,
      "v": 95
    },
    {
      "midi": 60,
      "hit": false,
      "t": 161294.03699999963,
      "d": 764.7055000000109,
      "v": 95
    },
    {
      "midi": 64,
      "hit": false,
      "t": 161294.03699999963,
      "d": 764.7055000000109,
      "v": 95
    },
    {
      "midi": 55,
      "hit": false,
      "t": 162705.80099999966,
      "d": 764.7055000000109,
      "v": 95
    },
    {
      "midi": 59,
      "hit": false,
      "t": 162705.80099999966,
      "d": 764.7055000000109,
      "v": 95
    },
    {
      "midi": 62,
      "hit": false,
      "t": 162705.80099999966,
      "d": 764.7055000000109,
      "v": 95
    },
    {
      "midi": 55,
      "hit": false,
      "t": 163764.62399999966,
      "d": 1282.3522999999986,
      "v": 82
    },
    {
      "midi": 60,
      "hit": false,
      "t": 163764.62399999966,
      "d": 1282.3522999999986,
      "v": 82
    },
    {
      "midi": 64,
      "hit": false,
      "t": 163764.62399999966,
      "d": 1282.3522999999986,
      "v": 82
    },
    {
      "midi": 55,
      "hit": false,
      "t": 165529.32899999965,
      "d": 764.7055000000109,
      "v": 95
    },
    {
      "midi": 59,
      "hit": false,
      "t": 165529.32899999965,
      "d": 764.7055000000109,
      "v": 95
    },
    {
      "midi": 62,
      "hit": false,
      "t": 165529.32899999965,
      "d": 764.7055000000109,
      "v": 95
    },
    {
      "midi": 59,
      "hit": false,
      "t": 166588.15199999965,
      "d": 1282.3522999999986,
      "v": 82
    },
    {
      "midi": 62,
      "hit": false,
      "t": 166588.15199999965,
      "d": 1282.3522999999986,
      "v": 82
    },
    {
      "midi": 64,
      "hit": false,
      "t": 166588.15199999965,
      "d": 1282.3522999999986,
      "v": 82
    },
    {
      "midi": 67,
      "hit": false,
      "t": 166588.15199999965,
      "d": 1282.3522999999986,
      "v": 82
    },
    {
      "midi": 57,
      "hit": false,
      "t": 167999.91599999965,
      "d": 1282.3522999999986,
      "v": 82
    },
    {
      "midi": 60,
      "hit": false,
      "t": 167999.91599999965,
      "d": 1282.3522999999986,
      "v": 82
    },
    {
      "midi": 64,
      "hit": false,
      "t": 167999.91599999965,
      "d": 1282.3522999999986,
      "v": 82
    },
    {
      "midi": 59,
      "hit": false,
      "t": 169411.67999999964,
      "d": 1282.3522999999986,
      "v": 82
    },
    {
      "midi": 62,
      "hit": false,
      "t": 169411.67999999964,
      "d": 1282.3522999999986,
      "v": 82
    },
    {
      "midi": 64,
      "hit": false,
      "t": 169411.67999999964,
      "d": 1282.3522999999986,
      "v": 82
    },
    {
      "midi": 67,
      "hit": false,
      "t": 169411.67999999964,
      "d": 1282.3522999999986,
      "v": 82
    },
    {
      "midi": 57,
      "hit": false,
      "t": 170823.44399999964,
      "d": 1282.3522999999986,
      "v": 82
    },
    {
      "midi": 60,
      "hit": false,
      "t": 170823.44399999964,
      "d": 1282.3522999999986,
      "v": 82
    },
    {
      "midi": 64,
      "hit": false,
      "t": 170823.44399999964,
      "d": 1282.3522999999986,
      "v": 82
    },
    {
      "midi": 57,
      "hit": false,
      "t": 172235.20799999963,
      "d": 705.8820000000123,
      "v": 82
    },
    {
      "midi": 60,
      "hit": false,
      "t": 172235.20799999963,
      "d": 705.8820000000123,
      "v": 82
    },
    {
      "midi": 65,
      "hit": false,
      "t": 172235.20799999963,
      "d": 705.8820000000123,
      "v": 82
    },
    {
      "midi": 55,
      "hit": false,
      "t": 172941.08999999965,
      "d": 705.8820000000123,
      "v": 82
    },
    {
      "midi": 59,
      "hit": false,
      "t": 172941.08999999965,
      "d": 705.8820000000123,
      "v": 82
    },
    {
      "midi": 64,
      "hit": false,
      "t": 172941.08999999965,
      "d": 705.8820000000123,
      "v": 82
    },
    {
      "midi": 57,
      "hit": false,
      "t": 173646.97199999966,
      "d": 705.8820000000123,
      "v": 82
    },
    {
      "midi": 62,
      "hit": false,
      "t": 173646.97199999966,
      "d": 705.8820000000123,
      "v": 82
    },
    {
      "midi": 65,
      "hit": false,
      "t": 173646.97199999966,
      "d": 705.8820000000123,
      "v": 82
    },
    {
      "midi": 55,
      "hit": false,
      "t": 174352.85399999967,
      "d": 705.8820000000123,
      "v": 82
    },
    {
      "midi": 60,
      "hit": false,
      "t": 174352.85399999967,
      "d": 705.8820000000123,
      "v": 82
    },
    {
      "midi": 64,
      "hit": false,
      "t": 174352.85399999967,
      "d": 705.8820000000123,
      "v": 82
    },
    {
      "midi": 60,
      "hit": false,
      "t": 175411.67699999968,
      "d": 764.7055000000109,
      "v": 95
    },
    {
      "midi": 62,
      "hit": false,
      "t": 175411.67699999968,
      "d": 764.7055000000109,
      "v": 95
    },
    {
      "midi": 65,
      "hit": false,
      "t": 175411.67699999968,
      "d": 764.7055000000109,
      "v": 95
    },
    {
      "midi": 69,
      "hit": false,
      "t": 175411.67699999968,
      "d": 764.7055000000109,
      "v": 95
    },
    {
      "midi": 59,
      "hit": false,
      "t": 176823.4409999997,
      "d": 764.7055000000109,
      "v": 95
    },
    {
      "midi": 62,
      "hit": false,
      "t": 176823.4409999997,
      "d": 764.7055000000109,
      "v": 95
    },
    {
      "midi": 65,
      "hit": false,
      "t": 176823.4409999997,
      "d": 764.7055000000109,
      "v": 95
    },
    {
      "midi": 67,
      "hit": false,
      "t": 176823.4409999997,
      "d": 764.7055000000109,
      "v": 95
    },
    {
      "midi": 55,
      "hit": false,
      "t": 177882.2639999997,
      "d": 1282.3522999999986,
      "v": 82
    },
    {
      "midi": 60,
      "hit": false,
      "t": 177882.2639999997,
      "d": 1282.3522999999986,
      "v": 82
    },
    {
      "midi": 64,
      "hit": false,
      "t": 177882.2639999997,
      "d": 1282.3522999999986,
      "v": 82
    },
    {
      "midi": 57,
      "hit": false,
      "t": 179294.0279999997,
      "d": 1282.3522999999986,
      "v": 82
    },
    {
      "midi": 60,
      "hit": false,
      "t": 179294.0279999997,
      "d": 1282.3522999999986,
      "v": 82
    },
    {
      "midi": 65,
      "hit": false,
      "t": 179294.0279999997,
      "d": 1282.3522999999986,
      "v": 82
    },
    {
      "midi": 55,
      "hit": false,
      "t": 181058.7329999997,
      "d": 764.7055000000109,
      "v": 95
    },
    {
      "midi": 60,
      "hit": false,
      "t": 181058.7329999997,
      "d": 764.7055000000109,
      "v": 95
    },
    {
      "midi": 64,
      "hit": false,
      "t": 181058.7329999997,
      "d": 764.7055000000109,
      "v": 95
    },
    {
      "midi": 57,
      "hit": false,
      "t": 182470.4969999997,
      "d": 764.7055000000109,
      "v": 95
    },
    {
      "midi": 60,
      "hit": false,
      "t": 182470.4969999997,
      "d": 764.7055000000109,
      "v": 95
    },
    {
      "midi": 65,
      "hit": false,
      "t": 182470.4969999997,
      "d": 764.7055000000109,
      "v": 95
    },
    {
      "midi": 55,
      "hit": false,
      "t": 183529.31999999972,
      "d": 1805.8814499999862,
      "v": 85
    },
    {
      "midi": 60,
      "hit": false,
      "t": 184941.0839999997,
      "d": 352.9409999999916,
      "v": 74
    },
    {
      "midi": 64,
      "hit": false,
      "t": 185294.0249999997,
      "d": 41.17644999999902,
      "v": 70
    },
    {
      "midi": 67,
      "hit": false,
      "t": 185646.9659999997,
      "d": 347.05864999999176,
      "v": 80
    },
    {
      "midi": 72,
      "hit": false,
      "t": 185999.9069999997,
      "d": 123.52934999999707,
      "v": 100
    },
    {
      "midi": 55,
      "hit": false,
      "t": 186352.84799999968,
      "d": 2699.998649999994,
      "v": 89
    },
    {
      "midi": 60,
      "hit": false,
      "t": 186352.84799999968,
      "d": 2699.998649999994,
      "v": 89
    },
    {
      "midi": 64,
      "hit": false,
      "t": 186352.84799999968,
      "d": 2699.998649999994,
      "v": 89
    },
    {
      "midi": 55,
      "hit": false,
      "t": 189176.37599999967,
      "d": 247.05869999999413,
      "v": 87
    },
    {
      "midi": 60,
      "hit": false,
      "t": 189176.37599999967,
      "d": 247.05869999999413,
      "v": 87
    },
    {
      "midi": 64,
      "hit": false,
      "t": 189176.37599999967,
      "d": 247.05869999999413,
      "v": 87
    },
    {
      "midi": 55,
      "hit": false,
      "t": 189529.31699999966,
      "d": 199.99989999999525,
      "v": 82
    },
    {
      "midi": 60,
      "hit": false,
      "t": 189529.31699999966,
      "d": 199.99989999999525,
      "v": 82
    },
    {
      "midi": 64,
      "hit": false,
      "t": 189529.31699999966,
      "d": 199.99989999999525,
      "v": 82
    },
    {
      "midi": 55,
      "hit": false,
      "t": 190235.19899999964,
      "d": 1111.7641500000027,
      "v": 82
    },
    {
      "midi": 60,
      "hit": false,
      "t": 190235.19899999964,
      "d": 1111.7641500000027,
      "v": 82
    },
    {
      "midi": 64,
      "hit": false,
      "t": 190235.19899999964,
      "d": 1111.7641500000027,
      "v": 82
    },
    {
      "midi": 55,
      "hit": false,
      "t": 192023.43339999966,
      "d": 2517.6457999999984,
      "v": 95
    },
    {
      "midi": 60,
      "hit": false,
      "t": 192023.43339999966,
      "d": 2517.6457999999984,
      "v": 95
    },
    {
      "midi": 64,
      "hit": false,
      "t": 192023.43339999966,
      "d": 2517.6457999999984,
      "v": 95
    },
    {
      "midi": 48,
      "hit": false,
      "t": 194482.25569999966,
      "d": 258.82339999999385,
      "v": 76
    },
    {
      "midi": 55,
      "hit": false,
      "t": 194805.78494999965,
      "d": 270.5880999999936,
      "v": 85
    },
    {
      "midi": 60,
      "hit": false,
      "t": 194805.78494999965,
      "d": 270.5880999999936,
      "v": 85
    },
    {
      "midi": 64,
      "hit": false,
      "t": 194805.78494999965,
      "d": 270.5880999999936,
      "v": 85
    },
    {
      "midi": 48,
      "hit": false,
      "t": 195141.07889999964,
      "d": 258.82339999999385,
      "v": 80
    },
    {
      "midi": 57,
      "hit": false,
      "t": 195499.90224999964,
      "d": 194.1175499999954,
      "v": 85
    },
    {
      "midi": 60,
      "hit": false,
      "t": 195499.90224999964,
      "d": 194.1175499999954,
      "v": 85
    },
    {
      "midi": 65,
      "hit": false,
      "t": 195499.90224999964,
      "d": 194.1175499999954,
      "v": 85
    },
    {
      "midi": 55,
      "hit": false,
      "t": 196246.96069999962,
      "d": 1399.9992999999959,
      "v": 98
    },
    {
      "midi": 60,
      "hit": false,
      "t": 196246.96069999962,
      "d": 1399.9992999999959,
      "v": 98
    },
    {
      "midi": 64,
      "hit": false,
      "t": 196246.96069999962,
      "d": 1399.9992999999959,
      "v": 98
    }
  ]
}