{
  "jsonPath": "Rock/Pop Rock/Sarah McLachlan/bens-song.json",
  "path": "Rock\\Pop Rock\\Sarah McLachlan\\Bens Song.mid",
  "name": "Bens Song",
  "difficulty": "Advanced",
  "bpm": 168.01028222927243,
  "notes": [
    {
      "midi": 67,
      "hit": false,
      "t": 7142.419999999999,
      "d": 520.8014583333334,
      "v": 94
    },
    {
      "midi": 52,
      "hit": false,
      "t": 7142.419999999999,
      "d": 5699.055958333341,
      "v": 96
    },
    {
      "midi": 66,
      "hit": false,
      "t": 7678.101499999999,
      "d": 520.8014583333334,
      "v": 93
    },
    {
      "midi": 62,
      "hit": false,
      "t": 8213.783,
      "d": 342.24095833333377,
      "v": 96
    },
    {
      "midi": 67,
      "hit": false,
      "t": 8570.904,
      "d": 520.8014583333334,
      "v": 94
    },
    {
      "midi": 66,
      "hit": false,
      "t": 9106.585500000001,
      "d": 520.8014583333334,
      "v": 93
    },
    {
      "midi": 62,
      "hit": false,
      "t": 9642.267000000002,
      "d": 342.24095833333377,
      "v": 92
    },
    {
      "midi": 67,
      "hit": false,
      "t": 9999.388000000003,
      "d": 520.8014583333334,
      "v": 96
    },
    {
      "midi": 66,
      "hit": false,
      "t": 10535.069500000003,
      "d": 520.8014583333334,
      "v": 95
    },
    {
      "midi": 62,
      "hit": false,
      "t": 11070.751000000004,
      "d": 342.24095833333377,
      "v": 96
    },
    {
      "midi": 67,
      "hit": false,
      "t": 11427.872000000005,
      "d": 520.8014583333334,
      "v": 95
    },
    {
      "midi": 66,
      "hit": false,
      "t": 11963.553500000005,
      "d": 520.8014583333334,
      "v": 94
    },
    {
      "midi": 62,
      "hit": false,
      "t": 12499.235000000006,
      "d": 342.24095833333377,
      "v": 94
    },
    {
      "midi": 67,
      "hit": false,
      "t": 12856.356000000007,
      "d": 431.52120833333356,
      "v": 91
    },
    {
      "midi": 48,
      "hit": false,
      "t": 12856.356000000007,
      "d": 5699.055958333338,
      "v": 92
    },
    {
      "midi": 66,
      "hit": false,
      "t": 13392.037500000008,
      "d": 520.8014583333334,
      "v": 93
    },
    {
      "midi": 62,
      "hit": false,
      "t": 13927.719000000008,
      "d": 342.24095833333377,
      "v": 92
    },
    {
      "midi": 67,
      "hit": false,
      "t": 14284.84000000001,
      "d": 520.8014583333334,
      "v": 91
    },
    {
      "midi": 66,
      "hit": false,
      "t": 14820.52150000001,
      "d": 520.8014583333334,
      "v": 93
    },
    {
      "midi": 62,
      "hit": false,
      "t": 15356.20300000001,
      "d": 342.24095833333377,
      "v": 93
    },
    {
      "midi": 67,
      "hit": false,
      "t": 15713.324000000011,
      "d": 431.52120833333356,
      "v": 96
    },
    {
      "midi": 66,
      "hit": false,
      "t": 16249.005500000012,
      "d": 520.8014583333334,
      "v": 95
    },
    {
      "midi": 62,
      "hit": false,
      "t": 16784.687000000013,
      "d": 342.24095833333195,
      "v": 96
    },
    {
      "midi": 67,
      "hit": false,
      "t": 17141.80800000001,
      "d": 520.8014583333352,
      "v": 92
    },
    {
      "midi": 66,
      "hit": false,
      "t": 17677.489500000014,
      "d": 520.8014583333315,
      "v": 93
    },
    {
      "midi": 62,
      "hit": false,
      "t": 18213.171000000013,
      "d": 342.24095833333195,
      "v": 92
    },
    {
      "midi": 67,
      "hit": false,
      "t": 18570.292000000012,
      "d": 520.8014583333315,
      "v": 94
    },
    {
      "midi": 50,
      "hit": false,
      "t": 18570.292000000012,
      "d": 5699.05595833332,
      "v": 94
    },
    {
      "midi": 66,
      "hit": false,
      "t": 19105.97350000001,
      "d": 520.8014583333315,
      "v": 91
    },
    {
      "midi": 62,
      "hit": false,
      "t": 19641.65500000001,
      "d": 342.24095833333195,
      "v": 91
    },
    {
      "midi": 67,
      "hit": false,
      "t": 19998.77600000001,
      "d": 520.8014583333315,
      "v": 94
    },
    {
      "midi": 66,
      "hit": false,
      "t": 20534.457500000008,
      "d": 520.8014583333315,
      "v": 96
    },
    {
      "midi": 62,
      "hit": false,
      "t": 21070.139000000006,
      "d": 342.24095833333195,
      "v": 96
    },
    {
      "midi": 67,
      "hit": false,
      "t": 21427.260000000006,
      "d": 520.8014583333315,
      "v": 93
    },
    {
      "midi": 66,
      "hit": false,
      "t": 21962.941500000004,
      "d": 520.8014583333315,
      "v": 92
    },
    {
      "midi": 62,
      "hit": false,
      "t": 22498.623000000003,
      "d": 342.24095833333195,
      "v": 92
    },
    {
      "midi": 67,
      "hit": false,
      "t": 22855.744000000002,
      "d": 520.8014583333315,
      "v": 95
    },
    {
      "midi": 66,
      "hit": false,
      "t": 23391.4255,
      "d": 520.8014583333315,
      "v": 96
    },
    {
      "midi": 62,
      "hit": false,
      "t": 23927.107,
      "d": 342.24095833333195,
      "v": 94
    },
    {
      "midi": 67,
      "hit": false,
      "t": 24284.228,
      "d": 431.52120833333174,
      "v": 96
    },
    {
      "midi": 48,
      "hit": false,
      "t": 24284.228,
      "d": 5520.49545833332,
      "v": 93
    },
    {
      "midi": 66,
      "hit": false,
      "t": 24819.909499999998,
      "d": 520.8014583333315,
      "v": 92
    },
    {
      "midi": 62,
      "hit": false,
      "t": 25355.590999999997,
      "d": 342.24095833333195,
      "v": 91
    },
    {
      "midi": 67,
      "hit": false,
      "t": 25712.711999999996,
      "d": 520.8014583333315,
      "v": 91
    },
    {
      "midi": 66,
      "hit": false,
      "t": 26248.393499999995,
      "d": 520.8014583333315,
      "v": 91
    },
    {
      "midi": 62,
      "hit": false,
      "t": 26784.074999999993,
      "d": 342.24095833333195,
      "v": 92
    },
    {
      "midi": 67,
      "hit": false,
      "t": 27141.195999999993,
      "d": 431.52120833333174,
      "v": 93
    },
    {
      "midi": 66,
      "hit": false,
      "t": 27676.87749999999,
      "d": 520.8014583333315,
      "v": 94
    },
    {
      "midi": 62,
      "hit": false,
      "t": 28212.55899999999,
      "d": 342.24095833333195,
      "v": 93
    },
    {
      "midi": 67,
      "hit": false,
      "t": 28569.67999999999,
      "d": 520.8014583333315,
      "v": 96
    },
    {
      "midi": 66,
      "hit": false,
      "t": 29105.361499999988,
      "d": 520.8014583333315,
      "v": 92
    },
    {
      "midi": 62,
      "hit": false,
      "t": 29641.042999999987,
      "d": 342.24095833333195,
      "v": 96
    },
    {
      "midi": 67,
      "hit": false,
      "t": 29998.163999999986,
      "d": 520.8014583333315,
      "v": 94
    },
    {
      "midi": 52,
      "hit": false,
      "t": 29998.163999999986,
      "d": 5699.05595833332,
      "v": 93
    },
    {
      "midi": 66,
      "hit": false,
      "t": 30533.845499999985,
      "d": 520.8014583333315,
      "v": 95
    },
    {
      "midi": 62,
      "hit": false,
      "t": 31069.526999999984,
      "d": 342.24095833333195,
      "v": 94
    },
    {
      "midi": 67,
      "hit": false,
      "t": 31426.647999999983,
      "d": 520.8014583333315,
      "v": 95
    },
    {
      "midi": 66,
      "hit": false,
      "t": 31962.32949999998,
      "d": 520.8014583333315,
      "v": 94
    },
    {
      "midi": 62,
      "hit": false,
      "t": 32498.01099999998,
      "d": 342.24095833333195,
      "v": 92
    },
    {
      "midi": 67,
      "hit": false,
      "t": 32855.131999999976,
      "d": 520.8014583333352,
      "v": 92
    },
    {
      "midi": 66,
      "hit": false,
      "t": 33390.813499999975,
      "d": 520.8014583333352,
      "v": 91
    },
    {
      "midi": 62,
      "hit": false,
      "t": 33926.49499999997,
      "d": 342.2409583333356,
      "v": 94
    },
    {
      "midi": 67,
      "hit": false,
      "t": 34283.61599999997,
      "d": 520.8014583333352,
      "v": 96
    },
    {
      "midi": 66,
      "hit": false,
      "t": 34819.29749999997,
      "d": 520.8014583333352,
      "v": 93
    },
    {
      "midi": 62,
      "hit": false,
      "t": 35354.97899999997,
      "d": 342.2409583333356,
      "v": 95
    },
    {
      "midi": 67,
      "hit": false,
      "t": 35712.09999999997,
      "d": 431.52120833333174,
      "v": 93
    },
    {
      "midi": 48,
      "hit": false,
      "t": 35712.09999999997,
      "d": 5699.055958333323,
      "v": 91
    },
    {
      "midi": 66,
      "hit": false,
      "t": 36247.78149999997,
      "d": 520.8014583333352,
      "v": 93
    },
    {
      "midi": 62,
      "hit": false,
      "t": 36783.46299999997,
      "d": 342.2409583333356,
      "v": 95
    },
    {
      "midi": 67,
      "hit": false,
      "t": 37140.583999999966,
      "d": 520.8014583333352,
      "v": 92
    },
    {
      "midi": 66,
      "hit": false,
      "t": 37676.265499999965,
      "d": 520.8014583333352,
      "v": 96
    },
    {
      "midi": 62,
      "hit": false,
      "t": 38211.946999999964,
      "d": 342.2409583333356,
      "v": 94
    },
    {
      "midi": 67,
      "hit": false,
      "t": 38569.06799999996,
      "d": 431.52120833333174,
      "v": 91
    },
    {
      "midi": 66,
      "hit": false,
      "t": 39104.74949999996,
      "d": 520.8014583333352,
      "v": 94
    },
    {
      "midi": 62,
      "hit": false,
      "t": 39640.43099999996,
      "d": 342.2409583333356,
      "v": 95
    },
    {
      "midi": 67,
      "hit": false,
      "t": 39997.55199999996,
      "d": 520.8014583333352,
      "v": 92
    },
    {
      "midi": 66,
      "hit": false,
      "t": 40533.23349999996,
      "d": 520.8014583333352,
      "v": 92
    },
    {
      "midi": 62,
      "hit": false,
      "t": 41068.91499999996,
      "d": 342.2409583333356,
      "v": 91
    },
    {
      "midi": 67,
      "hit": false,
      "t": 41426.03599999996,
      "d": 520.8014583333352,
      "v": 94
    },
    {
      "midi": 50,
      "hit": false,
      "t": 41426.03599999996,
      "d": 5699.055958333323,
      "v": 96
    },
    {
      "midi": 66,
      "hit": false,
      "t": 41961.717499999955,
      "d": 520.8014583333352,
      "v": 91
    },
    {
      "midi": 62,
      "hit": false,
      "t": 42497.398999999954,
      "d": 342.2409583333356,
      "v": 94
    },
    {
      "midi": 67,
      "hit": false,
      "t": 42854.51999999995,
      "d": 520.8014583333352,
      "v": 95
    },
    {
      "midi": 66,
      "hit": false,
      "t": 43390.20149999995,
      "d": 520.8014583333352,
      "v": 96
    },
    {
      "midi": 62,
      "hit": false,
      "t": 43925.88299999995,
      "d": 342.2409583333356,
      "v": 92
    },
    {
      "midi": 67,
      "hit": false,
      "t": 44283.00399999995,
      "d": 520.8014583333352,
      "v": 91
    },
    {
      "midi": 66,
      "hit": false,
      "t": 44818.68549999995,
      "d": 520.8014583333352,
      "v": 91
    },
    {
      "midi": 62,
      "hit": false,
      "t": 45354.36699999995,
      "d": 342.2409583333356,
      "v": 91
    },
    {
      "midi": 67,
      "hit": false,
      "t": 45711.48799999995,
      "d": 520.8014583333352,
      "v": 96
    },
    {
      "midi": 66,
      "hit": false,
      "t": 46247.169499999945,
      "d": 520.8014583333352,
      "v": 96
    },
    {
      "midi": 62,
      "hit": false,
      "t": 46782.850999999944,
      "d": 342.2409583333356,
      "v": 91
    },
    {
      "midi": 67,
      "hit": false,
      "t": 47139.97199999994,
      "d": 431.52120833333174,
      "v": 95
    },
    {
      "midi": 48,
      "hit": false,
      "t": 47139.97199999994,
      "d": 5520.495458333324,
      "v": 92
    },
    {
      "midi": 66,
      "hit": false,
      "t": 47675.65349999994,
      "d": 520.8014583333352,
      "v": 93
    },
    {
      "midi": 62,
      "hit": false,
      "t": 48211.33499999994,
      "d": 342.2409583333356,
      "v": 91
    },
    {
      "midi": 67,
      "hit": false,
      "t": 48568.45599999994,
      "d": 520.8014583333352,
      "v": 95
    },
    {
      "midi": 66,
      "hit": false,
      "t": 49104.13749999994,
      "d": 520.8014583333352,
      "v": 92
    },
    {
      "midi": 62,
      "hit": false,
      "t": 49639.81899999994,
      "d": 342.2409583333356,
      "v": 96
    },
    {
      "midi": 67,
      "hit": false,
      "t": 49996.93999999994,
      "d": 431.52120833333174,
      "v": 93
    },
    {
      "midi": 66,
      "hit": false,
      "t": 50532.621499999936,
      "d": 520.8014583333352,
      "v": 94
    },
    {
      "midi": 62,
      "hit": false,
      "t": 51068.302999999934,
      "d": 342.2409583333356,
      "v": 95
    },
    {
      "midi": 67,
      "hit": false,
      "t": 51425.42399999993,
      "d": 520.8014583333352,
      "v": 96
    },
    {
      "midi": 66,
      "hit": false,
      "t": 51961.10549999993,
      "d": 520.8014583333352,
      "v": 92
    },
    {
      "midi": 62,
      "hit": false,
      "t": 52496.78699999993,
      "d": 342.2409583333356,
      "v": 94
    },
    {
      "midi": 67,
      "hit": false,
      "t": 52853.90799999993,
      "d": 2842.08795833333,
      "v": 94
    },
    {
      "midi": 71,
      "hit": false,
      "t": 52853.90799999993,
      "d": 2842.08795833333,
      "v": 94
    },
    {
      "midi": 62,
      "hit": false,
      "t": 52853.90799999993,
      "d": 8466.74370833332,
      "v": 92
    },
    {
      "midi": 55,
      "hit": false,
      "t": 52853.907999999996,
      "d": 2410.5667500000127,
      "v": 95
    },
    {
      "midi": 59,
      "hit": false,
      "t": 52876.2280625,
      "d": 2388.24668750001,
      "v": 95
    },
    {
      "midi": 62,
      "hit": false,
      "t": 52898.548125,
      "d": 1919.5253750000047,
      "v": 93
    },
    {
      "midi": 67,
      "hit": false,
      "t": 52920.868187500004,
      "d": 1361.5238125000033,
      "v": 95
    },
    {
      "midi": 67,
      "hit": false,
      "t": 54282.39200000001,
      "d": 1443.3640416666676,
      "v": 92
    },
    {
      "midi": 62,
      "hit": false,
      "t": 54818.073500000006,
      "d": 892.8025000000052,
      "v": 95
    },
    {
      "midi": 66,
      "hit": false,
      "t": 55710.875999999924,
      "d": 2842.08795833333,
      "v": 96
    },
    {
      "midi": 69,
      "hit": false,
      "t": 55710.875999999924,
      "d": 2842.08795833333,
      "v": 92
    },
    {
      "midi": 50,
      "hit": false,
      "t": 55710.87600000001,
      "d": 2499.8470000000016,
      "v": 97
    },
    {
      "midi": 57,
      "hit": false,
      "t": 55733.19606250001,
      "d": 1941.8454375000074,
      "v": 97
    },
    {
      "midi": 62,
      "hit": false,
      "t": 55755.51612500001,
      "d": 1383.843875000006,
      "v": 95
    },
    {
      "midi": 66,
      "hit": false,
      "t": 55777.83618750001,
      "d": 2432.886812500001,
      "v": 95
    },
    {
      "midi": 62,
      "hit": false,
      "t": 57139.360000000015,
      "d": 1428.4839999999967,
      "v": 94
    },
    {
      "midi": 57,
      "hit": false,
      "t": 57675.041500000014,
      "d": 892.802499999998,
      "v": 93
    },
    {
      "midi": 66,
      "hit": false,
      "t": 58567.84399999992,
      "d": 2842.087958333337,
      "v": 92
    },
    {
      "midi": 69,
      "hit": false,
      "t": 58567.84399999992,
      "d": 2842.087958333337,
      "v": 92
    },
    {
      "midi": 50,
      "hit": false,
      "t": 58567.84400000001,
      "d": 2499.8470000000016,
      "v": 97
    },
    {
      "midi": 57,
      "hit": false,
      "t": 58590.164062500015,
      "d": 1934.4054166666683,
      "v": 93
    },
    {
      "midi": 62,
      "hit": false,
      "t": 58612.48412500002,
      "d": 1376.4038541666669,
      "v": 94
    },
    {
      "midi": 66,
      "hit": false,
      "t": 58634.80418750002,
      "d": 2432.8868124999935,
      "v": 97
    },
    {
      "midi": 62,
      "hit": false,
      "t": 59996.328000000016,
      "d": 1428.4839999999967,
      "v": 95
    },
    {
      "midi": 57,
      "hit": false,
      "t": 60532.009500000015,
      "d": 892.802499999998,
      "v": 93
    },
    {
      "midi": 60,
      "hit": false,
      "t": 61424.81199999992,
      "d": 2842.08795833333,
      "v": 95
    },
    {
      "midi": 64,
      "hit": false,
      "t": 61424.81199999992,
      "d": 2842.08795833333,
      "v": 95
    },
    {
      "midi": 67,
      "hit": false,
      "t": 61424.81199999992,
      "d": 2842.08795833333,
      "v": 93
    },
    {
      "midi": 48,
      "hit": false,
      "t": 61424.81200000001,
      "d": 2499.8470000000016,
      "v": 92
    },
    {
      "midi": 55,
      "hit": false,
      "t": 61450.85207291668,
      "d": 2477.526937500006,
      "v": 96
    },
    {
      "midi": 60,
      "hit": false,
      "t": 61469.45212500001,
      "d": 1919.5253750000047,
      "v": 94
    },
    {
      "midi": 64,
      "hit": false,
      "t": 61491.77218750001,
      "d": 2432.886812500001,
      "v": 92
    },
    {
      "midi": 67,
      "hit": false,
      "t": 62853.29600000002,
      "d": 1424.7639895833345,
      "v": 93
    },
    {
      "midi": 60,
      "hit": false,
      "t": 63388.977500000015,
      "d": 892.8025000000052,
      "v": 93
    },
    {
      "midi": 62,
      "hit": false,
      "t": 63924.659000000014,
      "d": 357.12100000000646,
      "v": 92
    },
    {
      "midi": 62,
      "hit": false,
      "t": 64281.77999999991,
      "d": 2842.08795833333,
      "v": 92
    },
    {
      "midi": 67,
      "hit": false,
      "t": 64281.77999999991,
      "d": 2842.08795833333,
      "v": 91
    },
    {
      "midi": 71,
      "hit": false,
      "t": 64281.77999999991,
      "d": 2842.08795833333,
      "v": 96
    },
    {
      "midi": 55,
      "hit": false,
      "t": 64281.78000000002,
      "d": 2581.687229166673,
      "v": 93
    },
    {
      "midi": 59,
      "hit": false,
      "t": 64304.10006250002,
      "d": 2566.8071875000096,
      "v": 93
    },
    {
      "midi": 62,
      "hit": false,
      "t": 64326.420125000026,
      "d": 1919.5253750000047,
      "v": 97
    },
    {
      "midi": 67,
      "hit": false,
      "t": 64348.74018750003,
      "d": 1361.523812499996,
      "v": 97
    },
    {
      "midi": 67,
      "hit": false,
      "t": 65710.26400000002,
      "d": 1428.4840000000113,
      "v": 95
    },
    {
      "midi": 62,
      "hit": false,
      "t": 66245.94550000003,
      "d": 892.8025000000052,
      "v": 96
    },
    {
      "midi": 62,
      "hit": false,
      "t": 67138.7479999999,
      "d": 2842.08795833333,
      "v": 95
    },
    {
      "midi": 66,
      "hit": false,
      "t": 67138.7479999999,
      "d": 2842.08795833333,
      "v": 95
    },
    {
      "midi": 69,
      "hit": false,
      "t": 67138.7479999999,
      "d": 2842.08795833333,
      "v": 95
    },
    {
      "midi": 50,
      "hit": false,
      "t": 67138.74800000004,
      "d": 2499.8470000000234,
      "v": 94
    },
    {
      "midi": 57,
      "hit": false,
      "t": 67161.06806250004,
      "d": 1941.8454375000147,
      "v": 96
    },
    {
      "midi": 62,
      "hit": false,
      "t": 67183.38812500004,
      "d": 1383.843875000006,
      "v": 96
    },
    {
      "midi": 66,
      "hit": false,
      "t": 67205.70818750004,
      "d": 2432.8868125000154,
      "v": 93
    },
    {
      "midi": 62,
      "hit": false,
      "t": 68567.23200000005,
      "d": 1473.1241250000166,
      "v": 93
    },
    {
      "midi": 57,
      "hit": false,
      "t": 69102.91350000005,
      "d": 877.9224583333416,
      "v": 92
    },
    {
      "midi": 62,
      "hit": false,
      "t": 69995.7159999999,
      "d": 2842.08795833333,
      "v": 93
    },
    {
      "midi": 66,
      "hit": false,
      "t": 69995.7159999999,
      "d": 2842.08795833333,
      "v": 92
    },
    {
      "midi": 69,
      "hit": false,
      "t": 69995.7159999999,
      "d": 2842.08795833333,
      "v": 92
    },
    {
      "midi": 50,
      "hit": false,
      "t": 69995.71600000006,
      "d": 2499.8470000000234,
      "v": 96
    },
    {
      "midi": 57,
      "hit": false,
      "t": 70018.03606250006,
      "d": 1941.8454375000147,
      "v": 93
    },
    {
      "midi": 62,
      "hit": false,
      "t": 70040.35612500006,
      "d": 1383.843875000006,
      "v": 93
    },
    {
      "midi": 66,
      "hit": false,
      "t": 70062.67618750007,
      "d": 2432.8868125000154,
      "v": 96
    },
    {
      "midi": 62,
      "hit": false,
      "t": 71424.20000000007,
      "d": 1421.0439791666722,
      "v": 97
    },
    {
      "midi": 57,
      "hit": false,
      "t": 71959.88150000008,
      "d": 892.8025000000052,
      "v": 94
    },
    {
      "midi": 60,
      "hit": false,
      "t": 72852.68399999989,
      "d": 2842.08795833333,
      "v": 96
    },
    {
      "midi": 64,
      "hit": false,
      "t": 72852.68399999989,
      "d": 2842.08795833333,
      "v": 94
    },
    {
      "midi": 67,
      "hit": false,
      "t": 72852.68399999989,
      "d": 2842.08795833333,
      "v": 92
    },
    {
      "midi": 48,
      "hit": false,
      "t": 72852.68400000008,
      "d": 2589.1272500000196,
      "v": 95
    },
    {
      "midi": 55,
      "hit": false,
      "t": 72875.00406250008,
      "d": 2566.807187500017,
      "v": 96
    },
    {
      "midi": 60,
      "hit": false,
      "t": 72897.32412500009,
      "d": 1919.525375000012,
      "v": 94
    },
    {
      "midi": 64,
      "hit": false,
      "t": 72919.64418750009,
      "d": 1406.1639375000086,
      "v": 92
    },
    {
      "midi": 67,
      "hit": false,
      "t": 74303.4880625001,
      "d": 1406.1639375000086,
      "v": 92
    },
    {
      "midi": 64,
      "hit": false,
      "t": 74325.8081250001,
      "d": 1383.843875000006,
      "v": 92
    },
    {
      "midi": 60,
      "hit": false,
      "t": 74816.8495000001,
      "d": 892.8025000000052,
      "v": 92
    },
    {
      "midi": 62,
      "hit": false,
      "t": 75352.5310000001,
      "d": 357.1209999999992,
      "v": 95
    },
    {
      "midi": 67,
      "hit": false,
      "t": 75709.65199999989,
      "d": 520.8014583333279,
      "v": 95
    },
    {
      "midi": 52,
      "hit": false,
      "t": 75709.65199999989,
      "d": 5699.055958333265,
      "v": 96
    },
    {
      "midi": 66,
      "hit": false,
      "t": 76245.33349999988,
      "d": 520.8014583333279,
      "v": 91
    },
    {
      "midi": 62,
      "hit": false,
      "t": 76781.01499999987,
      "d": 342.2409583333356,
      "v": 91
    },
    {
      "midi": 67,
      "hit": false,
      "t": 77138.13599999987,
      "d": 520.8014583333279,
      "v": 92
    },
    {
      "midi": 66,
      "hit": false,
      "t": 77673.81749999986,
      "d": 520.8014583333279,
      "v": 92
    },
    {
      "midi": 62,
      "hit": false,
      "t": 78209.49899999985,
      "d": 342.2409583333356,
      "v": 95
    },
    {
      "midi": 67,
      "hit": false,
      "t": 78566.61999999985,
      "d": 520.8014583333279,
      "v": 94
    },
    {
      "midi": 66,
      "hit": false,
      "t": 79102.30149999984,
      "d": 520.8014583333279,
      "v": 91
    },
    {
      "midi": 62,
      "hit": false,
      "t": 79637.98299999983,
      "d": 342.2409583333356,
      "v": 91
    },
    {
      "midi": 67,
      "hit": false,
      "t": 79995.10399999983,
      "d": 520.8014583333279,
      "v": 94
    },
    {
      "midi": 66,
      "hit": false,
      "t": 80530.78549999982,
      "d": 520.8014583333279,
      "v": 96
    },
    {
      "midi": 62,
      "hit": false,
      "t": 81066.46699999982,
      "d": 342.2409583333356,
      "v": 91
    },
    {
      "midi": 67,
      "hit": false,
      "t": 81423.58799999981,
      "d": 431.52120833333174,
      "v": 95
    },
    {
      "midi": 48,
      "hit": false,
      "t": 81423.58799999981,
      "d": 5699.055958333265,
      "v": 91
    },
    {
      "midi": 66,
      "hit": false,
      "t": 81959.2694999998,
      "d": 520.8014583333279,
      "v": 96
    },
    {
      "midi": 62,
      "hit": false,
      "t": 82494.9509999998,
      "d": 342.2409583333356,
      "v": 94
    },
    {
      "midi": 67,
      "hit": false,
      "t": 82852.0719999998,
      "d": 520.8014583333279,
      "v": 91
    },
    {
      "midi": 66,
      "hit": false,
      "t": 83387.75349999979,
      "d": 520.8014583333279,
      "v": 91
    },
    {
      "midi": 62,
      "hit": false,
      "t": 83923.43499999978,
      "d": 342.2409583333356,
      "v": 93
    },
    {
      "midi": 67,
      "hit": false,
      "t": 84280.55599999978,
      "d": 431.52120833333174,
      "v": 91
    },
    {
      "midi": 66,
      "hit": false,
      "t": 84816.23749999977,
      "d": 520.8014583333279,
      "v": 93
    },
    {
      "midi": 62,
      "hit": false,
      "t": 85351.91899999976,
      "d": 342.2409583333356,
      "v": 93
    },
    {
      "midi": 67,
      "hit": false,
      "t": 85709.03999999976,
      "d": 520.8014583333279,
      "v": 93
    },
    {
      "midi": 66,
      "hit": false,
      "t": 86244.72149999975,
      "d": 520.8014583333279,
      "v": 92
    },
    {
      "midi": 62,
      "hit": false,
      "t": 86780.40299999974,
      "d": 342.2409583333356,
      "v": 92
    },
    {
      "midi": 67,
      "hit": false,
      "t": 87137.52399999974,
      "d": 520.8014583333279,
      "v": 94
    },
    {
      "midi": 50,
      "hit": false,
      "t": 87137.52399999974,
      "d": 5699.055958333265,
      "v": 94
    },
    {
      "midi": 66,
      "hit": false,
      "t": 87673.20549999973,
      "d": 520.8014583333279,
      "v": 92
    },
    {
      "midi": 62,
      "hit": false,
      "t": 88208.88699999973,
      "d": 342.2409583333356,
      "v": 93
    },
    {
      "midi": 67,
      "hit": false,
      "t": 88566.00799999973,
      "d": 520.8014583333279,
      "v": 95
    },
    {
      "midi": 66,
      "hit": false,
      "t": 89101.68949999972,
      "d": 520.8014583333279,
      "v": 94
    },
    {
      "midi": 62,
      "hit": false,
      "t": 89637.37099999971,
      "d": 342.2409583333356,
      "v": 94
    },
    {
      "midi": 67,
      "hit": false,
      "t": 89994.49199999971,
      "d": 520.8014583333279,
      "v": 94
    },
    {
      "midi": 66,
      "hit": false,
      "t": 90530.1734999997,
      "d": 520.8014583333279,
      "v": 94
    },
    {
      "midi": 62,
      "hit": false,
      "t": 91065.85499999969,
      "d": 342.2409583333356,
      "v": 91
    },
    {
      "midi": 67,
      "hit": false,
      "t": 91422.97599999969,
      "d": 520.8014583333279,
      "v": 91
    },
    {
      "midi": 66,
      "hit": false,
      "t": 91958.65749999968,
      "d": 520.8014583333279,
      "v": 94
    },
    {
      "midi": 62,
      "hit": false,
      "t": 92494.33899999967,
      "d": 342.2409583333356,
      "v": 94
    },
    {
      "midi": 67,
      "hit": false,
      "t": 92851.45999999967,
      "d": 431.52120833333174,
      "v": 96
    },
    {
      "midi": 48,
      "hit": false,
      "t": 92851.45999999967,
      "d": 5520.495458333258,
      "v": 92
    },
    {
      "midi": 66,
      "hit": false,
      "t": 93387.14149999966,
      "d": 520.8014583333279,
      "v": 92
    },
    {
      "midi": 62,
      "hit": false,
      "t": 93922.82299999965,
      "d": 342.2409583333356,
      "v": 92
    },
    {
      "midi": 67,
      "hit": false,
      "t": 94279.94399999965,
      "d": 520.8014583333279,
      "v": 92
    },
    {
      "midi": 66,
      "hit": false,
      "t": 94815.62549999965,
      "d": 520.8014583333279,
      "v": 92
    },
    {
      "midi": 62,
      "hit": false,
      "t": 95351.30699999964,
      "d": 342.2409583333356,
      "v": 94
    },
    {
      "midi": 67,
      "hit": false,
      "t": 95708.42799999964,
      "d": 431.52120833333174,
      "v": 96
    },
    {
      "midi": 66,
      "hit": false,
      "t": 96244.10949999963,
      "d": 520.8014583333279,
      "v": 92
    },
    {
      "midi": 62,
      "hit": false,
      "t": 96779.79099999962,
      "d": 342.2409583333356,
      "v": 95
    },
    {
      "midi": 67,
      "hit": false,
      "t": 97136.91199999962,
      "d": 520.8014583333279,
      "v": 94
    },
    {
      "midi": 66,
      "hit": false,
      "t": 97672.59349999961,
      "d": 520.8014583333279,
      "v": 92
    },
    {
      "midi": 62,
      "hit": false,
      "t": 98208.2749999996,
      "d": 342.2409583333356,
      "v": 96
    },
    {
      "midi": 67,
      "hit": false,
      "t": 98565.3959999996,
      "d": 520.8014583333279,
      "v": 92
    },
    {
      "midi": 52,
      "hit": false,
      "t": 98565.3959999996,
      "d": 5699.055958333265,
      "v": 95
    },
    {
      "midi": 66,
      "hit": false,
      "t": 99101.07749999959,
      "d": 520.8014583333279,
      "v": 95
    },
    {
      "midi": 62,
      "hit": false,
      "t": 99636.75899999958,
      "d": 342.2409583333356,
      "v": 92
    },
    {
      "midi": 67,
      "hit": false,
      "t": 99993.87999999958,
      "d": 520.8014583333279,
      "v": 94
    },
    {
      "midi": 66,
      "hit": false,
      "t": 100529.56149999957,
      "d": 520.8014583333279,
      "v": 95
    },
    {
      "midi": 62,
      "hit": false,
      "t": 101065.24299999957,
      "d": 342.2409583333356,
      "v": 96
    },
    {
      "midi": 67,
      "hit": false,
      "t": 101422.36399999956,
      "d": 520.8014583333279,
      "v": 92
    },
    {
      "midi": 66,
      "hit": false,
      "t": 101958.04549999956,
      "d": 520.8014583333279,
      "v": 96
    },
    {
      "midi": 62,
      "hit": false,
      "t": 102493.72699999955,
      "d": 342.2409583333356,
      "v": 92
    },
    {
      "midi": 67,
      "hit": false,
      "t": 102850.84799999955,
      "d": 520.8014583333279,
      "v": 96
    },
    {
      "midi": 66,
      "hit": false,
      "t": 103386.52949999954,
      "d": 520.8014583333279,
      "v": 92
    },
    {
      "midi": 62,
      "hit": false,
      "t": 103922.21099999953,
      "d": 342.2409583333356,
      "v": 94
    },
    {
      "midi": 67,
      "hit": false,
      "t": 104279.33199999953,
      "d": 431.52120833333174,
      "v": 91
    },
    {
      "midi": 48,
      "hit": false,
      "t": 104279.33199999953,
      "d": 5699.055958333265,
      "v": 92
    },
    {
      "midi": 66,
      "hit": false,
      "t": 104815.01349999952,
      "d": 520.8014583333279,
      "v": 95
    },
    {
      "midi": 62,
      "hit": false,
      "t": 105350.69499999951,
      "d": 342.2409583333356,
      "v": 95
    },
    {
      "midi": 67,
      "hit": false,
      "t": 105707.81599999951,
      "d": 520.8014583333279,
      "v": 92
    },
    {
      "midi": 66,
      "hit": false,
      "t": 106243.4974999995,
      "d": 520.8014583333279,
      "v": 92
    },
    {
      "midi": 62,
      "hit": false,
      "t": 106779.1789999995,
      "d": 342.2409583333356,
      "v": 93
    },
    {
      "midi": 67,
      "hit": false,
      "t": 107136.2999999995,
      "d": 431.52120833333174,
      "v": 93
    },
    {
      "midi": 66,
      "hit": false,
      "t": 107671.98149999949,
      "d": 520.8014583333279,
      "v": 95
    },
    {
      "midi": 62,
      "hit": false,
      "t": 108207.66299999948,
      "d": 342.2409583333356,
      "v": 96
    },
    {
      "midi": 67,
      "hit": false,
      "t": 108564.78399999948,
      "d": 520.8014583333279,
      "v": 95
    },
    {
      "midi": 66,
      "hit": false,
      "t": 109100.46549999947,
      "d": 520.8014583333279,
      "v": 92
    },
    {
      "midi": 62,
      "hit": false,
      "t": 109636.14699999946,
      "d": 342.2409583333356,
      "v": 94
    },
    {
      "midi": 67,
      "hit": false,
      "t": 109993.26799999946,
      "d": 520.8014583333279,
      "v": 91
    },
    {
      "midi": 50,
      "hit": false,
      "t": 109993.26799999946,
      "d": 5699.055958333265,
      "v": 93
    },
    {
      "midi": 66,
      "hit": false,
      "t": 110528.94949999945,
      "d": 520.8014583333279,
      "v": 96
    },
    {
      "midi": 62,
      "hit": false,
      "t": 111064.63099999944,
      "d": 342.2409583333356,
      "v": 94
    },
    {
      "midi": 67,
      "hit": false,
      "t": 111421.75199999944,
      "d": 520.8014583333279,
      "v": 96
    },
    {
      "midi": 66,
      "hit": false,
      "t": 111957.43349999943,
      "d": 520.8014583333279,
      "v": 94
    },
    {
      "midi": 62,
      "hit": false,
      "t": 112493.11499999942,
      "d": 342.2409583333356,
      "v": 91
    },
    {
      "midi": 67,
      "hit": false,
      "t": 112850.23599999942,
      "d": 520.8014583333279,
      "v": 95
    },
    {
      "midi": 66,
      "hit": false,
      "t": 113385.91749999941,
      "d": 520.8014583333279,
      "v": 91
    },
    {
      "midi": 62,
      "hit": false,
      "t": 113921.5989999994,
      "d": 342.2409583333356,
      "v": 93
    },
    {
      "midi": 67,
      "hit": false,
      "t": 114278.7199999994,
      "d": 520.8014583333279,
      "v": 92
    },
    {
      "midi": 66,
      "hit": false,
      "t": 114814.4014999994,
      "d": 520.8014583333279,
      "v": 94
    },
    {
      "midi": 62,
      "hit": false,
      "t": 115350.08299999939,
      "d": 342.2409583333356,
      "v": 91
    },
    {
      "midi": 67,
      "hit": false,
      "t": 115707.20399999939,
      "d": 431.52120833333174,
      "v": 91
    },
    {
      "midi": 48,
      "hit": false,
      "t": 115707.20399999939,
      "d": 5520.495458333258,
      "v": 95
    },
    {
      "midi": 66,
      "hit": false,
      "t": 116242.88549999938,
      "d": 520.8014583333279,
      "v": 92
    },
    {
      "midi": 62,
      "hit": false,
      "t": 116778.56699999937,
      "d": 342.2409583333356,
      "v": 91
    },
    {
      "midi": 67,
      "hit": false,
      "t": 117135.68799999937,
      "d": 520.8014583333279,
      "v": 94
    },
    {
      "midi": 66,
      "hit": false,
      "t": 117671.36949999936,
      "d": 520.8014583333279,
      "v": 91
    },
    {
      "midi": 62,
      "hit": false,
      "t": 118207.05099999935,
      "d": 342.2409583333356,
      "v": 94
    },
    {
      "midi": 67,
      "hit": false,
      "t": 118564.17199999935,
      "d": 431.52120833333174,
      "v": 95
    },
    {
      "midi": 66,
      "hit": false,
      "t": 119099.85349999934,
      "d": 520.8014583333279,
      "v": 94
    },
    {
      "midi": 62,
      "hit": false,
      "t": 119635.53499999933,
      "d": 342.2409583333356,
      "v": 95
    },
    {
      "midi": 67,
      "hit": false,
      "t": 119992.65599999933,
      "d": 520.8014583333279,
      "v": 92
    },
    {
      "midi": 66,
      "hit": false,
      "t": 120528.33749999932,
      "d": 520.8014583333279,
      "v": 95
    },
    {
      "midi": 62,
      "hit": false,
      "t": 121064.01899999932,
      "d": 342.2409583333356,
      "v": 95
    },
    {
      "midi": 67,
      "hit": false,
      "t": 121421.13999999932,
      "d": 2842.08795833333,
      "v": 96
    },
    {
      "midi": 71,
      "hit": false,
      "t": 121421.13999999932,
      "d": 2842.08795833333,
      "v": 91
    },
    {
      "midi": 62,
      "hit": false,
      "t": 121421.13999999932,
      "d": 8466.74370833332,
      "v": 93
    },
    {
      "midi": 55,
      "hit": false,
      "t": 121421.1400000001,
      "d": 2410.5667500000127,
      "v": 92
    },
    {
      "midi": 59,
      "hit": false,
      "t": 121443.4600625001,
      "d": 2388.24668750001,
      "v": 94
    },
    {
      "midi": 62,
      "hit": false,
      "t": 121465.7801250001,
      "d": 1915.8053645833425,
      "v": 94
    },
    {
      "midi": 67,
      "hit": false,
      "t": 121488.10018750011,
      "d": 1361.5238125000033,
      "v": 95
    },
    {
      "midi": 67,
      "hit": false,
      "t": 122849.62400000011,
      "d": 1428.4839999999967,
      "v": 97
    },
    {
      "midi": 62,
      "hit": false,
      "t": 123385.30550000012,
      "d": 892.8024999999907,
      "v": 97
    },
    {
      "midi": 66,
      "hit": false,
      "t": 124278.10799999931,
      "d": 2842.08795833333,
      "v": 94
    },
    {
      "midi": 69,
      "hit": false,
      "t": 124278.10799999931,
      "d": 2842.08795833333,
      "v": 95
    },
    {
      "midi": 50,
      "hit": false,
      "t": 124278.10800000011,
      "d": 2499.8470000000234,
      "v": 96
    },
    {
      "midi": 57,
      "hit": false,
      "t": 124300.42806250011,
      "d": 1941.8454375000147,
      "v": 96
    },
    {
      "midi": 62,
      "hit": false,
      "t": 124322.74812500011,
      "d": 1383.843875000006,
      "v": 93
    },
    {
      "midi": 66,
      "hit": false,
      "t": 124345.06818750012,
      "d": 2432.8868125000154,
      "v": 93
    },
    {
      "midi": 62,
      "hit": false,
      "t": 125706.59200000012,
      "d": 1428.4840000000113,
      "v": 96
    },
    {
      "midi": 57,
      "hit": false,
      "t": 126242.27350000013,
      "d": 892.8025000000052,
      "v": 96
    },
    {
      "midi": 66,
      "hit": false,
      "t": 127135.0759999993,
      "d": 2842.08795833333,
      "v": 94
    },
    {
      "midi": 69,
      "hit": false,
      "t": 127135.0759999993,
      "d": 2842.08795833333,
      "v": 95
    },
    {
      "midi": 50,
      "hit": false,
      "t": 127135.07600000013,
      "d": 2492.4069791666843,
      "v": 97
    },
    {
      "midi": 57,
      "hit": false,
      "t": 127157.39606250013,
      "d": 1941.8454375000147,
      "v": 93
    },
    {
      "midi": 62,
      "hit": false,
      "t": 127179.71612500014,
      "d": 1383.843875000006,
      "v": 95
    },
    {
      "midi": 66,
      "hit": false,
      "t": 127202.03618750014,
      "d": 2432.8868125000154,
      "v": 92
    },
    {
      "midi": 62,
      "hit": false,
      "t": 128563.56000000014,
      "d": 1428.4840000000113,
      "v": 93
    },
    {
      "midi": 57,
      "hit": false,
      "t": 129099.24150000015,
      "d": 892.8025000000052,
      "v": 97
    },
    {
      "midi": 60,
      "hit": false,
      "t": 129992.0439999993,
      "d": 2842.0879583333444,
      "v": 91
    },
    {
      "midi": 64,
      "hit": false,
      "t": 129992.0439999993,
      "d": 2842.0879583333444,
      "v": 95
    },
    {
      "midi": 67,
      "hit": false,
      "t": 129992.0439999993,
      "d": 2842.0879583333444,
      "v": 92
    },
    {
      "midi": 48,
      "hit": false,
      "t": 129992.04400000015,
      "d": 2492.4069791666843,
      "v": 92
    },
    {
      "midi": 55,
      "hit": false,
      "t": 130018.08407291683,
      "d": 2477.5269375000207,
      "v": 93
    },
    {
      "midi": 60,
      "hit": false,
      "t": 130036.68412500016,
      "d": 1919.525375000012,
      "v": 95
    },
    {
      "midi": 64,
      "hit": false,
      "t": 130059.00418750016,
      "d": 1361.5238125000033,
      "v": 95
    },
    {
      "midi": 67,
      "hit": false,
      "t": 131420.52800000017,
      "d": 1428.4840000000258,
      "v": 95
    },
    {
      "midi": 60,
      "hit": false,
      "t": 131956.20950000017,
      "d": 509.6414270833193,
      "v": 92
    },
    {
      "midi": 62,
      "hit": false,
      "t": 132491.89100000018,
      "d": 357.12100000001374,
      "v": 94
    },
    {
      "midi": 62,
      "hit": false,
      "t": 132849.01199999932,
      "d": 2842.0879583333444,
      "v": 93
    },
    {
      "midi": 67,
      "hit": false,
      "t": 132849.01199999932,
      "d": 2842.0879583333444,
      "v": 95
    },
    {
      "midi": 71,
      "hit": false,
      "t": 132849.01199999932,
      "d": 2842.0879583333444,
      "v": 96
    },
    {
      "midi": 55,
      "hit": false,
      "t": 132849.0120000002,
      "d": 2410.566749999969,
      "v": 97
    },
    {
      "midi": 59,
      "hit": false,
      "t": 132871.33206250018,
      "d": 2388.246687499981,
      "v": 97
    },
    {
      "midi": 62,
      "hit": false,
      "t": 132893.65212500017,
      "d": 1919.5253749999974,
      "v": 92
    },
    {
      "midi": 67,
      "hit": false,
      "t": 132915.97218750016,
      "d": 1361.5238125000033,
      "v": 96
    },
    {
      "midi": 67,
      "hit": false,
      "t": 134277.49600000016,
      "d": 1428.4839999999967,
      "v": 96
    },
    {
      "midi": 62,
      "hit": false,
      "t": 134813.17750000017,
      "d": 892.8024999999907,
      "v": 96
    },
    {
      "midi": 62,
      "hit": false,
      "t": 135705.97999999934,
      "d": 2842.0879583333444,
      "v": 91
    },
    {
      "midi": 66,
      "hit": false,
      "t": 135705.97999999934,
      "d": 2842.0879583333444,
      "v": 95
    },
    {
      "midi": 69,
      "hit": false,
      "t": 135705.97999999934,
      "d": 2842.0879583333444,
      "v": 93
    },
    {
      "midi": 50,
      "hit": false,
      "t": 135705.98000000016,
      "d": 2499.8469999999797,
      "v": 95
    },
    {
      "midi": 57,
      "hit": false,
      "t": 135728.30006250014,
      "d": 1934.4054166666465,
      "v": 92
    },
    {
      "midi": 62,
      "hit": false,
      "t": 135750.62012500013,
      "d": 1383.8438749999914,
      "v": 92
    },
    {
      "midi": 66,
      "hit": false,
      "t": 135772.94018750012,
      "d": 2421.7267812500068,
      "v": 92
    },
    {
      "midi": 62,
      "hit": false,
      "t": 137134.46400000012,
      "d": 1428.4840000000258,
      "v": 95
    },
    {
      "midi": 57,
      "hit": false,
      "t": 137670.14550000013,
      "d": 892.8025000000198,
      "v": 95
    },
    {
      "midi": 62,
      "hit": false,
      "t": 138562.94799999936,
      "d": 2842.0879583333444,
      "v": 96
    },
    {
      "midi": 66,
      "hit": false,
      "t": 138562.94799999936,
      "d": 2842.0879583333444,
      "v": 91
    },
    {
      "midi": 69,
      "hit": false,
      "t": 138562.94799999936,
      "d": 2842.0879583333444,
      "v": 92
    },
    {
      "midi": 50,
      "hit": false,
      "t": 138562.94800000015,
      "d": 2499.8469999999797,
      "v": 92
    },
    {
      "midi": 57,
      "hit": false,
      "t": 138585.26806250014,
      "d": 1941.8454374999856,
      "v": 94
    },
    {
      "midi": 62,
      "hit": false,
      "t": 138607.58812500013,
      "d": 1383.8438749999914,
      "v": 92
    },
    {
      "midi": 66,
      "hit": false,
      "t": 138629.9081875001,
      "d": 2432.8868125000154,
      "v": 96
    },
    {
      "midi": 62,
      "hit": false,
      "t": 139991.43200000012,
      "d": 1428.4840000000258,
      "v": 92
    },
    {
      "midi": 57,
      "hit": false,
      "t": 140527.11350000012,
      "d": 892.8025000000198,
      "v": 96
    },
    {
      "midi": 60,
      "hit": false,
      "t": 141419.9159999994,
      "d": 2842.0879583333444,
      "v": 93
    },
    {
      "midi": 64,
      "hit": false,
      "t": 141419.9159999994,
      "d": 2842.0879583333444,
      "v": 96
    },
    {
      "midi": 67,
      "hit": false,
      "t": 141419.9159999994,
      "d": 2842.0879583333444,
      "v": 91
    },
    {
      "midi": 48,
      "hit": false,
      "t": 141419.91600000014,
      "d": 2499.8469999999797,
      "v": 96
    },
    {
      "midi": 55,
      "hit": false,
      "t": 141445.9560729168,
      "d": 2470.0869166666525,
      "v": 93
    },
    {
      "midi": 60,
      "hit": false,
      "t": 141464.55612500015,
      "d": 1919.5253749999683,
      "v": 97
    },
    {
      "midi": 64,
      "hit": false,
      "t": 141486.87618750014,
      "d": 1361.5238125000033,
      "v": 96
    },
    {
      "midi": 67,
      "hit": false,
      "t": 142870.72006250013,
      "d": 1406.1639375000086,
      "v": 92
    },
    {
      "midi": 64,
      "hit": false,
      "t": 142893.04012500012,
      "d": 1383.8438750000205,
      "v": 97
    },
    {
      "midi": 60,
      "hit": false,
      "t": 143384.08150000012,
      "d": 511.5014322916686,
      "v": 92
    },
    {
      "midi": 62,
      "hit": false,
      "t": 143919.76300000012,
      "d": 357.12100000001374,
      "v": 95
    },
    {
      "midi": 67,
      "hit": false,
      "t": 167132.6279999994,
      "d": 520.8014583333279,
      "v": 92
    },
    {
      "midi": 52,
      "hit": false,
      "t": 167132.6279999994,
      "d": 5699.055958333425,
      "v": 93
    },
    {
      "midi": 66,
      "hit": false,
      "t": 167668.3094999994,
      "d": 520.8014583333279,
      "v": 91
    },
    {
      "midi": 62,
      "hit": false,
      "t": 168203.9909999994,
      "d": 342.2409583333356,
      "v": 93
    },
    {
      "midi": 67,
      "hit": false,
      "t": 168561.1119999994,
      "d": 520.8014583333279,
      "v": 92
    },
    {
      "midi": 66,
      "hit": false,
      "t": 169096.79349999942,
      "d": 520.8014583333279,
      "v": 92
    },
    {
      "midi": 62,
      "hit": false,
      "t": 169632.47499999942,
      "d": 342.2409583333356,
      "v": 92
    },
    {
      "midi": 67,
      "hit": false,
      "t": 169989.59599999944,
      "d": 520.8014583333279,
      "v": 92
    },
    {
      "midi": 66,
      "hit": false,
      "t": 170525.27749999944,
      "d": 520.8014583333279,
      "v": 91
    },
    {
      "midi": 62,
      "hit": false,
      "t": 171060.95899999945,
      "d": 342.2409583333356,
      "v": 93
    },
    {
      "midi": 67,
      "hit": false,
      "t": 171418.07999999946,
      "d": 520.8014583333279,
      "v": 96
    },
    {
      "midi": 66,
      "hit": false,
      "t": 171953.76149999947,
      "d": 520.8014583333279,
      "v": 95
    },
    {
      "midi": 62,
      "hit": false,
      "t": 172489.44299999948,
      "d": 342.2409583333356,
      "v": 96
    },
    {
      "midi": 67,
      "hit": false,
      "t": 172846.5639999995,
      "d": 431.5212083333463,
      "v": 91
    },
    {
      "midi": 48,
      "hit": false,
      "t": 172846.5639999995,
      "d": 5699.055958333425,
      "v": 93
    },
    {
      "midi": 66,
      "hit": false,
      "t": 173382.2454999995,
      "d": 520.8014583333279,
      "v": 94
    },
    {
      "midi": 62,
      "hit": false,
      "t": 173917.9269999995,
      "d": 342.2409583333356,
      "v": 95
    },
    {
      "midi": 67,
      "hit": false,
      "t": 174275.04799999952,
      "d": 520.8014583333279,
      "v": 96
    },
    {
      "midi": 66,
      "hit": false,
      "t": 174810.72949999952,
      "d": 520.8014583333279,
      "v": 95
    },
    {
      "midi": 62,
      "hit": false,
      "t": 175346.41099999953,
      "d": 342.2409583333356,
      "v": 96
    },
    {
      "midi": 67,
      "hit": false,
      "t": 175703.53199999954,
      "d": 431.5212083333463,
      "v": 93
    },
    {
      "midi": 66,
      "hit": false,
      "t": 176239.21349999955,
      "d": 520.8014583333279,
      "v": 94
    },
    {
      "midi": 62,
      "hit": false,
      "t": 176774.89499999955,
      "d": 342.2409583333356,
      "v": 94
    },
    {
      "midi": 67,
      "hit": false,
      "t": 177132.01599999957,
      "d": 520.8014583333279,
      "v": 94
    },
    {
      "midi": 66,
      "hit": false,
      "t": 177667.69749999957,
      "d": 520.8014583333279,
      "v": 96
    },
    {
      "midi": 62,
      "hit": false,
      "t": 178203.37899999958,
      "d": 342.2409583333356,
      "v": 95
    },
    {
      "midi": 67,
      "hit": false,
      "t": 178560.4999999996,
      "d": 520.8014583333279,
      "v": 94
    },
    {
      "midi": 50,
      "hit": false,
      "t": 178560.4999999996,
      "d": 5699.055958333425,
      "v": 95
    },
    {
      "midi": 66,
      "hit": false,
      "t": 179096.1814999996,
      "d": 520.8014583333279,
      "v": 91
    },
    {
      "midi": 62,
      "hit": false,
      "t": 179631.8629999996,
      "d": 342.2409583333356,
      "v": 91
    },
    {
      "midi": 67,
      "hit": false,
      "t": 179988.98399999962,
      "d": 520.8014583333279,
      "v": 94
    },
    {
      "midi": 66,
      "hit": false,
      "t": 180524.66549999962,
      "d": 520.8014583333279,
      "v": 96
    },
    {
      "midi": 62,
      "hit": false,
      "t": 181060.34699999963,
      "d": 342.2409583333356,
      "v": 92
    },
    {
      "midi": 67,
      "hit": false,
      "t": 181417.46799999964,
      "d": 520.8014583333279,
      "v": 91
    },
    {
      "midi": 66,
      "hit": false,
      "t": 181953.14949999965,
      "d": 520.8014583333279,
      "v": 92
    },
    {
      "midi": 62,
      "hit": false,
      "t": 182488.83099999966,
      "d": 342.2409583333356,
      "v": 91
    },
    {
      "midi": 67,
      "hit": false,
      "t": 182845.95199999967,
      "d": 520.8014583333279,
      "v": 93
    },
    {
      "midi": 66,
      "hit": false,
      "t": 183381.63349999968,
      "d": 520.8014583333279,
      "v": 91
    },
    {
      "midi": 62,
      "hit": false,
      "t": 183917.31499999968,
      "d": 342.2409583333356,
      "v": 93
    },
    {
      "midi": 67,
      "hit": false,
      "t": 184274.4359999997,
      "d": 431.5212083333463,
      "v": 91
    },
    {
      "midi": 48,
      "hit": false,
      "t": 184274.4359999997,
      "d": 5520.495458333433,
      "v": 91
    },
    {
      "midi": 66,
      "hit": false,
      "t": 184810.1174999997,
      "d": 520.8014583333279,
      "v": 91
    },
    {
      "midi": 62,
      "hit": false,
      "t": 185345.7989999997,
      "d": 342.2409583333356,
      "v": 94
    },
    {
      "midi": 67,
      "hit": false,
      "t": 185702.91999999972,
      "d": 520.8014583333279,
      "v": 96
    },
    {
      "midi": 66,
      "hit": false,
      "t": 186238.60149999973,
      "d": 520.8014583333279,
      "v": 92
    },
    {
      "midi": 62,
      "hit": false,
      "t": 186774.28299999973,
      "d": 342.2409583333356,
      "v": 96
    },
    {
      "midi": 67,
      "hit": false,
      "t": 187131.40399999975,
      "d": 431.5212083333463,
      "v": 95
    },
    {
      "midi": 66,
      "hit": false,
      "t": 187667.08549999975,
      "d": 520.8014583333279,
      "v": 93
    },
    {
      "midi": 62,
      "hit": false,
      "t": 188202.76699999976,
      "d": 342.2409583333356,
      "v": 92
    },
    {
      "midi": 67,
      "hit": false,
      "t": 188559.88799999977,
      "d": 520.8014583333279,
      "v": 94
    },
    {
      "midi": 66,
      "hit": false,
      "t": 189095.56949999978,
      "d": 520.8014583333279,
      "v": 95
    },
    {
      "midi": 62,
      "hit": false,
      "t": 189631.2509999998,
      "d": 342.2409583333356,
      "v": 91
    },
    {
      "midi": 67,
      "hit": false,
      "t": 189988.3719999998,
      "d": 520.8014583333279,
      "v": 91
    },
    {
      "midi": 52,
      "hit": false,
      "t": 189988.3719999998,
      "d": 5699.055958333425,
      "v": 91
    },
    {
      "midi": 66,
      "hit": false,
      "t": 190524.0534999998,
      "d": 520.8014583333279,
      "v": 95
    },
    {
      "midi": 62,
      "hit": false,
      "t": 191059.7349999998,
      "d": 342.2409583333356,
      "v": 92
    },
    {
      "midi": 67,
      "hit": false,
      "t": 191416.85599999983,
      "d": 520.8014583333279,
      "v": 93
    },
    {
      "midi": 66,
      "hit": false,
      "t": 191952.53749999983,
      "d": 520.8014583333279,
      "v": 96
    },
    {
      "midi": 62,
      "hit": false,
      "t": 192488.21899999984,
      "d": 342.2409583333356,
      "v": 94
    },
    {
      "midi": 67,
      "hit": false,
      "t": 192845.33999999985,
      "d": 520.8014583333279,
      "v": 95
    },
    {
      "midi": 66,
      "hit": false,
      "t": 193381.02149999986,
      "d": 520.8014583333279,
      "v": 91
    },
    {
      "midi": 62,
      "hit": false,
      "t": 193916.70299999986,
      "d": 342.2409583333356,
      "v": 93
    },
    {
      "midi": 67,
      "hit": false,
      "t": 194273.82399999988,
      "d": 520.8014583333279,
      "v": 96
    },
    {
      "midi": 66,
      "hit": false,
      "t": 194809.50549999988,
      "d": 520.8014583333279,
      "v": 92
    },
    {
      "midi": 62,
      "hit": false,
      "t": 195345.1869999999,
      "d": 342.2409583333356,
      "v": 91
    },
    {
      "midi": 67,
      "hit": false,
      "t": 195702.3079999999,
      "d": 431.5212083333463,
      "v": 92
    },
    {
      "midi": 48,
      "hit": false,
      "t": 195702.3079999999,
      "d": 5699.055958333425,
      "v": 92
    },
    {
      "midi": 66,
      "hit": false,
      "t": 196237.9894999999,
      "d": 520.8014583333279,
      "v": 96
    },
    {
      "midi": 62,
      "hit": false,
      "t": 196773.67099999991,
      "d": 342.2409583333356,
      "v": 95
    },
    {
      "midi": 67,
      "hit": false,
      "t": 197130.79199999993,
      "d": 520.8014583333279,
      "v": 92
    },
    {
      "midi": 66,
      "hit": false,
      "t": 197666.47349999993,
      "d": 520.8014583333279,
      "v": 94
    },
    {
      "midi": 62,
      "hit": false,
      "t": 198202.15499999994,
      "d": 342.2409583333356,
      "v": 94
    },
    {
      "midi": 67,
      "hit": false,
      "t": 198559.27599999995,
      "d": 431.5212083333463,
      "v": 96
    },
    {
      "midi": 66,
      "hit": false,
      "t": 199094.95749999996,
      "d": 520.8014583333279,
      "v": 93
    },
    {
      "midi": 62,
      "hit": false,
      "t": 199630.63899999997,
      "d": 342.2409583333356,
      "v": 91
    },
    {
      "midi": 67,
      "hit": false,
      "t": 199987.75999999998,
      "d": 520.8014583333279,
      "v": 94
    },
    {
      "midi": 66,
      "hit": false,
      "t": 200523.4415,
      "d": 520.8014583333279,
      "v": 93
    },
    {
      "midi": 62,
      "hit": false,
      "t": 201059.123,
      "d": 342.2409583333356,
      "v": 93
    },
    {
      "midi": 67,
      "hit": false,
      "t": 201416.244,
      "d": 520.8014583333279,
      "v": 96
    },
    {
      "midi": 50,
      "hit": false,
      "t": 201416.244,
      "d": 5699.055958333425,
      "v": 95
    },
    {
      "midi": 66,
      "hit": false,
      "t": 201951.9255,
      "d": 520.8014583333279,
      "v": 91
    },
    {
      "midi": 62,
      "hit": false,
      "t": 202487.60700000002,
      "d": 342.2409583333356,
      "v": 94
    },
    {
      "midi": 67,
      "hit": false,
      "t": 202844.72800000003,
      "d": 520.8014583333279,
      "v": 93
    },
    {
      "midi": 66,
      "hit": false,
      "t": 203380.40950000004,
      "d": 520.8014583333279,
      "v": 91
    },
    {
      "midi": 62,
      "hit": false,
      "t": 203916.09100000004,
      "d": 342.2409583333356,
      "v": 92
    },
    {
      "midi": 67,
      "hit": false,
      "t": 204273.21200000006,
      "d": 520.8014583333279,
      "v": 92
    },
    {
      "midi": 66,
      "hit": false,
      "t": 204808.89350000006,
      "d": 520.8014583333279,
      "v": 93
    },
    {
      "midi": 62,
      "hit": false,
      "t": 205344.57500000007,
      "d": 342.2409583333356,
      "v": 96
    },
    {
      "midi": 67,
      "hit": false,
      "t": 205701.69600000008,
      "d": 520.8014583333279,
      "v": 95
    },
    {
      "midi": 66,
      "hit": false,
      "t": 206237.3775000001,
      "d": 520.8014583333279,
      "v": 91
    },
    {
      "midi": 62,
      "hit": false,
      "t": 206773.0590000001,
      "d": 342.2409583333356,
      "v": 91
    },
    {
      "midi": 67,
      "hit": false,
      "t": 207130.1800000001,
      "d": 431.5212083333463,
      "v": 94
    },
    {
      "midi": 48,
      "hit": false,
      "t": 207130.1800000001,
      "d": 5520.495458333433,
      "v": 94
    },
    {
      "midi": 66,
      "hit": false,
      "t": 207665.86150000012,
      "d": 520.8014583333279,
      "v": 93
    },
    {
      "midi": 62,
      "hit": false,
      "t": 208201.54300000012,
      "d": 342.2409583333356,
      "v": 92
    },
    {
      "midi": 67,
      "hit": false,
      "t": 208558.66400000014,
      "d": 520.8014583333279,
      "v": 92
    },
    {
      "midi": 66,
      "hit": false,
      "t": 209094.34550000014,
      "d": 520.8014583333279,
      "v": 95
    },
    {
      "midi": 62,
      "hit": false,
      "t": 209630.02700000015,
      "d": 342.2409583333356,
      "v": 94
    },
    {
      "midi": 67,
      "hit": false,
      "t": 209987.14800000016,
      "d": 431.5212083333463,
      "v": 96
    },
    {
      "midi": 66,
      "hit": false,
      "t": 210522.82950000017,
      "d": 520.8014583333279,
      "v": 91
    },
    {
      "midi": 62,
      "hit": false,
      "t": 211058.51100000017,
      "d": 342.2409583333356,
      "v": 93
    },
    {
      "midi": 67,
      "hit": false,
      "t": 211415.6320000002,
      "d": 520.8014583333279,
      "v": 94
    },
    {
      "midi": 66,
      "hit": false,
      "t": 211951.3135000002,
      "d": 520.8014583333279,
      "v": 95
    },
    {
      "midi": 62,
      "hit": false,
      "t": 212486.9950000002,
      "d": 342.2409583333356,
      "v": 96
    },
    {
      "midi": 55,
      "hit": false,
      "t": 212844.11600000015,
      "d": 2499.8469999999797,
      "v": 92
    },
    {
      "midi": 67,
      "hit": false,
      "t": 212844.1160000002,
      "d": 2842.0879583333444,
      "v": 95
    },
    {
      "midi": 71,
      "hit": false,
      "t": 212844.1160000002,
      "d": 2842.0879583333444,
      "v": 92
    },
    {
      "midi": 62,
      "hit": false,
      "t": 212844.1160000002,
      "d": 8466.743708333379,
      "v": 93
    },
    {
      "midi": 59,
      "hit": false,
      "t": 212866.43606250014,
      "d": 2477.5269374999916,
      "v": 96
    },
    {
      "midi": 62,
      "hit": false,
      "t": 212888.75612500013,
      "d": 1919.5253749999974,
      "v": 94
    },
    {
      "midi": 67,
      "hit": false,
      "t": 212911.07618750012,
      "d": 1361.5238125000033,
      "v": 94
    },
    {
      "midi": 67,
      "hit": false,
      "t": 214272.60000000012,
      "d": 1428.4840000000258,
      "v": 95
    },
    {
      "midi": 62,
      "hit": false,
      "t": 214808.28150000013,
      "d": 892.8025000000198,
      "v": 93
    },
    {
      "midi": 50,
      "hit": false,
      "t": 215701.08400000015,
      "d": 2499.8469999999797,
      "v": 96
    },
    {
      "midi": 66,
      "hit": false,
      "t": 215701.08400000024,
      "d": 2842.0879583333444,
      "v": 96
    },
    {
      "midi": 69,
      "hit": false,
      "t": 215701.08400000024,
      "d": 2842.0879583333444,
      "v": 92
    },
    {
      "midi": 57,
      "hit": false,
      "t": 215723.40406250014,
      "d": 1941.8454374999856,
      "v": 97
    },
    {
      "midi": 62,
      "hit": false,
      "t": 215745.72412500012,
      "d": 1383.8438749999914,
      "v": 95
    },
    {
      "midi": 66,
      "hit": false,
      "t": 215768.0441875001,
      "d": 2432.8868125000154,
      "v": 96
    },
    {
      "midi": 62,
      "hit": false,
      "t": 217129.56800000012,
      "d": 1428.4840000000258,
      "v": 95
    },
    {
      "midi": 57,
      "hit": false,
      "t": 217665.24950000012,
      "d": 892.8025000000198,
      "v": 92
    },
    {
      "midi": 50,
      "hit": false,
      "t": 218558.05200000014,
      "d": 2499.8469999999797,
      "v": 96
    },
    {
      "midi": 66,
      "hit": false,
      "t": 218558.05200000026,
      "d": 2842.0879583333444,
      "v": 95
    },
    {
      "midi": 69,
      "hit": false,
      "t": 218558.05200000026,
      "d": 2842.0879583333444,
      "v": 92
    },
    {
      "midi": 57,
      "hit": false,
      "t": 218580.37206250013,
      "d": 1941.8454374999856,
      "v": 97
    },
    {
      "midi": 62,
      "hit": false,
      "t": 218602.69212500012,
      "d": 1383.8438749999914,
      "v": 96
    },
    {
      "midi": 66,
      "hit": false,
      "t": 218625.0121875001,
      "d": 2432.8868125000154,
      "v": 97
    },
    {
      "midi": 62,
      "hit": false,
      "t": 219986.5360000001,
      "d": 1428.4840000000258,
      "v": 94
    },
    {
      "midi": 57,
      "hit": false,
      "t": 220522.21750000012,
      "d": 892.8025000000198,
      "v": 96
    },
    {
      "midi": 48,
      "hit": false,
      "t": 221415.02000000014,
      "d": 2499.8469999999797,
      "v": 94
    },
    {
      "midi": 60,
      "hit": false,
      "t": 221415.02000000028,
      "d": 2842.0879583333444,
      "v": 93
    },
    {
      "midi": 64,
      "hit": false,
      "t": 221415.02000000028,
      "d": 2842.0879583333444,
      "v": 91
    },
    {
      "midi": 67,
      "hit": false,
      "t": 221415.02000000028,
      "d": 2842.0879583333444,
      "v": 93
    },
    {
      "midi": 55,
      "hit": false,
      "t": 221437.34006250012,
      "d": 2477.5269374999916,
      "v": 97
    },
    {
      "midi": 60,
      "hit": false,
      "t": 221459.6601250001,
      "d": 1919.5253749999974,
      "v": 97
    },
    {
      "midi": 64,
      "hit": false,
      "t": 221481.9801875001,
      "d": 2425.4467916666763,
      "v": 97
    },
    {
      "midi": 67,
      "hit": false,
      "t": 222843.5040000001,
      "d": 1428.4840000000258,
      "v": 97
    },
    {
      "midi": 60,
      "hit": false,
      "t": 223379.1855000001,
      "d": 505.92141666667885,
      "v": 97
    },
    {
      "midi": 62,
      "hit": false,
      "t": 223914.86700000011,
      "d": 357.12100000001374,
      "v": 96
    },
    {
      "midi": 55,
      "hit": false,
      "t": 224271.98800000013,
      "d": 2499.8469999999797,
      "v": 94
    },
    {
      "midi": 62,
      "hit": false,
      "t": 224271.9880000003,
      "d": 2842.0879583333444,
      "v": 94
    },
    {
      "midi": 67,
      "hit": false,
      "t": 224271.9880000003,
      "d": 2842.0879583333444,
      "v": 92
    },
    {
      "midi": 71,
      "hit": false,
      "t": 224271.9880000003,
      "d": 2842.0879583333444,
      "v": 91
    },
    {
      "midi": 59,
      "hit": false,
      "t": 224294.30806250012,
      "d": 2477.5269374999916,
      "v": 95
    },
    {
      "midi": 62,
      "hit": false,
      "t": 224316.6281250001,
      "d": 1919.5253749999974,
      "v": 95
    },
    {
      "midi": 67,
      "hit": false,
      "t": 224338.9481875001,
      "d": 1361.5238125000033,
      "v": 94
    },
    {
      "midi": 67,
      "hit": false,
      "t": 225700.4720000001,
      "d": 502.2014062500093,
      "v": 96
    },
    {
      "midi": 62,
      "hit": false,
      "t": 226236.1535000001,
      "d": 892.8025000000198,
      "v": 97
    },
    {
      "midi": 50,
      "hit": false,
      "t": 227128.95600000012,
      "d": 2499.8469999999797,
      "v": 95
    },
    {
      "midi": 62,
      "hit": false,
      "t": 227128.95600000033,
      "d": 2842.0879583333444,
      "v": 95
    },
    {
      "midi": 66,
      "hit": false,
      "t": 227128.95600000033,
      "d": 2842.0879583333444,
      "v": 94
    },
    {
      "midi": 69,
      "hit": false,
      "t": 227128.95600000033,
      "d": 2842.0879583333444,
      "v": 93
    },
    {
      "midi": 57,
      "hit": false,
      "t": 227151.2760625001,
      "d": 1941.8454374999856,
      "v": 97
    },
    {
      "midi": 62,
      "hit": false,
      "t": 227173.5961250001,
      "d": 1383.8438749999914,
      "v": 94
    },
    {
      "midi": 66,
      "hit": false,
      "t": 227195.9161875001,
      "d": 2432.8868125000154,
      "v": 97
    },
    {
      "midi": 62,
      "hit": false,
      "t": 228557.4400000001,
      "d": 1428.4840000000258,
      "v": 96
    },
    {
      "midi": 57,
      "hit": false,
      "t": 229093.1215000001,
      "d": 892.8025000000198,
      "v": 94
    },
    {
      "midi": 50,
      "hit": false,
      "t": 229985.92400000012,
      "d": 2499.8469999999797,
      "v": 93
    },
    {
      "midi": 62,
      "hit": false,
      "t": 229985.92400000035,
      "d": 2842.0879583333444,
      "v": 94
    },
    {
      "midi": 66,
      "hit": false,
      "t": 229985.92400000035,
      "d": 2842.0879583333444,
      "v": 95
    },
    {
      "midi": 69,
      "hit": false,
      "t": 229985.92400000035,
      "d": 2842.0879583333444,
      "v": 93
    },
    {
      "midi": 57,
      "hit": false,
      "t": 230008.2440625001,
      "d": 1941.8454374999856,
      "v": 97
    },
    {
      "midi": 62,
      "hit": false,
      "t": 230030.5641250001,
      "d": 1383.8438749999914,
      "v": 95
    },
    {
      "midi": 66,
      "hit": false,
      "t": 230052.88418750008,
      "d": 2432.8868125000154,
      "v": 96
    },
    {
      "midi": 62,
      "hit": false,
      "t": 231421.84802083342,
      "d": 1428.4840000000258,
      "v": 97
    },
    {
      "midi": 57,
      "hit": false,
      "t": 231950.0895000001,
      "d": 892.8025000000198,
      "v": 95
    },
    {
      "midi": 48,
      "hit": false,
      "t": 232842.8920000001,
      "d": 2492.4069791666407,
      "v": 95
    },
    {
      "midi": 60,
      "hit": false,
      "t": 232842.89200000037,
      "d": 2842.0879583333444,
      "v": 93
    },
    {
      "midi": 64,
      "hit": false,
      "t": 232842.89200000037,
      "d": 2842.0879583333444,
      "v": 91
    },
    {
      "midi": 67,
      "hit": false,
      "t": 232842.89200000037,
      "d": 2842.0879583333444,
      "v": 91
    },
    {
      "midi": 55,
      "hit": false,
      "t": 232865.21206250013,
      "d": 2477.5269374999625,
      "v": 96
    },
    {
      "midi": 60,
      "hit": false,
      "t": 232887.5321250001,
      "d": 1919.5253749999683,
      "v": 92
    },
    {
      "midi": 64,
      "hit": false,
      "t": 232909.8521875001,
      "d": 1354.0837916666642,
      "v": 97
    },
    {
      "midi": 67,
      "hit": false,
      "t": 234293.6960625001,
      "d": 1406.1639375000086,
      "v": 93
    },
    {
      "midi": 64,
      "hit": false,
      "t": 234316.01612500008,
      "d": 1383.8438750000205,
      "v": 94
    },
    {
      "midi": 60,
      "hit": false,
      "t": 234807.05750000008,
      "d": 892.8025000000198,
      "v": 95
    },
    {
      "midi": 62,
      "hit": false,
      "t": 235342.7390000001,
      "d": 357.12100000001374,
      "v": 92
    },
    {
      "midi": 55,
      "hit": false,
      "t": 235699.8600000001,
      "d": 2499.8469999999797,
      "v": 96
    },
    {
      "midi": 67,
      "hit": false,
      "t": 235699.8600000004,
      "d": 2842.0879583333444,
      "v": 93
    },
    {
      "midi": 71,
      "hit": false,
      "t": 235699.8600000004,
      "d": 2842.0879583333444,
      "v": 92
    },
    {
      "midi": 62,
      "hit": false,
      "t": 235699.8600000004,
      "d": 8466.743708333379,
      "v": 95
    },
    {
      "midi": 59,
      "hit": false,
      "t": 235722.1800625001,
      "d": 2477.5269374999916,
      "v": 97
    },
    {
      "midi": 62,
      "hit": false,
      "t": 235744.50012500008,
      "d": 1919.5253749999974,
      "v": 92
    },
    {
      "midi": 67,
      "hit": false,
      "t": 235766.82018750007,
      "d": 1361.5238125000033,
      "v": 93
    },
    {
      "midi": 67,
      "hit": false,
      "t": 237128.34400000007,
      "d": 1428.4840000000258,
      "v": 97
    },
    {
      "midi": 62,
      "hit": false,
      "t": 237664.02550000008,
      "d": 892.8025000000198,
      "v": 92
    },
    {
      "midi": 50,
      "hit": false,
      "t": 238556.8280000001,
      "d": 2499.8469999999797,
      "v": 92
    },
    {
      "midi": 66,
      "hit": false,
      "t": 238556.82800000042,
      "d": 2842.0879583333444,
      "v": 95
    },
    {
      "midi": 69,
      "hit": false,
      "t": 238556.82800000042,
      "d": 2842.0879583333444,
      "v": 95
    },
    {
      "midi": 57,
      "hit": false,
      "t": 238579.14806250008,
      "d": 1941.8454374999856,
      "v": 95
    },
    {
      "midi": 62,
      "hit": false,
      "t": 238601.46812500007,
      "d": 1383.8438749999914,
      "v": 92
    },
    {
      "midi": 66,
      "hit": false,
      "t": 238623.78818750006,
      "d": 2432.8868125000154,
      "v": 92
    },
    {
      "midi": 62,
      "hit": false,
      "t": 239985.31200000006,
      "d": 1421.0439791666868,
      "v": 92
    },
    {
      "midi": 57,
      "hit": false,
      "t": 240520.99350000007,
      "d": 892.8025000000198,
      "v": 97
    },
    {
      "midi": 50,
      "hit": false,
      "t": 241413.7960000001,
      "d": 2499.8469999999797,
      "v": 92
    },
    {
      "midi": 66,
      "hit": false,
      "t": 241413.79600000044,
      "d": 2842.0879583333444,
      "v": 92
    },
    {
      "midi": 69,
      "hit": false,
      "t": 241413.79600000044,
      "d": 2842.0879583333444,
      "v": 92
    },
    {
      "midi": 57,
      "hit": false,
      "t": 241436.11606250008,
      "d": 1941.8454374999856,
      "v": 97
    },
    {
      "midi": 62,
      "hit": false,
      "t": 241458.43612500007,
      "d": 1383.8438749999914,
      "v": 95
    },
    {
      "midi": 66,
      "hit": false,
      "t": 241480.75618750005,
      "d": 2432.8868125000154,
      "v": 92
    },
    {
      "midi": 62,
      "hit": false,
      "t": 242842.28000000006,
      "d": 1428.4840000000258,
      "v": 94
    },
    {
      "midi": 57,
      "hit": false,
      "t": 243377.96150000006,
      "d": 892.8025000000198,
      "v": 94
    },
    {
      "midi": 48,
      "hit": false,
      "t": 244270.76400000008,
      "d": 2499.8469999999797,
      "v": 92
    },
    {
      "midi": 60,
      "hit": false,
      "t": 244270.76400000046,
      "d": 2842.0879583333444,
      "v": 93
    },
    {
      "midi": 64,
      "hit": false,
      "t": 244270.76400000046,
      "d": 2842.0879583333444,
      "v": 92
    },
    {
      "midi": 67,
      "hit": false,
      "t": 244270.76400000046,
      "d": 2842.0879583333444,
      "v": 93
    },
    {
      "midi": 55,
      "hit": false,
      "t": 244293.08406250007,
      "d": 2477.5269374999916,
      "v": 96
    },
    {
      "midi": 60,
      "hit": false,
      "t": 244315.40412500006,
      "d": 1919.5253749999974,
      "v": 96
    },
    {
      "midi": 64,
      "hit": false,
      "t": 244337.72418750005,
      "d": 2432.8868125000154,
      "v": 96
    },
    {
      "midi": 67,
      "hit": false,
      "t": 245699.24800000005,
      "d": 1428.4840000000258,
      "v": 92
    },
    {
      "midi": 60,
      "hit": false,
      "t": 246234.92950000006,
      "d": 892.8025000000198,
      "v": 95
    },
    {
      "midi": 62,
      "hit": false,
      "t": 246770.61100000006,
      "d": 357.12100000001374,
      "v": 96
    },
    {
      "midi": 55,
      "hit": false,
      "t": 247127.73200000008,
      "d": 2499.8469999999797,
      "v": 94
    },
    {
      "midi": 62,
      "hit": false,
      "t": 247127.73200000048,
      "d": 2842.0879583333444,
      "v": 94
    },
    {
      "midi": 67,
      "hit": false,
      "t": 247127.73200000048,
      "d": 2842.0879583333444,
      "v": 96
    },
    {
      "midi": 71,
      "hit": false,
      "t": 247127.73200000048,
      "d": 2842.0879583333444,
      "v": 95
    },
    {
      "midi": 59,
      "hit": false,
      "t": 247150.05206250006,
      "d": 2477.5269374999916,
      "v": 97
    },
    {
      "midi": 62,
      "hit": false,
      "t": 247172.37212500005,
      "d": 1919.5253749999974,
      "v": 97
    },
    {
      "midi": 67,
      "hit": false,
      "t": 247194.69218750004,
      "d": 1361.5238125000033,
      "v": 93
    },
    {
      "midi": 67,
      "hit": false,
      "t": 248556.21600000004,
      "d": 1428.4840000000258,
      "v": 96
    },
    {
      "midi": 62,
      "hit": false,
      "t": 249091.89750000005,
      "d": 892.8025000000198,
      "v": 96
    },
    {
      "midi": 50,
      "hit": false,
      "t": 249984.70000000007,
      "d": 2499.8469999999797,
      "v": 96
    },
    {
      "midi": 62,
      "hit": false,
      "t": 249984.7000000005,
      "d": 2842.0879583333444,
      "v": 91
    },
    {
      "midi": 66,
      "hit": false,
      "t": 249984.7000000005,
      "d": 2842.0879583333444,
      "v": 95
    },
    {
      "midi": 69,
      "hit": false,
      "t": 249984.7000000005,
      "d": 2842.0879583333444,
      "v": 91
    },
    {
      "midi": 57,
      "hit": false,
      "t": 250007.02006250006,
      "d": 1941.8454374999856,
      "v": 96
    },
    {
      "midi": 62,
      "hit": false,
      "t": 250029.34012500005,
      "d": 1383.8438749999914,
      "v": 97
    },
    {
      "midi": 66,
      "hit": false,
      "t": 250051.66018750003,
      "d": 2432.8868125000154,
      "v": 95
    },
    {
      "midi": 62,
      "hit": false,
      "t": 251413.18400000004,
      "d": 1428.4840000000258,
      "v": 94
    },
    {
      "midi": 57,
      "hit": false,
      "t": 251948.86550000004,
      "d": 892.8025000000198,
      "v": 93
    },
    {
      "midi": 50,
      "hit": false,
      "t": 252841.66800000006,
      "d": 2499.8469999999797,
      "v": 97
    },
    {
      "midi": 62,
      "hit": false,
      "t": 252841.66800000053,
      "d": 2842.0879583333444,
      "v": 95
    },
    {
      "midi": 66,
      "hit": false,
      "t": 252841.66800000053,
      "d": 2842.0879583333444,
      "v": 93
    },
    {
      "midi": 69,
      "hit": false,
      "t": 252841.66800000053,
      "d": 2842.0879583333444,
      "v": 94
    },
    {
      "midi": 57,
      "hit": false,
      "t": 252863.98806250005,
      "d": 1941.8454374999856,
      "v": 93
    },
    {
      "midi": 62,
      "hit": false,
      "t": 252886.30812500004,
      "d": 1383.8438749999914,
      "v": 94
    },
    {
      "midi": 66,
      "hit": false,
      "t": 252908.62818750003,
      "d": 2432.8868125000154,
      "v": 94
    },
    {
      "midi": 62,
      "hit": false,
      "t": 254270.15200000003,
      "d": 1428.4840000000258,
      "v": 96
    },
    {
      "midi": 57,
      "hit": false,
      "t": 254805.83350000004,
      "d": 892.8025000000198,
      "v": 93
    },
    {
      "midi": 48,
      "hit": false,
      "t": 255698.63600000006,
      "d": 2492.4069791666116,
      "v": 95
    },
    {
      "midi": 60,
      "hit": false,
      "t": 255698.63600000055,
      "d": 2842.0879583333444,
      "v": 96
    },
    {
      "midi": 64,
      "hit": false,
      "t": 255698.63600000055,
      "d": 2842.0879583333444,
      "v": 95
    },
    {
      "midi": 67,
      "hit": false,
      "t": 255698.63600000055,
      "d": 2842.0879583333444,
      "v": 95
    },
    {
      "midi": 55,
      "hit": false,
      "t": 255720.95606250004,
      "d": 2477.5269374999625,
      "v": 93
    },
    {
      "midi": 60,
      "hit": false,
      "t": 255743.27612500003,
      "d": 1919.5253749999683,
      "v": 93
    },
    {
      "midi": 64,
      "hit": false,
      "t": 255765.59618750002,
      "d": 1361.5238125000033,
      "v": 97
    },
    {
      "midi": 67,
      "hit": false,
      "t": 257149.4400625,
      "d": 1406.1639375000086,
      "v": 97
    },
    {
      "midi": 64,
      "hit": false,
      "t": 257171.760125,
      "d": 1383.8438750000205,
      "v": 96
    },
    {
      "midi": 60,
      "hit": false,
      "t": 257662.8015,
      "d": 892.8025000000198,
      "v": 92
    },
    {
      "midi": 62,
      "hit": false,
      "t": 258198.483,
      "d": 357.12100000001374,
      "v": 97
    },
    {
      "midi": 55,
      "hit": false,
      "t": 258555.60400000002,
      "d": 2499.8469999999797,
      "v": 92
    },
    {
      "midi": 62,
      "hit": false,
      "t": 258555.60400000057,
      "d": 2842.0879583333444,
      "v": 94
    },
    {
      "midi": 67,
      "hit": false,
      "t": 258555.60400000057,
      "d": 2842.0879583333444,
      "v": 96
    },
    {
      "midi": 71,
      "hit": false,
      "t": 258555.60400000057,
      "d": 2842.0879583333444,
      "v": 94
    },
    {
      "midi": 59,
      "hit": false,
      "t": 258577.9240625,
      "d": 2477.5269374999916,
      "v": 94
    },
    {
      "midi": 62,
      "hit": false,
      "t": 258600.244125,
      "d": 1919.5253749999974,
      "v": 95
    },
    {
      "midi": 67,
      "hit": false,
      "t": 258622.5641875,
      "d": 1361.5238125000033,
      "v": 95
    },
    {
      "midi": 67,
      "hit": false,
      "t": 259984.088,
      "d": 1428.4840000000258,
      "v": 95
    },
    {
      "midi": 62,
      "hit": false,
      "t": 260519.7695,
      "d": 892.8025000000198,
      "v": 94
    },
    {
      "midi": 50,
      "hit": false,
      "t": 261412.57200000001,
      "d": 2499.8469999999797,
      "v": 92
    },
    {
      "midi": 62,
      "hit": false,
      "t": 261412.5720000006,
      "d": 2842.0879583333444,
      "v": 94
    },
    {
      "midi": 66,
      "hit": false,
      "t": 261412.5720000006,
      "d": 2842.0879583333444,
      "v": 93
    },
    {
      "midi": 69,
      "hit": false,
      "t": 261412.5720000006,
      "d": 2842.0879583333444,
      "v": 92
    },
    {
      "midi": 57,
      "hit": false,
      "t": 261434.8920625,
      "d": 1941.8454374999856,
      "v": 93
    },
    {
      "midi": 62,
      "hit": false,
      "t": 261457.212125,
      "d": 1383.8438749999914,
      "v": 94
    },
    {
      "midi": 66,
      "hit": false,
      "t": 261479.53218749998,
      "d": 2425.4467916666763,
      "v": 93
    },
    {
      "midi": 62,
      "hit": false,
      "t": 262841.056,
      "d": 1428.4839999999967,
      "v": 92
    },
    {
      "midi": 57,
      "hit": false,
      "t": 263376.7375,
      "d": 892.8024999999907,
      "v": 97
    },
    {
      "midi": 50,
      "hit": false,
      "t": 264269.54,
      "d": 2499.847000000067,
      "v": 96
    },
    {
      "midi": 62,
      "hit": false,
      "t": 264269.5400000006,
      "d": 2842.0879583333153,
      "v": 94
    },
    {
      "midi": 66,
      "hit": false,
      "t": 264269.5400000006,
      "d": 2842.0879583333153,
      "v": 95
    },
    {
      "midi": 69,
      "hit": false,
      "t": 264269.5400000006,
      "d": 2842.0879583333153,
      "v": 93
    },
    {
      "midi": 57,
      "hit": false,
      "t": 264291.8600625,
      "d": 1941.8454375000438,
      "v": 96
    },
    {
      "midi": 62,
      "hit": false,
      "t": 264314.180125,
      "d": 1383.8438750000205,
      "v": 96
    },
    {
      "midi": 66,
      "hit": false,
      "t": 264336.50018750003,
      "d": 2432.8868125000154,
      "v": 96
    },
    {
      "midi": 62,
      "hit": false,
      "t": 265698.02400000003,
      "d": 1428.4839999999967,
      "v": 92
    },
    {
      "midi": 57,
      "hit": false,
      "t": 266233.70550000004,
      "d": 502.2014062500093,
      "v": 93
    },
    {
      "midi": 48,
      "hit": false,
      "t": 267126.50800000003,
      "d": 2499.847000000067,
      "v": 96
    },
    {
      "midi": 60,
      "hit": false,
      "t": 267126.5080000006,
      "d": 2842.0879583333153,
      "v": 93
    },
    {
      "midi": 64,
      "hit": false,
      "t": 267126.5080000006,
      "d": 2842.0879583333153,
      "v": 93
    },
    {
      "midi": 67,
      "hit": false,
      "t": 267126.5080000006,
      "d": 2842.0879583333153,
      "v": 93
    },
    {
      "midi": 55,
      "hit": false,
      "t": 267148.82806250005,
      "d": 2477.52693750005,
      "v": 97
    },
    {
      "midi": 60,
      "hit": false,
      "t": 267171.14812500007,
      "d": 1919.5253750000265,
      "v": 92
    },
    {
      "midi": 64,
      "hit": false,
      "t": 267193.4681875001,
      "d": 1361.5238125000033,
      "v": 95
    },
    {
      "midi": 67,
      "hit": false,
      "t": 268577.3120625001,
      "d": 1406.1639374999795,
      "v": 92
    },
    {
      "midi": 64,
      "hit": false,
      "t": 268599.6321250001,
      "d": 1026.7228749999776,
      "v": 94
    },
    {
      "midi": 60,
      "hit": false,
      "t": 269090.6735000001,
      "d": 892.8024999999907,
      "v": 96
    },
    {
      "midi": 62,
      "hit": false,
      "t": 269626.3550000001,
      "d": 357.12099999998463,
      "v": 97
    },
    {
      "midi": 43,
      "hit": false,
      "t": 269983.4760000006,
      "d": 4538.412708333344,
      "v": 94
    },
    {
      "midi": 55,
      "hit": false,
      "t": 269983.4760000006,
      "d": 4627.692958333355,
      "v": 93
    },
    {
      "midi": 31,
      "hit": false,
      "t": 270162.0365000006,
      "d": 4359.852208333323,
      "v": 94
    },
    {
      "midi": 57,
      "hit": false,
      "t": 270251.31675000064,
      "d": 4359.852208333323,
      "v": 94
    },
    {
      "midi": 59,
      "hit": false,
      "t": 270608.4377500006,
      "d": 4002.731208333338,
      "v": 95
    },
    {
      "midi": 62,
      "hit": false,
      "t": 270965.5587500006,
      "d": 3645.6102083333535,
      "v": 94
    }
  ]
}