{
  "jsonPath": "Classical/Classical/Camille Saint-Saens/le-cygne-the-swan.json",
  "path": "Classical\\Classical\\Camille Saint-Saens\\Le Cygne (The Swan).mid",
  "name": "Le Cygne (The Swan)",
  "difficulty": "Advanced",
  "bpm": 75,
  "notes": [
    {
      "midi": 79,
      "hit": false,
      "t": 0,
      "d": 800,
      "v": 70
    },
    {
      "midi": 43,
      "hit": false,
      "t": 0,
      "d": 400,
      "v": 40
    },
    {
      "midi": 50,
      "hit": false,
      "t": 400,
      "d": 400,
      "v": 40
    },
    {
      "midi": 78,
      "hit": false,
      "t": 800,
      "d": 800,
      "v": 70
    },
    {
      "midi": 59,
      "hit": false,
      "t": 800,
      "d": 400,
      "v": 40
    },
    {
      "midi": 55,
      "hit": false,
      "t": 1200,
      "d": 400,
      "v": 40
    },
    {
      "midi": 71,
      "hit": false,
      "t": 1600,
      "d": 800,
      "v": 70
    },
    {
      "midi": 50,
      "hit": false,
      "t": 1600,
      "d": 400,
      "v": 40
    },
    {
      "midi": 55,
      "hit": false,
      "t": 2000,
      "d": 400,
      "v": 40
    },
    {
      "midi": 76,
      "hit": false,
      "t": 2400,
      "d": 800,
      "v": 70
    },
    {
      "midi": 43,
      "hit": false,
      "t": 2400,
      "d": 400,
      "v": 40
    },
    {
      "midi": 50,
      "hit": false,
      "t": 2800,
      "d": 400,
      "v": 40
    },
    {
      "midi": 74,
      "hit": false,
      "t": 3200,
      "d": 800,
      "v": 70
    },
    {
      "midi": 59,
      "hit": false,
      "t": 3200,
      "d": 400,
      "v": 40
    },
    {
      "midi": 55,
      "hit": false,
      "t": 3600,
      "d": 400,
      "v": 40
    },
    {
      "midi": 67,
      "hit": false,
      "t": 4000,
      "d": 800,
      "v": 70
    },
    {
      "midi": 50,
      "hit": false,
      "t": 4000,
      "d": 400,
      "v": 40
    },
    {
      "midi": 55,
      "hit": false,
      "t": 4400,
      "d": 400,
      "v": 40
    },
    {
      "midi": 69,
      "hit": false,
      "t": 4800,
      "d": 1600,
      "v": 70
    },
    {
      "midi": 43,
      "hit": false,
      "t": 4800,
      "d": 400,
      "v": 40
    },
    {
      "midi": 52,
      "hit": false,
      "t": 5200,
      "d": 400,
      "v": 40
    },
    {
      "midi": 60,
      "hit": false,
      "t": 5600,
      "d": 400,
      "v": 40
    },
    {
      "midi": 57,
      "hit": false,
      "t": 6000,
      "d": 400,
      "v": 40
    },
    {
      "midi": 52,
      "hit": false,
      "t": 6400,
      "d": 400,
      "v": 40
    },
    {
      "midi": 71,
      "hit": false,
      "t": 6800,
      "d": 400,
      "v": 70
    },
    {
      "midi": 57,
      "hit": false,
      "t": 6800,
      "d": 400,
      "v": 40
    },
    {
      "midi": 72,
      "hit": false,
      "t": 7200,
      "d": 2400,
      "v": 70
    },
    {
      "midi": 45,
      "hit": false,
      "t": 7200,
      "d": 400,
      "v": 40
    },
    {
      "midi": 52,
      "hit": false,
      "t": 7600,
      "d": 400,
      "v": 40
    },
    {
      "midi": 60,
      "hit": false,
      "t": 8000,
      "d": 400,
      "v": 40
    },
    {
      "midi": 57,
      "hit": false,
      "t": 8400,
      "d": 400,
      "v": 40
    },
    {
      "midi": 52,
      "hit": false,
      "t": 8800,
      "d": 400,
      "v": 40
    },
    {
      "midi": 57,
      "hit": false,
      "t": 9200,
      "d": 400,
      "v": 40
    },
    {
      "midi": 64,
      "hit": false,
      "t": 9600,
      "d": 1600,
      "v": 70
    },
    {
      "midi": 45,
      "hit": false,
      "t": 9600,
      "d": 400,
      "v": 40
    },
    {
      "midi": 52,
      "hit": false,
      "t": 10000,
      "d": 400,
      "v": 40
    },
    {
      "midi": 60,
      "hit": false,
      "t": 10400,
      "d": 400,
      "v": 40
    },
    {
      "midi": 57,
      "hit": false,
      "t": 10800,
      "d": 400,
      "v": 40
    },
    {
      "midi": 66,
      "hit": false,
      "t": 11200,
      "d": 400,
      "v": 70
    },
    {
      "midi": 52,
      "hit": false,
      "t": 11200,
      "d": 400,
      "v": 40
    },
    {
      "midi": 67,
      "hit": false,
      "t": 11600,
      "d": 400,
      "v": 70
    },
    {
      "midi": 57,
      "hit": false,
      "t": 11600,
      "d": 400,
      "v": 40
    },
    {
      "midi": 69,
      "hit": false,
      "t": 12000,
      "d": 400,
      "v": 70
    },
    {
      "midi": 50,
      "hit": false,
      "t": 12000,
      "d": 400,
      "v": 40
    },
    {
      "midi": 71,
      "hit": false,
      "t": 12400,
      "d": 400,
      "v": 70
    },
    {
      "midi": 57,
      "hit": false,
      "t": 12400,
      "d": 400,
      "v": 40
    },
    {
      "midi": 72,
      "hit": false,
      "t": 12800,
      "d": 400,
      "v": 70
    },
    {
      "midi": 60,
      "hit": false,
      "t": 12800,
      "d": 400,
      "v": 40
    },
    {
      "midi": 74,
      "hit": false,
      "t": 13200,
      "d": 400,
      "v": 70
    },
    {
      "midi": 57,
      "hit": false,
      "t": 13200,
      "d": 400,
      "v": 40
    },
    {
      "midi": 76,
      "hit": false,
      "t": 13600,
      "d": 400,
      "v": 70
    },
    {
      "midi": 54,
      "hit": false,
      "t": 13600,
      "d": 400,
      "v": 40
    },
    {
      "midi": 78,
      "hit": false,
      "t": 14000,
      "d": 400,
      "v": 70
    },
    {
      "midi": 60,
      "hit": false,
      "t": 14000,
      "d": 400,
      "v": 40
    },
    {
      "midi": 83,
      "hit": false,
      "t": 14400,
      "d": 4800,
      "v": 70
    },
    {
      "midi": 43,
      "hit": false,
      "t": 14400,
      "d": 400,
      "v": 40
    },
    {
      "midi": 50,
      "hit": false,
      "t": 14800,
      "d": 400,
      "v": 40
    },
    {
      "midi": 59,
      "hit": false,
      "t": 15200,
      "d": 400,
      "v": 40
    },
    {
      "midi": 55,
      "hit": false,
      "t": 15600,
      "d": 400,
      "v": 40
    },
    {
      "midi": 50,
      "hit": false,
      "t": 16000,
      "d": 400,
      "v": 40
    },
    {
      "midi": 55,
      "hit": false,
      "t": 16400,
      "d": 400,
      "v": 40
    },
    {
      "midi": 43,
      "hit": false,
      "t": 16800,
      "d": 400,
      "v": 40
    },
    {
      "midi": 50,
      "hit": false,
      "t": 17200,
      "d": 400,
      "v": 40
    },
    {
      "midi": 59,
      "hit": false,
      "t": 17600,
      "d": 400,
      "v": 40
    },
    {
      "midi": 55,
      "hit": false,
      "t": 18000,
      "d": 400,
      "v": 40
    },
    {
      "midi": 50,
      "hit": false,
      "t": 18400,
      "d": 400,
      "v": 40
    },
    {
      "midi": 55,
      "hit": false,
      "t": 18800,
      "d": 400,
      "v": 40
    },
    {
      "midi": 79,
      "hit": false,
      "t": 19200,
      "d": 800,
      "v": 70
    },
    {
      "midi": 43,
      "hit": false,
      "t": 19200,
      "d": 400,
      "v": 40
    },
    {
      "midi": 50,
      "hit": false,
      "t": 19600,
      "d": 400,
      "v": 40
    },
    {
      "midi": 78,
      "hit": false,
      "t": 20000,
      "d": 800,
      "v": 70
    },
    {
      "midi": 59,
      "hit": false,
      "t": 20000,
      "d": 400,
      "v": 40
    },
    {
      "midi": 55,
      "hit": false,
      "t": 20400,
      "d": 400,
      "v": 40
    },
    {
      "midi": 71,
      "hit": false,
      "t": 20800,
      "d": 800,
      "v": 70
    },
    {
      "midi": 50,
      "hit": false,
      "t": 20800,
      "d": 400,
      "v": 40
    },
    {
      "midi": 55,
      "hit": false,
      "t": 21200,
      "d": 400,
      "v": 40
    },
    {
      "midi": 76,
      "hit": false,
      "t": 21600,
      "d": 800,
      "v": 70
    },
    {
      "midi": 43,
      "hit": false,
      "t": 21600,
      "d": 400,
      "v": 40
    },
    {
      "midi": 50,
      "hit": false,
      "t": 22000,
      "d": 400,
      "v": 40
    },
    {
      "midi": 74,
      "hit": false,
      "t": 22400,
      "d": 800,
      "v": 70
    },
    {
      "midi": 59,
      "hit": false,
      "t": 22400,
      "d": 400,
      "v": 40
    },
    {
      "midi": 55,
      "hit": false,
      "t": 22800,
      "d": 400,
      "v": 40
    },
    {
      "midi": 67,
      "hit": false,
      "t": 23200,
      "d": 800,
      "v": 70
    },
    {
      "midi": 50,
      "hit": false,
      "t": 23200,
      "d": 400,
      "v": 40
    },
    {
      "midi": 55,
      "hit": false,
      "t": 23600,
      "d": 400,
      "v": 40
    },
    {
      "midi": 70,
      "hit": false,
      "t": 24000,
      "d": 1600,
      "v": 70
    },
    {
      "midi": 42,
      "hit": false,
      "t": 24000,
      "d": 400,
      "v": 40
    },
    {
      "midi": 49,
      "hit": false,
      "t": 24400,
      "d": 400,
      "v": 40
    },
    {
      "midi": 58,
      "hit": false,
      "t": 24800,
      "d": 400,
      "v": 40
    },
    {
      "midi": 52,
      "hit": false,
      "t": 25200,
      "d": 400,
      "v": 40
    },
    {
      "midi": 49,
      "hit": false,
      "t": 25600,
      "d": 400,
      "v": 40
    },
    {
      "midi": 71,
      "hit": false,
      "t": 26000,
      "d": 400,
      "v": 70
    },
    {
      "midi": 52,
      "hit": false,
      "t": 26000,
      "d": 400,
      "v": 40
    },
    {
      "midi": 73,
      "hit": false,
      "t": 26400,
      "d": 2400,
      "v": 70
    },
    {
      "midi": 42,
      "hit": false,
      "t": 26400,
      "d": 400,
      "v": 40
    },
    {
      "midi": 49,
      "hit": false,
      "t": 26800,
      "d": 400,
      "v": 40
    },
    {
      "midi": 58,
      "hit": false,
      "t": 27200,
      "d": 400,
      "v": 40
    },
    {
      "midi": 52,
      "hit": false,
      "t": 27600,
      "d": 400,
      "v": 40
    },
    {
      "midi": 49,
      "hit": false,
      "t": 28000,
      "d": 400,
      "v": 40
    },
    {
      "midi": 52,
      "hit": false,
      "t": 28400,
      "d": 400,
      "v": 40
    },
    {
      "midi": 66,
      "hit": false,
      "t": 28800,
      "d": 1200,
      "v": 70
    },
    {
      "midi": 47,
      "hit": false,
      "t": 28800,
      "d": 400,
      "v": 40
    },
    {
      "midi": 54,
      "hit": false,
      "t": 29200,
      "d": 400,
      "v": 40
    },
    {
      "midi": 62,
      "hit": false,
      "t": 29600,
      "d": 400,
      "v": 40
    },
    {
      "midi": 68,
      "hit": false,
      "t": 30000,
      "d": 400,
      "v": 70
    },
    {
      "midi": 59,
      "hit": false,
      "t": 30000,
      "d": 400,
      "v": 40
    },
    {
      "midi": 70,
      "hit": false,
      "t": 30400,
      "d": 400,
      "v": 70
    },
    {
      "midi": 54,
      "hit": false,
      "t": 30400,
      "d": 400,
      "v": 40
    },
    {
      "midi": 71,
      "hit": false,
      "t": 30800,
      "d": 400,
      "v": 70
    },
    {
      "midi": 59,
      "hit": false,
      "t": 30800,
      "d": 400,
      "v": 40
    },
    {
      "midi": 73,
      "hit": false,
      "t": 31200,
      "d": 400,
      "v": 70
    },
    {
      "midi": 42,
      "hit": false,
      "t": 31200,
      "d": 400,
      "v": 40
    },
    {
      "midi": 74,
      "hit": false,
      "t": 31600,
      "d": 400,
      "v": 70
    },
    {
      "midi": 49,
      "hit": false,
      "t": 31600,
      "d": 400,
      "v": 40
    },
    {
      "midi": 76,
      "hit": false,
      "t": 32000,
      "d": 400,
      "v": 70
    },
    {
      "midi": 58,
      "hit": false,
      "t": 32000,
      "d": 400,
      "v": 40
    },
    {
      "midi": 78,
      "hit": false,
      "t": 32400,
      "d": 400,
      "v": 70
    },
    {
      "midi": 52,
      "hit": false,
      "t": 32400,
      "d": 400,
      "v": 40
    },
    {
      "midi": 80,
      "hit": false,
      "t": 32800,
      "d": 400,
      "v": 70
    },
    {
      "midi": 49,
      "hit": false,
      "t": 32800,
      "d": 400,
      "v": 40
    },
    {
      "midi": 82,
      "hit": false,
      "t": 33200,
      "d": 400,
      "v": 70
    },
    {
      "midi": 52,
      "hit": false,
      "t": 33200,
      "d": 400,
      "v": 40
    },
    {
      "midi": 86,
      "hit": false,
      "t": 33600,
      "d": 4800,
      "v": 70
    },
    {
      "midi": 47,
      "hit": false,
      "t": 33600,
      "d": 400,
      "v": 40
    },
    {
      "midi": 54,
      "hit": false,
      "t": 34000,
      "d": 400,
      "v": 40
    },
    {
      "midi": 62,
      "hit": false,
      "t": 34400,
      "d": 400,
      "v": 40
    },
    {
      "midi": 59,
      "hit": false,
      "t": 34800,
      "d": 400,
      "v": 40
    },
    {
      "midi": 54,
      "hit": false,
      "t": 35200,
      "d": 400,
      "v": 40
    },
    {
      "midi": 59,
      "hit": false,
      "t": 35600,
      "d": 400,
      "v": 40
    },
    {
      "midi": 47,
      "hit": false,
      "t": 36000,
      "d": 400,
      "v": 40
    },
    {
      "midi": 54,
      "hit": false,
      "t": 36400,
      "d": 400,
      "v": 40
    },
    {
      "midi": 62,
      "hit": false,
      "t": 36800,
      "d": 400,
      "v": 40
    },
    {
      "midi": 59,
      "hit": false,
      "t": 37200,
      "d": 400,
      "v": 40
    },
    {
      "midi": 54,
      "hit": false,
      "t": 37600,
      "d": 400,
      "v": 40
    },
    {
      "midi": 59,
      "hit": false,
      "t": 38000,
      "d": 400,
      "v": 40
    },
    {
      "midi": 86,
      "hit": false,
      "t": 38400,
      "d": 800,
      "v": 70
    },
    {
      "midi": 43,
      "hit": false,
      "t": 38400,
      "d": 400,
      "v": 40
    },
    {
      "midi": 50,
      "hit": false,
      "t": 38800,
      "d": 400,
      "v": 40
    },
    {
      "midi": 83,
      "hit": false,
      "t": 39200,
      "d": 800,
      "v": 70
    },
    {
      "midi": 59,
      "hit": false,
      "t": 39200,
      "d": 400,
      "v": 40
    },
    {
      "midi": 55,
      "hit": false,
      "t": 39600,
      "d": 400,
      "v": 40
    },
    {
      "midi": 79,
      "hit": false,
      "t": 40000,
      "d": 800,
      "v": 70
    },
    {
      "midi": 50,
      "hit": false,
      "t": 40000,
      "d": 400,
      "v": 40
    },
    {
      "midi": 55,
      "hit": false,
      "t": 40400,
      "d": 400,
      "v": 40
    },
    {
      "midi": 76,
      "hit": false,
      "t": 40800,
      "d": 800,
      "v": 70
    },
    {
      "midi": 43,
      "hit": false,
      "t": 40800,
      "d": 400,
      "v": 40
    },
    {
      "midi": 49,
      "hit": false,
      "t": 41200,
      "d": 400,
      "v": 40
    },
    {
      "midi": 78,
      "hit": false,
      "t": 41600,
      "d": 800,
      "v": 70
    },
    {
      "midi": 58,
      "hit": false,
      "t": 41600,
      "d": 400,
      "v": 40
    },
    {
      "midi": 55,
      "hit": false,
      "t": 42000,
      "d": 400,
      "v": 40
    },
    {
      "midi": 79,
      "hit": false,
      "t": 42400,
      "d": 800,
      "v": 70
    },
    {
      "midi": 49,
      "hit": false,
      "t": 42400,
      "d": 400,
      "v": 40
    },
    {
      "midi": 55,
      "hit": false,
      "t": 42800,
      "d": 400,
      "v": 40
    },
    {
      "midi": 74,
      "hit": false,
      "t": 43200,
      "d": 1600,
      "v": 70
    },
    {
      "midi": 45,
      "hit": false,
      "t": 43200,
      "d": 400,
      "v": 40
    },
    {
      "midi": 52,
      "hit": false,
      "t": 43600,
      "d": 400,
      "v": 40
    },
    {
      "midi": 60,
      "hit": false,
      "t": 44000,
      "d": 400,
      "v": 40
    },
    {
      "midi": 57,
      "hit": false,
      "t": 44400,
      "d": 400,
      "v": 40
    },
    {
      "midi": 52,
      "hit": false,
      "t": 44800,
      "d": 400,
      "v": 40
    },
    {
      "midi": 76,
      "hit": false,
      "t": 45200,
      "d": 400,
      "v": 70
    },
    {
      "midi": 57,
      "hit": false,
      "t": 45200,
      "d": 400,
      "v": 40
    },
    {
      "midi": 78,
      "hit": false,
      "t": 45600,
      "d": 2400,
      "v": 70
    },
    {
      "midi": 50,
      "hit": false,
      "t": 45600,
      "d": 400,
      "v": 40
    },
    {
      "midi": 57,
      "hit": false,
      "t": 46000,
      "d": 400,
      "v": 40
    },
    {
      "midi": 60,
      "hit": false,
      "t": 46400,
      "d": 400,
      "v": 40
    },
    {
      "midi": 57,
      "hit": false,
      "t": 46800,
      "d": 400,
      "v": 40
    },
    {
      "midi": 54,
      "hit": false,
      "t": 47200,
      "d": 400,
      "v": 40
    },
    {
      "midi": 57,
      "hit": false,
      "t": 47600,
      "d": 400,
      "v": 40
    },
    {
      "midi": 84,
      "hit": false,
      "t": 48000,
      "d": 800,
      "v": 70
    },
    {
      "midi": 41,
      "hit": false,
      "t": 48000,
      "d": 400,
      "v": 40
    },
    {
      "midi": 48,
      "hit": false,
      "t": 48400,
      "d": 400,
      "v": 40
    },
    {
      "midi": 81,
      "hit": false,
      "t": 48800,
      "d": 800,
      "v": 70
    },
    {
      "midi": 57,
      "hit": false,
      "t": 48800,
      "d": 400,
      "v": 40
    },
    {
      "midi": 53,
      "hit": false,
      "t": 49200,
      "d": 400,
      "v": 40
    },
    {
      "midi": 77,
      "hit": false,
      "t": 49600,
      "d": 800,
      "v": 70
    },
    {
      "midi": 48,
      "hit": false,
      "t": 49600,
      "d": 400,
      "v": 40
    },
    {
      "midi": 53,
      "hit": false,
      "t": 50000,
      "d": 400,
      "v": 40
    },
    {
      "midi": 74,
      "hit": false,
      "t": 50400,
      "d": 800,
      "v": 70
    },
    {
      "midi": 41,
      "hit": false,
      "t": 50400,
      "d": 400,
      "v": 40
    },
    {
      "midi": 50,
      "hit": false,
      "t": 50800,
      "d": 400,
      "v": 40
    },
    {
      "midi": 76,
      "hit": false,
      "t": 51200,
      "d": 800,
      "v": 70
    },
    {
      "midi": 59,
      "hit": false,
      "t": 51200,
      "d": 400,
      "v": 40
    },
    {
      "midi": 56,
      "hit": false,
      "t": 51600,
      "d": 400,
      "v": 40
    },
    {
      "midi": 77,
      "hit": false,
      "t": 52000,
      "d": 800,
      "v": 70
    },
    {
      "midi": 50,
      "hit": false,
      "t": 52000,
      "d": 400,
      "v": 40
    },
    {
      "midi": 56,
      "hit": false,
      "t": 52400,
      "d": 400,
      "v": 40
    },
    {
      "midi": 72,
      "hit": false,
      "t": 52800,
      "d": 1600,
      "v": 70
    },
    {
      "midi": 43,
      "hit": false,
      "t": 52800,
      "d": 400,
      "v": 40
    },
    {
      "midi": 50,
      "hit": false,
      "t": 53200,
      "d": 400,
      "v": 40
    },
    {
      "midi": 58,
      "hit": false,
      "t": 53600,
      "d": 400,
      "v": 40
    },
    {
      "midi": 55,
      "hit": false,
      "t": 54000,
      "d": 400,
      "v": 40
    },
    {
      "midi": 50,
      "hit": false,
      "t": 54400,
      "d": 400,
      "v": 40
    },
    {
      "midi": 74,
      "hit": false,
      "t": 54800,
      "d": 400,
      "v": 70
    },
    {
      "midi": 53,
      "hit": false,
      "t": 54800,
      "d": 400,
      "v": 40
    },
    {
      "midi": 76,
      "hit": false,
      "t": 55200,
      "d": 2400,
      "v": 70
    },
    {
      "midi": 48,
      "hit": false,
      "t": 55200,
      "d": 400,
      "v": 40
    },
    {
      "midi": 55,
      "hit": false,
      "t": 55600,
      "d": 400,
      "v": 40
    },
    {
      "midi": 58,
      "hit": false,
      "t": 56000,
      "d": 400,
      "v": 40
    },
    {
      "midi": 55,
      "hit": false,
      "t": 56400,
      "d": 400,
      "v": 40
    },
    {
      "midi": 52,
      "hit": false,
      "t": 56800,
      "d": 400,
      "v": 40
    },
    {
      "midi": 55,
      "hit": false,
      "t": 57200,
      "d": 400,
      "v": 40
    },
    {
      "midi": 76,
      "hit": false,
      "t": 57600,
      "d": 800,
      "v": 70
    },
    {
      "midi": 41,
      "hit": false,
      "t": 57600,
      "d": 400,
      "v": 40
    },
    {
      "midi": 48,
      "hit": false,
      "t": 58000,
      "d": 400,
      "v": 40
    },
    {
      "midi": 69,
      "hit": false,
      "t": 58400,
      "d": 800,
      "v": 70
    },
    {
      "midi": 57,
      "hit": false,
      "t": 58400,
      "d": 400,
      "v": 40
    },
    {
      "midi": 53,
      "hit": false,
      "t": 58800,
      "d": 400,
      "v": 40
    },
    {
      "midi": 71,
      "hit": false,
      "t": 59200,
      "d": 800,
      "v": 70
    },
    {
      "midi": 48,
      "hit": false,
      "t": 59200,
      "d": 400,
      "v": 40
    },
    {
      "midi": 53,
      "hit": false,
      "t": 59600,
      "d": 400,
      "v": 40
    },
    {
      "midi": 72,
      "hit": false,
      "t": 60000,
      "d": 1600,
      "v": 70
    },
    {
      "midi": 45,
      "hit": false,
      "t": 60000,
      "d": 400,
      "v": 40
    },
    {
      "midi": 52,
      "hit": false,
      "t": 60400,
      "d": 400,
      "v": 40
    },
    {
      "midi": 60,
      "hit": false,
      "t": 60800,
      "d": 400,
      "v": 40
    },
    {
      "midi": 57,
      "hit": false,
      "t": 61200,
      "d": 400,
      "v": 40
    },
    {
      "midi": 74,
      "hit": false,
      "t": 61600,
      "d": 400,
      "v": 70
    },
    {
      "midi": 52,
      "hit": false,
      "t": 61600,
      "d": 400,
      "v": 40
    },
    {
      "midi": 76,
      "hit": false,
      "t": 62000,
      "d": 400,
      "v": 70
    },
    {
      "midi": 57,
      "hit": false,
      "t": 62000,
      "d": 400,
      "v": 40
    },
    {
      "midi": 78,
      "hit": false,
      "t": 62400,
      "d": 2400,
      "v": 70
    },
    {
      "midi": 50,
      "hit": false,
      "t": 62400,
      "d": 400,
      "v": 40
    },
    {
      "midi": 57,
      "hit": false,
      "t": 62800,
      "d": 400,
      "v": 40
    },
    {
      "midi": 62,
      "hit": false,
      "t": 63200,
      "d": 400,
      "v": 40
    },
    {
      "midi": 57,
      "hit": false,
      "t": 63600,
      "d": 400,
      "v": 40
    },
    {
      "midi": 54,
      "hit": false,
      "t": 64000,
      "d": 400,
      "v": 40
    },
    {
      "midi": 57,
      "hit": false,
      "t": 64400,
      "d": 400,
      "v": 40
    },
    {
      "midi": 76,
      "hit": false,
      "t": 64800,
      "d": 2400,
      "v": 70
    },
    {
      "midi": 45,
      "hit": false,
      "t": 64800,
      "d": 400,
      "v": 40
    },
    {
      "midi": 52,
      "hit": false,
      "t": 65200,
      "d": 400,
      "v": 40
    },
    {
      "midi": 60,
      "hit": false,
      "t": 65600,
      "d": 400,
      "v": 40
    },
    {
      "midi": 57,
      "hit": false,
      "t": 66000,
      "d": 400,
      "v": 40
    },
    {
      "midi": 52,
      "hit": false,
      "t": 66400,
      "d": 400,
      "v": 40
    },
    {
      "midi": 57,
      "hit": false,
      "t": 66800,
      "d": 400,
      "v": 40
    },
    {
      "midi": 76,
      "hit": false,
      "t": 67200,
      "d": 800,
      "v": 70
    },
    {
      "midi": 50,
      "hit": false,
      "t": 67200,
      "d": 400,
      "v": 40
    },
    {
      "midi": 57,
      "hit": false,
      "t": 67600,
      "d": 400,
      "v": 40
    },
    {
      "midi": 69,
      "hit": false,
      "t": 68000,
      "d": 800,
      "v": 70
    },
    {
      "midi": 62,
      "hit": false,
      "t": 68000,
      "d": 400,
      "v": 40
    },
    {
      "midi": 57,
      "hit": false,
      "t": 68400,
      "d": 400,
      "v": 40
    },
    {
      "midi": 71,
      "hit": false,
      "t": 68800,
      "d": 800,
      "v": 70
    },
    {
      "midi": 53,
      "hit": false,
      "t": 68800,
      "d": 400,
      "v": 40
    },
    {
      "midi": 57,
      "hit": false,
      "t": 69200,
      "d": 400,
      "v": 40
    },
    {
      "midi": 73,
      "hit": false,
      "t": 69600,
      "d": 1600,
      "v": 70
    },
    {
      "midi": 45,
      "hit": false,
      "t": 69600,
      "d": 400,
      "v": 40
    },
    {
      "midi": 52,
      "hit": false,
      "t": 70000,
      "d": 400,
      "v": 40
    },
    {
      "midi": 61,
      "hit": false,
      "t": 70400,
      "d": 400,
      "v": 40
    },
    {
      "midi": 57,
      "hit": false,
      "t": 70800,
      "d": 400,
      "v": 40
    },
    {
      "midi": 74,
      "hit": false,
      "t": 71200,
      "d": 400,
      "v": 70
    },
    {
      "midi": 52,
      "hit": false,
      "t": 71200,
      "d": 400,
      "v": 40
    },
    {
      "midi": 76,
      "hit": false,
      "t": 71600,
      "d": 400,
      "v": 70
    },
    {
      "midi": 57,
      "hit": false,
      "t": 71600,
      "d": 400,
      "v": 40
    },
    {
      "midi": 77,
      "hit": false,
      "t": 72000,
      "d": 2400,
      "v": 70
    },
    {
      "midi": 50,
      "hit": false,
      "t": 72000,
      "d": 400,
      "v": 40
    },
    {
      "midi": 57,
      "hit": false,
      "t": 72400,
      "d": 400,
      "v": 40
    },
    {
      "midi": 62,
      "hit": false,
      "t": 72800,
      "d": 400,
      "v": 40
    },
    {
      "midi": 57,
      "hit": false,
      "t": 73200,
      "d": 400,
      "v": 40
    },
    {
      "midi": 53,
      "hit": false,
      "t": 73600,
      "d": 400,
      "v": 40
    },
    {
      "midi": 57,
      "hit": false,
      "t": 74000,
      "d": 400,
      "v": 40
    },
    {
      "midi": 78,
      "hit": false,
      "t": 74400,
      "d": 2400,
      "v": 70
    },
    {
      "midi": 50,
      "hit": false,
      "t": 74400,
      "d": 400,
      "v": 40
    },
    {
      "midi": 57,
      "hit": false,
      "t": 74800,
      "d": 400,
      "v": 40
    },
    {
      "midi": 60,
      "hit": false,
      "t": 75200,
      "d": 400,
      "v": 40
    },
    {
      "midi": 57,
      "hit": false,
      "t": 75600,
      "d": 400,
      "v": 40
    },
    {
      "midi": 54,
      "hit": false,
      "t": 76000,
      "d": 400,
      "v": 40
    },
    {
      "midi": 57,
      "hit": false,
      "t": 76400,
      "d": 400,
      "v": 40
    },
    {
      "midi": 79,
      "hit": false,
      "t": 76800,
      "d": 800,
      "v": 70
    },
    {
      "midi": 43,
      "hit": false,
      "t": 76800,
      "d": 400,
      "v": 40
    },
    {
      "midi": 50,
      "hit": false,
      "t": 77200,
      "d": 400,
      "v": 40
    },
    {
      "midi": 78,
      "hit": false,
      "t": 77600,
      "d": 800,
      "v": 70
    },
    {
      "midi": 59,
      "hit": false,
      "t": 77600,
      "d": 400,
      "v": 40
    },
    {
      "midi": 55,
      "hit": false,
      "t": 78000,
      "d": 400,
      "v": 40
    },
    {
      "midi": 71,
      "hit": false,
      "t": 78400,
      "d": 800,
      "v": 70
    },
    {
      "midi": 50,
      "hit": false,
      "t": 78400,
      "d": 400,
      "v": 40
    },
    {
      "midi": 55,
      "hit": false,
      "t": 78800,
      "d": 400,
      "v": 40
    },
    {
      "midi": 76,
      "hit": false,
      "t": 79200,
      "d": 800,
      "v": 70
    },
    {
      "midi": 43,
      "hit": false,
      "t": 79200,
      "d": 400,
      "v": 40
    },
    {
      "midi": 50,
      "hit": false,
      "t": 79600,
      "d": 400,
      "v": 40
    },
    {
      "midi": 74,
      "hit": false,
      "t": 80000,
      "d": 800,
      "v": 70
    },
    {
      "midi": 59,
      "hit": false,
      "t": 80000,
      "d": 400,
      "v": 40
    },
    {
      "midi": 55,
      "hit": false,
      "t": 80400,
      "d": 400,
      "v": 40
    },
    {
      "midi": 67,
      "hit": false,
      "t": 80800,
      "d": 800,
      "v": 70
    },
    {
      "midi": 50,
      "hit": false,
      "t": 80800,
      "d": 400,
      "v": 40
    },
    {
      "midi": 55,
      "hit": false,
      "t": 81200,
      "d": 400,
      "v": 40
    },
    {
      "midi": 69,
      "hit": false,
      "t": 81600,
      "d": 1600,
      "v": 70
    },
    {
      "midi": 43,
      "hit": false,
      "t": 81600,
      "d": 400,
      "v": 40
    },
    {
      "midi": 52,
      "hit": false,
      "t": 82000,
      "d": 400,
      "v": 40
    },
    {
      "midi": 60,
      "hit": false,
      "t": 82400,
      "d": 400,
      "v": 40
    },
    {
      "midi": 57,
      "hit": false,
      "t": 82800,
      "d": 400,
      "v": 40
    },
    {
      "midi": 52,
      "hit": false,
      "t": 83200,
      "d": 400,
      "v": 40
    },
    {
      "midi": 71,
      "hit": false,
      "t": 83600,
      "d": 400,
      "v": 70
    },
    {
      "midi": 57,
      "hit": false,
      "t": 83600,
      "d": 400,
      "v": 40
    },
    {
      "midi": 72,
      "hit": false,
      "t": 84000,
      "d": 2400,
      "v": 70
    },
    {
      "midi": 45,
      "hit": false,
      "t": 84000,
      "d": 400,
      "v": 40
    },
    {
      "midi": 52,
      "hit": false,
      "t": 84400,
      "d": 400,
      "v": 40
    },
    {
      "midi": 60,
      "hit": false,
      "t": 84800,
      "d": 400,
      "v": 40
    },
    {
      "midi": 57,
      "hit": false,
      "t": 85200,
      "d": 400,
      "v": 40
    },
    {
      "midi": 52,
      "hit": false,
      "t": 85600,
      "d": 400,
      "v": 40
    },
    {
      "midi": 57,
      "hit": false,
      "t": 86000,
      "d": 400,
      "v": 40
    },
    {
      "midi": 64,
      "hit": false,
      "t": 86400,
      "d": 1600,
      "v": 70
    },
    {
      "midi": 45,
      "hit": false,
      "t": 86400,
      "d": 400,
      "v": 40
    },
    {
      "midi": 52,
      "hit": false,
      "t": 86800,
      "d": 400,
      "v": 40
    },
    {
      "midi": 60,
      "hit": false,
      "t": 87200,
      "d": 400,
      "v": 40
    },
    {
      "midi": 57,
      "hit": false,
      "t": 87600,
      "d": 400,
      "v": 40
    },
    {
      "midi": 66,
      "hit": false,
      "t": 88000,
      "d": 400,
      "v": 70
    },
    {
      "midi": 52,
      "hit": false,
      "t": 88000,
      "d": 400,
      "v": 40
    },
    {
      "midi": 67,
      "hit": false,
      "t": 88400,
      "d": 400,
      "v": 70
    },
    {
      "midi": 57,
      "hit": false,
      "t": 88400,
      "d": 400,
      "v": 40
    },
    {
      "midi": 69,
      "hit": false,
      "t": 88800,
      "d": 400,
      "v": 70
    },
    {
      "midi": 50,
      "hit": false,
      "t": 88800,
      "d": 400,
      "v": 40
    },
    {
      "midi": 71,
      "hit": false,
      "t": 89200,
      "d": 400,
      "v": 70
    },
    {
      "midi": 57,
      "hit": false,
      "t": 89200,
      "d": 400,
      "v": 40
    },
    {
      "midi": 72,
      "hit": false,
      "t": 89600,
      "d": 400,
      "v": 70
    },
    {
      "midi": 60,
      "hit": false,
      "t": 89600,
      "d": 400,
      "v": 40
    },
    {
      "midi": 74,
      "hit": false,
      "t": 90000,
      "d": 400,
      "v": 70
    },
    {
      "midi": 57,
      "hit": false,
      "t": 90000,
      "d": 400,
      "v": 40
    },
    {
      "midi": 76,
      "hit": false,
      "t": 90400,
      "d": 400,
      "v": 70
    },
    {
      "midi": 54,
      "hit": false,
      "t": 90400,
      "d": 400,
      "v": 40
    },
    {
      "midi": 78,
      "hit": false,
      "t": 90800,
      "d": 400,
      "v": 70
    },
    {
      "midi": 60,
      "hit": false,
      "t": 90800,
      "d": 400,
      "v": 40
    },
    {
      "midi": 83,
      "hit": false,
      "t": 91200,
      "d": 4800,
      "v": 70
    },
    {
      "midi": 43,
      "hit": false,
      "t": 91200,
      "d": 400,
      "v": 40
    },
    {
      "midi": 50,
      "hit": false,
      "t": 91600,
      "d": 400,
      "v": 40
    },
    {
      "midi": 59,
      "hit": false,
      "t": 92000,
      "d": 400,
      "v": 40
    },
    {
      "midi": 55,
      "hit": false,
      "t": 92400,
      "d": 400,
      "v": 40
    },
    {
      "midi": 41,
      "hit": false,
      "t": 92800,
      "d": 400,
      "v": 40
    },
    {
      "midi": 50,
      "hit": false,
      "t": 93200,
      "d": 400,
      "v": 40
    },
    {
      "midi": 40,
      "hit": false,
      "t": 93600,
      "d": 400,
      "v": 40
    },
    {
      "midi": 47,
      "hit": false,
      "t": 94000,
      "d": 400,
      "v": 40
    },
    {
      "midi": 56,
      "hit": false,
      "t": 94400,
      "d": 400,
      "v": 40
    },
    {
      "midi": 50,
      "hit": false,
      "t": 94800,
      "d": 400,
      "v": 40
    },
    {
      "midi": 47,
      "hit": false,
      "t": 95200,
      "d": 400,
      "v": 40
    },
    {
      "midi": 50,
      "hit": false,
      "t": 95600,
      "d": 400,
      "v": 40
    },
    {
      "midi": 83,
      "hit": false,
      "t": 96000,
      "d": 800,
      "v": 70
    },
    {
      "midi": 45,
      "hit": false,
      "t": 96000,
      "d": 400,
      "v": 40
    },
    {
      "midi": 52,
      "hit": false,
      "t": 96400,
      "d": 400,
      "v": 40
    },
    {
      "midi": 81,
      "hit": false,
      "t": 96800,
      "d": 800,
      "v": 70
    },
    {
      "midi": 60,
      "hit": false,
      "t": 96800,
      "d": 400,
      "v": 40
    },
    {
      "midi": 57,
      "hit": false,
      "t": 97200,
      "d": 400,
      "v": 40
    },
    {
      "midi": 76,
      "hit": false,
      "t": 97600,
      "d": 800,
      "v": 70
    },
    {
      "midi": 52,
      "hit": false,
      "t": 97600,
      "d": 400,
      "v": 40
    },
    {
      "midi": 57,
      "hit": false,
      "t": 98000,
      "d": 400,
      "v": 40
    },
    {
      "midi": 79,
      "hit": false,
      "t": 98400,
      "d": 800,
      "v": 70
    },
    {
      "midi": 45,
      "hit": false,
      "t": 98400,
      "d": 400,
      "v": 40
    },
    {
      "midi": 48,
      "hit": false,
      "t": 98800,
      "d": 400,
      "v": 40
    },
    {
      "midi": 78,
      "hit": false,
      "t": 99200,
      "d": 800,
      "v": 70
    },
    {
      "midi": 54,
      "hit": false,
      "t": 99200,
      "d": 400,
      "v": 40
    },
    {
      "midi": 50,
      "hit": false,
      "t": 99600,
      "d": 400,
      "v": 40
    },
    {
      "midi": 72,
      "hit": false,
      "t": 100000,
      "d": 800,
      "v": 70
    },
    {
      "midi": 57,
      "hit": false,
      "t": 100000,
      "d": 400,
      "v": 40
    },
    {
      "midi": 54,
      "hit": false,
      "t": 100400,
      "d": 400,
      "v": 40
    },
    {
      "midi": 76,
      "hit": false,
      "t": 100800,
      "d": 800,
      "v": 70
    },
    {
      "midi": 47,
      "hit": false,
      "t": 100800,
      "d": 400,
      "v": 40
    },
    {
      "midi": 50,
      "hit": false,
      "t": 101200,
      "d": 400,
      "v": 40
    },
    {
      "midi": 74,
      "hit": false,
      "t": 101600,
      "d": 800,
      "v": 70
    },
    {
      "midi": 59,
      "hit": false,
      "t": 101600,
      "d": 400,
      "v": 40
    },
    {
      "midi": 55,
      "hit": false,
      "t": 102000,
      "d": 400,
      "v": 40
    },
    {
      "midi": 67,
      "hit": false,
      "t": 102400,
      "d": 800,
      "v": 70
    },
    {
      "midi": 50,
      "hit": false,
      "t": 102400,
      "d": 400,
      "v": 40
    },
    {
      "midi": 55,
      "hit": false,
      "t": 102800,
      "d": 400,
      "v": 40
    },
    {
      "midi": 69,
      "hit": false,
      "t": 103200,
      "d": 800,
      "v": 70
    },
    {
      "midi": 48,
      "hit": false,
      "t": 103200,
      "d": 2400,
      "v": 40
    },
    {
      "midi": 52,
      "hit": false,
      "t": 103200,
      "d": 2400,
      "v": 40
    },
    {
      "midi": 55,
      "hit": false,
      "t": 103200,
      "d": 2400,
      "v": 40
    },
    {
      "midi": 71,
      "hit": false,
      "t": 104000,
      "d": 800,
      "v": 70
    },
    {
      "midi": 67,
      "hit": false,
      "t": 104800,
      "d": 800,
      "v": 70
    },
    {
      "midi": 71,
      "hit": false,
      "t": 105600,
      "d": 2400,
      "v": 70
    },
    {
      "midi": 50,
      "hit": false,
      "t": 105600,
      "d": 400,
      "v": 40
    },
    {
      "midi": 55,
      "hit": false,
      "t": 106000,
      "d": 400,
      "v": 40
    },
    {
      "midi": 59,
      "hit": false,
      "t": 106400,
      "d": 400,
      "v": 40
    },
    {
      "midi": 55,
      "hit": false,
      "t": 106800,
      "d": 400,
      "v": 40
    },
    {
      "midi": 62,
      "hit": false,
      "t": 107200,
      "d": 400,
      "v": 40
    },
    {
      "midi": 59,
      "hit": false,
      "t": 107600,
      "d": 400,
      "v": 40
    },
    {
      "midi": 72,
      "hit": false,
      "t": 108000,
      "d": 800,
      "v": 70
    },
    {
      "midi": 74,
      "hit": false,
      "t": 108800,
      "d": 800,
      "v": 70
    },
    {
      "midi": 71,
      "hit": false,
      "t": 109600,
      "d": 800,
      "v": 70
    },
    {
      "midi": 76,
      "hit": false,
      "t": 110400,
      "d": 2400,
      "v": 70
    },
    {
      "midi": 52,
      "hit": false,
      "t": 110400,
      "d": 400,
      "v": 40
    },
    {
      "midi": 55,
      "hit": false,
      "t": 110800,
      "d": 400,
      "v": 40
    },
    {
      "midi": 59,
      "hit": false,
      "t": 111200,
      "d": 400,
      "v": 40
    },
    {
      "midi": 55,
      "hit": false,
      "t": 111600,
      "d": 400,
      "v": 40
    },
    {
      "midi": 64,
      "hit": false,
      "t": 112000,
      "d": 400,
      "v": 40
    },
    {
      "midi": 59,
      "hit": false,
      "t": 112400,
      "d": 400,
      "v": 40
    },
    {
      "midi": 76,
      "hit": false,
      "t": 112800,
      "d": 800,
      "v": 70
    },
    {
      "midi": 50,
      "hit": false,
      "t": 112800,
      "d": 400,
      "v": 40
    },
    {
      "midi": 57,
      "hit": false,
      "t": 113200,
      "d": 400,
      "v": 40
    },
    {
      "midi": 78,
      "hit": false,
      "t": 113600,
      "d": 800,
      "v": 70
    },
    {
      "midi": 60,
      "hit": false,
      "t": 113600,
      "d": 400,
      "v": 40
    },
    {
      "midi": 57,
      "hit": false,
      "t": 114000,
      "d": 400,
      "v": 40
    },
    {
      "midi": 74,
      "hit": false,
      "t": 114400,
      "d": 800,
      "v": 70
    },
    {
      "midi": 54,
      "hit": false,
      "t": 114400,
      "d": 400,
      "v": 40
    },
    {
      "midi": 57,
      "hit": false,
      "t": 114800,
      "d": 400,
      "v": 40
    },
    {
      "midi": 79,
      "hit": false,
      "t": 115200,
      "d": 7200,
      "v": 70
    },
    {
      "midi": 43,
      "hit": false,
      "t": 115200,
      "d": 400,
      "v": 40
    },
    {
      "midi": 50,
      "hit": false,
      "t": 115600,
      "d": 400,
      "v": 40
    },
    {
      "midi": 59,
      "hit": false,
      "t": 116000,
      "d": 400,
      "v": 40
    },
    {
      "midi": 55,
      "hit": false,
      "t": 116400,
      "d": 400,
      "v": 40
    },
    {
      "midi": 50,
      "hit": false,
      "t": 116800,
      "d": 400,
      "v": 40
    },
    {
      "midi": 55,
      "hit": false,
      "t": 117200,
      "d": 400,
      "v": 40
    },
    {
      "midi": 43,
      "hit": false,
      "t": 117600,
      "d": 400,
      "v": 40
    },
    {
      "midi": 50,
      "hit": false,
      "t": 118000,
      "d": 400,
      "v": 40
    },
    {
      "midi": 59,
      "hit": false,
      "t": 118400,
      "d": 400,
      "v": 40
    },
    {
      "midi": 55,
      "hit": false,
      "t": 118800,
      "d": 400,
      "v": 40
    },
    {
      "midi": 50,
      "hit": false,
      "t": 119200,
      "d": 400,
      "v": 40
    },
    {
      "midi": 55,
      "hit": false,
      "t": 119600,
      "d": 400,
      "v": 40
    },
    {
      "midi": 43,
      "hit": false,
      "t": 120000,
      "d": 2400,
      "v": 40
    }
  ]
}