{
  "jsonPath": "World/Classic Swedish Pop/Arja Saijonmaa/ala-kiiruhda.json",
  "path": "World\\Classic Swedish Pop\\Arja Saijonmaa\\Älä kiiruhda.mid",
  "name": "Älä kiiruhda",
  "difficulty": "Advanced",
  "bpm": 70.00007000007,
  "notes": [
    {
      "midi": 55,
      "hit": false,
      "t": 3428.568,
      "d": 89.28562499999998,
      "v": 84
    },
    {
      "midi": 60,
      "hit": false,
      "t": 3428.568,
      "d": 93.7499062500001,
      "v": 76
    },
    {
      "midi": 63,
      "hit": false,
      "t": 3428.568,
      "d": 93.7499062500001,
      "v": 79
    },
    {
      "midi": 48,
      "hit": false,
      "t": 3428.568,
      "d": 1660.7126249999992,
      "v": 67
    },
    {
      "midi": 36,
      "hit": false,
      "t": 3428.568,
      "d": 1696.4268749999992,
      "v": 73
    },
    {
      "midi": 63,
      "hit": false,
      "t": 3714.282,
      "d": 58.0356562500001,
      "v": 63
    },
    {
      "midi": 55,
      "hit": false,
      "t": 3714.282,
      "d": 66.96421875000033,
      "v": 64
    },
    {
      "midi": 60,
      "hit": false,
      "t": 3714.282,
      "d": 66.96421875000033,
      "v": 66
    },
    {
      "midi": 60,
      "hit": false,
      "t": 3999.9960000000005,
      "d": 58.0356562500001,
      "v": 67
    },
    {
      "midi": 63,
      "hit": false,
      "t": 3999.9960000000005,
      "d": 58.0356562500001,
      "v": 67
    },
    {
      "midi": 55,
      "hit": false,
      "t": 3999.9960000000005,
      "d": 66.96421875000033,
      "v": 69
    },
    {
      "midi": 60,
      "hit": false,
      "t": 4285.710000000001,
      "d": 71.42849999999999,
      "v": 79
    },
    {
      "midi": 55,
      "hit": false,
      "t": 4285.710000000001,
      "d": 75.89278124999964,
      "v": 84
    },
    {
      "midi": 63,
      "hit": false,
      "t": 4285.710000000001,
      "d": 80.3570624999993,
      "v": 84
    },
    {
      "midi": 60,
      "hit": false,
      "t": 4571.424,
      "d": 66.96421875000033,
      "v": 67
    },
    {
      "midi": 63,
      "hit": false,
      "t": 4571.424,
      "d": 66.96421875000033,
      "v": 64
    },
    {
      "midi": 55,
      "hit": false,
      "t": 4571.424,
      "d": 80.35706250000021,
      "v": 68
    },
    {
      "midi": 60,
      "hit": false,
      "t": 4857.138,
      "d": 71.42849999999999,
      "v": 64
    },
    {
      "midi": 55,
      "hit": false,
      "t": 4857.138,
      "d": 80.35706250000021,
      "v": 69
    },
    {
      "midi": 63,
      "hit": false,
      "t": 4857.138,
      "d": 84.82134374999987,
      "v": 68
    },
    {
      "midi": 60,
      "hit": false,
      "t": 5142.852,
      "d": 71.42849999999999,
      "v": 84
    },
    {
      "midi": 56,
      "hit": false,
      "t": 5142.852,
      "d": 84.82134374999987,
      "v": 79
    },
    {
      "midi": 65,
      "hit": false,
      "t": 5142.852,
      "d": 98.21418749999975,
      "v": 82
    },
    {
      "midi": 41,
      "hit": false,
      "t": 5142.852,
      "d": 1674.105468750001,
      "v": 60
    },
    {
      "midi": 60,
      "hit": false,
      "t": 5428.566,
      "d": 71.42849999999999,
      "v": 68
    },
    {
      "midi": 56,
      "hit": false,
      "t": 5428.566,
      "d": 80.35706250000021,
      "v": 73
    },
    {
      "midi": 65,
      "hit": false,
      "t": 5428.566,
      "d": 80.35706250000021,
      "v": 79
    },
    {
      "midi": 60,
      "hit": false,
      "t": 5714.28,
      "d": 66.96421875000033,
      "v": 79
    },
    {
      "midi": 65,
      "hit": false,
      "t": 5714.28,
      "d": 66.96421875000033,
      "v": 71
    },
    {
      "midi": 56,
      "hit": false,
      "t": 5714.28,
      "d": 75.89278125000055,
      "v": 76
    },
    {
      "midi": 60,
      "hit": false,
      "t": 5999.994000000001,
      "d": 71.42849999999999,
      "v": 84
    },
    {
      "midi": 56,
      "hit": false,
      "t": 5999.994000000001,
      "d": 84.82134374999987,
      "v": 84
    },
    {
      "midi": 65,
      "hit": false,
      "t": 5999.994000000001,
      "d": 89.28562499999953,
      "v": 79
    },
    {
      "midi": 60,
      "hit": false,
      "t": 6285.7080000000005,
      "d": 71.42849999999999,
      "v": 73
    },
    {
      "midi": 65,
      "hit": false,
      "t": 6285.7080000000005,
      "d": 80.35706250000021,
      "v": 79
    },
    {
      "midi": 56,
      "hit": false,
      "t": 6285.7080000000005,
      "d": 89.28562500000044,
      "v": 68
    },
    {
      "midi": 60,
      "hit": false,
      "t": 6571.422000000001,
      "d": 84.82134374999987,
      "v": 76
    },
    {
      "midi": 65,
      "hit": false,
      "t": 6571.422000000001,
      "d": 89.28562499999953,
      "v": 76
    },
    {
      "midi": 56,
      "hit": false,
      "t": 6571.422000000001,
      "d": 93.74990624999919,
      "v": 79
    },
    {
      "midi": 60,
      "hit": false,
      "t": 6857.136,
      "d": 223.21406250000018,
      "v": 84
    },
    {
      "midi": 55,
      "hit": false,
      "t": 6857.136,
      "d": 227.67834374999984,
      "v": 87
    },
    {
      "midi": 63,
      "hit": false,
      "t": 6857.136,
      "d": 236.60690625000007,
      "v": 87
    },
    {
      "midi": 48,
      "hit": false,
      "t": 6857.136,
      "d": 258.9283125000002,
      "v": 76
    },
    {
      "midi": 36,
      "hit": false,
      "t": 6857.136,
      "d": 272.32115625000006,
      "v": 67
    },
    {
      "midi": 67,
      "hit": false,
      "t": 10285.704,
      "d": 1848.2124375000003,
      "v": 63
    },
    {
      "midi": 63,
      "hit": false,
      "t": 10285.704,
      "d": 2874.9971250000017,
      "v": 64
    },
    {
      "midi": 68,
      "hit": false,
      "t": 10285.704,
      "d": 2883.925687500001,
      "v": 55
    },
    {
      "midi": 60,
      "hit": false,
      "t": 10285.704,
      "d": 2888.3899687500016,
      "v": 67
    },
    {
      "midi": 53,
      "hit": false,
      "t": 10285.704,
      "d": 2919.639937500002,
      "v": 58
    },
    {
      "midi": 41,
      "hit": false,
      "t": 10285.704,
      "d": 2991.068437500002,
      "v": 61
    },
    {
      "midi": 65,
      "hit": false,
      "t": 11999.988,
      "d": 1156.2488437500015,
      "v": 56
    },
    {
      "midi": 67,
      "hit": false,
      "t": 13714.272,
      "d": 1638.391218750001,
      "v": 58
    },
    {
      "midi": 60,
      "hit": false,
      "t": 13714.272,
      "d": 2741.068687500003,
      "v": 56
    },
    {
      "midi": 62,
      "hit": false,
      "t": 13714.272,
      "d": 2799.104343750001,
      "v": 62
    },
    {
      "midi": 56,
      "hit": false,
      "t": 13714.272,
      "d": 2812.497187500001,
      "v": 52
    },
    {
      "midi": 46,
      "hit": false,
      "t": 13714.272,
      "d": 2839.282875000001,
      "v": 55
    },
    {
      "midi": 65,
      "hit": false,
      "t": 15428.556000000002,
      "d": 1098.2131874999995,
      "v": 56
    },
    {
      "midi": 58,
      "hit": false,
      "t": 17142.84,
      "d": 892.8562500000007,
      "v": 63
    },
    {
      "midi": 62,
      "hit": false,
      "t": 17142.84,
      "d": 906.2490937500006,
      "v": 67
    },
    {
      "midi": 67,
      "hit": false,
      "t": 17142.84,
      "d": 946.4276250000003,
      "v": 66
    },
    {
      "midi": 39,
      "hit": false,
      "t": 17142.84,
      "d": 1191.9630937500006,
      "v": 57
    },
    {
      "midi": 51,
      "hit": false,
      "t": 17142.84,
      "d": 1285.7129999999997,
      "v": 56
    },
    {
      "midi": 79,
      "hit": false,
      "t": 19142.838,
      "d": 294.6425625000011,
      "v": 64
    },
    {
      "midi": 70,
      "hit": false,
      "t": 19142.838,
      "d": 370.53534375000163,
      "v": 55
    },
    {
      "midi": 63,
      "hit": false,
      "t": 19142.838,
      "d": 629.4636562500018,
      "v": 35
    },
    {
      "midi": 74,
      "hit": false,
      "t": 19428.552,
      "d": 133.92843750000247,
      "v": 58
    },
    {
      "midi": 70,
      "hit": false,
      "t": 19714.266000000003,
      "d": 75.89278124999691,
      "v": 22
    },
    {
      "midi": 70,
      "hit": false,
      "t": 19999.98,
      "d": 124.99987500000134,
      "v": 36
    },
    {
      "midi": 75,
      "hit": false,
      "t": 20285.694,
      "d": 107.14274999999907,
      "v": 5
    },
    {
      "midi": 72,
      "hit": false,
      "t": 20571.408,
      "d": 705.3564375000024,
      "v": 41
    },
    {
      "midi": 75,
      "hit": false,
      "t": 20571.408,
      "d": 709.8207187500011,
      "v": 37
    },
    {
      "midi": 63,
      "hit": false,
      "t": 20571.408,
      "d": 736.6064062500009,
      "v": 40
    },
    {
      "midi": 70,
      "hit": false,
      "t": 20571.408,
      "d": 763.3920937500006,
      "v": 45
    },
    {
      "midi": 56,
      "hit": false,
      "t": 20571.408,
      "d": 790.1777812500004,
      "v": 51
    },
    {
      "midi": 58,
      "hit": false,
      "t": 23428.548,
      "d": 522.3209062499991,
      "v": 63
    },
    {
      "midi": 67,
      "hit": false,
      "t": 23714.262,
      "d": 254.4640312499978,
      "v": 64
    },
    {
      "midi": 56,
      "hit": false,
      "t": 23999.975999999995,
      "d": 1754.462531250003,
      "v": 53
    },
    {
      "midi": 60,
      "hit": false,
      "t": 23999.975999999995,
      "d": 1763.391093750004,
      "v": 58
    },
    {
      "midi": 62,
      "hit": false,
      "t": 23999.975999999995,
      "d": 1763.391093750004,
      "v": 61
    },
    {
      "midi": 65,
      "hit": false,
      "t": 23999.975999999995,
      "d": 1794.6410625000026,
      "v": 56
    },
    {
      "midi": 41,
      "hit": false,
      "t": 23999.975999999995,
      "d": 1812.4981875000012,
      "v": 58
    },
    {
      "midi": 62,
      "hit": false,
      "t": 26857.115999999995,
      "d": 499.9995000000017,
      "v": 56
    },
    {
      "midi": 72,
      "hit": false,
      "t": 27142.829999999994,
      "d": 165.178406250001,
      "v": 63
    },
    {
      "midi": 65,
      "hit": false,
      "t": 27428.543999999998,
      "d": 2741.068687500003,
      "v": 63
    },
    {
      "midi": 62,
      "hit": false,
      "t": 27428.543999999998,
      "d": 2754.4615312500027,
      "v": 53
    },
    {
      "midi": 68,
      "hit": false,
      "t": 27428.543999999998,
      "d": 2781.2472187500025,
      "v": 56
    },
    {
      "midi": 72,
      "hit": false,
      "t": 27428.543999999998,
      "d": 2812.497187500001,
      "v": 64
    },
    {
      "midi": 79,
      "hit": false,
      "t": 30857.111999999997,
      "d": 223.21406249999927,
      "v": 62
    },
    {
      "midi": 43,
      "hit": false,
      "t": 30857.111999999997,
      "d": 857.1419999999998,
      "v": 51
    },
    {
      "midi": 74,
      "hit": false,
      "t": 31142.825999999997,
      "d": 258.9283125000002,
      "v": 56
    },
    {
      "midi": 67,
      "hit": false,
      "t": 31428.539999999997,
      "d": 397.3210312500014,
      "v": 55
    },
    {
      "midi": 55,
      "hit": false,
      "t": 31714.253999999997,
      "d": 294.6425625000011,
      "v": 58
    },
    {
      "midi": 72,
      "hit": false,
      "t": 31999.967999999997,
      "d": 254.46403125000143,
      "v": 55
    },
    {
      "midi": 50,
      "hit": false,
      "t": 32285.681999999997,
      "d": 80.3570624999993,
      "v": 47
    },
    {
      "midi": 67,
      "hit": false,
      "t": 32285.681999999997,
      "d": 93.74990624999919,
      "v": 45
    },
    {
      "midi": 72,
      "hit": false,
      "t": 32571.395999999997,
      "d": 482.14237499999217,
      "v": 64
    },
    {
      "midi": 68,
      "hit": false,
      "t": 32571.395999999997,
      "d": 499.99949999999444,
      "v": 62
    },
    {
      "midi": 44,
      "hit": false,
      "t": 32571.395999999997,
      "d": 669.6421874999978,
      "v": 48
    },
    {
      "midi": 56,
      "hit": false,
      "t": 32857.10999999999,
      "d": 89.2856249999968,
      "v": 35
    },
    {
      "midi": 56,
      "hit": false,
      "t": 33142.82399999999,
      "d": 66.96421874999942,
      "v": 32
    },
    {
      "midi": 43,
      "hit": false,
      "t": 33428.53799999999,
      "d": 736.6064062500009,
      "v": 62
    },
    {
      "midi": 74,
      "hit": false,
      "t": 33428.53799999999,
      "d": 758.9278124999983,
      "v": 64
    },
    {
      "midi": 72,
      "hit": false,
      "t": 33428.53799999999,
      "d": 763.3920937500006,
      "v": 66
    },
    {
      "midi": 67,
      "hit": false,
      "t": 33428.53799999999,
      "d": 790.1777812500004,
      "v": 63
    },
    {
      "midi": 48,
      "hit": false,
      "t": 34285.67999999999,
      "d": 383.92818749999424,
      "v": 66
    },
    {
      "midi": 67,
      "hit": false,
      "t": 34285.67999999999,
      "d": 388.3924687499966,
      "v": 76
    },
    {
      "midi": 63,
      "hit": false,
      "t": 34285.67999999999,
      "d": 410.713874999994,
      "v": 67
    },
    {
      "midi": 72,
      "hit": false,
      "t": 34285.67999999999,
      "d": 415.1781562499964,
      "v": 69
    },
    {
      "midi": 84,
      "hit": false,
      "t": 37428.53399999999,
      "d": 294.6425625000047,
      "v": 62
    },
    {
      "midi": 79,
      "hit": false,
      "t": 37522.28390624999,
      "d": 214.2855000000054,
      "v": 58
    },
    {
      "midi": 77,
      "hit": false,
      "t": 37580.31956249999,
      "d": 196.42837500000314,
      "v": 58
    },
    {
      "midi": 75,
      "hit": false,
      "t": 37651.748062499995,
      "d": 156.2498437500035,
      "v": 64
    },
    {
      "midi": 72,
      "hit": false,
      "t": 37749.96225,
      "d": 316.9639687500021,
      "v": 84
    },
    {
      "midi": 46,
      "hit": false,
      "t": 41138.351718750004,
      "d": 2879.4614062499895,
      "v": 42
    },
    {
      "midi": 67,
      "hit": false,
      "t": 41147.28028125,
      "d": 156.2498437500035,
      "v": 56
    },
    {
      "midi": 62,
      "hit": false,
      "t": 41151.744562500004,
      "d": 196.42837499999587,
      "v": 52
    },
    {
      "midi": 56,
      "hit": false,
      "t": 41151.744562500004,
      "d": 205.35693749999336,
      "v": 41
    },
    {
      "midi": 60,
      "hit": false,
      "t": 41160.673125,
      "d": 178.57125000000087,
      "v": 55
    },
    {
      "midi": 60,
      "hit": false,
      "t": 41406.208593749994,
      "d": 209.82121874999575,
      "v": 56
    },
    {
      "midi": 62,
      "hit": false,
      "t": 41419.601437499994,
      "d": 214.28549999999814,
      "v": 61
    },
    {
      "midi": 56,
      "hit": false,
      "t": 41424.06571875,
      "d": 2540.1760312499973,
      "v": 35
    },
    {
      "midi": 66,
      "hit": false,
      "t": 41432.994281249994,
      "d": 129.46415624999645,
      "v": 53
    },
    {
      "midi": 60,
      "hit": false,
      "t": 41678.529749999994,
      "d": 2227.6763437499976,
      "v": 23
    },
    {
      "midi": 62,
      "hit": false,
      "t": 41678.529749999994,
      "d": 2241.0691874999975,
      "v": 67
    },
    {
      "midi": 65,
      "hit": false,
      "t": 41696.386875,
      "d": 2299.1048437499994,
      "v": 67
    },
    {
      "midi": 39,
      "hit": false,
      "t": 44540.134031249996,
      "d": 1058.0346562500054,
      "v": 47
    },
    {
      "midi": 51,
      "hit": false,
      "t": 44544.5983125,
      "d": 1147.3202812500094,
      "v": 47
    },
    {
      "midi": 58,
      "hit": false,
      "t": 44549.06259375,
      "d": 366.0710625000065,
      "v": 56
    },
    {
      "midi": 62,
      "hit": false,
      "t": 44553.526875,
      "d": 294.6425625000047,
      "v": 64
    },
    {
      "midi": 65,
      "hit": false,
      "t": 44557.991156250006,
      "d": 254.46403125000506,
      "v": 62
    },
    {
      "midi": 70,
      "hit": false,
      "t": 45089.240625000006,
      "d": 174.1069687499985,
      "v": 61
    },
    {
      "midi": 58,
      "hit": false,
      "t": 45111.56203125,
      "d": 84.82134375000169,
      "v": 63
    },
    {
      "midi": 58,
      "hit": false,
      "t": 45678.52575,
      "d": 80.35706250000658,
      "v": 53
    },
    {
      "midi": 63,
      "hit": false,
      "t": 45682.99003125,
      "d": 89.28562500000407,
      "v": 56
    },
    {
      "midi": 67,
      "hit": false,
      "t": 45687.454312500005,
      "d": 98.21418750000157,
      "v": 60
    },
    {
      "midi": 70,
      "hit": false,
      "t": 46249.95375000001,
      "d": 120.53559375000623,
      "v": 50
    },
    {
      "midi": 74,
      "hit": false,
      "t": 46254.41803125001,
      "d": 111.60703125000146,
      "v": 58
    },
    {
      "midi": 77,
      "hit": false,
      "t": 46254.41803125001,
      "d": 124.99987500000134,
      "v": 53
    },
    {
      "midi": 82,
      "hit": false,
      "t": 46825.84603125001,
      "d": 129.46415624999645,
      "v": 58
    },
    {
      "midi": 70,
      "hit": false,
      "t": 46834.77459375001,
      "d": 98.21418750000157,
      "v": 41
    },
    {
      "midi": 75,
      "hit": false,
      "t": 47406.20259375001,
      "d": 191.96409375000076,
      "v": 58
    },
    {
      "midi": 70,
      "hit": false,
      "t": 47732.09512500001,
      "d": 138.39271875000122,
      "v": 61
    },
    {
      "midi": 63,
      "hit": false,
      "t": 48004.41628125001,
      "d": 2089.283625000011,
      "v": 52
    },
    {
      "midi": 70,
      "hit": false,
      "t": 48008.88056250001,
      "d": 834.8205937500097,
      "v": 46
    },
    {
      "midi": 75,
      "hit": false,
      "t": 48013.34484375001,
      "d": 843.7491562500072,
      "v": 52
    },
    {
      "midi": 56,
      "hit": false,
      "t": 48017.809125000014,
      "d": 2044.6408125000016,
      "v": 51
    },
    {
      "midi": 72,
      "hit": false,
      "t": 48022.27340625002,
      "d": 808.0349062500027,
      "v": 60
    },
    {
      "midi": 82,
      "hit": false,
      "t": 49182.98653125002,
      "d": 357.14249999999447,
      "v": 42
    },
    {
      "midi": 91,
      "hit": false,
      "t": 49424.05771875002,
      "d": 316.9639687500021,
      "v": 21
    },
    {
      "midi": 87,
      "hit": false,
      "t": 49718.700281250014,
      "d": 84.82134375000169,
      "v": 51
    },
    {
      "midi": 82,
      "hit": false,
      "t": 49723.16456250002,
      "d": 80.3570624999993,
      "v": 18
    },
    {
      "midi": 84,
      "hit": false,
      "t": 49736.557406250016,
      "d": 53.571374999999534,
      "v": 47
    },
    {
      "midi": 65,
      "hit": false,
      "t": 51415.12715625002,
      "d": 1031.2489687499983,
      "v": 57
    },
    {
      "midi": 60,
      "hit": false,
      "t": 51419.59143750002,
      "d": 982.1418750000012,
      "v": 55
    },
    {
      "midi": 56,
      "hit": false,
      "t": 51424.05571875002,
      "d": 986.6061562499963,
      "v": 51
    },
    {
      "midi": 62,
      "hit": false,
      "t": 51428.520000000026,
      "d": 982.1418749999939,
      "v": 57
    },
    {
      "midi": 41,
      "hit": false,
      "t": 51464.23425000002,
      "d": 1249.9987499999916,
      "v": 31
    },
    {
      "midi": 68,
      "hit": false,
      "t": 53182.98253125002,
      "d": 388.3924687499966,
      "v": 33
    },
    {
      "midi": 77,
      "hit": false,
      "t": 53437.446562500016,
      "d": 281.24971874999756,
      "v": 45
    },
    {
      "midi": 72,
      "hit": false,
      "t": 53687.44631250001,
      "d": 316.9639687500021,
      "v": 40
    },
    {
      "midi": 68,
      "hit": false,
      "t": 53991.01743750001,
      "d": 80.3570624999993,
      "v": 42
    },
    {
      "midi": 68,
      "hit": false,
      "t": 54852.623718750016,
      "d": 339.2853749999995,
      "v": 56
    },
    {
      "midi": 62,
      "hit": false,
      "t": 54857.08800000002,
      "d": 357.14249999999447,
      "v": 53
    },
    {
      "midi": 65,
      "hit": false,
      "t": 54857.08800000002,
      "d": 357.14249999999447,
      "v": 58
    },
    {
      "midi": 72,
      "hit": false,
      "t": 55424.051718750015,
      "d": 102.67846875000396,
      "v": 57
    },
    {
      "midi": 68,
      "hit": false,
      "t": 55428.51600000002,
      "d": 80.3570624999993,
      "v": 45
    },
    {
      "midi": 65,
      "hit": false,
      "t": 55432.98028125002,
      "d": 66.96421874999942,
      "v": 46
    },
    {
      "midi": 77,
      "hit": false,
      "t": 55950.83690625002,
      "d": 120.53559374999895,
      "v": 36
    },
    {
      "midi": 72,
      "hit": false,
      "t": 55959.76546875002,
      "d": 93.74990624999919,
      "v": 56
    },
    {
      "midi": 74,
      "hit": false,
      "t": 56549.05059375002,
      "d": 138.39271875000122,
      "v": 43
    },
    {
      "midi": 80,
      "hit": false,
      "t": 57151.72856250002,
      "d": 102.67846874999668,
      "v": 30
    },
    {
      "midi": 84,
      "hit": false,
      "t": 57700.83515625002,
      "d": 62.49993749999703,
      "v": 50
    },
    {
      "midi": 55,
      "hit": false,
      "t": 58290.12028125002,
      "d": 629.4636562500018,
      "v": 55
    },
    {
      "midi": 79,
      "hit": false,
      "t": 58299.04884375002,
      "d": 98.21418750000885,
      "v": 66
    },
    {
      "midi": 67,
      "hit": false,
      "t": 58303.51312500002,
      "d": 89.28562500000407,
      "v": 62
    },
    {
      "midi": 67,
      "hit": false,
      "t": 58843.691156250025,
      "d": 93.74990624999919,
      "v": 67
    },
    {
      "midi": 72,
      "hit": false,
      "t": 58843.691156250025,
      "d": 107.14274999999907,
      "v": 73
    },
    {
      "midi": 55,
      "hit": false,
      "t": 59165.11940625002,
      "d": 89.2856249999968,
      "v": 46
    },
    {
      "midi": 67,
      "hit": false,
      "t": 59419.58343750002,
      "d": 80.3570624999993,
      "v": 66
    },
    {
      "midi": 74,
      "hit": false,
      "t": 59419.58343750002,
      "d": 80.3570624999993,
      "v": 69
    },
    {
      "midi": 55,
      "hit": false,
      "t": 59727.61884375002,
      "d": 66.96421874999942,
      "v": 52
    },
    {
      "midi": 79,
      "hit": false,
      "t": 59991.01143750002,
      "d": 80.3570624999993,
      "v": 73
    },
    {
      "midi": 67,
      "hit": false,
      "t": 59999.94000000002,
      "d": 58.03565625000192,
      "v": 68
    },
    {
      "midi": 69,
      "hit": false,
      "t": 60017.79712500002,
      "d": 26.785687499999767,
      "v": 43
    },
    {
      "midi": 55,
      "hit": false,
      "t": 60290.11828125002,
      "d": 75.89278124999691,
      "v": 57
    },
    {
      "midi": 67,
      "hit": false,
      "t": 60557.97515625002,
      "d": 84.82134375000169,
      "v": 66
    },
    {
      "midi": 72,
      "hit": false,
      "t": 60562.43943750002,
      "d": 84.82134375000169,
      "v": 73
    },
    {
      "midi": 55,
      "hit": false,
      "t": 60575.83228125002,
      "d": 71.4285000000018,
      "v": 55
    },
    {
      "midi": 55,
      "hit": false,
      "t": 60879.40340625002,
      "d": 62.49993749999703,
      "v": 55
    },
    {
      "midi": 67,
      "hit": false,
      "t": 61138.33171875002,
      "d": 66.96421874999942,
      "v": 66
    },
    {
      "midi": 74,
      "hit": false,
      "t": 61138.33171875002,
      "d": 66.96421874999942,
      "v": 71
    },
    {
      "midi": 55,
      "hit": false,
      "t": 61147.26028125002,
      "d": 62.49993750000431,
      "v": 64
    },
    {
      "midi": 79,
      "hit": false,
      "t": 61714.224,
      "d": 75.89278124999691,
      "v": 66
    },
    {
      "midi": 76,
      "hit": false,
      "t": 61714.224,
      "d": 80.3570624999993,
      "v": 67
    },
    {
      "midi": 84,
      "hit": false,
      "t": 61714.224,
      "d": 93.74990624999919,
      "v": 62
    },
    {
      "midi": 79,
      "hit": false,
      "t": 61999.938,
      "d": 58.03565625000192,
      "v": 56
    },
    {
      "midi": 84,
      "hit": false,
      "t": 61999.938,
      "d": 66.96421874999942,
      "v": 48
    },
    {
      "midi": 76,
      "hit": false,
      "t": 61999.938,
      "d": 75.89278124999691,
      "v": 58
    },
    {
      "midi": 84,
      "hit": false,
      "t": 62285.652,
      "d": 49.10709374999715,
      "v": 34
    },
    {
      "midi": 79,
      "hit": false,
      "t": 62285.652,
      "d": 53.571374999999534,
      "v": 53
    },
    {
      "midi": 76,
      "hit": false,
      "t": 62285.652,
      "d": 71.4285000000018,
      "v": 55
    },
    {
      "midi": 79,
      "hit": false,
      "t": 62571.366,
      "d": 66.96421874999942,
      "v": 63
    },
    {
      "midi": 84,
      "hit": false,
      "t": 62571.366,
      "d": 80.3570624999993,
      "v": 51
    },
    {
      "midi": 76,
      "hit": false,
      "t": 62571.366,
      "d": 84.82134375000169,
      "v": 63
    },
    {
      "midi": 79,
      "hit": false,
      "t": 62857.08,
      "d": 71.4285000000018,
      "v": 52
    },
    {
      "midi": 76,
      "hit": false,
      "t": 62857.08,
      "d": 75.89278125000419,
      "v": 55
    },
    {
      "midi": 84,
      "hit": false,
      "t": 62857.08,
      "d": 75.89278125000419,
      "v": 42
    },
    {
      "midi": 79,
      "hit": false,
      "t": 63142.79400000001,
      "d": 71.4285000000018,
      "v": 51
    },
    {
      "midi": 84,
      "hit": false,
      "t": 63142.79400000001,
      "d": 75.89278125000419,
      "v": 40
    },
    {
      "midi": 76,
      "hit": false,
      "t": 63142.79400000001,
      "d": 80.35706250000658,
      "v": 50
    },
    {
      "midi": 81,
      "hit": false,
      "t": 63428.508000000016,
      "d": 71.4285000000018,
      "v": 60
    },
    {
      "midi": 84,
      "hit": false,
      "t": 63428.508000000016,
      "d": 84.82134375000169,
      "v": 47
    },
    {
      "midi": 76,
      "hit": false,
      "t": 63428.508000000016,
      "d": 89.28562500000407,
      "v": 58
    },
    {
      "midi": 84,
      "hit": false,
      "t": 63714.22200000002,
      "d": 58.03565625000192,
      "v": 36
    },
    {
      "midi": 81,
      "hit": false,
      "t": 63714.22200000002,
      "d": 62.49993750000431,
      "v": 41
    },
    {
      "midi": 76,
      "hit": false,
      "t": 63714.22200000002,
      "d": 93.74990625000646,
      "v": 45
    },
    {
      "midi": 81,
      "hit": false,
      "t": 63999.93600000003,
      "d": 66.96421874999942,
      "v": 53
    },
    {
      "midi": 84,
      "hit": false,
      "t": 63999.93600000003,
      "d": 75.89278124999691,
      "v": 45
    },
    {
      "midi": 76,
      "hit": false,
      "t": 63999.93600000003,
      "d": 89.2856249999968,
      "v": 52
    },
    {
      "midi": 81,
      "hit": false,
      "t": 64285.65000000003,
      "d": 66.96421874999942,
      "v": 52
    },
    {
      "midi": 84,
      "hit": false,
      "t": 64285.65000000003,
      "d": 71.4285000000018,
      "v": 45
    },
    {
      "midi": 76,
      "hit": false,
      "t": 64285.65000000003,
      "d": 89.28562500000407,
      "v": 53
    },
    {
      "midi": 84,
      "hit": false,
      "t": 64571.36400000004,
      "d": 44.64281250000204,
      "v": 40
    },
    {
      "midi": 81,
      "hit": false,
      "t": 64571.36400000004,
      "d": 66.96421874999942,
      "v": 51
    },
    {
      "midi": 76,
      "hit": false,
      "t": 64571.36400000004,
      "d": 89.2856249999968,
      "v": 50
    },
    {
      "midi": 84,
      "hit": false,
      "t": 64857.07800000004,
      "d": 49.10709374999715,
      "v": 35
    },
    {
      "midi": 76,
      "hit": false,
      "t": 64857.07800000004,
      "d": 93.74990624999919,
      "v": 46
    },
    {
      "midi": 81,
      "hit": false,
      "t": 64857.07800000004,
      "d": 93.74990624999919,
      "v": 56
    },
    {
      "midi": 74,
      "hit": false,
      "t": 65142.79200000004,
      "d": 89.2856249999968,
      "v": 55
    },
    {
      "midi": 77,
      "hit": false,
      "t": 65142.79200000004,
      "d": 93.74990624999919,
      "v": 55
    },
    {
      "midi": 84,
      "hit": false,
      "t": 65142.79200000004,
      "d": 98.21418750000157,
      "v": 56
    },
    {
      "midi": 74,
      "hit": false,
      "t": 65428.50600000004,
      "d": 80.3570624999993,
      "v": 41
    },
    {
      "midi": 77,
      "hit": false,
      "t": 65428.50600000004,
      "d": 84.82134375000169,
      "v": 45
    },
    {
      "midi": 84,
      "hit": false,
      "t": 65428.50600000004,
      "d": 89.28562500000407,
      "v": 56
    },
    {
      "midi": 74,
      "hit": false,
      "t": 65714.22000000004,
      "d": 75.89278125000419,
      "v": 43
    },
    {
      "midi": 77,
      "hit": false,
      "t": 65714.22000000004,
      "d": 84.82134375000896,
      "v": 47
    },
    {
      "midi": 84,
      "hit": false,
      "t": 65714.22000000004,
      "d": 84.82134375000896,
      "v": 57
    },
    {
      "midi": 74,
      "hit": false,
      "t": 65999.93400000005,
      "d": 89.28562500000407,
      "v": 53
    },
    {
      "midi": 77,
      "hit": false,
      "t": 65999.93400000005,
      "d": 93.74990624999919,
      "v": 53
    },
    {
      "midi": 84,
      "hit": false,
      "t": 65999.93400000005,
      "d": 93.74990624999919,
      "v": 62
    },
    {
      "midi": 77,
      "hit": false,
      "t": 66285.64800000004,
      "d": 80.3570624999993,
      "v": 48
    },
    {
      "midi": 74,
      "hit": false,
      "t": 66285.64800000004,
      "d": 84.82134374999441,
      "v": 51
    },
    {
      "midi": 84,
      "hit": false,
      "t": 66285.64800000004,
      "d": 102.6784687499894,
      "v": 61
    },
    {
      "midi": 77,
      "hit": false,
      "t": 66571.36200000004,
      "d": 80.3570624999993,
      "v": 43
    },
    {
      "midi": 84,
      "hit": false,
      "t": 66571.36200000004,
      "d": 89.28562500000407,
      "v": 58
    },
    {
      "midi": 74,
      "hit": false,
      "t": 66571.36200000004,
      "d": 98.21418750000885,
      "v": 46
    },
    {
      "midi": 79,
      "hit": false,
      "t": 66857.07600000004,
      "d": 98.2141874999943,
      "v": 57
    },
    {
      "midi": 83,
      "hit": false,
      "t": 66857.07600000004,
      "d": 98.2141874999943,
      "v": 48
    },
    {
      "midi": 74,
      "hit": false,
      "t": 66857.07600000004,
      "d": 102.6784687499894,
      "v": 34
    },
    {
      "midi": 77,
      "hit": false,
      "t": 66857.07600000004,
      "d": 111.60703124999418,
      "v": 47
    },
    {
      "midi": 79,
      "hit": false,
      "t": 67142.79000000004,
      "d": 66.96421874999942,
      "v": 32
    },
    {
      "midi": 77,
      "hit": false,
      "t": 67142.79000000004,
      "d": 80.3570624999993,
      "v": 36
    },
    {
      "midi": 74,
      "hit": false,
      "t": 67142.79000000004,
      "d": 84.82134374999441,
      "v": 45
    },
    {
      "midi": 83,
      "hit": false,
      "t": 67142.79000000004,
      "d": 98.2141874999943,
      "v": 52
    },
    {
      "midi": 77,
      "hit": false,
      "t": 67428.50400000003,
      "d": 75.89278125000419,
      "v": 34
    },
    {
      "midi": 79,
      "hit": false,
      "t": 67428.50400000003,
      "d": 75.89278125000419,
      "v": 43
    },
    {
      "midi": 74,
      "hit": false,
      "t": 67428.50400000003,
      "d": 89.28562500000407,
      "v": 42
    },
    {
      "midi": 83,
      "hit": false,
      "t": 67428.50400000003,
      "d": 102.67846875000396,
      "v": 53
    },
    {
      "midi": 79,
      "hit": false,
      "t": 67714.21800000004,
      "d": 71.42849999999453,
      "v": 47
    },
    {
      "midi": 74,
      "hit": false,
      "t": 67714.21800000004,
      "d": 80.3570624999993,
      "v": 45
    },
    {
      "midi": 77,
      "hit": false,
      "t": 67714.21800000004,
      "d": 84.82134374999441,
      "v": 43
    },
    {
      "midi": 83,
      "hit": false,
      "t": 67714.21800000004,
      "d": 89.28562499998952,
      "v": 51
    },
    {
      "midi": 79,
      "hit": false,
      "t": 67999.93200000003,
      "d": 62.49993750000431,
      "v": 47
    },
    {
      "midi": 77,
      "hit": false,
      "t": 67999.93200000003,
      "d": 66.96421874999942,
      "v": 38
    },
    {
      "midi": 83,
      "hit": false,
      "t": 67999.93200000003,
      "d": 75.89278125000419,
      "v": 46
    },
    {
      "midi": 74,
      "hit": false,
      "t": 67999.93200000003,
      "d": 89.28562500000407,
      "v": 51
    },
    {
      "midi": 79,
      "hit": false,
      "t": 68285.64600000004,
      "d": 71.42849999999453,
      "v": 43
    },
    {
      "midi": 77,
      "hit": false,
      "t": 68285.64600000004,
      "d": 80.3570624999993,
      "v": 41
    },
    {
      "midi": 74,
      "hit": false,
      "t": 68285.64600000004,
      "d": 84.82134374999441,
      "v": 50
    },
    {
      "midi": 83,
      "hit": false,
      "t": 68285.64600000004,
      "d": 93.74990624999919,
      "v": 50
    },
    {
      "midi": 79,
      "hit": false,
      "t": 68571.36000000003,
      "d": 84.82134374999441,
      "v": 60
    },
    {
      "midi": 84,
      "hit": false,
      "t": 68571.36000000003,
      "d": 98.2141874999943,
      "v": 55
    },
    {
      "midi": 76,
      "hit": false,
      "t": 68571.36000000003,
      "d": 102.6784687499894,
      "v": 60
    },
    {
      "midi": 79,
      "hit": false,
      "t": 68857.07400000002,
      "d": 80.3570624999993,
      "v": 46
    },
    {
      "midi": 84,
      "hit": false,
      "t": 68857.07400000002,
      "d": 84.82134374999441,
      "v": 45
    },
    {
      "midi": 76,
      "hit": false,
      "t": 68857.07400000002,
      "d": 93.74990624999919,
      "v": 46
    },
    {
      "midi": 79,
      "hit": false,
      "t": 69142.78800000002,
      "d": 80.3570624999993,
      "v": 55
    },
    {
      "midi": 84,
      "hit": false,
      "t": 69142.78800000002,
      "d": 84.82134374999441,
      "v": 50
    },
    {
      "midi": 76,
      "hit": false,
      "t": 69142.78800000002,
      "d": 93.74990624999919,
      "v": 50
    },
    {
      "midi": 79,
      "hit": false,
      "t": 69428.50200000001,
      "d": 75.89278125000419,
      "v": 55
    },
    {
      "midi": 76,
      "hit": false,
      "t": 69428.50200000001,
      "d": 89.28562500000407,
      "v": 58
    },
    {
      "midi": 84,
      "hit": false,
      "t": 69428.50200000001,
      "d": 93.74990624999919,
      "v": 52
    },
    {
      "midi": 79,
      "hit": false,
      "t": 69714.216,
      "d": 75.89278125000419,
      "v": 52
    },
    {
      "midi": 84,
      "hit": false,
      "t": 69714.216,
      "d": 84.82134375000896,
      "v": 52
    },
    {
      "midi": 76,
      "hit": false,
      "t": 69714.216,
      "d": 89.28562500000407,
      "v": 52
    },
    {
      "midi": 84,
      "hit": false,
      "t": 69999.93000000001,
      "d": 75.89278125000419,
      "v": 48
    },
    {
      "midi": 79,
      "hit": false,
      "t": 69999.93000000001,
      "d": 84.82134375000896,
      "v": 56
    },
    {
      "midi": 76,
      "hit": false,
      "t": 69999.93000000001,
      "d": 89.28562500000407,
      "v": 48
    },
    {
      "midi": 81,
      "hit": false,
      "t": 70285.64400000001,
      "d": 80.3570624999993,
      "v": 52
    },
    {
      "midi": 84,
      "hit": false,
      "t": 70285.64400000001,
      "d": 89.28562500000407,
      "v": 52
    },
    {
      "midi": 76,
      "hit": false,
      "t": 70285.64400000001,
      "d": 98.21418750000885,
      "v": 53
    },
    {
      "midi": 81,
      "hit": false,
      "t": 70571.35800000002,
      "d": 80.3570624999993,
      "v": 41
    },
    {
      "midi": 84,
      "hit": false,
      "t": 70571.35800000002,
      "d": 84.82134374999441,
      "v": 48
    },
    {
      "midi": 76,
      "hit": false,
      "t": 70571.35800000002,
      "d": 98.2141874999943,
      "v": 47
    },
    {
      "midi": 81,
      "hit": false,
      "t": 70857.07200000001,
      "d": 75.89278125000419,
      "v": 42
    },
    {
      "midi": 84,
      "hit": false,
      "t": 70857.07200000001,
      "d": 80.3570624999993,
      "v": 46
    },
    {
      "midi": 76,
      "hit": false,
      "t": 70857.07200000001,
      "d": 98.2141874999943,
      "v": 46
    },
    {
      "midi": 84,
      "hit": false,
      "t": 71142.78600000001,
      "d": 75.89278125000419,
      "v": 45
    },
    {
      "midi": 81,
      "hit": false,
      "t": 71142.78600000001,
      "d": 84.82134375000896,
      "v": 51
    },
    {
      "midi": 76,
      "hit": false,
      "t": 71142.78600000001,
      "d": 93.74990625001374,
      "v": 47
    },
    {
      "midi": 84,
      "hit": false,
      "t": 71428.50000000001,
      "d": 58.035656249994645,
      "v": 41
    },
    {
      "midi": 81,
      "hit": false,
      "t": 71428.50000000001,
      "d": 75.89278124998964,
      "v": 47
    },
    {
      "midi": 76,
      "hit": false,
      "t": 71428.50000000001,
      "d": 89.28562499998952,
      "v": 46
    },
    {
      "midi": 84,
      "hit": false,
      "t": 71714.214,
      "d": 75.89278125000419,
      "v": 43
    },
    {
      "midi": 81,
      "hit": false,
      "t": 71714.214,
      "d": 84.82134375000896,
      "v": 46
    },
    {
      "midi": 76,
      "hit": false,
      "t": 71714.214,
      "d": 98.21418750000885,
      "v": 42
    },
    {
      "midi": 74,
      "hit": false,
      "t": 71999.92800000001,
      "d": 93.74990624999919,
      "v": 53
    },
    {
      "midi": 84,
      "hit": false,
      "t": 71999.92800000001,
      "d": 93.74990624999919,
      "v": 56
    },
    {
      "midi": 77,
      "hit": false,
      "t": 71999.92800000001,
      "d": 98.2141874999943,
      "v": 53
    },
    {
      "midi": 74,
      "hit": false,
      "t": 72285.642,
      "d": 80.3570624999993,
      "v": 42
    },
    {
      "midi": 84,
      "hit": false,
      "t": 72285.642,
      "d": 80.3570624999993,
      "v": 53
    },
    {
      "midi": 77,
      "hit": false,
      "t": 72285.642,
      "d": 89.28562500000407,
      "v": 43
    },
    {
      "midi": 77,
      "hit": false,
      "t": 72571.35600000001,
      "d": 75.89278125000419,
      "v": 36
    },
    {
      "midi": 74,
      "hit": false,
      "t": 72571.35600000001,
      "d": 84.82134375000896,
      "v": 43
    },
    {
      "midi": 84,
      "hit": false,
      "t": 72571.35600000001,
      "d": 89.28562500000407,
      "v": 56
    },
    {
      "midi": 77,
      "hit": false,
      "t": 72857.07000000002,
      "d": 80.3570624999993,
      "v": 42
    },
    {
      "midi": 74,
      "hit": false,
      "t": 72857.07000000002,
      "d": 84.82134374999441,
      "v": 47
    },
    {
      "midi": 84,
      "hit": false,
      "t": 72857.07000000002,
      "d": 89.28562499998952,
      "v": 56
    },
    {
      "midi": 77,
      "hit": false,
      "t": 73142.78400000001,
      "d": 71.42849999999453,
      "v": 40
    },
    {
      "midi": 74,
      "hit": false,
      "t": 73142.78400000001,
      "d": 84.82134374999441,
      "v": 45
    },
    {
      "midi": 84,
      "hit": false,
      "t": 73142.78400000001,
      "d": 93.74990624999919,
      "v": 57
    },
    {
      "midi": 84,
      "hit": false,
      "t": 73428.498,
      "d": 75.89278125000419,
      "v": 56
    },
    {
      "midi": 77,
      "hit": false,
      "t": 73428.498,
      "d": 80.3570624999993,
      "v": 43
    },
    {
      "midi": 74,
      "hit": false,
      "t": 73428.498,
      "d": 93.74990624999919,
      "v": 47
    },
    {
      "midi": 79,
      "hit": false,
      "t": 73714.212,
      "d": 89.28562500000407,
      "v": 55
    },
    {
      "midi": 83,
      "hit": false,
      "t": 73714.212,
      "d": 93.74990624999919,
      "v": 50
    },
    {
      "midi": 74,
      "hit": false,
      "t": 73714.212,
      "d": 98.2141874999943,
      "v": 52
    },
    {
      "midi": 77,
      "hit": false,
      "t": 73714.212,
      "d": 102.6784687499894,
      "v": 48
    },
    {
      "midi": 79,
      "hit": false,
      "t": 73999.92599999999,
      "d": 58.035656249994645,
      "v": 43
    },
    {
      "midi": 77,
      "hit": false,
      "t": 73999.92599999999,
      "d": 71.42849999999453,
      "v": 37
    },
    {
      "midi": 83,
      "hit": false,
      "t": 73999.92599999999,
      "d": 89.28562499998952,
      "v": 50
    },
    {
      "midi": 74,
      "hit": false,
      "t": 73999.92599999999,
      "d": 98.2141874999943,
      "v": 45
    },
    {
      "midi": 79,
      "hit": false,
      "t": 74285.63999999998,
      "d": 53.571374999999534,
      "v": 32
    },
    {
      "midi": 77,
      "hit": false,
      "t": 74285.63999999998,
      "d": 71.42849999999453,
      "v": 35
    },
    {
      "midi": 83,
      "hit": false,
      "t": 74285.63999999998,
      "d": 84.82134374999441,
      "v": 45
    },
    {
      "midi": 74,
      "hit": false,
      "t": 74285.63999999998,
      "d": 89.28562499998952,
      "v": 47
    },
    {
      "midi": 79,
      "hit": false,
      "t": 74571.35399999998,
      "d": 53.571374999999534,
      "v": 43
    },
    {
      "midi": 77,
      "hit": false,
      "t": 74571.35399999998,
      "d": 71.42849999999453,
      "v": 46
    },
    {
      "midi": 74,
      "hit": false,
      "t": 74571.35399999998,
      "d": 84.82134374999441,
      "v": 51
    },
    {
      "midi": 83,
      "hit": false,
      "t": 74571.35399999998,
      "d": 84.82134374999441,
      "v": 51
    },
    {
      "midi": 79,
      "hit": false,
      "t": 74857.06799999997,
      "d": 49.107093750004424,
      "v": 23
    },
    {
      "midi": 77,
      "hit": false,
      "t": 74857.06799999997,
      "d": 66.96421874999942,
      "v": 35
    },
    {
      "midi": 83,
      "hit": false,
      "t": 74857.06799999997,
      "d": 84.82134374999441,
      "v": 47
    },
    {
      "midi": 74,
      "hit": false,
      "t": 74857.06799999997,
      "d": 89.28562499998952,
      "v": 46
    },
    {
      "midi": 79,
      "hit": false,
      "t": 75142.78199999996,
      "d": 58.035656249994645,
      "v": 31
    },
    {
      "midi": 77,
      "hit": false,
      "t": 75142.78199999996,
      "d": 71.42849999999453,
      "v": 34
    },
    {
      "midi": 83,
      "hit": false,
      "t": 75142.78199999996,
      "d": 89.28562499998952,
      "v": 47
    },
    {
      "midi": 74,
      "hit": false,
      "t": 75142.78199999996,
      "d": 93.74990624998463,
      "v": 45
    },
    {
      "midi": 86,
      "hit": false,
      "t": 75477.60309375002,
      "d": 98.2141874999943,
      "v": 64
    },
    {
      "midi": 74,
      "hit": false,
      "t": 75482.06737500001,
      "d": 93.74990624999919,
      "v": 66
    },
    {
      "midi": 84,
      "hit": false,
      "t": 76040.10253125001,
      "d": 71.42849999999453,
      "v": 63
    },
    {
      "midi": 72,
      "hit": false,
      "t": 76044.56681250001,
      "d": 71.42849999999453,
      "v": 64
    },
    {
      "midi": 67,
      "hit": false,
      "t": 76571.352,
      "d": 71.42849999999453,
      "v": 66
    },
    {
      "midi": 79,
      "hit": false,
      "t": 76575.81628125,
      "d": 71.42849999999453,
      "v": 66
    },
    {
      "midi": 86,
      "hit": false,
      "t": 77151.70856249999,
      "d": 71.42849999999453,
      "v": 66
    },
    {
      "midi": 74,
      "hit": false,
      "t": 77156.17284374998,
      "d": 66.96421874999942,
      "v": 63
    },
    {
      "midi": 72,
      "hit": false,
      "t": 77709.74371874999,
      "d": 75.89278125000419,
      "v": 62
    },
    {
      "midi": 84,
      "hit": false,
      "t": 77709.74371874999,
      "d": 75.89278125000419,
      "v": 67
    },
    {
      "midi": 79,
      "hit": false,
      "t": 78285.636,
      "d": 71.42849999999453,
      "v": 62
    },
    {
      "midi": 67,
      "hit": false,
      "t": 78290.10028125,
      "d": 75.89278125000419,
      "v": 61
    },
    {
      "midi": 72,
      "hit": false,
      "t": 78830.2783125,
      "d": 1169.6416874999995,
      "v": 56
    },
    {
      "midi": 64,
      "hit": false,
      "t": 78834.74259375,
      "d": 1107.1417500000098,
      "v": 52
    },
    {
      "midi": 67,
      "hit": false,
      "t": 78834.74259375,
      "d": 1124.9988750000048,
      "v": 47
    },
    {
      "midi": 69,
      "hit": false,
      "t": 78843.67115625,
      "d": 1124.9988750000048,
      "v": 50
    },
    {
      "midi": 76,
      "hit": false,
      "t": 80834.74059375,
      "d": 183.03553125000326,
      "v": 60
    },
    {
      "midi": 76,
      "hit": false,
      "t": 81111.52603125,
      "d": 107.14274999999907,
      "v": 20
    },
    {
      "midi": 84,
      "hit": false,
      "t": 81133.84743750001,
      "d": 84.82134374999441,
      "v": 51
    },
    {
      "midi": 83,
      "hit": false,
      "t": 81455.2756875,
      "d": 102.6784687499894,
      "v": 53
    },
    {
      "midi": 74,
      "hit": false,
      "t": 81459.73996875,
      "d": 107.14274999999907,
      "v": 56
    },
    {
      "midi": 81,
      "hit": false,
      "t": 81995.45371875,
      "d": 84.82134374999441,
      "v": 55
    },
    {
      "midi": 72,
      "hit": false,
      "t": 81999.91799999999,
      "d": 93.74990624999919,
      "v": 46
    },
    {
      "midi": 76,
      "hit": false,
      "t": 82303.489125,
      "d": 2897.318531249999,
      "v": 55
    },
    {
      "midi": 72,
      "hit": false,
      "t": 82307.95340624999,
      "d": 2910.711374999999,
      "v": 41
    },
    {
      "midi": 78,
      "hit": false,
      "t": 83209.73821874999,
      "d": 1982.1408749999973,
      "v": 42
    },
    {
      "midi": 81,
      "hit": false,
      "t": 83999.91599999998,
      "d": 1191.9630937500042,
      "v": 35
    },
    {
      "midi": 74,
      "hit": false,
      "t": 85982.05687499995,
      "d": 53.571374999999534,
      "v": 16
    },
    {
      "midi": 57,
      "hit": false,
      "t": 85990.9854375,
      "d": 174.1069687499985,
      "v": 64
    },
    {
      "midi": 60,
      "hit": false,
      "t": 86138.30671875,
      "d": 156.2498437500035,
      "v": 63
    },
    {
      "midi": 74,
      "hit": false,
      "t": 86272.23515624995,
      "d": 66.96421874999942,
      "v": 46
    },
    {
      "midi": 72,
      "hit": false,
      "t": 86276.69943749995,
      "d": 62.49993750000431,
      "v": 41
    },
    {
      "midi": 79,
      "hit": false,
      "t": 86285.62799999995,
      "d": 49.107093750004424,
      "v": 36
    },
    {
      "midi": 65,
      "hit": false,
      "t": 86285.628,
      "d": 80.3570624999993,
      "v": 64
    },
    {
      "midi": 74,
      "hit": false,
      "t": 86580.27056249995,
      "d": 58.035656249994645,
      "v": 55
    },
    {
      "midi": 72,
      "hit": false,
      "t": 86580.27056249995,
      "d": 66.96421874999942,
      "v": 56
    },
    {
      "midi": 79,
      "hit": false,
      "t": 86584.73484374995,
      "d": 62.49993750000431,
      "v": 45
    },
    {
      "midi": 69,
      "hit": false,
      "t": 86593.66340625,
      "d": 120.53559374999895,
      "v": 68
    },
    {
      "midi": 72,
      "hit": false,
      "t": 86740.9846875,
      "d": 142.8570000000036,
      "v": 57
    },
    {
      "midi": 72,
      "hit": false,
      "t": 86861.52028124995,
      "d": 66.96421874998487,
      "v": 60
    },
    {
      "midi": 77,
      "hit": false,
      "t": 86861.52028124999,
      "d": 80.3570624999993,
      "v": 62
    },
    {
      "midi": 74,
      "hit": false,
      "t": 86865.98456249994,
      "d": 58.035656249994645,
      "v": 61
    },
    {
      "midi": 79,
      "hit": false,
      "t": 86870.44884374994,
      "d": 62.499937499989755,
      "v": 52
    },
    {
      "midi": 72,
      "hit": false,
      "t": 87151.69856249992,
      "d": 71.42850000000908,
      "v": 69
    },
    {
      "midi": 74,
      "hit": false,
      "t": 87160.62712499993,
      "d": 53.571374999999534,
      "v": 63
    },
    {
      "midi": 79,
      "hit": false,
      "t": 87160.62712499993,
      "d": 71.42850000000908,
      "v": 56
    },
    {
      "midi": 81,
      "hit": false,
      "t": 87165.09140625,
      "d": 147.32128124999872,
      "v": 58
    },
    {
      "midi": 84,
      "hit": false,
      "t": 87312.4126875,
      "d": 138.39271874999395,
      "v": 42
    },
    {
      "midi": 89,
      "hit": false,
      "t": 87424.01971874999,
      "d": 58.035656249994645,
      "v": 60
    },
    {
      "midi": 72,
      "hit": false,
      "t": 87432.94828124993,
      "d": 75.89278124998964,
      "v": 71
    },
    {
      "midi": 79,
      "hit": false,
      "t": 87437.41256249993,
      "d": 75.89278124998964,
      "v": 55
    },
    {
      "midi": 74,
      "hit": false,
      "t": 87441.87684374992,
      "d": 53.571374999999534,
      "v": 66
    },
    {
      "midi": 72,
      "hit": false,
      "t": 87718.66228124991,
      "d": 71.42850000000908,
      "v": 69
    },
    {
      "midi": 74,
      "hit": false,
      "t": 87727.59084374992,
      "d": 53.571374999999534,
      "v": 66
    },
    {
      "midi": 79,
      "hit": false,
      "t": 87727.59084374992,
      "d": 71.42850000000908,
      "v": 57
    },
    {
      "midi": 72,
      "hit": false,
      "t": 88013.30484374992,
      "d": 71.42849999999453,
      "v": 71
    },
    {
      "midi": 74,
      "hit": false,
      "t": 88017.76912499992,
      "d": 58.035656249994645,
      "v": 69
    },
    {
      "midi": 79,
      "hit": false,
      "t": 88017.76912499992,
      "d": 71.42849999999453,
      "v": 64
    },
    {
      "midi": 72,
      "hit": false,
      "t": 88299.01884374992,
      "d": 71.42849999999453,
      "v": 71
    },
    {
      "midi": 79,
      "hit": false,
      "t": 88299.01884374992,
      "d": 75.89278124998964,
      "v": 58
    },
    {
      "midi": 74,
      "hit": false,
      "t": 88303.48312499991,
      "d": 58.035656249994645,
      "v": 68
    },
    {
      "midi": 72,
      "hit": false,
      "t": 88589.1971249999,
      "d": 71.42849999999453,
      "v": 64
    },
    {
      "midi": 74,
      "hit": false,
      "t": 88593.6614062499,
      "d": 53.571374999999534,
      "v": 64
    },
    {
      "midi": 79,
      "hit": false,
      "t": 88593.6614062499,
      "d": 71.42849999999453,
      "v": 52
    },
    {
      "midi": 72,
      "hit": false,
      "t": 88852.58971874989,
      "d": 75.89278124998964,
      "v": 66
    },
    {
      "midi": 79,
      "hit": false,
      "t": 88852.58971874989,
      "d": 75.89278124998964,
      "v": 55
    },
    {
      "midi": 74,
      "hit": false,
      "t": 88857.05399999989,
      "d": 58.035656249994645,
      "v": 63
    },
    {
      "midi": 63,
      "hit": false,
      "t": 89129.37515624988,
      "d": 357.14249999997264,
      "v": 64
    },
    {
      "midi": 72,
      "hit": false,
      "t": 89133.83943749988,
      "d": 352.67821874997753,
      "v": 69
    },
    {
      "midi": 96,
      "hit": false,
      "t": 89138.30371874987,
      "d": 343.7496562499873,
      "v": 73
    },
    {
      "midi": 67,
      "hit": false,
      "t": 89142.76799999987,
      "d": 339.2853749999922,
      "v": 67
    },
    {
      "midi": 91,
      "hit": false,
      "t": 89147.23228124986,
      "d": 343.7496562499873,
      "v": 73
    },
    {
      "midi": 87,
      "hit": false,
      "t": 89147.23228124986,
      "d": 361.6067812499823,
      "v": 68
    },
    {
      "midi": 75,
      "hit": false,
      "t": 89156.16084374987,
      "d": 308.0354062499973,
      "v": 79
    },
    {
      "midi": 67,
      "hit": false,
      "t": 89156.16084374998,
      "d": 491.0709375000006,
      "v": 82
    },
    {
      "midi": 72,
      "hit": false,
      "t": 89156.16084374998,
      "d": 491.0709375000006,
      "v": 68
    },
    {
      "midi": 84,
      "hit": false,
      "t": 89160.62512499986,
      "d": 303.5711250000022,
      "v": 79
    },
    {
      "midi": 63,
      "hit": false,
      "t": 89160.62512499998,
      "d": 491.0709375000006,
      "v": 79
    },
    {
      "midi": 79,
      "hit": false,
      "t": 89165.08940624986,
      "d": 290.1782812500023,
      "v": 79
    },
    {
      "midi": 84,
      "hit": false,
      "t": 92285.62199999997,
      "d": 294.6425624999829,
      "v": 62
    },
    {
      "midi": 79,
      "hit": false,
      "t": 92379.37190624997,
      "d": 214.28549999998359,
      "v": 58
    },
    {
      "midi": 77,
      "hit": false,
      "t": 92437.40756249997,
      "d": 196.4283749999886,
      "v": 58
    },
    {
      "midi": 75,
      "hit": false,
      "t": 92508.83606249996,
      "d": 156.24984374998894,
      "v": 64
    },
    {
      "midi": 72,
      "hit": false,
      "t": 92607.05024999996,
      "d": 316.96396874998754,
      "v": 84
    },
    {
      "midi": 46,
      "hit": false,
      "t": 95995.43971874994,
      "d": 2879.4614062499895,
      "v": 42
    },
    {
      "midi": 67,
      "hit": false,
      "t": 96004.36828124995,
      "d": 156.24984374998894,
      "v": 56
    },
    {
      "midi": 62,
      "hit": false,
      "t": 96008.83256249994,
      "d": 196.42837500000314,
      "v": 52
    },
    {
      "midi": 56,
      "hit": false,
      "t": 96008.83256249994,
      "d": 205.35693750000792,
      "v": 41
    },
    {
      "midi": 60,
      "hit": false,
      "t": 96017.76112499995,
      "d": 178.5712499999936,
      "v": 55
    },
    {
      "midi": 60,
      "hit": false,
      "t": 96263.29659374995,
      "d": 209.82121875000303,
      "v": 56
    },
    {
      "midi": 62,
      "hit": false,
      "t": 96276.68943749995,
      "d": 214.28549999999814,
      "v": 61
    },
    {
      "midi": 56,
      "hit": false,
      "t": 96281.15371874995,
      "d": 2540.1760312499828,
      "v": 35
    },
    {
      "midi": 66,
      "hit": false,
      "t": 96290.08228124995,
      "d": 129.46415625000373,
      "v": 53
    },
    {
      "midi": 60,
      "hit": false,
      "t": 96535.61774999995,
      "d": 2227.6763437499903,
      "v": 23
    },
    {
      "midi": 62,
      "hit": false,
      "t": 96535.61774999995,
      "d": 2241.06918749999,
      "v": 67
    },
    {
      "midi": 65,
      "hit": false,
      "t": 96553.47487499994,
      "d": 2299.104843749985,
      "v": 67
    },
    {
      "midi": 39,
      "hit": false,
      "t": 99397.22203124993,
      "d": 1058.0346562499763,
      "v": 47
    },
    {
      "midi": 51,
      "hit": false,
      "t": 99401.68631249992,
      "d": 1147.3202812499658,
      "v": 47
    },
    {
      "midi": 58,
      "hit": false,
      "t": 99406.15059374992,
      "d": 366.07106249999197,
      "v": 56
    },
    {
      "midi": 62,
      "hit": false,
      "t": 99410.61487499991,
      "d": 294.64256249999744,
      "v": 64
    },
    {
      "midi": 65,
      "hit": false,
      "t": 99415.0791562499,
      "d": 254.4640312499978,
      "v": 62
    },
    {
      "midi": 70,
      "hit": false,
      "t": 99946.32862499991,
      "d": 174.1069687499985,
      "v": 61
    },
    {
      "midi": 58,
      "hit": false,
      "t": 99968.65003124991,
      "d": 84.82134374999441,
      "v": 63
    },
    {
      "midi": 58,
      "hit": false,
      "t": 100535.6137499999,
      "d": 80.35706249998475,
      "v": 53
    },
    {
      "midi": 63,
      "hit": false,
      "t": 100540.0780312499,
      "d": 89.28562499998952,
      "v": 56
    },
    {
      "midi": 67,
      "hit": false,
      "t": 100544.54231249989,
      "d": 98.2141874999943,
      "v": 60
    },
    {
      "midi": 70,
      "hit": false,
      "t": 101107.04174999989,
      "d": 120.5355937499844,
      "v": 50
    },
    {
      "midi": 74,
      "hit": false,
      "t": 101111.50603124988,
      "d": 111.60703124999418,
      "v": 58
    },
    {
      "midi": 77,
      "hit": false,
      "t": 101111.50603124988,
      "d": 124.99987499999406,
      "v": 53
    },
    {
      "midi": 82,
      "hit": false,
      "t": 101682.93403124988,
      "d": 129.46415625000373,
      "v": 58
    },
    {
      "midi": 70,
      "hit": false,
      "t": 101691.86259374989,
      "d": 98.2141874999943,
      "v": 41
    },
    {
      "midi": 75,
      "hit": false,
      "t": 102263.29059374989,
      "d": 191.96409374999348,
      "v": 58
    },
    {
      "midi": 70,
      "hit": false,
      "t": 102589.18312499988,
      "d": 138.39271874999395,
      "v": 61
    },
    {
      "midi": 63,
      "hit": false,
      "t": 102861.50428124987,
      "d": 2089.2836249999673,
      "v": 52
    },
    {
      "midi": 70,
      "hit": false,
      "t": 102865.96856249987,
      "d": 834.8205937499879,
      "v": 46
    },
    {
      "midi": 75,
      "hit": false,
      "t": 102870.43284374986,
      "d": 843.7491562499927,
      "v": 52
    },
    {
      "midi": 56,
      "hit": false,
      "t": 102874.89712499986,
      "d": 2044.640812499987,
      "v": 51
    },
    {
      "midi": 72,
      "hit": false,
      "t": 102879.36140624985,
      "d": 808.0349062500027,
      "v": 60
    },
    {
      "midi": 82,
      "hit": false,
      "t": 104040.07453124986,
      "d": 357.14250000000175,
      "v": 42
    },
    {
      "midi": 91,
      "hit": false,
      "t": 104281.14571874986,
      "d": 316.96396874998754,
      "v": 21
    },
    {
      "midi": 87,
      "hit": false,
      "t": 104575.78828124986,
      "d": 84.82134374999441,
      "v": 51
    },
    {
      "midi": 82,
      "hit": false,
      "t": 104580.25256249985,
      "d": 80.3570624999993,
      "v": 18
    },
    {
      "midi": 84,
      "hit": false,
      "t": 104593.64540624985,
      "d": 53.571374999999534,
      "v": 47
    },
    {
      "midi": 65,
      "hit": false,
      "t": 106272.21515624983,
      "d": 1031.248968749991,
      "v": 57
    },
    {
      "midi": 60,
      "hit": false,
      "t": 106276.67943749983,
      "d": 982.1418749999866,
      "v": 55
    },
    {
      "midi": 56,
      "hit": false,
      "t": 106281.14371874982,
      "d": 986.6061562499963,
      "v": 51
    },
    {
      "midi": 62,
      "hit": false,
      "t": 106285.60799999982,
      "d": 982.1418750000012,
      "v": 57
    },
    {
      "midi": 41,
      "hit": false,
      "t": 106321.32224999982,
      "d": 1249.9987499999988,
      "v": 31
    },
    {
      "midi": 68,
      "hit": false,
      "t": 108040.07053124982,
      "d": 388.3924687499966,
      "v": 33
    },
    {
      "midi": 77,
      "hit": false,
      "t": 108294.53456249982,
      "d": 281.24971874999756,
      "v": 45
    },
    {
      "midi": 72,
      "hit": false,
      "t": 108544.53431249982,
      "d": 316.96396874998754,
      "v": 40
    },
    {
      "midi": 68,
      "hit": false,
      "t": 108848.1054374998,
      "d": 80.3570624999993,
      "v": 42
    },
    {
      "midi": 68,
      "hit": false,
      "t": 109709.71171874981,
      "d": 339.28537500000675,
      "v": 56
    },
    {
      "midi": 62,
      "hit": false,
      "t": 109714.1759999998,
      "d": 357.1425000000163,
      "v": 53
    },
    {
      "midi": 65,
      "hit": false,
      "t": 109714.1759999998,
      "d": 357.1425000000163,
      "v": 58
    },
    {
      "midi": 72,
      "hit": false,
      "t": 110281.13971874982,
      "d": 102.6784687499894,
      "v": 57
    },
    {
      "midi": 68,
      "hit": false,
      "t": 110285.60399999982,
      "d": 80.3570624999993,
      "v": 45
    },
    {
      "midi": 65,
      "hit": false,
      "t": 110290.06828124981,
      "d": 66.96421874999942,
      "v": 46
    },
    {
      "midi": 77,
      "hit": false,
      "t": 110807.92490624981,
      "d": 120.53559374999895,
      "v": 36
    },
    {
      "midi": 72,
      "hit": false,
      "t": 110816.85346874982,
      "d": 93.74990624999919,
      "v": 56
    },
    {
      "midi": 74,
      "hit": false,
      "t": 111406.13859374981,
      "d": 138.39271874999395,
      "v": 43
    },
    {
      "midi": 80,
      "hit": false,
      "t": 112008.81656249981,
      "d": 102.67846875000396,
      "v": 30
    },
    {
      "midi": 84,
      "hit": false,
      "t": 112557.92315624982,
      "d": 62.49993750000431,
      "v": 50
    },
    {
      "midi": 55,
      "hit": false,
      "t": 113147.20828124981,
      "d": 629.4636562499945,
      "v": 55
    },
    {
      "midi": 79,
      "hit": false,
      "t": 113156.13684374982,
      "d": 98.21418749997974,
      "v": 66
    },
    {
      "midi": 67,
      "hit": false,
      "t": 113160.60112499981,
      "d": 89.28562499998952,
      "v": 62
    },
    {
      "midi": 67,
      "hit": false,
      "t": 113700.7791562498,
      "d": 93.74990624999919,
      "v": 67
    },
    {
      "midi": 72,
      "hit": false,
      "t": 113700.7791562498,
      "d": 107.14274999999907,
      "v": 73
    },
    {
      "midi": 55,
      "hit": false,
      "t": 114022.2074062498,
      "d": 89.28562500000407,
      "v": 46
    },
    {
      "midi": 67,
      "hit": false,
      "t": 114276.6714374998,
      "d": 80.3570624999993,
      "v": 66
    },
    {
      "midi": 74,
      "hit": false,
      "t": 114276.6714374998,
      "d": 80.3570624999993,
      "v": 69
    },
    {
      "midi": 55,
      "hit": false,
      "t": 114584.7068437498,
      "d": 66.96421874999942,
      "v": 52
    },
    {
      "midi": 79,
      "hit": false,
      "t": 114848.0994374998,
      "d": 80.3570624999993,
      "v": 73
    },
    {
      "midi": 67,
      "hit": false,
      "t": 114857.0279999998,
      "d": 58.035656249994645,
      "v": 68
    },
    {
      "midi": 69,
      "hit": false,
      "t": 114874.8851249998,
      "d": 26.785687499999767,
      "v": 43
    },
    {
      "midi": 55,
      "hit": false,
      "t": 115147.20628124979,
      "d": 75.89278125000419,
      "v": 57
    },
    {
      "midi": 67,
      "hit": false,
      "t": 115415.06315624979,
      "d": 84.82134374999441,
      "v": 66
    },
    {
      "midi": 72,
      "hit": false,
      "t": 115419.52743749978,
      "d": 84.82134374999441,
      "v": 73
    },
    {
      "midi": 55,
      "hit": false,
      "t": 115432.92028124978,
      "d": 71.42849999999453,
      "v": 55
    },
    {
      "midi": 55,
      "hit": false,
      "t": 115736.49140624977,
      "d": 62.49993750000431,
      "v": 55
    },
    {
      "midi": 67,
      "hit": false,
      "t": 115995.41971874978,
      "d": 66.96421874999942,
      "v": 66
    },
    {
      "midi": 74,
      "hit": false,
      "t": 115995.41971874978,
      "d": 66.96421874999942,
      "v": 71
    },
    {
      "midi": 55,
      "hit": false,
      "t": 116004.34828124978,
      "d": 62.499937499989755,
      "v": 64
    },
    {
      "midi": 79,
      "hit": false,
      "t": 116571.31199999985,
      "d": 75.89278125000419,
      "v": 66
    },
    {
      "midi": 76,
      "hit": false,
      "t": 116571.31199999985,
      "d": 80.3570624999993,
      "v": 67
    },
    {
      "midi": 84,
      "hit": false,
      "t": 116571.31199999985,
      "d": 93.74990624999919,
      "v": 62
    },
    {
      "midi": 79,
      "hit": false,
      "t": 116857.02599999984,
      "d": 58.035656249994645,
      "v": 56
    },
    {
      "midi": 84,
      "hit": false,
      "t": 116857.02599999984,
      "d": 66.96421874999942,
      "v": 48
    },
    {
      "midi": 76,
      "hit": false,
      "t": 116857.02599999984,
      "d": 75.89278125000419,
      "v": 58
    },
    {
      "midi": 84,
      "hit": false,
      "t": 117142.73999999985,
      "d": 49.107093750004424,
      "v": 34
    },
    {
      "midi": 79,
      "hit": false,
      "t": 117142.73999999985,
      "d": 53.571374999999534,
      "v": 53
    },
    {
      "midi": 76,
      "hit": false,
      "t": 117142.73999999985,
      "d": 71.42849999999453,
      "v": 55
    },
    {
      "midi": 79,
      "hit": false,
      "t": 117428.45399999984,
      "d": 66.96421874999942,
      "v": 63
    },
    {
      "midi": 84,
      "hit": false,
      "t": 117428.45399999984,
      "d": 80.3570624999993,
      "v": 51
    },
    {
      "midi": 76,
      "hit": false,
      "t": 117428.45399999984,
      "d": 84.82134374999441,
      "v": 63
    },
    {
      "midi": 79,
      "hit": false,
      "t": 117714.16799999983,
      "d": 71.42849999999453,
      "v": 52
    },
    {
      "midi": 76,
      "hit": false,
      "t": 117714.16799999983,
      "d": 75.89278124998964,
      "v": 55
    },
    {
      "midi": 84,
      "hit": false,
      "t": 117714.16799999983,
      "d": 75.89278124998964,
      "v": 42
    },
    {
      "midi": 79,
      "hit": false,
      "t": 117999.88199999982,
      "d": 71.42849999999453,
      "v": 51
    },
    {
      "midi": 84,
      "hit": false,
      "t": 117999.88199999982,
      "d": 75.89278124998964,
      "v": 40
    },
    {
      "midi": 76,
      "hit": false,
      "t": 117999.88199999982,
      "d": 80.35706249998475,
      "v": 50
    },
    {
      "midi": 81,
      "hit": false,
      "t": 118285.5959999998,
      "d": 71.42849999999453,
      "v": 60
    },
    {
      "midi": 84,
      "hit": false,
      "t": 118285.5959999998,
      "d": 84.82134374999441,
      "v": 47
    },
    {
      "midi": 76,
      "hit": false,
      "t": 118285.5959999998,
      "d": 89.28562499998952,
      "v": 58
    },
    {
      "midi": 84,
      "hit": false,
      "t": 118571.3099999998,
      "d": 58.035656249994645,
      "v": 36
    },
    {
      "midi": 81,
      "hit": false,
      "t": 118571.3099999998,
      "d": 62.499937499989755,
      "v": 41
    },
    {
      "midi": 76,
      "hit": false,
      "t": 118571.3099999998,
      "d": 93.74990624998463,
      "v": 45
    },
    {
      "midi": 81,
      "hit": false,
      "t": 118857.02399999977,
      "d": 66.96421874999942,
      "v": 53
    },
    {
      "midi": 84,
      "hit": false,
      "t": 118857.02399999977,
      "d": 75.89278125000419,
      "v": 45
    },
    {
      "midi": 76,
      "hit": false,
      "t": 118857.02399999977,
      "d": 89.28562500000407,
      "v": 52
    },
    {
      "midi": 81,
      "hit": false,
      "t": 119142.73799999978,
      "d": 66.96421874999942,
      "v": 52
    },
    {
      "midi": 84,
      "hit": false,
      "t": 119142.73799999978,
      "d": 71.42849999999453,
      "v": 45
    },
    {
      "midi": 76,
      "hit": false,
      "t": 119142.73799999978,
      "d": 89.28562499998952,
      "v": 53
    },
    {
      "midi": 84,
      "hit": false,
      "t": 119428.45199999977,
      "d": 44.64281249999476,
      "v": 40
    },
    {
      "midi": 81,
      "hit": false,
      "t": 119428.45199999977,
      "d": 66.96421874999942,
      "v": 51
    },
    {
      "midi": 76,
      "hit": false,
      "t": 119428.45199999977,
      "d": 89.28562500000407,
      "v": 50
    },
    {
      "midi": 84,
      "hit": false,
      "t": 119714.16599999978,
      "d": 49.107093750004424,
      "v": 35
    },
    {
      "midi": 76,
      "hit": false,
      "t": 119714.16599999978,
      "d": 93.74990624999919,
      "v": 46
    },
    {
      "midi": 81,
      "hit": false,
      "t": 119714.16599999978,
      "d": 93.74990624999919,
      "v": 56
    },
    {
      "midi": 74,
      "hit": false,
      "t": 119999.87999999977,
      "d": 89.28562500000407,
      "v": 55
    },
    {
      "midi": 77,
      "hit": false,
      "t": 119999.87999999977,
      "d": 93.74990624999919,
      "v": 55
    },
    {
      "midi": 84,
      "hit": false,
      "t": 119999.87999999977,
      "d": 98.2141874999943,
      "v": 56
    },
    {
      "midi": 74,
      "hit": false,
      "t": 120285.59399999976,
      "d": 80.3570624999993,
      "v": 41
    },
    {
      "midi": 77,
      "hit": false,
      "t": 120285.59399999976,
      "d": 84.82134374999441,
      "v": 45
    },
    {
      "midi": 84,
      "hit": false,
      "t": 120285.59399999976,
      "d": 89.28562499998952,
      "v": 56
    },
    {
      "midi": 74,
      "hit": false,
      "t": 120571.30799999976,
      "d": 75.89278125000419,
      "v": 43
    },
    {
      "midi": 77,
      "hit": false,
      "t": 120571.30799999976,
      "d": 84.82134375000896,
      "v": 47
    },
    {
      "midi": 84,
      "hit": false,
      "t": 120571.30799999976,
      "d": 84.82134375000896,
      "v": 57
    },
    {
      "midi": 74,
      "hit": false,
      "t": 120857.02199999976,
      "d": 89.28562500000407,
      "v": 53
    },
    {
      "midi": 77,
      "hit": false,
      "t": 120857.02199999976,
      "d": 93.74990624999919,
      "v": 53
    },
    {
      "midi": 84,
      "hit": false,
      "t": 120857.02199999976,
      "d": 93.74990624999919,
      "v": 62
    },
    {
      "midi": 77,
      "hit": false,
      "t": 121142.73599999976,
      "d": 80.3570624999993,
      "v": 48
    },
    {
      "midi": 74,
      "hit": false,
      "t": 121142.73599999976,
      "d": 84.82134374999441,
      "v": 51
    },
    {
      "midi": 84,
      "hit": false,
      "t": 121142.73599999976,
      "d": 102.6784687499894,
      "v": 61
    },
    {
      "midi": 77,
      "hit": false,
      "t": 121428.44999999975,
      "d": 80.3570624999993,
      "v": 43
    },
    {
      "midi": 84,
      "hit": false,
      "t": 121428.44999999975,
      "d": 89.28562500000407,
      "v": 58
    },
    {
      "midi": 74,
      "hit": false,
      "t": 121428.44999999975,
      "d": 98.21418750000885,
      "v": 46
    },
    {
      "midi": 79,
      "hit": false,
      "t": 121714.16399999976,
      "d": 98.2141874999943,
      "v": 57
    },
    {
      "midi": 83,
      "hit": false,
      "t": 121714.16399999976,
      "d": 98.2141874999943,
      "v": 48
    },
    {
      "midi": 74,
      "hit": false,
      "t": 121714.16399999976,
      "d": 102.6784687499894,
      "v": 34
    },
    {
      "midi": 77,
      "hit": false,
      "t": 121714.16399999976,
      "d": 111.60703124999418,
      "v": 47
    },
    {
      "midi": 79,
      "hit": false,
      "t": 121999.87799999975,
      "d": 66.96421874999942,
      "v": 32
    },
    {
      "midi": 77,
      "hit": false,
      "t": 121999.87799999975,
      "d": 80.3570624999993,
      "v": 36
    },
    {
      "midi": 74,
      "hit": false,
      "t": 121999.87799999975,
      "d": 84.82134374999441,
      "v": 45
    },
    {
      "midi": 83,
      "hit": false,
      "t": 121999.87799999975,
      "d": 98.2141874999943,
      "v": 52
    },
    {
      "midi": 77,
      "hit": false,
      "t": 122285.59199999974,
      "d": 75.89278125000419,
      "v": 34
    },
    {
      "midi": 79,
      "hit": false,
      "t": 122285.59199999974,
      "d": 75.89278125000419,
      "v": 43
    },
    {
      "midi": 74,
      "hit": false,
      "t": 122285.59199999974,
      "d": 89.28562500000407,
      "v": 42
    },
    {
      "midi": 83,
      "hit": false,
      "t": 122285.59199999974,
      "d": 102.67846875000396,
      "v": 53
    },
    {
      "midi": 79,
      "hit": false,
      "t": 122571.30599999975,
      "d": 71.42849999999453,
      "v": 47
    },
    {
      "midi": 74,
      "hit": false,
      "t": 122571.30599999975,
      "d": 80.3570624999993,
      "v": 45
    },
    {
      "midi": 77,
      "hit": false,
      "t": 122571.30599999975,
      "d": 84.82134374999441,
      "v": 43
    },
    {
      "midi": 83,
      "hit": false,
      "t": 122571.30599999975,
      "d": 89.28562499998952,
      "v": 51
    },
    {
      "midi": 79,
      "hit": false,
      "t": 122857.01999999974,
      "d": 62.49993750000431,
      "v": 47
    },
    {
      "midi": 77,
      "hit": false,
      "t": 122857.01999999974,
      "d": 66.96421874999942,
      "v": 38
    },
    {
      "midi": 83,
      "hit": false,
      "t": 122857.01999999974,
      "d": 75.89278125000419,
      "v": 46
    },
    {
      "midi": 74,
      "hit": false,
      "t": 122857.01999999974,
      "d": 89.28562500000407,
      "v": 51
    },
    {
      "midi": 79,
      "hit": false,
      "t": 123142.73399999975,
      "d": 71.42849999999453,
      "v": 43
    },
    {
      "midi": 77,
      "hit": false,
      "t": 123142.73399999975,
      "d": 80.3570624999993,
      "v": 41
    },
    {
      "midi": 74,
      "hit": false,
      "t": 123142.73399999975,
      "d": 84.82134374999441,
      "v": 50
    },
    {
      "midi": 83,
      "hit": false,
      "t": 123142.73399999975,
      "d": 93.74990624999919,
      "v": 50
    },
    {
      "midi": 79,
      "hit": false,
      "t": 123428.44799999974,
      "d": 84.82134374999441,
      "v": 60
    },
    {
      "midi": 84,
      "hit": false,
      "t": 123428.44799999974,
      "d": 98.2141874999943,
      "v": 55
    },
    {
      "midi": 76,
      "hit": false,
      "t": 123428.44799999974,
      "d": 102.6784687499894,
      "v": 60
    },
    {
      "midi": 79,
      "hit": false,
      "t": 123714.16199999973,
      "d": 80.3570624999993,
      "v": 46
    },
    {
      "midi": 84,
      "hit": false,
      "t": 123714.16199999973,
      "d": 84.82134374999441,
      "v": 45
    },
    {
      "midi": 76,
      "hit": false,
      "t": 123714.16199999973,
      "d": 93.74990624999919,
      "v": 46
    },
    {
      "midi": 79,
      "hit": false,
      "t": 123999.87599999973,
      "d": 80.3570624999993,
      "v": 55
    },
    {
      "midi": 84,
      "hit": false,
      "t": 123999.87599999973,
      "d": 84.82134374999441,
      "v": 50
    },
    {
      "midi": 76,
      "hit": false,
      "t": 123999.87599999973,
      "d": 93.74990624999919,
      "v": 50
    },
    {
      "midi": 79,
      "hit": false,
      "t": 124285.58999999972,
      "d": 75.89278125000419,
      "v": 55
    },
    {
      "midi": 76,
      "hit": false,
      "t": 124285.58999999972,
      "d": 89.28562500000407,
      "v": 58
    },
    {
      "midi": 84,
      "hit": false,
      "t": 124285.58999999972,
      "d": 93.74990624999919,
      "v": 52
    },
    {
      "midi": 79,
      "hit": false,
      "t": 124571.30399999971,
      "d": 75.89278125000419,
      "v": 52
    },
    {
      "midi": 84,
      "hit": false,
      "t": 124571.30399999971,
      "d": 84.82134375000896,
      "v": 52
    },
    {
      "midi": 76,
      "hit": false,
      "t": 124571.30399999971,
      "d": 89.28562500000407,
      "v": 52
    },
    {
      "midi": 84,
      "hit": false,
      "t": 124857.01799999972,
      "d": 75.89278125000419,
      "v": 48
    },
    {
      "midi": 79,
      "hit": false,
      "t": 124857.01799999972,
      "d": 84.82134375000896,
      "v": 56
    },
    {
      "midi": 76,
      "hit": false,
      "t": 124857.01799999972,
      "d": 89.28562500000407,
      "v": 48
    },
    {
      "midi": 81,
      "hit": false,
      "t": 125142.73199999973,
      "d": 80.3570624999993,
      "v": 52
    },
    {
      "midi": 84,
      "hit": false,
      "t": 125142.73199999973,
      "d": 89.28562500000407,
      "v": 52
    },
    {
      "midi": 76,
      "hit": false,
      "t": 125142.73199999973,
      "d": 98.21418750000885,
      "v": 53
    },
    {
      "midi": 81,
      "hit": false,
      "t": 125428.44599999973,
      "d": 80.3570624999993,
      "v": 41
    },
    {
      "midi": 84,
      "hit": false,
      "t": 125428.44599999973,
      "d": 84.82134374999441,
      "v": 48
    },
    {
      "midi": 76,
      "hit": false,
      "t": 125428.44599999973,
      "d": 98.2141874999943,
      "v": 47
    },
    {
      "midi": 81,
      "hit": false,
      "t": 125714.15999999973,
      "d": 75.89278125000419,
      "v": 42
    },
    {
      "midi": 84,
      "hit": false,
      "t": 125714.15999999973,
      "d": 80.3570624999993,
      "v": 46
    },
    {
      "midi": 76,
      "hit": false,
      "t": 125714.15999999973,
      "d": 98.2141874999943,
      "v": 46
    },
    {
      "midi": 84,
      "hit": false,
      "t": 125999.87399999972,
      "d": 75.89278125000419,
      "v": 45
    },
    {
      "midi": 81,
      "hit": false,
      "t": 125999.87399999972,
      "d": 84.82134375000896,
      "v": 51
    },
    {
      "midi": 76,
      "hit": false,
      "t": 125999.87399999972,
      "d": 93.74990625001374,
      "v": 47
    },
    {
      "midi": 84,
      "hit": false,
      "t": 126285.58799999973,
      "d": 58.035656249994645,
      "v": 41
    },
    {
      "midi": 81,
      "hit": false,
      "t": 126285.58799999973,
      "d": 75.89278124998964,
      "v": 47
    },
    {
      "midi": 76,
      "hit": false,
      "t": 126285.58799999973,
      "d": 89.28562499998952,
      "v": 46
    },
    {
      "midi": 84,
      "hit": false,
      "t": 126571.30199999972,
      "d": 75.89278125000419,
      "v": 43
    },
    {
      "midi": 81,
      "hit": false,
      "t": 126571.30199999972,
      "d": 84.82134375000896,
      "v": 46
    },
    {
      "midi": 76,
      "hit": false,
      "t": 126571.30199999972,
      "d": 98.21418750000885,
      "v": 42
    },
    {
      "midi": 74,
      "hit": false,
      "t": 126857.01599999973,
      "d": 93.74990624999919,
      "v": 53
    },
    {
      "midi": 84,
      "hit": false,
      "t": 126857.01599999973,
      "d": 93.74990624999919,
      "v": 56
    },
    {
      "midi": 77,
      "hit": false,
      "t": 126857.01599999973,
      "d": 98.2141874999943,
      "v": 53
    },
    {
      "midi": 74,
      "hit": false,
      "t": 127142.72999999972,
      "d": 80.3570624999993,
      "v": 42
    },
    {
      "midi": 84,
      "hit": false,
      "t": 127142.72999999972,
      "d": 80.3570624999993,
      "v": 53
    },
    {
      "midi": 77,
      "hit": false,
      "t": 127142.72999999972,
      "d": 89.28562500000407,
      "v": 43
    },
    {
      "midi": 77,
      "hit": false,
      "t": 127428.44399999973,
      "d": 75.89278125000419,
      "v": 36
    },
    {
      "midi": 74,
      "hit": false,
      "t": 127428.44399999973,
      "d": 84.82134375000896,
      "v": 43
    },
    {
      "midi": 84,
      "hit": false,
      "t": 127428.44399999973,
      "d": 89.28562500000407,
      "v": 56
    },
    {
      "midi": 77,
      "hit": false,
      "t": 127714.15799999973,
      "d": 80.3570624999993,
      "v": 42
    },
    {
      "midi": 74,
      "hit": false,
      "t": 127714.15799999973,
      "d": 84.82134374999441,
      "v": 47
    },
    {
      "midi": 84,
      "hit": false,
      "t": 127714.15799999973,
      "d": 89.28562499998952,
      "v": 56
    },
    {
      "midi": 77,
      "hit": false,
      "t": 127999.87199999973,
      "d": 71.42849999999453,
      "v": 40
    },
    {
      "midi": 74,
      "hit": false,
      "t": 127999.87199999973,
      "d": 84.82134374999441,
      "v": 45
    },
    {
      "midi": 84,
      "hit": false,
      "t": 127999.87199999973,
      "d": 93.74990624999919,
      "v": 57
    },
    {
      "midi": 84,
      "hit": false,
      "t": 128285.58599999972,
      "d": 75.89278125000419,
      "v": 56
    },
    {
      "midi": 77,
      "hit": false,
      "t": 128285.58599999972,
      "d": 80.3570624999993,
      "v": 43
    },
    {
      "midi": 74,
      "hit": false,
      "t": 128285.58599999972,
      "d": 93.74990624999919,
      "v": 47
    },
    {
      "midi": 79,
      "hit": false,
      "t": 128571.29999999971,
      "d": 89.28562500000407,
      "v": 55
    },
    {
      "midi": 83,
      "hit": false,
      "t": 128571.29999999971,
      "d": 93.74990624999919,
      "v": 50
    },
    {
      "midi": 74,
      "hit": false,
      "t": 128571.29999999971,
      "d": 98.2141874999943,
      "v": 52
    },
    {
      "midi": 77,
      "hit": false,
      "t": 128571.29999999971,
      "d": 102.6784687499894,
      "v": 48
    },
    {
      "midi": 79,
      "hit": false,
      "t": 128857.0139999997,
      "d": 58.035656249994645,
      "v": 43
    },
    {
      "midi": 77,
      "hit": false,
      "t": 128857.0139999997,
      "d": 71.42849999999453,
      "v": 37
    },
    {
      "midi": 83,
      "hit": false,
      "t": 128857.0139999997,
      "d": 89.28562499998952,
      "v": 50
    },
    {
      "midi": 74,
      "hit": false,
      "t": 128857.0139999997,
      "d": 98.2141874999943,
      "v": 45
    },
    {
      "midi": 79,
      "hit": false,
      "t": 129142.7279999997,
      "d": 53.571374999999534,
      "v": 32
    },
    {
      "midi": 77,
      "hit": false,
      "t": 129142.7279999997,
      "d": 71.42849999999453,
      "v": 35
    },
    {
      "midi": 83,
      "hit": false,
      "t": 129142.7279999997,
      "d": 84.82134374999441,
      "v": 45
    },
    {
      "midi": 74,
      "hit": false,
      "t": 129142.7279999997,
      "d": 89.28562499998952,
      "v": 47
    },
    {
      "midi": 79,
      "hit": false,
      "t": 129428.44199999969,
      "d": 53.571374999999534,
      "v": 43
    },
    {
      "midi": 77,
      "hit": false,
      "t": 129428.44199999969,
      "d": 71.42849999999453,
      "v": 46
    },
    {
      "midi": 74,
      "hit": false,
      "t": 129428.44199999969,
      "d": 84.82134374999441,
      "v": 51
    },
    {
      "midi": 83,
      "hit": false,
      "t": 129428.44199999969,
      "d": 84.82134374999441,
      "v": 51
    },
    {
      "midi": 79,
      "hit": false,
      "t": 129714.15599999968,
      "d": 49.107093750004424,
      "v": 23
    },
    {
      "midi": 77,
      "hit": false,
      "t": 129714.15599999968,
      "d": 66.96421874999942,
      "v": 35
    },
    {
      "midi": 83,
      "hit": false,
      "t": 129714.15599999968,
      "d": 84.82134374999441,
      "v": 47
    },
    {
      "midi": 74,
      "hit": false,
      "t": 129714.15599999968,
      "d": 89.28562499998952,
      "v": 46
    },
    {
      "midi": 79,
      "hit": false,
      "t": 129999.86999999968,
      "d": 58.035656249994645,
      "v": 31
    },
    {
      "midi": 77,
      "hit": false,
      "t": 129999.86999999968,
      "d": 71.42849999999453,
      "v": 34
    },
    {
      "midi": 83,
      "hit": false,
      "t": 129999.86999999968,
      "d": 89.28562499998952,
      "v": 47
    },
    {
      "midi": 74,
      "hit": false,
      "t": 129999.86999999968,
      "d": 93.74990624998463,
      "v": 45
    },
    {
      "midi": 86,
      "hit": false,
      "t": 130334.69109374977,
      "d": 98.2141874999943,
      "v": 44
    },
    {
      "midi": 74,
      "hit": false,
      "t": 130339.15537499977,
      "d": 93.74990624999919,
      "v": 46
    },
    {
      "midi": 84,
      "hit": false,
      "t": 130897.19053124977,
      "d": 71.42849999999453,
      "v": 43
    },
    {
      "midi": 72,
      "hit": false,
      "t": 130901.65481249976,
      "d": 71.42849999999453,
      "v": 44
    },
    {
      "midi": 67,
      "hit": false,
      "t": 131428.43999999977,
      "d": 71.42850000000908,
      "v": 46
    },
    {
      "midi": 79,
      "hit": false,
      "t": 131432.90428124976,
      "d": 71.42850000000908,
      "v": 46
    },
    {
      "midi": 86,
      "hit": false,
      "t": 132008.79656249977,
      "d": 71.42850000000908,
      "v": 46
    },
    {
      "midi": 74,
      "hit": false,
      "t": 132013.26084374977,
      "d": 66.96421875001397,
      "v": 43
    },
    {
      "midi": 72,
      "hit": false,
      "t": 132566.83171874977,
      "d": 75.89278125000419,
      "v": 42
    },
    {
      "midi": 84,
      "hit": false,
      "t": 132566.83171874977,
      "d": 75.89278125000419,
      "v": 47
    },
    {
      "midi": 79,
      "hit": false,
      "t": 133142.72399999978,
      "d": 71.42850000000908,
      "v": 42
    },
    {
      "midi": 67,
      "hit": false,
      "t": 133147.18828124978,
      "d": 75.89278125000419,
      "v": 41
    },
    {
      "midi": 72,
      "hit": false,
      "t": 133687.3663124998,
      "d": 1169.6416874999704,
      "v": 56
    },
    {
      "midi": 64,
      "hit": false,
      "t": 133691.8305937498,
      "d": 1107.1417499999807,
      "v": 52
    },
    {
      "midi": 67,
      "hit": false,
      "t": 133691.8305937498,
      "d": 1124.9988749999902,
      "v": 47
    },
    {
      "midi": 69,
      "hit": false,
      "t": 133700.75915624978,
      "d": 1124.9988749999902,
      "v": 50
    },
    {
      "midi": 76,
      "hit": false,
      "t": 135691.82859374976,
      "d": 183.03553125000326,
      "v": 60
    },
    {
      "midi": 76,
      "hit": false,
      "t": 135968.61403124977,
      "d": 107.14274999999907,
      "v": 20
    },
    {
      "midi": 84,
      "hit": false,
      "t": 135990.93543749978,
      "d": 84.82134374999441,
      "v": 51
    },
    {
      "midi": 83,
      "hit": false,
      "t": 136312.36368749978,
      "d": 102.67846875000396,
      "v": 53
    },
    {
      "midi": 74,
      "hit": false,
      "t": 136316.82796874977,
      "d": 107.14274999999907,
      "v": 56
    },
    {
      "midi": 81,
      "hit": false,
      "t": 136852.54171874977,
      "d": 84.82134374999441,
      "v": 55
    },
    {
      "midi": 72,
      "hit": false,
      "t": 136857.00599999976,
      "d": 93.74990625001374,
      "v": 46
    },
    {
      "midi": 76,
      "hit": false,
      "t": 137160.57712499978,
      "d": 2897.318531249999,
      "v": 55
    },
    {
      "midi": 72,
      "hit": false,
      "t": 137165.04140624977,
      "d": 2910.7113750000135,
      "v": 41
    },
    {
      "midi": 78,
      "hit": false,
      "t": 138066.82621874977,
      "d": 1982.1408750000119,
      "v": 42
    },
    {
      "midi": 81,
      "hit": false,
      "t": 138857.00399999978,
      "d": 1191.9630937500042,
      "v": 35
    },
    {
      "midi": 74,
      "hit": false,
      "t": 140839.14487499965,
      "d": 53.571374999999534,
      "v": 16
    },
    {
      "midi": 57,
      "hit": false,
      "t": 140848.07343749978,
      "d": 174.10696875001304,
      "v": 64
    },
    {
      "midi": 60,
      "hit": false,
      "t": 140995.3947187498,
      "d": 156.2498437500035,
      "v": 63
    },
    {
      "midi": 74,
      "hit": false,
      "t": 141129.32315624965,
      "d": 66.96421874998487,
      "v": 46
    },
    {
      "midi": 72,
      "hit": false,
      "t": 141133.78743749965,
      "d": 62.499937499989755,
      "v": 41
    },
    {
      "midi": 79,
      "hit": false,
      "t": 141142.71599999964,
      "d": 49.107093750004424,
      "v": 36
    },
    {
      "midi": 65,
      "hit": false,
      "t": 141142.7159999998,
      "d": 80.3570624999993,
      "v": 64
    },
    {
      "midi": 74,
      "hit": false,
      "t": 141437.35856249963,
      "d": 58.035656249994645,
      "v": 55
    },
    {
      "midi": 72,
      "hit": false,
      "t": 141437.35856249963,
      "d": 66.96421874998487,
      "v": 56
    },
    {
      "midi": 79,
      "hit": false,
      "t": 141441.82284374963,
      "d": 62.499937499989755,
      "v": 45
    },
    {
      "midi": 69,
      "hit": false,
      "t": 141450.75140624982,
      "d": 120.5355937500135,
      "v": 68
    },
    {
      "midi": 72,
      "hit": false,
      "t": 141598.07268749984,
      "d": 142.85700000001816,
      "v": 57
    },
    {
      "midi": 72,
      "hit": false,
      "t": 141718.60828124962,
      "d": 66.96421874998487,
      "v": 60
    },
    {
      "midi": 77,
      "hit": false,
      "t": 141718.60828124985,
      "d": 80.3570624999993,
      "v": 62
    },
    {
      "midi": 74,
      "hit": false,
      "t": 141723.0725624996,
      "d": 58.035656249994645,
      "v": 61
    },
    {
      "midi": 79,
      "hit": false,
      "t": 141727.5368437496,
      "d": 62.499937499989755,
      "v": 52
    },
    {
      "midi": 72,
      "hit": false,
      "t": 142008.7865624996,
      "d": 71.42849999997998,
      "v": 69
    },
    {
      "midi": 74,
      "hit": false,
      "t": 142017.71512499958,
      "d": 53.571374999999534,
      "v": 63
    },
    {
      "midi": 79,
      "hit": false,
      "t": 142017.71512499958,
      "d": 71.42849999997998,
      "v": 56
    },
    {
      "midi": 81,
      "hit": false,
      "t": 142022.17940624984,
      "d": 147.32128125001327,
      "v": 58
    },
    {
      "midi": 84,
      "hit": false,
      "t": 142169.50068749985,
      "d": 138.39271874999395,
      "v": 42
    },
    {
      "midi": 89,
      "hit": false,
      "t": 142281.10771874984,
      "d": 58.035656249994645,
      "v": 60
    },
    {
      "midi": 72,
      "hit": false,
      "t": 142290.03628124957,
      "d": 75.89278125000419,
      "v": 71
    },
    {
      "midi": 79,
      "hit": false,
      "t": 142294.50056249957,
      "d": 75.89278125000419,
      "v": 55
    },
    {
      "midi": 74,
      "hit": false,
      "t": 142298.96484374956,
      "d": 53.571374999999534,
      "v": 66
    },
    {
      "midi": 72,
      "hit": false,
      "t": 142575.75028124958,
      "d": 71.42849999997998,
      "v": 69
    },
    {
      "midi": 74,
      "hit": false,
      "t": 142584.67884374957,
      "d": 53.571374999999534,
      "v": 66
    },
    {
      "midi": 79,
      "hit": false,
      "t": 142584.67884374957,
      "d": 71.42849999997998,
      "v": 57
    },
    {
      "midi": 72,
      "hit": false,
      "t": 142870.39284374955,
      "d": 71.42849999997998,
      "v": 71
    },
    {
      "midi": 74,
      "hit": false,
      "t": 142874.85712499954,
      "d": 58.035656249994645,
      "v": 69
    },
    {
      "midi": 79,
      "hit": false,
      "t": 142874.85712499954,
      "d": 71.42849999997998,
      "v": 64
    },
    {
      "midi": 72,
      "hit": false,
      "t": 143156.10684374953,
      "d": 71.42849999997998,
      "v": 71
    },
    {
      "midi": 79,
      "hit": false,
      "t": 143156.10684374953,
      "d": 75.89278124997509,
      "v": 58
    },
    {
      "midi": 74,
      "hit": false,
      "t": 143160.57112499952,
      "d": 58.035656249994645,
      "v": 68
    },
    {
      "midi": 72,
      "hit": false,
      "t": 143446.2851249995,
      "d": 71.42850000000908,
      "v": 64
    },
    {
      "midi": 74,
      "hit": false,
      "t": 143450.7494062495,
      "d": 53.571374999999534,
      "v": 64
    },
    {
      "midi": 79,
      "hit": false,
      "t": 143450.7494062495,
      "d": 71.42850000000908,
      "v": 52
    },
    {
      "midi": 72,
      "hit": false,
      "t": 143709.6777187495,
      "d": 75.89278125000419,
      "v": 66
    },
    {
      "midi": 79,
      "hit": false,
      "t": 143709.6777187495,
      "d": 75.89278125000419,
      "v": 55
    },
    {
      "midi": 74,
      "hit": false,
      "t": 143714.1419999995,
      "d": 58.035656249994645,
      "v": 63
    },
    {
      "midi": 79,
      "hit": false,
      "t": 143999.8559999995,
      "d": 75.89278125000419,
      "v": 66
    },
    {
      "midi": 76,
      "hit": false,
      "t": 143999.8559999995,
      "d": 80.3570624999993,
      "v": 67
    },
    {
      "midi": 84,
      "hit": false,
      "t": 143999.8559999995,
      "d": 93.74990625001374,
      "v": 62
    },
    {
      "midi": 79,
      "hit": false,
      "t": 144285.5699999995,
      "d": 58.035656249994645,
      "v": 56
    },
    {
      "midi": 84,
      "hit": false,
      "t": 144285.5699999995,
      "d": 66.96421874998487,
      "v": 48
    },
    {
      "midi": 76,
      "hit": false,
      "t": 144285.5699999995,
      "d": 75.89278124997509,
      "v": 58
    },
    {
      "midi": 84,
      "hit": false,
      "t": 144571.2839999995,
      "d": 49.107093750004424,
      "v": 34
    },
    {
      "midi": 79,
      "hit": false,
      "t": 144571.2839999995,
      "d": 53.571374999999534,
      "v": 53
    },
    {
      "midi": 76,
      "hit": false,
      "t": 144571.2839999995,
      "d": 71.42850000000908,
      "v": 55
    },
    {
      "midi": 79,
      "hit": false,
      "t": 144856.9979999995,
      "d": 66.96421875001397,
      "v": 63
    },
    {
      "midi": 84,
      "hit": false,
      "t": 144856.9979999995,
      "d": 80.3570625000284,
      "v": 51
    },
    {
      "midi": 76,
      "hit": false,
      "t": 144856.9979999995,
      "d": 84.82134375002352,
      "v": 63
    },
    {
      "midi": 79,
      "hit": false,
      "t": 145142.71199999953,
      "d": 71.42850000000908,
      "v": 52
    },
    {
      "midi": 76,
      "hit": false,
      "t": 145142.71199999953,
      "d": 75.89278125000419,
      "v": 55
    },
    {
      "midi": 84,
      "hit": false,
      "t": 145142.71199999953,
      "d": 75.89278125000419,
      "v": 42
    },
    {
      "midi": 79,
      "hit": false,
      "t": 145428.42599999954,
      "d": 71.42850000000908,
      "v": 51
    },
    {
      "midi": 84,
      "hit": false,
      "t": 145428.42599999954,
      "d": 75.89278125000419,
      "v": 40
    },
    {
      "midi": 76,
      "hit": false,
      "t": 145428.42599999954,
      "d": 80.3570624999993,
      "v": 50
    },
    {
      "midi": 81,
      "hit": false,
      "t": 145714.13999999955,
      "d": 71.42850000000908,
      "v": 60
    },
    {
      "midi": 84,
      "hit": false,
      "t": 145714.13999999955,
      "d": 84.82134375002352,
      "v": 47
    },
    {
      "midi": 76,
      "hit": false,
      "t": 145714.13999999955,
      "d": 89.28562500001863,
      "v": 58
    },
    {
      "midi": 84,
      "hit": false,
      "t": 145999.85399999956,
      "d": 58.035656249994645,
      "v": 36
    },
    {
      "midi": 81,
      "hit": false,
      "t": 145999.85399999956,
      "d": 62.499937499989755,
      "v": 41
    },
    {
      "midi": 76,
      "hit": false,
      "t": 145999.85399999956,
      "d": 93.74990624998463,
      "v": 45
    },
    {
      "midi": 81,
      "hit": false,
      "t": 146285.56799999953,
      "d": 66.96421875001397,
      "v": 53
    },
    {
      "midi": 84,
      "hit": false,
      "t": 146285.56799999953,
      "d": 75.89278125000419,
      "v": 45
    },
    {
      "midi": 76,
      "hit": false,
      "t": 146285.56799999953,
      "d": 89.28562500001863,
      "v": 52
    },
    {
      "midi": 81,
      "hit": false,
      "t": 146571.28199999954,
      "d": 66.96421875001397,
      "v": 52
    },
    {
      "midi": 84,
      "hit": false,
      "t": 146571.28199999954,
      "d": 71.42850000000908,
      "v": 45
    },
    {
      "midi": 76,
      "hit": false,
      "t": 146571.28199999954,
      "d": 89.28562500001863,
      "v": 53
    },
    {
      "midi": 84,
      "hit": false,
      "t": 146856.99599999955,
      "d": 44.64281250000931,
      "v": 40
    },
    {
      "midi": 81,
      "hit": false,
      "t": 146856.99599999955,
      "d": 66.96421875001397,
      "v": 51
    },
    {
      "midi": 76,
      "hit": false,
      "t": 146856.99599999955,
      "d": 89.28562500001863,
      "v": 50
    },
    {
      "midi": 84,
      "hit": false,
      "t": 147142.70999999956,
      "d": 49.107093750004424,
      "v": 35
    },
    {
      "midi": 76,
      "hit": false,
      "t": 147142.70999999956,
      "d": 93.74990625001374,
      "v": 46
    },
    {
      "midi": 81,
      "hit": false,
      "t": 147142.70999999956,
      "d": 93.74990625001374,
      "v": 56
    },
    {
      "midi": 74,
      "hit": false,
      "t": 147428.42399999956,
      "d": 89.28562499998952,
      "v": 55
    },
    {
      "midi": 77,
      "hit": false,
      "t": 147428.42399999956,
      "d": 93.74990624998463,
      "v": 55
    },
    {
      "midi": 84,
      "hit": false,
      "t": 147428.42399999956,
      "d": 98.21418749997974,
      "v": 56
    },
    {
      "midi": 74,
      "hit": false,
      "t": 147714.13799999954,
      "d": 80.3570624999993,
      "v": 41
    },
    {
      "midi": 77,
      "hit": false,
      "t": 147714.13799999954,
      "d": 84.82134374999441,
      "v": 45
    },
    {
      "midi": 84,
      "hit": false,
      "t": 147714.13799999954,
      "d": 89.28562499998952,
      "v": 56
    },
    {
      "midi": 74,
      "hit": false,
      "t": 147999.85199999952,
      "d": 75.89278125000419,
      "v": 43
    },
    {
      "midi": 77,
      "hit": false,
      "t": 147999.85199999952,
      "d": 84.82134374999441,
      "v": 47
    },
    {
      "midi": 84,
      "hit": false,
      "t": 147999.85199999952,
      "d": 84.82134374999441,
      "v": 57
    },
    {
      "midi": 74,
      "hit": false,
      "t": 148285.56599999953,
      "d": 89.28562499998952,
      "v": 53
    },
    {
      "midi": 77,
      "hit": false,
      "t": 148285.56599999953,
      "d": 93.74990624998463,
      "v": 53
    },
    {
      "midi": 84,
      "hit": false,
      "t": 148285.56599999953,
      "d": 93.74990624998463,
      "v": 62
    },
    {
      "midi": 77,
      "hit": false,
      "t": 148571.2799999995,
      "d": 80.3570624999993,
      "v": 48
    },
    {
      "midi": 74,
      "hit": false,
      "t": 148571.2799999995,
      "d": 84.82134374999441,
      "v": 51
    },
    {
      "midi": 84,
      "hit": false,
      "t": 148571.2799999995,
      "d": 102.67846875000396,
      "v": 61
    },
    {
      "midi": 77,
      "hit": false,
      "t": 148856.9939999995,
      "d": 80.3570624999993,
      "v": 43
    },
    {
      "midi": 84,
      "hit": false,
      "t": 148856.9939999995,
      "d": 89.28562499998952,
      "v": 58
    },
    {
      "midi": 74,
      "hit": false,
      "t": 148856.9939999995,
      "d": 98.21418749997974,
      "v": 46
    },
    {
      "midi": 79,
      "hit": false,
      "t": 149142.7079999995,
      "d": 98.21418750000885,
      "v": 57
    },
    {
      "midi": 83,
      "hit": false,
      "t": 149142.7079999995,
      "d": 98.21418750000885,
      "v": 48
    },
    {
      "midi": 74,
      "hit": false,
      "t": 149142.7079999995,
      "d": 102.67846875000396,
      "v": 34
    },
    {
      "midi": 77,
      "hit": false,
      "t": 149142.7079999995,
      "d": 111.60703124999418,
      "v": 47
    },
    {
      "midi": 79,
      "hit": false,
      "t": 149428.4219999995,
      "d": 66.96421875001397,
      "v": 32
    },
    {
      "midi": 77,
      "hit": false,
      "t": 149428.4219999995,
      "d": 80.3570625000284,
      "v": 36
    },
    {
      "midi": 74,
      "hit": false,
      "t": 149428.4219999995,
      "d": 84.82134375002352,
      "v": 45
    },
    {
      "midi": 83,
      "hit": false,
      "t": 149428.4219999995,
      "d": 98.21418750003795,
      "v": 52
    },
    {
      "midi": 77,
      "hit": false,
      "t": 149714.13599999953,
      "d": 75.89278125000419,
      "v": 34
    },
    {
      "midi": 79,
      "hit": false,
      "t": 149714.13599999953,
      "d": 75.89278125000419,
      "v": 43
    },
    {
      "midi": 74,
      "hit": false,
      "t": 149714.13599999953,
      "d": 89.28562500001863,
      "v": 42
    },
    {
      "midi": 83,
      "hit": false,
      "t": 149714.13599999953,
      "d": 102.67846875003306,
      "v": 53
    },
    {
      "midi": 79,
      "hit": false,
      "t": 149999.84999999957,
      "d": 71.42850000000908,
      "v": 47
    },
    {
      "midi": 74,
      "hit": false,
      "t": 149999.84999999957,
      "d": 80.3570624999993,
      "v": 45
    },
    {
      "midi": 77,
      "hit": false,
      "t": 149999.84999999957,
      "d": 84.82134374999441,
      "v": 43
    },
    {
      "midi": 83,
      "hit": false,
      "t": 149999.84999999957,
      "d": 89.28562499998952,
      "v": 51
    },
    {
      "midi": 79,
      "hit": false,
      "t": 150285.56399999955,
      "d": 62.499937499989755,
      "v": 47
    },
    {
      "midi": 77,
      "hit": false,
      "t": 150285.56399999955,
      "d": 66.96421874998487,
      "v": 38
    },
    {
      "midi": 83,
      "hit": false,
      "t": 150285.56399999955,
      "d": 75.89278124997509,
      "v": 46
    },
    {
      "midi": 74,
      "hit": false,
      "t": 150285.56399999955,
      "d": 89.28562499998952,
      "v": 51
    },
    {
      "midi": 79,
      "hit": false,
      "t": 150571.27799999953,
      "d": 71.42850000000908,
      "v": 43
    },
    {
      "midi": 77,
      "hit": false,
      "t": 150571.27799999953,
      "d": 80.3570624999993,
      "v": 41
    },
    {
      "midi": 74,
      "hit": false,
      "t": 150571.27799999953,
      "d": 84.82134374999441,
      "v": 50
    },
    {
      "midi": 83,
      "hit": false,
      "t": 150571.27799999953,
      "d": 93.74990624998463,
      "v": 50
    },
    {
      "midi": 79,
      "hit": false,
      "t": 150856.9919999995,
      "d": 84.82134374999441,
      "v": 60
    },
    {
      "midi": 84,
      "hit": false,
      "t": 150856.9919999995,
      "d": 98.21418750000885,
      "v": 55
    },
    {
      "midi": 76,
      "hit": false,
      "t": 150856.9919999995,
      "d": 102.67846875000396,
      "v": 60
    },
    {
      "midi": 79,
      "hit": false,
      "t": 151142.7059999995,
      "d": 80.3570624999993,
      "v": 46
    },
    {
      "midi": 84,
      "hit": false,
      "t": 151142.7059999995,
      "d": 84.82134374999441,
      "v": 45
    },
    {
      "midi": 76,
      "hit": false,
      "t": 151142.7059999995,
      "d": 93.74990624998463,
      "v": 46
    },
    {
      "midi": 79,
      "hit": false,
      "t": 151428.4199999995,
      "d": 80.3570624999993,
      "v": 55
    },
    {
      "midi": 84,
      "hit": false,
      "t": 151428.4199999995,
      "d": 84.82134374999441,
      "v": 50
    },
    {
      "midi": 76,
      "hit": false,
      "t": 151428.4199999995,
      "d": 93.74990624998463,
      "v": 50
    },
    {
      "midi": 79,
      "hit": false,
      "t": 151714.13399999947,
      "d": 75.89278125000419,
      "v": 55
    },
    {
      "midi": 76,
      "hit": false,
      "t": 151714.13399999947,
      "d": 89.28562500001863,
      "v": 58
    },
    {
      "midi": 84,
      "hit": false,
      "t": 151714.13399999947,
      "d": 93.74990625001374,
      "v": 52
    },
    {
      "midi": 79,
      "hit": false,
      "t": 151999.84799999947,
      "d": 75.89278125000419,
      "v": 52
    },
    {
      "midi": 84,
      "hit": false,
      "t": 151999.84799999947,
      "d": 84.82134374999441,
      "v": 52
    },
    {
      "midi": 76,
      "hit": false,
      "t": 151999.84799999947,
      "d": 89.28562499998952,
      "v": 52
    },
    {
      "midi": 84,
      "hit": false,
      "t": 152285.56199999945,
      "d": 75.89278125000419,
      "v": 48
    },
    {
      "midi": 79,
      "hit": false,
      "t": 152285.56199999945,
      "d": 84.82134374999441,
      "v": 56
    },
    {
      "midi": 76,
      "hit": false,
      "t": 152285.56199999945,
      "d": 89.28562499998952,
      "v": 48
    },
    {
      "midi": 81,
      "hit": false,
      "t": 152571.27599999943,
      "d": 80.3570624999993,
      "v": 52
    },
    {
      "midi": 84,
      "hit": false,
      "t": 152571.27599999943,
      "d": 89.28562499998952,
      "v": 52
    },
    {
      "midi": 76,
      "hit": false,
      "t": 152571.27599999943,
      "d": 98.21418749997974,
      "v": 53
    },
    {
      "midi": 81,
      "hit": false,
      "t": 152856.9899999994,
      "d": 80.3570624999993,
      "v": 41
    },
    {
      "midi": 84,
      "hit": false,
      "t": 152856.9899999994,
      "d": 84.82134374999441,
      "v": 48
    },
    {
      "midi": 76,
      "hit": false,
      "t": 152856.9899999994,
      "d": 98.21418750000885,
      "v": 47
    },
    {
      "midi": 81,
      "hit": false,
      "t": 153142.70399999942,
      "d": 75.89278125000419,
      "v": 42
    },
    {
      "midi": 84,
      "hit": false,
      "t": 153142.70399999942,
      "d": 80.3570624999993,
      "v": 46
    },
    {
      "midi": 76,
      "hit": false,
      "t": 153142.70399999942,
      "d": 98.21418750000885,
      "v": 46
    },
    {
      "midi": 84,
      "hit": false,
      "t": 153428.41799999942,
      "d": 75.89278125000419,
      "v": 45
    },
    {
      "midi": 81,
      "hit": false,
      "t": 153428.41799999942,
      "d": 84.82134374999441,
      "v": 51
    },
    {
      "midi": 76,
      "hit": false,
      "t": 153428.41799999942,
      "d": 93.74990624998463,
      "v": 47
    },
    {
      "midi": 84,
      "hit": false,
      "t": 153714.1319999994,
      "d": 58.035656249994645,
      "v": 41
    },
    {
      "midi": 81,
      "hit": false,
      "t": 153714.1319999994,
      "d": 75.89278125000419,
      "v": 47
    },
    {
      "midi": 76,
      "hit": false,
      "t": 153714.1319999994,
      "d": 89.28562500001863,
      "v": 46
    },
    {
      "midi": 84,
      "hit": false,
      "t": 153999.8459999994,
      "d": 75.89278125000419,
      "v": 43
    },
    {
      "midi": 81,
      "hit": false,
      "t": 153999.8459999994,
      "d": 84.82134374999441,
      "v": 46
    },
    {
      "midi": 76,
      "hit": false,
      "t": 153999.8459999994,
      "d": 98.21418750000885,
      "v": 42
    },
    {
      "midi": 74,
      "hit": false,
      "t": 154285.55999999942,
      "d": 93.74990625001374,
      "v": 53
    },
    {
      "midi": 84,
      "hit": false,
      "t": 154285.55999999942,
      "d": 93.74990625001374,
      "v": 56
    },
    {
      "midi": 77,
      "hit": false,
      "t": 154285.55999999942,
      "d": 98.21418750000885,
      "v": 53
    },
    {
      "midi": 74,
      "hit": false,
      "t": 154571.27399999942,
      "d": 80.3570624999993,
      "v": 42
    },
    {
      "midi": 84,
      "hit": false,
      "t": 154571.27399999942,
      "d": 80.3570624999993,
      "v": 53
    },
    {
      "midi": 77,
      "hit": false,
      "t": 154571.27399999942,
      "d": 89.28562499998952,
      "v": 43
    },
    {
      "midi": 77,
      "hit": false,
      "t": 154856.9879999994,
      "d": 75.89278125000419,
      "v": 36
    },
    {
      "midi": 74,
      "hit": false,
      "t": 154856.9879999994,
      "d": 84.82134374999441,
      "v": 43
    },
    {
      "midi": 84,
      "hit": false,
      "t": 154856.9879999994,
      "d": 89.28562499998952,
      "v": 56
    },
    {
      "midi": 77,
      "hit": false,
      "t": 155142.70199999938,
      "d": 80.3570624999993,
      "v": 42
    },
    {
      "midi": 74,
      "hit": false,
      "t": 155142.70199999938,
      "d": 84.82134374999441,
      "v": 47
    },
    {
      "midi": 84,
      "hit": false,
      "t": 155142.70199999938,
      "d": 89.28562499998952,
      "v": 56
    },
    {
      "midi": 77,
      "hit": false,
      "t": 155428.41599999936,
      "d": 71.42850000000908,
      "v": 40
    },
    {
      "midi": 74,
      "hit": false,
      "t": 155428.41599999936,
      "d": 84.82134375002352,
      "v": 45
    },
    {
      "midi": 84,
      "hit": false,
      "t": 155428.41599999936,
      "d": 93.74990625001374,
      "v": 57
    },
    {
      "midi": 84,
      "hit": false,
      "t": 155714.12999999936,
      "d": 75.89278125000419,
      "v": 56
    },
    {
      "midi": 77,
      "hit": false,
      "t": 155714.12999999936,
      "d": 80.3570624999993,
      "v": 43
    },
    {
      "midi": 74,
      "hit": false,
      "t": 155714.12999999936,
      "d": 93.74990625001374,
      "v": 47
    },
    {
      "midi": 79,
      "hit": false,
      "t": 155999.84399999937,
      "d": 89.28562499998952,
      "v": 55
    },
    {
      "midi": 83,
      "hit": false,
      "t": 155999.84399999937,
      "d": 93.74990624998463,
      "v": 50
    },
    {
      "midi": 74,
      "hit": false,
      "t": 155999.84399999937,
      "d": 98.21418749997974,
      "v": 52
    },
    {
      "midi": 77,
      "hit": false,
      "t": 155999.84399999937,
      "d": 102.67846874997485,
      "v": 48
    },
    {
      "midi": 79,
      "hit": false,
      "t": 156285.55799999935,
      "d": 58.035656249994645,
      "v": 43
    },
    {
      "midi": 77,
      "hit": false,
      "t": 156285.55799999935,
      "d": 71.42850000000908,
      "v": 37
    },
    {
      "midi": 83,
      "hit": false,
      "t": 156285.55799999935,
      "d": 89.28562500001863,
      "v": 50
    },
    {
      "midi": 74,
      "hit": false,
      "t": 156285.55799999935,
      "d": 98.21418750000885,
      "v": 45
    },
    {
      "midi": 79,
      "hit": false,
      "t": 156571.27199999936,
      "d": 53.571374999999534,
      "v": 32
    },
    {
      "midi": 77,
      "hit": false,
      "t": 156571.27199999936,
      "d": 71.42850000000908,
      "v": 35
    },
    {
      "midi": 83,
      "hit": false,
      "t": 156571.27199999936,
      "d": 84.82134375002352,
      "v": 45
    },
    {
      "midi": 74,
      "hit": false,
      "t": 156571.27199999936,
      "d": 89.28562500001863,
      "v": 47
    },
    {
      "midi": 79,
      "hit": false,
      "t": 156856.98599999936,
      "d": 53.571374999999534,
      "v": 43
    },
    {
      "midi": 77,
      "hit": false,
      "t": 156856.98599999936,
      "d": 71.42850000000908,
      "v": 46
    },
    {
      "midi": 74,
      "hit": false,
      "t": 156856.98599999936,
      "d": 84.82134375002352,
      "v": 51
    },
    {
      "midi": 83,
      "hit": false,
      "t": 156856.98599999936,
      "d": 84.82134375002352,
      "v": 51
    },
    {
      "midi": 79,
      "hit": false,
      "t": 157142.6999999994,
      "d": 49.107093750004424,
      "v": 23
    },
    {
      "midi": 77,
      "hit": false,
      "t": 157142.6999999994,
      "d": 66.96421875001397,
      "v": 35
    },
    {
      "midi": 83,
      "hit": false,
      "t": 157142.6999999994,
      "d": 84.82134375002352,
      "v": 47
    },
    {
      "midi": 74,
      "hit": false,
      "t": 157142.6999999994,
      "d": 89.28562500001863,
      "v": 46
    },
    {
      "midi": 79,
      "hit": false,
      "t": 157428.4139999994,
      "d": 58.035656249994645,
      "v": 31
    },
    {
      "midi": 77,
      "hit": false,
      "t": 157428.4139999994,
      "d": 71.42850000000908,
      "v": 34
    },
    {
      "midi": 83,
      "hit": false,
      "t": 157428.4139999994,
      "d": 89.28562500001863,
      "v": 47
    },
    {
      "midi": 74,
      "hit": false,
      "t": 157428.4139999994,
      "d": 93.74990625001374,
      "v": 45
    },
    {
      "midi": 72,
      "hit": false,
      "t": 157714.12799999941,
      "d": 62.499937499989755,
      "v": 66
    },
    {
      "midi": 67,
      "hit": false,
      "t": 157714.12799999941,
      "d": 66.96421874998487,
      "v": 58
    },
    {
      "midi": 76,
      "hit": false,
      "t": 157714.12799999941,
      "d": 75.89278124997509,
      "v": 61
    },
    {
      "midi": 86,
      "hit": false,
      "t": 157763.23509374983,
      "d": 98.21418750000885,
      "v": 44
    },
    {
      "midi": 74,
      "hit": false,
      "t": 157767.69937499982,
      "d": 93.74990625001374,
      "v": 46
    },
    {
      "midi": 76,
      "hit": false,
      "t": 157999.8419999994,
      "d": 62.499937499989755,
      "v": 52
    },
    {
      "midi": 72,
      "hit": false,
      "t": 157999.8419999994,
      "d": 66.96421874998487,
      "v": 60
    },
    {
      "midi": 67,
      "hit": false,
      "t": 157999.8419999994,
      "d": 75.89278124997509,
      "v": 53
    },
    {
      "midi": 76,
      "hit": false,
      "t": 158285.55599999937,
      "d": 71.42850000000908,
      "v": 56
    },
    {
      "midi": 72,
      "hit": false,
      "t": 158285.55599999937,
      "d": 75.89278125000419,
      "v": 67
    },
    {
      "midi": 67,
      "hit": false,
      "t": 158285.55599999937,
      "d": 80.3570624999993,
      "v": 60
    },
    {
      "midi": 84,
      "hit": false,
      "t": 158325.73453124982,
      "d": 71.42850000000908,
      "v": 43
    },
    {
      "midi": 72,
      "hit": false,
      "t": 158330.19881249982,
      "d": 71.42850000000908,
      "v": 44
    },
    {
      "midi": 72,
      "hit": false,
      "t": 158571.26999999938,
      "d": 75.89278125000419,
      "v": 68
    },
    {
      "midi": 76,
      "hit": false,
      "t": 158571.26999999938,
      "d": 75.89278125000419,
      "v": 63
    },
    {
      "midi": 67,
      "hit": false,
      "t": 158571.26999999938,
      "d": 80.3570624999993,
      "v": 67
    },
    {
      "midi": 72,
      "hit": false,
      "t": 158856.9839999994,
      "d": 71.42850000000908,
      "v": 67
    },
    {
      "midi": 76,
      "hit": false,
      "t": 158856.9839999994,
      "d": 71.42850000000908,
      "v": 61
    },
    {
      "midi": 67,
      "hit": false,
      "t": 158856.9839999994,
      "d": 80.3570624999993,
      "v": 64
    },
    {
      "midi": 67,
      "hit": false,
      "t": 158856.98399999982,
      "d": 71.42850000000908,
      "v": 46
    },
    {
      "midi": 79,
      "hit": false,
      "t": 158861.44828124982,
      "d": 71.42850000000908,
      "v": 46
    },
    {
      "midi": 72,
      "hit": false,
      "t": 159142.6979999994,
      "d": 66.96421875001397,
      "v": 71
    },
    {
      "midi": 67,
      "hit": false,
      "t": 159142.6979999994,
      "d": 80.3570625000284,
      "v": 66
    },
    {
      "midi": 76,
      "hit": false,
      "t": 159142.6979999994,
      "d": 84.82134375002352,
      "v": 64
    },
    {
      "midi": 72,
      "hit": false,
      "t": 159428.41199999943,
      "d": 75.89278125000419,
      "v": 79
    },
    {
      "midi": 76,
      "hit": false,
      "t": 159428.41199999943,
      "d": 84.82134374999441,
      "v": 62
    },
    {
      "midi": 67,
      "hit": false,
      "t": 159428.41199999943,
      "d": 89.28562499998952,
      "v": 66
    },
    {
      "midi": 86,
      "hit": false,
      "t": 159437.34056249983,
      "d": 71.42850000000908,
      "v": 46
    },
    {
      "midi": 74,
      "hit": false,
      "t": 159441.80484374982,
      "d": 66.96421875001397,
      "v": 43
    },
    {
      "midi": 76,
      "hit": false,
      "t": 159714.1259999994,
      "d": 71.42850000000908,
      "v": 56
    },
    {
      "midi": 72,
      "hit": false,
      "t": 159714.1259999994,
      "d": 80.3570624999993,
      "v": 68
    },
    {
      "midi": 67,
      "hit": false,
      "t": 159714.1259999994,
      "d": 89.28562499998952,
      "v": 62
    },
    {
      "midi": 72,
      "hit": false,
      "t": 159995.37571874983,
      "d": 75.89278125000419,
      "v": 42
    },
    {
      "midi": 84,
      "hit": false,
      "t": 159995.37571874983,
      "d": 75.89278125000419,
      "v": 47
    },
    {
      "midi": 76,
      "hit": false,
      "t": 159999.83999999939,
      "d": 66.96421875001397,
      "v": 62
    },
    {
      "midi": 72,
      "hit": false,
      "t": 159999.83999999939,
      "d": 75.89278125000419,
      "v": 71
    },
    {
      "midi": 67,
      "hit": false,
      "t": 159999.83999999939,
      "d": 80.3570624999993,
      "v": 60
    },
    {
      "midi": 72,
      "hit": false,
      "t": 160285.5539999994,
      "d": 80.3570624999993,
      "v": 76
    },
    {
      "midi": 76,
      "hit": false,
      "t": 160285.5539999994,
      "d": 80.3570624999993,
      "v": 66
    },
    {
      "midi": 67,
      "hit": false,
      "t": 160285.5539999994,
      "d": 84.82134374999441,
      "v": 68
    },
    {
      "midi": 76,
      "hit": false,
      "t": 160571.2679999994,
      "d": 71.42850000000908,
      "v": 60
    },
    {
      "midi": 72,
      "hit": false,
      "t": 160571.2679999994,
      "d": 75.89278125000419,
      "v": 67
    },
    {
      "midi": 67,
      "hit": false,
      "t": 160571.2679999994,
      "d": 84.82134374999441,
      "v": 63
    },
    {
      "midi": 79,
      "hit": false,
      "t": 160571.26799999984,
      "d": 71.42850000000908,
      "v": 42
    },
    {
      "midi": 67,
      "hit": false,
      "t": 160575.73228124983,
      "d": 75.89278125000419,
      "v": 41
    },
    {
      "midi": 76,
      "hit": false,
      "t": 160856.9819999994,
      "d": 66.96421875001397,
      "v": 58
    },
    {
      "midi": 72,
      "hit": false,
      "t": 160856.9819999994,
      "d": 84.82134375002352,
      "v": 67
    },
    {
      "midi": 67,
      "hit": false,
      "t": 160856.9819999994,
      "d": 93.74990625001374,
      "v": 62
    },
    {
      "midi": 73,
      "hit": false,
      "t": 161142.6959999994,
      "d": 62.499937499989755,
      "v": 73
    },
    {
      "midi": 67,
      "hit": false,
      "t": 161142.6959999994,
      "d": 75.89278125000419,
      "v": 66
    },
    {
      "midi": 76,
      "hit": false,
      "t": 161142.6959999994,
      "d": 80.3570624999993,
      "v": 69
    },
    {
      "midi": 69,
      "hit": false,
      "t": 161142.6959999994,
      "d": 98.21418750000885,
      "v": 76
    },
    {
      "midi": 45,
      "hit": false,
      "t": 161142.69599999985,
      "d": 513.3923437499616,
      "v": 60
    },
    {
      "midi": 55,
      "hit": false,
      "t": 161147.16028124985,
      "d": 98.21418749997974,
      "v": 67
    },
    {
      "midi": 62,
      "hit": false,
      "t": 161151.62456249984,
      "d": 107.14274999996996,
      "v": 68
    },
    {
      "midi": 60,
      "hit": false,
      "t": 161156.08884374984,
      "d": 93.74990624998463,
      "v": 67
    },
    {
      "midi": 67,
      "hit": false,
      "t": 161428.40999999942,
      "d": 66.96421875001397,
      "v": 55
    },
    {
      "midi": 76,
      "hit": false,
      "t": 161428.40999999942,
      "d": 80.3570625000284,
      "v": 63
    },
    {
      "midi": 69,
      "hit": false,
      "t": 161428.40999999942,
      "d": 84.82134375002352,
      "v": 63
    },
    {
      "midi": 73,
      "hit": false,
      "t": 161428.40999999942,
      "d": 84.82134375002352,
      "v": 64
    },
    {
      "midi": 76,
      "hit": false,
      "t": 161714.12399999946,
      "d": 75.89278125000419,
      "v": 63
    },
    {
      "midi": 67,
      "hit": false,
      "t": 161714.12399999946,
      "d": 80.3570624999993,
      "v": 62
    },
    {
      "midi": 73,
      "hit": false,
      "t": 161714.12399999946,
      "d": 84.82134374999441,
      "v": 67
    },
    {
      "midi": 69,
      "hit": false,
      "t": 161714.12399999946,
      "d": 89.28562499998952,
      "v": 67
    },
    {
      "midi": 57,
      "hit": false,
      "t": 161731.98112499982,
      "d": 62.499937499989755,
      "v": 69
    },
    {
      "midi": 69,
      "hit": false,
      "t": 161731.98112499982,
      "d": 66.96421874998487,
      "v": 69
    },
    {
      "midi": 67,
      "hit": false,
      "t": 161999.83799999944,
      "d": 75.89278125000419,
      "v": 68
    },
    {
      "midi": 76,
      "hit": false,
      "t": 161999.83799999944,
      "d": 75.89278125000419,
      "v": 66
    },
    {
      "midi": 69,
      "hit": false,
      "t": 161999.83799999944,
      "d": 80.3570624999993,
      "v": 68
    },
    {
      "midi": 73,
      "hit": false,
      "t": 161999.83799999944,
      "d": 89.28562499998952,
      "v": 82
    },
    {
      "midi": 64,
      "hit": false,
      "t": 162276.6234374998,
      "d": 62.499937499989755,
      "v": 71
    },
    {
      "midi": 76,
      "hit": false,
      "t": 162281.0877187498,
      "d": 66.96421874998487,
      "v": 76
    },
    {
      "midi": 67,
      "hit": false,
      "t": 162285.5519999994,
      "d": 75.89278125000419,
      "v": 66
    },
    {
      "midi": 76,
      "hit": false,
      "t": 162285.5519999994,
      "d": 75.89278125000419,
      "v": 63
    },
    {
      "midi": 69,
      "hit": false,
      "t": 162285.5519999994,
      "d": 89.28562500001863,
      "v": 66
    },
    {
      "midi": 73,
      "hit": false,
      "t": 162285.5519999994,
      "d": 89.28562500001863,
      "v": 69
    },
    {
      "midi": 67,
      "hit": false,
      "t": 162571.26599999942,
      "d": 75.89278125000419,
      "v": 63
    },
    {
      "midi": 76,
      "hit": false,
      "t": 162571.26599999942,
      "d": 80.3570624999993,
      "v": 66
    },
    {
      "midi": 69,
      "hit": false,
      "t": 162571.26599999942,
      "d": 84.82134374999441,
      "v": 67
    },
    {
      "midi": 73,
      "hit": false,
      "t": 162571.26599999942,
      "d": 84.82134374999441,
      "v": 71
    },
    {
      "midi": 69,
      "hit": false,
      "t": 162852.51571874978,
      "d": 66.96421874998487,
      "v": 71
    },
    {
      "midi": 67,
      "hit": false,
      "t": 162856.97999999943,
      "d": 75.89278125000419,
      "v": 66
    },
    {
      "midi": 76,
      "hit": false,
      "t": 162856.97999999943,
      "d": 80.3570624999993,
      "v": 67
    },
    {
      "midi": 73,
      "hit": false,
      "t": 162856.97999999943,
      "d": 84.82134374999441,
      "v": 82
    },
    {
      "midi": 69,
      "hit": false,
      "t": 162856.97999999943,
      "d": 89.28562499998952,
      "v": 71
    },
    {
      "midi": 81,
      "hit": false,
      "t": 162856.97999999978,
      "d": 66.96421874998487,
      "v": 68
    },
    {
      "midi": 67,
      "hit": false,
      "t": 163142.6939999994,
      "d": 75.89278125000419,
      "v": 68
    },
    {
      "midi": 76,
      "hit": false,
      "t": 163142.6939999994,
      "d": 80.3570624999993,
      "v": 64
    },
    {
      "midi": 73,
      "hit": false,
      "t": 163142.6939999994,
      "d": 84.82134374999441,
      "v": 76
    },
    {
      "midi": 69,
      "hit": false,
      "t": 163142.6939999994,
      "d": 93.74990624998463,
      "v": 73
    },
    {
      "midi": 76,
      "hit": false,
      "t": 163392.69374999977,
      "d": 62.499937499989755,
      "v": 67
    },
    {
      "midi": 88,
      "hit": false,
      "t": 163392.69374999977,
      "d": 66.96421874998487,
      "v": 68
    },
    {
      "midi": 76,
      "hit": false,
      "t": 163428.40799999938,
      "d": 75.89278125000419,
      "v": 63
    },
    {
      "midi": 67,
      "hit": false,
      "t": 163428.40799999938,
      "d": 80.3570624999993,
      "v": 66
    },
    {
      "midi": 73,
      "hit": false,
      "t": 163428.40799999938,
      "d": 80.3570624999993,
      "v": 76
    },
    {
      "midi": 69,
      "hit": false,
      "t": 163428.40799999938,
      "d": 93.74990625001374,
      "v": 68
    },
    {
      "midi": 67,
      "hit": false,
      "t": 163714.1219999994,
      "d": 71.42850000000908,
      "v": 67
    },
    {
      "midi": 73,
      "hit": false,
      "t": 163714.1219999994,
      "d": 84.82134375002352,
      "v": 79
    },
    {
      "midi": 76,
      "hit": false,
      "t": 163714.1219999994,
      "d": 89.28562500001863,
      "v": 66
    },
    {
      "midi": 69,
      "hit": false,
      "t": 163714.1219999994,
      "d": 93.74990625001374,
      "v": 76
    },
    {
      "midi": 81,
      "hit": false,
      "t": 163981.97887499977,
      "d": 62.499937499989755,
      "v": 64
    },
    {
      "midi": 93,
      "hit": false,
      "t": 163981.97887499977,
      "d": 66.96421874998487,
      "v": 69
    },
    {
      "midi": 67,
      "hit": false,
      "t": 163999.8359999994,
      "d": 80.3570624999993,
      "v": 68
    },
    {
      "midi": 76,
      "hit": false,
      "t": 163999.8359999994,
      "d": 80.3570624999993,
      "v": 66
    },
    {
      "midi": 73,
      "hit": false,
      "t": 163999.8359999994,
      "d": 89.28562499998952,
      "v": 76
    },
    {
      "midi": 69,
      "hit": false,
      "t": 163999.8359999994,
      "d": 93.74990624998463,
      "v": 71
    },
    {
      "midi": 67,
      "hit": false,
      "t": 164285.54999999938,
      "d": 66.96421875001397,
      "v": 69
    },
    {
      "midi": 73,
      "hit": false,
      "t": 164285.54999999938,
      "d": 71.42850000000908,
      "v": 71
    },
    {
      "midi": 69,
      "hit": false,
      "t": 164285.54999999938,
      "d": 84.82134375002352,
      "v": 69
    },
    {
      "midi": 76,
      "hit": false,
      "t": 164285.54999999938,
      "d": 89.28562500001863,
      "v": 71
    },
    {
      "midi": 81,
      "hit": false,
      "t": 164571.26399999938,
      "d": 75.89278125000419,
      "v": 66
    },
    {
      "midi": 78,
      "hit": false,
      "t": 164571.26399999938,
      "d": 80.3570624999993,
      "v": 67
    },
    {
      "midi": 86,
      "hit": false,
      "t": 164571.26399999938,
      "d": 93.74990625001374,
      "v": 62
    },
    {
      "midi": 81,
      "hit": false,
      "t": 164856.9779999994,
      "d": 58.035656249994645,
      "v": 56
    },
    {
      "midi": 86,
      "hit": false,
      "t": 164856.9779999994,
      "d": 66.96421874998487,
      "v": 48
    },
    {
      "midi": 78,
      "hit": false,
      "t": 164856.9779999994,
      "d": 75.89278124997509,
      "v": 58
    },
    {
      "midi": 86,
      "hit": false,
      "t": 165142.69199999937,
      "d": 49.107093750004424,
      "v": 34
    },
    {
      "midi": 81,
      "hit": false,
      "t": 165142.69199999937,
      "d": 53.571374999999534,
      "v": 53
    },
    {
      "midi": 78,
      "hit": false,
      "t": 165142.69199999937,
      "d": 71.42850000000908,
      "v": 55
    },
    {
      "midi": 81,
      "hit": false,
      "t": 165428.40599999938,
      "d": 66.96421875001397,
      "v": 63
    },
    {
      "midi": 86,
      "hit": false,
      "t": 165428.40599999938,
      "d": 80.3570625000284,
      "v": 51
    },
    {
      "midi": 78,
      "hit": false,
      "t": 165428.40599999938,
      "d": 84.82134375002352,
      "v": 63
    },
    {
      "midi": 81,
      "hit": false,
      "t": 165714.1199999994,
      "d": 71.42850000000908,
      "v": 52
    },
    {
      "midi": 78,
      "hit": false,
      "t": 165714.1199999994,
      "d": 75.89278125000419,
      "v": 55
    },
    {
      "midi": 86,
      "hit": false,
      "t": 165714.1199999994,
      "d": 75.89278125000419,
      "v": 42
    },
    {
      "midi": 81,
      "hit": false,
      "t": 165999.83399999942,
      "d": 71.42850000000908,
      "v": 51
    },
    {
      "midi": 86,
      "hit": false,
      "t": 165999.83399999942,
      "d": 75.89278125000419,
      "v": 40
    },
    {
      "midi": 78,
      "hit": false,
      "t": 165999.83399999942,
      "d": 80.3570624999993,
      "v": 50
    },
    {
      "midi": 83,
      "hit": false,
      "t": 166285.54799999943,
      "d": 71.42850000000908,
      "v": 60
    },
    {
      "midi": 86,
      "hit": false,
      "t": 166285.54799999943,
      "d": 84.82134375002352,
      "v": 47
    },
    {
      "midi": 78,
      "hit": false,
      "t": 166285.54799999943,
      "d": 89.28562500001863,
      "v": 58
    },
    {
      "midi": 86,
      "hit": false,
      "t": 166571.26199999943,
      "d": 58.035656249994645,
      "v": 36
    },
    {
      "midi": 83,
      "hit": false,
      "t": 166571.26199999943,
      "d": 62.499937499989755,
      "v": 41
    },
    {
      "midi": 78,
      "hit": false,
      "t": 166571.26199999943,
      "d": 93.74990624998463,
      "v": 45
    },
    {
      "midi": 83,
      "hit": false,
      "t": 166856.9759999994,
      "d": 66.96421875001397,
      "v": 53
    },
    {
      "midi": 86,
      "hit": false,
      "t": 166856.9759999994,
      "d": 75.89278125000419,
      "v": 45
    },
    {
      "midi": 78,
      "hit": false,
      "t": 166856.9759999994,
      "d": 89.28562500001863,
      "v": 52
    },
    {
      "midi": 83,
      "hit": false,
      "t": 167142.68999999942,
      "d": 66.96421875001397,
      "v": 52
    },
    {
      "midi": 86,
      "hit": false,
      "t": 167142.68999999942,
      "d": 71.42850000000908,
      "v": 45
    },
    {
      "midi": 78,
      "hit": false,
      "t": 167142.68999999942,
      "d": 89.28562500001863,
      "v": 53
    },
    {
      "midi": 86,
      "hit": false,
      "t": 167428.40399999943,
      "d": 44.64281250000931,
      "v": 40
    },
    {
      "midi": 83,
      "hit": false,
      "t": 167428.40399999943,
      "d": 66.96421875001397,
      "v": 51
    },
    {
      "midi": 78,
      "hit": false,
      "t": 167428.40399999943,
      "d": 89.28562500001863,
      "v": 50
    },
    {
      "midi": 86,
      "hit": false,
      "t": 167714.11799999943,
      "d": 49.107093750004424,
      "v": 35
    },
    {
      "midi": 78,
      "hit": false,
      "t": 167714.11799999943,
      "d": 93.74990625001374,
      "v": 46
    },
    {
      "midi": 83,
      "hit": false,
      "t": 167714.11799999943,
      "d": 93.74990625001374,
      "v": 56
    },
    {
      "midi": 76,
      "hit": false,
      "t": 167999.83199999944,
      "d": 89.28562499998952,
      "v": 55
    },
    {
      "midi": 79,
      "hit": false,
      "t": 167999.83199999944,
      "d": 93.74990624998463,
      "v": 55
    },
    {
      "midi": 86,
      "hit": false,
      "t": 167999.83199999944,
      "d": 98.21418749997974,
      "v": 56
    },
    {
      "midi": 76,
      "hit": false,
      "t": 168285.54599999942,
      "d": 80.3570624999993,
      "v": 41
    },
    {
      "midi": 79,
      "hit": false,
      "t": 168285.54599999942,
      "d": 84.82134374999441,
      "v": 45
    },
    {
      "midi": 86,
      "hit": false,
      "t": 168285.54599999942,
      "d": 89.28562499998952,
      "v": 56
    },
    {
      "midi": 76,
      "hit": false,
      "t": 168571.2599999994,
      "d": 75.89278125000419,
      "v": 43
    },
    {
      "midi": 79,
      "hit": false,
      "t": 168571.2599999994,
      "d": 84.82134374999441,
      "v": 47
    },
    {
      "midi": 86,
      "hit": false,
      "t": 168571.2599999994,
      "d": 84.82134374999441,
      "v": 57
    },
    {
      "midi": 76,
      "hit": false,
      "t": 168856.9739999994,
      "d": 89.28562499998952,
      "v": 53
    },
    {
      "midi": 79,
      "hit": false,
      "t": 168856.9739999994,
      "d": 93.74990624998463,
      "v": 53
    },
    {
      "midi": 86,
      "hit": false,
      "t": 168856.9739999994,
      "d": 93.74990624998463,
      "v": 62
    },
    {
      "midi": 79,
      "hit": false,
      "t": 169142.68799999938,
      "d": 80.3570624999993,
      "v": 48
    },
    {
      "midi": 76,
      "hit": false,
      "t": 169142.68799999938,
      "d": 84.82134374999441,
      "v": 51
    },
    {
      "midi": 86,
      "hit": false,
      "t": 169142.68799999938,
      "d": 102.67846875000396,
      "v": 61
    },
    {
      "midi": 79,
      "hit": false,
      "t": 169428.4019999994,
      "d": 80.3570624999993,
      "v": 43
    },
    {
      "midi": 86,
      "hit": false,
      "t": 169428.4019999994,
      "d": 89.28562499998952,
      "v": 58
    },
    {
      "midi": 76,
      "hit": false,
      "t": 169428.4019999994,
      "d": 98.21418749997974,
      "v": 46
    },
    {
      "midi": 81,
      "hit": false,
      "t": 169714.11599999937,
      "d": 98.21418750000885,
      "v": 57
    },
    {
      "midi": 85,
      "hit": false,
      "t": 169714.11599999937,
      "d": 98.21418750000885,
      "v": 48
    },
    {
      "midi": 76,
      "hit": false,
      "t": 169714.11599999937,
      "d": 102.67846875000396,
      "v": 34
    },
    {
      "midi": 79,
      "hit": false,
      "t": 169714.11599999937,
      "d": 111.60703124999418,
      "v": 47
    },
    {
      "midi": 81,
      "hit": false,
      "t": 169999.82999999938,
      "d": 66.96421875001397,
      "v": 32
    },
    {
      "midi": 79,
      "hit": false,
      "t": 169999.82999999938,
      "d": 80.3570625000284,
      "v": 36
    },
    {
      "midi": 76,
      "hit": false,
      "t": 169999.82999999938,
      "d": 84.82134375002352,
      "v": 45
    },
    {
      "midi": 85,
      "hit": false,
      "t": 169999.82999999938,
      "d": 98.21418750003795,
      "v": 52
    },
    {
      "midi": 79,
      "hit": false,
      "t": 170285.5439999994,
      "d": 75.89278125000419,
      "v": 34
    },
    {
      "midi": 81,
      "hit": false,
      "t": 170285.5439999994,
      "d": 75.89278125000419,
      "v": 43
    },
    {
      "midi": 76,
      "hit": false,
      "t": 170285.5439999994,
      "d": 89.28562500001863,
      "v": 42
    },
    {
      "midi": 85,
      "hit": false,
      "t": 170285.5439999994,
      "d": 102.67846875003306,
      "v": 53
    },
    {
      "midi": 81,
      "hit": false,
      "t": 170571.25799999945,
      "d": 71.42850000000908,
      "v": 47
    },
    {
      "midi": 76,
      "hit": false,
      "t": 170571.25799999945,
      "d": 80.3570624999993,
      "v": 45
    },
    {
      "midi": 79,
      "hit": false,
      "t": 170571.25799999945,
      "d": 84.82134374999441,
      "v": 43
    },
    {
      "midi": 85,
      "hit": false,
      "t": 170571.25799999945,
      "d": 89.28562499998952,
      "v": 51
    },
    {
      "midi": 81,
      "hit": false,
      "t": 170856.97199999943,
      "d": 62.499937499989755,
      "v": 47
    },
    {
      "midi": 79,
      "hit": false,
      "t": 170856.97199999943,
      "d": 66.96421874998487,
      "v": 38
    },
    {
      "midi": 85,
      "hit": false,
      "t": 170856.97199999943,
      "d": 75.89278124997509,
      "v": 46
    },
    {
      "midi": 76,
      "hit": false,
      "t": 170856.97199999943,
      "d": 89.28562499998952,
      "v": 51
    },
    {
      "midi": 81,
      "hit": false,
      "t": 171142.6859999994,
      "d": 71.42850000000908,
      "v": 43
    },
    {
      "midi": 79,
      "hit": false,
      "t": 171142.6859999994,
      "d": 80.3570624999993,
      "v": 41
    },
    {
      "midi": 76,
      "hit": false,
      "t": 171142.6859999994,
      "d": 84.82134374999441,
      "v": 50
    },
    {
      "midi": 85,
      "hit": false,
      "t": 171142.6859999994,
      "d": 93.74990624998463,
      "v": 50
    },
    {
      "midi": 81,
      "hit": false,
      "t": 171428.39999999938,
      "d": 84.82134374999441,
      "v": 60
    },
    {
      "midi": 86,
      "hit": false,
      "t": 171428.39999999938,
      "d": 98.21418750000885,
      "v": 55
    },
    {
      "midi": 78,
      "hit": false,
      "t": 171428.39999999938,
      "d": 102.67846875000396,
      "v": 60
    },
    {
      "midi": 81,
      "hit": false,
      "t": 171714.1139999994,
      "d": 80.3570624999993,
      "v": 46
    },
    {
      "midi": 86,
      "hit": false,
      "t": 171714.1139999994,
      "d": 84.82134374999441,
      "v": 45
    },
    {
      "midi": 78,
      "hit": false,
      "t": 171714.1139999994,
      "d": 93.74990624998463,
      "v": 46
    },
    {
      "midi": 81,
      "hit": false,
      "t": 171999.82799999937,
      "d": 80.3570624999993,
      "v": 55
    },
    {
      "midi": 86,
      "hit": false,
      "t": 171999.82799999937,
      "d": 84.82134374999441,
      "v": 50
    },
    {
      "midi": 78,
      "hit": false,
      "t": 171999.82799999937,
      "d": 93.74990624998463,
      "v": 50
    },
    {
      "midi": 81,
      "hit": false,
      "t": 172285.54199999935,
      "d": 75.89278125000419,
      "v": 55
    },
    {
      "midi": 78,
      "hit": false,
      "t": 172285.54199999935,
      "d": 89.28562500001863,
      "v": 58
    },
    {
      "midi": 86,
      "hit": false,
      "t": 172285.54199999935,
      "d": 93.74990625001374,
      "v": 52
    },
    {
      "midi": 81,
      "hit": false,
      "t": 172571.25599999935,
      "d": 75.89278125000419,
      "v": 52
    },
    {
      "midi": 86,
      "hit": false,
      "t": 172571.25599999935,
      "d": 84.82134374999441,
      "v": 52
    },
    {
      "midi": 78,
      "hit": false,
      "t": 172571.25599999935,
      "d": 89.28562499998952,
      "v": 52
    },
    {
      "midi": 86,
      "hit": false,
      "t": 172856.96999999933,
      "d": 75.89278125000419,
      "v": 48
    },
    {
      "midi": 81,
      "hit": false,
      "t": 172856.96999999933,
      "d": 84.82134374999441,
      "v": 56
    },
    {
      "midi": 78,
      "hit": false,
      "t": 172856.96999999933,
      "d": 89.28562499998952,
      "v": 48
    },
    {
      "midi": 83,
      "hit": false,
      "t": 173142.6839999993,
      "d": 80.3570624999993,
      "v": 52
    },
    {
      "midi": 86,
      "hit": false,
      "t": 173142.6839999993,
      "d": 89.28562499998952,
      "v": 52
    },
    {
      "midi": 78,
      "hit": false,
      "t": 173142.6839999993,
      "d": 98.21418749997974,
      "v": 53
    },
    {
      "midi": 83,
      "hit": false,
      "t": 173428.3979999993,
      "d": 80.3570624999993,
      "v": 41
    },
    {
      "midi": 86,
      "hit": false,
      "t": 173428.3979999993,
      "d": 84.82134374999441,
      "v": 48
    },
    {
      "midi": 78,
      "hit": false,
      "t": 173428.3979999993,
      "d": 98.21418750000885,
      "v": 47
    },
    {
      "midi": 83,
      "hit": false,
      "t": 173714.1119999993,
      "d": 75.89278125000419,
      "v": 42
    },
    {
      "midi": 86,
      "hit": false,
      "t": 173714.1119999993,
      "d": 80.3570624999993,
      "v": 46
    },
    {
      "midi": 78,
      "hit": false,
      "t": 173714.1119999993,
      "d": 98.21418750000885,
      "v": 46
    },
    {
      "midi": 86,
      "hit": false,
      "t": 173999.8259999993,
      "d": 75.89278125000419,
      "v": 45
    },
    {
      "midi": 83,
      "hit": false,
      "t": 173999.8259999993,
      "d": 84.82134374999441,
      "v": 51
    },
    {
      "midi": 78,
      "hit": false,
      "t": 173999.8259999993,
      "d": 93.74990624998463,
      "v": 47
    },
    {
      "midi": 86,
      "hit": false,
      "t": 174285.53999999928,
      "d": 58.035656249994645,
      "v": 41
    },
    {
      "midi": 83,
      "hit": false,
      "t": 174285.53999999928,
      "d": 75.89278125000419,
      "v": 47
    },
    {
      "midi": 78,
      "hit": false,
      "t": 174285.53999999928,
      "d": 89.28562500001863,
      "v": 46
    },
    {
      "midi": 86,
      "hit": false,
      "t": 174571.2539999993,
      "d": 75.89278125000419,
      "v": 43
    },
    {
      "midi": 83,
      "hit": false,
      "t": 174571.2539999993,
      "d": 84.82134374999441,
      "v": 46
    },
    {
      "midi": 78,
      "hit": false,
      "t": 174571.2539999993,
      "d": 98.21418750000885,
      "v": 42
    },
    {
      "midi": 76,
      "hit": false,
      "t": 174856.9679999993,
      "d": 93.74990625001374,
      "v": 53
    },
    {
      "midi": 86,
      "hit": false,
      "t": 174856.9679999993,
      "d": 93.74990625001374,
      "v": 56
    },
    {
      "midi": 79,
      "hit": false,
      "t": 174856.9679999993,
      "d": 98.21418750000885,
      "v": 53
    },
    {
      "midi": 76,
      "hit": false,
      "t": 175142.6819999993,
      "d": 80.3570624999993,
      "v": 42
    },
    {
      "midi": 86,
      "hit": false,
      "t": 175142.6819999993,
      "d": 80.3570624999993,
      "v": 53
    },
    {
      "midi": 79,
      "hit": false,
      "t": 175142.6819999993,
      "d": 89.28562499998952,
      "v": 43
    },
    {
      "midi": 79,
      "hit": false,
      "t": 175428.39599999928,
      "d": 75.89278125000419,
      "v": 36
    },
    {
      "midi": 76,
      "hit": false,
      "t": 175428.39599999928,
      "d": 84.82134374999441,
      "v": 43
    },
    {
      "midi": 86,
      "hit": false,
      "t": 175428.39599999928,
      "d": 89.28562499998952,
      "v": 56
    },
    {
      "midi": 79,
      "hit": false,
      "t": 175714.10999999926,
      "d": 80.3570624999993,
      "v": 42
    },
    {
      "midi": 76,
      "hit": false,
      "t": 175714.10999999926,
      "d": 84.82134374999441,
      "v": 47
    },
    {
      "midi": 86,
      "hit": false,
      "t": 175714.10999999926,
      "d": 89.28562499998952,
      "v": 56
    },
    {
      "midi": 79,
      "hit": false,
      "t": 175999.82399999924,
      "d": 71.42850000000908,
      "v": 40
    },
    {
      "midi": 76,
      "hit": false,
      "t": 175999.82399999924,
      "d": 84.82134375002352,
      "v": 45
    },
    {
      "midi": 86,
      "hit": false,
      "t": 175999.82399999924,
      "d": 93.74990625001374,
      "v": 57
    },
    {
      "midi": 86,
      "hit": false,
      "t": 176285.53799999924,
      "d": 75.89278125000419,
      "v": 56
    },
    {
      "midi": 79,
      "hit": false,
      "t": 176285.53799999924,
      "d": 80.3570624999993,
      "v": 43
    },
    {
      "midi": 76,
      "hit": false,
      "t": 176285.53799999924,
      "d": 93.74990625001374,
      "v": 47
    },
    {
      "midi": 81,
      "hit": false,
      "t": 176571.25199999925,
      "d": 89.28562499998952,
      "v": 55
    },
    {
      "midi": 85,
      "hit": false,
      "t": 176571.25199999925,
      "d": 93.74990624998463,
      "v": 50
    },
    {
      "midi": 76,
      "hit": false,
      "t": 176571.25199999925,
      "d": 98.21418749997974,
      "v": 52
    },
    {
      "midi": 79,
      "hit": false,
      "t": 176571.25199999925,
      "d": 102.67846874997485,
      "v": 48
    },
    {
      "midi": 81,
      "hit": false,
      "t": 176856.96599999923,
      "d": 58.035656249994645,
      "v": 43
    },
    {
      "midi": 79,
      "hit": false,
      "t": 176856.96599999923,
      "d": 71.42850000000908,
      "v": 37
    },
    {
      "midi": 85,
      "hit": false,
      "t": 176856.96599999923,
      "d": 89.28562500001863,
      "v": 50
    },
    {
      "midi": 76,
      "hit": false,
      "t": 176856.96599999923,
      "d": 98.21418750000885,
      "v": 45
    },
    {
      "midi": 81,
      "hit": false,
      "t": 177142.67999999924,
      "d": 53.571374999999534,
      "v": 32
    },
    {
      "midi": 79,
      "hit": false,
      "t": 177142.67999999924,
      "d": 71.42850000000908,
      "v": 35
    },
    {
      "midi": 85,
      "hit": false,
      "t": 177142.67999999924,
      "d": 84.82134375002352,
      "v": 45
    },
    {
      "midi": 76,
      "hit": false,
      "t": 177142.67999999924,
      "d": 89.28562500001863,
      "v": 47
    },
    {
      "midi": 81,
      "hit": false,
      "t": 177428.39399999924,
      "d": 53.571374999999534,
      "v": 43
    },
    {
      "midi": 79,
      "hit": false,
      "t": 177428.39399999924,
      "d": 71.42850000000908,
      "v": 46
    },
    {
      "midi": 76,
      "hit": false,
      "t": 177428.39399999924,
      "d": 84.82134375002352,
      "v": 51
    },
    {
      "midi": 85,
      "hit": false,
      "t": 177428.39399999924,
      "d": 84.82134375002352,
      "v": 51
    },
    {
      "midi": 81,
      "hit": false,
      "t": 177714.10799999928,
      "d": 49.107093750004424,
      "v": 23
    },
    {
      "midi": 79,
      "hit": false,
      "t": 177714.10799999928,
      "d": 66.96421875001397,
      "v": 35
    },
    {
      "midi": 85,
      "hit": false,
      "t": 177714.10799999928,
      "d": 84.82134375002352,
      "v": 47
    },
    {
      "midi": 76,
      "hit": false,
      "t": 177714.10799999928,
      "d": 89.28562500001863,
      "v": 46
    },
    {
      "midi": 81,
      "hit": false,
      "t": 177999.8219999993,
      "d": 58.035656249994645,
      "v": 31
    },
    {
      "midi": 79,
      "hit": false,
      "t": 177999.8219999993,
      "d": 71.42850000000908,
      "v": 34
    },
    {
      "midi": 85,
      "hit": false,
      "t": 177999.8219999993,
      "d": 89.28562500001863,
      "v": 47
    },
    {
      "midi": 76,
      "hit": false,
      "t": 177999.8219999993,
      "d": 93.74990625001374,
      "v": 45
    },
    {
      "midi": 45,
      "hit": false,
      "t": 178285.5359999993,
      "d": 3035.711249999993,
      "v": 95
    },
    {
      "midi": 50,
      "hit": false,
      "t": 178285.5359999993,
      "d": 3035.711249999993,
      "v": 95
    },
    {
      "midi": 38,
      "hit": false,
      "t": 178285.5359999993,
      "d": 3044.6398124999832,
      "v": 87
    },
    {
      "midi": 74,
      "hit": false,
      "t": 178999.8209999993,
      "d": 26.785687499999767,
      "v": 52
    },
    {
      "midi": 66,
      "hit": false,
      "t": 178999.8209999993,
      "d": 53.571374999999534,
      "v": 76
    },
    {
      "midi": 69,
      "hit": false,
      "t": 178999.8209999993,
      "d": 53.571374999999534,
      "v": 69
    },
    {
      "midi": 69,
      "hit": false,
      "t": 179142.6779999993,
      "d": 611.6065312499995,
      "v": 111
    },
    {
      "midi": 66,
      "hit": false,
      "t": 179142.6779999993,
      "d": 642.8564999999944,
      "v": 107
    },
    {
      "midi": 74,
      "hit": false,
      "t": 179142.6779999993,
      "d": 665.1779062499991,
      "v": 91
    },
    {
      "midi": 64,
      "hit": false,
      "t": 179856.9629999993,
      "d": 58.035656249994645,
      "v": 68
    },
    {
      "midi": 67,
      "hit": false,
      "t": 179856.9629999993,
      "d": 58.035656249994645,
      "v": 67
    },
    {
      "midi": 72,
      "hit": false,
      "t": 179856.9629999993,
      "d": 58.035656249994645,
      "v": 51
    },
    {
      "midi": 64,
      "hit": false,
      "t": 179999.81999999928,
      "d": 1526.7841874999867,
      "v": 87
    },
    {
      "midi": 72,
      "hit": false,
      "t": 179999.81999999928,
      "d": 1540.1770312500012,
      "v": 95
    },
    {
      "midi": 67,
      "hit": false,
      "t": 179999.81999999928,
      "d": 1553.5698750000156,
      "v": 87
    },
    {
      "midi": 50,
      "hit": false,
      "t": 181714.1039999993,
      "d": 3178.5682500000403,
      "v": 95
    },
    {
      "midi": 45,
      "hit": false,
      "t": 181714.1039999993,
      "d": 3187.4968125000305,
      "v": 103
    },
    {
      "midi": 38,
      "hit": false,
      "t": 181714.1039999993,
      "d": 3205.35393750004,
      "v": 91
    },
    {
      "midi": 66,
      "hit": false,
      "t": 182428.3889999993,
      "d": 53.571374999999534,
      "v": 29
    },
    {
      "midi": 69,
      "hit": false,
      "t": 182428.3889999993,
      "d": 58.035656249994645,
      "v": 51
    },
    {
      "midi": 69,
      "hit": false,
      "t": 182571.2459999993,
      "d": 651.7850625000137,
      "v": 91
    },
    {
      "midi": 66,
      "hit": false,
      "t": 182571.2459999993,
      "d": 674.1064687500184,
      "v": 91
    },
    {
      "midi": 74,
      "hit": false,
      "t": 182571.2459999993,
      "d": 714.2850000000326,
      "v": 84
    },
    {
      "midi": 67,
      "hit": false,
      "t": 183285.53099999932,
      "d": 44.64281250000931,
      "v": 43
    },
    {
      "midi": 72,
      "hit": false,
      "t": 183285.53099999932,
      "d": 49.107093750004424,
      "v": 51
    },
    {
      "midi": 64,
      "hit": false,
      "t": 183285.53099999932,
      "d": 71.42850000000908,
      "v": 52
    },
    {
      "midi": 67,
      "hit": false,
      "t": 183428.38799999934,
      "d": 1566.962718750001,
      "v": 91
    },
    {
      "midi": 64,
      "hit": false,
      "t": 183428.38799999934,
      "d": 1575.8912812499912,
      "v": 84
    },
    {
      "midi": 72,
      "hit": false,
      "t": 183428.38799999934,
      "d": 1575.8912812499912,
      "v": 87
    },
    {
      "midi": 44,
      "hit": false,
      "t": 185142.67199999932,
      "d": 84.82134374999441,
      "v": 82
    },
    {
      "midi": 50,
      "hit": false,
      "t": 185142.67199999932,
      "d": 3374.9966249999998,
      "v": 95
    },
    {
      "midi": 45,
      "hit": false,
      "t": 185142.67199999932,
      "d": 3379.460906249995,
      "v": 84
    },
    {
      "midi": 38,
      "hit": false,
      "t": 185142.67199999932,
      "d": 3401.7823124999995,
      "v": 87
    },
    {
      "midi": 50,
      "hit": false,
      "t": 188571.23999999932,
      "d": 3383.92518749999,
      "v": 82
    },
    {
      "midi": 38,
      "hit": false,
      "t": 188571.23999999932,
      "d": 3388.389468749985,
      "v": 71
    },
    {
      "midi": 45,
      "hit": false,
      "t": 188571.23999999932,
      "d": 3388.389468749985,
      "v": 82
    },
    {
      "midi": 50,
      "hit": false,
      "t": 191999.80799999932,
      "d": 62.499937499989755,
      "v": 79
    },
    {
      "midi": 38,
      "hit": false,
      "t": 191999.80799999932,
      "d": 3549.1035937499837,
      "v": 79
    },
    {
      "midi": 45,
      "hit": false,
      "t": 191999.80799999932,
      "d": 3549.1035937499837,
      "v": 79
    }
  ]
}