{
  "jsonPath": "Rock/Album Rock/Todd Rundgren/hello-its-me.json",
  "path": "Rock\\Album Rock\\Todd Rundgren\\Hello Its Me.mid",
  "name": "Hello Its Me",
  "difficulty": "Advanced",
  "bpm": 90.99995298335763,
  "notes": [
    {
      "midi": 62,
      "hit": false,
      "t": 2637.3639999999996,
      "d": 157.9671145833331,
      "v": 76
    },
    {
      "midi": 55,
      "hit": false,
      "t": 2637.3639999999996,
      "d": 161.40118229166637,
      "v": 85
    },
    {
      "midi": 74,
      "hit": false,
      "t": 2637.3639999999996,
      "d": 202.6099947916664,
      "v": 89
    },
    {
      "midi": 70,
      "hit": false,
      "t": 2637.3639999999996,
      "d": 206.04406249999965,
      "v": 85
    },
    {
      "midi": 65,
      "hit": false,
      "t": 2637.3639999999996,
      "d": 212.91219791666617,
      "v": 76
    },
    {
      "midi": 43,
      "hit": false,
      "t": 2637.3639999999996,
      "d": 2228.709942708332,
      "v": 93
    },
    {
      "midi": 62,
      "hit": false,
      "t": 2967.034499999999,
      "d": 113.32423437499983,
      "v": 62
    },
    {
      "midi": 55,
      "hit": false,
      "t": 2967.034499999999,
      "d": 123.62643749999961,
      "v": 76
    },
    {
      "midi": 74,
      "hit": false,
      "t": 2967.034499999999,
      "d": 147.66491145833288,
      "v": 76
    },
    {
      "midi": 70,
      "hit": false,
      "t": 2967.034499999999,
      "d": 151.09897916666614,
      "v": 76
    },
    {
      "midi": 65,
      "hit": false,
      "t": 2967.034499999999,
      "d": 157.96711458333266,
      "v": 64
    },
    {
      "midi": 62,
      "hit": false,
      "t": 3296.704999999998,
      "d": 120.1923697916668,
      "v": 62
    },
    {
      "midi": 55,
      "hit": false,
      "t": 3296.704999999998,
      "d": 123.62643750000007,
      "v": 76
    },
    {
      "midi": 70,
      "hit": false,
      "t": 3296.704999999998,
      "d": 151.0989791666666,
      "v": 72
    },
    {
      "midi": 65,
      "hit": false,
      "t": 3296.704999999998,
      "d": 154.53304687499985,
      "v": 59
    },
    {
      "midi": 74,
      "hit": false,
      "t": 3296.704999999998,
      "d": 161.40118229166637,
      "v": 80
    },
    {
      "midi": 62,
      "hit": false,
      "t": 3626.375499999998,
      "d": 130.49457291666658,
      "v": 68
    },
    {
      "midi": 55,
      "hit": false,
      "t": 3626.375499999998,
      "d": 144.23084375000008,
      "v": 89
    },
    {
      "midi": 70,
      "hit": false,
      "t": 3626.375499999998,
      "d": 147.66491145833334,
      "v": 85
    },
    {
      "midi": 74,
      "hit": false,
      "t": 3626.375499999998,
      "d": 151.0989791666666,
      "v": 89
    },
    {
      "midi": 65,
      "hit": false,
      "t": 3626.375499999998,
      "d": 164.8352500000001,
      "v": 80
    },
    {
      "midi": 62,
      "hit": false,
      "t": 3956.045999999998,
      "d": 140.79677604166636,
      "v": 55
    },
    {
      "midi": 55,
      "hit": false,
      "t": 3956.045999999998,
      "d": 154.5330468749994,
      "v": 62
    },
    {
      "midi": 65,
      "hit": false,
      "t": 3956.045999999998,
      "d": 178.57152083333267,
      "v": 56
    },
    {
      "midi": 74,
      "hit": false,
      "t": 3956.045999999998,
      "d": 178.57152083333267,
      "v": 72
    },
    {
      "midi": 70,
      "hit": false,
      "t": 3956.045999999998,
      "d": 182.00558854166638,
      "v": 72
    },
    {
      "midi": 62,
      "hit": false,
      "t": 4285.716499999998,
      "d": 123.62643750000007,
      "v": 57
    },
    {
      "midi": 55,
      "hit": false,
      "t": 4285.716499999998,
      "d": 133.9286406250003,
      "v": 76
    },
    {
      "midi": 74,
      "hit": false,
      "t": 4285.716499999998,
      "d": 168.2693177083338,
      "v": 85
    },
    {
      "midi": 70,
      "hit": false,
      "t": 4285.716499999998,
      "d": 175.13745312500032,
      "v": 80
    },
    {
      "midi": 65,
      "hit": false,
      "t": 4285.716499999998,
      "d": 178.57152083333403,
      "v": 68
    },
    {
      "midi": 62,
      "hit": false,
      "t": 4615.386999999999,
      "d": 130.49457291666658,
      "v": 60
    },
    {
      "midi": 55,
      "hit": false,
      "t": 4615.386999999999,
      "d": 137.3627083333331,
      "v": 80
    },
    {
      "midi": 65,
      "hit": false,
      "t": 4615.386999999999,
      "d": 178.57152083333312,
      "v": 72
    },
    {
      "midi": 70,
      "hit": false,
      "t": 4615.386999999999,
      "d": 178.57152083333312,
      "v": 85
    },
    {
      "midi": 74,
      "hit": false,
      "t": 4615.386999999999,
      "d": 178.57152083333312,
      "v": 89
    },
    {
      "midi": 70,
      "hit": false,
      "t": 4945.057499999998,
      "d": 96.15389583333308,
      "v": 85
    },
    {
      "midi": 65,
      "hit": false,
      "t": 4945.057499999998,
      "d": 99.5879635416668,
      "v": 76
    },
    {
      "midi": 74,
      "hit": false,
      "t": 4945.057499999998,
      "d": 106.45609895833331,
      "v": 85
    },
    {
      "midi": 55,
      "hit": false,
      "t": 4945.057499999998,
      "d": 109.89016666666703,
      "v": 62
    },
    {
      "midi": 62,
      "hit": false,
      "t": 4945.057499999998,
      "d": 109.89016666666703,
      "v": 59
    },
    {
      "midi": 62,
      "hit": false,
      "t": 5274.727999999999,
      "d": 51.511015625000255,
      "v": 41
    },
    {
      "midi": 55,
      "hit": false,
      "t": 5274.727999999999,
      "d": 68.681354166667,
      "v": 57
    },
    {
      "midi": 60,
      "hit": false,
      "t": 5274.727999999999,
      "d": 72.11542187500072,
      "v": 50
    },
    {
      "midi": 53,
      "hit": false,
      "t": 5274.727999999999,
      "d": 96.15389583333399,
      "v": 55
    },
    {
      "midi": 69,
      "hit": false,
      "t": 5274.727999999999,
      "d": 157.96711458333357,
      "v": 72
    },
    {
      "midi": 64,
      "hit": false,
      "t": 5274.727999999999,
      "d": 168.2693177083338,
      "v": 64
    },
    {
      "midi": 72,
      "hit": false,
      "t": 5274.727999999999,
      "d": 188.87372395833336,
      "v": 68
    },
    {
      "midi": 41,
      "hit": false,
      "t": 5274.727999999999,
      "d": 2101.649437500001,
      "v": 60
    },
    {
      "midi": 60,
      "hit": false,
      "t": 5604.398499999999,
      "d": 109.89016666666703,
      "v": 56
    },
    {
      "midi": 69,
      "hit": false,
      "t": 5604.398499999999,
      "d": 144.23084375000053,
      "v": 76
    },
    {
      "midi": 53,
      "hit": false,
      "t": 5604.398499999999,
      "d": 147.66491145833425,
      "v": 72
    },
    {
      "midi": 72,
      "hit": false,
      "t": 5604.398499999999,
      "d": 154.53304687500076,
      "v": 76
    },
    {
      "midi": 64,
      "hit": false,
      "t": 5604.398499999999,
      "d": 164.835250000001,
      "v": 72
    },
    {
      "midi": 53,
      "hit": false,
      "t": 5934.069,
      "d": 120.19236979166635,
      "v": 85
    },
    {
      "midi": 69,
      "hit": false,
      "t": 5934.069,
      "d": 147.66491145833334,
      "v": 85
    },
    {
      "midi": 64,
      "hit": false,
      "t": 5934.069,
      "d": 151.09897916666705,
      "v": 59
    },
    {
      "midi": 72,
      "hit": false,
      "t": 5934.069,
      "d": 151.09897916666705,
      "v": 85
    },
    {
      "midi": 64,
      "hit": false,
      "t": 6263.739500000001,
      "d": 216.34626562499943,
      "v": 72
    },
    {
      "midi": 69,
      "hit": false,
      "t": 6263.739500000001,
      "d": 219.78033333333315,
      "v": 89
    },
    {
      "midi": 72,
      "hit": false,
      "t": 6263.739500000001,
      "d": 223.21440104166686,
      "v": 93
    },
    {
      "midi": 53,
      "hit": false,
      "t": 6263.739500000001,
      "d": 226.64846875000057,
      "v": 93
    },
    {
      "midi": 53,
      "hit": false,
      "t": 6593.410000000001,
      "d": 109.89016666666703,
      "v": 72
    },
    {
      "midi": 69,
      "hit": false,
      "t": 6593.410000000001,
      "d": 120.19236979166726,
      "v": 76
    },
    {
      "midi": 72,
      "hit": false,
      "t": 6593.410000000001,
      "d": 120.19236979166726,
      "v": 80
    },
    {
      "midi": 64,
      "hit": false,
      "t": 6593.410000000001,
      "d": 127.06050520833378,
      "v": 62
    },
    {
      "midi": 53,
      "hit": false,
      "t": 6923.080500000001,
      "d": 127.06050520833287,
      "v": 76
    },
    {
      "midi": 64,
      "hit": false,
      "t": 6923.080500000001,
      "d": 151.09897916666614,
      "v": 60
    },
    {
      "midi": 69,
      "hit": false,
      "t": 6923.080500000001,
      "d": 151.09897916666614,
      "v": 80
    },
    {
      "midi": 72,
      "hit": false,
      "t": 6923.080500000001,
      "d": 151.09897916666614,
      "v": 80
    },
    {
      "midi": 53,
      "hit": false,
      "t": 7252.751,
      "d": 120.19236979166635,
      "v": 80
    },
    {
      "midi": 69,
      "hit": false,
      "t": 7252.751,
      "d": 137.3627083333331,
      "v": 93
    },
    {
      "midi": 72,
      "hit": false,
      "t": 7252.751,
      "d": 137.3627083333331,
      "v": 89
    },
    {
      "midi": 64,
      "hit": false,
      "t": 7252.751,
      "d": 144.23084374999962,
      "v": 72
    },
    {
      "midi": 69,
      "hit": false,
      "t": 7582.4214999999995,
      "d": 92.71982812500028,
      "v": 89
    },
    {
      "midi": 64,
      "hit": false,
      "t": 7582.4214999999995,
      "d": 99.5879635416668,
      "v": 72
    },
    {
      "midi": 53,
      "hit": false,
      "t": 7582.4214999999995,
      "d": 113.32423437499983,
      "v": 85
    },
    {
      "midi": 72,
      "hit": false,
      "t": 7582.4214999999995,
      "d": 116.75830208333355,
      "v": 93
    },
    {
      "midi": 62,
      "hit": false,
      "t": 7912.092,
      "d": 123.62643750000007,
      "v": 60
    },
    {
      "midi": 55,
      "hit": false,
      "t": 7912.092,
      "d": 157.96711458333357,
      "v": 64
    },
    {
      "midi": 65,
      "hit": false,
      "t": 7912.092,
      "d": 182.00558854166684,
      "v": 60
    },
    {
      "midi": 74,
      "hit": false,
      "t": 7912.092,
      "d": 182.00558854166684,
      "v": 50
    },
    {
      "midi": 70,
      "hit": false,
      "t": 7912.092,
      "d": 192.30779166666707,
      "v": 76
    },
    {
      "midi": 43,
      "hit": false,
      "t": 7912.092,
      "d": 2348.9023125000012,
      "v": 89
    },
    {
      "midi": 55,
      "hit": false,
      "t": 8241.7625,
      "d": 116.75830208333355,
      "v": 72
    },
    {
      "midi": 62,
      "hit": false,
      "t": 8241.7625,
      "d": 120.19236979166635,
      "v": 62
    },
    {
      "midi": 74,
      "hit": false,
      "t": 8241.7625,
      "d": 137.3627083333322,
      "v": 68
    },
    {
      "midi": 70,
      "hit": false,
      "t": 8241.7625,
      "d": 140.796776041665,
      "v": 72
    },
    {
      "midi": 65,
      "hit": false,
      "t": 8241.7625,
      "d": 151.09897916666523,
      "v": 62
    },
    {
      "midi": 62,
      "hit": false,
      "t": 8571.432999999999,
      "d": 144.23084374999962,
      "v": 64
    },
    {
      "midi": 55,
      "hit": false,
      "t": 8571.432999999999,
      "d": 151.09897916666705,
      "v": 76
    },
    {
      "midi": 65,
      "hit": false,
      "t": 8571.432999999999,
      "d": 164.8352500000001,
      "v": 72
    },
    {
      "midi": 70,
      "hit": false,
      "t": 8571.432999999999,
      "d": 164.8352500000001,
      "v": 80
    },
    {
      "midi": 74,
      "hit": false,
      "t": 8571.432999999999,
      "d": 168.2693177083329,
      "v": 85
    },
    {
      "midi": 62,
      "hit": false,
      "t": 8901.1035,
      "d": 133.9286406249994,
      "v": 72
    },
    {
      "midi": 55,
      "hit": false,
      "t": 8901.1035,
      "d": 140.79677604166682,
      "v": 89
    },
    {
      "midi": 65,
      "hit": false,
      "t": 8901.1035,
      "d": 175.13745312500032,
      "v": 76
    },
    {
      "midi": 70,
      "hit": false,
      "t": 8901.1035,
      "d": 178.57152083333312,
      "v": 89
    },
    {
      "midi": 74,
      "hit": false,
      "t": 8901.1035,
      "d": 178.57152083333312,
      "v": 89
    },
    {
      "midi": 62,
      "hit": false,
      "t": 9230.774,
      "d": 151.09897916666705,
      "v": 72
    },
    {
      "midi": 55,
      "hit": false,
      "t": 9230.774,
      "d": 171.70338541666752,
      "v": 93
    },
    {
      "midi": 70,
      "hit": false,
      "t": 9230.774,
      "d": 185.43965625000055,
      "v": 93
    },
    {
      "midi": 65,
      "hit": false,
      "t": 9230.774,
      "d": 188.87372395833336,
      "v": 72
    },
    {
      "midi": 74,
      "hit": false,
      "t": 9230.774,
      "d": 192.30779166666616,
      "v": 89
    },
    {
      "midi": 62,
      "hit": false,
      "t": 9560.4445,
      "d": 113.32423437500074,
      "v": 62
    },
    {
      "midi": 55,
      "hit": false,
      "t": 9560.4445,
      "d": 120.19236979166817,
      "v": 76
    },
    {
      "midi": 70,
      "hit": false,
      "t": 9560.4445,
      "d": 151.09897916666887,
      "v": 89
    },
    {
      "midi": 74,
      "hit": false,
      "t": 9560.4445,
      "d": 151.09897916666887,
      "v": 89
    },
    {
      "midi": 65,
      "hit": false,
      "t": 9560.4445,
      "d": 154.53304687500167,
      "v": 76
    },
    {
      "midi": 62,
      "hit": false,
      "t": 9890.115000000002,
      "d": 123.62643750000097,
      "v": 72
    },
    {
      "midi": 55,
      "hit": false,
      "t": 9890.115000000002,
      "d": 130.4945729166684,
      "v": 80
    },
    {
      "midi": 70,
      "hit": false,
      "t": 9890.115000000002,
      "d": 178.57152083333494,
      "v": 93
    },
    {
      "midi": 65,
      "hit": false,
      "t": 9890.115000000002,
      "d": 182.00558854166775,
      "v": 80
    },
    {
      "midi": 74,
      "hit": false,
      "t": 9890.115000000002,
      "d": 182.00558854166775,
      "v": 89
    },
    {
      "midi": 65,
      "hit": false,
      "t": 10219.785500000002,
      "d": 99.58796354166589,
      "v": 76
    },
    {
      "midi": 62,
      "hit": false,
      "t": 10219.785500000002,
      "d": 103.02203124999869,
      "v": 72
    },
    {
      "midi": 70,
      "hit": false,
      "t": 10219.785500000002,
      "d": 109.89016666666612,
      "v": 89
    },
    {
      "midi": 55,
      "hit": false,
      "t": 10219.785500000002,
      "d": 116.75830208333355,
      "v": 80
    },
    {
      "midi": 74,
      "hit": false,
      "t": 10219.785500000002,
      "d": 120.19236979166635,
      "v": 93
    },
    {
      "midi": 53,
      "hit": false,
      "t": 10549.456000000002,
      "d": 133.9286406249994,
      "v": 85
    },
    {
      "midi": 64,
      "hit": false,
      "t": 10549.456000000002,
      "d": 151.09897916666523,
      "v": 64
    },
    {
      "midi": 69,
      "hit": false,
      "t": 10549.456000000002,
      "d": 161.40118229166546,
      "v": 85
    },
    {
      "midi": 72,
      "hit": false,
      "t": 10549.456000000002,
      "d": 171.7033854166657,
      "v": 89
    },
    {
      "midi": 41,
      "hit": false,
      "t": 10549.456000000002,
      "d": 1833.7921562500014,
      "v": 72
    },
    {
      "midi": 53,
      "hit": false,
      "t": 10879.1265,
      "d": 137.3627083333322,
      "v": 68
    },
    {
      "midi": 69,
      "hit": false,
      "t": 10879.1265,
      "d": 157.96711458333266,
      "v": 76
    },
    {
      "midi": 64,
      "hit": false,
      "t": 10879.1265,
      "d": 164.8352500000001,
      "v": 52
    },
    {
      "midi": 72,
      "hit": false,
      "t": 10879.1265,
      "d": 168.2693177083329,
      "v": 62
    },
    {
      "midi": 53,
      "hit": false,
      "t": 11208.797,
      "d": 120.19236979166635,
      "v": 89
    },
    {
      "midi": 69,
      "hit": false,
      "t": 11208.797,
      "d": 127.06050520833378,
      "v": 85
    },
    {
      "midi": 64,
      "hit": false,
      "t": 11208.797,
      "d": 133.9286406250012,
      "v": 68
    },
    {
      "midi": 72,
      "hit": false,
      "t": 11208.797,
      "d": 137.362708333334,
      "v": 89
    },
    {
      "midi": 53,
      "hit": false,
      "t": 11538.467500000002,
      "d": 154.53304687499985,
      "v": 93
    },
    {
      "midi": 64,
      "hit": false,
      "t": 11538.467500000002,
      "d": 175.13745312500032,
      "v": 76
    },
    {
      "midi": 69,
      "hit": false,
      "t": 11538.467500000002,
      "d": 175.13745312500032,
      "v": 93
    },
    {
      "midi": 72,
      "hit": false,
      "t": 11538.467500000002,
      "d": 182.00558854166775,
      "v": 93
    },
    {
      "midi": 53,
      "hit": false,
      "t": 11868.138000000003,
      "d": 137.362708333334,
      "v": 76
    },
    {
      "midi": 69,
      "hit": false,
      "t": 11868.138000000003,
      "d": 164.8352500000001,
      "v": 76
    },
    {
      "midi": 64,
      "hit": false,
      "t": 11868.138000000003,
      "d": 175.13745312500032,
      "v": 72
    },
    {
      "midi": 72,
      "hit": false,
      "t": 11868.138000000003,
      "d": 175.13745312500032,
      "v": 85
    },
    {
      "midi": 53,
      "hit": false,
      "t": 12197.808500000003,
      "d": 157.96711458333448,
      "v": 93
    },
    {
      "midi": 64,
      "hit": false,
      "t": 12197.808500000003,
      "d": 171.70338541666752,
      "v": 72
    },
    {
      "midi": 69,
      "hit": false,
      "t": 12197.808500000003,
      "d": 175.13745312500032,
      "v": 93
    },
    {
      "midi": 72,
      "hit": false,
      "t": 12197.808500000003,
      "d": 185.43965625000055,
      "v": 89
    },
    {
      "midi": 53,
      "hit": false,
      "t": 12527.479000000003,
      "d": 113.32423437500074,
      "v": 72
    },
    {
      "midi": 64,
      "hit": false,
      "t": 12527.479000000003,
      "d": 137.362708333334,
      "v": 60
    },
    {
      "midi": 69,
      "hit": false,
      "t": 12527.479000000003,
      "d": 137.362708333334,
      "v": 89
    },
    {
      "midi": 72,
      "hit": false,
      "t": 12527.479000000003,
      "d": 151.09897916666705,
      "v": 89
    },
    {
      "midi": 69,
      "hit": false,
      "t": 12857.149500000003,
      "d": 106.45609895833331,
      "v": 89
    },
    {
      "midi": 64,
      "hit": false,
      "t": 12857.149500000003,
      "d": 120.19236979166635,
      "v": 80
    },
    {
      "midi": 72,
      "hit": false,
      "t": 12857.149500000003,
      "d": 130.49457291666658,
      "v": 93
    },
    {
      "midi": 53,
      "hit": false,
      "t": 12857.149500000003,
      "d": 147.66491145833243,
      "v": 93
    },
    {
      "midi": 62,
      "hit": false,
      "t": 13186.820000000002,
      "d": 157.96711458333266,
      "v": 76
    },
    {
      "midi": 55,
      "hit": false,
      "t": 13186.820000000002,
      "d": 161.40118229166546,
      "v": 85
    },
    {
      "midi": 74,
      "hit": false,
      "t": 13186.820000000002,
      "d": 202.60999479166458,
      "v": 89
    },
    {
      "midi": 70,
      "hit": false,
      "t": 13186.820000000002,
      "d": 206.04406249999738,
      "v": 85
    },
    {
      "midi": 65,
      "hit": false,
      "t": 13186.820000000002,
      "d": 212.9121979166648,
      "v": 76
    },
    {
      "midi": 43,
      "hit": false,
      "t": 13186.820000000002,
      "d": 2228.7099427083285,
      "v": 93
    },
    {
      "midi": 62,
      "hit": false,
      "t": 13516.4905,
      "d": 113.32423437500074,
      "v": 62
    },
    {
      "midi": 55,
      "hit": false,
      "t": 13516.4905,
      "d": 123.62643750000097,
      "v": 76
    },
    {
      "midi": 74,
      "hit": false,
      "t": 13516.4905,
      "d": 147.66491145833425,
      "v": 76
    },
    {
      "midi": 70,
      "hit": false,
      "t": 13516.4905,
      "d": 151.09897916666705,
      "v": 76
    },
    {
      "midi": 65,
      "hit": false,
      "t": 13516.4905,
      "d": 157.96711458333448,
      "v": 64
    },
    {
      "midi": 62,
      "hit": false,
      "t": 13846.161000000002,
      "d": 120.19236979166635,
      "v": 62
    },
    {
      "midi": 55,
      "hit": false,
      "t": 13846.161000000002,
      "d": 123.62643749999916,
      "v": 76
    },
    {
      "midi": 70,
      "hit": false,
      "t": 13846.161000000002,
      "d": 151.09897916666523,
      "v": 72
    },
    {
      "midi": 65,
      "hit": false,
      "t": 13846.161000000002,
      "d": 154.53304687499804,
      "v": 59
    },
    {
      "midi": 74,
      "hit": false,
      "t": 13846.161000000002,
      "d": 161.40118229166546,
      "v": 80
    },
    {
      "midi": 62,
      "hit": false,
      "t": 14175.8315,
      "d": 130.49457291666658,
      "v": 68
    },
    {
      "midi": 55,
      "hit": false,
      "t": 14175.8315,
      "d": 144.23084374999962,
      "v": 89
    },
    {
      "midi": 70,
      "hit": false,
      "t": 14175.8315,
      "d": 147.66491145833243,
      "v": 85
    },
    {
      "midi": 74,
      "hit": false,
      "t": 14175.8315,
      "d": 151.09897916666523,
      "v": 89
    },
    {
      "midi": 65,
      "hit": false,
      "t": 14175.8315,
      "d": 164.83524999999827,
      "v": 80
    },
    {
      "midi": 62,
      "hit": false,
      "t": 14505.501999999999,
      "d": 140.79677604166682,
      "v": 55
    },
    {
      "midi": 55,
      "hit": false,
      "t": 14505.501999999999,
      "d": 154.53304687499985,
      "v": 62
    },
    {
      "midi": 65,
      "hit": false,
      "t": 14505.501999999999,
      "d": 178.57152083333312,
      "v": 56
    },
    {
      "midi": 74,
      "hit": false,
      "t": 14505.501999999999,
      "d": 178.57152083333312,
      "v": 72
    },
    {
      "midi": 70,
      "hit": false,
      "t": 14505.501999999999,
      "d": 182.00558854166593,
      "v": 72
    },
    {
      "midi": 62,
      "hit": false,
      "t": 14835.172499999997,
      "d": 123.62643749999916,
      "v": 57
    },
    {
      "midi": 55,
      "hit": false,
      "t": 14835.172499999997,
      "d": 133.9286406249994,
      "v": 76
    },
    {
      "midi": 74,
      "hit": false,
      "t": 14835.172499999997,
      "d": 168.2693177083329,
      "v": 85
    },
    {
      "midi": 70,
      "hit": false,
      "t": 14835.172499999997,
      "d": 175.13745312500032,
      "v": 80
    },
    {
      "midi": 65,
      "hit": false,
      "t": 14835.172499999997,
      "d": 178.57152083333312,
      "v": 68
    },
    {
      "midi": 62,
      "hit": false,
      "t": 15164.842999999997,
      "d": 130.49457291666658,
      "v": 60
    },
    {
      "midi": 55,
      "hit": false,
      "t": 15164.842999999997,
      "d": 137.362708333334,
      "v": 80
    },
    {
      "midi": 65,
      "hit": false,
      "t": 15164.842999999997,
      "d": 178.57152083333312,
      "v": 72
    },
    {
      "midi": 70,
      "hit": false,
      "t": 15164.842999999997,
      "d": 178.57152083333312,
      "v": 85
    },
    {
      "midi": 74,
      "hit": false,
      "t": 15164.842999999997,
      "d": 178.57152083333312,
      "v": 89
    },
    {
      "midi": 70,
      "hit": false,
      "t": 15494.513499999997,
      "d": 96.15389583333308,
      "v": 85
    },
    {
      "midi": 65,
      "hit": false,
      "t": 15494.513499999997,
      "d": 99.58796354166589,
      "v": 76
    },
    {
      "midi": 74,
      "hit": false,
      "t": 15494.513499999997,
      "d": 106.45609895833331,
      "v": 85
    },
    {
      "midi": 55,
      "hit": false,
      "t": 15494.513499999997,
      "d": 109.89016666666612,
      "v": 62
    },
    {
      "midi": 62,
      "hit": false,
      "t": 15494.513499999997,
      "d": 109.89016666666612,
      "v": 59
    },
    {
      "midi": 62,
      "hit": false,
      "t": 15824.183999999996,
      "d": 51.511015624999345,
      "v": 41
    },
    {
      "midi": 55,
      "hit": false,
      "t": 15824.183999999996,
      "d": 68.68135416666519,
      "v": 57
    },
    {
      "midi": 60,
      "hit": false,
      "t": 15824.183999999996,
      "d": 72.11542187499799,
      "v": 50
    },
    {
      "midi": 53,
      "hit": false,
      "t": 15824.183999999996,
      "d": 96.15389583333126,
      "v": 55
    },
    {
      "midi": 69,
      "hit": false,
      "t": 15824.183999999996,
      "d": 157.96711458333084,
      "v": 72
    },
    {
      "midi": 64,
      "hit": false,
      "t": 15824.183999999996,
      "d": 168.26931770833107,
      "v": 64
    },
    {
      "midi": 72,
      "hit": false,
      "t": 15824.183999999996,
      "d": 188.87372395833154,
      "v": 68
    },
    {
      "midi": 41,
      "hit": false,
      "t": 15824.183999999996,
      "d": 2101.649437500013,
      "v": 60
    },
    {
      "midi": 60,
      "hit": false,
      "t": 16153.854499999994,
      "d": 109.89016666666612,
      "v": 56
    },
    {
      "midi": 69,
      "hit": false,
      "t": 16153.854499999994,
      "d": 144.23084374999962,
      "v": 76
    },
    {
      "midi": 53,
      "hit": false,
      "t": 16153.854499999994,
      "d": 147.66491145833243,
      "v": 72
    },
    {
      "midi": 72,
      "hit": false,
      "t": 16153.854499999994,
      "d": 154.53304687499985,
      "v": 76
    },
    {
      "midi": 64,
      "hit": false,
      "t": 16153.854499999994,
      "d": 164.8352500000001,
      "v": 72
    },
    {
      "midi": 53,
      "hit": false,
      "t": 16483.524999999994,
      "d": 120.19236979166817,
      "v": 85
    },
    {
      "midi": 69,
      "hit": false,
      "t": 16483.524999999994,
      "d": 147.66491145833425,
      "v": 85
    },
    {
      "midi": 64,
      "hit": false,
      "t": 16483.524999999994,
      "d": 151.09897916666887,
      "v": 59
    },
    {
      "midi": 72,
      "hit": false,
      "t": 16483.524999999994,
      "d": 151.09897916666887,
      "v": 85
    },
    {
      "midi": 64,
      "hit": false,
      "t": 16813.195499999998,
      "d": 216.34626562500125,
      "v": 72
    },
    {
      "midi": 69,
      "hit": false,
      "t": 16813.195499999998,
      "d": 219.78033333333588,
      "v": 89
    },
    {
      "midi": 72,
      "hit": false,
      "t": 16813.195499999998,
      "d": 223.2144010416705,
      "v": 93
    },
    {
      "midi": 53,
      "hit": false,
      "t": 16813.195499999998,
      "d": 226.64846875000512,
      "v": 93
    },
    {
      "midi": 53,
      "hit": false,
      "t": 17142.866,
      "d": 109.89016666666794,
      "v": 72
    },
    {
      "midi": 69,
      "hit": false,
      "t": 17142.866,
      "d": 120.19236979166817,
      "v": 76
    },
    {
      "midi": 72,
      "hit": false,
      "t": 17142.866,
      "d": 120.19236979166817,
      "v": 80
    },
    {
      "midi": 64,
      "hit": false,
      "t": 17142.866,
      "d": 127.06050520833378,
      "v": 62
    },
    {
      "midi": 53,
      "hit": false,
      "t": 17472.536500000002,
      "d": 127.06050520833378,
      "v": 76
    },
    {
      "midi": 64,
      "hit": false,
      "t": 17472.536500000002,
      "d": 151.09897916666887,
      "v": 60
    },
    {
      "midi": 69,
      "hit": false,
      "t": 17472.536500000002,
      "d": 151.09897916666887,
      "v": 80
    },
    {
      "midi": 72,
      "hit": false,
      "t": 17472.536500000002,
      "d": 151.09897916666887,
      "v": 80
    },
    {
      "midi": 53,
      "hit": false,
      "t": 17802.207000000006,
      "d": 120.19236979166817,
      "v": 80
    },
    {
      "midi": 69,
      "hit": false,
      "t": 17802.207000000006,
      "d": 137.36270833333765,
      "v": 93
    },
    {
      "midi": 72,
      "hit": false,
      "t": 17802.207000000006,
      "d": 137.36270833333765,
      "v": 89
    },
    {
      "midi": 64,
      "hit": false,
      "t": 17802.207000000006,
      "d": 144.23084375000326,
      "v": 72
    },
    {
      "midi": 69,
      "hit": false,
      "t": 18131.87750000001,
      "d": 92.71982812499846,
      "v": 89
    },
    {
      "midi": 64,
      "hit": false,
      "t": 18131.87750000001,
      "d": 99.58796354166407,
      "v": 72
    },
    {
      "midi": 53,
      "hit": false,
      "t": 18131.87750000001,
      "d": 113.32423437499892,
      "v": 85
    },
    {
      "midi": 72,
      "hit": false,
      "t": 18131.87750000001,
      "d": 116.75830208333355,
      "v": 93
    },
    {
      "midi": 62,
      "hit": false,
      "t": 18461.54800000001,
      "d": 123.62643749999916,
      "v": 60
    },
    {
      "midi": 55,
      "hit": false,
      "t": 18461.54800000001,
      "d": 157.96711458333084,
      "v": 64
    },
    {
      "midi": 65,
      "hit": false,
      "t": 18461.54800000001,
      "d": 182.00558854166593,
      "v": 60
    },
    {
      "midi": 74,
      "hit": false,
      "t": 18461.54800000001,
      "d": 182.00558854166593,
      "v": 50
    },
    {
      "midi": 70,
      "hit": false,
      "t": 18461.54800000001,
      "d": 192.30779166666616,
      "v": 76
    },
    {
      "midi": 43,
      "hit": false,
      "t": 18461.54800000001,
      "d": 2348.902312500006,
      "v": 89
    },
    {
      "midi": 55,
      "hit": false,
      "t": 18791.21850000001,
      "d": 116.75830208333355,
      "v": 72
    },
    {
      "midi": 62,
      "hit": false,
      "t": 18791.21850000001,
      "d": 120.19236979166817,
      "v": 62
    },
    {
      "midi": 74,
      "hit": false,
      "t": 18791.21850000001,
      "d": 137.362708333334,
      "v": 68
    },
    {
      "midi": 70,
      "hit": false,
      "t": 18791.21850000001,
      "d": 140.79677604166864,
      "v": 72
    },
    {
      "midi": 65,
      "hit": false,
      "t": 18791.21850000001,
      "d": 151.09897916666887,
      "v": 62
    },
    {
      "midi": 62,
      "hit": false,
      "t": 19120.889000000014,
      "d": 144.23084374999962,
      "v": 64
    },
    {
      "midi": 55,
      "hit": false,
      "t": 19120.889000000014,
      "d": 151.09897916666523,
      "v": 76
    },
    {
      "midi": 65,
      "hit": false,
      "t": 19120.889000000014,
      "d": 164.8352500000001,
      "v": 72
    },
    {
      "midi": 70,
      "hit": false,
      "t": 19120.889000000014,
      "d": 164.8352500000001,
      "v": 80
    },
    {
      "midi": 74,
      "hit": false,
      "t": 19120.889000000014,
      "d": 168.2693177083347,
      "v": 85
    },
    {
      "midi": 62,
      "hit": false,
      "t": 19450.559500000014,
      "d": 133.9286406249994,
      "v": 72
    },
    {
      "midi": 55,
      "hit": false,
      "t": 19450.559500000014,
      "d": 140.796776041665,
      "v": 89
    },
    {
      "midi": 65,
      "hit": false,
      "t": 19450.559500000014,
      "d": 175.13745312499668,
      "v": 76
    },
    {
      "midi": 70,
      "hit": false,
      "t": 19450.559500000014,
      "d": 178.5715208333313,
      "v": 89
    },
    {
      "midi": 74,
      "hit": false,
      "t": 19450.559500000014,
      "d": 178.5715208333313,
      "v": 89
    },
    {
      "midi": 62,
      "hit": false,
      "t": 19780.23000000001,
      "d": 151.09897916666523,
      "v": 72
    },
    {
      "midi": 55,
      "hit": false,
      "t": 19780.23000000001,
      "d": 171.7033854166657,
      "v": 93
    },
    {
      "midi": 70,
      "hit": false,
      "t": 19780.23000000001,
      "d": 185.43965625000055,
      "v": 93
    },
    {
      "midi": 65,
      "hit": false,
      "t": 19780.23000000001,
      "d": 188.87372395833518,
      "v": 72
    },
    {
      "midi": 74,
      "hit": false,
      "t": 19780.23000000001,
      "d": 192.3077916666698,
      "v": 89
    },
    {
      "midi": 62,
      "hit": false,
      "t": 20109.900500000014,
      "d": 113.32423437499892,
      "v": 62
    },
    {
      "midi": 55,
      "hit": false,
      "t": 20109.900500000014,
      "d": 120.19236979166453,
      "v": 76
    },
    {
      "midi": 70,
      "hit": false,
      "t": 20109.900500000014,
      "d": 151.09897916666523,
      "v": 89
    },
    {
      "midi": 74,
      "hit": false,
      "t": 20109.900500000014,
      "d": 151.09897916666523,
      "v": 89
    },
    {
      "midi": 65,
      "hit": false,
      "t": 20109.900500000014,
      "d": 154.53304687499985,
      "v": 76
    },
    {
      "midi": 62,
      "hit": false,
      "t": 20439.571000000014,
      "d": 123.62643749999916,
      "v": 72
    },
    {
      "midi": 55,
      "hit": false,
      "t": 20439.571000000014,
      "d": 130.49457291666477,
      "v": 80
    },
    {
      "midi": 70,
      "hit": false,
      "t": 20439.571000000014,
      "d": 178.5715208333313,
      "v": 93
    },
    {
      "midi": 65,
      "hit": false,
      "t": 20439.571000000014,
      "d": 182.00558854166593,
      "v": 80
    },
    {
      "midi": 74,
      "hit": false,
      "t": 20439.571000000014,
      "d": 182.00558854166593,
      "v": 89
    },
    {
      "midi": 65,
      "hit": false,
      "t": 20769.241500000015,
      "d": 99.5879635416677,
      "v": 76
    },
    {
      "midi": 62,
      "hit": false,
      "t": 20769.241500000015,
      "d": 103.02203125000233,
      "v": 72
    },
    {
      "midi": 70,
      "hit": false,
      "t": 20769.241500000015,
      "d": 109.89016666666794,
      "v": 89
    },
    {
      "midi": 55,
      "hit": false,
      "t": 20769.241500000015,
      "d": 116.75830208333355,
      "v": 80
    },
    {
      "midi": 74,
      "hit": false,
      "t": 20769.241500000015,
      "d": 120.19236979166817,
      "v": 93
    },
    {
      "midi": 53,
      "hit": false,
      "t": 21098.912000000015,
      "d": 133.9286406249994,
      "v": 85
    },
    {
      "midi": 64,
      "hit": false,
      "t": 21098.912000000015,
      "d": 151.09897916666523,
      "v": 64
    },
    {
      "midi": 69,
      "hit": false,
      "t": 21098.912000000015,
      "d": 161.40118229166546,
      "v": 85
    },
    {
      "midi": 72,
      "hit": false,
      "t": 21098.912000000015,
      "d": 171.7033854166657,
      "v": 89
    },
    {
      "midi": 41,
      "hit": false,
      "t": 21098.912000000015,
      "d": 1833.792156250005,
      "v": 72
    },
    {
      "midi": 53,
      "hit": false,
      "t": 21428.582500000015,
      "d": 137.362708333334,
      "v": 68
    },
    {
      "midi": 69,
      "hit": false,
      "t": 21428.582500000015,
      "d": 157.96711458333448,
      "v": 76
    },
    {
      "midi": 64,
      "hit": false,
      "t": 21428.582500000015,
      "d": 164.8352500000001,
      "v": 52
    },
    {
      "midi": 72,
      "hit": false,
      "t": 21428.582500000015,
      "d": 168.2693177083347,
      "v": 62
    },
    {
      "midi": 53,
      "hit": false,
      "t": 21758.253000000015,
      "d": 120.19236979166817,
      "v": 89
    },
    {
      "midi": 69,
      "hit": false,
      "t": 21758.253000000015,
      "d": 127.06050520833378,
      "v": 85
    },
    {
      "midi": 64,
      "hit": false,
      "t": 21758.253000000015,
      "d": 133.9286406249994,
      "v": 68
    },
    {
      "midi": 72,
      "hit": false,
      "t": 21758.253000000015,
      "d": 137.362708333334,
      "v": 89
    },
    {
      "midi": 53,
      "hit": false,
      "t": 22087.923500000015,
      "d": 154.53304687499985,
      "v": 93
    },
    {
      "midi": 64,
      "hit": false,
      "t": 22087.923500000015,
      "d": 175.13745312500032,
      "v": 76
    },
    {
      "midi": 69,
      "hit": false,
      "t": 22087.923500000015,
      "d": 175.13745312500032,
      "v": 93
    },
    {
      "midi": 72,
      "hit": false,
      "t": 22087.923500000015,
      "d": 182.00558854166593,
      "v": 93
    },
    {
      "midi": 53,
      "hit": false,
      "t": 22417.594000000016,
      "d": 137.362708333334,
      "v": 76
    },
    {
      "midi": 69,
      "hit": false,
      "t": 22417.594000000016,
      "d": 164.8352500000001,
      "v": 76
    },
    {
      "midi": 64,
      "hit": false,
      "t": 22417.594000000016,
      "d": 175.13745312500032,
      "v": 72
    },
    {
      "midi": 72,
      "hit": false,
      "t": 22417.594000000016,
      "d": 175.13745312500032,
      "v": 85
    },
    {
      "midi": 53,
      "hit": false,
      "t": 22747.264500000016,
      "d": 157.96711458333448,
      "v": 93
    },
    {
      "midi": 64,
      "hit": false,
      "t": 22747.264500000016,
      "d": 171.70338541666933,
      "v": 72
    },
    {
      "midi": 69,
      "hit": false,
      "t": 22747.264500000016,
      "d": 175.13745312500396,
      "v": 93
    },
    {
      "midi": 72,
      "hit": false,
      "t": 22747.264500000016,
      "d": 185.4396562500042,
      "v": 89
    },
    {
      "midi": 53,
      "hit": false,
      "t": 23076.93500000002,
      "d": 113.32423437499892,
      "v": 72
    },
    {
      "midi": 64,
      "hit": false,
      "t": 23076.93500000002,
      "d": 137.362708333334,
      "v": 60
    },
    {
      "midi": 69,
      "hit": false,
      "t": 23076.93500000002,
      "d": 137.362708333334,
      "v": 89
    },
    {
      "midi": 72,
      "hit": false,
      "t": 23076.93500000002,
      "d": 151.09897916666887,
      "v": 89
    },
    {
      "midi": 69,
      "hit": false,
      "t": 23406.605500000023,
      "d": 106.45609895833331,
      "v": 89
    },
    {
      "midi": 64,
      "hit": false,
      "t": 23406.605500000023,
      "d": 120.19236979166817,
      "v": 80
    },
    {
      "midi": 72,
      "hit": false,
      "t": 23406.605500000023,
      "d": 130.4945729166684,
      "v": 93
    },
    {
      "midi": 53,
      "hit": false,
      "t": 23406.605500000023,
      "d": 147.66491145833425,
      "v": 93
    },
    {
      "midi": 62,
      "hit": false,
      "t": 23736.276000000023,
      "d": 68.681354166667,
      "v": 62
    },
    {
      "midi": 51,
      "hit": false,
      "t": 23736.276000000023,
      "d": 92.7198281250021,
      "v": 93
    },
    {
      "midi": 58,
      "hit": false,
      "t": 23736.276000000023,
      "d": 96.15389583333672,
      "v": 93
    },
    {
      "midi": 70,
      "hit": false,
      "t": 23736.276000000023,
      "d": 96.15389583333672,
      "v": 85
    },
    {
      "midi": 67,
      "hit": false,
      "t": 23736.276000000023,
      "d": 99.58796354167134,
      "v": 93
    },
    {
      "midi": 51,
      "hit": false,
      "t": 24065.946500000027,
      "d": 61.8132187500014,
      "v": 72
    },
    {
      "midi": 67,
      "hit": false,
      "t": 24065.946500000027,
      "d": 68.681354166667,
      "v": 60
    },
    {
      "midi": 62,
      "hit": false,
      "t": 24065.946500000027,
      "d": 82.41762500000186,
      "v": 62
    },
    {
      "midi": 70,
      "hit": false,
      "t": 24065.946500000027,
      "d": 85.85169270833649,
      "v": 72
    },
    {
      "midi": 58,
      "hit": false,
      "t": 24065.946500000027,
      "d": 89.28576041667111,
      "v": 72
    },
    {
      "midi": 67,
      "hit": false,
      "t": 24395.61700000003,
      "d": 68.681354166667,
      "v": 62
    },
    {
      "midi": 62,
      "hit": false,
      "t": 24395.61700000003,
      "d": 78.98355729166724,
      "v": 60
    },
    {
      "midi": 51,
      "hit": false,
      "t": 24395.61700000003,
      "d": 82.41762500000186,
      "v": 93
    },
    {
      "midi": 70,
      "hit": false,
      "t": 24395.61700000003,
      "d": 82.41762500000186,
      "v": 68
    },
    {
      "midi": 62,
      "hit": false,
      "t": 24725.28750000003,
      "d": 573.4893072916675,
      "v": 80
    },
    {
      "midi": 51,
      "hit": false,
      "t": 24725.28750000003,
      "d": 590.6596458333333,
      "v": 98
    },
    {
      "midi": 67,
      "hit": false,
      "t": 24725.28750000003,
      "d": 590.6596458333333,
      "v": 93
    },
    {
      "midi": 70,
      "hit": false,
      "t": 24725.28750000003,
      "d": 594.093713541668,
      "v": 89
    },
    {
      "midi": 67,
      "hit": false,
      "t": 25384.62850000003,
      "d": 58.37915104166677,
      "v": 80
    },
    {
      "midi": 51,
      "hit": false,
      "t": 25384.62850000003,
      "d": 68.681354166667,
      "v": 80
    },
    {
      "midi": 62,
      "hit": false,
      "t": 25384.62850000003,
      "d": 82.41762500000186,
      "v": 68
    },
    {
      "midi": 70,
      "hit": false,
      "t": 25384.62850000003,
      "d": 96.15389583333672,
      "v": 80
    },
    {
      "midi": 67,
      "hit": false,
      "t": 26043.969500000036,
      "d": 72.11542187500163,
      "v": 72
    },
    {
      "midi": 70,
      "hit": false,
      "t": 26043.969500000036,
      "d": 82.41762500000186,
      "v": 80
    },
    {
      "midi": 62,
      "hit": false,
      "t": 26043.969500000036,
      "d": 89.28576041666747,
      "v": 64
    },
    {
      "midi": 51,
      "hit": false,
      "t": 26043.969500000036,
      "d": 96.15389583333308,
      "v": 89
    },
    {
      "midi": 65,
      "hit": false,
      "t": 26373.640000000036,
      "d": 75.54948958333262,
      "v": 72
    },
    {
      "midi": 50,
      "hit": false,
      "t": 26373.640000000036,
      "d": 78.98355729166724,
      "v": 89
    },
    {
      "midi": 60,
      "hit": false,
      "t": 26373.640000000036,
      "d": 78.98355729166724,
      "v": 72
    },
    {
      "midi": 69,
      "hit": false,
      "t": 26373.640000000036,
      "d": 96.15389583333308,
      "v": 76
    },
    {
      "midi": 50,
      "hit": false,
      "t": 26703.310500000036,
      "d": 34.340677083331684,
      "v": 46
    },
    {
      "midi": 65,
      "hit": false,
      "t": 26703.310500000036,
      "d": 61.81321874999776,
      "v": 57
    },
    {
      "midi": 60,
      "hit": false,
      "t": 26703.310500000036,
      "d": 65.24728645833238,
      "v": 44
    },
    {
      "midi": 69,
      "hit": false,
      "t": 26703.310500000036,
      "d": 68.681354166667,
      "v": 62
    },
    {
      "midi": 50,
      "hit": false,
      "t": 27032.981000000036,
      "d": 82.41762499999822,
      "v": 72
    },
    {
      "midi": 60,
      "hit": false,
      "t": 27032.981000000036,
      "d": 89.28576041666383,
      "v": 59
    },
    {
      "midi": 65,
      "hit": false,
      "t": 27032.981000000036,
      "d": 96.15389583332944,
      "v": 76
    },
    {
      "midi": 69,
      "hit": false,
      "t": 27032.981000000036,
      "d": 103.02203124999505,
      "v": 76
    },
    {
      "midi": 60,
      "hit": false,
      "t": 27362.651500000033,
      "d": 453.29693749999933,
      "v": 80
    },
    {
      "midi": 65,
      "hit": false,
      "t": 27362.651500000033,
      "d": 463.59914062499956,
      "v": 89
    },
    {
      "midi": 69,
      "hit": false,
      "t": 27362.651500000033,
      "d": 463.59914062499956,
      "v": 93
    },
    {
      "midi": 50,
      "hit": false,
      "t": 27362.651500000033,
      "d": 494.50575000000026,
      "v": 62
    },
    {
      "midi": 50,
      "hit": false,
      "t": 28021.992500000033,
      "d": 508.2420208333315,
      "v": 85
    },
    {
      "midi": 60,
      "hit": false,
      "t": 28021.992500000033,
      "d": 542.5826979166632,
      "v": 76
    },
    {
      "midi": 65,
      "hit": false,
      "t": 28021.992500000033,
      "d": 552.8849010416634,
      "v": 76
    },
    {
      "midi": 69,
      "hit": false,
      "t": 28021.992500000033,
      "d": 559.753036458329,
      "v": 89
    },
    {
      "midi": 65,
      "hit": false,
      "t": 28681.33350000003,
      "d": 72.11542187500163,
      "v": 80
    },
    {
      "midi": 67,
      "hit": false,
      "t": 28681.33350000003,
      "d": 72.11542187500163,
      "v": 80
    },
    {
      "midi": 69,
      "hit": false,
      "t": 28681.33350000003,
      "d": 75.54948958333625,
      "v": 80
    },
    {
      "midi": 50,
      "hit": false,
      "t": 28681.33350000003,
      "d": 103.02203125000233,
      "v": 85
    },
    {
      "midi": 60,
      "hit": false,
      "t": 28681.33350000003,
      "d": 103.02203125000233,
      "v": 89
    },
    {
      "midi": 65,
      "hit": false,
      "t": 29011.00400000003,
      "d": 82.41762499999822,
      "v": 72
    },
    {
      "midi": 67,
      "hit": false,
      "t": 29011.00400000003,
      "d": 82.41762499999822,
      "v": 76
    },
    {
      "midi": 63,
      "hit": false,
      "t": 29011.00400000003,
      "d": 85.85169270833285,
      "v": 68
    },
    {
      "midi": 58,
      "hit": false,
      "t": 29011.00400000003,
      "d": 92.71982812499846,
      "v": 72
    },
    {
      "midi": 48,
      "hit": false,
      "t": 29011.00400000003,
      "d": 96.15389583333308,
      "v": 93
    },
    {
      "midi": 48,
      "hit": false,
      "t": 29340.67450000003,
      "d": 75.54948958333262,
      "v": 76
    },
    {
      "midi": 58,
      "hit": false,
      "t": 29340.67450000003,
      "d": 92.71982812499846,
      "v": 59
    },
    {
      "midi": 63,
      "hit": false,
      "t": 29340.67450000003,
      "d": 96.15389583333308,
      "v": 68
    },
    {
      "midi": 67,
      "hit": false,
      "t": 29340.67450000003,
      "d": 103.02203124999869,
      "v": 76
    },
    {
      "midi": 48,
      "hit": false,
      "t": 29670.34500000003,
      "d": 61.8132187500014,
      "v": 57
    },
    {
      "midi": 63,
      "hit": false,
      "t": 29670.34500000003,
      "d": 68.681354166667,
      "v": 62
    },
    {
      "midi": 58,
      "hit": false,
      "t": 29670.34500000003,
      "d": 75.54948958333262,
      "v": 56
    },
    {
      "midi": 67,
      "hit": false,
      "t": 29670.34500000003,
      "d": 85.85169270833285,
      "v": 76
    },
    {
      "midi": 58,
      "hit": false,
      "t": 30000.01550000003,
      "d": 494.50575000000026,
      "v": 85
    },
    {
      "midi": 63,
      "hit": false,
      "t": 30000.01550000003,
      "d": 494.50575000000026,
      "v": 89
    },
    {
      "midi": 67,
      "hit": false,
      "t": 30000.01550000003,
      "d": 501.37388541666587,
      "v": 89
    },
    {
      "midi": 48,
      "hit": false,
      "t": 30000.01550000003,
      "d": 508.2420208333315,
      "v": 76
    },
    {
      "midi": 48,
      "hit": false,
      "t": 30659.356500000027,
      "d": 130.4945729166684,
      "v": 89
    },
    {
      "midi": 63,
      "hit": false,
      "t": 30659.356500000027,
      "d": 130.4945729166684,
      "v": 85
    },
    {
      "midi": 67,
      "hit": false,
      "t": 30659.356500000027,
      "d": 147.66491145833425,
      "v": 89
    },
    {
      "midi": 58,
      "hit": false,
      "t": 30659.356500000027,
      "d": 157.96711458333448,
      "v": 76
    },
    {
      "midi": 63,
      "hit": false,
      "t": 31318.697500000028,
      "d": 78.98355729166724,
      "v": 68
    },
    {
      "midi": 67,
      "hit": false,
      "t": 31318.697500000028,
      "d": 103.02203125000233,
      "v": 80
    },
    {
      "midi": 48,
      "hit": false,
      "t": 31318.697500000028,
      "d": 106.45609895833695,
      "v": 80
    },
    {
      "midi": 58,
      "hit": false,
      "t": 31318.697500000028,
      "d": 113.32423437500256,
      "v": 64
    },
    {
      "midi": 62,
      "hit": false,
      "t": 31648.36800000003,
      "d": 92.71982812499846,
      "v": 76
    },
    {
      "midi": 46,
      "hit": false,
      "t": 31648.36800000003,
      "d": 99.58796354166407,
      "v": 93
    },
    {
      "midi": 57,
      "hit": false,
      "t": 31648.36800000003,
      "d": 116.75830208332991,
      "v": 72
    },
    {
      "midi": 65,
      "hit": false,
      "t": 31648.36800000003,
      "d": 127.06050520833014,
      "v": 76
    },
    {
      "midi": 62,
      "hit": false,
      "t": 31978.038500000028,
      "d": 82.41762499999822,
      "v": 72
    },
    {
      "midi": 46,
      "hit": false,
      "t": 31978.038500000028,
      "d": 85.85169270833285,
      "v": 72
    },
    {
      "midi": 57,
      "hit": false,
      "t": 31978.038500000028,
      "d": 96.15389583333308,
      "v": 60
    },
    {
      "midi": 65,
      "hit": false,
      "t": 31978.038500000028,
      "d": 113.32423437499892,
      "v": 76
    },
    {
      "midi": 62,
      "hit": false,
      "t": 32307.709000000028,
      "d": 82.41762499999822,
      "v": 72
    },
    {
      "midi": 57,
      "hit": false,
      "t": 32307.709000000028,
      "d": 89.28576041666383,
      "v": 62
    },
    {
      "midi": 46,
      "hit": false,
      "t": 32307.709000000028,
      "d": 92.71982812499846,
      "v": 76
    },
    {
      "midi": 65,
      "hit": false,
      "t": 32307.709000000028,
      "d": 113.32423437499892,
      "v": 76
    },
    {
      "midi": 62,
      "hit": false,
      "t": 32637.37950000003,
      "d": 521.9782916666627,
      "v": 93
    },
    {
      "midi": 57,
      "hit": false,
      "t": 32637.37950000003,
      "d": 528.846427083332,
      "v": 80
    },
    {
      "midi": 65,
      "hit": false,
      "t": 32637.37950000003,
      "d": 539.1486302083322,
      "v": 93
    },
    {
      "midi": 46,
      "hit": false,
      "t": 32637.37950000003,
      "d": 556.3189687500017,
      "v": 98
    },
    {
      "midi": 62,
      "hit": false,
      "t": 33296.72050000003,
      "d": 65.24728645833238,
      "v": 89
    },
    {
      "midi": 57,
      "hit": false,
      "t": 33296.72050000003,
      "d": 82.41762500000186,
      "v": 85
    },
    {
      "midi": 46,
      "hit": false,
      "t": 33296.72050000003,
      "d": 96.15389583333308,
      "v": 89
    },
    {
      "midi": 65,
      "hit": false,
      "t": 33296.72050000003,
      "d": 99.58796354166407,
      "v": 89
    },
    {
      "midi": 62,
      "hit": false,
      "t": 33626.39100000003,
      "d": 89.28576041666383,
      "v": 89
    },
    {
      "midi": 57,
      "hit": false,
      "t": 33626.39100000003,
      "d": 96.15389583333308,
      "v": 76
    },
    {
      "midi": 46,
      "hit": false,
      "t": 33626.39100000003,
      "d": 109.8901666666643,
      "v": 85
    },
    {
      "midi": 65,
      "hit": false,
      "t": 33626.39100000003,
      "d": 116.75830208333355,
      "v": 89
    },
    {
      "midi": 62,
      "hit": false,
      "t": 33956.06150000003,
      "d": 103.02203125000233,
      "v": 89
    },
    {
      "midi": 57,
      "hit": false,
      "t": 33956.06150000003,
      "d": 106.45609895833331,
      "v": 76
    },
    {
      "midi": 46,
      "hit": false,
      "t": 33956.06150000003,
      "d": 116.75830208333355,
      "v": 89
    },
    {
      "midi": 65,
      "hit": false,
      "t": 33956.06150000003,
      "d": 137.362708333334,
      "v": 89
    },
    {
      "midi": 60,
      "hit": false,
      "t": 34285.73200000003,
      "d": 734.890489583333,
      "v": 80
    },
    {
      "midi": 67,
      "hit": false,
      "t": 34285.73200000003,
      "d": 734.890489583333,
      "v": 89
    },
    {
      "midi": 63,
      "hit": false,
      "t": 34285.73200000003,
      "d": 741.7586250000022,
      "v": 89
    },
    {
      "midi": 46,
      "hit": false,
      "t": 34285.73200000003,
      "d": 1936.8141875000001,
      "v": 80
    },
    {
      "midi": 56,
      "hit": false,
      "t": 34945.07300000003,
      "d": 178.57152083333494,
      "v": 93
    },
    {
      "midi": 67,
      "hit": false,
      "t": 35274.74350000003,
      "d": 697.1157447916703,
      "v": 93
    },
    {
      "midi": 60,
      "hit": false,
      "t": 35274.74350000003,
      "d": 755.4948958333334,
      "v": 85
    },
    {
      "midi": 63,
      "hit": false,
      "t": 35274.74350000003,
      "d": 769.2311666666646,
      "v": 89
    },
    {
      "midi": 56,
      "hit": false,
      "t": 35934.08450000003,
      "d": 243.81880729166733,
      "v": 80
    },
    {
      "midi": 60,
      "hit": false,
      "t": 36263.755000000034,
      "d": 106.45609895833331,
      "v": 80
    },
    {
      "midi": 65,
      "hit": false,
      "t": 36923.09600000003,
      "d": 831.044385416666,
      "v": 89
    },
    {
      "midi": 57,
      "hit": false,
      "t": 36923.09600000003,
      "d": 834.478453124997,
      "v": 85
    },
    {
      "midi": 62,
      "hit": false,
      "t": 36923.09600000003,
      "d": 834.478453124997,
      "v": 89
    },
    {
      "midi": 46,
      "hit": false,
      "t": 37912.10750000003,
      "d": 607.8299843749992,
      "v": 80
    },
    {
      "midi": 57,
      "hit": false,
      "t": 37912.10750000003,
      "d": 796.7037083333344,
      "v": 76
    },
    {
      "midi": 65,
      "hit": false,
      "t": 37912.10750000003,
      "d": 837.9125208333353,
      "v": 85
    },
    {
      "midi": 62,
      "hit": false,
      "t": 37912.10750000003,
      "d": 865.385062500005,
      "v": 80
    },
    {
      "midi": 46,
      "hit": false,
      "t": 38571.44850000003,
      "d": 339.9727031250077,
      "v": 93
    },
    {
      "midi": 57,
      "hit": false,
      "t": 38901.119000000035,
      "d": 195.74185937499715,
      "v": 85
    },
    {
      "midi": 62,
      "hit": false,
      "t": 38901.119000000035,
      "d": 195.74185937499715,
      "v": 89
    },
    {
      "midi": 65,
      "hit": false,
      "t": 38901.119000000035,
      "d": 219.7803333333286,
      "v": 93
    },
    {
      "midi": 63,
      "hit": false,
      "t": 39560.46000000003,
      "d": 51.511015625001164,
      "v": 53
    },
    {
      "midi": 68,
      "hit": false,
      "t": 39560.46000000003,
      "d": 85.85169270833285,
      "v": 89
    },
    {
      "midi": 60,
      "hit": false,
      "t": 39560.46000000003,
      "d": 92.7198281250021,
      "v": 85
    },
    {
      "midi": 46,
      "hit": false,
      "t": 39560.46000000003,
      "d": 109.89016666667158,
      "v": 93
    },
    {
      "midi": 68,
      "hit": false,
      "t": 39890.130500000036,
      "d": 274.725416666668,
      "v": 72
    },
    {
      "midi": 63,
      "hit": false,
      "t": 39890.130500000036,
      "d": 288.46168749999924,
      "v": 89
    },
    {
      "midi": 60,
      "hit": false,
      "t": 39890.130500000036,
      "d": 315.93422916666896,
      "v": 76
    },
    {
      "midi": 46,
      "hit": false,
      "t": 39890.130500000036,
      "d": 456.73100520833395,
      "v": 102
    },
    {
      "midi": 46,
      "hit": false,
      "t": 40549.471500000036,
      "d": 570.0552395833365,
      "v": 89
    },
    {
      "midi": 58,
      "hit": false,
      "t": 40549.471500000036,
      "d": 748.6267604166642,
      "v": 80
    },
    {
      "midi": 65,
      "hit": false,
      "t": 40549.471500000036,
      "d": 824.1762499999968,
      "v": 93
    },
    {
      "midi": 62,
      "hit": false,
      "t": 40549.471500000036,
      "d": 837.912520833328,
      "v": 89
    },
    {
      "midi": 46,
      "hit": false,
      "t": 41208.81250000004,
      "d": 442.99473437499546,
      "v": 93
    },
    {
      "midi": 62,
      "hit": false,
      "t": 41538.48300000003,
      "d": 99.58796354166407,
      "v": 80
    },
    {
      "midi": 57,
      "hit": false,
      "t": 41538.48300000003,
      "d": 106.45609895833331,
      "v": 89
    },
    {
      "midi": 65,
      "hit": false,
      "t": 41538.48300000003,
      "d": 164.83525000000373,
      "v": 89
    },
    {
      "midi": 46,
      "hit": false,
      "t": 41868.15350000003,
      "d": 147.66491145833425,
      "v": 89
    },
    {
      "midi": 46,
      "hit": false,
      "t": 42197.82400000004,
      "d": 594.0937135416607,
      "v": 93
    },
    {
      "midi": 63,
      "hit": false,
      "t": 42527.49450000004,
      "d": 250.6869427083293,
      "v": 102
    },
    {
      "midi": 68,
      "hit": false,
      "t": 42527.49450000004,
      "d": 254.12101041666028,
      "v": 98
    },
    {
      "midi": 60,
      "hit": false,
      "t": 42527.49450000004,
      "d": 257.55507812499127,
      "v": 89
    },
    {
      "midi": 57,
      "hit": false,
      "t": 43186.83550000003,
      "d": 487.63761458334193,
      "v": 80
    },
    {
      "midi": 65,
      "hit": false,
      "t": 43186.83550000003,
      "d": 511.6760885416734,
      "v": 89
    },
    {
      "midi": 62,
      "hit": false,
      "t": 43186.83550000003,
      "d": 521.9782916666736,
      "v": 93
    },
    {
      "midi": 46,
      "hit": false,
      "t": 43186.83550000003,
      "d": 576.9233750000058,
      "v": 98
    },
    {
      "midi": 65,
      "hit": false,
      "t": 43846.17650000004,
      "d": 78.9835572916636,
      "v": 89
    },
    {
      "midi": 57,
      "hit": false,
      "t": 43846.17650000004,
      "d": 130.49457291666477,
      "v": 93
    },
    {
      "midi": 62,
      "hit": false,
      "t": 44175.84700000004,
      "d": 72.11542187500163,
      "v": 102
    },
    {
      "midi": 57,
      "hit": false,
      "t": 44175.84700000004,
      "d": 89.28576041667111,
      "v": 89
    },
    {
      "midi": 46,
      "hit": false,
      "t": 44175.84700000004,
      "d": 123.6264375000028,
      "v": 102
    },
    {
      "midi": 65,
      "hit": false,
      "t": 44175.84700000004,
      "d": 123.6264375000028,
      "v": 107
    },
    {
      "midi": 65,
      "hit": false,
      "t": 44835.188000000046,
      "d": 99.58796354166407,
      "v": 93
    },
    {
      "midi": 58,
      "hit": false,
      "t": 44835.188000000046,
      "d": 106.45609895833331,
      "v": 98
    },
    {
      "midi": 74,
      "hit": false,
      "t": 44835.188000000046,
      "d": 137.362708333334,
      "v": 93
    },
    {
      "midi": 77,
      "hit": false,
      "t": 44835.188000000046,
      "d": 137.362708333334,
      "v": 85
    },
    {
      "midi": 69,
      "hit": false,
      "t": 44835.188000000046,
      "d": 140.796776041665,
      "v": 72
    },
    {
      "midi": 58,
      "hit": false,
      "t": 45164.858500000046,
      "d": 116.75830208333355,
      "v": 76
    },
    {
      "midi": 65,
      "hit": false,
      "t": 45164.858500000046,
      "d": 144.23084375000326,
      "v": 72
    },
    {
      "midi": 77,
      "hit": false,
      "t": 45164.858500000046,
      "d": 178.57152083333494,
      "v": 80
    },
    {
      "midi": 74,
      "hit": false,
      "t": 45164.858500000046,
      "d": 185.4396562500042,
      "v": 85
    },
    {
      "midi": 69,
      "hit": false,
      "t": 45164.858500000046,
      "d": 192.30779166667344,
      "v": 68
    },
    {
      "midi": 74,
      "hit": false,
      "t": 45494.52900000005,
      "d": 82.41762500000186,
      "v": 89
    },
    {
      "midi": 69,
      "hit": false,
      "t": 45494.52900000005,
      "d": 92.7198281250021,
      "v": 76
    },
    {
      "midi": 58,
      "hit": false,
      "t": 45494.52900000005,
      "d": 106.45609895833331,
      "v": 93
    },
    {
      "midi": 77,
      "hit": false,
      "t": 45494.52900000005,
      "d": 106.45609895833331,
      "v": 89
    },
    {
      "midi": 74,
      "hit": false,
      "t": 45824.19950000005,
      "d": 103.02203125000233,
      "v": 93
    },
    {
      "midi": 69,
      "hit": false,
      "t": 45824.19950000005,
      "d": 109.89016666667158,
      "v": 85
    },
    {
      "midi": 77,
      "hit": false,
      "t": 45824.19950000005,
      "d": 109.89016666667158,
      "v": 93
    },
    {
      "midi": 58,
      "hit": false,
      "t": 45824.19950000005,
      "d": 123.6264375000028,
      "v": 93
    },
    {
      "midi": 69,
      "hit": false,
      "t": 46153.87000000005,
      "d": 89.28576041666383,
      "v": 57
    },
    {
      "midi": 58,
      "hit": false,
      "t": 46153.87000000005,
      "d": 92.71982812499482,
      "v": 76
    },
    {
      "midi": 74,
      "hit": false,
      "t": 46153.87000000005,
      "d": 99.58796354166407,
      "v": 89
    },
    {
      "midi": 77,
      "hit": false,
      "t": 46153.87000000005,
      "d": 113.32423437499529,
      "v": 89
    },
    {
      "midi": 58,
      "hit": false,
      "t": 46483.54050000005,
      "d": 123.62643749999552,
      "v": 72
    },
    {
      "midi": 69,
      "hit": false,
      "t": 46483.54050000005,
      "d": 123.62643749999552,
      "v": 62
    },
    {
      "midi": 74,
      "hit": false,
      "t": 46483.54050000005,
      "d": 123.62643749999552,
      "v": 89
    },
    {
      "midi": 77,
      "hit": false,
      "t": 46483.54050000005,
      "d": 147.66491145832697,
      "v": 89
    },
    {
      "midi": 69,
      "hit": false,
      "t": 46813.21100000004,
      "d": 96.15389583333308,
      "v": 62
    },
    {
      "midi": 74,
      "hit": false,
      "t": 46813.21100000004,
      "d": 109.8901666666643,
      "v": 85
    },
    {
      "midi": 58,
      "hit": false,
      "t": 46813.21100000004,
      "d": 113.32423437499529,
      "v": 68
    },
    {
      "midi": 77,
      "hit": false,
      "t": 46813.21100000004,
      "d": 133.92864062499575,
      "v": 85
    },
    {
      "midi": 58,
      "hit": false,
      "t": 47142.88150000003,
      "d": 106.45609895833331,
      "v": 85
    },
    {
      "midi": 74,
      "hit": false,
      "t": 47142.88150000003,
      "d": 106.45609895833331,
      "v": 89
    },
    {
      "midi": 77,
      "hit": false,
      "t": 47142.88150000003,
      "d": 109.8901666666643,
      "v": 80
    },
    {
      "midi": 69,
      "hit": false,
      "t": 47142.88150000003,
      "d": 120.19236979166453,
      "v": 62
    },
    {
      "midi": 72,
      "hit": false,
      "t": 47472.552000000025,
      "d": 109.8901666666643,
      "v": 93
    },
    {
      "midi": 57,
      "hit": false,
      "t": 47472.552000000025,
      "d": 151.09897916666523,
      "v": 89
    },
    {
      "midi": 67,
      "hit": false,
      "t": 47472.552000000025,
      "d": 154.53304687499622,
      "v": 80
    },
    {
      "midi": 76,
      "hit": false,
      "t": 47472.552000000025,
      "d": 171.7033854166657,
      "v": 80
    },
    {
      "midi": 72,
      "hit": false,
      "t": 47802.222500000025,
      "d": 103.02203125000233,
      "v": 89
    },
    {
      "midi": 67,
      "hit": false,
      "t": 47802.222500000025,
      "d": 116.75830208333355,
      "v": 68
    },
    {
      "midi": 57,
      "hit": false,
      "t": 47802.222500000025,
      "d": 123.6264375000028,
      "v": 89
    },
    {
      "midi": 76,
      "hit": false,
      "t": 47802.222500000025,
      "d": 137.362708333334,
      "v": 76
    },
    {
      "midi": 67,
      "hit": false,
      "t": 48131.893000000025,
      "d": 82.41762500000186,
      "v": 64
    },
    {
      "midi": 72,
      "hit": false,
      "t": 48131.893000000025,
      "d": 85.85169270833285,
      "v": 93
    },
    {
      "midi": 57,
      "hit": false,
      "t": 48131.893000000025,
      "d": 103.02203125000233,
      "v": 85
    },
    {
      "midi": 76,
      "hit": false,
      "t": 48131.893000000025,
      "d": 103.02203125000233,
      "v": 76
    },
    {
      "midi": 67,
      "hit": false,
      "t": 48461.563500000026,
      "d": 113.32423437499529,
      "v": 72
    },
    {
      "midi": 72,
      "hit": false,
      "t": 48461.563500000026,
      "d": 116.75830208332627,
      "v": 93
    },
    {
      "midi": 76,
      "hit": false,
      "t": 48461.563500000026,
      "d": 130.4945729166575,
      "v": 85
    },
    {
      "midi": 57,
      "hit": false,
      "t": 48461.563500000026,
      "d": 154.53304687498894,
      "v": 85
    },
    {
      "midi": 67,
      "hit": false,
      "t": 48791.23400000001,
      "d": 96.15389583333308,
      "v": 57
    },
    {
      "midi": 72,
      "hit": false,
      "t": 48791.23400000001,
      "d": 96.15389583333308,
      "v": 80
    },
    {
      "midi": 57,
      "hit": false,
      "t": 48791.23400000001,
      "d": 106.45609895833331,
      "v": 85
    },
    {
      "midi": 76,
      "hit": false,
      "t": 48791.23400000001,
      "d": 106.45609895833331,
      "v": 62
    },
    {
      "midi": 67,
      "hit": false,
      "t": 49120.90450000001,
      "d": 85.85169270833285,
      "v": 76
    },
    {
      "midi": 72,
      "hit": false,
      "t": 49120.90450000001,
      "d": 85.85169270833285,
      "v": 93
    },
    {
      "midi": 57,
      "hit": false,
      "t": 49120.90450000001,
      "d": 109.8901666666643,
      "v": 85
    },
    {
      "midi": 76,
      "hit": false,
      "t": 49120.90450000001,
      "d": 113.32423437499529,
      "v": 89
    },
    {
      "midi": 72,
      "hit": false,
      "t": 49450.575000000004,
      "d": 120.19236979166453,
      "v": 93
    },
    {
      "midi": 67,
      "hit": false,
      "t": 49450.575000000004,
      "d": 137.362708333334,
      "v": 72
    },
    {
      "midi": 76,
      "hit": false,
      "t": 49450.575000000004,
      "d": 147.66491145833425,
      "v": 72
    },
    {
      "midi": 57,
      "hit": false,
      "t": 49450.575000000004,
      "d": 192.30779166667344,
      "v": 93
    },
    {
      "midi": 67,
      "hit": false,
      "t": 49780.24550000001,
      "d": 96.15389583333308,
      "v": 76
    },
    {
      "midi": 72,
      "hit": false,
      "t": 49780.24550000001,
      "d": 96.15389583333308,
      "v": 93
    },
    {
      "midi": 57,
      "hit": false,
      "t": 49780.24550000001,
      "d": 103.02203125000233,
      "v": 98
    },
    {
      "midi": 76,
      "hit": false,
      "t": 49780.24550000001,
      "d": 127.06050520833378,
      "v": 80
    },
    {
      "midi": 74,
      "hit": false,
      "t": 50109.91600000001,
      "d": 106.45609895833331,
      "v": 85
    },
    {
      "midi": 69,
      "hit": false,
      "t": 50109.91600000001,
      "d": 109.8901666666643,
      "v": 80
    },
    {
      "midi": 58,
      "hit": false,
      "t": 50109.91600000001,
      "d": 116.75830208333355,
      "v": 89
    },
    {
      "midi": 65,
      "hit": false,
      "t": 50109.91600000001,
      "d": 120.19236979166453,
      "v": 89
    },
    {
      "midi": 77,
      "hit": false,
      "t": 50109.91600000001,
      "d": 120.19236979166453,
      "v": 93
    },
    {
      "midi": 58,
      "hit": false,
      "t": 50439.58650000001,
      "d": 106.45609895833331,
      "v": 85
    },
    {
      "midi": 65,
      "hit": false,
      "t": 50439.58650000001,
      "d": 109.8901666666643,
      "v": 62
    },
    {
      "midi": 74,
      "hit": false,
      "t": 50439.58650000001,
      "d": 116.75830208333355,
      "v": 85
    },
    {
      "midi": 69,
      "hit": false,
      "t": 50439.58650000001,
      "d": 120.19236979166453,
      "v": 62
    },
    {
      "midi": 77,
      "hit": false,
      "t": 50439.58650000001,
      "d": 120.19236979166453,
      "v": 76
    },
    {
      "midi": 69,
      "hit": false,
      "t": 50769.25700000001,
      "d": 96.15389583333308,
      "v": 53
    },
    {
      "midi": 58,
      "hit": false,
      "t": 50769.25700000001,
      "d": 116.75830208333355,
      "v": 93
    },
    {
      "midi": 74,
      "hit": false,
      "t": 50769.25700000001,
      "d": 120.19236979166453,
      "v": 85
    },
    {
      "midi": 65,
      "hit": false,
      "t": 50769.25700000001,
      "d": 127.06050520833378,
      "v": 85
    },
    {
      "midi": 77,
      "hit": false,
      "t": 50769.25700000001,
      "d": 140.796776041665,
      "v": 85
    },
    {
      "midi": 58,
      "hit": false,
      "t": 51098.92750000001,
      "d": 92.7198281250021,
      "v": 85
    },
    {
      "midi": 65,
      "hit": false,
      "t": 51098.92750000001,
      "d": 109.89016666667158,
      "v": 89
    },
    {
      "midi": 69,
      "hit": false,
      "t": 51098.92750000001,
      "d": 109.89016666667158,
      "v": 72
    },
    {
      "midi": 74,
      "hit": false,
      "t": 51098.92750000001,
      "d": 116.75830208334082,
      "v": 89
    },
    {
      "midi": 77,
      "hit": false,
      "t": 51098.92750000001,
      "d": 123.62643750001007,
      "v": 93
    },
    {
      "midi": 58,
      "hit": false,
      "t": 51428.59800000003,
      "d": 116.75830208333355,
      "v": 89
    },
    {
      "midi": 65,
      "hit": false,
      "t": 51428.59800000003,
      "d": 123.6264375000028,
      "v": 80
    },
    {
      "midi": 74,
      "hit": false,
      "t": 51428.59800000003,
      "d": 140.79677604167227,
      "v": 76
    },
    {
      "midi": 69,
      "hit": false,
      "t": 51428.59800000003,
      "d": 147.66491145834152,
      "v": 62
    },
    {
      "midi": 77,
      "hit": false,
      "t": 51428.59800000003,
      "d": 151.0989791666725,
      "v": 80
    },
    {
      "midi": 58,
      "hit": false,
      "t": 51758.268500000035,
      "d": 109.8901666666643,
      "v": 89
    },
    {
      "midi": 74,
      "hit": false,
      "t": 51758.268500000035,
      "d": 123.62643749999552,
      "v": 72
    },
    {
      "midi": 65,
      "hit": false,
      "t": 51758.268500000035,
      "d": 127.0605052083265,
      "v": 80
    },
    {
      "midi": 69,
      "hit": false,
      "t": 51758.268500000035,
      "d": 127.0605052083265,
      "v": 60
    },
    {
      "midi": 77,
      "hit": false,
      "t": 51758.268500000035,
      "d": 130.4945729166575,
      "v": 72
    },
    {
      "midi": 58,
      "hit": false,
      "t": 52087.93900000003,
      "d": 123.6264375000028,
      "v": 93
    },
    {
      "midi": 65,
      "hit": false,
      "t": 52087.93900000003,
      "d": 137.362708333334,
      "v": 89
    },
    {
      "midi": 74,
      "hit": false,
      "t": 52087.93900000003,
      "d": 144.23084375000326,
      "v": 89
    },
    {
      "midi": 69,
      "hit": false,
      "t": 52087.93900000003,
      "d": 147.66491145833425,
      "v": 80
    },
    {
      "midi": 77,
      "hit": false,
      "t": 52087.93900000003,
      "d": 161.40118229166546,
      "v": 89
    },
    {
      "midi": 58,
      "hit": false,
      "t": 52417.60950000003,
      "d": 72.11542187500163,
      "v": 89
    },
    {
      "midi": 65,
      "hit": false,
      "t": 52417.60950000003,
      "d": 96.15389583333308,
      "v": 89
    },
    {
      "midi": 69,
      "hit": false,
      "t": 52417.60950000003,
      "d": 99.58796354166407,
      "v": 72
    },
    {
      "midi": 74,
      "hit": false,
      "t": 52417.60950000003,
      "d": 106.45609895833331,
      "v": 93
    },
    {
      "midi": 77,
      "hit": false,
      "t": 52417.60950000003,
      "d": 113.32423437500256,
      "v": 93
    },
    {
      "midi": 72,
      "hit": false,
      "t": 52747.28000000003,
      "d": 109.8901666666643,
      "v": 85
    },
    {
      "midi": 67,
      "hit": false,
      "t": 52747.28000000003,
      "d": 133.92864062499575,
      "v": 76
    },
    {
      "midi": 57,
      "hit": false,
      "t": 52747.28000000003,
      "d": 137.36270833332674,
      "v": 89
    },
    {
      "midi": 76,
      "hit": false,
      "t": 52747.28000000003,
      "d": 144.23084374999598,
      "v": 89
    },
    {
      "midi": 67,
      "hit": false,
      "t": 53076.95050000002,
      "d": 103.02203125000233,
      "v": 68
    },
    {
      "midi": 72,
      "hit": false,
      "t": 53076.95050000002,
      "d": 106.45609895833331,
      "v": 93
    },
    {
      "midi": 57,
      "hit": false,
      "t": 53076.95050000002,
      "d": 127.06050520833378,
      "v": 80
    },
    {
      "midi": 76,
      "hit": false,
      "t": 53076.95050000002,
      "d": 130.49457291666477,
      "v": 85
    },
    {
      "midi": 72,
      "hit": false,
      "t": 53406.62100000002,
      "d": 116.75830208333355,
      "v": 89
    },
    {
      "midi": 57,
      "hit": false,
      "t": 53406.62100000002,
      "d": 130.49457291666477,
      "v": 89
    },
    {
      "midi": 67,
      "hit": false,
      "t": 53406.62100000002,
      "d": 133.92864062499575,
      "v": 72
    },
    {
      "midi": 76,
      "hit": false,
      "t": 53406.62100000002,
      "d": 151.09897916666523,
      "v": 85
    },
    {
      "midi": 72,
      "hit": false,
      "t": 53736.29150000002,
      "d": 113.32423437500256,
      "v": 89
    },
    {
      "midi": 67,
      "hit": false,
      "t": 53736.29150000002,
      "d": 127.06050520833378,
      "v": 72
    },
    {
      "midi": 57,
      "hit": false,
      "t": 53736.29150000002,
      "d": 147.66491145833425,
      "v": 93
    },
    {
      "midi": 76,
      "hit": false,
      "t": 53736.29150000002,
      "d": 147.66491145833425,
      "v": 85
    },
    {
      "midi": 72,
      "hit": false,
      "t": 54065.96200000002,
      "d": 96.15389583333308,
      "v": 76
    },
    {
      "midi": 67,
      "hit": false,
      "t": 54065.96200000002,
      "d": 116.75830208333355,
      "v": 64
    },
    {
      "midi": 57,
      "hit": false,
      "t": 54065.96200000002,
      "d": 137.362708333334,
      "v": 85
    },
    {
      "midi": 76,
      "hit": false,
      "t": 54065.96200000002,
      "d": 137.362708333334,
      "v": 72
    },
    {
      "midi": 72,
      "hit": false,
      "t": 54395.63250000002,
      "d": 103.02203125000233,
      "v": 93
    },
    {
      "midi": 67,
      "hit": false,
      "t": 54395.63250000002,
      "d": 116.75830208333355,
      "v": 76
    },
    {
      "midi": 57,
      "hit": false,
      "t": 54395.63250000002,
      "d": 133.92864062500303,
      "v": 85
    },
    {
      "midi": 76,
      "hit": false,
      "t": 54395.63250000002,
      "d": 133.92864062500303,
      "v": 85
    },
    {
      "midi": 67,
      "hit": false,
      "t": 54725.30300000002,
      "d": 113.32423437500256,
      "v": 76
    },
    {
      "midi": 72,
      "hit": false,
      "t": 54725.30300000002,
      "d": 116.75830208333355,
      "v": 89
    },
    {
      "midi": 76,
      "hit": false,
      "t": 54725.30300000002,
      "d": 137.362708333334,
      "v": 80
    },
    {
      "midi": 57,
      "hit": false,
      "t": 54725.30300000002,
      "d": 144.23084375000326,
      "v": 89
    },
    {
      "midi": 72,
      "hit": false,
      "t": 55054.97350000002,
      "d": 96.15389583333308,
      "v": 98
    },
    {
      "midi": 67,
      "hit": false,
      "t": 55054.97350000002,
      "d": 106.45609895833331,
      "v": 76
    },
    {
      "midi": 76,
      "hit": false,
      "t": 55054.97350000002,
      "d": 113.32423437500256,
      "v": 85
    },
    {
      "midi": 57,
      "hit": false,
      "t": 55054.97350000002,
      "d": 137.362708333334,
      "v": 80
    },
    {
      "midi": 62,
      "hit": false,
      "t": 55384.64400000002,
      "d": 68.68135416666337,
      "v": 62
    },
    {
      "midi": 51,
      "hit": false,
      "t": 55384.64400000002,
      "d": 92.71982812499482,
      "v": 93
    },
    {
      "midi": 58,
      "hit": false,
      "t": 55384.64400000002,
      "d": 96.1538958333258,
      "v": 93
    },
    {
      "midi": 70,
      "hit": false,
      "t": 55384.64400000002,
      "d": 96.1538958333258,
      "v": 85
    },
    {
      "midi": 67,
      "hit": false,
      "t": 55384.64400000002,
      "d": 99.58796354165679,
      "v": 93
    },
    {
      "midi": 51,
      "hit": false,
      "t": 55714.314500000015,
      "d": 61.8132187500014,
      "v": 72
    },
    {
      "midi": 67,
      "hit": false,
      "t": 55714.314500000015,
      "d": 68.68135416667064,
      "v": 60
    },
    {
      "midi": 62,
      "hit": false,
      "t": 55714.314500000015,
      "d": 82.41762500000186,
      "v": 62
    },
    {
      "midi": 70,
      "hit": false,
      "t": 55714.314500000015,
      "d": 85.85169270833285,
      "v": 72
    },
    {
      "midi": 58,
      "hit": false,
      "t": 55714.314500000015,
      "d": 89.28576041666383,
      "v": 72
    },
    {
      "midi": 67,
      "hit": false,
      "t": 56043.985000000015,
      "d": 68.68135416666337,
      "v": 62
    },
    {
      "midi": 62,
      "hit": false,
      "t": 56043.985000000015,
      "d": 78.9835572916636,
      "v": 60
    },
    {
      "midi": 51,
      "hit": false,
      "t": 56043.985000000015,
      "d": 82.41762499999459,
      "v": 93
    },
    {
      "midi": 70,
      "hit": false,
      "t": 56043.985000000015,
      "d": 82.41762499999459,
      "v": 68
    },
    {
      "midi": 62,
      "hit": false,
      "t": 56373.65550000001,
      "d": 573.4893072916675,
      "v": 80
    },
    {
      "midi": 51,
      "hit": false,
      "t": 56373.65550000001,
      "d": 590.659645833337,
      "v": 98
    },
    {
      "midi": 67,
      "hit": false,
      "t": 56373.65550000001,
      "d": 590.659645833337,
      "v": 93
    },
    {
      "midi": 70,
      "hit": false,
      "t": 56373.65550000001,
      "d": 594.093713541668,
      "v": 89
    },
    {
      "midi": 67,
      "hit": false,
      "t": 57032.99650000001,
      "d": 58.379151041663135,
      "v": 80
    },
    {
      "midi": 51,
      "hit": false,
      "t": 57032.99650000001,
      "d": 68.68135416666337,
      "v": 80
    },
    {
      "midi": 62,
      "hit": false,
      "t": 57032.99650000001,
      "d": 82.41762499999459,
      "v": 68
    },
    {
      "midi": 70,
      "hit": false,
      "t": 57032.99650000001,
      "d": 96.1538958333258,
      "v": 80
    },
    {
      "midi": 67,
      "hit": false,
      "t": 57692.3375,
      "d": 72.11542187500163,
      "v": 72
    },
    {
      "midi": 70,
      "hit": false,
      "t": 57692.3375,
      "d": 82.41762500000186,
      "v": 80
    },
    {
      "midi": 62,
      "hit": false,
      "t": 57692.3375,
      "d": 89.28576041667111,
      "v": 64
    },
    {
      "midi": 51,
      "hit": false,
      "t": 57692.3375,
      "d": 96.15389583334036,
      "v": 89
    },
    {
      "midi": 65,
      "hit": false,
      "t": 58022.00800000001,
      "d": 75.54948958333262,
      "v": 72
    },
    {
      "midi": 50,
      "hit": false,
      "t": 58022.00800000001,
      "d": 78.9835572916636,
      "v": 89
    },
    {
      "midi": 60,
      "hit": false,
      "t": 58022.00800000001,
      "d": 78.9835572916636,
      "v": 72
    },
    {
      "midi": 69,
      "hit": false,
      "t": 58022.00800000001,
      "d": 96.15389583333308,
      "v": 76
    },
    {
      "midi": 50,
      "hit": false,
      "t": 58351.67850000001,
      "d": 34.340677083331684,
      "v": 46
    },
    {
      "midi": 65,
      "hit": false,
      "t": 58351.67850000001,
      "d": 61.8132187500014,
      "v": 57
    },
    {
      "midi": 60,
      "hit": false,
      "t": 58351.67850000001,
      "d": 65.24728645833238,
      "v": 44
    },
    {
      "midi": 69,
      "hit": false,
      "t": 58351.67850000001,
      "d": 68.68135416666337,
      "v": 62
    },
    {
      "midi": 50,
      "hit": false,
      "t": 58681.34900000001,
      "d": 82.41762500000186,
      "v": 72
    },
    {
      "midi": 60,
      "hit": false,
      "t": 58681.34900000001,
      "d": 89.28576041667111,
      "v": 59
    },
    {
      "midi": 65,
      "hit": false,
      "t": 58681.34900000001,
      "d": 96.15389583334036,
      "v": 76
    },
    {
      "midi": 69,
      "hit": false,
      "t": 58681.34900000001,
      "d": 103.0220312500096,
      "v": 76
    },
    {
      "midi": 60,
      "hit": false,
      "t": 59011.01950000002,
      "d": 453.29693750000297,
      "v": 80
    },
    {
      "midi": 65,
      "hit": false,
      "t": 59011.01950000002,
      "d": 463.5991406250032,
      "v": 89
    },
    {
      "midi": 69,
      "hit": false,
      "t": 59011.01950000002,
      "d": 463.5991406250032,
      "v": 93
    },
    {
      "midi": 50,
      "hit": false,
      "t": 59011.01950000002,
      "d": 494.5057500000039,
      "v": 62
    },
    {
      "midi": 50,
      "hit": false,
      "t": 59670.36050000002,
      "d": 508.24202083332784,
      "v": 85
    },
    {
      "midi": 60,
      "hit": false,
      "t": 59670.36050000002,
      "d": 542.5826979166595,
      "v": 76
    },
    {
      "midi": 65,
      "hit": false,
      "t": 59670.36050000002,
      "d": 552.8849010416598,
      "v": 76
    },
    {
      "midi": 69,
      "hit": false,
      "t": 59670.36050000002,
      "d": 559.753036458329,
      "v": 89
    },
    {
      "midi": 65,
      "hit": false,
      "t": 60329.70150000001,
      "d": 72.11542187500163,
      "v": 80
    },
    {
      "midi": 67,
      "hit": false,
      "t": 60329.70150000001,
      "d": 72.11542187500163,
      "v": 80
    },
    {
      "midi": 69,
      "hit": false,
      "t": 60329.70150000001,
      "d": 75.54948958333262,
      "v": 80
    },
    {
      "midi": 50,
      "hit": false,
      "t": 60329.70150000001,
      "d": 103.02203125000233,
      "v": 85
    },
    {
      "midi": 60,
      "hit": false,
      "t": 60329.70150000001,
      "d": 103.02203125000233,
      "v": 89
    },
    {
      "midi": 65,
      "hit": false,
      "t": 60659.37200000001,
      "d": 82.41762500000186,
      "v": 72
    },
    {
      "midi": 67,
      "hit": false,
      "t": 60659.37200000001,
      "d": 82.41762500000186,
      "v": 76
    },
    {
      "midi": 63,
      "hit": false,
      "t": 60659.37200000001,
      "d": 85.85169270833285,
      "v": 68
    },
    {
      "midi": 58,
      "hit": false,
      "t": 60659.37200000001,
      "d": 92.7198281250021,
      "v": 72
    },
    {
      "midi": 48,
      "hit": false,
      "t": 60659.37200000001,
      "d": 96.15389583333308,
      "v": 93
    },
    {
      "midi": 48,
      "hit": false,
      "t": 60989.04250000001,
      "d": 75.54948958333262,
      "v": 76
    },
    {
      "midi": 58,
      "hit": false,
      "t": 60989.04250000001,
      "d": 92.7198281250021,
      "v": 59
    },
    {
      "midi": 63,
      "hit": false,
      "t": 60989.04250000001,
      "d": 96.15389583333308,
      "v": 68
    },
    {
      "midi": 67,
      "hit": false,
      "t": 60989.04250000001,
      "d": 103.02203125000233,
      "v": 76
    },
    {
      "midi": 48,
      "hit": false,
      "t": 61318.71300000001,
      "d": 61.8132187500014,
      "v": 57
    },
    {
      "midi": 63,
      "hit": false,
      "t": 61318.71300000001,
      "d": 68.68135416667064,
      "v": 62
    },
    {
      "midi": 58,
      "hit": false,
      "t": 61318.71300000001,
      "d": 75.54948958333989,
      "v": 56
    },
    {
      "midi": 67,
      "hit": false,
      "t": 61318.71300000001,
      "d": 85.85169270834012,
      "v": 76
    },
    {
      "midi": 58,
      "hit": false,
      "t": 61648.38350000002,
      "d": 494.5057499999966,
      "v": 85
    },
    {
      "midi": 63,
      "hit": false,
      "t": 61648.38350000002,
      "d": 494.5057499999966,
      "v": 89
    },
    {
      "midi": 67,
      "hit": false,
      "t": 61648.38350000002,
      "d": 501.37388541666587,
      "v": 89
    },
    {
      "midi": 48,
      "hit": false,
      "t": 61648.38350000002,
      "d": 508.2420208333351,
      "v": 76
    },
    {
      "midi": 48,
      "hit": false,
      "t": 62307.72450000002,
      "d": 130.49457291666477,
      "v": 89
    },
    {
      "midi": 63,
      "hit": false,
      "t": 62307.72450000002,
      "d": 130.49457291666477,
      "v": 85
    },
    {
      "midi": 67,
      "hit": false,
      "t": 62307.72450000002,
      "d": 147.66491145833425,
      "v": 89
    },
    {
      "midi": 58,
      "hit": false,
      "t": 62307.72450000002,
      "d": 157.96711458333448,
      "v": 76
    },
    {
      "midi": 63,
      "hit": false,
      "t": 62967.06550000002,
      "d": 78.9835572916636,
      "v": 68
    },
    {
      "midi": 67,
      "hit": false,
      "t": 62967.06550000002,
      "d": 103.02203124999505,
      "v": 80
    },
    {
      "midi": 48,
      "hit": false,
      "t": 62967.06550000002,
      "d": 106.45609895832604,
      "v": 80
    },
    {
      "midi": 58,
      "hit": false,
      "t": 62967.06550000002,
      "d": 113.32423437499529,
      "v": 64
    },
    {
      "midi": 62,
      "hit": false,
      "t": 63296.73600000001,
      "d": 92.7198281250021,
      "v": 76
    },
    {
      "midi": 46,
      "hit": false,
      "t": 63296.73600000001,
      "d": 99.58796354167134,
      "v": 93
    },
    {
      "midi": 57,
      "hit": false,
      "t": 63296.73600000001,
      "d": 116.75830208334082,
      "v": 72
    },
    {
      "midi": 65,
      "hit": false,
      "t": 63296.73600000001,
      "d": 127.06050520834106,
      "v": 76
    },
    {
      "midi": 62,
      "hit": false,
      "t": 63626.40650000002,
      "d": 82.41762500000186,
      "v": 72
    },
    {
      "midi": 46,
      "hit": false,
      "t": 63626.40650000002,
      "d": 85.85169270833285,
      "v": 72
    },
    {
      "midi": 57,
      "hit": false,
      "t": 63626.40650000002,
      "d": 96.15389583333308,
      "v": 60
    },
    {
      "midi": 65,
      "hit": false,
      "t": 63626.40650000002,
      "d": 113.32423437500256,
      "v": 76
    },
    {
      "midi": 62,
      "hit": false,
      "t": 63956.07700000002,
      "d": 82.41762500000186,
      "v": 72
    },
    {
      "midi": 57,
      "hit": false,
      "t": 63956.07700000002,
      "d": 89.28576041667111,
      "v": 62
    },
    {
      "midi": 46,
      "hit": false,
      "t": 63956.07700000002,
      "d": 92.7198281250021,
      "v": 76
    },
    {
      "midi": 65,
      "hit": false,
      "t": 63956.07700000002,
      "d": 113.32423437500256,
      "v": 76
    },
    {
      "midi": 62,
      "hit": false,
      "t": 64285.74750000002,
      "d": 521.9782916666663,
      "v": 93
    },
    {
      "midi": 57,
      "hit": false,
      "t": 64285.74750000002,
      "d": 528.8464270833356,
      "v": 80
    },
    {
      "midi": 65,
      "hit": false,
      "t": 64285.74750000002,
      "d": 539.1486302083358,
      "v": 93
    },
    {
      "midi": 46,
      "hit": false,
      "t": 64285.74750000002,
      "d": 556.3189687500053,
      "v": 98
    },
    {
      "midi": 62,
      "hit": false,
      "t": 64945.08850000003,
      "d": 65.24728645833238,
      "v": 89
    },
    {
      "midi": 57,
      "hit": false,
      "t": 64945.08850000003,
      "d": 82.41762500000186,
      "v": 85
    },
    {
      "midi": 46,
      "hit": false,
      "t": 64945.08850000003,
      "d": 96.15389583333308,
      "v": 89
    },
    {
      "midi": 65,
      "hit": false,
      "t": 64945.08850000003,
      "d": 99.58796354166407,
      "v": 89
    },
    {
      "midi": 62,
      "hit": false,
      "t": 65274.75900000003,
      "d": 89.28576041666383,
      "v": 89
    },
    {
      "midi": 57,
      "hit": false,
      "t": 65274.75900000003,
      "d": 96.15389583333308,
      "v": 76
    },
    {
      "midi": 46,
      "hit": false,
      "t": 65274.75900000003,
      "d": 109.8901666666643,
      "v": 85
    },
    {
      "midi": 65,
      "hit": false,
      "t": 65274.75900000003,
      "d": 116.75830208333355,
      "v": 89
    },
    {
      "midi": 62,
      "hit": false,
      "t": 65604.42950000003,
      "d": 103.02203125000233,
      "v": 89
    },
    {
      "midi": 57,
      "hit": false,
      "t": 65604.42950000003,
      "d": 106.45609895834059,
      "v": 76
    },
    {
      "midi": 46,
      "hit": false,
      "t": 65604.42950000003,
      "d": 116.75830208334082,
      "v": 89
    },
    {
      "midi": 65,
      "hit": false,
      "t": 65604.42950000003,
      "d": 137.3627083333413,
      "v": 89
    },
    {
      "midi": 60,
      "hit": false,
      "t": 65934.10000000003,
      "d": 734.8904895833402,
      "v": 80
    },
    {
      "midi": 67,
      "hit": false,
      "t": 65934.10000000003,
      "d": 734.8904895833402,
      "v": 89
    },
    {
      "midi": 63,
      "hit": false,
      "t": 65934.10000000003,
      "d": 741.7586250000022,
      "v": 89
    },
    {
      "midi": 46,
      "hit": false,
      "t": 65934.10000000003,
      "d": 1936.8141875000147,
      "v": 80
    },
    {
      "midi": 56,
      "hit": false,
      "t": 66593.44100000004,
      "d": 178.57152083334222,
      "v": 93
    },
    {
      "midi": 67,
      "hit": false,
      "t": 66923.11150000004,
      "d": 697.115744791663,
      "v": 93
    },
    {
      "midi": 60,
      "hit": false,
      "t": 66923.11150000004,
      "d": 755.4948958333262,
      "v": 85
    },
    {
      "midi": 63,
      "hit": false,
      "t": 66923.11150000004,
      "d": 769.2311666666646,
      "v": 89
    },
    {
      "midi": 56,
      "hit": false,
      "t": 67582.45250000004,
      "d": 243.81880729166733,
      "v": 80
    },
    {
      "midi": 60,
      "hit": false,
      "t": 67912.12300000005,
      "d": 106.45609895834059,
      "v": 80
    },
    {
      "midi": 65,
      "hit": false,
      "t": 68571.46400000005,
      "d": 831.044385416666,
      "v": 89
    },
    {
      "midi": 57,
      "hit": false,
      "t": 68571.46400000005,
      "d": 834.4784531250043,
      "v": 85
    },
    {
      "midi": 62,
      "hit": false,
      "t": 68571.46400000005,
      "d": 834.4784531250043,
      "v": 89
    },
    {
      "midi": 46,
      "hit": false,
      "t": 69560.47550000006,
      "d": 607.8299843749992,
      "v": 80
    },
    {
      "midi": 57,
      "hit": false,
      "t": 69560.47550000006,
      "d": 796.7037083333271,
      "v": 76
    },
    {
      "midi": 65,
      "hit": false,
      "t": 69560.47550000006,
      "d": 837.912520833328,
      "v": 85
    },
    {
      "midi": 62,
      "hit": false,
      "t": 69560.47550000006,
      "d": 865.3850624999905,
      "v": 80
    },
    {
      "midi": 46,
      "hit": false,
      "t": 70219.81650000006,
      "d": 339.97270312499313,
      "v": 93
    },
    {
      "midi": 57,
      "hit": false,
      "t": 70549.48700000005,
      "d": 195.74185937500442,
      "v": 85
    },
    {
      "midi": 62,
      "hit": false,
      "t": 70549.48700000005,
      "d": 195.74185937500442,
      "v": 89
    },
    {
      "midi": 65,
      "hit": false,
      "t": 70549.48700000005,
      "d": 219.78033333334315,
      "v": 93
    },
    {
      "midi": 63,
      "hit": false,
      "t": 71208.82800000007,
      "d": 51.511015625001164,
      "v": 53
    },
    {
      "midi": 68,
      "hit": false,
      "t": 71208.82800000007,
      "d": 85.85169270834012,
      "v": 89
    },
    {
      "midi": 60,
      "hit": false,
      "t": 71208.82800000007,
      "d": 92.7198281250021,
      "v": 85
    },
    {
      "midi": 46,
      "hit": false,
      "t": 71208.82800000007,
      "d": 109.8901666666643,
      "v": 93
    },
    {
      "midi": 68,
      "hit": false,
      "t": 71538.49850000006,
      "d": 274.725416666668,
      "v": 72
    },
    {
      "midi": 63,
      "hit": false,
      "t": 71538.49850000006,
      "d": 288.4616875000065,
      "v": 89
    },
    {
      "midi": 60,
      "hit": false,
      "t": 71538.49850000006,
      "d": 315.93422916666896,
      "v": 76
    },
    {
      "midi": 46,
      "hit": false,
      "t": 71538.49850000006,
      "d": 456.73100520833395,
      "v": 102
    },
    {
      "midi": 46,
      "hit": false,
      "t": 72197.83950000006,
      "d": 570.055239583322,
      "v": 89
    },
    {
      "midi": 58,
      "hit": false,
      "t": 72197.83950000006,
      "d": 748.6267604166496,
      "v": 80
    },
    {
      "midi": 65,
      "hit": false,
      "t": 72197.83950000006,
      "d": 824.1762499999895,
      "v": 93
    },
    {
      "midi": 62,
      "hit": false,
      "t": 72197.83950000006,
      "d": 837.912520833328,
      "v": 89
    },
    {
      "midi": 46,
      "hit": false,
      "t": 72857.18050000005,
      "d": 442.99473437499546,
      "v": 93
    },
    {
      "midi": 62,
      "hit": false,
      "t": 73186.85100000005,
      "d": 99.58796354166407,
      "v": 80
    },
    {
      "midi": 57,
      "hit": false,
      "t": 73186.85100000005,
      "d": 106.45609895832604,
      "v": 89
    },
    {
      "midi": 65,
      "hit": false,
      "t": 73186.85100000005,
      "d": 164.83524999998917,
      "v": 89
    },
    {
      "midi": 46,
      "hit": false,
      "t": 73516.52150000005,
      "d": 147.66491145832697,
      "v": 89
    },
    {
      "midi": 46,
      "hit": false,
      "t": 73846.19200000004,
      "d": 594.0937135416752,
      "v": 93
    },
    {
      "midi": 63,
      "hit": false,
      "t": 74175.86250000003,
      "d": 250.68694270834385,
      "v": 102
    },
    {
      "midi": 68,
      "hit": false,
      "t": 74175.86250000003,
      "d": 254.1210104166821,
      "v": 98
    },
    {
      "midi": 60,
      "hit": false,
      "t": 74175.86250000003,
      "d": 257.5550781250204,
      "v": 89
    },
    {
      "midi": 57,
      "hit": false,
      "t": 74835.20350000005,
      "d": 487.63761458333465,
      "v": 80
    },
    {
      "midi": 65,
      "hit": false,
      "t": 74835.20350000005,
      "d": 511.6760885416734,
      "v": 89
    },
    {
      "midi": 62,
      "hit": false,
      "t": 74835.20350000005,
      "d": 521.9782916666736,
      "v": 93
    },
    {
      "midi": 46,
      "hit": false,
      "t": 74835.20350000005,
      "d": 576.923375000013,
      "v": 98
    },
    {
      "midi": 65,
      "hit": false,
      "t": 75494.54450000006,
      "d": 78.9835572916636,
      "v": 89
    },
    {
      "midi": 57,
      "hit": false,
      "t": 75494.54450000006,
      "d": 130.49457291666477,
      "v": 93
    },
    {
      "midi": 62,
      "hit": false,
      "t": 75824.21500000005,
      "d": 72.11542187500163,
      "v": 102
    },
    {
      "midi": 57,
      "hit": false,
      "t": 75824.21500000005,
      "d": 89.28576041666383,
      "v": 89
    },
    {
      "midi": 46,
      "hit": false,
      "t": 75824.21500000005,
      "d": 123.6264375000028,
      "v": 102
    },
    {
      "midi": 65,
      "hit": false,
      "t": 75824.21500000005,
      "d": 123.6264375000028,
      "v": 107
    },
    {
      "midi": 43,
      "hit": false,
      "t": 76483.55600000006,
      "d": 521.9782916666736,
      "v": 107
    },
    {
      "midi": 70,
      "hit": false,
      "t": 76813.22650000005,
      "d": 161.40118229166546,
      "v": 107
    },
    {
      "midi": 74,
      "hit": false,
      "t": 76813.22650000005,
      "d": 161.40118229166546,
      "v": 113
    },
    {
      "midi": 65,
      "hit": false,
      "t": 76813.22650000005,
      "d": 164.83525000000373,
      "v": 107
    },
    {
      "midi": 55,
      "hit": false,
      "t": 76813.22650000005,
      "d": 178.57152083334222,
      "v": 98
    },
    {
      "midi": 72,
      "hit": false,
      "t": 77472.56750000006,
      "d": 559.7530364583217,
      "v": 107
    },
    {
      "midi": 69,
      "hit": false,
      "t": 77472.56750000006,
      "d": 580.3574427083222,
      "v": 107
    },
    {
      "midi": 64,
      "hit": false,
      "t": 77472.56750000006,
      "d": 583.7915104166605,
      "v": 98
    },
    {
      "midi": 53,
      "hit": false,
      "t": 77472.56750000006,
      "d": 1414.8358958333265,
      "v": 102
    },
    {
      "midi": 64,
      "hit": false,
      "t": 78131.90850000006,
      "d": 164.83525000000373,
      "v": 62
    },
    {
      "midi": 69,
      "hit": false,
      "t": 78131.90850000006,
      "d": 164.83525000000373,
      "v": 80
    },
    {
      "midi": 72,
      "hit": false,
      "t": 78131.90850000006,
      "d": 164.83525000000373,
      "v": 89
    },
    {
      "midi": 69,
      "hit": false,
      "t": 78791.24950000006,
      "d": 89.28576041666383,
      "v": 113
    },
    {
      "midi": 64,
      "hit": false,
      "t": 78791.24950000006,
      "d": 96.1538958333258,
      "v": 98
    },
    {
      "midi": 72,
      "hit": false,
      "t": 78791.24950000006,
      "d": 103.02203124998778,
      "v": 113
    },
    {
      "midi": 43,
      "hit": false,
      "t": 79120.92000000006,
      "d": 521.9782916666736,
      "v": 107
    },
    {
      "midi": 70,
      "hit": false,
      "t": 79450.59050000005,
      "d": 161.40118229166546,
      "v": 107
    },
    {
      "midi": 74,
      "hit": false,
      "t": 79450.59050000005,
      "d": 161.40118229166546,
      "v": 113
    },
    {
      "midi": 65,
      "hit": false,
      "t": 79450.59050000005,
      "d": 164.83525000000373,
      "v": 107
    },
    {
      "midi": 55,
      "hit": false,
      "t": 79450.59050000005,
      "d": 178.57152083334222,
      "v": 98
    },
    {
      "midi": 72,
      "hit": false,
      "t": 80109.93150000006,
      "d": 559.7530364583217,
      "v": 107
    },
    {
      "midi": 69,
      "hit": false,
      "t": 80109.93150000006,
      "d": 580.3574427083222,
      "v": 107
    },
    {
      "midi": 64,
      "hit": false,
      "t": 80109.93150000006,
      "d": 583.7915104166605,
      "v": 98
    },
    {
      "midi": 53,
      "hit": false,
      "t": 80109.93150000006,
      "d": 1414.8358958333265,
      "v": 102
    },
    {
      "midi": 64,
      "hit": false,
      "t": 80769.27250000006,
      "d": 164.83525000000373,
      "v": 62
    },
    {
      "midi": 69,
      "hit": false,
      "t": 80769.27250000006,
      "d": 164.83525000000373,
      "v": 80
    },
    {
      "midi": 72,
      "hit": false,
      "t": 80769.27250000006,
      "d": 164.83525000000373,
      "v": 89
    },
    {
      "midi": 69,
      "hit": false,
      "t": 81428.61350000006,
      "d": 89.28576041666383,
      "v": 113
    },
    {
      "midi": 64,
      "hit": false,
      "t": 81428.61350000006,
      "d": 96.1538958333258,
      "v": 98
    },
    {
      "midi": 72,
      "hit": false,
      "t": 81428.61350000006,
      "d": 103.02203124998778,
      "v": 113
    },
    {
      "midi": 48,
      "hit": false,
      "t": 81758.28400000006,
      "d": 566.6211718749983,
      "v": 107
    },
    {
      "midi": 63,
      "hit": false,
      "t": 82417.62500000006,
      "d": 82.41762500000186,
      "v": 107
    },
    {
      "midi": 58,
      "hit": false,
      "t": 82417.62500000006,
      "d": 89.28576041666383,
      "v": 98
    },
    {
      "midi": 67,
      "hit": false,
      "t": 82417.62500000006,
      "d": 109.8901666666643,
      "v": 107
    },
    {
      "midi": 57,
      "hit": false,
      "t": 82747.29550000005,
      "d": 659.3410000000003,
      "v": 89
    },
    {
      "midi": 62,
      "hit": false,
      "t": 82747.29550000005,
      "d": 693.6816770833393,
      "v": 98
    },
    {
      "midi": 65,
      "hit": false,
      "t": 82747.29550000005,
      "d": 693.6816770833393,
      "v": 89
    },
    {
      "midi": 46,
      "hit": false,
      "t": 82747.29550000005,
      "d": 1456.044708333342,
      "v": 98
    },
    {
      "midi": 53,
      "hit": false,
      "t": 83406.63650000005,
      "d": 233.5166041666671,
      "v": 76
    },
    {
      "midi": 57,
      "hit": false,
      "t": 83736.30700000006,
      "d": 254.12101041666756,
      "v": 102
    },
    {
      "midi": 62,
      "hit": false,
      "t": 83901.14225000006,
      "d": 133.92864062500303,
      "v": 102
    },
    {
      "midi": 65,
      "hit": false,
      "t": 84065.97750000007,
      "d": 99.58796354166407,
      "v": 72
    },
    {
      "midi": 53,
      "hit": false,
      "t": 84065.97750000007,
      "d": 171.70338541665114,
      "v": 89
    },
    {
      "midi": 62,
      "hit": false,
      "t": 84230.81275000006,
      "d": 99.58796354166407,
      "v": 89
    },
    {
      "midi": 48,
      "hit": false,
      "t": 84395.64800000006,
      "d": 422.390328124995,
      "v": 113
    },
    {
      "midi": 58,
      "hit": false,
      "t": 84725.31850000007,
      "d": 68.68135416666337,
      "v": 107
    },
    {
      "midi": 67,
      "hit": false,
      "t": 84725.31850000007,
      "d": 75.54948958332534,
      "v": 107
    },
    {
      "midi": 63,
      "hit": false,
      "t": 84725.31850000007,
      "d": 106.45609895832604,
      "v": 113
    },
    {
      "midi": 57,
      "hit": false,
      "t": 85384.65950000005,
      "d": 649.0387968750001,
      "v": 93
    },
    {
      "midi": 62,
      "hit": false,
      "t": 85384.65950000005,
      "d": 772.6652343750029,
      "v": 102
    },
    {
      "midi": 46,
      "hit": false,
      "t": 85384.65950000005,
      "d": 810.4399791666656,
      "v": 93
    },
    {
      "midi": 65,
      "hit": false,
      "t": 85384.65950000005,
      "d": 934.0664166666684,
      "v": 98
    },
    {
      "midi": 53,
      "hit": false,
      "t": 86044.00050000005,
      "d": 123.6264375000028,
      "v": 93
    },
    {
      "midi": 57,
      "hit": false,
      "t": 86208.83575000006,
      "d": 157.9671145833272,
      "v": 89
    },
    {
      "midi": 62,
      "hit": false,
      "t": 86373.67100000005,
      "d": 120.19236979166453,
      "v": 107
    },
    {
      "midi": 50,
      "hit": false,
      "t": 87033.01200000005,
      "d": 511.6760885416588,
      "v": 107
    },
    {
      "midi": 60,
      "hit": false,
      "t": 87362.68250000004,
      "d": 123.6264375000028,
      "v": 113
    },
    {
      "midi": 65,
      "hit": false,
      "t": 87362.68250000004,
      "d": 123.6264375000028,
      "v": 113
    },
    {
      "midi": 69,
      "hit": false,
      "t": 87362.68250000004,
      "d": 123.6264375000028,
      "v": 113
    },
    {
      "midi": 59,
      "hit": false,
      "t": 88022.02350000004,
      "d": 508.2420208333351,
      "v": 93
    },
    {
      "midi": 67,
      "hit": false,
      "t": 88022.02350000004,
      "d": 556.318968749998,
      "v": 93
    },
    {
      "midi": 64,
      "hit": false,
      "t": 88022.02350000004,
      "d": 604.3959166666609,
      "v": 93
    },
    {
      "midi": 55,
      "hit": false,
      "t": 88022.02350000004,
      "d": 710.8520156250015,
      "v": 89
    },
    {
      "midi": 48,
      "hit": false,
      "t": 88022.02350000004,
      "d": 903.1598072916677,
      "v": 93
    },
    {
      "midi": 67,
      "hit": false,
      "t": 88681.36450000004,
      "d": 195.74185937500442,
      "v": 48
    },
    {
      "midi": 59,
      "hit": false,
      "t": 88681.36450000004,
      "d": 305.6320260416687,
      "v": 89
    },
    {
      "midi": 55,
      "hit": false,
      "t": 88846.19975000004,
      "d": 164.83525000000373,
      "v": 98
    },
    {
      "midi": 62,
      "hit": false,
      "t": 89011.03500000005,
      "d": 161.40118229166546,
      "v": 93
    },
    {
      "midi": 64,
      "hit": false,
      "t": 89175.87025000005,
      "d": 161.40118229166546,
      "v": 72
    },
    {
      "midi": 50,
      "hit": false,
      "t": 89670.37600000005,
      "d": 449.862869791672,
      "v": 107
    },
    {
      "midi": 65,
      "hit": false,
      "t": 90000.04650000004,
      "d": 89.28576041666383,
      "v": 113
    },
    {
      "midi": 60,
      "hit": false,
      "t": 90000.04650000004,
      "d": 92.7198281250021,
      "v": 107
    },
    {
      "midi": 69,
      "hit": false,
      "t": 90000.04650000004,
      "d": 96.15389583334036,
      "v": 113
    },
    {
      "midi": 67,
      "hit": false,
      "t": 90659.38750000006,
      "d": 635.3025260416616,
      "v": 102
    },
    {
      "midi": 59,
      "hit": false,
      "t": 90659.38750000006,
      "d": 659.3410000000003,
      "v": 89
    },
    {
      "midi": 64,
      "hit": false,
      "t": 90659.38750000006,
      "d": 728.0223541666637,
      "v": 98
    },
    {
      "midi": 48,
      "hit": false,
      "t": 90659.38750000006,
      "d": 772.6652343750029,
      "v": 89
    },
    {
      "midi": 55,
      "hit": false,
      "t": 90659.38750000006,
      "d": 782.9674375000031,
      "v": 76
    },
    {
      "midi": 64,
      "hit": false,
      "t": 91648.39900000006,
      "d": 123.6264375000028,
      "v": 89
    },
    {
      "midi": 59,
      "hit": false,
      "t": 91648.39900000006,
      "d": 127.06050520834106,
      "v": 98
    },
    {
      "midi": 67,
      "hit": false,
      "t": 91648.39900000006,
      "d": 164.83525000000373,
      "v": 98
    },
    {
      "midi": 48,
      "hit": false,
      "t": 91648.39900000006,
      "d": 178.57152083334222,
      "v": 98
    },
    {
      "midi": 55,
      "hit": false,
      "t": 91648.39900000006,
      "d": 185.4396562500042,
      "v": 72
    },
    {
      "midi": 62,
      "hit": false,
      "t": 92307.74000000006,
      "d": 127.0605052083265,
      "v": 93
    },
    {
      "midi": 58,
      "hit": false,
      "t": 92307.74000000006,
      "d": 140.796776041665,
      "v": 93
    },
    {
      "midi": 55,
      "hit": false,
      "t": 92307.74000000006,
      "d": 151.09897916666523,
      "v": 93
    },
    {
      "midi": 74,
      "hit": false,
      "t": 92307.74000000006,
      "d": 178.57152083332767,
      "v": 89
    },
    {
      "midi": 70,
      "hit": false,
      "t": 92307.74000000006,
      "d": 192.30779166666616,
      "v": 89
    },
    {
      "midi": 65,
      "hit": false,
      "t": 92307.74000000006,
      "d": 206.04406250000466,
      "v": 85
    },
    {
      "midi": 60,
      "hit": false,
      "t": 93296.75150000007,
      "d": 350.27490624999336,
      "v": 98
    },
    {
      "midi": 53,
      "hit": false,
      "t": 93296.75150000007,
      "d": 370.87931249999383,
      "v": 98
    },
    {
      "midi": 69,
      "hit": false,
      "t": 93296.75150000007,
      "d": 370.87931249999383,
      "v": 102
    },
    {
      "midi": 72,
      "hit": false,
      "t": 93296.75150000007,
      "d": 384.6155833333323,
      "v": 102
    },
    {
      "midi": 64,
      "hit": false,
      "t": 93296.75150000007,
      "d": 412.08812499999476,
      "v": 85
    },
    {
      "midi": 55,
      "hit": false,
      "t": 94285.76300000006,
      "d": 360.5771093749936,
      "v": 102
    },
    {
      "midi": 67,
      "hit": false,
      "t": 94285.76300000006,
      "d": 377.7474479166558,
      "v": 102
    },
    {
      "midi": 48,
      "hit": false,
      "t": 94285.76300000006,
      "d": 388.04965104165603,
      "v": 107
    },
    {
      "midi": 63,
      "hit": false,
      "t": 94285.76300000006,
      "d": 388.04965104165603,
      "v": 102
    },
    {
      "midi": 58,
      "hit": false,
      "t": 94285.76300000006,
      "d": 412.08812499999476,
      "v": 89
    },
    {
      "midi": 53,
      "hit": false,
      "t": 95274.77450000006,
      "d": 645.6047291666619,
      "v": 93
    },
    {
      "midi": 46,
      "hit": false,
      "t": 95274.77450000006,
      "d": 673.0772708333243,
      "v": 93
    },
    {
      "midi": 65,
      "hit": false,
      "t": 95274.77450000006,
      "d": 803.5718437499891,
      "v": 98
    },
    {
      "midi": 57,
      "hit": false,
      "t": 95274.77450000006,
      "d": 810.439979166651,
      "v": 98
    },
    {
      "midi": 62,
      "hit": false,
      "t": 95274.77450000006,
      "d": 813.8740468749893,
      "v": 98
    },
    {
      "midi": 57,
      "hit": false,
      "t": 96263.78600000005,
      "d": 295.3298229166685,
      "v": 80
    },
    {
      "midi": 62,
      "hit": false,
      "t": 96263.78600000005,
      "d": 302.19795833333046,
      "v": 89
    },
    {
      "midi": 65,
      "hit": false,
      "t": 96263.78600000005,
      "d": 302.19795833333046,
      "v": 89
    },
    {
      "midi": 46,
      "hit": false,
      "t": 96593.45650000004,
      "d": 123.6264375000028,
      "v": 98
    },
    {
      "midi": 58,
      "hit": false,
      "t": 96923.12700000005,
      "d": 532.2804947916738,
      "v": 102
    },
    {
      "midi": 67,
      "hit": false,
      "t": 96923.12700000005,
      "d": 535.7145625000121,
      "v": 107
    },
    {
      "midi": 62,
      "hit": false,
      "t": 96923.12700000005,
      "d": 559.7530364583508,
      "v": 107
    },
    {
      "midi": 48,
      "hit": false,
      "t": 96923.12700000005,
      "d": 896.2916718750203,
      "v": 107
    },
    {
      "midi": 58,
      "hit": false,
      "t": 97582.46800000007,
      "d": 460.1650729166722,
      "v": 102
    },
    {
      "midi": 67,
      "hit": false,
      "t": 97582.46800000007,
      "d": 480.7694791666727,
      "v": 107
    },
    {
      "midi": 62,
      "hit": false,
      "t": 97582.46800000007,
      "d": 494.5057500000112,
      "v": 107
    },
    {
      "midi": 48,
      "hit": false,
      "t": 98076.97375000008,
      "d": 521.9782916666591,
      "v": 107
    },
    {
      "midi": 58,
      "hit": false,
      "t": 98241.80900000008,
      "d": 89.28576041666383,
      "v": 85
    },
    {
      "midi": 62,
      "hit": false,
      "t": 98241.80900000008,
      "d": 96.1538958333258,
      "v": 93
    },
    {
      "midi": 67,
      "hit": false,
      "t": 98241.80900000008,
      "d": 116.75830208332627,
      "v": 89
    },
    {
      "midi": 58,
      "hit": false,
      "t": 98571.47950000007,
      "d": 89.28576041666383,
      "v": 102
    },
    {
      "midi": 62,
      "hit": false,
      "t": 98571.47950000007,
      "d": 96.1538958333258,
      "v": 113
    },
    {
      "midi": 67,
      "hit": false,
      "t": 98571.47950000007,
      "d": 106.45609895832604,
      "v": 102
    },
    {
      "midi": 48,
      "hit": false,
      "t": 98901.15000000007,
      "d": 82.41762500000186,
      "v": 102
    },
    {
      "midi": 58,
      "hit": false,
      "t": 99065.98525000007,
      "d": 85.85169270834012,
      "v": 89
    },
    {
      "midi": 62,
      "hit": false,
      "t": 99065.98525000007,
      "d": 130.49457291667932,
      "v": 102
    },
    {
      "midi": 67,
      "hit": false,
      "t": 99065.98525000007,
      "d": 133.92864062501758,
      "v": 98
    },
    {
      "midi": 67,
      "hit": false,
      "t": 99560.4910000001,
      "d": 453.2969374999957,
      "v": 93
    },
    {
      "midi": 58,
      "hit": false,
      "t": 99560.4910000001,
      "d": 463.5991406249959,
      "v": 93
    },
    {
      "midi": 64,
      "hit": false,
      "t": 99560.4910000001,
      "d": 480.76947916665813,
      "v": 93
    },
    {
      "midi": 48,
      "hit": false,
      "t": 99560.4910000001,
      "d": 614.6981197916612,
      "v": 102
    },
    {
      "midi": 58,
      "hit": false,
      "t": 100219.8320000001,
      "d": 68.68135416666337,
      "v": 76
    },
    {
      "midi": 64,
      "hit": false,
      "t": 100219.8320000001,
      "d": 82.41762500000186,
      "v": 93
    },
    {
      "midi": 67,
      "hit": false,
      "t": 100219.8320000001,
      "d": 99.58796354166407,
      "v": 98
    },
    {
      "midi": 58,
      "hit": false,
      "t": 100549.50250000009,
      "d": 44.64288020833919,
      "v": 62
    },
    {
      "midi": 64,
      "hit": false,
      "t": 100549.50250000009,
      "d": 54.945083333339426,
      "v": 89
    },
    {
      "midi": 67,
      "hit": false,
      "t": 100549.50250000009,
      "d": 72.11542187500163,
      "v": 89
    },
    {
      "midi": 58,
      "hit": false,
      "t": 100714.3377500001,
      "d": 85.85169270834012,
      "v": 89
    },
    {
      "midi": 64,
      "hit": false,
      "t": 100714.3377500001,
      "d": 89.28576041667839,
      "v": 93
    },
    {
      "midi": 67,
      "hit": false,
      "t": 100714.3377500001,
      "d": 109.89016666667885,
      "v": 93
    },
    {
      "midi": 48,
      "hit": false,
      "t": 100879.17300000011,
      "d": 89.28576041666383,
      "v": 93
    },
    {
      "midi": 64,
      "hit": false,
      "t": 101044.0082500001,
      "d": 195.74185937500442,
      "v": 107
    },
    {
      "midi": 58,
      "hit": false,
      "t": 101044.0082500001,
      "d": 199.17592708334269,
      "v": 107
    },
    {
      "midi": 67,
      "hit": false,
      "t": 101044.0082500001,
      "d": 209.47813020834292,
      "v": 107
    },
    {
      "midi": 48,
      "hit": false,
      "t": 101208.8435000001,
      "d": 212.91219791666663,
      "v": 102
    },
    {
      "midi": 64,
      "hit": false,
      "t": 101373.67875000011,
      "d": 82.41762500000186,
      "v": 76
    },
    {
      "midi": 58,
      "hit": false,
      "t": 101373.67875000011,
      "d": 92.7198281250021,
      "v": 85
    },
    {
      "midi": 67,
      "hit": false,
      "t": 101373.67875000011,
      "d": 92.7198281250021,
      "v": 80
    },
    {
      "midi": 58,
      "hit": false,
      "t": 101538.51400000011,
      "d": 133.92864062500303,
      "v": 85
    },
    {
      "midi": 64,
      "hit": false,
      "t": 101538.51400000011,
      "d": 151.09897916666523,
      "v": 102
    },
    {
      "midi": 67,
      "hit": false,
      "t": 101538.51400000011,
      "d": 151.09897916666523,
      "v": 102
    },
    {
      "midi": 48,
      "hit": false,
      "t": 101703.34925000012,
      "d": 123.6264375000028,
      "v": 107
    },
    {
      "midi": 58,
      "hit": false,
      "t": 101868.18450000012,
      "d": 85.85169270834012,
      "v": 89
    },
    {
      "midi": 64,
      "hit": false,
      "t": 101868.18450000012,
      "d": 113.32423437500256,
      "v": 102
    },
    {
      "midi": 67,
      "hit": false,
      "t": 101868.18450000012,
      "d": 130.49457291666477,
      "v": 107
    },
    {
      "midi": 62,
      "hit": false,
      "t": 102197.85500000011,
      "d": 157.9671145833272,
      "v": 76
    },
    {
      "midi": 55,
      "hit": false,
      "t": 102197.85500000011,
      "d": 161.40118229166546,
      "v": 85
    },
    {
      "midi": 74,
      "hit": false,
      "t": 102197.85500000011,
      "d": 202.6099947916664,
      "v": 89
    },
    {
      "midi": 70,
      "hit": false,
      "t": 102197.85500000011,
      "d": 206.04406250000466,
      "v": 85
    },
    {
      "midi": 65,
      "hit": false,
      "t": 102197.85500000011,
      "d": 212.91219791666663,
      "v": 76
    },
    {
      "midi": 43,
      "hit": false,
      "t": 102197.85500000011,
      "d": 2228.7099427083594,
      "v": 93
    },
    {
      "midi": 62,
      "hit": false,
      "t": 102527.5255000001,
      "d": 113.32423437500256,
      "v": 62
    },
    {
      "midi": 55,
      "hit": false,
      "t": 102527.5255000001,
      "d": 123.6264375000028,
      "v": 76
    },
    {
      "midi": 74,
      "hit": false,
      "t": 102527.5255000001,
      "d": 147.66491145834152,
      "v": 76
    },
    {
      "midi": 70,
      "hit": false,
      "t": 102527.5255000001,
      "d": 151.09897916667978,
      "v": 76
    },
    {
      "midi": 65,
      "hit": false,
      "t": 102527.5255000001,
      "d": 157.96711458334175,
      "v": 64
    },
    {
      "midi": 62,
      "hit": false,
      "t": 102857.19600000011,
      "d": 120.19236979166453,
      "v": 62
    },
    {
      "midi": 55,
      "hit": false,
      "t": 102857.19600000011,
      "d": 123.6264375000028,
      "v": 76
    },
    {
      "midi": 70,
      "hit": false,
      "t": 102857.19600000011,
      "d": 151.09897916666523,
      "v": 72
    },
    {
      "midi": 65,
      "hit": false,
      "t": 102857.19600000011,
      "d": 154.5330468750035,
      "v": 59
    },
    {
      "midi": 74,
      "hit": false,
      "t": 102857.19600000011,
      "d": 161.40118229166546,
      "v": 80
    },
    {
      "midi": 62,
      "hit": false,
      "t": 103186.8665000001,
      "d": 130.49457291666477,
      "v": 68
    },
    {
      "midi": 55,
      "hit": false,
      "t": 103186.8665000001,
      "d": 144.23084375000326,
      "v": 89
    },
    {
      "midi": 70,
      "hit": false,
      "t": 103186.8665000001,
      "d": 147.66491145834152,
      "v": 85
    },
    {
      "midi": 74,
      "hit": false,
      "t": 103186.8665000001,
      "d": 151.09897916667978,
      "v": 89
    },
    {
      "midi": 65,
      "hit": false,
      "t": 103186.8665000001,
      "d": 164.83525000001828,
      "v": 80
    },
    {
      "midi": 62,
      "hit": false,
      "t": 103516.53700000013,
      "d": 140.796776041665,
      "v": 55
    },
    {
      "midi": 55,
      "hit": false,
      "t": 103516.53700000013,
      "d": 154.5330468750035,
      "v": 62
    },
    {
      "midi": 65,
      "hit": false,
      "t": 103516.53700000013,
      "d": 178.57152083334222,
      "v": 56
    },
    {
      "midi": 74,
      "hit": false,
      "t": 103516.53700000013,
      "d": 178.57152083334222,
      "v": 72
    },
    {
      "midi": 70,
      "hit": false,
      "t": 103516.53700000013,
      "d": 182.00558854168048,
      "v": 72
    },
    {
      "midi": 62,
      "hit": false,
      "t": 103846.20750000014,
      "d": 123.6264375000028,
      "v": 57
    },
    {
      "midi": 55,
      "hit": false,
      "t": 103846.20750000014,
      "d": 133.92864062500303,
      "v": 76
    },
    {
      "midi": 74,
      "hit": false,
      "t": 103846.20750000014,
      "d": 168.269317708342,
      "v": 85
    },
    {
      "midi": 70,
      "hit": false,
      "t": 103846.20750000014,
      "d": 175.13745312500396,
      "v": 80
    },
    {
      "midi": 65,
      "hit": false,
      "t": 103846.20750000014,
      "d": 178.57152083334222,
      "v": 68
    },
    {
      "midi": 62,
      "hit": false,
      "t": 104175.87800000014,
      "d": 130.49457291666477,
      "v": 60
    },
    {
      "midi": 55,
      "hit": false,
      "t": 104175.87800000014,
      "d": 137.36270833332674,
      "v": 80
    },
    {
      "midi": 65,
      "hit": false,
      "t": 104175.87800000014,
      "d": 178.57152083332767,
      "v": 72
    },
    {
      "midi": 70,
      "hit": false,
      "t": 104175.87800000014,
      "d": 178.57152083332767,
      "v": 85
    },
    {
      "midi": 74,
      "hit": false,
      "t": 104175.87800000014,
      "d": 178.57152083332767,
      "v": 89
    },
    {
      "midi": 70,
      "hit": false,
      "t": 104505.54850000014,
      "d": 96.15389583334036,
      "v": 85
    },
    {
      "midi": 65,
      "hit": false,
      "t": 104505.54850000014,
      "d": 99.58796354167862,
      "v": 76
    },
    {
      "midi": 74,
      "hit": false,
      "t": 104505.54850000014,
      "d": 106.45609895834059,
      "v": 85
    },
    {
      "midi": 55,
      "hit": false,
      "t": 104505.54850000014,
      "d": 109.89016666667885,
      "v": 62
    },
    {
      "midi": 62,
      "hit": false,
      "t": 104505.54850000014,
      "d": 109.89016666667885,
      "v": 59
    },
    {
      "midi": 62,
      "hit": false,
      "t": 104835.21900000014,
      "d": 51.511015625001164,
      "v": 41
    },
    {
      "midi": 55,
      "hit": false,
      "t": 104835.21900000014,
      "d": 68.68135416666337,
      "v": 57
    },
    {
      "midi": 60,
      "hit": false,
      "t": 104835.21900000014,
      "d": 72.11542187500163,
      "v": 50
    },
    {
      "midi": 53,
      "hit": false,
      "t": 104835.21900000014,
      "d": 96.15389583334036,
      "v": 55
    },
    {
      "midi": 69,
      "hit": false,
      "t": 104835.21900000014,
      "d": 157.96711458334175,
      "v": 72
    },
    {
      "midi": 64,
      "hit": false,
      "t": 104835.21900000014,
      "d": 168.269317708342,
      "v": 64
    },
    {
      "midi": 72,
      "hit": false,
      "t": 104835.21900000014,
      "d": 188.87372395834245,
      "v": 68
    },
    {
      "midi": 41,
      "hit": false,
      "t": 104835.21900000014,
      "d": 2101.649437500033,
      "v": 60
    },
    {
      "midi": 60,
      "hit": false,
      "t": 105164.88950000015,
      "d": 109.8901666666643,
      "v": 56
    },
    {
      "midi": 69,
      "hit": false,
      "t": 105164.88950000015,
      "d": 144.23084375000326,
      "v": 76
    },
    {
      "midi": 53,
      "hit": false,
      "t": 105164.88950000015,
      "d": 147.66491145834152,
      "v": 72
    },
    {
      "midi": 72,
      "hit": false,
      "t": 105164.88950000015,
      "d": 154.5330468750035,
      "v": 76
    },
    {
      "midi": 64,
      "hit": false,
      "t": 105164.88950000015,
      "d": 164.83525000000373,
      "v": 72
    },
    {
      "midi": 53,
      "hit": false,
      "t": 105494.56000000016,
      "d": 120.19236979166453,
      "v": 85
    },
    {
      "midi": 69,
      "hit": false,
      "t": 105494.56000000016,
      "d": 147.66491145832697,
      "v": 85
    },
    {
      "midi": 64,
      "hit": false,
      "t": 105494.56000000016,
      "d": 151.09897916666523,
      "v": 59
    },
    {
      "midi": 72,
      "hit": false,
      "t": 105494.56000000016,
      "d": 151.09897916666523,
      "v": 85
    },
    {
      "midi": 64,
      "hit": false,
      "t": 105824.23050000015,
      "d": 216.3462656250049,
      "v": 72
    },
    {
      "midi": 69,
      "hit": false,
      "t": 105824.23050000015,
      "d": 219.78033333334315,
      "v": 89
    },
    {
      "midi": 72,
      "hit": false,
      "t": 105824.23050000015,
      "d": 223.2144010416814,
      "v": 93
    },
    {
      "midi": 53,
      "hit": false,
      "t": 105824.23050000015,
      "d": 226.64846875001967,
      "v": 93
    },
    {
      "midi": 53,
      "hit": false,
      "t": 106153.90100000017,
      "d": 109.8901666666643,
      "v": 72
    },
    {
      "midi": 69,
      "hit": false,
      "t": 106153.90100000017,
      "d": 120.19236979166453,
      "v": 76
    },
    {
      "midi": 72,
      "hit": false,
      "t": 106153.90100000017,
      "d": 120.19236979166453,
      "v": 80
    },
    {
      "midi": 64,
      "hit": false,
      "t": 106153.90100000017,
      "d": 127.0605052083265,
      "v": 62
    },
    {
      "midi": 53,
      "hit": false,
      "t": 106483.57150000017,
      "d": 127.06050520834106,
      "v": 76
    },
    {
      "midi": 64,
      "hit": false,
      "t": 106483.57150000017,
      "d": 151.09897916667978,
      "v": 60
    },
    {
      "midi": 69,
      "hit": false,
      "t": 106483.57150000017,
      "d": 151.09897916667978,
      "v": 80
    },
    {
      "midi": 72,
      "hit": false,
      "t": 106483.57150000017,
      "d": 151.09897916667978,
      "v": 80
    },
    {
      "midi": 53,
      "hit": false,
      "t": 106813.24200000017,
      "d": 120.19236979166453,
      "v": 80
    },
    {
      "midi": 69,
      "hit": false,
      "t": 106813.24200000017,
      "d": 137.3627083333413,
      "v": 93
    },
    {
      "midi": 72,
      "hit": false,
      "t": 106813.24200000017,
      "d": 137.3627083333413,
      "v": 89
    },
    {
      "midi": 64,
      "hit": false,
      "t": 106813.24200000017,
      "d": 144.23084375000326,
      "v": 72
    },
    {
      "midi": 69,
      "hit": false,
      "t": 107142.91250000018,
      "d": 92.7198281250021,
      "v": 89
    },
    {
      "midi": 64,
      "hit": false,
      "t": 107142.91250000018,
      "d": 99.58796354166407,
      "v": 72
    },
    {
      "midi": 53,
      "hit": false,
      "t": 107142.91250000018,
      "d": 113.32423437500256,
      "v": 85
    },
    {
      "midi": 72,
      "hit": false,
      "t": 107142.91250000018,
      "d": 116.75830208334082,
      "v": 93
    },
    {
      "midi": 62,
      "hit": false,
      "t": 107472.58300000019,
      "d": 123.6264375000028,
      "v": 60
    },
    {
      "midi": 55,
      "hit": false,
      "t": 107472.58300000019,
      "d": 157.96711458334175,
      "v": 64
    },
    {
      "midi": 65,
      "hit": false,
      "t": 107472.58300000019,
      "d": 182.00558854168048,
      "v": 60
    },
    {
      "midi": 74,
      "hit": false,
      "t": 107472.58300000019,
      "d": 182.00558854168048,
      "v": 50
    },
    {
      "midi": 70,
      "hit": false,
      "t": 107472.58300000019,
      "d": 192.3077916666807,
      "v": 76
    },
    {
      "midi": 43,
      "hit": false,
      "t": 107472.58300000019,
      "d": 2348.902312500024,
      "v": 89
    },
    {
      "midi": 55,
      "hit": false,
      "t": 107802.2535000002,
      "d": 116.75830208332627,
      "v": 72
    },
    {
      "midi": 62,
      "hit": false,
      "t": 107802.2535000002,
      "d": 120.19236979166453,
      "v": 62
    },
    {
      "midi": 74,
      "hit": false,
      "t": 107802.2535000002,
      "d": 137.36270833332674,
      "v": 68
    },
    {
      "midi": 70,
      "hit": false,
      "t": 107802.2535000002,
      "d": 140.796776041665,
      "v": 72
    },
    {
      "midi": 65,
      "hit": false,
      "t": 107802.2535000002,
      "d": 151.09897916666523,
      "v": 62
    },
    {
      "midi": 62,
      "hit": false,
      "t": 108131.92400000019,
      "d": 144.23084375000326,
      "v": 64
    },
    {
      "midi": 55,
      "hit": false,
      "t": 108131.92400000019,
      "d": 151.09897916666523,
      "v": 76
    },
    {
      "midi": 65,
      "hit": false,
      "t": 108131.92400000019,
      "d": 164.83525000000373,
      "v": 72
    },
    {
      "midi": 70,
      "hit": false,
      "t": 108131.92400000019,
      "d": 164.83525000000373,
      "v": 80
    },
    {
      "midi": 74,
      "hit": false,
      "t": 108131.92400000019,
      "d": 168.269317708342,
      "v": 85
    },
    {
      "midi": 62,
      "hit": false,
      "t": 108461.5945000002,
      "d": 133.92864062500303,
      "v": 72
    },
    {
      "midi": 55,
      "hit": false,
      "t": 108461.5945000002,
      "d": 140.796776041665,
      "v": 89
    },
    {
      "midi": 65,
      "hit": false,
      "t": 108461.5945000002,
      "d": 175.13745312500396,
      "v": 76
    },
    {
      "midi": 70,
      "hit": false,
      "t": 108461.5945000002,
      "d": 178.57152083334222,
      "v": 89
    },
    {
      "midi": 74,
      "hit": false,
      "t": 108461.5945000002,
      "d": 178.57152083334222,
      "v": 89
    },
    {
      "midi": 62,
      "hit": false,
      "t": 108791.2650000002,
      "d": 151.09897916666523,
      "v": 72
    },
    {
      "midi": 55,
      "hit": false,
      "t": 108791.2650000002,
      "d": 171.7033854166657,
      "v": 93
    },
    {
      "midi": 70,
      "hit": false,
      "t": 108791.2650000002,
      "d": 185.4396562500042,
      "v": 93
    },
    {
      "midi": 65,
      "hit": false,
      "t": 108791.2650000002,
      "d": 188.87372395834245,
      "v": 72
    },
    {
      "midi": 74,
      "hit": false,
      "t": 108791.2650000002,
      "d": 192.3077916666807,
      "v": 89
    },
    {
      "midi": 62,
      "hit": false,
      "t": 109120.93550000021,
      "d": 113.32423437500256,
      "v": 62
    },
    {
      "midi": 55,
      "hit": false,
      "t": 109120.93550000021,
      "d": 120.19236979166453,
      "v": 76
    },
    {
      "midi": 70,
      "hit": false,
      "t": 109120.93550000021,
      "d": 151.09897916666523,
      "v": 89
    },
    {
      "midi": 74,
      "hit": false,
      "t": 109120.93550000021,
      "d": 151.09897916666523,
      "v": 89
    },
    {
      "midi": 65,
      "hit": false,
      "t": 109120.93550000021,
      "d": 154.5330468750035,
      "v": 76
    },
    {
      "midi": 62,
      "hit": false,
      "t": 109450.60600000022,
      "d": 123.6264375000028,
      "v": 72
    },
    {
      "midi": 55,
      "hit": false,
      "t": 109450.60600000022,
      "d": 130.49457291666477,
      "v": 80
    },
    {
      "midi": 70,
      "hit": false,
      "t": 109450.60600000022,
      "d": 178.57152083332767,
      "v": 93
    },
    {
      "midi": 65,
      "hit": false,
      "t": 109450.60600000022,
      "d": 182.00558854166593,
      "v": 80
    },
    {
      "midi": 74,
      "hit": false,
      "t": 109450.60600000022,
      "d": 182.00558854166593,
      "v": 89
    },
    {
      "midi": 65,
      "hit": false,
      "t": 109780.27650000021,
      "d": 99.58796354166407,
      "v": 76
    },
    {
      "midi": 62,
      "hit": false,
      "t": 109780.27650000021,
      "d": 103.02203125000233,
      "v": 72
    },
    {
      "midi": 70,
      "hit": false,
      "t": 109780.27650000021,
      "d": 109.8901666666643,
      "v": 89
    },
    {
      "midi": 55,
      "hit": false,
      "t": 109780.27650000021,
      "d": 116.75830208332627,
      "v": 80
    },
    {
      "midi": 74,
      "hit": false,
      "t": 109780.27650000021,
      "d": 120.19236979166453,
      "v": 93
    },
    {
      "midi": 53,
      "hit": false,
      "t": 110109.94700000022,
      "d": 133.92864062500303,
      "v": 85
    },
    {
      "midi": 64,
      "hit": false,
      "t": 110109.94700000022,
      "d": 151.09897916666523,
      "v": 64
    },
    {
      "midi": 69,
      "hit": false,
      "t": 110109.94700000022,
      "d": 161.40118229166546,
      "v": 85
    },
    {
      "midi": 72,
      "hit": false,
      "t": 110109.94700000022,
      "d": 171.7033854166657,
      "v": 89
    },
    {
      "midi": 41,
      "hit": false,
      "t": 110109.94700000022,
      "d": 1833.7921562499687,
      "v": 72
    },
    {
      "midi": 53,
      "hit": false,
      "t": 110439.61750000021,
      "d": 137.36270833332674,
      "v": 68
    },
    {
      "midi": 69,
      "hit": false,
      "t": 110439.61750000021,
      "d": 157.9671145833272,
      "v": 76
    },
    {
      "midi": 64,
      "hit": false,
      "t": 110439.61750000021,
      "d": 164.83524999998917,
      "v": 52
    },
    {
      "midi": 72,
      "hit": false,
      "t": 110439.61750000021,
      "d": 168.26931770832743,
      "v": 62
    },
    {
      "midi": 53,
      "hit": false,
      "t": 110769.2880000002,
      "d": 120.19236979166453,
      "v": 89
    },
    {
      "midi": 69,
      "hit": false,
      "t": 110769.2880000002,
      "d": 127.0605052083265,
      "v": 85
    },
    {
      "midi": 64,
      "hit": false,
      "t": 110769.2880000002,
      "d": 133.92864062498847,
      "v": 68
    },
    {
      "midi": 72,
      "hit": false,
      "t": 110769.2880000002,
      "d": 137.36270833332674,
      "v": 89
    },
    {
      "midi": 53,
      "hit": false,
      "t": 111098.9585000002,
      "d": 154.5330468750035,
      "v": 93
    },
    {
      "midi": 64,
      "hit": false,
      "t": 111098.9585000002,
      "d": 175.13745312500396,
      "v": 76
    },
    {
      "midi": 69,
      "hit": false,
      "t": 111098.9585000002,
      "d": 175.13745312500396,
      "v": 93
    },
    {
      "midi": 72,
      "hit": false,
      "t": 111098.9585000002,
      "d": 182.00558854166593,
      "v": 93
    },
    {
      "midi": 53,
      "hit": false,
      "t": 111428.62900000019,
      "d": 137.36270833332674,
      "v": 76
    },
    {
      "midi": 69,
      "hit": false,
      "t": 111428.62900000019,
      "d": 164.83524999998917,
      "v": 76
    },
    {
      "midi": 64,
      "hit": false,
      "t": 111428.62900000019,
      "d": 175.1374531249894,
      "v": 72
    },
    {
      "midi": 72,
      "hit": false,
      "t": 111428.62900000019,
      "d": 175.1374531249894,
      "v": 85
    },
    {
      "midi": 53,
      "hit": false,
      "t": 111758.29950000018,
      "d": 157.9671145833272,
      "v": 93
    },
    {
      "midi": 64,
      "hit": false,
      "t": 111758.29950000018,
      "d": 171.7033854166657,
      "v": 72
    },
    {
      "midi": 69,
      "hit": false,
      "t": 111758.29950000018,
      "d": 175.13745312500396,
      "v": 93
    },
    {
      "midi": 72,
      "hit": false,
      "t": 111758.29950000018,
      "d": 185.4396562500042,
      "v": 89
    },
    {
      "midi": 53,
      "hit": false,
      "t": 112087.97000000019,
      "d": 113.32423437500256,
      "v": 72
    },
    {
      "midi": 64,
      "hit": false,
      "t": 112087.97000000019,
      "d": 137.3627083333413,
      "v": 60
    },
    {
      "midi": 69,
      "hit": false,
      "t": 112087.97000000019,
      "d": 137.3627083333413,
      "v": 89
    },
    {
      "midi": 72,
      "hit": false,
      "t": 112087.97000000019,
      "d": 151.09897916667978,
      "v": 89
    },
    {
      "midi": 69,
      "hit": false,
      "t": 112417.6405000002,
      "d": 106.45609895834059,
      "v": 89
    },
    {
      "midi": 64,
      "hit": false,
      "t": 112417.6405000002,
      "d": 120.19236979167908,
      "v": 80
    },
    {
      "midi": 72,
      "hit": false,
      "t": 112417.6405000002,
      "d": 130.49457291667932,
      "v": 93
    },
    {
      "midi": 53,
      "hit": false,
      "t": 112417.6405000002,
      "d": 147.66491145834152,
      "v": 93
    },
    {
      "midi": 62,
      "hit": false,
      "t": 112747.3110000002,
      "d": 68.68135416666337,
      "v": 62
    },
    {
      "midi": 51,
      "hit": false,
      "t": 112747.3110000002,
      "d": 92.7198281250021,
      "v": 93
    },
    {
      "midi": 58,
      "hit": false,
      "t": 112747.3110000002,
      "d": 96.15389583334036,
      "v": 93
    },
    {
      "midi": 70,
      "hit": false,
      "t": 112747.3110000002,
      "d": 96.15389583334036,
      "v": 85
    },
    {
      "midi": 67,
      "hit": false,
      "t": 112747.3110000002,
      "d": 99.58796354167862,
      "v": 93
    },
    {
      "midi": 51,
      "hit": false,
      "t": 113076.98150000021,
      "d": 61.8132187500014,
      "v": 72
    },
    {
      "midi": 67,
      "hit": false,
      "t": 113076.98150000021,
      "d": 68.68135416666337,
      "v": 60
    },
    {
      "midi": 62,
      "hit": false,
      "t": 113076.98150000021,
      "d": 82.41762500000186,
      "v": 62
    },
    {
      "midi": 70,
      "hit": false,
      "t": 113076.98150000021,
      "d": 85.85169270834012,
      "v": 72
    },
    {
      "midi": 58,
      "hit": false,
      "t": 113076.98150000021,
      "d": 89.28576041667839,
      "v": 72
    },
    {
      "midi": 67,
      "hit": false,
      "t": 113406.65200000022,
      "d": 68.68135416666337,
      "v": 62
    },
    {
      "midi": 62,
      "hit": false,
      "t": 113406.65200000022,
      "d": 78.9835572916636,
      "v": 60
    },
    {
      "midi": 51,
      "hit": false,
      "t": 113406.65200000022,
      "d": 82.41762500000186,
      "v": 93
    },
    {
      "midi": 70,
      "hit": false,
      "t": 113406.65200000022,
      "d": 82.41762500000186,
      "v": 68
    },
    {
      "midi": 62,
      "hit": false,
      "t": 113736.32250000023,
      "d": 573.4893072916748,
      "v": 80
    },
    {
      "midi": 51,
      "hit": false,
      "t": 113736.32250000023,
      "d": 590.659645833337,
      "v": 98
    },
    {
      "midi": 67,
      "hit": false,
      "t": 113736.32250000023,
      "d": 590.659645833337,
      "v": 93
    },
    {
      "midi": 70,
      "hit": false,
      "t": 113736.32250000023,
      "d": 594.0937135416752,
      "v": 89
    },
    {
      "midi": 67,
      "hit": false,
      "t": 114395.66350000024,
      "d": 58.379151041663135,
      "v": 80
    },
    {
      "midi": 51,
      "hit": false,
      "t": 114395.66350000024,
      "d": 68.68135416666337,
      "v": 80
    },
    {
      "midi": 62,
      "hit": false,
      "t": 114395.66350000024,
      "d": 82.41762500000186,
      "v": 68
    },
    {
      "midi": 70,
      "hit": false,
      "t": 114395.66350000024,
      "d": 96.15389583334036,
      "v": 80
    },
    {
      "midi": 67,
      "hit": false,
      "t": 115055.00450000024,
      "d": 72.11542187500163,
      "v": 72
    },
    {
      "midi": 70,
      "hit": false,
      "t": 115055.00450000024,
      "d": 82.41762500000186,
      "v": 80
    },
    {
      "midi": 62,
      "hit": false,
      "t": 115055.00450000024,
      "d": 89.28576041666383,
      "v": 64
    },
    {
      "midi": 51,
      "hit": false,
      "t": 115055.00450000024,
      "d": 96.1538958333258,
      "v": 89
    },
    {
      "midi": 65,
      "hit": false,
      "t": 115384.67500000024,
      "d": 75.54948958333989,
      "v": 72
    },
    {
      "midi": 50,
      "hit": false,
      "t": 115384.67500000024,
      "d": 78.98355729167815,
      "v": 89
    },
    {
      "midi": 60,
      "hit": false,
      "t": 115384.67500000024,
      "d": 78.98355729167815,
      "v": 72
    },
    {
      "midi": 69,
      "hit": false,
      "t": 115384.67500000024,
      "d": 96.15389583334036,
      "v": 76
    },
    {
      "midi": 50,
      "hit": false,
      "t": 115714.34550000024,
      "d": 34.34067708333896,
      "v": 46
    },
    {
      "midi": 65,
      "hit": false,
      "t": 115714.34550000024,
      "d": 61.8132187500014,
      "v": 57
    },
    {
      "midi": 60,
      "hit": false,
      "t": 115714.34550000024,
      "d": 65.24728645833966,
      "v": 44
    },
    {
      "midi": 69,
      "hit": false,
      "t": 115714.34550000024,
      "d": 68.68135416667792,
      "v": 62
    },
    {
      "midi": 50,
      "hit": false,
      "t": 116044.01600000025,
      "d": 82.41762500000186,
      "v": 72
    },
    {
      "midi": 60,
      "hit": false,
      "t": 116044.01600000025,
      "d": 89.28576041666383,
      "v": 59
    },
    {
      "midi": 65,
      "hit": false,
      "t": 116044.01600000025,
      "d": 96.1538958333258,
      "v": 76
    },
    {
      "midi": 69,
      "hit": false,
      "t": 116044.01600000025,
      "d": 103.02203124998778,
      "v": 76
    },
    {
      "midi": 60,
      "hit": false,
      "t": 116373.68650000024,
      "d": 453.2969374999957,
      "v": 80
    },
    {
      "midi": 65,
      "hit": false,
      "t": 116373.68650000024,
      "d": 463.5991406249959,
      "v": 89
    },
    {
      "midi": 69,
      "hit": false,
      "t": 116373.68650000024,
      "d": 463.5991406249959,
      "v": 93
    },
    {
      "midi": 50,
      "hit": false,
      "t": 116373.68650000024,
      "d": 494.5057499999966,
      "v": 62
    },
    {
      "midi": 50,
      "hit": false,
      "t": 117033.02750000024,
      "d": 508.24202083334967,
      "v": 85
    },
    {
      "midi": 60,
      "hit": false,
      "t": 117033.02750000024,
      "d": 542.5826979166886,
      "v": 76
    },
    {
      "midi": 65,
      "hit": false,
      "t": 117033.02750000024,
      "d": 552.8849010416889,
      "v": 76
    },
    {
      "midi": 69,
      "hit": false,
      "t": 117033.02750000024,
      "d": 559.7530364583508,
      "v": 89
    },
    {
      "midi": 65,
      "hit": false,
      "t": 117692.36850000026,
      "d": 72.11542187500163,
      "v": 80
    },
    {
      "midi": 67,
      "hit": false,
      "t": 117692.36850000026,
      "d": 72.11542187500163,
      "v": 80
    },
    {
      "midi": 69,
      "hit": false,
      "t": 117692.36850000026,
      "d": 75.54948958333989,
      "v": 80
    },
    {
      "midi": 50,
      "hit": false,
      "t": 117692.36850000026,
      "d": 103.02203125000233,
      "v": 85
    },
    {
      "midi": 60,
      "hit": false,
      "t": 117692.36850000026,
      "d": 103.02203125000233,
      "v": 89
    },
    {
      "midi": 65,
      "hit": false,
      "t": 118022.03900000027,
      "d": 82.41762500000186,
      "v": 72
    },
    {
      "midi": 67,
      "hit": false,
      "t": 118022.03900000027,
      "d": 82.41762500000186,
      "v": 76
    },
    {
      "midi": 63,
      "hit": false,
      "t": 118022.03900000027,
      "d": 85.85169270834012,
      "v": 68
    },
    {
      "midi": 58,
      "hit": false,
      "t": 118022.03900000027,
      "d": 92.7198281250021,
      "v": 72
    },
    {
      "midi": 48,
      "hit": false,
      "t": 118022.03900000027,
      "d": 96.15389583334036,
      "v": 93
    },
    {
      "midi": 48,
      "hit": false,
      "t": 118351.70950000027,
      "d": 75.54948958333989,
      "v": 76
    },
    {
      "midi": 58,
      "hit": false,
      "t": 118351.70950000027,
      "d": 92.7198281250021,
      "v": 59
    },
    {
      "midi": 63,
      "hit": false,
      "t": 118351.70950000027,
      "d": 96.15389583334036,
      "v": 68
    },
    {
      "midi": 67,
      "hit": false,
      "t": 118351.70950000027,
      "d": 103.02203125000233,
      "v": 76
    },
    {
      "midi": 48,
      "hit": false,
      "t": 118681.38000000028,
      "d": 61.8132187500014,
      "v": 57
    },
    {
      "midi": 63,
      "hit": false,
      "t": 118681.38000000028,
      "d": 68.68135416666337,
      "v": 62
    },
    {
      "midi": 58,
      "hit": false,
      "t": 118681.38000000028,
      "d": 75.54948958332534,
      "v": 56
    },
    {
      "midi": 67,
      "hit": false,
      "t": 118681.38000000028,
      "d": 85.85169270832557,
      "v": 76
    },
    {
      "midi": 58,
      "hit": false,
      "t": 119011.05050000027,
      "d": 494.5057499999966,
      "v": 85
    },
    {
      "midi": 63,
      "hit": false,
      "t": 119011.05050000027,
      "d": 494.5057499999966,
      "v": 89
    },
    {
      "midi": 67,
      "hit": false,
      "t": 119011.05050000027,
      "d": 501.3738854166586,
      "v": 89
    },
    {
      "midi": 48,
      "hit": false,
      "t": 119011.05050000027,
      "d": 508.24202083332057,
      "v": 76
    },
    {
      "midi": 48,
      "hit": false,
      "t": 119670.39150000026,
      "d": 130.49457291666477,
      "v": 89
    },
    {
      "midi": 63,
      "hit": false,
      "t": 119670.39150000026,
      "d": 130.49457291666477,
      "v": 85
    },
    {
      "midi": 67,
      "hit": false,
      "t": 119670.39150000026,
      "d": 147.66491145832697,
      "v": 89
    },
    {
      "midi": 58,
      "hit": false,
      "t": 119670.39150000026,
      "d": 157.9671145833272,
      "v": 76
    },
    {
      "midi": 63,
      "hit": false,
      "t": 120329.73250000026,
      "d": 78.9835572916636,
      "v": 68
    },
    {
      "midi": 67,
      "hit": false,
      "t": 120329.73250000026,
      "d": 103.02203125000233,
      "v": 80
    },
    {
      "midi": 48,
      "hit": false,
      "t": 120329.73250000026,
      "d": 106.45609895834059,
      "v": 80
    },
    {
      "midi": 58,
      "hit": false,
      "t": 120329.73250000026,
      "d": 113.32423437500256,
      "v": 64
    },
    {
      "midi": 62,
      "hit": false,
      "t": 120659.40300000027,
      "d": 92.7198281250021,
      "v": 76
    },
    {
      "midi": 46,
      "hit": false,
      "t": 120659.40300000027,
      "d": 99.58796354166407,
      "v": 93
    },
    {
      "midi": 57,
      "hit": false,
      "t": 120659.40300000027,
      "d": 116.75830208332627,
      "v": 72
    },
    {
      "midi": 65,
      "hit": false,
      "t": 120659.40300000027,
      "d": 127.0605052083265,
      "v": 76
    },
    {
      "midi": 62,
      "hit": false,
      "t": 120989.07350000026,
      "d": 82.41762500000186,
      "v": 72
    },
    {
      "midi": 46,
      "hit": false,
      "t": 120989.07350000026,
      "d": 85.85169270834012,
      "v": 72
    },
    {
      "midi": 57,
      "hit": false,
      "t": 120989.07350000026,
      "d": 96.15389583334036,
      "v": 60
    },
    {
      "midi": 65,
      "hit": false,
      "t": 120989.07350000026,
      "d": 113.32423437500256,
      "v": 76
    },
    {
      "midi": 62,
      "hit": false,
      "t": 121318.74400000027,
      "d": 82.41762500000186,
      "v": 72
    },
    {
      "midi": 57,
      "hit": false,
      "t": 121318.74400000027,
      "d": 89.28576041666383,
      "v": 62
    },
    {
      "midi": 46,
      "hit": false,
      "t": 121318.74400000027,
      "d": 92.7198281250021,
      "v": 76
    },
    {
      "midi": 65,
      "hit": false,
      "t": 121318.74400000027,
      "d": 113.32423437500256,
      "v": 76
    },
    {
      "midi": 62,
      "hit": false,
      "t": 121648.41450000028,
      "d": 521.9782916666591,
      "v": 93
    },
    {
      "midi": 57,
      "hit": false,
      "t": 121648.41450000028,
      "d": 528.846427083321,
      "v": 80
    },
    {
      "midi": 65,
      "hit": false,
      "t": 121648.41450000028,
      "d": 539.1486302083213,
      "v": 93
    },
    {
      "midi": 46,
      "hit": false,
      "t": 121648.41450000028,
      "d": 556.3189687499835,
      "v": 98
    },
    {
      "midi": 62,
      "hit": false,
      "t": 122307.75550000026,
      "d": 65.24728645833966,
      "v": 89
    },
    {
      "midi": 57,
      "hit": false,
      "t": 122307.75550000026,
      "d": 82.41762500000186,
      "v": 85
    },
    {
      "midi": 46,
      "hit": false,
      "t": 122307.75550000026,
      "d": 96.15389583334036,
      "v": 89
    },
    {
      "midi": 65,
      "hit": false,
      "t": 122307.75550000026,
      "d": 99.58796354167862,
      "v": 89
    },
    {
      "midi": 62,
      "hit": false,
      "t": 122637.42600000027,
      "d": 89.28576041666383,
      "v": 89
    },
    {
      "midi": 57,
      "hit": false,
      "t": 122637.42600000027,
      "d": 96.1538958333258,
      "v": 76
    },
    {
      "midi": 46,
      "hit": false,
      "t": 122637.42600000027,
      "d": 109.8901666666643,
      "v": 85
    },
    {
      "midi": 65,
      "hit": false,
      "t": 122637.42600000027,
      "d": 116.75830208332627,
      "v": 89
    },
    {
      "midi": 62,
      "hit": false,
      "t": 122967.09650000026,
      "d": 103.02203125000233,
      "v": 89
    },
    {
      "midi": 57,
      "hit": false,
      "t": 122967.09650000026,
      "d": 106.45609895834059,
      "v": 76
    },
    {
      "midi": 46,
      "hit": false,
      "t": 122967.09650000026,
      "d": 116.75830208334082,
      "v": 89
    },
    {
      "midi": 65,
      "hit": false,
      "t": 122967.09650000026,
      "d": 137.3627083333413,
      "v": 89
    },
    {
      "midi": 60,
      "hit": false,
      "t": 123296.76700000027,
      "d": 734.8904895833402,
      "v": 80
    },
    {
      "midi": 67,
      "hit": false,
      "t": 123296.76700000027,
      "d": 734.8904895833402,
      "v": 89
    },
    {
      "midi": 63,
      "hit": false,
      "t": 123296.76700000027,
      "d": 741.7586250000022,
      "v": 89
    },
    {
      "midi": 46,
      "hit": false,
      "t": 123296.76700000027,
      "d": 1936.8141875000147,
      "v": 80
    },
    {
      "midi": 56,
      "hit": false,
      "t": 123956.10800000027,
      "d": 178.57152083334222,
      "v": 93
    },
    {
      "midi": 67,
      "hit": false,
      "t": 124285.77850000028,
      "d": 697.115744791663,
      "v": 93
    },
    {
      "midi": 60,
      "hit": false,
      "t": 124285.77850000028,
      "d": 755.4948958333262,
      "v": 85
    },
    {
      "midi": 63,
      "hit": false,
      "t": 124285.77850000028,
      "d": 769.2311666666646,
      "v": 89
    },
    {
      "midi": 56,
      "hit": false,
      "t": 124945.11950000028,
      "d": 243.81880729166733,
      "v": 80
    },
    {
      "midi": 60,
      "hit": false,
      "t": 125274.79000000028,
      "d": 106.45609895834059,
      "v": 80
    },
    {
      "midi": 65,
      "hit": false,
      "t": 125934.13100000028,
      "d": 831.044385416666,
      "v": 89
    },
    {
      "midi": 57,
      "hit": false,
      "t": 125934.13100000028,
      "d": 834.4784531250043,
      "v": 85
    },
    {
      "midi": 62,
      "hit": false,
      "t": 125934.13100000028,
      "d": 834.4784531250043,
      "v": 89
    },
    {
      "midi": 46,
      "hit": false,
      "t": 126923.1425000003,
      "d": 607.8299843749992,
      "v": 80
    },
    {
      "midi": 57,
      "hit": false,
      "t": 126923.1425000003,
      "d": 796.7037083333271,
      "v": 76
    },
    {
      "midi": 65,
      "hit": false,
      "t": 126923.1425000003,
      "d": 837.912520833328,
      "v": 85
    },
    {
      "midi": 62,
      "hit": false,
      "t": 126923.1425000003,
      "d": 865.3850624999905,
      "v": 80
    },
    {
      "midi": 46,
      "hit": false,
      "t": 127582.4835000003,
      "d": 339.97270312499313,
      "v": 93
    },
    {
      "midi": 57,
      "hit": false,
      "t": 127912.15400000029,
      "d": 195.74185937500442,
      "v": 85
    },
    {
      "midi": 62,
      "hit": false,
      "t": 127912.15400000029,
      "d": 195.74185937500442,
      "v": 89
    },
    {
      "midi": 65,
      "hit": false,
      "t": 127912.15400000029,
      "d": 219.78033333334315,
      "v": 93
    },
    {
      "midi": 63,
      "hit": false,
      "t": 128571.4950000003,
      "d": 51.511015625001164,
      "v": 53
    },
    {
      "midi": 68,
      "hit": false,
      "t": 128571.4950000003,
      "d": 85.85169270834012,
      "v": 89
    },
    {
      "midi": 60,
      "hit": false,
      "t": 128571.4950000003,
      "d": 92.7198281250021,
      "v": 85
    },
    {
      "midi": 46,
      "hit": false,
      "t": 128571.4950000003,
      "d": 109.8901666666643,
      "v": 93
    },
    {
      "midi": 68,
      "hit": false,
      "t": 128901.1655000003,
      "d": 274.725416666668,
      "v": 72
    },
    {
      "midi": 63,
      "hit": false,
      "t": 128901.1655000003,
      "d": 288.4616875000065,
      "v": 89
    },
    {
      "midi": 60,
      "hit": false,
      "t": 128901.1655000003,
      "d": 315.93422916666896,
      "v": 76
    },
    {
      "midi": 46,
      "hit": false,
      "t": 128901.1655000003,
      "d": 456.73100520833395,
      "v": 102
    },
    {
      "midi": 46,
      "hit": false,
      "t": 129560.5065000003,
      "d": 570.055239583322,
      "v": 89
    },
    {
      "midi": 58,
      "hit": false,
      "t": 129560.5065000003,
      "d": 748.6267604166496,
      "v": 80
    },
    {
      "midi": 65,
      "hit": false,
      "t": 129560.5065000003,
      "d": 824.1762499999895,
      "v": 93
    },
    {
      "midi": 62,
      "hit": false,
      "t": 129560.5065000003,
      "d": 837.912520833328,
      "v": 89
    },
    {
      "midi": 46,
      "hit": false,
      "t": 130219.84750000028,
      "d": 442.99473437499546,
      "v": 93
    },
    {
      "midi": 62,
      "hit": false,
      "t": 130549.51800000029,
      "d": 99.58796354166407,
      "v": 80
    },
    {
      "midi": 57,
      "hit": false,
      "t": 130549.51800000029,
      "d": 106.45609895832604,
      "v": 89
    },
    {
      "midi": 65,
      "hit": false,
      "t": 130549.51800000029,
      "d": 164.83524999998917,
      "v": 89
    },
    {
      "midi": 46,
      "hit": false,
      "t": 130879.18850000028,
      "d": 147.66491145832697,
      "v": 89
    },
    {
      "midi": 46,
      "hit": false,
      "t": 131208.8590000003,
      "d": 594.0937135416607,
      "v": 93
    },
    {
      "midi": 63,
      "hit": false,
      "t": 131538.5295000003,
      "d": 250.6869427083293,
      "v": 102
    },
    {
      "midi": 68,
      "hit": false,
      "t": 131538.5295000003,
      "d": 254.121010416653,
      "v": 98
    },
    {
      "midi": 60,
      "hit": false,
      "t": 131538.5295000003,
      "d": 257.5550781249767,
      "v": 89
    },
    {
      "midi": 57,
      "hit": false,
      "t": 132197.87050000028,
      "d": 487.63761458333465,
      "v": 80
    },
    {
      "midi": 65,
      "hit": false,
      "t": 132197.87050000028,
      "d": 511.6760885416588,
      "v": 89
    },
    {
      "midi": 62,
      "hit": false,
      "t": 132197.87050000028,
      "d": 521.9782916666591,
      "v": 93
    },
    {
      "midi": 46,
      "hit": false,
      "t": 132197.87050000028,
      "d": 576.9233749999839,
      "v": 98
    },
    {
      "midi": 65,
      "hit": false,
      "t": 132857.21150000027,
      "d": 78.98355729167815,
      "v": 89
    },
    {
      "midi": 57,
      "hit": false,
      "t": 132857.21150000027,
      "d": 130.49457291667932,
      "v": 93
    },
    {
      "midi": 62,
      "hit": false,
      "t": 133186.88200000027,
      "d": 72.11542187500163,
      "v": 102
    },
    {
      "midi": 57,
      "hit": false,
      "t": 133186.88200000027,
      "d": 89.28576041667839,
      "v": 89
    },
    {
      "midi": 46,
      "hit": false,
      "t": 133186.88200000027,
      "d": 123.6264375000028,
      "v": 102
    },
    {
      "midi": 65,
      "hit": false,
      "t": 133186.88200000027,
      "d": 123.6264375000028,
      "v": 107
    },
    {
      "midi": 43,
      "hit": false,
      "t": 133846.2230000003,
      "d": 521.9782916666591,
      "v": 107
    },
    {
      "midi": 70,
      "hit": false,
      "t": 134175.8935000003,
      "d": 161.40118229168002,
      "v": 107
    },
    {
      "midi": 74,
      "hit": false,
      "t": 134175.8935000003,
      "d": 161.40118229168002,
      "v": 113
    },
    {
      "midi": 65,
      "hit": false,
      "t": 134175.8935000003,
      "d": 164.83525000000373,
      "v": 107
    },
    {
      "midi": 55,
      "hit": false,
      "t": 134175.8935000003,
      "d": 178.57152083332767,
      "v": 98
    },
    {
      "midi": 72,
      "hit": false,
      "t": 134835.23450000028,
      "d": 559.7530364583363,
      "v": 107
    },
    {
      "midi": 69,
      "hit": false,
      "t": 134835.23450000028,
      "d": 580.3574427083367,
      "v": 107
    },
    {
      "midi": 64,
      "hit": false,
      "t": 134835.23450000028,
      "d": 583.7915104166605,
      "v": 98
    },
    {
      "midi": 53,
      "hit": false,
      "t": 134835.23450000028,
      "d": 1414.8358958333556,
      "v": 102
    },
    {
      "midi": 64,
      "hit": false,
      "t": 135494.57550000027,
      "d": 164.83525000000373,
      "v": 62
    },
    {
      "midi": 69,
      "hit": false,
      "t": 135494.57550000027,
      "d": 164.83525000000373,
      "v": 80
    },
    {
      "midi": 72,
      "hit": false,
      "t": 135494.57550000027,
      "d": 164.83525000000373,
      "v": 89
    },
    {
      "midi": 69,
      "hit": false,
      "t": 136153.91650000028,
      "d": 89.28576041667839,
      "v": 113
    },
    {
      "midi": 64,
      "hit": false,
      "t": 136153.91650000028,
      "d": 96.15389583335491,
      "v": 98
    },
    {
      "midi": 72,
      "hit": false,
      "t": 136153.91650000028,
      "d": 103.02203125003143,
      "v": 113
    },
    {
      "midi": 43,
      "hit": false,
      "t": 136483.58700000032,
      "d": 521.9782916666591,
      "v": 107
    },
    {
      "midi": 70,
      "hit": false,
      "t": 136813.25750000033,
      "d": 161.40118229168002,
      "v": 107
    },
    {
      "midi": 74,
      "hit": false,
      "t": 136813.25750000033,
      "d": 161.40118229168002,
      "v": 113
    },
    {
      "midi": 65,
      "hit": false,
      "t": 136813.25750000033,
      "d": 164.83525000000373,
      "v": 107
    },
    {
      "midi": 55,
      "hit": false,
      "t": 136813.25750000033,
      "d": 178.57152083332767,
      "v": 98
    },
    {
      "midi": 72,
      "hit": false,
      "t": 137472.5985000003,
      "d": 559.7530364583363,
      "v": 107
    },
    {
      "midi": 69,
      "hit": false,
      "t": 137472.5985000003,
      "d": 580.3574427083367,
      "v": 107
    },
    {
      "midi": 64,
      "hit": false,
      "t": 137472.5985000003,
      "d": 583.7915104166605,
      "v": 98
    },
    {
      "midi": 53,
      "hit": false,
      "t": 137472.5985000003,
      "d": 1414.8358958333556,
      "v": 102
    },
    {
      "midi": 64,
      "hit": false,
      "t": 138131.9395000003,
      "d": 164.83525000000373,
      "v": 62
    },
    {
      "midi": 69,
      "hit": false,
      "t": 138131.9395000003,
      "d": 164.83525000000373,
      "v": 80
    },
    {
      "midi": 72,
      "hit": false,
      "t": 138131.9395000003,
      "d": 164.83525000000373,
      "v": 89
    },
    {
      "midi": 69,
      "hit": false,
      "t": 138791.2805000003,
      "d": 89.28576041667839,
      "v": 113
    },
    {
      "midi": 64,
      "hit": false,
      "t": 138791.2805000003,
      "d": 96.15389583335491,
      "v": 98
    },
    {
      "midi": 72,
      "hit": false,
      "t": 138791.2805000003,
      "d": 103.02203125003143,
      "v": 113
    },
    {
      "midi": 48,
      "hit": false,
      "t": 139120.95100000035,
      "d": 566.6211718749837,
      "v": 107
    },
    {
      "midi": 63,
      "hit": false,
      "t": 139780.29200000034,
      "d": 82.41762500000186,
      "v": 107
    },
    {
      "midi": 58,
      "hit": false,
      "t": 139780.29200000034,
      "d": 89.28576041667839,
      "v": 98
    },
    {
      "midi": 67,
      "hit": false,
      "t": 139780.29200000034,
      "d": 109.89016666667885,
      "v": 107
    },
    {
      "midi": 57,
      "hit": false,
      "t": 140109.96250000034,
      "d": 659.3409999999858,
      "v": 89
    },
    {
      "midi": 62,
      "hit": false,
      "t": 140109.96250000034,
      "d": 693.6816770833102,
      "v": 98
    },
    {
      "midi": 65,
      "hit": false,
      "t": 140109.96250000034,
      "d": 693.6816770833102,
      "v": 89
    },
    {
      "midi": 46,
      "hit": false,
      "t": 140109.96250000034,
      "d": 1456.0447083333274,
      "v": 98
    },
    {
      "midi": 53,
      "hit": false,
      "t": 140769.30350000033,
      "d": 233.51660416665254,
      "v": 76
    },
    {
      "midi": 57,
      "hit": false,
      "t": 141098.9740000003,
      "d": 254.1210104166821,
      "v": 102
    },
    {
      "midi": 62,
      "hit": false,
      "t": 141263.8092500003,
      "d": 133.92864062500303,
      "v": 102
    },
    {
      "midi": 65,
      "hit": false,
      "t": 141428.64450000032,
      "d": 99.58796354167862,
      "v": 72
    },
    {
      "midi": 53,
      "hit": false,
      "t": 141428.64450000032,
      "d": 171.70338541670935,
      "v": 89
    },
    {
      "midi": 62,
      "hit": false,
      "t": 141593.47975000035,
      "d": 99.58796354167862,
      "v": 89
    },
    {
      "midi": 48,
      "hit": false,
      "t": 141758.31500000035,
      "d": 422.39032812503865,
      "v": 113
    },
    {
      "midi": 58,
      "hit": false,
      "t": 142087.98550000036,
      "d": 68.68135416667792,
      "v": 107
    },
    {
      "midi": 67,
      "hit": false,
      "t": 142087.98550000036,
      "d": 75.54948958335444,
      "v": 107
    },
    {
      "midi": 63,
      "hit": false,
      "t": 142087.98550000036,
      "d": 106.45609895835514,
      "v": 113
    },
    {
      "midi": 57,
      "hit": false,
      "t": 142747.32650000037,
      "d": 649.0387968750147,
      "v": 93
    },
    {
      "midi": 62,
      "hit": false,
      "t": 142747.32650000037,
      "d": 772.6652343750175,
      "v": 102
    },
    {
      "midi": 46,
      "hit": false,
      "t": 142747.32650000037,
      "d": 810.4399791666947,
      "v": 93
    },
    {
      "midi": 65,
      "hit": false,
      "t": 142747.32650000037,
      "d": 934.0664166666975,
      "v": 98
    },
    {
      "midi": 53,
      "hit": false,
      "t": 143406.6675000004,
      "d": 123.6264375000028,
      "v": 93
    },
    {
      "midi": 57,
      "hit": false,
      "t": 143571.5027500004,
      "d": 157.9671145833563,
      "v": 89
    },
    {
      "midi": 62,
      "hit": false,
      "t": 143736.33800000043,
      "d": 120.19236979167908,
      "v": 107
    },
    {
      "midi": 50,
      "hit": false,
      "t": 144395.67900000044,
      "d": 511.67608854168793,
      "v": 107
    },
    {
      "midi": 60,
      "hit": false,
      "t": 144725.34950000045,
      "d": 123.6264375000028,
      "v": 113
    },
    {
      "midi": 65,
      "hit": false,
      "t": 144725.34950000045,
      "d": 123.6264375000028,
      "v": 113
    },
    {
      "midi": 69,
      "hit": false,
      "t": 144725.34950000045,
      "d": 123.6264375000028,
      "v": 113
    },
    {
      "midi": 59,
      "hit": false,
      "t": 145384.69050000046,
      "d": 508.2420208333351,
      "v": 93
    },
    {
      "midi": 67,
      "hit": false,
      "t": 145384.69050000046,
      "d": 556.3189687500126,
      "v": 93
    },
    {
      "midi": 64,
      "hit": false,
      "t": 145384.69050000046,
      "d": 604.39591666669,
      "v": 93
    },
    {
      "midi": 55,
      "hit": false,
      "t": 145384.69050000046,
      "d": 710.8520156250161,
      "v": 89
    },
    {
      "midi": 48,
      "hit": false,
      "t": 145384.69050000046,
      "d": 903.1598072916968,
      "v": 93
    },
    {
      "midi": 67,
      "hit": false,
      "t": 146044.03150000048,
      "d": 195.74185937500442,
      "v": 48
    },
    {
      "midi": 59,
      "hit": false,
      "t": 146044.03150000048,
      "d": 305.6320260416833,
      "v": 89
    },
    {
      "midi": 55,
      "hit": false,
      "t": 146208.86675000048,
      "d": 164.83525000000373,
      "v": 98
    },
    {
      "midi": 62,
      "hit": false,
      "t": 146373.70200000048,
      "d": 161.40118229168002,
      "v": 93
    },
    {
      "midi": 64,
      "hit": false,
      "t": 146538.5372500005,
      "d": 161.40118229168002,
      "v": 72
    },
    {
      "midi": 50,
      "hit": false,
      "t": 147033.0430000005,
      "d": 449.86286979165743,
      "v": 107
    },
    {
      "midi": 65,
      "hit": false,
      "t": 147362.7135000005,
      "d": 89.28576041667839,
      "v": 113
    },
    {
      "midi": 60,
      "hit": false,
      "t": 147362.7135000005,
      "d": 92.7198281250021,
      "v": 107
    },
    {
      "midi": 69,
      "hit": false,
      "t": 147362.7135000005,
      "d": 96.1538958333258,
      "v": 113
    },
    {
      "midi": 67,
      "hit": false,
      "t": 148022.0545000005,
      "d": 635.3025260416907,
      "v": 102
    },
    {
      "midi": 59,
      "hit": false,
      "t": 148022.0545000005,
      "d": 659.3410000000149,
      "v": 89
    },
    {
      "midi": 64,
      "hit": false,
      "t": 148022.0545000005,
      "d": 728.0223541666928,
      "v": 98
    },
    {
      "midi": 48,
      "hit": false,
      "t": 148022.0545000005,
      "d": 772.6652343750175,
      "v": 89
    },
    {
      "midi": 55,
      "hit": false,
      "t": 148022.0545000005,
      "d": 782.9674375000177,
      "v": 76
    },
    {
      "midi": 64,
      "hit": false,
      "t": 149011.06600000052,
      "d": 123.6264375000028,
      "v": 89
    },
    {
      "midi": 59,
      "hit": false,
      "t": 149011.06600000052,
      "d": 127.0605052083265,
      "v": 98
    },
    {
      "midi": 67,
      "hit": false,
      "t": 149011.06600000052,
      "d": 164.83525000000373,
      "v": 98
    },
    {
      "midi": 48,
      "hit": false,
      "t": 149011.06600000052,
      "d": 178.57152083332767,
      "v": 98
    },
    {
      "midi": 55,
      "hit": false,
      "t": 149011.06600000052,
      "d": 185.4396562500042,
      "v": 72
    },
    {
      "midi": 62,
      "hit": false,
      "t": 149670.40700000053,
      "d": 127.0605052083265,
      "v": 93
    },
    {
      "midi": 58,
      "hit": false,
      "t": 149670.40700000053,
      "d": 140.79677604165045,
      "v": 93
    },
    {
      "midi": 55,
      "hit": false,
      "t": 149670.40700000053,
      "d": 151.09897916665068,
      "v": 93
    },
    {
      "midi": 74,
      "hit": false,
      "t": 149670.40700000053,
      "d": 178.57152083332767,
      "v": 89
    },
    {
      "midi": 70,
      "hit": false,
      "t": 149670.40700000053,
      "d": 192.3077916666516,
      "v": 89
    },
    {
      "midi": 65,
      "hit": false,
      "t": 149670.40700000053,
      "d": 206.04406249997555,
      "v": 85
    },
    {
      "midi": 60,
      "hit": false,
      "t": 150659.41850000052,
      "d": 350.2749062500079,
      "v": 98
    },
    {
      "midi": 53,
      "hit": false,
      "t": 150659.41850000052,
      "d": 370.8793125000084,
      "v": 98
    },
    {
      "midi": 69,
      "hit": false,
      "t": 150659.41850000052,
      "d": 370.8793125000084,
      "v": 102
    },
    {
      "midi": 72,
      "hit": false,
      "t": 150659.41850000052,
      "d": 384.6155833333323,
      "v": 102
    },
    {
      "midi": 64,
      "hit": false,
      "t": 150659.41850000052,
      "d": 412.0881250000093,
      "v": 85
    },
    {
      "midi": 55,
      "hit": false,
      "t": 151648.43000000055,
      "d": 360.57710937500815,
      "v": 102
    },
    {
      "midi": 67,
      "hit": false,
      "t": 151648.43000000055,
      "d": 377.7474479166849,
      "v": 102
    },
    {
      "midi": 48,
      "hit": false,
      "t": 151648.43000000055,
      "d": 388.04965104168514,
      "v": 107
    },
    {
      "midi": 63,
      "hit": false,
      "t": 151648.43000000055,
      "d": 388.04965104168514,
      "v": 102
    },
    {
      "midi": 58,
      "hit": false,
      "t": 151648.43000000055,
      "d": 412.0881250000093,
      "v": 89
    },
    {
      "midi": 53,
      "hit": false,
      "t": 152637.44150000057,
      "d": 645.604729166691,
      "v": 93
    },
    {
      "midi": 46,
      "hit": false,
      "t": 152637.44150000057,
      "d": 673.077270833368,
      "v": 93
    },
    {
      "midi": 65,
      "hit": false,
      "t": 152637.44150000057,
      "d": 803.5718437500473,
      "v": 98
    },
    {
      "midi": 57,
      "hit": false,
      "t": 152637.44150000057,
      "d": 810.4399791667238,
      "v": 98
    },
    {
      "midi": 62,
      "hit": false,
      "t": 152637.44150000057,
      "d": 813.8740468750475,
      "v": 98
    },
    {
      "midi": 57,
      "hit": false,
      "t": 153626.45300000062,
      "d": 295.32982291665394,
      "v": 80
    },
    {
      "midi": 62,
      "hit": false,
      "t": 153626.45300000062,
      "d": 302.19795833333046,
      "v": 89
    },
    {
      "midi": 65,
      "hit": false,
      "t": 153626.45300000062,
      "d": 302.19795833333046,
      "v": 89
    },
    {
      "midi": 46,
      "hit": false,
      "t": 153956.12350000063,
      "d": 123.6264375000028,
      "v": 98
    },
    {
      "midi": 58,
      "hit": false,
      "t": 154285.79400000063,
      "d": 532.2804947916593,
      "v": 102
    },
    {
      "midi": 67,
      "hit": false,
      "t": 154285.79400000063,
      "d": 535.714562499983,
      "v": 107
    },
    {
      "midi": 62,
      "hit": false,
      "t": 154285.79400000063,
      "d": 559.7530364583072,
      "v": 107
    },
    {
      "midi": 48,
      "hit": false,
      "t": 154285.79400000063,
      "d": 896.2916718749912,
      "v": 107
    },
    {
      "midi": 58,
      "hit": false,
      "t": 154945.13500000062,
      "d": 460.16507291665766,
      "v": 102
    },
    {
      "midi": 67,
      "hit": false,
      "t": 154945.13500000062,
      "d": 480.76947916665813,
      "v": 107
    },
    {
      "midi": 62,
      "hit": false,
      "t": 154945.13500000062,
      "d": 494.5057499999821,
      "v": 107
    },
    {
      "midi": 48,
      "hit": false,
      "t": 155439.6407500006,
      "d": 521.9782916667173,
      "v": 107
    },
    {
      "midi": 58,
      "hit": false,
      "t": 155604.4760000006,
      "d": 89.28576041667839,
      "v": 85
    },
    {
      "midi": 62,
      "hit": false,
      "t": 155604.4760000006,
      "d": 96.15389583335491,
      "v": 93
    },
    {
      "midi": 67,
      "hit": false,
      "t": 155604.4760000006,
      "d": 116.75830208335537,
      "v": 89
    },
    {
      "midi": 58,
      "hit": false,
      "t": 155934.14650000064,
      "d": 89.28576041667839,
      "v": 102
    },
    {
      "midi": 62,
      "hit": false,
      "t": 155934.14650000064,
      "d": 96.15389583335491,
      "v": 113
    },
    {
      "midi": 67,
      "hit": false,
      "t": 155934.14650000064,
      "d": 106.45609895835514,
      "v": 102
    },
    {
      "midi": 48,
      "hit": false,
      "t": 156263.81700000065,
      "d": 82.41762500000186,
      "v": 102
    },
    {
      "midi": 58,
      "hit": false,
      "t": 156428.65225000065,
      "d": 85.85169270832557,
      "v": 89
    },
    {
      "midi": 62,
      "hit": false,
      "t": 156428.65225000065,
      "d": 130.4945729166502,
      "v": 102
    },
    {
      "midi": 67,
      "hit": false,
      "t": 156428.65225000065,
      "d": 133.92864062497392,
      "v": 98
    },
    {
      "midi": 67,
      "hit": false,
      "t": 156923.1580000006,
      "d": 453.29693750001024,
      "v": 93
    },
    {
      "midi": 58,
      "hit": false,
      "t": 156923.1580000006,
      "d": 463.5991406250105,
      "v": 93
    },
    {
      "midi": 64,
      "hit": false,
      "t": 156923.1580000006,
      "d": 480.76947916668723,
      "v": 93
    },
    {
      "midi": 48,
      "hit": false,
      "t": 156923.1580000006,
      "d": 614.6981197916903,
      "v": 102
    },
    {
      "midi": 58,
      "hit": false,
      "t": 157582.49900000062,
      "d": 68.68135416667792,
      "v": 76
    },
    {
      "midi": 64,
      "hit": false,
      "t": 157582.49900000062,
      "d": 82.41762500000186,
      "v": 93
    },
    {
      "midi": 67,
      "hit": false,
      "t": 157582.49900000062,
      "d": 99.58796354167862,
      "v": 98
    },
    {
      "midi": 58,
      "hit": false,
      "t": 157912.16950000063,
      "d": 44.64288020832464,
      "v": 62
    },
    {
      "midi": 64,
      "hit": false,
      "t": 157912.16950000063,
      "d": 54.945083333324874,
      "v": 89
    },
    {
      "midi": 67,
      "hit": false,
      "t": 157912.16950000063,
      "d": 72.11542187500163,
      "v": 89
    },
    {
      "midi": 58,
      "hit": false,
      "t": 158077.00475000063,
      "d": 85.85169270832557,
      "v": 89
    },
    {
      "midi": 64,
      "hit": false,
      "t": 158077.00475000063,
      "d": 89.28576041664928,
      "v": 93
    },
    {
      "midi": 67,
      "hit": false,
      "t": 158077.00475000063,
      "d": 109.89016666664975,
      "v": 93
    },
    {
      "midi": 48,
      "hit": false,
      "t": 158241.8400000006,
      "d": 89.28576041667839,
      "v": 93
    },
    {
      "midi": 64,
      "hit": false,
      "t": 158406.67525000064,
      "d": 195.74185937500442,
      "v": 107
    },
    {
      "midi": 58,
      "hit": false,
      "t": 158406.67525000064,
      "d": 199.17592708332813,
      "v": 107
    },
    {
      "midi": 67,
      "hit": false,
      "t": 158406.67525000064,
      "d": 209.47813020832837,
      "v": 107
    },
    {
      "midi": 48,
      "hit": false,
      "t": 158571.51050000064,
      "d": 212.91219791668118,
      "v": 102
    },
    {
      "midi": 64,
      "hit": false,
      "t": 158736.34575000065,
      "d": 82.41762500000186,
      "v": 76
    },
    {
      "midi": 58,
      "hit": false,
      "t": 158736.34575000065,
      "d": 92.7198281250021,
      "v": 85
    },
    {
      "midi": 67,
      "hit": false,
      "t": 158736.34575000065,
      "d": 92.7198281250021,
      "v": 80
    },
    {
      "midi": 58,
      "hit": false,
      "t": 158901.18100000065,
      "d": 133.92864062500303,
      "v": 85
    },
    {
      "midi": 64,
      "hit": false,
      "t": 158901.18100000065,
      "d": 151.09897916667978,
      "v": 102
    },
    {
      "midi": 67,
      "hit": false,
      "t": 158901.18100000065,
      "d": 151.09897916667978,
      "v": 102
    },
    {
      "midi": 48,
      "hit": false,
      "t": 159066.01625000066,
      "d": 123.6264375000028,
      "v": 107
    },
    {
      "midi": 58,
      "hit": false,
      "t": 159230.85150000066,
      "d": 85.85169270832557,
      "v": 89
    },
    {
      "midi": 64,
      "hit": false,
      "t": 159230.85150000066,
      "d": 113.32423437500256,
      "v": 102
    },
    {
      "midi": 67,
      "hit": false,
      "t": 159230.85150000066,
      "d": 130.49457291667932,
      "v": 107
    },
    {
      "midi": 59,
      "hit": false,
      "t": 159560.52200000067,
      "d": 260.98914583332953,
      "v": 93
    },
    {
      "midi": 49,
      "hit": false,
      "t": 159560.52200000067,
      "d": 360.57710937500815,
      "v": 102
    },
    {
      "midi": 65,
      "hit": false,
      "t": 159560.52200000067,
      "d": 425.82439583333326,
      "v": 89
    },
    {
      "midi": 68,
      "hit": false,
      "t": 159560.52200000067,
      "d": 425.82439583333326,
      "v": 93
    },
    {
      "midi": 59,
      "hit": false,
      "t": 159890.19250000067,
      "d": 92.7198281250021,
      "v": 80
    },
    {
      "midi": 68,
      "hit": false,
      "t": 160055.02775000068,
      "d": 54.945083333324874,
      "v": 72
    },
    {
      "midi": 59,
      "hit": false,
      "t": 160055.02775000068,
      "d": 68.68135416664882,
      "v": 76
    },
    {
      "midi": 65,
      "hit": false,
      "t": 160055.02775000068,
      "d": 68.68135416664882,
      "v": 76
    },
    {
      "midi": 59,
      "hit": false,
      "t": 160219.86300000065,
      "d": 113.32423437500256,
      "v": 93
    },
    {
      "midi": 65,
      "hit": false,
      "t": 160219.86300000065,
      "d": 127.0605052083265,
      "v": 98
    },
    {
      "midi": 68,
      "hit": false,
      "t": 160219.86300000065,
      "d": 137.36270833332674,
      "v": 107
    },
    {
      "midi": 49,
      "hit": false,
      "t": 160549.53350000066,
      "d": 96.1538958333258,
      "v": 98
    },
    {
      "midi": 59,
      "hit": false,
      "t": 160714.36875000066,
      "d": 127.0605052083265,
      "v": 93
    },
    {
      "midi": 59,
      "hit": false,
      "t": 161044.03925000067,
      "d": 75.54948958332534,
      "v": 98
    },
    {
      "midi": 65,
      "hit": false,
      "t": 161044.03925000067,
      "d": 113.32423437500256,
      "v": 98
    },
    {
      "midi": 68,
      "hit": false,
      "t": 161044.03925000067,
      "d": 123.6264375000028,
      "v": 107
    },
    {
      "midi": 49,
      "hit": false,
      "t": 161373.70975000068,
      "d": 96.1538958333258,
      "v": 107
    },
    {
      "midi": 73,
      "hit": false,
      "t": 161538.54500000068,
      "d": 123.6264375000028,
      "v": 107
    },
    {
      "midi": 73,
      "hit": false,
      "t": 161868.2155000007,
      "d": 109.89016666667885,
      "v": 113
    },
    {
      "midi": 63,
      "hit": false,
      "t": 162197.8860000007,
      "d": 157.9671145833272,
      "v": 76
    },
    {
      "midi": 56,
      "hit": false,
      "t": 162197.8860000007,
      "d": 161.4011822916509,
      "v": 85
    },
    {
      "midi": 75,
      "hit": false,
      "t": 162197.8860000007,
      "d": 202.60999479165184,
      "v": 89
    },
    {
      "midi": 71,
      "hit": false,
      "t": 162197.8860000007,
      "d": 206.04406249997555,
      "v": 85
    },
    {
      "midi": 66,
      "hit": false,
      "t": 162197.8860000007,
      "d": 212.91219791665208,
      "v": 76
    },
    {
      "midi": 44,
      "hit": false,
      "t": 162197.8860000007,
      "d": 2228.709942708316,
      "v": 93
    },
    {
      "midi": 63,
      "hit": false,
      "t": 162527.55650000068,
      "d": 113.32423437500256,
      "v": 62
    },
    {
      "midi": 56,
      "hit": false,
      "t": 162527.55650000068,
      "d": 123.6264375000028,
      "v": 76
    },
    {
      "midi": 75,
      "hit": false,
      "t": 162527.55650000068,
      "d": 147.66491145832697,
      "v": 76
    },
    {
      "midi": 71,
      "hit": false,
      "t": 162527.55650000068,
      "d": 151.09897916665068,
      "v": 76
    },
    {
      "midi": 66,
      "hit": false,
      "t": 162527.55650000068,
      "d": 157.9671145833272,
      "v": 64
    },
    {
      "midi": 63,
      "hit": false,
      "t": 162857.22700000068,
      "d": 120.19236979167908,
      "v": 62
    },
    {
      "midi": 56,
      "hit": false,
      "t": 162857.22700000068,
      "d": 123.6264375000028,
      "v": 76
    },
    {
      "midi": 71,
      "hit": false,
      "t": 162857.22700000068,
      "d": 151.09897916667978,
      "v": 72
    },
    {
      "midi": 66,
      "hit": false,
      "t": 162857.22700000068,
      "d": 154.5330468750035,
      "v": 59
    },
    {
      "midi": 75,
      "hit": false,
      "t": 162857.22700000068,
      "d": 161.40118229168002,
      "v": 80
    },
    {
      "midi": 63,
      "hit": false,
      "t": 163186.8975000007,
      "d": 130.49457291667932,
      "v": 68
    },
    {
      "midi": 56,
      "hit": false,
      "t": 163186.8975000007,
      "d": 144.23084375000326,
      "v": 89
    },
    {
      "midi": 71,
      "hit": false,
      "t": 163186.8975000007,
      "d": 147.66491145832697,
      "v": 85
    },
    {
      "midi": 75,
      "hit": false,
      "t": 163186.8975000007,
      "d": 151.09897916665068,
      "v": 89
    },
    {
      "midi": 66,
      "hit": false,
      "t": 163186.8975000007,
      "d": 164.83524999997462,
      "v": 80
    },
    {
      "midi": 63,
      "hit": false,
      "t": 163516.56800000067,
      "d": 140.79677604167955,
      "v": 55
    },
    {
      "midi": 56,
      "hit": false,
      "t": 163516.56800000067,
      "d": 154.5330468750035,
      "v": 62
    },
    {
      "midi": 66,
      "hit": false,
      "t": 163516.56800000067,
      "d": 178.57152083332767,
      "v": 56
    },
    {
      "midi": 75,
      "hit": false,
      "t": 163516.56800000067,
      "d": 178.57152083332767,
      "v": 72
    },
    {
      "midi": 71,
      "hit": false,
      "t": 163516.56800000067,
      "d": 182.00558854165138,
      "v": 72
    },
    {
      "midi": 63,
      "hit": false,
      "t": 163846.23850000065,
      "d": 123.6264375000028,
      "v": 57
    },
    {
      "midi": 56,
      "hit": false,
      "t": 163846.23850000065,
      "d": 133.92864062500303,
      "v": 76
    },
    {
      "midi": 75,
      "hit": false,
      "t": 163846.23850000065,
      "d": 168.26931770832743,
      "v": 85
    },
    {
      "midi": 71,
      "hit": false,
      "t": 163846.23850000065,
      "d": 175.13745312500396,
      "v": 80
    },
    {
      "midi": 66,
      "hit": false,
      "t": 163846.23850000065,
      "d": 178.57152083332767,
      "v": 68
    },
    {
      "midi": 63,
      "hit": false,
      "t": 164175.90900000065,
      "d": 130.49457291667932,
      "v": 60
    },
    {
      "midi": 56,
      "hit": false,
      "t": 164175.90900000065,
      "d": 137.36270833335584,
      "v": 80
    },
    {
      "midi": 66,
      "hit": false,
      "t": 164175.90900000065,
      "d": 178.57152083335677,
      "v": 72
    },
    {
      "midi": 71,
      "hit": false,
      "t": 164175.90900000065,
      "d": 178.57152083335677,
      "v": 85
    },
    {
      "midi": 75,
      "hit": false,
      "t": 164175.90900000065,
      "d": 178.57152083335677,
      "v": 89
    },
    {
      "midi": 71,
      "hit": false,
      "t": 164505.5795000007,
      "d": 96.1538958333258,
      "v": 85
    },
    {
      "midi": 66,
      "hit": false,
      "t": 164505.5795000007,
      "d": 99.58796354164951,
      "v": 76
    },
    {
      "midi": 75,
      "hit": false,
      "t": 164505.5795000007,
      "d": 106.45609895832604,
      "v": 85
    },
    {
      "midi": 56,
      "hit": false,
      "t": 164505.5795000007,
      "d": 109.89016666664975,
      "v": 62
    },
    {
      "midi": 63,
      "hit": false,
      "t": 164505.5795000007,
      "d": 109.89016666664975,
      "v": 59
    },
    {
      "midi": 63,
      "hit": false,
      "t": 164835.2500000007,
      "d": 51.511015625001164,
      "v": 41
    },
    {
      "midi": 56,
      "hit": false,
      "t": 164835.2500000007,
      "d": 68.68135416667792,
      "v": 57
    },
    {
      "midi": 61,
      "hit": false,
      "t": 164835.2500000007,
      "d": 72.11542187500163,
      "v": 50
    },
    {
      "midi": 54,
      "hit": false,
      "t": 164835.2500000007,
      "d": 96.1538958333258,
      "v": 55
    },
    {
      "midi": 70,
      "hit": false,
      "t": 164835.2500000007,
      "d": 157.9671145833272,
      "v": 72
    },
    {
      "midi": 65,
      "hit": false,
      "t": 164835.2500000007,
      "d": 168.26931770832743,
      "v": 64
    },
    {
      "midi": 73,
      "hit": false,
      "t": 164835.2500000007,
      "d": 188.8737239583279,
      "v": 68
    },
    {
      "midi": 42,
      "hit": false,
      "t": 164835.2500000007,
      "d": 2101.6494375000184,
      "v": 60
    },
    {
      "midi": 61,
      "hit": false,
      "t": 165164.9205000007,
      "d": 109.89016666667885,
      "v": 56
    },
    {
      "midi": 70,
      "hit": false,
      "t": 165164.9205000007,
      "d": 144.23084375000326,
      "v": 76
    },
    {
      "midi": 54,
      "hit": false,
      "t": 165164.9205000007,
      "d": 147.66491145832697,
      "v": 72
    },
    {
      "midi": 73,
      "hit": false,
      "t": 165164.9205000007,
      "d": 154.5330468750035,
      "v": 76
    },
    {
      "midi": 65,
      "hit": false,
      "t": 165164.9205000007,
      "d": 164.83525000000373,
      "v": 72
    },
    {
      "midi": 54,
      "hit": false,
      "t": 165494.5910000007,
      "d": 120.19236979167908,
      "v": 85
    },
    {
      "midi": 70,
      "hit": false,
      "t": 165494.5910000007,
      "d": 147.66491145835607,
      "v": 85
    },
    {
      "midi": 65,
      "hit": false,
      "t": 165494.5910000007,
      "d": 151.09897916667978,
      "v": 59
    },
    {
      "midi": 73,
      "hit": false,
      "t": 165494.5910000007,
      "d": 151.09897916667978,
      "v": 85
    },
    {
      "midi": 65,
      "hit": false,
      "t": 165824.26150000072,
      "d": 216.3462656250049,
      "v": 72
    },
    {
      "midi": 70,
      "hit": false,
      "t": 165824.26150000072,
      "d": 219.7803333333286,
      "v": 89
    },
    {
      "midi": 73,
      "hit": false,
      "t": 165824.26150000072,
      "d": 223.2144010416523,
      "v": 93
    },
    {
      "midi": 54,
      "hit": false,
      "t": 165824.26150000072,
      "d": 226.64846874997602,
      "v": 93
    },
    {
      "midi": 54,
      "hit": false,
      "t": 166153.9320000007,
      "d": 109.89016666667885,
      "v": 72
    },
    {
      "midi": 70,
      "hit": false,
      "t": 166153.9320000007,
      "d": 120.19236979167908,
      "v": 76
    },
    {
      "midi": 73,
      "hit": false,
      "t": 166153.9320000007,
      "d": 120.19236979167908,
      "v": 80
    },
    {
      "midi": 65,
      "hit": false,
      "t": 166153.9320000007,
      "d": 127.06050520835561,
      "v": 62
    },
    {
      "midi": 54,
      "hit": false,
      "t": 166483.60250000074,
      "d": 127.0605052083265,
      "v": 76
    },
    {
      "midi": 65,
      "hit": false,
      "t": 166483.60250000074,
      "d": 151.09897916665068,
      "v": 60
    },
    {
      "midi": 70,
      "hit": false,
      "t": 166483.60250000074,
      "d": 151.09897916665068,
      "v": 80
    },
    {
      "midi": 73,
      "hit": false,
      "t": 166483.60250000074,
      "d": 151.09897916665068,
      "v": 80
    },
    {
      "midi": 54,
      "hit": false,
      "t": 166813.2730000007,
      "d": 120.19236979167908,
      "v": 80
    },
    {
      "midi": 70,
      "hit": false,
      "t": 166813.2730000007,
      "d": 137.36270833332674,
      "v": 93
    },
    {
      "midi": 73,
      "hit": false,
      "t": 166813.2730000007,
      "d": 137.36270833332674,
      "v": 89
    },
    {
      "midi": 65,
      "hit": false,
      "t": 166813.2730000007,
      "d": 144.23084375000326,
      "v": 72
    },
    {
      "midi": 70,
      "hit": false,
      "t": 167142.94350000072,
      "d": 92.7198281250021,
      "v": 89
    },
    {
      "midi": 65,
      "hit": false,
      "t": 167142.94350000072,
      "d": 99.58796354167862,
      "v": 72
    },
    {
      "midi": 54,
      "hit": false,
      "t": 167142.94350000072,
      "d": 113.32423437500256,
      "v": 85
    },
    {
      "midi": 73,
      "hit": false,
      "t": 167142.94350000072,
      "d": 116.75830208332627,
      "v": 93
    },
    {
      "midi": 126,
      "hit": false,
      "t": 167472.61400000073,
      "d": 13.736270833323942,
      "v": 1
    },
    {
      "midi": 63,
      "hit": false,
      "t": 167472.61400000073,
      "d": 123.6264375000028,
      "v": 60
    },
    {
      "midi": 56,
      "hit": false,
      "t": 167472.61400000073,
      "d": 157.9671145833272,
      "v": 64
    },
    {
      "midi": 66,
      "hit": false,
      "t": 167472.61400000073,
      "d": 182.00558854165138,
      "v": 60
    },
    {
      "midi": 75,
      "hit": false,
      "t": 167472.61400000073,
      "d": 182.00558854165138,
      "v": 50
    },
    {
      "midi": 71,
      "hit": false,
      "t": 167472.61400000073,
      "d": 192.3077916666516,
      "v": 76
    },
    {
      "midi": 44,
      "hit": false,
      "t": 167472.61400000073,
      "d": 2348.902312499966,
      "v": 89
    },
    {
      "midi": 56,
      "hit": false,
      "t": 167802.2845000007,
      "d": 116.75830208332627,
      "v": 72
    },
    {
      "midi": 63,
      "hit": false,
      "t": 167802.2845000007,
      "d": 120.19236979164998,
      "v": 62
    },
    {
      "midi": 75,
      "hit": false,
      "t": 167802.2845000007,
      "d": 137.36270833332674,
      "v": 68
    },
    {
      "midi": 71,
      "hit": false,
      "t": 167802.2845000007,
      "d": 140.79677604165045,
      "v": 72
    },
    {
      "midi": 66,
      "hit": false,
      "t": 167802.2845000007,
      "d": 151.09897916665068,
      "v": 62
    },
    {
      "midi": 63,
      "hit": false,
      "t": 168131.9550000007,
      "d": 144.23084375000326,
      "v": 64
    },
    {
      "midi": 56,
      "hit": false,
      "t": 168131.9550000007,
      "d": 151.09897916667978,
      "v": 76
    },
    {
      "midi": 66,
      "hit": false,
      "t": 168131.9550000007,
      "d": 164.83525000000373,
      "v": 72
    },
    {
      "midi": 71,
      "hit": false,
      "t": 168131.9550000007,
      "d": 164.83525000000373,
      "v": 80
    },
    {
      "midi": 75,
      "hit": false,
      "t": 168131.9550000007,
      "d": 168.26931770832743,
      "v": 85
    },
    {
      "midi": 63,
      "hit": false,
      "t": 168461.6255000007,
      "d": 133.92864062500303,
      "v": 72
    },
    {
      "midi": 56,
      "hit": false,
      "t": 168461.6255000007,
      "d": 140.79677604167955,
      "v": 89
    },
    {
      "midi": 66,
      "hit": false,
      "t": 168461.6255000007,
      "d": 175.13745312500396,
      "v": 76
    },
    {
      "midi": 71,
      "hit": false,
      "t": 168461.6255000007,
      "d": 178.57152083332767,
      "v": 89
    },
    {
      "midi": 75,
      "hit": false,
      "t": 168461.6255000007,
      "d": 178.57152083332767,
      "v": 89
    },
    {
      "midi": 63,
      "hit": false,
      "t": 168791.2960000007,
      "d": 151.09897916667978,
      "v": 72
    },
    {
      "midi": 56,
      "hit": false,
      "t": 168791.2960000007,
      "d": 171.70338541668025,
      "v": 93
    },
    {
      "midi": 71,
      "hit": false,
      "t": 168791.2960000007,
      "d": 185.4396562500042,
      "v": 93
    },
    {
      "midi": 66,
      "hit": false,
      "t": 168791.2960000007,
      "d": 188.8737239583279,
      "v": 72
    },
    {
      "midi": 75,
      "hit": false,
      "t": 168791.2960000007,
      "d": 192.3077916666516,
      "v": 89
    },
    {
      "midi": 63,
      "hit": false,
      "t": 169120.96650000068,
      "d": 113.32423437500256,
      "v": 62
    },
    {
      "midi": 56,
      "hit": false,
      "t": 169120.96650000068,
      "d": 120.19236979167908,
      "v": 76
    },
    {
      "midi": 71,
      "hit": false,
      "t": 169120.96650000068,
      "d": 151.09897916667978,
      "v": 89
    },
    {
      "midi": 75,
      "hit": false,
      "t": 169120.96650000068,
      "d": 151.09897916667978,
      "v": 89
    },
    {
      "midi": 66,
      "hit": false,
      "t": 169120.96650000068,
      "d": 154.5330468750035,
      "v": 76
    },
    {
      "midi": 63,
      "hit": false,
      "t": 169450.6370000007,
      "d": 123.6264375000028,
      "v": 72
    },
    {
      "midi": 56,
      "hit": false,
      "t": 169450.6370000007,
      "d": 130.49457291667932,
      "v": 80
    },
    {
      "midi": 71,
      "hit": false,
      "t": 169450.6370000007,
      "d": 178.57152083335677,
      "v": 93
    },
    {
      "midi": 66,
      "hit": false,
      "t": 169450.6370000007,
      "d": 182.00558854168048,
      "v": 80
    },
    {
      "midi": 75,
      "hit": false,
      "t": 169450.6370000007,
      "d": 182.00558854168048,
      "v": 89
    },
    {
      "midi": 66,
      "hit": false,
      "t": 169780.3075000007,
      "d": 99.58796354167862,
      "v": 76
    },
    {
      "midi": 63,
      "hit": false,
      "t": 169780.3075000007,
      "d": 103.02203125000233,
      "v": 72
    },
    {
      "midi": 71,
      "hit": false,
      "t": 169780.3075000007,
      "d": 109.89016666667885,
      "v": 89
    },
    {
      "midi": 56,
      "hit": false,
      "t": 169780.3075000007,
      "d": 116.75830208335537,
      "v": 80
    },
    {
      "midi": 75,
      "hit": false,
      "t": 169780.3075000007,
      "d": 120.19236979167908,
      "v": 93
    },
    {
      "midi": 54,
      "hit": false,
      "t": 170109.9780000007,
      "d": 133.92864062500303,
      "v": 85
    },
    {
      "midi": 65,
      "hit": false,
      "t": 170109.9780000007,
      "d": 151.09897916667978,
      "v": 64
    },
    {
      "midi": 70,
      "hit": false,
      "t": 170109.9780000007,
      "d": 161.40118229168002,
      "v": 85
    },
    {
      "midi": 73,
      "hit": false,
      "t": 170109.9780000007,
      "d": 171.70338541668025,
      "v": 89
    },
    {
      "midi": 42,
      "hit": false,
      "t": 170109.9780000007,
      "d": 1833.7921562500705,
      "v": 72
    },
    {
      "midi": 54,
      "hit": false,
      "t": 170439.6485000007,
      "d": 137.36270833335584,
      "v": 68
    },
    {
      "midi": 70,
      "hit": false,
      "t": 170439.6485000007,
      "d": 157.9671145833563,
      "v": 76
    },
    {
      "midi": 65,
      "hit": false,
      "t": 170439.6485000007,
      "d": 164.83525000003283,
      "v": 52
    },
    {
      "midi": 73,
      "hit": false,
      "t": 170439.6485000007,
      "d": 168.26931770835654,
      "v": 62
    },
    {
      "midi": 54,
      "hit": false,
      "t": 170769.31900000075,
      "d": 120.19236979167908,
      "v": 89
    },
    {
      "midi": 70,
      "hit": false,
      "t": 170769.31900000075,
      "d": 127.06050520835561,
      "v": 85
    },
    {
      "midi": 65,
      "hit": false,
      "t": 170769.31900000075,
      "d": 133.92864062503213,
      "v": 68
    },
    {
      "midi": 73,
      "hit": false,
      "t": 170769.31900000075,
      "d": 137.36270833335584,
      "v": 89
    },
    {
      "midi": 54,
      "hit": false,
      "t": 171098.98950000078,
      "d": 154.5330468750035,
      "v": 93
    },
    {
      "midi": 65,
      "hit": false,
      "t": 171098.98950000078,
      "d": 175.13745312500396,
      "v": 76
    },
    {
      "midi": 70,
      "hit": false,
      "t": 171098.98950000078,
      "d": 175.13745312500396,
      "v": 93
    },
    {
      "midi": 73,
      "hit": false,
      "t": 171098.98950000078,
      "d": 182.00558854168048,
      "v": 93
    },
    {
      "midi": 54,
      "hit": false,
      "t": 171428.6600000008,
      "d": 137.36270833332674,
      "v": 76
    },
    {
      "midi": 70,
      "hit": false,
      "t": 171428.6600000008,
      "d": 164.83525000000373,
      "v": 76
    },
    {
      "midi": 65,
      "hit": false,
      "t": 171428.6600000008,
      "d": 175.13745312500396,
      "v": 72
    },
    {
      "midi": 73,
      "hit": false,
      "t": 171428.6600000008,
      "d": 175.13745312500396,
      "v": 85
    },
    {
      "midi": 54,
      "hit": false,
      "t": 171758.3305000008,
      "d": 157.9671145833272,
      "v": 93
    },
    {
      "midi": 65,
      "hit": false,
      "t": 171758.3305000008,
      "d": 171.70338541665114,
      "v": 72
    },
    {
      "midi": 70,
      "hit": false,
      "t": 171758.3305000008,
      "d": 175.13745312497485,
      "v": 93
    },
    {
      "midi": 73,
      "hit": false,
      "t": 171758.3305000008,
      "d": 185.4396562499751,
      "v": 89
    },
    {
      "midi": 54,
      "hit": false,
      "t": 172088.00100000078,
      "d": 113.32423437500256,
      "v": 72
    },
    {
      "midi": 65,
      "hit": false,
      "t": 172088.00100000078,
      "d": 137.36270833332674,
      "v": 60
    },
    {
      "midi": 70,
      "hit": false,
      "t": 172088.00100000078,
      "d": 137.36270833332674,
      "v": 89
    },
    {
      "midi": 73,
      "hit": false,
      "t": 172088.00100000078,
      "d": 151.09897916665068,
      "v": 89
    },
    {
      "midi": 70,
      "hit": false,
      "t": 172417.67150000075,
      "d": 106.45609895832604,
      "v": 89
    },
    {
      "midi": 65,
      "hit": false,
      "t": 172417.67150000075,
      "d": 120.19236979164998,
      "v": 80
    },
    {
      "midi": 73,
      "hit": false,
      "t": 172417.67150000075,
      "d": 130.4945729166502,
      "v": 93
    },
    {
      "midi": 54,
      "hit": false,
      "t": 172417.67150000075,
      "d": 147.66491145832697,
      "v": 93
    },
    {
      "midi": 63,
      "hit": false,
      "t": 172747.34200000076,
      "d": 68.68135416667792,
      "v": 62
    },
    {
      "midi": 52,
      "hit": false,
      "t": 172747.34200000076,
      "d": 92.7198281250021,
      "v": 93
    },
    {
      "midi": 59,
      "hit": false,
      "t": 172747.34200000076,
      "d": 96.1538958333258,
      "v": 93
    },
    {
      "midi": 71,
      "hit": false,
      "t": 172747.34200000076,
      "d": 96.1538958333258,
      "v": 85
    },
    {
      "midi": 68,
      "hit": false,
      "t": 172747.34200000076,
      "d": 99.58796354164951,
      "v": 93
    },
    {
      "midi": 52,
      "hit": false,
      "t": 173077.01250000074,
      "d": 61.8132187500014,
      "v": 72
    },
    {
      "midi": 68,
      "hit": false,
      "t": 173077.01250000074,
      "d": 68.68135416667792,
      "v": 60
    },
    {
      "midi": 63,
      "hit": false,
      "t": 173077.01250000074,
      "d": 82.41762500000186,
      "v": 62
    },
    {
      "midi": 71,
      "hit": false,
      "t": 173077.01250000074,
      "d": 85.85169270832557,
      "v": 72
    },
    {
      "midi": 59,
      "hit": false,
      "t": 173077.01250000074,
      "d": 89.28576041664928,
      "v": 72
    },
    {
      "midi": 68,
      "hit": false,
      "t": 173406.68300000072,
      "d": 68.68135416667792,
      "v": 62
    },
    {
      "midi": 63,
      "hit": false,
      "t": 173406.68300000072,
      "d": 78.98355729167815,
      "v": 60
    },
    {
      "midi": 52,
      "hit": false,
      "t": 173406.68300000072,
      "d": 82.41762500000186,
      "v": 93
    },
    {
      "midi": 71,
      "hit": false,
      "t": 173406.68300000072,
      "d": 82.41762500000186,
      "v": 68
    },
    {
      "midi": 63,
      "hit": false,
      "t": 173736.35350000073,
      "d": 573.4893072916602,
      "v": 80
    },
    {
      "midi": 52,
      "hit": false,
      "t": 173736.35350000073,
      "d": 590.659645833337,
      "v": 98
    },
    {
      "midi": 68,
      "hit": false,
      "t": 173736.35350000073,
      "d": 590.659645833337,
      "v": 93
    },
    {
      "midi": 71,
      "hit": false,
      "t": 173736.35350000073,
      "d": 594.0937135416607,
      "v": 89
    },
    {
      "midi": 68,
      "hit": false,
      "t": 174395.6945000007,
      "d": 58.37915104167769,
      "v": 80
    },
    {
      "midi": 52,
      "hit": false,
      "t": 174395.6945000007,
      "d": 68.68135416667792,
      "v": 80
    },
    {
      "midi": 63,
      "hit": false,
      "t": 174395.6945000007,
      "d": 82.41762500000186,
      "v": 68
    },
    {
      "midi": 71,
      "hit": false,
      "t": 174395.6945000007,
      "d": 96.1538958333258,
      "v": 80
    },
    {
      "midi": 68,
      "hit": false,
      "t": 175055.0355000007,
      "d": 72.11542187500163,
      "v": 72
    },
    {
      "midi": 71,
      "hit": false,
      "t": 175055.0355000007,
      "d": 82.41762500000186,
      "v": 80
    },
    {
      "midi": 63,
      "hit": false,
      "t": 175055.0355000007,
      "d": 89.28576041667839,
      "v": 64
    },
    {
      "midi": 52,
      "hit": false,
      "t": 175055.0355000007,
      "d": 96.15389583335491,
      "v": 89
    },
    {
      "midi": 66,
      "hit": false,
      "t": 175384.70600000073,
      "d": 75.54948958332534,
      "v": 72
    },
    {
      "midi": 51,
      "hit": false,
      "t": 175384.70600000073,
      "d": 78.98355729164905,
      "v": 89
    },
    {
      "midi": 61,
      "hit": false,
      "t": 175384.70600000073,
      "d": 78.98355729164905,
      "v": 72
    },
    {
      "midi": 70,
      "hit": false,
      "t": 175384.70600000073,
      "d": 96.1538958333258,
      "v": 76
    },
    {
      "midi": 51,
      "hit": false,
      "t": 175714.3765000007,
      "d": 34.34067708332441,
      "v": 46
    },
    {
      "midi": 66,
      "hit": false,
      "t": 175714.3765000007,
      "d": 61.8132187500014,
      "v": 57
    },
    {
      "midi": 61,
      "hit": false,
      "t": 175714.3765000007,
      "d": 65.2472864583251,
      "v": 44
    },
    {
      "midi": 70,
      "hit": false,
      "t": 175714.3765000007,
      "d": 68.68135416664882,
      "v": 62
    },
    {
      "midi": 51,
      "hit": false,
      "t": 176044.0470000007,
      "d": 82.41762500000186,
      "v": 72
    },
    {
      "midi": 61,
      "hit": false,
      "t": 176044.0470000007,
      "d": 89.28576041667839,
      "v": 59
    },
    {
      "midi": 66,
      "hit": false,
      "t": 176044.0470000007,
      "d": 96.15389583335491,
      "v": 76
    },
    {
      "midi": 70,
      "hit": false,
      "t": 176044.0470000007,
      "d": 103.02203125003143,
      "v": 76
    },
    {
      "midi": 61,
      "hit": false,
      "t": 176373.71750000073,
      "d": 453.29693749998114,
      "v": 80
    },
    {
      "midi": 66,
      "hit": false,
      "t": 176373.71750000073,
      "d": 463.5991406249814,
      "v": 89
    },
    {
      "midi": 70,
      "hit": false,
      "t": 176373.71750000073,
      "d": 463.5991406249814,
      "v": 93
    },
    {
      "midi": 51,
      "hit": false,
      "t": 176373.71750000073,
      "d": 494.5057499999821,
      "v": 62
    },
    {
      "midi": 51,
      "hit": false,
      "t": 177033.0585000007,
      "d": 508.2420208333351,
      "v": 85
    },
    {
      "midi": 61,
      "hit": false,
      "t": 177033.0585000007,
      "d": 542.5826979166595,
      "v": 76
    },
    {
      "midi": 66,
      "hit": false,
      "t": 177033.0585000007,
      "d": 552.8849010416598,
      "v": 76
    },
    {
      "midi": 70,
      "hit": false,
      "t": 177033.0585000007,
      "d": 559.7530364583363,
      "v": 89
    },
    {
      "midi": 66,
      "hit": false,
      "t": 177692.39950000073,
      "d": 72.11542187500163,
      "v": 80
    },
    {
      "midi": 68,
      "hit": false,
      "t": 177692.39950000073,
      "d": 72.11542187500163,
      "v": 80
    },
    {
      "midi": 70,
      "hit": false,
      "t": 177692.39950000073,
      "d": 75.54948958332534,
      "v": 80
    },
    {
      "midi": 51,
      "hit": false,
      "t": 177692.39950000073,
      "d": 103.02203125000233,
      "v": 85
    },
    {
      "midi": 61,
      "hit": false,
      "t": 177692.39950000073,
      "d": 103.02203125000233,
      "v": 89
    },
    {
      "midi": 66,
      "hit": false,
      "t": 178022.07000000073,
      "d": 82.41762500000186,
      "v": 72
    },
    {
      "midi": 68,
      "hit": false,
      "t": 178022.07000000073,
      "d": 82.41762500000186,
      "v": 76
    },
    {
      "midi": 64,
      "hit": false,
      "t": 178022.07000000073,
      "d": 85.85169270832557,
      "v": 68
    },
    {
      "midi": 59,
      "hit": false,
      "t": 178022.07000000073,
      "d": 92.7198281250021,
      "v": 72
    },
    {
      "midi": 49,
      "hit": false,
      "t": 178022.07000000073,
      "d": 96.1538958333258,
      "v": 93
    },
    {
      "midi": 49,
      "hit": false,
      "t": 178351.7405000007,
      "d": 75.54948958332534,
      "v": 76
    },
    {
      "midi": 59,
      "hit": false,
      "t": 178351.7405000007,
      "d": 92.7198281250021,
      "v": 59
    },
    {
      "midi": 64,
      "hit": false,
      "t": 178351.7405000007,
      "d": 96.1538958333258,
      "v": 68
    },
    {
      "midi": 68,
      "hit": false,
      "t": 178351.7405000007,
      "d": 103.02203125000233,
      "v": 76
    },
    {
      "midi": 49,
      "hit": false,
      "t": 178681.41100000072,
      "d": 61.8132187500014,
      "v": 57
    },
    {
      "midi": 64,
      "hit": false,
      "t": 178681.41100000072,
      "d": 68.68135416667792,
      "v": 62
    },
    {
      "midi": 59,
      "hit": false,
      "t": 178681.41100000072,
      "d": 75.54948958335444,
      "v": 56
    },
    {
      "midi": 68,
      "hit": false,
      "t": 178681.41100000072,
      "d": 85.85169270835468,
      "v": 76
    },
    {
      "midi": 59,
      "hit": false,
      "t": 179011.08150000073,
      "d": 494.5057500000112,
      "v": 85
    },
    {
      "midi": 64,
      "hit": false,
      "t": 179011.08150000073,
      "d": 494.5057500000112,
      "v": 89
    },
    {
      "midi": 68,
      "hit": false,
      "t": 179011.08150000073,
      "d": 501.3738854166877,
      "v": 89
    },
    {
      "midi": 49,
      "hit": false,
      "t": 179011.08150000073,
      "d": 508.2420208333642,
      "v": 76
    },
    {
      "midi": 49,
      "hit": false,
      "t": 179670.42250000077,
      "d": 130.49457291667932,
      "v": 89
    },
    {
      "midi": 64,
      "hit": false,
      "t": 179670.42250000077,
      "d": 130.49457291667932,
      "v": 85
    },
    {
      "midi": 68,
      "hit": false,
      "t": 179670.42250000077,
      "d": 147.66491145835607,
      "v": 89
    },
    {
      "midi": 59,
      "hit": false,
      "t": 179670.42250000077,
      "d": 157.9671145833563,
      "v": 76
    },
    {
      "midi": 64,
      "hit": false,
      "t": 180329.7635000008,
      "d": 78.98355729167815,
      "v": 68
    },
    {
      "midi": 68,
      "hit": false,
      "t": 180329.7635000008,
      "d": 103.02203125000233,
      "v": 80
    },
    {
      "midi": 49,
      "hit": false,
      "t": 180329.7635000008,
      "d": 106.45609895832604,
      "v": 80
    },
    {
      "midi": 59,
      "hit": false,
      "t": 180329.7635000008,
      "d": 113.32423437500256,
      "v": 64
    },
    {
      "midi": 63,
      "hit": false,
      "t": 180659.4340000008,
      "d": 92.7198281250021,
      "v": 76
    },
    {
      "midi": 47,
      "hit": false,
      "t": 180659.4340000008,
      "d": 99.58796354167862,
      "v": 93
    },
    {
      "midi": 58,
      "hit": false,
      "t": 180659.4340000008,
      "d": 116.75830208335537,
      "v": 72
    },
    {
      "midi": 66,
      "hit": false,
      "t": 180659.4340000008,
      "d": 127.06050520835561,
      "v": 76
    },
    {
      "midi": 63,
      "hit": false,
      "t": 180989.10450000083,
      "d": 82.41762500000186,
      "v": 72
    },
    {
      "midi": 47,
      "hit": false,
      "t": 180989.10450000083,
      "d": 85.85169270832557,
      "v": 72
    },
    {
      "midi": 58,
      "hit": false,
      "t": 180989.10450000083,
      "d": 96.1538958333258,
      "v": 60
    },
    {
      "midi": 66,
      "hit": false,
      "t": 180989.10450000083,
      "d": 113.32423437500256,
      "v": 76
    },
    {
      "midi": 63,
      "hit": false,
      "t": 181318.77500000084,
      "d": 82.41762500000186,
      "v": 72
    },
    {
      "midi": 58,
      "hit": false,
      "t": 181318.77500000084,
      "d": 89.28576041667839,
      "v": 62
    },
    {
      "midi": 47,
      "hit": false,
      "t": 181318.77500000084,
      "d": 92.7198281250021,
      "v": 76
    },
    {
      "midi": 66,
      "hit": false,
      "t": 181318.77500000084,
      "d": 113.32423437500256,
      "v": 76
    },
    {
      "midi": 63,
      "hit": false,
      "t": 181648.44550000085,
      "d": 521.9782916666882,
      "v": 93
    },
    {
      "midi": 58,
      "hit": false,
      "t": 181648.44550000085,
      "d": 528.8464270833647,
      "v": 80
    },
    {
      "midi": 66,
      "hit": false,
      "t": 181648.44550000085,
      "d": 539.1486302083649,
      "v": 93
    },
    {
      "midi": 47,
      "hit": false,
      "t": 181648.44550000085,
      "d": 556.3189687500417,
      "v": 98
    },
    {
      "midi": 63,
      "hit": false,
      "t": 182307.7865000009,
      "d": 65.2472864583251,
      "v": 89
    },
    {
      "midi": 58,
      "hit": false,
      "t": 182307.7865000009,
      "d": 82.41762500000186,
      "v": 85
    },
    {
      "midi": 47,
      "hit": false,
      "t": 182307.7865000009,
      "d": 96.1538958333258,
      "v": 89
    },
    {
      "midi": 66,
      "hit": false,
      "t": 182307.7865000009,
      "d": 99.58796354164951,
      "v": 89
    },
    {
      "midi": 63,
      "hit": false,
      "t": 182637.4570000009,
      "d": 89.28576041667839,
      "v": 89
    },
    {
      "midi": 58,
      "hit": false,
      "t": 182637.4570000009,
      "d": 96.15389583335491,
      "v": 76
    },
    {
      "midi": 47,
      "hit": false,
      "t": 182637.4570000009,
      "d": 109.89016666667885,
      "v": 85
    },
    {
      "midi": 66,
      "hit": false,
      "t": 182637.4570000009,
      "d": 116.75830208335537,
      "v": 89
    },
    {
      "midi": 63,
      "hit": false,
      "t": 182967.12750000093,
      "d": 103.02203125000233,
      "v": 89
    },
    {
      "midi": 58,
      "hit": false,
      "t": 182967.12750000093,
      "d": 106.45609895832604,
      "v": 76
    },
    {
      "midi": 47,
      "hit": false,
      "t": 182967.12750000093,
      "d": 116.75830208332627,
      "v": 89
    },
    {
      "midi": 66,
      "hit": false,
      "t": 182967.12750000093,
      "d": 137.36270833332674,
      "v": 89
    },
    {
      "midi": 61,
      "hit": false,
      "t": 183296.79800000094,
      "d": 734.8904895833111,
      "v": 80
    },
    {
      "midi": 68,
      "hit": false,
      "t": 183296.79800000094,
      "d": 734.8904895833111,
      "v": 89
    },
    {
      "midi": 64,
      "hit": false,
      "t": 183296.79800000094,
      "d": 741.7586249999877,
      "v": 89
    },
    {
      "midi": 47,
      "hit": false,
      "t": 183296.79800000094,
      "d": 1936.8141875000147,
      "v": 80
    },
    {
      "midi": 57,
      "hit": false,
      "t": 183956.13900000093,
      "d": 178.57152083332767,
      "v": 93
    },
    {
      "midi": 68,
      "hit": false,
      "t": 184285.80950000093,
      "d": 697.1157447916921,
      "v": 93
    },
    {
      "midi": 61,
      "hit": false,
      "t": 184285.80950000093,
      "d": 755.4948958333698,
      "v": 85
    },
    {
      "midi": 64,
      "hit": false,
      "t": 184285.80950000093,
      "d": 769.2311666666938,
      "v": 89
    },
    {
      "midi": 57,
      "hit": false,
      "t": 184945.15050000095,
      "d": 243.81880729168188,
      "v": 80
    },
    {
      "midi": 61,
      "hit": false,
      "t": 185274.82100000096,
      "d": 106.45609895832604,
      "v": 80
    },
    {
      "midi": 66,
      "hit": false,
      "t": 185934.16200000097,
      "d": 831.044385416666,
      "v": 89
    },
    {
      "midi": 58,
      "hit": false,
      "t": 185934.16200000097,
      "d": 834.4784531249898,
      "v": 85
    },
    {
      "midi": 63,
      "hit": false,
      "t": 185934.16200000097,
      "d": 834.4784531249898,
      "v": 89
    },
    {
      "midi": 47,
      "hit": false,
      "t": 186923.17350000096,
      "d": 607.8299843750137,
      "v": 80
    },
    {
      "midi": 58,
      "hit": false,
      "t": 186923.17350000096,
      "d": 796.7037083333416,
      "v": 76
    },
    {
      "midi": 66,
      "hit": false,
      "t": 186923.17350000096,
      "d": 837.9125208333426,
      "v": 85
    },
    {
      "midi": 63,
      "hit": false,
      "t": 186923.17350000096,
      "d": 865.3850625000196,
      "v": 80
    },
    {
      "midi": 47,
      "hit": false,
      "t": 187582.51450000098,
      "d": 339.9727031250077,
      "v": 93
    },
    {
      "midi": 58,
      "hit": false,
      "t": 187912.185000001,
      "d": 195.74185937500442,
      "v": 85
    },
    {
      "midi": 63,
      "hit": false,
      "t": 187912.185000001,
      "d": 195.74185937500442,
      "v": 89
    },
    {
      "midi": 66,
      "hit": false,
      "t": 187912.185000001,
      "d": 219.7803333333286,
      "v": 93
    },
    {
      "midi": 64,
      "hit": false,
      "t": 188571.52600000097,
      "d": 51.511015625001164,
      "v": 53
    },
    {
      "midi": 69,
      "hit": false,
      "t": 188571.52600000097,
      "d": 85.85169270832557,
      "v": 89
    },
    {
      "midi": 61,
      "hit": false,
      "t": 188571.52600000097,
      "d": 92.7198281250021,
      "v": 85
    },
    {
      "midi": 47,
      "hit": false,
      "t": 188571.52600000097,
      "d": 109.89016666667885,
      "v": 93
    },
    {
      "midi": 69,
      "hit": false,
      "t": 188901.19650000098,
      "d": 274.7254166666826,
      "v": 72
    },
    {
      "midi": 64,
      "hit": false,
      "t": 188901.19650000098,
      "d": 288.4616875000065,
      "v": 89
    },
    {
      "midi": 61,
      "hit": false,
      "t": 188901.19650000098,
      "d": 315.9342291666835,
      "v": 76
    },
    {
      "midi": 47,
      "hit": false,
      "t": 188901.19650000098,
      "d": 456.73100520836306,
      "v": 102
    },
    {
      "midi": 47,
      "hit": false,
      "t": 189560.537500001,
      "d": 570.0552395833365,
      "v": 89
    },
    {
      "midi": 59,
      "hit": false,
      "t": 189560.537500001,
      "d": 748.6267604166933,
      "v": 80
    },
    {
      "midi": 66,
      "hit": false,
      "t": 189560.537500001,
      "d": 824.1762500000186,
      "v": 93
    },
    {
      "midi": 63,
      "hit": false,
      "t": 189560.537500001,
      "d": 837.9125208333426,
      "v": 89
    },
    {
      "midi": 47,
      "hit": false,
      "t": 190219.878500001,
      "d": 442.9947343750391,
      "v": 93
    },
    {
      "midi": 63,
      "hit": false,
      "t": 190549.54900000102,
      "d": 99.58796354167862,
      "v": 80
    },
    {
      "midi": 58,
      "hit": false,
      "t": 190549.54900000102,
      "d": 106.45609895835514,
      "v": 89
    },
    {
      "midi": 66,
      "hit": false,
      "t": 190549.54900000102,
      "d": 164.83525000003283,
      "v": 89
    },
    {
      "midi": 47,
      "hit": false,
      "t": 190879.21950000105,
      "d": 147.66491145832697,
      "v": 89
    },
    {
      "midi": 47,
      "hit": false,
      "t": 191208.89000000106,
      "d": 594.0937135416607,
      "v": 93
    },
    {
      "midi": 64,
      "hit": false,
      "t": 191538.56050000107,
      "d": 250.6869427083293,
      "v": 102
    },
    {
      "midi": 69,
      "hit": false,
      "t": 191538.56050000107,
      "d": 254.121010416653,
      "v": 98
    },
    {
      "midi": 61,
      "hit": false,
      "t": 191538.56050000107,
      "d": 257.5550781249767,
      "v": 89
    },
    {
      "midi": 58,
      "hit": false,
      "t": 192197.90150000105,
      "d": 487.63761458333465,
      "v": 80
    },
    {
      "midi": 66,
      "hit": false,
      "t": 192197.90150000105,
      "d": 511.6760885416588,
      "v": 89
    },
    {
      "midi": 63,
      "hit": false,
      "t": 192197.90150000105,
      "d": 521.9782916666591,
      "v": 93
    },
    {
      "midi": 47,
      "hit": false,
      "t": 192197.90150000105,
      "d": 576.9233749999839,
      "v": 98
    },
    {
      "midi": 66,
      "hit": false,
      "t": 192857.24250000104,
      "d": 78.98355729167815,
      "v": 89
    },
    {
      "midi": 58,
      "hit": false,
      "t": 192857.24250000104,
      "d": 130.49457291667932,
      "v": 93
    },
    {
      "midi": 63,
      "hit": false,
      "t": 193186.91300000105,
      "d": 72.11542187500163,
      "v": 102
    },
    {
      "midi": 58,
      "hit": false,
      "t": 193186.91300000105,
      "d": 89.28576041667839,
      "v": 89
    },
    {
      "midi": 47,
      "hit": false,
      "t": 193186.91300000105,
      "d": 123.6264375000028,
      "v": 102
    },
    {
      "midi": 66,
      "hit": false,
      "t": 193186.91300000105,
      "d": 123.6264375000028,
      "v": 107
    },
    {
      "midi": 64,
      "hit": false,
      "t": 193846.25400000106,
      "d": 51.511015625001164,
      "v": 53
    },
    {
      "midi": 69,
      "hit": false,
      "t": 193846.25400000106,
      "d": 85.85169270832557,
      "v": 89
    },
    {
      "midi": 61,
      "hit": false,
      "t": 193846.25400000106,
      "d": 92.7198281250021,
      "v": 85
    },
    {
      "midi": 47,
      "hit": false,
      "t": 193846.25400000106,
      "d": 109.89016666667885,
      "v": 93
    },
    {
      "midi": 69,
      "hit": false,
      "t": 194175.92450000107,
      "d": 274.7254166666826,
      "v": 72
    },
    {
      "midi": 64,
      "hit": false,
      "t": 194175.92450000107,
      "d": 288.4616875000065,
      "v": 89
    },
    {
      "midi": 61,
      "hit": false,
      "t": 194175.92450000107,
      "d": 315.9342291666835,
      "v": 76
    },
    {
      "midi": 47,
      "hit": false,
      "t": 194175.92450000107,
      "d": 456.73100520836306,
      "v": 102
    },
    {
      "midi": 47,
      "hit": false,
      "t": 194835.2655000011,
      "d": 570.0552395833365,
      "v": 89
    },
    {
      "midi": 59,
      "hit": false,
      "t": 194835.2655000011,
      "d": 748.6267604166933,
      "v": 80
    },
    {
      "midi": 66,
      "hit": false,
      "t": 194835.2655000011,
      "d": 824.1762500000186,
      "v": 93
    },
    {
      "midi": 63,
      "hit": false,
      "t": 194835.2655000011,
      "d": 837.9125208333426,
      "v": 89
    },
    {
      "midi": 47,
      "hit": false,
      "t": 195494.6065000011,
      "d": 442.9947343750391,
      "v": 93
    },
    {
      "midi": 63,
      "hit": false,
      "t": 195824.2770000011,
      "d": 99.58796354167862,
      "v": 80
    },
    {
      "midi": 58,
      "hit": false,
      "t": 195824.2770000011,
      "d": 106.45609895835514,
      "v": 89
    },
    {
      "midi": 66,
      "hit": false,
      "t": 195824.2770000011,
      "d": 164.83525000003283,
      "v": 89
    },
    {
      "midi": 47,
      "hit": false,
      "t": 196153.94750000114,
      "d": 147.66491145832697,
      "v": 89
    },
    {
      "midi": 47,
      "hit": false,
      "t": 196483.61800000115,
      "d": 594.0937135416607,
      "v": 93
    },
    {
      "midi": 64,
      "hit": false,
      "t": 196813.28850000116,
      "d": 250.6869427083293,
      "v": 102
    },
    {
      "midi": 69,
      "hit": false,
      "t": 196813.28850000116,
      "d": 254.121010416653,
      "v": 98
    },
    {
      "midi": 61,
      "hit": false,
      "t": 196813.28850000116,
      "d": 257.5550781249767,
      "v": 89
    },
    {
      "midi": 58,
      "hit": false,
      "t": 197472.62950000115,
      "d": 487.63761458333465,
      "v": 80
    },
    {
      "midi": 66,
      "hit": false,
      "t": 197472.62950000115,
      "d": 511.6760885416588,
      "v": 89
    },
    {
      "midi": 63,
      "hit": false,
      "t": 197472.62950000115,
      "d": 521.9782916666591,
      "v": 93
    },
    {
      "midi": 47,
      "hit": false,
      "t": 197472.62950000115,
      "d": 576.9233749999839,
      "v": 98
    },
    {
      "midi": 66,
      "hit": false,
      "t": 198131.97050000113,
      "d": 78.98355729167815,
      "v": 89
    },
    {
      "midi": 58,
      "hit": false,
      "t": 198131.97050000113,
      "d": 130.49457291667932,
      "v": 93
    },
    {
      "midi": 63,
      "hit": false,
      "t": 198461.64100000114,
      "d": 72.11542187500163,
      "v": 102
    },
    {
      "midi": 58,
      "hit": false,
      "t": 198461.64100000114,
      "d": 89.28576041667839,
      "v": 89
    },
    {
      "midi": 47,
      "hit": false,
      "t": 198461.64100000114,
      "d": 123.6264375000028,
      "v": 102
    },
    {
      "midi": 66,
      "hit": false,
      "t": 198461.64100000114,
      "d": 123.6264375000028,
      "v": 107
    },
    {
      "midi": 64,
      "hit": false,
      "t": 199120.98200000115,
      "d": 51.511015625001164,
      "v": 53
    },
    {
      "midi": 69,
      "hit": false,
      "t": 199120.98200000115,
      "d": 85.85169270832557,
      "v": 89
    },
    {
      "midi": 61,
      "hit": false,
      "t": 199120.98200000115,
      "d": 92.7198281250021,
      "v": 85
    },
    {
      "midi": 47,
      "hit": false,
      "t": 199120.98200000115,
      "d": 109.89016666667885,
      "v": 93
    },
    {
      "midi": 69,
      "hit": false,
      "t": 199450.65250000116,
      "d": 274.7254166666826,
      "v": 72
    },
    {
      "midi": 64,
      "hit": false,
      "t": 199450.65250000116,
      "d": 288.4616875000065,
      "v": 89
    },
    {
      "midi": 61,
      "hit": false,
      "t": 199450.65250000116,
      "d": 315.9342291666835,
      "v": 76
    },
    {
      "midi": 47,
      "hit": false,
      "t": 199450.65250000116,
      "d": 456.73100520836306,
      "v": 102
    },
    {
      "midi": 47,
      "hit": false,
      "t": 200109.99350000118,
      "d": 570.0552395833365,
      "v": 89
    },
    {
      "midi": 59,
      "hit": false,
      "t": 200109.99350000118,
      "d": 748.6267604166933,
      "v": 80
    },
    {
      "midi": 66,
      "hit": false,
      "t": 200109.99350000118,
      "d": 824.1762500000186,
      "v": 93
    },
    {
      "midi": 63,
      "hit": false,
      "t": 200109.99350000118,
      "d": 837.9125208333426,
      "v": 89
    },
    {
      "midi": 47,
      "hit": false,
      "t": 200769.3345000012,
      "d": 442.9947343750391,
      "v": 93
    },
    {
      "midi": 63,
      "hit": false,
      "t": 201099.0050000012,
      "d": 99.58796354167862,
      "v": 80
    },
    {
      "midi": 58,
      "hit": false,
      "t": 201099.0050000012,
      "d": 106.45609895835514,
      "v": 89
    },
    {
      "midi": 66,
      "hit": false,
      "t": 201099.0050000012,
      "d": 164.83525000003283,
      "v": 89
    },
    {
      "midi": 47,
      "hit": false,
      "t": 201428.67550000123,
      "d": 147.66491145832697,
      "v": 89
    },
    {
      "midi": 47,
      "hit": false,
      "t": 201758.34600000124,
      "d": 594.0937135416607,
      "v": 93
    },
    {
      "midi": 64,
      "hit": false,
      "t": 202088.01650000125,
      "d": 250.6869427083293,
      "v": 102
    },
    {
      "midi": 69,
      "hit": false,
      "t": 202088.01650000125,
      "d": 254.121010416653,
      "v": 98
    },
    {
      "midi": 61,
      "hit": false,
      "t": 202088.01650000125,
      "d": 257.5550781249767,
      "v": 89
    },
    {
      "midi": 58,
      "hit": false,
      "t": 202747.35750000124,
      "d": 487.63761458333465,
      "v": 80
    },
    {
      "midi": 66,
      "hit": false,
      "t": 202747.35750000124,
      "d": 511.6760885416588,
      "v": 89
    },
    {
      "midi": 63,
      "hit": false,
      "t": 202747.35750000124,
      "d": 521.9782916666591,
      "v": 93
    },
    {
      "midi": 47,
      "hit": false,
      "t": 202747.35750000124,
      "d": 576.9233749999839,
      "v": 98
    },
    {
      "midi": 66,
      "hit": false,
      "t": 203406.69850000122,
      "d": 78.98355729167815,
      "v": 89
    },
    {
      "midi": 58,
      "hit": false,
      "t": 203406.69850000122,
      "d": 130.49457291667932,
      "v": 93
    },
    {
      "midi": 63,
      "hit": false,
      "t": 203736.36900000123,
      "d": 72.11542187500163,
      "v": 102
    },
    {
      "midi": 58,
      "hit": false,
      "t": 203736.36900000123,
      "d": 89.28576041667839,
      "v": 89
    },
    {
      "midi": 47,
      "hit": false,
      "t": 203736.36900000123,
      "d": 123.6264375000028,
      "v": 102
    },
    {
      "midi": 66,
      "hit": false,
      "t": 203736.36900000123,
      "d": 123.6264375000028,
      "v": 107
    },
    {
      "midi": 64,
      "hit": false,
      "t": 204395.71000000124,
      "d": 51.511015625001164,
      "v": 53
    },
    {
      "midi": 69,
      "hit": false,
      "t": 204395.71000000124,
      "d": 85.85169270832557,
      "v": 89
    },
    {
      "midi": 61,
      "hit": false,
      "t": 204395.71000000124,
      "d": 92.7198281250021,
      "v": 85
    },
    {
      "midi": 47,
      "hit": false,
      "t": 204395.71000000124,
      "d": 109.89016666667885,
      "v": 93
    },
    {
      "midi": 69,
      "hit": false,
      "t": 204725.38050000125,
      "d": 274.7254166666826,
      "v": 72
    },
    {
      "midi": 64,
      "hit": false,
      "t": 204725.38050000125,
      "d": 288.4616875000065,
      "v": 89
    },
    {
      "midi": 61,
      "hit": false,
      "t": 204725.38050000125,
      "d": 315.9342291666835,
      "v": 76
    },
    {
      "midi": 47,
      "hit": false,
      "t": 204725.38050000125,
      "d": 456.73100520836306,
      "v": 102
    },
    {
      "midi": 47,
      "hit": false,
      "t": 205384.72150000127,
      "d": 570.0552395833365,
      "v": 89
    },
    {
      "midi": 59,
      "hit": false,
      "t": 205384.72150000127,
      "d": 748.6267604166933,
      "v": 80
    },
    {
      "midi": 66,
      "hit": false,
      "t": 205384.72150000127,
      "d": 824.1762500000186,
      "v": 93
    },
    {
      "midi": 63,
      "hit": false,
      "t": 205384.72150000127,
      "d": 837.9125208333426,
      "v": 89
    },
    {
      "midi": 47,
      "hit": false,
      "t": 206044.06250000128,
      "d": 442.9947343750391,
      "v": 93
    },
    {
      "midi": 63,
      "hit": false,
      "t": 206373.7330000013,
      "d": 99.58796354167862,
      "v": 80
    },
    {
      "midi": 58,
      "hit": false,
      "t": 206373.7330000013,
      "d": 106.45609895835514,
      "v": 89
    },
    {
      "midi": 66,
      "hit": false,
      "t": 206373.7330000013,
      "d": 164.83525000003283,
      "v": 89
    },
    {
      "midi": 47,
      "hit": false,
      "t": 206703.40350000132,
      "d": 147.66491145832697,
      "v": 89
    },
    {
      "midi": 47,
      "hit": false,
      "t": 207033.07400000133,
      "d": 594.0937135416607,
      "v": 93
    },
    {
      "midi": 64,
      "hit": false,
      "t": 207362.74450000134,
      "d": 250.6869427083293,
      "v": 102
    },
    {
      "midi": 69,
      "hit": false,
      "t": 207362.74450000134,
      "d": 254.121010416653,
      "v": 98
    },
    {
      "midi": 61,
      "hit": false,
      "t": 207362.74450000134,
      "d": 257.5550781249767,
      "v": 89
    },
    {
      "midi": 58,
      "hit": false,
      "t": 208022.08550000133,
      "d": 487.63761458333465,
      "v": 80
    },
    {
      "midi": 66,
      "hit": false,
      "t": 208022.08550000133,
      "d": 511.6760885416588,
      "v": 89
    },
    {
      "midi": 63,
      "hit": false,
      "t": 208022.08550000133,
      "d": 521.9782916666591,
      "v": 93
    },
    {
      "midi": 47,
      "hit": false,
      "t": 208022.08550000133,
      "d": 576.9233749999839,
      "v": 98
    },
    {
      "midi": 66,
      "hit": false,
      "t": 208681.4265000013,
      "d": 78.98355729167815,
      "v": 89
    },
    {
      "midi": 58,
      "hit": false,
      "t": 208681.4265000013,
      "d": 130.49457291667932,
      "v": 93
    },
    {
      "midi": 63,
      "hit": false,
      "t": 209011.09700000132,
      "d": 72.11542187500163,
      "v": 102
    },
    {
      "midi": 58,
      "hit": false,
      "t": 209011.09700000132,
      "d": 89.28576041667839,
      "v": 89
    },
    {
      "midi": 47,
      "hit": false,
      "t": 209011.09700000132,
      "d": 123.6264375000028,
      "v": 102
    },
    {
      "midi": 66,
      "hit": false,
      "t": 209011.09700000132,
      "d": 123.6264375000028,
      "v": 107
    },
    {
      "midi": 64,
      "hit": false,
      "t": 209677.30613541798,
      "d": 364.01117708333186,
      "v": 85
    },
    {
      "midi": 61,
      "hit": false,
      "t": 209680.7402031263,
      "d": 381.1815156250086,
      "v": 93
    },
    {
      "midi": 47,
      "hit": false,
      "t": 209680.7402031263,
      "d": 745.1926927083405,
      "v": 89
    },
    {
      "midi": 57,
      "hit": false,
      "t": 209691.0424062513,
      "d": 350.2749062500079,
      "v": 59
    },
    {
      "midi": 54,
      "hit": false,
      "t": 210048.185447918,
      "d": 199.17592708332813,
      "v": 72
    },
    {
      "midi": 57,
      "hit": false,
      "t": 210333.21306770964,
      "d": 171.70338541668025,
      "v": 68
    },
    {
      "midi": 61,
      "hit": false,
      "t": 210542.691197918,
      "d": 212.91219791668118,
      "v": 76
    },
    {
      "midi": 64,
      "hit": false,
      "t": 210728.130854168,
      "d": 99.58796354167862,
      "v": 72
    },
    {
      "midi": 54,
      "hit": false,
      "t": 210930.7408489597,
      "d": 127.0605052083265,
      "v": 68
    },
    {
      "midi": 69,
      "hit": false,
      "t": 211143.65304687634,
      "d": 109.89016666667885,
      "v": 72
    },
    {
      "midi": 71,
      "hit": false,
      "t": 211408.07626041802,
      "d": 127.0605052083265,
      "v": 80
    },
    {
      "midi": 75,
      "hit": false,
      "t": 211730.87862500135,
      "d": 109.89016666667885,
      "v": 72
    },
    {
      "midi": 76,
      "hit": false,
      "t": 212139.53268229304,
      "d": 171.70338541668025,
      "v": 72
    },
    {
      "midi": 81,
      "hit": false,
      "t": 212609.99995833472,
      "d": 133.92864062500303,
      "v": 68
    },
    {
      "midi": 87,
      "hit": false,
      "t": 213169.75299479306,
      "d": 157.9671145833272,
      "v": 62
    },
    {
      "midi": 88,
      "hit": false,
      "t": 213846.26433333472,
      "d": 185.4396562500042,
      "v": 62
    }
  ]
}