{
  "jsonPath": "World/German Techno/La Bouche/fallin-in-love.json",
  "path": "World\\German Techno\\La Bouche\\Fallin In Love.mid",
  "name": "Fallin In Love",
  "difficulty": "Advanced",
  "bpm": 89.00096417711192,
  "notes": [
    {
      "midi": 43,
      "hit": false,
      "t": 10786.4,
      "d": 2679.0440104166664,
      "v": 102
    },
    {
      "midi": 57,
      "hit": false,
      "t": 10786.4,
      "d": 2679.0440104166664,
      "v": 98
    },
    {
      "midi": 59,
      "hit": false,
      "t": 10786.4,
      "d": 2679.0440104166664,
      "v": 80
    },
    {
      "midi": 62,
      "hit": false,
      "t": 10786.4,
      "d": 2679.0440104166664,
      "v": 106
    },
    {
      "midi": 66,
      "hit": false,
      "t": 10786.4,
      "d": 2679.0440104166664,
      "v": 88
    },
    {
      "midi": 66,
      "hit": false,
      "t": 10786.4,
      "d": 361.6533854166664,
      "v": 111
    },
    {
      "midi": 62,
      "hit": false,
      "t": 10786.4,
      "d": 368.67578125,
      "v": 99
    },
    {
      "midi": 62,
      "hit": false,
      "t": 11292.012499999999,
      "d": 94.80234374999964,
      "v": 105
    },
    {
      "midi": 59,
      "hit": false,
      "t": 11292.012499999999,
      "d": 101.82473958333321,
      "v": 81
    },
    {
      "midi": 50,
      "hit": false,
      "t": 11797.624999999998,
      "d": 1632.70703125,
      "v": 99
    },
    {
      "midi": 55,
      "hit": false,
      "t": 11797.624999999998,
      "d": 1632.70703125,
      "v": 111
    },
    {
      "midi": 42,
      "hit": false,
      "t": 13482.999999999998,
      "d": 2327.9242187500004,
      "v": 99
    },
    {
      "midi": 57,
      "hit": false,
      "t": 13482.999999999998,
      "d": 2398.1481770833343,
      "v": 99
    },
    {
      "midi": 64,
      "hit": false,
      "t": 13482.999999999998,
      "d": 2426.237760416667,
      "v": 89
    },
    {
      "midi": 57,
      "hit": false,
      "t": 13483,
      "d": 2679.0440104166664,
      "v": 84
    },
    {
      "midi": 64,
      "hit": false,
      "t": 13483,
      "d": 2679.0440104166664,
      "v": 98
    },
    {
      "midi": 40,
      "hit": false,
      "t": 16067.241666666665,
      "d": 108.84713541666679,
      "v": 117
    },
    {
      "midi": 40,
      "hit": false,
      "t": 16179.599999999999,
      "d": 2552.6408854166657,
      "v": 99
    },
    {
      "midi": 55,
      "hit": false,
      "t": 16179.599999999999,
      "d": 3268.925260416665,
      "v": 81
    },
    {
      "midi": 59,
      "hit": false,
      "t": 16179.599999999999,
      "d": 3332.1268229166635,
      "v": 105
    },
    {
      "midi": 62,
      "hit": false,
      "t": 16179.599999999999,
      "d": 4631.270052083331,
      "v": 85
    },
    {
      "midi": 64,
      "hit": false,
      "t": 16179.599999999999,
      "d": 4638.292447916665,
      "v": 81
    },
    {
      "midi": 59,
      "hit": false,
      "t": 16179.6,
      "d": 4652.33723958333,
      "v": 98
    },
    {
      "midi": 62,
      "hit": false,
      "t": 16179.6,
      "d": 4652.33723958333,
      "v": 98
    },
    {
      "midi": 40,
      "hit": false,
      "t": 18876.199999999997,
      "d": 1990.8492187500015,
      "v": 67
    },
    {
      "midi": 40,
      "hit": false,
      "t": 18876.2,
      "d": 2040.0059895833292,
      "v": 98
    },
    {
      "midi": 55,
      "hit": false,
      "t": 19550.349999999995,
      "d": 1148.1617187500015,
      "v": 47
    },
    {
      "midi": 59,
      "hit": false,
      "t": 19550.349999999995,
      "d": 1225.4080729166672,
      "v": 53
    },
    {
      "midi": 55,
      "hit": false,
      "t": 19887.425,
      "d": 846.198697916665,
      "v": 66
    },
    {
      "midi": 61,
      "hit": false,
      "t": 20898.649999999998,
      "d": 502.10130208333067,
      "v": 102
    },
    {
      "midi": 42,
      "hit": false,
      "t": 20898.649999999998,
      "d": 516.1460937499978,
      "v": 106
    },
    {
      "midi": 57,
      "hit": false,
      "t": 20898.649999999998,
      "d": 516.1460937499978,
      "v": 94
    },
    {
      "midi": 64,
      "hit": false,
      "t": 20898.649999999998,
      "d": 523.1684895833314,
      "v": 84
    },
    {
      "midi": 57,
      "hit": false,
      "t": 20898.649999999998,
      "d": 558.2804687499993,
      "v": 71
    },
    {
      "midi": 59,
      "hit": false,
      "t": 20898.649999999998,
      "d": 565.3028645833328,
      "v": 81
    },
    {
      "midi": 64,
      "hit": false,
      "t": 20898.649999999998,
      "d": 579.34765625,
      "v": 81
    },
    {
      "midi": 42,
      "hit": false,
      "t": 20898.649999999998,
      "d": 600.4148437500007,
      "v": 99
    },
    {
      "midi": 57,
      "hit": false,
      "t": 21572.799999999996,
      "d": 2679.0440104166664,
      "v": 94
    },
    {
      "midi": 62,
      "hit": false,
      "t": 21572.799999999996,
      "d": 2679.0440104166664,
      "v": 98
    },
    {
      "midi": 66,
      "hit": false,
      "t": 21572.799999999996,
      "d": 2679.0440104166664,
      "v": 94
    },
    {
      "midi": 43,
      "hit": false,
      "t": 21572.8,
      "d": 1723.9981770833328,
      "v": 111
    },
    {
      "midi": 66,
      "hit": false,
      "t": 21572.8,
      "d": 2384.103385416667,
      "v": 81
    },
    {
      "midi": 62,
      "hit": false,
      "t": 21572.8,
      "d": 2433.260156250002,
      "v": 93
    },
    {
      "midi": 43,
      "hit": false,
      "t": 23595.25,
      "d": 579.34765625,
      "v": 77
    },
    {
      "midi": 57,
      "hit": false,
      "t": 24269.399999999994,
      "d": 1035.8033854166679,
      "v": 88
    },
    {
      "midi": 59,
      "hit": false,
      "t": 24269.399999999994,
      "d": 1056.8705729166686,
      "v": 98
    },
    {
      "midi": 64,
      "hit": false,
      "t": 24269.399999999994,
      "d": 1077.9377604166693,
      "v": 84
    },
    {
      "midi": 42,
      "hit": false,
      "t": 24269.399999999994,
      "d": 2679.0440104166737,
      "v": 84
    },
    {
      "midi": 42,
      "hit": false,
      "t": 24269.4,
      "d": 1695.9085937499985,
      "v": 85
    },
    {
      "midi": 64,
      "hit": false,
      "t": 24269.4,
      "d": 1913.6028645833321,
      "v": 77
    },
    {
      "midi": 57,
      "hit": false,
      "t": 24269.4,
      "d": 1920.6252604166657,
      "v": 63
    },
    {
      "midi": 59,
      "hit": false,
      "t": 24269.4,
      "d": 1920.6252604166657,
      "v": 81
    },
    {
      "midi": 61,
      "hit": false,
      "t": 25449.1625,
      "d": 1309.6768229166664,
      "v": 80
    },
    {
      "midi": 57,
      "hit": false,
      "t": 25449.1625,
      "d": 1450.1247395833343,
      "v": 84
    },
    {
      "midi": 64,
      "hit": false,
      "t": 25449.1625,
      "d": 1464.1695312500015,
      "v": 72
    },
    {
      "midi": 59,
      "hit": false,
      "t": 25449.1625,
      "d": 1471.191927083335,
      "v": 84
    },
    {
      "midi": 57,
      "hit": false,
      "t": 26291.850000000002,
      "d": 466.9893229166664,
      "v": 45
    },
    {
      "midi": 59,
      "hit": false,
      "t": 26291.850000000002,
      "d": 481.0341145833336,
      "v": 49
    },
    {
      "midi": 64,
      "hit": false,
      "t": 26291.850000000002,
      "d": 537.2132812499985,
      "v": 51
    },
    {
      "midi": 42,
      "hit": false,
      "t": 26291.850000000002,
      "d": 607.4372395833307,
      "v": 53
    },
    {
      "midi": 59,
      "hit": false,
      "t": 26966,
      "d": 2679.04401041667,
      "v": 94
    },
    {
      "midi": 62,
      "hit": false,
      "t": 26966,
      "d": 2679.04401041667,
      "v": 92
    },
    {
      "midi": 64,
      "hit": false,
      "t": 26966,
      "d": 2679.04401041667,
      "v": 94
    },
    {
      "midi": 40,
      "hit": false,
      "t": 26966,
      "d": 1407.9903645833328,
      "v": 105
    },
    {
      "midi": 55,
      "hit": false,
      "t": 26966,
      "d": 2615.8424479166642,
      "v": 85
    },
    {
      "midi": 64,
      "hit": false,
      "t": 26966,
      "d": 2622.864843749998,
      "v": 85
    },
    {
      "midi": 59,
      "hit": false,
      "t": 26966,
      "d": 2629.8872395833314,
      "v": 93
    },
    {
      "midi": 62,
      "hit": false,
      "t": 26966,
      "d": 2629.8872395833314,
      "v": 77
    },
    {
      "midi": 40,
      "hit": false,
      "t": 28482.837499999998,
      "d": 1197.3184895833328,
      "v": 111
    },
    {
      "midi": 40,
      "hit": false,
      "t": 28988.45,
      "d": 628.504427083335,
      "v": 98
    },
    {
      "midi": 43,
      "hit": false,
      "t": 29662.6,
      "d": 1260.5200520833314,
      "v": 99
    },
    {
      "midi": 64,
      "hit": false,
      "t": 29662.6,
      "d": 1358.8335937499978,
      "v": 71
    },
    {
      "midi": 55,
      "hit": false,
      "t": 29662.6,
      "d": 1365.8559895833314,
      "v": 67
    },
    {
      "midi": 62,
      "hit": false,
      "t": 29662.6,
      "d": 1372.878385416665,
      "v": 67
    },
    {
      "midi": 59,
      "hit": false,
      "t": 29662.6,
      "d": 1386.9231770833321,
      "v": 81
    },
    {
      "midi": 55,
      "hit": false,
      "t": 29662.600000000002,
      "d": 2679.0440104166664,
      "v": 98
    },
    {
      "midi": 59,
      "hit": false,
      "t": 29662.600000000002,
      "d": 2679.0440104166664,
      "v": 102
    },
    {
      "midi": 62,
      "hit": false,
      "t": 29662.600000000002,
      "d": 2679.0440104166664,
      "v": 80
    },
    {
      "midi": 64,
      "hit": false,
      "t": 29662.600000000002,
      "d": 2679.0440104166664,
      "v": 94
    },
    {
      "midi": 64,
      "hit": false,
      "t": 31179.437499999996,
      "d": 66.71276041666715,
      "v": 67
    },
    {
      "midi": 62,
      "hit": false,
      "t": 31179.437499999996,
      "d": 87.77994791666788,
      "v": 63
    },
    {
      "midi": 55,
      "hit": false,
      "t": 31179.437499999996,
      "d": 94.80234375000146,
      "v": 71
    },
    {
      "midi": 59,
      "hit": false,
      "t": 31179.437499999996,
      "d": 94.80234375000146,
      "v": 81
    },
    {
      "midi": 45,
      "hit": false,
      "t": 31516.512499999997,
      "d": 565.3028645833328,
      "v": 93
    },
    {
      "midi": 64,
      "hit": false,
      "t": 31685.049999999996,
      "d": 403.7877604166679,
      "v": 81
    },
    {
      "midi": 55,
      "hit": false,
      "t": 31685.049999999996,
      "d": 410.81015625000146,
      "v": 93
    },
    {
      "midi": 59,
      "hit": false,
      "t": 31685.049999999996,
      "d": 417.83255208333503,
      "v": 99
    },
    {
      "midi": 62,
      "hit": false,
      "t": 31685.049999999996,
      "d": 417.83255208333503,
      "v": 85
    },
    {
      "midi": 43,
      "hit": false,
      "t": 32359.199999999997,
      "d": 1723.9981770833328,
      "v": 111
    },
    {
      "midi": 66,
      "hit": false,
      "t": 32359.199999999997,
      "d": 2384.103385416667,
      "v": 81
    },
    {
      "midi": 62,
      "hit": false,
      "t": 32359.199999999997,
      "d": 2433.2601562499985,
      "v": 93
    },
    {
      "midi": 57,
      "hit": false,
      "t": 32359.2,
      "d": 2679.0440104166664,
      "v": 94
    },
    {
      "midi": 62,
      "hit": false,
      "t": 32359.2,
      "d": 2679.0440104166664,
      "v": 102
    },
    {
      "midi": 66,
      "hit": false,
      "t": 32359.2,
      "d": 2679.0440104166664,
      "v": 84
    },
    {
      "midi": 43,
      "hit": false,
      "t": 34381.649999999994,
      "d": 579.34765625,
      "v": 77
    },
    {
      "midi": 42,
      "hit": false,
      "t": 35055.799999999996,
      "d": 1695.9085937499985,
      "v": 85
    },
    {
      "midi": 64,
      "hit": false,
      "t": 35055.799999999996,
      "d": 1913.6028645833285,
      "v": 77
    },
    {
      "midi": 57,
      "hit": false,
      "t": 35055.799999999996,
      "d": 1920.6252604166584,
      "v": 63
    },
    {
      "midi": 59,
      "hit": false,
      "t": 35055.799999999996,
      "d": 1920.6252604166584,
      "v": 81
    },
    {
      "midi": 59,
      "hit": false,
      "t": 35055.8,
      "d": 2679.044010416663,
      "v": 84
    },
    {
      "midi": 64,
      "hit": false,
      "t": 35055.8,
      "d": 2679.044010416663,
      "v": 98
    },
    {
      "midi": 57,
      "hit": false,
      "t": 37078.249999999985,
      "d": 466.98932291667006,
      "v": 45
    },
    {
      "midi": 59,
      "hit": false,
      "t": 37078.249999999985,
      "d": 481.0341145833372,
      "v": 49
    },
    {
      "midi": 64,
      "hit": false,
      "t": 37078.249999999985,
      "d": 537.2132812500058,
      "v": 51
    },
    {
      "midi": 42,
      "hit": false,
      "t": 37078.249999999985,
      "d": 607.4372395833416,
      "v": 53
    },
    {
      "midi": 40,
      "hit": false,
      "t": 37752.399999999994,
      "d": 1407.9903645833328,
      "v": 105
    },
    {
      "midi": 55,
      "hit": false,
      "t": 37752.399999999994,
      "d": 2615.8424479166715,
      "v": 85
    },
    {
      "midi": 64,
      "hit": false,
      "t": 37752.399999999994,
      "d": 2622.8648437500015,
      "v": 85
    },
    {
      "midi": 59,
      "hit": false,
      "t": 37752.399999999994,
      "d": 2629.8872395833314,
      "v": 93
    },
    {
      "midi": 62,
      "hit": false,
      "t": 37752.399999999994,
      "d": 2629.8872395833314,
      "v": 77
    },
    {
      "midi": 55,
      "hit": false,
      "t": 37752.4,
      "d": 2679.04401041667,
      "v": 98
    },
    {
      "midi": 59,
      "hit": false,
      "t": 37752.4,
      "d": 2679.04401041667,
      "v": 106
    },
    {
      "midi": 62,
      "hit": false,
      "t": 37752.4,
      "d": 2679.04401041667,
      "v": 98
    },
    {
      "midi": 40,
      "hit": false,
      "t": 39269.237499999996,
      "d": 1197.3184895833328,
      "v": 111
    },
    {
      "midi": 55,
      "hit": false,
      "t": 40448.99999999999,
      "d": 1590.5726562500058,
      "v": 85
    },
    {
      "midi": 62,
      "hit": false,
      "t": 40448.99999999999,
      "d": 1590.5726562500058,
      "v": 77
    },
    {
      "midi": 64,
      "hit": false,
      "t": 40448.99999999999,
      "d": 1590.5726562500058,
      "v": 81
    },
    {
      "midi": 59,
      "hit": false,
      "t": 40448.99999999999,
      "d": 1625.68463541667,
      "v": 89
    },
    {
      "midi": 45,
      "hit": false,
      "t": 40448.99999999999,
      "d": 2545.6184895833285,
      "v": 99
    },
    {
      "midi": 55,
      "hit": false,
      "t": 40449.00000000001,
      "d": 2679.04401041667,
      "v": 80
    },
    {
      "midi": 59,
      "hit": false,
      "t": 40449.00000000001,
      "d": 2679.04401041667,
      "v": 102
    },
    {
      "midi": 62,
      "hit": false,
      "t": 40449.00000000001,
      "d": 2679.04401041667,
      "v": 98
    },
    {
      "midi": 57,
      "hit": false,
      "t": 42359.09166666666,
      "d": 73.73515624999709,
      "v": 105
    },
    {
      "midi": 64,
      "hit": false,
      "t": 42359.09166666666,
      "d": 73.73515624999709,
      "v": 99
    },
    {
      "midi": 55,
      "hit": false,
      "t": 42696.16666666666,
      "d": 438.8997395833285,
      "v": 99
    },
    {
      "midi": 62,
      "hit": false,
      "t": 42696.16666666666,
      "d": 438.8997395833285,
      "v": 99
    },
    {
      "midi": 57,
      "hit": false,
      "t": 43145.599999999984,
      "d": 1330.7440104166672,
      "v": 81
    },
    {
      "midi": 64,
      "hit": false,
      "t": 43145.599999999984,
      "d": 1337.766406249997,
      "v": 81
    },
    {
      "midi": 42,
      "hit": false,
      "t": 43145.599999999984,
      "d": 1450.124739583327,
      "v": 71
    },
    {
      "midi": 64,
      "hit": false,
      "t": 43145.60000000001,
      "d": 1253.4976562500015,
      "v": 94
    },
    {
      "midi": 57,
      "hit": false,
      "t": 43145.60000000001,
      "d": 1260.5200520833314,
      "v": 80
    },
    {
      "midi": 61,
      "hit": false,
      "t": 43145.60000000001,
      "d": 1281.5872395833285,
      "v": 88
    },
    {
      "midi": 42,
      "hit": false,
      "t": 43145.60000000001,
      "d": 1344.788802083327,
      "v": 88
    },
    {
      "midi": 62,
      "hit": false,
      "t": 44493.90000000001,
      "d": 1204.34088541667,
      "v": 68
    },
    {
      "midi": 66,
      "hit": false,
      "t": 44493.90000000001,
      "d": 1225.4080729166672,
      "v": 80
    },
    {
      "midi": 47,
      "hit": false,
      "t": 44493.90000000001,
      "d": 1302.6544270833328,
      "v": 98
    },
    {
      "midi": 57,
      "hit": false,
      "t": 44493.90000000001,
      "d": 2679.044010416663,
      "v": 72
    },
    {
      "midi": 47,
      "hit": false,
      "t": 44718.61666666665,
      "d": 937.4898437499942,
      "v": 99
    },
    {
      "midi": 62,
      "hit": false,
      "t": 44830.97499999998,
      "d": 754.9075520833285,
      "v": 105
    },
    {
      "midi": 57,
      "hit": false,
      "t": 44830.97499999998,
      "d": 782.9971354166628,
      "v": 99
    },
    {
      "midi": 54,
      "hit": false,
      "t": 45168.049999999974,
      "d": 431.87734374999854,
      "v": 89
    },
    {
      "midi": 42,
      "hit": false,
      "t": 45842.199999999975,
      "d": 403.78776041666424,
      "v": 89
    },
    {
      "midi": 57,
      "hit": false,
      "t": 45842.199999999975,
      "d": 410.8101562499942,
      "v": 89
    },
    {
      "midi": 64,
      "hit": false,
      "t": 45842.199999999975,
      "d": 424.85494791666133,
      "v": 89
    },
    {
      "midi": 64,
      "hit": false,
      "t": 45842.20000000001,
      "d": 1211.36328125,
      "v": 88
    },
    {
      "midi": 61,
      "hit": false,
      "t": 45842.20000000001,
      "d": 1218.38567708333,
      "v": 84
    },
    {
      "midi": 42,
      "hit": false,
      "t": 45842.20000000001,
      "d": 1309.6768229166628,
      "v": 94
    },
    {
      "midi": 42,
      "hit": false,
      "t": 46403.99166666664,
      "d": 431.87734374999854,
      "v": 85
    },
    {
      "midi": 61,
      "hit": false,
      "t": 46403.99166666664,
      "d": 438.8997395833285,
      "v": 81
    },
    {
      "midi": 57,
      "hit": false,
      "t": 46403.99166666664,
      "d": 445.9221354166584,
      "v": 71
    },
    {
      "midi": 57,
      "hit": false,
      "t": 46853.42499999997,
      "d": 3.511197916668607,
      "v": 77
    },
    {
      "midi": 42,
      "hit": false,
      "t": 46853.42499999997,
      "d": 101.82473958333867,
      "v": 89
    },
    {
      "midi": 61,
      "hit": false,
      "t": 46853.42499999997,
      "d": 108.8471354166686,
      "v": 85
    },
    {
      "midi": 42,
      "hit": false,
      "t": 47190.49999999997,
      "d": 1337.766406249997,
      "v": 93
    },
    {
      "midi": 57,
      "hit": false,
      "t": 47190.49999999997,
      "d": 1337.766406249997,
      "v": 89
    },
    {
      "midi": 62,
      "hit": false,
      "t": 47190.49999999997,
      "d": 1337.766406249997,
      "v": 99
    },
    {
      "midi": 66,
      "hit": false,
      "t": 47190.50000000001,
      "d": 1183.2736979166657,
      "v": 84
    },
    {
      "midi": 62,
      "hit": false,
      "t": 47190.50000000001,
      "d": 1190.2960937499956,
      "v": 80
    },
    {
      "midi": 57,
      "hit": false,
      "t": 47190.50000000001,
      "d": 1281.5872395833285,
      "v": 76
    },
    {
      "midi": 47,
      "hit": false,
      "t": 47190.50000000001,
      "d": 1330.7440104166599,
      "v": 98
    },
    {
      "midi": 40,
      "hit": false,
      "t": 48538.8,
      "d": 2679.044010416663,
      "v": 106
    },
    {
      "midi": 55,
      "hit": false,
      "t": 48538.8,
      "d": 2679.044010416663,
      "v": 98
    },
    {
      "midi": 59,
      "hit": false,
      "t": 48538.8,
      "d": 2679.044010416663,
      "v": 98
    },
    {
      "midi": 62,
      "hit": false,
      "t": 48538.8,
      "d": 2679.044010416663,
      "v": 80
    },
    {
      "midi": 64,
      "hit": false,
      "t": 48538.8,
      "d": 2679.044010416663,
      "v": 94
    },
    {
      "midi": 67,
      "hit": false,
      "t": 50884.2802083333,
      "d": 2580.7304687500073,
      "v": 81
    },
    {
      "midi": 64,
      "hit": false,
      "t": 50954.50416666664,
      "d": 2587.752864583337,
      "v": 93
    },
    {
      "midi": 62,
      "hit": false,
      "t": 51024.72812499997,
      "d": 2496.4617187500044,
      "v": 105
    },
    {
      "midi": 59,
      "hit": false,
      "t": 51094.95208333331,
      "d": 2412.1929687500015,
      "v": 93
    },
    {
      "midi": 57,
      "hit": false,
      "t": 51165.176041666644,
      "d": 2250.677864583333,
      "v": 89
    },
    {
      "midi": 45,
      "hit": false,
      "t": 51235.39999999998,
      "d": 2377.08098958333,
      "v": 89
    },
    {
      "midi": 45,
      "hit": false,
      "t": 51235.4,
      "d": 2679.04401041667,
      "v": 102
    },
    {
      "midi": 55,
      "hit": false,
      "t": 51235.4,
      "d": 2679.04401041667,
      "v": 98
    },
    {
      "midi": 59,
      "hit": false,
      "t": 51235.4,
      "d": 2679.04401041667,
      "v": 102
    },
    {
      "midi": 62,
      "hit": false,
      "t": 51235.4,
      "d": 2679.04401041667,
      "v": 84
    },
    {
      "midi": 64,
      "hit": false,
      "t": 51235.4,
      "d": 2679.04401041667,
      "v": 88
    },
    {
      "midi": 57,
      "hit": false,
      "t": 53931.99999999998,
      "d": 1330.7440104166672,
      "v": 81
    },
    {
      "midi": 64,
      "hit": false,
      "t": 53931.99999999998,
      "d": 1337.766406249997,
      "v": 81
    },
    {
      "midi": 42,
      "hit": false,
      "t": 53931.99999999998,
      "d": 1450.124739583327,
      "v": 71
    },
    {
      "midi": 64,
      "hit": false,
      "t": 53932.00000000001,
      "d": 1253.4976562500015,
      "v": 94
    },
    {
      "midi": 57,
      "hit": false,
      "t": 53932.00000000001,
      "d": 1260.5200520833314,
      "v": 80
    },
    {
      "midi": 61,
      "hit": false,
      "t": 53932.00000000001,
      "d": 1281.5872395833285,
      "v": 88
    },
    {
      "midi": 42,
      "hit": false,
      "t": 53932.00000000001,
      "d": 1344.788802083327,
      "v": 88
    },
    {
      "midi": 47,
      "hit": false,
      "t": 55280.3,
      "d": 1337.766406249997,
      "v": 98
    },
    {
      "midi": 62,
      "hit": false,
      "t": 55280.3,
      "d": 1337.766406249997,
      "v": 68
    },
    {
      "midi": 66,
      "hit": false,
      "t": 55280.3,
      "d": 1337.766406249997,
      "v": 80
    },
    {
      "midi": 57,
      "hit": false,
      "t": 55280.3,
      "d": 2679.0440104166555,
      "v": 72
    },
    {
      "midi": 47,
      "hit": false,
      "t": 55505.01666666664,
      "d": 937.4898437499942,
      "v": 99
    },
    {
      "midi": 62,
      "hit": false,
      "t": 55617.37499999997,
      "d": 754.9075520833285,
      "v": 105
    },
    {
      "midi": 57,
      "hit": false,
      "t": 55617.37499999997,
      "d": 782.9971354166628,
      "v": 99
    },
    {
      "midi": 54,
      "hit": false,
      "t": 55954.44999999997,
      "d": 431.87734374999854,
      "v": 89
    },
    {
      "midi": 42,
      "hit": false,
      "t": 56628.59999999997,
      "d": 403.78776041666424,
      "v": 89
    },
    {
      "midi": 57,
      "hit": false,
      "t": 56628.59999999997,
      "d": 410.8101562499942,
      "v": 89
    },
    {
      "midi": 64,
      "hit": false,
      "t": 56628.59999999997,
      "d": 424.85494791666133,
      "v": 89
    },
    {
      "midi": 64,
      "hit": false,
      "t": 56628.6,
      "d": 1211.36328125,
      "v": 88
    },
    {
      "midi": 61,
      "hit": false,
      "t": 56628.6,
      "d": 1218.38567708333,
      "v": 84
    },
    {
      "midi": 42,
      "hit": false,
      "t": 56628.6,
      "d": 1309.6768229166628,
      "v": 94
    },
    {
      "midi": 42,
      "hit": false,
      "t": 57190.391666666634,
      "d": 431.87734374999854,
      "v": 85
    },
    {
      "midi": 61,
      "hit": false,
      "t": 57190.391666666634,
      "d": 438.8997395833285,
      "v": 81
    },
    {
      "midi": 57,
      "hit": false,
      "t": 57190.391666666634,
      "d": 445.9221354166584,
      "v": 71
    },
    {
      "midi": 57,
      "hit": false,
      "t": 57639.82499999996,
      "d": 3.511197916668607,
      "v": 77
    },
    {
      "midi": 42,
      "hit": false,
      "t": 57639.82499999996,
      "d": 101.82473958333867,
      "v": 89
    },
    {
      "midi": 61,
      "hit": false,
      "t": 57639.82499999996,
      "d": 108.8471354166686,
      "v": 85
    },
    {
      "midi": 62,
      "hit": false,
      "t": 57976.899999999965,
      "d": 993.6690104166701,
      "v": 99
    },
    {
      "midi": 57,
      "hit": false,
      "t": 57976.899999999965,
      "d": 1014.7361979166672,
      "v": 89
    },
    {
      "midi": 42,
      "hit": false,
      "t": 57976.899999999965,
      "d": 1042.8257812500015,
      "v": 93
    },
    {
      "midi": 66,
      "hit": false,
      "t": 57976.899999999994,
      "d": 1183.2736979166657,
      "v": 84
    },
    {
      "midi": 62,
      "hit": false,
      "t": 57976.899999999994,
      "d": 1190.2960937499956,
      "v": 80
    },
    {
      "midi": 57,
      "hit": false,
      "t": 57976.899999999994,
      "d": 1281.5872395833285,
      "v": 76
    },
    {
      "midi": 47,
      "hit": false,
      "t": 57976.899999999994,
      "d": 1330.7440104166599,
      "v": 98
    },
    {
      "midi": 55,
      "hit": false,
      "t": 59325.19999999997,
      "d": 1049.8481770833314,
      "v": 89
    },
    {
      "midi": 40,
      "hit": false,
      "t": 59325.19999999997,
      "d": 1070.9153645833285,
      "v": 71
    },
    {
      "midi": 52,
      "hit": false,
      "t": 59325.19999999997,
      "d": 1113.04973958333,
      "v": 77
    },
    {
      "midi": 40,
      "hit": false,
      "t": 59325.19999999999,
      "d": 2679.04401041667,
      "v": 106
    },
    {
      "midi": 55,
      "hit": false,
      "t": 59325.19999999999,
      "d": 2679.04401041667,
      "v": 98
    },
    {
      "midi": 59,
      "hit": false,
      "t": 59325.19999999999,
      "d": 2679.04401041667,
      "v": 98
    },
    {
      "midi": 62,
      "hit": false,
      "t": 59325.19999999999,
      "d": 2679.04401041667,
      "v": 80
    },
    {
      "midi": 64,
      "hit": false,
      "t": 59325.19999999999,
      "d": 2679.04401041667,
      "v": 94
    },
    {
      "midi": 64,
      "hit": false,
      "t": 60561.141666666634,
      "d": 24.578385416665697,
      "v": 47
    },
    {
      "midi": 62,
      "hit": false,
      "t": 60561.141666666634,
      "d": 31.600781249995634,
      "v": 47
    },
    {
      "midi": 59,
      "hit": false,
      "t": 60561.141666666634,
      "d": 52.667968749992724,
      "v": 81
    },
    {
      "midi": 55,
      "hit": false,
      "t": 60561.141666666634,
      "d": 59.69036458332266,
      "v": 67
    },
    {
      "midi": 40,
      "hit": false,
      "t": 60898.21666666662,
      "d": 775.9747395833328,
      "v": 99
    },
    {
      "midi": 55,
      "hit": false,
      "t": 60898.21666666662,
      "d": 1007.7138020833299,
      "v": 99
    },
    {
      "midi": 59,
      "hit": false,
      "t": 60898.21666666662,
      "d": 1007.7138020833299,
      "v": 99
    },
    {
      "midi": 62,
      "hit": false,
      "t": 60898.21666666662,
      "d": 1014.7361979166599,
      "v": 81
    },
    {
      "midi": 64,
      "hit": false,
      "t": 60898.21666666662,
      "d": 1021.7585937499898,
      "v": 99
    },
    {
      "midi": 43,
      "hit": false,
      "t": 61684.724999999955,
      "d": 263.3398437499927,
      "v": 105
    },
    {
      "midi": 45,
      "hit": false,
      "t": 62021.799999999945,
      "d": 2159.38671875,
      "v": 85
    },
    {
      "midi": 57,
      "hit": false,
      "t": 62021.799999999945,
      "d": 2208.5434895833314,
      "v": 85
    },
    {
      "midi": 45,
      "hit": false,
      "t": 62021.799999999996,
      "d": 2679.04401041667,
      "v": 102
    },
    {
      "midi": 55,
      "hit": false,
      "t": 62021.799999999996,
      "d": 2679.04401041667,
      "v": 98
    },
    {
      "midi": 59,
      "hit": false,
      "t": 62021.799999999996,
      "d": 2679.04401041667,
      "v": 102
    },
    {
      "midi": 62,
      "hit": false,
      "t": 62021.799999999996,
      "d": 2679.04401041667,
      "v": 84
    },
    {
      "midi": 64,
      "hit": false,
      "t": 62021.799999999996,
      "d": 2679.04401041667,
      "v": 88
    },
    {
      "midi": 62,
      "hit": false,
      "t": 62358.87499999994,
      "d": 1885.5132812500015,
      "v": 85
    },
    {
      "midi": 64,
      "hit": false,
      "t": 62358.87499999994,
      "d": 1892.5356770833314,
      "v": 81
    },
    {
      "midi": 59,
      "hit": false,
      "t": 62358.87499999994,
      "d": 1920.6252604166657,
      "v": 81
    },
    {
      "midi": 67,
      "hit": false,
      "t": 64718.39999999994,
      "d": 1948.7148437499927,
      "v": 89
    },
    {
      "midi": 69,
      "hit": false,
      "t": 64718.39999999994,
      "d": 1948.7148437499927,
      "v": 85
    },
    {
      "midi": 62,
      "hit": false,
      "t": 64718.39999999994,
      "d": 1955.73723958333,
      "v": 81
    },
    {
      "midi": 64,
      "hit": false,
      "t": 64718.39999999994,
      "d": 1955.73723958333,
      "v": 63
    },
    {
      "midi": 45,
      "hit": false,
      "t": 64718.39999999994,
      "d": 1969.7820312499898,
      "v": 81
    },
    {
      "midi": 69,
      "hit": false,
      "t": 64718.4,
      "d": 298.45182291666424,
      "v": 102
    },
    {
      "midi": 45,
      "hit": false,
      "t": 64718.4,
      "d": 333.5638020833285,
      "v": 102
    },
    {
      "midi": 47,
      "hit": false,
      "t": 65055.475,
      "d": 94.80234375000146,
      "v": 80
    },
    {
      "midi": 71,
      "hit": false,
      "t": 65055.475,
      "d": 101.8247395833314,
      "v": 106
    },
    {
      "midi": 47,
      "hit": false,
      "t": 65392.549999999996,
      "d": 228.22786458333576,
      "v": 102
    },
    {
      "midi": 71,
      "hit": false,
      "t": 65392.549999999996,
      "d": 291.4294270833416,
      "v": 108
    },
    {
      "midi": 49,
      "hit": false,
      "t": 65729.625,
      "d": 101.8247395833314,
      "v": 102
    },
    {
      "midi": 73,
      "hit": false,
      "t": 65729.625,
      "d": 101.8247395833314,
      "v": 88
    },
    {
      "midi": 73,
      "hit": false,
      "t": 66066.7,
      "d": 291.4294270833343,
      "v": 98
    },
    {
      "midi": 49,
      "hit": false,
      "t": 66066.7,
      "d": 305.4742187499942,
      "v": 102
    },
    {
      "midi": 74,
      "hit": false,
      "t": 66403.775,
      "d": 101.8247395833314,
      "v": 98
    },
    {
      "midi": 50,
      "hit": false,
      "t": 66403.775,
      "d": 122.89192708332848,
      "v": 102
    },
    {
      "midi": 50,
      "hit": false,
      "t": 66740.84999999999,
      "d": 326.5414062500058,
      "v": 102
    },
    {
      "midi": 74,
      "hit": false,
      "t": 66740.84999999999,
      "d": 333.56380208334303,
      "v": 106
    },
    {
      "midi": 76,
      "hit": false,
      "t": 67077.925,
      "d": 136.9367187500029,
      "v": 98
    },
    {
      "midi": 52,
      "hit": false,
      "t": 67077.925,
      "d": 158.00390625,
      "v": 114
    },
    {
      "midi": 43,
      "hit": false,
      "t": 67414.99999999993,
      "d": 2018.9388020833285,
      "v": 111
    },
    {
      "midi": 62,
      "hit": false,
      "t": 67414.99999999993,
      "d": 2686.06640625,
      "v": 93
    },
    {
      "midi": 66,
      "hit": false,
      "t": 67414.99999999993,
      "d": 2686.06640625,
      "v": 81
    },
    {
      "midi": 57,
      "hit": false,
      "t": 67415,
      "d": 2679.044010416663,
      "v": 94
    },
    {
      "midi": 62,
      "hit": false,
      "t": 67415,
      "d": 2679.044010416663,
      "v": 98
    },
    {
      "midi": 66,
      "hit": false,
      "t": 67415,
      "d": 2679.044010416663,
      "v": 94
    },
    {
      "midi": 43,
      "hit": false,
      "t": 69437.44999999992,
      "d": 663.6164062500029,
      "v": 77
    },
    {
      "midi": 42,
      "hit": false,
      "t": 70111.59999999993,
      "d": 1695.9085937500058,
      "v": 85
    },
    {
      "midi": 64,
      "hit": false,
      "t": 70111.59999999993,
      "d": 1913.602864583343,
      "v": 77
    },
    {
      "midi": 57,
      "hit": false,
      "t": 70111.59999999993,
      "d": 1920.6252604166802,
      "v": 63
    },
    {
      "midi": 59,
      "hit": false,
      "t": 70111.59999999993,
      "d": 1920.6252604166802,
      "v": 81
    },
    {
      "midi": 57,
      "hit": false,
      "t": 70111.59999999999,
      "d": 1035.8033854166715,
      "v": 88
    },
    {
      "midi": 59,
      "hit": false,
      "t": 70111.59999999999,
      "d": 1056.8705729166686,
      "v": 98
    },
    {
      "midi": 64,
      "hit": false,
      "t": 70111.59999999999,
      "d": 1077.9377604166657,
      "v": 84
    },
    {
      "midi": 42,
      "hit": false,
      "t": 70111.59999999999,
      "d": 2679.044010416663,
      "v": 84
    },
    {
      "midi": 61,
      "hit": false,
      "t": 71291.36249999999,
      "d": 1309.6768229166628,
      "v": 80
    },
    {
      "midi": 57,
      "hit": false,
      "t": 71291.36249999999,
      "d": 1450.1247395833343,
      "v": 84
    },
    {
      "midi": 64,
      "hit": false,
      "t": 71291.36249999999,
      "d": 1464.1695312499942,
      "v": 72
    },
    {
      "midi": 59,
      "hit": false,
      "t": 71291.36249999999,
      "d": 1471.1919270833314,
      "v": 84
    },
    {
      "midi": 57,
      "hit": false,
      "t": 72134.04999999994,
      "d": 466.9893229166628,
      "v": 45
    },
    {
      "midi": 59,
      "hit": false,
      "t": 72134.04999999994,
      "d": 481.03411458332266,
      "v": 49
    },
    {
      "midi": 64,
      "hit": false,
      "t": 72134.04999999994,
      "d": 537.2132812499913,
      "v": 51
    },
    {
      "midi": 42,
      "hit": false,
      "t": 72134.04999999994,
      "d": 607.4372395833198,
      "v": 53
    },
    {
      "midi": 40,
      "hit": false,
      "t": 72808.19999999992,
      "d": 1407.9903645833401,
      "v": 105
    },
    {
      "midi": 55,
      "hit": false,
      "t": 72808.19999999992,
      "d": 2615.8424479166715,
      "v": 85
    },
    {
      "midi": 64,
      "hit": false,
      "t": 72808.19999999992,
      "d": 2622.8648437500087,
      "v": 85
    },
    {
      "midi": 59,
      "hit": false,
      "t": 72808.19999999992,
      "d": 2629.887239583346,
      "v": 93
    },
    {
      "midi": 62,
      "hit": false,
      "t": 72808.19999999992,
      "d": 2629.887239583346,
      "v": 77
    },
    {
      "midi": 59,
      "hit": false,
      "t": 72808.19999999998,
      "d": 2679.044010416663,
      "v": 96
    },
    {
      "midi": 62,
      "hit": false,
      "t": 72808.19999999998,
      "d": 2679.044010416663,
      "v": 102
    },
    {
      "midi": 64,
      "hit": false,
      "t": 72808.19999999998,
      "d": 2679.044010416663,
      "v": 102
    },
    {
      "midi": 40,
      "hit": false,
      "t": 74325.03749999993,
      "d": 1197.3184895833256,
      "v": 111
    },
    {
      "midi": 40,
      "hit": false,
      "t": 74830.64999999998,
      "d": 628.5044270833314,
      "v": 106
    },
    {
      "midi": 43,
      "hit": false,
      "t": 75504.79999999993,
      "d": 1260.5200520833314,
      "v": 99
    },
    {
      "midi": 64,
      "hit": false,
      "t": 75504.79999999993,
      "d": 1358.8335937499942,
      "v": 71
    },
    {
      "midi": 55,
      "hit": false,
      "t": 75504.79999999993,
      "d": 1365.8559895833314,
      "v": 67
    },
    {
      "midi": 62,
      "hit": false,
      "t": 75504.79999999993,
      "d": 1372.8783854166686,
      "v": 67
    },
    {
      "midi": 59,
      "hit": false,
      "t": 75504.79999999993,
      "d": 1386.9231770833285,
      "v": 81
    },
    {
      "midi": 55,
      "hit": false,
      "t": 75504.79999999997,
      "d": 2679.044010416663,
      "v": 98
    },
    {
      "midi": 59,
      "hit": false,
      "t": 75504.79999999997,
      "d": 2679.044010416663,
      "v": 102
    },
    {
      "midi": 62,
      "hit": false,
      "t": 75504.79999999997,
      "d": 2679.044010416663,
      "v": 80
    },
    {
      "midi": 64,
      "hit": false,
      "t": 75504.79999999997,
      "d": 2679.044010416663,
      "v": 94
    },
    {
      "midi": 64,
      "hit": false,
      "t": 77021.63749999992,
      "d": 66.71276041665988,
      "v": 67
    },
    {
      "midi": 62,
      "hit": false,
      "t": 77021.63749999992,
      "d": 87.77994791665697,
      "v": 63
    },
    {
      "midi": 55,
      "hit": false,
      "t": 77021.63749999992,
      "d": 94.80234374999418,
      "v": 71
    },
    {
      "midi": 59,
      "hit": false,
      "t": 77021.63749999992,
      "d": 94.80234374999418,
      "v": 81
    },
    {
      "midi": 45,
      "hit": false,
      "t": 77358.71249999992,
      "d": 565.3028645833401,
      "v": 93
    },
    {
      "midi": 64,
      "hit": false,
      "t": 77527.24999999993,
      "d": 403.7877604166715,
      "v": 81
    },
    {
      "midi": 55,
      "hit": false,
      "t": 77527.24999999993,
      "d": 410.81015625000873,
      "v": 93
    },
    {
      "midi": 59,
      "hit": false,
      "t": 77527.24999999993,
      "d": 417.83255208334594,
      "v": 99
    },
    {
      "midi": 62,
      "hit": false,
      "t": 77527.24999999993,
      "d": 417.83255208334594,
      "v": 85
    },
    {
      "midi": 43,
      "hit": false,
      "t": 78201.39999999994,
      "d": 1723.9981770833401,
      "v": 111
    },
    {
      "midi": 66,
      "hit": false,
      "t": 78201.39999999994,
      "d": 2384.1033854166744,
      "v": 81
    },
    {
      "midi": 62,
      "hit": false,
      "t": 78201.39999999994,
      "d": 2433.260156250006,
      "v": 93
    },
    {
      "midi": 57,
      "hit": false,
      "t": 78201.39999999997,
      "d": 2679.044010416663,
      "v": 94
    },
    {
      "midi": 62,
      "hit": false,
      "t": 78201.39999999997,
      "d": 2679.044010416663,
      "v": 102
    },
    {
      "midi": 66,
      "hit": false,
      "t": 78201.39999999997,
      "d": 2679.044010416663,
      "v": 84
    },
    {
      "midi": 43,
      "hit": false,
      "t": 80223.84999999995,
      "d": 579.34765625,
      "v": 77
    },
    {
      "midi": 42,
      "hit": false,
      "t": 80897.99999999994,
      "d": 1695.9085937500058,
      "v": 85
    },
    {
      "midi": 64,
      "hit": false,
      "t": 80897.99999999994,
      "d": 1913.602864583343,
      "v": 77
    },
    {
      "midi": 57,
      "hit": false,
      "t": 80897.99999999994,
      "d": 1920.6252604166802,
      "v": 63
    },
    {
      "midi": 59,
      "hit": false,
      "t": 80897.99999999994,
      "d": 1920.6252604166802,
      "v": 81
    },
    {
      "midi": 59,
      "hit": false,
      "t": 80897.99999999996,
      "d": 2679.044010416663,
      "v": 84
    },
    {
      "midi": 64,
      "hit": false,
      "t": 80897.99999999996,
      "d": 2679.044010416663,
      "v": 98
    },
    {
      "midi": 57,
      "hit": false,
      "t": 82920.44999999995,
      "d": 466.9893229166628,
      "v": 45
    },
    {
      "midi": 59,
      "hit": false,
      "t": 82920.44999999995,
      "d": 481.03411458332266,
      "v": 49
    },
    {
      "midi": 64,
      "hit": false,
      "t": 82920.44999999995,
      "d": 537.2132812499913,
      "v": 51
    },
    {
      "midi": 42,
      "hit": false,
      "t": 82920.44999999995,
      "d": 607.4372395833198,
      "v": 53
    },
    {
      "midi": 40,
      "hit": false,
      "t": 83594.59999999993,
      "d": 1407.9903645833401,
      "v": 105
    },
    {
      "midi": 55,
      "hit": false,
      "t": 83594.59999999993,
      "d": 2615.8424479166715,
      "v": 85
    },
    {
      "midi": 64,
      "hit": false,
      "t": 83594.59999999993,
      "d": 2622.8648437500087,
      "v": 85
    },
    {
      "midi": 59,
      "hit": false,
      "t": 83594.59999999993,
      "d": 2629.887239583346,
      "v": 93
    },
    {
      "midi": 62,
      "hit": false,
      "t": 83594.59999999993,
      "d": 2629.887239583346,
      "v": 77
    },
    {
      "midi": 55,
      "hit": false,
      "t": 83594.59999999995,
      "d": 2679.044010416663,
      "v": 98
    },
    {
      "midi": 59,
      "hit": false,
      "t": 83594.59999999995,
      "d": 2679.044010416663,
      "v": 106
    },
    {
      "midi": 62,
      "hit": false,
      "t": 83594.59999999995,
      "d": 2679.044010416663,
      "v": 98
    },
    {
      "midi": 40,
      "hit": false,
      "t": 85111.43749999994,
      "d": 1197.3184895833256,
      "v": 111
    },
    {
      "midi": 55,
      "hit": false,
      "t": 86291.19999999994,
      "d": 2679.044010416663,
      "v": 80
    },
    {
      "midi": 59,
      "hit": false,
      "t": 86291.19999999994,
      "d": 2679.044010416663,
      "v": 102
    },
    {
      "midi": 62,
      "hit": false,
      "t": 86291.19999999994,
      "d": 2679.044010416663,
      "v": 98
    },
    {
      "midi": 55,
      "hit": false,
      "t": 86291.19999999994,
      "d": 1590.5726562499913,
      "v": 85
    },
    {
      "midi": 62,
      "hit": false,
      "t": 86291.19999999994,
      "d": 1590.5726562499913,
      "v": 77
    },
    {
      "midi": 64,
      "hit": false,
      "t": 86291.19999999994,
      "d": 1590.5726562499913,
      "v": 81
    },
    {
      "midi": 59,
      "hit": false,
      "t": 86291.19999999994,
      "d": 1625.6846354166628,
      "v": 89
    },
    {
      "midi": 45,
      "hit": false,
      "t": 86291.19999999994,
      "d": 2545.618489583314,
      "v": 99
    },
    {
      "midi": 57,
      "hit": false,
      "t": 88201.2916666666,
      "d": 73.73515624999709,
      "v": 105
    },
    {
      "midi": 64,
      "hit": false,
      "t": 88201.2916666666,
      "d": 73.73515624999709,
      "v": 99
    },
    {
      "midi": 62,
      "hit": false,
      "t": 88538.3666666666,
      "d": 284.4070312499971,
      "v": 99
    },
    {
      "midi": 55,
      "hit": false,
      "t": 88538.3666666666,
      "d": 298.45182291665697,
      "v": 99
    },
    {
      "midi": 57,
      "hit": false,
      "t": 88987.79999999992,
      "d": 1330.7440104166599,
      "v": 81
    },
    {
      "midi": 64,
      "hit": false,
      "t": 88987.79999999992,
      "d": 1337.766406249997,
      "v": 81
    },
    {
      "midi": 42,
      "hit": false,
      "t": 88987.79999999992,
      "d": 1450.1247395833343,
      "v": 71
    },
    {
      "midi": 64,
      "hit": false,
      "t": 88987.79999999993,
      "d": 1253.4976562499942,
      "v": 94
    },
    {
      "midi": 57,
      "hit": false,
      "t": 88987.79999999993,
      "d": 1260.5200520833314,
      "v": 80
    },
    {
      "midi": 61,
      "hit": false,
      "t": 88987.79999999993,
      "d": 1281.5872395833285,
      "v": 88
    },
    {
      "midi": 42,
      "hit": false,
      "t": 88987.79999999993,
      "d": 1344.7888020833343,
      "v": 88
    },
    {
      "midi": 62,
      "hit": false,
      "t": 90336.09999999993,
      "d": 1204.3408854166628,
      "v": 68
    },
    {
      "midi": 66,
      "hit": false,
      "t": 90336.09999999993,
      "d": 1225.4080729166599,
      "v": 80
    },
    {
      "midi": 47,
      "hit": false,
      "t": 90336.09999999993,
      "d": 1302.6544270833256,
      "v": 98
    },
    {
      "midi": 57,
      "hit": false,
      "t": 90336.09999999993,
      "d": 2679.044010416663,
      "v": 72
    },
    {
      "midi": 47,
      "hit": false,
      "t": 90560.81666666658,
      "d": 937.4898437499796,
      "v": 99
    },
    {
      "midi": 62,
      "hit": false,
      "t": 90673.17499999992,
      "d": 754.9075520833285,
      "v": 105
    },
    {
      "midi": 57,
      "hit": false,
      "t": 90673.17499999992,
      "d": 782.9971354166482,
      "v": 99
    },
    {
      "midi": 54,
      "hit": false,
      "t": 91010.24999999991,
      "d": 431.87734374999127,
      "v": 89
    },
    {
      "midi": 42,
      "hit": false,
      "t": 91684.39999999989,
      "d": 403.7877604166715,
      "v": 89
    },
    {
      "midi": 57,
      "hit": false,
      "t": 91684.39999999989,
      "d": 410.81015625000873,
      "v": 89
    },
    {
      "midi": 64,
      "hit": false,
      "t": 91684.39999999989,
      "d": 424.8549479166686,
      "v": 89
    },
    {
      "midi": 64,
      "hit": false,
      "t": 91684.39999999992,
      "d": 1211.36328125,
      "v": 88
    },
    {
      "midi": 61,
      "hit": false,
      "t": 91684.39999999992,
      "d": 1218.3856770833372,
      "v": 84
    },
    {
      "midi": 42,
      "hit": false,
      "t": 91684.39999999992,
      "d": 1309.6768229166773,
      "v": 94
    },
    {
      "midi": 42,
      "hit": false,
      "t": 92246.19166666656,
      "d": 431.8773437500058,
      "v": 85
    },
    {
      "midi": 61,
      "hit": false,
      "t": 92246.19166666656,
      "d": 438.89973958334303,
      "v": 81
    },
    {
      "midi": 57,
      "hit": false,
      "t": 92246.19166666656,
      "d": 445.92213541668025,
      "v": 71
    },
    {
      "midi": 57,
      "hit": false,
      "t": 92695.62499999991,
      "d": 3.511197916668607,
      "v": 77
    },
    {
      "midi": 42,
      "hit": false,
      "t": 92695.62499999991,
      "d": 101.8247395833314,
      "v": 89
    },
    {
      "midi": 61,
      "hit": false,
      "t": 92695.62499999991,
      "d": 108.8471354166686,
      "v": 85
    },
    {
      "midi": 42,
      "hit": false,
      "t": 93032.69999999991,
      "d": 1042.8257812499942,
      "v": 93
    },
    {
      "midi": 57,
      "hit": false,
      "t": 93032.69999999991,
      "d": 1337.766406249997,
      "v": 89
    },
    {
      "midi": 62,
      "hit": false,
      "t": 93032.69999999991,
      "d": 1337.766406249997,
      "v": 99
    },
    {
      "midi": 66,
      "hit": false,
      "t": 93032.69999999992,
      "d": 1183.2736979166657,
      "v": 84
    },
    {
      "midi": 62,
      "hit": false,
      "t": 93032.69999999992,
      "d": 1190.296093750003,
      "v": 80
    },
    {
      "midi": 57,
      "hit": false,
      "t": 93032.69999999992,
      "d": 1281.587239583343,
      "v": 76
    },
    {
      "midi": 47,
      "hit": false,
      "t": 93032.69999999992,
      "d": 1330.7440104166744,
      "v": 98
    },
    {
      "midi": 40,
      "hit": false,
      "t": 94380.99999999993,
      "d": 2679.044010416663,
      "v": 106
    },
    {
      "midi": 55,
      "hit": false,
      "t": 94380.99999999993,
      "d": 2679.044010416663,
      "v": 98
    },
    {
      "midi": 59,
      "hit": false,
      "t": 94380.99999999993,
      "d": 2679.044010416663,
      "v": 98
    },
    {
      "midi": 62,
      "hit": false,
      "t": 94380.99999999993,
      "d": 2679.044010416663,
      "v": 80
    },
    {
      "midi": 64,
      "hit": false,
      "t": 94380.99999999993,
      "d": 2679.044010416663,
      "v": 94
    },
    {
      "midi": 67,
      "hit": false,
      "t": 96726.48020833325,
      "d": 2580.730468749971,
      "v": 81
    },
    {
      "midi": 64,
      "hit": false,
      "t": 96796.70416666658,
      "d": 2587.7528645832936,
      "v": 93
    },
    {
      "midi": 62,
      "hit": false,
      "t": 96866.9281249999,
      "d": 2496.461718749968,
      "v": 105
    },
    {
      "midi": 59,
      "hit": false,
      "t": 96937.15208333323,
      "d": 2412.1929687499796,
      "v": 93
    },
    {
      "midi": 57,
      "hit": false,
      "t": 97007.37604166656,
      "d": 2250.6778645833256,
      "v": 89
    },
    {
      "midi": 45,
      "hit": false,
      "t": 97077.59999999989,
      "d": 2377.080989583308,
      "v": 89
    },
    {
      "midi": 45,
      "hit": false,
      "t": 97077.59999999992,
      "d": 2679.044010416663,
      "v": 102
    },
    {
      "midi": 55,
      "hit": false,
      "t": 97077.59999999992,
      "d": 2679.044010416663,
      "v": 98
    },
    {
      "midi": 59,
      "hit": false,
      "t": 97077.59999999992,
      "d": 2679.044010416663,
      "v": 102
    },
    {
      "midi": 62,
      "hit": false,
      "t": 97077.59999999992,
      "d": 2679.044010416663,
      "v": 84
    },
    {
      "midi": 64,
      "hit": false,
      "t": 97077.59999999992,
      "d": 2679.044010416663,
      "v": 88
    },
    {
      "midi": 57,
      "hit": false,
      "t": 99774.19999999987,
      "d": 1330.7440104166599,
      "v": 81
    },
    {
      "midi": 64,
      "hit": false,
      "t": 99774.19999999987,
      "d": 1337.766406249997,
      "v": 81
    },
    {
      "midi": 42,
      "hit": false,
      "t": 99774.19999999987,
      "d": 1450.1247395833343,
      "v": 71
    },
    {
      "midi": 64,
      "hit": false,
      "t": 99774.19999999991,
      "d": 1253.4976562499942,
      "v": 94
    },
    {
      "midi": 57,
      "hit": false,
      "t": 99774.19999999991,
      "d": 1260.5200520833314,
      "v": 80
    },
    {
      "midi": 61,
      "hit": false,
      "t": 99774.19999999991,
      "d": 1281.5872395833285,
      "v": 88
    },
    {
      "midi": 42,
      "hit": false,
      "t": 99774.19999999991,
      "d": 1344.7888020833343,
      "v": 88
    },
    {
      "midi": 62,
      "hit": false,
      "t": 101122.49999999991,
      "d": 1204.3408854166628,
      "v": 68
    },
    {
      "midi": 66,
      "hit": false,
      "t": 101122.49999999991,
      "d": 1225.4080729166599,
      "v": 80
    },
    {
      "midi": 47,
      "hit": false,
      "t": 101122.49999999991,
      "d": 1302.6544270833256,
      "v": 98
    },
    {
      "midi": 57,
      "hit": false,
      "t": 101122.49999999991,
      "d": 2679.044010416663,
      "v": 72
    },
    {
      "midi": 47,
      "hit": false,
      "t": 101347.21666666653,
      "d": 937.4898437499796,
      "v": 99
    },
    {
      "midi": 62,
      "hit": false,
      "t": 101459.57499999987,
      "d": 754.9075520833285,
      "v": 105
    },
    {
      "midi": 57,
      "hit": false,
      "t": 101459.57499999987,
      "d": 782.9971354166482,
      "v": 99
    },
    {
      "midi": 54,
      "hit": false,
      "t": 101796.64999999986,
      "d": 431.87734374999127,
      "v": 89
    },
    {
      "midi": 42,
      "hit": false,
      "t": 102470.79999999984,
      "d": 403.7877604166715,
      "v": 89
    },
    {
      "midi": 57,
      "hit": false,
      "t": 102470.79999999984,
      "d": 410.81015625000873,
      "v": 89
    },
    {
      "midi": 64,
      "hit": false,
      "t": 102470.79999999984,
      "d": 424.8549479166686,
      "v": 89
    },
    {
      "midi": 64,
      "hit": false,
      "t": 102470.7999999999,
      "d": 1211.36328125,
      "v": 88
    },
    {
      "midi": 61,
      "hit": false,
      "t": 102470.7999999999,
      "d": 1218.3856770833372,
      "v": 84
    },
    {
      "midi": 42,
      "hit": false,
      "t": 102470.7999999999,
      "d": 1309.6768229166773,
      "v": 94
    },
    {
      "midi": 42,
      "hit": false,
      "t": 103032.59166666651,
      "d": 431.8773437500058,
      "v": 85
    },
    {
      "midi": 61,
      "hit": false,
      "t": 103032.59166666651,
      "d": 438.89973958334303,
      "v": 81
    },
    {
      "midi": 57,
      "hit": false,
      "t": 103032.59166666651,
      "d": 445.92213541668025,
      "v": 71
    },
    {
      "midi": 57,
      "hit": false,
      "t": 103482.02499999986,
      "d": 3.511197916668607,
      "v": 77
    },
    {
      "midi": 42,
      "hit": false,
      "t": 103482.02499999986,
      "d": 101.8247395833314,
      "v": 89
    },
    {
      "midi": 61,
      "hit": false,
      "t": 103482.02499999986,
      "d": 108.8471354166686,
      "v": 85
    },
    {
      "midi": 42,
      "hit": false,
      "t": 103819.09999999986,
      "d": 1337.766406249997,
      "v": 93
    },
    {
      "midi": 57,
      "hit": false,
      "t": 103819.09999999986,
      "d": 1337.766406249997,
      "v": 89
    },
    {
      "midi": 62,
      "hit": false,
      "t": 103819.09999999986,
      "d": 1337.766406249997,
      "v": 99
    },
    {
      "midi": 66,
      "hit": false,
      "t": 103819.0999999999,
      "d": 1183.2736979166657,
      "v": 84
    },
    {
      "midi": 62,
      "hit": false,
      "t": 103819.0999999999,
      "d": 1190.296093750003,
      "v": 80
    },
    {
      "midi": 57,
      "hit": false,
      "t": 103819.0999999999,
      "d": 1281.587239583343,
      "v": 76
    },
    {
      "midi": 47,
      "hit": false,
      "t": 103819.0999999999,
      "d": 1330.7440104166744,
      "v": 98
    },
    {
      "midi": 55,
      "hit": false,
      "t": 105167.39999999986,
      "d": 1049.8481770833314,
      "v": 89
    },
    {
      "midi": 40,
      "hit": false,
      "t": 105167.39999999986,
      "d": 1070.9153645833285,
      "v": 71
    },
    {
      "midi": 52,
      "hit": false,
      "t": 105167.39999999986,
      "d": 1113.0497395833227,
      "v": 77
    },
    {
      "midi": 40,
      "hit": false,
      "t": 105167.3999999999,
      "d": 2679.044010416663,
      "v": 106
    },
    {
      "midi": 55,
      "hit": false,
      "t": 105167.3999999999,
      "d": 2679.044010416663,
      "v": 98
    },
    {
      "midi": 59,
      "hit": false,
      "t": 105167.3999999999,
      "d": 2679.044010416663,
      "v": 98
    },
    {
      "midi": 62,
      "hit": false,
      "t": 105167.3999999999,
      "d": 2679.044010416663,
      "v": 80
    },
    {
      "midi": 64,
      "hit": false,
      "t": 105167.3999999999,
      "d": 2679.044010416663,
      "v": 94
    },
    {
      "midi": 64,
      "hit": false,
      "t": 106403.34166666651,
      "d": 24.578385416665697,
      "v": 47
    },
    {
      "midi": 62,
      "hit": false,
      "t": 106403.34166666651,
      "d": 31.60078125000291,
      "v": 47
    },
    {
      "midi": 59,
      "hit": false,
      "t": 106403.34166666651,
      "d": 52.66796875,
      "v": 81
    },
    {
      "midi": 55,
      "hit": false,
      "t": 106403.34166666651,
      "d": 59.690364583337214,
      "v": 67
    },
    {
      "midi": 40,
      "hit": false,
      "t": 106740.41666666651,
      "d": 775.9747395833401,
      "v": 99
    },
    {
      "midi": 55,
      "hit": false,
      "t": 106740.41666666651,
      "d": 1007.7138020833518,
      "v": 99
    },
    {
      "midi": 59,
      "hit": false,
      "t": 106740.41666666651,
      "d": 1007.7138020833518,
      "v": 99
    },
    {
      "midi": 62,
      "hit": false,
      "t": 106740.41666666651,
      "d": 1014.736197916689,
      "v": 81
    },
    {
      "midi": 64,
      "hit": false,
      "t": 106740.41666666651,
      "d": 1021.7585937500262,
      "v": 99
    },
    {
      "midi": 43,
      "hit": false,
      "t": 107526.92499999986,
      "d": 263.33984375001455,
      "v": 105
    },
    {
      "midi": 45,
      "hit": false,
      "t": 107863.99999999987,
      "d": 2159.38671875,
      "v": 85
    },
    {
      "midi": 57,
      "hit": false,
      "t": 107863.99999999987,
      "d": 2208.5434895833314,
      "v": 85
    },
    {
      "midi": 45,
      "hit": false,
      "t": 107863.9999999999,
      "d": 2679.044010416663,
      "v": 102
    },
    {
      "midi": 55,
      "hit": false,
      "t": 107863.9999999999,
      "d": 2679.044010416663,
      "v": 98
    },
    {
      "midi": 59,
      "hit": false,
      "t": 107863.9999999999,
      "d": 2679.044010416663,
      "v": 102
    },
    {
      "midi": 62,
      "hit": false,
      "t": 107863.9999999999,
      "d": 2679.044010416663,
      "v": 84
    },
    {
      "midi": 64,
      "hit": false,
      "t": 107863.9999999999,
      "d": 2679.044010416663,
      "v": 88
    },
    {
      "midi": 62,
      "hit": false,
      "t": 108201.07499999987,
      "d": 1885.5132812499942,
      "v": 85
    },
    {
      "midi": 64,
      "hit": false,
      "t": 108201.07499999987,
      "d": 1892.5356770833314,
      "v": 81
    },
    {
      "midi": 59,
      "hit": false,
      "t": 108201.07499999987,
      "d": 1920.6252604166657,
      "v": 81
    },
    {
      "midi": 67,
      "hit": false,
      "t": 110560.59999999986,
      "d": 1948.71484375,
      "v": 89
    },
    {
      "midi": 69,
      "hit": false,
      "t": 110560.59999999986,
      "d": 1948.71484375,
      "v": 85
    },
    {
      "midi": 62,
      "hit": false,
      "t": 110560.59999999986,
      "d": 1955.7372395833372,
      "v": 81
    },
    {
      "midi": 64,
      "hit": false,
      "t": 110560.59999999986,
      "d": 1955.7372395833372,
      "v": 63
    },
    {
      "midi": 45,
      "hit": false,
      "t": 110560.59999999986,
      "d": 1969.782031249997,
      "v": 81
    },
    {
      "midi": 69,
      "hit": false,
      "t": 110560.59999999989,
      "d": 298.4518229166715,
      "v": 102
    },
    {
      "midi": 45,
      "hit": false,
      "t": 110560.59999999989,
      "d": 333.56380208334303,
      "v": 102
    },
    {
      "midi": 47,
      "hit": false,
      "t": 110897.6749999999,
      "d": 94.80234374999418,
      "v": 80
    },
    {
      "midi": 71,
      "hit": false,
      "t": 110897.6749999999,
      "d": 101.8247395833314,
      "v": 106
    },
    {
      "midi": 47,
      "hit": false,
      "t": 111234.7499999999,
      "d": 228.22786458332848,
      "v": 102
    },
    {
      "midi": 71,
      "hit": false,
      "t": 111234.7499999999,
      "d": 291.4294270833343,
      "v": 108
    },
    {
      "midi": 49,
      "hit": false,
      "t": 111571.8249999999,
      "d": 101.8247395833314,
      "v": 102
    },
    {
      "midi": 73,
      "hit": false,
      "t": 111571.8249999999,
      "d": 101.8247395833314,
      "v": 88
    },
    {
      "midi": 73,
      "hit": false,
      "t": 111908.89999999989,
      "d": 291.4294270833343,
      "v": 98
    },
    {
      "midi": 49,
      "hit": false,
      "t": 111908.89999999989,
      "d": 305.4742187499942,
      "v": 102
    },
    {
      "midi": 74,
      "hit": false,
      "t": 112245.97499999989,
      "d": 101.8247395833314,
      "v": 98
    },
    {
      "midi": 50,
      "hit": false,
      "t": 112245.97499999989,
      "d": 122.89192708332848,
      "v": 102
    },
    {
      "midi": 50,
      "hit": false,
      "t": 112583.04999999989,
      "d": 326.5414062500058,
      "v": 102
    },
    {
      "midi": 74,
      "hit": false,
      "t": 112583.04999999989,
      "d": 333.56380208334303,
      "v": 106
    },
    {
      "midi": 76,
      "hit": false,
      "t": 112920.1249999999,
      "d": 136.9367187500029,
      "v": 98
    },
    {
      "midi": 52,
      "hit": false,
      "t": 112920.1249999999,
      "d": 158.00390625,
      "v": 114
    },
    {
      "midi": 43,
      "hit": false,
      "t": 113257.19999999985,
      "d": 2018.9388020833285,
      "v": 111
    },
    {
      "midi": 62,
      "hit": false,
      "t": 113257.19999999985,
      "d": 2686.06640625,
      "v": 93
    },
    {
      "midi": 66,
      "hit": false,
      "t": 113257.19999999985,
      "d": 2686.06640625,
      "v": 81
    },
    {
      "midi": 57,
      "hit": false,
      "t": 113257.1999999999,
      "d": 2679.044010416663,
      "v": 94
    },
    {
      "midi": 66,
      "hit": false,
      "t": 113257.1999999999,
      "d": 2679.044010416663,
      "v": 94
    },
    {
      "midi": 43,
      "hit": false,
      "t": 115279.64999999985,
      "d": 663.6164062500029,
      "v": 77
    },
    {
      "midi": 42,
      "hit": false,
      "t": 115953.79999999986,
      "d": 1695.9085937500058,
      "v": 85
    },
    {
      "midi": 64,
      "hit": false,
      "t": 115953.79999999986,
      "d": 1913.602864583343,
      "v": 77
    },
    {
      "midi": 57,
      "hit": false,
      "t": 115953.79999999986,
      "d": 1920.6252604166802,
      "v": 63
    },
    {
      "midi": 59,
      "hit": false,
      "t": 115953.79999999986,
      "d": 1920.6252604166802,
      "v": 81
    },
    {
      "midi": 57,
      "hit": false,
      "t": 115953.79999999989,
      "d": 1035.8033854166715,
      "v": 88
    },
    {
      "midi": 59,
      "hit": false,
      "t": 115953.79999999989,
      "d": 1056.8705729166686,
      "v": 98
    },
    {
      "midi": 64,
      "hit": false,
      "t": 115953.79999999989,
      "d": 1077.9377604166657,
      "v": 84
    },
    {
      "midi": 42,
      "hit": false,
      "t": 115953.79999999989,
      "d": 2679.044010416663,
      "v": 84
    },
    {
      "midi": 61,
      "hit": false,
      "t": 117133.56249999988,
      "d": 1309.6768229166628,
      "v": 80
    },
    {
      "midi": 57,
      "hit": false,
      "t": 117133.56249999988,
      "d": 1450.1247395833343,
      "v": 84
    },
    {
      "midi": 64,
      "hit": false,
      "t": 117133.56249999988,
      "d": 1464.1695312499942,
      "v": 72
    },
    {
      "midi": 59,
      "hit": false,
      "t": 117133.56249999988,
      "d": 1471.1919270833314,
      "v": 84
    },
    {
      "midi": 57,
      "hit": false,
      "t": 117976.24999999987,
      "d": 466.9893229166628,
      "v": 45
    },
    {
      "midi": 59,
      "hit": false,
      "t": 117976.24999999987,
      "d": 481.03411458332266,
      "v": 49
    },
    {
      "midi": 64,
      "hit": false,
      "t": 117976.24999999987,
      "d": 537.2132812499913,
      "v": 51
    },
    {
      "midi": 42,
      "hit": false,
      "t": 117976.24999999987,
      "d": 607.4372395833198,
      "v": 53
    },
    {
      "midi": 40,
      "hit": false,
      "t": 118650.39999999985,
      "d": 1407.9903645833401,
      "v": 105
    },
    {
      "midi": 55,
      "hit": false,
      "t": 118650.39999999985,
      "d": 2615.8424479166715,
      "v": 85
    },
    {
      "midi": 64,
      "hit": false,
      "t": 118650.39999999985,
      "d": 2622.8648437500087,
      "v": 85
    },
    {
      "midi": 59,
      "hit": false,
      "t": 118650.39999999985,
      "d": 2629.887239583346,
      "v": 93
    },
    {
      "midi": 62,
      "hit": false,
      "t": 118650.39999999985,
      "d": 2629.887239583346,
      "v": 77
    },
    {
      "midi": 59,
      "hit": false,
      "t": 118650.39999999988,
      "d": 2679.044010416663,
      "v": 96
    },
    {
      "midi": 62,
      "hit": false,
      "t": 118650.39999999988,
      "d": 2679.044010416663,
      "v": 102
    },
    {
      "midi": 64,
      "hit": false,
      "t": 118650.39999999988,
      "d": 2679.044010416663,
      "v": 102
    },
    {
      "midi": 40,
      "hit": false,
      "t": 120167.23749999986,
      "d": 1197.3184895833256,
      "v": 111
    },
    {
      "midi": 40,
      "hit": false,
      "t": 120672.84999999987,
      "d": 628.5044270833314,
      "v": 106
    },
    {
      "midi": 43,
      "hit": false,
      "t": 121346.99999999985,
      "d": 1260.5200520833314,
      "v": 99
    },
    {
      "midi": 64,
      "hit": false,
      "t": 121346.99999999985,
      "d": 1358.8335937499942,
      "v": 71
    },
    {
      "midi": 55,
      "hit": false,
      "t": 121346.99999999985,
      "d": 1365.8559895833314,
      "v": 67
    },
    {
      "midi": 62,
      "hit": false,
      "t": 121346.99999999985,
      "d": 1372.8783854166686,
      "v": 67
    },
    {
      "midi": 59,
      "hit": false,
      "t": 121346.99999999985,
      "d": 1386.9231770833285,
      "v": 81
    },
    {
      "midi": 55,
      "hit": false,
      "t": 121346.99999999987,
      "d": 2679.044010416663,
      "v": 98
    },
    {
      "midi": 59,
      "hit": false,
      "t": 121346.99999999987,
      "d": 2679.044010416663,
      "v": 102
    },
    {
      "midi": 62,
      "hit": false,
      "t": 121346.99999999987,
      "d": 2679.044010416663,
      "v": 80
    },
    {
      "midi": 64,
      "hit": false,
      "t": 121346.99999999987,
      "d": 2679.044010416663,
      "v": 94
    },
    {
      "midi": 64,
      "hit": false,
      "t": 122863.83749999985,
      "d": 66.71276041665988,
      "v": 67
    },
    {
      "midi": 62,
      "hit": false,
      "t": 122863.83749999985,
      "d": 87.77994791665697,
      "v": 63
    },
    {
      "midi": 55,
      "hit": false,
      "t": 122863.83749999985,
      "d": 94.80234374999418,
      "v": 71
    },
    {
      "midi": 59,
      "hit": false,
      "t": 122863.83749999985,
      "d": 94.80234374999418,
      "v": 81
    },
    {
      "midi": 45,
      "hit": false,
      "t": 123200.91249999985,
      "d": 565.3028645833401,
      "v": 93
    },
    {
      "midi": 64,
      "hit": false,
      "t": 123369.44999999985,
      "d": 403.7877604166715,
      "v": 81
    },
    {
      "midi": 55,
      "hit": false,
      "t": 123369.44999999985,
      "d": 410.81015625000873,
      "v": 93
    },
    {
      "midi": 59,
      "hit": false,
      "t": 123369.44999999985,
      "d": 417.83255208334594,
      "v": 99
    },
    {
      "midi": 62,
      "hit": false,
      "t": 123369.44999999985,
      "d": 417.83255208334594,
      "v": 85
    },
    {
      "midi": 57,
      "hit": false,
      "t": 124043.59999999986,
      "d": 2679.044010416663,
      "v": 94
    },
    {
      "midi": 62,
      "hit": false,
      "t": 124043.59999999986,
      "d": 2679.044010416663,
      "v": 102
    },
    {
      "midi": 66,
      "hit": false,
      "t": 124043.59999999986,
      "d": 2679.044010416663,
      "v": 84
    },
    {
      "midi": 43,
      "hit": false,
      "t": 124043.59999999986,
      "d": 1723.9981770833401,
      "v": 111
    },
    {
      "midi": 66,
      "hit": false,
      "t": 124043.59999999986,
      "d": 2384.1033854166744,
      "v": 81
    },
    {
      "midi": 62,
      "hit": false,
      "t": 124043.59999999986,
      "d": 2433.260156250006,
      "v": 93
    },
    {
      "midi": 43,
      "hit": false,
      "t": 126066.04999999987,
      "d": 579.34765625,
      "v": 77
    },
    {
      "midi": 59,
      "hit": false,
      "t": 126740.19999999985,
      "d": 2679.044010416663,
      "v": 84
    },
    {
      "midi": 64,
      "hit": false,
      "t": 126740.19999999985,
      "d": 2679.044010416663,
      "v": 98
    },
    {
      "midi": 42,
      "hit": false,
      "t": 126740.19999999987,
      "d": 1695.9085937500058,
      "v": 85
    },
    {
      "midi": 64,
      "hit": false,
      "t": 126740.19999999987,
      "d": 1913.602864583343,
      "v": 77
    },
    {
      "midi": 57,
      "hit": false,
      "t": 126740.19999999987,
      "d": 1920.6252604166802,
      "v": 63
    },
    {
      "midi": 59,
      "hit": false,
      "t": 126740.19999999987,
      "d": 1920.6252604166802,
      "v": 81
    },
    {
      "midi": 57,
      "hit": false,
      "t": 128762.64999999988,
      "d": 466.9893229166628,
      "v": 45
    },
    {
      "midi": 59,
      "hit": false,
      "t": 128762.64999999988,
      "d": 481.03411458332266,
      "v": 49
    },
    {
      "midi": 64,
      "hit": false,
      "t": 128762.64999999988,
      "d": 537.2132812499913,
      "v": 51
    },
    {
      "midi": 42,
      "hit": false,
      "t": 128762.64999999988,
      "d": 607.4372395833198,
      "v": 53
    },
    {
      "midi": 55,
      "hit": false,
      "t": 129436.79999999984,
      "d": 2679.044010416663,
      "v": 98
    },
    {
      "midi": 59,
      "hit": false,
      "t": 129436.79999999984,
      "d": 2679.044010416663,
      "v": 106
    },
    {
      "midi": 62,
      "hit": false,
      "t": 129436.79999999984,
      "d": 2679.044010416663,
      "v": 98
    },
    {
      "midi": 40,
      "hit": false,
      "t": 129436.79999999986,
      "d": 1407.9903645833401,
      "v": 105
    },
    {
      "midi": 55,
      "hit": false,
      "t": 129436.79999999986,
      "d": 2615.8424479166715,
      "v": 85
    },
    {
      "midi": 64,
      "hit": false,
      "t": 129436.79999999986,
      "d": 2622.8648437500087,
      "v": 85
    },
    {
      "midi": 59,
      "hit": false,
      "t": 129436.79999999986,
      "d": 2629.887239583346,
      "v": 93
    },
    {
      "midi": 62,
      "hit": false,
      "t": 129436.79999999986,
      "d": 2629.887239583346,
      "v": 77
    },
    {
      "midi": 40,
      "hit": false,
      "t": 130953.63749999987,
      "d": 1197.3184895833547,
      "v": 111
    },
    {
      "midi": 55,
      "hit": false,
      "t": 132133.39999999985,
      "d": 2679.044010416663,
      "v": 80
    },
    {
      "midi": 59,
      "hit": false,
      "t": 132133.39999999985,
      "d": 2679.044010416663,
      "v": 102
    },
    {
      "midi": 62,
      "hit": false,
      "t": 132133.39999999985,
      "d": 2679.044010416663,
      "v": 98
    },
    {
      "midi": 55,
      "hit": false,
      "t": 132133.39999999988,
      "d": 1590.5726562500058,
      "v": 85
    },
    {
      "midi": 62,
      "hit": false,
      "t": 132133.39999999988,
      "d": 1590.5726562500058,
      "v": 77
    },
    {
      "midi": 64,
      "hit": false,
      "t": 132133.39999999988,
      "d": 1590.5726562500058,
      "v": 81
    },
    {
      "midi": 59,
      "hit": false,
      "t": 132133.39999999988,
      "d": 1625.6846354166628,
      "v": 89
    },
    {
      "midi": 45,
      "hit": false,
      "t": 132133.39999999988,
      "d": 2545.618489583372,
      "v": 99
    },
    {
      "midi": 57,
      "hit": false,
      "t": 134043.49166666655,
      "d": 73.73515625001164,
      "v": 105
    },
    {
      "midi": 64,
      "hit": false,
      "t": 134043.49166666655,
      "d": 73.73515625001164,
      "v": 99
    },
    {
      "midi": 62,
      "hit": false,
      "t": 134380.56666666656,
      "d": 284.40703125001164,
      "v": 99
    },
    {
      "midi": 55,
      "hit": false,
      "t": 134380.56666666656,
      "d": 298.45182291668607,
      "v": 99
    },
    {
      "midi": 64,
      "hit": false,
      "t": 134829.99999999985,
      "d": 1253.4976562499942,
      "v": 94
    },
    {
      "midi": 57,
      "hit": false,
      "t": 134829.99999999985,
      "d": 1260.5200520833314,
      "v": 80
    },
    {
      "midi": 61,
      "hit": false,
      "t": 134829.99999999985,
      "d": 1281.587239583343,
      "v": 88
    },
    {
      "midi": 42,
      "hit": false,
      "t": 134829.99999999985,
      "d": 1344.7888020833489,
      "v": 88
    },
    {
      "midi": 57,
      "hit": false,
      "t": 134829.9999999999,
      "d": 1330.7440104166744,
      "v": 81
    },
    {
      "midi": 64,
      "hit": false,
      "t": 134829.9999999999,
      "d": 1337.7664062500116,
      "v": 81
    },
    {
      "midi": 42,
      "hit": false,
      "t": 134829.9999999999,
      "d": 1450.1247395833489,
      "v": 71
    },
    {
      "midi": 62,
      "hit": false,
      "t": 136178.29999999987,
      "d": 1204.3408854166628,
      "v": 68
    },
    {
      "midi": 66,
      "hit": false,
      "t": 136178.29999999987,
      "d": 1225.4080729166744,
      "v": 80
    },
    {
      "midi": 47,
      "hit": false,
      "t": 136178.29999999987,
      "d": 1302.6544270833547,
      "v": 98
    },
    {
      "midi": 57,
      "hit": false,
      "t": 136178.29999999987,
      "d": 2679.044010416692,
      "v": 72
    },
    {
      "midi": 47,
      "hit": false,
      "t": 136403.0166666666,
      "d": 937.4898437500233,
      "v": 99
    },
    {
      "midi": 62,
      "hit": false,
      "t": 136515.37499999994,
      "d": 754.907552083343,
      "v": 105
    },
    {
      "midi": 57,
      "hit": false,
      "t": 136515.37499999994,
      "d": 782.9971354166919,
      "v": 99
    },
    {
      "midi": 54,
      "hit": false,
      "t": 136852.44999999995,
      "d": 431.8773437500058,
      "v": 89
    },
    {
      "midi": 64,
      "hit": false,
      "t": 137526.5999999999,
      "d": 1211.36328125,
      "v": 88
    },
    {
      "midi": 61,
      "hit": false,
      "t": 137526.5999999999,
      "d": 1218.3856770833372,
      "v": 84
    },
    {
      "midi": 42,
      "hit": false,
      "t": 137526.5999999999,
      "d": 1309.6768229166628,
      "v": 94
    },
    {
      "midi": 42,
      "hit": false,
      "t": 137526.59999999995,
      "d": 403.78776041665697,
      "v": 89
    },
    {
      "midi": 57,
      "hit": false,
      "t": 137526.59999999995,
      "d": 410.8101562499942,
      "v": 89
    },
    {
      "midi": 64,
      "hit": false,
      "t": 137526.59999999995,
      "d": 424.8549479166686,
      "v": 89
    },
    {
      "midi": 42,
      "hit": false,
      "t": 138088.3916666666,
      "d": 431.8773437500058,
      "v": 85
    },
    {
      "midi": 61,
      "hit": false,
      "t": 138088.3916666666,
      "d": 438.89973958334303,
      "v": 81
    },
    {
      "midi": 57,
      "hit": false,
      "t": 138088.3916666666,
      "d": 445.92213541668025,
      "v": 71
    },
    {
      "midi": 57,
      "hit": false,
      "t": 138537.82499999995,
      "d": 3.511197916668607,
      "v": 77
    },
    {
      "midi": 42,
      "hit": false,
      "t": 138537.82499999995,
      "d": 101.8247395833314,
      "v": 89
    },
    {
      "midi": 61,
      "hit": false,
      "t": 138537.82499999995,
      "d": 108.8471354166686,
      "v": 85
    },
    {
      "midi": 66,
      "hit": false,
      "t": 138874.8999999999,
      "d": 1183.2736979166802,
      "v": 84
    },
    {
      "midi": 62,
      "hit": false,
      "t": 138874.8999999999,
      "d": 1190.2960937500175,
      "v": 80
    },
    {
      "midi": 57,
      "hit": false,
      "t": 138874.8999999999,
      "d": 1281.587239583343,
      "v": 76
    },
    {
      "midi": 47,
      "hit": false,
      "t": 138874.8999999999,
      "d": 1330.7440104166744,
      "v": 98
    },
    {
      "midi": 62,
      "hit": false,
      "t": 138874.89999999997,
      "d": 993.6690104166628,
      "v": 99
    },
    {
      "midi": 57,
      "hit": false,
      "t": 138874.89999999997,
      "d": 1014.7361979166744,
      "v": 89
    },
    {
      "midi": 42,
      "hit": false,
      "t": 138874.89999999997,
      "d": 1042.8257812499942,
      "v": 93
    },
    {
      "midi": 40,
      "hit": false,
      "t": 140223.19999999992,
      "d": 2679.044010416663,
      "v": 106
    },
    {
      "midi": 55,
      "hit": false,
      "t": 140223.19999999992,
      "d": 2679.044010416663,
      "v": 98
    },
    {
      "midi": 59,
      "hit": false,
      "t": 140223.19999999992,
      "d": 2679.044010416663,
      "v": 98
    },
    {
      "midi": 62,
      "hit": false,
      "t": 140223.19999999992,
      "d": 2679.044010416663,
      "v": 80
    },
    {
      "midi": 64,
      "hit": false,
      "t": 140223.19999999992,
      "d": 2679.044010416663,
      "v": 94
    },
    {
      "midi": 62,
      "hit": false,
      "t": 140223.19999999995,
      "d": 2580.73046875,
      "v": 63
    },
    {
      "midi": 52,
      "hit": false,
      "t": 140223.19999999995,
      "d": 2601.7976562500116,
      "v": 45
    },
    {
      "midi": 59,
      "hit": false,
      "t": 140223.19999999995,
      "d": 2608.820052083349,
      "v": 53
    },
    {
      "midi": 40,
      "hit": false,
      "t": 140223.19999999995,
      "d": 2636.9096354166686,
      "v": 63
    },
    {
      "midi": 45,
      "hit": false,
      "t": 142919.79999999993,
      "d": 2679.044010416663,
      "v": 102
    },
    {
      "midi": 55,
      "hit": false,
      "t": 142919.79999999993,
      "d": 2679.044010416663,
      "v": 98
    },
    {
      "midi": 59,
      "hit": false,
      "t": 142919.79999999993,
      "d": 2679.044010416663,
      "v": 102
    },
    {
      "midi": 62,
      "hit": false,
      "t": 142919.79999999993,
      "d": 2679.044010416663,
      "v": 84
    },
    {
      "midi": 64,
      "hit": false,
      "t": 142919.79999999993,
      "d": 2679.044010416663,
      "v": 88
    },
    {
      "midi": 62,
      "hit": false,
      "t": 142919.79999999996,
      "d": 2405.170572916657,
      "v": 51
    },
    {
      "midi": 45,
      "hit": false,
      "t": 142919.79999999996,
      "d": 2412.192968749994,
      "v": 59
    },
    {
      "midi": 59,
      "hit": false,
      "t": 142919.79999999996,
      "d": 2419.2153645833314,
      "v": 51
    },
    {
      "midi": 57,
      "hit": false,
      "t": 143032.1583333333,
      "d": 2391.1257812499825,
      "v": 47
    },
    {
      "midi": 64,
      "hit": false,
      "t": 145616.39999999994,
      "d": 1253.4976562499942,
      "v": 94
    },
    {
      "midi": 57,
      "hit": false,
      "t": 145616.39999999994,
      "d": 1260.5200520833314,
      "v": 80
    },
    {
      "midi": 61,
      "hit": false,
      "t": 145616.39999999994,
      "d": 1281.587239583343,
      "v": 88
    },
    {
      "midi": 42,
      "hit": false,
      "t": 145616.39999999994,
      "d": 1344.7888020833489,
      "v": 88
    },
    {
      "midi": 57,
      "hit": false,
      "t": 145616.39999999994,
      "d": 1330.7440104166744,
      "v": 81
    },
    {
      "midi": 64,
      "hit": false,
      "t": 145616.39999999994,
      "d": 1337.7664062500116,
      "v": 81
    },
    {
      "midi": 42,
      "hit": false,
      "t": 145616.39999999994,
      "d": 1450.1247395833489,
      "v": 71
    },
    {
      "midi": 62,
      "hit": false,
      "t": 146964.69999999995,
      "d": 1204.3408854166628,
      "v": 68
    },
    {
      "midi": 66,
      "hit": false,
      "t": 146964.69999999995,
      "d": 1225.4080729166744,
      "v": 80
    },
    {
      "midi": 47,
      "hit": false,
      "t": 146964.69999999995,
      "d": 1302.6544270833547,
      "v": 98
    },
    {
      "midi": 57,
      "hit": false,
      "t": 146964.69999999995,
      "d": 2679.044010416692,
      "v": 72
    },
    {
      "midi": 47,
      "hit": false,
      "t": 147189.41666666663,
      "d": 937.4898437500233,
      "v": 99
    },
    {
      "midi": 62,
      "hit": false,
      "t": 147301.77499999997,
      "d": 754.907552083343,
      "v": 105
    },
    {
      "midi": 57,
      "hit": false,
      "t": 147301.77499999997,
      "d": 782.9971354166919,
      "v": 99
    },
    {
      "midi": 54,
      "hit": false,
      "t": 147638.84999999998,
      "d": 431.8773437500058,
      "v": 89
    },
    {
      "midi": 64,
      "hit": false,
      "t": 148312.99999999997,
      "d": 1211.36328125,
      "v": 88
    },
    {
      "midi": 61,
      "hit": false,
      "t": 148312.99999999997,
      "d": 1218.3856770833372,
      "v": 84
    },
    {
      "midi": 42,
      "hit": false,
      "t": 148312.99999999997,
      "d": 1309.6768229166628,
      "v": 94
    },
    {
      "midi": 42,
      "hit": false,
      "t": 148312.99999999997,
      "d": 403.78776041665697,
      "v": 89
    },
    {
      "midi": 57,
      "hit": false,
      "t": 148312.99999999997,
      "d": 410.8101562499942,
      "v": 89
    },
    {
      "midi": 64,
      "hit": false,
      "t": 148312.99999999997,
      "d": 424.8549479166686,
      "v": 89
    },
    {
      "midi": 42,
      "hit": false,
      "t": 148874.79166666663,
      "d": 431.8773437500058,
      "v": 85
    },
    {
      "midi": 61,
      "hit": false,
      "t": 148874.79166666663,
      "d": 438.89973958334303,
      "v": 81
    },
    {
      "midi": 57,
      "hit": false,
      "t": 148874.79166666663,
      "d": 445.92213541668025,
      "v": 71
    },
    {
      "midi": 57,
      "hit": false,
      "t": 149324.22499999998,
      "d": 3.511197916668607,
      "v": 77
    },
    {
      "midi": 42,
      "hit": false,
      "t": 149324.22499999998,
      "d": 101.8247395833314,
      "v": 89
    },
    {
      "midi": 61,
      "hit": false,
      "t": 149324.22499999998,
      "d": 108.8471354166686,
      "v": 85
    },
    {
      "midi": 66,
      "hit": false,
      "t": 149661.3,
      "d": 1183.2736979166802,
      "v": 84
    },
    {
      "midi": 62,
      "hit": false,
      "t": 149661.3,
      "d": 1190.2960937500175,
      "v": 80
    },
    {
      "midi": 57,
      "hit": false,
      "t": 149661.3,
      "d": 1281.587239583343,
      "v": 76
    },
    {
      "midi": 47,
      "hit": false,
      "t": 149661.3,
      "d": 1330.7440104166744,
      "v": 98
    },
    {
      "midi": 62,
      "hit": false,
      "t": 149661.3,
      "d": 993.6690104166628,
      "v": 99
    },
    {
      "midi": 57,
      "hit": false,
      "t": 149661.3,
      "d": 1014.7361979166744,
      "v": 89
    },
    {
      "midi": 42,
      "hit": false,
      "t": 149661.3,
      "d": 1042.8257812499942,
      "v": 93
    },
    {
      "midi": 55,
      "hit": false,
      "t": 151009.59999999998,
      "d": 1049.8481770833314,
      "v": 89
    },
    {
      "midi": 40,
      "hit": false,
      "t": 151009.59999999998,
      "d": 1070.915364583343,
      "v": 71
    },
    {
      "midi": 52,
      "hit": false,
      "t": 151009.59999999998,
      "d": 1113.0497395833372,
      "v": 77
    },
    {
      "midi": 40,
      "hit": false,
      "t": 151009.6,
      "d": 2679.044010416663,
      "v": 106
    },
    {
      "midi": 55,
      "hit": false,
      "t": 151009.6,
      "d": 2679.044010416663,
      "v": 98
    },
    {
      "midi": 59,
      "hit": false,
      "t": 151009.6,
      "d": 2679.044010416663,
      "v": 98
    },
    {
      "midi": 62,
      "hit": false,
      "t": 151009.6,
      "d": 2679.044010416663,
      "v": 80
    },
    {
      "midi": 64,
      "hit": false,
      "t": 151009.6,
      "d": 2679.044010416663,
      "v": 94
    },
    {
      "midi": 64,
      "hit": false,
      "t": 152245.54166666666,
      "d": 24.57838541668025,
      "v": 47
    },
    {
      "midi": 62,
      "hit": false,
      "t": 152245.54166666666,
      "d": 31.600781250017462,
      "v": 47
    },
    {
      "midi": 59,
      "hit": false,
      "t": 152245.54166666666,
      "d": 52.667968750029104,
      "v": 81
    },
    {
      "midi": 55,
      "hit": false,
      "t": 152245.54166666666,
      "d": 59.69036458336632,
      "v": 67
    },
    {
      "midi": 40,
      "hit": false,
      "t": 152582.6166666667,
      "d": 775.9747395833256,
      "v": 99
    },
    {
      "midi": 55,
      "hit": false,
      "t": 152582.6166666667,
      "d": 1007.7138020833372,
      "v": 99
    },
    {
      "midi": 59,
      "hit": false,
      "t": 152582.6166666667,
      "d": 1007.7138020833372,
      "v": 99
    },
    {
      "midi": 62,
      "hit": false,
      "t": 152582.6166666667,
      "d": 1014.7361979166744,
      "v": 81
    },
    {
      "midi": 64,
      "hit": false,
      "t": 152582.6166666667,
      "d": 1021.7585937500116,
      "v": 99
    },
    {
      "midi": 43,
      "hit": false,
      "t": 153369.12500000003,
      "d": 263.33984375,
      "v": 105
    },
    {
      "midi": 45,
      "hit": false,
      "t": 153706.2,
      "d": 2679.044010416663,
      "v": 102
    },
    {
      "midi": 55,
      "hit": false,
      "t": 153706.2,
      "d": 2679.044010416663,
      "v": 98
    },
    {
      "midi": 59,
      "hit": false,
      "t": 153706.2,
      "d": 2679.044010416663,
      "v": 102
    },
    {
      "midi": 62,
      "hit": false,
      "t": 153706.2,
      "d": 2679.044010416663,
      "v": 84
    },
    {
      "midi": 64,
      "hit": false,
      "t": 153706.2,
      "d": 2679.044010416663,
      "v": 88
    },
    {
      "midi": 45,
      "hit": false,
      "t": 153706.20000000004,
      "d": 2159.38671875,
      "v": 85
    },
    {
      "midi": 57,
      "hit": false,
      "t": 153706.20000000004,
      "d": 2208.5434895833314,
      "v": 85
    },
    {
      "midi": 62,
      "hit": false,
      "t": 154043.27500000005,
      "d": 1885.5132812499942,
      "v": 85
    },
    {
      "midi": 64,
      "hit": false,
      "t": 154043.27500000005,
      "d": 1892.5356770833314,
      "v": 81
    },
    {
      "midi": 59,
      "hit": false,
      "t": 154043.27500000005,
      "d": 1920.6252604166511,
      "v": 81
    },
    {
      "midi": 69,
      "hit": false,
      "t": 156402.80000000002,
      "d": 298.45182291665697,
      "v": 102
    },
    {
      "midi": 45,
      "hit": false,
      "t": 156402.80000000002,
      "d": 333.56380208331393,
      "v": 102
    },
    {
      "midi": 67,
      "hit": false,
      "t": 156402.80000000005,
      "d": 1948.71484375,
      "v": 89
    },
    {
      "midi": 69,
      "hit": false,
      "t": 156402.80000000005,
      "d": 1948.71484375,
      "v": 85
    },
    {
      "midi": 62,
      "hit": false,
      "t": 156402.80000000005,
      "d": 1955.7372395833372,
      "v": 81
    },
    {
      "midi": 64,
      "hit": false,
      "t": 156402.80000000005,
      "d": 1955.7372395833372,
      "v": 63
    },
    {
      "midi": 45,
      "hit": false,
      "t": 156402.80000000005,
      "d": 1969.7820312500116,
      "v": 81
    },
    {
      "midi": 47,
      "hit": false,
      "t": 156739.875,
      "d": 94.80234374999418,
      "v": 80
    },
    {
      "midi": 71,
      "hit": false,
      "t": 156739.875,
      "d": 101.8247395833314,
      "v": 106
    },
    {
      "midi": 47,
      "hit": false,
      "t": 157076.95,
      "d": 228.22786458334303,
      "v": 102
    },
    {
      "midi": 71,
      "hit": false,
      "t": 157076.95,
      "d": 291.42942708334886,
      "v": 108
    },
    {
      "midi": 49,
      "hit": false,
      "t": 157414.02500000002,
      "d": 101.8247395833314,
      "v": 102
    },
    {
      "midi": 73,
      "hit": false,
      "t": 157414.02500000002,
      "d": 101.8247395833314,
      "v": 88
    },
    {
      "midi": 73,
      "hit": false,
      "t": 157751.10000000003,
      "d": 291.42942708331975,
      "v": 98
    },
    {
      "midi": 49,
      "hit": false,
      "t": 157751.10000000003,
      "d": 305.4742187499942,
      "v": 102
    },
    {
      "midi": 74,
      "hit": false,
      "t": 158088.17500000002,
      "d": 101.8247395833314,
      "v": 98
    },
    {
      "midi": 50,
      "hit": false,
      "t": 158088.17500000002,
      "d": 122.89192708334303,
      "v": 102
    },
    {
      "midi": 50,
      "hit": false,
      "t": 158425.25000000003,
      "d": 326.5414062500058,
      "v": 102
    },
    {
      "midi": 74,
      "hit": false,
      "t": 158425.25000000003,
      "d": 333.56380208334303,
      "v": 106
    },
    {
      "midi": 76,
      "hit": false,
      "t": 158762.32500000004,
      "d": 136.93671874998836,
      "v": 98
    },
    {
      "midi": 52,
      "hit": false,
      "t": 158762.32500000004,
      "d": 158.00390625,
      "v": 114
    },
    {
      "midi": 57,
      "hit": false,
      "t": 159099.40000000005,
      "d": 2679.044010416663,
      "v": 94
    },
    {
      "midi": 62,
      "hit": false,
      "t": 159099.40000000005,
      "d": 2679.044010416663,
      "v": 98
    },
    {
      "midi": 66,
      "hit": false,
      "t": 159099.40000000005,
      "d": 2679.044010416663,
      "v": 94
    },
    {
      "midi": 43,
      "hit": false,
      "t": 159099.40000000005,
      "d": 1723.9981770833256,
      "v": 111
    },
    {
      "midi": 66,
      "hit": false,
      "t": 159099.40000000005,
      "d": 2384.1033854166453,
      "v": 81
    },
    {
      "midi": 62,
      "hit": false,
      "t": 159099.40000000005,
      "d": 2433.2601562499767,
      "v": 93
    },
    {
      "midi": 43,
      "hit": false,
      "t": 161121.85000000003,
      "d": 579.34765625,
      "v": 77
    },
    {
      "midi": 42,
      "hit": false,
      "t": 161796.00000000003,
      "d": 1695.9085937500058,
      "v": 85
    },
    {
      "midi": 64,
      "hit": false,
      "t": 161796.00000000003,
      "d": 1913.602864583343,
      "v": 77
    },
    {
      "midi": 57,
      "hit": false,
      "t": 161796.00000000003,
      "d": 1920.6252604166802,
      "v": 63
    },
    {
      "midi": 59,
      "hit": false,
      "t": 161796.00000000003,
      "d": 1920.6252604166802,
      "v": 81
    },
    {
      "midi": 57,
      "hit": false,
      "t": 161796.00000000006,
      "d": 1035.803385416657,
      "v": 88
    },
    {
      "midi": 59,
      "hit": false,
      "t": 161796.00000000006,
      "d": 1056.8705729166686,
      "v": 98
    },
    {
      "midi": 64,
      "hit": false,
      "t": 161796.00000000006,
      "d": 1077.9377604166802,
      "v": 84
    },
    {
      "midi": 42,
      "hit": false,
      "t": 161796.00000000006,
      "d": 2679.044010416663,
      "v": 84
    },
    {
      "midi": 61,
      "hit": false,
      "t": 162975.76250000007,
      "d": 1309.6768229166628,
      "v": 80
    },
    {
      "midi": 57,
      "hit": false,
      "t": 162975.76250000007,
      "d": 1450.1247395833198,
      "v": 84
    },
    {
      "midi": 64,
      "hit": false,
      "t": 162975.76250000007,
      "d": 1464.1695312499942,
      "v": 72
    },
    {
      "midi": 59,
      "hit": false,
      "t": 162975.76250000007,
      "d": 1471.1919270833314,
      "v": 84
    },
    {
      "midi": 57,
      "hit": false,
      "t": 163818.45000000004,
      "d": 466.9893229166628,
      "v": 45
    },
    {
      "midi": 59,
      "hit": false,
      "t": 163818.45000000004,
      "d": 481.0341145833372,
      "v": 49
    },
    {
      "midi": 64,
      "hit": false,
      "t": 163818.45000000004,
      "d": 537.2132812500058,
      "v": 51
    },
    {
      "midi": 42,
      "hit": false,
      "t": 163818.45000000004,
      "d": 607.4372395833489,
      "v": 53
    },
    {
      "midi": 59,
      "hit": false,
      "t": 164492.60000000006,
      "d": 2679.044010416663,
      "v": 96
    },
    {
      "midi": 62,
      "hit": false,
      "t": 164492.60000000006,
      "d": 2679.044010416663,
      "v": 102
    },
    {
      "midi": 64,
      "hit": false,
      "t": 164492.60000000006,
      "d": 2679.044010416663,
      "v": 102
    },
    {
      "midi": 64,
      "hit": false,
      "t": 164492.60000000006,
      "d": 1351.811197916657,
      "v": 71
    },
    {
      "midi": 55,
      "hit": false,
      "t": 164492.60000000006,
      "d": 1372.8783854166686,
      "v": 81
    },
    {
      "midi": 62,
      "hit": false,
      "t": 164492.60000000006,
      "d": 1372.8783854166686,
      "v": 51
    },
    {
      "midi": 59,
      "hit": false,
      "t": 164492.60000000006,
      "d": 1386.923177083343,
      "v": 81
    },
    {
      "midi": 40,
      "hit": false,
      "t": 164492.60000000006,
      "d": 1457.147135416686,
      "v": 99
    },
    {
      "midi": 55,
      "hit": false,
      "t": 166065.61666666676,
      "d": 52.66796875,
      "v": 105
    },
    {
      "midi": 59,
      "hit": false,
      "t": 166065.61666666676,
      "d": 52.66796875,
      "v": 111
    },
    {
      "midi": 62,
      "hit": false,
      "t": 166065.61666666676,
      "d": 59.690364583337214,
      "v": 99
    },
    {
      "midi": 64,
      "hit": false,
      "t": 166065.61666666676,
      "d": 66.71276041667443,
      "v": 99
    },
    {
      "midi": 40,
      "hit": false,
      "t": 166402.69166666677,
      "d": 628.5044270833314,
      "v": 99
    },
    {
      "midi": 40,
      "hit": false,
      "t": 166515.05000000008,
      "d": 628.5044270833314,
      "v": 106
    },
    {
      "midi": 59,
      "hit": false,
      "t": 166515.0500000001,
      "d": 466.9893229166628,
      "v": 105
    },
    {
      "midi": 62,
      "hit": false,
      "t": 166515.0500000001,
      "d": 466.9893229166628,
      "v": 99
    },
    {
      "midi": 64,
      "hit": false,
      "t": 166515.0500000001,
      "d": 466.9893229166628,
      "v": 93
    },
    {
      "midi": 55,
      "hit": false,
      "t": 166515.0500000001,
      "d": 481.0341145833372,
      "v": 99
    },
    {
      "midi": 55,
      "hit": false,
      "t": 167189.20000000007,
      "d": 2679.044010416663,
      "v": 98
    },
    {
      "midi": 59,
      "hit": false,
      "t": 167189.20000000007,
      "d": 2679.044010416663,
      "v": 102
    },
    {
      "midi": 62,
      "hit": false,
      "t": 167189.20000000007,
      "d": 2679.044010416663,
      "v": 80
    },
    {
      "midi": 64,
      "hit": false,
      "t": 167189.20000000007,
      "d": 2679.044010416663,
      "v": 94
    },
    {
      "midi": 45,
      "hit": false,
      "t": 168762.21666666676,
      "d": 1007.7138020833663,
      "v": 111
    },
    {
      "midi": 55,
      "hit": false,
      "t": 168874.5750000001,
      "d": 270.3622395833372,
      "v": 105
    },
    {
      "midi": 62,
      "hit": false,
      "t": 168874.5750000001,
      "d": 291.42942708334886,
      "v": 105
    },
    {
      "midi": 59,
      "hit": false,
      "t": 168874.5750000001,
      "d": 298.45182291668607,
      "v": 89
    },
    {
      "midi": 64,
      "hit": false,
      "t": 168874.5750000001,
      "d": 298.45182291668607,
      "v": 85
    },
    {
      "midi": 61,
      "hit": false,
      "t": 169211.6500000001,
      "d": 481.0341145833372,
      "v": 99
    },
    {
      "midi": 64,
      "hit": false,
      "t": 169211.6500000001,
      "d": 481.0341145833372,
      "v": 93
    },
    {
      "midi": 57,
      "hit": false,
      "t": 169211.6500000001,
      "d": 488.0565104166744,
      "v": 105
    },
    {
      "midi": 57,
      "hit": false,
      "t": 169885.80000000008,
      "d": 2679.044010416663,
      "v": 94
    },
    {
      "midi": 62,
      "hit": false,
      "t": 169885.80000000008,
      "d": 2679.044010416663,
      "v": 102
    },
    {
      "midi": 66,
      "hit": false,
      "t": 169885.80000000008,
      "d": 2679.044010416663,
      "v": 84
    },
    {
      "midi": 59,
      "hit": false,
      "t": 172582.40000000008,
      "d": 2679.044010416663,
      "v": 84
    },
    {
      "midi": 64,
      "hit": false,
      "t": 172582.40000000008,
      "d": 2679.044010416663,
      "v": 98
    },
    {
      "midi": 55,
      "hit": false,
      "t": 175279.0000000001,
      "d": 2679.044010416663,
      "v": 98
    },
    {
      "midi": 59,
      "hit": false,
      "t": 175279.0000000001,
      "d": 2679.044010416663,
      "v": 106
    },
    {
      "midi": 62,
      "hit": false,
      "t": 175279.0000000001,
      "d": 2679.044010416663,
      "v": 98
    },
    {
      "midi": 55,
      "hit": false,
      "t": 177975.6000000001,
      "d": 2679.044010416663,
      "v": 80
    },
    {
      "midi": 59,
      "hit": false,
      "t": 177975.6000000001,
      "d": 2679.044010416663,
      "v": 102
    },
    {
      "midi": 62,
      "hit": false,
      "t": 177975.6000000001,
      "d": 2679.044010416663,
      "v": 98
    },
    {
      "midi": 57,
      "hit": false,
      "t": 180672.2000000001,
      "d": 2679.044010416663,
      "v": 94
    },
    {
      "midi": 62,
      "hit": false,
      "t": 180672.2000000001,
      "d": 2679.044010416663,
      "v": 102
    },
    {
      "midi": 66,
      "hit": false,
      "t": 180672.2000000001,
      "d": 2679.044010416663,
      "v": 84
    },
    {
      "midi": 66,
      "hit": false,
      "t": 180672.20000000013,
      "d": 2264.72265625,
      "v": 81
    },
    {
      "midi": 62,
      "hit": false,
      "t": 180672.20000000013,
      "d": 2278.7674479166744,
      "v": 93
    },
    {
      "midi": 59,
      "hit": false,
      "t": 180672.20000000013,
      "d": 2334.946614583343,
      "v": 59
    },
    {
      "midi": 57,
      "hit": false,
      "t": 180672.20000000013,
      "d": 2348.9914062500175,
      "v": 67
    },
    {
      "midi": 43,
      "hit": false,
      "t": 180672.20000000013,
      "d": 2629.8872395833605,
      "v": 99
    },
    {
      "midi": 59,
      "hit": false,
      "t": 183368.8000000001,
      "d": 2679.044010416663,
      "v": 84
    },
    {
      "midi": 64,
      "hit": false,
      "t": 183368.8000000001,
      "d": 2679.044010416663,
      "v": 98
    },
    {
      "midi": 59,
      "hit": false,
      "t": 183368.80000000016,
      "d": 2405.170572916657,
      "v": 85
    },
    {
      "midi": 42,
      "hit": false,
      "t": 183368.80000000016,
      "d": 2412.192968749994,
      "v": 81
    },
    {
      "midi": 64,
      "hit": false,
      "t": 183368.80000000016,
      "d": 2426.2377604166686,
      "v": 85
    },
    {
      "midi": 57,
      "hit": false,
      "t": 183368.80000000016,
      "d": 2433.260156250006,
      "v": 63
    },
    {
      "midi": 55,
      "hit": false,
      "t": 186065.4000000001,
      "d": 2679.044010416663,
      "v": 98
    },
    {
      "midi": 59,
      "hit": false,
      "t": 186065.4000000001,
      "d": 2679.044010416663,
      "v": 106
    },
    {
      "midi": 62,
      "hit": false,
      "t": 186065.4000000001,
      "d": 2679.044010416663,
      "v": 98
    },
    {
      "midi": 70,
      "hit": false,
      "t": 188762.00000000012,
      "d": 298.45182291665697,
      "v": 102
    },
    {
      "midi": 46,
      "hit": false,
      "t": 188762.00000000012,
      "d": 333.56380208331393,
      "v": 102
    },
    {
      "midi": 68,
      "hit": false,
      "t": 188762.00000000017,
      "d": 1948.71484375,
      "v": 89
    },
    {
      "midi": 70,
      "hit": false,
      "t": 188762.00000000017,
      "d": 1948.71484375,
      "v": 85
    },
    {
      "midi": 63,
      "hit": false,
      "t": 188762.00000000017,
      "d": 1955.7372395833372,
      "v": 81
    },
    {
      "midi": 65,
      "hit": false,
      "t": 188762.00000000017,
      "d": 1955.7372395833372,
      "v": 63
    },
    {
      "midi": 46,
      "hit": false,
      "t": 188762.00000000017,
      "d": 1969.7820312500116,
      "v": 81
    },
    {
      "midi": 48,
      "hit": false,
      "t": 189099.0750000001,
      "d": 94.80234374999418,
      "v": 80
    },
    {
      "midi": 72,
      "hit": false,
      "t": 189099.0750000001,
      "d": 101.8247395833314,
      "v": 106
    },
    {
      "midi": 48,
      "hit": false,
      "t": 189436.1500000001,
      "d": 228.22786458334303,
      "v": 102
    },
    {
      "midi": 72,
      "hit": false,
      "t": 189436.1500000001,
      "d": 291.42942708334886,
      "v": 108
    },
    {
      "midi": 50,
      "hit": false,
      "t": 189773.22500000012,
      "d": 101.8247395833314,
      "v": 102
    },
    {
      "midi": 74,
      "hit": false,
      "t": 189773.22500000012,
      "d": 101.8247395833314,
      "v": 88
    },
    {
      "midi": 74,
      "hit": false,
      "t": 190110.30000000013,
      "d": 291.42942708331975,
      "v": 98
    },
    {
      "midi": 50,
      "hit": false,
      "t": 190110.30000000013,
      "d": 305.4742187499942,
      "v": 102
    },
    {
      "midi": 75,
      "hit": false,
      "t": 190447.37500000012,
      "d": 101.8247395833314,
      "v": 98
    },
    {
      "midi": 51,
      "hit": false,
      "t": 190447.37500000012,
      "d": 122.89192708334303,
      "v": 102
    },
    {
      "midi": 51,
      "hit": false,
      "t": 190784.45000000013,
      "d": 326.5414062500058,
      "v": 102
    },
    {
      "midi": 75,
      "hit": false,
      "t": 190784.45000000013,
      "d": 333.56380208334303,
      "v": 106
    },
    {
      "midi": 77,
      "hit": false,
      "t": 191121.52500000014,
      "d": 136.93671874998836,
      "v": 98
    },
    {
      "midi": 53,
      "hit": false,
      "t": 191121.52500000014,
      "d": 158.00390625,
      "v": 114
    },
    {
      "midi": 58,
      "hit": false,
      "t": 191458.60000000015,
      "d": 2679.044010416663,
      "v": 94
    },
    {
      "midi": 63,
      "hit": false,
      "t": 191458.60000000015,
      "d": 2679.044010416663,
      "v": 102
    },
    {
      "midi": 67,
      "hit": false,
      "t": 191458.60000000015,
      "d": 2679.044010416663,
      "v": 84
    },
    {
      "midi": 44,
      "hit": false,
      "t": 191458.60000000018,
      "d": 1723.9981770833256,
      "v": 111
    },
    {
      "midi": 67,
      "hit": false,
      "t": 191458.60000000018,
      "d": 2384.1033854166453,
      "v": 81
    },
    {
      "midi": 63,
      "hit": false,
      "t": 191458.60000000018,
      "d": 2433.2601562499767,
      "v": 93
    },
    {
      "midi": 44,
      "hit": false,
      "t": 193481.05000000016,
      "d": 579.34765625,
      "v": 77
    },
    {
      "midi": 60,
      "hit": false,
      "t": 194155.20000000016,
      "d": 2679.044010416663,
      "v": 84
    },
    {
      "midi": 65,
      "hit": false,
      "t": 194155.20000000016,
      "d": 2679.044010416663,
      "v": 98
    },
    {
      "midi": 43,
      "hit": false,
      "t": 194155.20000000016,
      "d": 1695.9085937500058,
      "v": 85
    },
    {
      "midi": 65,
      "hit": false,
      "t": 194155.20000000016,
      "d": 1913.602864583343,
      "v": 77
    },
    {
      "midi": 58,
      "hit": false,
      "t": 194155.20000000016,
      "d": 1920.6252604166802,
      "v": 63
    },
    {
      "midi": 60,
      "hit": false,
      "t": 194155.20000000016,
      "d": 1920.6252604166802,
      "v": 81
    },
    {
      "midi": 58,
      "hit": false,
      "t": 196177.65000000017,
      "d": 466.9893229166628,
      "v": 45
    },
    {
      "midi": 60,
      "hit": false,
      "t": 196177.65000000017,
      "d": 481.0341145833372,
      "v": 49
    },
    {
      "midi": 65,
      "hit": false,
      "t": 196177.65000000017,
      "d": 537.2132812500058,
      "v": 51
    },
    {
      "midi": 43,
      "hit": false,
      "t": 196177.65000000017,
      "d": 607.4372395833489,
      "v": 53
    },
    {
      "midi": 56,
      "hit": false,
      "t": 196851.80000000016,
      "d": 2679.044010416663,
      "v": 98
    },
    {
      "midi": 60,
      "hit": false,
      "t": 196851.80000000016,
      "d": 2679.044010416663,
      "v": 106
    },
    {
      "midi": 63,
      "hit": false,
      "t": 196851.80000000016,
      "d": 2679.044010416663,
      "v": 98
    },
    {
      "midi": 41,
      "hit": false,
      "t": 196851.8000000002,
      "d": 1407.9903645833256,
      "v": 105
    },
    {
      "midi": 56,
      "hit": false,
      "t": 196851.8000000002,
      "d": 2615.842447916657,
      "v": 85
    },
    {
      "midi": 65,
      "hit": false,
      "t": 196851.8000000002,
      "d": 2622.864843749994,
      "v": 85
    },
    {
      "midi": 60,
      "hit": false,
      "t": 196851.8000000002,
      "d": 2629.8872395833314,
      "v": 93
    },
    {
      "midi": 63,
      "hit": false,
      "t": 196851.8000000002,
      "d": 2629.8872395833314,
      "v": 77
    },
    {
      "midi": 41,
      "hit": false,
      "t": 198368.6375000002,
      "d": 1197.3184895833547,
      "v": 111
    },
    {
      "midi": 56,
      "hit": false,
      "t": 199548.40000000017,
      "d": 2679.044010416663,
      "v": 80
    },
    {
      "midi": 60,
      "hit": false,
      "t": 199548.40000000017,
      "d": 2679.044010416663,
      "v": 102
    },
    {
      "midi": 63,
      "hit": false,
      "t": 199548.40000000017,
      "d": 2679.044010416663,
      "v": 98
    },
    {
      "midi": 56,
      "hit": false,
      "t": 199548.4000000002,
      "d": 1590.5726562500058,
      "v": 85
    },
    {
      "midi": 63,
      "hit": false,
      "t": 199548.4000000002,
      "d": 1590.5726562500058,
      "v": 77
    },
    {
      "midi": 65,
      "hit": false,
      "t": 199548.4000000002,
      "d": 1590.5726562500058,
      "v": 81
    },
    {
      "midi": 60,
      "hit": false,
      "t": 199548.4000000002,
      "d": 1625.6846354166628,
      "v": 89
    },
    {
      "midi": 46,
      "hit": false,
      "t": 199548.4000000002,
      "d": 2545.618489583372,
      "v": 99
    },
    {
      "midi": 58,
      "hit": false,
      "t": 201458.49166666687,
      "d": 73.73515625001164,
      "v": 105
    },
    {
      "midi": 65,
      "hit": false,
      "t": 201458.49166666687,
      "d": 73.73515625001164,
      "v": 99
    },
    {
      "midi": 63,
      "hit": false,
      "t": 201795.56666666688,
      "d": 284.40703125001164,
      "v": 99
    },
    {
      "midi": 56,
      "hit": false,
      "t": 201795.56666666688,
      "d": 298.45182291668607,
      "v": 99
    },
    {
      "midi": 58,
      "hit": false,
      "t": 202245.00000000017,
      "d": 2679.044010416663,
      "v": 94
    },
    {
      "midi": 63,
      "hit": false,
      "t": 202245.00000000017,
      "d": 2679.044010416663,
      "v": 102
    },
    {
      "midi": 67,
      "hit": false,
      "t": 202245.00000000017,
      "d": 2679.044010416663,
      "v": 84
    },
    {
      "midi": 44,
      "hit": false,
      "t": 202245.00000000023,
      "d": 1723.9981770833256,
      "v": 111
    },
    {
      "midi": 67,
      "hit": false,
      "t": 202245.00000000023,
      "d": 2384.1033854166453,
      "v": 81
    },
    {
      "midi": 63,
      "hit": false,
      "t": 202245.00000000023,
      "d": 2433.2601562499767,
      "v": 93
    },
    {
      "midi": 44,
      "hit": false,
      "t": 204267.45000000022,
      "d": 579.34765625,
      "v": 77
    },
    {
      "midi": 60,
      "hit": false,
      "t": 204941.60000000018,
      "d": 2679.044010416663,
      "v": 84
    },
    {
      "midi": 65,
      "hit": false,
      "t": 204941.60000000018,
      "d": 2679.044010416663,
      "v": 98
    },
    {
      "midi": 43,
      "hit": false,
      "t": 204941.6000000002,
      "d": 1695.9085937500058,
      "v": 85
    },
    {
      "midi": 65,
      "hit": false,
      "t": 204941.6000000002,
      "d": 1913.602864583343,
      "v": 77
    },
    {
      "midi": 58,
      "hit": false,
      "t": 204941.6000000002,
      "d": 1920.6252604166802,
      "v": 63
    },
    {
      "midi": 60,
      "hit": false,
      "t": 204941.6000000002,
      "d": 1920.6252604166802,
      "v": 81
    },
    {
      "midi": 58,
      "hit": false,
      "t": 206964.05000000022,
      "d": 466.9893229166628,
      "v": 45
    },
    {
      "midi": 60,
      "hit": false,
      "t": 206964.05000000022,
      "d": 481.0341145833372,
      "v": 49
    },
    {
      "midi": 65,
      "hit": false,
      "t": 206964.05000000022,
      "d": 537.2132812500058,
      "v": 51
    },
    {
      "midi": 43,
      "hit": false,
      "t": 206964.05000000022,
      "d": 607.4372395833489,
      "v": 53
    },
    {
      "midi": 56,
      "hit": false,
      "t": 207638.2000000002,
      "d": 2679.044010416663,
      "v": 98
    },
    {
      "midi": 60,
      "hit": false,
      "t": 207638.2000000002,
      "d": 2679.044010416663,
      "v": 106
    },
    {
      "midi": 63,
      "hit": false,
      "t": 207638.2000000002,
      "d": 2679.044010416663,
      "v": 98
    },
    {
      "midi": 41,
      "hit": false,
      "t": 207638.20000000024,
      "d": 1407.9903645833256,
      "v": 105
    },
    {
      "midi": 56,
      "hit": false,
      "t": 207638.20000000024,
      "d": 2615.842447916657,
      "v": 85
    },
    {
      "midi": 65,
      "hit": false,
      "t": 207638.20000000024,
      "d": 2622.864843749994,
      "v": 85
    },
    {
      "midi": 60,
      "hit": false,
      "t": 207638.20000000024,
      "d": 2629.8872395833314,
      "v": 93
    },
    {
      "midi": 63,
      "hit": false,
      "t": 207638.20000000024,
      "d": 2629.8872395833314,
      "v": 77
    },
    {
      "midi": 41,
      "hit": false,
      "t": 209155.03750000024,
      "d": 1197.3184895833547,
      "v": 111
    },
    {
      "midi": 56,
      "hit": false,
      "t": 210334.8000000002,
      "d": 2679.044010416663,
      "v": 80
    },
    {
      "midi": 60,
      "hit": false,
      "t": 210334.8000000002,
      "d": 2679.044010416663,
      "v": 102
    },
    {
      "midi": 63,
      "hit": false,
      "t": 210334.8000000002,
      "d": 2679.044010416663,
      "v": 98
    },
    {
      "midi": 56,
      "hit": false,
      "t": 210334.80000000025,
      "d": 1590.5726562500058,
      "v": 85
    },
    {
      "midi": 63,
      "hit": false,
      "t": 210334.80000000025,
      "d": 1590.5726562500058,
      "v": 77
    },
    {
      "midi": 65,
      "hit": false,
      "t": 210334.80000000025,
      "d": 1590.5726562500058,
      "v": 81
    },
    {
      "midi": 60,
      "hit": false,
      "t": 210334.80000000025,
      "d": 1625.6846354166628,
      "v": 89
    },
    {
      "midi": 46,
      "hit": false,
      "t": 210334.80000000025,
      "d": 2545.618489583372,
      "v": 99
    },
    {
      "midi": 58,
      "hit": false,
      "t": 212244.89166666692,
      "d": 73.73515625001164,
      "v": 105
    },
    {
      "midi": 65,
      "hit": false,
      "t": 212244.89166666692,
      "d": 73.73515625001164,
      "v": 99
    },
    {
      "midi": 63,
      "hit": false,
      "t": 212581.96666666694,
      "d": 284.40703125001164,
      "v": 99
    },
    {
      "midi": 56,
      "hit": false,
      "t": 212581.96666666694,
      "d": 298.45182291668607,
      "v": 99
    }
  ]
}