{
  "jsonPath": "Rap/Pop Rap/Ginuwine/mike-tyson.json",
  "path": "Rap\\Pop Rap\\Ginuwine\\Mike Tyson.mid",
  "name": "Mike Tyson",
  "difficulty": "Advanced",
  "bpm": 60,
  "notes": [
    {
      "midi": 56,
      "hit": false,
      "t": 5594.404000000003,
      "d": 2715.616941666666,
      "v": 47
    },
    {
      "midi": 84,
      "hit": false,
      "t": 5594.404000000003,
      "d": 4941.723533333333,
      "v": 46
    },
    {
      "midi": 75,
      "hit": false,
      "t": 5594.404000000003,
      "d": 4953.378541666666,
      "v": 61
    },
    {
      "midi": 80,
      "hit": false,
      "t": 5594.404000000003,
      "d": 4953.378541666666,
      "v": 75
    },
    {
      "midi": 54,
      "hit": false,
      "t": 8391.606000000003,
      "d": 2808.8570083333325,
      "v": 75
    },
    {
      "midi": 80,
      "hit": false,
      "t": 11188.807999999994,
      "d": 710.9555083333325,
      "v": 86
    },
    {
      "midi": 80,
      "hit": false,
      "t": 11188.808000000003,
      "d": 2214.4515833333335,
      "v": 74
    },
    {
      "midi": 73,
      "hit": false,
      "t": 11188.808000000003,
      "d": 2249.416608333333,
      "v": 69
    },
    {
      "midi": 53,
      "hit": false,
      "t": 11188.808000000003,
      "d": 2808.8570083333325,
      "v": 88
    },
    {
      "midi": 82,
      "hit": false,
      "t": 11888.108499999993,
      "d": 699.3004999999994,
      "v": 84
    },
    {
      "midi": 80,
      "hit": false,
      "t": 12587.408999999992,
      "d": 734.2655249999989,
      "v": 84
    },
    {
      "midi": 75,
      "hit": false,
      "t": 13286.709499999992,
      "d": 291.3752083333329,
      "v": 81
    },
    {
      "midi": 68,
      "hit": false,
      "t": 13986.009999999991,
      "d": 2808.8570083333325,
      "v": 66
    },
    {
      "midi": 73,
      "hit": false,
      "t": 13986.009999999991,
      "d": 2843.822033333334,
      "v": 81
    },
    {
      "midi": 73,
      "hit": false,
      "t": 13986.010000000002,
      "d": 2156.176541666666,
      "v": 87
    },
    {
      "midi": 68,
      "hit": false,
      "t": 13986.010000000002,
      "d": 2167.831549999999,
      "v": 65
    },
    {
      "midi": 52,
      "hit": false,
      "t": 13986.010000000002,
      "d": 2692.306924999997,
      "v": 76
    },
    {
      "midi": 63,
      "hit": false,
      "t": 16783.212,
      "d": 5023.308591666668,
      "v": 43
    },
    {
      "midi": 68,
      "hit": false,
      "t": 16783.212,
      "d": 5058.273616666669,
      "v": 76
    },
    {
      "midi": 72,
      "hit": false,
      "t": 16783.212,
      "d": 5058.273616666669,
      "v": 65
    },
    {
      "midi": 51,
      "hit": false,
      "t": 16783.212,
      "d": 5524.473950000003,
      "v": 95
    },
    {
      "midi": 68,
      "hit": false,
      "t": 20979.014999999992,
      "d": 792.5405666666666,
      "v": 85
    },
    {
      "midi": 72,
      "hit": false,
      "t": 21678.315499999993,
      "d": 687.6454916666662,
      "v": 84
    },
    {
      "midi": 77,
      "hit": false,
      "t": 22377.616,
      "d": 337.9952416666674,
      "v": 66
    },
    {
      "midi": 80,
      "hit": false,
      "t": 22377.616,
      "d": 582.7504166666658,
      "v": 100
    },
    {
      "midi": 84,
      "hit": false,
      "t": 22377.616,
      "d": 769.2305499999966,
      "v": 63
    },
    {
      "midi": 50,
      "hit": false,
      "t": 22377.616,
      "d": 2086.2464916666613,
      "v": 84
    },
    {
      "midi": 82,
      "hit": false,
      "t": 23076.9165,
      "d": 699.3004999999976,
      "v": 90
    },
    {
      "midi": 84,
      "hit": false,
      "t": 23776.216999999997,
      "d": 501.1653583333318,
      "v": 88
    },
    {
      "midi": 77,
      "hit": false,
      "t": 24475.517499999998,
      "d": 1643.3561750000008,
      "v": 97
    },
    {
      "midi": 80,
      "hit": false,
      "t": 24475.517499999998,
      "d": 1643.3561750000008,
      "v": 70
    },
    {
      "midi": 82,
      "hit": false,
      "t": 24475.517499999998,
      "d": 1643.3561750000008,
      "v": 98
    },
    {
      "midi": 51,
      "hit": false,
      "t": 24475.517499999998,
      "d": 3449.882466666666,
      "v": 89
    },
    {
      "midi": 70,
      "hit": false,
      "t": 26573.418999999998,
      "d": 909.0906499999983,
      "v": 90
    },
    {
      "midi": 79,
      "hit": false,
      "t": 26573.418999999998,
      "d": 920.7456583333333,
      "v": 65
    },
    {
      "midi": 65,
      "hit": false,
      "t": 206992.94799999997,
      "d": 2634.031883333373,
      "v": 98
    },
    {
      "midi": 74,
      "hit": false,
      "t": 207692.2485,
      "d": 874.1256250000151,
      "v": 82
    },
    {
      "midi": 82,
      "hit": false,
      "t": 208391.549,
      "d": 734.2655250000244,
      "v": 86
    },
    {
      "midi": 74,
      "hit": false,
      "t": 209090.8495,
      "d": 734.2655250000244,
      "v": 83
    },
    {
      "midi": 64,
      "hit": false,
      "t": 209790.15000000002,
      "d": 2750.5819666666794,
      "v": 46
    },
    {
      "midi": 75,
      "hit": false,
      "t": 210489.45050000004,
      "d": 710.9555083333398,
      "v": 98
    },
    {
      "midi": 81,
      "hit": false,
      "t": 211188.75100000005,
      "d": 862.4706166666583,
      "v": 74
    },
    {
      "midi": 75,
      "hit": false,
      "t": 211888.05150000003,
      "d": 524.4753750000091,
      "v": 80
    },
    {
      "midi": 63,
      "hit": false,
      "t": 212587.35200000004,
      "d": 2494.1717833333823,
      "v": 87
    },
    {
      "midi": 75,
      "hit": false,
      "t": 213286.65250000005,
      "d": 745.9205333333521,
      "v": 43
    },
    {
      "midi": 80,
      "hit": false,
      "t": 213985.95300000007,
      "d": 757.5755416666798,
      "v": 86
    },
    {
      "midi": 75,
      "hit": false,
      "t": 214685.25350000008,
      "d": 559.4404000000213,
      "v": 86
    },
    {
      "midi": 62,
      "hit": false,
      "t": 215384.5540000001,
      "d": 2622.3768750000454,
      "v": 84
    },
    {
      "midi": 74,
      "hit": false,
      "t": 216083.8545000001,
      "d": 850.8156083333597,
      "v": 51
    },
    {
      "midi": 80,
      "hit": false,
      "t": 216783.15500000012,
      "d": 804.1955750000197,
      "v": 58
    },
    {
      "midi": 74,
      "hit": false,
      "t": 217482.45550000013,
      "d": 512.8203666666814,
      "v": 67
    },
    {
      "midi": 61,
      "hit": false,
      "t": 218181.75600000014,
      "d": 2331.001666666707,
      "v": 98
    },
    {
      "midi": 73,
      "hit": false,
      "t": 218881.05650000015,
      "d": 734.2655250000244,
      "v": 80
    },
    {
      "midi": 78,
      "hit": false,
      "t": 219580.35700000016,
      "d": 629.3704500000167,
      "v": 97
    },
    {
      "midi": 73,
      "hit": false,
      "t": 220279.65750000018,
      "d": 594.4054250000045,
      "v": 91
    },
    {
      "midi": 61,
      "hit": false,
      "t": 220978.9580000002,
      "d": 2482.5167750000546,
      "v": 83
    },
    {
      "midi": 71,
      "hit": false,
      "t": 221678.2585000002,
      "d": 734.2655250000244,
      "v": 69
    },
    {
      "midi": 78,
      "hit": false,
      "t": 222377.5590000002,
      "d": 792.540566666692,
      "v": 80
    },
    {
      "midi": 71,
      "hit": false,
      "t": 223076.85950000022,
      "d": 349.65025000000605,
      "v": 63
    },
    {
      "midi": 58,
      "hit": false,
      "t": 223776.16000000024,
      "d": 3624.7075916666654,
      "v": 76
    },
    {
      "midi": 61,
      "hit": false,
      "t": 223776.16000000024,
      "d": 3624.7075916666654,
      "v": 83
    },
    {
      "midi": 54,
      "hit": false,
      "t": 223776.16000000024,
      "d": 3951.047824999987,
      "v": 59
    },
    {
      "midi": 42,
      "hit": false,
      "t": 223776.16000000024,
      "d": 3974.3578416666423,
      "v": 53
    },
    {
      "midi": 82,
      "hit": false,
      "t": 227971.96300000022,
      "d": 303.0302166666661,
      "v": 100
    },
    {
      "midi": 80,
      "hit": false,
      "t": 228321.61325000023,
      "d": 384.6152750000183,
      "v": 92
    },
    {
      "midi": 78,
      "hit": false,
      "t": 228671.26350000023,
      "d": 326.3402333333506,
      "v": 84
    },
    {
      "midi": 80,
      "hit": false,
      "t": 229020.91375000024,
      "d": 209.79014999998617,
      "v": 86
    },
    {
      "midi": 65,
      "hit": false,
      "t": 229370.56400000022,
      "d": 1526.8060916666873,
      "v": 82
    },
    {
      "midi": 70,
      "hit": false,
      "t": 230069.86450000023,
      "d": 769.2305500000075,
      "v": 90
    },
    {
      "midi": 74,
      "hit": false,
      "t": 230769.16500000024,
      "d": 687.6454916666553,
      "v": 93
    },
    {
      "midi": 70,
      "hit": false,
      "t": 231468.46550000022,
      "d": 967.365691666666,
      "v": 86
    },
    {
      "midi": 58,
      "hit": false,
      "t": 232167.76600000024,
      "d": 2214.4515833333135,
      "v": 86
    },
    {
      "midi": 70,
      "hit": false,
      "t": 232867.06650000022,
      "d": 687.6454916666553,
      "v": 74
    },
    {
      "midi": 74,
      "hit": false,
      "t": 233566.3670000002,
      "d": 745.9205333333521,
      "v": 57
    },
    {
      "midi": 70,
      "hit": false,
      "t": 234265.6675000002,
      "d": 582.7504166666768,
      "v": 66
    },
    {
      "midi": 62,
      "hit": false,
      "t": 234964.96800000023,
      "d": 1783.2162750000425,
      "v": 92
    },
    {
      "midi": 70,
      "hit": false,
      "t": 235664.26850000024,
      "d": 745.9205333333521,
      "v": 50
    },
    {
      "midi": 74,
      "hit": false,
      "t": 236363.56900000025,
      "d": 699.3005000000121,
      "v": 58
    },
    {
      "midi": 70,
      "hit": false,
      "t": 237062.86950000026,
      "d": 501.16535833332455,
      "v": 72
    },
    {
      "midi": 63,
      "hit": false,
      "t": 237762.17000000025,
      "d": 2202.796575000015,
      "v": 91
    },
    {
      "midi": 70,
      "hit": false,
      "t": 238461.47050000026,
      "d": 745.9205333333521,
      "v": 71
    },
    {
      "midi": 75,
      "hit": false,
      "t": 239160.77100000027,
      "d": 675.9904833333276,
      "v": 87
    },
    {
      "midi": 70,
      "hit": false,
      "t": 239860.07150000025,
      "d": 641.0254583333444,
      "v": 92
    },
    {
      "midi": 56,
      "hit": false,
      "t": 240559.37200000026,
      "d": 2331.001666666678,
      "v": 104
    },
    {
      "midi": 68,
      "hit": false,
      "t": 241258.67250000028,
      "d": 710.9555083333398,
      "v": 72
    },
    {
      "midi": 71,
      "hit": false,
      "t": 241957.9730000003,
      "d": 641.0254583333153,
      "v": 103
    },
    {
      "midi": 68,
      "hit": false,
      "t": 242657.27350000027,
      "d": 874.1256250000151,
      "v": 98
    },
    {
      "midi": 56,
      "hit": false,
      "t": 243356.57400000028,
      "d": 2657.3419000000576,
      "v": 100
    },
    {
      "midi": 66,
      "hit": false,
      "t": 244055.8745000003,
      "d": 804.1955750000197,
      "v": 86
    },
    {
      "midi": 71,
      "hit": false,
      "t": 244755.1750000003,
      "d": 734.2655250000244,
      "v": 104
    },
    {
      "midi": 66,
      "hit": false,
      "t": 245454.47550000032,
      "d": 524.4753750000091,
      "v": 103
    },
    {
      "midi": 61,
      "hit": false,
      "t": 246153.77600000033,
      "d": 3251.747325000062,
      "v": 85
    },
    {
      "midi": 66,
      "hit": false,
      "t": 246853.07650000034,
      "d": 792.540566666692,
      "v": 119
    },
    {
      "midi": 71,
      "hit": false,
      "t": 247552.37700000036,
      "d": 792.540566666692,
      "v": 104
    },
    {
      "midi": 66,
      "hit": false,
      "t": 248251.67750000037,
      "d": 221.445158333343,
      "v": 117
    },
    {
      "midi": 68,
      "hit": false,
      "t": 248950.97800000038,
      "d": 571.095408333349,
      "v": 109
    },
    {
      "midi": 65,
      "hit": false,
      "t": 248950.97800000038,
      "d": 582.7504166666768,
      "v": 106
    },
    {
      "midi": 73,
      "hit": false,
      "t": 248950.97800000038,
      "d": 594.4054250000045,
      "v": 113
    },
    {
      "midi": 71,
      "hit": false,
      "t": 250349.57900000038,
      "d": 116.55008333333535,
      "v": 127
    },
    {
      "midi": 68,
      "hit": false,
      "t": 250349.57900000038,
      "d": 163.1701166666753,
      "v": 127
    },
    {
      "midi": 73,
      "hit": false,
      "t": 250699.22925000038,
      "d": 104.89507500000764,
      "v": 127
    },
    {
      "midi": 70,
      "hit": false,
      "t": 250699.22925000038,
      "d": 128.20509166666307,
      "v": 127
    },
    {
      "midi": 71,
      "hit": false,
      "t": 251048.8795000004,
      "d": 174.82512500000303,
      "v": 127
    },
    {
      "midi": 75,
      "hit": false,
      "t": 251048.8795000004,
      "d": 174.82512500000303,
      "v": 127
    },
    {
      "midi": 77,
      "hit": false,
      "t": 251398.5297500004,
      "d": 221.445158333343,
      "v": 127
    },
    {
      "midi": 73,
      "hit": false,
      "t": 251398.5297500004,
      "d": 233.1001666666707,
      "v": 127
    },
    {
      "midi": 78,
      "hit": false,
      "t": 251748.1800000004,
      "d": 1025.6407333333336,
      "v": 100
    },
    {
      "midi": 71,
      "hit": false,
      "t": 251748.1800000004,
      "d": 1083.9157750000013,
      "v": 103
    },
    {
      "midi": 75,
      "hit": false,
      "t": 251748.1800000004,
      "d": 1153.8458249999967,
      "v": 106
    },
    {
      "midi": 59,
      "hit": false,
      "t": 251748.1800000004,
      "d": 1783.2162749999843,
      "v": 98
    },
    {
      "midi": 78,
      "hit": false,
      "t": 253146.7810000004,
      "d": 629.3704499999876,
      "v": 100
    },
    {
      "midi": 71,
      "hit": false,
      "t": 253146.7810000004,
      "d": 652.680466666643,
      "v": 100
    },
    {
      "midi": 75,
      "hit": false,
      "t": 253146.7810000004,
      "d": 920.745658333326,
      "v": 103
    },
    {
      "midi": 59,
      "hit": false,
      "t": 253846.08150000038,
      "d": 594.4054250000336,
      "v": 65
    },
    {
      "midi": 78,
      "hit": false,
      "t": 254545.38200000042,
      "d": 1118.8808000000136,
      "v": 80
    },
    {
      "midi": 71,
      "hit": false,
      "t": 254545.38200000042,
      "d": 1142.190816666669,
      "v": 69
    },
    {
      "midi": 75,
      "hit": false,
      "t": 254545.38200000042,
      "d": 1200.4658583333367,
      "v": 85
    },
    {
      "midi": 61,
      "hit": false,
      "t": 254545.38200000042,
      "d": 1748.2512500000012,
      "v": 65
    },
    {
      "midi": 78,
      "hit": false,
      "t": 255943.98300000041,
      "d": 407.92529166667373,
      "v": 89
    },
    {
      "midi": 75,
      "hit": false,
      "t": 255943.98300000041,
      "d": 536.1303833333368,
      "v": 96
    },
    {
      "midi": 71,
      "hit": false,
      "t": 255943.98300000041,
      "d": 559.4403999999922,
      "v": 86
    },
    {
      "midi": 61,
      "hit": false,
      "t": 256643.2835000004,
      "d": 466.2003333333414,
      "v": 92
    },
    {
      "midi": 70,
      "hit": false,
      "t": 257342.5840000004,
      "d": 1060.6057583333168,
      "v": 91
    },
    {
      "midi": 73,
      "hit": false,
      "t": 257342.5840000004,
      "d": 1095.570783333329,
      "v": 95
    },
    {
      "midi": 65,
      "hit": false,
      "t": 257342.5840000004,
      "d": 1118.8807999999844,
      "v": 64
    },
    {
      "midi": 58,
      "hit": false,
      "t": 257342.5840000004,
      "d": 1783.2162749999843,
      "v": 86
    },
    {
      "midi": 73,
      "hit": false,
      "t": 258741.1850000004,
      "d": 1060.6057583333168,
      "v": 101
    },
    {
      "midi": 70,
      "hit": false,
      "t": 258741.1850000004,
      "d": 1095.570783333329,
      "v": 96
    },
    {
      "midi": 65,
      "hit": false,
      "t": 258741.1850000004,
      "d": 1107.2257916666567,
      "v": 70
    },
    {
      "midi": 58,
      "hit": false,
      "t": 259440.4855000004,
      "d": 536.1303833333368,
      "v": 93
    },
    {
      "midi": 63,
      "hit": false,
      "t": 260139.78600000037,
      "d": 1899.7663583333488,
      "v": 103
    },
    {
      "midi": 66,
      "hit": false,
      "t": 261538.3870000004,
      "d": 757.5755416666507,
      "v": 92
    },
    {
      "midi": 70,
      "hit": false,
      "t": 261538.3870000004,
      "d": 792.5405666666338,
      "v": 93
    },
    {
      "midi": 73,
      "hit": false,
      "t": 261538.3870000004,
      "d": 804.1955749999615,
      "v": 103
    },
    {
      "midi": 63,
      "hit": false,
      "t": 262237.6875000004,
      "d": 407.9252916666446,
      "v": 98
    },
    {
      "midi": 71,
      "hit": false,
      "t": 262936.98800000036,
      "d": 1142.1908166666399,
      "v": 84
    },
    {
      "midi": 78,
      "hit": false,
      "t": 262936.98800000036,
      "d": 1177.155841666623,
      "v": 92
    },
    {
      "midi": 75,
      "hit": false,
      "t": 262936.98800000036,
      "d": 1223.7758749999339,
      "v": 95
    },
    {
      "midi": 59,
      "hit": false,
      "t": 262936.98800000036,
      "d": 1666.6661916665616,
      "v": 91
    },
    {
      "midi": 71,
      "hit": false,
      "t": 264335.58900000027,
      "d": 967.365691666666,
      "v": 88
    },
    {
      "midi": 78,
      "hit": false,
      "t": 264335.58900000027,
      "d": 990.6757083333214,
      "v": 75
    },
    {
      "midi": 75,
      "hit": false,
      "t": 264335.58900000027,
      "d": 1293.7059249999584,
      "v": 92
    },
    {
      "midi": 59,
      "hit": false,
      "t": 265034.8895000003,
      "d": 652.6804666665848,
      "v": 93
    },
    {
      "midi": 78,
      "hit": false,
      "t": 265734.1900000002,
      "d": 967.365691666666,
      "v": 49
    },
    {
      "midi": 71,
      "hit": false,
      "t": 265734.1900000002,
      "d": 1037.2957416666904,
      "v": 81
    },
    {
      "midi": 75,
      "hit": false,
      "t": 265734.1900000002,
      "d": 1060.6057583333459,
      "v": 27
    },
    {
      "midi": 61,
      "hit": false,
      "t": 265734.1900000002,
      "d": 1701.6312166667194,
      "v": 83
    },
    {
      "midi": 78,
      "hit": false,
      "t": 267132.7910000002,
      "d": 326.3402333333506,
      "v": 82
    },
    {
      "midi": 71,
      "hit": false,
      "t": 267132.7910000002,
      "d": 477.8553416666691,
      "v": 72
    },
    {
      "midi": 75,
      "hit": false,
      "t": 267132.7910000002,
      "d": 477.8553416666691,
      "v": 92
    },
    {
      "midi": 61,
      "hit": false,
      "t": 267832.0915000002,
      "d": 303.0302166666952,
      "v": 79
    },
    {
      "midi": 71,
      "hit": false,
      "t": 268531.3920000002,
      "d": 1083.9157750000013,
      "v": 94
    },
    {
      "midi": 64,
      "hit": false,
      "t": 268531.3920000002,
      "d": 1107.2257916666567,
      "v": 82
    },
    {
      "midi": 68,
      "hit": false,
      "t": 268531.3920000002,
      "d": 1142.1908166666399,
      "v": 81
    },
    {
      "midi": 54,
      "hit": false,
      "t": 268531.3920000002,
      "d": 1550.1161083332845,
      "v": 72
    },
    {
      "midi": 71,
      "hit": false,
      "t": 269929.9930000002,
      "d": 629.3704499999876,
      "v": 94
    },
    {
      "midi": 64,
      "hit": false,
      "t": 269929.9930000002,
      "d": 641.0254583333153,
      "v": 89
    },
    {
      "midi": 68,
      "hit": false,
      "t": 269929.9930000002,
      "d": 687.6454916666262,
      "v": 77
    },
    {
      "midi": 54,
      "hit": false,
      "t": 270629.29350000015,
      "d": 477.8553416666109,
      "v": 92
    },
    {
      "midi": 73,
      "hit": false,
      "t": 271328.5940000001,
      "d": 1060.6057583333459,
      "v": 86
    },
    {
      "midi": 66,
      "hit": false,
      "t": 271328.5940000001,
      "d": 1083.9157750000013,
      "v": 74
    },
    {
      "midi": 70,
      "hit": false,
      "t": 271328.5940000001,
      "d": 1095.570783333329,
      "v": 79
    },
    {
      "midi": 54,
      "hit": false,
      "t": 271328.5940000001,
      "d": 1433.5660250000074,
      "v": 80
    },
    {
      "midi": 66,
      "hit": false,
      "t": 272727.1950000001,
      "d": 291.3752083333093,
      "v": 80
    },
    {
      "midi": 73,
      "hit": false,
      "t": 272727.1950000001,
      "d": 326.3402333332924,
      "v": 95
    },
    {
      "midi": 70,
      "hit": false,
      "t": 272727.1950000001,
      "d": 337.99524166662013,
      "v": 83
    },
    {
      "midi": 54,
      "hit": false,
      "t": 273426.4955000001,
      "d": 396.2702833333169,
      "v": 72
    },
    {
      "midi": 66,
      "hit": false,
      "t": 274125.79600000003,
      "d": 1037.2957416666904,
      "v": 80
    },
    {
      "midi": 71,
      "hit": false,
      "t": 274125.79600000003,
      "d": 1060.6057583333459,
      "v": 94
    },
    {
      "midi": 75,
      "hit": false,
      "t": 274125.79600000003,
      "d": 1095.570783333329,
      "v": 85
    },
    {
      "midi": 59,
      "hit": false,
      "t": 274125.79600000003,
      "d": 1631.701166666695,
      "v": 79
    },
    {
      "midi": 75,
      "hit": false,
      "t": 275524.39700000006,
      "d": 477.8553416666691,
      "v": 95
    },
    {
      "midi": 66,
      "hit": false,
      "t": 275524.39700000006,
      "d": 524.47537499998,
      "v": 86
    },
    {
      "midi": 71,
      "hit": false,
      "t": 275524.39700000006,
      "d": 559.4403999999631,
      "v": 98
    },
    {
      "midi": 59,
      "hit": false,
      "t": 276223.6975,
      "d": 536.1303833333659,
      "v": 70
    },
    {
      "midi": 70,
      "hit": false,
      "t": 276922.998,
      "d": 675.9904833333567,
      "v": 93
    },
    {
      "midi": 74,
      "hit": false,
      "t": 276922.998,
      "d": 745.9205333333812,
      "v": 82
    },
    {
      "midi": 58,
      "hit": false,
      "t": 276922.998,
      "d": 2517.4818000000087,
      "v": 99
    },
    {
      "midi": 68,
      "hit": false,
      "t": 278321.59900000005,
      "d": 792.540566666692,
      "v": 109
    },
    {
      "midi": 65,
      "hit": false,
      "t": 278321.59900000005,
      "d": 850.8156083333306,
      "v": 87
    },
    {
      "midi": 74,
      "hit": false,
      "t": 278321.59900000005,
      "d": 862.4706166666583,
      "v": 90
    },
    {
      "midi": 68,
      "hit": false,
      "t": 279720.2,
      "d": 885.7806333333137,
      "v": 98
    },
    {
      "midi": 65,
      "hit": false,
      "t": 279720.2,
      "d": 979.0206999999937,
      "v": 81
    },
    {
      "midi": 74,
      "hit": false,
      "t": 279720.2,
      "d": 1025.6407333333045,
      "v": 86
    },
    {
      "midi": 62,
      "hit": false,
      "t": 279720.2,
      "d": 1783.216274999897,
      "v": 75
    },
    {
      "midi": 65,
      "hit": false,
      "t": 281118.801,
      "d": 233.1001666666707,
      "v": 81
    },
    {
      "midi": 68,
      "hit": false,
      "t": 281118.801,
      "d": 279.72019999998156,
      "v": 103
    },
    {
      "midi": 74,
      "hit": false,
      "t": 281118.801,
      "d": 337.99524166662013,
      "v": 84
    },
    {
      "midi": 62,
      "hit": false,
      "t": 281818.10149999993,
      "d": 186.48013333335984,
      "v": 73
    },
    {
      "midi": 75,
      "hit": false,
      "t": 282517.40199999994,
      "d": 1037.2957416666904,
      "v": 92
    },
    {
      "midi": 70,
      "hit": false,
      "t": 282517.40199999994,
      "d": 1165.5008333333535,
      "v": 86
    },
    {
      "midi": 66,
      "hit": false,
      "t": 282517.40199999994,
      "d": 1223.775874999992,
      "v": 81
    },
    {
      "midi": 63,
      "hit": false,
      "t": 282517.40199999994,
      "d": 1270.395908333303,
      "v": 82
    },
    {
      "midi": 66,
      "hit": false,
      "t": 283916.0029999999,
      "d": 1060.6057583333459,
      "v": 92
    },
    {
      "midi": 70,
      "hit": false,
      "t": 283916.0029999999,
      "d": 1060.6057583333459,
      "v": 91
    },
    {
      "midi": 73,
      "hit": false,
      "t": 283916.0029999999,
      "d": 1083.9157750000013,
      "v": 96
    },
    {
      "midi": 61,
      "hit": false,
      "t": 283916.0029999999,
      "d": 1095.570783333329,
      "v": 89
    },
    {
      "midi": 72,
      "hit": false,
      "t": 285314.60399999993,
      "d": 571.095408333349,
      "v": 69
    },
    {
      "midi": 75,
      "hit": false,
      "t": 285314.60399999993,
      "d": 641.0254583333735,
      "v": 83
    },
    {
      "midi": 60,
      "hit": false,
      "t": 285314.60399999993,
      "d": 1666.666191666678,
      "v": 68
    },
    {
      "midi": 75,
      "hit": false,
      "t": 286713.20499999996,
      "d": 594.4054250000045,
      "v": 88
    },
    {
      "midi": 72,
      "hit": false,
      "t": 286713.20499999996,
      "d": 734.2655249999953,
      "v": 76
    },
    {
      "midi": 60,
      "hit": false,
      "t": 287412.50549999997,
      "d": 361.30525833333377,
      "v": 73
    },
    {
      "midi": 66,
      "hit": false,
      "t": 288111.806,
      "d": 1107.2257916666567,
      "v": 64
    },
    {
      "midi": 74,
      "hit": false,
      "t": 288111.806,
      "d": 1142.1908166666399,
      "v": 54
    },
    {
      "midi": 71,
      "hit": false,
      "t": 288111.806,
      "d": 1153.8458249999676,
      "v": 71
    },
    {
      "midi": 59,
      "hit": false,
      "t": 288111.806,
      "d": 1934.7313833332737,
      "v": 74
    },
    {
      "midi": 66,
      "hit": false,
      "t": 289510.40699999995,
      "d": 850.8156083332724,
      "v": 89
    },
    {
      "midi": 71,
      "hit": false,
      "t": 289510.40699999995,
      "d": 862.4706166666001,
      "v": 93
    },
    {
      "midi": 74,
      "hit": false,
      "t": 289510.40699999995,
      "d": 862.4706166666001,
      "v": 77
    },
    {
      "midi": 59,
      "hit": false,
      "t": 290209.7074999999,
      "d": 594.4054250000045,
      "v": 96
    },
    {
      "midi": 73,
      "hit": false,
      "t": 290909.0079999999,
      "d": 979.0206999999937,
      "v": 90
    },
    {
      "midi": 64,
      "hit": false,
      "t": 290909.0079999999,
      "d": 990.6757083333214,
      "v": 69
    },
    {
      "midi": 68,
      "hit": false,
      "t": 290909.0079999999,
      "d": 1037.2957416666322,
      "v": 81
    },
    {
      "midi": 52,
      "hit": false,
      "t": 290909.0079999999,
      "d": 1923.076374999946,
      "v": 80
    },
    {
      "midi": 64,
      "hit": false,
      "t": 292307.6089999999,
      "d": 349.65025000000605,
      "v": 81
    },
    {
      "midi": 68,
      "hit": false,
      "t": 292307.6089999999,
      "d": 361.30525833333377,
      "v": 90
    },
    {
      "midi": 73,
      "hit": false,
      "t": 292307.6089999999,
      "d": 384.6152749999892,
      "v": 100
    },
    {
      "midi": 70,
      "hit": false,
      "t": 293706.20999999985,
      "d": 268.06519166665385,
      "v": 87
    },
    {
      "midi": 68,
      "hit": false,
      "t": 293706.20999999985,
      "d": 384.6152749999892,
      "v": 81
    },
    {
      "midi": 75,
      "hit": false,
      "t": 293706.20999999985,
      "d": 419.58029999997234,
      "v": 95
    },
    {
      "midi": 73,
      "hit": false,
      "t": 293706.20999999985,
      "d": 466.2003333332832,
      "v": 89
    },
    {
      "midi": 73,
      "hit": false,
      "t": 295104.81099999975,
      "d": 582.7504166666768,
      "v": 105
    },
    {
      "midi": 67,
      "hit": false,
      "t": 295104.81099999975,
      "d": 699.3005000000121,
      "v": 84
    },
    {
      "midi": 75,
      "hit": false,
      "t": 295104.81099999975,
      "d": 710.9555083333398,
      "v": 77
    },
    {
      "midi": 75,
      "hit": false,
      "t": 296503.4119999997,
      "d": 4347.318108333275,
      "v": 86
    },
    {
      "midi": 56,
      "hit": false,
      "t": 296503.4119999997,
      "d": 4405.593149999913,
      "v": 82
    },
    {
      "midi": 66,
      "hit": false,
      "t": 296515.06700833305,
      "d": 4358.973116666602,
      "v": 66
    },
    {
      "midi": 71,
      "hit": false,
      "t": 296526.7220166664,
      "d": 4347.318108333275,
      "v": 79
    }
  ]
}