{
  "jsonPath": "Rock/Album Rock/John Lennon/happy-xmas.json",
  "path": "Rock\\Album Rock\\John Lennon\\Happy Xmas.mid",
  "name": "Happy Xmas",
  "difficulty": "Advanced",
  "bpm": 100,
  "notes": [
    {
      "midi": 67,
      "hit": false,
      "t": 900,
      "d": 300,
      "v": 70
    },
    {
      "midi": 69,
      "hit": false,
      "t": 1200,
      "d": 300,
      "v": 77
    },
    {
      "midi": 71,
      "hit": false,
      "t": 1500,
      "d": 300,
      "v": 84
    },
    {
      "midi": 59,
      "hit": false,
      "t": 1800,
      "d": 300,
      "v": 69
    },
    {
      "midi": 67,
      "hit": false,
      "t": 1800,
      "d": 300,
      "v": 68
    },
    {
      "midi": 43,
      "hit": false,
      "t": 1800,
      "d": 600,
      "v": 73
    },
    {
      "midi": 62,
      "hit": false,
      "t": 2100,
      "d": 600,
      "v": 64
    },
    {
      "midi": 50,
      "hit": false,
      "t": 2400,
      "d": 300,
      "v": 81
    },
    {
      "midi": 57,
      "hit": false,
      "t": 2700,
      "d": 900,
      "v": 73
    },
    {
      "midi": 55,
      "hit": false,
      "t": 2700,
      "d": 300,
      "v": 84
    },
    {
      "midi": 50,
      "hit": false,
      "t": 3000,
      "d": 300,
      "v": 71
    },
    {
      "midi": 47,
      "hit": false,
      "t": 3300,
      "d": 300,
      "v": 74
    },
    {
      "midi": 60,
      "hit": false,
      "t": 3600,
      "d": 600,
      "v": 82
    },
    {
      "midi": 43,
      "hit": false,
      "t": 3600,
      "d": 300,
      "v": 71
    },
    {
      "midi": 48,
      "hit": false,
      "t": 3900,
      "d": 300,
      "v": 77
    },
    {
      "midi": 62,
      "hit": false,
      "t": 4200,
      "d": 300,
      "v": 69
    },
    {
      "midi": 50,
      "hit": false,
      "t": 4200,
      "d": 300,
      "v": 81
    },
    {
      "midi": 59,
      "hit": false,
      "t": 4500,
      "d": 300,
      "v": 76
    },
    {
      "midi": 67,
      "hit": false,
      "t": 4500,
      "d": 300,
      "v": 90
    },
    {
      "midi": 55,
      "hit": false,
      "t": 4500,
      "d": 900,
      "v": 81
    },
    {
      "midi": 69,
      "hit": false,
      "t": 4800,
      "d": 300,
      "v": 82
    },
    {
      "midi": 71,
      "hit": false,
      "t": 5100,
      "d": 300,
      "v": 82
    },
    {
      "midi": 60,
      "hit": false,
      "t": 5400,
      "d": 900,
      "v": 82
    },
    {
      "midi": 69,
      "hit": false,
      "t": 5400,
      "d": 900,
      "v": 73
    },
    {
      "midi": 45,
      "hit": false,
      "t": 5400,
      "d": 300,
      "v": 66
    },
    {
      "midi": 48,
      "hit": false,
      "t": 5700,
      "d": 300,
      "v": 72
    },
    {
      "midi": 52,
      "hit": false,
      "t": 6000,
      "d": 300,
      "v": 79
    },
    {
      "midi": 59,
      "hit": false,
      "t": 6300,
      "d": 900,
      "v": 71
    },
    {
      "midi": 57,
      "hit": false,
      "t": 6300,
      "d": 300,
      "v": 75
    },
    {
      "midi": 52,
      "hit": false,
      "t": 6600,
      "d": 300,
      "v": 71
    },
    {
      "midi": 48,
      "hit": false,
      "t": 6900,
      "d": 300,
      "v": 74
    },
    {
      "midi": 62,
      "hit": false,
      "t": 7200,
      "d": 600,
      "v": 83
    },
    {
      "midi": 45,
      "hit": false,
      "t": 7200,
      "d": 300,
      "v": 75
    },
    {
      "midi": 48,
      "hit": false,
      "t": 7500,
      "d": 300,
      "v": 76
    },
    {
      "midi": 64,
      "hit": false,
      "t": 7800,
      "d": 300,
      "v": 70
    },
    {
      "midi": 52,
      "hit": false,
      "t": 7800,
      "d": 300,
      "v": 81
    },
    {
      "midi": 60,
      "hit": false,
      "t": 8100,
      "d": 300,
      "v": 68
    },
    {
      "midi": 69,
      "hit": false,
      "t": 8100,
      "d": 300,
      "v": 85
    },
    {
      "midi": 57,
      "hit": false,
      "t": 8100,
      "d": 900,
      "v": 78
    },
    {
      "midi": 71,
      "hit": false,
      "t": 8400,
      "d": 300,
      "v": 78
    },
    {
      "midi": 72,
      "hit": false,
      "t": 8700,
      "d": 300,
      "v": 83
    },
    {
      "midi": 67,
      "hit": false,
      "t": 9000,
      "d": 300,
      "v": 86
    },
    {
      "midi": 71,
      "hit": false,
      "t": 9000,
      "d": 300,
      "v": 72
    },
    {
      "midi": 50,
      "hit": false,
      "t": 9000,
      "d": 600,
      "v": 62
    },
    {
      "midi": 69,
      "hit": false,
      "t": 9300,
      "d": 300,
      "v": 100
    },
    {
      "midi": 66,
      "hit": false,
      "t": 9600,
      "d": 900,
      "v": 71
    },
    {
      "midi": 57,
      "hit": false,
      "t": 9600,
      "d": 300,
      "v": 85
    },
    {
      "midi": 62,
      "hit": false,
      "t": 9900,
      "d": 300,
      "v": 87
    },
    {
      "midi": 57,
      "hit": false,
      "t": 10200,
      "d": 300,
      "v": 72
    },
    {
      "midi": 54,
      "hit": false,
      "t": 10500,
      "d": 300,
      "v": 74
    },
    {
      "midi": 64,
      "hit": false,
      "t": 10800,
      "d": 600,
      "v": 69
    },
    {
      "midi": 50,
      "hit": false,
      "t": 10800,
      "d": 300,
      "v": 76
    },
    {
      "midi": 54,
      "hit": false,
      "t": 11100,
      "d": 300,
      "v": 80
    },
    {
      "midi": 62,
      "hit": false,
      "t": 11400,
      "d": 150,
      "v": 69
    },
    {
      "midi": 57,
      "hit": false,
      "t": 11400,
      "d": 300,
      "v": 82
    },
    {
      "midi": 62,
      "hit": false,
      "t": 11550,
      "d": 150,
      "v": 75
    },
    {
      "midi": 66,
      "hit": false,
      "t": 11700,
      "d": 300,
      "v": 78
    },
    {
      "midi": 71,
      "hit": false,
      "t": 11700,
      "d": 300,
      "v": 91
    },
    {
      "midi": 62,
      "hit": false,
      "t": 11700,
      "d": 900,
      "v": 85
    },
    {
      "midi": 74,
      "hit": false,
      "t": 12000,
      "d": 300,
      "v": 84
    },
    {
      "midi": 71,
      "hit": false,
      "t": 12300,
      "d": 150,
      "v": 71
    },
    {
      "midi": 69,
      "hit": false,
      "t": 12450,
      "d": 150,
      "v": 72
    },
    {
      "midi": 67,
      "hit": false,
      "t": 12600,
      "d": 900,
      "v": 72
    },
    {
      "midi": 43,
      "hit": false,
      "t": 12600,
      "d": 300,
      "v": 72
    },
    {
      "midi": 47,
      "hit": false,
      "t": 12900,
      "d": 300,
      "v": 83
    },
    {
      "midi": 50,
      "hit": false,
      "t": 13200,
      "d": 300,
      "v": 84
    },
    {
      "midi": 57,
      "hit": false,
      "t": 13500,
      "d": 900,
      "v": 68
    },
    {
      "midi": 55,
      "hit": false,
      "t": 13500,
      "d": 300,
      "v": 81
    },
    {
      "midi": 50,
      "hit": false,
      "t": 13800,
      "d": 300,
      "v": 75
    },
    {
      "midi": 47,
      "hit": false,
      "t": 14100,
      "d": 300,
      "v": 73
    },
    {
      "midi": 60,
      "hit": false,
      "t": 14400,
      "d": 600,
      "v": 79
    },
    {
      "midi": 43,
      "hit": false,
      "t": 14400,
      "d": 300,
      "v": 72
    },
    {
      "midi": 47,
      "hit": false,
      "t": 14700,
      "d": 300,
      "v": 83
    },
    {
      "midi": 67,
      "hit": false,
      "t": 15000,
      "d": 300,
      "v": 71
    },
    {
      "midi": 50,
      "hit": false,
      "t": 15000,
      "d": 300,
      "v": 81
    },
    {
      "midi": 67,
      "hit": false,
      "t": 15300,
      "d": 300,
      "v": 93
    },
    {
      "midi": 76,
      "hit": false,
      "t": 15300,
      "d": 300,
      "v": 87
    },
    {
      "midi": 55,
      "hit": false,
      "t": 15300,
      "d": 300,
      "v": 80
    },
    {
      "midi": 76,
      "hit": false,
      "t": 15600,
      "d": 300,
      "v": 79
    },
    {
      "midi": 45,
      "hit": false,
      "t": 15600,
      "d": 300,
      "v": 71
    },
    {
      "midi": 76,
      "hit": false,
      "t": 15900,
      "d": 300,
      "v": 79
    },
    {
      "midi": 47,
      "hit": false,
      "t": 15900,
      "d": 300,
      "v": 73
    },
    {
      "midi": 64,
      "hit": false,
      "t": 16200,
      "d": 300,
      "v": 73
    },
    {
      "midi": 74,
      "hit": false,
      "t": 16200,
      "d": 300,
      "v": 73
    },
    {
      "midi": 48,
      "hit": false,
      "t": 16200,
      "d": 600,
      "v": 80
    },
    {
      "midi": 72,
      "hit": false,
      "t": 16500,
      "d": 600,
      "v": 65
    },
    {
      "midi": 55,
      "hit": false,
      "t": 16800,
      "d": 300,
      "v": 84
    },
    {
      "midi": 62,
      "hit": false,
      "t": 17100,
      "d": 900,
      "v": 72
    },
    {
      "midi": 60,
      "hit": false,
      "t": 17100,
      "d": 300,
      "v": 84
    },
    {
      "midi": 55,
      "hit": false,
      "t": 17400,
      "d": 300,
      "v": 73
    },
    {
      "midi": 52,
      "hit": false,
      "t": 17700,
      "d": 300,
      "v": 78
    },
    {
      "midi": 65,
      "hit": false,
      "t": 18000,
      "d": 600,
      "v": 79
    },
    {
      "midi": 48,
      "hit": false,
      "t": 18000,
      "d": 300,
      "v": 74
    },
    {
      "midi": 53,
      "hit": false,
      "t": 18300,
      "d": 300,
      "v": 78
    },
    {
      "midi": 67,
      "hit": false,
      "t": 18600,
      "d": 300,
      "v": 64
    },
    {
      "midi": 55,
      "hit": false,
      "t": 18600,
      "d": 300,
      "v": 82
    },
    {
      "midi": 64,
      "hit": false,
      "t": 18900,
      "d": 300,
      "v": 76
    },
    {
      "midi": 72,
      "hit": false,
      "t": 18900,
      "d": 300,
      "v": 82
    },
    {
      "midi": 60,
      "hit": false,
      "t": 18900,
      "d": 900,
      "v": 85
    },
    {
      "midi": 74,
      "hit": false,
      "t": 19200,
      "d": 300,
      "v": 81
    },
    {
      "midi": 76,
      "hit": false,
      "t": 19500,
      "d": 300,
      "v": 80
    },
    {
      "midi": 65,
      "hit": false,
      "t": 19800,
      "d": 900,
      "v": 82
    },
    {
      "midi": 74,
      "hit": false,
      "t": 19800,
      "d": 900,
      "v": 74
    },
    {
      "midi": 50,
      "hit": false,
      "t": 19800,
      "d": 300,
      "v": 65
    },
    {
      "midi": 53,
      "hit": false,
      "t": 20100,
      "d": 300,
      "v": 82
    },
    {
      "midi": 57,
      "hit": false,
      "t": 20400,
      "d": 300,
      "v": 83
    },
    {
      "midi": 64,
      "hit": false,
      "t": 20700,
      "d": 900,
      "v": 78
    },
    {
      "midi": 62,
      "hit": false,
      "t": 20700,
      "d": 300,
      "v": 89
    },
    {
      "midi": 57,
      "hit": false,
      "t": 21000,
      "d": 300,
      "v": 74
    },
    {
      "midi": 53,
      "hit": false,
      "t": 21300,
      "d": 300,
      "v": 75
    },
    {
      "midi": 67,
      "hit": false,
      "t": 21600,
      "d": 600,
      "v": 87
    },
    {
      "midi": 50,
      "hit": false,
      "t": 21600,
      "d": 300,
      "v": 73
    },
    {
      "midi": 53,
      "hit": false,
      "t": 21900,
      "d": 300,
      "v": 78
    },
    {
      "midi": 69,
      "hit": false,
      "t": 22200,
      "d": 150,
      "v": 71
    },
    {
      "midi": 57,
      "hit": false,
      "t": 22200,
      "d": 300,
      "v": 77
    },
    {
      "midi": 69,
      "hit": false,
      "t": 22350,
      "d": 150,
      "v": 72
    },
    {
      "midi": 65,
      "hit": false,
      "t": 22500,
      "d": 300,
      "v": 75
    },
    {
      "midi": 74,
      "hit": false,
      "t": 22500,
      "d": 300,
      "v": 82
    },
    {
      "midi": 62,
      "hit": false,
      "t": 22500,
      "d": 900,
      "v": 84
    },
    {
      "midi": 76,
      "hit": false,
      "t": 22800,
      "d": 300,
      "v": 83
    },
    {
      "midi": 77,
      "hit": false,
      "t": 23100,
      "d": 300,
      "v": 84
    },
    {
      "midi": 67,
      "hit": false,
      "t": 23400,
      "d": 300,
      "v": 87
    },
    {
      "midi": 72,
      "hit": false,
      "t": 23400,
      "d": 300,
      "v": 87
    },
    {
      "midi": 76,
      "hit": false,
      "t": 23400,
      "d": 300,
      "v": 74
    },
    {
      "midi": 43,
      "hit": false,
      "t": 23400,
      "d": 600,
      "v": 67
    },
    {
      "midi": 74,
      "hit": false,
      "t": 23700,
      "d": 600,
      "v": 71
    },
    {
      "midi": 50,
      "hit": false,
      "t": 24000,
      "d": 300,
      "v": 79
    },
    {
      "midi": 67,
      "hit": false,
      "t": 24300,
      "d": 900,
      "v": 68
    },
    {
      "midi": 71,
      "hit": false,
      "t": 24300,
      "d": 900,
      "v": 68
    },
    {
      "midi": 55,
      "hit": false,
      "t": 24300,
      "d": 300,
      "v": 80
    },
    {
      "midi": 50,
      "hit": false,
      "t": 24600,
      "d": 300,
      "v": 70
    },
    {
      "midi": 47,
      "hit": false,
      "t": 24900,
      "d": 300,
      "v": 76
    },
    {
      "midi": 69,
      "hit": false,
      "t": 25200,
      "d": 600,
      "v": 73
    },
    {
      "midi": 43,
      "hit": false,
      "t": 25200,
      "d": 300,
      "v": 73
    },
    {
      "midi": 47,
      "hit": false,
      "t": 25500,
      "d": 300,
      "v": 79
    },
    {
      "midi": 67,
      "hit": false,
      "t": 25800,
      "d": 300,
      "v": 69
    },
    {
      "midi": 50,
      "hit": false,
      "t": 25800,
      "d": 300,
      "v": 82
    },
    {
      "midi": 67,
      "hit": false,
      "t": 26100,
      "d": 300,
      "v": 74
    },
    {
      "midi": 71,
      "hit": false,
      "t": 26100,
      "d": 300,
      "v": 74
    },
    {
      "midi": 76,
      "hit": false,
      "t": 26100,
      "d": 300,
      "v": 87
    },
    {
      "midi": 55,
      "hit": false,
      "t": 26100,
      "d": 900,
      "v": 82
    },
    {
      "midi": 79,
      "hit": false,
      "t": 26400,
      "d": 300,
      "v": 84
    },
    {
      "midi": 76,
      "hit": false,
      "t": 26700,
      "d": 300,
      "v": 69
    },
    {
      "midi": 64,
      "hit": false,
      "t": 27000,
      "d": 450,
      "v": 64
    },
    {
      "midi": 72,
      "hit": false,
      "t": 27000,
      "d": 450,
      "v": 67
    },
    {
      "midi": 48,
      "hit": false,
      "t": 27000,
      "d": 300,
      "v": 76
    },
    {
      "midi": 52,
      "hit": false,
      "t": 27300,
      "d": 300,
      "v": 84
    },
    {
      "midi": 69,
      "hit": false,
      "t": 27450,
      "d": 150,
      "v": 70
    },
    {
      "midi": 67,
      "hit": false,
      "t": 27600,
      "d": 300,
      "v": 71
    },
    {
      "midi": 55,
      "hit": false,
      "t": 27600,
      "d": 300,
      "v": 80
    },
    {
      "midi": 60,
      "hit": false,
      "t": 27900,
      "d": 300,
      "v": 88
    },
    {
      "midi": 55,
      "hit": false,
      "t": 28200,
      "d": 300,
      "v": 71
    },
    {
      "midi": 52,
      "hit": false,
      "t": 28500,
      "d": 300,
      "v": 78
    },
    {
      "midi": 48,
      "hit": false,
      "t": 28800,
      "d": 300,
      "v": 70
    },
    {
      "midi": 52,
      "hit": false,
      "t": 29100,
      "d": 300,
      "v": 85
    },
    {
      "midi": 60,
      "hit": false,
      "t": 29400,
      "d": 300,
      "v": 69
    },
    {
      "midi": 55,
      "hit": false,
      "t": 29400,
      "d": 300,
      "v": 83
    },
    {
      "midi": 60,
      "hit": false,
      "t": 29700,
      "d": 300,
      "v": 67
    },
    {
      "midi": 69,
      "hit": false,
      "t": 29700,
      "d": 300,
      "v": 94
    },
    {
      "midi": 38,
      "hit": false,
      "t": 29700,
      "d": 300,
      "v": 65
    },
    {
      "midi": 69,
      "hit": false,
      "t": 30000,
      "d": 300,
      "v": 78
    },
    {
      "midi": 50,
      "hit": false,
      "t": 30000,
      "d": 300,
      "v": 85
    },
    {
      "midi": 69,
      "hit": false,
      "t": 30300,
      "d": 150,
      "v": 81
    },
    {
      "midi": 40,
      "hit": false,
      "t": 30300,
      "d": 300,
      "v": 71
    },
    {
      "midi": 69,
      "hit": false,
      "t": 30450,
      "d": 150,
      "v": 72
    },
    {
      "midi": 57,
      "hit": false,
      "t": 30600,
      "d": 300,
      "v": 78
    },
    {
      "midi": 60,
      "hit": false,
      "t": 30600,
      "d": 300,
      "v": 78
    },
    {
      "midi": 67,
      "hit": false,
      "t": 30600,
      "d": 300,
      "v": 70
    },
    {
      "midi": 41,
      "hit": false,
      "t": 30600,
      "d": 600,
      "v": 80
    },
    {
      "midi": 65,
      "hit": false,
      "t": 30900,
      "d": 600,
      "v": 73
    },
    {
      "midi": 48,
      "hit": false,
      "t": 31200,
      "d": 300,
      "v": 81
    },
    {
      "midi": 55,
      "hit": false,
      "t": 31500,
      "d": 900,
      "v": 74
    },
    {
      "midi": 60,
      "hit": false,
      "t": 31500,
      "d": 900,
      "v": 74
    },
    {
      "midi": 53,
      "hit": false,
      "t": 31500,
      "d": 600,
      "v": 79
    },
    {
      "midi": 41,
      "hit": false,
      "t": 32100,
      "d": 300,
      "v": 64
    },
    {
      "midi": 58,
      "hit": false,
      "t": 32400,
      "d": 600,
      "v": 77
    },
    {
      "midi": 60,
      "hit": false,
      "t": 32400,
      "d": 600,
      "v": 77
    },
    {
      "midi": 41,
      "hit": false,
      "t": 32400,
      "d": 300,
      "v": 75
    },
    {
      "midi": 48,
      "hit": false,
      "t": 32700,
      "d": 300,
      "v": 80
    },
    {
      "midi": 65,
      "hit": false,
      "t": 33000,
      "d": 150,
      "v": 70
    },
    {
      "midi": 53,
      "hit": false,
      "t": 33000,
      "d": 300,
      "v": 83
    },
    {
      "midi": 65,
      "hit": false,
      "t": 33150,
      "d": 150,
      "v": 78
    },
    {
      "midi": 57,
      "hit": false,
      "t": 33300,
      "d": 300,
      "v": 77
    },
    {
      "midi": 60,
      "hit": false,
      "t": 33300,
      "d": 300,
      "v": 77
    },
    {
      "midi": 65,
      "hit": false,
      "t": 33300,
      "d": 300,
      "v": 74
    },
    {
      "midi": 41,
      "hit": false,
      "t": 33300,
      "d": 900,
      "v": 61
    },
    {
      "midi": 67,
      "hit": false,
      "t": 33600,
      "d": 300,
      "v": 80
    },
    {
      "midi": 69,
      "hit": false,
      "t": 33900,
      "d": 300,
      "v": 84
    },
    {
      "midi": 59,
      "hit": false,
      "t": 34200,
      "d": 900,
      "v": 87
    },
    {
      "midi": 62,
      "hit": false,
      "t": 34200,
      "d": 900,
      "v": 87
    },
    {
      "midi": 67,
      "hit": false,
      "t": 34200,
      "d": 900,
      "v": 75
    },
    {
      "midi": 43,
      "hit": false,
      "t": 34200,
      "d": 300,
      "v": 78
    },
    {
      "midi": 47,
      "hit": false,
      "t": 34500,
      "d": 300,
      "v": 80
    },
    {
      "midi": 50,
      "hit": false,
      "t": 34800,
      "d": 300,
      "v": 78
    },
    {
      "midi": 57,
      "hit": false,
      "t": 35100,
      "d": 900,
      "v": 75
    },
    {
      "midi": 62,
      "hit": false,
      "t": 35100,
      "d": 900,
      "v": 75
    },
    {
      "midi": 55,
      "hit": false,
      "t": 35100,
      "d": 300,
      "v": 78
    },
    {
      "midi": 50,
      "hit": false,
      "t": 35400,
      "d": 300,
      "v": 73
    },
    {
      "midi": 47,
      "hit": false,
      "t": 35700,
      "d": 300,
      "v": 69
    },
    {
      "midi": 60,
      "hit": false,
      "t": 36000,
      "d": 600,
      "v": 81
    },
    {
      "midi": 62,
      "hit": false,
      "t": 36000,
      "d": 600,
      "v": 81
    },
    {
      "midi": 43,
      "hit": false,
      "t": 36000,
      "d": 300,
      "v": 73
    },
    {
      "midi": 47,
      "hit": false,
      "t": 36300,
      "d": 300,
      "v": 78
    },
    {
      "midi": 67,
      "hit": false,
      "t": 36600,
      "d": 300,
      "v": 64
    },
    {
      "midi": 50,
      "hit": false,
      "t": 36600,
      "d": 300,
      "v": 84
    },
    {
      "midi": 59,
      "hit": false,
      "t": 36900,
      "d": 300,
      "v": 76
    },
    {
      "midi": 62,
      "hit": false,
      "t": 36900,
      "d": 300,
      "v": 76
    },
    {
      "midi": 67,
      "hit": false,
      "t": 36900,
      "d": 300,
      "v": 72
    },
    {
      "midi": 55,
      "hit": false,
      "t": 36900,
      "d": 900,
      "v": 85
    },
    {
      "midi": 65,
      "hit": false,
      "t": 37200,
      "d": 300,
      "v": 72
    },
    {
      "midi": 64,
      "hit": false,
      "t": 37500,
      "d": 300,
      "v": 73
    },
    {
      "midi": 53,
      "hit": false,
      "t": 37800,
      "d": 300,
      "v": 65
    },
    {
      "midi": 62,
      "hit": false,
      "t": 37800,
      "d": 300,
      "v": 72
    },
    {
      "midi": 38,
      "hit": false,
      "t": 37800,
      "d": 600,
      "v": 68
    },
    {
      "midi": 62,
      "hit": false,
      "t": 38100,
      "d": 300,
      "v": 73
    },
    {
      "midi": 45,
      "hit": false,
      "t": 38400,
      "d": 300,
      "v": 79
    },
    {
      "midi": 50,
      "hit": false,
      "t": 38700,
      "d": 300,
      "v": 86
    },
    {
      "midi": 53,
      "hit": false,
      "t": 39000,
      "d": 300,
      "v": 83
    },
    {
      "midi": 38,
      "hit": false,
      "t": 39000,
      "d": 300,
      "v": 68
    },
    {
      "midi": 55,
      "hit": false,
      "t": 39300,
      "d": 300,
      "v": 75
    },
    {
      "midi": 40,
      "hit": false,
      "t": 39300,
      "d": 300,
      "v": 85
    },
    {
      "midi": 57,
      "hit": false,
      "t": 39600,
      "d": 600,
      "v": 78
    },
    {
      "midi": 41,
      "hit": false,
      "t": 39600,
      "d": 300,
      "v": 79
    },
    {
      "midi": 48,
      "hit": false,
      "t": 39900,
      "d": 300,
      "v": 87
    },
    {
      "midi": 62,
      "hit": false,
      "t": 40200,
      "d": 300,
      "v": 70
    },
    {
      "midi": 53,
      "hit": false,
      "t": 40200,
      "d": 300,
      "v": 82
    },
    {
      "midi": 57,
      "hit": false,
      "t": 40500,
      "d": 300,
      "v": 74
    },
    {
      "midi": 62,
      "hit": false,
      "t": 40500,
      "d": 300,
      "v": 74
    },
    {
      "midi": 41,
      "hit": false,
      "t": 40500,
      "d": 900,
      "v": 64
    },
    {
      "midi": 60,
      "hit": false,
      "t": 40800,
      "d": 300,
      "v": 66
    },
    {
      "midi": 60,
      "hit": false,
      "t": 41100,
      "d": 300,
      "v": 76
    },
    {
      "midi": 52,
      "hit": false,
      "t": 41400,
      "d": 1800,
      "v": 72
    },
    {
      "midi": 60,
      "hit": false,
      "t": 41400,
      "d": 1800,
      "v": 72
    },
    {
      "midi": 36,
      "hit": false,
      "t": 41400,
      "d": 600,
      "v": 68
    },
    {
      "midi": 43,
      "hit": false,
      "t": 42000,
      "d": 300,
      "v": 85
    },
    {
      "midi": 48,
      "hit": false,
      "t": 42300,
      "d": 300,
      "v": 79
    },
    {
      "midi": 43,
      "hit": false,
      "t": 42600,
      "d": 300,
      "v": 73
    },
    {
      "midi": 40,
      "hit": false,
      "t": 42900,
      "d": 300,
      "v": 73
    },
    {
      "midi": 38,
      "hit": false,
      "t": 43200,
      "d": 300,
      "v": 72
    },
    {
      "midi": 50,
      "hit": false,
      "t": 43500,
      "d": 1200,
      "v": 79
    },
    {
      "midi": 62,
      "hit": false,
      "t": 43800,
      "d": 300,
      "v": 70
    },
    {
      "midi": 67,
      "hit": false,
      "t": 44100,
      "d": 300,
      "v": 86
    },
    {
      "midi": 69,
      "hit": false,
      "t": 44400,
      "d": 300,
      "v": 80
    },
    {
      "midi": 71,
      "hit": false,
      "t": 44700,
      "d": 300,
      "v": 81
    },
    {
      "midi": 52,
      "hit": false,
      "t": 45000,
      "d": 1800,
      "v": 56
    },
    {
      "midi": 60,
      "hit": false,
      "t": 45000,
      "d": 1800,
      "v": 56
    },
    {
      "midi": 36,
      "hit": false,
      "t": 45000,
      "d": 300,
      "v": 64
    },
    {
      "midi": 43,
      "hit": false,
      "t": 45300,
      "d": 300,
      "v": 77
    },
    {
      "midi": 48,
      "hit": false,
      "t": 45600,
      "d": 300,
      "v": 80
    },
    {
      "midi": 52,
      "hit": false,
      "t": 45900,
      "d": 300,
      "v": 79
    },
    {
      "midi": 55,
      "hit": false,
      "t": 46200,
      "d": 300,
      "v": 74
    },
    {
      "midi": 52,
      "hit": false,
      "t": 46500,
      "d": 300,
      "v": 77
    },
    {
      "midi": 57,
      "hit": false,
      "t": 46800,
      "d": 300,
      "v": 74
    },
    {
      "midi": 60,
      "hit": false,
      "t": 46800,
      "d": 300,
      "v": 74
    },
    {
      "midi": 62,
      "hit": false,
      "t": 46800,
      "d": 300,
      "v": 74
    },
    {
      "midi": 50,
      "hit": false,
      "t": 46800,
      "d": 300,
      "v": 72
    },
    {
      "midi": 57,
      "hit": false,
      "t": 47100,
      "d": 300,
      "v": 74
    },
    {
      "midi": 60,
      "hit": false,
      "t": 47100,
      "d": 300,
      "v": 74
    },
    {
      "midi": 62,
      "hit": false,
      "t": 47100,
      "d": 300,
      "v": 74
    },
    {
      "midi": 38,
      "hit": false,
      "t": 47100,
      "d": 300,
      "v": 69
    },
    {
      "midi": 57,
      "hit": false,
      "t": 47400,
      "d": 300,
      "v": 74
    },
    {
      "midi": 60,
      "hit": false,
      "t": 47400,
      "d": 300,
      "v": 74
    },
    {
      "midi": 62,
      "hit": false,
      "t": 47400,
      "d": 300,
      "v": 74
    },
    {
      "midi": 38,
      "hit": false,
      "t": 47400,
      "d": 300,
      "v": 79
    },
    {
      "midi": 57,
      "hit": false,
      "t": 47700,
      "d": 300,
      "v": 79
    },
    {
      "midi": 60,
      "hit": false,
      "t": 47700,
      "d": 300,
      "v": 79
    },
    {
      "midi": 62,
      "hit": false,
      "t": 47700,
      "d": 300,
      "v": 79
    },
    {
      "midi": 38,
      "hit": false,
      "t": 47700,
      "d": 300,
      "v": 78
    },
    {
      "midi": 57,
      "hit": false,
      "t": 48000,
      "d": 300,
      "v": 75
    },
    {
      "midi": 60,
      "hit": false,
      "t": 48000,
      "d": 300,
      "v": 75
    },
    {
      "midi": 62,
      "hit": false,
      "t": 48000,
      "d": 300,
      "v": 75
    },
    {
      "midi": 38,
      "hit": false,
      "t": 48000,
      "d": 300,
      "v": 76
    },
    {
      "midi": 57,
      "hit": false,
      "t": 48300,
      "d": 300,
      "v": 74
    },
    {
      "midi": 60,
      "hit": false,
      "t": 48300,
      "d": 300,
      "v": 74
    },
    {
      "midi": 62,
      "hit": false,
      "t": 48300,
      "d": 300,
      "v": 74
    },
    {
      "midi": 38,
      "hit": false,
      "t": 48300,
      "d": 300,
      "v": 74
    },
    {
      "midi": 59,
      "hit": false,
      "t": 48600,
      "d": 300,
      "v": 84
    },
    {
      "midi": 62,
      "hit": false,
      "t": 48600,
      "d": 300,
      "v": 84
    },
    {
      "midi": 67,
      "hit": false,
      "t": 48600,
      "d": 300,
      "v": 87
    },
    {
      "midi": 43,
      "hit": false,
      "t": 48600,
      "d": 900,
      "v": 76
    },
    {
      "midi": 59,
      "hit": false,
      "t": 48900,
      "d": 300,
      "v": 75
    },
    {
      "midi": 62,
      "hit": false,
      "t": 48900,
      "d": 300,
      "v": 75
    },
    {
      "midi": 59,
      "hit": false,
      "t": 49200,
      "d": 300,
      "v": 73
    },
    {
      "midi": 62,
      "hit": false,
      "t": 49200,
      "d": 300,
      "v": 73
    },
    {
      "midi": 59,
      "hit": false,
      "t": 49500,
      "d": 300,
      "v": 73
    },
    {
      "midi": 62,
      "hit": false,
      "t": 49500,
      "d": 300,
      "v": 73
    },
    {
      "midi": 66,
      "hit": false,
      "t": 49500,
      "d": 300,
      "v": 72
    },
    {
      "midi": 38,
      "hit": false,
      "t": 49500,
      "d": 900,
      "v": 76
    },
    {
      "midi": 59,
      "hit": false,
      "t": 49800,
      "d": 300,
      "v": 75
    },
    {
      "midi": 62,
      "hit": false,
      "t": 49800,
      "d": 300,
      "v": 75
    },
    {
      "midi": 59,
      "hit": false,
      "t": 50100,
      "d": 300,
      "v": 81
    },
    {
      "midi": 62,
      "hit": false,
      "t": 50100,
      "d": 300,
      "v": 81
    },
    {
      "midi": 59,
      "hit": false,
      "t": 50400,
      "d": 300,
      "v": 79
    },
    {
      "midi": 62,
      "hit": false,
      "t": 50400,
      "d": 300,
      "v": 79
    },
    {
      "midi": 69,
      "hit": false,
      "t": 50400,
      "d": 300,
      "v": 83
    },
    {
      "midi": 43,
      "hit": false,
      "t": 50400,
      "d": 900,
      "v": 80
    },
    {
      "midi": 59,
      "hit": false,
      "t": 50700,
      "d": 300,
      "v": 73
    },
    {
      "midi": 62,
      "hit": false,
      "t": 50700,
      "d": 300,
      "v": 73
    },
    {
      "midi": 59,
      "hit": false,
      "t": 51000,
      "d": 300,
      "v": 74
    },
    {
      "midi": 62,
      "hit": false,
      "t": 51000,
      "d": 300,
      "v": 74
    },
    {
      "midi": 59,
      "hit": false,
      "t": 51300,
      "d": 300,
      "v": 74
    },
    {
      "midi": 62,
      "hit": false,
      "t": 51300,
      "d": 300,
      "v": 74
    },
    {
      "midi": 67,
      "hit": false,
      "t": 51300,
      "d": 300,
      "v": 75
    },
    {
      "midi": 38,
      "hit": false,
      "t": 51300,
      "d": 300,
      "v": 69
    },
    {
      "midi": 59,
      "hit": false,
      "t": 51600,
      "d": 300,
      "v": 78
    },
    {
      "midi": 62,
      "hit": false,
      "t": 51600,
      "d": 300,
      "v": 78
    },
    {
      "midi": 43,
      "hit": false,
      "t": 51600,
      "d": 300,
      "v": 78
    },
    {
      "midi": 59,
      "hit": false,
      "t": 51900,
      "d": 300,
      "v": 77
    },
    {
      "midi": 62,
      "hit": false,
      "t": 51900,
      "d": 300,
      "v": 77
    },
    {
      "midi": 44,
      "hit": false,
      "t": 51900,
      "d": 300,
      "v": 77
    },
    {
      "midi": 60,
      "hit": false,
      "t": 52200,
      "d": 300,
      "v": 82
    },
    {
      "midi": 64,
      "hit": false,
      "t": 52200,
      "d": 300,
      "v": 82
    },
    {
      "midi": 69,
      "hit": false,
      "t": 52200,
      "d": 300,
      "v": 80
    },
    {
      "midi": 45,
      "hit": false,
      "t": 52200,
      "d": 900,
      "v": 76
    },
    {
      "midi": 60,
      "hit": false,
      "t": 52500,
      "d": 300,
      "v": 75
    },
    {
      "midi": 64,
      "hit": false,
      "t": 52500,
      "d": 300,
      "v": 75
    },
    {
      "midi": 60,
      "hit": false,
      "t": 52800,
      "d": 300,
      "v": 80
    },
    {
      "midi": 64,
      "hit": false,
      "t": 52800,
      "d": 300,
      "v": 80
    },
    {
      "midi": 60,
      "hit": false,
      "t": 53100,
      "d": 300,
      "v": 73
    },
    {
      "midi": 64,
      "hit": false,
      "t": 53100,
      "d": 300,
      "v": 73
    },
    {
      "midi": 68,
      "hit": false,
      "t": 53100,
      "d": 300,
      "v": 73
    },
    {
      "midi": 40,
      "hit": false,
      "t": 53100,
      "d": 900,
      "v": 70
    },
    {
      "midi": 60,
      "hit": false,
      "t": 53400,
      "d": 300,
      "v": 74
    },
    {
      "midi": 64,
      "hit": false,
      "t": 53400,
      "d": 300,
      "v": 74
    },
    {
      "midi": 60,
      "hit": false,
      "t": 53700,
      "d": 300,
      "v": 81
    },
    {
      "midi": 64,
      "hit": false,
      "t": 53700,
      "d": 300,
      "v": 81
    },
    {
      "midi": 60,
      "hit": false,
      "t": 54000,
      "d": 300,
      "v": 74
    },
    {
      "midi": 64,
      "hit": false,
      "t": 54000,
      "d": 300,
      "v": 74
    },
    {
      "midi": 71,
      "hit": false,
      "t": 54000,
      "d": 300,
      "v": 82
    },
    {
      "midi": 45,
      "hit": false,
      "t": 54000,
      "d": 900,
      "v": 76
    },
    {
      "midi": 60,
      "hit": false,
      "t": 54300,
      "d": 300,
      "v": 78
    },
    {
      "midi": 64,
      "hit": false,
      "t": 54300,
      "d": 300,
      "v": 78
    },
    {
      "midi": 60,
      "hit": false,
      "t": 54600,
      "d": 300,
      "v": 75
    },
    {
      "midi": 64,
      "hit": false,
      "t": 54600,
      "d": 300,
      "v": 75
    },
    {
      "midi": 60,
      "hit": false,
      "t": 54900,
      "d": 300,
      "v": 77
    },
    {
      "midi": 64,
      "hit": false,
      "t": 54900,
      "d": 300,
      "v": 77
    },
    {
      "midi": 69,
      "hit": false,
      "t": 54900,
      "d": 300,
      "v": 73
    },
    {
      "midi": 45,
      "hit": false,
      "t": 54900,
      "d": 300,
      "v": 72
    },
    {
      "midi": 60,
      "hit": false,
      "t": 55200,
      "d": 300,
      "v": 81
    },
    {
      "midi": 64,
      "hit": false,
      "t": 55200,
      "d": 300,
      "v": 81
    },
    {
      "midi": 43,
      "hit": false,
      "t": 55200,
      "d": 300,
      "v": 73
    },
    {
      "midi": 60,
      "hit": false,
      "t": 55500,
      "d": 300,
      "v": 79
    },
    {
      "midi": 64,
      "hit": false,
      "t": 55500,
      "d": 300,
      "v": 79
    },
    {
      "midi": 40,
      "hit": false,
      "t": 55500,
      "d": 300,
      "v": 68
    },
    {
      "midi": 60,
      "hit": false,
      "t": 55800,
      "d": 300,
      "v": 75
    },
    {
      "midi": 64,
      "hit": false,
      "t": 55800,
      "d": 300,
      "v": 75
    },
    {
      "midi": 67,
      "hit": false,
      "t": 55800,
      "d": 300,
      "v": 68
    },
    {
      "midi": 38,
      "hit": false,
      "t": 55800,
      "d": 900,
      "v": 73
    },
    {
      "midi": 60,
      "hit": false,
      "t": 56100,
      "d": 300,
      "v": 73
    },
    {
      "midi": 64,
      "hit": false,
      "t": 56100,
      "d": 300,
      "v": 73
    },
    {
      "midi": 60,
      "hit": false,
      "t": 56400,
      "d": 300,
      "v": 76
    },
    {
      "midi": 64,
      "hit": false,
      "t": 56400,
      "d": 300,
      "v": 76
    },
    {
      "midi": 60,
      "hit": false,
      "t": 56700,
      "d": 300,
      "v": 69
    },
    {
      "midi": 62,
      "hit": false,
      "t": 56700,
      "d": 300,
      "v": 69
    },
    {
      "midi": 66,
      "hit": false,
      "t": 56700,
      "d": 300,
      "v": 71
    },
    {
      "midi": 50,
      "hit": false,
      "t": 56700,
      "d": 600,
      "v": 85
    },
    {
      "midi": 60,
      "hit": false,
      "t": 57000,
      "d": 300,
      "v": 76
    },
    {
      "midi": 62,
      "hit": false,
      "t": 57000,
      "d": 300,
      "v": 76
    },
    {
      "midi": 60,
      "hit": false,
      "t": 57300,
      "d": 300,
      "v": 74
    },
    {
      "midi": 62,
      "hit": false,
      "t": 57300,
      "d": 300,
      "v": 74
    },
    {
      "midi": 38,
      "hit": false,
      "t": 57300,
      "d": 300,
      "v": 70
    },
    {
      "midi": 57,
      "hit": false,
      "t": 57600,
      "d": 300,
      "v": 71
    },
    {
      "midi": 60,
      "hit": false,
      "t": 57600,
      "d": 300,
      "v": 71
    },
    {
      "midi": 64,
      "hit": false,
      "t": 57600,
      "d": 300,
      "v": 75
    },
    {
      "midi": 38,
      "hit": false,
      "t": 57600,
      "d": 900,
      "v": 75
    },
    {
      "midi": 57,
      "hit": false,
      "t": 57900,
      "d": 300,
      "v": 76
    },
    {
      "midi": 60,
      "hit": false,
      "t": 57900,
      "d": 300,
      "v": 76
    },
    {
      "midi": 57,
      "hit": false,
      "t": 58200,
      "d": 300,
      "v": 77
    },
    {
      "midi": 60,
      "hit": false,
      "t": 58200,
      "d": 300,
      "v": 77
    },
    {
      "midi": 57,
      "hit": false,
      "t": 58500,
      "d": 300,
      "v": 76
    },
    {
      "midi": 60,
      "hit": false,
      "t": 58500,
      "d": 300,
      "v": 76
    },
    {
      "midi": 66,
      "hit": false,
      "t": 58500,
      "d": 300,
      "v": 79
    },
    {
      "midi": 50,
      "hit": false,
      "t": 58500,
      "d": 900,
      "v": 89
    },
    {
      "midi": 57,
      "hit": false,
      "t": 58800,
      "d": 300,
      "v": 79
    },
    {
      "midi": 60,
      "hit": false,
      "t": 58800,
      "d": 300,
      "v": 79
    },
    {
      "midi": 57,
      "hit": false,
      "t": 59100,
      "d": 300,
      "v": 78
    },
    {
      "midi": 60,
      "hit": false,
      "t": 59100,
      "d": 300,
      "v": 78
    },
    {
      "midi": 59,
      "hit": false,
      "t": 59400,
      "d": 300,
      "v": 76
    },
    {
      "midi": 62,
      "hit": false,
      "t": 59400,
      "d": 300,
      "v": 76
    },
    {
      "midi": 67,
      "hit": false,
      "t": 59400,
      "d": 300,
      "v": 74
    },
    {
      "midi": 43,
      "hit": false,
      "t": 59400,
      "d": 1200,
      "v": 67
    },
    {
      "midi": 59,
      "hit": false,
      "t": 59700,
      "d": 300,
      "v": 80
    },
    {
      "midi": 62,
      "hit": false,
      "t": 59700,
      "d": 300,
      "v": 80
    },
    {
      "midi": 59,
      "hit": false,
      "t": 60000,
      "d": 300,
      "v": 77
    },
    {
      "midi": 62,
      "hit": false,
      "t": 60000,
      "d": 300,
      "v": 77
    },
    {
      "midi": 59,
      "hit": false,
      "t": 60300,
      "d": 300,
      "v": 76
    },
    {
      "midi": 62,
      "hit": false,
      "t": 60300,
      "d": 300,
      "v": 76
    },
    {
      "midi": 66,
      "hit": false,
      "t": 60300,
      "d": 300,
      "v": 74
    },
    {
      "midi": 59,
      "hit": false,
      "t": 60600,
      "d": 300,
      "v": 74
    },
    {
      "midi": 62,
      "hit": false,
      "t": 60600,
      "d": 300,
      "v": 74
    },
    {
      "midi": 59,
      "hit": false,
      "t": 60900,
      "d": 300,
      "v": 77
    },
    {
      "midi": 62,
      "hit": false,
      "t": 60900,
      "d": 300,
      "v": 77
    },
    {
      "midi": 43,
      "hit": false,
      "t": 60900,
      "d": 300,
      "v": 78
    },
    {
      "midi": 59,
      "hit": false,
      "t": 61200,
      "d": 300,
      "v": 74
    },
    {
      "midi": 62,
      "hit": false,
      "t": 61200,
      "d": 300,
      "v": 74
    },
    {
      "midi": 69,
      "hit": false,
      "t": 61200,
      "d": 300,
      "v": 84
    },
    {
      "midi": 43,
      "hit": false,
      "t": 61200,
      "d": 900,
      "v": 76
    },
    {
      "midi": 59,
      "hit": false,
      "t": 61500,
      "d": 300,
      "v": 74
    },
    {
      "midi": 62,
      "hit": false,
      "t": 61500,
      "d": 300,
      "v": 74
    },
    {
      "midi": 59,
      "hit": false,
      "t": 61800,
      "d": 300,
      "v": 80
    },
    {
      "midi": 62,
      "hit": false,
      "t": 61800,
      "d": 300,
      "v": 80
    },
    {
      "midi": 59,
      "hit": false,
      "t": 62100,
      "d": 300,
      "v": 76
    },
    {
      "midi": 62,
      "hit": false,
      "t": 62100,
      "d": 300,
      "v": 76
    },
    {
      "midi": 67,
      "hit": false,
      "t": 62100,
      "d": 300,
      "v": 76
    },
    {
      "midi": 38,
      "hit": false,
      "t": 62100,
      "d": 300,
      "v": 70
    },
    {
      "midi": 59,
      "hit": false,
      "t": 62400,
      "d": 300,
      "v": 76
    },
    {
      "midi": 62,
      "hit": false,
      "t": 62400,
      "d": 300,
      "v": 76
    },
    {
      "midi": 40,
      "hit": false,
      "t": 62400,
      "d": 300,
      "v": 77
    },
    {
      "midi": 59,
      "hit": false,
      "t": 62700,
      "d": 300,
      "v": 73
    },
    {
      "midi": 62,
      "hit": false,
      "t": 62700,
      "d": 300,
      "v": 73
    },
    {
      "midi": 43,
      "hit": false,
      "t": 62700,
      "d": 300,
      "v": 75
    },
    {
      "midi": 59,
      "hit": false,
      "t": 63000,
      "d": 300,
      "v": 74
    },
    {
      "midi": 62,
      "hit": false,
      "t": 63000,
      "d": 300,
      "v": 74
    },
    {
      "midi": 67,
      "hit": false,
      "t": 63000,
      "d": 300,
      "v": 73
    },
    {
      "midi": 43,
      "hit": false,
      "t": 63000,
      "d": 900,
      "v": 79
    },
    {
      "midi": 59,
      "hit": false,
      "t": 63300,
      "d": 300,
      "v": 77
    },
    {
      "midi": 62,
      "hit": false,
      "t": 63300,
      "d": 300,
      "v": 77
    },
    {
      "midi": 59,
      "hit": false,
      "t": 63600,
      "d": 300,
      "v": 76
    },
    {
      "midi": 62,
      "hit": false,
      "t": 63600,
      "d": 300,
      "v": 76
    },
    {
      "midi": 59,
      "hit": false,
      "t": 63900,
      "d": 300,
      "v": 70
    },
    {
      "midi": 62,
      "hit": false,
      "t": 63900,
      "d": 300,
      "v": 70
    },
    {
      "midi": 55,
      "hit": false,
      "t": 63900,
      "d": 300,
      "v": 89
    },
    {
      "midi": 59,
      "hit": false,
      "t": 64200,
      "d": 300,
      "v": 73
    },
    {
      "midi": 62,
      "hit": false,
      "t": 64200,
      "d": 300,
      "v": 73
    },
    {
      "midi": 43,
      "hit": false,
      "t": 64200,
      "d": 300,
      "v": 72
    },
    {
      "midi": 59,
      "hit": false,
      "t": 64500,
      "d": 300,
      "v": 77
    },
    {
      "midi": 62,
      "hit": false,
      "t": 64500,
      "d": 300,
      "v": 77
    },
    {
      "midi": 47,
      "hit": false,
      "t": 64500,
      "d": 300,
      "v": 79
    },
    {
      "midi": 60,
      "hit": false,
      "t": 64800,
      "d": 300,
      "v": 79
    },
    {
      "midi": 64,
      "hit": false,
      "t": 64800,
      "d": 300,
      "v": 79
    },
    {
      "midi": 67,
      "hit": false,
      "t": 64800,
      "d": 300,
      "v": 75
    },
    {
      "midi": 48,
      "hit": false,
      "t": 64800,
      "d": 900,
      "v": 78
    },
    {
      "midi": 60,
      "hit": false,
      "t": 65100,
      "d": 300,
      "v": 77
    },
    {
      "midi": 64,
      "hit": false,
      "t": 65100,
      "d": 300,
      "v": 77
    },
    {
      "midi": 60,
      "hit": false,
      "t": 65400,
      "d": 300,
      "v": 78
    },
    {
      "midi": 64,
      "hit": false,
      "t": 65400,
      "d": 300,
      "v": 78
    },
    {
      "midi": 60,
      "hit": false,
      "t": 65700,
      "d": 300,
      "v": 78
    },
    {
      "midi": 64,
      "hit": false,
      "t": 65700,
      "d": 300,
      "v": 78
    },
    {
      "midi": 36,
      "hit": false,
      "t": 65700,
      "d": 900,
      "v": 66
    },
    {
      "midi": 60,
      "hit": false,
      "t": 66000,
      "d": 300,
      "v": 78
    },
    {
      "midi": 64,
      "hit": false,
      "t": 66000,
      "d": 300,
      "v": 78
    },
    {
      "midi": 60,
      "hit": false,
      "t": 66300,
      "d": 300,
      "v": 72
    },
    {
      "midi": 64,
      "hit": false,
      "t": 66300,
      "d": 300,
      "v": 72
    },
    {
      "midi": 59,
      "hit": false,
      "t": 66600,
      "d": 300,
      "v": 73
    },
    {
      "midi": 62,
      "hit": false,
      "t": 66600,
      "d": 300,
      "v": 73
    },
    {
      "midi": 67,
      "hit": false,
      "t": 66600,
      "d": 300,
      "v": 74
    },
    {
      "midi": 43,
      "hit": false,
      "t": 66600,
      "d": 1200,
      "v": 78
    },
    {
      "midi": 59,
      "hit": false,
      "t": 66900,
      "d": 300,
      "v": 75
    },
    {
      "midi": 62,
      "hit": false,
      "t": 66900,
      "d": 300,
      "v": 75
    },
    {
      "midi": 59,
      "hit": false,
      "t": 67200,
      "d": 300,
      "v": 75
    },
    {
      "midi": 62,
      "hit": false,
      "t": 67200,
      "d": 300,
      "v": 75
    },
    {
      "midi": 59,
      "hit": false,
      "t": 67500,
      "d": 300,
      "v": 76
    },
    {
      "midi": 62,
      "hit": false,
      "t": 67500,
      "d": 300,
      "v": 76
    },
    {
      "midi": 59,
      "hit": false,
      "t": 67800,
      "d": 300,
      "v": 77
    },
    {
      "midi": 62,
      "hit": false,
      "t": 67800,
      "d": 300,
      "v": 77
    },
    {
      "midi": 38,
      "hit": false,
      "t": 67800,
      "d": 300,
      "v": 68
    },
    {
      "midi": 59,
      "hit": false,
      "t": 68100,
      "d": 300,
      "v": 74
    },
    {
      "midi": 62,
      "hit": false,
      "t": 68100,
      "d": 300,
      "v": 74
    },
    {
      "midi": 35,
      "hit": false,
      "t": 68100,
      "d": 300,
      "v": 72
    },
    {
      "midi": 59,
      "hit": false,
      "t": 68400,
      "d": 1800,
      "v": 81
    },
    {
      "midi": 62,
      "hit": false,
      "t": 68400,
      "d": 1800,
      "v": 81
    },
    {
      "midi": 67,
      "hit": false,
      "t": 68400,
      "d": 1800,
      "v": 81
    },
    {
      "midi": 31,
      "hit": false,
      "t": 68400,
      "d": 1800,
      "v": 73
    }
  ]
}