{
  "jsonPath": "Rock/Album Rock/John Lennon/imagine.json",
  "path": "Rock\\Album Rock\\John Lennon\\Imagine.mid",
  "name": "Imagine",
  "difficulty": "Advanced",
  "bpm": 73.00007178340392,
  "notes": [
    {
      "midi": 52,
      "hit": false,
      "t": 0,
      "d": 410.95849999999996,
      "v": 70
    },
    {
      "midi": 48,
      "hit": false,
      "t": 410.95849999999996,
      "d": 410.95849999999996,
      "v": 52
    },
    {
      "midi": 52,
      "hit": false,
      "t": 821.9169999999999,
      "d": 410.95849999999996,
      "v": 66
    },
    {
      "midi": 55,
      "hit": false,
      "t": 821.9169999999999,
      "d": 410.95849999999996,
      "v": 70
    },
    {
      "midi": 36,
      "hit": false,
      "t": 1232.8754999999999,
      "d": 410.95849999999996,
      "v": 60
    },
    {
      "midi": 52,
      "hit": false,
      "t": 1643.8339999999998,
      "d": 410.95849999999973,
      "v": 59
    },
    {
      "midi": 55,
      "hit": false,
      "t": 1643.8339999999998,
      "d": 410.95849999999973,
      "v": 65
    },
    {
      "midi": 36,
      "hit": false,
      "t": 2054.7924999999996,
      "d": 410.95849999999973,
      "v": 58
    },
    {
      "midi": 59,
      "hit": false,
      "t": 2465.7509999999993,
      "d": 410.95849999999973,
      "v": 67
    },
    {
      "midi": 36,
      "hit": false,
      "t": 2876.709499999999,
      "d": 410.95849999999973,
      "v": 51
    },
    {
      "midi": 57,
      "hit": false,
      "t": 3287.6679999999988,
      "d": 410.95849999999973,
      "v": 68
    },
    {
      "midi": 48,
      "hit": false,
      "t": 3698.6264999999985,
      "d": 410.95849999999973,
      "v": 55
    },
    {
      "midi": 57,
      "hit": false,
      "t": 4109.584999999998,
      "d": 410.95849999999973,
      "v": 72
    },
    {
      "midi": 41,
      "hit": false,
      "t": 4520.543499999998,
      "d": 410.95849999999973,
      "v": 61
    },
    {
      "midi": 57,
      "hit": false,
      "t": 4931.501999999998,
      "d": 410.95849999999973,
      "v": 68
    },
    {
      "midi": 41,
      "hit": false,
      "t": 5342.460499999997,
      "d": 410.95849999999973,
      "v": 66
    },
    {
      "midi": 57,
      "hit": false,
      "t": 5753.418999999997,
      "d": 102.73962500000016,
      "v": 63
    },
    {
      "midi": 58,
      "hit": false,
      "t": 5958.8982499999975,
      "d": 205.47925000000032,
      "v": 42
    },
    {
      "midi": 59,
      "hit": false,
      "t": 6164.377499999998,
      "d": 410.95849999999973,
      "v": 76
    },
    {
      "midi": 52,
      "hit": false,
      "t": 6575.3359999999975,
      "d": 410.95849999999973,
      "v": 70
    },
    {
      "midi": 55,
      "hit": false,
      "t": 6575.3359999999975,
      "d": 410.95849999999973,
      "v": 76
    },
    {
      "midi": 48,
      "hit": false,
      "t": 6986.294499999997,
      "d": 410.95849999999973,
      "v": 62
    },
    {
      "midi": 52,
      "hit": false,
      "t": 7397.252999999997,
      "d": 410.95849999999973,
      "v": 65
    },
    {
      "midi": 55,
      "hit": false,
      "t": 7397.252999999997,
      "d": 410.95849999999973,
      "v": 75
    },
    {
      "midi": 36,
      "hit": false,
      "t": 7808.211499999997,
      "d": 410.95849999999973,
      "v": 62
    },
    {
      "midi": 55,
      "hit": false,
      "t": 8219.169999999996,
      "d": 410.95850000000064,
      "v": 72
    },
    {
      "midi": 36,
      "hit": false,
      "t": 8630.128499999997,
      "d": 410.95850000000064,
      "v": 66
    },
    {
      "midi": 55,
      "hit": false,
      "t": 9041.086999999998,
      "d": 410.95850000000064,
      "v": 70
    },
    {
      "midi": 59,
      "hit": false,
      "t": 9041.086999999998,
      "d": 410.95850000000064,
      "v": 68
    },
    {
      "midi": 36,
      "hit": false,
      "t": 9452.045499999998,
      "d": 410.95850000000064,
      "v": 68
    },
    {
      "midi": 57,
      "hit": false,
      "t": 9863.003999999999,
      "d": 410.95850000000064,
      "v": 70
    },
    {
      "midi": 48,
      "hit": false,
      "t": 10273.9625,
      "d": 410.95850000000064,
      "v": 64
    },
    {
      "midi": 57,
      "hit": false,
      "t": 10684.921,
      "d": 410.95850000000064,
      "v": 73
    },
    {
      "midi": 41,
      "hit": false,
      "t": 11095.879500000001,
      "d": 410.95850000000064,
      "v": 63
    },
    {
      "midi": 57,
      "hit": false,
      "t": 11506.838000000002,
      "d": 410.95850000000064,
      "v": 70
    },
    {
      "midi": 41,
      "hit": false,
      "t": 11917.796500000002,
      "d": 410.95850000000064,
      "v": 68
    },
    {
      "midi": 53,
      "hit": false,
      "t": 12328.755000000003,
      "d": 102.73962500000016,
      "v": 63
    },
    {
      "midi": 57,
      "hit": false,
      "t": 12328.755000000003,
      "d": 102.73962500000016,
      "v": 66
    },
    {
      "midi": 53,
      "hit": false,
      "t": 12534.234250000003,
      "d": 205.47925000000032,
      "v": 55
    },
    {
      "midi": 59,
      "hit": false,
      "t": 12739.713500000003,
      "d": 410.95850000000064,
      "v": 72
    },
    {
      "midi": 52,
      "hit": false,
      "t": 13150.672000000004,
      "d": 410.95850000000064,
      "v": 62
    },
    {
      "midi": 55,
      "hit": false,
      "t": 13150.672000000004,
      "d": 410.95850000000064,
      "v": 61
    },
    {
      "midi": 64,
      "hit": false,
      "t": 13561.6305,
      "d": 410.95850000000064,
      "v": 97
    },
    {
      "midi": 48,
      "hit": false,
      "t": 13561.630500000005,
      "d": 410.95850000000064,
      "v": 48
    },
    {
      "midi": 67,
      "hit": false,
      "t": 13972.589,
      "d": 410.95850000000064,
      "v": 87
    },
    {
      "midi": 55,
      "hit": false,
      "t": 13972.589000000005,
      "d": 410.95850000000064,
      "v": 68
    },
    {
      "midi": 64,
      "hit": false,
      "t": 14383.5475,
      "d": 410.95850000000064,
      "v": 92
    },
    {
      "midi": 36,
      "hit": false,
      "t": 14383.547500000006,
      "d": 410.95850000000064,
      "v": 58
    },
    {
      "midi": 67,
      "hit": false,
      "t": 14794.506000000001,
      "d": 821.9169999999995,
      "v": 100
    },
    {
      "midi": 55,
      "hit": false,
      "t": 14794.506000000007,
      "d": 410.95850000000064,
      "v": 63
    },
    {
      "midi": 36,
      "hit": false,
      "t": 15308.204125000007,
      "d": 308.2188750000005,
      "v": 26
    },
    {
      "midi": 71,
      "hit": false,
      "t": 15616.423,
      "d": 410.95850000000064,
      "v": 80
    },
    {
      "midi": 55,
      "hit": false,
      "t": 15616.423000000008,
      "d": 410.95850000000064,
      "v": 63
    },
    {
      "midi": 59,
      "hit": false,
      "t": 15616.423000000008,
      "d": 410.95850000000064,
      "v": 58
    },
    {
      "midi": 71,
      "hit": false,
      "t": 16027.381500000001,
      "d": 410.9584999999988,
      "v": 84
    },
    {
      "midi": 36,
      "hit": false,
      "t": 16027.381500000009,
      "d": 410.9584999999988,
      "v": 55
    },
    {
      "midi": 57,
      "hit": false,
      "t": 16438.340000000007,
      "d": 410.95850000000064,
      "v": 62
    },
    {
      "midi": 69,
      "hit": false,
      "t": 16849.2985,
      "d": 2465.751,
      "v": 106
    },
    {
      "midi": 48,
      "hit": false,
      "t": 16849.298500000008,
      "d": 410.95850000000064,
      "v": 30
    },
    {
      "midi": 57,
      "hit": false,
      "t": 17260.25700000001,
      "d": 410.95850000000064,
      "v": 63
    },
    {
      "midi": 41,
      "hit": false,
      "t": 17671.21550000001,
      "d": 410.95850000000064,
      "v": 54
    },
    {
      "midi": 57,
      "hit": false,
      "t": 18082.17400000001,
      "d": 410.95850000000064,
      "v": 57
    },
    {
      "midi": 41,
      "hit": false,
      "t": 18493.13250000001,
      "d": 410.95850000000064,
      "v": 65
    },
    {
      "midi": 48,
      "hit": false,
      "t": 18904.09100000001,
      "d": 205.47925000000032,
      "v": 50
    },
    {
      "midi": 53,
      "hit": false,
      "t": 18904.09100000001,
      "d": 205.47925000000032,
      "v": 63
    },
    {
      "midi": 57,
      "hit": false,
      "t": 18904.09100000001,
      "d": 205.47925000000032,
      "v": 63
    },
    {
      "midi": 53,
      "hit": false,
      "t": 19109.57025000001,
      "d": 205.47925000000032,
      "v": 62
    },
    {
      "midi": 58,
      "hit": false,
      "t": 19109.57025000001,
      "d": 205.47925000000032,
      "v": 65
    },
    {
      "midi": 59,
      "hit": false,
      "t": 19315.049500000012,
      "d": 410.95850000000064,
      "v": 68
    },
    {
      "midi": 52,
      "hit": false,
      "t": 19726.008000000013,
      "d": 410.95850000000064,
      "v": 72
    },
    {
      "midi": 55,
      "hit": false,
      "t": 19726.008000000013,
      "d": 410.95850000000064,
      "v": 76
    },
    {
      "midi": 64,
      "hit": false,
      "t": 20136.966500000002,
      "d": 410.95850000000064,
      "v": 90
    },
    {
      "midi": 48,
      "hit": false,
      "t": 20136.966500000013,
      "d": 410.95850000000064,
      "v": 56
    },
    {
      "midi": 67,
      "hit": false,
      "t": 20547.925000000003,
      "d": 410.95850000000064,
      "v": 87
    },
    {
      "midi": 55,
      "hit": false,
      "t": 20547.925000000014,
      "d": 410.95850000000064,
      "v": 72
    },
    {
      "midi": 64,
      "hit": false,
      "t": 20958.883500000004,
      "d": 410.95850000000064,
      "v": 85
    },
    {
      "midi": 36,
      "hit": false,
      "t": 20958.883500000014,
      "d": 410.95850000000064,
      "v": 58
    },
    {
      "midi": 67,
      "hit": false,
      "t": 21369.842000000004,
      "d": 821.9170000000013,
      "v": 103
    },
    {
      "midi": 55,
      "hit": false,
      "t": 21369.842000000015,
      "d": 410.95850000000064,
      "v": 67
    },
    {
      "midi": 36,
      "hit": false,
      "t": 21780.800500000016,
      "d": 410.95850000000064,
      "v": 58
    },
    {
      "midi": 71,
      "hit": false,
      "t": 22191.759000000005,
      "d": 410.95850000000064,
      "v": 82
    },
    {
      "midi": 55,
      "hit": false,
      "t": 22191.759000000016,
      "d": 410.95850000000064,
      "v": 70
    },
    {
      "midi": 59,
      "hit": false,
      "t": 22191.759000000016,
      "d": 410.95850000000064,
      "v": 65
    },
    {
      "midi": 69,
      "hit": false,
      "t": 22602.717500000006,
      "d": 410.95850000000064,
      "v": 97
    },
    {
      "midi": 36,
      "hit": false,
      "t": 22602.717500000017,
      "d": 410.95850000000064,
      "v": 58
    },
    {
      "midi": 57,
      "hit": false,
      "t": 23013.676000000018,
      "d": 410.95850000000064,
      "v": 66
    },
    {
      "midi": 48,
      "hit": false,
      "t": 23424.63450000002,
      "d": 410.95850000000064,
      "v": 64
    },
    {
      "midi": 57,
      "hit": false,
      "t": 23835.59300000002,
      "d": 410.95850000000064,
      "v": 72
    },
    {
      "midi": 41,
      "hit": false,
      "t": 24246.55150000002,
      "d": 410.95850000000064,
      "v": 68
    },
    {
      "midi": 57,
      "hit": false,
      "t": 24657.51000000002,
      "d": 410.95850000000064,
      "v": 73
    },
    {
      "midi": 41,
      "hit": false,
      "t": 25068.46850000002,
      "d": 410.95850000000064,
      "v": 68
    },
    {
      "midi": 57,
      "hit": false,
      "t": 25479.42700000002,
      "d": 102.73962499999834,
      "v": 66
    },
    {
      "midi": 58,
      "hit": false,
      "t": 25684.90625000002,
      "d": 205.47925000000032,
      "v": 66
    },
    {
      "midi": 59,
      "hit": false,
      "t": 25890.38550000002,
      "d": 410.95850000000064,
      "v": 65
    },
    {
      "midi": 52,
      "hit": false,
      "t": 26301.34400000002,
      "d": 410.95850000000064,
      "v": 70
    },
    {
      "midi": 55,
      "hit": false,
      "t": 26301.34400000002,
      "d": 410.95850000000064,
      "v": 76
    },
    {
      "midi": 48,
      "hit": false,
      "t": 26712.30250000002,
      "d": 410.95850000000064,
      "v": 52
    },
    {
      "midi": 52,
      "hit": false,
      "t": 27123.26100000002,
      "d": 410.95850000000064,
      "v": 66
    },
    {
      "midi": 55,
      "hit": false,
      "t": 27123.26100000002,
      "d": 410.95850000000064,
      "v": 70
    },
    {
      "midi": 64,
      "hit": false,
      "t": 27534.219500000007,
      "d": 410.95850000000064,
      "v": 90
    },
    {
      "midi": 36,
      "hit": false,
      "t": 27534.21950000002,
      "d": 410.95850000000064,
      "v": 60
    },
    {
      "midi": 67,
      "hit": false,
      "t": 27945.178000000007,
      "d": 821.9170000000013,
      "v": 106
    },
    {
      "midi": 52,
      "hit": false,
      "t": 27945.17800000002,
      "d": 410.95850000000064,
      "v": 59
    },
    {
      "midi": 55,
      "hit": false,
      "t": 27945.17800000002,
      "d": 410.95850000000064,
      "v": 65
    },
    {
      "midi": 36,
      "hit": false,
      "t": 28356.136500000022,
      "d": 410.95850000000064,
      "v": 58
    },
    {
      "midi": 71,
      "hit": false,
      "t": 28767.09500000001,
      "d": 410.95850000000064,
      "v": 87
    },
    {
      "midi": 59,
      "hit": false,
      "t": 28767.095000000023,
      "d": 410.95850000000064,
      "v": 67
    },
    {
      "midi": 71,
      "hit": false,
      "t": 29178.05350000001,
      "d": 410.95850000000064,
      "v": 85
    },
    {
      "midi": 36,
      "hit": false,
      "t": 29178.053500000024,
      "d": 410.95850000000064,
      "v": 51
    },
    {
      "midi": 57,
      "hit": false,
      "t": 29589.012000000024,
      "d": 410.95850000000064,
      "v": 68
    },
    {
      "midi": 69,
      "hit": false,
      "t": 29999.97050000001,
      "d": 2465.751,
      "v": 94
    },
    {
      "midi": 48,
      "hit": false,
      "t": 29999.970500000025,
      "d": 410.95850000000064,
      "v": 55
    },
    {
      "midi": 57,
      "hit": false,
      "t": 30410.929000000026,
      "d": 410.95850000000064,
      "v": 72
    },
    {
      "midi": 41,
      "hit": false,
      "t": 30821.887500000026,
      "d": 410.95850000000064,
      "v": 61
    },
    {
      "midi": 57,
      "hit": false,
      "t": 31232.846000000027,
      "d": 410.95850000000064,
      "v": 68
    },
    {
      "midi": 41,
      "hit": false,
      "t": 31643.804500000027,
      "d": 410.95850000000064,
      "v": 66
    },
    {
      "midi": 57,
      "hit": false,
      "t": 32054.763000000028,
      "d": 102.73962499999834,
      "v": 63
    },
    {
      "midi": 58,
      "hit": false,
      "t": 32260.242250000025,
      "d": 205.47925000000032,
      "v": 42
    },
    {
      "midi": 59,
      "hit": false,
      "t": 32465.721500000025,
      "d": 410.958499999997,
      "v": 76
    },
    {
      "midi": 52,
      "hit": false,
      "t": 32876.68000000002,
      "d": 410.95850000000064,
      "v": 70
    },
    {
      "midi": 55,
      "hit": false,
      "t": 32876.68000000002,
      "d": 410.95850000000064,
      "v": 76
    },
    {
      "midi": 64,
      "hit": false,
      "t": 33287.63850000001,
      "d": 410.95850000000064,
      "v": 77
    },
    {
      "midi": 48,
      "hit": false,
      "t": 33287.63850000002,
      "d": 410.95850000000064,
      "v": 62
    },
    {
      "midi": 67,
      "hit": false,
      "t": 33698.59700000001,
      "d": 410.95850000000064,
      "v": 78
    },
    {
      "midi": 52,
      "hit": false,
      "t": 33698.59700000002,
      "d": 410.95850000000064,
      "v": 65
    },
    {
      "midi": 55,
      "hit": false,
      "t": 33698.59700000002,
      "d": 410.95850000000064,
      "v": 75
    },
    {
      "midi": 64,
      "hit": false,
      "t": 34109.55550000001,
      "d": 410.95850000000064,
      "v": 82
    },
    {
      "midi": 36,
      "hit": false,
      "t": 34109.555500000024,
      "d": 410.95850000000064,
      "v": 62
    },
    {
      "midi": 67,
      "hit": false,
      "t": 34520.51400000001,
      "d": 821.9170000000013,
      "v": 106
    },
    {
      "midi": 55,
      "hit": false,
      "t": 34520.514000000025,
      "d": 410.95850000000064,
      "v": 72
    },
    {
      "midi": 36,
      "hit": false,
      "t": 34931.472500000025,
      "d": 410.95850000000064,
      "v": 66
    },
    {
      "midi": 71,
      "hit": false,
      "t": 35342.43100000001,
      "d": 410.95850000000064,
      "v": 84
    },
    {
      "midi": 55,
      "hit": false,
      "t": 35342.431000000026,
      "d": 410.95850000000064,
      "v": 70
    },
    {
      "midi": 59,
      "hit": false,
      "t": 35342.431000000026,
      "d": 410.95850000000064,
      "v": 68
    },
    {
      "midi": 69,
      "hit": false,
      "t": 35753.38950000001,
      "d": 410.95850000000064,
      "v": 106
    },
    {
      "midi": 36,
      "hit": false,
      "t": 35753.38950000003,
      "d": 410.95850000000064,
      "v": 68
    },
    {
      "midi": 57,
      "hit": false,
      "t": 36164.34800000003,
      "d": 410.95850000000064,
      "v": 70
    },
    {
      "midi": 48,
      "hit": false,
      "t": 36575.30650000003,
      "d": 410.95850000000064,
      "v": 64
    },
    {
      "midi": 57,
      "hit": false,
      "t": 36986.26500000003,
      "d": 410.95850000000064,
      "v": 73
    },
    {
      "midi": 41,
      "hit": false,
      "t": 37397.22350000003,
      "d": 410.95850000000064,
      "v": 63
    },
    {
      "midi": 57,
      "hit": false,
      "t": 37808.18200000003,
      "d": 410.95850000000064,
      "v": 70
    },
    {
      "midi": 41,
      "hit": false,
      "t": 38219.14050000003,
      "d": 410.95850000000064,
      "v": 68
    },
    {
      "midi": 53,
      "hit": false,
      "t": 38630.09900000003,
      "d": 102.73962500000198,
      "v": 63
    },
    {
      "midi": 57,
      "hit": false,
      "t": 38630.09900000003,
      "d": 102.73962500000198,
      "v": 66
    },
    {
      "midi": 53,
      "hit": false,
      "t": 38835.578250000035,
      "d": 205.47924999999668,
      "v": 55
    },
    {
      "midi": 59,
      "hit": false,
      "t": 39041.05750000003,
      "d": 410.95850000000064,
      "v": 72
    },
    {
      "midi": 53,
      "hit": false,
      "t": 39452.01600000003,
      "d": 410.95850000000064,
      "v": 66
    },
    {
      "midi": 57,
      "hit": false,
      "t": 39452.01600000003,
      "d": 410.95850000000064,
      "v": 76
    },
    {
      "midi": 60,
      "hit": false,
      "t": 39452.01600000003,
      "d": 410.95850000000064,
      "v": 67
    },
    {
      "midi": 69,
      "hit": false,
      "t": 39862.97450000001,
      "d": 410.95850000000064,
      "v": 87
    },
    {
      "midi": 72,
      "hit": false,
      "t": 40273.93300000001,
      "d": 410.95850000000064,
      "v": 110
    },
    {
      "midi": 53,
      "hit": false,
      "t": 40273.933000000034,
      "d": 410.95850000000064,
      "v": 80
    },
    {
      "midi": 57,
      "hit": false,
      "t": 40273.933000000034,
      "d": 410.95850000000064,
      "v": 69
    },
    {
      "midi": 60,
      "hit": false,
      "t": 40273.933000000034,
      "d": 410.95850000000064,
      "v": 68
    },
    {
      "midi": 69,
      "hit": false,
      "t": 40684.89150000001,
      "d": 410.95850000000064,
      "v": 97
    },
    {
      "midi": 41,
      "hit": false,
      "t": 40684.891500000034,
      "d": 410.95850000000064,
      "v": 72
    },
    {
      "midi": 72,
      "hit": false,
      "t": 41095.85000000001,
      "d": 821.9170000000013,
      "v": 122
    },
    {
      "midi": 57,
      "hit": false,
      "t": 41095.850000000035,
      "d": 410.95850000000064,
      "v": 81
    },
    {
      "midi": 60,
      "hit": false,
      "t": 41095.850000000035,
      "d": 410.95850000000064,
      "v": 72
    },
    {
      "midi": 76,
      "hit": false,
      "t": 41917.767000000014,
      "d": 410.95850000000064,
      "v": 84
    },
    {
      "midi": 52,
      "hit": false,
      "t": 41917.767000000036,
      "d": 410.95850000000064,
      "v": 69
    },
    {
      "midi": 57,
      "hit": false,
      "t": 41917.767000000036,
      "d": 410.95850000000064,
      "v": 60
    },
    {
      "midi": 60,
      "hit": false,
      "t": 41917.767000000036,
      "d": 410.95850000000064,
      "v": 70
    },
    {
      "midi": 76,
      "hit": false,
      "t": 42328.725500000015,
      "d": 410.95850000000064,
      "v": 110
    },
    {
      "midi": 40,
      "hit": false,
      "t": 42328.72550000004,
      "d": 410.95850000000064,
      "v": 60
    },
    {
      "midi": 50,
      "hit": false,
      "t": 42739.68400000004,
      "d": 410.95850000000064,
      "v": 66
    },
    {
      "midi": 53,
      "hit": false,
      "t": 42739.68400000004,
      "d": 410.95850000000064,
      "v": 72
    },
    {
      "midi": 57,
      "hit": false,
      "t": 42739.68400000004,
      "d": 410.95850000000064,
      "v": 77
    },
    {
      "midi": 74,
      "hit": false,
      "t": 43150.642500000016,
      "d": 205.47924999999668,
      "v": 106
    },
    {
      "midi": 72,
      "hit": false,
      "t": 43356.12175000001,
      "d": 205.47924999999668,
      "v": 106
    },
    {
      "midi": 69,
      "hit": false,
      "t": 43561.60100000001,
      "d": 2465.7509999999966,
      "v": 80
    },
    {
      "midi": 50,
      "hit": false,
      "t": 43561.60100000004,
      "d": 410.95850000000064,
      "v": 72
    },
    {
      "midi": 53,
      "hit": false,
      "t": 43561.60100000004,
      "d": 410.95850000000064,
      "v": 78
    },
    {
      "midi": 57,
      "hit": false,
      "t": 43561.60100000004,
      "d": 410.95850000000064,
      "v": 78
    },
    {
      "midi": 38,
      "hit": false,
      "t": 43972.55950000004,
      "d": 410.95850000000064,
      "v": 70
    },
    {
      "midi": 53,
      "hit": false,
      "t": 44383.51800000004,
      "d": 410.95850000000064,
      "v": 77
    },
    {
      "midi": 57,
      "hit": false,
      "t": 44383.51800000004,
      "d": 410.95850000000064,
      "v": 76
    },
    {
      "midi": 57,
      "hit": false,
      "t": 45205.43500000004,
      "d": 410.95850000000064,
      "v": 75
    },
    {
      "midi": 36,
      "hit": false,
      "t": 45616.39350000004,
      "d": 410.95850000000064,
      "v": 63
    },
    {
      "midi": 71,
      "hit": false,
      "t": 46027.352000000006,
      "d": 410.95850000000064,
      "v": 106
    },
    {
      "midi": 55,
      "hit": false,
      "t": 46027.35200000004,
      "d": 410.95850000000064,
      "v": 71
    },
    {
      "midi": 59,
      "hit": false,
      "t": 46027.35200000004,
      "d": 410.95850000000064,
      "v": 72
    },
    {
      "midi": 62,
      "hit": false,
      "t": 46027.35200000004,
      "d": 410.95850000000064,
      "v": 68
    },
    {
      "midi": 71,
      "hit": false,
      "t": 46438.31050000001,
      "d": 1232.875500000002,
      "v": 100
    },
    {
      "midi": 55,
      "hit": false,
      "t": 46849.269000000044,
      "d": 410.95850000000064,
      "v": 80
    },
    {
      "midi": 59,
      "hit": false,
      "t": 46849.269000000044,
      "d": 410.95850000000064,
      "v": 76
    },
    {
      "midi": 62,
      "hit": false,
      "t": 46849.269000000044,
      "d": 410.95850000000064,
      "v": 76
    },
    {
      "midi": 43,
      "hit": false,
      "t": 47260.227500000045,
      "d": 410.95850000000064,
      "v": 45
    },
    {
      "midi": 71,
      "hit": false,
      "t": 47671.18600000001,
      "d": 821.9170000000013,
      "v": 97
    },
    {
      "midi": 62,
      "hit": false,
      "t": 47671.186000000045,
      "d": 410.95850000000064,
      "v": 75
    },
    {
      "midi": 43,
      "hit": false,
      "t": 48082.144500000046,
      "d": 410.95850000000064,
      "v": 66
    },
    {
      "midi": 72,
      "hit": false,
      "t": 48493.10300000001,
      "d": 410.95850000000064,
      "v": 106
    },
    {
      "midi": 62,
      "hit": false,
      "t": 48493.10300000005,
      "d": 410.95850000000064,
      "v": 72
    },
    {
      "midi": 74,
      "hit": false,
      "t": 48904.06150000001,
      "d": 410.95850000000064,
      "v": 100
    },
    {
      "midi": 43,
      "hit": false,
      "t": 48904.06150000005,
      "d": 410.95850000000064,
      "v": 72
    },
    {
      "midi": 59,
      "hit": false,
      "t": 49315.02000000005,
      "d": 410.95850000000064,
      "v": 70
    },
    {
      "midi": 62,
      "hit": false,
      "t": 49315.02000000005,
      "d": 410.95850000000064,
      "v": 60
    },
    {
      "midi": 67,
      "hit": false,
      "t": 49315.02000000005,
      "d": 410.95850000000064,
      "v": 68
    },
    {
      "midi": 52,
      "hit": false,
      "t": 52602.688000000046,
      "d": 410.95850000000064,
      "v": 62
    },
    {
      "midi": 55,
      "hit": false,
      "t": 52602.688000000046,
      "d": 410.95850000000064,
      "v": 61
    },
    {
      "midi": 64,
      "hit": false,
      "t": 53013.64650000001,
      "d": 410.95850000000064,
      "v": 85
    },
    {
      "midi": 48,
      "hit": false,
      "t": 53013.646500000046,
      "d": 410.95850000000064,
      "v": 48
    },
    {
      "midi": 67,
      "hit": false,
      "t": 53424.60500000001,
      "d": 410.95850000000064,
      "v": 100
    },
    {
      "midi": 55,
      "hit": false,
      "t": 53424.60500000005,
      "d": 410.95850000000064,
      "v": 68
    },
    {
      "midi": 64,
      "hit": false,
      "t": 53835.56350000001,
      "d": 410.95850000000064,
      "v": 103
    },
    {
      "midi": 36,
      "hit": false,
      "t": 53835.56350000005,
      "d": 410.95850000000064,
      "v": 58
    },
    {
      "midi": 67,
      "hit": false,
      "t": 54246.52200000001,
      "d": 821.9170000000013,
      "v": 122
    },
    {
      "midi": 55,
      "hit": false,
      "t": 54246.52200000005,
      "d": 410.95850000000064,
      "v": 63
    },
    {
      "midi": 36,
      "hit": false,
      "t": 54760.22012500005,
      "d": 308.21887499999866,
      "v": 26
    },
    {
      "midi": 71,
      "hit": false,
      "t": 55068.43900000001,
      "d": 410.95850000000064,
      "v": 87
    },
    {
      "midi": 55,
      "hit": false,
      "t": 55068.43900000005,
      "d": 410.95850000000064,
      "v": 63
    },
    {
      "midi": 59,
      "hit": false,
      "t": 55068.43900000005,
      "d": 410.95850000000064,
      "v": 58
    },
    {
      "midi": 71,
      "hit": false,
      "t": 55479.397500000014,
      "d": 410.95850000000064,
      "v": 100
    },
    {
      "midi": 36,
      "hit": false,
      "t": 55479.39750000005,
      "d": 410.95850000000064,
      "v": 55
    },
    {
      "midi": 57,
      "hit": false,
      "t": 55890.35600000005,
      "d": 410.95850000000064,
      "v": 62
    },
    {
      "midi": 69,
      "hit": false,
      "t": 56301.314500000015,
      "d": 2465.7509999999966,
      "v": 106
    },
    {
      "midi": 48,
      "hit": false,
      "t": 56301.31450000005,
      "d": 410.95850000000064,
      "v": 30
    },
    {
      "midi": 57,
      "hit": false,
      "t": 56712.27300000005,
      "d": 410.95850000000064,
      "v": 63
    },
    {
      "midi": 41,
      "hit": false,
      "t": 57123.23150000005,
      "d": 410.95850000000064,
      "v": 54
    },
    {
      "midi": 57,
      "hit": false,
      "t": 57534.19000000005,
      "d": 410.95850000000064,
      "v": 57
    },
    {
      "midi": 41,
      "hit": false,
      "t": 57945.148500000054,
      "d": 410.95850000000064,
      "v": 65
    },
    {
      "midi": 48,
      "hit": false,
      "t": 58356.107000000055,
      "d": 205.47924999999668,
      "v": 50
    },
    {
      "midi": 53,
      "hit": false,
      "t": 58356.107000000055,
      "d": 205.47924999999668,
      "v": 63
    },
    {
      "midi": 57,
      "hit": false,
      "t": 58356.107000000055,
      "d": 205.47924999999668,
      "v": 63
    },
    {
      "midi": 53,
      "hit": false,
      "t": 58561.58625000005,
      "d": 205.47924999999668,
      "v": 62
    },
    {
      "midi": 58,
      "hit": false,
      "t": 58561.58625000005,
      "d": 205.47924999999668,
      "v": 65
    },
    {
      "midi": 59,
      "hit": false,
      "t": 58767.06550000005,
      "d": 410.95850000000064,
      "v": 68
    },
    {
      "midi": 52,
      "hit": false,
      "t": 59178.02400000005,
      "d": 410.95850000000064,
      "v": 72
    },
    {
      "midi": 55,
      "hit": false,
      "t": 59178.02400000005,
      "d": 410.95850000000064,
      "v": 76
    },
    {
      "midi": 64,
      "hit": false,
      "t": 59588.98250000001,
      "d": 410.95850000000064,
      "v": 90
    },
    {
      "midi": 48,
      "hit": false,
      "t": 59588.98250000005,
      "d": 410.95850000000064,
      "v": 56
    },
    {
      "midi": 67,
      "hit": false,
      "t": 59999.94100000001,
      "d": 410.95850000000064,
      "v": 100
    },
    {
      "midi": 55,
      "hit": false,
      "t": 59999.94100000005,
      "d": 410.95850000000064,
      "v": 72
    },
    {
      "midi": 64,
      "hit": false,
      "t": 60410.899500000014,
      "d": 410.95850000000064,
      "v": 94
    },
    {
      "midi": 36,
      "hit": false,
      "t": 60410.89950000005,
      "d": 410.95850000000064,
      "v": 58
    },
    {
      "midi": 67,
      "hit": false,
      "t": 60821.858000000015,
      "d": 821.9170000000013,
      "v": 118
    },
    {
      "midi": 55,
      "hit": false,
      "t": 60821.85800000005,
      "d": 410.95850000000064,
      "v": 67
    },
    {
      "midi": 36,
      "hit": false,
      "t": 61232.81650000005,
      "d": 410.95850000000064,
      "v": 58
    },
    {
      "midi": 71,
      "hit": false,
      "t": 61643.775000000016,
      "d": 410.95850000000064,
      "v": 95
    },
    {
      "midi": 55,
      "hit": false,
      "t": 61643.77500000005,
      "d": 410.95850000000064,
      "v": 70
    },
    {
      "midi": 59,
      "hit": false,
      "t": 61643.77500000005,
      "d": 410.95850000000064,
      "v": 65
    },
    {
      "midi": 69,
      "hit": false,
      "t": 62054.73350000002,
      "d": 410.95850000000064,
      "v": 85
    },
    {
      "midi": 36,
      "hit": false,
      "t": 62054.73350000005,
      "d": 410.95850000000064,
      "v": 58
    },
    {
      "midi": 57,
      "hit": false,
      "t": 62465.692000000054,
      "d": 410.95850000000064,
      "v": 66
    },
    {
      "midi": 48,
      "hit": false,
      "t": 62876.650500000054,
      "d": 410.95850000000064,
      "v": 64
    },
    {
      "midi": 57,
      "hit": false,
      "t": 63287.609000000055,
      "d": 410.95850000000064,
      "v": 72
    },
    {
      "midi": 41,
      "hit": false,
      "t": 63698.567500000056,
      "d": 410.95850000000064,
      "v": 68
    },
    {
      "midi": 57,
      "hit": false,
      "t": 64109.526000000056,
      "d": 410.95850000000064,
      "v": 73
    },
    {
      "midi": 41,
      "hit": false,
      "t": 64520.48450000006,
      "d": 410.95850000000064,
      "v": 68
    },
    {
      "midi": 57,
      "hit": false,
      "t": 64931.44300000006,
      "d": 102.73962500000198,
      "v": 66
    },
    {
      "midi": 58,
      "hit": false,
      "t": 65136.92225000006,
      "d": 205.47924999999668,
      "v": 66
    },
    {
      "midi": 59,
      "hit": false,
      "t": 65342.40150000006,
      "d": 410.95850000000064,
      "v": 65
    },
    {
      "midi": 52,
      "hit": false,
      "t": 65753.36000000006,
      "d": 410.95849999999336,
      "v": 70
    },
    {
      "midi": 55,
      "hit": false,
      "t": 65753.36000000006,
      "d": 410.95849999999336,
      "v": 76
    },
    {
      "midi": 64,
      "hit": false,
      "t": 66164.31850000002,
      "d": 410.95849999999336,
      "v": 78
    },
    {
      "midi": 48,
      "hit": false,
      "t": 66164.31850000005,
      "d": 410.95849999999336,
      "v": 52
    },
    {
      "midi": 67,
      "hit": false,
      "t": 66575.27700000002,
      "d": 410.95849999999336,
      "v": 97
    },
    {
      "midi": 52,
      "hit": false,
      "t": 66575.27700000005,
      "d": 410.95849999999336,
      "v": 66
    },
    {
      "midi": 55,
      "hit": false,
      "t": 66575.27700000005,
      "d": 410.95849999999336,
      "v": 70
    },
    {
      "midi": 64,
      "hit": false,
      "t": 66986.23550000001,
      "d": 410.95849999999336,
      "v": 84
    },
    {
      "midi": 36,
      "hit": false,
      "t": 66986.23550000004,
      "d": 410.95849999999336,
      "v": 60
    },
    {
      "midi": 67,
      "hit": false,
      "t": 67397.194,
      "d": 821.9170000000013,
      "v": 100
    },
    {
      "midi": 52,
      "hit": false,
      "t": 67397.19400000003,
      "d": 410.95849999999336,
      "v": 59
    },
    {
      "midi": 55,
      "hit": false,
      "t": 67397.19400000003,
      "d": 410.95849999999336,
      "v": 65
    },
    {
      "midi": 36,
      "hit": false,
      "t": 67808.15250000003,
      "d": 410.95849999999336,
      "v": 58
    },
    {
      "midi": 71,
      "hit": false,
      "t": 68219.111,
      "d": 410.95849999999336,
      "v": 103
    },
    {
      "midi": 59,
      "hit": false,
      "t": 68219.11100000002,
      "d": 410.95849999999336,
      "v": 67
    },
    {
      "midi": 71,
      "hit": false,
      "t": 68630.0695,
      "d": 410.95849999999336,
      "v": 103
    },
    {
      "midi": 36,
      "hit": false,
      "t": 68630.06950000001,
      "d": 410.95849999999336,
      "v": 51
    },
    {
      "midi": 57,
      "hit": false,
      "t": 69041.028,
      "d": 410.95849999999336,
      "v": 68
    },
    {
      "midi": 69,
      "hit": false,
      "t": 69451.98649999998,
      "d": 2465.751000000004,
      "v": 103
    },
    {
      "midi": 48,
      "hit": false,
      "t": 69451.9865,
      "d": 410.95849999999336,
      "v": 55
    },
    {
      "midi": 57,
      "hit": false,
      "t": 69862.94499999999,
      "d": 410.95849999999336,
      "v": 72
    },
    {
      "midi": 41,
      "hit": false,
      "t": 70273.90349999999,
      "d": 410.95849999999336,
      "v": 61
    },
    {
      "midi": 57,
      "hit": false,
      "t": 70684.86199999998,
      "d": 410.95849999999336,
      "v": 68
    },
    {
      "midi": 41,
      "hit": false,
      "t": 71095.82049999997,
      "d": 410.95849999999336,
      "v": 66
    },
    {
      "midi": 57,
      "hit": false,
      "t": 71506.77899999997,
      "d": 102.73962500000198,
      "v": 63
    },
    {
      "midi": 58,
      "hit": false,
      "t": 71712.25824999997,
      "d": 205.47925000000396,
      "v": 42
    },
    {
      "midi": 59,
      "hit": false,
      "t": 71917.73749999997,
      "d": 410.95849999999336,
      "v": 76
    },
    {
      "midi": 52,
      "hit": false,
      "t": 72328.69599999997,
      "d": 410.95849999999336,
      "v": 70
    },
    {
      "midi": 55,
      "hit": false,
      "t": 72328.69599999997,
      "d": 410.95849999999336,
      "v": 76
    },
    {
      "midi": 48,
      "hit": false,
      "t": 72739.65449999996,
      "d": 410.95849999999336,
      "v": 62
    },
    {
      "midi": 64,
      "hit": false,
      "t": 72739.65449999999,
      "d": 410.95849999999336,
      "v": 92
    },
    {
      "midi": 52,
      "hit": false,
      "t": 73150.61299999995,
      "d": 410.95849999999336,
      "v": 65
    },
    {
      "midi": 55,
      "hit": false,
      "t": 73150.61299999995,
      "d": 410.95849999999336,
      "v": 75
    },
    {
      "midi": 67,
      "hit": false,
      "t": 73150.61299999998,
      "d": 410.95849999999336,
      "v": 94
    },
    {
      "midi": 36,
      "hit": false,
      "t": 73561.57149999995,
      "d": 410.95849999999336,
      "v": 62
    },
    {
      "midi": 64,
      "hit": false,
      "t": 73561.57149999998,
      "d": 410.95849999999336,
      "v": 106
    },
    {
      "midi": 55,
      "hit": false,
      "t": 73972.52999999994,
      "d": 410.95849999999336,
      "v": 72
    },
    {
      "midi": 67,
      "hit": false,
      "t": 73972.52999999997,
      "d": 410.95849999999336,
      "v": 122
    },
    {
      "midi": 36,
      "hit": false,
      "t": 74383.48849999993,
      "d": 410.95849999999336,
      "v": 66
    },
    {
      "midi": 71,
      "hit": false,
      "t": 74383.48849999996,
      "d": 821.9170000000013,
      "v": 85
    },
    {
      "midi": 55,
      "hit": false,
      "t": 74794.44699999993,
      "d": 410.95849999999336,
      "v": 70
    },
    {
      "midi": 59,
      "hit": false,
      "t": 74794.44699999993,
      "d": 410.95849999999336,
      "v": 68
    },
    {
      "midi": 36,
      "hit": false,
      "t": 75205.40549999992,
      "d": 410.95849999999336,
      "v": 68
    },
    {
      "midi": 69,
      "hit": false,
      "t": 75205.40549999996,
      "d": 410.95849999999336,
      "v": 87
    },
    {
      "midi": 57,
      "hit": false,
      "t": 75616.36399999991,
      "d": 410.95849999999336,
      "v": 70
    },
    {
      "midi": 48,
      "hit": false,
      "t": 76027.32249999991,
      "d": 410.95849999999336,
      "v": 64
    },
    {
      "midi": 57,
      "hit": false,
      "t": 76438.2809999999,
      "d": 410.95849999999336,
      "v": 73
    },
    {
      "midi": 41,
      "hit": false,
      "t": 76849.2394999999,
      "d": 410.95849999999336,
      "v": 63
    },
    {
      "midi": 57,
      "hit": false,
      "t": 77260.19799999989,
      "d": 410.95849999999336,
      "v": 70
    },
    {
      "midi": 41,
      "hit": false,
      "t": 77671.15649999988,
      "d": 410.95849999999336,
      "v": 68
    },
    {
      "midi": 53,
      "hit": false,
      "t": 78082.11499999987,
      "d": 102.73962500000198,
      "v": 63
    },
    {
      "midi": 57,
      "hit": false,
      "t": 78082.11499999987,
      "d": 102.73962500000198,
      "v": 66
    },
    {
      "midi": 53,
      "hit": false,
      "t": 78287.59424999988,
      "d": 205.47925000000396,
      "v": 55
    },
    {
      "midi": 59,
      "hit": false,
      "t": 78493.07349999988,
      "d": 410.95849999999336,
      "v": 72
    },
    {
      "midi": 53,
      "hit": false,
      "t": 78904.03199999988,
      "d": 410.95849999999336,
      "v": 66
    },
    {
      "midi": 57,
      "hit": false,
      "t": 78904.03199999988,
      "d": 410.95849999999336,
      "v": 76
    },
    {
      "midi": 60,
      "hit": false,
      "t": 78904.03199999988,
      "d": 410.95849999999336,
      "v": 67
    },
    {
      "midi": 69,
      "hit": false,
      "t": 79314.99049999996,
      "d": 410.95849999999336,
      "v": 100
    },
    {
      "midi": 53,
      "hit": false,
      "t": 79725.94899999986,
      "d": 410.95849999999336,
      "v": 80
    },
    {
      "midi": 57,
      "hit": false,
      "t": 79725.94899999986,
      "d": 410.95849999999336,
      "v": 69
    },
    {
      "midi": 60,
      "hit": false,
      "t": 79725.94899999986,
      "d": 410.95849999999336,
      "v": 68
    },
    {
      "midi": 72,
      "hit": false,
      "t": 79725.94899999995,
      "d": 410.95849999999336,
      "v": 127
    },
    {
      "midi": 41,
      "hit": false,
      "t": 80136.90749999986,
      "d": 410.95849999999336,
      "v": 72
    },
    {
      "midi": 69,
      "hit": false,
      "t": 80136.90749999994,
      "d": 410.95849999999336,
      "v": 103
    },
    {
      "midi": 57,
      "hit": false,
      "t": 80547.86599999985,
      "d": 410.95849999999336,
      "v": 81
    },
    {
      "midi": 60,
      "hit": false,
      "t": 80547.86599999985,
      "d": 410.95849999999336,
      "v": 72
    },
    {
      "midi": 72,
      "hit": false,
      "t": 80547.86599999994,
      "d": 821.9170000000013,
      "v": 127
    },
    {
      "midi": 52,
      "hit": false,
      "t": 81369.78299999984,
      "d": 410.95849999999336,
      "v": 69
    },
    {
      "midi": 57,
      "hit": false,
      "t": 81369.78299999984,
      "d": 410.95849999999336,
      "v": 60
    },
    {
      "midi": 60,
      "hit": false,
      "t": 81369.78299999984,
      "d": 410.95849999999336,
      "v": 70
    },
    {
      "midi": 76,
      "hit": false,
      "t": 81369.78299999994,
      "d": 410.95849999999336,
      "v": 122
    },
    {
      "midi": 40,
      "hit": false,
      "t": 81780.74149999983,
      "d": 410.95849999999336,
      "v": 60
    },
    {
      "midi": 76,
      "hit": false,
      "t": 81780.74149999993,
      "d": 410.95849999999336,
      "v": 127
    },
    {
      "midi": 50,
      "hit": false,
      "t": 82191.69999999982,
      "d": 410.95849999999336,
      "v": 66
    },
    {
      "midi": 53,
      "hit": false,
      "t": 82191.69999999982,
      "d": 410.95849999999336,
      "v": 72
    },
    {
      "midi": 57,
      "hit": false,
      "t": 82191.69999999982,
      "d": 410.95849999999336,
      "v": 77
    },
    {
      "midi": 74,
      "hit": false,
      "t": 82602.65849999992,
      "d": 205.47925000000396,
      "v": 106
    },
    {
      "midi": 72,
      "hit": false,
      "t": 82808.13774999992,
      "d": 205.47925000000396,
      "v": 122
    },
    {
      "midi": 50,
      "hit": false,
      "t": 83013.61699999981,
      "d": 410.95849999999336,
      "v": 72
    },
    {
      "midi": 53,
      "hit": false,
      "t": 83013.61699999981,
      "d": 410.95849999999336,
      "v": 78
    },
    {
      "midi": 57,
      "hit": false,
      "t": 83013.61699999981,
      "d": 410.95849999999336,
      "v": 78
    },
    {
      "midi": 69,
      "hit": false,
      "t": 83013.61699999993,
      "d": 2465.751000000004,
      "v": 103
    },
    {
      "midi": 38,
      "hit": false,
      "t": 83424.5754999998,
      "d": 410.95849999999336,
      "v": 70
    },
    {
      "midi": 53,
      "hit": false,
      "t": 83835.5339999998,
      "d": 410.95849999999336,
      "v": 77
    },
    {
      "midi": 57,
      "hit": false,
      "t": 83835.5339999998,
      "d": 410.95849999999336,
      "v": 76
    },
    {
      "midi": 57,
      "hit": false,
      "t": 84657.45099999978,
      "d": 410.95849999999336,
      "v": 75
    },
    {
      "midi": 36,
      "hit": false,
      "t": 85068.40949999978,
      "d": 410.95849999999336,
      "v": 63
    },
    {
      "midi": 55,
      "hit": false,
      "t": 85479.36799999977,
      "d": 410.95849999999336,
      "v": 71
    },
    {
      "midi": 59,
      "hit": false,
      "t": 85479.36799999977,
      "d": 410.95849999999336,
      "v": 72
    },
    {
      "midi": 62,
      "hit": false,
      "t": 85479.36799999977,
      "d": 410.95849999999336,
      "v": 68
    },
    {
      "midi": 71,
      "hit": false,
      "t": 85479.36799999993,
      "d": 410.95849999999336,
      "v": 122
    },
    {
      "midi": 71,
      "hit": false,
      "t": 85890.32649999992,
      "d": 1232.8754999999946,
      "v": 100
    },
    {
      "midi": 55,
      "hit": false,
      "t": 86301.28499999976,
      "d": 410.95849999999336,
      "v": 80
    },
    {
      "midi": 59,
      "hit": false,
      "t": 86301.28499999976,
      "d": 410.95849999999336,
      "v": 76
    },
    {
      "midi": 62,
      "hit": false,
      "t": 86301.28499999976,
      "d": 410.95849999999336,
      "v": 76
    },
    {
      "midi": 43,
      "hit": false,
      "t": 86712.24349999975,
      "d": 410.95849999999336,
      "v": 45
    },
    {
      "midi": 62,
      "hit": false,
      "t": 87123.20199999974,
      "d": 410.95849999999336,
      "v": 75
    },
    {
      "midi": 71,
      "hit": false,
      "t": 87123.20199999992,
      "d": 821.9170000000013,
      "v": 106
    },
    {
      "midi": 43,
      "hit": false,
      "t": 87534.16049999974,
      "d": 410.95849999999336,
      "v": 66
    },
    {
      "midi": 62,
      "hit": false,
      "t": 87945.11899999973,
      "d": 410.95849999999336,
      "v": 72
    },
    {
      "midi": 72,
      "hit": false,
      "t": 87945.11899999992,
      "d": 410.95849999999336,
      "v": 113
    },
    {
      "midi": 43,
      "hit": false,
      "t": 88356.07749999972,
      "d": 410.95849999999336,
      "v": 72
    },
    {
      "midi": 74,
      "hit": false,
      "t": 88356.07749999991,
      "d": 410.95849999999336,
      "v": 118
    },
    {
      "midi": 59,
      "hit": false,
      "t": 88767.03599999972,
      "d": 410.95849999999336,
      "v": 70
    },
    {
      "midi": 62,
      "hit": false,
      "t": 88767.03599999972,
      "d": 410.95849999999336,
      "v": 60
    },
    {
      "midi": 67,
      "hit": false,
      "t": 88767.03599999972,
      "d": 410.95849999999336,
      "v": 68
    },
    {
      "midi": 76,
      "hit": false,
      "t": 90410.86999999991,
      "d": 410.95849999999336,
      "v": 97
    },
    {
      "midi": 79,
      "hit": false,
      "t": 90821.8284999999,
      "d": 821.9170000000013,
      "v": 87
    },
    {
      "midi": 76,
      "hit": false,
      "t": 91643.7454999999,
      "d": 205.47925000000396,
      "v": 103
    },
    {
      "midi": 74,
      "hit": false,
      "t": 91849.2247499999,
      "d": 205.47925000000396,
      "v": 72
    },
    {
      "midi": 53,
      "hit": false,
      "t": 92054.7039999997,
      "d": 821.9170000000013,
      "v": 66
    },
    {
      "midi": 57,
      "hit": false,
      "t": 92054.7039999997,
      "d": 821.9170000000013,
      "v": 76
    },
    {
      "midi": 60,
      "hit": false,
      "t": 92054.7039999997,
      "d": 821.9170000000013,
      "v": 68
    },
    {
      "midi": 72,
      "hit": false,
      "t": 92054.70399999991,
      "d": 1232.8754999999946,
      "v": 94
    },
    {
      "midi": 53,
      "hit": false,
      "t": 92876.62099999971,
      "d": 410.95849999999336,
      "v": 81
    },
    {
      "midi": 57,
      "hit": false,
      "t": 92876.62099999971,
      "d": 410.95849999999336,
      "v": 73
    },
    {
      "midi": 60,
      "hit": false,
      "t": 92876.62099999971,
      "d": 410.95849999999336,
      "v": 71
    },
    {
      "midi": 41,
      "hit": false,
      "t": 93287.5794999997,
      "d": 410.95849999999336,
      "v": 72
    },
    {
      "midi": 72,
      "hit": false,
      "t": 93287.5794999999,
      "d": 410.95849999999336,
      "v": 94
    },
    {
      "midi": 55,
      "hit": false,
      "t": 93698.5379999997,
      "d": 410.95849999999336,
      "v": 71
    },
    {
      "midi": 59,
      "hit": false,
      "t": 93698.5379999997,
      "d": 410.95849999999336,
      "v": 72
    },
    {
      "midi": 62,
      "hit": false,
      "t": 93698.5379999997,
      "d": 410.95849999999336,
      "v": 65
    },
    {
      "midi": 71,
      "hit": false,
      "t": 93698.5379999999,
      "d": 821.9170000000013,
      "v": 97
    },
    {
      "midi": 62,
      "hit": false,
      "t": 94520.45499999968,
      "d": 410.95849999999336,
      "v": 66
    },
    {
      "midi": 69,
      "hit": false,
      "t": 94520.4549999999,
      "d": 410.95849999999336,
      "v": 97
    },
    {
      "midi": 43,
      "hit": false,
      "t": 94931.41349999967,
      "d": 410.95849999999336,
      "v": 61
    },
    {
      "midi": 71,
      "hit": false,
      "t": 94931.4134999999,
      "d": 410.95849999999336,
      "v": 97
    },
    {
      "midi": 48,
      "hit": false,
      "t": 95342.37199999967,
      "d": 410.95849999999336,
      "v": 66
    },
    {
      "midi": 52,
      "hit": false,
      "t": 95342.37199999967,
      "d": 410.95849999999336,
      "v": 76
    },
    {
      "midi": 55,
      "hit": false,
      "t": 95342.37199999967,
      "d": 410.95849999999336,
      "v": 76
    },
    {
      "midi": 72,
      "hit": false,
      "t": 95342.37199999989,
      "d": 410.95849999999336,
      "v": 100
    },
    {
      "midi": 67,
      "hit": false,
      "t": 95753.33049999988,
      "d": 2465.751000000004,
      "v": 103
    },
    {
      "midi": 55,
      "hit": false,
      "t": 96164.28899999966,
      "d": 205.47925000000396,
      "v": 74
    },
    {
      "midi": 36,
      "hit": false,
      "t": 96472.50787499966,
      "d": 410.95849999999336,
      "v": 63
    },
    {
      "midi": 56,
      "hit": false,
      "t": 96986.20599999966,
      "d": 821.9170000000013,
      "v": 75
    },
    {
      "midi": 59,
      "hit": false,
      "t": 96986.20599999966,
      "d": 821.9170000000013,
      "v": 76
    },
    {
      "midi": 56,
      "hit": false,
      "t": 97808.12299999966,
      "d": 410.95849999999336,
      "v": 67
    },
    {
      "midi": 59,
      "hit": false,
      "t": 97808.12299999966,
      "d": 410.95849999999336,
      "v": 72
    },
    {
      "midi": 50,
      "hit": false,
      "t": 98219.08149999965,
      "d": 410.95849999999336,
      "v": 56
    },
    {
      "midi": 53,
      "hit": false,
      "t": 98630.03999999964,
      "d": 410.95849999999336,
      "v": 82
    },
    {
      "midi": 57,
      "hit": false,
      "t": 98630.03999999964,
      "d": 410.95849999999336,
      "v": 80
    },
    {
      "midi": 60,
      "hit": false,
      "t": 98630.03999999964,
      "d": 410.95849999999336,
      "v": 82
    },
    {
      "midi": 53,
      "hit": false,
      "t": 99451.95699999963,
      "d": 410.95849999999336,
      "v": 80
    },
    {
      "midi": 57,
      "hit": false,
      "t": 99451.95699999963,
      "d": 410.95849999999336,
      "v": 72
    },
    {
      "midi": 60,
      "hit": false,
      "t": 99451.95699999963,
      "d": 410.95849999999336,
      "v": 76
    },
    {
      "midi": 72,
      "hit": false,
      "t": 99451.95699999988,
      "d": 410.95849999999336,
      "v": 103
    },
    {
      "midi": 41,
      "hit": false,
      "t": 99862.91549999962,
      "d": 410.95849999999336,
      "v": 71
    },
    {
      "midi": 72,
      "hit": false,
      "t": 99862.91549999987,
      "d": 410.95849999999336,
      "v": 94
    },
    {
      "midi": 55,
      "hit": false,
      "t": 100273.87399999962,
      "d": 410.95849999999336,
      "v": 73
    },
    {
      "midi": 59,
      "hit": false,
      "t": 100273.87399999962,
      "d": 410.95849999999336,
      "v": 76
    },
    {
      "midi": 62,
      "hit": false,
      "t": 100273.87399999962,
      "d": 410.95849999999336,
      "v": 66
    },
    {
      "midi": 71,
      "hit": false,
      "t": 100273.87399999987,
      "d": 410.95849999999336,
      "v": 118
    },
    {
      "midi": 71,
      "hit": false,
      "t": 100684.83249999986,
      "d": 205.47925000000396,
      "v": 94
    },
    {
      "midi": 69,
      "hit": false,
      "t": 100890.31174999986,
      "d": 410.95849999999336,
      "v": 103
    },
    {
      "midi": 55,
      "hit": false,
      "t": 101095.7909999996,
      "d": 410.95849999999336,
      "v": 78
    },
    {
      "midi": 59,
      "hit": false,
      "t": 101095.7909999996,
      "d": 410.95849999999336,
      "v": 71
    },
    {
      "midi": 62,
      "hit": false,
      "t": 101095.7909999996,
      "d": 410.95849999999336,
      "v": 73
    },
    {
      "midi": 69,
      "hit": false,
      "t": 101301.27024999986,
      "d": 205.47925000000396,
      "v": 69
    },
    {
      "midi": 43,
      "hit": false,
      "t": 101506.7494999996,
      "d": 410.95849999999336,
      "v": 74
    },
    {
      "midi": 64,
      "hit": false,
      "t": 101506.74949999986,
      "d": 410.95849999999336,
      "v": 113
    },
    {
      "midi": 48,
      "hit": false,
      "t": 101917.70799999959,
      "d": 410.95849999999336,
      "v": 72
    },
    {
      "midi": 52,
      "hit": false,
      "t": 101917.70799999959,
      "d": 410.95849999999336,
      "v": 76
    },
    {
      "midi": 55,
      "hit": false,
      "t": 101917.70799999959,
      "d": 410.95849999999336,
      "v": 84
    },
    {
      "midi": 55,
      "hit": false,
      "t": 102739.62499999958,
      "d": 308.21887500000594,
      "v": 82
    },
    {
      "midi": 36,
      "hit": false,
      "t": 103150.58349999959,
      "d": 410.95849999999336,
      "v": 72
    },
    {
      "midi": 52,
      "hit": false,
      "t": 103561.54199999958,
      "d": 616.4377499999973,
      "v": 88
    },
    {
      "midi": 56,
      "hit": false,
      "t": 103561.54199999958,
      "d": 616.4377499999973,
      "v": 80
    },
    {
      "midi": 59,
      "hit": false,
      "t": 103561.54199999958,
      "d": 616.4377499999973,
      "v": 82
    },
    {
      "midi": 52,
      "hit": false,
      "t": 104383.45899999958,
      "d": 410.95849999999336,
      "v": 85
    },
    {
      "midi": 56,
      "hit": false,
      "t": 104383.45899999958,
      "d": 410.95849999999336,
      "v": 78
    },
    {
      "midi": 59,
      "hit": false,
      "t": 104383.45899999958,
      "d": 410.95849999999336,
      "v": 85
    },
    {
      "midi": 40,
      "hit": false,
      "t": 104794.41749999957,
      "d": 410.95849999999336,
      "v": 52
    },
    {
      "midi": 53,
      "hit": false,
      "t": 105205.37599999957,
      "d": 616.4377499999973,
      "v": 82
    },
    {
      "midi": 57,
      "hit": false,
      "t": 105205.37599999957,
      "d": 616.4377499999973,
      "v": 76
    },
    {
      "midi": 60,
      "hit": false,
      "t": 105205.37599999957,
      "d": 616.4377499999973,
      "v": 77
    },
    {
      "midi": 72,
      "hit": false,
      "t": 105616.33449999985,
      "d": 410.95849999999336,
      "v": 103
    },
    {
      "midi": 53,
      "hit": false,
      "t": 106027.29299999957,
      "d": 410.95849999999336,
      "v": 86
    },
    {
      "midi": 57,
      "hit": false,
      "t": 106027.29299999957,
      "d": 410.95849999999336,
      "v": 79
    },
    {
      "midi": 60,
      "hit": false,
      "t": 106027.29299999957,
      "d": 410.95849999999336,
      "v": 84
    },
    {
      "midi": 72,
      "hit": false,
      "t": 106027.29299999985,
      "d": 410.95849999999336,
      "v": 103
    },
    {
      "midi": 41,
      "hit": false,
      "t": 106438.25149999956,
      "d": 410.95849999999336,
      "v": 66
    },
    {
      "midi": 72,
      "hit": false,
      "t": 106438.25149999984,
      "d": 410.95849999999336,
      "v": 106
    },
    {
      "midi": 55,
      "hit": false,
      "t": 106849.20999999956,
      "d": 410.95849999999336,
      "v": 73
    },
    {
      "midi": 59,
      "hit": false,
      "t": 106849.20999999956,
      "d": 410.95849999999336,
      "v": 74
    },
    {
      "midi": 62,
      "hit": false,
      "t": 106849.20999999956,
      "d": 410.95849999999336,
      "v": 70
    },
    {
      "midi": 71,
      "hit": false,
      "t": 106849.20999999983,
      "d": 616.4377499999973,
      "v": 94
    },
    {
      "midi": 72,
      "hit": false,
      "t": 107465.64774999983,
      "d": 205.47925000000396,
      "v": 85
    },
    {
      "midi": 55,
      "hit": false,
      "t": 107671.12699999954,
      "d": 410.95849999999336,
      "v": 70
    },
    {
      "midi": 59,
      "hit": false,
      "t": 107671.12699999954,
      "d": 410.95849999999336,
      "v": 63
    },
    {
      "midi": 62,
      "hit": false,
      "t": 107671.12699999954,
      "d": 410.95849999999336,
      "v": 66
    },
    {
      "midi": 69,
      "hit": false,
      "t": 107671.12699999983,
      "d": 410.95849999999336,
      "v": 100
    },
    {
      "midi": 43,
      "hit": false,
      "t": 108082.08549999954,
      "d": 410.95849999999336,
      "v": 62
    },
    {
      "midi": 71,
      "hit": false,
      "t": 108082.08549999983,
      "d": 410.95849999999336,
      "v": 94
    },
    {
      "midi": 57,
      "hit": false,
      "t": 108493.04399999953,
      "d": 410.95849999999336,
      "v": 70
    },
    {
      "midi": 60,
      "hit": false,
      "t": 108493.04399999953,
      "d": 410.95849999999336,
      "v": 70
    },
    {
      "midi": 64,
      "hit": false,
      "t": 108493.04399999953,
      "d": 410.95849999999336,
      "v": 68
    },
    {
      "midi": 72,
      "hit": false,
      "t": 108493.04399999982,
      "d": 410.95849999999336,
      "v": 103
    },
    {
      "midi": 69,
      "hit": false,
      "t": 108904.00249999981,
      "d": 2465.751000000004,
      "v": 85
    },
    {
      "midi": 57,
      "hit": false,
      "t": 109314.96099999952,
      "d": 410.95849999999336,
      "v": 86
    },
    {
      "midi": 60,
      "hit": false,
      "t": 109314.96099999952,
      "d": 410.95849999999336,
      "v": 79
    },
    {
      "midi": 64,
      "hit": false,
      "t": 109314.96099999952,
      "d": 410.95849999999336,
      "v": 79
    },
    {
      "midi": 45,
      "hit": false,
      "t": 109725.91949999951,
      "d": 410.95849999999336,
      "v": 76
    },
    {
      "midi": 55,
      "hit": false,
      "t": 110136.8779999995,
      "d": 616.4377499999973,
      "v": 68
    },
    {
      "midi": 60,
      "hit": false,
      "t": 110136.8779999995,
      "d": 616.4377499999973,
      "v": 80
    },
    {
      "midi": 64,
      "hit": false,
      "t": 110136.8779999995,
      "d": 616.4377499999973,
      "v": 71
    },
    {
      "midi": 55,
      "hit": false,
      "t": 110958.7949999995,
      "d": 410.95849999999336,
      "v": 68
    },
    {
      "midi": 60,
      "hit": false,
      "t": 110958.7949999995,
      "d": 410.95849999999336,
      "v": 77
    },
    {
      "midi": 64,
      "hit": false,
      "t": 110958.7949999995,
      "d": 410.95849999999336,
      "v": 70
    },
    {
      "midi": 43,
      "hit": false,
      "t": 111369.7534999995,
      "d": 410.95849999999336,
      "v": 68
    },
    {
      "midi": 57,
      "hit": false,
      "t": 111780.71199999949,
      "d": 616.4377499999973,
      "v": 68
    },
    {
      "midi": 53,
      "hit": false,
      "t": 112602.62899999949,
      "d": 410.95849999999336,
      "v": 76
    },
    {
      "midi": 57,
      "hit": false,
      "t": 112602.62899999949,
      "d": 410.95849999999336,
      "v": 76
    },
    {
      "midi": 69,
      "hit": false,
      "t": 112602.62899999981,
      "d": 410.95849999999336,
      "v": 82
    },
    {
      "midi": 72,
      "hit": false,
      "t": 113013.5874999998,
      "d": 410.95849999999336,
      "v": 110
    },
    {
      "midi": 50,
      "hit": false,
      "t": 113424.54599999948,
      "d": 616.4377499999973,
      "v": 72
    },
    {
      "midi": 55,
      "hit": false,
      "t": 113424.54599999948,
      "d": 616.4377499999973,
      "v": 76
    },
    {
      "midi": 59,
      "hit": false,
      "t": 113424.54599999948,
      "d": 616.4377499999973,
      "v": 78
    },
    {
      "midi": 74,
      "hit": false,
      "t": 113424.5459999998,
      "d": 616.4377499999973,
      "v": 92
    },
    {
      "midi": 76,
      "hit": false,
      "t": 114040.9837499998,
      "d": 205.47925000000396,
      "v": 84
    },
    {
      "midi": 59,
      "hit": false,
      "t": 114246.46299999948,
      "d": 308.21887500000594,
      "v": 70
    },
    {
      "midi": 72,
      "hit": false,
      "t": 114246.4629999998,
      "d": 410.95849999999336,
      "v": 113
    },
    {
      "midi": 43,
      "hit": false,
      "t": 114657.42149999949,
      "d": 410.95849999999336,
      "v": 68
    },
    {
      "midi": 74,
      "hit": false,
      "t": 114657.4214999998,
      "d": 410.95849999999336,
      "v": 106
    },
    {
      "midi": 36,
      "hit": false,
      "t": 115068.37999999948,
      "d": 821.9170000000013,
      "v": 81
    },
    {
      "midi": 48,
      "hit": false,
      "t": 115068.37999999948,
      "d": 821.9170000000013,
      "v": 75
    },
    {
      "midi": 52,
      "hit": false,
      "t": 115068.37999999948,
      "d": 821.9170000000013,
      "v": 79
    },
    {
      "midi": 72,
      "hit": false,
      "t": 115068.37999999979,
      "d": 3287.668000000005,
      "v": 103
    },
    {
      "midi": 43,
      "hit": false,
      "t": 115890.29699999948,
      "d": 821.9170000000013,
      "v": 86
    },
    {
      "midi": 55,
      "hit": false,
      "t": 115890.29699999948,
      "d": 821.9170000000013,
      "v": 90
    },
    {
      "midi": 45,
      "hit": false,
      "t": 116712.21399999948,
      "d": 821.9170000000013,
      "v": 96
    },
    {
      "midi": 57,
      "hit": false,
      "t": 116712.21399999948,
      "d": 821.9170000000013,
      "v": 101
    },
    {
      "midi": 47,
      "hit": false,
      "t": 117636.87062499949,
      "d": 616.4377499999973,
      "v": 78
    },
    {
      "midi": 59,
      "hit": false,
      "t": 117636.87062499949,
      "d": 616.4377499999973,
      "v": 90
    },
    {
      "midi": 36,
      "hit": false,
      "t": 118356.04799999949,
      "d": 102.73962500000198,
      "v": 60
    },
    {
      "midi": 52,
      "hit": false,
      "t": 118356.04799999949,
      "d": 102.73962500000198,
      "v": 62
    },
    {
      "midi": 55,
      "hit": false,
      "t": 118356.04799999949,
      "d": 102.73962500000198,
      "v": 61
    },
    {
      "midi": 60,
      "hit": false,
      "t": 118458.78762499949,
      "d": 308.21887500000594,
      "v": 76
    },
    {
      "midi": 48,
      "hit": false,
      "t": 118767.0064999995,
      "d": 410.95849999999336,
      "v": 48
    },
    {
      "midi": 64,
      "hit": false,
      "t": 118767.00649999978,
      "d": 410.95849999999336,
      "v": 103
    },
    {
      "midi": 55,
      "hit": false,
      "t": 119177.96499999949,
      "d": 410.95849999999336,
      "v": 68
    },
    {
      "midi": 67,
      "hit": false,
      "t": 119177.96499999978,
      "d": 410.95849999999336,
      "v": 100
    },
    {
      "midi": 36,
      "hit": false,
      "t": 119588.92349999948,
      "d": 410.95849999999336,
      "v": 58
    },
    {
      "midi": 64,
      "hit": false,
      "t": 119588.92349999977,
      "d": 410.95849999999336,
      "v": 103
    },
    {
      "midi": 55,
      "hit": false,
      "t": 119999.88199999947,
      "d": 410.95849999999336,
      "v": 63
    },
    {
      "midi": 67,
      "hit": false,
      "t": 119999.88199999976,
      "d": 821.9170000000013,
      "v": 113
    },
    {
      "midi": 36,
      "hit": false,
      "t": 120513.58012499947,
      "d": 308.21887500000594,
      "v": 26
    },
    {
      "midi": 55,
      "hit": false,
      "t": 120821.79899999948,
      "d": 410.95849999999336,
      "v": 63
    },
    {
      "midi": 59,
      "hit": false,
      "t": 120821.79899999948,
      "d": 410.95849999999336,
      "v": 58
    },
    {
      "midi": 71,
      "hit": false,
      "t": 120821.79899999977,
      "d": 410.95849999999336,
      "v": 100
    },
    {
      "midi": 36,
      "hit": false,
      "t": 121232.75749999947,
      "d": 410.95849999999336,
      "v": 55
    },
    {
      "midi": 71,
      "hit": false,
      "t": 121232.75749999976,
      "d": 410.95849999999336,
      "v": 100
    },
    {
      "midi": 57,
      "hit": false,
      "t": 121643.71599999946,
      "d": 410.95849999999336,
      "v": 62
    },
    {
      "midi": 48,
      "hit": false,
      "t": 122054.67449999946,
      "d": 410.95849999999336,
      "v": 30
    },
    {
      "midi": 69,
      "hit": false,
      "t": 122054.67449999975,
      "d": 2465.751000000004,
      "v": 127
    },
    {
      "midi": 57,
      "hit": false,
      "t": 122465.63299999945,
      "d": 410.95849999999336,
      "v": 63
    },
    {
      "midi": 41,
      "hit": false,
      "t": 122876.59149999944,
      "d": 410.95849999999336,
      "v": 54
    },
    {
      "midi": 57,
      "hit": false,
      "t": 123287.54999999944,
      "d": 410.95849999999336,
      "v": 57
    },
    {
      "midi": 41,
      "hit": false,
      "t": 123698.50849999943,
      "d": 410.95849999999336,
      "v": 65
    },
    {
      "midi": 48,
      "hit": false,
      "t": 124109.46699999942,
      "d": 205.47925000000396,
      "v": 50
    },
    {
      "midi": 53,
      "hit": false,
      "t": 124109.46699999942,
      "d": 205.47925000000396,
      "v": 63
    },
    {
      "midi": 57,
      "hit": false,
      "t": 124109.46699999942,
      "d": 205.47925000000396,
      "v": 63
    },
    {
      "midi": 53,
      "hit": false,
      "t": 124314.94624999943,
      "d": 205.47925000000396,
      "v": 62
    },
    {
      "midi": 58,
      "hit": false,
      "t": 124314.94624999943,
      "d": 205.47925000000396,
      "v": 65
    },
    {
      "midi": 59,
      "hit": false,
      "t": 124520.42549999943,
      "d": 410.95849999999336,
      "v": 68
    },
    {
      "midi": 52,
      "hit": false,
      "t": 124931.38399999942,
      "d": 410.95849999999336,
      "v": 72
    },
    {
      "midi": 55,
      "hit": false,
      "t": 124931.38399999942,
      "d": 410.95849999999336,
      "v": 76
    },
    {
      "midi": 48,
      "hit": false,
      "t": 125342.34249999942,
      "d": 410.95849999999336,
      "v": 56
    },
    {
      "midi": 64,
      "hit": false,
      "t": 125342.34249999975,
      "d": 410.95849999999336,
      "v": 106
    },
    {
      "midi": 55,
      "hit": false,
      "t": 125753.30099999941,
      "d": 410.95849999999336,
      "v": 72
    },
    {
      "midi": 67,
      "hit": false,
      "t": 125753.30099999974,
      "d": 410.95849999999336,
      "v": 103
    },
    {
      "midi": 36,
      "hit": false,
      "t": 126164.2594999994,
      "d": 410.95849999999336,
      "v": 58
    },
    {
      "midi": 64,
      "hit": false,
      "t": 126164.25949999974,
      "d": 410.95849999999336,
      "v": 103
    },
    {
      "midi": 55,
      "hit": false,
      "t": 126575.2179999994,
      "d": 410.95849999999336,
      "v": 67
    },
    {
      "midi": 67,
      "hit": false,
      "t": 126575.21799999973,
      "d": 821.9170000000013,
      "v": 106
    },
    {
      "midi": 36,
      "hit": false,
      "t": 126986.17649999939,
      "d": 410.95849999999336,
      "v": 58
    },
    {
      "midi": 55,
      "hit": false,
      "t": 127397.13499999938,
      "d": 410.95849999999336,
      "v": 70
    },
    {
      "midi": 59,
      "hit": false,
      "t": 127397.13499999938,
      "d": 410.95849999999336,
      "v": 65
    },
    {
      "midi": 71,
      "hit": false,
      "t": 127397.13499999973,
      "d": 410.95849999999336,
      "v": 87
    },
    {
      "midi": 36,
      "hit": false,
      "t": 127808.09349999938,
      "d": 410.95849999999336,
      "v": 58
    },
    {
      "midi": 69,
      "hit": false,
      "t": 127808.09349999973,
      "d": 410.95849999999336,
      "v": 106
    },
    {
      "midi": 57,
      "hit": false,
      "t": 128219.05199999937,
      "d": 410.95849999999336,
      "v": 66
    },
    {
      "midi": 48,
      "hit": false,
      "t": 128630.01049999936,
      "d": 410.95849999999336,
      "v": 64
    },
    {
      "midi": 57,
      "hit": false,
      "t": 129040.96899999936,
      "d": 410.95849999999336,
      "v": 72
    },
    {
      "midi": 41,
      "hit": false,
      "t": 129451.92749999935,
      "d": 410.95849999999336,
      "v": 68
    },
    {
      "midi": 57,
      "hit": false,
      "t": 129862.88599999934,
      "d": 410.95849999999336,
      "v": 73
    },
    {
      "midi": 41,
      "hit": false,
      "t": 130273.84449999934,
      "d": 410.95849999999336,
      "v": 68
    },
    {
      "midi": 57,
      "hit": false,
      "t": 130684.80299999933,
      "d": 102.73962500000198,
      "v": 66
    },
    {
      "midi": 58,
      "hit": false,
      "t": 130890.28224999933,
      "d": 205.4792499999894,
      "v": 66
    },
    {
      "midi": 59,
      "hit": false,
      "t": 131095.76149999932,
      "d": 410.9585000000079,
      "v": 65
    },
    {
      "midi": 52,
      "hit": false,
      "t": 131506.71999999933,
      "d": 410.9585000000079,
      "v": 70
    },
    {
      "midi": 55,
      "hit": false,
      "t": 131506.71999999933,
      "d": 410.9585000000079,
      "v": 76
    },
    {
      "midi": 48,
      "hit": false,
      "t": 131917.67849999934,
      "d": 410.9585000000079,
      "v": 52
    },
    {
      "midi": 64,
      "hit": false,
      "t": 131917.67849999972,
      "d": 410.9585000000079,
      "v": 77
    },
    {
      "midi": 52,
      "hit": false,
      "t": 132328.63699999935,
      "d": 410.9585000000079,
      "v": 66
    },
    {
      "midi": 55,
      "hit": false,
      "t": 132328.63699999935,
      "d": 410.9585000000079,
      "v": 70
    },
    {
      "midi": 67,
      "hit": false,
      "t": 132328.63699999973,
      "d": 410.9585000000079,
      "v": 106
    },
    {
      "midi": 36,
      "hit": false,
      "t": 132739.59549999936,
      "d": 410.9585000000079,
      "v": 60
    },
    {
      "midi": 64,
      "hit": false,
      "t": 132739.59549999973,
      "d": 410.9585000000079,
      "v": 103
    },
    {
      "midi": 52,
      "hit": false,
      "t": 133150.55399999936,
      "d": 410.9585000000079,
      "v": 59
    },
    {
      "midi": 55,
      "hit": false,
      "t": 133150.55399999936,
      "d": 410.9585000000079,
      "v": 65
    },
    {
      "midi": 67,
      "hit": false,
      "t": 133150.55399999974,
      "d": 821.9169999999867,
      "v": 110
    },
    {
      "midi": 36,
      "hit": false,
      "t": 133561.51249999937,
      "d": 410.9585000000079,
      "v": 58
    },
    {
      "midi": 59,
      "hit": false,
      "t": 133972.47099999938,
      "d": 410.9585000000079,
      "v": 67
    },
    {
      "midi": 71,
      "hit": false,
      "t": 133972.47099999973,
      "d": 410.9585000000079,
      "v": 90
    },
    {
      "midi": 36,
      "hit": false,
      "t": 134383.4294999994,
      "d": 410.9585000000079,
      "v": 51
    },
    {
      "midi": 71,
      "hit": false,
      "t": 134383.42949999974,
      "d": 410.9585000000079,
      "v": 103
    },
    {
      "midi": 57,
      "hit": false,
      "t": 134794.3879999994,
      "d": 410.9585000000079,
      "v": 68
    },
    {
      "midi": 48,
      "hit": false,
      "t": 135205.3464999994,
      "d": 410.9585000000079,
      "v": 55
    },
    {
      "midi": 69,
      "hit": false,
      "t": 135205.34649999975,
      "d": 2465.7509999999893,
      "v": 118
    },
    {
      "midi": 57,
      "hit": false,
      "t": 135616.3049999994,
      "d": 410.9585000000079,
      "v": 72
    },
    {
      "midi": 41,
      "hit": false,
      "t": 136027.26349999942,
      "d": 410.9585000000079,
      "v": 61
    },
    {
      "midi": 57,
      "hit": false,
      "t": 136438.22199999943,
      "d": 410.9585000000079,
      "v": 68
    },
    {
      "midi": 41,
      "hit": false,
      "t": 136849.18049999943,
      "d": 410.9585000000079,
      "v": 66
    },
    {
      "midi": 57,
      "hit": false,
      "t": 137260.13899999944,
      "d": 102.73962499998743,
      "v": 63
    },
    {
      "midi": 58,
      "hit": false,
      "t": 137465.61824999942,
      "d": 205.47925000000396,
      "v": 42
    },
    {
      "midi": 59,
      "hit": false,
      "t": 137671.09749999942,
      "d": 410.9585000000079,
      "v": 76
    },
    {
      "midi": 52,
      "hit": false,
      "t": 138082.05599999943,
      "d": 410.9585000000079,
      "v": 70
    },
    {
      "midi": 55,
      "hit": false,
      "t": 138082.05599999943,
      "d": 410.9585000000079,
      "v": 76
    },
    {
      "midi": 48,
      "hit": false,
      "t": 138493.01449999944,
      "d": 410.9585000000079,
      "v": 62
    },
    {
      "midi": 64,
      "hit": false,
      "t": 138493.01449999973,
      "d": 410.9585000000079,
      "v": 106
    },
    {
      "midi": 52,
      "hit": false,
      "t": 138903.97299999945,
      "d": 410.9585000000079,
      "v": 65
    },
    {
      "midi": 55,
      "hit": false,
      "t": 138903.97299999945,
      "d": 410.9585000000079,
      "v": 75
    },
    {
      "midi": 67,
      "hit": false,
      "t": 138903.97299999974,
      "d": 410.9585000000079,
      "v": 103
    },
    {
      "midi": 36,
      "hit": false,
      "t": 139314.93149999945,
      "d": 410.9585000000079,
      "v": 62
    },
    {
      "midi": 64,
      "hit": false,
      "t": 139314.93149999974,
      "d": 410.9585000000079,
      "v": 103
    },
    {
      "midi": 55,
      "hit": false,
      "t": 139725.88999999946,
      "d": 410.9585000000079,
      "v": 72
    },
    {
      "midi": 67,
      "hit": false,
      "t": 139725.88999999975,
      "d": 821.9169999999867,
      "v": 113
    },
    {
      "midi": 36,
      "hit": false,
      "t": 140136.84849999947,
      "d": 410.9585000000079,
      "v": 66
    },
    {
      "midi": 55,
      "hit": false,
      "t": 140547.80699999948,
      "d": 410.9585000000079,
      "v": 70
    },
    {
      "midi": 59,
      "hit": false,
      "t": 140547.80699999948,
      "d": 410.9585000000079,
      "v": 68
    },
    {
      "midi": 71,
      "hit": false,
      "t": 140547.80699999974,
      "d": 410.9585000000079,
      "v": 90
    },
    {
      "midi": 36,
      "hit": false,
      "t": 140958.76549999948,
      "d": 410.9585000000079,
      "v": 68
    },
    {
      "midi": 69,
      "hit": false,
      "t": 140958.76549999975,
      "d": 410.9585000000079,
      "v": 122
    },
    {
      "midi": 57,
      "hit": false,
      "t": 141369.7239999995,
      "d": 410.9585000000079,
      "v": 70
    },
    {
      "midi": 48,
      "hit": false,
      "t": 141780.6824999995,
      "d": 410.9585000000079,
      "v": 64
    },
    {
      "midi": 57,
      "hit": false,
      "t": 142191.6409999995,
      "d": 410.9585000000079,
      "v": 73
    },
    {
      "midi": 41,
      "hit": false,
      "t": 142602.59949999952,
      "d": 410.9585000000079,
      "v": 63
    },
    {
      "midi": 57,
      "hit": false,
      "t": 143013.55799999952,
      "d": 410.9585000000079,
      "v": 70
    },
    {
      "midi": 41,
      "hit": false,
      "t": 143424.51649999953,
      "d": 410.9585000000079,
      "v": 68
    },
    {
      "midi": 53,
      "hit": false,
      "t": 143835.47499999954,
      "d": 102.73962499998743,
      "v": 63
    },
    {
      "midi": 57,
      "hit": false,
      "t": 143835.47499999954,
      "d": 102.73962499998743,
      "v": 66
    },
    {
      "midi": 53,
      "hit": false,
      "t": 144040.95424999952,
      "d": 205.47925000000396,
      "v": 55
    },
    {
      "midi": 59,
      "hit": false,
      "t": 144246.43349999952,
      "d": 410.9585000000079,
      "v": 72
    },
    {
      "midi": 53,
      "hit": false,
      "t": 144657.39199999953,
      "d": 410.9585000000079,
      "v": 66
    },
    {
      "midi": 57,
      "hit": false,
      "t": 144657.39199999953,
      "d": 410.9585000000079,
      "v": 76
    },
    {
      "midi": 60,
      "hit": false,
      "t": 144657.39199999953,
      "d": 410.9585000000079,
      "v": 67
    },
    {
      "midi": 69,
      "hit": false,
      "t": 145068.35049999977,
      "d": 410.9585000000079,
      "v": 85
    },
    {
      "midi": 53,
      "hit": false,
      "t": 145479.30899999954,
      "d": 410.9585000000079,
      "v": 80
    },
    {
      "midi": 57,
      "hit": false,
      "t": 145479.30899999954,
      "d": 410.9585000000079,
      "v": 69
    },
    {
      "midi": 60,
      "hit": false,
      "t": 145479.30899999954,
      "d": 410.9585000000079,
      "v": 68
    },
    {
      "midi": 72,
      "hit": false,
      "t": 145479.30899999978,
      "d": 410.9585000000079,
      "v": 103
    },
    {
      "midi": 41,
      "hit": false,
      "t": 145890.26749999955,
      "d": 410.9585000000079,
      "v": 72
    },
    {
      "midi": 69,
      "hit": false,
      "t": 145890.26749999978,
      "d": 410.9585000000079,
      "v": 90
    },
    {
      "midi": 57,
      "hit": false,
      "t": 146301.22599999956,
      "d": 410.9585000000079,
      "v": 81
    },
    {
      "midi": 60,
      "hit": false,
      "t": 146301.22599999956,
      "d": 410.9585000000079,
      "v": 72
    },
    {
      "midi": 72,
      "hit": false,
      "t": 146301.2259999998,
      "d": 821.9169999999867,
      "v": 106
    },
    {
      "midi": 52,
      "hit": false,
      "t": 147123.14299999957,
      "d": 410.9585000000079,
      "v": 69
    },
    {
      "midi": 57,
      "hit": false,
      "t": 147123.14299999957,
      "d": 410.9585000000079,
      "v": 60
    },
    {
      "midi": 60,
      "hit": false,
      "t": 147123.14299999957,
      "d": 410.9585000000079,
      "v": 70
    },
    {
      "midi": 76,
      "hit": false,
      "t": 147123.14299999978,
      "d": 410.9585000000079,
      "v": 87
    },
    {
      "midi": 40,
      "hit": false,
      "t": 147534.10149999958,
      "d": 410.9585000000079,
      "v": 60
    },
    {
      "midi": 76,
      "hit": false,
      "t": 147534.1014999998,
      "d": 410.9585000000079,
      "v": 127
    },
    {
      "midi": 50,
      "hit": false,
      "t": 147945.0599999996,
      "d": 410.9585000000079,
      "v": 66
    },
    {
      "midi": 53,
      "hit": false,
      "t": 147945.0599999996,
      "d": 410.9585000000079,
      "v": 72
    },
    {
      "midi": 57,
      "hit": false,
      "t": 147945.0599999996,
      "d": 410.9585000000079,
      "v": 77
    },
    {
      "midi": 74,
      "hit": false,
      "t": 148356.0184999998,
      "d": 205.47925000000396,
      "v": 100
    },
    {
      "midi": 72,
      "hit": false,
      "t": 148561.4977499998,
      "d": 205.47925000000396,
      "v": 103
    },
    {
      "midi": 50,
      "hit": false,
      "t": 148766.9769999996,
      "d": 410.9585000000079,
      "v": 72
    },
    {
      "midi": 53,
      "hit": false,
      "t": 148766.9769999996,
      "d": 410.9585000000079,
      "v": 78
    },
    {
      "midi": 57,
      "hit": false,
      "t": 148766.9769999996,
      "d": 410.9585000000079,
      "v": 78
    },
    {
      "midi": 69,
      "hit": false,
      "t": 148766.9769999998,
      "d": 2465.7509999999893,
      "v": 100
    },
    {
      "midi": 38,
      "hit": false,
      "t": 149177.9354999996,
      "d": 410.9585000000079,
      "v": 70
    },
    {
      "midi": 53,
      "hit": false,
      "t": 149588.89399999962,
      "d": 410.9585000000079,
      "v": 77
    },
    {
      "midi": 57,
      "hit": false,
      "t": 149588.89399999962,
      "d": 410.9585000000079,
      "v": 76
    },
    {
      "midi": 57,
      "hit": false,
      "t": 150410.81099999964,
      "d": 410.9585000000079,
      "v": 75
    },
    {
      "midi": 36,
      "hit": false,
      "t": 150821.76949999965,
      "d": 410.9585000000079,
      "v": 63
    },
    {
      "midi": 55,
      "hit": false,
      "t": 151232.72799999965,
      "d": 410.9585000000079,
      "v": 71
    },
    {
      "midi": 59,
      "hit": false,
      "t": 151232.72799999965,
      "d": 410.9585000000079,
      "v": 72
    },
    {
      "midi": 62,
      "hit": false,
      "t": 151232.72799999965,
      "d": 410.9585000000079,
      "v": 68
    },
    {
      "midi": 71,
      "hit": false,
      "t": 151232.7279999998,
      "d": 410.9585000000079,
      "v": 100
    },
    {
      "midi": 71,
      "hit": false,
      "t": 151643.6864999998,
      "d": 1232.8754999999946,
      "v": 110
    },
    {
      "midi": 55,
      "hit": false,
      "t": 152054.64499999967,
      "d": 410.9585000000079,
      "v": 80
    },
    {
      "midi": 59,
      "hit": false,
      "t": 152054.64499999967,
      "d": 410.9585000000079,
      "v": 76
    },
    {
      "midi": 62,
      "hit": false,
      "t": 152054.64499999967,
      "d": 410.9585000000079,
      "v": 76
    },
    {
      "midi": 43,
      "hit": false,
      "t": 152465.60349999968,
      "d": 410.9585000000079,
      "v": 45
    },
    {
      "midi": 62,
      "hit": false,
      "t": 152876.56199999969,
      "d": 410.9585000000079,
      "v": 75
    },
    {
      "midi": 71,
      "hit": false,
      "t": 152876.5619999998,
      "d": 821.9169999999867,
      "v": 97
    },
    {
      "midi": 43,
      "hit": false,
      "t": 153287.5204999997,
      "d": 410.9585000000079,
      "v": 66
    },
    {
      "midi": 62,
      "hit": false,
      "t": 153698.4789999997,
      "d": 410.9585000000079,
      "v": 72
    },
    {
      "midi": 72,
      "hit": false,
      "t": 153698.4789999998,
      "d": 410.9585000000079,
      "v": 97
    },
    {
      "midi": 43,
      "hit": false,
      "t": 154109.4374999997,
      "d": 410.9585000000079,
      "v": 72
    },
    {
      "midi": 74,
      "hit": false,
      "t": 154109.4374999998,
      "d": 410.9585000000079,
      "v": 90
    },
    {
      "midi": 59,
      "hit": false,
      "t": 154520.39599999972,
      "d": 410.9585000000079,
      "v": 70
    },
    {
      "midi": 62,
      "hit": false,
      "t": 154520.39599999972,
      "d": 410.9585000000079,
      "v": 60
    },
    {
      "midi": 67,
      "hit": false,
      "t": 154520.39599999972,
      "d": 410.9585000000079,
      "v": 68
    },
    {
      "midi": 76,
      "hit": false,
      "t": 156164.2299999998,
      "d": 410.9585000000079,
      "v": 106
    },
    {
      "midi": 79,
      "hit": false,
      "t": 156575.18849999981,
      "d": 821.9169999999867,
      "v": 113
    },
    {
      "midi": 76,
      "hit": false,
      "t": 157397.1054999998,
      "d": 205.47925000000396,
      "v": 92
    },
    {
      "midi": 74,
      "hit": false,
      "t": 157602.5847499998,
      "d": 205.47925000000396,
      "v": 68
    },
    {
      "midi": 53,
      "hit": false,
      "t": 157808.06399999972,
      "d": 821.9169999999867,
      "v": 66
    },
    {
      "midi": 57,
      "hit": false,
      "t": 157808.06399999972,
      "d": 821.9169999999867,
      "v": 76
    },
    {
      "midi": 60,
      "hit": false,
      "t": 157808.06399999972,
      "d": 821.9169999999867,
      "v": 68
    },
    {
      "midi": 72,
      "hit": false,
      "t": 157808.0639999998,
      "d": 821.9169999999867,
      "v": 94
    },
    {
      "midi": 53,
      "hit": false,
      "t": 158629.9809999997,
      "d": 410.9585000000079,
      "v": 81
    },
    {
      "midi": 57,
      "hit": false,
      "t": 158629.9809999997,
      "d": 410.9585000000079,
      "v": 73
    },
    {
      "midi": 60,
      "hit": false,
      "t": 158629.9809999997,
      "d": 410.9585000000079,
      "v": 71
    },
    {
      "midi": 71,
      "hit": false,
      "t": 158835.4602499998,
      "d": 205.47925000000396,
      "v": 53
    },
    {
      "midi": 41,
      "hit": false,
      "t": 159040.93949999972,
      "d": 410.9585000000079,
      "v": 72
    },
    {
      "midi": 72,
      "hit": false,
      "t": 159040.9394999998,
      "d": 410.9585000000079,
      "v": 103
    },
    {
      "midi": 55,
      "hit": false,
      "t": 159451.89799999972,
      "d": 410.9585000000079,
      "v": 71
    },
    {
      "midi": 59,
      "hit": false,
      "t": 159451.89799999972,
      "d": 410.9585000000079,
      "v": 72
    },
    {
      "midi": 62,
      "hit": false,
      "t": 159451.89799999972,
      "d": 410.9585000000079,
      "v": 65
    },
    {
      "midi": 71,
      "hit": false,
      "t": 159451.8979999998,
      "d": 616.4377500000119,
      "v": 92
    },
    {
      "midi": 71,
      "hit": false,
      "t": 160068.33574999982,
      "d": 205.47925000000396,
      "v": 78
    },
    {
      "midi": 62,
      "hit": false,
      "t": 160273.81499999974,
      "d": 410.9585000000079,
      "v": 66
    },
    {
      "midi": 69,
      "hit": false,
      "t": 160273.81499999983,
      "d": 410.9585000000079,
      "v": 87
    },
    {
      "midi": 43,
      "hit": false,
      "t": 160684.77349999975,
      "d": 410.9585000000079,
      "v": 61
    },
    {
      "midi": 71,
      "hit": false,
      "t": 160684.77349999984,
      "d": 410.9585000000079,
      "v": 100
    },
    {
      "midi": 48,
      "hit": false,
      "t": 161095.73199999976,
      "d": 410.9585000000079,
      "v": 66
    },
    {
      "midi": 52,
      "hit": false,
      "t": 161095.73199999976,
      "d": 410.9585000000079,
      "v": 76
    },
    {
      "midi": 55,
      "hit": false,
      "t": 161095.73199999976,
      "d": 410.9585000000079,
      "v": 76
    },
    {
      "midi": 72,
      "hit": false,
      "t": 161095.73199999984,
      "d": 410.9585000000079,
      "v": 118
    },
    {
      "midi": 67,
      "hit": false,
      "t": 161506.69049999985,
      "d": 2465.7509999999893,
      "v": 78
    },
    {
      "midi": 55,
      "hit": false,
      "t": 161917.64899999977,
      "d": 205.47925000000396,
      "v": 74
    },
    {
      "midi": 36,
      "hit": false,
      "t": 162225.86787499976,
      "d": 410.9585000000079,
      "v": 63
    },
    {
      "midi": 56,
      "hit": false,
      "t": 162739.56599999976,
      "d": 821.9169999999867,
      "v": 75
    },
    {
      "midi": 59,
      "hit": false,
      "t": 162739.56599999976,
      "d": 821.9169999999867,
      "v": 76
    },
    {
      "midi": 56,
      "hit": false,
      "t": 163561.48299999975,
      "d": 410.9585000000079,
      "v": 67
    },
    {
      "midi": 59,
      "hit": false,
      "t": 163561.48299999975,
      "d": 410.9585000000079,
      "v": 72
    },
    {
      "midi": 50,
      "hit": false,
      "t": 163972.44149999975,
      "d": 410.9585000000079,
      "v": 56
    },
    {
      "midi": 53,
      "hit": false,
      "t": 164383.39999999976,
      "d": 410.9585000000079,
      "v": 82
    },
    {
      "midi": 57,
      "hit": false,
      "t": 164383.39999999976,
      "d": 410.9585000000079,
      "v": 80
    },
    {
      "midi": 60,
      "hit": false,
      "t": 164383.39999999976,
      "d": 410.9585000000079,
      "v": 82
    },
    {
      "midi": 53,
      "hit": false,
      "t": 165205.31699999978,
      "d": 410.9585000000079,
      "v": 80
    },
    {
      "midi": 57,
      "hit": false,
      "t": 165205.31699999978,
      "d": 410.9585000000079,
      "v": 72
    },
    {
      "midi": 60,
      "hit": false,
      "t": 165205.31699999978,
      "d": 410.9585000000079,
      "v": 76
    },
    {
      "midi": 72,
      "hit": false,
      "t": 165205.31699999984,
      "d": 410.9585000000079,
      "v": 110
    },
    {
      "midi": 41,
      "hit": false,
      "t": 165616.27549999979,
      "d": 410.9585000000079,
      "v": 71
    },
    {
      "midi": 72,
      "hit": false,
      "t": 165616.27549999984,
      "d": 410.9585000000079,
      "v": 97
    },
    {
      "midi": 55,
      "hit": false,
      "t": 166027.2339999998,
      "d": 410.9585000000079,
      "v": 73
    },
    {
      "midi": 59,
      "hit": false,
      "t": 166027.2339999998,
      "d": 410.9585000000079,
      "v": 76
    },
    {
      "midi": 62,
      "hit": false,
      "t": 166027.2339999998,
      "d": 410.9585000000079,
      "v": 66
    },
    {
      "midi": 71,
      "hit": false,
      "t": 166027.23399999985,
      "d": 410.9585000000079,
      "v": 97
    },
    {
      "midi": 71,
      "hit": false,
      "t": 166438.19249999986,
      "d": 205.47925000000396,
      "v": 69
    },
    {
      "midi": 69,
      "hit": false,
      "t": 166643.67174999986,
      "d": 410.9585000000079,
      "v": 94
    },
    {
      "midi": 55,
      "hit": false,
      "t": 166849.1509999998,
      "d": 410.9585000000079,
      "v": 78
    },
    {
      "midi": 59,
      "hit": false,
      "t": 166849.1509999998,
      "d": 410.9585000000079,
      "v": 71
    },
    {
      "midi": 62,
      "hit": false,
      "t": 166849.1509999998,
      "d": 410.9585000000079,
      "v": 73
    },
    {
      "midi": 69,
      "hit": false,
      "t": 167054.63024999987,
      "d": 205.47925000000396,
      "v": 62
    },
    {
      "midi": 43,
      "hit": false,
      "t": 167260.10949999982,
      "d": 410.9585000000079,
      "v": 74
    },
    {
      "midi": 64,
      "hit": false,
      "t": 167260.10949999987,
      "d": 410.9585000000079,
      "v": 103
    },
    {
      "midi": 48,
      "hit": false,
      "t": 167671.06799999982,
      "d": 410.9585000000079,
      "v": 72
    },
    {
      "midi": 52,
      "hit": false,
      "t": 167671.06799999982,
      "d": 410.9585000000079,
      "v": 76
    },
    {
      "midi": 55,
      "hit": false,
      "t": 167671.06799999982,
      "d": 410.9585000000079,
      "v": 84
    },
    {
      "midi": 55,
      "hit": false,
      "t": 168492.98499999984,
      "d": 308.2188749999914,
      "v": 82
    },
    {
      "midi": 36,
      "hit": false,
      "t": 168903.94349999982,
      "d": 410.9585000000079,
      "v": 72
    },
    {
      "midi": 52,
      "hit": false,
      "t": 169314.90199999983,
      "d": 616.4377500000119,
      "v": 88
    },
    {
      "midi": 56,
      "hit": false,
      "t": 169314.90199999983,
      "d": 616.4377500000119,
      "v": 80
    },
    {
      "midi": 59,
      "hit": false,
      "t": 169314.90199999983,
      "d": 616.4377500000119,
      "v": 82
    },
    {
      "midi": 52,
      "hit": false,
      "t": 170136.81899999984,
      "d": 410.9585000000079,
      "v": 85
    },
    {
      "midi": 56,
      "hit": false,
      "t": 170136.81899999984,
      "d": 410.9585000000079,
      "v": 78
    },
    {
      "midi": 59,
      "hit": false,
      "t": 170136.81899999984,
      "d": 410.9585000000079,
      "v": 85
    },
    {
      "midi": 40,
      "hit": false,
      "t": 170547.77749999985,
      "d": 410.9585000000079,
      "v": 52
    },
    {
      "midi": 53,
      "hit": false,
      "t": 170958.73599999986,
      "d": 616.4377500000119,
      "v": 82
    },
    {
      "midi": 57,
      "hit": false,
      "t": 170958.73599999986,
      "d": 616.4377500000119,
      "v": 76
    },
    {
      "midi": 60,
      "hit": false,
      "t": 170958.73599999986,
      "d": 616.4377500000119,
      "v": 77
    },
    {
      "midi": 72,
      "hit": false,
      "t": 171369.6944999999,
      "d": 410.9585000000079,
      "v": 87
    },
    {
      "midi": 53,
      "hit": false,
      "t": 171780.65299999987,
      "d": 410.9585000000079,
      "v": 86
    },
    {
      "midi": 57,
      "hit": false,
      "t": 171780.65299999987,
      "d": 410.9585000000079,
      "v": 79
    },
    {
      "midi": 60,
      "hit": false,
      "t": 171780.65299999987,
      "d": 410.9585000000079,
      "v": 84
    },
    {
      "midi": 72,
      "hit": false,
      "t": 171780.6529999999,
      "d": 410.9585000000079,
      "v": 97
    },
    {
      "midi": 41,
      "hit": false,
      "t": 172191.61149999988,
      "d": 410.9585000000079,
      "v": 66
    },
    {
      "midi": 72,
      "hit": false,
      "t": 172191.6114999999,
      "d": 410.9585000000079,
      "v": 94
    },
    {
      "midi": 55,
      "hit": false,
      "t": 172602.5699999999,
      "d": 410.9585000000079,
      "v": 73
    },
    {
      "midi": 59,
      "hit": false,
      "t": 172602.5699999999,
      "d": 410.9585000000079,
      "v": 74
    },
    {
      "midi": 62,
      "hit": false,
      "t": 172602.5699999999,
      "d": 410.9585000000079,
      "v": 70
    },
    {
      "midi": 71,
      "hit": false,
      "t": 172602.56999999992,
      "d": 616.4377500000119,
      "v": 127
    },
    {
      "midi": 72,
      "hit": false,
      "t": 173219.00774999993,
      "d": 205.47925000000396,
      "v": 92
    },
    {
      "midi": 55,
      "hit": false,
      "t": 173424.4869999999,
      "d": 410.9585000000079,
      "v": 70
    },
    {
      "midi": 59,
      "hit": false,
      "t": 173424.4869999999,
      "d": 410.9585000000079,
      "v": 63
    },
    {
      "midi": 62,
      "hit": false,
      "t": 173424.4869999999,
      "d": 410.9585000000079,
      "v": 66
    },
    {
      "midi": 69,
      "hit": false,
      "t": 173424.48699999994,
      "d": 410.9585000000079,
      "v": 100
    },
    {
      "midi": 43,
      "hit": false,
      "t": 173835.4454999999,
      "d": 410.9585000000079,
      "v": 62
    },
    {
      "midi": 71,
      "hit": false,
      "t": 173835.44549999994,
      "d": 410.9585000000079,
      "v": 106
    },
    {
      "midi": 57,
      "hit": false,
      "t": 174246.40399999992,
      "d": 410.9585000000079,
      "v": 70
    },
    {
      "midi": 60,
      "hit": false,
      "t": 174246.40399999992,
      "d": 410.9585000000079,
      "v": 70
    },
    {
      "midi": 64,
      "hit": false,
      "t": 174246.40399999992,
      "d": 410.9585000000079,
      "v": 68
    },
    {
      "midi": 72,
      "hit": false,
      "t": 174246.40399999995,
      "d": 616.4377500000119,
      "v": 106
    },
    {
      "midi": 69,
      "hit": false,
      "t": 174862.84174999996,
      "d": 821.9169999999867,
      "v": 92
    },
    {
      "midi": 57,
      "hit": false,
      "t": 175068.32099999994,
      "d": 410.9585000000079,
      "v": 86
    },
    {
      "midi": 60,
      "hit": false,
      "t": 175068.32099999994,
      "d": 410.9585000000079,
      "v": 79
    },
    {
      "midi": 64,
      "hit": false,
      "t": 175068.32099999994,
      "d": 410.9585000000079,
      "v": 79
    },
    {
      "midi": 45,
      "hit": false,
      "t": 175479.27949999995,
      "d": 410.9585000000079,
      "v": 76
    },
    {
      "midi": 72,
      "hit": false,
      "t": 175890.23799999995,
      "d": 205.47925000000396,
      "v": 84
    },
    {
      "midi": 55,
      "hit": false,
      "t": 175890.23799999995,
      "d": 616.4377500000119,
      "v": 68
    },
    {
      "midi": 60,
      "hit": false,
      "t": 175890.23799999995,
      "d": 616.4377500000119,
      "v": 80
    },
    {
      "midi": 64,
      "hit": false,
      "t": 175890.23799999995,
      "d": 616.4377500000119,
      "v": 71
    },
    {
      "midi": 74,
      "hit": false,
      "t": 176095.71724999996,
      "d": 205.47925000000396,
      "v": 70
    },
    {
      "midi": 76,
      "hit": false,
      "t": 176301.19649999996,
      "d": 1232.8754999999946,
      "v": 113
    },
    {
      "midi": 55,
      "hit": false,
      "t": 176712.15499999997,
      "d": 410.9585000000079,
      "v": 68
    },
    {
      "midi": 60,
      "hit": false,
      "t": 176712.15499999997,
      "d": 410.9585000000079,
      "v": 77
    },
    {
      "midi": 64,
      "hit": false,
      "t": 176712.15499999997,
      "d": 410.9585000000079,
      "v": 70
    },
    {
      "midi": 43,
      "hit": false,
      "t": 177123.11349999998,
      "d": 410.9585000000079,
      "v": 68
    },
    {
      "midi": 57,
      "hit": false,
      "t": 177534.072,
      "d": 616.4377500000119,
      "v": 68
    },
    {
      "midi": 53,
      "hit": false,
      "t": 178355.989,
      "d": 410.9585000000079,
      "v": 76
    },
    {
      "midi": 57,
      "hit": false,
      "t": 178355.989,
      "d": 410.9585000000079,
      "v": 76
    },
    {
      "midi": 69,
      "hit": false,
      "t": 178561.46824999995,
      "d": 205.47925000000396,
      "v": 92
    },
    {
      "midi": 72,
      "hit": false,
      "t": 178766.94749999995,
      "d": 410.9585000000079,
      "v": 103
    },
    {
      "midi": 74,
      "hit": false,
      "t": 179177.90599999996,
      "d": 616.4377500000119,
      "v": 97
    },
    {
      "midi": 50,
      "hit": false,
      "t": 179177.90600000002,
      "d": 616.4377500000119,
      "v": 72
    },
    {
      "midi": 55,
      "hit": false,
      "t": 179177.90600000002,
      "d": 616.4377500000119,
      "v": 76
    },
    {
      "midi": 59,
      "hit": false,
      "t": 179177.90600000002,
      "d": 616.4377500000119,
      "v": 78
    },
    {
      "midi": 76,
      "hit": false,
      "t": 179794.34374999997,
      "d": 205.47925000000396,
      "v": 87
    },
    {
      "midi": 72,
      "hit": false,
      "t": 179999.82299999997,
      "d": 410.9585000000079,
      "v": 90
    },
    {
      "midi": 59,
      "hit": false,
      "t": 179999.82300000003,
      "d": 308.2188749999914,
      "v": 70
    },
    {
      "midi": 74,
      "hit": false,
      "t": 180410.78149999998,
      "d": 410.9585000000079,
      "v": 87
    },
    {
      "midi": 43,
      "hit": false,
      "t": 180410.7815,
      "d": 410.9585000000079,
      "v": 68
    },
    {
      "midi": 72,
      "hit": false,
      "t": 180821.74,
      "d": 821.9169999999867,
      "v": 110
    },
    {
      "midi": 36,
      "hit": false,
      "t": 180821.74000000002,
      "d": 1643.8340000000026,
      "v": 81
    },
    {
      "midi": 48,
      "hit": false,
      "t": 180821.74000000002,
      "d": 1643.8340000000026,
      "v": 75
    },
    {
      "midi": 52,
      "hit": false,
      "t": 180821.74000000002,
      "d": 1643.8340000000026,
      "v": 79
    },
    {
      "midi": 55,
      "hit": false,
      "t": 180821.74000000002,
      "d": 1643.8340000000026,
      "v": 84
    }
  ]
}