{
  "jsonPath": "Rock/Album Rock/John Lennon/watching-the-wheels.json",
  "path": "Rock\\Album Rock\\John Lennon\\Watching The Wheels.mid",
  "name": "Watching The Wheels",
  "difficulty": "Advanced",
  "bpm": 80,
  "notes": [
    {
      "midi": 60,
      "hit": false,
      "t": 3100,
      "d": 2966.666666666666,
      "v": 127
    },
    {
      "midi": 48,
      "hit": false,
      "t": 3126.6666666666665,
      "d": 3073.3333333333326,
      "v": 127
    },
    {
      "midi": 64,
      "hit": false,
      "t": 3173.333333333333,
      "d": 2853.333333333333,
      "v": 127
    },
    {
      "midi": 43,
      "hit": false,
      "t": 3199.9999999999995,
      "d": 3153.3333333333335,
      "v": 90
    },
    {
      "midi": 52,
      "hit": false,
      "t": 3200,
      "d": 2180,
      "v": 127
    },
    {
      "midi": 60,
      "hit": false,
      "t": 3200,
      "d": 2853.333333333334,
      "v": 90
    },
    {
      "midi": 52,
      "hit": false,
      "t": 3206.6666666666665,
      "d": 2826.6666666666665,
      "v": 69
    },
    {
      "midi": 48,
      "hit": false,
      "t": 3213.333333333333,
      "d": 2846.666666666667,
      "v": 69
    },
    {
      "midi": 64,
      "hit": false,
      "t": 3220,
      "d": 2786.666666666667,
      "v": 90
    },
    {
      "midi": 66,
      "hit": false,
      "t": 3233.3333333333335,
      "d": 20,
      "v": 90
    },
    {
      "midi": 67,
      "hit": false,
      "t": 3246.666666666666,
      "d": 2780,
      "v": 127
    },
    {
      "midi": 48,
      "hit": false,
      "t": 5200,
      "d": 306.66666666666697,
      "v": 127
    },
    {
      "midi": 51,
      "hit": false,
      "t": 5400,
      "d": 353.33333333333303,
      "v": 127
    },
    {
      "midi": 52,
      "hit": false,
      "t": 5600,
      "d": 353.33333333333303,
      "v": 127
    },
    {
      "midi": 48,
      "hit": false,
      "t": 5800,
      "d": 260.0000000000009,
      "v": 127
    },
    {
      "midi": 51,
      "hit": false,
      "t": 6000,
      "d": 226.66666666666788,
      "v": 127
    },
    {
      "midi": 52,
      "hit": false,
      "t": 6200.000000000001,
      "d": 233.33333333333303,
      "v": 127
    },
    {
      "midi": 60,
      "hit": false,
      "t": 6306.666666666666,
      "d": 2886.666666666668,
      "v": 127
    },
    {
      "midi": 41,
      "hit": false,
      "t": 6353.333333333333,
      "d": 3220.000000000001,
      "v": 90
    },
    {
      "midi": 60,
      "hit": false,
      "t": 6353.333333333335,
      "d": 2346.666666666667,
      "v": 90
    },
    {
      "midi": 53,
      "hit": false,
      "t": 6366.666666666666,
      "d": 3153.3333333333358,
      "v": 127
    },
    {
      "midi": 65,
      "hit": false,
      "t": 6366.666666666668,
      "d": 2300,
      "v": 90
    },
    {
      "midi": 53,
      "hit": false,
      "t": 6380,
      "d": 2713.333333333334,
      "v": 69
    },
    {
      "midi": 48,
      "hit": false,
      "t": 6380,
      "d": 2820,
      "v": 69
    },
    {
      "midi": 65,
      "hit": false,
      "t": 6386.666666666666,
      "d": 2733.333333333334,
      "v": 127
    },
    {
      "midi": 53,
      "hit": false,
      "t": 6400.000000000001,
      "d": 573.333333333333,
      "v": 127
    },
    {
      "midi": 69,
      "hit": false,
      "t": 6426.666666666666,
      "d": 2673.333333333334,
      "v": 127
    },
    {
      "midi": 52,
      "hit": false,
      "t": 7000.000000000001,
      "d": 660,
      "v": 127
    },
    {
      "midi": 48,
      "hit": false,
      "t": 7600.000000000001,
      "d": 1220.000000000001,
      "v": 127
    },
    {
      "midi": 60,
      "hit": false,
      "t": 8800.000000000002,
      "d": 673.3333333333339,
      "v": 90
    },
    {
      "midi": 53,
      "hit": false,
      "t": 8800.000000000002,
      "d": 820,
      "v": 127
    },
    {
      "midi": 65,
      "hit": false,
      "t": 8813.333333333336,
      "d": 646.6666666666661,
      "v": 90
    },
    {
      "midi": 60,
      "hit": false,
      "t": 9486.666666666668,
      "d": 2919.999999999998,
      "v": 127
    },
    {
      "midi": 48,
      "hit": false,
      "t": 9500.000000000002,
      "d": 3233.333333333332,
      "v": 127
    },
    {
      "midi": 64,
      "hit": false,
      "t": 9566.666666666668,
      "d": 2813.333333333332,
      "v": 127
    },
    {
      "midi": 43,
      "hit": false,
      "t": 9593.333333333334,
      "d": 3166.666666666666,
      "v": 90
    },
    {
      "midi": 52,
      "hit": false,
      "t": 9593.333333333334,
      "d": 2860,
      "v": 69
    },
    {
      "midi": 48,
      "hit": false,
      "t": 9600,
      "d": 2980,
      "v": 69
    },
    {
      "midi": 52,
      "hit": false,
      "t": 9600.000000000002,
      "d": 2126.666666666666,
      "v": 127
    },
    {
      "midi": 64,
      "hit": false,
      "t": 9600.000000000002,
      "d": 2826.666666666666,
      "v": 90
    },
    {
      "midi": 60,
      "hit": false,
      "t": 9600.000000000002,
      "d": 2860,
      "v": 90
    },
    {
      "midi": 67,
      "hit": false,
      "t": 9613.333333333334,
      "d": 2760,
      "v": 127
    },
    {
      "midi": 48,
      "hit": false,
      "t": 11600.000000000002,
      "d": 273.33333333333394,
      "v": 127
    },
    {
      "midi": 51,
      "hit": false,
      "t": 11800.000000000002,
      "d": 266.66666666666606,
      "v": 127
    },
    {
      "midi": 52,
      "hit": false,
      "t": 12000.000000000002,
      "d": 280,
      "v": 127
    },
    {
      "midi": 48,
      "hit": false,
      "t": 12200.000000000002,
      "d": 280,
      "v": 127
    },
    {
      "midi": 51,
      "hit": false,
      "t": 12400.000000000002,
      "d": 240,
      "v": 127
    },
    {
      "midi": 52,
      "hit": false,
      "t": 12600.000000000002,
      "d": 306.66666666666606,
      "v": 127
    },
    {
      "midi": 60,
      "hit": false,
      "t": 12680,
      "d": 3133.333333333334,
      "v": 127
    },
    {
      "midi": 53,
      "hit": false,
      "t": 12740,
      "d": 3113.333333333334,
      "v": 127
    },
    {
      "midi": 65,
      "hit": false,
      "t": 12760,
      "d": 3073.333333333334,
      "v": 127
    },
    {
      "midi": 60,
      "hit": false,
      "t": 12760.000000000002,
      "d": 2220,
      "v": 90
    },
    {
      "midi": 65,
      "hit": false,
      "t": 12773.333333333336,
      "d": 2186.666666666666,
      "v": 90
    },
    {
      "midi": 41,
      "hit": false,
      "t": 12780,
      "d": 2926.666666666668,
      "v": 90
    },
    {
      "midi": 53,
      "hit": false,
      "t": 12780,
      "d": 2506.666666666666,
      "v": 69
    },
    {
      "midi": 48,
      "hit": false,
      "t": 12786.666666666666,
      "d": 2600,
      "v": 69
    },
    {
      "midi": 53,
      "hit": false,
      "t": 12800.000000000002,
      "d": 600,
      "v": 127
    },
    {
      "midi": 69,
      "hit": false,
      "t": 12853.333333333334,
      "d": 2953.333333333334,
      "v": 127
    },
    {
      "midi": 52,
      "hit": false,
      "t": 13400.000000000002,
      "d": 800,
      "v": 127
    },
    {
      "midi": 48,
      "hit": false,
      "t": 14000.000000000002,
      "d": 1140,
      "v": 127
    },
    {
      "midi": 65,
      "hit": false,
      "t": 15193.333333333336,
      "d": 660,
      "v": 90
    },
    {
      "midi": 60,
      "hit": false,
      "t": 15193.333333333336,
      "d": 666.6666666666661,
      "v": 90
    },
    {
      "midi": 53,
      "hit": false,
      "t": 15200.000000000002,
      "d": 786.6666666666661,
      "v": 127
    },
    {
      "midi": 48,
      "hit": false,
      "t": 15980,
      "d": 2373.333333333332,
      "v": 69
    },
    {
      "midi": 52,
      "hit": false,
      "t": 15986.666666666666,
      "d": 2313.333333333334,
      "v": 69
    },
    {
      "midi": 43,
      "hit": false,
      "t": 15999.999999999998,
      "d": 2879.999999999998,
      "v": 90
    },
    {
      "midi": 52,
      "hit": false,
      "t": 16000.000000000002,
      "d": 2019.9999999999982,
      "v": 127
    },
    {
      "midi": 60,
      "hit": false,
      "t": 16019.999999999998,
      "d": 2799.999999999998,
      "v": 127
    },
    {
      "midi": 48,
      "hit": false,
      "t": 16073.333333333332,
      "d": 2926.6666666666642,
      "v": 127
    },
    {
      "midi": 64,
      "hit": false,
      "t": 16086.666666666666,
      "d": 2699.999999999998,
      "v": 127
    },
    {
      "midi": 67,
      "hit": false,
      "t": 16186.666666666666,
      "d": 2546.666666666666,
      "v": 127
    },
    {
      "midi": 48,
      "hit": false,
      "t": 18000,
      "d": 260,
      "v": 127
    },
    {
      "midi": 51,
      "hit": false,
      "t": 18200,
      "d": 193.33333333333212,
      "v": 127
    },
    {
      "midi": 52,
      "hit": false,
      "t": 18400,
      "d": 226.66666666666788,
      "v": 127
    },
    {
      "midi": 48,
      "hit": false,
      "t": 18600,
      "d": 240,
      "v": 127
    },
    {
      "midi": 51,
      "hit": false,
      "t": 18800,
      "d": 206.66666666666788,
      "v": 127
    },
    {
      "midi": 52,
      "hit": false,
      "t": 19000,
      "d": 240,
      "v": 127
    },
    {
      "midi": 60,
      "hit": false,
      "t": 19146.666666666664,
      "d": 2853.3333333333358,
      "v": 127
    },
    {
      "midi": 65,
      "hit": false,
      "t": 19153.333333333332,
      "d": 2820,
      "v": 127
    },
    {
      "midi": 41,
      "hit": false,
      "t": 19153.333333333332,
      "d": 2966.666666666668,
      "v": 90
    },
    {
      "midi": 53,
      "hit": false,
      "t": 19160,
      "d": 3240.0000000000036,
      "v": 127
    },
    {
      "midi": 69,
      "hit": false,
      "t": 19173.333333333332,
      "d": 2766.666666666668,
      "v": 127
    },
    {
      "midi": 48,
      "hit": false,
      "t": 19173.333333333332,
      "d": 1020,
      "v": 69
    },
    {
      "midi": 53,
      "hit": false,
      "t": 19180,
      "d": 1026.6666666666642,
      "v": 69
    },
    {
      "midi": 53,
      "hit": false,
      "t": 19200,
      "d": 593.3333333333321,
      "v": 127
    },
    {
      "midi": 52,
      "hit": false,
      "t": 19800,
      "d": 640,
      "v": 127
    },
    {
      "midi": 48,
      "hit": false,
      "t": 20400,
      "d": 1280,
      "v": 127
    },
    {
      "midi": 53,
      "hit": false,
      "t": 21600,
      "d": 773.3333333333321,
      "v": 127
    },
    {
      "midi": 60,
      "hit": false,
      "t": 22346.666666666668,
      "d": 5126.6666666666715,
      "v": 127
    },
    {
      "midi": 48,
      "hit": false,
      "t": 22366.666666666664,
      "d": 3186.6666666666642,
      "v": 69
    },
    {
      "midi": 64,
      "hit": false,
      "t": 22373.333333333336,
      "d": 3106.666666666668,
      "v": 127
    },
    {
      "midi": 52,
      "hit": false,
      "t": 22379.999999999996,
      "d": 3153.333333333332,
      "v": 69
    },
    {
      "midi": 48,
      "hit": false,
      "t": 22380.000000000004,
      "d": 3086.666666666668,
      "v": 127
    },
    {
      "midi": 43,
      "hit": false,
      "t": 22380.000000000004,
      "d": 3193.3333333333358,
      "v": 90
    },
    {
      "midi": 67,
      "hit": false,
      "t": 22393.333333333336,
      "d": 2993.3333333333358,
      "v": 127
    },
    {
      "midi": 52,
      "hit": false,
      "t": 22400,
      "d": 2026.6666666666679,
      "v": 127
    },
    {
      "midi": 48,
      "hit": false,
      "t": 24400,
      "d": 266.6666666666679,
      "v": 127
    },
    {
      "midi": 51,
      "hit": false,
      "t": 24600,
      "d": 160,
      "v": 127
    },
    {
      "midi": 52,
      "hit": false,
      "t": 24800,
      "d": 213.33333333333212,
      "v": 127
    },
    {
      "midi": 48,
      "hit": false,
      "t": 25000,
      "d": 260,
      "v": 127
    },
    {
      "midi": 51,
      "hit": false,
      "t": 25200,
      "d": 213.33333333333212,
      "v": 127
    },
    {
      "midi": 52,
      "hit": false,
      "t": 25400,
      "d": 200,
      "v": 127
    },
    {
      "midi": 48,
      "hit": false,
      "t": 25546.66666666667,
      "d": 866.6666666666679,
      "v": 127
    },
    {
      "midi": 64,
      "hit": false,
      "t": 25553.33333333334,
      "d": 3140.0000000000036,
      "v": 127
    },
    {
      "midi": 67,
      "hit": false,
      "t": 25560.000000000007,
      "d": 3080,
      "v": 127
    },
    {
      "midi": 36,
      "hit": false,
      "t": 25580.000000000007,
      "d": 280,
      "v": 90
    },
    {
      "midi": 48,
      "hit": false,
      "t": 25600,
      "d": 406.6666666666679,
      "v": 127
    },
    {
      "midi": 48,
      "hit": false,
      "t": 25973.33333333333,
      "d": 160,
      "v": 69
    },
    {
      "midi": 36,
      "hit": false,
      "t": 25973.33333333334,
      "d": 220,
      "v": 90
    },
    {
      "midi": 52,
      "hit": false,
      "t": 25979.999999999996,
      "d": 133.33333333333212,
      "v": 69
    },
    {
      "midi": 51,
      "hit": false,
      "t": 26000,
      "d": 146.66666666666788,
      "v": 127
    },
    {
      "midi": 52,
      "hit": false,
      "t": 26000,
      "d": 726.6666666666679,
      "v": 127
    },
    {
      "midi": 48,
      "hit": false,
      "t": 26766.66666666666,
      "d": 1813.3333333333321,
      "v": 69
    },
    {
      "midi": 48,
      "hit": false,
      "t": 26793.33333333334,
      "d": 726.6666666666679,
      "v": 90
    },
    {
      "midi": 52,
      "hit": false,
      "t": 26799.999999999993,
      "d": 1693.3333333333321,
      "v": 69
    },
    {
      "midi": 48,
      "hit": false,
      "t": 26800,
      "d": 1873.3333333333321,
      "v": 127
    },
    {
      "midi": 36,
      "hit": false,
      "t": 26800.000000000007,
      "d": 633.3333333333321,
      "v": 90
    },
    {
      "midi": 36,
      "hit": false,
      "t": 27526.666666666675,
      "d": 1140,
      "v": 90
    },
    {
      "midi": 60,
      "hit": false,
      "t": 27620.000000000007,
      "d": 1080.0000000000036,
      "v": 127
    },
    {
      "midi": 48,
      "hit": false,
      "t": 28440.000000000007,
      "d": 333.33333333333576,
      "v": 127
    },
    {
      "midi": 52,
      "hit": false,
      "t": 28800,
      "d": 2020,
      "v": 127
    },
    {
      "midi": 60,
      "hit": false,
      "t": 28800.00000000001,
      "d": 2926.6666666666715,
      "v": 127
    },
    {
      "midi": 36,
      "hit": false,
      "t": 28820.00000000001,
      "d": 1153.3333333333358,
      "v": 90
    },
    {
      "midi": 48,
      "hit": false,
      "t": 28820.00000000001,
      "d": 2613.3333333333358,
      "v": 127
    },
    {
      "midi": 64,
      "hit": false,
      "t": 28820.00000000001,
      "d": 2860.0000000000036,
      "v": 127
    },
    {
      "midi": 67,
      "hit": false,
      "t": 28826.66666666668,
      "d": 2800.0000000000036,
      "v": 127
    },
    {
      "midi": 48,
      "hit": false,
      "t": 29966.66666666666,
      "d": 893.3333333333321,
      "v": 69
    },
    {
      "midi": 43,
      "hit": false,
      "t": 29966.66666666668,
      "d": 1720.0000000000036,
      "v": 90
    },
    {
      "midi": 52,
      "hit": false,
      "t": 30779.999999999993,
      "d": 793.3333333333321,
      "v": 69
    },
    {
      "midi": 48,
      "hit": false,
      "t": 30800,
      "d": 260,
      "v": 127
    },
    {
      "midi": 51,
      "hit": false,
      "t": 31000,
      "d": 193.33333333333212,
      "v": 127
    },
    {
      "midi": 52,
      "hit": false,
      "t": 31200,
      "d": 226.66666666666788,
      "v": 127
    },
    {
      "midi": 48,
      "hit": false,
      "t": 31400,
      "d": 240,
      "v": 127
    },
    {
      "midi": 48,
      "hit": false,
      "t": 31573.333333333325,
      "d": 306.6666666666679,
      "v": 69
    },
    {
      "midi": 48,
      "hit": false,
      "t": 31580.000000000015,
      "d": 433.33333333333576,
      "v": 127
    },
    {
      "midi": 51,
      "hit": false,
      "t": 31600,
      "d": 206.66666666666788,
      "v": 127
    },
    {
      "midi": 52,
      "hit": false,
      "t": 31800,
      "d": 240,
      "v": 127
    },
    {
      "midi": 60,
      "hit": false,
      "t": 31933.33333333335,
      "d": 3053.3333333333358,
      "v": 127
    },
    {
      "midi": 48,
      "hit": false,
      "t": 31959.999999999993,
      "d": 2760,
      "v": 69
    },
    {
      "midi": 53,
      "hit": false,
      "t": 31966.66666666666,
      "d": 2686.666666666668,
      "v": 69
    },
    {
      "midi": 65,
      "hit": false,
      "t": 31966.666666666682,
      "d": 2806.666666666668,
      "v": 127
    },
    {
      "midi": 53,
      "hit": false,
      "t": 31973.33333333335,
      "d": 2280,
      "v": 127
    },
    {
      "midi": 69,
      "hit": false,
      "t": 31986.666666666682,
      "d": 2746.666666666668,
      "v": 127
    },
    {
      "midi": 43,
      "hit": false,
      "t": 31993.33333333335,
      "d": 40,
      "v": 90
    },
    {
      "midi": 53,
      "hit": false,
      "t": 32000,
      "d": 593.3333333333321,
      "v": 127
    },
    {
      "midi": 41,
      "hit": false,
      "t": 32000.00000000002,
      "d": 3159.9999999999964,
      "v": 90
    },
    {
      "midi": 52,
      "hit": false,
      "t": 32600,
      "d": 640,
      "v": 127
    },
    {
      "midi": 48,
      "hit": false,
      "t": 33200,
      "d": 1280,
      "v": 127
    },
    {
      "midi": 53,
      "hit": false,
      "t": 34400,
      "d": 773.3333333333358,
      "v": 127
    },
    {
      "midi": 53,
      "hit": false,
      "t": 34413.33333333335,
      "d": 740,
      "v": 127
    },
    {
      "midi": 48,
      "hit": false,
      "t": 35153.33333333333,
      "d": 3173.3333333333285,
      "v": 69
    },
    {
      "midi": 52,
      "hit": false,
      "t": 35159.99999999999,
      "d": 3220,
      "v": 69
    },
    {
      "midi": 43,
      "hit": false,
      "t": 35166.66666666668,
      "d": 3186.6666666666642,
      "v": 90
    },
    {
      "midi": 60,
      "hit": false,
      "t": 35186.66666666668,
      "d": 3419.9999999999927,
      "v": 127
    },
    {
      "midi": 48,
      "hit": false,
      "t": 35193.33333333334,
      "d": 2340,
      "v": 127
    },
    {
      "midi": 52,
      "hit": false,
      "t": 35200,
      "d": 2026.6666666666642,
      "v": 127
    },
    {
      "midi": 67,
      "hit": false,
      "t": 35213.33333333334,
      "d": 3440,
      "v": 127
    },
    {
      "midi": 64,
      "hit": false,
      "t": 35220.00000000001,
      "d": 3420,
      "v": 127
    },
    {
      "midi": 48,
      "hit": false,
      "t": 37200,
      "d": 266.66666666666424,
      "v": 127
    },
    {
      "midi": 51,
      "hit": false,
      "t": 37400,
      "d": 160,
      "v": 127
    },
    {
      "midi": 52,
      "hit": false,
      "t": 37600,
      "d": 213.33333333333576,
      "v": 127
    },
    {
      "midi": 48,
      "hit": false,
      "t": 37606.66666666668,
      "d": 700,
      "v": 127
    },
    {
      "midi": 48,
      "hit": false,
      "t": 37800,
      "d": 260,
      "v": 127
    },
    {
      "midi": 51,
      "hit": false,
      "t": 38000,
      "d": 213.33333333333576,
      "v": 127
    },
    {
      "midi": 52,
      "hit": false,
      "t": 38200,
      "d": 200,
      "v": 127
    },
    {
      "midi": 36,
      "hit": false,
      "t": 38373.33333333334,
      "d": 433.3333333333285,
      "v": 90
    },
    {
      "midi": 48,
      "hit": false,
      "t": 38400,
      "d": 406.66666666666424,
      "v": 127
    },
    {
      "midi": 48,
      "hit": false,
      "t": 38400.00000000001,
      "d": 786.6666666666642,
      "v": 127
    },
    {
      "midi": 67,
      "hit": false,
      "t": 38773.33333333334,
      "d": 2333.3333333333285,
      "v": 127
    },
    {
      "midi": 52,
      "hit": false,
      "t": 38799.99999999999,
      "d": 79.99999999999272,
      "v": 69
    },
    {
      "midi": 51,
      "hit": false,
      "t": 38800,
      "d": 146.66666666666424,
      "v": 127
    },
    {
      "midi": 52,
      "hit": false,
      "t": 38800,
      "d": 726.6666666666642,
      "v": 127
    },
    {
      "midi": 48,
      "hit": false,
      "t": 38806.66666666666,
      "d": 66.66666666666424,
      "v": 69
    },
    {
      "midi": 43,
      "hit": false,
      "t": 38820.00000000001,
      "d": 833.3333333333358,
      "v": 90
    },
    {
      "midi": 60,
      "hit": false,
      "t": 38886.66666666667,
      "d": 726.6666666666715,
      "v": 127
    },
    {
      "midi": 52,
      "hit": false,
      "t": 39553.33333333332,
      "d": 1566.6666666666642,
      "v": 69
    },
    {
      "midi": 48,
      "hit": false,
      "t": 39559.999999999985,
      "d": 1760,
      "v": 69
    },
    {
      "midi": 48,
      "hit": false,
      "t": 39600.00000000001,
      "d": 1113.3333333333358,
      "v": 127
    },
    {
      "midi": 36,
      "hit": false,
      "t": 39633.33333333334,
      "d": 713.3333333333358,
      "v": 90
    },
    {
      "midi": 60,
      "hit": false,
      "t": 40366.66666666668,
      "d": 746.666666666657,
      "v": 127
    },
    {
      "midi": 36,
      "hit": false,
      "t": 40420.000000000015,
      "d": 373.3333333333285,
      "v": 90
    },
    {
      "midi": 64,
      "hit": false,
      "t": 40426.66666666668,
      "d": 373.3333333333285,
      "v": 127
    },
    {
      "midi": 48,
      "hit": false,
      "t": 40433.333333333336,
      "d": 420,
      "v": 127
    },
    {
      "midi": 38,
      "hit": false,
      "t": 40786.66666666668,
      "d": 393.3333333333212,
      "v": 90
    },
    {
      "midi": 50,
      "hit": false,
      "t": 40840,
      "d": 373.33333333333576,
      "v": 127
    },
    {
      "midi": 65,
      "hit": false,
      "t": 40840.00000000001,
      "d": 366.66666666665697,
      "v": 127
    },
    {
      "midi": 48,
      "hit": false,
      "t": 40846.66666666667,
      "d": 626.666666666657,
      "v": 127
    },
    {
      "midi": 40,
      "hit": false,
      "t": 41186.666666666664,
      "d": 386.66666666666424,
      "v": 90
    },
    {
      "midi": 67,
      "hit": false,
      "t": 41193.33333333333,
      "d": 360,
      "v": 127
    },
    {
      "midi": 52,
      "hit": false,
      "t": 41220,
      "d": 366.66666666666424,
      "v": 127
    },
    {
      "midi": 53,
      "hit": false,
      "t": 41599.999999999985,
      "d": 600,
      "v": 69
    },
    {
      "midi": 60,
      "hit": false,
      "t": 41599.99999999999,
      "d": 673.3333333333358,
      "v": 127
    },
    {
      "midi": 69,
      "hit": false,
      "t": 41599.99999999999,
      "d": 686.6666666666715,
      "v": 127
    },
    {
      "midi": 65,
      "hit": false,
      "t": 41599.99999999999,
      "d": 720.0000000000073,
      "v": 127
    },
    {
      "midi": 41,
      "hit": false,
      "t": 41599.99999999999,
      "d": 1100.0000000000073,
      "v": 127
    },
    {
      "midi": 69,
      "hit": false,
      "t": 41600,
      "d": 1380,
      "v": 127
    },
    {
      "midi": 65,
      "hit": false,
      "t": 41600,
      "d": 1400,
      "v": 127
    },
    {
      "midi": 48,
      "hit": false,
      "t": 41606.66666666665,
      "d": 606.6666666666715,
      "v": 69
    },
    {
      "midi": 48,
      "hit": false,
      "t": 42379.999999999985,
      "d": 620,
      "v": 69
    },
    {
      "midi": 53,
      "hit": false,
      "t": 42386.66666666665,
      "d": 600,
      "v": 69
    },
    {
      "midi": 60,
      "hit": false,
      "t": 42400,
      "d": 586.6666666666642,
      "v": 127
    },
    {
      "midi": 69,
      "hit": false,
      "t": 42400,
      "d": 593.3333333333285,
      "v": 127
    },
    {
      "midi": 65,
      "hit": false,
      "t": 42400,
      "d": 679.9999999999927,
      "v": 127
    },
    {
      "midi": 41,
      "hit": false,
      "t": 42800,
      "d": 413.3333333333285,
      "v": 127
    },
    {
      "midi": 53,
      "hit": false,
      "t": 43193.33333333332,
      "d": 659.9999999999927,
      "v": 69
    },
    {
      "midi": 50,
      "hit": false,
      "t": 43199.999999999985,
      "d": 646.6666666666642,
      "v": 69
    },
    {
      "midi": 62,
      "hit": false,
      "t": 43199.99999999999,
      "d": 606.6666666666715,
      "v": 127
    },
    {
      "midi": 69,
      "hit": false,
      "t": 43199.99999999999,
      "d": 606.6666666666715,
      "v": 127
    },
    {
      "midi": 65,
      "hit": false,
      "t": 43199.99999999999,
      "d": 706.6666666666715,
      "v": 127
    },
    {
      "midi": 50,
      "hit": false,
      "t": 43199.99999999999,
      "d": 1146.6666666666715,
      "v": 127
    },
    {
      "midi": 65,
      "hit": false,
      "t": 43200,
      "d": 1360,
      "v": 127
    },
    {
      "midi": 62,
      "hit": false,
      "t": 43200,
      "d": 1420,
      "v": 127
    },
    {
      "midi": 53,
      "hit": false,
      "t": 43986.66666666665,
      "d": 386.66666666666424,
      "v": 69
    },
    {
      "midi": 50,
      "hit": false,
      "t": 43993.333333333314,
      "d": 506.66666666666424,
      "v": 69
    },
    {
      "midi": 69,
      "hit": false,
      "t": 44000,
      "d": 446.66666666666424,
      "v": 127
    },
    {
      "midi": 65,
      "hit": false,
      "t": 44000,
      "d": 466.66666666666424,
      "v": 127
    },
    {
      "midi": 62,
      "hit": false,
      "t": 44000,
      "d": 513.3333333333285,
      "v": 127
    },
    {
      "midi": 50,
      "hit": false,
      "t": 44400,
      "d": 399.9999999999927,
      "v": 127
    },
    {
      "midi": 55,
      "hit": false,
      "t": 44773.333333333314,
      "d": 680,
      "v": 69
    },
    {
      "midi": 50,
      "hit": false,
      "t": 44779.99999999998,
      "d": 686.6666666666715,
      "v": 69
    },
    {
      "midi": 62,
      "hit": false,
      "t": 44799.99999999999,
      "d": 733.3333333333358,
      "v": 127
    },
    {
      "midi": 71,
      "hit": false,
      "t": 44799.99999999999,
      "d": 740,
      "v": 127
    },
    {
      "midi": 67,
      "hit": false,
      "t": 44799.99999999999,
      "d": 753.3333333333358,
      "v": 127
    },
    {
      "midi": 43,
      "hit": false,
      "t": 44799.99999999999,
      "d": 1086.6666666666642,
      "v": 127
    },
    {
      "midi": 67,
      "hit": false,
      "t": 44800,
      "d": 1326.6666666666642,
      "v": 127
    },
    {
      "midi": 71,
      "hit": false,
      "t": 44800,
      "d": 1380,
      "v": 127
    },
    {
      "midi": 55,
      "hit": false,
      "t": 45593.333333333314,
      "d": 933.3333333333285,
      "v": 69
    },
    {
      "midi": 50,
      "hit": false,
      "t": 45599.99999999998,
      "d": 1120,
      "v": 69
    },
    {
      "midi": 62,
      "hit": false,
      "t": 45599.99999999999,
      "d": 620,
      "v": 127
    },
    {
      "midi": 71,
      "hit": false,
      "t": 45599.99999999999,
      "d": 640,
      "v": 127
    },
    {
      "midi": 67,
      "hit": false,
      "t": 45599.99999999999,
      "d": 680,
      "v": 127
    },
    {
      "midi": 43,
      "hit": false,
      "t": 45999.99999999999,
      "d": 673.3333333333358,
      "v": 127
    },
    {
      "midi": 62,
      "hit": false,
      "t": 46399.99999999999,
      "d": 633.3333333333358,
      "v": 127
    },
    {
      "midi": 67,
      "hit": false,
      "t": 46399.99999999999,
      "d": 633.3333333333358,
      "v": 127
    },
    {
      "midi": 71,
      "hit": false,
      "t": 46399.99999999999,
      "d": 646.6666666666715,
      "v": 127
    },
    {
      "midi": 69,
      "hit": false,
      "t": 46400,
      "d": 433.33333333333576,
      "v": 127
    },
    {
      "midi": 72,
      "hit": false,
      "t": 46400,
      "d": 440,
      "v": 127
    },
    {
      "midi": 50,
      "hit": false,
      "t": 46773.333333333314,
      "d": 286.66666666666424,
      "v": 69
    },
    {
      "midi": 55,
      "hit": false,
      "t": 46799.99999999998,
      "d": 1020,
      "v": 69
    },
    {
      "midi": 43,
      "hit": false,
      "t": 46799.99999999999,
      "d": 446.6666666666715,
      "v": 127
    },
    {
      "midi": 67,
      "hit": false,
      "t": 47000,
      "d": 420,
      "v": 127
    },
    {
      "midi": 71,
      "hit": false,
      "t": 47000,
      "d": 433.33333333333576,
      "v": 127
    },
    {
      "midi": 45,
      "hit": false,
      "t": 47200,
      "d": 233.33333333333576,
      "v": 127
    },
    {
      "midi": 71,
      "hit": false,
      "t": 47200,
      "d": 520,
      "v": 127
    },
    {
      "midi": 66,
      "hit": false,
      "t": 47200,
      "d": 553.3333333333358,
      "v": 127
    },
    {
      "midi": 62,
      "hit": false,
      "t": 47200,
      "d": 606.6666666666715,
      "v": 127
    },
    {
      "midi": 50,
      "hit": false,
      "t": 47206.66666666664,
      "d": 580,
      "v": 69
    },
    {
      "midi": 47,
      "hit": false,
      "t": 47400,
      "d": 640.0000000000073,
      "v": 127
    },
    {
      "midi": 65,
      "hit": false,
      "t": 47600,
      "d": 306.66666666666424,
      "v": 127
    },
    {
      "midi": 62,
      "hit": false,
      "t": 47600,
      "d": 333.3333333333285,
      "v": 127
    },
    {
      "midi": 53,
      "hit": false,
      "t": 47979.99999999998,
      "d": 613.3333333333358,
      "v": 69
    },
    {
      "midi": 48,
      "hit": false,
      "t": 47993.333333333314,
      "d": 606.6666666666642,
      "v": 69
    },
    {
      "midi": 65,
      "hit": false,
      "t": 47999.99999999999,
      "d": 1520,
      "v": 127
    },
    {
      "midi": 69,
      "hit": false,
      "t": 47999.99999999999,
      "d": 1540,
      "v": 127
    },
    {
      "midi": 69,
      "hit": false,
      "t": 48000.00000000001,
      "d": 566.6666666666642,
      "v": 127
    },
    {
      "midi": 60,
      "hit": false,
      "t": 48000.00000000001,
      "d": 626.6666666666642,
      "v": 127
    },
    {
      "midi": 65,
      "hit": false,
      "t": 48000.00000000001,
      "d": 660,
      "v": 127
    },
    {
      "midi": 41,
      "hit": false,
      "t": 48000.00000000001,
      "d": 1073.3333333333358,
      "v": 127
    },
    {
      "midi": 48,
      "hit": false,
      "t": 48759.99999999998,
      "d": 593.3333333333285,
      "v": 69
    },
    {
      "midi": 53,
      "hit": false,
      "t": 48766.66666666664,
      "d": 633.3333333333285,
      "v": 69
    },
    {
      "midi": 60,
      "hit": false,
      "t": 48800.00000000001,
      "d": 533.3333333333358,
      "v": 127
    },
    {
      "midi": 69,
      "hit": false,
      "t": 48800.00000000001,
      "d": 546.6666666666715,
      "v": 127
    },
    {
      "midi": 65,
      "hit": false,
      "t": 48800.00000000001,
      "d": 620.0000000000073,
      "v": 127
    },
    {
      "midi": 41,
      "hit": false,
      "t": 49200.00000000001,
      "d": 380.0000000000073,
      "v": 127
    },
    {
      "midi": 53,
      "hit": false,
      "t": 49593.33333333331,
      "d": 660,
      "v": 69
    },
    {
      "midi": 50,
      "hit": false,
      "t": 49599.99999999997,
      "d": 640,
      "v": 69
    },
    {
      "midi": 65,
      "hit": false,
      "t": 49599.99999999999,
      "d": 1360,
      "v": 127
    },
    {
      "midi": 62,
      "hit": false,
      "t": 49599.99999999999,
      "d": 1426.6666666666642,
      "v": 127
    },
    {
      "midi": 69,
      "hit": false,
      "t": 49600.000000000015,
      "d": 613.3333333333358,
      "v": 127
    },
    {
      "midi": 62,
      "hit": false,
      "t": 49600.000000000015,
      "d": 620,
      "v": 127
    },
    {
      "midi": 65,
      "hit": false,
      "t": 49600.000000000015,
      "d": 686.6666666666642,
      "v": 127
    },
    {
      "midi": 50,
      "hit": false,
      "t": 49600.000000000015,
      "d": 1120,
      "v": 127
    },
    {
      "midi": 53,
      "hit": false,
      "t": 50393.33333333331,
      "d": 493.3333333333285,
      "v": 69
    },
    {
      "midi": 50,
      "hit": false,
      "t": 50399.99999999997,
      "d": 573.3333333333285,
      "v": 69
    },
    {
      "midi": 69,
      "hit": false,
      "t": 50400.000000000015,
      "d": 493.33333333333576,
      "v": 127
    },
    {
      "midi": 65,
      "hit": false,
      "t": 50400.000000000015,
      "d": 566.6666666666715,
      "v": 127
    },
    {
      "midi": 62,
      "hit": false,
      "t": 50400.000000000015,
      "d": 586.6666666666715,
      "v": 127
    },
    {
      "midi": 50,
      "hit": false,
      "t": 50800.000000000015,
      "d": 373.33333333333576,
      "v": 127
    },
    {
      "midi": 55,
      "hit": false,
      "t": 51186.666666666635,
      "d": 1640.0000000000073,
      "v": 69
    },
    {
      "midi": 50,
      "hit": false,
      "t": 51199.99999999997,
      "d": 1593.3333333333358,
      "v": 69
    },
    {
      "midi": 71,
      "hit": false,
      "t": 51199.99999999999,
      "d": 2993.3333333333358,
      "v": 127
    },
    {
      "midi": 67,
      "hit": false,
      "t": 51199.99999999999,
      "d": 3120,
      "v": 127
    },
    {
      "midi": 62,
      "hit": false,
      "t": 51200.000000000015,
      "d": 640,
      "v": 127
    },
    {
      "midi": 71,
      "hit": false,
      "t": 51200.000000000015,
      "d": 680,
      "v": 127
    },
    {
      "midi": 67,
      "hit": false,
      "t": 51200.000000000015,
      "d": 693.3333333333358,
      "v": 127
    },
    {
      "midi": 43,
      "hit": false,
      "t": 51200.000000000015,
      "d": 1060,
      "v": 127
    },
    {
      "midi": 62,
      "hit": false,
      "t": 52000.000000000015,
      "d": 660,
      "v": 127
    },
    {
      "midi": 71,
      "hit": false,
      "t": 52000.000000000015,
      "d": 673.3333333333358,
      "v": 127
    },
    {
      "midi": 67,
      "hit": false,
      "t": 52000.000000000015,
      "d": 726.6666666666715,
      "v": 127
    },
    {
      "midi": 43,
      "hit": false,
      "t": 52400.000000000015,
      "d": 293.33333333333576,
      "v": 127
    },
    {
      "midi": 71,
      "hit": false,
      "t": 52800.00000000002,
      "d": 740,
      "v": 127
    },
    {
      "midi": 62,
      "hit": false,
      "t": 52800.00000000002,
      "d": 746.6666666666642,
      "v": 127
    },
    {
      "midi": 67,
      "hit": false,
      "t": 52800.00000000002,
      "d": 780,
      "v": 127
    },
    {
      "midi": 43,
      "hit": false,
      "t": 52800.00000000002,
      "d": 1086.6666666666642,
      "v": 127
    },
    {
      "midi": 55,
      "hit": false,
      "t": 53166.66666666664,
      "d": 1173.3333333333358,
      "v": 69
    },
    {
      "midi": 71,
      "hit": false,
      "t": 53600.00000000002,
      "d": 620,
      "v": 127
    },
    {
      "midi": 62,
      "hit": false,
      "t": 53600.00000000002,
      "d": 653.3333333333358,
      "v": 127
    },
    {
      "midi": 67,
      "hit": false,
      "t": 53600.00000000002,
      "d": 673.3333333333358,
      "v": 127
    },
    {
      "midi": 50,
      "hit": false,
      "t": 53859.99999999998,
      "d": 460,
      "v": 69
    },
    {
      "midi": 43,
      "hit": false,
      "t": 54000.00000000002,
      "d": 273.33333333333576,
      "v": 127
    },
    {
      "midi": 67,
      "hit": false,
      "t": 54399.99999999999,
      "d": 1853.3333333333358,
      "v": 127
    },
    {
      "midi": 62,
      "hit": false,
      "t": 54400.00000000002,
      "d": 273.33333333333576,
      "v": 127
    },
    {
      "midi": 67,
      "hit": false,
      "t": 54400.00000000002,
      "d": 673.3333333333358,
      "v": 127
    },
    {
      "midi": 71,
      "hit": false,
      "t": 54400.00000000002,
      "d": 673.3333333333358,
      "v": 127
    },
    {
      "midi": 43,
      "hit": false,
      "t": 54400.00000000002,
      "d": 1060,
      "v": 127
    },
    {
      "midi": 50,
      "hit": false,
      "t": 54406.66666666664,
      "d": 726.6666666666642,
      "v": 69
    },
    {
      "midi": 55,
      "hit": false,
      "t": 54406.66666666664,
      "d": 766.6666666666642,
      "v": 69
    },
    {
      "midi": 67,
      "hit": false,
      "t": 55200.00000000002,
      "d": 1080,
      "v": 127
    },
    {
      "midi": 71,
      "hit": false,
      "t": 55200.00000000002,
      "d": 1100,
      "v": 127
    },
    {
      "midi": 55,
      "hit": false,
      "t": 55226.66666666664,
      "d": 1013.3333333333285,
      "v": 69
    },
    {
      "midi": 50,
      "hit": false,
      "t": 55233.33333333331,
      "d": 1046.6666666666642,
      "v": 69
    },
    {
      "midi": 62,
      "hit": false,
      "t": 55600.00000000002,
      "d": 606.6666666666642,
      "v": 127
    },
    {
      "midi": 43,
      "hit": false,
      "t": 55600.00000000002,
      "d": 706.6666666666642,
      "v": 127
    },
    {
      "midi": 50,
      "hit": false,
      "t": 56333.33333333331,
      "d": 473.33333333333576,
      "v": 69
    },
    {
      "midi": 71,
      "hit": false,
      "t": 56399.99999999999,
      "d": 260,
      "v": 127
    },
    {
      "midi": 67,
      "hit": false,
      "t": 56399.99999999999,
      "d": 280,
      "v": 127
    },
    {
      "midi": 43,
      "hit": false,
      "t": 56400.00000000002,
      "d": 426.66666666666424,
      "v": 127
    },
    {
      "midi": 62,
      "hit": false,
      "t": 56400.00000000002,
      "d": 473.3333333333285,
      "v": 127
    },
    {
      "midi": 71,
      "hit": false,
      "t": 56400.00000000002,
      "d": 1146.666666666657,
      "v": 127
    },
    {
      "midi": 67,
      "hit": false,
      "t": 56400.00000000002,
      "d": 1173.3333333333212,
      "v": 127
    },
    {
      "midi": 55,
      "hit": false,
      "t": 56753.33333333331,
      "d": 666.6666666666715,
      "v": 69
    },
    {
      "midi": 71,
      "hit": false,
      "t": 56799.99999999999,
      "d": 360,
      "v": 127
    },
    {
      "midi": 67,
      "hit": false,
      "t": 56799.99999999999,
      "d": 766.6666666666642,
      "v": 127
    },
    {
      "midi": 43,
      "hit": false,
      "t": 57000.000000000015,
      "d": 220,
      "v": 127
    },
    {
      "midi": 50,
      "hit": false,
      "t": 57013.33333333331,
      "d": 393.33333333333576,
      "v": 69
    },
    {
      "midi": 62,
      "hit": false,
      "t": 57200.000000000015,
      "d": 286.66666666666424,
      "v": 127
    },
    {
      "midi": 43,
      "hit": false,
      "t": 57400.000000000015,
      "d": 113.33333333332848,
      "v": 127
    },
    {
      "midi": 52,
      "hit": false,
      "t": 57599.99999999999,
      "d": 2020,
      "v": 127
    },
    {
      "midi": 43,
      "hit": false,
      "t": 57600.00000000001,
      "d": 2880.0000000000073,
      "v": 90
    },
    {
      "midi": 48,
      "hit": false,
      "t": 57606.66666666664,
      "d": 1806.6666666666642,
      "v": 69
    },
    {
      "midi": 52,
      "hit": false,
      "t": 57613.33333333331,
      "d": 2500,
      "v": 69
    },
    {
      "midi": 60,
      "hit": false,
      "t": 57620.00000000001,
      "d": 2800.0000000000073,
      "v": 127
    },
    {
      "midi": 48,
      "hit": false,
      "t": 57673.33333333334,
      "d": 3046.6666666666715,
      "v": 127
    },
    {
      "midi": 64,
      "hit": false,
      "t": 57686.66666666668,
      "d": 2700,
      "v": 127
    },
    {
      "midi": 67,
      "hit": false,
      "t": 57786.66666666668,
      "d": 2546.6666666666642,
      "v": 127
    },
    {
      "midi": 48,
      "hit": false,
      "t": 59599.99999999999,
      "d": 260,
      "v": 127
    },
    {
      "midi": 48,
      "hit": false,
      "t": 59659.99999999997,
      "d": 160,
      "v": 69
    },
    {
      "midi": 51,
      "hit": false,
      "t": 59799.99999999999,
      "d": 193.33333333333576,
      "v": 127
    },
    {
      "midi": 52,
      "hit": false,
      "t": 59999.99999999999,
      "d": 226.66666666666424,
      "v": 127
    },
    {
      "midi": 48,
      "hit": false,
      "t": 60013.33333333331,
      "d": 320,
      "v": 69
    },
    {
      "midi": 48,
      "hit": false,
      "t": 60199.99999999999,
      "d": 240,
      "v": 127
    },
    {
      "midi": 52,
      "hit": false,
      "t": 60246.66666666664,
      "d": 433.3333333333285,
      "v": 69
    },
    {
      "midi": 51,
      "hit": false,
      "t": 60399.99999999999,
      "d": 206.66666666666424,
      "v": 127
    },
    {
      "midi": 52,
      "hit": false,
      "t": 60599.99999999999,
      "d": 240,
      "v": 127
    },
    {
      "midi": 60,
      "hit": false,
      "t": 60746.66666666668,
      "d": 2853.3333333333285,
      "v": 127
    },
    {
      "midi": 65,
      "hit": false,
      "t": 60753.33333333334,
      "d": 2820,
      "v": 127
    },
    {
      "midi": 41,
      "hit": false,
      "t": 60753.33333333334,
      "d": 2966.6666666666642,
      "v": 90
    },
    {
      "midi": 53,
      "hit": false,
      "t": 60760.00000000001,
      "d": 3239.9999999999927,
      "v": 127
    },
    {
      "midi": 69,
      "hit": false,
      "t": 60773.33333333334,
      "d": 2766.6666666666642,
      "v": 127
    },
    {
      "midi": 53,
      "hit": false,
      "t": 60779.99999999997,
      "d": 2933.3333333333285,
      "v": 69
    },
    {
      "midi": 48,
      "hit": false,
      "t": 60786.666666666635,
      "d": 433.33333333333576,
      "v": 69
    },
    {
      "midi": 53,
      "hit": false,
      "t": 60799.99999999999,
      "d": 593.3333333333358,
      "v": 127
    },
    {
      "midi": 52,
      "hit": false,
      "t": 61399.99999999999,
      "d": 640,
      "v": 127
    },
    {
      "midi": 48,
      "hit": false,
      "t": 61986.666666666635,
      "d": 1813.3333333333285,
      "v": 69
    },
    {
      "midi": 48,
      "hit": false,
      "t": 61999.99999999999,
      "d": 1280,
      "v": 127
    },
    {
      "midi": 53,
      "hit": false,
      "t": 63199.99999999999,
      "d": 773.3333333333358,
      "v": 127
    },
    {
      "midi": 60,
      "hit": false,
      "t": 63946.66666666667,
      "d": 5126.6666666666715,
      "v": 127
    },
    {
      "midi": 48,
      "hit": false,
      "t": 63973.3333333333,
      "d": 2220,
      "v": 69
    },
    {
      "midi": 64,
      "hit": false,
      "t": 63973.333333333336,
      "d": 3106.6666666666642,
      "v": 127
    },
    {
      "midi": 52,
      "hit": false,
      "t": 63979.99999999996,
      "d": 2886.666666666679,
      "v": 69
    },
    {
      "midi": 48,
      "hit": false,
      "t": 63980,
      "d": 3086.6666666666715,
      "v": 127
    },
    {
      "midi": 43,
      "hit": false,
      "t": 63980,
      "d": 3193.333333333343,
      "v": 90
    },
    {
      "midi": 67,
      "hit": false,
      "t": 63993.333333333336,
      "d": 2993.3333333333358,
      "v": 127
    },
    {
      "midi": 52,
      "hit": false,
      "t": 63999.99999999999,
      "d": 2026.6666666666788,
      "v": 127
    },
    {
      "midi": 48,
      "hit": false,
      "t": 66000,
      "d": 266.6666666666715,
      "v": 127
    },
    {
      "midi": 51,
      "hit": false,
      "t": 66200,
      "d": 160,
      "v": 127
    },
    {
      "midi": 52,
      "hit": false,
      "t": 66400,
      "d": 213.33333333332848,
      "v": 127
    },
    {
      "midi": 48,
      "hit": false,
      "t": 66600,
      "d": 260,
      "v": 127
    },
    {
      "midi": 48,
      "hit": false,
      "t": 66799.99999999997,
      "d": 340,
      "v": 69
    },
    {
      "midi": 51,
      "hit": false,
      "t": 66800,
      "d": 213.33333333332848,
      "v": 127
    },
    {
      "midi": 52,
      "hit": false,
      "t": 66879.99999999997,
      "d": 66.66666666667152,
      "v": 69
    },
    {
      "midi": 52,
      "hit": false,
      "t": 67000,
      "d": 200,
      "v": 127
    },
    {
      "midi": 48,
      "hit": false,
      "t": 67146.66666666667,
      "d": 866.6666666666715,
      "v": 127
    },
    {
      "midi": 64,
      "hit": false,
      "t": 67153.33333333334,
      "d": 3140.0000000000146,
      "v": 127
    },
    {
      "midi": 67,
      "hit": false,
      "t": 67160.00000000001,
      "d": 3080,
      "v": 127
    },
    {
      "midi": 53,
      "hit": false,
      "t": 67173.3333333333,
      "d": 426.66666666665697,
      "v": 69
    },
    {
      "midi": 36,
      "hit": false,
      "t": 67180.00000000001,
      "d": 280,
      "v": 90
    },
    {
      "midi": 48,
      "hit": false,
      "t": 67186.66666666663,
      "d": 420,
      "v": 69
    },
    {
      "midi": 48,
      "hit": false,
      "t": 67200,
      "d": 406.6666666666715,
      "v": 127
    },
    {
      "midi": 36,
      "hit": false,
      "t": 67573.33333333334,
      "d": 220,
      "v": 90
    },
    {
      "midi": 51,
      "hit": false,
      "t": 67600,
      "d": 146.66666666667152,
      "v": 127
    },
    {
      "midi": 52,
      "hit": false,
      "t": 67600,
      "d": 726.6666666666715,
      "v": 127
    },
    {
      "midi": 48,
      "hit": false,
      "t": 68339.99999999996,
      "d": 1566.6666666666715,
      "v": 69
    },
    {
      "midi": 52,
      "hit": false,
      "t": 68346.66666666663,
      "d": 1553.3333333333285,
      "v": 69
    },
    {
      "midi": 48,
      "hit": false,
      "t": 68393.33333333334,
      "d": 726.6666666666715,
      "v": 90
    },
    {
      "midi": 48,
      "hit": false,
      "t": 68400,
      "d": 1873.3333333333285,
      "v": 127
    },
    {
      "midi": 36,
      "hit": false,
      "t": 68400.00000000001,
      "d": 633.3333333333285,
      "v": 90
    },
    {
      "midi": 36,
      "hit": false,
      "t": 69126.66666666669,
      "d": 1140,
      "v": 90
    },
    {
      "midi": 60,
      "hit": false,
      "t": 69220.00000000001,
      "d": 1080.0000000000146,
      "v": 127
    },
    {
      "midi": 48,
      "hit": false,
      "t": 70040.00000000001,
      "d": 333.33333333334303,
      "v": 127
    },
    {
      "midi": 48,
      "hit": false,
      "t": 70386.66666666663,
      "d": 1886.6666666666715,
      "v": 69
    },
    {
      "midi": 52,
      "hit": false,
      "t": 70393.3333333333,
      "d": 2386.6666666666715,
      "v": 69
    },
    {
      "midi": 52,
      "hit": false,
      "t": 70400,
      "d": 2020,
      "v": 127
    },
    {
      "midi": 60,
      "hit": false,
      "t": 70400.00000000003,
      "d": 2926.666666666686,
      "v": 127
    },
    {
      "midi": 36,
      "hit": false,
      "t": 70420.00000000003,
      "d": 1153.333333333343,
      "v": 90
    },
    {
      "midi": 48,
      "hit": false,
      "t": 70420.00000000003,
      "d": 2613.333333333343,
      "v": 127
    },
    {
      "midi": 64,
      "hit": false,
      "t": 70420.00000000003,
      "d": 2860.0000000000146,
      "v": 127
    },
    {
      "midi": 67,
      "hit": false,
      "t": 70426.6666666667,
      "d": 2800.0000000000146,
      "v": 127
    },
    {
      "midi": 43,
      "hit": false,
      "t": 71566.6666666667,
      "d": 1720.0000000000146,
      "v": 90
    },
    {
      "midi": 48,
      "hit": false,
      "t": 72400,
      "d": 260,
      "v": 127
    },
    {
      "midi": 51,
      "hit": false,
      "t": 72600,
      "d": 193.33333333332848,
      "v": 127
    },
    {
      "midi": 48,
      "hit": false,
      "t": 72759.99999999997,
      "d": 706.666666666657,
      "v": 69
    },
    {
      "midi": 52,
      "hit": false,
      "t": 72800,
      "d": 226.66666666667152,
      "v": 127
    },
    {
      "midi": 48,
      "hit": false,
      "t": 73000,
      "d": 240,
      "v": 127
    },
    {
      "midi": 48,
      "hit": false,
      "t": 73180.00000000004,
      "d": 433.33333333334303,
      "v": 127
    },
    {
      "midi": 52,
      "hit": false,
      "t": 73199.99999999997,
      "d": 173.33333333332848,
      "v": 69
    },
    {
      "midi": 51,
      "hit": false,
      "t": 73200,
      "d": 206.66666666667152,
      "v": 127
    },
    {
      "midi": 52,
      "hit": false,
      "t": 73400,
      "d": 240,
      "v": 127
    },
    {
      "midi": 60,
      "hit": false,
      "t": 73533.33333333339,
      "d": 3053.3333333333285,
      "v": 127
    },
    {
      "midi": 65,
      "hit": false,
      "t": 73566.66666666672,
      "d": 2806.6666666666715,
      "v": 127
    },
    {
      "midi": 53,
      "hit": false,
      "t": 73573.33333333339,
      "d": 2280,
      "v": 127
    },
    {
      "midi": 69,
      "hit": false,
      "t": 73586.66666666672,
      "d": 2746.6666666666715,
      "v": 127
    },
    {
      "midi": 53,
      "hit": false,
      "t": 73593.3333333333,
      "d": 860,
      "v": 69
    },
    {
      "midi": 43,
      "hit": false,
      "t": 73593.33333333339,
      "d": 40,
      "v": 90
    },
    {
      "midi": 48,
      "hit": false,
      "t": 73599.99999999997,
      "d": 840,
      "v": 69
    },
    {
      "midi": 53,
      "hit": false,
      "t": 73600,
      "d": 593.3333333333285,
      "v": 127
    },
    {
      "midi": 41,
      "hit": false,
      "t": 73600.00000000006,
      "d": 3160,
      "v": 90
    },
    {
      "midi": 52,
      "hit": false,
      "t": 74200,
      "d": 640,
      "v": 127
    },
    {
      "midi": 48,
      "hit": false,
      "t": 74800,
      "d": 1280,
      "v": 127
    },
    {
      "midi": 53,
      "hit": false,
      "t": 75953.3333333333,
      "d": 533.333333333343,
      "v": 69
    },
    {
      "midi": 48,
      "hit": false,
      "t": 75959.99999999997,
      "d": 600,
      "v": 69
    },
    {
      "midi": 53,
      "hit": false,
      "t": 76000,
      "d": 773.3333333333285,
      "v": 127
    },
    {
      "midi": 53,
      "hit": false,
      "t": 76013.33333333339,
      "d": 740,
      "v": 127
    },
    {
      "midi": 52,
      "hit": false,
      "t": 76759.99999999997,
      "d": 2993.3333333333285,
      "v": 69
    },
    {
      "midi": 43,
      "hit": false,
      "t": 76766.66666666673,
      "d": 3186.6666666666715,
      "v": 90
    },
    {
      "midi": 48,
      "hit": false,
      "t": 76773.3333333333,
      "d": 3000,
      "v": 69
    },
    {
      "midi": 60,
      "hit": false,
      "t": 76786.66666666673,
      "d": 3420.0000000000146,
      "v": 127
    },
    {
      "midi": 48,
      "hit": false,
      "t": 76793.3333333334,
      "d": 2340,
      "v": 127
    },
    {
      "midi": 52,
      "hit": false,
      "t": 76800,
      "d": 2026.6666666666715,
      "v": 127
    },
    {
      "midi": 67,
      "hit": false,
      "t": 76813.3333333334,
      "d": 3440,
      "v": 127
    },
    {
      "midi": 64,
      "hit": false,
      "t": 76820.00000000007,
      "d": 3420,
      "v": 127
    },
    {
      "midi": 48,
      "hit": false,
      "t": 78800,
      "d": 266.6666666666715,
      "v": 127
    },
    {
      "midi": 51,
      "hit": false,
      "t": 79000,
      "d": 160,
      "v": 127
    },
    {
      "midi": 52,
      "hit": false,
      "t": 79200,
      "d": 213.33333333332848,
      "v": 127
    },
    {
      "midi": 48,
      "hit": false,
      "t": 79206.66666666673,
      "d": 700,
      "v": 127
    },
    {
      "midi": 48,
      "hit": false,
      "t": 79400,
      "d": 260,
      "v": 127
    },
    {
      "midi": 51,
      "hit": false,
      "t": 79600,
      "d": 213.33333333332848,
      "v": 127
    },
    {
      "midi": 52,
      "hit": false,
      "t": 79800,
      "d": 200,
      "v": 127
    },
    {
      "midi": 36,
      "hit": false,
      "t": 79973.3333333334,
      "d": 433.33333333334303,
      "v": 90
    },
    {
      "midi": 48,
      "hit": false,
      "t": 80000,
      "d": 406.6666666666715,
      "v": 127
    },
    {
      "midi": 48,
      "hit": false,
      "t": 80000.00000000007,
      "d": 786.6666666666715,
      "v": 127
    },
    {
      "midi": 67,
      "hit": false,
      "t": 80373.3333333334,
      "d": 2333.333333333343,
      "v": 127
    },
    {
      "midi": 51,
      "hit": false,
      "t": 80400,
      "d": 146.66666666667152,
      "v": 127
    },
    {
      "midi": 52,
      "hit": false,
      "t": 80400,
      "d": 726.6666666666715,
      "v": 127
    },
    {
      "midi": 43,
      "hit": false,
      "t": 80420.00000000007,
      "d": 833.3333333333285,
      "v": 90
    },
    {
      "midi": 60,
      "hit": false,
      "t": 80486.66666666674,
      "d": 726.666666666657,
      "v": 127
    },
    {
      "midi": 48,
      "hit": false,
      "t": 81200.00000000007,
      "d": 1113.3333333333285,
      "v": 127
    },
    {
      "midi": 52,
      "hit": false,
      "t": 81206.66666666663,
      "d": 1666.6666666666715,
      "v": 69
    },
    {
      "midi": 48,
      "hit": false,
      "t": 81213.3333333333,
      "d": 706.6666666666715,
      "v": 69
    },
    {
      "midi": 36,
      "hit": false,
      "t": 81233.3333333334,
      "d": 713.3333333333285,
      "v": 90
    },
    {
      "midi": 60,
      "hit": false,
      "t": 81966.66666666673,
      "d": 746.6666666666861,
      "v": 127
    },
    {
      "midi": 48,
      "hit": false,
      "t": 82013.3333333333,
      "d": 40,
      "v": 69
    },
    {
      "midi": 36,
      "hit": false,
      "t": 82020.00000000006,
      "d": 373.33333333334303,
      "v": 90
    },
    {
      "midi": 64,
      "hit": false,
      "t": 82026.66666666673,
      "d": 373.33333333334303,
      "v": 127
    },
    {
      "midi": 48,
      "hit": false,
      "t": 82033.33333333333,
      "d": 420,
      "v": 127
    },
    {
      "midi": 48,
      "hit": false,
      "t": 82359.99999999997,
      "d": 600,
      "v": 69
    },
    {
      "midi": 38,
      "hit": false,
      "t": 82386.66666666673,
      "d": 393.3333333333576,
      "v": 90
    },
    {
      "midi": 50,
      "hit": false,
      "t": 82440,
      "d": 373.3333333333285,
      "v": 127
    },
    {
      "midi": 65,
      "hit": false,
      "t": 82440.00000000007,
      "d": 366.66666666668607,
      "v": 127
    },
    {
      "midi": 48,
      "hit": false,
      "t": 82446.66666666674,
      "d": 626.6666666666861,
      "v": 127
    },
    {
      "midi": 40,
      "hit": false,
      "t": 82786.66666666676,
      "d": 386.6666666666715,
      "v": 90
    },
    {
      "midi": 67,
      "hit": false,
      "t": 82793.33333333343,
      "d": 360,
      "v": 127
    },
    {
      "midi": 52,
      "hit": false,
      "t": 82820,
      "d": 366.6666666666715,
      "v": 127
    },
    {
      "midi": 53,
      "hit": false,
      "t": 83199.99999999997,
      "d": 706.6666666666715,
      "v": 69
    },
    {
      "midi": 69,
      "hit": false,
      "t": 83200,
      "d": 1380,
      "v": 127
    },
    {
      "midi": 65,
      "hit": false,
      "t": 83200,
      "d": 1400,
      "v": 127
    },
    {
      "midi": 60,
      "hit": false,
      "t": 83200.0000000001,
      "d": 673.3333333333285,
      "v": 127
    },
    {
      "midi": 69,
      "hit": false,
      "t": 83200.0000000001,
      "d": 686.666666666657,
      "v": 127
    },
    {
      "midi": 65,
      "hit": false,
      "t": 83200.0000000001,
      "d": 719.9999999999854,
      "v": 127
    },
    {
      "midi": 41,
      "hit": false,
      "t": 83200.0000000001,
      "d": 1099.9999999999854,
      "v": 127
    },
    {
      "midi": 48,
      "hit": false,
      "t": 83206.66666666664,
      "d": 713.3333333333285,
      "v": 69
    },
    {
      "midi": 60,
      "hit": false,
      "t": 84000.00000000009,
      "d": 586.6666666666715,
      "v": 127
    },
    {
      "midi": 69,
      "hit": false,
      "t": 84000.00000000009,
      "d": 593.333333333343,
      "v": 127
    },
    {
      "midi": 65,
      "hit": false,
      "t": 84000.00000000009,
      "d": 680.0000000000146,
      "v": 127
    },
    {
      "midi": 53,
      "hit": false,
      "t": 84006.66666666664,
      "d": 653.333333333343,
      "v": 69
    },
    {
      "midi": 48,
      "hit": false,
      "t": 84013.33333333331,
      "d": 626.6666666666715,
      "v": 69
    },
    {
      "midi": 41,
      "hit": false,
      "t": 84400.00000000009,
      "d": 413.33333333334303,
      "v": 127
    },
    {
      "midi": 53,
      "hit": false,
      "t": 84779.99999999999,
      "d": 733.3333333333285,
      "v": 69
    },
    {
      "midi": 50,
      "hit": false,
      "t": 84786.66666666666,
      "d": 713.3333333333285,
      "v": 69
    },
    {
      "midi": 65,
      "hit": false,
      "t": 84800,
      "d": 1360,
      "v": 127
    },
    {
      "midi": 62,
      "hit": false,
      "t": 84800,
      "d": 1420,
      "v": 127
    },
    {
      "midi": 62,
      "hit": false,
      "t": 84800.0000000001,
      "d": 606.666666666657,
      "v": 127
    },
    {
      "midi": 69,
      "hit": false,
      "t": 84800.0000000001,
      "d": 606.666666666657,
      "v": 127
    },
    {
      "midi": 65,
      "hit": false,
      "t": 84800.0000000001,
      "d": 706.666666666657,
      "v": 127
    },
    {
      "midi": 50,
      "hit": false,
      "t": 84800.0000000001,
      "d": 1146.666666666657,
      "v": 127
    },
    {
      "midi": 53,
      "hit": false,
      "t": 85579.99999999999,
      "d": 473.33333333334303,
      "v": 69
    },
    {
      "midi": 50,
      "hit": false,
      "t": 85586.66666666666,
      "d": 600,
      "v": 69
    },
    {
      "midi": 69,
      "hit": false,
      "t": 85600.00000000009,
      "d": 446.6666666666715,
      "v": 127
    },
    {
      "midi": 65,
      "hit": false,
      "t": 85600.00000000009,
      "d": 466.6666666666715,
      "v": 127
    },
    {
      "midi": 62,
      "hit": false,
      "t": 85600.00000000009,
      "d": 513.333333333343,
      "v": 127
    },
    {
      "midi": 50,
      "hit": false,
      "t": 86000.00000000009,
      "d": 400.00000000001455,
      "v": 127
    },
    {
      "midi": 55,
      "hit": false,
      "t": 86386.66666666666,
      "d": 1066.666666666657,
      "v": 69
    },
    {
      "midi": 50,
      "hit": false,
      "t": 86399.99999999999,
      "d": 1073.3333333333285,
      "v": 69
    },
    {
      "midi": 67,
      "hit": false,
      "t": 86400,
      "d": 1326.6666666666715,
      "v": 127
    },
    {
      "midi": 71,
      "hit": false,
      "t": 86400,
      "d": 1380,
      "v": 127
    },
    {
      "midi": 62,
      "hit": false,
      "t": 86400.0000000001,
      "d": 733.3333333333285,
      "v": 127
    },
    {
      "midi": 71,
      "hit": false,
      "t": 86400.0000000001,
      "d": 740,
      "v": 127
    },
    {
      "midi": 67,
      "hit": false,
      "t": 86400.0000000001,
      "d": 753.3333333333285,
      "v": 127
    },
    {
      "midi": 43,
      "hit": false,
      "t": 86400.0000000001,
      "d": 1086.6666666666715,
      "v": 127
    },
    {
      "midi": 62,
      "hit": false,
      "t": 87200.0000000001,
      "d": 620,
      "v": 127
    },
    {
      "midi": 71,
      "hit": false,
      "t": 87200.0000000001,
      "d": 640,
      "v": 127
    },
    {
      "midi": 67,
      "hit": false,
      "t": 87200.0000000001,
      "d": 680,
      "v": 127
    },
    {
      "midi": 55,
      "hit": false,
      "t": 87559.99999999999,
      "d": 1660,
      "v": 69
    },
    {
      "midi": 50,
      "hit": false,
      "t": 87579.99999999999,
      "d": 800,
      "v": 69
    },
    {
      "midi": 43,
      "hit": false,
      "t": 87600.0000000001,
      "d": 673.3333333333285,
      "v": 127
    },
    {
      "midi": 69,
      "hit": false,
      "t": 88000,
      "d": 433.3333333333285,
      "v": 127
    },
    {
      "midi": 72,
      "hit": false,
      "t": 88000,
      "d": 440,
      "v": 127
    },
    {
      "midi": 62,
      "hit": false,
      "t": 88000.0000000001,
      "d": 633.3333333333285,
      "v": 127
    },
    {
      "midi": 67,
      "hit": false,
      "t": 88000.0000000001,
      "d": 633.3333333333285,
      "v": 127
    },
    {
      "midi": 71,
      "hit": false,
      "t": 88000.0000000001,
      "d": 646.666666666657,
      "v": 127
    },
    {
      "midi": 43,
      "hit": false,
      "t": 88400.0000000001,
      "d": 446.66666666665697,
      "v": 127
    },
    {
      "midi": 67,
      "hit": false,
      "t": 88600,
      "d": 420,
      "v": 127
    },
    {
      "midi": 71,
      "hit": false,
      "t": 88600,
      "d": 433.3333333333285,
      "v": 127
    },
    {
      "midi": 50,
      "hit": false,
      "t": 88793.33333333331,
      "d": 440,
      "v": 69
    },
    {
      "midi": 45,
      "hit": false,
      "t": 88800.00000000009,
      "d": 233.33333333332848,
      "v": 127
    },
    {
      "midi": 71,
      "hit": false,
      "t": 88800.00000000009,
      "d": 520,
      "v": 127
    },
    {
      "midi": 66,
      "hit": false,
      "t": 88800.00000000009,
      "d": 553.3333333333285,
      "v": 127
    },
    {
      "midi": 62,
      "hit": false,
      "t": 88800.00000000009,
      "d": 606.666666666657,
      "v": 127
    },
    {
      "midi": 47,
      "hit": false,
      "t": 89000.00000000009,
      "d": 639.9999999999854,
      "v": 127
    },
    {
      "midi": 65,
      "hit": false,
      "t": 89200,
      "d": 306.6666666666715,
      "v": 127
    },
    {
      "midi": 62,
      "hit": false,
      "t": 89200,
      "d": 333.33333333334303,
      "v": 127
    },
    {
      "midi": 65,
      "hit": false,
      "t": 89600.00000000001,
      "d": 1520,
      "v": 127
    },
    {
      "midi": 69,
      "hit": false,
      "t": 89600.00000000001,
      "d": 1540,
      "v": 127
    },
    {
      "midi": 69,
      "hit": false,
      "t": 89600.00000000007,
      "d": 566.6666666666715,
      "v": 127
    },
    {
      "midi": 60,
      "hit": false,
      "t": 89600.00000000007,
      "d": 626.6666666666715,
      "v": 127
    },
    {
      "midi": 65,
      "hit": false,
      "t": 89600.00000000007,
      "d": 660,
      "v": 127
    },
    {
      "midi": 41,
      "hit": false,
      "t": 89600.00000000007,
      "d": 1073.3333333333285,
      "v": 127
    },
    {
      "midi": 53,
      "hit": false,
      "t": 89619.99999999999,
      "d": 586.6666666666715,
      "v": 69
    },
    {
      "midi": 48,
      "hit": false,
      "t": 89626.66666666666,
      "d": 566.6666666666715,
      "v": 69
    },
    {
      "midi": 53,
      "hit": false,
      "t": 90373.33333333333,
      "d": 513.3333333333285,
      "v": 69
    },
    {
      "midi": 48,
      "hit": false,
      "t": 90380,
      "d": 453.3333333333285,
      "v": 69
    },
    {
      "midi": 60,
      "hit": false,
      "t": 90400.00000000007,
      "d": 533.3333333333285,
      "v": 127
    },
    {
      "midi": 69,
      "hit": false,
      "t": 90400.00000000007,
      "d": 546.666666666657,
      "v": 127
    },
    {
      "midi": 65,
      "hit": false,
      "t": 90400.00000000007,
      "d": 619.9999999999854,
      "v": 127
    },
    {
      "midi": 41,
      "hit": false,
      "t": 90800.00000000007,
      "d": 379.99999999998545,
      "v": 127
    },
    {
      "midi": 50,
      "hit": false,
      "t": 91193.33333333333,
      "d": 586.6666666666715,
      "v": 69
    },
    {
      "midi": 53,
      "hit": false,
      "t": 91193.33333333333,
      "d": 613.333333333343,
      "v": 69
    },
    {
      "midi": 65,
      "hit": false,
      "t": 91200.00000000001,
      "d": 1360,
      "v": 127
    },
    {
      "midi": 62,
      "hit": false,
      "t": 91200.00000000001,
      "d": 1426.6666666666715,
      "v": 127
    },
    {
      "midi": 69,
      "hit": false,
      "t": 91200.00000000006,
      "d": 613.3333333333285,
      "v": 127
    },
    {
      "midi": 62,
      "hit": false,
      "t": 91200.00000000006,
      "d": 620,
      "v": 127
    },
    {
      "midi": 65,
      "hit": false,
      "t": 91200.00000000006,
      "d": 686.6666666666715,
      "v": 127
    },
    {
      "midi": 50,
      "hit": false,
      "t": 91200.00000000006,
      "d": 1120,
      "v": 127
    },
    {
      "midi": 53,
      "hit": false,
      "t": 91980,
      "d": 320,
      "v": 69
    },
    {
      "midi": 50,
      "hit": false,
      "t": 91993.33333333333,
      "d": 433.33333333334303,
      "v": 69
    },
    {
      "midi": 69,
      "hit": false,
      "t": 92000.00000000006,
      "d": 493.3333333333285,
      "v": 127
    },
    {
      "midi": 65,
      "hit": false,
      "t": 92000.00000000006,
      "d": 566.666666666657,
      "v": 127
    },
    {
      "midi": 62,
      "hit": false,
      "t": 92000.00000000006,
      "d": 586.666666666657,
      "v": 127
    },
    {
      "midi": 50,
      "hit": false,
      "t": 92400.00000000006,
      "d": 373.3333333333285,
      "v": 127
    },
    {
      "midi": 55,
      "hit": false,
      "t": 92753.33333333334,
      "d": 320,
      "v": 69
    },
    {
      "midi": 50,
      "hit": false,
      "t": 92766.66666666667,
      "d": 300,
      "v": 69
    },
    {
      "midi": 71,
      "hit": false,
      "t": 92800.00000000001,
      "d": 2993.3333333333285,
      "v": 127
    },
    {
      "midi": 67,
      "hit": false,
      "t": 92800.00000000001,
      "d": 3120,
      "v": 127
    },
    {
      "midi": 62,
      "hit": false,
      "t": 92800.00000000006,
      "d": 640,
      "v": 127
    },
    {
      "midi": 71,
      "hit": false,
      "t": 92800.00000000006,
      "d": 680,
      "v": 127
    },
    {
      "midi": 67,
      "hit": false,
      "t": 92800.00000000006,
      "d": 693.3333333333285,
      "v": 127
    },
    {
      "midi": 43,
      "hit": false,
      "t": 92800.00000000006,
      "d": 1060,
      "v": 127
    },
    {
      "midi": 55,
      "hit": false,
      "t": 93173.33333333334,
      "d": 366.66666666665697,
      "v": 69
    },
    {
      "midi": 50,
      "hit": false,
      "t": 93186.66666666667,
      "d": 313.3333333333285,
      "v": 69
    },
    {
      "midi": 62,
      "hit": false,
      "t": 93600.00000000006,
      "d": 660,
      "v": 127
    },
    {
      "midi": 71,
      "hit": false,
      "t": 93600.00000000006,
      "d": 673.3333333333285,
      "v": 127
    },
    {
      "midi": 67,
      "hit": false,
      "t": 93600.00000000006,
      "d": 726.666666666657,
      "v": 127
    },
    {
      "midi": 43,
      "hit": false,
      "t": 94000.00000000006,
      "d": 293.3333333333285,
      "v": 127
    },
    {
      "midi": 55,
      "hit": false,
      "t": 94013.33333333333,
      "d": 2420,
      "v": 69
    },
    {
      "midi": 50,
      "hit": false,
      "t": 94040,
      "d": 2366.666666666657,
      "v": 69
    },
    {
      "midi": 71,
      "hit": false,
      "t": 94400.00000000004,
      "d": 740,
      "v": 127
    },
    {
      "midi": 62,
      "hit": false,
      "t": 94400.00000000004,
      "d": 746.6666666666715,
      "v": 127
    },
    {
      "midi": 67,
      "hit": false,
      "t": 94400.00000000004,
      "d": 780,
      "v": 127
    },
    {
      "midi": 43,
      "hit": false,
      "t": 94400.00000000004,
      "d": 1086.6666666666715,
      "v": 127
    },
    {
      "midi": 71,
      "hit": false,
      "t": 95200.00000000004,
      "d": 620,
      "v": 127
    },
    {
      "midi": 62,
      "hit": false,
      "t": 95200.00000000004,
      "d": 653.3333333333285,
      "v": 127
    },
    {
      "midi": 67,
      "hit": false,
      "t": 95200.00000000004,
      "d": 673.3333333333285,
      "v": 127
    },
    {
      "midi": 43,
      "hit": false,
      "t": 95600.00000000004,
      "d": 273.3333333333285,
      "v": 127
    },
    {
      "midi": 43,
      "hit": false,
      "t": 96000.00000000001,
      "d": 246.66666666667152,
      "v": 127
    },
    {
      "midi": 55,
      "hit": false,
      "t": 96000.00000000001,
      "d": 440,
      "v": 127
    },
    {
      "midi": 59,
      "hit": false,
      "t": 96000.00000000001,
      "d": 440,
      "v": 127
    },
    {
      "midi": 71,
      "hit": false,
      "t": 96000.00000000001,
      "d": 646.6666666666715,
      "v": 127
    },
    {
      "midi": 67,
      "hit": false,
      "t": 96006.66666666669,
      "d": 620,
      "v": 127
    },
    {
      "midi": 59,
      "hit": false,
      "t": 96013.33333333333,
      "d": 2406.666666666657,
      "v": 69
    },
    {
      "midi": 67,
      "hit": false,
      "t": 96033.33333333337,
      "d": 680,
      "v": 127
    },
    {
      "midi": 62,
      "hit": false,
      "t": 96040.00000000001,
      "d": 373.3333333333285,
      "v": 127
    },
    {
      "midi": 71,
      "hit": false,
      "t": 96046.6666666667,
      "d": 660,
      "v": 127
    },
    {
      "midi": 62,
      "hit": false,
      "t": 96053.33333333337,
      "d": 640,
      "v": 127
    },
    {
      "midi": 43,
      "hit": false,
      "t": 96360.00000000001,
      "d": 520,
      "v": 127
    },
    {
      "midi": 55,
      "hit": false,
      "t": 96546.66666666666,
      "d": 1873.3333333333285,
      "v": 69
    },
    {
      "midi": 55,
      "hit": false,
      "t": 96626.66666666669,
      "d": 400,
      "v": 127
    },
    {
      "midi": 59,
      "hit": false,
      "t": 96626.66666666669,
      "d": 413.3333333333285,
      "v": 127
    },
    {
      "midi": 62,
      "hit": false,
      "t": 96633.33333333336,
      "d": 386.66666666665697,
      "v": 127
    },
    {
      "midi": 71,
      "hit": false,
      "t": 96780.00000000001,
      "d": 713.333333333343,
      "v": 127
    },
    {
      "midi": 67,
      "hit": false,
      "t": 96786.66666666669,
      "d": 700,
      "v": 127
    },
    {
      "midi": 71,
      "hit": false,
      "t": 96800.00000000004,
      "d": 686.666666666657,
      "v": 127
    },
    {
      "midi": 67,
      "hit": false,
      "t": 96800.00000000004,
      "d": 693.3333333333285,
      "v": 127
    },
    {
      "midi": 62,
      "hit": false,
      "t": 96813.33333333337,
      "d": 653.3333333333285,
      "v": 127
    },
    {
      "midi": 43,
      "hit": false,
      "t": 96993.33333333334,
      "d": 140,
      "v": 127
    },
    {
      "midi": 59,
      "hit": false,
      "t": 97186.66666666667,
      "d": 1146.666666666686,
      "v": 127
    },
    {
      "midi": 55,
      "hit": false,
      "t": 97193.33333333334,
      "d": 1126.666666666686,
      "v": 127
    },
    {
      "midi": 62,
      "hit": false,
      "t": 97200.00000000001,
      "d": 1006.6666666666861,
      "v": 127
    },
    {
      "midi": 50,
      "hit": false,
      "t": 97206.66666666666,
      "d": 1193.3333333333285,
      "v": 69
    },
    {
      "midi": 67,
      "hit": false,
      "t": 97600.00000000003,
      "d": 253.33333333332848,
      "v": 127
    },
    {
      "midi": 71,
      "hit": false,
      "t": 97600.00000000003,
      "d": 260,
      "v": 127
    },
    {
      "midi": 71,
      "hit": false,
      "t": 97600.00000000004,
      "d": 366.6666666666715,
      "v": 127
    },
    {
      "midi": 67,
      "hit": false,
      "t": 97606.66666666672,
      "d": 373.3333333333285,
      "v": 127
    },
    {
      "midi": 62,
      "hit": false,
      "t": 97613.33333333339,
      "d": 320,
      "v": 127
    },
    {
      "midi": 71,
      "hit": false,
      "t": 98020.00000000003,
      "d": 313.3333333333285,
      "v": 127
    },
    {
      "midi": 62,
      "hit": false,
      "t": 98020.00000000004,
      "d": 406.66666666665697,
      "v": 127
    },
    {
      "midi": 43,
      "hit": false,
      "t": 98026.6666666667,
      "d": 293.3333333333285,
      "v": 127
    },
    {
      "midi": 72,
      "hit": false,
      "t": 98413.33333333336,
      "d": 113.33333333334303,
      "v": 127
    },
    {
      "midi": 64,
      "hit": false,
      "t": 98413.33333333337,
      "d": 206.66666666667152,
      "v": 127
    },
    {
      "midi": 43,
      "hit": false,
      "t": 98426.66666666669,
      "d": 106.66666666668607,
      "v": 127
    },
    {
      "midi": 59,
      "hit": false,
      "t": 98433.33333333336,
      "d": 106.66666666668607,
      "v": 127
    },
    {
      "midi": 55,
      "hit": false,
      "t": 98440.00000000003,
      "d": 100.00000000001455,
      "v": 127
    },
    {
      "midi": 43,
      "hit": false,
      "t": 98606.66666666672,
      "d": 226.66666666667152,
      "v": 127
    },
    {
      "midi": 67,
      "hit": false,
      "t": 98613.33333333337,
      "d": 433.33333333334303,
      "v": 127
    },
    {
      "midi": 55,
      "hit": false,
      "t": 98613.33333333339,
      "d": 253.33333333332848,
      "v": 127
    },
    {
      "midi": 59,
      "hit": false,
      "t": 98613.33333333339,
      "d": 266.66666666665697,
      "v": 127
    },
    {
      "midi": 74,
      "hit": false,
      "t": 98633.33333333339,
      "d": 333.3333333333285,
      "v": 127
    },
    {
      "midi": 60,
      "hit": false,
      "t": 99200.00000000004,
      "d": 673.3333333333285,
      "v": 127
    },
    {
      "midi": 69,
      "hit": false,
      "t": 99200.00000000004,
      "d": 686.666666666657,
      "v": 127
    },
    {
      "midi": 65,
      "hit": false,
      "t": 99200.00000000004,
      "d": 713.3333333333285,
      "v": 127
    },
    {
      "midi": 41,
      "hit": false,
      "t": 99200.00000000004,
      "d": 1040,
      "v": 127
    },
    {
      "midi": 48,
      "hit": false,
      "t": 99213.33333333331,
      "d": 606.6666666666715,
      "v": 69
    },
    {
      "midi": 53,
      "hit": false,
      "t": 99213.33333333331,
      "d": 620,
      "v": 69
    },
    {
      "midi": 81,
      "hit": false,
      "t": 99239.99999999999,
      "d": 753.3333333333285,
      "v": 65
    },
    {
      "midi": 77,
      "hit": false,
      "t": 99253.33333333331,
      "d": 753.3333333333285,
      "v": 65
    },
    {
      "midi": 60,
      "hit": false,
      "t": 100000.00000000004,
      "d": 406.6666666666715,
      "v": 127
    },
    {
      "midi": 69,
      "hit": false,
      "t": 100000.00000000004,
      "d": 406.6666666666715,
      "v": 127
    },
    {
      "midi": 65,
      "hit": false,
      "t": 100000.00000000004,
      "d": 420,
      "v": 127
    },
    {
      "midi": 48,
      "hit": false,
      "t": 100006.66666666664,
      "d": 473.3333333333576,
      "v": 69
    },
    {
      "midi": 53,
      "hit": false,
      "t": 100013.33333333331,
      "d": 406.66666666668607,
      "v": 69
    },
    {
      "midi": 72,
      "hit": false,
      "t": 100019.99999999999,
      "d": 360,
      "v": 65
    },
    {
      "midi": 77,
      "hit": false,
      "t": 100386.66666666666,
      "d": 320,
      "v": 65
    },
    {
      "midi": 41,
      "hit": false,
      "t": 100400.00000000004,
      "d": 446.6666666666715,
      "v": 127
    },
    {
      "midi": 81,
      "hit": false,
      "t": 100413.33333333333,
      "d": 280,
      "v": 65
    },
    {
      "midi": 55,
      "hit": false,
      "t": 100799.99999999999,
      "d": 646.6666666666715,
      "v": 69
    },
    {
      "midi": 62,
      "hit": false,
      "t": 100800.00000000004,
      "d": 613.333333333343,
      "v": 127
    },
    {
      "midi": 71,
      "hit": false,
      "t": 100800.00000000004,
      "d": 620.0000000000146,
      "v": 127
    },
    {
      "midi": 67,
      "hit": false,
      "t": 100800.00000000004,
      "d": 673.333333333343,
      "v": 127
    },
    {
      "midi": 43,
      "hit": false,
      "t": 100800.00000000004,
      "d": 866.6666666666861,
      "v": 127
    },
    {
      "midi": 50,
      "hit": false,
      "t": 100806.66666666666,
      "d": 646.6666666666715,
      "v": 69
    },
    {
      "midi": 79,
      "hit": false,
      "t": 100806.66666666666,
      "d": 780,
      "v": 65
    },
    {
      "midi": 83,
      "hit": false,
      "t": 100819.99999999999,
      "d": 780.0000000000146,
      "v": 65
    },
    {
      "midi": 74,
      "hit": false,
      "t": 101593.33333333333,
      "d": 380,
      "v": 65
    },
    {
      "midi": 55,
      "hit": false,
      "t": 101600,
      "d": 413.3333333333285,
      "v": 69
    },
    {
      "midi": 71,
      "hit": false,
      "t": 101600.00000000006,
      "d": 406.6666666666715,
      "v": 127
    },
    {
      "midi": 67,
      "hit": false,
      "t": 101600.00000000006,
      "d": 420,
      "v": 127
    },
    {
      "midi": 62,
      "hit": false,
      "t": 101600.00000000006,
      "d": 426.6666666666715,
      "v": 127
    },
    {
      "midi": 50,
      "hit": false,
      "t": 101613.33333333333,
      "d": 406.6666666666715,
      "v": 69
    },
    {
      "midi": 79,
      "hit": false,
      "t": 101973.33333333333,
      "d": 300,
      "v": 65
    },
    {
      "midi": 43,
      "hit": false,
      "t": 102000.00000000006,
      "d": 413.3333333333285,
      "v": 127
    },
    {
      "midi": 83,
      "hit": false,
      "t": 102006.66666666666,
      "d": 293.33333333334303,
      "v": 65
    },
    {
      "midi": 48,
      "hit": false,
      "t": 102346.66666666667,
      "d": 680.0000000000146,
      "v": 69
    },
    {
      "midi": 52,
      "hit": false,
      "t": 102353.33333333334,
      "d": 666.6666666666715,
      "v": 69
    },
    {
      "midi": 79,
      "hit": false,
      "t": 102400.00000000001,
      "d": 826.6666666666715,
      "v": 65
    },
    {
      "midi": 76,
      "hit": false,
      "t": 102400.00000000001,
      "d": 860,
      "v": 65
    },
    {
      "midi": 67,
      "hit": false,
      "t": 102400.00000000006,
      "d": 593.3333333333285,
      "v": 127
    },
    {
      "midi": 60,
      "hit": false,
      "t": 102400.00000000006,
      "d": 626.666666666657,
      "v": 127
    },
    {
      "midi": 64,
      "hit": false,
      "t": 102400.00000000006,
      "d": 646.666666666657,
      "v": 127
    },
    {
      "midi": 48,
      "hit": false,
      "t": 102400.00000000006,
      "d": 999.9999999999854,
      "v": 127
    },
    {
      "midi": 52,
      "hit": false,
      "t": 103186.66666666669,
      "d": 420,
      "v": 69
    },
    {
      "midi": 48,
      "hit": false,
      "t": 103186.66666666669,
      "d": 460,
      "v": 69
    },
    {
      "midi": 67,
      "hit": false,
      "t": 103200.00000000004,
      "d": 426.6666666666715,
      "v": 127
    },
    {
      "midi": 60,
      "hit": false,
      "t": 103200.00000000004,
      "d": 460,
      "v": 127
    },
    {
      "midi": 64,
      "hit": false,
      "t": 103200.00000000004,
      "d": 460,
      "v": 127
    },
    {
      "midi": 72,
      "hit": false,
      "t": 103220.00000000001,
      "d": 346.6666666666715,
      "v": 65
    },
    {
      "midi": 48,
      "hit": false,
      "t": 103600.00000000004,
      "d": 460,
      "v": 127
    },
    {
      "midi": 76,
      "hit": false,
      "t": 103606.66666666669,
      "d": 333.3333333333285,
      "v": 65
    },
    {
      "midi": 79,
      "hit": false,
      "t": 103606.66666666669,
      "d": 340,
      "v": 65
    },
    {
      "midi": 45,
      "hit": false,
      "t": 104000.00000000001,
      "d": 586.6666666666715,
      "v": 69
    },
    {
      "midi": 48,
      "hit": false,
      "t": 104000.00000000001,
      "d": 606.6666666666715,
      "v": 69
    },
    {
      "midi": 64,
      "hit": false,
      "t": 104000.00000000004,
      "d": 593.3333333333285,
      "v": 127
    },
    {
      "midi": 57,
      "hit": false,
      "t": 104000.00000000004,
      "d": 626.666666666657,
      "v": 127
    },
    {
      "midi": 60,
      "hit": false,
      "t": 104000.00000000004,
      "d": 659.9999999999854,
      "v": 127
    },
    {
      "midi": 45,
      "hit": false,
      "t": 104000.00000000004,
      "d": 993.3333333333139,
      "v": 127
    },
    {
      "midi": 81,
      "hit": false,
      "t": 104013.33333333334,
      "d": 786.6666666666715,
      "v": 65
    },
    {
      "midi": 76,
      "hit": false,
      "t": 104020.00000000001,
      "d": 760,
      "v": 65
    },
    {
      "midi": 72,
      "hit": false,
      "t": 104786.66666666669,
      "d": 380,
      "v": 65
    },
    {
      "midi": 48,
      "hit": false,
      "t": 104786.66666666669,
      "d": 433.3333333333285,
      "v": 69
    },
    {
      "midi": 45,
      "hit": false,
      "t": 104800.00000000001,
      "d": 406.6666666666715,
      "v": 69
    },
    {
      "midi": 57,
      "hit": false,
      "t": 104800.00000000003,
      "d": 440,
      "v": 127
    },
    {
      "midi": 60,
      "hit": false,
      "t": 104800.00000000003,
      "d": 466.6666666666715,
      "v": 127
    },
    {
      "midi": 64,
      "hit": false,
      "t": 104800.00000000003,
      "d": 480,
      "v": 127
    },
    {
      "midi": 81,
      "hit": false,
      "t": 105200.00000000001,
      "d": 280,
      "v": 65
    },
    {
      "midi": 45,
      "hit": false,
      "t": 105200.00000000003,
      "d": 246.66666666667152,
      "v": 127
    },
    {
      "midi": 76,
      "hit": false,
      "t": 105206.66666666669,
      "d": 253.33333333332848,
      "v": 65
    },
    {
      "midi": 60,
      "hit": false,
      "t": 105600.00000000003,
      "d": 546.6666666666715,
      "v": 127
    },
    {
      "midi": 69,
      "hit": false,
      "t": 105600.00000000003,
      "d": 593.333333333343,
      "v": 127
    },
    {
      "midi": 65,
      "hit": false,
      "t": 105600.00000000003,
      "d": 620.0000000000146,
      "v": 127
    },
    {
      "midi": 41,
      "hit": false,
      "t": 105600.00000000003,
      "d": 873.333333333343,
      "v": 127
    },
    {
      "midi": 53,
      "hit": false,
      "t": 105613.33333333334,
      "d": 573.333333333343,
      "v": 69
    },
    {
      "midi": 81,
      "hit": false,
      "t": 105613.33333333334,
      "d": 800.0000000000146,
      "v": 65
    },
    {
      "midi": 77,
      "hit": false,
      "t": 105613.33333333334,
      "d": 806.6666666666861,
      "v": 65
    },
    {
      "midi": 48,
      "hit": false,
      "t": 105633.33333333334,
      "d": 546.6666666666715,
      "v": 69
    },
    {
      "midi": 72,
      "hit": false,
      "t": 106386.66666666669,
      "d": 386.6666666666715,
      "v": 65
    },
    {
      "midi": 53,
      "hit": false,
      "t": 106386.66666666669,
      "d": 460.00000000001455,
      "v": 69
    },
    {
      "midi": 48,
      "hit": false,
      "t": 106393.33333333336,
      "d": 426.6666666666715,
      "v": 69
    },
    {
      "midi": 65,
      "hit": false,
      "t": 106400.00000000004,
      "d": 420,
      "v": 127
    },
    {
      "midi": 60,
      "hit": false,
      "t": 106400.00000000004,
      "d": 440,
      "v": 127
    },
    {
      "midi": 69,
      "hit": false,
      "t": 106400.00000000004,
      "d": 460,
      "v": 127
    },
    {
      "midi": 77,
      "hit": false,
      "t": 106780.00000000003,
      "d": 373.33333333334303,
      "v": 65
    },
    {
      "midi": 81,
      "hit": false,
      "t": 106780.00000000003,
      "d": 380.00000000001455,
      "v": 65
    },
    {
      "midi": 41,
      "hit": false,
      "t": 106800.00000000004,
      "d": 420,
      "v": 127
    },
    {
      "midi": 48,
      "hit": false,
      "t": 107153.33333333337,
      "d": 446.6666666666715,
      "v": 69
    },
    {
      "midi": 45,
      "hit": false,
      "t": 107160.00000000004,
      "d": 413.3333333333285,
      "v": 69
    },
    {
      "midi": 81,
      "hit": false,
      "t": 107173.33333333337,
      "d": 833.333333333343,
      "v": 65
    },
    {
      "midi": 76,
      "hit": false,
      "t": 107173.33333333337,
      "d": 840.0000000000146,
      "v": 65
    },
    {
      "midi": 60,
      "hit": false,
      "t": 107200.00000000004,
      "d": 553.3333333333285,
      "v": 127
    },
    {
      "midi": 69,
      "hit": false,
      "t": 107200.00000000004,
      "d": 606.666666666657,
      "v": 127
    },
    {
      "midi": 64,
      "hit": false,
      "t": 107200.00000000004,
      "d": 633.3333333333285,
      "v": 127
    },
    {
      "midi": 45,
      "hit": false,
      "t": 107200.00000000004,
      "d": 900,
      "v": 127
    },
    {
      "midi": 48,
      "hit": false,
      "t": 107980.00000000004,
      "d": 393.33333333334303,
      "v": 69
    },
    {
      "midi": 45,
      "hit": false,
      "t": 107986.66666666672,
      "d": 360,
      "v": 69
    },
    {
      "midi": 72,
      "hit": false,
      "t": 107986.66666666672,
      "d": 426.6666666666715,
      "v": 65
    },
    {
      "midi": 69,
      "hit": false,
      "t": 108000.00000000004,
      "d": 426.6666666666715,
      "v": 127
    },
    {
      "midi": 64,
      "hit": false,
      "t": 108000.00000000004,
      "d": 440,
      "v": 127
    },
    {
      "midi": 60,
      "hit": false,
      "t": 108000.00000000004,
      "d": 446.6666666666715,
      "v": 127
    },
    {
      "midi": 81,
      "hit": false,
      "t": 108393.33333333339,
      "d": 326.66666666665697,
      "v": 65
    },
    {
      "midi": 45,
      "hit": false,
      "t": 108400.00000000004,
      "d": 286.6666666666715,
      "v": 127
    },
    {
      "midi": 76,
      "hit": false,
      "t": 108400.00000000006,
      "d": 286.66666666665697,
      "v": 65
    },
    {
      "midi": 62,
      "hit": false,
      "t": 108800.00000000004,
      "d": 566.6666666666715,
      "v": 127
    },
    {
      "midi": 72,
      "hit": false,
      "t": 108800.00000000004,
      "d": 613.333333333343,
      "v": 127
    },
    {
      "midi": 69,
      "hit": false,
      "t": 108800.00000000004,
      "d": 640.0000000000146,
      "v": 127
    },
    {
      "midi": 65,
      "hit": false,
      "t": 108800.00000000004,
      "d": 646.6666666666861,
      "v": 127
    },
    {
      "midi": 50,
      "hit": false,
      "t": 108800.00000000004,
      "d": 980.0000000000146,
      "v": 127
    },
    {
      "midi": 53,
      "hit": false,
      "t": 108800.00000000004,
      "d": 626.6666666666715,
      "v": 69
    },
    {
      "midi": 50,
      "hit": false,
      "t": 108806.66666666672,
      "d": 606.6666666666715,
      "v": 69
    },
    {
      "midi": 77,
      "hit": false,
      "t": 108813.33333333339,
      "d": 839.9999999999854,
      "v": 65
    },
    {
      "midi": 81,
      "hit": false,
      "t": 108813.33333333339,
      "d": 839.9999999999854,
      "v": 65
    },
    {
      "midi": 53,
      "hit": false,
      "t": 109600.00000000004,
      "d": 593.3333333333285,
      "v": 69
    },
    {
      "midi": 62,
      "hit": false,
      "t": 109600.00000000006,
      "d": 413.3333333333285,
      "v": 127
    },
    {
      "midi": 72,
      "hit": false,
      "t": 109600.00000000006,
      "d": 426.66666666665697,
      "v": 127
    },
    {
      "midi": 65,
      "hit": false,
      "t": 109600.00000000006,
      "d": 453.3333333333285,
      "v": 127
    },
    {
      "midi": 69,
      "hit": false,
      "t": 109600.00000000006,
      "d": 466.66666666665697,
      "v": 127
    },
    {
      "midi": 50,
      "hit": false,
      "t": 109606.66666666672,
      "d": 479.99999999998545,
      "v": 69
    },
    {
      "midi": 74,
      "hit": false,
      "t": 109620.00000000004,
      "d": 446.66666666665697,
      "v": 65
    },
    {
      "midi": 50,
      "hit": false,
      "t": 110000.00000000006,
      "d": 273.3333333333285,
      "v": 127
    },
    {
      "midi": 81,
      "hit": false,
      "t": 110046.6666666667,
      "d": 273.33333333334303,
      "v": 65
    },
    {
      "midi": 77,
      "hit": false,
      "t": 110053.33333333337,
      "d": 266.6666666666715,
      "v": 65
    },
    {
      "midi": 53,
      "hit": false,
      "t": 110386.66666666672,
      "d": 620.0000000000291,
      "v": 69
    },
    {
      "midi": 72,
      "hit": false,
      "t": 110393.33333333339,
      "d": 846.6666666667006,
      "v": 65
    },
    {
      "midi": 62,
      "hit": false,
      "t": 110400.00000000006,
      "d": 480,
      "v": 127
    },
    {
      "midi": 72,
      "hit": false,
      "t": 110400.00000000006,
      "d": 493.3333333333285,
      "v": 127
    },
    {
      "midi": 69,
      "hit": false,
      "t": 110400.00000000006,
      "d": 513.3333333333285,
      "v": 127
    },
    {
      "midi": 65,
      "hit": false,
      "t": 110400.00000000006,
      "d": 560,
      "v": 127
    },
    {
      "midi": 48,
      "hit": false,
      "t": 110400.00000000006,
      "d": 1020,
      "v": 127
    },
    {
      "midi": 48,
      "hit": false,
      "t": 110400.00000000006,
      "d": 573.333333333343,
      "v": 69
    },
    {
      "midi": 77,
      "hit": false,
      "t": 110440.00000000006,
      "d": 566.6666666666861,
      "v": 65
    },
    {
      "midi": 81,
      "hit": false,
      "t": 110446.66666666673,
      "d": 553.333333333343,
      "v": 65
    },
    {
      "midi": 53,
      "hit": false,
      "t": 111186.66666666674,
      "d": 420.00000000001455,
      "v": 69
    },
    {
      "midi": 48,
      "hit": false,
      "t": 111193.33333333342,
      "d": 406.6666666666715,
      "v": 69
    },
    {
      "midi": 62,
      "hit": false,
      "t": 111200.00000000006,
      "d": 373.3333333333285,
      "v": 127
    },
    {
      "midi": 65,
      "hit": false,
      "t": 111200.00000000006,
      "d": 400,
      "v": 127
    },
    {
      "midi": 69,
      "hit": false,
      "t": 111200.00000000006,
      "d": 413.3333333333285,
      "v": 127
    },
    {
      "midi": 72,
      "hit": false,
      "t": 111200.00000000006,
      "d": 420,
      "v": 127
    },
    {
      "midi": 81,
      "hit": false,
      "t": 111213.33333333342,
      "d": 406.66666666668607,
      "v": 65
    },
    {
      "midi": 77,
      "hit": false,
      "t": 111220.00000000009,
      "d": 393.33333333334303,
      "v": 65
    },
    {
      "midi": 48,
      "hit": false,
      "t": 111600.00000000006,
      "d": 293.3333333333285,
      "v": 127
    },
    {
      "midi": 72,
      "hit": false,
      "t": 111633.33333333343,
      "d": 200,
      "v": 65
    },
    {
      "midi": 62,
      "hit": false,
      "t": 112000.00000000006,
      "d": 546.6666666666715,
      "v": 127
    },
    {
      "midi": 71,
      "hit": false,
      "t": 112000.00000000006,
      "d": 593.333333333343,
      "v": 127
    },
    {
      "midi": 67,
      "hit": false,
      "t": 112000.00000000006,
      "d": 606.6666666666715,
      "v": 127
    },
    {
      "midi": 43,
      "hit": false,
      "t": 112000.00000000006,
      "d": 1026.6666666666715,
      "v": 127
    },
    {
      "midi": 55,
      "hit": false,
      "t": 112020.0000000001,
      "d": 653.333333333343,
      "v": 69
    },
    {
      "midi": 50,
      "hit": false,
      "t": 112026.66666666677,
      "d": 613.333333333343,
      "v": 69
    },
    {
      "midi": 79,
      "hit": false,
      "t": 112026.66666666677,
      "d": 826.6666666666715,
      "v": 65
    },
    {
      "midi": 83,
      "hit": false,
      "t": 112026.66666666677,
      "d": 833.333333333343,
      "v": 65
    },
    {
      "midi": 53,
      "hit": false,
      "t": 112033.33333333344,
      "d": 66.66666666667152,
      "v": 69
    },
    {
      "midi": 62,
      "hit": false,
      "t": 112800.00000000006,
      "d": 640,
      "v": 127
    },
    {
      "midi": 71,
      "hit": false,
      "t": 112800.00000000006,
      "d": 660,
      "v": 127
    },
    {
      "midi": 67,
      "hit": false,
      "t": 112800.00000000006,
      "d": 680,
      "v": 127
    },
    {
      "midi": 74,
      "hit": false,
      "t": 112806.66666666677,
      "d": 426.66666666668607,
      "v": 65
    },
    {
      "midi": 55,
      "hit": false,
      "t": 112813.33333333344,
      "d": 706.6666666666861,
      "v": 69
    },
    {
      "midi": 50,
      "hit": false,
      "t": 112820.00000000012,
      "d": 680.0000000000146,
      "v": 69
    },
    {
      "midi": 43,
      "hit": false,
      "t": 113200.00000000006,
      "d": 320,
      "v": 127
    },
    {
      "midi": 83,
      "hit": false,
      "t": 113220.00000000012,
      "d": 326.66666666668607,
      "v": 65
    },
    {
      "midi": 79,
      "hit": false,
      "t": 113226.66666666679,
      "d": 273.33333333334303,
      "v": 65
    },
    {
      "midi": 62,
      "hit": false,
      "t": 113600.00000000006,
      "d": 580,
      "v": 127
    },
    {
      "midi": 71,
      "hit": false,
      "t": 113600.00000000006,
      "d": 593.3333333333285,
      "v": 127
    },
    {
      "midi": 67,
      "hit": false,
      "t": 113600.00000000006,
      "d": 600,
      "v": 127
    },
    {
      "midi": 41,
      "hit": false,
      "t": 113600.00000000006,
      "d": 1080,
      "v": 127
    },
    {
      "midi": 83,
      "hit": false,
      "t": 113633.33333333347,
      "d": 773.333333333343,
      "v": 65
    },
    {
      "midi": 77,
      "hit": false,
      "t": 113640.00000000015,
      "d": 753.333333333343,
      "v": 65
    },
    {
      "midi": 74,
      "hit": false,
      "t": 114386.66666666682,
      "d": 386.6666666666715,
      "v": 65
    },
    {
      "midi": 62,
      "hit": false,
      "t": 114400.00000000006,
      "d": 500,
      "v": 127
    },
    {
      "midi": 67,
      "hit": false,
      "t": 114400.00000000006,
      "d": 526.6666666666715,
      "v": 127
    },
    {
      "midi": 71,
      "hit": false,
      "t": 114400.00000000006,
      "d": 533.333333333343,
      "v": 127
    },
    {
      "midi": 83,
      "hit": false,
      "t": 114780.00000000016,
      "d": 320,
      "v": 65
    },
    {
      "midi": 77,
      "hit": false,
      "t": 114786.66666666683,
      "d": 293.3333333333285,
      "v": 65
    },
    {
      "midi": 41,
      "hit": false,
      "t": 114800.00000000006,
      "d": 340.00000000001455,
      "v": 127
    },
    {
      "midi": 69,
      "hit": false,
      "t": 115200.00000000007,
      "d": 513.3333333333285,
      "v": 127
    },
    {
      "midi": 60,
      "hit": false,
      "t": 115200.00000000007,
      "d": 553.3333333333285,
      "v": 127
    },
    {
      "midi": 64,
      "hit": false,
      "t": 115200.00000000007,
      "d": 626.666666666657,
      "v": 127
    },
    {
      "midi": 45,
      "hit": false,
      "t": 115200.00000000007,
      "d": 1066.666666666657,
      "v": 127
    },
    {
      "midi": 81,
      "hit": false,
      "t": 115200.00000000016,
      "d": 113.33333333332848,
      "v": 65
    },
    {
      "midi": 76,
      "hit": false,
      "t": 115206.66666666683,
      "d": 93.33333333332848,
      "v": 65
    },
    {
      "midi": 45,
      "hit": false,
      "t": 115573.33333333349,
      "d": 400,
      "v": 69
    },
    {
      "midi": 81,
      "hit": false,
      "t": 115580.00000000016,
      "d": 120,
      "v": 65
    },
    {
      "midi": 76,
      "hit": false,
      "t": 115593.33333333349,
      "d": 86.66666666667152,
      "v": 65
    },
    {
      "midi": 69,
      "hit": false,
      "t": 116000.00000000006,
      "d": 660,
      "v": 127
    },
    {
      "midi": 60,
      "hit": false,
      "t": 116000.00000000006,
      "d": 666.6666666666715,
      "v": 127
    },
    {
      "midi": 64,
      "hit": false,
      "t": 116000.00000000006,
      "d": 686.6666666666715,
      "v": 127
    },
    {
      "midi": 76,
      "hit": false,
      "t": 116000.00000000016,
      "d": 113.33333333332848,
      "v": 65
    },
    {
      "midi": 81,
      "hit": false,
      "t": 116000.00000000016,
      "d": 133.33333333332848,
      "v": 65
    },
    {
      "midi": 81,
      "hit": false,
      "t": 116393.33333333349,
      "d": 93.33333333334303,
      "v": 65
    },
    {
      "midi": 76,
      "hit": false,
      "t": 116393.33333333349,
      "d": 100.00000000001455,
      "v": 65
    },
    {
      "midi": 45,
      "hit": false,
      "t": 116400.00000000006,
      "d": 346.6666666666715,
      "v": 127
    },
    {
      "midi": 45,
      "hit": false,
      "t": 116400.00000000016,
      "d": 360.00000000001455,
      "v": 69
    },
    {
      "midi": 79,
      "hit": false,
      "t": 116786.66666666685,
      "d": 113.33333333332848,
      "v": 65
    },
    {
      "midi": 69,
      "hit": false,
      "t": 116800.00000000006,
      "d": 586.6666666666715,
      "v": 127
    },
    {
      "midi": 60,
      "hit": false,
      "t": 116800.00000000006,
      "d": 593.333333333343,
      "v": 127
    },
    {
      "midi": 64,
      "hit": false,
      "t": 116800.00000000006,
      "d": 620.0000000000146,
      "v": 127
    },
    {
      "midi": 43,
      "hit": false,
      "t": 116800.00000000006,
      "d": 940.0000000000146,
      "v": 127
    },
    {
      "midi": 76,
      "hit": false,
      "t": 116800.00000000017,
      "d": 86.66666666667152,
      "v": 65
    },
    {
      "midi": 45,
      "hit": false,
      "t": 117186.66666666683,
      "d": 466.6666666666715,
      "v": 69
    },
    {
      "midi": 79,
      "hit": false,
      "t": 117193.3333333335,
      "d": 93.33333333334303,
      "v": 65
    },
    {
      "midi": 76,
      "hit": false,
      "t": 117200.00000000017,
      "d": 80,
      "v": 65
    },
    {
      "midi": 76,
      "hit": false,
      "t": 117586.66666666685,
      "d": 80,
      "v": 65
    },
    {
      "midi": 79,
      "hit": false,
      "t": 117586.66666666685,
      "d": 86.66666666667152,
      "v": 65
    },
    {
      "midi": 60,
      "hit": false,
      "t": 117600.00000000007,
      "d": 433.3333333333285,
      "v": 127
    },
    {
      "midi": 64,
      "hit": false,
      "t": 117600.00000000007,
      "d": 453.3333333333285,
      "v": 127
    },
    {
      "midi": 69,
      "hit": false,
      "t": 117600.00000000007,
      "d": 453.3333333333285,
      "v": 127
    },
    {
      "midi": 45,
      "hit": false,
      "t": 117980.00000000017,
      "d": 219.99999999998545,
      "v": 69
    },
    {
      "midi": 79,
      "hit": false,
      "t": 117993.3333333335,
      "d": 100,
      "v": 65
    },
    {
      "midi": 43,
      "hit": false,
      "t": 118000.00000000007,
      "d": 320,
      "v": 127
    },
    {
      "midi": 76,
      "hit": false,
      "t": 118000.00000000017,
      "d": 93.33333333332848,
      "v": 65
    },
    {
      "midi": 69,
      "hit": false,
      "t": 118400.00000000007,
      "d": 3033.3333333333285,
      "v": 127
    },
    {
      "midi": 64,
      "hit": false,
      "t": 118400.00000000007,
      "d": 3040,
      "v": 127
    },
    {
      "midi": 60,
      "hit": false,
      "t": 118400.00000000007,
      "d": 3086.6666666666715,
      "v": 127
    },
    {
      "midi": 42,
      "hit": false,
      "t": 118400.00000000007,
      "d": 3126.6666666666715,
      "v": 127
    },
    {
      "midi": 76,
      "hit": false,
      "t": 118413.33333333349,
      "d": 1026.6666666666715,
      "v": 65
    },
    {
      "midi": 78,
      "hit": false,
      "t": 118413.33333333349,
      "d": 1033.333333333343,
      "v": 65
    },
    {
      "midi": 57,
      "hit": false,
      "t": 118806.66666666683,
      "d": 400,
      "v": 65
    },
    {
      "midi": 69,
      "hit": false,
      "t": 118826.66666666672,
      "d": 400,
      "v": 127
    },
    {
      "midi": 60,
      "hit": false,
      "t": 119200.00000000016,
      "d": 413.33333333334303,
      "v": 65
    },
    {
      "midi": 72,
      "hit": false,
      "t": 119220.00000000004,
      "d": 373.33333333334303,
      "v": 127
    },
    {
      "midi": 76,
      "hit": false,
      "t": 119626.66666666672,
      "d": 393.3333333333285,
      "v": 127
    },
    {
      "midi": 64,
      "hit": false,
      "t": 119626.66666666683,
      "d": 406.6666666666715,
      "v": 65
    },
    {
      "midi": 74,
      "hit": false,
      "t": 120020.00000000004,
      "d": 793.3333333333285,
      "v": 127
    },
    {
      "midi": 62,
      "hit": false,
      "t": 120026.66666666683,
      "d": 833.333333333343,
      "v": 65
    },
    {
      "midi": 69,
      "hit": false,
      "t": 120060.00000000017,
      "d": 33.33333333332848,
      "v": 65
    },
    {
      "midi": 81,
      "hit": false,
      "t": 120073.3333333335,
      "d": 53.33333333332848,
      "v": 65
    },
    {
      "midi": 69,
      "hit": false,
      "t": 120113.3333333335,
      "d": 33.33333333332848,
      "v": 65
    },
    {
      "midi": 81,
      "hit": false,
      "t": 120160.00000000016,
      "d": 53.333333333343035,
      "v": 65
    },
    {
      "midi": 69,
      "hit": false,
      "t": 120166.66666666683,
      "d": 40,
      "v": 65
    },
    {
      "midi": 69,
      "hit": false,
      "t": 120226.66666666683,
      "d": 40,
      "v": 65
    },
    {
      "midi": 81,
      "hit": false,
      "t": 120260.00000000016,
      "d": 60,
      "v": 65
    },
    {
      "midi": 69,
      "hit": false,
      "t": 120286.66666666683,
      "d": 40,
      "v": 65
    },
    {
      "midi": 69,
      "hit": false,
      "t": 120340.00000000016,
      "d": 33.333333333343035,
      "v": 65
    },
    {
      "midi": 81,
      "hit": false,
      "t": 120346.66666666683,
      "d": 53.333333333343035,
      "v": 65
    },
    {
      "midi": 69,
      "hit": false,
      "t": 120400.00000000017,
      "d": 46.66666666667152,
      "v": 65
    },
    {
      "midi": 81,
      "hit": false,
      "t": 120440.00000000017,
      "d": 46.66666666667152,
      "v": 65
    },
    {
      "midi": 69,
      "hit": false,
      "t": 120460.00000000017,
      "d": 33.333333333343035,
      "v": 65
    },
    {
      "midi": 69,
      "hit": false,
      "t": 120520.00000000019,
      "d": 40,
      "v": 65
    },
    {
      "midi": 81,
      "hit": false,
      "t": 120526.66666666686,
      "d": 46.666666666656965,
      "v": 65
    },
    {
      "midi": 69,
      "hit": false,
      "t": 120573.33333333352,
      "d": 40,
      "v": 65
    },
    {
      "midi": 81,
      "hit": false,
      "t": 120600.00000000019,
      "d": 53.33333333332848,
      "v": 65
    },
    {
      "midi": 69,
      "hit": false,
      "t": 120633.33333333352,
      "d": 40,
      "v": 65
    },
    {
      "midi": 69,
      "hit": false,
      "t": 120686.66666666685,
      "d": 40,
      "v": 65
    },
    {
      "midi": 81,
      "hit": false,
      "t": 120686.66666666685,
      "d": 60,
      "v": 65
    },
    {
      "midi": 69,
      "hit": false,
      "t": 120746.66666666685,
      "d": 40,
      "v": 65
    },
    {
      "midi": 81,
      "hit": false,
      "t": 120766.66666666685,
      "d": 53.33333333332848,
      "v": 65
    },
    {
      "midi": 69,
      "hit": false,
      "t": 120800.00000000017,
      "d": 33.33333333332848,
      "v": 65
    },
    {
      "midi": 72,
      "hit": false,
      "t": 120813.33333333337,
      "d": 753.3333333333285,
      "v": 127
    },
    {
      "midi": 60,
      "hit": false,
      "t": 120846.66666666683,
      "d": 760,
      "v": 65
    },
    {
      "midi": 81,
      "hit": false,
      "t": 120853.3333333335,
      "d": 46.66666666667152,
      "v": 65
    },
    {
      "midi": 81,
      "hit": false,
      "t": 120940.00000000017,
      "d": 60,
      "v": 65
    },
    {
      "midi": 77,
      "hit": false,
      "t": 121593.3333333335,
      "d": 1106.6666666666715,
      "v": 95
    },
    {
      "midi": 60,
      "hit": false,
      "t": 121600.00000000007,
      "d": 700,
      "v": 127
    },
    {
      "midi": 69,
      "hit": false,
      "t": 121600.00000000007,
      "d": 726.6666666666715,
      "v": 127
    },
    {
      "midi": 65,
      "hit": false,
      "t": 121600.00000000007,
      "d": 733.333333333343,
      "v": 127
    },
    {
      "midi": 41,
      "hit": false,
      "t": 121600.00000000007,
      "d": 1386.666666666686,
      "v": 127
    },
    {
      "midi": 81,
      "hit": false,
      "t": 121613.3333333335,
      "d": 1193.333333333343,
      "v": 69
    },
    {
      "midi": 60,
      "hit": false,
      "t": 122400.00000000009,
      "d": 513.3333333333285,
      "v": 127
    },
    {
      "midi": 69,
      "hit": false,
      "t": 122400.00000000009,
      "d": 520,
      "v": 127
    },
    {
      "midi": 65,
      "hit": false,
      "t": 122400.00000000009,
      "d": 540,
      "v": 127
    },
    {
      "midi": 72,
      "hit": false,
      "t": 122793.3333333335,
      "d": 380.00000000001455,
      "v": 95
    },
    {
      "midi": 77,
      "hit": false,
      "t": 122800.00000000017,
      "d": 386.6666666666715,
      "v": 69
    },
    {
      "midi": 68,
      "hit": false,
      "t": 123200.00000000009,
      "d": 566.6666666666715,
      "v": 127
    },
    {
      "midi": 60,
      "hit": false,
      "t": 123200.00000000009,
      "d": 606.6666666666715,
      "v": 127
    },
    {
      "midi": 63,
      "hit": false,
      "t": 123200.00000000009,
      "d": 613.333333333343,
      "v": 127
    },
    {
      "midi": 44,
      "hit": false,
      "t": 123200.00000000009,
      "d": 1486.666666666686,
      "v": 127
    },
    {
      "midi": 72,
      "hit": false,
      "t": 123206.66666666685,
      "d": 720,
      "v": 69
    },
    {
      "midi": 68,
      "hit": false,
      "t": 123206.66666666685,
      "d": 773.3333333333285,
      "v": 95
    },
    {
      "midi": 60,
      "hit": false,
      "t": 124000.0000000001,
      "d": 546.6666666666715,
      "v": 127
    },
    {
      "midi": 63,
      "hit": false,
      "t": 124000.0000000001,
      "d": 560,
      "v": 127
    },
    {
      "midi": 68,
      "hit": false,
      "t": 124000.0000000001,
      "d": 580,
      "v": 127
    },
    {
      "midi": 67,
      "hit": false,
      "t": 124006.66666666685,
      "d": 593.333333333343,
      "v": 69
    },
    {
      "midi": 70,
      "hit": false,
      "t": 124013.33333333352,
      "d": 713.333333333343,
      "v": 95
    },
    {
      "midi": 52,
      "hit": false,
      "t": 124800.00000000003,
      "d": 2180,
      "v": 127
    },
    {
      "midi": 60,
      "hit": false,
      "t": 124800.00000000003,
      "d": 2853.333333333343,
      "v": 90
    },
    {
      "midi": 43,
      "hit": false,
      "t": 124800.0000000001,
      "d": 3153.333333333343,
      "v": 90
    },
    {
      "midi": 64,
      "hit": false,
      "t": 124820.00000000003,
      "d": 2786.6666666666715,
      "v": 90
    },
    {
      "midi": 52,
      "hit": false,
      "t": 124820.00000000019,
      "d": 2360,
      "v": 69
    },
    {
      "midi": 48,
      "hit": false,
      "t": 124826.66666666686,
      "d": 2393.3333333333285,
      "v": 69
    },
    {
      "midi": 66,
      "hit": false,
      "t": 124833.33333333336,
      "d": 20,
      "v": 90
    },
    {
      "midi": 67,
      "hit": false,
      "t": 124846.66666666677,
      "d": 2780,
      "v": 127
    },
    {
      "midi": 48,
      "hit": false,
      "t": 126800.00000000003,
      "d": 306.6666666666715,
      "v": 127
    },
    {
      "midi": 51,
      "hit": false,
      "t": 127000.00000000003,
      "d": 353.3333333333285,
      "v": 127
    },
    {
      "midi": 52,
      "hit": false,
      "t": 127200.00000000003,
      "d": 353.3333333333285,
      "v": 127
    },
    {
      "midi": 48,
      "hit": false,
      "t": 127400.00000000003,
      "d": 260.00000000001455,
      "v": 127
    },
    {
      "midi": 51,
      "hit": false,
      "t": 127600.00000000003,
      "d": 226.66666666668607,
      "v": 127
    },
    {
      "midi": 52,
      "hit": false,
      "t": 127800.00000000004,
      "d": 233.33333333332848,
      "v": 127
    },
    {
      "midi": 60,
      "hit": false,
      "t": 127906.66666666677,
      "d": 2886.666666666657,
      "v": 127
    },
    {
      "midi": 60,
      "hit": false,
      "t": 127953.33333333339,
      "d": 2346.666666666657,
      "v": 90
    },
    {
      "midi": 41,
      "hit": false,
      "t": 127953.33333333344,
      "d": 3219.9999999999854,
      "v": 90
    },
    {
      "midi": 65,
      "hit": false,
      "t": 127966.66666666672,
      "d": 2300,
      "v": 90
    },
    {
      "midi": 53,
      "hit": false,
      "t": 127966.66666666677,
      "d": 3153.333333333343,
      "v": 127
    },
    {
      "midi": 53,
      "hit": false,
      "t": 127966.66666666686,
      "d": 2686.6666666666715,
      "v": 69
    },
    {
      "midi": 48,
      "hit": false,
      "t": 127973.33333333353,
      "d": 2733.3333333333285,
      "v": 69
    },
    {
      "midi": 65,
      "hit": false,
      "t": 127986.66666666677,
      "d": 2733.3333333333285,
      "v": 127
    },
    {
      "midi": 53,
      "hit": false,
      "t": 128000.00000000004,
      "d": 573.3333333333285,
      "v": 127
    },
    {
      "midi": 69,
      "hit": false,
      "t": 128026.66666666677,
      "d": 2673.3333333333285,
      "v": 127
    },
    {
      "midi": 52,
      "hit": false,
      "t": 128600.00000000004,
      "d": 660,
      "v": 127
    },
    {
      "midi": 48,
      "hit": false,
      "t": 129200.00000000004,
      "d": 1220,
      "v": 127
    },
    {
      "midi": 60,
      "hit": false,
      "t": 130400.00000000004,
      "d": 673.3333333333285,
      "v": 90
    },
    {
      "midi": 53,
      "hit": false,
      "t": 130400.00000000004,
      "d": 819.9999999999854,
      "v": 127
    },
    {
      "midi": 65,
      "hit": false,
      "t": 130413.33333333337,
      "d": 646.6666666666715,
      "v": 90
    },
    {
      "midi": 60,
      "hit": false,
      "t": 131086.66666666677,
      "d": 2919.999999999971,
      "v": 127
    },
    {
      "midi": 48,
      "hit": false,
      "t": 131100.00000000012,
      "d": 3233.333333333314,
      "v": 127
    },
    {
      "midi": 64,
      "hit": false,
      "t": 131166.66666666677,
      "d": 2813.333333333314,
      "v": 127
    },
    {
      "midi": 43,
      "hit": false,
      "t": 131193.33333333343,
      "d": 3166.666666666657,
      "v": 90
    },
    {
      "midi": 52,
      "hit": false,
      "t": 131200.00000000003,
      "d": 2126.666666666657,
      "v": 127
    },
    {
      "midi": 64,
      "hit": false,
      "t": 131200.00000000003,
      "d": 2826.666666666657,
      "v": 90
    },
    {
      "midi": 60,
      "hit": false,
      "t": 131200.00000000003,
      "d": 2860,
      "v": 90
    },
    {
      "midi": 67,
      "hit": false,
      "t": 131213.33333333343,
      "d": 2760,
      "v": 127
    },
    {
      "midi": 52,
      "hit": false,
      "t": 131220.0000000002,
      "d": 2626.666666666657,
      "v": 69
    },
    {
      "midi": 48,
      "hit": false,
      "t": 131220.0000000002,
      "d": 2680,
      "v": 69
    },
    {
      "midi": 48,
      "hit": false,
      "t": 133200.00000000003,
      "d": 273.33333333334303,
      "v": 127
    },
    {
      "midi": 51,
      "hit": false,
      "t": 133400.00000000003,
      "d": 266.66666666665697,
      "v": 127
    },
    {
      "midi": 52,
      "hit": false,
      "t": 133600.00000000003,
      "d": 280,
      "v": 127
    },
    {
      "midi": 48,
      "hit": false,
      "t": 133800.00000000003,
      "d": 280,
      "v": 127
    },
    {
      "midi": 51,
      "hit": false,
      "t": 134000.00000000003,
      "d": 240,
      "v": 127
    },
    {
      "midi": 52,
      "hit": false,
      "t": 134200.00000000003,
      "d": 306.66666666665697,
      "v": 127
    },
    {
      "midi": 60,
      "hit": false,
      "t": 134280.0000000001,
      "d": 3133.333333333343,
      "v": 127
    },
    {
      "midi": 53,
      "hit": false,
      "t": 134340.0000000001,
      "d": 3113.333333333343,
      "v": 127
    },
    {
      "midi": 60,
      "hit": false,
      "t": 134360.00000000003,
      "d": 2220,
      "v": 90
    },
    {
      "midi": 65,
      "hit": false,
      "t": 134360.0000000001,
      "d": 3073.333333333343,
      "v": 127
    },
    {
      "midi": 65,
      "hit": false,
      "t": 134373.33333333337,
      "d": 2186.666666666657,
      "v": 90
    },
    {
      "midi": 53,
      "hit": false,
      "t": 134373.33333333355,
      "d": 2139.999999999971,
      "v": 69
    },
    {
      "midi": 41,
      "hit": false,
      "t": 134380.0000000001,
      "d": 2926.666666666686,
      "v": 90
    },
    {
      "midi": 48,
      "hit": false,
      "t": 134380.0000000002,
      "d": 2126.666666666657,
      "v": 69
    },
    {
      "midi": 53,
      "hit": false,
      "t": 134400.00000000003,
      "d": 600,
      "v": 127
    },
    {
      "midi": 69,
      "hit": false,
      "t": 134453.33333333343,
      "d": 2953.333333333343,
      "v": 127
    },
    {
      "midi": 52,
      "hit": false,
      "t": 135000.00000000003,
      "d": 800,
      "v": 127
    },
    {
      "midi": 48,
      "hit": false,
      "t": 135600.00000000003,
      "d": 1140,
      "v": 127
    },
    {
      "midi": 53,
      "hit": false,
      "t": 136773.33333333352,
      "d": 533.333333333343,
      "v": 69
    },
    {
      "midi": 48,
      "hit": false,
      "t": 136773.33333333352,
      "d": 566.6666666666861,
      "v": 69
    },
    {
      "midi": 65,
      "hit": false,
      "t": 136793.33333333337,
      "d": 660,
      "v": 90
    },
    {
      "midi": 60,
      "hit": false,
      "t": 136793.33333333337,
      "d": 666.666666666657,
      "v": 90
    },
    {
      "midi": 53,
      "hit": false,
      "t": 136800.00000000003,
      "d": 786.666666666657,
      "v": 127
    },
    {
      "midi": 52,
      "hit": false,
      "t": 137573.33333333355,
      "d": 3133.333333333314,
      "v": 69
    },
    {
      "midi": 48,
      "hit": false,
      "t": 137580.0000000002,
      "d": 3140,
      "v": 69
    },
    {
      "midi": 52,
      "hit": false,
      "t": 137600.00000000003,
      "d": 2020,
      "v": 127
    },
    {
      "midi": 43,
      "hit": false,
      "t": 137600.00000000006,
      "d": 2880.000000000029,
      "v": 90
    },
    {
      "midi": 60,
      "hit": false,
      "t": 137620.00000000006,
      "d": 2800.000000000029,
      "v": 127
    },
    {
      "midi": 48,
      "hit": false,
      "t": 137673.3333333334,
      "d": 2926.666666666686,
      "v": 127
    },
    {
      "midi": 64,
      "hit": false,
      "t": 137686.66666666674,
      "d": 2700,
      "v": 127
    },
    {
      "midi": 67,
      "hit": false,
      "t": 137786.66666666674,
      "d": 2546.666666666657,
      "v": 127
    },
    {
      "midi": 48,
      "hit": false,
      "t": 139600.00000000003,
      "d": 260,
      "v": 127
    },
    {
      "midi": 51,
      "hit": false,
      "t": 139800.00000000003,
      "d": 193.33333333334303,
      "v": 127
    },
    {
      "midi": 52,
      "hit": false,
      "t": 140000.00000000003,
      "d": 226.66666666665697,
      "v": 127
    },
    {
      "midi": 48,
      "hit": false,
      "t": 140200.00000000003,
      "d": 240,
      "v": 127
    },
    {
      "midi": 51,
      "hit": false,
      "t": 140400.00000000003,
      "d": 206.66666666665697,
      "v": 127
    },
    {
      "midi": 52,
      "hit": false,
      "t": 140600.00000000003,
      "d": 240,
      "v": 127
    },
    {
      "midi": 60,
      "hit": false,
      "t": 140746.66666666674,
      "d": 2853.333333333314,
      "v": 127
    },
    {
      "midi": 65,
      "hit": false,
      "t": 140753.3333333334,
      "d": 2820,
      "v": 127
    },
    {
      "midi": 41,
      "hit": false,
      "t": 140753.3333333334,
      "d": 2966.666666666657,
      "v": 90
    },
    {
      "midi": 53,
      "hit": false,
      "t": 140760.00000000006,
      "d": 3239.999999999971,
      "v": 127
    },
    {
      "midi": 69,
      "hit": false,
      "t": 140773.3333333334,
      "d": 2766.666666666657,
      "v": 127
    },
    {
      "midi": 53,
      "hit": false,
      "t": 140800.00000000003,
      "d": 593.333333333343,
      "v": 127
    },
    {
      "midi": 52,
      "hit": false,
      "t": 141400.00000000003,
      "d": 640,
      "v": 127
    },
    {
      "midi": 53,
      "hit": false,
      "t": 141933.33333333355,
      "d": 786.6666666666861,
      "v": 69
    },
    {
      "midi": 48,
      "hit": false,
      "t": 141946.6666666669,
      "d": 773.333333333343,
      "v": 69
    },
    {
      "midi": 48,
      "hit": false,
      "t": 142000.00000000003,
      "d": 1280,
      "v": 127
    },
    {
      "midi": 53,
      "hit": false,
      "t": 143146.6666666669,
      "d": 466.66666666665697,
      "v": 69
    },
    {
      "midi": 48,
      "hit": false,
      "t": 143146.6666666669,
      "d": 493.33333333331393,
      "v": 69
    },
    {
      "midi": 53,
      "hit": false,
      "t": 143200.00000000003,
      "d": 773.333333333343,
      "v": 127
    },
    {
      "midi": 60,
      "hit": false,
      "t": 143946.66666666672,
      "d": 5126.666666666628,
      "v": 127
    },
    {
      "midi": 52,
      "hit": false,
      "t": 143966.66666666686,
      "d": 2046.666666666657,
      "v": 69
    },
    {
      "midi": 64,
      "hit": false,
      "t": 143973.33333333337,
      "d": 3106.666666666657,
      "v": 127
    },
    {
      "midi": 48,
      "hit": false,
      "t": 143973.33333333352,
      "d": 2053.333333333343,
      "v": 69
    },
    {
      "midi": 48,
      "hit": false,
      "t": 143980.00000000003,
      "d": 3086.666666666657,
      "v": 127
    },
    {
      "midi": 43,
      "hit": false,
      "t": 143980.00000000003,
      "d": 3193.333333333314,
      "v": 90
    },
    {
      "midi": 67,
      "hit": false,
      "t": 143993.33333333337,
      "d": 2993.333333333314,
      "v": 127
    },
    {
      "midi": 52,
      "hit": false,
      "t": 144000.00000000003,
      "d": 2026.666666666657,
      "v": 127
    },
    {
      "midi": 48,
      "hit": false,
      "t": 146000.00000000003,
      "d": 266.66666666665697,
      "v": 127
    },
    {
      "midi": 51,
      "hit": false,
      "t": 146200.00000000003,
      "d": 160,
      "v": 127
    },
    {
      "midi": 52,
      "hit": false,
      "t": 146400.00000000003,
      "d": 213.33333333334303,
      "v": 127
    },
    {
      "midi": 48,
      "hit": false,
      "t": 146600.00000000003,
      "d": 260,
      "v": 127
    },
    {
      "midi": 51,
      "hit": false,
      "t": 146800.00000000003,
      "d": 213.33333333334303,
      "v": 127
    },
    {
      "midi": 52,
      "hit": false,
      "t": 147000.00000000003,
      "d": 200,
      "v": 127
    },
    {
      "midi": 48,
      "hit": false,
      "t": 147146.6666666667,
      "d": 866.666666666657,
      "v": 127
    },
    {
      "midi": 64,
      "hit": false,
      "t": 147153.33333333334,
      "d": 3139.999999999971,
      "v": 127
    },
    {
      "midi": 67,
      "hit": false,
      "t": 147160,
      "d": 3080,
      "v": 127
    },
    {
      "midi": 36,
      "hit": false,
      "t": 147180,
      "d": 280,
      "v": 90
    },
    {
      "midi": 48,
      "hit": false,
      "t": 147200.00000000003,
      "d": 406.66666666665697,
      "v": 127
    },
    {
      "midi": 36,
      "hit": false,
      "t": 147573.33333333334,
      "d": 220,
      "v": 90
    },
    {
      "midi": 52,
      "hit": false,
      "t": 147586.66666666686,
      "d": 173.33333333334303,
      "v": 69
    },
    {
      "midi": 51,
      "hit": false,
      "t": 147600.00000000003,
      "d": 146.66666666665697,
      "v": 127
    },
    {
      "midi": 52,
      "hit": false,
      "t": 147600.00000000003,
      "d": 726.666666666657,
      "v": 127
    },
    {
      "midi": 48,
      "hit": false,
      "t": 148373.33333333355,
      "d": 1673.333333333343,
      "v": 69
    },
    {
      "midi": 48,
      "hit": false,
      "t": 148393.33333333334,
      "d": 726.666666666657,
      "v": 90
    },
    {
      "midi": 52,
      "hit": false,
      "t": 148393.33333333355,
      "d": 1613.333333333343,
      "v": 69
    },
    {
      "midi": 36,
      "hit": false,
      "t": 148400,
      "d": 633.333333333343,
      "v": 90
    },
    {
      "midi": 48,
      "hit": false,
      "t": 148400.00000000003,
      "d": 1873.333333333343,
      "v": 127
    },
    {
      "midi": 36,
      "hit": false,
      "t": 149126.66666666666,
      "d": 1140,
      "v": 90
    },
    {
      "midi": 60,
      "hit": false,
      "t": 149220,
      "d": 1079.999999999971,
      "v": 127
    },
    {
      "midi": 48,
      "hit": false,
      "t": 150040,
      "d": 333.33333333331393,
      "v": 127
    },
    {
      "midi": 52,
      "hit": false,
      "t": 150393.33333333355,
      "d": 2246.666666666657,
      "v": 69
    },
    {
      "midi": 48,
      "hit": false,
      "t": 150393.33333333355,
      "d": 2253.333333333314,
      "v": 69
    },
    {
      "midi": 60,
      "hit": false,
      "t": 150399.99999999997,
      "d": 2926.666666666628,
      "v": 127
    },
    {
      "midi": 52,
      "hit": false,
      "t": 150400.00000000003,
      "d": 2020,
      "v": 127
    },
    {
      "midi": 36,
      "hit": false,
      "t": 150419.99999999997,
      "d": 1153.333333333314,
      "v": 90
    },
    {
      "midi": 48,
      "hit": false,
      "t": 150419.99999999997,
      "d": 2613.333333333314,
      "v": 127
    },
    {
      "midi": 64,
      "hit": false,
      "t": 150419.99999999997,
      "d": 2859.999999999971,
      "v": 127
    },
    {
      "midi": 67,
      "hit": false,
      "t": 150426.66666666663,
      "d": 2799.999999999971,
      "v": 127
    },
    {
      "midi": 43,
      "hit": false,
      "t": 151566.66666666663,
      "d": 1719.999999999971,
      "v": 90
    },
    {
      "midi": 48,
      "hit": false,
      "t": 152400.00000000003,
      "d": 260,
      "v": 127
    },
    {
      "midi": 51,
      "hit": false,
      "t": 152600.00000000003,
      "d": 193.33333333334303,
      "v": 127
    },
    {
      "midi": 52,
      "hit": false,
      "t": 152800.00000000003,
      "d": 226.66666666665697,
      "v": 127
    },
    {
      "midi": 48,
      "hit": false,
      "t": 153000.00000000003,
      "d": 240,
      "v": 127
    },
    {
      "midi": 48,
      "hit": false,
      "t": 153179.99999999994,
      "d": 433.33333333331393,
      "v": 127
    },
    {
      "midi": 48,
      "hit": false,
      "t": 153186.66666666686,
      "d": 160,
      "v": 69
    },
    {
      "midi": 52,
      "hit": false,
      "t": 153193.33333333352,
      "d": 140,
      "v": 69
    },
    {
      "midi": 51,
      "hit": false,
      "t": 153200.00000000003,
      "d": 206.66666666665697,
      "v": 127
    },
    {
      "midi": 52,
      "hit": false,
      "t": 153400.00000000003,
      "d": 240,
      "v": 127
    },
    {
      "midi": 60,
      "hit": false,
      "t": 153533.33333333326,
      "d": 3053.333333333343,
      "v": 127
    },
    {
      "midi": 53,
      "hit": false,
      "t": 153560.0000000002,
      "d": 2033.333333333343,
      "v": 69
    },
    {
      "midi": 65,
      "hit": false,
      "t": 153566.6666666666,
      "d": 2806.666666666657,
      "v": 127
    },
    {
      "midi": 53,
      "hit": false,
      "t": 153573.33333333326,
      "d": 2280,
      "v": 127
    },
    {
      "midi": 48,
      "hit": false,
      "t": 153573.33333333355,
      "d": 2040,
      "v": 69
    },
    {
      "midi": 69,
      "hit": false,
      "t": 153586.6666666666,
      "d": 2746.666666666657,
      "v": 127
    },
    {
      "midi": 43,
      "hit": false,
      "t": 153593.33333333326,
      "d": 40,
      "v": 90
    },
    {
      "midi": 41,
      "hit": false,
      "t": 153599.9999999999,
      "d": 3160,
      "v": 90
    },
    {
      "midi": 53,
      "hit": false,
      "t": 153600.00000000003,
      "d": 593.333333333343,
      "v": 127
    },
    {
      "midi": 52,
      "hit": false,
      "t": 154200.00000000003,
      "d": 640,
      "v": 127
    },
    {
      "midi": 48,
      "hit": false,
      "t": 154800.00000000003,
      "d": 1280,
      "v": 127
    },
    {
      "midi": 53,
      "hit": false,
      "t": 155946.6666666669,
      "d": 440,
      "v": 69
    },
    {
      "midi": 48,
      "hit": false,
      "t": 155960.00000000023,
      "d": 473.33333333331393,
      "v": 69
    },
    {
      "midi": 53,
      "hit": false,
      "t": 156000.00000000003,
      "d": 773.333333333343,
      "v": 127
    },
    {
      "midi": 53,
      "hit": false,
      "t": 156013.33333333326,
      "d": 740,
      "v": 127
    },
    {
      "midi": 43,
      "hit": false,
      "t": 156766.66666666657,
      "d": 3186.666666666657,
      "v": 90
    },
    {
      "midi": 60,
      "hit": false,
      "t": 156786.66666666657,
      "d": 3419.999999999971,
      "v": 127
    },
    {
      "midi": 48,
      "hit": false,
      "t": 156793.33333333323,
      "d": 2340,
      "v": 127
    },
    {
      "midi": 52,
      "hit": false,
      "t": 156793.33333333355,
      "d": 3446.666666666657,
      "v": 69
    },
    {
      "midi": 52,
      "hit": false,
      "t": 156800.00000000003,
      "d": 2026.666666666657,
      "v": 127
    },
    {
      "midi": 48,
      "hit": false,
      "t": 156800.0000000002,
      "d": 3106.666666666657,
      "v": 69
    },
    {
      "midi": 67,
      "hit": false,
      "t": 156813.33333333323,
      "d": 3440,
      "v": 127
    },
    {
      "midi": 64,
      "hit": false,
      "t": 156819.99999999988,
      "d": 3420,
      "v": 127
    },
    {
      "midi": 48,
      "hit": false,
      "t": 158800.00000000003,
      "d": 266.66666666665697,
      "v": 127
    },
    {
      "midi": 51,
      "hit": false,
      "t": 159000.00000000003,
      "d": 160,
      "v": 127
    },
    {
      "midi": 52,
      "hit": false,
      "t": 159200.00000000003,
      "d": 213.33333333334303,
      "v": 127
    },
    {
      "midi": 48,
      "hit": false,
      "t": 159206.66666666657,
      "d": 700,
      "v": 127
    },
    {
      "midi": 48,
      "hit": false,
      "t": 159400.00000000003,
      "d": 260,
      "v": 127
    },
    {
      "midi": 51,
      "hit": false,
      "t": 159600.00000000003,
      "d": 213.33333333334303,
      "v": 127
    },
    {
      "midi": 52,
      "hit": false,
      "t": 159800.00000000003,
      "d": 200,
      "v": 127
    },
    {
      "midi": 36,
      "hit": false,
      "t": 159973.33333333323,
      "d": 433.33333333331393,
      "v": 90
    },
    {
      "midi": 48,
      "hit": false,
      "t": 159999.99999999988,
      "d": 786.666666666657,
      "v": 127
    },
    {
      "midi": 48,
      "hit": false,
      "t": 160000.00000000003,
      "d": 406.66666666665697,
      "v": 127
    },
    {
      "midi": 48,
      "hit": false,
      "t": 160026.66666666686,
      "d": 240,
      "v": 69
    },
    {
      "midi": 67,
      "hit": false,
      "t": 160373.33333333323,
      "d": 2333.333333333314,
      "v": 127
    },
    {
      "midi": 48,
      "hit": false,
      "t": 160373.33333333352,
      "d": 200,
      "v": 69
    },
    {
      "midi": 52,
      "hit": false,
      "t": 160380.00000000017,
      "d": 180,
      "v": 69
    },
    {
      "midi": 51,
      "hit": false,
      "t": 160400.00000000003,
      "d": 146.66666666665697,
      "v": 127
    },
    {
      "midi": 52,
      "hit": false,
      "t": 160400.00000000003,
      "d": 726.666666666657,
      "v": 127
    },
    {
      "midi": 43,
      "hit": false,
      "t": 160419.99999999988,
      "d": 833.333333333343,
      "v": 90
    },
    {
      "midi": 60,
      "hit": false,
      "t": 160486.66666666654,
      "d": 726.6666666666861,
      "v": 127
    },
    {
      "midi": 52,
      "hit": false,
      "t": 161186.66666666686,
      "d": 1373.333333333343,
      "v": 69
    },
    {
      "midi": 48,
      "hit": false,
      "t": 161186.66666666686,
      "d": 1540,
      "v": 69
    },
    {
      "midi": 48,
      "hit": false,
      "t": 161199.99999999988,
      "d": 1113.333333333343,
      "v": 127
    },
    {
      "midi": 36,
      "hit": false,
      "t": 161233.33333333323,
      "d": 713.333333333343,
      "v": 90
    },
    {
      "midi": 60,
      "hit": false,
      "t": 161966.66666666657,
      "d": 746.6666666666279,
      "v": 127
    },
    {
      "midi": 36,
      "hit": false,
      "t": 162019.9999999999,
      "d": 373.33333333331393,
      "v": 90
    },
    {
      "midi": 64,
      "hit": false,
      "t": 162026.66666666657,
      "d": 373.33333333331393,
      "v": 127
    },
    {
      "midi": 48,
      "hit": false,
      "t": 162033.33333333337,
      "d": 420,
      "v": 127
    },
    {
      "midi": 38,
      "hit": false,
      "t": 162386.66666666657,
      "d": 393.3333333332848,
      "v": 90
    },
    {
      "midi": 65,
      "hit": false,
      "t": 162439.99999999988,
      "d": 366.66666666662786,
      "v": 127
    },
    {
      "midi": 50,
      "hit": false,
      "t": 162440.00000000003,
      "d": 373.33333333334303,
      "v": 127
    },
    {
      "midi": 48,
      "hit": false,
      "t": 162446.66666666654,
      "d": 626.6666666666279,
      "v": 127
    },
    {
      "midi": 40,
      "hit": false,
      "t": 162786.6666666665,
      "d": 386.66666666665697,
      "v": 90
    },
    {
      "midi": 67,
      "hit": false,
      "t": 162793.33333333317,
      "d": 360,
      "v": 127
    },
    {
      "midi": 52,
      "hit": false,
      "t": 162820.00000000003,
      "d": 366.66666666665697,
      "v": 127
    },
    {
      "midi": 53,
      "hit": false,
      "t": 163193.33333333352,
      "d": 593.333333333343,
      "v": 69
    },
    {
      "midi": 60,
      "hit": false,
      "t": 163199.99999999983,
      "d": 673.333333333343,
      "v": 127
    },
    {
      "midi": 69,
      "hit": false,
      "t": 163199.99999999983,
      "d": 686.6666666666861,
      "v": 127
    },
    {
      "midi": 65,
      "hit": false,
      "t": 163199.99999999983,
      "d": 720.0000000000291,
      "v": 127
    },
    {
      "midi": 41,
      "hit": false,
      "t": 163199.99999999983,
      "d": 1100.000000000029,
      "v": 127
    },
    {
      "midi": 69,
      "hit": false,
      "t": 163200.00000000003,
      "d": 1380,
      "v": 127
    },
    {
      "midi": 65,
      "hit": false,
      "t": 163200.00000000003,
      "d": 1400,
      "v": 127
    },
    {
      "midi": 48,
      "hit": false,
      "t": 163206.66666666686,
      "d": 633.333333333343,
      "v": 69
    },
    {
      "midi": 53,
      "hit": false,
      "t": 163966.66666666686,
      "d": 560,
      "v": 69
    },
    {
      "midi": 48,
      "hit": false,
      "t": 163973.33333333352,
      "d": 560,
      "v": 69
    },
    {
      "midi": 60,
      "hit": false,
      "t": 163999.99999999985,
      "d": 586.666666666657,
      "v": 127
    },
    {
      "midi": 69,
      "hit": false,
      "t": 163999.99999999985,
      "d": 593.3333333333139,
      "v": 127
    },
    {
      "midi": 65,
      "hit": false,
      "t": 163999.99999999985,
      "d": 679.9999999999709,
      "v": 127
    },
    {
      "midi": 41,
      "hit": false,
      "t": 164399.99999999985,
      "d": 413.33333333331393,
      "v": 127
    },
    {
      "midi": 53,
      "hit": false,
      "t": 164786.66666666686,
      "d": 646.666666666657,
      "v": 69
    },
    {
      "midi": 50,
      "hit": false,
      "t": 164793.33333333352,
      "d": 633.333333333343,
      "v": 69
    },
    {
      "midi": 62,
      "hit": false,
      "t": 164799.99999999983,
      "d": 606.6666666666861,
      "v": 127
    },
    {
      "midi": 69,
      "hit": false,
      "t": 164799.99999999983,
      "d": 606.6666666666861,
      "v": 127
    },
    {
      "midi": 65,
      "hit": false,
      "t": 164799.99999999983,
      "d": 706.6666666666861,
      "v": 127
    },
    {
      "midi": 50,
      "hit": false,
      "t": 164799.99999999983,
      "d": 1146.666666666686,
      "v": 127
    },
    {
      "midi": 65,
      "hit": false,
      "t": 164800.00000000003,
      "d": 1360,
      "v": 127
    },
    {
      "midi": 62,
      "hit": false,
      "t": 164800.00000000003,
      "d": 1420,
      "v": 127
    },
    {
      "midi": 69,
      "hit": false,
      "t": 165599.99999999985,
      "d": 446.66666666665697,
      "v": 127
    },
    {
      "midi": 65,
      "hit": false,
      "t": 165599.99999999985,
      "d": 466.66666666665697,
      "v": 127
    },
    {
      "midi": 62,
      "hit": false,
      "t": 165599.99999999985,
      "d": 513.3333333333139,
      "v": 127
    },
    {
      "midi": 53,
      "hit": false,
      "t": 165600.00000000017,
      "d": 306.66666666668607,
      "v": 69
    },
    {
      "midi": 50,
      "hit": false,
      "t": 165613.33333333352,
      "d": 353.33333333334303,
      "v": 69
    },
    {
      "midi": 50,
      "hit": false,
      "t": 165999.99999999985,
      "d": 399.9999999999709,
      "v": 127
    },
    {
      "midi": 62,
      "hit": false,
      "t": 166399.99999999983,
      "d": 733.333333333343,
      "v": 127
    },
    {
      "midi": 71,
      "hit": false,
      "t": 166399.99999999983,
      "d": 740,
      "v": 127
    },
    {
      "midi": 67,
      "hit": false,
      "t": 166399.99999999983,
      "d": 753.333333333343,
      "v": 127
    },
    {
      "midi": 43,
      "hit": false,
      "t": 166399.99999999983,
      "d": 1086.666666666657,
      "v": 127
    },
    {
      "midi": 67,
      "hit": false,
      "t": 166400.00000000003,
      "d": 1326.666666666657,
      "v": 127
    },
    {
      "midi": 71,
      "hit": false,
      "t": 166400.00000000003,
      "d": 1380,
      "v": 127
    },
    {
      "midi": 55,
      "hit": false,
      "t": 166406.66666666686,
      "d": 606.666666666657,
      "v": 69
    },
    {
      "midi": 50,
      "hit": false,
      "t": 166420.0000000002,
      "d": 586.666666666657,
      "v": 69
    },
    {
      "midi": 55,
      "hit": false,
      "t": 167193.33333333352,
      "d": 660,
      "v": 69
    },
    {
      "midi": 62,
      "hit": false,
      "t": 167199.99999999983,
      "d": 620,
      "v": 127
    },
    {
      "midi": 71,
      "hit": false,
      "t": 167199.99999999983,
      "d": 640,
      "v": 127
    },
    {
      "midi": 67,
      "hit": false,
      "t": 167199.99999999983,
      "d": 680,
      "v": 127
    },
    {
      "midi": 50,
      "hit": false,
      "t": 167200.00000000017,
      "d": 680,
      "v": 69
    },
    {
      "midi": 43,
      "hit": false,
      "t": 167599.99999999983,
      "d": 673.333333333343,
      "v": 127
    },
    {
      "midi": 55,
      "hit": false,
      "t": 167973.33333333352,
      "d": 673.333333333343,
      "v": 69
    },
    {
      "midi": 50,
      "hit": false,
      "t": 167986.66666666686,
      "d": 680,
      "v": 69
    },
    {
      "midi": 62,
      "hit": false,
      "t": 167999.99999999983,
      "d": 633.333333333343,
      "v": 127
    },
    {
      "midi": 67,
      "hit": false,
      "t": 167999.99999999983,
      "d": 633.333333333343,
      "v": 127
    },
    {
      "midi": 71,
      "hit": false,
      "t": 167999.99999999983,
      "d": 646.6666666666861,
      "v": 127
    },
    {
      "midi": 69,
      "hit": false,
      "t": 168000.00000000003,
      "d": 433.33333333334303,
      "v": 127
    },
    {
      "midi": 72,
      "hit": false,
      "t": 168000.00000000003,
      "d": 440,
      "v": 127
    },
    {
      "midi": 43,
      "hit": false,
      "t": 168399.99999999983,
      "d": 446.66666666668607,
      "v": 127
    },
    {
      "midi": 67,
      "hit": false,
      "t": 168600.00000000003,
      "d": 420,
      "v": 127
    },
    {
      "midi": 71,
      "hit": false,
      "t": 168600.00000000003,
      "d": 433.33333333334303,
      "v": 127
    },
    {
      "midi": 45,
      "hit": false,
      "t": 168799.99999999985,
      "d": 233.33333333334303,
      "v": 127
    },
    {
      "midi": 71,
      "hit": false,
      "t": 168799.99999999985,
      "d": 520,
      "v": 127
    },
    {
      "midi": 66,
      "hit": false,
      "t": 168799.99999999985,
      "d": 553.333333333343,
      "v": 127
    },
    {
      "midi": 62,
      "hit": false,
      "t": 168799.99999999985,
      "d": 606.6666666666861,
      "v": 127
    },
    {
      "midi": 55,
      "hit": false,
      "t": 168800.0000000002,
      "d": 400,
      "v": 69
    },
    {
      "midi": 50,
      "hit": false,
      "t": 168800.0000000002,
      "d": 413.33333333334303,
      "v": 69
    },
    {
      "midi": 47,
      "hit": false,
      "t": 168999.99999999985,
      "d": 640.0000000000291,
      "v": 127
    },
    {
      "midi": 65,
      "hit": false,
      "t": 169200.00000000003,
      "d": 306.66666666665697,
      "v": 127
    },
    {
      "midi": 62,
      "hit": false,
      "t": 169200.00000000003,
      "d": 333.33333333331393,
      "v": 127
    },
    {
      "midi": 48,
      "hit": false,
      "t": 169566.6666666669,
      "d": 573.3333333333139,
      "v": 69
    },
    {
      "midi": 53,
      "hit": false,
      "t": 169573.33333333355,
      "d": 560,
      "v": 69
    },
    {
      "midi": 69,
      "hit": false,
      "t": 169599.99999999988,
      "d": 566.666666666657,
      "v": 127
    },
    {
      "midi": 60,
      "hit": false,
      "t": 169599.99999999988,
      "d": 626.666666666657,
      "v": 127
    },
    {
      "midi": 65,
      "hit": false,
      "t": 169599.99999999988,
      "d": 660,
      "v": 127
    },
    {
      "midi": 41,
      "hit": false,
      "t": 169599.99999999988,
      "d": 1073.333333333343,
      "v": 127
    },
    {
      "midi": 65,
      "hit": false,
      "t": 169600,
      "d": 1520,
      "v": 127
    },
    {
      "midi": 69,
      "hit": false,
      "t": 169600,
      "d": 1540,
      "v": 127
    },
    {
      "midi": 53,
      "hit": false,
      "t": 170360.0000000002,
      "d": 473.33333333331393,
      "v": 69
    },
    {
      "midi": 48,
      "hit": false,
      "t": 170366.66666666686,
      "d": 446.66666666665697,
      "v": 69
    },
    {
      "midi": 60,
      "hit": false,
      "t": 170399.99999999988,
      "d": 533.333333333343,
      "v": 127
    },
    {
      "midi": 69,
      "hit": false,
      "t": 170399.99999999988,
      "d": 546.6666666666861,
      "v": 127
    },
    {
      "midi": 65,
      "hit": false,
      "t": 170399.99999999988,
      "d": 620.0000000000291,
      "v": 127
    },
    {
      "midi": 41,
      "hit": false,
      "t": 170799.99999999988,
      "d": 380.0000000000291,
      "v": 127
    },
    {
      "midi": 53,
      "hit": false,
      "t": 171160.00000000017,
      "d": 600,
      "v": 69
    },
    {
      "midi": 50,
      "hit": false,
      "t": 171166.66666666683,
      "d": 553.333333333343,
      "v": 69
    },
    {
      "midi": 48,
      "hit": false,
      "t": 171173.3333333335,
      "d": 153.33333333334303,
      "v": 69
    },
    {
      "midi": 69,
      "hit": false,
      "t": 171199.9999999999,
      "d": 613.333333333343,
      "v": 127
    },
    {
      "midi": 62,
      "hit": false,
      "t": 171199.9999999999,
      "d": 620,
      "v": 127
    },
    {
      "midi": 65,
      "hit": false,
      "t": 171199.9999999999,
      "d": 686.666666666657,
      "v": 127
    },
    {
      "midi": 50,
      "hit": false,
      "t": 171199.9999999999,
      "d": 1120,
      "v": 127
    },
    {
      "midi": 65,
      "hit": false,
      "t": 171200,
      "d": 1360,
      "v": 127
    },
    {
      "midi": 62,
      "hit": false,
      "t": 171200,
      "d": 1426.666666666657,
      "v": 127
    },
    {
      "midi": 53,
      "hit": false,
      "t": 171993.33333333352,
      "d": 320,
      "v": 69
    },
    {
      "midi": 69,
      "hit": false,
      "t": 171999.9999999999,
      "d": 493.33333333334303,
      "v": 127
    },
    {
      "midi": 65,
      "hit": false,
      "t": 171999.9999999999,
      "d": 566.6666666666861,
      "v": 127
    },
    {
      "midi": 62,
      "hit": false,
      "t": 171999.9999999999,
      "d": 586.6666666666861,
      "v": 127
    },
    {
      "midi": 50,
      "hit": false,
      "t": 172000.00000000017,
      "d": 413.33333333334303,
      "v": 69
    },
    {
      "midi": 50,
      "hit": false,
      "t": 172399.9999999999,
      "d": 373.33333333334303,
      "v": 127
    },
    {
      "midi": 55,
      "hit": false,
      "t": 172780.00000000017,
      "d": 600,
      "v": 69
    },
    {
      "midi": 50,
      "hit": false,
      "t": 172786.66666666683,
      "d": 600,
      "v": 69
    },
    {
      "midi": 62,
      "hit": false,
      "t": 172799.9999999999,
      "d": 640,
      "v": 127
    },
    {
      "midi": 71,
      "hit": false,
      "t": 172799.9999999999,
      "d": 680,
      "v": 127
    },
    {
      "midi": 67,
      "hit": false,
      "t": 172799.9999999999,
      "d": 693.333333333343,
      "v": 127
    },
    {
      "midi": 43,
      "hit": false,
      "t": 172799.9999999999,
      "d": 1060,
      "v": 127
    },
    {
      "midi": 71,
      "hit": false,
      "t": 172800,
      "d": 2993.333333333343,
      "v": 127
    },
    {
      "midi": 67,
      "hit": false,
      "t": 172800,
      "d": 3120,
      "v": 127
    },
    {
      "midi": 55,
      "hit": false,
      "t": 173546.66666666683,
      "d": 713.3333333333139,
      "v": 69
    },
    {
      "midi": 50,
      "hit": false,
      "t": 173553.3333333335,
      "d": 706.666666666657,
      "v": 69
    },
    {
      "midi": 62,
      "hit": false,
      "t": 173599.9999999999,
      "d": 660,
      "v": 127
    },
    {
      "midi": 71,
      "hit": false,
      "t": 173599.9999999999,
      "d": 673.333333333343,
      "v": 127
    },
    {
      "midi": 67,
      "hit": false,
      "t": 173599.9999999999,
      "d": 726.6666666666861,
      "v": 127
    },
    {
      "midi": 43,
      "hit": false,
      "t": 173999.9999999999,
      "d": 293.33333333334303,
      "v": 127
    },
    {
      "midi": 55,
      "hit": false,
      "t": 174386.6666666668,
      "d": 646.666666666657,
      "v": 69
    },
    {
      "midi": 50,
      "hit": false,
      "t": 174393.33333333346,
      "d": 666.666666666657,
      "v": 69
    },
    {
      "midi": 71,
      "hit": false,
      "t": 174399.99999999994,
      "d": 740,
      "v": 127
    },
    {
      "midi": 62,
      "hit": false,
      "t": 174399.99999999994,
      "d": 746.666666666657,
      "v": 127
    },
    {
      "midi": 67,
      "hit": false,
      "t": 174399.99999999994,
      "d": 780,
      "v": 127
    },
    {
      "midi": 43,
      "hit": false,
      "t": 174399.99999999994,
      "d": 1086.666666666657,
      "v": 127
    },
    {
      "midi": 55,
      "hit": false,
      "t": 175173.33333333346,
      "d": 713.333333333343,
      "v": 69
    },
    {
      "midi": 50,
      "hit": false,
      "t": 175180.00000000012,
      "d": 693.333333333343,
      "v": 69
    },
    {
      "midi": 71,
      "hit": false,
      "t": 175199.99999999994,
      "d": 620,
      "v": 127
    },
    {
      "midi": 62,
      "hit": false,
      "t": 175199.99999999994,
      "d": 653.333333333343,
      "v": 127
    },
    {
      "midi": 67,
      "hit": false,
      "t": 175199.99999999994,
      "d": 673.333333333343,
      "v": 127
    },
    {
      "midi": 43,
      "hit": false,
      "t": 175599.99999999994,
      "d": 273.33333333334303,
      "v": 127
    },
    {
      "midi": 43,
      "hit": false,
      "t": 176000,
      "d": 246.66666666665697,
      "v": 127
    },
    {
      "midi": 55,
      "hit": false,
      "t": 176000,
      "d": 440,
      "v": 127
    },
    {
      "midi": 59,
      "hit": false,
      "t": 176000,
      "d": 440,
      "v": 127
    },
    {
      "midi": 71,
      "hit": false,
      "t": 176000,
      "d": 646.666666666657,
      "v": 127
    },
    {
      "midi": 55,
      "hit": false,
      "t": 176000.00000000015,
      "d": 633.333333333343,
      "v": 69
    },
    {
      "midi": 67,
      "hit": false,
      "t": 176006.66666666666,
      "d": 620,
      "v": 127
    },
    {
      "midi": 50,
      "hit": false,
      "t": 176006.6666666668,
      "d": 613.333333333343,
      "v": 69
    },
    {
      "midi": 67,
      "hit": false,
      "t": 176033.33333333328,
      "d": 680,
      "v": 127
    },
    {
      "midi": 62,
      "hit": false,
      "t": 176040,
      "d": 373.33333333334303,
      "v": 127
    },
    {
      "midi": 71,
      "hit": false,
      "t": 176046.66666666663,
      "d": 660,
      "v": 127
    },
    {
      "midi": 62,
      "hit": false,
      "t": 176053.33333333328,
      "d": 640,
      "v": 127
    },
    {
      "midi": 43,
      "hit": false,
      "t": 176360,
      "d": 520,
      "v": 127
    },
    {
      "midi": 55,
      "hit": false,
      "t": 176626.66666666666,
      "d": 400,
      "v": 127
    },
    {
      "midi": 59,
      "hit": false,
      "t": 176626.66666666666,
      "d": 413.33333333334303,
      "v": 127
    },
    {
      "midi": 62,
      "hit": false,
      "t": 176633.3333333333,
      "d": 386.66666666668607,
      "v": 127
    },
    {
      "midi": 55,
      "hit": false,
      "t": 176746.66666666683,
      "d": 280,
      "v": 69
    },
    {
      "midi": 50,
      "hit": false,
      "t": 176753.3333333335,
      "d": 260,
      "v": 69
    },
    {
      "midi": 71,
      "hit": false,
      "t": 176780,
      "d": 713.3333333333139,
      "v": 127
    },
    {
      "midi": 67,
      "hit": false,
      "t": 176786.66666666666,
      "d": 700,
      "v": 127
    },
    {
      "midi": 71,
      "hit": false,
      "t": 176799.99999999994,
      "d": 686.6666666666861,
      "v": 127
    },
    {
      "midi": 67,
      "hit": false,
      "t": 176799.99999999994,
      "d": 693.333333333343,
      "v": 127
    },
    {
      "midi": 62,
      "hit": false,
      "t": 176813.33333333328,
      "d": 653.333333333343,
      "v": 127
    },
    {
      "midi": 43,
      "hit": false,
      "t": 176993.33333333334,
      "d": 140,
      "v": 127
    },
    {
      "midi": 55,
      "hit": false,
      "t": 177153.3333333335,
      "d": 93.33333333334303,
      "v": 69
    },
    {
      "midi": 50,
      "hit": false,
      "t": 177166.66666666683,
      "d": 86.66666666665697,
      "v": 69
    },
    {
      "midi": 59,
      "hit": false,
      "t": 177186.6666666667,
      "d": 1146.6666666666279,
      "v": 127
    },
    {
      "midi": 55,
      "hit": false,
      "t": 177193.33333333334,
      "d": 1126.6666666666279,
      "v": 127
    },
    {
      "midi": 62,
      "hit": false,
      "t": 177200,
      "d": 1006.6666666666279,
      "v": 127
    },
    {
      "midi": 55,
      "hit": false,
      "t": 177366.66666666683,
      "d": 506.66666666665697,
      "v": 69
    },
    {
      "midi": 50,
      "hit": false,
      "t": 177373.3333333335,
      "d": 486.66666666665697,
      "v": 69
    },
    {
      "midi": 71,
      "hit": false,
      "t": 177599.99999999994,
      "d": 366.66666666665697,
      "v": 127
    },
    {
      "midi": 67,
      "hit": false,
      "t": 177599.99999999997,
      "d": 253.33333333334303,
      "v": 127
    },
    {
      "midi": 71,
      "hit": false,
      "t": 177599.99999999997,
      "d": 260,
      "v": 127
    },
    {
      "midi": 67,
      "hit": false,
      "t": 177606.6666666666,
      "d": 373.33333333334303,
      "v": 127
    },
    {
      "midi": 62,
      "hit": false,
      "t": 177613.33333333326,
      "d": 320,
      "v": 127
    },
    {
      "midi": 55,
      "hit": false,
      "t": 178013.3333333335,
      "d": 280,
      "v": 69
    },
    {
      "midi": 62,
      "hit": false,
      "t": 178019.99999999994,
      "d": 406.66666666668607,
      "v": 127
    },
    {
      "midi": 71,
      "hit": false,
      "t": 178019.99999999997,
      "d": 313.33333333334303,
      "v": 127
    },
    {
      "midi": 43,
      "hit": false,
      "t": 178026.66666666663,
      "d": 293.33333333334303,
      "v": 127
    },
    {
      "midi": 50,
      "hit": false,
      "t": 178026.66666666683,
      "d": 240,
      "v": 69
    },
    {
      "midi": 55,
      "hit": false,
      "t": 178373.3333333335,
      "d": 346.66666666665697,
      "v": 69
    },
    {
      "midi": 50,
      "hit": false,
      "t": 178386.66666666683,
      "d": 326.66666666665697,
      "v": 69
    },
    {
      "midi": 64,
      "hit": false,
      "t": 178413.33333333328,
      "d": 206.66666666665697,
      "v": 127
    },
    {
      "midi": 72,
      "hit": false,
      "t": 178413.3333333333,
      "d": 113.33333333331393,
      "v": 127
    },
    {
      "midi": 43,
      "hit": false,
      "t": 178426.66666666666,
      "d": 106.66666666662786,
      "v": 127
    },
    {
      "midi": 59,
      "hit": false,
      "t": 178433.3333333333,
      "d": 106.66666666662786,
      "v": 127
    },
    {
      "midi": 55,
      "hit": false,
      "t": 178439.99999999997,
      "d": 99.9999999999709,
      "v": 127
    },
    {
      "midi": 43,
      "hit": false,
      "t": 178606.6666666666,
      "d": 226.66666666665697,
      "v": 127
    },
    {
      "midi": 55,
      "hit": false,
      "t": 178613.33333333326,
      "d": 253.33333333334303,
      "v": 127
    },
    {
      "midi": 59,
      "hit": false,
      "t": 178613.33333333326,
      "d": 266.66666666668607,
      "v": 127
    },
    {
      "midi": 67,
      "hit": false,
      "t": 178613.33333333328,
      "d": 433.33333333331393,
      "v": 127
    },
    {
      "midi": 74,
      "hit": false,
      "t": 178633.33333333326,
      "d": 333.33333333334303,
      "v": 127
    },
    {
      "midi": 55,
      "hit": false,
      "t": 178813.3333333335,
      "d": 220,
      "v": 69
    },
    {
      "midi": 50,
      "hit": false,
      "t": 178826.66666666683,
      "d": 206.66666666665697,
      "v": 69
    },
    {
      "midi": 60,
      "hit": false,
      "t": 179199.99999999994,
      "d": 673.333333333343,
      "v": 127
    },
    {
      "midi": 69,
      "hit": false,
      "t": 179199.99999999994,
      "d": 686.6666666666861,
      "v": 127
    },
    {
      "midi": 65,
      "hit": false,
      "t": 179199.99999999994,
      "d": 713.333333333343,
      "v": 127
    },
    {
      "midi": 41,
      "hit": false,
      "t": 179199.99999999994,
      "d": 1040,
      "v": 127
    },
    {
      "midi": 81,
      "hit": false,
      "t": 179240.00000000015,
      "d": 753.3333333333139,
      "v": 65
    },
    {
      "midi": 53,
      "hit": false,
      "t": 179253.3333333335,
      "d": 213.33333333331393,
      "v": 69
    },
    {
      "midi": 77,
      "hit": false,
      "t": 179253.3333333335,
      "d": 753.3333333333139,
      "v": 65
    },
    {
      "midi": 48,
      "hit": false,
      "t": 179260.00000000015,
      "d": 206.66666666665697,
      "v": 69
    },
    {
      "midi": 53,
      "hit": false,
      "t": 179620.00000000015,
      "d": 213.33333333331393,
      "v": 69
    },
    {
      "midi": 48,
      "hit": false,
      "t": 179626.6666666668,
      "d": 213.33333333331393,
      "v": 69
    },
    {
      "midi": 60,
      "hit": false,
      "t": 179999.99999999994,
      "d": 406.66666666665697,
      "v": 127
    },
    {
      "midi": 69,
      "hit": false,
      "t": 179999.99999999994,
      "d": 406.66666666665697,
      "v": 127
    },
    {
      "midi": 65,
      "hit": false,
      "t": 179999.99999999994,
      "d": 420,
      "v": 127
    },
    {
      "midi": 53,
      "hit": false,
      "t": 180013.33333333346,
      "d": 426.66666666662786,
      "v": 69
    },
    {
      "midi": 72,
      "hit": false,
      "t": 180020.00000000012,
      "d": 360,
      "v": 65
    },
    {
      "midi": 48,
      "hit": false,
      "t": 180020.00000000012,
      "d": 399.9999999999709,
      "v": 69
    },
    {
      "midi": 77,
      "hit": false,
      "t": 180386.66666666677,
      "d": 320,
      "v": 65
    },
    {
      "midi": 41,
      "hit": false,
      "t": 180399.99999999994,
      "d": 446.66666666665697,
      "v": 127
    },
    {
      "midi": 81,
      "hit": false,
      "t": 180413.33333333343,
      "d": 280,
      "v": 65
    },
    {
      "midi": 62,
      "hit": false,
      "t": 180799.99999999994,
      "d": 613.3333333333139,
      "v": 127
    },
    {
      "midi": 71,
      "hit": false,
      "t": 180799.99999999994,
      "d": 619.9999999999709,
      "v": 127
    },
    {
      "midi": 67,
      "hit": false,
      "t": 180799.99999999994,
      "d": 673.3333333333139,
      "v": 127
    },
    {
      "midi": 43,
      "hit": false,
      "t": 180799.99999999994,
      "d": 866.6666666666279,
      "v": 127
    },
    {
      "midi": 79,
      "hit": false,
      "t": 180806.66666666677,
      "d": 780,
      "v": 65
    },
    {
      "midi": 83,
      "hit": false,
      "t": 180820.00000000012,
      "d": 779.9999999999709,
      "v": 65
    },
    {
      "midi": 53,
      "hit": false,
      "t": 180906.66666666677,
      "d": 26.666666666656965,
      "v": 69
    },
    {
      "midi": 74,
      "hit": false,
      "t": 181593.33333333343,
      "d": 380,
      "v": 65
    },
    {
      "midi": 71,
      "hit": false,
      "t": 181599.9999999999,
      "d": 406.66666666665697,
      "v": 127
    },
    {
      "midi": 67,
      "hit": false,
      "t": 181599.9999999999,
      "d": 420,
      "v": 127
    },
    {
      "midi": 62,
      "hit": false,
      "t": 181599.9999999999,
      "d": 426.66666666665697,
      "v": 127
    },
    {
      "midi": 79,
      "hit": false,
      "t": 181973.33333333343,
      "d": 300,
      "v": 65
    },
    {
      "midi": 43,
      "hit": false,
      "t": 181999.9999999999,
      "d": 413.33333333334303,
      "v": 127
    },
    {
      "midi": 83,
      "hit": false,
      "t": 182006.66666666677,
      "d": 293.33333333331393,
      "v": 65
    },
    {
      "midi": 48,
      "hit": false,
      "t": 182333.33333333343,
      "d": 526.666666666657,
      "v": 69
    },
    {
      "midi": 52,
      "hit": false,
      "t": 182340.0000000001,
      "d": 500,
      "v": 69
    },
    {
      "midi": 67,
      "hit": false,
      "t": 182399.9999999999,
      "d": 593.333333333343,
      "v": 127
    },
    {
      "midi": 60,
      "hit": false,
      "t": 182399.9999999999,
      "d": 626.6666666666861,
      "v": 127
    },
    {
      "midi": 64,
      "hit": false,
      "t": 182399.9999999999,
      "d": 646.6666666666861,
      "v": 127
    },
    {
      "midi": 48,
      "hit": false,
      "t": 182399.9999999999,
      "d": 1000.0000000000291,
      "v": 127
    },
    {
      "midi": 79,
      "hit": false,
      "t": 182400.0000000001,
      "d": 826.666666666657,
      "v": 65
    },
    {
      "midi": 76,
      "hit": false,
      "t": 182400.0000000001,
      "d": 860,
      "v": 65
    },
    {
      "midi": 52,
      "hit": false,
      "t": 183193.33333333343,
      "d": 386.66666666665697,
      "v": 69
    },
    {
      "midi": 67,
      "hit": false,
      "t": 183199.99999999994,
      "d": 426.66666666665697,
      "v": 127
    },
    {
      "midi": 60,
      "hit": false,
      "t": 183199.99999999994,
      "d": 460,
      "v": 127
    },
    {
      "midi": 64,
      "hit": false,
      "t": 183199.99999999994,
      "d": 460,
      "v": 127
    },
    {
      "midi": 48,
      "hit": false,
      "t": 183200.0000000001,
      "d": 433.33333333331393,
      "v": 69
    },
    {
      "midi": 72,
      "hit": false,
      "t": 183220.0000000001,
      "d": 346.66666666665697,
      "v": 65
    },
    {
      "midi": 48,
      "hit": false,
      "t": 183599.99999999994,
      "d": 460,
      "v": 127
    },
    {
      "midi": 76,
      "hit": false,
      "t": 183606.66666666674,
      "d": 333.33333333331393,
      "v": 65
    },
    {
      "midi": 79,
      "hit": false,
      "t": 183606.66666666674,
      "d": 339.9999999999709,
      "v": 65
    },
    {
      "midi": 48,
      "hit": false,
      "t": 183973.33333333337,
      "d": 606.666666666657,
      "v": 69
    },
    {
      "midi": 45,
      "hit": false,
      "t": 183986.66666666672,
      "d": 586.666666666657,
      "v": 69
    },
    {
      "midi": 64,
      "hit": false,
      "t": 183999.99999999994,
      "d": 593.333333333343,
      "v": 127
    },
    {
      "midi": 57,
      "hit": false,
      "t": 183999.99999999994,
      "d": 626.6666666666861,
      "v": 127
    },
    {
      "midi": 60,
      "hit": false,
      "t": 183999.99999999994,
      "d": 660.0000000000291,
      "v": 127
    },
    {
      "midi": 45,
      "hit": false,
      "t": 183999.99999999994,
      "d": 993.3333333333721,
      "v": 127
    },
    {
      "midi": 81,
      "hit": false,
      "t": 184013.33333333337,
      "d": 786.666666666657,
      "v": 65
    },
    {
      "midi": 76,
      "hit": false,
      "t": 184020.00000000003,
      "d": 760,
      "v": 65
    },
    {
      "midi": 72,
      "hit": false,
      "t": 184786.6666666667,
      "d": 380,
      "v": 65
    },
    {
      "midi": 57,
      "hit": false,
      "t": 184799.99999999997,
      "d": 440,
      "v": 127
    },
    {
      "midi": 60,
      "hit": false,
      "t": 184799.99999999997,
      "d": 466.66666666665697,
      "v": 127
    },
    {
      "midi": 64,
      "hit": false,
      "t": 184799.99999999997,
      "d": 480,
      "v": 127
    },
    {
      "midi": 45,
      "hit": false,
      "t": 184800.00000000003,
      "d": 426.66666666665697,
      "v": 69
    },
    {
      "midi": 48,
      "hit": false,
      "t": 184800.00000000003,
      "d": 426.66666666665697,
      "v": 69
    },
    {
      "midi": 45,
      "hit": false,
      "t": 185199.99999999997,
      "d": 246.66666666665697,
      "v": 127
    },
    {
      "midi": 81,
      "hit": false,
      "t": 185200.00000000003,
      "d": 280,
      "v": 65
    },
    {
      "midi": 76,
      "hit": false,
      "t": 185206.6666666667,
      "d": 253.33333333334303,
      "v": 65
    },
    {
      "midi": 53,
      "hit": false,
      "t": 185573.33333333337,
      "d": 560,
      "v": 69
    },
    {
      "midi": 48,
      "hit": false,
      "t": 185586.66666666672,
      "d": 513.3333333333139,
      "v": 69
    },
    {
      "midi": 60,
      "hit": false,
      "t": 185599.99999999997,
      "d": 546.666666666657,
      "v": 127
    },
    {
      "midi": 69,
      "hit": false,
      "t": 185599.99999999997,
      "d": 593.3333333333139,
      "v": 127
    },
    {
      "midi": 65,
      "hit": false,
      "t": 185599.99999999997,
      "d": 619.9999999999709,
      "v": 127
    },
    {
      "midi": 41,
      "hit": false,
      "t": 185599.99999999997,
      "d": 873.3333333333139,
      "v": 127
    },
    {
      "midi": 81,
      "hit": false,
      "t": 185613.33333333337,
      "d": 800,
      "v": 65
    },
    {
      "midi": 77,
      "hit": false,
      "t": 185613.33333333337,
      "d": 806.666666666657,
      "v": 65
    },
    {
      "midi": 72,
      "hit": false,
      "t": 186386.66666666672,
      "d": 386.66666666665697,
      "v": 65
    },
    {
      "midi": 53,
      "hit": false,
      "t": 186393.33333333337,
      "d": 240,
      "v": 69
    },
    {
      "midi": 65,
      "hit": false,
      "t": 186399.99999999994,
      "d": 420,
      "v": 127
    },
    {
      "midi": 60,
      "hit": false,
      "t": 186399.99999999994,
      "d": 440,
      "v": 127
    },
    {
      "midi": 69,
      "hit": false,
      "t": 186399.99999999994,
      "d": 460,
      "v": 127
    },
    {
      "midi": 48,
      "hit": false,
      "t": 186400.00000000003,
      "d": 233.33333333334303,
      "v": 69
    },
    {
      "midi": 77,
      "hit": false,
      "t": 186780.00000000003,
      "d": 373.33333333331393,
      "v": 65
    },
    {
      "midi": 81,
      "hit": false,
      "t": 186780.00000000003,
      "d": 379.9999999999709,
      "v": 65
    },
    {
      "midi": 41,
      "hit": false,
      "t": 186799.99999999994,
      "d": 420,
      "v": 127
    },
    {
      "midi": 53,
      "hit": false,
      "t": 186806.6666666667,
      "d": 140,
      "v": 69
    },
    {
      "midi": 48,
      "hit": false,
      "t": 186813.33333333334,
      "d": 153.33333333334303,
      "v": 69
    },
    {
      "midi": 81,
      "hit": false,
      "t": 187173.33333333334,
      "d": 833.3333333333139,
      "v": 65
    },
    {
      "midi": 76,
      "hit": false,
      "t": 187173.33333333334,
      "d": 839.9999999999709,
      "v": 65
    },
    {
      "midi": 48,
      "hit": false,
      "t": 187193.33333333334,
      "d": 593.3333333333139,
      "v": 69
    },
    {
      "midi": 60,
      "hit": false,
      "t": 187199.99999999994,
      "d": 553.333333333343,
      "v": 127
    },
    {
      "midi": 69,
      "hit": false,
      "t": 187199.99999999994,
      "d": 606.6666666666861,
      "v": 127
    },
    {
      "midi": 64,
      "hit": false,
      "t": 187199.99999999994,
      "d": 633.333333333343,
      "v": 127
    },
    {
      "midi": 45,
      "hit": false,
      "t": 187199.99999999994,
      "d": 900,
      "v": 127
    },
    {
      "midi": 45,
      "hit": false,
      "t": 187200,
      "d": 566.666666666657,
      "v": 69
    },
    {
      "midi": 72,
      "hit": false,
      "t": 187986.66666666666,
      "d": 426.66666666665697,
      "v": 65
    },
    {
      "midi": 69,
      "hit": false,
      "t": 187999.99999999994,
      "d": 426.66666666665697,
      "v": 127
    },
    {
      "midi": 64,
      "hit": false,
      "t": 187999.99999999994,
      "d": 440,
      "v": 127
    },
    {
      "midi": 60,
      "hit": false,
      "t": 187999.99999999994,
      "d": 446.66666666665697,
      "v": 127
    },
    {
      "midi": 48,
      "hit": false,
      "t": 188000,
      "d": 226.66666666665697,
      "v": 69
    },
    {
      "midi": 45,
      "hit": false,
      "t": 188006.66666666666,
      "d": 186.66666666665697,
      "v": 69
    },
    {
      "midi": 48,
      "hit": false,
      "t": 188373.3333333333,
      "d": 173.33333333334303,
      "v": 69
    },
    {
      "midi": 45,
      "hit": false,
      "t": 188379.99999999997,
      "d": 146.66666666668607,
      "v": 69
    },
    {
      "midi": 81,
      "hit": false,
      "t": 188393.3333333333,
      "d": 326.66666666668607,
      "v": 65
    },
    {
      "midi": 45,
      "hit": false,
      "t": 188399.99999999994,
      "d": 286.66666666665697,
      "v": 127
    },
    {
      "midi": 76,
      "hit": false,
      "t": 188399.99999999997,
      "d": 286.66666666668607,
      "v": 65
    },
    {
      "midi": 53,
      "hit": false,
      "t": 188793.33333333334,
      "d": 713.3333333333139,
      "v": 69
    },
    {
      "midi": 62,
      "hit": false,
      "t": 188799.99999999994,
      "d": 566.666666666657,
      "v": 127
    },
    {
      "midi": 72,
      "hit": false,
      "t": 188799.99999999994,
      "d": 613.3333333333139,
      "v": 127
    },
    {
      "midi": 69,
      "hit": false,
      "t": 188799.99999999994,
      "d": 639.9999999999709,
      "v": 127
    },
    {
      "midi": 65,
      "hit": false,
      "t": 188799.99999999994,
      "d": 646.6666666666279,
      "v": 127
    },
    {
      "midi": 50,
      "hit": false,
      "t": 188799.99999999994,
      "d": 979.9999999999709,
      "v": 127
    },
    {
      "midi": 50,
      "hit": false,
      "t": 188800,
      "d": 660,
      "v": 69
    },
    {
      "midi": 77,
      "hit": false,
      "t": 188813.33333333334,
      "d": 839.9999999999709,
      "v": 65
    },
    {
      "midi": 81,
      "hit": false,
      "t": 188813.33333333334,
      "d": 839.9999999999709,
      "v": 65
    },
    {
      "midi": 62,
      "hit": false,
      "t": 189599.9999999999,
      "d": 413.33333333334303,
      "v": 127
    },
    {
      "midi": 72,
      "hit": false,
      "t": 189599.9999999999,
      "d": 426.66666666668607,
      "v": 127
    },
    {
      "midi": 65,
      "hit": false,
      "t": 189599.9999999999,
      "d": 453.33333333334303,
      "v": 127
    },
    {
      "midi": 69,
      "hit": false,
      "t": 189599.9999999999,
      "d": 466.66666666668607,
      "v": 127
    },
    {
      "midi": 74,
      "hit": false,
      "t": 189620,
      "d": 446.66666666665697,
      "v": 65
    },
    {
      "midi": 53,
      "hit": false,
      "t": 189640,
      "d": 273.33333333331393,
      "v": 69
    },
    {
      "midi": 50,
      "hit": false,
      "t": 189646.66666666666,
      "d": 213.33333333331393,
      "v": 69
    },
    {
      "midi": 50,
      "hit": false,
      "t": 189999.9999999999,
      "d": 273.33333333334303,
      "v": 127
    },
    {
      "midi": 53,
      "hit": false,
      "t": 190013.3333333333,
      "d": 200,
      "v": 69
    },
    {
      "midi": 50,
      "hit": false,
      "t": 190033.3333333333,
      "d": 133.33333333334303,
      "v": 69
    },
    {
      "midi": 81,
      "hit": false,
      "t": 190046.66666666666,
      "d": 273.33333333331393,
      "v": 65
    },
    {
      "midi": 77,
      "hit": false,
      "t": 190053.3333333333,
      "d": 266.66666666665697,
      "v": 65
    },
    {
      "midi": 53,
      "hit": false,
      "t": 190386.66666666663,
      "d": 559.9999999999709,
      "v": 69
    },
    {
      "midi": 72,
      "hit": false,
      "t": 190393.33333333328,
      "d": 846.6666666666279,
      "v": 65
    },
    {
      "midi": 62,
      "hit": false,
      "t": 190399.9999999999,
      "d": 480,
      "v": 127
    },
    {
      "midi": 72,
      "hit": false,
      "t": 190399.9999999999,
      "d": 493.33333333334303,
      "v": 127
    },
    {
      "midi": 69,
      "hit": false,
      "t": 190399.9999999999,
      "d": 513.333333333343,
      "v": 127
    },
    {
      "midi": 65,
      "hit": false,
      "t": 190399.9999999999,
      "d": 560,
      "v": 127
    },
    {
      "midi": 48,
      "hit": false,
      "t": 190399.9999999999,
      "d": 1020,
      "v": 127
    },
    {
      "midi": 48,
      "hit": false,
      "t": 190399.99999999994,
      "d": 560,
      "v": 69
    },
    {
      "midi": 77,
      "hit": false,
      "t": 190439.99999999994,
      "d": 566.666666666657,
      "v": 65
    },
    {
      "midi": 81,
      "hit": false,
      "t": 190446.6666666666,
      "d": 553.333333333343,
      "v": 65
    },
    {
      "midi": 53,
      "hit": false,
      "t": 191173.33333333326,
      "d": 213.33333333331393,
      "v": 69
    },
    {
      "midi": 48,
      "hit": false,
      "t": 191179.9999999999,
      "d": 220,
      "v": 69
    },
    {
      "midi": 62,
      "hit": false,
      "t": 191199.9999999999,
      "d": 373.33333333334303,
      "v": 127
    },
    {
      "midi": 65,
      "hit": false,
      "t": 191199.9999999999,
      "d": 400,
      "v": 127
    },
    {
      "midi": 69,
      "hit": false,
      "t": 191199.9999999999,
      "d": 413.33333333334303,
      "v": 127
    },
    {
      "midi": 72,
      "hit": false,
      "t": 191199.9999999999,
      "d": 420,
      "v": 127
    },
    {
      "midi": 81,
      "hit": false,
      "t": 191213.33333333326,
      "d": 406.66666666665697,
      "v": 65
    },
    {
      "midi": 77,
      "hit": false,
      "t": 191219.9999999999,
      "d": 393.33333333334303,
      "v": 65
    },
    {
      "midi": 53,
      "hit": false,
      "t": 191579.9999999999,
      "d": 160,
      "v": 69
    },
    {
      "midi": 48,
      "hit": false,
      "t": 191579.9999999999,
      "d": 206.66666666665697,
      "v": 69
    },
    {
      "midi": 48,
      "hit": false,
      "t": 191599.9999999999,
      "d": 293.33333333334303,
      "v": 127
    },
    {
      "midi": 72,
      "hit": false,
      "t": 191633.33333333326,
      "d": 199.9999999999709,
      "v": 65
    },
    {
      "midi": 62,
      "hit": false,
      "t": 191999.9999999999,
      "d": 546.666666666657,
      "v": 127
    },
    {
      "midi": 71,
      "hit": false,
      "t": 191999.9999999999,
      "d": 593.3333333333139,
      "v": 127
    },
    {
      "midi": 67,
      "hit": false,
      "t": 191999.9999999999,
      "d": 606.666666666657,
      "v": 127
    },
    {
      "midi": 43,
      "hit": false,
      "t": 191999.9999999999,
      "d": 1026.666666666657,
      "v": 127
    },
    {
      "midi": 55,
      "hit": false,
      "t": 192006.66666666657,
      "d": 620,
      "v": 69
    },
    {
      "midi": 50,
      "hit": false,
      "t": 192019.9999999999,
      "d": 626.666666666657,
      "v": 69
    },
    {
      "midi": 79,
      "hit": false,
      "t": 192026.66666666657,
      "d": 826.666666666657,
      "v": 65
    },
    {
      "midi": 83,
      "hit": false,
      "t": 192026.66666666657,
      "d": 833.3333333333139,
      "v": 65
    },
    {
      "midi": 62,
      "hit": false,
      "t": 192799.9999999999,
      "d": 640,
      "v": 127
    },
    {
      "midi": 71,
      "hit": false,
      "t": 192799.9999999999,
      "d": 660,
      "v": 127
    },
    {
      "midi": 67,
      "hit": false,
      "t": 192799.9999999999,
      "d": 680,
      "v": 127
    },
    {
      "midi": 74,
      "hit": false,
      "t": 192806.66666666657,
      "d": 426.66666666662786,
      "v": 65
    },
    {
      "midi": 55,
      "hit": false,
      "t": 192826.66666666657,
      "d": 266.66666666665697,
      "v": 69
    },
    {
      "midi": 50,
      "hit": false,
      "t": 192833.33333333323,
      "d": 220,
      "v": 69
    },
    {
      "midi": 43,
      "hit": false,
      "t": 193199.9999999999,
      "d": 320,
      "v": 127
    },
    {
      "midi": 55,
      "hit": false,
      "t": 193206.66666666657,
      "d": 259.9999999999709,
      "v": 69
    },
    {
      "midi": 50,
      "hit": false,
      "t": 193213.33333333323,
      "d": 273.33333333331393,
      "v": 69
    },
    {
      "midi": 83,
      "hit": false,
      "t": 193219.99999999988,
      "d": 326.66666666665697,
      "v": 65
    },
    {
      "midi": 79,
      "hit": false,
      "t": 193226.66666666654,
      "d": 273.33333333334303,
      "v": 65
    },
    {
      "midi": 62,
      "hit": false,
      "t": 193599.9999999999,
      "d": 580,
      "v": 127
    },
    {
      "midi": 71,
      "hit": false,
      "t": 193599.9999999999,
      "d": 593.333333333343,
      "v": 127
    },
    {
      "midi": 67,
      "hit": false,
      "t": 193599.9999999999,
      "d": 600,
      "v": 127
    },
    {
      "midi": 41,
      "hit": false,
      "t": 193599.9999999999,
      "d": 1080,
      "v": 127
    },
    {
      "midi": 50,
      "hit": false,
      "t": 193606.66666666654,
      "d": 553.3333333333139,
      "v": 69
    },
    {
      "midi": 53,
      "hit": false,
      "t": 193613.3333333332,
      "d": 553.3333333333139,
      "v": 69
    },
    {
      "midi": 83,
      "hit": false,
      "t": 193633.3333333332,
      "d": 773.3333333332848,
      "v": 65
    },
    {
      "midi": 77,
      "hit": false,
      "t": 193639.99999999985,
      "d": 753.3333333333139,
      "v": 65
    },
    {
      "midi": 74,
      "hit": false,
      "t": 194386.6666666665,
      "d": 386.66666666659876,
      "v": 65
    },
    {
      "midi": 50,
      "hit": false,
      "t": 194393.33333333317,
      "d": 199.9999999999709,
      "v": 69
    },
    {
      "midi": 53,
      "hit": false,
      "t": 194399.99999999983,
      "d": 199.9999999999709,
      "v": 69
    },
    {
      "midi": 62,
      "hit": false,
      "t": 194399.9999999999,
      "d": 500,
      "v": 127
    },
    {
      "midi": 67,
      "hit": false,
      "t": 194399.9999999999,
      "d": 526.666666666657,
      "v": 127
    },
    {
      "midi": 71,
      "hit": false,
      "t": 194399.9999999999,
      "d": 533.3333333333139,
      "v": 127
    },
    {
      "midi": 53,
      "hit": false,
      "t": 194766.66666666645,
      "d": 166.66666666662786,
      "v": 69
    },
    {
      "midi": 50,
      "hit": false,
      "t": 194773.3333333331,
      "d": 186.66666666662786,
      "v": 69
    },
    {
      "midi": 83,
      "hit": false,
      "t": 194779.99999999977,
      "d": 319.9999999999709,
      "v": 65
    },
    {
      "midi": 77,
      "hit": false,
      "t": 194786.66666666642,
      "d": 293.33333333331393,
      "v": 65
    },
    {
      "midi": 41,
      "hit": false,
      "t": 194799.9999999999,
      "d": 339.9999999999709,
      "v": 127
    },
    {
      "midi": 81,
      "hit": false,
      "t": 195199.99999999974,
      "d": 113.33333333328483,
      "v": 65
    },
    {
      "midi": 69,
      "hit": false,
      "t": 195199.99999999988,
      "d": 513.333333333343,
      "v": 127
    },
    {
      "midi": 60,
      "hit": false,
      "t": 195199.99999999988,
      "d": 553.333333333343,
      "v": 127
    },
    {
      "midi": 64,
      "hit": false,
      "t": 195199.99999999988,
      "d": 626.6666666666861,
      "v": 127
    },
    {
      "midi": 45,
      "hit": false,
      "t": 195199.99999999988,
      "d": 1066.666666666686,
      "v": 127
    },
    {
      "midi": 76,
      "hit": false,
      "t": 195206.6666666664,
      "d": 93.33333333331393,
      "v": 65
    },
    {
      "midi": 45,
      "hit": false,
      "t": 195226.6666666664,
      "d": 113.33333333331393,
      "v": 69
    },
    {
      "midi": 47,
      "hit": false,
      "t": 195233.33333333305,
      "d": 73.33333333331393,
      "v": 69
    },
    {
      "midi": 48,
      "hit": false,
      "t": 195233.33333333305,
      "d": 79.9999999999709,
      "v": 69
    },
    {
      "midi": 43,
      "hit": false,
      "t": 195233.33333333305,
      "d": 93.33333333331393,
      "v": 69
    },
    {
      "midi": 81,
      "hit": false,
      "t": 195579.9999999997,
      "d": 120,
      "v": 65
    },
    {
      "midi": 76,
      "hit": false,
      "t": 195593.33333333305,
      "d": 86.66666666665697,
      "v": 65
    },
    {
      "midi": 76,
      "hit": false,
      "t": 195999.9999999997,
      "d": 113.33333333334303,
      "v": 65
    },
    {
      "midi": 81,
      "hit": false,
      "t": 195999.9999999997,
      "d": 133.33333333334303,
      "v": 65
    },
    {
      "midi": 69,
      "hit": false,
      "t": 195999.9999999999,
      "d": 660,
      "v": 127
    },
    {
      "midi": 60,
      "hit": false,
      "t": 195999.9999999999,
      "d": 666.666666666657,
      "v": 127
    },
    {
      "midi": 64,
      "hit": false,
      "t": 195999.9999999999,
      "d": 686.666666666657,
      "v": 127
    },
    {
      "midi": 81,
      "hit": false,
      "t": 196393.33333333305,
      "d": 93.33333333334303,
      "v": 65
    },
    {
      "midi": 76,
      "hit": false,
      "t": 196393.33333333305,
      "d": 100,
      "v": 65
    },
    {
      "midi": 45,
      "hit": false,
      "t": 196399.9999999999,
      "d": 346.66666666665697,
      "v": 127
    },
    {
      "midi": 79,
      "hit": false,
      "t": 196786.6666666664,
      "d": 113.33333333334303,
      "v": 65
    },
    {
      "midi": 76,
      "hit": false,
      "t": 196799.99999999974,
      "d": 86.66666666665697,
      "v": 65
    },
    {
      "midi": 69,
      "hit": false,
      "t": 196799.9999999999,
      "d": 586.666666666657,
      "v": 127
    },
    {
      "midi": 60,
      "hit": false,
      "t": 196799.9999999999,
      "d": 593.3333333333139,
      "v": 127
    },
    {
      "midi": 64,
      "hit": false,
      "t": 196799.9999999999,
      "d": 619.9999999999709,
      "v": 127
    },
    {
      "midi": 43,
      "hit": false,
      "t": 196799.9999999999,
      "d": 939.9999999999709,
      "v": 127
    },
    {
      "midi": 79,
      "hit": false,
      "t": 197193.33333333308,
      "d": 93.33333333331393,
      "v": 65
    },
    {
      "midi": 76,
      "hit": false,
      "t": 197199.99999999974,
      "d": 80,
      "v": 65
    },
    {
      "midi": 76,
      "hit": false,
      "t": 197586.6666666664,
      "d": 80,
      "v": 65
    },
    {
      "midi": 79,
      "hit": false,
      "t": 197586.6666666664,
      "d": 86.66666666665697,
      "v": 65
    },
    {
      "midi": 60,
      "hit": false,
      "t": 197599.99999999988,
      "d": 433.33333333334303,
      "v": 127
    },
    {
      "midi": 64,
      "hit": false,
      "t": 197599.99999999988,
      "d": 453.33333333334303,
      "v": 127
    },
    {
      "midi": 69,
      "hit": false,
      "t": 197599.99999999988,
      "d": 453.33333333334303,
      "v": 127
    },
    {
      "midi": 79,
      "hit": false,
      "t": 197993.33333333308,
      "d": 100,
      "v": 65
    },
    {
      "midi": 76,
      "hit": false,
      "t": 197999.99999999974,
      "d": 93.33333333334303,
      "v": 65
    },
    {
      "midi": 43,
      "hit": false,
      "t": 197999.99999999988,
      "d": 320,
      "v": 127
    },
    {
      "midi": 69,
      "hit": false,
      "t": 198399.99999999988,
      "d": 3033.333333333343,
      "v": 127
    },
    {
      "midi": 64,
      "hit": false,
      "t": 198399.99999999988,
      "d": 3040,
      "v": 127
    },
    {
      "midi": 60,
      "hit": false,
      "t": 198399.99999999988,
      "d": 3086.666666666657,
      "v": 127
    },
    {
      "midi": 42,
      "hit": false,
      "t": 198399.99999999988,
      "d": 3126.666666666657,
      "v": 127
    },
    {
      "midi": 76,
      "hit": false,
      "t": 198413.3333333331,
      "d": 1026.666666666657,
      "v": 65
    },
    {
      "midi": 78,
      "hit": false,
      "t": 198413.3333333331,
      "d": 1033.333333333314,
      "v": 65
    },
    {
      "midi": 57,
      "hit": false,
      "t": 198806.66666666642,
      "d": 400,
      "v": 65
    },
    {
      "midi": 69,
      "hit": false,
      "t": 198826.6666666666,
      "d": 400,
      "v": 127
    },
    {
      "midi": 60,
      "hit": false,
      "t": 199199.99999999977,
      "d": 413.33333333331393,
      "v": 65
    },
    {
      "midi": 72,
      "hit": false,
      "t": 199219.99999999994,
      "d": 373.33333333331393,
      "v": 127
    },
    {
      "midi": 64,
      "hit": false,
      "t": 199626.66666666642,
      "d": 406.66666666665697,
      "v": 65
    },
    {
      "midi": 76,
      "hit": false,
      "t": 199626.6666666666,
      "d": 393.33333333334303,
      "v": 127
    },
    {
      "midi": 74,
      "hit": false,
      "t": 200019.99999999994,
      "d": 793.333333333343,
      "v": 127
    },
    {
      "midi": 62,
      "hit": false,
      "t": 200026.66666666642,
      "d": 833.3333333333139,
      "v": 65
    },
    {
      "midi": 69,
      "hit": false,
      "t": 200059.99999999974,
      "d": 33.333333333343035,
      "v": 65
    },
    {
      "midi": 81,
      "hit": false,
      "t": 200073.33333333308,
      "d": 53.333333333343035,
      "v": 65
    },
    {
      "midi": 69,
      "hit": false,
      "t": 200113.33333333308,
      "d": 33.333333333343035,
      "v": 65
    },
    {
      "midi": 81,
      "hit": false,
      "t": 200159.99999999977,
      "d": 53.33333333331393,
      "v": 65
    },
    {
      "midi": 69,
      "hit": false,
      "t": 200166.66666666642,
      "d": 40,
      "v": 65
    },
    {
      "midi": 69,
      "hit": false,
      "t": 200226.66666666642,
      "d": 40,
      "v": 65
    },
    {
      "midi": 81,
      "hit": false,
      "t": 200259.99999999977,
      "d": 60,
      "v": 65
    },
    {
      "midi": 69,
      "hit": false,
      "t": 200286.66666666642,
      "d": 40,
      "v": 65
    },
    {
      "midi": 69,
      "hit": false,
      "t": 200339.99999999977,
      "d": 33.33333333331393,
      "v": 65
    },
    {
      "midi": 81,
      "hit": false,
      "t": 200346.66666666642,
      "d": 53.33333333331393,
      "v": 65
    },
    {
      "midi": 69,
      "hit": false,
      "t": 200399.99999999974,
      "d": 46.666666666656965,
      "v": 65
    },
    {
      "midi": 81,
      "hit": false,
      "t": 200439.99999999974,
      "d": 46.666666666656965,
      "v": 65
    },
    {
      "midi": 69,
      "hit": false,
      "t": 200459.99999999974,
      "d": 33.33333333331393,
      "v": 65
    },
    {
      "midi": 69,
      "hit": false,
      "t": 200519.9999999997,
      "d": 40,
      "v": 65
    },
    {
      "midi": 81,
      "hit": false,
      "t": 200526.66666666637,
      "d": 46.66666666668607,
      "v": 65
    },
    {
      "midi": 69,
      "hit": false,
      "t": 200573.33333333305,
      "d": 40,
      "v": 65
    },
    {
      "midi": 81,
      "hit": false,
      "t": 200599.9999999997,
      "d": 53.333333333343035,
      "v": 65
    },
    {
      "midi": 69,
      "hit": false,
      "t": 200633.33333333305,
      "d": 40,
      "v": 65
    },
    {
      "midi": 69,
      "hit": false,
      "t": 200686.6666666664,
      "d": 40,
      "v": 65
    },
    {
      "midi": 81,
      "hit": false,
      "t": 200686.6666666664,
      "d": 60,
      "v": 65
    },
    {
      "midi": 69,
      "hit": false,
      "t": 200746.6666666664,
      "d": 40,
      "v": 65
    },
    {
      "midi": 81,
      "hit": false,
      "t": 200766.6666666664,
      "d": 53.333333333343035,
      "v": 65
    },
    {
      "midi": 69,
      "hit": false,
      "t": 200799.99999999974,
      "d": 33.333333333343035,
      "v": 65
    },
    {
      "midi": 72,
      "hit": false,
      "t": 200813.33333333328,
      "d": 753.333333333343,
      "v": 127
    },
    {
      "midi": 60,
      "hit": false,
      "t": 200846.66666666642,
      "d": 760,
      "v": 65
    },
    {
      "midi": 81,
      "hit": false,
      "t": 200853.33333333308,
      "d": 46.666666666656965,
      "v": 65
    },
    {
      "midi": 81,
      "hit": false,
      "t": 200939.99999999974,
      "d": 60,
      "v": 65
    },
    {
      "midi": 77,
      "hit": false,
      "t": 201593.33333333308,
      "d": 1106.666666666657,
      "v": 95
    },
    {
      "midi": 60,
      "hit": false,
      "t": 201599.99999999988,
      "d": 700,
      "v": 127
    },
    {
      "midi": 69,
      "hit": false,
      "t": 201599.99999999988,
      "d": 726.666666666657,
      "v": 127
    },
    {
      "midi": 65,
      "hit": false,
      "t": 201599.99999999988,
      "d": 733.3333333333139,
      "v": 127
    },
    {
      "midi": 41,
      "hit": false,
      "t": 201599.99999999988,
      "d": 1386.6666666666279,
      "v": 127
    },
    {
      "midi": 81,
      "hit": false,
      "t": 201613.33333333308,
      "d": 1193.333333333314,
      "v": 69
    },
    {
      "midi": 60,
      "hit": false,
      "t": 202399.99999999985,
      "d": 513.333333333343,
      "v": 127
    },
    {
      "midi": 69,
      "hit": false,
      "t": 202399.99999999985,
      "d": 520,
      "v": 127
    },
    {
      "midi": 65,
      "hit": false,
      "t": 202399.99999999985,
      "d": 540,
      "v": 127
    },
    {
      "midi": 72,
      "hit": false,
      "t": 202793.33333333308,
      "d": 379.9999999999709,
      "v": 95
    },
    {
      "midi": 77,
      "hit": false,
      "t": 202799.99999999974,
      "d": 386.66666666665697,
      "v": 69
    },
    {
      "midi": 68,
      "hit": false,
      "t": 203199.99999999985,
      "d": 566.666666666657,
      "v": 127
    },
    {
      "midi": 60,
      "hit": false,
      "t": 203199.99999999985,
      "d": 606.666666666657,
      "v": 127
    },
    {
      "midi": 63,
      "hit": false,
      "t": 203199.99999999985,
      "d": 613.3333333333139,
      "v": 127
    },
    {
      "midi": 44,
      "hit": false,
      "t": 203199.99999999985,
      "d": 1486.6666666666279,
      "v": 127
    },
    {
      "midi": 72,
      "hit": false,
      "t": 203206.6666666664,
      "d": 720,
      "v": 69
    },
    {
      "midi": 68,
      "hit": false,
      "t": 203206.6666666664,
      "d": 773.333333333343,
      "v": 95
    },
    {
      "midi": 60,
      "hit": false,
      "t": 203999.99999999983,
      "d": 546.666666666657,
      "v": 127
    },
    {
      "midi": 63,
      "hit": false,
      "t": 203999.99999999983,
      "d": 560,
      "v": 127
    },
    {
      "midi": 68,
      "hit": false,
      "t": 203999.99999999983,
      "d": 580,
      "v": 127
    },
    {
      "midi": 67,
      "hit": false,
      "t": 204006.6666666664,
      "d": 593.3333333333139,
      "v": 69
    },
    {
      "midi": 70,
      "hit": false,
      "t": 204013.33333333305,
      "d": 713.3333333333139,
      "v": 95
    },
    {
      "midi": 60,
      "hit": false,
      "t": 204799.99999999983,
      "d": 600,
      "v": 127
    },
    {
      "midi": 64,
      "hit": false,
      "t": 204799.99999999983,
      "d": 600,
      "v": 127
    },
    {
      "midi": 67,
      "hit": false,
      "t": 204799.99999999983,
      "d": 600,
      "v": 127
    },
    {
      "midi": 48,
      "hit": false,
      "t": 204799.99999999983,
      "d": 1000,
      "v": 127
    },
    {
      "midi": 60,
      "hit": false,
      "t": 205599.99999999983,
      "d": 400,
      "v": 127
    },
    {
      "midi": 64,
      "hit": false,
      "t": 205599.99999999983,
      "d": 400,
      "v": 127
    },
    {
      "midi": 67,
      "hit": false,
      "t": 205599.99999999983,
      "d": 400,
      "v": 127
    },
    {
      "midi": 47,
      "hit": false,
      "t": 205599.99999999997,
      "d": 266.66666666665697,
      "v": 127
    },
    {
      "midi": 59,
      "hit": false,
      "t": 205619.99999999997,
      "d": 286.66666666665697,
      "v": 127
    },
    {
      "midi": 46,
      "hit": false,
      "t": 205886.66666666663,
      "d": 246.66666666665697,
      "v": 127
    },
    {
      "midi": 58,
      "hit": false,
      "t": 205893.33333333328,
      "d": 246.66666666665697,
      "v": 127
    },
    {
      "midi": 48,
      "hit": false,
      "t": 205999.99999999983,
      "d": 400,
      "v": 127
    },
    {
      "midi": 57,
      "hit": false,
      "t": 206153.33333333328,
      "d": 253.33333333334303,
      "v": 127
    },
    {
      "midi": 45,
      "hit": false,
      "t": 206166.66666666663,
      "d": 240,
      "v": 127
    },
    {
      "midi": 54,
      "hit": false,
      "t": 206399.99999999983,
      "d": 600,
      "v": 127
    },
    {
      "midi": 57,
      "hit": false,
      "t": 206399.99999999983,
      "d": 600,
      "v": 127
    },
    {
      "midi": 61,
      "hit": false,
      "t": 206399.99999999983,
      "d": 600,
      "v": 127
    },
    {
      "midi": 42,
      "hit": false,
      "t": 206399.99999999983,
      "d": 1000,
      "v": 127
    },
    {
      "midi": 42,
      "hit": false,
      "t": 206426.66666666663,
      "d": 786.666666666657,
      "v": 127
    },
    {
      "midi": 54,
      "hit": false,
      "t": 206433.33333333328,
      "d": 833.333333333343,
      "v": 127
    },
    {
      "midi": 54,
      "hit": false,
      "t": 207199.99999999983,
      "d": 400,
      "v": 127
    },
    {
      "midi": 57,
      "hit": false,
      "t": 207199.99999999983,
      "d": 400,
      "v": 127
    },
    {
      "midi": 61,
      "hit": false,
      "t": 207199.99999999983,
      "d": 400,
      "v": 127
    },
    {
      "midi": 56,
      "hit": false,
      "t": 207226.66666666663,
      "d": 786.666666666657,
      "v": 127
    },
    {
      "midi": 42,
      "hit": false,
      "t": 207599.99999999983,
      "d": 400,
      "v": 127
    },
    {
      "midi": 53,
      "hit": false,
      "t": 207999.99999999983,
      "d": 600,
      "v": 127
    },
    {
      "midi": 57,
      "hit": false,
      "t": 207999.99999999983,
      "d": 600,
      "v": 127
    },
    {
      "midi": 60,
      "hit": false,
      "t": 207999.99999999983,
      "d": 600,
      "v": 127
    },
    {
      "midi": 41,
      "hit": false,
      "t": 207999.99999999983,
      "d": 800,
      "v": 127
    },
    {
      "midi": 53,
      "hit": false,
      "t": 208799.99999999983,
      "d": 400,
      "v": 127
    },
    {
      "midi": 57,
      "hit": false,
      "t": 208799.99999999983,
      "d": 400,
      "v": 127
    },
    {
      "midi": 60,
      "hit": false,
      "t": 208799.99999999983,
      "d": 400,
      "v": 127
    },
    {
      "midi": 41,
      "hit": false,
      "t": 209199.99999999983,
      "d": 400,
      "v": 127
    },
    {
      "midi": 63,
      "hit": false,
      "t": 209599.99999999983,
      "d": 400,
      "v": 127
    },
    {
      "midi": 56,
      "hit": false,
      "t": 209599.99999999983,
      "d": 600,
      "v": 127
    },
    {
      "midi": 60,
      "hit": false,
      "t": 209599.99999999983,
      "d": 600,
      "v": 127
    },
    {
      "midi": 44,
      "hit": false,
      "t": 209599.99999999983,
      "d": 800,
      "v": 127
    },
    {
      "midi": 56,
      "hit": false,
      "t": 210399.99999999983,
      "d": 400,
      "v": 127
    },
    {
      "midi": 60,
      "hit": false,
      "t": 210399.99999999983,
      "d": 400,
      "v": 127
    },
    {
      "midi": 63,
      "hit": false,
      "t": 210399.99999999983,
      "d": 400,
      "v": 127
    },
    {
      "midi": 44,
      "hit": false,
      "t": 210799.99999999983,
      "d": 200,
      "v": 127
    },
    {
      "midi": 60,
      "hit": false,
      "t": 211199.99999999983,
      "d": 600,
      "v": 127
    },
    {
      "midi": 64,
      "hit": false,
      "t": 211199.99999999983,
      "d": 600,
      "v": 127
    },
    {
      "midi": 67,
      "hit": false,
      "t": 211199.99999999983,
      "d": 600,
      "v": 127
    },
    {
      "midi": 48,
      "hit": false,
      "t": 211199.99999999983,
      "d": 1000,
      "v": 127
    },
    {
      "midi": 47,
      "hit": false,
      "t": 211973.33333333328,
      "d": 260,
      "v": 127
    },
    {
      "midi": 60,
      "hit": false,
      "t": 211999.99999999983,
      "d": 400,
      "v": 127
    },
    {
      "midi": 64,
      "hit": false,
      "t": 211999.99999999983,
      "d": 400,
      "v": 127
    },
    {
      "midi": 67,
      "hit": false,
      "t": 211999.99999999983,
      "d": 400,
      "v": 127
    },
    {
      "midi": 59,
      "hit": false,
      "t": 212019.99999999994,
      "d": 260.0000000000291,
      "v": 127
    },
    {
      "midi": 46,
      "hit": false,
      "t": 212246.66666666663,
      "d": 226.66666666668607,
      "v": 127
    },
    {
      "midi": 58,
      "hit": false,
      "t": 212266.66666666663,
      "d": 213.33333333334303,
      "v": 127
    },
    {
      "midi": 48,
      "hit": false,
      "t": 212399.99999999983,
      "d": 400,
      "v": 127
    },
    {
      "midi": 45,
      "hit": false,
      "t": 212493.3333333333,
      "d": 300,
      "v": 127
    },
    {
      "midi": 57,
      "hit": false,
      "t": 212506.66666666666,
      "d": 293.33333333331393,
      "v": 127
    },
    {
      "midi": 54,
      "hit": false,
      "t": 212799.99999999983,
      "d": 600,
      "v": 127
    },
    {
      "midi": 57,
      "hit": false,
      "t": 212799.99999999983,
      "d": 600,
      "v": 127
    },
    {
      "midi": 61,
      "hit": false,
      "t": 212799.99999999983,
      "d": 600,
      "v": 127
    },
    {
      "midi": 42,
      "hit": false,
      "t": 212799.99999999983,
      "d": 1000,
      "v": 127
    },
    {
      "midi": 42,
      "hit": false,
      "t": 212799.99999999997,
      "d": 793.333333333343,
      "v": 127
    },
    {
      "midi": 54,
      "hit": false,
      "t": 212799.99999999997,
      "d": 840,
      "v": 127
    },
    {
      "midi": 54,
      "hit": false,
      "t": 213599.99999999983,
      "d": 400,
      "v": 127
    },
    {
      "midi": 57,
      "hit": false,
      "t": 213599.99999999983,
      "d": 400,
      "v": 127
    },
    {
      "midi": 61,
      "hit": false,
      "t": 213599.99999999983,
      "d": 400,
      "v": 127
    },
    {
      "midi": 56,
      "hit": false,
      "t": 213633.3333333333,
      "d": 753.3333333333139,
      "v": 127
    },
    {
      "midi": 42,
      "hit": false,
      "t": 213999.99999999983,
      "d": 400,
      "v": 127
    },
    {
      "midi": 53,
      "hit": false,
      "t": 214399.99999999983,
      "d": 400,
      "v": 127
    },
    {
      "midi": 60,
      "hit": false,
      "t": 214399.99999999983,
      "d": 400,
      "v": 127
    },
    {
      "midi": 57,
      "hit": false,
      "t": 214399.99999999983,
      "d": 600,
      "v": 127
    },
    {
      "midi": 41,
      "hit": false,
      "t": 214399.99999999983,
      "d": 800,
      "v": 127
    },
    {
      "midi": 53,
      "hit": false,
      "t": 215199.99999999983,
      "d": 200,
      "v": 127
    },
    {
      "midi": 57,
      "hit": false,
      "t": 215199.99999999983,
      "d": 200,
      "v": 127
    },
    {
      "midi": 60,
      "hit": false,
      "t": 215199.99999999983,
      "d": 200,
      "v": 127
    },
    {
      "midi": 41,
      "hit": false,
      "t": 215399.99999999983,
      "d": 600,
      "v": 127
    },
    {
      "midi": 56,
      "hit": false,
      "t": 215999.99999999983,
      "d": 3800,
      "v": 127
    },
    {
      "midi": 60,
      "hit": false,
      "t": 215999.99999999983,
      "d": 3800,
      "v": 127
    },
    {
      "midi": 63,
      "hit": false,
      "t": 215999.99999999983,
      "d": 3800,
      "v": 127
    },
    {
      "midi": 44,
      "hit": false,
      "t": 215999.99999999983,
      "d": 4800,
      "v": 127
    },
    {
      "midi": 36,
      "hit": false,
      "t": 220799.99999999983,
      "d": 160,
      "v": 90
    },
    {
      "midi": 60,
      "hit": false,
      "t": 220799.99999999983,
      "d": 3199.9999999999127,
      "v": 127
    },
    {
      "midi": 55,
      "hit": false,
      "t": 220819.99999999983,
      "d": 173.33333333334303,
      "v": 90
    },
    {
      "midi": 43,
      "hit": false,
      "t": 220919.99999999983,
      "d": 113.33333333334303,
      "v": 90
    },
    {
      "midi": 48,
      "hit": false,
      "t": 220946.66666666648,
      "d": 120.0000000000291,
      "v": 90
    },
    {
      "midi": 64,
      "hit": false,
      "t": 220999.99999999983,
      "d": 2999.9999999999127,
      "v": 127
    },
    {
      "midi": 67,
      "hit": false,
      "t": 220999.99999999983,
      "d": 2999.9999999999127,
      "v": 127
    },
    {
      "midi": 36,
      "hit": false,
      "t": 221053.33333333317,
      "d": 73.33333333334303,
      "v": 90
    },
    {
      "midi": 55,
      "hit": false,
      "t": 221079.99999999985,
      "d": 426.66666666662786,
      "v": 90
    },
    {
      "midi": 48,
      "hit": false,
      "t": 221106.6666666665,
      "d": 140,
      "v": 90
    },
    {
      "midi": 36,
      "hit": false,
      "t": 221133.33333333302,
      "d": 266.66666666665697,
      "v": 69
    },
    {
      "midi": 43,
      "hit": false,
      "t": 221133.33333333317,
      "d": 53.333333333343035,
      "v": 90
    },
    {
      "midi": 36,
      "hit": false,
      "t": 221173.33333333317,
      "d": 86.66666666665697,
      "v": 90
    },
    {
      "midi": 43,
      "hit": false,
      "t": 221253.33333333317,
      "d": 86.66666666665697,
      "v": 90
    },
    {
      "midi": 48,
      "hit": false,
      "t": 221266.66666666648,
      "d": 113.33333333334303,
      "v": 90
    },
    {
      "midi": 48,
      "hit": false,
      "t": 221299.99999999968,
      "d": 180,
      "v": 69
    },
    {
      "midi": 36,
      "hit": false,
      "t": 221306.66666666648,
      "d": 86.66666666668607,
      "v": 90
    },
    {
      "midi": 43,
      "hit": false,
      "t": 221379.99999999983,
      "d": 80,
      "v": 90
    },
    {
      "midi": 67,
      "hit": false,
      "t": 221433.33333333302,
      "d": 60,
      "v": 69
    },
    {
      "midi": 36,
      "hit": false,
      "t": 221433.33333333317,
      "d": 86.66666666662786,
      "v": 90
    },
    {
      "midi": 48,
      "hit": false,
      "t": 221433.33333333317,
      "d": 239.9999999999418,
      "v": 90
    },
    {
      "midi": 60,
      "hit": false,
      "t": 221473.33333333302,
      "d": 246.66666666665697,
      "v": 69
    },
    {
      "midi": 43,
      "hit": false,
      "t": 221513.33333333314,
      "d": 100,
      "v": 90
    },
    {
      "midi": 64,
      "hit": false,
      "t": 221533.33333333302,
      "d": 373.33333333331393,
      "v": 69
    },
    {
      "midi": 36,
      "hit": false,
      "t": 221579.9999999998,
      "d": 86.66666666665697,
      "v": 90
    },
    {
      "midi": 79,
      "hit": false,
      "t": 221593.33333333328,
      "d": 120,
      "v": 127
    },
    {
      "midi": 55,
      "hit": false,
      "t": 221639.9999999998,
      "d": 426.66666666662786,
      "v": 90
    },
    {
      "midi": 67,
      "hit": false,
      "t": 221659.99999999968,
      "d": 166.66666666665697,
      "v": 69
    },
    {
      "midi": 43,
      "hit": false,
      "t": 221659.9999999998,
      "d": 86.66666666665697,
      "v": 90
    },
    {
      "midi": 48,
      "hit": false,
      "t": 221693.3333333331,
      "d": 500,
      "v": 90
    },
    {
      "midi": 82,
      "hit": false,
      "t": 221699.99999999994,
      "d": 133.33333333334303,
      "v": 127
    },
    {
      "midi": 36,
      "hit": false,
      "t": 221713.3333333331,
      "d": 86.66666666665697,
      "v": 90
    },
    {
      "midi": 43,
      "hit": false,
      "t": 221793.3333333331,
      "d": 93.33333333331393,
      "v": 90
    },
    {
      "midi": 84,
      "hit": false,
      "t": 221819.99999999994,
      "d": 393.33333333334303,
      "v": 127
    },
    {
      "midi": 60,
      "hit": false,
      "t": 221826.66666666634,
      "d": 126.66666666665697,
      "v": 69
    },
    {
      "midi": 36,
      "hit": false,
      "t": 221859.99999999977,
      "d": 106.66666666665697,
      "v": 90
    },
    {
      "midi": 67,
      "hit": false,
      "t": 221886.66666666634,
      "d": 133.33333333331393,
      "v": 69
    },
    {
      "midi": 50,
      "hit": false,
      "t": 221899.99999999968,
      "d": 346.66666666662786,
      "v": 69
    },
    {
      "midi": 52,
      "hit": false,
      "t": 221926.66666666634,
      "d": 66.66666666665697,
      "v": 69
    },
    {
      "midi": 43,
      "hit": false,
      "t": 221953.33333333308,
      "d": 126.66666666668607,
      "v": 90
    },
    {
      "midi": 36,
      "hit": false,
      "t": 222046.66666666642,
      "d": 113.33333333334303,
      "v": 90
    },
    {
      "midi": 70,
      "hit": false,
      "t": 222053.33333333328,
      "d": 326.66666666665697,
      "v": 127
    },
    {
      "midi": 55,
      "hit": false,
      "t": 222113.3333333331,
      "d": 193.33333333331393,
      "v": 90
    },
    {
      "midi": 43,
      "hit": false,
      "t": 222139.99999999977,
      "d": 120,
      "v": 90
    },
    {
      "midi": 72,
      "hit": false,
      "t": 222226.6666666663,
      "d": 326.66666666668607,
      "v": 69
    },
    {
      "midi": 36,
      "hit": false,
      "t": 222233.3333333331,
      "d": 99.9999999999709,
      "v": 90
    },
    {
      "midi": 48,
      "hit": false,
      "t": 222253.3333333331,
      "d": 159.9999999999709,
      "v": 90
    },
    {
      "midi": 76,
      "hit": false,
      "t": 222299.99999999965,
      "d": 240,
      "v": 69
    },
    {
      "midi": 43,
      "hit": false,
      "t": 222313.33333333308,
      "d": 113.33333333334303,
      "v": 90
    },
    {
      "midi": 72,
      "hit": false,
      "t": 222313.33333333328,
      "d": 300,
      "v": 127
    },
    {
      "midi": 55,
      "hit": false,
      "t": 222379.99999999974,
      "d": 340,
      "v": 90
    },
    {
      "midi": 36,
      "hit": false,
      "t": 222399.99999999974,
      "d": 100.0000000000291,
      "v": 90
    },
    {
      "midi": 48,
      "hit": false,
      "t": 222459.99999999977,
      "d": 146.66666666665697,
      "v": 90
    },
    {
      "midi": 79,
      "hit": false,
      "t": 222493.333333333,
      "d": 286.66666666668607,
      "v": 69
    },
    {
      "midi": 43,
      "hit": false,
      "t": 222493.3333333331,
      "d": 86.66666666665697,
      "v": 90
    },
    {
      "midi": 36,
      "hit": false,
      "t": 222553.3333333331,
      "d": 119.9999999999709,
      "v": 90
    },
    {
      "midi": 48,
      "hit": false,
      "t": 222659.99999999977,
      "d": 153.33333333331393,
      "v": 90
    },
    {
      "midi": 43,
      "hit": false,
      "t": 222666.66666666642,
      "d": 93.33333333331393,
      "v": 90
    },
    {
      "midi": 63,
      "hit": false,
      "t": 222693.33333333328,
      "d": 366.66666666665697,
      "v": 127
    },
    {
      "midi": 72,
      "hit": false,
      "t": 222726.66666666634,
      "d": 146.66666666668607,
      "v": 69
    },
    {
      "midi": 36,
      "hit": false,
      "t": 222726.6666666664,
      "d": 93.33333333334303,
      "v": 90
    },
    {
      "midi": 76,
      "hit": false,
      "t": 222779.99999999968,
      "d": 213.33333333334303,
      "v": 69
    },
    {
      "midi": 55,
      "hit": false,
      "t": 222799.99999999974,
      "d": 113.33333333334303,
      "v": 90
    },
    {
      "midi": 43,
      "hit": false,
      "t": 222833.33333333308,
      "d": 100,
      "v": 90
    },
    {
      "midi": 48,
      "hit": false,
      "t": 222839.99999999974,
      "d": 206.66666666665697,
      "v": 90
    },
    {
      "midi": 36,
      "hit": false,
      "t": 222893.33333333308,
      "d": 100,
      "v": 90
    },
    {
      "midi": 79,
      "hit": false,
      "t": 222933.33333333302,
      "d": 140,
      "v": 69
    },
    {
      "midi": 43,
      "hit": false,
      "t": 222986.66666666642,
      "d": 113.33333333331393,
      "v": 90
    },
    {
      "midi": 55,
      "hit": false,
      "t": 222999.99999999974,
      "d": 140,
      "v": 90
    },
    {
      "midi": 65,
      "hit": false,
      "t": 223013.33333333328,
      "d": 426.66666666665697,
      "v": 127
    },
    {
      "midi": 72,
      "hit": false,
      "t": 223026.66666666637,
      "d": 100,
      "v": 69
    },
    {
      "midi": 36,
      "hit": false,
      "t": 223059.99999999974,
      "d": 73.33333333334303,
      "v": 90
    },
    {
      "midi": 48,
      "hit": false,
      "t": 223093.33333333308,
      "d": 173.33333333334303,
      "v": 90
    },
    {
      "midi": 43,
      "hit": false,
      "t": 223139.99999999974,
      "d": 113.33333333334303,
      "v": 90
    },
    {
      "midi": 60,
      "hit": false,
      "t": 223146.66666666637,
      "d": 166.66666666665697,
      "v": 69
    },
    {
      "midi": 55,
      "hit": false,
      "t": 223199.99999999974,
      "d": 173.33333333334303,
      "v": 90
    },
    {
      "midi": 36,
      "hit": false,
      "t": 223213.33333333308,
      "d": 80,
      "v": 90
    },
    {
      "midi": 43,
      "hit": false,
      "t": 223299.99999999974,
      "d": 113.33333333334303,
      "v": 90
    },
    {
      "midi": 48,
      "hit": false,
      "t": 223299.99999999974,
      "d": 173.33333333334303,
      "v": 90
    },
    {
      "midi": 64,
      "hit": false,
      "t": 223333.33333333302,
      "d": 153.33333333334303,
      "v": 69
    },
    {
      "midi": 36,
      "hit": false,
      "t": 223379.99999999974,
      "d": 73.33333333334303,
      "v": 90
    },
    {
      "midi": 55,
      "hit": false,
      "t": 223419.99999999974,
      "d": 153.33333333334303,
      "v": 90
    },
    {
      "midi": 58,
      "hit": false,
      "t": 223419.99999999994,
      "d": 280,
      "v": 127
    },
    {
      "midi": 67,
      "hit": false,
      "t": 223453.33333333302,
      "d": 253.33333333334303,
      "v": 69
    },
    {
      "midi": 43,
      "hit": false,
      "t": 223466.66666666642,
      "d": 126.66666666665697,
      "v": 90
    },
    {
      "midi": 48,
      "hit": false,
      "t": 223499.99999999974,
      "d": 180.0000000000291,
      "v": 90
    },
    {
      "midi": 36,
      "hit": false,
      "t": 223553.33333333308,
      "d": 66.66666666665697,
      "v": 90
    },
    {
      "midi": 55,
      "hit": false,
      "t": 223633.33333333308,
      "d": 146.66666666668607,
      "v": 90
    },
    {
      "midi": 43,
      "hit": false,
      "t": 223646.66666666642,
      "d": 120,
      "v": 90
    },
    {
      "midi": 64,
      "hit": false,
      "t": 223666.66666666637,
      "d": 126.66666666665697,
      "v": 69
    },
    {
      "midi": 48,
      "hit": false,
      "t": 223719.99999999977,
      "d": 200,
      "v": 90
    },
    {
      "midi": 36,
      "hit": false,
      "t": 223726.66666666642,
      "d": 113.33333333334303,
      "v": 90
    },
    {
      "midi": 60,
      "hit": false,
      "t": 223746.6666666666,
      "d": 393.33333333331393,
      "v": 127
    },
    {
      "midi": 43,
      "hit": false,
      "t": 223819.99999999977,
      "d": 126.66666666665697,
      "v": 90
    },
    {
      "midi": 48,
      "hit": false,
      "t": 223833.33333333302,
      "d": 273.33333333334303,
      "v": 69
    },
    {
      "midi": 36,
      "hit": false,
      "t": 223893.3333333331,
      "d": 179.9999999999709,
      "v": 90
    },
    {
      "midi": 55,
      "hit": false,
      "t": 223899.99999999977,
      "d": 233.33333333331393,
      "v": 90
    },
    {
      "midi": 48,
      "hit": false,
      "t": 223939.99999999977,
      "d": 13.33333333331393,
      "v": 90
    },
    {
      "midi": 43,
      "hit": false,
      "t": 224059.99999999974,
      "d": 246.66666666668607,
      "v": 90
    },
    {
      "midi": 53,
      "hit": false,
      "t": 224073.33333333326,
      "d": 273.33333333331393,
      "v": 127
    },
    {
      "midi": 48,
      "hit": false,
      "t": 224099.99999999974,
      "d": 280.0000000000291,
      "v": 90
    },
    {
      "midi": 52,
      "hit": false,
      "t": 224133.33333333302,
      "d": 153.33333333334303,
      "v": 69
    },
    {
      "midi": 55,
      "hit": false,
      "t": 224246.66666666637,
      "d": 233.33333333334303,
      "v": 69
    },
    {
      "midi": 55,
      "hit": false,
      "t": 224286.66666666642,
      "d": 286.66666666665697,
      "v": 90
    },
    {
      "midi": 51,
      "hit": false,
      "t": 224306.66666666657,
      "d": 486.66666666668607,
      "v": 127
    },
    {
      "midi": 58,
      "hit": false,
      "t": 224439.9999999997,
      "d": 120,
      "v": 69
    },
    {
      "midi": 36,
      "hit": false,
      "t": 224466.66666666642,
      "d": 180,
      "v": 90
    },
    {
      "midi": 59,
      "hit": false,
      "t": 224473.33333333305,
      "d": 93.33333333331393,
      "v": 69
    },
    {
      "midi": 48,
      "hit": false,
      "t": 224546.66666666642,
      "d": 353.33333333334303,
      "v": 90
    },
    {
      "midi": 52,
      "hit": false,
      "t": 224573.33333333302,
      "d": 100,
      "v": 69
    },
    {
      "midi": 36,
      "hit": false,
      "t": 224659.99999999968,
      "d": 5879.999999999971,
      "v": 69
    },
    {
      "midi": 43,
      "hit": false,
      "t": 224739.99999999977,
      "d": 193.33333333334303,
      "v": 90
    },
    {
      "midi": 48,
      "hit": false,
      "t": 224739.9999999999,
      "d": 1660,
      "v": 127
    },
    {
      "midi": 36,
      "hit": false,
      "t": 224886.66666666642,
      "d": 106.66666666668607,
      "v": 90
    },
    {
      "midi": 55,
      "hit": false,
      "t": 224939.99999999977,
      "d": 426.66666666665697,
      "v": 90
    },
    {
      "midi": 40,
      "hit": false,
      "t": 225153.33333333302,
      "d": 220,
      "v": 69
    },
    {
      "midi": 36,
      "hit": false,
      "t": 225179.99999999977,
      "d": 226.66666666665697,
      "v": 90
    },
    {
      "midi": 43,
      "hit": false,
      "t": 225306.66666666637,
      "d": 379.9999999999709,
      "v": 69
    },
    {
      "midi": 43,
      "hit": false,
      "t": 225306.66666666642,
      "d": 186.66666666668607,
      "v": 90
    },
    {
      "midi": 48,
      "hit": false,
      "t": 225439.99999999977,
      "d": 5193.333333333343,
      "v": 90
    },
    {
      "midi": 40,
      "hit": false,
      "t": 225559.99999999968,
      "d": 5006.666666666628,
      "v": 69
    },
    {
      "midi": 55,
      "hit": false,
      "t": 225999.99999999977,
      "d": 4633.333333333343,
      "v": 90
    },
    {
      "midi": 64,
      "hit": false,
      "t": 226333.333333333,
      "d": 4213.333333333314,
      "v": 69
    },
    {
      "midi": 60,
      "hit": false,
      "t": 226339.99999999965,
      "d": 4213.333333333314,
      "v": 69
    },
    {
      "midi": 36,
      "hit": false,
      "t": 227053.3333333331,
      "d": 3573.333333333343,
      "v": 90
    }
  ]
}