{
  "jsonPath": "Latin/Ranchera/Guadalupe Pineda/de-nuevo-sola.json",
  "path": "Latin\\Ranchera\\Guadalupe Pineda\\De Nuevo Sola.mid",
  "name": "De Nuevo Sola",
  "difficulty": "Advanced",
  "bpm": 70.00023333411112,
  "notes": [
    {
      "midi": 71,
      "hit": false,
      "t": 4346.5546875,
      "d": 1937.4838541666668,
      "v": 103
    },
    {
      "midi": 55,
      "hit": false,
      "t": 4360.759114583333,
      "d": 1178.967447916667,
      "v": 86
    },
    {
      "midi": 59,
      "hit": false,
      "t": 5042.571614583333,
      "d": 414.7692708333334,
      "v": 81
    },
    {
      "midi": 62,
      "hit": false,
      "t": 5411.88671875,
      "d": 812.4932291666664,
      "v": 83
    },
    {
      "midi": 59,
      "hit": false,
      "t": 6156.198697916667,
      "d": 377.83776041666624,
      "v": 76
    },
    {
      "midi": 55,
      "hit": false,
      "t": 6522.672916666666,
      "d": 1318.1708333333336,
      "v": 79
    },
    {
      "midi": 71,
      "hit": false,
      "t": 6525.513802083333,
      "d": 2147.7093749999985,
      "v": 102
    },
    {
      "midi": 69,
      "hit": false,
      "t": 6528.354687499999,
      "d": 2073.846354166666,
      "v": 108
    },
    {
      "midi": 74,
      "hit": false,
      "t": 6534.036458333333,
      "d": 1869.3026041666662,
      "v": 85
    },
    {
      "midi": 59,
      "hit": false,
      "t": 7244.2578125,
      "d": 437.4963541666666,
      "v": 67
    },
    {
      "midi": 62,
      "hit": false,
      "t": 7605.050260416667,
      "d": 872.151822916665,
      "v": 102
    },
    {
      "midi": 59,
      "hit": false,
      "t": 8335.1578125,
      "d": 392.0421874999993,
      "v": 76
    },
    {
      "midi": 55,
      "hit": false,
      "t": 8704.472916666664,
      "d": 1849.4164062500022,
      "v": 93
    },
    {
      "midi": 67,
      "hit": false,
      "t": 8715.836458333331,
      "d": 2065.3236979166686,
      "v": 113
    },
    {
      "midi": 59,
      "hit": false,
      "t": 9423.216927083333,
      "d": 485.79140625000036,
      "v": 76
    },
    {
      "midi": 62,
      "hit": false,
      "t": 9806.736458333333,
      "d": 792.6070312499996,
      "v": 102
    },
    {
      "midi": 59,
      "hit": false,
      "t": 10522.639583333334,
      "d": 460.2234374999989,
      "v": 77
    },
    {
      "midi": 55,
      "hit": false,
      "t": 10903.318229166667,
      "d": 2093.732552083331,
      "v": 94
    },
    {
      "midi": 74,
      "hit": false,
      "t": 10909,
      "d": 2031.233072916666,
      "v": 84
    },
    {
      "midi": 69,
      "hit": false,
      "t": 10909,
      "d": 2051.119270833333,
      "v": 109
    },
    {
      "midi": 71,
      "hit": false,
      "t": 10909,
      "d": 2056.8010416666657,
      "v": 101
    },
    {
      "midi": 59,
      "hit": false,
      "t": 11633.42578125,
      "d": 477.2687499999993,
      "v": 85
    },
    {
      "midi": 62,
      "hit": false,
      "t": 12025.46796875,
      "d": 693.1760416666675,
      "v": 102
    },
    {
      "midi": 59,
      "hit": false,
      "t": 12707.28046875,
      "d": 292.61119791666533,
      "v": 84
    },
    {
      "midi": 62,
      "hit": false,
      "t": 13096.481770833332,
      "d": 1159.0812499999993,
      "v": 79
    },
    {
      "midi": 55,
      "hit": false,
      "t": 13102.163541666665,
      "d": 1974.4153645833321,
      "v": 84
    },
    {
      "midi": 67,
      "hit": false,
      "t": 13102.163541666665,
      "d": 2051.119270833333,
      "v": 99
    },
    {
      "midi": 59,
      "hit": false,
      "t": 14181.699999999999,
      "d": 1119.3088541666657,
      "v": 80
    },
    {
      "midi": 62,
      "hit": false,
      "t": 15272.599999999999,
      "d": 1127.831510416665,
      "v": 75
    },
    {
      "midi": 67,
      "hit": false,
      "t": 15275.440885416665,
      "d": 2164.754687499997,
      "v": 91
    },
    {
      "midi": 55,
      "hit": false,
      "t": 15281.122656249998,
      "d": 1806.8031249999985,
      "v": 74
    },
    {
      "midi": 59,
      "hit": false,
      "t": 16352.13645833333,
      "d": 1082.3773437499985,
      "v": 84
    },
    {
      "midi": 62,
      "hit": false,
      "t": 17437.354687499996,
      "d": 1159.0812499999993,
      "v": 69
    },
    {
      "midi": 66,
      "hit": false,
      "t": 17437.354687499996,
      "d": 2088.05078125,
      "v": 98
    },
    {
      "midi": 54,
      "hit": false,
      "t": 17443.03645833333,
      "d": 2053.9601562499993,
      "v": 89
    },
    {
      "midi": 59,
      "hit": false,
      "t": 18539.618229166663,
      "d": 1113.6270833333292,
      "v": 83
    },
    {
      "midi": 54,
      "hit": false,
      "t": 19630.51822916666,
      "d": 1937.483854166665,
      "v": 82
    },
    {
      "midi": 62,
      "hit": false,
      "t": 19636.199999999993,
      "d": 1119.3088541666657,
      "v": 75
    },
    {
      "midi": 66,
      "hit": false,
      "t": 19639.04088541666,
      "d": 1894.870572916665,
      "v": 94
    },
    {
      "midi": 59,
      "hit": false,
      "t": 20704.37291666666,
      "d": 852.265625,
      "v": 82
    },
    {
      "midi": 59,
      "hit": false,
      "t": 21809.477343749993,
      "d": 1156.2403645833328,
      "v": 69
    },
    {
      "midi": 64,
      "hit": false,
      "t": 21817.999999999993,
      "d": 2062.4828124999985,
      "v": 93
    },
    {
      "midi": 52,
      "hit": false,
      "t": 21820.84088541666,
      "d": 2045.4375,
      "v": 68
    },
    {
      "midi": 56,
      "hit": false,
      "t": 22900.37734374999,
      "d": 1090.9000000000015,
      "v": 88
    },
    {
      "midi": 60,
      "hit": false,
      "t": 24002.64088541666,
      "d": 1122.1497395833321,
      "v": 81
    },
    {
      "midi": 52,
      "hit": false,
      "t": 24002.64088541666,
      "d": 1903.3932291666642,
      "v": 69
    },
    {
      "midi": 64,
      "hit": false,
      "t": 24005.481770833325,
      "d": 1880.6661458333328,
      "v": 94
    },
    {
      "midi": 56,
      "hit": false,
      "t": 25090.69999999999,
      "d": 795.4479166666679,
      "v": 100
    },
    {
      "midi": 55,
      "hit": false,
      "t": 26170.236458333322,
      "d": 1178.9674479166679,
      "v": 75
    },
    {
      "midi": 60,
      "hit": false,
      "t": 26175.918229166655,
      "d": 2107.9369791666686,
      "v": 88
    },
    {
      "midi": 64,
      "hit": false,
      "t": 26181.599999999988,
      "d": 1982.938020833335,
      "v": 69
    },
    {
      "midi": 48,
      "hit": false,
      "t": 26181.599999999988,
      "d": 2051.1192708333365,
      "v": 67
    },
    {
      "midi": 52,
      "hit": false,
      "t": 27272.49999999999,
      "d": 1142.0359375000007,
      "v": 78
    },
    {
      "midi": 55,
      "hit": false,
      "t": 28357.718229166658,
      "d": 1122.1497395833321,
      "v": 75
    },
    {
      "midi": 60,
      "hit": false,
      "t": 28366.240885416657,
      "d": 1920.4385416666664,
      "v": 88
    },
    {
      "midi": 64,
      "hit": false,
      "t": 28366.240885416657,
      "d": 1920.4385416666664,
      "v": 85
    },
    {
      "midi": 48,
      "hit": false,
      "t": 28366.240885416657,
      "d": 1951.6882812500007,
      "v": 78
    },
    {
      "midi": 52,
      "hit": false,
      "t": 29451.459114583322,
      "d": 877.8335937500015,
      "v": 77
    },
    {
      "midi": 55,
      "hit": false,
      "t": 30530.995572916658,
      "d": 1204.5354166666657,
      "v": 76
    },
    {
      "midi": 48,
      "hit": false,
      "t": 30542.359114583323,
      "d": 1113.6270833333328,
      "v": 68
    },
    {
      "midi": 60,
      "hit": false,
      "t": 30545.19999999999,
      "d": 2059.641927083332,
      "v": 91
    },
    {
      "midi": 51,
      "hit": false,
      "t": 31627.57734374999,
      "d": 1144.8768229166672,
      "v": 93
    },
    {
      "midi": 55,
      "hit": false,
      "t": 32726.99999999999,
      "d": 1127.831510416665,
      "v": 80
    },
    {
      "midi": 60,
      "hit": false,
      "t": 32732.681770833322,
      "d": 1903.3932291666679,
      "v": 86
    },
    {
      "midi": 48,
      "hit": false,
      "t": 32735.52265624999,
      "d": 1096.5817708333343,
      "v": 77
    },
    {
      "midi": 51,
      "hit": false,
      "t": 33812.218229166654,
      "d": 877.8335937500015,
      "v": 100
    },
    {
      "midi": 55,
      "hit": false,
      "t": 34877.550260416654,
      "d": 2090.8916666666773,
      "v": 75
    },
    {
      "midi": 59,
      "hit": false,
      "t": 34883.23203124999,
      "d": 948.855729166673,
      "v": 71
    },
    {
      "midi": 62,
      "hit": false,
      "t": 34886.07291666666,
      "d": 2008.5059895833401,
      "v": 72
    },
    {
      "midi": 50,
      "hit": false,
      "t": 35962.76848958333,
      "d": 1005.6734375000015,
      "v": 73
    },
    {
      "midi": 59,
      "hit": false,
      "t": 35976.972916666666,
      "d": 980.10546875,
      "v": 86
    },
    {
      "midi": 55,
      "hit": false,
      "t": 37065.03203125,
      "d": 2048.2783854166846,
      "v": 76
    },
    {
      "midi": 59,
      "hit": false,
      "t": 37067.87291666667,
      "d": 948.855729166673,
      "v": 81
    },
    {
      "midi": 62,
      "hit": false,
      "t": 37070.71380208334,
      "d": 2028.3921875000087,
      "v": 77
    },
    {
      "midi": 59,
      "hit": false,
      "t": 38158.772916666676,
      "d": 946.0148437500029,
      "v": 90
    },
    {
      "midi": 50,
      "hit": false,
      "t": 38158.772916666676,
      "d": 980.1054687500073,
      "v": 70
    },
    {
      "midi": 61,
      "hit": false,
      "t": 39243.99114583335,
      "d": 2062.482812500006,
      "v": 97
    },
    {
      "midi": 57,
      "hit": false,
      "t": 39246.83203125002,
      "d": 1994.3015625000044,
      "v": 75
    },
    {
      "midi": 55,
      "hit": false,
      "t": 39258.19557291669,
      "d": 1105.1044270833372,
      "v": 80
    },
    {
      "midi": 52,
      "hit": false,
      "t": 40360.459114583355,
      "d": 1053.9684895833343,
      "v": 76
    },
    {
      "midi": 55,
      "hit": false,
      "t": 41437.15468750002,
      "d": 1073.854687500003,
      "v": 81
    },
    {
      "midi": 61,
      "hit": false,
      "t": 41442.83645833335,
      "d": 1985.7789062500087,
      "v": 108
    },
    {
      "midi": 57,
      "hit": false,
      "t": 41445.67734375002,
      "d": 1997.1424479166744,
      "v": 79
    },
    {
      "midi": 52,
      "hit": false,
      "t": 42525.21380208336,
      "d": 943.1739583333401,
      "v": 85
    },
    {
      "midi": 55,
      "hit": false,
      "t": 43641.68177083337,
      "d": 1034.082291666673,
      "v": 92
    },
    {
      "midi": 57,
      "hit": false,
      "t": 43644.52265625004,
      "d": 914.7651041666686,
      "v": 87
    },
    {
      "midi": 62,
      "hit": false,
      "t": 43644.52265625004,
      "d": 934.6513020833372,
      "v": 90
    },
    {
      "midi": 54,
      "hit": false,
      "t": 44715.53645833337,
      "d": 1036.9231770833358,
      "v": 84
    },
    {
      "midi": 57,
      "hit": false,
      "t": 44724.059114583375,
      "d": 786.9252604166686,
      "v": 77
    },
    {
      "midi": 62,
      "hit": false,
      "t": 44726.900000000045,
      "d": 900.5606770833328,
      "v": 85
    },
    {
      "midi": 57,
      "hit": false,
      "t": 45797.91380208338,
      "d": 1065.33203125,
      "v": 76
    },
    {
      "midi": 62,
      "hit": false,
      "t": 45806.43645833338,
      "d": 917.6059895833314,
      "v": 94
    },
    {
      "midi": 66,
      "hit": false,
      "t": 45809.27734375005,
      "d": 789.7661458333314,
      "v": 93
    },
    {
      "midi": 54,
      "hit": false,
      "t": 46891.65468750004,
      "d": 931.8104166666672,
      "v": 101
    },
    {
      "midi": 66,
      "hit": false,
      "t": 46897.336458333375,
      "d": 872.1518229166686,
      "v": 96
    },
    {
      "midi": 62,
      "hit": false,
      "t": 46897.336458333375,
      "d": 894.87890625,
      "v": 96
    },
    {
      "midi": 60,
      "hit": false,
      "t": 47999.60000000004,
      "d": 2065.3236979166686,
      "v": 101
    },
    {
      "midi": 64,
      "hit": false,
      "t": 47999.60000000004,
      "d": 2119.3005208333343,
      "v": 88
    },
    {
      "midi": 55,
      "hit": false,
      "t": 48002.44088541671,
      "d": 1088.0591145833314,
      "v": 103
    },
    {
      "midi": 52,
      "hit": false,
      "t": 49090.500000000044,
      "d": 1085.2182291666686,
      "v": 99
    },
    {
      "midi": 57,
      "hit": false,
      "t": 50187.08177083338,
      "d": 1079.5364583333358,
      "v": 92
    },
    {
      "midi": 66,
      "hit": false,
      "t": 50187.08177083338,
      "d": 2073.8463541666715,
      "v": 103
    },
    {
      "midi": 62,
      "hit": false,
      "t": 50189.92265625005,
      "d": 2079.5281250000044,
      "v": 100
    },
    {
      "midi": 54,
      "hit": false,
      "t": 51269.459114583384,
      "d": 1008.5143229166715,
      "v": 102
    },
    {
      "midi": 66,
      "hit": false,
      "t": 52331.95026041672,
      "d": 2053.960156250003,
      "v": 89
    },
    {
      "midi": 47,
      "hit": false,
      "t": 52331.95026041672,
      "d": 2213.049739583337,
      "v": 79
    },
    {
      "midi": 57,
      "hit": false,
      "t": 52334.79114583339,
      "d": 1946.0065104166642,
      "v": 88
    },
    {
      "midi": 62,
      "hit": false,
      "t": 52334.79114583339,
      "d": 2048.278385416663,
      "v": 88
    },
    {
      "midi": 56,
      "hit": false,
      "t": 54527.95468750006,
      "d": 1048.2867187500015,
      "v": 109
    },
    {
      "midi": 52,
      "hit": false,
      "t": 54527.95468750006,
      "d": 2142.0276041666657,
      "v": 75
    },
    {
      "midi": 64,
      "hit": false,
      "t": 54539.318229166725,
      "d": 2116.4596354166642,
      "v": 86
    },
    {
      "midi": 62,
      "hit": false,
      "t": 54545.00000000006,
      "d": 2099.4143229166657,
      "v": 84
    },
    {
      "midi": 56,
      "hit": false,
      "t": 55635.90000000006,
      "d": 863.6291666666657,
      "v": 103
    },
    {
      "midi": 57,
      "hit": false,
      "t": 56721.11822916673,
      "d": 1113.6270833333328,
      "v": 98
    },
    {
      "midi": 64,
      "hit": false,
      "t": 56726.80000000006,
      "d": 2088.05078125,
      "v": 89
    },
    {
      "midi": 60,
      "hit": false,
      "t": 56726.80000000006,
      "d": 2139.186718750003,
      "v": 103
    },
    {
      "midi": 52,
      "hit": false,
      "t": 57817.70000000006,
      "d": 999.9916666666686,
      "v": 92
    },
    {
      "midi": 54,
      "hit": false,
      "t": 58897.2364583334,
      "d": 963.0601562500015,
      "v": 96
    },
    {
      "midi": 62,
      "hit": false,
      "t": 58897.2364583334,
      "d": 2110.7778645833314,
      "v": 85
    },
    {
      "midi": 57,
      "hit": false,
      "t": 58900.07734375007,
      "d": 2096.5734374999956,
      "v": 76
    },
    {
      "midi": 54,
      "hit": false,
      "t": 60002.340885416736,
      "d": 971.5828124999971,
      "v": 89
    },
    {
      "midi": 60,
      "hit": false,
      "t": 61093.24088541673,
      "d": 1079.5364583333358,
      "v": 85
    },
    {
      "midi": 62,
      "hit": false,
      "t": 61098.92265625006,
      "d": 1968.7335937500102,
      "v": 96
    },
    {
      "midi": 67,
      "hit": false,
      "t": 61101.76354166673,
      "d": 1855.0981770833387,
      "v": 90
    },
    {
      "midi": 55,
      "hit": false,
      "t": 62181.30000000007,
      "d": 1056.8093750000044,
      "v": 101
    },
    {
      "midi": 59,
      "hit": false,
      "t": 63246.632031250076,
      "d": 1093.7408854166642,
      "v": 81
    },
    {
      "midi": 67,
      "hit": false,
      "t": 63246.632031250076,
      "d": 2031.2330729166642,
      "v": 90
    },
    {
      "midi": 62,
      "hit": false,
      "t": 63246.632031250076,
      "d": 2036.914843749997,
      "v": 94
    },
    {
      "midi": 53,
      "hit": false,
      "t": 64340.37291666674,
      "d": 977.2645833333299,
      "v": 107
    },
    {
      "midi": 60,
      "hit": false,
      "t": 65448.31822916674,
      "d": 1161.9221354166584,
      "v": 98
    },
    {
      "midi": 64,
      "hit": false,
      "t": 65448.31822916674,
      "d": 1221.5807291666642,
      "v": 85
    },
    {
      "midi": 55,
      "hit": false,
      "t": 66544.90000000007,
      "d": 1093.7408854166715,
      "v": 89
    },
    {
      "midi": 57,
      "hit": false,
      "t": 67647.16354166674,
      "d": 1954.5291666666599,
      "v": 89
    },
    {
      "midi": 62,
      "hit": false,
      "t": 67647.16354166674,
      "d": 1982.9380208333314,
      "v": 84
    },
    {
      "midi": 54,
      "hit": false,
      "t": 68726.70000000007,
      "d": 934.6513020833372,
      "v": 88
    },
    {
      "midi": 54,
      "hit": false,
      "t": 69820.44088541674,
      "d": 781.2434895833285,
      "v": 84
    },
    {
      "midi": 62,
      "hit": false,
      "t": 69820.44088541674,
      "d": 2105.0960937499913,
      "v": 89
    },
    {
      "midi": 57,
      "hit": false,
      "t": 69823.2817708334,
      "d": 2031.2330729166715,
      "v": 89
    },
    {
      "midi": 54,
      "hit": false,
      "t": 70919.86354166674,
      "d": 991.4690104166657,
      "v": 102
    },
    {
      "midi": 64,
      "hit": false,
      "t": 71988.0364583334,
      "d": 1999.9833333333663,
      "v": 86
    },
    {
      "midi": 59,
      "hit": false,
      "t": 71993.71822916674,
      "d": 1977.2562500000204,
      "v": 85
    },
    {
      "midi": 52,
      "hit": false,
      "t": 71999.40000000008,
      "d": 1073.854687500003,
      "v": 69
    },
    {
      "midi": 56,
      "hit": false,
      "t": 73078.93645833342,
      "d": 897.7197916666773,
      "v": 112
    },
    {
      "midi": 57,
      "hit": false,
      "t": 74175.51822916677,
      "d": 1142.035937499997,
      "v": 76
    },
    {
      "midi": 64,
      "hit": false,
      "t": 74181.20000000011,
      "d": 1909.074999999997,
      "v": 80
    },
    {
      "midi": 60,
      "hit": false,
      "t": 74181.20000000011,
      "d": 2011.346875000003,
      "v": 101
    },
    {
      "midi": 52,
      "hit": false,
      "t": 75283.46354166677,
      "d": 897.7197916666773,
      "v": 75
    },
    {
      "midi": 52,
      "hit": false,
      "t": 76348.79557291679,
      "d": 1105.1044270833372,
      "v": 85
    },
    {
      "midi": 60,
      "hit": false,
      "t": 76348.79557291679,
      "d": 2002.82421875,
      "v": 102
    },
    {
      "midi": 64,
      "hit": false,
      "t": 76351.63645833345,
      "d": 1977.2562500000058,
      "v": 83
    },
    {
      "midi": 55,
      "hit": false,
      "t": 77448.21822916679,
      "d": 937.4921875,
      "v": 98
    },
    {
      "midi": 50,
      "hit": false,
      "t": 78541.95911458346,
      "d": 1167.6039062499913,
      "v": 64
    },
    {
      "midi": 66,
      "hit": false,
      "t": 78544.80000000012,
      "d": 1869.3026041666599,
      "v": 95
    },
    {
      "midi": 62,
      "hit": false,
      "t": 78544.80000000012,
      "d": 1931.8020833333285,
      "v": 91
    },
    {
      "midi": 54,
      "hit": false,
      "t": 79647.06354166678,
      "d": 1002.8325520833314,
      "v": 88
    },
    {
      "midi": 60,
      "hit": false,
      "t": 80720.91822916678,
      "d": 1059.6502604166744,
      "v": 82
    },
    {
      "midi": 66,
      "hit": false,
      "t": 80726.60000000012,
      "d": 1999.9833333333372,
      "v": 95
    },
    {
      "midi": 62,
      "hit": false,
      "t": 80726.60000000012,
      "d": 2011.346875000003,
      "v": 93
    },
    {
      "midi": 54,
      "hit": false,
      "t": 81800.45468750013,
      "d": 974.4236979166599,
      "v": 84
    },
    {
      "midi": 55,
      "hit": false,
      "t": 82899.87734375012,
      "d": 1988.6197916666715,
      "v": 74
    },
    {
      "midi": 59,
      "hit": false,
      "t": 82905.55911458346,
      "d": 838.0611979166715,
      "v": 89
    },
    {
      "midi": 62,
      "hit": false,
      "t": 82905.55911458346,
      "d": 1946.0065104166715,
      "v": 80
    },
    {
      "midi": 59,
      "hit": false,
      "t": 83979.41380208347,
      "d": 906.2424479166657,
      "v": 87
    },
    {
      "midi": 59,
      "hit": false,
      "t": 85087.35911458347,
      "d": 829.5385416666686,
      "v": 95
    },
    {
      "midi": 55,
      "hit": false,
      "t": 85090.20000000013,
      "d": 1761.348958333343,
      "v": 94
    },
    {
      "midi": 62,
      "hit": false,
      "t": 85090.20000000013,
      "d": 1892.0296875000058,
      "v": 87
    },
    {
      "midi": 59,
      "hit": false,
      "t": 86181.10000000014,
      "d": 681.8125,
      "v": 86
    },
    {
      "midi": 54,
      "hit": false,
      "t": 87246.43203125014,
      "d": 1994.301562499997,
      "v": 90
    },
    {
      "midi": 59,
      "hit": false,
      "t": 87257.7955729168,
      "d": 855.1065104166628,
      "v": 85
    },
    {
      "midi": 62,
      "hit": false,
      "t": 87260.63645833347,
      "d": 2048.278385416663,
      "v": 87
    },
    {
      "midi": 59,
      "hit": false,
      "t": 88354.37734375014,
      "d": 866.4700520833285,
      "v": 78
    },
    {
      "midi": 54,
      "hit": false,
      "t": 89450.95911458346,
      "d": 880.6744791666715,
      "v": 102
    },
    {
      "midi": 59,
      "hit": false,
      "t": 89456.6408854168,
      "d": 1960.2109375,
      "v": 91
    },
    {
      "midi": 62,
      "hit": false,
      "t": 89465.1635416668,
      "d": 1965.8927083333256,
      "v": 83
    },
    {
      "midi": 54,
      "hit": false,
      "t": 90521.9729166668,
      "d": 940.3330729166628,
      "v": 110
    },
    {
      "midi": 52,
      "hit": false,
      "t": 91621.3955729168,
      "d": 1105.1044270833372,
      "v": 68
    },
    {
      "midi": 62,
      "hit": false,
      "t": 91624.23645833346,
      "d": 1184.6492187500116,
      "v": 83
    },
    {
      "midi": 64,
      "hit": false,
      "t": 91629.9182291668,
      "d": 1161.9221354166657,
      "v": 76
    },
    {
      "midi": 56,
      "hit": false,
      "t": 92717.97734375013,
      "d": 1110.7861979166773,
      "v": 77
    },
    {
      "midi": 64,
      "hit": false,
      "t": 93837.28619791681,
      "d": 1934.6429687499913,
      "v": 80
    },
    {
      "midi": 60,
      "hit": false,
      "t": 93837.28619791681,
      "d": 1946.006510416657,
      "v": 95
    },
    {
      "midi": 56,
      "hit": false,
      "t": 94905.45911458347,
      "d": 926.1286458333343,
      "v": 69
    },
    {
      "midi": 60,
      "hit": false,
      "t": 96021.92708333347,
      "d": 2164.754687499997,
      "v": 76
    },
    {
      "midi": 64,
      "hit": false,
      "t": 96021.92708333347,
      "d": 4178.942447916663,
      "v": 70
    },
    {
      "midi": 52,
      "hit": false,
      "t": 97090.10000000014,
      "d": 1877.8252604166773,
      "v": 77
    },
    {
      "midi": 55,
      "hit": false,
      "t": 98203.72708333348,
      "d": 1999.9833333333227,
      "v": 69
    },
    {
      "midi": 60,
      "hit": false,
      "t": 98510.54270833348,
      "d": 1772.7124999999796,
      "v": 88
    },
    {
      "midi": 52,
      "hit": false,
      "t": 99249.17291666681,
      "d": 1048.2867187499796,
      "v": 80
    },
    {
      "midi": 63,
      "hit": false,
      "t": 100351.43645833345,
      "d": 1852.2572916666686,
      "v": 95
    },
    {
      "midi": 60,
      "hit": false,
      "t": 100351.43645833345,
      "d": 1963.0518229166628,
      "v": 91
    },
    {
      "midi": 51,
      "hit": false,
      "t": 101467.90442708346,
      "d": 1008.514322916657,
      "v": 62
    },
    {
      "midi": 55,
      "hit": false,
      "t": 102530.39557291678,
      "d": 1093.7408854166715,
      "v": 76
    },
    {
      "midi": 60,
      "hit": false,
      "t": 102536.07734375012,
      "d": 2090.8916666666773,
      "v": 101
    },
    {
      "midi": 63,
      "hit": false,
      "t": 102538.91822916678,
      "d": 2090.8916666666773,
      "v": 96
    },
    {
      "midi": 51,
      "hit": false,
      "t": 103629.81822916679,
      "d": 1028.4005208333401,
      "v": 89
    },
    {
      "midi": 62,
      "hit": false,
      "t": 104720.7182291668,
      "d": 1383.5111979166686,
      "v": 85
    },
    {
      "midi": 67,
      "hit": false,
      "t": 104723.55911458346,
      "d": 1321.01171875,
      "v": 85
    },
    {
      "midi": 59,
      "hit": false,
      "t": 104723.55911458346,
      "d": 1423.2835937500058,
      "v": 74
    },
    {
      "midi": 50,
      "hit": false,
      "t": 105820.1408854168,
      "d": 1090.8999999999942,
      "v": 84
    },
    {
      "midi": 55,
      "hit": false,
      "t": 106908.20000000013,
      "d": 1133.5132812499942,
      "v": 84
    },
    {
      "midi": 62,
      "hit": false,
      "t": 106911.04088541679,
      "d": 2090.891666666663,
      "v": 89
    },
    {
      "midi": 59,
      "hit": false,
      "t": 106911.04088541679,
      "d": 2102.2552083333285,
      "v": 75
    },
    {
      "midi": 50,
      "hit": false,
      "t": 108010.46354166679,
      "d": 1034.0822916666657,
      "v": 84
    },
    {
      "midi": 52,
      "hit": false,
      "t": 109070.11380208345,
      "d": 917.6059895833314,
      "v": 76
    },
    {
      "midi": 57,
      "hit": false,
      "t": 109070.11380208345,
      "d": 2068.1645833333314,
      "v": 85
    },
    {
      "midi": 49,
      "hit": false,
      "t": 109072.95468750011,
      "d": 2053.960156250003,
      "v": 73
    },
    {
      "midi": 52,
      "hit": false,
      "t": 110163.85468750012,
      "d": 960.2192708333314,
      "v": 84
    },
    {
      "midi": 52,
      "hit": false,
      "t": 111260.43645833344,
      "d": 892.0380208333372,
      "v": 74
    },
    {
      "midi": 49,
      "hit": false,
      "t": 111263.2773437501,
      "d": 2088.05078125,
      "v": 89
    },
    {
      "midi": 57,
      "hit": false,
      "t": 111268.95911458344,
      "d": 2062.4828124999913,
      "v": 78
    },
    {
      "midi": 52,
      "hit": false,
      "t": 112365.54088541678,
      "d": 963.0601562499942,
      "v": 93
    },
    {
      "midi": 55,
      "hit": false,
      "t": 113456.44088541677,
      "d": 1076.6955729166657,
      "v": 89
    },
    {
      "midi": 57,
      "hit": false,
      "t": 113456.44088541677,
      "d": 1434.647135416657,
      "v": 88
    },
    {
      "midi": 62,
      "hit": false,
      "t": 113456.44088541677,
      "d": 1499.9874999999884,
      "v": 81
    },
    {
      "midi": 54,
      "hit": false,
      "t": 114555.86354166677,
      "d": 1065.3320312499854,
      "v": 104
    },
    {
      "midi": 62,
      "hit": false,
      "t": 115632.55911458342,
      "d": 2031.2330729166715,
      "v": 81
    },
    {
      "midi": 57,
      "hit": false,
      "t": 115632.55911458342,
      "d": 2045.4375,
      "v": 88
    },
    {
      "midi": 54,
      "hit": false,
      "t": 116740.50442708342,
      "d": 937.4921875,
      "v": 89
    },
    {
      "midi": 55,
      "hit": false,
      "t": 117839.92708333342,
      "d": 1767.0307291666686,
      "v": 90
    },
    {
      "midi": 60,
      "hit": false,
      "t": 117839.92708333342,
      "d": 2042.5966145833372,
      "v": 100
    },
    {
      "midi": 64,
      "hit": false,
      "t": 117842.76796875008,
      "d": 1889.188802083343,
      "v": 83
    },
    {
      "midi": 52,
      "hit": false,
      "t": 118913.78177083342,
      "d": 971.5828124999971,
      "v": 93
    },
    {
      "midi": 54,
      "hit": false,
      "t": 119987.63645833342,
      "d": 937.4921875,
      "v": 98
    },
    {
      "midi": 62,
      "hit": false,
      "t": 119993.31822916676,
      "d": 2073.846354166657,
      "v": 85
    },
    {
      "midi": 57,
      "hit": false,
      "t": 119993.31822916676,
      "d": 2082.36901041666,
      "v": 78
    },
    {
      "midi": 54,
      "hit": false,
      "t": 121089.90000000008,
      "d": 988.6281250000029,
      "v": 102
    },
    {
      "midi": 54,
      "hit": false,
      "t": 122192.16354166676,
      "d": 860.7882812500029,
      "v": 95
    },
    {
      "midi": 57,
      "hit": false,
      "t": 122192.16354166676,
      "d": 2090.891666666663,
      "v": 91
    },
    {
      "midi": 62,
      "hit": false,
      "t": 122203.52708333342,
      "d": 1801.1213541666657,
      "v": 66
    },
    {
      "midi": 54,
      "hit": false,
      "t": 123266.01822916676,
      "d": 971.5828124999971,
      "v": 91
    },
    {
      "midi": 52,
      "hit": false,
      "t": 124337.03203125008,
      "d": 889.1971354166744,
      "v": 82
    },
    {
      "midi": 56,
      "hit": false,
      "t": 124339.87291666675,
      "d": 2093.73255208334,
      "v": 102
    },
    {
      "midi": 62,
      "hit": false,
      "t": 124345.55468750009,
      "d": 2085.209895833337,
      "v": 91
    },
    {
      "midi": 52,
      "hit": false,
      "t": 125430.77291666676,
      "d": 1031.241406250003,
      "v": 83
    },
    {
      "midi": 57,
      "hit": false,
      "t": 126541.55911458342,
      "d": 1965.8927083333256,
      "v": 90
    },
    {
      "midi": 60,
      "hit": false,
      "t": 126541.55911458342,
      "d": 2102.2552083333285,
      "v": 98
    },
    {
      "midi": 64,
      "hit": false,
      "t": 126544.40000000008,
      "d": 2068.1645833333314,
      "v": 87
    },
    {
      "midi": 52,
      "hit": false,
      "t": 127646.66354166674,
      "d": 869.3109375000058,
      "v": 85
    },
    {
      "midi": 54,
      "hit": false,
      "t": 128717.67734375008,
      "d": 897.7197916666773,
      "v": 90
    },
    {
      "midi": 57,
      "hit": false,
      "t": 128717.67734375008,
      "d": 2156.2320312500087,
      "v": 78
    },
    {
      "midi": 62,
      "hit": false,
      "t": 128723.35911458342,
      "d": 2161.9138020833343,
      "v": 85
    },
    {
      "midi": 54,
      "hit": false,
      "t": 129817.1000000001,
      "d": 1065.33203125,
      "v": 106
    },
    {
      "midi": 60,
      "hit": false,
      "t": 130910.84088541675,
      "d": 1048.2867187499942,
      "v": 91
    },
    {
      "midi": 55,
      "hit": false,
      "t": 130916.52265625009,
      "d": 866.4700520833285,
      "v": 79
    },
    {
      "midi": 62,
      "hit": false,
      "t": 130919.36354166675,
      "d": 1965.8927083333401,
      "v": 74
    },
    {
      "midi": 59,
      "hit": false,
      "t": 131976.17291666675,
      "d": 965.9010416666861,
      "v": 95
    },
    {
      "midi": 55,
      "hit": false,
      "t": 131987.53645833343,
      "d": 917.6059895833314,
      "v": 76
    },
    {
      "midi": 53,
      "hit": false,
      "t": 133072.7546875001,
      "d": 917.6059895833314,
      "v": 84
    },
    {
      "midi": 62,
      "hit": false,
      "t": 133078.43645833342,
      "d": 1997.1424479166744,
      "v": 81
    },
    {
      "midi": 59,
      "hit": false,
      "t": 133078.43645833342,
      "d": 2025.5513020833605,
      "v": 85
    },
    {
      "midi": 53,
      "hit": false,
      "t": 134175.01822916677,
      "d": 917.6059895833314,
      "v": 100
    },
    {
      "midi": 55,
      "hit": false,
      "t": 135248.8729166668,
      "d": 1687.4859374999942,
      "v": 78
    },
    {
      "midi": 60,
      "hit": false,
      "t": 135251.71380208345,
      "d": 2110.7778645833314,
      "v": 95
    },
    {
      "midi": 64,
      "hit": false,
      "t": 135257.39557291678,
      "d": 2113.618749999994,
      "v": 77
    },
    {
      "midi": 52,
      "hit": false,
      "t": 136339.77291666679,
      "d": 1122.149739583343,
      "v": 86
    },
    {
      "midi": 57,
      "hit": false,
      "t": 137447.71822916679,
      "d": 1880.6661458333256,
      "v": 84
    },
    {
      "midi": 66,
      "hit": false,
      "t": 137447.71822916679,
      "d": 2019.8695312500058,
      "v": 85
    },
    {
      "midi": 62,
      "hit": false,
      "t": 137450.55911458345,
      "d": 1832.37109375,
      "v": 84
    },
    {
      "midi": 54,
      "hit": false,
      "t": 138555.66354166679,
      "d": 874.9927083333314,
      "v": 85
    },
    {
      "midi": 54,
      "hit": false,
      "t": 139626.6773437501,
      "d": 883.5153645833198,
      "v": 81
    },
    {
      "midi": 57,
      "hit": false,
      "t": 139626.6773437501,
      "d": 1860.779947916657,
      "v": 78
    },
    {
      "midi": 62,
      "hit": false,
      "t": 139635.2000000001,
      "d": 1977.2562500000058,
      "v": 89
    },
    {
      "midi": 54,
      "hit": false,
      "t": 140726.1000000001,
      "d": 963.0601562500233,
      "v": 86
    },
    {
      "midi": 56,
      "hit": false,
      "t": 141805.63645833344,
      "d": 715.9031249999825,
      "v": 101
    },
    {
      "midi": 52,
      "hit": false,
      "t": 141805.63645833344,
      "d": 1062.491145833308,
      "v": 66
    },
    {
      "midi": 59,
      "hit": false,
      "t": 141811.31822916676,
      "d": 2085.209895833308,
      "v": 73
    },
    {
      "midi": 62,
      "hit": false,
      "t": 141817.0000000001,
      "d": 2082.3690104166453,
      "v": 62
    },
    {
      "midi": 56,
      "hit": false,
      "t": 142885.17291666675,
      "d": 1045.4458333333023,
      "v": 86
    },
    {
      "midi": 57,
      "hit": false,
      "t": 143978.91380208338,
      "d": 1974.415364583314,
      "v": 75
    },
    {
      "midi": 60,
      "hit": false,
      "t": 143978.91380208338,
      "d": 1974.415364583314,
      "v": 89
    },
    {
      "midi": 64,
      "hit": false,
      "t": 143984.5955729167,
      "d": 1883.5070312499884,
      "v": 70
    },
    {
      "midi": 52,
      "hit": false,
      "t": 145075.4955729167,
      "d": 946.0148437499884,
      "v": 86
    },
    {
      "midi": 52,
      "hit": false,
      "t": 146177.75911458334,
      "d": 1088.0591145833314,
      "v": 81
    },
    {
      "midi": 57,
      "hit": false,
      "t": 146180.6,
      "d": 2073.846354166657,
      "v": 72
    },
    {
      "midi": 60,
      "hit": false,
      "t": 146183.44088541667,
      "d": 2065.3236979166686,
      "v": 89
    },
    {
      "midi": 64,
      "hit": false,
      "t": 146186.28177083333,
      "d": 2048.278385416663,
      "v": 75
    },
    {
      "midi": 55,
      "hit": false,
      "t": 147268.65911458334,
      "d": 991.4690104166511,
      "v": 96
    },
    {
      "midi": 54,
      "hit": false,
      "t": 148339.67291666666,
      "d": 880.674479166657,
      "v": 89
    },
    {
      "midi": 50,
      "hit": false,
      "t": 148348.19557291665,
      "d": 2082.3690104166744,
      "v": 82
    },
    {
      "midi": 57,
      "hit": false,
      "t": 148351.0364583333,
      "d": 1994.3015625000116,
      "v": 94
    },
    {
      "midi": 62,
      "hit": false,
      "t": 148356.71822916664,
      "d": 1988.619791666686,
      "v": 69
    },
    {
      "midi": 54,
      "hit": false,
      "t": 149430.57291666666,
      "d": 954.5375000000058,
      "v": 93
    },
    {
      "midi": 57,
      "hit": false,
      "t": 150544.19999999998,
      "d": 2068.1645833333023,
      "v": 100
    },
    {
      "midi": 62,
      "hit": false,
      "t": 150552.72265624997,
      "d": 2071.005468749994,
      "v": 76
    },
    {
      "midi": 54,
      "hit": false,
      "t": 151623.7364583333,
      "d": 1011.3552083333489,
      "v": 87
    },
    {
      "midi": 55,
      "hit": false,
      "t": 152723.1591145833,
      "d": 4241.441927083302,
      "v": 113
    },
    {
      "midi": 59,
      "hit": false,
      "t": 152725.99999999997,
      "d": 812.4932291666628,
      "v": 102
    },
    {
      "midi": 62,
      "hit": false,
      "t": 152725.99999999997,
      "d": 1732.940104166657,
      "v": 94
    },
    {
      "midi": 59,
      "hit": false,
      "t": 153794.17291666663,
      "d": 1988.619791666657,
      "v": 113
    },
    {
      "midi": 62,
      "hit": false,
      "t": 154893.59557291662,
      "d": 1957.3700520833372,
      "v": 112
    },
    {
      "midi": 59,
      "hit": false,
      "t": 155975.97291666662,
      "d": 943.1739583333256,
      "v": 109
    },
    {
      "midi": 62,
      "hit": false,
      "t": 157078.23645833327,
      "d": 2011.3468749999884,
      "v": 102
    },
    {
      "midi": 54,
      "hit": false,
      "t": 157078.23645833327,
      "d": 2065.3236979166686,
      "v": 113
    },
    {
      "midi": 59,
      "hit": false,
      "t": 157083.9182291666,
      "d": 880.674479166657,
      "v": 93
    },
    {
      "midi": 59,
      "hit": false,
      "t": 158189.02265624993,
      "d": 900.5606770833256,
      "v": 112
    },
    {
      "midi": 54,
      "hit": false,
      "t": 159294.12708333327,
      "d": 1826.6893229166744,
      "v": 96
    },
    {
      "midi": 59,
      "hit": false,
      "t": 159296.96796874993,
      "d": 781.243489583343,
      "v": 95
    },
    {
      "midi": 62,
      "hit": false,
      "t": 159296.96796874993,
      "d": 1823.8484375000116,
      "v": 113
    },
    {
      "midi": 59,
      "hit": false,
      "t": 160376.50442708327,
      "d": 747.1528645833314,
      "v": 112
    },
    {
      "midi": 56,
      "hit": false,
      "t": 161427.63203124993,
      "d": 948.8557291666511,
      "v": 112
    },
    {
      "midi": 52,
      "hit": false,
      "t": 161430.4729166666,
      "d": 2173.277343749971,
      "v": 113
    },
    {
      "midi": 59,
      "hit": false,
      "t": 161436.15468749992,
      "d": 2031.233072916657,
      "v": 101
    },
    {
      "midi": 64,
      "hit": false,
      "t": 161444.6773437499,
      "d": 1980.0971354166686,
      "v": 86
    },
    {
      "midi": 56,
      "hit": false,
      "t": 162546.94088541658,
      "d": 840.9020833333198,
      "v": 112
    },
    {
      "midi": 56,
      "hit": false,
      "t": 163623.63645833323,
      "d": 2011.3468750000466,
      "v": 127
    },
    {
      "midi": 60,
      "hit": false,
      "t": 163634.9999999999,
      "d": 1156.2403645833547,
      "v": 112
    },
    {
      "midi": 64,
      "hit": false,
      "t": 163634.9999999999,
      "d": 2005.665104166692,
      "v": 95
    },
    {
      "midi": 59,
      "hit": false,
      "t": 164737.2635416666,
      "d": 877.8335937500233,
      "v": 113
    },
    {
      "midi": 60,
      "hit": false,
      "t": 165791.23203124994,
      "d": 1963.051822916692,
      "v": 112
    },
    {
      "midi": 64,
      "hit": false,
      "t": 165802.59557291662,
      "d": 1963.051822916692,
      "v": 111
    },
    {
      "midi": 52,
      "hit": false,
      "t": 166882.13203124996,
      "d": 1701.6903645833663,
      "v": 112
    },
    {
      "midi": 64,
      "hit": false,
      "t": 167995.7591145833,
      "d": 2159.072916666657,
      "v": 107
    },
    {
      "midi": 52,
      "hit": false,
      "t": 169075.29557291666,
      "d": 1076.6955729166511,
      "v": 113
    },
    {
      "midi": 51,
      "hit": false,
      "t": 170149.15026041665,
      "d": 1633.509114583343,
      "v": 112
    },
    {
      "midi": 60,
      "hit": false,
      "t": 170151.9911458333,
      "d": 17.04531250000582,
      "v": 110
    },
    {
      "midi": 55,
      "hit": false,
      "t": 170157.67291666663,
      "d": 880.6744791666861,
      "v": 113
    },
    {
      "midi": 55,
      "hit": false,
      "t": 171271.3,
      "d": 738.630208333343,
      "v": 113
    },
    {
      "midi": 55,
      "hit": false,
      "t": 172080.95234375,
      "d": 82.38567708333721,
      "v": 30
    },
    {
      "midi": 55,
      "hit": false,
      "t": 172347.99557291667,
      "d": 2045.4375,
      "v": 112
    },
    {
      "midi": 63,
      "hit": false,
      "t": 172347.99557291667,
      "d": 2045.4375,
      "v": 126
    },
    {
      "midi": 60,
      "hit": false,
      "t": 172350.83645833333,
      "d": 2045.4375,
      "v": 111
    },
    {
      "midi": 51,
      "hit": false,
      "t": 173430.37291666667,
      "d": 980.10546875,
      "v": 112
    },
    {
      "midi": 55,
      "hit": false,
      "t": 174532.63645833335,
      "d": 1971.5744791666802,
      "v": 106
    },
    {
      "midi": 59,
      "hit": false,
      "t": 174532.63645833335,
      "d": 1988.619791666686,
      "v": 107
    },
    {
      "midi": 62,
      "hit": false,
      "t": 174532.63645833335,
      "d": 2008.5059895833547,
      "v": 97
    },
    {
      "midi": 50,
      "hit": false,
      "t": 175634.90000000002,
      "d": 1173.2856770833605,
      "v": 109
    },
    {
      "midi": 55,
      "hit": false,
      "t": 176722.95911458338,
      "d": 2079.5281250000116,
      "v": 110
    },
    {
      "midi": 59,
      "hit": false,
      "t": 176722.95911458338,
      "d": 2085.209895833337,
      "v": 108
    },
    {
      "midi": 62,
      "hit": false,
      "t": 176722.95911458338,
      "d": 2090.891666666663,
      "v": 97
    },
    {
      "midi": 50,
      "hit": false,
      "t": 177822.3817708334,
      "d": 977.2645833333372,
      "v": 111
    },
    {
      "midi": 61,
      "hit": false,
      "t": 178893.39557291672,
      "d": 2019.8695312500058,
      "v": 96
    },
    {
      "midi": 49,
      "hit": false,
      "t": 178901.9182291667,
      "d": 1107.9453125,
      "v": 112
    },
    {
      "midi": 64,
      "hit": false,
      "t": 178904.75911458337,
      "d": 1994.3015625000116,
      "v": 95
    },
    {
      "midi": 55,
      "hit": false,
      "t": 178904.75911458337,
      "d": 2059.641927083343,
      "v": 95
    },
    {
      "midi": 52,
      "hit": false,
      "t": 179998.50000000003,
      "d": 1045.4458333333605,
      "v": 112
    },
    {
      "midi": 61,
      "hit": false,
      "t": 181078.0364583334,
      "d": 2073.846354166628,
      "v": 104
    },
    {
      "midi": 49,
      "hit": false,
      "t": 181080.87734375006,
      "d": 1082.3773437499767,
      "v": 105
    },
    {
      "midi": 55,
      "hit": false,
      "t": 181089.40000000005,
      "d": 2056.801041666651,
      "v": 112
    },
    {
      "midi": 64,
      "hit": false,
      "t": 181089.40000000005,
      "d": 2056.801041666651,
      "v": 97
    },
    {
      "midi": 52,
      "hit": false,
      "t": 182171.77734375003,
      "d": 1019.8778645833372,
      "v": 113
    },
    {
      "midi": 55,
      "hit": false,
      "t": 183274.0408854167,
      "d": 1065.33203125,
      "v": 112
    },
    {
      "midi": 62,
      "hit": false,
      "t": 183274.0408854167,
      "d": 2002.82421875,
      "v": 78
    },
    {
      "midi": 57,
      "hit": false,
      "t": 183274.0408854167,
      "d": 2036.9148437500116,
      "v": 87
    },
    {
      "midi": 54,
      "hit": false,
      "t": 184353.57734375005,
      "d": 1071.0138020833256,
      "v": 112
    },
    {
      "midi": 57,
      "hit": false,
      "t": 185453.00000000003,
      "d": 2022.7104166666686,
      "v": 113
    },
    {
      "midi": 62,
      "hit": false,
      "t": 185453.00000000003,
      "d": 2022.7104166666686,
      "v": 71
    },
    {
      "midi": 54,
      "hit": false,
      "t": 186555.2635416667,
      "d": 948.8557291666511,
      "v": 112
    },
    {
      "midi": 67,
      "hit": false,
      "t": 187657.52708333335,
      "d": 1272.7166666666744,
      "v": 124
    },
    {
      "midi": 64,
      "hit": false,
      "t": 187657.52708333335,
      "d": 1457.3742187500175,
      "v": 113
    },
    {
      "midi": 72,
      "hit": false,
      "t": 187657.52708333335,
      "d": 1536.919010416692,
      "v": 113
    },
    {
      "midi": 55,
      "hit": false,
      "t": 188742.74531250002,
      "d": 1079.536458333343,
      "v": 104
    },
    {
      "midi": 60,
      "hit": false,
      "t": 188742.74531250002,
      "d": 1096.5817708333489,
      "v": 112
    },
    {
      "midi": 52,
      "hit": false,
      "t": 188748.42708333334,
      "d": 1071.0138020833547,
      "v": 91
    },
    {
      "midi": 66,
      "hit": false,
      "t": 189813.75911458337,
      "d": 1193.171875,
      "v": 124
    },
    {
      "midi": 69,
      "hit": false,
      "t": 189816.60000000003,
      "d": 1193.171875,
      "v": 119
    },
    {
      "midi": 54,
      "hit": false,
      "t": 190918.8635416667,
      "d": 1011.3552083333198,
      "v": 103
    },
    {
      "midi": 60,
      "hit": false,
      "t": 190921.70442708337,
      "d": 982.9463541666628,
      "v": 97
    },
    {
      "midi": 57,
      "hit": false,
      "t": 190921.70442708337,
      "d": 985.7872395833256,
      "v": 92
    },
    {
      "midi": 66,
      "hit": false,
      "t": 191987.03645833337,
      "d": 1139.1950520833198,
      "v": 118
    },
    {
      "midi": 71,
      "hit": false,
      "t": 191989.87734375003,
      "d": 1170.4447916666686,
      "v": 101
    },
    {
      "midi": 62,
      "hit": false,
      "t": 191989.87734375003,
      "d": 1178.967447916657,
      "v": 100
    },
    {
      "midi": 54,
      "hit": false,
      "t": 193060.89114583336,
      "d": 1113.6270833333547,
      "v": 109
    },
    {
      "midi": 59,
      "hit": false,
      "t": 193072.25468750004,
      "d": 1090.8999999999942,
      "v": 90
    },
    {
      "midi": 50,
      "hit": false,
      "t": 193077.93645833337,
      "d": 1051.127604166657,
      "v": 80
    },
    {
      "midi": 68,
      "hit": false,
      "t": 194174.51822916672,
      "d": 1153.3994791666628,
      "v": 117
    },
    {
      "midi": 71,
      "hit": false,
      "t": 194177.35911458338,
      "d": 1161.9221354166802,
      "v": 101
    },
    {
      "midi": 62,
      "hit": false,
      "t": 194180.20000000004,
      "d": 1147.7177083333372,
      "v": 108
    },
    {
      "midi": 56,
      "hit": false,
      "t": 195268.25911458337,
      "d": 946.0148437500175,
      "v": 122
    },
    {
      "midi": 59,
      "hit": false,
      "t": 195271.10000000003,
      "d": 943.1739583333547,
      "v": 97
    },
    {
      "midi": 52,
      "hit": false,
      "t": 195271.10000000003,
      "d": 965.9010416666861,
      "v": 92
    },
    {
      "midi": 69,
      "hit": false,
      "t": 196370.52265625005,
      "d": 1244.3078124999884,
      "v": 107
    },
    {
      "midi": 64,
      "hit": false,
      "t": 196370.52265625005,
      "d": 1252.8304687499767,
      "v": 99
    },
    {
      "midi": 72,
      "hit": false,
      "t": 196370.52265625005,
      "d": 1633.509114583314,
      "v": 106
    },
    {
      "midi": 60,
      "hit": false,
      "t": 197435.85468750005,
      "d": 1096.5817708332906,
      "v": 79
    },
    {
      "midi": 57,
      "hit": false,
      "t": 197438.6955729167,
      "d": 1085.2182291666395,
      "v": 84
    },
    {
      "midi": 52,
      "hit": false,
      "t": 197438.6955729167,
      "d": 1099.4226562499534,
      "v": 84
    },
    {
      "midi": 66,
      "hit": false,
      "t": 198523.91380208335,
      "d": 1894.8705729166395,
      "v": 111
    },
    {
      "midi": 69,
      "hit": false,
      "t": 198529.59557291667,
      "d": 1889.188802083314,
      "v": 109
    },
    {
      "midi": 72,
      "hit": false,
      "t": 198532.43645833334,
      "d": 1877.8252604166628,
      "v": 100
    },
    {
      "midi": 54,
      "hit": false,
      "t": 199611.97291666665,
      "d": 985.7872395833256,
      "v": 96
    },
    {
      "midi": 57,
      "hit": false,
      "t": 199623.33645833333,
      "d": 920.4468749999942,
      "v": 103
    },
    {
      "midi": 60,
      "hit": false,
      "t": 199623.33645833333,
      "d": 926.1286458333198,
      "v": 97
    },
    {
      "midi": 67,
      "hit": false,
      "t": 200725.59999999998,
      "d": 812.4932291666628,
      "v": 100
    },
    {
      "midi": 62,
      "hit": false,
      "t": 200725.59999999998,
      "d": 880.674479166657,
      "v": 82
    },
    {
      "midi": 72,
      "hit": false,
      "t": 200725.59999999998,
      "d": 977.2645833333372,
      "v": 99
    },
    {
      "midi": 55,
      "hit": false,
      "t": 200725.59999999998,
      "d": 1792.5986979166337,
      "v": 74
    },
    {
      "midi": 43,
      "hit": false,
      "t": 200731.2817708333,
      "d": 1664.7588541666628,
      "v": 99
    },
    {
      "midi": 67,
      "hit": false,
      "t": 201810.81822916665,
      "d": 721.5848958333081,
      "v": 101
    },
    {
      "midi": 71,
      "hit": false,
      "t": 201816.49999999997,
      "d": 670.4489583333198,
      "v": 87
    },
    {
      "midi": 62,
      "hit": false,
      "t": 201816.49999999997,
      "d": 866.4700520833139,
      "v": 90
    },
    {
      "midi": 67,
      "hit": false,
      "t": 202901.7182291666,
      "d": 499.99583333331975,
      "v": 98
    },
    {
      "midi": 53,
      "hit": false,
      "t": 202901.7182291666,
      "d": 803.9705729166453,
      "v": 88
    },
    {
      "midi": 62,
      "hit": false,
      "t": 202904.55911458327,
      "d": 485.7914062500058,
      "v": 83
    },
    {
      "midi": 71,
      "hit": false,
      "t": 202904.55911458327,
      "d": 494.3140624999942,
      "v": 84
    },
    {
      "midi": 55,
      "hit": false,
      "t": 202904.55911458327,
      "d": 809.6523437499709,
      "v": 77
    },
    {
      "midi": 67,
      "hit": false,
      "t": 203614.78046874993,
      "d": 1303.9664062499942,
      "v": 101
    },
    {
      "midi": 62,
      "hit": false,
      "t": 203614.78046874993,
      "d": 1312.4890624999825,
      "v": 84
    },
    {
      "midi": 71,
      "hit": false,
      "t": 203620.46223958326,
      "d": 1298.2846354166686,
      "v": 85
    },
    {
      "midi": 55,
      "hit": false,
      "t": 203984.0955729166,
      "d": 957.3783854166686,
      "v": 100
    },
    {
      "midi": 53,
      "hit": false,
      "t": 203984.0955729166,
      "d": 968.7419270833489,
      "v": 98
    },
    {
      "midi": 59,
      "hit": false,
      "t": 203986.93645833325,
      "d": 943.1739583333256,
      "v": 91
    },
    {
      "midi": 67,
      "hit": false,
      "t": 205083.5182291666,
      "d": 926.1286458333489,
      "v": 110
    },
    {
      "midi": 72,
      "hit": false,
      "t": 205086.35911458326,
      "d": 911.9242187500058,
      "v": 105
    },
    {
      "midi": 64,
      "hit": false,
      "t": 205086.35911458326,
      "d": 923.2877604166861,
      "v": 93
    },
    {
      "midi": 48,
      "hit": false,
      "t": 205092.0408854166,
      "d": 1113.6270833333838,
      "v": 64
    },
    {
      "midi": 52,
      "hit": false,
      "t": 206180.09999999995,
      "d": 971.5828125000407,
      "v": 89
    },
    {
      "midi": 67,
      "hit": false,
      "t": 206191.46354166663,
      "d": 727.2666666666628,
      "v": 114
    },
    {
      "midi": 55,
      "hit": false,
      "t": 206191.46354166663,
      "d": 909.083333333343,
      "v": 81
    },
    {
      "midi": 60,
      "hit": false,
      "t": 206191.46354166663,
      "d": 1002.8325520833605,
      "v": 64
    },
    {
      "midi": 64,
      "hit": false,
      "t": 206194.3044270833,
      "d": 764.1981770833372,
      "v": 99
    },
    {
      "midi": 72,
      "hit": false,
      "t": 206194.3044270833,
      "d": 920.4468750000233,
      "v": 104
    },
    {
      "midi": 66,
      "hit": false,
      "t": 207262.47734374998,
      "d": 897.7197916666628,
      "v": 116
    },
    {
      "midi": 69,
      "hit": false,
      "t": 207268.1591145833,
      "d": 855.1065104166628,
      "v": 114
    },
    {
      "midi": 62,
      "hit": false,
      "t": 207268.1591145833,
      "d": 894.87890625,
      "v": 105
    },
    {
      "midi": 50,
      "hit": false,
      "t": 207268.1591145833,
      "d": 1105.104427083308,
      "v": 89
    },
    {
      "midi": 54,
      "hit": false,
      "t": 208356.21822916664,
      "d": 806.8114583333081,
      "v": 100
    },
    {
      "midi": 66,
      "hit": false,
      "t": 208361.89999999997,
      "d": 843.7429687499825,
      "v": 109
    },
    {
      "midi": 60,
      "hit": false,
      "t": 208364.74088541663,
      "d": 752.834635416657,
      "v": 78
    },
    {
      "midi": 57,
      "hit": false,
      "t": 208367.5817708333,
      "d": 721.5848958333372,
      "v": 89
    },
    {
      "midi": 62,
      "hit": false,
      "t": 208367.5817708333,
      "d": 843.7429687499825,
      "v": 99
    },
    {
      "midi": 69,
      "hit": false,
      "t": 208367.5817708333,
      "d": 965.901041666657,
      "v": 112
    },
    {
      "midi": 71,
      "hit": false,
      "t": 209441.43645833328,
      "d": 846.5838541666744,
      "v": 105
    },
    {
      "midi": 47,
      "hit": false,
      "t": 209444.27734374994,
      "d": 1076.6955729166802,
      "v": 88
    },
    {
      "midi": 66,
      "hit": false,
      "t": 209447.1182291666,
      "d": 789.7661458333314,
      "v": 111
    },
    {
      "midi": 62,
      "hit": false,
      "t": 209447.1182291666,
      "d": 823.856770833343,
      "v": 98
    },
    {
      "midi": 50,
      "hit": false,
      "t": 210520.97291666662,
      "d": 812.4932291666628,
      "v": 91
    },
    {
      "midi": 54,
      "hit": false,
      "t": 210526.65468749995,
      "d": 823.856770833343,
      "v": 88
    },
    {
      "midi": 66,
      "hit": false,
      "t": 210529.4955729166,
      "d": 866.470052083343,
      "v": 116
    },
    {
      "midi": 62,
      "hit": false,
      "t": 210532.33645833327,
      "d": 874.9927083333605,
      "v": 101
    },
    {
      "midi": 71,
      "hit": false,
      "t": 210532.33645833327,
      "d": 926.1286458333489,
      "v": 103
    },
    {
      "midi": 71,
      "hit": false,
      "t": 211611.87291666662,
      "d": 946.0148437499884,
      "v": 100
    },
    {
      "midi": 52,
      "hit": false,
      "t": 211614.71380208328,
      "d": 1133.513281249965,
      "v": 96
    },
    {
      "midi": 62,
      "hit": false,
      "t": 211617.55468749994,
      "d": 954.5375000000058,
      "v": 93
    },
    {
      "midi": 68,
      "hit": false,
      "t": 211617.55468749994,
      "d": 960.2192708333314,
      "v": 122
    },
    {
      "midi": 68,
      "hit": false,
      "t": 212736.8635416666,
      "d": 883.5153645833198,
      "v": 117
    },
    {
      "midi": 56,
      "hit": false,
      "t": 212736.8635416666,
      "d": 897.7197916666337,
      "v": 111
    },
    {
      "midi": 62,
      "hit": false,
      "t": 212739.70442708326,
      "d": 883.5153645833198,
      "v": 98
    },
    {
      "midi": 71,
      "hit": false,
      "t": 212742.54531249992,
      "d": 880.674479166657,
      "v": 105
    },
    {
      "midi": 59,
      "hit": false,
      "t": 212745.38619791658,
      "d": 886.3562499999825,
      "v": 90
    },
    {
      "midi": 45,
      "hit": false,
      "t": 213816.3999999999,
      "d": 1096.5817708333198,
      "v": 108
    },
    {
      "midi": 64,
      "hit": false,
      "t": 213819.24088541657,
      "d": 892.0380208333372,
      "v": 99
    },
    {
      "midi": 72,
      "hit": false,
      "t": 213819.24088541657,
      "d": 894.87890625,
      "v": 108
    },
    {
      "midi": 69,
      "hit": false,
      "t": 213819.24088541657,
      "d": 906.2424479166802,
      "v": 109
    },
    {
      "midi": 57,
      "hit": false,
      "t": 214895.93645833325,
      "d": 903.4015624999884,
      "v": 84
    },
    {
      "midi": 52,
      "hit": false,
      "t": 214901.61822916658,
      "d": 1102.2635416666453,
      "v": 87
    },
    {
      "midi": 64,
      "hit": false,
      "t": 214904.45911458324,
      "d": 934.6513020833372,
      "v": 91
    },
    {
      "midi": 69,
      "hit": false,
      "t": 214904.45911458324,
      "d": 982.9463541666628,
      "v": 108
    },
    {
      "midi": 72,
      "hit": false,
      "t": 214907.2999999999,
      "d": 917.6059895833314,
      "v": 100
    },
    {
      "midi": 43,
      "hit": false,
      "t": 215983.99557291658,
      "d": 1059.6502604166453,
      "v": 109
    },
    {
      "midi": 67,
      "hit": false,
      "t": 215989.6773437499,
      "d": 954.5374999999767,
      "v": 102
    },
    {
      "midi": 72,
      "hit": false,
      "t": 215995.35911458323,
      "d": 951.6966145833139,
      "v": 93
    },
    {
      "midi": 64,
      "hit": false,
      "t": 215998.1999999999,
      "d": 906.2424479166511,
      "v": 81
    },
    {
      "midi": 72,
      "hit": false,
      "t": 217072.05468749988,
      "d": 960.2192708333314,
      "v": 108
    },
    {
      "midi": 57,
      "hit": false,
      "t": 217074.89557291655,
      "d": 957.3783854166686,
      "v": 84
    },
    {
      "midi": 52,
      "hit": false,
      "t": 217074.89557291655,
      "d": 965.901041666657,
      "v": 95
    },
    {
      "midi": 64,
      "hit": false,
      "t": 217077.7364583332,
      "d": 951.696614583343,
      "v": 102
    },
    {
      "midi": 67,
      "hit": false,
      "t": 217077.7364583332,
      "d": 951.696614583343,
      "v": 115
    },
    {
      "midi": 50,
      "hit": false,
      "t": 218171.47734374987,
      "d": 1019.8778645833081,
      "v": 93
    },
    {
      "midi": 66,
      "hit": false,
      "t": 218174.31822916653,
      "d": 744.3119791666395,
      "v": 102
    },
    {
      "midi": 69,
      "hit": false,
      "t": 218179.99999999985,
      "d": 659.0854166666686,
      "v": 109
    },
    {
      "midi": 74,
      "hit": false,
      "t": 218179.99999999985,
      "d": 732.9484374999884,
      "v": 106
    },
    {
      "midi": 60,
      "hit": false,
      "t": 219287.94531249985,
      "d": 630.6765624999534,
      "v": 85
    },
    {
      "midi": 57,
      "hit": false,
      "t": 219290.78619791652,
      "d": 619.3130208333023,
      "v": 96
    },
    {
      "midi": 66,
      "hit": false,
      "t": 219296.46796874984,
      "d": 346.5880208333256,
      "v": 100
    },
    {
      "midi": 74,
      "hit": false,
      "t": 219299.3088541665,
      "d": 562.4953124999884,
      "v": 101
    },
    {
      "midi": 69,
      "hit": false,
      "t": 219304.99062499983,
      "d": 389.2013020833256,
      "v": 110
    },
    {
      "midi": 66,
      "hit": false,
      "t": 219975.43958333315,
      "d": 749.9937499999651,
      "v": 107
    },
    {
      "midi": 69,
      "hit": false,
      "t": 219983.96223958314,
      "d": 715.9031249999825,
      "v": 113
    },
    {
      "midi": 72,
      "hit": false,
      "t": 219983.96223958314,
      "d": 832.3794270833023,
      "v": 106
    },
    {
      "midi": 57,
      "hit": false,
      "t": 220350.43645833313,
      "d": 755.6755208332906,
      "v": 95
    },
    {
      "midi": 74,
      "hit": false,
      "t": 221054.97604166644,
      "d": 1352.2614583332906,
      "v": 106
    },
    {
      "midi": 66,
      "hit": false,
      "t": 221054.97604166644,
      "d": 1372.1476562499593,
      "v": 122
    },
    {
      "midi": 69,
      "hit": false,
      "t": 221057.8169270831,
      "d": 1360.784114583308,
      "v": 119
    },
    {
      "midi": 57,
      "hit": false,
      "t": 221432.81380208308,
      "d": 1017.0369791666453,
      "v": 97
    },
    {
      "midi": 60,
      "hit": false,
      "t": 221438.4955729164,
      "d": 1008.514322916657,
      "v": 88
    },
    {
      "midi": 55,
      "hit": false,
      "t": 222529.3955729164,
      "d": 1008.514322916657,
      "v": 106
    },
    {
      "midi": 74,
      "hit": false,
      "t": 222540.75911458308,
      "d": 892.0380208333372,
      "v": 99
    },
    {
      "midi": 71,
      "hit": false,
      "t": 222540.75911458308,
      "d": 946.0148437499884,
      "v": 103
    },
    {
      "midi": 67,
      "hit": false,
      "t": 222543.59999999974,
      "d": 914.7651041666686,
      "v": 98
    },
    {
      "midi": 55,
      "hit": false,
      "t": 223640.18177083306,
      "d": 906.2424479166802,
      "v": 90
    },
    {
      "midi": 67,
      "hit": false,
      "t": 223645.8635416664,
      "d": 866.470052083343,
      "v": 92
    },
    {
      "midi": 71,
      "hit": false,
      "t": 223645.8635416664,
      "d": 877.8335937500233,
      "v": 93
    },
    {
      "midi": 59,
      "hit": false,
      "t": 223645.8635416664,
      "d": 897.7197916666919,
      "v": 93
    },
    {
      "midi": 74,
      "hit": false,
      "t": 223645.8635416664,
      "d": 928.9695312500116,
      "v": 93
    },
    {
      "midi": 71,
      "hit": false,
      "t": 224714.03645833308,
      "d": 954.5374999999767,
      "v": 105
    },
    {
      "midi": 55,
      "hit": false,
      "t": 224714.03645833308,
      "d": 982.9463541666337,
      "v": 92
    },
    {
      "midi": 67,
      "hit": false,
      "t": 224719.7182291664,
      "d": 874.9927083333314,
      "v": 100
    },
    {
      "midi": 71,
      "hit": false,
      "t": 225807.7773437497,
      "d": 866.4700520833139,
      "v": 107
    },
    {
      "midi": 55,
      "hit": false,
      "t": 225807.7773437497,
      "d": 906.2424479166511,
      "v": 96
    },
    {
      "midi": 76,
      "hit": false,
      "t": 225810.61822916637,
      "d": 838.061197916657,
      "v": 104
    },
    {
      "midi": 67,
      "hit": false,
      "t": 225810.61822916637,
      "d": 840.9020833333198,
      "v": 104
    },
    {
      "midi": 59,
      "hit": false,
      "t": 225810.61822916637,
      "d": 869.3109374999767,
      "v": 103
    },
    {
      "midi": 47,
      "hit": false,
      "t": 226870.26848958302,
      "d": 1085.2182291666686,
      "v": 93
    },
    {
      "midi": 66,
      "hit": false,
      "t": 226875.95026041634,
      "d": 1974.415364583343,
      "v": 123
    },
    {
      "midi": 71,
      "hit": false,
      "t": 226878.791145833,
      "d": 1937.4838541666686,
      "v": 104
    },
    {
      "midi": 74,
      "hit": false,
      "t": 226878.791145833,
      "d": 1982.9380208333605,
      "v": 92
    },
    {
      "midi": 54,
      "hit": false,
      "t": 227961.168489583,
      "d": 1113.6270833333547,
      "v": 105
    },
    {
      "midi": 59,
      "hit": false,
      "t": 227966.85026041634,
      "d": 914.7651041666977,
      "v": 92
    },
    {
      "midi": 57,
      "hit": false,
      "t": 227969.691145833,
      "d": 914.7651041666977,
      "v": 87
    },
    {
      "midi": 47,
      "hit": false,
      "t": 229066.27291666638,
      "d": 1124.9906249999767,
      "v": 93
    },
    {
      "midi": 66,
      "hit": false,
      "t": 229077.63645833303,
      "d": 306.81562499998836,
      "v": 116
    },
    {
      "midi": 71,
      "hit": false,
      "t": 229083.31822916635,
      "d": 218.74817708332557,
      "v": 103
    },
    {
      "midi": 74,
      "hit": false,
      "t": 229086.15911458302,
      "d": 215.9072916666628,
      "v": 92
    },
    {
      "midi": 66,
      "hit": false,
      "t": 229770.81249999968,
      "d": 1340.8979166666395,
      "v": 116
    },
    {
      "midi": 71,
      "hit": false,
      "t": 229779.33515624967,
      "d": 1321.01171875,
      "v": 107
    },
    {
      "midi": 74,
      "hit": false,
      "t": 229779.33515624967,
      "d": 1329.5343749999884,
      "v": 105
    },
    {
      "midi": 54,
      "hit": false,
      "t": 230160.013802083,
      "d": 954.5374999999767,
      "v": 106
    },
    {
      "midi": 57,
      "hit": false,
      "t": 230171.3773437497,
      "d": 923.287760416657,
      "v": 92
    },
    {
      "midi": 59,
      "hit": false,
      "t": 230171.3773437497,
      "d": 928.9695312499825,
      "v": 93
    },
    {
      "midi": 64,
      "hit": false,
      "t": 231270.79999999964,
      "d": 357.9515625000058,
      "v": 100
    },
    {
      "midi": 68,
      "hit": false,
      "t": 231270.79999999964,
      "d": 480.10963541668025,
      "v": 112
    },
    {
      "midi": 52,
      "hit": false,
      "t": 231270.79999999964,
      "d": 1107.945312500029,
      "v": 79
    },
    {
      "midi": 71,
      "hit": false,
      "t": 231276.48177083296,
      "d": 460.22343750001164,
      "v": 109
    },
    {
      "midi": 64,
      "hit": false,
      "t": 231998.06666666633,
      "d": 1076.6955729166802,
      "v": 93
    },
    {
      "midi": 68,
      "hit": false,
      "t": 231998.06666666633,
      "d": 1099.4226562500116,
      "v": 92
    },
    {
      "midi": 71,
      "hit": false,
      "t": 232000.907552083,
      "d": 1346.5796875000233,
      "v": 99
    },
    {
      "midi": 56,
      "hit": false,
      "t": 232358.859114583,
      "d": 1008.5143229166861,
      "v": 126
    },
    {
      "midi": 59,
      "hit": false,
      "t": 232361.69999999966,
      "d": 1014.1960937500116,
      "v": 99
    },
    {
      "midi": 68,
      "hit": false,
      "t": 233418.50937499967,
      "d": 1045.4458333333314,
      "v": 116
    },
    {
      "midi": 72,
      "hit": false,
      "t": 233418.50937499967,
      "d": 1062.4911458333372,
      "v": 108
    },
    {
      "midi": 64,
      "hit": false,
      "t": 233424.191145833,
      "d": 977.2645833333372,
      "v": 101
    },
    {
      "midi": 52,
      "hit": false,
      "t": 233427.03203124966,
      "d": 1176.1265624999942,
      "v": 77
    },
    {
      "midi": 56,
      "hit": false,
      "t": 234543.49999999968,
      "d": 892.0380208333081,
      "v": 112
    },
    {
      "midi": 60,
      "hit": false,
      "t": 234549.181770833,
      "d": 812.4932291666628,
      "v": 90
    },
    {
      "midi": 68,
      "hit": false,
      "t": 234552.02265624967,
      "d": 809.65234375,
      "v": 113
    },
    {
      "midi": 64,
      "hit": false,
      "t": 234554.86354166633,
      "d": 764.1981770833372,
      "v": 93
    },
    {
      "midi": 72,
      "hit": false,
      "t": 234554.86354166633,
      "d": 786.9252604166686,
      "v": 104
    },
    {
      "midi": 64,
      "hit": false,
      "t": 235631.55911458298,
      "d": 1017.0369791666744,
      "v": 92
    },
    {
      "midi": 60,
      "hit": false,
      "t": 235634.39999999964,
      "d": 965.901041666657,
      "v": 87
    },
    {
      "midi": 69,
      "hit": false,
      "t": 235634.39999999964,
      "d": 980.10546875,
      "v": 90
    },
    {
      "midi": 48,
      "hit": false,
      "t": 235637.2408854163,
      "d": 1116.4679687499884,
      "v": 93
    },
    {
      "midi": 52,
      "hit": false,
      "t": 236739.50442708298,
      "d": 1036.923177083343,
      "v": 83
    },
    {
      "midi": 57,
      "hit": false,
      "t": 236745.1861979163,
      "d": 1017.0369791666744,
      "v": 72
    },
    {
      "midi": 60,
      "hit": false,
      "t": 236748.02708333297,
      "d": 767.0390625,
      "v": 98
    },
    {
      "midi": 64,
      "hit": false,
      "t": 236748.02708333297,
      "d": 866.470052083343,
      "v": 91
    },
    {
      "midi": 69,
      "hit": false,
      "t": 236750.86796874963,
      "d": 843.7429687500116,
      "v": 100
    },
    {
      "midi": 48,
      "hit": false,
      "t": 237804.83645833298,
      "d": 1130.672395833244,
      "v": 87
    },
    {
      "midi": 64,
      "hit": false,
      "t": 237810.5182291663,
      "d": 457.38255208331975,
      "v": 105
    },
    {
      "midi": 72,
      "hit": false,
      "t": 237813.35911458297,
      "d": 329.54270833331975,
      "v": 92
    },
    {
      "midi": 69,
      "hit": false,
      "t": 237813.35911458297,
      "d": 457.38255208331975,
      "v": 102
    },
    {
      "midi": 64,
      "hit": false,
      "t": 238512.21692708295,
      "d": 298.2929687499709,
      "v": 85
    },
    {
      "midi": 69,
      "hit": false,
      "t": 238515.0578124996,
      "d": 269.88411458331393,
      "v": 91
    },
    {
      "midi": 72,
      "hit": false,
      "t": 238520.73958333294,
      "d": 235.7934895833314,
      "v": 84
    },
    {
      "midi": 72,
      "hit": false,
      "t": 238895.73645833292,
      "d": 579.5406249999651,
      "v": 113
    },
    {
      "midi": 64,
      "hit": false,
      "t": 238895.73645833292,
      "d": 696.0169270833139,
      "v": 108
    },
    {
      "midi": 69,
      "hit": false,
      "t": 238898.57734374958,
      "d": 661.9263020833023,
      "v": 108
    },
    {
      "midi": 52,
      "hit": false,
      "t": 238904.2591145829,
      "d": 721.5848958333372,
      "v": 87
    },
    {
      "midi": 57,
      "hit": false,
      "t": 238907.09999999957,
      "d": 667.608072916657,
      "v": 87
    },
    {
      "midi": 51,
      "hit": false,
      "t": 239975.27291666623,
      "d": 877.8335937499942,
      "v": 92
    },
    {
      "midi": 63,
      "hit": false,
      "t": 239978.1138020829,
      "d": 849.4247395833372,
      "v": 101
    },
    {
      "midi": 72,
      "hit": false,
      "t": 239986.63645833288,
      "d": 767.0390625,
      "v": 93
    },
    {
      "midi": 69,
      "hit": false,
      "t": 239986.63645833288,
      "d": 784.0843750000058,
      "v": 96
    },
    {
      "midi": 55,
      "hit": false,
      "t": 239986.63645833288,
      "d": 860.7882812500175,
      "v": 78
    },
    {
      "midi": 51,
      "hit": false,
      "t": 241066.17291666623,
      "d": 522.7229166666511,
      "v": 85
    },
    {
      "midi": 63,
      "hit": false,
      "t": 241071.85468749955,
      "d": 1025.5596354166628,
      "v": 102
    },
    {
      "midi": 69,
      "hit": false,
      "t": 241077.53645833288,
      "d": 1022.71875,
      "v": 101
    },
    {
      "midi": 55,
      "hit": false,
      "t": 241077.53645833288,
      "d": 1034.0822916666802,
      "v": 70
    },
    {
      "midi": 72,
      "hit": false,
      "t": 241083.2182291662,
      "d": 1002.8325520833314,
      "v": 93
    },
    {
      "midi": 51,
      "hit": false,
      "t": 241827.53020833287,
      "d": 249.99791666667443,
      "v": 108
    },
    {
      "midi": 63,
      "hit": false,
      "t": 242194.0044270829,
      "d": 616.4721354166395,
      "v": 98
    },
    {
      "midi": 72,
      "hit": false,
      "t": 242202.52708333288,
      "d": 542.6091145833198,
      "v": 92
    },
    {
      "midi": 51,
      "hit": false,
      "t": 242202.52708333288,
      "d": 815.3341145832965,
      "v": 99
    },
    {
      "midi": 55,
      "hit": false,
      "t": 242205.36796874955,
      "d": 784.0843749999767,
      "v": 83
    },
    {
      "midi": 69,
      "hit": false,
      "t": 242211.04973958287,
      "d": 525.563802083343,
      "v": 93
    },
    {
      "midi": 63,
      "hit": false,
      "t": 243245.13203124952,
      "d": 835.2203124999942,
      "v": 102
    },
    {
      "midi": 72,
      "hit": false,
      "t": 243250.81380208285,
      "d": 798.2888020833198,
      "v": 100
    },
    {
      "midi": 55,
      "hit": false,
      "t": 243250.81380208285,
      "d": 826.6976562500058,
      "v": 84
    },
    {
      "midi": 51,
      "hit": false,
      "t": 243250.81380208285,
      "d": 874.9927083333314,
      "v": 99
    },
    {
      "midi": 69,
      "hit": false,
      "t": 243256.49557291617,
      "d": 803.9705729166744,
      "v": 105
    },
    {
      "midi": 59,
      "hit": false,
      "t": 244347.39557291617,
      "d": 713.0622395833198,
      "v": 87
    },
    {
      "midi": 55,
      "hit": false,
      "t": 244350.23645833283,
      "d": 698.8578124999767,
      "v": 84
    },
    {
      "midi": 67,
      "hit": false,
      "t": 244353.0773437495,
      "d": 735.7893229166511,
      "v": 107
    },
    {
      "midi": 62,
      "hit": false,
      "t": 244353.0773437495,
      "d": 738.6302083333139,
      "v": 90
    },
    {
      "midi": 50,
      "hit": false,
      "t": 244355.91822916616,
      "d": 744.3119791666395,
      "v": 85
    },
    {
      "midi": 71,
      "hit": false,
      "t": 244358.75911458282,
      "d": 684.6533854166628,
      "v": 86
    },
    {
      "midi": 59,
      "hit": false,
      "t": 245432.6138020828,
      "d": 803.9705729166453,
      "v": 82
    },
    {
      "midi": 62,
      "hit": false,
      "t": 245441.1364583328,
      "d": 499.99583333331975,
      "v": 90
    },
    {
      "midi": 67,
      "hit": false,
      "t": 245441.1364583328,
      "d": 806.8114583333372,
      "v": 97
    },
    {
      "midi": 55,
      "hit": false,
      "t": 245441.1364583328,
      "d": 815.3341145833256,
      "v": 85
    },
    {
      "midi": 50,
      "hit": false,
      "t": 245443.97734374946,
      "d": 821.0158854166511,
      "v": 87
    },
    {
      "midi": 71,
      "hit": false,
      "t": 245449.65911458278,
      "d": 803.9705729166744,
      "v": 84
    },
    {
      "midi": 62,
      "hit": false,
      "t": 246174.08489583278,
      "d": 264.20234374998836,
      "v": 91
    },
    {
      "midi": 59,
      "hit": false,
      "t": 246529.1955729161,
      "d": 886.3562499999825,
      "v": 86
    },
    {
      "midi": 62,
      "hit": false,
      "t": 246532.03645833276,
      "d": 840.9020833333198,
      "v": 92
    },
    {
      "midi": 50,
      "hit": false,
      "t": 246532.03645833276,
      "d": 886.3562499999825,
      "v": 93
    },
    {
      "midi": 67,
      "hit": false,
      "t": 246534.87734374942,
      "d": 792.6070312499942,
      "v": 106
    },
    {
      "midi": 55,
      "hit": false,
      "t": 246534.87734374942,
      "d": 860.7882812499884,
      "v": 93
    },
    {
      "midi": 71,
      "hit": false,
      "t": 246540.55911458275,
      "d": 735.7893229166802,
      "v": 84
    },
    {
      "midi": 67,
      "hit": false,
      "t": 247622.93645833276,
      "d": 917.6059895833023,
      "v": 103
    },
    {
      "midi": 62,
      "hit": false,
      "t": 247622.93645833276,
      "d": 957.3783854166395,
      "v": 93
    },
    {
      "midi": 71,
      "hit": false,
      "t": 247625.77734374942,
      "d": 911.9242187499767,
      "v": 86
    },
    {
      "midi": 59,
      "hit": false,
      "t": 247628.61822916608,
      "d": 937.4921874999709,
      "v": 83
    },
    {
      "midi": 50,
      "hit": false,
      "t": 247628.61822916608,
      "d": 971.5828124999825,
      "v": 84
    },
    {
      "midi": 55,
      "hit": false,
      "t": 247634.2999999994,
      "d": 943.1739583333256,
      "v": 90
    },
    {
      "midi": 61,
      "hit": false,
      "t": 248713.83645833272,
      "d": 889.1971354166744,
      "v": 117
    },
    {
      "midi": 49,
      "hit": false,
      "t": 248713.83645833272,
      "d": 900.5606770833547,
      "v": 109
    },
    {
      "midi": 57,
      "hit": false,
      "t": 248716.67734374938,
      "d": 911.9242187500058,
      "v": 96
    },
    {
      "midi": 64,
      "hit": false,
      "t": 248725.19999999937,
      "d": 821.0158854166802,
      "v": 103
    },
    {
      "midi": 67,
      "hit": false,
      "t": 248725.19999999937,
      "d": 897.7197916666919,
      "v": 102
    },
    {
      "midi": 49,
      "hit": false,
      "t": 249804.7364583327,
      "d": 863.6291666666802,
      "v": 112
    },
    {
      "midi": 61,
      "hit": false,
      "t": 249804.7364583327,
      "d": 883.5153645833489,
      "v": 127
    },
    {
      "midi": 57,
      "hit": false,
      "t": 249804.7364583327,
      "d": 892.0380208333372,
      "v": 93
    },
    {
      "midi": 64,
      "hit": false,
      "t": 249807.57734374938,
      "d": 846.5838541666744,
      "v": 110
    },
    {
      "midi": 61,
      "hit": false,
      "t": 250875.75026041604,
      "d": 911.9242187499767,
      "v": 74
    },
    {
      "midi": 64,
      "hit": false,
      "t": 250884.27291666603,
      "d": 911.9242187499767,
      "v": 99
    },
    {
      "midi": 57,
      "hit": false,
      "t": 250884.27291666603,
      "d": 923.2877604166279,
      "v": 89
    },
    {
      "midi": 49,
      "hit": false,
      "t": 250887.1138020827,
      "d": 917.6059895833023,
      "v": 114
    },
    {
      "midi": 71,
      "hit": false,
      "t": 250892.79557291602,
      "d": 1017.0369791666453,
      "v": 104
    },
    {
      "midi": 61,
      "hit": false,
      "t": 251978.01380208266,
      "d": 1042.6049479166686,
      "v": 100
    },
    {
      "midi": 49,
      "hit": false,
      "t": 251978.01380208266,
      "d": 1076.6955729166511,
      "v": 105
    },
    {
      "midi": 57,
      "hit": false,
      "t": 251980.85468749932,
      "d": 1045.4458333333314,
      "v": 87
    },
    {
      "midi": 64,
      "hit": false,
      "t": 251983.69557291598,
      "d": 1019.8778645833372,
      "v": 95
    },
    {
      "midi": 69,
      "hit": false,
      "t": 251989.3773437493,
      "d": 1014.1960937500116,
      "v": 98
    },
    {
      "midi": 67,
      "hit": false,
      "t": 253080.2773437493,
      "d": 599.4268229166337,
      "v": 112
    },
    {
      "midi": 57,
      "hit": false,
      "t": 253080.2773437493,
      "d": 730.1075520832965,
      "v": 81
    },
    {
      "midi": 50,
      "hit": false,
      "t": 253083.11822916596,
      "d": 744.3119791666395,
      "v": 98
    },
    {
      "midi": 60,
      "hit": false,
      "t": 253088.7999999993,
      "d": 457.38255208331975,
      "v": 79
    },
    {
      "midi": 66,
      "hit": false,
      "t": 253779.13515624928,
      "d": 1028.4005208333256,
      "v": 119
    },
    {
      "midi": 60,
      "hit": false,
      "t": 253784.8169270826,
      "d": 971.5828125000116,
      "v": 92
    },
    {
      "midi": 57,
      "hit": false,
      "t": 254162.65468749928,
      "d": 684.6533854166628,
      "v": 90
    },
    {
      "midi": 50,
      "hit": false,
      "t": 254165.49557291594,
      "d": 792.6070312500233,
      "v": 97
    },
    {
      "midi": 67,
      "hit": false,
      "t": 254901.28489583262,
      "d": 221.58906250001746,
      "v": 99
    },
    {
      "midi": 60,
      "hit": false,
      "t": 254904.12578124928,
      "d": 207.38463541667443,
      "v": 88
    },
    {
      "midi": 66,
      "hit": false,
      "t": 255247.87291666598,
      "d": 539.7682291666279,
      "v": 107
    },
    {
      "midi": 57,
      "hit": false,
      "t": 255247.87291666598,
      "d": 806.811458333279,
      "v": 92
    },
    {
      "midi": 50,
      "hit": false,
      "t": 255253.5546874993,
      "d": 838.0611979166279,
      "v": 104
    },
    {
      "midi": 60,
      "hit": false,
      "t": 255259.23645833263,
      "d": 519.8820312499884,
      "v": 95
    },
    {
      "midi": 69,
      "hit": false,
      "t": 255259.23645833263,
      "d": 553.9726562499709,
      "v": 101
    },
    {
      "midi": 66,
      "hit": false,
      "t": 255975.1395833326,
      "d": 923.2877604166279,
      "v": 114
    },
    {
      "midi": 60,
      "hit": false,
      "t": 255983.6622395826,
      "d": 738.6302083333139,
      "v": 107
    },
    {
      "midi": 69,
      "hit": false,
      "t": 255986.50312499926,
      "d": 860.7882812499884,
      "v": 106
    },
    {
      "midi": 57,
      "hit": false,
      "t": 256335.93203124925,
      "d": 897.7197916666628,
      "v": 98
    },
    {
      "midi": 50,
      "hit": false,
      "t": 256338.7729166659,
      "d": 963.0601562499942,
      "v": 109
    },
    {
      "midi": 72,
      "hit": false,
      "t": 257441.0364583326,
      "d": 761.3572916666744,
      "v": 106
    },
    {
      "midi": 67,
      "hit": false,
      "t": 257441.0364583326,
      "d": 823.856770833343,
      "v": 114
    },
    {
      "midi": 64,
      "hit": false,
      "t": 257441.0364583326,
      "d": 840.9020833333489,
      "v": 95
    },
    {
      "midi": 48,
      "hit": false,
      "t": 257443.87734374925,
      "d": 823.856770833343,
      "v": 93
    },
    {
      "midi": 55,
      "hit": false,
      "t": 257443.87734374925,
      "d": 849.4247395833663,
      "v": 95
    },
    {
      "midi": 67,
      "hit": false,
      "t": 258529.09557291595,
      "d": 761.3572916666744,
      "v": 110
    },
    {
      "midi": 48,
      "hit": false,
      "t": 258531.9364583326,
      "d": 747.1528645833314,
      "v": 93
    },
    {
      "midi": 55,
      "hit": false,
      "t": 258531.9364583326,
      "d": 786.9252604166686,
      "v": 88
    },
    {
      "midi": 64,
      "hit": false,
      "t": 258531.9364583326,
      "d": 886.3562500000116,
      "v": 96
    },
    {
      "midi": 72,
      "hit": false,
      "t": 258540.4591145826,
      "d": 948.8557291666802,
      "v": 99
    },
    {
      "midi": 66,
      "hit": false,
      "t": 259622.8364583326,
      "d": 931.8104166666744,
      "v": 97
    },
    {
      "midi": 57,
      "hit": false,
      "t": 259622.8364583326,
      "d": 988.6281250000175,
      "v": 92
    },
    {
      "midi": 60,
      "hit": false,
      "t": 259628.51822916593,
      "d": 994.3098958333721,
      "v": 87
    },
    {
      "midi": 69,
      "hit": false,
      "t": 259631.3591145826,
      "d": 900.5606770833256,
      "v": 107
    },
    {
      "midi": 62,
      "hit": false,
      "t": 259631.3591145826,
      "d": 911.9242187500058,
      "v": 92
    },
    {
      "midi": 50,
      "hit": false,
      "t": 259631.3591145826,
      "d": 946.0148437500175,
      "v": 78
    },
    {
      "midi": 66,
      "hit": false,
      "t": 260736.46354166596,
      "d": 724.42578125,
      "v": 108
    },
    {
      "midi": 60,
      "hit": false,
      "t": 260736.46354166596,
      "d": 749.9937499999942,
      "v": 107
    },
    {
      "midi": 62,
      "hit": false,
      "t": 260736.46354166596,
      "d": 812.4932291666628,
      "v": 102
    },
    {
      "midi": 57,
      "hit": false,
      "t": 260739.30442708262,
      "d": 755.6755208333198,
      "v": 99
    },
    {
      "midi": 50,
      "hit": false,
      "t": 260739.30442708262,
      "d": 792.6070312499942,
      "v": 99
    },
    {
      "midi": 69,
      "hit": false,
      "t": 260739.30442708262,
      "d": 985.7872395833256,
      "v": 110
    },
    {
      "midi": 66,
      "hit": false,
      "t": 261804.63645833262,
      "d": 772.7208333332965,
      "v": 118
    },
    {
      "midi": 71,
      "hit": false,
      "t": 261807.47734374928,
      "d": 786.9252604166104,
      "v": 109
    },
    {
      "midi": 62,
      "hit": false,
      "t": 261813.1591145826,
      "d": 778.402604166622,
      "v": 98
    },
    {
      "midi": 47,
      "hit": false,
      "t": 261815.99999999927,
      "d": 1107.945312499971,
      "v": 99
    },
    {
      "midi": 66,
      "hit": false,
      "t": 262889.85468749923,
      "d": 880.6744791666861,
      "v": 113
    },
    {
      "midi": 62,
      "hit": false,
      "t": 262895.53645833256,
      "d": 909.0833333333721,
      "v": 101
    },
    {
      "midi": 59,
      "hit": false,
      "t": 262895.53645833256,
      "d": 1068.1729166666628,
      "v": 88
    },
    {
      "midi": 71,
      "hit": false,
      "t": 262898.3773437492,
      "d": 963.0601562500233,
      "v": 100
    },
    {
      "midi": 71,
      "hit": false,
      "t": 263986.4364583326,
      "d": 892.0380208333372,
      "v": 97
    },
    {
      "midi": 68,
      "hit": false,
      "t": 263986.4364583326,
      "d": 903.4015624999884,
      "v": 126
    },
    {
      "midi": 62,
      "hit": false,
      "t": 263992.1182291659,
      "d": 886.3562500000116,
      "v": 92
    },
    {
      "midi": 52,
      "hit": false,
      "t": 263992.1182291659,
      "d": 1073.8546874999884,
      "v": 85
    },
    {
      "midi": 59,
      "hit": false,
      "t": 265077.33645833255,
      "d": 965.9010416666279,
      "v": 94
    },
    {
      "midi": 62,
      "hit": false,
      "t": 265083.0182291659,
      "d": 946.0148437499884,
      "v": 81
    },
    {
      "midi": 68,
      "hit": false,
      "t": 265083.0182291659,
      "d": 946.0148437499884,
      "v": 109
    },
    {
      "midi": 71,
      "hit": false,
      "t": 265085.85911458253,
      "d": 934.6513020833372,
      "v": 90
    },
    {
      "midi": 57,
      "hit": false,
      "t": 266162.5546874992,
      "d": 1857.9390624999069,
      "v": 84
    },
    {
      "midi": 52,
      "hit": false,
      "t": 266165.39557291585,
      "d": 2048.2783854165464,
      "v": 87
    },
    {
      "midi": 64,
      "hit": false,
      "t": 266168.2364583325,
      "d": 741.4710937499767,
      "v": 86
    },
    {
      "midi": 67,
      "hit": false,
      "t": 266171.0773437492,
      "d": 678.9716145833372,
      "v": 105
    },
    {
      "midi": 72,
      "hit": false,
      "t": 266171.0773437492,
      "d": 693.1760416666511,
      "v": 103
    },
    {
      "midi": 67,
      "hit": false,
      "t": 267270.4999999991,
      "d": 732.9484374999884,
      "v": 117
    },
    {
      "midi": 64,
      "hit": false,
      "t": 267270.4999999991,
      "d": 806.811458333279,
      "v": 100
    },
    {
      "midi": 72,
      "hit": false,
      "t": 267270.4999999991,
      "d": 977.264583333279,
      "v": 104
    },
    {
      "midi": 66,
      "hit": false,
      "t": 268338.67291666573,
      "d": 772.7208333333256,
      "v": 101
    },
    {
      "midi": 54,
      "hit": false,
      "t": 268338.67291666573,
      "d": 1934.6429687499767,
      "v": 98
    },
    {
      "midi": 60,
      "hit": false,
      "t": 268341.5138020824,
      "d": 1906.2341145832906,
      "v": 86
    },
    {
      "midi": 50,
      "hit": false,
      "t": 268341.5138020824,
      "d": 1940.3247395833023,
      "v": 53
    },
    {
      "midi": 69,
      "hit": false,
      "t": 268350.0364583324,
      "d": 747.1528645833605,
      "v": 105
    },
    {
      "midi": 62,
      "hit": false,
      "t": 268350.0364583324,
      "d": 761.3572916666744,
      "v": 88
    },
    {
      "midi": 66,
      "hit": false,
      "t": 269452.29999999906,
      "d": 738.6302083333139,
      "v": 111
    },
    {
      "midi": 62,
      "hit": false,
      "t": 269457.9817708324,
      "d": 741.4710937499767,
      "v": 98
    },
    {
      "midi": 69,
      "hit": false,
      "t": 269457.9817708324,
      "d": 749.9937499999651,
      "v": 116
    },
    {
      "midi": 67,
      "hit": false,
      "t": 270537.5182291657,
      "d": 730.1075520833256,
      "v": 107
    },
    {
      "midi": 62,
      "hit": false,
      "t": 270540.35911458236,
      "d": 681.8125,
      "v": 86
    },
    {
      "midi": 72,
      "hit": false,
      "t": 270543.199999999,
      "d": 681.8125,
      "v": 107
    },
    {
      "midi": 55,
      "hit": false,
      "t": 270543.199999999,
      "d": 1917.59765625,
      "v": 91
    },
    {
      "midi": 67,
      "hit": false,
      "t": 271639.7817708324,
      "d": 732.9484374999884,
      "v": 108
    },
    {
      "midi": 72,
      "hit": false,
      "t": 271639.7817708324,
      "d": 835.2203124999651,
      "v": 107
    },
    {
      "midi": 62,
      "hit": false,
      "t": 271645.4635416657,
      "d": 721.5848958333372,
      "v": 86
    },
    {
      "midi": 55,
      "hit": false,
      "t": 272727.8408854157,
      "d": 732.9484374999302,
      "v": 74
    },
    {
      "midi": 67,
      "hit": false,
      "t": 272730.68177083234,
      "d": 355.11067708331393,
      "v": 111
    },
    {
      "midi": 59,
      "hit": false,
      "t": 272730.68177083234,
      "d": 721.584895833279,
      "v": 77
    },
    {
      "midi": 62,
      "hit": false,
      "t": 272733.522656249,
      "d": 357.9515624999767,
      "v": 96
    },
    {
      "midi": 71,
      "hit": false,
      "t": 272733.522656249,
      "d": 400.5648437499767,
      "v": 102
    },
    {
      "midi": 62,
      "hit": false,
      "t": 273440.90312499896,
      "d": 1215.8989583333023,
      "v": 89
    },
    {
      "midi": 71,
      "hit": false,
      "t": 273440.90312499896,
      "d": 1215.8989583333023,
      "v": 96
    },
    {
      "midi": 67,
      "hit": false,
      "t": 273440.90312499896,
      "d": 1232.944270833279,
      "v": 109
    },
    {
      "midi": 55,
      "hit": false,
      "t": 273813.05911458225,
      "d": 934.6513020833372,
      "v": 110
    },
    {
      "midi": 59,
      "hit": false,
      "t": 273815.8999999989,
      "d": 892.0380208333372,
      "v": 107
    },
    {
      "midi": 48,
      "hit": false,
      "t": 274906.79999999894,
      "d": 1965.8927083333256,
      "v": 88
    },
    {
      "midi": 67,
      "hit": false,
      "t": 274909.6408854156,
      "d": 1823.8484375000116,
      "v": 101
    },
    {
      "midi": 72,
      "hit": false,
      "t": 274909.6408854156,
      "d": 1991.4606770833489,
      "v": 111
    },
    {
      "midi": 64,
      "hit": false,
      "t": 274918.1635416656,
      "d": 931.8104166666744,
      "v": 82
    },
    {
      "midi": 55,
      "hit": false,
      "t": 275986.33645833225,
      "d": 1079.5364583333721,
      "v": 93
    },
    {
      "midi": 60,
      "hit": false,
      "t": 275986.33645833225,
      "d": 1153.3994791666628,
      "v": 80
    },
    {
      "midi": 76,
      "hit": false,
      "t": 276361.33333333227,
      "d": 619.3130208333605,
      "v": 110
    },
    {
      "midi": 66,
      "hit": false,
      "t": 277082.9182291656,
      "d": 1948.8473958333489,
      "v": 127
    },
    {
      "midi": 69,
      "hit": false,
      "t": 277094.28177083225,
      "d": 1914.7567708333372,
      "v": 105
    },
    {
      "midi": 50,
      "hit": false,
      "t": 277099.9635416656,
      "d": 1965.8927083333256,
      "v": 86
    },
    {
      "midi": 60,
      "hit": false,
      "t": 278170.9773437489,
      "d": 880.6744791666861,
      "v": 98
    },
    {
      "midi": 57,
      "hit": false,
      "t": 278176.65911458223,
      "d": 886.3562500000116,
      "v": 103
    },
    {
      "midi": 54,
      "hit": false,
      "t": 279253.3546874989,
      "d": 1198.8536458333256,
      "v": 103
    },
    {
      "midi": 66,
      "hit": false,
      "t": 279259.0364583322,
      "d": 883.5153645833489,
      "v": 112
    },
    {
      "midi": 47,
      "hit": false,
      "t": 279259.0364583322,
      "d": 4187.465104166593,
      "v": 84
    },
    {
      "midi": 71,
      "hit": false,
      "t": 279264.71822916553,
      "d": 843.7429687500116,
      "v": 99
    },
    {
      "midi": 62,
      "hit": false,
      "t": 279267.5591145822,
      "d": 843.7429687500116,
      "v": 86
    },
    {
      "midi": 59,
      "hit": false,
      "t": 280361.2999999989,
      "d": 974.4236979166744,
      "v": 97
    },
    {
      "midi": 66,
      "hit": false,
      "t": 280369.82265624887,
      "d": 954.5375000000349,
      "v": 109
    },
    {
      "midi": 71,
      "hit": false,
      "t": 280372.66354166553,
      "d": 880.6744791666861,
      "v": 94
    },
    {
      "midi": 62,
      "hit": false,
      "t": 280378.34531249886,
      "d": 826.6976562500349,
      "v": 89
    },
    {
      "midi": 52,
      "hit": false,
      "t": 281437.99557291553,
      "d": 2025.551302083244,
      "v": 92
    },
    {
      "midi": 68,
      "hit": false,
      "t": 281440.8364583322,
      "d": 937.4921874999418,
      "v": 110
    },
    {
      "midi": 62,
      "hit": false,
      "t": 281446.5182291655,
      "d": 866.4700520833139,
      "v": 99
    },
    {
      "midi": 71,
      "hit": false,
      "t": 281449.3591145822,
      "d": 869.3109374999767,
      "v": 93
    },
    {
      "midi": 68,
      "hit": false,
      "t": 282540.25911458215,
      "d": 869.3109374999767,
      "v": 106
    },
    {
      "midi": 59,
      "hit": false,
      "t": 282543.0999999988,
      "d": 874.9927083333023,
      "v": 86
    },
    {
      "midi": 71,
      "hit": false,
      "t": 282545.9408854155,
      "d": 838.0611979166861,
      "v": 93
    },
    {
      "midi": 62,
      "hit": false,
      "t": 282548.78177083214,
      "d": 852.265625,
      "v": 87
    },
    {
      "midi": 69,
      "hit": false,
      "t": 283616.9546874988,
      "d": 965.9010416666279,
      "v": 100
    },
    {
      "midi": 57,
      "hit": false,
      "t": 283622.6364583321,
      "d": 968.7419270832906,
      "v": 98
    },
    {
      "midi": 64,
      "hit": false,
      "t": 283622.6364583321,
      "d": 968.7419270832906,
      "v": 86
    },
    {
      "midi": 60,
      "hit": false,
      "t": 283622.6364583321,
      "d": 988.6281249999302,
      "v": 89
    },
    {
      "midi": 72,
      "hit": false,
      "t": 283625.4773437488,
      "d": 906.2424479166511,
      "v": 103
    },
    {
      "midi": 60,
      "hit": false,
      "t": 284722.0591145821,
      "d": 985.7872395832674,
      "v": 97
    },
    {
      "midi": 69,
      "hit": false,
      "t": 284724.89999999874,
      "d": 926.1286458332906,
      "v": 113
    },
    {
      "midi": 57,
      "hit": false,
      "t": 284724.89999999874,
      "d": 991.4690104165929,
      "v": 102
    },
    {
      "midi": 64,
      "hit": false,
      "t": 284727.7408854154,
      "d": 906.2424479166511,
      "v": 92
    },
    {
      "midi": 72,
      "hit": false,
      "t": 284733.42265624873,
      "d": 869.3109374999767,
      "v": 94
    },
    {
      "midi": 60,
      "hit": false,
      "t": 285815.79999999865,
      "d": 951.6966145833139,
      "v": 99
    },
    {
      "midi": 55,
      "hit": false,
      "t": 285815.79999999865,
      "d": 957.3783854166395,
      "v": 107
    },
    {
      "midi": 64,
      "hit": false,
      "t": 285827.1635416653,
      "d": 869.3109374999767,
      "v": 102
    },
    {
      "midi": 69,
      "hit": false,
      "t": 285827.1635416653,
      "d": 872.1518229166395,
      "v": 106
    },
    {
      "midi": 72,
      "hit": false,
      "t": 285830.00442708196,
      "d": 803.9705729166744,
      "v": 105
    },
    {
      "midi": 55,
      "hit": false,
      "t": 286895.33645833196,
      "d": 943.1739583333256,
      "v": 109
    },
    {
      "midi": 64,
      "hit": false,
      "t": 286898.1773437486,
      "d": 897.7197916666628,
      "v": 100
    },
    {
      "midi": 69,
      "hit": false,
      "t": 286901.0182291653,
      "d": 877.8335937500233,
      "v": 111
    },
    {
      "midi": 60,
      "hit": false,
      "t": 286901.0182291653,
      "d": 928.9695312500116,
      "v": 100
    },
    {
      "midi": 72,
      "hit": false,
      "t": 286903.85911458195,
      "d": 843.7429687500116,
      "v": 104
    },
    {
      "midi": 50,
      "hit": false,
      "t": 287986.2364583319,
      "d": 4221.555729166663,
      "v": 85
    },
    {
      "midi": 54,
      "hit": false,
      "t": 287986.2364583319,
      "d": 4227.237499999988,
      "v": 91
    },
    {
      "midi": 66,
      "hit": false,
      "t": 287989.0773437486,
      "d": 664.7671875000233,
      "v": 108
    },
    {
      "midi": 69,
      "hit": false,
      "t": 287994.7591145819,
      "d": 627.8356770833489,
      "v": 109
    },
    {
      "midi": 74,
      "hit": false,
      "t": 287994.7591145819,
      "d": 690.3351562500466,
      "v": 100
    },
    {
      "midi": 57,
      "hit": false,
      "t": 287997.5999999986,
      "d": 1781.2351562500116,
      "v": 86
    },
    {
      "midi": 60,
      "hit": false,
      "t": 289074.2955729153,
      "d": 1127.8315104166977,
      "v": 99
    },
    {
      "midi": 66,
      "hit": false,
      "t": 289085.65911458194,
      "d": 764.1981770833372,
      "v": 125
    },
    {
      "midi": 74,
      "hit": false,
      "t": 289088.4999999986,
      "d": 980.1054687500582,
      "v": 98
    },
    {
      "midi": 69,
      "hit": false,
      "t": 289091.34088541527,
      "d": 781.2434895833721,
      "v": 114
    },
    {
      "midi": 57,
      "hit": false,
      "t": 290182.24088541535,
      "d": 2005.6651041666046,
      "v": 95
    },
    {
      "midi": 66,
      "hit": false,
      "t": 290190.76354166534,
      "d": 238.63437499996508,
      "v": 125
    },
    {
      "midi": 69,
      "hit": false,
      "t": 290196.44531249866,
      "d": 196.02109374996508,
      "v": 114
    },
    {
      "midi": 72,
      "hit": false,
      "t": 290202.127083332,
      "d": 477.26874999998836,
      "v": 108
    },
    {
      "midi": 66,
      "hit": false,
      "t": 290869.7351562486,
      "d": 1312.4890625000116,
      "v": 123
    },
    {
      "midi": 74,
      "hit": false,
      "t": 290872.5760416653,
      "d": 1045.4458333333023,
      "v": 98
    },
    {
      "midi": 69,
      "hit": false,
      "t": 290872.5760416653,
      "d": 1079.536458333314,
      "v": 113
    },
    {
      "midi": 60,
      "hit": false,
      "t": 291261.7773437486,
      "d": 926.1286458333489,
      "v": 117
    },
    {
      "midi": 71,
      "hit": false,
      "t": 291977.6804687486,
      "d": 196.02109375002328,
      "v": 82
    },
    {
      "midi": 83,
      "hit": false,
      "t": 291991.8848958333,
      "d": 301.1338541666046,
      "v": 93
    },
    {
      "midi": 71,
      "hit": false,
      "t": 291997.56666666665,
      "d": 258.5205729166628,
      "v": 81
    },
    {
      "midi": 74,
      "hit": false,
      "t": 291997.56666666665,
      "d": 278.4067708333023,
      "v": 88
    },
    {
      "midi": 67,
      "hit": false,
      "t": 292361.19999999856,
      "d": 210.2255208333372,
      "v": 108
    },
    {
      "midi": 71,
      "hit": false,
      "t": 292361.19999999856,
      "d": 295.4520833333372,
      "v": 98
    },
    {
      "midi": 55,
      "hit": false,
      "t": 292361.19999999856,
      "d": 1071.0138020833256,
      "v": 93
    },
    {
      "midi": 62,
      "hit": false,
      "t": 292364.0408854152,
      "d": 249.99791666667443,
      "v": 93
    },
    {
      "midi": 74,
      "hit": false,
      "t": 292375.40442708327,
      "d": 173.2940104166628,
      "v": 95
    },
    {
      "midi": 71,
      "hit": false,
      "t": 292378.24531249993,
      "d": 198.86197916668607,
      "v": 84
    },
    {
      "midi": 83,
      "hit": false,
      "t": 292378.24531249993,
      "d": 221.58906250004657,
      "v": 95
    },
    {
      "midi": 84,
      "hit": false,
      "t": 293079.9440104166,
      "d": 488.6322916666395,
      "v": 88
    },
    {
      "midi": 72,
      "hit": false,
      "t": 293085.62578124856,
      "d": 255.6796875,
      "v": 91
    },
    {
      "midi": 72,
      "hit": false,
      "t": 293085.62578124995,
      "d": 494.3140624999651,
      "v": 94
    },
    {
      "midi": 62,
      "hit": false,
      "t": 293094.14843749854,
      "d": 133.52161458332557,
      "v": 38
    },
    {
      "midi": 67,
      "hit": false,
      "t": 293096.9893229152,
      "d": 79.54479166667443,
      "v": 60
    },
    {
      "midi": 50,
      "hit": false,
      "t": 293452.0999999985,
      "d": 988.6281250000466,
      "v": 95
    },
    {
      "midi": 72,
      "hit": false,
      "t": 293815.7333333319,
      "d": 181.81666666665114,
      "v": 103
    },
    {
      "midi": 62,
      "hit": false,
      "t": 293815.7333333319,
      "d": 184.65755208331393,
      "v": 80
    },
    {
      "midi": 67,
      "hit": false,
      "t": 293815.7333333319,
      "d": 193.1802083333023,
      "v": 104
    },
    {
      "midi": 72,
      "hit": false,
      "t": 293824.25598958327,
      "d": 136.36249999998836,
      "v": 83
    },
    {
      "midi": 84,
      "hit": false,
      "t": 293824.25598958327,
      "d": 139.20338541665114,
      "v": 87
    },
    {
      "midi": 67,
      "hit": false,
      "t": 294176.5257812485,
      "d": 156.24869791668607,
      "v": 105
    },
    {
      "midi": 71,
      "hit": false,
      "t": 294176.5257812485,
      "d": 218.74817708338378,
      "v": 86
    },
    {
      "midi": 62,
      "hit": false,
      "t": 294179.3666666652,
      "d": 88.06744791666279,
      "v": 75
    },
    {
      "midi": 74,
      "hit": false,
      "t": 294179.3666666652,
      "d": 181.81666666670935,
      "v": 99
    },
    {
      "midi": 86,
      "hit": false,
      "t": 294179.3666666666,
      "d": 139.20338541665114,
      "v": 78
    },
    {
      "midi": 74,
      "hit": false,
      "t": 294182.20755208324,
      "d": 122.15807291667443,
      "v": 80
    },
    {
      "midi": 74,
      "hit": false,
      "t": 294508.9093749999,
      "d": 133.52161458338378,
      "v": 69
    },
    {
      "midi": 55,
      "hit": false,
      "t": 294531.6364583319,
      "d": 1167.6039062499767,
      "v": 102
    },
    {
      "midi": 71,
      "hit": false,
      "t": 294540.1591145819,
      "d": 1650.5544270833489,
      "v": 103
    },
    {
      "midi": 67,
      "hit": false,
      "t": 294542.99999999854,
      "d": 1670.4406250000466,
      "v": 114
    },
    {
      "midi": 74,
      "hit": false,
      "t": 294542.99999999854,
      "d": 1738.6218750000698,
      "v": 102
    },
    {
      "midi": 62,
      "hit": false,
      "t": 294545.8408854152,
      "d": 1667.5997395833838,
      "v": 103
    },
    {
      "midi": 83,
      "hit": false,
      "t": 294619.7039062499,
      "d": 127.83984375005821,
      "v": 67
    },
    {
      "midi": 86,
      "hit": false,
      "t": 294682.2033854166,
      "d": 73.86302083334886,
      "v": 56
    },
    {
      "midi": 74,
      "hit": false,
      "t": 294761.74817708327,
      "d": 127.83984375,
      "v": 64
    },
    {
      "midi": 83,
      "hit": false,
      "t": 294889.58802083327,
      "d": 71.02213541662786,
      "v": 71
    },
    {
      "midi": 86,
      "hit": false,
      "t": 294906.63333333324,
      "d": 59.65859374997672,
      "v": 52
    },
    {
      "midi": 74,
      "hit": false,
      "t": 294983.3372395832,
      "d": 116.47630208329065,
      "v": 73
    },
    {
      "midi": 83,
      "hit": false,
      "t": 295088.44999999984,
      "d": 79.54479166667443,
      "v": 83
    },
    {
      "midi": 86,
      "hit": false,
      "t": 295088.44999999984,
      "d": 85.2265625,
      "v": 72
    },
    {
      "midi": 74,
      "hit": false,
      "t": 295190.7218749998,
      "d": 113.63541666662786,
      "v": 83
    },
    {
      "midi": 86,
      "hit": false,
      "t": 295290.1528645831,
      "d": 85.2265625,
      "v": 74
    },
    {
      "midi": 83,
      "hit": false,
      "t": 295295.83463541645,
      "d": 76.70390625001164,
      "v": 92
    },
    {
      "midi": 74,
      "hit": false,
      "t": 295395.26562499977,
      "d": 113.63541666662786,
      "v": 77
    },
    {
      "midi": 86,
      "hit": false,
      "t": 295494.6966145831,
      "d": 190.3393229165813,
      "v": 75
    },
    {
      "midi": 83,
      "hit": false,
      "t": 295497.53749999974,
      "d": 73.86302083329065,
      "v": 92
    },
    {
      "midi": 74,
      "hit": false,
      "t": 295591.2867187497,
      "d": 110.79453124996508,
      "v": 68
    },
    {
      "midi": 50,
      "hit": false,
      "t": 295639.5817708319,
      "d": 985.787239583442,
      "v": 87
    },
    {
      "midi": 74,
      "hit": false,
      "t": 296338.439583333,
      "d": 201.70286458329065,
      "v": 73
    },
    {
      "midi": 83,
      "hit": false,
      "t": 296341.28046874964,
      "d": 235.7934895833023,
      "v": 77
    },
    {
      "midi": 71,
      "hit": false,
      "t": 296352.6440104163,
      "d": 167.6122395833372,
      "v": 56
    },
    {
      "midi": 71,
      "hit": false,
      "t": 296361.1666666653,
      "d": 198.86197916668607,
      "v": 82
    },
    {
      "midi": 74,
      "hit": false,
      "t": 296716.2773437496,
      "d": 201.70286458334886,
      "v": 90
    },
    {
      "midi": 54,
      "hit": false,
      "t": 296719.1182291653,
      "d": 1031.2414062500466,
      "v": 122
    },
    {
      "midi": 83,
      "hit": false,
      "t": 296721.9591145829,
      "d": 252.83880208339542,
      "v": 95
    },
    {
      "midi": 66,
      "hit": false,
      "t": 296724.79999999865,
      "d": 286.92942708334886,
      "v": 113
    },
    {
      "midi": 62,
      "hit": false,
      "t": 296724.79999999865,
      "d": 321.0200520833605,
      "v": 95
    },
    {
      "midi": 71,
      "hit": false,
      "t": 296724.79999999865,
      "d": 343.747135416721,
      "v": 102
    },
    {
      "midi": 71,
      "hit": false,
      "t": 296724.7999999996,
      "d": 218.74817708338378,
      "v": 82
    },
    {
      "midi": 84,
      "hit": false,
      "t": 297432.18046874966,
      "d": 468.74609375,
      "v": 95
    },
    {
      "midi": 72,
      "hit": false,
      "t": 297435.0213541663,
      "d": 454.54166666668607,
      "v": 91
    },
    {
      "midi": 72,
      "hit": false,
      "t": 297440.7031249987,
      "d": 215.9072916666628,
      "v": 92
    },
    {
      "midi": 50,
      "hit": false,
      "t": 297804.336458332,
      "d": 1082.3773437499185,
      "v": 91
    },
    {
      "midi": 72,
      "hit": false,
      "t": 298167.9697916653,
      "d": 184.65755208331393,
      "v": 103
    },
    {
      "midi": 66,
      "hit": false,
      "t": 298170.810677082,
      "d": 178.97578124998836,
      "v": 100
    },
    {
      "midi": 62,
      "hit": false,
      "t": 298176.4924479153,
      "d": 82.38567708333721,
      "v": 77
    },
    {
      "midi": 72,
      "hit": false,
      "t": 298179.333333333,
      "d": 150.5669270833605,
      "v": 64
    },
    {
      "midi": 84,
      "hit": false,
      "t": 298179.333333333,
      "d": 181.81666666670935,
      "v": 83
    },
    {
      "midi": 74,
      "hit": false,
      "t": 298520.2395833331,
      "d": 130.6807291666628,
      "v": 46
    },
    {
      "midi": 74,
      "hit": false,
      "t": 298523.08046874864,
      "d": 218.74817708332557,
      "v": 102
    },
    {
      "midi": 86,
      "hit": false,
      "t": 298528.76223958307,
      "d": 190.3393229166977,
      "v": 86
    },
    {
      "midi": 74,
      "hit": false,
      "t": 298812.85078124976,
      "d": 161.93046875001164,
      "v": 71
    },
    {
      "midi": 62,
      "hit": false,
      "t": 298883.8729166653,
      "d": 2034.0739583332906,
      "v": 93
    },
    {
      "midi": 66,
      "hit": false,
      "t": 298883.8729166653,
      "d": 2079.5281249999534,
      "v": 104
    },
    {
      "midi": 74,
      "hit": false,
      "t": 298883.8729166653,
      "d": 2090.8916666666046,
      "v": 93
    },
    {
      "midi": 71,
      "hit": false,
      "t": 298886.71380208194,
      "d": 1721.5765624999767,
      "v": 108
    },
    {
      "midi": 47,
      "hit": false,
      "t": 298892.39557291527,
      "d": 1215.8989583333023,
      "v": 104
    },
    {
      "midi": 78,
      "hit": false,
      "t": 298940.69062499976,
      "d": 124.99895833333721,
      "v": 87
    },
    {
      "midi": 86,
      "hit": false,
      "t": 299017.39453124977,
      "d": 133.52161458332557,
      "v": 72
    },
    {
      "midi": 74,
      "hit": false,
      "t": 299108.3028645831,
      "d": 139.20338541670935,
      "v": 72
    },
    {
      "midi": 78,
      "hit": false,
      "t": 299219.0973958331,
      "d": 102.27187499997672,
      "v": 87
    },
    {
      "midi": 86,
      "hit": false,
      "t": 299267.39244791644,
      "d": 85.2265625,
      "v": 65
    },
    {
      "midi": 74,
      "hit": false,
      "t": 299358.30078124977,
      "d": 113.63541666662786,
      "v": 74
    },
    {
      "midi": 78,
      "hit": false,
      "t": 299454.8908854164,
      "d": 96.59010416665114,
      "v": 90
    },
    {
      "midi": 86,
      "hit": false,
      "t": 299471.9361979164,
      "d": 105.11276041669771,
      "v": 79
    },
    {
      "midi": 74,
      "hit": false,
      "t": 299591.2533854164,
      "d": 99.43098958331393,
      "v": 72
    },
    {
      "midi": 78,
      "hit": false,
      "t": 299679.32083333307,
      "d": 96.59010416665114,
      "v": 89
    },
    {
      "midi": 86,
      "hit": false,
      "t": 299693.5252604164,
      "d": 99.43098958331393,
      "v": 79
    },
    {
      "midi": 74,
      "hit": false,
      "t": 299804.31979166635,
      "d": 102.27187499997672,
      "v": 70
    },
    {
      "midi": 78,
      "hit": false,
      "t": 299903.75078124966,
      "d": 93.74921874998836,
      "v": 93
    },
    {
      "midi": 86,
      "hit": false,
      "t": 299906.5916666663,
      "d": 289.77031250001164,
      "v": 80
    },
    {
      "midi": 50,
      "hit": false,
      "t": 300003.1817708319,
      "d": 928.9695312499534,
      "v": 91
    },
    {
      "midi": 74,
      "hit": false,
      "t": 300025.90885416634,
      "d": 139.20338541665114,
      "v": 82
    },
    {
      "midi": 78,
      "hit": false,
      "t": 300111.13541666634,
      "d": 130.6807291666628,
      "v": 83
    },
    {
      "midi": 71,
      "hit": false,
      "t": 300702.039583333,
      "d": 184.65755208337214,
      "v": 83
    },
    {
      "midi": 83,
      "hit": false,
      "t": 300707.72135416634,
      "d": 156.24869791668607,
      "v": 78
    },
    {
      "midi": 71,
      "hit": false,
      "t": 300713.40312499856,
      "d": 301.1338541666628,
      "v": 105
    },
    {
      "midi": 68,
      "hit": false,
      "t": 301088.39999999857,
      "d": 159.08958333334886,
      "v": 124
    },
    {
      "midi": 71,
      "hit": false,
      "t": 301088.39999999857,
      "d": 184.65755208331393,
      "v": 101
    },
    {
      "midi": 52,
      "hit": false,
      "t": 301088.39999999857,
      "d": 809.65234375,
      "v": 88
    },
    {
      "midi": 62,
      "hit": false,
      "t": 301094.0817708319,
      "d": 164.77135416667443,
      "v": 98
    },
    {
      "midi": 83,
      "hit": false,
      "t": 301099.7635416664,
      "d": 232.9526041666395,
      "v": 99
    },
    {
      "midi": 71,
      "hit": false,
      "t": 301099.7635416664,
      "d": 238.63437499996508,
      "v": 84
    },
    {
      "midi": 72,
      "hit": false,
      "t": 301775.894270833,
      "d": 639.19921875,
      "v": 81
    },
    {
      "midi": 84,
      "hit": false,
      "t": 301778.73515624966,
      "d": 636.3583333333372,
      "v": 92
    },
    {
      "midi": 68,
      "hit": false,
      "t": 301812.82578124857,
      "d": 423.2919270833372,
      "v": 123
    },
    {
      "midi": 72,
      "hit": false,
      "t": 301812.82578124857,
      "d": 446.0190104166395,
      "v": 111
    },
    {
      "midi": 62,
      "hit": false,
      "t": 301815.66666666523,
      "d": 423.2919270833372,
      "v": 96
    },
    {
      "midi": 56,
      "hit": false,
      "t": 302184.9817708319,
      "d": 443.1781249999185,
      "v": 123
    },
    {
      "midi": 59,
      "hit": false,
      "t": 302190.66354166524,
      "d": 420.4510416666162,
      "v": 92
    },
    {
      "midi": 72,
      "hit": false,
      "t": 302542.9333333319,
      "d": 170.4531249999418,
      "v": 104
    },
    {
      "midi": 68,
      "hit": false,
      "t": 302542.9333333319,
      "d": 184.65755208325572,
      "v": 103
    },
    {
      "midi": 62,
      "hit": false,
      "t": 302548.6151041652,
      "d": 153.40781249996508,
      "v": 79
    },
    {
      "midi": 72,
      "hit": false,
      "t": 302557.1377604163,
      "d": 150.5669270833023,
      "v": 84
    },
    {
      "midi": 84,
      "hit": false,
      "t": 302559.978645833,
      "d": 161.93046874995343,
      "v": 85
    },
    {
      "midi": 68,
      "hit": false,
      "t": 302883.83958333184,
      "d": 147.7260416666395,
      "v": 110
    },
    {
      "midi": 74,
      "hit": false,
      "t": 302889.52135416516,
      "d": 144.88515624997672,
      "v": 106
    },
    {
      "midi": 62,
      "hit": false,
      "t": 302895.2031249985,
      "d": 119.31718750001164,
      "v": 71
    },
    {
      "midi": 74,
      "hit": false,
      "t": 302903.7257812496,
      "d": 133.52161458332557,
      "v": 74
    },
    {
      "midi": 86,
      "hit": false,
      "t": 302906.56666666624,
      "d": 119.31718750001164,
      "v": 87
    },
    {
      "midi": 47,
      "hit": false,
      "t": 303247.47291666514,
      "d": 230.11171874997672,
      "v": 103
    },
    {
      "midi": 68,
      "hit": false,
      "t": 303253.15468749846,
      "d": 173.2940104166628,
      "v": 116
    },
    {
      "midi": 74,
      "hit": false,
      "t": 303258.8364583318,
      "d": 170.453125,
      "v": 115
    },
    {
      "midi": 62,
      "hit": false,
      "t": 303258.8364583318,
      "d": 176.13489583332557,
      "v": 90
    },
    {
      "midi": 86,
      "hit": false,
      "t": 303261.67734374956,
      "d": 295.4520833333372,
      "v": 86
    },
    {
      "midi": 74,
      "hit": false,
      "t": 303261.67734374956,
      "d": 318.1791666666977,
      "v": 85
    },
    {
      "midi": 68,
      "hit": false,
      "t": 303963.3760416651,
      "d": 465.9052083333372,
      "v": 114
    },
    {
      "midi": 84,
      "hit": false,
      "t": 303963.37604166626,
      "d": 522.7229166666511,
      "v": 94
    },
    {
      "midi": 72,
      "hit": false,
      "t": 303963.37604166626,
      "d": 565.3361979166511,
      "v": 87
    },
    {
      "midi": 72,
      "hit": false,
      "t": 303969.0578124984,
      "d": 508.5184895833372,
      "v": 109
    },
    {
      "midi": 62,
      "hit": false,
      "t": 303974.73958333174,
      "d": 465.9052083333372,
      "v": 93
    },
    {
      "midi": 56,
      "hit": false,
      "t": 304349.73645833175,
      "d": 874.9927083333023,
      "v": 126
    },
    {
      "midi": 59,
      "hit": false,
      "t": 304349.73645833175,
      "d": 874.9927083333023,
      "v": 97
    },
    {
      "midi": 71,
      "hit": false,
      "t": 304702.0062499984,
      "d": 372.15598958329065,
      "v": 98
    },
    {
      "midi": 68,
      "hit": false,
      "t": 304707.68802083173,
      "d": 619.3130208333023,
      "v": 96
    },
    {
      "midi": 62,
      "hit": false,
      "t": 304713.36979166506,
      "d": 590.9041666666744,
      "v": 79
    },
    {
      "midi": 83,
      "hit": false,
      "t": 304713.3697916662,
      "d": 136.36249999998836,
      "v": 92
    },
    {
      "midi": 71,
      "hit": false,
      "t": 304713.3697916662,
      "d": 161.93046875001164,
      "v": 73
    },
    {
      "midi": 69,
      "hit": false,
      "t": 305074.1622395817,
      "d": 238.63437500002328,
      "v": 115
    },
    {
      "midi": 81,
      "hit": false,
      "t": 305088.36666666623,
      "d": 124.99895833333721,
      "v": 90
    },
    {
      "midi": 69,
      "hit": false,
      "t": 305088.36666666623,
      "d": 136.36249999998836,
      "v": 91
    },
    {
      "midi": 67,
      "hit": false,
      "t": 305449.1591145817,
      "d": 264.20234374998836,
      "v": 113
    },
    {
      "midi": 64,
      "hit": false,
      "t": 305449.1591145817,
      "d": 275.5658854166395,
      "v": 92
    },
    {
      "midi": 69,
      "hit": false,
      "t": 305449.1591145817,
      "d": 301.1338541666628,
      "v": 103
    },
    {
      "midi": 48,
      "hit": false,
      "t": 305449.1591145817,
      "d": 1065.33203125,
      "v": 74
    },
    {
      "midi": 69,
      "hit": false,
      "t": 305451.99999999953,
      "d": 309.65651041665114,
      "v": 88
    },
    {
      "midi": 81,
      "hit": false,
      "t": 305454.8408854162,
      "d": 335.2244791666744,
      "v": 101
    },
    {
      "midi": 83,
      "hit": false,
      "t": 306145.1760416662,
      "d": 565.3361979166511,
      "v": 93
    },
    {
      "midi": 71,
      "hit": false,
      "t": 306148.01692708285,
      "d": 562.4953124999884,
      "v": 84
    },
    {
      "midi": 71,
      "hit": false,
      "t": 306170.74401041504,
      "d": 420.4510416666744,
      "v": 100
    },
    {
      "midi": 67,
      "hit": false,
      "t": 306173.5848958317,
      "d": 394.88307291670935,
      "v": 109
    },
    {
      "midi": 64,
      "hit": false,
      "t": 306173.5848958317,
      "d": 406.2466145833605,
      "v": 98
    },
    {
      "midi": 52,
      "hit": false,
      "t": 306540.05911458173,
      "d": 960.2192708333023,
      "v": 88
    },
    {
      "midi": 60,
      "hit": false,
      "t": 306542.8999999984,
      "d": 1011.3552083332906,
      "v": 85
    },
    {
      "midi": 55,
      "hit": false,
      "t": 306545.74088541506,
      "d": 761.3572916666162,
      "v": 93
    },
    {
      "midi": 71,
      "hit": false,
      "t": 306875.2835937484,
      "d": 281.2476562499651,
      "v": 90
    },
    {
      "midi": 67,
      "hit": false,
      "t": 306883.8062499984,
      "d": 150.5669270833023,
      "v": 93
    },
    {
      "midi": 64,
      "hit": false,
      "t": 306886.64713541506,
      "d": 144.88515624997672,
      "v": 58
    },
    {
      "midi": 71,
      "hit": false,
      "t": 306895.16979166615,
      "d": 153.40781250002328,
      "v": 81
    },
    {
      "midi": 83,
      "hit": false,
      "t": 306895.16979166615,
      "d": 178.97578125004657,
      "v": 76
    },
    {
      "midi": 72,
      "hit": false,
      "t": 307241.75781249837,
      "d": 178.97578124998836,
      "v": 106
    },
    {
      "midi": 64,
      "hit": false,
      "t": 307244.59869791503,
      "d": 173.2940104166628,
      "v": 83
    },
    {
      "midi": 67,
      "hit": false,
      "t": 307244.59869791503,
      "d": 181.81666666665114,
      "v": 95
    },
    {
      "midi": 72,
      "hit": false,
      "t": 307255.96223958285,
      "d": 127.83984375,
      "v": 76
    },
    {
      "midi": 84,
      "hit": false,
      "t": 307258.8031249995,
      "d": 133.52161458332557,
      "v": 93
    },
    {
      "midi": 72,
      "hit": false,
      "t": 307554.25520833285,
      "d": 150.5669270833605,
      "v": 77
    },
    {
      "midi": 72,
      "hit": false,
      "t": 307616.7546874983,
      "d": 1386.3520833333023,
      "v": 114
    },
    {
      "midi": 67,
      "hit": false,
      "t": 307619.595572915,
      "d": 1278.3984375,
      "v": 116
    },
    {
      "midi": 64,
      "hit": false,
      "t": 307622.43645833165,
      "d": 1249.989583333314,
      "v": 99
    },
    {
      "midi": 48,
      "hit": false,
      "t": 307630.95911458164,
      "d": 1119.3088541666511,
      "v": 91
    },
    {
      "midi": 76,
      "hit": false,
      "t": 307679.2541666662,
      "d": 124.99895833333721,
      "v": 72
    },
    {
      "midi": 72,
      "hit": false,
      "t": 307832.6619791662,
      "d": 127.83984374994179,
      "v": 85
    },
    {
      "midi": 84,
      "hit": false,
      "t": 307937.77473958285,
      "d": 116.47630208334886,
      "v": 76
    },
    {
      "midi": 76,
      "hit": false,
      "t": 307940.6156249995,
      "d": 90.90833333332557,
      "v": 66
    },
    {
      "midi": 72,
      "hit": false,
      "t": 308062.7736979162,
      "d": 110.79453124996508,
      "v": 87
    },
    {
      "midi": 76,
      "hit": false,
      "t": 308156.5229166662,
      "d": 88.06744791666279,
      "v": 83
    },
    {
      "midi": 84,
      "hit": false,
      "t": 308159.36380208284,
      "d": 107.9536458333605,
      "v": 82
    },
    {
      "midi": 72,
      "hit": false,
      "t": 308270.15833333286,
      "d": 107.95364583330229,
      "v": 88
    },
    {
      "midi": 76,
      "hit": false,
      "t": 308363.90755208285,
      "d": 88.06744791666279,
      "v": 85
    },
    {
      "midi": 84,
      "hit": false,
      "t": 308363.90755208285,
      "d": 105.1127604166395,
      "v": 77
    },
    {
      "midi": 72,
      "hit": false,
      "t": 308491.74739583285,
      "d": 93.74921874998836,
      "v": 88
    },
    {
      "midi": 76,
      "hit": false,
      "t": 308574.1330729162,
      "d": 93.74921874998836,
      "v": 88
    },
    {
      "midi": 84,
      "hit": false,
      "t": 308579.8148437495,
      "d": 110.79453125002328,
      "v": 79
    },
    {
      "midi": 72,
      "hit": false,
      "t": 308699.1320312495,
      "d": 267.04322916665114,
      "v": 76
    },
    {
      "midi": 60,
      "hit": false,
      "t": 308730.38177083165,
      "d": 795.4479166666279,
      "v": 96
    },
    {
      "midi": 52,
      "hit": false,
      "t": 308736.063541665,
      "d": 832.3794270833023,
      "v": 92
    },
    {
      "midi": 55,
      "hit": false,
      "t": 308738.90442708164,
      "d": 803.9705729166162,
      "v": 87
    },
    {
      "midi": 76,
      "hit": false,
      "t": 308775.83593749953,
      "d": 130.6807291666628,
      "v": 97
    },
    {
      "midi": 84,
      "hit": false,
      "t": 308784.3585937495,
      "d": 71.02213541668607,
      "v": 55
    },
    {
      "midi": 81,
      "hit": false,
      "t": 309429.23958333285,
      "d": 173.2940104166628,
      "v": 88
    },
    {
      "midi": 69,
      "hit": false,
      "t": 309437.76223958284,
      "d": 161.93046875001164,
      "v": 73
    },
    {
      "midi": 63,
      "hit": false,
      "t": 309440.6031249983,
      "d": 247.15703125001164,
      "v": 108
    },
    {
      "midi": 69,
      "hit": false,
      "t": 309446.2848958316,
      "d": 238.63437500002328,
      "v": 109
    },
    {
      "midi": 51,
      "hit": false,
      "t": 309812.7591145816,
      "d": 1241.4669270833256,
      "v": 93
    },
    {
      "midi": 63,
      "hit": false,
      "t": 309821.2817708316,
      "d": 255.6796875,
      "v": 114
    },
    {
      "midi": 69,
      "hit": false,
      "t": 309821.28177083284,
      "d": 267.04322916665114,
      "v": 96
    },
    {
      "midi": 81,
      "hit": false,
      "t": 309826.96354166616,
      "d": 261.3614583333256,
      "v": 100
    },
    {
      "midi": 69,
      "hit": false,
      "t": 309829.8044270816,
      "d": 235.7934895833605,
      "v": 113
    },
    {
      "midi": 71,
      "hit": false,
      "t": 310508.77604166616,
      "d": 568.1770833333139,
      "v": 87
    },
    {
      "midi": 83,
      "hit": false,
      "t": 310508.77604166616,
      "d": 585.2223958332906,
      "v": 91
    },
    {
      "midi": 63,
      "hit": false,
      "t": 310514.45781249827,
      "d": 494.3140625000233,
      "v": 110
    },
    {
      "midi": 71,
      "hit": false,
      "t": 310522.98046874825,
      "d": 417.61015625001164,
      "v": 96
    },
    {
      "midi": 55,
      "hit": false,
      "t": 310909.3408854149,
      "d": 1019.877864583279,
      "v": 99
    },
    {
      "midi": 60,
      "hit": false,
      "t": 310909.3408854149,
      "d": 1031.2414062499302,
      "v": 91
    },
    {
      "midi": 63,
      "hit": false,
      "t": 311244.5653645816,
      "d": 244.31614583334886,
      "v": 116
    },
    {
      "midi": 71,
      "hit": false,
      "t": 311253.0880208316,
      "d": 286.92942708334886,
      "v": 100
    },
    {
      "midi": 71,
      "hit": false,
      "t": 311261.6106770828,
      "d": 164.77135416667443,
      "v": 78
    },
    {
      "midi": 83,
      "hit": false,
      "t": 311264.45156249945,
      "d": 193.1802083333605,
      "v": 84
    },
    {
      "midi": 63,
      "hit": false,
      "t": 311599.6760416649,
      "d": 187.49843749997672,
      "v": 99
    },
    {
      "midi": 72,
      "hit": false,
      "t": 311605.35781249823,
      "d": 184.65755208331393,
      "v": 109
    },
    {
      "midi": 72,
      "hit": false,
      "t": 311622.4031249995,
      "d": 130.6807291666628,
      "v": 73
    },
    {
      "midi": 84,
      "hit": false,
      "t": 311625.24401041615,
      "d": 122.15807291667443,
      "v": 95
    },
    {
      "midi": 51,
      "hit": false,
      "t": 311966.15026041487,
      "d": 1982.9380208331277,
      "v": 96
    },
    {
      "midi": 84,
      "hit": false,
      "t": 311974.67291666614,
      "d": 326.70182291668607,
      "v": 98
    },
    {
      "midi": 72,
      "hit": false,
      "t": 311974.67291666614,
      "d": 340.90625,
      "v": 86
    },
    {
      "midi": 63,
      "hit": false,
      "t": 311977.5138020815,
      "d": 269.88411458331393,
      "v": 118
    },
    {
      "midi": 72,
      "hit": false,
      "t": 311980.3546874982,
      "d": 227.27083333331393,
      "v": 113
    },
    {
      "midi": 63,
      "hit": false,
      "t": 312684.8942708315,
      "d": 536.9273437499651,
      "v": 122
    },
    {
      "midi": 83,
      "hit": false,
      "t": 312684.8942708328,
      "d": 505.6776041666744,
      "v": 90
    },
    {
      "midi": 71,
      "hit": false,
      "t": 312684.8942708328,
      "d": 551.1317708333372,
      "v": 85
    },
    {
      "midi": 71,
      "hit": false,
      "t": 312699.0986979148,
      "d": 411.92838541662786,
      "v": 105
    },
    {
      "midi": 60,
      "hit": false,
      "t": 313099.6635416648,
      "d": 835.2203124999069,
      "v": 92
    },
    {
      "midi": 55,
      "hit": false,
      "t": 313099.6635416648,
      "d": 971.5828124998952,
      "v": 99
    },
    {
      "midi": 69,
      "hit": false,
      "t": 313437.7289062495,
      "d": 159.08958333334886,
      "v": 85
    },
    {
      "midi": 63,
      "hit": false,
      "t": 313440.5697916648,
      "d": 446.0190104165813,
      "v": 115
    },
    {
      "midi": 81,
      "hit": false,
      "t": 313440.5697916662,
      "d": 133.52161458332557,
      "v": 93
    },
    {
      "midi": 69,
      "hit": false,
      "t": 313451.9333333314,
      "d": 374.99687499995343,
      "v": 102
    },
    {
      "midi": 67,
      "hit": false,
      "t": 313781.4760416662,
      "d": 167.612239583279,
      "v": 72
    },
    {
      "midi": 79,
      "hit": false,
      "t": 313787.1578124995,
      "d": 142.04427083331393,
      "v": 87
    },
    {
      "midi": 67,
      "hit": false,
      "t": 313812.72578124807,
      "d": 184.65755208325572,
      "v": 98
    },
    {
      "midi": 67,
      "hit": false,
      "t": 314150.7911458328,
      "d": 301.1338541666628,
      "v": 92
    },
    {
      "midi": 79,
      "hit": false,
      "t": 314150.7911458328,
      "d": 335.2244791666744,
      "v": 84
    },
    {
      "midi": 50,
      "hit": false,
      "t": 314167.8364583313,
      "d": 1809.644010416523,
      "v": 91
    },
    {
      "midi": 67,
      "hit": false,
      "t": 314170.677343748,
      "d": 357.9515624999767,
      "v": 109
    },
    {
      "midi": 62,
      "hit": false,
      "t": 314179.199999998,
      "d": 363.6333333333023,
      "v": 70
    },
    {
      "midi": 69,
      "hit": false,
      "t": 314872.37604166614,
      "d": 519.8820312499884,
      "v": 85
    },
    {
      "midi": 81,
      "hit": false,
      "t": 314875.2169270828,
      "d": 536.9273437499651,
      "v": 93
    },
    {
      "midi": 62,
      "hit": false,
      "t": 314883.7395833313,
      "d": 448.8598958333023,
      "v": 89
    },
    {
      "midi": 69,
      "hit": false,
      "t": 314883.7395833313,
      "d": 497.15494791662786,
      "v": 106
    },
    {
      "midi": 59,
      "hit": false,
      "t": 315264.4182291646,
      "d": 1073.8546874999302,
      "v": 87
    },
    {
      "midi": 55,
      "hit": false,
      "t": 315270.09999999794,
      "d": 1034.082291666593,
      "v": 98
    },
    {
      "midi": 62,
      "hit": false,
      "t": 315611.0062499979,
      "d": 227.27083333331393,
      "v": 70
    },
    {
      "midi": 69,
      "hit": false,
      "t": 315611.00624999945,
      "d": 159.08958333329065,
      "v": 76
    },
    {
      "midi": 81,
      "hit": false,
      "t": 315613.8471354161,
      "d": 147.7260416666395,
      "v": 78
    },
    {
      "midi": 69,
      "hit": false,
      "t": 315616.6880208312,
      "d": 267.04322916665114,
      "v": 115
    },
    {
      "midi": 71,
      "hit": false,
      "t": 315968.95781249943,
      "d": 99.43098958331393,
      "v": 55
    },
    {
      "midi": 83,
      "hit": false,
      "t": 315968.95781249943,
      "d": 227.27083333331393,
      "v": 87
    },
    {
      "midi": 62,
      "hit": false,
      "t": 315974.6395833312,
      "d": 249.99791666667443,
      "v": 84
    },
    {
      "midi": 71,
      "hit": false,
      "t": 315974.6395833312,
      "d": 284.08854166668607,
      "v": 101
    },
    {
      "midi": 71,
      "hit": false,
      "t": 316236.0010416661,
      "d": 130.6807291666628,
      "v": 76
    },
    {
      "midi": 50,
      "hit": false,
      "t": 316358.1591145812,
      "d": 1340.8979166666395,
      "v": 91
    },
    {
      "midi": 71,
      "hit": false,
      "t": 316358.1591145812,
      "d": 1764.1898437499767,
      "v": 104
    },
    {
      "midi": 74,
      "hit": false,
      "t": 316358.15911458276,
      "d": 116.47630208329065,
      "v": 66
    },
    {
      "midi": 62,
      "hit": false,
      "t": 316360.99999999785,
      "d": 1349.4205729166279,
      "v": 97
    },
    {
      "midi": 83,
      "hit": false,
      "t": 316414.97682291607,
      "d": 93.74921874998836,
      "v": 69
    },
    {
      "midi": 71,
      "hit": false,
      "t": 316508.72604166606,
      "d": 130.6807291666628,
      "v": 76
    },
    {
      "midi": 74,
      "hit": false,
      "t": 316622.36145833274,
      "d": 88.06744791666279,
      "v": 71
    },
    {
      "midi": 83,
      "hit": false,
      "t": 316633.7249999994,
      "d": 85.2265625,
      "v": 59
    },
    {
      "midi": 71,
      "hit": false,
      "t": 316724.6333333327,
      "d": 127.83984375,
      "v": 80
    },
    {
      "midi": 74,
      "hit": false,
      "t": 316838.2687499994,
      "d": 82.38567708333721,
      "v": 73
    },
    {
      "midi": 83,
      "hit": false,
      "t": 316852.4731770827,
      "d": 85.2265625,
      "v": 68
    },
    {
      "midi": 71,
      "hit": false,
      "t": 316949.0632812494,
      "d": 88.06744791666279,
      "v": 64
    },
    {
      "midi": 74,
      "hit": false,
      "t": 317020.08541666606,
      "d": 90.90833333332557,
      "v": 77
    },
    {
      "midi": 83,
      "hit": false,
      "t": 317031.4489583327,
      "d": 99.43098958331393,
      "v": 75
    },
    {
      "midi": 71,
      "hit": false,
      "t": 317145.08437499934,
      "d": 99.43098958331393,
      "v": 78
    },
    {
      "midi": 83,
      "hit": false,
      "t": 317238.8335937493,
      "d": 82.38567708333721,
      "v": 73
    },
    {
      "midi": 74,
      "hit": false,
      "t": 317238.8335937493,
      "d": 88.06744791666279,
      "v": 84
    },
    {
      "midi": 71,
      "hit": false,
      "t": 317355.3098958327,
      "d": 110.79453124996508,
      "v": 83
    },
    {
      "midi": 59,
      "hit": false,
      "t": 317446.2182291645,
      "d": 869.3109375000349,
      "v": 88
    },
    {
      "midi": 55,
      "hit": false,
      "t": 317449.05911458115,
      "d": 914.7651041666977,
      "v": 96
    },
    {
      "midi": 83,
      "hit": false,
      "t": 317451.8999999993,
      "d": 122.15807291661622,
      "v": 86
    },
    {
      "midi": 74,
      "hit": false,
      "t": 317463.263541666,
      "d": 93.74921874998836,
      "v": 84
    },
    {
      "midi": 71,
      "hit": false,
      "t": 317585.4216145826,
      "d": 210.2255208333372,
      "v": 83
    },
    {
      "midi": 83,
      "hit": false,
      "t": 317622.35312499927,
      "d": 96.59010416670935,
      "v": 74
    },
    {
      "midi": 74,
      "hit": false,
      "t": 317653.6028645826,
      "d": 127.83984375,
      "v": 79
    },
    {
      "midi": 62,
      "hit": false,
      "t": 318153.5986979145,
      "d": 267.04322916665114,
      "v": 91
    },
    {
      "midi": 67,
      "hit": false,
      "t": 318156.4395833312,
      "d": 267.04322916665114,
      "v": 117
    },
    {
      "midi": 79,
      "hit": false,
      "t": 318167.8031249993,
      "d": 164.77135416667443,
      "v": 91
    },
    {
      "midi": 67,
      "hit": false,
      "t": 318173.4848958326,
      "d": 150.5669270833605,
      "v": 84
    },
    {
      "midi": 49,
      "hit": false,
      "t": 318534.27734374785,
      "d": 1142.0359374999534,
      "v": 84
    },
    {
      "midi": 61,
      "hit": false,
      "t": 318542.79999999783,
      "d": 374.99687500001164,
      "v": 98
    },
    {
      "midi": 64,
      "hit": false,
      "t": 318551.3226562478,
      "d": 301.1338541666628,
      "v": 85
    },
    {
      "midi": 67,
      "hit": false,
      "t": 318554.1635416645,
      "d": 599.426822916721,
      "v": 93
    },
    {
      "midi": 67,
      "hit": false,
      "t": 318559.84531249927,
      "d": 241.47526041662786,
      "v": 95
    },
    {
      "midi": 79,
      "hit": false,
      "t": 318565.5270833326,
      "d": 232.9526041666395,
      "v": 96
    },
    {
      "midi": 69,
      "hit": false,
      "t": 319247.33958333253,
      "d": 551.1317708333372,
      "v": 91
    },
    {
      "midi": 81,
      "hit": false,
      "t": 319247.33958333253,
      "d": 553.97265625,
      "v": 90
    },
    {
      "midi": 61,
      "hit": false,
      "t": 319255.8622395812,
      "d": 434.65546874993015,
      "v": 112
    },
    {
      "midi": 69,
      "hit": false,
      "t": 319261.5440104145,
      "d": 357.9515624999767,
      "v": 99
    },
    {
      "midi": 64,
      "hit": false,
      "t": 319261.5440104145,
      "d": 360.7924479166395,
      "v": 94
    },
    {
      "midi": 52,
      "hit": false,
      "t": 319636.54088541446,
      "d": 974.423697916558,
      "v": 76
    },
    {
      "midi": 57,
      "hit": false,
      "t": 319642.2226562478,
      "d": 1099.4226562498952,
      "v": 63
    },
    {
      "midi": 61,
      "hit": false,
      "t": 319985.96979166445,
      "d": 167.612239583279,
      "v": 77
    },
    {
      "midi": 69,
      "hit": false,
      "t": 319994.49244791444,
      "d": 207.38463541661622,
      "v": 80
    },
    {
      "midi": 64,
      "hit": false,
      "t": 320000.17421874776,
      "d": 147.7260416666395,
      "v": 75
    },
    {
      "midi": 69,
      "hit": false,
      "t": 320008.6968749992,
      "d": 133.52161458332557,
      "v": 75
    },
    {
      "midi": 81,
      "hit": false,
      "t": 320008.6968749992,
      "d": 136.36249999998836,
      "v": 84
    },
    {
      "midi": 61,
      "hit": false,
      "t": 320338.23958333104,
      "d": 230.11171874997672,
      "v": 52
    },
    {
      "midi": 64,
      "hit": false,
      "t": 320346.76223958103,
      "d": 230.11171874997672,
      "v": 78
    },
    {
      "midi": 71,
      "hit": false,
      "t": 320352.4440104159,
      "d": 144.88515624997672,
      "v": 74
    },
    {
      "midi": 83,
      "hit": false,
      "t": 320352.4440104159,
      "d": 150.5669270833023,
      "v": 89
    },
    {
      "midi": 71,
      "hit": false,
      "t": 320358.1257812477,
      "d": 210.2255208333372,
      "v": 85
    },
    {
      "midi": 61,
      "hit": false,
      "t": 320721.75911458104,
      "d": 286.92942708329065,
      "v": 82
    },
    {
      "midi": 49,
      "hit": false,
      "t": 320721.75911458104,
      "d": 1159.081249999872,
      "v": 89
    },
    {
      "midi": 71,
      "hit": false,
      "t": 320727.44088541437,
      "d": 676.1307291666162,
      "v": 94
    },
    {
      "midi": 83,
      "hit": false,
      "t": 320727.4408854158,
      "d": 332.38359375001164,
      "v": 93
    },
    {
      "midi": 71,
      "hit": false,
      "t": 320730.2817708325,
      "d": 338.0653645833372,
      "v": 86
    },
    {
      "midi": 64,
      "hit": false,
      "t": 320733.1226562477,
      "d": 215.9072916666628,
      "v": 89
    },
    {
      "midi": 69,
      "hit": false,
      "t": 321414.93515624915,
      "d": 514.2002604166628,
      "v": 84
    },
    {
      "midi": 81,
      "hit": false,
      "t": 321417.7760416658,
      "d": 519.8820312499884,
      "v": 91
    },
    {
      "midi": 61,
      "hit": false,
      "t": 321449.02578124765,
      "d": 536.9273437499069,
      "v": 105
    },
    {
      "midi": 69,
      "hit": false,
      "t": 321454.707552081,
      "d": 383.5195312499418,
      "v": 90
    },
    {
      "midi": 64,
      "hit": false,
      "t": 321460.3893229143,
      "d": 352.26979166665114,
      "v": 88
    },
    {
      "midi": 57,
      "hit": false,
      "t": 321829.7044270809,
      "d": 889.1971354166744,
      "v": 70
    },
    {
      "midi": 52,
      "hit": false,
      "t": 321829.7044270809,
      "d": 931.8104166666744,
      "v": 77
    },
    {
      "midi": 81,
      "hit": false,
      "t": 322162.08802083245,
      "d": 142.04427083331393,
      "v": 86
    },
    {
      "midi": 69,
      "hit": false,
      "t": 322164.9289062491,
      "d": 142.04427083331393,
      "v": 65
    },
    {
      "midi": 61,
      "hit": false,
      "t": 322179.1333333309,
      "d": 227.27083333331393,
      "v": 61
    },
    {
      "midi": 69,
      "hit": false,
      "t": 322190.49687499757,
      "d": 326.70182291668607,
      "v": 87
    },
    {
      "midi": 64,
      "hit": false,
      "t": 322196.1786458309,
      "d": 210.2255208333372,
      "v": 74
    },
    {
      "midi": 79,
      "hit": false,
      "t": 322525.72135416575,
      "d": 130.6807291666628,
      "v": 78
    },
    {
      "midi": 67,
      "hit": false,
      "t": 322525.72135416575,
      "d": 161.93046875001164,
      "v": 81
    },
    {
      "midi": 61,
      "hit": false,
      "t": 322542.7666666643,
      "d": 244.31614583329065,
      "v": 85
    },
    {
      "midi": 64,
      "hit": false,
      "t": 322548.4484374976,
      "d": 230.11171874997672,
      "v": 82
    },
    {
      "midi": 67,
      "hit": false,
      "t": 322554.1302083309,
      "d": 235.7934895833023,
      "v": 84
    },
    {
      "midi": 79,
      "hit": false,
      "t": 322906.3999999991,
      "d": 357.9515624999767,
      "v": 88
    },
    {
      "midi": 67,
      "hit": false,
      "t": 322906.3999999991,
      "d": 386.3604166666628,
      "v": 87
    },
    {
      "midi": 60,
      "hit": false,
      "t": 322917.76354166423,
      "d": 292.6111979166744,
      "v": 93
    },
    {
      "midi": 67,
      "hit": false,
      "t": 322917.76354166423,
      "d": 463.0643229166744,
      "v": 109
    },
    {
      "midi": 50,
      "hit": false,
      "t": 322920.6044270809,
      "d": 1105.1044270833372,
      "v": 70
    },
    {
      "midi": 66,
      "hit": false,
      "t": 323602.4169270824,
      "d": 582.3815104166279,
      "v": 80
    },
    {
      "midi": 78,
      "hit": false,
      "t": 323608.09869791573,
      "d": 556.8135416666628,
      "v": 93
    },
    {
      "midi": 66,
      "hit": false,
      "t": 323622.3031249976,
      "d": 519.8820312499884,
      "v": 116
    },
    {
      "midi": 60,
      "hit": false,
      "t": 323625.14401041425,
      "d": 551.1317708333372,
      "v": 97
    },
    {
      "midi": 57,
      "hit": false,
      "t": 324022.86796874757,
      "d": 977.2645833333954,
      "v": 86
    },
    {
      "midi": 54,
      "hit": false,
      "t": 324022.86796874757,
      "d": 1002.8325520834187,
      "v": 103
    },
    {
      "midi": 66,
      "hit": false,
      "t": 324360.93333333236,
      "d": 213.06640625,
      "v": 73
    },
    {
      "midi": 66,
      "hit": false,
      "t": 324369.45598958095,
      "d": 374.99687500001164,
      "v": 102
    },
    {
      "midi": 78,
      "hit": false,
      "t": 324369.45598958235,
      "d": 178.97578124998836,
      "v": 80
    },
    {
      "midi": 60,
      "hit": false,
      "t": 324377.97864583094,
      "d": 559.6544270833838,
      "v": 79
    },
    {
      "midi": 67,
      "hit": false,
      "t": 324713.2031249976,
      "d": 383.51953125,
      "v": 102
    },
    {
      "midi": 67,
      "hit": false,
      "t": 324721.725781249,
      "d": 139.20338541665114,
      "v": 74
    },
    {
      "midi": 79,
      "hit": false,
      "t": 324721.725781249,
      "d": 181.81666666665114,
      "v": 79
    },
    {
      "midi": 69,
      "hit": false,
      "t": 325005.8143229156,
      "d": 332.38359375001164,
      "v": 69
    },
    {
      "midi": 50,
      "hit": false,
      "t": 325088.1999999976,
      "d": 1136.3541666666279,
      "v": 75
    },
    {
      "midi": 69,
      "hit": false,
      "t": 325088.1999999976,
      "d": 1957.370052083279,
      "v": 113
    },
    {
      "midi": 60,
      "hit": false,
      "t": 325093.88177083095,
      "d": 1954.5291666666162,
      "v": 72
    },
    {
      "midi": 78,
      "hit": false,
      "t": 325173.42656249896,
      "d": 249.99791666667443,
      "v": 68
    },
    {
      "midi": 81,
      "hit": false,
      "t": 325281.3802083323,
      "d": 207.38463541667443,
      "v": 88
    },
    {
      "midi": 69,
      "hit": false,
      "t": 325448.99244791566,
      "d": 161.93046875001164,
      "v": 69
    },
    {
      "midi": 78,
      "hit": false,
      "t": 325556.946093749,
      "d": 144.88515624997672,
      "v": 78
    },
    {
      "midi": 69,
      "hit": false,
      "t": 325701.831249999,
      "d": 170.453125,
      "v": 67
    },
    {
      "midi": 78,
      "hit": false,
      "t": 325852.39817708236,
      "d": 196.02109374990687,
      "v": 75
    },
    {
      "midi": 81,
      "hit": false,
      "t": 325872.284374999,
      "d": 147.7260416666395,
      "v": 78
    },
    {
      "midi": 69,
      "hit": false,
      "t": 326031.3739583323,
      "d": 201.70286458329065,
      "v": 69
    },
    {
      "midi": 54,
      "hit": false,
      "t": 326181.94088541425,
      "d": 866.4700520833139,
      "v": 97
    },
    {
      "midi": 57,
      "hit": false,
      "t": 326184.7817708309,
      "d": 840.9020833333489,
      "v": 76
    },
    {
      "midi": 81,
      "hit": false,
      "t": 326218.87239583227,
      "d": 903.4015624999302,
      "v": 72
    },
    {
      "midi": 78,
      "hit": false,
      "t": 326218.87239583227,
      "d": 914.7651041665813,
      "v": 72
    },
    {
      "midi": 69,
      "hit": false,
      "t": 326423.4161458322,
      "d": 710.2213541666279,
      "v": 13
    },
    {
      "midi": 43,
      "hit": false,
      "t": 327341.02213541424,
      "d": 4028.3755208333023,
      "v": 92
    },
    {
      "midi": 55,
      "hit": false,
      "t": 327593.8609374976,
      "d": 210.2255208333372,
      "v": 71
    },
    {
      "midi": 59,
      "hit": false,
      "t": 327801.24557291425,
      "d": 275.5658854166977,
      "v": 69
    },
    {
      "midi": 62,
      "hit": false,
      "t": 327997.2666666643,
      "d": 176.13489583332557,
      "v": 62
    },
    {
      "midi": 67,
      "hit": false,
      "t": 328173.4015624976,
      "d": 48.29505208332557,
      "v": 66
    },
    {
      "midi": 67,
      "hit": false,
      "t": 328321.12760416424,
      "d": 127.83984375,
      "v": 109
    },
    {
      "midi": 71,
      "hit": false,
      "t": 328474.53541666426,
      "d": 196.02109374996508,
      "v": 75
    },
    {
      "midi": 74,
      "hit": false,
      "t": 328622.2614583309,
      "d": 184.65755208331393,
      "v": 94
    },
    {
      "midi": 79,
      "hit": false,
      "t": 328818.28255208087,
      "d": 39.772395833337214,
      "v": 64
    },
    {
      "midi": 79,
      "hit": false,
      "t": 329019.9854166642,
      "d": 181.81666666665114,
      "v": 91
    },
    {
      "midi": 83,
      "hit": false,
      "t": 329261.46067708085,
      "d": 187.49843749997672,
      "v": 54
    },
    {
      "midi": 86,
      "hit": false,
      "t": 329483.04973958083,
      "d": 406.2466145833605,
      "v": 63
    },
    {
      "midi": 91,
      "hit": false,
      "t": 329917.7052083309,
      "d": 79.54479166667443,
      "v": 61
    },
    {
      "midi": 95,
      "hit": false,
      "t": 330778.49348958087,
      "d": 65.3403645833605,
      "v": 66
    }
  ]
}