{
  "jsonPath": "Unknown/Unknown/Bianca Ryan/i-will.json",
  "path": "Unknown\\Unknown\\Bianca Ryan\\I Will.mid",
  "name": "I Will",
  "difficulty": "Advanced",
  "bpm": 120,
  "notes": [
    {
      "midi": 74,
      "hit": false,
      "t": 3266.666666666667,
      "d": 250,
      "v": 76
    },
    {
      "midi": 70,
      "hit": false,
      "t": 3266.666666666667,
      "d": 266.6666666666665,
      "v": 79
    },
    {
      "midi": 58,
      "hit": false,
      "t": 3266.666666666667,
      "d": 333.3333333333335,
      "v": 62
    },
    {
      "midi": 67,
      "hit": false,
      "t": 3566.666666666667,
      "d": 1383.333333333333,
      "v": 69
    },
    {
      "midi": 72,
      "hit": false,
      "t": 3566.666666666667,
      "d": 1416.666666666666,
      "v": 79
    },
    {
      "midi": 60,
      "hit": false,
      "t": 3566.666666666667,
      "d": 1549.999999999999,
      "v": 67
    },
    {
      "midi": 72,
      "hit": false,
      "t": 5066.666666666666,
      "d": 100,
      "v": 50
    },
    {
      "midi": 67,
      "hit": false,
      "t": 5066.666666666666,
      "d": 116.66666666666697,
      "v": 47
    },
    {
      "midi": 67,
      "hit": false,
      "t": 5350,
      "d": 216.66666666666697,
      "v": 69
    },
    {
      "midi": 72,
      "hit": false,
      "t": 5350,
      "d": 300,
      "v": 87
    },
    {
      "midi": 60,
      "hit": false,
      "t": 5350,
      "d": 1050,
      "v": 69
    },
    {
      "midi": 67,
      "hit": false,
      "t": 6250,
      "d": 416.66666666666697,
      "v": 63
    },
    {
      "midi": 75,
      "hit": false,
      "t": 6250,
      "d": 550,
      "v": 87
    },
    {
      "midi": 70,
      "hit": false,
      "t": 6850,
      "d": 50,
      "v": 20
    },
    {
      "midi": 67,
      "hit": false,
      "t": 6850,
      "d": 100,
      "v": 45
    },
    {
      "midi": 67,
      "hit": false,
      "t": 7150,
      "d": 1033.333333333333,
      "v": 73
    },
    {
      "midi": 70,
      "hit": false,
      "t": 7150,
      "d": 1033.333333333333,
      "v": 87
    },
    {
      "midi": 75,
      "hit": false,
      "t": 7150,
      "d": 1083.3333333333321,
      "v": 82
    },
    {
      "midi": 51,
      "hit": false,
      "t": 7150,
      "d": 3199.999999999998,
      "v": 69
    },
    {
      "midi": 63,
      "hit": false,
      "t": 8033.333333333333,
      "d": 699.9999999999991,
      "v": 76
    },
    {
      "midi": 67,
      "hit": false,
      "t": 8633.333333333332,
      "d": 66.66666666666606,
      "v": 36
    },
    {
      "midi": 67,
      "hit": false,
      "t": 8933.333333333332,
      "d": 800,
      "v": 71
    },
    {
      "midi": 70,
      "hit": false,
      "t": 8933.333333333332,
      "d": 816.6666666666661,
      "v": 82
    },
    {
      "midi": 63,
      "hit": false,
      "t": 8933.333333333332,
      "d": 1166.666666666666,
      "v": 73
    },
    {
      "midi": 75,
      "hit": false,
      "t": 9816.666666666664,
      "d": 650,
      "v": 95
    },
    {
      "midi": 70,
      "hit": false,
      "t": 9966.666666666664,
      "d": 33.33333333333394,
      "v": 55
    },
    {
      "midi": 67,
      "hit": false,
      "t": 10416.666666666664,
      "d": 150,
      "v": 58
    },
    {
      "midi": 55,
      "hit": false,
      "t": 10716.666666666664,
      "d": 2800,
      "v": 67
    },
    {
      "midi": 70,
      "hit": false,
      "t": 10716.666666666664,
      "d": 2800,
      "v": 91
    },
    {
      "midi": 74,
      "hit": false,
      "t": 10716.666666666664,
      "d": 2983.333333333334,
      "v": 84
    },
    {
      "midi": 67,
      "hit": false,
      "t": 10716.666666666664,
      "d": 3016.666666666668,
      "v": 82
    },
    {
      "midi": 48,
      "hit": false,
      "t": 16066.666666666666,
      "d": 316.66666666666606,
      "v": 73
    },
    {
      "midi": 72,
      "hit": false,
      "t": 16066.666666666666,
      "d": 316.66666666666606,
      "v": 87
    },
    {
      "midi": 75,
      "hit": false,
      "t": 16066.666666666666,
      "d": 333.33333333333394,
      "v": 84
    },
    {
      "midi": 72,
      "hit": false,
      "t": 16516.666666666668,
      "d": 66.66666666666788,
      "v": 79
    },
    {
      "midi": 75,
      "hit": false,
      "t": 16516.666666666668,
      "d": 66.66666666666788,
      "v": 64
    },
    {
      "midi": 48,
      "hit": false,
      "t": 16516.666666666668,
      "d": 216.66666666666788,
      "v": 52
    },
    {
      "midi": 72,
      "hit": false,
      "t": 16666.666666666668,
      "d": 116.66666666666788,
      "v": 76
    },
    {
      "midi": 75,
      "hit": false,
      "t": 16666.666666666668,
      "d": 116.66666666666788,
      "v": 63
    },
    {
      "midi": 72,
      "hit": false,
      "t": 16966.666666666668,
      "d": 100,
      "v": 103
    },
    {
      "midi": 75,
      "hit": false,
      "t": 16966.666666666668,
      "d": 116.66666666666788,
      "v": 95
    },
    {
      "midi": 48,
      "hit": false,
      "t": 17266.666666666668,
      "d": 83.33333333333212,
      "v": 16
    },
    {
      "midi": 72,
      "hit": false,
      "t": 17266.666666666668,
      "d": 83.33333333333212,
      "v": 84
    },
    {
      "midi": 75,
      "hit": false,
      "t": 17266.666666666668,
      "d": 100,
      "v": 73
    },
    {
      "midi": 75,
      "hit": false,
      "t": 17566.666666666668,
      "d": 83.33333333333212,
      "v": 66
    },
    {
      "midi": 72,
      "hit": false,
      "t": 17566.666666666668,
      "d": 100,
      "v": 71
    },
    {
      "midi": 67,
      "hit": false,
      "t": 17850,
      "d": 100,
      "v": 68
    },
    {
      "midi": 72,
      "hit": false,
      "t": 17850,
      "d": 116.66666666666788,
      "v": 84
    },
    {
      "midi": 75,
      "hit": false,
      "t": 17850,
      "d": 116.66666666666788,
      "v": 68
    },
    {
      "midi": 60,
      "hit": false,
      "t": 17850,
      "d": 183.33333333333576,
      "v": 66
    },
    {
      "midi": 67,
      "hit": false,
      "t": 18150.000000000004,
      "d": 83.33333333333212,
      "v": 45
    },
    {
      "midi": 75,
      "hit": false,
      "t": 18150.000000000004,
      "d": 83.33333333333212,
      "v": 53
    },
    {
      "midi": 72,
      "hit": false,
      "t": 18150.000000000004,
      "d": 100,
      "v": 73
    },
    {
      "midi": 60,
      "hit": false,
      "t": 18150.000000000004,
      "d": 133.33333333333212,
      "v": 33
    },
    {
      "midi": 67,
      "hit": false,
      "t": 18450.000000000004,
      "d": 100,
      "v": 67
    },
    {
      "midi": 75,
      "hit": false,
      "t": 18450.000000000004,
      "d": 116.66666666666788,
      "v": 61
    },
    {
      "midi": 60,
      "hit": false,
      "t": 18450.000000000004,
      "d": 150,
      "v": 45
    },
    {
      "midi": 72,
      "hit": false,
      "t": 18450.000000000004,
      "d": 150,
      "v": 84
    },
    {
      "midi": 77,
      "hit": false,
      "t": 18750.000000000004,
      "d": 833.3333333333321,
      "v": 84
    },
    {
      "midi": 72,
      "hit": false,
      "t": 18750.000000000004,
      "d": 1066.6666666666642,
      "v": 103
    },
    {
      "midi": 53,
      "hit": false,
      "t": 18750.000000000004,
      "d": 1299.9999999999964,
      "v": 63
    },
    {
      "midi": 67,
      "hit": false,
      "t": 19783.333333333336,
      "d": 116.66666666666424,
      "v": 42
    },
    {
      "midi": 75,
      "hit": false,
      "t": 19783.333333333336,
      "d": 116.66666666666424,
      "v": 17
    },
    {
      "midi": 72,
      "hit": false,
      "t": 20083.333333333332,
      "d": 50,
      "v": 27
    },
    {
      "midi": 67,
      "hit": false,
      "t": 20233.333333333332,
      "d": 50,
      "v": 27
    },
    {
      "midi": 53,
      "hit": false,
      "t": 20233.333333333332,
      "d": 83.33333333333212,
      "v": 33
    },
    {
      "midi": 72,
      "hit": false,
      "t": 20233.333333333332,
      "d": 100,
      "v": 66
    },
    {
      "midi": 72,
      "hit": false,
      "t": 20533.333333333332,
      "d": 650,
      "v": 95
    },
    {
      "midi": 77,
      "hit": false,
      "t": 20533.333333333332,
      "d": 733.3333333333321,
      "v": 87
    },
    {
      "midi": 53,
      "hit": false,
      "t": 20533.333333333332,
      "d": 850,
      "v": 76
    },
    {
      "midi": 74,
      "hit": false,
      "t": 21133.333333333332,
      "d": 733.3333333333321,
      "v": 22
    },
    {
      "midi": 67,
      "hit": false,
      "t": 21433.333333333332,
      "d": 350,
      "v": 66
    },
    {
      "midi": 70,
      "hit": false,
      "t": 21433.333333333332,
      "d": 383.3333333333321,
      "v": 71
    },
    {
      "midi": 55,
      "hit": false,
      "t": 21433.333333333332,
      "d": 2566.6666666666642,
      "v": 69
    },
    {
      "midi": 70,
      "hit": false,
      "t": 22316.666666666664,
      "d": 800,
      "v": 84
    },
    {
      "midi": 74,
      "hit": false,
      "t": 22316.666666666664,
      "d": 800,
      "v": 82
    },
    {
      "midi": 74,
      "hit": false,
      "t": 23216.666666666664,
      "d": 500,
      "v": 84
    },
    {
      "midi": 70,
      "hit": false,
      "t": 23216.666666666664,
      "d": 650,
      "v": 84
    },
    {
      "midi": 67,
      "hit": false,
      "t": 23216.666666666664,
      "d": 683.3333333333321,
      "v": 82
    },
    {
      "midi": 72,
      "hit": false,
      "t": 24099.999999999996,
      "d": 1650,
      "v": 68
    },
    {
      "midi": 67,
      "hit": false,
      "t": 24099.999999999996,
      "d": 1683.3333333333321,
      "v": 71
    },
    {
      "midi": 75,
      "hit": false,
      "t": 24099.999999999996,
      "d": 1683.3333333333321,
      "v": 71
    },
    {
      "midi": 48,
      "hit": false,
      "t": 24099.999999999996,
      "d": 1716.6666666666642,
      "v": 64
    },
    {
      "midi": 72,
      "hit": false,
      "t": 25883.33333333333,
      "d": 1350,
      "v": 84
    },
    {
      "midi": 77,
      "hit": false,
      "t": 25883.33333333333,
      "d": 1350,
      "v": 79
    },
    {
      "midi": 53,
      "hit": false,
      "t": 25883.33333333333,
      "d": 1500,
      "v": 66
    },
    {
      "midi": 77,
      "hit": false,
      "t": 27683.33333333333,
      "d": 566.6666666666679,
      "v": 66
    },
    {
      "midi": 72,
      "hit": false,
      "t": 27683.33333333333,
      "d": 600,
      "v": 76
    },
    {
      "midi": 67,
      "hit": false,
      "t": 27683.33333333333,
      "d": 816.6666666666679,
      "v": 64
    },
    {
      "midi": 53,
      "hit": false,
      "t": 27683.33333333333,
      "d": 833.3333333333358,
      "v": 68
    },
    {
      "midi": 67,
      "hit": false,
      "t": 28566.666666666664,
      "d": 516.6666666666679,
      "v": 64
    },
    {
      "midi": 70,
      "hit": false,
      "t": 28566.666666666664,
      "d": 533.3333333333358,
      "v": 73
    },
    {
      "midi": 74,
      "hit": false,
      "t": 28566.666666666664,
      "d": 566.6666666666679,
      "v": 73
    },
    {
      "midi": 55,
      "hit": false,
      "t": 28566.666666666664,
      "d": 1683.3333333333321,
      "v": 68
    },
    {
      "midi": 70,
      "hit": false,
      "t": 29466.666666666664,
      "d": 733.3333333333321,
      "v": 79
    },
    {
      "midi": 74,
      "hit": false,
      "t": 29466.666666666664,
      "d": 733.3333333333321,
      "v": 76
    },
    {
      "midi": 67,
      "hit": false,
      "t": 30349.999999999996,
      "d": 116.66666666666788,
      "v": 60
    },
    {
      "midi": 70,
      "hit": false,
      "t": 30349.999999999996,
      "d": 500,
      "v": 84
    },
    {
      "midi": 74,
      "hit": false,
      "t": 30349.999999999996,
      "d": 500,
      "v": 79
    },
    {
      "midi": 55,
      "hit": false,
      "t": 30499.999999999996,
      "d": 666.6666666666679,
      "v": 69
    },
    {
      "midi": 67,
      "hit": false,
      "t": 30799.999999999996,
      "d": 66.66666666666788,
      "v": 6
    },
    {
      "midi": 48,
      "hit": false,
      "t": 31249.999999999996,
      "d": 883.3333333333321,
      "v": 63
    },
    {
      "midi": 67,
      "hit": false,
      "t": 31249.999999999996,
      "d": 883.3333333333321,
      "v": 64
    },
    {
      "midi": 72,
      "hit": false,
      "t": 31249.999999999996,
      "d": 1433.3333333333321,
      "v": 67
    },
    {
      "midi": 67,
      "hit": false,
      "t": 32133.33333333333,
      "d": 283.3333333333321,
      "v": 56
    },
    {
      "midi": 63,
      "hit": false,
      "t": 32133.33333333333,
      "d": 1216.6666666666642,
      "v": 52
    },
    {
      "midi": 48,
      "hit": false,
      "t": 32133.33333333333,
      "d": 1483.3333333333285,
      "v": 58
    },
    {
      "midi": 58,
      "hit": false,
      "t": 33933.33333333332,
      "d": 900,
      "v": 45
    },
    {
      "midi": 63,
      "hit": false,
      "t": 33933.33333333332,
      "d": 966.6666666666642,
      "v": 50
    },
    {
      "midi": 67,
      "hit": false,
      "t": 33933.33333333332,
      "d": 1066.6666666666642,
      "v": 47
    },
    {
      "midi": 51,
      "hit": false,
      "t": 33933.33333333332,
      "d": 1116.6666666666642,
      "v": 55
    },
    {
      "midi": 65,
      "hit": false,
      "t": 35716.66666666665,
      "d": 1300,
      "v": 57
    },
    {
      "midi": 74,
      "hit": false,
      "t": 35716.66666666665,
      "d": 1383.3333333333358,
      "v": 60
    },
    {
      "midi": 70,
      "hit": false,
      "t": 35716.66666666665,
      "d": 1533.3333333333358,
      "v": 56
    },
    {
      "midi": 58,
      "hit": false,
      "t": 35716.66666666665,
      "d": 1733.3333333333358,
      "v": 52
    },
    {
      "midi": 51,
      "hit": false,
      "t": 37499.999999999985,
      "d": 1100,
      "v": 53
    },
    {
      "midi": 63,
      "hit": false,
      "t": 37499.999999999985,
      "d": 1200,
      "v": 52
    },
    {
      "midi": 70,
      "hit": false,
      "t": 37499.999999999985,
      "d": 1516.6666666666715,
      "v": 55
    },
    {
      "midi": 67,
      "hit": false,
      "t": 37499.999999999985,
      "d": 1633.3333333333358,
      "v": 63
    },
    {
      "midi": 68,
      "hit": false,
      "t": 39283.33333333332,
      "d": 1400,
      "v": 47
    },
    {
      "midi": 72,
      "hit": false,
      "t": 39283.33333333332,
      "d": 1483.3333333333358,
      "v": 56
    },
    {
      "midi": 65,
      "hit": false,
      "t": 39283.33333333332,
      "d": 1516.6666666666715,
      "v": 53
    },
    {
      "midi": 53,
      "hit": false,
      "t": 39283.33333333332,
      "d": 1616.6666666666715,
      "v": 56
    },
    {
      "midi": 65,
      "hit": false,
      "t": 41066.66666666666,
      "d": 1366.6666666666642,
      "v": 57
    },
    {
      "midi": 74,
      "hit": false,
      "t": 41066.66666666666,
      "d": 1583.3333333333285,
      "v": 61
    },
    {
      "midi": 58,
      "hit": false,
      "t": 41066.66666666666,
      "d": 1749.9999999999927,
      "v": 56
    },
    {
      "midi": 70,
      "hit": false,
      "t": 41066.66666666666,
      "d": 1749.9999999999927,
      "v": 52
    },
    {
      "midi": 68,
      "hit": false,
      "t": 42849.999999999985,
      "d": 933.3333333333358,
      "v": 48
    },
    {
      "midi": 65,
      "hit": false,
      "t": 42849.999999999985,
      "d": 950,
      "v": 48
    },
    {
      "midi": 72,
      "hit": false,
      "t": 42849.999999999985,
      "d": 950,
      "v": 50
    },
    {
      "midi": 53,
      "hit": false,
      "t": 42849.999999999985,
      "d": 1416.6666666666642,
      "v": 51
    },
    {
      "midi": 63,
      "hit": false,
      "t": 44633.33333333332,
      "d": 833.3333333333358,
      "v": 43
    },
    {
      "midi": 67,
      "hit": false,
      "t": 44633.33333333332,
      "d": 883.3333333333358,
      "v": 53
    },
    {
      "midi": 60,
      "hit": false,
      "t": 44633.33333333332,
      "d": 1016.6666666666642,
      "v": 60
    },
    {
      "midi": 67,
      "hit": false,
      "t": 45533.33333333332,
      "d": 100,
      "v": 4
    },
    {
      "midi": 72,
      "hit": false,
      "t": 45533.33333333332,
      "d": 350,
      "v": 6
    },
    {
      "midi": 67,
      "hit": false,
      "t": 46433.33333333332,
      "d": 266.66666666666424,
      "v": 58
    },
    {
      "midi": 75,
      "hit": false,
      "t": 46433.33333333332,
      "d": 316.66666666666424,
      "v": 67
    },
    {
      "midi": 48,
      "hit": false,
      "t": 46433.33333333332,
      "d": 500,
      "v": 66
    },
    {
      "midi": 55,
      "hit": false,
      "t": 46716.66666666665,
      "d": 633.333333333343,
      "v": 57
    },
    {
      "midi": 60,
      "hit": false,
      "t": 47316.66666666666,
      "d": 450,
      "v": 52
    },
    {
      "midi": 79,
      "hit": false,
      "t": 47316.66666666666,
      "d": 616.6666666666642,
      "v": 82
    },
    {
      "midi": 75,
      "hit": false,
      "t": 47916.66666666666,
      "d": 250,
      "v": 38
    },
    {
      "midi": 51,
      "hit": false,
      "t": 48216.66666666666,
      "d": 1400,
      "v": 71
    },
    {
      "midi": 67,
      "hit": false,
      "t": 48516.66666666666,
      "d": 150,
      "v": 52
    },
    {
      "midi": 70,
      "hit": false,
      "t": 48799.99999999999,
      "d": 100,
      "v": 64
    },
    {
      "midi": 75,
      "hit": false,
      "t": 49099.99999999999,
      "d": 683.3333333333285,
      "v": 87
    },
    {
      "midi": 70,
      "hit": false,
      "t": 49099.99999999999,
      "d": 833.3333333333285,
      "v": 87
    },
    {
      "midi": 70,
      "hit": false,
      "t": 49999.999999999985,
      "d": 416.66666666666424,
      "v": 71
    },
    {
      "midi": 74,
      "hit": false,
      "t": 49999.999999999985,
      "d": 433.3333333333285,
      "v": 67
    },
    {
      "midi": 58,
      "hit": false,
      "t": 49999.999999999985,
      "d": 1466.6666666666642,
      "v": 62
    },
    {
      "midi": 62,
      "hit": false,
      "t": 50883.333333333314,
      "d": 583.3333333333358,
      "v": 56
    },
    {
      "midi": 70,
      "hit": false,
      "t": 51183.333333333314,
      "d": 233.33333333333576,
      "v": 79
    },
    {
      "midi": 77,
      "hit": false,
      "t": 51183.333333333314,
      "d": 300,
      "v": 79
    },
    {
      "midi": 75,
      "hit": false,
      "t": 51483.333333333314,
      "d": 250,
      "v": 52
    },
    {
      "midi": 70,
      "hit": false,
      "t": 51483.333333333314,
      "d": 283.33333333333576,
      "v": 42
    },
    {
      "midi": 51,
      "hit": false,
      "t": 51783.333333333314,
      "d": 1000,
      "v": 57
    },
    {
      "midi": 67,
      "hit": false,
      "t": 51783.333333333314,
      "d": 1083.3333333333358,
      "v": 67
    },
    {
      "midi": 70,
      "hit": false,
      "t": 51783.333333333314,
      "d": 1100,
      "v": 57
    },
    {
      "midi": 75,
      "hit": false,
      "t": 51783.333333333314,
      "d": 1616.6666666666715,
      "v": 67
    },
    {
      "midi": 63,
      "hit": false,
      "t": 52383.333333333314,
      "d": 116.66666666666424,
      "v": 24
    },
    {
      "midi": 63,
      "hit": false,
      "t": 52683.333333333314,
      "d": 350,
      "v": 67
    },
    {
      "midi": 67,
      "hit": false,
      "t": 52966.66666666665,
      "d": 216.66666666666424,
      "v": 42
    },
    {
      "midi": 68,
      "hit": false,
      "t": 53566.66666666665,
      "d": 283.33333333333576,
      "v": 66
    },
    {
      "midi": 72,
      "hit": false,
      "t": 53566.66666666665,
      "d": 350,
      "v": 73
    },
    {
      "midi": 53,
      "hit": false,
      "t": 53566.66666666665,
      "d": 1200,
      "v": 66
    },
    {
      "midi": 60,
      "hit": false,
      "t": 54166.66666666665,
      "d": 1016.6666666666642,
      "v": 30
    },
    {
      "midi": 80,
      "hit": false,
      "t": 54466.66666666665,
      "d": 783.3333333333358,
      "v": 79
    },
    {
      "midi": 77,
      "hit": false,
      "t": 54766.66666666665,
      "d": 450,
      "v": 43
    },
    {
      "midi": 72,
      "hit": false,
      "t": 55049.999999999985,
      "d": 116.66666666666424,
      "v": 24
    },
    {
      "midi": 77,
      "hit": false,
      "t": 55349.999999999985,
      "d": 316.66666666666424,
      "v": 66
    },
    {
      "midi": 74,
      "hit": false,
      "t": 55349.999999999985,
      "d": 366.66666666666424,
      "v": 64
    },
    {
      "midi": 58,
      "hit": false,
      "t": 55349.999999999985,
      "d": 1400.0000000000073,
      "v": 58
    },
    {
      "midi": 70,
      "hit": false,
      "t": 56249.999999999985,
      "d": 383.33333333333576,
      "v": 64
    },
    {
      "midi": 74,
      "hit": false,
      "t": 56249.999999999985,
      "d": 416.6666666666715,
      "v": 69
    },
    {
      "midi": 62,
      "hit": false,
      "t": 56249.999999999985,
      "d": 666.6666666666788,
      "v": 57
    },
    {
      "midi": 67,
      "hit": false,
      "t": 56833.33333333333,
      "d": 83.33333333333576,
      "v": 24
    },
    {
      "midi": 55,
      "hit": false,
      "t": 57133.33333333333,
      "d": 833.3333333333358,
      "v": 73
    },
    {
      "midi": 67,
      "hit": false,
      "t": 57133.33333333333,
      "d": 1016.6666666666642,
      "v": 76
    },
    {
      "midi": 71,
      "hit": false,
      "t": 57133.33333333333,
      "d": 1033.3333333333285,
      "v": 87
    },
    {
      "midi": 79,
      "hit": false,
      "t": 57133.33333333333,
      "d": 1049.9999999999927,
      "v": 91
    },
    {
      "midi": 62,
      "hit": false,
      "t": 58033.33333333333,
      "d": 833.3333333333285,
      "v": 73
    },
    {
      "midi": 74,
      "hit": false,
      "t": 58333.33333333332,
      "d": 450,
      "v": 69
    },
    {
      "midi": 79,
      "hit": false,
      "t": 58333.33333333332,
      "d": 450,
      "v": 71
    },
    {
      "midi": 67,
      "hit": false,
      "t": 58633.33333333332,
      "d": 150,
      "v": 55
    },
    {
      "midi": 67,
      "hit": false,
      "t": 58916.66666666666,
      "d": 83.33333333333576,
      "v": 82
    },
    {
      "midi": 74,
      "hit": false,
      "t": 58916.66666666666,
      "d": 116.66666666667152,
      "v": 79
    },
    {
      "midi": 79,
      "hit": false,
      "t": 58916.66666666666,
      "d": 133.33333333333576,
      "v": 76
    },
    {
      "midi": 55,
      "hit": false,
      "t": 58916.66666666666,
      "d": 166.66666666667152,
      "v": 69
    },
    {
      "midi": 67,
      "hit": false,
      "t": 59216.666666666664,
      "d": 83.33333333333576,
      "v": 71
    },
    {
      "midi": 55,
      "hit": false,
      "t": 59216.666666666664,
      "d": 116.66666666667152,
      "v": 61
    },
    {
      "midi": 74,
      "hit": false,
      "t": 59216.666666666664,
      "d": 116.66666666667152,
      "v": 69
    },
    {
      "midi": 79,
      "hit": false,
      "t": 59216.666666666664,
      "d": 116.66666666667152,
      "v": 64
    },
    {
      "midi": 67,
      "hit": false,
      "t": 59516.66666666667,
      "d": 100,
      "v": 79
    },
    {
      "midi": 74,
      "hit": false,
      "t": 59516.66666666667,
      "d": 100,
      "v": 71
    },
    {
      "midi": 55,
      "hit": false,
      "t": 59516.66666666667,
      "d": 133.33333333333576,
      "v": 71
    },
    {
      "midi": 79,
      "hit": false,
      "t": 59516.66666666667,
      "d": 133.33333333333576,
      "v": 71
    },
    {
      "midi": 67,
      "hit": false,
      "t": 59816.66666666667,
      "d": 633.3333333333358,
      "v": 91
    },
    {
      "midi": 79,
      "hit": false,
      "t": 59816.66666666667,
      "d": 633.3333333333358,
      "v": 84
    },
    {
      "midi": 55,
      "hit": false,
      "t": 59816.66666666667,
      "d": 683.3333333333358,
      "v": 84
    },
    {
      "midi": 74,
      "hit": false,
      "t": 59816.66666666667,
      "d": 683.3333333333358,
      "v": 84
    },
    {
      "midi": 67,
      "hit": false,
      "t": 60716.66666666667,
      "d": 83.33333333333576,
      "v": 76
    },
    {
      "midi": 74,
      "hit": false,
      "t": 60716.66666666667,
      "d": 100,
      "v": 82
    },
    {
      "midi": 79,
      "hit": false,
      "t": 60716.66666666667,
      "d": 100,
      "v": 79
    },
    {
      "midi": 55,
      "hit": false,
      "t": 60716.66666666667,
      "d": 116.66666666666424,
      "v": 76
    },
    {
      "midi": 67,
      "hit": false,
      "t": 61000,
      "d": 100,
      "v": 82
    },
    {
      "midi": 74,
      "hit": false,
      "t": 61000,
      "d": 100,
      "v": 76
    },
    {
      "midi": 79,
      "hit": false,
      "t": 61000,
      "d": 116.66666666666424,
      "v": 82
    },
    {
      "midi": 55,
      "hit": false,
      "t": 61000,
      "d": 133.33333333332848,
      "v": 79
    },
    {
      "midi": 67,
      "hit": false,
      "t": 61299.99999999999,
      "d": 100,
      "v": 76
    },
    {
      "midi": 74,
      "hit": false,
      "t": 61299.99999999999,
      "d": 116.66666666666424,
      "v": 82
    },
    {
      "midi": 79,
      "hit": false,
      "t": 61299.99999999999,
      "d": 116.66666666666424,
      "v": 73
    },
    {
      "midi": 55,
      "hit": false,
      "t": 61299.99999999999,
      "d": 150,
      "v": 76
    },
    {
      "midi": 55,
      "hit": false,
      "t": 61599.99999999999,
      "d": 366.66666666666424,
      "v": 82
    },
    {
      "midi": 74,
      "hit": false,
      "t": 61599.99999999999,
      "d": 616.6666666666642,
      "v": 87
    },
    {
      "midi": 79,
      "hit": false,
      "t": 61599.99999999999,
      "d": 650,
      "v": 87
    },
    {
      "midi": 67,
      "hit": false,
      "t": 61599.99999999999,
      "d": 700,
      "v": 84
    },
    {
      "midi": 48,
      "hit": false,
      "t": 62583.33333333333,
      "d": 683.3333333333285,
      "v": 87
    },
    {
      "midi": 55,
      "hit": false,
      "t": 62849.99999999999,
      "d": 466.66666666666424,
      "v": 68
    },
    {
      "midi": 60,
      "hit": false,
      "t": 63116.66666666666,
      "d": 433.33333333333576,
      "v": 82
    },
    {
      "midi": 79,
      "hit": false,
      "t": 63416.66666666666,
      "d": 366.66666666666424,
      "v": 91
    },
    {
      "midi": 75,
      "hit": false,
      "t": 63666.66666666666,
      "d": 533.3333333333285,
      "v": 87
    },
    {
      "midi": 72,
      "hit": false,
      "t": 63916.66666666666,
      "d": 283.3333333333285,
      "v": 82
    },
    {
      "midi": 68,
      "hit": false,
      "t": 64266.66666666665,
      "d": 366.66666666665697,
      "v": 91
    },
    {
      "midi": 56,
      "hit": false,
      "t": 64266.66666666665,
      "d": 1566.6666666666497,
      "v": 82
    },
    {
      "midi": 72,
      "hit": false,
      "t": 64283.333333333314,
      "d": 50,
      "v": 58
    },
    {
      "midi": 72,
      "hit": false,
      "t": 64549.99999999998,
      "d": 233.33333333332848,
      "v": 67
    },
    {
      "midi": 60,
      "hit": false,
      "t": 64566.66666666664,
      "d": 1333.3333333333285,
      "v": 60
    },
    {
      "midi": 75,
      "hit": false,
      "t": 64833.33333333331,
      "d": 1233.3333333333358,
      "v": 62
    },
    {
      "midi": 72,
      "hit": false,
      "t": 64849.99999999997,
      "d": 183.33333333333576,
      "v": 22
    },
    {
      "midi": 63,
      "hit": false,
      "t": 65199.99999999997,
      "d": 550,
      "v": 66
    },
    {
      "midi": 68,
      "hit": false,
      "t": 65749.99999999997,
      "d": 316.6666666666715,
      "v": 73
    },
    {
      "midi": 58,
      "hit": false,
      "t": 65899.99999999997,
      "d": 33.33333333332848,
      "v": 14
    },
    {
      "midi": 58,
      "hit": false,
      "t": 66049.99999999997,
      "d": 1000.0000000000146,
      "v": 82
    },
    {
      "midi": 65,
      "hit": false,
      "t": 66349.99999999997,
      "d": 216.66666666667152,
      "v": 52
    },
    {
      "midi": 62,
      "hit": false,
      "t": 66349.99999999997,
      "d": 716.6666666666861,
      "v": 47
    },
    {
      "midi": 70,
      "hit": false,
      "t": 66633.33333333331,
      "d": 150,
      "v": 68
    },
    {
      "midi": 74,
      "hit": false,
      "t": 66949.99999999999,
      "d": 450,
      "v": 99
    },
    {
      "midi": 70,
      "hit": false,
      "t": 67249.99999999999,
      "d": 250,
      "v": 69
    },
    {
      "midi": 67,
      "hit": false,
      "t": 67533.33333333331,
      "d": 200,
      "v": 66
    },
    {
      "midi": 51,
      "hit": false,
      "t": 67849.99999999999,
      "d": 1199.9999999999854,
      "v": 76
    },
    {
      "midi": 70,
      "hit": false,
      "t": 67866.66666666666,
      "d": 116.66666666665697,
      "v": 84
    },
    {
      "midi": 75,
      "hit": false,
      "t": 67866.66666666666,
      "d": 183.33333333332848,
      "v": 91
    },
    {
      "midi": 58,
      "hit": false,
      "t": 68149.99999999999,
      "d": 899.9999999999854,
      "v": 62
    },
    {
      "midi": 75,
      "hit": false,
      "t": 68483.33333333331,
      "d": 83.33333333332848,
      "v": 38
    },
    {
      "midi": 75,
      "hit": false,
      "t": 68766.66666666664,
      "d": 83.33333333332848,
      "v": 87
    },
    {
      "midi": 87,
      "hit": false,
      "t": 68766.66666666664,
      "d": 166.66666666665697,
      "v": 82
    },
    {
      "midi": 63,
      "hit": false,
      "t": 68766.66666666664,
      "d": 450,
      "v": 64
    },
    {
      "midi": 75,
      "hit": false,
      "t": 69033.3333333333,
      "d": 116.66666666667152,
      "v": 47
    },
    {
      "midi": 82,
      "hit": false,
      "t": 69049.99999999997,
      "d": 466.6666666666715,
      "v": 69
    },
    {
      "midi": 75,
      "hit": false,
      "t": 69333.33333333331,
      "d": 216.66666666665697,
      "v": 82
    },
    {
      "midi": 75,
      "hit": false,
      "t": 69633.3333333333,
      "d": 200,
      "v": 69
    },
    {
      "midi": 79,
      "hit": false,
      "t": 69633.3333333333,
      "d": 466.6666666666715,
      "v": 79
    },
    {
      "midi": 60,
      "hit": false,
      "t": 69633.3333333333,
      "d": 1300.0000000000146,
      "v": 67
    },
    {
      "midi": 75,
      "hit": false,
      "t": 69899.99999999997,
      "d": 133.33333333332848,
      "v": 23
    },
    {
      "midi": 79,
      "hit": false,
      "t": 70216.66666666664,
      "d": 716.6666666666715,
      "v": 87
    },
    {
      "midi": 84,
      "hit": false,
      "t": 70233.33333333331,
      "d": 583.3333333333285,
      "v": 84
    },
    {
      "midi": 63,
      "hit": false,
      "t": 70583.33333333331,
      "d": 483.3333333333285,
      "v": 67
    },
    {
      "midi": 75,
      "hit": false,
      "t": 70833.33333333331,
      "d": 299.99999999998545,
      "v": 84
    },
    {
      "midi": 79,
      "hit": false,
      "t": 71099.99999999997,
      "d": 250,
      "v": 69
    },
    {
      "midi": 84,
      "hit": false,
      "t": 71416.66666666664,
      "d": 333.3333333333285,
      "v": 95
    },
    {
      "midi": 56,
      "hit": false,
      "t": 71416.66666666664,
      "d": 1399.9999999999854,
      "v": 76
    },
    {
      "midi": 80,
      "hit": false,
      "t": 71716.66666666664,
      "d": 216.66666666665697,
      "v": 73
    },
    {
      "midi": 63,
      "hit": false,
      "t": 71716.66666666664,
      "d": 1099.9999999999854,
      "v": 58
    },
    {
      "midi": 75,
      "hit": false,
      "t": 72016.66666666663,
      "d": 566.6666666666715,
      "v": 76
    },
    {
      "midi": 72,
      "hit": false,
      "t": 72616.66666666663,
      "d": 416.6666666666715,
      "v": 64
    },
    {
      "midi": 75,
      "hit": false,
      "t": 72916.66666666663,
      "d": 233.33333333334303,
      "v": 76
    },
    {
      "midi": 77,
      "hit": false,
      "t": 73216.66666666664,
      "d": 150,
      "v": 84
    },
    {
      "midi": 58,
      "hit": false,
      "t": 73216.66666666664,
      "d": 1066.666666666657,
      "v": 69
    },
    {
      "midi": 70,
      "hit": false,
      "t": 73499.99999999997,
      "d": 50,
      "v": 21
    },
    {
      "midi": 65,
      "hit": false,
      "t": 73799.99999999997,
      "d": 150,
      "v": 60
    },
    {
      "midi": 62,
      "hit": false,
      "t": 74099.99999999997,
      "d": 183.33333333332848,
      "v": 62
    },
    {
      "midi": 74,
      "hit": false,
      "t": 74099.99999999997,
      "d": 533.3333333333285,
      "v": 87
    },
    {
      "midi": 70,
      "hit": false,
      "t": 74399.99999999997,
      "d": 233.33333333332848,
      "v": 61
    },
    {
      "midi": 67,
      "hit": false,
      "t": 74699.99999999997,
      "d": 116.66666666667152,
      "v": 41
    },
    {
      "midi": 48,
      "hit": false,
      "t": 74983.33333333331,
      "d": 1733.3333333333576,
      "v": 79
    },
    {
      "midi": 67,
      "hit": false,
      "t": 75016.66666666664,
      "d": 66.66666666667152,
      "v": 79
    },
    {
      "midi": 72,
      "hit": false,
      "t": 75016.66666666664,
      "d": 133.33333333334303,
      "v": 87
    },
    {
      "midi": 72,
      "hit": false,
      "t": 75299.99999999999,
      "d": 83.33333333334303,
      "v": 57
    },
    {
      "midi": 55,
      "hit": false,
      "t": 75316.66666666666,
      "d": 1416.666666666686,
      "v": 56
    },
    {
      "midi": 75,
      "hit": false,
      "t": 75366.66666666666,
      "d": 83.33333333334303,
      "v": 33
    },
    {
      "midi": 72,
      "hit": false,
      "t": 75500,
      "d": 116.66666666667152,
      "v": 69
    },
    {
      "midi": 75,
      "hit": false,
      "t": 75550,
      "d": 100,
      "v": 61
    },
    {
      "midi": 79,
      "hit": false,
      "t": 75650,
      "d": 66.66666666667152,
      "v": 79
    },
    {
      "midi": 60,
      "hit": false,
      "t": 75716.66666666667,
      "d": 850,
      "v": 6
    },
    {
      "midi": 84,
      "hit": false,
      "t": 75816.66666666667,
      "d": 200,
      "v": 73
    },
    {
      "midi": 87,
      "hit": false,
      "t": 75933.33333333334,
      "d": 133.33333333332848,
      "v": 58
    },
    {
      "midi": 91,
      "hit": false,
      "t": 76066.66666666667,
      "d": 83.33333333332848,
      "v": 56
    },
    {
      "midi": 96,
      "hit": false,
      "t": 76100,
      "d": 216.66666666667152,
      "v": 73
    },
    {
      "midi": 48,
      "hit": false,
      "t": 76833.33333333334,
      "d": 1066.6666666666715,
      "v": 82
    },
    {
      "midi": 55,
      "hit": false,
      "t": 77116.66666666667,
      "d": 883.333333333343,
      "v": 55
    },
    {
      "midi": 60,
      "hit": false,
      "t": 77383.33333333334,
      "d": 850,
      "v": 64
    },
    {
      "midi": 67,
      "hit": false,
      "t": 77700.00000000001,
      "d": 766.6666666666715,
      "v": 87
    },
    {
      "midi": 72,
      "hit": false,
      "t": 77716.66666666669,
      "d": 566.666666666657,
      "v": 82
    },
    {
      "midi": 68,
      "hit": false,
      "t": 78566.66666666669,
      "d": 183.33333333332848,
      "v": 82
    },
    {
      "midi": 72,
      "hit": false,
      "t": 78566.66666666669,
      "d": 233.33333333332848,
      "v": 76
    },
    {
      "midi": 56,
      "hit": false,
      "t": 78566.66666666669,
      "d": 1450.0000000000146,
      "v": 67
    },
    {
      "midi": 60,
      "hit": false,
      "t": 78866.66666666669,
      "d": 1200.0000000000146,
      "v": 62
    },
    {
      "midi": 80,
      "hit": false,
      "t": 79183.33333333336,
      "d": 683.333333333343,
      "v": 71
    },
    {
      "midi": 75,
      "hit": false,
      "t": 79183.33333333336,
      "d": 1000.0000000000146,
      "v": 58
    },
    {
      "midi": 72,
      "hit": false,
      "t": 79183.33333333336,
      "d": 1133.333333333343,
      "v": 63
    },
    {
      "midi": 63,
      "hit": false,
      "t": 79600.00000000003,
      "d": 350,
      "v": 55
    },
    {
      "midi": 68,
      "hit": false,
      "t": 79816.6666666667,
      "d": 316.6666666666715,
      "v": 71
    },
    {
      "midi": 58,
      "hit": false,
      "t": 80200.00000000004,
      "d": 33.33333333332848,
      "v": 9
    },
    {
      "midi": 58,
      "hit": false,
      "t": 80350.00000000003,
      "d": 966.6666666666715,
      "v": 84
    },
    {
      "midi": 62,
      "hit": false,
      "t": 80616.6666666667,
      "d": 800,
      "v": 66
    },
    {
      "midi": 65,
      "hit": false,
      "t": 80933.33333333337,
      "d": 200,
      "v": 67
    },
    {
      "midi": 74,
      "hit": false,
      "t": 81250.00000000004,
      "d": 516.666666666657,
      "v": 95
    },
    {
      "midi": 65,
      "hit": false,
      "t": 81283.33333333337,
      "d": 33.33333333332848,
      "v": 55
    },
    {
      "midi": 70,
      "hit": false,
      "t": 81516.6666666667,
      "d": 300,
      "v": 58
    },
    {
      "midi": 65,
      "hit": false,
      "t": 81800.00000000003,
      "d": 233.33333333334303,
      "v": 64
    },
    {
      "midi": 51,
      "hit": false,
      "t": 82133.33333333337,
      "d": 1533.3333333333576,
      "v": 79
    },
    {
      "midi": 70,
      "hit": false,
      "t": 82150.00000000004,
      "d": 233.33333333334303,
      "v": 76
    },
    {
      "midi": 67,
      "hit": false,
      "t": 82150.00000000004,
      "d": 266.6666666666715,
      "v": 84
    },
    {
      "midi": 63,
      "hit": false,
      "t": 82450.00000000004,
      "d": 166.66666666667152,
      "v": 71
    },
    {
      "midi": 58,
      "hit": false,
      "t": 82500.00000000004,
      "d": 1183.3333333333576,
      "v": 50
    },
    {
      "midi": 67,
      "hit": false,
      "t": 82566.66666666672,
      "d": 116.66666666667152,
      "v": 64
    },
    {
      "midi": 70,
      "hit": false,
      "t": 82666.66666666672,
      "d": 83.33333333334303,
      "v": 64
    },
    {
      "midi": 75,
      "hit": false,
      "t": 82850.00000000006,
      "d": 150,
      "v": 71
    },
    {
      "midi": 80,
      "hit": false,
      "t": 82933.33333333339,
      "d": 50,
      "v": 35
    },
    {
      "midi": 79,
      "hit": false,
      "t": 82966.66666666672,
      "d": 183.33333333334303,
      "v": 58
    },
    {
      "midi": 82,
      "hit": false,
      "t": 83083.33333333339,
      "d": 833.333333333343,
      "v": 56
    },
    {
      "midi": 87,
      "hit": false,
      "t": 83150.00000000006,
      "d": 450,
      "v": 87
    },
    {
      "midi": 79,
      "hit": false,
      "t": 83650.00000000006,
      "d": 316.6666666666715,
      "v": 66
    },
    {
      "midi": 60,
      "hit": false,
      "t": 83916.66666666673,
      "d": 1633.333333333343,
      "v": 73
    },
    {
      "midi": 75,
      "hit": false,
      "t": 84516.66666666673,
      "d": 550,
      "v": 67
    },
    {
      "midi": 72,
      "hit": false,
      "t": 84516.66666666673,
      "d": 583.3333333333285,
      "v": 71
    },
    {
      "midi": 79,
      "hit": false,
      "t": 85116.66666666673,
      "d": 550.0000000000146,
      "v": 73
    },
    {
      "midi": 75,
      "hit": false,
      "t": 85416.66666666673,
      "d": 433.3333333333576,
      "v": 64
    },
    {
      "midi": 56,
      "hit": false,
      "t": 85716.66666666674,
      "d": 1650.0000000000146,
      "v": 87
    },
    {
      "midi": 68,
      "hit": false,
      "t": 86000.00000000009,
      "d": 300,
      "v": 52
    },
    {
      "midi": 72,
      "hit": false,
      "t": 86300.00000000009,
      "d": 150,
      "v": 42
    },
    {
      "midi": 72,
      "hit": false,
      "t": 86600.00000000009,
      "d": 83.33333333332848,
      "v": 55
    },
    {
      "midi": 80,
      "hit": false,
      "t": 86600.00000000009,
      "d": 550,
      "v": 82
    },
    {
      "midi": 75,
      "hit": false,
      "t": 86600.00000000009,
      "d": 816.6666666666715,
      "v": 68
    },
    {
      "midi": 72,
      "hit": false,
      "t": 86900.00000000009,
      "d": 166.66666666667152,
      "v": 41
    },
    {
      "midi": 72,
      "hit": false,
      "t": 87200.00000000009,
      "d": 66.66666666667152,
      "v": 31
    },
    {
      "midi": 68,
      "hit": false,
      "t": 87200.00000000009,
      "d": 216.66666666667152,
      "v": 56
    },
    {
      "midi": 58,
      "hit": false,
      "t": 87500.00000000009,
      "d": 1166.666666666657,
      "v": 79
    },
    {
      "midi": 62,
      "hit": false,
      "t": 87800.00000000009,
      "d": 883.3333333333285,
      "v": 57
    },
    {
      "midi": 65,
      "hit": false,
      "t": 88083.33333333342,
      "d": 150,
      "v": 55
    },
    {
      "midi": 77,
      "hit": false,
      "t": 88383.33333333342,
      "d": 516.6666666666715,
      "v": 84
    },
    {
      "midi": 70,
      "hit": false,
      "t": 88383.33333333342,
      "d": 700.0000000000146,
      "v": 82
    },
    {
      "midi": 65,
      "hit": false,
      "t": 88683.33333333342,
      "d": 233.33333333334303,
      "v": 63
    },
    {
      "midi": 75,
      "hit": false,
      "t": 88983.33333333343,
      "d": 116.66666666667152,
      "v": 38
    },
    {
      "midi": 69,
      "hit": false,
      "t": 89283.33333333343,
      "d": 33.33333333332848,
      "v": 62
    },
    {
      "midi": 75,
      "hit": false,
      "t": 89283.33333333343,
      "d": 416.6666666666715,
      "v": 79
    },
    {
      "midi": 67,
      "hit": false,
      "t": 89283.33333333343,
      "d": 450,
      "v": 56
    },
    {
      "midi": 48,
      "hit": false,
      "t": 89283.33333333343,
      "d": 1316.6666666666715,
      "v": 79
    },
    {
      "midi": 55,
      "hit": false,
      "t": 89583.33333333343,
      "d": 1033.333333333343,
      "v": 57
    },
    {
      "midi": 67,
      "hit": false,
      "t": 89883.33333333343,
      "d": 116.66666666667152,
      "v": 32
    },
    {
      "midi": 72,
      "hit": false,
      "t": 90166.66666666677,
      "d": 633.3333333333285,
      "v": 84
    },
    {
      "midi": 79,
      "hit": false,
      "t": 90166.66666666677,
      "d": 700,
      "v": 82
    },
    {
      "midi": 60,
      "hit": false,
      "t": 90166.66666666677,
      "d": 733.3333333333285,
      "v": 73
    },
    {
      "midi": 75,
      "hit": false,
      "t": 90466.66666666677,
      "d": 83.33333333332848,
      "v": 22
    },
    {
      "midi": 75,
      "hit": false,
      "t": 90766.66666666677,
      "d": 100,
      "v": 45
    },
    {
      "midi": 65,
      "hit": false,
      "t": 91066.66666666677,
      "d": 83.33333333332848,
      "v": 91
    },
    {
      "midi": 77,
      "hit": false,
      "t": 91066.66666666677,
      "d": 133.33333333332848,
      "v": 87
    },
    {
      "midi": 41,
      "hit": false,
      "t": 91066.66666666677,
      "d": 900,
      "v": 62
    },
    {
      "midi": 67,
      "hit": false,
      "t": 91666.66666666677,
      "d": 66.66666666667152,
      "v": 82
    },
    {
      "midi": 79,
      "hit": false,
      "t": 91666.66666666677,
      "d": 100,
      "v": 84
    },
    {
      "midi": 65,
      "hit": false,
      "t": 91966.66666666677,
      "d": 66.66666666667152,
      "v": 87
    },
    {
      "midi": 77,
      "hit": false,
      "t": 91966.66666666677,
      "d": 83.33333333334303,
      "v": 91
    },
    {
      "midi": 53,
      "hit": false,
      "t": 91966.66666666677,
      "d": 500.00000000001455,
      "v": 48
    },
    {
      "midi": 67,
      "hit": false,
      "t": 92550.00000000012,
      "d": 66.66666666667152,
      "v": 79
    },
    {
      "midi": 79,
      "hit": false,
      "t": 92550.00000000012,
      "d": 83.33333333334303,
      "v": 82
    },
    {
      "midi": 70,
      "hit": false,
      "t": 92850.00000000013,
      "d": 83.33333333332848,
      "v": 79
    },
    {
      "midi": 82,
      "hit": false,
      "t": 92850.00000000013,
      "d": 116.66666666665697,
      "v": 91
    },
    {
      "midi": 46,
      "hit": false,
      "t": 92850.00000000013,
      "d": 516.666666666657,
      "v": 61
    },
    {
      "midi": 53,
      "hit": false,
      "t": 93150.00000000012,
      "d": 1166.666666666657,
      "v": 48
    },
    {
      "midi": 70,
      "hit": false,
      "t": 93450.00000000012,
      "d": 733.3333333333285,
      "v": 84
    },
    {
      "midi": 82,
      "hit": false,
      "t": 93450.00000000012,
      "d": 783.3333333333285,
      "v": 84
    },
    {
      "midi": 58,
      "hit": false,
      "t": 93750.00000000012,
      "d": 616.666666666657,
      "v": 68
    },
    {
      "midi": 70,
      "hit": false,
      "t": 94633.33333333344,
      "d": 100,
      "v": 91
    },
    {
      "midi": 82,
      "hit": false,
      "t": 94633.33333333344,
      "d": 166.66666666667152,
      "v": 91
    },
    {
      "midi": 43,
      "hit": false,
      "t": 94633.33333333344,
      "d": 1000,
      "v": 70
    },
    {
      "midi": 84,
      "hit": false,
      "t": 95233.33333333344,
      "d": 50,
      "v": 35
    },
    {
      "midi": 72,
      "hit": false,
      "t": 95233.33333333344,
      "d": 83.33333333332848,
      "v": 53
    },
    {
      "midi": 70,
      "hit": false,
      "t": 95533.33333333344,
      "d": 50,
      "v": 82
    },
    {
      "midi": 82,
      "hit": false,
      "t": 95533.33333333344,
      "d": 50,
      "v": 76
    },
    {
      "midi": 55,
      "hit": false,
      "t": 95533.33333333344,
      "d": 816.666666666657,
      "v": 57
    },
    {
      "midi": 72,
      "hit": false,
      "t": 95833.33333333344,
      "d": 83.33333333332848,
      "v": 52
    },
    {
      "midi": 75,
      "hit": false,
      "t": 96116.66666666677,
      "d": 83.33333333332848,
      "v": 69
    },
    {
      "midi": 87,
      "hit": false,
      "t": 96116.66666666677,
      "d": 83.33333333332848,
      "v": 84
    },
    {
      "midi": 84,
      "hit": false,
      "t": 96416.66666666677,
      "d": 266.6666666666715,
      "v": 67
    },
    {
      "midi": 72,
      "hit": false,
      "t": 96416.66666666677,
      "d": 383.33333333334303,
      "v": 66
    },
    {
      "midi": 48,
      "hit": false,
      "t": 96416.66666666677,
      "d": 800.0000000000146,
      "v": 64
    },
    {
      "midi": 55,
      "hit": false,
      "t": 97016.66666666679,
      "d": 816.6666666666715,
      "v": 31
    },
    {
      "midi": 70,
      "hit": false,
      "t": 97316.66666666679,
      "d": 200,
      "v": 50
    },
    {
      "midi": 60,
      "hit": false,
      "t": 97316.66666666679,
      "d": 350,
      "v": 64
    },
    {
      "midi": 67,
      "hit": false,
      "t": 97616.66666666679,
      "d": 66.66666666667152,
      "v": 36
    },
    {
      "midi": 77,
      "hit": false,
      "t": 97916.66666666679,
      "d": 33.33333333332848,
      "v": 12
    },
    {
      "midi": 77,
      "hit": false,
      "t": 98200.00000000012,
      "d": 83.33333333332848,
      "v": 82
    },
    {
      "midi": 89,
      "hit": false,
      "t": 98200.00000000012,
      "d": 100,
      "v": 87
    },
    {
      "midi": 41,
      "hit": false,
      "t": 98200.00000000012,
      "d": 566.6666666666715,
      "v": 60
    },
    {
      "midi": 77,
      "hit": false,
      "t": 98500.00000000012,
      "d": 66.66666666667152,
      "v": 68
    },
    {
      "midi": 89,
      "hit": false,
      "t": 98500.00000000012,
      "d": 66.66666666667152,
      "v": 82
    },
    {
      "midi": 48,
      "hit": false,
      "t": 98500.00000000012,
      "d": 250,
      "v": 30
    },
    {
      "midi": 87,
      "hit": false,
      "t": 98800.00000000012,
      "d": 66.66666666667152,
      "v": 69
    },
    {
      "midi": 75,
      "hit": false,
      "t": 98800.00000000012,
      "d": 83.33333333334303,
      "v": 68
    },
    {
      "midi": 53,
      "hit": false,
      "t": 98800.00000000012,
      "d": 233.33333333334303,
      "v": 52
    },
    {
      "midi": 89,
      "hit": false,
      "t": 99100.00000000013,
      "d": 316.6666666666715,
      "v": 62
    },
    {
      "midi": 77,
      "hit": false,
      "t": 99100.00000000013,
      "d": 383.33333333334303,
      "v": 52
    },
    {
      "midi": 53,
      "hit": false,
      "t": 99400.00000000013,
      "d": 200.00000000001455,
      "v": 42
    },
    {
      "midi": 75,
      "hit": false,
      "t": 100000.00000000015,
      "d": 83.33333333332848,
      "v": 84
    },
    {
      "midi": 87,
      "hit": false,
      "t": 100000.00000000015,
      "d": 83.33333333332848,
      "v": 82
    },
    {
      "midi": 44,
      "hit": false,
      "t": 100000.00000000015,
      "d": 1483.3333333333285,
      "v": 66
    },
    {
      "midi": 75,
      "hit": false,
      "t": 100283.33333333347,
      "d": 83.33333333332848,
      "v": 73
    },
    {
      "midi": 87,
      "hit": false,
      "t": 100283.33333333347,
      "d": 100,
      "v": 87
    },
    {
      "midi": 72,
      "hit": false,
      "t": 100583.33333333347,
      "d": 66.66666666667152,
      "v": 52
    },
    {
      "midi": 87,
      "hit": false,
      "t": 100883.33333333347,
      "d": 50,
      "v": 82
    },
    {
      "midi": 75,
      "hit": false,
      "t": 100883.33333333347,
      "d": 66.66666666667152,
      "v": 76
    },
    {
      "midi": 56,
      "hit": false,
      "t": 100883.33333333347,
      "d": 600,
      "v": 64
    },
    {
      "midi": 70,
      "hit": false,
      "t": 101483.33333333347,
      "d": 83.33333333332848,
      "v": 82
    },
    {
      "midi": 82,
      "hit": false,
      "t": 101483.33333333347,
      "d": 116.66666666665697,
      "v": 84
    },
    {
      "midi": 72,
      "hit": false,
      "t": 101783.33333333346,
      "d": 16.666666666671517,
      "v": 79
    },
    {
      "midi": 84,
      "hit": false,
      "t": 101783.33333333346,
      "d": 516.6666666666715,
      "v": 87
    },
    {
      "midi": 67,
      "hit": false,
      "t": 101783.33333333346,
      "d": 1366.6666666666715,
      "v": 69
    },
    {
      "midi": 60,
      "hit": false,
      "t": 101783.33333333346,
      "d": 1533.333333333343,
      "v": 67
    },
    {
      "midi": 72,
      "hit": false,
      "t": 103266.6666666668,
      "d": 100,
      "v": 50
    },
    {
      "midi": 67,
      "hit": false,
      "t": 103266.6666666668,
      "d": 133.33333333332848,
      "v": 47
    },
    {
      "midi": 67,
      "hit": false,
      "t": 103566.6666666668,
      "d": 216.66666666667152,
      "v": 69
    },
    {
      "midi": 72,
      "hit": false,
      "t": 103566.6666666668,
      "d": 283.33333333334303,
      "v": 87
    },
    {
      "midi": 60,
      "hit": false,
      "t": 103566.6666666668,
      "d": 1033.333333333343,
      "v": 69
    },
    {
      "midi": 67,
      "hit": false,
      "t": 104450.00000000015,
      "d": 433.3333333333285,
      "v": 63
    },
    {
      "midi": 75,
      "hit": false,
      "t": 104450.00000000015,
      "d": 550,
      "v": 87
    },
    {
      "midi": 70,
      "hit": false,
      "t": 105050.00000000015,
      "d": 50,
      "v": 20
    },
    {
      "midi": 67,
      "hit": false,
      "t": 105050.00000000015,
      "d": 116.66666666667152,
      "v": 45
    },
    {
      "midi": 67,
      "hit": false,
      "t": 105350.00000000015,
      "d": 1050,
      "v": 73
    },
    {
      "midi": 70,
      "hit": false,
      "t": 105350.00000000015,
      "d": 1050,
      "v": 87
    },
    {
      "midi": 75,
      "hit": false,
      "t": 105350.00000000015,
      "d": 1100,
      "v": 82
    },
    {
      "midi": 51,
      "hit": false,
      "t": 105350.00000000015,
      "d": 3199.9999999999854,
      "v": 69
    },
    {
      "midi": 63,
      "hit": false,
      "t": 106250.00000000015,
      "d": 699.9999999999854,
      "v": 76
    },
    {
      "midi": 67,
      "hit": false,
      "t": 106833.33333333347,
      "d": 83.33333333332848,
      "v": 36
    },
    {
      "midi": 67,
      "hit": false,
      "t": 107133.33333333346,
      "d": 800,
      "v": 71
    },
    {
      "midi": 70,
      "hit": false,
      "t": 107133.33333333346,
      "d": 833.3333333333285,
      "v": 82
    },
    {
      "midi": 63,
      "hit": false,
      "t": 107133.33333333346,
      "d": 1166.6666666666715,
      "v": 73
    },
    {
      "midi": 75,
      "hit": false,
      "t": 108033.33333333346,
      "d": 650.0000000000146,
      "v": 95
    },
    {
      "midi": 70,
      "hit": false,
      "t": 108183.33333333346,
      "d": 16.666666666671517,
      "v": 55
    },
    {
      "midi": 67,
      "hit": false,
      "t": 108616.6666666668,
      "d": 166.66666666667152,
      "v": 58
    },
    {
      "midi": 55,
      "hit": false,
      "t": 108916.6666666668,
      "d": 2800,
      "v": 67
    },
    {
      "midi": 70,
      "hit": false,
      "t": 108916.6666666668,
      "d": 2800,
      "v": 91
    },
    {
      "midi": 74,
      "hit": false,
      "t": 108916.6666666668,
      "d": 2983.3333333333285,
      "v": 84
    },
    {
      "midi": 67,
      "hit": false,
      "t": 108916.6666666668,
      "d": 3033.3333333333285,
      "v": 82
    },
    {
      "midi": 72,
      "hit": false,
      "t": 114283.33333333346,
      "d": 300,
      "v": 87
    },
    {
      "midi": 48,
      "hit": false,
      "t": 114283.33333333346,
      "d": 316.6666666666715,
      "v": 73
    },
    {
      "midi": 75,
      "hit": false,
      "t": 114283.33333333346,
      "d": 316.6666666666715,
      "v": 84
    },
    {
      "midi": 72,
      "hit": false,
      "t": 114716.6666666668,
      "d": 83.33333333332848,
      "v": 79
    },
    {
      "midi": 75,
      "hit": false,
      "t": 114716.6666666668,
      "d": 83.33333333332848,
      "v": 64
    },
    {
      "midi": 48,
      "hit": false,
      "t": 114716.6666666668,
      "d": 233.33333333332848,
      "v": 52
    },
    {
      "midi": 72,
      "hit": false,
      "t": 114866.6666666668,
      "d": 116.66666666665697,
      "v": 76
    },
    {
      "midi": 75,
      "hit": false,
      "t": 114866.6666666668,
      "d": 133.33333333332848,
      "v": 63
    },
    {
      "midi": 72,
      "hit": false,
      "t": 115166.6666666668,
      "d": 100,
      "v": 103
    },
    {
      "midi": 75,
      "hit": false,
      "t": 115166.6666666668,
      "d": 116.66666666667152,
      "v": 95
    },
    {
      "midi": 48,
      "hit": false,
      "t": 115466.6666666668,
      "d": 83.33333333332848,
      "v": 16
    },
    {
      "midi": 72,
      "hit": false,
      "t": 115466.6666666668,
      "d": 100,
      "v": 84
    },
    {
      "midi": 75,
      "hit": false,
      "t": 115466.6666666668,
      "d": 116.66666666667152,
      "v": 73
    },
    {
      "midi": 72,
      "hit": false,
      "t": 115766.6666666668,
      "d": 100,
      "v": 71
    },
    {
      "midi": 75,
      "hit": false,
      "t": 115766.6666666668,
      "d": 100,
      "v": 66
    },
    {
      "midi": 67,
      "hit": false,
      "t": 116066.6666666668,
      "d": 83.33333333332848,
      "v": 68
    },
    {
      "midi": 72,
      "hit": false,
      "t": 116066.6666666668,
      "d": 100,
      "v": 84
    },
    {
      "midi": 75,
      "hit": false,
      "t": 116066.6666666668,
      "d": 116.66666666667152,
      "v": 68
    },
    {
      "midi": 60,
      "hit": false,
      "t": 116066.6666666668,
      "d": 183.33333333334303,
      "v": 66
    },
    {
      "midi": 67,
      "hit": false,
      "t": 116366.66666666682,
      "d": 66.66666666667152,
      "v": 45
    },
    {
      "midi": 75,
      "hit": false,
      "t": 116366.66666666682,
      "d": 66.66666666667152,
      "v": 53
    },
    {
      "midi": 72,
      "hit": false,
      "t": 116366.66666666682,
      "d": 100,
      "v": 73
    },
    {
      "midi": 60,
      "hit": false,
      "t": 116366.66666666682,
      "d": 116.66666666667152,
      "v": 33
    },
    {
      "midi": 67,
      "hit": false,
      "t": 116666.66666666682,
      "d": 83.33333333332848,
      "v": 67
    },
    {
      "midi": 75,
      "hit": false,
      "t": 116666.66666666682,
      "d": 100,
      "v": 61
    },
    {
      "midi": 60,
      "hit": false,
      "t": 116666.66666666682,
      "d": 133.33333333332848,
      "v": 45
    },
    {
      "midi": 72,
      "hit": false,
      "t": 116666.66666666682,
      "d": 133.33333333332848,
      "v": 84
    },
    {
      "midi": 77,
      "hit": false,
      "t": 116950.00000000015,
      "d": 833.3333333333285,
      "v": 84
    },
    {
      "midi": 72,
      "hit": false,
      "t": 116950.00000000015,
      "d": 1083.3333333333285,
      "v": 103
    },
    {
      "midi": 53,
      "hit": false,
      "t": 116950.00000000015,
      "d": 1300,
      "v": 63
    },
    {
      "midi": 67,
      "hit": false,
      "t": 118000.00000000015,
      "d": 100,
      "v": 42
    },
    {
      "midi": 75,
      "hit": false,
      "t": 118000.00000000015,
      "d": 116.66666666667152,
      "v": 17
    },
    {
      "midi": 72,
      "hit": false,
      "t": 118300.00000000015,
      "d": 33.33333333332848,
      "v": 27
    },
    {
      "midi": 67,
      "hit": false,
      "t": 118450.00000000015,
      "d": 33.33333333332848,
      "v": 27
    },
    {
      "midi": 53,
      "hit": false,
      "t": 118450.00000000015,
      "d": 83.33333333332848,
      "v": 33
    },
    {
      "midi": 72,
      "hit": false,
      "t": 118450.00000000015,
      "d": 83.33333333332848,
      "v": 66
    },
    {
      "midi": 72,
      "hit": false,
      "t": 118750.00000000015,
      "d": 633.3333333333285,
      "v": 95
    },
    {
      "midi": 77,
      "hit": false,
      "t": 118750.00000000015,
      "d": 733.3333333333285,
      "v": 87
    },
    {
      "midi": 53,
      "hit": false,
      "t": 118750.00000000015,
      "d": 850,
      "v": 76
    },
    {
      "midi": 74,
      "hit": false,
      "t": 119333.33333333347,
      "d": 750,
      "v": 22
    },
    {
      "midi": 67,
      "hit": false,
      "t": 119633.33333333347,
      "d": 350,
      "v": 66
    },
    {
      "midi": 70,
      "hit": false,
      "t": 119633.33333333347,
      "d": 383.3333333333285,
      "v": 71
    },
    {
      "midi": 55,
      "hit": false,
      "t": 119633.33333333347,
      "d": 2566.666666666657,
      "v": 69
    },
    {
      "midi": 70,
      "hit": false,
      "t": 120533.33333333347,
      "d": 783.3333333333285,
      "v": 84
    },
    {
      "midi": 74,
      "hit": false,
      "t": 120533.33333333347,
      "d": 783.3333333333285,
      "v": 82
    },
    {
      "midi": 74,
      "hit": false,
      "t": 121416.6666666668,
      "d": 500,
      "v": 84
    },
    {
      "midi": 70,
      "hit": false,
      "t": 121416.6666666668,
      "d": 666.6666666666715,
      "v": 84
    },
    {
      "midi": 67,
      "hit": false,
      "t": 121416.6666666668,
      "d": 700,
      "v": 82
    },
    {
      "midi": 72,
      "hit": false,
      "t": 122316.6666666668,
      "d": 1650,
      "v": 68
    },
    {
      "midi": 75,
      "hit": false,
      "t": 122316.6666666668,
      "d": 1666.6666666666715,
      "v": 71
    },
    {
      "midi": 67,
      "hit": false,
      "t": 122316.6666666668,
      "d": 1683.333333333343,
      "v": 71
    },
    {
      "midi": 48,
      "hit": false,
      "t": 122316.6666666668,
      "d": 1700.0000000000146,
      "v": 64
    },
    {
      "midi": 72,
      "hit": false,
      "t": 124100.00000000015,
      "d": 1350,
      "v": 84
    },
    {
      "midi": 77,
      "hit": false,
      "t": 124100.00000000015,
      "d": 1350,
      "v": 79
    },
    {
      "midi": 53,
      "hit": false,
      "t": 124100.00000000015,
      "d": 1500,
      "v": 66
    },
    {
      "midi": 77,
      "hit": false,
      "t": 125883.33333333347,
      "d": 583.3333333333285,
      "v": 66
    },
    {
      "midi": 72,
      "hit": false,
      "t": 125883.33333333347,
      "d": 616.666666666657,
      "v": 76
    },
    {
      "midi": 67,
      "hit": false,
      "t": 125883.33333333347,
      "d": 833.3333333333285,
      "v": 64
    },
    {
      "midi": 53,
      "hit": false,
      "t": 125883.33333333347,
      "d": 850,
      "v": 68
    },
    {
      "midi": 67,
      "hit": false,
      "t": 126783.33333333347,
      "d": 500,
      "v": 64
    },
    {
      "midi": 70,
      "hit": false,
      "t": 126783.33333333347,
      "d": 533.3333333333285,
      "v": 73
    },
    {
      "midi": 74,
      "hit": false,
      "t": 126783.33333333347,
      "d": 550,
      "v": 73
    },
    {
      "midi": 55,
      "hit": false,
      "t": 126783.33333333347,
      "d": 1666.666666666657,
      "v": 68
    },
    {
      "midi": 70,
      "hit": false,
      "t": 127666.6666666668,
      "d": 733.3333333333285,
      "v": 79
    },
    {
      "midi": 74,
      "hit": false,
      "t": 127666.6666666668,
      "d": 750,
      "v": 76
    },
    {
      "midi": 67,
      "hit": false,
      "t": 128566.6666666668,
      "d": 100,
      "v": 60
    },
    {
      "midi": 74,
      "hit": false,
      "t": 128566.6666666668,
      "d": 483.3333333333285,
      "v": 79
    },
    {
      "midi": 70,
      "hit": false,
      "t": 128566.6666666668,
      "d": 500,
      "v": 84
    },
    {
      "midi": 55,
      "hit": false,
      "t": 128716.6666666668,
      "d": 666.6666666666715,
      "v": 69
    },
    {
      "midi": 67,
      "hit": false,
      "t": 129016.6666666668,
      "d": 66.66666666667152,
      "v": 6
    },
    {
      "midi": 48,
      "hit": false,
      "t": 129450.00000000015,
      "d": 900,
      "v": 63
    },
    {
      "midi": 67,
      "hit": false,
      "t": 129450.00000000015,
      "d": 900,
      "v": 64
    },
    {
      "midi": 72,
      "hit": false,
      "t": 129450.00000000015,
      "d": 1433.3333333333285,
      "v": 67
    },
    {
      "midi": 67,
      "hit": false,
      "t": 130350.00000000015,
      "d": 266.6666666666715,
      "v": 56
    },
    {
      "midi": 63,
      "hit": false,
      "t": 130350.00000000015,
      "d": 1200,
      "v": 52
    },
    {
      "midi": 48,
      "hit": false,
      "t": 130350.00000000015,
      "d": 1466.666666666657,
      "v": 58
    },
    {
      "midi": 58,
      "hit": false,
      "t": 132133.33333333346,
      "d": 900,
      "v": 45
    },
    {
      "midi": 63,
      "hit": false,
      "t": 132133.33333333346,
      "d": 983.333333333343,
      "v": 50
    },
    {
      "midi": 67,
      "hit": false,
      "t": 132133.33333333346,
      "d": 1066.666666666686,
      "v": 47
    },
    {
      "midi": 51,
      "hit": false,
      "t": 132133.33333333346,
      "d": 1116.666666666686,
      "v": 55
    },
    {
      "midi": 65,
      "hit": false,
      "t": 133916.6666666668,
      "d": 1316.666666666657,
      "v": 57
    },
    {
      "midi": 74,
      "hit": false,
      "t": 133916.6666666668,
      "d": 1383.333333333314,
      "v": 60
    },
    {
      "midi": 70,
      "hit": false,
      "t": 133916.6666666668,
      "d": 1549.999999999971,
      "v": 56
    },
    {
      "midi": 58,
      "hit": false,
      "t": 133916.6666666668,
      "d": 1749.999999999971,
      "v": 52
    },
    {
      "midi": 51,
      "hit": false,
      "t": 135700.00000000012,
      "d": 1100,
      "v": 53
    },
    {
      "midi": 63,
      "hit": false,
      "t": 135700.00000000012,
      "d": 1200,
      "v": 52
    },
    {
      "midi": 70,
      "hit": false,
      "t": 135700.00000000012,
      "d": 1516.666666666657,
      "v": 55
    },
    {
      "midi": 67,
      "hit": false,
      "t": 135700.00000000012,
      "d": 1650,
      "v": 63
    },
    {
      "midi": 68,
      "hit": false,
      "t": 137483.33333333346,
      "d": 1400,
      "v": 47
    },
    {
      "midi": 72,
      "hit": false,
      "t": 137483.33333333346,
      "d": 1483.333333333343,
      "v": 56
    },
    {
      "midi": 65,
      "hit": false,
      "t": 137483.33333333346,
      "d": 1516.666666666686,
      "v": 53
    },
    {
      "midi": 53,
      "hit": false,
      "t": 137483.33333333346,
      "d": 1616.666666666686,
      "v": 56
    },
    {
      "midi": 65,
      "hit": false,
      "t": 139283.3333333335,
      "d": 1366.666666666686,
      "v": 57
    },
    {
      "midi": 74,
      "hit": false,
      "t": 139283.3333333335,
      "d": 1583.333333333343,
      "v": 61
    },
    {
      "midi": 58,
      "hit": false,
      "t": 139283.3333333335,
      "d": 1733.333333333343,
      "v": 56
    },
    {
      "midi": 70,
      "hit": false,
      "t": 139283.3333333335,
      "d": 1750,
      "v": 52
    },
    {
      "midi": 68,
      "hit": false,
      "t": 141066.66666666683,
      "d": 916.6666666666861,
      "v": 48
    },
    {
      "midi": 72,
      "hit": false,
      "t": 141066.66666666683,
      "d": 933.333333333343,
      "v": 50
    },
    {
      "midi": 65,
      "hit": false,
      "t": 141066.66666666683,
      "d": 950,
      "v": 48
    },
    {
      "midi": 53,
      "hit": false,
      "t": 141066.66666666683,
      "d": 1400,
      "v": 51
    },
    {
      "midi": 63,
      "hit": false,
      "t": 142850.00000000017,
      "d": 816.666666666657,
      "v": 43
    },
    {
      "midi": 67,
      "hit": false,
      "t": 142850.00000000017,
      "d": 883.3333333333139,
      "v": 53
    },
    {
      "midi": 60,
      "hit": false,
      "t": 142850.00000000017,
      "d": 1016.666666666657,
      "v": 60
    },
    {
      "midi": 67,
      "hit": false,
      "t": 143733.3333333335,
      "d": 100,
      "v": 4
    },
    {
      "midi": 72,
      "hit": false,
      "t": 143733.3333333335,
      "d": 350,
      "v": 6
    },
    {
      "midi": 67,
      "hit": false,
      "t": 144633.3333333335,
      "d": 266.66666666665697,
      "v": 58
    },
    {
      "midi": 75,
      "hit": false,
      "t": 144633.3333333335,
      "d": 316.66666666665697,
      "v": 67
    },
    {
      "midi": 48,
      "hit": false,
      "t": 144633.3333333335,
      "d": 516.666666666657,
      "v": 66
    },
    {
      "midi": 55,
      "hit": false,
      "t": 144933.3333333335,
      "d": 633.333333333343,
      "v": 57
    },
    {
      "midi": 60,
      "hit": false,
      "t": 145533.3333333335,
      "d": 450,
      "v": 52
    },
    {
      "midi": 79,
      "hit": false,
      "t": 145533.3333333335,
      "d": 616.6666666666861,
      "v": 82
    },
    {
      "midi": 75,
      "hit": false,
      "t": 146116.66666666683,
      "d": 250,
      "v": 38
    },
    {
      "midi": 51,
      "hit": false,
      "t": 146416.66666666683,
      "d": 1400,
      "v": 71
    },
    {
      "midi": 67,
      "hit": false,
      "t": 146716.66666666683,
      "d": 150,
      "v": 52
    },
    {
      "midi": 70,
      "hit": false,
      "t": 147016.66666666683,
      "d": 83.33333333334303,
      "v": 64
    },
    {
      "midi": 75,
      "hit": false,
      "t": 147316.66666666683,
      "d": 666.666666666657,
      "v": 87
    },
    {
      "midi": 70,
      "hit": false,
      "t": 147316.66666666683,
      "d": 816.666666666657,
      "v": 87
    },
    {
      "midi": 70,
      "hit": false,
      "t": 148200.00000000015,
      "d": 416.66666666665697,
      "v": 71
    },
    {
      "midi": 74,
      "hit": false,
      "t": 148200.00000000015,
      "d": 450,
      "v": 67
    },
    {
      "midi": 58,
      "hit": false,
      "t": 148200.00000000015,
      "d": 1466.666666666686,
      "v": 62
    },
    {
      "midi": 62,
      "hit": false,
      "t": 149100.00000000015,
      "d": 566.6666666666861,
      "v": 56
    },
    {
      "midi": 70,
      "hit": false,
      "t": 149400.00000000015,
      "d": 233.33333333334303,
      "v": 79
    },
    {
      "midi": 77,
      "hit": false,
      "t": 149400.00000000015,
      "d": 283.33333333334303,
      "v": 79
    },
    {
      "midi": 75,
      "hit": false,
      "t": 149700.00000000015,
      "d": 233.33333333334303,
      "v": 52
    },
    {
      "midi": 70,
      "hit": false,
      "t": 149700.00000000015,
      "d": 283.33333333334303,
      "v": 42
    },
    {
      "midi": 51,
      "hit": false,
      "t": 149983.3333333335,
      "d": 1000,
      "v": 57
    },
    {
      "midi": 67,
      "hit": false,
      "t": 149983.3333333335,
      "d": 1100,
      "v": 67
    },
    {
      "midi": 70,
      "hit": false,
      "t": 149983.3333333335,
      "d": 1116.666666666657,
      "v": 57
    },
    {
      "midi": 75,
      "hit": false,
      "t": 149983.3333333335,
      "d": 1633.333333333343,
      "v": 67
    },
    {
      "midi": 63,
      "hit": false,
      "t": 150583.3333333335,
      "d": 133.33333333334303,
      "v": 24
    },
    {
      "midi": 63,
      "hit": false,
      "t": 150883.3333333335,
      "d": 366.66666666665697,
      "v": 67
    },
    {
      "midi": 67,
      "hit": false,
      "t": 151183.3333333335,
      "d": 200,
      "v": 42
    },
    {
      "midi": 68,
      "hit": false,
      "t": 151783.3333333335,
      "d": 283.33333333334303,
      "v": 66
    },
    {
      "midi": 72,
      "hit": false,
      "t": 151783.3333333335,
      "d": 333.33333333334303,
      "v": 73
    },
    {
      "midi": 53,
      "hit": false,
      "t": 151783.3333333335,
      "d": 1200,
      "v": 66
    },
    {
      "midi": 60,
      "hit": false,
      "t": 152366.66666666683,
      "d": 1016.666666666657,
      "v": 30
    },
    {
      "midi": 80,
      "hit": false,
      "t": 152666.66666666683,
      "d": 783.3333333333139,
      "v": 79
    },
    {
      "midi": 77,
      "hit": false,
      "t": 152966.66666666683,
      "d": 466.66666666665697,
      "v": 43
    },
    {
      "midi": 72,
      "hit": false,
      "t": 153266.66666666683,
      "d": 116.66666666665697,
      "v": 24
    },
    {
      "midi": 77,
      "hit": false,
      "t": 153566.6666666668,
      "d": 300,
      "v": 66
    },
    {
      "midi": 74,
      "hit": false,
      "t": 153566.6666666668,
      "d": 350,
      "v": 64
    },
    {
      "midi": 58,
      "hit": false,
      "t": 153566.6666666668,
      "d": 1400.000000000029,
      "v": 58
    },
    {
      "midi": 70,
      "hit": false,
      "t": 154450.00000000015,
      "d": 383.33333333334303,
      "v": 64
    },
    {
      "midi": 74,
      "hit": false,
      "t": 154450.00000000015,
      "d": 416.66666666668607,
      "v": 69
    },
    {
      "midi": 62,
      "hit": false,
      "t": 154450.00000000015,
      "d": 666.6666666666861,
      "v": 57
    },
    {
      "midi": 67,
      "hit": false,
      "t": 155050.00000000017,
      "d": 66.66666666665697,
      "v": 24
    },
    {
      "midi": 55,
      "hit": false,
      "t": 155350.00000000017,
      "d": 816.666666666657,
      "v": 73
    },
    {
      "midi": 67,
      "hit": false,
      "t": 155350.00000000017,
      "d": 999.9999999999709,
      "v": 76
    },
    {
      "midi": 71,
      "hit": false,
      "t": 155350.00000000017,
      "d": 1016.6666666666279,
      "v": 87
    },
    {
      "midi": 79,
      "hit": false,
      "t": 155350.00000000017,
      "d": 1049.999999999971,
      "v": 91
    },
    {
      "midi": 62,
      "hit": false,
      "t": 156233.3333333335,
      "d": 833.333333333343,
      "v": 73
    },
    {
      "midi": 74,
      "hit": false,
      "t": 156533.3333333335,
      "d": 450,
      "v": 69
    },
    {
      "midi": 79,
      "hit": false,
      "t": 156533.3333333335,
      "d": 450,
      "v": 71
    },
    {
      "midi": 67,
      "hit": false,
      "t": 156833.3333333335,
      "d": 150,
      "v": 55
    },
    {
      "midi": 67,
      "hit": false,
      "t": 157133.3333333335,
      "d": 83.33333333334303,
      "v": 82
    },
    {
      "midi": 74,
      "hit": false,
      "t": 157133.3333333335,
      "d": 116.66666666668607,
      "v": 79
    },
    {
      "midi": 79,
      "hit": false,
      "t": 157133.3333333335,
      "d": 133.33333333334303,
      "v": 76
    },
    {
      "midi": 55,
      "hit": false,
      "t": 157133.3333333335,
      "d": 150,
      "v": 69
    },
    {
      "midi": 67,
      "hit": false,
      "t": 157433.3333333335,
      "d": 83.33333333334303,
      "v": 71
    },
    {
      "midi": 74,
      "hit": false,
      "t": 157433.3333333335,
      "d": 100,
      "v": 69
    },
    {
      "midi": 55,
      "hit": false,
      "t": 157433.3333333335,
      "d": 116.66666666665697,
      "v": 61
    },
    {
      "midi": 79,
      "hit": false,
      "t": 157433.3333333335,
      "d": 116.66666666665697,
      "v": 64
    },
    {
      "midi": 67,
      "hit": false,
      "t": 157733.3333333335,
      "d": 83.33333333334303,
      "v": 79
    },
    {
      "midi": 74,
      "hit": false,
      "t": 157733.3333333335,
      "d": 100,
      "v": 71
    },
    {
      "midi": 55,
      "hit": false,
      "t": 157733.3333333335,
      "d": 116.66666666665697,
      "v": 71
    },
    {
      "midi": 79,
      "hit": false,
      "t": 157733.3333333335,
      "d": 116.66666666665697,
      "v": 71
    },
    {
      "midi": 67,
      "hit": false,
      "t": 158033.3333333335,
      "d": 616.666666666657,
      "v": 91
    },
    {
      "midi": 79,
      "hit": false,
      "t": 158033.3333333335,
      "d": 616.666666666657,
      "v": 84
    },
    {
      "midi": 55,
      "hit": false,
      "t": 158033.3333333335,
      "d": 683.3333333333139,
      "v": 84
    },
    {
      "midi": 74,
      "hit": false,
      "t": 158033.3333333335,
      "d": 683.3333333333139,
      "v": 84
    },
    {
      "midi": 67,
      "hit": false,
      "t": 158916.6666666668,
      "d": 100,
      "v": 76
    },
    {
      "midi": 74,
      "hit": false,
      "t": 158916.6666666668,
      "d": 116.66666666665697,
      "v": 82
    },
    {
      "midi": 79,
      "hit": false,
      "t": 158916.6666666668,
      "d": 116.66666666665697,
      "v": 79
    },
    {
      "midi": 55,
      "hit": false,
      "t": 158916.6666666668,
      "d": 133.33333333331393,
      "v": 76
    },
    {
      "midi": 67,
      "hit": false,
      "t": 159216.66666666677,
      "d": 83.33333333334303,
      "v": 82
    },
    {
      "midi": 74,
      "hit": false,
      "t": 159216.66666666677,
      "d": 100,
      "v": 76
    },
    {
      "midi": 79,
      "hit": false,
      "t": 159216.66666666677,
      "d": 100,
      "v": 82
    },
    {
      "midi": 55,
      "hit": false,
      "t": 159216.66666666677,
      "d": 133.33333333334303,
      "v": 79
    },
    {
      "midi": 67,
      "hit": false,
      "t": 159516.66666666677,
      "d": 100,
      "v": 76
    },
    {
      "midi": 74,
      "hit": false,
      "t": 159516.66666666677,
      "d": 116.66666666665697,
      "v": 82
    },
    {
      "midi": 79,
      "hit": false,
      "t": 159516.66666666677,
      "d": 116.66666666665697,
      "v": 73
    },
    {
      "midi": 55,
      "hit": false,
      "t": 159516.66666666677,
      "d": 150,
      "v": 76
    },
    {
      "midi": 55,
      "hit": false,
      "t": 159816.66666666677,
      "d": 350,
      "v": 82
    },
    {
      "midi": 74,
      "hit": false,
      "t": 159816.66666666677,
      "d": 616.666666666657,
      "v": 87
    },
    {
      "midi": 79,
      "hit": false,
      "t": 159816.66666666677,
      "d": 650,
      "v": 87
    },
    {
      "midi": 67,
      "hit": false,
      "t": 159816.66666666677,
      "d": 683.333333333343,
      "v": 84
    },
    {
      "midi": 48,
      "hit": false,
      "t": 160800.00000000012,
      "d": 666.666666666657,
      "v": 87
    },
    {
      "midi": 55,
      "hit": false,
      "t": 161066.66666666677,
      "d": 450,
      "v": 68
    },
    {
      "midi": 60,
      "hit": false,
      "t": 161333.33333333343,
      "d": 433.33333333334303,
      "v": 82
    },
    {
      "midi": 79,
      "hit": false,
      "t": 161616.66666666677,
      "d": 383.33333333331393,
      "v": 91
    },
    {
      "midi": 75,
      "hit": false,
      "t": 161883.33333333343,
      "d": 533.333333333343,
      "v": 87
    },
    {
      "midi": 72,
      "hit": false,
      "t": 162133.33333333343,
      "d": 283.33333333334303,
      "v": 82
    },
    {
      "midi": 68,
      "hit": false,
      "t": 162466.66666666677,
      "d": 383.33333333334303,
      "v": 91
    },
    {
      "midi": 56,
      "hit": false,
      "t": 162466.66666666677,
      "d": 1566.666666666686,
      "v": 82
    },
    {
      "midi": 72,
      "hit": false,
      "t": 162500.00000000012,
      "d": 33.333333333343035,
      "v": 58
    },
    {
      "midi": 72,
      "hit": false,
      "t": 162766.66666666677,
      "d": 233.33333333334303,
      "v": 67
    },
    {
      "midi": 60,
      "hit": false,
      "t": 162766.66666666677,
      "d": 1350,
      "v": 60
    },
    {
      "midi": 75,
      "hit": false,
      "t": 163033.33333333346,
      "d": 1249.999999999971,
      "v": 62
    },
    {
      "midi": 72,
      "hit": false,
      "t": 163066.6666666668,
      "d": 166.66666666665697,
      "v": 22
    },
    {
      "midi": 63,
      "hit": false,
      "t": 163416.6666666668,
      "d": 550,
      "v": 66
    },
    {
      "midi": 68,
      "hit": false,
      "t": 163950.00000000015,
      "d": 333.3333333332848,
      "v": 73
    },
    {
      "midi": 58,
      "hit": false,
      "t": 164116.66666666677,
      "d": 16.666666666656965,
      "v": 14
    },
    {
      "midi": 58,
      "hit": false,
      "t": 164266.66666666677,
      "d": 983.3333333332848,
      "v": 82
    },
    {
      "midi": 65,
      "hit": false,
      "t": 164550.0000000001,
      "d": 233.33333333331393,
      "v": 52
    },
    {
      "midi": 62,
      "hit": false,
      "t": 164566.66666666674,
      "d": 699.9999999999709,
      "v": 47
    },
    {
      "midi": 70,
      "hit": false,
      "t": 164833.3333333334,
      "d": 166.66666666665697,
      "v": 68
    },
    {
      "midi": 74,
      "hit": false,
      "t": 165150.00000000006,
      "d": 466.66666666665697,
      "v": 99
    },
    {
      "midi": 70,
      "hit": false,
      "t": 165450.00000000006,
      "d": 266.66666666665697,
      "v": 69
    },
    {
      "midi": 67,
      "hit": false,
      "t": 165733.33333333337,
      "d": 216.66666666665697,
      "v": 66
    },
    {
      "midi": 51,
      "hit": false,
      "t": 166050.00000000003,
      "d": 1216.6666666666279,
      "v": 76
    },
    {
      "midi": 70,
      "hit": false,
      "t": 166066.6666666667,
      "d": 116.66666666665697,
      "v": 84
    },
    {
      "midi": 75,
      "hit": false,
      "t": 166083.33333333334,
      "d": 166.66666666665697,
      "v": 91
    },
    {
      "midi": 58,
      "hit": false,
      "t": 166366.66666666666,
      "d": 883.333333333343,
      "v": 62
    },
    {
      "midi": 75,
      "hit": false,
      "t": 166700,
      "d": 83.33333333334303,
      "v": 38
    },
    {
      "midi": 87,
      "hit": false,
      "t": 166966.6666666667,
      "d": 166.66666666665697,
      "v": 82
    },
    {
      "midi": 75,
      "hit": false,
      "t": 166983.33333333334,
      "d": 66.66666666665697,
      "v": 87
    },
    {
      "midi": 63,
      "hit": false,
      "t": 166983.33333333334,
      "d": 433.33333333331393,
      "v": 64
    },
    {
      "midi": 75,
      "hit": false,
      "t": 167250,
      "d": 100,
      "v": 47
    },
    {
      "midi": 82,
      "hit": false,
      "t": 167266.66666666666,
      "d": 466.66666666665697,
      "v": 69
    },
    {
      "midi": 75,
      "hit": false,
      "t": 167550,
      "d": 199.9999999999709,
      "v": 82
    },
    {
      "midi": 75,
      "hit": false,
      "t": 167833.3333333333,
      "d": 199.9999999999709,
      "v": 69
    },
    {
      "midi": 79,
      "hit": false,
      "t": 167833.3333333333,
      "d": 483.33333333331393,
      "v": 79
    },
    {
      "midi": 60,
      "hit": false,
      "t": 167849.99999999997,
      "d": 1299.999999999971,
      "v": 67
    },
    {
      "midi": 75,
      "hit": false,
      "t": 168116.66666666663,
      "d": 116.66666666665697,
      "v": 23
    },
    {
      "midi": 84,
      "hit": false,
      "t": 168433.33333333328,
      "d": 600,
      "v": 84
    },
    {
      "midi": 79,
      "hit": false,
      "t": 168433.33333333328,
      "d": 700,
      "v": 87
    },
    {
      "midi": 63,
      "hit": false,
      "t": 168783.33333333328,
      "d": 500,
      "v": 67
    },
    {
      "midi": 75,
      "hit": false,
      "t": 169049.99999999994,
      "d": 300.0000000000291,
      "v": 84
    },
    {
      "midi": 79,
      "hit": false,
      "t": 169316.66666666663,
      "d": 233.33333333334303,
      "v": 69
    },
    {
      "midi": 84,
      "hit": false,
      "t": 169633.3333333333,
      "d": 316.66666666665697,
      "v": 95
    },
    {
      "midi": 56,
      "hit": false,
      "t": 169633.3333333333,
      "d": 1383.333333333343,
      "v": 76
    },
    {
      "midi": 80,
      "hit": false,
      "t": 169933.3333333333,
      "d": 216.66666666665697,
      "v": 73
    },
    {
      "midi": 63,
      "hit": false,
      "t": 169933.3333333333,
      "d": 1083.333333333343,
      "v": 58
    },
    {
      "midi": 75,
      "hit": false,
      "t": 170233.3333333333,
      "d": 550,
      "v": 76
    },
    {
      "midi": 72,
      "hit": false,
      "t": 170816.66666666666,
      "d": 416.66666666665697,
      "v": 64
    },
    {
      "midi": 75,
      "hit": false,
      "t": 171116.66666666666,
      "d": 233.33333333331393,
      "v": 76
    },
    {
      "midi": 77,
      "hit": false,
      "t": 171416.66666666663,
      "d": 166.66666666665697,
      "v": 84
    },
    {
      "midi": 58,
      "hit": false,
      "t": 171416.66666666663,
      "d": 1083.333333333314,
      "v": 69
    },
    {
      "midi": 70,
      "hit": false,
      "t": 171716.66666666663,
      "d": 50,
      "v": 21
    },
    {
      "midi": 65,
      "hit": false,
      "t": 172016.66666666663,
      "d": 133.33333333334303,
      "v": 60
    },
    {
      "midi": 62,
      "hit": false,
      "t": 172316.66666666663,
      "d": 166.66666666665697,
      "v": 62
    },
    {
      "midi": 74,
      "hit": false,
      "t": 172316.66666666663,
      "d": 516.666666666657,
      "v": 87
    },
    {
      "midi": 70,
      "hit": false,
      "t": 172599.99999999994,
      "d": 250,
      "v": 61
    },
    {
      "midi": 67,
      "hit": false,
      "t": 172899.99999999994,
      "d": 133.33333333334303,
      "v": 41
    },
    {
      "midi": 48,
      "hit": false,
      "t": 173199.99999999994,
      "d": 1716.666666666657,
      "v": 79
    },
    {
      "midi": 67,
      "hit": false,
      "t": 173216.6666666666,
      "d": 83.33333333331393,
      "v": 79
    },
    {
      "midi": 72,
      "hit": false,
      "t": 173216.6666666666,
      "d": 133.33333333331393,
      "v": 87
    },
    {
      "midi": 72,
      "hit": false,
      "t": 173499.9999999999,
      "d": 100,
      "v": 57
    },
    {
      "midi": 55,
      "hit": false,
      "t": 173533.33333333326,
      "d": 1416.666666666686,
      "v": 56
    },
    {
      "midi": 75,
      "hit": false,
      "t": 173583.33333333326,
      "d": 66.66666666665697,
      "v": 33
    },
    {
      "midi": 72,
      "hit": false,
      "t": 173699.9999999999,
      "d": 133.33333333334303,
      "v": 69
    },
    {
      "midi": 75,
      "hit": false,
      "t": 173749.9999999999,
      "d": 116.66666666668607,
      "v": 61
    },
    {
      "midi": 79,
      "hit": false,
      "t": 173866.6666666666,
      "d": 66.66666666665697,
      "v": 79
    },
    {
      "midi": 60,
      "hit": false,
      "t": 173933.33333333326,
      "d": 833.333333333343,
      "v": 6
    },
    {
      "midi": 84,
      "hit": false,
      "t": 174016.6666666666,
      "d": 216.66666666665697,
      "v": 73
    },
    {
      "midi": 87,
      "hit": false,
      "t": 174133.33333333326,
      "d": 133.33333333334303,
      "v": 58
    },
    {
      "midi": 91,
      "hit": false,
      "t": 174266.6666666666,
      "d": 83.33333333334303,
      "v": 56
    },
    {
      "midi": 96,
      "hit": false,
      "t": 174299.99999999994,
      "d": 216.66666666665697,
      "v": 73
    },
    {
      "midi": 48,
      "hit": false,
      "t": 175033.33333333328,
      "d": 1066.666666666657,
      "v": 82
    },
    {
      "midi": 55,
      "hit": false,
      "t": 175333.33333333328,
      "d": 866.666666666657,
      "v": 55
    },
    {
      "midi": 60,
      "hit": false,
      "t": 175599.99999999994,
      "d": 833.333333333343,
      "v": 64
    },
    {
      "midi": 72,
      "hit": false,
      "t": 175916.6666666666,
      "d": 583.333333333343,
      "v": 82
    },
    {
      "midi": 67,
      "hit": false,
      "t": 175916.6666666666,
      "d": 766.666666666657,
      "v": 87
    },
    {
      "midi": 68,
      "hit": false,
      "t": 176766.6666666666,
      "d": 200,
      "v": 82
    },
    {
      "midi": 72,
      "hit": false,
      "t": 176766.6666666666,
      "d": 233.33333333334303,
      "v": 76
    },
    {
      "midi": 56,
      "hit": false,
      "t": 176766.6666666666,
      "d": 1466.666666666657,
      "v": 67
    },
    {
      "midi": 60,
      "hit": false,
      "t": 177066.6666666666,
      "d": 1216.666666666657,
      "v": 62
    },
    {
      "midi": 80,
      "hit": false,
      "t": 177399.99999999994,
      "d": 683.3333333333139,
      "v": 71
    },
    {
      "midi": 75,
      "hit": false,
      "t": 177399.99999999994,
      "d": 999.9999999999709,
      "v": 58
    },
    {
      "midi": 72,
      "hit": false,
      "t": 177399.99999999994,
      "d": 1133.333333333314,
      "v": 63
    },
    {
      "midi": 63,
      "hit": false,
      "t": 177816.6666666666,
      "d": 333.33333333331393,
      "v": 55
    },
    {
      "midi": 68,
      "hit": false,
      "t": 178033.33333333326,
      "d": 300,
      "v": 71
    },
    {
      "midi": 58,
      "hit": false,
      "t": 178399.9999999999,
      "d": 50,
      "v": 9
    },
    {
      "midi": 58,
      "hit": false,
      "t": 178566.6666666666,
      "d": 950,
      "v": 84
    },
    {
      "midi": 62,
      "hit": false,
      "t": 178833.33333333326,
      "d": 783.333333333343,
      "v": 66
    },
    {
      "midi": 65,
      "hit": false,
      "t": 179133.33333333326,
      "d": 200,
      "v": 67
    },
    {
      "midi": 74,
      "hit": false,
      "t": 179449.9999999999,
      "d": 533.333333333343,
      "v": 95
    },
    {
      "midi": 65,
      "hit": false,
      "t": 179483.33333333326,
      "d": 50,
      "v": 55
    },
    {
      "midi": 70,
      "hit": false,
      "t": 179716.6666666666,
      "d": 300,
      "v": 58
    },
    {
      "midi": 65,
      "hit": false,
      "t": 180016.6666666666,
      "d": 233.33333333331393,
      "v": 64
    },
    {
      "midi": 51,
      "hit": false,
      "t": 180349.9999999999,
      "d": 1516.6666666666279,
      "v": 79
    },
    {
      "midi": 70,
      "hit": false,
      "t": 180366.66666666657,
      "d": 216.66666666665697,
      "v": 76
    },
    {
      "midi": 67,
      "hit": false,
      "t": 180366.66666666657,
      "d": 250,
      "v": 84
    },
    {
      "midi": 63,
      "hit": false,
      "t": 180649.9999999999,
      "d": 183.33333333334303,
      "v": 71
    },
    {
      "midi": 58,
      "hit": false,
      "t": 180699.9999999999,
      "d": 1183.3333333332848,
      "v": 50
    },
    {
      "midi": 67,
      "hit": false,
      "t": 180783.33333333326,
      "d": 100,
      "v": 64
    },
    {
      "midi": 70,
      "hit": false,
      "t": 180866.6666666666,
      "d": 83.33333333331393,
      "v": 64
    },
    {
      "midi": 75,
      "hit": false,
      "t": 181049.9999999999,
      "d": 166.66666666665697,
      "v": 71
    },
    {
      "midi": 80,
      "hit": false,
      "t": 181149.9999999999,
      "d": 33.33333333331393,
      "v": 35
    },
    {
      "midi": 79,
      "hit": false,
      "t": 181166.66666666657,
      "d": 183.33333333331393,
      "v": 58
    },
    {
      "midi": 82,
      "hit": false,
      "t": 181283.33333333323,
      "d": 833.3333333333139,
      "v": 56
    },
    {
      "midi": 87,
      "hit": false,
      "t": 181349.99999999988,
      "d": 450,
      "v": 87
    },
    {
      "midi": 79,
      "hit": false,
      "t": 181849.99999999988,
      "d": 333.33333333331393,
      "v": 66
    },
    {
      "midi": 60,
      "hit": false,
      "t": 182133.3333333332,
      "d": 1633.333333333343,
      "v": 73
    },
    {
      "midi": 75,
      "hit": false,
      "t": 182733.3333333332,
      "d": 533.333333333343,
      "v": 67
    },
    {
      "midi": 72,
      "hit": false,
      "t": 182733.3333333332,
      "d": 566.6666666666861,
      "v": 71
    },
    {
      "midi": 79,
      "hit": false,
      "t": 183316.66666666654,
      "d": 550,
      "v": 73
    },
    {
      "midi": 75,
      "hit": false,
      "t": 183616.66666666654,
      "d": 450,
      "v": 64
    },
    {
      "midi": 56,
      "hit": false,
      "t": 183916.66666666654,
      "d": 1666.666666666657,
      "v": 87
    },
    {
      "midi": 68,
      "hit": false,
      "t": 184216.66666666654,
      "d": 300,
      "v": 52
    },
    {
      "midi": 72,
      "hit": false,
      "t": 184516.66666666654,
      "d": 150,
      "v": 42
    },
    {
      "midi": 72,
      "hit": false,
      "t": 184816.66666666654,
      "d": 66.66666666665697,
      "v": 55
    },
    {
      "midi": 80,
      "hit": false,
      "t": 184816.66666666654,
      "d": 549.9999999999709,
      "v": 82
    },
    {
      "midi": 75,
      "hit": false,
      "t": 184816.66666666654,
      "d": 816.666666666657,
      "v": 68
    },
    {
      "midi": 72,
      "hit": false,
      "t": 185099.99999999985,
      "d": 166.66666666665697,
      "v": 41
    },
    {
      "midi": 72,
      "hit": false,
      "t": 185399.99999999985,
      "d": 66.66666666665697,
      "v": 31
    },
    {
      "midi": 68,
      "hit": false,
      "t": 185399.99999999985,
      "d": 216.66666666668607,
      "v": 56
    },
    {
      "midi": 58,
      "hit": false,
      "t": 185699.99999999985,
      "d": 1183.333333333343,
      "v": 79
    },
    {
      "midi": 62,
      "hit": false,
      "t": 185999.99999999985,
      "d": 883.333333333343,
      "v": 57
    },
    {
      "midi": 65,
      "hit": false,
      "t": 186299.99999999985,
      "d": 133.33333333334303,
      "v": 55
    },
    {
      "midi": 77,
      "hit": false,
      "t": 186599.99999999985,
      "d": 500,
      "v": 84
    },
    {
      "midi": 70,
      "hit": false,
      "t": 186599.99999999985,
      "d": 683.333333333343,
      "v": 82
    },
    {
      "midi": 65,
      "hit": false,
      "t": 186899.99999999985,
      "d": 233.33333333334303,
      "v": 63
    },
    {
      "midi": 75,
      "hit": false,
      "t": 187183.3333333332,
      "d": 116.66666666665697,
      "v": 38
    },
    {
      "midi": 69,
      "hit": false,
      "t": 187483.3333333332,
      "d": 50,
      "v": 62
    },
    {
      "midi": 75,
      "hit": false,
      "t": 187483.3333333332,
      "d": 416.66666666665697,
      "v": 79
    },
    {
      "midi": 67,
      "hit": false,
      "t": 187483.3333333332,
      "d": 466.66666666665697,
      "v": 56
    },
    {
      "midi": 48,
      "hit": false,
      "t": 187483.3333333332,
      "d": 1333.333333333343,
      "v": 79
    },
    {
      "midi": 55,
      "hit": false,
      "t": 187783.3333333332,
      "d": 1033.333333333343,
      "v": 57
    },
    {
      "midi": 67,
      "hit": false,
      "t": 188083.3333333332,
      "d": 116.66666666665697,
      "v": 32
    },
    {
      "midi": 72,
      "hit": false,
      "t": 188383.3333333332,
      "d": 633.333333333343,
      "v": 84
    },
    {
      "midi": 79,
      "hit": false,
      "t": 188383.3333333332,
      "d": 700.0000000000291,
      "v": 82
    },
    {
      "midi": 60,
      "hit": false,
      "t": 188383.3333333332,
      "d": 733.3333333333721,
      "v": 73
    },
    {
      "midi": 75,
      "hit": false,
      "t": 188683.3333333332,
      "d": 83.33333333334303,
      "v": 22
    },
    {
      "midi": 75,
      "hit": false,
      "t": 188983.3333333332,
      "d": 100.0000000000291,
      "v": 45
    },
    {
      "midi": 60,
      "hit": false,
      "t": 189266.66666666657,
      "d": 150,
      "v": 82
    },
    {
      "midi": 63,
      "hit": false,
      "t": 189266.66666666657,
      "d": 183.33333333334303,
      "v": 76
    },
    {
      "midi": 67,
      "hit": false,
      "t": 189266.66666666657,
      "d": 183.33333333334303,
      "v": 82
    },
    {
      "midi": 48,
      "hit": false,
      "t": 189266.66666666657,
      "d": 833.333333333343,
      "v": 71
    },
    {
      "midi": 72,
      "hit": false,
      "t": 189866.66666666657,
      "d": 50,
      "v": 35
    },
    {
      "midi": 75,
      "hit": false,
      "t": 190166.66666666657,
      "d": 700,
      "v": 95
    },
    {
      "midi": 79,
      "hit": false,
      "t": 190166.66666666657,
      "d": 800,
      "v": 95
    },
    {
      "midi": 60,
      "hit": false,
      "t": 190166.66666666657,
      "d": 833.333333333343,
      "v": 73
    },
    {
      "midi": 72,
      "hit": false,
      "t": 190166.66666666657,
      "d": 833.333333333343,
      "v": 87
    },
    {
      "midi": 75,
      "hit": false,
      "t": 191066.66666666657,
      "d": 83.33333333334303,
      "v": 23
    },
    {
      "midi": 56,
      "hit": false,
      "t": 191066.66666666657,
      "d": 1366.666666666686,
      "v": 79
    },
    {
      "midi": 60,
      "hit": false,
      "t": 191066.66666666657,
      "d": 1383.333333333343,
      "v": 69
    },
    {
      "midi": 72,
      "hit": false,
      "t": 191349.9999999999,
      "d": 50,
      "v": 22
    },
    {
      "midi": 72,
      "hit": false,
      "t": 191649.9999999999,
      "d": 150,
      "v": 63
    },
    {
      "midi": 63,
      "hit": false,
      "t": 191949.9999999999,
      "d": 433.33333333334303,
      "v": 67
    },
    {
      "midi": 72,
      "hit": false,
      "t": 191949.9999999999,
      "d": 500,
      "v": 82
    },
    {
      "midi": 75,
      "hit": false,
      "t": 191949.9999999999,
      "d": 516.666666666657,
      "v": 91
    },
    {
      "midi": 80,
      "hit": false,
      "t": 191949.9999999999,
      "d": 550,
      "v": 91
    },
    {
      "midi": 74,
      "hit": false,
      "t": 192849.9999999999,
      "d": 83.33333333334303,
      "v": 84
    },
    {
      "midi": 77,
      "hit": false,
      "t": 192849.9999999999,
      "d": 100,
      "v": 84
    },
    {
      "midi": 82,
      "hit": false,
      "t": 192849.9999999999,
      "d": 116.66666666665697,
      "v": 84
    },
    {
      "midi": 58,
      "hit": false,
      "t": 192849.9999999999,
      "d": 1249.999999999971,
      "v": 84
    },
    {
      "midi": 77,
      "hit": false,
      "t": 193149.9999999999,
      "d": 66.66666666665697,
      "v": 34
    },
    {
      "midi": 77,
      "hit": false,
      "t": 193433.33333333323,
      "d": 83.33333333334303,
      "v": 50
    },
    {
      "midi": 77,
      "hit": false,
      "t": 193733.33333333323,
      "d": 416.66666666665697,
      "v": 84
    },
    {
      "midi": 62,
      "hit": false,
      "t": 193733.33333333323,
      "d": 450,
      "v": 63
    },
    {
      "midi": 86,
      "hit": false,
      "t": 193733.33333333323,
      "d": 600,
      "v": 99
    },
    {
      "midi": 82,
      "hit": false,
      "t": 194033.33333333323,
      "d": 516.666666666657,
      "v": 55
    },
    {
      "midi": 79,
      "hit": false,
      "t": 194333.33333333323,
      "d": 200,
      "v": 38
    },
    {
      "midi": 75,
      "hit": false,
      "t": 194633.33333333323,
      "d": 366.66666666665697,
      "v": 73
    },
    {
      "midi": 79,
      "hit": false,
      "t": 194633.33333333323,
      "d": 366.66666666665697,
      "v": 68
    },
    {
      "midi": 82,
      "hit": false,
      "t": 194633.33333333323,
      "d": 366.66666666665697,
      "v": 45
    },
    {
      "midi": 63,
      "hit": false,
      "t": 194633.33333333323,
      "d": 833.333333333343,
      "v": 67
    },
    {
      "midi": 79,
      "hit": false,
      "t": 195233.33333333323,
      "d": 83.33333333334303,
      "v": 23
    },
    {
      "midi": 75,
      "hit": false,
      "t": 195233.33333333323,
      "d": 116.66666666668607,
      "v": 37
    },
    {
      "midi": 79,
      "hit": false,
      "t": 195516.66666666657,
      "d": 733.333333333343,
      "v": 91
    },
    {
      "midi": 63,
      "hit": false,
      "t": 195516.66666666657,
      "d": 750,
      "v": 84
    },
    {
      "midi": 82,
      "hit": false,
      "t": 195516.66666666657,
      "d": 750,
      "v": 82
    },
    {
      "midi": 75,
      "hit": false,
      "t": 195516.66666666657,
      "d": 783.333333333343,
      "v": 91
    },
    {
      "midi": 60,
      "hit": false,
      "t": 196416.66666666657,
      "d": 1766.666666666657,
      "v": 79
    },
    {
      "midi": 72,
      "hit": false,
      "t": 196716.66666666657,
      "d": 116.66666666665697,
      "v": 60
    },
    {
      "midi": 75,
      "hit": false,
      "t": 197016.66666666657,
      "d": 133.33333333334303,
      "v": 71
    },
    {
      "midi": 75,
      "hit": false,
      "t": 197316.66666666657,
      "d": 600,
      "v": 91
    },
    {
      "midi": 79,
      "hit": false,
      "t": 197316.66666666657,
      "d": 600,
      "v": 95
    },
    {
      "midi": 72,
      "hit": false,
      "t": 197316.66666666657,
      "d": 883.3333333333139,
      "v": 91
    },
    {
      "midi": 75,
      "hit": false,
      "t": 198199.99999999988,
      "d": 166.66666666665697,
      "v": 47
    },
    {
      "midi": 56,
      "hit": false,
      "t": 198199.99999999988,
      "d": 1600.000000000029,
      "v": 73
    },
    {
      "midi": 72,
      "hit": false,
      "t": 198499.99999999988,
      "d": 100,
      "v": 35
    },
    {
      "midi": 72,
      "hit": false,
      "t": 198799.99999999988,
      "d": 66.66666666665697,
      "v": 31
    },
    {
      "midi": 75,
      "hit": false,
      "t": 198799.99999999988,
      "d": 150,
      "v": 61
    },
    {
      "midi": 72,
      "hit": false,
      "t": 199099.99999999988,
      "d": 666.6666666666861,
      "v": 76
    },
    {
      "midi": 80,
      "hit": false,
      "t": 199099.99999999988,
      "d": 750.0000000000291,
      "v": 91
    },
    {
      "midi": 75,
      "hit": false,
      "t": 199099.99999999988,
      "d": 766.6666666666861,
      "v": 87
    },
    {
      "midi": 58,
      "hit": false,
      "t": 199983.33333333323,
      "d": 1683.3333333333721,
      "v": 79
    },
    {
      "midi": 74,
      "hit": false,
      "t": 200283.33333333323,
      "d": 66.66666666665697,
      "v": 17
    },
    {
      "midi": 74,
      "hit": false,
      "t": 200583.33333333323,
      "d": 100,
      "v": 28
    },
    {
      "midi": 74,
      "hit": false,
      "t": 200883.33333333323,
      "d": 433.33333333334303,
      "v": 82
    },
    {
      "midi": 77,
      "hit": false,
      "t": 200883.33333333323,
      "d": 516.6666666666861,
      "v": 84
    },
    {
      "midi": 82,
      "hit": false,
      "t": 200883.33333333323,
      "d": 550.0000000000291,
      "v": 91
    },
    {
      "midi": 75,
      "hit": false,
      "t": 201483.33333333326,
      "d": 100,
      "v": 38
    },
    {
      "midi": 74,
      "hit": false,
      "t": 201483.33333333326,
      "d": 200,
      "v": 53
    },
    {
      "midi": 75,
      "hit": false,
      "t": 201766.6666666666,
      "d": 116.66666666665697,
      "v": 87
    },
    {
      "midi": 79,
      "hit": false,
      "t": 201766.6666666666,
      "d": 133.33333333331393,
      "v": 87
    },
    {
      "midi": 60,
      "hit": false,
      "t": 201766.6666666666,
      "d": 783.3333333333139,
      "v": 82
    },
    {
      "midi": 79,
      "hit": false,
      "t": 202066.66666666657,
      "d": 83.33333333334303,
      "v": 55
    },
    {
      "midi": 79,
      "hit": false,
      "t": 202366.66666666657,
      "d": 83.33333333334303,
      "v": 20
    },
    {
      "midi": 79,
      "hit": false,
      "t": 202666.66666666657,
      "d": 516.666666666657,
      "v": 84
    },
    {
      "midi": 60,
      "hit": false,
      "t": 202666.66666666657,
      "d": 600,
      "v": 64
    },
    {
      "midi": 84,
      "hit": false,
      "t": 202666.66666666657,
      "d": 616.666666666657,
      "v": 99
    },
    {
      "midi": 87,
      "hit": false,
      "t": 202666.66666666657,
      "d": 616.666666666657,
      "v": 84
    },
    {
      "midi": 48,
      "hit": false,
      "t": 203599.99999999988,
      "d": 1066.666666666657,
      "v": 82
    },
    {
      "midi": 55,
      "hit": false,
      "t": 203899.99999999988,
      "d": 866.666666666657,
      "v": 55
    },
    {
      "midi": 60,
      "hit": false,
      "t": 204166.66666666654,
      "d": 850,
      "v": 64
    },
    {
      "midi": 72,
      "hit": false,
      "t": 204483.3333333332,
      "d": 583.333333333343,
      "v": 82
    },
    {
      "midi": 67,
      "hit": false,
      "t": 204483.3333333332,
      "d": 766.666666666657,
      "v": 87
    },
    {
      "midi": 68,
      "hit": false,
      "t": 205333.3333333332,
      "d": 200,
      "v": 82
    },
    {
      "midi": 56,
      "hit": false,
      "t": 205333.3333333332,
      "d": 1466.666666666657,
      "v": 67
    },
    {
      "midi": 72,
      "hit": false,
      "t": 205349.99999999985,
      "d": 216.66666666668607,
      "v": 76
    },
    {
      "midi": 60,
      "hit": false,
      "t": 205633.3333333332,
      "d": 1216.666666666657,
      "v": 62
    },
    {
      "midi": 80,
      "hit": false,
      "t": 205966.66666666654,
      "d": 683.3333333333139,
      "v": 71
    },
    {
      "midi": 75,
      "hit": false,
      "t": 205966.66666666654,
      "d": 999.9999999999709,
      "v": 58
    },
    {
      "midi": 72,
      "hit": false,
      "t": 205966.66666666654,
      "d": 1133.333333333314,
      "v": 63
    },
    {
      "midi": 63,
      "hit": false,
      "t": 206383.3333333332,
      "d": 350,
      "v": 55
    },
    {
      "midi": 68,
      "hit": false,
      "t": 206599.99999999985,
      "d": 300,
      "v": 71
    },
    {
      "midi": 58,
      "hit": false,
      "t": 206966.6666666665,
      "d": 50,
      "v": 9
    },
    {
      "midi": 58,
      "hit": false,
      "t": 207133.3333333332,
      "d": 949.9999999999709,
      "v": 84
    },
    {
      "midi": 62,
      "hit": false,
      "t": 207399.99999999985,
      "d": 783.3333333333139,
      "v": 66
    },
    {
      "midi": 65,
      "hit": false,
      "t": 207716.6666666665,
      "d": 183.33333333334303,
      "v": 67
    },
    {
      "midi": 74,
      "hit": false,
      "t": 208016.6666666665,
      "d": 533.3333333333139,
      "v": 95
    },
    {
      "midi": 65,
      "hit": false,
      "t": 208066.6666666665,
      "d": 33.33333333331393,
      "v": 55
    },
    {
      "midi": 70,
      "hit": false,
      "t": 208283.33333333317,
      "d": 300,
      "v": 58
    },
    {
      "midi": 65,
      "hit": false,
      "t": 208583.33333333317,
      "d": 233.33333333331393,
      "v": 64
    },
    {
      "midi": 51,
      "hit": false,
      "t": 208916.66666666648,
      "d": 1516.666666666657,
      "v": 79
    },
    {
      "midi": 70,
      "hit": false,
      "t": 208933.33333333314,
      "d": 233.33333333331393,
      "v": 76
    },
    {
      "midi": 67,
      "hit": false,
      "t": 208933.33333333314,
      "d": 249.9999999999709,
      "v": 84
    },
    {
      "midi": 63,
      "hit": false,
      "t": 209233.3333333331,
      "d": 166.66666666668607,
      "v": 71
    },
    {
      "midi": 58,
      "hit": false,
      "t": 209266.66666666645,
      "d": 1183.333333333343,
      "v": 50
    },
    {
      "midi": 67,
      "hit": false,
      "t": 209349.9999999998,
      "d": 100,
      "v": 64
    },
    {
      "midi": 70,
      "hit": false,
      "t": 209449.9999999998,
      "d": 83.33333333334303,
      "v": 64
    },
    {
      "midi": 75,
      "hit": false,
      "t": 209616.66666666648,
      "d": 166.66666666665697,
      "v": 71
    },
    {
      "midi": 80,
      "hit": false,
      "t": 209716.66666666648,
      "d": 33.33333333331393,
      "v": 35
    },
    {
      "midi": 79,
      "hit": false,
      "t": 209733.33333333314,
      "d": 200,
      "v": 58
    },
    {
      "midi": 82,
      "hit": false,
      "t": 209866.66666666648,
      "d": 833.3333333333139,
      "v": 56
    },
    {
      "midi": 87,
      "hit": false,
      "t": 209916.66666666648,
      "d": 450,
      "v": 87
    },
    {
      "midi": 79,
      "hit": false,
      "t": 210433.33333333314,
      "d": 316.66666666665697,
      "v": 66
    },
    {
      "midi": 60,
      "hit": false,
      "t": 210699.9999999998,
      "d": 1633.333333333343,
      "v": 73
    },
    {
      "midi": 75,
      "hit": false,
      "t": 211299.9999999998,
      "d": 533.333333333343,
      "v": 67
    },
    {
      "midi": 72,
      "hit": false,
      "t": 211299.9999999998,
      "d": 583.333333333343,
      "v": 71
    },
    {
      "midi": 79,
      "hit": false,
      "t": 211883.33333333314,
      "d": 566.666666666657,
      "v": 73
    },
    {
      "midi": 75,
      "hit": false,
      "t": 212183.33333333314,
      "d": 450,
      "v": 64
    },
    {
      "midi": 56,
      "hit": false,
      "t": 212483.33333333314,
      "d": 1666.666666666686,
      "v": 87
    },
    {
      "midi": 68,
      "hit": false,
      "t": 212783.33333333314,
      "d": 300,
      "v": 52
    },
    {
      "midi": 72,
      "hit": false,
      "t": 213083.33333333314,
      "d": 150,
      "v": 42
    },
    {
      "midi": 72,
      "hit": false,
      "t": 213383.33333333314,
      "d": 83.33333333334303,
      "v": 55
    },
    {
      "midi": 80,
      "hit": false,
      "t": 213383.33333333314,
      "d": 550,
      "v": 82
    },
    {
      "midi": 75,
      "hit": false,
      "t": 213383.33333333314,
      "d": 816.6666666666861,
      "v": 68
    },
    {
      "midi": 72,
      "hit": false,
      "t": 213683.33333333314,
      "d": 150,
      "v": 41
    },
    {
      "midi": 72,
      "hit": false,
      "t": 213966.66666666648,
      "d": 66.66666666665697,
      "v": 31
    },
    {
      "midi": 68,
      "hit": false,
      "t": 213966.66666666648,
      "d": 216.66666666668607,
      "v": 56
    },
    {
      "midi": 44,
      "hit": false,
      "t": 214266.66666666648,
      "d": 533.333333333343,
      "v": 69
    },
    {
      "midi": 72,
      "hit": false,
      "t": 214266.66666666648,
      "d": 833.333333333343,
      "v": 82
    },
    {
      "midi": 51,
      "hit": false,
      "t": 214566.66666666648,
      "d": 433.33333333334303,
      "v": 56
    },
    {
      "midi": 56,
      "hit": false,
      "t": 214866.66666666648,
      "d": 183.33333333334303,
      "v": 27
    },
    {
      "midi": 70,
      "hit": false,
      "t": 215166.66666666648,
      "d": 1983.333333333343,
      "v": 76
    },
    {
      "midi": 65,
      "hit": false,
      "t": 215166.66666666648,
      "d": 2000,
      "v": 67
    },
    {
      "midi": 46,
      "hit": false,
      "t": 215166.66666666648,
      "d": 2033.333333333343,
      "v": 73
    },
    {
      "midi": 70,
      "hit": false,
      "t": 219333.33333333317,
      "d": 250,
      "v": 79
    },
    {
      "midi": 74,
      "hit": false,
      "t": 219333.33333333317,
      "d": 250,
      "v": 76
    },
    {
      "midi": 58,
      "hit": false,
      "t": 219333.33333333317,
      "d": 316.66666666665697,
      "v": 62
    },
    {
      "midi": 67,
      "hit": false,
      "t": 219633.33333333317,
      "d": 1366.666666666657,
      "v": 69
    },
    {
      "midi": 72,
      "hit": false,
      "t": 219633.33333333317,
      "d": 1416.666666666657,
      "v": 79
    },
    {
      "midi": 60,
      "hit": false,
      "t": 219633.33333333317,
      "d": 1533.333333333314,
      "v": 67
    },
    {
      "midi": 72,
      "hit": false,
      "t": 221116.66666666648,
      "d": 100,
      "v": 50
    },
    {
      "midi": 67,
      "hit": false,
      "t": 221116.66666666648,
      "d": 133.33333333334303,
      "v": 47
    },
    {
      "midi": 67,
      "hit": false,
      "t": 221416.66666666648,
      "d": 216.66666666665697,
      "v": 69
    },
    {
      "midi": 72,
      "hit": false,
      "t": 221416.66666666648,
      "d": 283.33333333331393,
      "v": 87
    },
    {
      "midi": 60,
      "hit": false,
      "t": 221416.66666666648,
      "d": 1033.333333333314,
      "v": 69
    },
    {
      "midi": 67,
      "hit": false,
      "t": 222299.9999999998,
      "d": 433.33333333334303,
      "v": 63
    },
    {
      "midi": 75,
      "hit": false,
      "t": 222299.9999999998,
      "d": 550,
      "v": 87
    },
    {
      "midi": 70,
      "hit": false,
      "t": 222899.9999999998,
      "d": 50,
      "v": 20
    },
    {
      "midi": 67,
      "hit": false,
      "t": 222899.9999999998,
      "d": 116.66666666665697,
      "v": 45
    },
    {
      "midi": 67,
      "hit": false,
      "t": 223199.9999999998,
      "d": 1050,
      "v": 73
    },
    {
      "midi": 70,
      "hit": false,
      "t": 223199.9999999998,
      "d": 1050,
      "v": 87
    },
    {
      "midi": 75,
      "hit": false,
      "t": 223199.9999999998,
      "d": 1100,
      "v": 82
    },
    {
      "midi": 51,
      "hit": false,
      "t": 223199.9999999998,
      "d": 3200.000000000029,
      "v": 69
    },
    {
      "midi": 63,
      "hit": false,
      "t": 224099.9999999998,
      "d": 700.0000000000291,
      "v": 76
    },
    {
      "midi": 67,
      "hit": false,
      "t": 224683.33333333314,
      "d": 83.33333333334303,
      "v": 36
    },
    {
      "midi": 67,
      "hit": false,
      "t": 224983.33333333317,
      "d": 800,
      "v": 71
    },
    {
      "midi": 70,
      "hit": false,
      "t": 224983.33333333317,
      "d": 833.333333333343,
      "v": 82
    },
    {
      "midi": 63,
      "hit": false,
      "t": 224983.33333333317,
      "d": 1166.666666666657,
      "v": 73
    },
    {
      "midi": 75,
      "hit": false,
      "t": 225883.33333333317,
      "d": 649.9999999999709,
      "v": 95
    },
    {
      "midi": 70,
      "hit": false,
      "t": 226033.33333333317,
      "d": 16.666666666656965,
      "v": 55
    },
    {
      "midi": 67,
      "hit": false,
      "t": 226466.66666666648,
      "d": 166.66666666665697,
      "v": 58
    },
    {
      "midi": 55,
      "hit": false,
      "t": 226766.66666666648,
      "d": 2800,
      "v": 67
    },
    {
      "midi": 70,
      "hit": false,
      "t": 226766.66666666648,
      "d": 2800,
      "v": 91
    },
    {
      "midi": 74,
      "hit": false,
      "t": 226766.66666666648,
      "d": 2983.333333333343,
      "v": 84
    },
    {
      "midi": 67,
      "hit": false,
      "t": 226766.66666666648,
      "d": 3033.333333333343,
      "v": 82
    },
    {
      "midi": 72,
      "hit": false,
      "t": 232133.33333333317,
      "d": 300,
      "v": 87
    },
    {
      "midi": 48,
      "hit": false,
      "t": 232133.33333333317,
      "d": 316.66666666665697,
      "v": 73
    },
    {
      "midi": 75,
      "hit": false,
      "t": 232133.33333333317,
      "d": 316.66666666665697,
      "v": 84
    },
    {
      "midi": 72,
      "hit": false,
      "t": 232566.66666666648,
      "d": 66.66666666665697,
      "v": 79
    },
    {
      "midi": 75,
      "hit": false,
      "t": 232566.66666666648,
      "d": 66.66666666665697,
      "v": 64
    },
    {
      "midi": 48,
      "hit": false,
      "t": 232566.66666666648,
      "d": 233.33333333334303,
      "v": 52
    },
    {
      "midi": 72,
      "hit": false,
      "t": 232716.66666666648,
      "d": 116.66666666668607,
      "v": 76
    },
    {
      "midi": 75,
      "hit": false,
      "t": 232716.66666666648,
      "d": 133.33333333334303,
      "v": 63
    },
    {
      "midi": 72,
      "hit": false,
      "t": 233016.66666666648,
      "d": 100,
      "v": 103
    },
    {
      "midi": 75,
      "hit": false,
      "t": 233016.66666666648,
      "d": 116.66666666665697,
      "v": 95
    },
    {
      "midi": 48,
      "hit": false,
      "t": 233316.66666666648,
      "d": 83.33333333334303,
      "v": 16
    },
    {
      "midi": 72,
      "hit": false,
      "t": 233316.66666666648,
      "d": 100,
      "v": 84
    },
    {
      "midi": 75,
      "hit": false,
      "t": 233316.66666666648,
      "d": 116.66666666665697,
      "v": 73
    },
    {
      "midi": 72,
      "hit": false,
      "t": 233616.66666666648,
      "d": 100,
      "v": 71
    },
    {
      "midi": 75,
      "hit": false,
      "t": 233616.66666666648,
      "d": 100,
      "v": 66
    },
    {
      "midi": 72,
      "hit": false,
      "t": 233916.66666666648,
      "d": 866.666666666657,
      "v": 73
    },
    {
      "midi": 48,
      "hit": false,
      "t": 233916.66666666648,
      "d": 883.3333333333139,
      "v": 73
    },
    {
      "midi": 75,
      "hit": false,
      "t": 233916.66666666648,
      "d": 883.3333333333139,
      "v": 76
    },
    {
      "midi": 79,
      "hit": false,
      "t": 233916.66666666648,
      "d": 883.3333333333139,
      "v": 76
    },
    {
      "midi": 84,
      "hit": false,
      "t": 233916.66666666648,
      "d": 916.666666666657,
      "v": 79
    }
  ]
}