{
  "jsonPath": "Rock/Christian Alternative Rock/BarlowGirl/hallelujah-light-has-come-album-version.json",
  "path": "Rock\\Christian Alternative Rock\\BarlowGirl\\Hallelujah Light Has Come (Album Version).mid",
  "name": "Hallelujah Light Has Come (Album Version)",
  "difficulty": "Advanced",
  "bpm": 148.000148000148,
  "notes": [
    {
      "midi": 60,
      "hit": false,
      "t": 387.8191166666666,
      "d": 1.6025583333333202,
      "v": 1
    },
    {
      "midi": 65,
      "hit": false,
      "t": 1490.3792499999997,
      "d": 195.51211666666654,
      "v": 120
    },
    {
      "midi": 69,
      "hit": false,
      "t": 1586.5327499999996,
      "d": 139.42257500000005,
      "v": 120
    },
    {
      "midi": 69,
      "hit": false,
      "t": 2211.5305,
      "d": 184.29420833333324,
      "v": 120
    },
    {
      "midi": 72,
      "hit": false,
      "t": 2307.6839999999997,
      "d": 187.49932500000023,
      "v": 120
    },
    {
      "midi": 72,
      "hit": false,
      "t": 2980.7585,
      "d": 176.2814166666667,
      "v": 120
    },
    {
      "midi": 76,
      "hit": false,
      "t": 3076.912,
      "d": 168.26862500000016,
      "v": 120
    },
    {
      "midi": 76,
      "hit": false,
      "t": 3749.9865,
      "d": 201.92234999999982,
      "v": 120
    },
    {
      "midi": 79,
      "hit": false,
      "t": 3846.14,
      "d": 168.2686249999997,
      "v": 120
    },
    {
      "midi": 74,
      "hit": false,
      "t": 4519.214499999999,
      "d": 238.78119166666602,
      "v": 120
    },
    {
      "midi": 77,
      "hit": false,
      "t": 4615.367999999999,
      "d": 160.2558333333336,
      "v": 120
    },
    {
      "midi": 77,
      "hit": false,
      "t": 5288.442499999999,
      "d": 200.31979166666588,
      "v": 120
    },
    {
      "midi": 81,
      "hit": false,
      "t": 5336.5192499999985,
      "d": 189.10188333333372,
      "v": 120
    },
    {
      "midi": 76,
      "hit": false,
      "t": 6057.670499999998,
      "d": 193.90955833333373,
      "v": 120
    },
    {
      "midi": 79,
      "hit": false,
      "t": 6105.7472499999985,
      "d": 163.4609500000006,
      "v": 120
    },
    {
      "midi": 77,
      "hit": false,
      "t": 7307.665999999999,
      "d": 381.4088833333335,
      "v": 120
    },
    {
      "midi": 72,
      "hit": false,
      "t": 7692.28,
      "d": 258.0118916666661,
      "v": 120
    },
    {
      "midi": 79,
      "hit": false,
      "t": 7740.35675,
      "d": 269.22979999999916,
      "v": 120
    },
    {
      "midi": 69,
      "hit": false,
      "t": 8365.3545,
      "d": 229.1658416666669,
      "v": 120
    },
    {
      "midi": 76,
      "hit": false,
      "t": 8461.508,
      "d": 195.51211666666677,
      "v": 120
    },
    {
      "midi": 70,
      "hit": false,
      "t": 9134.5825,
      "d": 163.4609500000006,
      "v": 120
    },
    {
      "midi": 77,
      "hit": false,
      "t": 9182.65925,
      "d": 201.92235000000073,
      "v": 120
    },
    {
      "midi": 67,
      "hit": false,
      "t": 9903.810500000001,
      "d": 346.15259999999944,
      "v": 120
    },
    {
      "midi": 74,
      "hit": false,
      "t": 9951.887250000002,
      "d": 264.42212499999914,
      "v": 120
    },
    {
      "midi": 69,
      "hit": false,
      "t": 10624.96175,
      "d": 373.3960916666674,
      "v": 120
    },
    {
      "midi": 76,
      "hit": false,
      "t": 10769.192000000001,
      "d": 245.1914250000009,
      "v": 120
    },
    {
      "midi": 69,
      "hit": false,
      "t": 11923.034000000001,
      "d": 394.2293499999996,
      "v": 120
    },
    {
      "midi": 74,
      "hit": false,
      "t": 12307.648000000001,
      "d": 1552.8790250000002,
      "v": 120
    },
    {
      "midi": 58,
      "hit": false,
      "t": 13846.104,
      "d": 589.7414666666664,
      "v": 80
    },
    {
      "midi": 64,
      "hit": false,
      "t": 13846.104,
      "d": 817.3047499999993,
      "v": 80
    },
    {
      "midi": 69,
      "hit": false,
      "t": 13846.104,
      "d": 1041.6629166666662,
      "v": 80
    },
    {
      "midi": 48,
      "hit": false,
      "t": 13846.104,
      "d": 1235.572474999999,
      "v": 80
    },
    {
      "midi": 58,
      "hit": false,
      "t": 14615.331999999999,
      "d": 1791.660216666667,
      "v": 80
    },
    {
      "midi": 69,
      "hit": false,
      "t": 14999.945999999998,
      "d": 334.9346916666673,
      "v": 80
    },
    {
      "midi": 48,
      "hit": false,
      "t": 15384.56,
      "d": 1004.8040749999982,
      "v": 80
    },
    {
      "midi": 68,
      "hit": false,
      "t": 15384.56,
      "d": 1097.7524583333343,
      "v": 80
    },
    {
      "midi": 64,
      "hit": false,
      "t": 16153.787999999999,
      "d": 330.12701666666726,
      "v": 80
    },
    {
      "midi": 53,
      "hit": false,
      "t": 16923.016,
      "d": 1703.519508333331,
      "v": 80
    },
    {
      "midi": 57,
      "hit": false,
      "t": 16923.016,
      "d": 1932.685349999996,
      "v": 80
    },
    {
      "midi": 60,
      "hit": false,
      "t": 16923.016,
      "d": 1956.7237249999962,
      "v": 80
    },
    {
      "midi": 41,
      "hit": false,
      "t": 16923.016,
      "d": 2431.080991666666,
      "v": 80
    },
    {
      "midi": 65,
      "hit": false,
      "t": 18076.857999999997,
      "d": 1107.3678083333325,
      "v": 80
    },
    {
      "midi": 48,
      "hit": false,
      "t": 18461.471999999998,
      "d": 860.5738249999995,
      "v": 80
    },
    {
      "midi": 53,
      "hit": false,
      "t": 18846.085999999996,
      "d": 467.9470333333338,
      "v": 80
    },
    {
      "midi": 57,
      "hit": false,
      "t": 19230.699999999997,
      "d": 330.1270166666691,
      "v": 80
    },
    {
      "midi": 60,
      "hit": false,
      "t": 19230.699999999997,
      "d": 362.1781833333371,
      "v": 80
    },
    {
      "midi": 65,
      "hit": false,
      "t": 19230.699999999997,
      "d": 504.80587500000547,
      "v": 80
    },
    {
      "midi": 53,
      "hit": false,
      "t": 19615.314000000002,
      "d": 65.70489166666812,
      "v": 80
    },
    {
      "midi": 53,
      "hit": false,
      "t": 19999.928000000004,
      "d": 602.5619333333343,
      "v": 80
    },
    {
      "midi": 62,
      "hit": false,
      "t": 19999.928000000004,
      "d": 2072.1079250000003,
      "v": 80
    },
    {
      "midi": 65,
      "hit": false,
      "t": 19999.928000000004,
      "d": 2355.7607500000013,
      "v": 80
    },
    {
      "midi": 46,
      "hit": false,
      "t": 19999.928000000004,
      "d": 2708.323583333331,
      "v": 80
    },
    {
      "midi": 60,
      "hit": false,
      "t": 20384.542000000005,
      "d": 665.0617083333309,
      "v": 80
    },
    {
      "midi": 53,
      "hit": false,
      "t": 20769.156000000003,
      "d": 413.4600500000015,
      "v": 80
    },
    {
      "midi": 60,
      "hit": false,
      "t": 21153.770000000004,
      "d": 657.0489166666666,
      "v": 80
    },
    {
      "midi": 53,
      "hit": false,
      "t": 21538.384000000005,
      "d": 1133.0087416666647,
      "v": 80
    },
    {
      "midi": 74,
      "hit": false,
      "t": 21794.79333333334,
      "d": 294.8707333333332,
      "v": 80
    },
    {
      "midi": 76,
      "hit": false,
      "t": 22051.20266666667,
      "d": 299.6784083333332,
      "v": 80
    },
    {
      "midi": 77,
      "hit": false,
      "t": 22307.612000000005,
      "d": 282.05026666666527,
      "v": 80
    },
    {
      "midi": 60,
      "hit": false,
      "t": 22307.612000000005,
      "d": 374.9986499999977,
      "v": 80
    },
    {
      "midi": 79,
      "hit": false,
      "t": 22564.021333333338,
      "d": 274.03747499999736,
      "v": 80
    },
    {
      "midi": 65,
      "hit": false,
      "t": 22692.226000000002,
      "d": 357.3705083333334,
      "v": 80
    },
    {
      "midi": 81,
      "hit": false,
      "t": 22820.430666666667,
      "d": 288.4605000000047,
      "v": 80
    },
    {
      "midi": 52,
      "hit": false,
      "t": 23076.840000000004,
      "d": 932.6889499999997,
      "v": 80
    },
    {
      "midi": 57,
      "hit": false,
      "t": 23076.840000000004,
      "d": 959.9324416666677,
      "v": 80
    },
    {
      "midi": 64,
      "hit": false,
      "t": 23076.840000000004,
      "d": 1126.5985083333326,
      "v": 80
    },
    {
      "midi": 79,
      "hit": false,
      "t": 23076.840000000004,
      "d": 1128.2010666666647,
      "v": 80
    },
    {
      "midi": 60,
      "hit": false,
      "t": 23076.840000000004,
      "d": 1405.44365833333,
      "v": 80
    },
    {
      "midi": 45,
      "hit": false,
      "t": 23076.840000000004,
      "d": 2588.131708333327,
      "v": 80
    },
    {
      "midi": 67,
      "hit": false,
      "t": 23846.068000000003,
      "d": 407.0498166666657,
      "v": 80
    },
    {
      "midi": 76,
      "hit": false,
      "t": 24230.682,
      "d": 368.5884166666656,
      "v": 80
    },
    {
      "midi": 53,
      "hit": false,
      "t": 24615.296,
      "d": 471.1521499999981,
      "v": 80
    },
    {
      "midi": 57,
      "hit": false,
      "t": 24615.296,
      "d": 967.945233333332,
      "v": 80
    },
    {
      "midi": 60,
      "hit": false,
      "t": 24615.296,
      "d": 995.188725,
      "v": 80
    },
    {
      "midi": 62,
      "hit": false,
      "t": 24615.296,
      "d": 1065.7012916666645,
      "v": 80
    },
    {
      "midi": 50,
      "hit": false,
      "t": 24615.296,
      "d": 1075.3166416666645,
      "v": 80
    },
    {
      "midi": 77,
      "hit": false,
      "t": 24615.296,
      "d": 1392.623191666662,
      "v": 80
    },
    {
      "midi": 65,
      "hit": false,
      "t": 24615.296,
      "d": 1496.7894833333303,
      "v": 80
    },
    {
      "midi": 53,
      "hit": false,
      "t": 25384.523999999998,
      "d": 301.28096666666534,
      "v": 80
    },
    {
      "midi": 74,
      "hit": false,
      "t": 25576.831,
      "d": 261.21700833332943,
      "v": 80
    },
    {
      "midi": 57,
      "hit": false,
      "t": 25769.137999999995,
      "d": 185.89676666666492,
      "v": 80
    },
    {
      "midi": 72,
      "hit": false,
      "t": 25769.137999999995,
      "d": 333.33213333333333,
      "v": 80
    },
    {
      "midi": 55,
      "hit": false,
      "t": 26153.751999999997,
      "d": 788.4587000000029,
      "v": 80
    },
    {
      "midi": 70,
      "hit": false,
      "t": 26153.751999999997,
      "d": 983.9708166666678,
      "v": 80
    },
    {
      "midi": 62,
      "hit": false,
      "t": 26153.751999999997,
      "d": 1221.1494500000008,
      "v": 80
    },
    {
      "midi": 50,
      "hit": false,
      "t": 26153.751999999997,
      "d": 1256.405733333333,
      "v": 80
    },
    {
      "midi": 58,
      "hit": false,
      "t": 26153.751999999997,
      "d": 1483.969016666666,
      "v": 80
    },
    {
      "midi": 43,
      "hit": false,
      "t": 26153.751999999997,
      "d": 2588.1317083333306,
      "v": 80
    },
    {
      "midi": 67,
      "hit": false,
      "t": 26922.98,
      "d": 293.2681749999974,
      "v": 80
    },
    {
      "midi": 55,
      "hit": false,
      "t": 27307.593999999997,
      "d": 1368.584816666662,
      "v": 80
    },
    {
      "midi": 52,
      "hit": false,
      "t": 27692.207999999995,
      "d": 562.4979749999984,
      "v": 80
    },
    {
      "midi": 48,
      "hit": false,
      "t": 27692.207999999995,
      "d": 1073.7140833333324,
      "v": 80
    },
    {
      "midi": 64,
      "hit": false,
      "t": 27692.207999999995,
      "d": 1411.8538916666657,
      "v": 80
    },
    {
      "midi": 60,
      "hit": false,
      "t": 27692.207999999995,
      "d": 1413.4564499999979,
      "v": 80
    },
    {
      "midi": 52,
      "hit": false,
      "t": 28461.435999999994,
      "d": 246.79398333333302,
      "v": 80
    },
    {
      "midi": 55,
      "hit": false,
      "t": 28846.049999999996,
      "d": 248.39654166666514,
      "v": 80
    },
    {
      "midi": 48,
      "hit": false,
      "t": 29230.663999999993,
      "d": 1056.0859416666644,
      "v": 80
    },
    {
      "midi": 53,
      "hit": false,
      "t": 29230.663999999993,
      "d": 1065.7012916666645,
      "v": 80
    },
    {
      "midi": 57,
      "hit": false,
      "t": 29230.663999999993,
      "d": 1967.9416333333284,
      "v": 80
    },
    {
      "midi": 60,
      "hit": false,
      "t": 29230.663999999993,
      "d": 2190.6972416666613,
      "v": 80
    },
    {
      "midi": 41,
      "hit": false,
      "t": 29230.663999999993,
      "d": 2453.5168083333265,
      "v": 80
    },
    {
      "midi": 65,
      "hit": false,
      "t": 29999.891999999993,
      "d": 633.0105416666629,
      "v": 80
    },
    {
      "midi": 53,
      "hit": false,
      "t": 30384.50599999999,
      "d": 692.3051999999989,
      "v": 80
    },
    {
      "midi": 63,
      "hit": false,
      "t": 30769.119999999988,
      "d": 780.4459083333313,
      "v": 80
    },
    {
      "midi": 48,
      "hit": false,
      "t": 30769.119999999988,
      "d": 935.894066666664,
      "v": 80
    },
    {
      "midi": 53,
      "hit": false,
      "t": 31153.73399999999,
      "d": 806.0868416666635,
      "v": 80
    },
    {
      "midi": 57,
      "hit": false,
      "t": 31538.347999999987,
      "d": 431.0881916666658,
      "v": 80
    },
    {
      "midi": 65,
      "hit": false,
      "t": 32307.575999999986,
      "d": 312.4988749999975,
      "v": 80
    },
    {
      "midi": 58,
      "hit": false,
      "t": 32307.575999999986,
      "d": 749.9972999999954,
      "v": 80
    },
    {
      "midi": 53,
      "hit": false,
      "t": 32307.575999999986,
      "d": 818.9073083333278,
      "v": 80
    },
    {
      "midi": 62,
      "hit": false,
      "t": 32307.575999999986,
      "d": 1152.2394416666648,
      "v": 80
    },
    {
      "midi": 46,
      "hit": false,
      "t": 32307.575999999986,
      "d": 1177.8803749999934,
      "v": 80
    },
    {
      "midi": 65,
      "hit": false,
      "t": 33076.80399999998,
      "d": 326.9219000000012,
      "v": 80
    },
    {
      "midi": 70,
      "hit": false,
      "t": 33076.80399999998,
      "d": 357.3705083333334,
      "v": 80
    },
    {
      "midi": 53,
      "hit": false,
      "t": 33461.41799999998,
      "d": 283.6528249999974,
      "v": 80
    },
    {
      "midi": 60,
      "hit": false,
      "t": 33846.03199999998,
      "d": 671.4719416666703,
      "v": 80
    },
    {
      "midi": 64,
      "hit": false,
      "t": 33846.03199999998,
      "d": 774.0356749999992,
      "v": 80
    },
    {
      "midi": 67,
      "hit": false,
      "t": 33846.03199999998,
      "d": 785.2535833333313,
      "v": 80
    },
    {
      "midi": 46,
      "hit": false,
      "t": 33846.03199999998,
      "d": 1121.7908333333326,
      "v": 80
    },
    {
      "midi": 72,
      "hit": false,
      "t": 34102.441333333314,
      "d": 318.9091083333333,
      "v": 80
    },
    {
      "midi": 76,
      "hit": false,
      "t": 34102.441333333314,
      "d": 456.729124999998,
      "v": 80
    },
    {
      "midi": 74,
      "hit": false,
      "t": 34358.85066666665,
      "d": 209.93514166666137,
      "v": 80
    },
    {
      "midi": 77,
      "hit": false,
      "t": 34358.85066666665,
      "d": 219.5504916666614,
      "v": 80
    },
    {
      "midi": 79,
      "hit": false,
      "t": 34615.25999999998,
      "d": 272.43491666666523,
      "v": 80
    },
    {
      "midi": 76,
      "hit": false,
      "t": 34615.25999999998,
      "d": 293.2681749999974,
      "v": 80
    },
    {
      "midi": 60,
      "hit": false,
      "t": 34615.25999999998,
      "d": 516.0237833333231,
      "v": 80
    },
    {
      "midi": 74,
      "hit": false,
      "t": 34871.66933333331,
      "d": 203.52490833333286,
      "v": 80
    },
    {
      "midi": 77,
      "hit": false,
      "t": 34871.66933333331,
      "d": 266.02468333332945,
      "v": 80
    },
    {
      "midi": 67,
      "hit": false,
      "t": 34999.873999999974,
      "d": 362.1781833333298,
      "v": 80
    },
    {
      "midi": 76,
      "hit": false,
      "t": 35128.07866666664,
      "d": 174.67885833333276,
      "v": 80
    },
    {
      "midi": 72,
      "hit": false,
      "t": 35128.07866666664,
      "d": 189.10188333332917,
      "v": 80
    },
    {
      "midi": 57,
      "hit": false,
      "t": 35384.48799999997,
      "d": 334.9346916666691,
      "v": 80
    },
    {
      "midi": 60,
      "hit": false,
      "t": 35384.48799999997,
      "d": 443.90865833333373,
      "v": 80
    },
    {
      "midi": 64,
      "hit": false,
      "t": 35384.48799999997,
      "d": 511.216108333334,
      "v": 80
    },
    {
      "midi": 52,
      "hit": false,
      "t": 35384.48799999997,
      "d": 1176.2778166666685,
      "v": 80
    },
    {
      "midi": 72,
      "hit": false,
      "t": 35384.48799999997,
      "d": 1418.2641250000015,
      "v": 80
    },
    {
      "midi": 69,
      "hit": false,
      "t": 35384.48799999997,
      "d": 1443.9050583333374,
      "v": 80
    },
    {
      "midi": 45,
      "hit": false,
      "t": 35384.48799999997,
      "d": 2624.9905500000095,
      "v": 80
    },
    {
      "midi": 57,
      "hit": false,
      "t": 35769.10199999997,
      "d": 2225.9535250000117,
      "v": 80
    },
    {
      "midi": 60,
      "hit": false,
      "t": 36153.71599999997,
      "d": 620.1900749999986,
      "v": 80
    },
    {
      "midi": 60,
      "hit": false,
      "t": 36922.943999999974,
      "d": 464.7419166666732,
      "v": 80
    },
    {
      "midi": 53,
      "hit": false,
      "t": 36922.943999999974,
      "d": 480.767500000009,
      "v": 80
    },
    {
      "midi": 62,
      "hit": false,
      "t": 36922.943999999974,
      "d": 788.4587000000101,
      "v": 80
    },
    {
      "midi": 50,
      "hit": false,
      "t": 36922.943999999974,
      "d": 1124.995950000004,
      "v": 80
    },
    {
      "midi": 65,
      "hit": false,
      "t": 36922.943999999974,
      "d": 2115.3770000000077,
      "v": 80
    },
    {
      "midi": 53,
      "hit": false,
      "t": 37692.171999999984,
      "d": 315.70399166666175,
      "v": 80
    },
    {
      "midi": 62,
      "hit": false,
      "t": 38076.78599999998,
      "d": 320.5116666666654,
      "v": 80
    },
    {
      "midi": 58,
      "hit": false,
      "t": 38461.39999999998,
      "d": 395.83190833334083,
      "v": 80
    },
    {
      "midi": 62,
      "hit": false,
      "t": 38461.39999999998,
      "d": 458.3316833333374,
      "v": 80
    },
    {
      "midi": 50,
      "hit": false,
      "t": 38461.39999999998,
      "d": 1208.3289833333401,
      "v": 80
    },
    {
      "midi": 43,
      "hit": false,
      "t": 38461.39999999998,
      "d": 2556.08054166667,
      "v": 80
    },
    {
      "midi": 55,
      "hit": false,
      "t": 38461.39999999998,
      "d": 2596.144500000002,
      "v": 80
    },
    {
      "midi": 58,
      "hit": false,
      "t": 39230.62799999998,
      "d": 713.1384583333347,
      "v": 80
    },
    {
      "midi": 65,
      "hit": false,
      "t": 39615.241999999984,
      "d": 189.10188333333645,
      "v": 80
    },
    {
      "midi": 52,
      "hit": false,
      "t": 39999.855999999985,
      "d": 485.5751749999981,
      "v": 80
    },
    {
      "midi": 48,
      "hit": false,
      "t": 39999.855999999985,
      "d": 1044.8680333333323,
      "v": 80
    },
    {
      "midi": 58,
      "hit": false,
      "t": 39999.855999999985,
      "d": 1197.1110749999934,
      "v": 80
    },
    {
      "midi": 60,
      "hit": false,
      "t": 39999.855999999985,
      "d": 1342.943883333326,
      "v": 80
    },
    {
      "midi": 64,
      "hit": false,
      "t": 39999.855999999985,
      "d": 1427.879474999987,
      "v": 80
    },
    {
      "midi": 52,
      "hit": false,
      "t": 40769.08399999998,
      "d": 246.79398333333666,
      "v": 80
    },
    {
      "midi": 55,
      "hit": false,
      "t": 41153.69799999998,
      "d": 222.75560833332565,
      "v": 80
    },
    {
      "midi": 48,
      "hit": false,
      "t": 41538.31199999997,
      "d": 995.188725,
      "v": 80
    },
    {
      "midi": 53,
      "hit": false,
      "t": 41538.31199999997,
      "d": 1027.2398916666643,
      "v": 80
    },
    {
      "midi": 57,
      "hit": false,
      "t": 41538.31199999997,
      "d": 1471.1485500000053,
      "v": 80
    },
    {
      "midi": 60,
      "hit": false,
      "t": 41538.31199999997,
      "d": 1516.020183333334,
      "v": 80
    },
    {
      "midi": 41,
      "hit": false,
      "t": 41538.31199999997,
      "d": 2817.297550000003,
      "v": 80
    },
    {
      "midi": 65,
      "hit": false,
      "t": 42307.53999999997,
      "d": 1865.3778999999995,
      "v": 80
    },
    {
      "midi": 53,
      "hit": false,
      "t": 42692.153999999966,
      "d": 1105.765250000004,
      "v": 80
    },
    {
      "midi": 77,
      "hit": false,
      "t": 42900.4865833333,
      "d": 134.6149000000005,
      "v": 80
    },
    {
      "midi": 76,
      "hit": false,
      "t": 42945.35821666664,
      "d": 158.65327499999694,
      "v": 80
    },
    {
      "midi": 75,
      "hit": false,
      "t": 43011.06310833331,
      "d": 113.78164166666102,
      "v": 80
    },
    {
      "midi": 48,
      "hit": false,
      "t": 43076.76799999997,
      "d": 1227.5596833333402,
      "v": 80
    },
    {
      "midi": 57,
      "hit": false,
      "t": 43076.76799999997,
      "d": 1240.3801500000045,
      "v": 80
    },
    {
      "midi": 74,
      "hit": false,
      "t": 43113.626841666635,
      "d": 1411.8538916666657,
      "v": 80
    },
    {
      "midi": 60,
      "hit": false,
      "t": 43845.99599999997,
      "d": 474.35726666666596,
      "v": 80
    },
    {
      "midi": 53,
      "hit": false,
      "t": 44230.60999999997,
      "d": 203.52490833333286,
      "v": 80
    },
    {
      "midi": 58,
      "hit": false,
      "t": 44615.223999999966,
      "d": 589.7414666666664,
      "v": 80
    },
    {
      "midi": 64,
      "hit": false,
      "t": 44615.223999999966,
      "d": 817.304750000003,
      "v": 80
    },
    {
      "midi": 69,
      "hit": false,
      "t": 44615.223999999966,
      "d": 1041.662916666668,
      "v": 80
    },
    {
      "midi": 48,
      "hit": false,
      "t": 44615.223999999966,
      "d": 1235.5724750000008,
      "v": 80
    },
    {
      "midi": 58,
      "hit": false,
      "t": 45384.45199999997,
      "d": 1791.6602166666635,
      "v": 80
    },
    {
      "midi": 69,
      "hit": false,
      "t": 45769.06599999997,
      "d": 334.9346916666618,
      "v": 80
    },
    {
      "midi": 48,
      "hit": false,
      "t": 46153.679999999964,
      "d": 1004.804075,
      "v": 80
    },
    {
      "midi": 68,
      "hit": false,
      "t": 46153.679999999964,
      "d": 1097.752458333336,
      "v": 80
    },
    {
      "midi": 64,
      "hit": false,
      "t": 46922.90799999997,
      "d": 330.12701666666544,
      "v": 80
    },
    {
      "midi": 53,
      "hit": false,
      "t": 47692.13599999996,
      "d": 1703.5195083333383,
      "v": 80
    },
    {
      "midi": 57,
      "hit": false,
      "t": 47692.13599999996,
      "d": 1932.685350000007,
      "v": 80
    },
    {
      "midi": 60,
      "hit": false,
      "t": 47692.13599999996,
      "d": 1956.7237250000035,
      "v": 80
    },
    {
      "midi": 41,
      "hit": false,
      "t": 47692.13599999996,
      "d": 2431.0809916666767,
      "v": 80
    },
    {
      "midi": 65,
      "hit": false,
      "t": 48845.97799999997,
      "d": 1107.3678083333361,
      "v": 80
    },
    {
      "midi": 48,
      "hit": false,
      "t": 49230.59199999997,
      "d": 860.5738250000068,
      "v": 80
    },
    {
      "midi": 53,
      "hit": false,
      "t": 49615.20599999997,
      "d": 467.94703333333746,
      "v": 80
    },
    {
      "midi": 57,
      "hit": false,
      "t": 49999.81999999997,
      "d": 330.1270166666727,
      "v": 80
    },
    {
      "midi": 60,
      "hit": false,
      "t": 49999.81999999997,
      "d": 362.1781833333371,
      "v": 80
    },
    {
      "midi": 65,
      "hit": false,
      "t": 50256.22933333331,
      "d": 248.39654166666878,
      "v": 100
    },
    {
      "midi": 53,
      "hit": false,
      "t": 50384.43399999997,
      "d": 65.70489166666812,
      "v": 80
    },
    {
      "midi": 67,
      "hit": false,
      "t": 50512.638666666644,
      "d": 232.37095833333296,
      "v": 100
    },
    {
      "midi": 53,
      "hit": false,
      "t": 50769.04799999997,
      "d": 602.5619333333307,
      "v": 80
    },
    {
      "midi": 69,
      "hit": false,
      "t": 50769.04799999997,
      "d": 1163.457349999997,
      "v": 100
    },
    {
      "midi": 62,
      "hit": false,
      "t": 50769.04799999997,
      "d": 2072.107925000004,
      "v": 80
    },
    {
      "midi": 65,
      "hit": false,
      "t": 50769.04799999997,
      "d": 2355.7607500000013,
      "v": 80
    },
    {
      "midi": 46,
      "hit": false,
      "t": 50769.04799999997,
      "d": 2708.323583333331,
      "v": 80
    },
    {
      "midi": 60,
      "hit": false,
      "t": 51153.66199999997,
      "d": 665.0617083333345,
      "v": 80
    },
    {
      "midi": 53,
      "hit": false,
      "t": 51538.27599999997,
      "d": 413.4600500000015,
      "v": 80
    },
    {
      "midi": 60,
      "hit": false,
      "t": 51922.88999999997,
      "d": 657.0489166666739,
      "v": 80
    },
    {
      "midi": 53,
      "hit": false,
      "t": 52307.50399999997,
      "d": 1133.0087416666647,
      "v": 80
    },
    {
      "midi": 89,
      "hit": false,
      "t": 52563.91333333331,
      "d": 195.51211666667223,
      "v": 100
    },
    {
      "midi": 74,
      "hit": false,
      "t": 52563.91333333331,
      "d": 294.87073333333683,
      "v": 80
    },
    {
      "midi": 88,
      "hit": false,
      "t": 52820.322666666645,
      "d": 290.0630583333332,
      "v": 100
    },
    {
      "midi": 76,
      "hit": false,
      "t": 52820.322666666645,
      "d": 299.6784083333332,
      "v": 80
    },
    {
      "midi": 86,
      "hit": false,
      "t": 53076.73199999998,
      "d": 222.75560833332565,
      "v": 100
    },
    {
      "midi": 77,
      "hit": false,
      "t": 53076.73199999998,
      "d": 282.050266666658,
      "v": 80
    },
    {
      "midi": 60,
      "hit": false,
      "t": 53076.73199999998,
      "d": 374.9986499999868,
      "v": 80
    },
    {
      "midi": 84,
      "hit": false,
      "t": 53333.141333333304,
      "d": 243.58886666666513,
      "v": 100
    },
    {
      "midi": 79,
      "hit": false,
      "t": 53333.141333333304,
      "d": 274.03747499999736,
      "v": 80
    },
    {
      "midi": 65,
      "hit": false,
      "t": 53461.34599999997,
      "d": 357.3705083333334,
      "v": 80
    },
    {
      "midi": 81,
      "hit": false,
      "t": 53589.55066666663,
      "d": 237.17863333333662,
      "v": 100
    },
    {
      "midi": 52,
      "hit": false,
      "t": 53845.95999999997,
      "d": 932.6889499999961,
      "v": 80
    },
    {
      "midi": 57,
      "hit": false,
      "t": 53845.95999999997,
      "d": 959.9324416666641,
      "v": 80
    },
    {
      "midi": 79,
      "hit": false,
      "t": 53845.95999999997,
      "d": 1032.0475666666607,
      "v": 100
    },
    {
      "midi": 64,
      "hit": false,
      "t": 53845.95999999997,
      "d": 1126.598508333329,
      "v": 80
    },
    {
      "midi": 60,
      "hit": false,
      "t": 53845.95999999997,
      "d": 1405.44365833333,
      "v": 80
    },
    {
      "midi": 45,
      "hit": false,
      "t": 53845.95999999997,
      "d": 2588.1317083333415,
      "v": 80
    },
    {
      "midi": 67,
      "hit": false,
      "t": 54615.187999999966,
      "d": 407.0498166666657,
      "v": 80
    },
    {
      "midi": 76,
      "hit": false,
      "t": 54999.80199999997,
      "d": 368.5884166666656,
      "v": 80
    },
    {
      "midi": 53,
      "hit": false,
      "t": 55384.41599999997,
      "d": 471.1521500000017,
      "v": 80
    },
    {
      "midi": 57,
      "hit": false,
      "t": 55384.41599999997,
      "d": 967.9452333333393,
      "v": 80
    },
    {
      "midi": 60,
      "hit": false,
      "t": 55384.41599999997,
      "d": 995.1887250000073,
      "v": 80
    },
    {
      "midi": 62,
      "hit": false,
      "t": 55384.41599999997,
      "d": 1065.701291666679,
      "v": 80
    },
    {
      "midi": 50,
      "hit": false,
      "t": 55384.41599999997,
      "d": 1075.3166416666718,
      "v": 80
    },
    {
      "midi": 77,
      "hit": false,
      "t": 55384.41599999997,
      "d": 1392.6231916666657,
      "v": 80
    },
    {
      "midi": 65,
      "hit": false,
      "t": 55384.41599999997,
      "d": 1496.789483333334,
      "v": 80
    },
    {
      "midi": 53,
      "hit": false,
      "t": 56153.64399999997,
      "d": 301.2809666666726,
      "v": 80
    },
    {
      "midi": 74,
      "hit": false,
      "t": 56345.95099999997,
      "d": 261.21700833333307,
      "v": 80
    },
    {
      "midi": 57,
      "hit": false,
      "t": 56538.25799999997,
      "d": 185.89676666666492,
      "v": 80
    },
    {
      "midi": 72,
      "hit": false,
      "t": 56538.25799999997,
      "d": 333.3321333333297,
      "v": 80
    },
    {
      "midi": 55,
      "hit": false,
      "t": 56922.87199999997,
      "d": 788.4587000000029,
      "v": 80
    },
    {
      "midi": 70,
      "hit": false,
      "t": 56922.87199999997,
      "d": 983.9708166666678,
      "v": 80
    },
    {
      "midi": 62,
      "hit": false,
      "t": 56922.87199999997,
      "d": 1221.1494499999972,
      "v": 80
    },
    {
      "midi": 50,
      "hit": false,
      "t": 56922.87199999997,
      "d": 1256.405733333333,
      "v": 80
    },
    {
      "midi": 58,
      "hit": false,
      "t": 56922.87199999997,
      "d": 1483.9690166666696,
      "v": 80
    },
    {
      "midi": 43,
      "hit": false,
      "t": 56922.87199999997,
      "d": 2588.131708333327,
      "v": 80
    },
    {
      "midi": 67,
      "hit": false,
      "t": 57692.09999999997,
      "d": 293.2681749999974,
      "v": 80
    },
    {
      "midi": 55,
      "hit": false,
      "t": 58076.71399999996,
      "d": 1368.5848166666692,
      "v": 80
    },
    {
      "midi": 52,
      "hit": false,
      "t": 58461.32799999997,
      "d": 562.4979749999984,
      "v": 80
    },
    {
      "midi": 48,
      "hit": false,
      "t": 58461.32799999997,
      "d": 1073.7140833333178,
      "v": 80
    },
    {
      "midi": 64,
      "hit": false,
      "t": 58461.32799999997,
      "d": 1411.8538916666512,
      "v": 80
    },
    {
      "midi": 60,
      "hit": false,
      "t": 58461.32799999997,
      "d": 1413.4564499999833,
      "v": 80
    },
    {
      "midi": 52,
      "hit": false,
      "t": 59230.55599999997,
      "d": 246.79398333332938,
      "v": 80
    },
    {
      "midi": 55,
      "hit": false,
      "t": 59615.169999999955,
      "d": 248.39654166666878,
      "v": 80
    },
    {
      "midi": 48,
      "hit": false,
      "t": 59999.783999999956,
      "d": 1056.0859416666717,
      "v": 80
    },
    {
      "midi": 53,
      "hit": false,
      "t": 59999.783999999956,
      "d": 1065.7012916666718,
      "v": 80
    },
    {
      "midi": 57,
      "hit": false,
      "t": 59999.783999999956,
      "d": 1967.941633333343,
      "v": 80
    },
    {
      "midi": 60,
      "hit": false,
      "t": 59999.783999999956,
      "d": 2190.697241666676,
      "v": 80
    },
    {
      "midi": 41,
      "hit": false,
      "t": 59999.783999999956,
      "d": 2453.516808333341,
      "v": 80
    },
    {
      "midi": 65,
      "hit": false,
      "t": 60769.01199999996,
      "d": 633.0105416666702,
      "v": 80
    },
    {
      "midi": 53,
      "hit": false,
      "t": 61153.62599999996,
      "d": 692.3052000000025,
      "v": 80
    },
    {
      "midi": 63,
      "hit": false,
      "t": 61538.23999999996,
      "d": 780.445908333335,
      "v": 80
    },
    {
      "midi": 48,
      "hit": false,
      "t": 61538.23999999996,
      "d": 935.8940666666676,
      "v": 80
    },
    {
      "midi": 81,
      "hit": false,
      "t": 61922.85399999996,
      "d": 381.40888333333714,
      "v": 100
    },
    {
      "midi": 53,
      "hit": false,
      "t": 61922.85399999996,
      "d": 806.0868416666635,
      "v": 80
    },
    {
      "midi": 79,
      "hit": false,
      "t": 62307.467999999964,
      "d": 381.40888333332987,
      "v": 100
    },
    {
      "midi": 57,
      "hit": false,
      "t": 62307.467999999964,
      "d": 431.08819166666217,
      "v": 80
    },
    {
      "midi": 77,
      "hit": false,
      "t": 62692.08199999996,
      "d": 426.2805166666658,
      "v": 100
    },
    {
      "midi": 65,
      "hit": false,
      "t": 63076.69599999996,
      "d": 312.4988750000048,
      "v": 80
    },
    {
      "midi": 58,
      "hit": false,
      "t": 63076.69599999996,
      "d": 749.9973000000027,
      "v": 80
    },
    {
      "midi": 53,
      "hit": false,
      "t": 63076.69599999996,
      "d": 818.9073083333351,
      "v": 80
    },
    {
      "midi": 62,
      "hit": false,
      "t": 63076.69599999996,
      "d": 1152.239441666672,
      "v": 80
    },
    {
      "midi": 46,
      "hit": false,
      "t": 63076.69599999996,
      "d": 1177.8803750000006,
      "v": 80
    },
    {
      "midi": 81,
      "hit": false,
      "t": 63076.69599999996,
      "d": 1588.1353083333306,
      "v": 100
    },
    {
      "midi": 65,
      "hit": false,
      "t": 63845.92399999996,
      "d": 326.9219000000012,
      "v": 80
    },
    {
      "midi": 70,
      "hit": false,
      "t": 63845.92399999996,
      "d": 357.3705083333334,
      "v": 80
    },
    {
      "midi": 53,
      "hit": false,
      "t": 64230.537999999964,
      "d": 283.6528249999974,
      "v": 80
    },
    {
      "midi": 60,
      "hit": false,
      "t": 64615.15199999996,
      "d": 671.4719416666703,
      "v": 80
    },
    {
      "midi": 64,
      "hit": false,
      "t": 64615.15199999996,
      "d": 774.0356749999919,
      "v": 80
    },
    {
      "midi": 46,
      "hit": false,
      "t": 64615.15199999996,
      "d": 1121.7908333333326,
      "v": 80
    },
    {
      "midi": 67,
      "hit": false,
      "t": 64871.561333333295,
      "d": 290.0630583333332,
      "v": 100
    },
    {
      "midi": 72,
      "hit": false,
      "t": 64871.561333333295,
      "d": 318.9091083333333,
      "v": 80
    },
    {
      "midi": 76,
      "hit": false,
      "t": 64871.561333333295,
      "d": 456.729124999998,
      "v": 80
    },
    {
      "midi": 70,
      "hit": false,
      "t": 65127.97066666663,
      "d": 205.1274666666577,
      "v": 100
    },
    {
      "midi": 74,
      "hit": false,
      "t": 65127.97066666663,
      "d": 209.9351416666541,
      "v": 80
    },
    {
      "midi": 77,
      "hit": false,
      "t": 65127.97066666663,
      "d": 219.55049166665412,
      "v": 80
    },
    {
      "midi": 79,
      "hit": false,
      "t": 65384.379999999954,
      "d": 272.4349166666725,
      "v": 100
    },
    {
      "midi": 76,
      "hit": false,
      "t": 65384.379999999954,
      "d": 278.845150000001,
      "v": 100
    },
    {
      "midi": 60,
      "hit": false,
      "t": 65384.379999999954,
      "d": 516.0237833333304,
      "v": 80
    },
    {
      "midi": 74,
      "hit": false,
      "t": 65640.78933333329,
      "d": 203.52490833333286,
      "v": 100
    },
    {
      "midi": 77,
      "hit": false,
      "t": 65640.78933333329,
      "d": 266.0246833333222,
      "v": 100
    },
    {
      "midi": 67,
      "hit": false,
      "t": 65768.99399999996,
      "d": 362.17818333330797,
      "v": 80
    },
    {
      "midi": 76,
      "hit": false,
      "t": 65897.19866666662,
      "d": 174.67885833332548,
      "v": 100
    },
    {
      "midi": 72,
      "hit": false,
      "t": 65897.19866666662,
      "d": 189.1018833333219,
      "v": 100
    },
    {
      "midi": 57,
      "hit": false,
      "t": 66153.60799999993,
      "d": 334.93469166665454,
      "v": 80
    },
    {
      "midi": 60,
      "hit": false,
      "t": 66153.60799999993,
      "d": 443.90865833332646,
      "v": 80
    },
    {
      "midi": 64,
      "hit": false,
      "t": 66153.60799999993,
      "d": 511.2161083333194,
      "v": 80
    },
    {
      "midi": 52,
      "hit": false,
      "t": 66153.60799999993,
      "d": 1176.277816666654,
      "v": 80
    },
    {
      "midi": 69,
      "hit": false,
      "t": 66153.60799999993,
      "d": 1298.072249999983,
      "v": 100
    },
    {
      "midi": 72,
      "hit": false,
      "t": 66153.60799999993,
      "d": 1330.1234166666545,
      "v": 100
    },
    {
      "midi": 45,
      "hit": false,
      "t": 66153.60799999993,
      "d": 2624.9905499999877,
      "v": 80
    },
    {
      "midi": 57,
      "hit": false,
      "t": 66538.22199999992,
      "d": 2225.95352499999,
      "v": 80
    },
    {
      "midi": 60,
      "hit": false,
      "t": 66922.83599999992,
      "d": 620.1900750000059,
      "v": 80
    },
    {
      "midi": 60,
      "hit": false,
      "t": 67692.06399999993,
      "d": 464.7419166666514,
      "v": 80
    },
    {
      "midi": 53,
      "hit": false,
      "t": 67692.06399999993,
      "d": 480.7674999999872,
      "v": 80
    },
    {
      "midi": 62,
      "hit": false,
      "t": 67692.06399999993,
      "d": 788.4586999999883,
      "v": 80
    },
    {
      "midi": 50,
      "hit": false,
      "t": 67692.06399999993,
      "d": 1124.9959499999968,
      "v": 80
    },
    {
      "midi": 65,
      "hit": false,
      "t": 67692.06399999993,
      "d": 2115.376999999993,
      "v": 80
    },
    {
      "midi": 53,
      "hit": false,
      "t": 68461.29199999991,
      "d": 315.703991666669,
      "v": 80
    },
    {
      "midi": 62,
      "hit": false,
      "t": 68845.90599999992,
      "d": 320.5116666666727,
      "v": 80
    },
    {
      "midi": 58,
      "hit": false,
      "t": 69230.51999999992,
      "d": 395.83190833333356,
      "v": 80
    },
    {
      "midi": 62,
      "hit": false,
      "t": 69230.51999999992,
      "d": 458.3316833333374,
      "v": 80
    },
    {
      "midi": 50,
      "hit": false,
      "t": 69230.51999999992,
      "d": 1208.3289833333401,
      "v": 80
    },
    {
      "midi": 43,
      "hit": false,
      "t": 69230.51999999992,
      "d": 2556.08054166667,
      "v": 80
    },
    {
      "midi": 55,
      "hit": false,
      "t": 69230.51999999992,
      "d": 2596.1445000000094,
      "v": 80
    },
    {
      "midi": 58,
      "hit": false,
      "t": 69999.74799999992,
      "d": 713.138458333342,
      "v": 80
    },
    {
      "midi": 65,
      "hit": false,
      "t": 70384.36199999992,
      "d": 189.10188333333645,
      "v": 80
    },
    {
      "midi": 52,
      "hit": false,
      "t": 70768.97599999992,
      "d": 485.57517499999085,
      "v": 80
    },
    {
      "midi": 48,
      "hit": false,
      "t": 70768.97599999992,
      "d": 1044.8680333333323,
      "v": 80
    },
    {
      "midi": 58,
      "hit": false,
      "t": 70768.97599999992,
      "d": 1197.111075000008,
      "v": 80
    },
    {
      "midi": 60,
      "hit": false,
      "t": 70768.97599999992,
      "d": 1342.9438833333406,
      "v": 80
    },
    {
      "midi": 64,
      "hit": false,
      "t": 70768.97599999992,
      "d": 1427.8794750000088,
      "v": 80
    },
    {
      "midi": 52,
      "hit": false,
      "t": 71538.20399999991,
      "d": 246.79398333333666,
      "v": 80
    },
    {
      "midi": 55,
      "hit": false,
      "t": 71922.81799999993,
      "d": 222.75560833333293,
      "v": 80
    },
    {
      "midi": 48,
      "hit": false,
      "t": 72307.43199999993,
      "d": 995.188725,
      "v": 80
    },
    {
      "midi": 53,
      "hit": false,
      "t": 72307.43199999993,
      "d": 1027.2398916666716,
      "v": 80
    },
    {
      "midi": 57,
      "hit": false,
      "t": 72307.43199999993,
      "d": 1471.148549999998,
      "v": 80
    },
    {
      "midi": 60,
      "hit": false,
      "t": 72307.43199999993,
      "d": 1516.0201833333413,
      "v": 80
    },
    {
      "midi": 41,
      "hit": false,
      "t": 72307.43199999993,
      "d": 2817.297550000003,
      "v": 80
    },
    {
      "midi": 65,
      "hit": false,
      "t": 73076.65999999993,
      "d": 1865.3778999999922,
      "v": 80
    },
    {
      "midi": 53,
      "hit": false,
      "t": 73461.27399999993,
      "d": 1105.7652499999967,
      "v": 80
    },
    {
      "midi": 77,
      "hit": false,
      "t": 73669.60658333327,
      "d": 134.6149000000005,
      "v": 80
    },
    {
      "midi": 76,
      "hit": false,
      "t": 73714.4782166666,
      "d": 158.65327500000421,
      "v": 80
    },
    {
      "midi": 75,
      "hit": false,
      "t": 73780.18310833327,
      "d": 113.78164166666102,
      "v": 80
    },
    {
      "midi": 48,
      "hit": false,
      "t": 73845.88799999993,
      "d": 1227.5596833333257,
      "v": 80
    },
    {
      "midi": 57,
      "hit": false,
      "t": 73845.88799999993,
      "d": 1240.3801499999972,
      "v": 80
    },
    {
      "midi": 74,
      "hit": false,
      "t": 73882.7468416666,
      "d": 1411.853891666673,
      "v": 80
    },
    {
      "midi": 60,
      "hit": false,
      "t": 74615.11599999992,
      "d": 474.35726666667324,
      "v": 80
    },
    {
      "midi": 53,
      "hit": false,
      "t": 74999.72999999992,
      "d": 203.5249083333474,
      "v": 80
    },
    {
      "midi": 62,
      "hit": false,
      "t": 75384.34399999994,
      "d": 1134.6113000000041,
      "v": 80
    },
    {
      "midi": 65,
      "hit": false,
      "t": 75384.34399999994,
      "d": 1139.4189750000078,
      "v": 80
    },
    {
      "midi": 48,
      "hit": false,
      "t": 75384.34399999994,
      "d": 1149.0343250000005,
      "v": 80
    },
    {
      "midi": 58,
      "hit": false,
      "t": 75384.34399999994,
      "d": 1197.1110749999934,
      "v": 80
    },
    {
      "midi": 62,
      "hit": false,
      "t": 76922.79999999993,
      "d": 799.6766083333205,
      "v": 80
    },
    {
      "midi": 58,
      "hit": false,
      "t": 76922.79999999993,
      "d": 825.317541666649,
      "v": 80
    },
    {
      "midi": 64,
      "hit": false,
      "t": 76922.79999999993,
      "d": 886.2147583333135,
      "v": 80
    },
    {
      "midi": 48,
      "hit": false,
      "t": 76922.79999999993,
      "d": 1032.0475666666462,
      "v": 80
    },
    {
      "midi": 48,
      "hit": false,
      "t": 78461.2559999999,
      "d": 1177.880375000008,
      "v": 80
    },
    {
      "midi": 57,
      "hit": false,
      "t": 78461.2559999999,
      "d": 1365.379700000005,
      "v": 80
    },
    {
      "midi": 64,
      "hit": false,
      "t": 78461.2559999999,
      "d": 1386.2129583333444,
      "v": 80
    },
    {
      "midi": 60,
      "hit": false,
      "t": 78461.2559999999,
      "d": 1389.4180750000087,
      "v": 80
    },
    {
      "midi": 57,
      "hit": false,
      "t": 79999.71199999991,
      "d": 956.7273249999853,
      "v": 80
    },
    {
      "midi": 60,
      "hit": false,
      "t": 79999.71199999991,
      "d": 971.1503499999817,
      "v": 80
    },
    {
      "midi": 65,
      "hit": false,
      "t": 79999.71199999991,
      "d": 971.1503499999817,
      "v": 80
    },
    {
      "midi": 48,
      "hit": false,
      "t": 79999.71199999991,
      "d": 996.7912833333103,
      "v": 80
    },
    {
      "midi": 58,
      "hit": false,
      "t": 81538.16799999989,
      "d": 1048.073149999982,
      "v": 80
    },
    {
      "midi": 65,
      "hit": false,
      "t": 81538.16799999989,
      "d": 1078.5217583333142,
      "v": 80
    },
    {
      "midi": 62,
      "hit": false,
      "t": 81538.16799999989,
      "d": 1083.3294333333179,
      "v": 80
    },
    {
      "midi": 48,
      "hit": false,
      "t": 81538.16799999989,
      "d": 1115.3805999999895,
      "v": 80
    },
    {
      "midi": 62,
      "hit": false,
      "t": 83076.62399999988,
      "d": 891.0224333333317,
      "v": 80
    },
    {
      "midi": 64,
      "hit": false,
      "t": 83076.62399999988,
      "d": 905.4454583333281,
      "v": 80
    },
    {
      "midi": 58,
      "hit": false,
      "t": 83076.62399999988,
      "d": 908.6505749999924,
      "v": 80
    },
    {
      "midi": 48,
      "hit": false,
      "t": 83076.62399999988,
      "d": 975.9580249999854,
      "v": 80
    },
    {
      "midi": 57,
      "hit": false,
      "t": 84615.07999999987,
      "d": 2266.017483333344,
      "v": 80
    },
    {
      "midi": 60,
      "hit": false,
      "t": 84615.07999999987,
      "d": 2278.8379500000156,
      "v": 80
    },
    {
      "midi": 53,
      "hit": false,
      "t": 84615.07999999987,
      "d": 2682.682650000017,
      "v": 80
    },
    {
      "midi": 41,
      "hit": false,
      "t": 84615.07999999987,
      "d": 2828.5154583333497,
      "v": 80
    },
    {
      "midi": 65,
      "hit": false,
      "t": 86153.53599999988,
      "d": 743.5870666666742,
      "v": 80
    },
    {
      "midi": 48,
      "hit": false,
      "t": 86153.53599999988,
      "d": 927.881275000007,
      "v": 80
    },
    {
      "midi": 57,
      "hit": false,
      "t": 86922.76399999988,
      "d": 394.2293500000087,
      "v": 80
    },
    {
      "midi": 60,
      "hit": false,
      "t": 86922.76399999988,
      "d": 416.66516666667303,
      "v": 80
    },
    {
      "midi": 65,
      "hit": false,
      "t": 86922.76399999988,
      "d": 504.80587500000547,
      "v": 80
    },
    {
      "midi": 65,
      "hit": false,
      "t": 87691.99199999988,
      "d": 1112.1754833333398,
      "v": 80
    },
    {
      "midi": 48,
      "hit": false,
      "t": 87691.99199999988,
      "d": 1128.2010666666756,
      "v": 80
    },
    {
      "midi": 62,
      "hit": false,
      "t": 87691.99199999988,
      "d": 1128.2010666666756,
      "v": 80
    },
    {
      "midi": 58,
      "hit": false,
      "t": 87691.99199999988,
      "d": 1137.8164166666684,
      "v": 80
    },
    {
      "midi": 64,
      "hit": false,
      "t": 89230.44799999989,
      "d": 1001.598958333343,
      "v": 80
    },
    {
      "midi": 58,
      "hit": false,
      "t": 89230.44799999989,
      "d": 1025.6373333333468,
      "v": 80
    },
    {
      "midi": 48,
      "hit": false,
      "t": 89230.44799999989,
      "d": 1076.9192000000185,
      "v": 80
    },
    {
      "midi": 62,
      "hit": false,
      "t": 89422.75499999989,
      "d": 708.3307833333383,
      "v": 80
    },
    {
      "midi": 48,
      "hit": false,
      "t": 90768.90399999991,
      "d": 1272.4313166666689,
      "v": 80
    },
    {
      "midi": 57,
      "hit": false,
      "t": 90768.90399999991,
      "d": 1386.2129583333299,
      "v": 80
    },
    {
      "midi": 64,
      "hit": false,
      "t": 90768.90399999991,
      "d": 1418.2641250000015,
      "v": 80
    },
    {
      "midi": 60,
      "hit": false,
      "t": 90768.90399999991,
      "d": 1421.4692416666658,
      "v": 80
    },
    {
      "midi": 57,
      "hit": false,
      "t": 92307.35999999991,
      "d": 1036.855241666679,
      "v": 80
    },
    {
      "midi": 65,
      "hit": false,
      "t": 92307.35999999991,
      "d": 1064.098733333347,
      "v": 80
    },
    {
      "midi": 60,
      "hit": false,
      "t": 92307.35999999991,
      "d": 1068.9064083333506,
      "v": 80
    },
    {
      "midi": 48,
      "hit": false,
      "t": 92307.35999999991,
      "d": 1073.7140833333542,
      "v": 80
    },
    {
      "midi": 65,
      "hit": false,
      "t": 93845.81599999993,
      "d": 1144.2266499999969,
      "v": 80
    },
    {
      "midi": 62,
      "hit": false,
      "t": 93845.81599999993,
      "d": 1269.22619999999,
      "v": 80
    },
    {
      "midi": 58,
      "hit": false,
      "t": 93845.81599999993,
      "d": 1293.2645749999938,
      "v": 80
    },
    {
      "midi": 48,
      "hit": false,
      "t": 93845.81599999993,
      "d": 1370.187374999994,
      "v": 80
    },
    {
      "midi": 62,
      "hit": false,
      "t": 95384.27199999992,
      "d": 951.9196499999962,
      "v": 80
    },
    {
      "midi": 64,
      "hit": false,
      "t": 95384.27199999992,
      "d": 964.7401166666677,
      "v": 80
    },
    {
      "midi": 58,
      "hit": false,
      "t": 95384.27199999992,
      "d": 971.1503499999963,
      "v": 80
    },
    {
      "midi": 48,
      "hit": false,
      "t": 95384.27199999992,
      "d": 999.9963999999891,
      "v": 80
    },
    {
      "midi": 57,
      "hit": false,
      "t": 96922.72799999992,
      "d": 1054.483383333325,
      "v": 80
    },
    {
      "midi": 60,
      "hit": false,
      "t": 96922.72799999992,
      "d": 1064.0987333333178,
      "v": 80
    },
    {
      "midi": 53,
      "hit": false,
      "t": 96922.72799999992,
      "d": 1076.9191999999894,
      "v": 80
    },
    {
      "midi": 41,
      "hit": false,
      "t": 96922.72799999992,
      "d": 1094.54734166665,
      "v": 80
    },
    {
      "midi": 48,
      "hit": false,
      "t": 96922.72799999992,
      "d": 1124.9959499999823,
      "v": 80
    },
    {
      "midi": 65,
      "hit": false,
      "t": 97179.13733333324,
      "d": 306.0886416666617,
      "v": 100
    },
    {
      "midi": 67,
      "hit": false,
      "t": 97435.54666666657,
      "d": 280.44770833333314,
      "v": 100
    },
    {
      "midi": 69,
      "hit": false,
      "t": 97691.9559999999,
      "d": 198.71723333334376,
      "v": 100
    },
    {
      "midi": 67,
      "hit": false,
      "t": 97948.36533333325,
      "d": 286.8579416666471,
      "v": 100
    },
    {
      "midi": 74,
      "hit": false,
      "t": 98204.77466666656,
      "d": 301.28096666665806,
      "v": 100
    },
    {
      "midi": 75,
      "hit": false,
      "t": 98461.18399999989,
      "d": 221.15304999999353,
      "v": 100
    },
    {
      "midi": 55,
      "hit": false,
      "t": 98461.18399999989,
      "d": 274.0374749999901,
      "v": 80
    },
    {
      "midi": 51,
      "hit": false,
      "t": 98461.18399999989,
      "d": 286.85794166666165,
      "v": 80
    },
    {
      "midi": 60,
      "hit": false,
      "t": 98461.18399999989,
      "d": 315.7039916666545,
      "v": 80
    },
    {
      "midi": 48,
      "hit": false,
      "t": 98461.18399999989,
      "d": 415.0626083333191,
      "v": 80
    },
    {
      "midi": 77,
      "hit": false,
      "t": 98717.59333333322,
      "d": 241.98630833331845,
      "v": 100
    },
    {
      "midi": 79,
      "hit": false,
      "t": 98974.00266666654,
      "d": 233.9735166666651,
      "v": 100
    },
    {
      "midi": 62,
      "hit": false,
      "t": 99230.41199999987,
      "d": 134.6149000000005,
      "v": 80
    },
    {
      "midi": 53,
      "hit": false,
      "t": 99230.41199999987,
      "d": 330.12701666666544,
      "v": 80
    },
    {
      "midi": 48,
      "hit": false,
      "t": 99230.41199999987,
      "d": 336.53724999999395,
      "v": 80
    },
    {
      "midi": 41,
      "hit": false,
      "t": 99230.41199999987,
      "d": 342.94748333332245,
      "v": 80
    },
    {
      "midi": 57,
      "hit": false,
      "t": 99230.41199999987,
      "d": 344.55004166666185,
      "v": 80
    },
    {
      "midi": 60,
      "hit": false,
      "t": 99230.41199999987,
      "d": 374.9986499999941,
      "v": 80
    },
    {
      "midi": 81,
      "hit": false,
      "t": 99230.41199999987,
      "d": 687.4975249999989,
      "v": 100
    },
    {
      "midi": 46,
      "hit": false,
      "t": 99999.63999999987,
      "d": 1181.0854916666722,
      "v": 80
    },
    {
      "midi": 65,
      "hit": false,
      "t": 99999.63999999987,
      "d": 1184.2906083333364,
      "v": 80
    },
    {
      "midi": 62,
      "hit": false,
      "t": 99999.63999999987,
      "d": 1213.1366583333293,
      "v": 80
    },
    {
      "midi": 58,
      "hit": false,
      "t": 99999.63999999987,
      "d": 1235.5724749999936,
      "v": 80
    },
    {
      "midi": 70,
      "hit": false,
      "t": 100768.86799999987,
      "d": 459.9342416666623,
      "v": 80
    },
    {
      "midi": 53,
      "hit": false,
      "t": 101153.48199999987,
      "d": 133.0123416666611,
      "v": 80
    },
    {
      "midi": 57,
      "hit": false,
      "t": 101538.09599999987,
      "d": 1269.2262000000046,
      "v": 80
    },
    {
      "midi": 61,
      "hit": false,
      "t": 101538.09599999987,
      "d": 1357.366908333337,
      "v": 80
    },
    {
      "midi": 45,
      "hit": false,
      "t": 101538.09599999987,
      "d": 1394.2257499999978,
      "v": 80
    },
    {
      "midi": 64,
      "hit": false,
      "t": 101538.09599999987,
      "d": 1423.0717999999906,
      "v": 80
    },
    {
      "midi": 69,
      "hit": false,
      "t": 102115.01699999988,
      "d": 799.676608333335,
      "v": 80
    },
    {
      "midi": 52,
      "hit": false,
      "t": 102691.93799999988,
      "d": 243.58886666665785,
      "v": 80
    },
    {
      "midi": 57,
      "hit": false,
      "t": 102884.24499999988,
      "d": 169.87118333330727,
      "v": 80
    },
    {
      "midi": 57,
      "hit": false,
      "t": 103076.55199999985,
      "d": 456.72912499998347,
      "v": 80
    },
    {
      "midi": 50,
      "hit": false,
      "t": 103076.55199999985,
      "d": 615.3823999999877,
      "v": 80
    },
    {
      "midi": 62,
      "hit": false,
      "t": 103076.55199999985,
      "d": 828.5226583333279,
      "v": 80
    },
    {
      "midi": 65,
      "hit": false,
      "t": 103076.55199999985,
      "d": 850.9584749999922,
      "v": 80
    },
    {
      "midi": 57,
      "hit": false,
      "t": 103653.47299999984,
      "d": 349.3577166666655,
      "v": 80
    },
    {
      "midi": 50,
      "hit": false,
      "t": 103845.77999999984,
      "d": 429.48563333333004,
      "v": 80
    },
    {
      "midi": 65,
      "hit": false,
      "t": 104038.08699999984,
      "d": 131.40978333333624,
      "v": 80
    },
    {
      "midi": 62,
      "hit": false,
      "t": 104038.08699999984,
      "d": 141.025133333329,
      "v": 80
    },
    {
      "midi": 57,
      "hit": false,
      "t": 104038.08699999984,
      "d": 157.0507166666648,
      "v": 80
    },
    {
      "midi": 48,
      "hit": false,
      "t": 104615.00799999984,
      "d": 246.7939833333512,
      "v": 80
    },
    {
      "midi": 60,
      "hit": false,
      "t": 104615.00799999984,
      "d": 616.9849583333562,
      "v": 80
    },
    {
      "midi": 55,
      "hit": false,
      "t": 104615.00799999984,
      "d": 618.5875166666956,
      "v": 80
    },
    {
      "midi": 63,
      "hit": false,
      "t": 104615.00799999984,
      "d": 713.1384583333565,
      "v": 80
    },
    {
      "midi": 41,
      "hit": false,
      "t": 105384.23599999986,
      "d": 298.0758499999938,
      "v": 80
    },
    {
      "midi": 60,
      "hit": false,
      "t": 105384.23599999986,
      "d": 370.19097499999043,
      "v": 80
    },
    {
      "midi": 57,
      "hit": false,
      "t": 105384.23599999986,
      "d": 376.60120833331894,
      "v": 80
    },
    {
      "midi": 65,
      "hit": false,
      "t": 105384.23599999986,
      "d": 410.2549333333154,
      "v": 80
    },
    {
      "midi": 58,
      "hit": false,
      "t": 106153.46399999985,
      "d": 871.7917333333316,
      "v": 80
    },
    {
      "midi": 62,
      "hit": false,
      "t": 106153.46399999985,
      "d": 919.8684833333245,
      "v": 80
    },
    {
      "midi": 65,
      "hit": false,
      "t": 106153.46399999985,
      "d": 942.3042999999889,
      "v": 80
    },
    {
      "midi": 46,
      "hit": false,
      "t": 106153.46399999985,
      "d": 1410.2513333333045,
      "v": 80
    },
    {
      "midi": 53,
      "hit": false,
      "t": 106922.69199999985,
      "d": 298.07584999997925,
      "v": 80
    },
    {
      "midi": 58,
      "hit": false,
      "t": 107114.99899999984,
      "d": 277.24259166665433,
      "v": 80
    },
    {
      "midi": 62,
      "hit": false,
      "t": 107114.99899999984,
      "d": 280.4477083333186,
      "v": 80
    },
    {
      "midi": 65,
      "hit": false,
      "t": 107307.30599999982,
      "d": 232.3709583333257,
      "v": 80
    },
    {
      "midi": 48,
      "hit": false,
      "t": 107691.91999999982,
      "d": 676.2796166666667,
      "v": 80
    },
    {
      "midi": 64,
      "hit": false,
      "t": 107691.91999999982,
      "d": 677.8821750000061,
      "v": 80
    },
    {
      "midi": 60,
      "hit": false,
      "t": 107691.91999999982,
      "d": 883.0096416666638,
      "v": 80
    },
    {
      "midi": 67,
      "hit": false,
      "t": 107691.91999999982,
      "d": 1040.0603583333432,
      "v": 80
    },
    {
      "midi": 48,
      "hit": false,
      "t": 108461.14799999983,
      "d": 192.3070000000007,
      "v": 80
    },
    {
      "midi": 64,
      "hit": false,
      "t": 108653.45499999983,
      "d": 94.5509416666755,
      "v": 80
    },
    {
      "midi": 60,
      "hit": false,
      "t": 108653.45499999983,
      "d": 171.47374166667578,
      "v": 80
    },
    {
      "midi": 53,
      "hit": false,
      "t": 109230.37599999984,
      "d": 479.16494166666234,
      "v": 80
    },
    {
      "midi": 41,
      "hit": false,
      "t": 109230.37599999984,
      "d": 629.8054249999986,
      "v": 80
    },
    {
      "midi": 60,
      "hit": false,
      "t": 109230.37599999984,
      "d": 653.8438000000024,
      "v": 80
    },
    {
      "midi": 57,
      "hit": false,
      "t": 109230.37599999984,
      "d": 887.8173166666675,
      "v": 80
    },
    {
      "midi": 65,
      "hit": false,
      "t": 109230.37599999984,
      "d": 927.881275000007,
      "v": 80
    },
    {
      "midi": 53,
      "hit": false,
      "t": 109807.29699999985,
      "d": 451.92144999999437,
      "v": 80
    },
    {
      "midi": 41,
      "hit": false,
      "t": 109999.60399999985,
      "d": 408.652374999976,
      "v": 80
    },
    {
      "midi": 57,
      "hit": false,
      "t": 110191.91099999985,
      "d": 76.92279999998573,
      "v": 80
    },
    {
      "midi": 60,
      "hit": false,
      "t": 110191.91099999985,
      "d": 94.5509416666464,
      "v": 80
    },
    {
      "midi": 65,
      "hit": false,
      "t": 110191.91099999985,
      "d": 94.5509416666464,
      "v": 80
    },
    {
      "midi": 67,
      "hit": false,
      "t": 110768.83199999982,
      "d": 560.8954166666663,
      "v": 80
    },
    {
      "midi": 55,
      "hit": false,
      "t": 110768.83199999982,
      "d": 682.6898499999952,
      "v": 80
    },
    {
      "midi": 48,
      "hit": false,
      "t": 110768.83199999982,
      "d": 695.5103166666668,
      "v": 80
    },
    {
      "midi": 60,
      "hit": false,
      "t": 110768.83199999982,
      "d": 725.958924999999,
      "v": 80
    },
    {
      "midi": 63,
      "hit": false,
      "t": 110768.83199999982,
      "d": 730.7666000000027,
      "v": 80
    },
    {
      "midi": 41,
      "hit": false,
      "t": 111538.05999999982,
      "d": 306.0886416666617,
      "v": 80
    },
    {
      "midi": 57,
      "hit": false,
      "t": 111538.05999999982,
      "d": 397.4344666666584,
      "v": 80
    },
    {
      "midi": 60,
      "hit": false,
      "t": 111538.05999999982,
      "d": 397.4344666666584,
      "v": 80
    },
    {
      "midi": 65,
      "hit": false,
      "t": 111538.05999999982,
      "d": 405.4472583333263,
      "v": 80
    },
    {
      "midi": 53,
      "hit": false,
      "t": 112307.28799999981,
      "d": 695.5103166666522,
      "v": 80
    },
    {
      "midi": 62,
      "hit": false,
      "t": 112307.28799999981,
      "d": 1100.957574999993,
      "v": 80
    },
    {
      "midi": 46,
      "hit": false,
      "t": 112307.28799999981,
      "d": 1262.815966666647,
      "v": 80
    },
    {
      "midi": 65,
      "hit": false,
      "t": 112307.28799999981,
      "d": 1410.2513333333045,
      "v": 80
    },
    {
      "midi": 53,
      "hit": false,
      "t": 113076.5159999998,
      "d": 475.9598249999981,
      "v": 80
    },
    {
      "midi": 62,
      "hit": false,
      "t": 113461.1299999998,
      "d": 173.07629999998608,
      "v": 80
    },
    {
      "midi": 61,
      "hit": false,
      "t": 113845.74399999979,
      "d": 522.4340166666661,
      "v": 80
    },
    {
      "midi": 57,
      "hit": false,
      "t": 113845.74399999979,
      "d": 860.5738249999995,
      "v": 80
    },
    {
      "midi": 52,
      "hit": false,
      "t": 113845.74399999979,
      "d": 974.355466666675,
      "v": 80
    },
    {
      "midi": 45,
      "hit": false,
      "t": 113845.74399999979,
      "d": 1443.90505833333,
      "v": 80
    },
    {
      "midi": 64,
      "hit": false,
      "t": 113845.74399999979,
      "d": 1450.3152916666586,
      "v": 80
    },
    {
      "midi": 61,
      "hit": false,
      "t": 114422.66499999979,
      "d": 352.56283333332976,
      "v": 80
    },
    {
      "midi": 69,
      "hit": false,
      "t": 114422.66499999979,
      "d": 802.8817249999993,
      "v": 80
    },
    {
      "midi": 57,
      "hit": false,
      "t": 114807.27899999979,
      "d": 274.03747500000463,
      "v": 80
    },
    {
      "midi": 61,
      "hit": false,
      "t": 114807.27899999979,
      "d": 330.12701666666544,
      "v": 80
    },
    {
      "midi": 52,
      "hit": false,
      "t": 114999.58599999979,
      "d": 272.43491666666523,
      "v": 80
    },
    {
      "midi": 57,
      "hit": false,
      "t": 115191.89299999979,
      "d": 698.7154333333165,
      "v": 80
    },
    {
      "midi": 50,
      "hit": false,
      "t": 115384.19999999978,
      "d": 653.8438000000024,
      "v": 80
    },
    {
      "midi": 62,
      "hit": false,
      "t": 115384.19999999978,
      "d": 931.0863916666713,
      "v": 80
    },
    {
      "midi": 65,
      "hit": false,
      "t": 115384.19999999978,
      "d": 1174.6752583333437,
      "v": 80
    },
    {
      "midi": 57,
      "hit": false,
      "t": 115961.12099999978,
      "d": 355.76795000000857,
      "v": 80
    },
    {
      "midi": 50,
      "hit": false,
      "t": 116153.42799999978,
      "d": 437.4984250000125,
      "v": 80
    },
    {
      "midi": 62,
      "hit": false,
      "t": 116345.73499999978,
      "d": 174.67885833334003,
      "v": 80
    },
    {
      "midi": 57,
      "hit": false,
      "t": 116345.73499999978,
      "d": 233.97351666667964,
      "v": 80
    },
    {
      "midi": 48,
      "hit": false,
      "t": 116922.6559999998,
      "d": 195.51211666666495,
      "v": 80
    },
    {
      "midi": 55,
      "hit": false,
      "t": 116922.6559999998,
      "d": 580.1261166666663,
      "v": 80
    },
    {
      "midi": 60,
      "hit": false,
      "t": 116922.6559999998,
      "d": 631.407983333338,
      "v": 80
    },
    {
      "midi": 63,
      "hit": false,
      "t": 116922.6559999998,
      "d": 685.894966666674,
      "v": 80
    },
    {
      "midi": 60,
      "hit": false,
      "t": 117691.8839999998,
      "d": 222.75560833333293,
      "v": 80
    },
    {
      "midi": 57,
      "hit": false,
      "t": 117691.8839999998,
      "d": 251.60165833332576,
      "v": 80
    },
    {
      "midi": 41,
      "hit": false,
      "t": 117691.8839999998,
      "d": 259.61444999999367,
      "v": 80
    },
    {
      "midi": 65,
      "hit": false,
      "t": 117691.8839999998,
      "d": 344.55004166666185,
      "v": 80
    },
    {
      "midi": 62,
      "hit": false,
      "t": 118461.11199999979,
      "d": 240.3837499999936,
      "v": 80
    },
    {
      "midi": 58,
      "hit": false,
      "t": 118461.11199999979,
      "d": 261.21700833333307,
      "v": 80
    },
    {
      "midi": 65,
      "hit": false,
      "t": 118461.11199999979,
      "d": 269.229800000001,
      "v": 80
    },
    {
      "midi": 46,
      "hit": false,
      "t": 118461.11199999979,
      "d": 285.2553833333368,
      "v": 80
    },
    {
      "midi": 53,
      "hit": false,
      "t": 118461.11199999979,
      "d": 307.6912000000011,
      "v": 80
    },
    {
      "midi": 45,
      "hit": false,
      "t": 119230.3399999998,
      "d": 290.06305833334045,
      "v": 80
    },
    {
      "midi": 60,
      "hit": false,
      "t": 119230.3399999998,
      "d": 301.2809666666726,
      "v": 80
    },
    {
      "midi": 57,
      "hit": false,
      "t": 119230.3399999998,
      "d": 315.703991666669,
      "v": 80
    },
    {
      "midi": 64,
      "hit": false,
      "t": 119230.3399999998,
      "d": 320.5116666666727,
      "v": 80
    },
    {
      "midi": 58,
      "hit": false,
      "t": 119999.5679999998,
      "d": 315.703991666669,
      "v": 80
    },
    {
      "midi": 62,
      "hit": false,
      "t": 119999.5679999998,
      "d": 326.9219000000012,
      "v": 80
    },
    {
      "midi": 55,
      "hit": false,
      "t": 119999.5679999998,
      "d": 328.5244583333406,
      "v": 80
    },
    {
      "midi": 43,
      "hit": false,
      "t": 119999.5679999998,
      "d": 358.9730666666728,
      "v": 80
    },
    {
      "midi": 48,
      "hit": false,
      "t": 120768.7959999998,
      "d": 341.34492500001215,
      "v": 80
    },
    {
      "midi": 55,
      "hit": false,
      "t": 120768.7959999998,
      "d": 366.98585833334073,
      "v": 80
    },
    {
      "midi": 60,
      "hit": false,
      "t": 120768.7959999998,
      "d": 383.01144166667655,
      "v": 80
    },
    {
      "midi": 64,
      "hit": false,
      "t": 120768.7959999998,
      "d": 389.42167500000505,
      "v": 80
    },
    {
      "midi": 53,
      "hit": false,
      "t": 121538.0239999998,
      "d": 860.5738249999995,
      "v": 80
    },
    {
      "midi": 57,
      "hit": false,
      "t": 121538.0239999998,
      "d": 900.637783333339,
      "v": 80
    },
    {
      "midi": 48,
      "hit": false,
      "t": 121538.0239999998,
      "d": 1043.2654750000074,
      "v": 80
    },
    {
      "midi": 41,
      "hit": false,
      "t": 121538.0239999998,
      "d": 1142.624091666672,
      "v": 80
    },
    {
      "midi": 60,
      "hit": false,
      "t": 121538.0239999998,
      "d": 1176.2778166666685,
      "v": 80
    },
    {
      "midi": 65,
      "hit": false,
      "t": 122114.9449999998,
      "d": 645.8310083333345,
      "v": 80
    },
    {
      "midi": 53,
      "hit": false,
      "t": 122499.5589999998,
      "d": 189.10188333333645,
      "v": 80
    },
    {
      "midi": 57,
      "hit": false,
      "t": 122499.5589999998,
      "d": 198.7172333333292,
      "v": 80
    },
    {
      "midi": 48,
      "hit": false,
      "t": 122691.8659999998,
      "d": 73.71768333333603,
      "v": 80
    },
    {
      "midi": 48,
      "hit": false,
      "t": 123076.4799999998,
      "d": 277.24259166665433,
      "v": 80
    },
    {
      "midi": 60,
      "hit": false,
      "t": 123076.4799999998,
      "d": 597.754258333327,
      "v": 80
    },
    {
      "midi": 55,
      "hit": false,
      "t": 123076.4799999998,
      "d": 607.3696083333198,
      "v": 80
    },
    {
      "midi": 63,
      "hit": false,
      "t": 123076.4799999998,
      "d": 690.7026416666486,
      "v": 80
    },
    {
      "midi": 41,
      "hit": false,
      "t": 123845.70799999978,
      "d": 352.5628333333443,
      "v": 80
    },
    {
      "midi": 65,
      "hit": false,
      "t": 123845.70799999978,
      "d": 381.40888333333714,
      "v": 80
    },
    {
      "midi": 57,
      "hit": false,
      "t": 123845.70799999978,
      "d": 399.0370249999978,
      "v": 80
    },
    {
      "midi": 60,
      "hit": false,
      "t": 123845.70799999978,
      "d": 405.4472583333263,
      "v": 80
    },
    {
      "midi": 46,
      "hit": false,
      "t": 124614.93599999977,
      "d": 1181.0854916666722,
      "v": 80
    },
    {
      "midi": 65,
      "hit": false,
      "t": 124614.93599999977,
      "d": 1184.2906083333364,
      "v": 80
    },
    {
      "midi": 62,
      "hit": false,
      "t": 124614.93599999977,
      "d": 1213.1366583333293,
      "v": 80
    },
    {
      "midi": 58,
      "hit": false,
      "t": 124614.93599999977,
      "d": 1235.5724749999936,
      "v": 80
    },
    {
      "midi": 70,
      "hit": false,
      "t": 125384.16399999977,
      "d": 459.9342416666623,
      "v": 80
    },
    {
      "midi": 53,
      "hit": false,
      "t": 125768.77799999977,
      "d": 133.0123416666611,
      "v": 80
    },
    {
      "midi": 57,
      "hit": false,
      "t": 126153.39199999977,
      "d": 1269.2262000000046,
      "v": 80
    },
    {
      "midi": 61,
      "hit": false,
      "t": 126153.39199999977,
      "d": 1357.366908333337,
      "v": 80
    },
    {
      "midi": 45,
      "hit": false,
      "t": 126153.39199999977,
      "d": 1394.2257499999978,
      "v": 80
    },
    {
      "midi": 64,
      "hit": false,
      "t": 126153.39199999977,
      "d": 1423.0717999999906,
      "v": 80
    },
    {
      "midi": 69,
      "hit": false,
      "t": 126730.31299999978,
      "d": 799.676608333335,
      "v": 80
    },
    {
      "midi": 52,
      "hit": false,
      "t": 127307.23399999978,
      "d": 243.58886666665785,
      "v": 80
    },
    {
      "midi": 57,
      "hit": false,
      "t": 127499.54099999978,
      "d": 169.87118333330727,
      "v": 80
    },
    {
      "midi": 57,
      "hit": false,
      "t": 127691.84799999975,
      "d": 456.72912499998347,
      "v": 80
    },
    {
      "midi": 50,
      "hit": false,
      "t": 127691.84799999975,
      "d": 615.3823999999877,
      "v": 80
    },
    {
      "midi": 62,
      "hit": false,
      "t": 127691.84799999975,
      "d": 828.5226583333279,
      "v": 80
    },
    {
      "midi": 65,
      "hit": false,
      "t": 127691.84799999975,
      "d": 850.9584749999922,
      "v": 80
    },
    {
      "midi": 57,
      "hit": false,
      "t": 128268.76899999974,
      "d": 349.3577166666655,
      "v": 80
    },
    {
      "midi": 50,
      "hit": false,
      "t": 128461.07599999974,
      "d": 429.48563333333004,
      "v": 80
    },
    {
      "midi": 65,
      "hit": false,
      "t": 128653.38299999974,
      "d": 131.40978333333624,
      "v": 80
    },
    {
      "midi": 62,
      "hit": false,
      "t": 128653.38299999974,
      "d": 141.025133333329,
      "v": 80
    },
    {
      "midi": 57,
      "hit": false,
      "t": 128653.38299999974,
      "d": 157.0507166666648,
      "v": 80
    },
    {
      "midi": 48,
      "hit": false,
      "t": 129230.30399999974,
      "d": 246.7939833333512,
      "v": 80
    },
    {
      "midi": 60,
      "hit": false,
      "t": 129230.30399999974,
      "d": 616.9849583333562,
      "v": 80
    },
    {
      "midi": 55,
      "hit": false,
      "t": 129230.30399999974,
      "d": 618.5875166666956,
      "v": 80
    },
    {
      "midi": 63,
      "hit": false,
      "t": 129230.30399999974,
      "d": 713.1384583333565,
      "v": 80
    },
    {
      "midi": 41,
      "hit": false,
      "t": 129999.53199999976,
      "d": 298.0758499999938,
      "v": 80
    },
    {
      "midi": 60,
      "hit": false,
      "t": 129999.53199999976,
      "d": 370.19097499999043,
      "v": 80
    },
    {
      "midi": 57,
      "hit": false,
      "t": 129999.53199999976,
      "d": 376.60120833331894,
      "v": 80
    },
    {
      "midi": 65,
      "hit": false,
      "t": 129999.53199999976,
      "d": 410.2549333333154,
      "v": 80
    },
    {
      "midi": 58,
      "hit": false,
      "t": 130768.75999999975,
      "d": 871.7917333333462,
      "v": 80
    },
    {
      "midi": 62,
      "hit": false,
      "t": 130768.75999999975,
      "d": 919.8684833333537,
      "v": 80
    },
    {
      "midi": 65,
      "hit": false,
      "t": 130768.75999999975,
      "d": 942.304300000018,
      "v": 80
    },
    {
      "midi": 46,
      "hit": false,
      "t": 130768.75999999975,
      "d": 1410.2513333333482,
      "v": 80
    },
    {
      "midi": 53,
      "hit": false,
      "t": 131537.98799999975,
      "d": 298.0758499999938,
      "v": 80
    },
    {
      "midi": 58,
      "hit": false,
      "t": 131730.29499999975,
      "d": 277.2425916666689,
      "v": 80
    },
    {
      "midi": 62,
      "hit": false,
      "t": 131730.29499999975,
      "d": 280.4477083333477,
      "v": 80
    },
    {
      "midi": 65,
      "hit": false,
      "t": 131922.60199999975,
      "d": 232.37095833334024,
      "v": 80
    },
    {
      "midi": 48,
      "hit": false,
      "t": 132307.21599999975,
      "d": 676.2796166666667,
      "v": 80
    },
    {
      "midi": 64,
      "hit": false,
      "t": 132307.21599999975,
      "d": 677.8821750000061,
      "v": 80
    },
    {
      "midi": 60,
      "hit": false,
      "t": 132307.21599999975,
      "d": 883.0096416666638,
      "v": 80
    },
    {
      "midi": 67,
      "hit": false,
      "t": 132307.21599999975,
      "d": 1040.0603583333432,
      "v": 80
    },
    {
      "midi": 48,
      "hit": false,
      "t": 133076.44399999976,
      "d": 192.3070000000007,
      "v": 80
    },
    {
      "midi": 64,
      "hit": false,
      "t": 133268.75099999976,
      "d": 94.5509416666755,
      "v": 80
    },
    {
      "midi": 60,
      "hit": false,
      "t": 133268.75099999976,
      "d": 171.47374166667578,
      "v": 80
    },
    {
      "midi": 53,
      "hit": false,
      "t": 133845.67199999976,
      "d": 479.1649416666769,
      "v": 80
    },
    {
      "midi": 41,
      "hit": false,
      "t": 133845.67199999976,
      "d": 629.8054249999986,
      "v": 80
    },
    {
      "midi": 60,
      "hit": false,
      "t": 133845.67199999976,
      "d": 653.8438000000024,
      "v": 80
    },
    {
      "midi": 57,
      "hit": false,
      "t": 133845.67199999976,
      "d": 887.817316666682,
      "v": 80
    },
    {
      "midi": 65,
      "hit": false,
      "t": 133845.67199999976,
      "d": 927.8812750000216,
      "v": 80
    },
    {
      "midi": 53,
      "hit": false,
      "t": 134422.59299999976,
      "d": 451.92145000002347,
      "v": 80
    },
    {
      "midi": 41,
      "hit": false,
      "t": 134614.89999999976,
      "d": 408.6523750000342,
      "v": 80
    },
    {
      "midi": 57,
      "hit": false,
      "t": 134807.2069999998,
      "d": 76.92280000000028,
      "v": 80
    },
    {
      "midi": 60,
      "hit": false,
      "t": 134807.2069999998,
      "d": 94.5509416666755,
      "v": 80
    },
    {
      "midi": 65,
      "hit": false,
      "t": 134807.2069999998,
      "d": 94.5509416666755,
      "v": 80
    },
    {
      "midi": 67,
      "hit": false,
      "t": 135384.1279999998,
      "d": 560.8954166666372,
      "v": 80
    },
    {
      "midi": 55,
      "hit": false,
      "t": 135384.1279999998,
      "d": 682.6898499999661,
      "v": 80
    },
    {
      "midi": 48,
      "hit": false,
      "t": 135384.1279999998,
      "d": 695.5103166666231,
      "v": 80
    },
    {
      "midi": 60,
      "hit": false,
      "t": 135384.1279999998,
      "d": 725.9589249999553,
      "v": 80
    },
    {
      "midi": 63,
      "hit": false,
      "t": 135384.1279999998,
      "d": 730.7665999999444,
      "v": 80
    },
    {
      "midi": 41,
      "hit": false,
      "t": 136153.35599999974,
      "d": 306.0886416666617,
      "v": 80
    },
    {
      "midi": 57,
      "hit": false,
      "t": 136153.35599999974,
      "d": 397.4344666666584,
      "v": 80
    },
    {
      "midi": 60,
      "hit": false,
      "t": 136153.35599999974,
      "d": 397.4344666666584,
      "v": 80
    },
    {
      "midi": 65,
      "hit": false,
      "t": 136153.35599999974,
      "d": 405.4472583333263,
      "v": 80
    },
    {
      "midi": 53,
      "hit": false,
      "t": 136922.58399999974,
      "d": 695.5103166666813,
      "v": 80
    },
    {
      "midi": 62,
      "hit": false,
      "t": 136922.58399999974,
      "d": 1100.9575750000076,
      "v": 80
    },
    {
      "midi": 46,
      "hit": false,
      "t": 136922.58399999974,
      "d": 1262.815966666676,
      "v": 80
    },
    {
      "midi": 65,
      "hit": false,
      "t": 136922.58399999974,
      "d": 1410.2513333333482,
      "v": 80
    },
    {
      "midi": 53,
      "hit": false,
      "t": 137691.81199999974,
      "d": 475.9598249999981,
      "v": 80
    },
    {
      "midi": 62,
      "hit": false,
      "t": 138076.42599999974,
      "d": 173.07630000001518,
      "v": 80
    },
    {
      "midi": 61,
      "hit": false,
      "t": 138461.03999999975,
      "d": 522.4340166666661,
      "v": 80
    },
    {
      "midi": 57,
      "hit": false,
      "t": 138461.03999999975,
      "d": 860.5738249999995,
      "v": 80
    },
    {
      "midi": 52,
      "hit": false,
      "t": 138461.03999999975,
      "d": 974.3554666666605,
      "v": 80
    },
    {
      "midi": 45,
      "hit": false,
      "t": 138461.03999999975,
      "d": 1443.9050583333592,
      "v": 80
    },
    {
      "midi": 64,
      "hit": false,
      "t": 138461.03999999975,
      "d": 1450.3152916666877,
      "v": 80
    },
    {
      "midi": 61,
      "hit": false,
      "t": 139037.96099999975,
      "d": 352.56283333332976,
      "v": 80
    },
    {
      "midi": 69,
      "hit": false,
      "t": 139037.96099999975,
      "d": 802.8817250000138,
      "v": 80
    },
    {
      "midi": 57,
      "hit": false,
      "t": 139422.57499999975,
      "d": 274.0374749999901,
      "v": 80
    },
    {
      "midi": 61,
      "hit": false,
      "t": 139422.57499999975,
      "d": 330.12701666666544,
      "v": 80
    },
    {
      "midi": 52,
      "hit": false,
      "t": 139614.88199999975,
      "d": 272.4349166666798,
      "v": 80
    },
    {
      "midi": 57,
      "hit": false,
      "t": 139807.18899999975,
      "d": 698.7154333333601,
      "v": 80
    },
    {
      "midi": 50,
      "hit": false,
      "t": 139999.49599999978,
      "d": 653.8438000000024,
      "v": 80
    },
    {
      "midi": 62,
      "hit": false,
      "t": 139999.49599999978,
      "d": 931.0863916666713,
      "v": 80
    },
    {
      "midi": 65,
      "hit": false,
      "t": 139999.49599999978,
      "d": 1174.675258333329,
      "v": 80
    },
    {
      "midi": 57,
      "hit": false,
      "t": 140576.41699999978,
      "d": 355.76795000000857,
      "v": 80
    },
    {
      "midi": 50,
      "hit": false,
      "t": 140768.72399999978,
      "d": 437.49842499999795,
      "v": 80
    },
    {
      "midi": 62,
      "hit": false,
      "t": 140961.03099999978,
      "d": 174.67885833332548,
      "v": 80
    },
    {
      "midi": 57,
      "hit": false,
      "t": 140961.03099999978,
      "d": 233.97351666665054,
      "v": 80
    },
    {
      "midi": 48,
      "hit": false,
      "t": 141537.9519999998,
      "d": 195.5121166666795,
      "v": 80
    },
    {
      "midi": 55,
      "hit": false,
      "t": 141537.9519999998,
      "d": 580.1261166666809,
      "v": 80
    },
    {
      "midi": 60,
      "hit": false,
      "t": 141537.9519999998,
      "d": 631.407983333338,
      "v": 80
    },
    {
      "midi": 63,
      "hit": false,
      "t": 141537.9519999998,
      "d": 685.894966666674,
      "v": 80
    },
    {
      "midi": 60,
      "hit": false,
      "t": 142307.1799999998,
      "d": 222.75560833336203,
      "v": 80
    },
    {
      "midi": 57,
      "hit": false,
      "t": 142307.1799999998,
      "d": 251.60165833335486,
      "v": 80
    },
    {
      "midi": 41,
      "hit": false,
      "t": 142307.1799999998,
      "d": 259.61445000002277,
      "v": 80
    },
    {
      "midi": 65,
      "hit": false,
      "t": 142307.1799999998,
      "d": 344.55004166669096,
      "v": 80
    },
    {
      "midi": 62,
      "hit": false,
      "t": 143076.40799999982,
      "d": 240.38375000000815,
      "v": 80
    },
    {
      "midi": 58,
      "hit": false,
      "t": 143076.40799999982,
      "d": 261.21700833333307,
      "v": 80
    },
    {
      "midi": 65,
      "hit": false,
      "t": 143076.40799999982,
      "d": 269.229800000001,
      "v": 80
    },
    {
      "midi": 46,
      "hit": false,
      "t": 143076.40799999982,
      "d": 285.2553833333368,
      "v": 80
    },
    {
      "midi": 53,
      "hit": false,
      "t": 143076.40799999982,
      "d": 307.6912000000011,
      "v": 80
    },
    {
      "midi": 45,
      "hit": false,
      "t": 143845.63599999982,
      "d": 290.0630583333259,
      "v": 80
    },
    {
      "midi": 60,
      "hit": false,
      "t": 143845.63599999982,
      "d": 301.2809666666726,
      "v": 80
    },
    {
      "midi": 57,
      "hit": false,
      "t": 143845.63599999982,
      "d": 315.703991666669,
      "v": 80
    },
    {
      "midi": 64,
      "hit": false,
      "t": 143845.63599999982,
      "d": 320.51166666665813,
      "v": 80
    },
    {
      "midi": 58,
      "hit": false,
      "t": 144614.86399999983,
      "d": 315.703991666669,
      "v": 80
    },
    {
      "midi": 62,
      "hit": false,
      "t": 144614.86399999983,
      "d": 326.92190000001574,
      "v": 80
    },
    {
      "midi": 55,
      "hit": false,
      "t": 144614.86399999983,
      "d": 328.52445833335514,
      "v": 80
    },
    {
      "midi": 43,
      "hit": false,
      "t": 144614.86399999983,
      "d": 358.9730666666874,
      "v": 80
    },
    {
      "midi": 48,
      "hit": false,
      "t": 145384.09199999986,
      "d": 341.34492499998305,
      "v": 80
    },
    {
      "midi": 55,
      "hit": false,
      "t": 145384.09199999986,
      "d": 366.9858583333262,
      "v": 80
    },
    {
      "midi": 60,
      "hit": false,
      "t": 145384.09199999986,
      "d": 383.011441666662,
      "v": 80
    },
    {
      "midi": 64,
      "hit": false,
      "t": 145384.09199999986,
      "d": 389.4216749999905,
      "v": 80
    },
    {
      "midi": 53,
      "hit": false,
      "t": 146153.31999999983,
      "d": 860.5738249999995,
      "v": 80
    },
    {
      "midi": 57,
      "hit": false,
      "t": 146153.31999999983,
      "d": 900.637783333339,
      "v": 80
    },
    {
      "midi": 48,
      "hit": false,
      "t": 146153.31999999983,
      "d": 1043.2654749999929,
      "v": 80
    },
    {
      "midi": 41,
      "hit": false,
      "t": 146153.31999999983,
      "d": 1142.6240916666575,
      "v": 80
    },
    {
      "midi": 60,
      "hit": false,
      "t": 146153.31999999983,
      "d": 1176.2778166666685,
      "v": 80
    },
    {
      "midi": 65,
      "hit": false,
      "t": 146730.24099999983,
      "d": 645.8310083333345,
      "v": 80
    },
    {
      "midi": 53,
      "hit": false,
      "t": 147114.85499999984,
      "d": 189.1018833333219,
      "v": 80
    },
    {
      "midi": 57,
      "hit": false,
      "t": 147114.85499999984,
      "d": 198.7172333333292,
      "v": 80
    },
    {
      "midi": 48,
      "hit": false,
      "t": 147307.16199999984,
      "d": 73.71768333332147,
      "v": 80
    },
    {
      "midi": 58,
      "hit": false,
      "t": 147691.77599999984,
      "d": 315.703991666669,
      "v": 80
    },
    {
      "midi": 62,
      "hit": false,
      "t": 147691.77599999984,
      "d": 326.92190000001574,
      "v": 80
    },
    {
      "midi": 55,
      "hit": false,
      "t": 147691.77599999984,
      "d": 328.52445833335514,
      "v": 80
    },
    {
      "midi": 43,
      "hit": false,
      "t": 147691.77599999984,
      "d": 358.9730666666874,
      "v": 80
    },
    {
      "midi": 48,
      "hit": false,
      "t": 148461.00399999987,
      "d": 341.34492499998305,
      "v": 80
    },
    {
      "midi": 55,
      "hit": false,
      "t": 148461.00399999987,
      "d": 366.9858583333262,
      "v": 80
    },
    {
      "midi": 60,
      "hit": false,
      "t": 148461.00399999987,
      "d": 383.011441666662,
      "v": 80
    },
    {
      "midi": 64,
      "hit": false,
      "t": 148461.00399999987,
      "d": 389.4216749999905,
      "v": 80
    },
    {
      "midi": 62,
      "hit": false,
      "t": 149230.23199999984,
      "d": 1134.6112999999896,
      "v": 80
    },
    {
      "midi": 65,
      "hit": false,
      "t": 149230.23199999984,
      "d": 1139.4189749999787,
      "v": 80
    },
    {
      "midi": 48,
      "hit": false,
      "t": 149230.23199999984,
      "d": 1149.034324999986,
      "v": 80
    },
    {
      "midi": 58,
      "hit": false,
      "t": 149230.23199999984,
      "d": 1197.1110749999934,
      "v": 80
    },
    {
      "midi": 62,
      "hit": false,
      "t": 150768.68799999985,
      "d": 799.676608333335,
      "v": 80
    },
    {
      "midi": 58,
      "hit": false,
      "t": 150768.68799999985,
      "d": 825.3175416666782,
      "v": 80
    },
    {
      "midi": 64,
      "hit": false,
      "t": 150768.68799999985,
      "d": 886.2147583333426,
      "v": 80
    },
    {
      "midi": 48,
      "hit": false,
      "t": 150768.68799999985,
      "d": 1032.0475666666753,
      "v": 80
    },
    {
      "midi": 48,
      "hit": false,
      "t": 152307.14399999985,
      "d": 1177.880375000008,
      "v": 80
    },
    {
      "midi": 57,
      "hit": false,
      "t": 152307.14399999985,
      "d": 1365.3797000000195,
      "v": 80
    },
    {
      "midi": 64,
      "hit": false,
      "t": 152307.14399999985,
      "d": 1386.2129583333444,
      "v": 80
    },
    {
      "midi": 60,
      "hit": false,
      "t": 152307.14399999985,
      "d": 1389.4180750000232,
      "v": 80
    },
    {
      "midi": 57,
      "hit": false,
      "t": 153845.5999999999,
      "d": 956.7273250000144,
      "v": 80
    },
    {
      "midi": 60,
      "hit": false,
      "t": 153845.5999999999,
      "d": 971.1503500000108,
      "v": 80
    },
    {
      "midi": 65,
      "hit": false,
      "t": 153845.5999999999,
      "d": 971.1503500000108,
      "v": 80
    },
    {
      "midi": 48,
      "hit": false,
      "t": 153845.5999999999,
      "d": 996.7912833333539,
      "v": 80
    },
    {
      "midi": 58,
      "hit": false,
      "t": 155384.05599999992,
      "d": 1048.073150000011,
      "v": 80
    },
    {
      "midi": 65,
      "hit": false,
      "t": 155384.05599999992,
      "d": 1078.5217583333433,
      "v": 80
    },
    {
      "midi": 62,
      "hit": false,
      "t": 155384.05599999992,
      "d": 1083.3294333333324,
      "v": 80
    },
    {
      "midi": 48,
      "hit": false,
      "t": 155384.05599999992,
      "d": 1115.380600000004,
      "v": 80
    },
    {
      "midi": 62,
      "hit": false,
      "t": 156922.51199999993,
      "d": 891.0224333333317,
      "v": 80
    },
    {
      "midi": 64,
      "hit": false,
      "t": 156922.51199999993,
      "d": 905.4454583333281,
      "v": 80
    },
    {
      "midi": 58,
      "hit": false,
      "t": 156922.51199999993,
      "d": 908.6505750000069,
      "v": 80
    },
    {
      "midi": 48,
      "hit": false,
      "t": 156922.51199999993,
      "d": 975.9580249999999,
      "v": 80
    },
    {
      "midi": 57,
      "hit": false,
      "t": 158460.96799999994,
      "d": 2266.0174833333294,
      "v": 80
    },
    {
      "midi": 60,
      "hit": false,
      "t": 158460.96799999994,
      "d": 2278.8379499999864,
      "v": 80
    },
    {
      "midi": 53,
      "hit": false,
      "t": 158460.96799999994,
      "d": 2682.6826500000025,
      "v": 80
    },
    {
      "midi": 41,
      "hit": false,
      "t": 158460.96799999994,
      "d": 2828.515458333335,
      "v": 80
    },
    {
      "midi": 65,
      "hit": false,
      "t": 159999.42399999994,
      "d": 743.5870666666597,
      "v": 80
    },
    {
      "midi": 48,
      "hit": false,
      "t": 159999.42399999994,
      "d": 927.8812749999925,
      "v": 80
    },
    {
      "midi": 57,
      "hit": false,
      "t": 160768.65199999994,
      "d": 394.2293499999796,
      "v": 80
    },
    {
      "midi": 60,
      "hit": false,
      "t": 160768.65199999994,
      "d": 416.6651666666439,
      "v": 80
    },
    {
      "midi": 65,
      "hit": false,
      "t": 160768.65199999994,
      "d": 504.8058749999909,
      "v": 80
    },
    {
      "midi": 65,
      "hit": false,
      "t": 161537.87999999995,
      "d": 1112.1754833333544,
      "v": 80
    },
    {
      "midi": 48,
      "hit": false,
      "t": 161537.87999999995,
      "d": 1128.2010666666902,
      "v": 80
    },
    {
      "midi": 62,
      "hit": false,
      "t": 161537.87999999995,
      "d": 1128.2010666666902,
      "v": 80
    },
    {
      "midi": 58,
      "hit": false,
      "t": 161537.87999999995,
      "d": 1137.8164166666975,
      "v": 80
    },
    {
      "midi": 64,
      "hit": false,
      "t": 163076.33599999998,
      "d": 1001.598958333343,
      "v": 80
    },
    {
      "midi": 58,
      "hit": false,
      "t": 163076.33599999998,
      "d": 1025.6373333333468,
      "v": 80
    },
    {
      "midi": 48,
      "hit": false,
      "t": 163076.33599999998,
      "d": 1076.919200000004,
      "v": 80
    },
    {
      "midi": 62,
      "hit": false,
      "t": 163268.64299999998,
      "d": 708.3307833333383,
      "v": 80
    },
    {
      "midi": 48,
      "hit": false,
      "t": 164614.792,
      "d": 1272.4313166666543,
      "v": 80
    },
    {
      "midi": 57,
      "hit": false,
      "t": 164614.792,
      "d": 1386.2129583333153,
      "v": 80
    },
    {
      "midi": 64,
      "hit": false,
      "t": 164614.792,
      "d": 1418.264124999987,
      "v": 80
    },
    {
      "midi": 60,
      "hit": false,
      "t": 164614.792,
      "d": 1421.4692416666658,
      "v": 80
    },
    {
      "midi": 57,
      "hit": false,
      "t": 166153.248,
      "d": 1036.8552416666644,
      "v": 80
    },
    {
      "midi": 65,
      "hit": false,
      "t": 166153.248,
      "d": 1064.0987333333178,
      "v": 80
    },
    {
      "midi": 60,
      "hit": false,
      "t": 166153.248,
      "d": 1068.906408333307,
      "v": 80
    },
    {
      "midi": 48,
      "hit": false,
      "t": 166153.248,
      "d": 1073.714083333296,
      "v": 80
    },
    {
      "midi": 65,
      "hit": false,
      "t": 167691.70399999997,
      "d": 1144.2266499999969,
      "v": 80
    },
    {
      "midi": 62,
      "hit": false,
      "t": 167691.70399999997,
      "d": 1269.2262000000046,
      "v": 80
    },
    {
      "midi": 58,
      "hit": false,
      "t": 167691.70399999997,
      "d": 1293.2645750000083,
      "v": 80
    },
    {
      "midi": 48,
      "hit": false,
      "t": 167691.70399999997,
      "d": 1370.1873750000086,
      "v": 80
    },
    {
      "midi": 62,
      "hit": false,
      "t": 169230.15999999997,
      "d": 951.9196500000253,
      "v": 80
    },
    {
      "midi": 64,
      "hit": false,
      "t": 169230.15999999997,
      "d": 964.7401166666823,
      "v": 80
    },
    {
      "midi": 58,
      "hit": false,
      "t": 169230.15999999997,
      "d": 971.1503500000108,
      "v": 80
    },
    {
      "midi": 48,
      "hit": false,
      "t": 169230.15999999997,
      "d": 999.9964000000036,
      "v": 80
    },
    {
      "midi": 57,
      "hit": false,
      "t": 170768.61599999998,
      "d": 1054.4833833333396,
      "v": 80
    },
    {
      "midi": 60,
      "hit": false,
      "t": 170768.61599999998,
      "d": 1064.098733333347,
      "v": 80
    },
    {
      "midi": 53,
      "hit": false,
      "t": 170768.61599999998,
      "d": 1076.919200000004,
      "v": 80
    },
    {
      "midi": 41,
      "hit": false,
      "t": 170768.61599999998,
      "d": 1094.5473416666791,
      "v": 80
    },
    {
      "midi": 48,
      "hit": false,
      "t": 170768.61599999998,
      "d": 1124.9959500000114,
      "v": 80
    },
    {
      "midi": 65,
      "hit": false,
      "t": 171025.02533333332,
      "d": 306.0886416666908,
      "v": 100
    },
    {
      "midi": 67,
      "hit": false,
      "t": 171281.43466666667,
      "d": 280.4477083333477,
      "v": 100
    },
    {
      "midi": 69,
      "hit": false,
      "t": 171537.844,
      "d": 198.7172333333292,
      "v": 100
    },
    {
      "midi": 67,
      "hit": false,
      "t": 171794.25333333333,
      "d": 286.8579416666762,
      "v": 100
    },
    {
      "midi": 74,
      "hit": false,
      "t": 172050.66266666667,
      "d": 301.2809666666726,
      "v": 100
    },
    {
      "midi": 75,
      "hit": false,
      "t": 172307.07200000001,
      "d": 221.15304999999353,
      "v": 100
    },
    {
      "midi": 55,
      "hit": false,
      "t": 172307.07200000001,
      "d": 274.0374749999901,
      "v": 80
    },
    {
      "midi": 51,
      "hit": false,
      "t": 172307.07200000001,
      "d": 286.8579416666471,
      "v": 80
    },
    {
      "midi": 60,
      "hit": false,
      "t": 172307.07200000001,
      "d": 315.7039916666399,
      "v": 80
    },
    {
      "midi": 48,
      "hit": false,
      "t": 172307.07200000001,
      "d": 415.0626083333045,
      "v": 80
    },
    {
      "midi": 77,
      "hit": false,
      "t": 172563.48133333333,
      "d": 241.98630833331845,
      "v": 100
    },
    {
      "midi": 79,
      "hit": false,
      "t": 172819.89066666664,
      "d": 233.97351666667964,
      "v": 100
    },
    {
      "midi": 62,
      "hit": false,
      "t": 173076.3,
      "d": 134.61489999998594,
      "v": 80
    },
    {
      "midi": 53,
      "hit": false,
      "t": 173076.3,
      "d": 330.12701666666544,
      "v": 80
    },
    {
      "midi": 48,
      "hit": false,
      "t": 173076.3,
      "d": 336.53724999999395,
      "v": 80
    },
    {
      "midi": 41,
      "hit": false,
      "t": 173076.3,
      "d": 342.94748333332245,
      "v": 80
    },
    {
      "midi": 57,
      "hit": false,
      "t": 173076.3,
      "d": 344.55004166666185,
      "v": 80
    },
    {
      "midi": 60,
      "hit": false,
      "t": 173076.3,
      "d": 374.9986499999941,
      "v": 80
    },
    {
      "midi": 81,
      "hit": false,
      "t": 173076.3,
      "d": 687.4975249999843,
      "v": 100
    },
    {
      "midi": 46,
      "hit": false,
      "t": 173845.528,
      "d": 1181.0854916666576,
      "v": 80
    },
    {
      "midi": 65,
      "hit": false,
      "t": 173845.528,
      "d": 1184.2906083333364,
      "v": 80
    },
    {
      "midi": 62,
      "hit": false,
      "t": 173845.528,
      "d": 1213.1366583333293,
      "v": 80
    },
    {
      "midi": 58,
      "hit": false,
      "t": 173845.528,
      "d": 1235.5724749999936,
      "v": 80
    },
    {
      "midi": 70,
      "hit": false,
      "t": 174614.756,
      "d": 459.9342416666623,
      "v": 80
    },
    {
      "midi": 53,
      "hit": false,
      "t": 174999.37,
      "d": 133.01234166664653,
      "v": 80
    },
    {
      "midi": 57,
      "hit": false,
      "t": 175383.98399999997,
      "d": 1269.2262000000046,
      "v": 80
    },
    {
      "midi": 61,
      "hit": false,
      "t": 175383.98399999997,
      "d": 1357.3669083333516,
      "v": 80
    },
    {
      "midi": 45,
      "hit": false,
      "t": 175383.98399999997,
      "d": 1394.2257500000123,
      "v": 80
    },
    {
      "midi": 64,
      "hit": false,
      "t": 175383.98399999997,
      "d": 1423.0718000000343,
      "v": 80
    },
    {
      "midi": 69,
      "hit": false,
      "t": 175960.90499999997,
      "d": 799.676608333335,
      "v": 80
    },
    {
      "midi": 52,
      "hit": false,
      "t": 176537.82599999997,
      "d": 243.58886666668695,
      "v": 80
    },
    {
      "midi": 57,
      "hit": false,
      "t": 176730.13299999997,
      "d": 169.87118333339458,
      "v": 80
    },
    {
      "midi": 57,
      "hit": false,
      "t": 176922.44000000003,
      "d": 456.7291250000126,
      "v": 80
    },
    {
      "midi": 50,
      "hit": false,
      "t": 176922.44000000003,
      "d": 615.3824000000022,
      "v": 80
    },
    {
      "midi": 62,
      "hit": false,
      "t": 176922.44000000003,
      "d": 828.5226583333279,
      "v": 80
    },
    {
      "midi": 65,
      "hit": false,
      "t": 176922.44000000003,
      "d": 850.9584749999922,
      "v": 80
    },
    {
      "midi": 57,
      "hit": false,
      "t": 177499.36100000003,
      "d": 349.35771666665096,
      "v": 80
    },
    {
      "midi": 50,
      "hit": false,
      "t": 177691.66800000003,
      "d": 429.48563333333004,
      "v": 80
    },
    {
      "midi": 65,
      "hit": false,
      "t": 177883.975,
      "d": 131.40978333333624,
      "v": 80
    },
    {
      "midi": 62,
      "hit": false,
      "t": 177883.975,
      "d": 141.02513333334355,
      "v": 80
    },
    {
      "midi": 57,
      "hit": false,
      "t": 177883.975,
      "d": 157.05071666667936,
      "v": 80
    },
    {
      "midi": 48,
      "hit": false,
      "t": 178460.89600000004,
      "d": 246.79398333333666,
      "v": 80
    },
    {
      "midi": 60,
      "hit": false,
      "t": 178460.89600000004,
      "d": 616.9849583333416,
      "v": 80
    },
    {
      "midi": 55,
      "hit": false,
      "t": 178460.89600000004,
      "d": 618.587516666681,
      "v": 80
    },
    {
      "midi": 63,
      "hit": false,
      "t": 178460.89600000004,
      "d": 713.1384583333565,
      "v": 80
    },
    {
      "midi": 41,
      "hit": false,
      "t": 179230.12400000007,
      "d": 298.0758500000229,
      "v": 80
    },
    {
      "midi": 60,
      "hit": false,
      "t": 179230.12400000007,
      "d": 370.1909750000341,
      "v": 80
    },
    {
      "midi": 57,
      "hit": false,
      "t": 179230.12400000007,
      "d": 376.6012083333626,
      "v": 80
    },
    {
      "midi": 65,
      "hit": false,
      "t": 179230.12400000007,
      "d": 410.25493333337363,
      "v": 80
    },
    {
      "midi": 58,
      "hit": false,
      "t": 179999.3520000001,
      "d": 871.7917333333462,
      "v": 80
    },
    {
      "midi": 62,
      "hit": false,
      "t": 179999.3520000001,
      "d": 919.8684833333537,
      "v": 80
    },
    {
      "midi": 65,
      "hit": false,
      "t": 179999.3520000001,
      "d": 942.304300000018,
      "v": 80
    },
    {
      "midi": 46,
      "hit": false,
      "t": 179999.3520000001,
      "d": 1410.2513333333482,
      "v": 80
    },
    {
      "midi": 53,
      "hit": false,
      "t": 180768.5800000001,
      "d": 298.0758499999938,
      "v": 80
    },
    {
      "midi": 58,
      "hit": false,
      "t": 180960.8870000001,
      "d": 277.2425916666689,
      "v": 80
    },
    {
      "midi": 62,
      "hit": false,
      "t": 180960.8870000001,
      "d": 280.4477083333477,
      "v": 80
    },
    {
      "midi": 65,
      "hit": false,
      "t": 181153.1940000001,
      "d": 232.37095833334024,
      "v": 80
    },
    {
      "midi": 48,
      "hit": false,
      "t": 181537.8080000001,
      "d": 676.2796166666667,
      "v": 80
    },
    {
      "midi": 64,
      "hit": false,
      "t": 181537.8080000001,
      "d": 677.8821750000061,
      "v": 80
    },
    {
      "midi": 60,
      "hit": false,
      "t": 181537.8080000001,
      "d": 883.0096416666638,
      "v": 80
    },
    {
      "midi": 67,
      "hit": false,
      "t": 181537.8080000001,
      "d": 1040.0603583333432,
      "v": 80
    },
    {
      "midi": 48,
      "hit": false,
      "t": 182307.0360000001,
      "d": 192.3070000000007,
      "v": 80
    },
    {
      "midi": 64,
      "hit": false,
      "t": 182499.3430000001,
      "d": 94.5509416666755,
      "v": 80
    },
    {
      "midi": 60,
      "hit": false,
      "t": 182499.3430000001,
      "d": 171.47374166667578,
      "v": 80
    },
    {
      "midi": 53,
      "hit": false,
      "t": 183076.2640000001,
      "d": 479.1649416666769,
      "v": 80
    },
    {
      "midi": 41,
      "hit": false,
      "t": 183076.2640000001,
      "d": 629.8054249999986,
      "v": 80
    },
    {
      "midi": 60,
      "hit": false,
      "t": 183076.2640000001,
      "d": 653.8438000000024,
      "v": 80
    },
    {
      "midi": 57,
      "hit": false,
      "t": 183076.2640000001,
      "d": 887.817316666682,
      "v": 80
    },
    {
      "midi": 65,
      "hit": false,
      "t": 183076.2640000001,
      "d": 927.8812750000216,
      "v": 80
    },
    {
      "midi": 53,
      "hit": false,
      "t": 183653.1850000001,
      "d": 451.92145000002347,
      "v": 80
    },
    {
      "midi": 41,
      "hit": false,
      "t": 183845.49200000011,
      "d": 408.6523750000342,
      "v": 80
    },
    {
      "midi": 57,
      "hit": false,
      "t": 184037.79900000014,
      "d": 76.92280000000028,
      "v": 80
    },
    {
      "midi": 60,
      "hit": false,
      "t": 184037.79900000014,
      "d": 94.5509416666755,
      "v": 80
    },
    {
      "midi": 65,
      "hit": false,
      "t": 184037.79900000014,
      "d": 94.5509416666755,
      "v": 80
    },
    {
      "midi": 67,
      "hit": false,
      "t": 184614.72000000015,
      "d": 560.8954166666372,
      "v": 80
    },
    {
      "midi": 55,
      "hit": false,
      "t": 184614.72000000015,
      "d": 682.6898499999661,
      "v": 80
    },
    {
      "midi": 48,
      "hit": false,
      "t": 184614.72000000015,
      "d": 695.5103166666231,
      "v": 80
    },
    {
      "midi": 60,
      "hit": false,
      "t": 184614.72000000015,
      "d": 725.9589249999553,
      "v": 80
    },
    {
      "midi": 63,
      "hit": false,
      "t": 184614.72000000015,
      "d": 730.7665999999444,
      "v": 80
    },
    {
      "midi": 41,
      "hit": false,
      "t": 185383.9480000001,
      "d": 306.0886416666617,
      "v": 80
    },
    {
      "midi": 57,
      "hit": false,
      "t": 185383.9480000001,
      "d": 397.4344666666584,
      "v": 80
    },
    {
      "midi": 60,
      "hit": false,
      "t": 185383.9480000001,
      "d": 397.4344666666584,
      "v": 80
    },
    {
      "midi": 65,
      "hit": false,
      "t": 185383.9480000001,
      "d": 405.4472583333263,
      "v": 80
    },
    {
      "midi": 53,
      "hit": false,
      "t": 186153.1760000001,
      "d": 695.5103166666813,
      "v": 80
    },
    {
      "midi": 62,
      "hit": false,
      "t": 186153.1760000001,
      "d": 1100.9575750000076,
      "v": 80
    },
    {
      "midi": 46,
      "hit": false,
      "t": 186153.1760000001,
      "d": 1262.815966666676,
      "v": 80
    },
    {
      "midi": 65,
      "hit": false,
      "t": 186153.1760000001,
      "d": 1410.2513333333482,
      "v": 80
    },
    {
      "midi": 53,
      "hit": false,
      "t": 186922.4040000001,
      "d": 475.9598249999981,
      "v": 80
    },
    {
      "midi": 62,
      "hit": false,
      "t": 187307.0180000001,
      "d": 173.07630000001518,
      "v": 80
    },
    {
      "midi": 61,
      "hit": false,
      "t": 187691.6320000001,
      "d": 522.4340166666661,
      "v": 80
    },
    {
      "midi": 57,
      "hit": false,
      "t": 187691.6320000001,
      "d": 860.5738249999995,
      "v": 80
    },
    {
      "midi": 52,
      "hit": false,
      "t": 187691.6320000001,
      "d": 974.3554666666605,
      "v": 80
    },
    {
      "midi": 45,
      "hit": false,
      "t": 187691.6320000001,
      "d": 1443.9050583333592,
      "v": 80
    },
    {
      "midi": 64,
      "hit": false,
      "t": 187691.6320000001,
      "d": 1450.3152916666877,
      "v": 80
    },
    {
      "midi": 61,
      "hit": false,
      "t": 188268.5530000001,
      "d": 352.56283333332976,
      "v": 80
    },
    {
      "midi": 69,
      "hit": false,
      "t": 188268.5530000001,
      "d": 802.8817250000138,
      "v": 80
    },
    {
      "midi": 57,
      "hit": false,
      "t": 188653.1670000001,
      "d": 274.0374749999901,
      "v": 80
    },
    {
      "midi": 61,
      "hit": false,
      "t": 188653.1670000001,
      "d": 330.12701666666544,
      "v": 80
    },
    {
      "midi": 52,
      "hit": false,
      "t": 188845.4740000001,
      "d": 272.4349166666798,
      "v": 80
    },
    {
      "midi": 57,
      "hit": false,
      "t": 189037.7810000001,
      "d": 698.7154333333601,
      "v": 80
    },
    {
      "midi": 50,
      "hit": false,
      "t": 189230.08800000013,
      "d": 653.8438000000024,
      "v": 80
    },
    {
      "midi": 62,
      "hit": false,
      "t": 189230.08800000013,
      "d": 931.0863916666713,
      "v": 80
    },
    {
      "midi": 65,
      "hit": false,
      "t": 189230.08800000013,
      "d": 1174.675258333329,
      "v": 80
    },
    {
      "midi": 57,
      "hit": false,
      "t": 189807.00900000014,
      "d": 355.76795000000857,
      "v": 80
    },
    {
      "midi": 50,
      "hit": false,
      "t": 189999.31600000014,
      "d": 437.49842499999795,
      "v": 80
    },
    {
      "midi": 62,
      "hit": false,
      "t": 190191.62300000014,
      "d": 174.67885833332548,
      "v": 80
    },
    {
      "midi": 57,
      "hit": false,
      "t": 190191.62300000014,
      "d": 233.97351666665054,
      "v": 80
    },
    {
      "midi": 48,
      "hit": false,
      "t": 190768.54400000014,
      "d": 195.5121166666795,
      "v": 80
    },
    {
      "midi": 55,
      "hit": false,
      "t": 190768.54400000014,
      "d": 580.1261166666809,
      "v": 80
    },
    {
      "midi": 60,
      "hit": false,
      "t": 190768.54400000014,
      "d": 631.407983333338,
      "v": 80
    },
    {
      "midi": 63,
      "hit": false,
      "t": 190768.54400000014,
      "d": 685.894966666674,
      "v": 80
    },
    {
      "midi": 60,
      "hit": false,
      "t": 191537.77200000014,
      "d": 222.75560833336203,
      "v": 80
    },
    {
      "midi": 57,
      "hit": false,
      "t": 191537.77200000014,
      "d": 251.60165833335486,
      "v": 80
    },
    {
      "midi": 41,
      "hit": false,
      "t": 191537.77200000014,
      "d": 259.61445000002277,
      "v": 80
    },
    {
      "midi": 65,
      "hit": false,
      "t": 191537.77200000014,
      "d": 344.55004166669096,
      "v": 80
    },
    {
      "midi": 62,
      "hit": false,
      "t": 192307.00000000017,
      "d": 240.38375000000815,
      "v": 80
    },
    {
      "midi": 58,
      "hit": false,
      "t": 192307.00000000017,
      "d": 261.21700833333307,
      "v": 80
    },
    {
      "midi": 65,
      "hit": false,
      "t": 192307.00000000017,
      "d": 269.229800000001,
      "v": 80
    },
    {
      "midi": 46,
      "hit": false,
      "t": 192307.00000000017,
      "d": 285.2553833333368,
      "v": 80
    },
    {
      "midi": 53,
      "hit": false,
      "t": 192307.00000000017,
      "d": 307.6912000000011,
      "v": 80
    },
    {
      "midi": 45,
      "hit": false,
      "t": 193076.22800000018,
      "d": 290.0630583333259,
      "v": 80
    },
    {
      "midi": 60,
      "hit": false,
      "t": 193076.22800000018,
      "d": 301.2809666666726,
      "v": 80
    },
    {
      "midi": 57,
      "hit": false,
      "t": 193076.22800000018,
      "d": 315.703991666669,
      "v": 80
    },
    {
      "midi": 64,
      "hit": false,
      "t": 193076.22800000018,
      "d": 320.51166666665813,
      "v": 80
    },
    {
      "midi": 58,
      "hit": false,
      "t": 193845.45600000018,
      "d": 315.703991666669,
      "v": 80
    },
    {
      "midi": 62,
      "hit": false,
      "t": 193845.45600000018,
      "d": 326.92190000001574,
      "v": 80
    },
    {
      "midi": 55,
      "hit": false,
      "t": 193845.45600000018,
      "d": 328.52445833335514,
      "v": 80
    },
    {
      "midi": 43,
      "hit": false,
      "t": 193845.45600000018,
      "d": 358.9730666666874,
      "v": 80
    },
    {
      "midi": 48,
      "hit": false,
      "t": 194614.6840000002,
      "d": 341.34492499998305,
      "v": 80
    },
    {
      "midi": 55,
      "hit": false,
      "t": 194614.6840000002,
      "d": 366.9858583333262,
      "v": 80
    },
    {
      "midi": 60,
      "hit": false,
      "t": 194614.6840000002,
      "d": 383.011441666662,
      "v": 80
    },
    {
      "midi": 64,
      "hit": false,
      "t": 194614.6840000002,
      "d": 389.4216749999905,
      "v": 80
    },
    {
      "midi": 53,
      "hit": false,
      "t": 195383.9120000002,
      "d": 860.5738249999995,
      "v": 80
    },
    {
      "midi": 57,
      "hit": false,
      "t": 195383.9120000002,
      "d": 900.637783333339,
      "v": 80
    },
    {
      "midi": 48,
      "hit": false,
      "t": 195383.9120000002,
      "d": 1043.2654749999929,
      "v": 80
    },
    {
      "midi": 41,
      "hit": false,
      "t": 195383.9120000002,
      "d": 1142.6240916666575,
      "v": 80
    },
    {
      "midi": 60,
      "hit": false,
      "t": 195383.9120000002,
      "d": 1176.2778166666685,
      "v": 80
    },
    {
      "midi": 65,
      "hit": false,
      "t": 195960.8330000002,
      "d": 645.8310083333345,
      "v": 80
    },
    {
      "midi": 53,
      "hit": false,
      "t": 196345.4470000002,
      "d": 189.1018833333219,
      "v": 80
    },
    {
      "midi": 57,
      "hit": false,
      "t": 196345.4470000002,
      "d": 198.7172333333292,
      "v": 80
    },
    {
      "midi": 48,
      "hit": false,
      "t": 196537.7540000002,
      "d": 73.71768333332147,
      "v": 80
    },
    {
      "midi": 48,
      "hit": false,
      "t": 196922.3680000002,
      "d": 277.2425916666689,
      "v": 80
    },
    {
      "midi": 60,
      "hit": false,
      "t": 196922.3680000002,
      "d": 597.754258333327,
      "v": 80
    },
    {
      "midi": 55,
      "hit": false,
      "t": 196922.3680000002,
      "d": 607.3696083333343,
      "v": 80
    },
    {
      "midi": 63,
      "hit": false,
      "t": 196922.3680000002,
      "d": 690.7026416666631,
      "v": 80
    },
    {
      "midi": 41,
      "hit": false,
      "t": 197691.5960000002,
      "d": 352.56283333332976,
      "v": 80
    },
    {
      "midi": 65,
      "hit": false,
      "t": 197691.5960000002,
      "d": 381.4088833333226,
      "v": 80
    },
    {
      "midi": 57,
      "hit": false,
      "t": 197691.5960000002,
      "d": 399.0370249999978,
      "v": 80
    },
    {
      "midi": 60,
      "hit": false,
      "t": 197691.5960000002,
      "d": 405.4472583333263,
      "v": 80
    },
    {
      "midi": 46,
      "hit": false,
      "t": 198460.82400000017,
      "d": 1181.0854916666576,
      "v": 80
    },
    {
      "midi": 65,
      "hit": false,
      "t": 198460.82400000017,
      "d": 1184.2906083333364,
      "v": 80
    },
    {
      "midi": 62,
      "hit": false,
      "t": 198460.82400000017,
      "d": 1213.1366583333293,
      "v": 80
    },
    {
      "midi": 58,
      "hit": false,
      "t": 198460.82400000017,
      "d": 1235.5724749999936,
      "v": 80
    },
    {
      "midi": 70,
      "hit": false,
      "t": 199230.05200000017,
      "d": 459.9342416666623,
      "v": 80
    },
    {
      "midi": 53,
      "hit": false,
      "t": 199614.66600000017,
      "d": 133.01234166664653,
      "v": 80
    },
    {
      "midi": 57,
      "hit": false,
      "t": 199999.28000000014,
      "d": 1269.2262000000046,
      "v": 80
    },
    {
      "midi": 61,
      "hit": false,
      "t": 199999.28000000014,
      "d": 1357.3669083333516,
      "v": 80
    },
    {
      "midi": 45,
      "hit": false,
      "t": 199999.28000000014,
      "d": 1394.2257500000123,
      "v": 80
    },
    {
      "midi": 64,
      "hit": false,
      "t": 199999.28000000014,
      "d": 1423.0718000000343,
      "v": 80
    },
    {
      "midi": 69,
      "hit": false,
      "t": 200576.20100000015,
      "d": 799.676608333335,
      "v": 80
    },
    {
      "midi": 52,
      "hit": false,
      "t": 201153.12200000015,
      "d": 243.58886666668695,
      "v": 80
    },
    {
      "midi": 57,
      "hit": false,
      "t": 201345.42900000015,
      "d": 169.87118333339458,
      "v": 80
    },
    {
      "midi": 57,
      "hit": false,
      "t": 201537.7360000002,
      "d": 456.7291250000126,
      "v": 80
    },
    {
      "midi": 50,
      "hit": false,
      "t": 201537.7360000002,
      "d": 615.3824000000022,
      "v": 80
    },
    {
      "midi": 62,
      "hit": false,
      "t": 201537.7360000002,
      "d": 828.5226583333279,
      "v": 80
    },
    {
      "midi": 65,
      "hit": false,
      "t": 201537.7360000002,
      "d": 850.9584749999922,
      "v": 80
    },
    {
      "midi": 57,
      "hit": false,
      "t": 202114.6570000002,
      "d": 349.35771666665096,
      "v": 80
    },
    {
      "midi": 50,
      "hit": false,
      "t": 202306.9640000002,
      "d": 429.48563333333004,
      "v": 80
    },
    {
      "midi": 65,
      "hit": false,
      "t": 202499.27100000018,
      "d": 131.40978333333624,
      "v": 80
    },
    {
      "midi": 62,
      "hit": false,
      "t": 202499.27100000018,
      "d": 141.02513333334355,
      "v": 80
    },
    {
      "midi": 57,
      "hit": false,
      "t": 202499.27100000018,
      "d": 157.05071666667936,
      "v": 80
    },
    {
      "midi": 48,
      "hit": false,
      "t": 203076.1920000002,
      "d": 246.79398333333666,
      "v": 80
    },
    {
      "midi": 60,
      "hit": false,
      "t": 203076.1920000002,
      "d": 616.9849583333416,
      "v": 80
    },
    {
      "midi": 55,
      "hit": false,
      "t": 203076.1920000002,
      "d": 618.587516666681,
      "v": 80
    },
    {
      "midi": 63,
      "hit": false,
      "t": 203076.1920000002,
      "d": 713.1384583333565,
      "v": 80
    },
    {
      "midi": 41,
      "hit": false,
      "t": 203845.42000000025,
      "d": 298.0758500000229,
      "v": 80
    },
    {
      "midi": 60,
      "hit": false,
      "t": 203845.42000000025,
      "d": 370.1909750000341,
      "v": 80
    },
    {
      "midi": 57,
      "hit": false,
      "t": 203845.42000000025,
      "d": 376.6012083333626,
      "v": 80
    },
    {
      "midi": 65,
      "hit": false,
      "t": 203845.42000000025,
      "d": 410.25493333337363,
      "v": 80
    },
    {
      "midi": 58,
      "hit": false,
      "t": 204614.64800000028,
      "d": 871.7917333333462,
      "v": 80
    },
    {
      "midi": 62,
      "hit": false,
      "t": 204614.64800000028,
      "d": 919.8684833333537,
      "v": 80
    },
    {
      "midi": 65,
      "hit": false,
      "t": 204614.64800000028,
      "d": 942.304300000018,
      "v": 80
    },
    {
      "midi": 46,
      "hit": false,
      "t": 204614.64800000028,
      "d": 1410.2513333333482,
      "v": 80
    },
    {
      "midi": 53,
      "hit": false,
      "t": 205383.87600000028,
      "d": 298.0758499999938,
      "v": 80
    },
    {
      "midi": 58,
      "hit": false,
      "t": 205576.18300000028,
      "d": 277.2425916666689,
      "v": 80
    },
    {
      "midi": 62,
      "hit": false,
      "t": 205576.18300000028,
      "d": 280.4477083333477,
      "v": 80
    },
    {
      "midi": 65,
      "hit": false,
      "t": 205768.49000000028,
      "d": 232.37095833334024,
      "v": 80
    },
    {
      "midi": 48,
      "hit": false,
      "t": 206153.10400000028,
      "d": 676.2796166666667,
      "v": 80
    },
    {
      "midi": 64,
      "hit": false,
      "t": 206153.10400000028,
      "d": 677.8821750000061,
      "v": 80
    },
    {
      "midi": 60,
      "hit": false,
      "t": 206153.10400000028,
      "d": 883.0096416666638,
      "v": 80
    },
    {
      "midi": 67,
      "hit": false,
      "t": 206153.10400000028,
      "d": 1040.0603583333432,
      "v": 80
    },
    {
      "midi": 48,
      "hit": false,
      "t": 206922.3320000003,
      "d": 192.3070000000007,
      "v": 80
    },
    {
      "midi": 64,
      "hit": false,
      "t": 207114.6390000003,
      "d": 94.5509416666755,
      "v": 80
    },
    {
      "midi": 60,
      "hit": false,
      "t": 207114.6390000003,
      "d": 171.47374166667578,
      "v": 80
    },
    {
      "midi": 53,
      "hit": false,
      "t": 207691.5600000003,
      "d": 479.1649416666769,
      "v": 80
    },
    {
      "midi": 41,
      "hit": false,
      "t": 207691.5600000003,
      "d": 629.8054249999986,
      "v": 80
    },
    {
      "midi": 60,
      "hit": false,
      "t": 207691.5600000003,
      "d": 653.8438000000024,
      "v": 80
    },
    {
      "midi": 57,
      "hit": false,
      "t": 207691.5600000003,
      "d": 887.817316666682,
      "v": 80
    },
    {
      "midi": 65,
      "hit": false,
      "t": 207691.5600000003,
      "d": 927.8812750000216,
      "v": 80
    },
    {
      "midi": 53,
      "hit": false,
      "t": 208268.4810000003,
      "d": 451.92145000002347,
      "v": 80
    },
    {
      "midi": 41,
      "hit": false,
      "t": 208460.7880000003,
      "d": 408.6523750000342,
      "v": 80
    },
    {
      "midi": 57,
      "hit": false,
      "t": 208653.09500000032,
      "d": 76.92280000000028,
      "v": 80
    },
    {
      "midi": 60,
      "hit": false,
      "t": 208653.09500000032,
      "d": 94.5509416666755,
      "v": 80
    },
    {
      "midi": 65,
      "hit": false,
      "t": 208653.09500000032,
      "d": 94.5509416666755,
      "v": 80
    },
    {
      "midi": 67,
      "hit": false,
      "t": 209230.01600000032,
      "d": 560.8954166666372,
      "v": 80
    },
    {
      "midi": 55,
      "hit": false,
      "t": 209230.01600000032,
      "d": 682.6898499999661,
      "v": 80
    },
    {
      "midi": 48,
      "hit": false,
      "t": 209230.01600000032,
      "d": 695.5103166666231,
      "v": 80
    },
    {
      "midi": 60,
      "hit": false,
      "t": 209230.01600000032,
      "d": 725.9589249999553,
      "v": 80
    },
    {
      "midi": 63,
      "hit": false,
      "t": 209230.01600000032,
      "d": 730.7665999999444,
      "v": 80
    },
    {
      "midi": 41,
      "hit": false,
      "t": 209999.24400000027,
      "d": 306.0886416666617,
      "v": 80
    },
    {
      "midi": 57,
      "hit": false,
      "t": 209999.24400000027,
      "d": 397.4344666666584,
      "v": 80
    },
    {
      "midi": 60,
      "hit": false,
      "t": 209999.24400000027,
      "d": 397.4344666666584,
      "v": 80
    },
    {
      "midi": 65,
      "hit": false,
      "t": 209999.24400000027,
      "d": 405.4472583333263,
      "v": 80
    },
    {
      "midi": 53,
      "hit": false,
      "t": 210768.47200000027,
      "d": 695.5103166666813,
      "v": 80
    },
    {
      "midi": 62,
      "hit": false,
      "t": 210768.47200000027,
      "d": 1100.9575750000076,
      "v": 80
    },
    {
      "midi": 46,
      "hit": false,
      "t": 210768.47200000027,
      "d": 1262.815966666676,
      "v": 80
    },
    {
      "midi": 65,
      "hit": false,
      "t": 210768.47200000027,
      "d": 1410.2513333333482,
      "v": 80
    },
    {
      "midi": 53,
      "hit": false,
      "t": 211537.70000000027,
      "d": 475.9598249999981,
      "v": 80
    },
    {
      "midi": 62,
      "hit": false,
      "t": 211922.31400000027,
      "d": 173.07630000001518,
      "v": 80
    },
    {
      "midi": 61,
      "hit": false,
      "t": 212306.92800000028,
      "d": 522.4340166666661,
      "v": 80
    },
    {
      "midi": 57,
      "hit": false,
      "t": 212306.92800000028,
      "d": 860.5738249999995,
      "v": 80
    },
    {
      "midi": 52,
      "hit": false,
      "t": 212306.92800000028,
      "d": 974.3554666666605,
      "v": 80
    },
    {
      "midi": 45,
      "hit": false,
      "t": 212306.92800000028,
      "d": 1443.9050583333592,
      "v": 80
    },
    {
      "midi": 64,
      "hit": false,
      "t": 212306.92800000028,
      "d": 1450.3152916666877,
      "v": 80
    },
    {
      "midi": 61,
      "hit": false,
      "t": 212883.84900000028,
      "d": 352.56283333332976,
      "v": 80
    },
    {
      "midi": 69,
      "hit": false,
      "t": 212883.84900000028,
      "d": 802.8817250000138,
      "v": 80
    },
    {
      "midi": 57,
      "hit": false,
      "t": 213268.46300000028,
      "d": 274.0374749999901,
      "v": 80
    },
    {
      "midi": 61,
      "hit": false,
      "t": 213268.46300000028,
      "d": 330.12701666666544,
      "v": 80
    },
    {
      "midi": 52,
      "hit": false,
      "t": 213460.77000000028,
      "d": 272.4349166666798,
      "v": 80
    },
    {
      "midi": 57,
      "hit": false,
      "t": 213653.07700000028,
      "d": 698.7154333333601,
      "v": 80
    },
    {
      "midi": 50,
      "hit": false,
      "t": 213845.3840000003,
      "d": 653.8438000000024,
      "v": 80
    },
    {
      "midi": 62,
      "hit": false,
      "t": 213845.3840000003,
      "d": 931.0863916666713,
      "v": 80
    },
    {
      "midi": 65,
      "hit": false,
      "t": 213845.3840000003,
      "d": 1174.675258333329,
      "v": 80
    },
    {
      "midi": 57,
      "hit": false,
      "t": 214422.3050000003,
      "d": 355.76795000000857,
      "v": 80
    },
    {
      "midi": 50,
      "hit": false,
      "t": 214614.6120000003,
      "d": 437.49842499999795,
      "v": 80
    },
    {
      "midi": 62,
      "hit": false,
      "t": 214806.91900000031,
      "d": 174.67885833332548,
      "v": 80
    },
    {
      "midi": 57,
      "hit": false,
      "t": 214806.91900000031,
      "d": 233.97351666665054,
      "v": 80
    },
    {
      "midi": 48,
      "hit": false,
      "t": 215383.84000000032,
      "d": 195.5121166666795,
      "v": 80
    },
    {
      "midi": 55,
      "hit": false,
      "t": 215383.84000000032,
      "d": 580.1261166666809,
      "v": 80
    },
    {
      "midi": 60,
      "hit": false,
      "t": 215383.84000000032,
      "d": 631.407983333338,
      "v": 80
    },
    {
      "midi": 63,
      "hit": false,
      "t": 215383.84000000032,
      "d": 685.894966666674,
      "v": 80
    },
    {
      "midi": 60,
      "hit": false,
      "t": 216153.06800000032,
      "d": 222.75560833336203,
      "v": 80
    },
    {
      "midi": 57,
      "hit": false,
      "t": 216153.06800000032,
      "d": 251.60165833335486,
      "v": 80
    },
    {
      "midi": 41,
      "hit": false,
      "t": 216153.06800000032,
      "d": 259.61445000002277,
      "v": 80
    },
    {
      "midi": 65,
      "hit": false,
      "t": 216153.06800000032,
      "d": 344.55004166669096,
      "v": 80
    },
    {
      "midi": 62,
      "hit": false,
      "t": 216922.29600000035,
      "d": 240.38375000000815,
      "v": 80
    },
    {
      "midi": 58,
      "hit": false,
      "t": 216922.29600000035,
      "d": 261.21700833333307,
      "v": 80
    },
    {
      "midi": 65,
      "hit": false,
      "t": 216922.29600000035,
      "d": 269.229800000001,
      "v": 80
    },
    {
      "midi": 46,
      "hit": false,
      "t": 216922.29600000035,
      "d": 285.2553833333368,
      "v": 80
    },
    {
      "midi": 53,
      "hit": false,
      "t": 216922.29600000035,
      "d": 307.6912000000011,
      "v": 80
    },
    {
      "midi": 45,
      "hit": false,
      "t": 217691.52400000035,
      "d": 290.0630583333259,
      "v": 80
    },
    {
      "midi": 60,
      "hit": false,
      "t": 217691.52400000035,
      "d": 301.2809666666726,
      "v": 80
    },
    {
      "midi": 57,
      "hit": false,
      "t": 217691.52400000035,
      "d": 315.703991666669,
      "v": 80
    },
    {
      "midi": 64,
      "hit": false,
      "t": 217691.52400000035,
      "d": 320.51166666665813,
      "v": 80
    },
    {
      "midi": 58,
      "hit": false,
      "t": 218460.75200000036,
      "d": 315.703991666669,
      "v": 80
    },
    {
      "midi": 62,
      "hit": false,
      "t": 218460.75200000036,
      "d": 326.92190000001574,
      "v": 80
    },
    {
      "midi": 55,
      "hit": false,
      "t": 218460.75200000036,
      "d": 328.52445833335514,
      "v": 80
    },
    {
      "midi": 43,
      "hit": false,
      "t": 218460.75200000036,
      "d": 358.9730666666874,
      "v": 80
    },
    {
      "midi": 48,
      "hit": false,
      "t": 219229.9800000004,
      "d": 341.34492499998305,
      "v": 80
    },
    {
      "midi": 55,
      "hit": false,
      "t": 219229.9800000004,
      "d": 366.9858583333262,
      "v": 80
    },
    {
      "midi": 60,
      "hit": false,
      "t": 219229.9800000004,
      "d": 383.011441666662,
      "v": 80
    },
    {
      "midi": 64,
      "hit": false,
      "t": 219229.9800000004,
      "d": 389.4216749999905,
      "v": 80
    },
    {
      "midi": 53,
      "hit": false,
      "t": 219999.20800000036,
      "d": 860.5738249999995,
      "v": 80
    },
    {
      "midi": 57,
      "hit": false,
      "t": 219999.20800000036,
      "d": 900.637783333339,
      "v": 80
    },
    {
      "midi": 48,
      "hit": false,
      "t": 219999.20800000036,
      "d": 1043.2654749999929,
      "v": 80
    },
    {
      "midi": 41,
      "hit": false,
      "t": 219999.20800000036,
      "d": 1142.6240916666575,
      "v": 80
    },
    {
      "midi": 60,
      "hit": false,
      "t": 219999.20800000036,
      "d": 1176.2778166666685,
      "v": 80
    },
    {
      "midi": 65,
      "hit": false,
      "t": 220576.12900000036,
      "d": 645.8310083333345,
      "v": 80
    },
    {
      "midi": 53,
      "hit": false,
      "t": 220960.74300000037,
      "d": 189.1018833333219,
      "v": 80
    },
    {
      "midi": 57,
      "hit": false,
      "t": 220960.74300000037,
      "d": 198.7172333333292,
      "v": 80
    },
    {
      "midi": 48,
      "hit": false,
      "t": 221153.05000000037,
      "d": 73.71768333332147,
      "v": 80
    },
    {
      "midi": 48,
      "hit": false,
      "t": 221537.66400000037,
      "d": 277.2425916666689,
      "v": 80
    },
    {
      "midi": 60,
      "hit": false,
      "t": 221537.66400000037,
      "d": 597.754258333327,
      "v": 80
    },
    {
      "midi": 55,
      "hit": false,
      "t": 221537.66400000037,
      "d": 607.3696083333343,
      "v": 80
    },
    {
      "midi": 63,
      "hit": false,
      "t": 221537.66400000037,
      "d": 690.7026416666631,
      "v": 80
    },
    {
      "midi": 41,
      "hit": false,
      "t": 222306.89200000037,
      "d": 352.56283333332976,
      "v": 80
    },
    {
      "midi": 65,
      "hit": false,
      "t": 222306.89200000037,
      "d": 381.4088833333226,
      "v": 80
    },
    {
      "midi": 57,
      "hit": false,
      "t": 222306.89200000037,
      "d": 399.0370249999978,
      "v": 80
    },
    {
      "midi": 60,
      "hit": false,
      "t": 222306.89200000037,
      "d": 405.4472583333263,
      "v": 80
    },
    {
      "midi": 46,
      "hit": false,
      "t": 223076.12000000034,
      "d": 1181.0854916666576,
      "v": 80
    },
    {
      "midi": 65,
      "hit": false,
      "t": 223076.12000000034,
      "d": 1184.2906083333364,
      "v": 80
    },
    {
      "midi": 62,
      "hit": false,
      "t": 223076.12000000034,
      "d": 1213.1366583333293,
      "v": 80
    },
    {
      "midi": 58,
      "hit": false,
      "t": 223076.12000000034,
      "d": 1235.5724749999936,
      "v": 80
    },
    {
      "midi": 70,
      "hit": false,
      "t": 223845.34800000035,
      "d": 459.9342416666623,
      "v": 80
    },
    {
      "midi": 53,
      "hit": false,
      "t": 224229.96200000035,
      "d": 133.01234166664653,
      "v": 80
    },
    {
      "midi": 57,
      "hit": false,
      "t": 224614.57600000032,
      "d": 1269.2262000000046,
      "v": 80
    },
    {
      "midi": 61,
      "hit": false,
      "t": 224614.57600000032,
      "d": 1357.3669083333516,
      "v": 80
    },
    {
      "midi": 45,
      "hit": false,
      "t": 224614.57600000032,
      "d": 1394.2257500000123,
      "v": 80
    },
    {
      "midi": 64,
      "hit": false,
      "t": 224614.57600000032,
      "d": 1423.0718000000343,
      "v": 80
    },
    {
      "midi": 69,
      "hit": false,
      "t": 225191.49700000032,
      "d": 799.676608333335,
      "v": 80
    },
    {
      "midi": 52,
      "hit": false,
      "t": 225768.41800000033,
      "d": 243.58886666668695,
      "v": 80
    },
    {
      "midi": 57,
      "hit": false,
      "t": 225960.72500000033,
      "d": 169.87118333339458,
      "v": 80
    },
    {
      "midi": 57,
      "hit": false,
      "t": 226153.03200000038,
      "d": 456.7291250000126,
      "v": 80
    },
    {
      "midi": 50,
      "hit": false,
      "t": 226153.03200000038,
      "d": 615.3824000000022,
      "v": 80
    },
    {
      "midi": 62,
      "hit": false,
      "t": 226153.03200000038,
      "d": 828.5226583333279,
      "v": 80
    },
    {
      "midi": 65,
      "hit": false,
      "t": 226153.03200000038,
      "d": 850.9584749999922,
      "v": 80
    },
    {
      "midi": 57,
      "hit": false,
      "t": 226729.9530000004,
      "d": 349.35771666665096,
      "v": 80
    },
    {
      "midi": 50,
      "hit": false,
      "t": 226922.2600000004,
      "d": 429.48563333333004,
      "v": 80
    },
    {
      "midi": 65,
      "hit": false,
      "t": 227114.56700000036,
      "d": 131.40978333333624,
      "v": 80
    },
    {
      "midi": 62,
      "hit": false,
      "t": 227114.56700000036,
      "d": 141.02513333334355,
      "v": 80
    },
    {
      "midi": 57,
      "hit": false,
      "t": 227114.56700000036,
      "d": 157.05071666667936,
      "v": 80
    },
    {
      "midi": 48,
      "hit": false,
      "t": 227691.4880000004,
      "d": 246.79398333333666,
      "v": 80
    },
    {
      "midi": 60,
      "hit": false,
      "t": 227691.4880000004,
      "d": 616.9849583333125,
      "v": 80
    },
    {
      "midi": 55,
      "hit": false,
      "t": 227691.4880000004,
      "d": 618.5875166666519,
      "v": 80
    },
    {
      "midi": 63,
      "hit": false,
      "t": 227691.4880000004,
      "d": 713.1384583333274,
      "v": 80
    },
    {
      "midi": 41,
      "hit": false,
      "t": 228460.7160000004,
      "d": 298.0758499999938,
      "v": 80
    },
    {
      "midi": 60,
      "hit": false,
      "t": 228460.7160000004,
      "d": 370.190975000005,
      "v": 80
    },
    {
      "midi": 57,
      "hit": false,
      "t": 228460.7160000004,
      "d": 376.6012083333335,
      "v": 80
    },
    {
      "midi": 65,
      "hit": false,
      "t": 228460.7160000004,
      "d": 410.2549333333445,
      "v": 80
    },
    {
      "midi": 58,
      "hit": false,
      "t": 229229.94400000037,
      "d": 871.791733333288,
      "v": 80
    },
    {
      "midi": 62,
      "hit": false,
      "t": 229229.94400000037,
      "d": 919.8684833332954,
      "v": 80
    },
    {
      "midi": 65,
      "hit": false,
      "t": 229229.94400000037,
      "d": 942.3042999999598,
      "v": 80
    },
    {
      "midi": 46,
      "hit": false,
      "t": 229229.94400000037,
      "d": 1410.251333333319,
      "v": 80
    },
    {
      "midi": 53,
      "hit": false,
      "t": 229999.1720000003,
      "d": 298.0758500000229,
      "v": 80
    },
    {
      "midi": 58,
      "hit": false,
      "t": 230191.4790000003,
      "d": 277.242591666698,
      "v": 80
    },
    {
      "midi": 62,
      "hit": false,
      "t": 230191.4790000003,
      "d": 280.4477083333768,
      "v": 80
    },
    {
      "midi": 65,
      "hit": false,
      "t": 230383.78600000034,
      "d": 232.37095833334024,
      "v": 80
    },
    {
      "midi": 48,
      "hit": false,
      "t": 230768.40000000034,
      "d": 676.2796166666376,
      "v": 80
    },
    {
      "midi": 64,
      "hit": false,
      "t": 230768.40000000034,
      "d": 677.882174999977,
      "v": 80
    },
    {
      "midi": 60,
      "hit": false,
      "t": 230768.40000000034,
      "d": 883.0096416666638,
      "v": 80
    },
    {
      "midi": 67,
      "hit": false,
      "t": 230768.40000000034,
      "d": 1040.0603583333432,
      "v": 80
    },
    {
      "midi": 48,
      "hit": false,
      "t": 231537.62800000032,
      "d": 192.3070000000298,
      "v": 80
    },
    {
      "midi": 64,
      "hit": false,
      "t": 231729.93500000035,
      "d": 94.5509416666755,
      "v": 80
    },
    {
      "midi": 60,
      "hit": false,
      "t": 231729.93500000035,
      "d": 171.47374166667578,
      "v": 80
    },
    {
      "midi": 53,
      "hit": false,
      "t": 232306.85600000032,
      "d": 479.1649416666769,
      "v": 80
    },
    {
      "midi": 41,
      "hit": false,
      "t": 232306.85600000032,
      "d": 629.8054249999986,
      "v": 80
    },
    {
      "midi": 60,
      "hit": false,
      "t": 232306.85600000032,
      "d": 653.8438000000024,
      "v": 80
    },
    {
      "midi": 57,
      "hit": false,
      "t": 232306.85600000032,
      "d": 887.8173166666529,
      "v": 80
    },
    {
      "midi": 65,
      "hit": false,
      "t": 232306.85600000032,
      "d": 927.8812749999925,
      "v": 80
    },
    {
      "midi": 53,
      "hit": false,
      "t": 232883.77700000032,
      "d": 451.92144999999437,
      "v": 80
    },
    {
      "midi": 41,
      "hit": false,
      "t": 233076.08400000032,
      "d": 408.6523750000051,
      "v": 80
    },
    {
      "midi": 57,
      "hit": false,
      "t": 233268.39100000032,
      "d": 76.92280000000028,
      "v": 80
    },
    {
      "midi": 60,
      "hit": false,
      "t": 233268.39100000032,
      "d": 94.5509416666755,
      "v": 80
    },
    {
      "midi": 65,
      "hit": false,
      "t": 233268.39100000032,
      "d": 94.5509416666755,
      "v": 80
    },
    {
      "midi": 67,
      "hit": false,
      "t": 233845.3120000003,
      "d": 560.8954166666372,
      "v": 80
    },
    {
      "midi": 55,
      "hit": false,
      "t": 233845.3120000003,
      "d": 682.6898499999661,
      "v": 80
    },
    {
      "midi": 48,
      "hit": false,
      "t": 233845.3120000003,
      "d": 695.5103166666231,
      "v": 80
    },
    {
      "midi": 60,
      "hit": false,
      "t": 233845.3120000003,
      "d": 725.9589249999553,
      "v": 80
    },
    {
      "midi": 63,
      "hit": false,
      "t": 233845.3120000003,
      "d": 730.7665999999444,
      "v": 80
    },
    {
      "midi": 41,
      "hit": false,
      "t": 234614.54000000024,
      "d": 306.0886416666617,
      "v": 80
    },
    {
      "midi": 57,
      "hit": false,
      "t": 234614.54000000024,
      "d": 397.4344666666584,
      "v": 80
    },
    {
      "midi": 60,
      "hit": false,
      "t": 234614.54000000024,
      "d": 397.4344666666584,
      "v": 80
    },
    {
      "midi": 65,
      "hit": false,
      "t": 234614.54000000024,
      "d": 405.4472583333263,
      "v": 80
    },
    {
      "midi": 53,
      "hit": false,
      "t": 235383.76800000024,
      "d": 695.5103166666522,
      "v": 80
    },
    {
      "midi": 62,
      "hit": false,
      "t": 235383.76800000024,
      "d": 1100.9575749999785,
      "v": 80
    },
    {
      "midi": 46,
      "hit": false,
      "t": 235383.76800000024,
      "d": 1262.815966666618,
      "v": 80
    },
    {
      "midi": 65,
      "hit": false,
      "t": 235383.76800000024,
      "d": 1410.25133333329,
      "v": 80
    },
    {
      "midi": 53,
      "hit": false,
      "t": 236152.99600000025,
      "d": 475.959824999969,
      "v": 80
    },
    {
      "midi": 62,
      "hit": false,
      "t": 236537.61000000022,
      "d": 173.07629999998608,
      "v": 80
    },
    {
      "midi": 61,
      "hit": false,
      "t": 236922.2240000002,
      "d": 522.434016666637,
      "v": 80
    },
    {
      "midi": 57,
      "hit": false,
      "t": 236922.2240000002,
      "d": 860.5738249999704,
      "v": 80
    },
    {
      "midi": 52,
      "hit": false,
      "t": 236922.2240000002,
      "d": 974.3554666666314,
      "v": 80
    },
    {
      "midi": 45,
      "hit": false,
      "t": 236922.2240000002,
      "d": 1443.90505833333,
      "v": 80
    },
    {
      "midi": 64,
      "hit": false,
      "t": 236922.2240000002,
      "d": 1450.3152916666586,
      "v": 80
    },
    {
      "midi": 61,
      "hit": false,
      "t": 237499.14500000016,
      "d": 352.56283333332976,
      "v": 80
    },
    {
      "midi": 69,
      "hit": false,
      "t": 237499.14500000016,
      "d": 802.8817250000138,
      "v": 80
    },
    {
      "midi": 57,
      "hit": false,
      "t": 237883.75900000017,
      "d": 274.0374749999901,
      "v": 80
    },
    {
      "midi": 61,
      "hit": false,
      "t": 237883.75900000017,
      "d": 330.12701666666544,
      "v": 80
    },
    {
      "midi": 52,
      "hit": false,
      "t": 238076.06600000014,
      "d": 272.4349166667089,
      "v": 80
    },
    {
      "midi": 57,
      "hit": false,
      "t": 238268.37300000017,
      "d": 698.715433333331,
      "v": 80
    },
    {
      "midi": 50,
      "hit": false,
      "t": 238460.6800000002,
      "d": 653.8437999999733,
      "v": 80
    },
    {
      "midi": 62,
      "hit": false,
      "t": 238460.6800000002,
      "d": 931.0863916666422,
      "v": 80
    },
    {
      "midi": 65,
      "hit": false,
      "t": 238460.6800000002,
      "d": 1174.6752583333,
      "v": 80
    },
    {
      "midi": 57,
      "hit": false,
      "t": 239037.60100000017,
      "d": 355.76795000000857,
      "v": 80
    },
    {
      "midi": 50,
      "hit": false,
      "t": 239229.90800000017,
      "d": 437.49842499999795,
      "v": 80
    },
    {
      "midi": 62,
      "hit": false,
      "t": 239422.21500000017,
      "d": 174.67885833332548,
      "v": 80
    },
    {
      "midi": 57,
      "hit": false,
      "t": 239422.21500000017,
      "d": 233.97351666665054,
      "v": 80
    },
    {
      "midi": 48,
      "hit": false,
      "t": 239999.13600000017,
      "d": 195.5121166666504,
      "v": 80
    },
    {
      "midi": 55,
      "hit": false,
      "t": 239999.13600000017,
      "d": 580.1261166666227,
      "v": 80
    },
    {
      "midi": 60,
      "hit": false,
      "t": 239999.13600000017,
      "d": 631.4079833332798,
      "v": 80
    },
    {
      "midi": 63,
      "hit": false,
      "t": 239999.13600000017,
      "d": 685.8949666666158,
      "v": 80
    },
    {
      "midi": 60,
      "hit": false,
      "t": 240768.36400000012,
      "d": 222.75560833336203,
      "v": 80
    },
    {
      "midi": 57,
      "hit": false,
      "t": 240768.36400000012,
      "d": 251.60165833335486,
      "v": 80
    },
    {
      "midi": 41,
      "hit": false,
      "t": 240768.36400000012,
      "d": 259.61445000002277,
      "v": 80
    },
    {
      "midi": 65,
      "hit": false,
      "t": 240768.36400000012,
      "d": 344.55004166669096,
      "v": 80
    },
    {
      "midi": 62,
      "hit": false,
      "t": 241537.59200000012,
      "d": 240.38375000000815,
      "v": 80
    },
    {
      "midi": 58,
      "hit": false,
      "t": 241537.59200000012,
      "d": 261.21700833333307,
      "v": 80
    },
    {
      "midi": 65,
      "hit": false,
      "t": 241537.59200000012,
      "d": 269.229800000001,
      "v": 80
    },
    {
      "midi": 46,
      "hit": false,
      "t": 241537.59200000012,
      "d": 285.2553833333368,
      "v": 80
    },
    {
      "midi": 53,
      "hit": false,
      "t": 241537.59200000012,
      "d": 307.6912000000011,
      "v": 80
    },
    {
      "midi": 45,
      "hit": false,
      "t": 242306.82000000012,
      "d": 290.0630583333259,
      "v": 80
    },
    {
      "midi": 60,
      "hit": false,
      "t": 242306.82000000012,
      "d": 301.2809666666726,
      "v": 80
    },
    {
      "midi": 57,
      "hit": false,
      "t": 242306.82000000012,
      "d": 315.703991666669,
      "v": 80
    },
    {
      "midi": 64,
      "hit": false,
      "t": 242306.82000000012,
      "d": 320.51166666665813,
      "v": 80
    },
    {
      "midi": 58,
      "hit": false,
      "t": 243076.0480000001,
      "d": 315.703991666669,
      "v": 80
    },
    {
      "midi": 62,
      "hit": false,
      "t": 243076.0480000001,
      "d": 326.92189999998664,
      "v": 80
    },
    {
      "midi": 55,
      "hit": false,
      "t": 243076.0480000001,
      "d": 328.52445833332604,
      "v": 80
    },
    {
      "midi": 43,
      "hit": false,
      "t": 243076.0480000001,
      "d": 358.97306666665827,
      "v": 80
    },
    {
      "midi": 48,
      "hit": false,
      "t": 243845.27600000007,
      "d": 341.34492500004126,
      "v": 80
    },
    {
      "midi": 55,
      "hit": false,
      "t": 243845.27600000007,
      "d": 366.9858583333844,
      "v": 80
    },
    {
      "midi": 60,
      "hit": false,
      "t": 243845.27600000007,
      "d": 383.0114416667202,
      "v": 80
    },
    {
      "midi": 64,
      "hit": false,
      "t": 243845.27600000007,
      "d": 389.4216750000487,
      "v": 80
    },
    {
      "midi": 41,
      "hit": false,
      "t": 244614.50400000007,
      "d": 1536.8534416666662,
      "v": 80
    },
    {
      "midi": 48,
      "hit": false,
      "t": 244614.50400000007,
      "d": 1536.8534416666662,
      "v": 80
    },
    {
      "midi": 53,
      "hit": false,
      "t": 244614.50400000007,
      "d": 1536.8534416666662,
      "v": 80
    },
    {
      "midi": 57,
      "hit": false,
      "t": 244614.50400000007,
      "d": 1536.8534416666662,
      "v": 80
    },
    {
      "midi": 60,
      "hit": false,
      "t": 244614.50400000007,
      "d": 1536.8534416666662,
      "v": 80
    },
    {
      "midi": 65,
      "hit": false,
      "t": 244614.50400000007,
      "d": 1536.8534416666662,
      "v": 80
    }
  ]
}