{
  "jsonPath": "Rock/Alternative Metal/Between The Buried And Me/bicycle-race-album-version.json",
  "path": "Rock\\Alternative Metal\\Between The Buried And Me\\Bicycle Race (Album Version).mid",
  "name": "Bicycle Race (Album Version)",
  "difficulty": "Advanced",
  "bpm": 167.00020318358054,
  "notes": [
    {
      "midi": 63,
      "hit": false,
      "t": 1428.568,
      "d": 712.7959083333333,
      "v": 1
    },
    {
      "midi": 67,
      "hit": false,
      "t": 1428.568,
      "d": 712.7959083333333,
      "v": 1
    },
    {
      "midi": 70,
      "hit": false,
      "t": 1428.568,
      "d": 712.7959083333333,
      "v": 1
    },
    {
      "midi": 58,
      "hit": false,
      "t": 2142.852,
      "d": 177.0829083333333,
      "v": 1
    },
    {
      "midi": 63,
      "hit": false,
      "t": 2142.852,
      "d": 177.0829083333333,
      "v": 1
    },
    {
      "midi": 67,
      "hit": false,
      "t": 2142.852,
      "d": 177.0829083333333,
      "v": 1
    },
    {
      "midi": 58,
      "hit": false,
      "t": 2321.423,
      "d": 534.2249083333336,
      "v": 1
    },
    {
      "midi": 63,
      "hit": false,
      "t": 2321.423,
      "d": 534.2249083333336,
      "v": 1
    },
    {
      "midi": 62,
      "hit": false,
      "t": 2857.136,
      "d": 712.795908333333,
      "v": 1
    },
    {
      "midi": 66,
      "hit": false,
      "t": 2857.136,
      "d": 712.795908333333,
      "v": 1
    },
    {
      "midi": 70,
      "hit": false,
      "t": 2857.136,
      "d": 712.795908333333,
      "v": 1
    },
    {
      "midi": 58,
      "hit": false,
      "t": 3571.4199999999996,
      "d": 177.0829083333333,
      "v": 1
    },
    {
      "midi": 62,
      "hit": false,
      "t": 3571.4199999999996,
      "d": 177.0829083333333,
      "v": 1
    },
    {
      "midi": 66,
      "hit": false,
      "t": 3571.4199999999996,
      "d": 177.0829083333333,
      "v": 1
    },
    {
      "midi": 54,
      "hit": false,
      "t": 3749.9909999999995,
      "d": 534.2249083333331,
      "v": 1
    },
    {
      "midi": 58,
      "hit": false,
      "t": 3749.9909999999995,
      "d": 534.2249083333331,
      "v": 1
    },
    {
      "midi": 62,
      "hit": false,
      "t": 3749.9909999999995,
      "d": 534.2249083333331,
      "v": 1
    },
    {
      "midi": 61,
      "hit": false,
      "t": 4285.704,
      "d": 712.7959083333335,
      "v": 1
    },
    {
      "midi": 65,
      "hit": false,
      "t": 4285.704,
      "d": 712.7959083333335,
      "v": 1
    },
    {
      "midi": 68,
      "hit": false,
      "t": 4285.704,
      "d": 712.7959083333335,
      "v": 1
    },
    {
      "midi": 70,
      "hit": false,
      "t": 4285.704,
      "d": 712.7959083333335,
      "v": 1
    },
    {
      "midi": 56,
      "hit": false,
      "t": 4999.988,
      "d": 177.08290833333376,
      "v": 1
    },
    {
      "midi": 61,
      "hit": false,
      "t": 4999.988,
      "d": 177.08290833333376,
      "v": 1
    },
    {
      "midi": 65,
      "hit": false,
      "t": 4999.988,
      "d": 177.08290833333376,
      "v": 1
    },
    {
      "midi": 53,
      "hit": false,
      "t": 5178.559000000001,
      "d": 355.6539083333337,
      "v": 1
    },
    {
      "midi": 56,
      "hit": false,
      "t": 5178.559000000001,
      "d": 355.6539083333337,
      "v": 1
    },
    {
      "midi": 61,
      "hit": false,
      "t": 5178.559000000001,
      "d": 355.6539083333337,
      "v": 1
    },
    {
      "midi": 44,
      "hit": false,
      "t": 5714.272,
      "d": 680.8019374999994,
      "v": 100
    },
    {
      "midi": 51,
      "hit": false,
      "t": 5721.712458333333,
      "d": 647.3198749999992,
      "v": 85
    },
    {
      "midi": 56,
      "hit": false,
      "t": 5892.843,
      "d": 151.04130416666703,
      "v": 95
    },
    {
      "midi": 60,
      "hit": false,
      "t": 6071.414,
      "d": 171.13054166666643,
      "v": 91
    },
    {
      "midi": 56,
      "hit": false,
      "t": 6249.985,
      "d": 159.96985416666666,
      "v": 85
    },
    {
      "midi": 46,
      "hit": false,
      "t": 6428.556,
      "d": 624.9985000000006,
      "v": 99
    },
    {
      "midi": 58,
      "hit": false,
      "t": 6607.1269999999995,
      "d": 145.0889374999997,
      "v": 85
    },
    {
      "midi": 61,
      "hit": false,
      "t": 6785.697999999999,
      "d": 200.89237500000036,
      "v": 94
    },
    {
      "midi": 58,
      "hit": false,
      "t": 6964.268999999999,
      "d": 212.05306250000103,
      "v": 91
    },
    {
      "midi": 50,
      "hit": false,
      "t": 7142.84,
      "d": 766.3672083333331,
      "v": 87
    },
    {
      "midi": 62,
      "hit": false,
      "t": 7142.840000000002,
      "d": 712.7959083333335,
      "v": 1
    },
    {
      "midi": 66,
      "hit": false,
      "t": 7142.840000000002,
      "d": 712.7959083333335,
      "v": 1
    },
    {
      "midi": 69,
      "hit": false,
      "t": 7142.840000000002,
      "d": 712.7959083333335,
      "v": 1
    },
    {
      "midi": 57,
      "hit": false,
      "t": 7321.411,
      "d": 173.36267916666657,
      "v": 92
    },
    {
      "midi": 62,
      "hit": false,
      "t": 7499.982,
      "d": 184.52336666666633,
      "v": 87
    },
    {
      "midi": 57,
      "hit": false,
      "t": 7678.553,
      "d": 184.52336666666633,
      "v": 93
    },
    {
      "midi": 66,
      "hit": false,
      "t": 7857.124,
      "d": 145.0889374999997,
      "v": 99
    },
    {
      "midi": 57,
      "hit": false,
      "t": 7857.1240000000025,
      "d": 177.08290833333376,
      "v": 1
    },
    {
      "midi": 62,
      "hit": false,
      "t": 7857.1240000000025,
      "d": 177.08290833333376,
      "v": 1
    },
    {
      "midi": 66,
      "hit": false,
      "t": 7857.1240000000025,
      "d": 177.08290833333376,
      "v": 1
    },
    {
      "midi": 62,
      "hit": false,
      "t": 8035.695,
      "d": 359.37413750000087,
      "v": 85
    },
    {
      "midi": 54,
      "hit": false,
      "t": 8035.695000000003,
      "d": 534.2249083333336,
      "v": 1
    },
    {
      "midi": 57,
      "hit": false,
      "t": 8035.695000000003,
      "d": 534.2249083333336,
      "v": 1
    },
    {
      "midi": 62,
      "hit": false,
      "t": 8035.695000000003,
      "d": 534.2249083333336,
      "v": 1
    },
    {
      "midi": 54,
      "hit": false,
      "t": 8571.408000000001,
      "d": 229.16611666666722,
      "v": 97
    },
    {
      "midi": 63,
      "hit": false,
      "t": 8571.408000000003,
      "d": 712.7959083333335,
      "v": 1
    },
    {
      "midi": 66,
      "hit": false,
      "t": 8571.408000000003,
      "d": 712.7959083333335,
      "v": 1
    },
    {
      "midi": 71,
      "hit": false,
      "t": 8571.408000000003,
      "d": 712.7959083333335,
      "v": 1
    },
    {
      "midi": 59,
      "hit": false,
      "t": 8749.979000000001,
      "d": 158.48176250000142,
      "v": 88
    },
    {
      "midi": 63,
      "hit": false,
      "t": 8928.550000000003,
      "d": 188.24359583333353,
      "v": 95
    },
    {
      "midi": 59,
      "hit": false,
      "t": 9107.121000000003,
      "d": 148.8091666666678,
      "v": 94
    },
    {
      "midi": 59,
      "hit": false,
      "t": 9285.692000000003,
      "d": 177.08290833333376,
      "v": 1
    },
    {
      "midi": 63,
      "hit": false,
      "t": 9285.692000000003,
      "d": 177.08290833333376,
      "v": 1
    },
    {
      "midi": 66,
      "hit": false,
      "t": 9285.692000000003,
      "d": 177.08290833333376,
      "v": 1
    },
    {
      "midi": 66,
      "hit": false,
      "t": 9285.692000000005,
      "d": 206.84474166666587,
      "v": 99
    },
    {
      "midi": 54,
      "hit": false,
      "t": 9464.263000000003,
      "d": 534.2249083333336,
      "v": 1
    },
    {
      "midi": 59,
      "hit": false,
      "t": 9464.263000000003,
      "d": 534.2249083333336,
      "v": 1
    },
    {
      "midi": 63,
      "hit": false,
      "t": 9464.263000000003,
      "d": 534.2249083333336,
      "v": 1
    },
    {
      "midi": 63,
      "hit": false,
      "t": 9464.263000000004,
      "d": 267.85649999999987,
      "v": 91
    },
    {
      "midi": 59,
      "hit": false,
      "t": 9642.834000000004,
      "d": 325.89207499999975,
      "v": 79
    },
    {
      "midi": 54,
      "hit": false,
      "t": 9821.405000000004,
      "d": 152.52939583333318,
      "v": 78
    },
    {
      "midi": 63,
      "hit": false,
      "t": 9999.976000000002,
      "d": 712.7959083333335,
      "v": 1
    },
    {
      "midi": 68,
      "hit": false,
      "t": 9999.976000000002,
      "d": 712.7959083333335,
      "v": 1
    },
    {
      "midi": 72,
      "hit": false,
      "t": 9999.976000000002,
      "d": 712.7959083333335,
      "v": 1
    },
    {
      "midi": 51,
      "hit": false,
      "t": 9999.976000000004,
      "d": 252.9755833333329,
      "v": 89
    },
    {
      "midi": 56,
      "hit": false,
      "t": 10178.547000000004,
      "d": 204.61260416666664,
      "v": 91
    },
    {
      "midi": 60,
      "hit": false,
      "t": 10357.118000000004,
      "d": 258.9279499999993,
      "v": 88
    },
    {
      "midi": 56,
      "hit": false,
      "t": 10535.689000000004,
      "d": 169.64244999999937,
      "v": 87
    },
    {
      "midi": 60,
      "hit": false,
      "t": 10714.260000000002,
      "d": 177.08290833333376,
      "v": 1
    },
    {
      "midi": 63,
      "hit": false,
      "t": 10714.260000000002,
      "d": 177.08290833333376,
      "v": 1
    },
    {
      "midi": 68,
      "hit": false,
      "t": 10714.260000000002,
      "d": 177.08290833333376,
      "v": 1
    },
    {
      "midi": 68,
      "hit": false,
      "t": 10714.260000000004,
      "d": 716.5161374999989,
      "v": 96
    },
    {
      "midi": 56,
      "hit": false,
      "t": 10892.831000000002,
      "d": 325.89207499999975,
      "v": 1
    },
    {
      "midi": 60,
      "hit": false,
      "t": 10892.831000000002,
      "d": 325.89207499999975,
      "v": 1
    },
    {
      "midi": 63,
      "hit": false,
      "t": 10892.831000000002,
      "d": 325.89207499999975,
      "v": 1
    },
    {
      "midi": 63,
      "hit": false,
      "t": 10892.831000000004,
      "d": 534.2249083333336,
      "v": 71
    },
    {
      "midi": 60,
      "hit": false,
      "t": 11071.402000000004,
      "d": 344.4932208333339,
      "v": 92
    },
    {
      "midi": 51,
      "hit": false,
      "t": 11428.544000000004,
      "d": 647.3198749999992,
      "v": 85
    },
    {
      "midi": 44,
      "hit": false,
      "t": 11428.544000000004,
      "d": 680.8019374999985,
      "v": 100
    },
    {
      "midi": 56,
      "hit": false,
      "t": 11607.115000000003,
      "d": 151.04130416666703,
      "v": 95
    },
    {
      "midi": 60,
      "hit": false,
      "t": 11785.686000000003,
      "d": 171.13054166666734,
      "v": 91
    },
    {
      "midi": 56,
      "hit": false,
      "t": 11964.257000000003,
      "d": 159.96985416666575,
      "v": 85
    },
    {
      "midi": 46,
      "hit": false,
      "t": 12142.828000000003,
      "d": 624.9984999999997,
      "v": 99
    },
    {
      "midi": 58,
      "hit": false,
      "t": 12321.399000000003,
      "d": 145.0889375000006,
      "v": 85
    },
    {
      "midi": 61,
      "hit": false,
      "t": 12499.970000000003,
      "d": 200.89237499999945,
      "v": 94
    },
    {
      "midi": 58,
      "hit": false,
      "t": 12678.541000000003,
      "d": 212.0530624999992,
      "v": 91
    },
    {
      "midi": 51,
      "hit": false,
      "t": 12857.112000000003,
      "d": 647.3198749999992,
      "v": 85
    },
    {
      "midi": 44,
      "hit": false,
      "t": 12857.112000000003,
      "d": 680.8019374999985,
      "v": 100
    },
    {
      "midi": 60,
      "hit": false,
      "t": 13035.683000000003,
      "d": 219.4935208333336,
      "v": 66
    },
    {
      "midi": 63,
      "hit": false,
      "t": 13214.254000000003,
      "d": 204.61260416666664,
      "v": 83
    },
    {
      "midi": 60,
      "hit": false,
      "t": 13392.825000000003,
      "d": 822.170645833332,
      "v": 71
    },
    {
      "midi": 68,
      "hit": false,
      "t": 13571.396,
      "d": 327.3801666666659,
      "v": 75
    },
    {
      "midi": 68,
      "hit": false,
      "t": 13928.538,
      "d": 364.5824583333324,
      "v": 84
    },
    {
      "midi": 51,
      "hit": false,
      "t": 14285.68,
      "d": 647.3198749999992,
      "v": 85
    },
    {
      "midi": 44,
      "hit": false,
      "t": 14285.68,
      "d": 680.8019374999985,
      "v": 100
    },
    {
      "midi": 56,
      "hit": false,
      "t": 14464.251,
      "d": 151.04130416666703,
      "v": 95
    },
    {
      "midi": 60,
      "hit": false,
      "t": 14642.822,
      "d": 171.13054166666734,
      "v": 91
    },
    {
      "midi": 56,
      "hit": false,
      "t": 14821.393,
      "d": 159.96985416666575,
      "v": 85
    },
    {
      "midi": 46,
      "hit": false,
      "t": 14999.964,
      "d": 624.9984999999997,
      "v": 99
    },
    {
      "midi": 58,
      "hit": false,
      "t": 15178.535,
      "d": 145.0889375000006,
      "v": 85
    },
    {
      "midi": 61,
      "hit": false,
      "t": 15357.106,
      "d": 200.89237499999945,
      "v": 94
    },
    {
      "midi": 54,
      "hit": false,
      "t": 15535.677,
      "d": 152.52939583333318,
      "v": 78
    },
    {
      "midi": 58,
      "hit": false,
      "t": 15535.677,
      "d": 212.0530624999992,
      "v": 91
    },
    {
      "midi": 51,
      "hit": false,
      "t": 15714.248,
      "d": 647.3198749999992,
      "v": 85
    },
    {
      "midi": 44,
      "hit": false,
      "t": 15714.248,
      "d": 680.8019375000003,
      "v": 100
    },
    {
      "midi": 60,
      "hit": false,
      "t": 15892.819,
      "d": 219.4935208333336,
      "v": 66
    },
    {
      "midi": 63,
      "hit": false,
      "t": 16071.39,
      "d": 204.61260416666664,
      "v": 83
    },
    {
      "midi": 60,
      "hit": false,
      "t": 16249.961,
      "d": 531.9927708333344,
      "v": 71
    },
    {
      "midi": 68,
      "hit": false,
      "t": 16428.532,
      "d": 616.069950000001,
      "v": 75
    },
    {
      "midi": 56,
      "hit": false,
      "t": 16607.103,
      "d": 345.98131250000006,
      "v": 70
    },
    {
      "midi": 60,
      "hit": false,
      "t": 16785.674,
      "d": 173.36267916666839,
      "v": 62
    },
    {
      "midi": 56,
      "hit": false,
      "t": 16964.245,
      "d": 158.4817624999996,
      "v": 77
    },
    {
      "midi": 51,
      "hit": false,
      "t": 17142.816,
      "d": 647.319875000001,
      "v": 85
    },
    {
      "midi": 44,
      "hit": false,
      "t": 17142.816,
      "d": 680.8019375000003,
      "v": 100
    },
    {
      "midi": 56,
      "hit": false,
      "t": 17321.387,
      "d": 151.0413041666652,
      "v": 95
    },
    {
      "midi": 60,
      "hit": false,
      "t": 17499.958,
      "d": 171.13054166666552,
      "v": 91
    },
    {
      "midi": 56,
      "hit": false,
      "t": 17678.529,
      "d": 159.96985416666575,
      "v": 85
    },
    {
      "midi": 46,
      "hit": false,
      "t": 17857.1,
      "d": 624.9984999999979,
      "v": 99
    },
    {
      "midi": 58,
      "hit": false,
      "t": 18035.671,
      "d": 145.0889375000006,
      "v": 85
    },
    {
      "midi": 61,
      "hit": false,
      "t": 18214.242,
      "d": 200.89237499999945,
      "v": 94
    },
    {
      "midi": 58,
      "hit": false,
      "t": 18392.813,
      "d": 212.0530624999992,
      "v": 91
    },
    {
      "midi": 51,
      "hit": false,
      "t": 18571.384,
      "d": 647.3198749999974,
      "v": 85
    },
    {
      "midi": 44,
      "hit": false,
      "t": 18571.384,
      "d": 680.8019374999967,
      "v": 100
    },
    {
      "midi": 60,
      "hit": false,
      "t": 18749.954999999998,
      "d": 219.4935208333336,
      "v": 66
    },
    {
      "midi": 63,
      "hit": false,
      "t": 18928.525999999998,
      "d": 204.61260416666482,
      "v": 83
    },
    {
      "midi": 60,
      "hit": false,
      "t": 19107.096999999998,
      "d": 822.1706458333283,
      "v": 71
    },
    {
      "midi": 68,
      "hit": false,
      "t": 19285.667999999994,
      "d": 327.3801666666659,
      "v": 75
    },
    {
      "midi": 68,
      "hit": false,
      "t": 19642.809999999994,
      "d": 364.5824583333342,
      "v": 84
    },
    {
      "midi": 51,
      "hit": false,
      "t": 19999.951999999994,
      "d": 647.319875000001,
      "v": 85
    },
    {
      "midi": 44,
      "hit": false,
      "t": 19999.951999999994,
      "d": 680.8019375000003,
      "v": 100
    },
    {
      "midi": 56,
      "hit": false,
      "t": 20178.522999999994,
      "d": 151.0413041666652,
      "v": 95
    },
    {
      "midi": 60,
      "hit": false,
      "t": 20357.093999999994,
      "d": 171.13054166666552,
      "v": 91
    },
    {
      "midi": 56,
      "hit": false,
      "t": 20535.664999999994,
      "d": 159.96985416666575,
      "v": 85
    },
    {
      "midi": 46,
      "hit": false,
      "t": 20714.235999999994,
      "d": 624.9984999999979,
      "v": 99
    },
    {
      "midi": 58,
      "hit": false,
      "t": 20892.806999999993,
      "d": 145.0889375000006,
      "v": 85
    },
    {
      "midi": 61,
      "hit": false,
      "t": 21071.377999999993,
      "d": 200.89237499999945,
      "v": 94
    },
    {
      "midi": 54,
      "hit": false,
      "t": 21249.948999999993,
      "d": 152.52939583333136,
      "v": 78
    },
    {
      "midi": 58,
      "hit": false,
      "t": 21249.948999999993,
      "d": 212.05306249999558,
      "v": 91
    },
    {
      "midi": 51,
      "hit": false,
      "t": 21428.51999999999,
      "d": 647.3198749999974,
      "v": 85
    },
    {
      "midi": 44,
      "hit": false,
      "t": 21428.51999999999,
      "d": 680.8019374999967,
      "v": 100
    },
    {
      "midi": 60,
      "hit": false,
      "t": 21607.09099999999,
      "d": 219.4935208333336,
      "v": 66
    },
    {
      "midi": 63,
      "hit": false,
      "t": 21785.66199999999,
      "d": 204.61260416666482,
      "v": 83
    },
    {
      "midi": 60,
      "hit": false,
      "t": 21964.23299999999,
      "d": 531.9927708333307,
      "v": 71
    },
    {
      "midi": 68,
      "hit": false,
      "t": 22142.803999999986,
      "d": 616.069950000001,
      "v": 75
    },
    {
      "midi": 56,
      "hit": false,
      "t": 22321.374999999985,
      "d": 345.98131250000006,
      "v": 70
    },
    {
      "midi": 60,
      "hit": false,
      "t": 22499.945999999985,
      "d": 173.36267916666839,
      "v": 62
    },
    {
      "midi": 56,
      "hit": false,
      "t": 22678.516999999985,
      "d": 158.4817624999996,
      "v": 77
    },
    {
      "midi": 54,
      "hit": false,
      "t": 27857.075999999986,
      "d": 850.4443874999997,
      "v": 106
    },
    {
      "midi": 58,
      "hit": false,
      "t": 27857.075999999986,
      "d": 877.9740833333344,
      "v": 100
    },
    {
      "midi": 61,
      "hit": false,
      "t": 27857.075999999986,
      "d": 885.4145416666688,
      "v": 100
    },
    {
      "midi": 42,
      "hit": false,
      "t": 27857.075999999986,
      "d": 1144.34249166667,
      "v": 83
    },
    {
      "midi": 54,
      "hit": false,
      "t": 28749.93099999999,
      "d": 502.23093750000044,
      "v": 102
    },
    {
      "midi": 58,
      "hit": false,
      "t": 28749.93099999999,
      "d": 502.23093750000044,
      "v": 96
    },
    {
      "midi": 61,
      "hit": false,
      "t": 28749.93099999999,
      "d": 502.23093750000044,
      "v": 94
    },
    {
      "midi": 66,
      "hit": false,
      "t": 28749.93099999999,
      "d": 502.23093750000044,
      "v": 107
    },
    {
      "midi": 43,
      "hit": false,
      "t": 29285.64399999999,
      "d": 247.76726250000138,
      "v": 82
    },
    {
      "midi": 61,
      "hit": false,
      "t": 29285.64399999999,
      "d": 286.45764583333585,
      "v": 100
    },
    {
      "midi": 58,
      "hit": false,
      "t": 29285.64399999999,
      "d": 290.1778750000012,
      "v": 103
    },
    {
      "midi": 55,
      "hit": false,
      "t": 29285.64399999999,
      "d": 301.338562500001,
      "v": 99
    },
    {
      "midi": 45,
      "hit": false,
      "t": 30178.49899999999,
      "d": 479.9095625000009,
      "v": 84
    },
    {
      "midi": 61,
      "hit": false,
      "t": 30178.49899999999,
      "d": 485.86192916666914,
      "v": 118
    },
    {
      "midi": 57,
      "hit": false,
      "t": 30178.49899999999,
      "d": 497.0226166666689,
      "v": 91
    },
    {
      "midi": 46,
      "hit": false,
      "t": 30714.211999999992,
      "d": 308.77902083333174,
      "v": 100
    },
    {
      "midi": 64,
      "hit": false,
      "t": 36428.48399999999,
      "d": 52.08320833332982,
      "v": 73
    },
    {
      "midi": 61,
      "hit": false,
      "t": 36428.48399999999,
      "d": 55.803437499998836,
      "v": 81
    },
    {
      "midi": 58,
      "hit": false,
      "t": 36428.48399999999,
      "d": 58.0355750000017,
      "v": 83
    },
    {
      "midi": 54,
      "hit": false,
      "t": 36428.48399999999,
      "d": 63.243895833336865,
      "v": 82
    },
    {
      "midi": 42,
      "hit": false,
      "t": 36428.48399999999,
      "d": 1043.8963041666793,
      "v": 88
    },
    {
      "midi": 58,
      "hit": false,
      "t": 36607.05499999999,
      "d": 46.87488750000193,
      "v": 95
    },
    {
      "midi": 64,
      "hit": false,
      "t": 36607.05499999999,
      "d": 50.59511666667095,
      "v": 85
    },
    {
      "midi": 61,
      "hit": false,
      "t": 36607.05499999999,
      "d": 61.755804166670714,
      "v": 90
    },
    {
      "midi": 54,
      "hit": false,
      "t": 36607.05499999999,
      "d": 69.19626250000147,
      "v": 91
    },
    {
      "midi": 58,
      "hit": false,
      "t": 36785.626,
      "d": 46.87488750000193,
      "v": 82
    },
    {
      "midi": 54,
      "hit": false,
      "t": 36785.626,
      "d": 59.52366666666785,
      "v": 90
    },
    {
      "midi": 61,
      "hit": false,
      "t": 36785.626,
      "d": 61.755804166670714,
      "v": 90
    },
    {
      "midi": 64,
      "hit": false,
      "t": 36785.626,
      "d": 66.96412500000588,
      "v": 79
    },
    {
      "midi": 58,
      "hit": false,
      "t": 36964.197,
      "d": 35.714200000002165,
      "v": 80
    },
    {
      "midi": 54,
      "hit": false,
      "t": 36964.197,
      "d": 48.36297916666808,
      "v": 91
    },
    {
      "midi": 61,
      "hit": false,
      "t": 36964.197,
      "d": 52.0832083333371,
      "v": 84
    },
    {
      "midi": 64,
      "hit": false,
      "t": 36964.197,
      "d": 63.243895833336865,
      "v": 77
    },
    {
      "midi": 58,
      "hit": false,
      "t": 37142.768000000004,
      "d": 44.64274999999907,
      "v": 88
    },
    {
      "midi": 54,
      "hit": false,
      "t": 37142.768000000004,
      "d": 55.803437499998836,
      "v": 95
    },
    {
      "midi": 61,
      "hit": false,
      "t": 37142.768000000004,
      "d": 58.0355750000017,
      "v": 88
    },
    {
      "midi": 64,
      "hit": false,
      "t": 37142.768000000004,
      "d": 65.47603333333245,
      "v": 79
    },
    {
      "midi": 58,
      "hit": false,
      "t": 37321.339,
      "d": 497.0226166666689,
      "v": 89
    },
    {
      "midi": 61,
      "hit": false,
      "t": 37321.339,
      "d": 504.46307499999966,
      "v": 91
    },
    {
      "midi": 54,
      "hit": false,
      "t": 37321.339,
      "d": 519.3439916666684,
      "v": 87
    },
    {
      "midi": 64,
      "hit": false,
      "t": 37321.339,
      "d": 530.5046791666682,
      "v": 91
    },
    {
      "midi": 42,
      "hit": false,
      "t": 37678.481,
      "d": 180.80313750000641,
      "v": 97
    },
    {
      "midi": 58,
      "hit": false,
      "t": 37857.052,
      "d": 46.87488750000193,
      "v": 79
    },
    {
      "midi": 55,
      "hit": false,
      "t": 37857.052,
      "d": 55.803437499998836,
      "v": 71
    },
    {
      "midi": 61,
      "hit": false,
      "t": 37857.052,
      "d": 61.75580416666344,
      "v": 88
    },
    {
      "midi": 43,
      "hit": false,
      "t": 37857.052,
      "d": 292.4100124999968,
      "v": 98
    },
    {
      "midi": 58,
      "hit": false,
      "t": 38035.623,
      "d": 48.36297916666808,
      "v": 84
    },
    {
      "midi": 55,
      "hit": false,
      "t": 38035.623,
      "d": 50.59511666667095,
      "v": 71
    },
    {
      "midi": 61,
      "hit": false,
      "t": 38035.623,
      "d": 59.52366666666785,
      "v": 90
    },
    {
      "midi": 58,
      "hit": false,
      "t": 38214.194,
      "d": 48.36297916666808,
      "v": 88
    },
    {
      "midi": 55,
      "hit": false,
      "t": 38214.194,
      "d": 54.315345833332685,
      "v": 76
    },
    {
      "midi": 61,
      "hit": false,
      "t": 38214.194,
      "d": 58.0355750000017,
      "v": 97
    },
    {
      "midi": 55,
      "hit": false,
      "t": 38392.76500000001,
      "d": 44.64274999999907,
      "v": 71
    },
    {
      "midi": 58,
      "hit": false,
      "t": 38392.76500000001,
      "d": 44.64274999999907,
      "v": 81
    },
    {
      "midi": 61,
      "hit": false,
      "t": 38392.76500000001,
      "d": 55.803437499998836,
      "v": 86
    },
    {
      "midi": 58,
      "hit": false,
      "t": 38571.336,
      "d": 46.87488750000193,
      "v": 84
    },
    {
      "midi": 61,
      "hit": false,
      "t": 38571.336,
      "d": 54.315345833332685,
      "v": 86
    },
    {
      "midi": 55,
      "hit": false,
      "t": 38571.336,
      "d": 58.0355750000017,
      "v": 78
    },
    {
      "midi": 61,
      "hit": false,
      "t": 38749.90700000001,
      "d": 453.867958333336,
      "v": 100
    },
    {
      "midi": 58,
      "hit": false,
      "t": 38749.90700000001,
      "d": 457.588187500005,
      "v": 97
    },
    {
      "midi": 55,
      "hit": false,
      "t": 38749.90700000001,
      "d": 470.98101250000764,
      "v": 82
    },
    {
      "midi": 41,
      "hit": false,
      "t": 39285.62000000002,
      "d": 89.28549999999814,
      "v": 99
    },
    {
      "midi": 53,
      "hit": false,
      "t": 39464.19100000001,
      "d": 50.59511666666367,
      "v": 85
    },
    {
      "midi": 41,
      "hit": false,
      "t": 39464.19100000001,
      "d": 87.79740833333199,
      "v": 73
    },
    {
      "midi": 41,
      "hit": false,
      "t": 39642.76200000001,
      "d": 58.0355750000017,
      "v": 76
    },
    {
      "midi": 53,
      "hit": false,
      "t": 39642.76200000001,
      "d": 69.19626250000147,
      "v": 76
    },
    {
      "midi": 41,
      "hit": false,
      "t": 39821.33300000001,
      "d": 111.60687499999767,
      "v": 76
    },
    {
      "midi": 53,
      "hit": false,
      "t": 39821.33300000001,
      "d": 115.32710416666669,
      "v": 102
    },
    {
      "midi": 55,
      "hit": false,
      "t": 39999.90400000002,
      "d": 95.23786666667002,
      "v": 102
    },
    {
      "midi": 43,
      "hit": false,
      "t": 39999.90400000002,
      "d": 180.80313750000641,
      "v": 96
    },
    {
      "midi": 57,
      "hit": false,
      "t": 40178.47500000002,
      "d": 394.34429166666814,
      "v": 102
    },
    {
      "midi": 45,
      "hit": false,
      "t": 40178.47500000002,
      "d": 526.7844499999992,
      "v": 96
    },
    {
      "midi": 63,
      "hit": false,
      "t": 40714.188,
      "d": 712.7959083333335,
      "v": 1
    },
    {
      "midi": 67,
      "hit": false,
      "t": 40714.188,
      "d": 712.7959083333335,
      "v": 1
    },
    {
      "midi": 70,
      "hit": false,
      "t": 40714.188,
      "d": 712.7959083333335,
      "v": 1
    },
    {
      "midi": 70,
      "hit": false,
      "t": 40714.18800000002,
      "d": 642.1115541666659,
      "v": 96
    },
    {
      "midi": 63,
      "hit": false,
      "t": 41061.65740416668,
      "d": 180.80313749999914,
      "v": 88
    },
    {
      "midi": 58,
      "hit": false,
      "t": 41255.10932083335,
      "d": 138.39252500000293,
      "v": 86
    },
    {
      "midi": 58,
      "hit": false,
      "t": 41428.472,
      "d": 177.08290833333012,
      "v": 1
    },
    {
      "midi": 63,
      "hit": false,
      "t": 41428.472,
      "d": 177.08290833333012,
      "v": 1
    },
    {
      "midi": 67,
      "hit": false,
      "t": 41428.472,
      "d": 177.08290833333012,
      "v": 1
    },
    {
      "midi": 67,
      "hit": false,
      "t": 41428.472000000016,
      "d": 124.9997000000003,
      "v": 96
    },
    {
      "midi": 58,
      "hit": false,
      "t": 41607.043,
      "d": 534.22490833333,
      "v": 1
    },
    {
      "midi": 63,
      "hit": false,
      "t": 41607.043,
      "d": 534.22490833333,
      "v": 1
    },
    {
      "midi": 63,
      "hit": false,
      "t": 41607.04300000002,
      "d": 177.08290833333012,
      "v": 96
    },
    {
      "midi": 39,
      "hit": false,
      "t": 41785.614000000016,
      "d": 76.63672083333222,
      "v": 107
    },
    {
      "midi": 39,
      "hit": false,
      "t": 41964.18500000001,
      "d": 156.24962499999674,
      "v": 90
    },
    {
      "midi": 62,
      "hit": false,
      "t": 42142.755999999994,
      "d": 712.7959083333335,
      "v": 1
    },
    {
      "midi": 66,
      "hit": false,
      "t": 42142.755999999994,
      "d": 712.7959083333335,
      "v": 1
    },
    {
      "midi": 70,
      "hit": false,
      "t": 42142.755999999994,
      "d": 712.7959083333335,
      "v": 1
    },
    {
      "midi": 70,
      "hit": false,
      "t": 42142.75600000001,
      "d": 552.8260541666677,
      "v": 96
    },
    {
      "midi": 58,
      "hit": false,
      "t": 42157.63691666668,
      "d": 322.1718458333344,
      "v": 97
    },
    {
      "midi": 62,
      "hit": false,
      "t": 42493.945633333344,
      "d": 171.87458750000224,
      "v": 78
    },
    {
      "midi": 58,
      "hit": false,
      "t": 42676.23686250001,
      "d": 162.20199166666862,
      "v": 86
    },
    {
      "midi": 58,
      "hit": false,
      "t": 42857.03999999999,
      "d": 177.08290833333012,
      "v": 1
    },
    {
      "midi": 62,
      "hit": false,
      "t": 42857.03999999999,
      "d": 177.08290833333012,
      "v": 1
    },
    {
      "midi": 66,
      "hit": false,
      "t": 42857.03999999999,
      "d": 177.08290833333012,
      "v": 1
    },
    {
      "midi": 66,
      "hit": false,
      "t": 42857.04000000001,
      "d": 98.95809583333175,
      "v": 96
    },
    {
      "midi": 54,
      "hit": false,
      "t": 43035.61099999999,
      "d": 534.22490833333,
      "v": 1
    },
    {
      "midi": 58,
      "hit": false,
      "t": 43035.61099999999,
      "d": 534.22490833333,
      "v": 1
    },
    {
      "midi": 62,
      "hit": false,
      "t": 43035.61099999999,
      "d": 534.22490833333,
      "v": 1
    },
    {
      "midi": 62,
      "hit": false,
      "t": 43035.611000000004,
      "d": 148.809166666666,
      "v": 96
    },
    {
      "midi": 38,
      "hit": false,
      "t": 43214.182,
      "d": 76.63672083333222,
      "v": 102
    },
    {
      "midi": 38,
      "hit": false,
      "t": 43392.753,
      "d": 102.67832500000077,
      "v": 106
    },
    {
      "midi": 61,
      "hit": false,
      "t": 43571.323999999986,
      "d": 712.7959083333335,
      "v": 1
    },
    {
      "midi": 65,
      "hit": false,
      "t": 43571.323999999986,
      "d": 712.7959083333335,
      "v": 1
    },
    {
      "midi": 70,
      "hit": false,
      "t": 43571.323999999986,
      "d": 712.7959083333335,
      "v": 1
    },
    {
      "midi": 65,
      "hit": false,
      "t": 43571.324,
      "d": 392.856200000002,
      "v": 87
    },
    {
      "midi": 61,
      "hit": false,
      "t": 43571.324,
      "d": 401.7847499999989,
      "v": 86
    },
    {
      "midi": 68,
      "hit": false,
      "t": 43571.324,
      "d": 404.01688750000176,
      "v": 83
    },
    {
      "midi": 70,
      "hit": false,
      "t": 43571.324,
      "d": 582.5878875000053,
      "v": 96
    },
    {
      "midi": 65,
      "hit": false,
      "t": 44107.037000000004,
      "d": 119.0473333333357,
      "v": 87
    },
    {
      "midi": 61,
      "hit": false,
      "t": 44107.037000000004,
      "d": 121.27947083333856,
      "v": 90
    },
    {
      "midi": 68,
      "hit": false,
      "t": 44107.037000000004,
      "d": 141.36870833333523,
      "v": 86
    },
    {
      "midi": 56,
      "hit": false,
      "t": 44285.607999999986,
      "d": 177.08290833333012,
      "v": 1
    },
    {
      "midi": 61,
      "hit": false,
      "t": 44285.607999999986,
      "d": 177.08290833333012,
      "v": 1
    },
    {
      "midi": 65,
      "hit": false,
      "t": 44285.607999999986,
      "d": 177.08290833333012,
      "v": 1
    },
    {
      "midi": 65,
      "hit": false,
      "t": 44285.60800000001,
      "d": 113.83901250000054,
      "v": 96
    },
    {
      "midi": 53,
      "hit": false,
      "t": 44464.17899999998,
      "d": 355.6539083333337,
      "v": 1
    },
    {
      "midi": 56,
      "hit": false,
      "t": 44464.17899999998,
      "d": 355.6539083333337,
      "v": 1
    },
    {
      "midi": 61,
      "hit": false,
      "t": 44464.17899999998,
      "d": 355.6539083333337,
      "v": 1
    },
    {
      "midi": 65,
      "hit": false,
      "t": 44464.17900000001,
      "d": 145.08893749999697,
      "v": 78
    },
    {
      "midi": 61,
      "hit": false,
      "t": 44464.17900000001,
      "d": 148.809166666666,
      "v": 96
    },
    {
      "midi": 68,
      "hit": false,
      "t": 44464.17900000001,
      "d": 169.64244999999937,
      "v": 81
    },
    {
      "midi": 65,
      "hit": false,
      "t": 44642.75000000001,
      "d": 154.7615333333306,
      "v": 96
    },
    {
      "midi": 61,
      "hit": false,
      "t": 44821.321,
      "d": 132.44015833333106,
      "v": 81
    },
    {
      "midi": 51,
      "hit": false,
      "t": 44999.892,
      "d": 647.319875000001,
      "v": 92
    },
    {
      "midi": 44,
      "hit": false,
      "t": 44999.892,
      "d": 680.8019375000003,
      "v": 103
    },
    {
      "midi": 56,
      "hit": false,
      "t": 45178.463,
      "d": 151.04130416666885,
      "v": 102
    },
    {
      "midi": 60,
      "hit": false,
      "t": 45357.03400000001,
      "d": 171.13054166666552,
      "v": 98
    },
    {
      "midi": 56,
      "hit": false,
      "t": 45535.605,
      "d": 159.96985416666575,
      "v": 92
    },
    {
      "midi": 46,
      "hit": false,
      "t": 45714.176,
      "d": 624.9985000000015,
      "v": 106
    },
    {
      "midi": 58,
      "hit": false,
      "t": 45892.747,
      "d": 145.08893749999697,
      "v": 92
    },
    {
      "midi": 61,
      "hit": false,
      "t": 46071.318,
      "d": 200.89237500000309,
      "v": 101
    },
    {
      "midi": 58,
      "hit": false,
      "t": 46249.889,
      "d": 212.05306249999558,
      "v": 98
    },
    {
      "midi": 62,
      "hit": false,
      "t": 46428.459999999985,
      "d": 712.7959083333335,
      "v": 1
    },
    {
      "midi": 66,
      "hit": false,
      "t": 46428.459999999985,
      "d": 712.7959083333335,
      "v": 1
    },
    {
      "midi": 69,
      "hit": false,
      "t": 46428.459999999985,
      "d": 712.7959083333335,
      "v": 1
    },
    {
      "midi": 50,
      "hit": false,
      "t": 46428.46,
      "d": 338.5408541666693,
      "v": 102
    },
    {
      "midi": 57,
      "hit": false,
      "t": 46785.602,
      "d": 173.36267916666839,
      "v": 96
    },
    {
      "midi": 62,
      "hit": false,
      "t": 46785.602,
      "d": 531.9927708333344,
      "v": 66
    },
    {
      "midi": 50,
      "hit": false,
      "t": 46964.173,
      "d": 206.8447416666677,
      "v": 106
    },
    {
      "midi": 57,
      "hit": false,
      "t": 47142.743999999984,
      "d": 177.08290833333012,
      "v": 1
    },
    {
      "midi": 62,
      "hit": false,
      "t": 47142.743999999984,
      "d": 177.08290833333012,
      "v": 1
    },
    {
      "midi": 66,
      "hit": false,
      "t": 47142.743999999984,
      "d": 177.08290833333012,
      "v": 1
    },
    {
      "midi": 66,
      "hit": false,
      "t": 47142.744000000006,
      "d": 165.92222083333036,
      "v": 86
    },
    {
      "midi": 54,
      "hit": false,
      "t": 47321.31499999998,
      "d": 534.22490833333,
      "v": 1
    },
    {
      "midi": 57,
      "hit": false,
      "t": 47321.31499999998,
      "d": 534.22490833333,
      "v": 1
    },
    {
      "midi": 62,
      "hit": false,
      "t": 47321.31499999998,
      "d": 534.22490833333,
      "v": 1
    },
    {
      "midi": 62,
      "hit": false,
      "t": 47321.315,
      "d": 52.08320833332982,
      "v": 75
    },
    {
      "midi": 50,
      "hit": false,
      "t": 47321.315,
      "d": 215.7732916666646,
      "v": 106
    },
    {
      "midi": 66,
      "hit": false,
      "t": 47499.886,
      "d": 277.5290958333353,
      "v": 107
    },
    {
      "midi": 69,
      "hit": false,
      "t": 47499.886,
      "d": 297.618333333332,
      "v": 85
    },
    {
      "midi": 50,
      "hit": false,
      "t": 47678.457,
      "d": 186.01145833332703,
      "v": 106
    },
    {
      "midi": 63,
      "hit": false,
      "t": 47857.02799999998,
      "d": 712.7959083333335,
      "v": 1
    },
    {
      "midi": 66,
      "hit": false,
      "t": 47857.02799999998,
      "d": 712.7959083333335,
      "v": 1
    },
    {
      "midi": 71,
      "hit": false,
      "t": 47857.02799999998,
      "d": 712.7959083333335,
      "v": 1
    },
    {
      "midi": 47,
      "hit": false,
      "t": 47857.028,
      "d": 299.85047083332756,
      "v": 76
    },
    {
      "midi": 63,
      "hit": false,
      "t": 47857.028,
      "d": 342.26108333333104,
      "v": 90
    },
    {
      "midi": 66,
      "hit": false,
      "t": 47857.028,
      "d": 342.26108333333104,
      "v": 103
    },
    {
      "midi": 59,
      "hit": false,
      "t": 47857.028,
      "d": 359.3741375000027,
      "v": 80
    },
    {
      "midi": 54,
      "hit": false,
      "t": 48214.17,
      "d": 162.20199166666862,
      "v": 88
    },
    {
      "midi": 66,
      "hit": false,
      "t": 48214.17,
      "d": 165.92222083333763,
      "v": 100
    },
    {
      "midi": 59,
      "hit": false,
      "t": 48392.741,
      "d": 182.29122916667257,
      "v": 85
    },
    {
      "midi": 47,
      "hit": false,
      "t": 48392.741,
      "d": 232.88634583333624,
      "v": 73
    },
    {
      "midi": 59,
      "hit": false,
      "t": 48571.311999999976,
      "d": 177.08290833333012,
      "v": 1
    },
    {
      "midi": 63,
      "hit": false,
      "t": 48571.311999999976,
      "d": 177.08290833333012,
      "v": 1
    },
    {
      "midi": 66,
      "hit": false,
      "t": 48571.311999999976,
      "d": 177.08290833333012,
      "v": 1
    },
    {
      "midi": 66,
      "hit": false,
      "t": 48571.312000000005,
      "d": 221.7256583333292,
      "v": 97
    },
    {
      "midi": 54,
      "hit": false,
      "t": 48749.88299999997,
      "d": 534.22490833333,
      "v": 1
    },
    {
      "midi": 59,
      "hit": false,
      "t": 48749.88299999997,
      "d": 534.22490833333,
      "v": 1
    },
    {
      "midi": 63,
      "hit": false,
      "t": 48749.88299999997,
      "d": 534.22490833333,
      "v": 1
    },
    {
      "midi": 63,
      "hit": false,
      "t": 48749.883,
      "d": 137.64847916666622,
      "v": 84
    },
    {
      "midi": 47,
      "hit": false,
      "t": 48749.883,
      "d": 244.04703333332873,
      "v": 85
    },
    {
      "midi": 59,
      "hit": false,
      "t": 48928.454,
      "d": 267.8564999999944,
      "v": 105
    },
    {
      "midi": 47,
      "hit": false,
      "t": 49107.024999999994,
      "d": 167.4103124999965,
      "v": 85
    },
    {
      "midi": 63,
      "hit": false,
      "t": 49285.59599999997,
      "d": 712.7959083333335,
      "v": 1
    },
    {
      "midi": 68,
      "hit": false,
      "t": 49285.59599999997,
      "d": 712.7959083333335,
      "v": 1
    },
    {
      "midi": 72,
      "hit": false,
      "t": 49285.59599999997,
      "d": 712.7959083333335,
      "v": 1
    },
    {
      "midi": 60,
      "hit": false,
      "t": 49999.87999999997,
      "d": 177.08290833333012,
      "v": 1
    },
    {
      "midi": 63,
      "hit": false,
      "t": 49999.87999999997,
      "d": 177.08290833333012,
      "v": 1
    },
    {
      "midi": 68,
      "hit": false,
      "t": 49999.87999999997,
      "d": 177.08290833333012,
      "v": 1
    },
    {
      "midi": 56,
      "hit": false,
      "t": 50178.450999999965,
      "d": 325.8920750000034,
      "v": 1
    },
    {
      "midi": 60,
      "hit": false,
      "t": 50178.450999999965,
      "d": 325.8920750000034,
      "v": 1
    },
    {
      "midi": 63,
      "hit": false,
      "t": 50178.450999999965,
      "d": 325.8920750000034,
      "v": 1
    },
    {
      "midi": 51,
      "hit": false,
      "t": 50714.16399999999,
      "d": 647.319875000001,
      "v": 85
    },
    {
      "midi": 44,
      "hit": false,
      "t": 50714.16399999999,
      "d": 680.8019375000003,
      "v": 100
    },
    {
      "midi": 56,
      "hit": false,
      "t": 50892.73499999999,
      "d": 151.04130416666885,
      "v": 95
    },
    {
      "midi": 60,
      "hit": false,
      "t": 51071.306,
      "d": 171.13054166666552,
      "v": 91
    },
    {
      "midi": 56,
      "hit": false,
      "t": 51249.87699999999,
      "d": 159.96985416666575,
      "v": 85
    },
    {
      "midi": 46,
      "hit": false,
      "t": 51428.44799999999,
      "d": 624.9985000000015,
      "v": 99
    },
    {
      "midi": 58,
      "hit": false,
      "t": 51607.01899999999,
      "d": 145.08893749999697,
      "v": 85
    },
    {
      "midi": 61,
      "hit": false,
      "t": 51785.58999999999,
      "d": 200.89237500000309,
      "v": 94
    },
    {
      "midi": 58,
      "hit": false,
      "t": 51964.16099999999,
      "d": 212.05306249999558,
      "v": 91
    },
    {
      "midi": 51,
      "hit": false,
      "t": 52142.73199999999,
      "d": 647.319875000001,
      "v": 85
    },
    {
      "midi": 44,
      "hit": false,
      "t": 52142.73199999999,
      "d": 680.8019375000003,
      "v": 100
    },
    {
      "midi": 60,
      "hit": false,
      "t": 52321.302999999985,
      "d": 219.4935208333336,
      "v": 66
    },
    {
      "midi": 63,
      "hit": false,
      "t": 52499.87399999999,
      "d": 204.61260416666482,
      "v": 83
    },
    {
      "midi": 60,
      "hit": false,
      "t": 52678.444999999985,
      "d": 822.1706458333356,
      "v": 71
    },
    {
      "midi": 68,
      "hit": false,
      "t": 52857.01599999999,
      "d": 327.38016666666954,
      "v": 75
    },
    {
      "midi": 68,
      "hit": false,
      "t": 53214.15799999999,
      "d": 364.5824583333306,
      "v": 84
    },
    {
      "midi": 51,
      "hit": false,
      "t": 53571.29999999999,
      "d": 647.3198749999938,
      "v": 85
    },
    {
      "midi": 44,
      "hit": false,
      "t": 53571.29999999999,
      "d": 680.8019374999931,
      "v": 100
    },
    {
      "midi": 56,
      "hit": false,
      "t": 53749.870999999985,
      "d": 151.04130416666885,
      "v": 95
    },
    {
      "midi": 60,
      "hit": false,
      "t": 53928.44199999999,
      "d": 171.13054166666552,
      "v": 91
    },
    {
      "midi": 56,
      "hit": false,
      "t": 54107.012999999984,
      "d": 159.96985416666575,
      "v": 85
    },
    {
      "midi": 46,
      "hit": false,
      "t": 54285.58399999998,
      "d": 624.9985000000015,
      "v": 99
    },
    {
      "midi": 58,
      "hit": false,
      "t": 54464.154999999984,
      "d": 145.08893749999697,
      "v": 85
    },
    {
      "midi": 61,
      "hit": false,
      "t": 54642.72599999998,
      "d": 200.89237500000309,
      "v": 94
    },
    {
      "midi": 54,
      "hit": false,
      "t": 54821.296999999984,
      "d": 152.529395833335,
      "v": 78
    },
    {
      "midi": 58,
      "hit": false,
      "t": 54821.296999999984,
      "d": 212.05306250000285,
      "v": 91
    },
    {
      "midi": 51,
      "hit": false,
      "t": 54999.86799999999,
      "d": 647.319875000001,
      "v": 85
    },
    {
      "midi": 44,
      "hit": false,
      "t": 54999.86799999999,
      "d": 680.8019375000003,
      "v": 100
    },
    {
      "midi": 60,
      "hit": false,
      "t": 55178.438999999984,
      "d": 219.4935208333336,
      "v": 66
    },
    {
      "midi": 63,
      "hit": false,
      "t": 55357.00999999999,
      "d": 204.61260416666482,
      "v": 83
    },
    {
      "midi": 60,
      "hit": false,
      "t": 55535.580999999984,
      "d": 531.9927708333416,
      "v": 71
    },
    {
      "midi": 68,
      "hit": false,
      "t": 55714.15199999999,
      "d": 616.0699500000046,
      "v": 75
    },
    {
      "midi": 56,
      "hit": false,
      "t": 55892.72299999999,
      "d": 345.98131250000006,
      "v": 70
    },
    {
      "midi": 60,
      "hit": false,
      "t": 56071.293999999994,
      "d": 173.3626791666611,
      "v": 62
    },
    {
      "midi": 56,
      "hit": false,
      "t": 56249.86499999999,
      "d": 158.4817624999996,
      "v": 77
    },
    {
      "midi": 51,
      "hit": false,
      "t": 56428.43599999999,
      "d": 647.319875000001,
      "v": 85
    },
    {
      "midi": 44,
      "hit": false,
      "t": 56428.43599999999,
      "d": 680.8019375000003,
      "v": 100
    },
    {
      "midi": 56,
      "hit": false,
      "t": 56607.00699999999,
      "d": 151.04130416666885,
      "v": 95
    },
    {
      "midi": 60,
      "hit": false,
      "t": 56785.577999999994,
      "d": 171.13054166666552,
      "v": 91
    },
    {
      "midi": 56,
      "hit": false,
      "t": 56964.14899999999,
      "d": 159.96985416666575,
      "v": 85
    },
    {
      "midi": 46,
      "hit": false,
      "t": 57142.71999999999,
      "d": 624.9985000000015,
      "v": 99
    },
    {
      "midi": 58,
      "hit": false,
      "t": 57321.29099999999,
      "d": 145.08893749999697,
      "v": 85
    },
    {
      "midi": 61,
      "hit": false,
      "t": 57499.86199999999,
      "d": 200.89237500000309,
      "v": 94
    },
    {
      "midi": 58,
      "hit": false,
      "t": 57678.43299999999,
      "d": 212.05306249999558,
      "v": 91
    },
    {
      "midi": 51,
      "hit": false,
      "t": 57857.003999999986,
      "d": 647.319875000001,
      "v": 85
    },
    {
      "midi": 44,
      "hit": false,
      "t": 57857.003999999986,
      "d": 680.8019375000003,
      "v": 100
    },
    {
      "midi": 60,
      "hit": false,
      "t": 58035.57499999998,
      "d": 219.4935208333336,
      "v": 66
    },
    {
      "midi": 63,
      "hit": false,
      "t": 58214.145999999986,
      "d": 204.61260416666482,
      "v": 83
    },
    {
      "midi": 60,
      "hit": false,
      "t": 58392.71699999998,
      "d": 822.1706458333356,
      "v": 71
    },
    {
      "midi": 68,
      "hit": false,
      "t": 58571.287999999986,
      "d": 327.38016666666954,
      "v": 75
    },
    {
      "midi": 68,
      "hit": false,
      "t": 58928.429999999986,
      "d": 364.5824583333306,
      "v": 84
    },
    {
      "midi": 51,
      "hit": false,
      "t": 59285.571999999986,
      "d": 647.3198749999938,
      "v": 85
    },
    {
      "midi": 44,
      "hit": false,
      "t": 59285.571999999986,
      "d": 680.8019374999931,
      "v": 100
    },
    {
      "midi": 56,
      "hit": false,
      "t": 59464.14299999998,
      "d": 151.04130416666885,
      "v": 95
    },
    {
      "midi": 60,
      "hit": false,
      "t": 59642.713999999985,
      "d": 171.13054166666552,
      "v": 91
    },
    {
      "midi": 56,
      "hit": false,
      "t": 59821.28499999998,
      "d": 159.96985416666575,
      "v": 85
    },
    {
      "midi": 46,
      "hit": false,
      "t": 59999.85599999998,
      "d": 624.9985000000015,
      "v": 99
    },
    {
      "midi": 58,
      "hit": false,
      "t": 60178.42699999998,
      "d": 145.08893749999697,
      "v": 85
    },
    {
      "midi": 61,
      "hit": false,
      "t": 60356.99799999998,
      "d": 200.89237500000309,
      "v": 94
    },
    {
      "midi": 54,
      "hit": false,
      "t": 60535.56899999998,
      "d": 152.529395833335,
      "v": 78
    },
    {
      "midi": 58,
      "hit": false,
      "t": 60535.56899999998,
      "d": 212.05306250000285,
      "v": 91
    },
    {
      "midi": 55,
      "hit": false,
      "t": 60714.13999999997,
      "d": 2141.363908333333,
      "v": 1
    },
    {
      "midi": 58,
      "hit": false,
      "t": 60714.13999999997,
      "d": 2141.363908333333,
      "v": 1
    },
    {
      "midi": 62,
      "hit": false,
      "t": 60714.13999999997,
      "d": 2141.363908333333,
      "v": 1
    },
    {
      "midi": 65,
      "hit": false,
      "t": 60714.13999999997,
      "d": 2141.363908333333,
      "v": 1
    },
    {
      "midi": 55,
      "hit": false,
      "t": 62856.99199999997,
      "d": 1427.0799083333332,
      "v": 1
    },
    {
      "midi": 60,
      "hit": false,
      "t": 62856.99199999997,
      "d": 1427.0799083333332,
      "v": 1
    },
    {
      "midi": 64,
      "hit": false,
      "t": 62856.99199999997,
      "d": 1427.0799083333332,
      "v": 1
    },
    {
      "midi": 67,
      "hit": false,
      "t": 62856.99199999997,
      "d": 1427.0799083333332,
      "v": 1
    },
    {
      "midi": 69,
      "hit": false,
      "t": 64999.84399999998,
      "d": 173.36267916666839,
      "v": 57
    },
    {
      "midi": 72,
      "hit": false,
      "t": 64999.84399999998,
      "d": 174.85077083333454,
      "v": 61
    },
    {
      "midi": 65,
      "hit": false,
      "t": 64999.84399999998,
      "d": 188.24359583333717,
      "v": 57
    },
    {
      "midi": 69,
      "hit": false,
      "t": 65356.98599999999,
      "d": 203.12451249999867,
      "v": 55
    },
    {
      "midi": 65,
      "hit": false,
      "t": 65356.98599999999,
      "d": 212.05306249999558,
      "v": 63
    },
    {
      "midi": 72,
      "hit": false,
      "t": 65356.98599999999,
      "d": 212.05306249999558,
      "v": 62
    },
    {
      "midi": 69,
      "hit": false,
      "t": 65714.12799999998,
      "d": 186.0114583333343,
      "v": 57
    },
    {
      "midi": 65,
      "hit": false,
      "t": 65714.12799999998,
      "d": 197.17214583333407,
      "v": 70
    },
    {
      "midi": 72,
      "hit": false,
      "t": 65714.12799999998,
      "d": 197.17214583333407,
      "v": 65
    },
    {
      "midi": 69,
      "hit": false,
      "t": 66071.26999999999,
      "d": 191.9638249999989,
      "v": 66
    },
    {
      "midi": 72,
      "hit": false,
      "t": 66071.26999999999,
      "d": 197.17214583333407,
      "v": 70
    },
    {
      "midi": 65,
      "hit": false,
      "t": 66071.26999999999,
      "d": 206.8447416666604,
      "v": 73
    },
    {
      "midi": 69,
      "hit": false,
      "t": 66428.41199999998,
      "d": 171.1305416666728,
      "v": 70
    },
    {
      "midi": 72,
      "hit": false,
      "t": 66428.41199999998,
      "d": 173.36267916667566,
      "v": 72
    },
    {
      "midi": 65,
      "hit": false,
      "t": 66428.41199999998,
      "d": 174.8507708333491,
      "v": 73
    },
    {
      "midi": 69,
      "hit": false,
      "t": 66785.554,
      "d": 203.12451249999867,
      "v": 73
    },
    {
      "midi": 72,
      "hit": false,
      "t": 66785.554,
      "d": 210.5649708333367,
      "v": 75
    },
    {
      "midi": 65,
      "hit": false,
      "t": 66785.554,
      "d": 221.72565833333647,
      "v": 73
    },
    {
      "midi": 65,
      "hit": false,
      "t": 67142.69600000001,
      "d": 186.0114583333343,
      "v": 73
    },
    {
      "midi": 70,
      "hit": false,
      "t": 67142.69600000001,
      "d": 199.40428333333693,
      "v": 74
    },
    {
      "midi": 62,
      "hit": false,
      "t": 67142.69600000001,
      "d": 204.6126041666721,
      "v": 66
    },
    {
      "midi": 46,
      "hit": false,
      "t": 67142.69600000001,
      "d": 669.6412500000151,
      "v": 86
    },
    {
      "midi": 65,
      "hit": false,
      "t": 67499.83800000002,
      "d": 158.4817624999996,
      "v": 70
    },
    {
      "midi": 62,
      "hit": false,
      "t": 67499.83800000002,
      "d": 177.0829083333374,
      "v": 72
    },
    {
      "midi": 70,
      "hit": false,
      "t": 67499.83800000002,
      "d": 178.57100000001083,
      "v": 74
    },
    {
      "midi": 65,
      "hit": false,
      "t": 67856.98000000003,
      "d": 204.6126041666721,
      "v": 76
    },
    {
      "midi": 70,
      "hit": false,
      "t": 67856.98000000003,
      "d": 215.77329166667187,
      "v": 75
    },
    {
      "midi": 62,
      "hit": false,
      "t": 67856.98000000003,
      "d": 221.72565833333647,
      "v": 71
    },
    {
      "midi": 46,
      "hit": false,
      "t": 67856.98000000003,
      "d": 601.1890333333431,
      "v": 88
    },
    {
      "midi": 62,
      "hit": false,
      "t": 68214.12200000003,
      "d": 167.4103124999965,
      "v": 85
    },
    {
      "midi": 65,
      "hit": false,
      "t": 68214.12200000003,
      "d": 167.4103124999965,
      "v": 96
    },
    {
      "midi": 70,
      "hit": false,
      "t": 68214.12200000003,
      "d": 167.4103124999965,
      "v": 83
    },
    {
      "midi": 74,
      "hit": false,
      "t": 68214.12200000003,
      "d": 167.4103124999965,
      "v": 89
    },
    {
      "midi": 65,
      "hit": false,
      "t": 68392.69300000003,
      "d": 167.41031250001106,
      "v": 80
    },
    {
      "midi": 70,
      "hit": false,
      "t": 68392.69300000003,
      "d": 167.41031250001106,
      "v": 84
    },
    {
      "midi": 75,
      "hit": false,
      "t": 68392.69300000003,
      "d": 167.41031250001106,
      "v": 90
    },
    {
      "midi": 65,
      "hit": false,
      "t": 68589.86514583338,
      "d": 616.0699500000046,
      "v": 91
    },
    {
      "midi": 70,
      "hit": false,
      "t": 68589.86514583338,
      "d": 616.0699500000046,
      "v": 76
    },
    {
      "midi": 62,
      "hit": false,
      "t": 68589.86514583338,
      "d": 638.3913250000041,
      "v": 87
    },
    {
      "midi": 74,
      "hit": false,
      "t": 68589.86514583338,
      "d": 638.3913250000041,
      "v": 89
    },
    {
      "midi": 55,
      "hit": false,
      "t": 69285.54799999997,
      "d": 1784.221908333333,
      "v": 1
    },
    {
      "midi": 58,
      "hit": false,
      "t": 69285.54799999997,
      "d": 1784.221908333333,
      "v": 1
    },
    {
      "midi": 62,
      "hit": false,
      "t": 69285.54799999997,
      "d": 1784.221908333333,
      "v": 1
    },
    {
      "midi": 65,
      "hit": false,
      "t": 69285.54799999997,
      "d": 1784.221908333333,
      "v": 1
    },
    {
      "midi": 58,
      "hit": false,
      "t": 71071.25799999997,
      "d": 355.6539083333337,
      "v": 1
    },
    {
      "midi": 62,
      "hit": false,
      "t": 71071.25799999997,
      "d": 355.6539083333337,
      "v": 1
    },
    {
      "midi": 65,
      "hit": false,
      "t": 71071.25799999997,
      "d": 355.6539083333337,
      "v": 1
    },
    {
      "midi": 70,
      "hit": false,
      "t": 71071.25799999997,
      "d": 355.6539083333337,
      "v": 1
    },
    {
      "midi": 55,
      "hit": false,
      "t": 71428.39999999998,
      "d": 712.7959083333262,
      "v": 1
    },
    {
      "midi": 60,
      "hit": false,
      "t": 71428.39999999998,
      "d": 712.7959083333262,
      "v": 1
    },
    {
      "midi": 64,
      "hit": false,
      "t": 71428.39999999998,
      "d": 712.7959083333262,
      "v": 1
    },
    {
      "midi": 67,
      "hit": false,
      "t": 71428.39999999998,
      "d": 712.7959083333262,
      "v": 1
    },
    {
      "midi": 55,
      "hit": false,
      "t": 72142.68399999998,
      "d": 177.0829083333374,
      "v": 1
    },
    {
      "midi": 58,
      "hit": false,
      "t": 72142.68399999998,
      "d": 177.0829083333374,
      "v": 1
    },
    {
      "midi": 62,
      "hit": false,
      "t": 72142.68399999998,
      "d": 177.0829083333374,
      "v": 1
    },
    {
      "midi": 65,
      "hit": false,
      "t": 72142.68399999998,
      "d": 177.0829083333374,
      "v": 1
    },
    {
      "midi": 55,
      "hit": false,
      "t": 72321.25499999999,
      "d": 534.22490833333,
      "v": 1
    },
    {
      "midi": 60,
      "hit": false,
      "t": 72321.25499999999,
      "d": 534.22490833333,
      "v": 1
    },
    {
      "midi": 64,
      "hit": false,
      "t": 72321.25499999999,
      "d": 534.22490833333,
      "v": 1
    },
    {
      "midi": 67,
      "hit": false,
      "t": 72321.25499999999,
      "d": 534.22490833333,
      "v": 1
    },
    {
      "midi": 69,
      "hit": false,
      "t": 73571.25200000005,
      "d": 173.3626791666611,
      "v": 57
    },
    {
      "midi": 72,
      "hit": false,
      "t": 73571.25200000005,
      "d": 174.85077083333454,
      "v": 61
    },
    {
      "midi": 65,
      "hit": false,
      "t": 73571.25200000005,
      "d": 188.24359583333717,
      "v": 57
    },
    {
      "midi": 69,
      "hit": false,
      "t": 73928.39400000006,
      "d": 203.12451249999867,
      "v": 55
    },
    {
      "midi": 65,
      "hit": false,
      "t": 73928.39400000006,
      "d": 212.05306249999558,
      "v": 63
    },
    {
      "midi": 72,
      "hit": false,
      "t": 73928.39400000006,
      "d": 212.05306249999558,
      "v": 62
    },
    {
      "midi": 69,
      "hit": false,
      "t": 74285.53600000005,
      "d": 186.0114583333343,
      "v": 57
    },
    {
      "midi": 65,
      "hit": false,
      "t": 74285.53600000005,
      "d": 197.17214583333407,
      "v": 70
    },
    {
      "midi": 72,
      "hit": false,
      "t": 74285.53600000005,
      "d": 197.17214583333407,
      "v": 65
    },
    {
      "midi": 69,
      "hit": false,
      "t": 74642.67800000006,
      "d": 191.9638249999989,
      "v": 66
    },
    {
      "midi": 72,
      "hit": false,
      "t": 74642.67800000006,
      "d": 197.17214583333407,
      "v": 70
    },
    {
      "midi": 65,
      "hit": false,
      "t": 74642.67800000006,
      "d": 206.8447416666604,
      "v": 73
    },
    {
      "midi": 69,
      "hit": false,
      "t": 74999.82000000005,
      "d": 171.1305416666728,
      "v": 70
    },
    {
      "midi": 72,
      "hit": false,
      "t": 74999.82000000005,
      "d": 173.36267916667566,
      "v": 72
    },
    {
      "midi": 65,
      "hit": false,
      "t": 74999.82000000005,
      "d": 174.8507708333491,
      "v": 73
    },
    {
      "midi": 69,
      "hit": false,
      "t": 75356.96200000007,
      "d": 203.12451249999867,
      "v": 73
    },
    {
      "midi": 72,
      "hit": false,
      "t": 75356.96200000007,
      "d": 210.5649708333367,
      "v": 75
    },
    {
      "midi": 65,
      "hit": false,
      "t": 75356.96200000007,
      "d": 221.72565833333647,
      "v": 73
    },
    {
      "midi": 65,
      "hit": false,
      "t": 75714.10400000008,
      "d": 186.0114583333343,
      "v": 73
    },
    {
      "midi": 70,
      "hit": false,
      "t": 75714.10400000008,
      "d": 199.40428333333693,
      "v": 74
    },
    {
      "midi": 62,
      "hit": false,
      "t": 75714.10400000008,
      "d": 204.6126041666721,
      "v": 66
    },
    {
      "midi": 46,
      "hit": false,
      "t": 75714.10400000008,
      "d": 669.6412500000151,
      "v": 86
    },
    {
      "midi": 65,
      "hit": false,
      "t": 76071.24600000009,
      "d": 158.4817624999996,
      "v": 70
    },
    {
      "midi": 62,
      "hit": false,
      "t": 76071.24600000009,
      "d": 177.0829083333374,
      "v": 72
    },
    {
      "midi": 70,
      "hit": false,
      "t": 76071.24600000009,
      "d": 178.57100000001083,
      "v": 74
    },
    {
      "midi": 65,
      "hit": false,
      "t": 76428.3880000001,
      "d": 204.6126041666721,
      "v": 76
    },
    {
      "midi": 70,
      "hit": false,
      "t": 76428.3880000001,
      "d": 215.77329166667187,
      "v": 75
    },
    {
      "midi": 62,
      "hit": false,
      "t": 76428.3880000001,
      "d": 221.72565833333647,
      "v": 71
    },
    {
      "midi": 46,
      "hit": false,
      "t": 76428.3880000001,
      "d": 601.1890333333431,
      "v": 88
    },
    {
      "midi": 62,
      "hit": false,
      "t": 76785.5300000001,
      "d": 167.4103124999965,
      "v": 85
    },
    {
      "midi": 65,
      "hit": false,
      "t": 76785.5300000001,
      "d": 167.4103124999965,
      "v": 96
    },
    {
      "midi": 70,
      "hit": false,
      "t": 76785.5300000001,
      "d": 167.4103124999965,
      "v": 83
    },
    {
      "midi": 74,
      "hit": false,
      "t": 76785.5300000001,
      "d": 167.4103124999965,
      "v": 89
    },
    {
      "midi": 65,
      "hit": false,
      "t": 76964.1010000001,
      "d": 167.41031250001106,
      "v": 80
    },
    {
      "midi": 70,
      "hit": false,
      "t": 76964.1010000001,
      "d": 167.41031250001106,
      "v": 84
    },
    {
      "midi": 75,
      "hit": false,
      "t": 76964.1010000001,
      "d": 167.41031250001106,
      "v": 90
    },
    {
      "midi": 65,
      "hit": false,
      "t": 77161.27314583345,
      "d": 616.0699500000046,
      "v": 91
    },
    {
      "midi": 70,
      "hit": false,
      "t": 77161.27314583345,
      "d": 616.0699500000046,
      "v": 76
    },
    {
      "midi": 62,
      "hit": false,
      "t": 77161.27314583345,
      "d": 638.3913250000041,
      "v": 87
    },
    {
      "midi": 74,
      "hit": false,
      "t": 77161.27314583345,
      "d": 638.3913250000041,
      "v": 89
    },
    {
      "midi": 46,
      "hit": false,
      "t": 77856.95600000012,
      "d": 900.295458333334,
      "v": 90
    },
    {
      "midi": 62,
      "hit": false,
      "t": 78214.09799999998,
      "d": 1069.9379083333333,
      "v": 1
    },
    {
      "midi": 65,
      "hit": false,
      "t": 78214.09799999998,
      "d": 1069.9379083333333,
      "v": 1
    },
    {
      "midi": 70,
      "hit": false,
      "t": 78214.09799999998,
      "d": 1069.9379083333333,
      "v": 1
    },
    {
      "midi": 45,
      "hit": false,
      "t": 78928.38200000013,
      "d": 976.9321791666734,
      "v": 99
    },
    {
      "midi": 61,
      "hit": false,
      "t": 79285.52399999999,
      "d": 1069.9379083333333,
      "v": 1
    },
    {
      "midi": 64,
      "hit": false,
      "t": 79285.52399999999,
      "d": 1069.9379083333333,
      "v": 1
    },
    {
      "midi": 69,
      "hit": false,
      "t": 79285.52399999999,
      "d": 1069.9379083333333,
      "v": 1
    },
    {
      "midi": 62,
      "hit": false,
      "t": 79999.80800000014,
      "d": 1026.7832499999931,
      "v": 73
    },
    {
      "midi": 65,
      "hit": false,
      "t": 79999.80800000014,
      "d": 1026.7832499999931,
      "v": 82
    },
    {
      "midi": 69,
      "hit": false,
      "t": 79999.80800000014,
      "d": 1026.7832499999931,
      "v": 78
    },
    {
      "midi": 57,
      "hit": false,
      "t": 80356.95,
      "d": 1069.9379083333333,
      "v": 1
    },
    {
      "midi": 62,
      "hit": false,
      "t": 80356.95,
      "d": 1069.9379083333333,
      "v": 1
    },
    {
      "midi": 65,
      "hit": false,
      "t": 80356.95,
      "d": 1069.9379083333333,
      "v": 1
    },
    {
      "midi": 48,
      "hit": false,
      "t": 81071.23400000013,
      "d": 329.6123041666724,
      "v": 91
    },
    {
      "midi": 64,
      "hit": false,
      "t": 81071.23400000013,
      "d": 340.77299166667217,
      "v": 78
    },
    {
      "midi": 60,
      "hit": false,
      "t": 81071.23400000013,
      "d": 345.98131250000733,
      "v": 75
    },
    {
      "midi": 53,
      "hit": false,
      "t": 81428.37600000013,
      "d": 301.3385624999937,
      "v": 96
    },
    {
      "midi": 65,
      "hit": false,
      "t": 81428.37600000013,
      "d": 311.01115833332005,
      "v": 91
    },
    {
      "midi": 60,
      "hit": false,
      "t": 81428.37600000013,
      "d": 325.89207499998156,
      "v": 80
    },
    {
      "midi": 50,
      "hit": false,
      "t": 82142.66000000012,
      "d": 675.5936166666652,
      "v": 102
    },
    {
      "midi": 69,
      "hit": false,
      "t": 82142.66000000012,
      "d": 761.1588875000016,
      "v": 91
    },
    {
      "midi": 65,
      "hit": false,
      "t": 82142.66000000012,
      "d": 764.8791166666633,
      "v": 96
    },
    {
      "midi": 62,
      "hit": false,
      "t": 82142.66000000012,
      "d": 766.3672083333367,
      "v": 92
    },
    {
      "midi": 48,
      "hit": false,
      "t": 82856.94400000012,
      "d": 312.49925000000803,
      "v": 104
    },
    {
      "midi": 45,
      "hit": false,
      "t": 83214.08600000013,
      "d": 256.69581249999464,
      "v": 98
    },
    {
      "midi": 50,
      "hit": false,
      "t": 83571.22800000012,
      "d": 251.48749166665948,
      "v": 106
    },
    {
      "midi": 46,
      "hit": false,
      "t": 84285.51200000012,
      "d": 627.2306375000044,
      "v": 103
    },
    {
      "midi": 48,
      "hit": false,
      "t": 84999.79600000012,
      "d": 244.047033333336,
      "v": 106
    },
    {
      "midi": 55,
      "hit": false,
      "t": 85356.938,
      "d": 787.2004916666629,
      "v": 1
    },
    {
      "midi": 62,
      "hit": false,
      "t": 85356.938,
      "d": 787.2004916666629,
      "v": 1
    },
    {
      "midi": 43,
      "hit": false,
      "t": 85356.93800000013,
      "d": 854.164616666676,
      "v": 96
    },
    {
      "midi": 59,
      "hit": false,
      "t": 85714.08000000013,
      "d": 163.69008333333477,
      "v": 85
    },
    {
      "midi": 55,
      "hit": false,
      "t": 85714.08000000013,
      "d": 177.0829083333374,
      "v": 89
    },
    {
      "midi": 57,
      "hit": false,
      "t": 85892.65100000014,
      "d": 162.20199166666134,
      "v": 82
    },
    {
      "midi": 54,
      "hit": false,
      "t": 85892.65100000014,
      "d": 169.64244999999937,
      "v": 100
    },
    {
      "midi": 55,
      "hit": false,
      "t": 86071.22200000014,
      "d": 305.05879166665545,
      "v": 91
    },
    {
      "midi": 59,
      "hit": false,
      "t": 86071.22200000014,
      "d": 305.05879166665545,
      "v": 82
    },
    {
      "midi": 57,
      "hit": false,
      "t": 86428.36399999999,
      "d": 787.2004916666629,
      "v": 1
    },
    {
      "midi": 64,
      "hit": false,
      "t": 86428.36399999999,
      "d": 787.2004916666629,
      "v": 1
    },
    {
      "midi": 57,
      "hit": false,
      "t": 86428.36400000013,
      "d": 345.9813124999928,
      "v": 89
    },
    {
      "midi": 60,
      "hit": false,
      "t": 86428.36400000013,
      "d": 345.9813124999928,
      "v": 99
    },
    {
      "midi": 43,
      "hit": false,
      "t": 86428.36400000013,
      "d": 839.2836999999854,
      "v": 99
    },
    {
      "midi": 57,
      "hit": false,
      "t": 86785.50600000012,
      "d": 165.92222083333763,
      "v": 85
    },
    {
      "midi": 60,
      "hit": false,
      "t": 86785.50600000012,
      "d": 169.64244999999937,
      "v": 91
    },
    {
      "midi": 55,
      "hit": false,
      "t": 86964.07700000012,
      "d": 141.36870833333523,
      "v": 85
    },
    {
      "midi": 59,
      "hit": false,
      "t": 86964.07700000012,
      "d": 152.529395833335,
      "v": 91
    },
    {
      "midi": 60,
      "hit": false,
      "t": 87142.64800000012,
      "d": 299.85047083333484,
      "v": 104
    },
    {
      "midi": 57,
      "hit": false,
      "t": 87142.64800000012,
      "d": 327.38016666666954,
      "v": 87
    },
    {
      "midi": 59,
      "hit": false,
      "t": 87499.79000000012,
      "d": 325.8920749999961,
      "v": 89
    },
    {
      "midi": 62,
      "hit": false,
      "t": 87499.79000000012,
      "d": 333.33253333333414,
      "v": 87
    },
    {
      "midi": 43,
      "hit": false,
      "t": 87499.79000000012,
      "d": 820.6825541666622,
      "v": 99
    },
    {
      "midi": 59,
      "hit": false,
      "t": 87514.67091666666,
      "d": 788.6885833333363,
      "v": 1
    },
    {
      "midi": 65,
      "hit": false,
      "t": 87516.15900833333,
      "d": 789.4326291666657,
      "v": 1
    },
    {
      "midi": 59,
      "hit": false,
      "t": 87856.93200000013,
      "d": 151.04130416666158,
      "v": 80
    },
    {
      "midi": 62,
      "hit": false,
      "t": 87856.93200000013,
      "d": 152.529395833335,
      "v": 80
    },
    {
      "midi": 60,
      "hit": false,
      "t": 88035.50300000013,
      "d": 162.20199166666134,
      "v": 91
    },
    {
      "midi": 57,
      "hit": false,
      "t": 88035.50300000013,
      "d": 171.13054166665825,
      "v": 87
    },
    {
      "midi": 62,
      "hit": false,
      "t": 88214.07400000012,
      "d": 240.3268041666597,
      "v": 102
    },
    {
      "midi": 59,
      "hit": false,
      "t": 88214.07400000012,
      "d": 252.9755833333329,
      "v": 102
    },
    {
      "midi": 43,
      "hit": false,
      "t": 88571.21600000012,
      "d": 130.20802083333547,
      "v": 102
    },
    {
      "midi": 43,
      "hit": false,
      "t": 88749.78700000011,
      "d": 95.23786666666274,
      "v": 91
    },
    {
      "midi": 43,
      "hit": false,
      "t": 88928.35800000011,
      "d": 80.35695000000123,
      "v": 102
    },
    {
      "midi": 43,
      "hit": false,
      "t": 89106.9290000001,
      "d": 156.24962499999674,
      "v": 92
    },
    {
      "midi": 45,
      "hit": false,
      "t": 89285.5000000001,
      "d": 163.69008333333477,
      "v": 101
    },
    {
      "midi": 47,
      "hit": false,
      "t": 89464.0710000001,
      "d": 467.26078333333135,
      "v": 107
    },
    {
      "midi": 65,
      "hit": false,
      "t": 89999.784,
      "d": 712.7959083333262,
      "v": 1
    },
    {
      "midi": 69,
      "hit": false,
      "t": 89999.784,
      "d": 712.7959083333262,
      "v": 1
    },
    {
      "midi": 72,
      "hit": false,
      "t": 89999.784,
      "d": 712.7959083333262,
      "v": 1
    },
    {
      "midi": 53,
      "hit": false,
      "t": 89999.7840000001,
      "d": 642.1115541666659,
      "v": 96
    },
    {
      "midi": 60,
      "hit": false,
      "t": 90178.3550000001,
      "d": 178.57099999999627,
      "v": 97
    },
    {
      "midi": 65,
      "hit": false,
      "t": 90347.25340416677,
      "d": 180.80313749999914,
      "v": 96
    },
    {
      "midi": 60,
      "hit": false,
      "t": 90540.70532083344,
      "d": 138.39252499998838,
      "v": 93
    },
    {
      "midi": 60,
      "hit": false,
      "t": 90714.068,
      "d": 177.0829083333374,
      "v": 1
    },
    {
      "midi": 65,
      "hit": false,
      "t": 90714.068,
      "d": 177.0829083333374,
      "v": 1
    },
    {
      "midi": 69,
      "hit": false,
      "t": 90714.068,
      "d": 177.0829083333374,
      "v": 1
    },
    {
      "midi": 69,
      "hit": false,
      "t": 90714.0680000001,
      "d": 124.9997000000003,
      "v": 96
    },
    {
      "midi": 57,
      "hit": false,
      "t": 90892.63900000001,
      "d": 534.22490833333,
      "v": 1
    },
    {
      "midi": 60,
      "hit": false,
      "t": 90892.63900000001,
      "d": 534.22490833333,
      "v": 1
    },
    {
      "midi": 65,
      "hit": false,
      "t": 90892.63900000001,
      "d": 534.22490833333,
      "v": 1
    },
    {
      "midi": 65,
      "hit": false,
      "t": 90892.6390000001,
      "d": 177.0829083333374,
      "v": 96
    },
    {
      "midi": 53,
      "hit": false,
      "t": 91071.21000000011,
      "d": 76.6367208333395,
      "v": 107
    },
    {
      "midi": 53,
      "hit": false,
      "t": 91249.78100000012,
      "d": 156.24962499999674,
      "v": 101
    },
    {
      "midi": 64,
      "hit": false,
      "t": 91428.35200000001,
      "d": 712.7959083333262,
      "v": 1
    },
    {
      "midi": 67,
      "hit": false,
      "t": 91428.35200000001,
      "d": 712.7959083333262,
      "v": 1
    },
    {
      "midi": 72,
      "hit": false,
      "t": 91428.35200000001,
      "d": 712.7959083333262,
      "v": 1
    },
    {
      "midi": 40,
      "hit": false,
      "t": 91443.23291666678,
      "d": 322.1718458333344,
      "v": 102
    },
    {
      "midi": 60,
      "hit": false,
      "t": 91606.92300000011,
      "d": 169.64244999999937,
      "v": 93
    },
    {
      "midi": 64,
      "hit": false,
      "t": 91779.54163333344,
      "d": 171.87458750000224,
      "v": 90
    },
    {
      "midi": 60,
      "hit": false,
      "t": 91961.83286250012,
      "d": 162.20199166666134,
      "v": 95
    },
    {
      "midi": 60,
      "hit": false,
      "t": 92142.63600000001,
      "d": 177.0829083333374,
      "v": 1
    },
    {
      "midi": 64,
      "hit": false,
      "t": 92142.63600000001,
      "d": 177.0829083333374,
      "v": 1
    },
    {
      "midi": 67,
      "hit": false,
      "t": 92142.63600000001,
      "d": 177.0829083333374,
      "v": 1
    },
    {
      "midi": 67,
      "hit": false,
      "t": 92142.63600000012,
      "d": 98.95809583333903,
      "v": 100
    },
    {
      "midi": 55,
      "hit": false,
      "t": 92321.20700000002,
      "d": 534.22490833333,
      "v": 1
    },
    {
      "midi": 60,
      "hit": false,
      "t": 92321.20700000002,
      "d": 534.22490833333,
      "v": 1
    },
    {
      "midi": 64,
      "hit": false,
      "t": 92321.20700000002,
      "d": 534.22490833333,
      "v": 1
    },
    {
      "midi": 64,
      "hit": false,
      "t": 92321.20700000013,
      "d": 148.80916666667326,
      "v": 101
    },
    {
      "midi": 52,
      "hit": false,
      "t": 92499.77800000014,
      "d": 76.6367208333395,
      "v": 101
    },
    {
      "midi": 52,
      "hit": false,
      "t": 92678.34900000015,
      "d": 102.67832500000077,
      "v": 106
    },
    {
      "midi": 63,
      "hit": false,
      "t": 92856.92000000003,
      "d": 712.7959083333262,
      "v": 1
    },
    {
      "midi": 68,
      "hit": false,
      "t": 92856.92000000003,
      "d": 712.7959083333262,
      "v": 1
    },
    {
      "midi": 72,
      "hit": false,
      "t": 92856.92000000003,
      "d": 712.7959083333262,
      "v": 1
    },
    {
      "midi": 39,
      "hit": false,
      "t": 92856.92000000014,
      "d": 319.9397083333315,
      "v": 102
    },
    {
      "midi": 63,
      "hit": false,
      "t": 93035.49100000014,
      "d": 171.1305416666728,
      "v": 93
    },
    {
      "midi": 66,
      "hit": false,
      "t": 93214.06200000015,
      "d": 169.64244999999937,
      "v": 90
    },
    {
      "midi": 63,
      "hit": false,
      "t": 93392.63300000015,
      "d": 162.20199166666134,
      "v": 95
    },
    {
      "midi": 60,
      "hit": false,
      "t": 93571.20400000003,
      "d": 177.0829083333374,
      "v": 1
    },
    {
      "midi": 63,
      "hit": false,
      "t": 93571.20400000003,
      "d": 177.0829083333374,
      "v": 1
    },
    {
      "midi": 68,
      "hit": false,
      "t": 93571.20400000003,
      "d": 177.0829083333374,
      "v": 1
    },
    {
      "midi": 68,
      "hit": false,
      "t": 93571.20400000014,
      "d": 98.95809583333903,
      "v": 100
    },
    {
      "midi": 60,
      "hit": false,
      "t": 93749.77500000004,
      "d": 534.22490833333,
      "v": 1
    },
    {
      "midi": 63,
      "hit": false,
      "t": 93749.77500000004,
      "d": 534.22490833333,
      "v": 1
    },
    {
      "midi": 66,
      "hit": false,
      "t": 93749.77500000004,
      "d": 534.22490833333,
      "v": 1
    },
    {
      "midi": 66,
      "hit": false,
      "t": 93749.77500000015,
      "d": 148.80916666667326,
      "v": 101
    },
    {
      "midi": 63,
      "hit": false,
      "t": 93928.34600000017,
      "d": 76.6367208333395,
      "v": 101
    },
    {
      "midi": 61,
      "hit": false,
      "t": 94106.91700000018,
      "d": 102.67832500000077,
      "v": 106
    },
    {
      "midi": 51,
      "hit": false,
      "t": 94285.48800000017,
      "d": 647.319875000001,
      "v": 92
    },
    {
      "midi": 44,
      "hit": false,
      "t": 94285.48800000017,
      "d": 680.8019375000003,
      "v": 103
    },
    {
      "midi": 56,
      "hit": false,
      "t": 94464.05900000017,
      "d": 151.04130416666158,
      "v": 102
    },
    {
      "midi": 60,
      "hit": false,
      "t": 94642.63000000016,
      "d": 171.1305416666728,
      "v": 98
    },
    {
      "midi": 56,
      "hit": false,
      "t": 94821.20100000018,
      "d": 159.96985416665848,
      "v": 92
    },
    {
      "midi": 46,
      "hit": false,
      "t": 94999.77200000017,
      "d": 624.998499999987,
      "v": 106
    },
    {
      "midi": 58,
      "hit": false,
      "t": 95178.34300000017,
      "d": 145.08893749999697,
      "v": 92
    },
    {
      "midi": 61,
      "hit": false,
      "t": 95356.91400000016,
      "d": 200.8923749999958,
      "v": 101
    },
    {
      "midi": 58,
      "hit": false,
      "t": 95535.48500000016,
      "d": 212.05306249999558,
      "v": 98
    },
    {
      "midi": 62,
      "hit": false,
      "t": 95714.05600000004,
      "d": 712.7959083333262,
      "v": 1
    },
    {
      "midi": 66,
      "hit": false,
      "t": 95714.05600000004,
      "d": 712.7959083333262,
      "v": 1
    },
    {
      "midi": 69,
      "hit": false,
      "t": 95714.05600000004,
      "d": 712.7959083333262,
      "v": 1
    },
    {
      "midi": 50,
      "hit": false,
      "t": 95714.05600000016,
      "d": 338.5408541666693,
      "v": 102
    },
    {
      "midi": 57,
      "hit": false,
      "t": 96071.19800000016,
      "d": 173.3626791666611,
      "v": 96
    },
    {
      "midi": 62,
      "hit": false,
      "t": 96071.19800000016,
      "d": 531.9927708333271,
      "v": 66
    },
    {
      "midi": 50,
      "hit": false,
      "t": 96249.76900000016,
      "d": 206.8447416666604,
      "v": 106
    },
    {
      "midi": 57,
      "hit": false,
      "t": 96428.34000000004,
      "d": 177.0829083333374,
      "v": 1
    },
    {
      "midi": 62,
      "hit": false,
      "t": 96428.34000000004,
      "d": 177.0829083333374,
      "v": 1
    },
    {
      "midi": 66,
      "hit": false,
      "t": 96428.34000000004,
      "d": 177.0829083333374,
      "v": 1
    },
    {
      "midi": 66,
      "hit": false,
      "t": 96428.34000000016,
      "d": 165.92222083333763,
      "v": 86
    },
    {
      "midi": 54,
      "hit": false,
      "t": 96606.91100000005,
      "d": 534.22490833333,
      "v": 1
    },
    {
      "midi": 57,
      "hit": false,
      "t": 96606.91100000005,
      "d": 534.22490833333,
      "v": 1
    },
    {
      "midi": 62,
      "hit": false,
      "t": 96606.91100000005,
      "d": 534.22490833333,
      "v": 1
    },
    {
      "midi": 62,
      "hit": false,
      "t": 96606.91100000015,
      "d": 52.0832083333371,
      "v": 75
    },
    {
      "midi": 50,
      "hit": false,
      "t": 96606.91100000015,
      "d": 215.77329166667187,
      "v": 106
    },
    {
      "midi": 66,
      "hit": false,
      "t": 96785.48200000016,
      "d": 277.5290958333353,
      "v": 107
    },
    {
      "midi": 69,
      "hit": false,
      "t": 96785.48200000016,
      "d": 297.618333333332,
      "v": 85
    },
    {
      "midi": 50,
      "hit": false,
      "t": 96964.05300000016,
      "d": 186.0114583333343,
      "v": 106
    },
    {
      "midi": 63,
      "hit": false,
      "t": 97142.62400000005,
      "d": 712.7959083333262,
      "v": 1
    },
    {
      "midi": 66,
      "hit": false,
      "t": 97142.62400000005,
      "d": 712.7959083333262,
      "v": 1
    },
    {
      "midi": 71,
      "hit": false,
      "t": 97142.62400000005,
      "d": 712.7959083333262,
      "v": 1
    },
    {
      "midi": 47,
      "hit": false,
      "t": 97142.62400000016,
      "d": 299.85047083333484,
      "v": 76
    },
    {
      "midi": 63,
      "hit": false,
      "t": 97142.62400000016,
      "d": 342.26108333333104,
      "v": 90
    },
    {
      "midi": 66,
      "hit": false,
      "t": 97142.62400000016,
      "d": 342.26108333333104,
      "v": 103
    },
    {
      "midi": 59,
      "hit": false,
      "t": 97142.62400000016,
      "d": 359.3741374999954,
      "v": 80
    },
    {
      "midi": 54,
      "hit": false,
      "t": 97499.76600000015,
      "d": 162.2019916666759,
      "v": 88
    },
    {
      "midi": 66,
      "hit": false,
      "t": 97499.76600000015,
      "d": 165.92222083333763,
      "v": 100
    },
    {
      "midi": 59,
      "hit": false,
      "t": 97678.33700000016,
      "d": 182.291229166658,
      "v": 85
    },
    {
      "midi": 47,
      "hit": false,
      "t": 97678.33700000016,
      "d": 232.88634583332168,
      "v": 73
    },
    {
      "midi": 59,
      "hit": false,
      "t": 97856.90800000005,
      "d": 177.0829083333374,
      "v": 1
    },
    {
      "midi": 63,
      "hit": false,
      "t": 97856.90800000005,
      "d": 177.0829083333374,
      "v": 1
    },
    {
      "midi": 66,
      "hit": false,
      "t": 97856.90800000005,
      "d": 177.0829083333374,
      "v": 1
    },
    {
      "midi": 66,
      "hit": false,
      "t": 97856.90800000016,
      "d": 221.72565833333647,
      "v": 97
    },
    {
      "midi": 54,
      "hit": false,
      "t": 98035.47900000006,
      "d": 534.22490833333,
      "v": 1
    },
    {
      "midi": 59,
      "hit": false,
      "t": 98035.47900000006,
      "d": 534.22490833333,
      "v": 1
    },
    {
      "midi": 63,
      "hit": false,
      "t": 98035.47900000006,
      "d": 534.22490833333,
      "v": 1
    },
    {
      "midi": 63,
      "hit": false,
      "t": 98035.47900000015,
      "d": 137.6484791666735,
      "v": 84
    },
    {
      "midi": 47,
      "hit": false,
      "t": 98035.47900000015,
      "d": 244.04703333335056,
      "v": 85
    },
    {
      "midi": 59,
      "hit": false,
      "t": 98214.05000000016,
      "d": 267.85650000000896,
      "v": 105
    },
    {
      "midi": 47,
      "hit": false,
      "t": 98392.62100000017,
      "d": 167.4103124999965,
      "v": 85
    },
    {
      "midi": 65,
      "hit": false,
      "t": 98571.19200000007,
      "d": 2677.076908333329,
      "v": 1
    },
    {
      "midi": 71,
      "hit": false,
      "t": 98571.19200000007,
      "d": 2677.076908333329,
      "v": 1
    },
    {
      "midi": 55,
      "hit": false,
      "t": 98571.19200000017,
      "d": 78.12481249999837,
      "v": 70
    },
    {
      "midi": 65,
      "hit": false,
      "t": 98571.19200000017,
      "d": 81.84504166666011,
      "v": 80
    },
    {
      "midi": 43,
      "hit": false,
      "t": 98571.19200000017,
      "d": 85.56527083332185,
      "v": 87
    },
    {
      "midi": 55,
      "hit": false,
      "t": 98749.76300000015,
      "d": 65.47603333333973,
      "v": 60
    },
    {
      "midi": 43,
      "hit": false,
      "t": 98749.76300000015,
      "d": 66.96412500001315,
      "v": 80
    },
    {
      "midi": 65,
      "hit": false,
      "t": 98749.76300000015,
      "d": 78.12481250001292,
      "v": 82
    },
    {
      "midi": 43,
      "hit": false,
      "t": 98928.33400000016,
      "d": 63.243895833336865,
      "v": 82
    },
    {
      "midi": 55,
      "hit": false,
      "t": 98928.33400000016,
      "d": 63.243895833336865,
      "v": 63
    },
    {
      "midi": 65,
      "hit": false,
      "t": 98928.33400000016,
      "d": 63.243895833336865,
      "v": 82
    },
    {
      "midi": 65,
      "hit": false,
      "t": 99106.90500000016,
      "d": 66.9641249999986,
      "v": 80
    },
    {
      "midi": 55,
      "hit": false,
      "t": 99106.90500000016,
      "d": 69.19626250000147,
      "v": 62
    },
    {
      "midi": 43,
      "hit": false,
      "t": 99106.90500000016,
      "d": 81.84504166667466,
      "v": 91
    },
    {
      "midi": 65,
      "hit": false,
      "t": 99285.47600000017,
      "d": 69.19626250000147,
      "v": 89
    },
    {
      "midi": 55,
      "hit": false,
      "t": 99285.47600000017,
      "d": 74.40458333333663,
      "v": 56
    },
    {
      "midi": 43,
      "hit": false,
      "t": 99285.47600000017,
      "d": 84.07717916666297,
      "v": 82
    },
    {
      "midi": 43,
      "hit": false,
      "t": 99464.04700000017,
      "d": 70.68435416666034,
      "v": 80
    },
    {
      "midi": 65,
      "hit": false,
      "t": 99464.04700000017,
      "d": 70.68435416666034,
      "v": 80
    },
    {
      "midi": 55,
      "hit": false,
      "t": 99464.04700000017,
      "d": 72.9164916666632,
      "v": 57
    },
    {
      "midi": 55,
      "hit": false,
      "t": 99642.61800000016,
      "d": 69.19626250000147,
      "v": 62
    },
    {
      "midi": 65,
      "hit": false,
      "t": 99642.61800000016,
      "d": 70.6843541666749,
      "v": 87
    },
    {
      "midi": 43,
      "hit": false,
      "t": 99642.61800000016,
      "d": 74.40458333333663,
      "v": 87
    },
    {
      "midi": 55,
      "hit": false,
      "t": 99821.18900000016,
      "d": 63.243895833336865,
      "v": 60
    },
    {
      "midi": 65,
      "hit": false,
      "t": 99821.18900000016,
      "d": 66.9641249999986,
      "v": 82
    },
    {
      "midi": 43,
      "hit": false,
      "t": 99821.18900000016,
      "d": 70.68435416666034,
      "v": 87
    },
    {
      "midi": 55,
      "hit": false,
      "t": 99999.76000000015,
      "d": 76.6367208333395,
      "v": 68
    },
    {
      "midi": 65,
      "hit": false,
      "t": 99999.76000000015,
      "d": 76.6367208333395,
      "v": 82
    },
    {
      "midi": 43,
      "hit": false,
      "t": 99999.76000000015,
      "d": 78.12481250001292,
      "v": 85
    },
    {
      "midi": 55,
      "hit": false,
      "t": 100178.33100000017,
      "d": 65.47603333333973,
      "v": 54
    },
    {
      "midi": 43,
      "hit": false,
      "t": 100178.33100000017,
      "d": 72.91649166667776,
      "v": 78
    },
    {
      "midi": 65,
      "hit": false,
      "t": 100178.33100000017,
      "d": 78.12481250001292,
      "v": 71
    },
    {
      "midi": 55,
      "hit": false,
      "t": 100356.90200000018,
      "d": 69.19626250000147,
      "v": 56
    },
    {
      "midi": 43,
      "hit": false,
      "t": 100356.90200000018,
      "d": 74.40458333333663,
      "v": 87
    },
    {
      "midi": 65,
      "hit": false,
      "t": 100356.90200000018,
      "d": 81.84504166667466,
      "v": 68
    },
    {
      "midi": 43,
      "hit": false,
      "t": 100535.47300000019,
      "d": 69.19626250000147,
      "v": 85
    },
    {
      "midi": 55,
      "hit": false,
      "t": 100535.47300000019,
      "d": 70.6843541666749,
      "v": 52
    },
    {
      "midi": 65,
      "hit": false,
      "t": 100535.47300000019,
      "d": 78.12481250001292,
      "v": 71
    },
    {
      "midi": 43,
      "hit": false,
      "t": 100714.0440000002,
      "d": 70.68435416666034,
      "v": 89
    },
    {
      "midi": 55,
      "hit": false,
      "t": 100714.0440000002,
      "d": 72.9164916666632,
      "v": 62
    },
    {
      "midi": 65,
      "hit": false,
      "t": 100714.0440000002,
      "d": 81.84504166666011,
      "v": 91
    },
    {
      "midi": 55,
      "hit": false,
      "t": 100892.6150000002,
      "d": 66.9641249999986,
      "v": 54
    },
    {
      "midi": 43,
      "hit": false,
      "t": 100892.6150000002,
      "d": 72.9164916666632,
      "v": 78
    },
    {
      "midi": 65,
      "hit": false,
      "t": 100892.6150000002,
      "d": 81.84504166666011,
      "v": 75
    },
    {
      "midi": 55,
      "hit": false,
      "t": 101071.18600000019,
      "d": 72.9164916666632,
      "v": 58
    },
    {
      "midi": 43,
      "hit": false,
      "t": 101071.18600000019,
      "d": 76.63672083332494,
      "v": 87
    },
    {
      "midi": 65,
      "hit": false,
      "t": 101071.18600000019,
      "d": 81.84504166666011,
      "v": 67
    },
    {
      "midi": 62,
      "hit": false,
      "t": 101219.99516666673,
      "d": 28.273741666664137,
      "v": 1
    },
    {
      "midi": 59,
      "hit": false,
      "t": 101219.99516666673,
      "d": 311.0111583333346,
      "v": 1
    },
    {
      "midi": 67,
      "hit": false,
      "t": 101223.7153958334,
      "d": 311.0111583333346,
      "v": 1
    },
    {
      "midi": 43,
      "hit": false,
      "t": 101249.75700000019,
      "d": 305.05879166667,
      "v": 89
    },
    {
      "midi": 55,
      "hit": false,
      "t": 101249.75700000019,
      "d": 305.05879166667,
      "v": 59
    },
    {
      "midi": 65,
      "hit": false,
      "t": 101249.75700000019,
      "d": 305.05879166667,
      "v": 70
    },
    {
      "midi": 55,
      "hit": false,
      "t": 101517.61350000006,
      "d": 1337.7944083333277,
      "v": 1
    },
    {
      "midi": 60,
      "hit": false,
      "t": 101517.61350000006,
      "d": 1337.7944083333277,
      "v": 1
    },
    {
      "midi": 64,
      "hit": false,
      "t": 101517.61350000006,
      "d": 1337.7944083333277,
      "v": 1
    },
    {
      "midi": 55,
      "hit": false,
      "t": 101571.18480000019,
      "d": 95.23786666666274,
      "v": 94
    },
    {
      "midi": 60,
      "hit": false,
      "t": 101573.4169375002,
      "d": 95.23786666666274,
      "v": 97
    },
    {
      "midi": 64,
      "hit": false,
      "t": 101573.4169375002,
      "d": 95.23786666666274,
      "v": 98
    },
    {
      "midi": 57,
      "hit": false,
      "t": 109999.7360000002,
      "d": 81.84504166666011,
      "v": 72
    },
    {
      "midi": 62,
      "hit": false,
      "t": 109999.7360000002,
      "d": 81.84504166666011,
      "v": 68
    },
    {
      "midi": 66,
      "hit": false,
      "t": 109999.7360000002,
      "d": 81.84504166666011,
      "v": 68
    },
    {
      "midi": 38,
      "hit": false,
      "t": 109999.7360000002,
      "d": 355.6539083333191,
      "v": 80
    },
    {
      "midi": 57,
      "hit": false,
      "t": 110178.30700000019,
      "d": 81.84504166666011,
      "v": 72
    },
    {
      "midi": 62,
      "hit": false,
      "t": 110178.30700000019,
      "d": 81.84504166666011,
      "v": 68
    },
    {
      "midi": 66,
      "hit": false,
      "t": 110178.30700000019,
      "d": 81.84504166666011,
      "v": 68
    },
    {
      "midi": 57,
      "hit": false,
      "t": 110356.87800000019,
      "d": 81.84504166666011,
      "v": 72
    },
    {
      "midi": 62,
      "hit": false,
      "t": 110356.87800000019,
      "d": 81.84504166666011,
      "v": 68
    },
    {
      "midi": 66,
      "hit": false,
      "t": 110356.87800000019,
      "d": 81.84504166666011,
      "v": 68
    },
    {
      "midi": 45,
      "hit": false,
      "t": 110356.87800000019,
      "d": 359.3741374999954,
      "v": 85
    },
    {
      "midi": 57,
      "hit": false,
      "t": 110535.44900000018,
      "d": 81.84504166666011,
      "v": 72
    },
    {
      "midi": 62,
      "hit": false,
      "t": 110535.44900000018,
      "d": 81.84504166666011,
      "v": 68
    },
    {
      "midi": 66,
      "hit": false,
      "t": 110535.44900000018,
      "d": 81.84504166666011,
      "v": 68
    },
    {
      "midi": 57,
      "hit": false,
      "t": 110714.02000000018,
      "d": 81.84504166667466,
      "v": 72
    },
    {
      "midi": 62,
      "hit": false,
      "t": 110714.02000000018,
      "d": 81.84504166667466,
      "v": 68
    },
    {
      "midi": 66,
      "hit": false,
      "t": 110714.02000000018,
      "d": 81.84504166667466,
      "v": 68
    },
    {
      "midi": 38,
      "hit": false,
      "t": 110714.02000000018,
      "d": 342.26108333333104,
      "v": 82
    },
    {
      "midi": 57,
      "hit": false,
      "t": 110892.59100000019,
      "d": 81.84504166666011,
      "v": 72
    },
    {
      "midi": 62,
      "hit": false,
      "t": 110892.59100000019,
      "d": 81.84504166666011,
      "v": 68
    },
    {
      "midi": 66,
      "hit": false,
      "t": 110892.59100000019,
      "d": 81.84504166666011,
      "v": 68
    },
    {
      "midi": 57,
      "hit": false,
      "t": 111071.16200000017,
      "d": 81.84504166666011,
      "v": 72
    },
    {
      "midi": 62,
      "hit": false,
      "t": 111071.16200000017,
      "d": 81.84504166666011,
      "v": 68
    },
    {
      "midi": 66,
      "hit": false,
      "t": 111071.16200000017,
      "d": 81.84504166666011,
      "v": 68
    },
    {
      "midi": 45,
      "hit": false,
      "t": 111071.16200000017,
      "d": 379.4633749999921,
      "v": 89
    },
    {
      "midi": 57,
      "hit": false,
      "t": 111249.73300000017,
      "d": 81.84504166666011,
      "v": 72
    },
    {
      "midi": 62,
      "hit": false,
      "t": 111249.73300000017,
      "d": 81.84504166666011,
      "v": 68
    },
    {
      "midi": 66,
      "hit": false,
      "t": 111249.73300000017,
      "d": 81.84504166666011,
      "v": 68
    },
    {
      "midi": 64,
      "hit": false,
      "t": 111428.30400000016,
      "d": 81.84504166666011,
      "v": 76
    },
    {
      "midi": 57,
      "hit": false,
      "t": 111428.30400000016,
      "d": 84.07717916666297,
      "v": 70
    },
    {
      "midi": 61,
      "hit": false,
      "t": 111428.30400000016,
      "d": 84.07717916666297,
      "v": 83
    },
    {
      "midi": 33,
      "hit": false,
      "t": 111428.30400000016,
      "d": 372.02291666665406,
      "v": 82
    },
    {
      "midi": 64,
      "hit": false,
      "t": 111606.87500000016,
      "d": 81.84504166666011,
      "v": 76
    },
    {
      "midi": 57,
      "hit": false,
      "t": 111606.87500000016,
      "d": 84.07717916666297,
      "v": 70
    },
    {
      "midi": 61,
      "hit": false,
      "t": 111606.87500000016,
      "d": 84.07717916666297,
      "v": 83
    },
    {
      "midi": 61,
      "hit": false,
      "t": 111785.44600000016,
      "d": 165.92222083332308,
      "v": 88
    },
    {
      "midi": 64,
      "hit": false,
      "t": 111785.44600000016,
      "d": 171.13054166665825,
      "v": 80
    },
    {
      "midi": 57,
      "hit": false,
      "t": 111785.44600000016,
      "d": 174.85077083331998,
      "v": 78
    },
    {
      "midi": 40,
      "hit": false,
      "t": 111785.44600000016,
      "d": 331.1003958333022,
      "v": 91
    },
    {
      "midi": 57,
      "hit": false,
      "t": 111964.01700000014,
      "d": 9.67259583332634,
      "v": 73
    },
    {
      "midi": 62,
      "hit": false,
      "t": 111964.01700000014,
      "d": 59.523666666660574,
      "v": 73
    },
    {
      "midi": 66,
      "hit": false,
      "t": 111964.01700000014,
      "d": 65.47603333332518,
      "v": 79
    },
    {
      "midi": 62,
      "hit": false,
      "t": 112142.58800000012,
      "d": 80.35695000000123,
      "v": 76
    },
    {
      "midi": 66,
      "hit": false,
      "t": 112142.58800000012,
      "d": 84.07717916666297,
      "v": 79
    },
    {
      "midi": 57,
      "hit": false,
      "t": 112142.58800000012,
      "d": 98.95809583332448,
      "v": 76
    },
    {
      "midi": 33,
      "hit": false,
      "t": 112142.58800000012,
      "d": 342.2610833333456,
      "v": 89
    },
    {
      "midi": 61,
      "hit": false,
      "t": 112321.15900000012,
      "d": 65.47603333333973,
      "v": 74
    },
    {
      "midi": 57,
      "hit": false,
      "t": 112321.15900000012,
      "d": 66.96412500001315,
      "v": 62
    },
    {
      "midi": 64,
      "hit": false,
      "t": 112321.15900000012,
      "d": 66.96412500001315,
      "v": 70
    },
    {
      "midi": 61,
      "hit": false,
      "t": 112499.73000000013,
      "d": 87.79740833333926,
      "v": 81
    },
    {
      "midi": 64,
      "hit": false,
      "t": 112499.73000000013,
      "d": 93.00572916667443,
      "v": 75
    },
    {
      "midi": 57,
      "hit": false,
      "t": 112499.73000000013,
      "d": 106.39855416667706,
      "v": 70
    },
    {
      "midi": 40,
      "hit": false,
      "t": 112499.73000000013,
      "d": 314.73138750002545,
      "v": 96
    },
    {
      "midi": 61,
      "hit": false,
      "t": 112678.30100000014,
      "d": 66.9641249999986,
      "v": 70
    },
    {
      "midi": 64,
      "hit": false,
      "t": 112678.30100000014,
      "d": 69.19626250000147,
      "v": 68
    },
    {
      "midi": 57,
      "hit": false,
      "t": 112678.30100000014,
      "d": 70.6843541666749,
      "v": 66
    },
    {
      "midi": 57,
      "hit": false,
      "t": 112856.87200000015,
      "d": 81.84504166666011,
      "v": 72
    },
    {
      "midi": 62,
      "hit": false,
      "t": 112856.87200000015,
      "d": 81.84504166666011,
      "v": 68
    },
    {
      "midi": 66,
      "hit": false,
      "t": 112856.87200000015,
      "d": 81.84504166666011,
      "v": 68
    },
    {
      "midi": 38,
      "hit": false,
      "t": 112856.87200000015,
      "d": 355.6539083333191,
      "v": 80
    },
    {
      "midi": 57,
      "hit": false,
      "t": 113035.44300000014,
      "d": 81.84504166666011,
      "v": 72
    },
    {
      "midi": 62,
      "hit": false,
      "t": 113035.44300000014,
      "d": 81.84504166666011,
      "v": 68
    },
    {
      "midi": 66,
      "hit": false,
      "t": 113035.44300000014,
      "d": 81.84504166666011,
      "v": 68
    },
    {
      "midi": 57,
      "hit": false,
      "t": 113214.01400000014,
      "d": 81.84504166666011,
      "v": 72
    },
    {
      "midi": 62,
      "hit": false,
      "t": 113214.01400000014,
      "d": 81.84504166666011,
      "v": 68
    },
    {
      "midi": 66,
      "hit": false,
      "t": 113214.01400000014,
      "d": 81.84504166666011,
      "v": 68
    },
    {
      "midi": 45,
      "hit": false,
      "t": 113214.01400000014,
      "d": 359.3741374999954,
      "v": 85
    },
    {
      "midi": 57,
      "hit": false,
      "t": 113392.58500000014,
      "d": 81.84504166666011,
      "v": 72
    },
    {
      "midi": 62,
      "hit": false,
      "t": 113392.58500000014,
      "d": 81.84504166666011,
      "v": 68
    },
    {
      "midi": 66,
      "hit": false,
      "t": 113392.58500000014,
      "d": 81.84504166666011,
      "v": 68
    },
    {
      "midi": 57,
      "hit": false,
      "t": 113571.15600000013,
      "d": 81.84504166667466,
      "v": 72
    },
    {
      "midi": 62,
      "hit": false,
      "t": 113571.15600000013,
      "d": 81.84504166667466,
      "v": 68
    },
    {
      "midi": 66,
      "hit": false,
      "t": 113571.15600000013,
      "d": 81.84504166667466,
      "v": 68
    },
    {
      "midi": 38,
      "hit": false,
      "t": 113571.15600000013,
      "d": 342.26108333333104,
      "v": 82
    },
    {
      "midi": 57,
      "hit": false,
      "t": 113749.72700000014,
      "d": 81.84504166666011,
      "v": 72
    },
    {
      "midi": 62,
      "hit": false,
      "t": 113749.72700000014,
      "d": 81.84504166666011,
      "v": 68
    },
    {
      "midi": 66,
      "hit": false,
      "t": 113749.72700000014,
      "d": 81.84504166666011,
      "v": 68
    },
    {
      "midi": 57,
      "hit": false,
      "t": 113928.29800000013,
      "d": 81.84504166666011,
      "v": 72
    },
    {
      "midi": 62,
      "hit": false,
      "t": 113928.29800000013,
      "d": 81.84504166666011,
      "v": 68
    },
    {
      "midi": 66,
      "hit": false,
      "t": 113928.29800000013,
      "d": 81.84504166666011,
      "v": 68
    },
    {
      "midi": 45,
      "hit": false,
      "t": 113928.29800000013,
      "d": 379.4633749999921,
      "v": 89
    },
    {
      "midi": 57,
      "hit": false,
      "t": 114106.86900000012,
      "d": 81.84504166666011,
      "v": 72
    },
    {
      "midi": 62,
      "hit": false,
      "t": 114106.86900000012,
      "d": 81.84504166666011,
      "v": 68
    },
    {
      "midi": 66,
      "hit": false,
      "t": 114106.86900000012,
      "d": 81.84504166666011,
      "v": 68
    },
    {
      "midi": 64,
      "hit": false,
      "t": 114285.44000000012,
      "d": 81.84504166666011,
      "v": 76
    },
    {
      "midi": 57,
      "hit": false,
      "t": 114285.44000000012,
      "d": 84.07717916666297,
      "v": 70
    },
    {
      "midi": 61,
      "hit": false,
      "t": 114285.44000000012,
      "d": 84.07717916666297,
      "v": 83
    },
    {
      "midi": 33,
      "hit": false,
      "t": 114285.44000000012,
      "d": 372.02291666665406,
      "v": 82
    },
    {
      "midi": 64,
      "hit": false,
      "t": 114464.01100000012,
      "d": 81.84504166666011,
      "v": 76
    },
    {
      "midi": 57,
      "hit": false,
      "t": 114464.01100000012,
      "d": 84.07717916666297,
      "v": 70
    },
    {
      "midi": 61,
      "hit": false,
      "t": 114464.01100000012,
      "d": 84.07717916666297,
      "v": 83
    },
    {
      "midi": 61,
      "hit": false,
      "t": 114642.58200000011,
      "d": 165.92222083332308,
      "v": 88
    },
    {
      "midi": 64,
      "hit": false,
      "t": 114642.58200000011,
      "d": 171.13054166665825,
      "v": 80
    },
    {
      "midi": 57,
      "hit": false,
      "t": 114642.58200000011,
      "d": 174.85077083331998,
      "v": 78
    },
    {
      "midi": 40,
      "hit": false,
      "t": 114642.58200000011,
      "d": 331.1003958333022,
      "v": 91
    },
    {
      "midi": 57,
      "hit": false,
      "t": 114821.1530000001,
      "d": 9.67259583332634,
      "v": 73
    },
    {
      "midi": 62,
      "hit": false,
      "t": 114821.1530000001,
      "d": 59.523666666660574,
      "v": 73
    },
    {
      "midi": 66,
      "hit": false,
      "t": 114821.1530000001,
      "d": 65.47603333332518,
      "v": 79
    },
    {
      "midi": 62,
      "hit": false,
      "t": 114999.72400000007,
      "d": 80.35695000000123,
      "v": 76
    },
    {
      "midi": 66,
      "hit": false,
      "t": 114999.72400000007,
      "d": 84.07717916666297,
      "v": 79
    },
    {
      "midi": 57,
      "hit": false,
      "t": 114999.72400000007,
      "d": 98.95809583332448,
      "v": 76
    },
    {
      "midi": 33,
      "hit": false,
      "t": 114999.72400000007,
      "d": 342.2610833333456,
      "v": 89
    },
    {
      "midi": 61,
      "hit": false,
      "t": 115178.29500000007,
      "d": 65.47603333333973,
      "v": 74
    },
    {
      "midi": 57,
      "hit": false,
      "t": 115178.29500000007,
      "d": 66.96412500001315,
      "v": 62
    },
    {
      "midi": 64,
      "hit": false,
      "t": 115178.29500000007,
      "d": 66.96412500001315,
      "v": 70
    },
    {
      "midi": 61,
      "hit": false,
      "t": 115356.86600000008,
      "d": 87.79740833333926,
      "v": 81
    },
    {
      "midi": 64,
      "hit": false,
      "t": 115356.86600000008,
      "d": 93.00572916667443,
      "v": 75
    },
    {
      "midi": 57,
      "hit": false,
      "t": 115356.86600000008,
      "d": 106.39855416667706,
      "v": 70
    },
    {
      "midi": 40,
      "hit": false,
      "t": 115356.86600000008,
      "d": 314.73138750002545,
      "v": 96
    },
    {
      "midi": 61,
      "hit": false,
      "t": 115535.43700000009,
      "d": 66.9641249999986,
      "v": 70
    },
    {
      "midi": 64,
      "hit": false,
      "t": 115535.43700000009,
      "d": 69.19626250000147,
      "v": 68
    },
    {
      "midi": 57,
      "hit": false,
      "t": 115535.43700000009,
      "d": 70.6843541666749,
      "v": 66
    },
    {
      "midi": 57,
      "hit": false,
      "t": 115714.0080000001,
      "d": 81.84504166666011,
      "v": 72
    },
    {
      "midi": 62,
      "hit": false,
      "t": 115714.0080000001,
      "d": 81.84504166666011,
      "v": 68
    },
    {
      "midi": 66,
      "hit": false,
      "t": 115714.0080000001,
      "d": 81.84504166666011,
      "v": 68
    },
    {
      "midi": 38,
      "hit": false,
      "t": 115714.0080000001,
      "d": 355.6539083333191,
      "v": 80
    },
    {
      "midi": 57,
      "hit": false,
      "t": 115892.5790000001,
      "d": 81.84504166666011,
      "v": 72
    },
    {
      "midi": 62,
      "hit": false,
      "t": 115892.5790000001,
      "d": 81.84504166666011,
      "v": 68
    },
    {
      "midi": 66,
      "hit": false,
      "t": 115892.5790000001,
      "d": 81.84504166666011,
      "v": 68
    },
    {
      "midi": 57,
      "hit": false,
      "t": 116071.1500000001,
      "d": 81.84504166666011,
      "v": 72
    },
    {
      "midi": 62,
      "hit": false,
      "t": 116071.1500000001,
      "d": 81.84504166666011,
      "v": 68
    },
    {
      "midi": 66,
      "hit": false,
      "t": 116071.1500000001,
      "d": 81.84504166666011,
      "v": 68
    },
    {
      "midi": 45,
      "hit": false,
      "t": 116071.1500000001,
      "d": 359.3741374999954,
      "v": 85
    },
    {
      "midi": 57,
      "hit": false,
      "t": 116249.72100000009,
      "d": 81.84504166666011,
      "v": 72
    },
    {
      "midi": 62,
      "hit": false,
      "t": 116249.72100000009,
      "d": 81.84504166666011,
      "v": 68
    },
    {
      "midi": 66,
      "hit": false,
      "t": 116249.72100000009,
      "d": 81.84504166666011,
      "v": 68
    },
    {
      "midi": 57,
      "hit": false,
      "t": 116428.29200000009,
      "d": 81.84504166667466,
      "v": 72
    },
    {
      "midi": 62,
      "hit": false,
      "t": 116428.29200000009,
      "d": 81.84504166667466,
      "v": 68
    },
    {
      "midi": 67,
      "hit": false,
      "t": 116428.29200000009,
      "d": 81.84504166667466,
      "v": 68
    },
    {
      "midi": 38,
      "hit": false,
      "t": 116428.29200000009,
      "d": 342.26108333333104,
      "v": 82
    },
    {
      "midi": 57,
      "hit": false,
      "t": 116606.8630000001,
      "d": 81.84504166666011,
      "v": 72
    },
    {
      "midi": 62,
      "hit": false,
      "t": 116606.8630000001,
      "d": 81.84504166666011,
      "v": 68
    },
    {
      "midi": 67,
      "hit": false,
      "t": 116606.8630000001,
      "d": 81.84504166666011,
      "v": 68
    },
    {
      "midi": 57,
      "hit": false,
      "t": 116785.43400000008,
      "d": 81.84504166666011,
      "v": 72
    },
    {
      "midi": 62,
      "hit": false,
      "t": 116785.43400000008,
      "d": 81.84504166666011,
      "v": 68
    },
    {
      "midi": 66,
      "hit": false,
      "t": 116785.43400000008,
      "d": 81.84504166666011,
      "v": 68
    },
    {
      "midi": 45,
      "hit": false,
      "t": 116785.43400000008,
      "d": 334.820624999993,
      "v": 89
    },
    {
      "midi": 57,
      "hit": false,
      "t": 116964.00500000008,
      "d": 81.84504166666011,
      "v": 72
    },
    {
      "midi": 62,
      "hit": false,
      "t": 116964.00500000008,
      "d": 81.84504166666011,
      "v": 68
    },
    {
      "midi": 66,
      "hit": false,
      "t": 116964.00500000008,
      "d": 81.84504166666011,
      "v": 68
    },
    {
      "midi": 47,
      "hit": false,
      "t": 117142.57600000007,
      "d": 474.7012416666548,
      "v": 85
    },
    {
      "midi": 59,
      "hit": false,
      "t": 117321.14700000007,
      "d": 195.68405416666064,
      "v": 87
    },
    {
      "midi": 66,
      "hit": false,
      "t": 117499.71800000007,
      "d": 177.08290833332285,
      "v": 88
    },
    {
      "midi": 63,
      "hit": false,
      "t": 117678.28900000006,
      "d": 148.80916666667326,
      "v": 100
    },
    {
      "midi": 47,
      "hit": false,
      "t": 117856.86000000007,
      "d": 535.7129999999888,
      "v": 85
    },
    {
      "midi": 59,
      "hit": false,
      "t": 118035.43100000007,
      "d": 191.9638249999989,
      "v": 73
    },
    {
      "midi": 66,
      "hit": false,
      "t": 118214.00200000007,
      "d": 197.17214583333407,
      "v": 83
    },
    {
      "midi": 63,
      "hit": false,
      "t": 118392.57300000006,
      "d": 147.32107499999984,
      "v": 103
    },
    {
      "midi": 52,
      "hit": false,
      "t": 118571.14400000006,
      "d": 456.10009583334613,
      "v": 89
    },
    {
      "midi": 67,
      "hit": false,
      "t": 118928.28600000007,
      "d": 159.96985416667303,
      "v": 85
    },
    {
      "midi": 64,
      "hit": false,
      "t": 119106.85700000008,
      "d": 178.57099999999627,
      "v": 75
    },
    {
      "midi": 52,
      "hit": false,
      "t": 119285.42800000007,
      "d": 465.02864583334303,
      "v": 89
    },
    {
      "midi": 67,
      "hit": false,
      "t": 119642.57000000008,
      "d": 152.529395833335,
      "v": 85
    },
    {
      "midi": 64,
      "hit": false,
      "t": 119821.14100000008,
      "d": 180.80313749999914,
      "v": 76
    },
    {
      "midi": 54,
      "hit": false,
      "t": 119999.71200000007,
      "d": 59.523666666675126,
      "v": 90
    },
    {
      "midi": 54,
      "hit": false,
      "t": 120178.28300000008,
      "d": 59.523666666660574,
      "v": 79
    },
    {
      "midi": 54,
      "hit": false,
      "t": 120356.85400000008,
      "d": 59.523666666660574,
      "v": 81
    },
    {
      "midi": 54,
      "hit": false,
      "t": 120535.42500000008,
      "d": 58.0355750000017,
      "v": 84
    },
    {
      "midi": 54,
      "hit": false,
      "t": 120713.99600000007,
      "d": 63.243895833336865,
      "v": 97
    },
    {
      "midi": 54,
      "hit": false,
      "t": 120892.56700000007,
      "d": 59.523666666660574,
      "v": 97
    },
    {
      "midi": 54,
      "hit": false,
      "t": 121071.13800000006,
      "d": 54.31534583333996,
      "v": 88
    },
    {
      "midi": 54,
      "hit": false,
      "t": 121249.70900000008,
      "d": 65.47603333333973,
      "v": 88
    },
    {
      "midi": 54,
      "hit": false,
      "t": 121428.28000000009,
      "d": 66.9641249999986,
      "v": 90
    },
    {
      "midi": 54,
      "hit": false,
      "t": 121606.85100000008,
      "d": 63.243895833336865,
      "v": 84
    },
    {
      "midi": 54,
      "hit": false,
      "t": 121785.42200000008,
      "d": 61.75580416666344,
      "v": 88
    },
    {
      "midi": 54,
      "hit": false,
      "t": 121963.99300000007,
      "d": 54.31534583333996,
      "v": 84
    },
    {
      "midi": 54,
      "hit": false,
      "t": 122142.56400000009,
      "d": 58.0355750000017,
      "v": 90
    },
    {
      "midi": 54,
      "hit": false,
      "t": 122321.13500000008,
      "d": 66.9641249999986,
      "v": 100
    },
    {
      "midi": 54,
      "hit": false,
      "t": 122499.70600000008,
      "d": 66.9641249999986,
      "v": 100
    },
    {
      "midi": 54,
      "hit": false,
      "t": 122678.27700000007,
      "d": 61.75580416666344,
      "v": 118
    },
    {
      "midi": 54,
      "hit": false,
      "t": 122856.84800000007,
      "d": 63.243895833336865,
      "v": 97
    },
    {
      "midi": 54,
      "hit": false,
      "t": 123035.41900000007,
      "d": 65.47603333333973,
      "v": 100
    },
    {
      "midi": 54,
      "hit": false,
      "t": 123213.99000000008,
      "d": 65.47603333333973,
      "v": 100
    },
    {
      "midi": 54,
      "hit": false,
      "t": 123392.56100000009,
      "d": 65.47603333333973,
      "v": 107
    },
    {
      "midi": 54,
      "hit": false,
      "t": 123571.1320000001,
      "d": 61.75580416666344,
      "v": 88
    },
    {
      "midi": 54,
      "hit": false,
      "t": 123749.7030000001,
      "d": 65.47603333333973,
      "v": 100
    },
    {
      "midi": 54,
      "hit": false,
      "t": 123928.2740000001,
      "d": 66.9641249999986,
      "v": 88
    },
    {
      "midi": 54,
      "hit": false,
      "t": 124106.8450000001,
      "d": 69.19626250000147,
      "v": 103
    },
    {
      "midi": 54,
      "hit": false,
      "t": 124285.4160000001,
      "d": 63.243895833336865,
      "v": 103
    },
    {
      "midi": 61,
      "hit": false,
      "t": 125713.9840000001,
      "d": 204.6126041666721,
      "v": 86
    },
    {
      "midi": 58,
      "hit": false,
      "t": 125713.9840000001,
      "d": 214.28519999999844,
      "v": 75
    },
    {
      "midi": 61,
      "hit": false,
      "t": 127142.5520000001,
      "d": 212.05306249999558,
      "v": 77
    },
    {
      "midi": 58,
      "hit": false,
      "t": 127142.5520000001,
      "d": 218.00542916666018,
      "v": 71
    },
    {
      "midi": 61,
      "hit": false,
      "t": 128571.1200000001,
      "d": 255.20772083333577,
      "v": 86
    },
    {
      "midi": 58,
      "hit": false,
      "t": 128571.1200000001,
      "d": 258.9279499999975,
      "v": 76
    },
    {
      "midi": 58,
      "hit": false,
      "t": 129999.6880000001,
      "d": 113.83901250000054,
      "v": 89
    },
    {
      "midi": 61,
      "hit": false,
      "t": 129999.6880000001,
      "d": 113.83901250000054,
      "v": 92
    },
    {
      "midi": 66,
      "hit": false,
      "t": 129999.6880000001,
      "d": 113.83901250000054,
      "v": 95
    },
    {
      "midi": 58,
      "hit": false,
      "t": 130178.2590000001,
      "d": 113.83901250000054,
      "v": 62
    },
    {
      "midi": 61,
      "hit": false,
      "t": 130178.2590000001,
      "d": 113.83901250000054,
      "v": 86
    },
    {
      "midi": 66,
      "hit": false,
      "t": 130178.2590000001,
      "d": 113.83901250000054,
      "v": 79
    },
    {
      "midi": 58,
      "hit": false,
      "t": 130356.83000000009,
      "d": 113.83901250000054,
      "v": 71
    },
    {
      "midi": 61,
      "hit": false,
      "t": 130356.83000000009,
      "d": 113.83901250000054,
      "v": 87
    },
    {
      "midi": 66,
      "hit": false,
      "t": 130356.83000000009,
      "d": 113.83901250000054,
      "v": 79
    },
    {
      "midi": 58,
      "hit": false,
      "t": 130535.40100000009,
      "d": 113.83901250000054,
      "v": 73
    },
    {
      "midi": 61,
      "hit": false,
      "t": 130535.40100000009,
      "d": 113.83901250000054,
      "v": 87
    },
    {
      "midi": 66,
      "hit": false,
      "t": 130535.40100000009,
      "d": 113.83901250000054,
      "v": 85
    },
    {
      "midi": 58,
      "hit": false,
      "t": 130713.97200000008,
      "d": 113.83901250000054,
      "v": 77
    },
    {
      "midi": 61,
      "hit": false,
      "t": 130713.97200000008,
      "d": 113.83901250000054,
      "v": 91
    },
    {
      "midi": 66,
      "hit": false,
      "t": 130713.97200000008,
      "d": 113.83901250000054,
      "v": 87
    },
    {
      "midi": 66,
      "hit": false,
      "t": 130892.54300000008,
      "d": 523.0642208333447,
      "v": 88
    },
    {
      "midi": 61,
      "hit": false,
      "t": 130892.54300000008,
      "d": 528.2725416666799,
      "v": 88
    },
    {
      "midi": 58,
      "hit": false,
      "t": 130892.54300000008,
      "d": 531.9927708333562,
      "v": 77
    },
    {
      "midi": 58,
      "hit": false,
      "t": 131428.2560000001,
      "d": 2.232137499988312,
      "v": 103
    },
    {
      "midi": 43,
      "hit": false,
      "t": 131428.2560000001,
      "d": 247.7672624999832,
      "v": 82
    },
    {
      "midi": 61,
      "hit": false,
      "t": 131428.2560000001,
      "d": 286.45764583331766,
      "v": 100
    },
    {
      "midi": 55,
      "hit": false,
      "t": 131428.2560000001,
      "d": 301.3385624999937,
      "v": 99
    },
    {
      "midi": 45,
      "hit": false,
      "t": 132321.1110000001,
      "d": 479.90956249999,
      "v": 84
    },
    {
      "midi": 61,
      "hit": false,
      "t": 132321.1110000001,
      "d": 485.8619291666546,
      "v": 118
    },
    {
      "midi": 57,
      "hit": false,
      "t": 132321.1110000001,
      "d": 497.02261666665436,
      "v": 91
    },
    {
      "midi": 46,
      "hit": false,
      "t": 132856.82400000008,
      "d": 308.7790208333463,
      "v": 100
    },
    {
      "midi": 61,
      "hit": false,
      "t": 137142.5280000001,
      "d": 137.6484791666735,
      "v": 88
    },
    {
      "midi": 65,
      "hit": false,
      "t": 137142.5280000001,
      "d": 151.04130416666158,
      "v": 91
    },
    {
      "midi": 58,
      "hit": false,
      "t": 137142.5280000001,
      "d": 174.85077083331998,
      "v": 91
    },
    {
      "midi": 46,
      "hit": false,
      "t": 137321.0990000001,
      "d": 66.9641249999986,
      "v": 100
    },
    {
      "midi": 61,
      "hit": false,
      "t": 137499.6700000001,
      "d": 177.0829083333374,
      "v": 93
    },
    {
      "midi": 65,
      "hit": false,
      "t": 137499.6700000001,
      "d": 182.29122916667257,
      "v": 88
    },
    {
      "midi": 58,
      "hit": false,
      "t": 137499.6700000001,
      "d": 210.5649708333367,
      "v": 88
    },
    {
      "midi": 42,
      "hit": false,
      "t": 138571.0960000001,
      "d": 866.8133958333347,
      "v": 94
    },
    {
      "midi": 54,
      "hit": false,
      "t": 138571.0960000001,
      "d": 866.8133958333347,
      "v": 89
    },
    {
      "midi": 58,
      "hit": false,
      "t": 138571.0960000001,
      "d": 866.8133958333347,
      "v": 88
    },
    {
      "midi": 61,
      "hit": false,
      "t": 138571.0960000001,
      "d": 866.8133958333347,
      "v": 90
    },
    {
      "midi": 64,
      "hit": false,
      "t": 138571.0960000001,
      "d": 866.8133958333347,
      "v": 88
    },
    {
      "midi": 58,
      "hit": false,
      "t": 139463.95100000012,
      "d": 497.02261666665436,
      "v": 82
    },
    {
      "midi": 61,
      "hit": false,
      "t": 139463.95100000012,
      "d": 504.46307499997783,
      "v": 85
    },
    {
      "midi": 54,
      "hit": false,
      "t": 139463.95100000012,
      "d": 519.3439916666539,
      "v": 87
    },
    {
      "midi": 43,
      "hit": false,
      "t": 139999.6640000001,
      "d": 322.1718458333344,
      "v": 98
    },
    {
      "midi": 55,
      "hit": false,
      "t": 139999.6640000001,
      "d": 322.1718458333344,
      "v": 80
    },
    {
      "midi": 58,
      "hit": false,
      "t": 139999.6640000001,
      "d": 322.1718458333344,
      "v": 90
    },
    {
      "midi": 61,
      "hit": false,
      "t": 139999.6640000001,
      "d": 322.1718458333344,
      "v": 90
    },
    {
      "midi": 55,
      "hit": false,
      "t": 140356.8060000001,
      "d": 500.74284583333065,
      "v": 71
    },
    {
      "midi": 58,
      "hit": false,
      "t": 140356.8060000001,
      "d": 500.74284583333065,
      "v": 81
    },
    {
      "midi": 61,
      "hit": false,
      "t": 140356.8060000001,
      "d": 502.2309374999895,
      "v": 86
    },
    {
      "midi": 61,
      "hit": false,
      "t": 140892.5190000001,
      "d": 453.86795833334327,
      "v": 100
    },
    {
      "midi": 58,
      "hit": false,
      "t": 140892.5190000001,
      "d": 457.58818750001956,
      "v": 97
    },
    {
      "midi": 55,
      "hit": false,
      "t": 140892.5190000001,
      "d": 470.98101250000764,
      "v": 82
    },
    {
      "midi": 41,
      "hit": false,
      "t": 141428.2320000001,
      "d": 89.28549999999814,
      "v": 99
    },
    {
      "midi": 53,
      "hit": false,
      "t": 141606.8030000001,
      "d": 50.59511666666367,
      "v": 85
    },
    {
      "midi": 41,
      "hit": false,
      "t": 141606.8030000001,
      "d": 87.79740833333926,
      "v": 73
    },
    {
      "midi": 41,
      "hit": false,
      "t": 141785.3740000001,
      "d": 58.03557499998715,
      "v": 76
    },
    {
      "midi": 53,
      "hit": false,
      "t": 141785.3740000001,
      "d": 69.19626249998691,
      "v": 76
    },
    {
      "midi": 41,
      "hit": false,
      "t": 141963.9450000001,
      "d": 111.60687499999767,
      "v": 76
    },
    {
      "midi": 53,
      "hit": false,
      "t": 141963.9450000001,
      "d": 115.32710416667396,
      "v": 102
    },
    {
      "midi": 55,
      "hit": false,
      "t": 142142.5160000001,
      "d": 95.23786666666274,
      "v": 102
    },
    {
      "midi": 43,
      "hit": false,
      "t": 142142.5160000001,
      "d": 180.8031374999846,
      "v": 96
    },
    {
      "midi": 57,
      "hit": false,
      "t": 142321.0870000001,
      "d": 394.34429166666814,
      "v": 102
    },
    {
      "midi": 45,
      "hit": false,
      "t": 142321.0870000001,
      "d": 526.7844500000065,
      "v": 96
    },
    {
      "midi": 63,
      "hit": false,
      "t": 142856.80000000005,
      "d": 712.7959083333262,
      "v": 1
    },
    {
      "midi": 67,
      "hit": false,
      "t": 142856.80000000005,
      "d": 712.7959083333262,
      "v": 1
    },
    {
      "midi": 70,
      "hit": false,
      "t": 142856.80000000005,
      "d": 712.7959083333262,
      "v": 1
    },
    {
      "midi": 70,
      "hit": false,
      "t": 142856.8000000001,
      "d": 642.1115541666804,
      "v": 96
    },
    {
      "midi": 63,
      "hit": false,
      "t": 143204.2694041668,
      "d": 180.8031375000137,
      "v": 88
    },
    {
      "midi": 58,
      "hit": false,
      "t": 143397.72132083346,
      "d": 138.39252500000293,
      "v": 86
    },
    {
      "midi": 58,
      "hit": false,
      "t": 143571.08400000003,
      "d": 177.0829083333374,
      "v": 1
    },
    {
      "midi": 63,
      "hit": false,
      "t": 143571.08400000003,
      "d": 177.0829083333374,
      "v": 1
    },
    {
      "midi": 67,
      "hit": false,
      "t": 143571.08400000003,
      "d": 177.0829083333374,
      "v": 1
    },
    {
      "midi": 67,
      "hit": false,
      "t": 143571.08400000012,
      "d": 124.99969999998575,
      "v": 96
    },
    {
      "midi": 58,
      "hit": false,
      "t": 143749.65500000003,
      "d": 534.22490833333,
      "v": 1
    },
    {
      "midi": 63,
      "hit": false,
      "t": 143749.65500000003,
      "d": 534.22490833333,
      "v": 1
    },
    {
      "midi": 63,
      "hit": false,
      "t": 143749.65500000012,
      "d": 177.0829083333374,
      "v": 96
    },
    {
      "midi": 39,
      "hit": false,
      "t": 143928.2260000001,
      "d": 76.6367208333395,
      "v": 107
    },
    {
      "midi": 39,
      "hit": false,
      "t": 144106.7970000001,
      "d": 156.24962499999674,
      "v": 90
    },
    {
      "midi": 62,
      "hit": false,
      "t": 144285.36800000002,
      "d": 712.7959083333262,
      "v": 1
    },
    {
      "midi": 66,
      "hit": false,
      "t": 144285.36800000002,
      "d": 712.7959083333262,
      "v": 1
    },
    {
      "midi": 70,
      "hit": false,
      "t": 144285.36800000002,
      "d": 712.7959083333262,
      "v": 1
    },
    {
      "midi": 70,
      "hit": false,
      "t": 144285.3680000001,
      "d": 552.8260541666823,
      "v": 96
    },
    {
      "midi": 58,
      "hit": false,
      "t": 144300.24891666678,
      "d": 322.1718458333344,
      "v": 97
    },
    {
      "midi": 62,
      "hit": false,
      "t": 144636.55763333346,
      "d": 171.87458750000224,
      "v": 78
    },
    {
      "midi": 58,
      "hit": false,
      "t": 144818.84886250013,
      "d": 162.20199166666134,
      "v": 86
    },
    {
      "midi": 58,
      "hit": false,
      "t": 144999.652,
      "d": 177.0829083333374,
      "v": 1
    },
    {
      "midi": 62,
      "hit": false,
      "t": 144999.652,
      "d": 177.0829083333374,
      "v": 1
    },
    {
      "midi": 66,
      "hit": false,
      "t": 144999.652,
      "d": 177.0829083333374,
      "v": 1
    },
    {
      "midi": 66,
      "hit": false,
      "t": 144999.65200000012,
      "d": 98.95809583333903,
      "v": 96
    },
    {
      "midi": 54,
      "hit": false,
      "t": 145178.223,
      "d": 534.22490833333,
      "v": 1
    },
    {
      "midi": 58,
      "hit": false,
      "t": 145178.223,
      "d": 534.22490833333,
      "v": 1
    },
    {
      "midi": 62,
      "hit": false,
      "t": 145178.223,
      "d": 534.22490833333,
      "v": 1
    },
    {
      "midi": 62,
      "hit": false,
      "t": 145178.22300000011,
      "d": 148.80916666667326,
      "v": 96
    },
    {
      "midi": 38,
      "hit": false,
      "t": 145356.7940000001,
      "d": 76.6367208333395,
      "v": 102
    },
    {
      "midi": 38,
      "hit": false,
      "t": 145535.3650000001,
      "d": 102.67832499998622,
      "v": 106
    },
    {
      "midi": 61,
      "hit": false,
      "t": 145713.936,
      "d": 712.7959083333262,
      "v": 1
    },
    {
      "midi": 65,
      "hit": false,
      "t": 145713.936,
      "d": 712.7959083333262,
      "v": 1
    },
    {
      "midi": 70,
      "hit": false,
      "t": 145713.936,
      "d": 712.7959083333262,
      "v": 1
    },
    {
      "midi": 65,
      "hit": false,
      "t": 145713.9360000001,
      "d": 392.85620000000927,
      "v": 87
    },
    {
      "midi": 61,
      "hit": false,
      "t": 145713.9360000001,
      "d": 401.7847500000207,
      "v": 86
    },
    {
      "midi": 68,
      "hit": false,
      "t": 145713.9360000001,
      "d": 404.01688750000903,
      "v": 83
    },
    {
      "midi": 70,
      "hit": false,
      "t": 145713.9360000001,
      "d": 582.5878875000053,
      "v": 96
    },
    {
      "midi": 65,
      "hit": false,
      "t": 146249.64900000012,
      "d": 119.04733333332115,
      "v": 87
    },
    {
      "midi": 61,
      "hit": false,
      "t": 146249.64900000012,
      "d": 121.27947083330946,
      "v": 90
    },
    {
      "midi": 68,
      "hit": false,
      "t": 146249.64900000012,
      "d": 141.36870833332068,
      "v": 86
    },
    {
      "midi": 56,
      "hit": false,
      "t": 146428.21999999997,
      "d": 177.0829083333374,
      "v": 1
    },
    {
      "midi": 61,
      "hit": false,
      "t": 146428.21999999997,
      "d": 177.0829083333374,
      "v": 1
    },
    {
      "midi": 65,
      "hit": false,
      "t": 146428.21999999997,
      "d": 177.0829083333374,
      "v": 1
    },
    {
      "midi": 65,
      "hit": false,
      "t": 146428.22000000012,
      "d": 113.83901249998598,
      "v": 96
    },
    {
      "midi": 53,
      "hit": false,
      "t": 146606.79099999997,
      "d": 355.6539083333337,
      "v": 1
    },
    {
      "midi": 56,
      "hit": false,
      "t": 146606.79099999997,
      "d": 355.6539083333337,
      "v": 1
    },
    {
      "midi": 61,
      "hit": false,
      "t": 146606.79099999997,
      "d": 355.6539083333337,
      "v": 1
    },
    {
      "midi": 65,
      "hit": false,
      "t": 146606.7910000001,
      "d": 145.08893749999697,
      "v": 78
    },
    {
      "midi": 61,
      "hit": false,
      "t": 146606.7910000001,
      "d": 148.80916666667326,
      "v": 96
    },
    {
      "midi": 68,
      "hit": false,
      "t": 146606.7910000001,
      "d": 169.64245000001392,
      "v": 81
    },
    {
      "midi": 65,
      "hit": false,
      "t": 146785.36200000014,
      "d": 154.76153333333787,
      "v": 96
    },
    {
      "midi": 61,
      "hit": false,
      "t": 146963.93300000014,
      "d": 132.44015833333833,
      "v": 81
    },
    {
      "midi": 51,
      "hit": false,
      "t": 147142.50400000013,
      "d": 647.3198749999865,
      "v": 92
    },
    {
      "midi": 44,
      "hit": false,
      "t": 147142.50400000013,
      "d": 680.8019374999858,
      "v": 103
    },
    {
      "midi": 56,
      "hit": false,
      "t": 147321.07500000013,
      "d": 151.04130416666158,
      "v": 102
    },
    {
      "midi": 60,
      "hit": false,
      "t": 147499.64600000012,
      "d": 171.1305416666728,
      "v": 98
    },
    {
      "midi": 56,
      "hit": false,
      "t": 147678.21700000012,
      "d": 159.96985416667303,
      "v": 92
    },
    {
      "midi": 46,
      "hit": false,
      "t": 147856.78800000012,
      "d": 624.998499999987,
      "v": 106
    },
    {
      "midi": 58,
      "hit": false,
      "t": 148035.3590000001,
      "d": 145.08893749999697,
      "v": 92
    },
    {
      "midi": 61,
      "hit": false,
      "t": 148213.9300000001,
      "d": 200.8923749999958,
      "v": 101
    },
    {
      "midi": 58,
      "hit": false,
      "t": 148392.5010000001,
      "d": 212.05306249999558,
      "v": 98
    },
    {
      "midi": 62,
      "hit": false,
      "t": 148571.07199999996,
      "d": 712.7959083333262,
      "v": 1
    },
    {
      "midi": 66,
      "hit": false,
      "t": 148571.07199999996,
      "d": 712.7959083333262,
      "v": 1
    },
    {
      "midi": 69,
      "hit": false,
      "t": 148571.07199999996,
      "d": 712.7959083333262,
      "v": 1
    },
    {
      "midi": 50,
      "hit": false,
      "t": 148571.0720000001,
      "d": 338.5408541666693,
      "v": 102
    },
    {
      "midi": 57,
      "hit": false,
      "t": 148928.2140000001,
      "d": 173.3626791666611,
      "v": 96
    },
    {
      "midi": 62,
      "hit": false,
      "t": 148928.2140000001,
      "d": 531.9927708333416,
      "v": 66
    },
    {
      "midi": 50,
      "hit": false,
      "t": 149106.7850000001,
      "d": 206.8447416666604,
      "v": 106
    },
    {
      "midi": 57,
      "hit": false,
      "t": 149285.35599999994,
      "d": 177.0829083333374,
      "v": 1
    },
    {
      "midi": 62,
      "hit": false,
      "t": 149285.35599999994,
      "d": 177.0829083333374,
      "v": 1
    },
    {
      "midi": 66,
      "hit": false,
      "t": 149285.35599999994,
      "d": 177.0829083333374,
      "v": 1
    },
    {
      "midi": 66,
      "hit": false,
      "t": 149285.3560000001,
      "d": 165.92222083333763,
      "v": 86
    },
    {
      "midi": 54,
      "hit": false,
      "t": 149463.92699999994,
      "d": 534.22490833333,
      "v": 1
    },
    {
      "midi": 57,
      "hit": false,
      "t": 149463.92699999994,
      "d": 534.22490833333,
      "v": 1
    },
    {
      "midi": 62,
      "hit": false,
      "t": 149463.92699999994,
      "d": 534.22490833333,
      "v": 1
    },
    {
      "midi": 62,
      "hit": false,
      "t": 149463.9270000001,
      "d": 52.083208333322546,
      "v": 75
    },
    {
      "midi": 50,
      "hit": false,
      "t": 149463.9270000001,
      "d": 215.77329166667187,
      "v": 106
    },
    {
      "midi": 66,
      "hit": false,
      "t": 149642.4980000001,
      "d": 277.5290958333353,
      "v": 107
    },
    {
      "midi": 69,
      "hit": false,
      "t": 149642.4980000001,
      "d": 297.6183333333465,
      "v": 85
    },
    {
      "midi": 50,
      "hit": false,
      "t": 149821.0690000001,
      "d": 186.01145833334886,
      "v": 106
    },
    {
      "midi": 63,
      "hit": false,
      "t": 149999.63999999993,
      "d": 712.7959083333262,
      "v": 1
    },
    {
      "midi": 66,
      "hit": false,
      "t": 149999.63999999993,
      "d": 712.7959083333262,
      "v": 1
    },
    {
      "midi": 71,
      "hit": false,
      "t": 149999.63999999993,
      "d": 712.7959083333262,
      "v": 1
    },
    {
      "midi": 47,
      "hit": false,
      "t": 149999.64000000013,
      "d": 299.85047083333484,
      "v": 76
    },
    {
      "midi": 63,
      "hit": false,
      "t": 149999.64000000013,
      "d": 342.2610833333456,
      "v": 90
    },
    {
      "midi": 66,
      "hit": false,
      "t": 149999.64000000013,
      "d": 342.2610833333456,
      "v": 103
    },
    {
      "midi": 59,
      "hit": false,
      "t": 149999.64000000013,
      "d": 359.37413750000997,
      "v": 80
    },
    {
      "midi": 54,
      "hit": false,
      "t": 150356.78200000015,
      "d": 162.20199166666134,
      "v": 88
    },
    {
      "midi": 66,
      "hit": false,
      "t": 150356.78200000015,
      "d": 165.92222083333763,
      "v": 100
    },
    {
      "midi": 59,
      "hit": false,
      "t": 150535.35300000015,
      "d": 182.29122916667257,
      "v": 85
    },
    {
      "midi": 47,
      "hit": false,
      "t": 150535.35300000015,
      "d": 232.88634583333624,
      "v": 73
    },
    {
      "midi": 59,
      "hit": false,
      "t": 150713.9239999999,
      "d": 177.0829083333374,
      "v": 1
    },
    {
      "midi": 63,
      "hit": false,
      "t": 150713.9239999999,
      "d": 177.0829083333374,
      "v": 1
    },
    {
      "midi": 66,
      "hit": false,
      "t": 150713.9239999999,
      "d": 177.0829083333374,
      "v": 1
    },
    {
      "midi": 66,
      "hit": false,
      "t": 150713.92400000014,
      "d": 221.72565833333647,
      "v": 97
    },
    {
      "midi": 54,
      "hit": false,
      "t": 150892.4949999999,
      "d": 534.22490833333,
      "v": 1
    },
    {
      "midi": 59,
      "hit": false,
      "t": 150892.4949999999,
      "d": 534.22490833333,
      "v": 1
    },
    {
      "midi": 63,
      "hit": false,
      "t": 150892.4949999999,
      "d": 534.22490833333,
      "v": 1
    },
    {
      "midi": 63,
      "hit": false,
      "t": 150892.49500000014,
      "d": 137.6484791666735,
      "v": 84
    },
    {
      "midi": 47,
      "hit": false,
      "t": 150892.49500000014,
      "d": 244.047033333336,
      "v": 85
    },
    {
      "midi": 59,
      "hit": false,
      "t": 151071.06600000014,
      "d": 267.8564999999944,
      "v": 105
    },
    {
      "midi": 47,
      "hit": false,
      "t": 151249.63700000013,
      "d": 167.4103124999965,
      "v": 85
    },
    {
      "midi": 63,
      "hit": false,
      "t": 151428.2079999999,
      "d": 712.7959083333262,
      "v": 1
    },
    {
      "midi": 68,
      "hit": false,
      "t": 151428.2079999999,
      "d": 712.7959083333262,
      "v": 1
    },
    {
      "midi": 72,
      "hit": false,
      "t": 151428.2079999999,
      "d": 712.7959083333262,
      "v": 1
    },
    {
      "midi": 60,
      "hit": false,
      "t": 152142.49199999988,
      "d": 177.0829083333374,
      "v": 1
    },
    {
      "midi": 63,
      "hit": false,
      "t": 152142.49199999988,
      "d": 177.0829083333374,
      "v": 1
    },
    {
      "midi": 68,
      "hit": false,
      "t": 152142.49199999988,
      "d": 177.0829083333374,
      "v": 1
    },
    {
      "midi": 56,
      "hit": false,
      "t": 152321.06299999988,
      "d": 325.89207500001066,
      "v": 1
    },
    {
      "midi": 60,
      "hit": false,
      "t": 152321.06299999988,
      "d": 325.89207500001066,
      "v": 1
    },
    {
      "midi": 63,
      "hit": false,
      "t": 152321.06299999988,
      "d": 325.89207500001066,
      "v": 1
    },
    {
      "midi": 51,
      "hit": false,
      "t": 152856.77600000013,
      "d": 647.3198749999865,
      "v": 85
    },
    {
      "midi": 44,
      "hit": false,
      "t": 152856.77600000013,
      "d": 680.8019374999858,
      "v": 100
    },
    {
      "midi": 56,
      "hit": false,
      "t": 153035.34700000013,
      "d": 151.04130416666158,
      "v": 95
    },
    {
      "midi": 60,
      "hit": false,
      "t": 153213.91800000012,
      "d": 171.1305416666728,
      "v": 91
    },
    {
      "midi": 56,
      "hit": false,
      "t": 153392.48900000012,
      "d": 159.96985416667303,
      "v": 85
    },
    {
      "midi": 46,
      "hit": false,
      "t": 153571.0600000001,
      "d": 624.998499999987,
      "v": 99
    },
    {
      "midi": 58,
      "hit": false,
      "t": 153749.6310000001,
      "d": 145.08893749999697,
      "v": 85
    },
    {
      "midi": 61,
      "hit": false,
      "t": 153928.2020000001,
      "d": 200.8923749999958,
      "v": 94
    },
    {
      "midi": 58,
      "hit": false,
      "t": 154106.7730000001,
      "d": 212.05306249999558,
      "v": 91
    },
    {
      "midi": 51,
      "hit": false,
      "t": 154285.3440000001,
      "d": 647.3198749999865,
      "v": 85
    },
    {
      "midi": 44,
      "hit": false,
      "t": 154285.3440000001,
      "d": 680.8019374999858,
      "v": 100
    },
    {
      "midi": 60,
      "hit": false,
      "t": 154463.9150000001,
      "d": 219.49352083331905,
      "v": 66
    },
    {
      "midi": 63,
      "hit": false,
      "t": 154642.4860000001,
      "d": 204.6126041666721,
      "v": 83
    },
    {
      "midi": 60,
      "hit": false,
      "t": 154821.0570000001,
      "d": 822.1706458333356,
      "v": 71
    },
    {
      "midi": 68,
      "hit": false,
      "t": 154999.62800000008,
      "d": 327.38016666666954,
      "v": 75
    },
    {
      "midi": 68,
      "hit": false,
      "t": 155356.77000000008,
      "d": 364.58245833334513,
      "v": 84
    },
    {
      "midi": 51,
      "hit": false,
      "t": 155713.9120000001,
      "d": 647.3198749999865,
      "v": 85
    },
    {
      "midi": 44,
      "hit": false,
      "t": 155713.9120000001,
      "d": 680.8019374999858,
      "v": 100
    },
    {
      "midi": 56,
      "hit": false,
      "t": 155892.4830000001,
      "d": 151.04130416666158,
      "v": 95
    },
    {
      "midi": 60,
      "hit": false,
      "t": 156071.0540000001,
      "d": 171.1305416666728,
      "v": 91
    },
    {
      "midi": 56,
      "hit": false,
      "t": 156249.6250000001,
      "d": 159.96985416667303,
      "v": 85
    },
    {
      "midi": 46,
      "hit": false,
      "t": 156428.19600000008,
      "d": 624.998499999987,
      "v": 99
    },
    {
      "midi": 58,
      "hit": false,
      "t": 156606.76700000008,
      "d": 145.08893749999697,
      "v": 85
    },
    {
      "midi": 61,
      "hit": false,
      "t": 156785.33800000008,
      "d": 200.8923749999958,
      "v": 94
    },
    {
      "midi": 54,
      "hit": false,
      "t": 156963.90900000007,
      "d": 152.52939583332045,
      "v": 78
    },
    {
      "midi": 58,
      "hit": false,
      "t": 156963.90900000007,
      "d": 212.05306249999558,
      "v": 91
    },
    {
      "midi": 51,
      "hit": false,
      "t": 157142.48000000007,
      "d": 647.3198749999865,
      "v": 85
    },
    {
      "midi": 44,
      "hit": false,
      "t": 157142.48000000007,
      "d": 680.8019374999858,
      "v": 100
    },
    {
      "midi": 60,
      "hit": false,
      "t": 157321.05100000006,
      "d": 219.49352083331905,
      "v": 66
    },
    {
      "midi": 63,
      "hit": false,
      "t": 157499.62200000006,
      "d": 204.6126041666721,
      "v": 83
    },
    {
      "midi": 60,
      "hit": false,
      "t": 157678.19300000006,
      "d": 531.9927708333125,
      "v": 71
    },
    {
      "midi": 68,
      "hit": false,
      "t": 157856.76400000005,
      "d": 616.0699499999755,
      "v": 75
    },
    {
      "midi": 56,
      "hit": false,
      "t": 158035.33500000005,
      "d": 345.9813124999928,
      "v": 70
    },
    {
      "midi": 60,
      "hit": false,
      "t": 158213.90600000005,
      "d": 173.3626791666611,
      "v": 62
    },
    {
      "midi": 56,
      "hit": false,
      "t": 158392.47700000004,
      "d": 158.48176249998505,
      "v": 77
    },
    {
      "midi": 51,
      "hit": false,
      "t": 158571.04800000004,
      "d": 647.3198749999865,
      "v": 85
    },
    {
      "midi": 44,
      "hit": false,
      "t": 158571.04800000004,
      "d": 680.8019374999858,
      "v": 100
    },
    {
      "midi": 56,
      "hit": false,
      "t": 158749.61900000004,
      "d": 151.04130416666158,
      "v": 95
    },
    {
      "midi": 60,
      "hit": false,
      "t": 158928.19000000003,
      "d": 171.1305416666728,
      "v": 91
    },
    {
      "midi": 56,
      "hit": false,
      "t": 159106.76100000003,
      "d": 159.96985416667303,
      "v": 85
    },
    {
      "midi": 46,
      "hit": false,
      "t": 159285.33200000002,
      "d": 624.998499999987,
      "v": 99
    },
    {
      "midi": 58,
      "hit": false,
      "t": 159463.90300000002,
      "d": 145.08893749999697,
      "v": 85
    },
    {
      "midi": 61,
      "hit": false,
      "t": 159642.47400000002,
      "d": 200.8923749999958,
      "v": 94
    },
    {
      "midi": 58,
      "hit": false,
      "t": 159821.045,
      "d": 212.05306249999558,
      "v": 91
    },
    {
      "midi": 51,
      "hit": false,
      "t": 159999.616,
      "d": 647.3198749999865,
      "v": 85
    },
    {
      "midi": 44,
      "hit": false,
      "t": 159999.616,
      "d": 680.8019374999858,
      "v": 100
    },
    {
      "midi": 60,
      "hit": false,
      "t": 160178.187,
      "d": 219.49352083331905,
      "v": 66
    },
    {
      "midi": 63,
      "hit": false,
      "t": 160356.758,
      "d": 204.6126041666721,
      "v": 83
    },
    {
      "midi": 60,
      "hit": false,
      "t": 160535.329,
      "d": 822.1706458333356,
      "v": 71
    },
    {
      "midi": 68,
      "hit": false,
      "t": 160713.9,
      "d": 327.38016666666954,
      "v": 75
    },
    {
      "midi": 68,
      "hit": false,
      "t": 161071.042,
      "d": 364.58245833334513,
      "v": 84
    },
    {
      "midi": 51,
      "hit": false,
      "t": 161428.184,
      "d": 647.3198749999865,
      "v": 85
    },
    {
      "midi": 44,
      "hit": false,
      "t": 161428.184,
      "d": 680.8019374999858,
      "v": 100
    },
    {
      "midi": 56,
      "hit": false,
      "t": 161606.755,
      "d": 151.04130416666158,
      "v": 95
    },
    {
      "midi": 60,
      "hit": false,
      "t": 161785.326,
      "d": 171.1305416666728,
      "v": 91
    },
    {
      "midi": 56,
      "hit": false,
      "t": 161963.897,
      "d": 159.96985416667303,
      "v": 85
    },
    {
      "midi": 46,
      "hit": false,
      "t": 162142.468,
      "d": 624.998499999987,
      "v": 99
    },
    {
      "midi": 58,
      "hit": false,
      "t": 162321.039,
      "d": 145.08893749999697,
      "v": 85
    },
    {
      "midi": 61,
      "hit": false,
      "t": 162499.61,
      "d": 200.8923749999958,
      "v": 94
    },
    {
      "midi": 54,
      "hit": false,
      "t": 162678.18099999998,
      "d": 152.52939583332045,
      "v": 78
    },
    {
      "midi": 58,
      "hit": false,
      "t": 162678.18099999998,
      "d": 212.05306249999558,
      "v": 91
    },
    {
      "midi": 51,
      "hit": false,
      "t": 162856.75199999998,
      "d": 647.3198749999865,
      "v": 85
    },
    {
      "midi": 44,
      "hit": false,
      "t": 162856.75199999998,
      "d": 2584.07117916664,
      "v": 100
    },
    {
      "midi": 60,
      "hit": false,
      "t": 163035.32299999997,
      "d": 219.49352083331905,
      "v": 66
    },
    {
      "midi": 63,
      "hit": false,
      "t": 163213.89399999997,
      "d": 204.6126041666721,
      "v": 83
    },
    {
      "midi": 60,
      "hit": false,
      "t": 163392.46499999997,
      "d": 2137.6436791666492,
      "v": 71
    },
    {
      "midi": 68,
      "hit": false,
      "t": 163571.03599999996,
      "d": 1959.072679166653,
      "v": 75
    }
  ]
}