{
  "jsonPath": "Country/Classic Country Pop/Roy Clark/silent-night.json",
  "path": "Country\\Classic Country Pop\\Roy Clark\\Silent Night.mid",
  "name": "Silent Night",
  "difficulty": "Advanced",
  "bpm": 110.00091667430561,
  "notes": [
    {
      "midi": 60,
      "hit": false,
      "t": 5852.223958333332,
      "d": 68.18124999999964,
      "v": 127
    },
    {
      "midi": 64,
      "hit": false,
      "t": 5852.223958333332,
      "d": 79.54479166666624,
      "v": 127
    },
    {
      "midi": 55,
      "hit": false,
      "t": 5852.223958333332,
      "d": 90.90833333333285,
      "v": 127
    },
    {
      "midi": 64,
      "hit": false,
      "t": 6534.036458333332,
      "d": 68.18124999999964,
      "v": 122
    },
    {
      "midi": 60,
      "hit": false,
      "t": 6534.036458333332,
      "d": 79.54479166666624,
      "v": 127
    },
    {
      "midi": 67,
      "hit": false,
      "t": 6545.399999999999,
      "d": 68.18124999999964,
      "v": 127
    },
    {
      "midi": 64,
      "hit": false,
      "t": 7249.939583333332,
      "d": 68.18124999999964,
      "v": 127
    },
    {
      "midi": 67,
      "hit": false,
      "t": 7249.939583333332,
      "d": 68.18124999999964,
      "v": 127
    },
    {
      "midi": 72,
      "hit": false,
      "t": 7249.939583333332,
      "d": 68.18124999999964,
      "v": 127
    },
    {
      "midi": 62,
      "hit": false,
      "t": 7931.752083333332,
      "d": 79.54479166666624,
      "v": 122
    },
    {
      "midi": 66,
      "hit": false,
      "t": 7931.752083333332,
      "d": 79.54479166666624,
      "v": 127
    },
    {
      "midi": 69,
      "hit": false,
      "t": 7931.752083333332,
      "d": 79.54479166666624,
      "v": 127
    },
    {
      "midi": 66,
      "hit": false,
      "t": 8636.291666666664,
      "d": 68.18124999999964,
      "v": 109
    },
    {
      "midi": 69,
      "hit": false,
      "t": 8636.291666666664,
      "d": 68.18124999999964,
      "v": 118
    },
    {
      "midi": 74,
      "hit": false,
      "t": 8636.291666666664,
      "d": 68.18124999999964,
      "v": 113
    },
    {
      "midi": 74,
      "hit": false,
      "t": 9272.649999999998,
      "d": 79.54479166666715,
      "v": 127
    },
    {
      "midi": 69,
      "hit": false,
      "t": 9272.649999999998,
      "d": 90.90833333333467,
      "v": 127
    },
    {
      "midi": 78,
      "hit": false,
      "t": 9284.013541666665,
      "d": 68.18124999999964,
      "v": 127
    },
    {
      "midi": 69,
      "hit": false,
      "t": 9954.4625,
      "d": 56.81770833333394,
      "v": 127
    },
    {
      "midi": 65,
      "hit": false,
      "t": 9954.4625,
      "d": 79.54479166666897,
      "v": 127
    },
    {
      "midi": 72,
      "hit": false,
      "t": 9977.189583333333,
      "d": 45.45416666666824,
      "v": 127
    },
    {
      "midi": 69,
      "hit": false,
      "t": 10636.275000000001,
      "d": 68.18125000000146,
      "v": 109
    },
    {
      "midi": 77,
      "hit": false,
      "t": 10636.275000000001,
      "d": 90.90833333333467,
      "v": 113
    },
    {
      "midi": 72,
      "hit": false,
      "t": 10647.638541666669,
      "d": 45.454166666666424,
      "v": 118
    },
    {
      "midi": 77,
      "hit": false,
      "t": 11306.723958333336,
      "d": 79.54479166666715,
      "v": 122
    },
    {
      "midi": 81,
      "hit": false,
      "t": 11306.723958333336,
      "d": 79.54479166666715,
      "v": 109
    },
    {
      "midi": 72,
      "hit": false,
      "t": 11306.723958333336,
      "d": 102.27187500000036,
      "v": 122
    },
    {
      "midi": 67,
      "hit": false,
      "t": 11908.99166666667,
      "d": 124.9989583333354,
      "v": 88
    },
    {
      "midi": 71,
      "hit": false,
      "t": 11943.082291666671,
      "d": 113.6354166666697,
      "v": 109
    },
    {
      "midi": 77,
      "hit": false,
      "t": 12022.627083333338,
      "d": 90.90833333333649,
      "v": 109
    },
    {
      "midi": 60,
      "hit": false,
      "t": 14079.428125000008,
      "d": 79.54479166666715,
      "v": 127
    },
    {
      "midi": 64,
      "hit": false,
      "t": 14408.970833333342,
      "d": 124.99895833333358,
      "v": 122
    },
    {
      "midi": 67,
      "hit": false,
      "t": 14738.513541666676,
      "d": 124.99895833333358,
      "v": 118
    },
    {
      "midi": 72,
      "hit": false,
      "t": 15068.05625000001,
      "d": 204.54375000000073,
      "v": 109
    },
    {
      "midi": 76,
      "hit": false,
      "t": 15420.326041666678,
      "d": 113.63541666666606,
      "v": 127
    },
    {
      "midi": 55,
      "hit": false,
      "t": 16090.77500000001,
      "d": 170.453125,
      "v": 113
    },
    {
      "midi": 59,
      "hit": false,
      "t": 16431.68125000001,
      "d": 79.54479166666715,
      "v": 109
    },
    {
      "midi": 65,
      "hit": false,
      "t": 16795.314583333344,
      "d": 124.99895833333358,
      "v": 113
    },
    {
      "midi": 71,
      "hit": false,
      "t": 17102.130208333343,
      "d": 124.99895833333358,
      "v": 122
    },
    {
      "midi": 74,
      "hit": false,
      "t": 17443.036458333343,
      "d": 79.54479166666715,
      "v": 127
    },
    {
      "midi": 60,
      "hit": false,
      "t": 18136.212500000012,
      "d": 68.18125000000146,
      "v": 127
    },
    {
      "midi": 64,
      "hit": false,
      "t": 18477.118750000012,
      "d": 147.72604166666497,
      "v": 113
    },
    {
      "midi": 67,
      "hit": false,
      "t": 18829.388541666678,
      "d": 90.90833333333285,
      "v": 122
    },
    {
      "midi": 72,
      "hit": false,
      "t": 19147.567708333343,
      "d": 90.90833333333285,
      "v": 109
    },
    {
      "midi": 76,
      "hit": false,
      "t": 19477.110416666677,
      "d": 124.99895833333358,
      "v": 118
    },
    {
      "midi": 72,
      "hit": false,
      "t": 19818.016666666677,
      "d": 159.0895833333343,
      "v": 100
    },
    {
      "midi": 79,
      "hit": false,
      "t": 20147.55937500001,
      "d": 147.72604166666497,
      "v": 118
    },
    {
      "midi": 76,
      "hit": false,
      "t": 20511.192708333343,
      "d": 124.99895833333358,
      "v": 113
    },
    {
      "midi": 72,
      "hit": false,
      "t": 20852.098958333343,
      "d": 102.27187499999854,
      "v": 109
    },
    {
      "midi": 67,
      "hit": false,
      "t": 21193.005208333343,
      "d": 113.63541666666788,
      "v": 100
    },
    {
      "midi": 72,
      "hit": false,
      "t": 21533.911458333343,
      "d": 90.90833333333285,
      "v": 122
    },
    {
      "midi": 53,
      "hit": false,
      "t": 22227.08750000001,
      "d": 79.54479166666715,
      "v": 127
    },
    {
      "midi": 65,
      "hit": false,
      "t": 22579.357291666674,
      "d": 159.0895833333343,
      "v": 113
    },
    {
      "midi": 69,
      "hit": false,
      "t": 22920.263541666674,
      "d": 147.72604166666497,
      "v": 127
    },
    {
      "midi": 72,
      "hit": false,
      "t": 23261.169791666674,
      "d": 215.90729166666642,
      "v": 113
    },
    {
      "midi": 77,
      "hit": false,
      "t": 23613.43958333334,
      "d": 147.72604166666497,
      "v": 122
    },
    {
      "midi": 65,
      "hit": false,
      "t": 24295.25208333334,
      "d": 56.81770833333212,
      "v": 127
    },
    {
      "midi": 65,
      "hit": false,
      "t": 24590.704166666674,
      "d": 136.36249999999927,
      "v": 113
    },
    {
      "midi": 69,
      "hit": false,
      "t": 24954.337500000005,
      "d": 147.72604166666497,
      "v": 118
    },
    {
      "midi": 72,
      "hit": false,
      "t": 25306.60729166667,
      "d": 193.18020833333503,
      "v": 105
    },
    {
      "midi": 77,
      "hit": false,
      "t": 25636.150000000005,
      "d": 136.36249999999927,
      "v": 109
    },
    {
      "midi": 60,
      "hit": false,
      "t": 26340.68958333334,
      "d": 68.18125000000146,
      "v": 127
    },
    {
      "midi": 64,
      "hit": false,
      "t": 26658.86875000001,
      "d": 147.72604166666497,
      "v": 113
    },
    {
      "midi": 67,
      "hit": false,
      "t": 26999.77500000001,
      "d": 102.27187499999854,
      "v": 118
    },
    {
      "midi": 72,
      "hit": false,
      "t": 27340.68125000001,
      "d": 136.36249999999927,
      "v": 109
    },
    {
      "midi": 76,
      "hit": false,
      "t": 27681.58750000001,
      "d": 102.27187499999854,
      "v": 127
    },
    {
      "midi": 60,
      "hit": false,
      "t": 28386.12708333334,
      "d": 79.54479166666715,
      "v": 127
    },
    {
      "midi": 64,
      "hit": false,
      "t": 28692.94270833334,
      "d": 147.72604166666497,
      "v": 113
    },
    {
      "midi": 67,
      "hit": false,
      "t": 29022.48541666667,
      "d": 124.99895833333358,
      "v": 113
    },
    {
      "midi": 72,
      "hit": false,
      "t": 29397.48229166667,
      "d": 170.453125,
      "v": 105
    },
    {
      "midi": 76,
      "hit": false,
      "t": 29727.025000000005,
      "d": 113.63541666666788,
      "v": 127
    },
    {
      "midi": 71,
      "hit": false,
      "t": 30374.746875000008,
      "d": 409.08750000000146,
      "v": 127
    },
    {
      "midi": 74,
      "hit": false,
      "t": 30374.746875000008,
      "d": 420.45104166666715,
      "v": 127
    },
    {
      "midi": 55,
      "hit": false,
      "t": 30408.83750000001,
      "d": 1397.7156250000007,
      "v": 118
    },
    {
      "midi": 70,
      "hit": false,
      "t": 31056.559375000008,
      "d": 386.3604166666664,
      "v": 127
    },
    {
      "midi": 73,
      "hit": false,
      "t": 31056.559375000008,
      "d": 397.7239583333321,
      "v": 127
    },
    {
      "midi": 71,
      "hit": false,
      "t": 31738.371875000008,
      "d": 590.9041666666672,
      "v": 127
    },
    {
      "midi": 74,
      "hit": false,
      "t": 31738.371875000008,
      "d": 659.0854166666686,
      "v": 127
    },
    {
      "midi": 76,
      "hit": false,
      "t": 32829.27187500001,
      "d": 136.3625000000029,
      "v": 122
    },
    {
      "midi": 80,
      "hit": false,
      "t": 33170.17812500001,
      "d": 147.7260416666686,
      "v": 105
    },
    {
      "midi": 83,
      "hit": false,
      "t": 33476.993750000016,
      "d": 170.453125,
      "v": 118
    },
    {
      "midi": 88,
      "hit": false,
      "t": 33806.53645833335,
      "d": 136.3625000000029,
      "v": 96
    },
    {
      "midi": 81,
      "hit": false,
      "t": 34317.89583333335,
      "d": 136.3625000000029,
      "v": 80
    },
    {
      "midi": 84,
      "hit": false,
      "t": 34386.07708333335,
      "d": 113.63541666667152,
      "v": 105
    },
    {
      "midi": 88,
      "hit": false,
      "t": 34442.89479166669,
      "d": 90.90833333333285,
      "v": 80
    },
    {
      "midi": 93,
      "hit": false,
      "t": 34499.71250000002,
      "d": 113.63541666666424,
      "v": 127
    },
    {
      "midi": 64,
      "hit": false,
      "t": 35511.06770833336,
      "d": 136.3625000000029,
      "v": 88
    },
    {
      "midi": 69,
      "hit": false,
      "t": 35851.97395833336,
      "d": 159.0895833333343,
      "v": 92
    },
    {
      "midi": 72,
      "hit": false,
      "t": 36192.88020833336,
      "d": 249.99791666666715,
      "v": 92
    },
    {
      "midi": 76,
      "hit": false,
      "t": 36533.78645833336,
      "d": 90.90833333333285,
      "v": 113
    },
    {
      "midi": 50,
      "hit": false,
      "t": 38624.67812500002,
      "d": 90.90833333334012,
      "v": 122
    },
    {
      "midi": 65,
      "hit": false,
      "t": 38954.22083333336,
      "d": 159.0895833333343,
      "v": 100
    },
    {
      "midi": 69,
      "hit": false,
      "t": 39329.217708333366,
      "d": 159.0895833333343,
      "v": 118
    },
    {
      "midi": 74,
      "hit": false,
      "t": 39613.30625000003,
      "d": 181.8166666666657,
      "v": 118
    },
    {
      "midi": 69,
      "hit": false,
      "t": 39988.30312500003,
      "d": 113.63541666666424,
      "v": 127
    },
    {
      "midi": 55,
      "hit": false,
      "t": 40670.11562500002,
      "d": 90.90833333333285,
      "v": 122
    },
    {
      "midi": 62,
      "hit": false,
      "t": 40999.658333333355,
      "d": 147.7260416666686,
      "v": 118
    },
    {
      "midi": 67,
      "hit": false,
      "t": 41340.564583333355,
      "d": 136.3625000000029,
      "v": 122
    },
    {
      "midi": 71,
      "hit": false,
      "t": 41647.38020833336,
      "d": 159.0895833333343,
      "v": 109
    },
    {
      "midi": 67,
      "hit": false,
      "t": 41999.65000000002,
      "d": 170.453125,
      "v": 127
    },
    {
      "midi": 60,
      "hit": false,
      "t": 42726.91666666669,
      "d": 90.90833333333285,
      "v": 127
    },
    {
      "midi": 64,
      "hit": false,
      "t": 43011.00520833336,
      "d": 170.453125,
      "v": 105
    },
    {
      "midi": 67,
      "hit": false,
      "t": 43374.63854166669,
      "d": 170.453125,
      "v": 113
    },
    {
      "midi": 72,
      "hit": false,
      "t": 43692.81770833336,
      "d": 193.1802083333314,
      "v": 109
    },
    {
      "midi": 67,
      "hit": false,
      "t": 44056.45104166669,
      "d": 159.0895833333343,
      "v": 113
    },
    {
      "midi": 64,
      "hit": false,
      "t": 45340.53125000002,
      "d": 181.8166666666657,
      "v": 82
    },
    {
      "midi": 67,
      "hit": false,
      "t": 45738.25520833336,
      "d": 136.3625000000029,
      "v": 109
    },
    {
      "midi": 72,
      "hit": false,
      "t": 46090.52500000003,
      "d": 102.27187499999854,
      "v": 118
    },
    {
      "midi": 76,
      "hit": false,
      "t": 46397.340625000026,
      "d": 113.63541666666424,
      "v": 127
    },
    {
      "midi": 60,
      "hit": false,
      "t": 46760.97395833336,
      "d": 79.54479166666715,
      "v": 127
    },
    {
      "midi": 64,
      "hit": false,
      "t": 47101.88020833336,
      "d": 170.453125,
      "v": 105
    },
    {
      "midi": 67,
      "hit": false,
      "t": 47454.15000000002,
      "d": 124.99895833332994,
      "v": 118
    },
    {
      "midi": 72,
      "hit": false,
      "t": 47806.41979166669,
      "d": 170.453125,
      "v": 109
    },
    {
      "midi": 76,
      "hit": false,
      "t": 48135.96250000002,
      "d": 113.63541666666424,
      "v": 127
    },
    {
      "midi": 55,
      "hit": false,
      "t": 48817.775000000016,
      "d": 113.63541666667152,
      "v": 122
    },
    {
      "midi": 62,
      "hit": false,
      "t": 49147.31770833336,
      "d": 159.0895833333343,
      "v": 105
    },
    {
      "midi": 65,
      "hit": false,
      "t": 49499.58750000002,
      "d": 136.3625000000029,
      "v": 122
    },
    {
      "midi": 71,
      "hit": false,
      "t": 49829.13020833336,
      "d": 181.8166666666657,
      "v": 118
    },
    {
      "midi": 74,
      "hit": false,
      "t": 50158.67291666669,
      "d": 124.99895833332994,
      "v": 127
    },
    {
      "midi": 60,
      "hit": false,
      "t": 50863.21250000002,
      "d": 56.81770833332848,
      "v": 127
    },
    {
      "midi": 64,
      "hit": false,
      "t": 51181.391666666685,
      "d": 124.99895833332994,
      "v": 113
    },
    {
      "midi": 67,
      "hit": false,
      "t": 51522.297916666685,
      "d": 102.27187499999854,
      "v": 118
    },
    {
      "midi": 72,
      "hit": false,
      "t": 51863.204166666685,
      "d": 170.453125,
      "v": 109
    },
    {
      "midi": 76,
      "hit": false,
      "t": 52215.47395833335,
      "d": 136.3625000000029,
      "v": 127
    },
    {
      "midi": 60,
      "hit": false,
      "t": 52908.650000000016,
      "d": 79.54479166666715,
      "v": 127
    },
    {
      "midi": 64,
      "hit": false,
      "t": 53249.556250000016,
      "d": 136.3625000000029,
      "v": 113
    },
    {
      "midi": 67,
      "hit": false,
      "t": 53613.189583333355,
      "d": 113.63541666666424,
      "v": 109
    },
    {
      "midi": 72,
      "hit": false,
      "t": 53942.73229166669,
      "d": 159.0895833333343,
      "v": 122
    },
    {
      "midi": 76,
      "hit": false,
      "t": 54295.002083333355,
      "d": 124.99895833332994,
      "v": 127
    },
    {
      "midi": 53,
      "hit": false,
      "t": 54931.360416666685,
      "d": 102.27187500000582,
      "v": 127
    },
    {
      "midi": 65,
      "hit": false,
      "t": 55260.903125000026,
      "d": 170.453125,
      "v": 118
    },
    {
      "midi": 69,
      "hit": false,
      "t": 55613.17291666669,
      "d": 124.99895833332994,
      "v": 118
    },
    {
      "midi": 72,
      "hit": false,
      "t": 55954.07916666669,
      "d": 147.7260416666686,
      "v": 109
    },
    {
      "midi": 77,
      "hit": false,
      "t": 56283.621875000026,
      "d": 136.3625000000029,
      "v": 127
    },
    {
      "midi": 53,
      "hit": false,
      "t": 56976.7979166667,
      "d": 113.63541666666424,
      "v": 118
    },
    {
      "midi": 65,
      "hit": false,
      "t": 57294.97708333336,
      "d": 159.0895833333343,
      "v": 118
    },
    {
      "midi": 69,
      "hit": false,
      "t": 57658.61041666669,
      "d": 147.7260416666686,
      "v": 109
    },
    {
      "midi": 72,
      "hit": false,
      "t": 58022.24375000003,
      "d": 193.1802083333314,
      "v": 100
    },
    {
      "midi": 77,
      "hit": false,
      "t": 58340.42291666669,
      "d": 113.63541666666424,
      "v": 109
    },
    {
      "midi": 60,
      "hit": false,
      "t": 59067.689583333355,
      "d": 79.54479166666715,
      "v": 127
    },
    {
      "midi": 64,
      "hit": false,
      "t": 59374.50520833336,
      "d": 159.0895833333343,
      "v": 118
    },
    {
      "midi": 67,
      "hit": false,
      "t": 59726.77500000002,
      "d": 136.3625000000029,
      "v": 92
    },
    {
      "midi": 72,
      "hit": false,
      "t": 60067.68125000002,
      "d": 136.3625000000029,
      "v": 105
    },
    {
      "midi": 76,
      "hit": false,
      "t": 60419.951041666696,
      "d": 159.0895833333343,
      "v": 109
    },
    {
      "midi": 60,
      "hit": false,
      "t": 61124.49062500003,
      "d": 113.63541666667152,
      "v": 122
    },
    {
      "midi": 67,
      "hit": false,
      "t": 61431.30625000003,
      "d": 170.453125,
      "v": 113
    },
    {
      "midi": 72,
      "hit": false,
      "t": 61772.21250000003,
      "d": 159.0895833333343,
      "v": 109
    },
    {
      "midi": 76,
      "hit": false,
      "t": 62113.11875000003,
      "d": 159.0895833333343,
      "v": 113
    },
    {
      "midi": 72,
      "hit": false,
      "t": 62442.661458333365,
      "d": 181.8166666666657,
      "v": 122
    },
    {
      "midi": 67,
      "hit": false,
      "t": 62783.567708333365,
      "d": 159.0895833333343,
      "v": 122
    },
    {
      "midi": 71,
      "hit": false,
      "t": 63101.74687500003,
      "d": 454.54166666666424,
      "v": 127
    },
    {
      "midi": 74,
      "hit": false,
      "t": 63101.74687500003,
      "d": 465.90520833332994,
      "v": 127
    },
    {
      "midi": 55,
      "hit": false,
      "t": 63101.74687500003,
      "d": 2022.7104166666613,
      "v": 113
    },
    {
      "midi": 70,
      "hit": false,
      "t": 63817.65000000003,
      "d": 511.359375,
      "v": 127
    },
    {
      "midi": 73,
      "hit": false,
      "t": 63840.37708333336,
      "d": 511.359375,
      "v": 122
    },
    {
      "midi": 71,
      "hit": false,
      "t": 64499.46250000003,
      "d": 454.54166666666424,
      "v": 127
    },
    {
      "midi": 74,
      "hit": false,
      "t": 64499.46250000003,
      "d": 534.0864583333314,
      "v": 127
    },
    {
      "midi": 64,
      "hit": false,
      "t": 65215.36562500003,
      "d": 113.63541666666424,
      "v": 113
    },
    {
      "midi": 68,
      "hit": false,
      "t": 65408.54583333336,
      "d": 124.99895833332994,
      "v": 122
    },
    {
      "midi": 71,
      "hit": false,
      "t": 65624.45312500003,
      "d": 79.54479166665988,
      "v": 118
    },
    {
      "midi": 76,
      "hit": false,
      "t": 65851.72395833336,
      "d": 68.18124999999418,
      "v": 122
    },
    {
      "midi": 80,
      "hit": false,
      "t": 66067.63125000002,
      "d": 79.54479166665988,
      "v": 127
    },
    {
      "midi": 83,
      "hit": false,
      "t": 66272.17500000002,
      "d": 102.27187500000582,
      "v": 113
    },
    {
      "midi": 88,
      "hit": false,
      "t": 66488.0822916667,
      "d": 659.085416666654,
      "v": 127
    },
    {
      "midi": 76,
      "hit": false,
      "t": 66976.71458333336,
      "d": 102.27187499999127,
      "v": 96
    },
    {
      "midi": 81,
      "hit": false,
      "t": 67033.53229166669,
      "d": 79.54479166665988,
      "v": 82
    },
    {
      "midi": 84,
      "hit": false,
      "t": 67078.98645833335,
      "d": 68.18124999999418,
      "v": 79
    },
    {
      "midi": 88,
      "hit": false,
      "t": 67147.16770833335,
      "d": 124.99895833332266,
      "v": 122
    },
    {
      "midi": 69,
      "hit": false,
      "t": 69306.240625,
      "d": 159.0895833333343,
      "v": 127
    },
    {
      "midi": 71,
      "hit": false,
      "t": 69988.053125,
      "d": 136.3625000000029,
      "v": 127
    },
    {
      "midi": 72,
      "hit": false,
      "t": 70658.50208333334,
      "d": 124.99895833333721,
      "v": 122
    },
    {
      "midi": 65,
      "hit": false,
      "t": 71215.315625,
      "d": 136.3625000000029,
      "v": 79
    },
    {
      "midi": 69,
      "hit": false,
      "t": 71306.22395833334,
      "d": 79.54479166665988,
      "v": 77
    },
    {
      "midi": 74,
      "hit": false,
      "t": 71340.31458333334,
      "d": 124.99895833332266,
      "v": 127
    },
    {
      "midi": 50,
      "hit": false,
      "t": 71363.04166666667,
      "d": 613.6312499999913,
      "v": 84
    },
    {
      "midi": 62,
      "hit": false,
      "t": 72010.76354166666,
      "d": 79.54479166665988,
      "v": 113
    },
    {
      "midi": 62,
      "hit": false,
      "t": 72385.76041666666,
      "d": 193.1802083333314,
      "v": 109
    },
    {
      "midi": 65,
      "hit": false,
      "t": 72726.66666666666,
      "d": 159.0895833333343,
      "v": 118
    },
    {
      "midi": 69,
      "hit": false,
      "t": 73022.11875,
      "d": 261.3614583333256,
      "v": 118
    },
    {
      "midi": 55,
      "hit": false,
      "t": 73363.02499999998,
      "d": 102.27187499999127,
      "v": 127
    },
    {
      "midi": 62,
      "hit": false,
      "t": 73681.20416666663,
      "d": 136.3625000000029,
      "v": 80
    },
    {
      "midi": 65,
      "hit": false,
      "t": 74044.83749999997,
      "d": 159.0895833333343,
      "v": 113
    },
    {
      "midi": 71,
      "hit": false,
      "t": 74408.4708333333,
      "d": 159.0895833333343,
      "v": 113
    },
    {
      "midi": 74,
      "hit": false,
      "t": 74749.3770833333,
      "d": 113.63541666667152,
      "v": 118
    },
    {
      "midi": 60,
      "hit": false,
      "t": 75408.46249999997,
      "d": 79.54479166665988,
      "v": 113
    },
    {
      "midi": 64,
      "hit": false,
      "t": 75738.00520833328,
      "d": 170.453125,
      "v": 118
    },
    {
      "midi": 67,
      "hit": false,
      "t": 76113.00208333328,
      "d": 159.0895833333343,
      "v": 109
    },
    {
      "midi": 72,
      "hit": false,
      "t": 76419.81770833328,
      "d": 181.8166666666657,
      "v": 109
    },
    {
      "midi": 67,
      "hit": false,
      "t": 76794.81458333328,
      "d": 113.63541666667152,
      "v": 92
    },
    {
      "midi": 84,
      "hit": false,
      "t": 77476.62708333328,
      "d": 170.453125,
      "v": 109
    },
    {
      "midi": 79,
      "hit": false,
      "t": 77783.44270833328,
      "d": 147.7260416666686,
      "v": 92
    },
    {
      "midi": 76,
      "hit": false,
      "t": 78112.98541666662,
      "d": 147.7260416666686,
      "v": 100
    },
    {
      "midi": 72,
      "hit": false,
      "t": 78442.52812499995,
      "d": 159.0895833333343,
      "v": 96
    },
    {
      "midi": 67,
      "hit": false,
      "t": 78783.43437499995,
      "d": 193.1802083333314,
      "v": 92
    },
    {
      "midi": 64,
      "hit": false,
      "t": 79135.70416666662,
      "d": 227.27083333332848,
      "v": 105
    },
    {
      "midi": 60,
      "hit": false,
      "t": 79522.06458333328,
      "d": 56.81770833332848,
      "v": 127
    },
    {
      "midi": 64,
      "hit": false,
      "t": 79874.33437499995,
      "d": 193.1802083333314,
      "v": 100
    },
    {
      "midi": 67,
      "hit": false,
      "t": 80237.96770833328,
      "d": 159.0895833333343,
      "v": 113
    },
    {
      "midi": 72,
      "hit": false,
      "t": 80567.51041666661,
      "d": 215.9072916666628,
      "v": 109
    },
    {
      "midi": 76,
      "hit": false,
      "t": 80908.41666666661,
      "d": 113.63541666667152,
      "v": 127
    },
    {
      "midi": 55,
      "hit": false,
      "t": 81544.77499999995,
      "d": 102.27187500000582,
      "v": 118
    },
    {
      "midi": 62,
      "hit": false,
      "t": 81885.68124999995,
      "d": 181.8166666666657,
      "v": 113
    },
    {
      "midi": 65,
      "hit": false,
      "t": 82226.58749999995,
      "d": 147.7260416666686,
      "v": 122
    },
    {
      "midi": 71,
      "hit": false,
      "t": 82556.13020833328,
      "d": 215.9072916666628,
      "v": 122
    },
    {
      "midi": 74,
      "hit": false,
      "t": 82908.39999999995,
      "d": 147.7260416666686,
      "v": 127
    },
    {
      "midi": 60,
      "hit": false,
      "t": 83612.93958333328,
      "d": 79.54479166665988,
      "v": 127
    },
    {
      "midi": 64,
      "hit": false,
      "t": 83931.11874999994,
      "d": 181.8166666666657,
      "v": 113
    },
    {
      "midi": 67,
      "hit": false,
      "t": 84283.3885416666,
      "d": 124.99895833333721,
      "v": 118
    },
    {
      "midi": 72,
      "hit": false,
      "t": 84612.93124999994,
      "d": 102.27187500000582,
      "v": 109
    },
    {
      "midi": 76,
      "hit": false,
      "t": 84976.56458333328,
      "d": 124.99895833333721,
      "v": 118
    },
    {
      "midi": 72,
      "hit": false,
      "t": 85317.47083333328,
      "d": 159.0895833333343,
      "v": 105
    },
    {
      "midi": 84,
      "hit": false,
      "t": 85658.37708333328,
      "d": 159.0895833333343,
      "v": 113
    },
    {
      "midi": 82,
      "hit": false,
      "t": 85987.91979166662,
      "d": 159.0895833333343,
      "v": 100
    },
    {
      "midi": 79,
      "hit": false,
      "t": 86317.46249999995,
      "d": 102.27187500000582,
      "v": 88
    },
    {
      "midi": 72,
      "hit": false,
      "t": 86647.00520833328,
      "d": 147.7260416666686,
      "v": 100
    },
    {
      "midi": 70,
      "hit": false,
      "t": 86965.18437499995,
      "d": 261.3614583333401,
      "v": 109
    },
    {
      "midi": 53,
      "hit": false,
      "t": 87646.99687499997,
      "d": 102.27187499999127,
      "v": 118
    },
    {
      "midi": 65,
      "hit": false,
      "t": 88021.99374999997,
      "d": 170.453125,
      "v": 113
    },
    {
      "midi": 69,
      "hit": false,
      "t": 88374.26354166663,
      "d": 159.0895833333343,
      "v": 113
    },
    {
      "midi": 72,
      "hit": false,
      "t": 88715.16979166663,
      "d": 272.7250000000058,
      "v": 105
    },
    {
      "midi": 77,
      "hit": false,
      "t": 89078.80312499998,
      "d": 147.7260416666686,
      "v": 118
    },
    {
      "midi": 57,
      "hit": false,
      "t": 89771.97916666666,
      "d": 102.27187500000582,
      "v": 127
    },
    {
      "midi": 69,
      "hit": false,
      "t": 90090.15833333333,
      "d": 181.8166666666657,
      "v": 105
    },
    {
      "midi": 72,
      "hit": false,
      "t": 90442.42812499999,
      "d": 147.7260416666686,
      "v": 127
    },
    {
      "midi": 77,
      "hit": false,
      "t": 90771.97083333333,
      "d": 227.27083333332848,
      "v": 109
    },
    {
      "midi": 81,
      "hit": false,
      "t": 91112.87708333333,
      "d": 124.99895833333721,
      "v": 122
    },
    {
      "midi": 60,
      "hit": false,
      "t": 91794.68958333333,
      "d": 90.90833333332557,
      "v": 127
    },
    {
      "midi": 67,
      "hit": false,
      "t": 92112.86874999998,
      "d": 170.453125,
      "v": 113
    },
    {
      "midi": 72,
      "hit": false,
      "t": 92476.50208333331,
      "d": 136.3625000000029,
      "v": 122
    },
    {
      "midi": 76,
      "hit": false,
      "t": 92794.68124999998,
      "d": 147.7260416666686,
      "v": 109
    },
    {
      "midi": 67,
      "hit": false,
      "t": 93158.31458333331,
      "d": 147.7260416666686,
      "v": 122
    },
    {
      "midi": 60,
      "hit": false,
      "t": 94158.30624999998,
      "d": 90.90833333334012,
      "v": 127
    },
    {
      "midi": 64,
      "hit": false,
      "t": 94487.84895833331,
      "d": 170.453125,
      "v": 122
    },
    {
      "midi": 67,
      "hit": false,
      "t": 94851.48229166665,
      "d": 159.0895833333343,
      "v": 127
    },
    {
      "midi": 72,
      "hit": false,
      "t": 95181.02499999998,
      "d": 79.54479166665988,
      "v": 113
    },
    {
      "midi": 55,
      "hit": false,
      "t": 95851.47395833331,
      "d": 2045.4374999999854,
      "v": 105
    },
    {
      "midi": 83,
      "hit": false,
      "t": 95862.83749999998,
      "d": 159.0895833333343,
      "v": 127
    },
    {
      "midi": 86,
      "hit": false,
      "t": 95874.20104166665,
      "d": 136.3625000000029,
      "v": 127
    },
    {
      "midi": 82,
      "hit": false,
      "t": 96590.10416666664,
      "d": 90.90833333334012,
      "v": 127
    },
    {
      "midi": 85,
      "hit": false,
      "t": 96590.10416666664,
      "d": 102.27187500000582,
      "v": 127
    },
    {
      "midi": 83,
      "hit": false,
      "t": 97249.18958333331,
      "d": 79.54479166665988,
      "v": 127
    },
    {
      "midi": 86,
      "hit": false,
      "t": 97249.18958333331,
      "d": 90.90833333332557,
      "v": 127
    },
    {
      "midi": 69,
      "hit": false,
      "t": 97953.72916666663,
      "d": 136.36249999998836,
      "v": 122
    },
    {
      "midi": 57,
      "hit": false,
      "t": 97953.72916666663,
      "d": 204.54374999998254,
      "v": 113
    },
    {
      "midi": 71,
      "hit": false,
      "t": 98624.17812499995,
      "d": 113.63541666667152,
      "v": 122
    },
    {
      "midi": 56,
      "hit": false,
      "t": 98646.90520833328,
      "d": 1215.898958333346,
      "v": 127
    },
    {
      "midi": 68,
      "hit": false,
      "t": 98874.17604166662,
      "d": 124.99895833333721,
      "v": 122
    },
    {
      "midi": 64,
      "hit": false,
      "t": 99067.35624999995,
      "d": 113.63541666667152,
      "v": 113
    },
    {
      "midi": 71,
      "hit": false,
      "t": 99271.89999999997,
      "d": 124.99895833333721,
      "v": 127
    },
    {
      "midi": 74,
      "hit": false,
      "t": 99476.44374999996,
      "d": 124.99895833333721,
      "v": 113
    },
    {
      "midi": 71,
      "hit": false,
      "t": 99715.07812499997,
      "d": 124.99895833332266,
      "v": 127
    },
    {
      "midi": 69,
      "hit": false,
      "t": 99942.34895833328,
      "d": 90.90833333332557,
      "v": 122
    },
    {
      "midi": 72,
      "hit": false,
      "t": 99953.71249999995,
      "d": 102.27187499999127,
      "v": 127
    },
    {
      "midi": 57,
      "hit": false,
      "t": 99976.43958333328,
      "d": 136.36249999998836,
      "v": 127
    },
    {
      "midi": 64,
      "hit": false,
      "t": 100965.06770833327,
      "d": 124.99895833332266,
      "v": 65
    },
    {
      "midi": 69,
      "hit": false,
      "t": 101033.24895833326,
      "d": 113.63541666665697,
      "v": 92
    },
    {
      "midi": 72,
      "hit": false,
      "t": 101112.79374999992,
      "d": 68.18124999999418,
      "v": 109
    },
    {
      "midi": 76,
      "hit": false,
      "t": 101192.33854166658,
      "d": 56.81770833332848,
      "v": 127
    },
    {
      "midi": 76,
      "hit": false,
      "t": 101828.6968749999,
      "d": 90.90833333332557,
      "v": 92
    },
    {
      "midi": 81,
      "hit": false,
      "t": 101862.7874999999,
      "d": 102.27187499999127,
      "v": 96
    },
    {
      "midi": 84,
      "hit": false,
      "t": 101919.60520833323,
      "d": 68.18124999999418,
      "v": 92
    },
    {
      "midi": 88,
      "hit": false,
      "t": 101999.14999999989,
      "d": 68.18124999999418,
      "v": 127
    },
    {
      "midi": 74,
      "hit": false,
      "t": 103987.76979166655,
      "d": 90.90833333332557,
      "v": 118
    },
    {
      "midi": 69,
      "hit": false,
      "t": 103999.13333333321,
      "d": 68.18124999999418,
      "v": 127
    },
    {
      "midi": 65,
      "hit": false,
      "t": 103999.13333333321,
      "d": 79.54479166665988,
      "v": 127
    },
    {
      "midi": 50,
      "hit": false,
      "t": 103999.13333333321,
      "d": 1670.4406249999738,
      "v": 113
    },
    {
      "midi": 65,
      "hit": false,
      "t": 105124.1239583332,
      "d": 79.54479166665988,
      "v": 127
    },
    {
      "midi": 69,
      "hit": false,
      "t": 105124.1239583332,
      "d": 90.90833333332557,
      "v": 127
    },
    {
      "midi": 62,
      "hit": false,
      "t": 105124.1239583332,
      "d": 102.27187499999127,
      "v": 122
    },
    {
      "midi": 65,
      "hit": false,
      "t": 105465.03020833319,
      "d": 68.18124999999418,
      "v": 127
    },
    {
      "midi": 62,
      "hit": false,
      "t": 105465.03020833319,
      "d": 79.54479166665988,
      "v": 127
    },
    {
      "midi": 69,
      "hit": false,
      "t": 105476.39374999986,
      "d": 68.18124999999418,
      "v": 127
    },
    {
      "midi": 62,
      "hit": false,
      "t": 106135.47916666653,
      "d": 170.453125,
      "v": 127
    },
    {
      "midi": 67,
      "hit": false,
      "t": 106135.47916666653,
      "d": 170.453125,
      "v": 127
    },
    {
      "midi": 71,
      "hit": false,
      "t": 106135.47916666653,
      "d": 181.8166666666657,
      "v": 127
    },
    {
      "midi": 55,
      "hit": false,
      "t": 106135.47916666653,
      "d": 1988.6197916666715,
      "v": 127
    },
    {
      "midi": 62,
      "hit": false,
      "t": 106794.5645833332,
      "d": 499.9958333333343,
      "v": 127
    },
    {
      "midi": 67,
      "hit": false,
      "t": 106794.5645833332,
      "d": 511.359375,
      "v": 127
    },
    {
      "midi": 69,
      "hit": false,
      "t": 106794.5645833332,
      "d": 534.0864583333314,
      "v": 127
    },
    {
      "midi": 62,
      "hit": false,
      "t": 107453.64999999986,
      "d": 181.8166666666657,
      "v": 127
    },
    {
      "midi": 67,
      "hit": false,
      "t": 107453.64999999986,
      "d": 193.1802083333314,
      "v": 127
    },
    {
      "midi": 71,
      "hit": false,
      "t": 107453.64999999986,
      "d": 204.5437499999971,
      "v": 127
    },
    {
      "midi": 67,
      "hit": false,
      "t": 108135.46249999986,
      "d": 79.54479166665988,
      "v": 127
    },
    {
      "midi": 64,
      "hit": false,
      "t": 108135.46249999986,
      "d": 90.90833333332557,
      "v": 127
    },
    {
      "midi": 72,
      "hit": false,
      "t": 108135.46249999986,
      "d": 90.90833333332557,
      "v": 127
    },
    {
      "midi": 48,
      "hit": false,
      "t": 108158.1895833332,
      "d": 68.18124999999418,
      "v": 127
    },
    {
      "midi": 60,
      "hit": false,
      "t": 108158.1895833332,
      "d": 79.54479166665988,
      "v": 127
    },
    {
      "midi": 76,
      "hit": false,
      "t": 110158.17291666652,
      "d": 79.54479166665988,
      "v": 127
    },
    {
      "midi": 79,
      "hit": false,
      "t": 110169.53645833318,
      "d": 45.454166666662786,
      "v": 127
    },
    {
      "midi": 84,
      "hit": false,
      "t": 110169.53645833318,
      "d": 68.18124999999418,
      "v": 127
    },
    {
      "midi": 48,
      "hit": false,
      "t": 112226.33749999985,
      "d": 335.2244791666599,
      "v": 99
    },
    {
      "midi": 48,
      "hit": false,
      "t": 112567.24374999985,
      "d": 1357.9432291666599,
      "v": 105
    },
    {
      "midi": 60,
      "hit": false,
      "t": 112908.14999999985,
      "d": 335.2244791666599,
      "v": 105
    },
    {
      "midi": 67,
      "hit": false,
      "t": 113249.05624999985,
      "d": 676.1307291666599,
      "v": 127
    },
    {
      "midi": 64,
      "hit": false,
      "t": 113249.05624999985,
      "d": 1017.0369791666599,
      "v": 113
    },
    {
      "midi": 72,
      "hit": false,
      "t": 113589.96249999985,
      "d": 676.1307291666599,
      "v": 127
    },
    {
      "midi": 43,
      "hit": false,
      "t": 114271.77499999985,
      "d": 335.2244791666599,
      "v": 123
    },
    {
      "midi": 55,
      "hit": false,
      "t": 114271.77499999985,
      "d": 676.1307291666599,
      "v": 127
    },
    {
      "midi": 62,
      "hit": false,
      "t": 114271.77499999985,
      "d": 676.1307291666599,
      "v": 127
    },
    {
      "midi": 71,
      "hit": false,
      "t": 114271.77499999985,
      "d": 676.1307291666599,
      "v": 127
    },
    {
      "midi": 45,
      "hit": false,
      "t": 114953.58749999985,
      "d": 335.2244791666599,
      "v": 117
    },
    {
      "midi": 49,
      "hit": false,
      "t": 114953.58749999985,
      "d": 335.2244791666599,
      "v": 59
    },
    {
      "midi": 57,
      "hit": false,
      "t": 114953.58749999985,
      "d": 676.1307291666599,
      "v": 127
    },
    {
      "midi": 62,
      "hit": false,
      "t": 114953.58749999985,
      "d": 676.1307291666599,
      "v": 123
    },
    {
      "midi": 71,
      "hit": false,
      "t": 114953.58749999985,
      "d": 676.1307291666599,
      "v": 127
    },
    {
      "midi": 47,
      "hit": false,
      "t": 115635.39999999985,
      "d": 676.1307291666599,
      "v": 117
    },
    {
      "midi": 59,
      "hit": false,
      "t": 115635.39999999985,
      "d": 676.1307291666599,
      "v": 127
    },
    {
      "midi": 62,
      "hit": false,
      "t": 115635.39999999985,
      "d": 676.1307291666599,
      "v": 127
    },
    {
      "midi": 71,
      "hit": false,
      "t": 115635.39999999985,
      "d": 676.1307291666599,
      "v": 127
    },
    {
      "midi": 60,
      "hit": false,
      "t": 116999.02499999983,
      "d": 335.2244791666599,
      "v": 117
    },
    {
      "midi": 64,
      "hit": false,
      "t": 116999.02499999983,
      "d": 335.2244791666599,
      "v": 117
    },
    {
      "midi": 67,
      "hit": false,
      "t": 116999.02499999983,
      "d": 335.2244791666599,
      "v": 112
    },
    {
      "midi": 60,
      "hit": false,
      "t": 117680.83749999983,
      "d": 335.2244791666599,
      "v": 117
    },
    {
      "midi": 64,
      "hit": false,
      "t": 117680.83749999983,
      "d": 335.2244791666599,
      "v": 123
    },
    {
      "midi": 60,
      "hit": false,
      "t": 119044.46249999983,
      "d": 335.2244791666599,
      "v": 103
    },
    {
      "midi": 64,
      "hit": false,
      "t": 119044.46249999983,
      "d": 335.2244791666599,
      "v": 112
    },
    {
      "midi": 67,
      "hit": false,
      "t": 119044.46249999983,
      "d": 335.2244791666599,
      "v": 108
    },
    {
      "midi": 60,
      "hit": false,
      "t": 119726.27499999982,
      "d": 335.2244791666599,
      "v": 117
    },
    {
      "midi": 64,
      "hit": false,
      "t": 119726.27499999982,
      "d": 335.2244791666599,
      "v": 117
    },
    {
      "midi": 67,
      "hit": false,
      "t": 119726.27499999982,
      "d": 335.2244791666599,
      "v": 112
    },
    {
      "midi": 60,
      "hit": false,
      "t": 121089.89999999982,
      "d": 335.2244791666599,
      "v": 117
    },
    {
      "midi": 64,
      "hit": false,
      "t": 121089.89999999982,
      "d": 335.2244791666599,
      "v": 117
    },
    {
      "midi": 67,
      "hit": false,
      "t": 121089.89999999982,
      "d": 335.2244791666599,
      "v": 108
    },
    {
      "midi": 60,
      "hit": false,
      "t": 121771.71249999982,
      "d": 335.2244791666599,
      "v": 103
    },
    {
      "midi": 64,
      "hit": false,
      "t": 121771.71249999982,
      "d": 335.2244791666599,
      "v": 117
    },
    {
      "midi": 67,
      "hit": false,
      "t": 121771.71249999982,
      "d": 335.2244791666599,
      "v": 112
    },
    {
      "midi": 60,
      "hit": false,
      "t": 123135.33749999982,
      "d": 335.2244791666599,
      "v": 117
    },
    {
      "midi": 64,
      "hit": false,
      "t": 123135.33749999982,
      "d": 335.2244791666599,
      "v": 123
    },
    {
      "midi": 67,
      "hit": false,
      "t": 123135.33749999982,
      "d": 335.2244791666599,
      "v": 117
    },
    {
      "midi": 60,
      "hit": false,
      "t": 123817.14999999982,
      "d": 335.2244791666599,
      "v": 90
    },
    {
      "midi": 62,
      "hit": false,
      "t": 123817.14999999982,
      "d": 335.2244791666599,
      "v": 95
    },
    {
      "midi": 64,
      "hit": false,
      "t": 123817.14999999982,
      "d": 335.2244791666599,
      "v": 123
    },
    {
      "midi": 67,
      "hit": false,
      "t": 123817.14999999982,
      "d": 335.2244791666599,
      "v": 112
    },
    {
      "midi": 59,
      "hit": false,
      "t": 125180.77499999982,
      "d": 335.2244791666599,
      "v": 108
    },
    {
      "midi": 62,
      "hit": false,
      "t": 125180.77499999982,
      "d": 335.2244791666599,
      "v": 117
    },
    {
      "midi": 67,
      "hit": false,
      "t": 125180.77499999982,
      "d": 335.2244791666599,
      "v": 117
    },
    {
      "midi": 59,
      "hit": false,
      "t": 125862.58749999982,
      "d": 335.2244791666599,
      "v": 112
    },
    {
      "midi": 62,
      "hit": false,
      "t": 125862.58749999982,
      "d": 335.2244791666599,
      "v": 117
    },
    {
      "midi": 67,
      "hit": false,
      "t": 125862.58749999982,
      "d": 335.2244791666599,
      "v": 117
    },
    {
      "midi": 59,
      "hit": false,
      "t": 127226.21249999982,
      "d": 335.2244791666599,
      "v": 112
    },
    {
      "midi": 62,
      "hit": false,
      "t": 127226.21249999982,
      "d": 335.2244791666599,
      "v": 127
    },
    {
      "midi": 67,
      "hit": false,
      "t": 127226.21249999982,
      "d": 335.2244791666599,
      "v": 117
    },
    {
      "midi": 59,
      "hit": false,
      "t": 127908.02499999982,
      "d": 335.2244791666599,
      "v": 117
    },
    {
      "midi": 62,
      "hit": false,
      "t": 127908.02499999982,
      "d": 335.2244791666599,
      "v": 123
    },
    {
      "midi": 67,
      "hit": false,
      "t": 127908.02499999982,
      "d": 335.2244791666599,
      "v": 112
    },
    {
      "midi": 64,
      "hit": false,
      "t": 129271.64999999982,
      "d": 335.2244791666599,
      "v": 127
    },
    {
      "midi": 67,
      "hit": false,
      "t": 129271.64999999982,
      "d": 335.2244791666599,
      "v": 117
    },
    {
      "midi": 60,
      "hit": false,
      "t": 129271.64999999982,
      "d": 676.1307291666599,
      "v": 117
    },
    {
      "midi": 60,
      "hit": false,
      "t": 129953.46249999982,
      "d": 335.2244791666599,
      "v": 117
    },
    {
      "midi": 64,
      "hit": false,
      "t": 129953.46249999982,
      "d": 335.2244791666599,
      "v": 123
    },
    {
      "midi": 67,
      "hit": false,
      "t": 129953.46249999982,
      "d": 335.2244791666599,
      "v": 123
    },
    {
      "midi": 60,
      "hit": false,
      "t": 131317.08749999982,
      "d": 335.2244791666744,
      "v": 123
    },
    {
      "midi": 64,
      "hit": false,
      "t": 131317.08749999982,
      "d": 335.2244791666744,
      "v": 123
    },
    {
      "midi": 67,
      "hit": false,
      "t": 131317.08749999982,
      "d": 335.2244791666744,
      "v": 117
    },
    {
      "midi": 60,
      "hit": false,
      "t": 131998.89999999982,
      "d": 335.2244791666744,
      "v": 117
    },
    {
      "midi": 64,
      "hit": false,
      "t": 131998.89999999982,
      "d": 335.2244791666744,
      "v": 123
    },
    {
      "midi": 67,
      "hit": false,
      "t": 131998.89999999982,
      "d": 335.2244791666744,
      "v": 117
    },
    {
      "midi": 60,
      "hit": false,
      "t": 133362.52499999982,
      "d": 335.2244791666744,
      "v": 123
    },
    {
      "midi": 65,
      "hit": false,
      "t": 133362.52499999982,
      "d": 335.2244791666744,
      "v": 123
    },
    {
      "midi": 69,
      "hit": false,
      "t": 133362.52499999982,
      "d": 335.2244791666744,
      "v": 123
    },
    {
      "midi": 60,
      "hit": false,
      "t": 134044.33749999982,
      "d": 335.2244791666744,
      "v": 117
    },
    {
      "midi": 65,
      "hit": false,
      "t": 134044.33749999982,
      "d": 335.2244791666744,
      "v": 117
    },
    {
      "midi": 69,
      "hit": false,
      "t": 134044.33749999982,
      "d": 335.2244791666744,
      "v": 103
    },
    {
      "midi": 60,
      "hit": false,
      "t": 135407.96249999982,
      "d": 335.2244791666744,
      "v": 123
    },
    {
      "midi": 65,
      "hit": false,
      "t": 135407.96249999982,
      "d": 335.2244791666744,
      "v": 117
    },
    {
      "midi": 69,
      "hit": false,
      "t": 135407.96249999982,
      "d": 335.2244791666744,
      "v": 117
    },
    {
      "midi": 60,
      "hit": false,
      "t": 136089.77499999982,
      "d": 335.2244791666744,
      "v": 123
    },
    {
      "midi": 65,
      "hit": false,
      "t": 136089.77499999982,
      "d": 335.2244791666744,
      "v": 123
    },
    {
      "midi": 69,
      "hit": false,
      "t": 136089.77499999982,
      "d": 335.2244791666744,
      "v": 108
    },
    {
      "midi": 60,
      "hit": false,
      "t": 137453.39999999982,
      "d": 335.2244791666744,
      "v": 123
    },
    {
      "midi": 64,
      "hit": false,
      "t": 137453.39999999982,
      "d": 335.2244791666744,
      "v": 123
    },
    {
      "midi": 67,
      "hit": false,
      "t": 137453.39999999982,
      "d": 335.2244791666744,
      "v": 123
    },
    {
      "midi": 60,
      "hit": false,
      "t": 138135.21249999982,
      "d": 335.2244791666744,
      "v": 123
    },
    {
      "midi": 64,
      "hit": false,
      "t": 138135.21249999982,
      "d": 335.2244791666744,
      "v": 123
    },
    {
      "midi": 67,
      "hit": false,
      "t": 138135.21249999982,
      "d": 335.2244791666744,
      "v": 117
    },
    {
      "midi": 60,
      "hit": false,
      "t": 139498.83749999982,
      "d": 335.2244791666744,
      "v": 123
    },
    {
      "midi": 64,
      "hit": false,
      "t": 139498.83749999982,
      "d": 335.2244791666744,
      "v": 117
    },
    {
      "midi": 67,
      "hit": false,
      "t": 139498.83749999982,
      "d": 335.2244791666744,
      "v": 117
    },
    {
      "midi": 60,
      "hit": false,
      "t": 140180.64999999982,
      "d": 335.2244791666744,
      "v": 117
    },
    {
      "midi": 64,
      "hit": false,
      "t": 140180.64999999982,
      "d": 335.2244791666744,
      "v": 127
    },
    {
      "midi": 67,
      "hit": false,
      "t": 140180.64999999982,
      "d": 335.2244791666744,
      "v": 117
    },
    {
      "midi": 60,
      "hit": false,
      "t": 141544.27499999982,
      "d": 335.2244791666744,
      "v": 123
    },
    {
      "midi": 65,
      "hit": false,
      "t": 141544.27499999982,
      "d": 335.2244791666744,
      "v": 117
    },
    {
      "midi": 69,
      "hit": false,
      "t": 141544.27499999982,
      "d": 335.2244791666744,
      "v": 117
    },
    {
      "midi": 65,
      "hit": false,
      "t": 142226.08749999982,
      "d": 335.2244791666744,
      "v": 117
    },
    {
      "midi": 69,
      "hit": false,
      "t": 142226.08749999982,
      "d": 335.2244791666744,
      "v": 117
    },
    {
      "midi": 60,
      "hit": false,
      "t": 142226.08749999982,
      "d": 1357.9432291666744,
      "v": 123
    },
    {
      "midi": 59,
      "hit": false,
      "t": 143589.71249999982,
      "d": 335.2244791666744,
      "v": 117
    },
    {
      "midi": 60,
      "hit": false,
      "t": 143589.71249999982,
      "d": 335.2244791666744,
      "v": 103
    },
    {
      "midi": 65,
      "hit": false,
      "t": 143589.71249999982,
      "d": 335.2244791666744,
      "v": 123
    },
    {
      "midi": 60,
      "hit": false,
      "t": 144271.52499999982,
      "d": 335.2244791666744,
      "v": 123
    },
    {
      "midi": 65,
      "hit": false,
      "t": 144271.52499999982,
      "d": 335.2244791666744,
      "v": 127
    },
    {
      "midi": 69,
      "hit": false,
      "t": 144271.52499999982,
      "d": 335.2244791666744,
      "v": 127
    },
    {
      "midi": 60,
      "hit": false,
      "t": 145635.14999999982,
      "d": 335.2244791666744,
      "v": 117
    },
    {
      "midi": 64,
      "hit": false,
      "t": 145635.14999999982,
      "d": 335.2244791666744,
      "v": 127
    },
    {
      "midi": 67,
      "hit": false,
      "t": 145635.14999999982,
      "d": 335.2244791666744,
      "v": 127
    },
    {
      "midi": 60,
      "hit": false,
      "t": 146316.96249999982,
      "d": 335.2244791666744,
      "v": 117
    },
    {
      "midi": 64,
      "hit": false,
      "t": 146316.96249999982,
      "d": 335.2244791666744,
      "v": 127
    },
    {
      "midi": 67,
      "hit": false,
      "t": 146316.96249999982,
      "d": 335.2244791666744,
      "v": 117
    },
    {
      "midi": 60,
      "hit": false,
      "t": 147680.58749999982,
      "d": 335.2244791666744,
      "v": 117
    },
    {
      "midi": 64,
      "hit": false,
      "t": 147680.58749999982,
      "d": 335.2244791666744,
      "v": 117
    },
    {
      "midi": 67,
      "hit": false,
      "t": 147680.58749999982,
      "d": 335.2244791666744,
      "v": 112
    },
    {
      "midi": 60,
      "hit": false,
      "t": 148362.39999999982,
      "d": 335.2244791666744,
      "v": 123
    },
    {
      "midi": 64,
      "hit": false,
      "t": 148362.39999999982,
      "d": 335.2244791666744,
      "v": 123
    },
    {
      "midi": 67,
      "hit": false,
      "t": 148362.39999999982,
      "d": 335.2244791666744,
      "v": 112
    },
    {
      "midi": 59,
      "hit": false,
      "t": 149726.02499999982,
      "d": 335.2244791666744,
      "v": 123
    },
    {
      "midi": 62,
      "hit": false,
      "t": 149726.02499999982,
      "d": 335.2244791666744,
      "v": 123
    },
    {
      "midi": 67,
      "hit": false,
      "t": 149726.02499999982,
      "d": 335.2244791666744,
      "v": 112
    },
    {
      "midi": 59,
      "hit": false,
      "t": 150407.83749999982,
      "d": 335.2244791666744,
      "v": 117
    },
    {
      "midi": 62,
      "hit": false,
      "t": 150407.83749999982,
      "d": 335.2244791666744,
      "v": 123
    },
    {
      "midi": 67,
      "hit": false,
      "t": 150407.83749999982,
      "d": 335.2244791666744,
      "v": 112
    },
    {
      "midi": 59,
      "hit": false,
      "t": 151771.46249999982,
      "d": 335.2244791666744,
      "v": 117
    },
    {
      "midi": 62,
      "hit": false,
      "t": 151771.46249999982,
      "d": 335.2244791666744,
      "v": 117
    },
    {
      "midi": 67,
      "hit": false,
      "t": 151771.46249999982,
      "d": 335.2244791666744,
      "v": 108
    },
    {
      "midi": 59,
      "hit": false,
      "t": 152453.27499999982,
      "d": 335.2244791666744,
      "v": 127
    },
    {
      "midi": 62,
      "hit": false,
      "t": 152453.27499999982,
      "d": 335.2244791666744,
      "v": 117
    },
    {
      "midi": 67,
      "hit": false,
      "t": 152453.27499999982,
      "d": 335.2244791666744,
      "v": 117
    },
    {
      "midi": 60,
      "hit": false,
      "t": 153816.89999999982,
      "d": 335.2244791666744,
      "v": 123
    },
    {
      "midi": 64,
      "hit": false,
      "t": 153816.89999999982,
      "d": 335.2244791666744,
      "v": 117
    },
    {
      "midi": 67,
      "hit": false,
      "t": 153816.89999999982,
      "d": 335.2244791666744,
      "v": 117
    },
    {
      "midi": 60,
      "hit": false,
      "t": 154498.71249999982,
      "d": 335.2244791666744,
      "v": 103
    },
    {
      "midi": 64,
      "hit": false,
      "t": 154498.71249999982,
      "d": 335.2244791666744,
      "v": 117
    },
    {
      "midi": 67,
      "hit": false,
      "t": 154498.71249999982,
      "d": 335.2244791666744,
      "v": 123
    },
    {
      "midi": 60,
      "hit": false,
      "t": 155862.33749999982,
      "d": 335.2244791666744,
      "v": 112
    },
    {
      "midi": 64,
      "hit": false,
      "t": 155862.33749999982,
      "d": 335.2244791666744,
      "v": 123
    },
    {
      "midi": 67,
      "hit": false,
      "t": 155862.33749999982,
      "d": 335.2244791666744,
      "v": 112
    },
    {
      "midi": 60,
      "hit": false,
      "t": 156544.14999999982,
      "d": 335.2244791666744,
      "v": 108
    },
    {
      "midi": 64,
      "hit": false,
      "t": 156544.14999999982,
      "d": 335.2244791666744,
      "v": 112
    },
    {
      "midi": 67,
      "hit": false,
      "t": 156544.14999999982,
      "d": 335.2244791666744,
      "v": 117
    },
    {
      "midi": 60,
      "hit": false,
      "t": 157907.77499999982,
      "d": 335.2244791666744,
      "v": 117
    },
    {
      "midi": 64,
      "hit": false,
      "t": 157907.77499999982,
      "d": 335.2244791666744,
      "v": 127
    },
    {
      "midi": 67,
      "hit": false,
      "t": 157907.77499999982,
      "d": 335.2244791666744,
      "v": 108
    },
    {
      "midi": 60,
      "hit": false,
      "t": 158589.58749999982,
      "d": 335.2244791666744,
      "v": 123
    },
    {
      "midi": 64,
      "hit": false,
      "t": 158589.58749999982,
      "d": 335.2244791666744,
      "v": 117
    },
    {
      "midi": 67,
      "hit": false,
      "t": 158589.58749999982,
      "d": 335.2244791666744,
      "v": 112
    },
    {
      "midi": 59,
      "hit": false,
      "t": 159953.21249999982,
      "d": 335.2244791666744,
      "v": 123
    },
    {
      "midi": 67,
      "hit": false,
      "t": 159953.21249999982,
      "d": 335.2244791666744,
      "v": 123
    },
    {
      "midi": 59,
      "hit": false,
      "t": 160635.02499999982,
      "d": 335.2244791666744,
      "v": 117
    },
    {
      "midi": 67,
      "hit": false,
      "t": 160635.02499999982,
      "d": 335.2244791666744,
      "v": 112
    },
    {
      "midi": 60,
      "hit": false,
      "t": 161998.64999999982,
      "d": 335.2244791666744,
      "v": 86
    },
    {
      "midi": 64,
      "hit": false,
      "t": 161998.64999999982,
      "d": 335.2244791666744,
      "v": 117
    },
    {
      "midi": 67,
      "hit": false,
      "t": 161998.64999999982,
      "d": 335.2244791666744,
      "v": 112
    },
    {
      "midi": 60,
      "hit": false,
      "t": 162680.46249999982,
      "d": 335.2244791666744,
      "v": 78
    },
    {
      "midi": 64,
      "hit": false,
      "t": 162680.46249999982,
      "d": 335.2244791666744,
      "v": 99
    },
    {
      "midi": 67,
      "hit": false,
      "t": 162680.46249999982,
      "d": 335.2244791666744,
      "v": 95
    },
    {
      "midi": 60,
      "hit": false,
      "t": 163362.27499999982,
      "d": 335.2244791666744,
      "v": 82
    },
    {
      "midi": 64,
      "hit": false,
      "t": 163362.27499999982,
      "d": 335.2244791666744,
      "v": 95
    },
    {
      "midi": 67,
      "hit": false,
      "t": 163362.27499999982,
      "d": 335.2244791666744,
      "v": 99
    },
    {
      "midi": 69,
      "hit": false,
      "t": 163362.27499999982,
      "d": 335.2244791666744,
      "v": 74
    },
    {
      "midi": 72,
      "hit": false,
      "t": 163362.27499999982,
      "d": 335.2244791666744,
      "v": 127
    },
    {
      "midi": 60,
      "hit": false,
      "t": 166089.52499999982,
      "d": 335.2244791666744,
      "v": 117
    },
    {
      "midi": 64,
      "hit": false,
      "t": 166089.52499999982,
      "d": 335.2244791666744,
      "v": 112
    },
    {
      "midi": 67,
      "hit": false,
      "t": 166089.52499999982,
      "d": 335.2244791666744,
      "v": 112
    },
    {
      "midi": 60,
      "hit": false,
      "t": 166771.33749999982,
      "d": 335.2244791666744,
      "v": 112
    },
    {
      "midi": 64,
      "hit": false,
      "t": 166771.33749999982,
      "d": 335.2244791666744,
      "v": 103
    },
    {
      "midi": 67,
      "hit": false,
      "t": 166771.33749999982,
      "d": 335.2244791666744,
      "v": 112
    },
    {
      "midi": 60,
      "hit": false,
      "t": 168134.96249999982,
      "d": 335.2244791666744,
      "v": 103
    },
    {
      "midi": 64,
      "hit": false,
      "t": 168134.96249999982,
      "d": 335.2244791666744,
      "v": 108
    },
    {
      "midi": 67,
      "hit": false,
      "t": 168134.96249999982,
      "d": 335.2244791666744,
      "v": 103
    },
    {
      "midi": 60,
      "hit": false,
      "t": 168816.77499999982,
      "d": 335.2244791666744,
      "v": 108
    },
    {
      "midi": 64,
      "hit": false,
      "t": 168816.77499999982,
      "d": 335.2244791666744,
      "v": 117
    },
    {
      "midi": 67,
      "hit": false,
      "t": 168816.77499999982,
      "d": 335.2244791666744,
      "v": 117
    },
    {
      "midi": 60,
      "hit": false,
      "t": 170180.39999999982,
      "d": 335.2244791666744,
      "v": 112
    },
    {
      "midi": 64,
      "hit": false,
      "t": 170180.39999999982,
      "d": 335.2244791666744,
      "v": 112
    },
    {
      "midi": 67,
      "hit": false,
      "t": 170180.39999999982,
      "d": 335.2244791666744,
      "v": 99
    },
    {
      "midi": 60,
      "hit": false,
      "t": 170862.21249999982,
      "d": 335.2244791666744,
      "v": 103
    },
    {
      "midi": 64,
      "hit": false,
      "t": 170862.21249999982,
      "d": 335.2244791666744,
      "v": 123
    },
    {
      "midi": 67,
      "hit": false,
      "t": 170862.21249999982,
      "d": 335.2244791666744,
      "v": 108
    },
    {
      "midi": 60,
      "hit": false,
      "t": 172225.83749999982,
      "d": 335.2244791666744,
      "v": 108
    },
    {
      "midi": 64,
      "hit": false,
      "t": 172225.83749999982,
      "d": 335.2244791666744,
      "v": 123
    },
    {
      "midi": 67,
      "hit": false,
      "t": 172225.83749999982,
      "d": 335.2244791666744,
      "v": 108
    },
    {
      "midi": 60,
      "hit": false,
      "t": 172907.64999999982,
      "d": 335.2244791666744,
      "v": 103
    },
    {
      "midi": 64,
      "hit": false,
      "t": 172907.64999999982,
      "d": 335.2244791666744,
      "v": 117
    },
    {
      "midi": 67,
      "hit": false,
      "t": 172907.64999999982,
      "d": 335.2244791666744,
      "v": 108
    },
    {
      "midi": 59,
      "hit": false,
      "t": 174271.27499999982,
      "d": 335.2244791666744,
      "v": 123
    },
    {
      "midi": 62,
      "hit": false,
      "t": 174271.27499999982,
      "d": 335.2244791666744,
      "v": 123
    },
    {
      "midi": 67,
      "hit": false,
      "t": 174271.27499999982,
      "d": 335.2244791666744,
      "v": 112
    },
    {
      "midi": 59,
      "hit": false,
      "t": 174953.08749999982,
      "d": 335.2244791666744,
      "v": 103
    },
    {
      "midi": 62,
      "hit": false,
      "t": 174953.08749999982,
      "d": 335.2244791666744,
      "v": 123
    },
    {
      "midi": 67,
      "hit": false,
      "t": 174953.08749999982,
      "d": 335.2244791666744,
      "v": 103
    },
    {
      "midi": 59,
      "hit": false,
      "t": 176316.71249999982,
      "d": 335.2244791666744,
      "v": 103
    },
    {
      "midi": 62,
      "hit": false,
      "t": 176316.71249999982,
      "d": 335.2244791666744,
      "v": 117
    },
    {
      "midi": 67,
      "hit": false,
      "t": 176316.71249999982,
      "d": 335.2244791666744,
      "v": 95
    },
    {
      "midi": 59,
      "hit": false,
      "t": 176998.52499999982,
      "d": 335.2244791666744,
      "v": 112
    },
    {
      "midi": 62,
      "hit": false,
      "t": 176998.52499999982,
      "d": 335.2244791666744,
      "v": 117
    },
    {
      "midi": 67,
      "hit": false,
      "t": 176998.52499999982,
      "d": 335.2244791666744,
      "v": 108
    },
    {
      "midi": 60,
      "hit": false,
      "t": 178362.14999999982,
      "d": 335.2244791666744,
      "v": 117
    },
    {
      "midi": 64,
      "hit": false,
      "t": 178362.14999999982,
      "d": 335.2244791666744,
      "v": 123
    },
    {
      "midi": 67,
      "hit": false,
      "t": 178362.14999999982,
      "d": 676.1307291666744,
      "v": 117
    },
    {
      "midi": 60,
      "hit": false,
      "t": 179043.96249999982,
      "d": 335.2244791666744,
      "v": 117
    },
    {
      "midi": 64,
      "hit": false,
      "t": 179043.96249999982,
      "d": 335.2244791666744,
      "v": 123
    },
    {
      "midi": 67,
      "hit": false,
      "t": 179043.96249999982,
      "d": 335.2244791666744,
      "v": 117
    },
    {
      "midi": 60,
      "hit": false,
      "t": 180407.58749999982,
      "d": 335.2244791666744,
      "v": 108
    },
    {
      "midi": 64,
      "hit": false,
      "t": 180407.58749999982,
      "d": 335.2244791666744,
      "v": 112
    },
    {
      "midi": 67,
      "hit": false,
      "t": 180407.58749999982,
      "d": 335.2244791666744,
      "v": 117
    },
    {
      "midi": 60,
      "hit": false,
      "t": 181089.39999999982,
      "d": 335.2244791666744,
      "v": 99
    },
    {
      "midi": 64,
      "hit": false,
      "t": 181089.39999999982,
      "d": 335.2244791666744,
      "v": 117
    },
    {
      "midi": 67,
      "hit": false,
      "t": 181089.39999999982,
      "d": 335.2244791666744,
      "v": 117
    },
    {
      "midi": 60,
      "hit": false,
      "t": 182453.02499999982,
      "d": 335.2244791666744,
      "v": 123
    },
    {
      "midi": 65,
      "hit": false,
      "t": 182453.02499999982,
      "d": 335.2244791666744,
      "v": 117
    },
    {
      "midi": 69,
      "hit": false,
      "t": 182453.02499999982,
      "d": 335.2244791666744,
      "v": 117
    },
    {
      "midi": 60,
      "hit": false,
      "t": 183134.83749999982,
      "d": 335.2244791666744,
      "v": 108
    },
    {
      "midi": 65,
      "hit": false,
      "t": 183134.83749999982,
      "d": 335.2244791666744,
      "v": 112
    },
    {
      "midi": 69,
      "hit": false,
      "t": 183134.83749999982,
      "d": 335.2244791666744,
      "v": 108
    },
    {
      "midi": 60,
      "hit": false,
      "t": 184498.46249999982,
      "d": 335.2244791666744,
      "v": 123
    },
    {
      "midi": 65,
      "hit": false,
      "t": 184498.46249999982,
      "d": 335.2244791666744,
      "v": 117
    },
    {
      "midi": 69,
      "hit": false,
      "t": 184498.46249999982,
      "d": 335.2244791666744,
      "v": 108
    },
    {
      "midi": 60,
      "hit": false,
      "t": 185180.27499999982,
      "d": 335.2244791666744,
      "v": 117
    },
    {
      "midi": 65,
      "hit": false,
      "t": 185180.27499999982,
      "d": 335.2244791666744,
      "v": 123
    },
    {
      "midi": 69,
      "hit": false,
      "t": 185180.27499999982,
      "d": 335.2244791666744,
      "v": 117
    },
    {
      "midi": 60,
      "hit": false,
      "t": 186543.89999999982,
      "d": 335.2244791666744,
      "v": 117
    },
    {
      "midi": 64,
      "hit": false,
      "t": 186543.89999999982,
      "d": 335.2244791666744,
      "v": 112
    },
    {
      "midi": 67,
      "hit": false,
      "t": 186543.89999999982,
      "d": 335.2244791666744,
      "v": 117
    },
    {
      "midi": 60,
      "hit": false,
      "t": 187225.71249999982,
      "d": 335.2244791666744,
      "v": 108
    },
    {
      "midi": 64,
      "hit": false,
      "t": 187225.71249999982,
      "d": 335.2244791666744,
      "v": 108
    },
    {
      "midi": 67,
      "hit": false,
      "t": 187225.71249999982,
      "d": 335.2244791666744,
      "v": 112
    },
    {
      "midi": 60,
      "hit": false,
      "t": 188589.33749999982,
      "d": 335.2244791666744,
      "v": 117
    },
    {
      "midi": 64,
      "hit": false,
      "t": 188589.33749999982,
      "d": 335.2244791666744,
      "v": 112
    },
    {
      "midi": 67,
      "hit": false,
      "t": 188589.33749999982,
      "d": 335.2244791666744,
      "v": 108
    },
    {
      "midi": 60,
      "hit": false,
      "t": 189271.14999999982,
      "d": 335.2244791666744,
      "v": 108
    },
    {
      "midi": 64,
      "hit": false,
      "t": 189271.14999999982,
      "d": 335.2244791666744,
      "v": 117
    },
    {
      "midi": 67,
      "hit": false,
      "t": 189271.14999999982,
      "d": 335.2244791666744,
      "v": 112
    },
    {
      "midi": 60,
      "hit": false,
      "t": 190634.77499999982,
      "d": 335.2244791666744,
      "v": 123
    },
    {
      "midi": 65,
      "hit": false,
      "t": 190634.77499999982,
      "d": 335.2244791666744,
      "v": 117
    },
    {
      "midi": 69,
      "hit": false,
      "t": 190634.77499999982,
      "d": 335.2244791666744,
      "v": 112
    },
    {
      "midi": 60,
      "hit": false,
      "t": 191316.58749999982,
      "d": 335.2244791666744,
      "v": 117
    },
    {
      "midi": 65,
      "hit": false,
      "t": 191316.58749999982,
      "d": 335.2244791666744,
      "v": 123
    },
    {
      "midi": 69,
      "hit": false,
      "t": 191316.58749999982,
      "d": 335.2244791666744,
      "v": 117
    },
    {
      "midi": 60,
      "hit": false,
      "t": 192680.21249999982,
      "d": 335.2244791666744,
      "v": 123
    },
    {
      "midi": 65,
      "hit": false,
      "t": 192680.21249999982,
      "d": 335.2244791666744,
      "v": 123
    },
    {
      "midi": 69,
      "hit": false,
      "t": 192680.21249999982,
      "d": 335.2244791666744,
      "v": 112
    },
    {
      "midi": 60,
      "hit": false,
      "t": 193362.02499999982,
      "d": 335.2244791666744,
      "v": 123
    },
    {
      "midi": 65,
      "hit": false,
      "t": 193362.02499999982,
      "d": 335.2244791666744,
      "v": 123
    },
    {
      "midi": 69,
      "hit": false,
      "t": 193362.02499999982,
      "d": 335.2244791666744,
      "v": 117
    },
    {
      "midi": 60,
      "hit": false,
      "t": 194725.64999999982,
      "d": 335.2244791666744,
      "v": 117
    },
    {
      "midi": 64,
      "hit": false,
      "t": 194725.64999999982,
      "d": 335.2244791666744,
      "v": 123
    },
    {
      "midi": 67,
      "hit": false,
      "t": 194725.64999999982,
      "d": 335.2244791666744,
      "v": 112
    },
    {
      "midi": 60,
      "hit": false,
      "t": 195407.46249999982,
      "d": 335.2244791666744,
      "v": 108
    },
    {
      "midi": 64,
      "hit": false,
      "t": 195407.46249999982,
      "d": 335.2244791666744,
      "v": 112
    },
    {
      "midi": 67,
      "hit": false,
      "t": 195407.46249999982,
      "d": 335.2244791666744,
      "v": 108
    },
    {
      "midi": 60,
      "hit": false,
      "t": 196771.08749999982,
      "d": 335.2244791666744,
      "v": 117
    },
    {
      "midi": 64,
      "hit": false,
      "t": 196771.08749999982,
      "d": 335.2244791666744,
      "v": 117
    },
    {
      "midi": 67,
      "hit": false,
      "t": 196771.08749999982,
      "d": 335.2244791666744,
      "v": 117
    },
    {
      "midi": 64,
      "hit": false,
      "t": 197452.89999999982,
      "d": 335.2244791666744,
      "v": 117
    },
    {
      "midi": 67,
      "hit": false,
      "t": 197452.89999999982,
      "d": 335.2244791666744,
      "v": 112
    },
    {
      "midi": 60,
      "hit": false,
      "t": 197452.89999999982,
      "d": 5448.818229166674,
      "v": 112
    },
    {
      "midi": 59,
      "hit": false,
      "t": 198816.52499999982,
      "d": 335.2244791666744,
      "v": 123
    },
    {
      "midi": 67,
      "hit": false,
      "t": 198816.52499999982,
      "d": 335.2244791666744,
      "v": 112
    },
    {
      "midi": 59,
      "hit": false,
      "t": 199498.33749999982,
      "d": 335.2244791666744,
      "v": 112
    },
    {
      "midi": 67,
      "hit": false,
      "t": 199498.33749999982,
      "d": 335.2244791666744,
      "v": 123
    },
    {
      "midi": 59,
      "hit": false,
      "t": 200861.96249999982,
      "d": 335.2244791666744,
      "v": 123
    },
    {
      "midi": 67,
      "hit": false,
      "t": 200861.96249999982,
      "d": 335.2244791666744,
      "v": 117
    },
    {
      "midi": 59,
      "hit": false,
      "t": 201543.77499999982,
      "d": 335.2244791666744,
      "v": 108
    },
    {
      "midi": 67,
      "hit": false,
      "t": 201543.77499999982,
      "d": 335.2244791666744,
      "v": 117
    },
    {
      "midi": 60,
      "hit": false,
      "t": 202907.39999999982,
      "d": 335.2244791666744,
      "v": 103
    },
    {
      "midi": 64,
      "hit": false,
      "t": 202907.39999999982,
      "d": 335.2244791666744,
      "v": 112
    },
    {
      "midi": 67,
      "hit": false,
      "t": 202907.39999999982,
      "d": 335.2244791666744,
      "v": 108
    },
    {
      "midi": 60,
      "hit": false,
      "t": 203589.21249999982,
      "d": 335.2244791666744,
      "v": 112
    },
    {
      "midi": 64,
      "hit": false,
      "t": 203589.21249999982,
      "d": 335.2244791666744,
      "v": 108
    },
    {
      "midi": 67,
      "hit": false,
      "t": 203589.21249999982,
      "d": 335.2244791666744,
      "v": 117
    },
    {
      "midi": 60,
      "hit": false,
      "t": 204952.83749999982,
      "d": 335.2244791666744,
      "v": 108
    },
    {
      "midi": 64,
      "hit": false,
      "t": 204952.83749999982,
      "d": 335.2244791666744,
      "v": 112
    },
    {
      "midi": 67,
      "hit": false,
      "t": 204952.83749999982,
      "d": 335.2244791666744,
      "v": 108
    },
    {
      "midi": 60,
      "hit": false,
      "t": 205634.64999999982,
      "d": 335.2244791666744,
      "v": 99
    },
    {
      "midi": 64,
      "hit": false,
      "t": 205634.64999999982,
      "d": 335.2244791666744,
      "v": 117
    },
    {
      "midi": 60,
      "hit": false,
      "t": 206998.27499999982,
      "d": 335.2244791666744,
      "v": 123
    },
    {
      "midi": 64,
      "hit": false,
      "t": 206998.27499999982,
      "d": 335.2244791666744,
      "v": 117
    },
    {
      "midi": 67,
      "hit": false,
      "t": 206998.27499999982,
      "d": 335.2244791666744,
      "v": 117
    },
    {
      "midi": 60,
      "hit": false,
      "t": 207680.08749999982,
      "d": 335.2244791666744,
      "v": 103
    },
    {
      "midi": 64,
      "hit": false,
      "t": 207680.08749999982,
      "d": 335.2244791666744,
      "v": 108
    },
    {
      "midi": 67,
      "hit": false,
      "t": 207680.08749999982,
      "d": 335.2244791666744,
      "v": 99
    },
    {
      "midi": 59,
      "hit": false,
      "t": 209043.71249999982,
      "d": 335.2244791666744,
      "v": 112
    },
    {
      "midi": 62,
      "hit": false,
      "t": 209043.71249999982,
      "d": 335.2244791666744,
      "v": 117
    },
    {
      "midi": 67,
      "hit": false,
      "t": 209043.71249999982,
      "d": 335.2244791666744,
      "v": 117
    },
    {
      "midi": 59,
      "hit": false,
      "t": 209725.52499999982,
      "d": 335.2244791666744,
      "v": 103
    },
    {
      "midi": 62,
      "hit": false,
      "t": 209725.52499999982,
      "d": 335.2244791666744,
      "v": 112
    },
    {
      "midi": 67,
      "hit": false,
      "t": 209725.52499999982,
      "d": 335.2244791666744,
      "v": 112
    },
    {
      "midi": 60,
      "hit": false,
      "t": 211089.14999999982,
      "d": 335.2244791666744,
      "v": 103
    },
    {
      "midi": 64,
      "hit": false,
      "t": 211089.14999999982,
      "d": 335.2244791666744,
      "v": 112
    },
    {
      "midi": 67,
      "hit": false,
      "t": 211089.14999999982,
      "d": 335.2244791666744,
      "v": 112
    },
    {
      "midi": 60,
      "hit": false,
      "t": 211770.96249999982,
      "d": 335.2244791666744,
      "v": 86
    },
    {
      "midi": 64,
      "hit": false,
      "t": 211770.96249999982,
      "d": 335.2244791666744,
      "v": 103
    },
    {
      "midi": 67,
      "hit": false,
      "t": 211770.96249999982,
      "d": 335.2244791666744,
      "v": 112
    },
    {
      "midi": 60,
      "hit": false,
      "t": 212111.86874999982,
      "d": 335.2244791666744,
      "v": 82
    },
    {
      "midi": 64,
      "hit": false,
      "t": 212111.86874999982,
      "d": 335.2244791666744,
      "v": 95
    },
    {
      "midi": 67,
      "hit": false,
      "t": 212452.77499999982,
      "d": 335.2244791666744,
      "v": 108
    },
    {
      "midi": 69,
      "hit": false,
      "t": 212452.77499999982,
      "d": 335.2244791666744,
      "v": 66
    },
    {
      "midi": 72,
      "hit": false,
      "t": 212452.77499999982,
      "d": 335.2244791666744,
      "v": 112
    },
    {
      "midi": 60,
      "hit": false,
      "t": 215180.02499999982,
      "d": 335.2244791666744,
      "v": 103
    },
    {
      "midi": 64,
      "hit": false,
      "t": 215180.02499999982,
      "d": 335.2244791666744,
      "v": 108
    },
    {
      "midi": 67,
      "hit": false,
      "t": 215180.02499999982,
      "d": 335.2244791666744,
      "v": 103
    },
    {
      "midi": 60,
      "hit": false,
      "t": 215861.83749999982,
      "d": 335.2244791666744,
      "v": 103
    },
    {
      "midi": 64,
      "hit": false,
      "t": 215861.83749999982,
      "d": 335.2244791666744,
      "v": 112
    },
    {
      "midi": 67,
      "hit": false,
      "t": 215861.83749999982,
      "d": 335.2244791666744,
      "v": 112
    },
    {
      "midi": 60,
      "hit": false,
      "t": 217225.46249999982,
      "d": 335.2244791666744,
      "v": 112
    },
    {
      "midi": 64,
      "hit": false,
      "t": 217225.46249999982,
      "d": 335.2244791666744,
      "v": 112
    },
    {
      "midi": 67,
      "hit": false,
      "t": 217225.46249999982,
      "d": 335.2244791666744,
      "v": 117
    },
    {
      "midi": 60,
      "hit": false,
      "t": 217907.27499999982,
      "d": 335.2244791666744,
      "v": 108
    },
    {
      "midi": 64,
      "hit": false,
      "t": 217907.27499999982,
      "d": 335.2244791666744,
      "v": 112
    },
    {
      "midi": 67,
      "hit": false,
      "t": 217907.27499999982,
      "d": 335.2244791666744,
      "v": 108
    },
    {
      "midi": 60,
      "hit": false,
      "t": 219270.89999999982,
      "d": 335.2244791666744,
      "v": 112
    },
    {
      "midi": 64,
      "hit": false,
      "t": 219270.89999999982,
      "d": 335.2244791666744,
      "v": 117
    },
    {
      "midi": 67,
      "hit": false,
      "t": 219270.89999999982,
      "d": 335.2244791666744,
      "v": 117
    },
    {
      "midi": 60,
      "hit": false,
      "t": 219952.71249999982,
      "d": 335.2244791666744,
      "v": 95
    },
    {
      "midi": 64,
      "hit": false,
      "t": 219952.71249999982,
      "d": 335.2244791666744,
      "v": 108
    },
    {
      "midi": 67,
      "hit": false,
      "t": 219952.71249999982,
      "d": 335.2244791666744,
      "v": 103
    },
    {
      "midi": 60,
      "hit": false,
      "t": 221316.33749999982,
      "d": 335.2244791666744,
      "v": 112
    },
    {
      "midi": 64,
      "hit": false,
      "t": 221316.33749999982,
      "d": 335.2244791666744,
      "v": 108
    },
    {
      "midi": 67,
      "hit": false,
      "t": 221316.33749999982,
      "d": 335.2244791666744,
      "v": 112
    },
    {
      "midi": 60,
      "hit": false,
      "t": 221998.14999999982,
      "d": 335.2244791666744,
      "v": 117
    },
    {
      "midi": 64,
      "hit": false,
      "t": 221998.14999999982,
      "d": 335.2244791666744,
      "v": 117
    },
    {
      "midi": 67,
      "hit": false,
      "t": 221998.14999999982,
      "d": 335.2244791666744,
      "v": 108
    },
    {
      "midi": 59,
      "hit": false,
      "t": 223361.77499999982,
      "d": 335.2244791666744,
      "v": 112
    },
    {
      "midi": 62,
      "hit": false,
      "t": 223361.77499999982,
      "d": 335.2244791666744,
      "v": 117
    },
    {
      "midi": 67,
      "hit": false,
      "t": 223361.77499999982,
      "d": 335.2244791666744,
      "v": 103
    },
    {
      "midi": 59,
      "hit": false,
      "t": 224043.58749999982,
      "d": 335.2244791666744,
      "v": 112
    },
    {
      "midi": 62,
      "hit": false,
      "t": 224043.58749999982,
      "d": 335.2244791666744,
      "v": 108
    },
    {
      "midi": 67,
      "hit": false,
      "t": 224043.58749999982,
      "d": 335.2244791666744,
      "v": 108
    },
    {
      "midi": 59,
      "hit": false,
      "t": 225407.21249999982,
      "d": 335.2244791666744,
      "v": 103
    },
    {
      "midi": 62,
      "hit": false,
      "t": 225407.21249999982,
      "d": 335.2244791666744,
      "v": 112
    },
    {
      "midi": 67,
      "hit": false,
      "t": 225407.21249999982,
      "d": 335.2244791666744,
      "v": 103
    },
    {
      "midi": 59,
      "hit": false,
      "t": 226089.02499999982,
      "d": 335.2244791666744,
      "v": 108
    },
    {
      "midi": 62,
      "hit": false,
      "t": 226089.02499999982,
      "d": 335.2244791666744,
      "v": 117
    },
    {
      "midi": 67,
      "hit": false,
      "t": 226089.02499999982,
      "d": 335.2244791666744,
      "v": 108
    },
    {
      "midi": 60,
      "hit": false,
      "t": 227452.64999999982,
      "d": 335.2244791666744,
      "v": 90
    },
    {
      "midi": 64,
      "hit": false,
      "t": 227452.64999999982,
      "d": 335.2244791666744,
      "v": 103
    },
    {
      "midi": 67,
      "hit": false,
      "t": 227452.64999999982,
      "d": 335.2244791666744,
      "v": 99
    },
    {
      "midi": 60,
      "hit": false,
      "t": 228134.46249999982,
      "d": 335.2244791666744,
      "v": 103
    },
    {
      "midi": 64,
      "hit": false,
      "t": 228134.46249999982,
      "d": 335.2244791666744,
      "v": 117
    },
    {
      "midi": 67,
      "hit": false,
      "t": 228134.46249999982,
      "d": 335.2244791666744,
      "v": 117
    },
    {
      "midi": 60,
      "hit": false,
      "t": 229498.08749999982,
      "d": 335.2244791666744,
      "v": 117
    },
    {
      "midi": 64,
      "hit": false,
      "t": 229498.08749999982,
      "d": 335.2244791666744,
      "v": 117
    },
    {
      "midi": 67,
      "hit": false,
      "t": 229498.08749999982,
      "d": 335.2244791666744,
      "v": 117
    },
    {
      "midi": 60,
      "hit": false,
      "t": 230179.89999999982,
      "d": 335.2244791666744,
      "v": 117
    },
    {
      "midi": 64,
      "hit": false,
      "t": 230179.89999999982,
      "d": 335.2244791666744,
      "v": 117
    },
    {
      "midi": 67,
      "hit": false,
      "t": 230179.89999999982,
      "d": 335.2244791666744,
      "v": 117
    },
    {
      "midi": 60,
      "hit": false,
      "t": 231543.52499999982,
      "d": 335.2244791666744,
      "v": 112
    },
    {
      "midi": 65,
      "hit": false,
      "t": 231543.52499999982,
      "d": 335.2244791666744,
      "v": 112
    },
    {
      "midi": 69,
      "hit": false,
      "t": 231543.52499999982,
      "d": 335.2244791666744,
      "v": 108
    },
    {
      "midi": 60,
      "hit": false,
      "t": 232225.33749999982,
      "d": 335.2244791666744,
      "v": 112
    },
    {
      "midi": 65,
      "hit": false,
      "t": 232225.33749999982,
      "d": 335.2244791666744,
      "v": 117
    },
    {
      "midi": 69,
      "hit": false,
      "t": 232225.33749999982,
      "d": 335.2244791666744,
      "v": 112
    },
    {
      "midi": 60,
      "hit": false,
      "t": 233588.96249999982,
      "d": 335.2244791666744,
      "v": 108
    },
    {
      "midi": 65,
      "hit": false,
      "t": 233588.96249999982,
      "d": 335.2244791666744,
      "v": 112
    },
    {
      "midi": 69,
      "hit": false,
      "t": 233588.96249999982,
      "d": 335.2244791666744,
      "v": 103
    },
    {
      "midi": 60,
      "hit": false,
      "t": 234270.77499999982,
      "d": 335.2244791666744,
      "v": 112
    },
    {
      "midi": 65,
      "hit": false,
      "t": 234270.77499999982,
      "d": 335.2244791666744,
      "v": 112
    },
    {
      "midi": 69,
      "hit": false,
      "t": 234270.77499999982,
      "d": 335.2244791666744,
      "v": 108
    },
    {
      "midi": 60,
      "hit": false,
      "t": 235634.39999999982,
      "d": 335.2244791666744,
      "v": 99
    },
    {
      "midi": 64,
      "hit": false,
      "t": 235634.39999999982,
      "d": 335.2244791666744,
      "v": 112
    },
    {
      "midi": 67,
      "hit": false,
      "t": 235634.39999999982,
      "d": 335.2244791666744,
      "v": 99
    },
    {
      "midi": 60,
      "hit": false,
      "t": 236316.21249999982,
      "d": 335.2244791666744,
      "v": 99
    },
    {
      "midi": 64,
      "hit": false,
      "t": 236316.21249999982,
      "d": 335.2244791666744,
      "v": 112
    },
    {
      "midi": 67,
      "hit": false,
      "t": 236316.21249999982,
      "d": 335.2244791666744,
      "v": 103
    },
    {
      "midi": 60,
      "hit": false,
      "t": 237679.83749999982,
      "d": 676.1307291666744,
      "v": 112
    },
    {
      "midi": 64,
      "hit": false,
      "t": 237679.83749999982,
      "d": 676.1307291666744,
      "v": 112
    },
    {
      "midi": 64,
      "hit": false,
      "t": 238361.64999999982,
      "d": 676.1307291666744,
      "v": 123
    },
    {
      "midi": 67,
      "hit": false,
      "t": 238361.64999999982,
      "d": 676.1307291666744,
      "v": 108
    },
    {
      "midi": 60,
      "hit": false,
      "t": 239725.27499999982,
      "d": 335.2244791666744,
      "v": 123
    },
    {
      "midi": 65,
      "hit": false,
      "t": 239725.27499999982,
      "d": 335.2244791666744,
      "v": 112
    },
    {
      "midi": 69,
      "hit": false,
      "t": 239725.27499999982,
      "d": 335.2244791666744,
      "v": 117
    },
    {
      "midi": 60,
      "hit": false,
      "t": 240407.08749999982,
      "d": 335.2244791666744,
      "v": 99
    },
    {
      "midi": 65,
      "hit": false,
      "t": 240407.08749999982,
      "d": 335.2244791666744,
      "v": 108
    },
    {
      "midi": 69,
      "hit": false,
      "t": 240407.08749999982,
      "d": 335.2244791666744,
      "v": 103
    },
    {
      "midi": 60,
      "hit": false,
      "t": 241770.71249999982,
      "d": 335.2244791666744,
      "v": 123
    },
    {
      "midi": 65,
      "hit": false,
      "t": 241770.71249999982,
      "d": 335.2244791666744,
      "v": 117
    },
    {
      "midi": 69,
      "hit": false,
      "t": 241770.71249999982,
      "d": 335.2244791666744,
      "v": 117
    },
    {
      "midi": 60,
      "hit": false,
      "t": 242452.52499999982,
      "d": 335.2244791666744,
      "v": 117
    },
    {
      "midi": 65,
      "hit": false,
      "t": 242452.52499999982,
      "d": 335.2244791666744,
      "v": 117
    },
    {
      "midi": 69,
      "hit": false,
      "t": 242452.52499999982,
      "d": 335.2244791666744,
      "v": 117
    },
    {
      "midi": 60,
      "hit": false,
      "t": 243816.14999999982,
      "d": 335.2244791666744,
      "v": 117
    },
    {
      "midi": 64,
      "hit": false,
      "t": 243816.14999999982,
      "d": 335.2244791666744,
      "v": 117
    },
    {
      "midi": 67,
      "hit": false,
      "t": 243816.14999999982,
      "d": 335.2244791666744,
      "v": 112
    },
    {
      "midi": 60,
      "hit": false,
      "t": 244497.96249999982,
      "d": 335.2244791666744,
      "v": 117
    },
    {
      "midi": 64,
      "hit": false,
      "t": 244497.96249999982,
      "d": 335.2244791666744,
      "v": 117
    },
    {
      "midi": 67,
      "hit": false,
      "t": 244497.96249999982,
      "d": 335.2244791666744,
      "v": 117
    },
    {
      "midi": 60,
      "hit": false,
      "t": 245861.58749999982,
      "d": 335.2244791666744,
      "v": 117
    },
    {
      "midi": 64,
      "hit": false,
      "t": 245861.58749999982,
      "d": 335.2244791666744,
      "v": 117
    },
    {
      "midi": 67,
      "hit": false,
      "t": 245861.58749999982,
      "d": 335.2244791666744,
      "v": 112
    },
    {
      "midi": 60,
      "hit": false,
      "t": 246543.39999999982,
      "d": 335.2244791666744,
      "v": 108
    },
    {
      "midi": 64,
      "hit": false,
      "t": 246543.39999999982,
      "d": 335.2244791666744,
      "v": 117
    },
    {
      "midi": 67,
      "hit": false,
      "t": 246543.39999999982,
      "d": 335.2244791666744,
      "v": 108
    },
    {
      "midi": 59,
      "hit": false,
      "t": 247907.02499999982,
      "d": 335.2244791666744,
      "v": 117
    },
    {
      "midi": 62,
      "hit": false,
      "t": 247907.02499999982,
      "d": 335.2244791666744,
      "v": 95
    },
    {
      "midi": 67,
      "hit": false,
      "t": 247907.02499999982,
      "d": 335.2244791666744,
      "v": 112
    },
    {
      "midi": 59,
      "hit": false,
      "t": 248588.83749999982,
      "d": 335.2244791666744,
      "v": 123
    },
    {
      "midi": 67,
      "hit": false,
      "t": 248588.83749999982,
      "d": 335.2244791666744,
      "v": 112
    },
    {
      "midi": 59,
      "hit": false,
      "t": 249952.46249999982,
      "d": 335.2244791666744,
      "v": 117
    },
    {
      "midi": 67,
      "hit": false,
      "t": 249952.46249999982,
      "d": 335.2244791666744,
      "v": 112
    },
    {
      "midi": 59,
      "hit": false,
      "t": 250634.27499999982,
      "d": 335.2244791666744,
      "v": 112
    },
    {
      "midi": 67,
      "hit": false,
      "t": 250634.27499999982,
      "d": 335.2244791666744,
      "v": 108
    },
    {
      "midi": 60,
      "hit": false,
      "t": 251997.89999999982,
      "d": 335.2244791666744,
      "v": 117
    },
    {
      "midi": 67,
      "hit": false,
      "t": 251997.89999999982,
      "d": 335.2244791666744,
      "v": 112
    },
    {
      "midi": 62,
      "hit": false,
      "t": 252679.71249999982,
      "d": 335.2244791666744,
      "v": 123
    },
    {
      "midi": 67,
      "hit": false,
      "t": 252679.71249999982,
      "d": 1357.9432291666744,
      "v": 108
    },
    {
      "midi": 64,
      "hit": false,
      "t": 254043.33749999982,
      "d": 335.2244791666744,
      "v": 117
    },
    {
      "midi": 67,
      "hit": false,
      "t": 254043.33749999982,
      "d": 335.2244791666744,
      "v": 108
    },
    {
      "midi": 64,
      "hit": false,
      "t": 254725.14999999982,
      "d": 335.2244791666744,
      "v": 117
    },
    {
      "midi": 67,
      "hit": false,
      "t": 254725.14999999982,
      "d": 335.2244791666744,
      "v": 108
    },
    {
      "midi": 60,
      "hit": false,
      "t": 256088.77499999982,
      "d": 335.2244791666744,
      "v": 95
    },
    {
      "midi": 64,
      "hit": false,
      "t": 256088.77499999982,
      "d": 335.2244791666744,
      "v": 112
    },
    {
      "midi": 67,
      "hit": false,
      "t": 256088.77499999982,
      "d": 335.2244791666744,
      "v": 112
    },
    {
      "midi": 60,
      "hit": false,
      "t": 256770.58749999982,
      "d": 335.2244791666744,
      "v": 99
    },
    {
      "midi": 64,
      "hit": false,
      "t": 256770.58749999982,
      "d": 335.2244791666744,
      "v": 108
    },
    {
      "midi": 67,
      "hit": false,
      "t": 256770.58749999982,
      "d": 335.2244791666744,
      "v": 103
    },
    {
      "midi": 59,
      "hit": false,
      "t": 258134.21249999982,
      "d": 335.2244791666744,
      "v": 78
    },
    {
      "midi": 62,
      "hit": false,
      "t": 258134.21249999982,
      "d": 335.2244791666744,
      "v": 103
    },
    {
      "midi": 67,
      "hit": false,
      "t": 258134.21249999982,
      "d": 335.2244791666744,
      "v": 103
    },
    {
      "midi": 59,
      "hit": false,
      "t": 258816.02499999982,
      "d": 335.2244791666744,
      "v": 86
    },
    {
      "midi": 62,
      "hit": false,
      "t": 258816.02499999982,
      "d": 335.2244791666744,
      "v": 112
    },
    {
      "midi": 67,
      "hit": false,
      "t": 258816.02499999982,
      "d": 335.2244791666744,
      "v": 103
    },
    {
      "midi": 60,
      "hit": false,
      "t": 260179.64999999982,
      "d": 335.2244791666744,
      "v": 99
    },
    {
      "midi": 64,
      "hit": false,
      "t": 260179.64999999982,
      "d": 335.2244791666744,
      "v": 117
    },
    {
      "midi": 67,
      "hit": false,
      "t": 260179.64999999982,
      "d": 335.2244791666744,
      "v": 99
    },
    {
      "midi": 60,
      "hit": false,
      "t": 260861.46249999982,
      "d": 335.2244791666744,
      "v": 82
    },
    {
      "midi": 64,
      "hit": false,
      "t": 260861.46249999982,
      "d": 335.2244791666744,
      "v": 103
    },
    {
      "midi": 67,
      "hit": false,
      "t": 260861.46249999982,
      "d": 335.2244791666744,
      "v": 103
    },
    {
      "midi": 60,
      "hit": false,
      "t": 261543.27499999982,
      "d": 335.2244791666744,
      "v": 86
    },
    {
      "midi": 64,
      "hit": false,
      "t": 261543.27499999982,
      "d": 335.2244791666744,
      "v": 99
    },
    {
      "midi": 67,
      "hit": false,
      "t": 261543.27499999982,
      "d": 335.2244791666744,
      "v": 95
    },
    {
      "midi": 60,
      "hit": false,
      "t": 262270.5416666665,
      "d": 198.86197916668607,
      "v": 86
    },
    {
      "midi": 64,
      "hit": false,
      "t": 262281.90520833316,
      "d": 238.63437500002328,
      "v": 90
    },
    {
      "midi": 67,
      "hit": false,
      "t": 262304.6322916665,
      "d": 227.27083333331393,
      "v": 82
    },
    {
      "midi": 64,
      "hit": false,
      "t": 262906.89999999985,
      "d": 73.86302083334886,
      "v": 90
    },
    {
      "midi": 67,
      "hit": false,
      "t": 262906.89999999985,
      "d": 96.59010416670935,
      "v": 82
    },
    {
      "midi": 60,
      "hit": false,
      "t": 262918.2635416665,
      "d": 39.772395833337214,
      "v": 72
    },
    {
      "midi": 79,
      "hit": false,
      "t": 263617.12135416653,
      "d": 124.99895833333721,
      "v": 123
    },
    {
      "midi": 76,
      "hit": false,
      "t": 264617.11302083323,
      "d": 136.36249999998836,
      "v": 112
    },
    {
      "midi": 72,
      "hit": false,
      "t": 264992.10989583324,
      "d": 136.36249999998836,
      "v": 123
    },
    {
      "midi": 74,
      "hit": false,
      "t": 265668.2406249999,
      "d": 164.77135416667443,
      "v": 103
    },
    {
      "midi": 71,
      "hit": false,
      "t": 266355.73489583324,
      "d": 147.7260416666395,
      "v": 117
    },
    {
      "midi": 65,
      "hit": false,
      "t": 267065.9562499999,
      "d": 142.04427083331393,
      "v": 117
    },
    {
      "midi": 64,
      "hit": false,
      "t": 267656.8604166665,
      "d": 124.99895833333721,
      "v": 86
    },
    {
      "midi": 48,
      "hit": false,
      "t": 267679.58749999985,
      "d": 3062.4744791665,
      "v": 95
    },
    {
      "midi": 67,
      "hit": false,
      "t": 267719.3598958332,
      "d": 147.7260416666395,
      "v": 108
    },
    {
      "midi": 72,
      "hit": false,
      "t": 267815.94999999984,
      "d": 187.49843749997672,
      "v": 123
    },
    {
      "midi": 60,
      "hit": false,
      "t": 268242.08281249984,
      "d": 2511.3427083331626,
      "v": 70
    },
    {
      "midi": 72,
      "hit": false,
      "t": 268543.2166666665,
      "d": 124.99895833333721,
      "v": 112
    },
    {
      "midi": 76,
      "hit": false,
      "t": 268815.9416666665,
      "d": 102.27187499997672,
      "v": 112
    },
    {
      "midi": 79,
      "hit": false,
      "t": 269190.93854166643,
      "d": 102.27187499997672,
      "v": 103
    },
    {
      "midi": 79,
      "hit": false,
      "t": 269730.70677083306,
      "d": 124.99895833333721,
      "v": 82
    },
    {
      "midi": 84,
      "hit": false,
      "t": 269815.93333333306,
      "d": 102.27187499997672,
      "v": 103
    }
  ]
}