{
  "jsonPath": "Unknown/Unknown/Walter Griziotti/una-storia-importante.json",
  "path": "Unknown\\Unknown\\Walter Griziotti\\Una Storia Importante.mid",
  "name": "Una Storia Importante",
  "difficulty": "Intermediate",
  "bpm": 128,
  "notes": [
    {
      "midi": 58,
      "hit": false,
      "t": 1875,
      "d": 1669.921875,
      "v": 47
    },
    {
      "midi": 61,
      "hit": false,
      "t": 1875,
      "d": 1669.921875,
      "v": 47
    },
    {
      "midi": 65,
      "hit": false,
      "t": 1875,
      "d": 1669.921875,
      "v": 47
    },
    {
      "midi": 56,
      "hit": false,
      "t": 3750,
      "d": 1669.921875,
      "v": 47
    },
    {
      "midi": 61,
      "hit": false,
      "t": 3750,
      "d": 1669.921875,
      "v": 47
    },
    {
      "midi": 65,
      "hit": false,
      "t": 3750,
      "d": 1669.921875,
      "v": 47
    },
    {
      "midi": 58,
      "hit": false,
      "t": 5625,
      "d": 3339.84375,
      "v": 47
    },
    {
      "midi": 60,
      "hit": false,
      "t": 5625,
      "d": 3339.84375,
      "v": 47
    },
    {
      "midi": 63,
      "hit": false,
      "t": 5625,
      "d": 3339.84375,
      "v": 47
    },
    {
      "midi": 58,
      "hit": false,
      "t": 9375,
      "d": 1669.921875,
      "v": 47
    },
    {
      "midi": 61,
      "hit": false,
      "t": 9375,
      "d": 1669.921875,
      "v": 47
    },
    {
      "midi": 65,
      "hit": false,
      "t": 9375,
      "d": 1669.921875,
      "v": 47
    },
    {
      "midi": 56,
      "hit": false,
      "t": 11250,
      "d": 1669.921875,
      "v": 47
    },
    {
      "midi": 61,
      "hit": false,
      "t": 11250,
      "d": 1669.921875,
      "v": 47
    },
    {
      "midi": 65,
      "hit": false,
      "t": 11250,
      "d": 1669.921875,
      "v": 47
    },
    {
      "midi": 58,
      "hit": false,
      "t": 13125,
      "d": 3339.84375,
      "v": 47
    },
    {
      "midi": 60,
      "hit": false,
      "t": 13125,
      "d": 3339.84375,
      "v": 47
    },
    {
      "midi": 63,
      "hit": false,
      "t": 13125,
      "d": 3339.84375,
      "v": 47
    },
    {
      "midi": 46,
      "hit": false,
      "t": 16875,
      "d": 3710.9375,
      "v": 40
    },
    {
      "midi": 58,
      "hit": false,
      "t": 16875,
      "d": 3710.9375,
      "v": 47
    },
    {
      "midi": 61,
      "hit": false,
      "t": 16875,
      "d": 3710.9375,
      "v": 47
    },
    {
      "midi": 65,
      "hit": false,
      "t": 16875,
      "d": 3710.9375,
      "v": 47
    },
    {
      "midi": 56,
      "hit": false,
      "t": 18750,
      "d": 5566.40625,
      "v": 38
    },
    {
      "midi": 44,
      "hit": false,
      "t": 20625,
      "d": 3710.9375,
      "v": 35
    },
    {
      "midi": 58,
      "hit": false,
      "t": 20625,
      "d": 3710.9375,
      "v": 42
    },
    {
      "midi": 60,
      "hit": false,
      "t": 20625,
      "d": 3710.9375,
      "v": 42
    },
    {
      "midi": 63,
      "hit": false,
      "t": 20625,
      "d": 3710.9375,
      "v": 42
    },
    {
      "midi": 58,
      "hit": false,
      "t": 24375,
      "d": 1855.46875,
      "v": 47
    },
    {
      "midi": 61,
      "hit": false,
      "t": 24375,
      "d": 1855.46875,
      "v": 47
    },
    {
      "midi": 46,
      "hit": false,
      "t": 24375,
      "d": 3710.9375,
      "v": 40
    },
    {
      "midi": 65,
      "hit": false,
      "t": 24375,
      "d": 3710.9375,
      "v": 47
    },
    {
      "midi": 58,
      "hit": false,
      "t": 26250,
      "d": 1855.46875,
      "v": 38
    },
    {
      "midi": 61,
      "hit": false,
      "t": 26250,
      "d": 1855.46875,
      "v": 38
    },
    {
      "midi": 56,
      "hit": false,
      "t": 26250,
      "d": 5566.40625,
      "v": 38
    },
    {
      "midi": 44,
      "hit": false,
      "t": 28125,
      "d": 3710.9375,
      "v": 35
    },
    {
      "midi": 58,
      "hit": false,
      "t": 28125,
      "d": 3710.9375,
      "v": 42
    },
    {
      "midi": 60,
      "hit": false,
      "t": 28125,
      "d": 3710.9375,
      "v": 42
    },
    {
      "midi": 63,
      "hit": false,
      "t": 28125,
      "d": 3710.9375,
      "v": 42
    },
    {
      "midi": 53,
      "hit": false,
      "t": 35625,
      "d": 3413.0859375,
      "v": 20
    },
    {
      "midi": 61,
      "hit": false,
      "t": 35625,
      "d": 3413.0859375,
      "v": 27
    },
    {
      "midi": 65,
      "hit": false,
      "t": 35625,
      "d": 3432.6171875,
      "v": 25
    },
    {
      "midi": 46,
      "hit": false,
      "t": 35625,
      "d": 3710.9375,
      "v": 21
    },
    {
      "midi": 46,
      "hit": false,
      "t": 43125,
      "d": 693.359375,
      "v": 55
    },
    {
      "midi": 53,
      "hit": false,
      "t": 43125,
      "d": 693.359375,
      "v": 55
    },
    {
      "midi": 58,
      "hit": false,
      "t": 43125,
      "d": 693.359375,
      "v": 55
    },
    {
      "midi": 44,
      "hit": false,
      "t": 43828.125,
      "d": 693.359375,
      "v": 55
    },
    {
      "midi": 51,
      "hit": false,
      "t": 43828.125,
      "d": 693.359375,
      "v": 55
    },
    {
      "midi": 56,
      "hit": false,
      "t": 43828.125,
      "d": 693.359375,
      "v": 55
    },
    {
      "midi": 42,
      "hit": false,
      "t": 44531.25,
      "d": 2338.8671875,
      "v": 50
    },
    {
      "midi": 53,
      "hit": false,
      "t": 44531.25,
      "d": 2338.8671875,
      "v": 55
    },
    {
      "midi": 58,
      "hit": false,
      "t": 44531.25,
      "d": 2338.8671875,
      "v": 55
    },
    {
      "midi": 46,
      "hit": false,
      "t": 73125,
      "d": 693.359375,
      "v": 55
    },
    {
      "midi": 53,
      "hit": false,
      "t": 73125,
      "d": 693.359375,
      "v": 55
    },
    {
      "midi": 58,
      "hit": false,
      "t": 73125,
      "d": 693.359375,
      "v": 55
    },
    {
      "midi": 44,
      "hit": false,
      "t": 73828.125,
      "d": 693.359375,
      "v": 55
    },
    {
      "midi": 51,
      "hit": false,
      "t": 73828.125,
      "d": 693.359375,
      "v": 55
    },
    {
      "midi": 56,
      "hit": false,
      "t": 73828.125,
      "d": 693.359375,
      "v": 55
    },
    {
      "midi": 53,
      "hit": false,
      "t": 74531.25,
      "d": 2338.8671875,
      "v": 55
    },
    {
      "midi": 58,
      "hit": false,
      "t": 74531.25,
      "d": 2338.8671875,
      "v": 55
    },
    {
      "midi": 42,
      "hit": false,
      "t": 74531.25,
      "d": 5566.40625,
      "v": 50
    }
  ]
}