{
  "jsonPath": "Rock/Dance Rock/Simply Red/for-your-babies.json",
  "path": "Rock\\Dance Rock\\Simply Red\\For Your Babies.mid",
  "name": "For Your Babies",
  "difficulty": "Intermediate",
  "bpm": 97.00010993345792,
  "notes": [
    {
      "midi": 52,
      "hit": false,
      "t": 4800,
      "d": 4800,
      "v": 126
    },
    {
      "midi": 57,
      "hit": false,
      "t": 4800,
      "d": 4800,
      "v": 120
    },
    {
      "midi": 59,
      "hit": false,
      "t": 4800,
      "d": 4800,
      "v": 115
    },
    {
      "midi": 61,
      "hit": false,
      "t": 4800,
      "d": 4800,
      "v": 127
    },
    {
      "midi": 52,
      "hit": false,
      "t": 9600,
      "d": 4800,
      "v": 126
    },
    {
      "midi": 56,
      "hit": false,
      "t": 9600,
      "d": 4800,
      "v": 125
    },
    {
      "midi": 59,
      "hit": false,
      "t": 9600,
      "d": 4800,
      "v": 126
    },
    {
      "midi": 61,
      "hit": false,
      "t": 9600,
      "d": 4800,
      "v": 116
    },
    {
      "midi": 54,
      "hit": false,
      "t": 14400,
      "d": 4800,
      "v": 121
    },
    {
      "midi": 57,
      "hit": false,
      "t": 14400,
      "d": 4800,
      "v": 120
    },
    {
      "midi": 59,
      "hit": false,
      "t": 14400,
      "d": 4800,
      "v": 122
    },
    {
      "midi": 62,
      "hit": false,
      "t": 14400,
      "d": 4800,
      "v": 117
    },
    {
      "midi": 53,
      "hit": false,
      "t": 19200,
      "d": 4800,
      "v": 127
    },
    {
      "midi": 57,
      "hit": false,
      "t": 19200,
      "d": 4800,
      "v": 123
    },
    {
      "midi": 62,
      "hit": false,
      "t": 19200,
      "d": 4800,
      "v": 124
    },
    {
      "midi": 52,
      "hit": false,
      "t": 24000,
      "d": 4800,
      "v": 124
    },
    {
      "midi": 57,
      "hit": false,
      "t": 24000,
      "d": 4800,
      "v": 125
    },
    {
      "midi": 59,
      "hit": false,
      "t": 24000,
      "d": 4800,
      "v": 116
    },
    {
      "midi": 61,
      "hit": false,
      "t": 24000,
      "d": 4800,
      "v": 117
    },
    {
      "midi": 52,
      "hit": false,
      "t": 28800,
      "d": 4800,
      "v": 110
    },
    {
      "midi": 56,
      "hit": false,
      "t": 28800,
      "d": 4800,
      "v": 121
    },
    {
      "midi": 59,
      "hit": false,
      "t": 28800,
      "d": 4800,
      "v": 114
    },
    {
      "midi": 61,
      "hit": false,
      "t": 28800,
      "d": 4800,
      "v": 109
    },
    {
      "midi": 54,
      "hit": false,
      "t": 33600,
      "d": 4800,
      "v": 109
    },
    {
      "midi": 57,
      "hit": false,
      "t": 33600,
      "d": 4800,
      "v": 108
    },
    {
      "midi": 59,
      "hit": false,
      "t": 33600,
      "d": 4800,
      "v": 112
    },
    {
      "midi": 62,
      "hit": false,
      "t": 33600,
      "d": 4800,
      "v": 122
    },
    {
      "midi": 57,
      "hit": false,
      "t": 38400,
      "d": 1800,
      "v": 119
    },
    {
      "midi": 53,
      "hit": false,
      "t": 38400,
      "d": 4800,
      "v": 127
    },
    {
      "midi": 62,
      "hit": false,
      "t": 38400,
      "d": 4800,
      "v": 127
    },
    {
      "midi": 57,
      "hit": false,
      "t": 40200,
      "d": 1800,
      "v": 127
    },
    {
      "midi": 59,
      "hit": false,
      "t": 42000,
      "d": 1200,
      "v": 114
    },
    {
      "midi": 52,
      "hit": false,
      "t": 43200,
      "d": 4800,
      "v": 116
    },
    {
      "midi": 57,
      "hit": false,
      "t": 43200,
      "d": 4800,
      "v": 119
    },
    {
      "midi": 59,
      "hit": false,
      "t": 43200,
      "d": 4800,
      "v": 111
    },
    {
      "midi": 61,
      "hit": false,
      "t": 43200,
      "d": 4800,
      "v": 109
    },
    {
      "midi": 52,
      "hit": false,
      "t": 48000,
      "d": 4800,
      "v": 123
    },
    {
      "midi": 56,
      "hit": false,
      "t": 48000,
      "d": 4800,
      "v": 122
    },
    {
      "midi": 59,
      "hit": false,
      "t": 48000,
      "d": 4800,
      "v": 119
    },
    {
      "midi": 61,
      "hit": false,
      "t": 48000,
      "d": 4800,
      "v": 113
    },
    {
      "midi": 54,
      "hit": false,
      "t": 52800,
      "d": 4800,
      "v": 125
    },
    {
      "midi": 57,
      "hit": false,
      "t": 52800,
      "d": 4800,
      "v": 112
    },
    {
      "midi": 59,
      "hit": false,
      "t": 52800,
      "d": 4800,
      "v": 108
    },
    {
      "midi": 62,
      "hit": false,
      "t": 52800,
      "d": 4800,
      "v": 114
    },
    {
      "midi": 57,
      "hit": false,
      "t": 57600,
      "d": 1800,
      "v": 127
    },
    {
      "midi": 53,
      "hit": false,
      "t": 57600,
      "d": 4800,
      "v": 110
    },
    {
      "midi": 62,
      "hit": false,
      "t": 57600,
      "d": 4800,
      "v": 119
    },
    {
      "midi": 57,
      "hit": false,
      "t": 59400,
      "d": 1800,
      "v": 113
    },
    {
      "midi": 59,
      "hit": false,
      "t": 61200,
      "d": 1200,
      "v": 118
    },
    {
      "midi": 52,
      "hit": false,
      "t": 62400,
      "d": 4200,
      "v": 123
    },
    {
      "midi": 57,
      "hit": false,
      "t": 62400,
      "d": 4200,
      "v": 123
    },
    {
      "midi": 59,
      "hit": false,
      "t": 62400,
      "d": 4200,
      "v": 123
    },
    {
      "midi": 61,
      "hit": false,
      "t": 62400,
      "d": 4200,
      "v": 115
    },
    {
      "midi": 64,
      "hit": false,
      "t": 63600,
      "d": 3600,
      "v": 114
    },
    {
      "midi": 52,
      "hit": false,
      "t": 66600,
      "d": 5400,
      "v": 115
    },
    {
      "midi": 56,
      "hit": false,
      "t": 66600,
      "d": 5400,
      "v": 115
    },
    {
      "midi": 59,
      "hit": false,
      "t": 66600,
      "d": 5400,
      "v": 120
    },
    {
      "midi": 61,
      "hit": false,
      "t": 66600,
      "d": 5400,
      "v": 124
    },
    {
      "midi": 54,
      "hit": false,
      "t": 72000,
      "d": 4800,
      "v": 119
    },
    {
      "midi": 57,
      "hit": false,
      "t": 72000,
      "d": 4800,
      "v": 114
    },
    {
      "midi": 59,
      "hit": false,
      "t": 72000,
      "d": 4800,
      "v": 118
    },
    {
      "midi": 62,
      "hit": false,
      "t": 72000,
      "d": 4800,
      "v": 122
    },
    {
      "midi": 53,
      "hit": false,
      "t": 76800,
      "d": 4800,
      "v": 115
    },
    {
      "midi": 57,
      "hit": false,
      "t": 76800,
      "d": 4800,
      "v": 118
    },
    {
      "midi": 62,
      "hit": false,
      "t": 76800,
      "d": 4800,
      "v": 120
    },
    {
      "midi": 52,
      "hit": false,
      "t": 81600,
      "d": 4800,
      "v": 110
    },
    {
      "midi": 57,
      "hit": false,
      "t": 81600,
      "d": 4800,
      "v": 124
    },
    {
      "midi": 59,
      "hit": false,
      "t": 81600,
      "d": 4800,
      "v": 112
    },
    {
      "midi": 61,
      "hit": false,
      "t": 81600,
      "d": 4800,
      "v": 125
    },
    {
      "midi": 64,
      "hit": false,
      "t": 82800,
      "d": 3600,
      "v": 121
    },
    {
      "midi": 52,
      "hit": false,
      "t": 86400,
      "d": 4800,
      "v": 111
    },
    {
      "midi": 56,
      "hit": false,
      "t": 86400,
      "d": 4800,
      "v": 110
    },
    {
      "midi": 59,
      "hit": false,
      "t": 86400,
      "d": 4800,
      "v": 124
    },
    {
      "midi": 61,
      "hit": false,
      "t": 86400,
      "d": 4800,
      "v": 122
    },
    {
      "midi": 54,
      "hit": false,
      "t": 91200,
      "d": 4800,
      "v": 115
    },
    {
      "midi": 57,
      "hit": false,
      "t": 91200,
      "d": 4800,
      "v": 118
    },
    {
      "midi": 59,
      "hit": false,
      "t": 91200,
      "d": 4800,
      "v": 117
    },
    {
      "midi": 62,
      "hit": false,
      "t": 91200,
      "d": 4800,
      "v": 114
    },
    {
      "midi": 53,
      "hit": false,
      "t": 96000,
      "d": 4800,
      "v": 113
    },
    {
      "midi": 57,
      "hit": false,
      "t": 96000,
      "d": 4800,
      "v": 125
    },
    {
      "midi": 62,
      "hit": false,
      "t": 96000,
      "d": 4800,
      "v": 110
    },
    {
      "midi": 52,
      "hit": false,
      "t": 100800,
      "d": 4200,
      "v": 121
    },
    {
      "midi": 57,
      "hit": false,
      "t": 100800,
      "d": 4200,
      "v": 114
    },
    {
      "midi": 59,
      "hit": false,
      "t": 100800,
      "d": 4200,
      "v": 108
    },
    {
      "midi": 61,
      "hit": false,
      "t": 100800,
      "d": 4200,
      "v": 112
    },
    {
      "midi": 64,
      "hit": false,
      "t": 102000,
      "d": 3600,
      "v": 122
    },
    {
      "midi": 52,
      "hit": false,
      "t": 105000,
      "d": 5400,
      "v": 127
    },
    {
      "midi": 56,
      "hit": false,
      "t": 105000,
      "d": 5400,
      "v": 111
    },
    {
      "midi": 59,
      "hit": false,
      "t": 105000,
      "d": 5400,
      "v": 119
    },
    {
      "midi": 61,
      "hit": false,
      "t": 105000,
      "d": 5400,
      "v": 125
    },
    {
      "midi": 64,
      "hit": false,
      "t": 106800,
      "d": 3600,
      "v": 116
    },
    {
      "midi": 52,
      "hit": false,
      "t": 110400,
      "d": 4800,
      "v": 123
    },
    {
      "midi": 54,
      "hit": false,
      "t": 110400,
      "d": 4800,
      "v": 113
    },
    {
      "midi": 57,
      "hit": false,
      "t": 110400,
      "d": 4800,
      "v": 114
    },
    {
      "midi": 61,
      "hit": false,
      "t": 110400,
      "d": 4800,
      "v": 110
    },
    {
      "midi": 54,
      "hit": false,
      "t": 115200,
      "d": 4800,
      "v": 122
    },
    {
      "midi": 57,
      "hit": false,
      "t": 115200,
      "d": 4800,
      "v": 126
    },
    {
      "midi": 59,
      "hit": false,
      "t": 115200,
      "d": 4800,
      "v": 110
    },
    {
      "midi": 62,
      "hit": false,
      "t": 115200,
      "d": 4800,
      "v": 126
    },
    {
      "midi": 52,
      "hit": false,
      "t": 120000,
      "d": 4200,
      "v": 110
    },
    {
      "midi": 57,
      "hit": false,
      "t": 120000,
      "d": 4200,
      "v": 111
    },
    {
      "midi": 59,
      "hit": false,
      "t": 120000,
      "d": 4200,
      "v": 110
    },
    {
      "midi": 61,
      "hit": false,
      "t": 120000,
      "d": 4200,
      "v": 110
    },
    {
      "midi": 64,
      "hit": false,
      "t": 121200,
      "d": 3600,
      "v": 110
    },
    {
      "midi": 52,
      "hit": false,
      "t": 124200,
      "d": 5400,
      "v": 117
    },
    {
      "midi": 56,
      "hit": false,
      "t": 124200,
      "d": 5400,
      "v": 127
    },
    {
      "midi": 59,
      "hit": false,
      "t": 124200,
      "d": 5400,
      "v": 119
    },
    {
      "midi": 61,
      "hit": false,
      "t": 124200,
      "d": 5400,
      "v": 118
    },
    {
      "midi": 52,
      "hit": false,
      "t": 129600,
      "d": 4800,
      "v": 116
    },
    {
      "midi": 54,
      "hit": false,
      "t": 129600,
      "d": 4800,
      "v": 127
    },
    {
      "midi": 57,
      "hit": false,
      "t": 129600,
      "d": 4800,
      "v": 108
    },
    {
      "midi": 61,
      "hit": false,
      "t": 129600,
      "d": 4800,
      "v": 115
    },
    {
      "midi": 54,
      "hit": false,
      "t": 134400,
      "d": 4800,
      "v": 124
    },
    {
      "midi": 57,
      "hit": false,
      "t": 134400,
      "d": 4800,
      "v": 127
    },
    {
      "midi": 59,
      "hit": false,
      "t": 134400,
      "d": 4800,
      "v": 127
    },
    {
      "midi": 63,
      "hit": false,
      "t": 134400,
      "d": 4800,
      "v": 127
    },
    {
      "midi": 53,
      "hit": false,
      "t": 139200,
      "d": 4800,
      "v": 115
    },
    {
      "midi": 57,
      "hit": false,
      "t": 139200,
      "d": 4800,
      "v": 120
    },
    {
      "midi": 62,
      "hit": false,
      "t": 139200,
      "d": 4800,
      "v": 117
    },
    {
      "midi": 57,
      "hit": false,
      "t": 144000,
      "d": 2400,
      "v": 113
    },
    {
      "midi": 53,
      "hit": false,
      "t": 144000,
      "d": 4800,
      "v": 109
    },
    {
      "midi": 62,
      "hit": false,
      "t": 144000,
      "d": 4800,
      "v": 108
    },
    {
      "midi": 57,
      "hit": false,
      "t": 146400,
      "d": 1200,
      "v": 115
    },
    {
      "midi": 59,
      "hit": false,
      "t": 147600,
      "d": 1200,
      "v": 123
    },
    {
      "midi": 52,
      "hit": false,
      "t": 148800,
      "d": 4800,
      "v": 108
    },
    {
      "midi": 57,
      "hit": false,
      "t": 148800,
      "d": 4800,
      "v": 120
    },
    {
      "midi": 59,
      "hit": false,
      "t": 148800,
      "d": 4800,
      "v": 111
    },
    {
      "midi": 61,
      "hit": false,
      "t": 148800,
      "d": 4800,
      "v": 109
    },
    {
      "midi": 52,
      "hit": false,
      "t": 153600,
      "d": 4800,
      "v": 119
    },
    {
      "midi": 54,
      "hit": false,
      "t": 153600,
      "d": 4800,
      "v": 109
    },
    {
      "midi": 57,
      "hit": false,
      "t": 153600,
      "d": 4800,
      "v": 127
    },
    {
      "midi": 61,
      "hit": false,
      "t": 153600,
      "d": 4800,
      "v": 116
    },
    {
      "midi": 54,
      "hit": false,
      "t": 158400,
      "d": 4800,
      "v": 114
    },
    {
      "midi": 57,
      "hit": false,
      "t": 158400,
      "d": 4800,
      "v": 112
    },
    {
      "midi": 59,
      "hit": false,
      "t": 158400,
      "d": 4800,
      "v": 125
    },
    {
      "midi": 63,
      "hit": false,
      "t": 158400,
      "d": 4800,
      "v": 122
    },
    {
      "midi": 53,
      "hit": false,
      "t": 163200,
      "d": 4800,
      "v": 112
    },
    {
      "midi": 57,
      "hit": false,
      "t": 163200,
      "d": 4800,
      "v": 111
    },
    {
      "midi": 62,
      "hit": false,
      "t": 163200,
      "d": 4800,
      "v": 124
    },
    {
      "midi": 52,
      "hit": false,
      "t": 168000,
      "d": 4800,
      "v": 122
    },
    {
      "midi": 57,
      "hit": false,
      "t": 168000,
      "d": 4800,
      "v": 120
    },
    {
      "midi": 59,
      "hit": false,
      "t": 168000,
      "d": 4800,
      "v": 122
    },
    {
      "midi": 61,
      "hit": false,
      "t": 168000,
      "d": 4800,
      "v": 121
    },
    {
      "midi": 52,
      "hit": false,
      "t": 172800,
      "d": 4800,
      "v": 121
    },
    {
      "midi": 56,
      "hit": false,
      "t": 172800,
      "d": 4800,
      "v": 111
    },
    {
      "midi": 59,
      "hit": false,
      "t": 172800,
      "d": 4800,
      "v": 118
    },
    {
      "midi": 61,
      "hit": false,
      "t": 172800,
      "d": 4800,
      "v": 117
    },
    {
      "midi": 54,
      "hit": false,
      "t": 177600,
      "d": 4800,
      "v": 119
    },
    {
      "midi": 57,
      "hit": false,
      "t": 177600,
      "d": 4800,
      "v": 126
    },
    {
      "midi": 59,
      "hit": false,
      "t": 177600,
      "d": 4800,
      "v": 112
    },
    {
      "midi": 62,
      "hit": false,
      "t": 177600,
      "d": 4800,
      "v": 110
    },
    {
      "midi": 53,
      "hit": false,
      "t": 182400,
      "d": 4800,
      "v": 117
    },
    {
      "midi": 57,
      "hit": false,
      "t": 182400,
      "d": 4800,
      "v": 122
    },
    {
      "midi": 62,
      "hit": false,
      "t": 182400,
      "d": 4800,
      "v": 123
    },
    {
      "midi": 52,
      "hit": false,
      "t": 187200,
      "d": 4800,
      "v": 113
    },
    {
      "midi": 57,
      "hit": false,
      "t": 187200,
      "d": 4800,
      "v": 116
    },
    {
      "midi": 59,
      "hit": false,
      "t": 187200,
      "d": 4800,
      "v": 115
    },
    {
      "midi": 61,
      "hit": false,
      "t": 187200,
      "d": 4800,
      "v": 126
    },
    {
      "midi": 52,
      "hit": false,
      "t": 192000,
      "d": 4800,
      "v": 117
    },
    {
      "midi": 56,
      "hit": false,
      "t": 192000,
      "d": 4800,
      "v": 123
    },
    {
      "midi": 59,
      "hit": false,
      "t": 192000,
      "d": 4800,
      "v": 119
    },
    {
      "midi": 61,
      "hit": false,
      "t": 192000,
      "d": 4800,
      "v": 108
    },
    {
      "midi": 54,
      "hit": false,
      "t": 196800,
      "d": 4800,
      "v": 110
    },
    {
      "midi": 57,
      "hit": false,
      "t": 196800,
      "d": 4800,
      "v": 111
    },
    {
      "midi": 59,
      "hit": false,
      "t": 196800,
      "d": 4800,
      "v": 111
    },
    {
      "midi": 62,
      "hit": false,
      "t": 196800,
      "d": 4800,
      "v": 118
    },
    {
      "midi": 53,
      "hit": false,
      "t": 201600,
      "d": 4800,
      "v": 127
    },
    {
      "midi": 57,
      "hit": false,
      "t": 201600,
      "d": 4800,
      "v": 108
    },
    {
      "midi": 62,
      "hit": false,
      "t": 201600,
      "d": 4800,
      "v": 121
    },
    {
      "midi": 52,
      "hit": false,
      "t": 206400,
      "d": 4800,
      "v": 109
    },
    {
      "midi": 57,
      "hit": false,
      "t": 206400,
      "d": 4800,
      "v": 116
    },
    {
      "midi": 59,
      "hit": false,
      "t": 206400,
      "d": 4800,
      "v": 121
    },
    {
      "midi": 61,
      "hit": false,
      "t": 206400,
      "d": 4800,
      "v": 119
    },
    {
      "midi": 52,
      "hit": false,
      "t": 211200,
      "d": 4800,
      "v": 127
    },
    {
      "midi": 56,
      "hit": false,
      "t": 211200,
      "d": 4800,
      "v": 112
    },
    {
      "midi": 59,
      "hit": false,
      "t": 211200,
      "d": 4800,
      "v": 108
    },
    {
      "midi": 61,
      "hit": false,
      "t": 211200,
      "d": 4800,
      "v": 114
    },
    {
      "midi": 54,
      "hit": false,
      "t": 216000,
      "d": 4800,
      "v": 117
    },
    {
      "midi": 57,
      "hit": false,
      "t": 216000,
      "d": 4800,
      "v": 124
    },
    {
      "midi": 59,
      "hit": false,
      "t": 216000,
      "d": 4800,
      "v": 108
    },
    {
      "midi": 62,
      "hit": false,
      "t": 216000,
      "d": 4800,
      "v": 123
    },
    {
      "midi": 57,
      "hit": false,
      "t": 220800,
      "d": 1800,
      "v": 126
    },
    {
      "midi": 53,
      "hit": false,
      "t": 220800,
      "d": 4800,
      "v": 125
    },
    {
      "midi": 62,
      "hit": false,
      "t": 220800,
      "d": 4800,
      "v": 119
    },
    {
      "midi": 57,
      "hit": false,
      "t": 222600,
      "d": 1800,
      "v": 110
    },
    {
      "midi": 59,
      "hit": false,
      "t": 224400,
      "d": 1200,
      "v": 120
    },
    {
      "midi": 52,
      "hit": false,
      "t": 225600,
      "d": 3600,
      "v": 120
    },
    {
      "midi": 57,
      "hit": false,
      "t": 225600,
      "d": 3600,
      "v": 123
    },
    {
      "midi": 59,
      "hit": false,
      "t": 225600,
      "d": 3600,
      "v": 120
    },
    {
      "midi": 61,
      "hit": false,
      "t": 225600,
      "d": 3600,
      "v": 113
    },
    {
      "midi": 64,
      "hit": false,
      "t": 226800,
      "d": 3600,
      "v": 113
    },
    {
      "midi": 52,
      "hit": false,
      "t": 229200,
      "d": 600,
      "v": 114
    },
    {
      "midi": 57,
      "hit": false,
      "t": 229200,
      "d": 600,
      "v": 111
    },
    {
      "midi": 59,
      "hit": false,
      "t": 229200,
      "d": 600,
      "v": 115
    },
    {
      "midi": 61,
      "hit": false,
      "t": 229200,
      "d": 600,
      "v": 124
    },
    {
      "midi": 52,
      "hit": false,
      "t": 229800,
      "d": 4800,
      "v": 121
    },
    {
      "midi": 56,
      "hit": false,
      "t": 229800,
      "d": 4800,
      "v": 125
    },
    {
      "midi": 59,
      "hit": false,
      "t": 229800,
      "d": 4800,
      "v": 118
    },
    {
      "midi": 61,
      "hit": false,
      "t": 229800,
      "d": 4800,
      "v": 124
    },
    {
      "midi": 54,
      "hit": false,
      "t": 235200,
      "d": 4800,
      "v": 127
    },
    {
      "midi": 57,
      "hit": false,
      "t": 235200,
      "d": 4800,
      "v": 121
    },
    {
      "midi": 59,
      "hit": false,
      "t": 235200,
      "d": 4800,
      "v": 120
    },
    {
      "midi": 62,
      "hit": false,
      "t": 235200,
      "d": 4800,
      "v": 110
    },
    {
      "midi": 53,
      "hit": false,
      "t": 240000,
      "d": 4800,
      "v": 119
    },
    {
      "midi": 57,
      "hit": false,
      "t": 240000,
      "d": 4800,
      "v": 116
    },
    {
      "midi": 62,
      "hit": false,
      "t": 242400,
      "d": 2400,
      "v": 117
    },
    {
      "midi": 52,
      "hit": false,
      "t": 244800,
      "d": 1800,
      "v": 121
    },
    {
      "midi": 57,
      "hit": false,
      "t": 244800,
      "d": 1800,
      "v": 110
    },
    {
      "midi": 59,
      "hit": false,
      "t": 244800,
      "d": 1800,
      "v": 126
    },
    {
      "midi": 61,
      "hit": false,
      "t": 244800,
      "d": 1800,
      "v": 121
    },
    {
      "midi": 52,
      "hit": false,
      "t": 246600,
      "d": 1800,
      "v": 108
    },
    {
      "midi": 57,
      "hit": false,
      "t": 246600,
      "d": 1800,
      "v": 116
    },
    {
      "midi": 59,
      "hit": false,
      "t": 246600,
      "d": 1800,
      "v": 125
    },
    {
      "midi": 61,
      "hit": false,
      "t": 246600,
      "d": 1800,
      "v": 116
    },
    {
      "midi": 52,
      "hit": false,
      "t": 248400,
      "d": 1200,
      "v": 126
    },
    {
      "midi": 57,
      "hit": false,
      "t": 248400,
      "d": 1200,
      "v": 114
    },
    {
      "midi": 59,
      "hit": false,
      "t": 248400,
      "d": 1200,
      "v": 126
    },
    {
      "midi": 61,
      "hit": false,
      "t": 248400,
      "d": 1200,
      "v": 115
    },
    {
      "midi": 52,
      "hit": false,
      "t": 249600,
      "d": 4800,
      "v": 118
    },
    {
      "midi": 56,
      "hit": false,
      "t": 249600,
      "d": 4800,
      "v": 109
    },
    {
      "midi": 59,
      "hit": false,
      "t": 249600,
      "d": 4800,
      "v": 117
    },
    {
      "midi": 61,
      "hit": false,
      "t": 249600,
      "d": 4800,
      "v": 116
    },
    {
      "midi": 54,
      "hit": false,
      "t": 254400,
      "d": 4800,
      "v": 111
    },
    {
      "midi": 57,
      "hit": false,
      "t": 254400,
      "d": 4800,
      "v": 114
    },
    {
      "midi": 59,
      "hit": false,
      "t": 254400,
      "d": 4800,
      "v": 111
    },
    {
      "midi": 62,
      "hit": false,
      "t": 254400,
      "d": 4800,
      "v": 116
    },
    {
      "midi": 53,
      "hit": false,
      "t": 259200,
      "d": 4800,
      "v": 121
    },
    {
      "midi": 57,
      "hit": false,
      "t": 259200,
      "d": 4800,
      "v": 115
    },
    {
      "midi": 62,
      "hit": false,
      "t": 259200,
      "d": 4800,
      "v": 115
    },
    {
      "midi": 52,
      "hit": false,
      "t": 264000,
      "d": 4200,
      "v": 120
    },
    {
      "midi": 57,
      "hit": false,
      "t": 264000,
      "d": 4200,
      "v": 122
    },
    {
      "midi": 59,
      "hit": false,
      "t": 264000,
      "d": 4200,
      "v": 119
    },
    {
      "midi": 61,
      "hit": false,
      "t": 264000,
      "d": 4200,
      "v": 117
    },
    {
      "midi": 64,
      "hit": false,
      "t": 265200,
      "d": 3600,
      "v": 122
    },
    {
      "midi": 52,
      "hit": false,
      "t": 268200,
      "d": 600,
      "v": 112
    },
    {
      "midi": 57,
      "hit": false,
      "t": 268200,
      "d": 600,
      "v": 119
    },
    {
      "midi": 59,
      "hit": false,
      "t": 268200,
      "d": 600,
      "v": 113
    },
    {
      "midi": 61,
      "hit": false,
      "t": 268200,
      "d": 600,
      "v": 126
    },
    {
      "midi": 52,
      "hit": false,
      "t": 268800,
      "d": 4800,
      "v": 108
    },
    {
      "midi": 56,
      "hit": false,
      "t": 268800,
      "d": 4800,
      "v": 111
    },
    {
      "midi": 59,
      "hit": false,
      "t": 268800,
      "d": 4800,
      "v": 113
    },
    {
      "midi": 61,
      "hit": false,
      "t": 268800,
      "d": 4800,
      "v": 120
    },
    {
      "midi": 52,
      "hit": false,
      "t": 273600,
      "d": 4800,
      "v": 117
    },
    {
      "midi": 54,
      "hit": false,
      "t": 273600,
      "d": 4800,
      "v": 114
    },
    {
      "midi": 57,
      "hit": false,
      "t": 273600,
      "d": 4800,
      "v": 112
    },
    {
      "midi": 61,
      "hit": false,
      "t": 273600,
      "d": 4800,
      "v": 125
    },
    {
      "midi": 64,
      "hit": false,
      "t": 274800,
      "d": 3600,
      "v": 117
    },
    {
      "midi": 54,
      "hit": false,
      "t": 278400,
      "d": 4800,
      "v": 118
    },
    {
      "midi": 57,
      "hit": false,
      "t": 278400,
      "d": 4800,
      "v": 127
    },
    {
      "midi": 59,
      "hit": false,
      "t": 278400,
      "d": 4800,
      "v": 121
    },
    {
      "midi": 62,
      "hit": false,
      "t": 278400,
      "d": 4800,
      "v": 122
    },
    {
      "midi": 52,
      "hit": false,
      "t": 283200,
      "d": 4200,
      "v": 111
    },
    {
      "midi": 57,
      "hit": false,
      "t": 283200,
      "d": 4200,
      "v": 122
    },
    {
      "midi": 59,
      "hit": false,
      "t": 283200,
      "d": 4200,
      "v": 113
    },
    {
      "midi": 61,
      "hit": false,
      "t": 283200,
      "d": 4200,
      "v": 115
    },
    {
      "midi": 64,
      "hit": false,
      "t": 284400,
      "d": 3600,
      "v": 113
    },
    {
      "midi": 52,
      "hit": false,
      "t": 287400,
      "d": 600,
      "v": 123
    },
    {
      "midi": 57,
      "hit": false,
      "t": 287400,
      "d": 600,
      "v": 119
    },
    {
      "midi": 59,
      "hit": false,
      "t": 287400,
      "d": 600,
      "v": 110
    },
    {
      "midi": 61,
      "hit": false,
      "t": 287400,
      "d": 600,
      "v": 123
    },
    {
      "midi": 52,
      "hit": false,
      "t": 288000,
      "d": 4800,
      "v": 121
    },
    {
      "midi": 56,
      "hit": false,
      "t": 288000,
      "d": 4800,
      "v": 108
    },
    {
      "midi": 59,
      "hit": false,
      "t": 288000,
      "d": 4800,
      "v": 123
    },
    {
      "midi": 61,
      "hit": false,
      "t": 288000,
      "d": 4800,
      "v": 117
    },
    {
      "midi": 64,
      "hit": false,
      "t": 289200,
      "d": 3600,
      "v": 120
    },
    {
      "midi": 52,
      "hit": false,
      "t": 292800,
      "d": 4800,
      "v": 109
    },
    {
      "midi": 54,
      "hit": false,
      "t": 292800,
      "d": 4800,
      "v": 120
    },
    {
      "midi": 57,
      "hit": false,
      "t": 292800,
      "d": 4800,
      "v": 122
    },
    {
      "midi": 61,
      "hit": false,
      "t": 292800,
      "d": 4800,
      "v": 112
    },
    {
      "midi": 54,
      "hit": false,
      "t": 297600,
      "d": 4800,
      "v": 127
    },
    {
      "midi": 57,
      "hit": false,
      "t": 297600,
      "d": 4800,
      "v": 114
    },
    {
      "midi": 59,
      "hit": false,
      "t": 297600,
      "d": 4800,
      "v": 117
    },
    {
      "midi": 63,
      "hit": false,
      "t": 297600,
      "d": 4800,
      "v": 117
    },
    {
      "midi": 53,
      "hit": false,
      "t": 302400,
      "d": 4800,
      "v": 112
    },
    {
      "midi": 57,
      "hit": false,
      "t": 302400,
      "d": 4800,
      "v": 119
    },
    {
      "midi": 62,
      "hit": false,
      "t": 302400,
      "d": 4800,
      "v": 126
    },
    {
      "midi": 57,
      "hit": false,
      "t": 307200,
      "d": 2400,
      "v": 111
    },
    {
      "midi": 53,
      "hit": false,
      "t": 307200,
      "d": 4800,
      "v": 108
    },
    {
      "midi": 62,
      "hit": false,
      "t": 307200,
      "d": 4800,
      "v": 116
    },
    {
      "midi": 57,
      "hit": false,
      "t": 309600,
      "d": 2400,
      "v": 121
    },
    {
      "midi": 52,
      "hit": false,
      "t": 312000,
      "d": 4800,
      "v": 109
    },
    {
      "midi": 57,
      "hit": false,
      "t": 312000,
      "d": 4800,
      "v": 110
    },
    {
      "midi": 59,
      "hit": false,
      "t": 312000,
      "d": 4800,
      "v": 112
    },
    {
      "midi": 61,
      "hit": false,
      "t": 312000,
      "d": 4800,
      "v": 108
    },
    {
      "midi": 52,
      "hit": false,
      "t": 316800,
      "d": 4800,
      "v": 125
    },
    {
      "midi": 54,
      "hit": false,
      "t": 316800,
      "d": 4800,
      "v": 127
    },
    {
      "midi": 57,
      "hit": false,
      "t": 316800,
      "d": 4800,
      "v": 124
    },
    {
      "midi": 61,
      "hit": false,
      "t": 316800,
      "d": 4800,
      "v": 120
    },
    {
      "midi": 54,
      "hit": false,
      "t": 321600,
      "d": 4800,
      "v": 119
    },
    {
      "midi": 57,
      "hit": false,
      "t": 321600,
      "d": 4800,
      "v": 118
    },
    {
      "midi": 59,
      "hit": false,
      "t": 321600,
      "d": 4800,
      "v": 119
    },
    {
      "midi": 63,
      "hit": false,
      "t": 321600,
      "d": 4800,
      "v": 126
    },
    {
      "midi": 53,
      "hit": false,
      "t": 326400,
      "d": 4800,
      "v": 123
    },
    {
      "midi": 57,
      "hit": false,
      "t": 326400,
      "d": 4800,
      "v": 127
    },
    {
      "midi": 62,
      "hit": false,
      "t": 326400,
      "d": 4800,
      "v": 112
    },
    {
      "midi": 52,
      "hit": false,
      "t": 331200,
      "d": 4800,
      "v": 124
    },
    {
      "midi": 57,
      "hit": false,
      "t": 331200,
      "d": 4800,
      "v": 114
    },
    {
      "midi": 59,
      "hit": false,
      "t": 331200,
      "d": 4800,
      "v": 115
    },
    {
      "midi": 61,
      "hit": false,
      "t": 331200,
      "d": 4800,
      "v": 108
    },
    {
      "midi": 56,
      "hit": false,
      "t": 336000,
      "d": 4800,
      "v": 120
    },
    {
      "midi": 61,
      "hit": false,
      "t": 336000,
      "d": 4800,
      "v": 116
    },
    {
      "midi": 71,
      "hit": false,
      "t": 336000,
      "d": 4800,
      "v": 116
    },
    {
      "midi": 54,
      "hit": false,
      "t": 340800,
      "d": 4800,
      "v": 111
    },
    {
      "midi": 57,
      "hit": false,
      "t": 340800,
      "d": 4800,
      "v": 115
    },
    {
      "midi": 59,
      "hit": false,
      "t": 340800,
      "d": 4800,
      "v": 110
    },
    {
      "midi": 62,
      "hit": false,
      "t": 340800,
      "d": 4800,
      "v": 113
    },
    {
      "midi": 53,
      "hit": false,
      "t": 345600,
      "d": 4800,
      "v": 121
    },
    {
      "midi": 57,
      "hit": false,
      "t": 345600,
      "d": 4800,
      "v": 109
    },
    {
      "midi": 62,
      "hit": false,
      "t": 345600,
      "d": 4800,
      "v": 117
    },
    {
      "midi": 52,
      "hit": false,
      "t": 350400,
      "d": 4200,
      "v": 121
    },
    {
      "midi": 57,
      "hit": false,
      "t": 350400,
      "d": 4200,
      "v": 120
    },
    {
      "midi": 59,
      "hit": false,
      "t": 350400,
      "d": 4200,
      "v": 112
    },
    {
      "midi": 61,
      "hit": false,
      "t": 350400,
      "d": 4200,
      "v": 109
    },
    {
      "midi": 64,
      "hit": false,
      "t": 351600,
      "d": 3600,
      "v": 108
    },
    {
      "midi": 52,
      "hit": false,
      "t": 354600,
      "d": 4800,
      "v": 114
    },
    {
      "midi": 56,
      "hit": false,
      "t": 354600,
      "d": 4800,
      "v": 109
    },
    {
      "midi": 59,
      "hit": false,
      "t": 354600,
      "d": 4800,
      "v": 110
    },
    {
      "midi": 61,
      "hit": false,
      "t": 354600,
      "d": 4800,
      "v": 124
    },
    {
      "midi": 54,
      "hit": false,
      "t": 360000,
      "d": 4800,
      "v": 127
    },
    {
      "midi": 57,
      "hit": false,
      "t": 360000,
      "d": 4800,
      "v": 119
    },
    {
      "midi": 59,
      "hit": false,
      "t": 360000,
      "d": 4800,
      "v": 121
    },
    {
      "midi": 62,
      "hit": false,
      "t": 360000,
      "d": 4800,
      "v": 110
    },
    {
      "midi": 53,
      "hit": false,
      "t": 364800,
      "d": 4800,
      "v": 127
    },
    {
      "midi": 57,
      "hit": false,
      "t": 364800,
      "d": 4800,
      "v": 121
    },
    {
      "midi": 62,
      "hit": false,
      "t": 364800,
      "d": 4800,
      "v": 120
    },
    {
      "midi": 52,
      "hit": false,
      "t": 369600,
      "d": 4800,
      "v": 115
    },
    {
      "midi": 57,
      "hit": false,
      "t": 369600,
      "d": 4800,
      "v": 125
    },
    {
      "midi": 59,
      "hit": false,
      "t": 369600,
      "d": 4800,
      "v": 114
    },
    {
      "midi": 61,
      "hit": false,
      "t": 369600,
      "d": 4800,
      "v": 119
    },
    {
      "midi": 64,
      "hit": false,
      "t": 370800,
      "d": 3600,
      "v": 115
    },
    {
      "midi": 52,
      "hit": false,
      "t": 374400,
      "d": 4800,
      "v": 118
    },
    {
      "midi": 56,
      "hit": false,
      "t": 374400,
      "d": 4800,
      "v": 120
    },
    {
      "midi": 59,
      "hit": false,
      "t": 374400,
      "d": 4800,
      "v": 118
    },
    {
      "midi": 61,
      "hit": false,
      "t": 374400,
      "d": 4800,
      "v": 113
    },
    {
      "midi": 52,
      "hit": false,
      "t": 379200,
      "d": 4800,
      "v": 117
    },
    {
      "midi": 54,
      "hit": false,
      "t": 379200,
      "d": 4800,
      "v": 111
    },
    {
      "midi": 57,
      "hit": false,
      "t": 379200,
      "d": 4800,
      "v": 120
    },
    {
      "midi": 61,
      "hit": false,
      "t": 379200,
      "d": 4800,
      "v": 123
    },
    {
      "midi": 54,
      "hit": false,
      "t": 384000,
      "d": 4800,
      "v": 114
    },
    {
      "midi": 57,
      "hit": false,
      "t": 384000,
      "d": 4800,
      "v": 117
    },
    {
      "midi": 59,
      "hit": false,
      "t": 384000,
      "d": 4800,
      "v": 127
    },
    {
      "midi": 62,
      "hit": false,
      "t": 384000,
      "d": 4800,
      "v": 118
    },
    {
      "midi": 52,
      "hit": false,
      "t": 388800,
      "d": 4800,
      "v": 114
    },
    {
      "midi": 57,
      "hit": false,
      "t": 388800,
      "d": 4800,
      "v": 117
    },
    {
      "midi": 59,
      "hit": false,
      "t": 388800,
      "d": 4800,
      "v": 116
    },
    {
      "midi": 61,
      "hit": false,
      "t": 388800,
      "d": 4800,
      "v": 121
    },
    {
      "midi": 64,
      "hit": false,
      "t": 390000,
      "d": 3600,
      "v": 108
    },
    {
      "midi": 52,
      "hit": false,
      "t": 393600,
      "d": 4800,
      "v": 113
    },
    {
      "midi": 56,
      "hit": false,
      "t": 393600,
      "d": 4800,
      "v": 110
    },
    {
      "midi": 59,
      "hit": false,
      "t": 393600,
      "d": 4800,
      "v": 115
    },
    {
      "midi": 61,
      "hit": false,
      "t": 393600,
      "d": 4800,
      "v": 126
    },
    {
      "midi": 52,
      "hit": false,
      "t": 398400,
      "d": 4800,
      "v": 108
    },
    {
      "midi": 54,
      "hit": false,
      "t": 398400,
      "d": 4800,
      "v": 112
    },
    {
      "midi": 57,
      "hit": false,
      "t": 398400,
      "d": 4800,
      "v": 112
    },
    {
      "midi": 61,
      "hit": false,
      "t": 398400,
      "d": 4800,
      "v": 112
    },
    {
      "midi": 54,
      "hit": false,
      "t": 403200,
      "d": 4800,
      "v": 120
    },
    {
      "midi": 57,
      "hit": false,
      "t": 403200,
      "d": 4800,
      "v": 126
    },
    {
      "midi": 59,
      "hit": false,
      "t": 403200,
      "d": 4800,
      "v": 126
    },
    {
      "midi": 63,
      "hit": false,
      "t": 403200,
      "d": 4800,
      "v": 111
    },
    {
      "midi": 53,
      "hit": false,
      "t": 408000,
      "d": 4800,
      "v": 113
    },
    {
      "midi": 57,
      "hit": false,
      "t": 408000,
      "d": 4800,
      "v": 109
    },
    {
      "midi": 62,
      "hit": false,
      "t": 408000,
      "d": 4800,
      "v": 126
    },
    {
      "midi": 53,
      "hit": false,
      "t": 412800,
      "d": 4800,
      "v": 108
    },
    {
      "midi": 57,
      "hit": false,
      "t": 412800,
      "d": 4800,
      "v": 117
    },
    {
      "midi": 62,
      "hit": false,
      "t": 412800,
      "d": 4800,
      "v": 112
    },
    {
      "midi": 52,
      "hit": false,
      "t": 417600,
      "d": 4800,
      "v": 113
    },
    {
      "midi": 57,
      "hit": false,
      "t": 417600,
      "d": 4800,
      "v": 118
    },
    {
      "midi": 59,
      "hit": false,
      "t": 417600,
      "d": 4800,
      "v": 126
    },
    {
      "midi": 61,
      "hit": false,
      "t": 417600,
      "d": 4800,
      "v": 124
    },
    {
      "midi": 52,
      "hit": false,
      "t": 422400,
      "d": 4800,
      "v": 111
    },
    {
      "midi": 54,
      "hit": false,
      "t": 422400,
      "d": 4800,
      "v": 124
    },
    {
      "midi": 57,
      "hit": false,
      "t": 422400,
      "d": 4800,
      "v": 127
    },
    {
      "midi": 61,
      "hit": false,
      "t": 422400,
      "d": 4800,
      "v": 127
    },
    {
      "midi": 54,
      "hit": false,
      "t": 427200,
      "d": 4800,
      "v": 109
    },
    {
      "midi": 57,
      "hit": false,
      "t": 427200,
      "d": 4800,
      "v": 117
    },
    {
      "midi": 59,
      "hit": false,
      "t": 427200,
      "d": 4800,
      "v": 111
    },
    {
      "midi": 63,
      "hit": false,
      "t": 427200,
      "d": 4800,
      "v": 113
    },
    {
      "midi": 53,
      "hit": false,
      "t": 432000,
      "d": 4800,
      "v": 109
    },
    {
      "midi": 57,
      "hit": false,
      "t": 432000,
      "d": 4800,
      "v": 123
    },
    {
      "midi": 62,
      "hit": false,
      "t": 432000,
      "d": 4800,
      "v": 112
    },
    {
      "midi": 52,
      "hit": false,
      "t": 436800,
      "d": 4800,
      "v": 125
    },
    {
      "midi": 57,
      "hit": false,
      "t": 436800,
      "d": 4800,
      "v": 115
    },
    {
      "midi": 59,
      "hit": false,
      "t": 436800,
      "d": 4800,
      "v": 113
    },
    {
      "midi": 61,
      "hit": false,
      "t": 436800,
      "d": 4800,
      "v": 115
    },
    {
      "midi": 52,
      "hit": false,
      "t": 441600,
      "d": 4800,
      "v": 126
    },
    {
      "midi": 54,
      "hit": false,
      "t": 441600,
      "d": 4800,
      "v": 122
    },
    {
      "midi": 57,
      "hit": false,
      "t": 441600,
      "d": 4800,
      "v": 114
    },
    {
      "midi": 61,
      "hit": false,
      "t": 441600,
      "d": 4800,
      "v": 115
    },
    {
      "midi": 54,
      "hit": false,
      "t": 446400,
      "d": 4800,
      "v": 109
    },
    {
      "midi": 57,
      "hit": false,
      "t": 446400,
      "d": 4800,
      "v": 115
    },
    {
      "midi": 59,
      "hit": false,
      "t": 446400,
      "d": 4800,
      "v": 118
    },
    {
      "midi": 63,
      "hit": false,
      "t": 446400,
      "d": 4800,
      "v": 125
    },
    {
      "midi": 53,
      "hit": false,
      "t": 451200,
      "d": 4800,
      "v": 113
    },
    {
      "midi": 57,
      "hit": false,
      "t": 451200,
      "d": 4800,
      "v": 119
    },
    {
      "midi": 62,
      "hit": false,
      "t": 451200,
      "d": 4800,
      "v": 113
    },
    {
      "midi": 52,
      "hit": false,
      "t": 456000,
      "d": 4800,
      "v": 116
    },
    {
      "midi": 57,
      "hit": false,
      "t": 456000,
      "d": 4800,
      "v": 113
    },
    {
      "midi": 59,
      "hit": false,
      "t": 456000,
      "d": 4800,
      "v": 119
    },
    {
      "midi": 61,
      "hit": false,
      "t": 456000,
      "d": 4800,
      "v": 119
    },
    {
      "midi": 52,
      "hit": false,
      "t": 460800,
      "d": 4800,
      "v": 111
    },
    {
      "midi": 54,
      "hit": false,
      "t": 460800,
      "d": 4800,
      "v": 121
    },
    {
      "midi": 57,
      "hit": false,
      "t": 460800,
      "d": 4800,
      "v": 127
    },
    {
      "midi": 61,
      "hit": false,
      "t": 460800,
      "d": 4800,
      "v": 118
    },
    {
      "midi": 54,
      "hit": false,
      "t": 465600,
      "d": 4800,
      "v": 110
    },
    {
      "midi": 57,
      "hit": false,
      "t": 465600,
      "d": 4800,
      "v": 114
    },
    {
      "midi": 59,
      "hit": false,
      "t": 465600,
      "d": 4800,
      "v": 121
    },
    {
      "midi": 63,
      "hit": false,
      "t": 465600,
      "d": 4800,
      "v": 119
    },
    {
      "midi": 53,
      "hit": false,
      "t": 470400,
      "d": 4800,
      "v": 111
    },
    {
      "midi": 57,
      "hit": false,
      "t": 470400,
      "d": 4800,
      "v": 108
    },
    {
      "midi": 62,
      "hit": false,
      "t": 470400,
      "d": 4800,
      "v": 120
    }
  ]
}