{
  "jsonPath": "Rock/Dance Rock/Simply Red/thank-you.json",
  "path": "Rock\\Dance Rock\\Simply Red\\Thank You.mid",
  "name": "Thank You",
  "difficulty": "Advanced",
  "bpm": 102.0000510000255,
  "notes": [
    {
      "midi": 60,
      "hit": false,
      "t": 4705.880000000001,
      "d": 735.2937499999998,
      "v": 99
    },
    {
      "midi": 63,
      "hit": false,
      "t": 4705.880000000001,
      "d": 735.2937499999998,
      "v": 111
    },
    {
      "midi": 67,
      "hit": false,
      "t": 4705.880000000001,
      "d": 735.2937499999998,
      "v": 99
    },
    {
      "midi": 48,
      "hit": false,
      "t": 4705.880000000001,
      "d": 882.3525,
      "v": 92
    },
    {
      "midi": 55,
      "hit": false,
      "t": 5294.115000000001,
      "d": 294.1175000000003,
      "v": 105
    },
    {
      "midi": 58,
      "hit": false,
      "t": 5588.232500000001,
      "d": 735.2937499999998,
      "v": 114
    },
    {
      "midi": 62,
      "hit": false,
      "t": 5588.232500000001,
      "d": 735.2937499999998,
      "v": 101
    },
    {
      "midi": 65,
      "hit": false,
      "t": 5588.232500000001,
      "d": 735.2937499999998,
      "v": 97
    },
    {
      "midi": 46,
      "hit": false,
      "t": 6176.467500000001,
      "d": 882.3525000000009,
      "v": 111
    },
    {
      "midi": 58,
      "hit": false,
      "t": 6470.585000000001,
      "d": 294.1175000000003,
      "v": 100
    },
    {
      "midi": 62,
      "hit": false,
      "t": 6470.585000000001,
      "d": 441.17625000000044,
      "v": 97
    },
    {
      "midi": 53,
      "hit": false,
      "t": 6764.702500000001,
      "d": 294.1175000000003,
      "v": 89
    },
    {
      "midi": 60,
      "hit": false,
      "t": 7058.8200000000015,
      "d": 735.2937499999998,
      "v": 97
    },
    {
      "midi": 63,
      "hit": false,
      "t": 7058.8200000000015,
      "d": 735.2937499999998,
      "v": 107
    },
    {
      "midi": 67,
      "hit": false,
      "t": 7058.8200000000015,
      "d": 735.2937499999998,
      "v": 101
    },
    {
      "midi": 48,
      "hit": false,
      "t": 7647.055000000001,
      "d": 294.1175000000003,
      "v": 105
    },
    {
      "midi": 59,
      "hit": false,
      "t": 7941.1725000000015,
      "d": 735.2937499999998,
      "v": 115
    },
    {
      "midi": 62,
      "hit": false,
      "t": 7941.1725000000015,
      "d": 735.2937499999998,
      "v": 107
    },
    {
      "midi": 65,
      "hit": false,
      "t": 7941.1725000000015,
      "d": 735.2937499999998,
      "v": 105
    },
    {
      "midi": 43,
      "hit": false,
      "t": 8529.407500000001,
      "d": 588.2350000000006,
      "v": 92
    },
    {
      "midi": 59,
      "hit": false,
      "t": 8823.525000000001,
      "d": 441.17625000000044,
      "v": 97
    },
    {
      "midi": 62,
      "hit": false,
      "t": 8823.525000000001,
      "d": 441.17625000000044,
      "v": 97
    },
    {
      "midi": 65,
      "hit": false,
      "t": 8823.525000000001,
      "d": 441.17625000000044,
      "v": 103
    },
    {
      "midi": 55,
      "hit": false,
      "t": 9117.642500000002,
      "d": 294.1175000000003,
      "v": 97
    },
    {
      "midi": 60,
      "hit": false,
      "t": 9411.760000000002,
      "d": 588.2350000000006,
      "v": 101
    },
    {
      "midi": 67,
      "hit": false,
      "t": 9411.760000000002,
      "d": 588.2350000000006,
      "v": 107
    },
    {
      "midi": 63,
      "hit": false,
      "t": 9411.760000000002,
      "d": 735.2937500000007,
      "v": 114
    },
    {
      "midi": 48,
      "hit": false,
      "t": 9999.995000000003,
      "d": 294.1175000000003,
      "v": 109
    },
    {
      "midi": 58,
      "hit": false,
      "t": 10294.112500000003,
      "d": 735.2937500000007,
      "v": 118
    },
    {
      "midi": 62,
      "hit": false,
      "t": 10294.112500000003,
      "d": 735.2937500000007,
      "v": 94
    },
    {
      "midi": 65,
      "hit": false,
      "t": 10294.112500000003,
      "d": 735.2937500000007,
      "v": 99
    },
    {
      "midi": 46,
      "hit": false,
      "t": 10882.347500000003,
      "d": 588.2350000000006,
      "v": 100
    },
    {
      "midi": 58,
      "hit": false,
      "t": 11176.465000000004,
      "d": 441.17625000000044,
      "v": 107
    },
    {
      "midi": 62,
      "hit": false,
      "t": 11176.465000000004,
      "d": 441.17625000000044,
      "v": 99
    },
    {
      "midi": 65,
      "hit": false,
      "t": 11176.465000000004,
      "d": 441.17625000000044,
      "v": 94
    },
    {
      "midi": 53,
      "hit": false,
      "t": 11470.582500000004,
      "d": 294.1175000000003,
      "v": 77
    },
    {
      "midi": 60,
      "hit": false,
      "t": 11764.700000000004,
      "d": 735.2937500000007,
      "v": 105
    },
    {
      "midi": 63,
      "hit": false,
      "t": 11764.700000000004,
      "d": 735.2937500000007,
      "v": 100
    },
    {
      "midi": 67,
      "hit": false,
      "t": 11764.700000000004,
      "d": 735.2937500000007,
      "v": 99
    },
    {
      "midi": 48,
      "hit": false,
      "t": 12352.935000000005,
      "d": 294.1175000000003,
      "v": 101
    },
    {
      "midi": 59,
      "hit": false,
      "t": 12647.052500000005,
      "d": 735.2937500000007,
      "v": 115
    },
    {
      "midi": 62,
      "hit": false,
      "t": 12647.052500000005,
      "d": 735.2937500000007,
      "v": 101
    },
    {
      "midi": 65,
      "hit": false,
      "t": 12647.052500000005,
      "d": 735.2937500000007,
      "v": 101
    },
    {
      "midi": 43,
      "hit": false,
      "t": 13235.287500000006,
      "d": 735.2937500000007,
      "v": 107
    },
    {
      "midi": 59,
      "hit": false,
      "t": 13529.405000000006,
      "d": 294.1175000000003,
      "v": 109
    },
    {
      "midi": 62,
      "hit": false,
      "t": 13529.405000000006,
      "d": 441.17625000000044,
      "v": 97
    },
    {
      "midi": 65,
      "hit": false,
      "t": 13529.405000000006,
      "d": 441.17625000000044,
      "v": 103
    },
    {
      "midi": 50,
      "hit": false,
      "t": 13823.522500000006,
      "d": 143.99502604166628,
      "v": 103
    },
    {
      "midi": 60,
      "hit": false,
      "t": 14117.640000000007,
      "d": 735.2937500000007,
      "v": 109
    },
    {
      "midi": 63,
      "hit": false,
      "t": 14117.640000000007,
      "d": 735.2937500000007,
      "v": 121
    },
    {
      "midi": 67,
      "hit": false,
      "t": 14117.640000000007,
      "d": 735.2937500000007,
      "v": 112
    },
    {
      "midi": 48,
      "hit": false,
      "t": 14705.875000000007,
      "d": 294.1175000000003,
      "v": 109
    },
    {
      "midi": 58,
      "hit": false,
      "t": 14999.992500000008,
      "d": 735.2937500000007,
      "v": 121
    },
    {
      "midi": 62,
      "hit": false,
      "t": 14999.992500000008,
      "d": 735.2937500000007,
      "v": 105
    },
    {
      "midi": 65,
      "hit": false,
      "t": 14999.992500000008,
      "d": 735.2937500000007,
      "v": 95
    },
    {
      "midi": 46,
      "hit": false,
      "t": 15588.227500000008,
      "d": 735.2937500000007,
      "v": 114
    },
    {
      "midi": 58,
      "hit": false,
      "t": 15882.345000000008,
      "d": 441.17625000000044,
      "v": 111
    },
    {
      "midi": 62,
      "hit": false,
      "t": 15882.345000000008,
      "d": 441.17625000000044,
      "v": 97
    },
    {
      "midi": 65,
      "hit": false,
      "t": 15882.345000000008,
      "d": 441.17625000000044,
      "v": 95
    },
    {
      "midi": 53,
      "hit": false,
      "t": 16176.462500000009,
      "d": 143.99502604166628,
      "v": 55
    },
    {
      "midi": 60,
      "hit": false,
      "t": 16470.58000000001,
      "d": 735.2937500000007,
      "v": 105
    },
    {
      "midi": 63,
      "hit": false,
      "t": 16470.58000000001,
      "d": 735.2937500000007,
      "v": 100
    },
    {
      "midi": 67,
      "hit": false,
      "t": 16470.58000000001,
      "d": 735.2937500000007,
      "v": 97
    },
    {
      "midi": 48,
      "hit": false,
      "t": 17058.81500000001,
      "d": 294.1175000000003,
      "v": 107
    },
    {
      "midi": 59,
      "hit": false,
      "t": 17352.93250000001,
      "d": 588.2350000000006,
      "v": 117
    },
    {
      "midi": 62,
      "hit": false,
      "t": 17352.93250000001,
      "d": 735.2937500000007,
      "v": 117
    },
    {
      "midi": 65,
      "hit": false,
      "t": 17352.93250000001,
      "d": 735.2937500000007,
      "v": 117
    },
    {
      "midi": 43,
      "hit": false,
      "t": 17941.16750000001,
      "d": 588.2350000000006,
      "v": 107
    },
    {
      "midi": 59,
      "hit": false,
      "t": 18235.28500000001,
      "d": 294.1175000000003,
      "v": 109
    },
    {
      "midi": 62,
      "hit": false,
      "t": 18235.28500000001,
      "d": 294.1175000000003,
      "v": 107
    },
    {
      "midi": 65,
      "hit": false,
      "t": 18235.28500000001,
      "d": 294.1175000000003,
      "v": 101
    },
    {
      "midi": 50,
      "hit": false,
      "t": 18529.40250000001,
      "d": 143.99502604166628,
      "v": 103
    },
    {
      "midi": 67,
      "hit": false,
      "t": 18823.52000000001,
      "d": 563.7252083333333,
      "v": 80
    },
    {
      "midi": 60,
      "hit": false,
      "t": 18823.52000000001,
      "d": 575.9801041666651,
      "v": 77
    },
    {
      "midi": 63,
      "hit": false,
      "t": 18823.52000000001,
      "d": 591.2987239583308,
      "v": 83
    },
    {
      "midi": 48,
      "hit": false,
      "t": 18823.52000000001,
      "d": 2365.194895833334,
      "v": 83
    },
    {
      "midi": 55,
      "hit": false,
      "t": 19411.75500000001,
      "d": 530.024244791668,
      "v": 66
    },
    {
      "midi": 67,
      "hit": false,
      "t": 19705.87250000001,
      "d": 606.6173437500001,
      "v": 97
    },
    {
      "midi": 63,
      "hit": false,
      "t": 19705.87250000001,
      "d": 634.1908593750013,
      "v": 107
    },
    {
      "midi": 60,
      "hit": false,
      "t": 19705.87250000001,
      "d": 643.3820312500029,
      "v": 94
    },
    {
      "midi": 55,
      "hit": false,
      "t": 20294.10750000001,
      "d": 355.39197916667035,
      "v": 101
    },
    {
      "midi": 60,
      "hit": false,
      "t": 20588.225000000013,
      "d": 453.43114583333227,
      "v": 112
    },
    {
      "midi": 63,
      "hit": false,
      "t": 20588.225000000013,
      "d": 520.8330729166664,
      "v": 124
    },
    {
      "midi": 67,
      "hit": false,
      "t": 20588.225000000013,
      "d": 526.9605208333342,
      "v": 103
    },
    {
      "midi": 55,
      "hit": false,
      "t": 20882.342500000013,
      "d": 287.99005208333256,
      "v": 92
    },
    {
      "midi": 51,
      "hit": false,
      "t": 21176.460000000014,
      "d": 379.9017708333304,
      "v": 70
    },
    {
      "midi": 67,
      "hit": false,
      "t": 21176.460000000014,
      "d": 621.9359635416622,
      "v": 37
    },
    {
      "midi": 58,
      "hit": false,
      "t": 21176.460000000014,
      "d": 628.0634114583299,
      "v": 111
    },
    {
      "midi": 63,
      "hit": false,
      "t": 21176.460000000014,
      "d": 664.8280989583291,
      "v": 65
    },
    {
      "midi": 51,
      "hit": false,
      "t": 21764.69500000001,
      "d": 661.7643749999988,
      "v": 100
    },
    {
      "midi": 67,
      "hit": false,
      "t": 22058.81250000001,
      "d": 591.2987239583308,
      "v": 91
    },
    {
      "midi": 58,
      "hit": false,
      "t": 22058.81250000001,
      "d": 637.2545833333315,
      "v": 97
    },
    {
      "midi": 63,
      "hit": false,
      "t": 22058.81250000001,
      "d": 643.3820312499993,
      "v": 95
    },
    {
      "midi": 51,
      "hit": false,
      "t": 22647.047500000008,
      "d": 349.2645312500026,
      "v": 107
    },
    {
      "midi": 67,
      "hit": false,
      "t": 22941.16500000001,
      "d": 355.3919791666667,
      "v": 95
    },
    {
      "midi": 58,
      "hit": false,
      "t": 22941.16500000001,
      "d": 370.7105989583324,
      "v": 104
    },
    {
      "midi": 63,
      "hit": false,
      "t": 22941.16500000001,
      "d": 431.98507812499884,
      "v": 97
    },
    {
      "midi": 51,
      "hit": false,
      "t": 23235.282500000012,
      "d": 251.22536458333343,
      "v": 92
    },
    {
      "midi": 50,
      "hit": false,
      "t": 23529.400000000012,
      "d": 361.51942708333445,
      "v": 70
    },
    {
      "midi": 62,
      "hit": false,
      "t": 23529.400000000012,
      "d": 643.3820312499993,
      "v": 95
    },
    {
      "midi": 65,
      "hit": false,
      "t": 23529.400000000012,
      "d": 649.509479166667,
      "v": 95
    },
    {
      "midi": 57,
      "hit": false,
      "t": 23529.400000000012,
      "d": 658.7006510416686,
      "v": 80
    },
    {
      "midi": 50,
      "hit": false,
      "t": 24117.635000000013,
      "d": 649.509479166667,
      "v": 86
    },
    {
      "midi": 57,
      "hit": false,
      "t": 24411.752500000013,
      "d": 572.9163802083349,
      "v": 107
    },
    {
      "midi": 65,
      "hit": false,
      "t": 24411.752500000013,
      "d": 572.9163802083349,
      "v": 107
    },
    {
      "midi": 62,
      "hit": false,
      "t": 24411.752500000013,
      "d": 579.0438281250026,
      "v": 103
    },
    {
      "midi": 50,
      "hit": false,
      "t": 24999.987500000017,
      "d": 361.51942708333445,
      "v": 88
    },
    {
      "midi": 57,
      "hit": false,
      "t": 25294.105000000018,
      "d": 438.1125260416702,
      "v": 103
    },
    {
      "midi": 65,
      "hit": false,
      "t": 25294.105000000018,
      "d": 490.19583333333867,
      "v": 109
    },
    {
      "midi": 62,
      "hit": false,
      "t": 25294.105000000018,
      "d": 505.51445312500437,
      "v": 105
    },
    {
      "midi": 50,
      "hit": false,
      "t": 25588.222500000018,
      "d": 91.91171875000146,
      "v": 88
    },
    {
      "midi": 59,
      "hit": false,
      "t": 25882.340000000022,
      "d": 557.5977604166656,
      "v": 101
    },
    {
      "midi": 67,
      "hit": false,
      "t": 25882.340000000022,
      "d": 569.8526562499974,
      "v": 83
    },
    {
      "midi": 62,
      "hit": false,
      "t": 25882.340000000022,
      "d": 591.2987239583308,
      "v": 88
    },
    {
      "midi": 43,
      "hit": false,
      "t": 25882.340000000022,
      "d": 2046.567604166663,
      "v": 65
    },
    {
      "midi": 55,
      "hit": false,
      "t": 26470.57500000002,
      "d": 425.85763020833474,
      "v": 82
    },
    {
      "midi": 59,
      "hit": false,
      "t": 26764.69250000002,
      "d": 594.3624479166683,
      "v": 103
    },
    {
      "midi": 67,
      "hit": false,
      "t": 26764.69250000002,
      "d": 594.3624479166683,
      "v": 97
    },
    {
      "midi": 62,
      "hit": false,
      "t": 26764.69250000002,
      "d": 615.8085156250017,
      "v": 99
    },
    {
      "midi": 55,
      "hit": false,
      "t": 27352.92750000002,
      "d": 330.8821874999994,
      "v": 95
    },
    {
      "midi": 59,
      "hit": false,
      "t": 27647.04500000002,
      "d": 404.4115624999977,
      "v": 105
    },
    {
      "midi": 67,
      "hit": false,
      "t": 27647.04500000002,
      "d": 407.47528645833154,
      "v": 105
    },
    {
      "midi": 62,
      "hit": false,
      "t": 27647.04500000002,
      "d": 468.74976562499796,
      "v": 112
    },
    {
      "midi": 55,
      "hit": false,
      "t": 27941.162500000017,
      "d": 284.9263281250023,
      "v": 101
    },
    {
      "midi": 67,
      "hit": false,
      "t": 28235.28000000002,
      "d": 536.1516927083321,
      "v": 92
    },
    {
      "midi": 60,
      "hit": false,
      "t": 28235.28000000002,
      "d": 579.043828124999,
      "v": 94
    },
    {
      "midi": 63,
      "hit": false,
      "t": 28235.28000000002,
      "d": 594.3624479166683,
      "v": 89
    },
    {
      "midi": 48,
      "hit": false,
      "t": 28235.28000000002,
      "d": 1829.043203125002,
      "v": 86
    },
    {
      "midi": 55,
      "hit": false,
      "t": 28823.51500000002,
      "d": 624.9996874999997,
      "v": 80
    },
    {
      "midi": 67,
      "hit": false,
      "t": 29117.63250000002,
      "d": 582.1075520833328,
      "v": 95
    },
    {
      "midi": 60,
      "hit": false,
      "t": 29117.63250000002,
      "d": 606.6173437500001,
      "v": 97
    },
    {
      "midi": 63,
      "hit": false,
      "t": 29117.63250000002,
      "d": 609.681067708334,
      "v": 114
    },
    {
      "midi": 55,
      "hit": false,
      "t": 29705.867500000022,
      "d": 352.32825520833285,
      "v": 89
    },
    {
      "midi": 60,
      "hit": false,
      "t": 29999.985000000022,
      "d": 352.32825520833285,
      "v": 107
    },
    {
      "midi": 67,
      "hit": false,
      "t": 29999.985000000022,
      "d": 425.8576302083311,
      "v": 105
    },
    {
      "midi": 63,
      "hit": false,
      "t": 29999.985000000022,
      "d": 447.30369791666453,
      "v": 118
    },
    {
      "midi": 48,
      "hit": false,
      "t": 30294.102500000023,
      "d": 370.7105989583288,
      "v": 91
    },
    {
      "midi": 67,
      "hit": false,
      "t": 30588.22000000002,
      "d": 594.3624479166683,
      "v": 86
    },
    {
      "midi": 58,
      "hit": false,
      "t": 30588.22000000002,
      "d": 646.4457552083368,
      "v": 97
    },
    {
      "midi": 63,
      "hit": false,
      "t": 30588.22000000002,
      "d": 680.146718750002,
      "v": 85
    },
    {
      "midi": 51,
      "hit": false,
      "t": 31176.45500000002,
      "d": 603.5536197916663,
      "v": 100
    },
    {
      "midi": 67,
      "hit": false,
      "t": 31470.57250000002,
      "d": 597.4261718750022,
      "v": 89
    },
    {
      "midi": 63,
      "hit": false,
      "t": 31470.57250000002,
      "d": 628.0634114583372,
      "v": 89
    },
    {
      "midi": 58,
      "hit": false,
      "t": 31470.57250000002,
      "d": 631.1271354166711,
      "v": 100
    },
    {
      "midi": 51,
      "hit": false,
      "t": 32058.80750000002,
      "d": 533.0879687500055,
      "v": 100
    },
    {
      "midi": 67,
      "hit": false,
      "t": 32352.925000000025,
      "d": 263.4802604166689,
      "v": 94
    },
    {
      "midi": 58,
      "hit": false,
      "t": 32352.925000000025,
      "d": 275.7351562500007,
      "v": 81
    },
    {
      "midi": 63,
      "hit": false,
      "t": 32352.925000000025,
      "d": 303.3086718750019,
      "v": 83
    },
    {
      "midi": 69,
      "hit": false,
      "t": 32941.160000000025,
      "d": 333.9459114583369,
      "v": 97
    },
    {
      "midi": 62,
      "hit": false,
      "t": 32941.160000000025,
      "d": 343.1370833333349,
      "v": 97
    },
    {
      "midi": 65,
      "hit": false,
      "t": 32941.160000000025,
      "d": 358.4557031250006,
      "v": 107
    },
    {
      "midi": 50,
      "hit": false,
      "t": 32941.160000000025,
      "d": 1145.8327604166625,
      "v": 91
    },
    {
      "midi": 57,
      "hit": false,
      "t": 33235.277500000026,
      "d": 352.32825520833285,
      "v": 91
    },
    {
      "midi": 62,
      "hit": false,
      "t": 33529.395000000026,
      "d": 382.96549479166424,
      "v": 103
    },
    {
      "midi": 69,
      "hit": false,
      "t": 33529.395000000026,
      "d": 431.98507812499884,
      "v": 101
    },
    {
      "midi": 65,
      "hit": false,
      "t": 33529.395000000026,
      "d": 441.1762499999968,
      "v": 117
    },
    {
      "midi": 57,
      "hit": false,
      "t": 33823.512500000026,
      "d": 226.7155729166625,
      "v": 91
    },
    {
      "midi": 59,
      "hit": false,
      "t": 34117.63000000002,
      "d": 453.43114583333227,
      "v": 101
    },
    {
      "midi": 65,
      "hit": false,
      "t": 34117.63000000002,
      "d": 459.55859375,
      "v": 94
    },
    {
      "midi": 62,
      "hit": false,
      "t": 34117.63000000002,
      "d": 462.62231770833023,
      "v": 94
    },
    {
      "midi": 43,
      "hit": false,
      "t": 34411.74750000002,
      "d": 1743.2589322916538,
      "v": 95
    },
    {
      "midi": 59,
      "hit": false,
      "t": 34705.86500000001,
      "d": 364.5831510416683,
      "v": 86
    },
    {
      "midi": 65,
      "hit": false,
      "t": 34705.86500000001,
      "d": 373.7743229166663,
      "v": 99
    },
    {
      "midi": 62,
      "hit": false,
      "t": 34705.86500000001,
      "d": 419.73018229166337,
      "v": 92
    },
    {
      "midi": 55,
      "hit": false,
      "t": 34999.98250000001,
      "d": 382.96549479165697,
      "v": 79
    },
    {
      "midi": 59,
      "hit": false,
      "t": 35294.100000000006,
      "d": 333.9459114583369,
      "v": 88
    },
    {
      "midi": 65,
      "hit": false,
      "t": 35294.100000000006,
      "d": 337.00963541666715,
      "v": 97
    },
    {
      "midi": 62,
      "hit": false,
      "t": 35294.100000000006,
      "d": 346.2008072916651,
      "v": 94
    },
    {
      "midi": 55,
      "hit": false,
      "t": 35588.217500000006,
      "d": 321.69101562500146,
      "v": 97
    },
    {
      "midi": 59,
      "hit": false,
      "t": 35882.33500000001,
      "d": 330.8821874999994,
      "v": 103
    },
    {
      "midi": 62,
      "hit": false,
      "t": 35882.33500000001,
      "d": 349.2645312500026,
      "v": 107
    },
    {
      "midi": 65,
      "hit": false,
      "t": 35882.33500000001,
      "d": 355.39197916667035,
      "v": 107
    },
    {
      "midi": 55,
      "hit": false,
      "t": 36176.45250000001,
      "d": 70.46565104166802,
      "v": 115
    },
    {
      "midi": 60,
      "hit": false,
      "t": 36470.57000000001,
      "d": 370.71059895833605,
      "v": 95
    },
    {
      "midi": 67,
      "hit": false,
      "t": 36470.57000000001,
      "d": 389.09294270833925,
      "v": 89
    },
    {
      "midi": 63,
      "hit": false,
      "t": 36470.57000000001,
      "d": 398.2841145833372,
      "v": 95
    },
    {
      "midi": 48,
      "hit": false,
      "t": 36470.57000000001,
      "d": 2141.543046875013,
      "v": 82
    },
    {
      "midi": 55,
      "hit": false,
      "t": 36764.68750000001,
      "d": 655.6369270833311,
      "v": 66
    },
    {
      "midi": 60,
      "hit": false,
      "t": 37058.80500000001,
      "d": 85.78427083333372,
      "v": 75
    },
    {
      "midi": 63,
      "hit": false,
      "t": 37058.80500000001,
      "d": 88.84799479166395,
      "v": 60
    },
    {
      "midi": 67,
      "hit": false,
      "t": 37058.80500000001,
      "d": 101.10289062499942,
      "v": 55
    },
    {
      "midi": 60,
      "hit": false,
      "t": 37352.92250000001,
      "d": 621.9359635416695,
      "v": 79
    },
    {
      "midi": 67,
      "hit": false,
      "t": 37352.92250000001,
      "d": 628.0634114583372,
      "v": 82
    },
    {
      "midi": 63,
      "hit": false,
      "t": 37352.92250000001,
      "d": 634.190859375005,
      "v": 89
    },
    {
      "midi": 55,
      "hit": false,
      "t": 37941.15750000001,
      "d": 337.0096354166744,
      "v": 71
    },
    {
      "midi": 60,
      "hit": false,
      "t": 38235.275000000016,
      "d": 450.36742187500204,
      "v": 91
    },
    {
      "midi": 67,
      "hit": false,
      "t": 38235.275000000016,
      "d": 465.68604166666773,
      "v": 88
    },
    {
      "midi": 63,
      "hit": false,
      "t": 38235.275000000016,
      "d": 474.8772135416657,
      "v": 92
    },
    {
      "midi": 55,
      "hit": false,
      "t": 38529.392500000016,
      "d": 159.31364583333198,
      "v": 53
    },
    {
      "midi": 67,
      "hit": false,
      "t": 38823.51000000002,
      "d": 624.9996874999997,
      "v": 101
    },
    {
      "midi": 63,
      "hit": false,
      "t": 38823.51000000002,
      "d": 643.3820312500029,
      "v": 107
    },
    {
      "midi": 58,
      "hit": false,
      "t": 39117.62750000002,
      "d": 361.5194270833381,
      "v": 95
    },
    {
      "midi": 51,
      "hit": false,
      "t": 39411.74500000002,
      "d": 572.9163802083422,
      "v": 92
    },
    {
      "midi": 63,
      "hit": false,
      "t": 39705.862500000025,
      "d": 609.681067708334,
      "v": 79
    },
    {
      "midi": 58,
      "hit": false,
      "t": 39705.862500000025,
      "d": 621.9359635416695,
      "v": 97
    },
    {
      "midi": 67,
      "hit": false,
      "t": 39705.862500000025,
      "d": 624.9996874999997,
      "v": 88
    },
    {
      "midi": 51,
      "hit": false,
      "t": 40294.097500000025,
      "d": 364.5831510416683,
      "v": 83
    },
    {
      "midi": 67,
      "hit": false,
      "t": 40588.215000000026,
      "d": 358.4557031250006,
      "v": 89
    },
    {
      "midi": 58,
      "hit": false,
      "t": 40588.215000000026,
      "d": 364.5831510416683,
      "v": 83
    },
    {
      "midi": 63,
      "hit": false,
      "t": 40588.215000000026,
      "d": 493.2595572916689,
      "v": 81
    },
    {
      "midi": 51,
      "hit": false,
      "t": 40882.332500000026,
      "d": 257.35281250000116,
      "v": 81
    },
    {
      "midi": 60,
      "hit": false,
      "t": 41176.450000000026,
      "d": 70.46565104166802,
      "v": 67
    },
    {
      "midi": 68,
      "hit": false,
      "t": 41176.450000000026,
      "d": 658.7006510416686,
      "v": 97
    },
    {
      "midi": 63,
      "hit": false,
      "t": 41176.450000000026,
      "d": 664.8280989583363,
      "v": 87
    },
    {
      "midi": 60,
      "hit": false,
      "t": 41470.56750000003,
      "d": 382.9654947916715,
      "v": 80
    },
    {
      "midi": 44,
      "hit": false,
      "t": 41764.68500000003,
      "d": 309.43611979167326,
      "v": 72
    },
    {
      "midi": 68,
      "hit": false,
      "t": 42058.802500000034,
      "d": 624.9996874999997,
      "v": 92
    },
    {
      "midi": 63,
      "hit": false,
      "t": 42058.802500000034,
      "d": 631.1271354166674,
      "v": 95
    },
    {
      "midi": 60,
      "hit": false,
      "t": 42058.802500000034,
      "d": 643.3820312500029,
      "v": 83
    },
    {
      "midi": 44,
      "hit": false,
      "t": 42647.037500000035,
      "d": 306.37239583333576,
      "v": 72
    },
    {
      "midi": 68,
      "hit": false,
      "t": 42941.155000000035,
      "d": 343.1370833333349,
      "v": 95
    },
    {
      "midi": 60,
      "hit": false,
      "t": 42941.155000000035,
      "d": 352.32825520833285,
      "v": 74
    },
    {
      "midi": 63,
      "hit": false,
      "t": 42941.155000000035,
      "d": 358.4557031250006,
      "v": 92
    },
    {
      "midi": 44,
      "hit": false,
      "t": 43235.272500000036,
      "d": 266.5439843749991,
      "v": 83
    },
    {
      "midi": 68,
      "hit": false,
      "t": 43529.390000000036,
      "d": 490.1958333333314,
      "v": 97
    },
    {
      "midi": 60,
      "hit": false,
      "t": 43529.390000000036,
      "d": 502.45072916666686,
      "v": 88
    },
    {
      "midi": 63,
      "hit": false,
      "t": 43529.390000000036,
      "d": 508.5781770833346,
      "v": 100
    },
    {
      "midi": 44,
      "hit": false,
      "t": 43823.507500000036,
      "d": 24.50979166666366,
      "v": 26
    },
    {
      "midi": 60,
      "hit": false,
      "t": 44117.62500000004,
      "d": 487.13210937500116,
      "v": 83
    },
    {
      "midi": 68,
      "hit": false,
      "t": 44117.62500000004,
      "d": 490.1958333333314,
      "v": 92
    },
    {
      "midi": 63,
      "hit": false,
      "t": 44117.62500000004,
      "d": 502.45072916666686,
      "v": 83
    },
    {
      "midi": 46,
      "hit": false,
      "t": 44117.62500000004,
      "d": 563.7252083333369,
      "v": 87
    },
    {
      "midi": 60,
      "hit": false,
      "t": 44705.86000000004,
      "d": 471.81348958333547,
      "v": 75
    },
    {
      "midi": 68,
      "hit": false,
      "t": 44705.86000000004,
      "d": 499.38700520833663,
      "v": 85
    },
    {
      "midi": 63,
      "hit": false,
      "t": 44705.86000000004,
      "d": 511.6419010416721,
      "v": 81
    },
    {
      "midi": 48,
      "hit": false,
      "t": 44705.86000000004,
      "d": 575.9801041666724,
      "v": 75
    },
    {
      "midi": 60,
      "hit": false,
      "t": 45294.095000000045,
      "d": 193.01460937500087,
      "v": 88
    },
    {
      "midi": 63,
      "hit": false,
      "t": 45294.095000000045,
      "d": 229.779296875,
      "v": 79
    },
    {
      "midi": 51,
      "hit": false,
      "t": 45294.095000000045,
      "d": 242.03419270833547,
      "v": 87
    },
    {
      "midi": 68,
      "hit": false,
      "t": 45294.095000000045,
      "d": 242.03419270833547,
      "v": 83
    },
    {
      "midi": 51,
      "hit": false,
      "t": 45882.33,
      "d": 2049.631328125004,
      "v": 127
    },
    {
      "midi": 51,
      "hit": false,
      "t": 45882.330000000045,
      "d": 2208.944973958329,
      "v": 118
    },
    {
      "midi": 58,
      "hit": false,
      "t": 46176.4475,
      "d": 1767.7687239583393,
      "v": 127
    },
    {
      "midi": 58,
      "hit": false,
      "t": 46176.447500000046,
      "d": 1902.5725781250003,
      "v": 118
    },
    {
      "midi": 67,
      "hit": false,
      "t": 46470.565,
      "d": 413.6027343750029,
      "v": 127
    },
    {
      "midi": 67,
      "hit": false,
      "t": 46470.565000000046,
      "d": 376.8380468750038,
      "v": 99
    },
    {
      "midi": 65,
      "hit": false,
      "t": 46764.6825,
      "d": 1204.0435156250023,
      "v": 127
    },
    {
      "midi": 65,
      "hit": false,
      "t": 46764.682500000046,
      "d": 1335.7836458333259,
      "v": 101
    },
    {
      "midi": 70,
      "hit": false,
      "t": 47352.9175,
      "d": 631.1271354166674,
      "v": 127
    },
    {
      "midi": 63,
      "hit": false,
      "t": 47352.91750000005,
      "d": 729.1663020833294,
      "v": 52
    },
    {
      "midi": 70,
      "hit": false,
      "t": 47352.91750000005,
      "d": 762.867265624991,
      "v": 111
    },
    {
      "midi": 46,
      "hit": false,
      "t": 48235.270000000004,
      "d": 2156.861666666664,
      "v": 127
    },
    {
      "midi": 46,
      "hit": false,
      "t": 48235.27000000004,
      "d": 2190.5626302083256,
      "v": 107
    },
    {
      "midi": 53,
      "hit": false,
      "t": 48529.387500000004,
      "d": 1130.5141406249968,
      "v": 127
    },
    {
      "midi": 58,
      "hit": false,
      "t": 48529.38750000004,
      "d": 903.7985677083343,
      "v": 114
    },
    {
      "midi": 58,
      "hit": false,
      "t": 48823.505000000005,
      "d": 330.8821874999994,
      "v": 127
    },
    {
      "midi": 62,
      "hit": false,
      "t": 48823.50500000004,
      "d": 1593.136458333327,
      "v": 120
    },
    {
      "midi": 62,
      "hit": false,
      "t": 49117.622500000005,
      "d": 1446.0777083333305,
      "v": 127
    },
    {
      "midi": 70,
      "hit": false,
      "t": 49117.62250000004,
      "d": 1289.8277864583288,
      "v": 111
    },
    {
      "midi": 58,
      "hit": false,
      "t": 49705.8575,
      "d": 493.2595572916689,
      "v": 127
    },
    {
      "midi": 58,
      "hit": false,
      "t": 49705.85750000004,
      "d": 695.4653385416677,
      "v": 100
    },
    {
      "midi": 53,
      "hit": false,
      "t": 49999.975,
      "d": 499.38700520833663,
      "v": 127
    },
    {
      "midi": 65,
      "hit": false,
      "t": 49999.97500000004,
      "d": 404.4115624999977,
      "v": 115
    },
    {
      "midi": 58,
      "hit": false,
      "t": 50294.0925,
      "d": 229.779296875,
      "v": 127
    },
    {
      "midi": 48,
      "hit": false,
      "t": 50588.21,
      "d": 1951.5921614583349,
      "v": 127
    },
    {
      "midi": 48,
      "hit": false,
      "t": 50588.210000000036,
      "d": 1887.2539583333346,
      "v": 115
    },
    {
      "midi": 55,
      "hit": false,
      "t": 50882.3275,
      "d": 1608.455078125,
      "v": 127
    },
    {
      "midi": 55,
      "hit": false,
      "t": 50882.327500000036,
      "d": 833.3329166666663,
      "v": 99
    },
    {
      "midi": 60,
      "hit": false,
      "t": 51176.445,
      "d": 876.2250520833331,
      "v": 127
    },
    {
      "midi": 60,
      "hit": false,
      "t": 51176.445000000036,
      "d": 1188.7248958333366,
      "v": 127
    },
    {
      "midi": 67,
      "hit": false,
      "t": 51470.5625,
      "d": 1412.376744791669,
      "v": 127
    },
    {
      "midi": 67,
      "hit": false,
      "t": 51470.56250000004,
      "d": 1384.8032291666677,
      "v": 125
    },
    {
      "midi": 63,
      "hit": false,
      "t": 52058.7975,
      "d": 842.5240885416715,
      "v": 127
    },
    {
      "midi": 55,
      "hit": false,
      "t": 52058.79750000004,
      "d": 379.901770833334,
      "v": 107
    },
    {
      "midi": 63,
      "hit": false,
      "t": 52352.91500000004,
      "d": 514.7056250000023,
      "v": 114
    },
    {
      "midi": 60,
      "hit": false,
      "t": 52647.0325,
      "d": 254.28908854167094,
      "v": 127
    },
    {
      "midi": 60,
      "hit": false,
      "t": 52647.03250000004,
      "d": 235.90674479166773,
      "v": 115
    },
    {
      "midi": 44,
      "hit": false,
      "t": 52941.15000000001,
      "d": 1838.2343749999927,
      "v": 127
    },
    {
      "midi": 44,
      "hit": false,
      "t": 52941.15000000004,
      "d": 2129.28815104167,
      "v": 121
    },
    {
      "midi": 58,
      "hit": false,
      "t": 53235.26750000001,
      "d": 1534.9257031249945,
      "v": 127
    },
    {
      "midi": 58,
      "hit": false,
      "t": 53235.26750000004,
      "d": 1764.7050000000017,
      "v": 124
    },
    {
      "midi": 60,
      "hit": false,
      "t": 53529.38500000001,
      "d": 361.5194270833308,
      "v": 127
    },
    {
      "midi": 60,
      "hit": false,
      "t": 53529.38500000004,
      "d": 327.8184635416692,
      "v": 107
    },
    {
      "midi": 63,
      "hit": false,
      "t": 53823.50250000001,
      "d": 977.3279427083253,
      "v": 127
    },
    {
      "midi": 63,
      "hit": false,
      "t": 53823.50250000004,
      "d": 1148.896484375,
      "v": 111
    },
    {
      "midi": 51,
      "hit": false,
      "t": 54705.85500000004,
      "d": 333.9459114583369,
      "v": 104
    },
    {
      "midi": 60,
      "hit": false,
      "t": 54999.97250000004,
      "d": 116.42151041666511,
      "v": 120
    },
    {
      "midi": 51,
      "hit": false,
      "t": 55294.090000000004,
      "d": 2138.479322916668,
      "v": 127
    },
    {
      "midi": 51,
      "hit": false,
      "t": 55294.09000000004,
      "d": 2018.9940885416654,
      "v": 124
    },
    {
      "midi": 58,
      "hit": false,
      "t": 55588.207500000004,
      "d": 1819.852031250004,
      "v": 127
    },
    {
      "midi": 58,
      "hit": false,
      "t": 55588.20750000004,
      "d": 1731.0040364583328,
      "v": 121
    },
    {
      "midi": 67,
      "hit": false,
      "t": 55882.325000000004,
      "d": 284.9263281250023,
      "v": 127
    },
    {
      "midi": 67,
      "hit": false,
      "t": 55882.32500000004,
      "d": 404.4115624999977,
      "v": 97
    },
    {
      "midi": 66,
      "hit": false,
      "t": 56176.442500000005,
      "d": 15.318619791665697,
      "v": 127
    },
    {
      "midi": 65,
      "hit": false,
      "t": 56176.442500000005,
      "d": 1262.2542708333349,
      "v": 127
    },
    {
      "midi": 65,
      "hit": false,
      "t": 56176.44250000004,
      "d": 1161.1513802083355,
      "v": 97
    },
    {
      "midi": 70,
      "hit": false,
      "t": 56764.677500000005,
      "d": 680.146718750002,
      "v": 127
    },
    {
      "midi": 70,
      "hit": false,
      "t": 56764.67750000004,
      "d": 566.7889322916672,
      "v": 97
    },
    {
      "midi": 46,
      "hit": false,
      "t": 57647.030000000006,
      "d": 1789.2147916666654,
      "v": 127
    },
    {
      "midi": 46,
      "hit": false,
      "t": 57647.03000000004,
      "d": 1776.9598958333372,
      "v": 111
    },
    {
      "midi": 53,
      "hit": false,
      "t": 57941.14750000001,
      "d": 1504.288463541663,
      "v": 127
    },
    {
      "midi": 53,
      "hit": false,
      "t": 57941.14750000004,
      "d": 1488.9698437500047,
      "v": 92
    },
    {
      "midi": 58,
      "hit": false,
      "t": 58235.26500000001,
      "d": 1544.1168749999997,
      "v": 127
    },
    {
      "midi": 58,
      "hit": false,
      "t": 58235.26500000004,
      "d": 1629.9011458333334,
      "v": 118
    },
    {
      "midi": 62,
      "hit": false,
      "t": 58529.38250000001,
      "d": 1249.9993749999994,
      "v": 127
    },
    {
      "midi": 65,
      "hit": false,
      "t": 58529.38250000004,
      "d": 1295.9552343750038,
      "v": 103
    },
    {
      "midi": 65,
      "hit": false,
      "t": 59117.61750000001,
      "d": 655.6369270833311,
      "v": 127
    },
    {
      "midi": 62,
      "hit": false,
      "t": 59117.617500000044,
      "d": 738.3574739583346,
      "v": 97
    },
    {
      "midi": 48,
      "hit": false,
      "t": 59999.97000000001,
      "d": 2233.454765625007,
      "v": 127
    },
    {
      "midi": 48,
      "hit": false,
      "t": 59999.970000000045,
      "d": 2251.837109375003,
      "v": 107
    },
    {
      "midi": 55,
      "hit": false,
      "t": 60294.08750000001,
      "d": 1933.209817708339,
      "v": 127
    },
    {
      "midi": 55,
      "hit": false,
      "t": 60294.087500000045,
      "d": 1957.7196093750026,
      "v": 115
    },
    {
      "midi": 60,
      "hit": false,
      "t": 60588.20500000001,
      "d": 358.4557031250006,
      "v": 127
    },
    {
      "midi": 60,
      "hit": false,
      "t": 60588.205000000045,
      "d": 398.2841145833372,
      "v": 125
    },
    {
      "midi": 63,
      "hit": false,
      "t": 60882.32250000001,
      "d": 297.1812239583305,
      "v": 127
    },
    {
      "midi": 63,
      "hit": false,
      "t": 60882.322500000046,
      "d": 324.7547395833317,
      "v": 121
    },
    {
      "midi": 60,
      "hit": false,
      "t": 61176.44000000001,
      "d": 330.8821874999994,
      "v": 127
    },
    {
      "midi": 60,
      "hit": false,
      "t": 61176.440000000046,
      "d": 367.64687499999854,
      "v": 127
    },
    {
      "midi": 63,
      "hit": false,
      "t": 61470.55750000001,
      "d": 324.7547395833317,
      "v": 127
    },
    {
      "midi": 63,
      "hit": false,
      "t": 61470.557500000046,
      "d": 343.1370833333349,
      "v": 124
    },
    {
      "midi": 65,
      "hit": false,
      "t": 61764.67500000001,
      "d": 278.7988802083346,
      "v": 127
    },
    {
      "midi": 65,
      "hit": false,
      "t": 61764.67500000005,
      "d": 291.05377604167006,
      "v": 107
    },
    {
      "midi": 67,
      "hit": false,
      "t": 62058.79250000001,
      "d": 162.37736979166948,
      "v": 127
    },
    {
      "midi": 67,
      "hit": false,
      "t": 62058.79250000005,
      "d": 226.71557291666977,
      "v": 112
    },
    {
      "midi": 44,
      "hit": false,
      "t": 62352.91000000002,
      "d": 1856.616718749996,
      "v": 127
    },
    {
      "midi": 51,
      "hit": false,
      "t": 62352.91000000005,
      "d": 1403.185572916671,
      "v": 121
    },
    {
      "midi": 44,
      "hit": false,
      "t": 62352.91000000005,
      "d": 2132.3518750000076,
      "v": 100
    },
    {
      "midi": 58,
      "hit": false,
      "t": 62647.02750000002,
      "d": 306.37239583333576,
      "v": 127
    },
    {
      "midi": 58,
      "hit": false,
      "t": 62647.02750000005,
      "d": 297.1812239583305,
      "v": 121
    },
    {
      "midi": 60,
      "hit": false,
      "t": 62941.14500000002,
      "d": 1240.8082031250015,
      "v": 127
    },
    {
      "midi": 60,
      "hit": false,
      "t": 62941.14500000005,
      "d": 1001.8377343750035,
      "v": 115
    },
    {
      "midi": 63,
      "hit": false,
      "t": 63235.26250000002,
      "d": 971.2004947916648,
      "v": 127
    },
    {
      "midi": 63,
      "hit": false,
      "t": 63235.26250000005,
      "d": 692.4016145833375,
      "v": 127
    },
    {
      "midi": 51,
      "hit": false,
      "t": 63823.49750000005,
      "d": 621.9359635416695,
      "v": 118
    },
    {
      "midi": 60,
      "hit": false,
      "t": 64117.61500000005,
      "d": 330.8821874999994,
      "v": 103
    },
    {
      "midi": 63,
      "hit": false,
      "t": 64117.61500000005,
      "d": 349.2645312500026,
      "v": 121
    },
    {
      "midi": 51,
      "hit": false,
      "t": 64705.85000000001,
      "d": 1859.6804427083334,
      "v": 127
    },
    {
      "midi": 51,
      "hit": false,
      "t": 64705.85000000006,
      "d": 1881.1265104166741,
      "v": 124
    },
    {
      "midi": 58,
      "hit": false,
      "t": 64999.96750000001,
      "d": 2043.5038802083436,
      "v": 127
    },
    {
      "midi": 58,
      "hit": false,
      "t": 64999.96750000006,
      "d": 2009.802916666682,
      "v": 124
    },
    {
      "midi": 67,
      "hit": false,
      "t": 65294.085000000014,
      "d": 386.02921874999447,
      "v": 127
    },
    {
      "midi": 63,
      "hit": false,
      "t": 65294.08500000006,
      "d": 82.72054687500349,
      "v": 40
    },
    {
      "midi": 67,
      "hit": false,
      "t": 65294.08500000006,
      "d": 808.8231250000026,
      "v": 99
    },
    {
      "midi": 65,
      "hit": false,
      "t": 65588.20250000001,
      "d": 1427.6953645833419,
      "v": 127
    },
    {
      "midi": 65,
      "hit": false,
      "t": 65588.20250000006,
      "d": 1393.9944010416802,
      "v": 107
    },
    {
      "midi": 63,
      "hit": false,
      "t": 65588.20250000006,
      "d": 1467.5237760416785,
      "v": 4
    },
    {
      "midi": 70,
      "hit": false,
      "t": 66176.43750000001,
      "d": 802.6956770833349,
      "v": 127
    },
    {
      "midi": 67,
      "hit": false,
      "t": 66176.43750000006,
      "d": 39.82841145833663,
      "v": 49
    },
    {
      "midi": 70,
      "hit": false,
      "t": 66176.43750000006,
      "d": 897.6711197916738,
      "v": 121
    },
    {
      "midi": 46,
      "hit": false,
      "t": 67058.79000000002,
      "d": 1706.49424479164,
      "v": 127
    },
    {
      "midi": 46,
      "hit": false,
      "t": 67058.79000000007,
      "d": 1807.5971354166395,
      "v": 107
    },
    {
      "midi": 53,
      "hit": false,
      "t": 67352.90750000002,
      "d": 1446.0777083333087,
      "v": 127
    },
    {
      "midi": 53,
      "hit": false,
      "t": 67352.90750000006,
      "d": 1528.7982552083122,
      "v": 92
    },
    {
      "midi": 58,
      "hit": false,
      "t": 67647.02500000001,
      "d": 1657.4746614583128,
      "v": 127
    },
    {
      "midi": 58,
      "hit": false,
      "t": 67647.02500000005,
      "d": 1706.49424479164,
      "v": 127
    },
    {
      "midi": 65,
      "hit": false,
      "t": 67941.1425,
      "d": 1332.7199218749884,
      "v": 127
    },
    {
      "midi": 65,
      "hit": false,
      "t": 67941.14250000005,
      "d": 1421.5679166666523,
      "v": 107
    },
    {
      "midi": 62,
      "hit": false,
      "t": 68529.3775,
      "d": 713.8476822916564,
      "v": 127
    },
    {
      "midi": 62,
      "hit": false,
      "t": 68529.37750000005,
      "d": 732.2300260416523,
      "v": 101
    },
    {
      "midi": 48,
      "hit": false,
      "t": 69411.72999999998,
      "d": 1847.4255468749761,
      "v": 127
    },
    {
      "midi": 48,
      "hit": false,
      "t": 69411.73000000003,
      "d": 2104.7783593749773,
      "v": 109
    },
    {
      "midi": 55,
      "hit": false,
      "t": 69705.84749999997,
      "d": 1519.6070833333215,
      "v": 127
    },
    {
      "midi": 55,
      "hit": false,
      "t": 69705.84750000002,
      "d": 1770.8324479166477,
      "v": 97
    },
    {
      "midi": 67,
      "hit": false,
      "t": 69999.96499999997,
      "d": 1611.5188020833302,
      "v": 127
    },
    {
      "midi": 60,
      "hit": false,
      "t": 69999.96500000001,
      "d": 1786.151067708328,
      "v": 120
    },
    {
      "midi": 63,
      "hit": false,
      "t": 70294.08249999996,
      "d": 1326.5924739583425,
      "v": 127
    },
    {
      "midi": 67,
      "hit": false,
      "t": 70294.0825,
      "d": 1482.8423958333296,
      "v": 115
    },
    {
      "midi": 63,
      "hit": false,
      "t": 70882.3175,
      "d": 891.5436718749988,
      "v": 118
    },
    {
      "midi": 44,
      "hit": false,
      "t": 71764.66999999997,
      "d": 2061.886223958296,
      "v": 127
    },
    {
      "midi": 44,
      "hit": false,
      "t": 71764.67,
      "d": 2052.695052083305,
      "v": 111
    },
    {
      "midi": 56,
      "hit": false,
      "t": 72058.78749999996,
      "d": 854.7789843749924,
      "v": 127
    },
    {
      "midi": 56,
      "hit": false,
      "t": 72058.7875,
      "d": 925.2446354166459,
      "v": 114
    },
    {
      "midi": 60,
      "hit": false,
      "t": 72352.90499999996,
      "d": 1253.063098958315,
      "v": 127
    },
    {
      "midi": 60,
      "hit": false,
      "t": 72352.905,
      "d": 1498.1610156249808,
      "v": 127
    },
    {
      "midi": 68,
      "hit": false,
      "t": 72647.02249999995,
      "d": 1240.8082031249796,
      "v": 127
    },
    {
      "midi": 68,
      "hit": false,
      "t": 72647.02249999999,
      "d": 1210.1709635416482,
      "v": 121
    },
    {
      "midi": 56,
      "hit": false,
      "t": 73235.25749999995,
      "d": 591.2987239583163,
      "v": 127
    },
    {
      "midi": 56,
      "hit": false,
      "t": 73235.25749999998,
      "d": 591.2987239583308,
      "v": 100
    },
    {
      "midi": 63,
      "hit": false,
      "t": 73529.37499999994,
      "d": 367.64687499999127,
      "v": 127
    },
    {
      "midi": 63,
      "hit": false,
      "t": 73529.37499999997,
      "d": 346.2008072916651,
      "v": 124
    },
    {
      "midi": 48,
      "hit": false,
      "t": 74117.60999999993,
      "d": 1283.7003385416465,
      "v": 127
    },
    {
      "midi": 67,
      "hit": false,
      "t": 74117.60999999997,
      "d": 563.7252083333296,
      "v": 80
    },
    {
      "midi": 60,
      "hit": false,
      "t": 74117.60999999997,
      "d": 575.9801041666651,
      "v": 77
    },
    {
      "midi": 63,
      "hit": false,
      "t": 74117.60999999997,
      "d": 591.2987239583308,
      "v": 83
    },
    {
      "midi": 48,
      "hit": false,
      "t": 74117.60999999997,
      "d": 2365.1948958333232,
      "v": 83
    },
    {
      "midi": 51,
      "hit": false,
      "t": 74411.72749999992,
      "d": 575.9801041666651,
      "v": 127
    },
    {
      "midi": 63,
      "hit": false,
      "t": 74705.84499999991,
      "d": 523.8967968750076,
      "v": 127
    },
    {
      "midi": 55,
      "hit": false,
      "t": 74705.84499999997,
      "d": 530.0242447916535,
      "v": 66
    },
    {
      "midi": 55,
      "hit": false,
      "t": 74999.96249999992,
      "d": 759.8035416666535,
      "v": 127
    },
    {
      "midi": 67,
      "hit": false,
      "t": 74999.96249999997,
      "d": 606.6173437499965,
      "v": 97
    },
    {
      "midi": 63,
      "hit": false,
      "t": 74999.96249999997,
      "d": 634.1908593749977,
      "v": 107
    },
    {
      "midi": 60,
      "hit": false,
      "t": 74999.96249999997,
      "d": 643.3820312500029,
      "v": 94
    },
    {
      "midi": 62,
      "hit": false,
      "t": 75294.07999999991,
      "d": 569.8526562499901,
      "v": 127
    },
    {
      "midi": 51,
      "hit": false,
      "t": 75588.19749999991,
      "d": 615.8085156249872,
      "v": 127
    },
    {
      "midi": 55,
      "hit": false,
      "t": 75588.19749999997,
      "d": 355.39197916667035,
      "v": 101
    },
    {
      "midi": 60,
      "hit": false,
      "t": 75882.3149999999,
      "d": 652.573203124979,
      "v": 127
    },
    {
      "midi": 60,
      "hit": false,
      "t": 75882.31499999997,
      "d": 453.431145833325,
      "v": 112
    },
    {
      "midi": 63,
      "hit": false,
      "t": 75882.31499999997,
      "d": 520.8330729166628,
      "v": 124
    },
    {
      "midi": 67,
      "hit": false,
      "t": 75882.31499999997,
      "d": 526.9605208333232,
      "v": 103
    },
    {
      "midi": 48,
      "hit": false,
      "t": 76176.4324999999,
      "d": 287.99005208333256,
      "v": 127
    },
    {
      "midi": 55,
      "hit": false,
      "t": 76176.43249999997,
      "d": 287.99005208333256,
      "v": 92
    },
    {
      "midi": 46,
      "hit": false,
      "t": 76470.54999999989,
      "d": 438.1125260416593,
      "v": 127
    },
    {
      "midi": 51,
      "hit": false,
      "t": 76470.54999999996,
      "d": 379.9017708333413,
      "v": 70
    },
    {
      "midi": 67,
      "hit": false,
      "t": 76470.54999999996,
      "d": 621.9359635416768,
      "v": 37
    },
    {
      "midi": 58,
      "hit": false,
      "t": 76470.54999999996,
      "d": 628.0634114583372,
      "v": 111
    },
    {
      "midi": 63,
      "hit": false,
      "t": 76470.54999999996,
      "d": 664.8280989583436,
      "v": 65
    },
    {
      "midi": 51,
      "hit": false,
      "t": 76764.66749999988,
      "d": 563.7252083333296,
      "v": 127
    },
    {
      "midi": 63,
      "hit": false,
      "t": 77058.78499999987,
      "d": 481.0046614583407,
      "v": 127
    },
    {
      "midi": 51,
      "hit": false,
      "t": 77058.78499999997,
      "d": 661.7643749999988,
      "v": 100
    },
    {
      "midi": 55,
      "hit": false,
      "t": 77352.90249999988,
      "d": 640.3183072916581,
      "v": 127
    },
    {
      "midi": 67,
      "hit": false,
      "t": 77352.90249999997,
      "d": 591.2987239583308,
      "v": 91
    },
    {
      "midi": 58,
      "hit": false,
      "t": 77352.90249999997,
      "d": 637.2545833333279,
      "v": 97
    },
    {
      "midi": 63,
      "hit": false,
      "t": 77352.90249999997,
      "d": 643.3820312499884,
      "v": 95
    },
    {
      "midi": 62,
      "hit": false,
      "t": 77647.01999999987,
      "d": 548.406588541664,
      "v": 127
    },
    {
      "midi": 51,
      "hit": false,
      "t": 77941.13749999987,
      "d": 799.6319531250047,
      "v": 127
    },
    {
      "midi": 51,
      "hit": false,
      "t": 77941.13749999997,
      "d": 349.26453124999534,
      "v": 107
    },
    {
      "midi": 60,
      "hit": false,
      "t": 78235.25499999987,
      "d": 297.18122395832324,
      "v": 127
    },
    {
      "midi": 67,
      "hit": false,
      "t": 78235.25499999996,
      "d": 355.39197916667035,
      "v": 95
    },
    {
      "midi": 58,
      "hit": false,
      "t": 78235.25499999996,
      "d": 370.71059895833605,
      "v": 104
    },
    {
      "midi": 63,
      "hit": false,
      "t": 78235.25499999996,
      "d": 431.98507812499884,
      "v": 97
    },
    {
      "midi": 58,
      "hit": false,
      "t": 78529.37249999987,
      "d": 217.52440104166453,
      "v": 127
    },
    {
      "midi": 51,
      "hit": false,
      "t": 78529.37249999997,
      "d": 251.22536458332615,
      "v": 92
    },
    {
      "midi": 50,
      "hit": false,
      "t": 78823.48999999986,
      "d": 2110.905807291623,
      "v": 127
    },
    {
      "midi": 50,
      "hit": false,
      "t": 78823.48999999996,
      "d": 361.5194270833308,
      "v": 70
    },
    {
      "midi": 62,
      "hit": false,
      "t": 78823.48999999996,
      "d": 643.3820312500029,
      "v": 95
    },
    {
      "midi": 65,
      "hit": false,
      "t": 78823.48999999996,
      "d": 649.5094791666634,
      "v": 95
    },
    {
      "midi": 57,
      "hit": false,
      "t": 78823.48999999996,
      "d": 658.7006510416686,
      "v": 80
    },
    {
      "midi": 57,
      "hit": false,
      "t": 79117.60749999985,
      "d": 471.8134895833209,
      "v": 127
    },
    {
      "midi": 65,
      "hit": false,
      "t": 79411.72499999985,
      "d": 545.3428645833192,
      "v": 127
    },
    {
      "midi": 50,
      "hit": false,
      "t": 79411.72499999996,
      "d": 649.5094791666779,
      "v": 86
    },
    {
      "midi": 57,
      "hit": false,
      "t": 79705.84249999984,
      "d": 781.2496093749796,
      "v": 127
    },
    {
      "midi": 57,
      "hit": false,
      "t": 79705.84249999997,
      "d": 572.9163802083349,
      "v": 107
    },
    {
      "midi": 65,
      "hit": false,
      "t": 79705.84249999997,
      "d": 572.9163802083349,
      "v": 107
    },
    {
      "midi": 62,
      "hit": false,
      "t": 79705.84249999997,
      "d": 579.0438281249953,
      "v": 103
    },
    {
      "midi": 64,
      "hit": false,
      "t": 79999.95999999983,
      "d": 557.5977604166546,
      "v": 127
    },
    {
      "midi": 53,
      "hit": false,
      "t": 80294.07749999982,
      "d": 674.0192708333198,
      "v": 127
    },
    {
      "midi": 50,
      "hit": false,
      "t": 80294.07749999997,
      "d": 361.5194270833308,
      "v": 88
    },
    {
      "midi": 62,
      "hit": false,
      "t": 80588.19499999982,
      "d": 548.406588541664,
      "v": 127
    },
    {
      "midi": 57,
      "hit": false,
      "t": 80588.19499999996,
      "d": 438.11252604167385,
      "v": 103
    },
    {
      "midi": 65,
      "hit": false,
      "t": 80588.19499999996,
      "d": 490.19583333334594,
      "v": 109
    },
    {
      "midi": 62,
      "hit": false,
      "t": 80588.19499999996,
      "d": 505.51445312501164,
      "v": 105
    },
    {
      "midi": 57,
      "hit": false,
      "t": 80882.31249999981,
      "d": 82.72054687500349,
      "v": 127
    },
    {
      "midi": 50,
      "hit": false,
      "t": 80882.31249999997,
      "d": 91.91171874999418,
      "v": 88
    },
    {
      "midi": 43,
      "hit": false,
      "t": 81176.42999999982,
      "d": 2132.351874999964,
      "v": 127
    },
    {
      "midi": 59,
      "hit": false,
      "t": 81176.42999999998,
      "d": 557.5977604166692,
      "v": 101
    },
    {
      "midi": 67,
      "hit": false,
      "t": 81176.42999999998,
      "d": 569.8526562500047,
      "v": 83
    },
    {
      "midi": 62,
      "hit": false,
      "t": 81176.42999999998,
      "d": 591.2987239583308,
      "v": 88
    },
    {
      "midi": 43,
      "hit": false,
      "t": 81176.42999999998,
      "d": 2046.5676041666593,
      "v": 65
    },
    {
      "midi": 50,
      "hit": false,
      "t": 81470.54749999981,
      "d": 382.96549479165697,
      "v": 127
    },
    {
      "midi": 59,
      "hit": false,
      "t": 81764.6649999998,
      "d": 569.8526562499901,
      "v": 127
    },
    {
      "midi": 55,
      "hit": false,
      "t": 81764.66499999998,
      "d": 425.8576302083238,
      "v": 82
    },
    {
      "midi": 50,
      "hit": false,
      "t": 82058.7824999998,
      "d": 352.3282552083256,
      "v": 127
    },
    {
      "midi": 59,
      "hit": false,
      "t": 82058.78249999997,
      "d": 594.362447916661,
      "v": 103
    },
    {
      "midi": 67,
      "hit": false,
      "t": 82058.78249999997,
      "d": 594.362447916661,
      "v": 97
    },
    {
      "midi": 62,
      "hit": false,
      "t": 82058.78249999997,
      "d": 615.8085156249872,
      "v": 99
    },
    {
      "midi": 60,
      "hit": false,
      "t": 82352.89999999979,
      "d": 563.7252083333296,
      "v": 127
    },
    {
      "midi": 50,
      "hit": false,
      "t": 82647.01749999978,
      "d": 337.0096354166744,
      "v": 127
    },
    {
      "midi": 55,
      "hit": false,
      "t": 82647.01749999997,
      "d": 330.8821874999994,
      "v": 95
    },
    {
      "midi": 62,
      "hit": false,
      "t": 82941.13499999979,
      "d": 389.0929427083174,
      "v": 127
    },
    {
      "midi": 59,
      "hit": false,
      "t": 82941.13499999997,
      "d": 404.4115625000122,
      "v": 105
    },
    {
      "midi": 67,
      "hit": false,
      "t": 82941.13499999997,
      "d": 407.47528645834245,
      "v": 105
    },
    {
      "midi": 62,
      "hit": false,
      "t": 82941.13499999997,
      "d": 468.74976562500524,
      "v": 112
    },
    {
      "midi": 50,
      "hit": false,
      "t": 83235.25249999978,
      "d": 128.67640624998603,
      "v": 127
    },
    {
      "midi": 55,
      "hit": false,
      "t": 83235.25249999997,
      "d": 284.9263281250023,
      "v": 101
    },
    {
      "midi": 48,
      "hit": false,
      "t": 83529.36999999978,
      "d": 735.2937499999825,
      "v": 127
    },
    {
      "midi": 67,
      "hit": false,
      "t": 83529.36999999998,
      "d": 536.1516927083285,
      "v": 92
    },
    {
      "midi": 60,
      "hit": false,
      "t": 83529.36999999998,
      "d": 579.0438281249953,
      "v": 94
    },
    {
      "midi": 63,
      "hit": false,
      "t": 83529.36999999998,
      "d": 594.362447916661,
      "v": 89
    },
    {
      "midi": 48,
      "hit": false,
      "t": 83529.36999999998,
      "d": 1829.0432031249657,
      "v": 86
    },
    {
      "midi": 55,
      "hit": false,
      "t": 83823.48749999977,
      "d": 664.8280989583145,
      "v": 127
    },
    {
      "midi": 63,
      "hit": false,
      "t": 84117.60499999976,
      "d": 481.00466145832615,
      "v": 127
    },
    {
      "midi": 55,
      "hit": false,
      "t": 84117.60499999998,
      "d": 624.9996874999924,
      "v": 80
    },
    {
      "midi": 51,
      "hit": false,
      "t": 84411.72249999976,
      "d": 585.1712760416558,
      "v": 127
    },
    {
      "midi": 67,
      "hit": false,
      "t": 84411.72249999997,
      "d": 582.1075520833256,
      "v": 95
    },
    {
      "midi": 60,
      "hit": false,
      "t": 84411.72249999997,
      "d": 606.617343749982,
      "v": 97
    },
    {
      "midi": 63,
      "hit": false,
      "t": 84411.72249999997,
      "d": 609.6810677083122,
      "v": 114
    },
    {
      "midi": 62,
      "hit": false,
      "t": 84705.83999999975,
      "d": 517.7693489583326,
      "v": 127
    },
    {
      "midi": 55,
      "hit": false,
      "t": 84999.95749999974,
      "d": 646.4457552083331,
      "v": 127
    },
    {
      "midi": 55,
      "hit": false,
      "t": 84999.95749999996,
      "d": 352.3282552083256,
      "v": 89
    },
    {
      "midi": 60,
      "hit": false,
      "t": 85294.07499999975,
      "d": 560.6614843749994,
      "v": 127
    },
    {
      "midi": 60,
      "hit": false,
      "t": 85294.07499999995,
      "d": 352.3282552083256,
      "v": 107
    },
    {
      "midi": 67,
      "hit": false,
      "t": 85294.07499999995,
      "d": 425.8576302083238,
      "v": 105
    },
    {
      "midi": 63,
      "hit": false,
      "t": 85294.07499999995,
      "d": 447.30369791665,
      "v": 118
    },
    {
      "midi": 51,
      "hit": false,
      "t": 85588.19249999974,
      "d": 238.97046875000524,
      "v": 127
    },
    {
      "midi": 48,
      "hit": false,
      "t": 85588.19249999995,
      "d": 370.7105989583215,
      "v": 91
    },
    {
      "midi": 46,
      "hit": false,
      "t": 85882.30999999975,
      "d": 2294.7292447916407,
      "v": 127
    },
    {
      "midi": 67,
      "hit": false,
      "t": 85882.30999999994,
      "d": 594.362447916661,
      "v": 86
    },
    {
      "midi": 58,
      "hit": false,
      "t": 85882.30999999994,
      "d": 646.4457552083331,
      "v": 97
    },
    {
      "midi": 63,
      "hit": false,
      "t": 85882.30999999994,
      "d": 680.1467187499948,
      "v": 85
    },
    {
      "midi": 55,
      "hit": false,
      "t": 86176.42749999974,
      "d": 575.9801041666651,
      "v": 127
    },
    {
      "midi": 63,
      "hit": false,
      "t": 86470.54499999974,
      "d": 419.7301822916779,
      "v": 127
    },
    {
      "midi": 51,
      "hit": false,
      "t": 86470.54499999994,
      "d": 603.5536197916663,
      "v": 100
    },
    {
      "midi": 51,
      "hit": false,
      "t": 86764.66249999974,
      "d": 1029.41124999999,
      "v": 127
    },
    {
      "midi": 67,
      "hit": false,
      "t": 86764.66249999993,
      "d": 597.4261718750058,
      "v": 89
    },
    {
      "midi": 63,
      "hit": false,
      "t": 86764.66249999993,
      "d": 628.0634114583372,
      "v": 89
    },
    {
      "midi": 58,
      "hit": false,
      "t": 86764.66249999993,
      "d": 631.1271354166674,
      "v": 100
    },
    {
      "midi": 62,
      "hit": false,
      "t": 87058.77999999975,
      "d": 530.0242447916535,
      "v": 127
    },
    {
      "midi": 55,
      "hit": false,
      "t": 87352.89749999974,
      "d": 824.1417447916465,
      "v": 127
    },
    {
      "midi": 51,
      "hit": false,
      "t": 87352.89749999993,
      "d": 533.0879687499983,
      "v": 100
    },
    {
      "midi": 60,
      "hit": false,
      "t": 87647.01499999974,
      "d": 428.92135416665406,
      "v": 127
    },
    {
      "midi": 67,
      "hit": false,
      "t": 87647.01499999993,
      "d": 263.4802604166762,
      "v": 94
    },
    {
      "midi": 58,
      "hit": false,
      "t": 87647.01499999993,
      "d": 275.73515625001164,
      "v": 81
    },
    {
      "midi": 63,
      "hit": false,
      "t": 87647.01499999993,
      "d": 303.3086718750128,
      "v": 83
    },
    {
      "midi": 51,
      "hit": false,
      "t": 87941.13249999973,
      "d": 205.26950520832906,
      "v": 127
    },
    {
      "midi": 50,
      "hit": false,
      "t": 88235.24999999972,
      "d": 867.0338802083279,
      "v": 127
    },
    {
      "midi": 69,
      "hit": false,
      "t": 88235.24999999994,
      "d": 333.94591145832965,
      "v": 97
    },
    {
      "midi": 62,
      "hit": false,
      "t": 88235.24999999994,
      "d": 343.1370833333349,
      "v": 97
    },
    {
      "midi": 65,
      "hit": false,
      "t": 88235.24999999994,
      "d": 358.4557031250006,
      "v": 107
    },
    {
      "midi": 50,
      "hit": false,
      "t": 88235.24999999994,
      "d": 1145.8327604166698,
      "v": 91
    },
    {
      "midi": 57,
      "hit": false,
      "t": 88529.36749999972,
      "d": 548.406588541664,
      "v": 127
    },
    {
      "midi": 57,
      "hit": false,
      "t": 88529.36749999993,
      "d": 352.3282552083401,
      "v": 91
    },
    {
      "midi": 65,
      "hit": false,
      "t": 88823.48499999971,
      "d": 594.362447916661,
      "v": 127
    },
    {
      "midi": 69,
      "hit": false,
      "t": 88823.48499999971,
      "d": 594.362447916661,
      "v": 127
    },
    {
      "midi": 62,
      "hit": false,
      "t": 88823.48499999994,
      "d": 382.96549479165697,
      "v": 103
    },
    {
      "midi": 69,
      "hit": false,
      "t": 88823.48499999994,
      "d": 431.9850781249843,
      "v": 101
    },
    {
      "midi": 65,
      "hit": false,
      "t": 88823.48499999994,
      "d": 441.1762499999895,
      "v": 117
    },
    {
      "midi": 62,
      "hit": false,
      "t": 89117.60249999972,
      "d": 291.0537760416628,
      "v": 127
    },
    {
      "midi": 57,
      "hit": false,
      "t": 89117.60249999994,
      "d": 226.71557291666977,
      "v": 91
    },
    {
      "midi": 43,
      "hit": false,
      "t": 89411.71999999971,
      "d": 762.8672656249837,
      "v": 127
    },
    {
      "midi": 59,
      "hit": false,
      "t": 89411.71999999994,
      "d": 453.431145833325,
      "v": 101
    },
    {
      "midi": 65,
      "hit": false,
      "t": 89411.71999999994,
      "d": 459.55859374998545,
      "v": 94
    },
    {
      "midi": 62,
      "hit": false,
      "t": 89411.71999999994,
      "d": 462.6223177083157,
      "v": 94
    },
    {
      "midi": 55,
      "hit": false,
      "t": 89705.8374999997,
      "d": 557.5977604166546,
      "v": 127
    },
    {
      "midi": 43,
      "hit": false,
      "t": 89705.83749999994,
      "d": 1743.2589322916465,
      "v": 95
    },
    {
      "midi": 62,
      "hit": false,
      "t": 89999.9549999997,
      "d": 490.1958333333314,
      "v": 127
    },
    {
      "midi": 67,
      "hit": false,
      "t": 89999.9549999997,
      "d": 502.45072916666686,
      "v": 127
    },
    {
      "midi": 59,
      "hit": false,
      "t": 89999.95499999993,
      "d": 364.58315104166104,
      "v": 86
    },
    {
      "midi": 65,
      "hit": false,
      "t": 89999.95499999993,
      "d": 373.7743229166663,
      "v": 99
    },
    {
      "midi": 62,
      "hit": false,
      "t": 89999.95499999993,
      "d": 419.73018229166337,
      "v": 92
    },
    {
      "midi": 55,
      "hit": false,
      "t": 90294.07249999992,
      "d": 382.9654947916715,
      "v": 79
    },
    {
      "midi": 48,
      "hit": false,
      "t": 90588.1899999997,
      "d": 2123.1607031249587,
      "v": 127
    },
    {
      "midi": 60,
      "hit": false,
      "t": 90588.18999999993,
      "d": 370.7105989583215,
      "v": 95
    },
    {
      "midi": 67,
      "hit": false,
      "t": 90588.18999999993,
      "d": 389.0929427083174,
      "v": 89
    },
    {
      "midi": 63,
      "hit": false,
      "t": 90588.18999999993,
      "d": 398.28411458332266,
      "v": 95
    },
    {
      "midi": 48,
      "hit": false,
      "t": 90588.18999999993,
      "d": 2141.5430468749546,
      "v": 82
    },
    {
      "midi": 55,
      "hit": false,
      "t": 90882.30749999969,
      "d": 447.30369791666453,
      "v": 127
    },
    {
      "midi": 55,
      "hit": false,
      "t": 90882.30749999992,
      "d": 655.6369270833238,
      "v": 66
    },
    {
      "midi": 67,
      "hit": false,
      "t": 91176.42499999968,
      "d": 643.3820312500029,
      "v": 127
    },
    {
      "midi": 63,
      "hit": false,
      "t": 91176.42499999968,
      "d": 649.5094791666634,
      "v": 127
    },
    {
      "midi": 60,
      "hit": false,
      "t": 91176.42499999992,
      "d": 85.78427083333372,
      "v": 75
    },
    {
      "midi": 63,
      "hit": false,
      "t": 91176.42499999992,
      "d": 88.84799479166395,
      "v": 60
    },
    {
      "midi": 67,
      "hit": false,
      "t": 91176.42499999992,
      "d": 101.10289062499942,
      "v": 55
    },
    {
      "midi": 60,
      "hit": false,
      "t": 91470.54249999969,
      "d": 352.3282552083256,
      "v": 127
    },
    {
      "midi": 60,
      "hit": false,
      "t": 91470.54249999991,
      "d": 621.9359635416622,
      "v": 79
    },
    {
      "midi": 67,
      "hit": false,
      "t": 91470.54249999991,
      "d": 628.0634114583227,
      "v": 82
    },
    {
      "midi": 63,
      "hit": false,
      "t": 91470.54249999991,
      "d": 634.1908593749831,
      "v": 89
    },
    {
      "midi": 55,
      "hit": false,
      "t": 91764.65999999968,
      "d": 986.5191145833087,
      "v": 127
    },
    {
      "midi": 60,
      "hit": false,
      "t": 92058.77749999968,
      "d": 352.3282552083256,
      "v": 127
    },
    {
      "midi": 55,
      "hit": false,
      "t": 92058.77749999991,
      "d": 337.0096354166453,
      "v": 71
    },
    {
      "midi": 67,
      "hit": false,
      "t": 92352.89499999967,
      "d": 612.744791666657,
      "v": 127
    },
    {
      "midi": 63,
      "hit": false,
      "t": 92352.89499999967,
      "d": 618.8722395833174,
      "v": 127
    },
    {
      "midi": 60,
      "hit": false,
      "t": 92352.89499999989,
      "d": 450.36742187499476,
      "v": 91
    },
    {
      "midi": 67,
      "hit": false,
      "t": 92352.89499999989,
      "d": 465.68604166666046,
      "v": 88
    },
    {
      "midi": 63,
      "hit": false,
      "t": 92352.89499999989,
      "d": 474.8772135416657,
      "v": 92
    },
    {
      "midi": 60,
      "hit": false,
      "t": 92647.01249999966,
      "d": 281.86260416665755,
      "v": 127
    },
    {
      "midi": 55,
      "hit": false,
      "t": 92647.01249999988,
      "d": 159.31364583333198,
      "v": 53
    },
    {
      "midi": 46,
      "hit": false,
      "t": 92941.12999999966,
      "d": 2107.842083333293,
      "v": 127
    },
    {
      "midi": 67,
      "hit": false,
      "t": 92941.12999999989,
      "d": 624.9996874999924,
      "v": 101
    },
    {
      "midi": 63,
      "hit": false,
      "t": 92941.12999999989,
      "d": 643.3820312499884,
      "v": 107
    },
    {
      "midi": 55,
      "hit": false,
      "t": 93235.24749999965,
      "d": 1222.4258593749837,
      "v": 127
    },
    {
      "midi": 58,
      "hit": false,
      "t": 93235.24749999988,
      "d": 361.5194270833308,
      "v": 95
    },
    {
      "midi": 58,
      "hit": false,
      "t": 93529.36499999964,
      "d": 275.7351562499971,
      "v": 127
    },
    {
      "midi": 51,
      "hit": false,
      "t": 93529.36499999987,
      "d": 572.9163802083349,
      "v": 92
    },
    {
      "midi": 63,
      "hit": false,
      "t": 93823.48249999963,
      "d": 615.8085156250017,
      "v": 127
    },
    {
      "midi": 67,
      "hit": false,
      "t": 93823.48249999963,
      "d": 618.872239583332,
      "v": 127
    },
    {
      "midi": 63,
      "hit": false,
      "t": 93823.48249999988,
      "d": 609.6810677083267,
      "v": 79
    },
    {
      "midi": 58,
      "hit": false,
      "t": 93823.48249999988,
      "d": 621.9359635416622,
      "v": 97
    },
    {
      "midi": 67,
      "hit": false,
      "t": 93823.48249999988,
      "d": 624.9996874999924,
      "v": 88
    },
    {
      "midi": 51,
      "hit": false,
      "t": 94411.71749999964,
      "d": 609.6810677083122,
      "v": 127
    },
    {
      "midi": 51,
      "hit": false,
      "t": 94411.71749999988,
      "d": 364.58315104166104,
      "v": 83
    },
    {
      "midi": 63,
      "hit": false,
      "t": 94705.83499999963,
      "d": 566.7889322916453,
      "v": 127
    },
    {
      "midi": 67,
      "hit": false,
      "t": 94705.83499999963,
      "d": 566.7889322916453,
      "v": 127
    },
    {
      "midi": 67,
      "hit": false,
      "t": 94705.83499999988,
      "d": 358.4557031250006,
      "v": 89
    },
    {
      "midi": 58,
      "hit": false,
      "t": 94705.83499999988,
      "d": 364.58315104166104,
      "v": 83
    },
    {
      "midi": 63,
      "hit": false,
      "t": 94705.83499999988,
      "d": 493.2595572916616,
      "v": 81
    },
    {
      "midi": 58,
      "hit": false,
      "t": 94999.95249999962,
      "d": 266.54398437499185,
      "v": 127
    },
    {
      "midi": 51,
      "hit": false,
      "t": 94999.95249999988,
      "d": 257.3528124999866,
      "v": 81
    },
    {
      "midi": 44,
      "hit": false,
      "t": 95294.0699999996,
      "d": 2089.459739583297,
      "v": 127
    },
    {
      "midi": 60,
      "hit": false,
      "t": 95294.06999999988,
      "d": 70.46565104166802,
      "v": 67
    },
    {
      "midi": 68,
      "hit": false,
      "t": 95294.06999999988,
      "d": 658.7006510416686,
      "v": 97
    },
    {
      "midi": 63,
      "hit": false,
      "t": 95294.06999999988,
      "d": 664.8280989583291,
      "v": 87
    },
    {
      "midi": 56,
      "hit": false,
      "t": 95588.18749999959,
      "d": 655.6369270833238,
      "v": 127
    },
    {
      "midi": 60,
      "hit": false,
      "t": 95588.18749999988,
      "d": 382.96549479165697,
      "v": 80
    },
    {
      "midi": 60,
      "hit": false,
      "t": 95882.30499999959,
      "d": 361.5194270833308,
      "v": 127
    },
    {
      "midi": 44,
      "hit": false,
      "t": 95882.30499999988,
      "d": 309.4361197916587,
      "v": 72
    },
    {
      "midi": 68,
      "hit": false,
      "t": 96176.42249999958,
      "d": 594.362447916661,
      "v": 127
    },
    {
      "midi": 63,
      "hit": false,
      "t": 96176.42249999958,
      "d": 603.5536197916663,
      "v": 127
    },
    {
      "midi": 68,
      "hit": false,
      "t": 96176.42249999987,
      "d": 624.999687500007,
      "v": 92
    },
    {
      "midi": 63,
      "hit": false,
      "t": 96176.42249999987,
      "d": 631.1271354166674,
      "v": 95
    },
    {
      "midi": 60,
      "hit": false,
      "t": 96176.42249999987,
      "d": 643.3820312500029,
      "v": 83
    },
    {
      "midi": 56,
      "hit": false,
      "t": 96764.65749999958,
      "d": 382.96549479165697,
      "v": 127
    },
    {
      "midi": 44,
      "hit": false,
      "t": 96764.65749999987,
      "d": 306.37239583334303,
      "v": 72
    },
    {
      "midi": 68,
      "hit": false,
      "t": 97058.77499999957,
      "d": 591.2987239583163,
      "v": 127
    },
    {
      "midi": 63,
      "hit": false,
      "t": 97058.77499999957,
      "d": 609.6810677083122,
      "v": 127
    },
    {
      "midi": 68,
      "hit": false,
      "t": 97058.77499999988,
      "d": 343.1370833333349,
      "v": 95
    },
    {
      "midi": 60,
      "hit": false,
      "t": 97058.77499999988,
      "d": 352.3282552083401,
      "v": 74
    },
    {
      "midi": 63,
      "hit": false,
      "t": 97058.77499999988,
      "d": 358.4557031250006,
      "v": 92
    },
    {
      "midi": 60,
      "hit": false,
      "t": 97352.89249999957,
      "d": 318.6272916666494,
      "v": 127
    },
    {
      "midi": 44,
      "hit": false,
      "t": 97352.89249999989,
      "d": 266.54398437499185,
      "v": 83
    },
    {
      "midi": 44,
      "hit": false,
      "t": 97647.00999999956,
      "d": 1994.4842968749872,
      "v": 127
    },
    {
      "midi": 68,
      "hit": false,
      "t": 97647.00999999988,
      "d": 490.1958333333314,
      "v": 97
    },
    {
      "midi": 60,
      "hit": false,
      "t": 97647.00999999988,
      "d": 502.45072916666686,
      "v": 88
    },
    {
      "midi": 63,
      "hit": false,
      "t": 97647.00999999988,
      "d": 508.5781770833273,
      "v": 100
    },
    {
      "midi": 56,
      "hit": false,
      "t": 97941.12749999955,
      "d": 548.406588541664,
      "v": 127
    },
    {
      "midi": 44,
      "hit": false,
      "t": 97941.12749999987,
      "d": 24.509791666670935,
      "v": 26
    },
    {
      "midi": 68,
      "hit": false,
      "t": 98235.24499999954,
      "d": 585.1712760416704,
      "v": 127
    },
    {
      "midi": 63,
      "hit": false,
      "t": 98235.24499999954,
      "d": 600.489895833336,
      "v": 127
    },
    {
      "midi": 60,
      "hit": false,
      "t": 98235.24499999988,
      "d": 487.13210937500116,
      "v": 83
    },
    {
      "midi": 68,
      "hit": false,
      "t": 98235.24499999988,
      "d": 490.1958333333314,
      "v": 92
    },
    {
      "midi": 63,
      "hit": false,
      "t": 98235.24499999988,
      "d": 502.45072916666686,
      "v": 83
    },
    {
      "midi": 46,
      "hit": false,
      "t": 98235.24499999988,
      "d": 563.7252083333296,
      "v": 87
    },
    {
      "midi": 60,
      "hit": false,
      "t": 98529.36249999955,
      "d": 297.18122395832324,
      "v": 127
    },
    {
      "midi": 56,
      "hit": false,
      "t": 98823.47999999954,
      "d": 814.9505729166704,
      "v": 127
    },
    {
      "midi": 60,
      "hit": false,
      "t": 98823.47999999988,
      "d": 471.81348958333547,
      "v": 75
    },
    {
      "midi": 68,
      "hit": false,
      "t": 98823.47999999988,
      "d": 499.38700520833663,
      "v": 85
    },
    {
      "midi": 63,
      "hit": false,
      "t": 98823.47999999988,
      "d": 511.6419010416721,
      "v": 81
    },
    {
      "midi": 48,
      "hit": false,
      "t": 98823.47999999988,
      "d": 575.9801041666651,
      "v": 75
    },
    {
      "midi": 60,
      "hit": false,
      "t": 99117.59749999955,
      "d": 508.5781770833273,
      "v": 127
    },
    {
      "midi": 63,
      "hit": false,
      "t": 99411.71499999955,
      "d": 229.779296875,
      "v": 127
    },
    {
      "midi": 68,
      "hit": false,
      "t": 99411.71499999955,
      "d": 232.84302083333023,
      "v": 127
    },
    {
      "midi": 60,
      "hit": false,
      "t": 99411.71499999988,
      "d": 193.0146093749936,
      "v": 88
    },
    {
      "midi": 63,
      "hit": false,
      "t": 99411.71499999988,
      "d": 229.779296875,
      "v": 79
    },
    {
      "midi": 51,
      "hit": false,
      "t": 99411.71499999988,
      "d": 242.03419270833547,
      "v": 87
    },
    {
      "midi": 68,
      "hit": false,
      "t": 99411.71499999988,
      "d": 242.03419270833547,
      "v": 83
    },
    {
      "midi": 51,
      "hit": false,
      "t": 99999.94999999955,
      "d": 2049.631328124975,
      "v": 127
    },
    {
      "midi": 51,
      "hit": false,
      "t": 99999.94999999988,
      "d": 2208.9449739583215,
      "v": 118
    },
    {
      "midi": 58,
      "hit": false,
      "t": 100294.06749999954,
      "d": 1767.7687239583174,
      "v": 127
    },
    {
      "midi": 58,
      "hit": false,
      "t": 100294.06749999987,
      "d": 1902.572578124993,
      "v": 118
    },
    {
      "midi": 67,
      "hit": false,
      "t": 100588.18499999953,
      "d": 413.60273437498836,
      "v": 127
    },
    {
      "midi": 67,
      "hit": false,
      "t": 100588.18499999987,
      "d": 376.8380468749965,
      "v": 99
    },
    {
      "midi": 65,
      "hit": false,
      "t": 100882.30249999953,
      "d": 1204.0435156250023,
      "v": 127
    },
    {
      "midi": 65,
      "hit": false,
      "t": 100882.30249999986,
      "d": 1335.7836458333477,
      "v": 101
    },
    {
      "midi": 70,
      "hit": false,
      "t": 101470.53749999953,
      "d": 631.1271354166674,
      "v": 127
    },
    {
      "midi": 63,
      "hit": false,
      "t": 101470.53749999986,
      "d": 729.1663020833366,
      "v": 52
    },
    {
      "midi": 70,
      "hit": false,
      "t": 101470.53749999986,
      "d": 762.8672656250128,
      "v": 111
    },
    {
      "midi": 46,
      "hit": false,
      "t": 102352.88999999952,
      "d": 2156.8616666666494,
      "v": 127
    },
    {
      "midi": 46,
      "hit": false,
      "t": 102352.88999999987,
      "d": 2190.562630208311,
      "v": 107
    },
    {
      "midi": 53,
      "hit": false,
      "t": 102647.00749999951,
      "d": 1130.5141406249895,
      "v": 127
    },
    {
      "midi": 58,
      "hit": false,
      "t": 102647.00749999986,
      "d": 903.7985677083198,
      "v": 114
    },
    {
      "midi": 58,
      "hit": false,
      "t": 102941.1249999995,
      "d": 330.8821874999994,
      "v": 127
    },
    {
      "midi": 62,
      "hit": false,
      "t": 102941.12499999985,
      "d": 1593.1364583333198,
      "v": 120
    },
    {
      "midi": 62,
      "hit": false,
      "t": 103235.2424999995,
      "d": 1446.0777083333378,
      "v": 127
    },
    {
      "midi": 70,
      "hit": false,
      "t": 103235.24249999985,
      "d": 1289.8277864583215,
      "v": 111
    },
    {
      "midi": 58,
      "hit": false,
      "t": 103823.4774999995,
      "d": 493.2595572916616,
      "v": 127
    },
    {
      "midi": 58,
      "hit": false,
      "t": 103823.47749999985,
      "d": 695.4653385416605,
      "v": 100
    },
    {
      "midi": 53,
      "hit": false,
      "t": 104117.59499999949,
      "d": 499.38700520833663,
      "v": 127
    },
    {
      "midi": 65,
      "hit": false,
      "t": 104117.59499999984,
      "d": 404.4115624999977,
      "v": 115
    },
    {
      "midi": 58,
      "hit": false,
      "t": 104411.7124999995,
      "d": 229.779296875,
      "v": 127
    },
    {
      "midi": 48,
      "hit": false,
      "t": 104705.8299999995,
      "d": 1951.5921614583058,
      "v": 127
    },
    {
      "midi": 48,
      "hit": false,
      "t": 104705.82999999984,
      "d": 1887.2539583333128,
      "v": 115
    },
    {
      "midi": 55,
      "hit": false,
      "t": 104999.9474999995,
      "d": 1608.4550781249854,
      "v": 127
    },
    {
      "midi": 55,
      "hit": false,
      "t": 104999.94749999983,
      "d": 833.3329166666517,
      "v": 99
    },
    {
      "midi": 60,
      "hit": false,
      "t": 105294.0649999995,
      "d": 876.2250520833331,
      "v": 127
    },
    {
      "midi": 60,
      "hit": false,
      "t": 105294.06499999983,
      "d": 1188.724895833322,
      "v": 127
    },
    {
      "midi": 67,
      "hit": false,
      "t": 105588.18249999949,
      "d": 1412.376744791647,
      "v": 127
    },
    {
      "midi": 67,
      "hit": false,
      "t": 105588.18249999982,
      "d": 1384.803229166675,
      "v": 125
    },
    {
      "midi": 63,
      "hit": false,
      "t": 106176.41749999949,
      "d": 842.5240885416424,
      "v": 127
    },
    {
      "midi": 55,
      "hit": false,
      "t": 106176.41749999982,
      "d": 379.90177083332674,
      "v": 107
    },
    {
      "midi": 63,
      "hit": false,
      "t": 106470.53499999981,
      "d": 514.7056250000169,
      "v": 114
    },
    {
      "midi": 60,
      "hit": false,
      "t": 106764.65249999947,
      "d": 254.28908854165638,
      "v": 127
    },
    {
      "midi": 60,
      "hit": false,
      "t": 106764.65249999982,
      "d": 235.906744791675,
      "v": 115
    },
    {
      "midi": 44,
      "hit": false,
      "t": 107058.76999999947,
      "d": 1838.2343749999854,
      "v": 127
    },
    {
      "midi": 44,
      "hit": false,
      "t": 107058.76999999983,
      "d": 2129.2881510416482,
      "v": 121
    },
    {
      "midi": 58,
      "hit": false,
      "t": 107352.88749999946,
      "d": 1534.9257031249872,
      "v": 127
    },
    {
      "midi": 58,
      "hit": false,
      "t": 107352.88749999982,
      "d": 1764.7049999999872,
      "v": 124
    },
    {
      "midi": 60,
      "hit": false,
      "t": 107647.00499999945,
      "d": 361.5194270833308,
      "v": 127
    },
    {
      "midi": 60,
      "hit": false,
      "t": 107647.00499999982,
      "d": 327.81846354165464,
      "v": 107
    },
    {
      "midi": 63,
      "hit": false,
      "t": 107941.12249999944,
      "d": 977.3279427083326,
      "v": 127
    },
    {
      "midi": 63,
      "hit": false,
      "t": 107941.12249999981,
      "d": 1148.896484375,
      "v": 111
    },
    {
      "midi": 51,
      "hit": false,
      "t": 108823.4749999998,
      "d": 333.9459114583442,
      "v": 104
    },
    {
      "midi": 60,
      "hit": false,
      "t": 109117.59249999981,
      "d": 116.42151041666511,
      "v": 120
    },
    {
      "midi": 51,
      "hit": false,
      "t": 109411.70999999944,
      "d": 2138.479322916668,
      "v": 127
    },
    {
      "midi": 51,
      "hit": false,
      "t": 109411.7099999998,
      "d": 2018.9940885416436,
      "v": 124
    },
    {
      "midi": 58,
      "hit": false,
      "t": 109705.82749999943,
      "d": 1819.852031250004,
      "v": 127
    },
    {
      "midi": 58,
      "hit": false,
      "t": 109705.8274999998,
      "d": 1731.004036458311,
      "v": 121
    },
    {
      "midi": 67,
      "hit": false,
      "t": 109999.94499999942,
      "d": 284.9263281250023,
      "v": 127
    },
    {
      "midi": 67,
      "hit": false,
      "t": 109999.94499999979,
      "d": 404.4115624999977,
      "v": 97
    },
    {
      "midi": 66,
      "hit": false,
      "t": 110294.06249999943,
      "d": 15.318619791665697,
      "v": 127
    },
    {
      "midi": 65,
      "hit": false,
      "t": 110294.06249999943,
      "d": 1262.2542708333349,
      "v": 127
    },
    {
      "midi": 65,
      "hit": false,
      "t": 110294.06249999978,
      "d": 1161.151380208321,
      "v": 97
    },
    {
      "midi": 70,
      "hit": false,
      "t": 110882.29749999943,
      "d": 680.1467187499948,
      "v": 127
    },
    {
      "midi": 70,
      "hit": false,
      "t": 110882.29749999978,
      "d": 566.7889322916599,
      "v": 97
    },
    {
      "midi": 46,
      "hit": false,
      "t": 111764.64999999943,
      "d": 1789.2147916666436,
      "v": 127
    },
    {
      "midi": 46,
      "hit": false,
      "t": 111764.64999999978,
      "d": 1776.959895833308,
      "v": 111
    },
    {
      "midi": 53,
      "hit": false,
      "t": 112058.76749999942,
      "d": 1504.2884635416558,
      "v": 127
    },
    {
      "midi": 53,
      "hit": false,
      "t": 112058.76749999977,
      "d": 1488.9698437499756,
      "v": 92
    },
    {
      "midi": 58,
      "hit": false,
      "t": 112352.88499999941,
      "d": 1544.1168749999924,
      "v": 127
    },
    {
      "midi": 58,
      "hit": false,
      "t": 112352.88499999976,
      "d": 1629.9011458333262,
      "v": 118
    },
    {
      "midi": 62,
      "hit": false,
      "t": 112647.0024999994,
      "d": 1249.9993749999994,
      "v": 127
    },
    {
      "midi": 65,
      "hit": false,
      "t": 112647.00249999975,
      "d": 1295.9552343749965,
      "v": 103
    },
    {
      "midi": 65,
      "hit": false,
      "t": 113235.2374999994,
      "d": 655.6369270833384,
      "v": 127
    },
    {
      "midi": 62,
      "hit": false,
      "t": 113235.23749999976,
      "d": 738.3574739583273,
      "v": 97
    },
    {
      "midi": 48,
      "hit": false,
      "t": 114117.5899999994,
      "d": 2233.454765624949,
      "v": 127
    },
    {
      "midi": 48,
      "hit": false,
      "t": 114117.58999999975,
      "d": 2251.8371093749447,
      "v": 107
    },
    {
      "midi": 55,
      "hit": false,
      "t": 114411.7074999994,
      "d": 1933.2098177082953,
      "v": 127
    },
    {
      "midi": 55,
      "hit": false,
      "t": 114411.70749999974,
      "d": 1957.7196093749517,
      "v": 115
    },
    {
      "midi": 60,
      "hit": false,
      "t": 114705.82499999939,
      "d": 358.45570312498603,
      "v": 127
    },
    {
      "midi": 60,
      "hit": false,
      "t": 114705.82499999974,
      "d": 398.28411458332266,
      "v": 125
    },
    {
      "midi": 63,
      "hit": false,
      "t": 114999.94249999938,
      "d": 297.18122395832324,
      "v": 127
    },
    {
      "midi": 63,
      "hit": false,
      "t": 114999.94249999973,
      "d": 324.7547395833244,
      "v": 121
    },
    {
      "midi": 60,
      "hit": false,
      "t": 115294.05999999937,
      "d": 330.8821874999994,
      "v": 127
    },
    {
      "midi": 60,
      "hit": false,
      "t": 115294.05999999972,
      "d": 367.64687499999127,
      "v": 127
    },
    {
      "midi": 63,
      "hit": false,
      "t": 115588.17749999936,
      "d": 324.75473958333896,
      "v": 127
    },
    {
      "midi": 63,
      "hit": false,
      "t": 115588.17749999971,
      "d": 343.13708333332033,
      "v": 124
    },
    {
      "midi": 65,
      "hit": false,
      "t": 115882.29499999937,
      "d": 278.7988802083273,
      "v": 127
    },
    {
      "midi": 65,
      "hit": false,
      "t": 115882.2949999997,
      "d": 291.0537760416628,
      "v": 107
    },
    {
      "midi": 67,
      "hit": false,
      "t": 116176.41249999937,
      "d": 162.3773697916622,
      "v": 127
    },
    {
      "midi": 67,
      "hit": false,
      "t": 116176.4124999997,
      "d": 226.71557291665522,
      "v": 112
    },
    {
      "midi": 44,
      "hit": false,
      "t": 116470.52999999934,
      "d": 1856.616718749996,
      "v": 127
    },
    {
      "midi": 51,
      "hit": false,
      "t": 116470.5299999997,
      "d": 1403.1855729166418,
      "v": 121
    },
    {
      "midi": 44,
      "hit": false,
      "t": 116470.5299999997,
      "d": 2132.351874999964,
      "v": 100
    },
    {
      "midi": 58,
      "hit": false,
      "t": 116764.64749999934,
      "d": 306.3723958333285,
      "v": 127
    },
    {
      "midi": 58,
      "hit": false,
      "t": 116764.64749999969,
      "d": 297.18122395832324,
      "v": 121
    },
    {
      "midi": 60,
      "hit": false,
      "t": 117058.76499999933,
      "d": 1240.8082031250087,
      "v": 127
    },
    {
      "midi": 60,
      "hit": false,
      "t": 117058.76499999968,
      "d": 1001.8377343749889,
      "v": 115
    },
    {
      "midi": 63,
      "hit": false,
      "t": 117352.88249999934,
      "d": 971.2004947916721,
      "v": 127
    },
    {
      "midi": 63,
      "hit": false,
      "t": 117352.88249999967,
      "d": 692.4016145833302,
      "v": 127
    },
    {
      "midi": 51,
      "hit": false,
      "t": 117941.11749999967,
      "d": 621.9359635416622,
      "v": 118
    },
    {
      "midi": 60,
      "hit": false,
      "t": 118235.23499999967,
      "d": 330.8821874999994,
      "v": 103
    },
    {
      "midi": 63,
      "hit": false,
      "t": 118235.23499999967,
      "d": 349.26453124999534,
      "v": 121
    },
    {
      "midi": 51,
      "hit": false,
      "t": 118823.46999999935,
      "d": 1859.6804427083116,
      "v": 127
    },
    {
      "midi": 51,
      "hit": false,
      "t": 118823.46999999965,
      "d": 1881.1265104166669,
      "v": 124
    },
    {
      "midi": 58,
      "hit": false,
      "t": 119117.58749999934,
      "d": 2043.503880208329,
      "v": 127
    },
    {
      "midi": 58,
      "hit": false,
      "t": 119117.58749999964,
      "d": 2009.802916666682,
      "v": 124
    },
    {
      "midi": 67,
      "hit": false,
      "t": 119411.70499999933,
      "d": 386.0292187499872,
      "v": 127
    },
    {
      "midi": 63,
      "hit": false,
      "t": 119411.70499999964,
      "d": 82.72054687500349,
      "v": 40
    },
    {
      "midi": 67,
      "hit": false,
      "t": 119411.70499999964,
      "d": 808.8231250000099,
      "v": 99
    },
    {
      "midi": 65,
      "hit": false,
      "t": 119705.82249999933,
      "d": 1427.6953645833419,
      "v": 127
    },
    {
      "midi": 65,
      "hit": false,
      "t": 119705.82249999965,
      "d": 1393.9944010416802,
      "v": 107
    },
    {
      "midi": 63,
      "hit": false,
      "t": 119705.82249999965,
      "d": 1467.5237760416785,
      "v": 4
    },
    {
      "midi": 70,
      "hit": false,
      "t": 120294.05749999933,
      "d": 802.6956770833349,
      "v": 127
    },
    {
      "midi": 67,
      "hit": false,
      "t": 120294.05749999965,
      "d": 39.82841145833663,
      "v": 49
    },
    {
      "midi": 70,
      "hit": false,
      "t": 120294.05749999965,
      "d": 897.6711197916738,
      "v": 121
    },
    {
      "midi": 46,
      "hit": false,
      "t": 121176.40999999933,
      "d": 1706.49424479164,
      "v": 127
    },
    {
      "midi": 46,
      "hit": false,
      "t": 121176.40999999965,
      "d": 1807.5971354166395,
      "v": 107
    },
    {
      "midi": 53,
      "hit": false,
      "t": 121470.52749999933,
      "d": 1446.0777083333087,
      "v": 127
    },
    {
      "midi": 53,
      "hit": false,
      "t": 121470.52749999965,
      "d": 1528.7982552083122,
      "v": 92
    },
    {
      "midi": 58,
      "hit": false,
      "t": 121764.64499999932,
      "d": 1657.4746614583128,
      "v": 127
    },
    {
      "midi": 58,
      "hit": false,
      "t": 121764.64499999964,
      "d": 1706.49424479164,
      "v": 127
    },
    {
      "midi": 65,
      "hit": false,
      "t": 122058.76249999931,
      "d": 1332.7199218749884,
      "v": 127
    },
    {
      "midi": 65,
      "hit": false,
      "t": 122058.76249999963,
      "d": 1421.5679166666523,
      "v": 107
    },
    {
      "midi": 62,
      "hit": false,
      "t": 122646.99749999931,
      "d": 713.8476822916564,
      "v": 127
    },
    {
      "midi": 62,
      "hit": false,
      "t": 122646.99749999963,
      "d": 732.2300260416523,
      "v": 101
    },
    {
      "midi": 48,
      "hit": false,
      "t": 123529.3499999993,
      "d": 1847.4255468749761,
      "v": 127
    },
    {
      "midi": 48,
      "hit": false,
      "t": 123529.34999999961,
      "d": 2104.7783593749773,
      "v": 109
    },
    {
      "midi": 55,
      "hit": false,
      "t": 123823.46749999929,
      "d": 1519.6070833333215,
      "v": 127
    },
    {
      "midi": 55,
      "hit": false,
      "t": 123823.4674999996,
      "d": 1770.8324479166477,
      "v": 97
    },
    {
      "midi": 67,
      "hit": false,
      "t": 124117.58499999928,
      "d": 1611.5188020833302,
      "v": 127
    },
    {
      "midi": 60,
      "hit": false,
      "t": 124117.5849999996,
      "d": 1786.151067708328,
      "v": 120
    },
    {
      "midi": 63,
      "hit": false,
      "t": 124411.70249999927,
      "d": 1326.5924739583425,
      "v": 127
    },
    {
      "midi": 67,
      "hit": false,
      "t": 124411.70249999959,
      "d": 1482.8423958333296,
      "v": 115
    },
    {
      "midi": 63,
      "hit": false,
      "t": 124999.93749999959,
      "d": 891.5436718749988,
      "v": 118
    },
    {
      "midi": 44,
      "hit": false,
      "t": 125882.28999999928,
      "d": 2061.886223958296,
      "v": 127
    },
    {
      "midi": 44,
      "hit": false,
      "t": 125882.28999999959,
      "d": 2052.695052083305,
      "v": 111
    },
    {
      "midi": 56,
      "hit": false,
      "t": 126176.40749999927,
      "d": 854.7789843749924,
      "v": 127
    },
    {
      "midi": 56,
      "hit": false,
      "t": 126176.4074999996,
      "d": 925.2446354166459,
      "v": 114
    },
    {
      "midi": 60,
      "hit": false,
      "t": 126470.52499999927,
      "d": 1253.063098958315,
      "v": 127
    },
    {
      "midi": 60,
      "hit": false,
      "t": 126470.52499999959,
      "d": 1498.1610156249808,
      "v": 127
    },
    {
      "midi": 68,
      "hit": false,
      "t": 126764.64249999926,
      "d": 1240.8082031249796,
      "v": 127
    },
    {
      "midi": 68,
      "hit": false,
      "t": 126764.64249999958,
      "d": 1210.1709635416482,
      "v": 121
    },
    {
      "midi": 56,
      "hit": false,
      "t": 127352.87749999926,
      "d": 591.2987239583163,
      "v": 127
    },
    {
      "midi": 56,
      "hit": false,
      "t": 127352.87749999957,
      "d": 591.2987239583308,
      "v": 100
    },
    {
      "midi": 63,
      "hit": false,
      "t": 127646.99499999925,
      "d": 367.64687499999127,
      "v": 127
    },
    {
      "midi": 63,
      "hit": false,
      "t": 127646.99499999956,
      "d": 346.2008072916651,
      "v": 124
    },
    {
      "midi": 51,
      "hit": false,
      "t": 128235.22999999924,
      "d": 1645.2197656249773,
      "v": 127
    },
    {
      "midi": 51,
      "hit": false,
      "t": 128235.22999999956,
      "d": 1982.2294010416372,
      "v": 107
    },
    {
      "midi": 58,
      "hit": false,
      "t": 128529.34749999923,
      "d": 1344.9748177083238,
      "v": 127
    },
    {
      "midi": 58,
      "hit": false,
      "t": 128529.34749999955,
      "d": 747.548645833318,
      "v": 118
    },
    {
      "midi": 63,
      "hit": false,
      "t": 128823.46499999923,
      "d": 1430.7590885416575,
      "v": 127
    },
    {
      "midi": 63,
      "hit": false,
      "t": 128823.46499999955,
      "d": 974.2642187499878,
      "v": 124
    },
    {
      "midi": 67,
      "hit": false,
      "t": 129117.58249999922,
      "d": 1106.0043489583331,
      "v": 127
    },
    {
      "midi": 70,
      "hit": false,
      "t": 129117.58249999922,
      "d": 1109.0680729166634,
      "v": 127
    },
    {
      "midi": 70,
      "hit": false,
      "t": 129117.58249999954,
      "d": 628.0634114583372,
      "v": 92
    },
    {
      "midi": 67,
      "hit": false,
      "t": 129117.58249999954,
      "d": 658.7006510416686,
      "v": 103
    },
    {
      "midi": 58,
      "hit": false,
      "t": 129705.81749999954,
      "d": 465.68604166666046,
      "v": 118
    },
    {
      "midi": 70,
      "hit": false,
      "t": 129999.93499999953,
      "d": 545.3428645833337,
      "v": 95
    },
    {
      "midi": 67,
      "hit": false,
      "t": 129999.93499999953,
      "d": 551.4703124999942,
      "v": 105
    },
    {
      "midi": 63,
      "hit": false,
      "t": 129999.93499999953,
      "d": 563.7252083333296,
      "v": 118
    },
    {
      "midi": 46,
      "hit": false,
      "t": 130588.16999999921,
      "d": 1590.072734375004,
      "v": 127
    },
    {
      "midi": 46,
      "hit": false,
      "t": 130588.16999999953,
      "d": 2095.5871874999866,
      "v": 107
    },
    {
      "midi": 58,
      "hit": false,
      "t": 130882.2874999992,
      "d": 1332.719921875003,
      "v": 127
    },
    {
      "midi": 58,
      "hit": false,
      "t": 130882.28749999953,
      "d": 814.9505729166704,
      "v": 114
    },
    {
      "midi": 62,
      "hit": false,
      "t": 131176.4049999992,
      "d": 1443.013984374993,
      "v": 127
    },
    {
      "midi": 62,
      "hit": false,
      "t": 131176.40499999953,
      "d": 946.6907031250012,
      "v": 115
    },
    {
      "midi": 65,
      "hit": false,
      "t": 131470.5224999992,
      "d": 1127.4504166666593,
      "v": 127
    },
    {
      "midi": 70,
      "hit": false,
      "t": 131470.5224999992,
      "d": 1158.0876562499907,
      "v": 127
    },
    {
      "midi": 70,
      "hit": false,
      "t": 131470.52249999953,
      "d": 618.8722395833465,
      "v": 121
    },
    {
      "midi": 65,
      "hit": false,
      "t": 131470.52249999953,
      "d": 646.4457552083477,
      "v": 115
    },
    {
      "midi": 58,
      "hit": false,
      "t": 132058.75749999954,
      "d": 389.0929427083174,
      "v": 104
    },
    {
      "midi": 70,
      "hit": false,
      "t": 132352.87499999953,
      "d": 615.8085156249872,
      "v": 127
    },
    {
      "midi": 65,
      "hit": false,
      "t": 132352.87499999953,
      "d": 631.1271354166674,
      "v": 127
    },
    {
      "midi": 62,
      "hit": false,
      "t": 132352.87499999953,
      "d": 637.2545833333279,
      "v": 112
    },
    {
      "midi": 58,
      "hit": false,
      "t": 132646.99249999953,
      "d": 174.63226562499767,
      "v": 107
    },
    {
      "midi": 48,
      "hit": false,
      "t": 132941.1099999992,
      "d": 1727.9403124999662,
      "v": 127
    },
    {
      "midi": 48,
      "hit": false,
      "t": 132941.10999999952,
      "d": 2101.7146354166616,
      "v": 107
    },
    {
      "midi": 55,
      "hit": false,
      "t": 133235.2274999992,
      "d": 1403.1855729166418,
      "v": 127
    },
    {
      "midi": 55,
      "hit": false,
      "t": 133235.22749999954,
      "d": 692.4016145833302,
      "v": 107
    },
    {
      "midi": 63,
      "hit": false,
      "t": 133529.3449999992,
      "d": 1299.0189583332976,
      "v": 127
    },
    {
      "midi": 60,
      "hit": false,
      "t": 133529.34499999954,
      "d": 937.4995312500105,
      "v": 125
    },
    {
      "midi": 72,
      "hit": false,
      "t": 133823.46249999918,
      "d": 968.1367708333128,
      "v": 127
    },
    {
      "midi": 67,
      "hit": false,
      "t": 133823.46249999918,
      "d": 971.200494791643,
      "v": 127
    },
    {
      "midi": 63,
      "hit": false,
      "t": 133823.46249999953,
      "d": 634.1908593750268,
      "v": 114
    },
    {
      "midi": 67,
      "hit": false,
      "t": 133823.46249999953,
      "d": 634.1908593750268,
      "v": 112
    },
    {
      "midi": 55,
      "hit": false,
      "t": 134411.69749999954,
      "d": 373.7743229166663,
      "v": 103
    },
    {
      "midi": 63,
      "hit": false,
      "t": 134705.81499999954,
      "d": 579.0438281249662,
      "v": 121
    },
    {
      "midi": 67,
      "hit": false,
      "t": 134705.81499999954,
      "d": 579.0438281249662,
      "v": 117
    },
    {
      "midi": 60,
      "hit": false,
      "t": 134705.81499999954,
      "d": 588.2349999999569,
      "v": 115
    },
    {
      "midi": 55,
      "hit": false,
      "t": 134999.93249999953,
      "d": 73.5293749999837,
      "v": 92
    },
    {
      "midi": 44,
      "hit": false,
      "t": 135294.04999999914,
      "d": 1623.7736979166511,
      "v": 127
    },
    {
      "midi": 44,
      "hit": false,
      "t": 135294.0499999995,
      "d": 2012.8666406249395,
      "v": 104
    },
    {
      "midi": 56,
      "hit": false,
      "t": 135588.16749999914,
      "d": 1378.67578125,
      "v": 127
    },
    {
      "midi": 56,
      "hit": false,
      "t": 135588.1674999995,
      "d": 775.1221614583337,
      "v": 114
    },
    {
      "midi": 60,
      "hit": false,
      "t": 135882.28499999913,
      "d": 1378.67578125,
      "v": 127
    },
    {
      "midi": 60,
      "hit": false,
      "t": 135882.28499999948,
      "d": 934.4358072916511,
      "v": 120
    },
    {
      "midi": 63,
      "hit": false,
      "t": 136176.40249999912,
      "d": 1075.3671093750163,
      "v": 127
    },
    {
      "midi": 68,
      "hit": false,
      "t": 136176.40249999912,
      "d": 1096.813177083328,
      "v": 127
    },
    {
      "midi": 68,
      "hit": false,
      "t": 136176.40249999947,
      "d": 628.0634114583372,
      "v": 118
    },
    {
      "midi": 63,
      "hit": false,
      "t": 136176.40249999947,
      "d": 643.3820312499884,
      "v": 118
    },
    {
      "midi": 56,
      "hit": false,
      "t": 136764.6374999995,
      "d": 333.945911458286,
      "v": 118
    },
    {
      "midi": 63,
      "hit": false,
      "t": 137058.75499999945,
      "d": 557.5977604166546,
      "v": 121
    },
    {
      "midi": 60,
      "hit": false,
      "t": 137058.75499999945,
      "d": 569.8526562499756,
      "v": 112
    },
    {
      "midi": 68,
      "hit": false,
      "t": 137058.75499999945,
      "d": 575.980104166636,
      "v": 121
    },
    {
      "midi": 56,
      "hit": false,
      "t": 137352.87249999944,
      "d": 208.3332291666593,
      "v": 97
    },
    {
      "midi": 51,
      "hit": false,
      "t": 137646.98999999912,
      "d": 1740.1952083333163,
      "v": 127
    },
    {
      "midi": 51,
      "hit": false,
      "t": 137646.9899999994,
      "d": 2264.0920052083384,
      "v": 104
    },
    {
      "midi": 58,
      "hit": false,
      "t": 137941.1074999991,
      "d": 1449.1414322916535,
      "v": 127
    },
    {
      "midi": 58,
      "hit": false,
      "t": 137941.1074999994,
      "d": 701.5927864583209,
      "v": 92
    },
    {
      "midi": 63,
      "hit": false,
      "t": 138235.2249999991,
      "d": 1265.317994791636,
      "v": 127
    },
    {
      "midi": 63,
      "hit": false,
      "t": 138235.2249999994,
      "d": 925.2446354166896,
      "v": 121
    },
    {
      "midi": 70,
      "hit": false,
      "t": 138529.3424999991,
      "d": 931.3720833333209,
      "v": 127
    },
    {
      "midi": 67,
      "hit": false,
      "t": 138529.3424999991,
      "d": 934.4358072916511,
      "v": 127
    },
    {
      "midi": 70,
      "hit": false,
      "t": 138529.3424999994,
      "d": 560.661484375014,
      "v": 87
    },
    {
      "midi": 67,
      "hit": false,
      "t": 138529.3424999994,
      "d": 603.5536197916954,
      "v": 107
    },
    {
      "midi": 58,
      "hit": false,
      "t": 139117.5774999994,
      "d": 465.68604166668956,
      "v": 118
    },
    {
      "midi": 63,
      "hit": false,
      "t": 139411.69499999942,
      "d": 355.3919791666558,
      "v": 121
    },
    {
      "midi": 70,
      "hit": false,
      "t": 139411.69499999942,
      "d": 361.51942708331626,
      "v": 89
    },
    {
      "midi": 67,
      "hit": false,
      "t": 139411.69499999942,
      "d": 370.71059895830695,
      "v": 109
    },
    {
      "midi": 58,
      "hit": false,
      "t": 139705.81249999942,
      "d": 150.12247395832674,
      "v": 107
    },
    {
      "midi": 46,
      "hit": false,
      "t": 139999.92999999906,
      "d": 1547.180598958308,
      "v": 127
    },
    {
      "midi": 46,
      "hit": false,
      "t": 139999.9299999994,
      "d": 2101.7146354166325,
      "v": 111
    },
    {
      "midi": 58,
      "hit": false,
      "t": 140294.04749999905,
      "d": 1305.1464062499872,
      "v": 127
    },
    {
      "midi": 58,
      "hit": false,
      "t": 140294.0474999994,
      "d": 713.8476822916418,
      "v": 111
    },
    {
      "midi": 62,
      "hit": false,
      "t": 140588.16499999905,
      "d": 1050.8573177083163,
      "v": 127
    },
    {
      "midi": 62,
      "hit": false,
      "t": 140588.1649999994,
      "d": 934.4358072916511,
      "v": 115
    },
    {
      "midi": 70,
      "hit": false,
      "t": 140882.28249999904,
      "d": 726.1025781249919,
      "v": 127
    },
    {
      "midi": 65,
      "hit": false,
      "t": 140882.28249999904,
      "d": 735.2937499999825,
      "v": 127
    },
    {
      "midi": 70,
      "hit": false,
      "t": 140882.2824999994,
      "d": 618.8722395833174,
      "v": 124
    },
    {
      "midi": 65,
      "hit": false,
      "t": 140882.2824999994,
      "d": 637.2545833333279,
      "v": 117
    },
    {
      "midi": 58,
      "hit": false,
      "t": 141470.51749999938,
      "d": 340.07335937500466,
      "v": 114
    },
    {
      "midi": 70,
      "hit": false,
      "t": 141764.63499999937,
      "d": 597.4261718750058,
      "v": 124
    },
    {
      "midi": 65,
      "hit": false,
      "t": 141764.63499999937,
      "d": 618.8722395833465,
      "v": 123
    },
    {
      "midi": 62,
      "hit": false,
      "t": 141764.63499999937,
      "d": 628.0634114583372,
      "v": 112
    },
    {
      "midi": 58,
      "hit": false,
      "t": 142058.7524999994,
      "d": 107.23033854164532,
      "v": 107
    },
    {
      "midi": 48,
      "hit": false,
      "t": 142352.86999999903,
      "d": 1648.283489583293,
      "v": 127
    },
    {
      "midi": 48,
      "hit": false,
      "t": 142352.86999999938,
      "d": 2083.332291666651,
      "v": 89
    },
    {
      "midi": 55,
      "hit": false,
      "t": 142646.98749999903,
      "d": 1344.9748177083093,
      "v": 127
    },
    {
      "midi": 55,
      "hit": false,
      "t": 142646.98749999938,
      "d": 808.8231249999953,
      "v": 109
    },
    {
      "midi": 60,
      "hit": false,
      "t": 142941.10499999902,
      "d": 1559.435494791629,
      "v": 127
    },
    {
      "midi": 60,
      "hit": false,
      "t": 142941.10499999937,
      "d": 937.4995312500105,
      "v": 125
    },
    {
      "midi": 67,
      "hit": false,
      "t": 143235.222499999,
      "d": 1256.1268229166453,
      "v": 127
    },
    {
      "midi": 63,
      "hit": false,
      "t": 143235.222499999,
      "d": 1289.827786458307,
      "v": 127
    },
    {
      "midi": 67,
      "hit": false,
      "t": 143235.22249999936,
      "d": 612.7447916666861,
      "v": 123
    },
    {
      "midi": 63,
      "hit": false,
      "t": 143235.22249999936,
      "d": 615.8085156250163,
      "v": 124
    },
    {
      "midi": 55,
      "hit": false,
      "t": 143823.45749999938,
      "d": 450.3674218749802,
      "v": 101
    },
    {
      "midi": 67,
      "hit": false,
      "t": 144117.57499999937,
      "d": 551.4703124999942,
      "v": 117
    },
    {
      "midi": 63,
      "hit": false,
      "t": 144117.57499999937,
      "d": 560.6614843749849,
      "v": 121
    },
    {
      "midi": 60,
      "hit": false,
      "t": 144117.57499999937,
      "d": 575.9801041666651,
      "v": 115
    },
    {
      "midi": 55,
      "hit": false,
      "t": 144411.69249999936,
      "d": 82.72054687500349,
      "v": 82
    },
    {
      "midi": 44,
      "hit": false,
      "t": 144705.80999999898,
      "d": 1636.028593749972,
      "v": 127
    },
    {
      "midi": 44,
      "hit": false,
      "t": 144705.80999999936,
      "d": 2025.1215364582895,
      "v": 107
    },
    {
      "midi": 56,
      "hit": false,
      "t": 144999.92749999897,
      "d": 1387.8669531249907,
      "v": 127
    },
    {
      "midi": 56,
      "hit": false,
      "t": 144999.92749999935,
      "d": 784.3133333333244,
      "v": 118
    },
    {
      "midi": 60,
      "hit": false,
      "t": 145294.04499999897,
      "d": 1583.945286458329,
      "v": 127
    },
    {
      "midi": 60,
      "hit": false,
      "t": 145294.04499999934,
      "d": 912.9897395833104,
      "v": 127
    },
    {
      "midi": 63,
      "hit": false,
      "t": 145588.16249999896,
      "d": 1299.0189583333267,
      "v": 127
    },
    {
      "midi": 68,
      "hit": false,
      "t": 145588.16249999896,
      "d": 1311.2738541666477,
      "v": 127
    },
    {
      "midi": 68,
      "hit": false,
      "t": 145588.16249999934,
      "d": 582.1075520833256,
      "v": 118
    },
    {
      "midi": 63,
      "hit": false,
      "t": 145588.16249999934,
      "d": 597.4261718749767,
      "v": 121
    },
    {
      "midi": 56,
      "hit": false,
      "t": 146176.39749999932,
      "d": 346.2008072916651,
      "v": 124
    },
    {
      "midi": 63,
      "hit": false,
      "t": 146470.51499999932,
      "d": 548.4065885416348,
      "v": 124
    },
    {
      "midi": 60,
      "hit": false,
      "t": 146470.51499999932,
      "d": 560.6614843749558,
      "v": 112
    },
    {
      "midi": 68,
      "hit": false,
      "t": 146470.51499999932,
      "d": 579.0438281249662,
      "v": 118
    },
    {
      "midi": 56,
      "hit": false,
      "t": 146764.6324999993,
      "d": 242.03419270832092,
      "v": 121
    },
    {
      "midi": 51,
      "hit": false,
      "t": 147058.74999999895,
      "d": 1675.8570052083232,
      "v": 127
    },
    {
      "midi": 51,
      "hit": false,
      "t": 147058.74999999927,
      "d": 1930.1460937499942,
      "v": 107
    },
    {
      "midi": 58,
      "hit": false,
      "t": 147352.86749999895,
      "d": 1363.3571614583198,
      "v": 127
    },
    {
      "midi": 58,
      "hit": false,
      "t": 147352.86749999927,
      "d": 640.3183072916581,
      "v": 107
    },
    {
      "midi": 63,
      "hit": false,
      "t": 147646.98499999894,
      "d": 1525.7345312499965,
      "v": 127
    },
    {
      "midi": 63,
      "hit": false,
      "t": 147646.98499999926,
      "d": 879.2887760416488,
      "v": 121
    },
    {
      "midi": 67,
      "hit": false,
      "t": 147941.10249999893,
      "d": 1164.2151041666802,
      "v": 127
    },
    {
      "midi": 70,
      "hit": false,
      "t": 147941.10249999893,
      "d": 1176.4700000000012,
      "v": 127
    },
    {
      "midi": 70,
      "hit": false,
      "t": 147941.10249999925,
      "d": 572.9163802083349,
      "v": 92
    },
    {
      "midi": 67,
      "hit": false,
      "t": 147941.10249999925,
      "d": 603.5536197916663,
      "v": 112
    },
    {
      "midi": 58,
      "hit": false,
      "t": 148529.33749999924,
      "d": 425.8576302083675,
      "v": 118
    },
    {
      "midi": 67,
      "hit": false,
      "t": 148823.45499999926,
      "d": 554.5340364583535,
      "v": 112
    },
    {
      "midi": 70,
      "hit": false,
      "t": 148823.45499999926,
      "d": 560.661484375014,
      "v": 92
    },
    {
      "midi": 63,
      "hit": false,
      "t": 148823.45499999926,
      "d": 591.2987239583454,
      "v": 124
    },
    {
      "midi": 46,
      "hit": false,
      "t": 149411.68999999893,
      "d": 1620.709973958321,
      "v": 127
    },
    {
      "midi": 46,
      "hit": false,
      "t": 149411.68999999927,
      "d": 2080.26856770835,
      "v": 111
    },
    {
      "midi": 58,
      "hit": false,
      "t": 149705.80749999892,
      "d": 1366.42088541665,
      "v": 127
    },
    {
      "midi": 58,
      "hit": false,
      "t": 149705.80749999927,
      "d": 704.6565104166511,
      "v": 114
    },
    {
      "midi": 62,
      "hit": false,
      "t": 149999.9249999989,
      "d": 1626.8374218749814,
      "v": 127
    },
    {
      "midi": 62,
      "hit": false,
      "t": 149999.92499999926,
      "d": 928.3083593749907,
      "v": 115
    },
    {
      "midi": 70,
      "hit": false,
      "t": 150294.0424999989,
      "d": 1283.7003385416756,
      "v": 127
    },
    {
      "midi": 65,
      "hit": false,
      "t": 150294.0424999989,
      "d": 1320.4650260416674,
      "v": 127
    },
    {
      "midi": 70,
      "hit": false,
      "t": 150294.04249999925,
      "d": 606.6173437499965,
      "v": 121
    },
    {
      "midi": 65,
      "hit": false,
      "t": 150294.04249999925,
      "d": 631.1271354166674,
      "v": 117
    },
    {
      "midi": 58,
      "hit": false,
      "t": 150882.27749999924,
      "d": 340.07335937503376,
      "v": 111
    },
    {
      "midi": 70,
      "hit": false,
      "t": 151176.39499999926,
      "d": 612.7447916666861,
      "v": 124
    },
    {
      "midi": 65,
      "hit": false,
      "t": 151176.39499999926,
      "d": 631.1271354166965,
      "v": 123
    },
    {
      "midi": 62,
      "hit": false,
      "t": 151176.39499999926,
      "d": 640.3183072916872,
      "v": 109
    },
    {
      "midi": 58,
      "hit": false,
      "t": 151470.51249999928,
      "d": 113.35778645833489,
      "v": 107
    },
    {
      "midi": 48,
      "hit": false,
      "t": 151764.6299999989,
      "d": 1648.283489583293,
      "v": 127
    },
    {
      "midi": 48,
      "hit": false,
      "t": 151764.62999999928,
      "d": 2135.415598958294,
      "v": 105
    },
    {
      "midi": 55,
      "hit": false,
      "t": 152058.7474999989,
      "d": 1344.9748177083093,
      "v": 127
    },
    {
      "midi": 55,
      "hit": false,
      "t": 152058.74749999927,
      "d": 634.1908593749977,
      "v": 109
    },
    {
      "midi": 60,
      "hit": false,
      "t": 152352.86499999888,
      "d": 1044.7298697916558,
      "v": 127
    },
    {
      "midi": 60,
      "hit": false,
      "t": 152352.86499999926,
      "d": 965.0730468750116,
      "v": 127
    },
    {
      "midi": 67,
      "hit": false,
      "t": 152646.98249999888,
      "d": 772.0584374999744,
      "v": 127
    },
    {
      "midi": 63,
      "hit": false,
      "t": 152646.98249999888,
      "d": 778.1858854166348,
      "v": 127
    },
    {
      "midi": 63,
      "hit": false,
      "t": 152646.98249999926,
      "d": 670.9555468750186,
      "v": 124
    },
    {
      "midi": 67,
      "hit": false,
      "t": 152646.98249999926,
      "d": 680.1467187500093,
      "v": 123
    },
    {
      "midi": 55,
      "hit": false,
      "t": 153235.21749999927,
      "d": 652.573203124979,
      "v": 107
    },
    {
      "midi": 63,
      "hit": false,
      "t": 153529.33499999926,
      "d": 514.7056249999732,
      "v": 124
    },
    {
      "midi": 67,
      "hit": false,
      "t": 153529.33499999926,
      "d": 526.9605208332941,
      "v": 120
    },
    {
      "midi": 60,
      "hit": false,
      "t": 153529.33499999926,
      "d": 530.0242447916244,
      "v": 123
    },
    {
      "midi": 51,
      "hit": false,
      "t": 153823.45249999926,
      "d": 52.0833072916721,
      "v": 27
    },
    {
      "midi": 41,
      "hit": false,
      "t": 154117.56999999884,
      "d": 649.5094791666488,
      "v": 127
    },
    {
      "midi": 53,
      "hit": false,
      "t": 154117.56999999922,
      "d": 851.7152604166768,
      "v": 120
    },
    {
      "midi": 53,
      "hit": false,
      "t": 154411.68749999884,
      "d": 438.1125260416593,
      "v": 127
    },
    {
      "midi": 60,
      "hit": false,
      "t": 154411.6874999992,
      "d": 395.220390625007,
      "v": 101
    },
    {
      "midi": 60,
      "hit": false,
      "t": 154705.80499999883,
      "d": 499.3870052083221,
      "v": 127
    },
    {
      "midi": 68,
      "hit": false,
      "t": 154705.80499999883,
      "d": 502.4507291666523,
      "v": 127
    },
    {
      "midi": 65,
      "hit": false,
      "t": 154705.80499999883,
      "d": 511.641901041643,
      "v": 127
    },
    {
      "midi": 65,
      "hit": false,
      "t": 154705.8049999992,
      "d": 487.13210937503027,
      "v": 125
    },
    {
      "midi": 68,
      "hit": false,
      "t": 154705.8049999992,
      "d": 533.0879687500419,
      "v": 127
    },
    {
      "midi": 60,
      "hit": false,
      "t": 154999.92249999923,
      "d": 174.63226562499767,
      "v": 117
    },
    {
      "midi": 44,
      "hit": false,
      "t": 155294.03999999881,
      "d": 719.9751302083314,
      "v": 127
    },
    {
      "midi": 56,
      "hit": false,
      "t": 155294.03999999925,
      "d": 980.3916666666337,
      "v": 118
    },
    {
      "midi": 56,
      "hit": false,
      "t": 155588.1574999988,
      "d": 563.7252083333442,
      "v": 127
    },
    {
      "midi": 63,
      "hit": false,
      "t": 155588.15749999924,
      "d": 462.62231770833023,
      "v": 111
    },
    {
      "midi": 63,
      "hit": false,
      "t": 155882.2749999988,
      "d": 496.32328125002095,
      "v": 127
    },
    {
      "midi": 60,
      "hit": false,
      "t": 155882.2749999988,
      "d": 499.3870052083512,
      "v": 127
    },
    {
      "midi": 68,
      "hit": false,
      "t": 155882.2749999988,
      "d": 514.7056250000314,
      "v": 127
    },
    {
      "midi": 70,
      "hit": false,
      "t": 155882.27499999924,
      "d": 21.446067708340706,
      "v": 54
    },
    {
      "midi": 68,
      "hit": false,
      "t": 155882.27499999924,
      "d": 407.4752864583279,
      "v": 100
    },
    {
      "midi": 72,
      "hit": false,
      "t": 155882.27499999924,
      "d": 416.6664583333186,
      "v": 103
    },
    {
      "midi": 63,
      "hit": false,
      "t": 156176.39249999923,
      "d": 125.6126822916558,
      "v": 114
    },
    {
      "midi": 51,
      "hit": false,
      "t": 156470.50999999885,
      "d": 1599.2639062499802,
      "v": 127
    },
    {
      "midi": 51,
      "hit": false,
      "t": 156470.50999999922,
      "d": 2098.650911458273,
      "v": 114
    },
    {
      "midi": 58,
      "hit": false,
      "t": 156764.62749999884,
      "d": 1280.6366145833163,
      "v": 127
    },
    {
      "midi": 58,
      "hit": false,
      "t": 156764.62749999922,
      "d": 833.3329166666663,
      "v": 107
    },
    {
      "midi": 63,
      "hit": false,
      "t": 157058.74499999883,
      "d": 1482.842395833315,
      "v": 127
    },
    {
      "midi": 63,
      "hit": false,
      "t": 157058.7449999992,
      "d": 1001.8377343750035,
      "v": 124
    },
    {
      "midi": 67,
      "hit": false,
      "t": 157352.86249999882,
      "d": 1130.5141406249895,
      "v": 127
    },
    {
      "midi": 70,
      "hit": false,
      "t": 157352.86249999882,
      "d": 1155.0239322916605,
      "v": 127
    },
    {
      "midi": 70,
      "hit": false,
      "t": 157352.8624999992,
      "d": 750.6123697916628,
      "v": 104
    },
    {
      "midi": 67,
      "hit": false,
      "t": 157352.8624999992,
      "d": 762.8672656249837,
      "v": 115
    },
    {
      "midi": 58,
      "hit": false,
      "t": 157941.09749999922,
      "d": 441.1762499999604,
      "v": 121
    },
    {
      "midi": 67,
      "hit": false,
      "t": 158235.21499999918,
      "d": 551.4703124999651,
      "v": 112
    },
    {
      "midi": 70,
      "hit": false,
      "t": 158235.21499999918,
      "d": 563.725208333286,
      "v": 100
    },
    {
      "midi": 63,
      "hit": false,
      "t": 158235.21499999918,
      "d": 579.0438281249662,
      "v": 121
    },
    {
      "midi": 58,
      "hit": false,
      "t": 158529.33249999917,
      "d": 73.5293749999837,
      "v": 95
    },
    {
      "midi": 46,
      "hit": false,
      "t": 158823.44999999882,
      "d": 1522.6708072916372,
      "v": 127
    },
    {
      "midi": 46,
      "hit": false,
      "t": 158823.44999999914,
      "d": 2015.930364583328,
      "v": 104
    },
    {
      "midi": 58,
      "hit": false,
      "t": 159117.5674999988,
      "d": 1262.2542708333058,
      "v": 127
    },
    {
      "midi": 58,
      "hit": false,
      "t": 159117.56749999913,
      "d": 897.6711197916593,
      "v": 118
    },
    {
      "midi": 62,
      "hit": false,
      "t": 159411.6849999988,
      "d": 1571.6903906250081,
      "v": 127
    },
    {
      "midi": 62,
      "hit": false,
      "t": 159411.68499999912,
      "d": 937.4995312500105,
      "v": 123
    },
    {
      "midi": 70,
      "hit": false,
      "t": 159705.8024999988,
      "d": 1246.9356510416546,
      "v": 127
    },
    {
      "midi": 65,
      "hit": false,
      "t": 159705.8024999988,
      "d": 1262.2542708333349,
      "v": 127
    },
    {
      "midi": 70,
      "hit": false,
      "t": 159705.80249999912,
      "d": 628.0634114583372,
      "v": 124
    },
    {
      "midi": 65,
      "hit": false,
      "t": 159705.80249999912,
      "d": 649.5094791666779,
      "v": 123
    },
    {
      "midi": 58,
      "hit": false,
      "t": 160294.03749999913,
      "d": 376.8380468749965,
      "v": 118
    },
    {
      "midi": 70,
      "hit": false,
      "t": 160588.15499999913,
      "d": 563.7252083333151,
      "v": 127
    },
    {
      "midi": 65,
      "hit": false,
      "t": 160588.15499999913,
      "d": 585.1712760416558,
      "v": 125
    },
    {
      "midi": 62,
      "hit": false,
      "t": 160588.15499999913,
      "d": 612.744791666657,
      "v": 115
    },
    {
      "midi": 58,
      "hit": false,
      "t": 160882.27249999912,
      "d": 116.42151041666511,
      "v": 104
    },
    {
      "midi": 48,
      "hit": false,
      "t": 161176.38999999882,
      "d": 1626.8374218749814,
      "v": 127
    },
    {
      "midi": 48,
      "hit": false,
      "t": 161176.3899999991,
      "d": 2089.4597395833116,
      "v": 107
    },
    {
      "midi": 55,
      "hit": false,
      "t": 161470.5074999988,
      "d": 1305.1464062499872,
      "v": 127
    },
    {
      "midi": 55,
      "hit": false,
      "t": 161470.5074999991,
      "d": 833.3329166666663,
      "v": 105
    },
    {
      "midi": 60,
      "hit": false,
      "t": 161764.6249999988,
      "d": 1593.1364583333489,
      "v": 127
    },
    {
      "midi": 60,
      "hit": false,
      "t": 161764.6249999991,
      "d": 958.9455989583221,
      "v": 127
    },
    {
      "midi": 67,
      "hit": false,
      "t": 162058.7424999988,
      "d": 1283.7003385416756,
      "v": 127
    },
    {
      "midi": 63,
      "hit": false,
      "t": 162058.7424999988,
      "d": 1302.082682291686,
      "v": 127
    },
    {
      "midi": 63,
      "hit": false,
      "t": 162058.7424999991,
      "d": 649.5094791666779,
      "v": 124
    },
    {
      "midi": 67,
      "hit": false,
      "t": 162058.7424999991,
      "d": 652.5732031250081,
      "v": 120
    },
    {
      "midi": 55,
      "hit": false,
      "t": 162646.9774999991,
      "d": 468.7497656249907,
      "v": 115
    },
    {
      "midi": 63,
      "hit": false,
      "t": 162941.0949999991,
      "d": 591.2987239583163,
      "v": 127
    },
    {
      "midi": 67,
      "hit": false,
      "t": 162941.0949999991,
      "d": 591.2987239583163,
      "v": 120
    },
    {
      "midi": 60,
      "hit": false,
      "t": 162941.0949999991,
      "d": 606.6173437499965,
      "v": 120
    },
    {
      "midi": 51,
      "hit": false,
      "t": 163235.2124999991,
      "d": 116.42151041666511,
      "v": 100
    },
    {
      "midi": 44,
      "hit": false,
      "t": 163529.32999999882,
      "d": 1568.6266666666488,
      "v": 127
    },
    {
      "midi": 44,
      "hit": false,
      "t": 163529.32999999908,
      "d": 2196.690078124986,
      "v": 107
    },
    {
      "midi": 56,
      "hit": false,
      "t": 163823.44749999882,
      "d": 1320.4650260416674,
      "v": 127
    },
    {
      "midi": 56,
      "hit": false,
      "t": 163823.4474999991,
      "d": 811.8868489583256,
      "v": 118
    },
    {
      "midi": 60,
      "hit": false,
      "t": 164117.5649999988,
      "d": 1326.592473958328,
      "v": 127
    },
    {
      "midi": 60,
      "hit": false,
      "t": 164117.5649999991,
      "d": 971.2004947916721,
      "v": 127
    },
    {
      "midi": 63,
      "hit": false,
      "t": 164411.6824999988,
      "d": 1041.6661458333256,
      "v": 127
    },
    {
      "midi": 68,
      "hit": false,
      "t": 164411.6824999988,
      "d": 1041.6661458333256,
      "v": 127
    },
    {
      "midi": 68,
      "hit": false,
      "t": 164411.6824999991,
      "d": 643.3820312500175,
      "v": 124
    },
    {
      "midi": 63,
      "hit": false,
      "t": 164411.6824999991,
      "d": 652.5732031250081,
      "v": 124
    },
    {
      "midi": 56,
      "hit": false,
      "t": 164999.9174999991,
      "d": 379.90177083332674,
      "v": 111
    },
    {
      "midi": 68,
      "hit": false,
      "t": 165294.0349999991,
      "d": 349.26453124999534,
      "v": 121
    },
    {
      "midi": 60,
      "hit": false,
      "t": 165294.0349999991,
      "d": 358.45570312498603,
      "v": 117
    },
    {
      "midi": 63,
      "hit": false,
      "t": 165294.0349999991,
      "d": 370.71059895830695,
      "v": 127
    },
    {
      "midi": 56,
      "hit": false,
      "t": 165588.1524999991,
      "d": 131.74013020831626,
      "v": 107
    },
    {
      "midi": 51,
      "hit": false,
      "t": 165882.2699999988,
      "d": 2049.6313281249604,
      "v": 127
    },
    {
      "midi": 51,
      "hit": false,
      "t": 165882.26999999906,
      "d": 2208.944973958307,
      "v": 118
    },
    {
      "midi": 58,
      "hit": false,
      "t": 166176.3874999988,
      "d": 1767.7687239582883,
      "v": 127
    },
    {
      "midi": 58,
      "hit": false,
      "t": 166176.38749999905,
      "d": 1902.572578124993,
      "v": 118
    },
    {
      "midi": 67,
      "hit": false,
      "t": 166470.50499999878,
      "d": 413.60273437498836,
      "v": 127
    },
    {
      "midi": 67,
      "hit": false,
      "t": 166470.50499999904,
      "d": 376.8380468749965,
      "v": 99
    },
    {
      "midi": 65,
      "hit": false,
      "t": 166764.62249999878,
      "d": 1204.0435156249732,
      "v": 127
    },
    {
      "midi": 65,
      "hit": false,
      "t": 166764.62249999904,
      "d": 1335.7836458333186,
      "v": 101
    },
    {
      "midi": 70,
      "hit": false,
      "t": 167352.85749999876,
      "d": 631.1271354166674,
      "v": 127
    },
    {
      "midi": 63,
      "hit": false,
      "t": 167352.85749999905,
      "d": 729.1663020833221,
      "v": 52
    },
    {
      "midi": 70,
      "hit": false,
      "t": 167352.85749999905,
      "d": 762.8672656249837,
      "v": 111
    },
    {
      "midi": 46,
      "hit": false,
      "t": 168235.20999999877,
      "d": 2156.861666666635,
      "v": 127
    },
    {
      "midi": 46,
      "hit": false,
      "t": 168235.20999999903,
      "d": 2190.5626302082674,
      "v": 107
    },
    {
      "midi": 53,
      "hit": false,
      "t": 168529.32749999876,
      "d": 1130.5141406249895,
      "v": 127
    },
    {
      "midi": 58,
      "hit": false,
      "t": 168529.32749999902,
      "d": 903.7985677083198,
      "v": 114
    },
    {
      "midi": 58,
      "hit": false,
      "t": 168823.44499999876,
      "d": 330.88218749998487,
      "v": 127
    },
    {
      "midi": 62,
      "hit": false,
      "t": 168823.44499999902,
      "d": 1593.1364583332906,
      "v": 120
    },
    {
      "midi": 62,
      "hit": false,
      "t": 169117.56249999875,
      "d": 1446.0777083333232,
      "v": 127
    },
    {
      "midi": 70,
      "hit": false,
      "t": 169117.562499999,
      "d": 1289.827786458307,
      "v": 111
    },
    {
      "midi": 58,
      "hit": false,
      "t": 169705.79749999876,
      "d": 493.2595572916616,
      "v": 127
    },
    {
      "midi": 58,
      "hit": false,
      "t": 169705.797499999,
      "d": 695.4653385416605,
      "v": 100
    },
    {
      "midi": 53,
      "hit": false,
      "t": 169999.91499999876,
      "d": 499.3870052083221,
      "v": 127
    },
    {
      "midi": 65,
      "hit": false,
      "t": 169999.914999999,
      "d": 404.4115624999977,
      "v": 115
    },
    {
      "midi": 58,
      "hit": false,
      "t": 170294.03249999875,
      "d": 229.779296875,
      "v": 127
    },
    {
      "midi": 48,
      "hit": false,
      "t": 170588.14999999874,
      "d": 1951.5921614583058,
      "v": 127
    },
    {
      "midi": 48,
      "hit": false,
      "t": 170588.14999999898,
      "d": 1887.2539583333128,
      "v": 115
    },
    {
      "midi": 55,
      "hit": false,
      "t": 170882.26749999874,
      "d": 1608.455078124971,
      "v": 127
    },
    {
      "midi": 55,
      "hit": false,
      "t": 170882.26749999897,
      "d": 833.3329166666663,
      "v": 99
    },
    {
      "midi": 60,
      "hit": false,
      "t": 171176.38499999873,
      "d": 876.2250520833186,
      "v": 127
    },
    {
      "midi": 60,
      "hit": false,
      "t": 171176.38499999896,
      "d": 1188.724895833322,
      "v": 127
    },
    {
      "midi": 67,
      "hit": false,
      "t": 171470.50249999872,
      "d": 1412.3767447916616,
      "v": 127
    },
    {
      "midi": 67,
      "hit": false,
      "t": 171470.50249999895,
      "d": 1384.8032291666605,
      "v": 125
    },
    {
      "midi": 63,
      "hit": false,
      "t": 172058.7374999987,
      "d": 842.5240885416861,
      "v": 127
    },
    {
      "midi": 55,
      "hit": false,
      "t": 172058.73749999897,
      "d": 379.90177083332674,
      "v": 107
    },
    {
      "midi": 63,
      "hit": false,
      "t": 172352.85499999896,
      "d": 514.7056249999732,
      "v": 114
    },
    {
      "midi": 60,
      "hit": false,
      "t": 172646.97249999872,
      "d": 254.28908854167094,
      "v": 127
    },
    {
      "midi": 60,
      "hit": false,
      "t": 172646.97249999896,
      "d": 235.90674479166046,
      "v": 115
    },
    {
      "midi": 44,
      "hit": false,
      "t": 172941.08999999872,
      "d": 1838.234374999971,
      "v": 127
    },
    {
      "midi": 44,
      "hit": false,
      "t": 172941.08999999895,
      "d": 2129.2881510416337,
      "v": 121
    },
    {
      "midi": 58,
      "hit": false,
      "t": 173235.2074999987,
      "d": 1534.9257031249872,
      "v": 127
    },
    {
      "midi": 58,
      "hit": false,
      "t": 173235.20749999894,
      "d": 1764.7049999999872,
      "v": 124
    },
    {
      "midi": 60,
      "hit": false,
      "t": 173529.3249999987,
      "d": 361.51942708331626,
      "v": 127
    },
    {
      "midi": 60,
      "hit": false,
      "t": 173529.32499999893,
      "d": 327.81846354165464,
      "v": 107
    },
    {
      "midi": 63,
      "hit": false,
      "t": 173823.4424999987,
      "d": 977.3279427083326,
      "v": 127
    },
    {
      "midi": 63,
      "hit": false,
      "t": 173823.44249999893,
      "d": 1148.896484375,
      "v": 111
    },
    {
      "midi": 51,
      "hit": false,
      "t": 174705.79499999894,
      "d": 333.9459114583151,
      "v": 104
    },
    {
      "midi": 60,
      "hit": false,
      "t": 174999.91249999893,
      "d": 116.42151041666511,
      "v": 120
    },
    {
      "midi": 51,
      "hit": false,
      "t": 175294.0299999987,
      "d": 2138.4793229166535,
      "v": 127
    },
    {
      "midi": 51,
      "hit": false,
      "t": 175294.02999999892,
      "d": 2018.9940885416581,
      "v": 124
    },
    {
      "midi": 58,
      "hit": false,
      "t": 175588.14749999868,
      "d": 1819.8520312499895,
      "v": 127
    },
    {
      "midi": 58,
      "hit": false,
      "t": 175588.14749999892,
      "d": 1731.0040364583256,
      "v": 121
    },
    {
      "midi": 67,
      "hit": false,
      "t": 175882.26499999868,
      "d": 284.9263281250023,
      "v": 127
    },
    {
      "midi": 67,
      "hit": false,
      "t": 175882.2649999989,
      "d": 404.4115624999977,
      "v": 97
    },
    {
      "midi": 66,
      "hit": false,
      "t": 176176.38249999867,
      "d": 15.318619791680248,
      "v": 127
    },
    {
      "midi": 65,
      "hit": false,
      "t": 176176.38249999867,
      "d": 1262.2542708333349,
      "v": 127
    },
    {
      "midi": 65,
      "hit": false,
      "t": 176176.3824999989,
      "d": 1161.151380208321,
      "v": 97
    },
    {
      "midi": 70,
      "hit": false,
      "t": 176764.61749999868,
      "d": 680.1467187499802,
      "v": 127
    },
    {
      "midi": 70,
      "hit": false,
      "t": 176764.61749999892,
      "d": 566.7889322916453,
      "v": 97
    },
    {
      "midi": 46,
      "hit": false,
      "t": 177646.96999999866,
      "d": 1789.214791666629,
      "v": 127
    },
    {
      "midi": 46,
      "hit": false,
      "t": 177646.9699999989,
      "d": 1776.959895833308,
      "v": 111
    },
    {
      "midi": 53,
      "hit": false,
      "t": 177941.08749999866,
      "d": 1504.2884635416267,
      "v": 127
    },
    {
      "midi": 53,
      "hit": false,
      "t": 177941.0874999989,
      "d": 1488.9698437499756,
      "v": 92
    },
    {
      "midi": 58,
      "hit": false,
      "t": 178235.20499999865,
      "d": 1544.1168749999488,
      "v": 127
    },
    {
      "midi": 58,
      "hit": false,
      "t": 178235.20499999888,
      "d": 1629.9011458333116,
      "v": 118
    },
    {
      "midi": 62,
      "hit": false,
      "t": 178529.32249999864,
      "d": 1249.9993749999558,
      "v": 127
    },
    {
      "midi": 65,
      "hit": false,
      "t": 178529.32249999887,
      "d": 1295.9552343749965,
      "v": 103
    },
    {
      "midi": 65,
      "hit": false,
      "t": 179117.55749999863,
      "d": 655.6369270833093,
      "v": 127
    },
    {
      "midi": 62,
      "hit": false,
      "t": 179117.55749999886,
      "d": 738.3574739583419,
      "v": 97
    },
    {
      "midi": 48,
      "hit": false,
      "t": 179999.9099999986,
      "d": 2233.454765624978,
      "v": 127
    },
    {
      "midi": 48,
      "hit": false,
      "t": 179999.90999999887,
      "d": 2251.8371093750175,
      "v": 107
    },
    {
      "midi": 55,
      "hit": false,
      "t": 180294.0274999986,
      "d": 1933.2098177083244,
      "v": 127
    },
    {
      "midi": 55,
      "hit": false,
      "t": 180294.02749999886,
      "d": 1957.7196093750244,
      "v": 115
    },
    {
      "midi": 60,
      "hit": false,
      "t": 180588.1449999986,
      "d": 358.45570312498603,
      "v": 127
    },
    {
      "midi": 60,
      "hit": false,
      "t": 180588.14499999885,
      "d": 398.2841145833372,
      "v": 125
    },
    {
      "midi": 63,
      "hit": false,
      "t": 180882.2624999986,
      "d": 297.18122395832324,
      "v": 127
    },
    {
      "midi": 63,
      "hit": false,
      "t": 180882.26249999885,
      "d": 324.7547395833535,
      "v": 121
    },
    {
      "midi": 60,
      "hit": false,
      "t": 181176.37999999858,
      "d": 330.88218749998487,
      "v": 127
    },
    {
      "midi": 60,
      "hit": false,
      "t": 181176.37999999887,
      "d": 367.6468750000058,
      "v": 127
    },
    {
      "midi": 63,
      "hit": false,
      "t": 181470.49749999857,
      "d": 324.7547395833244,
      "v": 127
    },
    {
      "midi": 63,
      "hit": false,
      "t": 181470.49749999886,
      "d": 343.137083333364,
      "v": 124
    },
    {
      "midi": 65,
      "hit": false,
      "t": 181764.61499999856,
      "d": 278.79888020834187,
      "v": 127
    },
    {
      "midi": 65,
      "hit": false,
      "t": 181764.61499999888,
      "d": 291.0537760416628,
      "v": 107
    },
    {
      "midi": 67,
      "hit": false,
      "t": 182058.7324999986,
      "d": 162.37736979167676,
      "v": 127
    },
    {
      "midi": 67,
      "hit": false,
      "t": 182058.73249999888,
      "d": 226.71557291666977,
      "v": 112
    },
    {
      "midi": 44,
      "hit": false,
      "t": 182352.84999999858,
      "d": 1856.6167187499814,
      "v": 127
    },
    {
      "midi": 51,
      "hit": false,
      "t": 182352.84999999887,
      "d": 1403.1855729166418,
      "v": 121
    },
    {
      "midi": 44,
      "hit": false,
      "t": 182352.84999999887,
      "d": 2132.351874999993,
      "v": 100
    },
    {
      "midi": 58,
      "hit": false,
      "t": 182646.96749999857,
      "d": 306.37239583331393,
      "v": 127
    },
    {
      "midi": 58,
      "hit": false,
      "t": 182646.96749999886,
      "d": 297.18122395832324,
      "v": 121
    },
    {
      "midi": 60,
      "hit": false,
      "t": 182941.08499999857,
      "d": 1240.8082031249942,
      "v": 127
    },
    {
      "midi": 60,
      "hit": false,
      "t": 182941.08499999886,
      "d": 1001.8377343750035,
      "v": 115
    },
    {
      "midi": 63,
      "hit": false,
      "t": 183235.20249999856,
      "d": 971.2004947916721,
      "v": 127
    },
    {
      "midi": 63,
      "hit": false,
      "t": 183235.20249999885,
      "d": 692.4016145833302,
      "v": 127
    },
    {
      "midi": 51,
      "hit": false,
      "t": 183823.43749999884,
      "d": 621.9359635416768,
      "v": 118
    },
    {
      "midi": 60,
      "hit": false,
      "t": 184117.55499999886,
      "d": 330.88218749998487,
      "v": 103
    },
    {
      "midi": 63,
      "hit": false,
      "t": 184117.55499999886,
      "d": 349.26453124999534,
      "v": 121
    },
    {
      "midi": 51,
      "hit": false,
      "t": 184705.78999999855,
      "d": 1859.6804427083116,
      "v": 127
    },
    {
      "midi": 51,
      "hit": false,
      "t": 184705.78999999887,
      "d": 1881.1265104166523,
      "v": 124
    },
    {
      "midi": 58,
      "hit": false,
      "t": 184999.90749999855,
      "d": 2043.5038802083,
      "v": 127
    },
    {
      "midi": 58,
      "hit": false,
      "t": 184999.90749999887,
      "d": 2009.8029166666674,
      "v": 124
    },
    {
      "midi": 67,
      "hit": false,
      "t": 185294.02499999854,
      "d": 386.0292187499872,
      "v": 127
    },
    {
      "midi": 63,
      "hit": false,
      "t": 185294.02499999886,
      "d": 82.72054687500349,
      "v": 40
    },
    {
      "midi": 67,
      "hit": false,
      "t": 185294.02499999886,
      "d": 808.8231249999953,
      "v": 99
    },
    {
      "midi": 65,
      "hit": false,
      "t": 185588.14249999853,
      "d": 1427.6953645833128,
      "v": 127
    },
    {
      "midi": 65,
      "hit": false,
      "t": 185588.14249999885,
      "d": 1393.9944010416802,
      "v": 107
    },
    {
      "midi": 63,
      "hit": false,
      "t": 185588.14249999885,
      "d": 1467.523776041693,
      "v": 4
    },
    {
      "midi": 70,
      "hit": false,
      "t": 186176.37749999852,
      "d": 802.6956770833349,
      "v": 127
    },
    {
      "midi": 67,
      "hit": false,
      "t": 186176.37749999887,
      "d": 39.82841145832208,
      "v": 49
    },
    {
      "midi": 70,
      "hit": false,
      "t": 186176.37749999887,
      "d": 897.6711197916884,
      "v": 121
    },
    {
      "midi": 46,
      "hit": false,
      "t": 187058.72999999853,
      "d": 1706.4942447916255,
      "v": 127
    },
    {
      "midi": 46,
      "hit": false,
      "t": 187058.72999999888,
      "d": 1807.5971354166686,
      "v": 107
    },
    {
      "midi": 53,
      "hit": false,
      "t": 187352.84749999852,
      "d": 1446.0777083332941,
      "v": 127
    },
    {
      "midi": 53,
      "hit": false,
      "t": 187352.8474999989,
      "d": 1528.7982552083267,
      "v": 92
    },
    {
      "midi": 58,
      "hit": false,
      "t": 187646.9649999985,
      "d": 1657.4746614582837,
      "v": 127
    },
    {
      "midi": 58,
      "hit": false,
      "t": 187646.9649999989,
      "d": 1706.4942447916546,
      "v": 127
    },
    {
      "midi": 65,
      "hit": false,
      "t": 187941.0824999985,
      "d": 1332.7199218749593,
      "v": 127
    },
    {
      "midi": 65,
      "hit": false,
      "t": 187941.08249999888,
      "d": 1421.5679166666523,
      "v": 107
    },
    {
      "midi": 62,
      "hit": false,
      "t": 188529.3174999985,
      "d": 713.8476822916418,
      "v": 127
    },
    {
      "midi": 62,
      "hit": false,
      "t": 188529.31749999887,
      "d": 732.2300260416814,
      "v": 101
    },
    {
      "midi": 48,
      "hit": false,
      "t": 189411.66999999847,
      "d": 1847.4255468749616,
      "v": 127
    },
    {
      "midi": 48,
      "hit": false,
      "t": 189411.66999999888,
      "d": 2104.7783593749627,
      "v": 109
    },
    {
      "midi": 55,
      "hit": false,
      "t": 189705.78749999846,
      "d": 1519.607083333307,
      "v": 127
    },
    {
      "midi": 55,
      "hit": false,
      "t": 189705.78749999887,
      "d": 1770.8324479166477,
      "v": 97
    },
    {
      "midi": 67,
      "hit": false,
      "t": 189999.90499999846,
      "d": 1611.5188020833011,
      "v": 127
    },
    {
      "midi": 60,
      "hit": false,
      "t": 189999.90499999886,
      "d": 1786.1510677082988,
      "v": 120
    },
    {
      "midi": 63,
      "hit": false,
      "t": 190294.02249999845,
      "d": 1326.5924739582988,
      "v": 127
    },
    {
      "midi": 67,
      "hit": false,
      "t": 190294.02249999886,
      "d": 1482.842395833315,
      "v": 115
    },
    {
      "midi": 63,
      "hit": false,
      "t": 190882.25749999884,
      "d": 891.5436718749988,
      "v": 118
    },
    {
      "midi": 44,
      "hit": false,
      "t": 191764.6099999984,
      "d": 2061.8862239583104,
      "v": 127
    },
    {
      "midi": 44,
      "hit": false,
      "t": 191764.60999999885,
      "d": 2052.6950520832906,
      "v": 111
    },
    {
      "midi": 56,
      "hit": false,
      "t": 192058.7274999984,
      "d": 854.7789843749779,
      "v": 127
    },
    {
      "midi": 56,
      "hit": false,
      "t": 192058.72749999881,
      "d": 925.2446354166605,
      "v": 114
    },
    {
      "midi": 60,
      "hit": false,
      "t": 192352.8449999984,
      "d": 1253.063098958315,
      "v": 127
    },
    {
      "midi": 60,
      "hit": false,
      "t": 192352.8449999988,
      "d": 1498.1610156249953,
      "v": 127
    },
    {
      "midi": 68,
      "hit": false,
      "t": 192646.9624999984,
      "d": 1240.8082031249942,
      "v": 127
    },
    {
      "midi": 68,
      "hit": false,
      "t": 192646.9624999988,
      "d": 1210.1709635416628,
      "v": 121
    },
    {
      "midi": 56,
      "hit": false,
      "t": 193235.19749999838,
      "d": 591.2987239583454,
      "v": 127
    },
    {
      "midi": 56,
      "hit": false,
      "t": 193235.19749999882,
      "d": 591.2987239583163,
      "v": 100
    },
    {
      "midi": 63,
      "hit": false,
      "t": 193529.31499999837,
      "d": 367.6468750000058,
      "v": 127
    },
    {
      "midi": 63,
      "hit": false,
      "t": 193529.3149999988,
      "d": 346.2008072916651,
      "v": 124
    },
    {
      "midi": 44,
      "hit": false,
      "t": 194117.5499999984,
      "d": 781.2496093749942,
      "v": 127
    },
    {
      "midi": 68,
      "hit": false,
      "t": 194117.5499999988,
      "d": 563.7252083333151,
      "v": 114
    },
    {
      "midi": 63,
      "hit": false,
      "t": 194117.5499999988,
      "d": 603.5536197916663,
      "v": 114
    },
    {
      "midi": 44,
      "hit": false,
      "t": 194117.5499999988,
      "d": 1406.2492968750012,
      "v": 95
    },
    {
      "midi": 56,
      "hit": false,
      "t": 194411.66749999838,
      "d": 732.2300260416814,
      "v": 127
    },
    {
      "midi": 56,
      "hit": false,
      "t": 194411.6674999988,
      "d": 768.9947135416733,
      "v": 97
    },
    {
      "midi": 60,
      "hit": false,
      "t": 194705.78499999837,
      "d": 597.4261718750349,
      "v": 127
    },
    {
      "midi": 60,
      "hit": false,
      "t": 194705.78499999878,
      "d": 1001.8377343750035,
      "v": 112
    },
    {
      "midi": 68,
      "hit": false,
      "t": 194999.9024999984,
      "d": 287.99005208333256,
      "v": 127
    },
    {
      "midi": 63,
      "hit": false,
      "t": 194999.9024999988,
      "d": 729.1663020833221,
      "v": 107
    },
    {
      "midi": 68,
      "hit": false,
      "t": 194999.9024999988,
      "d": 735.2937499999825,
      "v": 104
    },
    {
      "midi": 56,
      "hit": false,
      "t": 195294.0199999988,
      "d": 594.3624479166465,
      "v": 100
    },
    {
      "midi": 70,
      "hit": false,
      "t": 195882.2549999984,
      "d": 401.34783854166744,
      "v": 127
    },
    {
      "midi": 65,
      "hit": false,
      "t": 195882.2549999984,
      "d": 410.53901041665813,
      "v": 127
    },
    {
      "midi": 62,
      "hit": false,
      "t": 195882.25499999878,
      "d": 395.220390625007,
      "v": 101
    },
    {
      "midi": 65,
      "hit": false,
      "t": 195882.25499999878,
      "d": 416.6664583333477,
      "v": 115
    },
    {
      "midi": 70,
      "hit": false,
      "t": 195882.25499999878,
      "d": 471.81348958335,
      "v": 114
    },
    {
      "midi": 46,
      "hit": false,
      "t": 195882.25499999878,
      "d": 560.661484375014,
      "v": 95
    },
    {
      "midi": 51,
      "hit": false,
      "t": 196470.4899999984,
      "d": 1210.1709635416628,
      "v": 127
    },
    {
      "midi": 51,
      "hit": false,
      "t": 196470.4899999988,
      "d": 2423.405651041685,
      "v": 114
    },
    {
      "midi": 58,
      "hit": false,
      "t": 196494.99979166547,
      "d": 303.3086718749837,
      "v": 127
    },
    {
      "midi": 60,
      "hit": false,
      "t": 196764.6074999988,
      "d": 349.26453124999534,
      "v": 101
    },
    {
      "midi": 58,
      "hit": false,
      "t": 197067.91617187377,
      "d": 183.82343750001746,
      "v": 127
    },
    {
      "midi": 60,
      "hit": false,
      "t": 197383.47973958214,
      "d": 376.8380468749965,
      "v": 120
    },
    {
      "midi": 56,
      "hit": false,
      "t": 197389.6071874988,
      "d": 361.51942708334536,
      "v": 127
    },
    {
      "midi": 55,
      "hit": false,
      "t": 197956.39611979047,
      "d": 2337.621380208351,
      "v": 105
    },
    {
      "midi": 58,
      "hit": false,
      "t": 197956.39611979047,
      "d": 2359.067447916692,
      "v": 127
    }
  ]
}