{
  "jsonPath": "Rock/Pop Rock/Sheryl Crow/if-it-makes-you-happy.json",
  "path": "Rock\\Pop Rock\\Sheryl Crow\\If It Makes You Happy.mid",
  "name": "If It Makes You Happy",
  "difficulty": "Advanced",
  "bpm": 96,
  "notes": [
    {
      "midi": 57,
      "hit": false,
      "t": 5000,
      "d": 994.7916666666661,
      "v": 62
    },
    {
      "midi": 59,
      "hit": false,
      "t": 5000,
      "d": 1005.208333333333,
      "v": 82
    },
    {
      "midi": 55,
      "hit": false,
      "t": 5005.208333333333,
      "d": 1000,
      "v": 64
    },
    {
      "midi": 62,
      "hit": false,
      "t": 5005.208333333333,
      "d": 1046.875,
      "v": 80
    },
    {
      "midi": 31,
      "hit": false,
      "t": 5005.208333333333,
      "d": 1244.791666666667,
      "v": 82
    },
    {
      "midi": 43,
      "hit": false,
      "t": 5010.416666666667,
      "d": 1156.25,
      "v": 122
    },
    {
      "midi": 38,
      "hit": false,
      "t": 5473.958333333333,
      "d": 776.041666666667,
      "v": 78
    },
    {
      "midi": 62,
      "hit": false,
      "t": 5635.416666666667,
      "d": 713.541666666667,
      "v": 122
    },
    {
      "midi": 67,
      "hit": false,
      "t": 5635.416666666667,
      "d": 729.166666666667,
      "v": 122
    },
    {
      "midi": 71,
      "hit": false,
      "t": 5635.416666666667,
      "d": 729.166666666667,
      "v": 122
    },
    {
      "midi": 43,
      "hit": false,
      "t": 5947.916666666666,
      "d": 302.08333333333394,
      "v": 85
    },
    {
      "midi": 59,
      "hit": false,
      "t": 6260.416666666667,
      "d": 250.0000000000009,
      "v": 61
    },
    {
      "midi": 62,
      "hit": false,
      "t": 6260.416666666667,
      "d": 250.0000000000009,
      "v": 62
    },
    {
      "midi": 43,
      "hit": false,
      "t": 6260.416666666667,
      "d": 526.041666666667,
      "v": 122
    },
    {
      "midi": 38,
      "hit": false,
      "t": 6270.833333333334,
      "d": 239.58333333333394,
      "v": 70
    },
    {
      "midi": 71,
      "hit": false,
      "t": 6270.833333333334,
      "d": 239.58333333333394,
      "v": 82
    },
    {
      "midi": 43,
      "hit": false,
      "t": 6281.250000000001,
      "d": 229.16666666666697,
      "v": 53
    },
    {
      "midi": 62,
      "hit": false,
      "t": 6572.916666666667,
      "d": 562.5,
      "v": 122
    },
    {
      "midi": 67,
      "hit": false,
      "t": 6572.916666666667,
      "d": 682.291666666667,
      "v": 122
    },
    {
      "midi": 71,
      "hit": false,
      "t": 6572.916666666667,
      "d": 697.916666666667,
      "v": 122
    },
    {
      "midi": 57,
      "hit": false,
      "t": 6572.916666666668,
      "d": 916.666666666667,
      "v": 61
    },
    {
      "midi": 60,
      "hit": false,
      "t": 6572.916666666668,
      "d": 916.666666666667,
      "v": 62
    },
    {
      "midi": 38,
      "hit": false,
      "t": 6583.333333333335,
      "d": 875,
      "v": 70
    },
    {
      "midi": 65,
      "hit": false,
      "t": 6583.333333333335,
      "d": 906.25,
      "v": 82
    },
    {
      "midi": 43,
      "hit": false,
      "t": 6593.750000000002,
      "d": 807.2916666666661,
      "v": 53
    },
    {
      "midi": 43,
      "hit": false,
      "t": 6885.416666666667,
      "d": 546.875,
      "v": 122
    },
    {
      "midi": 62,
      "hit": false,
      "t": 7197.916666666667,
      "d": 848.958333333333,
      "v": 122
    },
    {
      "midi": 69,
      "hit": false,
      "t": 7197.916666666667,
      "d": 848.958333333333,
      "v": 122
    },
    {
      "midi": 72,
      "hit": false,
      "t": 7197.916666666667,
      "d": 848.958333333333,
      "v": 122
    },
    {
      "midi": 65,
      "hit": false,
      "t": 7500.000000000002,
      "d": 1427.083333333334,
      "v": 64
    },
    {
      "midi": 60,
      "hit": false,
      "t": 7500.000000000002,
      "d": 2427.083333333334,
      "v": 57
    },
    {
      "midi": 62,
      "hit": false,
      "t": 7500.000000000002,
      "d": 2437.5,
      "v": 78
    },
    {
      "midi": 69,
      "hit": false,
      "t": 7505.208333333335,
      "d": 1432.291666666667,
      "v": 87
    },
    {
      "midi": 43,
      "hit": false,
      "t": 7510.416666666667,
      "d": 1171.875000000001,
      "v": 122
    },
    {
      "midi": 62,
      "hit": false,
      "t": 8135.416666666667,
      "d": 614.5833333333348,
      "v": 122
    },
    {
      "midi": 69,
      "hit": false,
      "t": 8135.416666666667,
      "d": 614.5833333333348,
      "v": 122
    },
    {
      "midi": 72,
      "hit": false,
      "t": 8135.416666666667,
      "d": 614.5833333333348,
      "v": 122
    },
    {
      "midi": 62,
      "hit": false,
      "t": 8760.416666666668,
      "d": 307.29166666666606,
      "v": 122
    },
    {
      "midi": 69,
      "hit": false,
      "t": 8760.416666666668,
      "d": 406.25,
      "v": 122
    },
    {
      "midi": 72,
      "hit": false,
      "t": 8760.416666666668,
      "d": 427.08333333333394,
      "v": 122
    },
    {
      "midi": 43,
      "hit": false,
      "t": 8760.416666666668,
      "d": 750,
      "v": 122
    },
    {
      "midi": 74,
      "hit": false,
      "t": 9062.500000000002,
      "d": 541.6666666666661,
      "v": 85
    },
    {
      "midi": 67,
      "hit": false,
      "t": 9072.916666666668,
      "d": 526.0416666666661,
      "v": 122
    },
    {
      "midi": 62,
      "hit": false,
      "t": 9072.916666666668,
      "d": 546.875,
      "v": 122
    },
    {
      "midi": 71,
      "hit": false,
      "t": 9072.916666666668,
      "d": 562.5,
      "v": 122
    },
    {
      "midi": 69,
      "hit": false,
      "t": 9375.000000000002,
      "d": 421.875,
      "v": 74
    },
    {
      "midi": 52,
      "hit": false,
      "t": 9385.416666666668,
      "d": 427.08333333333394,
      "v": 122
    },
    {
      "midi": 65,
      "hit": false,
      "t": 9687.500000000002,
      "d": 203.125,
      "v": 72
    },
    {
      "midi": 50,
      "hit": false,
      "t": 9697.916666666668,
      "d": 390.625,
      "v": 122
    },
    {
      "midi": 71,
      "hit": false,
      "t": 9697.916666666668,
      "d": 833.3333333333339,
      "v": 122
    },
    {
      "midi": 62,
      "hit": false,
      "t": 9697.916666666668,
      "d": 848.9583333333339,
      "v": 122
    },
    {
      "midi": 67,
      "hit": false,
      "t": 9697.916666666668,
      "d": 869.7916666666679,
      "v": 122
    },
    {
      "midi": 57,
      "hit": false,
      "t": 10000.000000000002,
      "d": 994.7916666666679,
      "v": 62
    },
    {
      "midi": 59,
      "hit": false,
      "t": 10000.000000000002,
      "d": 1005.2083333333339,
      "v": 82
    },
    {
      "midi": 55,
      "hit": false,
      "t": 10005.208333333336,
      "d": 1000,
      "v": 64
    },
    {
      "midi": 62,
      "hit": false,
      "t": 10005.208333333336,
      "d": 1046.875,
      "v": 80
    },
    {
      "midi": 31,
      "hit": false,
      "t": 10005.208333333336,
      "d": 1244.791666666666,
      "v": 82
    },
    {
      "midi": 43,
      "hit": false,
      "t": 10010.416666666668,
      "d": 1156.2500000000018,
      "v": 122
    },
    {
      "midi": 38,
      "hit": false,
      "t": 10473.958333333336,
      "d": 776.0416666666661,
      "v": 78
    },
    {
      "midi": 71,
      "hit": false,
      "t": 10635.41666666667,
      "d": 682.2916666666661,
      "v": 122
    },
    {
      "midi": 62,
      "hit": false,
      "t": 10635.41666666667,
      "d": 697.9166666666661,
      "v": 122
    },
    {
      "midi": 67,
      "hit": false,
      "t": 10635.41666666667,
      "d": 697.9166666666661,
      "v": 122
    },
    {
      "midi": 43,
      "hit": false,
      "t": 10947.91666666667,
      "d": 302.0833333333321,
      "v": 85
    },
    {
      "midi": 59,
      "hit": false,
      "t": 11260.416666666668,
      "d": 249.99999999999818,
      "v": 61
    },
    {
      "midi": 62,
      "hit": false,
      "t": 11260.416666666668,
      "d": 249.99999999999818,
      "v": 62
    },
    {
      "midi": 43,
      "hit": false,
      "t": 11260.41666666667,
      "d": 546.875,
      "v": 122
    },
    {
      "midi": 38,
      "hit": false,
      "t": 11270.833333333334,
      "d": 239.58333333333212,
      "v": 70
    },
    {
      "midi": 71,
      "hit": false,
      "t": 11270.833333333334,
      "d": 239.58333333333212,
      "v": 82
    },
    {
      "midi": 43,
      "hit": false,
      "t": 11281.25,
      "d": 229.16666666666606,
      "v": 53
    },
    {
      "midi": 57,
      "hit": false,
      "t": 11572.916666666666,
      "d": 916.6666666666661,
      "v": 61
    },
    {
      "midi": 60,
      "hit": false,
      "t": 11572.916666666666,
      "d": 916.6666666666661,
      "v": 62
    },
    {
      "midi": 62,
      "hit": false,
      "t": 11572.91666666667,
      "d": 546.875,
      "v": 122
    },
    {
      "midi": 67,
      "hit": false,
      "t": 11572.91666666667,
      "d": 682.2916666666661,
      "v": 122
    },
    {
      "midi": 71,
      "hit": false,
      "t": 11572.91666666667,
      "d": 729.1666666666661,
      "v": 122
    },
    {
      "midi": 38,
      "hit": false,
      "t": 11583.333333333332,
      "d": 875,
      "v": 70
    },
    {
      "midi": 65,
      "hit": false,
      "t": 11583.333333333332,
      "d": 906.25,
      "v": 82
    },
    {
      "midi": 43,
      "hit": false,
      "t": 11593.749999999998,
      "d": 807.2916666666679,
      "v": 53
    },
    {
      "midi": 43,
      "hit": false,
      "t": 11885.41666666667,
      "d": 562.5,
      "v": 122
    },
    {
      "midi": 72,
      "hit": false,
      "t": 12197.91666666667,
      "d": 848.9583333333339,
      "v": 122
    },
    {
      "midi": 62,
      "hit": false,
      "t": 12197.91666666667,
      "d": 885.4166666666679,
      "v": 122
    },
    {
      "midi": 69,
      "hit": false,
      "t": 12197.91666666667,
      "d": 885.4166666666679,
      "v": 122
    },
    {
      "midi": 43,
      "hit": false,
      "t": 12499.999999999998,
      "d": 2500,
      "v": 66
    },
    {
      "midi": 53,
      "hit": false,
      "t": 12499.999999999998,
      "d": 2500,
      "v": 80
    },
    {
      "midi": 60,
      "hit": false,
      "t": 12499.999999999998,
      "d": 2500,
      "v": 58
    },
    {
      "midi": 72,
      "hit": false,
      "t": 12499.999999999998,
      "d": 2500,
      "v": 86
    },
    {
      "midi": 43,
      "hit": false,
      "t": 12510.41666666667,
      "d": 1140.6250000000018,
      "v": 122
    },
    {
      "midi": 69,
      "hit": false,
      "t": 12656.249999999998,
      "d": 2343.75,
      "v": 64
    },
    {
      "midi": 62,
      "hit": false,
      "t": 12812.499999999998,
      "d": 2187.5,
      "v": 78
    },
    {
      "midi": 62,
      "hit": false,
      "t": 13135.416666666672,
      "d": 614.5833333333339,
      "v": 122
    },
    {
      "midi": 69,
      "hit": false,
      "t": 13135.416666666672,
      "d": 614.5833333333339,
      "v": 122
    },
    {
      "midi": 72,
      "hit": false,
      "t": 13135.416666666672,
      "d": 614.5833333333339,
      "v": 122
    },
    {
      "midi": 62,
      "hit": false,
      "t": 13760.416666666672,
      "d": 307.29166666666606,
      "v": 122
    },
    {
      "midi": 72,
      "hit": false,
      "t": 13760.416666666672,
      "d": 406.25,
      "v": 122
    },
    {
      "midi": 69,
      "hit": false,
      "t": 13760.416666666672,
      "d": 442.70833333333394,
      "v": 122
    },
    {
      "midi": 43,
      "hit": false,
      "t": 13760.416666666672,
      "d": 750,
      "v": 122
    },
    {
      "midi": 67,
      "hit": false,
      "t": 14072.916666666672,
      "d": 526.0416666666661,
      "v": 122
    },
    {
      "midi": 62,
      "hit": false,
      "t": 14072.916666666672,
      "d": 546.875,
      "v": 122
    },
    {
      "midi": 71,
      "hit": false,
      "t": 14072.916666666672,
      "d": 546.875,
      "v": 122
    },
    {
      "midi": 52,
      "hit": false,
      "t": 14385.416666666672,
      "d": 307.29166666666606,
      "v": 122
    },
    {
      "midi": 50,
      "hit": false,
      "t": 14697.916666666672,
      "d": 421.875,
      "v": 122
    },
    {
      "midi": 62,
      "hit": false,
      "t": 14697.916666666672,
      "d": 859.375,
      "v": 122
    },
    {
      "midi": 67,
      "hit": false,
      "t": 14697.916666666672,
      "d": 859.375,
      "v": 122
    },
    {
      "midi": 71,
      "hit": false,
      "t": 14697.916666666672,
      "d": 859.375,
      "v": 122
    },
    {
      "midi": 57,
      "hit": false,
      "t": 14999.999999999998,
      "d": 994.7916666666679,
      "v": 62
    },
    {
      "midi": 59,
      "hit": false,
      "t": 14999.999999999998,
      "d": 1005.2083333333339,
      "v": 82
    },
    {
      "midi": 55,
      "hit": false,
      "t": 15005.208333333332,
      "d": 1000,
      "v": 64
    },
    {
      "midi": 62,
      "hit": false,
      "t": 15005.208333333332,
      "d": 1046.875,
      "v": 80
    },
    {
      "midi": 31,
      "hit": false,
      "t": 15005.208333333332,
      "d": 1244.791666666666,
      "v": 82
    },
    {
      "midi": 43,
      "hit": false,
      "t": 15010.416666666672,
      "d": 614.5833333333339,
      "v": 122
    },
    {
      "midi": 38,
      "hit": false,
      "t": 15473.958333333332,
      "d": 776.0416666666661,
      "v": 78
    },
    {
      "midi": 43,
      "hit": false,
      "t": 15635.416666666672,
      "d": 614.5833333333339,
      "v": 122
    },
    {
      "midi": 62,
      "hit": false,
      "t": 15635.416666666672,
      "d": 682.2916666666661,
      "v": 122
    },
    {
      "midi": 67,
      "hit": false,
      "t": 15635.416666666672,
      "d": 692.7083333333321,
      "v": 122
    },
    {
      "midi": 71,
      "hit": false,
      "t": 15635.416666666672,
      "d": 692.7083333333321,
      "v": 122
    },
    {
      "midi": 43,
      "hit": false,
      "t": 15947.916666666666,
      "d": 302.0833333333321,
      "v": 85
    },
    {
      "midi": 59,
      "hit": false,
      "t": 16260.416666666664,
      "d": 250,
      "v": 61
    },
    {
      "midi": 62,
      "hit": false,
      "t": 16260.416666666664,
      "d": 250,
      "v": 62
    },
    {
      "midi": 43,
      "hit": false,
      "t": 16260.416666666672,
      "d": 307.29166666666424,
      "v": 122
    },
    {
      "midi": 38,
      "hit": false,
      "t": 16270.83333333333,
      "d": 239.58333333333394,
      "v": 70
    },
    {
      "midi": 71,
      "hit": false,
      "t": 16270.83333333333,
      "d": 239.58333333333394,
      "v": 82
    },
    {
      "midi": 43,
      "hit": false,
      "t": 16281.249999999996,
      "d": 229.16666666666788,
      "v": 53
    },
    {
      "midi": 57,
      "hit": false,
      "t": 16572.916666666664,
      "d": 916.6666666666679,
      "v": 61
    },
    {
      "midi": 60,
      "hit": false,
      "t": 16572.916666666664,
      "d": 916.6666666666679,
      "v": 62
    },
    {
      "midi": 62,
      "hit": false,
      "t": 16572.916666666668,
      "d": 614.5833333333321,
      "v": 122
    },
    {
      "midi": 67,
      "hit": false,
      "t": 16572.916666666668,
      "d": 614.5833333333321,
      "v": 122
    },
    {
      "midi": 71,
      "hit": false,
      "t": 16572.916666666668,
      "d": 614.5833333333321,
      "v": 122
    },
    {
      "midi": 43,
      "hit": false,
      "t": 16572.916666666668,
      "d": 869.7916666666679,
      "v": 122
    },
    {
      "midi": 38,
      "hit": false,
      "t": 16583.333333333332,
      "d": 875,
      "v": 70
    },
    {
      "midi": 65,
      "hit": false,
      "t": 16583.333333333332,
      "d": 906.25,
      "v": 82
    },
    {
      "midi": 43,
      "hit": false,
      "t": 16593.75,
      "d": 807.2916666666642,
      "v": 53
    },
    {
      "midi": 62,
      "hit": false,
      "t": 17197.916666666668,
      "d": 869.7916666666679,
      "v": 122
    },
    {
      "midi": 69,
      "hit": false,
      "t": 17197.916666666668,
      "d": 869.7916666666679,
      "v": 122
    },
    {
      "midi": 72,
      "hit": false,
      "t": 17197.916666666668,
      "d": 885.4166666666679,
      "v": 122
    },
    {
      "midi": 43,
      "hit": false,
      "t": 17500,
      "d": 2401.0416666666642,
      "v": 82
    },
    {
      "midi": 43,
      "hit": false,
      "t": 17510.416666666668,
      "d": 614.5833333333358,
      "v": 122
    },
    {
      "midi": 38,
      "hit": false,
      "t": 17947.916666666668,
      "d": 1973.9583333333285,
      "v": 82
    },
    {
      "midi": 43,
      "hit": false,
      "t": 18135.41666666667,
      "d": 614.5833333333321,
      "v": 122
    },
    {
      "midi": 62,
      "hit": false,
      "t": 18135.41666666667,
      "d": 614.5833333333321,
      "v": 122
    },
    {
      "midi": 69,
      "hit": false,
      "t": 18135.41666666667,
      "d": 614.5833333333321,
      "v": 122
    },
    {
      "midi": 72,
      "hit": false,
      "t": 18135.41666666667,
      "d": 614.5833333333321,
      "v": 122
    },
    {
      "midi": 60,
      "hit": false,
      "t": 18453.125,
      "d": 656.2500000000036,
      "v": 64
    },
    {
      "midi": 57,
      "hit": false,
      "t": 18453.125,
      "d": 713.5416666666679,
      "v": 64
    },
    {
      "midi": 65,
      "hit": false,
      "t": 18463.541666666668,
      "d": 666.6666666666679,
      "v": 85
    },
    {
      "midi": 43,
      "hit": false,
      "t": 18760.41666666667,
      "d": 307.2916666666679,
      "v": 122
    },
    {
      "midi": 62,
      "hit": false,
      "t": 18760.41666666667,
      "d": 307.2916666666679,
      "v": 122
    },
    {
      "midi": 69,
      "hit": false,
      "t": 18760.41666666667,
      "d": 395.8333333333321,
      "v": 122
    },
    {
      "midi": 72,
      "hit": false,
      "t": 18760.41666666667,
      "d": 395.8333333333321,
      "v": 122
    },
    {
      "midi": 43,
      "hit": false,
      "t": 19072.91666666667,
      "d": 395.8333333333321,
      "v": 122
    },
    {
      "midi": 67,
      "hit": false,
      "t": 19072.91666666667,
      "d": 557.2916666666642,
      "v": 122
    },
    {
      "midi": 71,
      "hit": false,
      "t": 19072.91666666667,
      "d": 557.2916666666642,
      "v": 122
    },
    {
      "midi": 62,
      "hit": false,
      "t": 19072.91666666667,
      "d": 572.9166666666642,
      "v": 122
    },
    {
      "midi": 52,
      "hit": false,
      "t": 19385.41666666667,
      "d": 406.24999999999636,
      "v": 122
    },
    {
      "midi": 65,
      "hit": false,
      "t": 19406.25,
      "d": 239.58333333333212,
      "v": 82
    },
    {
      "midi": 60,
      "hit": false,
      "t": 19531.25,
      "d": 317.7083333333321,
      "v": 62
    },
    {
      "midi": 50,
      "hit": false,
      "t": 19697.916666666668,
      "d": 421.875,
      "v": 122
    },
    {
      "midi": 62,
      "hit": false,
      "t": 19697.916666666668,
      "d": 869.7916666666679,
      "v": 122
    },
    {
      "midi": 67,
      "hit": false,
      "t": 19697.916666666668,
      "d": 869.7916666666679,
      "v": 122
    },
    {
      "midi": 71,
      "hit": false,
      "t": 19697.916666666668,
      "d": 885.4166666666679,
      "v": 122
    },
    {
      "midi": 62,
      "hit": false,
      "t": 20010.416666666664,
      "d": 927.0833333333358,
      "v": 62
    },
    {
      "midi": 59,
      "hit": false,
      "t": 20010.416666666664,
      "d": 1000,
      "v": 61
    },
    {
      "midi": 43,
      "hit": false,
      "t": 20010.416666666668,
      "d": 614.5833333333358,
      "v": 122
    },
    {
      "midi": 38,
      "hit": false,
      "t": 20020.833333333332,
      "d": 572.9166666666679,
      "v": 70
    },
    {
      "midi": 71,
      "hit": false,
      "t": 20020.833333333332,
      "d": 953.125,
      "v": 82
    },
    {
      "midi": 43,
      "hit": false,
      "t": 20031.25,
      "d": 505.2083333333321,
      "v": 53
    },
    {
      "midi": 43,
      "hit": false,
      "t": 20635.41666666667,
      "d": 614.5833333333321,
      "v": 122
    },
    {
      "midi": 67,
      "hit": false,
      "t": 20635.41666666667,
      "d": 666.6666666666679,
      "v": 122
    },
    {
      "midi": 71,
      "hit": false,
      "t": 20635.41666666667,
      "d": 682.2916666666679,
      "v": 122
    },
    {
      "midi": 62,
      "hit": false,
      "t": 20635.41666666667,
      "d": 708.3333333333358,
      "v": 122
    },
    {
      "midi": 59,
      "hit": false,
      "t": 21260.416666666664,
      "d": 250.00000000000364,
      "v": 61
    },
    {
      "midi": 62,
      "hit": false,
      "t": 21260.416666666664,
      "d": 250.00000000000364,
      "v": 62
    },
    {
      "midi": 43,
      "hit": false,
      "t": 21260.41666666667,
      "d": 307.2916666666679,
      "v": 122
    },
    {
      "midi": 38,
      "hit": false,
      "t": 21270.833333333332,
      "d": 239.58333333333576,
      "v": 70
    },
    {
      "midi": 71,
      "hit": false,
      "t": 21270.833333333332,
      "d": 239.58333333333576,
      "v": 82
    },
    {
      "midi": 43,
      "hit": false,
      "t": 21281.25,
      "d": 229.16666666666788,
      "v": 53
    },
    {
      "midi": 57,
      "hit": false,
      "t": 21572.916666666668,
      "d": 916.6666666666679,
      "v": 61
    },
    {
      "midi": 60,
      "hit": false,
      "t": 21572.916666666668,
      "d": 916.6666666666679,
      "v": 62
    },
    {
      "midi": 62,
      "hit": false,
      "t": 21572.91666666667,
      "d": 614.5833333333321,
      "v": 122
    },
    {
      "midi": 67,
      "hit": false,
      "t": 21572.91666666667,
      "d": 692.7083333333321,
      "v": 122
    },
    {
      "midi": 71,
      "hit": false,
      "t": 21572.91666666667,
      "d": 708.3333333333321,
      "v": 122
    },
    {
      "midi": 43,
      "hit": false,
      "t": 21572.91666666667,
      "d": 859.375,
      "v": 122
    },
    {
      "midi": 38,
      "hit": false,
      "t": 21583.333333333336,
      "d": 875,
      "v": 70
    },
    {
      "midi": 65,
      "hit": false,
      "t": 21583.333333333336,
      "d": 906.25,
      "v": 82
    },
    {
      "midi": 43,
      "hit": false,
      "t": 21593.750000000004,
      "d": 807.2916666666642,
      "v": 53
    },
    {
      "midi": 69,
      "hit": false,
      "t": 22197.91666666667,
      "d": 885.4166666666679,
      "v": 122
    },
    {
      "midi": 72,
      "hit": false,
      "t": 22197.91666666667,
      "d": 885.4166666666679,
      "v": 122
    },
    {
      "midi": 62,
      "hit": false,
      "t": 22197.91666666667,
      "d": 895.8333333333358,
      "v": 122
    },
    {
      "midi": 43,
      "hit": false,
      "t": 22510.41666666667,
      "d": 614.5833333333358,
      "v": 122
    },
    {
      "midi": 60,
      "hit": false,
      "t": 22531.250000000004,
      "d": 2197.916666666668,
      "v": 63
    },
    {
      "midi": 65,
      "hit": false,
      "t": 22541.66666666667,
      "d": 1286.4583333333321,
      "v": 82
    },
    {
      "midi": 43,
      "hit": false,
      "t": 22541.66666666667,
      "d": 2182.291666666668,
      "v": 66
    },
    {
      "midi": 74,
      "hit": false,
      "t": 22552.08333333334,
      "d": 1687.5,
      "v": 76
    },
    {
      "midi": 53,
      "hit": false,
      "t": 22552.08333333334,
      "d": 2171.875,
      "v": 78
    },
    {
      "midi": 72,
      "hit": false,
      "t": 23135.41666666667,
      "d": 1000,
      "v": 85
    },
    {
      "midi": 43,
      "hit": false,
      "t": 23135.416666666675,
      "d": 614.5833333333321,
      "v": 122
    },
    {
      "midi": 62,
      "hit": false,
      "t": 23135.416666666675,
      "d": 614.5833333333321,
      "v": 122
    },
    {
      "midi": 69,
      "hit": false,
      "t": 23135.416666666675,
      "d": 614.5833333333321,
      "v": 122
    },
    {
      "midi": 72,
      "hit": false,
      "t": 23135.416666666675,
      "d": 614.5833333333321,
      "v": 122
    },
    {
      "midi": 69,
      "hit": false,
      "t": 23760.41666666667,
      "d": 484.375,
      "v": 87
    },
    {
      "midi": 43,
      "hit": false,
      "t": 23760.416666666675,
      "d": 307.2916666666679,
      "v": 122
    },
    {
      "midi": 72,
      "hit": false,
      "t": 23760.416666666675,
      "d": 380.2083333333321,
      "v": 122
    },
    {
      "midi": 62,
      "hit": false,
      "t": 23760.416666666675,
      "d": 395.8333333333321,
      "v": 122
    },
    {
      "midi": 69,
      "hit": false,
      "t": 23760.416666666675,
      "d": 406.25,
      "v": 122
    },
    {
      "midi": 67,
      "hit": false,
      "t": 24072.916666666675,
      "d": 307.2916666666679,
      "v": 122
    },
    {
      "midi": 43,
      "hit": false,
      "t": 24072.916666666675,
      "d": 406.25,
      "v": 122
    },
    {
      "midi": 62,
      "hit": false,
      "t": 24385.41666666667,
      "d": 572.9166666666679,
      "v": 74
    },
    {
      "midi": 67,
      "hit": false,
      "t": 24385.416666666675,
      "d": 395.8333333333321,
      "v": 122
    },
    {
      "midi": 52,
      "hit": false,
      "t": 24385.416666666675,
      "d": 421.875,
      "v": 122
    },
    {
      "midi": 50,
      "hit": false,
      "t": 24697.916666666675,
      "d": 421.875,
      "v": 122
    },
    {
      "midi": 71,
      "hit": false,
      "t": 24697.916666666675,
      "d": 859.375,
      "v": 122
    },
    {
      "midi": 62,
      "hit": false,
      "t": 25010.416666666675,
      "d": 927.0833333333358,
      "v": 62
    },
    {
      "midi": 59,
      "hit": false,
      "t": 25010.416666666675,
      "d": 1000,
      "v": 61
    },
    {
      "midi": 43,
      "hit": false,
      "t": 25010.416666666675,
      "d": 614.5833333333321,
      "v": 122
    },
    {
      "midi": 38,
      "hit": false,
      "t": 25020.833333333343,
      "d": 572.9166666666679,
      "v": 70
    },
    {
      "midi": 71,
      "hit": false,
      "t": 25020.833333333343,
      "d": 953.125,
      "v": 82
    },
    {
      "midi": 43,
      "hit": false,
      "t": 25031.25000000001,
      "d": 505.2083333333321,
      "v": 53
    },
    {
      "midi": 43,
      "hit": false,
      "t": 25635.416666666675,
      "d": 614.5833333333321,
      "v": 122
    },
    {
      "midi": 62,
      "hit": false,
      "t": 25635.416666666675,
      "d": 614.5833333333321,
      "v": 122
    },
    {
      "midi": 67,
      "hit": false,
      "t": 25635.416666666675,
      "d": 614.5833333333321,
      "v": 122
    },
    {
      "midi": 71,
      "hit": false,
      "t": 25635.416666666675,
      "d": 614.5833333333321,
      "v": 122
    },
    {
      "midi": 59,
      "hit": false,
      "t": 26260.416666666675,
      "d": 250.00000000000364,
      "v": 61
    },
    {
      "midi": 62,
      "hit": false,
      "t": 26260.416666666675,
      "d": 250.00000000000364,
      "v": 62
    },
    {
      "midi": 43,
      "hit": false,
      "t": 26260.416666666675,
      "d": 307.2916666666679,
      "v": 122
    },
    {
      "midi": 62,
      "hit": false,
      "t": 26260.416666666675,
      "d": 307.2916666666679,
      "v": 122
    },
    {
      "midi": 67,
      "hit": false,
      "t": 26260.416666666675,
      "d": 307.2916666666679,
      "v": 122
    },
    {
      "midi": 71,
      "hit": false,
      "t": 26260.416666666675,
      "d": 307.2916666666679,
      "v": 122
    },
    {
      "midi": 38,
      "hit": false,
      "t": 26270.833333333343,
      "d": 239.58333333333576,
      "v": 70
    },
    {
      "midi": 71,
      "hit": false,
      "t": 26270.833333333343,
      "d": 239.58333333333576,
      "v": 82
    },
    {
      "midi": 43,
      "hit": false,
      "t": 26281.25000000001,
      "d": 229.16666666666788,
      "v": 53
    },
    {
      "midi": 62,
      "hit": false,
      "t": 26572.916666666675,
      "d": 614.5833333333321,
      "v": 122
    },
    {
      "midi": 67,
      "hit": false,
      "t": 26572.916666666675,
      "d": 614.5833333333321,
      "v": 122
    },
    {
      "midi": 71,
      "hit": false,
      "t": 26572.916666666675,
      "d": 614.5833333333321,
      "v": 122
    },
    {
      "midi": 43,
      "hit": false,
      "t": 26572.916666666675,
      "d": 859.375,
      "v": 122
    },
    {
      "midi": 57,
      "hit": false,
      "t": 26572.91666666668,
      "d": 916.6666666666679,
      "v": 61
    },
    {
      "midi": 60,
      "hit": false,
      "t": 26572.91666666668,
      "d": 916.6666666666679,
      "v": 62
    },
    {
      "midi": 38,
      "hit": false,
      "t": 26583.333333333347,
      "d": 875,
      "v": 70
    },
    {
      "midi": 65,
      "hit": false,
      "t": 26583.333333333347,
      "d": 906.25,
      "v": 82
    },
    {
      "midi": 43,
      "hit": false,
      "t": 26593.750000000015,
      "d": 807.2916666666642,
      "v": 53
    },
    {
      "midi": 62,
      "hit": false,
      "t": 27197.916666666675,
      "d": 692.7083333333321,
      "v": 122
    },
    {
      "midi": 72,
      "hit": false,
      "t": 27197.916666666675,
      "d": 692.7083333333321,
      "v": 122
    },
    {
      "midi": 69,
      "hit": false,
      "t": 27197.916666666675,
      "d": 708.3333333333321,
      "v": 122
    },
    {
      "midi": 43,
      "hit": false,
      "t": 27500.000000000015,
      "d": 2500,
      "v": 66
    },
    {
      "midi": 53,
      "hit": false,
      "t": 27500.000000000015,
      "d": 2500,
      "v": 80
    },
    {
      "midi": 60,
      "hit": false,
      "t": 27500.000000000015,
      "d": 2500,
      "v": 58
    },
    {
      "midi": 72,
      "hit": false,
      "t": 27500.000000000015,
      "d": 2500,
      "v": 86
    },
    {
      "midi": 43,
      "hit": false,
      "t": 27510.416666666675,
      "d": 557.2916666666642,
      "v": 122
    },
    {
      "midi": 69,
      "hit": false,
      "t": 27656.250000000015,
      "d": 2343.75,
      "v": 64
    },
    {
      "midi": 62,
      "hit": false,
      "t": 27812.500000000015,
      "d": 2187.5,
      "v": 78
    },
    {
      "midi": 67,
      "hit": false,
      "t": 27822.916666666675,
      "d": 421.87499999999636,
      "v": 122
    },
    {
      "midi": 43,
      "hit": false,
      "t": 28135.41666666667,
      "d": 614.5833333333321,
      "v": 122
    },
    {
      "midi": 71,
      "hit": false,
      "t": 28135.41666666667,
      "d": 750,
      "v": 122
    },
    {
      "midi": 43,
      "hit": false,
      "t": 28760.41666666667,
      "d": 307.2916666666679,
      "v": 122
    },
    {
      "midi": 69,
      "hit": false,
      "t": 28760.41666666667,
      "d": 380.2083333333321,
      "v": 122
    },
    {
      "midi": 67,
      "hit": false,
      "t": 29072.91666666667,
      "d": 614.5833333333321,
      "v": 122
    },
    {
      "midi": 43,
      "hit": false,
      "t": 29072.91666666667,
      "d": 708.3333333333321,
      "v": 122
    },
    {
      "midi": 38,
      "hit": false,
      "t": 29697.91666666667,
      "d": 406.25,
      "v": 122
    },
    {
      "midi": 67,
      "hit": false,
      "t": 29697.91666666667,
      "d": 843.75,
      "v": 122
    },
    {
      "midi": 57,
      "hit": false,
      "t": 30000.000000000015,
      "d": 994.7916666666642,
      "v": 62
    },
    {
      "midi": 59,
      "hit": false,
      "t": 30000.000000000015,
      "d": 1005.2083333333321,
      "v": 82
    },
    {
      "midi": 55,
      "hit": false,
      "t": 30005.208333333347,
      "d": 1000,
      "v": 64
    },
    {
      "midi": 62,
      "hit": false,
      "t": 30005.208333333347,
      "d": 1046.875,
      "v": 80
    },
    {
      "midi": 31,
      "hit": false,
      "t": 30005.208333333347,
      "d": 1244.7916666666679,
      "v": 82
    },
    {
      "midi": 43,
      "hit": false,
      "t": 30010.41666666667,
      "d": 614.5833333333321,
      "v": 122
    },
    {
      "midi": 38,
      "hit": false,
      "t": 30473.958333333347,
      "d": 776.0416666666679,
      "v": 78
    },
    {
      "midi": 43,
      "hit": false,
      "t": 30635.41666666667,
      "d": 614.5833333333321,
      "v": 122
    },
    {
      "midi": 62,
      "hit": false,
      "t": 30635.41666666667,
      "d": 614.5833333333321,
      "v": 122
    },
    {
      "midi": 67,
      "hit": false,
      "t": 30635.41666666667,
      "d": 614.5833333333321,
      "v": 122
    },
    {
      "midi": 71,
      "hit": false,
      "t": 30635.41666666667,
      "d": 614.5833333333321,
      "v": 122
    },
    {
      "midi": 43,
      "hit": false,
      "t": 30947.91666666668,
      "d": 302.08333333333576,
      "v": 85
    },
    {
      "midi": 43,
      "hit": false,
      "t": 31260.41666666667,
      "d": 307.2916666666679,
      "v": 122
    },
    {
      "midi": 62,
      "hit": false,
      "t": 31260.41666666667,
      "d": 307.2916666666679,
      "v": 122
    },
    {
      "midi": 67,
      "hit": false,
      "t": 31260.41666666667,
      "d": 307.2916666666679,
      "v": 122
    },
    {
      "midi": 71,
      "hit": false,
      "t": 31260.41666666667,
      "d": 307.2916666666679,
      "v": 122
    },
    {
      "midi": 59,
      "hit": false,
      "t": 31260.416666666682,
      "d": 250.00000000000364,
      "v": 61
    },
    {
      "midi": 62,
      "hit": false,
      "t": 31260.416666666682,
      "d": 250.00000000000364,
      "v": 62
    },
    {
      "midi": 38,
      "hit": false,
      "t": 31270.83333333335,
      "d": 239.58333333333576,
      "v": 70
    },
    {
      "midi": 71,
      "hit": false,
      "t": 31270.83333333335,
      "d": 239.58333333333576,
      "v": 82
    },
    {
      "midi": 43,
      "hit": false,
      "t": 31281.25000000002,
      "d": 229.16666666666788,
      "v": 53
    },
    {
      "midi": 62,
      "hit": false,
      "t": 31572.91666666667,
      "d": 614.5833333333321,
      "v": 122
    },
    {
      "midi": 67,
      "hit": false,
      "t": 31572.91666666667,
      "d": 614.5833333333321,
      "v": 122
    },
    {
      "midi": 71,
      "hit": false,
      "t": 31572.91666666667,
      "d": 614.5833333333321,
      "v": 122
    },
    {
      "midi": 43,
      "hit": false,
      "t": 31572.91666666667,
      "d": 843.75,
      "v": 122
    },
    {
      "midi": 57,
      "hit": false,
      "t": 31572.916666666686,
      "d": 916.6666666666679,
      "v": 61
    },
    {
      "midi": 60,
      "hit": false,
      "t": 31572.916666666686,
      "d": 916.6666666666679,
      "v": 62
    },
    {
      "midi": 38,
      "hit": false,
      "t": 31583.333333333354,
      "d": 875,
      "v": 70
    },
    {
      "midi": 65,
      "hit": false,
      "t": 31583.333333333354,
      "d": 906.25,
      "v": 82
    },
    {
      "midi": 43,
      "hit": false,
      "t": 31593.750000000022,
      "d": 807.2916666666642,
      "v": 53
    },
    {
      "midi": 62,
      "hit": false,
      "t": 32197.91666666667,
      "d": 885.4166666666642,
      "v": 122
    },
    {
      "midi": 69,
      "hit": false,
      "t": 32197.91666666667,
      "d": 885.4166666666642,
      "v": 122
    },
    {
      "midi": 72,
      "hit": false,
      "t": 32197.91666666667,
      "d": 895.8333333333285,
      "v": 122
    },
    {
      "midi": 38,
      "hit": false,
      "t": 32500.000000000022,
      "d": 2500,
      "v": 70
    },
    {
      "midi": 43,
      "hit": false,
      "t": 32500.000000000022,
      "d": 2500,
      "v": 63
    },
    {
      "midi": 60,
      "hit": false,
      "t": 32500.000000000022,
      "d": 2500,
      "v": 57
    },
    {
      "midi": 65,
      "hit": false,
      "t": 32500.000000000022,
      "d": 2500,
      "v": 82
    },
    {
      "midi": 43,
      "hit": false,
      "t": 32510.41666666667,
      "d": 614.5833333333285,
      "v": 122
    },
    {
      "midi": 69,
      "hit": false,
      "t": 32531.250000000022,
      "d": 2468.75,
      "v": 82
    },
    {
      "midi": 43,
      "hit": false,
      "t": 33135.416666666664,
      "d": 614.5833333333358,
      "v": 122
    },
    {
      "midi": 62,
      "hit": false,
      "t": 33135.416666666664,
      "d": 614.5833333333358,
      "v": 122
    },
    {
      "midi": 69,
      "hit": false,
      "t": 33135.416666666664,
      "d": 614.5833333333358,
      "v": 122
    },
    {
      "midi": 72,
      "hit": false,
      "t": 33135.416666666664,
      "d": 614.5833333333358,
      "v": 122
    },
    {
      "midi": 43,
      "hit": false,
      "t": 33760.416666666664,
      "d": 307.29166666666424,
      "v": 122
    },
    {
      "midi": 62,
      "hit": false,
      "t": 33760.416666666664,
      "d": 307.29166666666424,
      "v": 122
    },
    {
      "midi": 69,
      "hit": false,
      "t": 33760.416666666664,
      "d": 307.29166666666424,
      "v": 122
    },
    {
      "midi": 72,
      "hit": false,
      "t": 33760.416666666664,
      "d": 307.29166666666424,
      "v": 122
    },
    {
      "midi": 43,
      "hit": false,
      "t": 34072.916666666664,
      "d": 395.83333333333576,
      "v": 122
    },
    {
      "midi": 62,
      "hit": false,
      "t": 34072.916666666664,
      "d": 557.2916666666715,
      "v": 122
    },
    {
      "midi": 69,
      "hit": false,
      "t": 34072.916666666664,
      "d": 708.333333333343,
      "v": 122
    },
    {
      "midi": 72,
      "hit": false,
      "t": 34072.916666666664,
      "d": 708.333333333343,
      "v": 122
    },
    {
      "midi": 38,
      "hit": false,
      "t": 34385.416666666664,
      "d": 395.83333333334303,
      "v": 122
    },
    {
      "midi": 40,
      "hit": false,
      "t": 34697.91666666667,
      "d": 307.2916666666715,
      "v": 122
    },
    {
      "midi": 62,
      "hit": false,
      "t": 34697.91666666667,
      "d": 307.2916666666715,
      "v": 122
    },
    {
      "midi": 67,
      "hit": false,
      "t": 34697.91666666667,
      "d": 307.2916666666715,
      "v": 122
    },
    {
      "midi": 71,
      "hit": false,
      "t": 34697.91666666667,
      "d": 307.2916666666715,
      "v": 122
    },
    {
      "midi": 69,
      "hit": false,
      "t": 35010.41666666668,
      "d": 406.25,
      "v": 122
    },
    {
      "midi": 43,
      "hit": false,
      "t": 35010.41666666668,
      "d": 572.9166666666642,
      "v": 122
    },
    {
      "midi": 62,
      "hit": false,
      "t": 35010.416666666686,
      "d": 927.0833333333285,
      "v": 62
    },
    {
      "midi": 59,
      "hit": false,
      "t": 35010.416666666686,
      "d": 1000,
      "v": 61
    },
    {
      "midi": 38,
      "hit": false,
      "t": 35020.83333333335,
      "d": 572.9166666666642,
      "v": 70
    },
    {
      "midi": 71,
      "hit": false,
      "t": 35020.83333333335,
      "d": 953.125,
      "v": 82
    },
    {
      "midi": 43,
      "hit": false,
      "t": 35031.250000000015,
      "d": 505.20833333333576,
      "v": 53
    },
    {
      "midi": 71,
      "hit": false,
      "t": 35322.91666666668,
      "d": 307.29166666666424,
      "v": 122
    },
    {
      "midi": 71,
      "hit": false,
      "t": 35635.41666666668,
      "d": 447.9166666666715,
      "v": 122
    },
    {
      "midi": 43,
      "hit": false,
      "t": 35635.41666666668,
      "d": 557.2916666666715,
      "v": 122
    },
    {
      "midi": 62,
      "hit": false,
      "t": 35947.91666666668,
      "d": 708.333333333343,
      "v": 122
    },
    {
      "midi": 67,
      "hit": false,
      "t": 35947.91666666668,
      "d": 708.333333333343,
      "v": 122
    },
    {
      "midi": 69,
      "hit": false,
      "t": 35984.375000000015,
      "d": 666.6666666666715,
      "v": 122
    },
    {
      "midi": 59,
      "hit": false,
      "t": 36260.416666666686,
      "d": 249.99999999999272,
      "v": 61
    },
    {
      "midi": 62,
      "hit": false,
      "t": 36260.416666666686,
      "d": 249.99999999999272,
      "v": 62
    },
    {
      "midi": 43,
      "hit": false,
      "t": 36260.416666666686,
      "d": 307.29166666666424,
      "v": 122
    },
    {
      "midi": 38,
      "hit": false,
      "t": 36270.83333333335,
      "d": 239.58333333332848,
      "v": 70
    },
    {
      "midi": 71,
      "hit": false,
      "t": 36270.83333333335,
      "d": 239.58333333332848,
      "v": 82
    },
    {
      "midi": 43,
      "hit": false,
      "t": 36281.250000000015,
      "d": 229.16666666666424,
      "v": 53
    },
    {
      "midi": 57,
      "hit": false,
      "t": 36572.91666666668,
      "d": 916.6666666666642,
      "v": 61
    },
    {
      "midi": 60,
      "hit": false,
      "t": 36572.91666666668,
      "d": 916.6666666666642,
      "v": 62
    },
    {
      "midi": 71,
      "hit": false,
      "t": 36572.916666666686,
      "d": 614.5833333333358,
      "v": 122
    },
    {
      "midi": 43,
      "hit": false,
      "t": 36572.916666666686,
      "d": 869.7916666666642,
      "v": 122
    },
    {
      "midi": 38,
      "hit": false,
      "t": 36583.33333333334,
      "d": 875,
      "v": 70
    },
    {
      "midi": 65,
      "hit": false,
      "t": 36583.33333333334,
      "d": 906.25,
      "v": 82
    },
    {
      "midi": 43,
      "hit": false,
      "t": 36593.75000000001,
      "d": 807.2916666666715,
      "v": 53
    },
    {
      "midi": 69,
      "hit": false,
      "t": 37197.916666666686,
      "d": 307.29166666666424,
      "v": 122
    },
    {
      "midi": 62,
      "hit": false,
      "t": 37197.916666666686,
      "d": 406.25,
      "v": 122
    },
    {
      "midi": 72,
      "hit": false,
      "t": 37197.916666666686,
      "d": 406.25,
      "v": 122
    },
    {
      "midi": 43,
      "hit": false,
      "t": 37500.00000000001,
      "d": 937.5,
      "v": 76
    },
    {
      "midi": 60,
      "hit": false,
      "t": 37500.00000000001,
      "d": 973.9583333333358,
      "v": 58
    },
    {
      "midi": 65,
      "hit": false,
      "t": 37500.00000000001,
      "d": 1046.875,
      "v": 80
    },
    {
      "midi": 57,
      "hit": false,
      "t": 37500.00000000001,
      "d": 1057.2916666666642,
      "v": 63
    },
    {
      "midi": 69,
      "hit": false,
      "t": 37510.416666666686,
      "d": 421.875,
      "v": 122
    },
    {
      "midi": 43,
      "hit": false,
      "t": 37510.416666666686,
      "d": 541.6666666666642,
      "v": 122
    },
    {
      "midi": 71,
      "hit": false,
      "t": 37822.916666666686,
      "d": 307.29166666666424,
      "v": 122
    },
    {
      "midi": 71,
      "hit": false,
      "t": 38135.416666666686,
      "d": 406.25,
      "v": 122
    },
    {
      "midi": 43,
      "hit": false,
      "t": 38135.416666666686,
      "d": 541.6666666666642,
      "v": 122
    },
    {
      "midi": 38,
      "hit": false,
      "t": 38437.50000000001,
      "d": 822.9166666666642,
      "v": 85
    },
    {
      "midi": 62,
      "hit": false,
      "t": 38447.916666666686,
      "d": 718.75,
      "v": 122
    },
    {
      "midi": 69,
      "hit": false,
      "t": 38447.916666666686,
      "d": 718.75,
      "v": 122
    },
    {
      "midi": 43,
      "hit": false,
      "t": 38760.416666666686,
      "d": 307.29166666666424,
      "v": 122
    },
    {
      "midi": 69,
      "hit": false,
      "t": 39062.50000000001,
      "d": 484.375,
      "v": 89
    },
    {
      "midi": 43,
      "hit": false,
      "t": 39072.916666666686,
      "d": 395.83333333333576,
      "v": 122
    },
    {
      "midi": 67,
      "hit": false,
      "t": 39072.916666666686,
      "d": 572.9166666666715,
      "v": 122
    },
    {
      "midi": 38,
      "hit": false,
      "t": 39385.416666666686,
      "d": 682.2916666666715,
      "v": 122
    },
    {
      "midi": 65,
      "hit": false,
      "t": 39531.25000000001,
      "d": 197.91666666666424,
      "v": 66
    },
    {
      "midi": 67,
      "hit": false,
      "t": 39697.91666666669,
      "d": 307.29166666666424,
      "v": 122
    },
    {
      "midi": 62,
      "hit": false,
      "t": 40010.41666666667,
      "d": 927.0833333333285,
      "v": 62
    },
    {
      "midi": 59,
      "hit": false,
      "t": 40010.41666666667,
      "d": 1000,
      "v": 61
    },
    {
      "midi": 67,
      "hit": false,
      "t": 40010.41666666669,
      "d": 354.16666666666424,
      "v": 122
    },
    {
      "midi": 62,
      "hit": false,
      "t": 40010.41666666669,
      "d": 380.2083333333285,
      "v": 122
    },
    {
      "midi": 43,
      "hit": false,
      "t": 40010.41666666669,
      "d": 531.2499999999927,
      "v": 122
    },
    {
      "midi": 38,
      "hit": false,
      "t": 40020.833333333336,
      "d": 572.9166666666642,
      "v": 70
    },
    {
      "midi": 71,
      "hit": false,
      "t": 40020.833333333336,
      "d": 953.125,
      "v": 82
    },
    {
      "midi": 43,
      "hit": false,
      "t": 40031.25,
      "d": 505.20833333333576,
      "v": 53
    },
    {
      "midi": 69,
      "hit": false,
      "t": 40052.08333333336,
      "d": 265.625,
      "v": 122
    },
    {
      "midi": 71,
      "hit": false,
      "t": 40322.91666666669,
      "d": 307.29166666665697,
      "v": 122
    },
    {
      "midi": 71,
      "hit": false,
      "t": 40635.416666666686,
      "d": 307.29166666666424,
      "v": 122
    },
    {
      "midi": 43,
      "hit": false,
      "t": 40635.416666666686,
      "d": 531.25,
      "v": 122
    },
    {
      "midi": 71,
      "hit": false,
      "t": 40947.916666666686,
      "d": 307.29166666666424,
      "v": 122
    },
    {
      "midi": 59,
      "hit": false,
      "t": 41260.41666666667,
      "d": 249.99999999999272,
      "v": 61
    },
    {
      "midi": 62,
      "hit": false,
      "t": 41260.41666666667,
      "d": 249.99999999999272,
      "v": 62
    },
    {
      "midi": 43,
      "hit": false,
      "t": 41260.416666666686,
      "d": 307.29166666666424,
      "v": 122
    },
    {
      "midi": 67,
      "hit": false,
      "t": 41260.416666666686,
      "d": 307.29166666666424,
      "v": 122
    },
    {
      "midi": 71,
      "hit": false,
      "t": 41260.416666666686,
      "d": 406.25,
      "v": 122
    },
    {
      "midi": 74,
      "hit": false,
      "t": 41260.416666666686,
      "d": 406.25,
      "v": 122
    },
    {
      "midi": 38,
      "hit": false,
      "t": 41270.833333333336,
      "d": 239.58333333332848,
      "v": 70
    },
    {
      "midi": 71,
      "hit": false,
      "t": 41270.833333333336,
      "d": 239.58333333332848,
      "v": 82
    },
    {
      "midi": 43,
      "hit": false,
      "t": 41281.25,
      "d": 229.16666666666424,
      "v": 53
    },
    {
      "midi": 57,
      "hit": false,
      "t": 41572.916666666664,
      "d": 916.6666666666642,
      "v": 61
    },
    {
      "midi": 60,
      "hit": false,
      "t": 41572.916666666664,
      "d": 916.6666666666642,
      "v": 62
    },
    {
      "midi": 67,
      "hit": false,
      "t": 41572.916666666686,
      "d": 307.29166666666424,
      "v": 122
    },
    {
      "midi": 43,
      "hit": false,
      "t": 41572.916666666686,
      "d": 437.5,
      "v": 122
    },
    {
      "midi": 38,
      "hit": false,
      "t": 41583.33333333333,
      "d": 875,
      "v": 70
    },
    {
      "midi": 65,
      "hit": false,
      "t": 41583.33333333333,
      "d": 906.25,
      "v": 82
    },
    {
      "midi": 43,
      "hit": false,
      "t": 41593.74999999999,
      "d": 807.2916666666715,
      "v": 53
    },
    {
      "midi": 67,
      "hit": false,
      "t": 41885.416666666686,
      "d": 307.29166666666424,
      "v": 122
    },
    {
      "midi": 45,
      "hit": false,
      "t": 41885.416666666686,
      "d": 406.25,
      "v": 122
    },
    {
      "midi": 47,
      "hit": false,
      "t": 42197.916666666686,
      "d": 307.29166666666424,
      "v": 122
    },
    {
      "midi": 67,
      "hit": false,
      "t": 42197.916666666686,
      "d": 406.25,
      "v": 122
    },
    {
      "midi": 43,
      "hit": false,
      "t": 42499.99999999999,
      "d": 2500,
      "v": 66
    },
    {
      "midi": 53,
      "hit": false,
      "t": 42499.99999999999,
      "d": 2500,
      "v": 80
    },
    {
      "midi": 60,
      "hit": false,
      "t": 42499.99999999999,
      "d": 2500,
      "v": 58
    },
    {
      "midi": 72,
      "hit": false,
      "t": 42499.99999999999,
      "d": 2500,
      "v": 86
    },
    {
      "midi": 60,
      "hit": false,
      "t": 42510.416666666686,
      "d": 307.29166666666424,
      "v": 122
    },
    {
      "midi": 64,
      "hit": false,
      "t": 42510.416666666686,
      "d": 307.29166666666424,
      "v": 122
    },
    {
      "midi": 48,
      "hit": false,
      "t": 42510.416666666686,
      "d": 557.2916666666642,
      "v": 122
    },
    {
      "midi": 69,
      "hit": false,
      "t": 42656.24999999999,
      "d": 2343.75,
      "v": 64
    },
    {
      "midi": 62,
      "hit": false,
      "t": 42812.49999999999,
      "d": 2187.5,
      "v": 78
    },
    {
      "midi": 60,
      "hit": false,
      "t": 42822.916666666686,
      "d": 307.29166666666424,
      "v": 122
    },
    {
      "midi": 65,
      "hit": false,
      "t": 42822.916666666686,
      "d": 307.29166666666424,
      "v": 122
    },
    {
      "midi": 60,
      "hit": false,
      "t": 43135.416666666686,
      "d": 307.29166666666424,
      "v": 122
    },
    {
      "midi": 64,
      "hit": false,
      "t": 43135.416666666686,
      "d": 307.29166666666424,
      "v": 122
    },
    {
      "midi": 48,
      "hit": false,
      "t": 43135.416666666686,
      "d": 557.2916666666642,
      "v": 122
    },
    {
      "midi": 60,
      "hit": false,
      "t": 43447.916666666686,
      "d": 572.9166666666642,
      "v": 122
    },
    {
      "midi": 65,
      "hit": false,
      "t": 43447.916666666686,
      "d": 708.3333333333358,
      "v": 122
    },
    {
      "midi": 48,
      "hit": false,
      "t": 43760.416666666686,
      "d": 406.25,
      "v": 122
    },
    {
      "midi": 60,
      "hit": false,
      "t": 44072.916666666686,
      "d": 307.29166666666424,
      "v": 122
    },
    {
      "midi": 64,
      "hit": false,
      "t": 44072.916666666686,
      "d": 307.29166666666424,
      "v": 122
    },
    {
      "midi": 67,
      "hit": false,
      "t": 44072.916666666686,
      "d": 307.29166666666424,
      "v": 122
    },
    {
      "midi": 43,
      "hit": false,
      "t": 44072.916666666686,
      "d": 682.2916666666642,
      "v": 122
    },
    {
      "midi": 60,
      "hit": false,
      "t": 44385.416666666686,
      "d": 380.2083333333285,
      "v": 122
    },
    {
      "midi": 64,
      "hit": false,
      "t": 44385.416666666686,
      "d": 395.8333333333285,
      "v": 122
    },
    {
      "midi": 67,
      "hit": false,
      "t": 44385.416666666686,
      "d": 406.2499999999927,
      "v": 122
    },
    {
      "midi": 40,
      "hit": false,
      "t": 44697.916666666686,
      "d": 406.2499999999927,
      "v": 122
    },
    {
      "midi": 69,
      "hit": false,
      "t": 44697.916666666686,
      "d": 692.7083333333285,
      "v": 122
    },
    {
      "midi": 62,
      "hit": false,
      "t": 45010.41666666666,
      "d": 927.0833333333285,
      "v": 87
    },
    {
      "midi": 59,
      "hit": false,
      "t": 45010.41666666666,
      "d": 1000,
      "v": 86
    },
    {
      "midi": 43,
      "hit": false,
      "t": 45010.41666666668,
      "d": 557.2916666666715,
      "v": 122
    },
    {
      "midi": 38,
      "hit": false,
      "t": 45020.83333333332,
      "d": 572.9166666666642,
      "v": 95
    },
    {
      "midi": 71,
      "hit": false,
      "t": 45020.83333333332,
      "d": 953.125,
      "v": 107
    },
    {
      "midi": 43,
      "hit": false,
      "t": 45031.249999999985,
      "d": 505.20833333333576,
      "v": 78
    },
    {
      "midi": 71,
      "hit": false,
      "t": 45322.91666666668,
      "d": 307.2916666666715,
      "v": 122
    },
    {
      "midi": 43,
      "hit": false,
      "t": 45635.416666666686,
      "d": 614.5833333333358,
      "v": 122
    },
    {
      "midi": 62,
      "hit": false,
      "t": 45635.416666666686,
      "d": 614.5833333333358,
      "v": 122
    },
    {
      "midi": 67,
      "hit": false,
      "t": 45635.416666666686,
      "d": 614.5833333333358,
      "v": 122
    },
    {
      "midi": 71,
      "hit": false,
      "t": 45635.416666666686,
      "d": 614.5833333333358,
      "v": 122
    },
    {
      "midi": 59,
      "hit": false,
      "t": 46260.41666666666,
      "d": 249.99999999999272,
      "v": 86
    },
    {
      "midi": 62,
      "hit": false,
      "t": 46260.41666666666,
      "d": 249.99999999999272,
      "v": 87
    },
    {
      "midi": 43,
      "hit": false,
      "t": 46260.416666666686,
      "d": 307.29166666666424,
      "v": 122
    },
    {
      "midi": 62,
      "hit": false,
      "t": 46260.416666666686,
      "d": 307.29166666666424,
      "v": 122
    },
    {
      "midi": 67,
      "hit": false,
      "t": 46260.416666666686,
      "d": 307.29166666666424,
      "v": 122
    },
    {
      "midi": 71,
      "hit": false,
      "t": 46260.416666666686,
      "d": 307.29166666666424,
      "v": 122
    },
    {
      "midi": 38,
      "hit": false,
      "t": 46270.83333333332,
      "d": 239.58333333332848,
      "v": 95
    },
    {
      "midi": 71,
      "hit": false,
      "t": 46270.83333333332,
      "d": 239.58333333332848,
      "v": 107
    },
    {
      "midi": 43,
      "hit": false,
      "t": 46281.249999999985,
      "d": 229.16666666666424,
      "v": 78
    },
    {
      "midi": 57,
      "hit": false,
      "t": 46572.91666666665,
      "d": 916.6666666666642,
      "v": 86
    },
    {
      "midi": 60,
      "hit": false,
      "t": 46572.91666666665,
      "d": 916.6666666666642,
      "v": 87
    },
    {
      "midi": 62,
      "hit": false,
      "t": 46572.916666666686,
      "d": 614.5833333333358,
      "v": 122
    },
    {
      "midi": 67,
      "hit": false,
      "t": 46572.916666666686,
      "d": 614.5833333333358,
      "v": 122
    },
    {
      "midi": 71,
      "hit": false,
      "t": 46572.916666666686,
      "d": 614.5833333333358,
      "v": 122
    },
    {
      "midi": 43,
      "hit": false,
      "t": 46572.916666666686,
      "d": 692.7083333333358,
      "v": 122
    },
    {
      "midi": 38,
      "hit": false,
      "t": 46583.333333333314,
      "d": 875,
      "v": 95
    },
    {
      "midi": 65,
      "hit": false,
      "t": 46583.333333333314,
      "d": 906.25,
      "v": 107
    },
    {
      "midi": 43,
      "hit": false,
      "t": 46593.74999999998,
      "d": 807.2916666666715,
      "v": 78
    },
    {
      "midi": 38,
      "hit": false,
      "t": 47197.916666666686,
      "d": 354.16666666666424,
      "v": 122
    },
    {
      "midi": 62,
      "hit": false,
      "t": 47197.916666666686,
      "d": 869.7916666666642,
      "v": 122
    },
    {
      "midi": 69,
      "hit": false,
      "t": 47197.916666666686,
      "d": 885.4166666666642,
      "v": 122
    },
    {
      "midi": 72,
      "hit": false,
      "t": 47197.916666666686,
      "d": 885.4166666666642,
      "v": 122
    },
    {
      "midi": 65,
      "hit": false,
      "t": 47499.99999999998,
      "d": 1427.0833333333358,
      "v": 81
    },
    {
      "midi": 60,
      "hit": false,
      "t": 47499.99999999998,
      "d": 2427.0833333333358,
      "v": 74
    },
    {
      "midi": 62,
      "hit": false,
      "t": 47499.99999999998,
      "d": 2437.5,
      "v": 95
    },
    {
      "midi": 69,
      "hit": false,
      "t": 47505.208333333314,
      "d": 1432.2916666666642,
      "v": 104
    },
    {
      "midi": 43,
      "hit": false,
      "t": 47510.416666666686,
      "d": 614.5833333333285,
      "v": 122
    },
    {
      "midi": 62,
      "hit": false,
      "t": 48135.41666666668,
      "d": 395.83333333333576,
      "v": 122
    },
    {
      "midi": 69,
      "hit": false,
      "t": 48135.41666666668,
      "d": 395.83333333333576,
      "v": 122
    },
    {
      "midi": 72,
      "hit": false,
      "t": 48135.41666666668,
      "d": 395.83333333333576,
      "v": 122
    },
    {
      "midi": 43,
      "hit": false,
      "t": 48135.41666666668,
      "d": 541.6666666666715,
      "v": 122
    },
    {
      "midi": 67,
      "hit": false,
      "t": 48447.91666666668,
      "d": 421.8750000000073,
      "v": 122
    },
    {
      "midi": 43,
      "hit": false,
      "t": 48760.416666666686,
      "d": 307.29166666666424,
      "v": 122
    },
    {
      "midi": 69,
      "hit": false,
      "t": 48760.416666666686,
      "d": 421.875,
      "v": 122
    },
    {
      "midi": 74,
      "hit": false,
      "t": 49062.49999999998,
      "d": 541.6666666666642,
      "v": 102
    },
    {
      "midi": 71,
      "hit": false,
      "t": 49072.916666666686,
      "d": 750,
      "v": 122
    },
    {
      "midi": 43,
      "hit": false,
      "t": 49072.916666666686,
      "d": 760.4166666666642,
      "v": 122
    },
    {
      "midi": 69,
      "hit": false,
      "t": 49374.99999999998,
      "d": 421.875,
      "v": 91
    },
    {
      "midi": 65,
      "hit": false,
      "t": 49687.49999999998,
      "d": 203.125,
      "v": 89
    },
    {
      "midi": 69,
      "hit": false,
      "t": 49697.916666666686,
      "d": 692.7083333333358,
      "v": 122
    },
    {
      "midi": 62,
      "hit": false,
      "t": 50010.41666666664,
      "d": 927.0833333333285,
      "v": 87
    },
    {
      "midi": 59,
      "hit": false,
      "t": 50010.41666666664,
      "d": 1000,
      "v": 86
    },
    {
      "midi": 43,
      "hit": false,
      "t": 50010.416666666686,
      "d": 572.9166666666715,
      "v": 122
    },
    {
      "midi": 38,
      "hit": false,
      "t": 50020.83333333331,
      "d": 572.9166666666642,
      "v": 95
    },
    {
      "midi": 71,
      "hit": false,
      "t": 50020.83333333331,
      "d": 953.125,
      "v": 107
    },
    {
      "midi": 43,
      "hit": false,
      "t": 50031.24999999997,
      "d": 505.20833333333576,
      "v": 78
    },
    {
      "midi": 67,
      "hit": false,
      "t": 50322.916666666686,
      "d": 307.2916666666715,
      "v": 122
    },
    {
      "midi": 43,
      "hit": false,
      "t": 50635.41666666669,
      "d": 614.5833333333358,
      "v": 122
    },
    {
      "midi": 62,
      "hit": false,
      "t": 50635.41666666669,
      "d": 614.5833333333358,
      "v": 122
    },
    {
      "midi": 67,
      "hit": false,
      "t": 50635.41666666669,
      "d": 614.5833333333358,
      "v": 122
    },
    {
      "midi": 71,
      "hit": false,
      "t": 50635.41666666669,
      "d": 614.5833333333358,
      "v": 122
    },
    {
      "midi": 59,
      "hit": false,
      "t": 51260.41666666664,
      "d": 249.99999999999272,
      "v": 86
    },
    {
      "midi": 62,
      "hit": false,
      "t": 51260.41666666664,
      "d": 249.99999999999272,
      "v": 87
    },
    {
      "midi": 43,
      "hit": false,
      "t": 51260.41666666669,
      "d": 307.29166666666424,
      "v": 122
    },
    {
      "midi": 62,
      "hit": false,
      "t": 51260.41666666669,
      "d": 307.29166666666424,
      "v": 122
    },
    {
      "midi": 67,
      "hit": false,
      "t": 51260.41666666669,
      "d": 307.29166666666424,
      "v": 122
    },
    {
      "midi": 71,
      "hit": false,
      "t": 51260.41666666669,
      "d": 307.29166666666424,
      "v": 122
    },
    {
      "midi": 38,
      "hit": false,
      "t": 51270.83333333331,
      "d": 239.58333333332848,
      "v": 95
    },
    {
      "midi": 71,
      "hit": false,
      "t": 51270.83333333331,
      "d": 239.58333333332848,
      "v": 107
    },
    {
      "midi": 43,
      "hit": false,
      "t": 51281.24999999997,
      "d": 229.16666666666424,
      "v": 78
    },
    {
      "midi": 60,
      "hit": false,
      "t": 51572.916666666635,
      "d": 916.6666666666642,
      "v": 86
    },
    {
      "midi": 62,
      "hit": false,
      "t": 51572.916666666635,
      "d": 916.6666666666642,
      "v": 87
    },
    {
      "midi": 62,
      "hit": false,
      "t": 51572.91666666669,
      "d": 614.5833333333358,
      "v": 122
    },
    {
      "midi": 67,
      "hit": false,
      "t": 51572.91666666669,
      "d": 614.5833333333358,
      "v": 122
    },
    {
      "midi": 71,
      "hit": false,
      "t": 51572.91666666669,
      "d": 614.5833333333358,
      "v": 122
    },
    {
      "midi": 43,
      "hit": false,
      "t": 51572.91666666669,
      "d": 682.2916666666642,
      "v": 122
    },
    {
      "midi": 38,
      "hit": false,
      "t": 51583.3333333333,
      "d": 875,
      "v": 95
    },
    {
      "midi": 72,
      "hit": false,
      "t": 51583.3333333333,
      "d": 906.25,
      "v": 107
    },
    {
      "midi": 43,
      "hit": false,
      "t": 51593.74999999996,
      "d": 807.2916666666715,
      "v": 78
    },
    {
      "midi": 38,
      "hit": false,
      "t": 52197.91666666669,
      "d": 369.79166666666424,
      "v": 122
    },
    {
      "midi": 62,
      "hit": false,
      "t": 52197.91666666669,
      "d": 869.7916666666642,
      "v": 122
    },
    {
      "midi": 69,
      "hit": false,
      "t": 52197.91666666669,
      "d": 869.7916666666642,
      "v": 122
    },
    {
      "midi": 72,
      "hit": false,
      "t": 52197.91666666669,
      "d": 869.7916666666642,
      "v": 122
    },
    {
      "midi": 60,
      "hit": false,
      "t": 52499.99999999996,
      "d": 1046.8750000000073,
      "v": 89
    },
    {
      "midi": 67,
      "hit": false,
      "t": 52499.99999999996,
      "d": 1088.5416666666715,
      "v": 74
    },
    {
      "midi": 43,
      "hit": false,
      "t": 52499.99999999996,
      "d": 1114.5833333333358,
      "v": 78
    },
    {
      "midi": 43,
      "hit": false,
      "t": 52510.41666666669,
      "d": 614.5833333333285,
      "v": 122
    },
    {
      "midi": 62,
      "hit": false,
      "t": 52536.4583333333,
      "d": 1078.125,
      "v": 85
    },
    {
      "midi": 72,
      "hit": false,
      "t": 52536.4583333333,
      "d": 1098.9583333333358,
      "v": 104
    },
    {
      "midi": 43,
      "hit": false,
      "t": 53135.416666666686,
      "d": 614.5833333333358,
      "v": 122
    },
    {
      "midi": 62,
      "hit": false,
      "t": 53135.416666666686,
      "d": 614.5833333333358,
      "v": 122
    },
    {
      "midi": 69,
      "hit": false,
      "t": 53135.416666666686,
      "d": 614.5833333333358,
      "v": 122
    },
    {
      "midi": 72,
      "hit": false,
      "t": 53135.416666666686,
      "d": 614.5833333333358,
      "v": 122
    },
    {
      "midi": 43,
      "hit": false,
      "t": 53760.416666666686,
      "d": 307.29166666666424,
      "v": 122
    },
    {
      "midi": 62,
      "hit": false,
      "t": 53760.416666666686,
      "d": 307.29166666666424,
      "v": 122
    },
    {
      "midi": 69,
      "hit": false,
      "t": 53760.416666666686,
      "d": 307.29166666666424,
      "v": 122
    },
    {
      "midi": 72,
      "hit": false,
      "t": 53760.416666666686,
      "d": 307.29166666666424,
      "v": 122
    },
    {
      "midi": 72,
      "hit": false,
      "t": 54062.49999999997,
      "d": 411.45833333333576,
      "v": 104
    },
    {
      "midi": 72,
      "hit": false,
      "t": 54072.916666666686,
      "d": 395.83333333333576,
      "v": 122
    },
    {
      "midi": 62,
      "hit": false,
      "t": 54072.916666666686,
      "d": 437.5,
      "v": 122
    },
    {
      "midi": 69,
      "hit": false,
      "t": 54072.916666666686,
      "d": 437.5,
      "v": 122
    },
    {
      "midi": 43,
      "hit": false,
      "t": 54072.916666666686,
      "d": 859.375,
      "v": 122
    },
    {
      "midi": 67,
      "hit": false,
      "t": 54374.99999999997,
      "d": 354.16666666666424,
      "v": 102
    },
    {
      "midi": 67,
      "hit": false,
      "t": 54385.416666666686,
      "d": 307.29166666666424,
      "v": 122
    },
    {
      "midi": 62,
      "hit": false,
      "t": 54687.49999999997,
      "d": 171.875,
      "v": 78
    },
    {
      "midi": 67,
      "hit": false,
      "t": 54697.916666666686,
      "d": 307.29166666666424,
      "v": 122
    },
    {
      "midi": 57,
      "hit": false,
      "t": 54999.99999999997,
      "d": 994.7916666666715,
      "v": 72
    },
    {
      "midi": 59,
      "hit": false,
      "t": 54999.99999999997,
      "d": 1005.2083333333358,
      "v": 92
    },
    {
      "midi": 55,
      "hit": false,
      "t": 55005.20833333331,
      "d": 1000,
      "v": 74
    },
    {
      "midi": 62,
      "hit": false,
      "t": 55005.20833333331,
      "d": 1046.875,
      "v": 90
    },
    {
      "midi": 31,
      "hit": false,
      "t": 55005.20833333331,
      "d": 1244.7916666666642,
      "v": 92
    },
    {
      "midi": 62,
      "hit": false,
      "t": 55010.416666666686,
      "d": 380.20833333333576,
      "v": 122
    },
    {
      "midi": 67,
      "hit": false,
      "t": 55010.416666666686,
      "d": 395.83333333333576,
      "v": 122
    },
    {
      "midi": 43,
      "hit": false,
      "t": 55010.416666666686,
      "d": 541.6666666666715,
      "v": 122
    },
    {
      "midi": 69,
      "hit": false,
      "t": 55046.87500000002,
      "d": 354.16666666666424,
      "v": 122
    },
    {
      "midi": 71,
      "hit": false,
      "t": 55322.916666666686,
      "d": 307.2916666666715,
      "v": 122
    },
    {
      "midi": 38,
      "hit": false,
      "t": 55473.95833333331,
      "d": 776.0416666666642,
      "v": 88
    },
    {
      "midi": 71,
      "hit": false,
      "t": 55635.41666666669,
      "d": 307.29166666666424,
      "v": 122
    },
    {
      "midi": 43,
      "hit": false,
      "t": 55635.41666666669,
      "d": 557.2916666666715,
      "v": 122
    },
    {
      "midi": 43,
      "hit": false,
      "t": 55947.91666666664,
      "d": 302.0833333333285,
      "v": 95
    },
    {
      "midi": 67,
      "hit": false,
      "t": 55947.91666666669,
      "d": 692.708333333343,
      "v": 122
    },
    {
      "midi": 62,
      "hit": false,
      "t": 55947.91666666669,
      "d": 708.333333333343,
      "v": 122
    },
    {
      "midi": 69,
      "hit": false,
      "t": 55984.37500000003,
      "d": 651.0416666666715,
      "v": 122
    },
    {
      "midi": 59,
      "hit": false,
      "t": 56260.416666666635,
      "d": 249.99999999999272,
      "v": 86
    },
    {
      "midi": 62,
      "hit": false,
      "t": 56260.416666666635,
      "d": 249.99999999999272,
      "v": 87
    },
    {
      "midi": 43,
      "hit": false,
      "t": 56260.4166666667,
      "d": 307.29166666666424,
      "v": 122
    },
    {
      "midi": 38,
      "hit": false,
      "t": 56270.8333333333,
      "d": 239.58333333332848,
      "v": 95
    },
    {
      "midi": 71,
      "hit": false,
      "t": 56270.8333333333,
      "d": 239.58333333332848,
      "v": 107
    },
    {
      "midi": 43,
      "hit": false,
      "t": 56281.24999999996,
      "d": 229.16666666666424,
      "v": 78
    },
    {
      "midi": 57,
      "hit": false,
      "t": 56572.91666666663,
      "d": 916.6666666666642,
      "v": 86
    },
    {
      "midi": 60,
      "hit": false,
      "t": 56572.91666666663,
      "d": 916.6666666666642,
      "v": 87
    },
    {
      "midi": 71,
      "hit": false,
      "t": 56572.9166666667,
      "d": 614.5833333333358,
      "v": 122
    },
    {
      "midi": 43,
      "hit": false,
      "t": 56572.9166666667,
      "d": 692.7083333333358,
      "v": 122
    },
    {
      "midi": 38,
      "hit": false,
      "t": 56583.33333333329,
      "d": 875,
      "v": 95
    },
    {
      "midi": 65,
      "hit": false,
      "t": 56583.33333333329,
      "d": 906.25,
      "v": 107
    },
    {
      "midi": 43,
      "hit": false,
      "t": 56593.749999999956,
      "d": 807.2916666666715,
      "v": 78
    },
    {
      "midi": 69,
      "hit": false,
      "t": 57197.9166666667,
      "d": 307.2916666666715,
      "v": 122
    },
    {
      "midi": 72,
      "hit": false,
      "t": 57197.9166666667,
      "d": 380.20833333334303,
      "v": 122
    },
    {
      "midi": 62,
      "hit": false,
      "t": 57197.9166666667,
      "d": 421.8750000000073,
      "v": 122
    },
    {
      "midi": 38,
      "hit": false,
      "t": 57197.9166666667,
      "d": 437.5000000000073,
      "v": 122
    },
    {
      "midi": 69,
      "hit": false,
      "t": 57510.41666666671,
      "d": 421.875,
      "v": 122
    },
    {
      "midi": 43,
      "hit": false,
      "t": 57510.41666666671,
      "d": 541.6666666666642,
      "v": 122
    },
    {
      "midi": 53,
      "hit": false,
      "t": 57515.624999999956,
      "d": 2484.375,
      "v": 89
    },
    {
      "midi": 57,
      "hit": false,
      "t": 57515.624999999956,
      "d": 2484.375,
      "v": 91
    },
    {
      "midi": 60,
      "hit": false,
      "t": 57515.624999999956,
      "d": 2484.375,
      "v": 84
    },
    {
      "midi": 62,
      "hit": false,
      "t": 57515.624999999956,
      "d": 2484.375,
      "v": 96
    },
    {
      "midi": 71,
      "hit": false,
      "t": 57822.91666666671,
      "d": 307.29166666666424,
      "v": 122
    },
    {
      "midi": 43,
      "hit": false,
      "t": 58135.41666666671,
      "d": 307.29166666666424,
      "v": 122
    },
    {
      "midi": 71,
      "hit": false,
      "t": 58135.41666666671,
      "d": 395.83333333333576,
      "v": 122
    },
    {
      "midi": 69,
      "hit": false,
      "t": 58447.91666666671,
      "d": 692.7083333333358,
      "v": 122
    },
    {
      "midi": 62,
      "hit": false,
      "t": 58447.91666666671,
      "d": 708.3333333333358,
      "v": 122
    },
    {
      "midi": 43,
      "hit": false,
      "t": 58760.41666666671,
      "d": 307.29166666666424,
      "v": 122
    },
    {
      "midi": 67,
      "hit": false,
      "t": 59072.91666666671,
      "d": 614.5833333333358,
      "v": 122
    },
    {
      "midi": 43,
      "hit": false,
      "t": 59072.91666666671,
      "d": 843.75,
      "v": 122
    },
    {
      "midi": 67,
      "hit": false,
      "t": 59697.91666666671,
      "d": 307.29166666666424,
      "v": 122
    },
    {
      "midi": 38,
      "hit": false,
      "t": 59999.999999999956,
      "d": 2500,
      "v": 90
    },
    {
      "midi": 43,
      "hit": false,
      "t": 59999.999999999956,
      "d": 2500,
      "v": 83
    },
    {
      "midi": 59,
      "hit": false,
      "t": 59999.999999999956,
      "d": 2500,
      "v": 77
    },
    {
      "midi": 67,
      "hit": false,
      "t": 59999.999999999956,
      "d": 2500,
      "v": 102
    },
    {
      "midi": 62,
      "hit": false,
      "t": 60010.41666666671,
      "d": 380.20833333333576,
      "v": 122
    },
    {
      "midi": 67,
      "hit": false,
      "t": 60010.41666666671,
      "d": 380.20833333333576,
      "v": 122
    },
    {
      "midi": 43,
      "hit": false,
      "t": 60010.41666666671,
      "d": 541.6666666666715,
      "v": 122
    },
    {
      "midi": 71,
      "hit": false,
      "t": 60031.249999999956,
      "d": 2468.75,
      "v": 102
    },
    {
      "midi": 69,
      "hit": false,
      "t": 60046.875000000044,
      "d": 380.20833333333576,
      "v": 122
    },
    {
      "midi": 71,
      "hit": false,
      "t": 60322.91666666671,
      "d": 307.2916666666715,
      "v": 122
    },
    {
      "midi": 71,
      "hit": false,
      "t": 60635.416666666715,
      "d": 307.29166666666424,
      "v": 122
    },
    {
      "midi": 43,
      "hit": false,
      "t": 60635.416666666715,
      "d": 541.6666666666642,
      "v": 122
    },
    {
      "midi": 71,
      "hit": false,
      "t": 60947.916666666715,
      "d": 307.29166666666424,
      "v": 122
    },
    {
      "midi": 43,
      "hit": false,
      "t": 61260.416666666715,
      "d": 307.29166666666424,
      "v": 122
    },
    {
      "midi": 67,
      "hit": false,
      "t": 61260.416666666715,
      "d": 307.29166666666424,
      "v": 122
    },
    {
      "midi": 74,
      "hit": false,
      "t": 61260.416666666715,
      "d": 369.79166666666424,
      "v": 122
    },
    {
      "midi": 71,
      "hit": false,
      "t": 61260.416666666715,
      "d": 406.25,
      "v": 122
    },
    {
      "midi": 43,
      "hit": false,
      "t": 61572.916666666715,
      "d": 307.29166666666424,
      "v": 122
    },
    {
      "midi": 67,
      "hit": false,
      "t": 61572.916666666715,
      "d": 307.29166666666424,
      "v": 122
    },
    {
      "midi": 67,
      "hit": false,
      "t": 61885.416666666715,
      "d": 307.29166666666424,
      "v": 122
    },
    {
      "midi": 45,
      "hit": false,
      "t": 61885.416666666715,
      "d": 406.25,
      "v": 122
    },
    {
      "midi": 67,
      "hit": false,
      "t": 62197.916666666715,
      "d": 380.20833333333576,
      "v": 122
    },
    {
      "midi": 47,
      "hit": false,
      "t": 62197.916666666715,
      "d": 406.25,
      "v": 122
    },
    {
      "midi": 55,
      "hit": false,
      "t": 62499.999999999956,
      "d": 1046.8750000000073,
      "v": 89
    },
    {
      "midi": 64,
      "hit": false,
      "t": 62499.999999999956,
      "d": 1088.5416666666715,
      "v": 74
    },
    {
      "midi": 48,
      "hit": false,
      "t": 62499.999999999956,
      "d": 1114.5833333333358,
      "v": 78
    },
    {
      "midi": 60,
      "hit": false,
      "t": 62510.416666666715,
      "d": 307.29166666666424,
      "v": 122
    },
    {
      "midi": 64,
      "hit": false,
      "t": 62510.416666666715,
      "d": 307.29166666666424,
      "v": 122
    },
    {
      "midi": 48,
      "hit": false,
      "t": 62510.416666666715,
      "d": 557.2916666666642,
      "v": 122
    },
    {
      "midi": 60,
      "hit": false,
      "t": 62536.45833333329,
      "d": 1078.125,
      "v": 85
    },
    {
      "midi": 67,
      "hit": false,
      "t": 62536.45833333329,
      "d": 1098.9583333333358,
      "v": 104
    },
    {
      "midi": 60,
      "hit": false,
      "t": 62822.916666666715,
      "d": 307.29166666666424,
      "v": 122
    },
    {
      "midi": 65,
      "hit": false,
      "t": 62822.916666666715,
      "d": 307.29166666666424,
      "v": 122
    },
    {
      "midi": 60,
      "hit": false,
      "t": 63135.416666666715,
      "d": 307.29166666666424,
      "v": 122
    },
    {
      "midi": 64,
      "hit": false,
      "t": 63135.416666666715,
      "d": 307.29166666666424,
      "v": 122
    },
    {
      "midi": 48,
      "hit": false,
      "t": 63135.416666666715,
      "d": 572.9166666666642,
      "v": 122
    },
    {
      "midi": 60,
      "hit": false,
      "t": 63447.916666666715,
      "d": 583.3333333333358,
      "v": 122
    },
    {
      "midi": 65,
      "hit": false,
      "t": 63447.916666666715,
      "d": 692.708333333343,
      "v": 122
    },
    {
      "midi": 48,
      "hit": false,
      "t": 63760.416666666715,
      "d": 307.2916666666715,
      "v": 122
    },
    {
      "midi": 67,
      "hit": false,
      "t": 64062.49999999996,
      "d": 411.45833333333576,
      "v": 104
    },
    {
      "midi": 64,
      "hit": false,
      "t": 64072.91666666672,
      "d": 395.83333333333576,
      "v": 122
    },
    {
      "midi": 60,
      "hit": false,
      "t": 64072.91666666672,
      "d": 421.875,
      "v": 122
    },
    {
      "midi": 48,
      "hit": false,
      "t": 64072.91666666672,
      "d": 895.8333333333358,
      "v": 122
    },
    {
      "midi": 64,
      "hit": false,
      "t": 64374.99999999996,
      "d": 354.16666666666424,
      "v": 102
    },
    {
      "midi": 71,
      "hit": false,
      "t": 64385.41666666672,
      "d": 421.875,
      "v": 122
    },
    {
      "midi": 60,
      "hit": false,
      "t": 64687.49999999996,
      "d": 171.875,
      "v": 78
    },
    {
      "midi": 69,
      "hit": false,
      "t": 64697.91666666672,
      "d": 1171.8750000000073,
      "v": 122
    },
    {
      "midi": 60,
      "hit": false,
      "t": 64697.91666666672,
      "d": 1182.2916666666788,
      "v": 122
    },
    {
      "midi": 64,
      "hit": false,
      "t": 64697.91666666672,
      "d": 1182.2916666666788,
      "v": 122
    },
    {
      "midi": 64,
      "hit": false,
      "t": 64999.99999999996,
      "d": 1427.0833333333358,
      "v": 95
    },
    {
      "midi": 60,
      "hit": false,
      "t": 64999.99999999996,
      "d": 2427.0833333333358,
      "v": 74
    },
    {
      "midi": 67,
      "hit": false,
      "t": 65005.2083333333,
      "d": 1432.2916666666715,
      "v": 104
    },
    {
      "midi": 48,
      "hit": false,
      "t": 65010.41666666672,
      "d": 614.5833333333358,
      "v": 122
    },
    {
      "midi": 48,
      "hit": false,
      "t": 65635.41666666673,
      "d": 572.9166666666715,
      "v": 122
    },
    {
      "midi": 67,
      "hit": false,
      "t": 65947.91666666673,
      "d": 421.875,
      "v": 122
    },
    {
      "midi": 69,
      "hit": false,
      "t": 66260.41666666673,
      "d": 395.8333333333285,
      "v": 122
    },
    {
      "midi": 48,
      "hit": false,
      "t": 66260.41666666673,
      "d": 421.875,
      "v": 122
    },
    {
      "midi": 76,
      "hit": false,
      "t": 66562.49999999997,
      "d": 541.6666666666715,
      "v": 102
    },
    {
      "midi": 47,
      "hit": false,
      "t": 66572.91666666673,
      "d": 307.2916666666715,
      "v": 122
    },
    {
      "midi": 71,
      "hit": false,
      "t": 66572.91666666673,
      "d": 843.75,
      "v": 122
    },
    {
      "midi": 67,
      "hit": false,
      "t": 66874.99999999997,
      "d": 421.875,
      "v": 91
    },
    {
      "midi": 48,
      "hit": false,
      "t": 66885.41666666673,
      "d": 307.2916666666715,
      "v": 122
    },
    {
      "midi": 64,
      "hit": false,
      "t": 67187.49999999997,
      "d": 203.125,
      "v": 89
    },
    {
      "midi": 49,
      "hit": false,
      "t": 67197.91666666673,
      "d": 421.875,
      "v": 122
    },
    {
      "midi": 62,
      "hit": false,
      "t": 67510.41666666664,
      "d": 927.083333333343,
      "v": 79
    },
    {
      "midi": 57,
      "hit": false,
      "t": 67510.41666666664,
      "d": 1000,
      "v": 78
    },
    {
      "midi": 66,
      "hit": false,
      "t": 67510.41666666673,
      "d": 369.7916666666715,
      "v": 122
    },
    {
      "midi": 62,
      "hit": false,
      "t": 67510.41666666673,
      "d": 395.83333333334303,
      "v": 122
    },
    {
      "midi": 57,
      "hit": false,
      "t": 67510.41666666673,
      "d": 406.25000000001455,
      "v": 122
    },
    {
      "midi": 50,
      "hit": false,
      "t": 67510.41666666673,
      "d": 557.2916666666861,
      "v": 122
    },
    {
      "midi": 45,
      "hit": false,
      "t": 67520.83333333331,
      "d": 572.9166666666715,
      "v": 87
    },
    {
      "midi": 66,
      "hit": false,
      "t": 67520.83333333331,
      "d": 953.125,
      "v": 99
    },
    {
      "midi": 38,
      "hit": false,
      "t": 67531.24999999999,
      "d": 505.2083333333285,
      "v": 70
    },
    {
      "midi": 67,
      "hit": false,
      "t": 67822.91666666673,
      "d": 395.83333333334303,
      "v": 122
    },
    {
      "midi": 66,
      "hit": false,
      "t": 68135.41666666674,
      "d": 307.29166666665697,
      "v": 122
    },
    {
      "midi": 50,
      "hit": false,
      "t": 68135.41666666674,
      "d": 572.916666666657,
      "v": 122
    },
    {
      "midi": 62,
      "hit": false,
      "t": 68447.91666666673,
      "d": 869.7916666666715,
      "v": 122
    },
    {
      "midi": 57,
      "hit": false,
      "t": 68447.91666666673,
      "d": 885.4166666666715,
      "v": 122
    },
    {
      "midi": 67,
      "hit": false,
      "t": 68447.91666666673,
      "d": 963.5416666666715,
      "v": 122
    },
    {
      "midi": 50,
      "hit": false,
      "t": 68760.41666666673,
      "d": 406.25,
      "v": 122
    },
    {
      "midi": 66,
      "hit": false,
      "t": 69062.49999999997,
      "d": 494.7916666666715,
      "v": 119
    },
    {
      "midi": 52,
      "hit": false,
      "t": 69072.91666666673,
      "d": 437.5,
      "v": 122
    },
    {
      "midi": 50,
      "hit": false,
      "t": 69385.41666666673,
      "d": 395.8333333333285,
      "v": 122
    },
    {
      "midi": 57,
      "hit": false,
      "t": 69385.41666666673,
      "d": 395.8333333333285,
      "v": 122
    },
    {
      "midi": 62,
      "hit": false,
      "t": 69385.41666666673,
      "d": 395.8333333333285,
      "v": 122
    },
    {
      "midi": 66,
      "hit": false,
      "t": 69385.41666666673,
      "d": 395.8333333333285,
      "v": 122
    },
    {
      "midi": 67,
      "hit": false,
      "t": 69697.91666666673,
      "d": 307.29166666665697,
      "v": 122
    },
    {
      "midi": 47,
      "hit": false,
      "t": 69697.91666666673,
      "d": 395.83333333331393,
      "v": 122
    },
    {
      "midi": 62,
      "hit": false,
      "t": 69999.99999999997,
      "d": 203.12500000001455,
      "v": 77
    },
    {
      "midi": 67,
      "hit": false,
      "t": 69999.99999999997,
      "d": 239.58333333334303,
      "v": 94
    },
    {
      "midi": 60,
      "hit": false,
      "t": 70010.41666666664,
      "d": 192.70833333334303,
      "v": 82
    },
    {
      "midi": 64,
      "hit": false,
      "t": 70010.41666666664,
      "d": 192.70833333334303,
      "v": 101
    },
    {
      "midi": 36,
      "hit": false,
      "t": 70010.41666666664,
      "d": 2135.4166666666715,
      "v": 96
    },
    {
      "midi": 67,
      "hit": false,
      "t": 70010.41666666672,
      "d": 354.1666666666715,
      "v": 122
    },
    {
      "midi": 64,
      "hit": false,
      "t": 70010.41666666672,
      "d": 406.25,
      "v": 122
    },
    {
      "midi": 74,
      "hit": false,
      "t": 70010.41666666672,
      "d": 421.875,
      "v": 122
    },
    {
      "midi": 48,
      "hit": false,
      "t": 70010.41666666672,
      "d": 572.9166666666715,
      "v": 122
    },
    {
      "midi": 72,
      "hit": false,
      "t": 70322.91666666672,
      "d": 307.2916666666715,
      "v": 122
    },
    {
      "midi": 72,
      "hit": false,
      "t": 70635.41666666672,
      "d": 406.25,
      "v": 122
    },
    {
      "midi": 48,
      "hit": false,
      "t": 70635.41666666672,
      "d": 557.2916666666715,
      "v": 122
    },
    {
      "midi": 71,
      "hit": false,
      "t": 70947.91666666672,
      "d": 307.2916666666715,
      "v": 122
    },
    {
      "midi": 72,
      "hit": false,
      "t": 70953.12499999999,
      "d": 1192.7083333333285,
      "v": 94
    },
    {
      "midi": 74,
      "hit": false,
      "t": 70958.33333333331,
      "d": 1161.4583333333285,
      "v": 78
    },
    {
      "midi": 76,
      "hit": false,
      "t": 70958.33333333331,
      "d": 1177.0833333333285,
      "v": 94
    },
    {
      "midi": 79,
      "hit": false,
      "t": 70958.33333333331,
      "d": 1187.5,
      "v": 96
    },
    {
      "midi": 48,
      "hit": false,
      "t": 71260.41666666672,
      "d": 307.2916666666715,
      "v": 122
    },
    {
      "midi": 71,
      "hit": false,
      "t": 71260.41666666672,
      "d": 380.2083333333285,
      "v": 122
    },
    {
      "midi": 67,
      "hit": false,
      "t": 71572.91666666672,
      "d": 395.8333333333285,
      "v": 122
    },
    {
      "midi": 48,
      "hit": false,
      "t": 71572.91666666672,
      "d": 859.3749999999854,
      "v": 122
    },
    {
      "midi": 69,
      "hit": false,
      "t": 71885.41666666672,
      "d": 307.29166666665697,
      "v": 122
    },
    {
      "midi": 62,
      "hit": false,
      "t": 72197.9166666667,
      "d": 885.4166666666715,
      "v": 122
    },
    {
      "midi": 66,
      "hit": false,
      "t": 72197.9166666667,
      "d": 994.7916666666715,
      "v": 122
    },
    {
      "midi": 69,
      "hit": false,
      "t": 72197.9166666667,
      "d": 1020.833333333343,
      "v": 122
    },
    {
      "midi": 57,
      "hit": false,
      "t": 72499.99999999999,
      "d": 1046.8749999999854,
      "v": 89
    },
    {
      "midi": 66,
      "hit": false,
      "t": 72499.99999999999,
      "d": 1088.541666666657,
      "v": 74
    },
    {
      "midi": 50,
      "hit": false,
      "t": 72499.99999999999,
      "d": 1114.5833333333285,
      "v": 78
    },
    {
      "midi": 50,
      "hit": false,
      "t": 72510.4166666667,
      "d": 307.2916666666715,
      "v": 122
    },
    {
      "midi": 62,
      "hit": false,
      "t": 72536.45833333331,
      "d": 1078.125,
      "v": 85
    },
    {
      "midi": 69,
      "hit": false,
      "t": 72536.45833333331,
      "d": 1098.9583333333285,
      "v": 104
    },
    {
      "midi": 50,
      "hit": false,
      "t": 72822.9166666667,
      "d": 307.2916666666715,
      "v": 122
    },
    {
      "midi": 62,
      "hit": false,
      "t": 73135.4166666667,
      "d": 307.2916666666715,
      "v": 122
    },
    {
      "midi": 50,
      "hit": false,
      "t": 73135.4166666667,
      "d": 760.4166666666715,
      "v": 122
    },
    {
      "midi": 62,
      "hit": false,
      "t": 73447.9166666667,
      "d": 421.875,
      "v": 122
    },
    {
      "midi": 74,
      "hit": false,
      "t": 73760.4166666667,
      "d": 406.25,
      "v": 122
    },
    {
      "midi": 69,
      "hit": false,
      "t": 74062.49999999997,
      "d": 411.4583333333285,
      "v": 104
    },
    {
      "midi": 71,
      "hit": false,
      "t": 74072.9166666667,
      "d": 750,
      "v": 122
    },
    {
      "midi": 66,
      "hit": false,
      "t": 74374.99999999997,
      "d": 354.1666666666715,
      "v": 102
    },
    {
      "midi": 62,
      "hit": false,
      "t": 74687.49999999997,
      "d": 171.875,
      "v": 78
    },
    {
      "midi": 69,
      "hit": false,
      "t": 74697.9166666667,
      "d": 557.2916666666715,
      "v": 122
    },
    {
      "midi": 64,
      "hit": false,
      "t": 74697.9166666667,
      "d": 682.2916666666715,
      "v": 122
    },
    {
      "midi": 60,
      "hit": false,
      "t": 74697.9166666667,
      "d": 692.708333333343,
      "v": 122
    },
    {
      "midi": 60,
      "hit": false,
      "t": 74999.99999999997,
      "d": 1427.0833333333285,
      "v": 64
    },
    {
      "midi": 55,
      "hit": false,
      "t": 74999.99999999997,
      "d": 2427.0833333333285,
      "v": 57
    },
    {
      "midi": 57,
      "hit": false,
      "t": 74999.99999999997,
      "d": 2437.5,
      "v": 78
    },
    {
      "midi": 64,
      "hit": false,
      "t": 75005.2083333333,
      "d": 1432.2916666666715,
      "v": 87
    },
    {
      "midi": 45,
      "hit": false,
      "t": 75010.4166666667,
      "d": 557.2916666666715,
      "v": 122
    },
    {
      "midi": 69,
      "hit": false,
      "t": 75322.9166666667,
      "d": 307.2916666666715,
      "v": 122
    },
    {
      "midi": 45,
      "hit": false,
      "t": 75635.4166666667,
      "d": 614.5833333333285,
      "v": 122
    },
    {
      "midi": 67,
      "hit": false,
      "t": 75635.4166666667,
      "d": 1739.5833333333285,
      "v": 122
    },
    {
      "midi": 71,
      "hit": false,
      "t": 75635.4166666667,
      "d": 1739.5833333333285,
      "v": 122
    },
    {
      "midi": 60,
      "hit": false,
      "t": 75635.4166666667,
      "d": 1770.8333333333285,
      "v": 122
    },
    {
      "midi": 64,
      "hit": false,
      "t": 75635.4166666667,
      "d": 1770.8333333333285,
      "v": 122
    },
    {
      "midi": 45,
      "hit": false,
      "t": 76260.4166666667,
      "d": 307.2916666666715,
      "v": 122
    },
    {
      "midi": 69,
      "hit": false,
      "t": 76562.49999999997,
      "d": 541.6666666666715,
      "v": 85
    },
    {
      "midi": 43,
      "hit": false,
      "t": 76572.9166666667,
      "d": 421.875,
      "v": 122
    },
    {
      "midi": 64,
      "hit": false,
      "t": 76874.99999999997,
      "d": 421.875,
      "v": 74
    },
    {
      "midi": 45,
      "hit": false,
      "t": 76885.4166666667,
      "d": 380.2083333333285,
      "v": 122
    },
    {
      "midi": 60,
      "hit": false,
      "t": 77187.49999999997,
      "d": 203.125,
      "v": 72
    },
    {
      "midi": 47,
      "hit": false,
      "t": 77197.9166666667,
      "d": 307.29166666665697,
      "v": 122
    },
    {
      "midi": 36,
      "hit": false,
      "t": 77499.99999999997,
      "d": 2500,
      "v": 63
    },
    {
      "midi": 43,
      "hit": false,
      "t": 77499.99999999997,
      "d": 2500,
      "v": 70
    },
    {
      "midi": 55,
      "hit": false,
      "t": 77499.99999999997,
      "d": 2500,
      "v": 57
    },
    {
      "midi": 64,
      "hit": false,
      "t": 77499.99999999997,
      "d": 2500,
      "v": 82
    },
    {
      "midi": 48,
      "hit": false,
      "t": 77510.41666666669,
      "d": 614.583333333343,
      "v": 122
    },
    {
      "midi": 67,
      "hit": false,
      "t": 77510.41666666669,
      "d": 885.4166666666861,
      "v": 122
    },
    {
      "midi": 62,
      "hit": false,
      "t": 77510.41666666669,
      "d": 895.8333333333576,
      "v": 122
    },
    {
      "midi": 67,
      "hit": false,
      "t": 77531.24999999997,
      "d": 2468.75,
      "v": 82
    },
    {
      "midi": 64,
      "hit": false,
      "t": 77552.08333333336,
      "d": 802.083333333343,
      "v": 122
    },
    {
      "midi": 48,
      "hit": false,
      "t": 78135.4166666667,
      "d": 557.2916666666861,
      "v": 122
    },
    {
      "midi": 64,
      "hit": false,
      "t": 78447.91666666672,
      "d": 406.25,
      "v": 122
    },
    {
      "midi": 48,
      "hit": false,
      "t": 78760.41666666672,
      "d": 307.2916666666715,
      "v": 122
    },
    {
      "midi": 67,
      "hit": false,
      "t": 78760.41666666672,
      "d": 307.2916666666715,
      "v": 122
    },
    {
      "midi": 67,
      "hit": false,
      "t": 79072.91666666672,
      "d": 307.2916666666715,
      "v": 122
    },
    {
      "midi": 48,
      "hit": false,
      "t": 79072.91666666672,
      "d": 406.25,
      "v": 122
    },
    {
      "midi": 67,
      "hit": false,
      "t": 79385.41666666672,
      "d": 307.2916666666715,
      "v": 122
    },
    {
      "midi": 50,
      "hit": false,
      "t": 79385.41666666672,
      "d": 760.416666666657,
      "v": 122
    },
    {
      "midi": 69,
      "hit": false,
      "t": 79697.91666666672,
      "d": 395.8333333333285,
      "v": 122
    },
    {
      "midi": 62,
      "hit": false,
      "t": 80010.41666666664,
      "d": 927.083333333343,
      "v": 62
    },
    {
      "midi": 59,
      "hit": false,
      "t": 80010.41666666664,
      "d": 1000,
      "v": 61
    },
    {
      "midi": 43,
      "hit": false,
      "t": 80010.41666666672,
      "d": 614.5833333333285,
      "v": 122
    },
    {
      "midi": 62,
      "hit": false,
      "t": 80010.41666666672,
      "d": 1208.333333333343,
      "v": 122
    },
    {
      "midi": 67,
      "hit": false,
      "t": 80010.41666666672,
      "d": 1317.708333333343,
      "v": 122
    },
    {
      "midi": 71,
      "hit": false,
      "t": 80010.41666666672,
      "d": 1317.708333333343,
      "v": 122
    },
    {
      "midi": 38,
      "hit": false,
      "t": 80020.83333333331,
      "d": 572.9166666666715,
      "v": 70
    },
    {
      "midi": 67,
      "hit": false,
      "t": 80020.83333333331,
      "d": 953.125,
      "v": 82
    },
    {
      "midi": 43,
      "hit": false,
      "t": 80031.24999999999,
      "d": 505.2083333333285,
      "v": 53
    },
    {
      "midi": 43,
      "hit": false,
      "t": 80635.41666666672,
      "d": 541.6666666666715,
      "v": 122
    },
    {
      "midi": 43,
      "hit": false,
      "t": 81260.41666666673,
      "d": 307.29166666665697,
      "v": 122
    },
    {
      "midi": 62,
      "hit": false,
      "t": 81260.41666666673,
      "d": 307.29166666665697,
      "v": 122
    },
    {
      "midi": 69,
      "hit": false,
      "t": 81260.41666666673,
      "d": 395.83333333331393,
      "v": 122
    },
    {
      "midi": 67,
      "hit": false,
      "t": 81562.49999999997,
      "d": 494.7916666666715,
      "v": 102
    },
    {
      "midi": 43,
      "hit": false,
      "t": 81572.91666666672,
      "d": 406.25,
      "v": 122
    },
    {
      "midi": 62,
      "hit": false,
      "t": 81572.91666666672,
      "d": 572.9166666666715,
      "v": 122
    },
    {
      "midi": 67,
      "hit": false,
      "t": 81572.91666666672,
      "d": 692.7083333333285,
      "v": 122
    },
    {
      "midi": 45,
      "hit": false,
      "t": 81885.41666666672,
      "d": 651.0416666666715,
      "v": 122
    },
    {
      "midi": 62,
      "hit": false,
      "t": 82197.91666666672,
      "d": 885.4166666666715,
      "v": 122
    },
    {
      "midi": 69,
      "hit": false,
      "t": 82197.91666666672,
      "d": 994.7916666666715,
      "v": 122
    },
    {
      "midi": 66,
      "hit": false,
      "t": 82197.91666666672,
      "d": 1020.833333333343,
      "v": 122
    },
    {
      "midi": 64,
      "hit": false,
      "t": 82499.99999999997,
      "d": 994.791666666657,
      "v": 62
    },
    {
      "midi": 66,
      "hit": false,
      "t": 82499.99999999997,
      "d": 1005.2083333333285,
      "v": 82
    },
    {
      "midi": 62,
      "hit": false,
      "t": 82505.2083333333,
      "d": 1000,
      "v": 64
    },
    {
      "midi": 69,
      "hit": false,
      "t": 82505.2083333333,
      "d": 1046.875,
      "v": 80
    },
    {
      "midi": 38,
      "hit": false,
      "t": 82505.2083333333,
      "d": 2494.7916666666715,
      "v": 82
    },
    {
      "midi": 50,
      "hit": false,
      "t": 82510.41666666672,
      "d": 1197.9166666666715,
      "v": 122
    },
    {
      "midi": 45,
      "hit": false,
      "t": 82973.9583333333,
      "d": 2026.0416666666715,
      "v": 78
    },
    {
      "midi": 62,
      "hit": false,
      "t": 83135.41666666672,
      "d": 307.2916666666715,
      "v": 122
    },
    {
      "midi": 50,
      "hit": false,
      "t": 83447.91666666663,
      "d": 1552.083333333343,
      "v": 85
    },
    {
      "midi": 62,
      "hit": false,
      "t": 83447.91666666672,
      "d": 421.875,
      "v": 122
    },
    {
      "midi": 50,
      "hit": false,
      "t": 83760.41666666672,
      "d": 421.875,
      "v": 122
    },
    {
      "midi": 74,
      "hit": false,
      "t": 83760.41666666672,
      "d": 421.875,
      "v": 122
    },
    {
      "midi": 52,
      "hit": false,
      "t": 84072.91666666672,
      "d": 437.5,
      "v": 122
    },
    {
      "midi": 71,
      "hit": false,
      "t": 84072.91666666672,
      "d": 692.7083333333285,
      "v": 122
    },
    {
      "midi": 69,
      "hit": false,
      "t": 84093.74999999997,
      "d": 432.2916666666715,
      "v": 82
    },
    {
      "midi": 50,
      "hit": false,
      "t": 84385.41666666672,
      "d": 406.25,
      "v": 122
    },
    {
      "midi": 74,
      "hit": false,
      "t": 84526.04166666664,
      "d": 114.58333333332848,
      "v": 82
    },
    {
      "midi": 47,
      "hit": false,
      "t": 84697.91666666672,
      "d": 307.2916666666715,
      "v": 122
    },
    {
      "midi": 69,
      "hit": false,
      "t": 84697.91666666672,
      "d": 572.9166666666715,
      "v": 122
    },
    {
      "midi": 60,
      "hit": false,
      "t": 84697.91666666672,
      "d": 708.3333333333285,
      "v": 122
    },
    {
      "midi": 64,
      "hit": false,
      "t": 84697.91666666672,
      "d": 708.3333333333285,
      "v": 122
    },
    {
      "midi": 45,
      "hit": false,
      "t": 84999.99999999997,
      "d": 380.20833333331393,
      "v": 57
    },
    {
      "midi": 40,
      "hit": false,
      "t": 84999.99999999997,
      "d": 411.45833333331393,
      "v": 68
    },
    {
      "midi": 52,
      "hit": false,
      "t": 85005.2083333333,
      "d": 369.79166666665697,
      "v": 54
    },
    {
      "midi": 55,
      "hit": false,
      "t": 85010.41666666663,
      "d": 359.375,
      "v": 64
    },
    {
      "midi": 45,
      "hit": false,
      "t": 85010.41666666672,
      "d": 557.291666666657,
      "v": 122
    },
    {
      "midi": 57,
      "hit": false,
      "t": 85020.8333333333,
      "d": 380.20833333331393,
      "v": 70
    },
    {
      "midi": 60,
      "hit": false,
      "t": 85026.04166666663,
      "d": 401.04166666665697,
      "v": 61
    },
    {
      "midi": 69,
      "hit": false,
      "t": 85322.91666666672,
      "d": 406.24999999998545,
      "v": 122
    },
    {
      "midi": 45,
      "hit": false,
      "t": 85635.4166666667,
      "d": 614.5833333333285,
      "v": 122
    },
    {
      "midi": 67,
      "hit": false,
      "t": 85635.4166666667,
      "d": 1755.2083333333285,
      "v": 122
    },
    {
      "midi": 64,
      "hit": false,
      "t": 85635.4166666667,
      "d": 1781.25,
      "v": 122
    },
    {
      "midi": 60,
      "hit": false,
      "t": 85635.4166666667,
      "d": 1796.875,
      "v": 122
    },
    {
      "midi": 71,
      "hit": false,
      "t": 85635.4166666667,
      "d": 1796.875,
      "v": 122
    },
    {
      "midi": 45,
      "hit": false,
      "t": 86260.4166666667,
      "d": 307.2916666666715,
      "v": 122
    },
    {
      "midi": 43,
      "hit": false,
      "t": 86572.9166666667,
      "d": 307.2916666666715,
      "v": 122
    },
    {
      "midi": 45,
      "hit": false,
      "t": 86885.4166666667,
      "d": 307.2916666666715,
      "v": 122
    },
    {
      "midi": 47,
      "hit": false,
      "t": 87197.9166666667,
      "d": 307.2916666666715,
      "v": 122
    },
    {
      "midi": 55,
      "hit": false,
      "t": 87499.99999999996,
      "d": 1046.8749999999854,
      "v": 72
    },
    {
      "midi": 64,
      "hit": false,
      "t": 87499.99999999996,
      "d": 1088.541666666657,
      "v": 57
    },
    {
      "midi": 48,
      "hit": false,
      "t": 87499.99999999996,
      "d": 1114.5833333333285,
      "v": 61
    },
    {
      "midi": 67,
      "hit": false,
      "t": 87510.4166666667,
      "d": 369.7916666666715,
      "v": 122
    },
    {
      "midi": 62,
      "hit": false,
      "t": 87510.4166666667,
      "d": 395.83333333334303,
      "v": 122
    },
    {
      "midi": 48,
      "hit": false,
      "t": 87510.4166666667,
      "d": 557.2916666666715,
      "v": 122
    },
    {
      "midi": 62,
      "hit": false,
      "t": 87536.45833333328,
      "d": 1078.125,
      "v": 68
    },
    {
      "midi": 67,
      "hit": false,
      "t": 87536.45833333328,
      "d": 1098.9583333333285,
      "v": 87
    },
    {
      "midi": 64,
      "hit": false,
      "t": 87552.08333333337,
      "d": 265.625,
      "v": 122
    },
    {
      "midi": 64,
      "hit": false,
      "t": 87822.9166666667,
      "d": 406.25,
      "v": 122
    },
    {
      "midi": 67,
      "hit": false,
      "t": 88135.4166666667,
      "d": 380.2083333333285,
      "v": 122
    },
    {
      "midi": 48,
      "hit": false,
      "t": 88135.4166666667,
      "d": 572.916666666657,
      "v": 122
    },
    {
      "midi": 64,
      "hit": false,
      "t": 88447.9166666667,
      "d": 380.20833333331393,
      "v": 122
    },
    {
      "midi": 67,
      "hit": false,
      "t": 88760.41666666669,
      "d": 203.125,
      "v": 122
    },
    {
      "midi": 48,
      "hit": false,
      "t": 88760.41666666669,
      "d": 260.4166666666715,
      "v": 122
    },
    {
      "midi": 64,
      "hit": false,
      "t": 88921.87500000001,
      "d": 203.125,
      "v": 122
    },
    {
      "midi": 67,
      "hit": false,
      "t": 89062.49999999994,
      "d": 411.4583333333285,
      "v": 87
    },
    {
      "midi": 48,
      "hit": false,
      "t": 89072.91666666669,
      "d": 406.25,
      "v": 122
    },
    {
      "midi": 67,
      "hit": false,
      "t": 89072.91666666669,
      "d": 557.2916666666715,
      "v": 122
    },
    {
      "midi": 64,
      "hit": false,
      "t": 89374.99999999994,
      "d": 354.1666666666715,
      "v": 85
    },
    {
      "midi": 50,
      "hit": false,
      "t": 89385.41666666669,
      "d": 598.9583333333285,
      "v": 122
    },
    {
      "midi": 62,
      "hit": false,
      "t": 89687.49999999994,
      "d": 171.875,
      "v": 61
    },
    {
      "midi": 59,
      "hit": false,
      "t": 89697.91666666669,
      "d": 895.8333333333285,
      "v": 122
    },
    {
      "midi": 67,
      "hit": false,
      "t": 89697.91666666669,
      "d": 1005.2083333333285,
      "v": 122
    },
    {
      "midi": 62,
      "hit": false,
      "t": 89697.91666666669,
      "d": 1020.8333333333285,
      "v": 122
    },
    {
      "midi": 62,
      "hit": false,
      "t": 90010.41666666661,
      "d": 927.083333333343,
      "v": 62
    },
    {
      "midi": 59,
      "hit": false,
      "t": 90010.41666666661,
      "d": 1000,
      "v": 61
    },
    {
      "midi": 43,
      "hit": false,
      "t": 90010.41666666669,
      "d": 614.5833333333285,
      "v": 122
    },
    {
      "midi": 38,
      "hit": false,
      "t": 90020.83333333328,
      "d": 572.9166666666715,
      "v": 70
    },
    {
      "midi": 71,
      "hit": false,
      "t": 90020.83333333328,
      "d": 953.125,
      "v": 82
    },
    {
      "midi": 43,
      "hit": false,
      "t": 90031.24999999996,
      "d": 505.2083333333285,
      "v": 53
    },
    {
      "midi": 43,
      "hit": false,
      "t": 90635.41666666669,
      "d": 614.5833333333285,
      "v": 122
    },
    {
      "midi": 59,
      "hit": false,
      "t": 90635.41666666669,
      "d": 734.375,
      "v": 122
    },
    {
      "midi": 59,
      "hit": false,
      "t": 91260.41666666661,
      "d": 250.00000000001455,
      "v": 61
    },
    {
      "midi": 62,
      "hit": false,
      "t": 91260.41666666661,
      "d": 250.00000000001455,
      "v": 62
    },
    {
      "midi": 43,
      "hit": false,
      "t": 91260.41666666669,
      "d": 307.2916666666715,
      "v": 122
    },
    {
      "midi": 62,
      "hit": false,
      "t": 91260.41666666669,
      "d": 307.2916666666715,
      "v": 122
    },
    {
      "midi": 67,
      "hit": false,
      "t": 91260.41666666669,
      "d": 307.2916666666715,
      "v": 122
    },
    {
      "midi": 71,
      "hit": false,
      "t": 91260.41666666669,
      "d": 307.2916666666715,
      "v": 122
    },
    {
      "midi": 38,
      "hit": false,
      "t": 91270.83333333328,
      "d": 239.58333333334303,
      "v": 70
    },
    {
      "midi": 71,
      "hit": false,
      "t": 91270.83333333328,
      "d": 239.58333333334303,
      "v": 82
    },
    {
      "midi": 43,
      "hit": false,
      "t": 91281.24999999996,
      "d": 229.16666666667152,
      "v": 53
    },
    {
      "midi": 57,
      "hit": false,
      "t": 91572.91666666663,
      "d": 916.6666666666715,
      "v": 61
    },
    {
      "midi": 60,
      "hit": false,
      "t": 91572.91666666663,
      "d": 916.6666666666715,
      "v": 62
    },
    {
      "midi": 62,
      "hit": false,
      "t": 91572.91666666669,
      "d": 614.5833333333285,
      "v": 122
    },
    {
      "midi": 43,
      "hit": false,
      "t": 91572.91666666669,
      "d": 692.7083333333285,
      "v": 122
    },
    {
      "midi": 67,
      "hit": false,
      "t": 91572.91666666669,
      "d": 718.75,
      "v": 122
    },
    {
      "midi": 71,
      "hit": false,
      "t": 91572.91666666669,
      "d": 734.375,
      "v": 122
    },
    {
      "midi": 38,
      "hit": false,
      "t": 91583.3333333333,
      "d": 875,
      "v": 70
    },
    {
      "midi": 65,
      "hit": false,
      "t": 91583.3333333333,
      "d": 906.25,
      "v": 82
    },
    {
      "midi": 43,
      "hit": false,
      "t": 91593.74999999997,
      "d": 807.291666666657,
      "v": 53
    },
    {
      "midi": 38,
      "hit": false,
      "t": 92197.91666666669,
      "d": 307.2916666666715,
      "v": 122
    },
    {
      "midi": 62,
      "hit": false,
      "t": 92197.91666666669,
      "d": 885.4166666666715,
      "v": 122
    },
    {
      "midi": 69,
      "hit": false,
      "t": 92197.91666666669,
      "d": 885.4166666666715,
      "v": 122
    },
    {
      "midi": 72,
      "hit": false,
      "t": 92197.91666666669,
      "d": 895.833333333343,
      "v": 122
    },
    {
      "midi": 57,
      "hit": false,
      "t": 92499.99999999997,
      "d": 1046.8749999999854,
      "v": 72
    },
    {
      "midi": 65,
      "hit": false,
      "t": 92499.99999999997,
      "d": 1088.541666666657,
      "v": 57
    },
    {
      "midi": 43,
      "hit": false,
      "t": 92499.99999999997,
      "d": 1114.5833333333285,
      "v": 61
    },
    {
      "midi": 43,
      "hit": false,
      "t": 92510.41666666669,
      "d": 614.583333333343,
      "v": 122
    },
    {
      "midi": 60,
      "hit": false,
      "t": 92536.4583333333,
      "d": 1078.125,
      "v": 68
    },
    {
      "midi": 69,
      "hit": false,
      "t": 92536.4583333333,
      "d": 1098.9583333333285,
      "v": 87
    },
    {
      "midi": 43,
      "hit": false,
      "t": 93135.4166666667,
      "d": 614.5833333333285,
      "v": 122
    },
    {
      "midi": 62,
      "hit": false,
      "t": 93135.4166666667,
      "d": 614.5833333333285,
      "v": 122
    },
    {
      "midi": 69,
      "hit": false,
      "t": 93135.4166666667,
      "d": 614.5833333333285,
      "v": 122
    },
    {
      "midi": 72,
      "hit": false,
      "t": 93135.4166666667,
      "d": 614.5833333333285,
      "v": 122
    },
    {
      "midi": 43,
      "hit": false,
      "t": 93760.4166666667,
      "d": 307.2916666666715,
      "v": 122
    },
    {
      "midi": 62,
      "hit": false,
      "t": 93760.4166666667,
      "d": 307.2916666666715,
      "v": 122
    },
    {
      "midi": 72,
      "hit": false,
      "t": 93760.4166666667,
      "d": 395.8333333333285,
      "v": 122
    },
    {
      "midi": 69,
      "hit": false,
      "t": 93760.4166666667,
      "d": 421.875,
      "v": 122
    },
    {
      "midi": 69,
      "hit": false,
      "t": 94062.49999999996,
      "d": 411.4583333333285,
      "v": 87
    },
    {
      "midi": 43,
      "hit": false,
      "t": 94072.9166666667,
      "d": 421.875,
      "v": 122
    },
    {
      "midi": 67,
      "hit": false,
      "t": 94072.9166666667,
      "d": 557.2916666666715,
      "v": 122
    },
    {
      "midi": 71,
      "hit": false,
      "t": 94072.9166666667,
      "d": 557.2916666666715,
      "v": 122
    },
    {
      "midi": 62,
      "hit": false,
      "t": 94072.9166666667,
      "d": 572.9166666666715,
      "v": 122
    },
    {
      "midi": 65,
      "hit": false,
      "t": 94374.99999999996,
      "d": 354.1666666666715,
      "v": 85
    },
    {
      "midi": 52,
      "hit": false,
      "t": 94385.4166666667,
      "d": 463.5416666666715,
      "v": 122
    },
    {
      "midi": 60,
      "hit": false,
      "t": 94687.49999999996,
      "d": 171.875,
      "v": 61
    },
    {
      "midi": 62,
      "hit": false,
      "t": 94687.49999999996,
      "d": 270.8333333333285,
      "v": 87
    },
    {
      "midi": 50,
      "hit": false,
      "t": 94697.9166666667,
      "d": 489.5833333333285,
      "v": 122
    },
    {
      "midi": 62,
      "hit": false,
      "t": 94697.9166666667,
      "d": 895.8333333333285,
      "v": 122
    },
    {
      "midi": 67,
      "hit": false,
      "t": 94697.9166666667,
      "d": 1005.2083333333285,
      "v": 122
    },
    {
      "midi": 71,
      "hit": false,
      "t": 94697.9166666667,
      "d": 1036.4583333333285,
      "v": 122
    },
    {
      "midi": 62,
      "hit": false,
      "t": 95010.41666666663,
      "d": 927.083333333343,
      "v": 62
    },
    {
      "midi": 59,
      "hit": false,
      "t": 95010.41666666663,
      "d": 1000,
      "v": 61
    },
    {
      "midi": 43,
      "hit": false,
      "t": 95010.4166666667,
      "d": 614.5833333333285,
      "v": 122
    },
    {
      "midi": 38,
      "hit": false,
      "t": 95020.8333333333,
      "d": 572.9166666666715,
      "v": 70
    },
    {
      "midi": 71,
      "hit": false,
      "t": 95020.8333333333,
      "d": 953.125,
      "v": 82
    },
    {
      "midi": 43,
      "hit": false,
      "t": 95031.24999999997,
      "d": 505.2083333333285,
      "v": 53
    },
    {
      "midi": 43,
      "hit": false,
      "t": 95635.4166666667,
      "d": 614.5833333333285,
      "v": 122
    },
    {
      "midi": 62,
      "hit": false,
      "t": 95635.4166666667,
      "d": 614.5833333333285,
      "v": 122
    },
    {
      "midi": 69,
      "hit": false,
      "t": 95635.4166666667,
      "d": 614.5833333333285,
      "v": 122
    },
    {
      "midi": 72,
      "hit": false,
      "t": 95635.4166666667,
      "d": 614.5833333333285,
      "v": 122
    },
    {
      "midi": 59,
      "hit": false,
      "t": 96260.41666666663,
      "d": 250.00000000001455,
      "v": 61
    },
    {
      "midi": 62,
      "hit": false,
      "t": 96260.41666666663,
      "d": 250.00000000001455,
      "v": 62
    },
    {
      "midi": 43,
      "hit": false,
      "t": 96260.4166666667,
      "d": 307.2916666666715,
      "v": 122
    },
    {
      "midi": 62,
      "hit": false,
      "t": 96260.4166666667,
      "d": 307.2916666666715,
      "v": 122
    },
    {
      "midi": 72,
      "hit": false,
      "t": 96260.4166666667,
      "d": 395.8333333333285,
      "v": 122
    },
    {
      "midi": 69,
      "hit": false,
      "t": 96260.4166666667,
      "d": 421.875,
      "v": 122
    },
    {
      "midi": 38,
      "hit": false,
      "t": 96270.8333333333,
      "d": 239.58333333334303,
      "v": 70
    },
    {
      "midi": 71,
      "hit": false,
      "t": 96270.8333333333,
      "d": 239.58333333334303,
      "v": 82
    },
    {
      "midi": 43,
      "hit": false,
      "t": 96281.24999999997,
      "d": 229.16666666667152,
      "v": 53
    },
    {
      "midi": 57,
      "hit": false,
      "t": 96572.91666666664,
      "d": 916.6666666666715,
      "v": 61
    },
    {
      "midi": 60,
      "hit": false,
      "t": 96572.91666666664,
      "d": 916.6666666666715,
      "v": 62
    },
    {
      "midi": 62,
      "hit": false,
      "t": 96572.9166666667,
      "d": 614.5833333333285,
      "v": 122
    },
    {
      "midi": 67,
      "hit": false,
      "t": 96572.9166666667,
      "d": 614.5833333333285,
      "v": 122
    },
    {
      "midi": 71,
      "hit": false,
      "t": 96572.9166666667,
      "d": 614.5833333333285,
      "v": 122
    },
    {
      "midi": 43,
      "hit": false,
      "t": 96572.9166666667,
      "d": 843.75,
      "v": 122
    },
    {
      "midi": 38,
      "hit": false,
      "t": 96583.33333333331,
      "d": 875,
      "v": 70
    },
    {
      "midi": 65,
      "hit": false,
      "t": 96583.33333333331,
      "d": 906.25,
      "v": 82
    },
    {
      "midi": 43,
      "hit": false,
      "t": 96593.74999999999,
      "d": 807.291666666657,
      "v": 53
    },
    {
      "midi": 62,
      "hit": false,
      "t": 97197.9166666667,
      "d": 869.7916666666715,
      "v": 122
    },
    {
      "midi": 71,
      "hit": false,
      "t": 97197.9166666667,
      "d": 869.7916666666715,
      "v": 122
    },
    {
      "midi": 67,
      "hit": false,
      "t": 97197.9166666667,
      "d": 885.4166666666715,
      "v": 122
    },
    {
      "midi": 60,
      "hit": false,
      "t": 97510.41666666666,
      "d": 927.083333333343,
      "v": 62
    },
    {
      "midi": 57,
      "hit": false,
      "t": 97510.41666666666,
      "d": 1000,
      "v": 61
    },
    {
      "midi": 43,
      "hit": false,
      "t": 97510.4166666667,
      "d": 614.583333333343,
      "v": 122
    },
    {
      "midi": 38,
      "hit": false,
      "t": 97520.83333333333,
      "d": 572.9166666666715,
      "v": 70
    },
    {
      "midi": 65,
      "hit": false,
      "t": 97520.83333333333,
      "d": 953.125,
      "v": 82
    },
    {
      "midi": 43,
      "hit": false,
      "t": 97531.25,
      "d": 505.2083333333285,
      "v": 53
    },
    {
      "midi": 43,
      "hit": false,
      "t": 98135.41666666672,
      "d": 614.5833333333285,
      "v": 122
    },
    {
      "midi": 62,
      "hit": false,
      "t": 98135.41666666672,
      "d": 614.5833333333285,
      "v": 122
    },
    {
      "midi": 67,
      "hit": false,
      "t": 98135.41666666672,
      "d": 614.5833333333285,
      "v": 122
    },
    {
      "midi": 71,
      "hit": false,
      "t": 98135.41666666672,
      "d": 614.5833333333285,
      "v": 122
    },
    {
      "midi": 43,
      "hit": false,
      "t": 98760.41666666672,
      "d": 307.2916666666715,
      "v": 122
    },
    {
      "midi": 67,
      "hit": false,
      "t": 98760.41666666672,
      "d": 307.2916666666715,
      "v": 122
    },
    {
      "midi": 62,
      "hit": false,
      "t": 98760.41666666672,
      "d": 380.2083333333285,
      "v": 122
    },
    {
      "midi": 71,
      "hit": false,
      "t": 98760.41666666672,
      "d": 395.8333333333285,
      "v": 122
    },
    {
      "midi": 65,
      "hit": false,
      "t": 99062.49999999999,
      "d": 494.7916666666715,
      "v": 102
    },
    {
      "midi": 43,
      "hit": false,
      "t": 99072.91666666672,
      "d": 307.29166666665697,
      "v": 122
    },
    {
      "midi": 67,
      "hit": false,
      "t": 99072.91666666672,
      "d": 307.29166666665697,
      "v": 122
    },
    {
      "midi": 52,
      "hit": false,
      "t": 99385.4166666667,
      "d": 395.8333333333285,
      "v": 122
    },
    {
      "midi": 67,
      "hit": false,
      "t": 99385.4166666667,
      "d": 406.25,
      "v": 122
    },
    {
      "midi": 62,
      "hit": false,
      "t": 99531.24999999999,
      "d": 213.54166666667152,
      "v": 82
    },
    {
      "midi": 50,
      "hit": false,
      "t": 99697.9166666667,
      "d": 463.5416666666715,
      "v": 122
    },
    {
      "midi": 71,
      "hit": false,
      "t": 99697.9166666667,
      "d": 843.75,
      "v": 122
    },
    {
      "midi": 57,
      "hit": false,
      "t": 99999.99999999999,
      "d": 994.791666666657,
      "v": 62
    },
    {
      "midi": 59,
      "hit": false,
      "t": 99999.99999999999,
      "d": 1005.2083333333285,
      "v": 82
    },
    {
      "midi": 55,
      "hit": false,
      "t": 100005.20833333331,
      "d": 1000,
      "v": 64
    },
    {
      "midi": 62,
      "hit": false,
      "t": 100005.20833333331,
      "d": 1046.875,
      "v": 80
    },
    {
      "midi": 31,
      "hit": false,
      "t": 100005.20833333331,
      "d": 1244.7916666666715,
      "v": 82
    },
    {
      "midi": 43,
      "hit": false,
      "t": 100010.4166666667,
      "d": 614.5833333333285,
      "v": 122
    },
    {
      "midi": 38,
      "hit": false,
      "t": 100473.95833333331,
      "d": 776.0416666666715,
      "v": 78
    },
    {
      "midi": 43,
      "hit": false,
      "t": 100635.4166666667,
      "d": 614.5833333333285,
      "v": 122
    },
    {
      "midi": 62,
      "hit": false,
      "t": 100635.4166666667,
      "d": 614.5833333333285,
      "v": 122
    },
    {
      "midi": 67,
      "hit": false,
      "t": 100635.4166666667,
      "d": 614.5833333333285,
      "v": 122
    },
    {
      "midi": 71,
      "hit": false,
      "t": 100635.4166666667,
      "d": 614.5833333333285,
      "v": 122
    },
    {
      "midi": 43,
      "hit": false,
      "t": 100947.91666666664,
      "d": 302.08333333334303,
      "v": 85
    },
    {
      "midi": 59,
      "hit": false,
      "t": 101260.41666666666,
      "d": 250.00000000001455,
      "v": 61
    },
    {
      "midi": 62,
      "hit": false,
      "t": 101260.41666666666,
      "d": 250.00000000001455,
      "v": 62
    },
    {
      "midi": 43,
      "hit": false,
      "t": 101260.4166666667,
      "d": 307.2916666666715,
      "v": 122
    },
    {
      "midi": 62,
      "hit": false,
      "t": 101260.4166666667,
      "d": 307.2916666666715,
      "v": 122
    },
    {
      "midi": 67,
      "hit": false,
      "t": 101260.4166666667,
      "d": 307.2916666666715,
      "v": 122
    },
    {
      "midi": 71,
      "hit": false,
      "t": 101260.4166666667,
      "d": 307.2916666666715,
      "v": 122
    },
    {
      "midi": 38,
      "hit": false,
      "t": 101270.83333333333,
      "d": 239.58333333334303,
      "v": 70
    },
    {
      "midi": 71,
      "hit": false,
      "t": 101270.83333333333,
      "d": 239.58333333334303,
      "v": 82
    },
    {
      "midi": 43,
      "hit": false,
      "t": 101281.25,
      "d": 229.16666666667152,
      "v": 53
    },
    {
      "midi": 57,
      "hit": false,
      "t": 101572.91666666667,
      "d": 916.6666666666715,
      "v": 61
    },
    {
      "midi": 60,
      "hit": false,
      "t": 101572.91666666667,
      "d": 916.6666666666715,
      "v": 62
    },
    {
      "midi": 62,
      "hit": false,
      "t": 101572.9166666667,
      "d": 614.5833333333285,
      "v": 122
    },
    {
      "midi": 67,
      "hit": false,
      "t": 101572.9166666667,
      "d": 614.5833333333285,
      "v": 122
    },
    {
      "midi": 71,
      "hit": false,
      "t": 101572.9166666667,
      "d": 614.5833333333285,
      "v": 122
    },
    {
      "midi": 43,
      "hit": false,
      "t": 101572.9166666667,
      "d": 859.375,
      "v": 122
    },
    {
      "midi": 38,
      "hit": false,
      "t": 101583.33333333334,
      "d": 875,
      "v": 70
    },
    {
      "midi": 65,
      "hit": false,
      "t": 101583.33333333334,
      "d": 906.25,
      "v": 82
    },
    {
      "midi": 43,
      "hit": false,
      "t": 101593.75000000001,
      "d": 807.291666666657,
      "v": 53
    },
    {
      "midi": 62,
      "hit": false,
      "t": 102197.9166666667,
      "d": 692.7083333333285,
      "v": 122
    },
    {
      "midi": 72,
      "hit": false,
      "t": 102197.9166666667,
      "d": 692.7083333333285,
      "v": 122
    },
    {
      "midi": 69,
      "hit": false,
      "t": 102197.9166666667,
      "d": 708.3333333333285,
      "v": 122
    },
    {
      "midi": 65,
      "hit": false,
      "t": 102500.00000000001,
      "d": 1427.0833333333285,
      "v": 64
    },
    {
      "midi": 60,
      "hit": false,
      "t": 102500.00000000001,
      "d": 2427.0833333333285,
      "v": 57
    },
    {
      "midi": 62,
      "hit": false,
      "t": 102500.00000000001,
      "d": 2437.5,
      "v": 78
    },
    {
      "midi": 69,
      "hit": false,
      "t": 102505.20833333334,
      "d": 1432.2916666666715,
      "v": 87
    },
    {
      "midi": 43,
      "hit": false,
      "t": 102510.4166666667,
      "d": 557.291666666657,
      "v": 122
    },
    {
      "midi": 67,
      "hit": false,
      "t": 102822.9166666667,
      "d": 421.87499999998545,
      "v": 122
    },
    {
      "midi": 43,
      "hit": false,
      "t": 103135.41666666669,
      "d": 614.5833333333285,
      "v": 122
    },
    {
      "midi": 71,
      "hit": false,
      "t": 103135.41666666669,
      "d": 750,
      "v": 122
    },
    {
      "midi": 43,
      "hit": false,
      "t": 103760.41666666669,
      "d": 307.2916666666715,
      "v": 122
    },
    {
      "midi": 69,
      "hit": false,
      "t": 103760.41666666669,
      "d": 380.2083333333285,
      "v": 122
    },
    {
      "midi": 74,
      "hit": false,
      "t": 104062.50000000001,
      "d": 541.6666666666715,
      "v": 85
    },
    {
      "midi": 67,
      "hit": false,
      "t": 104072.91666666669,
      "d": 614.5833333333285,
      "v": 122
    },
    {
      "midi": 43,
      "hit": false,
      "t": 104072.91666666669,
      "d": 708.3333333333285,
      "v": 122
    },
    {
      "midi": 69,
      "hit": false,
      "t": 104375.00000000001,
      "d": 421.875,
      "v": 74
    },
    {
      "midi": 65,
      "hit": false,
      "t": 104687.50000000001,
      "d": 203.125,
      "v": 72
    },
    {
      "midi": 38,
      "hit": false,
      "t": 104697.91666666669,
      "d": 406.25,
      "v": 122
    },
    {
      "midi": 67,
      "hit": false,
      "t": 104697.91666666669,
      "d": 843.75,
      "v": 122
    },
    {
      "midi": 62,
      "hit": false,
      "t": 105010.41666666669,
      "d": 927.083333333343,
      "v": 62
    },
    {
      "midi": 59,
      "hit": false,
      "t": 105010.41666666669,
      "d": 1000,
      "v": 61
    },
    {
      "midi": 43,
      "hit": false,
      "t": 105010.41666666669,
      "d": 614.5833333333285,
      "v": 122
    },
    {
      "midi": 38,
      "hit": false,
      "t": 105020.83333333336,
      "d": 572.9166666666715,
      "v": 70
    },
    {
      "midi": 71,
      "hit": false,
      "t": 105020.83333333336,
      "d": 953.125,
      "v": 82
    },
    {
      "midi": 43,
      "hit": false,
      "t": 105031.25000000003,
      "d": 505.2083333333285,
      "v": 53
    },
    {
      "midi": 43,
      "hit": false,
      "t": 105635.41666666669,
      "d": 614.5833333333285,
      "v": 122
    },
    {
      "midi": 62,
      "hit": false,
      "t": 105635.41666666669,
      "d": 614.5833333333285,
      "v": 122
    },
    {
      "midi": 67,
      "hit": false,
      "t": 105635.41666666669,
      "d": 614.5833333333285,
      "v": 122
    },
    {
      "midi": 71,
      "hit": false,
      "t": 105635.41666666669,
      "d": 614.5833333333285,
      "v": 122
    },
    {
      "midi": 59,
      "hit": false,
      "t": 106260.41666666669,
      "d": 250.00000000001455,
      "v": 61
    },
    {
      "midi": 62,
      "hit": false,
      "t": 106260.41666666669,
      "d": 250.00000000001455,
      "v": 62
    },
    {
      "midi": 43,
      "hit": false,
      "t": 106260.41666666669,
      "d": 307.2916666666715,
      "v": 122
    },
    {
      "midi": 62,
      "hit": false,
      "t": 106260.41666666669,
      "d": 307.2916666666715,
      "v": 122
    },
    {
      "midi": 67,
      "hit": false,
      "t": 106260.41666666669,
      "d": 307.2916666666715,
      "v": 122
    },
    {
      "midi": 71,
      "hit": false,
      "t": 106260.41666666669,
      "d": 307.2916666666715,
      "v": 122
    },
    {
      "midi": 38,
      "hit": false,
      "t": 106270.83333333336,
      "d": 239.58333333334303,
      "v": 70
    },
    {
      "midi": 71,
      "hit": false,
      "t": 106270.83333333336,
      "d": 239.58333333334303,
      "v": 82
    },
    {
      "midi": 43,
      "hit": false,
      "t": 106281.25000000003,
      "d": 229.16666666667152,
      "v": 53
    },
    {
      "midi": 62,
      "hit": false,
      "t": 106572.91666666669,
      "d": 614.5833333333285,
      "v": 122
    },
    {
      "midi": 67,
      "hit": false,
      "t": 106572.91666666669,
      "d": 614.5833333333285,
      "v": 122
    },
    {
      "midi": 71,
      "hit": false,
      "t": 106572.91666666669,
      "d": 614.5833333333285,
      "v": 122
    },
    {
      "midi": 43,
      "hit": false,
      "t": 106572.91666666669,
      "d": 843.75,
      "v": 122
    },
    {
      "midi": 57,
      "hit": false,
      "t": 106572.9166666667,
      "d": 916.6666666666715,
      "v": 61
    },
    {
      "midi": 60,
      "hit": false,
      "t": 106572.9166666667,
      "d": 916.6666666666715,
      "v": 62
    },
    {
      "midi": 38,
      "hit": false,
      "t": 106583.33333333337,
      "d": 875,
      "v": 70
    },
    {
      "midi": 65,
      "hit": false,
      "t": 106583.33333333337,
      "d": 906.25,
      "v": 82
    },
    {
      "midi": 43,
      "hit": false,
      "t": 106593.75000000004,
      "d": 807.291666666657,
      "v": 53
    },
    {
      "midi": 62,
      "hit": false,
      "t": 107197.91666666669,
      "d": 885.4166666666715,
      "v": 122
    },
    {
      "midi": 69,
      "hit": false,
      "t": 107197.91666666669,
      "d": 885.4166666666715,
      "v": 122
    },
    {
      "midi": 72,
      "hit": false,
      "t": 107197.91666666669,
      "d": 895.833333333343,
      "v": 122
    },
    {
      "midi": 43,
      "hit": false,
      "t": 107500.00000000004,
      "d": 2401.041666666657,
      "v": 82
    },
    {
      "midi": 43,
      "hit": false,
      "t": 107510.41666666669,
      "d": 614.583333333343,
      "v": 122
    },
    {
      "midi": 38,
      "hit": false,
      "t": 107947.91666666672,
      "d": 1973.958333333314,
      "v": 82
    },
    {
      "midi": 43,
      "hit": false,
      "t": 108135.4166666667,
      "d": 614.5833333333285,
      "v": 122
    },
    {
      "midi": 62,
      "hit": false,
      "t": 108135.4166666667,
      "d": 614.5833333333285,
      "v": 122
    },
    {
      "midi": 69,
      "hit": false,
      "t": 108135.4166666667,
      "d": 614.5833333333285,
      "v": 122
    },
    {
      "midi": 72,
      "hit": false,
      "t": 108135.4166666667,
      "d": 614.5833333333285,
      "v": 122
    },
    {
      "midi": 60,
      "hit": false,
      "t": 108453.12500000004,
      "d": 656.2500000000146,
      "v": 64
    },
    {
      "midi": 57,
      "hit": false,
      "t": 108453.12500000004,
      "d": 713.5416666666715,
      "v": 64
    },
    {
      "midi": 65,
      "hit": false,
      "t": 108463.54166666672,
      "d": 666.6666666666715,
      "v": 85
    },
    {
      "midi": 43,
      "hit": false,
      "t": 108760.4166666667,
      "d": 307.2916666666715,
      "v": 122
    },
    {
      "midi": 62,
      "hit": false,
      "t": 108760.4166666667,
      "d": 307.2916666666715,
      "v": 122
    },
    {
      "midi": 69,
      "hit": false,
      "t": 108760.4166666667,
      "d": 307.2916666666715,
      "v": 122
    },
    {
      "midi": 72,
      "hit": false,
      "t": 108760.4166666667,
      "d": 307.2916666666715,
      "v": 122
    },
    {
      "midi": 43,
      "hit": false,
      "t": 109072.9166666667,
      "d": 395.8333333333285,
      "v": 122
    },
    {
      "midi": 62,
      "hit": false,
      "t": 109072.9166666667,
      "d": 557.291666666657,
      "v": 122
    },
    {
      "midi": 69,
      "hit": false,
      "t": 109072.9166666667,
      "d": 708.3333333333139,
      "v": 122
    },
    {
      "midi": 72,
      "hit": false,
      "t": 109072.9166666667,
      "d": 708.3333333333139,
      "v": 122
    },
    {
      "midi": 38,
      "hit": false,
      "t": 109385.4166666667,
      "d": 395.83333333331393,
      "v": 122
    },
    {
      "midi": 65,
      "hit": false,
      "t": 109406.25000000004,
      "d": 239.58333333332848,
      "v": 82
    },
    {
      "midi": 60,
      "hit": false,
      "t": 109531.25000000004,
      "d": 317.7083333333285,
      "v": 62
    },
    {
      "midi": 40,
      "hit": false,
      "t": 109697.91666666669,
      "d": 307.29166666665697,
      "v": 122
    },
    {
      "midi": 62,
      "hit": false,
      "t": 109697.91666666669,
      "d": 307.29166666665697,
      "v": 122
    },
    {
      "midi": 67,
      "hit": false,
      "t": 109697.91666666669,
      "d": 307.29166666665697,
      "v": 122
    },
    {
      "midi": 71,
      "hit": false,
      "t": 109697.91666666669,
      "d": 307.29166666665697,
      "v": 122
    },
    {
      "midi": 69,
      "hit": false,
      "t": 110010.41666666667,
      "d": 406.25,
      "v": 122
    },
    {
      "midi": 43,
      "hit": false,
      "t": 110010.41666666667,
      "d": 572.9166666666715,
      "v": 122
    },
    {
      "midi": 62,
      "hit": false,
      "t": 110010.4166666667,
      "d": 927.083333333343,
      "v": 62
    },
    {
      "midi": 59,
      "hit": false,
      "t": 110010.4166666667,
      "d": 1000,
      "v": 61
    },
    {
      "midi": 38,
      "hit": false,
      "t": 110020.83333333337,
      "d": 572.9166666666715,
      "v": 70
    },
    {
      "midi": 71,
      "hit": false,
      "t": 110020.83333333337,
      "d": 953.125,
      "v": 82
    },
    {
      "midi": 43,
      "hit": false,
      "t": 110031.25000000004,
      "d": 505.2083333333285,
      "v": 53
    },
    {
      "midi": 71,
      "hit": false,
      "t": 110322.91666666667,
      "d": 307.2916666666715,
      "v": 122
    },
    {
      "midi": 71,
      "hit": false,
      "t": 110635.41666666667,
      "d": 447.91666666665697,
      "v": 122
    },
    {
      "midi": 43,
      "hit": false,
      "t": 110635.41666666667,
      "d": 557.291666666657,
      "v": 122
    },
    {
      "midi": 62,
      "hit": false,
      "t": 110947.91666666667,
      "d": 708.3333333333139,
      "v": 122
    },
    {
      "midi": 67,
      "hit": false,
      "t": 110947.91666666667,
      "d": 708.3333333333139,
      "v": 122
    },
    {
      "midi": 69,
      "hit": false,
      "t": 110984.375,
      "d": 666.666666666657,
      "v": 122
    },
    {
      "midi": 43,
      "hit": false,
      "t": 111260.41666666666,
      "d": 307.2916666666715,
      "v": 122
    },
    {
      "midi": 59,
      "hit": false,
      "t": 111260.4166666667,
      "d": 250.00000000001455,
      "v": 61
    },
    {
      "midi": 62,
      "hit": false,
      "t": 111260.4166666667,
      "d": 250.00000000001455,
      "v": 62
    },
    {
      "midi": 38,
      "hit": false,
      "t": 111270.83333333337,
      "d": 239.58333333334303,
      "v": 70
    },
    {
      "midi": 71,
      "hit": false,
      "t": 111270.83333333337,
      "d": 239.58333333334303,
      "v": 82
    },
    {
      "midi": 43,
      "hit": false,
      "t": 111281.25000000004,
      "d": 229.16666666667152,
      "v": 53
    },
    {
      "midi": 71,
      "hit": false,
      "t": 111572.91666666666,
      "d": 614.5833333333285,
      "v": 122
    },
    {
      "midi": 43,
      "hit": false,
      "t": 111572.91666666666,
      "d": 869.7916666666715,
      "v": 122
    },
    {
      "midi": 57,
      "hit": false,
      "t": 111572.91666666672,
      "d": 916.6666666666715,
      "v": 61
    },
    {
      "midi": 60,
      "hit": false,
      "t": 111572.91666666672,
      "d": 916.6666666666715,
      "v": 62
    },
    {
      "midi": 38,
      "hit": false,
      "t": 111583.33333333339,
      "d": 875,
      "v": 70
    },
    {
      "midi": 65,
      "hit": false,
      "t": 111583.33333333339,
      "d": 906.25,
      "v": 82
    },
    {
      "midi": 43,
      "hit": false,
      "t": 111593.75000000006,
      "d": 807.291666666657,
      "v": 53
    },
    {
      "midi": 69,
      "hit": false,
      "t": 112197.91666666666,
      "d": 307.2916666666715,
      "v": 122
    },
    {
      "midi": 62,
      "hit": false,
      "t": 112197.91666666666,
      "d": 406.25,
      "v": 122
    },
    {
      "midi": 72,
      "hit": false,
      "t": 112197.91666666666,
      "d": 406.25,
      "v": 122
    },
    {
      "midi": 38,
      "hit": false,
      "t": 112500.00000000006,
      "d": 2500,
      "v": 70
    },
    {
      "midi": 43,
      "hit": false,
      "t": 112500.00000000006,
      "d": 2500,
      "v": 63
    },
    {
      "midi": 60,
      "hit": false,
      "t": 112500.00000000006,
      "d": 2500,
      "v": 57
    },
    {
      "midi": 65,
      "hit": false,
      "t": 112500.00000000006,
      "d": 2500,
      "v": 82
    },
    {
      "midi": 69,
      "hit": false,
      "t": 112510.41666666666,
      "d": 421.875,
      "v": 122
    },
    {
      "midi": 43,
      "hit": false,
      "t": 112510.41666666666,
      "d": 541.6666666666715,
      "v": 122
    },
    {
      "midi": 69,
      "hit": false,
      "t": 112531.25000000006,
      "d": 2468.75,
      "v": 82
    },
    {
      "midi": 71,
      "hit": false,
      "t": 112822.91666666666,
      "d": 307.2916666666715,
      "v": 122
    },
    {
      "midi": 71,
      "hit": false,
      "t": 113135.41666666666,
      "d": 406.25,
      "v": 122
    },
    {
      "midi": 43,
      "hit": false,
      "t": 113135.41666666666,
      "d": 541.6666666666715,
      "v": 122
    },
    {
      "midi": 62,
      "hit": false,
      "t": 113447.91666666666,
      "d": 718.75,
      "v": 122
    },
    {
      "midi": 69,
      "hit": false,
      "t": 113447.91666666666,
      "d": 718.75,
      "v": 122
    },
    {
      "midi": 43,
      "hit": false,
      "t": 113760.41666666666,
      "d": 307.2916666666715,
      "v": 122
    },
    {
      "midi": 43,
      "hit": false,
      "t": 114072.91666666666,
      "d": 395.8333333333285,
      "v": 122
    },
    {
      "midi": 67,
      "hit": false,
      "t": 114072.91666666666,
      "d": 572.916666666657,
      "v": 122
    },
    {
      "midi": 38,
      "hit": false,
      "t": 114385.41666666666,
      "d": 682.291666666657,
      "v": 122
    },
    {
      "midi": 67,
      "hit": false,
      "t": 114697.91666666664,
      "d": 307.2916666666715,
      "v": 122
    },
    {
      "midi": 57,
      "hit": false,
      "t": 115000.00000000006,
      "d": 994.791666666657,
      "v": 62
    },
    {
      "midi": 59,
      "hit": false,
      "t": 115000.00000000006,
      "d": 1005.2083333333285,
      "v": 82
    },
    {
      "midi": 55,
      "hit": false,
      "t": 115005.20833333339,
      "d": 1000,
      "v": 64
    },
    {
      "midi": 62,
      "hit": false,
      "t": 115005.20833333339,
      "d": 1046.875,
      "v": 80
    },
    {
      "midi": 31,
      "hit": false,
      "t": 115005.20833333339,
      "d": 1244.7916666666715,
      "v": 82
    },
    {
      "midi": 67,
      "hit": false,
      "t": 115010.41666666664,
      "d": 354.1666666666715,
      "v": 122
    },
    {
      "midi": 62,
      "hit": false,
      "t": 115010.41666666664,
      "d": 380.20833333334303,
      "v": 122
    },
    {
      "midi": 43,
      "hit": false,
      "t": 115010.41666666664,
      "d": 531.2500000000146,
      "v": 122
    },
    {
      "midi": 69,
      "hit": false,
      "t": 115052.08333333331,
      "d": 265.625,
      "v": 122
    },
    {
      "midi": 71,
      "hit": false,
      "t": 115322.91666666664,
      "d": 307.29166666668607,
      "v": 122
    },
    {
      "midi": 38,
      "hit": false,
      "t": 115473.95833333339,
      "d": 776.0416666666715,
      "v": 78
    },
    {
      "midi": 71,
      "hit": false,
      "t": 115635.41666666666,
      "d": 307.2916666666715,
      "v": 122
    },
    {
      "midi": 43,
      "hit": false,
      "t": 115635.41666666666,
      "d": 531.25,
      "v": 122
    },
    {
      "midi": 71,
      "hit": false,
      "t": 115947.91666666666,
      "d": 307.2916666666715,
      "v": 122
    },
    {
      "midi": 43,
      "hit": false,
      "t": 115947.91666666672,
      "d": 302.08333333334303,
      "v": 85
    },
    {
      "midi": 43,
      "hit": false,
      "t": 116260.41666666666,
      "d": 307.2916666666715,
      "v": 122
    },
    {
      "midi": 67,
      "hit": false,
      "t": 116260.41666666666,
      "d": 307.2916666666715,
      "v": 122
    },
    {
      "midi": 71,
      "hit": false,
      "t": 116260.41666666666,
      "d": 406.25,
      "v": 122
    },
    {
      "midi": 74,
      "hit": false,
      "t": 116260.41666666666,
      "d": 406.25,
      "v": 122
    },
    {
      "midi": 59,
      "hit": false,
      "t": 116260.41666666673,
      "d": 250.00000000001455,
      "v": 61
    },
    {
      "midi": 62,
      "hit": false,
      "t": 116260.41666666673,
      "d": 250.00000000001455,
      "v": 62
    },
    {
      "midi": 38,
      "hit": false,
      "t": 116270.8333333334,
      "d": 239.58333333334303,
      "v": 70
    },
    {
      "midi": 71,
      "hit": false,
      "t": 116270.8333333334,
      "d": 239.58333333334303,
      "v": 82
    },
    {
      "midi": 43,
      "hit": false,
      "t": 116281.25000000007,
      "d": 229.16666666667152,
      "v": 53
    },
    {
      "midi": 67,
      "hit": false,
      "t": 116572.91666666666,
      "d": 307.2916666666715,
      "v": 122
    },
    {
      "midi": 43,
      "hit": false,
      "t": 116572.91666666666,
      "d": 437.5,
      "v": 122
    },
    {
      "midi": 57,
      "hit": false,
      "t": 116572.91666666674,
      "d": 916.6666666666715,
      "v": 61
    },
    {
      "midi": 60,
      "hit": false,
      "t": 116572.91666666674,
      "d": 916.6666666666715,
      "v": 62
    },
    {
      "midi": 38,
      "hit": false,
      "t": 116583.33333333342,
      "d": 875,
      "v": 70
    },
    {
      "midi": 65,
      "hit": false,
      "t": 116583.33333333342,
      "d": 906.25,
      "v": 82
    },
    {
      "midi": 43,
      "hit": false,
      "t": 116593.75000000009,
      "d": 807.291666666657,
      "v": 53
    },
    {
      "midi": 67,
      "hit": false,
      "t": 116885.41666666666,
      "d": 307.2916666666715,
      "v": 122
    },
    {
      "midi": 45,
      "hit": false,
      "t": 116885.41666666666,
      "d": 406.25,
      "v": 122
    },
    {
      "midi": 47,
      "hit": false,
      "t": 117197.91666666666,
      "d": 307.2916666666715,
      "v": 122
    },
    {
      "midi": 67,
      "hit": false,
      "t": 117197.91666666666,
      "d": 406.25,
      "v": 122
    },
    {
      "midi": 43,
      "hit": false,
      "t": 117500.00000000009,
      "d": 2401.041666666657,
      "v": 82
    },
    {
      "midi": 60,
      "hit": false,
      "t": 117510.41666666666,
      "d": 307.2916666666715,
      "v": 122
    },
    {
      "midi": 64,
      "hit": false,
      "t": 117510.41666666666,
      "d": 307.2916666666715,
      "v": 122
    },
    {
      "midi": 48,
      "hit": false,
      "t": 117510.41666666666,
      "d": 557.2916666666715,
      "v": 122
    },
    {
      "midi": 60,
      "hit": false,
      "t": 117822.91666666666,
      "d": 307.2916666666715,
      "v": 122
    },
    {
      "midi": 65,
      "hit": false,
      "t": 117822.91666666666,
      "d": 307.2916666666715,
      "v": 122
    },
    {
      "midi": 38,
      "hit": false,
      "t": 117947.91666666676,
      "d": 1973.958333333314,
      "v": 82
    },
    {
      "midi": 60,
      "hit": false,
      "t": 118135.41666666666,
      "d": 307.2916666666715,
      "v": 122
    },
    {
      "midi": 64,
      "hit": false,
      "t": 118135.41666666666,
      "d": 307.2916666666715,
      "v": 122
    },
    {
      "midi": 48,
      "hit": false,
      "t": 118135.41666666666,
      "d": 557.2916666666715,
      "v": 122
    },
    {
      "midi": 60,
      "hit": false,
      "t": 118447.91666666666,
      "d": 572.9166666666715,
      "v": 122
    },
    {
      "midi": 65,
      "hit": false,
      "t": 118447.91666666666,
      "d": 708.3333333333285,
      "v": 122
    },
    {
      "midi": 60,
      "hit": false,
      "t": 118453.12500000009,
      "d": 656.2500000000146,
      "v": 64
    },
    {
      "midi": 57,
      "hit": false,
      "t": 118453.12500000009,
      "d": 713.5416666666715,
      "v": 64
    },
    {
      "midi": 65,
      "hit": false,
      "t": 118463.54166666676,
      "d": 666.6666666666715,
      "v": 85
    },
    {
      "midi": 48,
      "hit": false,
      "t": 118760.41666666666,
      "d": 406.25,
      "v": 122
    },
    {
      "midi": 60,
      "hit": false,
      "t": 119072.91666666666,
      "d": 307.2916666666715,
      "v": 122
    },
    {
      "midi": 64,
      "hit": false,
      "t": 119072.91666666666,
      "d": 307.2916666666715,
      "v": 122
    },
    {
      "midi": 67,
      "hit": false,
      "t": 119072.91666666666,
      "d": 307.2916666666715,
      "v": 122
    },
    {
      "midi": 43,
      "hit": false,
      "t": 119072.91666666666,
      "d": 682.2916666666715,
      "v": 122
    },
    {
      "midi": 60,
      "hit": false,
      "t": 119385.41666666666,
      "d": 380.20833333334303,
      "v": 122
    },
    {
      "midi": 64,
      "hit": false,
      "t": 119385.41666666666,
      "d": 395.83333333334303,
      "v": 122
    },
    {
      "midi": 67,
      "hit": false,
      "t": 119385.41666666666,
      "d": 406.25000000001455,
      "v": 122
    },
    {
      "midi": 65,
      "hit": false,
      "t": 119406.25000000009,
      "d": 239.58333333332848,
      "v": 82
    },
    {
      "midi": 60,
      "hit": false,
      "t": 119531.25000000009,
      "d": 317.7083333333285,
      "v": 62
    },
    {
      "midi": 40,
      "hit": false,
      "t": 119697.91666666666,
      "d": 406.25000000001455,
      "v": 122
    },
    {
      "midi": 69,
      "hit": false,
      "t": 119697.91666666666,
      "d": 692.708333333343,
      "v": 122
    },
    {
      "midi": 57,
      "hit": false,
      "t": 120000.00000000007,
      "d": 994.791666666657,
      "v": 72
    },
    {
      "midi": 59,
      "hit": false,
      "t": 120000.00000000007,
      "d": 1005.2083333333285,
      "v": 92
    },
    {
      "midi": 55,
      "hit": false,
      "t": 120005.2083333334,
      "d": 1000,
      "v": 74
    },
    {
      "midi": 62,
      "hit": false,
      "t": 120005.2083333334,
      "d": 1046.875,
      "v": 90
    },
    {
      "midi": 31,
      "hit": false,
      "t": 120005.2083333334,
      "d": 1244.7916666666715,
      "v": 92
    },
    {
      "midi": 43,
      "hit": false,
      "t": 120010.41666666667,
      "d": 557.291666666657,
      "v": 122
    },
    {
      "midi": 71,
      "hit": false,
      "t": 120322.91666666667,
      "d": 307.29166666665697,
      "v": 122
    },
    {
      "midi": 38,
      "hit": false,
      "t": 120473.9583333334,
      "d": 776.0416666666715,
      "v": 88
    },
    {
      "midi": 43,
      "hit": false,
      "t": 120635.41666666666,
      "d": 614.5833333333285,
      "v": 122
    },
    {
      "midi": 62,
      "hit": false,
      "t": 120635.41666666666,
      "d": 614.5833333333285,
      "v": 122
    },
    {
      "midi": 67,
      "hit": false,
      "t": 120635.41666666666,
      "d": 614.5833333333285,
      "v": 122
    },
    {
      "midi": 71,
      "hit": false,
      "t": 120635.41666666666,
      "d": 614.5833333333285,
      "v": 122
    },
    {
      "midi": 43,
      "hit": false,
      "t": 120947.91666666673,
      "d": 302.08333333334303,
      "v": 95
    },
    {
      "midi": 43,
      "hit": false,
      "t": 121260.41666666666,
      "d": 307.2916666666715,
      "v": 122
    },
    {
      "midi": 62,
      "hit": false,
      "t": 121260.41666666666,
      "d": 307.2916666666715,
      "v": 122
    },
    {
      "midi": 67,
      "hit": false,
      "t": 121260.41666666666,
      "d": 307.2916666666715,
      "v": 122
    },
    {
      "midi": 71,
      "hit": false,
      "t": 121260.41666666666,
      "d": 307.2916666666715,
      "v": 122
    },
    {
      "midi": 59,
      "hit": false,
      "t": 121260.41666666674,
      "d": 250.00000000001455,
      "v": 86
    },
    {
      "midi": 62,
      "hit": false,
      "t": 121260.41666666674,
      "d": 250.00000000001455,
      "v": 87
    },
    {
      "midi": 38,
      "hit": false,
      "t": 121270.83333333342,
      "d": 239.58333333334303,
      "v": 95
    },
    {
      "midi": 71,
      "hit": false,
      "t": 121270.83333333342,
      "d": 239.58333333334303,
      "v": 107
    },
    {
      "midi": 43,
      "hit": false,
      "t": 121281.25000000009,
      "d": 229.16666666667152,
      "v": 78
    },
    {
      "midi": 62,
      "hit": false,
      "t": 121572.91666666666,
      "d": 614.5833333333285,
      "v": 122
    },
    {
      "midi": 67,
      "hit": false,
      "t": 121572.91666666666,
      "d": 614.5833333333285,
      "v": 122
    },
    {
      "midi": 71,
      "hit": false,
      "t": 121572.91666666666,
      "d": 614.5833333333285,
      "v": 122
    },
    {
      "midi": 43,
      "hit": false,
      "t": 121572.91666666666,
      "d": 692.7083333333285,
      "v": 122
    },
    {
      "midi": 57,
      "hit": false,
      "t": 121572.91666666676,
      "d": 916.6666666666715,
      "v": 86
    },
    {
      "midi": 60,
      "hit": false,
      "t": 121572.91666666676,
      "d": 916.6666666666715,
      "v": 87
    },
    {
      "midi": 38,
      "hit": false,
      "t": 121583.33333333343,
      "d": 875,
      "v": 95
    },
    {
      "midi": 65,
      "hit": false,
      "t": 121583.33333333343,
      "d": 906.25,
      "v": 107
    },
    {
      "midi": 43,
      "hit": false,
      "t": 121593.7500000001,
      "d": 807.291666666657,
      "v": 78
    },
    {
      "midi": 38,
      "hit": false,
      "t": 122197.91666666666,
      "d": 354.1666666666715,
      "v": 122
    },
    {
      "midi": 62,
      "hit": false,
      "t": 122197.91666666666,
      "d": 869.7916666666715,
      "v": 122
    },
    {
      "midi": 69,
      "hit": false,
      "t": 122197.91666666666,
      "d": 885.4166666666715,
      "v": 122
    },
    {
      "midi": 72,
      "hit": false,
      "t": 122197.91666666666,
      "d": 885.4166666666715,
      "v": 122
    },
    {
      "midi": 57,
      "hit": false,
      "t": 122500.0000000001,
      "d": 1046.8749999999854,
      "v": 89
    },
    {
      "midi": 65,
      "hit": false,
      "t": 122500.0000000001,
      "d": 1088.541666666657,
      "v": 74
    },
    {
      "midi": 43,
      "hit": false,
      "t": 122500.0000000001,
      "d": 1114.5833333333285,
      "v": 78
    },
    {
      "midi": 43,
      "hit": false,
      "t": 122510.41666666666,
      "d": 614.583333333343,
      "v": 122
    },
    {
      "midi": 60,
      "hit": false,
      "t": 122536.45833333343,
      "d": 1078.125,
      "v": 85
    },
    {
      "midi": 69,
      "hit": false,
      "t": 122536.45833333343,
      "d": 1098.9583333333285,
      "v": 104
    },
    {
      "midi": 62,
      "hit": false,
      "t": 123135.41666666667,
      "d": 395.8333333333285,
      "v": 122
    },
    {
      "midi": 69,
      "hit": false,
      "t": 123135.41666666667,
      "d": 395.8333333333285,
      "v": 122
    },
    {
      "midi": 72,
      "hit": false,
      "t": 123135.41666666667,
      "d": 395.8333333333285,
      "v": 122
    },
    {
      "midi": 43,
      "hit": false,
      "t": 123135.41666666667,
      "d": 541.666666666657,
      "v": 122
    },
    {
      "midi": 67,
      "hit": false,
      "t": 123447.91666666667,
      "d": 421.87499999998545,
      "v": 122
    },
    {
      "midi": 43,
      "hit": false,
      "t": 123760.41666666666,
      "d": 307.2916666666715,
      "v": 122
    },
    {
      "midi": 69,
      "hit": false,
      "t": 123760.41666666666,
      "d": 421.875,
      "v": 122
    },
    {
      "midi": 69,
      "hit": false,
      "t": 124062.50000000009,
      "d": 411.4583333333285,
      "v": 104
    },
    {
      "midi": 71,
      "hit": false,
      "t": 124072.91666666666,
      "d": 750,
      "v": 122
    },
    {
      "midi": 43,
      "hit": false,
      "t": 124072.91666666666,
      "d": 760.4166666666715,
      "v": 122
    },
    {
      "midi": 65,
      "hit": false,
      "t": 124375.00000000009,
      "d": 354.1666666666715,
      "v": 102
    },
    {
      "midi": 60,
      "hit": false,
      "t": 124687.50000000009,
      "d": 171.875,
      "v": 78
    },
    {
      "midi": 62,
      "hit": false,
      "t": 124687.50000000009,
      "d": 270.8333333333285,
      "v": 104
    },
    {
      "midi": 69,
      "hit": false,
      "t": 124697.91666666666,
      "d": 692.7083333333285,
      "v": 122
    },
    {
      "midi": 57,
      "hit": false,
      "t": 125000.00000000009,
      "d": 994.791666666657,
      "v": 72
    },
    {
      "midi": 59,
      "hit": false,
      "t": 125000.00000000009,
      "d": 1005.2083333333285,
      "v": 92
    },
    {
      "midi": 55,
      "hit": false,
      "t": 125005.20833333342,
      "d": 1000,
      "v": 74
    },
    {
      "midi": 62,
      "hit": false,
      "t": 125005.20833333342,
      "d": 1046.875,
      "v": 90
    },
    {
      "midi": 31,
      "hit": false,
      "t": 125005.20833333342,
      "d": 1244.7916666666715,
      "v": 92
    },
    {
      "midi": 43,
      "hit": false,
      "t": 125010.41666666666,
      "d": 572.916666666657,
      "v": 122
    },
    {
      "midi": 67,
      "hit": false,
      "t": 125322.91666666666,
      "d": 307.29166666665697,
      "v": 122
    },
    {
      "midi": 38,
      "hit": false,
      "t": 125473.95833333342,
      "d": 776.0416666666715,
      "v": 88
    },
    {
      "midi": 43,
      "hit": false,
      "t": 125635.41666666664,
      "d": 614.5833333333285,
      "v": 122
    },
    {
      "midi": 62,
      "hit": false,
      "t": 125635.41666666664,
      "d": 614.5833333333285,
      "v": 122
    },
    {
      "midi": 67,
      "hit": false,
      "t": 125635.41666666664,
      "d": 614.5833333333285,
      "v": 122
    },
    {
      "midi": 71,
      "hit": false,
      "t": 125635.41666666664,
      "d": 614.5833333333285,
      "v": 122
    },
    {
      "midi": 43,
      "hit": false,
      "t": 125947.91666666674,
      "d": 302.08333333334303,
      "v": 95
    },
    {
      "midi": 43,
      "hit": false,
      "t": 126260.41666666664,
      "d": 307.2916666666715,
      "v": 122
    },
    {
      "midi": 62,
      "hit": false,
      "t": 126260.41666666664,
      "d": 307.2916666666715,
      "v": 122
    },
    {
      "midi": 67,
      "hit": false,
      "t": 126260.41666666664,
      "d": 307.2916666666715,
      "v": 122
    },
    {
      "midi": 71,
      "hit": false,
      "t": 126260.41666666664,
      "d": 307.2916666666715,
      "v": 122
    },
    {
      "midi": 59,
      "hit": false,
      "t": 126260.41666666676,
      "d": 250.00000000001455,
      "v": 86
    },
    {
      "midi": 62,
      "hit": false,
      "t": 126260.41666666676,
      "d": 250.00000000001455,
      "v": 87
    },
    {
      "midi": 38,
      "hit": false,
      "t": 126270.83333333343,
      "d": 239.58333333334303,
      "v": 95
    },
    {
      "midi": 71,
      "hit": false,
      "t": 126270.83333333343,
      "d": 239.58333333334303,
      "v": 107
    },
    {
      "midi": 43,
      "hit": false,
      "t": 126281.2500000001,
      "d": 229.16666666667152,
      "v": 78
    },
    {
      "midi": 62,
      "hit": false,
      "t": 126572.91666666664,
      "d": 614.5833333333285,
      "v": 122
    },
    {
      "midi": 67,
      "hit": false,
      "t": 126572.91666666664,
      "d": 614.5833333333285,
      "v": 122
    },
    {
      "midi": 71,
      "hit": false,
      "t": 126572.91666666664,
      "d": 614.5833333333285,
      "v": 122
    },
    {
      "midi": 43,
      "hit": false,
      "t": 126572.91666666664,
      "d": 682.2916666666715,
      "v": 122
    },
    {
      "midi": 60,
      "hit": false,
      "t": 126572.91666666677,
      "d": 916.6666666666715,
      "v": 86
    },
    {
      "midi": 62,
      "hit": false,
      "t": 126572.91666666677,
      "d": 916.6666666666715,
      "v": 87
    },
    {
      "midi": 38,
      "hit": false,
      "t": 126583.33333333344,
      "d": 875,
      "v": 95
    },
    {
      "midi": 72,
      "hit": false,
      "t": 126583.33333333344,
      "d": 906.25,
      "v": 107
    },
    {
      "midi": 43,
      "hit": false,
      "t": 126593.75000000012,
      "d": 807.291666666657,
      "v": 78
    },
    {
      "midi": 38,
      "hit": false,
      "t": 127197.91666666664,
      "d": 369.7916666666715,
      "v": 122
    },
    {
      "midi": 62,
      "hit": false,
      "t": 127197.91666666664,
      "d": 869.7916666666715,
      "v": 122
    },
    {
      "midi": 69,
      "hit": false,
      "t": 127197.91666666664,
      "d": 869.7916666666715,
      "v": 122
    },
    {
      "midi": 72,
      "hit": false,
      "t": 127197.91666666664,
      "d": 869.7916666666715,
      "v": 122
    },
    {
      "midi": 67,
      "hit": false,
      "t": 127500.00000000012,
      "d": 1427.0833333333285,
      "v": 95
    },
    {
      "midi": 62,
      "hit": false,
      "t": 127500.00000000012,
      "d": 2427.0833333333285,
      "v": 74
    },
    {
      "midi": 72,
      "hit": false,
      "t": 127505.20833333344,
      "d": 1432.2916666666715,
      "v": 104
    },
    {
      "midi": 43,
      "hit": false,
      "t": 127510.41666666664,
      "d": 614.583333333343,
      "v": 122
    },
    {
      "midi": 43,
      "hit": false,
      "t": 128135.41666666666,
      "d": 614.5833333333285,
      "v": 122
    },
    {
      "midi": 62,
      "hit": false,
      "t": 128135.41666666666,
      "d": 614.5833333333285,
      "v": 122
    },
    {
      "midi": 69,
      "hit": false,
      "t": 128135.41666666666,
      "d": 614.5833333333285,
      "v": 122
    },
    {
      "midi": 72,
      "hit": false,
      "t": 128135.41666666666,
      "d": 614.5833333333285,
      "v": 122
    },
    {
      "midi": 43,
      "hit": false,
      "t": 128760.41666666666,
      "d": 307.2916666666715,
      "v": 122
    },
    {
      "midi": 62,
      "hit": false,
      "t": 128760.41666666666,
      "d": 307.2916666666715,
      "v": 122
    },
    {
      "midi": 69,
      "hit": false,
      "t": 128760.41666666666,
      "d": 307.2916666666715,
      "v": 122
    },
    {
      "midi": 72,
      "hit": false,
      "t": 128760.41666666666,
      "d": 307.2916666666715,
      "v": 122
    },
    {
      "midi": 79,
      "hit": false,
      "t": 129062.50000000012,
      "d": 541.6666666666715,
      "v": 102
    },
    {
      "midi": 72,
      "hit": false,
      "t": 129072.91666666666,
      "d": 395.8333333333285,
      "v": 122
    },
    {
      "midi": 62,
      "hit": false,
      "t": 129072.91666666666,
      "d": 437.5,
      "v": 122
    },
    {
      "midi": 69,
      "hit": false,
      "t": 129072.91666666666,
      "d": 437.5,
      "v": 122
    },
    {
      "midi": 43,
      "hit": false,
      "t": 129072.91666666666,
      "d": 859.375,
      "v": 122
    },
    {
      "midi": 72,
      "hit": false,
      "t": 129375.00000000012,
      "d": 421.875,
      "v": 91
    },
    {
      "midi": 67,
      "hit": false,
      "t": 129385.41666666666,
      "d": 307.2916666666715,
      "v": 122
    },
    {
      "midi": 67,
      "hit": false,
      "t": 129687.50000000012,
      "d": 203.125,
      "v": 89
    },
    {
      "midi": 67,
      "hit": false,
      "t": 129697.91666666666,
      "d": 307.2916666666715,
      "v": 122
    },
    {
      "midi": 62,
      "hit": false,
      "t": 130010.41666666666,
      "d": 380.2083333333285,
      "v": 122
    },
    {
      "midi": 67,
      "hit": false,
      "t": 130010.41666666666,
      "d": 395.8333333333285,
      "v": 122
    },
    {
      "midi": 43,
      "hit": false,
      "t": 130010.41666666666,
      "d": 541.666666666657,
      "v": 122
    },
    {
      "midi": 62,
      "hit": false,
      "t": 130010.41666666679,
      "d": 927.083333333343,
      "v": 87
    },
    {
      "midi": 59,
      "hit": false,
      "t": 130010.41666666679,
      "d": 1000,
      "v": 86
    },
    {
      "midi": 38,
      "hit": false,
      "t": 130020.83333333346,
      "d": 572.9166666666715,
      "v": 95
    },
    {
      "midi": 71,
      "hit": false,
      "t": 130020.83333333346,
      "d": 953.125,
      "v": 107
    },
    {
      "midi": 43,
      "hit": false,
      "t": 130031.25000000013,
      "d": 505.2083333333285,
      "v": 78
    },
    {
      "midi": 69,
      "hit": false,
      "t": 130046.87499999999,
      "d": 354.1666666666715,
      "v": 122
    },
    {
      "midi": 71,
      "hit": false,
      "t": 130322.91666666666,
      "d": 307.29166666665697,
      "v": 122
    },
    {
      "midi": 71,
      "hit": false,
      "t": 130635.41666666664,
      "d": 307.2916666666715,
      "v": 122
    },
    {
      "midi": 43,
      "hit": false,
      "t": 130635.41666666664,
      "d": 557.2916666666715,
      "v": 122
    },
    {
      "midi": 67,
      "hit": false,
      "t": 130947.91666666664,
      "d": 692.7083333333576,
      "v": 122
    },
    {
      "midi": 62,
      "hit": false,
      "t": 130947.91666666664,
      "d": 708.3333333333576,
      "v": 122
    },
    {
      "midi": 69,
      "hit": false,
      "t": 130984.37499999997,
      "d": 651.0416666666861,
      "v": 122
    },
    {
      "midi": 43,
      "hit": false,
      "t": 131260.41666666666,
      "d": 307.29166666665697,
      "v": 122
    },
    {
      "midi": 59,
      "hit": false,
      "t": 131260.41666666677,
      "d": 249.9999999999709,
      "v": 86
    },
    {
      "midi": 62,
      "hit": false,
      "t": 131260.41666666677,
      "d": 249.9999999999709,
      "v": 87
    },
    {
      "midi": 38,
      "hit": false,
      "t": 131270.83333333343,
      "d": 239.58333333331393,
      "v": 95
    },
    {
      "midi": 71,
      "hit": false,
      "t": 131270.83333333343,
      "d": 239.58333333331393,
      "v": 107
    },
    {
      "midi": 43,
      "hit": false,
      "t": 131281.2500000001,
      "d": 229.16666666665697,
      "v": 78
    },
    {
      "midi": 71,
      "hit": false,
      "t": 131572.91666666666,
      "d": 614.583333333343,
      "v": 122
    },
    {
      "midi": 43,
      "hit": false,
      "t": 131572.91666666666,
      "d": 692.708333333343,
      "v": 122
    },
    {
      "midi": 57,
      "hit": false,
      "t": 131572.91666666674,
      "d": 916.666666666657,
      "v": 86
    },
    {
      "midi": 60,
      "hit": false,
      "t": 131572.91666666674,
      "d": 916.666666666657,
      "v": 87
    },
    {
      "midi": 38,
      "hit": false,
      "t": 131583.3333333334,
      "d": 875,
      "v": 95
    },
    {
      "midi": 65,
      "hit": false,
      "t": 131583.3333333334,
      "d": 906.25,
      "v": 107
    },
    {
      "midi": 43,
      "hit": false,
      "t": 131593.75000000006,
      "d": 807.2916666666861,
      "v": 78
    },
    {
      "midi": 69,
      "hit": false,
      "t": 132197.91666666666,
      "d": 307.29166666668607,
      "v": 122
    },
    {
      "midi": 72,
      "hit": false,
      "t": 132197.91666666666,
      "d": 380.20833333337214,
      "v": 122
    },
    {
      "midi": 62,
      "hit": false,
      "t": 132197.91666666666,
      "d": 421.8750000000291,
      "v": 122
    },
    {
      "midi": 38,
      "hit": false,
      "t": 132197.91666666666,
      "d": 437.5000000000291,
      "v": 122
    },
    {
      "midi": 57,
      "hit": false,
      "t": 132500.00000000006,
      "d": 1046.875000000029,
      "v": 89
    },
    {
      "midi": 65,
      "hit": false,
      "t": 132500.00000000006,
      "d": 1088.541666666686,
      "v": 74
    },
    {
      "midi": 43,
      "hit": false,
      "t": 132500.00000000006,
      "d": 1114.583333333343,
      "v": 78
    },
    {
      "midi": 69,
      "hit": false,
      "t": 132510.4166666667,
      "d": 421.875,
      "v": 122
    },
    {
      "midi": 43,
      "hit": false,
      "t": 132510.4166666667,
      "d": 541.666666666657,
      "v": 122
    },
    {
      "midi": 60,
      "hit": false,
      "t": 132536.4583333334,
      "d": 1078.125,
      "v": 85
    },
    {
      "midi": 69,
      "hit": false,
      "t": 132536.4583333334,
      "d": 1098.958333333343,
      "v": 104
    },
    {
      "midi": 71,
      "hit": false,
      "t": 132822.9166666667,
      "d": 307.29166666665697,
      "v": 122
    },
    {
      "midi": 43,
      "hit": false,
      "t": 133135.4166666667,
      "d": 307.29166666665697,
      "v": 122
    },
    {
      "midi": 71,
      "hit": false,
      "t": 133135.4166666667,
      "d": 395.83333333334303,
      "v": 122
    },
    {
      "midi": 69,
      "hit": false,
      "t": 133447.9166666667,
      "d": 692.708333333343,
      "v": 122
    },
    {
      "midi": 62,
      "hit": false,
      "t": 133447.9166666667,
      "d": 708.333333333343,
      "v": 122
    },
    {
      "midi": 43,
      "hit": false,
      "t": 133760.4166666667,
      "d": 307.29166666665697,
      "v": 122
    },
    {
      "midi": 69,
      "hit": false,
      "t": 134062.5000000001,
      "d": 411.45833333334303,
      "v": 104
    },
    {
      "midi": 67,
      "hit": false,
      "t": 134072.9166666667,
      "d": 614.583333333343,
      "v": 122
    },
    {
      "midi": 43,
      "hit": false,
      "t": 134072.9166666667,
      "d": 843.75,
      "v": 122
    },
    {
      "midi": 65,
      "hit": false,
      "t": 134375.0000000001,
      "d": 354.16666666665697,
      "v": 102
    },
    {
      "midi": 60,
      "hit": false,
      "t": 134687.5000000001,
      "d": 171.875,
      "v": 78
    },
    {
      "midi": 62,
      "hit": false,
      "t": 134687.5000000001,
      "d": 270.83333333334303,
      "v": 104
    },
    {
      "midi": 67,
      "hit": false,
      "t": 134697.9166666667,
      "d": 307.29166666665697,
      "v": 122
    },
    {
      "midi": 67,
      "hit": false,
      "t": 135000.0000000001,
      "d": 1010.416666666657,
      "v": 93
    },
    {
      "midi": 43,
      "hit": false,
      "t": 135000.0000000001,
      "d": 2500,
      "v": 79
    },
    {
      "midi": 55,
      "hit": false,
      "t": 135000.0000000001,
      "d": 2500,
      "v": 85
    },
    {
      "midi": 62,
      "hit": false,
      "t": 135000.0000000001,
      "d": 2500,
      "v": 77
    },
    {
      "midi": 62,
      "hit": false,
      "t": 135010.4166666667,
      "d": 380.20833333334303,
      "v": 122
    },
    {
      "midi": 67,
      "hit": false,
      "t": 135010.4166666667,
      "d": 380.20833333334303,
      "v": 122
    },
    {
      "midi": 43,
      "hit": false,
      "t": 135010.4166666667,
      "d": 541.6666666666861,
      "v": 122
    },
    {
      "midi": 69,
      "hit": false,
      "t": 135046.87500000003,
      "d": 380.20833333334303,
      "v": 122
    },
    {
      "midi": 71,
      "hit": false,
      "t": 135322.9166666667,
      "d": 307.29166666668607,
      "v": 122
    },
    {
      "midi": 71,
      "hit": false,
      "t": 135635.41666666672,
      "d": 307.29166666665697,
      "v": 122
    },
    {
      "midi": 43,
      "hit": false,
      "t": 135635.41666666672,
      "d": 541.666666666657,
      "v": 122
    },
    {
      "midi": 71,
      "hit": false,
      "t": 135937.5000000001,
      "d": 296.875,
      "v": 98
    },
    {
      "midi": 71,
      "hit": false,
      "t": 135947.91666666672,
      "d": 307.29166666665697,
      "v": 122
    },
    {
      "midi": 43,
      "hit": false,
      "t": 136260.41666666672,
      "d": 307.29166666665697,
      "v": 122
    },
    {
      "midi": 67,
      "hit": false,
      "t": 136260.41666666672,
      "d": 307.29166666665697,
      "v": 122
    },
    {
      "midi": 74,
      "hit": false,
      "t": 136260.41666666672,
      "d": 369.79166666665697,
      "v": 122
    },
    {
      "midi": 71,
      "hit": false,
      "t": 136260.41666666672,
      "d": 406.25,
      "v": 122
    },
    {
      "midi": 43,
      "hit": false,
      "t": 136572.91666666672,
      "d": 307.29166666665697,
      "v": 122
    },
    {
      "midi": 67,
      "hit": false,
      "t": 136572.91666666672,
      "d": 307.29166666665697,
      "v": 122
    },
    {
      "midi": 67,
      "hit": false,
      "t": 136875.0000000001,
      "d": 218.75,
      "v": 95
    },
    {
      "midi": 67,
      "hit": false,
      "t": 136885.41666666672,
      "d": 307.29166666665697,
      "v": 122
    },
    {
      "midi": 45,
      "hit": false,
      "t": 136885.41666666672,
      "d": 406.25,
      "v": 122
    },
    {
      "midi": 71,
      "hit": false,
      "t": 137031.2500000001,
      "d": 161.45833333334303,
      "v": 102
    },
    {
      "midi": 67,
      "hit": false,
      "t": 137197.91666666672,
      "d": 380.20833333334303,
      "v": 122
    },
    {
      "midi": 47,
      "hit": false,
      "t": 137197.91666666672,
      "d": 406.25,
      "v": 122
    },
    {
      "midi": 67,
      "hit": false,
      "t": 137343.7500000001,
      "d": 156.25,
      "v": 93
    },
    {
      "midi": 36,
      "hit": false,
      "t": 137500.0000000001,
      "d": 2500,
      "v": 83
    },
    {
      "midi": 43,
      "hit": false,
      "t": 137500.0000000001,
      "d": 2500,
      "v": 90
    },
    {
      "midi": 55,
      "hit": false,
      "t": 137500.0000000001,
      "d": 2500,
      "v": 77
    },
    {
      "midi": 64,
      "hit": false,
      "t": 137500.0000000001,
      "d": 2500,
      "v": 102
    },
    {
      "midi": 60,
      "hit": false,
      "t": 137510.41666666672,
      "d": 307.29166666665697,
      "v": 122
    },
    {
      "midi": 64,
      "hit": false,
      "t": 137510.41666666672,
      "d": 307.29166666665697,
      "v": 122
    },
    {
      "midi": 48,
      "hit": false,
      "t": 137510.41666666672,
      "d": 557.291666666657,
      "v": 122
    },
    {
      "midi": 67,
      "hit": false,
      "t": 137531.2500000001,
      "d": 2468.75,
      "v": 102
    },
    {
      "midi": 60,
      "hit": false,
      "t": 137822.91666666672,
      "d": 307.29166666665697,
      "v": 122
    },
    {
      "midi": 65,
      "hit": false,
      "t": 137822.91666666672,
      "d": 307.29166666665697,
      "v": 122
    },
    {
      "midi": 60,
      "hit": false,
      "t": 138135.41666666672,
      "d": 307.29166666665697,
      "v": 122
    },
    {
      "midi": 64,
      "hit": false,
      "t": 138135.41666666672,
      "d": 307.29166666665697,
      "v": 122
    },
    {
      "midi": 48,
      "hit": false,
      "t": 138135.41666666672,
      "d": 572.916666666657,
      "v": 122
    },
    {
      "midi": 60,
      "hit": false,
      "t": 138447.91666666672,
      "d": 583.333333333343,
      "v": 122
    },
    {
      "midi": 65,
      "hit": false,
      "t": 138447.91666666672,
      "d": 692.7083333333721,
      "v": 122
    },
    {
      "midi": 48,
      "hit": false,
      "t": 138760.41666666672,
      "d": 307.29166666668607,
      "v": 122
    },
    {
      "midi": 64,
      "hit": false,
      "t": 139072.91666666674,
      "d": 395.83333333334303,
      "v": 122
    },
    {
      "midi": 60,
      "hit": false,
      "t": 139072.91666666674,
      "d": 421.875,
      "v": 122
    },
    {
      "midi": 48,
      "hit": false,
      "t": 139072.91666666674,
      "d": 895.833333333343,
      "v": 122
    },
    {
      "midi": 71,
      "hit": false,
      "t": 139385.41666666674,
      "d": 421.875,
      "v": 122
    },
    {
      "midi": 69,
      "hit": false,
      "t": 139697.91666666674,
      "d": 1171.875,
      "v": 122
    },
    {
      "midi": 60,
      "hit": false,
      "t": 139697.91666666674,
      "d": 1182.291666666657,
      "v": 122
    },
    {
      "midi": 64,
      "hit": false,
      "t": 139697.91666666674,
      "d": 1182.291666666657,
      "v": 122
    },
    {
      "midi": 36,
      "hit": false,
      "t": 140000.0000000001,
      "d": 2401.041666666686,
      "v": 98
    },
    {
      "midi": 48,
      "hit": false,
      "t": 140010.41666666674,
      "d": 614.583333333343,
      "v": 122
    },
    {
      "midi": 43,
      "hit": false,
      "t": 140447.91666666674,
      "d": 1973.9583333333721,
      "v": 98
    },
    {
      "midi": 48,
      "hit": false,
      "t": 140635.41666666674,
      "d": 572.916666666657,
      "v": 122
    },
    {
      "midi": 48,
      "hit": false,
      "t": 140932.29166666674,
      "d": 1473.9583333333721,
      "v": 90
    },
    {
      "midi": 67,
      "hit": false,
      "t": 140947.91666666674,
      "d": 421.875,
      "v": 122
    },
    {
      "midi": 60,
      "hit": false,
      "t": 140953.1250000001,
      "d": 656.2499999999709,
      "v": 80
    },
    {
      "midi": 55,
      "hit": false,
      "t": 140953.1250000001,
      "d": 713.541666666657,
      "v": 80
    },
    {
      "midi": 64,
      "hit": false,
      "t": 140963.54166666674,
      "d": 666.666666666657,
      "v": 101
    },
    {
      "midi": 69,
      "hit": false,
      "t": 141260.41666666674,
      "d": 395.83333333334303,
      "v": 122
    },
    {
      "midi": 48,
      "hit": false,
      "t": 141260.41666666674,
      "d": 421.875,
      "v": 122
    },
    {
      "midi": 47,
      "hit": false,
      "t": 141572.91666666674,
      "d": 307.29166666665697,
      "v": 122
    },
    {
      "midi": 71,
      "hit": false,
      "t": 141572.91666666674,
      "d": 843.75,
      "v": 122
    },
    {
      "midi": 48,
      "hit": false,
      "t": 141885.41666666674,
      "d": 307.29166666665697,
      "v": 122
    },
    {
      "midi": 64,
      "hit": false,
      "t": 141906.2500000001,
      "d": 239.58333333334303,
      "v": 98
    },
    {
      "midi": 60,
      "hit": false,
      "t": 142031.2500000001,
      "d": 317.70833333334303,
      "v": 78
    },
    {
      "midi": 49,
      "hit": false,
      "t": 142197.91666666674,
      "d": 421.875,
      "v": 122
    },
    {
      "midi": 66,
      "hit": false,
      "t": 142510.41666666674,
      "d": 369.79166666665697,
      "v": 122
    },
    {
      "midi": 62,
      "hit": false,
      "t": 142510.41666666674,
      "d": 395.83333333331393,
      "v": 122
    },
    {
      "midi": 57,
      "hit": false,
      "t": 142510.41666666674,
      "d": 406.2499999999709,
      "v": 122
    },
    {
      "midi": 50,
      "hit": false,
      "t": 142510.41666666674,
      "d": 557.2916666666279,
      "v": 122
    },
    {
      "midi": 62,
      "hit": false,
      "t": 142510.41666666677,
      "d": 927.0833333333139,
      "v": 79
    },
    {
      "midi": 57,
      "hit": false,
      "t": 142510.41666666677,
      "d": 1000,
      "v": 78
    },
    {
      "midi": 45,
      "hit": false,
      "t": 142520.83333333343,
      "d": 572.916666666657,
      "v": 87
    },
    {
      "midi": 66,
      "hit": false,
      "t": 142520.83333333343,
      "d": 953.125,
      "v": 99
    },
    {
      "midi": 38,
      "hit": false,
      "t": 142531.2500000001,
      "d": 505.20833333334303,
      "v": 70
    },
    {
      "midi": 67,
      "hit": false,
      "t": 142822.91666666674,
      "d": 395.83333333331393,
      "v": 122
    },
    {
      "midi": 66,
      "hit": false,
      "t": 143135.41666666672,
      "d": 307.29166666668607,
      "v": 122
    },
    {
      "midi": 50,
      "hit": false,
      "t": 143135.41666666672,
      "d": 572.9166666666861,
      "v": 122
    },
    {
      "midi": 62,
      "hit": false,
      "t": 143447.91666666674,
      "d": 869.791666666657,
      "v": 122
    },
    {
      "midi": 57,
      "hit": false,
      "t": 143447.91666666674,
      "d": 885.416666666657,
      "v": 122
    },
    {
      "midi": 67,
      "hit": false,
      "t": 143447.91666666674,
      "d": 963.541666666657,
      "v": 122
    },
    {
      "midi": 50,
      "hit": false,
      "t": 143760.41666666674,
      "d": 406.25,
      "v": 122
    },
    {
      "midi": 66,
      "hit": false,
      "t": 144062.50000000012,
      "d": 494.79166666665697,
      "v": 119
    },
    {
      "midi": 52,
      "hit": false,
      "t": 144072.91666666674,
      "d": 437.5,
      "v": 122
    },
    {
      "midi": 50,
      "hit": false,
      "t": 144385.41666666674,
      "d": 395.83333333334303,
      "v": 122
    },
    {
      "midi": 57,
      "hit": false,
      "t": 144385.41666666674,
      "d": 395.83333333334303,
      "v": 122
    },
    {
      "midi": 62,
      "hit": false,
      "t": 144385.41666666674,
      "d": 395.83333333334303,
      "v": 122
    },
    {
      "midi": 66,
      "hit": false,
      "t": 144385.41666666674,
      "d": 395.83333333334303,
      "v": 122
    },
    {
      "midi": 67,
      "hit": false,
      "t": 144697.91666666674,
      "d": 307.29166666668607,
      "v": 122
    },
    {
      "midi": 47,
      "hit": false,
      "t": 144697.91666666674,
      "d": 395.83333333337214,
      "v": 122
    },
    {
      "midi": 62,
      "hit": false,
      "t": 145000.00000000012,
      "d": 572.9166666666861,
      "v": 80
    },
    {
      "midi": 60,
      "hit": false,
      "t": 145000.00000000012,
      "d": 598.958333333343,
      "v": 84
    },
    {
      "midi": 64,
      "hit": false,
      "t": 145000.00000000012,
      "d": 598.958333333343,
      "v": 93
    },
    {
      "midi": 67,
      "hit": false,
      "t": 145000.00000000012,
      "d": 619.7916666666861,
      "v": 93
    },
    {
      "midi": 48,
      "hit": false,
      "t": 145000.00000000012,
      "d": 2479.166666666686,
      "v": 90
    },
    {
      "midi": 67,
      "hit": false,
      "t": 145010.41666666677,
      "d": 354.16666666665697,
      "v": 122
    },
    {
      "midi": 64,
      "hit": false,
      "t": 145010.41666666677,
      "d": 406.25,
      "v": 122
    },
    {
      "midi": 74,
      "hit": false,
      "t": 145010.41666666677,
      "d": 421.875,
      "v": 122
    },
    {
      "midi": 48,
      "hit": false,
      "t": 145010.41666666677,
      "d": 572.916666666657,
      "v": 122
    },
    {
      "midi": 72,
      "hit": false,
      "t": 145322.91666666677,
      "d": 307.29166666665697,
      "v": 122
    },
    {
      "midi": 72,
      "hit": false,
      "t": 145635.41666666677,
      "d": 406.25,
      "v": 122
    },
    {
      "midi": 48,
      "hit": false,
      "t": 145635.41666666677,
      "d": 557.291666666657,
      "v": 122
    },
    {
      "midi": 71,
      "hit": false,
      "t": 145947.91666666677,
      "d": 307.29166666665697,
      "v": 122
    },
    {
      "midi": 48,
      "hit": false,
      "t": 146260.41666666677,
      "d": 307.29166666665697,
      "v": 122
    },
    {
      "midi": 71,
      "hit": false,
      "t": 146260.41666666677,
      "d": 380.20833333334303,
      "v": 122
    },
    {
      "midi": 67,
      "hit": false,
      "t": 146572.91666666677,
      "d": 395.83333333334303,
      "v": 122
    },
    {
      "midi": 48,
      "hit": false,
      "t": 146572.91666666677,
      "d": 859.3750000000291,
      "v": 122
    },
    {
      "midi": 72,
      "hit": false,
      "t": 146869.7916666668,
      "d": 218.75,
      "v": 101
    },
    {
      "midi": 69,
      "hit": false,
      "t": 146885.41666666677,
      "d": 307.29166666668607,
      "v": 122
    },
    {
      "midi": 74,
      "hit": false,
      "t": 147031.25000000015,
      "d": 229.16666666665697,
      "v": 90
    },
    {
      "midi": 76,
      "hit": false,
      "t": 147187.50000000015,
      "d": 197.91666666665697,
      "v": 93
    },
    {
      "midi": 62,
      "hit": false,
      "t": 147197.9166666668,
      "d": 885.416666666657,
      "v": 122
    },
    {
      "midi": 66,
      "hit": false,
      "t": 147197.9166666668,
      "d": 994.791666666657,
      "v": 122
    },
    {
      "midi": 69,
      "hit": false,
      "t": 147197.9166666668,
      "d": 1020.8333333333139,
      "v": 122
    },
    {
      "midi": 62,
      "hit": false,
      "t": 147510.4166666668,
      "d": 927.0833333333139,
      "v": 79
    },
    {
      "midi": 57,
      "hit": false,
      "t": 147510.4166666668,
      "d": 1000,
      "v": 78
    },
    {
      "midi": 50,
      "hit": false,
      "t": 147510.4166666668,
      "d": 307.29166666665697,
      "v": 122
    },
    {
      "midi": 45,
      "hit": false,
      "t": 147520.83333333346,
      "d": 572.916666666657,
      "v": 87
    },
    {
      "midi": 66,
      "hit": false,
      "t": 147520.83333333346,
      "d": 953.125,
      "v": 99
    },
    {
      "midi": 38,
      "hit": false,
      "t": 147531.25000000012,
      "d": 505.20833333334303,
      "v": 70
    },
    {
      "midi": 50,
      "hit": false,
      "t": 147822.9166666668,
      "d": 307.29166666665697,
      "v": 122
    },
    {
      "midi": 62,
      "hit": false,
      "t": 148135.4166666668,
      "d": 307.29166666665697,
      "v": 122
    },
    {
      "midi": 50,
      "hit": false,
      "t": 148135.4166666668,
      "d": 760.416666666657,
      "v": 122
    },
    {
      "midi": 62,
      "hit": false,
      "t": 148447.9166666668,
      "d": 421.875,
      "v": 122
    },
    {
      "midi": 74,
      "hit": false,
      "t": 148760.4166666668,
      "d": 406.25,
      "v": 122
    },
    {
      "midi": 66,
      "hit": false,
      "t": 149062.50000000015,
      "d": 494.79166666665697,
      "v": 119
    },
    {
      "midi": 71,
      "hit": false,
      "t": 149072.9166666668,
      "d": 750,
      "v": 122
    },
    {
      "midi": 69,
      "hit": false,
      "t": 149697.9166666668,
      "d": 557.291666666657,
      "v": 122
    },
    {
      "midi": 64,
      "hit": false,
      "t": 149697.9166666668,
      "d": 682.291666666657,
      "v": 122
    },
    {
      "midi": 60,
      "hit": false,
      "t": 149697.9166666668,
      "d": 692.7083333333139,
      "v": 122
    },
    {
      "midi": 55,
      "hit": false,
      "t": 150010.4166666668,
      "d": 927.0833333333139,
      "v": 62
    },
    {
      "midi": 52,
      "hit": false,
      "t": 150010.4166666668,
      "d": 1000,
      "v": 61
    },
    {
      "midi": 45,
      "hit": false,
      "t": 150010.4166666668,
      "d": 557.291666666657,
      "v": 122
    },
    {
      "midi": 40,
      "hit": false,
      "t": 150020.83333333346,
      "d": 572.916666666657,
      "v": 70
    },
    {
      "midi": 60,
      "hit": false,
      "t": 150020.83333333346,
      "d": 953.125,
      "v": 82
    },
    {
      "midi": 45,
      "hit": false,
      "t": 150031.25000000012,
      "d": 505.20833333334303,
      "v": 53
    },
    {
      "midi": 69,
      "hit": false,
      "t": 150322.9166666668,
      "d": 307.29166666665697,
      "v": 122
    },
    {
      "midi": 45,
      "hit": false,
      "t": 150635.4166666668,
      "d": 614.583333333343,
      "v": 122
    },
    {
      "midi": 67,
      "hit": false,
      "t": 150635.4166666668,
      "d": 1739.583333333343,
      "v": 122
    },
    {
      "midi": 71,
      "hit": false,
      "t": 150635.4166666668,
      "d": 1739.583333333343,
      "v": 122
    },
    {
      "midi": 60,
      "hit": false,
      "t": 150635.4166666668,
      "d": 1770.833333333343,
      "v": 122
    },
    {
      "midi": 64,
      "hit": false,
      "t": 150635.4166666668,
      "d": 1770.833333333343,
      "v": 122
    },
    {
      "midi": 45,
      "hit": false,
      "t": 151260.4166666668,
      "d": 307.29166666665697,
      "v": 122
    },
    {
      "midi": 60,
      "hit": false,
      "t": 151562.50000000015,
      "d": 494.79166666665697,
      "v": 102
    },
    {
      "midi": 43,
      "hit": false,
      "t": 151572.9166666668,
      "d": 421.875,
      "v": 122
    },
    {
      "midi": 45,
      "hit": false,
      "t": 151885.4166666668,
      "d": 380.20833333334303,
      "v": 122
    },
    {
      "midi": 57,
      "hit": false,
      "t": 152031.25000000015,
      "d": 213.54166666665697,
      "v": 82
    },
    {
      "midi": 47,
      "hit": false,
      "t": 152197.9166666668,
      "d": 307.29166666668607,
      "v": 122
    },
    {
      "midi": 48,
      "hit": false,
      "t": 152500.00000000015,
      "d": 2500,
      "v": 66
    },
    {
      "midi": 52,
      "hit": false,
      "t": 152500.00000000015,
      "d": 2500,
      "v": 80
    },
    {
      "midi": 62,
      "hit": false,
      "t": 152500.00000000015,
      "d": 2500,
      "v": 58
    },
    {
      "midi": 74,
      "hit": false,
      "t": 152500.00000000015,
      "d": 2500,
      "v": 86
    },
    {
      "midi": 48,
      "hit": false,
      "t": 152510.41666666683,
      "d": 614.5833333333139,
      "v": 122
    },
    {
      "midi": 67,
      "hit": false,
      "t": 152510.41666666683,
      "d": 885.4166666666279,
      "v": 122
    },
    {
      "midi": 62,
      "hit": false,
      "t": 152510.41666666683,
      "d": 895.8333333332848,
      "v": 122
    },
    {
      "midi": 64,
      "hit": false,
      "t": 152552.0833333335,
      "d": 802.0833333333139,
      "v": 122
    },
    {
      "midi": 67,
      "hit": false,
      "t": 152656.25000000015,
      "d": 2343.75,
      "v": 64
    },
    {
      "midi": 64,
      "hit": false,
      "t": 152812.50000000015,
      "d": 2187.5,
      "v": 78
    },
    {
      "midi": 48,
      "hit": false,
      "t": 153135.4166666668,
      "d": 557.2916666666279,
      "v": 122
    },
    {
      "midi": 64,
      "hit": false,
      "t": 153447.91666666677,
      "d": 406.25,
      "v": 122
    },
    {
      "midi": 48,
      "hit": false,
      "t": 153760.41666666677,
      "d": 307.29166666665697,
      "v": 122
    },
    {
      "midi": 67,
      "hit": false,
      "t": 153760.41666666677,
      "d": 307.29166666665697,
      "v": 122
    },
    {
      "midi": 67,
      "hit": false,
      "t": 154072.91666666677,
      "d": 307.29166666665697,
      "v": 122
    },
    {
      "midi": 48,
      "hit": false,
      "t": 154072.91666666677,
      "d": 406.25,
      "v": 122
    },
    {
      "midi": 67,
      "hit": false,
      "t": 154385.41666666677,
      "d": 307.29166666665697,
      "v": 122
    },
    {
      "midi": 50,
      "hit": false,
      "t": 154385.41666666677,
      "d": 760.4166666666861,
      "v": 122
    },
    {
      "midi": 69,
      "hit": false,
      "t": 154697.91666666677,
      "d": 395.83333333334303,
      "v": 122
    },
    {
      "midi": 57,
      "hit": false,
      "t": 155000.00000000015,
      "d": 572.9166666666861,
      "v": 72
    },
    {
      "midi": 55,
      "hit": false,
      "t": 155000.00000000015,
      "d": 598.958333333343,
      "v": 76
    },
    {
      "midi": 59,
      "hit": false,
      "t": 155000.00000000015,
      "d": 598.958333333343,
      "v": 85
    },
    {
      "midi": 62,
      "hit": false,
      "t": 155000.00000000015,
      "d": 619.7916666666861,
      "v": 85
    },
    {
      "midi": 43,
      "hit": false,
      "t": 155000.00000000015,
      "d": 2479.166666666686,
      "v": 82
    },
    {
      "midi": 43,
      "hit": false,
      "t": 155010.41666666677,
      "d": 614.583333333343,
      "v": 122
    },
    {
      "midi": 62,
      "hit": false,
      "t": 155010.41666666677,
      "d": 1208.333333333314,
      "v": 122
    },
    {
      "midi": 67,
      "hit": false,
      "t": 155010.41666666677,
      "d": 1317.708333333314,
      "v": 122
    },
    {
      "midi": 71,
      "hit": false,
      "t": 155010.41666666677,
      "d": 1317.708333333314,
      "v": 122
    },
    {
      "midi": 43,
      "hit": false,
      "t": 155635.41666666677,
      "d": 541.666666666657,
      "v": 122
    },
    {
      "midi": 43,
      "hit": false,
      "t": 156260.41666666674,
      "d": 307.29166666668607,
      "v": 122
    },
    {
      "midi": 62,
      "hit": false,
      "t": 156260.41666666674,
      "d": 307.29166666668607,
      "v": 122
    },
    {
      "midi": 69,
      "hit": false,
      "t": 156260.41666666674,
      "d": 395.83333333337214,
      "v": 122
    },
    {
      "midi": 43,
      "hit": false,
      "t": 156572.91666666677,
      "d": 406.25,
      "v": 122
    },
    {
      "midi": 62,
      "hit": false,
      "t": 156572.91666666677,
      "d": 572.916666666657,
      "v": 122
    },
    {
      "midi": 67,
      "hit": false,
      "t": 156572.91666666677,
      "d": 692.708333333343,
      "v": 122
    },
    {
      "midi": 67,
      "hit": false,
      "t": 156869.79166666683,
      "d": 218.75,
      "v": 93
    },
    {
      "midi": 45,
      "hit": false,
      "t": 156885.41666666677,
      "d": 651.041666666657,
      "v": 122
    },
    {
      "midi": 69,
      "hit": false,
      "t": 157031.25000000017,
      "d": 229.16666666665697,
      "v": 82
    },
    {
      "midi": 71,
      "hit": false,
      "t": 157187.50000000017,
      "d": 197.91666666665697,
      "v": 85
    },
    {
      "midi": 62,
      "hit": false,
      "t": 157197.91666666677,
      "d": 885.416666666657,
      "v": 122
    },
    {
      "midi": 69,
      "hit": false,
      "t": 157197.91666666677,
      "d": 994.791666666657,
      "v": 122
    },
    {
      "midi": 66,
      "hit": false,
      "t": 157197.91666666677,
      "d": 1020.8333333333139,
      "v": 122
    },
    {
      "midi": 57,
      "hit": false,
      "t": 157500.00000000017,
      "d": 1046.875000000029,
      "v": 72
    },
    {
      "midi": 66,
      "hit": false,
      "t": 157500.00000000017,
      "d": 1088.541666666686,
      "v": 57
    },
    {
      "midi": 50,
      "hit": false,
      "t": 157500.00000000017,
      "d": 1114.583333333343,
      "v": 61
    },
    {
      "midi": 50,
      "hit": false,
      "t": 157510.41666666677,
      "d": 1197.916666666657,
      "v": 122
    },
    {
      "midi": 62,
      "hit": false,
      "t": 157536.45833333352,
      "d": 1078.125,
      "v": 68
    },
    {
      "midi": 69,
      "hit": false,
      "t": 157536.45833333352,
      "d": 1098.958333333343,
      "v": 87
    },
    {
      "midi": 62,
      "hit": false,
      "t": 158135.41666666677,
      "d": 307.29166666665697,
      "v": 122
    },
    {
      "midi": 62,
      "hit": false,
      "t": 158447.91666666677,
      "d": 421.875,
      "v": 122
    },
    {
      "midi": 50,
      "hit": false,
      "t": 158760.41666666677,
      "d": 421.875,
      "v": 122
    },
    {
      "midi": 74,
      "hit": false,
      "t": 158760.41666666677,
      "d": 421.875,
      "v": 122
    },
    {
      "midi": 69,
      "hit": false,
      "t": 159062.5000000002,
      "d": 411.45833333334303,
      "v": 87
    },
    {
      "midi": 52,
      "hit": false,
      "t": 159072.91666666677,
      "d": 437.5,
      "v": 122
    },
    {
      "midi": 71,
      "hit": false,
      "t": 159072.91666666677,
      "d": 692.708333333343,
      "v": 122
    },
    {
      "midi": 66,
      "hit": false,
      "t": 159375.0000000002,
      "d": 354.16666666665697,
      "v": 85
    },
    {
      "midi": 50,
      "hit": false,
      "t": 159385.41666666677,
      "d": 406.25,
      "v": 122
    },
    {
      "midi": 62,
      "hit": false,
      "t": 159687.5000000002,
      "d": 171.875,
      "v": 61
    },
    {
      "midi": 47,
      "hit": false,
      "t": 159697.91666666677,
      "d": 307.29166666665697,
      "v": 122
    },
    {
      "midi": 69,
      "hit": false,
      "t": 159697.91666666677,
      "d": 572.916666666657,
      "v": 122
    },
    {
      "midi": 60,
      "hit": false,
      "t": 159697.91666666677,
      "d": 708.333333333343,
      "v": 122
    },
    {
      "midi": 64,
      "hit": false,
      "t": 159697.91666666677,
      "d": 708.333333333343,
      "v": 122
    },
    {
      "midi": 55,
      "hit": false,
      "t": 160000.0000000002,
      "d": 244.79166666665697,
      "v": 72
    },
    {
      "midi": 40,
      "hit": false,
      "t": 160000.0000000002,
      "d": 817.7083333333139,
      "v": 78
    },
    {
      "midi": 45,
      "hit": false,
      "t": 160000.0000000002,
      "d": 864.5833333333139,
      "v": 70
    },
    {
      "midi": 52,
      "hit": false,
      "t": 160000.0000000002,
      "d": 874.9999999999709,
      "v": 59
    },
    {
      "midi": 45,
      "hit": false,
      "t": 160010.41666666677,
      "d": 557.2916666666861,
      "v": 122
    },
    {
      "midi": 57,
      "hit": false,
      "t": 160098.95833333355,
      "d": 744.7916666666279,
      "v": 74
    },
    {
      "midi": 60,
      "hit": false,
      "t": 160098.95833333355,
      "d": 802.0833333332848,
      "v": 80
    },
    {
      "midi": 69,
      "hit": false,
      "t": 160322.91666666677,
      "d": 406.2500000000291,
      "v": 122
    },
    {
      "midi": 45,
      "hit": false,
      "t": 160635.4166666668,
      "d": 614.583333333343,
      "v": 122
    },
    {
      "midi": 67,
      "hit": false,
      "t": 160635.4166666668,
      "d": 1755.208333333343,
      "v": 122
    },
    {
      "midi": 64,
      "hit": false,
      "t": 160635.4166666668,
      "d": 1781.25,
      "v": 122
    },
    {
      "midi": 60,
      "hit": false,
      "t": 160635.4166666668,
      "d": 1796.875,
      "v": 122
    },
    {
      "midi": 71,
      "hit": false,
      "t": 160635.4166666668,
      "d": 1796.875,
      "v": 122
    },
    {
      "midi": 45,
      "hit": false,
      "t": 161260.4166666668,
      "d": 307.29166666665697,
      "v": 122
    },
    {
      "midi": 43,
      "hit": false,
      "t": 161572.9166666668,
      "d": 307.29166666665697,
      "v": 122
    },
    {
      "midi": 45,
      "hit": false,
      "t": 161885.4166666668,
      "d": 307.29166666665697,
      "v": 122
    },
    {
      "midi": 47,
      "hit": false,
      "t": 162197.9166666668,
      "d": 307.29166666665697,
      "v": 122
    },
    {
      "midi": 64,
      "hit": false,
      "t": 162500.00000000017,
      "d": 1427.083333333343,
      "v": 78
    },
    {
      "midi": 62,
      "hit": false,
      "t": 162500.00000000017,
      "d": 2427.083333333343,
      "v": 57
    },
    {
      "midi": 67,
      "hit": false,
      "t": 162505.20833333352,
      "d": 1432.291666666657,
      "v": 87
    },
    {
      "midi": 67,
      "hit": false,
      "t": 162510.4166666668,
      "d": 369.79166666665697,
      "v": 122
    },
    {
      "midi": 62,
      "hit": false,
      "t": 162510.4166666668,
      "d": 395.83333333331393,
      "v": 122
    },
    {
      "midi": 48,
      "hit": false,
      "t": 162510.4166666668,
      "d": 557.291666666657,
      "v": 122
    },
    {
      "midi": 64,
      "hit": false,
      "t": 162552.08333333346,
      "d": 265.625,
      "v": 122
    },
    {
      "midi": 64,
      "hit": false,
      "t": 162822.9166666668,
      "d": 406.25,
      "v": 122
    },
    {
      "midi": 67,
      "hit": false,
      "t": 163135.4166666668,
      "d": 380.20833333334303,
      "v": 122
    },
    {
      "midi": 48,
      "hit": false,
      "t": 163135.4166666668,
      "d": 572.9166666666861,
      "v": 122
    },
    {
      "midi": 64,
      "hit": false,
      "t": 163447.9166666668,
      "d": 380.20833333337214,
      "v": 122
    },
    {
      "midi": 67,
      "hit": false,
      "t": 163760.41666666683,
      "d": 203.125,
      "v": 122
    },
    {
      "midi": 48,
      "hit": false,
      "t": 163760.41666666683,
      "d": 260.41666666665697,
      "v": 122
    },
    {
      "midi": 64,
      "hit": false,
      "t": 163921.87500000017,
      "d": 203.125,
      "v": 122
    },
    {
      "midi": 76,
      "hit": false,
      "t": 164062.50000000017,
      "d": 541.666666666657,
      "v": 85
    },
    {
      "midi": 48,
      "hit": false,
      "t": 164072.91666666683,
      "d": 406.25,
      "v": 122
    },
    {
      "midi": 67,
      "hit": false,
      "t": 164072.91666666683,
      "d": 557.291666666657,
      "v": 122
    },
    {
      "midi": 67,
      "hit": false,
      "t": 164375.00000000017,
      "d": 421.875,
      "v": 74
    },
    {
      "midi": 50,
      "hit": false,
      "t": 164385.41666666683,
      "d": 692.708333333343,
      "v": 122
    },
    {
      "midi": 64,
      "hit": false,
      "t": 164687.50000000017,
      "d": 203.125,
      "v": 72
    },
    {
      "midi": 59,
      "hit": false,
      "t": 164697.91666666683,
      "d": 885.4166666666861,
      "v": 122
    },
    {
      "midi": 62,
      "hit": false,
      "t": 164697.91666666683,
      "d": 979.166666666657,
      "v": 122
    },
    {
      "midi": 67,
      "hit": false,
      "t": 164697.91666666683,
      "d": 994.791666666657,
      "v": 122
    },
    {
      "midi": 43,
      "hit": false,
      "t": 165000.00000000017,
      "d": 1942.7083333333721,
      "v": 74
    },
    {
      "midi": 43,
      "hit": false,
      "t": 165010.41666666683,
      "d": 614.583333333343,
      "v": 122
    },
    {
      "midi": 59,
      "hit": false,
      "t": 165036.45833333352,
      "d": 2109.375000000029,
      "v": 76
    },
    {
      "midi": 62,
      "hit": false,
      "t": 165036.45833333352,
      "d": 2109.375000000029,
      "v": 68
    },
    {
      "midi": 67,
      "hit": false,
      "t": 165052.08333333352,
      "d": 2093.750000000029,
      "v": 80
    },
    {
      "midi": 71,
      "hit": false,
      "t": 165072.91666666686,
      "d": 2072.916666666686,
      "v": 78
    },
    {
      "midi": 43,
      "hit": false,
      "t": 165635.41666666683,
      "d": 614.5833333333139,
      "v": 122
    },
    {
      "midi": 59,
      "hit": false,
      "t": 165635.41666666683,
      "d": 734.3749999999709,
      "v": 122
    },
    {
      "midi": 43,
      "hit": false,
      "t": 166260.4166666668,
      "d": 307.29166666665697,
      "v": 122
    },
    {
      "midi": 62,
      "hit": false,
      "t": 166260.4166666668,
      "d": 307.29166666665697,
      "v": 122
    },
    {
      "midi": 72,
      "hit": false,
      "t": 166260.4166666668,
      "d": 406.25,
      "v": 122
    },
    {
      "midi": 69,
      "hit": false,
      "t": 166260.4166666668,
      "d": 421.875,
      "v": 122
    },
    {
      "midi": 62,
      "hit": false,
      "t": 166572.9166666668,
      "d": 307.29166666665697,
      "v": 122
    },
    {
      "midi": 67,
      "hit": false,
      "t": 166572.9166666668,
      "d": 380.20833333334303,
      "v": 122
    },
    {
      "midi": 71,
      "hit": false,
      "t": 166572.9166666668,
      "d": 395.83333333334303,
      "v": 122
    },
    {
      "midi": 43,
      "hit": false,
      "t": 166572.9166666668,
      "d": 708.3333333333721,
      "v": 122
    },
    {
      "midi": 62,
      "hit": false,
      "t": 166885.4166666668,
      "d": 307.29166666668607,
      "v": 122
    },
    {
      "midi": 69,
      "hit": false,
      "t": 166885.4166666668,
      "d": 380.20833333337214,
      "v": 122
    },
    {
      "midi": 72,
      "hit": false,
      "t": 166885.4166666668,
      "d": 421.8750000000291,
      "v": 122
    },
    {
      "midi": 62,
      "hit": false,
      "t": 167187.5000000002,
      "d": 156.25,
      "v": 64
    },
    {
      "midi": 38,
      "hit": false,
      "t": 167197.91666666683,
      "d": 406.25,
      "v": 122
    },
    {
      "midi": 62,
      "hit": false,
      "t": 167197.91666666683,
      "d": 885.416666666657,
      "v": 122
    },
    {
      "midi": 67,
      "hit": false,
      "t": 167197.91666666683,
      "d": 979.166666666657,
      "v": 122
    },
    {
      "midi": 71,
      "hit": false,
      "t": 167197.91666666683,
      "d": 979.166666666657,
      "v": 122
    },
    {
      "midi": 38,
      "hit": false,
      "t": 167343.7500000002,
      "d": 104.16666666665697,
      "v": 44
    },
    {
      "midi": 62,
      "hit": false,
      "t": 167500.0000000002,
      "d": 1203.125,
      "v": 82
    },
    {
      "midi": 71,
      "hit": false,
      "t": 167500.0000000002,
      "d": 1562.5,
      "v": 82
    },
    {
      "midi": 67,
      "hit": false,
      "t": 167500.0000000002,
      "d": 1682.291666666657,
      "v": 76
    },
    {
      "midi": 43,
      "hit": false,
      "t": 167500.0000000002,
      "d": 2250,
      "v": 76
    },
    {
      "midi": 43,
      "hit": false,
      "t": 167510.41666666683,
      "d": 307.29166666665697,
      "v": 122
    },
    {
      "midi": 59,
      "hit": false,
      "t": 167656.2500000002,
      "d": 1526.041666666657,
      "v": 76
    },
    {
      "midi": 43,
      "hit": false,
      "t": 167822.91666666683,
      "d": 307.29166666665697,
      "v": 122
    },
    {
      "midi": 62,
      "hit": false,
      "t": 168135.41666666683,
      "d": 307.29166666665697,
      "v": 122
    },
    {
      "midi": 43,
      "hit": false,
      "t": 168135.41666666683,
      "d": 395.83333333334303,
      "v": 122
    },
    {
      "midi": 50,
      "hit": false,
      "t": 168447.91666666683,
      "d": 395.83333333334303,
      "v": 122
    },
    {
      "midi": 62,
      "hit": false,
      "t": 168447.91666666683,
      "d": 395.83333333334303,
      "v": 122
    },
    {
      "midi": 43,
      "hit": false,
      "t": 168760.41666666683,
      "d": 307.29166666668607,
      "v": 122
    },
    {
      "midi": 74,
      "hit": false,
      "t": 168760.41666666683,
      "d": 395.83333333337214,
      "v": 122
    },
    {
      "midi": 62,
      "hit": false,
      "t": 169062.5000000002,
      "d": 505.20833333334303,
      "v": 98
    },
    {
      "midi": 43,
      "hit": false,
      "t": 169072.91666666686,
      "d": 307.29166666668607,
      "v": 122
    },
    {
      "midi": 71,
      "hit": false,
      "t": 169072.91666666686,
      "d": 682.2916666666861,
      "v": 122
    },
    {
      "midi": 43,
      "hit": false,
      "t": 169385.4166666669,
      "d": 395.83333333331393,
      "v": 122
    },
    {
      "midi": 71,
      "hit": false,
      "t": 169531.2500000002,
      "d": 218.75,
      "v": 98
    },
    {
      "midi": 38,
      "hit": false,
      "t": 169697.9166666669,
      "d": 421.8749999999709,
      "v": 122
    },
    {
      "midi": 69,
      "hit": false,
      "t": 169697.9166666669,
      "d": 557.2916666666279,
      "v": 122
    },
    {
      "midi": 64,
      "hit": false,
      "t": 169697.9166666669,
      "d": 692.7083333333139,
      "v": 122
    },
    {
      "midi": 60,
      "hit": false,
      "t": 169697.9166666669,
      "d": 708.3333333333139,
      "v": 122
    },
    {
      "midi": 45,
      "hit": false,
      "t": 170000.0000000002,
      "d": 2500,
      "v": 66
    },
    {
      "midi": 48,
      "hit": false,
      "t": 170000.0000000002,
      "d": 2500,
      "v": 80
    },
    {
      "midi": 55,
      "hit": false,
      "t": 170000.0000000002,
      "d": 2500,
      "v": 58
    },
    {
      "midi": 67,
      "hit": false,
      "t": 170000.0000000002,
      "d": 2500,
      "v": 86
    },
    {
      "midi": 45,
      "hit": false,
      "t": 170010.41666666686,
      "d": 583.333333333343,
      "v": 122
    },
    {
      "midi": 64,
      "hit": false,
      "t": 170156.2500000002,
      "d": 2343.75,
      "v": 64
    },
    {
      "midi": 57,
      "hit": false,
      "t": 170312.5000000002,
      "d": 2187.5,
      "v": 78
    },
    {
      "midi": 69,
      "hit": false,
      "t": 170322.91666666686,
      "d": 395.83333333334303,
      "v": 122
    },
    {
      "midi": 45,
      "hit": false,
      "t": 170635.41666666686,
      "d": 614.583333333343,
      "v": 122
    },
    {
      "midi": 64,
      "hit": false,
      "t": 170635.41666666686,
      "d": 1770.833333333343,
      "v": 122
    },
    {
      "midi": 60,
      "hit": false,
      "t": 170635.41666666686,
      "d": 1796.875,
      "v": 122
    },
    {
      "midi": 71,
      "hit": false,
      "t": 170635.41666666686,
      "d": 1796.875,
      "v": 122
    },
    {
      "midi": 67,
      "hit": false,
      "t": 170635.41666666686,
      "d": 1807.291666666657,
      "v": 122
    },
    {
      "midi": 45,
      "hit": false,
      "t": 171260.41666666686,
      "d": 437.5,
      "v": 122
    },
    {
      "midi": 43,
      "hit": false,
      "t": 171572.91666666686,
      "d": 473.95833333334303,
      "v": 122
    },
    {
      "midi": 45,
      "hit": false,
      "t": 171885.41666666686,
      "d": 421.875,
      "v": 122
    },
    {
      "midi": 47,
      "hit": false,
      "t": 172197.91666666686,
      "d": 380.20833333331393,
      "v": 122
    },
    {
      "midi": 62,
      "hit": false,
      "t": 172510.41666666686,
      "d": 927.0833333333139,
      "v": 62
    },
    {
      "midi": 55,
      "hit": false,
      "t": 172510.41666666686,
      "d": 1000,
      "v": 61
    },
    {
      "midi": 48,
      "hit": false,
      "t": 172510.41666666686,
      "d": 614.5833333333139,
      "v": 122
    },
    {
      "midi": 62,
      "hit": false,
      "t": 172510.41666666686,
      "d": 885.4166666666279,
      "v": 122
    },
    {
      "midi": 67,
      "hit": false,
      "t": 172510.41666666686,
      "d": 885.4166666666279,
      "v": 122
    },
    {
      "midi": 43,
      "hit": false,
      "t": 172520.83333333352,
      "d": 572.916666666657,
      "v": 70
    },
    {
      "midi": 64,
      "hit": false,
      "t": 172520.83333333352,
      "d": 953.125,
      "v": 82
    },
    {
      "midi": 36,
      "hit": false,
      "t": 172531.25000000017,
      "d": 505.20833333334303,
      "v": 53
    },
    {
      "midi": 64,
      "hit": false,
      "t": 172552.08333333352,
      "d": 802.0833333333139,
      "v": 122
    },
    {
      "midi": 48,
      "hit": false,
      "t": 173135.41666666683,
      "d": 557.291666666657,
      "v": 122
    },
    {
      "midi": 64,
      "hit": false,
      "t": 173447.91666666683,
      "d": 421.875,
      "v": 122
    },
    {
      "midi": 48,
      "hit": false,
      "t": 173760.41666666683,
      "d": 307.29166666665697,
      "v": 122
    },
    {
      "midi": 67,
      "hit": false,
      "t": 173760.41666666683,
      "d": 307.29166666665697,
      "v": 122
    },
    {
      "midi": 64,
      "hit": false,
      "t": 174062.5000000002,
      "d": 494.79166666665697,
      "v": 102
    },
    {
      "midi": 48,
      "hit": false,
      "t": 174072.91666666683,
      "d": 307.29166666665697,
      "v": 122
    },
    {
      "midi": 67,
      "hit": false,
      "t": 174072.91666666683,
      "d": 307.29166666665697,
      "v": 122
    },
    {
      "midi": 67,
      "hit": false,
      "t": 174385.41666666683,
      "d": 406.25,
      "v": 122
    },
    {
      "midi": 48,
      "hit": false,
      "t": 174385.41666666683,
      "d": 625,
      "v": 122
    },
    {
      "midi": 69,
      "hit": false,
      "t": 174697.91666666683,
      "d": 307.29166666665697,
      "v": 122
    },
    {
      "midi": 38,
      "hit": false,
      "t": 175000.0000000002,
      "d": 2500,
      "v": 70
    },
    {
      "midi": 43,
      "hit": false,
      "t": 175000.0000000002,
      "d": 2500,
      "v": 63
    },
    {
      "midi": 59,
      "hit": false,
      "t": 175000.0000000002,
      "d": 2500,
      "v": 57
    },
    {
      "midi": 67,
      "hit": false,
      "t": 175000.0000000002,
      "d": 2500,
      "v": 82
    },
    {
      "midi": 43,
      "hit": false,
      "t": 175010.41666666683,
      "d": 614.583333333343,
      "v": 122
    },
    {
      "midi": 62,
      "hit": false,
      "t": 175010.41666666683,
      "d": 1197.916666666657,
      "v": 122
    },
    {
      "midi": 67,
      "hit": false,
      "t": 175010.41666666683,
      "d": 1348.958333333343,
      "v": 122
    },
    {
      "midi": 71,
      "hit": false,
      "t": 175010.41666666683,
      "d": 1348.958333333343,
      "v": 122
    },
    {
      "midi": 71,
      "hit": false,
      "t": 175031.2500000002,
      "d": 2468.75,
      "v": 82
    },
    {
      "midi": 43,
      "hit": false,
      "t": 175635.41666666683,
      "d": 541.666666666657,
      "v": 122
    },
    {
      "midi": 43,
      "hit": false,
      "t": 176260.41666666683,
      "d": 307.29166666668607,
      "v": 122
    },
    {
      "midi": 62,
      "hit": false,
      "t": 176260.41666666683,
      "d": 307.29166666668607,
      "v": 122
    },
    {
      "midi": 69,
      "hit": false,
      "t": 176260.41666666683,
      "d": 406.2500000000291,
      "v": 122
    },
    {
      "midi": 43,
      "hit": false,
      "t": 176572.91666666686,
      "d": 437.5,
      "v": 122
    },
    {
      "midi": 62,
      "hit": false,
      "t": 176572.91666666686,
      "d": 557.291666666657,
      "v": 122
    },
    {
      "midi": 67,
      "hit": false,
      "t": 176572.91666666686,
      "d": 708.333333333343,
      "v": 122
    },
    {
      "midi": 45,
      "hit": false,
      "t": 176885.41666666686,
      "d": 718.75,
      "v": 122
    },
    {
      "midi": 62,
      "hit": false,
      "t": 177197.91666666686,
      "d": 885.416666666657,
      "v": 122
    },
    {
      "midi": 69,
      "hit": false,
      "t": 177197.91666666686,
      "d": 994.791666666657,
      "v": 122
    },
    {
      "midi": 66,
      "hit": false,
      "t": 177197.91666666686,
      "d": 1005.2083333333139,
      "v": 122
    },
    {
      "midi": 57,
      "hit": false,
      "t": 177500.0000000002,
      "d": 1046.875000000029,
      "v": 72
    },
    {
      "midi": 66,
      "hit": false,
      "t": 177500.0000000002,
      "d": 1088.541666666686,
      "v": 57
    },
    {
      "midi": 50,
      "hit": false,
      "t": 177500.0000000002,
      "d": 1114.583333333343,
      "v": 61
    },
    {
      "midi": 50,
      "hit": false,
      "t": 177510.41666666686,
      "d": 1208.333333333343,
      "v": 122
    },
    {
      "midi": 62,
      "hit": false,
      "t": 177536.45833333355,
      "d": 1078.125,
      "v": 68
    },
    {
      "midi": 69,
      "hit": false,
      "t": 177536.45833333355,
      "d": 1098.958333333343,
      "v": 87
    },
    {
      "midi": 62,
      "hit": false,
      "t": 178135.41666666686,
      "d": 307.29166666665697,
      "v": 122
    },
    {
      "midi": 62,
      "hit": false,
      "t": 178447.91666666686,
      "d": 421.875,
      "v": 122
    },
    {
      "midi": 50,
      "hit": false,
      "t": 178760.41666666686,
      "d": 307.29166666665697,
      "v": 122
    },
    {
      "midi": 72,
      "hit": false,
      "t": 178760.41666666686,
      "d": 421.875,
      "v": 122
    },
    {
      "midi": 69,
      "hit": false,
      "t": 179062.50000000023,
      "d": 411.45833333334303,
      "v": 87
    },
    {
      "midi": 52,
      "hit": false,
      "t": 179072.91666666686,
      "d": 307.29166666665697,
      "v": 122
    },
    {
      "midi": 71,
      "hit": false,
      "t": 179072.91666666686,
      "d": 718.75,
      "v": 122
    },
    {
      "midi": 66,
      "hit": false,
      "t": 179375.00000000023,
      "d": 354.16666666665697,
      "v": 85
    },
    {
      "midi": 50,
      "hit": false,
      "t": 179385.41666666686,
      "d": 307.29166666665697,
      "v": 122
    },
    {
      "midi": 62,
      "hit": false,
      "t": 179687.50000000023,
      "d": 171.875,
      "v": 61
    },
    {
      "midi": 47,
      "hit": false,
      "t": 179697.91666666686,
      "d": 437.5,
      "v": 122
    },
    {
      "midi": 69,
      "hit": false,
      "t": 179697.91666666686,
      "d": 557.291666666657,
      "v": 122
    },
    {
      "midi": 64,
      "hit": false,
      "t": 179697.91666666686,
      "d": 682.291666666657,
      "v": 122
    },
    {
      "midi": 60,
      "hit": false,
      "t": 179697.91666666686,
      "d": 692.7083333333139,
      "v": 122
    },
    {
      "midi": 60,
      "hit": false,
      "t": 180000.00000000023,
      "d": 1010.416666666657,
      "v": 80
    },
    {
      "midi": 57,
      "hit": false,
      "t": 180000.00000000023,
      "d": 1046.875,
      "v": 78
    },
    {
      "midi": 45,
      "hit": false,
      "t": 180000.00000000023,
      "d": 2500,
      "v": 66
    },
    {
      "midi": 48,
      "hit": false,
      "t": 180000.00000000023,
      "d": 2500,
      "v": 72
    },
    {
      "midi": 55,
      "hit": false,
      "t": 180000.00000000023,
      "d": 2500,
      "v": 64
    },
    {
      "midi": 45,
      "hit": false,
      "t": 180010.41666666686,
      "d": 572.916666666657,
      "v": 122
    },
    {
      "midi": 69,
      "hit": false,
      "t": 180322.91666666686,
      "d": 395.83333333334303,
      "v": 122
    },
    {
      "midi": 45,
      "hit": false,
      "t": 180635.41666666686,
      "d": 614.583333333343,
      "v": 122
    },
    {
      "midi": 60,
      "hit": false,
      "t": 180635.41666666686,
      "d": 1781.25,
      "v": 122
    },
    {
      "midi": 64,
      "hit": false,
      "t": 180635.41666666686,
      "d": 1796.875,
      "v": 122
    },
    {
      "midi": 67,
      "hit": false,
      "t": 180635.41666666686,
      "d": 1796.875,
      "v": 122
    },
    {
      "midi": 71,
      "hit": false,
      "t": 180635.41666666686,
      "d": 1796.875,
      "v": 122
    },
    {
      "midi": 64,
      "hit": false,
      "t": 180937.50000000023,
      "d": 296.875,
      "v": 85
    },
    {
      "midi": 45,
      "hit": false,
      "t": 181260.41666666686,
      "d": 395.83333333334303,
      "v": 122
    },
    {
      "midi": 43,
      "hit": false,
      "t": 181572.91666666686,
      "d": 395.83333333334303,
      "v": 122
    },
    {
      "midi": 60,
      "hit": false,
      "t": 181875.00000000023,
      "d": 218.75,
      "v": 82
    },
    {
      "midi": 45,
      "hit": false,
      "t": 181885.41666666686,
      "d": 395.83333333334303,
      "v": 122
    },
    {
      "midi": 64,
      "hit": false,
      "t": 182031.25000000023,
      "d": 161.45833333334303,
      "v": 89
    },
    {
      "midi": 47,
      "hit": false,
      "t": 182197.91666666686,
      "d": 406.25,
      "v": 122
    },
    {
      "midi": 60,
      "hit": false,
      "t": 182343.75000000023,
      "d": 156.25,
      "v": 80
    },
    {
      "midi": 48,
      "hit": false,
      "t": 182500.00000000023,
      "d": 2500,
      "v": 66
    },
    {
      "midi": 52,
      "hit": false,
      "t": 182500.00000000023,
      "d": 2500,
      "v": 80
    },
    {
      "midi": 62,
      "hit": false,
      "t": 182500.00000000023,
      "d": 2500,
      "v": 58
    },
    {
      "midi": 74,
      "hit": false,
      "t": 182500.00000000023,
      "d": 2500,
      "v": 86
    },
    {
      "midi": 62,
      "hit": false,
      "t": 182510.41666666686,
      "d": 307.29166666665697,
      "v": 122
    },
    {
      "midi": 67,
      "hit": false,
      "t": 182510.41666666686,
      "d": 380.20833333334303,
      "v": 122
    },
    {
      "midi": 48,
      "hit": false,
      "t": 182510.41666666686,
      "d": 557.2916666666861,
      "v": 122
    },
    {
      "midi": 64,
      "hit": false,
      "t": 182552.08333333352,
      "d": 265.625,
      "v": 122
    },
    {
      "midi": 67,
      "hit": false,
      "t": 182656.25000000023,
      "d": 2343.75,
      "v": 64
    },
    {
      "midi": 64,
      "hit": false,
      "t": 182812.50000000023,
      "d": 2187.5,
      "v": 78
    },
    {
      "midi": 64,
      "hit": false,
      "t": 182822.91666666686,
      "d": 395.83333333337214,
      "v": 122
    },
    {
      "midi": 67,
      "hit": false,
      "t": 183135.4166666669,
      "d": 395.83333333334303,
      "v": 122
    },
    {
      "midi": 48,
      "hit": false,
      "t": 183135.4166666669,
      "d": 541.6666666666861,
      "v": 122
    },
    {
      "midi": 64,
      "hit": false,
      "t": 183447.9166666669,
      "d": 369.79166666668607,
      "v": 122
    },
    {
      "midi": 67,
      "hit": false,
      "t": 183760.41666666692,
      "d": 203.1249999999709,
      "v": 122
    },
    {
      "midi": 48,
      "hit": false,
      "t": 183760.41666666692,
      "d": 244.79166666662786,
      "v": 122
    },
    {
      "midi": 64,
      "hit": false,
      "t": 183921.87500000023,
      "d": 229.16666666665697,
      "v": 122
    },
    {
      "midi": 48,
      "hit": false,
      "t": 184072.9166666669,
      "d": 395.83333333334303,
      "v": 122
    },
    {
      "midi": 67,
      "hit": false,
      "t": 184072.9166666669,
      "d": 557.2916666666861,
      "v": 122
    },
    {
      "midi": 47,
      "hit": false,
      "t": 184385.4166666669,
      "d": 447.91666666668607,
      "v": 122
    },
    {
      "midi": 45,
      "hit": false,
      "t": 184697.91666666692,
      "d": 406.25,
      "v": 122
    },
    {
      "midi": 67,
      "hit": false,
      "t": 184697.91666666692,
      "d": 1005.208333333343,
      "v": 122
    },
    {
      "midi": 40,
      "hit": false,
      "t": 185000.00000000023,
      "d": 1942.7083333333721,
      "v": 74
    },
    {
      "midi": 40,
      "hit": false,
      "t": 185010.41666666692,
      "d": 2437.5,
      "v": 122
    },
    {
      "midi": 55,
      "hit": false,
      "t": 185036.45833333358,
      "d": 2109.375000000029,
      "v": 76
    },
    {
      "midi": 59,
      "hit": false,
      "t": 185036.45833333358,
      "d": 2109.375000000029,
      "v": 68
    },
    {
      "midi": 64,
      "hit": false,
      "t": 185052.08333333358,
      "d": 2093.750000000029,
      "v": 80
    },
    {
      "midi": 67,
      "hit": false,
      "t": 185072.91666666692,
      "d": 2072.916666666686,
      "v": 78
    },
    {
      "midi": 59,
      "hit": false,
      "t": 185635.41666666692,
      "d": 1223.958333333343,
      "v": 122
    },
    {
      "midi": 62,
      "hit": false,
      "t": 185635.41666666692,
      "d": 1333.333333333343,
      "v": 122
    },
    {
      "midi": 55,
      "hit": false,
      "t": 186885.41666666692,
      "d": 614.583333333343,
      "v": 122
    },
    {
      "midi": 59,
      "hit": false,
      "t": 186885.41666666692,
      "d": 614.583333333343,
      "v": 122
    },
    {
      "midi": 64,
      "hit": false,
      "t": 186885.41666666692,
      "d": 614.583333333343,
      "v": 122
    },
    {
      "midi": 59,
      "hit": false,
      "t": 187187.50000000026,
      "d": 156.25,
      "v": 64
    },
    {
      "midi": 35,
      "hit": false,
      "t": 187343.75000000026,
      "d": 104.16666666665697,
      "v": 44
    },
    {
      "midi": 59,
      "hit": false,
      "t": 187500.00000000026,
      "d": 1203.125,
      "v": 82
    },
    {
      "midi": 67,
      "hit": false,
      "t": 187500.00000000026,
      "d": 1562.5,
      "v": 82
    },
    {
      "midi": 64,
      "hit": false,
      "t": 187500.00000000026,
      "d": 1682.291666666657,
      "v": 76
    },
    {
      "midi": 40,
      "hit": false,
      "t": 187500.00000000026,
      "d": 2250,
      "v": 76
    },
    {
      "midi": 40,
      "hit": false,
      "t": 187510.41666666692,
      "d": 307.29166666665697,
      "v": 122
    },
    {
      "midi": 55,
      "hit": false,
      "t": 187510.41666666692,
      "d": 307.29166666665697,
      "v": 122
    },
    {
      "midi": 59,
      "hit": false,
      "t": 187510.41666666692,
      "d": 307.29166666665697,
      "v": 122
    },
    {
      "midi": 64,
      "hit": false,
      "t": 187510.41666666692,
      "d": 307.29166666665697,
      "v": 122
    },
    {
      "midi": 55,
      "hit": false,
      "t": 187656.25000000026,
      "d": 1526.041666666657,
      "v": 76
    },
    {
      "midi": 40,
      "hit": false,
      "t": 187822.91666666692,
      "d": 614.583333333343,
      "v": 122
    },
    {
      "midi": 64,
      "hit": false,
      "t": 187822.91666666692,
      "d": 817.708333333343,
      "v": 122
    },
    {
      "midi": 59,
      "hit": false,
      "t": 187822.91666666692,
      "d": 859.375,
      "v": 122
    },
    {
      "midi": 55,
      "hit": false,
      "t": 187822.91666666692,
      "d": 869.791666666657,
      "v": 122
    },
    {
      "midi": 40,
      "hit": false,
      "t": 188447.91666666692,
      "d": 307.29166666665697,
      "v": 122
    },
    {
      "midi": 67,
      "hit": false,
      "t": 188760.41666666692,
      "d": 421.875,
      "v": 122
    },
    {
      "midi": 40,
      "hit": false,
      "t": 188760.41666666692,
      "d": 1250,
      "v": 122
    },
    {
      "midi": 59,
      "hit": false,
      "t": 189062.50000000026,
      "d": 505.20833333334303,
      "v": 98
    },
    {
      "midi": 66,
      "hit": false,
      "t": 189072.91666666692,
      "d": 437.5,
      "v": 122
    },
    {
      "midi": 64,
      "hit": false,
      "t": 189385.41666666692,
      "d": 421.875,
      "v": 122
    },
    {
      "midi": 67,
      "hit": false,
      "t": 189531.25000000026,
      "d": 218.75,
      "v": 98
    },
    {
      "midi": 62,
      "hit": false,
      "t": 189697.91666666692,
      "d": 463.54166666665697,
      "v": 122
    },
    {
      "midi": 57,
      "hit": false,
      "t": 190000.00000000026,
      "d": 244.79166666665697,
      "v": 72
    },
    {
      "midi": 40,
      "hit": false,
      "t": 190000.00000000026,
      "d": 817.7083333333139,
      "v": 78
    },
    {
      "midi": 45,
      "hit": false,
      "t": 190000.00000000026,
      "d": 864.5833333333139,
      "v": 70
    },
    {
      "midi": 52,
      "hit": false,
      "t": 190000.00000000026,
      "d": 874.9999999999709,
      "v": 59
    },
    {
      "midi": 45,
      "hit": false,
      "t": 190010.41666666692,
      "d": 734.375,
      "v": 122
    },
    {
      "midi": 64,
      "hit": false,
      "t": 190010.41666666692,
      "d": 734.375,
      "v": 122
    },
    {
      "midi": 60,
      "hit": false,
      "t": 190098.9583333336,
      "d": 744.7916666666279,
      "v": 74
    },
    {
      "midi": 52,
      "hit": false,
      "t": 190635.41666666692,
      "d": 614.583333333343,
      "v": 122
    },
    {
      "midi": 57,
      "hit": false,
      "t": 190635.41666666692,
      "d": 614.583333333343,
      "v": 122
    },
    {
      "midi": 60,
      "hit": false,
      "t": 190635.41666666692,
      "d": 614.583333333343,
      "v": 122
    },
    {
      "midi": 52,
      "hit": false,
      "t": 191260.41666666692,
      "d": 307.29166666665697,
      "v": 122
    },
    {
      "midi": 57,
      "hit": false,
      "t": 191260.41666666692,
      "d": 307.29166666665697,
      "v": 122
    },
    {
      "midi": 60,
      "hit": false,
      "t": 191260.41666666692,
      "d": 307.29166666665697,
      "v": 122
    },
    {
      "midi": 52,
      "hit": false,
      "t": 191572.91666666692,
      "d": 614.583333333343,
      "v": 122
    },
    {
      "midi": 57,
      "hit": false,
      "t": 191572.91666666692,
      "d": 614.583333333343,
      "v": 122
    },
    {
      "midi": 60,
      "hit": false,
      "t": 191572.91666666692,
      "d": 614.583333333343,
      "v": 122
    },
    {
      "midi": 40,
      "hit": false,
      "t": 192197.91666666692,
      "d": 421.875,
      "v": 122
    },
    {
      "midi": 60,
      "hit": false,
      "t": 192197.91666666692,
      "d": 869.791666666657,
      "v": 122
    },
    {
      "midi": 57,
      "hit": false,
      "t": 192197.91666666692,
      "d": 885.416666666657,
      "v": 122
    },
    {
      "midi": 52,
      "hit": false,
      "t": 192197.91666666692,
      "d": 911.4583333333139,
      "v": 122
    },
    {
      "midi": 45,
      "hit": false,
      "t": 192510.41666666692,
      "d": 1494.7916666666279,
      "v": 122
    },
    {
      "midi": 60,
      "hit": false,
      "t": 192838.5416666669,
      "d": 1901.041666666686,
      "v": 100
    },
    {
      "midi": 72,
      "hit": false,
      "t": 193125.00000000023,
      "d": 1635.416666666686,
      "v": 82
    },
    {
      "midi": 52,
      "hit": false,
      "t": 193135.4166666669,
      "d": 718.75,
      "v": 122
    },
    {
      "midi": 60,
      "hit": false,
      "t": 193135.4166666669,
      "d": 718.75,
      "v": 122
    },
    {
      "midi": 57,
      "hit": false,
      "t": 193135.4166666669,
      "d": 734.375,
      "v": 122
    },
    {
      "midi": 64,
      "hit": false,
      "t": 193750.00000000023,
      "d": 953.125,
      "v": 85
    },
    {
      "midi": 67,
      "hit": false,
      "t": 193760.4166666669,
      "d": 437.5,
      "v": 122
    },
    {
      "midi": 45,
      "hit": false,
      "t": 194072.9166666669,
      "d": 395.83333333334303,
      "v": 122
    },
    {
      "midi": 66,
      "hit": false,
      "t": 194072.9166666669,
      "d": 395.83333333334303,
      "v": 122
    },
    {
      "midi": 64,
      "hit": false,
      "t": 194385.4166666669,
      "d": 447.91666666665697,
      "v": 122
    },
    {
      "midi": 47,
      "hit": false,
      "t": 194385.4166666669,
      "d": 625,
      "v": 122
    },
    {
      "midi": 62,
      "hit": false,
      "t": 194697.9166666669,
      "d": 307.29166666665697,
      "v": 122
    },
    {
      "midi": 40,
      "hit": false,
      "t": 195000.00000000026,
      "d": 1942.7083333333721,
      "v": 74
    },
    {
      "midi": 59,
      "hit": false,
      "t": 195010.4166666669,
      "d": 614.583333333343,
      "v": 122
    },
    {
      "midi": 40,
      "hit": false,
      "t": 195010.4166666669,
      "d": 2041.666666666657,
      "v": 122
    },
    {
      "midi": 55,
      "hit": false,
      "t": 195036.4583333336,
      "d": 2109.375000000029,
      "v": 76
    },
    {
      "midi": 59,
      "hit": false,
      "t": 195036.4583333336,
      "d": 2109.375000000029,
      "v": 68
    },
    {
      "midi": 64,
      "hit": false,
      "t": 195052.0833333336,
      "d": 2093.750000000029,
      "v": 80
    },
    {
      "midi": 67,
      "hit": false,
      "t": 195072.91666666695,
      "d": 2072.916666666686,
      "v": 78
    },
    {
      "midi": 55,
      "hit": false,
      "t": 195635.4166666669,
      "d": 614.583333333343,
      "v": 122
    },
    {
      "midi": 59,
      "hit": false,
      "t": 195635.4166666669,
      "d": 614.583333333343,
      "v": 122
    },
    {
      "midi": 64,
      "hit": false,
      "t": 195635.4166666669,
      "d": 614.583333333343,
      "v": 122
    },
    {
      "midi": 55,
      "hit": false,
      "t": 196260.4166666669,
      "d": 307.29166666665697,
      "v": 122
    },
    {
      "midi": 59,
      "hit": false,
      "t": 196260.4166666669,
      "d": 307.29166666665697,
      "v": 122
    },
    {
      "midi": 64,
      "hit": false,
      "t": 196260.4166666669,
      "d": 307.29166666665697,
      "v": 122
    },
    {
      "midi": 55,
      "hit": false,
      "t": 196572.9166666669,
      "d": 614.5833333333139,
      "v": 122
    },
    {
      "midi": 59,
      "hit": false,
      "t": 196572.9166666669,
      "d": 614.5833333333139,
      "v": 122
    },
    {
      "midi": 64,
      "hit": false,
      "t": 196572.9166666669,
      "d": 614.5833333333139,
      "v": 122
    },
    {
      "midi": 59,
      "hit": false,
      "t": 197187.5000000003,
      "d": 156.25,
      "v": 64
    },
    {
      "midi": 40,
      "hit": false,
      "t": 197197.91666666686,
      "d": 307.29166666665697,
      "v": 122
    },
    {
      "midi": 55,
      "hit": false,
      "t": 197197.91666666686,
      "d": 869.791666666657,
      "v": 122
    },
    {
      "midi": 59,
      "hit": false,
      "t": 197197.91666666686,
      "d": 869.791666666657,
      "v": 122
    },
    {
      "midi": 64,
      "hit": false,
      "t": 197197.91666666686,
      "d": 885.416666666657,
      "v": 122
    },
    {
      "midi": 35,
      "hit": false,
      "t": 197343.7500000003,
      "d": 104.16666666665697,
      "v": 44
    },
    {
      "midi": 59,
      "hit": false,
      "t": 197500.0000000003,
      "d": 1203.125,
      "v": 82
    },
    {
      "midi": 67,
      "hit": false,
      "t": 197500.0000000003,
      "d": 1562.5,
      "v": 82
    },
    {
      "midi": 64,
      "hit": false,
      "t": 197500.0000000003,
      "d": 1682.291666666657,
      "v": 76
    },
    {
      "midi": 40,
      "hit": false,
      "t": 197500.0000000003,
      "d": 2250,
      "v": 76
    },
    {
      "midi": 40,
      "hit": false,
      "t": 197510.41666666686,
      "d": 2119.791666666628,
      "v": 122
    },
    {
      "midi": 55,
      "hit": false,
      "t": 197656.2500000003,
      "d": 1526.041666666657,
      "v": 76
    },
    {
      "midi": 59,
      "hit": false,
      "t": 198135.41666666686,
      "d": 682.291666666657,
      "v": 122
    },
    {
      "midi": 55,
      "hit": false,
      "t": 198135.41666666686,
      "d": 692.7083333333139,
      "v": 122
    },
    {
      "midi": 64,
      "hit": false,
      "t": 198135.41666666686,
      "d": 692.7083333333139,
      "v": 122
    },
    {
      "midi": 67,
      "hit": false,
      "t": 198760.41666666686,
      "d": 421.8749999999709,
      "v": 122
    },
    {
      "midi": 59,
      "hit": false,
      "t": 199062.5000000003,
      "d": 505.20833333334303,
      "v": 98
    },
    {
      "midi": 66,
      "hit": false,
      "t": 199072.91666666683,
      "d": 437.5,
      "v": 122
    },
    {
      "midi": 64,
      "hit": false,
      "t": 199385.41666666683,
      "d": 447.91666666665697,
      "v": 122
    },
    {
      "midi": 67,
      "hit": false,
      "t": 199531.2500000003,
      "d": 218.75,
      "v": 98
    },
    {
      "midi": 62,
      "hit": false,
      "t": 199697.91666666683,
      "d": 421.875,
      "v": 122
    },
    {
      "midi": 47,
      "hit": false,
      "t": 199697.91666666683,
      "d": 463.54166666665697,
      "v": 122
    },
    {
      "midi": 36,
      "hit": false,
      "t": 200000.0000000003,
      "d": 380.20833333334303,
      "v": 57
    },
    {
      "midi": 43,
      "hit": false,
      "t": 200000.0000000003,
      "d": 411.45833333334303,
      "v": 68
    },
    {
      "midi": 55,
      "hit": false,
      "t": 200005.20833333363,
      "d": 369.79166666665697,
      "v": 54
    },
    {
      "midi": 64,
      "hit": false,
      "t": 200010.41666666683,
      "d": 614.5833333333139,
      "v": 122
    },
    {
      "midi": 48,
      "hit": false,
      "t": 200010.41666666683,
      "d": 2109.374999999971,
      "v": 122
    },
    {
      "midi": 60,
      "hit": false,
      "t": 200010.41666666698,
      "d": 359.3749999999709,
      "v": 64
    },
    {
      "midi": 64,
      "hit": false,
      "t": 200020.83333333363,
      "d": 380.20833333334303,
      "v": 70
    },
    {
      "midi": 55,
      "hit": false,
      "t": 200635.4166666668,
      "d": 614.583333333343,
      "v": 122
    },
    {
      "midi": 60,
      "hit": false,
      "t": 200635.4166666668,
      "d": 614.583333333343,
      "v": 122
    },
    {
      "midi": 64,
      "hit": false,
      "t": 200635.4166666668,
      "d": 614.583333333343,
      "v": 122
    },
    {
      "midi": 55,
      "hit": false,
      "t": 201260.4166666668,
      "d": 307.29166666665697,
      "v": 122
    },
    {
      "midi": 60,
      "hit": false,
      "t": 201260.4166666668,
      "d": 307.29166666665697,
      "v": 122
    },
    {
      "midi": 64,
      "hit": false,
      "t": 201260.4166666668,
      "d": 307.29166666665697,
      "v": 122
    },
    {
      "midi": 55,
      "hit": false,
      "t": 201572.9166666668,
      "d": 614.583333333343,
      "v": 122
    },
    {
      "midi": 60,
      "hit": false,
      "t": 201572.9166666668,
      "d": 614.583333333343,
      "v": 122
    },
    {
      "midi": 64,
      "hit": false,
      "t": 201572.9166666668,
      "d": 614.583333333343,
      "v": 122
    },
    {
      "midi": 43,
      "hit": false,
      "t": 202197.9166666668,
      "d": 406.25,
      "v": 122
    },
    {
      "midi": 55,
      "hit": false,
      "t": 202197.9166666668,
      "d": 869.791666666657,
      "v": 122
    },
    {
      "midi": 60,
      "hit": false,
      "t": 202197.9166666668,
      "d": 885.416666666657,
      "v": 122
    },
    {
      "midi": 64,
      "hit": false,
      "t": 202197.9166666668,
      "d": 885.416666666657,
      "v": 122
    },
    {
      "midi": 64,
      "hit": false,
      "t": 202500.0000000003,
      "d": 1098.958333333343,
      "v": 70
    },
    {
      "midi": 67,
      "hit": false,
      "t": 202500.0000000003,
      "d": 1135.416666666686,
      "v": 74
    },
    {
      "midi": 52,
      "hit": false,
      "t": 202500.0000000003,
      "d": 2468.750000000058,
      "v": 76
    },
    {
      "midi": 60,
      "hit": false,
      "t": 202500.0000000003,
      "d": 2468.750000000058,
      "v": 47
    },
    {
      "midi": 48,
      "hit": false,
      "t": 202510.4166666668,
      "d": 1755.208333333314,
      "v": 122
    },
    {
      "midi": 64,
      "hit": false,
      "t": 203135.4166666668,
      "d": 307.29166666665697,
      "v": 122
    },
    {
      "midi": 55,
      "hit": false,
      "t": 203135.4166666668,
      "d": 406.25,
      "v": 122
    },
    {
      "midi": 60,
      "hit": false,
      "t": 203135.4166666668,
      "d": 406.25,
      "v": 122
    },
    {
      "midi": 64,
      "hit": false,
      "t": 203447.9166666668,
      "d": 307.29166666665697,
      "v": 122
    },
    {
      "midi": 76,
      "hit": false,
      "t": 203750.00000000032,
      "d": 437.5,
      "v": 89
    },
    {
      "midi": 64,
      "hit": false,
      "t": 203760.4166666668,
      "d": 447.91666666665697,
      "v": 122
    },
    {
      "midi": 67,
      "hit": false,
      "t": 204062.50000000032,
      "d": 380.20833333334303,
      "v": 74
    },
    {
      "midi": 62,
      "hit": false,
      "t": 204072.9166666668,
      "d": 708.3333333333139,
      "v": 122
    },
    {
      "midi": 64,
      "hit": false,
      "t": 204375.00000000032,
      "d": 307.29166666668607,
      "v": 91
    },
    {
      "midi": 48,
      "hit": false,
      "t": 204385.41666666677,
      "d": 640.6250000000291,
      "v": 122
    },
    {
      "midi": 64,
      "hit": false,
      "t": 204687.50000000035,
      "d": 281.25,
      "v": 78
    },
    {
      "midi": 57,
      "hit": false,
      "t": 204697.91666666677,
      "d": 307.29166666668607,
      "v": 122
    },
    {
      "midi": 43,
      "hit": false,
      "t": 205000.00000000035,
      "d": 937.5,
      "v": 76
    },
    {
      "midi": 62,
      "hit": false,
      "t": 205000.00000000035,
      "d": 973.958333333343,
      "v": 58
    },
    {
      "midi": 71,
      "hit": false,
      "t": 205000.00000000035,
      "d": 1046.875,
      "v": 80
    },
    {
      "midi": 59,
      "hit": false,
      "t": 205000.00000000035,
      "d": 1057.291666666657,
      "v": 63
    },
    {
      "midi": 43,
      "hit": false,
      "t": 205010.4166666668,
      "d": 614.583333333343,
      "v": 122
    },
    {
      "midi": 59,
      "hit": false,
      "t": 205010.4166666668,
      "d": 750,
      "v": 122
    },
    {
      "midi": 43,
      "hit": false,
      "t": 205635.4166666668,
      "d": 572.916666666657,
      "v": 122
    },
    {
      "midi": 62,
      "hit": false,
      "t": 205635.4166666668,
      "d": 614.5833333333139,
      "v": 122
    },
    {
      "midi": 67,
      "hit": false,
      "t": 205635.4166666668,
      "d": 614.5833333333139,
      "v": 122
    },
    {
      "midi": 71,
      "hit": false,
      "t": 205635.4166666668,
      "d": 614.5833333333139,
      "v": 122
    },
    {
      "midi": 38,
      "hit": false,
      "t": 205937.50000000035,
      "d": 822.916666666657,
      "v": 85
    },
    {
      "midi": 43,
      "hit": false,
      "t": 206260.41666666677,
      "d": 307.29166666665697,
      "v": 122
    },
    {
      "midi": 62,
      "hit": false,
      "t": 206260.41666666677,
      "d": 307.29166666665697,
      "v": 122
    },
    {
      "midi": 67,
      "hit": false,
      "t": 206260.41666666677,
      "d": 307.29166666665697,
      "v": 122
    },
    {
      "midi": 71,
      "hit": false,
      "t": 206260.41666666677,
      "d": 307.29166666665697,
      "v": 122
    },
    {
      "midi": 71,
      "hit": false,
      "t": 206562.50000000035,
      "d": 484.375,
      "v": 89
    },
    {
      "midi": 62,
      "hit": false,
      "t": 206572.91666666677,
      "d": 614.583333333343,
      "v": 122
    },
    {
      "midi": 67,
      "hit": false,
      "t": 206572.91666666677,
      "d": 718.75,
      "v": 122
    },
    {
      "midi": 71,
      "hit": false,
      "t": 206572.91666666677,
      "d": 750,
      "v": 122
    },
    {
      "midi": 43,
      "hit": false,
      "t": 206572.91666666677,
      "d": 828.125,
      "v": 122
    },
    {
      "midi": 72,
      "hit": false,
      "t": 207197.91666666677,
      "d": 885.416666666657,
      "v": 122
    },
    {
      "midi": 62,
      "hit": false,
      "t": 207197.91666666677,
      "d": 895.8333333333139,
      "v": 122
    },
    {
      "midi": 69,
      "hit": false,
      "t": 207197.91666666677,
      "d": 895.8333333333139,
      "v": 122
    },
    {
      "midi": 67,
      "hit": false,
      "t": 207500.00000000035,
      "d": 1026.041666666657,
      "v": 76
    },
    {
      "midi": 71,
      "hit": false,
      "t": 207500.00000000035,
      "d": 1057.291666666657,
      "v": 78
    },
    {
      "midi": 79,
      "hit": false,
      "t": 207500.00000000035,
      "d": 1057.291666666657,
      "v": 85
    },
    {
      "midi": 43,
      "hit": false,
      "t": 207510.41666666677,
      "d": 614.5833333333139,
      "v": 122
    },
    {
      "midi": 62,
      "hit": false,
      "t": 207656.25000000035,
      "d": 869.791666666657,
      "v": 60
    },
    {
      "midi": 43,
      "hit": false,
      "t": 208135.41666666674,
      "d": 614.583333333343,
      "v": 122
    },
    {
      "midi": 62,
      "hit": false,
      "t": 208135.41666666674,
      "d": 614.583333333343,
      "v": 122
    },
    {
      "midi": 69,
      "hit": false,
      "t": 208135.41666666674,
      "d": 614.583333333343,
      "v": 122
    },
    {
      "midi": 72,
      "hit": false,
      "t": 208135.41666666674,
      "d": 614.583333333343,
      "v": 122
    },
    {
      "midi": 43,
      "hit": false,
      "t": 208760.41666666674,
      "d": 307.29166666665697,
      "v": 122
    },
    {
      "midi": 62,
      "hit": false,
      "t": 208760.41666666674,
      "d": 307.29166666665697,
      "v": 122
    },
    {
      "midi": 69,
      "hit": false,
      "t": 208760.41666666674,
      "d": 406.25,
      "v": 122
    },
    {
      "midi": 72,
      "hit": false,
      "t": 208760.41666666674,
      "d": 406.25,
      "v": 122
    },
    {
      "midi": 83,
      "hit": false,
      "t": 209062.50000000035,
      "d": 541.666666666657,
      "v": 100
    },
    {
      "midi": 71,
      "hit": false,
      "t": 209062.50000000035,
      "d": 666.666666666657,
      "v": 87
    },
    {
      "midi": 43,
      "hit": false,
      "t": 209072.91666666674,
      "d": 463.54166666665697,
      "v": 122
    },
    {
      "midi": 67,
      "hit": false,
      "t": 209072.91666666674,
      "d": 572.916666666657,
      "v": 122
    },
    {
      "midi": 71,
      "hit": false,
      "t": 209072.91666666674,
      "d": 572.916666666657,
      "v": 122
    },
    {
      "midi": 62,
      "hit": false,
      "t": 209072.91666666674,
      "d": 583.3333333333139,
      "v": 122
    },
    {
      "midi": 52,
      "hit": false,
      "t": 209385.41666666674,
      "d": 421.8749999999709,
      "v": 122
    },
    {
      "midi": 79,
      "hit": false,
      "t": 209531.25000000035,
      "d": 140.625,
      "v": 78
    },
    {
      "midi": 50,
      "hit": false,
      "t": 209697.91666666672,
      "d": 406.25,
      "v": 122
    },
    {
      "midi": 62,
      "hit": false,
      "t": 209697.91666666672,
      "d": 859.375,
      "v": 122
    },
    {
      "midi": 67,
      "hit": false,
      "t": 209697.91666666672,
      "d": 869.791666666657,
      "v": 122
    },
    {
      "midi": 71,
      "hit": false,
      "t": 209697.91666666672,
      "d": 869.791666666657,
      "v": 122
    },
    {
      "midi": 43,
      "hit": false,
      "t": 210000.00000000035,
      "d": 937.5,
      "v": 76
    },
    {
      "midi": 62,
      "hit": false,
      "t": 210000.00000000035,
      "d": 973.958333333343,
      "v": 58
    },
    {
      "midi": 71,
      "hit": false,
      "t": 210000.00000000035,
      "d": 1046.875,
      "v": 80
    },
    {
      "midi": 59,
      "hit": false,
      "t": 210000.00000000035,
      "d": 1057.291666666657,
      "v": 63
    },
    {
      "midi": 43,
      "hit": false,
      "t": 210010.41666666672,
      "d": 614.5833333333139,
      "v": 122
    },
    {
      "midi": 43,
      "hit": false,
      "t": 210635.4166666667,
      "d": 614.583333333343,
      "v": 122
    },
    {
      "midi": 62,
      "hit": false,
      "t": 210635.4166666667,
      "d": 614.583333333343,
      "v": 122
    },
    {
      "midi": 67,
      "hit": false,
      "t": 210635.4166666667,
      "d": 614.583333333343,
      "v": 122
    },
    {
      "midi": 71,
      "hit": false,
      "t": 210635.4166666667,
      "d": 614.583333333343,
      "v": 122
    },
    {
      "midi": 38,
      "hit": false,
      "t": 210937.50000000035,
      "d": 822.916666666657,
      "v": 85
    },
    {
      "midi": 43,
      "hit": false,
      "t": 211260.4166666667,
      "d": 307.29166666665697,
      "v": 122
    },
    {
      "midi": 62,
      "hit": false,
      "t": 211260.4166666667,
      "d": 307.29166666665697,
      "v": 122
    },
    {
      "midi": 67,
      "hit": false,
      "t": 211260.4166666667,
      "d": 307.29166666665697,
      "v": 122
    },
    {
      "midi": 71,
      "hit": false,
      "t": 211260.4166666667,
      "d": 307.29166666665697,
      "v": 122
    },
    {
      "midi": 71,
      "hit": false,
      "t": 211562.50000000035,
      "d": 484.375,
      "v": 89
    },
    {
      "midi": 43,
      "hit": false,
      "t": 211572.9166666667,
      "d": 307.29166666665697,
      "v": 122
    },
    {
      "midi": 62,
      "hit": false,
      "t": 211572.9166666667,
      "d": 557.291666666657,
      "v": 122
    },
    {
      "midi": 67,
      "hit": false,
      "t": 211572.9166666667,
      "d": 734.375,
      "v": 122
    },
    {
      "midi": 71,
      "hit": false,
      "t": 211572.9166666667,
      "d": 750,
      "v": 122
    },
    {
      "midi": 43,
      "hit": false,
      "t": 211885.4166666667,
      "d": 572.916666666657,
      "v": 122
    },
    {
      "midi": 69,
      "hit": false,
      "t": 212197.9166666667,
      "d": 885.416666666657,
      "v": 122
    },
    {
      "midi": 72,
      "hit": false,
      "t": 212197.9166666667,
      "d": 885.416666666657,
      "v": 122
    },
    {
      "midi": 62,
      "hit": false,
      "t": 212197.9166666667,
      "d": 895.8333333333139,
      "v": 122
    },
    {
      "midi": 67,
      "hit": false,
      "t": 212500.00000000035,
      "d": 1026.041666666657,
      "v": 76
    },
    {
      "midi": 71,
      "hit": false,
      "t": 212500.00000000035,
      "d": 1057.291666666657,
      "v": 78
    },
    {
      "midi": 79,
      "hit": false,
      "t": 212500.00000000035,
      "d": 1057.291666666657,
      "v": 85
    },
    {
      "midi": 43,
      "hit": false,
      "t": 212510.4166666667,
      "d": 614.5833333333139,
      "v": 122
    },
    {
      "midi": 62,
      "hit": false,
      "t": 212656.25000000035,
      "d": 869.791666666657,
      "v": 60
    },
    {
      "midi": 43,
      "hit": false,
      "t": 213135.41666666666,
      "d": 614.583333333343,
      "v": 122
    },
    {
      "midi": 62,
      "hit": false,
      "t": 213135.41666666666,
      "d": 614.583333333343,
      "v": 122
    },
    {
      "midi": 69,
      "hit": false,
      "t": 213135.41666666666,
      "d": 614.583333333343,
      "v": 122
    },
    {
      "midi": 72,
      "hit": false,
      "t": 213135.41666666666,
      "d": 614.583333333343,
      "v": 122
    },
    {
      "midi": 43,
      "hit": false,
      "t": 213760.41666666666,
      "d": 307.29166666665697,
      "v": 122
    },
    {
      "midi": 69,
      "hit": false,
      "t": 213760.41666666666,
      "d": 406.25,
      "v": 122
    },
    {
      "midi": 62,
      "hit": false,
      "t": 213760.41666666666,
      "d": 437.5,
      "v": 122
    },
    {
      "midi": 72,
      "hit": false,
      "t": 213760.41666666666,
      "d": 437.5,
      "v": 122
    },
    {
      "midi": 83,
      "hit": false,
      "t": 214062.50000000035,
      "d": 541.666666666657,
      "v": 100
    },
    {
      "midi": 71,
      "hit": false,
      "t": 214062.50000000035,
      "d": 666.666666666657,
      "v": 87
    },
    {
      "midi": 67,
      "hit": false,
      "t": 214072.91666666666,
      "d": 307.29166666665697,
      "v": 122
    },
    {
      "midi": 43,
      "hit": false,
      "t": 214072.91666666666,
      "d": 437.5,
      "v": 122
    },
    {
      "midi": 52,
      "hit": false,
      "t": 214385.41666666666,
      "d": 406.25,
      "v": 122
    },
    {
      "midi": 67,
      "hit": false,
      "t": 214385.41666666666,
      "d": 421.875,
      "v": 122
    },
    {
      "midi": 79,
      "hit": false,
      "t": 214531.25000000035,
      "d": 140.625,
      "v": 78
    },
    {
      "midi": 50,
      "hit": false,
      "t": 214697.91666666666,
      "d": 463.54166666665697,
      "v": 122
    },
    {
      "midi": 69,
      "hit": false,
      "t": 214697.91666666666,
      "d": 1020.8333333333139,
      "v": 122
    },
    {
      "midi": 57,
      "hit": false,
      "t": 215000.00000000035,
      "d": 994.7916666666861,
      "v": 62
    },
    {
      "midi": 59,
      "hit": false,
      "t": 215000.00000000035,
      "d": 1005.208333333343,
      "v": 82
    },
    {
      "midi": 55,
      "hit": false,
      "t": 215005.2083333337,
      "d": 1000,
      "v": 64
    },
    {
      "midi": 62,
      "hit": false,
      "t": 215005.2083333337,
      "d": 1046.875,
      "v": 80
    },
    {
      "midi": 31,
      "hit": false,
      "t": 215005.2083333337,
      "d": 1244.791666666657,
      "v": 82
    },
    {
      "midi": 43,
      "hit": false,
      "t": 215010.41666666666,
      "d": 614.5833333333139,
      "v": 122
    },
    {
      "midi": 38,
      "hit": false,
      "t": 215473.9583333337,
      "d": 776.041666666657,
      "v": 78
    },
    {
      "midi": 43,
      "hit": false,
      "t": 215635.41666666663,
      "d": 614.583333333343,
      "v": 122
    },
    {
      "midi": 62,
      "hit": false,
      "t": 215635.41666666663,
      "d": 614.583333333343,
      "v": 122
    },
    {
      "midi": 67,
      "hit": false,
      "t": 215635.41666666663,
      "d": 614.583333333343,
      "v": 122
    },
    {
      "midi": 71,
      "hit": false,
      "t": 215635.41666666663,
      "d": 614.583333333343,
      "v": 122
    },
    {
      "midi": 43,
      "hit": false,
      "t": 215947.91666666704,
      "d": 302.08333333331393,
      "v": 85
    },
    {
      "midi": 43,
      "hit": false,
      "t": 216260.41666666663,
      "d": 307.29166666665697,
      "v": 122
    },
    {
      "midi": 62,
      "hit": false,
      "t": 216260.41666666663,
      "d": 307.29166666665697,
      "v": 122
    },
    {
      "midi": 67,
      "hit": false,
      "t": 216260.41666666663,
      "d": 307.29166666665697,
      "v": 122
    },
    {
      "midi": 71,
      "hit": false,
      "t": 216260.41666666663,
      "d": 307.29166666665697,
      "v": 122
    },
    {
      "midi": 59,
      "hit": false,
      "t": 216260.416666667,
      "d": 249.9999999999709,
      "v": 61
    },
    {
      "midi": 62,
      "hit": false,
      "t": 216260.416666667,
      "d": 249.9999999999709,
      "v": 62
    },
    {
      "midi": 38,
      "hit": false,
      "t": 216270.83333333366,
      "d": 239.58333333331393,
      "v": 70
    },
    {
      "midi": 71,
      "hit": false,
      "t": 216270.83333333366,
      "d": 239.58333333331393,
      "v": 82
    },
    {
      "midi": 43,
      "hit": false,
      "t": 216281.25000000032,
      "d": 229.16666666665697,
      "v": 53
    },
    {
      "midi": 62,
      "hit": false,
      "t": 216572.91666666663,
      "d": 614.583333333343,
      "v": 122
    },
    {
      "midi": 67,
      "hit": false,
      "t": 216572.91666666663,
      "d": 614.583333333343,
      "v": 122
    },
    {
      "midi": 71,
      "hit": false,
      "t": 216572.91666666663,
      "d": 614.583333333343,
      "v": 122
    },
    {
      "midi": 43,
      "hit": false,
      "t": 216572.91666666663,
      "d": 859.375,
      "v": 122
    },
    {
      "midi": 57,
      "hit": false,
      "t": 216572.91666666698,
      "d": 916.666666666657,
      "v": 61
    },
    {
      "midi": 60,
      "hit": false,
      "t": 216572.91666666698,
      "d": 916.666666666657,
      "v": 62
    },
    {
      "midi": 38,
      "hit": false,
      "t": 216583.33333333363,
      "d": 875,
      "v": 70
    },
    {
      "midi": 65,
      "hit": false,
      "t": 216583.33333333363,
      "d": 906.25,
      "v": 82
    },
    {
      "midi": 43,
      "hit": false,
      "t": 216593.7500000003,
      "d": 807.2916666666861,
      "v": 53
    },
    {
      "midi": 62,
      "hit": false,
      "t": 217197.91666666663,
      "d": 692.708333333343,
      "v": 122
    },
    {
      "midi": 72,
      "hit": false,
      "t": 217197.91666666663,
      "d": 692.708333333343,
      "v": 122
    },
    {
      "midi": 69,
      "hit": false,
      "t": 217197.91666666663,
      "d": 708.333333333343,
      "v": 122
    },
    {
      "midi": 43,
      "hit": false,
      "t": 217500.0000000003,
      "d": 2500,
      "v": 66
    },
    {
      "midi": 53,
      "hit": false,
      "t": 217500.0000000003,
      "d": 2500,
      "v": 80
    },
    {
      "midi": 60,
      "hit": false,
      "t": 217500.0000000003,
      "d": 2500,
      "v": 58
    },
    {
      "midi": 72,
      "hit": false,
      "t": 217500.0000000003,
      "d": 2500,
      "v": 86
    },
    {
      "midi": 43,
      "hit": false,
      "t": 217510.41666666663,
      "d": 557.2916666666861,
      "v": 122
    },
    {
      "midi": 69,
      "hit": false,
      "t": 217656.2500000003,
      "d": 2343.75,
      "v": 64
    },
    {
      "midi": 62,
      "hit": false,
      "t": 217812.5000000003,
      "d": 2187.5,
      "v": 78
    },
    {
      "midi": 67,
      "hit": false,
      "t": 217822.91666666663,
      "d": 421.8750000000291,
      "v": 122
    },
    {
      "midi": 43,
      "hit": false,
      "t": 218135.41666666666,
      "d": 614.583333333343,
      "v": 122
    },
    {
      "midi": 71,
      "hit": false,
      "t": 218135.41666666666,
      "d": 750,
      "v": 122
    },
    {
      "midi": 43,
      "hit": false,
      "t": 218760.41666666666,
      "d": 307.29166666665697,
      "v": 122
    },
    {
      "midi": 69,
      "hit": false,
      "t": 218760.41666666666,
      "d": 380.20833333334303,
      "v": 122
    },
    {
      "midi": 67,
      "hit": false,
      "t": 219072.91666666666,
      "d": 614.583333333343,
      "v": 122
    },
    {
      "midi": 43,
      "hit": false,
      "t": 219072.91666666666,
      "d": 708.333333333343,
      "v": 122
    },
    {
      "midi": 38,
      "hit": false,
      "t": 219697.91666666666,
      "d": 406.25,
      "v": 122
    },
    {
      "midi": 67,
      "hit": false,
      "t": 219697.91666666666,
      "d": 843.75,
      "v": 122
    },
    {
      "midi": 43,
      "hit": false,
      "t": 220010.41666666666,
      "d": 614.583333333343,
      "v": 122
    },
    {
      "midi": 62,
      "hit": false,
      "t": 220010.41666666695,
      "d": 927.0833333333139,
      "v": 62
    },
    {
      "midi": 59,
      "hit": false,
      "t": 220010.41666666695,
      "d": 1000,
      "v": 61
    },
    {
      "midi": 38,
      "hit": false,
      "t": 220020.8333333336,
      "d": 572.916666666657,
      "v": 70
    },
    {
      "midi": 71,
      "hit": false,
      "t": 220020.8333333336,
      "d": 953.125,
      "v": 82
    },
    {
      "midi": 43,
      "hit": false,
      "t": 220031.25000000026,
      "d": 505.20833333334303,
      "v": 53
    },
    {
      "midi": 43,
      "hit": false,
      "t": 220635.41666666666,
      "d": 614.583333333343,
      "v": 122
    },
    {
      "midi": 62,
      "hit": false,
      "t": 220635.41666666666,
      "d": 614.583333333343,
      "v": 122
    },
    {
      "midi": 67,
      "hit": false,
      "t": 220635.41666666666,
      "d": 614.583333333343,
      "v": 122
    },
    {
      "midi": 71,
      "hit": false,
      "t": 220635.41666666666,
      "d": 614.583333333343,
      "v": 122
    },
    {
      "midi": 43,
      "hit": false,
      "t": 221260.41666666666,
      "d": 307.29166666665697,
      "v": 122
    },
    {
      "midi": 62,
      "hit": false,
      "t": 221260.41666666666,
      "d": 307.29166666665697,
      "v": 122
    },
    {
      "midi": 67,
      "hit": false,
      "t": 221260.41666666666,
      "d": 307.29166666665697,
      "v": 122
    },
    {
      "midi": 71,
      "hit": false,
      "t": 221260.41666666666,
      "d": 307.29166666665697,
      "v": 122
    },
    {
      "midi": 59,
      "hit": false,
      "t": 221260.41666666695,
      "d": 249.9999999999709,
      "v": 61
    },
    {
      "midi": 62,
      "hit": false,
      "t": 221260.41666666695,
      "d": 249.9999999999709,
      "v": 62
    },
    {
      "midi": 38,
      "hit": false,
      "t": 221270.8333333336,
      "d": 239.58333333331393,
      "v": 70
    },
    {
      "midi": 71,
      "hit": false,
      "t": 221270.8333333336,
      "d": 239.58333333331393,
      "v": 82
    },
    {
      "midi": 43,
      "hit": false,
      "t": 221281.25000000026,
      "d": 229.16666666665697,
      "v": 53
    },
    {
      "midi": 62,
      "hit": false,
      "t": 221572.91666666666,
      "d": 614.583333333343,
      "v": 122
    },
    {
      "midi": 67,
      "hit": false,
      "t": 221572.91666666666,
      "d": 614.583333333343,
      "v": 122
    },
    {
      "midi": 71,
      "hit": false,
      "t": 221572.91666666666,
      "d": 614.583333333343,
      "v": 122
    },
    {
      "midi": 43,
      "hit": false,
      "t": 221572.91666666666,
      "d": 843.75,
      "v": 122
    },
    {
      "midi": 57,
      "hit": false,
      "t": 221572.91666666692,
      "d": 916.666666666657,
      "v": 61
    },
    {
      "midi": 60,
      "hit": false,
      "t": 221572.91666666692,
      "d": 916.666666666657,
      "v": 62
    },
    {
      "midi": 38,
      "hit": false,
      "t": 221583.33333333358,
      "d": 875,
      "v": 70
    },
    {
      "midi": 65,
      "hit": false,
      "t": 221583.33333333358,
      "d": 906.25,
      "v": 82
    },
    {
      "midi": 43,
      "hit": false,
      "t": 221593.75000000023,
      "d": 807.2916666666861,
      "v": 53
    },
    {
      "midi": 62,
      "hit": false,
      "t": 222197.91666666666,
      "d": 885.416666666657,
      "v": 122
    },
    {
      "midi": 69,
      "hit": false,
      "t": 222197.91666666666,
      "d": 885.416666666657,
      "v": 122
    },
    {
      "midi": 72,
      "hit": false,
      "t": 222197.91666666666,
      "d": 895.8333333333139,
      "v": 122
    },
    {
      "midi": 43,
      "hit": false,
      "t": 222510.41666666666,
      "d": 614.5833333333139,
      "v": 122
    },
    {
      "midi": 60,
      "hit": false,
      "t": 222510.4166666669,
      "d": 927.0833333333139,
      "v": 62
    },
    {
      "midi": 57,
      "hit": false,
      "t": 222510.4166666669,
      "d": 1000,
      "v": 61
    },
    {
      "midi": 38,
      "hit": false,
      "t": 222520.83333333355,
      "d": 572.916666666657,
      "v": 70
    },
    {
      "midi": 65,
      "hit": false,
      "t": 222520.83333333355,
      "d": 953.125,
      "v": 82
    },
    {
      "midi": 43,
      "hit": false,
      "t": 222531.2500000002,
      "d": 505.20833333334303,
      "v": 53
    },
    {
      "midi": 43,
      "hit": false,
      "t": 223135.41666666663,
      "d": 614.583333333343,
      "v": 122
    },
    {
      "midi": 62,
      "hit": false,
      "t": 223135.41666666663,
      "d": 614.583333333343,
      "v": 122
    },
    {
      "midi": 69,
      "hit": false,
      "t": 223135.41666666663,
      "d": 614.583333333343,
      "v": 122
    },
    {
      "midi": 72,
      "hit": false,
      "t": 223135.41666666663,
      "d": 614.583333333343,
      "v": 122
    },
    {
      "midi": 43,
      "hit": false,
      "t": 223760.41666666663,
      "d": 307.29166666665697,
      "v": 122
    },
    {
      "midi": 62,
      "hit": false,
      "t": 223760.41666666663,
      "d": 307.29166666665697,
      "v": 122
    },
    {
      "midi": 69,
      "hit": false,
      "t": 223760.41666666663,
      "d": 307.29166666665697,
      "v": 122
    },
    {
      "midi": 72,
      "hit": false,
      "t": 223760.41666666663,
      "d": 307.29166666665697,
      "v": 122
    },
    {
      "midi": 65,
      "hit": false,
      "t": 224062.50000000023,
      "d": 494.79166666665697,
      "v": 102
    },
    {
      "midi": 43,
      "hit": false,
      "t": 224072.91666666663,
      "d": 395.83333333334303,
      "v": 122
    },
    {
      "midi": 62,
      "hit": false,
      "t": 224072.91666666663,
      "d": 557.2916666666861,
      "v": 122
    },
    {
      "midi": 69,
      "hit": false,
      "t": 224072.91666666663,
      "d": 708.3333333333721,
      "v": 122
    },
    {
      "midi": 72,
      "hit": false,
      "t": 224072.91666666663,
      "d": 708.3333333333721,
      "v": 122
    },
    {
      "midi": 38,
      "hit": false,
      "t": 224385.41666666663,
      "d": 395.83333333337214,
      "v": 122
    },
    {
      "midi": 62,
      "hit": false,
      "t": 224531.25000000023,
      "d": 213.54166666665697,
      "v": 82
    },
    {
      "midi": 40,
      "hit": false,
      "t": 224697.91666666666,
      "d": 307.29166666668607,
      "v": 122
    },
    {
      "midi": 62,
      "hit": false,
      "t": 224697.91666666666,
      "d": 307.29166666668607,
      "v": 122
    },
    {
      "midi": 67,
      "hit": false,
      "t": 224697.91666666666,
      "d": 307.29166666668607,
      "v": 122
    },
    {
      "midi": 71,
      "hit": false,
      "t": 224697.91666666666,
      "d": 307.29166666668607,
      "v": 122
    },
    {
      "midi": 69,
      "hit": false,
      "t": 225010.4166666667,
      "d": 406.25,
      "v": 122
    },
    {
      "midi": 43,
      "hit": false,
      "t": 225010.4166666667,
      "d": 572.916666666657,
      "v": 122
    },
    {
      "midi": 62,
      "hit": false,
      "t": 225010.4166666669,
      "d": 927.0833333333139,
      "v": 62
    },
    {
      "midi": 59,
      "hit": false,
      "t": 225010.4166666669,
      "d": 1000,
      "v": 61
    },
    {
      "midi": 38,
      "hit": false,
      "t": 225020.83333333355,
      "d": 572.916666666657,
      "v": 70
    },
    {
      "midi": 71,
      "hit": false,
      "t": 225020.83333333355,
      "d": 953.125,
      "v": 82
    },
    {
      "midi": 43,
      "hit": false,
      "t": 225031.2500000002,
      "d": 505.20833333334303,
      "v": 53
    },
    {
      "midi": 71,
      "hit": false,
      "t": 225322.9166666667,
      "d": 307.29166666665697,
      "v": 122
    },
    {
      "midi": 71,
      "hit": false,
      "t": 225635.4166666667,
      "d": 447.91666666668607,
      "v": 122
    },
    {
      "midi": 43,
      "hit": false,
      "t": 225635.4166666667,
      "d": 557.2916666666861,
      "v": 122
    },
    {
      "midi": 62,
      "hit": false,
      "t": 225947.9166666667,
      "d": 708.3333333333721,
      "v": 122
    },
    {
      "midi": 67,
      "hit": false,
      "t": 225947.9166666667,
      "d": 708.3333333333721,
      "v": 122
    },
    {
      "midi": 69,
      "hit": false,
      "t": 225984.37500000003,
      "d": 666.6666666666861,
      "v": 122
    },
    {
      "midi": 43,
      "hit": false,
      "t": 226260.41666666672,
      "d": 307.29166666665697,
      "v": 122
    },
    {
      "midi": 59,
      "hit": false,
      "t": 226260.4166666669,
      "d": 249.9999999999709,
      "v": 61
    },
    {
      "midi": 62,
      "hit": false,
      "t": 226260.4166666669,
      "d": 249.9999999999709,
      "v": 62
    },
    {
      "midi": 38,
      "hit": false,
      "t": 226270.83333333355,
      "d": 239.58333333331393,
      "v": 70
    },
    {
      "midi": 71,
      "hit": false,
      "t": 226270.83333333355,
      "d": 239.58333333331393,
      "v": 82
    },
    {
      "midi": 43,
      "hit": false,
      "t": 226281.2500000002,
      "d": 229.16666666665697,
      "v": 53
    },
    {
      "midi": 71,
      "hit": false,
      "t": 226572.91666666672,
      "d": 614.583333333343,
      "v": 122
    },
    {
      "midi": 43,
      "hit": false,
      "t": 226572.91666666672,
      "d": 869.791666666657,
      "v": 122
    },
    {
      "midi": 57,
      "hit": false,
      "t": 226572.91666666686,
      "d": 916.666666666657,
      "v": 61
    },
    {
      "midi": 60,
      "hit": false,
      "t": 226572.91666666686,
      "d": 916.666666666657,
      "v": 62
    },
    {
      "midi": 38,
      "hit": false,
      "t": 226583.33333333352,
      "d": 875,
      "v": 70
    },
    {
      "midi": 65,
      "hit": false,
      "t": 226583.33333333352,
      "d": 906.25,
      "v": 82
    },
    {
      "midi": 43,
      "hit": false,
      "t": 226593.75000000017,
      "d": 807.2916666666861,
      "v": 53
    },
    {
      "midi": 69,
      "hit": false,
      "t": 227197.91666666672,
      "d": 307.29166666665697,
      "v": 122
    },
    {
      "midi": 62,
      "hit": false,
      "t": 227197.91666666672,
      "d": 406.25,
      "v": 122
    },
    {
      "midi": 72,
      "hit": false,
      "t": 227197.91666666672,
      "d": 406.25,
      "v": 122
    },
    {
      "midi": 43,
      "hit": false,
      "t": 227500.00000000017,
      "d": 1942.7083333333721,
      "v": 74
    },
    {
      "midi": 69,
      "hit": false,
      "t": 227510.41666666672,
      "d": 421.875,
      "v": 122
    },
    {
      "midi": 43,
      "hit": false,
      "t": 227510.41666666672,
      "d": 541.666666666657,
      "v": 122
    },
    {
      "midi": 57,
      "hit": false,
      "t": 227536.45833333352,
      "d": 2109.375000000029,
      "v": 76
    },
    {
      "midi": 60,
      "hit": false,
      "t": 227536.45833333352,
      "d": 2109.375000000029,
      "v": 68
    },
    {
      "midi": 62,
      "hit": false,
      "t": 227552.08333333352,
      "d": 2093.750000000029,
      "v": 80
    },
    {
      "midi": 65,
      "hit": false,
      "t": 227572.91666666686,
      "d": 2072.916666666686,
      "v": 78
    },
    {
      "midi": 71,
      "hit": false,
      "t": 227822.91666666672,
      "d": 307.29166666665697,
      "v": 122
    },
    {
      "midi": 71,
      "hit": false,
      "t": 228135.41666666672,
      "d": 406.25,
      "v": 122
    },
    {
      "midi": 43,
      "hit": false,
      "t": 228135.41666666672,
      "d": 541.666666666657,
      "v": 122
    },
    {
      "midi": 62,
      "hit": false,
      "t": 228447.91666666672,
      "d": 718.75,
      "v": 122
    },
    {
      "midi": 69,
      "hit": false,
      "t": 228447.91666666672,
      "d": 718.75,
      "v": 122
    },
    {
      "midi": 43,
      "hit": false,
      "t": 228760.41666666672,
      "d": 307.29166666665697,
      "v": 122
    },
    {
      "midi": 43,
      "hit": false,
      "t": 229072.91666666672,
      "d": 395.83333333334303,
      "v": 122
    },
    {
      "midi": 67,
      "hit": false,
      "t": 229072.91666666672,
      "d": 572.9166666666861,
      "v": 122
    },
    {
      "midi": 38,
      "hit": false,
      "t": 229385.41666666672,
      "d": 682.2916666666861,
      "v": 122
    },
    {
      "midi": 60,
      "hit": false,
      "t": 229687.5000000002,
      "d": 156.25,
      "v": 64
    },
    {
      "midi": 67,
      "hit": false,
      "t": 229697.91666666674,
      "d": 307.29166666665697,
      "v": 122
    },
    {
      "midi": 38,
      "hit": false,
      "t": 229843.7500000002,
      "d": 104.16666666665697,
      "v": 44
    },
    {
      "midi": 67,
      "hit": false,
      "t": 230010.41666666674,
      "d": 354.16666666665697,
      "v": 122
    },
    {
      "midi": 62,
      "hit": false,
      "t": 230010.41666666674,
      "d": 380.20833333331393,
      "v": 122
    },
    {
      "midi": 43,
      "hit": false,
      "t": 230010.41666666674,
      "d": 531.2499999999709,
      "v": 122
    },
    {
      "midi": 62,
      "hit": false,
      "t": 230010.41666666686,
      "d": 927.0833333333139,
      "v": 62
    },
    {
      "midi": 59,
      "hit": false,
      "t": 230010.41666666686,
      "d": 1000,
      "v": 61
    },
    {
      "midi": 38,
      "hit": false,
      "t": 230020.83333333352,
      "d": 572.916666666657,
      "v": 70
    },
    {
      "midi": 71,
      "hit": false,
      "t": 230020.83333333352,
      "d": 953.125,
      "v": 82
    },
    {
      "midi": 43,
      "hit": false,
      "t": 230031.25000000017,
      "d": 505.20833333334303,
      "v": 53
    },
    {
      "midi": 69,
      "hit": false,
      "t": 230052.0833333334,
      "d": 265.625,
      "v": 122
    },
    {
      "midi": 71,
      "hit": false,
      "t": 230322.91666666674,
      "d": 307.29166666662786,
      "v": 122
    },
    {
      "midi": 71,
      "hit": false,
      "t": 230635.41666666672,
      "d": 307.29166666665697,
      "v": 122
    },
    {
      "midi": 43,
      "hit": false,
      "t": 230635.41666666672,
      "d": 531.25,
      "v": 122
    },
    {
      "midi": 71,
      "hit": false,
      "t": 230947.91666666672,
      "d": 307.29166666665697,
      "v": 122
    },
    {
      "midi": 43,
      "hit": false,
      "t": 231260.41666666672,
      "d": 307.29166666665697,
      "v": 122
    },
    {
      "midi": 67,
      "hit": false,
      "t": 231260.41666666672,
      "d": 307.29166666665697,
      "v": 122
    },
    {
      "midi": 71,
      "hit": false,
      "t": 231260.41666666672,
      "d": 406.25,
      "v": 122
    },
    {
      "midi": 74,
      "hit": false,
      "t": 231260.41666666672,
      "d": 406.25,
      "v": 122
    },
    {
      "midi": 59,
      "hit": false,
      "t": 231260.41666666686,
      "d": 249.9999999999709,
      "v": 61
    },
    {
      "midi": 62,
      "hit": false,
      "t": 231260.41666666686,
      "d": 249.9999999999709,
      "v": 62
    },
    {
      "midi": 38,
      "hit": false,
      "t": 231270.83333333352,
      "d": 239.58333333331393,
      "v": 70
    },
    {
      "midi": 71,
      "hit": false,
      "t": 231270.83333333352,
      "d": 239.58333333331393,
      "v": 82
    },
    {
      "midi": 43,
      "hit": false,
      "t": 231281.25000000017,
      "d": 229.16666666665697,
      "v": 53
    },
    {
      "midi": 67,
      "hit": false,
      "t": 231572.91666666672,
      "d": 307.29166666665697,
      "v": 122
    },
    {
      "midi": 43,
      "hit": false,
      "t": 231572.91666666672,
      "d": 437.5,
      "v": 122
    },
    {
      "midi": 57,
      "hit": false,
      "t": 231572.91666666683,
      "d": 916.666666666657,
      "v": 61
    },
    {
      "midi": 60,
      "hit": false,
      "t": 231572.91666666683,
      "d": 916.666666666657,
      "v": 62
    },
    {
      "midi": 38,
      "hit": false,
      "t": 231583.3333333335,
      "d": 875,
      "v": 70
    },
    {
      "midi": 65,
      "hit": false,
      "t": 231583.3333333335,
      "d": 906.25,
      "v": 82
    },
    {
      "midi": 43,
      "hit": false,
      "t": 231593.75000000015,
      "d": 807.2916666666861,
      "v": 53
    },
    {
      "midi": 67,
      "hit": false,
      "t": 231885.41666666672,
      "d": 307.29166666665697,
      "v": 122
    },
    {
      "midi": 45,
      "hit": false,
      "t": 231885.41666666672,
      "d": 406.25,
      "v": 122
    },
    {
      "midi": 47,
      "hit": false,
      "t": 232197.91666666672,
      "d": 307.29166666665697,
      "v": 122
    },
    {
      "midi": 67,
      "hit": false,
      "t": 232197.91666666672,
      "d": 406.25,
      "v": 122
    },
    {
      "midi": 60,
      "hit": false,
      "t": 232510.41666666672,
      "d": 307.29166666665697,
      "v": 122
    },
    {
      "midi": 64,
      "hit": false,
      "t": 232510.41666666672,
      "d": 307.29166666665697,
      "v": 122
    },
    {
      "midi": 48,
      "hit": false,
      "t": 232510.41666666672,
      "d": 557.291666666657,
      "v": 122
    },
    {
      "midi": 60,
      "hit": false,
      "t": 232510.4166666668,
      "d": 927.0833333333139,
      "v": 62
    },
    {
      "midi": 57,
      "hit": false,
      "t": 232510.4166666668,
      "d": 1000,
      "v": 61
    },
    {
      "midi": 38,
      "hit": false,
      "t": 232520.83333333346,
      "d": 572.916666666657,
      "v": 70
    },
    {
      "midi": 65,
      "hit": false,
      "t": 232520.83333333346,
      "d": 953.125,
      "v": 82
    },
    {
      "midi": 43,
      "hit": false,
      "t": 232531.25000000012,
      "d": 505.20833333334303,
      "v": 53
    },
    {
      "midi": 60,
      "hit": false,
      "t": 232822.91666666672,
      "d": 307.29166666665697,
      "v": 122
    },
    {
      "midi": 65,
      "hit": false,
      "t": 232822.91666666672,
      "d": 307.29166666665697,
      "v": 122
    },
    {
      "midi": 60,
      "hit": false,
      "t": 233135.41666666672,
      "d": 307.29166666665697,
      "v": 122
    },
    {
      "midi": 64,
      "hit": false,
      "t": 233135.41666666672,
      "d": 307.29166666665697,
      "v": 122
    },
    {
      "midi": 48,
      "hit": false,
      "t": 233135.41666666672,
      "d": 557.291666666657,
      "v": 122
    },
    {
      "midi": 60,
      "hit": false,
      "t": 233447.91666666672,
      "d": 572.916666666657,
      "v": 122
    },
    {
      "midi": 65,
      "hit": false,
      "t": 233447.91666666672,
      "d": 708.333333333343,
      "v": 122
    },
    {
      "midi": 48,
      "hit": false,
      "t": 233760.41666666672,
      "d": 406.25,
      "v": 122
    },
    {
      "midi": 65,
      "hit": false,
      "t": 234062.50000000015,
      "d": 494.79166666665697,
      "v": 102
    },
    {
      "midi": 60,
      "hit": false,
      "t": 234072.91666666672,
      "d": 307.29166666665697,
      "v": 122
    },
    {
      "midi": 64,
      "hit": false,
      "t": 234072.91666666672,
      "d": 307.29166666665697,
      "v": 122
    },
    {
      "midi": 67,
      "hit": false,
      "t": 234072.91666666672,
      "d": 307.29166666665697,
      "v": 122
    },
    {
      "midi": 43,
      "hit": false,
      "t": 234072.91666666672,
      "d": 682.291666666657,
      "v": 122
    },
    {
      "midi": 60,
      "hit": false,
      "t": 234385.41666666672,
      "d": 380.20833333331393,
      "v": 122
    },
    {
      "midi": 64,
      "hit": false,
      "t": 234385.41666666672,
      "d": 395.83333333331393,
      "v": 122
    },
    {
      "midi": 67,
      "hit": false,
      "t": 234385.41666666672,
      "d": 406.2499999999709,
      "v": 122
    },
    {
      "midi": 62,
      "hit": false,
      "t": 234531.25000000015,
      "d": 213.54166666665697,
      "v": 82
    },
    {
      "midi": 40,
      "hit": false,
      "t": 234697.91666666672,
      "d": 406.2499999999709,
      "v": 122
    },
    {
      "midi": 69,
      "hit": false,
      "t": 234697.91666666672,
      "d": 692.7083333333139,
      "v": 122
    },
    {
      "midi": 43,
      "hit": false,
      "t": 235010.4166666667,
      "d": 557.2916666666861,
      "v": 122
    },
    {
      "midi": 62,
      "hit": false,
      "t": 235010.4166666668,
      "d": 927.0833333333139,
      "v": 87
    },
    {
      "midi": 59,
      "hit": false,
      "t": 235010.4166666668,
      "d": 1000,
      "v": 86
    },
    {
      "midi": 38,
      "hit": false,
      "t": 235020.83333333346,
      "d": 572.916666666657,
      "v": 95
    },
    {
      "midi": 71,
      "hit": false,
      "t": 235020.83333333346,
      "d": 953.125,
      "v": 107
    },
    {
      "midi": 43,
      "hit": false,
      "t": 235031.25000000012,
      "d": 505.20833333334303,
      "v": 78
    },
    {
      "midi": 71,
      "hit": false,
      "t": 235322.9166666667,
      "d": 307.29166666668607,
      "v": 122
    },
    {
      "midi": 43,
      "hit": false,
      "t": 235635.41666666672,
      "d": 614.583333333343,
      "v": 122
    },
    {
      "midi": 62,
      "hit": false,
      "t": 235635.41666666672,
      "d": 614.583333333343,
      "v": 122
    },
    {
      "midi": 67,
      "hit": false,
      "t": 235635.41666666672,
      "d": 614.583333333343,
      "v": 122
    },
    {
      "midi": 71,
      "hit": false,
      "t": 235635.41666666672,
      "d": 614.583333333343,
      "v": 122
    },
    {
      "midi": 43,
      "hit": false,
      "t": 236260.41666666672,
      "d": 307.29166666665697,
      "v": 122
    },
    {
      "midi": 62,
      "hit": false,
      "t": 236260.41666666672,
      "d": 307.29166666665697,
      "v": 122
    },
    {
      "midi": 67,
      "hit": false,
      "t": 236260.41666666672,
      "d": 307.29166666665697,
      "v": 122
    },
    {
      "midi": 71,
      "hit": false,
      "t": 236260.41666666672,
      "d": 307.29166666665697,
      "v": 122
    },
    {
      "midi": 59,
      "hit": false,
      "t": 236260.4166666668,
      "d": 249.9999999999709,
      "v": 86
    },
    {
      "midi": 62,
      "hit": false,
      "t": 236260.4166666668,
      "d": 249.9999999999709,
      "v": 87
    },
    {
      "midi": 38,
      "hit": false,
      "t": 236270.83333333346,
      "d": 239.58333333331393,
      "v": 95
    },
    {
      "midi": 71,
      "hit": false,
      "t": 236270.83333333346,
      "d": 239.58333333331393,
      "v": 107
    },
    {
      "midi": 43,
      "hit": false,
      "t": 236281.25000000012,
      "d": 229.16666666665697,
      "v": 78
    },
    {
      "midi": 62,
      "hit": false,
      "t": 236572.91666666672,
      "d": 614.583333333343,
      "v": 122
    },
    {
      "midi": 67,
      "hit": false,
      "t": 236572.91666666672,
      "d": 614.583333333343,
      "v": 122
    },
    {
      "midi": 71,
      "hit": false,
      "t": 236572.91666666672,
      "d": 614.583333333343,
      "v": 122
    },
    {
      "midi": 43,
      "hit": false,
      "t": 236572.91666666672,
      "d": 692.708333333343,
      "v": 122
    },
    {
      "midi": 57,
      "hit": false,
      "t": 236572.91666666677,
      "d": 916.666666666657,
      "v": 86
    },
    {
      "midi": 60,
      "hit": false,
      "t": 236572.91666666677,
      "d": 916.666666666657,
      "v": 87
    },
    {
      "midi": 38,
      "hit": false,
      "t": 236583.33333333343,
      "d": 875,
      "v": 95
    },
    {
      "midi": 65,
      "hit": false,
      "t": 236583.33333333343,
      "d": 906.25,
      "v": 107
    },
    {
      "midi": 43,
      "hit": false,
      "t": 236593.7500000001,
      "d": 807.2916666666861,
      "v": 78
    },
    {
      "midi": 38,
      "hit": false,
      "t": 237197.91666666672,
      "d": 354.16666666665697,
      "v": 122
    },
    {
      "midi": 62,
      "hit": false,
      "t": 237197.91666666672,
      "d": 869.791666666657,
      "v": 122
    },
    {
      "midi": 69,
      "hit": false,
      "t": 237197.91666666672,
      "d": 885.416666666657,
      "v": 122
    },
    {
      "midi": 72,
      "hit": false,
      "t": 237197.91666666672,
      "d": 885.416666666657,
      "v": 122
    },
    {
      "midi": 43,
      "hit": false,
      "t": 237500.0000000001,
      "d": 2401.041666666686,
      "v": 98
    },
    {
      "midi": 43,
      "hit": false,
      "t": 237510.41666666672,
      "d": 614.5833333333139,
      "v": 122
    },
    {
      "midi": 38,
      "hit": false,
      "t": 237947.91666666674,
      "d": 1973.9583333333721,
      "v": 98
    },
    {
      "midi": 62,
      "hit": false,
      "t": 238135.4166666667,
      "d": 395.83333333334303,
      "v": 122
    },
    {
      "midi": 69,
      "hit": false,
      "t": 238135.4166666667,
      "d": 395.83333333334303,
      "v": 122
    },
    {
      "midi": 72,
      "hit": false,
      "t": 238135.4166666667,
      "d": 395.83333333334303,
      "v": 122
    },
    {
      "midi": 43,
      "hit": false,
      "t": 238135.4166666667,
      "d": 541.6666666666861,
      "v": 122
    },
    {
      "midi": 67,
      "hit": false,
      "t": 238447.9166666667,
      "d": 421.8750000000291,
      "v": 122
    },
    {
      "midi": 60,
      "hit": false,
      "t": 238453.1250000001,
      "d": 656.2499999999709,
      "v": 80
    },
    {
      "midi": 57,
      "hit": false,
      "t": 238453.1250000001,
      "d": 713.541666666657,
      "v": 80
    },
    {
      "midi": 65,
      "hit": false,
      "t": 238463.54166666674,
      "d": 666.666666666657,
      "v": 101
    },
    {
      "midi": 43,
      "hit": false,
      "t": 238760.41666666672,
      "d": 307.29166666665697,
      "v": 122
    },
    {
      "midi": 69,
      "hit": false,
      "t": 238760.41666666672,
      "d": 421.875,
      "v": 122
    },
    {
      "midi": 71,
      "hit": false,
      "t": 239072.91666666672,
      "d": 750,
      "v": 122
    },
    {
      "midi": 43,
      "hit": false,
      "t": 239072.91666666672,
      "d": 760.416666666657,
      "v": 122
    },
    {
      "midi": 65,
      "hit": false,
      "t": 239406.2500000001,
      "d": 239.58333333334303,
      "v": 98
    },
    {
      "midi": 60,
      "hit": false,
      "t": 239531.2500000001,
      "d": 317.70833333334303,
      "v": 78
    },
    {
      "midi": 69,
      "hit": false,
      "t": 239697.91666666672,
      "d": 692.708333333343,
      "v": 122
    },
    {
      "midi": 43,
      "hit": false,
      "t": 240010.41666666672,
      "d": 572.9166666666861,
      "v": 122
    },
    {
      "midi": 62,
      "hit": false,
      "t": 240010.41666666677,
      "d": 927.0833333333139,
      "v": 87
    },
    {
      "midi": 59,
      "hit": false,
      "t": 240010.41666666677,
      "d": 1000,
      "v": 86
    },
    {
      "midi": 38,
      "hit": false,
      "t": 240020.83333333343,
      "d": 572.916666666657,
      "v": 95
    },
    {
      "midi": 71,
      "hit": false,
      "t": 240020.83333333343,
      "d": 953.125,
      "v": 107
    },
    {
      "midi": 43,
      "hit": false,
      "t": 240031.2500000001,
      "d": 505.20833333334303,
      "v": 78
    },
    {
      "midi": 67,
      "hit": false,
      "t": 240322.91666666672,
      "d": 307.29166666668607,
      "v": 122
    },
    {
      "midi": 43,
      "hit": false,
      "t": 240635.41666666674,
      "d": 614.583333333343,
      "v": 122
    },
    {
      "midi": 62,
      "hit": false,
      "t": 240635.41666666674,
      "d": 614.583333333343,
      "v": 122
    },
    {
      "midi": 67,
      "hit": false,
      "t": 240635.41666666674,
      "d": 614.583333333343,
      "v": 122
    },
    {
      "midi": 71,
      "hit": false,
      "t": 240635.41666666674,
      "d": 614.583333333343,
      "v": 122
    },
    {
      "midi": 43,
      "hit": false,
      "t": 241260.41666666674,
      "d": 307.29166666665697,
      "v": 122
    },
    {
      "midi": 62,
      "hit": false,
      "t": 241260.41666666674,
      "d": 307.29166666665697,
      "v": 122
    },
    {
      "midi": 67,
      "hit": false,
      "t": 241260.41666666674,
      "d": 307.29166666665697,
      "v": 122
    },
    {
      "midi": 71,
      "hit": false,
      "t": 241260.41666666674,
      "d": 307.29166666665697,
      "v": 122
    },
    {
      "midi": 59,
      "hit": false,
      "t": 241260.41666666677,
      "d": 249.9999999999709,
      "v": 86
    },
    {
      "midi": 62,
      "hit": false,
      "t": 241260.41666666677,
      "d": 249.9999999999709,
      "v": 87
    },
    {
      "midi": 38,
      "hit": false,
      "t": 241270.83333333343,
      "d": 239.58333333331393,
      "v": 95
    },
    {
      "midi": 71,
      "hit": false,
      "t": 241270.83333333343,
      "d": 239.58333333331393,
      "v": 107
    },
    {
      "midi": 43,
      "hit": false,
      "t": 241281.2500000001,
      "d": 229.16666666665697,
      "v": 78
    },
    {
      "midi": 60,
      "hit": false,
      "t": 241572.91666666674,
      "d": 916.666666666657,
      "v": 86
    },
    {
      "midi": 62,
      "hit": false,
      "t": 241572.91666666674,
      "d": 916.666666666657,
      "v": 87
    },
    {
      "midi": 62,
      "hit": false,
      "t": 241572.91666666674,
      "d": 614.583333333343,
      "v": 122
    },
    {
      "midi": 67,
      "hit": false,
      "t": 241572.91666666674,
      "d": 614.583333333343,
      "v": 122
    },
    {
      "midi": 71,
      "hit": false,
      "t": 241572.91666666674,
      "d": 614.583333333343,
      "v": 122
    },
    {
      "midi": 43,
      "hit": false,
      "t": 241572.91666666674,
      "d": 682.291666666657,
      "v": 122
    },
    {
      "midi": 38,
      "hit": false,
      "t": 241583.3333333334,
      "d": 875,
      "v": 95
    },
    {
      "midi": 72,
      "hit": false,
      "t": 241583.3333333334,
      "d": 906.25,
      "v": 107
    },
    {
      "midi": 43,
      "hit": false,
      "t": 241593.75000000006,
      "d": 807.2916666666861,
      "v": 78
    },
    {
      "midi": 38,
      "hit": false,
      "t": 242197.91666666674,
      "d": 369.79166666665697,
      "v": 122
    },
    {
      "midi": 62,
      "hit": false,
      "t": 242197.91666666674,
      "d": 869.791666666657,
      "v": 122
    },
    {
      "midi": 69,
      "hit": false,
      "t": 242197.91666666674,
      "d": 869.791666666657,
      "v": 122
    },
    {
      "midi": 72,
      "hit": false,
      "t": 242197.91666666674,
      "d": 869.791666666657,
      "v": 122
    },
    {
      "midi": 38,
      "hit": false,
      "t": 242500.00000000006,
      "d": 2500,
      "v": 90
    },
    {
      "midi": 43,
      "hit": false,
      "t": 242500.00000000006,
      "d": 2500,
      "v": 83
    },
    {
      "midi": 60,
      "hit": false,
      "t": 242500.00000000006,
      "d": 2500,
      "v": 77
    },
    {
      "midi": 67,
      "hit": false,
      "t": 242500.00000000006,
      "d": 2500,
      "v": 102
    },
    {
      "midi": 43,
      "hit": false,
      "t": 242510.41666666674,
      "d": 614.5833333333139,
      "v": 122
    },
    {
      "midi": 72,
      "hit": false,
      "t": 242531.25000000006,
      "d": 2468.75,
      "v": 102
    },
    {
      "midi": 43,
      "hit": false,
      "t": 243135.41666666672,
      "d": 614.583333333343,
      "v": 122
    },
    {
      "midi": 62,
      "hit": false,
      "t": 243135.41666666672,
      "d": 614.583333333343,
      "v": 122
    },
    {
      "midi": 69,
      "hit": false,
      "t": 243135.41666666672,
      "d": 614.583333333343,
      "v": 122
    },
    {
      "midi": 72,
      "hit": false,
      "t": 243135.41666666672,
      "d": 614.583333333343,
      "v": 122
    },
    {
      "midi": 43,
      "hit": false,
      "t": 243760.41666666672,
      "d": 307.29166666665697,
      "v": 122
    },
    {
      "midi": 62,
      "hit": false,
      "t": 243760.41666666672,
      "d": 307.29166666665697,
      "v": 122
    },
    {
      "midi": 69,
      "hit": false,
      "t": 243760.41666666672,
      "d": 307.29166666665697,
      "v": 122
    },
    {
      "midi": 72,
      "hit": false,
      "t": 243760.41666666672,
      "d": 307.29166666665697,
      "v": 122
    },
    {
      "midi": 72,
      "hit": false,
      "t": 244072.91666666672,
      "d": 395.83333333334303,
      "v": 122
    },
    {
      "midi": 62,
      "hit": false,
      "t": 244072.91666666672,
      "d": 437.5,
      "v": 122
    },
    {
      "midi": 69,
      "hit": false,
      "t": 244072.91666666672,
      "d": 437.5,
      "v": 122
    },
    {
      "midi": 43,
      "hit": false,
      "t": 244072.91666666672,
      "d": 859.375,
      "v": 122
    },
    {
      "midi": 67,
      "hit": false,
      "t": 244385.41666666672,
      "d": 307.29166666665697,
      "v": 122
    },
    {
      "midi": 67,
      "hit": false,
      "t": 244697.91666666672,
      "d": 307.29166666665697,
      "v": 122
    },
    {
      "midi": 62,
      "hit": false,
      "t": 245010.41666666672,
      "d": 927.0833333333139,
      "v": 87
    },
    {
      "midi": 59,
      "hit": false,
      "t": 245010.41666666672,
      "d": 1000,
      "v": 86
    },
    {
      "midi": 62,
      "hit": false,
      "t": 245010.41666666672,
      "d": 380.20833333334303,
      "v": 122
    },
    {
      "midi": 67,
      "hit": false,
      "t": 245010.41666666672,
      "d": 395.83333333334303,
      "v": 122
    },
    {
      "midi": 43,
      "hit": false,
      "t": 245010.41666666672,
      "d": 541.6666666666861,
      "v": 122
    },
    {
      "midi": 38,
      "hit": false,
      "t": 245020.83333333337,
      "d": 572.916666666657,
      "v": 95
    },
    {
      "midi": 71,
      "hit": false,
      "t": 245020.83333333337,
      "d": 953.125,
      "v": 107
    },
    {
      "midi": 43,
      "hit": false,
      "t": 245031.25000000003,
      "d": 505.20833333334303,
      "v": 78
    },
    {
      "midi": 69,
      "hit": false,
      "t": 245046.87500000006,
      "d": 354.16666666665697,
      "v": 122
    },
    {
      "midi": 71,
      "hit": false,
      "t": 245322.91666666672,
      "d": 307.29166666668607,
      "v": 122
    },
    {
      "midi": 71,
      "hit": false,
      "t": 245635.41666666674,
      "d": 307.29166666665697,
      "v": 122
    },
    {
      "midi": 43,
      "hit": false,
      "t": 245635.41666666674,
      "d": 557.2916666666861,
      "v": 122
    },
    {
      "midi": 67,
      "hit": false,
      "t": 245947.91666666674,
      "d": 692.7083333333721,
      "v": 122
    },
    {
      "midi": 62,
      "hit": false,
      "t": 245947.91666666674,
      "d": 708.3333333333721,
      "v": 122
    },
    {
      "midi": 69,
      "hit": false,
      "t": 245984.3750000001,
      "d": 651.0416666666861,
      "v": 122
    },
    {
      "midi": 59,
      "hit": false,
      "t": 246260.41666666672,
      "d": 249.9999999999709,
      "v": 86
    },
    {
      "midi": 62,
      "hit": false,
      "t": 246260.41666666672,
      "d": 249.9999999999709,
      "v": 87
    },
    {
      "midi": 43,
      "hit": false,
      "t": 246260.41666666677,
      "d": 307.29166666665697,
      "v": 122
    },
    {
      "midi": 38,
      "hit": false,
      "t": 246270.83333333337,
      "d": 239.58333333331393,
      "v": 95
    },
    {
      "midi": 71,
      "hit": false,
      "t": 246270.83333333337,
      "d": 239.58333333331393,
      "v": 107
    },
    {
      "midi": 43,
      "hit": false,
      "t": 246281.25000000003,
      "d": 229.16666666665697,
      "v": 78
    },
    {
      "midi": 57,
      "hit": false,
      "t": 246572.9166666667,
      "d": 916.666666666657,
      "v": 86
    },
    {
      "midi": 60,
      "hit": false,
      "t": 246572.9166666667,
      "d": 916.666666666657,
      "v": 87
    },
    {
      "midi": 71,
      "hit": false,
      "t": 246572.91666666677,
      "d": 614.583333333343,
      "v": 122
    },
    {
      "midi": 43,
      "hit": false,
      "t": 246572.91666666677,
      "d": 692.708333333343,
      "v": 122
    },
    {
      "midi": 38,
      "hit": false,
      "t": 246583.33333333334,
      "d": 875,
      "v": 95
    },
    {
      "midi": 65,
      "hit": false,
      "t": 246583.33333333334,
      "d": 906.25,
      "v": 107
    },
    {
      "midi": 43,
      "hit": false,
      "t": 246593.75,
      "d": 807.2916666666861,
      "v": 78
    },
    {
      "midi": 69,
      "hit": false,
      "t": 247197.91666666677,
      "d": 307.29166666668607,
      "v": 122
    },
    {
      "midi": 72,
      "hit": false,
      "t": 247197.91666666677,
      "d": 380.20833333337214,
      "v": 122
    },
    {
      "midi": 62,
      "hit": false,
      "t": 247197.91666666677,
      "d": 421.8750000000291,
      "v": 122
    },
    {
      "midi": 38,
      "hit": false,
      "t": 247197.91666666677,
      "d": 437.5000000000291,
      "v": 122
    },
    {
      "midi": 57,
      "hit": false,
      "t": 247500,
      "d": 1046.875000000029,
      "v": 89
    },
    {
      "midi": 65,
      "hit": false,
      "t": 247500,
      "d": 1088.541666666686,
      "v": 74
    },
    {
      "midi": 43,
      "hit": false,
      "t": 247500,
      "d": 1114.583333333343,
      "v": 78
    },
    {
      "midi": 69,
      "hit": false,
      "t": 247510.4166666668,
      "d": 421.875,
      "v": 122
    },
    {
      "midi": 43,
      "hit": false,
      "t": 247510.4166666668,
      "d": 541.666666666657,
      "v": 122
    },
    {
      "midi": 60,
      "hit": false,
      "t": 247536.45833333334,
      "d": 1078.125,
      "v": 85
    },
    {
      "midi": 69,
      "hit": false,
      "t": 247536.45833333334,
      "d": 1098.958333333343,
      "v": 104
    },
    {
      "midi": 71,
      "hit": false,
      "t": 247822.9166666668,
      "d": 307.29166666665697,
      "v": 122
    },
    {
      "midi": 43,
      "hit": false,
      "t": 248135.4166666668,
      "d": 307.29166666665697,
      "v": 122
    },
    {
      "midi": 71,
      "hit": false,
      "t": 248135.4166666668,
      "d": 395.83333333334303,
      "v": 122
    },
    {
      "midi": 69,
      "hit": false,
      "t": 248447.9166666668,
      "d": 692.708333333343,
      "v": 122
    },
    {
      "midi": 62,
      "hit": false,
      "t": 248447.9166666668,
      "d": 708.333333333343,
      "v": 122
    },
    {
      "midi": 43,
      "hit": false,
      "t": 248760.4166666668,
      "d": 307.29166666665697,
      "v": 122
    },
    {
      "midi": 69,
      "hit": false,
      "t": 249062.50000000003,
      "d": 411.45833333334303,
      "v": 104
    },
    {
      "midi": 67,
      "hit": false,
      "t": 249072.9166666668,
      "d": 614.583333333343,
      "v": 122
    },
    {
      "midi": 43,
      "hit": false,
      "t": 249072.9166666668,
      "d": 843.75,
      "v": 122
    },
    {
      "midi": 65,
      "hit": false,
      "t": 249375.00000000003,
      "d": 354.16666666665697,
      "v": 102
    },
    {
      "midi": 60,
      "hit": false,
      "t": 249687.50000000003,
      "d": 171.875,
      "v": 78
    },
    {
      "midi": 62,
      "hit": false,
      "t": 249687.50000000003,
      "d": 270.83333333334303,
      "v": 104
    },
    {
      "midi": 67,
      "hit": false,
      "t": 249697.9166666668,
      "d": 307.29166666665697,
      "v": 122
    },
    {
      "midi": 59,
      "hit": false,
      "t": 250000.00000000003,
      "d": 1046.875000000029,
      "v": 89
    },
    {
      "midi": 67,
      "hit": false,
      "t": 250000.00000000003,
      "d": 1088.541666666686,
      "v": 74
    },
    {
      "midi": 43,
      "hit": false,
      "t": 250000.00000000003,
      "d": 1114.583333333343,
      "v": 78
    },
    {
      "midi": 62,
      "hit": false,
      "t": 250010.4166666668,
      "d": 380.20833333334303,
      "v": 122
    },
    {
      "midi": 67,
      "hit": false,
      "t": 250010.4166666668,
      "d": 380.20833333334303,
      "v": 122
    },
    {
      "midi": 43,
      "hit": false,
      "t": 250010.4166666668,
      "d": 541.6666666666861,
      "v": 122
    },
    {
      "midi": 62,
      "hit": false,
      "t": 250036.45833333337,
      "d": 1078.125,
      "v": 85
    },
    {
      "midi": 71,
      "hit": false,
      "t": 250036.45833333337,
      "d": 1098.958333333343,
      "v": 104
    },
    {
      "midi": 69,
      "hit": false,
      "t": 250046.87500000015,
      "d": 380.20833333334303,
      "v": 122
    },
    {
      "midi": 71,
      "hit": false,
      "t": 250322.9166666668,
      "d": 307.29166666668607,
      "v": 122
    },
    {
      "midi": 71,
      "hit": false,
      "t": 250635.41666666683,
      "d": 307.29166666665697,
      "v": 122
    },
    {
      "midi": 43,
      "hit": false,
      "t": 250635.41666666683,
      "d": 541.666666666657,
      "v": 122
    },
    {
      "midi": 71,
      "hit": false,
      "t": 250947.91666666683,
      "d": 307.29166666665697,
      "v": 122
    },
    {
      "midi": 43,
      "hit": false,
      "t": 251260.41666666683,
      "d": 307.29166666665697,
      "v": 122
    },
    {
      "midi": 67,
      "hit": false,
      "t": 251260.41666666683,
      "d": 307.29166666665697,
      "v": 122
    },
    {
      "midi": 74,
      "hit": false,
      "t": 251260.41666666683,
      "d": 369.79166666665697,
      "v": 122
    },
    {
      "midi": 71,
      "hit": false,
      "t": 251260.41666666683,
      "d": 406.25,
      "v": 122
    },
    {
      "midi": 71,
      "hit": false,
      "t": 251562.50000000006,
      "d": 411.45833333334303,
      "v": 104
    },
    {
      "midi": 43,
      "hit": false,
      "t": 251572.91666666683,
      "d": 307.29166666665697,
      "v": 122
    },
    {
      "midi": 67,
      "hit": false,
      "t": 251572.91666666683,
      "d": 307.29166666665697,
      "v": 122
    },
    {
      "midi": 67,
      "hit": false,
      "t": 251875.00000000006,
      "d": 354.16666666665697,
      "v": 102
    },
    {
      "midi": 67,
      "hit": false,
      "t": 251885.41666666683,
      "d": 307.29166666665697,
      "v": 122
    },
    {
      "midi": 45,
      "hit": false,
      "t": 251885.41666666683,
      "d": 406.25,
      "v": 122
    },
    {
      "midi": 62,
      "hit": false,
      "t": 252187.50000000006,
      "d": 171.875,
      "v": 78
    },
    {
      "midi": 67,
      "hit": false,
      "t": 252197.91666666683,
      "d": 380.20833333334303,
      "v": 122
    },
    {
      "midi": 47,
      "hit": false,
      "t": 252197.91666666683,
      "d": 406.25,
      "v": 122
    },
    {
      "midi": 55,
      "hit": false,
      "t": 252500.00000000006,
      "d": 1046.875000000029,
      "v": 89
    },
    {
      "midi": 64,
      "hit": false,
      "t": 252500.00000000006,
      "d": 1088.541666666686,
      "v": 74
    },
    {
      "midi": 48,
      "hit": false,
      "t": 252500.00000000006,
      "d": 1114.583333333343,
      "v": 78
    },
    {
      "midi": 60,
      "hit": false,
      "t": 252510.41666666683,
      "d": 307.29166666665697,
      "v": 122
    },
    {
      "midi": 64,
      "hit": false,
      "t": 252510.41666666683,
      "d": 307.29166666665697,
      "v": 122
    },
    {
      "midi": 48,
      "hit": false,
      "t": 252510.41666666683,
      "d": 557.291666666657,
      "v": 122
    },
    {
      "midi": 60,
      "hit": false,
      "t": 252536.4583333334,
      "d": 1078.125,
      "v": 85
    },
    {
      "midi": 67,
      "hit": false,
      "t": 252536.4583333334,
      "d": 1098.958333333343,
      "v": 104
    },
    {
      "midi": 60,
      "hit": false,
      "t": 252822.91666666683,
      "d": 307.29166666665697,
      "v": 122
    },
    {
      "midi": 65,
      "hit": false,
      "t": 252822.91666666683,
      "d": 307.29166666665697,
      "v": 122
    },
    {
      "midi": 60,
      "hit": false,
      "t": 253135.41666666683,
      "d": 307.29166666665697,
      "v": 122
    },
    {
      "midi": 64,
      "hit": false,
      "t": 253135.41666666683,
      "d": 307.29166666665697,
      "v": 122
    },
    {
      "midi": 48,
      "hit": false,
      "t": 253135.41666666683,
      "d": 572.916666666657,
      "v": 122
    },
    {
      "midi": 60,
      "hit": false,
      "t": 253447.91666666683,
      "d": 583.333333333343,
      "v": 122
    },
    {
      "midi": 65,
      "hit": false,
      "t": 253447.91666666683,
      "d": 692.7083333333721,
      "v": 122
    },
    {
      "midi": 48,
      "hit": false,
      "t": 253760.41666666683,
      "d": 307.29166666668607,
      "v": 122
    },
    {
      "midi": 67,
      "hit": false,
      "t": 254062.5000000001,
      "d": 411.45833333334303,
      "v": 104
    },
    {
      "midi": 64,
      "hit": false,
      "t": 254072.91666666686,
      "d": 395.83333333334303,
      "v": 122
    },
    {
      "midi": 60,
      "hit": false,
      "t": 254072.91666666686,
      "d": 421.875,
      "v": 122
    },
    {
      "midi": 48,
      "hit": false,
      "t": 254072.91666666686,
      "d": 895.833333333343,
      "v": 122
    },
    {
      "midi": 64,
      "hit": false,
      "t": 254375.0000000001,
      "d": 354.16666666665697,
      "v": 102
    },
    {
      "midi": 71,
      "hit": false,
      "t": 254385.41666666686,
      "d": 421.875,
      "v": 122
    },
    {
      "midi": 60,
      "hit": false,
      "t": 254687.5000000001,
      "d": 171.875,
      "v": 78
    },
    {
      "midi": 69,
      "hit": false,
      "t": 254697.91666666686,
      "d": 1171.875,
      "v": 122
    },
    {
      "midi": 60,
      "hit": false,
      "t": 254697.91666666686,
      "d": 1182.291666666657,
      "v": 122
    },
    {
      "midi": 64,
      "hit": false,
      "t": 254697.91666666686,
      "d": 1182.291666666657,
      "v": 122
    },
    {
      "midi": 60,
      "hit": false,
      "t": 255010.41666666674,
      "d": 927.0833333333139,
      "v": 79
    },
    {
      "midi": 55,
      "hit": false,
      "t": 255010.41666666674,
      "d": 1000,
      "v": 78
    },
    {
      "midi": 48,
      "hit": false,
      "t": 255010.41666666686,
      "d": 614.583333333343,
      "v": 122
    },
    {
      "midi": 43,
      "hit": false,
      "t": 255020.8333333334,
      "d": 572.916666666657,
      "v": 87
    },
    {
      "midi": 64,
      "hit": false,
      "t": 255020.8333333334,
      "d": 953.125,
      "v": 99
    },
    {
      "midi": 36,
      "hit": false,
      "t": 255031.25000000006,
      "d": 505.20833333334303,
      "v": 70
    },
    {
      "midi": 48,
      "hit": false,
      "t": 255635.41666666686,
      "d": 572.916666666657,
      "v": 122
    },
    {
      "midi": 67,
      "hit": false,
      "t": 255947.91666666686,
      "d": 421.875,
      "v": 122
    },
    {
      "midi": 69,
      "hit": false,
      "t": 256260.41666666686,
      "d": 395.83333333334303,
      "v": 122
    },
    {
      "midi": 48,
      "hit": false,
      "t": 256260.41666666686,
      "d": 421.875,
      "v": 122
    },
    {
      "midi": 64,
      "hit": false,
      "t": 256562.5000000001,
      "d": 494.79166666665697,
      "v": 119
    },
    {
      "midi": 47,
      "hit": false,
      "t": 256572.91666666686,
      "d": 307.29166666665697,
      "v": 122
    },
    {
      "midi": 71,
      "hit": false,
      "t": 256572.91666666686,
      "d": 843.75,
      "v": 122
    },
    {
      "midi": 48,
      "hit": false,
      "t": 256885.41666666686,
      "d": 307.29166666665697,
      "v": 122
    },
    {
      "midi": 49,
      "hit": false,
      "t": 257197.91666666686,
      "d": 421.875,
      "v": 122
    },
    {
      "midi": 50,
      "hit": false,
      "t": 257500.0000000001,
      "d": 2500,
      "v": 84
    },
    {
      "midi": 54,
      "hit": false,
      "t": 257500.0000000001,
      "d": 2500,
      "v": 98
    },
    {
      "midi": 62,
      "hit": false,
      "t": 257500.0000000001,
      "d": 2500,
      "v": 76
    },
    {
      "midi": 74,
      "hit": false,
      "t": 257500.0000000001,
      "d": 2500,
      "v": 104
    },
    {
      "midi": 66,
      "hit": false,
      "t": 257510.41666666686,
      "d": 369.79166666665697,
      "v": 122
    },
    {
      "midi": 62,
      "hit": false,
      "t": 257510.41666666686,
      "d": 395.83333333331393,
      "v": 122
    },
    {
      "midi": 57,
      "hit": false,
      "t": 257510.41666666686,
      "d": 406.2499999999709,
      "v": 122
    },
    {
      "midi": 50,
      "hit": false,
      "t": 257510.41666666686,
      "d": 557.2916666666279,
      "v": 122
    },
    {
      "midi": 69,
      "hit": false,
      "t": 257656.2500000001,
      "d": 2343.75,
      "v": 82
    },
    {
      "midi": 66,
      "hit": false,
      "t": 257812.5000000001,
      "d": 2187.5,
      "v": 96
    },
    {
      "midi": 67,
      "hit": false,
      "t": 257822.91666666686,
      "d": 395.83333333331393,
      "v": 122
    },
    {
      "midi": 66,
      "hit": false,
      "t": 258135.41666666683,
      "d": 307.29166666668607,
      "v": 122
    },
    {
      "midi": 50,
      "hit": false,
      "t": 258135.41666666683,
      "d": 572.9166666666861,
      "v": 122
    },
    {
      "midi": 62,
      "hit": false,
      "t": 258447.91666666686,
      "d": 869.791666666657,
      "v": 122
    },
    {
      "midi": 57,
      "hit": false,
      "t": 258447.91666666686,
      "d": 885.416666666657,
      "v": 122
    },
    {
      "midi": 67,
      "hit": false,
      "t": 258447.91666666686,
      "d": 963.541666666657,
      "v": 122
    },
    {
      "midi": 50,
      "hit": false,
      "t": 258760.41666666686,
      "d": 406.25,
      "v": 122
    },
    {
      "midi": 52,
      "hit": false,
      "t": 259072.91666666686,
      "d": 437.5,
      "v": 122
    },
    {
      "midi": 50,
      "hit": false,
      "t": 259385.41666666686,
      "d": 395.83333333334303,
      "v": 122
    },
    {
      "midi": 57,
      "hit": false,
      "t": 259385.41666666686,
      "d": 395.83333333334303,
      "v": 122
    },
    {
      "midi": 62,
      "hit": false,
      "t": 259385.41666666686,
      "d": 395.83333333334303,
      "v": 122
    },
    {
      "midi": 66,
      "hit": false,
      "t": 259385.41666666686,
      "d": 395.83333333334303,
      "v": 122
    },
    {
      "midi": 67,
      "hit": false,
      "t": 259697.91666666686,
      "d": 307.29166666668607,
      "v": 122
    },
    {
      "midi": 47,
      "hit": false,
      "t": 259697.91666666686,
      "d": 395.83333333337214,
      "v": 122
    },
    {
      "midi": 62,
      "hit": false,
      "t": 260000.0000000001,
      "d": 203.1249999999709,
      "v": 77
    },
    {
      "midi": 67,
      "hit": false,
      "t": 260000.0000000001,
      "d": 239.58333333331393,
      "v": 94
    },
    {
      "midi": 60,
      "hit": false,
      "t": 260010.41666666674,
      "d": 192.70833333331393,
      "v": 82
    },
    {
      "midi": 64,
      "hit": false,
      "t": 260010.41666666674,
      "d": 192.70833333331393,
      "v": 101
    },
    {
      "midi": 36,
      "hit": false,
      "t": 260010.41666666674,
      "d": 2135.416666666686,
      "v": 96
    },
    {
      "midi": 67,
      "hit": false,
      "t": 260010.4166666669,
      "d": 354.16666666665697,
      "v": 122
    },
    {
      "midi": 64,
      "hit": false,
      "t": 260010.4166666669,
      "d": 406.25,
      "v": 122
    },
    {
      "midi": 74,
      "hit": false,
      "t": 260010.4166666669,
      "d": 421.875,
      "v": 122
    },
    {
      "midi": 48,
      "hit": false,
      "t": 260010.4166666669,
      "d": 572.916666666657,
      "v": 122
    },
    {
      "midi": 72,
      "hit": false,
      "t": 260322.9166666669,
      "d": 307.29166666665697,
      "v": 122
    },
    {
      "midi": 72,
      "hit": false,
      "t": 260635.4166666669,
      "d": 406.25,
      "v": 122
    },
    {
      "midi": 48,
      "hit": false,
      "t": 260635.4166666669,
      "d": 557.291666666657,
      "v": 122
    },
    {
      "midi": 71,
      "hit": false,
      "t": 260947.9166666669,
      "d": 307.29166666665697,
      "v": 122
    },
    {
      "midi": 72,
      "hit": false,
      "t": 260953.12500000006,
      "d": 1192.7083333333721,
      "v": 94
    },
    {
      "midi": 74,
      "hit": false,
      "t": 260958.3333333334,
      "d": 1161.458333333343,
      "v": 78
    },
    {
      "midi": 76,
      "hit": false,
      "t": 260958.3333333334,
      "d": 1177.083333333343,
      "v": 94
    },
    {
      "midi": 79,
      "hit": false,
      "t": 260958.3333333334,
      "d": 1187.500000000029,
      "v": 96
    },
    {
      "midi": 48,
      "hit": false,
      "t": 261260.4166666669,
      "d": 307.29166666665697,
      "v": 122
    },
    {
      "midi": 71,
      "hit": false,
      "t": 261260.4166666669,
      "d": 380.20833333334303,
      "v": 122
    },
    {
      "midi": 67,
      "hit": false,
      "t": 261572.9166666669,
      "d": 395.83333333334303,
      "v": 122
    },
    {
      "midi": 48,
      "hit": false,
      "t": 261572.9166666669,
      "d": 859.3749999999709,
      "v": 122
    },
    {
      "midi": 69,
      "hit": false,
      "t": 261885.4166666669,
      "d": 307.29166666665697,
      "v": 122
    },
    {
      "midi": 62,
      "hit": false,
      "t": 262197.91666666686,
      "d": 885.4166666666861,
      "v": 122
    },
    {
      "midi": 66,
      "hit": false,
      "t": 262197.91666666686,
      "d": 994.7916666666861,
      "v": 122
    },
    {
      "midi": 69,
      "hit": false,
      "t": 262197.91666666686,
      "d": 1020.8333333333721,
      "v": 122
    },
    {
      "midi": 50,
      "hit": false,
      "t": 262510.41666666686,
      "d": 307.29166666668607,
      "v": 122
    },
    {
      "midi": 54,
      "hit": false,
      "t": 262515.6250000001,
      "d": 2484.375,
      "v": 89
    },
    {
      "midi": 57,
      "hit": false,
      "t": 262515.6250000001,
      "d": 2484.375,
      "v": 91
    },
    {
      "midi": 62,
      "hit": false,
      "t": 262515.6250000001,
      "d": 2484.375,
      "v": 84
    },
    {
      "midi": 66,
      "hit": false,
      "t": 262515.6250000001,
      "d": 2484.375,
      "v": 96
    },
    {
      "midi": 50,
      "hit": false,
      "t": 262822.91666666686,
      "d": 307.29166666668607,
      "v": 122
    },
    {
      "midi": 62,
      "hit": false,
      "t": 263135.41666666686,
      "d": 307.29166666668607,
      "v": 122
    },
    {
      "midi": 50,
      "hit": false,
      "t": 263135.41666666686,
      "d": 760.4166666666861,
      "v": 122
    },
    {
      "midi": 62,
      "hit": false,
      "t": 263447.91666666686,
      "d": 421.875,
      "v": 122
    },
    {
      "midi": 74,
      "hit": false,
      "t": 263760.41666666686,
      "d": 406.25,
      "v": 122
    },
    {
      "midi": 71,
      "hit": false,
      "t": 264072.91666666686,
      "d": 750,
      "v": 122
    },
    {
      "midi": 69,
      "hit": false,
      "t": 264697.91666666686,
      "d": 557.2916666666861,
      "v": 122
    },
    {
      "midi": 64,
      "hit": false,
      "t": 264697.91666666686,
      "d": 682.2916666666861,
      "v": 122
    },
    {
      "midi": 60,
      "hit": false,
      "t": 264697.91666666686,
      "d": 692.7083333333721,
      "v": 122
    },
    {
      "midi": 40,
      "hit": false,
      "t": 265000.0000000001,
      "d": 2500,
      "v": 70
    },
    {
      "midi": 45,
      "hit": false,
      "t": 265000.0000000001,
      "d": 2500,
      "v": 63
    },
    {
      "midi": 55,
      "hit": false,
      "t": 265000.0000000001,
      "d": 2500,
      "v": 57
    },
    {
      "midi": 60,
      "hit": false,
      "t": 265000.0000000001,
      "d": 2500,
      "v": 82
    },
    {
      "midi": 45,
      "hit": false,
      "t": 265010.41666666686,
      "d": 557.2916666666861,
      "v": 122
    },
    {
      "midi": 64,
      "hit": false,
      "t": 265031.2500000001,
      "d": 2468.75,
      "v": 82
    },
    {
      "midi": 69,
      "hit": false,
      "t": 265322.91666666686,
      "d": 307.29166666668607,
      "v": 122
    },
    {
      "midi": 45,
      "hit": false,
      "t": 265635.41666666686,
      "d": 614.5833333333139,
      "v": 122
    },
    {
      "midi": 67,
      "hit": false,
      "t": 265635.41666666686,
      "d": 1739.583333333314,
      "v": 122
    },
    {
      "midi": 71,
      "hit": false,
      "t": 265635.41666666686,
      "d": 1739.583333333314,
      "v": 122
    },
    {
      "midi": 60,
      "hit": false,
      "t": 265635.41666666686,
      "d": 1770.833333333314,
      "v": 122
    },
    {
      "midi": 64,
      "hit": false,
      "t": 265635.41666666686,
      "d": 1770.833333333314,
      "v": 122
    },
    {
      "midi": 45,
      "hit": false,
      "t": 266260.41666666686,
      "d": 307.29166666668607,
      "v": 122
    },
    {
      "midi": 43,
      "hit": false,
      "t": 266572.91666666686,
      "d": 421.875,
      "v": 122
    },
    {
      "midi": 45,
      "hit": false,
      "t": 266885.41666666686,
      "d": 380.20833333331393,
      "v": 122
    },
    {
      "midi": 47,
      "hit": false,
      "t": 267197.91666666686,
      "d": 307.29166666662786,
      "v": 122
    },
    {
      "midi": 48,
      "hit": false,
      "t": 267500.0000000001,
      "d": 2500,
      "v": 66
    },
    {
      "midi": 52,
      "hit": false,
      "t": 267500.0000000001,
      "d": 2500,
      "v": 80
    },
    {
      "midi": 62,
      "hit": false,
      "t": 267500.0000000001,
      "d": 2500,
      "v": 58
    },
    {
      "midi": 74,
      "hit": false,
      "t": 267500.0000000001,
      "d": 2500,
      "v": 86
    },
    {
      "midi": 48,
      "hit": false,
      "t": 267510.4166666668,
      "d": 614.5833333333721,
      "v": 122
    },
    {
      "midi": 67,
      "hit": false,
      "t": 267510.4166666668,
      "d": 885.4166666667443,
      "v": 122
    },
    {
      "midi": 62,
      "hit": false,
      "t": 267510.4166666668,
      "d": 895.8333333334303,
      "v": 122
    },
    {
      "midi": 64,
      "hit": false,
      "t": 267552.0833333335,
      "d": 802.0833333333721,
      "v": 122
    },
    {
      "midi": 67,
      "hit": false,
      "t": 267656.2500000001,
      "d": 2343.75,
      "v": 64
    },
    {
      "midi": 64,
      "hit": false,
      "t": 267812.5000000001,
      "d": 2187.5,
      "v": 78
    },
    {
      "midi": 48,
      "hit": false,
      "t": 268135.41666666686,
      "d": 557.2916666667443,
      "v": 122
    },
    {
      "midi": 64,
      "hit": false,
      "t": 268447.9166666669,
      "d": 406.25,
      "v": 122
    },
    {
      "midi": 48,
      "hit": false,
      "t": 268760.4166666669,
      "d": 307.29166666668607,
      "v": 122
    },
    {
      "midi": 67,
      "hit": false,
      "t": 268760.4166666669,
      "d": 307.29166666668607,
      "v": 122
    },
    {
      "midi": 67,
      "hit": false,
      "t": 269072.9166666669,
      "d": 307.29166666668607,
      "v": 122
    },
    {
      "midi": 48,
      "hit": false,
      "t": 269072.9166666669,
      "d": 406.25,
      "v": 122
    },
    {
      "midi": 67,
      "hit": false,
      "t": 269385.4166666669,
      "d": 307.29166666668607,
      "v": 122
    },
    {
      "midi": 50,
      "hit": false,
      "t": 269385.4166666669,
      "d": 760.4166666666279,
      "v": 122
    },
    {
      "midi": 69,
      "hit": false,
      "t": 269697.9166666669,
      "d": 395.83333333331393,
      "v": 122
    },
    {
      "midi": 62,
      "hit": false,
      "t": 270000.0000000001,
      "d": 244.79166666668607,
      "v": 72
    },
    {
      "midi": 38,
      "hit": false,
      "t": 270000.0000000001,
      "d": 817.7083333333721,
      "v": 78
    },
    {
      "midi": 43,
      "hit": false,
      "t": 270000.0000000001,
      "d": 864.5833333333721,
      "v": 70
    },
    {
      "midi": 59,
      "hit": false,
      "t": 270000.0000000001,
      "d": 875.0000000000582,
      "v": 59
    },
    {
      "midi": 43,
      "hit": false,
      "t": 270010.4166666669,
      "d": 614.5833333333139,
      "v": 122
    },
    {
      "midi": 62,
      "hit": false,
      "t": 270010.4166666669,
      "d": 1208.3333333333721,
      "v": 122
    },
    {
      "midi": 67,
      "hit": false,
      "t": 270010.4166666669,
      "d": 1317.7083333333721,
      "v": 122
    },
    {
      "midi": 71,
      "hit": false,
      "t": 270010.4166666669,
      "d": 1317.7083333333721,
      "v": 122
    },
    {
      "midi": 67,
      "hit": false,
      "t": 270098.95833333343,
      "d": 744.7916666667443,
      "v": 74
    },
    {
      "midi": 43,
      "hit": false,
      "t": 270635.4166666669,
      "d": 541.6666666666861,
      "v": 122
    },
    {
      "midi": 43,
      "hit": false,
      "t": 271260.416666667,
      "d": 307.29166666662786,
      "v": 122
    },
    {
      "midi": 62,
      "hit": false,
      "t": 271260.416666667,
      "d": 307.29166666662786,
      "v": 122
    },
    {
      "midi": 69,
      "hit": false,
      "t": 271260.416666667,
      "d": 395.8333333332557,
      "v": 122
    },
    {
      "midi": 43,
      "hit": false,
      "t": 271572.9166666669,
      "d": 406.25,
      "v": 122
    },
    {
      "midi": 62,
      "hit": false,
      "t": 271572.9166666669,
      "d": 572.9166666666861,
      "v": 122
    },
    {
      "midi": 67,
      "hit": false,
      "t": 271572.9166666669,
      "d": 692.7083333333139,
      "v": 122
    },
    {
      "midi": 45,
      "hit": false,
      "t": 271885.4166666669,
      "d": 651.0416666666861,
      "v": 122
    },
    {
      "midi": 62,
      "hit": false,
      "t": 272197.9166666669,
      "d": 885.4166666666861,
      "v": 122
    },
    {
      "midi": 69,
      "hit": false,
      "t": 272197.9166666669,
      "d": 994.7916666666861,
      "v": 122
    },
    {
      "midi": 66,
      "hit": false,
      "t": 272197.9166666669,
      "d": 1020.8333333333721,
      "v": 122
    },
    {
      "midi": 64,
      "hit": false,
      "t": 272500.0000000002,
      "d": 994.7916666666279,
      "v": 62
    },
    {
      "midi": 66,
      "hit": false,
      "t": 272500.0000000002,
      "d": 1005.2083333333139,
      "v": 82
    },
    {
      "midi": 62,
      "hit": false,
      "t": 272505.2083333335,
      "d": 1000,
      "v": 64
    },
    {
      "midi": 69,
      "hit": false,
      "t": 272505.2083333335,
      "d": 1046.875,
      "v": 80
    },
    {
      "midi": 38,
      "hit": false,
      "t": 272505.2083333335,
      "d": 2494.791666666686,
      "v": 82
    },
    {
      "midi": 50,
      "hit": false,
      "t": 272510.4166666669,
      "d": 1197.916666666686,
      "v": 122
    },
    {
      "midi": 45,
      "hit": false,
      "t": 272973.9583333335,
      "d": 2026.041666666686,
      "v": 78
    },
    {
      "midi": 62,
      "hit": false,
      "t": 273135.4166666669,
      "d": 307.29166666668607,
      "v": 122
    },
    {
      "midi": 50,
      "hit": false,
      "t": 273447.9166666668,
      "d": 1552.0833333333721,
      "v": 85
    },
    {
      "midi": 62,
      "hit": false,
      "t": 273447.9166666669,
      "d": 421.875,
      "v": 122
    },
    {
      "midi": 50,
      "hit": false,
      "t": 273760.4166666669,
      "d": 421.875,
      "v": 122
    },
    {
      "midi": 74,
      "hit": false,
      "t": 273760.4166666669,
      "d": 421.875,
      "v": 122
    },
    {
      "midi": 52,
      "hit": false,
      "t": 274072.9166666669,
      "d": 437.5,
      "v": 122
    },
    {
      "midi": 71,
      "hit": false,
      "t": 274072.9166666669,
      "d": 692.7083333333139,
      "v": 122
    },
    {
      "midi": 69,
      "hit": false,
      "t": 274093.7500000002,
      "d": 432.29166666668607,
      "v": 82
    },
    {
      "midi": 50,
      "hit": false,
      "t": 274385.4166666669,
      "d": 406.25,
      "v": 122
    },
    {
      "midi": 74,
      "hit": false,
      "t": 274526.04166666686,
      "d": 114.58333333331393,
      "v": 82
    },
    {
      "midi": 47,
      "hit": false,
      "t": 274697.9166666669,
      "d": 307.29166666668607,
      "v": 122
    },
    {
      "midi": 69,
      "hit": false,
      "t": 274697.9166666669,
      "d": 572.9166666666861,
      "v": 122
    },
    {
      "midi": 60,
      "hit": false,
      "t": 274697.9166666669,
      "d": 708.3333333333139,
      "v": 122
    },
    {
      "midi": 64,
      "hit": false,
      "t": 274697.9166666669,
      "d": 708.3333333333139,
      "v": 122
    },
    {
      "midi": 45,
      "hit": false,
      "t": 275000.0000000002,
      "d": 2401.041666666628,
      "v": 82
    },
    {
      "midi": 45,
      "hit": false,
      "t": 275010.4166666669,
      "d": 557.2916666666279,
      "v": 122
    },
    {
      "midi": 69,
      "hit": false,
      "t": 275322.9166666669,
      "d": 406.2499999999418,
      "v": 122
    },
    {
      "midi": 40,
      "hit": false,
      "t": 275447.91666666686,
      "d": 1973.9583333332557,
      "v": 82
    },
    {
      "midi": 45,
      "hit": false,
      "t": 275635.41666666686,
      "d": 614.5833333333139,
      "v": 122
    },
    {
      "midi": 67,
      "hit": false,
      "t": 275635.41666666686,
      "d": 1755.208333333314,
      "v": 122
    },
    {
      "midi": 64,
      "hit": false,
      "t": 275635.41666666686,
      "d": 1781.25,
      "v": 122
    },
    {
      "midi": 60,
      "hit": false,
      "t": 275635.41666666686,
      "d": 1796.875,
      "v": 122
    },
    {
      "midi": 71,
      "hit": false,
      "t": 275635.41666666686,
      "d": 1796.875,
      "v": 122
    },
    {
      "midi": 55,
      "hit": false,
      "t": 275953.1250000002,
      "d": 656.2500000000582,
      "v": 64
    },
    {
      "midi": 52,
      "hit": false,
      "t": 275953.1250000002,
      "d": 713.5416666666861,
      "v": 64
    },
    {
      "midi": 60,
      "hit": false,
      "t": 275963.54166666686,
      "d": 666.6666666666861,
      "v": 85
    },
    {
      "midi": 45,
      "hit": false,
      "t": 276260.41666666686,
      "d": 307.29166666668607,
      "v": 122
    },
    {
      "midi": 43,
      "hit": false,
      "t": 276572.91666666686,
      "d": 307.29166666668607,
      "v": 122
    },
    {
      "midi": 45,
      "hit": false,
      "t": 276885.41666666686,
      "d": 307.29166666668607,
      "v": 122
    },
    {
      "midi": 60,
      "hit": false,
      "t": 276906.2500000002,
      "d": 239.58333333331393,
      "v": 82
    },
    {
      "midi": 55,
      "hit": false,
      "t": 277031.2500000002,
      "d": 317.70833333331393,
      "v": 62
    },
    {
      "midi": 47,
      "hit": false,
      "t": 277197.91666666686,
      "d": 307.29166666668607,
      "v": 122
    },
    {
      "midi": 64,
      "hit": false,
      "t": 277500.0000000001,
      "d": 1427.083333333314,
      "v": 78
    },
    {
      "midi": 62,
      "hit": false,
      "t": 277500.0000000001,
      "d": 2427.083333333314,
      "v": 57
    },
    {
      "midi": 67,
      "hit": false,
      "t": 277505.20833333343,
      "d": 1432.291666666686,
      "v": 87
    },
    {
      "midi": 67,
      "hit": false,
      "t": 277510.41666666686,
      "d": 369.79166666668607,
      "v": 122
    },
    {
      "midi": 62,
      "hit": false,
      "t": 277510.41666666686,
      "d": 395.83333333337214,
      "v": 122
    },
    {
      "midi": 48,
      "hit": false,
      "t": 277510.41666666686,
      "d": 557.2916666666861,
      "v": 122
    },
    {
      "midi": 64,
      "hit": false,
      "t": 277552.08333333355,
      "d": 265.625,
      "v": 122
    },
    {
      "midi": 64,
      "hit": false,
      "t": 277822.91666666686,
      "d": 406.25,
      "v": 122
    },
    {
      "midi": 67,
      "hit": false,
      "t": 278135.41666666686,
      "d": 380.20833333331393,
      "v": 122
    },
    {
      "midi": 48,
      "hit": false,
      "t": 278135.41666666686,
      "d": 572.9166666666279,
      "v": 122
    },
    {
      "midi": 64,
      "hit": false,
      "t": 278447.91666666686,
      "d": 380.2083333332557,
      "v": 122
    },
    {
      "midi": 67,
      "hit": false,
      "t": 278760.4166666668,
      "d": 203.125,
      "v": 122
    },
    {
      "midi": 48,
      "hit": false,
      "t": 278760.4166666668,
      "d": 260.41666666668607,
      "v": 122
    },
    {
      "midi": 64,
      "hit": false,
      "t": 278921.8750000001,
      "d": 203.125,
      "v": 122
    },
    {
      "midi": 76,
      "hit": false,
      "t": 279062.5000000001,
      "d": 541.6666666666861,
      "v": 85
    },
    {
      "midi": 48,
      "hit": false,
      "t": 279072.9166666668,
      "d": 406.25,
      "v": 122
    },
    {
      "midi": 67,
      "hit": false,
      "t": 279072.9166666668,
      "d": 557.2916666666861,
      "v": 122
    },
    {
      "midi": 67,
      "hit": false,
      "t": 279375.0000000001,
      "d": 421.875,
      "v": 74
    },
    {
      "midi": 47,
      "hit": false,
      "t": 279385.4166666668,
      "d": 395.83333333331393,
      "v": 122
    },
    {
      "midi": 64,
      "hit": false,
      "t": 279687.5000000001,
      "d": 203.125,
      "v": 72
    },
    {
      "midi": 45,
      "hit": false,
      "t": 279697.9166666668,
      "d": 395.83333333331393,
      "v": 122
    },
    {
      "midi": 67,
      "hit": false,
      "t": 279697.9166666668,
      "d": 1005.2083333333139,
      "v": 122
    },
    {
      "midi": 57,
      "hit": false,
      "t": 280000.0000000001,
      "d": 994.7916666666279,
      "v": 62
    },
    {
      "midi": 59,
      "hit": false,
      "t": 280000.0000000001,
      "d": 1005.2083333333139,
      "v": 82
    },
    {
      "midi": 55,
      "hit": false,
      "t": 280005.20833333343,
      "d": 1000,
      "v": 64
    },
    {
      "midi": 62,
      "hit": false,
      "t": 280005.20833333343,
      "d": 1046.875,
      "v": 80
    },
    {
      "midi": 31,
      "hit": false,
      "t": 280005.20833333343,
      "d": 3812.500000000058,
      "v": 82
    },
    {
      "midi": 43,
      "hit": false,
      "t": 280010.4166666668,
      "d": 614.5833333333139,
      "v": 122
    },
    {
      "midi": 38,
      "hit": false,
      "t": 280473.95833333343,
      "d": 3484.375000000058,
      "v": 78
    },
    {
      "midi": 43,
      "hit": false,
      "t": 280635.4166666668,
      "d": 614.5833333333139,
      "v": 122
    },
    {
      "midi": 59,
      "hit": false,
      "t": 280635.4166666668,
      "d": 614.5833333333139,
      "v": 122
    },
    {
      "midi": 43,
      "hit": false,
      "t": 280947.91666666674,
      "d": 2875.000000000058,
      "v": 85
    },
    {
      "midi": 43,
      "hit": false,
      "t": 281260.4166666668,
      "d": 307.29166666668607,
      "v": 122
    },
    {
      "midi": 57,
      "hit": false,
      "t": 281260.4166666668,
      "d": 307.29166666668607,
      "v": 122
    },
    {
      "midi": 60,
      "hit": false,
      "t": 281260.4166666668,
      "d": 307.29166666668607,
      "v": 122
    },
    {
      "midi": 55,
      "hit": false,
      "t": 281572.9166666668,
      "d": 307.29166666668607,
      "v": 122
    },
    {
      "midi": 59,
      "hit": false,
      "t": 281572.9166666668,
      "d": 307.29166666668607,
      "v": 122
    },
    {
      "midi": 43,
      "hit": false,
      "t": 281572.9166666668,
      "d": 708.3333333333139,
      "v": 122
    },
    {
      "midi": 62,
      "hit": false,
      "t": 281593.7500000001,
      "d": 432.29166666668607,
      "v": 82
    },
    {
      "midi": 57,
      "hit": false,
      "t": 281885.4166666668,
      "d": 307.29166666668607,
      "v": 122
    },
    {
      "midi": 60,
      "hit": false,
      "t": 281885.4166666668,
      "d": 307.29166666668607,
      "v": 122
    },
    {
      "midi": 67,
      "hit": false,
      "t": 282026.0416666668,
      "d": 114.58333333331393,
      "v": 82
    },
    {
      "midi": 38,
      "hit": false,
      "t": 282197.9166666668,
      "d": 406.25,
      "v": 122
    },
    {
      "midi": 59,
      "hit": false,
      "t": 282197.9166666668,
      "d": 1130.208333333314,
      "v": 122
    },
    {
      "midi": 55,
      "hit": false,
      "t": 282197.9166666668,
      "d": 1171.875,
      "v": 122
    },
    {
      "midi": 43,
      "hit": false,
      "t": 282510.4166666668,
      "d": 307.29166666668607,
      "v": 122
    },
    {
      "midi": 67,
      "hit": false,
      "t": 282520.83333333343,
      "d": 1640.6250000000582,
      "v": 93
    },
    {
      "midi": 71,
      "hit": false,
      "t": 282520.83333333343,
      "d": 1651.0416666667443,
      "v": 89
    },
    {
      "midi": 74,
      "hit": false,
      "t": 282531.2500000001,
      "d": 1651.0416666667443,
      "v": 85
    },
    {
      "midi": 69,
      "hit": false,
      "t": 282541.6666666668,
      "d": 1583.3333333333721,
      "v": 89
    },
    {
      "midi": 43,
      "hit": false,
      "t": 282822.9166666668,
      "d": 307.29166666668607,
      "v": 122
    },
    {
      "midi": 43,
      "hit": false,
      "t": 283135.4166666668,
      "d": 395.83333333331393,
      "v": 122
    },
    {
      "midi": 50,
      "hit": false,
      "t": 283447.9166666668,
      "d": 395.83333333331393,
      "v": 122
    },
    {
      "midi": 59,
      "hit": false,
      "t": 283447.9166666668,
      "d": 395.83333333331393,
      "v": 122
    },
    {
      "midi": 43,
      "hit": false,
      "t": 283760.4166666668,
      "d": 307.29166666662786,
      "v": 122
    },
    {
      "midi": 60,
      "hit": false,
      "t": 283760.4166666668,
      "d": 380.2083333332557,
      "v": 122
    },
    {
      "midi": 43,
      "hit": false,
      "t": 284072.91666666674,
      "d": 307.29166666662786,
      "v": 122
    },
    {
      "midi": 62,
      "hit": false,
      "t": 284072.91666666674,
      "d": 708.3333333332557,
      "v": 122
    },
    {
      "midi": 43,
      "hit": false,
      "t": 284385.4166666667,
      "d": 380.20833333331393,
      "v": 122
    },
    {
      "midi": 38,
      "hit": false,
      "t": 284697.9166666667,
      "d": 307.29166666662786,
      "v": 122
    },
    {
      "midi": 57,
      "hit": false,
      "t": 284697.9166666667,
      "d": 447.91666666662786,
      "v": 122
    },
    {
      "midi": 67,
      "hit": false,
      "t": 284697.9166666667,
      "d": 1140.625,
      "v": 122
    },
    {
      "midi": 64,
      "hit": false,
      "t": 284697.9166666667,
      "d": 1171.875,
      "v": 122
    },
    {
      "midi": 60,
      "hit": false,
      "t": 284697.9166666667,
      "d": 1197.916666666686,
      "v": 122
    },
    {
      "midi": 45,
      "hit": false,
      "t": 285000.0000000002,
      "d": 2401.041666666628,
      "v": 82
    },
    {
      "midi": 45,
      "hit": false,
      "t": 285010.4166666666,
      "d": 614.5833333333721,
      "v": 122
    },
    {
      "midi": 40,
      "hit": false,
      "t": 285447.91666666686,
      "d": 1973.9583333332557,
      "v": 82
    },
    {
      "midi": 45,
      "hit": false,
      "t": 285635.4166666667,
      "d": 572.9166666666861,
      "v": 122
    },
    {
      "midi": 67,
      "hit": false,
      "t": 285947.9166666667,
      "d": 307.29166666668607,
      "v": 122
    },
    {
      "midi": 59,
      "hit": false,
      "t": 285947.9166666667,
      "d": 421.875,
      "v": 122
    },
    {
      "midi": 55,
      "hit": false,
      "t": 285953.1250000002,
      "d": 656.2500000000582,
      "v": 64
    },
    {
      "midi": 52,
      "hit": false,
      "t": 285953.1250000002,
      "d": 713.5416666666861,
      "v": 64
    },
    {
      "midi": 60,
      "hit": false,
      "t": 285963.54166666686,
      "d": 666.6666666666861,
      "v": 85
    },
    {
      "midi": 45,
      "hit": false,
      "t": 286260.4166666667,
      "d": 307.29166666668607,
      "v": 122
    },
    {
      "midi": 67,
      "hit": false,
      "t": 286260.4166666667,
      "d": 307.29166666668607,
      "v": 122
    },
    {
      "midi": 60,
      "hit": false,
      "t": 286260.4166666667,
      "d": 395.83333333331393,
      "v": 122
    },
    {
      "midi": 43,
      "hit": false,
      "t": 286572.9166666667,
      "d": 307.29166666662786,
      "v": 122
    },
    {
      "midi": 67,
      "hit": false,
      "t": 286572.9166666667,
      "d": 557.2916666666279,
      "v": 122
    },
    {
      "midi": 62,
      "hit": false,
      "t": 286572.9166666667,
      "d": 682.2916666666279,
      "v": 122
    },
    {
      "midi": 45,
      "hit": false,
      "t": 286885.4166666666,
      "d": 406.25,
      "v": 122
    },
    {
      "midi": 60,
      "hit": false,
      "t": 286906.2500000002,
      "d": 239.58333333331393,
      "v": 82
    },
    {
      "midi": 55,
      "hit": false,
      "t": 287031.2500000002,
      "d": 317.70833333331393,
      "v": 62
    },
    {
      "midi": 47,
      "hit": false,
      "t": 287197.9166666666,
      "d": 380.20833333331393,
      "v": 122
    },
    {
      "midi": 67,
      "hit": false,
      "t": 287197.9166666666,
      "d": 541.6666666666279,
      "v": 122
    },
    {
      "midi": 64,
      "hit": false,
      "t": 287197.9166666666,
      "d": 651.0416666666279,
      "v": 122
    },
    {
      "midi": 36,
      "hit": false,
      "t": 287500.0000000001,
      "d": 2500,
      "v": 63
    },
    {
      "midi": 43,
      "hit": false,
      "t": 287500.0000000001,
      "d": 2500,
      "v": 70
    },
    {
      "midi": 55,
      "hit": false,
      "t": 287500.0000000001,
      "d": 2500,
      "v": 57
    },
    {
      "midi": 64,
      "hit": false,
      "t": 287500.0000000001,
      "d": 2500,
      "v": 82
    },
    {
      "midi": 48,
      "hit": false,
      "t": 287510.4166666666,
      "d": 572.9166666666279,
      "v": 122
    },
    {
      "midi": 67,
      "hit": false,
      "t": 287531.2500000001,
      "d": 2468.75,
      "v": 82
    },
    {
      "midi": 62,
      "hit": false,
      "t": 287822.91666666657,
      "d": 859.375,
      "v": 122
    },
    {
      "midi": 67,
      "hit": false,
      "t": 287822.91666666657,
      "d": 859.375,
      "v": 122
    },
    {
      "midi": 48,
      "hit": false,
      "t": 288135.41666666657,
      "d": 614.5833333333139,
      "v": 122
    },
    {
      "midi": 48,
      "hit": false,
      "t": 288760.41666666657,
      "d": 307.29166666668607,
      "v": 122
    },
    {
      "midi": 64,
      "hit": false,
      "t": 288760.41666666657,
      "d": 406.25,
      "v": 122
    },
    {
      "midi": 60,
      "hit": false,
      "t": 288760.41666666657,
      "d": 421.875,
      "v": 122
    },
    {
      "midi": 59,
      "hit": false,
      "t": 289072.91666666657,
      "d": 395.83333333331393,
      "v": 122
    },
    {
      "midi": 48,
      "hit": false,
      "t": 289072.91666666657,
      "d": 406.25,
      "v": 122
    },
    {
      "midi": 62,
      "hit": false,
      "t": 289072.91666666657,
      "d": 406.25,
      "v": 122
    },
    {
      "midi": 60,
      "hit": false,
      "t": 289385.41666666657,
      "d": 421.875,
      "v": 122
    },
    {
      "midi": 57,
      "hit": false,
      "t": 289385.41666666657,
      "d": 447.91666666668607,
      "v": 122
    },
    {
      "midi": 50,
      "hit": false,
      "t": 289385.41666666657,
      "d": 734.375,
      "v": 122
    },
    {
      "midi": 59,
      "hit": false,
      "t": 289697.91666666657,
      "d": 869.7916666666861,
      "v": 122
    },
    {
      "midi": 62,
      "hit": false,
      "t": 289697.91666666657,
      "d": 869.7916666666861,
      "v": 122
    },
    {
      "midi": 43,
      "hit": false,
      "t": 290000.0000000001,
      "d": 2401.041666666628,
      "v": 82
    },
    {
      "midi": 43,
      "hit": false,
      "t": 290010.41666666657,
      "d": 614.5833333333721,
      "v": 122
    },
    {
      "midi": 38,
      "hit": false,
      "t": 290447.9166666668,
      "d": 1973.9583333332557,
      "v": 82
    },
    {
      "midi": 43,
      "hit": false,
      "t": 290635.4166666666,
      "d": 614.5833333333139,
      "v": 122
    },
    {
      "midi": 62,
      "hit": false,
      "t": 290635.4166666666,
      "d": 614.5833333333139,
      "v": 122
    },
    {
      "midi": 59,
      "hit": false,
      "t": 290635.4166666666,
      "d": 718.75,
      "v": 122
    },
    {
      "midi": 62,
      "hit": false,
      "t": 290953.1250000001,
      "d": 656.2500000000582,
      "v": 64
    },
    {
      "midi": 59,
      "hit": false,
      "t": 290953.1250000001,
      "d": 713.5416666666861,
      "v": 64
    },
    {
      "midi": 67,
      "hit": false,
      "t": 290963.5416666668,
      "d": 666.6666666666861,
      "v": 85
    },
    {
      "midi": 43,
      "hit": false,
      "t": 291260.4166666666,
      "d": 307.29166666668607,
      "v": 122
    },
    {
      "midi": 62,
      "hit": false,
      "t": 291260.4166666666,
      "d": 307.29166666668607,
      "v": 122
    },
    {
      "midi": 57,
      "hit": false,
      "t": 291260.4166666666,
      "d": 406.25,
      "v": 122
    },
    {
      "midi": 43,
      "hit": false,
      "t": 291572.9166666666,
      "d": 406.25,
      "v": 122
    },
    {
      "midi": 55,
      "hit": false,
      "t": 291572.9166666666,
      "d": 869.7916666666861,
      "v": 122
    },
    {
      "midi": 62,
      "hit": false,
      "t": 291572.9166666666,
      "d": 885.4166666666861,
      "v": 122
    },
    {
      "midi": 45,
      "hit": false,
      "t": 291885.4166666666,
      "d": 692.7083333333139,
      "v": 122
    },
    {
      "midi": 67,
      "hit": false,
      "t": 291906.2500000001,
      "d": 239.58333333331393,
      "v": 82
    },
    {
      "midi": 62,
      "hit": false,
      "t": 292031.2500000001,
      "d": 317.70833333331393,
      "v": 62
    },
    {
      "midi": 57,
      "hit": false,
      "t": 292500.00000000006,
      "d": 1046.8749999999418,
      "v": 72
    },
    {
      "midi": 66,
      "hit": false,
      "t": 292500.00000000006,
      "d": 1088.5416666666279,
      "v": 57
    },
    {
      "midi": 50,
      "hit": false,
      "t": 292500.00000000006,
      "d": 1114.583333333314,
      "v": 61
    },
    {
      "midi": 66,
      "hit": false,
      "t": 292510.4166666666,
      "d": 395.83333333331393,
      "v": 122
    },
    {
      "midi": 62,
      "hit": false,
      "t": 292510.4166666666,
      "d": 406.25,
      "v": 122
    },
    {
      "midi": 57,
      "hit": false,
      "t": 292510.4166666666,
      "d": 421.875,
      "v": 122
    },
    {
      "midi": 50,
      "hit": false,
      "t": 292510.4166666666,
      "d": 869.7916666666861,
      "v": 122
    },
    {
      "midi": 62,
      "hit": false,
      "t": 292536.4583333334,
      "d": 1078.125,
      "v": 68
    },
    {
      "midi": 69,
      "hit": false,
      "t": 292536.4583333334,
      "d": 1098.958333333314,
      "v": 87
    },
    {
      "midi": 59,
      "hit": false,
      "t": 292822.9166666666,
      "d": 307.29166666668607,
      "v": 122
    },
    {
      "midi": 57,
      "hit": false,
      "t": 293135.4166666666,
      "d": 395.83333333331393,
      "v": 122
    },
    {
      "midi": 55,
      "hit": false,
      "t": 293447.9166666666,
      "d": 614.5833333333139,
      "v": 122
    },
    {
      "midi": 62,
      "hit": false,
      "t": 293447.9166666666,
      "d": 614.5833333333139,
      "v": 122
    },
    {
      "midi": 48,
      "hit": false,
      "t": 293447.9166666666,
      "d": 1036.458333333314,
      "v": 122
    },
    {
      "midi": 64,
      "hit": false,
      "t": 293484.37499999994,
      "d": 578.125,
      "v": 122
    },
    {
      "midi": 69,
      "hit": false,
      "t": 294062.5,
      "d": 411.45833333331393,
      "v": 87
    },
    {
      "midi": 57,
      "hit": false,
      "t": 294072.9166666666,
      "d": 395.83333333331393,
      "v": 122
    },
    {
      "midi": 62,
      "hit": false,
      "t": 294072.9166666666,
      "d": 395.83333333331393,
      "v": 122
    },
    {
      "midi": 66,
      "hit": false,
      "t": 294072.9166666666,
      "d": 395.83333333331393,
      "v": 122
    },
    {
      "midi": 66,
      "hit": false,
      "t": 294375,
      "d": 354.16666666668607,
      "v": 85
    },
    {
      "midi": 59,
      "hit": false,
      "t": 294385.4166666666,
      "d": 395.83333333331393,
      "v": 122
    },
    {
      "midi": 47,
      "hit": false,
      "t": 294385.4166666666,
      "d": 624.9999999999418,
      "v": 122
    },
    {
      "midi": 62,
      "hit": false,
      "t": 294687.5,
      "d": 171.875,
      "v": 61
    },
    {
      "midi": 57,
      "hit": false,
      "t": 294697.9166666666,
      "d": 307.29166666662786,
      "v": 122
    },
    {
      "midi": 45,
      "hit": false,
      "t": 295000,
      "d": 2401.041666666628,
      "v": 82
    },
    {
      "midi": 45,
      "hit": false,
      "t": 295010.41666666657,
      "d": 614.5833333333139,
      "v": 122
    },
    {
      "midi": 57,
      "hit": false,
      "t": 295010.41666666657,
      "d": 614.5833333333139,
      "v": 122
    },
    {
      "midi": 67,
      "hit": false,
      "t": 295010.41666666657,
      "d": 828.125,
      "v": 122
    },
    {
      "midi": 64,
      "hit": false,
      "t": 295010.41666666657,
      "d": 869.7916666666861,
      "v": 122
    },
    {
      "midi": 60,
      "hit": false,
      "t": 295010.41666666657,
      "d": 885.4166666666861,
      "v": 122
    },
    {
      "midi": 40,
      "hit": false,
      "t": 295447.9166666667,
      "d": 1973.9583333332557,
      "v": 82
    },
    {
      "midi": 45,
      "hit": false,
      "t": 295635.41666666657,
      "d": 557.2916666666861,
      "v": 122
    },
    {
      "midi": 67,
      "hit": false,
      "t": 295947.91666666657,
      "d": 307.29166666668607,
      "v": 122
    },
    {
      "midi": 59,
      "hit": false,
      "t": 295947.91666666657,
      "d": 437.5,
      "v": 122
    },
    {
      "midi": 55,
      "hit": false,
      "t": 295953.125,
      "d": 656.2500000000582,
      "v": 64
    },
    {
      "midi": 52,
      "hit": false,
      "t": 295953.125,
      "d": 713.5416666666861,
      "v": 64
    },
    {
      "midi": 60,
      "hit": false,
      "t": 295963.5416666667,
      "d": 666.6666666666861,
      "v": 85
    },
    {
      "midi": 67,
      "hit": false,
      "t": 296260.41666666657,
      "d": 307.29166666668607,
      "v": 122
    },
    {
      "midi": 45,
      "hit": false,
      "t": 296260.41666666657,
      "d": 395.83333333331393,
      "v": 122
    },
    {
      "midi": 60,
      "hit": false,
      "t": 296260.41666666657,
      "d": 463.54166666662786,
      "v": 122
    },
    {
      "midi": 43,
      "hit": false,
      "t": 296572.91666666657,
      "d": 406.2499999999418,
      "v": 122
    },
    {
      "midi": 67,
      "hit": false,
      "t": 296572.91666666657,
      "d": 572.9166666666279,
      "v": 122
    },
    {
      "midi": 62,
      "hit": false,
      "t": 296572.91666666657,
      "d": 682.2916666666279,
      "v": 122
    },
    {
      "midi": 45,
      "hit": false,
      "t": 296885.4166666665,
      "d": 395.83333333337214,
      "v": 122
    },
    {
      "midi": 60,
      "hit": false,
      "t": 296906.25,
      "d": 239.58333333331393,
      "v": 82
    },
    {
      "midi": 55,
      "hit": false,
      "t": 297031.25,
      "d": 317.70833333331393,
      "v": 62
    },
    {
      "midi": 47,
      "hit": false,
      "t": 297197.9166666665,
      "d": 307.29166666668607,
      "v": 122
    },
    {
      "midi": 67,
      "hit": false,
      "t": 297197.9166666665,
      "d": 572.9166666666861,
      "v": 122
    },
    {
      "midi": 64,
      "hit": false,
      "t": 297197.9166666665,
      "d": 666.6666666666861,
      "v": 122
    },
    {
      "midi": 36,
      "hit": false,
      "t": 297499.99999999994,
      "d": 2500,
      "v": 63
    },
    {
      "midi": 43,
      "hit": false,
      "t": 297499.99999999994,
      "d": 2500,
      "v": 70
    },
    {
      "midi": 55,
      "hit": false,
      "t": 297499.99999999994,
      "d": 2500,
      "v": 57
    },
    {
      "midi": 64,
      "hit": false,
      "t": 297499.99999999994,
      "d": 2500,
      "v": 82
    },
    {
      "midi": 48,
      "hit": false,
      "t": 297510.4166666665,
      "d": 557.2916666666861,
      "v": 122
    },
    {
      "midi": 67,
      "hit": false,
      "t": 297531.24999999994,
      "d": 2468.75,
      "v": 82
    },
    {
      "midi": 62,
      "hit": false,
      "t": 297822.9166666665,
      "d": 828.125,
      "v": 122
    },
    {
      "midi": 67,
      "hit": false,
      "t": 297822.9166666665,
      "d": 869.7916666666861,
      "v": 122
    },
    {
      "midi": 48,
      "hit": false,
      "t": 298135.4166666665,
      "d": 614.5833333333721,
      "v": 122
    },
    {
      "midi": 62,
      "hit": false,
      "t": 298760.41666666657,
      "d": 229.16666666662786,
      "v": 122
    },
    {
      "midi": 71,
      "hit": false,
      "t": 298760.41666666657,
      "d": 229.16666666662786,
      "v": 122
    },
    {
      "midi": 48,
      "hit": false,
      "t": 298760.41666666657,
      "d": 260.41666666662786,
      "v": 122
    },
    {
      "midi": 69,
      "hit": false,
      "t": 298921.8749999999,
      "d": 229.16666666662786,
      "v": 122
    },
    {
      "midi": 48,
      "hit": false,
      "t": 299072.9166666665,
      "d": 406.25,
      "v": 122
    },
    {
      "midi": 67,
      "hit": false,
      "t": 299072.9166666665,
      "d": 406.25,
      "v": 122
    },
    {
      "midi": 62,
      "hit": false,
      "t": 299385.4166666665,
      "d": 307.29166666668607,
      "v": 122
    },
    {
      "midi": 69,
      "hit": false,
      "t": 299385.4166666665,
      "d": 395.83333333331393,
      "v": 122
    },
    {
      "midi": 50,
      "hit": false,
      "t": 299385.4166666665,
      "d": 651.0416666666861,
      "v": 122
    },
    {
      "midi": 67,
      "hit": false,
      "t": 299697.9166666665,
      "d": 869.7916666666861,
      "v": 122
    },
    {
      "midi": 62,
      "hit": false,
      "t": 299697.9166666665,
      "d": 895.8333333333721,
      "v": 122
    },
    {
      "midi": 43,
      "hit": false,
      "t": 300010.4166666665,
      "d": 1171.8750000000582,
      "v": 122
    },
    {
      "midi": 62,
      "hit": false,
      "t": 300010.4166666666,
      "d": 927.0833333333721,
      "v": 62
    },
    {
      "midi": 59,
      "hit": false,
      "t": 300010.4166666666,
      "d": 1000,
      "v": 61
    },
    {
      "midi": 38,
      "hit": false,
      "t": 300020.8333333333,
      "d": 572.9166666666861,
      "v": 70
    },
    {
      "midi": 71,
      "hit": false,
      "t": 300020.8333333333,
      "d": 953.125,
      "v": 82
    },
    {
      "midi": 43,
      "hit": false,
      "t": 300031.25,
      "d": 505.20833333331393,
      "v": 53
    },
    {
      "midi": 67,
      "hit": false,
      "t": 300635.41666666657,
      "d": 682.2916666666861,
      "v": 122
    },
    {
      "midi": 62,
      "hit": false,
      "t": 300635.41666666657,
      "d": 708.3333333333721,
      "v": 122
    },
    {
      "midi": 71,
      "hit": false,
      "t": 300635.41666666657,
      "d": 708.3333333333721,
      "v": 122
    },
    {
      "midi": 43,
      "hit": false,
      "t": 301260.41666666657,
      "d": 541.6666666667443,
      "v": 122
    },
    {
      "midi": 59,
      "hit": false,
      "t": 301260.4166666666,
      "d": 250.0000000000582,
      "v": 61
    },
    {
      "midi": 62,
      "hit": false,
      "t": 301260.4166666666,
      "d": 250.0000000000582,
      "v": 62
    },
    {
      "midi": 38,
      "hit": false,
      "t": 301270.8333333333,
      "d": 239.58333333337214,
      "v": 70
    },
    {
      "midi": 71,
      "hit": false,
      "t": 301270.8333333333,
      "d": 239.58333333337214,
      "v": 82
    },
    {
      "midi": 43,
      "hit": false,
      "t": 301281.25,
      "d": 229.16666666668607,
      "v": 53
    },
    {
      "midi": 62,
      "hit": false,
      "t": 301572.9166666666,
      "d": 572.9166666666861,
      "v": 122
    },
    {
      "midi": 71,
      "hit": false,
      "t": 301572.9166666666,
      "d": 666.6666666666861,
      "v": 122
    },
    {
      "midi": 67,
      "hit": false,
      "t": 301572.9166666666,
      "d": 692.7083333333721,
      "v": 122
    },
    {
      "midi": 57,
      "hit": false,
      "t": 301572.9166666667,
      "d": 916.6666666666861,
      "v": 61
    },
    {
      "midi": 60,
      "hit": false,
      "t": 301572.9166666667,
      "d": 916.6666666666861,
      "v": 62
    },
    {
      "midi": 38,
      "hit": false,
      "t": 301583.3333333334,
      "d": 875,
      "v": 70
    },
    {
      "midi": 65,
      "hit": false,
      "t": 301583.3333333334,
      "d": 906.25,
      "v": 82
    },
    {
      "midi": 43,
      "hit": false,
      "t": 301593.75000000006,
      "d": 807.2916666666279,
      "v": 53
    },
    {
      "midi": 43,
      "hit": false,
      "t": 301885.4166666666,
      "d": 572.9166666666861,
      "v": 122
    },
    {
      "midi": 69,
      "hit": false,
      "t": 302197.9166666666,
      "d": 869.7916666666861,
      "v": 122
    },
    {
      "midi": 62,
      "hit": false,
      "t": 302197.9166666666,
      "d": 885.4166666666861,
      "v": 122
    },
    {
      "midi": 72,
      "hit": false,
      "t": 302197.9166666666,
      "d": 885.4166666666861,
      "v": 122
    },
    {
      "midi": 38,
      "hit": false,
      "t": 302500.00000000006,
      "d": 2500,
      "v": 70
    },
    {
      "midi": 43,
      "hit": false,
      "t": 302500.00000000006,
      "d": 2500,
      "v": 63
    },
    {
      "midi": 60,
      "hit": false,
      "t": 302500.00000000006,
      "d": 2500,
      "v": 57
    },
    {
      "midi": 65,
      "hit": false,
      "t": 302500.00000000006,
      "d": 2500,
      "v": 82
    },
    {
      "midi": 43,
      "hit": false,
      "t": 302510.4166666666,
      "d": 1182.291666666686,
      "v": 122
    },
    {
      "midi": 69,
      "hit": false,
      "t": 302531.25000000006,
      "d": 2468.75,
      "v": 82
    },
    {
      "midi": 62,
      "hit": false,
      "t": 303135.4166666666,
      "d": 708.3333333333139,
      "v": 122
    },
    {
      "midi": 69,
      "hit": false,
      "t": 303135.4166666666,
      "d": 708.3333333333139,
      "v": 122
    },
    {
      "midi": 72,
      "hit": false,
      "t": 303135.4166666666,
      "d": 718.75,
      "v": 122
    },
    {
      "midi": 43,
      "hit": false,
      "t": 303760.4166666666,
      "d": 572.9166666666861,
      "v": 122
    },
    {
      "midi": 62,
      "hit": false,
      "t": 304072.9166666666,
      "d": 572.9166666666861,
      "v": 122
    },
    {
      "midi": 69,
      "hit": false,
      "t": 304072.9166666666,
      "d": 718.75,
      "v": 122
    },
    {
      "midi": 72,
      "hit": false,
      "t": 304072.9166666666,
      "d": 718.75,
      "v": 122
    },
    {
      "midi": 43,
      "hit": false,
      "t": 304385.4166666666,
      "d": 614.5833333333139,
      "v": 122
    },
    {
      "midi": 71,
      "hit": false,
      "t": 304697.9166666666,
      "d": 843.75,
      "v": 122
    },
    {
      "midi": 67,
      "hit": false,
      "t": 304697.9166666666,
      "d": 869.7916666666861,
      "v": 122
    },
    {
      "midi": 62,
      "hit": false,
      "t": 304697.9166666666,
      "d": 885.4166666666861,
      "v": 122
    },
    {
      "midi": 43,
      "hit": false,
      "t": 305010.4166666666,
      "d": 1171.875,
      "v": 122
    },
    {
      "midi": 62,
      "hit": false,
      "t": 305010.41666666674,
      "d": 927.0833333333721,
      "v": 62
    },
    {
      "midi": 59,
      "hit": false,
      "t": 305010.41666666674,
      "d": 1000,
      "v": 61
    },
    {
      "midi": 38,
      "hit": false,
      "t": 305020.83333333343,
      "d": 572.9166666666861,
      "v": 70
    },
    {
      "midi": 71,
      "hit": false,
      "t": 305020.83333333343,
      "d": 953.125,
      "v": 82
    },
    {
      "midi": 43,
      "hit": false,
      "t": 305031.2500000001,
      "d": 505.20833333331393,
      "v": 53
    },
    {
      "midi": 67,
      "hit": false,
      "t": 305635.4166666666,
      "d": 692.7083333333139,
      "v": 122
    },
    {
      "midi": 71,
      "hit": false,
      "t": 305635.4166666666,
      "d": 692.7083333333139,
      "v": 122
    },
    {
      "midi": 62,
      "hit": false,
      "t": 305635.4166666666,
      "d": 708.3333333333139,
      "v": 122
    },
    {
      "midi": 43,
      "hit": false,
      "t": 306260.4166666666,
      "d": 541.6666666666861,
      "v": 122
    },
    {
      "midi": 59,
      "hit": false,
      "t": 306260.41666666674,
      "d": 250.0000000000582,
      "v": 61
    },
    {
      "midi": 62,
      "hit": false,
      "t": 306260.41666666674,
      "d": 250.0000000000582,
      "v": 62
    },
    {
      "midi": 38,
      "hit": false,
      "t": 306270.83333333343,
      "d": 239.58333333337214,
      "v": 70
    },
    {
      "midi": 71,
      "hit": false,
      "t": 306270.83333333343,
      "d": 239.58333333337214,
      "v": 82
    },
    {
      "midi": 43,
      "hit": false,
      "t": 306281.2500000001,
      "d": 229.16666666668607,
      "v": 53
    },
    {
      "midi": 62,
      "hit": false,
      "t": 306572.9166666666,
      "d": 557.2916666666861,
      "v": 122
    },
    {
      "midi": 67,
      "hit": false,
      "t": 306572.9166666666,
      "d": 666.6666666666861,
      "v": 122
    },
    {
      "midi": 71,
      "hit": false,
      "t": 306572.9166666666,
      "d": 734.375,
      "v": 122
    },
    {
      "midi": 57,
      "hit": false,
      "t": 306572.9166666668,
      "d": 916.6666666666861,
      "v": 61
    },
    {
      "midi": 60,
      "hit": false,
      "t": 306572.9166666668,
      "d": 916.6666666666861,
      "v": 62
    },
    {
      "midi": 38,
      "hit": false,
      "t": 306583.3333333335,
      "d": 875,
      "v": 70
    },
    {
      "midi": 65,
      "hit": false,
      "t": 306583.3333333335,
      "d": 906.25,
      "v": 82
    },
    {
      "midi": 43,
      "hit": false,
      "t": 306593.7500000002,
      "d": 807.2916666666279,
      "v": 53
    },
    {
      "midi": 43,
      "hit": false,
      "t": 306885.4166666666,
      "d": 557.2916666666861,
      "v": 122
    },
    {
      "midi": 62,
      "hit": false,
      "t": 307197.9166666666,
      "d": 869.7916666666861,
      "v": 122
    },
    {
      "midi": 69,
      "hit": false,
      "t": 307197.9166666666,
      "d": 869.7916666666861,
      "v": 122
    },
    {
      "midi": 72,
      "hit": false,
      "t": 307197.9166666666,
      "d": 885.4166666666861,
      "v": 122
    },
    {
      "midi": 65,
      "hit": false,
      "t": 307500.0000000002,
      "d": 1427.083333333314,
      "v": 64
    },
    {
      "midi": 60,
      "hit": false,
      "t": 307500.0000000002,
      "d": 2427.083333333314,
      "v": 57
    },
    {
      "midi": 62,
      "hit": false,
      "t": 307500.0000000002,
      "d": 2437.5,
      "v": 78
    },
    {
      "midi": 69,
      "hit": false,
      "t": 307505.2083333335,
      "d": 1432.291666666686,
      "v": 87
    },
    {
      "midi": 43,
      "hit": false,
      "t": 307510.4166666666,
      "d": 1182.291666666686,
      "v": 122
    },
    {
      "midi": 62,
      "hit": false,
      "t": 308135.4166666666,
      "d": 692.7083333333139,
      "v": 122
    },
    {
      "midi": 69,
      "hit": false,
      "t": 308135.4166666666,
      "d": 708.3333333333139,
      "v": 122
    },
    {
      "midi": 72,
      "hit": false,
      "t": 308135.4166666666,
      "d": 708.3333333333139,
      "v": 122
    },
    {
      "midi": 43,
      "hit": false,
      "t": 308760.4166666666,
      "d": 557.2916666666861,
      "v": 122
    },
    {
      "midi": 74,
      "hit": false,
      "t": 309062.5000000002,
      "d": 541.6666666666861,
      "v": 85
    },
    {
      "midi": 62,
      "hit": false,
      "t": 309072.9166666666,
      "d": 572.9166666666861,
      "v": 122
    },
    {
      "midi": 69,
      "hit": false,
      "t": 309072.9166666666,
      "d": 708.3333333333139,
      "v": 122
    },
    {
      "midi": 72,
      "hit": false,
      "t": 309072.9166666666,
      "d": 708.3333333333139,
      "v": 122
    },
    {
      "midi": 69,
      "hit": false,
      "t": 309375.0000000002,
      "d": 421.875,
      "v": 74
    },
    {
      "midi": 43,
      "hit": false,
      "t": 309385.4166666666,
      "d": 583.3333333333139,
      "v": 122
    },
    {
      "midi": 65,
      "hit": false,
      "t": 309687.5000000002,
      "d": 203.125,
      "v": 72
    },
    {
      "midi": 62,
      "hit": false,
      "t": 309697.9166666666,
      "d": 869.7916666666861,
      "v": 122
    },
    {
      "midi": 67,
      "hit": false,
      "t": 309697.9166666666,
      "d": 869.7916666666861,
      "v": 122
    },
    {
      "midi": 71,
      "hit": false,
      "t": 309697.9166666666,
      "d": 869.7916666666861,
      "v": 122
    },
    {
      "midi": 43,
      "hit": false,
      "t": 310010.4166666666,
      "d": 1171.875,
      "v": 122
    },
    {
      "midi": 62,
      "hit": false,
      "t": 310010.41666666686,
      "d": 927.0833333333721,
      "v": 62
    },
    {
      "midi": 59,
      "hit": false,
      "t": 310010.41666666686,
      "d": 1000,
      "v": 61
    },
    {
      "midi": 38,
      "hit": false,
      "t": 310020.83333333355,
      "d": 572.9166666666861,
      "v": 70
    },
    {
      "midi": 71,
      "hit": false,
      "t": 310020.83333333355,
      "d": 953.125,
      "v": 82
    },
    {
      "midi": 43,
      "hit": false,
      "t": 310031.25000000023,
      "d": 505.20833333331393,
      "v": 53
    },
    {
      "midi": 71,
      "hit": false,
      "t": 310635.4166666666,
      "d": 708.3333333333139,
      "v": 122
    },
    {
      "midi": 62,
      "hit": false,
      "t": 310635.4166666666,
      "d": 718.75,
      "v": 122
    },
    {
      "midi": 67,
      "hit": false,
      "t": 310635.4166666666,
      "d": 718.75,
      "v": 122
    },
    {
      "midi": 43,
      "hit": false,
      "t": 311260.4166666666,
      "d": 541.6666666666861,
      "v": 122
    },
    {
      "midi": 59,
      "hit": false,
      "t": 311260.41666666686,
      "d": 250.0000000000582,
      "v": 61
    },
    {
      "midi": 62,
      "hit": false,
      "t": 311260.41666666686,
      "d": 250.0000000000582,
      "v": 62
    },
    {
      "midi": 38,
      "hit": false,
      "t": 311270.83333333355,
      "d": 239.58333333337214,
      "v": 70
    },
    {
      "midi": 71,
      "hit": false,
      "t": 311270.83333333355,
      "d": 239.58333333337214,
      "v": 82
    },
    {
      "midi": 43,
      "hit": false,
      "t": 311281.25000000023,
      "d": 229.16666666668607,
      "v": 53
    },
    {
      "midi": 62,
      "hit": false,
      "t": 311572.9166666666,
      "d": 557.2916666666861,
      "v": 122
    },
    {
      "midi": 67,
      "hit": false,
      "t": 311572.9166666666,
      "d": 708.3333333333139,
      "v": 122
    },
    {
      "midi": 71,
      "hit": false,
      "t": 311572.9166666666,
      "d": 750,
      "v": 122
    },
    {
      "midi": 57,
      "hit": false,
      "t": 311572.9166666669,
      "d": 916.6666666666861,
      "v": 61
    },
    {
      "midi": 60,
      "hit": false,
      "t": 311572.9166666669,
      "d": 916.6666666666861,
      "v": 62
    },
    {
      "midi": 38,
      "hit": false,
      "t": 311583.3333333336,
      "d": 875,
      "v": 70
    },
    {
      "midi": 65,
      "hit": false,
      "t": 311583.3333333336,
      "d": 906.25,
      "v": 82
    },
    {
      "midi": 43,
      "hit": false,
      "t": 311593.7500000003,
      "d": 807.2916666666279,
      "v": 53
    },
    {
      "midi": 43,
      "hit": false,
      "t": 311885.4166666666,
      "d": 583.3333333333139,
      "v": 122
    },
    {
      "midi": 62,
      "hit": false,
      "t": 312197.9166666666,
      "d": 885.4166666666861,
      "v": 122
    },
    {
      "midi": 69,
      "hit": false,
      "t": 312197.9166666666,
      "d": 885.4166666666861,
      "v": 122
    },
    {
      "midi": 72,
      "hit": false,
      "t": 312197.9166666666,
      "d": 885.4166666666861,
      "v": 122
    },
    {
      "midi": 43,
      "hit": false,
      "t": 312510.4166666666,
      "d": 1171.875,
      "v": 122
    },
    {
      "midi": 60,
      "hit": false,
      "t": 312510.416666667,
      "d": 927.0833333333721,
      "v": 62
    },
    {
      "midi": 57,
      "hit": false,
      "t": 312510.416666667,
      "d": 1000,
      "v": 61
    },
    {
      "midi": 38,
      "hit": false,
      "t": 312520.83333333366,
      "d": 572.9166666666861,
      "v": 70
    },
    {
      "midi": 65,
      "hit": false,
      "t": 312520.83333333366,
      "d": 953.125,
      "v": 82
    },
    {
      "midi": 43,
      "hit": false,
      "t": 312531.25000000035,
      "d": 505.20833333331393,
      "v": 53
    },
    {
      "midi": 62,
      "hit": false,
      "t": 313135.4166666666,
      "d": 682.2916666666861,
      "v": 122
    },
    {
      "midi": 69,
      "hit": false,
      "t": 313135.4166666666,
      "d": 692.7083333333721,
      "v": 122
    },
    {
      "midi": 72,
      "hit": false,
      "t": 313135.4166666666,
      "d": 692.7083333333721,
      "v": 122
    },
    {
      "midi": 43,
      "hit": false,
      "t": 313760.4166666666,
      "d": 557.2916666667443,
      "v": 122
    },
    {
      "midi": 65,
      "hit": false,
      "t": 314062.5000000003,
      "d": 494.79166666668607,
      "v": 102
    },
    {
      "midi": 62,
      "hit": false,
      "t": 314072.9166666667,
      "d": 572.9166666666861,
      "v": 122
    },
    {
      "midi": 69,
      "hit": false,
      "t": 314072.9166666667,
      "d": 692.7083333333139,
      "v": 122
    },
    {
      "midi": 72,
      "hit": false,
      "t": 314072.9166666667,
      "d": 692.7083333333139,
      "v": 122
    },
    {
      "midi": 43,
      "hit": false,
      "t": 314385.4166666667,
      "d": 625,
      "v": 122
    },
    {
      "midi": 62,
      "hit": false,
      "t": 314531.2500000003,
      "d": 213.54166666668607,
      "v": 82
    },
    {
      "midi": 71,
      "hit": false,
      "t": 314697.9166666667,
      "d": 843.75,
      "v": 122
    },
    {
      "midi": 62,
      "hit": false,
      "t": 314697.9166666667,
      "d": 885.4166666666861,
      "v": 122
    },
    {
      "midi": 67,
      "hit": false,
      "t": 314697.9166666667,
      "d": 885.4166666666861,
      "v": 122
    },
    {
      "midi": 43,
      "hit": false,
      "t": 315010.4166666667,
      "d": 1182.291666666686,
      "v": 122
    },
    {
      "midi": 62,
      "hit": false,
      "t": 315010.416666667,
      "d": 927.0833333333721,
      "v": 62
    },
    {
      "midi": 59,
      "hit": false,
      "t": 315010.416666667,
      "d": 1000,
      "v": 61
    },
    {
      "midi": 38,
      "hit": false,
      "t": 315020.83333333366,
      "d": 572.9166666666861,
      "v": 70
    },
    {
      "midi": 71,
      "hit": false,
      "t": 315020.83333333366,
      "d": 953.125,
      "v": 82
    },
    {
      "midi": 43,
      "hit": false,
      "t": 315031.25000000035,
      "d": 505.20833333331393,
      "v": 53
    },
    {
      "midi": 62,
      "hit": false,
      "t": 315635.4166666667,
      "d": 718.75,
      "v": 122
    },
    {
      "midi": 67,
      "hit": false,
      "t": 315635.4166666667,
      "d": 718.75,
      "v": 122
    },
    {
      "midi": 71,
      "hit": false,
      "t": 315635.4166666667,
      "d": 718.75,
      "v": 122
    },
    {
      "midi": 43,
      "hit": false,
      "t": 316260.4166666667,
      "d": 557.2916666666861,
      "v": 122
    },
    {
      "midi": 59,
      "hit": false,
      "t": 316260.416666667,
      "d": 250.0000000000582,
      "v": 61
    },
    {
      "midi": 62,
      "hit": false,
      "t": 316260.416666667,
      "d": 250.0000000000582,
      "v": 62
    },
    {
      "midi": 38,
      "hit": false,
      "t": 316270.83333333366,
      "d": 239.58333333337214,
      "v": 70
    },
    {
      "midi": 71,
      "hit": false,
      "t": 316270.83333333366,
      "d": 239.58333333337214,
      "v": 82
    },
    {
      "midi": 43,
      "hit": false,
      "t": 316281.25000000035,
      "d": 229.16666666668607,
      "v": 53
    },
    {
      "midi": 62,
      "hit": false,
      "t": 316572.9166666667,
      "d": 572.9166666666861,
      "v": 122
    },
    {
      "midi": 67,
      "hit": false,
      "t": 316572.9166666667,
      "d": 692.7083333333139,
      "v": 122
    },
    {
      "midi": 71,
      "hit": false,
      "t": 316572.9166666667,
      "d": 734.375,
      "v": 122
    },
    {
      "midi": 57,
      "hit": false,
      "t": 316572.91666666704,
      "d": 916.6666666666861,
      "v": 61
    },
    {
      "midi": 60,
      "hit": false,
      "t": 316572.91666666704,
      "d": 916.6666666666861,
      "v": 62
    },
    {
      "midi": 38,
      "hit": false,
      "t": 316583.3333333337,
      "d": 875,
      "v": 70
    },
    {
      "midi": 65,
      "hit": false,
      "t": 316583.3333333337,
      "d": 906.25,
      "v": 82
    },
    {
      "midi": 43,
      "hit": false,
      "t": 316593.7500000004,
      "d": 807.2916666666279,
      "v": 53
    },
    {
      "midi": 43,
      "hit": false,
      "t": 316885.4166666667,
      "d": 541.6666666666861,
      "v": 122
    },
    {
      "midi": 62,
      "hit": false,
      "t": 317197.9166666667,
      "d": 895.8333333333139,
      "v": 122
    },
    {
      "midi": 69,
      "hit": false,
      "t": 317197.9166666667,
      "d": 895.8333333333139,
      "v": 122
    },
    {
      "midi": 72,
      "hit": false,
      "t": 317197.9166666667,
      "d": 895.8333333333139,
      "v": 122
    },
    {
      "midi": 57,
      "hit": false,
      "t": 317500.0000000004,
      "d": 1046.8749999999418,
      "v": 72
    },
    {
      "midi": 65,
      "hit": false,
      "t": 317500.0000000004,
      "d": 1088.5416666666279,
      "v": 57
    },
    {
      "midi": 43,
      "hit": false,
      "t": 317500.0000000004,
      "d": 1114.583333333314,
      "v": 61
    },
    {
      "midi": 43,
      "hit": false,
      "t": 317510.4166666667,
      "d": 1171.875,
      "v": 122
    },
    {
      "midi": 60,
      "hit": false,
      "t": 317536.4583333337,
      "d": 1078.125,
      "v": 68
    },
    {
      "midi": 69,
      "hit": false,
      "t": 317536.4583333337,
      "d": 1098.958333333314,
      "v": 87
    },
    {
      "midi": 62,
      "hit": false,
      "t": 318135.4166666667,
      "d": 692.7083333333139,
      "v": 122
    },
    {
      "midi": 69,
      "hit": false,
      "t": 318135.4166666667,
      "d": 708.3333333333139,
      "v": 122
    },
    {
      "midi": 72,
      "hit": false,
      "t": 318135.4166666667,
      "d": 708.3333333333139,
      "v": 122
    },
    {
      "midi": 43,
      "hit": false,
      "t": 318760.4166666667,
      "d": 583.3333333333139,
      "v": 122
    },
    {
      "midi": 69,
      "hit": false,
      "t": 319062.50000000035,
      "d": 411.45833333331393,
      "v": 87
    },
    {
      "midi": 62,
      "hit": false,
      "t": 319072.9166666667,
      "d": 557.2916666666861,
      "v": 122
    },
    {
      "midi": 72,
      "hit": false,
      "t": 319072.9166666667,
      "d": 708.3333333333139,
      "v": 122
    },
    {
      "midi": 69,
      "hit": false,
      "t": 319072.9166666667,
      "d": 718.75,
      "v": 122
    },
    {
      "midi": 65,
      "hit": false,
      "t": 319375.00000000035,
      "d": 354.16666666668607,
      "v": 85
    },
    {
      "midi": 43,
      "hit": false,
      "t": 319385.4166666667,
      "d": 541.6666666666861,
      "v": 122
    },
    {
      "midi": 60,
      "hit": false,
      "t": 319687.50000000035,
      "d": 171.875,
      "v": 61
    },
    {
      "midi": 62,
      "hit": false,
      "t": 319687.50000000035,
      "d": 270.83333333331393,
      "v": 87
    },
    {
      "midi": 67,
      "hit": false,
      "t": 319697.9166666667,
      "d": 2802.083333333314,
      "v": 122
    },
    {
      "midi": 71,
      "hit": false,
      "t": 319697.9166666667,
      "d": 2802.083333333314,
      "v": 122
    },
    {
      "midi": 62,
      "hit": false,
      "t": 319697.9166666667,
      "d": 2817.708333333314,
      "v": 122
    },
    {
      "midi": 43,
      "hit": false,
      "t": 320000.00000000035,
      "d": 2401.041666666628,
      "v": 82
    },
    {
      "midi": 43,
      "hit": false,
      "t": 320010.4166666667,
      "d": 2515.625,
      "v": 122
    },
    {
      "midi": 38,
      "hit": false,
      "t": 320447.91666666704,
      "d": 1973.9583333332557,
      "v": 82
    },
    {
      "midi": 62,
      "hit": false,
      "t": 320953.12500000035,
      "d": 656.2500000000582,
      "v": 64
    },
    {
      "midi": 59,
      "hit": false,
      "t": 320953.12500000035,
      "d": 713.5416666666861,
      "v": 64
    },
    {
      "midi": 67,
      "hit": false,
      "t": 320963.54166666704,
      "d": 666.6666666666861,
      "v": 85
    },
    {
      "midi": 67,
      "hit": false,
      "t": 321906.25000000035,
      "d": 239.58333333331393,
      "v": 82
    },
    {
      "midi": 62,
      "hit": false,
      "t": 322031.25000000035,
      "d": 317.70833333331393,
      "v": 62
    },
    {
      "midi": 43,
      "hit": false,
      "t": 322500.0000000003,
      "d": 1942.7083333332557,
      "v": 89
    },
    {
      "midi": 59,
      "hit": false,
      "t": 322536.4583333336,
      "d": 1791.6666666666279,
      "v": 91
    },
    {
      "midi": 62,
      "hit": false,
      "t": 322536.4583333336,
      "d": 2010.4166666666279,
      "v": 83
    },
    {
      "midi": 67,
      "hit": false,
      "t": 322552.0833333336,
      "d": 1656.2499999999418,
      "v": 95
    },
    {
      "midi": 71,
      "hit": false,
      "t": 322572.9166666669,
      "d": 2130.208333333314,
      "v": 93
    },
    {
      "midi": 83,
      "hit": false,
      "t": 323755.20833333355,
      "d": 1067.7083333333721,
      "v": 95
    },
    {
      "midi": 79,
      "hit": false,
      "t": 324057.29166666686,
      "d": 932.2916666667443,
      "v": 95
    },
    {
      "midi": 62,
      "hit": false,
      "t": 324687.50000000023,
      "d": 145.83333333337214,
      "v": 79
    },
    {
      "midi": 74,
      "hit": false,
      "t": 324718.75000000023,
      "d": 119.79166666668607,
      "v": 95
    },
    {
      "midi": 71,
      "hit": false,
      "t": 324838.5416666669,
      "d": 119.79166666668607,
      "v": 95
    },
    {
      "midi": 43,
      "hit": false,
      "t": 324958.3333333336,
      "d": 1953.1250000000582,
      "v": 59
    },
    {
      "midi": 71,
      "hit": false,
      "t": 325000.0000000003,
      "d": 1927.0833333333721,
      "v": 97
    },
    {
      "midi": 62,
      "hit": false,
      "t": 325000.0000000003,
      "d": 2265.625000000058,
      "v": 97
    },
    {
      "midi": 67,
      "hit": false,
      "t": 325000.0000000003,
      "d": 2500.000000000058,
      "v": 91
    },
    {
      "midi": 74,
      "hit": false,
      "t": 325041.666666667,
      "d": 1875,
      "v": 95
    },
    {
      "midi": 83,
      "hit": false,
      "t": 325093.7500000003,
      "d": 1692.7083333333721,
      "v": 95
    },
    {
      "midi": 59,
      "hit": false,
      "t": 325156.2500000003,
      "d": 1526.041666666686,
      "v": 91
    }
  ]
}