{
  "jsonPath": "Soundtracks/Video Game Music/Legend of Zelda Links Awakening/legend-of-zelda-links-awakening-level7eagletower.json",
  "path": "Soundtracks\\Video Game Music\\Legend of Zelda Links Awakening\\Legend_of_Zelda_Links_Awakening_Level7EagleTower.mid",
  "name": "Legend_of_Zelda_Links_Awakening_Level7EagleTower",
  "difficulty": "Intermediate",
  "bpm": 64,
  "notes": [
    {
      "midi": 69,
      "hit": false,
      "t": 0,
      "d": 234.375,
      "v": 100
    },
    {
      "midi": 73,
      "hit": false,
      "t": 234.375,
      "d": 234.375,
      "v": 100
    },
    {
      "midi": 72,
      "hit": false,
      "t": 468.75,
      "d": 234.375,
      "v": 100
    },
    {
      "midi": 73,
      "hit": false,
      "t": 703.125,
      "d": 234.375,
      "v": 100
    },
    {
      "midi": 69,
      "hit": false,
      "t": 937.5,
      "d": 234.375,
      "v": 100
    },
    {
      "midi": 73,
      "hit": false,
      "t": 1171.875,
      "d": 234.375,
      "v": 100
    },
    {
      "midi": 72,
      "hit": false,
      "t": 1406.25,
      "d": 234.375,
      "v": 100
    },
    {
      "midi": 73,
      "hit": false,
      "t": 1640.625,
      "d": 234.375,
      "v": 100
    },
    {
      "midi": 69,
      "hit": false,
      "t": 1875,
      "d": 234.375,
      "v": 100
    },
    {
      "midi": 73,
      "hit": false,
      "t": 2109.375,
      "d": 234.375,
      "v": 100
    },
    {
      "midi": 72,
      "hit": false,
      "t": 2343.75,
      "d": 234.375,
      "v": 100
    },
    {
      "midi": 73,
      "hit": false,
      "t": 2578.125,
      "d": 234.375,
      "v": 100
    },
    {
      "midi": 69,
      "hit": false,
      "t": 2812.5,
      "d": 234.375,
      "v": 100
    },
    {
      "midi": 73,
      "hit": false,
      "t": 3046.875,
      "d": 234.375,
      "v": 100
    },
    {
      "midi": 72,
      "hit": false,
      "t": 3281.25,
      "d": 234.375,
      "v": 100
    },
    {
      "midi": 73,
      "hit": false,
      "t": 3515.625,
      "d": 234.375,
      "v": 100
    },
    {
      "midi": 68,
      "hit": false,
      "t": 3750,
      "d": 234.375,
      "v": 100
    },
    {
      "midi": 71,
      "hit": false,
      "t": 3984.375,
      "d": 234.375,
      "v": 100
    },
    {
      "midi": 72,
      "hit": false,
      "t": 4218.75,
      "d": 234.375,
      "v": 100
    },
    {
      "midi": 71,
      "hit": false,
      "t": 4453.125,
      "d": 234.375,
      "v": 100
    },
    {
      "midi": 68,
      "hit": false,
      "t": 4687.5,
      "d": 234.375,
      "v": 100
    },
    {
      "midi": 71,
      "hit": false,
      "t": 4921.875,
      "d": 234.375,
      "v": 100
    },
    {
      "midi": 72,
      "hit": false,
      "t": 5156.25,
      "d": 234.375,
      "v": 100
    },
    {
      "midi": 71,
      "hit": false,
      "t": 5390.625,
      "d": 234.375,
      "v": 100
    },
    {
      "midi": 68,
      "hit": false,
      "t": 5625,
      "d": 234.375,
      "v": 100
    },
    {
      "midi": 71,
      "hit": false,
      "t": 5859.375,
      "d": 234.375,
      "v": 100
    },
    {
      "midi": 72,
      "hit": false,
      "t": 6093.75,
      "d": 234.375,
      "v": 100
    },
    {
      "midi": 71,
      "hit": false,
      "t": 6328.125,
      "d": 234.375,
      "v": 100
    },
    {
      "midi": 68,
      "hit": false,
      "t": 6562.5,
      "d": 234.375,
      "v": 100
    },
    {
      "midi": 71,
      "hit": false,
      "t": 6796.875,
      "d": 234.375,
      "v": 100
    },
    {
      "midi": 72,
      "hit": false,
      "t": 7031.25,
      "d": 234.375,
      "v": 100
    },
    {
      "midi": 71,
      "hit": false,
      "t": 7265.625,
      "d": 234.375,
      "v": 100
    },
    {
      "midi": 69,
      "hit": false,
      "t": 7500,
      "d": 234.375,
      "v": 100
    },
    {
      "midi": 73,
      "hit": false,
      "t": 7734.375,
      "d": 234.375,
      "v": 100
    },
    {
      "midi": 72,
      "hit": false,
      "t": 7968.75,
      "d": 234.375,
      "v": 100
    },
    {
      "midi": 73,
      "hit": false,
      "t": 8203.125,
      "d": 234.375,
      "v": 100
    },
    {
      "midi": 69,
      "hit": false,
      "t": 8437.5,
      "d": 234.375,
      "v": 100
    },
    {
      "midi": 73,
      "hit": false,
      "t": 8671.875,
      "d": 234.375,
      "v": 100
    },
    {
      "midi": 72,
      "hit": false,
      "t": 8906.25,
      "d": 234.375,
      "v": 100
    },
    {
      "midi": 73,
      "hit": false,
      "t": 9140.625,
      "d": 234.375,
      "v": 100
    },
    {
      "midi": 69,
      "hit": false,
      "t": 9375,
      "d": 234.375,
      "v": 100
    },
    {
      "midi": 73,
      "hit": false,
      "t": 9609.375,
      "d": 234.375,
      "v": 100
    },
    {
      "midi": 72,
      "hit": false,
      "t": 9843.75,
      "d": 234.375,
      "v": 100
    },
    {
      "midi": 73,
      "hit": false,
      "t": 10078.125,
      "d": 234.375,
      "v": 100
    },
    {
      "midi": 69,
      "hit": false,
      "t": 10312.5,
      "d": 234.375,
      "v": 100
    },
    {
      "midi": 73,
      "hit": false,
      "t": 10546.875,
      "d": 234.375,
      "v": 100
    },
    {
      "midi": 72,
      "hit": false,
      "t": 10781.25,
      "d": 234.375,
      "v": 100
    },
    {
      "midi": 73,
      "hit": false,
      "t": 11015.625,
      "d": 234.375,
      "v": 100
    },
    {
      "midi": 68,
      "hit": false,
      "t": 11250,
      "d": 234.375,
      "v": 100
    },
    {
      "midi": 71,
      "hit": false,
      "t": 11484.375,
      "d": 234.375,
      "v": 100
    },
    {
      "midi": 72,
      "hit": false,
      "t": 11718.75,
      "d": 234.375,
      "v": 100
    },
    {
      "midi": 71,
      "hit": false,
      "t": 11953.125,
      "d": 234.375,
      "v": 100
    },
    {
      "midi": 68,
      "hit": false,
      "t": 12187.5,
      "d": 234.375,
      "v": 100
    },
    {
      "midi": 71,
      "hit": false,
      "t": 12421.875,
      "d": 234.375,
      "v": 100
    },
    {
      "midi": 72,
      "hit": false,
      "t": 12656.25,
      "d": 234.375,
      "v": 100
    },
    {
      "midi": 71,
      "hit": false,
      "t": 12890.625,
      "d": 234.375,
      "v": 100
    },
    {
      "midi": 68,
      "hit": false,
      "t": 13125,
      "d": 234.375,
      "v": 100
    },
    {
      "midi": 71,
      "hit": false,
      "t": 13359.375,
      "d": 234.375,
      "v": 100
    },
    {
      "midi": 72,
      "hit": false,
      "t": 13593.75,
      "d": 234.375,
      "v": 100
    },
    {
      "midi": 71,
      "hit": false,
      "t": 13828.125,
      "d": 234.375,
      "v": 100
    },
    {
      "midi": 68,
      "hit": false,
      "t": 14062.5,
      "d": 234.375,
      "v": 100
    },
    {
      "midi": 71,
      "hit": false,
      "t": 14296.875,
      "d": 234.375,
      "v": 100
    },
    {
      "midi": 72,
      "hit": false,
      "t": 14531.25,
      "d": 234.375,
      "v": 100
    },
    {
      "midi": 71,
      "hit": false,
      "t": 14765.625,
      "d": 234.375,
      "v": 100
    },
    {
      "midi": 69,
      "hit": false,
      "t": 15000,
      "d": 234.375,
      "v": 100
    },
    {
      "midi": 73,
      "hit": false,
      "t": 15234.375,
      "d": 234.375,
      "v": 100
    },
    {
      "midi": 72,
      "hit": false,
      "t": 15468.75,
      "d": 234.375,
      "v": 100
    },
    {
      "midi": 73,
      "hit": false,
      "t": 15703.125,
      "d": 234.375,
      "v": 100
    },
    {
      "midi": 69,
      "hit": false,
      "t": 15937.5,
      "d": 234.375,
      "v": 100
    },
    {
      "midi": 73,
      "hit": false,
      "t": 16171.875,
      "d": 234.375,
      "v": 100
    },
    {
      "midi": 72,
      "hit": false,
      "t": 16406.25,
      "d": 234.375,
      "v": 100
    },
    {
      "midi": 73,
      "hit": false,
      "t": 16640.625,
      "d": 234.375,
      "v": 100
    },
    {
      "midi": 69,
      "hit": false,
      "t": 16875,
      "d": 234.375,
      "v": 100
    },
    {
      "midi": 73,
      "hit": false,
      "t": 17109.375,
      "d": 234.375,
      "v": 100
    },
    {
      "midi": 72,
      "hit": false,
      "t": 17343.75,
      "d": 234.375,
      "v": 100
    },
    {
      "midi": 73,
      "hit": false,
      "t": 17578.125,
      "d": 234.375,
      "v": 100
    },
    {
      "midi": 69,
      "hit": false,
      "t": 17812.5,
      "d": 234.375,
      "v": 100
    },
    {
      "midi": 73,
      "hit": false,
      "t": 18046.875,
      "d": 234.375,
      "v": 100
    },
    {
      "midi": 72,
      "hit": false,
      "t": 18281.25,
      "d": 234.375,
      "v": 100
    },
    {
      "midi": 73,
      "hit": false,
      "t": 18515.625,
      "d": 234.375,
      "v": 100
    },
    {
      "midi": 68,
      "hit": false,
      "t": 18750,
      "d": 234.375,
      "v": 100
    },
    {
      "midi": 71,
      "hit": false,
      "t": 18984.375,
      "d": 234.375,
      "v": 100
    },
    {
      "midi": 72,
      "hit": false,
      "t": 19218.75,
      "d": 234.375,
      "v": 100
    },
    {
      "midi": 71,
      "hit": false,
      "t": 19453.125,
      "d": 234.375,
      "v": 100
    },
    {
      "midi": 68,
      "hit": false,
      "t": 19687.5,
      "d": 234.375,
      "v": 100
    },
    {
      "midi": 71,
      "hit": false,
      "t": 19921.875,
      "d": 234.375,
      "v": 100
    },
    {
      "midi": 72,
      "hit": false,
      "t": 20156.25,
      "d": 234.375,
      "v": 100
    },
    {
      "midi": 71,
      "hit": false,
      "t": 20390.625,
      "d": 234.375,
      "v": 100
    },
    {
      "midi": 68,
      "hit": false,
      "t": 20625,
      "d": 234.375,
      "v": 100
    },
    {
      "midi": 71,
      "hit": false,
      "t": 20859.375,
      "d": 234.375,
      "v": 100
    },
    {
      "midi": 72,
      "hit": false,
      "t": 21093.75,
      "d": 234.375,
      "v": 100
    },
    {
      "midi": 71,
      "hit": false,
      "t": 21328.125,
      "d": 234.375,
      "v": 100
    },
    {
      "midi": 68,
      "hit": false,
      "t": 21562.5,
      "d": 234.375,
      "v": 100
    },
    {
      "midi": 71,
      "hit": false,
      "t": 21796.875,
      "d": 234.375,
      "v": 100
    },
    {
      "midi": 72,
      "hit": false,
      "t": 22031.25,
      "d": 234.375,
      "v": 100
    },
    {
      "midi": 71,
      "hit": false,
      "t": 22265.625,
      "d": 234.375,
      "v": 100
    },
    {
      "midi": 69,
      "hit": false,
      "t": 22500,
      "d": 234.375,
      "v": 100
    },
    {
      "midi": 73,
      "hit": false,
      "t": 22734.375,
      "d": 234.375,
      "v": 100
    },
    {
      "midi": 72,
      "hit": false,
      "t": 22968.75,
      "d": 234.375,
      "v": 100
    },
    {
      "midi": 73,
      "hit": false,
      "t": 23203.125,
      "d": 234.375,
      "v": 100
    },
    {
      "midi": 69,
      "hit": false,
      "t": 23437.5,
      "d": 234.375,
      "v": 100
    },
    {
      "midi": 73,
      "hit": false,
      "t": 23671.875,
      "d": 234.375,
      "v": 100
    },
    {
      "midi": 72,
      "hit": false,
      "t": 23906.25,
      "d": 234.375,
      "v": 100
    },
    {
      "midi": 73,
      "hit": false,
      "t": 24140.625,
      "d": 234.375,
      "v": 100
    },
    {
      "midi": 69,
      "hit": false,
      "t": 24375,
      "d": 234.375,
      "v": 100
    },
    {
      "midi": 73,
      "hit": false,
      "t": 24609.375,
      "d": 234.375,
      "v": 100
    },
    {
      "midi": 72,
      "hit": false,
      "t": 24843.75,
      "d": 234.375,
      "v": 100
    },
    {
      "midi": 73,
      "hit": false,
      "t": 25078.125,
      "d": 234.375,
      "v": 100
    },
    {
      "midi": 69,
      "hit": false,
      "t": 25312.5,
      "d": 234.375,
      "v": 100
    },
    {
      "midi": 73,
      "hit": false,
      "t": 25546.875,
      "d": 234.375,
      "v": 100
    },
    {
      "midi": 72,
      "hit": false,
      "t": 25781.25,
      "d": 234.375,
      "v": 100
    },
    {
      "midi": 73,
      "hit": false,
      "t": 26015.625,
      "d": 234.375,
      "v": 100
    },
    {
      "midi": 68,
      "hit": false,
      "t": 26250,
      "d": 234.375,
      "v": 100
    },
    {
      "midi": 71,
      "hit": false,
      "t": 26484.375,
      "d": 234.375,
      "v": 100
    },
    {
      "midi": 72,
      "hit": false,
      "t": 26718.75,
      "d": 234.375,
      "v": 100
    },
    {
      "midi": 71,
      "hit": false,
      "t": 26953.125,
      "d": 234.375,
      "v": 100
    },
    {
      "midi": 68,
      "hit": false,
      "t": 27187.5,
      "d": 234.375,
      "v": 100
    },
    {
      "midi": 71,
      "hit": false,
      "t": 27421.875,
      "d": 234.375,
      "v": 100
    },
    {
      "midi": 72,
      "hit": false,
      "t": 27656.25,
      "d": 234.375,
      "v": 100
    },
    {
      "midi": 71,
      "hit": false,
      "t": 27890.625,
      "d": 234.375,
      "v": 100
    },
    {
      "midi": 68,
      "hit": false,
      "t": 28125,
      "d": 234.375,
      "v": 100
    },
    {
      "midi": 71,
      "hit": false,
      "t": 28359.375,
      "d": 234.375,
      "v": 100
    },
    {
      "midi": 72,
      "hit": false,
      "t": 28593.75,
      "d": 234.375,
      "v": 100
    },
    {
      "midi": 71,
      "hit": false,
      "t": 28828.125,
      "d": 234.375,
      "v": 100
    },
    {
      "midi": 68,
      "hit": false,
      "t": 29062.5,
      "d": 234.375,
      "v": 100
    },
    {
      "midi": 71,
      "hit": false,
      "t": 29296.875,
      "d": 234.375,
      "v": 100
    },
    {
      "midi": 72,
      "hit": false,
      "t": 29531.25,
      "d": 234.375,
      "v": 100
    },
    {
      "midi": 71,
      "hit": false,
      "t": 29765.625,
      "d": 234.375,
      "v": 100
    },
    {
      "midi": 69,
      "hit": false,
      "t": 30000,
      "d": 234.375,
      "v": 100
    },
    {
      "midi": 73,
      "hit": false,
      "t": 30234.375,
      "d": 234.375,
      "v": 100
    },
    {
      "midi": 72,
      "hit": false,
      "t": 30468.75,
      "d": 234.375,
      "v": 100
    },
    {
      "midi": 73,
      "hit": false,
      "t": 30703.125,
      "d": 234.375,
      "v": 100
    },
    {
      "midi": 69,
      "hit": false,
      "t": 30937.5,
      "d": 234.375,
      "v": 100
    },
    {
      "midi": 73,
      "hit": false,
      "t": 31171.875,
      "d": 234.375,
      "v": 100
    },
    {
      "midi": 72,
      "hit": false,
      "t": 31406.25,
      "d": 234.375,
      "v": 100
    },
    {
      "midi": 73,
      "hit": false,
      "t": 31640.625,
      "d": 234.375,
      "v": 100
    },
    {
      "midi": 69,
      "hit": false,
      "t": 31875,
      "d": 234.375,
      "v": 100
    },
    {
      "midi": 73,
      "hit": false,
      "t": 32109.375,
      "d": 234.375,
      "v": 100
    },
    {
      "midi": 72,
      "hit": false,
      "t": 32343.75,
      "d": 234.375,
      "v": 100
    },
    {
      "midi": 73,
      "hit": false,
      "t": 32578.125,
      "d": 234.375,
      "v": 100
    },
    {
      "midi": 69,
      "hit": false,
      "t": 32812.5,
      "d": 234.375,
      "v": 100
    },
    {
      "midi": 73,
      "hit": false,
      "t": 33046.875,
      "d": 234.375,
      "v": 100
    },
    {
      "midi": 72,
      "hit": false,
      "t": 33281.25,
      "d": 234.375,
      "v": 100
    },
    {
      "midi": 73,
      "hit": false,
      "t": 33515.625,
      "d": 234.375,
      "v": 100
    },
    {
      "midi": 68,
      "hit": false,
      "t": 33750,
      "d": 234.375,
      "v": 100
    },
    {
      "midi": 71,
      "hit": false,
      "t": 33984.375,
      "d": 234.375,
      "v": 100
    },
    {
      "midi": 72,
      "hit": false,
      "t": 34218.75,
      "d": 234.375,
      "v": 100
    },
    {
      "midi": 71,
      "hit": false,
      "t": 34453.125,
      "d": 234.375,
      "v": 100
    },
    {
      "midi": 68,
      "hit": false,
      "t": 34687.5,
      "d": 234.375,
      "v": 100
    },
    {
      "midi": 71,
      "hit": false,
      "t": 34921.875,
      "d": 234.375,
      "v": 100
    },
    {
      "midi": 72,
      "hit": false,
      "t": 35156.25,
      "d": 234.375,
      "v": 100
    },
    {
      "midi": 71,
      "hit": false,
      "t": 35390.625,
      "d": 234.375,
      "v": 100
    },
    {
      "midi": 68,
      "hit": false,
      "t": 35625,
      "d": 234.375,
      "v": 100
    },
    {
      "midi": 71,
      "hit": false,
      "t": 35859.375,
      "d": 234.375,
      "v": 100
    },
    {
      "midi": 72,
      "hit": false,
      "t": 36093.75,
      "d": 234.375,
      "v": 100
    },
    {
      "midi": 71,
      "hit": false,
      "t": 36328.125,
      "d": 234.375,
      "v": 100
    },
    {
      "midi": 68,
      "hit": false,
      "t": 36562.5,
      "d": 234.375,
      "v": 100
    },
    {
      "midi": 71,
      "hit": false,
      "t": 36796.875,
      "d": 234.375,
      "v": 100
    },
    {
      "midi": 72,
      "hit": false,
      "t": 37031.25,
      "d": 234.375,
      "v": 100
    },
    {
      "midi": 71,
      "hit": false,
      "t": 37265.625,
      "d": 234.375,
      "v": 100
    },
    {
      "midi": 69,
      "hit": false,
      "t": 37500,
      "d": 234.375,
      "v": 100
    },
    {
      "midi": 73,
      "hit": false,
      "t": 37734.375,
      "d": 234.375,
      "v": 100
    },
    {
      "midi": 72,
      "hit": false,
      "t": 37968.75,
      "d": 234.375,
      "v": 100
    },
    {
      "midi": 73,
      "hit": false,
      "t": 38203.125,
      "d": 234.375,
      "v": 100
    },
    {
      "midi": 69,
      "hit": false,
      "t": 38437.5,
      "d": 234.375,
      "v": 100
    },
    {
      "midi": 73,
      "hit": false,
      "t": 38671.875,
      "d": 234.375,
      "v": 100
    },
    {
      "midi": 72,
      "hit": false,
      "t": 38906.25,
      "d": 234.375,
      "v": 100
    },
    {
      "midi": 73,
      "hit": false,
      "t": 39140.625,
      "d": 234.375,
      "v": 100
    },
    {
      "midi": 69,
      "hit": false,
      "t": 39375,
      "d": 234.375,
      "v": 100
    },
    {
      "midi": 73,
      "hit": false,
      "t": 39609.375,
      "d": 234.375,
      "v": 100
    },
    {
      "midi": 72,
      "hit": false,
      "t": 39843.75,
      "d": 234.375,
      "v": 100
    },
    {
      "midi": 73,
      "hit": false,
      "t": 40078.125,
      "d": 234.375,
      "v": 100
    },
    {
      "midi": 69,
      "hit": false,
      "t": 40312.5,
      "d": 234.375,
      "v": 100
    },
    {
      "midi": 73,
      "hit": false,
      "t": 40546.875,
      "d": 234.375,
      "v": 100
    },
    {
      "midi": 72,
      "hit": false,
      "t": 40781.25,
      "d": 234.375,
      "v": 100
    },
    {
      "midi": 73,
      "hit": false,
      "t": 41015.625,
      "d": 234.375,
      "v": 100
    },
    {
      "midi": 68,
      "hit": false,
      "t": 41250,
      "d": 234.375,
      "v": 100
    },
    {
      "midi": 71,
      "hit": false,
      "t": 41484.375,
      "d": 234.375,
      "v": 100
    },
    {
      "midi": 72,
      "hit": false,
      "t": 41718.75,
      "d": 234.375,
      "v": 100
    },
    {
      "midi": 71,
      "hit": false,
      "t": 41953.125,
      "d": 234.375,
      "v": 100
    },
    {
      "midi": 68,
      "hit": false,
      "t": 42187.5,
      "d": 234.375,
      "v": 100
    },
    {
      "midi": 71,
      "hit": false,
      "t": 42421.875,
      "d": 234.375,
      "v": 100
    },
    {
      "midi": 72,
      "hit": false,
      "t": 42656.25,
      "d": 234.375,
      "v": 100
    },
    {
      "midi": 71,
      "hit": false,
      "t": 42890.625,
      "d": 234.375,
      "v": 100
    },
    {
      "midi": 68,
      "hit": false,
      "t": 43125,
      "d": 234.375,
      "v": 100
    },
    {
      "midi": 71,
      "hit": false,
      "t": 43359.375,
      "d": 234.375,
      "v": 100
    },
    {
      "midi": 72,
      "hit": false,
      "t": 43593.75,
      "d": 234.375,
      "v": 100
    },
    {
      "midi": 71,
      "hit": false,
      "t": 43828.125,
      "d": 234.375,
      "v": 100
    },
    {
      "midi": 68,
      "hit": false,
      "t": 44062.5,
      "d": 234.375,
      "v": 100
    },
    {
      "midi": 71,
      "hit": false,
      "t": 44296.875,
      "d": 234.375,
      "v": 100
    },
    {
      "midi": 72,
      "hit": false,
      "t": 44531.25,
      "d": 234.375,
      "v": 100
    },
    {
      "midi": 71,
      "hit": false,
      "t": 44765.625,
      "d": 234.375,
      "v": 100
    },
    {
      "midi": 73,
      "hit": false,
      "t": 45000,
      "d": 234.375,
      "v": 100
    },
    {
      "midi": 69,
      "hit": false,
      "t": 45000,
      "d": 234.375,
      "v": 100
    },
    {
      "midi": 73,
      "hit": false,
      "t": 45234.375,
      "d": 234.375,
      "v": 100
    },
    {
      "midi": 81,
      "hit": false,
      "t": 45468.75,
      "d": 234.375,
      "v": 100
    },
    {
      "midi": 72,
      "hit": false,
      "t": 45468.75,
      "d": 234.375,
      "v": 100
    },
    {
      "midi": 73,
      "hit": false,
      "t": 45703.125,
      "d": 234.375,
      "v": 100
    },
    {
      "midi": 80,
      "hit": false,
      "t": 45937.5,
      "d": 234.375,
      "v": 100
    },
    {
      "midi": 69,
      "hit": false,
      "t": 45937.5,
      "d": 234.375,
      "v": 100
    },
    {
      "midi": 73,
      "hit": false,
      "t": 46171.875,
      "d": 234.375,
      "v": 100
    },
    {
      "midi": 88,
      "hit": false,
      "t": 46406.25,
      "d": 234.375,
      "v": 100
    },
    {
      "midi": 72,
      "hit": false,
      "t": 46406.25,
      "d": 234.375,
      "v": 100
    },
    {
      "midi": 73,
      "hit": false,
      "t": 46640.625,
      "d": 234.375,
      "v": 100
    },
    {
      "midi": 69,
      "hit": false,
      "t": 46875,
      "d": 234.375,
      "v": 100
    },
    {
      "midi": 73,
      "hit": false,
      "t": 47109.375,
      "d": 234.375,
      "v": 100
    },
    {
      "midi": 72,
      "hit": false,
      "t": 47343.75,
      "d": 234.375,
      "v": 100
    },
    {
      "midi": 73,
      "hit": false,
      "t": 47578.125,
      "d": 234.375,
      "v": 100
    },
    {
      "midi": 69,
      "hit": false,
      "t": 47812.5,
      "d": 234.375,
      "v": 100
    },
    {
      "midi": 73,
      "hit": false,
      "t": 48046.875,
      "d": 234.375,
      "v": 100
    },
    {
      "midi": 72,
      "hit": false,
      "t": 48281.25,
      "d": 234.375,
      "v": 100
    },
    {
      "midi": 73,
      "hit": false,
      "t": 48515.625,
      "d": 234.375,
      "v": 100
    },
    {
      "midi": 72,
      "hit": false,
      "t": 48750,
      "d": 234.375,
      "v": 100
    },
    {
      "midi": 68,
      "hit": false,
      "t": 48750,
      "d": 234.375,
      "v": 100
    },
    {
      "midi": 71,
      "hit": false,
      "t": 48984.375,
      "d": 234.375,
      "v": 100
    },
    {
      "midi": 80,
      "hit": false,
      "t": 49218.75,
      "d": 234.375,
      "v": 100
    },
    {
      "midi": 72,
      "hit": false,
      "t": 49218.75,
      "d": 234.375,
      "v": 100
    },
    {
      "midi": 71,
      "hit": false,
      "t": 49453.125,
      "d": 234.375,
      "v": 100
    },
    {
      "midi": 79,
      "hit": false,
      "t": 49687.5,
      "d": 234.375,
      "v": 100
    },
    {
      "midi": 68,
      "hit": false,
      "t": 49687.5,
      "d": 234.375,
      "v": 100
    },
    {
      "midi": 71,
      "hit": false,
      "t": 49921.875,
      "d": 234.375,
      "v": 100
    },
    {
      "midi": 87,
      "hit": false,
      "t": 50156.25,
      "d": 234.375,
      "v": 100
    },
    {
      "midi": 72,
      "hit": false,
      "t": 50156.25,
      "d": 234.375,
      "v": 100
    },
    {
      "midi": 71,
      "hit": false,
      "t": 50390.625,
      "d": 234.375,
      "v": 100
    },
    {
      "midi": 68,
      "hit": false,
      "t": 50625,
      "d": 234.375,
      "v": 100
    },
    {
      "midi": 71,
      "hit": false,
      "t": 50859.375,
      "d": 234.375,
      "v": 100
    },
    {
      "midi": 72,
      "hit": false,
      "t": 51093.75,
      "d": 234.375,
      "v": 100
    },
    {
      "midi": 71,
      "hit": false,
      "t": 51328.125,
      "d": 234.375,
      "v": 100
    },
    {
      "midi": 68,
      "hit": false,
      "t": 51562.5,
      "d": 234.375,
      "v": 100
    },
    {
      "midi": 71,
      "hit": false,
      "t": 51796.875,
      "d": 234.375,
      "v": 100
    },
    {
      "midi": 72,
      "hit": false,
      "t": 52031.25,
      "d": 234.375,
      "v": 100
    },
    {
      "midi": 71,
      "hit": false,
      "t": 52265.625,
      "d": 234.375,
      "v": 100
    },
    {
      "midi": 73,
      "hit": false,
      "t": 52500,
      "d": 234.375,
      "v": 100
    },
    {
      "midi": 69,
      "hit": false,
      "t": 52500,
      "d": 234.375,
      "v": 100
    },
    {
      "midi": 73,
      "hit": false,
      "t": 52734.375,
      "d": 234.375,
      "v": 100
    },
    {
      "midi": 81,
      "hit": false,
      "t": 52968.75,
      "d": 234.375,
      "v": 100
    },
    {
      "midi": 72,
      "hit": false,
      "t": 52968.75,
      "d": 234.375,
      "v": 100
    },
    {
      "midi": 73,
      "hit": false,
      "t": 53203.125,
      "d": 234.375,
      "v": 100
    },
    {
      "midi": 80,
      "hit": false,
      "t": 53437.5,
      "d": 234.375,
      "v": 100
    },
    {
      "midi": 69,
      "hit": false,
      "t": 53437.5,
      "d": 234.375,
      "v": 100
    },
    {
      "midi": 73,
      "hit": false,
      "t": 53671.875,
      "d": 234.375,
      "v": 100
    },
    {
      "midi": 88,
      "hit": false,
      "t": 53906.25,
      "d": 234.375,
      "v": 100
    },
    {
      "midi": 72,
      "hit": false,
      "t": 53906.25,
      "d": 234.375,
      "v": 100
    },
    {
      "midi": 73,
      "hit": false,
      "t": 54140.625,
      "d": 234.375,
      "v": 100
    },
    {
      "midi": 69,
      "hit": false,
      "t": 54375,
      "d": 234.375,
      "v": 100
    },
    {
      "midi": 73,
      "hit": false,
      "t": 54609.375,
      "d": 234.375,
      "v": 100
    },
    {
      "midi": 72,
      "hit": false,
      "t": 54843.75,
      "d": 234.375,
      "v": 100
    },
    {
      "midi": 73,
      "hit": false,
      "t": 55078.125,
      "d": 234.375,
      "v": 100
    },
    {
      "midi": 69,
      "hit": false,
      "t": 55312.5,
      "d": 234.375,
      "v": 100
    },
    {
      "midi": 73,
      "hit": false,
      "t": 55546.875,
      "d": 234.375,
      "v": 100
    },
    {
      "midi": 72,
      "hit": false,
      "t": 55781.25,
      "d": 234.375,
      "v": 100
    },
    {
      "midi": 73,
      "hit": false,
      "t": 56015.625,
      "d": 234.375,
      "v": 100
    },
    {
      "midi": 72,
      "hit": false,
      "t": 56250,
      "d": 234.375,
      "v": 100
    },
    {
      "midi": 68,
      "hit": false,
      "t": 56250,
      "d": 234.375,
      "v": 100
    },
    {
      "midi": 71,
      "hit": false,
      "t": 56484.375,
      "d": 234.375,
      "v": 100
    },
    {
      "midi": 80,
      "hit": false,
      "t": 56718.75,
      "d": 234.375,
      "v": 100
    },
    {
      "midi": 72,
      "hit": false,
      "t": 56718.75,
      "d": 234.375,
      "v": 100
    },
    {
      "midi": 71,
      "hit": false,
      "t": 56953.125,
      "d": 234.375,
      "v": 100
    },
    {
      "midi": 79,
      "hit": false,
      "t": 57187.5,
      "d": 234.375,
      "v": 100
    },
    {
      "midi": 68,
      "hit": false,
      "t": 57187.5,
      "d": 234.375,
      "v": 100
    },
    {
      "midi": 71,
      "hit": false,
      "t": 57421.875,
      "d": 234.375,
      "v": 100
    },
    {
      "midi": 87,
      "hit": false,
      "t": 57656.25,
      "d": 234.375,
      "v": 100
    },
    {
      "midi": 72,
      "hit": false,
      "t": 57656.25,
      "d": 234.375,
      "v": 100
    },
    {
      "midi": 71,
      "hit": false,
      "t": 57890.625,
      "d": 234.375,
      "v": 100
    },
    {
      "midi": 68,
      "hit": false,
      "t": 58125,
      "d": 234.375,
      "v": 100
    },
    {
      "midi": 71,
      "hit": false,
      "t": 58359.375,
      "d": 234.375,
      "v": 100
    },
    {
      "midi": 72,
      "hit": false,
      "t": 58593.75,
      "d": 234.375,
      "v": 100
    },
    {
      "midi": 71,
      "hit": false,
      "t": 58828.125,
      "d": 234.375,
      "v": 100
    },
    {
      "midi": 68,
      "hit": false,
      "t": 59062.5,
      "d": 234.375,
      "v": 100
    },
    {
      "midi": 71,
      "hit": false,
      "t": 59296.875,
      "d": 234.375,
      "v": 100
    },
    {
      "midi": 72,
      "hit": false,
      "t": 59531.25,
      "d": 234.375,
      "v": 100
    },
    {
      "midi": 71,
      "hit": false,
      "t": 59765.625,
      "d": 234.375,
      "v": 100
    },
    {
      "midi": 75,
      "hit": false,
      "t": 60000,
      "d": 234.375,
      "v": 100
    },
    {
      "midi": 63,
      "hit": false,
      "t": 60234.375,
      "d": 234.375,
      "v": 100
    },
    {
      "midi": 85,
      "hit": false,
      "t": 60468.75,
      "d": 234.375,
      "v": 100
    },
    {
      "midi": 65,
      "hit": false,
      "t": 60468.75,
      "d": 234.375,
      "v": 100
    },
    {
      "midi": 63,
      "hit": false,
      "t": 60703.125,
      "d": 234.375,
      "v": 100
    },
    {
      "midi": 84,
      "hit": false,
      "t": 60937.5,
      "d": 234.375,
      "v": 100
    },
    {
      "midi": 65,
      "hit": false,
      "t": 60937.5,
      "d": 468.75,
      "v": 100
    },
    {
      "midi": 90,
      "hit": false,
      "t": 61406.25,
      "d": 234.375,
      "v": 100
    },
    {
      "midi": 63,
      "hit": false,
      "t": 62109.375,
      "d": 234.375,
      "v": 100
    },
    {
      "midi": 65,
      "hit": false,
      "t": 62343.75,
      "d": 234.375,
      "v": 100
    },
    {
      "midi": 63,
      "hit": false,
      "t": 62578.125,
      "d": 234.375,
      "v": 100
    },
    {
      "midi": 65,
      "hit": false,
      "t": 62812.5,
      "d": 468.75,
      "v": 100
    },
    {
      "midi": 85,
      "hit": false,
      "t": 63046.875,
      "d": 234.375,
      "v": 100
    },
    {
      "midi": 84,
      "hit": false,
      "t": 63281.25,
      "d": 234.375,
      "v": 100
    },
    {
      "midi": 75,
      "hit": false,
      "t": 63515.625,
      "d": 234.375,
      "v": 100
    },
    {
      "midi": 74,
      "hit": false,
      "t": 63750,
      "d": 234.375,
      "v": 100
    },
    {
      "midi": 62,
      "hit": false,
      "t": 63984.375,
      "d": 234.375,
      "v": 100
    },
    {
      "midi": 83,
      "hit": false,
      "t": 64218.75,
      "d": 234.375,
      "v": 100
    },
    {
      "midi": 65,
      "hit": false,
      "t": 64218.75,
      "d": 234.375,
      "v": 100
    },
    {
      "midi": 62,
      "hit": false,
      "t": 64453.125,
      "d": 234.375,
      "v": 100
    },
    {
      "midi": 82,
      "hit": false,
      "t": 64687.5,
      "d": 234.375,
      "v": 100
    },
    {
      "midi": 65,
      "hit": false,
      "t": 64687.5,
      "d": 468.75,
      "v": 100
    },
    {
      "midi": 89,
      "hit": false,
      "t": 65156.25,
      "d": 234.375,
      "v": 100
    },
    {
      "midi": 62,
      "hit": false,
      "t": 65859.375,
      "d": 234.375,
      "v": 100
    },
    {
      "midi": 65,
      "hit": false,
      "t": 66093.75,
      "d": 234.375,
      "v": 100
    },
    {
      "midi": 62,
      "hit": false,
      "t": 66328.125,
      "d": 234.375,
      "v": 100
    },
    {
      "midi": 65,
      "hit": false,
      "t": 66562.5,
      "d": 468.75,
      "v": 100
    },
    {
      "midi": 75,
      "hit": false,
      "t": 67500,
      "d": 234.375,
      "v": 100
    },
    {
      "midi": 63,
      "hit": false,
      "t": 67734.375,
      "d": 234.375,
      "v": 100
    },
    {
      "midi": 85,
      "hit": false,
      "t": 67968.75,
      "d": 234.375,
      "v": 100
    },
    {
      "midi": 65,
      "hit": false,
      "t": 67968.75,
      "d": 234.375,
      "v": 100
    },
    {
      "midi": 66,
      "hit": false,
      "t": 68203.125,
      "d": 234.375,
      "v": 100
    },
    {
      "midi": 84,
      "hit": false,
      "t": 68437.5,
      "d": 234.375,
      "v": 100
    },
    {
      "midi": 70,
      "hit": false,
      "t": 68437.5,
      "d": 468.75,
      "v": 100
    },
    {
      "midi": 90,
      "hit": false,
      "t": 68906.25,
      "d": 234.375,
      "v": 100
    },
    {
      "midi": 63,
      "hit": false,
      "t": 69609.375,
      "d": 234.375,
      "v": 100
    },
    {
      "midi": 65,
      "hit": false,
      "t": 69843.75,
      "d": 234.375,
      "v": 100
    },
    {
      "midi": 66,
      "hit": false,
      "t": 70078.125,
      "d": 234.375,
      "v": 100
    },
    {
      "midi": 70,
      "hit": false,
      "t": 70312.5,
      "d": 468.75,
      "v": 100
    },
    {
      "midi": 85,
      "hit": false,
      "t": 70546.875,
      "d": 234.375,
      "v": 100
    },
    {
      "midi": 84,
      "hit": false,
      "t": 70781.25,
      "d": 234.375,
      "v": 100
    },
    {
      "midi": 75,
      "hit": false,
      "t": 71015.625,
      "d": 234.375,
      "v": 100
    },
    {
      "midi": 74,
      "hit": false,
      "t": 71250,
      "d": 234.375,
      "v": 100
    },
    {
      "midi": 62,
      "hit": false,
      "t": 71484.375,
      "d": 234.375,
      "v": 100
    },
    {
      "midi": 83,
      "hit": false,
      "t": 71718.75,
      "d": 234.375,
      "v": 100
    },
    {
      "midi": 65,
      "hit": false,
      "t": 71718.75,
      "d": 234.375,
      "v": 100
    },
    {
      "midi": 66,
      "hit": false,
      "t": 71953.125,
      "d": 234.375,
      "v": 100
    },
    {
      "midi": 82,
      "hit": false,
      "t": 72187.5,
      "d": 234.375,
      "v": 100
    },
    {
      "midi": 74,
      "hit": false,
      "t": 72187.5,
      "d": 468.75,
      "v": 100
    },
    {
      "midi": 89,
      "hit": false,
      "t": 72656.25,
      "d": 234.375,
      "v": 100
    },
    {
      "midi": 62,
      "hit": false,
      "t": 73359.375,
      "d": 234.375,
      "v": 100
    },
    {
      "midi": 65,
      "hit": false,
      "t": 73593.75,
      "d": 234.375,
      "v": 100
    },
    {
      "midi": 66,
      "hit": false,
      "t": 73828.125,
      "d": 234.375,
      "v": 100
    },
    {
      "midi": 74,
      "hit": false,
      "t": 74062.5,
      "d": 468.75,
      "v": 100
    },
    {
      "midi": 73,
      "hit": false,
      "t": 75000,
      "d": 234.375,
      "v": 100
    },
    {
      "midi": 69,
      "hit": false,
      "t": 75000,
      "d": 234.375,
      "v": 100
    },
    {
      "midi": 73,
      "hit": false,
      "t": 75234.375,
      "d": 234.375,
      "v": 100
    },
    {
      "midi": 81,
      "hit": false,
      "t": 75468.75,
      "d": 234.375,
      "v": 100
    },
    {
      "midi": 72,
      "hit": false,
      "t": 75468.75,
      "d": 234.375,
      "v": 100
    },
    {
      "midi": 73,
      "hit": false,
      "t": 75703.125,
      "d": 234.375,
      "v": 100
    },
    {
      "midi": 80,
      "hit": false,
      "t": 75937.5,
      "d": 234.375,
      "v": 100
    },
    {
      "midi": 69,
      "hit": false,
      "t": 75937.5,
      "d": 234.375,
      "v": 100
    },
    {
      "midi": 73,
      "hit": false,
      "t": 76171.875,
      "d": 234.375,
      "v": 100
    },
    {
      "midi": 88,
      "hit": false,
      "t": 76406.25,
      "d": 234.375,
      "v": 100
    },
    {
      "midi": 72,
      "hit": false,
      "t": 76406.25,
      "d": 234.375,
      "v": 100
    },
    {
      "midi": 73,
      "hit": false,
      "t": 76640.625,
      "d": 234.375,
      "v": 100
    },
    {
      "midi": 69,
      "hit": false,
      "t": 76875,
      "d": 234.375,
      "v": 100
    },
    {
      "midi": 73,
      "hit": false,
      "t": 77109.375,
      "d": 234.375,
      "v": 100
    },
    {
      "midi": 72,
      "hit": false,
      "t": 77343.75,
      "d": 234.375,
      "v": 100
    },
    {
      "midi": 73,
      "hit": false,
      "t": 77578.125,
      "d": 234.375,
      "v": 100
    },
    {
      "midi": 69,
      "hit": false,
      "t": 77812.5,
      "d": 234.375,
      "v": 100
    },
    {
      "midi": 73,
      "hit": false,
      "t": 78046.875,
      "d": 234.375,
      "v": 100
    },
    {
      "midi": 72,
      "hit": false,
      "t": 78281.25,
      "d": 234.375,
      "v": 100
    },
    {
      "midi": 73,
      "hit": false,
      "t": 78515.625,
      "d": 234.375,
      "v": 100
    },
    {
      "midi": 72,
      "hit": false,
      "t": 78750,
      "d": 234.375,
      "v": 100
    },
    {
      "midi": 68,
      "hit": false,
      "t": 78750,
      "d": 234.375,
      "v": 100
    },
    {
      "midi": 71,
      "hit": false,
      "t": 78984.375,
      "d": 234.375,
      "v": 100
    },
    {
      "midi": 80,
      "hit": false,
      "t": 79218.75,
      "d": 234.375,
      "v": 100
    },
    {
      "midi": 72,
      "hit": false,
      "t": 79218.75,
      "d": 234.375,
      "v": 100
    },
    {
      "midi": 71,
      "hit": false,
      "t": 79453.125,
      "d": 234.375,
      "v": 100
    },
    {
      "midi": 79,
      "hit": false,
      "t": 79687.5,
      "d": 234.375,
      "v": 100
    },
    {
      "midi": 68,
      "hit": false,
      "t": 79687.5,
      "d": 234.375,
      "v": 100
    },
    {
      "midi": 71,
      "hit": false,
      "t": 79921.875,
      "d": 234.375,
      "v": 100
    },
    {
      "midi": 87,
      "hit": false,
      "t": 80156.25,
      "d": 234.375,
      "v": 100
    },
    {
      "midi": 72,
      "hit": false,
      "t": 80156.25,
      "d": 234.375,
      "v": 100
    },
    {
      "midi": 71,
      "hit": false,
      "t": 80390.625,
      "d": 234.375,
      "v": 100
    },
    {
      "midi": 68,
      "hit": false,
      "t": 80625,
      "d": 234.375,
      "v": 100
    },
    {
      "midi": 71,
      "hit": false,
      "t": 80859.375,
      "d": 234.375,
      "v": 100
    },
    {
      "midi": 72,
      "hit": false,
      "t": 81093.75,
      "d": 234.375,
      "v": 100
    },
    {
      "midi": 71,
      "hit": false,
      "t": 81328.125,
      "d": 234.375,
      "v": 100
    },
    {
      "midi": 68,
      "hit": false,
      "t": 81562.5,
      "d": 234.375,
      "v": 100
    },
    {
      "midi": 71,
      "hit": false,
      "t": 81796.875,
      "d": 234.375,
      "v": 100
    },
    {
      "midi": 72,
      "hit": false,
      "t": 82031.25,
      "d": 234.375,
      "v": 100
    },
    {
      "midi": 71,
      "hit": false,
      "t": 82265.625,
      "d": 234.375,
      "v": 100
    },
    {
      "midi": 71,
      "hit": false,
      "t": 82500,
      "d": 234.375,
      "v": 100
    },
    {
      "midi": 66,
      "hit": false,
      "t": 82500,
      "d": 234.375,
      "v": 100
    },
    {
      "midi": 62,
      "hit": false,
      "t": 82734.375,
      "d": 234.375,
      "v": 100
    },
    {
      "midi": 79,
      "hit": false,
      "t": 82968.75,
      "d": 234.375,
      "v": 100
    },
    {
      "midi": 66,
      "hit": false,
      "t": 82968.75,
      "d": 234.375,
      "v": 100
    },
    {
      "midi": 67,
      "hit": false,
      "t": 83203.125,
      "d": 234.375,
      "v": 100
    },
    {
      "midi": 78,
      "hit": false,
      "t": 83437.5,
      "d": 234.375,
      "v": 100
    },
    {
      "midi": 70,
      "hit": false,
      "t": 83437.5,
      "d": 234.375,
      "v": 100
    },
    {
      "midi": 71,
      "hit": false,
      "t": 83671.875,
      "d": 234.375,
      "v": 100
    },
    {
      "midi": 86,
      "hit": false,
      "t": 83906.25,
      "d": 234.375,
      "v": 100
    },
    {
      "midi": 70,
      "hit": false,
      "t": 83906.25,
      "d": 234.375,
      "v": 100
    },
    {
      "midi": 69,
      "hit": false,
      "t": 84140.625,
      "d": 234.375,
      "v": 100
    },
    {
      "midi": 66,
      "hit": false,
      "t": 84375,
      "d": 234.375,
      "v": 100
    },
    {
      "midi": 62,
      "hit": false,
      "t": 84609.375,
      "d": 234.375,
      "v": 100
    },
    {
      "midi": 66,
      "hit": false,
      "t": 84843.75,
      "d": 234.375,
      "v": 100
    },
    {
      "midi": 67,
      "hit": false,
      "t": 85078.125,
      "d": 234.375,
      "v": 100
    },
    {
      "midi": 70,
      "hit": false,
      "t": 85312.5,
      "d": 234.375,
      "v": 100
    },
    {
      "midi": 71,
      "hit": false,
      "t": 85546.875,
      "d": 234.375,
      "v": 100
    },
    {
      "midi": 70,
      "hit": false,
      "t": 85781.25,
      "d": 234.375,
      "v": 100
    },
    {
      "midi": 69,
      "hit": false,
      "t": 86015.625,
      "d": 234.375,
      "v": 100
    },
    {
      "midi": 72,
      "hit": false,
      "t": 86250,
      "d": 234.375,
      "v": 100
    },
    {
      "midi": 60,
      "hit": false,
      "t": 86250,
      "d": 234.375,
      "v": 100
    },
    {
      "midi": 63,
      "hit": false,
      "t": 86484.375,
      "d": 234.375,
      "v": 100
    },
    {
      "midi": 80,
      "hit": false,
      "t": 86718.75,
      "d": 234.375,
      "v": 100
    },
    {
      "midi": 67,
      "hit": false,
      "t": 86718.75,
      "d": 234.375,
      "v": 100
    },
    {
      "midi": 68,
      "hit": false,
      "t": 86953.125,
      "d": 234.375,
      "v": 100
    },
    {
      "midi": 79,
      "hit": false,
      "t": 87187.5,
      "d": 234.375,
      "v": 100
    },
    {
      "midi": 71,
      "hit": false,
      "t": 87187.5,
      "d": 234.375,
      "v": 100
    },
    {
      "midi": 72,
      "hit": false,
      "t": 87421.875,
      "d": 234.375,
      "v": 100
    },
    {
      "midi": 87,
      "hit": false,
      "t": 87656.25,
      "d": 234.375,
      "v": 100
    },
    {
      "midi": 71,
      "hit": false,
      "t": 87656.25,
      "d": 234.375,
      "v": 100
    },
    {
      "midi": 68,
      "hit": false,
      "t": 87890.625,
      "d": 234.375,
      "v": 100
    },
    {
      "midi": 60,
      "hit": false,
      "t": 88125,
      "d": 234.375,
      "v": 100
    },
    {
      "midi": 63,
      "hit": false,
      "t": 88359.375,
      "d": 234.375,
      "v": 100
    },
    {
      "midi": 67,
      "hit": false,
      "t": 88593.75,
      "d": 234.375,
      "v": 100
    },
    {
      "midi": 68,
      "hit": false,
      "t": 88828.125,
      "d": 234.375,
      "v": 100
    },
    {
      "midi": 71,
      "hit": false,
      "t": 89062.5,
      "d": 234.375,
      "v": 100
    },
    {
      "midi": 72,
      "hit": false,
      "t": 89296.875,
      "d": 234.375,
      "v": 100
    },
    {
      "midi": 71,
      "hit": false,
      "t": 89531.25,
      "d": 234.375,
      "v": 100
    },
    {
      "midi": 68,
      "hit": false,
      "t": 89765.625,
      "d": 234.375,
      "v": 100
    },
    {
      "midi": 59,
      "hit": false,
      "t": 90000,
      "d": 234.375,
      "v": 100
    },
    {
      "midi": 61,
      "hit": false,
      "t": 90234.375,
      "d": 234.375,
      "v": 100
    },
    {
      "midi": 62,
      "hit": false,
      "t": 90468.75,
      "d": 234.375,
      "v": 100
    },
    {
      "midi": 69,
      "hit": false,
      "t": 90703.125,
      "d": 234.375,
      "v": 100
    },
    {
      "midi": 71,
      "hit": false,
      "t": 90937.5,
      "d": 234.375,
      "v": 100
    },
    {
      "midi": 73,
      "hit": false,
      "t": 91171.875,
      "d": 234.375,
      "v": 100
    },
    {
      "midi": 74,
      "hit": false,
      "t": 91406.25,
      "d": 234.375,
      "v": 100
    },
    {
      "midi": 81,
      "hit": false,
      "t": 91640.625,
      "d": 234.375,
      "v": 100
    },
    {
      "midi": 83,
      "hit": false,
      "t": 91875,
      "d": 234.375,
      "v": 100
    },
    {
      "midi": 85,
      "hit": false,
      "t": 92109.375,
      "d": 234.375,
      "v": 100
    },
    {
      "midi": 86,
      "hit": false,
      "t": 92343.75,
      "d": 234.375,
      "v": 100
    },
    {
      "midi": 93,
      "hit": false,
      "t": 92578.125,
      "d": 234.375,
      "v": 100
    },
    {
      "midi": 59,
      "hit": false,
      "t": 93750,
      "d": 234.375,
      "v": 100
    },
    {
      "midi": 61,
      "hit": false,
      "t": 93984.375,
      "d": 234.375,
      "v": 100
    },
    {
      "midi": 62,
      "hit": false,
      "t": 94218.75,
      "d": 234.375,
      "v": 100
    },
    {
      "midi": 68,
      "hit": false,
      "t": 94453.125,
      "d": 234.375,
      "v": 100
    },
    {
      "midi": 71,
      "hit": false,
      "t": 94687.5,
      "d": 234.375,
      "v": 100
    },
    {
      "midi": 73,
      "hit": false,
      "t": 94921.875,
      "d": 234.375,
      "v": 100
    },
    {
      "midi": 74,
      "hit": false,
      "t": 95156.25,
      "d": 234.375,
      "v": 100
    },
    {
      "midi": 80,
      "hit": false,
      "t": 95390.625,
      "d": 234.375,
      "v": 100
    },
    {
      "midi": 83,
      "hit": false,
      "t": 95625,
      "d": 234.375,
      "v": 100
    },
    {
      "midi": 85,
      "hit": false,
      "t": 95859.375,
      "d": 234.375,
      "v": 100
    },
    {
      "midi": 86,
      "hit": false,
      "t": 96093.75,
      "d": 234.375,
      "v": 100
    },
    {
      "midi": 92,
      "hit": false,
      "t": 96328.125,
      "d": 234.375,
      "v": 100
    },
    {
      "midi": 61,
      "hit": false,
      "t": 97500,
      "d": 234.375,
      "v": 100
    },
    {
      "midi": 63,
      "hit": false,
      "t": 97734.375,
      "d": 234.375,
      "v": 100
    },
    {
      "midi": 64,
      "hit": false,
      "t": 97968.75,
      "d": 234.375,
      "v": 100
    },
    {
      "midi": 71,
      "hit": false,
      "t": 98203.125,
      "d": 234.375,
      "v": 100
    },
    {
      "midi": 73,
      "hit": false,
      "t": 98437.5,
      "d": 234.375,
      "v": 100
    },
    {
      "midi": 75,
      "hit": false,
      "t": 98671.875,
      "d": 234.375,
      "v": 100
    },
    {
      "midi": 76,
      "hit": false,
      "t": 98906.25,
      "d": 234.375,
      "v": 100
    },
    {
      "midi": 83,
      "hit": false,
      "t": 99140.625,
      "d": 234.375,
      "v": 100
    },
    {
      "midi": 85,
      "hit": false,
      "t": 99375,
      "d": 234.375,
      "v": 100
    },
    {
      "midi": 87,
      "hit": false,
      "t": 99609.375,
      "d": 234.375,
      "v": 100
    },
    {
      "midi": 88,
      "hit": false,
      "t": 99843.75,
      "d": 234.375,
      "v": 100
    },
    {
      "midi": 95,
      "hit": false,
      "t": 100078.125,
      "d": 234.375,
      "v": 100
    },
    {
      "midi": 61,
      "hit": false,
      "t": 101250,
      "d": 234.375,
      "v": 100
    },
    {
      "midi": 63,
      "hit": false,
      "t": 101484.375,
      "d": 234.375,
      "v": 100
    },
    {
      "midi": 64,
      "hit": false,
      "t": 101718.75,
      "d": 234.375,
      "v": 100
    },
    {
      "midi": 70,
      "hit": false,
      "t": 101953.125,
      "d": 234.375,
      "v": 100
    },
    {
      "midi": 73,
      "hit": false,
      "t": 102187.5,
      "d": 234.375,
      "v": 100
    },
    {
      "midi": 75,
      "hit": false,
      "t": 102421.875,
      "d": 234.375,
      "v": 100
    },
    {
      "midi": 76,
      "hit": false,
      "t": 102656.25,
      "d": 234.375,
      "v": 100
    },
    {
      "midi": 82,
      "hit": false,
      "t": 102890.625,
      "d": 234.375,
      "v": 100
    },
    {
      "midi": 85,
      "hit": false,
      "t": 103125,
      "d": 234.375,
      "v": 100
    },
    {
      "midi": 87,
      "hit": false,
      "t": 103359.375,
      "d": 234.375,
      "v": 100
    },
    {
      "midi": 88,
      "hit": false,
      "t": 103593.75,
      "d": 234.375,
      "v": 100
    },
    {
      "midi": 94,
      "hit": false,
      "t": 103828.125,
      "d": 234.375,
      "v": 100
    },
    {
      "midi": 69,
      "hit": false,
      "t": 105000,
      "d": 234.375,
      "v": 100
    },
    {
      "midi": 73,
      "hit": false,
      "t": 105234.375,
      "d": 234.375,
      "v": 100
    },
    {
      "midi": 72,
      "hit": false,
      "t": 105468.75,
      "d": 234.375,
      "v": 100
    },
    {
      "midi": 73,
      "hit": false,
      "t": 105703.125,
      "d": 234.375,
      "v": 100
    },
    {
      "midi": 69,
      "hit": false,
      "t": 105937.5,
      "d": 234.375,
      "v": 100
    },
    {
      "midi": 73,
      "hit": false,
      "t": 106171.875,
      "d": 234.375,
      "v": 100
    },
    {
      "midi": 72,
      "hit": false,
      "t": 106406.25,
      "d": 234.375,
      "v": 100
    },
    {
      "midi": 73,
      "hit": false,
      "t": 106640.625,
      "d": 234.375,
      "v": 100
    },
    {
      "midi": 69,
      "hit": false,
      "t": 106875,
      "d": 234.375,
      "v": 100
    },
    {
      "midi": 73,
      "hit": false,
      "t": 107109.375,
      "d": 234.375,
      "v": 100
    },
    {
      "midi": 72,
      "hit": false,
      "t": 107343.75,
      "d": 234.375,
      "v": 100
    },
    {
      "midi": 73,
      "hit": false,
      "t": 107578.125,
      "d": 234.375,
      "v": 100
    },
    {
      "midi": 69,
      "hit": false,
      "t": 107812.5,
      "d": 234.375,
      "v": 100
    },
    {
      "midi": 73,
      "hit": false,
      "t": 108046.875,
      "d": 234.375,
      "v": 100
    },
    {
      "midi": 72,
      "hit": false,
      "t": 108281.25,
      "d": 234.375,
      "v": 100
    },
    {
      "midi": 73,
      "hit": false,
      "t": 108515.625,
      "d": 234.375,
      "v": 100
    },
    {
      "midi": 68,
      "hit": false,
      "t": 108750,
      "d": 234.375,
      "v": 100
    },
    {
      "midi": 71,
      "hit": false,
      "t": 108984.375,
      "d": 234.375,
      "v": 100
    },
    {
      "midi": 72,
      "hit": false,
      "t": 109218.75,
      "d": 234.375,
      "v": 100
    },
    {
      "midi": 71,
      "hit": false,
      "t": 109453.125,
      "d": 234.375,
      "v": 100
    },
    {
      "midi": 68,
      "hit": false,
      "t": 109687.5,
      "d": 234.375,
      "v": 100
    },
    {
      "midi": 71,
      "hit": false,
      "t": 109921.875,
      "d": 234.375,
      "v": 100
    },
    {
      "midi": 72,
      "hit": false,
      "t": 110156.25,
      "d": 234.375,
      "v": 100
    },
    {
      "midi": 71,
      "hit": false,
      "t": 110390.625,
      "d": 234.375,
      "v": 100
    },
    {
      "midi": 68,
      "hit": false,
      "t": 110625,
      "d": 234.375,
      "v": 100
    },
    {
      "midi": 71,
      "hit": false,
      "t": 110859.375,
      "d": 234.375,
      "v": 100
    },
    {
      "midi": 72,
      "hit": false,
      "t": 111093.75,
      "d": 234.375,
      "v": 100
    },
    {
      "midi": 71,
      "hit": false,
      "t": 111328.125,
      "d": 234.375,
      "v": 100
    },
    {
      "midi": 68,
      "hit": false,
      "t": 111562.5,
      "d": 234.375,
      "v": 100
    },
    {
      "midi": 71,
      "hit": false,
      "t": 111796.875,
      "d": 234.375,
      "v": 100
    },
    {
      "midi": 72,
      "hit": false,
      "t": 112031.25,
      "d": 234.375,
      "v": 100
    },
    {
      "midi": 71,
      "hit": false,
      "t": 112265.625,
      "d": 234.375,
      "v": 100
    },
    {
      "midi": 69,
      "hit": false,
      "t": 112500,
      "d": 234.375,
      "v": 100
    },
    {
      "midi": 73,
      "hit": false,
      "t": 112734.375,
      "d": 234.375,
      "v": 100
    },
    {
      "midi": 72,
      "hit": false,
      "t": 112968.75,
      "d": 234.375,
      "v": 100
    },
    {
      "midi": 73,
      "hit": false,
      "t": 113203.125,
      "d": 234.375,
      "v": 100
    },
    {
      "midi": 69,
      "hit": false,
      "t": 113437.5,
      "d": 234.375,
      "v": 100
    },
    {
      "midi": 73,
      "hit": false,
      "t": 113671.875,
      "d": 234.375,
      "v": 100
    },
    {
      "midi": 72,
      "hit": false,
      "t": 113906.25,
      "d": 234.375,
      "v": 100
    },
    {
      "midi": 73,
      "hit": false,
      "t": 114140.625,
      "d": 234.375,
      "v": 100
    },
    {
      "midi": 69,
      "hit": false,
      "t": 114375,
      "d": 234.375,
      "v": 100
    },
    {
      "midi": 73,
      "hit": false,
      "t": 114609.375,
      "d": 234.375,
      "v": 100
    },
    {
      "midi": 72,
      "hit": false,
      "t": 114843.75,
      "d": 234.375,
      "v": 100
    },
    {
      "midi": 73,
      "hit": false,
      "t": 115078.125,
      "d": 234.375,
      "v": 100
    },
    {
      "midi": 69,
      "hit": false,
      "t": 115312.5,
      "d": 234.375,
      "v": 100
    },
    {
      "midi": 73,
      "hit": false,
      "t": 115546.875,
      "d": 234.375,
      "v": 100
    },
    {
      "midi": 72,
      "hit": false,
      "t": 115781.25,
      "d": 234.375,
      "v": 100
    },
    {
      "midi": 73,
      "hit": false,
      "t": 116015.625,
      "d": 234.375,
      "v": 100
    },
    {
      "midi": 68,
      "hit": false,
      "t": 116250,
      "d": 234.375,
      "v": 100
    },
    {
      "midi": 71,
      "hit": false,
      "t": 116484.375,
      "d": 234.375,
      "v": 100
    },
    {
      "midi": 72,
      "hit": false,
      "t": 116718.75,
      "d": 234.375,
      "v": 100
    },
    {
      "midi": 71,
      "hit": false,
      "t": 116953.125,
      "d": 234.375,
      "v": 100
    },
    {
      "midi": 68,
      "hit": false,
      "t": 117187.5,
      "d": 234.375,
      "v": 100
    },
    {
      "midi": 71,
      "hit": false,
      "t": 117421.875,
      "d": 234.375,
      "v": 100
    },
    {
      "midi": 72,
      "hit": false,
      "t": 117656.25,
      "d": 234.375,
      "v": 100
    },
    {
      "midi": 71,
      "hit": false,
      "t": 117890.625,
      "d": 234.375,
      "v": 100
    },
    {
      "midi": 68,
      "hit": false,
      "t": 118125,
      "d": 234.375,
      "v": 100
    },
    {
      "midi": 71,
      "hit": false,
      "t": 118359.375,
      "d": 234.375,
      "v": 100
    },
    {
      "midi": 72,
      "hit": false,
      "t": 118593.75,
      "d": 234.375,
      "v": 100
    },
    {
      "midi": 71,
      "hit": false,
      "t": 118828.125,
      "d": 234.375,
      "v": 100
    },
    {
      "midi": 68,
      "hit": false,
      "t": 119062.5,
      "d": 234.375,
      "v": 100
    },
    {
      "midi": 71,
      "hit": false,
      "t": 119296.875,
      "d": 234.375,
      "v": 100
    },
    {
      "midi": 72,
      "hit": false,
      "t": 119531.25,
      "d": 234.375,
      "v": 100
    },
    {
      "midi": 71,
      "hit": false,
      "t": 119765.625,
      "d": 234.375,
      "v": 100
    },
    {
      "midi": 69,
      "hit": false,
      "t": 120000,
      "d": 234.375,
      "v": 100
    },
    {
      "midi": 73,
      "hit": false,
      "t": 120234.375,
      "d": 234.375,
      "v": 100
    },
    {
      "midi": 72,
      "hit": false,
      "t": 120468.75,
      "d": 234.375,
      "v": 100
    },
    {
      "midi": 73,
      "hit": false,
      "t": 120703.125,
      "d": 234.375,
      "v": 100
    },
    {
      "midi": 69,
      "hit": false,
      "t": 120937.5,
      "d": 234.375,
      "v": 100
    },
    {
      "midi": 73,
      "hit": false,
      "t": 121171.875,
      "d": 234.375,
      "v": 100
    },
    {
      "midi": 72,
      "hit": false,
      "t": 121406.25,
      "d": 234.375,
      "v": 100
    },
    {
      "midi": 73,
      "hit": false,
      "t": 121640.625,
      "d": 234.375,
      "v": 100
    },
    {
      "midi": 69,
      "hit": false,
      "t": 121875,
      "d": 234.375,
      "v": 100
    },
    {
      "midi": 73,
      "hit": false,
      "t": 122109.375,
      "d": 234.375,
      "v": 100
    },
    {
      "midi": 72,
      "hit": false,
      "t": 122343.75,
      "d": 234.375,
      "v": 100
    },
    {
      "midi": 73,
      "hit": false,
      "t": 122578.125,
      "d": 234.375,
      "v": 100
    },
    {
      "midi": 69,
      "hit": false,
      "t": 122812.5,
      "d": 234.375,
      "v": 100
    },
    {
      "midi": 73,
      "hit": false,
      "t": 123046.875,
      "d": 234.375,
      "v": 100
    },
    {
      "midi": 72,
      "hit": false,
      "t": 123281.25,
      "d": 234.375,
      "v": 100
    },
    {
      "midi": 73,
      "hit": false,
      "t": 123515.625,
      "d": 234.375,
      "v": 100
    },
    {
      "midi": 68,
      "hit": false,
      "t": 123750,
      "d": 234.375,
      "v": 100
    },
    {
      "midi": 71,
      "hit": false,
      "t": 123984.375,
      "d": 234.375,
      "v": 100
    },
    {
      "midi": 72,
      "hit": false,
      "t": 124218.75,
      "d": 234.375,
      "v": 100
    },
    {
      "midi": 71,
      "hit": false,
      "t": 124453.125,
      "d": 234.375,
      "v": 100
    },
    {
      "midi": 68,
      "hit": false,
      "t": 124687.5,
      "d": 234.375,
      "v": 100
    },
    {
      "midi": 71,
      "hit": false,
      "t": 124921.875,
      "d": 234.375,
      "v": 100
    },
    {
      "midi": 72,
      "hit": false,
      "t": 125156.25,
      "d": 234.375,
      "v": 100
    },
    {
      "midi": 71,
      "hit": false,
      "t": 125390.625,
      "d": 234.375,
      "v": 100
    },
    {
      "midi": 68,
      "hit": false,
      "t": 125625,
      "d": 234.375,
      "v": 100
    },
    {
      "midi": 71,
      "hit": false,
      "t": 125859.375,
      "d": 234.375,
      "v": 100
    },
    {
      "midi": 72,
      "hit": false,
      "t": 126093.75,
      "d": 234.375,
      "v": 100
    },
    {
      "midi": 71,
      "hit": false,
      "t": 126328.125,
      "d": 234.375,
      "v": 100
    },
    {
      "midi": 68,
      "hit": false,
      "t": 126562.5,
      "d": 234.375,
      "v": 100
    },
    {
      "midi": 71,
      "hit": false,
      "t": 126796.875,
      "d": 234.375,
      "v": 100
    },
    {
      "midi": 72,
      "hit": false,
      "t": 127031.25,
      "d": 234.375,
      "v": 100
    },
    {
      "midi": 71,
      "hit": false,
      "t": 127265.625,
      "d": 234.375,
      "v": 100
    },
    {
      "midi": 69,
      "hit": false,
      "t": 127500,
      "d": 234.375,
      "v": 100
    },
    {
      "midi": 73,
      "hit": false,
      "t": 127734.375,
      "d": 234.375,
      "v": 100
    },
    {
      "midi": 72,
      "hit": false,
      "t": 127968.75,
      "d": 234.375,
      "v": 100
    },
    {
      "midi": 73,
      "hit": false,
      "t": 128203.125,
      "d": 234.375,
      "v": 100
    },
    {
      "midi": 69,
      "hit": false,
      "t": 128437.5,
      "d": 234.375,
      "v": 100
    },
    {
      "midi": 73,
      "hit": false,
      "t": 128671.875,
      "d": 234.375,
      "v": 100
    },
    {
      "midi": 72,
      "hit": false,
      "t": 128906.25,
      "d": 234.375,
      "v": 100
    },
    {
      "midi": 73,
      "hit": false,
      "t": 129140.625,
      "d": 234.375,
      "v": 100
    },
    {
      "midi": 69,
      "hit": false,
      "t": 129375,
      "d": 234.375,
      "v": 100
    },
    {
      "midi": 73,
      "hit": false,
      "t": 129609.375,
      "d": 234.375,
      "v": 100
    },
    {
      "midi": 72,
      "hit": false,
      "t": 129843.75,
      "d": 234.375,
      "v": 100
    },
    {
      "midi": 73,
      "hit": false,
      "t": 130078.125,
      "d": 234.375,
      "v": 100
    },
    {
      "midi": 69,
      "hit": false,
      "t": 130312.5,
      "d": 234.375,
      "v": 100
    },
    {
      "midi": 73,
      "hit": false,
      "t": 130546.875,
      "d": 234.375,
      "v": 100
    },
    {
      "midi": 72,
      "hit": false,
      "t": 130781.25,
      "d": 234.375,
      "v": 100
    },
    {
      "midi": 73,
      "hit": false,
      "t": 131015.625,
      "d": 234.375,
      "v": 100
    },
    {
      "midi": 68,
      "hit": false,
      "t": 131250,
      "d": 234.375,
      "v": 100
    },
    {
      "midi": 71,
      "hit": false,
      "t": 131484.375,
      "d": 234.375,
      "v": 100
    },
    {
      "midi": 72,
      "hit": false,
      "t": 131718.75,
      "d": 234.375,
      "v": 100
    },
    {
      "midi": 71,
      "hit": false,
      "t": 131953.125,
      "d": 234.375,
      "v": 100
    },
    {
      "midi": 68,
      "hit": false,
      "t": 132187.5,
      "d": 234.375,
      "v": 100
    },
    {
      "midi": 71,
      "hit": false,
      "t": 132421.875,
      "d": 234.375,
      "v": 100
    },
    {
      "midi": 72,
      "hit": false,
      "t": 132656.25,
      "d": 234.375,
      "v": 100
    },
    {
      "midi": 71,
      "hit": false,
      "t": 132890.625,
      "d": 234.375,
      "v": 100
    },
    {
      "midi": 68,
      "hit": false,
      "t": 133125,
      "d": 234.375,
      "v": 100
    },
    {
      "midi": 71,
      "hit": false,
      "t": 133359.375,
      "d": 234.375,
      "v": 100
    },
    {
      "midi": 72,
      "hit": false,
      "t": 133593.75,
      "d": 234.375,
      "v": 100
    },
    {
      "midi": 71,
      "hit": false,
      "t": 133828.125,
      "d": 234.375,
      "v": 100
    },
    {
      "midi": 68,
      "hit": false,
      "t": 134062.5,
      "d": 234.375,
      "v": 100
    },
    {
      "midi": 71,
      "hit": false,
      "t": 134296.875,
      "d": 234.375,
      "v": 100
    },
    {
      "midi": 72,
      "hit": false,
      "t": 134531.25,
      "d": 234.375,
      "v": 100
    },
    {
      "midi": 71,
      "hit": false,
      "t": 134765.625,
      "d": 234.375,
      "v": 100
    },
    {
      "midi": 69,
      "hit": false,
      "t": 135000,
      "d": 234.375,
      "v": 100
    },
    {
      "midi": 73,
      "hit": false,
      "t": 135234.375,
      "d": 234.375,
      "v": 100
    },
    {
      "midi": 72,
      "hit": false,
      "t": 135468.75,
      "d": 234.375,
      "v": 100
    },
    {
      "midi": 73,
      "hit": false,
      "t": 135703.125,
      "d": 234.375,
      "v": 100
    },
    {
      "midi": 69,
      "hit": false,
      "t": 135937.5,
      "d": 234.375,
      "v": 100
    },
    {
      "midi": 73,
      "hit": false,
      "t": 136171.875,
      "d": 234.375,
      "v": 100
    },
    {
      "midi": 72,
      "hit": false,
      "t": 136406.25,
      "d": 234.375,
      "v": 100
    },
    {
      "midi": 73,
      "hit": false,
      "t": 136640.625,
      "d": 234.375,
      "v": 100
    },
    {
      "midi": 69,
      "hit": false,
      "t": 136875,
      "d": 234.375,
      "v": 100
    },
    {
      "midi": 73,
      "hit": false,
      "t": 137109.375,
      "d": 234.375,
      "v": 100
    },
    {
      "midi": 72,
      "hit": false,
      "t": 137343.75,
      "d": 234.375,
      "v": 100
    },
    {
      "midi": 73,
      "hit": false,
      "t": 137578.125,
      "d": 234.375,
      "v": 100
    },
    {
      "midi": 69,
      "hit": false,
      "t": 137812.5,
      "d": 234.375,
      "v": 100
    },
    {
      "midi": 73,
      "hit": false,
      "t": 138046.875,
      "d": 234.375,
      "v": 100
    },
    {
      "midi": 72,
      "hit": false,
      "t": 138281.25,
      "d": 234.375,
      "v": 100
    },
    {
      "midi": 73,
      "hit": false,
      "t": 138515.625,
      "d": 234.375,
      "v": 100
    },
    {
      "midi": 68,
      "hit": false,
      "t": 138750,
      "d": 234.375,
      "v": 100
    },
    {
      "midi": 71,
      "hit": false,
      "t": 138984.375,
      "d": 234.375,
      "v": 100
    },
    {
      "midi": 72,
      "hit": false,
      "t": 139218.75,
      "d": 234.375,
      "v": 100
    },
    {
      "midi": 71,
      "hit": false,
      "t": 139453.125,
      "d": 234.375,
      "v": 100
    },
    {
      "midi": 68,
      "hit": false,
      "t": 139687.5,
      "d": 234.375,
      "v": 100
    },
    {
      "midi": 71,
      "hit": false,
      "t": 139921.875,
      "d": 234.375,
      "v": 100
    },
    {
      "midi": 72,
      "hit": false,
      "t": 140156.25,
      "d": 234.375,
      "v": 100
    },
    {
      "midi": 71,
      "hit": false,
      "t": 140390.625,
      "d": 234.375,
      "v": 100
    },
    {
      "midi": 68,
      "hit": false,
      "t": 140625,
      "d": 234.375,
      "v": 100
    },
    {
      "midi": 71,
      "hit": false,
      "t": 140859.375,
      "d": 234.375,
      "v": 100
    },
    {
      "midi": 72,
      "hit": false,
      "t": 141093.75,
      "d": 234.375,
      "v": 100
    },
    {
      "midi": 71,
      "hit": false,
      "t": 141328.125,
      "d": 234.375,
      "v": 100
    },
    {
      "midi": 68,
      "hit": false,
      "t": 141562.5,
      "d": 234.375,
      "v": 100
    },
    {
      "midi": 71,
      "hit": false,
      "t": 141796.875,
      "d": 234.375,
      "v": 100
    },
    {
      "midi": 72,
      "hit": false,
      "t": 142031.25,
      "d": 234.375,
      "v": 100
    },
    {
      "midi": 71,
      "hit": false,
      "t": 142265.625,
      "d": 234.375,
      "v": 100
    },
    {
      "midi": 69,
      "hit": false,
      "t": 142500,
      "d": 234.375,
      "v": 100
    },
    {
      "midi": 73,
      "hit": false,
      "t": 142734.375,
      "d": 234.375,
      "v": 100
    },
    {
      "midi": 72,
      "hit": false,
      "t": 142968.75,
      "d": 234.375,
      "v": 100
    },
    {
      "midi": 73,
      "hit": false,
      "t": 143203.125,
      "d": 234.375,
      "v": 100
    },
    {
      "midi": 69,
      "hit": false,
      "t": 143437.5,
      "d": 234.375,
      "v": 100
    },
    {
      "midi": 73,
      "hit": false,
      "t": 143671.875,
      "d": 234.375,
      "v": 100
    },
    {
      "midi": 72,
      "hit": false,
      "t": 143906.25,
      "d": 234.375,
      "v": 100
    },
    {
      "midi": 73,
      "hit": false,
      "t": 144140.625,
      "d": 234.375,
      "v": 100
    },
    {
      "midi": 69,
      "hit": false,
      "t": 144375,
      "d": 234.375,
      "v": 100
    },
    {
      "midi": 73,
      "hit": false,
      "t": 144609.375,
      "d": 234.375,
      "v": 100
    },
    {
      "midi": 72,
      "hit": false,
      "t": 144843.75,
      "d": 234.375,
      "v": 100
    },
    {
      "midi": 73,
      "hit": false,
      "t": 145078.125,
      "d": 234.375,
      "v": 100
    },
    {
      "midi": 69,
      "hit": false,
      "t": 145312.5,
      "d": 234.375,
      "v": 100
    },
    {
      "midi": 73,
      "hit": false,
      "t": 145546.875,
      "d": 234.375,
      "v": 100
    },
    {
      "midi": 72,
      "hit": false,
      "t": 145781.25,
      "d": 234.375,
      "v": 100
    },
    {
      "midi": 73,
      "hit": false,
      "t": 146015.625,
      "d": 234.375,
      "v": 100
    },
    {
      "midi": 68,
      "hit": false,
      "t": 146250,
      "d": 234.375,
      "v": 100
    },
    {
      "midi": 71,
      "hit": false,
      "t": 146484.375,
      "d": 234.375,
      "v": 100
    },
    {
      "midi": 72,
      "hit": false,
      "t": 146718.75,
      "d": 234.375,
      "v": 100
    },
    {
      "midi": 71,
      "hit": false,
      "t": 146953.125,
      "d": 234.375,
      "v": 100
    },
    {
      "midi": 68,
      "hit": false,
      "t": 147187.5,
      "d": 234.375,
      "v": 100
    },
    {
      "midi": 71,
      "hit": false,
      "t": 147421.875,
      "d": 234.375,
      "v": 100
    },
    {
      "midi": 72,
      "hit": false,
      "t": 147656.25,
      "d": 234.375,
      "v": 100
    },
    {
      "midi": 71,
      "hit": false,
      "t": 147890.625,
      "d": 234.375,
      "v": 100
    },
    {
      "midi": 68,
      "hit": false,
      "t": 148125,
      "d": 234.375,
      "v": 100
    },
    {
      "midi": 71,
      "hit": false,
      "t": 148359.375,
      "d": 234.375,
      "v": 100
    },
    {
      "midi": 72,
      "hit": false,
      "t": 148593.75,
      "d": 234.375,
      "v": 100
    },
    {
      "midi": 71,
      "hit": false,
      "t": 148828.125,
      "d": 234.375,
      "v": 100
    },
    {
      "midi": 68,
      "hit": false,
      "t": 149062.5,
      "d": 234.375,
      "v": 100
    },
    {
      "midi": 71,
      "hit": false,
      "t": 149296.875,
      "d": 234.375,
      "v": 100
    },
    {
      "midi": 72,
      "hit": false,
      "t": 149531.25,
      "d": 234.375,
      "v": 100
    },
    {
      "midi": 71,
      "hit": false,
      "t": 149765.625,
      "d": 234.375,
      "v": 100
    },
    {
      "midi": 73,
      "hit": false,
      "t": 150000,
      "d": 234.375,
      "v": 100
    },
    {
      "midi": 69,
      "hit": false,
      "t": 150000,
      "d": 234.375,
      "v": 100
    },
    {
      "midi": 73,
      "hit": false,
      "t": 150234.375,
      "d": 234.375,
      "v": 100
    },
    {
      "midi": 81,
      "hit": false,
      "t": 150468.75,
      "d": 234.375,
      "v": 100
    },
    {
      "midi": 72,
      "hit": false,
      "t": 150468.75,
      "d": 234.375,
      "v": 100
    },
    {
      "midi": 73,
      "hit": false,
      "t": 150703.125,
      "d": 234.375,
      "v": 100
    },
    {
      "midi": 80,
      "hit": false,
      "t": 150937.5,
      "d": 234.375,
      "v": 100
    },
    {
      "midi": 69,
      "hit": false,
      "t": 150937.5,
      "d": 234.375,
      "v": 100
    },
    {
      "midi": 73,
      "hit": false,
      "t": 151171.875,
      "d": 234.375,
      "v": 100
    },
    {
      "midi": 88,
      "hit": false,
      "t": 151406.25,
      "d": 234.375,
      "v": 100
    },
    {
      "midi": 72,
      "hit": false,
      "t": 151406.25,
      "d": 234.375,
      "v": 100
    },
    {
      "midi": 73,
      "hit": false,
      "t": 151640.625,
      "d": 234.375,
      "v": 100
    },
    {
      "midi": 69,
      "hit": false,
      "t": 151875,
      "d": 234.375,
      "v": 100
    },
    {
      "midi": 73,
      "hit": false,
      "t": 152109.375,
      "d": 234.375,
      "v": 100
    },
    {
      "midi": 72,
      "hit": false,
      "t": 152343.75,
      "d": 234.375,
      "v": 100
    },
    {
      "midi": 73,
      "hit": false,
      "t": 152578.125,
      "d": 234.375,
      "v": 100
    },
    {
      "midi": 69,
      "hit": false,
      "t": 152812.5,
      "d": 234.375,
      "v": 100
    },
    {
      "midi": 73,
      "hit": false,
      "t": 153046.875,
      "d": 234.375,
      "v": 100
    },
    {
      "midi": 72,
      "hit": false,
      "t": 153281.25,
      "d": 234.375,
      "v": 100
    },
    {
      "midi": 73,
      "hit": false,
      "t": 153515.625,
      "d": 234.375,
      "v": 100
    },
    {
      "midi": 72,
      "hit": false,
      "t": 153750,
      "d": 234.375,
      "v": 100
    },
    {
      "midi": 68,
      "hit": false,
      "t": 153750,
      "d": 234.375,
      "v": 100
    },
    {
      "midi": 71,
      "hit": false,
      "t": 153984.375,
      "d": 234.375,
      "v": 100
    },
    {
      "midi": 80,
      "hit": false,
      "t": 154218.75,
      "d": 234.375,
      "v": 100
    },
    {
      "midi": 72,
      "hit": false,
      "t": 154218.75,
      "d": 234.375,
      "v": 100
    },
    {
      "midi": 71,
      "hit": false,
      "t": 154453.125,
      "d": 234.375,
      "v": 100
    },
    {
      "midi": 79,
      "hit": false,
      "t": 154687.5,
      "d": 234.375,
      "v": 100
    },
    {
      "midi": 68,
      "hit": false,
      "t": 154687.5,
      "d": 234.375,
      "v": 100
    },
    {
      "midi": 71,
      "hit": false,
      "t": 154921.875,
      "d": 234.375,
      "v": 100
    },
    {
      "midi": 87,
      "hit": false,
      "t": 155156.25,
      "d": 234.375,
      "v": 100
    },
    {
      "midi": 72,
      "hit": false,
      "t": 155156.25,
      "d": 234.375,
      "v": 100
    },
    {
      "midi": 71,
      "hit": false,
      "t": 155390.625,
      "d": 234.375,
      "v": 100
    },
    {
      "midi": 68,
      "hit": false,
      "t": 155625,
      "d": 234.375,
      "v": 100
    },
    {
      "midi": 71,
      "hit": false,
      "t": 155859.375,
      "d": 234.375,
      "v": 100
    },
    {
      "midi": 72,
      "hit": false,
      "t": 156093.75,
      "d": 234.375,
      "v": 100
    },
    {
      "midi": 71,
      "hit": false,
      "t": 156328.125,
      "d": 234.375,
      "v": 100
    },
    {
      "midi": 68,
      "hit": false,
      "t": 156562.5,
      "d": 234.375,
      "v": 100
    },
    {
      "midi": 71,
      "hit": false,
      "t": 156796.875,
      "d": 234.375,
      "v": 100
    },
    {
      "midi": 72,
      "hit": false,
      "t": 157031.25,
      "d": 234.375,
      "v": 100
    },
    {
      "midi": 71,
      "hit": false,
      "t": 157265.625,
      "d": 234.375,
      "v": 100
    },
    {
      "midi": 73,
      "hit": false,
      "t": 157500,
      "d": 234.375,
      "v": 100
    },
    {
      "midi": 69,
      "hit": false,
      "t": 157500,
      "d": 234.375,
      "v": 100
    },
    {
      "midi": 73,
      "hit": false,
      "t": 157734.375,
      "d": 234.375,
      "v": 100
    },
    {
      "midi": 81,
      "hit": false,
      "t": 157968.75,
      "d": 234.375,
      "v": 100
    },
    {
      "midi": 72,
      "hit": false,
      "t": 157968.75,
      "d": 234.375,
      "v": 100
    },
    {
      "midi": 73,
      "hit": false,
      "t": 158203.125,
      "d": 234.375,
      "v": 100
    },
    {
      "midi": 80,
      "hit": false,
      "t": 158437.5,
      "d": 234.375,
      "v": 100
    },
    {
      "midi": 69,
      "hit": false,
      "t": 158437.5,
      "d": 234.375,
      "v": 100
    },
    {
      "midi": 73,
      "hit": false,
      "t": 158671.875,
      "d": 234.375,
      "v": 100
    },
    {
      "midi": 88,
      "hit": false,
      "t": 158906.25,
      "d": 234.375,
      "v": 100
    },
    {
      "midi": 72,
      "hit": false,
      "t": 158906.25,
      "d": 234.375,
      "v": 100
    },
    {
      "midi": 73,
      "hit": false,
      "t": 159140.625,
      "d": 234.375,
      "v": 100
    },
    {
      "midi": 69,
      "hit": false,
      "t": 159375,
      "d": 234.375,
      "v": 100
    },
    {
      "midi": 73,
      "hit": false,
      "t": 159609.375,
      "d": 234.375,
      "v": 100
    },
    {
      "midi": 72,
      "hit": false,
      "t": 159843.75,
      "d": 234.375,
      "v": 100
    },
    {
      "midi": 73,
      "hit": false,
      "t": 160078.125,
      "d": 234.375,
      "v": 100
    },
    {
      "midi": 69,
      "hit": false,
      "t": 160312.5,
      "d": 234.375,
      "v": 100
    },
    {
      "midi": 73,
      "hit": false,
      "t": 160546.875,
      "d": 234.375,
      "v": 100
    },
    {
      "midi": 72,
      "hit": false,
      "t": 160781.25,
      "d": 234.375,
      "v": 100
    },
    {
      "midi": 73,
      "hit": false,
      "t": 161015.625,
      "d": 234.375,
      "v": 100
    },
    {
      "midi": 72,
      "hit": false,
      "t": 161250,
      "d": 234.375,
      "v": 100
    },
    {
      "midi": 68,
      "hit": false,
      "t": 161250,
      "d": 234.375,
      "v": 100
    },
    {
      "midi": 71,
      "hit": false,
      "t": 161484.375,
      "d": 234.375,
      "v": 100
    },
    {
      "midi": 80,
      "hit": false,
      "t": 161718.75,
      "d": 234.375,
      "v": 100
    },
    {
      "midi": 72,
      "hit": false,
      "t": 161718.75,
      "d": 234.375,
      "v": 100
    },
    {
      "midi": 71,
      "hit": false,
      "t": 161953.125,
      "d": 234.375,
      "v": 100
    },
    {
      "midi": 79,
      "hit": false,
      "t": 162187.5,
      "d": 234.375,
      "v": 100
    },
    {
      "midi": 68,
      "hit": false,
      "t": 162187.5,
      "d": 234.375,
      "v": 100
    },
    {
      "midi": 71,
      "hit": false,
      "t": 162421.875,
      "d": 234.375,
      "v": 100
    },
    {
      "midi": 87,
      "hit": false,
      "t": 162656.25,
      "d": 234.375,
      "v": 100
    },
    {
      "midi": 72,
      "hit": false,
      "t": 162656.25,
      "d": 234.375,
      "v": 100
    },
    {
      "midi": 71,
      "hit": false,
      "t": 162890.625,
      "d": 234.375,
      "v": 100
    },
    {
      "midi": 68,
      "hit": false,
      "t": 163125,
      "d": 234.375,
      "v": 100
    },
    {
      "midi": 71,
      "hit": false,
      "t": 163359.375,
      "d": 234.375,
      "v": 100
    },
    {
      "midi": 72,
      "hit": false,
      "t": 163593.75,
      "d": 234.375,
      "v": 100
    },
    {
      "midi": 71,
      "hit": false,
      "t": 163828.125,
      "d": 234.375,
      "v": 100
    },
    {
      "midi": 68,
      "hit": false,
      "t": 164062.5,
      "d": 234.375,
      "v": 100
    },
    {
      "midi": 71,
      "hit": false,
      "t": 164296.875,
      "d": 234.375,
      "v": 100
    },
    {
      "midi": 72,
      "hit": false,
      "t": 164531.25,
      "d": 234.375,
      "v": 100
    },
    {
      "midi": 71,
      "hit": false,
      "t": 164765.625,
      "d": 234.375,
      "v": 100
    },
    {
      "midi": 75,
      "hit": false,
      "t": 165000,
      "d": 234.375,
      "v": 100
    },
    {
      "midi": 63,
      "hit": false,
      "t": 165234.375,
      "d": 234.375,
      "v": 100
    },
    {
      "midi": 85,
      "hit": false,
      "t": 165468.75,
      "d": 234.375,
      "v": 100
    },
    {
      "midi": 65,
      "hit": false,
      "t": 165468.75,
      "d": 234.375,
      "v": 100
    },
    {
      "midi": 63,
      "hit": false,
      "t": 165703.125,
      "d": 234.375,
      "v": 100
    },
    {
      "midi": 84,
      "hit": false,
      "t": 165937.5,
      "d": 234.375,
      "v": 100
    },
    {
      "midi": 65,
      "hit": false,
      "t": 165937.5,
      "d": 468.75,
      "v": 100
    },
    {
      "midi": 90,
      "hit": false,
      "t": 166406.25,
      "d": 234.375,
      "v": 100
    },
    {
      "midi": 63,
      "hit": false,
      "t": 167109.375,
      "d": 234.375,
      "v": 100
    },
    {
      "midi": 65,
      "hit": false,
      "t": 167343.75,
      "d": 234.375,
      "v": 100
    },
    {
      "midi": 63,
      "hit": false,
      "t": 167578.125,
      "d": 234.375,
      "v": 100
    },
    {
      "midi": 65,
      "hit": false,
      "t": 167812.5,
      "d": 468.75,
      "v": 100
    },
    {
      "midi": 85,
      "hit": false,
      "t": 168046.875,
      "d": 234.375,
      "v": 100
    },
    {
      "midi": 84,
      "hit": false,
      "t": 168281.25,
      "d": 234.375,
      "v": 100
    },
    {
      "midi": 75,
      "hit": false,
      "t": 168515.625,
      "d": 234.375,
      "v": 100
    },
    {
      "midi": 74,
      "hit": false,
      "t": 168750,
      "d": 234.375,
      "v": 100
    },
    {
      "midi": 62,
      "hit": false,
      "t": 168984.375,
      "d": 234.375,
      "v": 100
    },
    {
      "midi": 83,
      "hit": false,
      "t": 169218.75,
      "d": 234.375,
      "v": 100
    },
    {
      "midi": 65,
      "hit": false,
      "t": 169218.75,
      "d": 234.375,
      "v": 100
    },
    {
      "midi": 62,
      "hit": false,
      "t": 169453.125,
      "d": 234.375,
      "v": 100
    },
    {
      "midi": 82,
      "hit": false,
      "t": 169687.5,
      "d": 234.375,
      "v": 100
    },
    {
      "midi": 65,
      "hit": false,
      "t": 169687.5,
      "d": 468.75,
      "v": 100
    },
    {
      "midi": 89,
      "hit": false,
      "t": 170156.25,
      "d": 234.375,
      "v": 100
    },
    {
      "midi": 62,
      "hit": false,
      "t": 170859.375,
      "d": 234.375,
      "v": 100
    },
    {
      "midi": 65,
      "hit": false,
      "t": 171093.75,
      "d": 234.375,
      "v": 100
    },
    {
      "midi": 62,
      "hit": false,
      "t": 171328.125,
      "d": 234.375,
      "v": 100
    },
    {
      "midi": 65,
      "hit": false,
      "t": 171562.5,
      "d": 468.75,
      "v": 100
    },
    {
      "midi": 75,
      "hit": false,
      "t": 172500,
      "d": 234.375,
      "v": 100
    },
    {
      "midi": 63,
      "hit": false,
      "t": 172734.375,
      "d": 234.375,
      "v": 100
    },
    {
      "midi": 85,
      "hit": false,
      "t": 172968.75,
      "d": 234.375,
      "v": 100
    },
    {
      "midi": 65,
      "hit": false,
      "t": 172968.75,
      "d": 234.375,
      "v": 100
    },
    {
      "midi": 66,
      "hit": false,
      "t": 173203.125,
      "d": 234.375,
      "v": 100
    },
    {
      "midi": 84,
      "hit": false,
      "t": 173437.5,
      "d": 234.375,
      "v": 100
    },
    {
      "midi": 70,
      "hit": false,
      "t": 173437.5,
      "d": 468.75,
      "v": 100
    },
    {
      "midi": 90,
      "hit": false,
      "t": 173906.25,
      "d": 234.375,
      "v": 100
    },
    {
      "midi": 63,
      "hit": false,
      "t": 174609.375,
      "d": 234.375,
      "v": 100
    },
    {
      "midi": 65,
      "hit": false,
      "t": 174843.75,
      "d": 234.375,
      "v": 100
    },
    {
      "midi": 66,
      "hit": false,
      "t": 175078.125,
      "d": 234.375,
      "v": 100
    },
    {
      "midi": 70,
      "hit": false,
      "t": 175312.5,
      "d": 468.75,
      "v": 100
    },
    {
      "midi": 85,
      "hit": false,
      "t": 175546.875,
      "d": 234.375,
      "v": 100
    },
    {
      "midi": 84,
      "hit": false,
      "t": 175781.25,
      "d": 234.375,
      "v": 100
    },
    {
      "midi": 75,
      "hit": false,
      "t": 176015.625,
      "d": 234.375,
      "v": 100
    },
    {
      "midi": 74,
      "hit": false,
      "t": 176250,
      "d": 234.375,
      "v": 100
    },
    {
      "midi": 62,
      "hit": false,
      "t": 176484.375,
      "d": 234.375,
      "v": 100
    },
    {
      "midi": 83,
      "hit": false,
      "t": 176718.75,
      "d": 234.375,
      "v": 100
    },
    {
      "midi": 65,
      "hit": false,
      "t": 176718.75,
      "d": 234.375,
      "v": 100
    },
    {
      "midi": 66,
      "hit": false,
      "t": 176953.125,
      "d": 234.375,
      "v": 100
    },
    {
      "midi": 82,
      "hit": false,
      "t": 177187.5,
      "d": 234.375,
      "v": 100
    },
    {
      "midi": 74,
      "hit": false,
      "t": 177187.5,
      "d": 468.75,
      "v": 100
    },
    {
      "midi": 89,
      "hit": false,
      "t": 177656.25,
      "d": 234.375,
      "v": 100
    },
    {
      "midi": 62,
      "hit": false,
      "t": 178359.375,
      "d": 234.375,
      "v": 100
    },
    {
      "midi": 65,
      "hit": false,
      "t": 178593.75,
      "d": 234.375,
      "v": 100
    },
    {
      "midi": 66,
      "hit": false,
      "t": 178828.125,
      "d": 234.375,
      "v": 100
    },
    {
      "midi": 74,
      "hit": false,
      "t": 179062.5,
      "d": 468.75,
      "v": 100
    },
    {
      "midi": 73,
      "hit": false,
      "t": 180000,
      "d": 234.375,
      "v": 100
    },
    {
      "midi": 69,
      "hit": false,
      "t": 180000,
      "d": 234.375,
      "v": 100
    },
    {
      "midi": 73,
      "hit": false,
      "t": 180234.375,
      "d": 234.375,
      "v": 100
    },
    {
      "midi": 81,
      "hit": false,
      "t": 180468.75,
      "d": 234.375,
      "v": 100
    },
    {
      "midi": 72,
      "hit": false,
      "t": 180468.75,
      "d": 234.375,
      "v": 100
    },
    {
      "midi": 73,
      "hit": false,
      "t": 180703.125,
      "d": 234.375,
      "v": 100
    },
    {
      "midi": 80,
      "hit": false,
      "t": 180937.5,
      "d": 234.375,
      "v": 100
    },
    {
      "midi": 69,
      "hit": false,
      "t": 180937.5,
      "d": 234.375,
      "v": 100
    },
    {
      "midi": 73,
      "hit": false,
      "t": 181171.875,
      "d": 234.375,
      "v": 100
    },
    {
      "midi": 88,
      "hit": false,
      "t": 181406.25,
      "d": 234.375,
      "v": 100
    },
    {
      "midi": 72,
      "hit": false,
      "t": 181406.25,
      "d": 234.375,
      "v": 100
    },
    {
      "midi": 73,
      "hit": false,
      "t": 181640.625,
      "d": 234.375,
      "v": 100
    },
    {
      "midi": 69,
      "hit": false,
      "t": 181875,
      "d": 234.375,
      "v": 100
    },
    {
      "midi": 73,
      "hit": false,
      "t": 182109.375,
      "d": 234.375,
      "v": 100
    },
    {
      "midi": 72,
      "hit": false,
      "t": 182343.75,
      "d": 234.375,
      "v": 100
    },
    {
      "midi": 73,
      "hit": false,
      "t": 182578.125,
      "d": 234.375,
      "v": 100
    },
    {
      "midi": 69,
      "hit": false,
      "t": 182812.5,
      "d": 234.375,
      "v": 100
    },
    {
      "midi": 73,
      "hit": false,
      "t": 183046.875,
      "d": 234.375,
      "v": 100
    },
    {
      "midi": 72,
      "hit": false,
      "t": 183281.25,
      "d": 234.375,
      "v": 100
    },
    {
      "midi": 73,
      "hit": false,
      "t": 183515.625,
      "d": 234.375,
      "v": 100
    },
    {
      "midi": 72,
      "hit": false,
      "t": 183750,
      "d": 234.375,
      "v": 100
    },
    {
      "midi": 68,
      "hit": false,
      "t": 183750,
      "d": 234.375,
      "v": 100
    },
    {
      "midi": 71,
      "hit": false,
      "t": 183984.375,
      "d": 234.375,
      "v": 100
    },
    {
      "midi": 80,
      "hit": false,
      "t": 184218.75,
      "d": 234.375,
      "v": 100
    },
    {
      "midi": 72,
      "hit": false,
      "t": 184218.75,
      "d": 234.375,
      "v": 100
    },
    {
      "midi": 71,
      "hit": false,
      "t": 184453.125,
      "d": 234.375,
      "v": 100
    },
    {
      "midi": 79,
      "hit": false,
      "t": 184687.5,
      "d": 234.375,
      "v": 100
    },
    {
      "midi": 68,
      "hit": false,
      "t": 184687.5,
      "d": 234.375,
      "v": 100
    },
    {
      "midi": 71,
      "hit": false,
      "t": 184921.875,
      "d": 234.375,
      "v": 100
    },
    {
      "midi": 87,
      "hit": false,
      "t": 185156.25,
      "d": 234.375,
      "v": 100
    },
    {
      "midi": 72,
      "hit": false,
      "t": 185156.25,
      "d": 234.375,
      "v": 100
    },
    {
      "midi": 71,
      "hit": false,
      "t": 185390.625,
      "d": 234.375,
      "v": 100
    },
    {
      "midi": 68,
      "hit": false,
      "t": 185625,
      "d": 234.375,
      "v": 100
    },
    {
      "midi": 71,
      "hit": false,
      "t": 185859.375,
      "d": 234.375,
      "v": 100
    },
    {
      "midi": 72,
      "hit": false,
      "t": 186093.75,
      "d": 234.375,
      "v": 100
    },
    {
      "midi": 71,
      "hit": false,
      "t": 186328.125,
      "d": 234.375,
      "v": 100
    },
    {
      "midi": 68,
      "hit": false,
      "t": 186562.5,
      "d": 234.375,
      "v": 100
    },
    {
      "midi": 71,
      "hit": false,
      "t": 186796.875,
      "d": 234.375,
      "v": 100
    },
    {
      "midi": 72,
      "hit": false,
      "t": 187031.25,
      "d": 234.375,
      "v": 100
    },
    {
      "midi": 71,
      "hit": false,
      "t": 187265.625,
      "d": 234.375,
      "v": 100
    },
    {
      "midi": 71,
      "hit": false,
      "t": 187500,
      "d": 234.375,
      "v": 100
    },
    {
      "midi": 66,
      "hit": false,
      "t": 187500,
      "d": 234.375,
      "v": 100
    },
    {
      "midi": 62,
      "hit": false,
      "t": 187734.375,
      "d": 234.375,
      "v": 100
    },
    {
      "midi": 79,
      "hit": false,
      "t": 187968.75,
      "d": 234.375,
      "v": 100
    },
    {
      "midi": 66,
      "hit": false,
      "t": 187968.75,
      "d": 234.375,
      "v": 100
    },
    {
      "midi": 67,
      "hit": false,
      "t": 188203.125,
      "d": 234.375,
      "v": 100
    },
    {
      "midi": 78,
      "hit": false,
      "t": 188437.5,
      "d": 234.375,
      "v": 100
    },
    {
      "midi": 70,
      "hit": false,
      "t": 188437.5,
      "d": 234.375,
      "v": 100
    },
    {
      "midi": 71,
      "hit": false,
      "t": 188671.875,
      "d": 234.375,
      "v": 100
    },
    {
      "midi": 86,
      "hit": false,
      "t": 188906.25,
      "d": 234.375,
      "v": 100
    },
    {
      "midi": 70,
      "hit": false,
      "t": 188906.25,
      "d": 234.375,
      "v": 100
    },
    {
      "midi": 69,
      "hit": false,
      "t": 189140.625,
      "d": 234.375,
      "v": 100
    },
    {
      "midi": 66,
      "hit": false,
      "t": 189375,
      "d": 234.375,
      "v": 100
    },
    {
      "midi": 62,
      "hit": false,
      "t": 189609.375,
      "d": 234.375,
      "v": 100
    },
    {
      "midi": 66,
      "hit": false,
      "t": 189843.75,
      "d": 234.375,
      "v": 100
    },
    {
      "midi": 67,
      "hit": false,
      "t": 190078.125,
      "d": 234.375,
      "v": 100
    },
    {
      "midi": 70,
      "hit": false,
      "t": 190312.5,
      "d": 234.375,
      "v": 100
    },
    {
      "midi": 71,
      "hit": false,
      "t": 190546.875,
      "d": 234.375,
      "v": 100
    },
    {
      "midi": 70,
      "hit": false,
      "t": 190781.25,
      "d": 234.375,
      "v": 100
    },
    {
      "midi": 69,
      "hit": false,
      "t": 191015.625,
      "d": 234.375,
      "v": 100
    },
    {
      "midi": 72,
      "hit": false,
      "t": 191250,
      "d": 234.375,
      "v": 100
    },
    {
      "midi": 60,
      "hit": false,
      "t": 191250,
      "d": 234.375,
      "v": 100
    },
    {
      "midi": 63,
      "hit": false,
      "t": 191484.375,
      "d": 234.375,
      "v": 100
    },
    {
      "midi": 80,
      "hit": false,
      "t": 191718.75,
      "d": 234.375,
      "v": 100
    },
    {
      "midi": 67,
      "hit": false,
      "t": 191718.75,
      "d": 234.375,
      "v": 100
    },
    {
      "midi": 68,
      "hit": false,
      "t": 191953.125,
      "d": 234.375,
      "v": 100
    },
    {
      "midi": 79,
      "hit": false,
      "t": 192187.5,
      "d": 234.375,
      "v": 100
    },
    {
      "midi": 71,
      "hit": false,
      "t": 192187.5,
      "d": 234.375,
      "v": 100
    },
    {
      "midi": 72,
      "hit": false,
      "t": 192421.875,
      "d": 234.375,
      "v": 100
    },
    {
      "midi": 87,
      "hit": false,
      "t": 192656.25,
      "d": 234.375,
      "v": 100
    },
    {
      "midi": 71,
      "hit": false,
      "t": 192656.25,
      "d": 234.375,
      "v": 100
    },
    {
      "midi": 68,
      "hit": false,
      "t": 192890.625,
      "d": 234.375,
      "v": 100
    },
    {
      "midi": 60,
      "hit": false,
      "t": 193125,
      "d": 234.375,
      "v": 100
    },
    {
      "midi": 63,
      "hit": false,
      "t": 193359.375,
      "d": 234.375,
      "v": 100
    },
    {
      "midi": 67,
      "hit": false,
      "t": 193593.75,
      "d": 234.375,
      "v": 100
    },
    {
      "midi": 68,
      "hit": false,
      "t": 193828.125,
      "d": 234.375,
      "v": 100
    },
    {
      "midi": 71,
      "hit": false,
      "t": 194062.5,
      "d": 234.375,
      "v": 100
    },
    {
      "midi": 72,
      "hit": false,
      "t": 194296.875,
      "d": 234.375,
      "v": 100
    },
    {
      "midi": 71,
      "hit": false,
      "t": 194531.25,
      "d": 234.375,
      "v": 100
    },
    {
      "midi": 68,
      "hit": false,
      "t": 194765.625,
      "d": 234.375,
      "v": 100
    },
    {
      "midi": 59,
      "hit": false,
      "t": 195000,
      "d": 234.375,
      "v": 100
    },
    {
      "midi": 61,
      "hit": false,
      "t": 195234.375,
      "d": 234.375,
      "v": 100
    },
    {
      "midi": 62,
      "hit": false,
      "t": 195468.75,
      "d": 234.375,
      "v": 100
    },
    {
      "midi": 69,
      "hit": false,
      "t": 195703.125,
      "d": 234.375,
      "v": 100
    },
    {
      "midi": 71,
      "hit": false,
      "t": 195937.5,
      "d": 234.375,
      "v": 100
    },
    {
      "midi": 73,
      "hit": false,
      "t": 196171.875,
      "d": 234.375,
      "v": 100
    },
    {
      "midi": 74,
      "hit": false,
      "t": 196406.25,
      "d": 234.375,
      "v": 100
    },
    {
      "midi": 81,
      "hit": false,
      "t": 196640.625,
      "d": 234.375,
      "v": 100
    },
    {
      "midi": 83,
      "hit": false,
      "t": 196875,
      "d": 234.375,
      "v": 100
    },
    {
      "midi": 85,
      "hit": false,
      "t": 197109.375,
      "d": 234.375,
      "v": 100
    },
    {
      "midi": 86,
      "hit": false,
      "t": 197343.75,
      "d": 234.375,
      "v": 100
    },
    {
      "midi": 93,
      "hit": false,
      "t": 197578.125,
      "d": 234.375,
      "v": 100
    },
    {
      "midi": 59,
      "hit": false,
      "t": 198750,
      "d": 234.375,
      "v": 100
    },
    {
      "midi": 61,
      "hit": false,
      "t": 198984.375,
      "d": 234.375,
      "v": 100
    },
    {
      "midi": 62,
      "hit": false,
      "t": 199218.75,
      "d": 234.375,
      "v": 100
    },
    {
      "midi": 68,
      "hit": false,
      "t": 199453.125,
      "d": 234.375,
      "v": 100
    },
    {
      "midi": 71,
      "hit": false,
      "t": 199687.5,
      "d": 234.375,
      "v": 100
    },
    {
      "midi": 73,
      "hit": false,
      "t": 199921.875,
      "d": 234.375,
      "v": 100
    },
    {
      "midi": 74,
      "hit": false,
      "t": 200156.25,
      "d": 234.375,
      "v": 100
    },
    {
      "midi": 80,
      "hit": false,
      "t": 200390.625,
      "d": 234.375,
      "v": 100
    },
    {
      "midi": 83,
      "hit": false,
      "t": 200625,
      "d": 234.375,
      "v": 100
    },
    {
      "midi": 85,
      "hit": false,
      "t": 200859.375,
      "d": 234.375,
      "v": 100
    },
    {
      "midi": 86,
      "hit": false,
      "t": 201093.75,
      "d": 234.375,
      "v": 100
    },
    {
      "midi": 92,
      "hit": false,
      "t": 201328.125,
      "d": 234.375,
      "v": 100
    },
    {
      "midi": 61,
      "hit": false,
      "t": 202500,
      "d": 234.375,
      "v": 100
    },
    {
      "midi": 63,
      "hit": false,
      "t": 202734.375,
      "d": 234.375,
      "v": 100
    },
    {
      "midi": 64,
      "hit": false,
      "t": 202968.75,
      "d": 234.375,
      "v": 100
    },
    {
      "midi": 71,
      "hit": false,
      "t": 203203.125,
      "d": 234.375,
      "v": 100
    },
    {
      "midi": 73,
      "hit": false,
      "t": 203437.5,
      "d": 234.375,
      "v": 100
    },
    {
      "midi": 75,
      "hit": false,
      "t": 203671.875,
      "d": 234.375,
      "v": 100
    },
    {
      "midi": 76,
      "hit": false,
      "t": 203906.25,
      "d": 234.375,
      "v": 100
    },
    {
      "midi": 83,
      "hit": false,
      "t": 204140.625,
      "d": 234.375,
      "v": 100
    },
    {
      "midi": 85,
      "hit": false,
      "t": 204375,
      "d": 234.375,
      "v": 100
    },
    {
      "midi": 87,
      "hit": false,
      "t": 204609.375,
      "d": 234.375,
      "v": 100
    },
    {
      "midi": 88,
      "hit": false,
      "t": 204843.75,
      "d": 234.375,
      "v": 100
    },
    {
      "midi": 95,
      "hit": false,
      "t": 205078.125,
      "d": 234.375,
      "v": 100
    },
    {
      "midi": 61,
      "hit": false,
      "t": 206250,
      "d": 234.375,
      "v": 100
    },
    {
      "midi": 63,
      "hit": false,
      "t": 206484.375,
      "d": 234.375,
      "v": 100
    },
    {
      "midi": 64,
      "hit": false,
      "t": 206718.75,
      "d": 234.375,
      "v": 100
    },
    {
      "midi": 70,
      "hit": false,
      "t": 206953.125,
      "d": 234.375,
      "v": 100
    },
    {
      "midi": 73,
      "hit": false,
      "t": 207187.5,
      "d": 234.375,
      "v": 100
    },
    {
      "midi": 75,
      "hit": false,
      "t": 207421.875,
      "d": 234.375,
      "v": 100
    },
    {
      "midi": 76,
      "hit": false,
      "t": 207656.25,
      "d": 234.375,
      "v": 100
    },
    {
      "midi": 82,
      "hit": false,
      "t": 207890.625,
      "d": 234.375,
      "v": 100
    },
    {
      "midi": 85,
      "hit": false,
      "t": 208125,
      "d": 234.375,
      "v": 100
    },
    {
      "midi": 87,
      "hit": false,
      "t": 208359.375,
      "d": 234.375,
      "v": 100
    },
    {
      "midi": 88,
      "hit": false,
      "t": 208593.75,
      "d": 234.375,
      "v": 100
    },
    {
      "midi": 94,
      "hit": false,
      "t": 208828.125,
      "d": 234.375,
      "v": 100
    }
  ]
}