{
  "jsonPath": "Rock/Album Rock/The Rolling Stones/jumpin-jack-flash.json",
  "path": "Rock\\Album Rock\\The Rolling Stones\\Jumpin Jack Flash.mid",
  "name": "Jumpin Jack Flash",
  "difficulty": "Advanced",
  "bpm": 142.00208743068524,
  "notes": [
    {
      "midi": 81,
      "hit": false,
      "t": 39083.9325,
      "d": 338.9034687499952,
      "v": 117
    },
    {
      "midi": 90,
      "hit": false,
      "t": 39295.197,
      "d": 360.91018749999785,
      "v": 109
    },
    {
      "midi": 81,
      "hit": false,
      "t": 39506.4615,
      "d": 347.7061562499948,
      "v": 104
    },
    {
      "midi": 88,
      "hit": false,
      "t": 39717.725999999995,
      "d": 211.2644999999975,
      "v": 110
    },
    {
      "midi": 81,
      "hit": false,
      "t": 39928.99049999999,
      "d": 422.52900000000227,
      "v": 99
    },
    {
      "midi": 86,
      "hit": false,
      "t": 39928.99049999999,
      "d": 563.372000000003,
      "v": 112
    },
    {
      "midi": 81,
      "hit": false,
      "t": 40351.519499999995,
      "d": 211.2644999999975,
      "v": 103
    },
    {
      "midi": 76,
      "hit": false,
      "t": 40774.04849999999,
      "d": 343.30481249999866,
      "v": 120
    },
    {
      "midi": 85,
      "hit": false,
      "t": 40985.31299999999,
      "d": 374.11421875000815,
      "v": 116
    },
    {
      "midi": 76,
      "hit": false,
      "t": 41196.57749999999,
      "d": 299.291375000008,
      "v": 102
    },
    {
      "midi": 83,
      "hit": false,
      "t": 41407.842,
      "d": 211.26450000000477,
      "v": 106
    },
    {
      "midi": 76,
      "hit": false,
      "t": 41619.1065,
      "d": 374.1142187500009,
      "v": 95
    },
    {
      "midi": 81,
      "hit": false,
      "t": 41619.1065,
      "d": 633.7934999999998,
      "v": 110
    },
    {
      "midi": 76,
      "hit": false,
      "t": 42041.635500000004,
      "d": 338.9034687499952,
      "v": 104
    },
    {
      "midi": 76,
      "hit": false,
      "t": 42464.1645,
      "d": 220.0671874999971,
      "v": 106
    },
    {
      "midi": 86,
      "hit": false,
      "t": 42675.429,
      "d": 352.10749999999825,
      "v": 112
    },
    {
      "midi": 76,
      "hit": false,
      "t": 42886.693499999994,
      "d": 360.91018749999785,
      "v": 108
    },
    {
      "midi": 85,
      "hit": false,
      "t": 43097.95799999999,
      "d": 479.746468749996,
      "v": 116
    },
    {
      "midi": 76,
      "hit": false,
      "t": 43309.22249999999,
      "d": 321.29809374999604,
      "v": 94
    },
    {
      "midi": 83,
      "hit": false,
      "t": 43309.22249999999,
      "d": 845.0579999999973,
      "v": 112
    },
    {
      "midi": 78,
      "hit": false,
      "t": 43731.751499999984,
      "d": 391.71959375000006,
      "v": 106
    },
    {
      "midi": 78,
      "hit": false,
      "t": 44154.280499999986,
      "d": 334.50212499999907,
      "v": 116
    },
    {
      "midi": 86,
      "hit": false,
      "t": 44365.544999999984,
      "d": 382.91690625000774,
      "v": 115
    },
    {
      "midi": 78,
      "hit": false,
      "t": 44576.80949999999,
      "d": 290.4886875000084,
      "v": 105
    },
    {
      "midi": 85,
      "hit": false,
      "t": 44788.07399999999,
      "d": 479.74646875000326,
      "v": 109
    },
    {
      "midi": 78,
      "hit": false,
      "t": 44999.3385,
      "d": 330.10078124999563,
      "v": 99
    },
    {
      "midi": 83,
      "hit": false,
      "t": 44999.3385,
      "d": 845.0579999999973,
      "v": 106
    },
    {
      "midi": 78,
      "hit": false,
      "t": 45421.86749999999,
      "d": 413.7263125000027,
      "v": 99
    },
    {
      "midi": 81,
      "hit": false,
      "t": 45844.396499999995,
      "d": 303.69271874999686,
      "v": 115
    },
    {
      "midi": 90,
      "hit": false,
      "t": 46055.66099999999,
      "d": 409.32496874999924,
      "v": 122
    },
    {
      "midi": 81,
      "hit": false,
      "t": 46266.92549999999,
      "d": 303.69271875000413,
      "v": 91
    },
    {
      "midi": 88,
      "hit": false,
      "t": 46478.189999999995,
      "d": 211.2644999999975,
      "v": 115
    },
    {
      "midi": 81,
      "hit": false,
      "t": 46689.45449999999,
      "d": 356.5088437500017,
      "v": 89
    },
    {
      "midi": 86,
      "hit": false,
      "t": 46689.45449999999,
      "d": 501.7531875000059,
      "v": 115
    },
    {
      "midi": 81,
      "hit": false,
      "t": 47111.983499999995,
      "d": 453.3384062500045,
      "v": 85
    },
    {
      "midi": 76,
      "hit": false,
      "t": 47534.5125,
      "d": 352.10750000000553,
      "v": 117
    },
    {
      "midi": 85,
      "hit": false,
      "t": 47745.777,
      "d": 422.528999999995,
      "v": 97
    },
    {
      "midi": 76,
      "hit": false,
      "t": 47957.0415,
      "d": 343.30481249999866,
      "v": 108
    },
    {
      "midi": 83,
      "hit": false,
      "t": 48168.306,
      "d": 466.5424375000075,
      "v": 112
    },
    {
      "midi": 76,
      "hit": false,
      "t": 48379.5705,
      "d": 316.8967499999999,
      "v": 97
    },
    {
      "midi": 81,
      "hit": false,
      "t": 48379.5705,
      "d": 739.4257500000022,
      "v": 115
    },
    {
      "midi": 76,
      "hit": false,
      "t": 48802.099500000004,
      "d": 211.2644999999975,
      "v": 94
    },
    {
      "midi": 76,
      "hit": false,
      "t": 49013.364,
      "d": 140.84300000000076,
      "v": 112
    },
    {
      "midi": 76,
      "hit": false,
      "t": 49224.6285,
      "d": 369.71287499999744,
      "v": 106
    },
    {
      "midi": 86,
      "hit": false,
      "t": 49435.893,
      "d": 435.733031249998,
      "v": 112
    },
    {
      "midi": 76,
      "hit": false,
      "t": 49647.157499999994,
      "d": 325.6994374999995,
      "v": 95
    },
    {
      "midi": 85,
      "hit": false,
      "t": 49858.42199999999,
      "d": 409.3249687500065,
      "v": 113
    },
    {
      "midi": 83,
      "hit": false,
      "t": 50069.686499999996,
      "d": 255.27793750000274,
      "v": 117
    },
    {
      "midi": 76,
      "hit": false,
      "t": 50069.686499999996,
      "d": 404.9236250000031,
      "v": 89
    },
    {
      "midi": 71,
      "hit": false,
      "t": 50492.2155,
      "d": 1628.4971874999974,
      "v": 99
    },
    {
      "midi": 47,
      "hit": false,
      "t": 50703.479999999996,
      "d": 1417.2326874999999,
      "v": 115
    },
    {
      "midi": 83,
      "hit": false,
      "t": 50703.479999999996,
      "d": 1448.042093750002,
      "v": 92
    },
    {
      "midi": 78,
      "hit": false,
      "t": 50703.479999999996,
      "d": 1672.5106250000026,
      "v": 124
    },
    {
      "midi": 81,
      "hit": false,
      "t": 76266.48449999999,
      "d": 338.9034687500098,
      "v": 117
    },
    {
      "midi": 90,
      "hit": false,
      "t": 76477.749,
      "d": 360.9101875000051,
      "v": 109
    },
    {
      "midi": 81,
      "hit": false,
      "t": 76689.0135,
      "d": 347.7061562500021,
      "v": 104
    },
    {
      "midi": 88,
      "hit": false,
      "t": 76900.278,
      "d": 211.26449999999022,
      "v": 110
    },
    {
      "midi": 81,
      "hit": false,
      "t": 77111.5425,
      "d": 422.528999999995,
      "v": 99
    },
    {
      "midi": 86,
      "hit": false,
      "t": 77111.5425,
      "d": 563.3719999999885,
      "v": 112
    },
    {
      "midi": 81,
      "hit": false,
      "t": 77534.07149999999,
      "d": 211.26449999999022,
      "v": 103
    },
    {
      "midi": 76,
      "hit": false,
      "t": 77956.60049999999,
      "d": 343.30481250000594,
      "v": 120
    },
    {
      "midi": 85,
      "hit": false,
      "t": 78167.86499999999,
      "d": 374.11421875000815,
      "v": 116
    },
    {
      "midi": 76,
      "hit": false,
      "t": 78379.1295,
      "d": 299.2913750000007,
      "v": 102
    },
    {
      "midi": 83,
      "hit": false,
      "t": 78590.394,
      "d": 211.26449999999022,
      "v": 106
    },
    {
      "midi": 76,
      "hit": false,
      "t": 78801.65849999999,
      "d": 374.1142187499936,
      "v": 95
    },
    {
      "midi": 81,
      "hit": false,
      "t": 78801.65849999999,
      "d": 633.7934999999998,
      "v": 110
    },
    {
      "midi": 76,
      "hit": false,
      "t": 79224.18749999999,
      "d": 338.9034687500098,
      "v": 104
    },
    {
      "midi": 76,
      "hit": false,
      "t": 79646.7165,
      "d": 220.06718750001164,
      "v": 106
    },
    {
      "midi": 86,
      "hit": false,
      "t": 79857.981,
      "d": 352.10749999999825,
      "v": 112
    },
    {
      "midi": 76,
      "hit": false,
      "t": 80069.2455,
      "d": 360.91018749999057,
      "v": 108
    },
    {
      "midi": 85,
      "hit": false,
      "t": 80280.51,
      "d": 479.74646875000326,
      "v": 116
    },
    {
      "midi": 76,
      "hit": false,
      "t": 80491.7745,
      "d": 321.29809374999604,
      "v": 94
    },
    {
      "midi": 83,
      "hit": false,
      "t": 80491.7745,
      "d": 845.05799999999,
      "v": 112
    },
    {
      "midi": 78,
      "hit": false,
      "t": 80914.3035,
      "d": 391.7195937499928,
      "v": 106
    },
    {
      "midi": 78,
      "hit": false,
      "t": 81336.83249999999,
      "d": 334.50212499999907,
      "v": 116
    },
    {
      "midi": 86,
      "hit": false,
      "t": 81548.097,
      "d": 382.9169062499859,
      "v": 115
    },
    {
      "midi": 78,
      "hit": false,
      "t": 81759.36149999998,
      "d": 290.48868749999383,
      "v": 105
    },
    {
      "midi": 85,
      "hit": false,
      "t": 81970.62599999997,
      "d": 479.74646875000326,
      "v": 109
    },
    {
      "midi": 78,
      "hit": false,
      "t": 82181.89049999998,
      "d": 330.1007812500029,
      "v": 99
    },
    {
      "midi": 83,
      "hit": false,
      "t": 82181.89049999998,
      "d": 845.0580000000191,
      "v": 106
    },
    {
      "midi": 78,
      "hit": false,
      "t": 82604.41949999999,
      "d": 413.7263125000027,
      "v": 99
    },
    {
      "midi": 81,
      "hit": false,
      "t": 83026.9485,
      "d": 303.6927187500114,
      "v": 115
    },
    {
      "midi": 90,
      "hit": false,
      "t": 83238.213,
      "d": 409.3249687500065,
      "v": 122
    },
    {
      "midi": 81,
      "hit": false,
      "t": 83449.47750000001,
      "d": 303.6927187500114,
      "v": 91
    },
    {
      "midi": 88,
      "hit": false,
      "t": 83660.74200000001,
      "d": 211.26450000000477,
      "v": 115
    },
    {
      "midi": 81,
      "hit": false,
      "t": 83872.00650000002,
      "d": 356.5088437499944,
      "v": 89
    },
    {
      "midi": 86,
      "hit": false,
      "t": 83872.00650000002,
      "d": 501.7531874999986,
      "v": 115
    },
    {
      "midi": 81,
      "hit": false,
      "t": 84294.53550000001,
      "d": 453.33840625001176,
      "v": 85
    },
    {
      "midi": 76,
      "hit": false,
      "t": 84717.06450000002,
      "d": 352.10749999999825,
      "v": 117
    },
    {
      "midi": 85,
      "hit": false,
      "t": 84928.32900000003,
      "d": 422.528999999995,
      "v": 97
    },
    {
      "midi": 76,
      "hit": false,
      "t": 85139.59350000002,
      "d": 343.30481250000594,
      "v": 108
    },
    {
      "midi": 83,
      "hit": false,
      "t": 85350.85800000002,
      "d": 466.54243750000023,
      "v": 112
    },
    {
      "midi": 76,
      "hit": false,
      "t": 85562.12250000003,
      "d": 316.8967499999999,
      "v": 97
    },
    {
      "midi": 81,
      "hit": false,
      "t": 85562.12250000003,
      "d": 739.4257499999949,
      "v": 115
    },
    {
      "midi": 76,
      "hit": false,
      "t": 85984.65150000002,
      "d": 211.26450000000477,
      "v": 94
    },
    {
      "midi": 76,
      "hit": false,
      "t": 86195.91600000003,
      "d": 140.84299999999348,
      "v": 112
    },
    {
      "midi": 76,
      "hit": false,
      "t": 86407.18050000002,
      "d": 369.712875000012,
      "v": 106
    },
    {
      "midi": 86,
      "hit": false,
      "t": 86618.44500000002,
      "d": 435.7330312500126,
      "v": 112
    },
    {
      "midi": 76,
      "hit": false,
      "t": 86829.70950000003,
      "d": 325.69943750000675,
      "v": 95
    },
    {
      "midi": 85,
      "hit": false,
      "t": 87040.97400000003,
      "d": 409.3249687500065,
      "v": 113
    },
    {
      "midi": 83,
      "hit": false,
      "t": 87252.23850000004,
      "d": 255.27793749999546,
      "v": 117
    },
    {
      "midi": 76,
      "hit": false,
      "t": 87252.23850000004,
      "d": 404.9236249999958,
      "v": 89
    },
    {
      "midi": 71,
      "hit": false,
      "t": 87674.76750000003,
      "d": 1628.4971875000047,
      "v": 99
    },
    {
      "midi": 47,
      "hit": false,
      "t": 87886.03200000004,
      "d": 1417.2326874999999,
      "v": 115
    },
    {
      "midi": 83,
      "hit": false,
      "t": 87886.03200000004,
      "d": 1448.042093750002,
      "v": 92
    },
    {
      "midi": 78,
      "hit": false,
      "t": 87886.03200000004,
      "d": 1672.5106249999953,
      "v": 124
    },
    {
      "midi": 81,
      "hit": false,
      "t": 145561.24050000004,
      "d": 338.9034687499807,
      "v": 117
    },
    {
      "midi": 90,
      "hit": false,
      "t": 145772.50500000003,
      "d": 360.910187499976,
      "v": 109
    },
    {
      "midi": 81,
      "hit": false,
      "t": 145983.76950000002,
      "d": 347.7061562500021,
      "v": 104
    },
    {
      "midi": 88,
      "hit": false,
      "t": 146195.034,
      "d": 211.26450000001932,
      "v": 110
    },
    {
      "midi": 81,
      "hit": false,
      "t": 146406.29850000003,
      "d": 422.52900000000955,
      "v": 99
    },
    {
      "midi": 86,
      "hit": false,
      "t": 146406.29850000003,
      "d": 563.372000000003,
      "v": 112
    },
    {
      "midi": 81,
      "hit": false,
      "t": 146828.82750000004,
      "d": 211.26449999999022,
      "v": 103
    },
    {
      "midi": 76,
      "hit": false,
      "t": 147251.35650000002,
      "d": 343.3048124999914,
      "v": 120
    },
    {
      "midi": 85,
      "hit": false,
      "t": 147462.621,
      "d": 374.11421874997905,
      "v": 116
    },
    {
      "midi": 76,
      "hit": false,
      "t": 147673.8855,
      "d": 299.2913750000007,
      "v": 102
    },
    {
      "midi": 83,
      "hit": false,
      "t": 147885.15,
      "d": 211.26450000001932,
      "v": 106
    },
    {
      "midi": 76,
      "hit": false,
      "t": 148096.4145,
      "d": 374.11421875000815,
      "v": 95
    },
    {
      "midi": 81,
      "hit": false,
      "t": 148096.4145,
      "d": 633.7934999999998,
      "v": 110
    },
    {
      "midi": 76,
      "hit": false,
      "t": 148518.94350000002,
      "d": 338.9034687499807,
      "v": 104
    },
    {
      "midi": 76,
      "hit": false,
      "t": 148941.4725,
      "d": 220.06718749998254,
      "v": 106
    },
    {
      "midi": 86,
      "hit": false,
      "t": 149152.737,
      "d": 352.1074999999837,
      "v": 112
    },
    {
      "midi": 76,
      "hit": false,
      "t": 149364.00149999998,
      "d": 360.910187499976,
      "v": 108
    },
    {
      "midi": 85,
      "hit": false,
      "t": 149575.26599999997,
      "d": 479.74646875000326,
      "v": 116
    },
    {
      "midi": 76,
      "hit": false,
      "t": 149786.53049999996,
      "d": 321.29809375002515,
      "v": 94
    },
    {
      "midi": 83,
      "hit": false,
      "t": 149786.53049999996,
      "d": 845.0580000000191,
      "v": 112
    },
    {
      "midi": 78,
      "hit": false,
      "t": 150209.0595,
      "d": 391.7195937499928,
      "v": 106
    },
    {
      "midi": 78,
      "hit": false,
      "t": 150631.58849999998,
      "d": 334.50212499999907,
      "v": 116
    },
    {
      "midi": 86,
      "hit": false,
      "t": 150842.85299999997,
      "d": 382.91690625002957,
      "v": 115
    },
    {
      "midi": 78,
      "hit": false,
      "t": 151054.1175,
      "d": 290.4886875000084,
      "v": 105
    },
    {
      "midi": 85,
      "hit": false,
      "t": 151265.382,
      "d": 479.74646875000326,
      "v": 109
    },
    {
      "midi": 78,
      "hit": false,
      "t": 151476.6465,
      "d": 330.10078125001746,
      "v": 99
    },
    {
      "midi": 83,
      "hit": false,
      "t": 151476.6465,
      "d": 845.05799999999,
      "v": 106
    },
    {
      "midi": 78,
      "hit": false,
      "t": 151899.1755,
      "d": 413.7263124999881,
      "v": 99
    },
    {
      "midi": 81,
      "hit": false,
      "t": 152321.7045,
      "d": 303.6927187499823,
      "v": 115
    },
    {
      "midi": 90,
      "hit": false,
      "t": 152532.96899999998,
      "d": 409.3249687499774,
      "v": 122
    },
    {
      "midi": 81,
      "hit": false,
      "t": 152744.23349999997,
      "d": 303.6927187499823,
      "v": 91
    },
    {
      "midi": 88,
      "hit": false,
      "t": 152955.49799999996,
      "d": 211.26449999999022,
      "v": 115
    },
    {
      "midi": 81,
      "hit": false,
      "t": 153166.76249999995,
      "d": 356.5088437499944,
      "v": 89
    },
    {
      "midi": 86,
      "hit": false,
      "t": 153166.76249999995,
      "d": 501.7531874999695,
      "v": 115
    },
    {
      "midi": 81,
      "hit": false,
      "t": 153589.29149999993,
      "d": 453.3384062499681,
      "v": 85
    },
    {
      "midi": 76,
      "hit": false,
      "t": 154011.8204999999,
      "d": 352.1074999999837,
      "v": 117
    },
    {
      "midi": 85,
      "hit": false,
      "t": 154223.0849999999,
      "d": 422.52899999998044,
      "v": 97
    },
    {
      "midi": 76,
      "hit": false,
      "t": 154434.3494999999,
      "d": 343.3048124999914,
      "v": 108
    },
    {
      "midi": 83,
      "hit": false,
      "t": 154645.61399999988,
      "d": 466.54243750000023,
      "v": 112
    },
    {
      "midi": 76,
      "hit": false,
      "t": 154856.87849999988,
      "d": 316.89675000001444,
      "v": 97
    },
    {
      "midi": 81,
      "hit": false,
      "t": 154856.87849999988,
      "d": 739.4257499999949,
      "v": 115
    },
    {
      "midi": 76,
      "hit": false,
      "t": 155279.40749999988,
      "d": 211.26449999999022,
      "v": 94
    },
    {
      "midi": 76,
      "hit": false,
      "t": 155490.67199999987,
      "d": 140.84299999999348,
      "v": 112
    },
    {
      "midi": 76,
      "hit": false,
      "t": 155701.93649999987,
      "d": 369.71287499999744,
      "v": 106
    },
    {
      "midi": 86,
      "hit": false,
      "t": 155913.20099999986,
      "d": 435.7330312500126,
      "v": 112
    },
    {
      "midi": 76,
      "hit": false,
      "t": 156124.46549999987,
      "d": 325.69943750000675,
      "v": 95
    },
    {
      "midi": 85,
      "hit": false,
      "t": 156335.72999999986,
      "d": 409.3249687500065,
      "v": 113
    },
    {
      "midi": 83,
      "hit": false,
      "t": 156546.99449999988,
      "d": 255.2779374999809,
      "v": 117
    },
    {
      "midi": 76,
      "hit": false,
      "t": 156546.99449999988,
      "d": 404.9236249999667,
      "v": 89
    },
    {
      "midi": 71,
      "hit": false,
      "t": 156969.52349999986,
      "d": 1628.4971875000047,
      "v": 99
    },
    {
      "midi": 47,
      "hit": false,
      "t": 157180.78799999985,
      "d": 1417.2326875000144,
      "v": 115
    },
    {
      "midi": 83,
      "hit": false,
      "t": 157180.78799999985,
      "d": 1448.042093750002,
      "v": 92
    },
    {
      "midi": 78,
      "hit": false,
      "t": 157180.78799999985,
      "d": 1672.5106249999953,
      "v": 124
    }
  ]
}