{
  "jsonPath": "Rock/Finnish Metal/Nightwish/amaranth.json",
  "path": "Rock\\Finnish Metal\\Nightwish\\Amaranth.mid",
  "name": "Amaranth",
  "difficulty": "Advanced",
  "bpm": 128,
  "notes": [
    {
      "midi": 69,
      "hit": false,
      "t": 0,
      "d": 234.375,
      "v": 95
    },
    {
      "midi": 50,
      "hit": false,
      "t": 0,
      "d": 1875,
      "v": 95
    },
    {
      "midi": 72,
      "hit": false,
      "t": 234.375,
      "d": 234.375,
      "v": 95
    },
    {
      "midi": 74,
      "hit": false,
      "t": 468.75,
      "d": 234.375,
      "v": 95
    },
    {
      "midi": 81,
      "hit": false,
      "t": 1875,
      "d": 234.375,
      "v": 95
    },
    {
      "midi": 53,
      "hit": false,
      "t": 1875,
      "d": 937.5,
      "v": 95
    },
    {
      "midi": 72,
      "hit": false,
      "t": 2109.375,
      "d": 234.375,
      "v": 95
    },
    {
      "midi": 79,
      "hit": false,
      "t": 2343.75,
      "d": 234.375,
      "v": 95
    },
    {
      "midi": 77,
      "hit": false,
      "t": 2578.125,
      "d": 234.375,
      "v": 95
    },
    {
      "midi": 76,
      "hit": false,
      "t": 2812.5,
      "d": 234.375,
      "v": 95
    },
    {
      "midi": 48,
      "hit": false,
      "t": 2812.5,
      "d": 937.5,
      "v": 95
    },
    {
      "midi": 69,
      "hit": false,
      "t": 3046.875,
      "d": 234.375,
      "v": 95
    },
    {
      "midi": 74,
      "hit": false,
      "t": 3281.25,
      "d": 234.375,
      "v": 95
    },
    {
      "midi": 72,
      "hit": false,
      "t": 3515.625,
      "d": 234.375,
      "v": 95
    },
    {
      "midi": 69,
      "hit": false,
      "t": 3750,
      "d": 234.375,
      "v": 95
    },
    {
      "midi": 50,
      "hit": false,
      "t": 3750,
      "d": 1875,
      "v": 95
    },
    {
      "midi": 72,
      "hit": false,
      "t": 3984.375,
      "d": 234.375,
      "v": 95
    },
    {
      "midi": 74,
      "hit": false,
      "t": 4218.75,
      "d": 234.375,
      "v": 95
    },
    {
      "midi": 81,
      "hit": false,
      "t": 5625,
      "d": 234.375,
      "v": 95
    },
    {
      "midi": 46,
      "hit": false,
      "t": 5625,
      "d": 937.5,
      "v": 95
    },
    {
      "midi": 72,
      "hit": false,
      "t": 5859.375,
      "d": 234.375,
      "v": 95
    },
    {
      "midi": 79,
      "hit": false,
      "t": 6093.75,
      "d": 234.375,
      "v": 95
    },
    {
      "midi": 77,
      "hit": false,
      "t": 6328.125,
      "d": 234.375,
      "v": 95
    },
    {
      "midi": 76,
      "hit": false,
      "t": 6562.5,
      "d": 234.375,
      "v": 95
    },
    {
      "midi": 45,
      "hit": false,
      "t": 6562.5,
      "d": 937.5,
      "v": 95
    },
    {
      "midi": 69,
      "hit": false,
      "t": 6796.875,
      "d": 234.375,
      "v": 95
    },
    {
      "midi": 74,
      "hit": false,
      "t": 7031.25,
      "d": 234.375,
      "v": 95
    },
    {
      "midi": 72,
      "hit": false,
      "t": 7265.625,
      "d": 234.375,
      "v": 95
    },
    {
      "midi": 69,
      "hit": false,
      "t": 7500,
      "d": 234.375,
      "v": 95
    },
    {
      "midi": 72,
      "hit": false,
      "t": 7734.375,
      "d": 234.375,
      "v": 95
    },
    {
      "midi": 74,
      "hit": false,
      "t": 7968.75,
      "d": 234.375,
      "v": 95
    },
    {
      "midi": 69,
      "hit": false,
      "t": 8203.125,
      "d": 234.375,
      "v": 95
    },
    {
      "midi": 72,
      "hit": false,
      "t": 8437.5,
      "d": 234.375,
      "v": 95
    },
    {
      "midi": 74,
      "hit": false,
      "t": 8671.875,
      "d": 234.375,
      "v": 95
    },
    {
      "midi": 72,
      "hit": false,
      "t": 8906.25,
      "d": 234.375,
      "v": 95
    },
    {
      "midi": 69,
      "hit": false,
      "t": 9140.625,
      "d": 234.375,
      "v": 95
    },
    {
      "midi": 81,
      "hit": false,
      "t": 9375,
      "d": 234.375,
      "v": 95
    },
    {
      "midi": 72,
      "hit": false,
      "t": 9609.375,
      "d": 234.375,
      "v": 95
    },
    {
      "midi": 79,
      "hit": false,
      "t": 9843.75,
      "d": 234.375,
      "v": 95
    },
    {
      "midi": 77,
      "hit": false,
      "t": 10078.125,
      "d": 234.375,
      "v": 95
    },
    {
      "midi": 76,
      "hit": false,
      "t": 10312.5,
      "d": 234.375,
      "v": 95
    },
    {
      "midi": 69,
      "hit": false,
      "t": 10546.875,
      "d": 234.375,
      "v": 95
    },
    {
      "midi": 74,
      "hit": false,
      "t": 10781.25,
      "d": 234.375,
      "v": 95
    },
    {
      "midi": 72,
      "hit": false,
      "t": 11015.625,
      "d": 234.375,
      "v": 95
    },
    {
      "midi": 62,
      "hit": false,
      "t": 11250,
      "d": 234.375,
      "v": 95
    },
    {
      "midi": 65,
      "hit": false,
      "t": 11484.375,
      "d": 234.375,
      "v": 95
    },
    {
      "midi": 69,
      "hit": false,
      "t": 11718.75,
      "d": 234.375,
      "v": 95
    },
    {
      "midi": 65,
      "hit": false,
      "t": 11953.125,
      "d": 234.375,
      "v": 95
    },
    {
      "midi": 69,
      "hit": false,
      "t": 12187.5,
      "d": 234.375,
      "v": 95
    },
    {
      "midi": 74,
      "hit": false,
      "t": 12421.875,
      "d": 234.375,
      "v": 95
    },
    {
      "midi": 69,
      "hit": false,
      "t": 12656.25,
      "d": 234.375,
      "v": 95
    },
    {
      "midi": 74,
      "hit": false,
      "t": 12890.625,
      "d": 234.375,
      "v": 95
    },
    {
      "midi": 77,
      "hit": false,
      "t": 13125,
      "d": 234.375,
      "v": 95
    },
    {
      "midi": 74,
      "hit": false,
      "t": 13359.375,
      "d": 234.375,
      "v": 95
    },
    {
      "midi": 77,
      "hit": false,
      "t": 13593.75,
      "d": 234.375,
      "v": 95
    },
    {
      "midi": 86,
      "hit": false,
      "t": 13828.125,
      "d": 234.375,
      "v": 95
    },
    {
      "midi": 65,
      "hit": false,
      "t": 33750,
      "d": 937.5,
      "v": 111
    },
    {
      "midi": 62,
      "hit": false,
      "t": 34687.5,
      "d": 937.5,
      "v": 111
    },
    {
      "midi": 62,
      "hit": false,
      "t": 35625,
      "d": 468.75,
      "v": 111
    },
    {
      "midi": 65,
      "hit": false,
      "t": 36093.75,
      "d": 468.75,
      "v": 111
    },
    {
      "midi": 72,
      "hit": false,
      "t": 36562.5,
      "d": 468.75,
      "v": 111
    },
    {
      "midi": 67,
      "hit": false,
      "t": 37031.25,
      "d": 468.75,
      "v": 111
    },
    {
      "midi": 69,
      "hit": false,
      "t": 37500,
      "d": 1406.25,
      "v": 111
    },
    {
      "midi": 62,
      "hit": false,
      "t": 39140.625,
      "d": 234.375,
      "v": 111
    },
    {
      "midi": 64,
      "hit": false,
      "t": 39375,
      "d": 468.75,
      "v": 111
    },
    {
      "midi": 65,
      "hit": false,
      "t": 39843.75,
      "d": 468.75,
      "v": 111
    },
    {
      "midi": 72,
      "hit": false,
      "t": 40312.5,
      "d": 468.75,
      "v": 111
    },
    {
      "midi": 67,
      "hit": false,
      "t": 40781.25,
      "d": 468.75,
      "v": 111
    },
    {
      "midi": 67,
      "hit": false,
      "t": 41250,
      "d": 1406.25,
      "v": 111
    },
    {
      "midi": 62,
      "hit": false,
      "t": 42890.625,
      "d": 234.375,
      "v": 111
    },
    {
      "midi": 64,
      "hit": false,
      "t": 43125,
      "d": 468.75,
      "v": 111
    },
    {
      "midi": 65,
      "hit": false,
      "t": 43593.75,
      "d": 468.75,
      "v": 111
    },
    {
      "midi": 64,
      "hit": false,
      "t": 44062.5,
      "d": 468.75,
      "v": 111
    },
    {
      "midi": 60,
      "hit": false,
      "t": 44531.25,
      "d": 703.125,
      "v": 111
    },
    {
      "midi": 62,
      "hit": false,
      "t": 45234.375,
      "d": 1406.25,
      "v": 111
    },
    {
      "midi": 65,
      "hit": false,
      "t": 48750,
      "d": 937.5,
      "v": 111
    },
    {
      "midi": 69,
      "hit": false,
      "t": 48750,
      "d": 937.5,
      "v": 111
    },
    {
      "midi": 62,
      "hit": false,
      "t": 49687.5,
      "d": 937.5,
      "v": 111
    },
    {
      "midi": 65,
      "hit": false,
      "t": 49687.5,
      "d": 937.5,
      "v": 111
    },
    {
      "midi": 62,
      "hit": false,
      "t": 50625,
      "d": 468.75,
      "v": 111
    },
    {
      "midi": 65,
      "hit": false,
      "t": 51093.75,
      "d": 468.75,
      "v": 111
    },
    {
      "midi": 72,
      "hit": false,
      "t": 51562.5,
      "d": 468.75,
      "v": 111
    },
    {
      "midi": 67,
      "hit": false,
      "t": 52031.25,
      "d": 468.75,
      "v": 111
    },
    {
      "midi": 69,
      "hit": false,
      "t": 52500,
      "d": 1406.25,
      "v": 111
    },
    {
      "midi": 62,
      "hit": false,
      "t": 54140.625,
      "d": 234.375,
      "v": 111
    },
    {
      "midi": 64,
      "hit": false,
      "t": 54375,
      "d": 468.75,
      "v": 111
    },
    {
      "midi": 65,
      "hit": false,
      "t": 54843.75,
      "d": 468.75,
      "v": 111
    },
    {
      "midi": 72,
      "hit": false,
      "t": 55312.5,
      "d": 468.75,
      "v": 111
    },
    {
      "midi": 67,
      "hit": false,
      "t": 55781.25,
      "d": 468.75,
      "v": 111
    },
    {
      "midi": 67,
      "hit": false,
      "t": 56250,
      "d": 1406.25,
      "v": 111
    },
    {
      "midi": 62,
      "hit": false,
      "t": 57890.625,
      "d": 234.375,
      "v": 111
    },
    {
      "midi": 64,
      "hit": false,
      "t": 58125,
      "d": 468.75,
      "v": 111
    },
    {
      "midi": 65,
      "hit": false,
      "t": 58593.75,
      "d": 468.75,
      "v": 111
    },
    {
      "midi": 64,
      "hit": false,
      "t": 59062.5,
      "d": 468.75,
      "v": 111
    },
    {
      "midi": 60,
      "hit": false,
      "t": 59531.25,
      "d": 468.75,
      "v": 111
    },
    {
      "midi": 65,
      "hit": false,
      "t": 60000,
      "d": 234.375,
      "v": 111
    },
    {
      "midi": 64,
      "hit": false,
      "t": 60234.375,
      "d": 234.375,
      "v": 111
    },
    {
      "midi": 62,
      "hit": false,
      "t": 60468.75,
      "d": 1406.25,
      "v": 111
    },
    {
      "midi": 67,
      "hit": false,
      "t": 63750,
      "d": 703.125,
      "v": 111
    },
    {
      "midi": 65,
      "hit": false,
      "t": 64453.125,
      "d": 234.375,
      "v": 111
    },
    {
      "midi": 67,
      "hit": false,
      "t": 64687.5,
      "d": 703.125,
      "v": 111
    },
    {
      "midi": 69,
      "hit": false,
      "t": 65390.625,
      "d": 234.375,
      "v": 111
    },
    {
      "midi": 65,
      "hit": false,
      "t": 65625,
      "d": 234.375,
      "v": 111
    },
    {
      "midi": 64,
      "hit": false,
      "t": 65859.375,
      "d": 234.375,
      "v": 111
    },
    {
      "midi": 62,
      "hit": false,
      "t": 66093.75,
      "d": 937.5,
      "v": 111
    },
    {
      "midi": 67,
      "hit": false,
      "t": 67500,
      "d": 703.125,
      "v": 111
    },
    {
      "midi": 65,
      "hit": false,
      "t": 68203.125,
      "d": 234.375,
      "v": 111
    },
    {
      "midi": 67,
      "hit": false,
      "t": 68437.5,
      "d": 703.125,
      "v": 111
    },
    {
      "midi": 65,
      "hit": false,
      "t": 69140.625,
      "d": 234.375,
      "v": 111
    },
    {
      "midi": 63,
      "hit": false,
      "t": 69375,
      "d": 234.375,
      "v": 111
    },
    {
      "midi": 62,
      "hit": false,
      "t": 69609.375,
      "d": 234.375,
      "v": 111
    },
    {
      "midi": 63,
      "hit": false,
      "t": 69843.75,
      "d": 937.5,
      "v": 111
    },
    {
      "midi": 65,
      "hit": false,
      "t": 71250,
      "d": 234.375,
      "v": 111
    },
    {
      "midi": 64,
      "hit": false,
      "t": 71484.375,
      "d": 234.375,
      "v": 111
    },
    {
      "midi": 62,
      "hit": false,
      "t": 71718.75,
      "d": 234.375,
      "v": 111
    },
    {
      "midi": 72,
      "hit": false,
      "t": 71953.125,
      "d": 468.75,
      "v": 111
    },
    {
      "midi": 72,
      "hit": false,
      "t": 72421.875,
      "d": 234.375,
      "v": 111
    },
    {
      "midi": 67,
      "hit": false,
      "t": 72656.25,
      "d": 234.375,
      "v": 111
    },
    {
      "midi": 65,
      "hit": false,
      "t": 72890.625,
      "d": 234.375,
      "v": 111
    },
    {
      "midi": 69,
      "hit": false,
      "t": 73125,
      "d": 468.75,
      "v": 111
    },
    {
      "midi": 65,
      "hit": false,
      "t": 73593.75,
      "d": 468.75,
      "v": 111
    },
    {
      "midi": 67,
      "hit": false,
      "t": 74062.5,
      "d": 468.75,
      "v": 111
    },
    {
      "midi": 64,
      "hit": false,
      "t": 74531.25,
      "d": 468.75,
      "v": 111
    },
    {
      "midi": 65,
      "hit": false,
      "t": 75000,
      "d": 703.125,
      "v": 111
    },
    {
      "midi": 62,
      "hit": false,
      "t": 75703.125,
      "d": 703.125,
      "v": 111
    },
    {
      "midi": 65,
      "hit": false,
      "t": 76406.25,
      "d": 234.375,
      "v": 111
    },
    {
      "midi": 67,
      "hit": false,
      "t": 76640.625,
      "d": 234.375,
      "v": 111
    },
    {
      "midi": 69,
      "hit": false,
      "t": 76875,
      "d": 468.75,
      "v": 111
    },
    {
      "midi": 70,
      "hit": false,
      "t": 77343.75,
      "d": 468.75,
      "v": 111
    },
    {
      "midi": 69,
      "hit": false,
      "t": 77812.5,
      "d": 468.75,
      "v": 111
    },
    {
      "midi": 67,
      "hit": false,
      "t": 78281.25,
      "d": 468.75,
      "v": 111
    },
    {
      "midi": 65,
      "hit": false,
      "t": 78750,
      "d": 234.375,
      "v": 111
    },
    {
      "midi": 64,
      "hit": false,
      "t": 78984.375,
      "d": 234.375,
      "v": 111
    },
    {
      "midi": 62,
      "hit": false,
      "t": 79218.75,
      "d": 234.375,
      "v": 111
    },
    {
      "midi": 72,
      "hit": false,
      "t": 79453.125,
      "d": 468.75,
      "v": 111
    },
    {
      "midi": 69,
      "hit": false,
      "t": 79921.875,
      "d": 234.375,
      "v": 111
    },
    {
      "midi": 72,
      "hit": false,
      "t": 79921.875,
      "d": 234.375,
      "v": 111
    },
    {
      "midi": 67,
      "hit": false,
      "t": 80156.25,
      "d": 234.375,
      "v": 111
    },
    {
      "midi": 65,
      "hit": false,
      "t": 80390.625,
      "d": 234.375,
      "v": 111
    },
    {
      "midi": 69,
      "hit": false,
      "t": 80625,
      "d": 468.75,
      "v": 111
    },
    {
      "midi": 65,
      "hit": false,
      "t": 81093.75,
      "d": 468.75,
      "v": 111
    },
    {
      "midi": 67,
      "hit": false,
      "t": 81562.5,
      "d": 468.75,
      "v": 111
    },
    {
      "midi": 64,
      "hit": false,
      "t": 82031.25,
      "d": 468.75,
      "v": 111
    },
    {
      "midi": 62,
      "hit": false,
      "t": 82500,
      "d": 703.125,
      "v": 111
    },
    {
      "midi": 64,
      "hit": false,
      "t": 83203.125,
      "d": 703.125,
      "v": 111
    },
    {
      "midi": 65,
      "hit": false,
      "t": 83906.25,
      "d": 468.75,
      "v": 111
    },
    {
      "midi": 67,
      "hit": false,
      "t": 84375,
      "d": 1406.25,
      "v": 111
    },
    {
      "midi": 65,
      "hit": false,
      "t": 93750,
      "d": 937.5,
      "v": 111
    },
    {
      "midi": 69,
      "hit": false,
      "t": 93750,
      "d": 937.5,
      "v": 111
    },
    {
      "midi": 62,
      "hit": false,
      "t": 94687.5,
      "d": 937.5,
      "v": 111
    },
    {
      "midi": 65,
      "hit": false,
      "t": 94687.5,
      "d": 937.5,
      "v": 111
    },
    {
      "midi": 62,
      "hit": false,
      "t": 95625,
      "d": 468.75,
      "v": 111
    },
    {
      "midi": 65,
      "hit": false,
      "t": 96093.75,
      "d": 468.75,
      "v": 111
    },
    {
      "midi": 72,
      "hit": false,
      "t": 96562.5,
      "d": 468.75,
      "v": 111
    },
    {
      "midi": 67,
      "hit": false,
      "t": 97031.25,
      "d": 468.75,
      "v": 111
    },
    {
      "midi": 69,
      "hit": false,
      "t": 97500,
      "d": 1406.25,
      "v": 111
    },
    {
      "midi": 62,
      "hit": false,
      "t": 99140.625,
      "d": 234.375,
      "v": 111
    },
    {
      "midi": 64,
      "hit": false,
      "t": 99375,
      "d": 468.75,
      "v": 111
    },
    {
      "midi": 65,
      "hit": false,
      "t": 99843.75,
      "d": 468.75,
      "v": 111
    },
    {
      "midi": 72,
      "hit": false,
      "t": 100312.5,
      "d": 468.75,
      "v": 111
    },
    {
      "midi": 67,
      "hit": false,
      "t": 100781.25,
      "d": 468.75,
      "v": 111
    },
    {
      "midi": 67,
      "hit": false,
      "t": 101250,
      "d": 1406.25,
      "v": 111
    },
    {
      "midi": 62,
      "hit": false,
      "t": 102890.625,
      "d": 234.375,
      "v": 111
    },
    {
      "midi": 64,
      "hit": false,
      "t": 103125,
      "d": 468.75,
      "v": 111
    },
    {
      "midi": 65,
      "hit": false,
      "t": 103593.75,
      "d": 468.75,
      "v": 111
    },
    {
      "midi": 64,
      "hit": false,
      "t": 104062.5,
      "d": 468.75,
      "v": 111
    },
    {
      "midi": 60,
      "hit": false,
      "t": 104531.25,
      "d": 468.75,
      "v": 111
    },
    {
      "midi": 65,
      "hit": false,
      "t": 105000,
      "d": 234.375,
      "v": 111
    },
    {
      "midi": 64,
      "hit": false,
      "t": 105234.375,
      "d": 234.375,
      "v": 111
    },
    {
      "midi": 62,
      "hit": false,
      "t": 105468.75,
      "d": 1406.25,
      "v": 111
    },
    {
      "midi": 67,
      "hit": false,
      "t": 108750,
      "d": 703.125,
      "v": 111
    },
    {
      "midi": 65,
      "hit": false,
      "t": 109453.125,
      "d": 234.375,
      "v": 111
    },
    {
      "midi": 67,
      "hit": false,
      "t": 109687.5,
      "d": 703.125,
      "v": 111
    },
    {
      "midi": 69,
      "hit": false,
      "t": 110390.625,
      "d": 234.375,
      "v": 111
    },
    {
      "midi": 65,
      "hit": false,
      "t": 110625,
      "d": 234.375,
      "v": 111
    },
    {
      "midi": 64,
      "hit": false,
      "t": 110859.375,
      "d": 234.375,
      "v": 111
    },
    {
      "midi": 62,
      "hit": false,
      "t": 111093.75,
      "d": 937.5,
      "v": 111
    },
    {
      "midi": 67,
      "hit": false,
      "t": 112500,
      "d": 703.125,
      "v": 111
    },
    {
      "midi": 65,
      "hit": false,
      "t": 113203.125,
      "d": 234.375,
      "v": 111
    },
    {
      "midi": 67,
      "hit": false,
      "t": 113437.5,
      "d": 703.125,
      "v": 111
    },
    {
      "midi": 65,
      "hit": false,
      "t": 114140.625,
      "d": 234.375,
      "v": 111
    },
    {
      "midi": 63,
      "hit": false,
      "t": 114375,
      "d": 234.375,
      "v": 111
    },
    {
      "midi": 62,
      "hit": false,
      "t": 114609.375,
      "d": 234.375,
      "v": 111
    },
    {
      "midi": 63,
      "hit": false,
      "t": 114843.75,
      "d": 937.5,
      "v": 111
    },
    {
      "midi": 65,
      "hit": false,
      "t": 116250,
      "d": 234.375,
      "v": 111
    },
    {
      "midi": 77,
      "hit": false,
      "t": 116250,
      "d": 234.375,
      "v": 111
    },
    {
      "midi": 64,
      "hit": false,
      "t": 116484.375,
      "d": 234.375,
      "v": 111
    },
    {
      "midi": 76,
      "hit": false,
      "t": 116484.375,
      "d": 234.375,
      "v": 111
    },
    {
      "midi": 62,
      "hit": false,
      "t": 116718.75,
      "d": 234.375,
      "v": 111
    },
    {
      "midi": 74,
      "hit": false,
      "t": 116718.75,
      "d": 234.375,
      "v": 111
    },
    {
      "midi": 72,
      "hit": false,
      "t": 116953.125,
      "d": 468.75,
      "v": 111
    },
    {
      "midi": 69,
      "hit": false,
      "t": 117421.875,
      "d": 234.375,
      "v": 111
    },
    {
      "midi": 72,
      "hit": false,
      "t": 117421.875,
      "d": 234.375,
      "v": 111
    },
    {
      "midi": 67,
      "hit": false,
      "t": 117656.25,
      "d": 234.375,
      "v": 111
    },
    {
      "midi": 65,
      "hit": false,
      "t": 117890.625,
      "d": 234.375,
      "v": 111
    },
    {
      "midi": 69,
      "hit": false,
      "t": 118125,
      "d": 468.75,
      "v": 111
    },
    {
      "midi": 65,
      "hit": false,
      "t": 118593.75,
      "d": 468.75,
      "v": 111
    },
    {
      "midi": 67,
      "hit": false,
      "t": 119062.5,
      "d": 468.75,
      "v": 111
    },
    {
      "midi": 64,
      "hit": false,
      "t": 119531.25,
      "d": 468.75,
      "v": 111
    },
    {
      "midi": 65,
      "hit": false,
      "t": 120000,
      "d": 703.125,
      "v": 111
    },
    {
      "midi": 62,
      "hit": false,
      "t": 120703.125,
      "d": 703.125,
      "v": 111
    },
    {
      "midi": 65,
      "hit": false,
      "t": 121406.25,
      "d": 234.375,
      "v": 111
    },
    {
      "midi": 67,
      "hit": false,
      "t": 121640.625,
      "d": 234.375,
      "v": 111
    },
    {
      "midi": 69,
      "hit": false,
      "t": 121875,
      "d": 468.75,
      "v": 111
    },
    {
      "midi": 70,
      "hit": false,
      "t": 122343.75,
      "d": 468.75,
      "v": 111
    },
    {
      "midi": 69,
      "hit": false,
      "t": 122812.5,
      "d": 468.75,
      "v": 111
    },
    {
      "midi": 67,
      "hit": false,
      "t": 123281.25,
      "d": 468.75,
      "v": 111
    },
    {
      "midi": 65,
      "hit": false,
      "t": 123750,
      "d": 234.375,
      "v": 111
    },
    {
      "midi": 64,
      "hit": false,
      "t": 123984.375,
      "d": 234.375,
      "v": 111
    },
    {
      "midi": 62,
      "hit": false,
      "t": 124218.75,
      "d": 234.375,
      "v": 111
    },
    {
      "midi": 72,
      "hit": false,
      "t": 124453.125,
      "d": 468.75,
      "v": 111
    },
    {
      "midi": 69,
      "hit": false,
      "t": 124921.875,
      "d": 234.375,
      "v": 111
    },
    {
      "midi": 72,
      "hit": false,
      "t": 124921.875,
      "d": 234.375,
      "v": 111
    },
    {
      "midi": 67,
      "hit": false,
      "t": 125156.25,
      "d": 234.375,
      "v": 111
    },
    {
      "midi": 65,
      "hit": false,
      "t": 125390.625,
      "d": 234.375,
      "v": 111
    },
    {
      "midi": 69,
      "hit": false,
      "t": 125625,
      "d": 468.75,
      "v": 111
    },
    {
      "midi": 65,
      "hit": false,
      "t": 126093.75,
      "d": 468.75,
      "v": 111
    },
    {
      "midi": 67,
      "hit": false,
      "t": 126562.5,
      "d": 468.75,
      "v": 111
    },
    {
      "midi": 64,
      "hit": false,
      "t": 127031.25,
      "d": 468.75,
      "v": 111
    },
    {
      "midi": 62,
      "hit": false,
      "t": 127500,
      "d": 703.125,
      "v": 111
    },
    {
      "midi": 64,
      "hit": false,
      "t": 128203.125,
      "d": 703.125,
      "v": 111
    },
    {
      "midi": 65,
      "hit": false,
      "t": 128906.25,
      "d": 468.75,
      "v": 111
    },
    {
      "midi": 67,
      "hit": false,
      "t": 129375,
      "d": 1406.25,
      "v": 111
    },
    {
      "midi": 65,
      "hit": false,
      "t": 131250,
      "d": 234.375,
      "v": 111
    },
    {
      "midi": 77,
      "hit": false,
      "t": 131250,
      "d": 234.375,
      "v": 111
    },
    {
      "midi": 64,
      "hit": false,
      "t": 131484.375,
      "d": 234.375,
      "v": 111
    },
    {
      "midi": 76,
      "hit": false,
      "t": 131484.375,
      "d": 234.375,
      "v": 111
    },
    {
      "midi": 62,
      "hit": false,
      "t": 131718.75,
      "d": 234.375,
      "v": 111
    },
    {
      "midi": 74,
      "hit": false,
      "t": 131718.75,
      "d": 234.375,
      "v": 111
    },
    {
      "midi": 72,
      "hit": false,
      "t": 131953.125,
      "d": 468.75,
      "v": 111
    },
    {
      "midi": 69,
      "hit": false,
      "t": 132421.875,
      "d": 234.375,
      "v": 111
    },
    {
      "midi": 72,
      "hit": false,
      "t": 132421.875,
      "d": 234.375,
      "v": 111
    },
    {
      "midi": 67,
      "hit": false,
      "t": 132656.25,
      "d": 234.375,
      "v": 111
    },
    {
      "midi": 65,
      "hit": false,
      "t": 132890.625,
      "d": 234.375,
      "v": 111
    },
    {
      "midi": 69,
      "hit": false,
      "t": 133125,
      "d": 468.75,
      "v": 111
    },
    {
      "midi": 65,
      "hit": false,
      "t": 133593.75,
      "d": 468.75,
      "v": 111
    },
    {
      "midi": 67,
      "hit": false,
      "t": 134062.5,
      "d": 468.75,
      "v": 111
    },
    {
      "midi": 64,
      "hit": false,
      "t": 134531.25,
      "d": 468.75,
      "v": 111
    },
    {
      "midi": 65,
      "hit": false,
      "t": 135000,
      "d": 703.125,
      "v": 111
    },
    {
      "midi": 62,
      "hit": false,
      "t": 135703.125,
      "d": 703.125,
      "v": 111
    },
    {
      "midi": 65,
      "hit": false,
      "t": 136406.25,
      "d": 234.375,
      "v": 111
    },
    {
      "midi": 67,
      "hit": false,
      "t": 136640.625,
      "d": 234.375,
      "v": 111
    },
    {
      "midi": 69,
      "hit": false,
      "t": 136875,
      "d": 468.75,
      "v": 111
    },
    {
      "midi": 70,
      "hit": false,
      "t": 137343.75,
      "d": 468.75,
      "v": 111
    },
    {
      "midi": 69,
      "hit": false,
      "t": 137812.5,
      "d": 468.75,
      "v": 111
    },
    {
      "midi": 67,
      "hit": false,
      "t": 138281.25,
      "d": 468.75,
      "v": 111
    },
    {
      "midi": 65,
      "hit": false,
      "t": 138750,
      "d": 234.375,
      "v": 111
    },
    {
      "midi": 77,
      "hit": false,
      "t": 138750,
      "d": 234.375,
      "v": 111
    },
    {
      "midi": 64,
      "hit": false,
      "t": 138984.375,
      "d": 234.375,
      "v": 111
    },
    {
      "midi": 76,
      "hit": false,
      "t": 138984.375,
      "d": 234.375,
      "v": 95
    },
    {
      "midi": 62,
      "hit": false,
      "t": 139218.75,
      "d": 234.375,
      "v": 111
    },
    {
      "midi": 74,
      "hit": false,
      "t": 139218.75,
      "d": 234.375,
      "v": 111
    },
    {
      "midi": 72,
      "hit": false,
      "t": 139453.125,
      "d": 468.75,
      "v": 111
    },
    {
      "midi": 69,
      "hit": false,
      "t": 139921.875,
      "d": 234.375,
      "v": 111
    },
    {
      "midi": 72,
      "hit": false,
      "t": 139921.875,
      "d": 234.375,
      "v": 111
    },
    {
      "midi": 67,
      "hit": false,
      "t": 140156.25,
      "d": 234.375,
      "v": 111
    },
    {
      "midi": 65,
      "hit": false,
      "t": 140390.625,
      "d": 234.375,
      "v": 111
    },
    {
      "midi": 69,
      "hit": false,
      "t": 140625,
      "d": 468.75,
      "v": 111
    },
    {
      "midi": 65,
      "hit": false,
      "t": 141093.75,
      "d": 468.75,
      "v": 111
    },
    {
      "midi": 67,
      "hit": false,
      "t": 141562.5,
      "d": 468.75,
      "v": 111
    },
    {
      "midi": 64,
      "hit": false,
      "t": 142031.25,
      "d": 468.75,
      "v": 111
    },
    {
      "midi": 62,
      "hit": false,
      "t": 142500,
      "d": 703.125,
      "v": 111
    },
    {
      "midi": 64,
      "hit": false,
      "t": 143203.125,
      "d": 703.125,
      "v": 111
    },
    {
      "midi": 65,
      "hit": false,
      "t": 143906.25,
      "d": 468.75,
      "v": 111
    },
    {
      "midi": 67,
      "hit": false,
      "t": 144375,
      "d": 1406.25,
      "v": 111
    },
    {
      "midi": 69,
      "hit": false,
      "t": 161250,
      "d": 937.5,
      "v": 111
    },
    {
      "midi": 62,
      "hit": false,
      "t": 162187.5,
      "d": 937.5,
      "v": 111
    },
    {
      "midi": 70,
      "hit": false,
      "t": 163125,
      "d": 937.5,
      "v": 111
    },
    {
      "midi": 62,
      "hit": false,
      "t": 164062.5,
      "d": 937.5,
      "v": 111
    },
    {
      "midi": 72,
      "hit": false,
      "t": 165000,
      "d": 468.75,
      "v": 111
    },
    {
      "midi": 70,
      "hit": false,
      "t": 165468.75,
      "d": 468.75,
      "v": 111
    },
    {
      "midi": 69,
      "hit": false,
      "t": 165937.5,
      "d": 468.75,
      "v": 111
    },
    {
      "midi": 67,
      "hit": false,
      "t": 166406.25,
      "d": 468.75,
      "v": 111
    },
    {
      "midi": 69,
      "hit": false,
      "t": 166875,
      "d": 937.5,
      "v": 111
    },
    {
      "midi": 65,
      "hit": false,
      "t": 167812.5,
      "d": 468.75,
      "v": 111
    },
    {
      "midi": 67,
      "hit": false,
      "t": 168281.25,
      "d": 468.75,
      "v": 111
    },
    {
      "midi": 69,
      "hit": false,
      "t": 168750,
      "d": 937.5,
      "v": 111
    },
    {
      "midi": 62,
      "hit": false,
      "t": 169687.5,
      "d": 937.5,
      "v": 111
    },
    {
      "midi": 70,
      "hit": false,
      "t": 170625,
      "d": 937.5,
      "v": 111
    },
    {
      "midi": 62,
      "hit": false,
      "t": 171562.5,
      "d": 937.5,
      "v": 111
    },
    {
      "midi": 72,
      "hit": false,
      "t": 172500,
      "d": 468.75,
      "v": 111
    },
    {
      "midi": 70,
      "hit": false,
      "t": 172968.75,
      "d": 468.75,
      "v": 111
    },
    {
      "midi": 69,
      "hit": false,
      "t": 173437.5,
      "d": 468.75,
      "v": 111
    },
    {
      "midi": 67,
      "hit": false,
      "t": 173906.25,
      "d": 468.75,
      "v": 111
    },
    {
      "midi": 69,
      "hit": false,
      "t": 174375,
      "d": 937.5,
      "v": 111
    },
    {
      "midi": 62,
      "hit": false,
      "t": 175312.5,
      "d": 937.5,
      "v": 111
    },
    {
      "midi": 81,
      "hit": false,
      "t": 176250,
      "d": 234.375,
      "v": 95
    },
    {
      "midi": 50,
      "hit": false,
      "t": 176250,
      "d": 1875,
      "v": 95
    },
    {
      "midi": 84,
      "hit": false,
      "t": 176484.375,
      "d": 234.375,
      "v": 95
    },
    {
      "midi": 86,
      "hit": false,
      "t": 176718.75,
      "d": 234.375,
      "v": 95
    },
    {
      "midi": 93,
      "hit": false,
      "t": 178125,
      "d": 234.375,
      "v": 95
    },
    {
      "midi": 53,
      "hit": false,
      "t": 178125,
      "d": 937.5,
      "v": 95
    },
    {
      "midi": 84,
      "hit": false,
      "t": 178359.375,
      "d": 234.375,
      "v": 95
    },
    {
      "midi": 91,
      "hit": false,
      "t": 178593.75,
      "d": 234.375,
      "v": 95
    },
    {
      "midi": 89,
      "hit": false,
      "t": 178828.125,
      "d": 234.375,
      "v": 95
    },
    {
      "midi": 88,
      "hit": false,
      "t": 179062.5,
      "d": 234.375,
      "v": 95
    },
    {
      "midi": 48,
      "hit": false,
      "t": 179062.5,
      "d": 937.5,
      "v": 95
    },
    {
      "midi": 81,
      "hit": false,
      "t": 179296.875,
      "d": 234.375,
      "v": 95
    },
    {
      "midi": 86,
      "hit": false,
      "t": 179531.25,
      "d": 234.375,
      "v": 95
    },
    {
      "midi": 84,
      "hit": false,
      "t": 179765.625,
      "d": 234.375,
      "v": 95
    },
    {
      "midi": 81,
      "hit": false,
      "t": 180000,
      "d": 234.375,
      "v": 95
    },
    {
      "midi": 50,
      "hit": false,
      "t": 180000,
      "d": 1875,
      "v": 95
    },
    {
      "midi": 84,
      "hit": false,
      "t": 180234.375,
      "d": 234.375,
      "v": 95
    },
    {
      "midi": 86,
      "hit": false,
      "t": 180468.75,
      "d": 234.375,
      "v": 95
    },
    {
      "midi": 93,
      "hit": false,
      "t": 181875,
      "d": 234.375,
      "v": 95
    },
    {
      "midi": 46,
      "hit": false,
      "t": 181875,
      "d": 937.5,
      "v": 95
    },
    {
      "midi": 84,
      "hit": false,
      "t": 182109.375,
      "d": 234.375,
      "v": 95
    },
    {
      "midi": 91,
      "hit": false,
      "t": 182343.75,
      "d": 234.375,
      "v": 95
    },
    {
      "midi": 89,
      "hit": false,
      "t": 182578.125,
      "d": 234.375,
      "v": 95
    },
    {
      "midi": 88,
      "hit": false,
      "t": 182812.5,
      "d": 234.375,
      "v": 95
    },
    {
      "midi": 45,
      "hit": false,
      "t": 182812.5,
      "d": 937.5,
      "v": 95
    },
    {
      "midi": 81,
      "hit": false,
      "t": 183046.875,
      "d": 234.375,
      "v": 95
    },
    {
      "midi": 86,
      "hit": false,
      "t": 183281.25,
      "d": 234.375,
      "v": 95
    },
    {
      "midi": 84,
      "hit": false,
      "t": 183515.625,
      "d": 234.375,
      "v": 95
    },
    {
      "midi": 81,
      "hit": false,
      "t": 183750,
      "d": 234.375,
      "v": 95
    },
    {
      "midi": 50,
      "hit": false,
      "t": 183750,
      "d": 1875,
      "v": 95
    },
    {
      "midi": 84,
      "hit": false,
      "t": 183984.375,
      "d": 234.375,
      "v": 95
    },
    {
      "midi": 86,
      "hit": false,
      "t": 184218.75,
      "d": 234.375,
      "v": 95
    },
    {
      "midi": 81,
      "hit": false,
      "t": 184453.125,
      "d": 234.375,
      "v": 95
    },
    {
      "midi": 84,
      "hit": false,
      "t": 184687.5,
      "d": 234.375,
      "v": 95
    },
    {
      "midi": 86,
      "hit": false,
      "t": 184921.875,
      "d": 234.375,
      "v": 95
    },
    {
      "midi": 84,
      "hit": false,
      "t": 185156.25,
      "d": 234.375,
      "v": 95
    },
    {
      "midi": 81,
      "hit": false,
      "t": 185390.625,
      "d": 234.375,
      "v": 95
    },
    {
      "midi": 93,
      "hit": false,
      "t": 185625,
      "d": 234.375,
      "v": 95
    },
    {
      "midi": 53,
      "hit": false,
      "t": 185625,
      "d": 937.5,
      "v": 95
    },
    {
      "midi": 84,
      "hit": false,
      "t": 185859.375,
      "d": 234.375,
      "v": 95
    },
    {
      "midi": 91,
      "hit": false,
      "t": 186093.75,
      "d": 234.375,
      "v": 95
    },
    {
      "midi": 89,
      "hit": false,
      "t": 186328.125,
      "d": 234.375,
      "v": 95
    },
    {
      "midi": 88,
      "hit": false,
      "t": 186562.5,
      "d": 234.375,
      "v": 95
    },
    {
      "midi": 48,
      "hit": false,
      "t": 186562.5,
      "d": 937.5,
      "v": 95
    },
    {
      "midi": 81,
      "hit": false,
      "t": 186796.875,
      "d": 234.375,
      "v": 95
    },
    {
      "midi": 86,
      "hit": false,
      "t": 187031.25,
      "d": 234.375,
      "v": 95
    },
    {
      "midi": 84,
      "hit": false,
      "t": 187265.625,
      "d": 1875,
      "v": 95
    },
    {
      "midi": 62,
      "hit": false,
      "t": 187500,
      "d": 234.375,
      "v": 95
    },
    {
      "midi": 65,
      "hit": false,
      "t": 187734.375,
      "d": 234.375,
      "v": 95
    },
    {
      "midi": 69,
      "hit": false,
      "t": 187968.75,
      "d": 234.375,
      "v": 95
    },
    {
      "midi": 65,
      "hit": false,
      "t": 188203.125,
      "d": 234.375,
      "v": 95
    },
    {
      "midi": 69,
      "hit": false,
      "t": 188437.5,
      "d": 234.375,
      "v": 95
    },
    {
      "midi": 74,
      "hit": false,
      "t": 188671.875,
      "d": 234.375,
      "v": 95
    },
    {
      "midi": 69,
      "hit": false,
      "t": 188906.25,
      "d": 234.375,
      "v": 95
    },
    {
      "midi": 74,
      "hit": false,
      "t": 189140.625,
      "d": 234.375,
      "v": 95
    },
    {
      "midi": 77,
      "hit": false,
      "t": 189375,
      "d": 234.375,
      "v": 95
    },
    {
      "midi": 74,
      "hit": false,
      "t": 189609.375,
      "d": 234.375,
      "v": 95
    },
    {
      "midi": 77,
      "hit": false,
      "t": 189843.75,
      "d": 468.75,
      "v": 95
    },
    {
      "midi": 86,
      "hit": false,
      "t": 190078.125,
      "d": 234.375,
      "v": 95
    },
    {
      "midi": 67,
      "hit": false,
      "t": 191250,
      "d": 234.375,
      "v": 127
    },
    {
      "midi": 79,
      "hit": false,
      "t": 191250,
      "d": 234.375,
      "v": 127
    },
    {
      "midi": 66,
      "hit": false,
      "t": 191484.375,
      "d": 234.375,
      "v": 127
    },
    {
      "midi": 78,
      "hit": false,
      "t": 191484.375,
      "d": 234.375,
      "v": 127
    },
    {
      "midi": 64,
      "hit": false,
      "t": 191718.75,
      "d": 234.375,
      "v": 127
    },
    {
      "midi": 76,
      "hit": false,
      "t": 191718.75,
      "d": 234.375,
      "v": 127
    },
    {
      "midi": 74,
      "hit": false,
      "t": 191953.125,
      "d": 468.75,
      "v": 127
    },
    {
      "midi": 86,
      "hit": false,
      "t": 191953.125,
      "d": 468.75,
      "v": 127
    },
    {
      "midi": 74,
      "hit": false,
      "t": 192421.875,
      "d": 234.375,
      "v": 127
    },
    {
      "midi": 86,
      "hit": false,
      "t": 192421.875,
      "d": 234.375,
      "v": 127
    },
    {
      "midi": 69,
      "hit": false,
      "t": 192656.25,
      "d": 234.375,
      "v": 127
    },
    {
      "midi": 81,
      "hit": false,
      "t": 192656.25,
      "d": 234.375,
      "v": 127
    },
    {
      "midi": 67,
      "hit": false,
      "t": 192890.625,
      "d": 234.375,
      "v": 127
    },
    {
      "midi": 79,
      "hit": false,
      "t": 192890.625,
      "d": 234.375,
      "v": 127
    },
    {
      "midi": 71,
      "hit": false,
      "t": 193125,
      "d": 468.75,
      "v": 127
    },
    {
      "midi": 83,
      "hit": false,
      "t": 193125,
      "d": 468.75,
      "v": 127
    },
    {
      "midi": 67,
      "hit": false,
      "t": 193593.75,
      "d": 468.75,
      "v": 127
    },
    {
      "midi": 79,
      "hit": false,
      "t": 193593.75,
      "d": 468.75,
      "v": 127
    },
    {
      "midi": 69,
      "hit": false,
      "t": 194062.5,
      "d": 468.75,
      "v": 127
    },
    {
      "midi": 81,
      "hit": false,
      "t": 194062.5,
      "d": 468.75,
      "v": 127
    },
    {
      "midi": 66,
      "hit": false,
      "t": 194531.25,
      "d": 468.75,
      "v": 127
    },
    {
      "midi": 78,
      "hit": false,
      "t": 194531.25,
      "d": 468.75,
      "v": 127
    },
    {
      "midi": 67,
      "hit": false,
      "t": 195000,
      "d": 703.125,
      "v": 127
    },
    {
      "midi": 79,
      "hit": false,
      "t": 195000,
      "d": 703.125,
      "v": 127
    },
    {
      "midi": 64,
      "hit": false,
      "t": 195703.125,
      "d": 703.125,
      "v": 127
    },
    {
      "midi": 76,
      "hit": false,
      "t": 195703.125,
      "d": 703.125,
      "v": 127
    },
    {
      "midi": 67,
      "hit": false,
      "t": 196406.25,
      "d": 234.375,
      "v": 127
    },
    {
      "midi": 79,
      "hit": false,
      "t": 196406.25,
      "d": 234.375,
      "v": 127
    },
    {
      "midi": 69,
      "hit": false,
      "t": 196640.625,
      "d": 234.375,
      "v": 127
    },
    {
      "midi": 81,
      "hit": false,
      "t": 196640.625,
      "d": 234.375,
      "v": 127
    },
    {
      "midi": 71,
      "hit": false,
      "t": 196875,
      "d": 468.75,
      "v": 127
    },
    {
      "midi": 83,
      "hit": false,
      "t": 196875,
      "d": 468.75,
      "v": 127
    },
    {
      "midi": 72,
      "hit": false,
      "t": 197343.75,
      "d": 468.75,
      "v": 127
    },
    {
      "midi": 84,
      "hit": false,
      "t": 197343.75,
      "d": 468.75,
      "v": 127
    },
    {
      "midi": 71,
      "hit": false,
      "t": 197812.5,
      "d": 468.75,
      "v": 127
    },
    {
      "midi": 83,
      "hit": false,
      "t": 197812.5,
      "d": 468.75,
      "v": 127
    },
    {
      "midi": 69,
      "hit": false,
      "t": 198281.25,
      "d": 468.75,
      "v": 127
    },
    {
      "midi": 81,
      "hit": false,
      "t": 198281.25,
      "d": 468.75,
      "v": 127
    },
    {
      "midi": 67,
      "hit": false,
      "t": 198750,
      "d": 234.375,
      "v": 127
    },
    {
      "midi": 79,
      "hit": false,
      "t": 198750,
      "d": 234.375,
      "v": 127
    },
    {
      "midi": 66,
      "hit": false,
      "t": 198984.375,
      "d": 234.375,
      "v": 127
    },
    {
      "midi": 78,
      "hit": false,
      "t": 198984.375,
      "d": 234.375,
      "v": 127
    },
    {
      "midi": 64,
      "hit": false,
      "t": 199218.75,
      "d": 234.375,
      "v": 127
    },
    {
      "midi": 76,
      "hit": false,
      "t": 199218.75,
      "d": 234.375,
      "v": 127
    },
    {
      "midi": 74,
      "hit": false,
      "t": 199453.125,
      "d": 468.75,
      "v": 127
    },
    {
      "midi": 86,
      "hit": false,
      "t": 199453.125,
      "d": 468.75,
      "v": 127
    },
    {
      "midi": 71,
      "hit": false,
      "t": 199921.875,
      "d": 234.375,
      "v": 127
    },
    {
      "midi": 83,
      "hit": false,
      "t": 199921.875,
      "d": 234.375,
      "v": 127
    },
    {
      "midi": 69,
      "hit": false,
      "t": 200156.25,
      "d": 234.375,
      "v": 127
    },
    {
      "midi": 81,
      "hit": false,
      "t": 200156.25,
      "d": 234.375,
      "v": 127
    },
    {
      "midi": 67,
      "hit": false,
      "t": 200390.625,
      "d": 234.375,
      "v": 127
    },
    {
      "midi": 79,
      "hit": false,
      "t": 200390.625,
      "d": 234.375,
      "v": 127
    },
    {
      "midi": 71,
      "hit": false,
      "t": 200625,
      "d": 468.75,
      "v": 127
    },
    {
      "midi": 83,
      "hit": false,
      "t": 200625,
      "d": 468.75,
      "v": 127
    },
    {
      "midi": 67,
      "hit": false,
      "t": 201093.75,
      "d": 468.75,
      "v": 127
    },
    {
      "midi": 79,
      "hit": false,
      "t": 201093.75,
      "d": 468.75,
      "v": 127
    },
    {
      "midi": 69,
      "hit": false,
      "t": 201562.5,
      "d": 468.75,
      "v": 127
    },
    {
      "midi": 81,
      "hit": false,
      "t": 201562.5,
      "d": 468.75,
      "v": 127
    },
    {
      "midi": 66,
      "hit": false,
      "t": 202031.25,
      "d": 468.75,
      "v": 127
    },
    {
      "midi": 78,
      "hit": false,
      "t": 202031.25,
      "d": 468.75,
      "v": 127
    },
    {
      "midi": 64,
      "hit": false,
      "t": 202500,
      "d": 703.125,
      "v": 127
    },
    {
      "midi": 71,
      "hit": false,
      "t": 202500,
      "d": 703.125,
      "v": 127
    },
    {
      "midi": 76,
      "hit": false,
      "t": 202500,
      "d": 703.125,
      "v": 127
    },
    {
      "midi": 66,
      "hit": false,
      "t": 203203.125,
      "d": 703.125,
      "v": 127
    },
    {
      "midi": 78,
      "hit": false,
      "t": 203203.125,
      "d": 703.125,
      "v": 127
    },
    {
      "midi": 67,
      "hit": false,
      "t": 203906.25,
      "d": 468.75,
      "v": 127
    },
    {
      "midi": 79,
      "hit": false,
      "t": 203906.25,
      "d": 468.75,
      "v": 127
    },
    {
      "midi": 69,
      "hit": false,
      "t": 204375,
      "d": 1406.25,
      "v": 127
    },
    {
      "midi": 81,
      "hit": false,
      "t": 204375,
      "d": 1406.25,
      "v": 127
    },
    {
      "midi": 67,
      "hit": false,
      "t": 206250,
      "d": 234.375,
      "v": 127
    },
    {
      "midi": 79,
      "hit": false,
      "t": 206250,
      "d": 234.375,
      "v": 127
    },
    {
      "midi": 66,
      "hit": false,
      "t": 206484.375,
      "d": 234.375,
      "v": 127
    },
    {
      "midi": 78,
      "hit": false,
      "t": 206484.375,
      "d": 234.375,
      "v": 127
    },
    {
      "midi": 64,
      "hit": false,
      "t": 206718.75,
      "d": 234.375,
      "v": 127
    },
    {
      "midi": 76,
      "hit": false,
      "t": 206718.75,
      "d": 234.375,
      "v": 127
    },
    {
      "midi": 74,
      "hit": false,
      "t": 206953.125,
      "d": 468.75,
      "v": 127
    },
    {
      "midi": 86,
      "hit": false,
      "t": 206953.125,
      "d": 468.75,
      "v": 127
    },
    {
      "midi": 74,
      "hit": false,
      "t": 207421.875,
      "d": 234.375,
      "v": 127
    },
    {
      "midi": 86,
      "hit": false,
      "t": 207421.875,
      "d": 234.375,
      "v": 127
    },
    {
      "midi": 71,
      "hit": false,
      "t": 207656.25,
      "d": 234.375,
      "v": 127
    },
    {
      "midi": 83,
      "hit": false,
      "t": 207656.25,
      "d": 234.375,
      "v": 127
    },
    {
      "midi": 67,
      "hit": false,
      "t": 207890.625,
      "d": 234.375,
      "v": 127
    },
    {
      "midi": 79,
      "hit": false,
      "t": 207890.625,
      "d": 234.375,
      "v": 127
    },
    {
      "midi": 71,
      "hit": false,
      "t": 208125,
      "d": 468.75,
      "v": 127
    },
    {
      "midi": 83,
      "hit": false,
      "t": 208125,
      "d": 468.75,
      "v": 127
    },
    {
      "midi": 67,
      "hit": false,
      "t": 208593.75,
      "d": 468.75,
      "v": 127
    },
    {
      "midi": 79,
      "hit": false,
      "t": 208593.75,
      "d": 468.75,
      "v": 127
    },
    {
      "midi": 69,
      "hit": false,
      "t": 209062.5,
      "d": 468.75,
      "v": 127
    },
    {
      "midi": 81,
      "hit": false,
      "t": 209062.5,
      "d": 468.75,
      "v": 127
    },
    {
      "midi": 66,
      "hit": false,
      "t": 209531.25,
      "d": 468.75,
      "v": 127
    },
    {
      "midi": 78,
      "hit": false,
      "t": 209531.25,
      "d": 468.75,
      "v": 127
    },
    {
      "midi": 67,
      "hit": false,
      "t": 210000,
      "d": 703.125,
      "v": 127
    },
    {
      "midi": 79,
      "hit": false,
      "t": 210000,
      "d": 703.125,
      "v": 127
    },
    {
      "midi": 64,
      "hit": false,
      "t": 210703.125,
      "d": 703.125,
      "v": 127
    },
    {
      "midi": 76,
      "hit": false,
      "t": 210703.125,
      "d": 703.125,
      "v": 127
    },
    {
      "midi": 67,
      "hit": false,
      "t": 211406.25,
      "d": 234.375,
      "v": 127
    },
    {
      "midi": 79,
      "hit": false,
      "t": 211406.25,
      "d": 234.375,
      "v": 127
    },
    {
      "midi": 69,
      "hit": false,
      "t": 211640.625,
      "d": 234.375,
      "v": 127
    },
    {
      "midi": 81,
      "hit": false,
      "t": 211640.625,
      "d": 234.375,
      "v": 127
    },
    {
      "midi": 71,
      "hit": false,
      "t": 211875,
      "d": 468.75,
      "v": 127
    },
    {
      "midi": 83,
      "hit": false,
      "t": 211875,
      "d": 468.75,
      "v": 127
    },
    {
      "midi": 72,
      "hit": false,
      "t": 212343.75,
      "d": 468.75,
      "v": 127
    },
    {
      "midi": 84,
      "hit": false,
      "t": 212343.75,
      "d": 468.75,
      "v": 127
    },
    {
      "midi": 71,
      "hit": false,
      "t": 212812.5,
      "d": 468.75,
      "v": 127
    },
    {
      "midi": 83,
      "hit": false,
      "t": 212812.5,
      "d": 468.75,
      "v": 127
    },
    {
      "midi": 69,
      "hit": false,
      "t": 213281.25,
      "d": 468.75,
      "v": 127
    },
    {
      "midi": 81,
      "hit": false,
      "t": 213281.25,
      "d": 468.75,
      "v": 127
    },
    {
      "midi": 67,
      "hit": false,
      "t": 213750,
      "d": 234.375,
      "v": 127
    },
    {
      "midi": 79,
      "hit": false,
      "t": 213750,
      "d": 234.375,
      "v": 127
    },
    {
      "midi": 66,
      "hit": false,
      "t": 213984.375,
      "d": 234.375,
      "v": 127
    },
    {
      "midi": 78,
      "hit": false,
      "t": 213984.375,
      "d": 234.375,
      "v": 127
    },
    {
      "midi": 64,
      "hit": false,
      "t": 214218.75,
      "d": 234.375,
      "v": 127
    },
    {
      "midi": 76,
      "hit": false,
      "t": 214218.75,
      "d": 234.375,
      "v": 127
    },
    {
      "midi": 74,
      "hit": false,
      "t": 214453.125,
      "d": 468.75,
      "v": 127
    },
    {
      "midi": 86,
      "hit": false,
      "t": 214453.125,
      "d": 468.75,
      "v": 127
    },
    {
      "midi": 74,
      "hit": false,
      "t": 214921.875,
      "d": 234.375,
      "v": 127
    },
    {
      "midi": 86,
      "hit": false,
      "t": 214921.875,
      "d": 234.375,
      "v": 127
    },
    {
      "midi": 69,
      "hit": false,
      "t": 215156.25,
      "d": 234.375,
      "v": 127
    },
    {
      "midi": 81,
      "hit": false,
      "t": 215156.25,
      "d": 234.375,
      "v": 127
    },
    {
      "midi": 67,
      "hit": false,
      "t": 215390.625,
      "d": 234.375,
      "v": 127
    },
    {
      "midi": 79,
      "hit": false,
      "t": 215390.625,
      "d": 234.375,
      "v": 127
    },
    {
      "midi": 71,
      "hit": false,
      "t": 215625,
      "d": 468.75,
      "v": 127
    },
    {
      "midi": 83,
      "hit": false,
      "t": 215625,
      "d": 468.75,
      "v": 127
    },
    {
      "midi": 67,
      "hit": false,
      "t": 216093.75,
      "d": 468.75,
      "v": 127
    },
    {
      "midi": 79,
      "hit": false,
      "t": 216093.75,
      "d": 468.75,
      "v": 127
    },
    {
      "midi": 69,
      "hit": false,
      "t": 216562.5,
      "d": 468.75,
      "v": 127
    },
    {
      "midi": 81,
      "hit": false,
      "t": 216562.5,
      "d": 468.75,
      "v": 127
    },
    {
      "midi": 66,
      "hit": false,
      "t": 217031.25,
      "d": 468.75,
      "v": 127
    },
    {
      "midi": 78,
      "hit": false,
      "t": 217031.25,
      "d": 468.75,
      "v": 127
    },
    {
      "midi": 64,
      "hit": false,
      "t": 217500,
      "d": 703.125,
      "v": 127
    },
    {
      "midi": 76,
      "hit": false,
      "t": 217500,
      "d": 703.125,
      "v": 127
    },
    {
      "midi": 66,
      "hit": false,
      "t": 218203.125,
      "d": 703.125,
      "v": 127
    },
    {
      "midi": 78,
      "hit": false,
      "t": 218203.125,
      "d": 703.125,
      "v": 127
    },
    {
      "midi": 67,
      "hit": false,
      "t": 218906.25,
      "d": 468.75,
      "v": 127
    },
    {
      "midi": 79,
      "hit": false,
      "t": 218906.25,
      "d": 468.75,
      "v": 127
    },
    {
      "midi": 69,
      "hit": false,
      "t": 219375,
      "d": 937.5,
      "v": 127
    },
    {
      "midi": 81,
      "hit": false,
      "t": 219375,
      "d": 937.5,
      "v": 127
    },
    {
      "midi": 76,
      "hit": false,
      "t": 220312.5,
      "d": 937.5,
      "v": 127
    },
    {
      "midi": 88,
      "hit": false,
      "t": 220312.5,
      "d": 937.5,
      "v": 127
    },
    {
      "midi": 76,
      "hit": false,
      "t": 221250,
      "d": 937.5,
      "v": 127
    },
    {
      "midi": 88,
      "hit": false,
      "t": 221250,
      "d": 937.5,
      "v": 127
    }
  ]
}