{
  "jsonPath": "Rock/Pop Rock/Edwin McCain/i-could-not-ask-for-more-lp-version.json",
  "path": "Rock\\Pop Rock\\Edwin McCain\\I Could Not Ask For More (LP Version).mid",
  "name": "I Could Not Ask For More (LP Version)",
  "difficulty": "Advanced",
  "bpm": 65.99999340000066,
  "notes": [
    {
      "midi": 41,
      "hit": false,
      "t": 7280.3037583333335,
      "d": 431.818225,
      "v": 112
    },
    {
      "midi": 41,
      "hit": false,
      "t": 7734.849258333334,
      "d": 568.1818750000002,
      "v": 112
    },
    {
      "midi": 65,
      "hit": false,
      "t": 8643.940258333334,
      "d": 212.1212333333333,
      "v": 112
    },
    {
      "midi": 41,
      "hit": false,
      "t": 8643.940258333334,
      "d": 318.18184999999903,
      "v": 112
    },
    {
      "midi": 65,
      "hit": false,
      "t": 8871.213008333334,
      "d": 469.69701666666515,
      "v": 112
    },
    {
      "midi": 60,
      "hit": false,
      "t": 8871.213008333334,
      "d": 492.42429166666443,
      "v": 112
    },
    {
      "midi": 67,
      "hit": false,
      "t": 8909.0918,
      "d": 492.42429166666443,
      "v": 112
    },
    {
      "midi": 41,
      "hit": false,
      "t": 9098.485758333332,
      "d": 318.18184999999903,
      "v": 112
    },
    {
      "midi": 69,
      "hit": false,
      "t": 9325.758508333332,
      "d": 371.2121583333319,
      "v": 112
    },
    {
      "midi": 41,
      "hit": false,
      "t": 9553.03125833333,
      "d": 621.2121833333331,
      "v": 112
    },
    {
      "midi": 57,
      "hit": false,
      "t": 9553.03125833333,
      "d": 1257.575883333333,
      "v": 112
    },
    {
      "midi": 60,
      "hit": false,
      "t": 9553.03125833333,
      "d": 1287.8789166666666,
      "v": 112
    },
    {
      "midi": 65,
      "hit": false,
      "t": 9553.03125833333,
      "d": 2545.4547999999977,
      "v": 112
    },
    {
      "midi": 41,
      "hit": false,
      "t": 10462.122258333331,
      "d": 666.6667333333335,
      "v": 112
    },
    {
      "midi": 46,
      "hit": false,
      "t": 10916.667758333331,
      "d": 431.8182249999991,
      "v": 112
    },
    {
      "midi": 58,
      "hit": false,
      "t": 10916.667758333331,
      "d": 1234.84860833333,
      "v": 112
    },
    {
      "midi": 60,
      "hit": false,
      "t": 10954.546549999997,
      "d": 1212.1213333333308,
      "v": 112
    },
    {
      "midi": 46,
      "hit": false,
      "t": 11371.21325833333,
      "d": 590.9091499999995,
      "v": 112
    },
    {
      "midi": 46,
      "hit": false,
      "t": 12280.304258333328,
      "d": 295.45457499999975,
      "v": 112
    },
    {
      "midi": 65,
      "hit": false,
      "t": 12280.304258333328,
      "d": 318.18184999999903,
      "v": 112
    },
    {
      "midi": 58,
      "hit": false,
      "t": 12507.577008333328,
      "d": 469.69701666666515,
      "v": 112
    },
    {
      "midi": 67,
      "hit": false,
      "t": 12507.577008333328,
      "d": 545.4545999999973,
      "v": 112
    },
    {
      "midi": 60,
      "hit": false,
      "t": 12545.455799999994,
      "d": 469.69701666666515,
      "v": 112
    },
    {
      "midi": 46,
      "hit": false,
      "t": 12734.849758333326,
      "d": 318.18184999999903,
      "v": 112
    },
    {
      "midi": 69,
      "hit": false,
      "t": 12962.122508333327,
      "d": 348.4848833333308,
      "v": 112
    },
    {
      "midi": 46,
      "hit": false,
      "t": 13189.395258333325,
      "d": 568.1818749999984,
      "v": 112
    },
    {
      "midi": 53,
      "hit": false,
      "t": 13189.395258333325,
      "d": 1212.1213333333326,
      "v": 112
    },
    {
      "midi": 58,
      "hit": false,
      "t": 13189.395258333325,
      "d": 1257.575883333333,
      "v": 112
    },
    {
      "midi": 60,
      "hit": false,
      "t": 13227.27404999999,
      "d": 2568.182074999999,
      "v": 112
    },
    {
      "midi": 46,
      "hit": false,
      "t": 14098.486258333323,
      "d": 689.3940083333346,
      "v": 112
    },
    {
      "midi": 41,
      "hit": false,
      "t": 14553.031758333325,
      "d": 431.8182249999991,
      "v": 112
    },
    {
      "midi": 53,
      "hit": false,
      "t": 14553.031758333325,
      "d": 1257.5758833333311,
      "v": 112
    },
    {
      "midi": 57,
      "hit": false,
      "t": 14553.031758333325,
      "d": 1310.606191666664,
      "v": 112
    },
    {
      "midi": 41,
      "hit": false,
      "t": 15007.577258333324,
      "d": 621.2121833333331,
      "v": 112
    },
    {
      "midi": 65,
      "hit": false,
      "t": 15916.668258333322,
      "d": 212.1212333333333,
      "v": 112
    },
    {
      "midi": 41,
      "hit": false,
      "t": 15916.668258333322,
      "d": 348.4848833333326,
      "v": 112
    },
    {
      "midi": 65,
      "hit": false,
      "t": 16143.941008333322,
      "d": 492.42429166666443,
      "v": 112
    },
    {
      "midi": 60,
      "hit": false,
      "t": 16143.941008333322,
      "d": 515.1515666666655,
      "v": 112
    },
    {
      "midi": 67,
      "hit": false,
      "t": 16181.819799999988,
      "d": 446.96974166666587,
      "v": 112
    },
    {
      "midi": 41,
      "hit": false,
      "t": 16371.213758333322,
      "d": 348.4848833333326,
      "v": 112
    },
    {
      "midi": 69,
      "hit": false,
      "t": 16598.48650833332,
      "d": 371.2121583333319,
      "v": 112
    },
    {
      "midi": 41,
      "hit": false,
      "t": 16825.75925833332,
      "d": 568.1818749999984,
      "v": 112
    },
    {
      "midi": 65,
      "hit": false,
      "t": 16825.75925833332,
      "d": 863.6364499999981,
      "v": 112
    },
    {
      "midi": 57,
      "hit": false,
      "t": 16825.75925833332,
      "d": 1015.1516166666624,
      "v": 112
    },
    {
      "midi": 60,
      "hit": false,
      "t": 16825.75925833332,
      "d": 1015.1516166666624,
      "v": 112
    },
    {
      "midi": 65,
      "hit": false,
      "t": 17734.850258333317,
      "d": 431.8182249999991,
      "v": 112
    },
    {
      "midi": 69,
      "hit": false,
      "t": 17734.850258333317,
      "d": 590.9091499999995,
      "v": 112
    },
    {
      "midi": 72,
      "hit": false,
      "t": 17734.850258333317,
      "d": 643.9394583333342,
      "v": 112
    },
    {
      "midi": 41,
      "hit": false,
      "t": 17734.850258333317,
      "d": 689.3940083333327,
      "v": 112
    },
    {
      "midi": 46,
      "hit": false,
      "t": 18189.395758333318,
      "d": 431.8182249999991,
      "v": 112
    },
    {
      "midi": 65,
      "hit": false,
      "t": 18189.395758333318,
      "d": 545.4546000000009,
      "v": 112
    },
    {
      "midi": 60,
      "hit": false,
      "t": 18189.395758333318,
      "d": 787.878866666666,
      "v": 112
    },
    {
      "midi": 70,
      "hit": false,
      "t": 18189.395758333318,
      "d": 818.1818999999996,
      "v": 112
    },
    {
      "midi": 46,
      "hit": false,
      "t": 18643.941258333318,
      "d": 643.9394583333342,
      "v": 112
    },
    {
      "midi": 65,
      "hit": false,
      "t": 18871.214008333318,
      "d": 651.5152166666667,
      "v": 112
    },
    {
      "midi": 69,
      "hit": false,
      "t": 18871.214008333318,
      "d": 863.6364499999981,
      "v": 112
    },
    {
      "midi": 62,
      "hit": false,
      "t": 18871.214008333318,
      "d": 886.3637249999992,
      "v": 112
    },
    {
      "midi": 46,
      "hit": false,
      "t": 19553.032258333318,
      "d": 431.8182249999991,
      "v": 112
    },
    {
      "midi": 58,
      "hit": false,
      "t": 19553.032258333318,
      "d": 2272.7274999999972,
      "v": 112
    },
    {
      "midi": 65,
      "hit": false,
      "t": 19553.032258333318,
      "d": 2272.7274999999972,
      "v": 112
    },
    {
      "midi": 60,
      "hit": false,
      "t": 19590.911049999984,
      "d": 2196.969916666665,
      "v": 112
    },
    {
      "midi": 46,
      "hit": false,
      "t": 20007.57775833332,
      "d": 431.8182249999991,
      "v": 112
    },
    {
      "midi": 46,
      "hit": false,
      "t": 20462.12325833332,
      "d": 590.9091499999995,
      "v": 112
    },
    {
      "midi": 36,
      "hit": false,
      "t": 20916.66875833332,
      "d": 863.6364499999981,
      "v": 112
    },
    {
      "midi": 41,
      "hit": false,
      "t": 21825.759758333315,
      "d": 431.8182249999991,
      "v": 112
    },
    {
      "midi": 60,
      "hit": false,
      "t": 21825.759758333315,
      "d": 431.8182249999991,
      "v": 112
    },
    {
      "midi": 65,
      "hit": false,
      "t": 21825.759758333315,
      "d": 431.8182249999991,
      "v": 112
    },
    {
      "midi": 69,
      "hit": false,
      "t": 21825.759758333315,
      "d": 431.8182249999991,
      "v": 112
    },
    {
      "midi": 60,
      "hit": false,
      "t": 22280.305258333316,
      "d": 212.1212333333351,
      "v": 112
    },
    {
      "midi": 65,
      "hit": false,
      "t": 22280.305258333316,
      "d": 212.1212333333351,
      "v": 112
    },
    {
      "midi": 69,
      "hit": false,
      "t": 22280.305258333316,
      "d": 212.1212333333351,
      "v": 112
    },
    {
      "midi": 41,
      "hit": false,
      "t": 22280.305258333316,
      "d": 613.6364250000006,
      "v": 112
    },
    {
      "midi": 65,
      "hit": false,
      "t": 22507.578008333316,
      "d": 530.3030833333323,
      "v": 112
    },
    {
      "midi": 69,
      "hit": false,
      "t": 22507.578008333316,
      "d": 530.3030833333323,
      "v": 112
    },
    {
      "midi": 60,
      "hit": false,
      "t": 22507.578008333316,
      "d": 553.0303583333334,
      "v": 112
    },
    {
      "midi": 72,
      "hit": false,
      "t": 22962.123508333316,
      "d": 356.0606416666669,
      "v": 112
    },
    {
      "midi": 41,
      "hit": false,
      "t": 23189.396258333316,
      "d": 431.8182249999991,
      "v": 112
    },
    {
      "midi": 60,
      "hit": false,
      "t": 23189.396258333316,
      "d": 2234.848708333335,
      "v": 112
    },
    {
      "midi": 65,
      "hit": false,
      "t": 23189.396258333316,
      "d": 2371.212358333334,
      "v": 112
    },
    {
      "midi": 67,
      "hit": false,
      "t": 23227.275049999982,
      "d": 2174.2426416666676,
      "v": 112
    },
    {
      "midi": 41,
      "hit": false,
      "t": 23643.941758333316,
      "d": 431.8182249999991,
      "v": 112
    },
    {
      "midi": 41,
      "hit": false,
      "t": 24098.487258333316,
      "d": 575.7576333333345,
      "v": 112
    },
    {
      "midi": 41,
      "hit": false,
      "t": 25007.578258333317,
      "d": 590.9091499999995,
      "v": 112
    },
    {
      "midi": 46,
      "hit": false,
      "t": 25462.123758333317,
      "d": 431.8182249999991,
      "v": 112
    },
    {
      "midi": 58,
      "hit": false,
      "t": 25462.123758333317,
      "d": 431.8182249999991,
      "v": 112
    },
    {
      "midi": 67,
      "hit": false,
      "t": 25462.123758333317,
      "d": 431.8182249999991,
      "v": 112
    },
    {
      "midi": 60,
      "hit": false,
      "t": 25500.002549999983,
      "d": 393.939433333333,
      "v": 112
    },
    {
      "midi": 58,
      "hit": false,
      "t": 25916.669258333317,
      "d": 212.12123333333147,
      "v": 112
    },
    {
      "midi": 65,
      "hit": false,
      "t": 25916.669258333317,
      "d": 212.12123333333147,
      "v": 112
    },
    {
      "midi": 46,
      "hit": false,
      "t": 25916.669258333317,
      "d": 674.2424916666641,
      "v": 112
    },
    {
      "midi": 60,
      "hit": false,
      "t": 25954.548049999983,
      "d": 181.8181999999979,
      "v": 112
    },
    {
      "midi": 58,
      "hit": false,
      "t": 26143.942008333313,
      "d": 553.0303583333334,
      "v": 112
    },
    {
      "midi": 65,
      "hit": false,
      "t": 26143.942008333313,
      "d": 575.7576333333309,
      "v": 112
    },
    {
      "midi": 60,
      "hit": false,
      "t": 26181.82079999998,
      "d": 530.3030833333323,
      "v": 112
    },
    {
      "midi": 69,
      "hit": false,
      "t": 26598.487508333314,
      "d": 318.1818499999972,
      "v": 112
    },
    {
      "midi": 41,
      "hit": false,
      "t": 26825.76025833331,
      "d": 553.0303583333334,
      "v": 112
    },
    {
      "midi": 69,
      "hit": false,
      "t": 27053.03300833331,
      "d": 212.1212333333351,
      "v": 112
    },
    {
      "midi": 46,
      "hit": false,
      "t": 27280.30575833331,
      "d": 333.3333666666658,
      "v": 112
    },
    {
      "midi": 70,
      "hit": false,
      "t": 27280.30575833331,
      "d": 393.939433333333,
      "v": 112
    },
    {
      "midi": 69,
      "hit": false,
      "t": 27507.57850833331,
      "d": 1583.3334916666681,
      "v": 112
    },
    {
      "midi": 46,
      "hit": false,
      "t": 27734.85125833331,
      "d": 613.6364250000006,
      "v": 112
    },
    {
      "midi": 36,
      "hit": false,
      "t": 28189.39675833331,
      "d": 1045.4546499999997,
      "v": 112
    },
    {
      "midi": 60,
      "hit": false,
      "t": 29098.48775833331,
      "d": 7.575758333332487,
      "v": 112
    },
    {
      "midi": 65,
      "hit": false,
      "t": 29098.48775833331,
      "d": 7.575758333332487,
      "v": 112
    },
    {
      "midi": 41,
      "hit": false,
      "t": 29098.48775833331,
      "d": 431.8182249999991,
      "v": 112
    },
    {
      "midi": 69,
      "hit": false,
      "t": 29098.48775833331,
      "d": 431.8182249999991,
      "v": 112
    },
    {
      "midi": 60,
      "hit": false,
      "t": 29553.03325833331,
      "d": 212.1212333333351,
      "v": 112
    },
    {
      "midi": 65,
      "hit": false,
      "t": 29553.03325833331,
      "d": 212.1212333333351,
      "v": 112
    },
    {
      "midi": 69,
      "hit": false,
      "t": 29553.03325833331,
      "d": 212.1212333333351,
      "v": 112
    },
    {
      "midi": 41,
      "hit": false,
      "t": 29553.03325833331,
      "d": 613.6364250000006,
      "v": 112
    },
    {
      "midi": 60,
      "hit": false,
      "t": 29780.30600833331,
      "d": 515.1515666666673,
      "v": 112
    },
    {
      "midi": 65,
      "hit": false,
      "t": 29780.30600833331,
      "d": 530.3030833333323,
      "v": 112
    },
    {
      "midi": 69,
      "hit": false,
      "t": 29780.30600833331,
      "d": 553.0303583333334,
      "v": 112
    },
    {
      "midi": 72,
      "hit": false,
      "t": 30234.85150833331,
      "d": 356.0606416666669,
      "v": 112
    },
    {
      "midi": 41,
      "hit": false,
      "t": 30462.12425833331,
      "d": 431.8182249999991,
      "v": 112
    },
    {
      "midi": 65,
      "hit": false,
      "t": 30462.12425833331,
      "d": 1939.394133333335,
      "v": 112
    },
    {
      "midi": 60,
      "hit": false,
      "t": 30462.12425833331,
      "d": 2174.2426416666676,
      "v": 112
    },
    {
      "midi": 67,
      "hit": false,
      "t": 30500.003049999978,
      "d": 2151.5153666666665,
      "v": 112
    },
    {
      "midi": 41,
      "hit": false,
      "t": 30916.66975833331,
      "d": 431.8182249999991,
      "v": 112
    },
    {
      "midi": 41,
      "hit": false,
      "t": 31371.21525833331,
      "d": 590.9091499999995,
      "v": 112
    },
    {
      "midi": 41,
      "hit": false,
      "t": 32280.306258333312,
      "d": 590.9091500000031,
      "v": 112
    },
    {
      "midi": 65,
      "hit": false,
      "t": 32507.579008333312,
      "d": 212.12123333333147,
      "v": 112
    },
    {
      "midi": 46,
      "hit": false,
      "t": 32734.85175833331,
      "d": 431.81822500001,
      "v": 112
    },
    {
      "midi": 58,
      "hit": false,
      "t": 32734.85175833331,
      "d": 431.81822500001,
      "v": 112
    },
    {
      "midi": 67,
      "hit": false,
      "t": 32734.85175833331,
      "d": 431.81822500001,
      "v": 112
    },
    {
      "midi": 60,
      "hit": false,
      "t": 32772.73054999998,
      "d": 393.9394333333403,
      "v": 112
    },
    {
      "midi": 58,
      "hit": false,
      "t": 33189.397258333316,
      "d": 212.12123333333875,
      "v": 112
    },
    {
      "midi": 65,
      "hit": false,
      "t": 33189.397258333316,
      "d": 212.12123333333875,
      "v": 112
    },
    {
      "midi": 46,
      "hit": false,
      "t": 33189.397258333316,
      "d": 590.9091500000068,
      "v": 112
    },
    {
      "midi": 60,
      "hit": false,
      "t": 33227.276049999986,
      "d": 181.81820000000153,
      "v": 112
    },
    {
      "midi": 65,
      "hit": false,
      "t": 33416.67000833332,
      "d": 575.7576333333345,
      "v": 112
    },
    {
      "midi": 58,
      "hit": false,
      "t": 33416.67000833332,
      "d": 613.6364250000042,
      "v": 112
    },
    {
      "midi": 60,
      "hit": false,
      "t": 33454.54879999999,
      "d": 530.3030833333323,
      "v": 112
    },
    {
      "midi": 69,
      "hit": false,
      "t": 33871.21550833332,
      "d": 318.18185000000085,
      "v": 112
    },
    {
      "midi": 41,
      "hit": false,
      "t": 34098.488258333324,
      "d": 575.7576333333272,
      "v": 112
    },
    {
      "midi": 69,
      "hit": false,
      "t": 34325.76100833332,
      "d": 295.4545749999961,
      "v": 112
    },
    {
      "midi": 65,
      "hit": false,
      "t": 34325.76100833332,
      "d": 2053.0305083333296,
      "v": 112
    },
    {
      "midi": 46,
      "hit": false,
      "t": 34553.03375833332,
      "d": 356.06064166667056,
      "v": 112
    },
    {
      "midi": 70,
      "hit": false,
      "t": 34553.03375833332,
      "d": 378.787916666668,
      "v": 112
    },
    {
      "midi": 69,
      "hit": false,
      "t": 34780.30650833332,
      "d": 1598.4850083333295,
      "v": 112
    },
    {
      "midi": 46,
      "hit": false,
      "t": 35007.57925833332,
      "d": 590.9091499999995,
      "v": 112
    },
    {
      "midi": 36,
      "hit": false,
      "t": 35462.12475833332,
      "d": 863.6364499999981,
      "v": 112
    },
    {
      "midi": 60,
      "hit": false,
      "t": 36371.21575833332,
      "d": 7.575758333332487,
      "v": 112
    },
    {
      "midi": 45,
      "hit": false,
      "t": 36371.21575833332,
      "d": 431.8182250000027,
      "v": 112
    },
    {
      "midi": 55,
      "hit": false,
      "t": 36371.21575833332,
      "d": 1030.3031333333347,
      "v": 112
    },
    {
      "midi": 64,
      "hit": false,
      "t": 36371.21575833332,
      "d": 1045.4546499999997,
      "v": 112
    },
    {
      "midi": 45,
      "hit": false,
      "t": 36825.76125833332,
      "d": 431.8182250000027,
      "v": 112
    },
    {
      "midi": 72,
      "hit": false,
      "t": 37280.30675833332,
      "d": 295.4545749999961,
      "v": 112
    },
    {
      "midi": 45,
      "hit": false,
      "t": 37280.30675833332,
      "d": 810.6061416666635,
      "v": 112
    },
    {
      "midi": 74,
      "hit": false,
      "t": 37507.579508333314,
      "d": 280.30305833333114,
      "v": 112
    },
    {
      "midi": 76,
      "hit": false,
      "t": 37734.85225833331,
      "d": 356.06064166667056,
      "v": 112
    },
    {
      "midi": 74,
      "hit": false,
      "t": 37962.125008333314,
      "d": 590.9091499999995,
      "v": 112
    },
    {
      "midi": 64,
      "hit": false,
      "t": 37962.125008333314,
      "d": 1424.2425666666604,
      "v": 112
    },
    {
      "midi": 67,
      "hit": false,
      "t": 37962.125008333314,
      "d": 1462.1213583333301,
      "v": 112
    },
    {
      "midi": 45,
      "hit": false,
      "t": 38189.39775833332,
      "d": 356.0606416666633,
      "v": 112
    },
    {
      "midi": 72,
      "hit": false,
      "t": 38416.670508333315,
      "d": 575.7576333333272,
      "v": 112
    },
    {
      "midi": 45,
      "hit": false,
      "t": 38643.94325833331,
      "d": 356.0606416666633,
      "v": 112
    },
    {
      "midi": 74,
      "hit": false,
      "t": 38871.21600833331,
      "d": 772.727350000001,
      "v": 112
    },
    {
      "midi": 45,
      "hit": false,
      "t": 39098.48875833331,
      "d": 1128.787991666657,
      "v": 112
    },
    {
      "midi": 65,
      "hit": false,
      "t": 39553.03425833331,
      "d": 318.1818499999936,
      "v": 112
    },
    {
      "midi": 72,
      "hit": false,
      "t": 39780.30700833331,
      "d": 212.12123333333147,
      "v": 112
    },
    {
      "midi": 46,
      "hit": false,
      "t": 40007.579758333304,
      "d": 431.81822499999544,
      "v": 112
    },
    {
      "midi": 62,
      "hit": false,
      "t": 40007.579758333304,
      "d": 431.81822499999544,
      "v": 112
    },
    {
      "midi": 65,
      "hit": false,
      "t": 40007.579758333304,
      "d": 431.81822499999544,
      "v": 112
    },
    {
      "midi": 72,
      "hit": false,
      "t": 40007.579758333304,
      "d": 431.81822499999544,
      "v": 112
    },
    {
      "midi": 62,
      "hit": false,
      "t": 40462.1252583333,
      "d": 212.12123333333147,
      "v": 112
    },
    {
      "midi": 65,
      "hit": false,
      "t": 40462.1252583333,
      "d": 212.12123333333147,
      "v": 112
    },
    {
      "midi": 70,
      "hit": false,
      "t": 40462.1252583333,
      "d": 212.12123333333147,
      "v": 112
    },
    {
      "midi": 46,
      "hit": false,
      "t": 40462.1252583333,
      "d": 378.78791666666075,
      "v": 112
    },
    {
      "midi": 65,
      "hit": false,
      "t": 40689.39800833329,
      "d": 515.1515666666601,
      "v": 112
    },
    {
      "midi": 62,
      "hit": false,
      "t": 40689.39800833329,
      "d": 530.303083333325,
      "v": 112
    },
    {
      "midi": 70,
      "hit": false,
      "t": 40689.39800833329,
      "d": 613.6364249999897,
      "v": 112
    },
    {
      "midi": 46,
      "hit": false,
      "t": 40916.67075833329,
      "d": 810.6061416666562,
      "v": 112
    },
    {
      "midi": 69,
      "hit": false,
      "t": 41143.94350833329,
      "d": 295.4545749999961,
      "v": 112
    },
    {
      "midi": 58,
      "hit": false,
      "t": 41371.21625833328,
      "d": 2310.6062916666706,
      "v": 112
    },
    {
      "midi": 65,
      "hit": false,
      "t": 41371.21625833328,
      "d": 2393.939633333335,
      "v": 112
    },
    {
      "midi": 62,
      "hit": false,
      "t": 41371.21625833328,
      "d": 2409.09115,
      "v": 112
    },
    {
      "midi": 46,
      "hit": false,
      "t": 41825.76175833328,
      "d": 431.8182250000027,
      "v": 112
    },
    {
      "midi": 46,
      "hit": false,
      "t": 42280.30725833328,
      "d": 575.7576333333345,
      "v": 112
    },
    {
      "midi": 36,
      "hit": false,
      "t": 42734.85275833328,
      "d": 1045.4546499999997,
      "v": 112
    },
    {
      "midi": 45,
      "hit": false,
      "t": 43643.943758333284,
      "d": 431.8182250000027,
      "v": 112
    },
    {
      "midi": 64,
      "hit": false,
      "t": 43643.943758333284,
      "d": 1030.3031333333347,
      "v": 112
    },
    {
      "midi": 60,
      "hit": false,
      "t": 43643.943758333284,
      "d": 1068.1819250000044,
      "v": 112
    },
    {
      "midi": 55,
      "hit": false,
      "t": 43643.943758333284,
      "d": 1106.0607166666741,
      "v": 112
    },
    {
      "midi": 45,
      "hit": false,
      "t": 44098.489258333284,
      "d": 431.8182250000027,
      "v": 112
    },
    {
      "midi": 72,
      "hit": false,
      "t": 44553.034758333284,
      "d": 212.12123333333875,
      "v": 112
    },
    {
      "midi": 45,
      "hit": false,
      "t": 44553.034758333284,
      "d": 787.8788666666587,
      "v": 112
    },
    {
      "midi": 74,
      "hit": false,
      "t": 44780.30750833329,
      "d": 212.12123333333147,
      "v": 112
    },
    {
      "midi": 76,
      "hit": false,
      "t": 45007.580258333284,
      "d": 318.1818499999936,
      "v": 112
    },
    {
      "midi": 74,
      "hit": false,
      "t": 45234.85300833328,
      "d": 590.9091499999922,
      "v": 112
    },
    {
      "midi": 67,
      "hit": false,
      "t": 45234.85300833328,
      "d": 1401.5152916666557,
      "v": 112
    },
    {
      "midi": 64,
      "hit": false,
      "t": 45234.85300833328,
      "d": 1484.8486333333203,
      "v": 112
    },
    {
      "midi": 45,
      "hit": false,
      "t": 45462.12575833328,
      "d": 378.78791666666075,
      "v": 112
    },
    {
      "midi": 72,
      "hit": false,
      "t": 45689.398508333274,
      "d": 515.1515666666601,
      "v": 112
    },
    {
      "midi": 45,
      "hit": false,
      "t": 45916.67125833327,
      "d": 333.3333666666658,
      "v": 112
    },
    {
      "midi": 74,
      "hit": false,
      "t": 46143.94400833327,
      "d": 833.3334166666682,
      "v": 112
    },
    {
      "midi": 45,
      "hit": false,
      "t": 46371.21675833327,
      "d": 1030.3031333333274,
      "v": 112
    },
    {
      "midi": 69,
      "hit": false,
      "t": 46825.76225833327,
      "d": 318.1818499999936,
      "v": 112
    },
    {
      "midi": 72,
      "hit": false,
      "t": 47053.03500833327,
      "d": 212.12123333333147,
      "v": 112
    },
    {
      "midi": 38,
      "hit": false,
      "t": 47280.30775833326,
      "d": 431.8182250000027,
      "v": 112
    },
    {
      "midi": 65,
      "hit": false,
      "t": 47280.30775833326,
      "d": 431.8182250000027,
      "v": 112
    },
    {
      "midi": 69,
      "hit": false,
      "t": 47280.30775833326,
      "d": 431.8182250000027,
      "v": 112
    },
    {
      "midi": 72,
      "hit": false,
      "t": 47280.30775833326,
      "d": 431.8182250000027,
      "v": 112
    },
    {
      "midi": 65,
      "hit": false,
      "t": 47734.85325833326,
      "d": 212.12123333333147,
      "v": 112
    },
    {
      "midi": 69,
      "hit": false,
      "t": 47734.85325833326,
      "d": 212.12123333333147,
      "v": 112
    },
    {
      "midi": 72,
      "hit": false,
      "t": 47734.85325833326,
      "d": 318.1818499999936,
      "v": 112
    },
    {
      "midi": 38,
      "hit": false,
      "t": 47734.85325833326,
      "d": 378.78791666666075,
      "v": 112
    },
    {
      "midi": 69,
      "hit": false,
      "t": 47962.12600833326,
      "d": 378.78791666666075,
      "v": 112
    },
    {
      "midi": 65,
      "hit": false,
      "t": 47962.12600833326,
      "d": 393.9394333333257,
      "v": 112
    },
    {
      "midi": 74,
      "hit": false,
      "t": 47962.12600833326,
      "d": 575.7576333333272,
      "v": 112
    },
    {
      "midi": 38,
      "hit": false,
      "t": 48189.39875833326,
      "d": 1030.3031333333347,
      "v": 112
    },
    {
      "midi": 69,
      "hit": false,
      "t": 48416.67150833325,
      "d": 431.8182250000027,
      "v": 112
    },
    {
      "midi": 65,
      "hit": false,
      "t": 48416.67150833325,
      "d": 492.4242916666699,
      "v": 112
    },
    {
      "midi": 60,
      "hit": false,
      "t": 48416.67150833325,
      "d": 575.7576333333345,
      "v": 112
    },
    {
      "midi": 69,
      "hit": false,
      "t": 48871.21700833325,
      "d": 378.787916666668,
      "v": 112
    },
    {
      "midi": 62,
      "hit": false,
      "t": 48871.21700833325,
      "d": 1462.1213583333374,
      "v": 112
    },
    {
      "midi": 59,
      "hit": false,
      "t": 48871.21700833325,
      "d": 1537.8789416666696,
      "v": 112
    },
    {
      "midi": 43,
      "hit": false,
      "t": 49098.48975833326,
      "d": 333.3333666666658,
      "v": 112
    },
    {
      "midi": 67,
      "hit": false,
      "t": 49098.48975833326,
      "d": 378.787916666668,
      "v": 112
    },
    {
      "midi": 65,
      "hit": false,
      "t": 49325.76250833325,
      "d": 1204.5455750000037,
      "v": 112
    },
    {
      "midi": 43,
      "hit": false,
      "t": 49553.03525833326,
      "d": 431.8182250000027,
      "v": 112
    },
    {
      "midi": 43,
      "hit": false,
      "t": 50007.58075833326,
      "d": 787.878866666666,
      "v": 112
    },
    {
      "midi": 62,
      "hit": false,
      "t": 50462.12625833326,
      "d": 295.4545749999961,
      "v": 112
    },
    {
      "midi": 65,
      "hit": false,
      "t": 50689.399008333254,
      "d": 212.12123333333875,
      "v": 112
    },
    {
      "midi": 43,
      "hit": false,
      "t": 50916.67175833326,
      "d": 431.8182250000027,
      "v": 112
    },
    {
      "midi": 62,
      "hit": false,
      "t": 50916.67175833326,
      "d": 431.8182250000027,
      "v": 112
    },
    {
      "midi": 65,
      "hit": false,
      "t": 50916.67175833326,
      "d": 431.8182250000027,
      "v": 112
    },
    {
      "midi": 70,
      "hit": false,
      "t": 50916.67175833326,
      "d": 431.8182250000027,
      "v": 112
    },
    {
      "midi": 62,
      "hit": false,
      "t": 51371.21725833326,
      "d": 212.12123333333147,
      "v": 112
    },
    {
      "midi": 65,
      "hit": false,
      "t": 51371.21725833326,
      "d": 212.12123333333147,
      "v": 112
    },
    {
      "midi": 69,
      "hit": false,
      "t": 51371.21725833326,
      "d": 295.4545749999961,
      "v": 112
    },
    {
      "midi": 43,
      "hit": false,
      "t": 51371.21725833326,
      "d": 378.78791666666075,
      "v": 112
    },
    {
      "midi": 62,
      "hit": false,
      "t": 51598.490008333254,
      "d": 530.303083333325,
      "v": 112
    },
    {
      "midi": 65,
      "hit": false,
      "t": 51598.490008333254,
      "d": 530.303083333325,
      "v": 112
    },
    {
      "midi": 70,
      "hit": false,
      "t": 51598.490008333254,
      "d": 613.6364249999897,
      "v": 112
    },
    {
      "midi": 43,
      "hit": false,
      "t": 51825.76275833325,
      "d": 810.6061416666635,
      "v": 112
    },
    {
      "midi": 69,
      "hit": false,
      "t": 52053.03550833325,
      "d": 333.3333666666658,
      "v": 112
    },
    {
      "midi": 58,
      "hit": false,
      "t": 52280.30825833324,
      "d": 2196.969916666676,
      "v": 112
    },
    {
      "midi": 62,
      "hit": false,
      "t": 52280.30825833324,
      "d": 2196.969916666676,
      "v": 112
    },
    {
      "midi": 67,
      "hit": false,
      "t": 52280.30825833324,
      "d": 2431.818425000005,
      "v": 112
    },
    {
      "midi": 43,
      "hit": false,
      "t": 52734.85375833325,
      "d": 431.8182250000027,
      "v": 112
    },
    {
      "midi": 43,
      "hit": false,
      "t": 53189.39925833325,
      "d": 431.8182250000027,
      "v": 112
    },
    {
      "midi": 43,
      "hit": false,
      "t": 53643.94475833325,
      "d": 1068.1819249999971,
      "v": 112
    },
    {
      "midi": 46,
      "hit": false,
      "t": 54553.03575833325,
      "d": 431.81822499999544,
      "v": 112
    },
    {
      "midi": 62,
      "hit": false,
      "t": 54553.03575833325,
      "d": 1204.5455749999965,
      "v": 112
    },
    {
      "midi": 58,
      "hit": false,
      "t": 54553.03575833325,
      "d": 1242.4243666666662,
      "v": 112
    },
    {
      "midi": 65,
      "hit": false,
      "t": 54553.03575833325,
      "d": 1242.4243666666662,
      "v": 112
    },
    {
      "midi": 46,
      "hit": false,
      "t": 55007.581258333244,
      "d": 431.8182250000027,
      "v": 112
    },
    {
      "midi": 46,
      "hit": false,
      "t": 55462.126758333245,
      "d": 810.6061416666707,
      "v": 112
    },
    {
      "midi": 62,
      "hit": false,
      "t": 55916.67225833325,
      "d": 295.4545749999961,
      "v": 112
    },
    {
      "midi": 65,
      "hit": false,
      "t": 56143.94500833325,
      "d": 212.12123333333147,
      "v": 112
    },
    {
      "midi": 46,
      "hit": false,
      "t": 56371.217758333245,
      "d": 431.8182250000027,
      "v": 112
    },
    {
      "midi": 62,
      "hit": false,
      "t": 56371.217758333245,
      "d": 431.8182250000027,
      "v": 112
    },
    {
      "midi": 65,
      "hit": false,
      "t": 56371.217758333245,
      "d": 553.0303583333371,
      "v": 112
    },
    {
      "midi": 70,
      "hit": false,
      "t": 56371.217758333245,
      "d": 628.7879416666692,
      "v": 112
    },
    {
      "midi": 58,
      "hit": false,
      "t": 56825.763258333245,
      "d": 431.8182250000027,
      "v": 112
    },
    {
      "midi": 62,
      "hit": false,
      "t": 56825.763258333245,
      "d": 431.8182250000027,
      "v": 112
    },
    {
      "midi": 46,
      "hit": false,
      "t": 56825.763258333245,
      "d": 575.7576333333345,
      "v": 112
    },
    {
      "midi": 69,
      "hit": false,
      "t": 56825.763258333245,
      "d": 575.7576333333345,
      "v": 112
    },
    {
      "midi": 65,
      "hit": false,
      "t": 57280.308758333245,
      "d": 431.8182250000027,
      "v": 112
    },
    {
      "midi": 62,
      "hit": false,
      "t": 57280.308758333245,
      "d": 515.1515666666673,
      "v": 112
    },
    {
      "midi": 58,
      "hit": false,
      "t": 57280.308758333245,
      "d": 530.3030833333323,
      "v": 112
    },
    {
      "midi": 36,
      "hit": false,
      "t": 57280.308758333245,
      "d": 1007.57585833333,
      "v": 112
    },
    {
      "midi": 65,
      "hit": false,
      "t": 57734.854258333246,
      "d": 212.12123333333147,
      "v": 112
    },
    {
      "midi": 65,
      "hit": false,
      "t": 57962.12700833324,
      "d": 1068.1819249999971,
      "v": 112
    },
    {
      "midi": 41,
      "hit": false,
      "t": 58189.39975833324,
      "d": 431.8182250000027,
      "v": 112
    },
    {
      "midi": 60,
      "hit": false,
      "t": 58189.39975833324,
      "d": 848.4849333333332,
      "v": 112
    },
    {
      "midi": 57,
      "hit": false,
      "t": 58189.39975833324,
      "d": 1068.1819249999971,
      "v": 112
    },
    {
      "midi": 41,
      "hit": false,
      "t": 58643.94525833324,
      "d": 431.8182250000027,
      "v": 112
    },
    {
      "midi": 60,
      "hit": false,
      "t": 59098.49075833324,
      "d": 575.7576333333345,
      "v": 112
    },
    {
      "midi": 65,
      "hit": false,
      "t": 59098.49075833324,
      "d": 575.7576333333345,
      "v": 112
    },
    {
      "midi": 41,
      "hit": false,
      "t": 59098.49075833324,
      "d": 613.6364250000042,
      "v": 112
    },
    {
      "midi": 69,
      "hit": false,
      "t": 59098.49075833324,
      "d": 848.4849333333405,
      "v": 112
    },
    {
      "midi": 36,
      "hit": false,
      "t": 59553.03625833324,
      "d": 590.9091500000068,
      "v": 112
    },
    {
      "midi": 60,
      "hit": false,
      "t": 59780.30900833324,
      "d": 553.0303583333371,
      "v": 112
    },
    {
      "midi": 65,
      "hit": false,
      "t": 59780.30900833324,
      "d": 553.0303583333371,
      "v": 112
    },
    {
      "midi": 67,
      "hit": false,
      "t": 59818.18779999991,
      "d": 477.27277499999764,
      "v": 112
    },
    {
      "midi": 41,
      "hit": false,
      "t": 60007.58175833325,
      "d": 212.12123333333147,
      "v": 112
    },
    {
      "midi": 69,
      "hit": false,
      "t": 60234.85450833324,
      "d": 356.06064166667056,
      "v": 112
    },
    {
      "midi": 41,
      "hit": false,
      "t": 60462.12725833325,
      "d": 431.8182250000027,
      "v": 112
    },
    {
      "midi": 57,
      "hit": false,
      "t": 60462.12725833325,
      "d": 1189.3940583333315,
      "v": 112
    },
    {
      "midi": 60,
      "hit": false,
      "t": 60462.12725833325,
      "d": 1242.4243666666662,
      "v": 112
    },
    {
      "midi": 65,
      "hit": false,
      "t": 60462.12725833325,
      "d": 2628.7881416666714,
      "v": 112
    },
    {
      "midi": 41,
      "hit": false,
      "t": 60916.67275833325,
      "d": 1045.454650000007,
      "v": 112
    },
    {
      "midi": 46,
      "hit": false,
      "t": 61825.76375833325,
      "d": 431.81822500001,
      "v": 112
    },
    {
      "midi": 58,
      "hit": false,
      "t": 61825.76375833325,
      "d": 1242.4243666666734,
      "v": 112
    },
    {
      "midi": 60,
      "hit": false,
      "t": 61863.64254999992,
      "d": 1265.151641666671,
      "v": 112
    },
    {
      "midi": 46,
      "hit": false,
      "t": 62280.309258333255,
      "d": 431.8182250000027,
      "v": 112
    },
    {
      "midi": 46,
      "hit": false,
      "t": 62734.854758333255,
      "d": 575.7576333333345,
      "v": 112
    },
    {
      "midi": 65,
      "hit": false,
      "t": 63189.400258333255,
      "d": 333.3333666666731,
      "v": 112
    },
    {
      "midi": 41,
      "hit": false,
      "t": 63189.400258333255,
      "d": 651.515216666674,
      "v": 112
    },
    {
      "midi": 58,
      "hit": false,
      "t": 63416.67300833326,
      "d": 515.1515666666673,
      "v": 112
    },
    {
      "midi": 67,
      "hit": false,
      "t": 63416.67300833326,
      "d": 553.0303583333371,
      "v": 112
    },
    {
      "midi": 60,
      "hit": false,
      "t": 63454.55179999993,
      "d": 515.1515666666673,
      "v": 112
    },
    {
      "midi": 46,
      "hit": false,
      "t": 63643.94575833326,
      "d": 356.0606416666633,
      "v": 112
    },
    {
      "midi": 69,
      "hit": false,
      "t": 63871.21850833326,
      "d": 318.1818500000081,
      "v": 112
    },
    {
      "midi": 46,
      "hit": false,
      "t": 64098.49125833326,
      "d": 651.515216666674,
      "v": 112
    },
    {
      "midi": 53,
      "hit": false,
      "t": 64098.49125833326,
      "d": 1204.5455750000037,
      "v": 112
    },
    {
      "midi": 58,
      "hit": false,
      "t": 64098.49125833326,
      "d": 1227.2728500000012,
      "v": 112
    },
    {
      "midi": 60,
      "hit": false,
      "t": 64136.37004999993,
      "d": 1166.666783333334,
      "v": 112
    },
    {
      "midi": 36,
      "hit": false,
      "t": 64553.03675833327,
      "d": 886.3637249999956,
      "v": 112
    },
    {
      "midi": 41,
      "hit": false,
      "t": 65462.12775833326,
      "d": 431.8182250000027,
      "v": 112
    },
    {
      "midi": 60,
      "hit": false,
      "t": 65462.12775833326,
      "d": 431.8182250000027,
      "v": 112
    },
    {
      "midi": 65,
      "hit": false,
      "t": 65462.12775833326,
      "d": 431.8182250000027,
      "v": 112
    },
    {
      "midi": 69,
      "hit": false,
      "t": 65462.12775833326,
      "d": 431.8182250000027,
      "v": 112
    },
    {
      "midi": 60,
      "hit": false,
      "t": 65916.67325833326,
      "d": 212.12123333333875,
      "v": 112
    },
    {
      "midi": 65,
      "hit": false,
      "t": 65916.67325833326,
      "d": 212.12123333333875,
      "v": 112
    },
    {
      "midi": 69,
      "hit": false,
      "t": 65916.67325833326,
      "d": 212.12123333333875,
      "v": 112
    },
    {
      "midi": 41,
      "hit": false,
      "t": 65916.67325833326,
      "d": 613.6364250000042,
      "v": 112
    },
    {
      "midi": 65,
      "hit": false,
      "t": 66143.94600833327,
      "d": 530.3030833333469,
      "v": 112
    },
    {
      "midi": 69,
      "hit": false,
      "t": 66143.94600833327,
      "d": 530.3030833333469,
      "v": 112
    },
    {
      "midi": 60,
      "hit": false,
      "t": 66143.94600833327,
      "d": 553.0303583333443,
      "v": 112
    },
    {
      "midi": 72,
      "hit": false,
      "t": 66598.49150833327,
      "d": 356.06064166667056,
      "v": 112
    },
    {
      "midi": 41,
      "hit": false,
      "t": 66825.76425833328,
      "d": 431.81822499999544,
      "v": 112
    },
    {
      "midi": 60,
      "hit": false,
      "t": 66825.76425833328,
      "d": 2234.8487083333166,
      "v": 112
    },
    {
      "midi": 65,
      "hit": false,
      "t": 66825.76425833328,
      "d": 2371.2123583333014,
      "v": 112
    },
    {
      "midi": 67,
      "hit": false,
      "t": 66863.64304999994,
      "d": 2174.2426416666567,
      "v": 112
    },
    {
      "midi": 41,
      "hit": false,
      "t": 67280.30975833327,
      "d": 431.81822499999544,
      "v": 112
    },
    {
      "midi": 41,
      "hit": false,
      "t": 67734.85525833326,
      "d": 575.7576333333272,
      "v": 112
    },
    {
      "midi": 41,
      "hit": false,
      "t": 68643.94625833326,
      "d": 590.9091499999777,
      "v": 112
    },
    {
      "midi": 46,
      "hit": false,
      "t": 69098.49175833326,
      "d": 431.8182249999809,
      "v": 112
    },
    {
      "midi": 58,
      "hit": false,
      "t": 69098.49175833326,
      "d": 431.8182249999809,
      "v": 112
    },
    {
      "midi": 67,
      "hit": false,
      "t": 69098.49175833326,
      "d": 431.8182249999809,
      "v": 112
    },
    {
      "midi": 60,
      "hit": false,
      "t": 69136.37054999992,
      "d": 393.93943333331845,
      "v": 112
    },
    {
      "midi": 58,
      "hit": false,
      "t": 69553.03725833324,
      "d": 212.1212333333242,
      "v": 112
    },
    {
      "midi": 65,
      "hit": false,
      "t": 69553.03725833324,
      "d": 212.1212333333242,
      "v": 112
    },
    {
      "midi": 46,
      "hit": false,
      "t": 69553.03725833324,
      "d": 674.2424916666496,
      "v": 112
    },
    {
      "midi": 60,
      "hit": false,
      "t": 69590.9160499999,
      "d": 181.81819999999425,
      "v": 112
    },
    {
      "midi": 58,
      "hit": false,
      "t": 69780.31000833322,
      "d": 553.0303583333298,
      "v": 112
    },
    {
      "midi": 65,
      "hit": false,
      "t": 69780.31000833322,
      "d": 575.7576333333272,
      "v": 112
    },
    {
      "midi": 60,
      "hit": false,
      "t": 69818.18879999989,
      "d": 530.3030833333323,
      "v": 112
    },
    {
      "midi": 69,
      "hit": false,
      "t": 70234.85550833322,
      "d": 318.1818500000081,
      "v": 112
    },
    {
      "midi": 41,
      "hit": false,
      "t": 70462.12825833322,
      "d": 553.0303583333443,
      "v": 112
    },
    {
      "midi": 69,
      "hit": false,
      "t": 70689.40100833323,
      "d": 212.12123333333875,
      "v": 112
    },
    {
      "midi": 46,
      "hit": false,
      "t": 70916.67375833323,
      "d": 333.3333666666731,
      "v": 112
    },
    {
      "midi": 70,
      "hit": false,
      "t": 70916.67375833323,
      "d": 393.939433333333,
      "v": 112
    },
    {
      "midi": 69,
      "hit": false,
      "t": 71143.94650833323,
      "d": 1583.33349166665,
      "v": 112
    },
    {
      "midi": 46,
      "hit": false,
      "t": 71371.21925833322,
      "d": 613.6364249999897,
      "v": 112
    },
    {
      "midi": 36,
      "hit": false,
      "t": 71825.76475833321,
      "d": 1045.4546499999997,
      "v": 112
    },
    {
      "midi": 60,
      "hit": false,
      "t": 72734.85575833321,
      "d": 7.575758333332487,
      "v": 112
    },
    {
      "midi": 65,
      "hit": false,
      "t": 72734.85575833321,
      "d": 7.575758333332487,
      "v": 112
    },
    {
      "midi": 41,
      "hit": false,
      "t": 72734.85575833321,
      "d": 431.81822499999544,
      "v": 112
    },
    {
      "midi": 69,
      "hit": false,
      "t": 72734.85575833321,
      "d": 431.81822499999544,
      "v": 112
    },
    {
      "midi": 60,
      "hit": false,
      "t": 73189.40125833321,
      "d": 212.12123333333875,
      "v": 112
    },
    {
      "midi": 65,
      "hit": false,
      "t": 73189.40125833321,
      "d": 212.12123333333875,
      "v": 112
    },
    {
      "midi": 69,
      "hit": false,
      "t": 73189.40125833321,
      "d": 212.12123333333875,
      "v": 112
    },
    {
      "midi": 41,
      "hit": false,
      "t": 73189.40125833321,
      "d": 613.6364250000042,
      "v": 112
    },
    {
      "midi": 60,
      "hit": false,
      "t": 73416.67400833321,
      "d": 515.1515666666673,
      "v": 112
    },
    {
      "midi": 65,
      "hit": false,
      "t": 73416.67400833321,
      "d": 530.3030833333323,
      "v": 112
    },
    {
      "midi": 69,
      "hit": false,
      "t": 73416.67400833321,
      "d": 553.0303583333298,
      "v": 112
    },
    {
      "midi": 72,
      "hit": false,
      "t": 73871.21950833322,
      "d": 356.060641666656,
      "v": 112
    },
    {
      "midi": 41,
      "hit": false,
      "t": 74098.49225833321,
      "d": 431.81822499999544,
      "v": 112
    },
    {
      "midi": 65,
      "hit": false,
      "t": 74098.49225833321,
      "d": 1939.3941333333205,
      "v": 112
    },
    {
      "midi": 60,
      "hit": false,
      "t": 74098.49225833321,
      "d": 2174.2426416666567,
      "v": 112
    },
    {
      "midi": 67,
      "hit": false,
      "t": 74136.37104999987,
      "d": 2151.5153666666592,
      "v": 112
    },
    {
      "midi": 41,
      "hit": false,
      "t": 74553.0377583332,
      "d": 431.81822499999544,
      "v": 112
    },
    {
      "midi": 41,
      "hit": false,
      "t": 75007.5832583332,
      "d": 590.9091500000068,
      "v": 112
    },
    {
      "midi": 41,
      "hit": false,
      "t": 75916.6742583332,
      "d": 590.9091500000068,
      "v": 112
    },
    {
      "midi": 65,
      "hit": false,
      "t": 76143.9470083332,
      "d": 212.12123333333875,
      "v": 112
    },
    {
      "midi": 46,
      "hit": false,
      "t": 76371.2197583332,
      "d": 431.81822499999544,
      "v": 112
    },
    {
      "midi": 58,
      "hit": false,
      "t": 76371.2197583332,
      "d": 431.81822499999544,
      "v": 112
    },
    {
      "midi": 67,
      "hit": false,
      "t": 76371.2197583332,
      "d": 431.81822499999544,
      "v": 112
    },
    {
      "midi": 60,
      "hit": false,
      "t": 76409.09854999986,
      "d": 393.939433333333,
      "v": 112
    },
    {
      "midi": 58,
      "hit": false,
      "t": 76825.7652583332,
      "d": 212.1212333333242,
      "v": 112
    },
    {
      "midi": 65,
      "hit": false,
      "t": 76825.7652583332,
      "d": 212.1212333333242,
      "v": 112
    },
    {
      "midi": 46,
      "hit": false,
      "t": 76825.7652583332,
      "d": 590.9091499999777,
      "v": 112
    },
    {
      "midi": 60,
      "hit": false,
      "t": 76863.64404999986,
      "d": 181.81819999999425,
      "v": 112
    },
    {
      "midi": 65,
      "hit": false,
      "t": 77053.03800833318,
      "d": 575.7576333333272,
      "v": 112
    },
    {
      "midi": 58,
      "hit": false,
      "t": 77053.03800833318,
      "d": 613.6364249999897,
      "v": 112
    },
    {
      "midi": 60,
      "hit": false,
      "t": 77090.91679999985,
      "d": 530.3030833333323,
      "v": 112
    },
    {
      "midi": 69,
      "hit": false,
      "t": 77507.58350833318,
      "d": 318.1818500000081,
      "v": 112
    },
    {
      "midi": 41,
      "hit": false,
      "t": 77734.85625833318,
      "d": 575.7576333333418,
      "v": 112
    },
    {
      "midi": 69,
      "hit": false,
      "t": 77962.12900833318,
      "d": 295.45457500001066,
      "v": 112
    },
    {
      "midi": 65,
      "hit": false,
      "t": 77962.12900833318,
      "d": 2053.030508333337,
      "v": 112
    },
    {
      "midi": 46,
      "hit": false,
      "t": 78189.40175833319,
      "d": 356.06064166667056,
      "v": 112
    },
    {
      "midi": 70,
      "hit": false,
      "t": 78189.40175833319,
      "d": 378.787916666668,
      "v": 112
    },
    {
      "midi": 69,
      "hit": false,
      "t": 78416.67450833319,
      "d": 1598.4850083333295,
      "v": 112
    },
    {
      "midi": 46,
      "hit": false,
      "t": 78643.9472583332,
      "d": 590.9091499999922,
      "v": 112
    },
    {
      "midi": 36,
      "hit": false,
      "t": 79098.49275833319,
      "d": 863.6364500000054,
      "v": 112
    },
    {
      "midi": 60,
      "hit": false,
      "t": 80007.58375833319,
      "d": 7.575758333332487,
      "v": 112
    },
    {
      "midi": 45,
      "hit": false,
      "t": 80007.58375833319,
      "d": 431.81822499999544,
      "v": 112
    },
    {
      "midi": 55,
      "hit": false,
      "t": 80007.58375833319,
      "d": 1030.3031333333201,
      "v": 112
    },
    {
      "midi": 64,
      "hit": false,
      "t": 80007.58375833319,
      "d": 1045.4546499999851,
      "v": 112
    },
    {
      "midi": 45,
      "hit": false,
      "t": 80462.12925833318,
      "d": 431.81822499999544,
      "v": 112
    },
    {
      "midi": 72,
      "hit": false,
      "t": 80916.67475833317,
      "d": 295.45457500001066,
      "v": 112
    },
    {
      "midi": 45,
      "hit": false,
      "t": 80916.67475833317,
      "d": 810.6061416666635,
      "v": 112
    },
    {
      "midi": 74,
      "hit": false,
      "t": 81143.94750833318,
      "d": 280.30305833333114,
      "v": 112
    },
    {
      "midi": 76,
      "hit": false,
      "t": 81371.22025833318,
      "d": 356.060641666656,
      "v": 112
    },
    {
      "midi": 74,
      "hit": false,
      "t": 81598.49300833317,
      "d": 590.9091500000068,
      "v": 112
    },
    {
      "midi": 64,
      "hit": false,
      "t": 81598.49300833317,
      "d": 1424.2425666666823,
      "v": 112
    },
    {
      "midi": 67,
      "hit": false,
      "t": 81598.49300833317,
      "d": 1462.1213583333447,
      "v": 112
    },
    {
      "midi": 45,
      "hit": false,
      "t": 81825.76575833317,
      "d": 356.06064166667056,
      "v": 112
    },
    {
      "midi": 72,
      "hit": false,
      "t": 82053.03850833318,
      "d": 575.7576333333418,
      "v": 112
    },
    {
      "midi": 45,
      "hit": false,
      "t": 82280.31125833318,
      "d": 356.06064166667056,
      "v": 112
    },
    {
      "midi": 74,
      "hit": false,
      "t": 82507.58400833319,
      "d": 772.727350000001,
      "v": 112
    },
    {
      "midi": 45,
      "hit": false,
      "t": 82734.85675833319,
      "d": 1128.7879916666716,
      "v": 112
    },
    {
      "midi": 65,
      "hit": false,
      "t": 83189.40225833318,
      "d": 318.1818500000081,
      "v": 112
    },
    {
      "midi": 72,
      "hit": false,
      "t": 83416.67500833319,
      "d": 212.12123333333875,
      "v": 112
    },
    {
      "midi": 46,
      "hit": false,
      "t": 83643.94775833319,
      "d": 431.81822500001,
      "v": 112
    },
    {
      "midi": 62,
      "hit": false,
      "t": 83643.94775833319,
      "d": 431.81822500001,
      "v": 112
    },
    {
      "midi": 65,
      "hit": false,
      "t": 83643.94775833319,
      "d": 431.81822500001,
      "v": 112
    },
    {
      "midi": 72,
      "hit": false,
      "t": 83643.94775833319,
      "d": 431.81822500001,
      "v": 112
    },
    {
      "midi": 62,
      "hit": false,
      "t": 84098.4932583332,
      "d": 212.12123333333875,
      "v": 112
    },
    {
      "midi": 65,
      "hit": false,
      "t": 84098.4932583332,
      "d": 212.12123333333875,
      "v": 112
    },
    {
      "midi": 70,
      "hit": false,
      "t": 84098.4932583332,
      "d": 212.12123333333875,
      "v": 112
    },
    {
      "midi": 46,
      "hit": false,
      "t": 84098.4932583332,
      "d": 378.787916666668,
      "v": 112
    },
    {
      "midi": 65,
      "hit": false,
      "t": 84325.7660083332,
      "d": 515.1515666666673,
      "v": 112
    },
    {
      "midi": 62,
      "hit": false,
      "t": 84325.7660083332,
      "d": 530.3030833333323,
      "v": 112
    },
    {
      "midi": 70,
      "hit": false,
      "t": 84325.7660083332,
      "d": 613.6364250000042,
      "v": 112
    },
    {
      "midi": 46,
      "hit": false,
      "t": 84553.0387583332,
      "d": 810.606141666678,
      "v": 112
    },
    {
      "midi": 69,
      "hit": false,
      "t": 84780.31150833321,
      "d": 295.45457500001066,
      "v": 112
    },
    {
      "midi": 58,
      "hit": false,
      "t": 85007.58425833321,
      "d": 2310.606291666656,
      "v": 112
    },
    {
      "midi": 65,
      "hit": false,
      "t": 85007.58425833321,
      "d": 2393.939633333328,
      "v": 112
    },
    {
      "midi": 62,
      "hit": false,
      "t": 85007.58425833321,
      "d": 2409.091149999993,
      "v": 112
    },
    {
      "midi": 46,
      "hit": false,
      "t": 85462.12975833322,
      "d": 431.81822499999544,
      "v": 112
    },
    {
      "midi": 46,
      "hit": false,
      "t": 85916.67525833321,
      "d": 575.7576333333272,
      "v": 112
    },
    {
      "midi": 36,
      "hit": false,
      "t": 86371.2207583332,
      "d": 1045.4546499999997,
      "v": 112
    },
    {
      "midi": 45,
      "hit": false,
      "t": 87280.3117583332,
      "d": 431.81822499999544,
      "v": 112
    },
    {
      "midi": 64,
      "hit": false,
      "t": 87280.3117583332,
      "d": 1030.3031333333201,
      "v": 112
    },
    {
      "midi": 60,
      "hit": false,
      "t": 87280.3117583332,
      "d": 1068.1819249999826,
      "v": 112
    },
    {
      "midi": 55,
      "hit": false,
      "t": 87280.3117583332,
      "d": 1106.060716666645,
      "v": 112
    },
    {
      "midi": 45,
      "hit": false,
      "t": 87734.8572583332,
      "d": 431.81822499999544,
      "v": 112
    },
    {
      "midi": 72,
      "hit": false,
      "t": 88189.40275833319,
      "d": 212.1212333333242,
      "v": 112
    },
    {
      "midi": 45,
      "hit": false,
      "t": 88189.40275833319,
      "d": 787.878866666666,
      "v": 112
    },
    {
      "midi": 74,
      "hit": false,
      "t": 88416.67550833318,
      "d": 212.12123333333875,
      "v": 112
    },
    {
      "midi": 76,
      "hit": false,
      "t": 88643.94825833318,
      "d": 318.1818500000081,
      "v": 112
    },
    {
      "midi": 74,
      "hit": false,
      "t": 88871.22100833319,
      "d": 590.9091500000068,
      "v": 112
    },
    {
      "midi": 67,
      "hit": false,
      "t": 88871.22100833319,
      "d": 1401.5152916666702,
      "v": 112
    },
    {
      "midi": 64,
      "hit": false,
      "t": 88871.22100833319,
      "d": 1484.8486333333421,
      "v": 112
    },
    {
      "midi": 45,
      "hit": false,
      "t": 89098.49375833319,
      "d": 378.787916666668,
      "v": 112
    },
    {
      "midi": 72,
      "hit": false,
      "t": 89325.7665083332,
      "d": 515.1515666666673,
      "v": 112
    },
    {
      "midi": 45,
      "hit": false,
      "t": 89553.0392583332,
      "d": 333.33336666665855,
      "v": 112
    },
    {
      "midi": 74,
      "hit": false,
      "t": 89780.3120083332,
      "d": 833.3334166666609,
      "v": 112
    },
    {
      "midi": 45,
      "hit": false,
      "t": 90007.58475833319,
      "d": 1030.3031333333493,
      "v": 112
    },
    {
      "midi": 69,
      "hit": false,
      "t": 90462.1302583332,
      "d": 318.1818500000081,
      "v": 112
    },
    {
      "midi": 72,
      "hit": false,
      "t": 90689.4030083332,
      "d": 212.12123333333875,
      "v": 112
    },
    {
      "midi": 38,
      "hit": false,
      "t": 90916.67575833321,
      "d": 431.81822499999544,
      "v": 112
    },
    {
      "midi": 65,
      "hit": false,
      "t": 90916.67575833321,
      "d": 431.81822499999544,
      "v": 112
    },
    {
      "midi": 69,
      "hit": false,
      "t": 90916.67575833321,
      "d": 431.81822499999544,
      "v": 112
    },
    {
      "midi": 72,
      "hit": false,
      "t": 90916.67575833321,
      "d": 431.81822499999544,
      "v": 112
    },
    {
      "midi": 65,
      "hit": false,
      "t": 91371.2212583332,
      "d": 212.12123333333875,
      "v": 112
    },
    {
      "midi": 69,
      "hit": false,
      "t": 91371.2212583332,
      "d": 212.12123333333875,
      "v": 112
    },
    {
      "midi": 72,
      "hit": false,
      "t": 91371.2212583332,
      "d": 318.1818500000081,
      "v": 112
    },
    {
      "midi": 38,
      "hit": false,
      "t": 91371.2212583332,
      "d": 378.787916666668,
      "v": 112
    },
    {
      "midi": 69,
      "hit": false,
      "t": 91598.4940083332,
      "d": 378.787916666668,
      "v": 112
    },
    {
      "midi": 65,
      "hit": false,
      "t": 91598.4940083332,
      "d": 393.939433333333,
      "v": 112
    },
    {
      "midi": 74,
      "hit": false,
      "t": 91598.4940083332,
      "d": 575.7576333333272,
      "v": 112
    },
    {
      "midi": 38,
      "hit": false,
      "t": 91825.76675833321,
      "d": 1030.3031333333201,
      "v": 112
    },
    {
      "midi": 69,
      "hit": false,
      "t": 92053.0395083332,
      "d": 431.81822499999544,
      "v": 112
    },
    {
      "midi": 65,
      "hit": false,
      "t": 92053.0395083332,
      "d": 492.42429166665534,
      "v": 112
    },
    {
      "midi": 60,
      "hit": false,
      "t": 92053.0395083332,
      "d": 575.7576333333272,
      "v": 112
    },
    {
      "midi": 69,
      "hit": false,
      "t": 92507.58500833319,
      "d": 378.787916666668,
      "v": 112
    },
    {
      "midi": 62,
      "hit": false,
      "t": 92507.58500833319,
      "d": 1462.1213583333447,
      "v": 112
    },
    {
      "midi": 59,
      "hit": false,
      "t": 92507.58500833319,
      "d": 1537.878941666684,
      "v": 112
    },
    {
      "midi": 43,
      "hit": false,
      "t": 92734.8577583332,
      "d": 333.3333666666731,
      "v": 112
    },
    {
      "midi": 67,
      "hit": false,
      "t": 92734.8577583332,
      "d": 378.787916666668,
      "v": 112
    },
    {
      "midi": 65,
      "hit": false,
      "t": 92962.1305083332,
      "d": 1204.545575000011,
      "v": 112
    },
    {
      "midi": 43,
      "hit": false,
      "t": 93189.4032583332,
      "d": 431.81822499999544,
      "v": 112
    },
    {
      "midi": 43,
      "hit": false,
      "t": 93643.9487583332,
      "d": 787.8788666666806,
      "v": 112
    },
    {
      "midi": 62,
      "hit": false,
      "t": 94098.4942583332,
      "d": 295.45457500001066,
      "v": 112
    },
    {
      "midi": 65,
      "hit": false,
      "t": 94325.7670083332,
      "d": 212.12123333333875,
      "v": 112
    },
    {
      "midi": 43,
      "hit": false,
      "t": 94553.03975833321,
      "d": 431.81822499999544,
      "v": 112
    },
    {
      "midi": 62,
      "hit": false,
      "t": 94553.03975833321,
      "d": 431.81822499999544,
      "v": 112
    },
    {
      "midi": 65,
      "hit": false,
      "t": 94553.03975833321,
      "d": 431.81822499999544,
      "v": 112
    },
    {
      "midi": 70,
      "hit": false,
      "t": 94553.03975833321,
      "d": 431.81822499999544,
      "v": 112
    },
    {
      "midi": 62,
      "hit": false,
      "t": 95007.5852583332,
      "d": 212.12123333333875,
      "v": 112
    },
    {
      "midi": 65,
      "hit": false,
      "t": 95007.5852583332,
      "d": 212.12123333333875,
      "v": 112
    },
    {
      "midi": 69,
      "hit": false,
      "t": 95007.5852583332,
      "d": 295.45457500001066,
      "v": 112
    },
    {
      "midi": 43,
      "hit": false,
      "t": 95007.5852583332,
      "d": 378.7879166666826,
      "v": 112
    },
    {
      "midi": 62,
      "hit": false,
      "t": 95234.8580083332,
      "d": 530.3030833333614,
      "v": 112
    },
    {
      "midi": 65,
      "hit": false,
      "t": 95234.8580083332,
      "d": 530.3030833333614,
      "v": 112
    },
    {
      "midi": 70,
      "hit": false,
      "t": 95234.8580083332,
      "d": 613.6364250000333,
      "v": 112
    },
    {
      "midi": 43,
      "hit": false,
      "t": 95462.13075833322,
      "d": 810.6061416666926,
      "v": 112
    },
    {
      "midi": 69,
      "hit": false,
      "t": 95689.40350833323,
      "d": 333.33336666668765,
      "v": 112
    },
    {
      "midi": 58,
      "hit": false,
      "t": 95916.67625833325,
      "d": 2196.969916666654,
      "v": 112
    },
    {
      "midi": 62,
      "hit": false,
      "t": 95916.67625833325,
      "d": 2196.969916666654,
      "v": 112
    },
    {
      "midi": 67,
      "hit": false,
      "t": 95916.67625833325,
      "d": 2431.8184249999904,
      "v": 112
    },
    {
      "midi": 43,
      "hit": false,
      "t": 96371.22175833325,
      "d": 431.81822499999544,
      "v": 112
    },
    {
      "midi": 43,
      "hit": false,
      "t": 96825.76725833325,
      "d": 431.81822499999544,
      "v": 112
    },
    {
      "midi": 43,
      "hit": false,
      "t": 97280.31275833324,
      "d": 1068.1819249999971,
      "v": 112
    },
    {
      "midi": 46,
      "hit": false,
      "t": 98189.40375833324,
      "d": 431.81822499999544,
      "v": 112
    },
    {
      "midi": 62,
      "hit": false,
      "t": 98189.40375833324,
      "d": 1204.545574999982,
      "v": 112
    },
    {
      "midi": 58,
      "hit": false,
      "t": 98189.40375833324,
      "d": 1242.4243666666443,
      "v": 112
    },
    {
      "midi": 65,
      "hit": false,
      "t": 98189.40375833324,
      "d": 1242.4243666666443,
      "v": 112
    },
    {
      "midi": 46,
      "hit": false,
      "t": 98643.94925833323,
      "d": 431.81822499999544,
      "v": 112
    },
    {
      "midi": 46,
      "hit": false,
      "t": 99098.49475833323,
      "d": 810.6061416666635,
      "v": 112
    },
    {
      "midi": 62,
      "hit": false,
      "t": 99553.04025833322,
      "d": 295.45457500001066,
      "v": 112
    },
    {
      "midi": 65,
      "hit": false,
      "t": 99780.31300833322,
      "d": 212.12123333333875,
      "v": 112
    },
    {
      "midi": 46,
      "hit": false,
      "t": 100007.58575833323,
      "d": 431.81822499999544,
      "v": 112
    },
    {
      "midi": 62,
      "hit": false,
      "t": 100007.58575833323,
      "d": 431.81822499999544,
      "v": 112
    },
    {
      "midi": 65,
      "hit": false,
      "t": 100007.58575833323,
      "d": 553.0303583333298,
      "v": 112
    },
    {
      "midi": 70,
      "hit": false,
      "t": 100007.58575833323,
      "d": 628.7879416666692,
      "v": 112
    },
    {
      "midi": 58,
      "hit": false,
      "t": 100462.13125833322,
      "d": 431.81822500001,
      "v": 112
    },
    {
      "midi": 62,
      "hit": false,
      "t": 100462.13125833322,
      "d": 431.81822500001,
      "v": 112
    },
    {
      "midi": 46,
      "hit": false,
      "t": 100462.13125833322,
      "d": 575.7576333333418,
      "v": 112
    },
    {
      "midi": 69,
      "hit": false,
      "t": 100462.13125833322,
      "d": 575.7576333333418,
      "v": 112
    },
    {
      "midi": 65,
      "hit": false,
      "t": 100916.67675833323,
      "d": 431.81822499999544,
      "v": 112
    },
    {
      "midi": 62,
      "hit": false,
      "t": 100916.67675833323,
      "d": 515.1515666666528,
      "v": 112
    },
    {
      "midi": 58,
      "hit": false,
      "t": 100916.67675833323,
      "d": 530.3030833333178,
      "v": 112
    },
    {
      "midi": 36,
      "hit": false,
      "t": 100916.67675833323,
      "d": 1007.5758583333081,
      "v": 112
    },
    {
      "midi": 65,
      "hit": false,
      "t": 101371.22225833322,
      "d": 212.1212333333242,
      "v": 112
    },
    {
      "midi": 65,
      "hit": false,
      "t": 101598.49500833321,
      "d": 2886.3639249999687,
      "v": 112
    },
    {
      "midi": 58,
      "hit": false,
      "t": 101787.88896666653,
      "d": 810.6061416666635,
      "v": 112
    },
    {
      "midi": 41,
      "hit": false,
      "t": 101825.7677583332,
      "d": 431.81822500001,
      "v": 112
    },
    {
      "midi": 60,
      "hit": false,
      "t": 101825.7677583332,
      "d": 810.6061416666635,
      "v": 112
    },
    {
      "midi": 41,
      "hit": false,
      "t": 102280.3132583332,
      "d": 393.93943333331845,
      "v": 112
    },
    {
      "midi": 58,
      "hit": false,
      "t": 102696.97996666652,
      "d": 833.3334166666609,
      "v": 112
    },
    {
      "midi": 41,
      "hit": false,
      "t": 102734.85875833318,
      "d": 431.81822499999544,
      "v": 112
    },
    {
      "midi": 60,
      "hit": false,
      "t": 102734.85875833318,
      "d": 787.878866666666,
      "v": 112
    },
    {
      "midi": 41,
      "hit": false,
      "t": 103189.40425833318,
      "d": 431.81822500001,
      "v": 112
    },
    {
      "midi": 58,
      "hit": false,
      "t": 103606.07096666652,
      "d": 848.4849333333259,
      "v": 112
    },
    {
      "midi": 41,
      "hit": false,
      "t": 103643.94975833318,
      "d": 431.81822499999544,
      "v": 112
    },
    {
      "midi": 60,
      "hit": false,
      "t": 103643.94975833318,
      "d": 833.3334166666609,
      "v": 112
    },
    {
      "midi": 41,
      "hit": false,
      "t": 104098.49525833318,
      "d": 356.06064166667056,
      "v": 112
    },
    {
      "midi": 69,
      "hit": false,
      "t": 104325.76800833318,
      "d": 333.3333666666731,
      "v": 112
    },
    {
      "midi": 77,
      "hit": false,
      "t": 104553.04075833318,
      "d": 280.30305833333114,
      "v": 112
    },
    {
      "midi": 72,
      "hit": false,
      "t": 104553.04075833318,
      "d": 318.1818499999936,
      "v": 112
    },
    {
      "midi": 81,
      "hit": false,
      "t": 104553.04075833318,
      "d": 318.1818499999936,
      "v": 112
    },
    {
      "midi": 41,
      "hit": false,
      "t": 104553.04075833318,
      "d": 333.33336666665855,
      "v": 112
    },
    {
      "midi": 79,
      "hit": false,
      "t": 104780.31350833319,
      "d": 318.1818499999936,
      "v": 112
    },
    {
      "midi": 77,
      "hit": false,
      "t": 105007.58625833318,
      "d": 318.1818500000081,
      "v": 112
    },
    {
      "midi": 41,
      "hit": false,
      "t": 105007.58625833318,
      "d": 628.7879416666692,
      "v": 112
    },
    {
      "midi": 76,
      "hit": false,
      "t": 105234.85900833318,
      "d": 356.06064166667056,
      "v": 112
    },
    {
      "midi": 74,
      "hit": false,
      "t": 105462.13175833318,
      "d": 318.1818499999936,
      "v": 112
    },
    {
      "midi": 46,
      "hit": false,
      "t": 105462.13175833318,
      "d": 356.060641666656,
      "v": 112
    },
    {
      "midi": 65,
      "hit": false,
      "t": 105462.13175833318,
      "d": 1227.2728500000085,
      "v": 112
    },
    {
      "midi": 70,
      "hit": false,
      "t": 105462.13175833318,
      "d": 1227.2728500000085,
      "v": 112
    },
    {
      "midi": 72,
      "hit": false,
      "t": 105689.40450833317,
      "d": 212.12123333333875,
      "v": 112
    },
    {
      "midi": 72,
      "hit": false,
      "t": 105916.67725833318,
      "d": 212.12123333333875,
      "v": 112
    },
    {
      "midi": 46,
      "hit": false,
      "t": 105916.67725833318,
      "d": 787.8788666666806,
      "v": 112
    },
    {
      "midi": 72,
      "hit": false,
      "t": 106143.95000833318,
      "d": 212.12123333333875,
      "v": 112
    },
    {
      "midi": 72,
      "hit": false,
      "t": 106371.22275833318,
      "d": 212.12123333333875,
      "v": 112
    },
    {
      "midi": 72,
      "hit": false,
      "t": 106598.49550833319,
      "d": 212.12123333333875,
      "v": 112
    },
    {
      "midi": 46,
      "hit": false,
      "t": 106825.76825833319,
      "d": 431.81822499999544,
      "v": 112
    },
    {
      "midi": 72,
      "hit": false,
      "t": 106825.76825833319,
      "d": 772.727350000001,
      "v": 112
    },
    {
      "midi": 70,
      "hit": false,
      "t": 106863.64704999985,
      "d": 2234.8487083333457,
      "v": 112
    },
    {
      "midi": 46,
      "hit": false,
      "t": 107280.31375833318,
      "d": 378.787916666668,
      "v": 112
    },
    {
      "midi": 65,
      "hit": false,
      "t": 107507.58650833319,
      "d": 212.1212333333242,
      "v": 112
    },
    {
      "midi": 46,
      "hit": false,
      "t": 107734.85925833318,
      "d": 810.606141666678,
      "v": 112
    },
    {
      "midi": 72,
      "hit": false,
      "t": 107962.13200833318,
      "d": 212.12123333333875,
      "v": 112
    },
    {
      "midi": 72,
      "hit": false,
      "t": 108189.40475833318,
      "d": 212.12123333333875,
      "v": 112
    },
    {
      "midi": 72,
      "hit": false,
      "t": 108416.67750833319,
      "d": 212.12123333333875,
      "v": 112
    },
    {
      "midi": 72,
      "hit": false,
      "t": 108643.95025833319,
      "d": 295.45457500001066,
      "v": 112
    },
    {
      "midi": 46,
      "hit": false,
      "t": 108643.95025833319,
      "d": 431.81822500001,
      "v": 112
    },
    {
      "midi": 77,
      "hit": false,
      "t": 108871.2230083332,
      "d": 212.12123333333875,
      "v": 112
    },
    {
      "midi": 41,
      "hit": false,
      "t": 109098.4957583332,
      "d": 431.81822499999544,
      "v": 112
    },
    {
      "midi": 69,
      "hit": false,
      "t": 109098.4957583332,
      "d": 431.81822499999544,
      "v": 112
    },
    {
      "midi": 72,
      "hit": false,
      "t": 109098.4957583332,
      "d": 431.81822499999544,
      "v": 112
    },
    {
      "midi": 79,
      "hit": false,
      "t": 109098.4957583332,
      "d": 431.81822499999544,
      "v": 112
    },
    {
      "midi": 69,
      "hit": false,
      "t": 109553.04125833319,
      "d": 212.12123333333875,
      "v": 112
    },
    {
      "midi": 72,
      "hit": false,
      "t": 109553.04125833319,
      "d": 212.12123333333875,
      "v": 112
    },
    {
      "midi": 79,
      "hit": false,
      "t": 109553.04125833319,
      "d": 212.12123333333875,
      "v": 112
    },
    {
      "midi": 41,
      "hit": false,
      "t": 109553.04125833319,
      "d": 787.8788666666806,
      "v": 112
    },
    {
      "midi": 69,
      "hit": false,
      "t": 109780.3140083332,
      "d": 212.12123333333875,
      "v": 112
    },
    {
      "midi": 72,
      "hit": false,
      "t": 109780.3140083332,
      "d": 212.12123333333875,
      "v": 112
    },
    {
      "midi": 79,
      "hit": false,
      "t": 109780.3140083332,
      "d": 212.12123333333875,
      "v": 112
    },
    {
      "midi": 72,
      "hit": false,
      "t": 110007.5867583332,
      "d": 295.45457500001066,
      "v": 112
    },
    {
      "midi": 79,
      "hit": false,
      "t": 110007.5867583332,
      "d": 318.1818500000081,
      "v": 112
    },
    {
      "midi": 69,
      "hit": false,
      "t": 110007.5867583332,
      "d": 333.3333666666731,
      "v": 112
    },
    {
      "midi": 77,
      "hit": false,
      "t": 110234.8595083332,
      "d": 212.12123333333875,
      "v": 112
    },
    {
      "midi": 41,
      "hit": false,
      "t": 110462.13225833321,
      "d": 431.81822499999544,
      "v": 112
    },
    {
      "midi": 77,
      "hit": false,
      "t": 110462.13225833321,
      "d": 1696.9698666666518,
      "v": 112
    },
    {
      "midi": 81,
      "hit": false,
      "t": 110462.13225833321,
      "d": 1878.788066666646,
      "v": 112
    },
    {
      "midi": 72,
      "hit": false,
      "t": 110462.13225833321,
      "d": 1916.6668583333085,
      "v": 112
    },
    {
      "midi": 41,
      "hit": false,
      "t": 110916.6777583332,
      "d": 431.81822499999544,
      "v": 112
    },
    {
      "midi": 41,
      "hit": false,
      "t": 111371.2232583332,
      "d": 431.81822499999544,
      "v": 112
    },
    {
      "midi": 41,
      "hit": false,
      "t": 111825.76875833319,
      "d": 431.81822500001,
      "v": 112
    },
    {
      "midi": 41,
      "hit": false,
      "t": 112280.3142583332,
      "d": 212.1212333333242,
      "v": 112
    },
    {
      "midi": 77,
      "hit": false,
      "t": 112280.3142583332,
      "d": 333.33336666665855,
      "v": 112
    },
    {
      "midi": 81,
      "hit": false,
      "t": 112507.58700833318,
      "d": 212.12123333333875,
      "v": 112
    },
    {
      "midi": 39,
      "hit": false,
      "t": 112734.85975833319,
      "d": 431.81822499999544,
      "v": 112
    },
    {
      "midi": 75,
      "hit": false,
      "t": 112734.85975833319,
      "d": 431.81822499999544,
      "v": 112
    },
    {
      "midi": 79,
      "hit": false,
      "t": 112734.85975833319,
      "d": 431.81822499999544,
      "v": 112
    },
    {
      "midi": 82,
      "hit": false,
      "t": 112734.85975833319,
      "d": 431.81822499999544,
      "v": 112
    },
    {
      "midi": 82,
      "hit": false,
      "t": 113189.40525833318,
      "d": 295.45457500001066,
      "v": 112
    },
    {
      "midi": 39,
      "hit": false,
      "t": 113189.40525833318,
      "d": 772.7273500000156,
      "v": 112
    },
    {
      "midi": 70,
      "hit": false,
      "t": 113416.67800833318,
      "d": 431.81822500001,
      "v": 112
    },
    {
      "midi": 81,
      "hit": false,
      "t": 113416.67800833318,
      "d": 553.0303583333443,
      "v": 112
    },
    {
      "midi": 75,
      "hit": false,
      "t": 113833.34471666653,
      "d": 15.151516666664975,
      "v": 112
    },
    {
      "midi": 77,
      "hit": false,
      "t": 113871.22350833319,
      "d": 515.1515666666673,
      "v": 112
    },
    {
      "midi": 70,
      "hit": false,
      "t": 113871.22350833319,
      "d": 575.7576333333272,
      "v": 112
    },
    {
      "midi": 39,
      "hit": false,
      "t": 114098.4962583332,
      "d": 212.12123333333875,
      "v": 112
    },
    {
      "midi": 72,
      "hit": false,
      "t": 114325.7690083332,
      "d": 212.1212333333242,
      "v": 112
    },
    {
      "midi": 39,
      "hit": false,
      "t": 114553.04175833319,
      "d": 431.81822499999544,
      "v": 112
    },
    {
      "midi": 67,
      "hit": false,
      "t": 114553.04175833319,
      "d": 1242.424366666659,
      "v": 112
    },
    {
      "midi": 70,
      "hit": false,
      "t": 114553.04175833319,
      "d": 1287.8789166666538,
      "v": 112
    },
    {
      "midi": 72,
      "hit": false,
      "t": 114590.92054999985,
      "d": 1007.5758583333372,
      "v": 112
    },
    {
      "midi": 39,
      "hit": false,
      "t": 115007.58725833318,
      "d": 651.5152166666667,
      "v": 112
    },
    {
      "midi": 72,
      "hit": false,
      "t": 115689.40550833318,
      "d": 333.3333666666731,
      "v": 112
    },
    {
      "midi": 79,
      "hit": false,
      "t": 115916.67825833318,
      "d": 318.1818500000081,
      "v": 112
    },
    {
      "midi": 39,
      "hit": false,
      "t": 115916.67825833318,
      "d": 590.9091500000068,
      "v": 112
    },
    {
      "midi": 81,
      "hit": false,
      "t": 116143.95100833318,
      "d": 212.12123333333875,
      "v": 112
    },
    {
      "midi": 38,
      "hit": false,
      "t": 116371.22375833319,
      "d": 431.81822499999544,
      "v": 112
    },
    {
      "midi": 82,
      "hit": false,
      "t": 116371.22375833319,
      "d": 431.81822499999544,
      "v": 112
    },
    {
      "midi": 70,
      "hit": false,
      "t": 116371.22375833319,
      "d": 492.42429166665534,
      "v": 112
    },
    {
      "midi": 77,
      "hit": false,
      "t": 116371.22375833319,
      "d": 492.42429166665534,
      "v": 112
    },
    {
      "midi": 81,
      "hit": false,
      "t": 116825.76925833318,
      "d": 280.3030583333166,
      "v": 112
    },
    {
      "midi": 38,
      "hit": false,
      "t": 116825.76925833318,
      "d": 810.6061416666489,
      "v": 112
    },
    {
      "midi": 70,
      "hit": false,
      "t": 117053.04200833317,
      "d": 431.81822499999544,
      "v": 112
    },
    {
      "midi": 77,
      "hit": false,
      "t": 117053.04200833317,
      "d": 431.81822499999544,
      "v": 112
    },
    {
      "midi": 82,
      "hit": false,
      "t": 117053.04200833317,
      "d": 590.9091499999922,
      "v": 112
    },
    {
      "midi": 77,
      "hit": false,
      "t": 117507.58750833316,
      "d": 295.45457500001066,
      "v": 112
    },
    {
      "midi": 70,
      "hit": false,
      "t": 117507.58750833316,
      "d": 318.1818500000081,
      "v": 112
    },
    {
      "midi": 38,
      "hit": false,
      "t": 117734.86025833317,
      "d": 378.787916666668,
      "v": 112
    },
    {
      "midi": 77,
      "hit": false,
      "t": 117924.25421666651,
      "d": 1287.8789166666684,
      "v": 112
    },
    {
      "midi": 79,
      "hit": false,
      "t": 117962.13300833317,
      "d": 674.2424916666787,
      "v": 112
    },
    {
      "midi": 70,
      "hit": false,
      "t": 117962.13300833317,
      "d": 1522.7274250000046,
      "v": 112
    },
    {
      "midi": 38,
      "hit": false,
      "t": 118189.40575833317,
      "d": 356.06064166667056,
      "v": 112
    },
    {
      "midi": 81,
      "hit": false,
      "t": 118416.67850833318,
      "d": 1030.3031333333347,
      "v": 112
    },
    {
      "midi": 38,
      "hit": false,
      "t": 118643.95125833318,
      "d": 431.81822499999544,
      "v": 112
    },
    {
      "midi": 38,
      "hit": false,
      "t": 119098.49675833317,
      "d": 356.06064166667056,
      "v": 112
    },
    {
      "midi": 67,
      "hit": false,
      "t": 119325.76950833318,
      "d": 492.4242916666699,
      "v": 112
    },
    {
      "midi": 72,
      "hit": false,
      "t": 119325.76950833318,
      "d": 492.4242916666699,
      "v": 112
    },
    {
      "midi": 77,
      "hit": false,
      "t": 119325.76950833318,
      "d": 492.4242916666699,
      "v": 112
    },
    {
      "midi": 36,
      "hit": false,
      "t": 119325.76950833318,
      "d": 530.3030833333323,
      "v": 112
    },
    {
      "midi": 70,
      "hit": false,
      "t": 119969.70896666651,
      "d": 431.81822499999544,
      "v": 112
    },
    {
      "midi": 46,
      "hit": false,
      "t": 120007.58775833317,
      "d": 431.81822499999544,
      "v": 112
    },
    {
      "midi": 72,
      "hit": false,
      "t": 120007.58775833317,
      "d": 431.81822499999544,
      "v": 112
    },
    {
      "midi": 77,
      "hit": false,
      "t": 120007.58775833317,
      "d": 431.81822499999544,
      "v": 112
    },
    {
      "midi": 70,
      "hit": false,
      "t": 120424.2544666665,
      "d": 409.090949999998,
      "v": 112
    },
    {
      "midi": 72,
      "hit": false,
      "t": 120462.13325833317,
      "d": 431.81822499999544,
      "v": 112
    },
    {
      "midi": 77,
      "hit": false,
      "t": 120462.13325833317,
      "d": 431.81822499999544,
      "v": 112
    },
    {
      "midi": 46,
      "hit": false,
      "t": 120462.13325833317,
      "d": 787.8788666666514,
      "v": 112
    },
    {
      "midi": 70,
      "hit": false,
      "t": 120878.7999666665,
      "d": 189.39395833332674,
      "v": 112
    },
    {
      "midi": 72,
      "hit": false,
      "t": 120916.67875833316,
      "d": 212.1212333333242,
      "v": 112
    },
    {
      "midi": 77,
      "hit": false,
      "t": 120916.67875833316,
      "d": 212.1212333333242,
      "v": 112
    },
    {
      "midi": 70,
      "hit": false,
      "t": 121106.07271666649,
      "d": 189.39395833332674,
      "v": 112
    },
    {
      "midi": 72,
      "hit": false,
      "t": 121143.95150833315,
      "d": 212.1212333333242,
      "v": 112
    },
    {
      "midi": 77,
      "hit": false,
      "t": 121143.95150833315,
      "d": 212.1212333333242,
      "v": 112
    },
    {
      "midi": 70,
      "hit": false,
      "t": 121333.34546666648,
      "d": 431.81822499999544,
      "v": 112
    },
    {
      "midi": 46,
      "hit": false,
      "t": 121371.22425833314,
      "d": 431.81822499999544,
      "v": 112
    },
    {
      "midi": 77,
      "hit": false,
      "t": 121371.22425833314,
      "d": 590.9091499999922,
      "v": 112
    },
    {
      "midi": 72,
      "hit": false,
      "t": 121371.22425833314,
      "d": 628.7879416666547,
      "v": 112
    },
    {
      "midi": 46,
      "hit": false,
      "t": 121825.76975833313,
      "d": 431.81822499999544,
      "v": 112
    },
    {
      "midi": 70,
      "hit": false,
      "t": 121825.76975833313,
      "d": 1227.272849999994,
      "v": 112
    },
    {
      "midi": 74,
      "hit": false,
      "t": 121825.76975833313,
      "d": 1227.272849999994,
      "v": 112
    },
    {
      "midi": 65,
      "hit": false,
      "t": 121825.76975833313,
      "d": 1287.8789166666538,
      "v": 112
    },
    {
      "midi": 46,
      "hit": false,
      "t": 122280.31525833312,
      "d": 863.6364499999909,
      "v": 112
    },
    {
      "midi": 72,
      "hit": false,
      "t": 123189.40625833311,
      "d": 295.45457500001066,
      "v": 112
    },
    {
      "midi": 46,
      "hit": false,
      "t": 123189.40625833311,
      "d": 454.54550000000745,
      "v": 112
    },
    {
      "midi": 77,
      "hit": false,
      "t": 123416.67900833311,
      "d": 212.12123333333875,
      "v": 112
    },
    {
      "midi": 41,
      "hit": false,
      "t": 123643.95175833312,
      "d": 431.81822499999544,
      "v": 112
    },
    {
      "midi": 69,
      "hit": false,
      "t": 123643.95175833312,
      "d": 431.81822499999544,
      "v": 112
    },
    {
      "midi": 72,
      "hit": false,
      "t": 123643.95175833312,
      "d": 431.81822499999544,
      "v": 112
    },
    {
      "midi": 79,
      "hit": false,
      "t": 123643.95175833312,
      "d": 431.81822499999544,
      "v": 112
    },
    {
      "midi": 69,
      "hit": false,
      "t": 124098.49725833311,
      "d": 431.81822499999544,
      "v": 112
    },
    {
      "midi": 72,
      "hit": false,
      "t": 124098.49725833311,
      "d": 431.81822499999544,
      "v": 112
    },
    {
      "midi": 79,
      "hit": false,
      "t": 124098.49725833311,
      "d": 431.81822499999544,
      "v": 112
    },
    {
      "midi": 41,
      "hit": false,
      "t": 124098.49725833311,
      "d": 810.6061416666635,
      "v": 112
    },
    {
      "midi": 69,
      "hit": false,
      "t": 124553.0427583331,
      "d": 295.45457500001066,
      "v": 112
    },
    {
      "midi": 72,
      "hit": false,
      "t": 124553.0427583331,
      "d": 318.1818500000081,
      "v": 112
    },
    {
      "midi": 79,
      "hit": false,
      "t": 124553.0427583331,
      "d": 318.1818500000081,
      "v": 112
    },
    {
      "midi": 77,
      "hit": false,
      "t": 124780.31550833311,
      "d": 212.12123333333875,
      "v": 112
    },
    {
      "midi": 41,
      "hit": false,
      "t": 125007.58825833311,
      "d": 431.81822499999544,
      "v": 112
    },
    {
      "midi": 72,
      "hit": false,
      "t": 125007.58825833311,
      "d": 1636.363799999992,
      "v": 112
    },
    {
      "midi": 77,
      "hit": false,
      "t": 125007.58825833311,
      "d": 1659.0910749999894,
      "v": 112
    },
    {
      "midi": 81,
      "hit": false,
      "t": 125007.58825833311,
      "d": 1681.8183499999868,
      "v": 112
    },
    {
      "midi": 41,
      "hit": false,
      "t": 125462.1337583331,
      "d": 431.81822499999544,
      "v": 112
    },
    {
      "midi": 41,
      "hit": false,
      "t": 125916.6792583331,
      "d": 863.6364500000054,
      "v": 112
    },
    {
      "midi": 69,
      "hit": false,
      "t": 126825.7702583331,
      "d": 431.81822499999544,
      "v": 112
    },
    {
      "midi": 72,
      "hit": false,
      "t": 126825.7702583331,
      "d": 431.81822499999544,
      "v": 112
    },
    {
      "midi": 77,
      "hit": false,
      "t": 126825.7702583331,
      "d": 431.81822499999544,
      "v": 112
    },
    {
      "midi": 41,
      "hit": false,
      "t": 126825.7702583331,
      "d": 575.7576333333272,
      "v": 112
    },
    {
      "midi": 44,
      "hit": false,
      "t": 127280.31575833309,
      "d": 431.81822499999544,
      "v": 112
    },
    {
      "midi": 68,
      "hit": false,
      "t": 127280.31575833309,
      "d": 553.0303583333298,
      "v": 112
    },
    {
      "midi": 72,
      "hit": false,
      "t": 127280.31575833309,
      "d": 553.0303583333298,
      "v": 112
    },
    {
      "midi": 77,
      "hit": false,
      "t": 127280.31575833309,
      "d": 575.7576333333272,
      "v": 112
    },
    {
      "midi": 44,
      "hit": false,
      "t": 127734.86125833308,
      "d": 787.878866666666,
      "v": 112
    },
    {
      "midi": 68,
      "hit": false,
      "t": 127962.13400833309,
      "d": 431.81822499999544,
      "v": 112
    },
    {
      "midi": 72,
      "hit": false,
      "t": 127962.13400833309,
      "d": 431.81822499999544,
      "v": 112
    },
    {
      "midi": 77,
      "hit": false,
      "t": 127962.13400833309,
      "d": 613.6364249999897,
      "v": 112
    },
    {
      "midi": 68,
      "hit": false,
      "t": 128416.67950833308,
      "d": 492.4242916666699,
      "v": 112
    },
    {
      "midi": 65,
      "hit": false,
      "t": 128416.67950833308,
      "d": 515.1515666666673,
      "v": 112
    },
    {
      "midi": 72,
      "hit": false,
      "t": 128416.67950833308,
      "d": 515.1515666666673,
      "v": 112
    },
    {
      "midi": 44,
      "hit": false,
      "t": 128643.95225833308,
      "d": 333.33336666665855,
      "v": 112
    },
    {
      "midi": 43,
      "hit": false,
      "t": 128871.22500833309,
      "d": 212.1212333333242,
      "v": 112
    },
    {
      "midi": 41,
      "hit": false,
      "t": 129098.49775833308,
      "d": 431.81822499999544,
      "v": 112
    },
    {
      "midi": 68,
      "hit": false,
      "t": 129098.49775833308,
      "d": 787.878866666666,
      "v": 112
    },
    {
      "midi": 65,
      "hit": false,
      "t": 129098.49775833308,
      "d": 810.6061416666635,
      "v": 112
    },
    {
      "midi": 72,
      "hit": false,
      "t": 129098.49775833308,
      "d": 1030.3031333333347,
      "v": 112
    },
    {
      "midi": 41,
      "hit": false,
      "t": 129553.04325833307,
      "d": 575.7576333333418,
      "v": 112
    },
    {
      "midi": 65,
      "hit": false,
      "t": 130007.58875833308,
      "d": 750.0000750000036,
      "v": 112
    },
    {
      "midi": 68,
      "hit": false,
      "t": 130007.58875833308,
      "d": 863.6364500000054,
      "v": 112
    },
    {
      "midi": 44,
      "hit": false,
      "t": 130007.58875833308,
      "d": 1030.3031333333347,
      "v": 112
    },
    {
      "midi": 70,
      "hit": false,
      "t": 130045.46754999974,
      "d": 825.757658333343,
      "v": 112
    },
    {
      "midi": 65,
      "hit": false,
      "t": 130878.80096666641,
      "d": 787.8788666666806,
      "v": 112
    },
    {
      "midi": 36,
      "hit": false,
      "t": 130916.67975833308,
      "d": 431.81822499999544,
      "v": 112
    },
    {
      "midi": 67,
      "hit": false,
      "t": 130916.67975833308,
      "d": 848.484933333355,
      "v": 112
    },
    {
      "midi": 72,
      "hit": false,
      "t": 130916.67975833308,
      "d": 6659.091575000144,
      "v": 112
    },
    {
      "midi": 36,
      "hit": false,
      "t": 131371.22525833308,
      "d": 431.81822500002454,
      "v": 112
    },
    {
      "midi": 65,
      "hit": false,
      "t": 131787.89196666644,
      "d": 1068.1819250000117,
      "v": 112
    },
    {
      "midi": 67,
      "hit": false,
      "t": 131825.77075833312,
      "d": 810.606141666678,
      "v": 112
    },
    {
      "midi": 36,
      "hit": false,
      "t": 131825.77075833312,
      "d": 863.63645000002,
      "v": 112
    },
    {
      "midi": 36,
      "hit": false,
      "t": 132734.86175833314,
      "d": 431.81822499999544,
      "v": 112
    },
    {
      "midi": 64,
      "hit": false,
      "t": 132734.86175833314,
      "d": 833.3334166666609,
      "v": 112
    },
    {
      "midi": 67,
      "hit": false,
      "t": 132734.86175833314,
      "d": 833.3334166666609,
      "v": 112
    },
    {
      "midi": 36,
      "hit": false,
      "t": 133189.40725833314,
      "d": 431.81822499999544,
      "v": 112
    },
    {
      "midi": 36,
      "hit": false,
      "t": 133643.95275833315,
      "d": 863.6364499999909,
      "v": 112
    },
    {
      "midi": 67,
      "hit": false,
      "t": 133643.95275833315,
      "d": 863.6364499999909,
      "v": 112
    },
    {
      "midi": 64,
      "hit": false,
      "t": 133643.95275833315,
      "d": 969.6970666666748,
      "v": 112
    },
    {
      "midi": 65,
      "hit": false,
      "t": 134515.1649666665,
      "d": 810.606141666678,
      "v": 112
    },
    {
      "midi": 36,
      "hit": false,
      "t": 134553.04375833317,
      "d": 431.81822499999544,
      "v": 112
    },
    {
      "midi": 67,
      "hit": false,
      "t": 134553.04375833317,
      "d": 833.3334166666609,
      "v": 112
    },
    {
      "midi": 36,
      "hit": false,
      "t": 135007.58925833317,
      "d": 431.81822499999544,
      "v": 112
    },
    {
      "midi": 65,
      "hit": false,
      "t": 135424.2559666665,
      "d": 1106.0607166666887,
      "v": 112
    },
    {
      "midi": 67,
      "hit": false,
      "t": 135462.13475833318,
      "d": 810.606141666678,
      "v": 112
    },
    {
      "midi": 36,
      "hit": false,
      "t": 135462.13475833318,
      "d": 863.63645000002,
      "v": 112
    },
    {
      "midi": 36,
      "hit": false,
      "t": 136371.2257583332,
      "d": 431.81822499999544,
      "v": 112
    },
    {
      "midi": 67,
      "hit": false,
      "t": 136371.2257583332,
      "d": 1227.2728500000376,
      "v": 112
    },
    {
      "midi": 64,
      "hit": false,
      "t": 136371.2257583332,
      "d": 1265.1516416667146,
      "v": 112
    },
    {
      "midi": 36,
      "hit": false,
      "t": 136825.7712583332,
      "d": 431.81822499999544,
      "v": 112
    },
    {
      "midi": 36,
      "hit": false,
      "t": 137280.3167583332,
      "d": 1030.3031333333638,
      "v": 112
    },
    {
      "midi": 74,
      "hit": false,
      "t": 137507.5895083332,
      "d": 590.9091500000504,
      "v": 112
    },
    {
      "midi": 65,
      "hit": false,
      "t": 137962.13500833325,
      "d": 575.7576333332981,
      "v": 112
    },
    {
      "midi": 69,
      "hit": false,
      "t": 137962.13500833325,
      "d": 590.9091499999631,
      "v": 112
    },
    {
      "midi": 72,
      "hit": false,
      "t": 137962.13500833325,
      "d": 590.9091499999631,
      "v": 112
    },
    {
      "midi": 41,
      "hit": false,
      "t": 138189.40775833325,
      "d": 378.78791666662437,
      "v": 112
    },
    {
      "midi": 74,
      "hit": false,
      "t": 138416.68050833323,
      "d": 590.9091499999631,
      "v": 112
    },
    {
      "midi": 41,
      "hit": false,
      "t": 138643.9532583332,
      "d": 772.7273499999719,
      "v": 112
    },
    {
      "midi": 65,
      "hit": false,
      "t": 139098.49875833318,
      "d": 553.0303583333443,
      "v": 112
    },
    {
      "midi": 60,
      "hit": false,
      "t": 139098.49875833318,
      "d": 590.9091500000213,
      "v": 112
    },
    {
      "midi": 69,
      "hit": false,
      "t": 139098.49875833318,
      "d": 871.212208333367,
      "v": 112
    },
    {
      "midi": 41,
      "hit": false,
      "t": 139553.0442583332,
      "d": 393.93943333334755,
      "v": 112
    },
    {
      "midi": 65,
      "hit": false,
      "t": 139780.3170083332,
      "d": 492.42429166671354,
      "v": 112
    },
    {
      "midi": 60,
      "hit": false,
      "t": 139780.3170083332,
      "d": 530.3030833333905,
      "v": 112
    },
    {
      "midi": 67,
      "hit": false,
      "t": 139818.19579999987,
      "d": 515.1515666667256,
      "v": 112
    },
    {
      "midi": 41,
      "hit": false,
      "t": 140007.58975833323,
      "d": 378.7879166667117,
      "v": 112
    },
    {
      "midi": 69,
      "hit": false,
      "t": 140234.86250833323,
      "d": 318.1818500000227,
      "v": 112
    },
    {
      "midi": 41,
      "hit": false,
      "t": 140462.13525833326,
      "d": 1045.4546499999997,
      "v": 112
    },
    {
      "midi": 60,
      "hit": false,
      "t": 140462.13525833326,
      "d": 1265.1516416666564,
      "v": 112
    },
    {
      "midi": 65,
      "hit": false,
      "t": 140462.13525833326,
      "d": 1265.1516416666564,
      "v": 112
    },
    {
      "midi": 57,
      "hit": false,
      "t": 140462.13525833326,
      "d": 1287.8789166666684,
      "v": 112
    },
    {
      "midi": 43,
      "hit": false,
      "t": 141371.22625833325,
      "d": 212.12123333333875,
      "v": 112
    },
    {
      "midi": 45,
      "hit": false,
      "t": 141598.49900833325,
      "d": 212.12123333333875,
      "v": 112
    },
    {
      "midi": 46,
      "hit": false,
      "t": 141825.77175833326,
      "d": 431.81822500002454,
      "v": 112
    },
    {
      "midi": 58,
      "hit": false,
      "t": 141825.77175833326,
      "d": 787.8788666666951,
      "v": 112
    },
    {
      "midi": 60,
      "hit": false,
      "t": 141863.65054999993,
      "d": 810.606141666678,
      "v": 112
    },
    {
      "midi": 46,
      "hit": false,
      "t": 142280.3172583333,
      "d": 810.6061416666489,
      "v": 112
    },
    {
      "midi": 58,
      "hit": false,
      "t": 142734.86275833327,
      "d": 492.42429166668444,
      "v": 112
    },
    {
      "midi": 69,
      "hit": false,
      "t": 142734.86275833327,
      "d": 530.3030833333614,
      "v": 112
    },
    {
      "midi": 60,
      "hit": false,
      "t": 142772.74154999995,
      "d": 515.1515666666965,
      "v": 112
    },
    {
      "midi": 65,
      "hit": false,
      "t": 143189.40825833328,
      "d": 333.33336666671676,
      "v": 112
    },
    {
      "midi": 46,
      "hit": false,
      "t": 143189.40825833328,
      "d": 378.7879166667117,
      "v": 112
    },
    {
      "midi": 58,
      "hit": false,
      "t": 143416.6810083333,
      "d": 515.1515666666673,
      "v": 112
    },
    {
      "midi": 67,
      "hit": false,
      "t": 143416.6810083333,
      "d": 553.0303583333443,
      "v": 112
    },
    {
      "midi": 60,
      "hit": false,
      "t": 143454.5598,
      "d": 492.42429166665534,
      "v": 112
    },
    {
      "midi": 46,
      "hit": false,
      "t": 143643.95375833331,
      "d": 378.7879166666826,
      "v": 112
    },
    {
      "midi": 69,
      "hit": false,
      "t": 143871.22650833332,
      "d": 393.93943333334755,
      "v": 112
    },
    {
      "midi": 46,
      "hit": false,
      "t": 144098.49925833332,
      "d": 863.63645000002,
      "v": 112
    },
    {
      "midi": 58,
      "hit": false,
      "t": 144098.49925833332,
      "d": 1227.2728500000085,
      "v": 112
    },
    {
      "midi": 53,
      "hit": false,
      "t": 144098.49925833332,
      "d": 1325.7577083333454,
      "v": 112
    },
    {
      "midi": 60,
      "hit": false,
      "t": 144136.37805,
      "d": 2174.2426416667004,
      "v": 112
    },
    {
      "midi": 46,
      "hit": false,
      "t": 145007.59025833334,
      "d": 613.6364250000042,
      "v": 112
    },
    {
      "midi": 41,
      "hit": false,
      "t": 145462.13575833334,
      "d": 431.81822499999544,
      "v": 112
    },
    {
      "midi": 57,
      "hit": false,
      "t": 145462.13575833334,
      "d": 1045.4546500000288,
      "v": 112
    },
    {
      "midi": 53,
      "hit": false,
      "t": 145462.13575833334,
      "d": 1068.1819250000408,
      "v": 112
    },
    {
      "midi": 41,
      "hit": false,
      "t": 145916.68125833335,
      "d": 787.8788666666951,
      "v": 112
    },
    {
      "midi": 65,
      "hit": false,
      "t": 146371.22675833336,
      "d": 431.81822500002454,
      "v": 112
    },
    {
      "midi": 60,
      "hit": false,
      "t": 146371.22675833336,
      "d": 530.3030833333614,
      "v": 112
    },
    {
      "midi": 69,
      "hit": false,
      "t": 146371.22675833336,
      "d": 575.7576333333564,
      "v": 112
    },
    {
      "midi": 65,
      "hit": false,
      "t": 146825.7722583334,
      "d": 212.12123333330965,
      "v": 112
    },
    {
      "midi": 41,
      "hit": false,
      "t": 146825.7722583334,
      "d": 356.06064166664146,
      "v": 112
    },
    {
      "midi": 60,
      "hit": false,
      "t": 147053.04500833337,
      "d": 515.1515666666673,
      "v": 112
    },
    {
      "midi": 65,
      "hit": false,
      "t": 147053.04500833337,
      "d": 530.3030833333323,
      "v": 112
    },
    {
      "midi": 67,
      "hit": false,
      "t": 147090.92380000005,
      "d": 530.3030833333323,
      "v": 112
    },
    {
      "midi": 41,
      "hit": false,
      "t": 147280.31775833337,
      "d": 378.7879166666826,
      "v": 112
    },
    {
      "midi": 69,
      "hit": false,
      "t": 147507.59050833338,
      "d": 295.45457500001066,
      "v": 112
    },
    {
      "midi": 41,
      "hit": false,
      "t": 147734.86325833338,
      "d": 863.63645000002,
      "v": 112
    },
    {
      "midi": 60,
      "hit": false,
      "t": 147734.86325833338,
      "d": 1204.5455750000256,
      "v": 112
    },
    {
      "midi": 57,
      "hit": false,
      "t": 147734.86325833338,
      "d": 1227.2728500000376,
      "v": 112
    },
    {
      "midi": 65,
      "hit": false,
      "t": 147734.86325833338,
      "d": 2431.818425000063,
      "v": 112
    },
    {
      "midi": 43,
      "hit": false,
      "t": 148643.9542583334,
      "d": 333.33336666668765,
      "v": 112
    },
    {
      "midi": 45,
      "hit": false,
      "t": 148871.2270083334,
      "d": 212.12123333333875,
      "v": 112
    },
    {
      "midi": 46,
      "hit": false,
      "t": 149098.4997583334,
      "d": 431.81822500002454,
      "v": 112
    },
    {
      "midi": 58,
      "hit": false,
      "t": 149098.4997583334,
      "d": 787.8788666666951,
      "v": 112
    },
    {
      "midi": 60,
      "hit": false,
      "t": 149136.37855000008,
      "d": 833.33341666669,
      "v": 112
    },
    {
      "midi": 46,
      "hit": false,
      "t": 149553.04525833344,
      "d": 787.878866666666,
      "v": 112
    },
    {
      "midi": 58,
      "hit": false,
      "t": 150007.59075833345,
      "d": 431.81822499999544,
      "v": 112
    },
    {
      "midi": 69,
      "hit": false,
      "t": 150007.59075833345,
      "d": 530.3030833333323,
      "v": 112
    },
    {
      "midi": 60,
      "hit": false,
      "t": 150045.46955000013,
      "d": 393.93943333331845,
      "v": 112
    },
    {
      "midi": 65,
      "hit": false,
      "t": 150462.13625833346,
      "d": 318.1818500000227,
      "v": 112
    },
    {
      "midi": 46,
      "hit": false,
      "t": 150462.13625833346,
      "d": 378.7879166666826,
      "v": 112
    },
    {
      "midi": 58,
      "hit": false,
      "t": 150689.40900833346,
      "d": 515.1515666666673,
      "v": 112
    },
    {
      "midi": 67,
      "hit": false,
      "t": 150689.40900833346,
      "d": 590.9091500000213,
      "v": 112
    },
    {
      "midi": 60,
      "hit": false,
      "t": 150727.28780000014,
      "d": 530.3030833333323,
      "v": 112
    },
    {
      "midi": 46,
      "hit": false,
      "t": 150916.68175833346,
      "d": 378.7879166666826,
      "v": 112
    },
    {
      "midi": 69,
      "hit": false,
      "t": 151143.95450833347,
      "d": 333.33336666668765,
      "v": 112
    },
    {
      "midi": 46,
      "hit": false,
      "t": 151371.22725833347,
      "d": 863.63645000002,
      "v": 112
    },
    {
      "midi": 53,
      "hit": false,
      "t": 151371.22725833347,
      "d": 1166.6667833333486,
      "v": 112
    },
    {
      "midi": 58,
      "hit": false,
      "t": 151371.22725833347,
      "d": 1265.1516416666855,
      "v": 112
    },
    {
      "midi": 60,
      "hit": false,
      "t": 151409.10605000015,
      "d": 1106.0607166666596,
      "v": 112
    },
    {
      "midi": 46,
      "hit": false,
      "t": 152280.3182583335,
      "d": 431.81822499999544,
      "v": 112
    },
    {
      "midi": 45,
      "hit": false,
      "t": 152734.8637583335,
      "d": 431.81822499999544,
      "v": 112
    },
    {
      "midi": 55,
      "hit": false,
      "t": 152734.8637583335,
      "d": 1030.3031333333347,
      "v": 112
    },
    {
      "midi": 60,
      "hit": false,
      "t": 152734.8637583335,
      "d": 1030.3031333333347,
      "v": 112
    },
    {
      "midi": 64,
      "hit": false,
      "t": 152734.8637583335,
      "d": 1045.4546499999997,
      "v": 112
    },
    {
      "midi": 45,
      "hit": false,
      "t": 153189.4092583335,
      "d": 431.81822499999544,
      "v": 112
    },
    {
      "midi": 72,
      "hit": false,
      "t": 153643.9547583335,
      "d": 295.45457499998156,
      "v": 112
    },
    {
      "midi": 45,
      "hit": false,
      "t": 153643.9547583335,
      "d": 810.6061416666489,
      "v": 112
    },
    {
      "midi": 74,
      "hit": false,
      "t": 153871.22750833348,
      "d": 280.3030583333457,
      "v": 112
    },
    {
      "midi": 76,
      "hit": false,
      "t": 154098.5002583335,
      "d": 356.06064166667056,
      "v": 112
    },
    {
      "midi": 74,
      "hit": false,
      "t": 154325.7730083335,
      "d": 590.9091500000213,
      "v": 112
    },
    {
      "midi": 64,
      "hit": false,
      "t": 154325.7730083335,
      "d": 1424.2425666666823,
      "v": 112
    },
    {
      "midi": 67,
      "hit": false,
      "t": 154325.7730083335,
      "d": 1462.1213583333592,
      "v": 112
    },
    {
      "midi": 45,
      "hit": false,
      "t": 154553.0457583335,
      "d": 356.06064166667056,
      "v": 112
    },
    {
      "midi": 72,
      "hit": false,
      "t": 154780.3185083335,
      "d": 575.7576333333272,
      "v": 112
    },
    {
      "midi": 45,
      "hit": false,
      "t": 155007.5912583335,
      "d": 356.06064166667056,
      "v": 112
    },
    {
      "midi": 74,
      "hit": false,
      "t": 155234.8640083335,
      "d": 772.727350000001,
      "v": 112
    },
    {
      "midi": 45,
      "hit": false,
      "t": 155462.1367583335,
      "d": 1128.7879916666425,
      "v": 112
    },
    {
      "midi": 65,
      "hit": false,
      "t": 155916.68225833352,
      "d": 318.1818499999936,
      "v": 112
    },
    {
      "midi": 72,
      "hit": false,
      "t": 156143.95500833352,
      "d": 212.12123333330965,
      "v": 112
    },
    {
      "midi": 46,
      "hit": false,
      "t": 156371.2277583335,
      "d": 431.81822499999544,
      "v": 112
    },
    {
      "midi": 62,
      "hit": false,
      "t": 156371.2277583335,
      "d": 431.81822499999544,
      "v": 112
    },
    {
      "midi": 65,
      "hit": false,
      "t": 156371.2277583335,
      "d": 431.81822499999544,
      "v": 112
    },
    {
      "midi": 72,
      "hit": false,
      "t": 156371.2277583335,
      "d": 431.81822499999544,
      "v": 112
    },
    {
      "midi": 62,
      "hit": false,
      "t": 156825.7732583335,
      "d": 212.12123333333875,
      "v": 112
    },
    {
      "midi": 65,
      "hit": false,
      "t": 156825.7732583335,
      "d": 212.12123333333875,
      "v": 112
    },
    {
      "midi": 70,
      "hit": false,
      "t": 156825.7732583335,
      "d": 212.12123333333875,
      "v": 112
    },
    {
      "midi": 46,
      "hit": false,
      "t": 156825.7732583335,
      "d": 378.7879166666826,
      "v": 112
    },
    {
      "midi": 65,
      "hit": false,
      "t": 157053.0460083335,
      "d": 515.1515666666673,
      "v": 112
    },
    {
      "midi": 62,
      "hit": false,
      "t": 157053.0460083335,
      "d": 530.3030833333323,
      "v": 112
    },
    {
      "midi": 70,
      "hit": false,
      "t": 157053.0460083335,
      "d": 613.6364250000042,
      "v": 112
    },
    {
      "midi": 46,
      "hit": false,
      "t": 157280.3187583335,
      "d": 810.606141666678,
      "v": 112
    },
    {
      "midi": 69,
      "hit": false,
      "t": 157507.5915083335,
      "d": 295.45457500001066,
      "v": 112
    },
    {
      "midi": 58,
      "hit": false,
      "t": 157734.86425833352,
      "d": 2310.606291666685,
      "v": 112
    },
    {
      "midi": 65,
      "hit": false,
      "t": 157734.86425833352,
      "d": 2393.939633333357,
      "v": 112
    },
    {
      "midi": 62,
      "hit": false,
      "t": 157734.86425833352,
      "d": 2409.091150000022,
      "v": 112
    },
    {
      "midi": 46,
      "hit": false,
      "t": 158189.40975833352,
      "d": 431.81822499999544,
      "v": 112
    },
    {
      "midi": 46,
      "hit": false,
      "t": 158643.95525833353,
      "d": 575.7576333333272,
      "v": 112
    },
    {
      "midi": 36,
      "hit": false,
      "t": 159098.50075833354,
      "d": 1045.4546499999997,
      "v": 112
    },
    {
      "midi": 45,
      "hit": false,
      "t": 160007.59175833352,
      "d": 431.81822500002454,
      "v": 112
    },
    {
      "midi": 64,
      "hit": false,
      "t": 160007.59175833352,
      "d": 1030.3031333333638,
      "v": 112
    },
    {
      "midi": 60,
      "hit": false,
      "t": 160007.59175833352,
      "d": 1068.1819250000408,
      "v": 112
    },
    {
      "midi": 55,
      "hit": false,
      "t": 160007.59175833352,
      "d": 1106.0607166667178,
      "v": 112
    },
    {
      "midi": 45,
      "hit": false,
      "t": 160462.13725833356,
      "d": 431.81822499999544,
      "v": 112
    },
    {
      "midi": 72,
      "hit": false,
      "t": 160916.68275833357,
      "d": 212.12123333333875,
      "v": 112
    },
    {
      "midi": 45,
      "hit": false,
      "t": 160916.68275833357,
      "d": 787.878866666666,
      "v": 112
    },
    {
      "midi": 74,
      "hit": false,
      "t": 161143.95550833357,
      "d": 212.12123333333875,
      "v": 112
    },
    {
      "midi": 76,
      "hit": false,
      "t": 161371.22825833358,
      "d": 318.1818499999936,
      "v": 112
    },
    {
      "midi": 74,
      "hit": false,
      "t": 161598.50100833358,
      "d": 590.9091499999922,
      "v": 112
    },
    {
      "midi": 67,
      "hit": false,
      "t": 161598.50100833358,
      "d": 1401.5152916666411,
      "v": 112
    },
    {
      "midi": 64,
      "hit": false,
      "t": 161598.50100833358,
      "d": 1484.848633333313,
      "v": 112
    },
    {
      "midi": 45,
      "hit": false,
      "t": 161825.77375833355,
      "d": 378.7879166666826,
      "v": 112
    },
    {
      "midi": 72,
      "hit": false,
      "t": 162053.04650833356,
      "d": 515.1515666666673,
      "v": 112
    },
    {
      "midi": 45,
      "hit": false,
      "t": 162280.31925833356,
      "d": 333.33336666665855,
      "v": 112
    },
    {
      "midi": 74,
      "hit": false,
      "t": 162507.59200833357,
      "d": 833.3334166666609,
      "v": 112
    },
    {
      "midi": 45,
      "hit": false,
      "t": 162734.86475833354,
      "d": 1030.3031333333056,
      "v": 112
    },
    {
      "midi": 69,
      "hit": false,
      "t": 163189.41025833355,
      "d": 318.1818499999936,
      "v": 112
    },
    {
      "midi": 72,
      "hit": false,
      "t": 163416.68300833355,
      "d": 212.12123333330965,
      "v": 112
    },
    {
      "midi": 38,
      "hit": false,
      "t": 163643.95575833353,
      "d": 431.81822499999544,
      "v": 112
    },
    {
      "midi": 65,
      "hit": false,
      "t": 163643.95575833353,
      "d": 431.81822499999544,
      "v": 112
    },
    {
      "midi": 69,
      "hit": false,
      "t": 163643.95575833353,
      "d": 431.81822499999544,
      "v": 112
    },
    {
      "midi": 72,
      "hit": false,
      "t": 163643.95575833353,
      "d": 431.81822499999544,
      "v": 112
    },
    {
      "midi": 65,
      "hit": false,
      "t": 164098.50125833353,
      "d": 212.12123333333875,
      "v": 112
    },
    {
      "midi": 69,
      "hit": false,
      "t": 164098.50125833353,
      "d": 212.12123333333875,
      "v": 112
    },
    {
      "midi": 72,
      "hit": false,
      "t": 164098.50125833353,
      "d": 318.1818499999936,
      "v": 112
    },
    {
      "midi": 38,
      "hit": false,
      "t": 164098.50125833353,
      "d": 378.7879166666535,
      "v": 112
    },
    {
      "midi": 69,
      "hit": false,
      "t": 164325.77400833354,
      "d": 378.7879166666535,
      "v": 112
    },
    {
      "midi": 65,
      "hit": false,
      "t": 164325.77400833354,
      "d": 393.93943333331845,
      "v": 112
    },
    {
      "midi": 74,
      "hit": false,
      "t": 164325.77400833354,
      "d": 575.7576333332981,
      "v": 112
    },
    {
      "midi": 38,
      "hit": false,
      "t": 164553.0467583335,
      "d": 1030.3031333333347,
      "v": 112
    },
    {
      "midi": 69,
      "hit": false,
      "t": 164780.31950833352,
      "d": 431.81822499999544,
      "v": 112
    },
    {
      "midi": 65,
      "hit": false,
      "t": 164780.31950833352,
      "d": 492.42429166668444,
      "v": 112
    },
    {
      "midi": 60,
      "hit": false,
      "t": 164780.31950833352,
      "d": 575.7576333333564,
      "v": 112
    },
    {
      "midi": 69,
      "hit": false,
      "t": 165234.86500833352,
      "d": 378.7879166666535,
      "v": 112
    },
    {
      "midi": 62,
      "hit": false,
      "t": 165234.86500833352,
      "d": 1462.121358333301,
      "v": 112
    },
    {
      "midi": 59,
      "hit": false,
      "t": 165234.86500833352,
      "d": 1537.878941666626,
      "v": 112
    },
    {
      "midi": 43,
      "hit": false,
      "t": 165462.13775833353,
      "d": 333.33336666662944,
      "v": 112
    },
    {
      "midi": 67,
      "hit": false,
      "t": 165462.13775833353,
      "d": 378.78791666662437,
      "v": 112
    },
    {
      "midi": 65,
      "hit": false,
      "t": 165689.4105083335,
      "d": 1204.5455749999965,
      "v": 112
    },
    {
      "midi": 43,
      "hit": false,
      "t": 165916.68325833348,
      "d": 431.81822499999544,
      "v": 112
    },
    {
      "midi": 43,
      "hit": false,
      "t": 166371.22875833348,
      "d": 787.8788666666951,
      "v": 112
    },
    {
      "midi": 62,
      "hit": false,
      "t": 166825.7742583335,
      "d": 295.45457500001066,
      "v": 112
    },
    {
      "midi": 65,
      "hit": false,
      "t": 167053.0470083335,
      "d": 212.12123333333875,
      "v": 112
    },
    {
      "midi": 43,
      "hit": false,
      "t": 167280.3197583335,
      "d": 431.81822499999544,
      "v": 112
    },
    {
      "midi": 62,
      "hit": false,
      "t": 167280.3197583335,
      "d": 431.81822499999544,
      "v": 112
    },
    {
      "midi": 65,
      "hit": false,
      "t": 167280.3197583335,
      "d": 431.81822499999544,
      "v": 112
    },
    {
      "midi": 70,
      "hit": false,
      "t": 167280.3197583335,
      "d": 431.81822499999544,
      "v": 112
    },
    {
      "midi": 62,
      "hit": false,
      "t": 167734.8652583335,
      "d": 212.12123333333875,
      "v": 112
    },
    {
      "midi": 65,
      "hit": false,
      "t": 167734.8652583335,
      "d": 212.12123333333875,
      "v": 112
    },
    {
      "midi": 69,
      "hit": false,
      "t": 167734.8652583335,
      "d": 295.45457500001066,
      "v": 112
    },
    {
      "midi": 43,
      "hit": false,
      "t": 167734.8652583335,
      "d": 378.7879166666826,
      "v": 112
    },
    {
      "midi": 62,
      "hit": false,
      "t": 167962.1380083335,
      "d": 530.3030833333323,
      "v": 112
    },
    {
      "midi": 65,
      "hit": false,
      "t": 167962.1380083335,
      "d": 530.3030833333323,
      "v": 112
    },
    {
      "midi": 70,
      "hit": false,
      "t": 167962.1380083335,
      "d": 613.6364250000042,
      "v": 112
    },
    {
      "midi": 43,
      "hit": false,
      "t": 168189.4107583335,
      "d": 810.6061416666489,
      "v": 112
    },
    {
      "midi": 69,
      "hit": false,
      "t": 168416.68350833352,
      "d": 333.33336666665855,
      "v": 112
    },
    {
      "midi": 58,
      "hit": false,
      "t": 168643.95625833352,
      "d": 2196.969916666654,
      "v": 112
    },
    {
      "midi": 62,
      "hit": false,
      "t": 168643.95625833352,
      "d": 2196.969916666654,
      "v": 112
    },
    {
      "midi": 67,
      "hit": false,
      "t": 168643.95625833352,
      "d": 2431.818424999976,
      "v": 112
    },
    {
      "midi": 43,
      "hit": false,
      "t": 169098.5017583335,
      "d": 431.81822499999544,
      "v": 112
    },
    {
      "midi": 43,
      "hit": false,
      "t": 169553.0472583335,
      "d": 431.81822499999544,
      "v": 112
    },
    {
      "midi": 43,
      "hit": false,
      "t": 170007.5927583335,
      "d": 1068.1819249999826,
      "v": 112
    },
    {
      "midi": 46,
      "hit": false,
      "t": 170916.6837583335,
      "d": 431.81822499999544,
      "v": 112
    },
    {
      "midi": 62,
      "hit": false,
      "t": 170916.6837583335,
      "d": 1204.5455750000256,
      "v": 112
    },
    {
      "midi": 58,
      "hit": false,
      "t": 170916.6837583335,
      "d": 1242.4243666667026,
      "v": 112
    },
    {
      "midi": 65,
      "hit": false,
      "t": 170916.6837583335,
      "d": 1242.4243666667026,
      "v": 112
    },
    {
      "midi": 46,
      "hit": false,
      "t": 171371.2292583335,
      "d": 431.81822499999544,
      "v": 112
    },
    {
      "midi": 46,
      "hit": false,
      "t": 171825.77475833351,
      "d": 810.606141666678,
      "v": 112
    },
    {
      "midi": 62,
      "hit": false,
      "t": 172280.32025833352,
      "d": 295.45457500001066,
      "v": 112
    },
    {
      "midi": 65,
      "hit": false,
      "t": 172507.59300833353,
      "d": 212.12123333333875,
      "v": 112
    },
    {
      "midi": 46,
      "hit": false,
      "t": 172734.86575833353,
      "d": 431.81822499999544,
      "v": 112
    },
    {
      "midi": 62,
      "hit": false,
      "t": 172734.86575833353,
      "d": 431.81822499999544,
      "v": 112
    },
    {
      "midi": 65,
      "hit": false,
      "t": 172734.86575833353,
      "d": 553.0303583333443,
      "v": 112
    },
    {
      "midi": 70,
      "hit": false,
      "t": 172734.86575833353,
      "d": 628.7879416666692,
      "v": 112
    },
    {
      "midi": 58,
      "hit": false,
      "t": 173189.41125833354,
      "d": 431.81822499999544,
      "v": 112
    },
    {
      "midi": 62,
      "hit": false,
      "t": 173189.41125833354,
      "d": 431.81822499999544,
      "v": 112
    },
    {
      "midi": 46,
      "hit": false,
      "t": 173189.41125833354,
      "d": 575.7576333333272,
      "v": 112
    },
    {
      "midi": 69,
      "hit": false,
      "t": 173189.41125833354,
      "d": 575.7576333333272,
      "v": 112
    },
    {
      "midi": 65,
      "hit": false,
      "t": 173643.95675833354,
      "d": 431.81822499999544,
      "v": 112
    },
    {
      "midi": 62,
      "hit": false,
      "t": 173643.95675833354,
      "d": 515.1515666666673,
      "v": 112
    },
    {
      "midi": 58,
      "hit": false,
      "t": 173643.95675833354,
      "d": 530.3030833333323,
      "v": 112
    },
    {
      "midi": 36,
      "hit": false,
      "t": 173643.95675833354,
      "d": 1007.5758583333518,
      "v": 112
    },
    {
      "midi": 65,
      "hit": false,
      "t": 174098.50225833355,
      "d": 212.12123333333875,
      "v": 112
    },
    {
      "midi": 65,
      "hit": false,
      "t": 174325.77500833356,
      "d": 2886.3639250000997,
      "v": 112
    },
    {
      "midi": 58,
      "hit": false,
      "t": 174515.16896666688,
      "d": 810.606141666678,
      "v": 112
    },
    {
      "midi": 41,
      "hit": false,
      "t": 174553.04775833356,
      "d": 431.81822499999544,
      "v": 112
    },
    {
      "midi": 60,
      "hit": false,
      "t": 174553.04775833356,
      "d": 810.606141666678,
      "v": 112
    },
    {
      "midi": 41,
      "hit": false,
      "t": 175007.59325833357,
      "d": 393.93943333334755,
      "v": 112
    },
    {
      "midi": 58,
      "hit": false,
      "t": 175424.25996666693,
      "d": 833.33341666669,
      "v": 112
    },
    {
      "midi": 41,
      "hit": false,
      "t": 175462.1387583336,
      "d": 431.81822499999544,
      "v": 112
    },
    {
      "midi": 60,
      "hit": false,
      "t": 175462.1387583336,
      "d": 787.878866666666,
      "v": 112
    },
    {
      "midi": 41,
      "hit": false,
      "t": 175916.6842583336,
      "d": 431.81822499999544,
      "v": 112
    },
    {
      "midi": 58,
      "hit": false,
      "t": 176333.35096666694,
      "d": 848.484933333355,
      "v": 112
    },
    {
      "midi": 41,
      "hit": false,
      "t": 176371.22975833362,
      "d": 431.81822499999544,
      "v": 112
    },
    {
      "midi": 60,
      "hit": false,
      "t": 176371.22975833362,
      "d": 833.33341666669,
      "v": 112
    },
    {
      "midi": 41,
      "hit": false,
      "t": 176825.77525833363,
      "d": 356.06064166667056,
      "v": 112
    },
    {
      "midi": 69,
      "hit": false,
      "t": 177053.04800833363,
      "d": 333.33336666668765,
      "v": 112
    },
    {
      "midi": 77,
      "hit": false,
      "t": 177280.32075833366,
      "d": 280.3030583333166,
      "v": 112
    },
    {
      "midi": 72,
      "hit": false,
      "t": 177280.32075833366,
      "d": 318.1818499999936,
      "v": 112
    },
    {
      "midi": 81,
      "hit": false,
      "t": 177280.32075833366,
      "d": 318.1818499999936,
      "v": 112
    },
    {
      "midi": 41,
      "hit": false,
      "t": 177280.32075833366,
      "d": 333.33336666665855,
      "v": 112
    },
    {
      "midi": 79,
      "hit": false,
      "t": 177507.59350833364,
      "d": 318.1818499999936,
      "v": 112
    },
    {
      "midi": 77,
      "hit": false,
      "t": 177734.86625833364,
      "d": 318.1818499999936,
      "v": 112
    },
    {
      "midi": 41,
      "hit": false,
      "t": 177734.86625833364,
      "d": 628.7879416666692,
      "v": 112
    },
    {
      "midi": 76,
      "hit": false,
      "t": 177962.13900833364,
      "d": 356.06064166667056,
      "v": 112
    },
    {
      "midi": 74,
      "hit": false,
      "t": 178189.41175833365,
      "d": 318.1818499999936,
      "v": 112
    },
    {
      "midi": 46,
      "hit": false,
      "t": 178189.41175833365,
      "d": 356.06064166667056,
      "v": 112
    },
    {
      "midi": 65,
      "hit": false,
      "t": 178189.41175833365,
      "d": 1227.2728500000085,
      "v": 112
    },
    {
      "midi": 70,
      "hit": false,
      "t": 178189.41175833365,
      "d": 1227.2728500000085,
      "v": 112
    },
    {
      "midi": 72,
      "hit": false,
      "t": 178416.68450833365,
      "d": 212.12123333333875,
      "v": 112
    },
    {
      "midi": 72,
      "hit": false,
      "t": 178643.95725833366,
      "d": 212.12123333333875,
      "v": 112
    },
    {
      "midi": 46,
      "hit": false,
      "t": 178643.95725833366,
      "d": 787.878866666666,
      "v": 112
    },
    {
      "midi": 72,
      "hit": false,
      "t": 178871.23000833366,
      "d": 212.12123333333875,
      "v": 112
    },
    {
      "midi": 72,
      "hit": false,
      "t": 179098.50275833366,
      "d": 212.12123333333875,
      "v": 112
    },
    {
      "midi": 72,
      "hit": false,
      "t": 179325.77550833367,
      "d": 212.12123333330965,
      "v": 112
    },
    {
      "midi": 46,
      "hit": false,
      "t": 179553.04825833364,
      "d": 431.81822500002454,
      "v": 112
    },
    {
      "midi": 72,
      "hit": false,
      "t": 179553.04825833364,
      "d": 772.7273500000301,
      "v": 112
    },
    {
      "midi": 70,
      "hit": false,
      "t": 179590.92705000032,
      "d": 2234.8487083333894,
      "v": 112
    },
    {
      "midi": 46,
      "hit": false,
      "t": 180007.59375833368,
      "d": 378.7879166666535,
      "v": 112
    },
    {
      "midi": 65,
      "hit": false,
      "t": 180234.86650833368,
      "d": 212.12123333330965,
      "v": 112
    },
    {
      "midi": 46,
      "hit": false,
      "t": 180462.13925833366,
      "d": 810.606141666678,
      "v": 112
    },
    {
      "midi": 72,
      "hit": false,
      "t": 180689.41200833366,
      "d": 212.12123333333875,
      "v": 112
    },
    {
      "midi": 72,
      "hit": false,
      "t": 180916.68475833366,
      "d": 212.12123333333875,
      "v": 112
    },
    {
      "midi": 72,
      "hit": false,
      "t": 181143.95750833367,
      "d": 212.12123333333875,
      "v": 112
    },
    {
      "midi": 72,
      "hit": false,
      "t": 181371.23025833367,
      "d": 295.45457500001066,
      "v": 112
    },
    {
      "midi": 46,
      "hit": false,
      "t": 181371.23025833367,
      "d": 431.81822500002454,
      "v": 112
    },
    {
      "midi": 77,
      "hit": false,
      "t": 181598.50300833368,
      "d": 212.12123333336785,
      "v": 112
    },
    {
      "midi": 41,
      "hit": false,
      "t": 181825.7757583337,
      "d": 431.81822499999544,
      "v": 112
    },
    {
      "midi": 69,
      "hit": false,
      "t": 181825.7757583337,
      "d": 431.81822499999544,
      "v": 112
    },
    {
      "midi": 72,
      "hit": false,
      "t": 181825.7757583337,
      "d": 431.81822499999544,
      "v": 112
    },
    {
      "midi": 79,
      "hit": false,
      "t": 181825.7757583337,
      "d": 431.81822499999544,
      "v": 112
    },
    {
      "midi": 69,
      "hit": false,
      "t": 182280.32125833372,
      "d": 212.12123333333875,
      "v": 112
    },
    {
      "midi": 72,
      "hit": false,
      "t": 182280.32125833372,
      "d": 212.12123333333875,
      "v": 112
    },
    {
      "midi": 79,
      "hit": false,
      "t": 182280.32125833372,
      "d": 212.12123333333875,
      "v": 112
    },
    {
      "midi": 41,
      "hit": false,
      "t": 182280.32125833372,
      "d": 787.8788666666951,
      "v": 112
    },
    {
      "midi": 69,
      "hit": false,
      "t": 182507.59400833372,
      "d": 212.12123333333875,
      "v": 112
    },
    {
      "midi": 72,
      "hit": false,
      "t": 182507.59400833372,
      "d": 212.12123333333875,
      "v": 112
    },
    {
      "midi": 79,
      "hit": false,
      "t": 182507.59400833372,
      "d": 212.12123333333875,
      "v": 112
    },
    {
      "midi": 72,
      "hit": false,
      "t": 182734.86675833372,
      "d": 295.45457500001066,
      "v": 112
    },
    {
      "midi": 79,
      "hit": false,
      "t": 182734.86675833372,
      "d": 318.1818500000227,
      "v": 112
    },
    {
      "midi": 69,
      "hit": false,
      "t": 182734.86675833372,
      "d": 333.33336666668765,
      "v": 112
    },
    {
      "midi": 77,
      "hit": false,
      "t": 182962.13950833373,
      "d": 212.12123333333875,
      "v": 112
    },
    {
      "midi": 41,
      "hit": false,
      "t": 183189.41225833373,
      "d": 431.81822499999544,
      "v": 112
    },
    {
      "midi": 77,
      "hit": false,
      "t": 183189.41225833373,
      "d": 1696.969866666681,
      "v": 112
    },
    {
      "midi": 81,
      "hit": false,
      "t": 183189.41225833373,
      "d": 1878.7880666666897,
      "v": 112
    },
    {
      "midi": 72,
      "hit": false,
      "t": 183189.41225833373,
      "d": 1916.6668583333667,
      "v": 112
    },
    {
      "midi": 41,
      "hit": false,
      "t": 183643.95775833374,
      "d": 431.81822499999544,
      "v": 112
    },
    {
      "midi": 41,
      "hit": false,
      "t": 184098.50325833375,
      "d": 431.81822499999544,
      "v": 112
    },
    {
      "midi": 41,
      "hit": false,
      "t": 184553.04875833375,
      "d": 431.81822499999544,
      "v": 112
    },
    {
      "midi": 41,
      "hit": false,
      "t": 185007.59425833376,
      "d": 212.12123333333875,
      "v": 112
    },
    {
      "midi": 77,
      "hit": false,
      "t": 185007.59425833376,
      "d": 333.33336666665855,
      "v": 112
    },
    {
      "midi": 81,
      "hit": false,
      "t": 185234.86700833376,
      "d": 212.12123333330965,
      "v": 112
    },
    {
      "midi": 39,
      "hit": false,
      "t": 185462.13975833374,
      "d": 431.81822499999544,
      "v": 112
    },
    {
      "midi": 75,
      "hit": false,
      "t": 185462.13975833374,
      "d": 431.81822499999544,
      "v": 112
    },
    {
      "midi": 79,
      "hit": false,
      "t": 185462.13975833374,
      "d": 431.81822499999544,
      "v": 112
    },
    {
      "midi": 82,
      "hit": false,
      "t": 185462.13975833374,
      "d": 431.81822499999544,
      "v": 112
    },
    {
      "midi": 82,
      "hit": false,
      "t": 185916.68525833375,
      "d": 295.45457500001066,
      "v": 112
    },
    {
      "midi": 39,
      "hit": false,
      "t": 185916.68525833375,
      "d": 772.727350000001,
      "v": 112
    },
    {
      "midi": 70,
      "hit": false,
      "t": 186143.95800833375,
      "d": 431.81822499999544,
      "v": 112
    },
    {
      "midi": 81,
      "hit": false,
      "t": 186143.95800833375,
      "d": 553.0303583333443,
      "v": 112
    },
    {
      "midi": 75,
      "hit": false,
      "t": 186560.62471666708,
      "d": 15.151516666664975,
      "v": 112
    },
    {
      "midi": 77,
      "hit": false,
      "t": 186598.50350833376,
      "d": 515.1515666666673,
      "v": 112
    },
    {
      "midi": 70,
      "hit": false,
      "t": 186598.50350833376,
      "d": 575.7576333333272,
      "v": 112
    },
    {
      "midi": 39,
      "hit": false,
      "t": 186825.77625833376,
      "d": 212.12123333333875,
      "v": 112
    },
    {
      "midi": 72,
      "hit": false,
      "t": 187053.04900833376,
      "d": 212.12123333330965,
      "v": 112
    },
    {
      "midi": 39,
      "hit": false,
      "t": 187280.32175833374,
      "d": 431.81822500002454,
      "v": 112
    },
    {
      "midi": 67,
      "hit": false,
      "t": 187280.32175833374,
      "d": 1242.4243666666734,
      "v": 112
    },
    {
      "midi": 70,
      "hit": false,
      "t": 187280.32175833374,
      "d": 1287.8789166666684,
      "v": 112
    },
    {
      "midi": 72,
      "hit": false,
      "t": 187318.20055000042,
      "d": 1007.5758583333518,
      "v": 112
    },
    {
      "midi": 39,
      "hit": false,
      "t": 187734.86725833378,
      "d": 651.5152166666521,
      "v": 112
    },
    {
      "midi": 72,
      "hit": false,
      "t": 188416.68550833376,
      "d": 333.33336666662944,
      "v": 112
    },
    {
      "midi": 79,
      "hit": false,
      "t": 188643.95825833373,
      "d": 318.18184999996447,
      "v": 112
    },
    {
      "midi": 39,
      "hit": false,
      "t": 188643.95825833373,
      "d": 590.9091499999631,
      "v": 112
    },
    {
      "midi": 81,
      "hit": false,
      "t": 188871.2310083337,
      "d": 212.12123333330965,
      "v": 112
    },
    {
      "midi": 38,
      "hit": false,
      "t": 189098.50375833368,
      "d": 431.81822500002454,
      "v": 112
    },
    {
      "midi": 82,
      "hit": false,
      "t": 189098.50375833368,
      "d": 431.81822500002454,
      "v": 112
    },
    {
      "midi": 70,
      "hit": false,
      "t": 189098.50375833368,
      "d": 492.42429166671354,
      "v": 112
    },
    {
      "midi": 77,
      "hit": false,
      "t": 189098.50375833368,
      "d": 492.42429166671354,
      "v": 112
    },
    {
      "midi": 81,
      "hit": false,
      "t": 189553.04925833372,
      "d": 280.3030583333457,
      "v": 112
    },
    {
      "midi": 38,
      "hit": false,
      "t": 189553.04925833372,
      "d": 810.606141666678,
      "v": 112
    },
    {
      "midi": 70,
      "hit": false,
      "t": 189780.32200833372,
      "d": 431.81822499999544,
      "v": 112
    },
    {
      "midi": 77,
      "hit": false,
      "t": 189780.32200833372,
      "d": 431.81822499999544,
      "v": 112
    },
    {
      "midi": 82,
      "hit": false,
      "t": 189780.32200833372,
      "d": 590.9091500000213,
      "v": 112
    },
    {
      "midi": 77,
      "hit": false,
      "t": 190234.86750833373,
      "d": 295.45457500001066,
      "v": 112
    },
    {
      "midi": 70,
      "hit": false,
      "t": 190234.86750833373,
      "d": 318.1818500000227,
      "v": 112
    },
    {
      "midi": 38,
      "hit": false,
      "t": 190462.14025833373,
      "d": 378.7879166667117,
      "v": 112
    },
    {
      "midi": 77,
      "hit": false,
      "t": 190651.5342166671,
      "d": 1287.8789166666975,
      "v": 112
    },
    {
      "midi": 79,
      "hit": false,
      "t": 190689.41300833377,
      "d": 674.2424916666641,
      "v": 112
    },
    {
      "midi": 70,
      "hit": false,
      "t": 190689.41300833377,
      "d": 1522.7274250000191,
      "v": 112
    },
    {
      "midi": 38,
      "hit": false,
      "t": 190916.68575833377,
      "d": 356.06064166667056,
      "v": 112
    },
    {
      "midi": 81,
      "hit": false,
      "t": 191143.95850833377,
      "d": 1030.3031333333347,
      "v": 112
    },
    {
      "midi": 38,
      "hit": false,
      "t": 191371.23125833378,
      "d": 431.81822499999544,
      "v": 112
    },
    {
      "midi": 38,
      "hit": false,
      "t": 191825.77675833378,
      "d": 356.06064166667056,
      "v": 112
    },
    {
      "midi": 67,
      "hit": false,
      "t": 192053.0495083338,
      "d": 492.42429166665534,
      "v": 112
    },
    {
      "midi": 72,
      "hit": false,
      "t": 192053.0495083338,
      "d": 492.42429166665534,
      "v": 112
    },
    {
      "midi": 77,
      "hit": false,
      "t": 192053.0495083338,
      "d": 492.42429166665534,
      "v": 112
    },
    {
      "midi": 36,
      "hit": false,
      "t": 192053.0495083338,
      "d": 530.3030833333323,
      "v": 112
    },
    {
      "midi": 70,
      "hit": false,
      "t": 192696.98896666712,
      "d": 431.81822500002454,
      "v": 112
    },
    {
      "midi": 46,
      "hit": false,
      "t": 192734.8677583338,
      "d": 431.81822500002454,
      "v": 112
    },
    {
      "midi": 72,
      "hit": false,
      "t": 192734.8677583338,
      "d": 431.81822500002454,
      "v": 112
    },
    {
      "midi": 77,
      "hit": false,
      "t": 192734.8677583338,
      "d": 431.81822500002454,
      "v": 112
    },
    {
      "midi": 70,
      "hit": false,
      "t": 193151.53446666716,
      "d": 409.0909500000125,
      "v": 112
    },
    {
      "midi": 72,
      "hit": false,
      "t": 193189.41325833384,
      "d": 431.81822499999544,
      "v": 112
    },
    {
      "midi": 77,
      "hit": false,
      "t": 193189.41325833384,
      "d": 431.81822499999544,
      "v": 112
    },
    {
      "midi": 46,
      "hit": false,
      "t": 193189.41325833384,
      "d": 787.8788666666951,
      "v": 112
    },
    {
      "midi": 70,
      "hit": false,
      "t": 193606.07996666717,
      "d": 189.39395833335584,
      "v": 112
    },
    {
      "midi": 72,
      "hit": false,
      "t": 193643.95875833384,
      "d": 212.12123333336785,
      "v": 112
    },
    {
      "midi": 77,
      "hit": false,
      "t": 193643.95875833384,
      "d": 212.12123333336785,
      "v": 112
    },
    {
      "midi": 70,
      "hit": false,
      "t": 193833.3527166672,
      "d": 189.39395833332674,
      "v": 112
    },
    {
      "midi": 72,
      "hit": false,
      "t": 193871.23150833388,
      "d": 212.12123333333875,
      "v": 112
    },
    {
      "midi": 77,
      "hit": false,
      "t": 193871.23150833388,
      "d": 212.12123333333875,
      "v": 112
    },
    {
      "midi": 70,
      "hit": false,
      "t": 194060.6254666672,
      "d": 431.81822500002454,
      "v": 112
    },
    {
      "midi": 46,
      "hit": false,
      "t": 194098.50425833388,
      "d": 431.81822500002454,
      "v": 112
    },
    {
      "midi": 77,
      "hit": false,
      "t": 194098.50425833388,
      "d": 590.9091500000504,
      "v": 112
    },
    {
      "midi": 72,
      "hit": false,
      "t": 194098.50425833388,
      "d": 628.7879416667274,
      "v": 112
    },
    {
      "midi": 46,
      "hit": false,
      "t": 194553.04975833392,
      "d": 431.81822500002454,
      "v": 112
    },
    {
      "midi": 70,
      "hit": false,
      "t": 194553.04975833392,
      "d": 1227.2728500000376,
      "v": 112
    },
    {
      "midi": 74,
      "hit": false,
      "t": 194553.04975833392,
      "d": 1227.2728500000376,
      "v": 112
    },
    {
      "midi": 65,
      "hit": false,
      "t": 194553.04975833392,
      "d": 1287.8789166666975,
      "v": 112
    },
    {
      "midi": 46,
      "hit": false,
      "t": 195007.59525833395,
      "d": 863.6364499999909,
      "v": 112
    },
    {
      "midi": 72,
      "hit": false,
      "t": 195916.68625833394,
      "d": 295.45457500001066,
      "v": 112
    },
    {
      "midi": 46,
      "hit": false,
      "t": 195916.68625833394,
      "d": 454.54550000000745,
      "v": 112
    },
    {
      "midi": 77,
      "hit": false,
      "t": 196143.95900833394,
      "d": 212.12123333333875,
      "v": 112
    },
    {
      "midi": 41,
      "hit": false,
      "t": 196371.23175833395,
      "d": 431.81822499999544,
      "v": 112
    },
    {
      "midi": 69,
      "hit": false,
      "t": 196371.23175833395,
      "d": 431.81822499999544,
      "v": 112
    },
    {
      "midi": 72,
      "hit": false,
      "t": 196371.23175833395,
      "d": 431.81822499999544,
      "v": 112
    },
    {
      "midi": 79,
      "hit": false,
      "t": 196371.23175833395,
      "d": 431.81822499999544,
      "v": 112
    },
    {
      "midi": 69,
      "hit": false,
      "t": 196825.77725833395,
      "d": 431.81822499999544,
      "v": 112
    },
    {
      "midi": 72,
      "hit": false,
      "t": 196825.77725833395,
      "d": 431.81822499999544,
      "v": 112
    },
    {
      "midi": 79,
      "hit": false,
      "t": 196825.77725833395,
      "d": 431.81822499999544,
      "v": 112
    },
    {
      "midi": 41,
      "hit": false,
      "t": 196825.77725833395,
      "d": 810.6061416667071,
      "v": 112
    },
    {
      "midi": 69,
      "hit": false,
      "t": 197280.32275833396,
      "d": 295.45457500001066,
      "v": 112
    },
    {
      "midi": 72,
      "hit": false,
      "t": 197280.32275833396,
      "d": 318.1818500000227,
      "v": 112
    },
    {
      "midi": 79,
      "hit": false,
      "t": 197280.32275833396,
      "d": 318.1818500000227,
      "v": 112
    },
    {
      "midi": 77,
      "hit": false,
      "t": 197507.59550833396,
      "d": 212.12123333336785,
      "v": 112
    },
    {
      "midi": 41,
      "hit": false,
      "t": 197734.868258334,
      "d": 431.81822499999544,
      "v": 112
    },
    {
      "midi": 72,
      "hit": false,
      "t": 197734.868258334,
      "d": 1636.363800000021,
      "v": 112
    },
    {
      "midi": 77,
      "hit": false,
      "t": 197734.868258334,
      "d": 1659.091075000033,
      "v": 112
    },
    {
      "midi": 81,
      "hit": false,
      "t": 197734.868258334,
      "d": 1681.818350000045,
      "v": 112
    },
    {
      "midi": 41,
      "hit": false,
      "t": 198189.413758334,
      "d": 431.81822499999544,
      "v": 112
    },
    {
      "midi": 41,
      "hit": false,
      "t": 198643.959258334,
      "d": 863.63645000002,
      "v": 112
    },
    {
      "midi": 69,
      "hit": false,
      "t": 199553.05025833403,
      "d": 431.81822499999544,
      "v": 112
    },
    {
      "midi": 72,
      "hit": false,
      "t": 199553.05025833403,
      "d": 431.81822499999544,
      "v": 112
    },
    {
      "midi": 77,
      "hit": false,
      "t": 199553.05025833403,
      "d": 431.81822499999544,
      "v": 112
    },
    {
      "midi": 41,
      "hit": false,
      "t": 199553.05025833403,
      "d": 575.7576333333272,
      "v": 112
    },
    {
      "midi": 44,
      "hit": false,
      "t": 200007.59575833404,
      "d": 431.81822499999544,
      "v": 112
    },
    {
      "midi": 68,
      "hit": false,
      "t": 200007.59575833404,
      "d": 553.0303583333443,
      "v": 112
    },
    {
      "midi": 72,
      "hit": false,
      "t": 200007.59575833404,
      "d": 553.0303583333443,
      "v": 112
    },
    {
      "midi": 77,
      "hit": false,
      "t": 200007.59575833404,
      "d": 575.7576333333564,
      "v": 112
    },
    {
      "midi": 44,
      "hit": false,
      "t": 200462.14125833404,
      "d": 787.878866666666,
      "v": 112
    },
    {
      "midi": 68,
      "hit": false,
      "t": 200689.41400833405,
      "d": 431.81822499999544,
      "v": 112
    },
    {
      "midi": 72,
      "hit": false,
      "t": 200689.41400833405,
      "d": 431.81822499999544,
      "v": 112
    },
    {
      "midi": 77,
      "hit": false,
      "t": 200689.41400833405,
      "d": 613.6364250000042,
      "v": 112
    },
    {
      "midi": 68,
      "hit": false,
      "t": 201143.95950833405,
      "d": 492.42429166668444,
      "v": 112
    },
    {
      "midi": 65,
      "hit": false,
      "t": 201143.95950833405,
      "d": 515.1515666666965,
      "v": 112
    },
    {
      "midi": 72,
      "hit": false,
      "t": 201143.95950833405,
      "d": 515.1515666666965,
      "v": 112
    },
    {
      "midi": 44,
      "hit": false,
      "t": 201371.23225833406,
      "d": 333.33336666668765,
      "v": 112
    },
    {
      "midi": 43,
      "hit": false,
      "t": 201598.50500833406,
      "d": 212.12123333333875,
      "v": 112
    },
    {
      "midi": 41,
      "hit": false,
      "t": 201825.77775833406,
      "d": 431.81822499999544,
      "v": 112
    },
    {
      "midi": 68,
      "hit": false,
      "t": 201825.77775833406,
      "d": 787.878866666666,
      "v": 112
    },
    {
      "midi": 65,
      "hit": false,
      "t": 201825.77775833406,
      "d": 810.606141666678,
      "v": 112
    },
    {
      "midi": 72,
      "hit": false,
      "t": 201825.77775833406,
      "d": 1030.3031333333638,
      "v": 112
    },
    {
      "midi": 41,
      "hit": false,
      "t": 202280.32325833407,
      "d": 575.7576333333564,
      "v": 112
    },
    {
      "midi": 65,
      "hit": false,
      "t": 202734.86875833408,
      "d": 863.63645000002,
      "v": 112
    },
    {
      "midi": 68,
      "hit": false,
      "t": 202734.86875833408,
      "d": 863.63645000002,
      "v": 112
    },
    {
      "midi": 44,
      "hit": false,
      "t": 202734.86875833408,
      "d": 1045.4546500000579,
      "v": 112
    },
    {
      "midi": 70,
      "hit": false,
      "t": 202772.74755000076,
      "d": 825.757658333343,
      "v": 112
    },
    {
      "midi": 65,
      "hit": false,
      "t": 203606.08096666745,
      "d": 787.8788666667242,
      "v": 112
    },
    {
      "midi": 36,
      "hit": false,
      "t": 203643.95975833412,
      "d": 431.81822500002454,
      "v": 112
    },
    {
      "midi": 67,
      "hit": false,
      "t": 203643.95975833412,
      "d": 787.8788666667242,
      "v": 112
    },
    {
      "midi": 72,
      "hit": false,
      "t": 203643.95975833412,
      "d": 2409.0911500001675,
      "v": 112
    },
    {
      "midi": 36,
      "hit": false,
      "t": 204098.50525833416,
      "d": 810.6061416667071,
      "v": 112
    },
    {
      "midi": 65,
      "hit": false,
      "t": 204515.17196666752,
      "d": 848.484933333355,
      "v": 112
    },
    {
      "midi": 67,
      "hit": false,
      "t": 204553.0507583342,
      "d": 833.33341666669,
      "v": 112
    },
    {
      "midi": 36,
      "hit": false,
      "t": 205007.5962583342,
      "d": 431.81822500002454,
      "v": 112
    },
    {
      "midi": 36,
      "hit": false,
      "t": 205462.14175833424,
      "d": 431.81822500002454,
      "v": 112
    },
    {
      "midi": 65,
      "hit": false,
      "t": 205462.14175833424,
      "d": 787.8788666666951,
      "v": 112
    },
    {
      "midi": 67,
      "hit": false,
      "t": 205500.02055000092,
      "d": 750.0000750000181,
      "v": 112
    },
    {
      "midi": 36,
      "hit": false,
      "t": 205916.68725833428,
      "d": 810.6061416666489,
      "v": 112
    },
    {
      "midi": 72,
      "hit": false,
      "t": 206143.96000833428,
      "d": 356.06064166664146,
      "v": 112
    },
    {
      "midi": 81,
      "hit": false,
      "t": 206371.23275833426,
      "d": 356.06064166667056,
      "v": 112
    },
    {
      "midi": 79,
      "hit": false,
      "t": 206598.50550833426,
      "d": 318.1818499999936,
      "v": 112
    },
    {
      "midi": 77,
      "hit": false,
      "t": 206825.77825833426,
      "d": 378.7879166666826,
      "v": 112
    },
    {
      "midi": 36,
      "hit": false,
      "t": 206825.77825833426,
      "d": 628.7879416666692,
      "v": 112
    },
    {
      "midi": 76,
      "hit": false,
      "t": 207053.05100833427,
      "d": 356.06064166667056,
      "v": 112
    },
    {
      "midi": 74,
      "hit": false,
      "t": 207280.32375833427,
      "d": 318.1818499999936,
      "v": 112
    },
    {
      "midi": 46,
      "hit": false,
      "t": 207280.32375833427,
      "d": 378.7879166666535,
      "v": 112
    },
    {
      "midi": 70,
      "hit": false,
      "t": 207280.32375833427,
      "d": 1227.2728499999794,
      "v": 112
    },
    {
      "midi": 65,
      "hit": false,
      "t": 207280.32375833427,
      "d": 1265.1516416666564,
      "v": 112
    },
    {
      "midi": 72,
      "hit": false,
      "t": 207507.59650833427,
      "d": 212.12123333330965,
      "v": 112
    },
    {
      "midi": 72,
      "hit": false,
      "t": 207734.86925833425,
      "d": 212.12123333333875,
      "v": 112
    },
    {
      "midi": 46,
      "hit": false,
      "t": 207734.86925833425,
      "d": 833.33341666669,
      "v": 112
    },
    {
      "midi": 72,
      "hit": false,
      "t": 207962.14200833425,
      "d": 212.12123333333875,
      "v": 112
    },
    {
      "midi": 72,
      "hit": false,
      "t": 208189.41475833426,
      "d": 212.12123333333875,
      "v": 112
    },
    {
      "midi": 72,
      "hit": false,
      "t": 208416.68750833426,
      "d": 212.12123333333875,
      "v": 112
    },
    {
      "midi": 46,
      "hit": false,
      "t": 208643.96025833426,
      "d": 431.81822500002454,
      "v": 112
    },
    {
      "midi": 72,
      "hit": false,
      "t": 208643.96025833426,
      "d": 628.7879416667274,
      "v": 112
    },
    {
      "midi": 65,
      "hit": false,
      "t": 208681.83905000094,
      "d": 553.0303583333734,
      "v": 112
    },
    {
      "midi": 70,
      "hit": false,
      "t": 208681.83905000094,
      "d": 590.9091500000504,
      "v": 112
    },
    {
      "midi": 46,
      "hit": false,
      "t": 209098.5057583343,
      "d": 378.7879166667117,
      "v": 112
    },
    {
      "midi": 65,
      "hit": false,
      "t": 209325.77850833433,
      "d": 1227.2728500000085,
      "v": 112
    },
    {
      "midi": 70,
      "hit": false,
      "t": 209325.77850833433,
      "d": 1242.4243666666734,
      "v": 112
    },
    {
      "midi": 72,
      "hit": false,
      "t": 209363.657300001,
      "d": 1045.4546499999997,
      "v": 112
    },
    {
      "midi": 46,
      "hit": false,
      "t": 209553.05125833434,
      "d": 863.63645000002,
      "v": 112
    },
    {
      "midi": 72,
      "hit": false,
      "t": 210462.14225833435,
      "d": 212.12123333330965,
      "v": 112
    },
    {
      "midi": 46,
      "hit": false,
      "t": 210462.14225833435,
      "d": 515.1515666666382,
      "v": 112
    },
    {
      "midi": 72,
      "hit": false,
      "t": 210689.41500833433,
      "d": 212.12123333333875,
      "v": 112
    },
    {
      "midi": 45,
      "hit": false,
      "t": 210916.68775833433,
      "d": 431.81822499999544,
      "v": 112
    },
    {
      "midi": 72,
      "hit": false,
      "t": 210916.68775833433,
      "d": 431.81822499999544,
      "v": 112
    },
    {
      "midi": 77,
      "hit": false,
      "t": 210916.68775833433,
      "d": 431.81822499999544,
      "v": 112
    },
    {
      "midi": 82,
      "hit": false,
      "t": 210916.68775833433,
      "d": 613.6364250000042,
      "v": 112
    },
    {
      "midi": 72,
      "hit": false,
      "t": 211371.23325833434,
      "d": 431.81822499999544,
      "v": 112
    },
    {
      "midi": 77,
      "hit": false,
      "t": 211371.23325833434,
      "d": 553.0303583333443,
      "v": 112
    },
    {
      "midi": 81,
      "hit": false,
      "t": 211371.23325833434,
      "d": 613.6364250000042,
      "v": 112
    },
    {
      "midi": 45,
      "hit": false,
      "t": 211371.23325833434,
      "d": 810.606141666678,
      "v": 112
    },
    {
      "midi": 72,
      "hit": false,
      "t": 211825.77875833435,
      "d": 212.12123333333875,
      "v": 112
    },
    {
      "midi": 79,
      "hit": false,
      "t": 211825.77875833435,
      "d": 318.1818499999936,
      "v": 112
    },
    {
      "midi": 77,
      "hit": false,
      "t": 212053.05150833435,
      "d": 212.12123333333875,
      "v": 112
    },
    {
      "midi": 72,
      "hit": false,
      "t": 212053.05150833435,
      "d": 318.1818499999936,
      "v": 112
    },
    {
      "midi": 45,
      "hit": false,
      "t": 212280.32425833435,
      "d": 431.81822499999544,
      "v": 112
    },
    {
      "midi": 77,
      "hit": false,
      "t": 212280.32425833435,
      "d": 3560.6064166666765,
      "v": 112
    },
    {
      "midi": 43,
      "hit": false,
      "t": 212734.86975833436,
      "d": 431.81822499999544,
      "v": 112
    },
    {
      "midi": 70,
      "hit": false,
      "t": 212734.86975833436,
      "d": 1696.9698666666518,
      "v": 112
    },
    {
      "midi": 67,
      "hit": false,
      "t": 212734.86975833436,
      "d": 1719.6971416666638,
      "v": 112
    },
    {
      "midi": 74,
      "hit": false,
      "t": 212734.86975833436,
      "d": 1742.4244166666758,
      "v": 112
    },
    {
      "midi": 43,
      "hit": false,
      "t": 213189.41525833437,
      "d": 863.6364499999909,
      "v": 112
    },
    {
      "midi": 43,
      "hit": false,
      "t": 214098.50625833435,
      "d": 575.7576333333272,
      "v": 112
    },
    {
      "midi": 67,
      "hit": false,
      "t": 214553.05175833436,
      "d": 1227.2728499999794,
      "v": 112
    },
    {
      "midi": 70,
      "hit": false,
      "t": 214553.05175833436,
      "d": 1227.2728499999794,
      "v": 112
    },
    {
      "midi": 74,
      "hit": false,
      "t": 214553.05175833436,
      "d": 1265.1516416666564,
      "v": 112
    },
    {
      "midi": 36,
      "hit": false,
      "t": 214553.05175833436,
      "d": 1696.9698666666518,
      "v": 112
    },
    {
      "midi": 69,
      "hit": false,
      "t": 215916.68825833435,
      "d": 212.12123333333875,
      "v": 112
    },
    {
      "midi": 69,
      "hit": false,
      "t": 216143.96100833436,
      "d": 295.45457499998156,
      "v": 112
    },
    {
      "midi": 62,
      "hit": false,
      "t": 216371.23375833433,
      "d": 431.81822499999544,
      "v": 112
    },
    {
      "midi": 65,
      "hit": false,
      "t": 216371.23375833433,
      "d": 431.81822499999544,
      "v": 112
    },
    {
      "midi": 70,
      "hit": false,
      "t": 216371.23375833433,
      "d": 590.9091500000213,
      "v": 112
    },
    {
      "midi": 36,
      "hit": false,
      "t": 216371.23375833433,
      "d": 2113.6365750000696,
      "v": 112
    },
    {
      "midi": 58,
      "hit": false,
      "t": 216825.77925833434,
      "d": 431.81822500002454,
      "v": 112
    },
    {
      "midi": 62,
      "hit": false,
      "t": 216825.77925833434,
      "d": 431.81822500002454,
      "v": 112
    },
    {
      "midi": 69,
      "hit": false,
      "t": 216825.77925833434,
      "d": 590.9091500000504,
      "v": 112
    },
    {
      "midi": 65,
      "hit": false,
      "t": 217280.32475833438,
      "d": 431.81822500002454,
      "v": 112
    },
    {
      "midi": 58,
      "hit": false,
      "t": 217280.32475833438,
      "d": 575.7576333333564,
      "v": 112
    },
    {
      "midi": 62,
      "hit": false,
      "t": 217280.32475833438,
      "d": 575.7576333333564,
      "v": 112
    },
    {
      "midi": 65,
      "hit": false,
      "t": 217734.8702583344,
      "d": 212.12123333330965,
      "v": 112
    },
    {
      "midi": 65,
      "hit": false,
      "t": 217962.1430083344,
      "d": 3083.3336416667153,
      "v": 112
    },
    {
      "midi": 41,
      "hit": false,
      "t": 218189.4157583344,
      "d": 431.81822500002454,
      "v": 112
    },
    {
      "midi": 60,
      "hit": false,
      "t": 218189.4157583344,
      "d": 3045.4548500000383,
      "v": 112
    },
    {
      "midi": 57,
      "hit": false,
      "t": 218189.4157583344,
      "d": 3083.3336416667153,
      "v": 112
    },
    {
      "midi": 41,
      "hit": false,
      "t": 218643.96125833443,
      "d": 863.6364499999909,
      "v": 112
    },
    {
      "midi": 41,
      "hit": false,
      "t": 219553.0522583344,
      "d": 431.81822499999544,
      "v": 112
    },
    {
      "midi": 41,
      "hit": false,
      "t": 220007.59775833442,
      "d": 431.81822499999544,
      "v": 112
    },
    {
      "midi": 41,
      "hit": false,
      "t": 220462.14325833443,
      "d": 984.8485833333398,
      "v": 112
    },
    {
      "midi": 65,
      "hit": false,
      "t": 221143.96150833444,
      "d": 333.33336666665855,
      "v": 112
    },
    {
      "midi": 72,
      "hit": false,
      "t": 221371.23425833444,
      "d": 295.45457499998156,
      "v": 112
    },
    {
      "midi": 43,
      "hit": false,
      "t": 221371.23425833444,
      "d": 333.33336666665855,
      "v": 112
    },
    {
      "midi": 45,
      "hit": false,
      "t": 221598.50700833442,
      "d": 318.1818499999936,
      "v": 112
    },
    {
      "midi": 69,
      "hit": false,
      "t": 221598.50700833442,
      "d": 575.7576333333272,
      "v": 112
    },
    {
      "midi": 46,
      "hit": false,
      "t": 221825.77975833442,
      "d": 378.7879166666535,
      "v": 112
    },
    {
      "midi": 67,
      "hit": false,
      "t": 222053.05250833443,
      "d": 356.06064166664146,
      "v": 112
    },
    {
      "midi": 46,
      "hit": false,
      "t": 222280.3252583344,
      "d": 863.6364499999909,
      "v": 112
    },
    {
      "midi": 58,
      "hit": false,
      "t": 222280.3252583344,
      "d": 2590.9093500000017,
      "v": 112
    },
    {
      "midi": 65,
      "hit": false,
      "t": 222280.3252583344,
      "d": 2590.9093500000017,
      "v": 112
    },
    {
      "midi": 60,
      "hit": false,
      "t": 222318.20405000108,
      "d": 2568.1820749999897,
      "v": 112
    },
    {
      "midi": 46,
      "hit": false,
      "t": 223189.4162583344,
      "d": 431.81822499999544,
      "v": 112
    },
    {
      "midi": 46,
      "hit": false,
      "t": 223643.9617583344,
      "d": 431.81822499999544,
      "v": 112
    },
    {
      "midi": 46,
      "hit": false,
      "t": 224098.5072583344,
      "d": 787.878866666666,
      "v": 112
    },
    {
      "midi": 74,
      "hit": false,
      "t": 224780.3255083344,
      "d": 515.1515666666382,
      "v": 112
    },
    {
      "midi": 46,
      "hit": false,
      "t": 225007.5982583344,
      "d": 575.7576333333272,
      "v": 112
    },
    {
      "midi": 72,
      "hit": false,
      "t": 225234.8710083344,
      "d": 590.9091499999922,
      "v": 112
    },
    {
      "midi": 41,
      "hit": false,
      "t": 225462.1437583344,
      "d": 356.06064166664146,
      "v": 112
    },
    {
      "midi": 65,
      "hit": false,
      "t": 225689.41650833437,
      "d": 1484.848633333313,
      "v": 112
    },
    {
      "midi": 69,
      "hit": false,
      "t": 225689.41650833437,
      "d": 1484.848633333313,
      "v": 112
    },
    {
      "midi": 74,
      "hit": false,
      "t": 225689.41650833437,
      "d": 1681.8183499999868,
      "v": 112
    },
    {
      "midi": 41,
      "hit": false,
      "t": 225916.68925833437,
      "d": 863.6364499999909,
      "v": 112
    },
    {
      "midi": 41,
      "hit": false,
      "t": 226825.78025833436,
      "d": 431.81822499999544,
      "v": 112
    },
    {
      "midi": 41,
      "hit": false,
      "t": 227280.32575833437,
      "d": 431.81822499999544,
      "v": 112
    },
    {
      "midi": 65,
      "hit": false,
      "t": 227280.32575833437,
      "d": 492.42429166668444,
      "v": 112
    },
    {
      "midi": 69,
      "hit": false,
      "t": 227280.32575833437,
      "d": 530.3030833333614,
      "v": 112
    },
    {
      "midi": 60,
      "hit": false,
      "t": 227280.32575833437,
      "d": 575.7576333333564,
      "v": 112
    },
    {
      "midi": 67,
      "hit": false,
      "t": 227734.87125833437,
      "d": 333.33336666665855,
      "v": 112
    },
    {
      "midi": 41,
      "hit": false,
      "t": 227734.87125833437,
      "d": 969.6970666666457,
      "v": 112
    },
    {
      "midi": 65,
      "hit": false,
      "t": 227962.14400833438,
      "d": 833.3334166666318,
      "v": 112
    },
    {
      "midi": 43,
      "hit": false,
      "t": 228643.96225833436,
      "d": 212.12123333330965,
      "v": 112
    },
    {
      "midi": 69,
      "hit": false,
      "t": 228643.96225833436,
      "d": 1681.8183499999868,
      "v": 112
    },
    {
      "midi": 45,
      "hit": false,
      "t": 228871.23500833433,
      "d": 212.12123333333875,
      "v": 112
    },
    {
      "midi": 46,
      "hit": false,
      "t": 229098.50775833434,
      "d": 431.81822499999544,
      "v": 112
    },
    {
      "midi": 65,
      "hit": false,
      "t": 229098.50775833434,
      "d": 1189.3940583333315,
      "v": 112
    },
    {
      "midi": 60,
      "hit": false,
      "t": 229098.50775833434,
      "d": 1227.2728500000085,
      "v": 112
    },
    {
      "midi": 46,
      "hit": false,
      "t": 229553.05325833434,
      "d": 863.6364499999909,
      "v": 112
    },
    {
      "midi": 67,
      "hit": false,
      "t": 230462.14425833433,
      "d": 318.1818499999936,
      "v": 112
    },
    {
      "midi": 46,
      "hit": false,
      "t": 230462.14425833433,
      "d": 356.06064166667056,
      "v": 112
    },
    {
      "midi": 69,
      "hit": false,
      "t": 230689.41700833433,
      "d": 318.1818499999936,
      "v": 112
    },
    {
      "midi": 46,
      "hit": false,
      "t": 230916.68975833434,
      "d": 431.81822499999544,
      "v": 112
    },
    {
      "midi": 60,
      "hit": false,
      "t": 230916.68975833434,
      "d": 431.81822499999544,
      "v": 112
    },
    {
      "midi": 65,
      "hit": false,
      "t": 230916.68975833434,
      "d": 431.81822499999544,
      "v": 112
    },
    {
      "midi": 70,
      "hit": false,
      "t": 230916.68975833434,
      "d": 628.7879416666692,
      "v": 112
    },
    {
      "midi": 60,
      "hit": false,
      "t": 231371.23525833435,
      "d": 431.81822499999544,
      "v": 112
    },
    {
      "midi": 65,
      "hit": false,
      "t": 231371.23525833435,
      "d": 431.81822499999544,
      "v": 112
    },
    {
      "midi": 69,
      "hit": false,
      "t": 231371.23525833435,
      "d": 553.0303583333443,
      "v": 112
    },
    {
      "midi": 46,
      "hit": false,
      "t": 231371.23525833435,
      "d": 772.727350000001,
      "v": 112
    },
    {
      "midi": 65,
      "hit": false,
      "t": 231825.78075833435,
      "d": 431.81822499999544,
      "v": 112
    },
    {
      "midi": 58,
      "hit": false,
      "t": 231825.78075833435,
      "d": 590.9091500000213,
      "v": 112
    },
    {
      "midi": 60,
      "hit": false,
      "t": 231863.65955000103,
      "d": 515.1515666666673,
      "v": 112
    },
    {
      "midi": 65,
      "hit": false,
      "t": 232280.32625833436,
      "d": 212.12123333333875,
      "v": 112
    },
    {
      "midi": 46,
      "hit": false,
      "t": 232280.32625833436,
      "d": 575.7576333333272,
      "v": 112
    },
    {
      "midi": 41,
      "hit": false,
      "t": 232734.87175833437,
      "d": 431.81822499999544,
      "v": 112
    },
    {
      "midi": 60,
      "hit": false,
      "t": 232734.87175833437,
      "d": 3045.454850000009,
      "v": 112
    },
    {
      "midi": 57,
      "hit": false,
      "t": 232734.87175833437,
      "d": 3083.333641666686,
      "v": 112
    },
    {
      "midi": 41,
      "hit": false,
      "t": 233189.41725833438,
      "d": 863.6364499999909,
      "v": 112
    },
    {
      "midi": 41,
      "hit": false,
      "t": 234098.50825833436,
      "d": 431.81822499999544,
      "v": 112
    },
    {
      "midi": 41,
      "hit": false,
      "t": 234553.05375833437,
      "d": 431.81822499999544,
      "v": 112
    },
    {
      "midi": 41,
      "hit": false,
      "t": 235007.59925833438,
      "d": 984.8485833333398,
      "v": 112
    },
    {
      "midi": 65,
      "hit": false,
      "t": 235689.4175083344,
      "d": 333.33336666665855,
      "v": 112
    },
    {
      "midi": 72,
      "hit": false,
      "t": 235916.6902583344,
      "d": 295.45457499998156,
      "v": 112
    },
    {
      "midi": 43,
      "hit": false,
      "t": 235916.6902583344,
      "d": 333.33336666665855,
      "v": 112
    },
    {
      "midi": 45,
      "hit": false,
      "t": 236143.96300833437,
      "d": 318.1818499999936,
      "v": 112
    },
    {
      "midi": 69,
      "hit": false,
      "t": 236143.96300833437,
      "d": 575.7576333333272,
      "v": 112
    },
    {
      "midi": 46,
      "hit": false,
      "t": 236371.23575833437,
      "d": 378.7879166666535,
      "v": 110
    },
    {
      "midi": 67,
      "hit": false,
      "t": 236598.50850833437,
      "d": 356.06064166664146,
      "v": 108
    },
    {
      "midi": 46,
      "hit": false,
      "t": 236825.78125833435,
      "d": 863.6364499999909,
      "v": 106
    },
    {
      "midi": 58,
      "hit": false,
      "t": 236825.78125833435,
      "d": 2590.9093500000017,
      "v": 106
    },
    {
      "midi": 65,
      "hit": false,
      "t": 236825.78125833435,
      "d": 2590.9093500000017,
      "v": 106
    },
    {
      "midi": 60,
      "hit": false,
      "t": 236863.66005000102,
      "d": 2568.1820749999897,
      "v": 106
    },
    {
      "midi": 46,
      "hit": false,
      "t": 237734.87225833433,
      "d": 431.81822499999544,
      "v": 104
    },
    {
      "midi": 46,
      "hit": false,
      "t": 238189.41775833434,
      "d": 431.81822499999544,
      "v": 102
    },
    {
      "midi": 46,
      "hit": false,
      "t": 238643.96325833435,
      "d": 787.878866666666,
      "v": 100
    },
    {
      "midi": 74,
      "hit": false,
      "t": 239325.78150833436,
      "d": 515.1515666666382,
      "v": 98
    },
    {
      "midi": 46,
      "hit": false,
      "t": 239553.05425833433,
      "d": 575.7576333333272,
      "v": 96
    },
    {
      "midi": 72,
      "hit": false,
      "t": 239780.32700833434,
      "d": 590.9091499999922,
      "v": 94
    },
    {
      "midi": 41,
      "hit": false,
      "t": 240007.59975833434,
      "d": 356.06064166664146,
      "v": 94
    },
    {
      "midi": 65,
      "hit": false,
      "t": 240234.87250833432,
      "d": 1484.848633333313,
      "v": 92
    },
    {
      "midi": 69,
      "hit": false,
      "t": 240234.87250833432,
      "d": 1484.848633333313,
      "v": 92
    },
    {
      "midi": 74,
      "hit": false,
      "t": 240234.87250833432,
      "d": 1681.8183499999868,
      "v": 92
    },
    {
      "midi": 41,
      "hit": false,
      "t": 240462.14525833432,
      "d": 863.6364499999909,
      "v": 90
    },
    {
      "midi": 41,
      "hit": false,
      "t": 241371.2362583343,
      "d": 431.81822499999544,
      "v": 88
    },
    {
      "midi": 41,
      "hit": false,
      "t": 241825.7817583343,
      "d": 431.81822499999544,
      "v": 86
    },
    {
      "midi": 65,
      "hit": false,
      "t": 241825.7817583343,
      "d": 492.42429166668444,
      "v": 86
    },
    {
      "midi": 69,
      "hit": false,
      "t": 241825.7817583343,
      "d": 530.3030833333614,
      "v": 86
    },
    {
      "midi": 60,
      "hit": false,
      "t": 241825.7817583343,
      "d": 575.7576333333564,
      "v": 86
    },
    {
      "midi": 67,
      "hit": false,
      "t": 242280.32725833432,
      "d": 333.33336666665855,
      "v": 84
    },
    {
      "midi": 41,
      "hit": false,
      "t": 242280.32725833432,
      "d": 969.6970666666457,
      "v": 84
    },
    {
      "midi": 65,
      "hit": false,
      "t": 242507.60000833432,
      "d": 833.3334166666318,
      "v": 82
    },
    {
      "midi": 43,
      "hit": false,
      "t": 243189.4182583343,
      "d": 212.12123333330965,
      "v": 80
    },
    {
      "midi": 69,
      "hit": false,
      "t": 243189.4182583343,
      "d": 1681.8183499999868,
      "v": 80
    },
    {
      "midi": 45,
      "hit": false,
      "t": 243416.69100833428,
      "d": 212.12123333333875,
      "v": 78
    },
    {
      "midi": 46,
      "hit": false,
      "t": 243643.96375833428,
      "d": 431.81822499999544,
      "v": 76
    },
    {
      "midi": 65,
      "hit": false,
      "t": 243643.96375833428,
      "d": 1189.3940583333315,
      "v": 76
    },
    {
      "midi": 60,
      "hit": false,
      "t": 243643.96375833428,
      "d": 1227.2728500000085,
      "v": 76
    },
    {
      "midi": 46,
      "hit": false,
      "t": 244098.5092583343,
      "d": 863.6364499999909,
      "v": 74
    },
    {
      "midi": 67,
      "hit": false,
      "t": 245007.60025833428,
      "d": 318.1818499999936,
      "v": 72
    },
    {
      "midi": 46,
      "hit": false,
      "t": 245007.60025833428,
      "d": 356.06064166667056,
      "v": 72
    },
    {
      "midi": 69,
      "hit": false,
      "t": 245234.87300833428,
      "d": 318.1818499999936,
      "v": 70
    },
    {
      "midi": 46,
      "hit": false,
      "t": 245462.14575833429,
      "d": 431.81822499999544,
      "v": 68
    },
    {
      "midi": 60,
      "hit": false,
      "t": 245462.14575833429,
      "d": 431.81822499999544,
      "v": 68
    },
    {
      "midi": 65,
      "hit": false,
      "t": 245462.14575833429,
      "d": 431.81822499999544,
      "v": 68
    },
    {
      "midi": 70,
      "hit": false,
      "t": 245462.14575833429,
      "d": 628.7879416666692,
      "v": 68
    },
    {
      "midi": 60,
      "hit": false,
      "t": 245916.6912583343,
      "d": 431.81822499999544,
      "v": 66
    },
    {
      "midi": 65,
      "hit": false,
      "t": 245916.6912583343,
      "d": 431.81822499999544,
      "v": 66
    },
    {
      "midi": 69,
      "hit": false,
      "t": 245916.6912583343,
      "d": 553.0303583333443,
      "v": 66
    },
    {
      "midi": 46,
      "hit": false,
      "t": 245916.6912583343,
      "d": 772.727350000001,
      "v": 66
    },
    {
      "midi": 58,
      "hit": false,
      "t": 246371.2367583343,
      "d": 431.81822499999544,
      "v": 64
    },
    {
      "midi": 65,
      "hit": false,
      "t": 246371.2367583343,
      "d": 431.81822499999544,
      "v": 64
    },
    {
      "midi": 60,
      "hit": false,
      "t": 246409.11555000098,
      "d": 393.93943333331845,
      "v": 64
    },
    {
      "midi": 65,
      "hit": false,
      "t": 246825.7822583343,
      "d": 212.12123333333875,
      "v": 62
    },
    {
      "midi": 46,
      "hit": false,
      "t": 246825.7822583343,
      "d": 553.0303583333443,
      "v": 62
    },
    {
      "midi": 65,
      "hit": false,
      "t": 247053.0550083343,
      "d": 3666.6670333333313,
      "v": 60
    }
  ]
}