{
  "jsonPath": "Rock/Seattle Indie/Tullycraft/the-last-song.json",
  "path": "Rock\\Seattle Indie\\Tullycraft\\The Last Song.mid",
  "name": "The Last Song",
  "difficulty": "Advanced",
  "bpm": 115.00002875000719,
  "notes": [
    {
      "midi": 60,
      "hit": false,
      "t": 16695.648,
      "d": 86.95650000000023,
      "v": 110
    },
    {
      "midi": 36,
      "hit": false,
      "t": 16695.648,
      "d": 347.82600000000093,
      "v": 100
    },
    {
      "midi": 60,
      "hit": false,
      "t": 16826.08275,
      "d": 86.95650000000023,
      "v": 110
    },
    {
      "midi": 60,
      "hit": false,
      "t": 16956.5175,
      "d": 86.95650000000023,
      "v": 110
    },
    {
      "midi": 55,
      "hit": false,
      "t": 16956.5175,
      "d": 217.39125000000058,
      "v": 99
    },
    {
      "midi": 64,
      "hit": false,
      "t": 16956.5175,
      "d": 217.39125000000058,
      "v": 99
    },
    {
      "midi": 60,
      "hit": false,
      "t": 17086.952250000002,
      "d": 86.95650000000023,
      "v": 110
    },
    {
      "midi": 60,
      "hit": false,
      "t": 17217.387000000002,
      "d": 86.95650000000023,
      "v": 110
    },
    {
      "midi": 36,
      "hit": false,
      "t": 17217.387000000002,
      "d": 260.8695000000007,
      "v": 100
    },
    {
      "midi": 60,
      "hit": false,
      "t": 17347.821750000003,
      "d": 86.95650000000023,
      "v": 110
    },
    {
      "midi": 55,
      "hit": false,
      "t": 17347.821750000003,
      "d": 217.39125000000058,
      "v": 94
    },
    {
      "midi": 64,
      "hit": false,
      "t": 17347.821750000003,
      "d": 217.39125000000058,
      "v": 94
    },
    {
      "midi": 60,
      "hit": false,
      "t": 17478.256500000003,
      "d": 86.95650000000023,
      "v": 110
    },
    {
      "midi": 60,
      "hit": false,
      "t": 17608.691250000003,
      "d": 86.95650000000023,
      "v": 110
    },
    {
      "midi": 36,
      "hit": false,
      "t": 17608.691250000003,
      "d": 260.8695000000007,
      "v": 100
    },
    {
      "midi": 60,
      "hit": false,
      "t": 17739.126000000004,
      "d": 86.95650000000023,
      "v": 110
    },
    {
      "midi": 55,
      "hit": false,
      "t": 17739.126000000004,
      "d": 217.39125000000058,
      "v": 97
    },
    {
      "midi": 64,
      "hit": false,
      "t": 17739.126000000004,
      "d": 217.39125000000058,
      "v": 97
    },
    {
      "midi": 60,
      "hit": false,
      "t": 17869.560750000004,
      "d": 86.95650000000023,
      "v": 110
    },
    {
      "midi": 60,
      "hit": false,
      "t": 17999.995500000005,
      "d": 86.95650000000023,
      "v": 110
    },
    {
      "midi": 36,
      "hit": false,
      "t": 17999.995500000005,
      "d": 260.8695000000007,
      "v": 100
    },
    {
      "midi": 60,
      "hit": false,
      "t": 18130.430250000005,
      "d": 86.95650000000023,
      "v": 110
    },
    {
      "midi": 55,
      "hit": false,
      "t": 18130.430250000005,
      "d": 217.39125000000058,
      "v": 100
    },
    {
      "midi": 64,
      "hit": false,
      "t": 18130.430250000005,
      "d": 217.39125000000058,
      "v": 100
    },
    {
      "midi": 60,
      "hit": false,
      "t": 18260.865000000005,
      "d": 86.95650000000023,
      "v": 110
    },
    {
      "midi": 60,
      "hit": false,
      "t": 18391.299750000006,
      "d": 86.95650000000023,
      "v": 110
    },
    {
      "midi": 36,
      "hit": false,
      "t": 18391.299750000006,
      "d": 260.8695000000007,
      "v": 100
    },
    {
      "midi": 60,
      "hit": false,
      "t": 18521.734500000006,
      "d": 86.95650000000023,
      "v": 110
    },
    {
      "midi": 55,
      "hit": false,
      "t": 18521.734500000006,
      "d": 217.39125000000058,
      "v": 94
    },
    {
      "midi": 64,
      "hit": false,
      "t": 18521.734500000006,
      "d": 217.39125000000058,
      "v": 94
    },
    {
      "midi": 60,
      "hit": false,
      "t": 18652.169250000006,
      "d": 86.95650000000023,
      "v": 110
    },
    {
      "midi": 55,
      "hit": false,
      "t": 18782.604000000007,
      "d": 86.95650000000023,
      "v": 110
    },
    {
      "midi": 43,
      "hit": false,
      "t": 18782.604000000007,
      "d": 347.82600000000093,
      "v": 100
    },
    {
      "midi": 55,
      "hit": false,
      "t": 18913.038750000007,
      "d": 86.95650000000023,
      "v": 110
    },
    {
      "midi": 55,
      "hit": false,
      "t": 19043.473500000007,
      "d": 86.95650000000023,
      "v": 110
    },
    {
      "midi": 59,
      "hit": false,
      "t": 19043.473500000007,
      "d": 217.39125000000058,
      "v": 99
    },
    {
      "midi": 62,
      "hit": false,
      "t": 19043.473500000007,
      "d": 217.39125000000058,
      "v": 99
    },
    {
      "midi": 55,
      "hit": false,
      "t": 19173.908250000008,
      "d": 86.95650000000023,
      "v": 110
    },
    {
      "midi": 55,
      "hit": false,
      "t": 19304.343000000008,
      "d": 86.95650000000023,
      "v": 110
    },
    {
      "midi": 43,
      "hit": false,
      "t": 19304.343000000008,
      "d": 260.8695000000007,
      "v": 100
    },
    {
      "midi": 55,
      "hit": false,
      "t": 19434.77775000001,
      "d": 86.95650000000023,
      "v": 110
    },
    {
      "midi": 59,
      "hit": false,
      "t": 19434.77775000001,
      "d": 217.39125000000058,
      "v": 94
    },
    {
      "midi": 62,
      "hit": false,
      "t": 19434.77775000001,
      "d": 217.39125000000058,
      "v": 94
    },
    {
      "midi": 55,
      "hit": false,
      "t": 19565.21250000001,
      "d": 86.95650000000023,
      "v": 110
    },
    {
      "midi": 55,
      "hit": false,
      "t": 19695.64725000001,
      "d": 86.95650000000023,
      "v": 110
    },
    {
      "midi": 43,
      "hit": false,
      "t": 19695.64725000001,
      "d": 260.8695000000007,
      "v": 100
    },
    {
      "midi": 55,
      "hit": false,
      "t": 19826.08200000001,
      "d": 86.95650000000023,
      "v": 110
    },
    {
      "midi": 59,
      "hit": false,
      "t": 19826.08200000001,
      "d": 217.39125000000058,
      "v": 97
    },
    {
      "midi": 62,
      "hit": false,
      "t": 19826.08200000001,
      "d": 217.39125000000058,
      "v": 97
    },
    {
      "midi": 55,
      "hit": false,
      "t": 19956.51675000001,
      "d": 86.95650000000023,
      "v": 110
    },
    {
      "midi": 55,
      "hit": false,
      "t": 20086.95150000001,
      "d": 86.95650000000023,
      "v": 110
    },
    {
      "midi": 43,
      "hit": false,
      "t": 20086.95150000001,
      "d": 260.8695000000007,
      "v": 100
    },
    {
      "midi": 55,
      "hit": false,
      "t": 20217.38625000001,
      "d": 86.95650000000023,
      "v": 110
    },
    {
      "midi": 59,
      "hit": false,
      "t": 20217.38625000001,
      "d": 217.39125000000058,
      "v": 100
    },
    {
      "midi": 62,
      "hit": false,
      "t": 20217.38625000001,
      "d": 217.39125000000058,
      "v": 100
    },
    {
      "midi": 55,
      "hit": false,
      "t": 20347.82100000001,
      "d": 86.95650000000023,
      "v": 110
    },
    {
      "midi": 55,
      "hit": false,
      "t": 20478.25575000001,
      "d": 86.95650000000023,
      "v": 110
    },
    {
      "midi": 43,
      "hit": false,
      "t": 20478.25575000001,
      "d": 260.8695000000007,
      "v": 100
    },
    {
      "midi": 55,
      "hit": false,
      "t": 20608.69050000001,
      "d": 86.95650000000023,
      "v": 110
    },
    {
      "midi": 59,
      "hit": false,
      "t": 20608.69050000001,
      "d": 217.39125000000058,
      "v": 94
    },
    {
      "midi": 62,
      "hit": false,
      "t": 20608.69050000001,
      "d": 217.39125000000058,
      "v": 94
    },
    {
      "midi": 55,
      "hit": false,
      "t": 20739.125250000012,
      "d": 86.95650000000023,
      "v": 110
    },
    {
      "midi": 57,
      "hit": false,
      "t": 20869.560000000012,
      "d": 86.95650000000023,
      "v": 110
    },
    {
      "midi": 45,
      "hit": false,
      "t": 20869.560000000012,
      "d": 347.82600000000093,
      "v": 100
    },
    {
      "midi": 57,
      "hit": false,
      "t": 20999.994750000013,
      "d": 86.95650000000023,
      "v": 110
    },
    {
      "midi": 57,
      "hit": false,
      "t": 21130.429500000013,
      "d": 86.95650000000023,
      "v": 110
    },
    {
      "midi": 52,
      "hit": false,
      "t": 21130.429500000013,
      "d": 217.39125000000058,
      "v": 99
    },
    {
      "midi": 60,
      "hit": false,
      "t": 21130.429500000013,
      "d": 217.39125000000058,
      "v": 99
    },
    {
      "midi": 57,
      "hit": false,
      "t": 21260.864250000013,
      "d": 86.95650000000023,
      "v": 110
    },
    {
      "midi": 57,
      "hit": false,
      "t": 21391.299000000014,
      "d": 86.95650000000023,
      "v": 110
    },
    {
      "midi": 45,
      "hit": false,
      "t": 21391.299000000014,
      "d": 260.8695000000007,
      "v": 100
    },
    {
      "midi": 57,
      "hit": false,
      "t": 21521.733750000014,
      "d": 86.95650000000023,
      "v": 110
    },
    {
      "midi": 52,
      "hit": false,
      "t": 21521.733750000014,
      "d": 217.39125000000058,
      "v": 94
    },
    {
      "midi": 60,
      "hit": false,
      "t": 21521.733750000014,
      "d": 217.39125000000058,
      "v": 94
    },
    {
      "midi": 57,
      "hit": false,
      "t": 21652.168500000014,
      "d": 86.95650000000023,
      "v": 110
    },
    {
      "midi": 57,
      "hit": false,
      "t": 21782.603250000015,
      "d": 86.95650000000023,
      "v": 110
    },
    {
      "midi": 45,
      "hit": false,
      "t": 21782.603250000015,
      "d": 260.8695000000007,
      "v": 100
    },
    {
      "midi": 57,
      "hit": false,
      "t": 21913.038000000015,
      "d": 86.95650000000023,
      "v": 110
    },
    {
      "midi": 52,
      "hit": false,
      "t": 21913.038000000015,
      "d": 217.39125000000058,
      "v": 97
    },
    {
      "midi": 60,
      "hit": false,
      "t": 21913.038000000015,
      "d": 217.39125000000058,
      "v": 97
    },
    {
      "midi": 57,
      "hit": false,
      "t": 22043.472750000015,
      "d": 86.95650000000023,
      "v": 110
    },
    {
      "midi": 57,
      "hit": false,
      "t": 22173.907500000016,
      "d": 86.95650000000023,
      "v": 110
    },
    {
      "midi": 45,
      "hit": false,
      "t": 22173.907500000016,
      "d": 260.8695000000007,
      "v": 100
    },
    {
      "midi": 57,
      "hit": false,
      "t": 22304.342250000016,
      "d": 86.95650000000023,
      "v": 110
    },
    {
      "midi": 52,
      "hit": false,
      "t": 22304.342250000016,
      "d": 217.39125000000058,
      "v": 100
    },
    {
      "midi": 60,
      "hit": false,
      "t": 22304.342250000016,
      "d": 217.39125000000058,
      "v": 100
    },
    {
      "midi": 57,
      "hit": false,
      "t": 22434.777000000016,
      "d": 86.95650000000023,
      "v": 110
    },
    {
      "midi": 57,
      "hit": false,
      "t": 22565.211750000017,
      "d": 86.95650000000023,
      "v": 110
    },
    {
      "midi": 45,
      "hit": false,
      "t": 22565.211750000017,
      "d": 260.8695000000007,
      "v": 100
    },
    {
      "midi": 57,
      "hit": false,
      "t": 22695.646500000017,
      "d": 86.95650000000023,
      "v": 110
    },
    {
      "midi": 52,
      "hit": false,
      "t": 22695.646500000017,
      "d": 217.39125000000058,
      "v": 94
    },
    {
      "midi": 60,
      "hit": false,
      "t": 22695.646500000017,
      "d": 217.39125000000058,
      "v": 94
    },
    {
      "midi": 57,
      "hit": false,
      "t": 22826.081250000017,
      "d": 86.95650000000023,
      "v": 110
    },
    {
      "midi": 52,
      "hit": false,
      "t": 22956.516000000018,
      "d": 86.95650000000023,
      "v": 110
    },
    {
      "midi": 40,
      "hit": false,
      "t": 22956.516000000018,
      "d": 347.82600000000093,
      "v": 100
    },
    {
      "midi": 52,
      "hit": false,
      "t": 23086.950750000018,
      "d": 86.95650000000023,
      "v": 110
    },
    {
      "midi": 52,
      "hit": false,
      "t": 23217.38550000002,
      "d": 86.95650000000023,
      "v": 110
    },
    {
      "midi": 55,
      "hit": false,
      "t": 23217.38550000002,
      "d": 217.39125000000058,
      "v": 99
    },
    {
      "midi": 59,
      "hit": false,
      "t": 23217.38550000002,
      "d": 217.39125000000058,
      "v": 99
    },
    {
      "midi": 52,
      "hit": false,
      "t": 23347.82025000002,
      "d": 86.95650000000023,
      "v": 110
    },
    {
      "midi": 52,
      "hit": false,
      "t": 23478.25500000002,
      "d": 86.95650000000023,
      "v": 110
    },
    {
      "midi": 40,
      "hit": false,
      "t": 23478.25500000002,
      "d": 260.8695000000007,
      "v": 100
    },
    {
      "midi": 52,
      "hit": false,
      "t": 23608.68975000002,
      "d": 86.95650000000023,
      "v": 110
    },
    {
      "midi": 55,
      "hit": false,
      "t": 23608.68975000002,
      "d": 217.39125000000058,
      "v": 94
    },
    {
      "midi": 59,
      "hit": false,
      "t": 23608.68975000002,
      "d": 217.39125000000058,
      "v": 94
    },
    {
      "midi": 52,
      "hit": false,
      "t": 23739.12450000002,
      "d": 86.95650000000023,
      "v": 110
    },
    {
      "midi": 52,
      "hit": false,
      "t": 23869.55925000002,
      "d": 86.95650000000023,
      "v": 110
    },
    {
      "midi": 40,
      "hit": false,
      "t": 23869.55925000002,
      "d": 260.8695000000007,
      "v": 100
    },
    {
      "midi": 52,
      "hit": false,
      "t": 23999.99400000002,
      "d": 86.95650000000023,
      "v": 110
    },
    {
      "midi": 55,
      "hit": false,
      "t": 23999.99400000002,
      "d": 217.39125000000058,
      "v": 97
    },
    {
      "midi": 59,
      "hit": false,
      "t": 23999.99400000002,
      "d": 217.39125000000058,
      "v": 97
    },
    {
      "midi": 52,
      "hit": false,
      "t": 24130.42875000002,
      "d": 86.95650000000023,
      "v": 110
    },
    {
      "midi": 52,
      "hit": false,
      "t": 24260.86350000002,
      "d": 86.95650000000023,
      "v": 110
    },
    {
      "midi": 40,
      "hit": false,
      "t": 24260.86350000002,
      "d": 260.8695000000007,
      "v": 100
    },
    {
      "midi": 52,
      "hit": false,
      "t": 24391.29825000002,
      "d": 86.95650000000023,
      "v": 110
    },
    {
      "midi": 55,
      "hit": false,
      "t": 24391.29825000002,
      "d": 217.39125000000058,
      "v": 100
    },
    {
      "midi": 59,
      "hit": false,
      "t": 24391.29825000002,
      "d": 217.39125000000058,
      "v": 100
    },
    {
      "midi": 52,
      "hit": false,
      "t": 24521.733000000022,
      "d": 86.95650000000023,
      "v": 110
    },
    {
      "midi": 52,
      "hit": false,
      "t": 24652.167750000022,
      "d": 86.95650000000023,
      "v": 110
    },
    {
      "midi": 40,
      "hit": false,
      "t": 24652.167750000022,
      "d": 260.8695000000007,
      "v": 100
    },
    {
      "midi": 52,
      "hit": false,
      "t": 24782.602500000023,
      "d": 86.95650000000023,
      "v": 110
    },
    {
      "midi": 55,
      "hit": false,
      "t": 24782.602500000023,
      "d": 217.39125000000058,
      "v": 94
    },
    {
      "midi": 59,
      "hit": false,
      "t": 24782.602500000023,
      "d": 217.39125000000058,
      "v": 94
    },
    {
      "midi": 52,
      "hit": false,
      "t": 24913.037250000023,
      "d": 86.95650000000023,
      "v": 110
    },
    {
      "midi": 53,
      "hit": false,
      "t": 25043.472000000023,
      "d": 86.95650000000023,
      "v": 110
    },
    {
      "midi": 41,
      "hit": false,
      "t": 25043.472000000023,
      "d": 347.82600000000093,
      "v": 100
    },
    {
      "midi": 53,
      "hit": false,
      "t": 25173.906750000024,
      "d": 86.95650000000023,
      "v": 110
    },
    {
      "midi": 53,
      "hit": false,
      "t": 25304.341500000024,
      "d": 86.95650000000023,
      "v": 110
    },
    {
      "midi": 57,
      "hit": false,
      "t": 25304.341500000024,
      "d": 217.39125000000058,
      "v": 99
    },
    {
      "midi": 60,
      "hit": false,
      "t": 25304.341500000024,
      "d": 217.39125000000058,
      "v": 99
    },
    {
      "midi": 53,
      "hit": false,
      "t": 25434.776250000024,
      "d": 86.95650000000023,
      "v": 110
    },
    {
      "midi": 53,
      "hit": false,
      "t": 25565.211000000025,
      "d": 86.95650000000023,
      "v": 110
    },
    {
      "midi": 41,
      "hit": false,
      "t": 25565.211000000025,
      "d": 260.8695000000007,
      "v": 100
    },
    {
      "midi": 53,
      "hit": false,
      "t": 25695.645750000025,
      "d": 86.95650000000023,
      "v": 110
    },
    {
      "midi": 57,
      "hit": false,
      "t": 25695.645750000025,
      "d": 217.39125000000058,
      "v": 94
    },
    {
      "midi": 60,
      "hit": false,
      "t": 25695.645750000025,
      "d": 217.39125000000058,
      "v": 94
    },
    {
      "midi": 53,
      "hit": false,
      "t": 25826.080500000025,
      "d": 86.95650000000023,
      "v": 110
    },
    {
      "midi": 53,
      "hit": false,
      "t": 25956.515250000026,
      "d": 86.95650000000023,
      "v": 110
    },
    {
      "midi": 41,
      "hit": false,
      "t": 25956.515250000026,
      "d": 260.8695000000007,
      "v": 100
    },
    {
      "midi": 53,
      "hit": false,
      "t": 26086.950000000026,
      "d": 86.95650000000023,
      "v": 110
    },
    {
      "midi": 57,
      "hit": false,
      "t": 26086.950000000026,
      "d": 217.39125000000058,
      "v": 97
    },
    {
      "midi": 60,
      "hit": false,
      "t": 26086.950000000026,
      "d": 217.39125000000058,
      "v": 97
    },
    {
      "midi": 53,
      "hit": false,
      "t": 26217.384750000027,
      "d": 86.95650000000023,
      "v": 110
    },
    {
      "midi": 53,
      "hit": false,
      "t": 26347.819500000027,
      "d": 86.95650000000023,
      "v": 110
    },
    {
      "midi": 41,
      "hit": false,
      "t": 26347.819500000027,
      "d": 260.8695000000007,
      "v": 100
    },
    {
      "midi": 53,
      "hit": false,
      "t": 26478.254250000027,
      "d": 86.95650000000023,
      "v": 110
    },
    {
      "midi": 57,
      "hit": false,
      "t": 26478.254250000027,
      "d": 217.39125000000058,
      "v": 100
    },
    {
      "midi": 60,
      "hit": false,
      "t": 26478.254250000027,
      "d": 217.39125000000058,
      "v": 100
    },
    {
      "midi": 53,
      "hit": false,
      "t": 26608.689000000028,
      "d": 86.95650000000023,
      "v": 110
    },
    {
      "midi": 53,
      "hit": false,
      "t": 26739.123750000028,
      "d": 86.95650000000023,
      "v": 110
    },
    {
      "midi": 41,
      "hit": false,
      "t": 26739.123750000028,
      "d": 260.8695000000007,
      "v": 100
    },
    {
      "midi": 53,
      "hit": false,
      "t": 26869.55850000003,
      "d": 86.95650000000023,
      "v": 110
    },
    {
      "midi": 57,
      "hit": false,
      "t": 26869.55850000003,
      "d": 217.39125000000058,
      "v": 94
    },
    {
      "midi": 60,
      "hit": false,
      "t": 26869.55850000003,
      "d": 217.39125000000058,
      "v": 94
    },
    {
      "midi": 53,
      "hit": false,
      "t": 26999.99325000003,
      "d": 86.95650000000023,
      "v": 110
    },
    {
      "midi": 60,
      "hit": false,
      "t": 27130.42800000003,
      "d": 86.95650000000023,
      "v": 110
    },
    {
      "midi": 36,
      "hit": false,
      "t": 27130.42800000003,
      "d": 347.82600000000093,
      "v": 100
    },
    {
      "midi": 60,
      "hit": false,
      "t": 27260.86275000003,
      "d": 86.95650000000023,
      "v": 110
    },
    {
      "midi": 60,
      "hit": false,
      "t": 27391.29750000003,
      "d": 86.95650000000023,
      "v": 110
    },
    {
      "midi": 55,
      "hit": false,
      "t": 27391.29750000003,
      "d": 217.39125000000058,
      "v": 99
    },
    {
      "midi": 64,
      "hit": false,
      "t": 27391.29750000003,
      "d": 217.39125000000058,
      "v": 99
    },
    {
      "midi": 60,
      "hit": false,
      "t": 27521.73225000003,
      "d": 86.95650000000023,
      "v": 110
    },
    {
      "midi": 60,
      "hit": false,
      "t": 27652.16700000003,
      "d": 86.95650000000023,
      "v": 110
    },
    {
      "midi": 36,
      "hit": false,
      "t": 27652.16700000003,
      "d": 260.8695000000007,
      "v": 100
    },
    {
      "midi": 60,
      "hit": false,
      "t": 27782.60175000003,
      "d": 86.95650000000023,
      "v": 110
    },
    {
      "midi": 55,
      "hit": false,
      "t": 27782.60175000003,
      "d": 217.39125000000058,
      "v": 94
    },
    {
      "midi": 64,
      "hit": false,
      "t": 27782.60175000003,
      "d": 217.39125000000058,
      "v": 94
    },
    {
      "midi": 60,
      "hit": false,
      "t": 27913.03650000003,
      "d": 86.95650000000023,
      "v": 110
    },
    {
      "midi": 60,
      "hit": false,
      "t": 28043.47125000003,
      "d": 86.95650000000023,
      "v": 110
    },
    {
      "midi": 36,
      "hit": false,
      "t": 28043.47125000003,
      "d": 260.8695000000007,
      "v": 100
    },
    {
      "midi": 60,
      "hit": false,
      "t": 28173.90600000003,
      "d": 86.95650000000023,
      "v": 110
    },
    {
      "midi": 55,
      "hit": false,
      "t": 28173.90600000003,
      "d": 217.39125000000058,
      "v": 97
    },
    {
      "midi": 64,
      "hit": false,
      "t": 28173.90600000003,
      "d": 217.39125000000058,
      "v": 97
    },
    {
      "midi": 60,
      "hit": false,
      "t": 28304.340750000032,
      "d": 86.95650000000023,
      "v": 110
    },
    {
      "midi": 60,
      "hit": false,
      "t": 28434.775500000032,
      "d": 86.95650000000023,
      "v": 110
    },
    {
      "midi": 36,
      "hit": false,
      "t": 28434.775500000032,
      "d": 260.8695000000007,
      "v": 100
    },
    {
      "midi": 60,
      "hit": false,
      "t": 28565.210250000033,
      "d": 86.95650000000023,
      "v": 110
    },
    {
      "midi": 55,
      "hit": false,
      "t": 28565.210250000033,
      "d": 217.39125000000058,
      "v": 100
    },
    {
      "midi": 64,
      "hit": false,
      "t": 28565.210250000033,
      "d": 217.39125000000058,
      "v": 100
    },
    {
      "midi": 60,
      "hit": false,
      "t": 28695.645000000033,
      "d": 86.95650000000023,
      "v": 110
    },
    {
      "midi": 60,
      "hit": false,
      "t": 28826.079750000034,
      "d": 86.95650000000023,
      "v": 110
    },
    {
      "midi": 36,
      "hit": false,
      "t": 28826.079750000034,
      "d": 260.8695000000007,
      "v": 100
    },
    {
      "midi": 60,
      "hit": false,
      "t": 28956.514500000034,
      "d": 86.95650000000023,
      "v": 110
    },
    {
      "midi": 55,
      "hit": false,
      "t": 28956.514500000034,
      "d": 217.39125000000058,
      "v": 94
    },
    {
      "midi": 64,
      "hit": false,
      "t": 28956.514500000034,
      "d": 217.39125000000058,
      "v": 94
    },
    {
      "midi": 60,
      "hit": false,
      "t": 29086.949250000034,
      "d": 86.95650000000023,
      "v": 110
    },
    {
      "midi": 62,
      "hit": false,
      "t": 29217.384000000035,
      "d": 86.95650000000023,
      "v": 110
    },
    {
      "midi": 38,
      "hit": false,
      "t": 29217.384000000035,
      "d": 347.82600000000093,
      "v": 100
    },
    {
      "midi": 62,
      "hit": false,
      "t": 29347.818750000035,
      "d": 86.95650000000023,
      "v": 110
    },
    {
      "midi": 62,
      "hit": false,
      "t": 29478.253500000035,
      "d": 86.95650000000023,
      "v": 110
    },
    {
      "midi": 50,
      "hit": false,
      "t": 29478.253500000035,
      "d": 217.39125000000058,
      "v": 99
    },
    {
      "midi": 53,
      "hit": false,
      "t": 29478.253500000035,
      "d": 217.39125000000058,
      "v": 99
    },
    {
      "midi": 57,
      "hit": false,
      "t": 29478.253500000035,
      "d": 217.39125000000058,
      "v": 99
    },
    {
      "midi": 60,
      "hit": false,
      "t": 29478.253500000035,
      "d": 217.39125000000058,
      "v": 99
    },
    {
      "midi": 62,
      "hit": false,
      "t": 29608.688250000036,
      "d": 86.95650000000023,
      "v": 110
    },
    {
      "midi": 62,
      "hit": false,
      "t": 29739.123000000036,
      "d": 86.95650000000023,
      "v": 110
    },
    {
      "midi": 38,
      "hit": false,
      "t": 29739.123000000036,
      "d": 260.8695000000007,
      "v": 100
    },
    {
      "midi": 62,
      "hit": false,
      "t": 29869.557750000036,
      "d": 86.95650000000023,
      "v": 110
    },
    {
      "midi": 50,
      "hit": false,
      "t": 29869.557750000036,
      "d": 217.39125000000058,
      "v": 94
    },
    {
      "midi": 53,
      "hit": false,
      "t": 29869.557750000036,
      "d": 217.39125000000058,
      "v": 94
    },
    {
      "midi": 57,
      "hit": false,
      "t": 29869.557750000036,
      "d": 217.39125000000058,
      "v": 94
    },
    {
      "midi": 60,
      "hit": false,
      "t": 29869.557750000036,
      "d": 217.39125000000058,
      "v": 94
    },
    {
      "midi": 62,
      "hit": false,
      "t": 29999.992500000037,
      "d": 86.95650000000023,
      "v": 110
    },
    {
      "midi": 62,
      "hit": false,
      "t": 30130.427250000037,
      "d": 86.95650000000023,
      "v": 110
    },
    {
      "midi": 38,
      "hit": false,
      "t": 30130.427250000037,
      "d": 260.8695000000007,
      "v": 100
    },
    {
      "midi": 62,
      "hit": false,
      "t": 30260.862000000037,
      "d": 86.95650000000023,
      "v": 110
    },
    {
      "midi": 50,
      "hit": false,
      "t": 30260.862000000037,
      "d": 217.39125000000058,
      "v": 97
    },
    {
      "midi": 53,
      "hit": false,
      "t": 30260.862000000037,
      "d": 217.39125000000058,
      "v": 97
    },
    {
      "midi": 57,
      "hit": false,
      "t": 30260.862000000037,
      "d": 217.39125000000058,
      "v": 97
    },
    {
      "midi": 60,
      "hit": false,
      "t": 30260.862000000037,
      "d": 217.39125000000058,
      "v": 97
    },
    {
      "midi": 62,
      "hit": false,
      "t": 30391.296750000038,
      "d": 86.95650000000023,
      "v": 110
    },
    {
      "midi": 62,
      "hit": false,
      "t": 30521.731500000038,
      "d": 86.95650000000023,
      "v": 110
    },
    {
      "midi": 38,
      "hit": false,
      "t": 30521.731500000038,
      "d": 260.8695000000007,
      "v": 100
    },
    {
      "midi": 62,
      "hit": false,
      "t": 30652.16625000004,
      "d": 86.95650000000023,
      "v": 110
    },
    {
      "midi": 50,
      "hit": false,
      "t": 30652.16625000004,
      "d": 217.39125000000058,
      "v": 100
    },
    {
      "midi": 53,
      "hit": false,
      "t": 30652.16625000004,
      "d": 217.39125000000058,
      "v": 100
    },
    {
      "midi": 57,
      "hit": false,
      "t": 30652.16625000004,
      "d": 217.39125000000058,
      "v": 100
    },
    {
      "midi": 60,
      "hit": false,
      "t": 30652.16625000004,
      "d": 217.39125000000058,
      "v": 100
    },
    {
      "midi": 62,
      "hit": false,
      "t": 30782.60100000004,
      "d": 86.95650000000023,
      "v": 110
    },
    {
      "midi": 62,
      "hit": false,
      "t": 30913.03575000004,
      "d": 86.95650000000023,
      "v": 110
    },
    {
      "midi": 38,
      "hit": false,
      "t": 30913.03575000004,
      "d": 260.8695000000007,
      "v": 100
    },
    {
      "midi": 62,
      "hit": false,
      "t": 31043.47050000004,
      "d": 86.95650000000023,
      "v": 110
    },
    {
      "midi": 50,
      "hit": false,
      "t": 31043.47050000004,
      "d": 217.39125000000058,
      "v": 94
    },
    {
      "midi": 53,
      "hit": false,
      "t": 31043.47050000004,
      "d": 217.39125000000058,
      "v": 94
    },
    {
      "midi": 57,
      "hit": false,
      "t": 31043.47050000004,
      "d": 217.39125000000058,
      "v": 94
    },
    {
      "midi": 60,
      "hit": false,
      "t": 31043.47050000004,
      "d": 217.39125000000058,
      "v": 94
    },
    {
      "midi": 62,
      "hit": false,
      "t": 31173.90525000004,
      "d": 86.95650000000023,
      "v": 110
    },
    {
      "midi": 55,
      "hit": false,
      "t": 31304.34000000004,
      "d": 86.95650000000023,
      "v": 110
    },
    {
      "midi": 43,
      "hit": false,
      "t": 31304.34000000004,
      "d": 347.82600000000093,
      "v": 100
    },
    {
      "midi": 55,
      "hit": false,
      "t": 31434.77475000004,
      "d": 86.95650000000023,
      "v": 110
    },
    {
      "midi": 55,
      "hit": false,
      "t": 31565.20950000004,
      "d": 86.95650000000023,
      "v": 110
    },
    {
      "midi": 59,
      "hit": false,
      "t": 31565.20950000004,
      "d": 217.39125000000058,
      "v": 99
    },
    {
      "midi": 62,
      "hit": false,
      "t": 31565.20950000004,
      "d": 217.39125000000058,
      "v": 99
    },
    {
      "midi": 55,
      "hit": false,
      "t": 31695.64425000004,
      "d": 86.95650000000023,
      "v": 110
    },
    {
      "midi": 55,
      "hit": false,
      "t": 31826.07900000004,
      "d": 86.95650000000023,
      "v": 110
    },
    {
      "midi": 43,
      "hit": false,
      "t": 31826.07900000004,
      "d": 260.8695000000007,
      "v": 100
    },
    {
      "midi": 55,
      "hit": false,
      "t": 31956.513750000042,
      "d": 86.95650000000023,
      "v": 110
    },
    {
      "midi": 59,
      "hit": false,
      "t": 31956.513750000042,
      "d": 217.39125000000058,
      "v": 94
    },
    {
      "midi": 62,
      "hit": false,
      "t": 31956.513750000042,
      "d": 217.39125000000058,
      "v": 94
    },
    {
      "midi": 55,
      "hit": false,
      "t": 32086.948500000042,
      "d": 86.95650000000023,
      "v": 110
    },
    {
      "midi": 55,
      "hit": false,
      "t": 32217.383250000043,
      "d": 86.95650000000023,
      "v": 110
    },
    {
      "midi": 43,
      "hit": false,
      "t": 32217.383250000043,
      "d": 260.8695000000007,
      "v": 100
    },
    {
      "midi": 55,
      "hit": false,
      "t": 32347.818000000043,
      "d": 86.95650000000023,
      "v": 110
    },
    {
      "midi": 59,
      "hit": false,
      "t": 32347.818000000043,
      "d": 217.39125000000058,
      "v": 97
    },
    {
      "midi": 62,
      "hit": false,
      "t": 32347.818000000043,
      "d": 217.39125000000058,
      "v": 97
    },
    {
      "midi": 55,
      "hit": false,
      "t": 32478.252750000043,
      "d": 86.95650000000023,
      "v": 110
    },
    {
      "midi": 55,
      "hit": false,
      "t": 32608.687500000044,
      "d": 86.95650000000023,
      "v": 110
    },
    {
      "midi": 43,
      "hit": false,
      "t": 32608.687500000044,
      "d": 260.8695000000007,
      "v": 100
    },
    {
      "midi": 55,
      "hit": false,
      "t": 32739.122250000044,
      "d": 86.95650000000023,
      "v": 110
    },
    {
      "midi": 59,
      "hit": false,
      "t": 32739.122250000044,
      "d": 217.39125000000058,
      "v": 100
    },
    {
      "midi": 62,
      "hit": false,
      "t": 32739.122250000044,
      "d": 217.39125000000058,
      "v": 100
    },
    {
      "midi": 55,
      "hit": false,
      "t": 32869.557000000044,
      "d": 86.95650000000023,
      "v": 110
    },
    {
      "midi": 55,
      "hit": false,
      "t": 32999.991750000045,
      "d": 86.95650000000023,
      "v": 110
    },
    {
      "midi": 43,
      "hit": false,
      "t": 32999.991750000045,
      "d": 260.8695000000007,
      "v": 100
    },
    {
      "midi": 55,
      "hit": false,
      "t": 33130.426500000045,
      "d": 86.95650000000023,
      "v": 110
    },
    {
      "midi": 59,
      "hit": false,
      "t": 33130.426500000045,
      "d": 217.39125000000058,
      "v": 94
    },
    {
      "midi": 62,
      "hit": false,
      "t": 33130.426500000045,
      "d": 217.39125000000058,
      "v": 94
    },
    {
      "midi": 55,
      "hit": false,
      "t": 33260.861250000045,
      "d": 86.95650000000023,
      "v": 110
    },
    {
      "midi": 60,
      "hit": false,
      "t": 33391.296000000046,
      "d": 86.95650000000023,
      "v": 110
    },
    {
      "midi": 36,
      "hit": false,
      "t": 33391.296000000046,
      "d": 347.82600000000093,
      "v": 100
    },
    {
      "midi": 60,
      "hit": false,
      "t": 33521.730750000046,
      "d": 86.95650000000023,
      "v": 110
    },
    {
      "midi": 60,
      "hit": false,
      "t": 33652.16550000005,
      "d": 86.95650000000023,
      "v": 110
    },
    {
      "midi": 60,
      "hit": false,
      "t": 33782.60025000005,
      "d": 86.95650000000023,
      "v": 110
    },
    {
      "midi": 60,
      "hit": false,
      "t": 33913.03500000005,
      "d": 86.95650000000023,
      "v": 110
    },
    {
      "midi": 36,
      "hit": false,
      "t": 33913.03500000005,
      "d": 260.8695000000007,
      "v": 100
    },
    {
      "midi": 60,
      "hit": false,
      "t": 34043.46975000005,
      "d": 86.95650000000023,
      "v": 110
    },
    {
      "midi": 60,
      "hit": false,
      "t": 34173.90450000005,
      "d": 86.95650000000023,
      "v": 110
    },
    {
      "midi": 60,
      "hit": false,
      "t": 34304.33925000005,
      "d": 86.95650000000023,
      "v": 110
    },
    {
      "midi": 36,
      "hit": false,
      "t": 34304.33925000005,
      "d": 260.8695000000007,
      "v": 100
    },
    {
      "midi": 60,
      "hit": false,
      "t": 34434.77400000005,
      "d": 86.95650000000023,
      "v": 110
    },
    {
      "midi": 60,
      "hit": false,
      "t": 34565.20875000005,
      "d": 86.95650000000023,
      "v": 110
    },
    {
      "midi": 60,
      "hit": false,
      "t": 34695.64350000005,
      "d": 86.95650000000023,
      "v": 110
    },
    {
      "midi": 36,
      "hit": false,
      "t": 34695.64350000005,
      "d": 260.8695000000007,
      "v": 100
    },
    {
      "midi": 60,
      "hit": false,
      "t": 34826.07825000005,
      "d": 86.95650000000023,
      "v": 110
    },
    {
      "midi": 60,
      "hit": false,
      "t": 34956.51300000005,
      "d": 86.95650000000023,
      "v": 110
    },
    {
      "midi": 60,
      "hit": false,
      "t": 35086.94775000005,
      "d": 86.95650000000023,
      "v": 110
    },
    {
      "midi": 36,
      "hit": false,
      "t": 35086.94775000005,
      "d": 260.8695000000007,
      "v": 100
    },
    {
      "midi": 60,
      "hit": false,
      "t": 35217.38250000005,
      "d": 86.95650000000023,
      "v": 110
    },
    {
      "midi": 60,
      "hit": false,
      "t": 35347.81725000005,
      "d": 86.95650000000023,
      "v": 110
    },
    {
      "midi": 55,
      "hit": false,
      "t": 35478.25200000005,
      "d": 86.95650000000023,
      "v": 110
    },
    {
      "midi": 43,
      "hit": false,
      "t": 35478.25200000005,
      "d": 347.82600000000093,
      "v": 100
    },
    {
      "midi": 55,
      "hit": false,
      "t": 35608.68675000005,
      "d": 86.95650000000023,
      "v": 110
    },
    {
      "midi": 55,
      "hit": false,
      "t": 35739.12150000005,
      "d": 86.95650000000023,
      "v": 110
    },
    {
      "midi": 55,
      "hit": false,
      "t": 35869.55625000005,
      "d": 86.95650000000023,
      "v": 110
    },
    {
      "midi": 55,
      "hit": false,
      "t": 35999.99100000005,
      "d": 86.95650000000023,
      "v": 110
    },
    {
      "midi": 43,
      "hit": false,
      "t": 35999.99100000005,
      "d": 260.8695000000007,
      "v": 100
    },
    {
      "midi": 55,
      "hit": false,
      "t": 36130.42575000005,
      "d": 86.95650000000023,
      "v": 110
    },
    {
      "midi": 55,
      "hit": false,
      "t": 36260.86050000005,
      "d": 86.95650000000023,
      "v": 110
    },
    {
      "midi": 55,
      "hit": false,
      "t": 36391.295250000054,
      "d": 86.95650000000023,
      "v": 110
    },
    {
      "midi": 43,
      "hit": false,
      "t": 36391.295250000054,
      "d": 260.8695000000007,
      "v": 100
    },
    {
      "midi": 55,
      "hit": false,
      "t": 36521.730000000054,
      "d": 86.95650000000023,
      "v": 110
    },
    {
      "midi": 55,
      "hit": false,
      "t": 36652.164750000054,
      "d": 86.95650000000023,
      "v": 110
    },
    {
      "midi": 55,
      "hit": false,
      "t": 36782.599500000055,
      "d": 86.95650000000023,
      "v": 110
    },
    {
      "midi": 43,
      "hit": false,
      "t": 36782.599500000055,
      "d": 260.8695000000007,
      "v": 100
    },
    {
      "midi": 55,
      "hit": false,
      "t": 36913.034250000055,
      "d": 86.95650000000023,
      "v": 110
    },
    {
      "midi": 55,
      "hit": false,
      "t": 37043.469000000056,
      "d": 86.95650000000023,
      "v": 110
    },
    {
      "midi": 55,
      "hit": false,
      "t": 37173.903750000056,
      "d": 86.95650000000023,
      "v": 110
    },
    {
      "midi": 43,
      "hit": false,
      "t": 37173.903750000056,
      "d": 260.8695000000007,
      "v": 100
    },
    {
      "midi": 55,
      "hit": false,
      "t": 37304.338500000056,
      "d": 86.95650000000023,
      "v": 110
    },
    {
      "midi": 55,
      "hit": false,
      "t": 37434.77325000006,
      "d": 86.95650000000023,
      "v": 110
    },
    {
      "midi": 57,
      "hit": false,
      "t": 37565.20800000006,
      "d": 86.95650000000023,
      "v": 110
    },
    {
      "midi": 45,
      "hit": false,
      "t": 37565.20800000006,
      "d": 347.82600000000093,
      "v": 100
    },
    {
      "midi": 57,
      "hit": false,
      "t": 37695.64275000006,
      "d": 86.95650000000023,
      "v": 110
    },
    {
      "midi": 57,
      "hit": false,
      "t": 37826.07750000006,
      "d": 86.95650000000023,
      "v": 110
    },
    {
      "midi": 57,
      "hit": false,
      "t": 37956.51225000006,
      "d": 86.95650000000023,
      "v": 110
    },
    {
      "midi": 57,
      "hit": false,
      "t": 38086.94700000006,
      "d": 86.95650000000023,
      "v": 110
    },
    {
      "midi": 45,
      "hit": false,
      "t": 38086.94700000006,
      "d": 260.8695000000007,
      "v": 100
    },
    {
      "midi": 57,
      "hit": false,
      "t": 38217.38175000006,
      "d": 86.95650000000023,
      "v": 110
    },
    {
      "midi": 57,
      "hit": false,
      "t": 38347.81650000006,
      "d": 86.95650000000023,
      "v": 110
    },
    {
      "midi": 57,
      "hit": false,
      "t": 38478.25125000006,
      "d": 86.95650000000023,
      "v": 110
    },
    {
      "midi": 45,
      "hit": false,
      "t": 38478.25125000006,
      "d": 260.8695000000007,
      "v": 100
    },
    {
      "midi": 57,
      "hit": false,
      "t": 38608.68600000006,
      "d": 86.95650000000023,
      "v": 110
    },
    {
      "midi": 57,
      "hit": false,
      "t": 38739.12075000006,
      "d": 86.95650000000023,
      "v": 110
    },
    {
      "midi": 57,
      "hit": false,
      "t": 38869.55550000006,
      "d": 86.95650000000023,
      "v": 110
    },
    {
      "midi": 45,
      "hit": false,
      "t": 38869.55550000006,
      "d": 260.8695000000007,
      "v": 100
    },
    {
      "midi": 57,
      "hit": false,
      "t": 38999.99025000006,
      "d": 86.95650000000023,
      "v": 110
    },
    {
      "midi": 57,
      "hit": false,
      "t": 39130.42500000006,
      "d": 86.95650000000023,
      "v": 110
    },
    {
      "midi": 57,
      "hit": false,
      "t": 39260.85975000006,
      "d": 86.95650000000023,
      "v": 110
    },
    {
      "midi": 45,
      "hit": false,
      "t": 39260.85975000006,
      "d": 260.8695000000007,
      "v": 100
    },
    {
      "midi": 57,
      "hit": false,
      "t": 39391.29450000006,
      "d": 86.95650000000023,
      "v": 110
    },
    {
      "midi": 57,
      "hit": false,
      "t": 39521.72925000006,
      "d": 86.95650000000023,
      "v": 110
    },
    {
      "midi": 52,
      "hit": false,
      "t": 39652.16400000006,
      "d": 86.95650000000023,
      "v": 110
    },
    {
      "midi": 40,
      "hit": false,
      "t": 39652.16400000006,
      "d": 347.82600000000093,
      "v": 100
    },
    {
      "midi": 52,
      "hit": false,
      "t": 39782.59875000006,
      "d": 86.95650000000023,
      "v": 110
    },
    {
      "midi": 52,
      "hit": false,
      "t": 39913.03350000006,
      "d": 86.95650000000023,
      "v": 110
    },
    {
      "midi": 52,
      "hit": false,
      "t": 40043.46825000006,
      "d": 86.95650000000023,
      "v": 110
    },
    {
      "midi": 52,
      "hit": false,
      "t": 40173.903000000064,
      "d": 86.95650000000023,
      "v": 110
    },
    {
      "midi": 40,
      "hit": false,
      "t": 40173.903000000064,
      "d": 260.8695000000007,
      "v": 100
    },
    {
      "midi": 52,
      "hit": false,
      "t": 40304.337750000064,
      "d": 86.95650000000023,
      "v": 110
    },
    {
      "midi": 52,
      "hit": false,
      "t": 40434.772500000065,
      "d": 86.95650000000023,
      "v": 110
    },
    {
      "midi": 52,
      "hit": false,
      "t": 40565.207250000065,
      "d": 86.95650000000023,
      "v": 110
    },
    {
      "midi": 40,
      "hit": false,
      "t": 40565.207250000065,
      "d": 260.8695000000007,
      "v": 100
    },
    {
      "midi": 52,
      "hit": false,
      "t": 40695.642000000065,
      "d": 86.95650000000023,
      "v": 110
    },
    {
      "midi": 52,
      "hit": false,
      "t": 40826.076750000066,
      "d": 86.95650000000023,
      "v": 110
    },
    {
      "midi": 52,
      "hit": false,
      "t": 40956.511500000066,
      "d": 86.95650000000023,
      "v": 110
    },
    {
      "midi": 40,
      "hit": false,
      "t": 40956.511500000066,
      "d": 260.8695000000007,
      "v": 100
    },
    {
      "midi": 52,
      "hit": false,
      "t": 41086.946250000066,
      "d": 86.95650000000023,
      "v": 110
    },
    {
      "midi": 52,
      "hit": false,
      "t": 41217.38100000007,
      "d": 86.95650000000023,
      "v": 110
    },
    {
      "midi": 52,
      "hit": false,
      "t": 41347.81575000007,
      "d": 86.95650000000023,
      "v": 110
    },
    {
      "midi": 40,
      "hit": false,
      "t": 41347.81575000007,
      "d": 260.8695000000007,
      "v": 100
    },
    {
      "midi": 52,
      "hit": false,
      "t": 41478.25050000007,
      "d": 86.95650000000023,
      "v": 110
    },
    {
      "midi": 52,
      "hit": false,
      "t": 41608.68525000007,
      "d": 86.95650000000023,
      "v": 110
    },
    {
      "midi": 53,
      "hit": false,
      "t": 41739.12000000007,
      "d": 86.95650000000023,
      "v": 110
    },
    {
      "midi": 41,
      "hit": false,
      "t": 41739.12000000007,
      "d": 347.82600000000093,
      "v": 100
    },
    {
      "midi": 53,
      "hit": false,
      "t": 41869.55475000007,
      "d": 86.95650000000023,
      "v": 110
    },
    {
      "midi": 53,
      "hit": false,
      "t": 41999.98950000007,
      "d": 86.95650000000023,
      "v": 110
    },
    {
      "midi": 53,
      "hit": false,
      "t": 42130.42425000007,
      "d": 86.95650000000023,
      "v": 110
    },
    {
      "midi": 53,
      "hit": false,
      "t": 42260.85900000007,
      "d": 86.95650000000023,
      "v": 110
    },
    {
      "midi": 41,
      "hit": false,
      "t": 42260.85900000007,
      "d": 260.8695000000007,
      "v": 100
    },
    {
      "midi": 53,
      "hit": false,
      "t": 42391.29375000007,
      "d": 86.95650000000023,
      "v": 110
    },
    {
      "midi": 53,
      "hit": false,
      "t": 42521.72850000007,
      "d": 86.95650000000023,
      "v": 110
    },
    {
      "midi": 53,
      "hit": false,
      "t": 42652.16325000007,
      "d": 86.95650000000023,
      "v": 110
    },
    {
      "midi": 41,
      "hit": false,
      "t": 42652.16325000007,
      "d": 260.8695000000007,
      "v": 100
    },
    {
      "midi": 53,
      "hit": false,
      "t": 42782.59800000007,
      "d": 86.95650000000023,
      "v": 110
    },
    {
      "midi": 53,
      "hit": false,
      "t": 42913.03275000007,
      "d": 86.95650000000023,
      "v": 110
    },
    {
      "midi": 53,
      "hit": false,
      "t": 43043.46750000007,
      "d": 86.95650000000023,
      "v": 110
    },
    {
      "midi": 41,
      "hit": false,
      "t": 43043.46750000007,
      "d": 260.8695000000007,
      "v": 100
    },
    {
      "midi": 53,
      "hit": false,
      "t": 43173.90225000007,
      "d": 86.95650000000023,
      "v": 110
    },
    {
      "midi": 53,
      "hit": false,
      "t": 43304.33700000007,
      "d": 86.95650000000023,
      "v": 110
    },
    {
      "midi": 53,
      "hit": false,
      "t": 43434.77175000007,
      "d": 86.95650000000023,
      "v": 110
    },
    {
      "midi": 41,
      "hit": false,
      "t": 43434.77175000007,
      "d": 260.8695000000007,
      "v": 100
    },
    {
      "midi": 53,
      "hit": false,
      "t": 43565.20650000007,
      "d": 86.95650000000023,
      "v": 110
    },
    {
      "midi": 53,
      "hit": false,
      "t": 43695.64125000007,
      "d": 86.95650000000023,
      "v": 110
    },
    {
      "midi": 60,
      "hit": false,
      "t": 43826.076000000074,
      "d": 86.95650000000023,
      "v": 110
    },
    {
      "midi": 36,
      "hit": false,
      "t": 43826.076000000074,
      "d": 347.82600000000093,
      "v": 100
    },
    {
      "midi": 60,
      "hit": false,
      "t": 43956.510750000074,
      "d": 86.95650000000023,
      "v": 110
    },
    {
      "midi": 60,
      "hit": false,
      "t": 44086.945500000074,
      "d": 86.95650000000023,
      "v": 110
    },
    {
      "midi": 60,
      "hit": false,
      "t": 44217.380250000075,
      "d": 86.95650000000023,
      "v": 110
    },
    {
      "midi": 60,
      "hit": false,
      "t": 44347.815000000075,
      "d": 86.95650000000023,
      "v": 110
    },
    {
      "midi": 36,
      "hit": false,
      "t": 44347.815000000075,
      "d": 260.8695000000007,
      "v": 100
    },
    {
      "midi": 60,
      "hit": false,
      "t": 44478.249750000075,
      "d": 86.95650000000023,
      "v": 110
    },
    {
      "midi": 60,
      "hit": false,
      "t": 44608.684500000076,
      "d": 86.95650000000023,
      "v": 110
    },
    {
      "midi": 60,
      "hit": false,
      "t": 44739.119250000076,
      "d": 86.95650000000023,
      "v": 110
    },
    {
      "midi": 36,
      "hit": false,
      "t": 44739.119250000076,
      "d": 260.8695000000007,
      "v": 100
    },
    {
      "midi": 60,
      "hit": false,
      "t": 44869.55400000008,
      "d": 86.95650000000023,
      "v": 110
    },
    {
      "midi": 60,
      "hit": false,
      "t": 44999.98875000008,
      "d": 86.95650000000023,
      "v": 110
    },
    {
      "midi": 60,
      "hit": false,
      "t": 45130.42350000008,
      "d": 86.95650000000023,
      "v": 110
    },
    {
      "midi": 36,
      "hit": false,
      "t": 45130.42350000008,
      "d": 260.8695000000007,
      "v": 100
    },
    {
      "midi": 60,
      "hit": false,
      "t": 45260.85825000008,
      "d": 86.95650000000023,
      "v": 110
    },
    {
      "midi": 60,
      "hit": false,
      "t": 45391.29300000008,
      "d": 86.95650000000023,
      "v": 110
    },
    {
      "midi": 60,
      "hit": false,
      "t": 45521.72775000008,
      "d": 86.95650000000023,
      "v": 110
    },
    {
      "midi": 36,
      "hit": false,
      "t": 45521.72775000008,
      "d": 260.8695000000007,
      "v": 100
    },
    {
      "midi": 60,
      "hit": false,
      "t": 45652.16250000008,
      "d": 86.95650000000023,
      "v": 110
    },
    {
      "midi": 60,
      "hit": false,
      "t": 45782.59725000008,
      "d": 86.95650000000023,
      "v": 110
    },
    {
      "midi": 62,
      "hit": false,
      "t": 45913.03200000008,
      "d": 86.95650000000023,
      "v": 110
    },
    {
      "midi": 38,
      "hit": false,
      "t": 45913.03200000008,
      "d": 347.82600000000093,
      "v": 100
    },
    {
      "midi": 62,
      "hit": false,
      "t": 46043.46675000008,
      "d": 86.95650000000023,
      "v": 110
    },
    {
      "midi": 62,
      "hit": false,
      "t": 46173.90150000008,
      "d": 86.95650000000023,
      "v": 110
    },
    {
      "midi": 62,
      "hit": false,
      "t": 46304.33625000008,
      "d": 86.95650000000023,
      "v": 110
    },
    {
      "midi": 62,
      "hit": false,
      "t": 46434.77100000008,
      "d": 86.95650000000023,
      "v": 110
    },
    {
      "midi": 38,
      "hit": false,
      "t": 46434.77100000008,
      "d": 260.8695000000007,
      "v": 100
    },
    {
      "midi": 62,
      "hit": false,
      "t": 46565.20575000008,
      "d": 86.95650000000023,
      "v": 110
    },
    {
      "midi": 62,
      "hit": false,
      "t": 46695.64050000008,
      "d": 86.95650000000023,
      "v": 110
    },
    {
      "midi": 62,
      "hit": false,
      "t": 46826.07525000008,
      "d": 86.95650000000023,
      "v": 110
    },
    {
      "midi": 38,
      "hit": false,
      "t": 46826.07525000008,
      "d": 260.8695000000007,
      "v": 100
    },
    {
      "midi": 62,
      "hit": false,
      "t": 46956.51000000008,
      "d": 86.95650000000023,
      "v": 110
    },
    {
      "midi": 62,
      "hit": false,
      "t": 47086.94475000008,
      "d": 86.95650000000023,
      "v": 110
    },
    {
      "midi": 62,
      "hit": false,
      "t": 47217.37950000008,
      "d": 86.95650000000023,
      "v": 110
    },
    {
      "midi": 38,
      "hit": false,
      "t": 47217.37950000008,
      "d": 260.8695000000007,
      "v": 100
    },
    {
      "midi": 62,
      "hit": false,
      "t": 47347.81425000008,
      "d": 86.95650000000023,
      "v": 110
    },
    {
      "midi": 62,
      "hit": false,
      "t": 47478.24900000008,
      "d": 86.95650000000023,
      "v": 110
    },
    {
      "midi": 62,
      "hit": false,
      "t": 47608.683750000084,
      "d": 86.95650000000023,
      "v": 110
    },
    {
      "midi": 38,
      "hit": false,
      "t": 47608.683750000084,
      "d": 260.8695000000007,
      "v": 100
    },
    {
      "midi": 62,
      "hit": false,
      "t": 47739.118500000084,
      "d": 86.95650000000023,
      "v": 110
    },
    {
      "midi": 62,
      "hit": false,
      "t": 47869.553250000085,
      "d": 86.95650000000023,
      "v": 110
    },
    {
      "midi": 55,
      "hit": false,
      "t": 47999.988000000085,
      "d": 86.95650000000023,
      "v": 110
    },
    {
      "midi": 43,
      "hit": false,
      "t": 47999.988000000085,
      "d": 347.82600000000093,
      "v": 100
    },
    {
      "midi": 55,
      "hit": false,
      "t": 48130.422750000085,
      "d": 86.95650000000023,
      "v": 110
    },
    {
      "midi": 55,
      "hit": false,
      "t": 48260.857500000086,
      "d": 86.95650000000023,
      "v": 110
    },
    {
      "midi": 55,
      "hit": false,
      "t": 48391.292250000086,
      "d": 86.95650000000023,
      "v": 110
    },
    {
      "midi": 55,
      "hit": false,
      "t": 48521.727000000086,
      "d": 86.95650000000023,
      "v": 110
    },
    {
      "midi": 43,
      "hit": false,
      "t": 48521.727000000086,
      "d": 260.8695000000007,
      "v": 100
    },
    {
      "midi": 55,
      "hit": false,
      "t": 48652.16175000009,
      "d": 86.95650000000023,
      "v": 110
    },
    {
      "midi": 55,
      "hit": false,
      "t": 48782.59650000009,
      "d": 86.95650000000023,
      "v": 110
    },
    {
      "midi": 55,
      "hit": false,
      "t": 48913.03125000009,
      "d": 86.95650000000023,
      "v": 110
    },
    {
      "midi": 43,
      "hit": false,
      "t": 48913.03125000009,
      "d": 260.8695000000007,
      "v": 100
    },
    {
      "midi": 55,
      "hit": false,
      "t": 49043.46600000009,
      "d": 86.95650000000023,
      "v": 110
    },
    {
      "midi": 55,
      "hit": false,
      "t": 49173.90075000009,
      "d": 86.95650000000023,
      "v": 110
    },
    {
      "midi": 55,
      "hit": false,
      "t": 49304.33550000009,
      "d": 86.95650000000023,
      "v": 110
    },
    {
      "midi": 43,
      "hit": false,
      "t": 49304.33550000009,
      "d": 260.8695000000007,
      "v": 100
    },
    {
      "midi": 55,
      "hit": false,
      "t": 49434.77025000009,
      "d": 86.95650000000023,
      "v": 110
    },
    {
      "midi": 55,
      "hit": false,
      "t": 49565.20500000009,
      "d": 86.95650000000023,
      "v": 110
    },
    {
      "midi": 55,
      "hit": false,
      "t": 49695.63975000009,
      "d": 86.95650000000023,
      "v": 110
    },
    {
      "midi": 43,
      "hit": false,
      "t": 49695.63975000009,
      "d": 260.8695000000007,
      "v": 100
    },
    {
      "midi": 55,
      "hit": false,
      "t": 49826.07450000009,
      "d": 86.95650000000023,
      "v": 110
    },
    {
      "midi": 55,
      "hit": false,
      "t": 49956.50925000009,
      "d": 86.95650000000023,
      "v": 110
    },
    {
      "midi": 60,
      "hit": false,
      "t": 50086.94400000009,
      "d": 86.95650000000023,
      "v": 110
    },
    {
      "midi": 36,
      "hit": false,
      "t": 50086.94400000009,
      "d": 347.82600000000093,
      "v": 100
    },
    {
      "midi": 60,
      "hit": false,
      "t": 50217.37875000009,
      "d": 86.95650000000023,
      "v": 110
    },
    {
      "midi": 60,
      "hit": false,
      "t": 50347.81350000009,
      "d": 86.95650000000023,
      "v": 110
    },
    {
      "midi": 60,
      "hit": false,
      "t": 50478.24825000009,
      "d": 86.95650000000023,
      "v": 110
    },
    {
      "midi": 60,
      "hit": false,
      "t": 50608.68300000009,
      "d": 86.95650000000023,
      "v": 110
    },
    {
      "midi": 36,
      "hit": false,
      "t": 50608.68300000009,
      "d": 260.8695000000007,
      "v": 100
    },
    {
      "midi": 60,
      "hit": false,
      "t": 50739.11775000009,
      "d": 86.95650000000023,
      "v": 110
    },
    {
      "midi": 60,
      "hit": false,
      "t": 50869.55250000009,
      "d": 86.95650000000023,
      "v": 110
    },
    {
      "midi": 60,
      "hit": false,
      "t": 50999.98725000009,
      "d": 86.95650000000023,
      "v": 110
    },
    {
      "midi": 36,
      "hit": false,
      "t": 50999.98725000009,
      "d": 260.8695000000007,
      "v": 100
    },
    {
      "midi": 60,
      "hit": false,
      "t": 51130.42200000009,
      "d": 86.95650000000023,
      "v": 110
    },
    {
      "midi": 60,
      "hit": false,
      "t": 51260.85675000009,
      "d": 86.95650000000023,
      "v": 110
    },
    {
      "midi": 60,
      "hit": false,
      "t": 51391.291500000094,
      "d": 86.95650000000023,
      "v": 110
    },
    {
      "midi": 36,
      "hit": false,
      "t": 51391.291500000094,
      "d": 260.8695000000007,
      "v": 100
    },
    {
      "midi": 60,
      "hit": false,
      "t": 51521.726250000094,
      "d": 86.95650000000023,
      "v": 110
    },
    {
      "midi": 60,
      "hit": false,
      "t": 51652.161000000095,
      "d": 86.95650000000023,
      "v": 110
    },
    {
      "midi": 60,
      "hit": false,
      "t": 51782.595750000095,
      "d": 86.95650000000023,
      "v": 110
    },
    {
      "midi": 36,
      "hit": false,
      "t": 51782.595750000095,
      "d": 260.8695000000007,
      "v": 100
    },
    {
      "midi": 60,
      "hit": false,
      "t": 51913.030500000095,
      "d": 86.95650000000023,
      "v": 110
    },
    {
      "midi": 60,
      "hit": false,
      "t": 52043.465250000096,
      "d": 86.95650000000023,
      "v": 110
    },
    {
      "midi": 55,
      "hit": false,
      "t": 52173.900000000096,
      "d": 86.95650000000023,
      "v": 110
    },
    {
      "midi": 43,
      "hit": false,
      "t": 52173.900000000096,
      "d": 347.82600000000093,
      "v": 100
    },
    {
      "midi": 55,
      "hit": false,
      "t": 52304.3347500001,
      "d": 86.95650000000023,
      "v": 110
    },
    {
      "midi": 55,
      "hit": false,
      "t": 52434.7695000001,
      "d": 86.95650000000023,
      "v": 110
    },
    {
      "midi": 55,
      "hit": false,
      "t": 52565.2042500001,
      "d": 86.95650000000023,
      "v": 110
    },
    {
      "midi": 55,
      "hit": false,
      "t": 52695.6390000001,
      "d": 86.95650000000023,
      "v": 110
    },
    {
      "midi": 43,
      "hit": false,
      "t": 52695.6390000001,
      "d": 260.8695000000007,
      "v": 100
    },
    {
      "midi": 55,
      "hit": false,
      "t": 52826.0737500001,
      "d": 86.95650000000023,
      "v": 110
    },
    {
      "midi": 55,
      "hit": false,
      "t": 52956.5085000001,
      "d": 86.95650000000023,
      "v": 110
    },
    {
      "midi": 55,
      "hit": false,
      "t": 53086.9432500001,
      "d": 86.95650000000023,
      "v": 110
    },
    {
      "midi": 43,
      "hit": false,
      "t": 53086.9432500001,
      "d": 260.8695000000007,
      "v": 100
    },
    {
      "midi": 55,
      "hit": false,
      "t": 53217.3780000001,
      "d": 86.95650000000023,
      "v": 110
    },
    {
      "midi": 55,
      "hit": false,
      "t": 53347.8127500001,
      "d": 86.95650000000023,
      "v": 110
    },
    {
      "midi": 55,
      "hit": false,
      "t": 53478.2475000001,
      "d": 86.95650000000023,
      "v": 110
    },
    {
      "midi": 43,
      "hit": false,
      "t": 53478.2475000001,
      "d": 260.8695000000007,
      "v": 100
    },
    {
      "midi": 55,
      "hit": false,
      "t": 53608.6822500001,
      "d": 86.95650000000023,
      "v": 110
    },
    {
      "midi": 55,
      "hit": false,
      "t": 53739.1170000001,
      "d": 86.95650000000023,
      "v": 110
    },
    {
      "midi": 55,
      "hit": false,
      "t": 53869.5517500001,
      "d": 86.95650000000023,
      "v": 110
    },
    {
      "midi": 43,
      "hit": false,
      "t": 53869.5517500001,
      "d": 260.8695000000007,
      "v": 100
    },
    {
      "midi": 55,
      "hit": false,
      "t": 53999.9865000001,
      "d": 86.95650000000023,
      "v": 110
    },
    {
      "midi": 55,
      "hit": false,
      "t": 54130.4212500001,
      "d": 86.95650000000023,
      "v": 110
    },
    {
      "midi": 57,
      "hit": false,
      "t": 54260.8560000001,
      "d": 86.95650000000023,
      "v": 110
    },
    {
      "midi": 45,
      "hit": false,
      "t": 54260.8560000001,
      "d": 347.82600000000093,
      "v": 100
    },
    {
      "midi": 57,
      "hit": false,
      "t": 54391.2907500001,
      "d": 86.95650000000023,
      "v": 110
    },
    {
      "midi": 57,
      "hit": false,
      "t": 54521.7255000001,
      "d": 86.95650000000023,
      "v": 110
    },
    {
      "midi": 57,
      "hit": false,
      "t": 54652.1602500001,
      "d": 86.95650000000023,
      "v": 110
    },
    {
      "midi": 57,
      "hit": false,
      "t": 54782.5950000001,
      "d": 86.95650000000023,
      "v": 110
    },
    {
      "midi": 45,
      "hit": false,
      "t": 54782.5950000001,
      "d": 260.8695000000007,
      "v": 100
    },
    {
      "midi": 57,
      "hit": false,
      "t": 54913.0297500001,
      "d": 86.95650000000023,
      "v": 110
    },
    {
      "midi": 57,
      "hit": false,
      "t": 55043.464500000104,
      "d": 86.95650000000023,
      "v": 110
    },
    {
      "midi": 57,
      "hit": false,
      "t": 55173.899250000104,
      "d": 86.95650000000023,
      "v": 110
    },
    {
      "midi": 45,
      "hit": false,
      "t": 55173.899250000104,
      "d": 260.8695000000007,
      "v": 100
    },
    {
      "midi": 57,
      "hit": false,
      "t": 55304.334000000104,
      "d": 86.95650000000023,
      "v": 110
    },
    {
      "midi": 57,
      "hit": false,
      "t": 55434.768750000105,
      "d": 86.95650000000023,
      "v": 110
    },
    {
      "midi": 57,
      "hit": false,
      "t": 55565.203500000105,
      "d": 86.95650000000023,
      "v": 110
    },
    {
      "midi": 45,
      "hit": false,
      "t": 55565.203500000105,
      "d": 260.8695000000007,
      "v": 100
    },
    {
      "midi": 57,
      "hit": false,
      "t": 55695.638250000105,
      "d": 86.95650000000023,
      "v": 110
    },
    {
      "midi": 57,
      "hit": false,
      "t": 55826.073000000106,
      "d": 86.95650000000023,
      "v": 110
    },
    {
      "midi": 57,
      "hit": false,
      "t": 55956.507750000106,
      "d": 86.95650000000023,
      "v": 110
    },
    {
      "midi": 45,
      "hit": false,
      "t": 55956.507750000106,
      "d": 260.8695000000007,
      "v": 100
    },
    {
      "midi": 57,
      "hit": false,
      "t": 56086.94250000011,
      "d": 86.95650000000023,
      "v": 110
    },
    {
      "midi": 57,
      "hit": false,
      "t": 56217.37725000011,
      "d": 86.95650000000023,
      "v": 110
    },
    {
      "midi": 52,
      "hit": false,
      "t": 56347.81200000011,
      "d": 86.95650000000023,
      "v": 110
    },
    {
      "midi": 40,
      "hit": false,
      "t": 56347.81200000011,
      "d": 347.82600000000093,
      "v": 100
    },
    {
      "midi": 52,
      "hit": false,
      "t": 56478.24675000011,
      "d": 86.95650000000023,
      "v": 110
    },
    {
      "midi": 52,
      "hit": false,
      "t": 56608.68150000011,
      "d": 86.95650000000023,
      "v": 110
    },
    {
      "midi": 52,
      "hit": false,
      "t": 56739.11625000011,
      "d": 86.95650000000023,
      "v": 110
    },
    {
      "midi": 52,
      "hit": false,
      "t": 56869.55100000011,
      "d": 86.95650000000023,
      "v": 110
    },
    {
      "midi": 40,
      "hit": false,
      "t": 56869.55100000011,
      "d": 260.8695000000007,
      "v": 100
    },
    {
      "midi": 52,
      "hit": false,
      "t": 56999.98575000011,
      "d": 86.95650000000023,
      "v": 110
    },
    {
      "midi": 52,
      "hit": false,
      "t": 57130.42050000011,
      "d": 86.95650000000023,
      "v": 110
    },
    {
      "midi": 52,
      "hit": false,
      "t": 57260.85525000011,
      "d": 86.95650000000023,
      "v": 110
    },
    {
      "midi": 40,
      "hit": false,
      "t": 57260.85525000011,
      "d": 260.8695000000007,
      "v": 100
    },
    {
      "midi": 52,
      "hit": false,
      "t": 57391.29000000011,
      "d": 86.95650000000023,
      "v": 110
    },
    {
      "midi": 52,
      "hit": false,
      "t": 57521.72475000011,
      "d": 86.95650000000023,
      "v": 110
    },
    {
      "midi": 52,
      "hit": false,
      "t": 57652.15950000011,
      "d": 86.95650000000023,
      "v": 110
    },
    {
      "midi": 40,
      "hit": false,
      "t": 57652.15950000011,
      "d": 260.8695000000007,
      "v": 100
    },
    {
      "midi": 52,
      "hit": false,
      "t": 57782.59425000011,
      "d": 86.95650000000023,
      "v": 110
    },
    {
      "midi": 52,
      "hit": false,
      "t": 57913.02900000011,
      "d": 86.95650000000023,
      "v": 110
    },
    {
      "midi": 52,
      "hit": false,
      "t": 58043.46375000011,
      "d": 86.95650000000023,
      "v": 110
    },
    {
      "midi": 40,
      "hit": false,
      "t": 58043.46375000011,
      "d": 260.8695000000007,
      "v": 100
    },
    {
      "midi": 52,
      "hit": false,
      "t": 58173.89850000011,
      "d": 86.95650000000023,
      "v": 110
    },
    {
      "midi": 52,
      "hit": false,
      "t": 58304.33325000011,
      "d": 86.95650000000023,
      "v": 110
    },
    {
      "midi": 53,
      "hit": false,
      "t": 58434.76800000011,
      "d": 86.95650000000023,
      "v": 110
    },
    {
      "midi": 41,
      "hit": false,
      "t": 58434.76800000011,
      "d": 347.82600000000093,
      "v": 100
    },
    {
      "midi": 53,
      "hit": false,
      "t": 58565.20275000011,
      "d": 86.95650000000023,
      "v": 110
    },
    {
      "midi": 53,
      "hit": false,
      "t": 58695.63750000011,
      "d": 86.95650000000023,
      "v": 110
    },
    {
      "midi": 53,
      "hit": false,
      "t": 58826.072250000114,
      "d": 86.95650000000023,
      "v": 110
    },
    {
      "midi": 53,
      "hit": false,
      "t": 58956.507000000114,
      "d": 86.95650000000023,
      "v": 110
    },
    {
      "midi": 41,
      "hit": false,
      "t": 58956.507000000114,
      "d": 260.8695000000007,
      "v": 100
    },
    {
      "midi": 53,
      "hit": false,
      "t": 59086.941750000115,
      "d": 86.95650000000023,
      "v": 110
    },
    {
      "midi": 53,
      "hit": false,
      "t": 59217.376500000115,
      "d": 86.95650000000023,
      "v": 110
    },
    {
      "midi": 53,
      "hit": false,
      "t": 59347.811250000115,
      "d": 86.95650000000023,
      "v": 110
    },
    {
      "midi": 41,
      "hit": false,
      "t": 59347.811250000115,
      "d": 260.8695000000007,
      "v": 100
    },
    {
      "midi": 53,
      "hit": false,
      "t": 59478.246000000116,
      "d": 86.95650000000023,
      "v": 110
    },
    {
      "midi": 53,
      "hit": false,
      "t": 59608.680750000116,
      "d": 86.95650000000023,
      "v": 110
    },
    {
      "midi": 53,
      "hit": false,
      "t": 59739.115500000116,
      "d": 86.95650000000023,
      "v": 110
    },
    {
      "midi": 41,
      "hit": false,
      "t": 59739.115500000116,
      "d": 260.8695000000007,
      "v": 100
    },
    {
      "midi": 53,
      "hit": false,
      "t": 59869.55025000012,
      "d": 86.95650000000023,
      "v": 110
    },
    {
      "midi": 53,
      "hit": false,
      "t": 59999.98500000012,
      "d": 86.95650000000023,
      "v": 110
    },
    {
      "midi": 53,
      "hit": false,
      "t": 60130.41975000012,
      "d": 86.95650000000023,
      "v": 110
    },
    {
      "midi": 41,
      "hit": false,
      "t": 60130.41975000012,
      "d": 260.8695000000007,
      "v": 100
    },
    {
      "midi": 53,
      "hit": false,
      "t": 60260.85450000012,
      "d": 86.95650000000023,
      "v": 110
    },
    {
      "midi": 53,
      "hit": false,
      "t": 60391.28925000012,
      "d": 86.95650000000023,
      "v": 110
    },
    {
      "midi": 60,
      "hit": false,
      "t": 60521.72400000012,
      "d": 86.95650000000023,
      "v": 110
    },
    {
      "midi": 36,
      "hit": false,
      "t": 60521.72400000012,
      "d": 347.82600000000093,
      "v": 100
    },
    {
      "midi": 60,
      "hit": false,
      "t": 60652.15875000012,
      "d": 86.95650000000023,
      "v": 110
    },
    {
      "midi": 60,
      "hit": false,
      "t": 60782.59350000012,
      "d": 86.95650000000023,
      "v": 110
    },
    {
      "midi": 60,
      "hit": false,
      "t": 60913.02825000012,
      "d": 86.95650000000023,
      "v": 110
    },
    {
      "midi": 60,
      "hit": false,
      "t": 61043.46300000012,
      "d": 86.95650000000023,
      "v": 110
    },
    {
      "midi": 36,
      "hit": false,
      "t": 61043.46300000012,
      "d": 260.8695000000007,
      "v": 100
    },
    {
      "midi": 60,
      "hit": false,
      "t": 61173.89775000012,
      "d": 86.95650000000023,
      "v": 110
    },
    {
      "midi": 60,
      "hit": false,
      "t": 61304.33250000012,
      "d": 86.95650000000023,
      "v": 110
    },
    {
      "midi": 60,
      "hit": false,
      "t": 61434.76725000012,
      "d": 86.95650000000023,
      "v": 110
    },
    {
      "midi": 36,
      "hit": false,
      "t": 61434.76725000012,
      "d": 260.8695000000007,
      "v": 100
    },
    {
      "midi": 60,
      "hit": false,
      "t": 61565.20200000012,
      "d": 86.95650000000023,
      "v": 110
    },
    {
      "midi": 60,
      "hit": false,
      "t": 61695.63675000012,
      "d": 86.95650000000023,
      "v": 110
    },
    {
      "midi": 60,
      "hit": false,
      "t": 61826.07150000012,
      "d": 86.95650000000023,
      "v": 110
    },
    {
      "midi": 36,
      "hit": false,
      "t": 61826.07150000012,
      "d": 260.8695000000007,
      "v": 100
    },
    {
      "midi": 60,
      "hit": false,
      "t": 61956.50625000012,
      "d": 86.95650000000023,
      "v": 110
    },
    {
      "midi": 60,
      "hit": false,
      "t": 62086.94100000012,
      "d": 86.95650000000023,
      "v": 110
    },
    {
      "midi": 60,
      "hit": false,
      "t": 62217.37575000012,
      "d": 86.95650000000023,
      "v": 110
    },
    {
      "midi": 36,
      "hit": false,
      "t": 62217.37575000012,
      "d": 260.8695000000007,
      "v": 100
    },
    {
      "midi": 60,
      "hit": false,
      "t": 62347.81050000012,
      "d": 86.95650000000023,
      "v": 110
    },
    {
      "midi": 60,
      "hit": false,
      "t": 62478.24525000012,
      "d": 86.95650000000023,
      "v": 110
    },
    {
      "midi": 62,
      "hit": false,
      "t": 62608.680000000124,
      "d": 86.95650000000023,
      "v": 110
    },
    {
      "midi": 38,
      "hit": false,
      "t": 62608.680000000124,
      "d": 347.82600000000093,
      "v": 100
    },
    {
      "midi": 62,
      "hit": false,
      "t": 62739.114750000124,
      "d": 86.95650000000023,
      "v": 110
    },
    {
      "midi": 62,
      "hit": false,
      "t": 62869.549500000125,
      "d": 86.95650000000023,
      "v": 110
    },
    {
      "midi": 62,
      "hit": false,
      "t": 62999.984250000125,
      "d": 86.95650000000023,
      "v": 110
    },
    {
      "midi": 62,
      "hit": false,
      "t": 63130.419000000125,
      "d": 86.95650000000023,
      "v": 110
    },
    {
      "midi": 38,
      "hit": false,
      "t": 63130.419000000125,
      "d": 260.8695000000007,
      "v": 100
    },
    {
      "midi": 62,
      "hit": false,
      "t": 63260.853750000126,
      "d": 86.95650000000023,
      "v": 110
    },
    {
      "midi": 62,
      "hit": false,
      "t": 63391.288500000126,
      "d": 86.95650000000023,
      "v": 110
    },
    {
      "midi": 62,
      "hit": false,
      "t": 63521.72325000013,
      "d": 86.95650000000023,
      "v": 110
    },
    {
      "midi": 38,
      "hit": false,
      "t": 63521.72325000013,
      "d": 260.8695000000007,
      "v": 100
    },
    {
      "midi": 62,
      "hit": false,
      "t": 63652.15800000013,
      "d": 86.95650000000023,
      "v": 110
    },
    {
      "midi": 62,
      "hit": false,
      "t": 63782.59275000013,
      "d": 86.95650000000023,
      "v": 110
    },
    {
      "midi": 62,
      "hit": false,
      "t": 63913.02750000013,
      "d": 86.95650000000023,
      "v": 110
    },
    {
      "midi": 38,
      "hit": false,
      "t": 63913.02750000013,
      "d": 260.8695000000007,
      "v": 100
    },
    {
      "midi": 62,
      "hit": false,
      "t": 64043.46225000013,
      "d": 86.95650000000023,
      "v": 110
    },
    {
      "midi": 62,
      "hit": false,
      "t": 64173.89700000013,
      "d": 86.95650000000023,
      "v": 110
    },
    {
      "midi": 62,
      "hit": false,
      "t": 64304.33175000013,
      "d": 86.95650000000023,
      "v": 110
    },
    {
      "midi": 38,
      "hit": false,
      "t": 64304.33175000013,
      "d": 260.8695000000007,
      "v": 100
    },
    {
      "midi": 62,
      "hit": false,
      "t": 64434.76650000013,
      "d": 86.95650000000023,
      "v": 110
    },
    {
      "midi": 62,
      "hit": false,
      "t": 64565.20125000013,
      "d": 86.95650000000023,
      "v": 110
    },
    {
      "midi": 55,
      "hit": false,
      "t": 64695.63600000013,
      "d": 86.95650000000023,
      "v": 110
    },
    {
      "midi": 43,
      "hit": false,
      "t": 64695.63600000013,
      "d": 347.82600000000093,
      "v": 100
    },
    {
      "midi": 55,
      "hit": false,
      "t": 64826.07075000013,
      "d": 86.95650000000023,
      "v": 110
    },
    {
      "midi": 55,
      "hit": false,
      "t": 64956.50550000013,
      "d": 86.95650000000023,
      "v": 110
    },
    {
      "midi": 55,
      "hit": false,
      "t": 65086.94025000013,
      "d": 86.95650000000023,
      "v": 110
    },
    {
      "midi": 55,
      "hit": false,
      "t": 65217.37500000013,
      "d": 86.95650000000023,
      "v": 110
    },
    {
      "midi": 43,
      "hit": false,
      "t": 65217.37500000013,
      "d": 260.8695000000007,
      "v": 100
    },
    {
      "midi": 55,
      "hit": false,
      "t": 65347.80975000013,
      "d": 86.95650000000023,
      "v": 110
    },
    {
      "midi": 55,
      "hit": false,
      "t": 65478.24450000013,
      "d": 86.95650000000023,
      "v": 110
    },
    {
      "midi": 55,
      "hit": false,
      "t": 65608.67925000013,
      "d": 86.95650000000023,
      "v": 110
    },
    {
      "midi": 43,
      "hit": false,
      "t": 65608.67925000013,
      "d": 260.8695000000007,
      "v": 100
    },
    {
      "midi": 55,
      "hit": false,
      "t": 65739.11400000013,
      "d": 86.95650000000023,
      "v": 110
    },
    {
      "midi": 55,
      "hit": false,
      "t": 65869.54875000013,
      "d": 86.95650000000023,
      "v": 110
    },
    {
      "midi": 55,
      "hit": false,
      "t": 65999.98350000013,
      "d": 86.95650000000023,
      "v": 110
    },
    {
      "midi": 43,
      "hit": false,
      "t": 65999.98350000013,
      "d": 260.8695000000007,
      "v": 100
    },
    {
      "midi": 55,
      "hit": false,
      "t": 66130.41825000013,
      "d": 86.95650000000023,
      "v": 110
    },
    {
      "midi": 55,
      "hit": false,
      "t": 66260.85300000013,
      "d": 86.95650000000023,
      "v": 110
    },
    {
      "midi": 55,
      "hit": false,
      "t": 66391.28775000013,
      "d": 86.95650000000023,
      "v": 110
    },
    {
      "midi": 43,
      "hit": false,
      "t": 66391.28775000013,
      "d": 260.8695000000007,
      "v": 100
    },
    {
      "midi": 55,
      "hit": false,
      "t": 66521.72250000013,
      "d": 86.95650000000023,
      "v": 110
    },
    {
      "midi": 55,
      "hit": false,
      "t": 66652.15725000013,
      "d": 86.95650000000023,
      "v": 110
    },
    {
      "midi": 60,
      "hit": false,
      "t": 66782.59200000014,
      "d": 86.95650000000023,
      "v": 110
    },
    {
      "midi": 36,
      "hit": false,
      "t": 66782.59200000014,
      "d": 347.82600000000093,
      "v": 100
    },
    {
      "midi": 60,
      "hit": false,
      "t": 66913.02675000014,
      "d": 86.95650000000023,
      "v": 110
    },
    {
      "midi": 60,
      "hit": false,
      "t": 67043.46150000014,
      "d": 86.95650000000023,
      "v": 110
    },
    {
      "midi": 55,
      "hit": false,
      "t": 67043.46150000014,
      "d": 217.39125000000058,
      "v": 99
    },
    {
      "midi": 64,
      "hit": false,
      "t": 67043.46150000014,
      "d": 217.39125000000058,
      "v": 99
    },
    {
      "midi": 60,
      "hit": false,
      "t": 67173.89625000014,
      "d": 86.95650000000023,
      "v": 110
    },
    {
      "midi": 60,
      "hit": false,
      "t": 67304.33100000014,
      "d": 86.95650000000023,
      "v": 110
    },
    {
      "midi": 36,
      "hit": false,
      "t": 67304.33100000014,
      "d": 260.8695000000007,
      "v": 100
    },
    {
      "midi": 60,
      "hit": false,
      "t": 67434.76575000014,
      "d": 86.95650000000023,
      "v": 110
    },
    {
      "midi": 55,
      "hit": false,
      "t": 67434.76575000014,
      "d": 217.39125000000058,
      "v": 94
    },
    {
      "midi": 64,
      "hit": false,
      "t": 67434.76575000014,
      "d": 217.39125000000058,
      "v": 94
    },
    {
      "midi": 60,
      "hit": false,
      "t": 67565.20050000014,
      "d": 86.95650000000023,
      "v": 110
    },
    {
      "midi": 60,
      "hit": false,
      "t": 67695.63525000014,
      "d": 86.95650000000023,
      "v": 110
    },
    {
      "midi": 36,
      "hit": false,
      "t": 67695.63525000014,
      "d": 260.8695000000007,
      "v": 100
    },
    {
      "midi": 60,
      "hit": false,
      "t": 67826.07000000014,
      "d": 86.95650000000023,
      "v": 110
    },
    {
      "midi": 55,
      "hit": false,
      "t": 67826.07000000014,
      "d": 217.39125000000058,
      "v": 97
    },
    {
      "midi": 64,
      "hit": false,
      "t": 67826.07000000014,
      "d": 217.39125000000058,
      "v": 97
    },
    {
      "midi": 60,
      "hit": false,
      "t": 67956.50475000014,
      "d": 86.95650000000023,
      "v": 110
    },
    {
      "midi": 60,
      "hit": false,
      "t": 68086.93950000014,
      "d": 86.95650000000023,
      "v": 110
    },
    {
      "midi": 36,
      "hit": false,
      "t": 68086.93950000014,
      "d": 260.8695000000007,
      "v": 100
    },
    {
      "midi": 60,
      "hit": false,
      "t": 68217.37425000014,
      "d": 86.95650000000023,
      "v": 110
    },
    {
      "midi": 55,
      "hit": false,
      "t": 68217.37425000014,
      "d": 217.39125000000058,
      "v": 100
    },
    {
      "midi": 64,
      "hit": false,
      "t": 68217.37425000014,
      "d": 217.39125000000058,
      "v": 100
    },
    {
      "midi": 60,
      "hit": false,
      "t": 68347.80900000014,
      "d": 86.95650000000023,
      "v": 110
    },
    {
      "midi": 60,
      "hit": false,
      "t": 68478.24375000014,
      "d": 86.95650000000023,
      "v": 110
    },
    {
      "midi": 36,
      "hit": false,
      "t": 68478.24375000014,
      "d": 260.8695000000007,
      "v": 100
    },
    {
      "midi": 60,
      "hit": false,
      "t": 68608.67850000014,
      "d": 86.95650000000023,
      "v": 110
    },
    {
      "midi": 55,
      "hit": false,
      "t": 68608.67850000014,
      "d": 217.39125000000058,
      "v": 94
    },
    {
      "midi": 64,
      "hit": false,
      "t": 68608.67850000014,
      "d": 217.39125000000058,
      "v": 94
    },
    {
      "midi": 60,
      "hit": false,
      "t": 68739.11325000014,
      "d": 86.95650000000023,
      "v": 110
    },
    {
      "midi": 55,
      "hit": false,
      "t": 68869.54800000014,
      "d": 86.95650000000023,
      "v": 110
    },
    {
      "midi": 43,
      "hit": false,
      "t": 68869.54800000014,
      "d": 347.82600000000093,
      "v": 100
    },
    {
      "midi": 55,
      "hit": false,
      "t": 68999.98275000014,
      "d": 86.95650000000023,
      "v": 110
    },
    {
      "midi": 55,
      "hit": false,
      "t": 69130.41750000014,
      "d": 86.95650000000023,
      "v": 110
    },
    {
      "midi": 59,
      "hit": false,
      "t": 69130.41750000014,
      "d": 217.39125000000058,
      "v": 99
    },
    {
      "midi": 62,
      "hit": false,
      "t": 69130.41750000014,
      "d": 217.39125000000058,
      "v": 99
    },
    {
      "midi": 55,
      "hit": false,
      "t": 69260.85225000014,
      "d": 86.95650000000023,
      "v": 110
    },
    {
      "midi": 55,
      "hit": false,
      "t": 69391.28700000014,
      "d": 86.95650000000023,
      "v": 110
    },
    {
      "midi": 43,
      "hit": false,
      "t": 69391.28700000014,
      "d": 260.8695000000007,
      "v": 100
    },
    {
      "midi": 55,
      "hit": false,
      "t": 69521.72175000014,
      "d": 86.95650000000023,
      "v": 110
    },
    {
      "midi": 59,
      "hit": false,
      "t": 69521.72175000014,
      "d": 217.39125000000058,
      "v": 94
    },
    {
      "midi": 62,
      "hit": false,
      "t": 69521.72175000014,
      "d": 217.39125000000058,
      "v": 94
    },
    {
      "midi": 55,
      "hit": false,
      "t": 69652.15650000014,
      "d": 86.95650000000023,
      "v": 110
    },
    {
      "midi": 55,
      "hit": false,
      "t": 69782.59125000014,
      "d": 86.95650000000023,
      "v": 110
    },
    {
      "midi": 43,
      "hit": false,
      "t": 69782.59125000014,
      "d": 260.8695000000007,
      "v": 100
    },
    {
      "midi": 55,
      "hit": false,
      "t": 69913.02600000014,
      "d": 86.95650000000023,
      "v": 110
    },
    {
      "midi": 59,
      "hit": false,
      "t": 69913.02600000014,
      "d": 217.39125000000058,
      "v": 97
    },
    {
      "midi": 62,
      "hit": false,
      "t": 69913.02600000014,
      "d": 217.39125000000058,
      "v": 97
    },
    {
      "midi": 55,
      "hit": false,
      "t": 70043.46075000014,
      "d": 86.95650000000023,
      "v": 110
    },
    {
      "midi": 55,
      "hit": false,
      "t": 70173.89550000014,
      "d": 86.95650000000023,
      "v": 110
    },
    {
      "midi": 43,
      "hit": false,
      "t": 70173.89550000014,
      "d": 260.8695000000007,
      "v": 100
    },
    {
      "midi": 55,
      "hit": false,
      "t": 70304.33025000014,
      "d": 86.95650000000023,
      "v": 110
    },
    {
      "midi": 59,
      "hit": false,
      "t": 70304.33025000014,
      "d": 217.39125000000058,
      "v": 100
    },
    {
      "midi": 62,
      "hit": false,
      "t": 70304.33025000014,
      "d": 217.39125000000058,
      "v": 100
    },
    {
      "midi": 55,
      "hit": false,
      "t": 70434.76500000014,
      "d": 86.95650000000023,
      "v": 110
    },
    {
      "midi": 55,
      "hit": false,
      "t": 70565.19975000015,
      "d": 86.95650000000023,
      "v": 110
    },
    {
      "midi": 43,
      "hit": false,
      "t": 70565.19975000015,
      "d": 260.8695000000007,
      "v": 100
    },
    {
      "midi": 55,
      "hit": false,
      "t": 70695.63450000015,
      "d": 86.95650000000023,
      "v": 110
    },
    {
      "midi": 59,
      "hit": false,
      "t": 70695.63450000015,
      "d": 217.39125000000058,
      "v": 94
    },
    {
      "midi": 62,
      "hit": false,
      "t": 70695.63450000015,
      "d": 217.39125000000058,
      "v": 94
    },
    {
      "midi": 55,
      "hit": false,
      "t": 70826.06925000015,
      "d": 86.95650000000023,
      "v": 110
    },
    {
      "midi": 57,
      "hit": false,
      "t": 70956.50400000015,
      "d": 86.95650000000023,
      "v": 110
    },
    {
      "midi": 45,
      "hit": false,
      "t": 70956.50400000015,
      "d": 347.82600000000093,
      "v": 100
    },
    {
      "midi": 57,
      "hit": false,
      "t": 71086.93875000015,
      "d": 86.95650000000023,
      "v": 110
    },
    {
      "midi": 57,
      "hit": false,
      "t": 71217.37350000015,
      "d": 86.95650000000023,
      "v": 110
    },
    {
      "midi": 52,
      "hit": false,
      "t": 71217.37350000015,
      "d": 217.39125000000058,
      "v": 99
    },
    {
      "midi": 60,
      "hit": false,
      "t": 71217.37350000015,
      "d": 217.39125000000058,
      "v": 99
    },
    {
      "midi": 57,
      "hit": false,
      "t": 71347.80825000015,
      "d": 86.95650000000023,
      "v": 110
    },
    {
      "midi": 57,
      "hit": false,
      "t": 71478.24300000015,
      "d": 86.95650000000023,
      "v": 110
    },
    {
      "midi": 45,
      "hit": false,
      "t": 71478.24300000015,
      "d": 260.8695000000007,
      "v": 100
    },
    {
      "midi": 57,
      "hit": false,
      "t": 71608.67775000015,
      "d": 86.95650000000023,
      "v": 110
    },
    {
      "midi": 52,
      "hit": false,
      "t": 71608.67775000015,
      "d": 217.39125000000058,
      "v": 94
    },
    {
      "midi": 60,
      "hit": false,
      "t": 71608.67775000015,
      "d": 217.39125000000058,
      "v": 94
    },
    {
      "midi": 57,
      "hit": false,
      "t": 71739.11250000015,
      "d": 86.95650000000023,
      "v": 110
    },
    {
      "midi": 57,
      "hit": false,
      "t": 71869.54725000015,
      "d": 86.95650000000023,
      "v": 110
    },
    {
      "midi": 45,
      "hit": false,
      "t": 71869.54725000015,
      "d": 260.8695000000007,
      "v": 100
    },
    {
      "midi": 57,
      "hit": false,
      "t": 71999.98200000015,
      "d": 86.95650000000023,
      "v": 110
    },
    {
      "midi": 52,
      "hit": false,
      "t": 71999.98200000015,
      "d": 217.39125000000058,
      "v": 97
    },
    {
      "midi": 60,
      "hit": false,
      "t": 71999.98200000015,
      "d": 217.39125000000058,
      "v": 97
    },
    {
      "midi": 57,
      "hit": false,
      "t": 72130.41675000015,
      "d": 86.95650000000023,
      "v": 110
    },
    {
      "midi": 57,
      "hit": false,
      "t": 72260.85150000015,
      "d": 86.95650000000023,
      "v": 110
    },
    {
      "midi": 45,
      "hit": false,
      "t": 72260.85150000015,
      "d": 260.8695000000007,
      "v": 100
    },
    {
      "midi": 57,
      "hit": false,
      "t": 72391.28625000015,
      "d": 86.95650000000023,
      "v": 110
    },
    {
      "midi": 52,
      "hit": false,
      "t": 72391.28625000015,
      "d": 217.39125000000058,
      "v": 100
    },
    {
      "midi": 60,
      "hit": false,
      "t": 72391.28625000015,
      "d": 217.39125000000058,
      "v": 100
    },
    {
      "midi": 57,
      "hit": false,
      "t": 72521.72100000015,
      "d": 86.95650000000023,
      "v": 110
    },
    {
      "midi": 57,
      "hit": false,
      "t": 72652.15575000015,
      "d": 86.95650000000023,
      "v": 110
    },
    {
      "midi": 45,
      "hit": false,
      "t": 72652.15575000015,
      "d": 260.8695000000007,
      "v": 100
    },
    {
      "midi": 57,
      "hit": false,
      "t": 72782.59050000015,
      "d": 86.95650000000023,
      "v": 110
    },
    {
      "midi": 52,
      "hit": false,
      "t": 72782.59050000015,
      "d": 217.39125000000058,
      "v": 94
    },
    {
      "midi": 60,
      "hit": false,
      "t": 72782.59050000015,
      "d": 217.39125000000058,
      "v": 94
    },
    {
      "midi": 57,
      "hit": false,
      "t": 72913.02525000015,
      "d": 86.95650000000023,
      "v": 110
    },
    {
      "midi": 52,
      "hit": false,
      "t": 73043.46000000015,
      "d": 86.95650000000023,
      "v": 110
    },
    {
      "midi": 40,
      "hit": false,
      "t": 73043.46000000015,
      "d": 347.82600000000093,
      "v": 100
    },
    {
      "midi": 52,
      "hit": false,
      "t": 73173.89475000015,
      "d": 86.95650000000023,
      "v": 110
    },
    {
      "midi": 52,
      "hit": false,
      "t": 73304.32950000015,
      "d": 86.95650000000023,
      "v": 110
    },
    {
      "midi": 55,
      "hit": false,
      "t": 73304.32950000015,
      "d": 217.39125000000058,
      "v": 99
    },
    {
      "midi": 59,
      "hit": false,
      "t": 73304.32950000015,
      "d": 217.39125000000058,
      "v": 99
    },
    {
      "midi": 52,
      "hit": false,
      "t": 73434.76425000015,
      "d": 86.95650000000023,
      "v": 110
    },
    {
      "midi": 52,
      "hit": false,
      "t": 73565.19900000015,
      "d": 86.95650000000023,
      "v": 110
    },
    {
      "midi": 40,
      "hit": false,
      "t": 73565.19900000015,
      "d": 260.8695000000007,
      "v": 100
    },
    {
      "midi": 52,
      "hit": false,
      "t": 73695.63375000015,
      "d": 86.95650000000023,
      "v": 110
    },
    {
      "midi": 55,
      "hit": false,
      "t": 73695.63375000015,
      "d": 217.39125000000058,
      "v": 94
    },
    {
      "midi": 59,
      "hit": false,
      "t": 73695.63375000015,
      "d": 217.39125000000058,
      "v": 94
    },
    {
      "midi": 52,
      "hit": false,
      "t": 73826.06850000015,
      "d": 86.95650000000023,
      "v": 110
    },
    {
      "midi": 52,
      "hit": false,
      "t": 73956.50325000015,
      "d": 86.95650000000023,
      "v": 110
    },
    {
      "midi": 40,
      "hit": false,
      "t": 73956.50325000015,
      "d": 260.8695000000007,
      "v": 100
    },
    {
      "midi": 52,
      "hit": false,
      "t": 74086.93800000015,
      "d": 86.95650000000023,
      "v": 110
    },
    {
      "midi": 55,
      "hit": false,
      "t": 74086.93800000015,
      "d": 217.39125000000058,
      "v": 97
    },
    {
      "midi": 59,
      "hit": false,
      "t": 74086.93800000015,
      "d": 217.39125000000058,
      "v": 97
    },
    {
      "midi": 52,
      "hit": false,
      "t": 74217.37275000016,
      "d": 86.95650000000023,
      "v": 110
    },
    {
      "midi": 52,
      "hit": false,
      "t": 74347.80750000016,
      "d": 86.95650000000023,
      "v": 110
    },
    {
      "midi": 40,
      "hit": false,
      "t": 74347.80750000016,
      "d": 260.8695000000007,
      "v": 100
    },
    {
      "midi": 52,
      "hit": false,
      "t": 74478.24225000016,
      "d": 86.95650000000023,
      "v": 110
    },
    {
      "midi": 55,
      "hit": false,
      "t": 74478.24225000016,
      "d": 217.39125000000058,
      "v": 100
    },
    {
      "midi": 59,
      "hit": false,
      "t": 74478.24225000016,
      "d": 217.39125000000058,
      "v": 100
    },
    {
      "midi": 52,
      "hit": false,
      "t": 74608.67700000016,
      "d": 86.95650000000023,
      "v": 110
    },
    {
      "midi": 52,
      "hit": false,
      "t": 74739.11175000016,
      "d": 86.95650000000023,
      "v": 110
    },
    {
      "midi": 40,
      "hit": false,
      "t": 74739.11175000016,
      "d": 260.8695000000007,
      "v": 100
    },
    {
      "midi": 52,
      "hit": false,
      "t": 74869.54650000016,
      "d": 86.95650000000023,
      "v": 110
    },
    {
      "midi": 55,
      "hit": false,
      "t": 74869.54650000016,
      "d": 217.39125000000058,
      "v": 94
    },
    {
      "midi": 59,
      "hit": false,
      "t": 74869.54650000016,
      "d": 217.39125000000058,
      "v": 94
    },
    {
      "midi": 52,
      "hit": false,
      "t": 74999.98125000016,
      "d": 86.95650000000023,
      "v": 110
    },
    {
      "midi": 53,
      "hit": false,
      "t": 75130.41600000016,
      "d": 86.95650000000023,
      "v": 110
    },
    {
      "midi": 41,
      "hit": false,
      "t": 75130.41600000016,
      "d": 347.82600000000093,
      "v": 100
    },
    {
      "midi": 53,
      "hit": false,
      "t": 75260.85075000016,
      "d": 86.95650000000023,
      "v": 110
    },
    {
      "midi": 53,
      "hit": false,
      "t": 75391.28550000016,
      "d": 86.95650000000023,
      "v": 110
    },
    {
      "midi": 57,
      "hit": false,
      "t": 75391.28550000016,
      "d": 217.39125000000058,
      "v": 99
    },
    {
      "midi": 60,
      "hit": false,
      "t": 75391.28550000016,
      "d": 217.39125000000058,
      "v": 99
    },
    {
      "midi": 53,
      "hit": false,
      "t": 75521.72025000016,
      "d": 86.95650000000023,
      "v": 110
    },
    {
      "midi": 53,
      "hit": false,
      "t": 75652.15500000016,
      "d": 86.95650000000023,
      "v": 110
    },
    {
      "midi": 41,
      "hit": false,
      "t": 75652.15500000016,
      "d": 260.8695000000007,
      "v": 100
    },
    {
      "midi": 53,
      "hit": false,
      "t": 75782.58975000016,
      "d": 86.95650000000023,
      "v": 110
    },
    {
      "midi": 57,
      "hit": false,
      "t": 75782.58975000016,
      "d": 217.39125000000058,
      "v": 94
    },
    {
      "midi": 60,
      "hit": false,
      "t": 75782.58975000016,
      "d": 217.39125000000058,
      "v": 94
    },
    {
      "midi": 53,
      "hit": false,
      "t": 75913.02450000016,
      "d": 86.95650000000023,
      "v": 110
    },
    {
      "midi": 53,
      "hit": false,
      "t": 76043.45925000016,
      "d": 86.95650000000023,
      "v": 110
    },
    {
      "midi": 41,
      "hit": false,
      "t": 76043.45925000016,
      "d": 260.8695000000007,
      "v": 100
    },
    {
      "midi": 53,
      "hit": false,
      "t": 76173.89400000016,
      "d": 86.95650000000023,
      "v": 110
    },
    {
      "midi": 57,
      "hit": false,
      "t": 76173.89400000016,
      "d": 217.39125000000058,
      "v": 97
    },
    {
      "midi": 60,
      "hit": false,
      "t": 76173.89400000016,
      "d": 217.39125000000058,
      "v": 97
    },
    {
      "midi": 53,
      "hit": false,
      "t": 76304.32875000016,
      "d": 86.95650000000023,
      "v": 110
    },
    {
      "midi": 53,
      "hit": false,
      "t": 76434.76350000016,
      "d": 86.95650000000023,
      "v": 110
    },
    {
      "midi": 41,
      "hit": false,
      "t": 76434.76350000016,
      "d": 260.8695000000007,
      "v": 100
    },
    {
      "midi": 53,
      "hit": false,
      "t": 76565.19825000016,
      "d": 86.95650000000023,
      "v": 110
    },
    {
      "midi": 57,
      "hit": false,
      "t": 76565.19825000016,
      "d": 217.39125000000058,
      "v": 100
    },
    {
      "midi": 60,
      "hit": false,
      "t": 76565.19825000016,
      "d": 217.39125000000058,
      "v": 100
    },
    {
      "midi": 53,
      "hit": false,
      "t": 76695.63300000016,
      "d": 86.95650000000023,
      "v": 110
    },
    {
      "midi": 53,
      "hit": false,
      "t": 76826.06775000016,
      "d": 86.95650000000023,
      "v": 110
    },
    {
      "midi": 41,
      "hit": false,
      "t": 76826.06775000016,
      "d": 260.8695000000007,
      "v": 100
    },
    {
      "midi": 53,
      "hit": false,
      "t": 76956.50250000016,
      "d": 86.95650000000023,
      "v": 110
    },
    {
      "midi": 57,
      "hit": false,
      "t": 76956.50250000016,
      "d": 217.39125000000058,
      "v": 94
    },
    {
      "midi": 60,
      "hit": false,
      "t": 76956.50250000016,
      "d": 217.39125000000058,
      "v": 94
    },
    {
      "midi": 53,
      "hit": false,
      "t": 77086.93725000016,
      "d": 86.95650000000023,
      "v": 110
    },
    {
      "midi": 60,
      "hit": false,
      "t": 77217.37200000016,
      "d": 86.95650000000023,
      "v": 110
    },
    {
      "midi": 36,
      "hit": false,
      "t": 77217.37200000016,
      "d": 347.82600000000093,
      "v": 100
    },
    {
      "midi": 60,
      "hit": false,
      "t": 77347.80675000016,
      "d": 86.95650000000023,
      "v": 110
    },
    {
      "midi": 60,
      "hit": false,
      "t": 77478.24150000016,
      "d": 86.95650000000023,
      "v": 110
    },
    {
      "midi": 55,
      "hit": false,
      "t": 77478.24150000016,
      "d": 217.39125000000058,
      "v": 99
    },
    {
      "midi": 64,
      "hit": false,
      "t": 77478.24150000016,
      "d": 217.39125000000058,
      "v": 99
    },
    {
      "midi": 60,
      "hit": false,
      "t": 77608.67625000016,
      "d": 86.95650000000023,
      "v": 110
    },
    {
      "midi": 60,
      "hit": false,
      "t": 77739.11100000016,
      "d": 86.95650000000023,
      "v": 110
    },
    {
      "midi": 36,
      "hit": false,
      "t": 77739.11100000016,
      "d": 260.8695000000007,
      "v": 100
    },
    {
      "midi": 60,
      "hit": false,
      "t": 77869.54575000016,
      "d": 86.95650000000023,
      "v": 110
    },
    {
      "midi": 55,
      "hit": false,
      "t": 77869.54575000016,
      "d": 217.39125000000058,
      "v": 94
    },
    {
      "midi": 64,
      "hit": false,
      "t": 77869.54575000016,
      "d": 217.39125000000058,
      "v": 94
    },
    {
      "midi": 60,
      "hit": false,
      "t": 77999.98050000017,
      "d": 86.95650000000023,
      "v": 110
    },
    {
      "midi": 60,
      "hit": false,
      "t": 78130.41525000017,
      "d": 86.95650000000023,
      "v": 110
    },
    {
      "midi": 36,
      "hit": false,
      "t": 78130.41525000017,
      "d": 260.8695000000007,
      "v": 100
    },
    {
      "midi": 60,
      "hit": false,
      "t": 78260.85000000017,
      "d": 86.95650000000023,
      "v": 110
    },
    {
      "midi": 55,
      "hit": false,
      "t": 78260.85000000017,
      "d": 217.39125000000058,
      "v": 97
    },
    {
      "midi": 64,
      "hit": false,
      "t": 78260.85000000017,
      "d": 217.39125000000058,
      "v": 97
    },
    {
      "midi": 60,
      "hit": false,
      "t": 78391.28475000017,
      "d": 86.95650000000023,
      "v": 110
    },
    {
      "midi": 60,
      "hit": false,
      "t": 78521.71950000017,
      "d": 86.95650000000023,
      "v": 110
    },
    {
      "midi": 36,
      "hit": false,
      "t": 78521.71950000017,
      "d": 260.8695000000007,
      "v": 100
    },
    {
      "midi": 60,
      "hit": false,
      "t": 78652.15425000017,
      "d": 86.95650000000023,
      "v": 110
    },
    {
      "midi": 55,
      "hit": false,
      "t": 78652.15425000017,
      "d": 217.39125000000058,
      "v": 100
    },
    {
      "midi": 64,
      "hit": false,
      "t": 78652.15425000017,
      "d": 217.39125000000058,
      "v": 100
    },
    {
      "midi": 60,
      "hit": false,
      "t": 78782.58900000017,
      "d": 86.95650000000023,
      "v": 110
    },
    {
      "midi": 60,
      "hit": false,
      "t": 78913.02375000017,
      "d": 86.95650000000023,
      "v": 110
    },
    {
      "midi": 36,
      "hit": false,
      "t": 78913.02375000017,
      "d": 260.8695000000007,
      "v": 100
    },
    {
      "midi": 60,
      "hit": false,
      "t": 79043.45850000017,
      "d": 86.95650000000023,
      "v": 110
    },
    {
      "midi": 55,
      "hit": false,
      "t": 79043.45850000017,
      "d": 217.39125000000058,
      "v": 94
    },
    {
      "midi": 64,
      "hit": false,
      "t": 79043.45850000017,
      "d": 217.39125000000058,
      "v": 94
    },
    {
      "midi": 60,
      "hit": false,
      "t": 79173.89325000017,
      "d": 86.95650000000023,
      "v": 110
    },
    {
      "midi": 62,
      "hit": false,
      "t": 79304.32800000017,
      "d": 86.95650000000023,
      "v": 110
    },
    {
      "midi": 38,
      "hit": false,
      "t": 79304.32800000017,
      "d": 347.82600000000093,
      "v": 100
    },
    {
      "midi": 62,
      "hit": false,
      "t": 79434.76275000017,
      "d": 86.95650000000023,
      "v": 110
    },
    {
      "midi": 62,
      "hit": false,
      "t": 79565.19750000017,
      "d": 86.95650000000023,
      "v": 110
    },
    {
      "midi": 50,
      "hit": false,
      "t": 79565.19750000017,
      "d": 217.39125000000058,
      "v": 99
    },
    {
      "midi": 53,
      "hit": false,
      "t": 79565.19750000017,
      "d": 217.39125000000058,
      "v": 99
    },
    {
      "midi": 57,
      "hit": false,
      "t": 79565.19750000017,
      "d": 217.39125000000058,
      "v": 99
    },
    {
      "midi": 60,
      "hit": false,
      "t": 79565.19750000017,
      "d": 217.39125000000058,
      "v": 99
    },
    {
      "midi": 62,
      "hit": false,
      "t": 79695.63225000017,
      "d": 86.95650000000023,
      "v": 110
    },
    {
      "midi": 62,
      "hit": false,
      "t": 79826.06700000017,
      "d": 86.95650000000023,
      "v": 110
    },
    {
      "midi": 38,
      "hit": false,
      "t": 79826.06700000017,
      "d": 260.8695000000007,
      "v": 100
    },
    {
      "midi": 62,
      "hit": false,
      "t": 79956.50175000017,
      "d": 86.95650000000023,
      "v": 110
    },
    {
      "midi": 50,
      "hit": false,
      "t": 79956.50175000017,
      "d": 217.39125000000058,
      "v": 94
    },
    {
      "midi": 53,
      "hit": false,
      "t": 79956.50175000017,
      "d": 217.39125000000058,
      "v": 94
    },
    {
      "midi": 57,
      "hit": false,
      "t": 79956.50175000017,
      "d": 217.39125000000058,
      "v": 94
    },
    {
      "midi": 60,
      "hit": false,
      "t": 79956.50175000017,
      "d": 217.39125000000058,
      "v": 94
    },
    {
      "midi": 62,
      "hit": false,
      "t": 80086.93650000017,
      "d": 86.95650000000023,
      "v": 110
    },
    {
      "midi": 62,
      "hit": false,
      "t": 80217.37125000017,
      "d": 86.95650000000023,
      "v": 110
    },
    {
      "midi": 38,
      "hit": false,
      "t": 80217.37125000017,
      "d": 260.8695000000007,
      "v": 100
    },
    {
      "midi": 62,
      "hit": false,
      "t": 80347.80600000017,
      "d": 86.95650000000023,
      "v": 110
    },
    {
      "midi": 50,
      "hit": false,
      "t": 80347.80600000017,
      "d": 217.39125000000058,
      "v": 97
    },
    {
      "midi": 53,
      "hit": false,
      "t": 80347.80600000017,
      "d": 217.39125000000058,
      "v": 97
    },
    {
      "midi": 57,
      "hit": false,
      "t": 80347.80600000017,
      "d": 217.39125000000058,
      "v": 97
    },
    {
      "midi": 60,
      "hit": false,
      "t": 80347.80600000017,
      "d": 217.39125000000058,
      "v": 97
    },
    {
      "midi": 62,
      "hit": false,
      "t": 80478.24075000017,
      "d": 86.95650000000023,
      "v": 110
    },
    {
      "midi": 62,
      "hit": false,
      "t": 80608.67550000017,
      "d": 86.95650000000023,
      "v": 110
    },
    {
      "midi": 38,
      "hit": false,
      "t": 80608.67550000017,
      "d": 260.8695000000007,
      "v": 100
    },
    {
      "midi": 62,
      "hit": false,
      "t": 80739.11025000017,
      "d": 86.95650000000023,
      "v": 110
    },
    {
      "midi": 50,
      "hit": false,
      "t": 80739.11025000017,
      "d": 217.39125000000058,
      "v": 100
    },
    {
      "midi": 53,
      "hit": false,
      "t": 80739.11025000017,
      "d": 217.39125000000058,
      "v": 100
    },
    {
      "midi": 57,
      "hit": false,
      "t": 80739.11025000017,
      "d": 217.39125000000058,
      "v": 100
    },
    {
      "midi": 60,
      "hit": false,
      "t": 80739.11025000017,
      "d": 217.39125000000058,
      "v": 100
    },
    {
      "midi": 62,
      "hit": false,
      "t": 80869.54500000017,
      "d": 86.95650000000023,
      "v": 110
    },
    {
      "midi": 62,
      "hit": false,
      "t": 80999.97975000017,
      "d": 86.95650000000023,
      "v": 110
    },
    {
      "midi": 38,
      "hit": false,
      "t": 80999.97975000017,
      "d": 260.8695000000007,
      "v": 100
    },
    {
      "midi": 62,
      "hit": false,
      "t": 81130.41450000017,
      "d": 86.95650000000023,
      "v": 110
    },
    {
      "midi": 50,
      "hit": false,
      "t": 81130.41450000017,
      "d": 217.39125000000058,
      "v": 94
    },
    {
      "midi": 53,
      "hit": false,
      "t": 81130.41450000017,
      "d": 217.39125000000058,
      "v": 94
    },
    {
      "midi": 57,
      "hit": false,
      "t": 81130.41450000017,
      "d": 217.39125000000058,
      "v": 94
    },
    {
      "midi": 60,
      "hit": false,
      "t": 81130.41450000017,
      "d": 217.39125000000058,
      "v": 94
    },
    {
      "midi": 62,
      "hit": false,
      "t": 81260.84925000017,
      "d": 86.95650000000023,
      "v": 110
    },
    {
      "midi": 55,
      "hit": false,
      "t": 81391.28400000017,
      "d": 86.95650000000023,
      "v": 110
    },
    {
      "midi": 43,
      "hit": false,
      "t": 81391.28400000017,
      "d": 347.82600000000093,
      "v": 100
    },
    {
      "midi": 55,
      "hit": false,
      "t": 81521.71875000017,
      "d": 86.95650000000023,
      "v": 110
    },
    {
      "midi": 55,
      "hit": false,
      "t": 81652.15350000017,
      "d": 86.95650000000023,
      "v": 110
    },
    {
      "midi": 59,
      "hit": false,
      "t": 81652.15350000017,
      "d": 217.39125000000058,
      "v": 99
    },
    {
      "midi": 62,
      "hit": false,
      "t": 81652.15350000017,
      "d": 217.39125000000058,
      "v": 99
    },
    {
      "midi": 55,
      "hit": false,
      "t": 81782.58825000018,
      "d": 86.95650000000023,
      "v": 110
    },
    {
      "midi": 55,
      "hit": false,
      "t": 81913.02300000018,
      "d": 86.95650000000023,
      "v": 110
    },
    {
      "midi": 43,
      "hit": false,
      "t": 81913.02300000018,
      "d": 260.8695000000007,
      "v": 100
    },
    {
      "midi": 55,
      "hit": false,
      "t": 82043.45775000018,
      "d": 86.95650000000023,
      "v": 110
    },
    {
      "midi": 59,
      "hit": false,
      "t": 82043.45775000018,
      "d": 217.39125000000058,
      "v": 94
    },
    {
      "midi": 62,
      "hit": false,
      "t": 82043.45775000018,
      "d": 217.39125000000058,
      "v": 94
    },
    {
      "midi": 55,
      "hit": false,
      "t": 82173.89250000018,
      "d": 86.95650000000023,
      "v": 110
    },
    {
      "midi": 55,
      "hit": false,
      "t": 82304.32725000018,
      "d": 86.95650000000023,
      "v": 110
    },
    {
      "midi": 43,
      "hit": false,
      "t": 82304.32725000018,
      "d": 260.8695000000007,
      "v": 100
    },
    {
      "midi": 55,
      "hit": false,
      "t": 82434.76200000018,
      "d": 86.95650000000023,
      "v": 110
    },
    {
      "midi": 59,
      "hit": false,
      "t": 82434.76200000018,
      "d": 217.39125000000058,
      "v": 97
    },
    {
      "midi": 62,
      "hit": false,
      "t": 82434.76200000018,
      "d": 217.39125000000058,
      "v": 97
    },
    {
      "midi": 55,
      "hit": false,
      "t": 82565.19675000018,
      "d": 86.95650000000023,
      "v": 110
    },
    {
      "midi": 55,
      "hit": false,
      "t": 82695.63150000018,
      "d": 86.95650000000023,
      "v": 110
    },
    {
      "midi": 43,
      "hit": false,
      "t": 82695.63150000018,
      "d": 260.8695000000007,
      "v": 100
    },
    {
      "midi": 55,
      "hit": false,
      "t": 82826.06625000018,
      "d": 86.95650000000023,
      "v": 110
    },
    {
      "midi": 59,
      "hit": false,
      "t": 82826.06625000018,
      "d": 217.39125000000058,
      "v": 100
    },
    {
      "midi": 62,
      "hit": false,
      "t": 82826.06625000018,
      "d": 217.39125000000058,
      "v": 100
    },
    {
      "midi": 55,
      "hit": false,
      "t": 82956.50100000018,
      "d": 86.95650000000023,
      "v": 110
    },
    {
      "midi": 55,
      "hit": false,
      "t": 83086.93575000018,
      "d": 86.95650000000023,
      "v": 110
    },
    {
      "midi": 43,
      "hit": false,
      "t": 83086.93575000018,
      "d": 260.8695000000007,
      "v": 100
    },
    {
      "midi": 55,
      "hit": false,
      "t": 83217.37050000018,
      "d": 86.95650000000023,
      "v": 110
    },
    {
      "midi": 59,
      "hit": false,
      "t": 83217.37050000018,
      "d": 217.39125000000058,
      "v": 94
    },
    {
      "midi": 62,
      "hit": false,
      "t": 83217.37050000018,
      "d": 217.39125000000058,
      "v": 94
    },
    {
      "midi": 55,
      "hit": false,
      "t": 83347.80525000018,
      "d": 86.95650000000023,
      "v": 110
    },
    {
      "midi": 60,
      "hit": false,
      "t": 83478.24000000018,
      "d": 86.95650000000023,
      "v": 110
    },
    {
      "midi": 36,
      "hit": false,
      "t": 83478.24000000018,
      "d": 347.82600000000093,
      "v": 100
    },
    {
      "midi": 60,
      "hit": false,
      "t": 83608.67475000018,
      "d": 86.95650000000023,
      "v": 110
    },
    {
      "midi": 60,
      "hit": false,
      "t": 83739.10950000018,
      "d": 86.95650000000023,
      "v": 110
    },
    {
      "midi": 55,
      "hit": false,
      "t": 83739.10950000018,
      "d": 217.39125000000058,
      "v": 99
    },
    {
      "midi": 64,
      "hit": false,
      "t": 83739.10950000018,
      "d": 217.39125000000058,
      "v": 99
    },
    {
      "midi": 60,
      "hit": false,
      "t": 83869.54425000018,
      "d": 86.95650000000023,
      "v": 110
    },
    {
      "midi": 60,
      "hit": false,
      "t": 83999.97900000018,
      "d": 86.95650000000023,
      "v": 110
    },
    {
      "midi": 36,
      "hit": false,
      "t": 83999.97900000018,
      "d": 260.8695000000007,
      "v": 100
    },
    {
      "midi": 60,
      "hit": false,
      "t": 84130.41375000018,
      "d": 86.95650000000023,
      "v": 110
    },
    {
      "midi": 55,
      "hit": false,
      "t": 84130.41375000018,
      "d": 217.39125000000058,
      "v": 94
    },
    {
      "midi": 64,
      "hit": false,
      "t": 84130.41375000018,
      "d": 217.39125000000058,
      "v": 94
    },
    {
      "midi": 60,
      "hit": false,
      "t": 84260.84850000018,
      "d": 86.95650000000023,
      "v": 110
    },
    {
      "midi": 60,
      "hit": false,
      "t": 84391.28325000018,
      "d": 86.95650000000023,
      "v": 110
    },
    {
      "midi": 36,
      "hit": false,
      "t": 84391.28325000018,
      "d": 260.8695000000007,
      "v": 100
    },
    {
      "midi": 60,
      "hit": false,
      "t": 84521.71800000018,
      "d": 86.95650000000023,
      "v": 110
    },
    {
      "midi": 55,
      "hit": false,
      "t": 84521.71800000018,
      "d": 217.39125000000058,
      "v": 97
    },
    {
      "midi": 64,
      "hit": false,
      "t": 84521.71800000018,
      "d": 217.39125000000058,
      "v": 97
    },
    {
      "midi": 60,
      "hit": false,
      "t": 84652.15275000018,
      "d": 86.95650000000023,
      "v": 110
    },
    {
      "midi": 60,
      "hit": false,
      "t": 84782.58750000018,
      "d": 86.95650000000023,
      "v": 110
    },
    {
      "midi": 36,
      "hit": false,
      "t": 84782.58750000018,
      "d": 260.8695000000007,
      "v": 100
    },
    {
      "midi": 60,
      "hit": false,
      "t": 84913.02225000018,
      "d": 86.95650000000023,
      "v": 110
    },
    {
      "midi": 55,
      "hit": false,
      "t": 84913.02225000018,
      "d": 217.39125000000058,
      "v": 100
    },
    {
      "midi": 64,
      "hit": false,
      "t": 84913.02225000018,
      "d": 217.39125000000058,
      "v": 100
    },
    {
      "midi": 60,
      "hit": false,
      "t": 85043.45700000018,
      "d": 86.95650000000023,
      "v": 110
    },
    {
      "midi": 60,
      "hit": false,
      "t": 85173.89175000018,
      "d": 86.95650000000023,
      "v": 110
    },
    {
      "midi": 36,
      "hit": false,
      "t": 85173.89175000018,
      "d": 260.8695000000007,
      "v": 100
    },
    {
      "midi": 60,
      "hit": false,
      "t": 85304.32650000018,
      "d": 86.95650000000023,
      "v": 110
    },
    {
      "midi": 55,
      "hit": false,
      "t": 85304.32650000018,
      "d": 217.39125000000058,
      "v": 94
    },
    {
      "midi": 64,
      "hit": false,
      "t": 85304.32650000018,
      "d": 217.39125000000058,
      "v": 94
    },
    {
      "midi": 60,
      "hit": false,
      "t": 85434.76125000019,
      "d": 86.95650000000023,
      "v": 110
    },
    {
      "midi": 55,
      "hit": false,
      "t": 85565.19600000019,
      "d": 86.95650000000023,
      "v": 110
    },
    {
      "midi": 43,
      "hit": false,
      "t": 85565.19600000019,
      "d": 347.82600000000093,
      "v": 100
    },
    {
      "midi": 55,
      "hit": false,
      "t": 85695.63075000019,
      "d": 86.95650000000023,
      "v": 110
    },
    {
      "midi": 55,
      "hit": false,
      "t": 85826.06550000019,
      "d": 86.95650000000023,
      "v": 110
    },
    {
      "midi": 59,
      "hit": false,
      "t": 85826.06550000019,
      "d": 217.39125000000058,
      "v": 99
    },
    {
      "midi": 62,
      "hit": false,
      "t": 85826.06550000019,
      "d": 217.39125000000058,
      "v": 99
    },
    {
      "midi": 55,
      "hit": false,
      "t": 85956.50025000019,
      "d": 86.95650000000023,
      "v": 110
    },
    {
      "midi": 55,
      "hit": false,
      "t": 86086.93500000019,
      "d": 86.95650000000023,
      "v": 110
    },
    {
      "midi": 43,
      "hit": false,
      "t": 86086.93500000019,
      "d": 260.8695000000007,
      "v": 100
    },
    {
      "midi": 55,
      "hit": false,
      "t": 86217.36975000019,
      "d": 86.95650000000023,
      "v": 110
    },
    {
      "midi": 59,
      "hit": false,
      "t": 86217.36975000019,
      "d": 217.39125000000058,
      "v": 94
    },
    {
      "midi": 62,
      "hit": false,
      "t": 86217.36975000019,
      "d": 217.39125000000058,
      "v": 94
    },
    {
      "midi": 55,
      "hit": false,
      "t": 86347.80450000019,
      "d": 86.95650000000023,
      "v": 110
    },
    {
      "midi": 55,
      "hit": false,
      "t": 86478.23925000019,
      "d": 86.95650000000023,
      "v": 110
    },
    {
      "midi": 43,
      "hit": false,
      "t": 86478.23925000019,
      "d": 260.8695000000007,
      "v": 100
    },
    {
      "midi": 55,
      "hit": false,
      "t": 86608.67400000019,
      "d": 86.95650000000023,
      "v": 110
    },
    {
      "midi": 59,
      "hit": false,
      "t": 86608.67400000019,
      "d": 217.39125000000058,
      "v": 97
    },
    {
      "midi": 62,
      "hit": false,
      "t": 86608.67400000019,
      "d": 217.39125000000058,
      "v": 97
    },
    {
      "midi": 55,
      "hit": false,
      "t": 86739.10875000019,
      "d": 86.95650000000023,
      "v": 110
    },
    {
      "midi": 55,
      "hit": false,
      "t": 86869.54350000019,
      "d": 86.95650000000023,
      "v": 110
    },
    {
      "midi": 43,
      "hit": false,
      "t": 86869.54350000019,
      "d": 260.8695000000007,
      "v": 100
    },
    {
      "midi": 55,
      "hit": false,
      "t": 86999.97825000019,
      "d": 86.95650000000023,
      "v": 110
    },
    {
      "midi": 59,
      "hit": false,
      "t": 86999.97825000019,
      "d": 217.39125000000058,
      "v": 100
    },
    {
      "midi": 62,
      "hit": false,
      "t": 86999.97825000019,
      "d": 217.39125000000058,
      "v": 100
    },
    {
      "midi": 55,
      "hit": false,
      "t": 87130.41300000019,
      "d": 86.95650000000023,
      "v": 110
    },
    {
      "midi": 55,
      "hit": false,
      "t": 87260.84775000019,
      "d": 86.95650000000023,
      "v": 110
    },
    {
      "midi": 43,
      "hit": false,
      "t": 87260.84775000019,
      "d": 260.8695000000007,
      "v": 100
    },
    {
      "midi": 55,
      "hit": false,
      "t": 87391.28250000019,
      "d": 86.95650000000023,
      "v": 110
    },
    {
      "midi": 59,
      "hit": false,
      "t": 87391.28250000019,
      "d": 217.39125000000058,
      "v": 94
    },
    {
      "midi": 62,
      "hit": false,
      "t": 87391.28250000019,
      "d": 217.39125000000058,
      "v": 94
    },
    {
      "midi": 55,
      "hit": false,
      "t": 87521.71725000019,
      "d": 86.95650000000023,
      "v": 110
    },
    {
      "midi": 57,
      "hit": false,
      "t": 87652.15200000019,
      "d": 86.95650000000023,
      "v": 110
    },
    {
      "midi": 45,
      "hit": false,
      "t": 87652.15200000019,
      "d": 347.82600000000093,
      "v": 100
    },
    {
      "midi": 57,
      "hit": false,
      "t": 87782.58675000019,
      "d": 86.95650000000023,
      "v": 110
    },
    {
      "midi": 57,
      "hit": false,
      "t": 87913.02150000019,
      "d": 86.95650000000023,
      "v": 110
    },
    {
      "midi": 52,
      "hit": false,
      "t": 87913.02150000019,
      "d": 217.39125000000058,
      "v": 99
    },
    {
      "midi": 60,
      "hit": false,
      "t": 87913.02150000019,
      "d": 217.39125000000058,
      "v": 99
    },
    {
      "midi": 57,
      "hit": false,
      "t": 88043.45625000019,
      "d": 86.95650000000023,
      "v": 110
    },
    {
      "midi": 57,
      "hit": false,
      "t": 88173.89100000019,
      "d": 86.95650000000023,
      "v": 110
    },
    {
      "midi": 45,
      "hit": false,
      "t": 88173.89100000019,
      "d": 260.8695000000007,
      "v": 100
    },
    {
      "midi": 57,
      "hit": false,
      "t": 88304.3257500002,
      "d": 86.95650000000023,
      "v": 110
    },
    {
      "midi": 52,
      "hit": false,
      "t": 88304.3257500002,
      "d": 217.39125000000058,
      "v": 94
    },
    {
      "midi": 60,
      "hit": false,
      "t": 88304.3257500002,
      "d": 217.39125000000058,
      "v": 94
    },
    {
      "midi": 57,
      "hit": false,
      "t": 88434.7605000002,
      "d": 86.95650000000023,
      "v": 110
    },
    {
      "midi": 57,
      "hit": false,
      "t": 88565.1952500002,
      "d": 86.95650000000023,
      "v": 110
    },
    {
      "midi": 45,
      "hit": false,
      "t": 88565.1952500002,
      "d": 260.8695000000007,
      "v": 100
    },
    {
      "midi": 57,
      "hit": false,
      "t": 88695.6300000002,
      "d": 86.95650000000023,
      "v": 110
    },
    {
      "midi": 52,
      "hit": false,
      "t": 88695.6300000002,
      "d": 217.39125000000058,
      "v": 97
    },
    {
      "midi": 60,
      "hit": false,
      "t": 88695.6300000002,
      "d": 217.39125000000058,
      "v": 97
    },
    {
      "midi": 57,
      "hit": false,
      "t": 88826.0647500002,
      "d": 86.95650000000023,
      "v": 110
    },
    {
      "midi": 57,
      "hit": false,
      "t": 88956.4995000002,
      "d": 86.95650000000023,
      "v": 110
    },
    {
      "midi": 45,
      "hit": false,
      "t": 88956.4995000002,
      "d": 260.8695000000007,
      "v": 100
    },
    {
      "midi": 57,
      "hit": false,
      "t": 89086.9342500002,
      "d": 86.95650000000023,
      "v": 110
    },
    {
      "midi": 52,
      "hit": false,
      "t": 89086.9342500002,
      "d": 217.39125000000058,
      "v": 100
    },
    {
      "midi": 60,
      "hit": false,
      "t": 89086.9342500002,
      "d": 217.39125000000058,
      "v": 100
    },
    {
      "midi": 57,
      "hit": false,
      "t": 89217.3690000002,
      "d": 86.95650000000023,
      "v": 110
    },
    {
      "midi": 57,
      "hit": false,
      "t": 89347.8037500002,
      "d": 86.95650000000023,
      "v": 110
    },
    {
      "midi": 45,
      "hit": false,
      "t": 89347.8037500002,
      "d": 260.8695000000007,
      "v": 100
    },
    {
      "midi": 57,
      "hit": false,
      "t": 89478.2385000002,
      "d": 86.95650000000023,
      "v": 110
    },
    {
      "midi": 52,
      "hit": false,
      "t": 89478.2385000002,
      "d": 217.39125000000058,
      "v": 94
    },
    {
      "midi": 60,
      "hit": false,
      "t": 89478.2385000002,
      "d": 217.39125000000058,
      "v": 94
    },
    {
      "midi": 57,
      "hit": false,
      "t": 89608.6732500002,
      "d": 86.95650000000023,
      "v": 110
    },
    {
      "midi": 52,
      "hit": false,
      "t": 89739.1080000002,
      "d": 86.95650000000023,
      "v": 110
    },
    {
      "midi": 40,
      "hit": false,
      "t": 89739.1080000002,
      "d": 347.82600000000093,
      "v": 100
    },
    {
      "midi": 52,
      "hit": false,
      "t": 89869.5427500002,
      "d": 86.95650000000023,
      "v": 110
    },
    {
      "midi": 52,
      "hit": false,
      "t": 89999.9775000002,
      "d": 86.95650000000023,
      "v": 110
    },
    {
      "midi": 55,
      "hit": false,
      "t": 89999.9775000002,
      "d": 217.39125000000058,
      "v": 99
    },
    {
      "midi": 59,
      "hit": false,
      "t": 89999.9775000002,
      "d": 217.39125000000058,
      "v": 99
    },
    {
      "midi": 52,
      "hit": false,
      "t": 90130.4122500002,
      "d": 86.95650000000023,
      "v": 110
    },
    {
      "midi": 52,
      "hit": false,
      "t": 90260.8470000002,
      "d": 86.95650000000023,
      "v": 110
    },
    {
      "midi": 40,
      "hit": false,
      "t": 90260.8470000002,
      "d": 260.8695000000007,
      "v": 100
    },
    {
      "midi": 52,
      "hit": false,
      "t": 90391.2817500002,
      "d": 86.95650000000023,
      "v": 110
    },
    {
      "midi": 55,
      "hit": false,
      "t": 90391.2817500002,
      "d": 217.39125000000058,
      "v": 94
    },
    {
      "midi": 59,
      "hit": false,
      "t": 90391.2817500002,
      "d": 217.39125000000058,
      "v": 94
    },
    {
      "midi": 52,
      "hit": false,
      "t": 90521.7165000002,
      "d": 86.95650000000023,
      "v": 110
    },
    {
      "midi": 52,
      "hit": false,
      "t": 90652.1512500002,
      "d": 86.95650000000023,
      "v": 110
    },
    {
      "midi": 40,
      "hit": false,
      "t": 90652.1512500002,
      "d": 260.8695000000007,
      "v": 100
    },
    {
      "midi": 52,
      "hit": false,
      "t": 90782.5860000002,
      "d": 86.95650000000023,
      "v": 110
    },
    {
      "midi": 55,
      "hit": false,
      "t": 90782.5860000002,
      "d": 217.39125000000058,
      "v": 97
    },
    {
      "midi": 59,
      "hit": false,
      "t": 90782.5860000002,
      "d": 217.39125000000058,
      "v": 97
    },
    {
      "midi": 52,
      "hit": false,
      "t": 90913.0207500002,
      "d": 86.95650000000023,
      "v": 110
    },
    {
      "midi": 52,
      "hit": false,
      "t": 91043.4555000002,
      "d": 86.95650000000023,
      "v": 110
    },
    {
      "midi": 40,
      "hit": false,
      "t": 91043.4555000002,
      "d": 260.8695000000007,
      "v": 100
    },
    {
      "midi": 52,
      "hit": false,
      "t": 91173.8902500002,
      "d": 86.95650000000023,
      "v": 110
    },
    {
      "midi": 55,
      "hit": false,
      "t": 91173.8902500002,
      "d": 217.39125000000058,
      "v": 100
    },
    {
      "midi": 59,
      "hit": false,
      "t": 91173.8902500002,
      "d": 217.39125000000058,
      "v": 100
    },
    {
      "midi": 52,
      "hit": false,
      "t": 91304.3250000002,
      "d": 86.95650000000023,
      "v": 110
    },
    {
      "midi": 52,
      "hit": false,
      "t": 91434.7597500002,
      "d": 86.95650000000023,
      "v": 110
    },
    {
      "midi": 40,
      "hit": false,
      "t": 91434.7597500002,
      "d": 260.8695000000007,
      "v": 100
    },
    {
      "midi": 52,
      "hit": false,
      "t": 91565.1945000002,
      "d": 86.95650000000023,
      "v": 110
    },
    {
      "midi": 55,
      "hit": false,
      "t": 91565.1945000002,
      "d": 217.39125000000058,
      "v": 94
    },
    {
      "midi": 59,
      "hit": false,
      "t": 91565.1945000002,
      "d": 217.39125000000058,
      "v": 94
    },
    {
      "midi": 52,
      "hit": false,
      "t": 91695.6292500002,
      "d": 86.95650000000023,
      "v": 110
    },
    {
      "midi": 53,
      "hit": false,
      "t": 91826.0640000002,
      "d": 86.95650000000023,
      "v": 110
    },
    {
      "midi": 41,
      "hit": false,
      "t": 91826.0640000002,
      "d": 347.82600000000093,
      "v": 100
    },
    {
      "midi": 53,
      "hit": false,
      "t": 91956.4987500002,
      "d": 86.95650000000023,
      "v": 110
    },
    {
      "midi": 53,
      "hit": false,
      "t": 92086.9335000002,
      "d": 86.95650000000023,
      "v": 110
    },
    {
      "midi": 57,
      "hit": false,
      "t": 92086.9335000002,
      "d": 217.39125000000058,
      "v": 99
    },
    {
      "midi": 60,
      "hit": false,
      "t": 92086.9335000002,
      "d": 217.39125000000058,
      "v": 99
    },
    {
      "midi": 53,
      "hit": false,
      "t": 92217.3682500002,
      "d": 86.95650000000023,
      "v": 110
    },
    {
      "midi": 53,
      "hit": false,
      "t": 92347.8030000002,
      "d": 86.95650000000023,
      "v": 110
    },
    {
      "midi": 41,
      "hit": false,
      "t": 92347.8030000002,
      "d": 260.8695000000007,
      "v": 100
    },
    {
      "midi": 53,
      "hit": false,
      "t": 92478.2377500002,
      "d": 86.95650000000023,
      "v": 110
    },
    {
      "midi": 57,
      "hit": false,
      "t": 92478.2377500002,
      "d": 217.39125000000058,
      "v": 94
    },
    {
      "midi": 60,
      "hit": false,
      "t": 92478.2377500002,
      "d": 217.39125000000058,
      "v": 94
    },
    {
      "midi": 53,
      "hit": false,
      "t": 92608.6725000002,
      "d": 86.95650000000023,
      "v": 110
    },
    {
      "midi": 53,
      "hit": false,
      "t": 92739.1072500002,
      "d": 86.95650000000023,
      "v": 110
    },
    {
      "midi": 41,
      "hit": false,
      "t": 92739.1072500002,
      "d": 260.8695000000007,
      "v": 100
    },
    {
      "midi": 53,
      "hit": false,
      "t": 92869.5420000002,
      "d": 86.95650000000023,
      "v": 110
    },
    {
      "midi": 57,
      "hit": false,
      "t": 92869.5420000002,
      "d": 217.39125000000058,
      "v": 97
    },
    {
      "midi": 60,
      "hit": false,
      "t": 92869.5420000002,
      "d": 217.39125000000058,
      "v": 97
    },
    {
      "midi": 53,
      "hit": false,
      "t": 92999.9767500002,
      "d": 86.95650000000023,
      "v": 110
    },
    {
      "midi": 53,
      "hit": false,
      "t": 93130.4115000002,
      "d": 86.95650000000023,
      "v": 110
    },
    {
      "midi": 41,
      "hit": false,
      "t": 93130.4115000002,
      "d": 260.8695000000007,
      "v": 100
    },
    {
      "midi": 53,
      "hit": false,
      "t": 93260.8462500002,
      "d": 86.95650000000023,
      "v": 110
    },
    {
      "midi": 57,
      "hit": false,
      "t": 93260.8462500002,
      "d": 217.39125000000058,
      "v": 100
    },
    {
      "midi": 60,
      "hit": false,
      "t": 93260.8462500002,
      "d": 217.39125000000058,
      "v": 100
    },
    {
      "midi": 53,
      "hit": false,
      "t": 93391.2810000002,
      "d": 86.95650000000023,
      "v": 110
    },
    {
      "midi": 53,
      "hit": false,
      "t": 93521.7157500002,
      "d": 86.95650000000023,
      "v": 110
    },
    {
      "midi": 41,
      "hit": false,
      "t": 93521.7157500002,
      "d": 260.8695000000007,
      "v": 100
    },
    {
      "midi": 53,
      "hit": false,
      "t": 93652.1505000002,
      "d": 86.95650000000023,
      "v": 110
    },
    {
      "midi": 57,
      "hit": false,
      "t": 93652.1505000002,
      "d": 217.39125000000058,
      "v": 94
    },
    {
      "midi": 60,
      "hit": false,
      "t": 93652.1505000002,
      "d": 217.39125000000058,
      "v": 94
    },
    {
      "midi": 53,
      "hit": false,
      "t": 93782.58525000021,
      "d": 86.95650000000023,
      "v": 110
    },
    {
      "midi": 60,
      "hit": false,
      "t": 93913.02000000021,
      "d": 86.95650000000023,
      "v": 110
    },
    {
      "midi": 36,
      "hit": false,
      "t": 93913.02000000021,
      "d": 347.82600000000093,
      "v": 100
    },
    {
      "midi": 60,
      "hit": false,
      "t": 94043.45475000021,
      "d": 86.95650000000023,
      "v": 110
    },
    {
      "midi": 60,
      "hit": false,
      "t": 94173.88950000021,
      "d": 86.95650000000023,
      "v": 110
    },
    {
      "midi": 55,
      "hit": false,
      "t": 94173.88950000021,
      "d": 217.39125000000058,
      "v": 99
    },
    {
      "midi": 64,
      "hit": false,
      "t": 94173.88950000021,
      "d": 217.39125000000058,
      "v": 99
    },
    {
      "midi": 60,
      "hit": false,
      "t": 94304.32425000021,
      "d": 86.95650000000023,
      "v": 110
    },
    {
      "midi": 60,
      "hit": false,
      "t": 94434.75900000021,
      "d": 86.95650000000023,
      "v": 110
    },
    {
      "midi": 36,
      "hit": false,
      "t": 94434.75900000021,
      "d": 260.8695000000007,
      "v": 100
    },
    {
      "midi": 60,
      "hit": false,
      "t": 94565.19375000021,
      "d": 86.95650000000023,
      "v": 110
    },
    {
      "midi": 55,
      "hit": false,
      "t": 94565.19375000021,
      "d": 217.39125000000058,
      "v": 94
    },
    {
      "midi": 64,
      "hit": false,
      "t": 94565.19375000021,
      "d": 217.39125000000058,
      "v": 94
    },
    {
      "midi": 60,
      "hit": false,
      "t": 94695.62850000021,
      "d": 86.95650000000023,
      "v": 110
    },
    {
      "midi": 60,
      "hit": false,
      "t": 94826.06325000021,
      "d": 86.95650000000023,
      "v": 110
    },
    {
      "midi": 36,
      "hit": false,
      "t": 94826.06325000021,
      "d": 260.8695000000007,
      "v": 100
    },
    {
      "midi": 60,
      "hit": false,
      "t": 94956.49800000021,
      "d": 86.95650000000023,
      "v": 110
    },
    {
      "midi": 55,
      "hit": false,
      "t": 94956.49800000021,
      "d": 217.39125000000058,
      "v": 97
    },
    {
      "midi": 64,
      "hit": false,
      "t": 94956.49800000021,
      "d": 217.39125000000058,
      "v": 97
    },
    {
      "midi": 60,
      "hit": false,
      "t": 95086.93275000021,
      "d": 86.95650000000023,
      "v": 110
    },
    {
      "midi": 60,
      "hit": false,
      "t": 95217.36750000021,
      "d": 86.95650000000023,
      "v": 110
    },
    {
      "midi": 36,
      "hit": false,
      "t": 95217.36750000021,
      "d": 260.8695000000007,
      "v": 100
    },
    {
      "midi": 60,
      "hit": false,
      "t": 95347.80225000021,
      "d": 86.95650000000023,
      "v": 110
    },
    {
      "midi": 55,
      "hit": false,
      "t": 95347.80225000021,
      "d": 217.39125000000058,
      "v": 100
    },
    {
      "midi": 64,
      "hit": false,
      "t": 95347.80225000021,
      "d": 217.39125000000058,
      "v": 100
    },
    {
      "midi": 60,
      "hit": false,
      "t": 95478.23700000021,
      "d": 86.95650000000023,
      "v": 110
    },
    {
      "midi": 60,
      "hit": false,
      "t": 95608.67175000021,
      "d": 86.95650000000023,
      "v": 110
    },
    {
      "midi": 36,
      "hit": false,
      "t": 95608.67175000021,
      "d": 260.8695000000007,
      "v": 100
    },
    {
      "midi": 60,
      "hit": false,
      "t": 95739.10650000021,
      "d": 86.95650000000023,
      "v": 110
    },
    {
      "midi": 55,
      "hit": false,
      "t": 95739.10650000021,
      "d": 217.39125000000058,
      "v": 94
    },
    {
      "midi": 64,
      "hit": false,
      "t": 95739.10650000021,
      "d": 217.39125000000058,
      "v": 94
    },
    {
      "midi": 60,
      "hit": false,
      "t": 95869.54125000021,
      "d": 86.95650000000023,
      "v": 110
    },
    {
      "midi": 62,
      "hit": false,
      "t": 95999.97600000021,
      "d": 86.95650000000023,
      "v": 110
    },
    {
      "midi": 38,
      "hit": false,
      "t": 95999.97600000021,
      "d": 347.82600000000093,
      "v": 100
    },
    {
      "midi": 62,
      "hit": false,
      "t": 96130.41075000021,
      "d": 86.95650000000023,
      "v": 110
    },
    {
      "midi": 62,
      "hit": false,
      "t": 96260.84550000021,
      "d": 86.95650000000023,
      "v": 110
    },
    {
      "midi": 50,
      "hit": false,
      "t": 96260.84550000021,
      "d": 217.39125000000058,
      "v": 99
    },
    {
      "midi": 53,
      "hit": false,
      "t": 96260.84550000021,
      "d": 217.39125000000058,
      "v": 99
    },
    {
      "midi": 57,
      "hit": false,
      "t": 96260.84550000021,
      "d": 217.39125000000058,
      "v": 99
    },
    {
      "midi": 60,
      "hit": false,
      "t": 96260.84550000021,
      "d": 217.39125000000058,
      "v": 99
    },
    {
      "midi": 62,
      "hit": false,
      "t": 96391.28025000021,
      "d": 86.95650000000023,
      "v": 110
    },
    {
      "midi": 62,
      "hit": false,
      "t": 96521.71500000021,
      "d": 86.95650000000023,
      "v": 110
    },
    {
      "midi": 38,
      "hit": false,
      "t": 96521.71500000021,
      "d": 260.8695000000007,
      "v": 100
    },
    {
      "midi": 62,
      "hit": false,
      "t": 96652.14975000022,
      "d": 86.95650000000023,
      "v": 110
    },
    {
      "midi": 50,
      "hit": false,
      "t": 96652.14975000022,
      "d": 217.39125000000058,
      "v": 94
    },
    {
      "midi": 53,
      "hit": false,
      "t": 96652.14975000022,
      "d": 217.39125000000058,
      "v": 94
    },
    {
      "midi": 57,
      "hit": false,
      "t": 96652.14975000022,
      "d": 217.39125000000058,
      "v": 94
    },
    {
      "midi": 60,
      "hit": false,
      "t": 96652.14975000022,
      "d": 217.39125000000058,
      "v": 94
    },
    {
      "midi": 62,
      "hit": false,
      "t": 96782.58450000022,
      "d": 86.95650000000023,
      "v": 110
    },
    {
      "midi": 62,
      "hit": false,
      "t": 96913.01925000022,
      "d": 86.95650000000023,
      "v": 110
    },
    {
      "midi": 38,
      "hit": false,
      "t": 96913.01925000022,
      "d": 260.8695000000007,
      "v": 100
    },
    {
      "midi": 62,
      "hit": false,
      "t": 97043.45400000022,
      "d": 86.95650000000023,
      "v": 110
    },
    {
      "midi": 50,
      "hit": false,
      "t": 97043.45400000022,
      "d": 217.39125000000058,
      "v": 97
    },
    {
      "midi": 53,
      "hit": false,
      "t": 97043.45400000022,
      "d": 217.39125000000058,
      "v": 97
    },
    {
      "midi": 57,
      "hit": false,
      "t": 97043.45400000022,
      "d": 217.39125000000058,
      "v": 97
    },
    {
      "midi": 60,
      "hit": false,
      "t": 97043.45400000022,
      "d": 217.39125000000058,
      "v": 97
    },
    {
      "midi": 62,
      "hit": false,
      "t": 97173.88875000022,
      "d": 86.95650000000023,
      "v": 110
    },
    {
      "midi": 62,
      "hit": false,
      "t": 97304.32350000022,
      "d": 86.95650000000023,
      "v": 110
    },
    {
      "midi": 38,
      "hit": false,
      "t": 97304.32350000022,
      "d": 260.8695000000007,
      "v": 100
    },
    {
      "midi": 62,
      "hit": false,
      "t": 97434.75825000022,
      "d": 86.95650000000023,
      "v": 110
    },
    {
      "midi": 50,
      "hit": false,
      "t": 97434.75825000022,
      "d": 217.39125000000058,
      "v": 100
    },
    {
      "midi": 53,
      "hit": false,
      "t": 97434.75825000022,
      "d": 217.39125000000058,
      "v": 100
    },
    {
      "midi": 57,
      "hit": false,
      "t": 97434.75825000022,
      "d": 217.39125000000058,
      "v": 100
    },
    {
      "midi": 60,
      "hit": false,
      "t": 97434.75825000022,
      "d": 217.39125000000058,
      "v": 100
    },
    {
      "midi": 62,
      "hit": false,
      "t": 97565.19300000022,
      "d": 86.95650000000023,
      "v": 110
    },
    {
      "midi": 62,
      "hit": false,
      "t": 97695.62775000022,
      "d": 86.95650000000023,
      "v": 110
    },
    {
      "midi": 38,
      "hit": false,
      "t": 97695.62775000022,
      "d": 260.8695000000007,
      "v": 100
    },
    {
      "midi": 62,
      "hit": false,
      "t": 97826.06250000022,
      "d": 86.95650000000023,
      "v": 110
    },
    {
      "midi": 50,
      "hit": false,
      "t": 97826.06250000022,
      "d": 217.39125000000058,
      "v": 94
    },
    {
      "midi": 53,
      "hit": false,
      "t": 97826.06250000022,
      "d": 217.39125000000058,
      "v": 94
    },
    {
      "midi": 57,
      "hit": false,
      "t": 97826.06250000022,
      "d": 217.39125000000058,
      "v": 94
    },
    {
      "midi": 60,
      "hit": false,
      "t": 97826.06250000022,
      "d": 217.39125000000058,
      "v": 94
    },
    {
      "midi": 62,
      "hit": false,
      "t": 97956.49725000022,
      "d": 86.95650000000023,
      "v": 110
    },
    {
      "midi": 55,
      "hit": false,
      "t": 98086.93200000022,
      "d": 86.95650000000023,
      "v": 110
    },
    {
      "midi": 43,
      "hit": false,
      "t": 98086.93200000022,
      "d": 347.82600000000093,
      "v": 100
    },
    {
      "midi": 55,
      "hit": false,
      "t": 98217.36675000022,
      "d": 86.95650000000023,
      "v": 110
    },
    {
      "midi": 55,
      "hit": false,
      "t": 98347.80150000022,
      "d": 86.95650000000023,
      "v": 110
    },
    {
      "midi": 59,
      "hit": false,
      "t": 98347.80150000022,
      "d": 217.39125000000058,
      "v": 99
    },
    {
      "midi": 62,
      "hit": false,
      "t": 98347.80150000022,
      "d": 217.39125000000058,
      "v": 99
    },
    {
      "midi": 55,
      "hit": false,
      "t": 98478.23625000022,
      "d": 86.95650000000023,
      "v": 110
    },
    {
      "midi": 55,
      "hit": false,
      "t": 98608.67100000022,
      "d": 86.95650000000023,
      "v": 110
    },
    {
      "midi": 43,
      "hit": false,
      "t": 98608.67100000022,
      "d": 260.8695000000007,
      "v": 100
    },
    {
      "midi": 55,
      "hit": false,
      "t": 98739.10575000022,
      "d": 86.95650000000023,
      "v": 110
    },
    {
      "midi": 59,
      "hit": false,
      "t": 98739.10575000022,
      "d": 217.39125000000058,
      "v": 94
    },
    {
      "midi": 62,
      "hit": false,
      "t": 98739.10575000022,
      "d": 217.39125000000058,
      "v": 94
    },
    {
      "midi": 55,
      "hit": false,
      "t": 98869.54050000022,
      "d": 86.95650000000023,
      "v": 110
    },
    {
      "midi": 55,
      "hit": false,
      "t": 98999.97525000022,
      "d": 86.95650000000023,
      "v": 110
    },
    {
      "midi": 43,
      "hit": false,
      "t": 98999.97525000022,
      "d": 260.8695000000007,
      "v": 100
    },
    {
      "midi": 55,
      "hit": false,
      "t": 99130.41000000022,
      "d": 86.95650000000023,
      "v": 110
    },
    {
      "midi": 59,
      "hit": false,
      "t": 99130.41000000022,
      "d": 217.39125000000058,
      "v": 97
    },
    {
      "midi": 62,
      "hit": false,
      "t": 99130.41000000022,
      "d": 217.39125000000058,
      "v": 97
    },
    {
      "midi": 55,
      "hit": false,
      "t": 99260.84475000022,
      "d": 86.95650000000023,
      "v": 110
    },
    {
      "midi": 55,
      "hit": false,
      "t": 99391.27950000022,
      "d": 86.95650000000023,
      "v": 110
    },
    {
      "midi": 43,
      "hit": false,
      "t": 99391.27950000022,
      "d": 260.8695000000007,
      "v": 100
    },
    {
      "midi": 55,
      "hit": false,
      "t": 99521.71425000022,
      "d": 86.95650000000023,
      "v": 110
    },
    {
      "midi": 59,
      "hit": false,
      "t": 99521.71425000022,
      "d": 217.39125000000058,
      "v": 100
    },
    {
      "midi": 62,
      "hit": false,
      "t": 99521.71425000022,
      "d": 217.39125000000058,
      "v": 100
    },
    {
      "midi": 55,
      "hit": false,
      "t": 99652.14900000022,
      "d": 86.95650000000023,
      "v": 110
    },
    {
      "midi": 55,
      "hit": false,
      "t": 99782.58375000022,
      "d": 86.95650000000023,
      "v": 110
    },
    {
      "midi": 43,
      "hit": false,
      "t": 99782.58375000022,
      "d": 260.8695000000007,
      "v": 100
    },
    {
      "midi": 55,
      "hit": false,
      "t": 99913.01850000022,
      "d": 86.95650000000023,
      "v": 110
    },
    {
      "midi": 59,
      "hit": false,
      "t": 99913.01850000022,
      "d": 217.39125000000058,
      "v": 94
    },
    {
      "midi": 62,
      "hit": false,
      "t": 99913.01850000022,
      "d": 217.39125000000058,
      "v": 94
    },
    {
      "midi": 55,
      "hit": false,
      "t": 100043.45325000022,
      "d": 86.95650000000023,
      "v": 110
    },
    {
      "midi": 60,
      "hit": false,
      "t": 100173.88800000022,
      "d": 86.95650000000023,
      "v": 110
    },
    {
      "midi": 36,
      "hit": false,
      "t": 100173.88800000022,
      "d": 347.82600000000093,
      "v": 100
    },
    {
      "midi": 60,
      "hit": false,
      "t": 100304.32275000022,
      "d": 86.95650000000023,
      "v": 110
    },
    {
      "midi": 60,
      "hit": false,
      "t": 100434.75750000023,
      "d": 86.95650000000023,
      "v": 110
    },
    {
      "midi": 55,
      "hit": false,
      "t": 100434.75750000023,
      "d": 217.39125000000058,
      "v": 99
    },
    {
      "midi": 64,
      "hit": false,
      "t": 100434.75750000023,
      "d": 217.39125000000058,
      "v": 99
    },
    {
      "midi": 60,
      "hit": false,
      "t": 100565.19225000023,
      "d": 86.95650000000023,
      "v": 110
    },
    {
      "midi": 60,
      "hit": false,
      "t": 100695.62700000023,
      "d": 86.95650000000023,
      "v": 110
    },
    {
      "midi": 36,
      "hit": false,
      "t": 100695.62700000023,
      "d": 260.8695000000007,
      "v": 100
    },
    {
      "midi": 60,
      "hit": false,
      "t": 100826.06175000023,
      "d": 86.95650000000023,
      "v": 110
    },
    {
      "midi": 55,
      "hit": false,
      "t": 100826.06175000023,
      "d": 217.39125000000058,
      "v": 94
    },
    {
      "midi": 64,
      "hit": false,
      "t": 100826.06175000023,
      "d": 217.39125000000058,
      "v": 94
    },
    {
      "midi": 60,
      "hit": false,
      "t": 100956.49650000023,
      "d": 86.95650000000023,
      "v": 110
    },
    {
      "midi": 60,
      "hit": false,
      "t": 101086.93125000023,
      "d": 86.95650000000023,
      "v": 110
    },
    {
      "midi": 36,
      "hit": false,
      "t": 101086.93125000023,
      "d": 260.8695000000007,
      "v": 100
    },
    {
      "midi": 60,
      "hit": false,
      "t": 101217.36600000023,
      "d": 86.95650000000023,
      "v": 110
    },
    {
      "midi": 55,
      "hit": false,
      "t": 101217.36600000023,
      "d": 217.39125000000058,
      "v": 97
    },
    {
      "midi": 64,
      "hit": false,
      "t": 101217.36600000023,
      "d": 217.39125000000058,
      "v": 97
    },
    {
      "midi": 60,
      "hit": false,
      "t": 101347.80075000023,
      "d": 86.95650000000023,
      "v": 110
    },
    {
      "midi": 60,
      "hit": false,
      "t": 101478.23550000023,
      "d": 86.95650000000023,
      "v": 110
    },
    {
      "midi": 36,
      "hit": false,
      "t": 101478.23550000023,
      "d": 260.8695000000007,
      "v": 100
    },
    {
      "midi": 60,
      "hit": false,
      "t": 101608.67025000023,
      "d": 86.95650000000023,
      "v": 110
    },
    {
      "midi": 55,
      "hit": false,
      "t": 101608.67025000023,
      "d": 217.39125000000058,
      "v": 100
    },
    {
      "midi": 64,
      "hit": false,
      "t": 101608.67025000023,
      "d": 217.39125000000058,
      "v": 100
    },
    {
      "midi": 60,
      "hit": false,
      "t": 101739.10500000023,
      "d": 86.95650000000023,
      "v": 110
    },
    {
      "midi": 60,
      "hit": false,
      "t": 101869.53975000023,
      "d": 86.95650000000023,
      "v": 110
    },
    {
      "midi": 36,
      "hit": false,
      "t": 101869.53975000023,
      "d": 260.8695000000007,
      "v": 100
    },
    {
      "midi": 60,
      "hit": false,
      "t": 101999.97450000023,
      "d": 86.95650000000023,
      "v": 110
    },
    {
      "midi": 55,
      "hit": false,
      "t": 101999.97450000023,
      "d": 217.39125000000058,
      "v": 94
    },
    {
      "midi": 64,
      "hit": false,
      "t": 101999.97450000023,
      "d": 217.39125000000058,
      "v": 94
    },
    {
      "midi": 60,
      "hit": false,
      "t": 102130.40925000023,
      "d": 86.95650000000023,
      "v": 110
    },
    {
      "midi": 55,
      "hit": false,
      "t": 102260.84400000023,
      "d": 86.95650000000023,
      "v": 110
    },
    {
      "midi": 43,
      "hit": false,
      "t": 102260.84400000023,
      "d": 347.82600000000093,
      "v": 100
    },
    {
      "midi": 55,
      "hit": false,
      "t": 102391.27875000023,
      "d": 86.95650000000023,
      "v": 110
    },
    {
      "midi": 55,
      "hit": false,
      "t": 102521.71350000023,
      "d": 86.95650000000023,
      "v": 110
    },
    {
      "midi": 59,
      "hit": false,
      "t": 102521.71350000023,
      "d": 217.39125000000058,
      "v": 99
    },
    {
      "midi": 62,
      "hit": false,
      "t": 102521.71350000023,
      "d": 217.39125000000058,
      "v": 99
    },
    {
      "midi": 55,
      "hit": false,
      "t": 102652.14825000023,
      "d": 86.95650000000023,
      "v": 110
    },
    {
      "midi": 55,
      "hit": false,
      "t": 102782.58300000023,
      "d": 86.95650000000023,
      "v": 110
    },
    {
      "midi": 43,
      "hit": false,
      "t": 102782.58300000023,
      "d": 260.8695000000007,
      "v": 100
    },
    {
      "midi": 55,
      "hit": false,
      "t": 102913.01775000023,
      "d": 86.95650000000023,
      "v": 110
    },
    {
      "midi": 59,
      "hit": false,
      "t": 102913.01775000023,
      "d": 217.39125000000058,
      "v": 94
    },
    {
      "midi": 62,
      "hit": false,
      "t": 102913.01775000023,
      "d": 217.39125000000058,
      "v": 94
    },
    {
      "midi": 55,
      "hit": false,
      "t": 103043.45250000023,
      "d": 86.95650000000023,
      "v": 110
    },
    {
      "midi": 55,
      "hit": false,
      "t": 103173.88725000023,
      "d": 86.95650000000023,
      "v": 110
    },
    {
      "midi": 43,
      "hit": false,
      "t": 103173.88725000023,
      "d": 260.8695000000007,
      "v": 100
    },
    {
      "midi": 55,
      "hit": false,
      "t": 103304.32200000023,
      "d": 86.95650000000023,
      "v": 110
    },
    {
      "midi": 59,
      "hit": false,
      "t": 103304.32200000023,
      "d": 217.39125000000058,
      "v": 97
    },
    {
      "midi": 62,
      "hit": false,
      "t": 103304.32200000023,
      "d": 217.39125000000058,
      "v": 97
    },
    {
      "midi": 55,
      "hit": false,
      "t": 103434.75675000023,
      "d": 86.95650000000023,
      "v": 110
    },
    {
      "midi": 55,
      "hit": false,
      "t": 103565.19150000023,
      "d": 86.95650000000023,
      "v": 110
    },
    {
      "midi": 43,
      "hit": false,
      "t": 103565.19150000023,
      "d": 260.8695000000007,
      "v": 100
    },
    {
      "midi": 55,
      "hit": false,
      "t": 103695.62625000023,
      "d": 86.95650000000023,
      "v": 110
    },
    {
      "midi": 59,
      "hit": false,
      "t": 103695.62625000023,
      "d": 217.39125000000058,
      "v": 100
    },
    {
      "midi": 62,
      "hit": false,
      "t": 103695.62625000023,
      "d": 217.39125000000058,
      "v": 100
    },
    {
      "midi": 55,
      "hit": false,
      "t": 103826.06100000023,
      "d": 86.95650000000023,
      "v": 110
    },
    {
      "midi": 55,
      "hit": false,
      "t": 103956.49575000023,
      "d": 86.95650000000023,
      "v": 110
    },
    {
      "midi": 43,
      "hit": false,
      "t": 103956.49575000023,
      "d": 260.8695000000007,
      "v": 100
    },
    {
      "midi": 55,
      "hit": false,
      "t": 104086.93050000024,
      "d": 86.95650000000023,
      "v": 110
    },
    {
      "midi": 59,
      "hit": false,
      "t": 104086.93050000024,
      "d": 217.39125000000058,
      "v": 94
    },
    {
      "midi": 62,
      "hit": false,
      "t": 104086.93050000024,
      "d": 217.39125000000058,
      "v": 94
    },
    {
      "midi": 55,
      "hit": false,
      "t": 104217.36525000024,
      "d": 86.95650000000023,
      "v": 110
    },
    {
      "midi": 57,
      "hit": false,
      "t": 104347.80000000024,
      "d": 86.95650000000023,
      "v": 110
    },
    {
      "midi": 45,
      "hit": false,
      "t": 104347.80000000024,
      "d": 347.82600000000093,
      "v": 100
    },
    {
      "midi": 57,
      "hit": false,
      "t": 104478.23475000024,
      "d": 86.95650000000023,
      "v": 110
    },
    {
      "midi": 57,
      "hit": false,
      "t": 104608.66950000024,
      "d": 86.95650000000023,
      "v": 110
    },
    {
      "midi": 52,
      "hit": false,
      "t": 104608.66950000024,
      "d": 217.39125000000058,
      "v": 99
    },
    {
      "midi": 60,
      "hit": false,
      "t": 104608.66950000024,
      "d": 217.39125000000058,
      "v": 99
    },
    {
      "midi": 57,
      "hit": false,
      "t": 104739.10425000024,
      "d": 86.95650000000023,
      "v": 110
    },
    {
      "midi": 57,
      "hit": false,
      "t": 104869.53900000024,
      "d": 86.95650000000023,
      "v": 110
    },
    {
      "midi": 45,
      "hit": false,
      "t": 104869.53900000024,
      "d": 260.8695000000007,
      "v": 100
    },
    {
      "midi": 57,
      "hit": false,
      "t": 104999.97375000024,
      "d": 86.95650000000023,
      "v": 110
    },
    {
      "midi": 52,
      "hit": false,
      "t": 104999.97375000024,
      "d": 217.39125000000058,
      "v": 94
    },
    {
      "midi": 60,
      "hit": false,
      "t": 104999.97375000024,
      "d": 217.39125000000058,
      "v": 94
    },
    {
      "midi": 57,
      "hit": false,
      "t": 105130.40850000024,
      "d": 86.95650000000023,
      "v": 110
    },
    {
      "midi": 57,
      "hit": false,
      "t": 105260.84325000024,
      "d": 86.95650000000023,
      "v": 110
    },
    {
      "midi": 45,
      "hit": false,
      "t": 105260.84325000024,
      "d": 260.8695000000007,
      "v": 100
    },
    {
      "midi": 57,
      "hit": false,
      "t": 105391.27800000024,
      "d": 86.95650000000023,
      "v": 110
    },
    {
      "midi": 52,
      "hit": false,
      "t": 105391.27800000024,
      "d": 217.39125000000058,
      "v": 97
    },
    {
      "midi": 60,
      "hit": false,
      "t": 105391.27800000024,
      "d": 217.39125000000058,
      "v": 97
    },
    {
      "midi": 57,
      "hit": false,
      "t": 105521.71275000024,
      "d": 86.95650000000023,
      "v": 110
    },
    {
      "midi": 57,
      "hit": false,
      "t": 105652.14750000024,
      "d": 86.95650000000023,
      "v": 110
    },
    {
      "midi": 45,
      "hit": false,
      "t": 105652.14750000024,
      "d": 260.8695000000007,
      "v": 100
    },
    {
      "midi": 57,
      "hit": false,
      "t": 105782.58225000024,
      "d": 86.95650000000023,
      "v": 110
    },
    {
      "midi": 52,
      "hit": false,
      "t": 105782.58225000024,
      "d": 217.39125000000058,
      "v": 100
    },
    {
      "midi": 60,
      "hit": false,
      "t": 105782.58225000024,
      "d": 217.39125000000058,
      "v": 100
    },
    {
      "midi": 57,
      "hit": false,
      "t": 105913.01700000024,
      "d": 86.95650000000023,
      "v": 110
    },
    {
      "midi": 57,
      "hit": false,
      "t": 106043.45175000024,
      "d": 86.95650000000023,
      "v": 110
    },
    {
      "midi": 45,
      "hit": false,
      "t": 106043.45175000024,
      "d": 260.8695000000007,
      "v": 100
    },
    {
      "midi": 57,
      "hit": false,
      "t": 106173.88650000024,
      "d": 86.95650000000023,
      "v": 110
    },
    {
      "midi": 52,
      "hit": false,
      "t": 106173.88650000024,
      "d": 217.39125000000058,
      "v": 94
    },
    {
      "midi": 60,
      "hit": false,
      "t": 106173.88650000024,
      "d": 217.39125000000058,
      "v": 94
    },
    {
      "midi": 57,
      "hit": false,
      "t": 106304.32125000024,
      "d": 86.95650000000023,
      "v": 110
    },
    {
      "midi": 52,
      "hit": false,
      "t": 106434.75600000024,
      "d": 86.95650000000023,
      "v": 110
    },
    {
      "midi": 40,
      "hit": false,
      "t": 106434.75600000024,
      "d": 347.82600000000093,
      "v": 100
    },
    {
      "midi": 52,
      "hit": false,
      "t": 106565.19075000024,
      "d": 86.95650000000023,
      "v": 110
    },
    {
      "midi": 52,
      "hit": false,
      "t": 106695.62550000024,
      "d": 86.95650000000023,
      "v": 110
    },
    {
      "midi": 55,
      "hit": false,
      "t": 106695.62550000024,
      "d": 217.39125000000058,
      "v": 99
    },
    {
      "midi": 59,
      "hit": false,
      "t": 106695.62550000024,
      "d": 217.39125000000058,
      "v": 99
    },
    {
      "midi": 52,
      "hit": false,
      "t": 106826.06025000024,
      "d": 86.95650000000023,
      "v": 110
    },
    {
      "midi": 52,
      "hit": false,
      "t": 106956.49500000024,
      "d": 86.95650000000023,
      "v": 110
    },
    {
      "midi": 40,
      "hit": false,
      "t": 106956.49500000024,
      "d": 260.8695000000007,
      "v": 100
    },
    {
      "midi": 52,
      "hit": false,
      "t": 107086.92975000024,
      "d": 86.95650000000023,
      "v": 110
    },
    {
      "midi": 55,
      "hit": false,
      "t": 107086.92975000024,
      "d": 217.39125000000058,
      "v": 94
    },
    {
      "midi": 59,
      "hit": false,
      "t": 107086.92975000024,
      "d": 217.39125000000058,
      "v": 94
    },
    {
      "midi": 52,
      "hit": false,
      "t": 107217.36450000024,
      "d": 86.95650000000023,
      "v": 110
    },
    {
      "midi": 52,
      "hit": false,
      "t": 107347.79925000024,
      "d": 86.95650000000023,
      "v": 110
    },
    {
      "midi": 40,
      "hit": false,
      "t": 107347.79925000024,
      "d": 260.8695000000007,
      "v": 100
    },
    {
      "midi": 52,
      "hit": false,
      "t": 107478.23400000024,
      "d": 86.95650000000023,
      "v": 110
    },
    {
      "midi": 55,
      "hit": false,
      "t": 107478.23400000024,
      "d": 217.39125000000058,
      "v": 97
    },
    {
      "midi": 59,
      "hit": false,
      "t": 107478.23400000024,
      "d": 217.39125000000058,
      "v": 97
    },
    {
      "midi": 52,
      "hit": false,
      "t": 107608.66875000024,
      "d": 86.95650000000023,
      "v": 110
    },
    {
      "midi": 52,
      "hit": false,
      "t": 107739.10350000024,
      "d": 86.95650000000023,
      "v": 110
    },
    {
      "midi": 40,
      "hit": false,
      "t": 107739.10350000024,
      "d": 260.8695000000007,
      "v": 100
    },
    {
      "midi": 52,
      "hit": false,
      "t": 107869.53825000025,
      "d": 86.95650000000023,
      "v": 110
    },
    {
      "midi": 55,
      "hit": false,
      "t": 107869.53825000025,
      "d": 217.39125000000058,
      "v": 100
    },
    {
      "midi": 59,
      "hit": false,
      "t": 107869.53825000025,
      "d": 217.39125000000058,
      "v": 100
    },
    {
      "midi": 52,
      "hit": false,
      "t": 107999.97300000025,
      "d": 86.95650000000023,
      "v": 110
    },
    {
      "midi": 52,
      "hit": false,
      "t": 108130.40775000025,
      "d": 86.95650000000023,
      "v": 110
    },
    {
      "midi": 40,
      "hit": false,
      "t": 108130.40775000025,
      "d": 260.8695000000007,
      "v": 100
    },
    {
      "midi": 52,
      "hit": false,
      "t": 108260.84250000025,
      "d": 86.95650000000023,
      "v": 110
    },
    {
      "midi": 55,
      "hit": false,
      "t": 108260.84250000025,
      "d": 217.39125000000058,
      "v": 94
    },
    {
      "midi": 59,
      "hit": false,
      "t": 108260.84250000025,
      "d": 217.39125000000058,
      "v": 94
    },
    {
      "midi": 52,
      "hit": false,
      "t": 108391.27725000025,
      "d": 86.95650000000023,
      "v": 110
    },
    {
      "midi": 53,
      "hit": false,
      "t": 108521.71200000025,
      "d": 86.95650000000023,
      "v": 110
    },
    {
      "midi": 41,
      "hit": false,
      "t": 108521.71200000025,
      "d": 347.82600000000093,
      "v": 100
    },
    {
      "midi": 53,
      "hit": false,
      "t": 108652.14675000025,
      "d": 86.95650000000023,
      "v": 110
    },
    {
      "midi": 53,
      "hit": false,
      "t": 108782.58150000025,
      "d": 86.95650000000023,
      "v": 110
    },
    {
      "midi": 57,
      "hit": false,
      "t": 108782.58150000025,
      "d": 217.39125000000058,
      "v": 99
    },
    {
      "midi": 60,
      "hit": false,
      "t": 108782.58150000025,
      "d": 217.39125000000058,
      "v": 99
    },
    {
      "midi": 53,
      "hit": false,
      "t": 108913.01625000025,
      "d": 86.95650000000023,
      "v": 110
    },
    {
      "midi": 53,
      "hit": false,
      "t": 109043.45100000025,
      "d": 86.95650000000023,
      "v": 110
    },
    {
      "midi": 41,
      "hit": false,
      "t": 109043.45100000025,
      "d": 260.8695000000007,
      "v": 100
    },
    {
      "midi": 53,
      "hit": false,
      "t": 109173.88575000025,
      "d": 86.95650000000023,
      "v": 110
    },
    {
      "midi": 57,
      "hit": false,
      "t": 109173.88575000025,
      "d": 217.39125000000058,
      "v": 94
    },
    {
      "midi": 60,
      "hit": false,
      "t": 109173.88575000025,
      "d": 217.39125000000058,
      "v": 94
    },
    {
      "midi": 53,
      "hit": false,
      "t": 109304.32050000025,
      "d": 86.95650000000023,
      "v": 110
    },
    {
      "midi": 53,
      "hit": false,
      "t": 109434.75525000025,
      "d": 86.95650000000023,
      "v": 110
    },
    {
      "midi": 41,
      "hit": false,
      "t": 109434.75525000025,
      "d": 260.8695000000007,
      "v": 100
    },
    {
      "midi": 53,
      "hit": false,
      "t": 109565.19000000025,
      "d": 86.95650000000023,
      "v": 110
    },
    {
      "midi": 57,
      "hit": false,
      "t": 109565.19000000025,
      "d": 217.39125000000058,
      "v": 97
    },
    {
      "midi": 60,
      "hit": false,
      "t": 109565.19000000025,
      "d": 217.39125000000058,
      "v": 97
    },
    {
      "midi": 53,
      "hit": false,
      "t": 109695.62475000025,
      "d": 86.95650000000023,
      "v": 110
    },
    {
      "midi": 53,
      "hit": false,
      "t": 109826.05950000025,
      "d": 86.95650000000023,
      "v": 110
    },
    {
      "midi": 41,
      "hit": false,
      "t": 109826.05950000025,
      "d": 260.8695000000007,
      "v": 100
    },
    {
      "midi": 53,
      "hit": false,
      "t": 109956.49425000025,
      "d": 86.95650000000023,
      "v": 110
    },
    {
      "midi": 57,
      "hit": false,
      "t": 109956.49425000025,
      "d": 217.39125000000058,
      "v": 100
    },
    {
      "midi": 60,
      "hit": false,
      "t": 109956.49425000025,
      "d": 217.39125000000058,
      "v": 100
    },
    {
      "midi": 53,
      "hit": false,
      "t": 110086.92900000025,
      "d": 86.95650000000023,
      "v": 110
    },
    {
      "midi": 53,
      "hit": false,
      "t": 110217.36375000025,
      "d": 86.95650000000023,
      "v": 110
    },
    {
      "midi": 41,
      "hit": false,
      "t": 110217.36375000025,
      "d": 260.8695000000007,
      "v": 100
    },
    {
      "midi": 53,
      "hit": false,
      "t": 110347.79850000025,
      "d": 86.95650000000023,
      "v": 110
    },
    {
      "midi": 57,
      "hit": false,
      "t": 110347.79850000025,
      "d": 217.39125000000058,
      "v": 94
    },
    {
      "midi": 60,
      "hit": false,
      "t": 110347.79850000025,
      "d": 217.39125000000058,
      "v": 94
    },
    {
      "midi": 53,
      "hit": false,
      "t": 110478.23325000025,
      "d": 86.95650000000023,
      "v": 110
    },
    {
      "midi": 60,
      "hit": false,
      "t": 110608.66800000025,
      "d": 86.95650000000023,
      "v": 110
    },
    {
      "midi": 36,
      "hit": false,
      "t": 110608.66800000025,
      "d": 347.82600000000093,
      "v": 100
    },
    {
      "midi": 60,
      "hit": false,
      "t": 110739.10275000025,
      "d": 86.95650000000023,
      "v": 110
    },
    {
      "midi": 60,
      "hit": false,
      "t": 110869.53750000025,
      "d": 86.95650000000023,
      "v": 110
    },
    {
      "midi": 55,
      "hit": false,
      "t": 110869.53750000025,
      "d": 217.39125000000058,
      "v": 99
    },
    {
      "midi": 64,
      "hit": false,
      "t": 110869.53750000025,
      "d": 217.39125000000058,
      "v": 99
    },
    {
      "midi": 60,
      "hit": false,
      "t": 110999.97225000025,
      "d": 86.95650000000023,
      "v": 110
    },
    {
      "midi": 60,
      "hit": false,
      "t": 111130.40700000025,
      "d": 86.95650000000023,
      "v": 110
    },
    {
      "midi": 36,
      "hit": false,
      "t": 111130.40700000025,
      "d": 260.8695000000007,
      "v": 100
    },
    {
      "midi": 60,
      "hit": false,
      "t": 111260.84175000025,
      "d": 86.95650000000023,
      "v": 110
    },
    {
      "midi": 55,
      "hit": false,
      "t": 111260.84175000025,
      "d": 217.39125000000058,
      "v": 94
    },
    {
      "midi": 64,
      "hit": false,
      "t": 111260.84175000025,
      "d": 217.39125000000058,
      "v": 94
    },
    {
      "midi": 60,
      "hit": false,
      "t": 111391.27650000025,
      "d": 86.95650000000023,
      "v": 110
    },
    {
      "midi": 60,
      "hit": false,
      "t": 111521.71125000025,
      "d": 86.95650000000023,
      "v": 110
    },
    {
      "midi": 36,
      "hit": false,
      "t": 111521.71125000025,
      "d": 260.8695000000007,
      "v": 100
    },
    {
      "midi": 60,
      "hit": false,
      "t": 111652.14600000026,
      "d": 86.95650000000023,
      "v": 110
    },
    {
      "midi": 55,
      "hit": false,
      "t": 111652.14600000026,
      "d": 217.39125000000058,
      "v": 97
    },
    {
      "midi": 64,
      "hit": false,
      "t": 111652.14600000026,
      "d": 217.39125000000058,
      "v": 97
    },
    {
      "midi": 60,
      "hit": false,
      "t": 111782.58075000026,
      "d": 86.95650000000023,
      "v": 110
    },
    {
      "midi": 60,
      "hit": false,
      "t": 111913.01550000026,
      "d": 86.95650000000023,
      "v": 110
    },
    {
      "midi": 36,
      "hit": false,
      "t": 111913.01550000026,
      "d": 260.8695000000007,
      "v": 100
    },
    {
      "midi": 60,
      "hit": false,
      "t": 112043.45025000026,
      "d": 86.95650000000023,
      "v": 110
    },
    {
      "midi": 55,
      "hit": false,
      "t": 112043.45025000026,
      "d": 217.39125000000058,
      "v": 100
    },
    {
      "midi": 64,
      "hit": false,
      "t": 112043.45025000026,
      "d": 217.39125000000058,
      "v": 100
    },
    {
      "midi": 60,
      "hit": false,
      "t": 112173.88500000026,
      "d": 86.95650000000023,
      "v": 110
    },
    {
      "midi": 60,
      "hit": false,
      "t": 112304.31975000026,
      "d": 86.95650000000023,
      "v": 110
    },
    {
      "midi": 36,
      "hit": false,
      "t": 112304.31975000026,
      "d": 260.8695000000007,
      "v": 100
    },
    {
      "midi": 60,
      "hit": false,
      "t": 112434.75450000026,
      "d": 86.95650000000023,
      "v": 110
    },
    {
      "midi": 55,
      "hit": false,
      "t": 112434.75450000026,
      "d": 217.39125000000058,
      "v": 94
    },
    {
      "midi": 64,
      "hit": false,
      "t": 112434.75450000026,
      "d": 217.39125000000058,
      "v": 94
    },
    {
      "midi": 60,
      "hit": false,
      "t": 112565.18925000026,
      "d": 86.95650000000023,
      "v": 110
    },
    {
      "midi": 62,
      "hit": false,
      "t": 112695.62400000026,
      "d": 86.95650000000023,
      "v": 110
    },
    {
      "midi": 38,
      "hit": false,
      "t": 112695.62400000026,
      "d": 347.82600000000093,
      "v": 100
    },
    {
      "midi": 62,
      "hit": false,
      "t": 112826.05875000026,
      "d": 86.95650000000023,
      "v": 110
    },
    {
      "midi": 62,
      "hit": false,
      "t": 112956.49350000026,
      "d": 86.95650000000023,
      "v": 110
    },
    {
      "midi": 50,
      "hit": false,
      "t": 112956.49350000026,
      "d": 217.39125000000058,
      "v": 99
    },
    {
      "midi": 53,
      "hit": false,
      "t": 112956.49350000026,
      "d": 217.39125000000058,
      "v": 99
    },
    {
      "midi": 57,
      "hit": false,
      "t": 112956.49350000026,
      "d": 217.39125000000058,
      "v": 99
    },
    {
      "midi": 60,
      "hit": false,
      "t": 112956.49350000026,
      "d": 217.39125000000058,
      "v": 99
    },
    {
      "midi": 62,
      "hit": false,
      "t": 113086.92825000026,
      "d": 86.95650000000023,
      "v": 110
    },
    {
      "midi": 62,
      "hit": false,
      "t": 113217.36300000026,
      "d": 86.95650000000023,
      "v": 110
    },
    {
      "midi": 38,
      "hit": false,
      "t": 113217.36300000026,
      "d": 260.8695000000007,
      "v": 100
    },
    {
      "midi": 62,
      "hit": false,
      "t": 113347.79775000026,
      "d": 86.95650000000023,
      "v": 110
    },
    {
      "midi": 50,
      "hit": false,
      "t": 113347.79775000026,
      "d": 217.39125000000058,
      "v": 94
    },
    {
      "midi": 53,
      "hit": false,
      "t": 113347.79775000026,
      "d": 217.39125000000058,
      "v": 94
    },
    {
      "midi": 57,
      "hit": false,
      "t": 113347.79775000026,
      "d": 217.39125000000058,
      "v": 94
    },
    {
      "midi": 60,
      "hit": false,
      "t": 113347.79775000026,
      "d": 217.39125000000058,
      "v": 94
    },
    {
      "midi": 62,
      "hit": false,
      "t": 113478.23250000026,
      "d": 86.95650000000023,
      "v": 110
    },
    {
      "midi": 62,
      "hit": false,
      "t": 113608.66725000026,
      "d": 86.95650000000023,
      "v": 110
    },
    {
      "midi": 38,
      "hit": false,
      "t": 113608.66725000026,
      "d": 260.8695000000007,
      "v": 100
    },
    {
      "midi": 62,
      "hit": false,
      "t": 113739.10200000026,
      "d": 86.95650000000023,
      "v": 110
    },
    {
      "midi": 50,
      "hit": false,
      "t": 113739.10200000026,
      "d": 217.39125000000058,
      "v": 97
    },
    {
      "midi": 53,
      "hit": false,
      "t": 113739.10200000026,
      "d": 217.39125000000058,
      "v": 97
    },
    {
      "midi": 57,
      "hit": false,
      "t": 113739.10200000026,
      "d": 217.39125000000058,
      "v": 97
    },
    {
      "midi": 60,
      "hit": false,
      "t": 113739.10200000026,
      "d": 217.39125000000058,
      "v": 97
    },
    {
      "midi": 62,
      "hit": false,
      "t": 113869.53675000026,
      "d": 86.95650000000023,
      "v": 110
    },
    {
      "midi": 62,
      "hit": false,
      "t": 113999.97150000026,
      "d": 86.95650000000023,
      "v": 110
    },
    {
      "midi": 38,
      "hit": false,
      "t": 113999.97150000026,
      "d": 260.8695000000007,
      "v": 100
    },
    {
      "midi": 62,
      "hit": false,
      "t": 114130.40625000026,
      "d": 86.95650000000023,
      "v": 110
    },
    {
      "midi": 50,
      "hit": false,
      "t": 114130.40625000026,
      "d": 217.39125000000058,
      "v": 100
    },
    {
      "midi": 53,
      "hit": false,
      "t": 114130.40625000026,
      "d": 217.39125000000058,
      "v": 100
    },
    {
      "midi": 57,
      "hit": false,
      "t": 114130.40625000026,
      "d": 217.39125000000058,
      "v": 100
    },
    {
      "midi": 60,
      "hit": false,
      "t": 114130.40625000026,
      "d": 217.39125000000058,
      "v": 100
    },
    {
      "midi": 62,
      "hit": false,
      "t": 114260.84100000026,
      "d": 86.95650000000023,
      "v": 110
    },
    {
      "midi": 62,
      "hit": false,
      "t": 114391.27575000026,
      "d": 86.95650000000023,
      "v": 110
    },
    {
      "midi": 38,
      "hit": false,
      "t": 114391.27575000026,
      "d": 260.8695000000007,
      "v": 100
    },
    {
      "midi": 62,
      "hit": false,
      "t": 114521.71050000026,
      "d": 86.95650000000023,
      "v": 110
    },
    {
      "midi": 50,
      "hit": false,
      "t": 114521.71050000026,
      "d": 217.39125000000058,
      "v": 94
    },
    {
      "midi": 53,
      "hit": false,
      "t": 114521.71050000026,
      "d": 217.39125000000058,
      "v": 94
    },
    {
      "midi": 57,
      "hit": false,
      "t": 114521.71050000026,
      "d": 217.39125000000058,
      "v": 94
    },
    {
      "midi": 60,
      "hit": false,
      "t": 114521.71050000026,
      "d": 217.39125000000058,
      "v": 94
    },
    {
      "midi": 62,
      "hit": false,
      "t": 114652.14525000026,
      "d": 86.95650000000023,
      "v": 110
    },
    {
      "midi": 55,
      "hit": false,
      "t": 114782.58000000026,
      "d": 86.95650000000023,
      "v": 110
    },
    {
      "midi": 43,
      "hit": false,
      "t": 114782.58000000026,
      "d": 347.82600000000093,
      "v": 100
    },
    {
      "midi": 55,
      "hit": false,
      "t": 114913.01475000026,
      "d": 86.95650000000023,
      "v": 110
    },
    {
      "midi": 55,
      "hit": false,
      "t": 115043.44950000026,
      "d": 86.95650000000023,
      "v": 110
    },
    {
      "midi": 59,
      "hit": false,
      "t": 115043.44950000026,
      "d": 217.39125000000058,
      "v": 99
    },
    {
      "midi": 62,
      "hit": false,
      "t": 115043.44950000026,
      "d": 217.39125000000058,
      "v": 99
    },
    {
      "midi": 55,
      "hit": false,
      "t": 115173.88425000026,
      "d": 86.95650000000023,
      "v": 110
    },
    {
      "midi": 55,
      "hit": false,
      "t": 115304.31900000027,
      "d": 86.95650000000023,
      "v": 110
    },
    {
      "midi": 43,
      "hit": false,
      "t": 115304.31900000027,
      "d": 260.8695000000007,
      "v": 100
    },
    {
      "midi": 55,
      "hit": false,
      "t": 115434.75375000027,
      "d": 86.95650000000023,
      "v": 110
    },
    {
      "midi": 59,
      "hit": false,
      "t": 115434.75375000027,
      "d": 217.39125000000058,
      "v": 94
    },
    {
      "midi": 62,
      "hit": false,
      "t": 115434.75375000027,
      "d": 217.39125000000058,
      "v": 94
    },
    {
      "midi": 55,
      "hit": false,
      "t": 115565.18850000027,
      "d": 86.95650000000023,
      "v": 110
    },
    {
      "midi": 55,
      "hit": false,
      "t": 115695.62325000027,
      "d": 86.95650000000023,
      "v": 110
    },
    {
      "midi": 43,
      "hit": false,
      "t": 115695.62325000027,
      "d": 260.8695000000007,
      "v": 100
    },
    {
      "midi": 55,
      "hit": false,
      "t": 115826.05800000027,
      "d": 86.95650000000023,
      "v": 110
    },
    {
      "midi": 59,
      "hit": false,
      "t": 115826.05800000027,
      "d": 217.39125000000058,
      "v": 97
    },
    {
      "midi": 62,
      "hit": false,
      "t": 115826.05800000027,
      "d": 217.39125000000058,
      "v": 97
    },
    {
      "midi": 55,
      "hit": false,
      "t": 115956.49275000027,
      "d": 86.95650000000023,
      "v": 110
    },
    {
      "midi": 55,
      "hit": false,
      "t": 116086.92750000027,
      "d": 86.95650000000023,
      "v": 110
    },
    {
      "midi": 43,
      "hit": false,
      "t": 116086.92750000027,
      "d": 260.8695000000007,
      "v": 100
    },
    {
      "midi": 55,
      "hit": false,
      "t": 116217.36225000027,
      "d": 86.95650000000023,
      "v": 110
    },
    {
      "midi": 59,
      "hit": false,
      "t": 116217.36225000027,
      "d": 217.39125000000058,
      "v": 100
    },
    {
      "midi": 62,
      "hit": false,
      "t": 116217.36225000027,
      "d": 217.39125000000058,
      "v": 100
    },
    {
      "midi": 55,
      "hit": false,
      "t": 116347.79700000027,
      "d": 86.95650000000023,
      "v": 110
    },
    {
      "midi": 55,
      "hit": false,
      "t": 116478.23175000027,
      "d": 86.95650000000023,
      "v": 110
    },
    {
      "midi": 43,
      "hit": false,
      "t": 116478.23175000027,
      "d": 260.8695000000007,
      "v": 100
    },
    {
      "midi": 55,
      "hit": false,
      "t": 116608.66650000027,
      "d": 86.95650000000023,
      "v": 110
    },
    {
      "midi": 59,
      "hit": false,
      "t": 116608.66650000027,
      "d": 217.39125000000058,
      "v": 94
    },
    {
      "midi": 62,
      "hit": false,
      "t": 116608.66650000027,
      "d": 217.39125000000058,
      "v": 94
    },
    {
      "midi": 55,
      "hit": false,
      "t": 116739.10125000027,
      "d": 86.95650000000023,
      "v": 110
    },
    {
      "midi": 60,
      "hit": false,
      "t": 116869.53600000027,
      "d": 86.95650000000023,
      "v": 110
    },
    {
      "midi": 36,
      "hit": false,
      "t": 116869.53600000027,
      "d": 347.82600000000093,
      "v": 100
    },
    {
      "midi": 60,
      "hit": false,
      "t": 116999.97075000027,
      "d": 86.95650000000023,
      "v": 110
    },
    {
      "midi": 60,
      "hit": false,
      "t": 117130.40550000027,
      "d": 86.95650000000023,
      "v": 110
    },
    {
      "midi": 55,
      "hit": false,
      "t": 117130.40550000027,
      "d": 217.39125000000058,
      "v": 99
    },
    {
      "midi": 64,
      "hit": false,
      "t": 117130.40550000027,
      "d": 217.39125000000058,
      "v": 99
    },
    {
      "midi": 60,
      "hit": false,
      "t": 117260.84025000027,
      "d": 86.95650000000023,
      "v": 110
    },
    {
      "midi": 60,
      "hit": false,
      "t": 117391.27500000027,
      "d": 86.95650000000023,
      "v": 110
    },
    {
      "midi": 36,
      "hit": false,
      "t": 117391.27500000027,
      "d": 260.8695000000007,
      "v": 100
    },
    {
      "midi": 60,
      "hit": false,
      "t": 117521.70975000027,
      "d": 86.95650000000023,
      "v": 110
    },
    {
      "midi": 55,
      "hit": false,
      "t": 117521.70975000027,
      "d": 217.39125000000058,
      "v": 94
    },
    {
      "midi": 64,
      "hit": false,
      "t": 117521.70975000027,
      "d": 217.39125000000058,
      "v": 94
    },
    {
      "midi": 60,
      "hit": false,
      "t": 117652.14450000027,
      "d": 86.95650000000023,
      "v": 110
    },
    {
      "midi": 60,
      "hit": false,
      "t": 117782.57925000027,
      "d": 86.95650000000023,
      "v": 110
    },
    {
      "midi": 36,
      "hit": false,
      "t": 117782.57925000027,
      "d": 260.8695000000007,
      "v": 100
    },
    {
      "midi": 60,
      "hit": false,
      "t": 117913.01400000027,
      "d": 86.95650000000023,
      "v": 110
    },
    {
      "midi": 55,
      "hit": false,
      "t": 117913.01400000027,
      "d": 217.39125000000058,
      "v": 97
    },
    {
      "midi": 64,
      "hit": false,
      "t": 117913.01400000027,
      "d": 217.39125000000058,
      "v": 97
    },
    {
      "midi": 60,
      "hit": false,
      "t": 118043.44875000027,
      "d": 86.95650000000023,
      "v": 110
    },
    {
      "midi": 60,
      "hit": false,
      "t": 118173.88350000027,
      "d": 86.95650000000023,
      "v": 110
    },
    {
      "midi": 36,
      "hit": false,
      "t": 118173.88350000027,
      "d": 260.8695000000007,
      "v": 100
    },
    {
      "midi": 60,
      "hit": false,
      "t": 118304.31825000027,
      "d": 86.95650000000023,
      "v": 110
    },
    {
      "midi": 55,
      "hit": false,
      "t": 118304.31825000027,
      "d": 217.39125000000058,
      "v": 100
    },
    {
      "midi": 64,
      "hit": false,
      "t": 118304.31825000027,
      "d": 217.39125000000058,
      "v": 100
    },
    {
      "midi": 60,
      "hit": false,
      "t": 118434.75300000027,
      "d": 86.95650000000023,
      "v": 110
    },
    {
      "midi": 60,
      "hit": false,
      "t": 118565.18775000027,
      "d": 86.95650000000023,
      "v": 110
    },
    {
      "midi": 36,
      "hit": false,
      "t": 118565.18775000027,
      "d": 260.8695000000007,
      "v": 100
    },
    {
      "midi": 60,
      "hit": false,
      "t": 118695.62250000027,
      "d": 86.95650000000023,
      "v": 110
    },
    {
      "midi": 55,
      "hit": false,
      "t": 118695.62250000027,
      "d": 217.39125000000058,
      "v": 94
    },
    {
      "midi": 64,
      "hit": false,
      "t": 118695.62250000027,
      "d": 217.39125000000058,
      "v": 94
    },
    {
      "midi": 60,
      "hit": false,
      "t": 118826.05725000027,
      "d": 86.95650000000023,
      "v": 110
    },
    {
      "midi": 55,
      "hit": false,
      "t": 118956.49200000027,
      "d": 86.95650000000023,
      "v": 110
    },
    {
      "midi": 43,
      "hit": false,
      "t": 118956.49200000027,
      "d": 347.82600000000093,
      "v": 100
    },
    {
      "midi": 55,
      "hit": false,
      "t": 119086.92675000028,
      "d": 86.95650000000023,
      "v": 110
    },
    {
      "midi": 55,
      "hit": false,
      "t": 119217.36150000028,
      "d": 86.95650000000023,
      "v": 110
    },
    {
      "midi": 59,
      "hit": false,
      "t": 119217.36150000028,
      "d": 217.39125000000058,
      "v": 99
    },
    {
      "midi": 62,
      "hit": false,
      "t": 119217.36150000028,
      "d": 217.39125000000058,
      "v": 99
    },
    {
      "midi": 55,
      "hit": false,
      "t": 119347.79625000028,
      "d": 86.95650000000023,
      "v": 110
    },
    {
      "midi": 55,
      "hit": false,
      "t": 119478.23100000028,
      "d": 86.95650000000023,
      "v": 110
    },
    {
      "midi": 43,
      "hit": false,
      "t": 119478.23100000028,
      "d": 260.8695000000007,
      "v": 100
    },
    {
      "midi": 55,
      "hit": false,
      "t": 119608.66575000028,
      "d": 86.95650000000023,
      "v": 110
    },
    {
      "midi": 59,
      "hit": false,
      "t": 119608.66575000028,
      "d": 217.39125000000058,
      "v": 94
    },
    {
      "midi": 62,
      "hit": false,
      "t": 119608.66575000028,
      "d": 217.39125000000058,
      "v": 94
    },
    {
      "midi": 55,
      "hit": false,
      "t": 119739.10050000028,
      "d": 86.95650000000023,
      "v": 110
    },
    {
      "midi": 55,
      "hit": false,
      "t": 119869.53525000028,
      "d": 86.95650000000023,
      "v": 110
    },
    {
      "midi": 43,
      "hit": false,
      "t": 119869.53525000028,
      "d": 260.8695000000007,
      "v": 100
    },
    {
      "midi": 55,
      "hit": false,
      "t": 119999.97000000028,
      "d": 86.95650000000023,
      "v": 110
    },
    {
      "midi": 59,
      "hit": false,
      "t": 119999.97000000028,
      "d": 217.39125000000058,
      "v": 97
    },
    {
      "midi": 62,
      "hit": false,
      "t": 119999.97000000028,
      "d": 217.39125000000058,
      "v": 97
    },
    {
      "midi": 55,
      "hit": false,
      "t": 120130.40475000028,
      "d": 86.95650000000023,
      "v": 110
    },
    {
      "midi": 55,
      "hit": false,
      "t": 120260.83950000028,
      "d": 86.95650000000023,
      "v": 110
    },
    {
      "midi": 43,
      "hit": false,
      "t": 120260.83950000028,
      "d": 260.8695000000007,
      "v": 100
    },
    {
      "midi": 55,
      "hit": false,
      "t": 120391.27425000028,
      "d": 86.95650000000023,
      "v": 110
    },
    {
      "midi": 59,
      "hit": false,
      "t": 120391.27425000028,
      "d": 217.39125000000058,
      "v": 100
    },
    {
      "midi": 62,
      "hit": false,
      "t": 120391.27425000028,
      "d": 217.39125000000058,
      "v": 100
    },
    {
      "midi": 55,
      "hit": false,
      "t": 120521.70900000028,
      "d": 86.95650000000023,
      "v": 110
    },
    {
      "midi": 55,
      "hit": false,
      "t": 120652.14375000028,
      "d": 86.95650000000023,
      "v": 110
    },
    {
      "midi": 43,
      "hit": false,
      "t": 120652.14375000028,
      "d": 260.8695000000007,
      "v": 100
    },
    {
      "midi": 55,
      "hit": false,
      "t": 120782.57850000028,
      "d": 86.95650000000023,
      "v": 110
    },
    {
      "midi": 59,
      "hit": false,
      "t": 120782.57850000028,
      "d": 217.39125000000058,
      "v": 94
    },
    {
      "midi": 62,
      "hit": false,
      "t": 120782.57850000028,
      "d": 217.39125000000058,
      "v": 94
    },
    {
      "midi": 55,
      "hit": false,
      "t": 120913.01325000028,
      "d": 86.95650000000023,
      "v": 110
    },
    {
      "midi": 57,
      "hit": false,
      "t": 121043.44800000028,
      "d": 86.95650000000023,
      "v": 110
    },
    {
      "midi": 45,
      "hit": false,
      "t": 121043.44800000028,
      "d": 347.82600000000093,
      "v": 100
    },
    {
      "midi": 57,
      "hit": false,
      "t": 121173.88275000028,
      "d": 86.95650000000023,
      "v": 110
    },
    {
      "midi": 57,
      "hit": false,
      "t": 121304.31750000028,
      "d": 86.95650000000023,
      "v": 110
    },
    {
      "midi": 52,
      "hit": false,
      "t": 121304.31750000028,
      "d": 217.39125000000058,
      "v": 99
    },
    {
      "midi": 60,
      "hit": false,
      "t": 121304.31750000028,
      "d": 217.39125000000058,
      "v": 99
    },
    {
      "midi": 57,
      "hit": false,
      "t": 121434.75225000028,
      "d": 86.95650000000023,
      "v": 110
    },
    {
      "midi": 57,
      "hit": false,
      "t": 121565.18700000028,
      "d": 86.95650000000023,
      "v": 110
    },
    {
      "midi": 45,
      "hit": false,
      "t": 121565.18700000028,
      "d": 260.8695000000007,
      "v": 100
    },
    {
      "midi": 57,
      "hit": false,
      "t": 121695.62175000028,
      "d": 86.95650000000023,
      "v": 110
    },
    {
      "midi": 52,
      "hit": false,
      "t": 121695.62175000028,
      "d": 217.39125000000058,
      "v": 94
    },
    {
      "midi": 60,
      "hit": false,
      "t": 121695.62175000028,
      "d": 217.39125000000058,
      "v": 94
    },
    {
      "midi": 57,
      "hit": false,
      "t": 121826.05650000028,
      "d": 86.95650000000023,
      "v": 110
    },
    {
      "midi": 57,
      "hit": false,
      "t": 121956.49125000028,
      "d": 86.95650000000023,
      "v": 110
    },
    {
      "midi": 45,
      "hit": false,
      "t": 121956.49125000028,
      "d": 260.8695000000007,
      "v": 100
    },
    {
      "midi": 57,
      "hit": false,
      "t": 122086.92600000028,
      "d": 86.95650000000023,
      "v": 110
    },
    {
      "midi": 52,
      "hit": false,
      "t": 122086.92600000028,
      "d": 217.39125000000058,
      "v": 97
    },
    {
      "midi": 60,
      "hit": false,
      "t": 122086.92600000028,
      "d": 217.39125000000058,
      "v": 97
    },
    {
      "midi": 57,
      "hit": false,
      "t": 122217.36075000028,
      "d": 86.95650000000023,
      "v": 110
    },
    {
      "midi": 57,
      "hit": false,
      "t": 122347.79550000028,
      "d": 86.95650000000023,
      "v": 110
    },
    {
      "midi": 45,
      "hit": false,
      "t": 122347.79550000028,
      "d": 260.8695000000007,
      "v": 100
    },
    {
      "midi": 57,
      "hit": false,
      "t": 122478.23025000028,
      "d": 86.95650000000023,
      "v": 110
    },
    {
      "midi": 52,
      "hit": false,
      "t": 122478.23025000028,
      "d": 217.39125000000058,
      "v": 100
    },
    {
      "midi": 60,
      "hit": false,
      "t": 122478.23025000028,
      "d": 217.39125000000058,
      "v": 100
    },
    {
      "midi": 57,
      "hit": false,
      "t": 122608.66500000028,
      "d": 86.95650000000023,
      "v": 110
    },
    {
      "midi": 57,
      "hit": false,
      "t": 122739.09975000028,
      "d": 86.95650000000023,
      "v": 110
    },
    {
      "midi": 45,
      "hit": false,
      "t": 122739.09975000028,
      "d": 260.8695000000007,
      "v": 100
    },
    {
      "midi": 57,
      "hit": false,
      "t": 122869.53450000029,
      "d": 86.95650000000023,
      "v": 110
    },
    {
      "midi": 52,
      "hit": false,
      "t": 122869.53450000029,
      "d": 217.39125000000058,
      "v": 94
    },
    {
      "midi": 60,
      "hit": false,
      "t": 122869.53450000029,
      "d": 217.39125000000058,
      "v": 94
    },
    {
      "midi": 57,
      "hit": false,
      "t": 122999.96925000029,
      "d": 86.95650000000023,
      "v": 110
    },
    {
      "midi": 52,
      "hit": false,
      "t": 123130.40400000029,
      "d": 86.95650000000023,
      "v": 110
    },
    {
      "midi": 40,
      "hit": false,
      "t": 123130.40400000029,
      "d": 347.82600000000093,
      "v": 100
    },
    {
      "midi": 52,
      "hit": false,
      "t": 123260.83875000029,
      "d": 86.95650000000023,
      "v": 110
    },
    {
      "midi": 52,
      "hit": false,
      "t": 123391.27350000029,
      "d": 86.95650000000023,
      "v": 110
    },
    {
      "midi": 55,
      "hit": false,
      "t": 123391.27350000029,
      "d": 217.39125000000058,
      "v": 99
    },
    {
      "midi": 59,
      "hit": false,
      "t": 123391.27350000029,
      "d": 217.39125000000058,
      "v": 99
    },
    {
      "midi": 52,
      "hit": false,
      "t": 123521.70825000029,
      "d": 86.95650000000023,
      "v": 110
    },
    {
      "midi": 52,
      "hit": false,
      "t": 123652.14300000029,
      "d": 86.95650000000023,
      "v": 110
    },
    {
      "midi": 40,
      "hit": false,
      "t": 123652.14300000029,
      "d": 260.8695000000007,
      "v": 100
    },
    {
      "midi": 52,
      "hit": false,
      "t": 123782.57775000029,
      "d": 86.95650000000023,
      "v": 110
    },
    {
      "midi": 55,
      "hit": false,
      "t": 123782.57775000029,
      "d": 217.39125000000058,
      "v": 94
    },
    {
      "midi": 59,
      "hit": false,
      "t": 123782.57775000029,
      "d": 217.39125000000058,
      "v": 94
    },
    {
      "midi": 52,
      "hit": false,
      "t": 123913.01250000029,
      "d": 86.95650000000023,
      "v": 110
    },
    {
      "midi": 52,
      "hit": false,
      "t": 124043.44725000029,
      "d": 86.95650000000023,
      "v": 110
    },
    {
      "midi": 40,
      "hit": false,
      "t": 124043.44725000029,
      "d": 260.8695000000007,
      "v": 100
    },
    {
      "midi": 52,
      "hit": false,
      "t": 124173.88200000029,
      "d": 86.95650000000023,
      "v": 110
    },
    {
      "midi": 55,
      "hit": false,
      "t": 124173.88200000029,
      "d": 217.39125000000058,
      "v": 97
    },
    {
      "midi": 59,
      "hit": false,
      "t": 124173.88200000029,
      "d": 217.39125000000058,
      "v": 97
    },
    {
      "midi": 52,
      "hit": false,
      "t": 124304.31675000029,
      "d": 86.95650000000023,
      "v": 110
    },
    {
      "midi": 52,
      "hit": false,
      "t": 124434.75150000029,
      "d": 86.95650000000023,
      "v": 110
    },
    {
      "midi": 40,
      "hit": false,
      "t": 124434.75150000029,
      "d": 260.8695000000007,
      "v": 100
    },
    {
      "midi": 52,
      "hit": false,
      "t": 124565.18625000029,
      "d": 86.95650000000023,
      "v": 110
    },
    {
      "midi": 55,
      "hit": false,
      "t": 124565.18625000029,
      "d": 217.39125000000058,
      "v": 100
    },
    {
      "midi": 59,
      "hit": false,
      "t": 124565.18625000029,
      "d": 217.39125000000058,
      "v": 100
    },
    {
      "midi": 52,
      "hit": false,
      "t": 124695.62100000029,
      "d": 86.95650000000023,
      "v": 110
    },
    {
      "midi": 52,
      "hit": false,
      "t": 124826.05575000029,
      "d": 86.95650000000023,
      "v": 110
    },
    {
      "midi": 40,
      "hit": false,
      "t": 124826.05575000029,
      "d": 260.8695000000007,
      "v": 100
    },
    {
      "midi": 52,
      "hit": false,
      "t": 124956.49050000029,
      "d": 86.95650000000023,
      "v": 110
    },
    {
      "midi": 55,
      "hit": false,
      "t": 124956.49050000029,
      "d": 217.39125000000058,
      "v": 94
    },
    {
      "midi": 59,
      "hit": false,
      "t": 124956.49050000029,
      "d": 217.39125000000058,
      "v": 94
    },
    {
      "midi": 52,
      "hit": false,
      "t": 125086.92525000029,
      "d": 86.95650000000023,
      "v": 110
    },
    {
      "midi": 53,
      "hit": false,
      "t": 125217.36000000029,
      "d": 86.95650000000023,
      "v": 110
    },
    {
      "midi": 41,
      "hit": false,
      "t": 125217.36000000029,
      "d": 347.82600000000093,
      "v": 100
    },
    {
      "midi": 53,
      "hit": false,
      "t": 125347.79475000029,
      "d": 86.95650000000023,
      "v": 110
    },
    {
      "midi": 53,
      "hit": false,
      "t": 125478.22950000029,
      "d": 86.95650000000023,
      "v": 110
    },
    {
      "midi": 57,
      "hit": false,
      "t": 125478.22950000029,
      "d": 217.39125000000058,
      "v": 99
    },
    {
      "midi": 60,
      "hit": false,
      "t": 125478.22950000029,
      "d": 217.39125000000058,
      "v": 99
    },
    {
      "midi": 53,
      "hit": false,
      "t": 125608.66425000029,
      "d": 86.95650000000023,
      "v": 110
    },
    {
      "midi": 53,
      "hit": false,
      "t": 125739.0990000003,
      "d": 86.95650000000023,
      "v": 110
    },
    {
      "midi": 41,
      "hit": false,
      "t": 125739.0990000003,
      "d": 260.8695000000007,
      "v": 100
    },
    {
      "midi": 53,
      "hit": false,
      "t": 125869.5337500003,
      "d": 86.95650000000023,
      "v": 110
    },
    {
      "midi": 57,
      "hit": false,
      "t": 125869.5337500003,
      "d": 217.39125000000058,
      "v": 94
    },
    {
      "midi": 60,
      "hit": false,
      "t": 125869.5337500003,
      "d": 217.39125000000058,
      "v": 94
    },
    {
      "midi": 53,
      "hit": false,
      "t": 125999.9685000003,
      "d": 86.95650000000023,
      "v": 110
    },
    {
      "midi": 53,
      "hit": false,
      "t": 126130.4032500003,
      "d": 86.95650000000023,
      "v": 110
    },
    {
      "midi": 41,
      "hit": false,
      "t": 126130.4032500003,
      "d": 260.8695000000007,
      "v": 100
    },
    {
      "midi": 53,
      "hit": false,
      "t": 126260.8380000003,
      "d": 86.95650000000023,
      "v": 110
    },
    {
      "midi": 57,
      "hit": false,
      "t": 126260.8380000003,
      "d": 217.39125000000058,
      "v": 97
    },
    {
      "midi": 60,
      "hit": false,
      "t": 126260.8380000003,
      "d": 217.39125000000058,
      "v": 97
    },
    {
      "midi": 53,
      "hit": false,
      "t": 126391.2727500003,
      "d": 86.95650000000023,
      "v": 110
    },
    {
      "midi": 53,
      "hit": false,
      "t": 126521.7075000003,
      "d": 86.95650000000023,
      "v": 110
    },
    {
      "midi": 41,
      "hit": false,
      "t": 126521.7075000003,
      "d": 260.8695000000007,
      "v": 100
    },
    {
      "midi": 53,
      "hit": false,
      "t": 126652.1422500003,
      "d": 86.95650000000023,
      "v": 110
    },
    {
      "midi": 57,
      "hit": false,
      "t": 126652.1422500003,
      "d": 217.39125000000058,
      "v": 100
    },
    {
      "midi": 60,
      "hit": false,
      "t": 126652.1422500003,
      "d": 217.39125000000058,
      "v": 100
    },
    {
      "midi": 53,
      "hit": false,
      "t": 126782.5770000003,
      "d": 86.95650000000023,
      "v": 110
    },
    {
      "midi": 53,
      "hit": false,
      "t": 126913.0117500003,
      "d": 86.95650000000023,
      "v": 110
    },
    {
      "midi": 41,
      "hit": false,
      "t": 126913.0117500003,
      "d": 260.8695000000007,
      "v": 100
    },
    {
      "midi": 53,
      "hit": false,
      "t": 127043.4465000003,
      "d": 86.95650000000023,
      "v": 110
    },
    {
      "midi": 57,
      "hit": false,
      "t": 127043.4465000003,
      "d": 217.39125000000058,
      "v": 94
    },
    {
      "midi": 60,
      "hit": false,
      "t": 127043.4465000003,
      "d": 217.39125000000058,
      "v": 94
    },
    {
      "midi": 53,
      "hit": false,
      "t": 127173.8812500003,
      "d": 86.95650000000023,
      "v": 110
    },
    {
      "midi": 60,
      "hit": false,
      "t": 127304.3160000003,
      "d": 86.95650000000023,
      "v": 110
    },
    {
      "midi": 36,
      "hit": false,
      "t": 127304.3160000003,
      "d": 347.82600000000093,
      "v": 100
    },
    {
      "midi": 60,
      "hit": false,
      "t": 127434.7507500003,
      "d": 86.95650000000023,
      "v": 110
    },
    {
      "midi": 60,
      "hit": false,
      "t": 127565.1855000003,
      "d": 86.95650000000023,
      "v": 110
    },
    {
      "midi": 55,
      "hit": false,
      "t": 127565.1855000003,
      "d": 217.39125000000058,
      "v": 99
    },
    {
      "midi": 64,
      "hit": false,
      "t": 127565.1855000003,
      "d": 217.39125000000058,
      "v": 99
    },
    {
      "midi": 60,
      "hit": false,
      "t": 127695.6202500003,
      "d": 86.95650000000023,
      "v": 110
    },
    {
      "midi": 60,
      "hit": false,
      "t": 127826.0550000003,
      "d": 86.95650000000023,
      "v": 110
    },
    {
      "midi": 36,
      "hit": false,
      "t": 127826.0550000003,
      "d": 260.8695000000007,
      "v": 100
    },
    {
      "midi": 60,
      "hit": false,
      "t": 127956.4897500003,
      "d": 86.95650000000023,
      "v": 110
    },
    {
      "midi": 55,
      "hit": false,
      "t": 127956.4897500003,
      "d": 217.39125000000058,
      "v": 94
    },
    {
      "midi": 64,
      "hit": false,
      "t": 127956.4897500003,
      "d": 217.39125000000058,
      "v": 94
    },
    {
      "midi": 60,
      "hit": false,
      "t": 128086.9245000003,
      "d": 86.95650000000023,
      "v": 110
    },
    {
      "midi": 60,
      "hit": false,
      "t": 128217.3592500003,
      "d": 86.95650000000023,
      "v": 110
    },
    {
      "midi": 36,
      "hit": false,
      "t": 128217.3592500003,
      "d": 260.8695000000007,
      "v": 100
    },
    {
      "midi": 60,
      "hit": false,
      "t": 128347.7940000003,
      "d": 86.95650000000023,
      "v": 110
    },
    {
      "midi": 55,
      "hit": false,
      "t": 128347.7940000003,
      "d": 217.39125000000058,
      "v": 97
    },
    {
      "midi": 64,
      "hit": false,
      "t": 128347.7940000003,
      "d": 217.39125000000058,
      "v": 97
    },
    {
      "midi": 60,
      "hit": false,
      "t": 128478.2287500003,
      "d": 86.95650000000023,
      "v": 110
    },
    {
      "midi": 60,
      "hit": false,
      "t": 128608.6635000003,
      "d": 86.95650000000023,
      "v": 110
    },
    {
      "midi": 36,
      "hit": false,
      "t": 128608.6635000003,
      "d": 260.8695000000007,
      "v": 100
    },
    {
      "midi": 60,
      "hit": false,
      "t": 128739.0982500003,
      "d": 86.95650000000023,
      "v": 110
    },
    {
      "midi": 55,
      "hit": false,
      "t": 128739.0982500003,
      "d": 217.39125000000058,
      "v": 100
    },
    {
      "midi": 64,
      "hit": false,
      "t": 128739.0982500003,
      "d": 217.39125000000058,
      "v": 100
    },
    {
      "midi": 60,
      "hit": false,
      "t": 128869.5330000003,
      "d": 86.95650000000023,
      "v": 110
    },
    {
      "midi": 60,
      "hit": false,
      "t": 128999.9677500003,
      "d": 86.95650000000023,
      "v": 110
    },
    {
      "midi": 36,
      "hit": false,
      "t": 128999.9677500003,
      "d": 260.8695000000007,
      "v": 100
    },
    {
      "midi": 60,
      "hit": false,
      "t": 129130.4025000003,
      "d": 86.95650000000023,
      "v": 110
    },
    {
      "midi": 55,
      "hit": false,
      "t": 129130.4025000003,
      "d": 217.39125000000058,
      "v": 94
    },
    {
      "midi": 64,
      "hit": false,
      "t": 129130.4025000003,
      "d": 217.39125000000058,
      "v": 94
    },
    {
      "midi": 60,
      "hit": false,
      "t": 129260.8372500003,
      "d": 86.95650000000023,
      "v": 110
    },
    {
      "midi": 62,
      "hit": false,
      "t": 129391.2720000003,
      "d": 86.95650000000023,
      "v": 110
    },
    {
      "midi": 38,
      "hit": false,
      "t": 129391.2720000003,
      "d": 347.82600000000093,
      "v": 100
    },
    {
      "midi": 62,
      "hit": false,
      "t": 129521.7067500003,
      "d": 86.95650000000023,
      "v": 110
    },
    {
      "midi": 62,
      "hit": false,
      "t": 129652.1415000003,
      "d": 86.95650000000023,
      "v": 110
    },
    {
      "midi": 50,
      "hit": false,
      "t": 129652.1415000003,
      "d": 217.39125000000058,
      "v": 99
    },
    {
      "midi": 53,
      "hit": false,
      "t": 129652.1415000003,
      "d": 217.39125000000058,
      "v": 99
    },
    {
      "midi": 57,
      "hit": false,
      "t": 129652.1415000003,
      "d": 217.39125000000058,
      "v": 99
    },
    {
      "midi": 60,
      "hit": false,
      "t": 129652.1415000003,
      "d": 217.39125000000058,
      "v": 99
    },
    {
      "midi": 62,
      "hit": false,
      "t": 129782.5762500003,
      "d": 86.95650000000023,
      "v": 110
    },
    {
      "midi": 62,
      "hit": false,
      "t": 129913.0110000003,
      "d": 86.95650000000023,
      "v": 110
    },
    {
      "midi": 38,
      "hit": false,
      "t": 129913.0110000003,
      "d": 260.8695000000007,
      "v": 100
    },
    {
      "midi": 62,
      "hit": false,
      "t": 130043.4457500003,
      "d": 86.95650000000023,
      "v": 110
    },
    {
      "midi": 50,
      "hit": false,
      "t": 130043.4457500003,
      "d": 217.39125000000058,
      "v": 94
    },
    {
      "midi": 53,
      "hit": false,
      "t": 130043.4457500003,
      "d": 217.39125000000058,
      "v": 94
    },
    {
      "midi": 57,
      "hit": false,
      "t": 130043.4457500003,
      "d": 217.39125000000058,
      "v": 94
    },
    {
      "midi": 60,
      "hit": false,
      "t": 130043.4457500003,
      "d": 217.39125000000058,
      "v": 94
    },
    {
      "midi": 62,
      "hit": false,
      "t": 130173.8805000003,
      "d": 86.95650000000023,
      "v": 110
    },
    {
      "midi": 62,
      "hit": false,
      "t": 130304.3152500003,
      "d": 86.95650000000023,
      "v": 110
    },
    {
      "midi": 38,
      "hit": false,
      "t": 130304.3152500003,
      "d": 260.8695000000007,
      "v": 100
    },
    {
      "midi": 62,
      "hit": false,
      "t": 130434.7500000003,
      "d": 86.95650000000023,
      "v": 110
    },
    {
      "midi": 50,
      "hit": false,
      "t": 130434.7500000003,
      "d": 217.39125000000058,
      "v": 97
    },
    {
      "midi": 53,
      "hit": false,
      "t": 130434.7500000003,
      "d": 217.39125000000058,
      "v": 97
    },
    {
      "midi": 57,
      "hit": false,
      "t": 130434.7500000003,
      "d": 217.39125000000058,
      "v": 97
    },
    {
      "midi": 60,
      "hit": false,
      "t": 130434.7500000003,
      "d": 217.39125000000058,
      "v": 97
    },
    {
      "midi": 62,
      "hit": false,
      "t": 130565.1847500003,
      "d": 86.95650000000023,
      "v": 110
    },
    {
      "midi": 62,
      "hit": false,
      "t": 130695.6195000003,
      "d": 86.95650000000023,
      "v": 110
    },
    {
      "midi": 38,
      "hit": false,
      "t": 130695.6195000003,
      "d": 260.8695000000007,
      "v": 100
    },
    {
      "midi": 62,
      "hit": false,
      "t": 130826.0542500003,
      "d": 86.95650000000023,
      "v": 110
    },
    {
      "midi": 50,
      "hit": false,
      "t": 130826.0542500003,
      "d": 217.39125000000058,
      "v": 100
    },
    {
      "midi": 53,
      "hit": false,
      "t": 130826.0542500003,
      "d": 217.39125000000058,
      "v": 100
    },
    {
      "midi": 57,
      "hit": false,
      "t": 130826.0542500003,
      "d": 217.39125000000058,
      "v": 100
    },
    {
      "midi": 60,
      "hit": false,
      "t": 130826.0542500003,
      "d": 217.39125000000058,
      "v": 100
    },
    {
      "midi": 62,
      "hit": false,
      "t": 130956.4890000003,
      "d": 86.95650000000023,
      "v": 110
    },
    {
      "midi": 62,
      "hit": false,
      "t": 131086.9237500003,
      "d": 86.95650000000023,
      "v": 110
    },
    {
      "midi": 38,
      "hit": false,
      "t": 131086.9237500003,
      "d": 260.8694999999716,
      "v": 100
    },
    {
      "midi": 62,
      "hit": false,
      "t": 131217.3585000003,
      "d": 86.95650000000023,
      "v": 110
    },
    {
      "midi": 50,
      "hit": false,
      "t": 131217.3585000003,
      "d": 217.39124999998603,
      "v": 94
    },
    {
      "midi": 53,
      "hit": false,
      "t": 131217.3585000003,
      "d": 217.39124999998603,
      "v": 94
    },
    {
      "midi": 57,
      "hit": false,
      "t": 131217.3585000003,
      "d": 217.39124999998603,
      "v": 94
    },
    {
      "midi": 60,
      "hit": false,
      "t": 131217.3585000003,
      "d": 217.39124999998603,
      "v": 94
    },
    {
      "midi": 62,
      "hit": false,
      "t": 131347.79325000028,
      "d": 86.95650000000023,
      "v": 110
    },
    {
      "midi": 55,
      "hit": false,
      "t": 131478.22800000026,
      "d": 86.95650000000023,
      "v": 110
    },
    {
      "midi": 43,
      "hit": false,
      "t": 131478.22800000026,
      "d": 347.8259999999718,
      "v": 100
    },
    {
      "midi": 55,
      "hit": false,
      "t": 131608.66275000025,
      "d": 86.95650000000023,
      "v": 110
    },
    {
      "midi": 55,
      "hit": false,
      "t": 131739.09750000024,
      "d": 86.95650000000023,
      "v": 110
    },
    {
      "midi": 59,
      "hit": false,
      "t": 131739.09750000024,
      "d": 217.39124999998603,
      "v": 99
    },
    {
      "midi": 62,
      "hit": false,
      "t": 131739.09750000024,
      "d": 217.39124999998603,
      "v": 99
    },
    {
      "midi": 55,
      "hit": false,
      "t": 131869.53225000022,
      "d": 86.95650000000023,
      "v": 110
    },
    {
      "midi": 55,
      "hit": false,
      "t": 131999.9670000002,
      "d": 86.95650000000023,
      "v": 110
    },
    {
      "midi": 43,
      "hit": false,
      "t": 131999.9670000002,
      "d": 260.8694999999716,
      "v": 100
    },
    {
      "midi": 55,
      "hit": false,
      "t": 132130.4017500002,
      "d": 86.95650000000023,
      "v": 110
    },
    {
      "midi": 59,
      "hit": false,
      "t": 132130.4017500002,
      "d": 217.39124999998603,
      "v": 94
    },
    {
      "midi": 62,
      "hit": false,
      "t": 132130.4017500002,
      "d": 217.39124999998603,
      "v": 94
    },
    {
      "midi": 55,
      "hit": false,
      "t": 132260.83650000018,
      "d": 86.95650000000023,
      "v": 110
    },
    {
      "midi": 55,
      "hit": false,
      "t": 132391.27125000017,
      "d": 86.95650000000023,
      "v": 110
    },
    {
      "midi": 43,
      "hit": false,
      "t": 132391.27125000017,
      "d": 260.8694999999716,
      "v": 100
    },
    {
      "midi": 55,
      "hit": false,
      "t": 132521.70600000015,
      "d": 86.95650000000023,
      "v": 110
    },
    {
      "midi": 59,
      "hit": false,
      "t": 132521.70600000015,
      "d": 217.39124999998603,
      "v": 97
    },
    {
      "midi": 62,
      "hit": false,
      "t": 132521.70600000015,
      "d": 217.39124999998603,
      "v": 97
    },
    {
      "midi": 55,
      "hit": false,
      "t": 132652.14075000014,
      "d": 86.95650000000023,
      "v": 110
    },
    {
      "midi": 55,
      "hit": false,
      "t": 132782.57550000012,
      "d": 86.95650000000023,
      "v": 110
    },
    {
      "midi": 43,
      "hit": false,
      "t": 132782.57550000012,
      "d": 260.8694999999716,
      "v": 100
    },
    {
      "midi": 55,
      "hit": false,
      "t": 132913.0102500001,
      "d": 86.95650000000023,
      "v": 110
    },
    {
      "midi": 59,
      "hit": false,
      "t": 132913.0102500001,
      "d": 217.39124999998603,
      "v": 100
    },
    {
      "midi": 62,
      "hit": false,
      "t": 132913.0102500001,
      "d": 217.39124999998603,
      "v": 100
    },
    {
      "midi": 55,
      "hit": false,
      "t": 133043.4450000001,
      "d": 86.95650000000023,
      "v": 110
    },
    {
      "midi": 55,
      "hit": false,
      "t": 133173.87975000008,
      "d": 86.95650000000023,
      "v": 110
    },
    {
      "midi": 43,
      "hit": false,
      "t": 133173.87975000008,
      "d": 260.8694999999716,
      "v": 100
    },
    {
      "midi": 55,
      "hit": false,
      "t": 133304.31450000007,
      "d": 86.95650000000023,
      "v": 110
    },
    {
      "midi": 59,
      "hit": false,
      "t": 133304.31450000007,
      "d": 217.39124999998603,
      "v": 94
    },
    {
      "midi": 62,
      "hit": false,
      "t": 133304.31450000007,
      "d": 217.39124999998603,
      "v": 94
    },
    {
      "midi": 55,
      "hit": false,
      "t": 133434.74925000005,
      "d": 86.95650000000023,
      "v": 110
    },
    {
      "midi": 60,
      "hit": false,
      "t": 133565.18400000004,
      "d": 86.95650000000023,
      "v": 110
    },
    {
      "midi": 36,
      "hit": false,
      "t": 133565.18400000004,
      "d": 347.8259999999718,
      "v": 100
    },
    {
      "midi": 60,
      "hit": false,
      "t": 133695.61875000002,
      "d": 86.95650000000023,
      "v": 110
    },
    {
      "midi": 60,
      "hit": false,
      "t": 133826.0535,
      "d": 86.95650000000023,
      "v": 110
    },
    {
      "midi": 55,
      "hit": false,
      "t": 133826.0535,
      "d": 217.39124999998603,
      "v": 99
    },
    {
      "midi": 64,
      "hit": false,
      "t": 133826.0535,
      "d": 217.39124999998603,
      "v": 99
    },
    {
      "midi": 60,
      "hit": false,
      "t": 133956.48825,
      "d": 86.95650000000023,
      "v": 110
    },
    {
      "midi": 60,
      "hit": false,
      "t": 134086.92299999998,
      "d": 86.95650000000023,
      "v": 110
    },
    {
      "midi": 36,
      "hit": false,
      "t": 134086.92299999998,
      "d": 260.8694999999716,
      "v": 100
    },
    {
      "midi": 60,
      "hit": false,
      "t": 134217.35774999997,
      "d": 86.95650000000023,
      "v": 110
    },
    {
      "midi": 55,
      "hit": false,
      "t": 134217.35774999997,
      "d": 217.39124999998603,
      "v": 94
    },
    {
      "midi": 64,
      "hit": false,
      "t": 134217.35774999997,
      "d": 217.39124999998603,
      "v": 94
    },
    {
      "midi": 60,
      "hit": false,
      "t": 134347.79249999995,
      "d": 86.95650000000023,
      "v": 110
    },
    {
      "midi": 60,
      "hit": false,
      "t": 134478.22724999994,
      "d": 86.95650000000023,
      "v": 110
    },
    {
      "midi": 36,
      "hit": false,
      "t": 134478.22724999994,
      "d": 260.8694999999716,
      "v": 100
    },
    {
      "midi": 60,
      "hit": false,
      "t": 134608.66199999992,
      "d": 86.95650000000023,
      "v": 110
    },
    {
      "midi": 55,
      "hit": false,
      "t": 134608.66199999992,
      "d": 217.39124999998603,
      "v": 97
    },
    {
      "midi": 64,
      "hit": false,
      "t": 134608.66199999992,
      "d": 217.39124999998603,
      "v": 97
    },
    {
      "midi": 60,
      "hit": false,
      "t": 134739.0967499999,
      "d": 86.95650000000023,
      "v": 110
    },
    {
      "midi": 60,
      "hit": false,
      "t": 134869.5314999999,
      "d": 86.95650000000023,
      "v": 110
    },
    {
      "midi": 36,
      "hit": false,
      "t": 134869.5314999999,
      "d": 260.8694999999716,
      "v": 100
    },
    {
      "midi": 60,
      "hit": false,
      "t": 134999.96624999988,
      "d": 86.95650000000023,
      "v": 110
    },
    {
      "midi": 55,
      "hit": false,
      "t": 134999.96624999988,
      "d": 217.39124999998603,
      "v": 100
    },
    {
      "midi": 64,
      "hit": false,
      "t": 134999.96624999988,
      "d": 217.39124999998603,
      "v": 100
    },
    {
      "midi": 60,
      "hit": false,
      "t": 135130.40099999987,
      "d": 86.95650000000023,
      "v": 110
    },
    {
      "midi": 60,
      "hit": false,
      "t": 135260.83574999985,
      "d": 86.95650000000023,
      "v": 110
    },
    {
      "midi": 36,
      "hit": false,
      "t": 135260.83574999985,
      "d": 260.8694999999716,
      "v": 100
    },
    {
      "midi": 60,
      "hit": false,
      "t": 135391.27049999984,
      "d": 86.95650000000023,
      "v": 110
    },
    {
      "midi": 55,
      "hit": false,
      "t": 135391.27049999984,
      "d": 217.39124999998603,
      "v": 94
    },
    {
      "midi": 64,
      "hit": false,
      "t": 135391.27049999984,
      "d": 217.39124999998603,
      "v": 94
    },
    {
      "midi": 60,
      "hit": false,
      "t": 135521.70524999982,
      "d": 86.95650000000023,
      "v": 110
    },
    {
      "midi": 55,
      "hit": false,
      "t": 135652.1399999998,
      "d": 86.95650000000023,
      "v": 110
    },
    {
      "midi": 43,
      "hit": false,
      "t": 135652.1399999998,
      "d": 347.8259999999718,
      "v": 100
    },
    {
      "midi": 55,
      "hit": false,
      "t": 135782.5747499998,
      "d": 86.95650000000023,
      "v": 110
    },
    {
      "midi": 55,
      "hit": false,
      "t": 135913.00949999978,
      "d": 86.95650000000023,
      "v": 110
    },
    {
      "midi": 59,
      "hit": false,
      "t": 135913.00949999978,
      "d": 217.39124999998603,
      "v": 99
    },
    {
      "midi": 62,
      "hit": false,
      "t": 135913.00949999978,
      "d": 217.39124999998603,
      "v": 99
    },
    {
      "midi": 55,
      "hit": false,
      "t": 136043.44424999977,
      "d": 86.95650000000023,
      "v": 110
    },
    {
      "midi": 55,
      "hit": false,
      "t": 136173.87899999975,
      "d": 86.95650000000023,
      "v": 110
    },
    {
      "midi": 43,
      "hit": false,
      "t": 136173.87899999975,
      "d": 260.8694999999716,
      "v": 100
    },
    {
      "midi": 55,
      "hit": false,
      "t": 136304.31374999974,
      "d": 86.95650000000023,
      "v": 110
    },
    {
      "midi": 59,
      "hit": false,
      "t": 136304.31374999974,
      "d": 217.39124999998603,
      "v": 94
    },
    {
      "midi": 62,
      "hit": false,
      "t": 136304.31374999974,
      "d": 217.39124999998603,
      "v": 94
    },
    {
      "midi": 55,
      "hit": false,
      "t": 136434.74849999973,
      "d": 86.95650000000023,
      "v": 110
    },
    {
      "midi": 55,
      "hit": false,
      "t": 136565.1832499997,
      "d": 86.95650000000023,
      "v": 110
    },
    {
      "midi": 43,
      "hit": false,
      "t": 136565.1832499997,
      "d": 260.8694999999716,
      "v": 100
    },
    {
      "midi": 55,
      "hit": false,
      "t": 136695.6179999997,
      "d": 86.95650000000023,
      "v": 110
    },
    {
      "midi": 59,
      "hit": false,
      "t": 136695.6179999997,
      "d": 217.39124999998603,
      "v": 97
    },
    {
      "midi": 62,
      "hit": false,
      "t": 136695.6179999997,
      "d": 217.39124999998603,
      "v": 97
    },
    {
      "midi": 55,
      "hit": false,
      "t": 136826.05274999968,
      "d": 86.95650000000023,
      "v": 110
    },
    {
      "midi": 55,
      "hit": false,
      "t": 136956.48749999967,
      "d": 86.95650000000023,
      "v": 110
    },
    {
      "midi": 43,
      "hit": false,
      "t": 136956.48749999967,
      "d": 260.8694999999716,
      "v": 100
    },
    {
      "midi": 55,
      "hit": false,
      "t": 137086.92224999965,
      "d": 86.95650000000023,
      "v": 110
    },
    {
      "midi": 59,
      "hit": false,
      "t": 137086.92224999965,
      "d": 217.39124999998603,
      "v": 100
    },
    {
      "midi": 62,
      "hit": false,
      "t": 137086.92224999965,
      "d": 217.39124999998603,
      "v": 100
    },
    {
      "midi": 55,
      "hit": false,
      "t": 137217.35699999964,
      "d": 86.95650000000023,
      "v": 110
    },
    {
      "midi": 55,
      "hit": false,
      "t": 137347.79174999963,
      "d": 86.95650000000023,
      "v": 110
    },
    {
      "midi": 43,
      "hit": false,
      "t": 137347.79174999963,
      "d": 260.8694999999716,
      "v": 100
    },
    {
      "midi": 55,
      "hit": false,
      "t": 137478.2264999996,
      "d": 86.95650000000023,
      "v": 110
    },
    {
      "midi": 59,
      "hit": false,
      "t": 137478.2264999996,
      "d": 217.39124999998603,
      "v": 94
    },
    {
      "midi": 62,
      "hit": false,
      "t": 137478.2264999996,
      "d": 217.39124999998603,
      "v": 94
    },
    {
      "midi": 55,
      "hit": false,
      "t": 137608.6612499996,
      "d": 86.95650000000023,
      "v": 110
    },
    {
      "midi": 57,
      "hit": false,
      "t": 137739.09599999958,
      "d": 86.95650000000023,
      "v": 110
    },
    {
      "midi": 45,
      "hit": false,
      "t": 137739.09599999958,
      "d": 347.8259999999718,
      "v": 100
    },
    {
      "midi": 57,
      "hit": false,
      "t": 137869.53074999957,
      "d": 86.95650000000023,
      "v": 110
    },
    {
      "midi": 57,
      "hit": false,
      "t": 137999.96549999955,
      "d": 86.95650000000023,
      "v": 110
    },
    {
      "midi": 52,
      "hit": false,
      "t": 137999.96549999955,
      "d": 217.39124999998603,
      "v": 99
    },
    {
      "midi": 60,
      "hit": false,
      "t": 137999.96549999955,
      "d": 217.39124999998603,
      "v": 99
    },
    {
      "midi": 57,
      "hit": false,
      "t": 138130.40024999954,
      "d": 86.95650000000023,
      "v": 110
    },
    {
      "midi": 57,
      "hit": false,
      "t": 138260.83499999953,
      "d": 86.95650000000023,
      "v": 110
    },
    {
      "midi": 45,
      "hit": false,
      "t": 138260.83499999953,
      "d": 260.8694999999716,
      "v": 100
    },
    {
      "midi": 57,
      "hit": false,
      "t": 138391.2697499995,
      "d": 86.95650000000023,
      "v": 110
    },
    {
      "midi": 52,
      "hit": false,
      "t": 138391.2697499995,
      "d": 217.39124999998603,
      "v": 94
    },
    {
      "midi": 60,
      "hit": false,
      "t": 138391.2697499995,
      "d": 217.39124999998603,
      "v": 94
    },
    {
      "midi": 57,
      "hit": false,
      "t": 138521.7044999995,
      "d": 86.95650000000023,
      "v": 110
    },
    {
      "midi": 57,
      "hit": false,
      "t": 138652.13924999948,
      "d": 86.95650000000023,
      "v": 110
    },
    {
      "midi": 45,
      "hit": false,
      "t": 138652.13924999948,
      "d": 260.8694999999716,
      "v": 100
    },
    {
      "midi": 57,
      "hit": false,
      "t": 138782.57399999947,
      "d": 86.95650000000023,
      "v": 110
    },
    {
      "midi": 52,
      "hit": false,
      "t": 138782.57399999947,
      "d": 217.39124999998603,
      "v": 97
    },
    {
      "midi": 60,
      "hit": false,
      "t": 138782.57399999947,
      "d": 217.39124999998603,
      "v": 97
    },
    {
      "midi": 57,
      "hit": false,
      "t": 138913.00874999946,
      "d": 86.95650000000023,
      "v": 110
    },
    {
      "midi": 57,
      "hit": false,
      "t": 139043.44349999944,
      "d": 86.95650000000023,
      "v": 110
    },
    {
      "midi": 45,
      "hit": false,
      "t": 139043.44349999944,
      "d": 260.8694999999716,
      "v": 100
    },
    {
      "midi": 57,
      "hit": false,
      "t": 139173.87824999943,
      "d": 86.95650000000023,
      "v": 110
    },
    {
      "midi": 52,
      "hit": false,
      "t": 139173.87824999943,
      "d": 217.39124999998603,
      "v": 100
    },
    {
      "midi": 60,
      "hit": false,
      "t": 139173.87824999943,
      "d": 217.39124999998603,
      "v": 100
    },
    {
      "midi": 57,
      "hit": false,
      "t": 139304.3129999994,
      "d": 86.95650000000023,
      "v": 110
    },
    {
      "midi": 57,
      "hit": false,
      "t": 139434.7477499994,
      "d": 86.95650000000023,
      "v": 110
    },
    {
      "midi": 45,
      "hit": false,
      "t": 139434.7477499994,
      "d": 260.8694999999716,
      "v": 100
    },
    {
      "midi": 57,
      "hit": false,
      "t": 139565.18249999938,
      "d": 86.95650000000023,
      "v": 110
    },
    {
      "midi": 52,
      "hit": false,
      "t": 139565.18249999938,
      "d": 217.39124999998603,
      "v": 94
    },
    {
      "midi": 60,
      "hit": false,
      "t": 139565.18249999938,
      "d": 217.39124999998603,
      "v": 94
    },
    {
      "midi": 57,
      "hit": false,
      "t": 139695.61724999937,
      "d": 86.95650000000023,
      "v": 110
    },
    {
      "midi": 52,
      "hit": false,
      "t": 139826.05199999936,
      "d": 86.95650000000023,
      "v": 110
    },
    {
      "midi": 40,
      "hit": false,
      "t": 139826.05199999936,
      "d": 347.8259999999718,
      "v": 100
    },
    {
      "midi": 52,
      "hit": false,
      "t": 139956.48674999934,
      "d": 86.95650000000023,
      "v": 110
    },
    {
      "midi": 52,
      "hit": false,
      "t": 140086.92149999933,
      "d": 86.95650000000023,
      "v": 110
    },
    {
      "midi": 55,
      "hit": false,
      "t": 140086.92149999933,
      "d": 217.39124999998603,
      "v": 99
    },
    {
      "midi": 59,
      "hit": false,
      "t": 140086.92149999933,
      "d": 217.39124999998603,
      "v": 99
    },
    {
      "midi": 52,
      "hit": false,
      "t": 140217.3562499993,
      "d": 86.95650000000023,
      "v": 110
    },
    {
      "midi": 52,
      "hit": false,
      "t": 140347.7909999993,
      "d": 86.95650000000023,
      "v": 110
    },
    {
      "midi": 40,
      "hit": false,
      "t": 140347.7909999993,
      "d": 260.8694999999716,
      "v": 100
    },
    {
      "midi": 52,
      "hit": false,
      "t": 140478.22574999928,
      "d": 86.95650000000023,
      "v": 110
    },
    {
      "midi": 55,
      "hit": false,
      "t": 140478.22574999928,
      "d": 217.39124999998603,
      "v": 94
    },
    {
      "midi": 59,
      "hit": false,
      "t": 140478.22574999928,
      "d": 217.39124999998603,
      "v": 94
    },
    {
      "midi": 52,
      "hit": false,
      "t": 140608.66049999927,
      "d": 86.95650000000023,
      "v": 110
    },
    {
      "midi": 52,
      "hit": false,
      "t": 140739.09524999926,
      "d": 86.95650000000023,
      "v": 110
    },
    {
      "midi": 40,
      "hit": false,
      "t": 140739.09524999926,
      "d": 260.8694999999716,
      "v": 100
    },
    {
      "midi": 52,
      "hit": false,
      "t": 140869.52999999924,
      "d": 86.95650000000023,
      "v": 110
    },
    {
      "midi": 55,
      "hit": false,
      "t": 140869.52999999924,
      "d": 217.39124999998603,
      "v": 97
    },
    {
      "midi": 59,
      "hit": false,
      "t": 140869.52999999924,
      "d": 217.39124999998603,
      "v": 97
    },
    {
      "midi": 52,
      "hit": false,
      "t": 140999.96474999923,
      "d": 86.95650000000023,
      "v": 110
    },
    {
      "midi": 52,
      "hit": false,
      "t": 141130.3994999992,
      "d": 86.95650000000023,
      "v": 110
    },
    {
      "midi": 40,
      "hit": false,
      "t": 141130.3994999992,
      "d": 260.8694999999716,
      "v": 100
    },
    {
      "midi": 52,
      "hit": false,
      "t": 141260.8342499992,
      "d": 86.95650000000023,
      "v": 110
    },
    {
      "midi": 55,
      "hit": false,
      "t": 141260.8342499992,
      "d": 217.39124999998603,
      "v": 100
    },
    {
      "midi": 59,
      "hit": false,
      "t": 141260.8342499992,
      "d": 217.39124999998603,
      "v": 100
    },
    {
      "midi": 52,
      "hit": false,
      "t": 141391.26899999919,
      "d": 86.95650000000023,
      "v": 110
    },
    {
      "midi": 52,
      "hit": false,
      "t": 141521.70374999917,
      "d": 86.95650000000023,
      "v": 110
    },
    {
      "midi": 40,
      "hit": false,
      "t": 141521.70374999917,
      "d": 260.8694999999716,
      "v": 100
    },
    {
      "midi": 52,
      "hit": false,
      "t": 141652.13849999916,
      "d": 86.95650000000023,
      "v": 110
    },
    {
      "midi": 55,
      "hit": false,
      "t": 141652.13849999916,
      "d": 217.39124999998603,
      "v": 94
    },
    {
      "midi": 59,
      "hit": false,
      "t": 141652.13849999916,
      "d": 217.39124999998603,
      "v": 94
    },
    {
      "midi": 52,
      "hit": false,
      "t": 141782.57324999914,
      "d": 86.95650000000023,
      "v": 110
    },
    {
      "midi": 53,
      "hit": false,
      "t": 141913.00799999913,
      "d": 86.95650000000023,
      "v": 110
    },
    {
      "midi": 41,
      "hit": false,
      "t": 141913.00799999913,
      "d": 347.8259999999718,
      "v": 100
    },
    {
      "midi": 53,
      "hit": false,
      "t": 142043.4427499991,
      "d": 86.95650000000023,
      "v": 110
    },
    {
      "midi": 53,
      "hit": false,
      "t": 142173.8774999991,
      "d": 86.95650000000023,
      "v": 110
    },
    {
      "midi": 57,
      "hit": false,
      "t": 142173.8774999991,
      "d": 217.39124999998603,
      "v": 99
    },
    {
      "midi": 60,
      "hit": false,
      "t": 142173.8774999991,
      "d": 217.39124999998603,
      "v": 99
    },
    {
      "midi": 53,
      "hit": false,
      "t": 142304.3122499991,
      "d": 86.95650000000023,
      "v": 110
    },
    {
      "midi": 53,
      "hit": false,
      "t": 142434.74699999907,
      "d": 86.95650000000023,
      "v": 110
    },
    {
      "midi": 41,
      "hit": false,
      "t": 142434.74699999907,
      "d": 260.8694999999716,
      "v": 100
    },
    {
      "midi": 53,
      "hit": false,
      "t": 142565.18174999906,
      "d": 86.95650000000023,
      "v": 110
    },
    {
      "midi": 57,
      "hit": false,
      "t": 142565.18174999906,
      "d": 217.39124999998603,
      "v": 94
    },
    {
      "midi": 60,
      "hit": false,
      "t": 142565.18174999906,
      "d": 217.39124999998603,
      "v": 94
    },
    {
      "midi": 53,
      "hit": false,
      "t": 142695.61649999904,
      "d": 86.95650000000023,
      "v": 110
    },
    {
      "midi": 53,
      "hit": false,
      "t": 142826.05124999903,
      "d": 86.95650000000023,
      "v": 110
    },
    {
      "midi": 41,
      "hit": false,
      "t": 142826.05124999903,
      "d": 260.8694999999716,
      "v": 100
    },
    {
      "midi": 53,
      "hit": false,
      "t": 142956.48599999901,
      "d": 86.95650000000023,
      "v": 110
    },
    {
      "midi": 57,
      "hit": false,
      "t": 142956.48599999901,
      "d": 217.39124999998603,
      "v": 97
    },
    {
      "midi": 60,
      "hit": false,
      "t": 142956.48599999901,
      "d": 217.39124999998603,
      "v": 97
    },
    {
      "midi": 53,
      "hit": false,
      "t": 143086.920749999,
      "d": 86.95650000000023,
      "v": 110
    },
    {
      "midi": 53,
      "hit": false,
      "t": 143217.355499999,
      "d": 86.95650000000023,
      "v": 110
    },
    {
      "midi": 41,
      "hit": false,
      "t": 143217.355499999,
      "d": 260.8694999999716,
      "v": 100
    },
    {
      "midi": 53,
      "hit": false,
      "t": 143347.79024999897,
      "d": 86.95650000000023,
      "v": 110
    },
    {
      "midi": 57,
      "hit": false,
      "t": 143347.79024999897,
      "d": 217.39124999998603,
      "v": 100
    },
    {
      "midi": 60,
      "hit": false,
      "t": 143347.79024999897,
      "d": 217.39124999998603,
      "v": 100
    },
    {
      "midi": 53,
      "hit": false,
      "t": 143478.22499999896,
      "d": 86.95650000000023,
      "v": 110
    },
    {
      "midi": 53,
      "hit": false,
      "t": 143608.65974999894,
      "d": 86.95650000000023,
      "v": 110
    },
    {
      "midi": 41,
      "hit": false,
      "t": 143608.65974999894,
      "d": 260.8694999999716,
      "v": 100
    },
    {
      "midi": 53,
      "hit": false,
      "t": 143739.09449999893,
      "d": 86.95650000000023,
      "v": 110
    },
    {
      "midi": 57,
      "hit": false,
      "t": 143739.09449999893,
      "d": 217.39124999998603,
      "v": 94
    },
    {
      "midi": 60,
      "hit": false,
      "t": 143739.09449999893,
      "d": 217.39124999998603,
      "v": 94
    },
    {
      "midi": 53,
      "hit": false,
      "t": 143869.52924999892,
      "d": 86.95650000000023,
      "v": 110
    },
    {
      "midi": 60,
      "hit": false,
      "t": 143999.9639999989,
      "d": 86.95650000000023,
      "v": 110
    },
    {
      "midi": 36,
      "hit": false,
      "t": 143999.9639999989,
      "d": 347.8259999999718,
      "v": 100
    },
    {
      "midi": 60,
      "hit": false,
      "t": 144130.3987499989,
      "d": 86.95650000000023,
      "v": 110
    },
    {
      "midi": 60,
      "hit": false,
      "t": 144260.83349999887,
      "d": 86.95650000000023,
      "v": 110
    },
    {
      "midi": 55,
      "hit": false,
      "t": 144260.83349999887,
      "d": 217.39124999998603,
      "v": 99
    },
    {
      "midi": 64,
      "hit": false,
      "t": 144260.83349999887,
      "d": 217.39124999998603,
      "v": 99
    },
    {
      "midi": 60,
      "hit": false,
      "t": 144391.26824999886,
      "d": 86.95650000000023,
      "v": 110
    },
    {
      "midi": 60,
      "hit": false,
      "t": 144521.70299999884,
      "d": 86.95650000000023,
      "v": 110
    },
    {
      "midi": 36,
      "hit": false,
      "t": 144521.70299999884,
      "d": 260.8694999999716,
      "v": 100
    },
    {
      "midi": 60,
      "hit": false,
      "t": 144652.13774999883,
      "d": 86.95650000000023,
      "v": 110
    },
    {
      "midi": 55,
      "hit": false,
      "t": 144652.13774999883,
      "d": 217.39124999998603,
      "v": 94
    },
    {
      "midi": 64,
      "hit": false,
      "t": 144652.13774999883,
      "d": 217.39124999998603,
      "v": 94
    },
    {
      "midi": 60,
      "hit": false,
      "t": 144782.57249999882,
      "d": 86.95650000000023,
      "v": 110
    },
    {
      "midi": 60,
      "hit": false,
      "t": 144913.0072499988,
      "d": 86.95650000000023,
      "v": 110
    },
    {
      "midi": 36,
      "hit": false,
      "t": 144913.0072499988,
      "d": 260.8694999999716,
      "v": 100
    },
    {
      "midi": 60,
      "hit": false,
      "t": 145043.4419999988,
      "d": 86.95650000000023,
      "v": 110
    },
    {
      "midi": 55,
      "hit": false,
      "t": 145043.4419999988,
      "d": 217.39124999998603,
      "v": 97
    },
    {
      "midi": 64,
      "hit": false,
      "t": 145043.4419999988,
      "d": 217.39124999998603,
      "v": 97
    },
    {
      "midi": 60,
      "hit": false,
      "t": 145173.87674999877,
      "d": 86.95650000000023,
      "v": 110
    },
    {
      "midi": 60,
      "hit": false,
      "t": 145304.31149999876,
      "d": 86.95650000000023,
      "v": 110
    },
    {
      "midi": 36,
      "hit": false,
      "t": 145304.31149999876,
      "d": 260.8694999999716,
      "v": 100
    },
    {
      "midi": 60,
      "hit": false,
      "t": 145434.74624999875,
      "d": 86.95650000000023,
      "v": 110
    },
    {
      "midi": 55,
      "hit": false,
      "t": 145434.74624999875,
      "d": 217.39124999998603,
      "v": 100
    },
    {
      "midi": 64,
      "hit": false,
      "t": 145434.74624999875,
      "d": 217.39124999998603,
      "v": 100
    },
    {
      "midi": 60,
      "hit": false,
      "t": 145565.18099999873,
      "d": 86.95650000000023,
      "v": 110
    },
    {
      "midi": 60,
      "hit": false,
      "t": 145695.61574999872,
      "d": 86.95650000000023,
      "v": 110
    },
    {
      "midi": 36,
      "hit": false,
      "t": 145695.61574999872,
      "d": 260.8694999999716,
      "v": 100
    },
    {
      "midi": 60,
      "hit": false,
      "t": 145826.0504999987,
      "d": 86.95650000000023,
      "v": 110
    },
    {
      "midi": 55,
      "hit": false,
      "t": 145826.0504999987,
      "d": 217.39124999998603,
      "v": 94
    },
    {
      "midi": 64,
      "hit": false,
      "t": 145826.0504999987,
      "d": 217.39124999998603,
      "v": 94
    },
    {
      "midi": 60,
      "hit": false,
      "t": 145956.4852499987,
      "d": 86.95650000000023,
      "v": 110
    },
    {
      "midi": 62,
      "hit": false,
      "t": 146086.91999999867,
      "d": 86.95650000000023,
      "v": 110
    },
    {
      "midi": 38,
      "hit": false,
      "t": 146086.91999999867,
      "d": 347.8259999999718,
      "v": 100
    },
    {
      "midi": 62,
      "hit": false,
      "t": 146217.35474999866,
      "d": 86.95650000000023,
      "v": 110
    },
    {
      "midi": 62,
      "hit": false,
      "t": 146347.78949999865,
      "d": 86.95650000000023,
      "v": 110
    },
    {
      "midi": 50,
      "hit": false,
      "t": 146347.78949999865,
      "d": 217.39124999998603,
      "v": 99
    },
    {
      "midi": 53,
      "hit": false,
      "t": 146347.78949999865,
      "d": 217.39124999998603,
      "v": 99
    },
    {
      "midi": 57,
      "hit": false,
      "t": 146347.78949999865,
      "d": 217.39124999998603,
      "v": 99
    },
    {
      "midi": 60,
      "hit": false,
      "t": 146347.78949999865,
      "d": 217.39124999998603,
      "v": 99
    },
    {
      "midi": 62,
      "hit": false,
      "t": 146478.22424999863,
      "d": 86.95650000000023,
      "v": 110
    },
    {
      "midi": 62,
      "hit": false,
      "t": 146608.65899999862,
      "d": 86.95650000000023,
      "v": 110
    },
    {
      "midi": 38,
      "hit": false,
      "t": 146608.65899999862,
      "d": 260.8694999999716,
      "v": 100
    },
    {
      "midi": 62,
      "hit": false,
      "t": 146739.0937499986,
      "d": 86.95650000000023,
      "v": 110
    },
    {
      "midi": 50,
      "hit": false,
      "t": 146739.0937499986,
      "d": 217.39124999998603,
      "v": 94
    },
    {
      "midi": 53,
      "hit": false,
      "t": 146739.0937499986,
      "d": 217.39124999998603,
      "v": 94
    },
    {
      "midi": 57,
      "hit": false,
      "t": 146739.0937499986,
      "d": 217.39124999998603,
      "v": 94
    },
    {
      "midi": 60,
      "hit": false,
      "t": 146739.0937499986,
      "d": 217.39124999998603,
      "v": 94
    },
    {
      "midi": 62,
      "hit": false,
      "t": 146869.5284999986,
      "d": 86.95650000000023,
      "v": 110
    },
    {
      "midi": 62,
      "hit": false,
      "t": 146999.96324999857,
      "d": 86.95650000000023,
      "v": 110
    },
    {
      "midi": 38,
      "hit": false,
      "t": 146999.96324999857,
      "d": 260.8694999999716,
      "v": 100
    },
    {
      "midi": 62,
      "hit": false,
      "t": 147130.39799999856,
      "d": 86.95650000000023,
      "v": 110
    },
    {
      "midi": 50,
      "hit": false,
      "t": 147130.39799999856,
      "d": 217.39124999998603,
      "v": 97
    },
    {
      "midi": 53,
      "hit": false,
      "t": 147130.39799999856,
      "d": 217.39124999998603,
      "v": 97
    },
    {
      "midi": 57,
      "hit": false,
      "t": 147130.39799999856,
      "d": 217.39124999998603,
      "v": 97
    },
    {
      "midi": 60,
      "hit": false,
      "t": 147130.39799999856,
      "d": 217.39124999998603,
      "v": 97
    },
    {
      "midi": 62,
      "hit": false,
      "t": 147260.83274999855,
      "d": 86.95650000000023,
      "v": 110
    },
    {
      "midi": 62,
      "hit": false,
      "t": 147391.26749999853,
      "d": 86.95650000000023,
      "v": 110
    },
    {
      "midi": 38,
      "hit": false,
      "t": 147391.26749999853,
      "d": 260.8694999999716,
      "v": 100
    },
    {
      "midi": 62,
      "hit": false,
      "t": 147521.70224999852,
      "d": 86.95650000000023,
      "v": 110
    },
    {
      "midi": 50,
      "hit": false,
      "t": 147521.70224999852,
      "d": 217.39124999998603,
      "v": 100
    },
    {
      "midi": 53,
      "hit": false,
      "t": 147521.70224999852,
      "d": 217.39124999998603,
      "v": 100
    },
    {
      "midi": 57,
      "hit": false,
      "t": 147521.70224999852,
      "d": 217.39124999998603,
      "v": 100
    },
    {
      "midi": 60,
      "hit": false,
      "t": 147521.70224999852,
      "d": 217.39124999998603,
      "v": 100
    },
    {
      "midi": 62,
      "hit": false,
      "t": 147652.1369999985,
      "d": 86.95650000000023,
      "v": 110
    },
    {
      "midi": 62,
      "hit": false,
      "t": 147782.5717499985,
      "d": 86.95650000000023,
      "v": 110
    },
    {
      "midi": 38,
      "hit": false,
      "t": 147782.5717499985,
      "d": 260.8694999999716,
      "v": 100
    },
    {
      "midi": 62,
      "hit": false,
      "t": 147913.00649999848,
      "d": 86.95650000000023,
      "v": 110
    },
    {
      "midi": 50,
      "hit": false,
      "t": 147913.00649999848,
      "d": 217.39124999998603,
      "v": 94
    },
    {
      "midi": 53,
      "hit": false,
      "t": 147913.00649999848,
      "d": 217.39124999998603,
      "v": 94
    },
    {
      "midi": 57,
      "hit": false,
      "t": 147913.00649999848,
      "d": 217.39124999998603,
      "v": 94
    },
    {
      "midi": 60,
      "hit": false,
      "t": 147913.00649999848,
      "d": 217.39124999998603,
      "v": 94
    },
    {
      "midi": 62,
      "hit": false,
      "t": 148043.44124999846,
      "d": 86.95650000000023,
      "v": 110
    },
    {
      "midi": 55,
      "hit": false,
      "t": 148173.87599999845,
      "d": 86.95650000000023,
      "v": 110
    },
    {
      "midi": 43,
      "hit": false,
      "t": 148173.87599999845,
      "d": 347.8259999999718,
      "v": 100
    },
    {
      "midi": 55,
      "hit": false,
      "t": 148304.31074999843,
      "d": 86.95650000000023,
      "v": 110
    },
    {
      "midi": 55,
      "hit": false,
      "t": 148434.74549999842,
      "d": 86.95650000000023,
      "v": 110
    },
    {
      "midi": 59,
      "hit": false,
      "t": 148434.74549999842,
      "d": 217.39124999998603,
      "v": 99
    },
    {
      "midi": 62,
      "hit": false,
      "t": 148434.74549999842,
      "d": 217.39124999998603,
      "v": 99
    },
    {
      "midi": 55,
      "hit": false,
      "t": 148565.1802499984,
      "d": 86.95650000000023,
      "v": 110
    },
    {
      "midi": 55,
      "hit": false,
      "t": 148695.6149999984,
      "d": 86.95650000000023,
      "v": 110
    },
    {
      "midi": 43,
      "hit": false,
      "t": 148695.6149999984,
      "d": 260.8694999999716,
      "v": 100
    },
    {
      "midi": 55,
      "hit": false,
      "t": 148826.04974999838,
      "d": 86.95650000000023,
      "v": 110
    },
    {
      "midi": 59,
      "hit": false,
      "t": 148826.04974999838,
      "d": 217.39124999998603,
      "v": 94
    },
    {
      "midi": 62,
      "hit": false,
      "t": 148826.04974999838,
      "d": 217.39124999998603,
      "v": 94
    },
    {
      "midi": 55,
      "hit": false,
      "t": 148956.48449999836,
      "d": 86.95650000000023,
      "v": 110
    },
    {
      "midi": 55,
      "hit": false,
      "t": 149086.91924999835,
      "d": 86.95650000000023,
      "v": 110
    },
    {
      "midi": 43,
      "hit": false,
      "t": 149086.91924999835,
      "d": 260.8694999999716,
      "v": 100
    },
    {
      "midi": 55,
      "hit": false,
      "t": 149217.35399999833,
      "d": 86.95650000000023,
      "v": 110
    },
    {
      "midi": 59,
      "hit": false,
      "t": 149217.35399999833,
      "d": 217.39124999998603,
      "v": 97
    },
    {
      "midi": 62,
      "hit": false,
      "t": 149217.35399999833,
      "d": 217.39124999998603,
      "v": 97
    },
    {
      "midi": 55,
      "hit": false,
      "t": 149347.78874999832,
      "d": 86.95650000000023,
      "v": 110
    },
    {
      "midi": 55,
      "hit": false,
      "t": 149478.2234999983,
      "d": 86.95650000000023,
      "v": 110
    },
    {
      "midi": 43,
      "hit": false,
      "t": 149478.2234999983,
      "d": 260.8694999999716,
      "v": 100
    },
    {
      "midi": 55,
      "hit": false,
      "t": 149608.6582499983,
      "d": 86.95650000000023,
      "v": 110
    },
    {
      "midi": 59,
      "hit": false,
      "t": 149608.6582499983,
      "d": 217.39124999998603,
      "v": 100
    },
    {
      "midi": 62,
      "hit": false,
      "t": 149608.6582499983,
      "d": 217.39124999998603,
      "v": 100
    },
    {
      "midi": 55,
      "hit": false,
      "t": 149739.09299999828,
      "d": 86.95650000000023,
      "v": 110
    },
    {
      "midi": 55,
      "hit": false,
      "t": 149869.52774999826,
      "d": 86.95650000000023,
      "v": 110
    },
    {
      "midi": 43,
      "hit": false,
      "t": 149869.52774999826,
      "d": 260.8694999999716,
      "v": 100
    },
    {
      "midi": 55,
      "hit": false,
      "t": 149999.96249999825,
      "d": 86.95650000000023,
      "v": 110
    },
    {
      "midi": 59,
      "hit": false,
      "t": 149999.96249999825,
      "d": 217.39124999998603,
      "v": 94
    },
    {
      "midi": 62,
      "hit": false,
      "t": 149999.96249999825,
      "d": 217.39124999998603,
      "v": 94
    },
    {
      "midi": 55,
      "hit": false,
      "t": 150130.39724999823,
      "d": 86.95650000000023,
      "v": 110
    },
    {
      "midi": 60,
      "hit": false,
      "t": 150260.83199999822,
      "d": 86.95650000000023,
      "v": 110
    },
    {
      "midi": 36,
      "hit": false,
      "t": 150260.83199999822,
      "d": 347.8259999999718,
      "v": 100
    },
    {
      "midi": 60,
      "hit": false,
      "t": 150391.2667499982,
      "d": 86.95650000000023,
      "v": 110
    },
    {
      "midi": 60,
      "hit": false,
      "t": 150521.7014999982,
      "d": 86.95650000000023,
      "v": 110
    },
    {
      "midi": 55,
      "hit": false,
      "t": 150521.7014999982,
      "d": 217.39124999998603,
      "v": 99
    },
    {
      "midi": 64,
      "hit": false,
      "t": 150521.7014999982,
      "d": 217.39124999998603,
      "v": 99
    },
    {
      "midi": 60,
      "hit": false,
      "t": 150652.13624999818,
      "d": 86.95650000000023,
      "v": 110
    },
    {
      "midi": 60,
      "hit": false,
      "t": 150782.57099999816,
      "d": 86.95650000000023,
      "v": 110
    },
    {
      "midi": 36,
      "hit": false,
      "t": 150782.57099999816,
      "d": 260.8694999999716,
      "v": 100
    },
    {
      "midi": 60,
      "hit": false,
      "t": 150913.00574999815,
      "d": 86.95650000000023,
      "v": 110
    },
    {
      "midi": 55,
      "hit": false,
      "t": 150913.00574999815,
      "d": 217.39124999998603,
      "v": 94
    },
    {
      "midi": 64,
      "hit": false,
      "t": 150913.00574999815,
      "d": 217.39124999998603,
      "v": 94
    },
    {
      "midi": 60,
      "hit": false,
      "t": 151043.44049999813,
      "d": 86.95650000000023,
      "v": 110
    },
    {
      "midi": 60,
      "hit": false,
      "t": 151173.87524999812,
      "d": 86.95650000000023,
      "v": 110
    },
    {
      "midi": 36,
      "hit": false,
      "t": 151173.87524999812,
      "d": 260.8694999999716,
      "v": 100
    },
    {
      "midi": 60,
      "hit": false,
      "t": 151304.3099999981,
      "d": 86.95650000000023,
      "v": 110
    },
    {
      "midi": 55,
      "hit": false,
      "t": 151304.3099999981,
      "d": 217.39124999998603,
      "v": 97
    },
    {
      "midi": 64,
      "hit": false,
      "t": 151304.3099999981,
      "d": 217.39124999998603,
      "v": 97
    },
    {
      "midi": 60,
      "hit": false,
      "t": 151434.7447499981,
      "d": 86.95650000000023,
      "v": 110
    },
    {
      "midi": 60,
      "hit": false,
      "t": 151565.17949999808,
      "d": 86.95650000000023,
      "v": 110
    },
    {
      "midi": 36,
      "hit": false,
      "t": 151565.17949999808,
      "d": 260.8694999999716,
      "v": 100
    },
    {
      "midi": 60,
      "hit": false,
      "t": 151695.61424999806,
      "d": 86.95650000000023,
      "v": 110
    },
    {
      "midi": 55,
      "hit": false,
      "t": 151695.61424999806,
      "d": 217.39124999998603,
      "v": 100
    },
    {
      "midi": 64,
      "hit": false,
      "t": 151695.61424999806,
      "d": 217.39124999998603,
      "v": 100
    },
    {
      "midi": 60,
      "hit": false,
      "t": 151826.04899999805,
      "d": 86.95650000000023,
      "v": 110
    },
    {
      "midi": 60,
      "hit": false,
      "t": 151956.48374999803,
      "d": 86.95650000000023,
      "v": 110
    },
    {
      "midi": 36,
      "hit": false,
      "t": 151956.48374999803,
      "d": 260.8694999999716,
      "v": 100
    },
    {
      "midi": 60,
      "hit": false,
      "t": 152086.91849999802,
      "d": 86.95650000000023,
      "v": 110
    },
    {
      "midi": 55,
      "hit": false,
      "t": 152086.91849999802,
      "d": 217.39124999998603,
      "v": 94
    },
    {
      "midi": 64,
      "hit": false,
      "t": 152086.91849999802,
      "d": 217.39124999998603,
      "v": 94
    },
    {
      "midi": 60,
      "hit": false,
      "t": 152217.353249998,
      "d": 86.95650000000023,
      "v": 110
    },
    {
      "midi": 55,
      "hit": false,
      "t": 152347.787999998,
      "d": 86.95650000000023,
      "v": 110
    },
    {
      "midi": 43,
      "hit": false,
      "t": 152347.787999998,
      "d": 347.8259999999718,
      "v": 100
    },
    {
      "midi": 55,
      "hit": false,
      "t": 152478.22274999798,
      "d": 86.95650000000023,
      "v": 110
    },
    {
      "midi": 55,
      "hit": false,
      "t": 152608.65749999796,
      "d": 86.95650000000023,
      "v": 110
    },
    {
      "midi": 59,
      "hit": false,
      "t": 152608.65749999796,
      "d": 217.39124999998603,
      "v": 99
    },
    {
      "midi": 62,
      "hit": false,
      "t": 152608.65749999796,
      "d": 217.39124999998603,
      "v": 99
    },
    {
      "midi": 55,
      "hit": false,
      "t": 152739.09224999795,
      "d": 86.95650000000023,
      "v": 110
    },
    {
      "midi": 55,
      "hit": false,
      "t": 152869.52699999794,
      "d": 86.95650000000023,
      "v": 110
    },
    {
      "midi": 43,
      "hit": false,
      "t": 152869.52699999794,
      "d": 260.8694999999716,
      "v": 100
    },
    {
      "midi": 55,
      "hit": false,
      "t": 152999.96174999792,
      "d": 86.95650000000023,
      "v": 110
    },
    {
      "midi": 59,
      "hit": false,
      "t": 152999.96174999792,
      "d": 217.39124999998603,
      "v": 94
    },
    {
      "midi": 62,
      "hit": false,
      "t": 152999.96174999792,
      "d": 217.39124999998603,
      "v": 94
    },
    {
      "midi": 55,
      "hit": false,
      "t": 153130.3964999979,
      "d": 86.95650000000023,
      "v": 110
    },
    {
      "midi": 55,
      "hit": false,
      "t": 153260.8312499979,
      "d": 86.95650000000023,
      "v": 110
    },
    {
      "midi": 43,
      "hit": false,
      "t": 153260.8312499979,
      "d": 260.8694999999716,
      "v": 100
    },
    {
      "midi": 55,
      "hit": false,
      "t": 153391.26599999788,
      "d": 86.95650000000023,
      "v": 110
    },
    {
      "midi": 59,
      "hit": false,
      "t": 153391.26599999788,
      "d": 217.39124999998603,
      "v": 97
    },
    {
      "midi": 62,
      "hit": false,
      "t": 153391.26599999788,
      "d": 217.39124999998603,
      "v": 97
    },
    {
      "midi": 55,
      "hit": false,
      "t": 153521.70074999786,
      "d": 86.95650000000023,
      "v": 110
    },
    {
      "midi": 55,
      "hit": false,
      "t": 153652.13549999785,
      "d": 86.95650000000023,
      "v": 110
    },
    {
      "midi": 43,
      "hit": false,
      "t": 153652.13549999785,
      "d": 260.8694999999716,
      "v": 100
    },
    {
      "midi": 55,
      "hit": false,
      "t": 153782.57024999784,
      "d": 86.95650000000023,
      "v": 110
    },
    {
      "midi": 59,
      "hit": false,
      "t": 153782.57024999784,
      "d": 217.39124999998603,
      "v": 100
    },
    {
      "midi": 62,
      "hit": false,
      "t": 153782.57024999784,
      "d": 217.39124999998603,
      "v": 100
    },
    {
      "midi": 55,
      "hit": false,
      "t": 153913.00499999782,
      "d": 86.95650000000023,
      "v": 110
    },
    {
      "midi": 55,
      "hit": false,
      "t": 154043.4397499978,
      "d": 86.95650000000023,
      "v": 110
    },
    {
      "midi": 43,
      "hit": false,
      "t": 154043.4397499978,
      "d": 260.8694999999716,
      "v": 100
    },
    {
      "midi": 55,
      "hit": false,
      "t": 154173.8744999978,
      "d": 86.95650000000023,
      "v": 110
    },
    {
      "midi": 59,
      "hit": false,
      "t": 154173.8744999978,
      "d": 217.39124999998603,
      "v": 94
    },
    {
      "midi": 62,
      "hit": false,
      "t": 154173.8744999978,
      "d": 217.39124999998603,
      "v": 94
    },
    {
      "midi": 55,
      "hit": false,
      "t": 154304.30924999778,
      "d": 86.95650000000023,
      "v": 110
    },
    {
      "midi": 57,
      "hit": false,
      "t": 154434.74399999777,
      "d": 86.95650000000023,
      "v": 110
    },
    {
      "midi": 45,
      "hit": false,
      "t": 154434.74399999777,
      "d": 347.8259999999718,
      "v": 100
    },
    {
      "midi": 57,
      "hit": false,
      "t": 154565.17874999775,
      "d": 86.95650000000023,
      "v": 110
    },
    {
      "midi": 57,
      "hit": false,
      "t": 154695.61349999774,
      "d": 86.95650000000023,
      "v": 110
    },
    {
      "midi": 52,
      "hit": false,
      "t": 154695.61349999774,
      "d": 217.39124999998603,
      "v": 99
    },
    {
      "midi": 60,
      "hit": false,
      "t": 154695.61349999774,
      "d": 217.39124999998603,
      "v": 99
    },
    {
      "midi": 57,
      "hit": false,
      "t": 154826.04824999772,
      "d": 86.95650000000023,
      "v": 110
    },
    {
      "midi": 57,
      "hit": false,
      "t": 154956.4829999977,
      "d": 86.95650000000023,
      "v": 110
    },
    {
      "midi": 45,
      "hit": false,
      "t": 154956.4829999977,
      "d": 260.8694999999716,
      "v": 100
    },
    {
      "midi": 57,
      "hit": false,
      "t": 155086.9177499977,
      "d": 86.95650000000023,
      "v": 110
    },
    {
      "midi": 52,
      "hit": false,
      "t": 155086.9177499977,
      "d": 217.39124999998603,
      "v": 94
    },
    {
      "midi": 60,
      "hit": false,
      "t": 155086.9177499977,
      "d": 217.39124999998603,
      "v": 94
    },
    {
      "midi": 57,
      "hit": false,
      "t": 155217.35249999768,
      "d": 86.95650000000023,
      "v": 110
    },
    {
      "midi": 57,
      "hit": false,
      "t": 155347.78724999767,
      "d": 86.95650000000023,
      "v": 110
    },
    {
      "midi": 45,
      "hit": false,
      "t": 155347.78724999767,
      "d": 260.8694999999716,
      "v": 100
    },
    {
      "midi": 57,
      "hit": false,
      "t": 155478.22199999765,
      "d": 86.95650000000023,
      "v": 110
    },
    {
      "midi": 52,
      "hit": false,
      "t": 155478.22199999765,
      "d": 217.39124999998603,
      "v": 97
    },
    {
      "midi": 60,
      "hit": false,
      "t": 155478.22199999765,
      "d": 217.39124999998603,
      "v": 97
    },
    {
      "midi": 57,
      "hit": false,
      "t": 155608.65674999764,
      "d": 86.95650000000023,
      "v": 110
    },
    {
      "midi": 57,
      "hit": false,
      "t": 155739.09149999762,
      "d": 86.95650000000023,
      "v": 110
    },
    {
      "midi": 45,
      "hit": false,
      "t": 155739.09149999762,
      "d": 260.8694999999716,
      "v": 100
    },
    {
      "midi": 57,
      "hit": false,
      "t": 155869.5262499976,
      "d": 86.95650000000023,
      "v": 110
    },
    {
      "midi": 52,
      "hit": false,
      "t": 155869.5262499976,
      "d": 217.39124999998603,
      "v": 100
    },
    {
      "midi": 60,
      "hit": false,
      "t": 155869.5262499976,
      "d": 217.39124999998603,
      "v": 100
    },
    {
      "midi": 57,
      "hit": false,
      "t": 155999.9609999976,
      "d": 86.95650000000023,
      "v": 110
    },
    {
      "midi": 57,
      "hit": false,
      "t": 156130.39574999758,
      "d": 86.95650000000023,
      "v": 110
    },
    {
      "midi": 45,
      "hit": false,
      "t": 156130.39574999758,
      "d": 260.8694999999716,
      "v": 100
    },
    {
      "midi": 57,
      "hit": false,
      "t": 156260.83049999757,
      "d": 86.95650000000023,
      "v": 110
    },
    {
      "midi": 52,
      "hit": false,
      "t": 156260.83049999757,
      "d": 217.39124999998603,
      "v": 94
    },
    {
      "midi": 60,
      "hit": false,
      "t": 156260.83049999757,
      "d": 217.39124999998603,
      "v": 94
    },
    {
      "midi": 57,
      "hit": false,
      "t": 156391.26524999755,
      "d": 86.95650000000023,
      "v": 110
    },
    {
      "midi": 52,
      "hit": false,
      "t": 156521.69999999754,
      "d": 86.95650000000023,
      "v": 110
    },
    {
      "midi": 40,
      "hit": false,
      "t": 156521.69999999754,
      "d": 347.8259999999718,
      "v": 100
    },
    {
      "midi": 52,
      "hit": false,
      "t": 156652.13474999752,
      "d": 86.95650000000023,
      "v": 110
    },
    {
      "midi": 52,
      "hit": false,
      "t": 156782.5694999975,
      "d": 86.95650000000023,
      "v": 110
    },
    {
      "midi": 55,
      "hit": false,
      "t": 156782.5694999975,
      "d": 217.39124999998603,
      "v": 99
    },
    {
      "midi": 59,
      "hit": false,
      "t": 156782.5694999975,
      "d": 217.39124999998603,
      "v": 99
    },
    {
      "midi": 52,
      "hit": false,
      "t": 156913.0042499975,
      "d": 86.95650000000023,
      "v": 110
    },
    {
      "midi": 52,
      "hit": false,
      "t": 157043.43899999748,
      "d": 86.95650000000023,
      "v": 110
    },
    {
      "midi": 40,
      "hit": false,
      "t": 157043.43899999748,
      "d": 260.8694999999716,
      "v": 100
    },
    {
      "midi": 52,
      "hit": false,
      "t": 157173.87374999747,
      "d": 86.95650000000023,
      "v": 110
    },
    {
      "midi": 55,
      "hit": false,
      "t": 157173.87374999747,
      "d": 217.39124999998603,
      "v": 94
    },
    {
      "midi": 59,
      "hit": false,
      "t": 157173.87374999747,
      "d": 217.39124999998603,
      "v": 94
    },
    {
      "midi": 52,
      "hit": false,
      "t": 157304.30849999745,
      "d": 86.95650000000023,
      "v": 110
    },
    {
      "midi": 52,
      "hit": false,
      "t": 157434.74324999744,
      "d": 86.95650000000023,
      "v": 110
    },
    {
      "midi": 40,
      "hit": false,
      "t": 157434.74324999744,
      "d": 260.8694999999716,
      "v": 100
    },
    {
      "midi": 52,
      "hit": false,
      "t": 157565.17799999742,
      "d": 86.95650000000023,
      "v": 110
    },
    {
      "midi": 55,
      "hit": false,
      "t": 157565.17799999742,
      "d": 217.39124999998603,
      "v": 97
    },
    {
      "midi": 59,
      "hit": false,
      "t": 157565.17799999742,
      "d": 217.39124999998603,
      "v": 97
    },
    {
      "midi": 52,
      "hit": false,
      "t": 157695.6127499974,
      "d": 86.95650000000023,
      "v": 110
    },
    {
      "midi": 52,
      "hit": false,
      "t": 157826.0474999974,
      "d": 86.95650000000023,
      "v": 110
    },
    {
      "midi": 40,
      "hit": false,
      "t": 157826.0474999974,
      "d": 260.8694999999716,
      "v": 100
    },
    {
      "midi": 52,
      "hit": false,
      "t": 157956.48224999738,
      "d": 86.95650000000023,
      "v": 110
    },
    {
      "midi": 55,
      "hit": false,
      "t": 157956.48224999738,
      "d": 217.39124999998603,
      "v": 100
    },
    {
      "midi": 59,
      "hit": false,
      "t": 157956.48224999738,
      "d": 217.39124999998603,
      "v": 100
    },
    {
      "midi": 52,
      "hit": false,
      "t": 158086.91699999737,
      "d": 86.95650000000023,
      "v": 110
    },
    {
      "midi": 52,
      "hit": false,
      "t": 158217.35174999735,
      "d": 86.95650000000023,
      "v": 110
    },
    {
      "midi": 40,
      "hit": false,
      "t": 158217.35174999735,
      "d": 260.8694999999716,
      "v": 100
    },
    {
      "midi": 52,
      "hit": false,
      "t": 158347.78649999734,
      "d": 86.95650000000023,
      "v": 110
    },
    {
      "midi": 55,
      "hit": false,
      "t": 158347.78649999734,
      "d": 217.39124999998603,
      "v": 94
    },
    {
      "midi": 59,
      "hit": false,
      "t": 158347.78649999734,
      "d": 217.39124999998603,
      "v": 94
    },
    {
      "midi": 52,
      "hit": false,
      "t": 158478.22124999732,
      "d": 86.95650000000023,
      "v": 110
    },
    {
      "midi": 53,
      "hit": false,
      "t": 158608.6559999973,
      "d": 86.95650000000023,
      "v": 110
    },
    {
      "midi": 41,
      "hit": false,
      "t": 158608.6559999973,
      "d": 347.8259999999718,
      "v": 100
    },
    {
      "midi": 53,
      "hit": false,
      "t": 158739.0907499973,
      "d": 86.95650000000023,
      "v": 110
    },
    {
      "midi": 53,
      "hit": false,
      "t": 158869.52549999728,
      "d": 86.95650000000023,
      "v": 110
    },
    {
      "midi": 57,
      "hit": false,
      "t": 158869.52549999728,
      "d": 217.39124999998603,
      "v": 99
    },
    {
      "midi": 60,
      "hit": false,
      "t": 158869.52549999728,
      "d": 217.39124999998603,
      "v": 99
    },
    {
      "midi": 53,
      "hit": false,
      "t": 158999.96024999727,
      "d": 86.95650000000023,
      "v": 110
    },
    {
      "midi": 53,
      "hit": false,
      "t": 159130.39499999725,
      "d": 86.95650000000023,
      "v": 110
    },
    {
      "midi": 41,
      "hit": false,
      "t": 159130.39499999725,
      "d": 260.8694999999716,
      "v": 100
    },
    {
      "midi": 53,
      "hit": false,
      "t": 159260.82974999724,
      "d": 86.95650000000023,
      "v": 110
    },
    {
      "midi": 57,
      "hit": false,
      "t": 159260.82974999724,
      "d": 217.39124999998603,
      "v": 94
    },
    {
      "midi": 60,
      "hit": false,
      "t": 159260.82974999724,
      "d": 217.39124999998603,
      "v": 94
    },
    {
      "midi": 53,
      "hit": false,
      "t": 159391.26449999723,
      "d": 86.95650000000023,
      "v": 110
    },
    {
      "midi": 53,
      "hit": false,
      "t": 159521.6992499972,
      "d": 86.95650000000023,
      "v": 110
    },
    {
      "midi": 41,
      "hit": false,
      "t": 159521.6992499972,
      "d": 260.8694999999716,
      "v": 100
    },
    {
      "midi": 53,
      "hit": false,
      "t": 159652.1339999972,
      "d": 86.95650000000023,
      "v": 110
    },
    {
      "midi": 57,
      "hit": false,
      "t": 159652.1339999972,
      "d": 217.39124999998603,
      "v": 97
    },
    {
      "midi": 60,
      "hit": false,
      "t": 159652.1339999972,
      "d": 217.39124999998603,
      "v": 97
    },
    {
      "midi": 53,
      "hit": false,
      "t": 159782.56874999718,
      "d": 86.95650000000023,
      "v": 110
    },
    {
      "midi": 53,
      "hit": false,
      "t": 159913.00349999717,
      "d": 86.95650000000023,
      "v": 110
    },
    {
      "midi": 41,
      "hit": false,
      "t": 159913.00349999717,
      "d": 260.8694999999716,
      "v": 100
    },
    {
      "midi": 53,
      "hit": false,
      "t": 160043.43824999715,
      "d": 86.95650000000023,
      "v": 110
    },
    {
      "midi": 57,
      "hit": false,
      "t": 160043.43824999715,
      "d": 217.39124999998603,
      "v": 100
    },
    {
      "midi": 60,
      "hit": false,
      "t": 160043.43824999715,
      "d": 217.39124999998603,
      "v": 100
    },
    {
      "midi": 53,
      "hit": false,
      "t": 160173.87299999714,
      "d": 86.95650000000023,
      "v": 110
    },
    {
      "midi": 53,
      "hit": false,
      "t": 160304.30774999713,
      "d": 86.95650000000023,
      "v": 110
    },
    {
      "midi": 41,
      "hit": false,
      "t": 160304.30774999713,
      "d": 260.8694999999716,
      "v": 100
    },
    {
      "midi": 53,
      "hit": false,
      "t": 160434.7424999971,
      "d": 86.95650000000023,
      "v": 110
    },
    {
      "midi": 57,
      "hit": false,
      "t": 160434.7424999971,
      "d": 217.39124999998603,
      "v": 94
    },
    {
      "midi": 60,
      "hit": false,
      "t": 160434.7424999971,
      "d": 217.39124999998603,
      "v": 94
    },
    {
      "midi": 53,
      "hit": false,
      "t": 160565.1772499971,
      "d": 86.95650000000023,
      "v": 110
    },
    {
      "midi": 60,
      "hit": false,
      "t": 160695.61199999708,
      "d": 86.95650000000023,
      "v": 110
    },
    {
      "midi": 36,
      "hit": false,
      "t": 160695.61199999708,
      "d": 347.8259999999718,
      "v": 100
    },
    {
      "midi": 60,
      "hit": false,
      "t": 160826.04674999707,
      "d": 86.95650000000023,
      "v": 110
    },
    {
      "midi": 60,
      "hit": false,
      "t": 160956.48149999705,
      "d": 86.95650000000023,
      "v": 110
    },
    {
      "midi": 55,
      "hit": false,
      "t": 160956.48149999705,
      "d": 217.39124999998603,
      "v": 99
    },
    {
      "midi": 64,
      "hit": false,
      "t": 160956.48149999705,
      "d": 217.39124999998603,
      "v": 99
    },
    {
      "midi": 60,
      "hit": false,
      "t": 161086.91624999704,
      "d": 86.95650000000023,
      "v": 110
    },
    {
      "midi": 60,
      "hit": false,
      "t": 161217.35099999703,
      "d": 86.95650000000023,
      "v": 110
    },
    {
      "midi": 36,
      "hit": false,
      "t": 161217.35099999703,
      "d": 260.8694999999716,
      "v": 100
    },
    {
      "midi": 60,
      "hit": false,
      "t": 161347.785749997,
      "d": 86.95650000000023,
      "v": 110
    },
    {
      "midi": 55,
      "hit": false,
      "t": 161347.785749997,
      "d": 217.39124999998603,
      "v": 94
    },
    {
      "midi": 64,
      "hit": false,
      "t": 161347.785749997,
      "d": 217.39124999998603,
      "v": 94
    },
    {
      "midi": 60,
      "hit": false,
      "t": 161478.220499997,
      "d": 86.95650000000023,
      "v": 110
    },
    {
      "midi": 60,
      "hit": false,
      "t": 161608.65524999698,
      "d": 86.95650000000023,
      "v": 110
    },
    {
      "midi": 36,
      "hit": false,
      "t": 161608.65524999698,
      "d": 260.8694999999716,
      "v": 100
    },
    {
      "midi": 60,
      "hit": false,
      "t": 161739.08999999697,
      "d": 86.95650000000023,
      "v": 110
    },
    {
      "midi": 55,
      "hit": false,
      "t": 161739.08999999697,
      "d": 217.39124999998603,
      "v": 97
    },
    {
      "midi": 64,
      "hit": false,
      "t": 161739.08999999697,
      "d": 217.39124999998603,
      "v": 97
    },
    {
      "midi": 60,
      "hit": false,
      "t": 161869.52474999696,
      "d": 86.95650000000023,
      "v": 110
    },
    {
      "midi": 60,
      "hit": false,
      "t": 161999.95949999694,
      "d": 86.95650000000023,
      "v": 110
    },
    {
      "midi": 36,
      "hit": false,
      "t": 161999.95949999694,
      "d": 260.8694999999716,
      "v": 100
    },
    {
      "midi": 60,
      "hit": false,
      "t": 162130.39424999693,
      "d": 86.95650000000023,
      "v": 110
    },
    {
      "midi": 55,
      "hit": false,
      "t": 162130.39424999693,
      "d": 217.39124999998603,
      "v": 100
    },
    {
      "midi": 64,
      "hit": false,
      "t": 162130.39424999693,
      "d": 217.39124999998603,
      "v": 100
    },
    {
      "midi": 60,
      "hit": false,
      "t": 162260.8289999969,
      "d": 86.95650000000023,
      "v": 110
    },
    {
      "midi": 60,
      "hit": false,
      "t": 162391.2637499969,
      "d": 86.95650000000023,
      "v": 110
    },
    {
      "midi": 36,
      "hit": false,
      "t": 162391.2637499969,
      "d": 260.8694999999716,
      "v": 100
    },
    {
      "midi": 60,
      "hit": false,
      "t": 162521.69849999688,
      "d": 86.95650000000023,
      "v": 110
    },
    {
      "midi": 55,
      "hit": false,
      "t": 162521.69849999688,
      "d": 217.39124999998603,
      "v": 94
    },
    {
      "midi": 64,
      "hit": false,
      "t": 162521.69849999688,
      "d": 217.39124999998603,
      "v": 94
    },
    {
      "midi": 60,
      "hit": false,
      "t": 162652.13324999687,
      "d": 86.95650000000023,
      "v": 110
    },
    {
      "midi": 62,
      "hit": false,
      "t": 162782.56799999686,
      "d": 86.95650000000023,
      "v": 110
    },
    {
      "midi": 38,
      "hit": false,
      "t": 162782.56799999686,
      "d": 347.8259999999718,
      "v": 100
    },
    {
      "midi": 62,
      "hit": false,
      "t": 162913.00274999684,
      "d": 86.95650000000023,
      "v": 110
    },
    {
      "midi": 62,
      "hit": false,
      "t": 163043.43749999683,
      "d": 86.95650000000023,
      "v": 110
    },
    {
      "midi": 50,
      "hit": false,
      "t": 163043.43749999683,
      "d": 217.39124999998603,
      "v": 99
    },
    {
      "midi": 53,
      "hit": false,
      "t": 163043.43749999683,
      "d": 217.39124999998603,
      "v": 99
    },
    {
      "midi": 57,
      "hit": false,
      "t": 163043.43749999683,
      "d": 217.39124999998603,
      "v": 99
    },
    {
      "midi": 60,
      "hit": false,
      "t": 163043.43749999683,
      "d": 217.39124999998603,
      "v": 99
    },
    {
      "midi": 62,
      "hit": false,
      "t": 163173.8722499968,
      "d": 86.95650000000023,
      "v": 110
    },
    {
      "midi": 62,
      "hit": false,
      "t": 163304.3069999968,
      "d": 86.95650000000023,
      "v": 110
    },
    {
      "midi": 38,
      "hit": false,
      "t": 163304.3069999968,
      "d": 260.8694999999716,
      "v": 100
    },
    {
      "midi": 62,
      "hit": false,
      "t": 163434.74174999679,
      "d": 86.95650000000023,
      "v": 110
    },
    {
      "midi": 50,
      "hit": false,
      "t": 163434.74174999679,
      "d": 217.39124999998603,
      "v": 94
    },
    {
      "midi": 53,
      "hit": false,
      "t": 163434.74174999679,
      "d": 217.39124999998603,
      "v": 94
    },
    {
      "midi": 57,
      "hit": false,
      "t": 163434.74174999679,
      "d": 217.39124999998603,
      "v": 94
    },
    {
      "midi": 60,
      "hit": false,
      "t": 163434.74174999679,
      "d": 217.39124999998603,
      "v": 94
    },
    {
      "midi": 62,
      "hit": false,
      "t": 163565.17649999677,
      "d": 86.95650000000023,
      "v": 110
    },
    {
      "midi": 62,
      "hit": false,
      "t": 163695.61124999676,
      "d": 86.95650000000023,
      "v": 110
    },
    {
      "midi": 38,
      "hit": false,
      "t": 163695.61124999676,
      "d": 260.8694999999716,
      "v": 100
    },
    {
      "midi": 62,
      "hit": false,
      "t": 163826.04599999674,
      "d": 86.95650000000023,
      "v": 110
    },
    {
      "midi": 50,
      "hit": false,
      "t": 163826.04599999674,
      "d": 217.39124999998603,
      "v": 97
    },
    {
      "midi": 53,
      "hit": false,
      "t": 163826.04599999674,
      "d": 217.39124999998603,
      "v": 97
    },
    {
      "midi": 57,
      "hit": false,
      "t": 163826.04599999674,
      "d": 217.39124999998603,
      "v": 97
    },
    {
      "midi": 60,
      "hit": false,
      "t": 163826.04599999674,
      "d": 217.39124999998603,
      "v": 97
    },
    {
      "midi": 62,
      "hit": false,
      "t": 163956.48074999673,
      "d": 86.95650000000023,
      "v": 110
    },
    {
      "midi": 62,
      "hit": false,
      "t": 164086.9154999967,
      "d": 86.95650000000023,
      "v": 110
    },
    {
      "midi": 38,
      "hit": false,
      "t": 164086.9154999967,
      "d": 260.8694999999716,
      "v": 100
    },
    {
      "midi": 62,
      "hit": false,
      "t": 164217.3502499967,
      "d": 86.95650000000023,
      "v": 110
    },
    {
      "midi": 50,
      "hit": false,
      "t": 164217.3502499967,
      "d": 217.39124999998603,
      "v": 100
    },
    {
      "midi": 53,
      "hit": false,
      "t": 164217.3502499967,
      "d": 217.39124999998603,
      "v": 100
    },
    {
      "midi": 57,
      "hit": false,
      "t": 164217.3502499967,
      "d": 217.39124999998603,
      "v": 100
    },
    {
      "midi": 60,
      "hit": false,
      "t": 164217.3502499967,
      "d": 217.39124999998603,
      "v": 100
    },
    {
      "midi": 62,
      "hit": false,
      "t": 164347.7849999967,
      "d": 86.95650000000023,
      "v": 110
    },
    {
      "midi": 62,
      "hit": false,
      "t": 164478.21974999667,
      "d": 86.95650000000023,
      "v": 110
    },
    {
      "midi": 38,
      "hit": false,
      "t": 164478.21974999667,
      "d": 260.8694999999716,
      "v": 100
    },
    {
      "midi": 62,
      "hit": false,
      "t": 164608.65449999666,
      "d": 86.95650000000023,
      "v": 110
    },
    {
      "midi": 50,
      "hit": false,
      "t": 164608.65449999666,
      "d": 217.39124999998603,
      "v": 94
    },
    {
      "midi": 53,
      "hit": false,
      "t": 164608.65449999666,
      "d": 217.39124999998603,
      "v": 94
    },
    {
      "midi": 57,
      "hit": false,
      "t": 164608.65449999666,
      "d": 217.39124999998603,
      "v": 94
    },
    {
      "midi": 60,
      "hit": false,
      "t": 164608.65449999666,
      "d": 217.39124999998603,
      "v": 94
    },
    {
      "midi": 62,
      "hit": false,
      "t": 164739.08924999664,
      "d": 86.95650000000023,
      "v": 110
    },
    {
      "midi": 55,
      "hit": false,
      "t": 164869.52399999663,
      "d": 86.95650000000023,
      "v": 110
    },
    {
      "midi": 43,
      "hit": false,
      "t": 164869.52399999663,
      "d": 347.8259999999718,
      "v": 100
    },
    {
      "midi": 55,
      "hit": false,
      "t": 164999.95874999661,
      "d": 86.95650000000023,
      "v": 110
    },
    {
      "midi": 55,
      "hit": false,
      "t": 165130.3934999966,
      "d": 86.95650000000023,
      "v": 110
    },
    {
      "midi": 59,
      "hit": false,
      "t": 165130.3934999966,
      "d": 217.39124999998603,
      "v": 99
    },
    {
      "midi": 62,
      "hit": false,
      "t": 165130.3934999966,
      "d": 217.39124999998603,
      "v": 99
    },
    {
      "midi": 55,
      "hit": false,
      "t": 165260.8282499966,
      "d": 86.95650000000023,
      "v": 110
    },
    {
      "midi": 55,
      "hit": false,
      "t": 165391.26299999657,
      "d": 86.95650000000023,
      "v": 110
    },
    {
      "midi": 43,
      "hit": false,
      "t": 165391.26299999657,
      "d": 260.8694999999716,
      "v": 100
    },
    {
      "midi": 55,
      "hit": false,
      "t": 165521.69774999656,
      "d": 86.95650000000023,
      "v": 110
    },
    {
      "midi": 59,
      "hit": false,
      "t": 165521.69774999656,
      "d": 217.39124999998603,
      "v": 94
    },
    {
      "midi": 62,
      "hit": false,
      "t": 165521.69774999656,
      "d": 217.39124999998603,
      "v": 94
    },
    {
      "midi": 55,
      "hit": false,
      "t": 165652.13249999654,
      "d": 86.95650000000023,
      "v": 110
    },
    {
      "midi": 55,
      "hit": false,
      "t": 165782.56724999653,
      "d": 86.95650000000023,
      "v": 110
    },
    {
      "midi": 43,
      "hit": false,
      "t": 165782.56724999653,
      "d": 260.8694999999716,
      "v": 100
    },
    {
      "midi": 55,
      "hit": false,
      "t": 165913.00199999652,
      "d": 86.95650000000023,
      "v": 110
    },
    {
      "midi": 59,
      "hit": false,
      "t": 165913.00199999652,
      "d": 217.39124999998603,
      "v": 97
    },
    {
      "midi": 62,
      "hit": false,
      "t": 165913.00199999652,
      "d": 217.39124999998603,
      "v": 97
    },
    {
      "midi": 55,
      "hit": false,
      "t": 166043.4367499965,
      "d": 86.95650000000023,
      "v": 110
    },
    {
      "midi": 55,
      "hit": false,
      "t": 166173.8714999965,
      "d": 86.95650000000023,
      "v": 110
    },
    {
      "midi": 43,
      "hit": false,
      "t": 166173.8714999965,
      "d": 260.8694999999716,
      "v": 100
    },
    {
      "midi": 55,
      "hit": false,
      "t": 166304.30624999647,
      "d": 86.95650000000023,
      "v": 110
    },
    {
      "midi": 59,
      "hit": false,
      "t": 166304.30624999647,
      "d": 217.39124999998603,
      "v": 100
    },
    {
      "midi": 62,
      "hit": false,
      "t": 166304.30624999647,
      "d": 217.39124999998603,
      "v": 100
    },
    {
      "midi": 55,
      "hit": false,
      "t": 166434.74099999646,
      "d": 86.95650000000023,
      "v": 110
    },
    {
      "midi": 55,
      "hit": false,
      "t": 166565.17574999644,
      "d": 86.95650000000023,
      "v": 110
    },
    {
      "midi": 43,
      "hit": false,
      "t": 166565.17574999644,
      "d": 260.8694999999716,
      "v": 100
    },
    {
      "midi": 55,
      "hit": false,
      "t": 166695.61049999643,
      "d": 86.95650000000023,
      "v": 110
    },
    {
      "midi": 59,
      "hit": false,
      "t": 166695.61049999643,
      "d": 217.39124999998603,
      "v": 94
    },
    {
      "midi": 62,
      "hit": false,
      "t": 166695.61049999643,
      "d": 217.39124999998603,
      "v": 94
    },
    {
      "midi": 55,
      "hit": false,
      "t": 166826.04524999642,
      "d": 86.95650000000023,
      "v": 110
    },
    {
      "midi": 52,
      "hit": false,
      "t": 166956.4799999964,
      "d": 86.95650000000023,
      "v": 110
    },
    {
      "midi": 40,
      "hit": false,
      "t": 166956.4799999964,
      "d": 347.8259999999718,
      "v": 100
    },
    {
      "midi": 52,
      "hit": false,
      "t": 167086.9147499964,
      "d": 86.95650000000023,
      "v": 110
    },
    {
      "midi": 52,
      "hit": false,
      "t": 167217.34949999637,
      "d": 86.95650000000023,
      "v": 110
    },
    {
      "midi": 52,
      "hit": false,
      "t": 167347.78424999636,
      "d": 86.95650000000023,
      "v": 110
    },
    {
      "midi": 52,
      "hit": false,
      "t": 167478.21899999634,
      "d": 86.95650000000023,
      "v": 110
    },
    {
      "midi": 40,
      "hit": false,
      "t": 167478.21899999634,
      "d": 260.8694999999716,
      "v": 100
    },
    {
      "midi": 52,
      "hit": false,
      "t": 167608.65374999633,
      "d": 86.95650000000023,
      "v": 110
    },
    {
      "midi": 52,
      "hit": false,
      "t": 167739.08849999632,
      "d": 86.95650000000023,
      "v": 110
    },
    {
      "midi": 52,
      "hit": false,
      "t": 167869.5232499963,
      "d": 86.95650000000023,
      "v": 110
    },
    {
      "midi": 40,
      "hit": false,
      "t": 167869.5232499963,
      "d": 260.8694999999716,
      "v": 100
    },
    {
      "midi": 52,
      "hit": false,
      "t": 167999.9579999963,
      "d": 86.95650000000023,
      "v": 110
    },
    {
      "midi": 52,
      "hit": false,
      "t": 168130.39274999627,
      "d": 86.95650000000023,
      "v": 110
    },
    {
      "midi": 52,
      "hit": false,
      "t": 168260.82749999626,
      "d": 86.95650000000023,
      "v": 110
    },
    {
      "midi": 40,
      "hit": false,
      "t": 168260.82749999626,
      "d": 260.8694999999716,
      "v": 100
    },
    {
      "midi": 52,
      "hit": false,
      "t": 168391.26224999625,
      "d": 86.95650000000023,
      "v": 110
    },
    {
      "midi": 52,
      "hit": false,
      "t": 168521.69699999623,
      "d": 86.95650000000023,
      "v": 110
    },
    {
      "midi": 52,
      "hit": false,
      "t": 168652.13174999622,
      "d": 86.95650000000023,
      "v": 110
    },
    {
      "midi": 40,
      "hit": false,
      "t": 168652.13174999622,
      "d": 260.8694999999716,
      "v": 100
    },
    {
      "midi": 52,
      "hit": false,
      "t": 168782.5664999962,
      "d": 86.95650000000023,
      "v": 110
    },
    {
      "midi": 52,
      "hit": false,
      "t": 168913.0012499962,
      "d": 86.95650000000023,
      "v": 110
    },
    {
      "midi": 57,
      "hit": false,
      "t": 169043.43599999617,
      "d": 86.95650000000023,
      "v": 110
    },
    {
      "midi": 45,
      "hit": false,
      "t": 169043.43599999617,
      "d": 347.8259999999718,
      "v": 100
    },
    {
      "midi": 57,
      "hit": false,
      "t": 169173.87074999616,
      "d": 86.95650000000023,
      "v": 110
    },
    {
      "midi": 57,
      "hit": false,
      "t": 169304.30549999615,
      "d": 86.95650000000023,
      "v": 110
    },
    {
      "midi": 57,
      "hit": false,
      "t": 169434.74024999613,
      "d": 86.95650000000023,
      "v": 110
    },
    {
      "midi": 57,
      "hit": false,
      "t": 169565.17499999612,
      "d": 86.95650000000023,
      "v": 110
    },
    {
      "midi": 45,
      "hit": false,
      "t": 169565.17499999612,
      "d": 260.8694999999716,
      "v": 100
    },
    {
      "midi": 57,
      "hit": false,
      "t": 169695.6097499961,
      "d": 86.95650000000023,
      "v": 110
    },
    {
      "midi": 57,
      "hit": false,
      "t": 169826.0444999961,
      "d": 86.95650000000023,
      "v": 110
    },
    {
      "midi": 57,
      "hit": false,
      "t": 169956.47924999607,
      "d": 86.95650000000023,
      "v": 110
    },
    {
      "midi": 45,
      "hit": false,
      "t": 169956.47924999607,
      "d": 260.8694999999716,
      "v": 100
    },
    {
      "midi": 57,
      "hit": false,
      "t": 170086.91399999606,
      "d": 86.95650000000023,
      "v": 110
    },
    {
      "midi": 57,
      "hit": false,
      "t": 170217.34874999605,
      "d": 86.95650000000023,
      "v": 110
    },
    {
      "midi": 57,
      "hit": false,
      "t": 170347.78349999603,
      "d": 86.95650000000023,
      "v": 110
    },
    {
      "midi": 45,
      "hit": false,
      "t": 170347.78349999603,
      "d": 260.8694999999716,
      "v": 100
    },
    {
      "midi": 57,
      "hit": false,
      "t": 170478.21824999602,
      "d": 86.95650000000023,
      "v": 110
    },
    {
      "midi": 57,
      "hit": false,
      "t": 170608.652999996,
      "d": 86.95650000000023,
      "v": 110
    },
    {
      "midi": 57,
      "hit": false,
      "t": 170739.087749996,
      "d": 86.95650000000023,
      "v": 110
    },
    {
      "midi": 45,
      "hit": false,
      "t": 170739.087749996,
      "d": 260.8694999999716,
      "v": 100
    },
    {
      "midi": 57,
      "hit": false,
      "t": 170869.52249999598,
      "d": 86.95650000000023,
      "v": 110
    },
    {
      "midi": 57,
      "hit": false,
      "t": 170999.95724999596,
      "d": 86.95650000000023,
      "v": 110
    },
    {
      "midi": 53,
      "hit": false,
      "t": 171130.39199999595,
      "d": 86.95650000000023,
      "v": 110
    },
    {
      "midi": 41,
      "hit": false,
      "t": 171130.39199999595,
      "d": 347.8259999999718,
      "v": 100
    },
    {
      "midi": 53,
      "hit": false,
      "t": 171260.82674999593,
      "d": 86.95650000000023,
      "v": 110
    },
    {
      "midi": 53,
      "hit": false,
      "t": 171391.26149999592,
      "d": 86.95650000000023,
      "v": 110
    },
    {
      "midi": 53,
      "hit": false,
      "t": 171521.6962499959,
      "d": 86.95650000000023,
      "v": 110
    },
    {
      "midi": 53,
      "hit": false,
      "t": 171652.1309999959,
      "d": 86.95650000000023,
      "v": 110
    },
    {
      "midi": 41,
      "hit": false,
      "t": 171652.1309999959,
      "d": 260.8694999999716,
      "v": 100
    },
    {
      "midi": 53,
      "hit": false,
      "t": 171782.56574999588,
      "d": 86.95650000000023,
      "v": 110
    },
    {
      "midi": 53,
      "hit": false,
      "t": 171913.00049999586,
      "d": 86.95650000000023,
      "v": 110
    },
    {
      "midi": 53,
      "hit": false,
      "t": 172043.43524999585,
      "d": 86.95650000000023,
      "v": 110
    },
    {
      "midi": 41,
      "hit": false,
      "t": 172043.43524999585,
      "d": 260.8694999999716,
      "v": 100
    },
    {
      "midi": 53,
      "hit": false,
      "t": 172173.86999999583,
      "d": 86.95650000000023,
      "v": 110
    },
    {
      "midi": 53,
      "hit": false,
      "t": 172304.30474999582,
      "d": 86.95650000000023,
      "v": 110
    },
    {
      "midi": 53,
      "hit": false,
      "t": 172434.7394999958,
      "d": 86.95650000000023,
      "v": 110
    },
    {
      "midi": 41,
      "hit": false,
      "t": 172434.7394999958,
      "d": 260.8694999999716,
      "v": 100
    },
    {
      "midi": 53,
      "hit": false,
      "t": 172565.1742499958,
      "d": 86.95650000000023,
      "v": 110
    },
    {
      "midi": 53,
      "hit": false,
      "t": 172695.60899999578,
      "d": 86.95650000000023,
      "v": 110
    },
    {
      "midi": 53,
      "hit": false,
      "t": 172826.04374999576,
      "d": 86.95650000000023,
      "v": 110
    },
    {
      "midi": 41,
      "hit": false,
      "t": 172826.04374999576,
      "d": 260.8694999999716,
      "v": 100
    },
    {
      "midi": 53,
      "hit": false,
      "t": 172956.47849999575,
      "d": 86.95650000000023,
      "v": 110
    },
    {
      "midi": 53,
      "hit": false,
      "t": 173086.91324999573,
      "d": 86.95650000000023,
      "v": 110
    },
    {
      "midi": 60,
      "hit": false,
      "t": 173217.34799999572,
      "d": 86.95650000000023,
      "v": 110
    },
    {
      "midi": 36,
      "hit": false,
      "t": 173217.34799999572,
      "d": 347.8259999999718,
      "v": 100
    },
    {
      "midi": 60,
      "hit": false,
      "t": 173347.7827499957,
      "d": 86.95650000000023,
      "v": 110
    },
    {
      "midi": 60,
      "hit": false,
      "t": 173478.2174999957,
      "d": 86.95650000000023,
      "v": 110
    },
    {
      "midi": 60,
      "hit": false,
      "t": 173608.65224999568,
      "d": 86.95650000000023,
      "v": 110
    },
    {
      "midi": 60,
      "hit": false,
      "t": 173739.08699999566,
      "d": 86.95650000000023,
      "v": 110
    },
    {
      "midi": 36,
      "hit": false,
      "t": 173739.08699999566,
      "d": 260.8694999999716,
      "v": 100
    },
    {
      "midi": 60,
      "hit": false,
      "t": 173869.52174999565,
      "d": 86.95650000000023,
      "v": 110
    },
    {
      "midi": 60,
      "hit": false,
      "t": 173999.95649999563,
      "d": 86.95650000000023,
      "v": 110
    },
    {
      "midi": 60,
      "hit": false,
      "t": 174130.39124999562,
      "d": 86.95650000000023,
      "v": 110
    },
    {
      "midi": 36,
      "hit": false,
      "t": 174130.39124999562,
      "d": 260.8694999999716,
      "v": 100
    },
    {
      "midi": 60,
      "hit": false,
      "t": 174260.8259999956,
      "d": 86.95650000000023,
      "v": 110
    },
    {
      "midi": 60,
      "hit": false,
      "t": 174391.2607499956,
      "d": 86.95650000000023,
      "v": 110
    },
    {
      "midi": 60,
      "hit": false,
      "t": 174521.69549999558,
      "d": 86.95650000000023,
      "v": 110
    },
    {
      "midi": 36,
      "hit": false,
      "t": 174521.69549999558,
      "d": 260.8694999999716,
      "v": 100
    },
    {
      "midi": 60,
      "hit": false,
      "t": 174652.13024999556,
      "d": 86.95650000000023,
      "v": 110
    },
    {
      "midi": 60,
      "hit": false,
      "t": 174782.56499999555,
      "d": 86.95650000000023,
      "v": 110
    },
    {
      "midi": 60,
      "hit": false,
      "t": 174912.99974999554,
      "d": 86.95650000000023,
      "v": 110
    },
    {
      "midi": 36,
      "hit": false,
      "t": 174912.99974999554,
      "d": 260.8694999999716,
      "v": 100
    },
    {
      "midi": 60,
      "hit": false,
      "t": 175043.43449999552,
      "d": 86.95650000000023,
      "v": 110
    },
    {
      "midi": 60,
      "hit": false,
      "t": 175173.8692499955,
      "d": 86.95650000000023,
      "v": 110
    },
    {
      "midi": 52,
      "hit": false,
      "t": 175304.3039999955,
      "d": 86.95650000000023,
      "v": 110
    },
    {
      "midi": 40,
      "hit": false,
      "t": 175304.3039999955,
      "d": 347.8259999999718,
      "v": 100
    },
    {
      "midi": 52,
      "hit": false,
      "t": 175434.73874999548,
      "d": 86.95650000000023,
      "v": 110
    },
    {
      "midi": 52,
      "hit": false,
      "t": 175565.17349999546,
      "d": 86.95650000000023,
      "v": 110
    },
    {
      "midi": 52,
      "hit": false,
      "t": 175695.60824999545,
      "d": 86.95650000000023,
      "v": 110
    },
    {
      "midi": 52,
      "hit": false,
      "t": 175826.04299999544,
      "d": 86.95650000000023,
      "v": 110
    },
    {
      "midi": 40,
      "hit": false,
      "t": 175826.04299999544,
      "d": 260.8694999999716,
      "v": 100
    },
    {
      "midi": 52,
      "hit": false,
      "t": 175956.47774999542,
      "d": 86.95650000000023,
      "v": 110
    },
    {
      "midi": 52,
      "hit": false,
      "t": 176086.9124999954,
      "d": 86.95650000000023,
      "v": 110
    },
    {
      "midi": 52,
      "hit": false,
      "t": 176217.3472499954,
      "d": 86.95650000000023,
      "v": 110
    },
    {
      "midi": 40,
      "hit": false,
      "t": 176217.3472499954,
      "d": 260.8694999999716,
      "v": 100
    },
    {
      "midi": 52,
      "hit": false,
      "t": 176347.78199999538,
      "d": 86.95650000000023,
      "v": 110
    },
    {
      "midi": 52,
      "hit": false,
      "t": 176478.21674999536,
      "d": 86.95650000000023,
      "v": 110
    },
    {
      "midi": 52,
      "hit": false,
      "t": 176608.65149999535,
      "d": 86.95650000000023,
      "v": 110
    },
    {
      "midi": 40,
      "hit": false,
      "t": 176608.65149999535,
      "d": 260.8694999999716,
      "v": 100
    },
    {
      "midi": 52,
      "hit": false,
      "t": 176739.08624999534,
      "d": 86.95650000000023,
      "v": 110
    },
    {
      "midi": 52,
      "hit": false,
      "t": 176869.52099999532,
      "d": 86.95650000000023,
      "v": 110
    },
    {
      "midi": 52,
      "hit": false,
      "t": 176999.9557499953,
      "d": 86.95650000000023,
      "v": 110
    },
    {
      "midi": 40,
      "hit": false,
      "t": 176999.9557499953,
      "d": 260.8694999999716,
      "v": 100
    },
    {
      "midi": 52,
      "hit": false,
      "t": 177130.3904999953,
      "d": 86.95650000000023,
      "v": 110
    },
    {
      "midi": 52,
      "hit": false,
      "t": 177260.82524999528,
      "d": 86.95650000000023,
      "v": 110
    },
    {
      "midi": 57,
      "hit": false,
      "t": 177391.25999999527,
      "d": 86.95650000000023,
      "v": 110
    },
    {
      "midi": 45,
      "hit": false,
      "t": 177391.25999999527,
      "d": 347.8259999999718,
      "v": 100
    },
    {
      "midi": 57,
      "hit": false,
      "t": 177521.69474999525,
      "d": 86.95650000000023,
      "v": 110
    },
    {
      "midi": 57,
      "hit": false,
      "t": 177652.12949999524,
      "d": 86.95650000000023,
      "v": 110
    },
    {
      "midi": 57,
      "hit": false,
      "t": 177782.56424999522,
      "d": 86.95650000000023,
      "v": 110
    },
    {
      "midi": 57,
      "hit": false,
      "t": 177912.9989999952,
      "d": 86.95650000000023,
      "v": 110
    },
    {
      "midi": 45,
      "hit": false,
      "t": 177912.9989999952,
      "d": 260.8694999999716,
      "v": 100
    },
    {
      "midi": 57,
      "hit": false,
      "t": 178043.4337499952,
      "d": 86.95650000000023,
      "v": 110
    },
    {
      "midi": 57,
      "hit": false,
      "t": 178173.86849999518,
      "d": 86.95650000000023,
      "v": 110
    },
    {
      "midi": 57,
      "hit": false,
      "t": 178304.30324999517,
      "d": 86.95650000000023,
      "v": 110
    },
    {
      "midi": 45,
      "hit": false,
      "t": 178304.30324999517,
      "d": 260.8694999999716,
      "v": 100
    },
    {
      "midi": 57,
      "hit": false,
      "t": 178434.73799999515,
      "d": 86.95650000000023,
      "v": 110
    },
    {
      "midi": 57,
      "hit": false,
      "t": 178565.17274999514,
      "d": 86.95650000000023,
      "v": 110
    },
    {
      "midi": 57,
      "hit": false,
      "t": 178695.60749999512,
      "d": 86.95650000000023,
      "v": 110
    },
    {
      "midi": 45,
      "hit": false,
      "t": 178695.60749999512,
      "d": 260.8694999999716,
      "v": 100
    },
    {
      "midi": 57,
      "hit": false,
      "t": 178826.0422499951,
      "d": 86.95650000000023,
      "v": 110
    },
    {
      "midi": 57,
      "hit": false,
      "t": 178956.4769999951,
      "d": 86.95650000000023,
      "v": 110
    },
    {
      "midi": 57,
      "hit": false,
      "t": 179086.91174999508,
      "d": 86.95650000000023,
      "v": 110
    },
    {
      "midi": 45,
      "hit": false,
      "t": 179086.91174999508,
      "d": 260.8694999999716,
      "v": 100
    },
    {
      "midi": 57,
      "hit": false,
      "t": 179217.34649999507,
      "d": 86.95650000000023,
      "v": 110
    },
    {
      "midi": 57,
      "hit": false,
      "t": 179347.78124999505,
      "d": 86.95650000000023,
      "v": 110
    },
    {
      "midi": 53,
      "hit": false,
      "t": 179478.21599999504,
      "d": 86.95650000000023,
      "v": 110
    },
    {
      "midi": 41,
      "hit": false,
      "t": 179478.21599999504,
      "d": 347.8259999999718,
      "v": 100
    },
    {
      "midi": 53,
      "hit": false,
      "t": 179608.65074999502,
      "d": 86.95650000000023,
      "v": 110
    },
    {
      "midi": 53,
      "hit": false,
      "t": 179739.085499995,
      "d": 86.95650000000023,
      "v": 110
    },
    {
      "midi": 53,
      "hit": false,
      "t": 179869.520249995,
      "d": 86.95650000000023,
      "v": 110
    },
    {
      "midi": 53,
      "hit": false,
      "t": 179999.95499999498,
      "d": 86.95650000000023,
      "v": 110
    },
    {
      "midi": 41,
      "hit": false,
      "t": 179999.95499999498,
      "d": 260.8694999999716,
      "v": 100
    },
    {
      "midi": 53,
      "hit": false,
      "t": 180130.38974999497,
      "d": 86.95650000000023,
      "v": 110
    },
    {
      "midi": 53,
      "hit": false,
      "t": 180260.82449999495,
      "d": 86.95650000000023,
      "v": 110
    },
    {
      "midi": 53,
      "hit": false,
      "t": 180391.25924999494,
      "d": 86.95650000000023,
      "v": 110
    },
    {
      "midi": 41,
      "hit": false,
      "t": 180391.25924999494,
      "d": 260.8694999999716,
      "v": 100
    },
    {
      "midi": 53,
      "hit": false,
      "t": 180521.69399999492,
      "d": 86.95650000000023,
      "v": 110
    },
    {
      "midi": 53,
      "hit": false,
      "t": 180652.1287499949,
      "d": 86.95650000000023,
      "v": 110
    },
    {
      "midi": 53,
      "hit": false,
      "t": 180782.5634999949,
      "d": 86.95650000000023,
      "v": 110
    },
    {
      "midi": 41,
      "hit": false,
      "t": 180782.5634999949,
      "d": 260.8694999999716,
      "v": 100
    },
    {
      "midi": 53,
      "hit": false,
      "t": 180912.99824999488,
      "d": 86.95650000000023,
      "v": 110
    },
    {
      "midi": 53,
      "hit": false,
      "t": 181043.43299999487,
      "d": 86.95650000000023,
      "v": 110
    },
    {
      "midi": 53,
      "hit": false,
      "t": 181173.86774999485,
      "d": 86.95650000000023,
      "v": 110
    },
    {
      "midi": 41,
      "hit": false,
      "t": 181173.86774999485,
      "d": 260.8694999999716,
      "v": 100
    },
    {
      "midi": 53,
      "hit": false,
      "t": 181304.30249999484,
      "d": 86.95650000000023,
      "v": 110
    },
    {
      "midi": 53,
      "hit": false,
      "t": 181434.73724999483,
      "d": 86.95650000000023,
      "v": 110
    },
    {
      "midi": 55,
      "hit": false,
      "t": 181565.1719999948,
      "d": 86.95650000000023,
      "v": 110
    },
    {
      "midi": 43,
      "hit": false,
      "t": 181565.1719999948,
      "d": 347.8259999999718,
      "v": 100
    },
    {
      "midi": 55,
      "hit": false,
      "t": 181695.6067499948,
      "d": 86.95650000000023,
      "v": 110
    },
    {
      "midi": 55,
      "hit": false,
      "t": 181826.04149999478,
      "d": 86.95650000000023,
      "v": 110
    },
    {
      "midi": 55,
      "hit": false,
      "t": 181956.47624999477,
      "d": 86.95650000000023,
      "v": 110
    },
    {
      "midi": 55,
      "hit": false,
      "t": 182086.91099999475,
      "d": 86.95650000000023,
      "v": 110
    },
    {
      "midi": 43,
      "hit": false,
      "t": 182086.91099999475,
      "d": 260.8694999999716,
      "v": 100
    },
    {
      "midi": 55,
      "hit": false,
      "t": 182217.34574999474,
      "d": 86.95650000000023,
      "v": 110
    },
    {
      "midi": 55,
      "hit": false,
      "t": 182347.78049999473,
      "d": 86.95650000000023,
      "v": 110
    },
    {
      "midi": 55,
      "hit": false,
      "t": 182478.2152499947,
      "d": 86.95650000000023,
      "v": 110
    },
    {
      "midi": 43,
      "hit": false,
      "t": 182478.2152499947,
      "d": 260.8694999999716,
      "v": 100
    },
    {
      "midi": 55,
      "hit": false,
      "t": 182608.6499999947,
      "d": 86.95650000000023,
      "v": 110
    },
    {
      "midi": 55,
      "hit": false,
      "t": 182739.08474999468,
      "d": 86.95650000000023,
      "v": 110
    },
    {
      "midi": 55,
      "hit": false,
      "t": 182869.51949999467,
      "d": 86.95650000000023,
      "v": 110
    },
    {
      "midi": 43,
      "hit": false,
      "t": 182869.51949999467,
      "d": 260.8694999999716,
      "v": 100
    },
    {
      "midi": 55,
      "hit": false,
      "t": 182999.95424999465,
      "d": 86.95650000000023,
      "v": 110
    },
    {
      "midi": 55,
      "hit": false,
      "t": 183130.38899999464,
      "d": 86.95650000000023,
      "v": 110
    },
    {
      "midi": 55,
      "hit": false,
      "t": 183260.82374999463,
      "d": 86.95650000000023,
      "v": 110
    },
    {
      "midi": 43,
      "hit": false,
      "t": 183260.82374999463,
      "d": 260.8694999999716,
      "v": 100
    },
    {
      "midi": 55,
      "hit": false,
      "t": 183391.2584999946,
      "d": 86.95650000000023,
      "v": 110
    },
    {
      "midi": 55,
      "hit": false,
      "t": 183521.6932499946,
      "d": 86.95650000000023,
      "v": 110
    },
    {
      "midi": 55,
      "hit": false,
      "t": 200608.6454999946,
      "d": 217.39124999998603,
      "v": 99
    },
    {
      "midi": 60,
      "hit": false,
      "t": 200608.6454999946,
      "d": 217.39124999998603,
      "v": 99
    },
    {
      "midi": 64,
      "hit": false,
      "t": 200608.6454999946,
      "d": 217.39124999998603,
      "v": 99
    },
    {
      "midi": 55,
      "hit": false,
      "t": 200999.9497499946,
      "d": 217.39124999998603,
      "v": 94
    },
    {
      "midi": 60,
      "hit": false,
      "t": 200999.9497499946,
      "d": 217.39124999998603,
      "v": 94
    },
    {
      "midi": 64,
      "hit": false,
      "t": 200999.9497499946,
      "d": 217.39124999998603,
      "v": 94
    },
    {
      "midi": 55,
      "hit": false,
      "t": 201391.25399999457,
      "d": 217.39124999998603,
      "v": 97
    },
    {
      "midi": 60,
      "hit": false,
      "t": 201391.25399999457,
      "d": 217.39124999998603,
      "v": 97
    },
    {
      "midi": 64,
      "hit": false,
      "t": 201391.25399999457,
      "d": 217.39124999998603,
      "v": 97
    },
    {
      "midi": 55,
      "hit": false,
      "t": 201782.55824999456,
      "d": 217.39124999998603,
      "v": 100
    },
    {
      "midi": 60,
      "hit": false,
      "t": 201782.55824999456,
      "d": 217.39124999998603,
      "v": 100
    },
    {
      "midi": 64,
      "hit": false,
      "t": 201782.55824999456,
      "d": 217.39124999998603,
      "v": 100
    },
    {
      "midi": 55,
      "hit": false,
      "t": 202173.86249999455,
      "d": 217.39124999998603,
      "v": 94
    },
    {
      "midi": 60,
      "hit": false,
      "t": 202173.86249999455,
      "d": 217.39124999998603,
      "v": 94
    },
    {
      "midi": 64,
      "hit": false,
      "t": 202173.86249999455,
      "d": 217.39124999998603,
      "v": 94
    },
    {
      "midi": 55,
      "hit": false,
      "t": 202695.60149999452,
      "d": 217.39124999998603,
      "v": 99
    },
    {
      "midi": 59,
      "hit": false,
      "t": 202695.60149999452,
      "d": 217.39124999998603,
      "v": 99
    },
    {
      "midi": 62,
      "hit": false,
      "t": 202695.60149999452,
      "d": 217.39124999998603,
      "v": 99
    },
    {
      "midi": 55,
      "hit": false,
      "t": 203086.9057499945,
      "d": 217.39124999998603,
      "v": 94
    },
    {
      "midi": 59,
      "hit": false,
      "t": 203086.9057499945,
      "d": 217.39124999998603,
      "v": 94
    },
    {
      "midi": 62,
      "hit": false,
      "t": 203086.9057499945,
      "d": 217.39124999998603,
      "v": 94
    },
    {
      "midi": 55,
      "hit": false,
      "t": 203478.2099999945,
      "d": 217.39124999998603,
      "v": 97
    },
    {
      "midi": 59,
      "hit": false,
      "t": 203478.2099999945,
      "d": 217.39124999998603,
      "v": 97
    },
    {
      "midi": 62,
      "hit": false,
      "t": 203478.2099999945,
      "d": 217.39124999998603,
      "v": 97
    },
    {
      "midi": 55,
      "hit": false,
      "t": 203869.51424999448,
      "d": 217.39124999998603,
      "v": 100
    },
    {
      "midi": 59,
      "hit": false,
      "t": 203869.51424999448,
      "d": 217.39124999998603,
      "v": 100
    },
    {
      "midi": 62,
      "hit": false,
      "t": 203869.51424999448,
      "d": 217.39124999998603,
      "v": 100
    },
    {
      "midi": 55,
      "hit": false,
      "t": 204260.81849999446,
      "d": 217.39124999998603,
      "v": 94
    },
    {
      "midi": 59,
      "hit": false,
      "t": 204260.81849999446,
      "d": 217.39124999998603,
      "v": 94
    },
    {
      "midi": 62,
      "hit": false,
      "t": 204260.81849999446,
      "d": 217.39124999998603,
      "v": 94
    },
    {
      "midi": 52,
      "hit": false,
      "t": 204782.55749999444,
      "d": 217.39124999998603,
      "v": 99
    },
    {
      "midi": 57,
      "hit": false,
      "t": 204782.55749999444,
      "d": 217.39124999998603,
      "v": 99
    },
    {
      "midi": 60,
      "hit": false,
      "t": 204782.55749999444,
      "d": 217.39124999998603,
      "v": 99
    },
    {
      "midi": 52,
      "hit": false,
      "t": 205173.86174999442,
      "d": 217.39124999998603,
      "v": 94
    },
    {
      "midi": 57,
      "hit": false,
      "t": 205173.86174999442,
      "d": 217.39124999998603,
      "v": 94
    },
    {
      "midi": 60,
      "hit": false,
      "t": 205173.86174999442,
      "d": 217.39124999998603,
      "v": 94
    },
    {
      "midi": 52,
      "hit": false,
      "t": 205565.1659999944,
      "d": 217.39124999998603,
      "v": 97
    },
    {
      "midi": 57,
      "hit": false,
      "t": 205565.1659999944,
      "d": 217.39124999998603,
      "v": 97
    },
    {
      "midi": 60,
      "hit": false,
      "t": 205565.1659999944,
      "d": 217.39124999998603,
      "v": 97
    },
    {
      "midi": 52,
      "hit": false,
      "t": 205956.4702499944,
      "d": 217.39124999998603,
      "v": 100
    },
    {
      "midi": 57,
      "hit": false,
      "t": 205956.4702499944,
      "d": 217.39124999998603,
      "v": 100
    },
    {
      "midi": 60,
      "hit": false,
      "t": 205956.4702499944,
      "d": 217.39124999998603,
      "v": 100
    },
    {
      "midi": 52,
      "hit": false,
      "t": 206347.77449999438,
      "d": 217.39124999998603,
      "v": 94
    },
    {
      "midi": 57,
      "hit": false,
      "t": 206347.77449999438,
      "d": 217.39124999998603,
      "v": 94
    },
    {
      "midi": 60,
      "hit": false,
      "t": 206347.77449999438,
      "d": 217.39124999998603,
      "v": 94
    },
    {
      "midi": 52,
      "hit": false,
      "t": 206869.51349999435,
      "d": 217.39124999998603,
      "v": 99
    },
    {
      "midi": 55,
      "hit": false,
      "t": 206869.51349999435,
      "d": 217.39124999998603,
      "v": 99
    },
    {
      "midi": 59,
      "hit": false,
      "t": 206869.51349999435,
      "d": 217.39124999998603,
      "v": 99
    },
    {
      "midi": 52,
      "hit": false,
      "t": 207260.81774999434,
      "d": 217.39124999998603,
      "v": 94
    },
    {
      "midi": 55,
      "hit": false,
      "t": 207260.81774999434,
      "d": 217.39124999998603,
      "v": 94
    },
    {
      "midi": 59,
      "hit": false,
      "t": 207260.81774999434,
      "d": 217.39124999998603,
      "v": 94
    },
    {
      "midi": 52,
      "hit": false,
      "t": 207652.12199999433,
      "d": 217.39124999998603,
      "v": 97
    },
    {
      "midi": 55,
      "hit": false,
      "t": 207652.12199999433,
      "d": 217.39124999998603,
      "v": 97
    },
    {
      "midi": 59,
      "hit": false,
      "t": 207652.12199999433,
      "d": 217.39124999998603,
      "v": 97
    },
    {
      "midi": 52,
      "hit": false,
      "t": 208043.4262499943,
      "d": 217.39124999998603,
      "v": 100
    },
    {
      "midi": 55,
      "hit": false,
      "t": 208043.4262499943,
      "d": 217.39124999998603,
      "v": 100
    },
    {
      "midi": 59,
      "hit": false,
      "t": 208043.4262499943,
      "d": 217.39124999998603,
      "v": 100
    },
    {
      "midi": 52,
      "hit": false,
      "t": 208434.7304999943,
      "d": 217.39124999998603,
      "v": 94
    },
    {
      "midi": 55,
      "hit": false,
      "t": 208434.7304999943,
      "d": 217.39124999998603,
      "v": 94
    },
    {
      "midi": 59,
      "hit": false,
      "t": 208434.7304999943,
      "d": 217.39124999998603,
      "v": 94
    },
    {
      "midi": 53,
      "hit": false,
      "t": 208956.46949999427,
      "d": 217.39124999998603,
      "v": 99
    },
    {
      "midi": 57,
      "hit": false,
      "t": 208956.46949999427,
      "d": 217.39124999998603,
      "v": 99
    },
    {
      "midi": 60,
      "hit": false,
      "t": 208956.46949999427,
      "d": 217.39124999998603,
      "v": 99
    },
    {
      "midi": 53,
      "hit": false,
      "t": 209347.77374999426,
      "d": 217.39124999998603,
      "v": 94
    },
    {
      "midi": 57,
      "hit": false,
      "t": 209347.77374999426,
      "d": 217.39124999998603,
      "v": 94
    },
    {
      "midi": 60,
      "hit": false,
      "t": 209347.77374999426,
      "d": 217.39124999998603,
      "v": 94
    },
    {
      "midi": 53,
      "hit": false,
      "t": 209739.07799999425,
      "d": 217.39124999998603,
      "v": 97
    },
    {
      "midi": 57,
      "hit": false,
      "t": 209739.07799999425,
      "d": 217.39124999998603,
      "v": 97
    },
    {
      "midi": 60,
      "hit": false,
      "t": 209739.07799999425,
      "d": 217.39124999998603,
      "v": 97
    },
    {
      "midi": 53,
      "hit": false,
      "t": 210130.38224999423,
      "d": 217.39124999998603,
      "v": 100
    },
    {
      "midi": 57,
      "hit": false,
      "t": 210130.38224999423,
      "d": 217.39124999998603,
      "v": 100
    },
    {
      "midi": 60,
      "hit": false,
      "t": 210130.38224999423,
      "d": 217.39124999998603,
      "v": 100
    },
    {
      "midi": 53,
      "hit": false,
      "t": 210521.68649999422,
      "d": 217.39124999998603,
      "v": 94
    },
    {
      "midi": 57,
      "hit": false,
      "t": 210521.68649999422,
      "d": 217.39124999998603,
      "v": 94
    },
    {
      "midi": 60,
      "hit": false,
      "t": 210521.68649999422,
      "d": 217.39124999998603,
      "v": 94
    },
    {
      "midi": 55,
      "hit": false,
      "t": 211043.4254999942,
      "d": 217.39124999998603,
      "v": 99
    },
    {
      "midi": 60,
      "hit": false,
      "t": 211043.4254999942,
      "d": 217.39124999998603,
      "v": 99
    },
    {
      "midi": 64,
      "hit": false,
      "t": 211043.4254999942,
      "d": 217.39124999998603,
      "v": 99
    },
    {
      "midi": 55,
      "hit": false,
      "t": 211434.72974999418,
      "d": 217.39124999998603,
      "v": 94
    },
    {
      "midi": 60,
      "hit": false,
      "t": 211434.72974999418,
      "d": 217.39124999998603,
      "v": 94
    },
    {
      "midi": 64,
      "hit": false,
      "t": 211434.72974999418,
      "d": 217.39124999998603,
      "v": 94
    },
    {
      "midi": 55,
      "hit": false,
      "t": 211826.03399999416,
      "d": 217.39124999998603,
      "v": 97
    },
    {
      "midi": 60,
      "hit": false,
      "t": 211826.03399999416,
      "d": 217.39124999998603,
      "v": 97
    },
    {
      "midi": 64,
      "hit": false,
      "t": 211826.03399999416,
      "d": 217.39124999998603,
      "v": 97
    },
    {
      "midi": 55,
      "hit": false,
      "t": 212217.33824999415,
      "d": 217.39124999998603,
      "v": 100
    },
    {
      "midi": 60,
      "hit": false,
      "t": 212217.33824999415,
      "d": 217.39124999998603,
      "v": 100
    },
    {
      "midi": 64,
      "hit": false,
      "t": 212217.33824999415,
      "d": 217.39124999998603,
      "v": 100
    },
    {
      "midi": 55,
      "hit": false,
      "t": 212608.64249999414,
      "d": 217.39124999998603,
      "v": 94
    },
    {
      "midi": 60,
      "hit": false,
      "t": 212608.64249999414,
      "d": 217.39124999998603,
      "v": 94
    },
    {
      "midi": 64,
      "hit": false,
      "t": 212608.64249999414,
      "d": 217.39124999998603,
      "v": 94
    },
    {
      "midi": 50,
      "hit": false,
      "t": 213130.3814999941,
      "d": 217.39124999998603,
      "v": 99
    },
    {
      "midi": 53,
      "hit": false,
      "t": 213130.3814999941,
      "d": 217.39124999998603,
      "v": 99
    },
    {
      "midi": 57,
      "hit": false,
      "t": 213130.3814999941,
      "d": 217.39124999998603,
      "v": 99
    },
    {
      "midi": 60,
      "hit": false,
      "t": 213130.3814999941,
      "d": 217.39124999998603,
      "v": 99
    },
    {
      "midi": 50,
      "hit": false,
      "t": 213521.6857499941,
      "d": 217.39124999998603,
      "v": 94
    },
    {
      "midi": 53,
      "hit": false,
      "t": 213521.6857499941,
      "d": 217.39124999998603,
      "v": 94
    },
    {
      "midi": 57,
      "hit": false,
      "t": 213521.6857499941,
      "d": 217.39124999998603,
      "v": 94
    },
    {
      "midi": 60,
      "hit": false,
      "t": 213521.6857499941,
      "d": 217.39124999998603,
      "v": 94
    },
    {
      "midi": 50,
      "hit": false,
      "t": 213912.98999999408,
      "d": 217.39124999998603,
      "v": 97
    },
    {
      "midi": 53,
      "hit": false,
      "t": 213912.98999999408,
      "d": 217.39124999998603,
      "v": 97
    },
    {
      "midi": 57,
      "hit": false,
      "t": 213912.98999999408,
      "d": 217.39124999998603,
      "v": 97
    },
    {
      "midi": 60,
      "hit": false,
      "t": 213912.98999999408,
      "d": 217.39124999998603,
      "v": 97
    },
    {
      "midi": 50,
      "hit": false,
      "t": 214304.29424999407,
      "d": 217.39124999998603,
      "v": 100
    },
    {
      "midi": 53,
      "hit": false,
      "t": 214304.29424999407,
      "d": 217.39124999998603,
      "v": 100
    },
    {
      "midi": 57,
      "hit": false,
      "t": 214304.29424999407,
      "d": 217.39124999998603,
      "v": 100
    },
    {
      "midi": 60,
      "hit": false,
      "t": 214304.29424999407,
      "d": 217.39124999998603,
      "v": 100
    },
    {
      "midi": 50,
      "hit": false,
      "t": 214695.59849999406,
      "d": 217.39124999998603,
      "v": 94
    },
    {
      "midi": 53,
      "hit": false,
      "t": 214695.59849999406,
      "d": 217.39124999998603,
      "v": 94
    },
    {
      "midi": 57,
      "hit": false,
      "t": 214695.59849999406,
      "d": 217.39124999998603,
      "v": 94
    },
    {
      "midi": 60,
      "hit": false,
      "t": 214695.59849999406,
      "d": 217.39124999998603,
      "v": 94
    },
    {
      "midi": 55,
      "hit": false,
      "t": 215217.33749999403,
      "d": 217.39124999998603,
      "v": 99
    },
    {
      "midi": 59,
      "hit": false,
      "t": 215217.33749999403,
      "d": 217.39124999998603,
      "v": 99
    },
    {
      "midi": 62,
      "hit": false,
      "t": 215217.33749999403,
      "d": 217.39124999998603,
      "v": 99
    },
    {
      "midi": 55,
      "hit": false,
      "t": 215608.641749994,
      "d": 217.39124999998603,
      "v": 94
    },
    {
      "midi": 59,
      "hit": false,
      "t": 215608.641749994,
      "d": 217.39124999998603,
      "v": 94
    },
    {
      "midi": 62,
      "hit": false,
      "t": 215608.641749994,
      "d": 217.39124999998603,
      "v": 94
    },
    {
      "midi": 55,
      "hit": false,
      "t": 215999.945999994,
      "d": 217.39124999998603,
      "v": 97
    },
    {
      "midi": 59,
      "hit": false,
      "t": 215999.945999994,
      "d": 217.39124999998603,
      "v": 97
    },
    {
      "midi": 62,
      "hit": false,
      "t": 215999.945999994,
      "d": 217.39124999998603,
      "v": 97
    },
    {
      "midi": 55,
      "hit": false,
      "t": 216391.250249994,
      "d": 217.39124999998603,
      "v": 100
    },
    {
      "midi": 59,
      "hit": false,
      "t": 216391.250249994,
      "d": 217.39124999998603,
      "v": 100
    },
    {
      "midi": 62,
      "hit": false,
      "t": 216391.250249994,
      "d": 217.39124999998603,
      "v": 100
    },
    {
      "midi": 55,
      "hit": false,
      "t": 216782.55449999397,
      "d": 217.39124999998603,
      "v": 94
    },
    {
      "midi": 59,
      "hit": false,
      "t": 216782.55449999397,
      "d": 217.39124999998603,
      "v": 94
    },
    {
      "midi": 62,
      "hit": false,
      "t": 216782.55449999397,
      "d": 217.39124999998603,
      "v": 94
    },
    {
      "midi": 55,
      "hit": false,
      "t": 217304.29349999395,
      "d": 217.39124999998603,
      "v": 99
    },
    {
      "midi": 59,
      "hit": false,
      "t": 217304.29349999395,
      "d": 217.39124999998603,
      "v": 99
    },
    {
      "midi": 62,
      "hit": false,
      "t": 217304.29349999395,
      "d": 217.39124999998603,
      "v": 99
    },
    {
      "midi": 55,
      "hit": false,
      "t": 217695.59774999393,
      "d": 217.39124999998603,
      "v": 94
    },
    {
      "midi": 59,
      "hit": false,
      "t": 217695.59774999393,
      "d": 217.39124999998603,
      "v": 94
    },
    {
      "midi": 62,
      "hit": false,
      "t": 217695.59774999393,
      "d": 217.39124999998603,
      "v": 94
    },
    {
      "midi": 55,
      "hit": false,
      "t": 218086.90199999392,
      "d": 217.39124999998603,
      "v": 97
    },
    {
      "midi": 59,
      "hit": false,
      "t": 218086.90199999392,
      "d": 217.39124999998603,
      "v": 97
    },
    {
      "midi": 62,
      "hit": false,
      "t": 218086.90199999392,
      "d": 217.39124999998603,
      "v": 97
    },
    {
      "midi": 55,
      "hit": false,
      "t": 218478.2062499939,
      "d": 217.39124999998603,
      "v": 100
    },
    {
      "midi": 59,
      "hit": false,
      "t": 218478.2062499939,
      "d": 217.39124999998603,
      "v": 100
    },
    {
      "midi": 62,
      "hit": false,
      "t": 218478.2062499939,
      "d": 217.39124999998603,
      "v": 100
    },
    {
      "midi": 55,
      "hit": false,
      "t": 218869.5104999939,
      "d": 217.39124999998603,
      "v": 94
    },
    {
      "midi": 59,
      "hit": false,
      "t": 218869.5104999939,
      "d": 217.39124999998603,
      "v": 94
    },
    {
      "midi": 62,
      "hit": false,
      "t": 218869.5104999939,
      "d": 217.39124999998603,
      "v": 94
    },
    {
      "midi": 62,
      "hit": false,
      "t": 219130.37999999386,
      "d": 86.95650000000023,
      "v": 110
    },
    {
      "midi": 38,
      "hit": false,
      "t": 219130.37999999386,
      "d": 347.8259999999718,
      "v": 100
    },
    {
      "midi": 62,
      "hit": false,
      "t": 219260.81474999385,
      "d": 86.95650000000023,
      "v": 110
    },
    {
      "midi": 62,
      "hit": false,
      "t": 219391.24949999384,
      "d": 86.95650000000023,
      "v": 110
    },
    {
      "midi": 54,
      "hit": false,
      "t": 219391.24949999384,
      "d": 217.39124999998603,
      "v": 99
    },
    {
      "midi": 57,
      "hit": false,
      "t": 219391.24949999384,
      "d": 217.39124999998603,
      "v": 99
    },
    {
      "midi": 62,
      "hit": false,
      "t": 219521.68424999382,
      "d": 86.95650000000023,
      "v": 110
    },
    {
      "midi": 62,
      "hit": false,
      "t": 219652.1189999938,
      "d": 86.95650000000023,
      "v": 110
    },
    {
      "midi": 38,
      "hit": false,
      "t": 219652.1189999938,
      "d": 260.8694999999716,
      "v": 100
    },
    {
      "midi": 62,
      "hit": false,
      "t": 219782.5537499938,
      "d": 86.95650000000023,
      "v": 110
    },
    {
      "midi": 54,
      "hit": false,
      "t": 219782.5537499938,
      "d": 217.39124999998603,
      "v": 94
    },
    {
      "midi": 57,
      "hit": false,
      "t": 219782.5537499938,
      "d": 217.39124999998603,
      "v": 94
    },
    {
      "midi": 62,
      "hit": false,
      "t": 219912.98849999378,
      "d": 86.95650000000023,
      "v": 110
    },
    {
      "midi": 62,
      "hit": false,
      "t": 220043.42324999376,
      "d": 86.95650000000023,
      "v": 110
    },
    {
      "midi": 38,
      "hit": false,
      "t": 220043.42324999376,
      "d": 260.8694999999716,
      "v": 100
    },
    {
      "midi": 62,
      "hit": false,
      "t": 220173.85799999375,
      "d": 86.95650000000023,
      "v": 110
    },
    {
      "midi": 54,
      "hit": false,
      "t": 220173.85799999375,
      "d": 217.39124999998603,
      "v": 97
    },
    {
      "midi": 57,
      "hit": false,
      "t": 220173.85799999375,
      "d": 217.39124999998603,
      "v": 97
    },
    {
      "midi": 62,
      "hit": false,
      "t": 220304.29274999374,
      "d": 86.95650000000023,
      "v": 110
    },
    {
      "midi": 62,
      "hit": false,
      "t": 220434.72749999372,
      "d": 86.95650000000023,
      "v": 110
    },
    {
      "midi": 38,
      "hit": false,
      "t": 220434.72749999372,
      "d": 260.8694999999716,
      "v": 100
    },
    {
      "midi": 62,
      "hit": false,
      "t": 220565.1622499937,
      "d": 86.95650000000023,
      "v": 110
    },
    {
      "midi": 54,
      "hit": false,
      "t": 220565.1622499937,
      "d": 217.39124999998603,
      "v": 100
    },
    {
      "midi": 57,
      "hit": false,
      "t": 220565.1622499937,
      "d": 217.39124999998603,
      "v": 100
    },
    {
      "midi": 62,
      "hit": false,
      "t": 220695.5969999937,
      "d": 86.95650000000023,
      "v": 110
    },
    {
      "midi": 62,
      "hit": false,
      "t": 220826.03174999368,
      "d": 86.95650000000023,
      "v": 110
    },
    {
      "midi": 38,
      "hit": false,
      "t": 220826.03174999368,
      "d": 260.8694999999716,
      "v": 100
    },
    {
      "midi": 62,
      "hit": false,
      "t": 220956.46649999366,
      "d": 86.95650000000023,
      "v": 110
    },
    {
      "midi": 54,
      "hit": false,
      "t": 220956.46649999366,
      "d": 217.39124999998603,
      "v": 94
    },
    {
      "midi": 57,
      "hit": false,
      "t": 220956.46649999366,
      "d": 217.39124999998603,
      "v": 94
    },
    {
      "midi": 62,
      "hit": false,
      "t": 221086.90124999365,
      "d": 86.95650000000023,
      "v": 110
    },
    {
      "midi": 57,
      "hit": false,
      "t": 221217.33599999364,
      "d": 86.95650000000023,
      "v": 110
    },
    {
      "midi": 45,
      "hit": false,
      "t": 221217.33599999364,
      "d": 347.8259999999718,
      "v": 100
    },
    {
      "midi": 57,
      "hit": false,
      "t": 221347.77074999362,
      "d": 86.95650000000023,
      "v": 110
    },
    {
      "midi": 57,
      "hit": false,
      "t": 221478.2054999936,
      "d": 86.95650000000023,
      "v": 110
    },
    {
      "midi": 52,
      "hit": false,
      "t": 221478.2054999936,
      "d": 217.39124999998603,
      "v": 99
    },
    {
      "midi": 61,
      "hit": false,
      "t": 221478.2054999936,
      "d": 217.39124999998603,
      "v": 99
    },
    {
      "midi": 57,
      "hit": false,
      "t": 221608.6402499936,
      "d": 86.95650000000023,
      "v": 110
    },
    {
      "midi": 57,
      "hit": false,
      "t": 221739.07499999358,
      "d": 86.95650000000023,
      "v": 110
    },
    {
      "midi": 45,
      "hit": false,
      "t": 221739.07499999358,
      "d": 260.8694999999716,
      "v": 100
    },
    {
      "midi": 57,
      "hit": false,
      "t": 221869.50974999357,
      "d": 86.95650000000023,
      "v": 110
    },
    {
      "midi": 52,
      "hit": false,
      "t": 221869.50974999357,
      "d": 217.39124999998603,
      "v": 94
    },
    {
      "midi": 61,
      "hit": false,
      "t": 221869.50974999357,
      "d": 217.39124999998603,
      "v": 94
    },
    {
      "midi": 57,
      "hit": false,
      "t": 221999.94449999355,
      "d": 86.95650000000023,
      "v": 110
    },
    {
      "midi": 57,
      "hit": false,
      "t": 222130.37924999354,
      "d": 86.95650000000023,
      "v": 110
    },
    {
      "midi": 45,
      "hit": false,
      "t": 222130.37924999354,
      "d": 260.8694999999716,
      "v": 100
    },
    {
      "midi": 57,
      "hit": false,
      "t": 222260.81399999352,
      "d": 86.95650000000023,
      "v": 110
    },
    {
      "midi": 52,
      "hit": false,
      "t": 222260.81399999352,
      "d": 217.39124999998603,
      "v": 97
    },
    {
      "midi": 61,
      "hit": false,
      "t": 222260.81399999352,
      "d": 217.39124999998603,
      "v": 97
    },
    {
      "midi": 57,
      "hit": false,
      "t": 222391.2487499935,
      "d": 86.95650000000023,
      "v": 110
    },
    {
      "midi": 57,
      "hit": false,
      "t": 222521.6834999935,
      "d": 86.95650000000023,
      "v": 110
    },
    {
      "midi": 45,
      "hit": false,
      "t": 222521.6834999935,
      "d": 260.8694999999716,
      "v": 100
    },
    {
      "midi": 57,
      "hit": false,
      "t": 222652.11824999348,
      "d": 86.95650000000023,
      "v": 110
    },
    {
      "midi": 52,
      "hit": false,
      "t": 222652.11824999348,
      "d": 217.39124999998603,
      "v": 100
    },
    {
      "midi": 61,
      "hit": false,
      "t": 222652.11824999348,
      "d": 217.39124999998603,
      "v": 100
    },
    {
      "midi": 57,
      "hit": false,
      "t": 222782.55299999347,
      "d": 86.95650000000023,
      "v": 110
    },
    {
      "midi": 57,
      "hit": false,
      "t": 222912.98774999345,
      "d": 86.95650000000023,
      "v": 110
    },
    {
      "midi": 45,
      "hit": false,
      "t": 222912.98774999345,
      "d": 260.8694999999716,
      "v": 100
    },
    {
      "midi": 57,
      "hit": false,
      "t": 223043.42249999344,
      "d": 86.95650000000023,
      "v": 110
    },
    {
      "midi": 52,
      "hit": false,
      "t": 223043.42249999344,
      "d": 217.39124999998603,
      "v": 94
    },
    {
      "midi": 61,
      "hit": false,
      "t": 223043.42249999344,
      "d": 217.39124999998603,
      "v": 94
    },
    {
      "midi": 57,
      "hit": false,
      "t": 223173.85724999342,
      "d": 86.95650000000023,
      "v": 110
    },
    {
      "midi": 59,
      "hit": false,
      "t": 223304.2919999934,
      "d": 86.95650000000023,
      "v": 110
    },
    {
      "midi": 35,
      "hit": false,
      "t": 223304.2919999934,
      "d": 347.8259999999718,
      "v": 100
    },
    {
      "midi": 59,
      "hit": false,
      "t": 223434.7267499934,
      "d": 86.95650000000023,
      "v": 110
    },
    {
      "midi": 59,
      "hit": false,
      "t": 223565.16149999338,
      "d": 86.95650000000023,
      "v": 110
    },
    {
      "midi": 54,
      "hit": false,
      "t": 223565.16149999338,
      "d": 217.39124999998603,
      "v": 99
    },
    {
      "midi": 62,
      "hit": false,
      "t": 223565.16149999338,
      "d": 217.39124999998603,
      "v": 99
    },
    {
      "midi": 59,
      "hit": false,
      "t": 223695.59624999337,
      "d": 86.95650000000023,
      "v": 110
    },
    {
      "midi": 59,
      "hit": false,
      "t": 223826.03099999335,
      "d": 86.95650000000023,
      "v": 110
    },
    {
      "midi": 35,
      "hit": false,
      "t": 223826.03099999335,
      "d": 260.8694999999716,
      "v": 100
    },
    {
      "midi": 59,
      "hit": false,
      "t": 223956.46574999334,
      "d": 86.95650000000023,
      "v": 110
    },
    {
      "midi": 54,
      "hit": false,
      "t": 223956.46574999334,
      "d": 217.39124999998603,
      "v": 94
    },
    {
      "midi": 62,
      "hit": false,
      "t": 223956.46574999334,
      "d": 217.39124999998603,
      "v": 94
    },
    {
      "midi": 59,
      "hit": false,
      "t": 224086.90049999332,
      "d": 86.95650000000023,
      "v": 110
    },
    {
      "midi": 59,
      "hit": false,
      "t": 224217.3352499933,
      "d": 86.95650000000023,
      "v": 110
    },
    {
      "midi": 35,
      "hit": false,
      "t": 224217.3352499933,
      "d": 260.8694999999716,
      "v": 100
    },
    {
      "midi": 59,
      "hit": false,
      "t": 224347.7699999933,
      "d": 86.95650000000023,
      "v": 110
    },
    {
      "midi": 54,
      "hit": false,
      "t": 224347.7699999933,
      "d": 217.39124999998603,
      "v": 97
    },
    {
      "midi": 62,
      "hit": false,
      "t": 224347.7699999933,
      "d": 217.39124999998603,
      "v": 97
    },
    {
      "midi": 59,
      "hit": false,
      "t": 224478.20474999328,
      "d": 86.95650000000023,
      "v": 110
    },
    {
      "midi": 59,
      "hit": false,
      "t": 224608.63949999327,
      "d": 86.95650000000023,
      "v": 110
    },
    {
      "midi": 35,
      "hit": false,
      "t": 224608.63949999327,
      "d": 260.8694999999716,
      "v": 100
    },
    {
      "midi": 59,
      "hit": false,
      "t": 224739.07424999325,
      "d": 86.95650000000023,
      "v": 110
    },
    {
      "midi": 54,
      "hit": false,
      "t": 224739.07424999325,
      "d": 217.39124999998603,
      "v": 100
    },
    {
      "midi": 62,
      "hit": false,
      "t": 224739.07424999325,
      "d": 217.39124999998603,
      "v": 100
    },
    {
      "midi": 59,
      "hit": false,
      "t": 224869.50899999324,
      "d": 86.95650000000023,
      "v": 110
    },
    {
      "midi": 59,
      "hit": false,
      "t": 224999.94374999322,
      "d": 86.95650000000023,
      "v": 110
    },
    {
      "midi": 35,
      "hit": false,
      "t": 224999.94374999322,
      "d": 260.8694999999716,
      "v": 100
    },
    {
      "midi": 59,
      "hit": false,
      "t": 225130.3784999932,
      "d": 86.95650000000023,
      "v": 110
    },
    {
      "midi": 54,
      "hit": false,
      "t": 225130.3784999932,
      "d": 217.39124999998603,
      "v": 94
    },
    {
      "midi": 62,
      "hit": false,
      "t": 225130.3784999932,
      "d": 217.39124999998603,
      "v": 94
    },
    {
      "midi": 59,
      "hit": false,
      "t": 225260.8132499932,
      "d": 86.95650000000023,
      "v": 110
    },
    {
      "midi": 54,
      "hit": false,
      "t": 225391.24799999318,
      "d": 86.95650000000023,
      "v": 110
    },
    {
      "midi": 42,
      "hit": false,
      "t": 225391.24799999318,
      "d": 347.8259999999718,
      "v": 100
    },
    {
      "midi": 54,
      "hit": false,
      "t": 225521.68274999317,
      "d": 86.95650000000023,
      "v": 110
    },
    {
      "midi": 54,
      "hit": false,
      "t": 225652.11749999315,
      "d": 86.95650000000023,
      "v": 110
    },
    {
      "midi": 57,
      "hit": false,
      "t": 225652.11749999315,
      "d": 217.39124999998603,
      "v": 99
    },
    {
      "midi": 61,
      "hit": false,
      "t": 225652.11749999315,
      "d": 217.39124999998603,
      "v": 99
    },
    {
      "midi": 54,
      "hit": false,
      "t": 225782.55224999314,
      "d": 86.95650000000023,
      "v": 110
    },
    {
      "midi": 54,
      "hit": false,
      "t": 225912.98699999313,
      "d": 86.95650000000023,
      "v": 110
    },
    {
      "midi": 42,
      "hit": false,
      "t": 225912.98699999313,
      "d": 260.8694999999716,
      "v": 100
    },
    {
      "midi": 54,
      "hit": false,
      "t": 226043.4217499931,
      "d": 86.95650000000023,
      "v": 110
    },
    {
      "midi": 57,
      "hit": false,
      "t": 226043.4217499931,
      "d": 217.39124999998603,
      "v": 94
    },
    {
      "midi": 61,
      "hit": false,
      "t": 226043.4217499931,
      "d": 217.39124999998603,
      "v": 94
    },
    {
      "midi": 54,
      "hit": false,
      "t": 226173.8564999931,
      "d": 86.95650000000023,
      "v": 110
    },
    {
      "midi": 54,
      "hit": false,
      "t": 226304.29124999308,
      "d": 86.95650000000023,
      "v": 110
    },
    {
      "midi": 42,
      "hit": false,
      "t": 226304.29124999308,
      "d": 260.8694999999716,
      "v": 100
    },
    {
      "midi": 54,
      "hit": false,
      "t": 226434.72599999307,
      "d": 86.95650000000023,
      "v": 110
    },
    {
      "midi": 57,
      "hit": false,
      "t": 226434.72599999307,
      "d": 217.39124999998603,
      "v": 97
    },
    {
      "midi": 61,
      "hit": false,
      "t": 226434.72599999307,
      "d": 217.39124999998603,
      "v": 97
    },
    {
      "midi": 54,
      "hit": false,
      "t": 226565.16074999305,
      "d": 86.95650000000023,
      "v": 110
    },
    {
      "midi": 54,
      "hit": false,
      "t": 226695.59549999304,
      "d": 86.95650000000023,
      "v": 110
    },
    {
      "midi": 42,
      "hit": false,
      "t": 226695.59549999304,
      "d": 260.8694999999716,
      "v": 100
    },
    {
      "midi": 54,
      "hit": false,
      "t": 226826.03024999303,
      "d": 86.95650000000023,
      "v": 110
    },
    {
      "midi": 57,
      "hit": false,
      "t": 226826.03024999303,
      "d": 217.39124999998603,
      "v": 100
    },
    {
      "midi": 61,
      "hit": false,
      "t": 226826.03024999303,
      "d": 217.39124999998603,
      "v": 100
    },
    {
      "midi": 54,
      "hit": false,
      "t": 226956.464999993,
      "d": 86.95650000000023,
      "v": 110
    },
    {
      "midi": 54,
      "hit": false,
      "t": 227086.899749993,
      "d": 86.95650000000023,
      "v": 110
    },
    {
      "midi": 42,
      "hit": false,
      "t": 227086.899749993,
      "d": 260.8694999999716,
      "v": 100
    },
    {
      "midi": 54,
      "hit": false,
      "t": 227217.33449999298,
      "d": 86.95650000000023,
      "v": 110
    },
    {
      "midi": 57,
      "hit": false,
      "t": 227217.33449999298,
      "d": 217.39124999998603,
      "v": 94
    },
    {
      "midi": 61,
      "hit": false,
      "t": 227217.33449999298,
      "d": 217.39124999998603,
      "v": 94
    },
    {
      "midi": 54,
      "hit": false,
      "t": 227347.76924999297,
      "d": 86.95650000000023,
      "v": 110
    },
    {
      "midi": 55,
      "hit": false,
      "t": 227478.20399999295,
      "d": 86.95650000000023,
      "v": 110
    },
    {
      "midi": 43,
      "hit": false,
      "t": 227478.20399999295,
      "d": 347.8259999999718,
      "v": 100
    },
    {
      "midi": 55,
      "hit": false,
      "t": 227608.63874999294,
      "d": 86.95650000000023,
      "v": 110
    },
    {
      "midi": 55,
      "hit": false,
      "t": 227739.07349999293,
      "d": 86.95650000000023,
      "v": 110
    },
    {
      "midi": 59,
      "hit": false,
      "t": 227739.07349999293,
      "d": 217.39124999998603,
      "v": 99
    },
    {
      "midi": 62,
      "hit": false,
      "t": 227739.07349999293,
      "d": 217.39124999998603,
      "v": 99
    },
    {
      "midi": 55,
      "hit": false,
      "t": 227869.5082499929,
      "d": 86.95650000000023,
      "v": 110
    },
    {
      "midi": 55,
      "hit": false,
      "t": 227999.9429999929,
      "d": 86.95650000000023,
      "v": 110
    },
    {
      "midi": 43,
      "hit": false,
      "t": 227999.9429999929,
      "d": 260.8694999999716,
      "v": 100
    },
    {
      "midi": 55,
      "hit": false,
      "t": 228130.37774999288,
      "d": 86.95650000000023,
      "v": 110
    },
    {
      "midi": 59,
      "hit": false,
      "t": 228130.37774999288,
      "d": 217.39124999998603,
      "v": 94
    },
    {
      "midi": 62,
      "hit": false,
      "t": 228130.37774999288,
      "d": 217.39124999998603,
      "v": 94
    },
    {
      "midi": 55,
      "hit": false,
      "t": 228260.81249999287,
      "d": 86.95650000000023,
      "v": 110
    },
    {
      "midi": 55,
      "hit": false,
      "t": 228391.24724999286,
      "d": 86.95650000000023,
      "v": 110
    },
    {
      "midi": 43,
      "hit": false,
      "t": 228391.24724999286,
      "d": 260.8694999999716,
      "v": 100
    },
    {
      "midi": 55,
      "hit": false,
      "t": 228521.68199999284,
      "d": 86.95650000000023,
      "v": 110
    },
    {
      "midi": 59,
      "hit": false,
      "t": 228521.68199999284,
      "d": 217.39124999998603,
      "v": 97
    },
    {
      "midi": 62,
      "hit": false,
      "t": 228521.68199999284,
      "d": 217.39124999998603,
      "v": 97
    },
    {
      "midi": 55,
      "hit": false,
      "t": 228652.11674999283,
      "d": 86.95650000000023,
      "v": 110
    },
    {
      "midi": 55,
      "hit": false,
      "t": 228782.5514999928,
      "d": 86.95650000000023,
      "v": 110
    },
    {
      "midi": 43,
      "hit": false,
      "t": 228782.5514999928,
      "d": 260.8694999999716,
      "v": 100
    },
    {
      "midi": 55,
      "hit": false,
      "t": 228912.9862499928,
      "d": 86.95650000000023,
      "v": 110
    },
    {
      "midi": 59,
      "hit": false,
      "t": 228912.9862499928,
      "d": 217.39124999998603,
      "v": 100
    },
    {
      "midi": 62,
      "hit": false,
      "t": 228912.9862499928,
      "d": 217.39124999998603,
      "v": 100
    },
    {
      "midi": 55,
      "hit": false,
      "t": 229043.42099999278,
      "d": 86.95650000000023,
      "v": 110
    },
    {
      "midi": 55,
      "hit": false,
      "t": 229173.85574999277,
      "d": 86.95650000000023,
      "v": 110
    },
    {
      "midi": 43,
      "hit": false,
      "t": 229173.85574999277,
      "d": 260.8694999999716,
      "v": 100
    },
    {
      "midi": 55,
      "hit": false,
      "t": 229304.29049999276,
      "d": 86.95650000000023,
      "v": 110
    },
    {
      "midi": 59,
      "hit": false,
      "t": 229304.29049999276,
      "d": 217.39124999998603,
      "v": 94
    },
    {
      "midi": 62,
      "hit": false,
      "t": 229304.29049999276,
      "d": 217.39124999998603,
      "v": 94
    },
    {
      "midi": 55,
      "hit": false,
      "t": 229434.72524999274,
      "d": 86.95650000000023,
      "v": 110
    },
    {
      "midi": 62,
      "hit": false,
      "t": 229565.15999999273,
      "d": 86.95650000000023,
      "v": 110
    },
    {
      "midi": 38,
      "hit": false,
      "t": 229565.15999999273,
      "d": 347.8259999999718,
      "v": 100
    },
    {
      "midi": 62,
      "hit": false,
      "t": 229695.5947499927,
      "d": 86.95650000000023,
      "v": 110
    },
    {
      "midi": 62,
      "hit": false,
      "t": 229826.0294999927,
      "d": 86.95650000000023,
      "v": 110
    },
    {
      "midi": 54,
      "hit": false,
      "t": 229826.0294999927,
      "d": 217.39124999998603,
      "v": 99
    },
    {
      "midi": 57,
      "hit": false,
      "t": 229826.0294999927,
      "d": 217.39124999998603,
      "v": 99
    },
    {
      "midi": 62,
      "hit": false,
      "t": 229956.46424999268,
      "d": 86.95650000000023,
      "v": 110
    },
    {
      "midi": 62,
      "hit": false,
      "t": 230086.89899999267,
      "d": 86.95650000000023,
      "v": 110
    },
    {
      "midi": 38,
      "hit": false,
      "t": 230086.89899999267,
      "d": 260.8694999999716,
      "v": 100
    },
    {
      "midi": 62,
      "hit": false,
      "t": 230217.33374999266,
      "d": 86.95650000000023,
      "v": 110
    },
    {
      "midi": 54,
      "hit": false,
      "t": 230217.33374999266,
      "d": 217.39124999998603,
      "v": 94
    },
    {
      "midi": 57,
      "hit": false,
      "t": 230217.33374999266,
      "d": 217.39124999998603,
      "v": 94
    },
    {
      "midi": 62,
      "hit": false,
      "t": 230347.76849999264,
      "d": 86.95650000000023,
      "v": 110
    },
    {
      "midi": 62,
      "hit": false,
      "t": 230478.20324999263,
      "d": 86.95650000000023,
      "v": 110
    },
    {
      "midi": 38,
      "hit": false,
      "t": 230478.20324999263,
      "d": 260.8694999999716,
      "v": 100
    },
    {
      "midi": 62,
      "hit": false,
      "t": 230608.6379999926,
      "d": 86.95650000000023,
      "v": 110
    },
    {
      "midi": 54,
      "hit": false,
      "t": 230608.6379999926,
      "d": 217.39124999998603,
      "v": 97
    },
    {
      "midi": 57,
      "hit": false,
      "t": 230608.6379999926,
      "d": 217.39124999998603,
      "v": 97
    },
    {
      "midi": 62,
      "hit": false,
      "t": 230739.0727499926,
      "d": 86.95650000000023,
      "v": 110
    },
    {
      "midi": 62,
      "hit": false,
      "t": 230869.5074999926,
      "d": 86.95650000000023,
      "v": 110
    },
    {
      "midi": 38,
      "hit": false,
      "t": 230869.5074999926,
      "d": 260.8694999999716,
      "v": 100
    },
    {
      "midi": 62,
      "hit": false,
      "t": 230999.94224999257,
      "d": 86.95650000000023,
      "v": 110
    },
    {
      "midi": 54,
      "hit": false,
      "t": 230999.94224999257,
      "d": 217.39124999998603,
      "v": 100
    },
    {
      "midi": 57,
      "hit": false,
      "t": 230999.94224999257,
      "d": 217.39124999998603,
      "v": 100
    },
    {
      "midi": 62,
      "hit": false,
      "t": 231130.37699999256,
      "d": 86.95650000000023,
      "v": 110
    },
    {
      "midi": 62,
      "hit": false,
      "t": 231260.81174999254,
      "d": 86.95650000000023,
      "v": 110
    },
    {
      "midi": 38,
      "hit": false,
      "t": 231260.81174999254,
      "d": 260.8694999999716,
      "v": 100
    },
    {
      "midi": 62,
      "hit": false,
      "t": 231391.24649999253,
      "d": 86.95650000000023,
      "v": 110
    },
    {
      "midi": 54,
      "hit": false,
      "t": 231391.24649999253,
      "d": 217.39124999998603,
      "v": 94
    },
    {
      "midi": 57,
      "hit": false,
      "t": 231391.24649999253,
      "d": 217.39124999998603,
      "v": 94
    },
    {
      "midi": 62,
      "hit": false,
      "t": 231521.6812499925,
      "d": 86.95650000000023,
      "v": 110
    },
    {
      "midi": 52,
      "hit": false,
      "t": 231652.1159999925,
      "d": 86.95650000000023,
      "v": 110
    },
    {
      "midi": 40,
      "hit": false,
      "t": 231652.1159999925,
      "d": 347.8259999999718,
      "v": 100
    },
    {
      "midi": 52,
      "hit": false,
      "t": 231782.5507499925,
      "d": 86.95650000000023,
      "v": 110
    },
    {
      "midi": 52,
      "hit": false,
      "t": 231912.98549999247,
      "d": 86.95650000000023,
      "v": 110
    },
    {
      "midi": 55,
      "hit": false,
      "t": 231912.98549999247,
      "d": 217.39124999998603,
      "v": 99
    },
    {
      "midi": 59,
      "hit": false,
      "t": 231912.98549999247,
      "d": 217.39124999998603,
      "v": 99
    },
    {
      "midi": 52,
      "hit": false,
      "t": 232043.42024999246,
      "d": 86.95650000000023,
      "v": 110
    },
    {
      "midi": 52,
      "hit": false,
      "t": 232173.85499999244,
      "d": 86.95650000000023,
      "v": 110
    },
    {
      "midi": 40,
      "hit": false,
      "t": 232173.85499999244,
      "d": 260.8694999999716,
      "v": 100
    },
    {
      "midi": 52,
      "hit": false,
      "t": 232304.28974999243,
      "d": 86.95650000000023,
      "v": 110
    },
    {
      "midi": 55,
      "hit": false,
      "t": 232304.28974999243,
      "d": 217.39124999998603,
      "v": 94
    },
    {
      "midi": 59,
      "hit": false,
      "t": 232304.28974999243,
      "d": 217.39124999998603,
      "v": 94
    },
    {
      "midi": 52,
      "hit": false,
      "t": 232434.72449999242,
      "d": 86.95650000000023,
      "v": 110
    },
    {
      "midi": 52,
      "hit": false,
      "t": 232565.1592499924,
      "d": 86.95650000000023,
      "v": 110
    },
    {
      "midi": 40,
      "hit": false,
      "t": 232565.1592499924,
      "d": 260.8694999999716,
      "v": 100
    },
    {
      "midi": 52,
      "hit": false,
      "t": 232695.5939999924,
      "d": 86.95650000000023,
      "v": 110
    },
    {
      "midi": 55,
      "hit": false,
      "t": 232695.5939999924,
      "d": 217.39124999998603,
      "v": 97
    },
    {
      "midi": 59,
      "hit": false,
      "t": 232695.5939999924,
      "d": 217.39124999998603,
      "v": 97
    },
    {
      "midi": 52,
      "hit": false,
      "t": 232826.02874999237,
      "d": 86.95650000000023,
      "v": 110
    },
    {
      "midi": 52,
      "hit": false,
      "t": 232956.46349999236,
      "d": 86.95650000000023,
      "v": 110
    },
    {
      "midi": 40,
      "hit": false,
      "t": 232956.46349999236,
      "d": 260.8694999999716,
      "v": 100
    },
    {
      "midi": 52,
      "hit": false,
      "t": 233086.89824999234,
      "d": 86.95650000000023,
      "v": 110
    },
    {
      "midi": 55,
      "hit": false,
      "t": 233086.89824999234,
      "d": 217.39124999998603,
      "v": 100
    },
    {
      "midi": 59,
      "hit": false,
      "t": 233086.89824999234,
      "d": 217.39124999998603,
      "v": 100
    },
    {
      "midi": 52,
      "hit": false,
      "t": 233217.33299999233,
      "d": 86.95650000000023,
      "v": 110
    },
    {
      "midi": 52,
      "hit": false,
      "t": 233347.76774999232,
      "d": 86.95650000000023,
      "v": 110
    },
    {
      "midi": 40,
      "hit": false,
      "t": 233347.76774999232,
      "d": 260.8694999999716,
      "v": 100
    },
    {
      "midi": 52,
      "hit": false,
      "t": 233478.2024999923,
      "d": 86.95650000000023,
      "v": 110
    },
    {
      "midi": 55,
      "hit": false,
      "t": 233478.2024999923,
      "d": 217.39124999998603,
      "v": 94
    },
    {
      "midi": 59,
      "hit": false,
      "t": 233478.2024999923,
      "d": 217.39124999998603,
      "v": 94
    },
    {
      "midi": 52,
      "hit": false,
      "t": 233608.6372499923,
      "d": 86.95650000000023,
      "v": 110
    },
    {
      "midi": 57,
      "hit": false,
      "t": 233739.07199999227,
      "d": 86.95650000000023,
      "v": 110
    },
    {
      "midi": 45,
      "hit": false,
      "t": 233739.07199999227,
      "d": 347.8259999999718,
      "v": 100
    },
    {
      "midi": 57,
      "hit": false,
      "t": 233869.50674999226,
      "d": 86.95650000000023,
      "v": 110
    },
    {
      "midi": 57,
      "hit": false,
      "t": 233999.94149999224,
      "d": 86.95650000000023,
      "v": 110
    },
    {
      "midi": 52,
      "hit": false,
      "t": 233999.94149999224,
      "d": 217.39124999998603,
      "v": 99
    },
    {
      "midi": 61,
      "hit": false,
      "t": 233999.94149999224,
      "d": 217.39124999998603,
      "v": 99
    },
    {
      "midi": 57,
      "hit": false,
      "t": 234130.37624999223,
      "d": 86.95650000000023,
      "v": 110
    },
    {
      "midi": 57,
      "hit": false,
      "t": 234260.81099999222,
      "d": 86.95650000000023,
      "v": 110
    },
    {
      "midi": 45,
      "hit": false,
      "t": 234260.81099999222,
      "d": 260.8694999999716,
      "v": 100
    },
    {
      "midi": 57,
      "hit": false,
      "t": 234391.2457499922,
      "d": 86.95650000000023,
      "v": 110
    },
    {
      "midi": 52,
      "hit": false,
      "t": 234391.2457499922,
      "d": 217.39124999998603,
      "v": 94
    },
    {
      "midi": 61,
      "hit": false,
      "t": 234391.2457499922,
      "d": 217.39124999998603,
      "v": 94
    },
    {
      "midi": 57,
      "hit": false,
      "t": 234521.6804999922,
      "d": 86.95650000000023,
      "v": 110
    },
    {
      "midi": 57,
      "hit": false,
      "t": 234652.11524999217,
      "d": 86.95650000000023,
      "v": 110
    },
    {
      "midi": 45,
      "hit": false,
      "t": 234652.11524999217,
      "d": 260.8694999999716,
      "v": 100
    },
    {
      "midi": 57,
      "hit": false,
      "t": 234782.54999999216,
      "d": 86.95650000000023,
      "v": 110
    },
    {
      "midi": 52,
      "hit": false,
      "t": 234782.54999999216,
      "d": 217.39124999998603,
      "v": 97
    },
    {
      "midi": 61,
      "hit": false,
      "t": 234782.54999999216,
      "d": 217.39124999998603,
      "v": 97
    },
    {
      "midi": 57,
      "hit": false,
      "t": 234912.98474999215,
      "d": 86.95650000000023,
      "v": 110
    },
    {
      "midi": 57,
      "hit": false,
      "t": 235043.41949999213,
      "d": 86.95650000000023,
      "v": 110
    },
    {
      "midi": 45,
      "hit": false,
      "t": 235043.41949999213,
      "d": 260.8694999999716,
      "v": 100
    },
    {
      "midi": 57,
      "hit": false,
      "t": 235173.85424999212,
      "d": 86.95650000000023,
      "v": 110
    },
    {
      "midi": 52,
      "hit": false,
      "t": 235173.85424999212,
      "d": 217.39124999998603,
      "v": 100
    },
    {
      "midi": 61,
      "hit": false,
      "t": 235173.85424999212,
      "d": 217.39124999998603,
      "v": 100
    },
    {
      "midi": 57,
      "hit": false,
      "t": 235304.2889999921,
      "d": 86.95650000000023,
      "v": 110
    },
    {
      "midi": 57,
      "hit": false,
      "t": 235434.7237499921,
      "d": 86.95650000000023,
      "v": 110
    },
    {
      "midi": 45,
      "hit": false,
      "t": 235434.7237499921,
      "d": 260.8694999999716,
      "v": 100
    },
    {
      "midi": 57,
      "hit": false,
      "t": 235565.15849999207,
      "d": 86.95650000000023,
      "v": 110
    },
    {
      "midi": 52,
      "hit": false,
      "t": 235565.15849999207,
      "d": 217.39124999998603,
      "v": 94
    },
    {
      "midi": 61,
      "hit": false,
      "t": 235565.15849999207,
      "d": 217.39124999998603,
      "v": 94
    },
    {
      "midi": 57,
      "hit": false,
      "t": 235695.59324999206,
      "d": 86.95650000000023,
      "v": 110
    },
    {
      "midi": 62,
      "hit": false,
      "t": 235826.02799999205,
      "d": 86.95650000000023,
      "v": 110
    },
    {
      "midi": 38,
      "hit": false,
      "t": 235826.02799999205,
      "d": 347.8259999999718,
      "v": 100
    },
    {
      "midi": 62,
      "hit": false,
      "t": 235956.46274999203,
      "d": 86.95650000000023,
      "v": 110
    },
    {
      "midi": 62,
      "hit": false,
      "t": 236086.89749999202,
      "d": 86.95650000000023,
      "v": 110
    },
    {
      "midi": 54,
      "hit": false,
      "t": 236086.89749999202,
      "d": 217.39124999998603,
      "v": 99
    },
    {
      "midi": 57,
      "hit": false,
      "t": 236086.89749999202,
      "d": 217.39124999998603,
      "v": 99
    },
    {
      "midi": 62,
      "hit": false,
      "t": 236217.332249992,
      "d": 86.95650000000023,
      "v": 110
    },
    {
      "midi": 62,
      "hit": false,
      "t": 236347.766999992,
      "d": 86.95650000000023,
      "v": 110
    },
    {
      "midi": 38,
      "hit": false,
      "t": 236347.766999992,
      "d": 260.8694999999716,
      "v": 100
    },
    {
      "midi": 62,
      "hit": false,
      "t": 236478.20174999197,
      "d": 86.95650000000023,
      "v": 110
    },
    {
      "midi": 54,
      "hit": false,
      "t": 236478.20174999197,
      "d": 217.39124999998603,
      "v": 94
    },
    {
      "midi": 57,
      "hit": false,
      "t": 236478.20174999197,
      "d": 217.39124999998603,
      "v": 94
    },
    {
      "midi": 62,
      "hit": false,
      "t": 236608.63649999196,
      "d": 86.95650000000023,
      "v": 110
    },
    {
      "midi": 62,
      "hit": false,
      "t": 236739.07124999195,
      "d": 86.95650000000023,
      "v": 110
    },
    {
      "midi": 38,
      "hit": false,
      "t": 236739.07124999195,
      "d": 260.8694999999716,
      "v": 100
    },
    {
      "midi": 62,
      "hit": false,
      "t": 236869.50599999193,
      "d": 86.95650000000023,
      "v": 110
    },
    {
      "midi": 54,
      "hit": false,
      "t": 236869.50599999193,
      "d": 217.39124999998603,
      "v": 97
    },
    {
      "midi": 57,
      "hit": false,
      "t": 236869.50599999193,
      "d": 217.39124999998603,
      "v": 97
    },
    {
      "midi": 62,
      "hit": false,
      "t": 236999.94074999192,
      "d": 86.95650000000023,
      "v": 110
    },
    {
      "midi": 62,
      "hit": false,
      "t": 237130.3754999919,
      "d": 86.95650000000023,
      "v": 110
    },
    {
      "midi": 38,
      "hit": false,
      "t": 237130.3754999919,
      "d": 260.8694999999716,
      "v": 100
    },
    {
      "midi": 62,
      "hit": false,
      "t": 237260.8102499919,
      "d": 86.95650000000023,
      "v": 110
    },
    {
      "midi": 54,
      "hit": false,
      "t": 237260.8102499919,
      "d": 217.39124999998603,
      "v": 100
    },
    {
      "midi": 57,
      "hit": false,
      "t": 237260.8102499919,
      "d": 217.39124999998603,
      "v": 100
    },
    {
      "midi": 62,
      "hit": false,
      "t": 237391.24499999188,
      "d": 86.95650000000023,
      "v": 110
    },
    {
      "midi": 62,
      "hit": false,
      "t": 237521.67974999186,
      "d": 86.95650000000023,
      "v": 110
    },
    {
      "midi": 38,
      "hit": false,
      "t": 237521.67974999186,
      "d": 260.8694999999716,
      "v": 100
    },
    {
      "midi": 62,
      "hit": false,
      "t": 237652.11449999185,
      "d": 86.95650000000023,
      "v": 110
    },
    {
      "midi": 54,
      "hit": false,
      "t": 237652.11449999185,
      "d": 217.39124999998603,
      "v": 94
    },
    {
      "midi": 57,
      "hit": false,
      "t": 237652.11449999185,
      "d": 217.39124999998603,
      "v": 94
    },
    {
      "midi": 62,
      "hit": false,
      "t": 237782.54924999183,
      "d": 86.95650000000023,
      "v": 110
    },
    {
      "midi": 57,
      "hit": false,
      "t": 237912.98399999182,
      "d": 86.95650000000023,
      "v": 110
    },
    {
      "midi": 45,
      "hit": false,
      "t": 237912.98399999182,
      "d": 347.8259999999718,
      "v": 100
    },
    {
      "midi": 57,
      "hit": false,
      "t": 238043.4187499918,
      "d": 86.95650000000023,
      "v": 110
    },
    {
      "midi": 57,
      "hit": false,
      "t": 238173.8534999918,
      "d": 86.95650000000023,
      "v": 110
    },
    {
      "midi": 52,
      "hit": false,
      "t": 238173.8534999918,
      "d": 217.39124999998603,
      "v": 99
    },
    {
      "midi": 61,
      "hit": false,
      "t": 238173.8534999918,
      "d": 217.39124999998603,
      "v": 99
    },
    {
      "midi": 57,
      "hit": false,
      "t": 238304.28824999178,
      "d": 86.95650000000023,
      "v": 110
    },
    {
      "midi": 57,
      "hit": false,
      "t": 238434.72299999176,
      "d": 86.95650000000023,
      "v": 110
    },
    {
      "midi": 45,
      "hit": false,
      "t": 238434.72299999176,
      "d": 260.8694999999716,
      "v": 100
    },
    {
      "midi": 57,
      "hit": false,
      "t": 238565.15774999175,
      "d": 86.95650000000023,
      "v": 110
    },
    {
      "midi": 52,
      "hit": false,
      "t": 238565.15774999175,
      "d": 217.39124999998603,
      "v": 94
    },
    {
      "midi": 61,
      "hit": false,
      "t": 238565.15774999175,
      "d": 217.39124999998603,
      "v": 94
    },
    {
      "midi": 57,
      "hit": false,
      "t": 238695.59249999173,
      "d": 86.95650000000023,
      "v": 110
    },
    {
      "midi": 57,
      "hit": false,
      "t": 238826.02724999172,
      "d": 86.95650000000023,
      "v": 110
    },
    {
      "midi": 45,
      "hit": false,
      "t": 238826.02724999172,
      "d": 260.8694999999716,
      "v": 100
    },
    {
      "midi": 57,
      "hit": false,
      "t": 238956.4619999917,
      "d": 86.95650000000023,
      "v": 110
    },
    {
      "midi": 52,
      "hit": false,
      "t": 238956.4619999917,
      "d": 217.39124999998603,
      "v": 97
    },
    {
      "midi": 61,
      "hit": false,
      "t": 238956.4619999917,
      "d": 217.39124999998603,
      "v": 97
    },
    {
      "midi": 57,
      "hit": false,
      "t": 239086.8967499917,
      "d": 86.95650000000023,
      "v": 110
    },
    {
      "midi": 57,
      "hit": false,
      "t": 239217.33149999168,
      "d": 86.95650000000023,
      "v": 110
    },
    {
      "midi": 45,
      "hit": false,
      "t": 239217.33149999168,
      "d": 260.8694999999716,
      "v": 100
    },
    {
      "midi": 57,
      "hit": false,
      "t": 239347.76624999166,
      "d": 86.95650000000023,
      "v": 110
    },
    {
      "midi": 52,
      "hit": false,
      "t": 239347.76624999166,
      "d": 217.39124999998603,
      "v": 100
    },
    {
      "midi": 61,
      "hit": false,
      "t": 239347.76624999166,
      "d": 217.39124999998603,
      "v": 100
    },
    {
      "midi": 57,
      "hit": false,
      "t": 239478.20099999165,
      "d": 86.95650000000023,
      "v": 110
    },
    {
      "midi": 57,
      "hit": false,
      "t": 239608.63574999163,
      "d": 86.95650000000023,
      "v": 110
    },
    {
      "midi": 45,
      "hit": false,
      "t": 239608.63574999163,
      "d": 260.8694999999716,
      "v": 100
    },
    {
      "midi": 57,
      "hit": false,
      "t": 239739.07049999162,
      "d": 86.95650000000023,
      "v": 110
    },
    {
      "midi": 52,
      "hit": false,
      "t": 239739.07049999162,
      "d": 217.39124999998603,
      "v": 94
    },
    {
      "midi": 61,
      "hit": false,
      "t": 239739.07049999162,
      "d": 217.39124999998603,
      "v": 94
    },
    {
      "midi": 57,
      "hit": false,
      "t": 239869.5052499916,
      "d": 86.95650000000023,
      "v": 110
    },
    {
      "midi": 59,
      "hit": false,
      "t": 239999.9399999916,
      "d": 86.95650000000023,
      "v": 110
    },
    {
      "midi": 35,
      "hit": false,
      "t": 239999.9399999916,
      "d": 347.8259999999718,
      "v": 100
    },
    {
      "midi": 59,
      "hit": false,
      "t": 240130.37474999158,
      "d": 86.95650000000023,
      "v": 110
    },
    {
      "midi": 59,
      "hit": false,
      "t": 240260.80949999156,
      "d": 86.95650000000023,
      "v": 110
    },
    {
      "midi": 54,
      "hit": false,
      "t": 240260.80949999156,
      "d": 217.39124999998603,
      "v": 99
    },
    {
      "midi": 62,
      "hit": false,
      "t": 240260.80949999156,
      "d": 217.39124999998603,
      "v": 99
    },
    {
      "midi": 59,
      "hit": false,
      "t": 240391.24424999155,
      "d": 86.95650000000023,
      "v": 110
    },
    {
      "midi": 59,
      "hit": false,
      "t": 240521.67899999153,
      "d": 86.95650000000023,
      "v": 110
    },
    {
      "midi": 35,
      "hit": false,
      "t": 240521.67899999153,
      "d": 260.8694999999716,
      "v": 100
    },
    {
      "midi": 59,
      "hit": false,
      "t": 240652.11374999152,
      "d": 86.95650000000023,
      "v": 110
    },
    {
      "midi": 54,
      "hit": false,
      "t": 240652.11374999152,
      "d": 217.39124999998603,
      "v": 94
    },
    {
      "midi": 62,
      "hit": false,
      "t": 240652.11374999152,
      "d": 217.39124999998603,
      "v": 94
    },
    {
      "midi": 59,
      "hit": false,
      "t": 240782.5484999915,
      "d": 86.95650000000023,
      "v": 110
    },
    {
      "midi": 59,
      "hit": false,
      "t": 240912.9832499915,
      "d": 86.95650000000023,
      "v": 110
    },
    {
      "midi": 35,
      "hit": false,
      "t": 240912.9832499915,
      "d": 260.8694999999716,
      "v": 100
    },
    {
      "midi": 59,
      "hit": false,
      "t": 241043.41799999148,
      "d": 86.95650000000023,
      "v": 110
    },
    {
      "midi": 54,
      "hit": false,
      "t": 241043.41799999148,
      "d": 217.39124999998603,
      "v": 97
    },
    {
      "midi": 62,
      "hit": false,
      "t": 241043.41799999148,
      "d": 217.39124999998603,
      "v": 97
    },
    {
      "midi": 59,
      "hit": false,
      "t": 241173.85274999146,
      "d": 86.95650000000023,
      "v": 110
    },
    {
      "midi": 59,
      "hit": false,
      "t": 241304.28749999145,
      "d": 86.95650000000023,
      "v": 110
    },
    {
      "midi": 35,
      "hit": false,
      "t": 241304.28749999145,
      "d": 260.8694999999716,
      "v": 100
    },
    {
      "midi": 59,
      "hit": false,
      "t": 241434.72224999144,
      "d": 86.95650000000023,
      "v": 110
    },
    {
      "midi": 54,
      "hit": false,
      "t": 241434.72224999144,
      "d": 217.39124999998603,
      "v": 100
    },
    {
      "midi": 62,
      "hit": false,
      "t": 241434.72224999144,
      "d": 217.39124999998603,
      "v": 100
    },
    {
      "midi": 59,
      "hit": false,
      "t": 241565.15699999142,
      "d": 86.95650000000023,
      "v": 110
    },
    {
      "midi": 59,
      "hit": false,
      "t": 241695.5917499914,
      "d": 86.95650000000023,
      "v": 110
    },
    {
      "midi": 35,
      "hit": false,
      "t": 241695.5917499914,
      "d": 260.8694999999716,
      "v": 100
    },
    {
      "midi": 59,
      "hit": false,
      "t": 241826.0264999914,
      "d": 86.95650000000023,
      "v": 110
    },
    {
      "midi": 54,
      "hit": false,
      "t": 241826.0264999914,
      "d": 217.39124999998603,
      "v": 94
    },
    {
      "midi": 62,
      "hit": false,
      "t": 241826.0264999914,
      "d": 217.39124999998603,
      "v": 94
    },
    {
      "midi": 59,
      "hit": false,
      "t": 241956.46124999138,
      "d": 86.95650000000023,
      "v": 110
    },
    {
      "midi": 54,
      "hit": false,
      "t": 242086.89599999136,
      "d": 86.95650000000023,
      "v": 110
    },
    {
      "midi": 42,
      "hit": false,
      "t": 242086.89599999136,
      "d": 347.8259999999718,
      "v": 100
    },
    {
      "midi": 54,
      "hit": false,
      "t": 242217.33074999135,
      "d": 86.95650000000023,
      "v": 110
    },
    {
      "midi": 54,
      "hit": false,
      "t": 242347.76549999134,
      "d": 86.95650000000023,
      "v": 110
    },
    {
      "midi": 57,
      "hit": false,
      "t": 242347.76549999134,
      "d": 217.39124999998603,
      "v": 99
    },
    {
      "midi": 61,
      "hit": false,
      "t": 242347.76549999134,
      "d": 217.39124999998603,
      "v": 99
    },
    {
      "midi": 54,
      "hit": false,
      "t": 242478.20024999132,
      "d": 86.95650000000023,
      "v": 110
    },
    {
      "midi": 54,
      "hit": false,
      "t": 242608.6349999913,
      "d": 86.95650000000023,
      "v": 110
    },
    {
      "midi": 42,
      "hit": false,
      "t": 242608.6349999913,
      "d": 260.8694999999716,
      "v": 100
    },
    {
      "midi": 54,
      "hit": false,
      "t": 242739.0697499913,
      "d": 86.95650000000023,
      "v": 110
    },
    {
      "midi": 57,
      "hit": false,
      "t": 242739.0697499913,
      "d": 217.39124999998603,
      "v": 94
    },
    {
      "midi": 61,
      "hit": false,
      "t": 242739.0697499913,
      "d": 217.39124999998603,
      "v": 94
    },
    {
      "midi": 54,
      "hit": false,
      "t": 242869.50449999128,
      "d": 86.95650000000023,
      "v": 110
    },
    {
      "midi": 54,
      "hit": false,
      "t": 242999.93924999126,
      "d": 86.95650000000023,
      "v": 110
    },
    {
      "midi": 42,
      "hit": false,
      "t": 242999.93924999126,
      "d": 260.8694999999716,
      "v": 100
    },
    {
      "midi": 54,
      "hit": false,
      "t": 243130.37399999125,
      "d": 86.95650000000023,
      "v": 110
    },
    {
      "midi": 57,
      "hit": false,
      "t": 243130.37399999125,
      "d": 217.39124999998603,
      "v": 97
    },
    {
      "midi": 61,
      "hit": false,
      "t": 243130.37399999125,
      "d": 217.39124999998603,
      "v": 97
    },
    {
      "midi": 54,
      "hit": false,
      "t": 243260.80874999124,
      "d": 86.95650000000023,
      "v": 110
    },
    {
      "midi": 54,
      "hit": false,
      "t": 243391.24349999122,
      "d": 86.95650000000023,
      "v": 110
    },
    {
      "midi": 42,
      "hit": false,
      "t": 243391.24349999122,
      "d": 260.8694999999716,
      "v": 100
    },
    {
      "midi": 54,
      "hit": false,
      "t": 243521.6782499912,
      "d": 86.95650000000023,
      "v": 110
    },
    {
      "midi": 57,
      "hit": false,
      "t": 243521.6782499912,
      "d": 217.39124999998603,
      "v": 100
    },
    {
      "midi": 61,
      "hit": false,
      "t": 243521.6782499912,
      "d": 217.39124999998603,
      "v": 100
    },
    {
      "midi": 54,
      "hit": false,
      "t": 243652.1129999912,
      "d": 86.95650000000023,
      "v": 110
    },
    {
      "midi": 54,
      "hit": false,
      "t": 243782.54774999118,
      "d": 86.95650000000023,
      "v": 110
    },
    {
      "midi": 42,
      "hit": false,
      "t": 243782.54774999118,
      "d": 260.8694999999716,
      "v": 100
    },
    {
      "midi": 54,
      "hit": false,
      "t": 243912.98249999117,
      "d": 86.95650000000023,
      "v": 110
    },
    {
      "midi": 57,
      "hit": false,
      "t": 243912.98249999117,
      "d": 217.39124999998603,
      "v": 94
    },
    {
      "midi": 61,
      "hit": false,
      "t": 243912.98249999117,
      "d": 217.39124999998603,
      "v": 94
    },
    {
      "midi": 54,
      "hit": false,
      "t": 244043.41724999115,
      "d": 86.95650000000023,
      "v": 110
    },
    {
      "midi": 55,
      "hit": false,
      "t": 244173.85199999114,
      "d": 86.95650000000023,
      "v": 110
    },
    {
      "midi": 43,
      "hit": false,
      "t": 244173.85199999114,
      "d": 347.8259999999718,
      "v": 100
    },
    {
      "midi": 55,
      "hit": false,
      "t": 244304.28674999112,
      "d": 86.95650000000023,
      "v": 110
    },
    {
      "midi": 55,
      "hit": false,
      "t": 244434.7214999911,
      "d": 86.95650000000023,
      "v": 110
    },
    {
      "midi": 59,
      "hit": false,
      "t": 244434.7214999911,
      "d": 217.39124999998603,
      "v": 99
    },
    {
      "midi": 62,
      "hit": false,
      "t": 244434.7214999911,
      "d": 217.39124999998603,
      "v": 99
    },
    {
      "midi": 55,
      "hit": false,
      "t": 244565.1562499911,
      "d": 86.95650000000023,
      "v": 110
    },
    {
      "midi": 55,
      "hit": false,
      "t": 244695.59099999108,
      "d": 86.95650000000023,
      "v": 110
    },
    {
      "midi": 43,
      "hit": false,
      "t": 244695.59099999108,
      "d": 260.8694999999716,
      "v": 100
    },
    {
      "midi": 55,
      "hit": false,
      "t": 244826.02574999107,
      "d": 86.95650000000023,
      "v": 110
    },
    {
      "midi": 59,
      "hit": false,
      "t": 244826.02574999107,
      "d": 217.39124999998603,
      "v": 94
    },
    {
      "midi": 62,
      "hit": false,
      "t": 244826.02574999107,
      "d": 217.39124999998603,
      "v": 94
    },
    {
      "midi": 55,
      "hit": false,
      "t": 244956.46049999105,
      "d": 86.95650000000023,
      "v": 110
    },
    {
      "midi": 55,
      "hit": false,
      "t": 245086.89524999104,
      "d": 86.95650000000023,
      "v": 110
    },
    {
      "midi": 43,
      "hit": false,
      "t": 245086.89524999104,
      "d": 260.8694999999716,
      "v": 100
    },
    {
      "midi": 55,
      "hit": false,
      "t": 245217.32999999102,
      "d": 86.95650000000023,
      "v": 110
    },
    {
      "midi": 59,
      "hit": false,
      "t": 245217.32999999102,
      "d": 217.39124999998603,
      "v": 97
    },
    {
      "midi": 62,
      "hit": false,
      "t": 245217.32999999102,
      "d": 217.39124999998603,
      "v": 97
    },
    {
      "midi": 55,
      "hit": false,
      "t": 245347.764749991,
      "d": 86.95650000000023,
      "v": 110
    },
    {
      "midi": 55,
      "hit": false,
      "t": 245478.199499991,
      "d": 86.95650000000023,
      "v": 110
    },
    {
      "midi": 43,
      "hit": false,
      "t": 245478.199499991,
      "d": 260.8694999999716,
      "v": 100
    },
    {
      "midi": 55,
      "hit": false,
      "t": 245608.63424999098,
      "d": 86.95650000000023,
      "v": 110
    },
    {
      "midi": 59,
      "hit": false,
      "t": 245608.63424999098,
      "d": 217.39124999998603,
      "v": 100
    },
    {
      "midi": 62,
      "hit": false,
      "t": 245608.63424999098,
      "d": 217.39124999998603,
      "v": 100
    },
    {
      "midi": 55,
      "hit": false,
      "t": 245739.06899999097,
      "d": 86.95650000000023,
      "v": 110
    },
    {
      "midi": 55,
      "hit": false,
      "t": 245869.50374999095,
      "d": 86.95650000000023,
      "v": 110
    },
    {
      "midi": 43,
      "hit": false,
      "t": 245869.50374999095,
      "d": 260.8694999999716,
      "v": 100
    },
    {
      "midi": 55,
      "hit": false,
      "t": 245999.93849999094,
      "d": 86.95650000000023,
      "v": 110
    },
    {
      "midi": 59,
      "hit": false,
      "t": 245999.93849999094,
      "d": 217.39124999998603,
      "v": 94
    },
    {
      "midi": 62,
      "hit": false,
      "t": 245999.93849999094,
      "d": 217.39124999998603,
      "v": 94
    },
    {
      "midi": 55,
      "hit": false,
      "t": 246130.37324999092,
      "d": 86.95650000000023,
      "v": 110
    },
    {
      "midi": 62,
      "hit": false,
      "t": 246260.8079999909,
      "d": 86.95650000000023,
      "v": 110
    },
    {
      "midi": 38,
      "hit": false,
      "t": 246260.8079999909,
      "d": 347.8259999999718,
      "v": 100
    },
    {
      "midi": 62,
      "hit": false,
      "t": 246391.2427499909,
      "d": 86.95650000000023,
      "v": 110
    },
    {
      "midi": 62,
      "hit": false,
      "t": 246521.67749999088,
      "d": 86.95650000000023,
      "v": 110
    },
    {
      "midi": 54,
      "hit": false,
      "t": 246521.67749999088,
      "d": 217.39124999998603,
      "v": 99
    },
    {
      "midi": 57,
      "hit": false,
      "t": 246521.67749999088,
      "d": 217.39124999998603,
      "v": 99
    },
    {
      "midi": 62,
      "hit": false,
      "t": 246652.11224999087,
      "d": 86.95650000000023,
      "v": 110
    },
    {
      "midi": 62,
      "hit": false,
      "t": 246782.54699999085,
      "d": 86.95650000000023,
      "v": 110
    },
    {
      "midi": 38,
      "hit": false,
      "t": 246782.54699999085,
      "d": 260.8694999999716,
      "v": 100
    },
    {
      "midi": 62,
      "hit": false,
      "t": 246912.98174999084,
      "d": 86.95650000000023,
      "v": 110
    },
    {
      "midi": 54,
      "hit": false,
      "t": 246912.98174999084,
      "d": 217.39124999998603,
      "v": 94
    },
    {
      "midi": 57,
      "hit": false,
      "t": 246912.98174999084,
      "d": 217.39124999998603,
      "v": 94
    },
    {
      "midi": 62,
      "hit": false,
      "t": 247043.41649999082,
      "d": 86.95650000000023,
      "v": 110
    },
    {
      "midi": 62,
      "hit": false,
      "t": 247173.8512499908,
      "d": 86.95650000000023,
      "v": 110
    },
    {
      "midi": 38,
      "hit": false,
      "t": 247173.8512499908,
      "d": 260.8694999999716,
      "v": 100
    },
    {
      "midi": 62,
      "hit": false,
      "t": 247304.2859999908,
      "d": 86.95650000000023,
      "v": 110
    },
    {
      "midi": 54,
      "hit": false,
      "t": 247304.2859999908,
      "d": 217.39124999998603,
      "v": 97
    },
    {
      "midi": 57,
      "hit": false,
      "t": 247304.2859999908,
      "d": 217.39124999998603,
      "v": 97
    },
    {
      "midi": 62,
      "hit": false,
      "t": 247434.72074999078,
      "d": 86.95650000000023,
      "v": 110
    },
    {
      "midi": 62,
      "hit": false,
      "t": 247565.15549999077,
      "d": 86.95650000000023,
      "v": 110
    },
    {
      "midi": 38,
      "hit": false,
      "t": 247565.15549999077,
      "d": 260.8694999999716,
      "v": 100
    },
    {
      "midi": 62,
      "hit": false,
      "t": 247695.59024999075,
      "d": 86.95650000000023,
      "v": 110
    },
    {
      "midi": 54,
      "hit": false,
      "t": 247695.59024999075,
      "d": 217.39124999998603,
      "v": 100
    },
    {
      "midi": 57,
      "hit": false,
      "t": 247695.59024999075,
      "d": 217.39124999998603,
      "v": 100
    },
    {
      "midi": 62,
      "hit": false,
      "t": 247826.02499999074,
      "d": 86.95650000000023,
      "v": 110
    },
    {
      "midi": 62,
      "hit": false,
      "t": 247956.45974999072,
      "d": 86.95650000000023,
      "v": 110
    },
    {
      "midi": 38,
      "hit": false,
      "t": 247956.45974999072,
      "d": 260.8694999999716,
      "v": 100
    },
    {
      "midi": 62,
      "hit": false,
      "t": 248086.8944999907,
      "d": 86.95650000000023,
      "v": 110
    },
    {
      "midi": 54,
      "hit": false,
      "t": 248086.8944999907,
      "d": 217.39124999998603,
      "v": 94
    },
    {
      "midi": 57,
      "hit": false,
      "t": 248086.8944999907,
      "d": 217.39124999998603,
      "v": 94
    },
    {
      "midi": 62,
      "hit": false,
      "t": 248217.3292499907,
      "d": 86.95650000000023,
      "v": 110
    },
    {
      "midi": 52,
      "hit": false,
      "t": 248347.76399999068,
      "d": 86.95650000000023,
      "v": 110
    },
    {
      "midi": 40,
      "hit": false,
      "t": 248347.76399999068,
      "d": 347.8259999999718,
      "v": 100
    },
    {
      "midi": 52,
      "hit": false,
      "t": 248478.19874999067,
      "d": 86.95650000000023,
      "v": 110
    },
    {
      "midi": 52,
      "hit": false,
      "t": 248608.63349999065,
      "d": 86.95650000000023,
      "v": 110
    },
    {
      "midi": 55,
      "hit": false,
      "t": 248608.63349999065,
      "d": 217.39124999998603,
      "v": 99
    },
    {
      "midi": 59,
      "hit": false,
      "t": 248608.63349999065,
      "d": 217.39124999998603,
      "v": 99
    },
    {
      "midi": 52,
      "hit": false,
      "t": 248739.06824999064,
      "d": 86.95650000000023,
      "v": 110
    },
    {
      "midi": 52,
      "hit": false,
      "t": 248869.50299999063,
      "d": 86.95650000000023,
      "v": 110
    },
    {
      "midi": 40,
      "hit": false,
      "t": 248869.50299999063,
      "d": 260.8694999999716,
      "v": 100
    },
    {
      "midi": 52,
      "hit": false,
      "t": 248999.9377499906,
      "d": 86.95650000000023,
      "v": 110
    },
    {
      "midi": 55,
      "hit": false,
      "t": 248999.9377499906,
      "d": 217.39124999998603,
      "v": 94
    },
    {
      "midi": 59,
      "hit": false,
      "t": 248999.9377499906,
      "d": 217.39124999998603,
      "v": 94
    },
    {
      "midi": 52,
      "hit": false,
      "t": 249130.3724999906,
      "d": 86.95650000000023,
      "v": 110
    },
    {
      "midi": 52,
      "hit": false,
      "t": 249260.80724999058,
      "d": 86.95650000000023,
      "v": 110
    },
    {
      "midi": 40,
      "hit": false,
      "t": 249260.80724999058,
      "d": 260.8694999999716,
      "v": 100
    },
    {
      "midi": 52,
      "hit": false,
      "t": 249391.24199999057,
      "d": 86.95650000000023,
      "v": 110
    },
    {
      "midi": 55,
      "hit": false,
      "t": 249391.24199999057,
      "d": 217.39124999998603,
      "v": 97
    },
    {
      "midi": 59,
      "hit": false,
      "t": 249391.24199999057,
      "d": 217.39124999998603,
      "v": 97
    },
    {
      "midi": 52,
      "hit": false,
      "t": 249521.67674999055,
      "d": 86.95650000000023,
      "v": 110
    },
    {
      "midi": 52,
      "hit": false,
      "t": 249652.11149999054,
      "d": 86.95650000000023,
      "v": 110
    },
    {
      "midi": 40,
      "hit": false,
      "t": 249652.11149999054,
      "d": 260.8694999999716,
      "v": 100
    },
    {
      "midi": 52,
      "hit": false,
      "t": 249782.54624999053,
      "d": 86.95650000000023,
      "v": 110
    },
    {
      "midi": 55,
      "hit": false,
      "t": 249782.54624999053,
      "d": 217.39124999998603,
      "v": 100
    },
    {
      "midi": 59,
      "hit": false,
      "t": 249782.54624999053,
      "d": 217.39124999998603,
      "v": 100
    },
    {
      "midi": 52,
      "hit": false,
      "t": 249912.9809999905,
      "d": 86.95650000000023,
      "v": 110
    },
    {
      "midi": 52,
      "hit": false,
      "t": 250043.4157499905,
      "d": 86.95650000000023,
      "v": 110
    },
    {
      "midi": 40,
      "hit": false,
      "t": 250043.4157499905,
      "d": 260.8694999999716,
      "v": 100
    },
    {
      "midi": 52,
      "hit": false,
      "t": 250173.85049999048,
      "d": 86.95650000000023,
      "v": 110
    },
    {
      "midi": 55,
      "hit": false,
      "t": 250173.85049999048,
      "d": 217.39124999998603,
      "v": 94
    },
    {
      "midi": 59,
      "hit": false,
      "t": 250173.85049999048,
      "d": 217.39124999998603,
      "v": 94
    },
    {
      "midi": 52,
      "hit": false,
      "t": 250304.28524999047,
      "d": 86.95650000000023,
      "v": 110
    },
    {
      "midi": 57,
      "hit": false,
      "t": 250434.71999999046,
      "d": 86.95650000000023,
      "v": 110
    },
    {
      "midi": 45,
      "hit": false,
      "t": 250434.71999999046,
      "d": 347.8259999999718,
      "v": 100
    },
    {
      "midi": 57,
      "hit": false,
      "t": 250565.15474999044,
      "d": 86.95650000000023,
      "v": 110
    },
    {
      "midi": 57,
      "hit": false,
      "t": 250695.58949999043,
      "d": 86.95650000000023,
      "v": 110
    },
    {
      "midi": 52,
      "hit": false,
      "t": 250695.58949999043,
      "d": 217.39124999998603,
      "v": 99
    },
    {
      "midi": 61,
      "hit": false,
      "t": 250695.58949999043,
      "d": 217.39124999998603,
      "v": 99
    },
    {
      "midi": 57,
      "hit": false,
      "t": 250826.0242499904,
      "d": 86.95650000000023,
      "v": 110
    },
    {
      "midi": 57,
      "hit": false,
      "t": 250956.4589999904,
      "d": 86.95650000000023,
      "v": 110
    },
    {
      "midi": 45,
      "hit": false,
      "t": 250956.4589999904,
      "d": 260.8694999999716,
      "v": 100
    },
    {
      "midi": 57,
      "hit": false,
      "t": 251086.89374999038,
      "d": 86.95650000000023,
      "v": 110
    },
    {
      "midi": 52,
      "hit": false,
      "t": 251086.89374999038,
      "d": 217.39124999998603,
      "v": 94
    },
    {
      "midi": 61,
      "hit": false,
      "t": 251086.89374999038,
      "d": 217.39124999998603,
      "v": 94
    },
    {
      "midi": 57,
      "hit": false,
      "t": 251217.32849999037,
      "d": 86.95650000000023,
      "v": 110
    },
    {
      "midi": 57,
      "hit": false,
      "t": 251347.76324999036,
      "d": 86.95650000000023,
      "v": 110
    },
    {
      "midi": 45,
      "hit": false,
      "t": 251347.76324999036,
      "d": 260.8694999999716,
      "v": 100
    },
    {
      "midi": 57,
      "hit": false,
      "t": 251478.19799999034,
      "d": 86.95650000000023,
      "v": 110
    },
    {
      "midi": 52,
      "hit": false,
      "t": 251478.19799999034,
      "d": 217.39124999998603,
      "v": 97
    },
    {
      "midi": 61,
      "hit": false,
      "t": 251478.19799999034,
      "d": 217.39124999998603,
      "v": 97
    },
    {
      "midi": 57,
      "hit": false,
      "t": 251608.63274999033,
      "d": 86.95650000000023,
      "v": 110
    },
    {
      "midi": 57,
      "hit": false,
      "t": 251739.0674999903,
      "d": 86.95650000000023,
      "v": 110
    },
    {
      "midi": 45,
      "hit": false,
      "t": 251739.0674999903,
      "d": 260.8694999999716,
      "v": 100
    },
    {
      "midi": 57,
      "hit": false,
      "t": 251869.5022499903,
      "d": 86.95650000000023,
      "v": 110
    },
    {
      "midi": 52,
      "hit": false,
      "t": 251869.5022499903,
      "d": 217.39124999998603,
      "v": 100
    },
    {
      "midi": 61,
      "hit": false,
      "t": 251869.5022499903,
      "d": 217.39124999998603,
      "v": 100
    },
    {
      "midi": 57,
      "hit": false,
      "t": 251999.93699999028,
      "d": 86.95650000000023,
      "v": 110
    },
    {
      "midi": 57,
      "hit": false,
      "t": 252130.37174999027,
      "d": 86.95650000000023,
      "v": 110
    },
    {
      "midi": 45,
      "hit": false,
      "t": 252130.37174999027,
      "d": 260.8694999999716,
      "v": 100
    },
    {
      "midi": 57,
      "hit": false,
      "t": 252260.80649999026,
      "d": 86.95650000000023,
      "v": 110
    },
    {
      "midi": 52,
      "hit": false,
      "t": 252260.80649999026,
      "d": 217.39124999998603,
      "v": 94
    },
    {
      "midi": 61,
      "hit": false,
      "t": 252260.80649999026,
      "d": 217.39124999998603,
      "v": 94
    },
    {
      "midi": 57,
      "hit": false,
      "t": 252391.24124999024,
      "d": 86.95650000000023,
      "v": 110
    },
    {
      "midi": 62,
      "hit": false,
      "t": 252521.67599999023,
      "d": 86.95650000000023,
      "v": 110
    },
    {
      "midi": 38,
      "hit": false,
      "t": 252521.67599999023,
      "d": 347.8259999999718,
      "v": 100
    },
    {
      "midi": 62,
      "hit": false,
      "t": 252652.1107499902,
      "d": 86.95650000000023,
      "v": 110
    },
    {
      "midi": 62,
      "hit": false,
      "t": 252782.5454999902,
      "d": 86.95650000000023,
      "v": 110
    },
    {
      "midi": 54,
      "hit": false,
      "t": 252782.5454999902,
      "d": 217.39124999998603,
      "v": 99
    },
    {
      "midi": 57,
      "hit": false,
      "t": 252782.5454999902,
      "d": 217.39124999998603,
      "v": 99
    },
    {
      "midi": 62,
      "hit": false,
      "t": 252912.98024999019,
      "d": 86.95650000000023,
      "v": 110
    },
    {
      "midi": 62,
      "hit": false,
      "t": 253043.41499999017,
      "d": 86.95650000000023,
      "v": 110
    },
    {
      "midi": 38,
      "hit": false,
      "t": 253043.41499999017,
      "d": 260.8694999999716,
      "v": 100
    },
    {
      "midi": 62,
      "hit": false,
      "t": 253173.84974999016,
      "d": 86.95650000000023,
      "v": 110
    },
    {
      "midi": 54,
      "hit": false,
      "t": 253173.84974999016,
      "d": 217.39124999998603,
      "v": 94
    },
    {
      "midi": 57,
      "hit": false,
      "t": 253173.84974999016,
      "d": 217.39124999998603,
      "v": 94
    },
    {
      "midi": 62,
      "hit": false,
      "t": 253304.28449999014,
      "d": 86.95650000000023,
      "v": 110
    },
    {
      "midi": 62,
      "hit": false,
      "t": 253434.71924999013,
      "d": 86.95650000000023,
      "v": 110
    },
    {
      "midi": 38,
      "hit": false,
      "t": 253434.71924999013,
      "d": 260.8694999999716,
      "v": 100
    },
    {
      "midi": 62,
      "hit": false,
      "t": 253565.1539999901,
      "d": 86.95650000000023,
      "v": 110
    },
    {
      "midi": 54,
      "hit": false,
      "t": 253565.1539999901,
      "d": 217.39124999998603,
      "v": 97
    },
    {
      "midi": 57,
      "hit": false,
      "t": 253565.1539999901,
      "d": 217.39124999998603,
      "v": 97
    },
    {
      "midi": 62,
      "hit": false,
      "t": 253695.5887499901,
      "d": 86.95650000000023,
      "v": 110
    },
    {
      "midi": 62,
      "hit": false,
      "t": 253826.0234999901,
      "d": 86.95650000000023,
      "v": 110
    },
    {
      "midi": 38,
      "hit": false,
      "t": 253826.0234999901,
      "d": 260.8694999999716,
      "v": 100
    },
    {
      "midi": 62,
      "hit": false,
      "t": 253956.45824999007,
      "d": 86.95650000000023,
      "v": 110
    },
    {
      "midi": 54,
      "hit": false,
      "t": 253956.45824999007,
      "d": 217.39124999998603,
      "v": 100
    },
    {
      "midi": 57,
      "hit": false,
      "t": 253956.45824999007,
      "d": 217.39124999998603,
      "v": 100
    },
    {
      "midi": 62,
      "hit": false,
      "t": 254086.89299999006,
      "d": 86.95650000000023,
      "v": 110
    },
    {
      "midi": 62,
      "hit": false,
      "t": 254217.32774999004,
      "d": 86.95650000000023,
      "v": 110
    },
    {
      "midi": 38,
      "hit": false,
      "t": 254217.32774999004,
      "d": 260.8694999999716,
      "v": 100
    },
    {
      "midi": 62,
      "hit": false,
      "t": 254347.76249999003,
      "d": 86.95650000000023,
      "v": 110
    },
    {
      "midi": 54,
      "hit": false,
      "t": 254347.76249999003,
      "d": 217.39124999998603,
      "v": 94
    },
    {
      "midi": 57,
      "hit": false,
      "t": 254347.76249999003,
      "d": 217.39124999998603,
      "v": 94
    },
    {
      "midi": 62,
      "hit": false,
      "t": 254478.19724999001,
      "d": 86.95650000000023,
      "v": 110
    },
    {
      "midi": 57,
      "hit": false,
      "t": 254608.63199999,
      "d": 86.95650000000023,
      "v": 110
    },
    {
      "midi": 45,
      "hit": false,
      "t": 254608.63199999,
      "d": 347.8259999999718,
      "v": 100
    },
    {
      "midi": 57,
      "hit": false,
      "t": 254739.06674999,
      "d": 86.95650000000023,
      "v": 110
    },
    {
      "midi": 57,
      "hit": false,
      "t": 254869.50149998997,
      "d": 86.95650000000023,
      "v": 110
    },
    {
      "midi": 52,
      "hit": false,
      "t": 254869.50149998997,
      "d": 217.39124999998603,
      "v": 99
    },
    {
      "midi": 61,
      "hit": false,
      "t": 254869.50149998997,
      "d": 217.39124999998603,
      "v": 99
    },
    {
      "midi": 57,
      "hit": false,
      "t": 254999.93624998996,
      "d": 86.95650000000023,
      "v": 110
    },
    {
      "midi": 57,
      "hit": false,
      "t": 255130.37099998994,
      "d": 86.95650000000023,
      "v": 110
    },
    {
      "midi": 45,
      "hit": false,
      "t": 255130.37099998994,
      "d": 260.8694999999716,
      "v": 100
    },
    {
      "midi": 57,
      "hit": false,
      "t": 255260.80574998993,
      "d": 86.95650000000023,
      "v": 110
    },
    {
      "midi": 52,
      "hit": false,
      "t": 255260.80574998993,
      "d": 217.39124999998603,
      "v": 94
    },
    {
      "midi": 61,
      "hit": false,
      "t": 255260.80574998993,
      "d": 217.39124999998603,
      "v": 94
    },
    {
      "midi": 57,
      "hit": false,
      "t": 255391.24049998992,
      "d": 86.95650000000023,
      "v": 110
    },
    {
      "midi": 57,
      "hit": false,
      "t": 255521.6752499899,
      "d": 86.95650000000023,
      "v": 110
    },
    {
      "midi": 45,
      "hit": false,
      "t": 255521.6752499899,
      "d": 260.8694999999716,
      "v": 100
    },
    {
      "midi": 57,
      "hit": false,
      "t": 255652.1099999899,
      "d": 86.95650000000023,
      "v": 110
    },
    {
      "midi": 52,
      "hit": false,
      "t": 255652.1099999899,
      "d": 217.39124999998603,
      "v": 97
    },
    {
      "midi": 61,
      "hit": false,
      "t": 255652.1099999899,
      "d": 217.39124999998603,
      "v": 97
    },
    {
      "midi": 57,
      "hit": false,
      "t": 255782.54474998987,
      "d": 86.95650000000023,
      "v": 110
    },
    {
      "midi": 57,
      "hit": false,
      "t": 255912.97949998986,
      "d": 86.95650000000023,
      "v": 110
    },
    {
      "midi": 45,
      "hit": false,
      "t": 255912.97949998986,
      "d": 260.8694999999716,
      "v": 100
    },
    {
      "midi": 57,
      "hit": false,
      "t": 256043.41424998984,
      "d": 86.95650000000023,
      "v": 110
    },
    {
      "midi": 52,
      "hit": false,
      "t": 256043.41424998984,
      "d": 217.39124999998603,
      "v": 100
    },
    {
      "midi": 61,
      "hit": false,
      "t": 256043.41424998984,
      "d": 217.39124999998603,
      "v": 100
    },
    {
      "midi": 57,
      "hit": false,
      "t": 256173.84899998983,
      "d": 86.95650000000023,
      "v": 110
    },
    {
      "midi": 57,
      "hit": false,
      "t": 256304.28374998982,
      "d": 86.95650000000023,
      "v": 110
    },
    {
      "midi": 45,
      "hit": false,
      "t": 256304.28374998982,
      "d": 260.8694999999716,
      "v": 100
    },
    {
      "midi": 57,
      "hit": false,
      "t": 256434.7184999898,
      "d": 86.95650000000023,
      "v": 110
    },
    {
      "midi": 52,
      "hit": false,
      "t": 256434.7184999898,
      "d": 217.39124999998603,
      "v": 94
    },
    {
      "midi": 61,
      "hit": false,
      "t": 256434.7184999898,
      "d": 217.39124999998603,
      "v": 94
    },
    {
      "midi": 57,
      "hit": false,
      "t": 256565.1532499898,
      "d": 86.95650000000023,
      "v": 110
    },
    {
      "midi": 59,
      "hit": false,
      "t": 256695.58799998977,
      "d": 86.95650000000023,
      "v": 110
    },
    {
      "midi": 35,
      "hit": false,
      "t": 256695.58799998977,
      "d": 347.8259999999718,
      "v": 100
    },
    {
      "midi": 59,
      "hit": false,
      "t": 256826.02274998976,
      "d": 86.95650000000023,
      "v": 110
    },
    {
      "midi": 59,
      "hit": false,
      "t": 256956.45749998974,
      "d": 86.95650000000023,
      "v": 110
    },
    {
      "midi": 54,
      "hit": false,
      "t": 256956.45749998974,
      "d": 217.39124999998603,
      "v": 99
    },
    {
      "midi": 62,
      "hit": false,
      "t": 256956.45749998974,
      "d": 217.39124999998603,
      "v": 99
    },
    {
      "midi": 59,
      "hit": false,
      "t": 257086.89224998973,
      "d": 86.95650000000023,
      "v": 110
    },
    {
      "midi": 59,
      "hit": false,
      "t": 257217.32699998972,
      "d": 86.95650000000023,
      "v": 110
    },
    {
      "midi": 35,
      "hit": false,
      "t": 257217.32699998972,
      "d": 260.8694999999716,
      "v": 100
    },
    {
      "midi": 59,
      "hit": false,
      "t": 257347.7617499897,
      "d": 86.95650000000023,
      "v": 110
    },
    {
      "midi": 54,
      "hit": false,
      "t": 257347.7617499897,
      "d": 217.39124999998603,
      "v": 94
    },
    {
      "midi": 62,
      "hit": false,
      "t": 257347.7617499897,
      "d": 217.39124999998603,
      "v": 94
    },
    {
      "midi": 59,
      "hit": false,
      "t": 257478.1964999897,
      "d": 86.95650000000023,
      "v": 110
    },
    {
      "midi": 59,
      "hit": false,
      "t": 257608.63124998967,
      "d": 86.95650000000023,
      "v": 110
    },
    {
      "midi": 35,
      "hit": false,
      "t": 257608.63124998967,
      "d": 260.8694999999716,
      "v": 100
    },
    {
      "midi": 59,
      "hit": false,
      "t": 257739.06599998966,
      "d": 86.95650000000023,
      "v": 110
    },
    {
      "midi": 54,
      "hit": false,
      "t": 257739.06599998966,
      "d": 217.39124999998603,
      "v": 97
    },
    {
      "midi": 62,
      "hit": false,
      "t": 257739.06599998966,
      "d": 217.39124999998603,
      "v": 97
    },
    {
      "midi": 59,
      "hit": false,
      "t": 257869.50074998965,
      "d": 86.95650000000023,
      "v": 110
    },
    {
      "midi": 59,
      "hit": false,
      "t": 257999.93549998963,
      "d": 86.95650000000023,
      "v": 110
    },
    {
      "midi": 35,
      "hit": false,
      "t": 257999.93549998963,
      "d": 260.8694999999716,
      "v": 100
    },
    {
      "midi": 59,
      "hit": false,
      "t": 258130.37024998962,
      "d": 86.95650000000023,
      "v": 110
    },
    {
      "midi": 54,
      "hit": false,
      "t": 258130.37024998962,
      "d": 217.39124999998603,
      "v": 100
    },
    {
      "midi": 62,
      "hit": false,
      "t": 258130.37024998962,
      "d": 217.39124999998603,
      "v": 100
    },
    {
      "midi": 59,
      "hit": false,
      "t": 258260.8049999896,
      "d": 86.95650000000023,
      "v": 110
    },
    {
      "midi": 59,
      "hit": false,
      "t": 258391.2397499896,
      "d": 86.95650000000023,
      "v": 110
    },
    {
      "midi": 35,
      "hit": false,
      "t": 258391.2397499896,
      "d": 260.8694999999716,
      "v": 100
    },
    {
      "midi": 59,
      "hit": false,
      "t": 258521.67449998957,
      "d": 86.95650000000023,
      "v": 110
    },
    {
      "midi": 54,
      "hit": false,
      "t": 258521.67449998957,
      "d": 217.39124999998603,
      "v": 94
    },
    {
      "midi": 62,
      "hit": false,
      "t": 258521.67449998957,
      "d": 217.39124999998603,
      "v": 94
    },
    {
      "midi": 59,
      "hit": false,
      "t": 258652.10924998956,
      "d": 86.95650000000023,
      "v": 110
    },
    {
      "midi": 54,
      "hit": false,
      "t": 258782.54399998955,
      "d": 86.95650000000023,
      "v": 110
    },
    {
      "midi": 42,
      "hit": false,
      "t": 258782.54399998955,
      "d": 347.8259999999718,
      "v": 100
    },
    {
      "midi": 54,
      "hit": false,
      "t": 258912.97874998953,
      "d": 86.95650000000023,
      "v": 110
    },
    {
      "midi": 54,
      "hit": false,
      "t": 259043.41349998952,
      "d": 86.95650000000023,
      "v": 110
    },
    {
      "midi": 57,
      "hit": false,
      "t": 259043.41349998952,
      "d": 217.39124999998603,
      "v": 99
    },
    {
      "midi": 61,
      "hit": false,
      "t": 259043.41349998952,
      "d": 217.39124999998603,
      "v": 99
    },
    {
      "midi": 54,
      "hit": false,
      "t": 259173.8482499895,
      "d": 86.95650000000023,
      "v": 110
    },
    {
      "midi": 54,
      "hit": false,
      "t": 259304.2829999895,
      "d": 86.95650000000023,
      "v": 110
    },
    {
      "midi": 42,
      "hit": false,
      "t": 259304.2829999895,
      "d": 260.8694999999716,
      "v": 100
    },
    {
      "midi": 54,
      "hit": false,
      "t": 259434.71774998948,
      "d": 86.95650000000023,
      "v": 110
    },
    {
      "midi": 57,
      "hit": false,
      "t": 259434.71774998948,
      "d": 217.39124999998603,
      "v": 94
    },
    {
      "midi": 61,
      "hit": false,
      "t": 259434.71774998948,
      "d": 217.39124999998603,
      "v": 94
    },
    {
      "midi": 54,
      "hit": false,
      "t": 259565.15249998946,
      "d": 86.95650000000023,
      "v": 110
    },
    {
      "midi": 54,
      "hit": false,
      "t": 259695.58724998945,
      "d": 86.95650000000023,
      "v": 110
    },
    {
      "midi": 42,
      "hit": false,
      "t": 259695.58724998945,
      "d": 260.8694999999716,
      "v": 100
    },
    {
      "midi": 54,
      "hit": false,
      "t": 259826.02199998943,
      "d": 86.95650000000023,
      "v": 110
    },
    {
      "midi": 57,
      "hit": false,
      "t": 259826.02199998943,
      "d": 217.39124999998603,
      "v": 97
    },
    {
      "midi": 61,
      "hit": false,
      "t": 259826.02199998943,
      "d": 217.39124999998603,
      "v": 97
    },
    {
      "midi": 54,
      "hit": false,
      "t": 259956.45674998942,
      "d": 86.95650000000023,
      "v": 110
    },
    {
      "midi": 54,
      "hit": false,
      "t": 260086.8914999894,
      "d": 86.95650000000023,
      "v": 110
    },
    {
      "midi": 42,
      "hit": false,
      "t": 260086.8914999894,
      "d": 260.8694999999716,
      "v": 100
    },
    {
      "midi": 54,
      "hit": false,
      "t": 260217.3262499894,
      "d": 86.95650000000023,
      "v": 110
    },
    {
      "midi": 57,
      "hit": false,
      "t": 260217.3262499894,
      "d": 217.39124999998603,
      "v": 100
    },
    {
      "midi": 61,
      "hit": false,
      "t": 260217.3262499894,
      "d": 217.39124999998603,
      "v": 100
    },
    {
      "midi": 54,
      "hit": false,
      "t": 260347.76099998938,
      "d": 86.95650000000023,
      "v": 110
    },
    {
      "midi": 54,
      "hit": false,
      "t": 260478.19574998936,
      "d": 86.95650000000023,
      "v": 110
    },
    {
      "midi": 42,
      "hit": false,
      "t": 260478.19574998936,
      "d": 260.8694999999716,
      "v": 100
    },
    {
      "midi": 54,
      "hit": false,
      "t": 260608.63049998935,
      "d": 86.95650000000023,
      "v": 110
    },
    {
      "midi": 57,
      "hit": false,
      "t": 260608.63049998935,
      "d": 217.39124999998603,
      "v": 94
    },
    {
      "midi": 61,
      "hit": false,
      "t": 260608.63049998935,
      "d": 217.39124999998603,
      "v": 94
    },
    {
      "midi": 54,
      "hit": false,
      "t": 260739.06524998933,
      "d": 86.95650000000023,
      "v": 110
    },
    {
      "midi": 55,
      "hit": false,
      "t": 260869.49999998932,
      "d": 86.95650000000023,
      "v": 110
    },
    {
      "midi": 43,
      "hit": false,
      "t": 260869.49999998932,
      "d": 347.8259999999718,
      "v": 100
    },
    {
      "midi": 55,
      "hit": false,
      "t": 260999.9347499893,
      "d": 86.95650000000023,
      "v": 110
    },
    {
      "midi": 55,
      "hit": false,
      "t": 261130.3694999893,
      "d": 86.95650000000023,
      "v": 110
    },
    {
      "midi": 59,
      "hit": false,
      "t": 261130.3694999893,
      "d": 217.39124999998603,
      "v": 99
    },
    {
      "midi": 62,
      "hit": false,
      "t": 261130.3694999893,
      "d": 217.39124999998603,
      "v": 99
    },
    {
      "midi": 55,
      "hit": false,
      "t": 261260.80424998928,
      "d": 86.95650000000023,
      "v": 110
    },
    {
      "midi": 55,
      "hit": false,
      "t": 261391.23899998926,
      "d": 86.95650000000023,
      "v": 110
    },
    {
      "midi": 43,
      "hit": false,
      "t": 261391.23899998926,
      "d": 260.8694999999716,
      "v": 100
    },
    {
      "midi": 55,
      "hit": false,
      "t": 261521.67374998925,
      "d": 86.95650000000023,
      "v": 110
    },
    {
      "midi": 59,
      "hit": false,
      "t": 261521.67374998925,
      "d": 217.39124999998603,
      "v": 94
    },
    {
      "midi": 62,
      "hit": false,
      "t": 261521.67374998925,
      "d": 217.39124999998603,
      "v": 94
    },
    {
      "midi": 55,
      "hit": false,
      "t": 261652.10849998923,
      "d": 86.95650000000023,
      "v": 110
    },
    {
      "midi": 55,
      "hit": false,
      "t": 261782.54324998922,
      "d": 86.95650000000023,
      "v": 110
    },
    {
      "midi": 43,
      "hit": false,
      "t": 261782.54324998922,
      "d": 260.8694999999716,
      "v": 100
    },
    {
      "midi": 55,
      "hit": false,
      "t": 261912.9779999892,
      "d": 86.95650000000023,
      "v": 110
    },
    {
      "midi": 59,
      "hit": false,
      "t": 261912.9779999892,
      "d": 217.39124999998603,
      "v": 97
    },
    {
      "midi": 62,
      "hit": false,
      "t": 261912.9779999892,
      "d": 217.39124999998603,
      "v": 97
    },
    {
      "midi": 55,
      "hit": false,
      "t": 262043.4127499892,
      "d": 86.95650000000023,
      "v": 110
    },
    {
      "midi": 55,
      "hit": false,
      "t": 262173.8474999892,
      "d": 86.95649999997113,
      "v": 110
    },
    {
      "midi": 43,
      "hit": false,
      "t": 262173.8474999892,
      "d": 260.8694999999134,
      "v": 100
    },
    {
      "midi": 55,
      "hit": false,
      "t": 262304.28224998916,
      "d": 86.95649999997113,
      "v": 110
    },
    {
      "midi": 59,
      "hit": false,
      "t": 262304.28224998916,
      "d": 217.39124999992782,
      "v": 100
    },
    {
      "midi": 62,
      "hit": false,
      "t": 262304.28224998916,
      "d": 217.39124999992782,
      "v": 100
    },
    {
      "midi": 55,
      "hit": false,
      "t": 262434.7169999891,
      "d": 86.95649999997113,
      "v": 110
    },
    {
      "midi": 55,
      "hit": false,
      "t": 262565.1517499891,
      "d": 86.95649999997113,
      "v": 110
    },
    {
      "midi": 43,
      "hit": false,
      "t": 262565.1517499891,
      "d": 260.8694999999134,
      "v": 100
    },
    {
      "midi": 55,
      "hit": false,
      "t": 262695.58649998903,
      "d": 86.95649999997113,
      "v": 110
    },
    {
      "midi": 59,
      "hit": false,
      "t": 262695.58649998903,
      "d": 217.39124999992782,
      "v": 94
    },
    {
      "midi": 62,
      "hit": false,
      "t": 262695.58649998903,
      "d": 217.39124999992782,
      "v": 94
    },
    {
      "midi": 55,
      "hit": false,
      "t": 262826.021249989,
      "d": 86.95649999997113,
      "v": 110
    },
    {
      "midi": 62,
      "hit": false,
      "t": 262956.45599998895,
      "d": 86.95649999997113,
      "v": 110
    },
    {
      "midi": 38,
      "hit": false,
      "t": 262956.45599998895,
      "d": 347.8259999998845,
      "v": 100
    },
    {
      "midi": 62,
      "hit": false,
      "t": 263086.8907499889,
      "d": 86.95649999997113,
      "v": 110
    },
    {
      "midi": 62,
      "hit": false,
      "t": 263217.32549998886,
      "d": 86.95649999997113,
      "v": 110
    },
    {
      "midi": 54,
      "hit": false,
      "t": 263217.32549998886,
      "d": 217.39124999992782,
      "v": 99
    },
    {
      "midi": 57,
      "hit": false,
      "t": 263217.32549998886,
      "d": 217.39124999992782,
      "v": 99
    },
    {
      "midi": 62,
      "hit": false,
      "t": 263347.7602499888,
      "d": 86.95649999997113,
      "v": 110
    },
    {
      "midi": 62,
      "hit": false,
      "t": 263478.1949999888,
      "d": 86.95649999997113,
      "v": 110
    },
    {
      "midi": 38,
      "hit": false,
      "t": 263478.1949999888,
      "d": 260.8694999999134,
      "v": 100
    },
    {
      "midi": 62,
      "hit": false,
      "t": 263608.62974998873,
      "d": 86.95649999997113,
      "v": 110
    },
    {
      "midi": 54,
      "hit": false,
      "t": 263608.62974998873,
      "d": 217.39124999992782,
      "v": 94
    },
    {
      "midi": 57,
      "hit": false,
      "t": 263608.62974998873,
      "d": 217.39124999992782,
      "v": 94
    },
    {
      "midi": 62,
      "hit": false,
      "t": 263739.0644999887,
      "d": 86.95649999997113,
      "v": 110
    },
    {
      "midi": 62,
      "hit": false,
      "t": 263869.49924998864,
      "d": 86.95649999997113,
      "v": 110
    },
    {
      "midi": 38,
      "hit": false,
      "t": 263869.49924998864,
      "d": 260.8694999999134,
      "v": 100
    },
    {
      "midi": 62,
      "hit": false,
      "t": 263999.9339999886,
      "d": 86.95649999997113,
      "v": 110
    },
    {
      "midi": 54,
      "hit": false,
      "t": 263999.9339999886,
      "d": 217.39124999992782,
      "v": 97
    },
    {
      "midi": 57,
      "hit": false,
      "t": 263999.9339999886,
      "d": 217.39124999992782,
      "v": 97
    },
    {
      "midi": 62,
      "hit": false,
      "t": 264130.36874998856,
      "d": 86.95649999997113,
      "v": 110
    },
    {
      "midi": 62,
      "hit": false,
      "t": 264260.8034999885,
      "d": 86.95649999997113,
      "v": 110
    },
    {
      "midi": 38,
      "hit": false,
      "t": 264260.8034999885,
      "d": 260.8694999999134,
      "v": 100
    },
    {
      "midi": 62,
      "hit": false,
      "t": 264391.23824998847,
      "d": 86.95649999997113,
      "v": 110
    },
    {
      "midi": 54,
      "hit": false,
      "t": 264391.23824998847,
      "d": 217.39124999992782,
      "v": 100
    },
    {
      "midi": 57,
      "hit": false,
      "t": 264391.23824998847,
      "d": 217.39124999992782,
      "v": 100
    },
    {
      "midi": 62,
      "hit": false,
      "t": 264521.6729999884,
      "d": 86.95649999997113,
      "v": 110
    },
    {
      "midi": 62,
      "hit": false,
      "t": 264652.1077499884,
      "d": 86.95649999997113,
      "v": 110
    },
    {
      "midi": 38,
      "hit": false,
      "t": 264652.1077499884,
      "d": 260.8694999999134,
      "v": 100
    },
    {
      "midi": 62,
      "hit": false,
      "t": 264782.54249998834,
      "d": 86.95649999997113,
      "v": 110
    },
    {
      "midi": 54,
      "hit": false,
      "t": 264782.54249998834,
      "d": 217.39124999992782,
      "v": 94
    },
    {
      "midi": 57,
      "hit": false,
      "t": 264782.54249998834,
      "d": 217.39124999992782,
      "v": 94
    },
    {
      "midi": 62,
      "hit": false,
      "t": 264912.9772499883,
      "d": 86.95649999997113,
      "v": 110
    },
    {
      "midi": 52,
      "hit": false,
      "t": 265043.41199998825,
      "d": 86.95649999997113,
      "v": 110
    },
    {
      "midi": 40,
      "hit": false,
      "t": 265043.41199998825,
      "d": 347.8259999998845,
      "v": 100
    },
    {
      "midi": 52,
      "hit": false,
      "t": 265173.8467499882,
      "d": 86.95649999997113,
      "v": 110
    },
    {
      "midi": 52,
      "hit": false,
      "t": 265304.28149998817,
      "d": 86.95649999997113,
      "v": 110
    },
    {
      "midi": 55,
      "hit": false,
      "t": 265304.28149998817,
      "d": 217.39124999992782,
      "v": 99
    },
    {
      "midi": 59,
      "hit": false,
      "t": 265304.28149998817,
      "d": 217.39124999992782,
      "v": 99
    },
    {
      "midi": 52,
      "hit": false,
      "t": 265434.7162499881,
      "d": 86.95649999997113,
      "v": 110
    },
    {
      "midi": 52,
      "hit": false,
      "t": 265565.1509999881,
      "d": 86.95649999997113,
      "v": 110
    },
    {
      "midi": 40,
      "hit": false,
      "t": 265565.1509999881,
      "d": 260.8694999999134,
      "v": 100
    },
    {
      "midi": 52,
      "hit": false,
      "t": 265695.58574998804,
      "d": 86.95649999997113,
      "v": 110
    },
    {
      "midi": 55,
      "hit": false,
      "t": 265695.58574998804,
      "d": 217.39124999992782,
      "v": 94
    },
    {
      "midi": 59,
      "hit": false,
      "t": 265695.58574998804,
      "d": 217.39124999992782,
      "v": 94
    },
    {
      "midi": 52,
      "hit": false,
      "t": 265826.020499988,
      "d": 86.95649999997113,
      "v": 110
    },
    {
      "midi": 52,
      "hit": false,
      "t": 265956.45524998795,
      "d": 86.95649999997113,
      "v": 110
    },
    {
      "midi": 40,
      "hit": false,
      "t": 265956.45524998795,
      "d": 260.8694999999134,
      "v": 100
    },
    {
      "midi": 52,
      "hit": false,
      "t": 266086.8899999879,
      "d": 86.95649999997113,
      "v": 110
    },
    {
      "midi": 55,
      "hit": false,
      "t": 266086.8899999879,
      "d": 217.39124999992782,
      "v": 97
    },
    {
      "midi": 59,
      "hit": false,
      "t": 266086.8899999879,
      "d": 217.39124999992782,
      "v": 97
    },
    {
      "midi": 52,
      "hit": false,
      "t": 266217.32474998786,
      "d": 86.95649999997113,
      "v": 110
    },
    {
      "midi": 52,
      "hit": false,
      "t": 266347.7594999878,
      "d": 86.95649999997113,
      "v": 110
    },
    {
      "midi": 40,
      "hit": false,
      "t": 266347.7594999878,
      "d": 260.8694999999134,
      "v": 100
    },
    {
      "midi": 52,
      "hit": false,
      "t": 266478.1942499878,
      "d": 86.95649999997113,
      "v": 110
    },
    {
      "midi": 55,
      "hit": false,
      "t": 266478.1942499878,
      "d": 217.39124999992782,
      "v": 100
    },
    {
      "midi": 59,
      "hit": false,
      "t": 266478.1942499878,
      "d": 217.39124999992782,
      "v": 100
    },
    {
      "midi": 52,
      "hit": false,
      "t": 266608.62899998773,
      "d": 86.95649999997113,
      "v": 110
    },
    {
      "midi": 52,
      "hit": false,
      "t": 266739.0637499877,
      "d": 86.95649999997113,
      "v": 110
    },
    {
      "midi": 40,
      "hit": false,
      "t": 266739.0637499877,
      "d": 260.8694999999134,
      "v": 100
    },
    {
      "midi": 52,
      "hit": false,
      "t": 266869.49849998765,
      "d": 86.95649999997113,
      "v": 110
    },
    {
      "midi": 55,
      "hit": false,
      "t": 266869.49849998765,
      "d": 217.39124999992782,
      "v": 94
    },
    {
      "midi": 59,
      "hit": false,
      "t": 266869.49849998765,
      "d": 217.39124999992782,
      "v": 94
    },
    {
      "midi": 52,
      "hit": false,
      "t": 266999.9332499876,
      "d": 86.95649999997113,
      "v": 110
    },
    {
      "midi": 57,
      "hit": false,
      "t": 267130.36799998756,
      "d": 86.95649999997113,
      "v": 110
    },
    {
      "midi": 45,
      "hit": false,
      "t": 267130.36799998756,
      "d": 347.8259999998845,
      "v": 100
    },
    {
      "midi": 57,
      "hit": false,
      "t": 267260.8027499875,
      "d": 86.95649999997113,
      "v": 110
    },
    {
      "midi": 57,
      "hit": false,
      "t": 267391.2374999875,
      "d": 86.95649999997113,
      "v": 110
    },
    {
      "midi": 52,
      "hit": false,
      "t": 267391.2374999875,
      "d": 217.39124999992782,
      "v": 99
    },
    {
      "midi": 61,
      "hit": false,
      "t": 267391.2374999875,
      "d": 217.39124999992782,
      "v": 99
    },
    {
      "midi": 57,
      "hit": false,
      "t": 267521.67224998743,
      "d": 86.95649999997113,
      "v": 110
    },
    {
      "midi": 57,
      "hit": false,
      "t": 267652.1069999874,
      "d": 86.95649999997113,
      "v": 110
    },
    {
      "midi": 45,
      "hit": false,
      "t": 267652.1069999874,
      "d": 260.8694999999134,
      "v": 100
    },
    {
      "midi": 57,
      "hit": false,
      "t": 267782.54174998734,
      "d": 86.95649999997113,
      "v": 110
    },
    {
      "midi": 52,
      "hit": false,
      "t": 267782.54174998734,
      "d": 217.39124999992782,
      "v": 94
    },
    {
      "midi": 61,
      "hit": false,
      "t": 267782.54174998734,
      "d": 217.39124999992782,
      "v": 94
    },
    {
      "midi": 57,
      "hit": false,
      "t": 267912.9764999873,
      "d": 86.95649999997113,
      "v": 110
    },
    {
      "midi": 57,
      "hit": false,
      "t": 268043.41124998726,
      "d": 86.95649999997113,
      "v": 110
    },
    {
      "midi": 45,
      "hit": false,
      "t": 268043.41124998726,
      "d": 260.8694999999134,
      "v": 100
    },
    {
      "midi": 57,
      "hit": false,
      "t": 268173.8459999872,
      "d": 86.95649999997113,
      "v": 110
    },
    {
      "midi": 52,
      "hit": false,
      "t": 268173.8459999872,
      "d": 217.39124999992782,
      "v": 97
    },
    {
      "midi": 61,
      "hit": false,
      "t": 268173.8459999872,
      "d": 217.39124999992782,
      "v": 97
    },
    {
      "midi": 57,
      "hit": false,
      "t": 268304.28074998717,
      "d": 86.95649999997113,
      "v": 110
    },
    {
      "midi": 57,
      "hit": false,
      "t": 268434.7154999871,
      "d": 86.95649999997113,
      "v": 110
    },
    {
      "midi": 45,
      "hit": false,
      "t": 268434.7154999871,
      "d": 260.8694999999134,
      "v": 100
    },
    {
      "midi": 57,
      "hit": false,
      "t": 268565.1502499871,
      "d": 86.95649999997113,
      "v": 110
    },
    {
      "midi": 52,
      "hit": false,
      "t": 268565.1502499871,
      "d": 217.39124999992782,
      "v": 100
    },
    {
      "midi": 61,
      "hit": false,
      "t": 268565.1502499871,
      "d": 217.39124999992782,
      "v": 100
    },
    {
      "midi": 57,
      "hit": false,
      "t": 268695.58499998704,
      "d": 86.95649999997113,
      "v": 110
    },
    {
      "midi": 57,
      "hit": false,
      "t": 268826.019749987,
      "d": 86.95649999997113,
      "v": 110
    },
    {
      "midi": 45,
      "hit": false,
      "t": 268826.019749987,
      "d": 260.8694999999134,
      "v": 100
    },
    {
      "midi": 57,
      "hit": false,
      "t": 268956.45449998695,
      "d": 86.95649999997113,
      "v": 110
    },
    {
      "midi": 52,
      "hit": false,
      "t": 268956.45449998695,
      "d": 217.39124999992782,
      "v": 94
    },
    {
      "midi": 61,
      "hit": false,
      "t": 268956.45449998695,
      "d": 217.39124999992782,
      "v": 94
    },
    {
      "midi": 57,
      "hit": false,
      "t": 269086.8892499869,
      "d": 86.95649999997113,
      "v": 110
    },
    {
      "midi": 57,
      "hit": false,
      "t": 269217.32399998687,
      "d": 86.95649999997113,
      "v": 110
    },
    {
      "midi": 45,
      "hit": false,
      "t": 269217.32399998687,
      "d": 347.8259999998845,
      "v": 100
    },
    {
      "midi": 57,
      "hit": false,
      "t": 269347.7587499868,
      "d": 86.95649999997113,
      "v": 110
    },
    {
      "midi": 57,
      "hit": false,
      "t": 269478.1934999868,
      "d": 86.95649999997113,
      "v": 110
    },
    {
      "midi": 52,
      "hit": false,
      "t": 269478.1934999868,
      "d": 217.39124999992782,
      "v": 99
    },
    {
      "midi": 61,
      "hit": false,
      "t": 269478.1934999868,
      "d": 217.39124999992782,
      "v": 99
    },
    {
      "midi": 57,
      "hit": false,
      "t": 269608.62824998674,
      "d": 86.95649999997113,
      "v": 110
    },
    {
      "midi": 57,
      "hit": false,
      "t": 269739.0629999867,
      "d": 86.95649999997113,
      "v": 110
    },
    {
      "midi": 45,
      "hit": false,
      "t": 269739.0629999867,
      "d": 260.8694999999134,
      "v": 100
    },
    {
      "midi": 57,
      "hit": false,
      "t": 269869.49774998665,
      "d": 86.95649999997113,
      "v": 110
    },
    {
      "midi": 52,
      "hit": false,
      "t": 269869.49774998665,
      "d": 217.39124999992782,
      "v": 94
    },
    {
      "midi": 61,
      "hit": false,
      "t": 269869.49774998665,
      "d": 217.39124999992782,
      "v": 94
    },
    {
      "midi": 57,
      "hit": false,
      "t": 269999.9324999866,
      "d": 86.95649999997113,
      "v": 110
    },
    {
      "midi": 57,
      "hit": false,
      "t": 270130.36724998656,
      "d": 86.95649999997113,
      "v": 110
    },
    {
      "midi": 45,
      "hit": false,
      "t": 270130.36724998656,
      "d": 260.8694999999134,
      "v": 100
    },
    {
      "midi": 57,
      "hit": false,
      "t": 270260.8019999865,
      "d": 86.95649999997113,
      "v": 110
    },
    {
      "midi": 52,
      "hit": false,
      "t": 270260.8019999865,
      "d": 217.39124999992782,
      "v": 97
    },
    {
      "midi": 61,
      "hit": false,
      "t": 270260.8019999865,
      "d": 217.39124999992782,
      "v": 97
    },
    {
      "midi": 57,
      "hit": false,
      "t": 270391.2367499865,
      "d": 86.95649999997113,
      "v": 110
    },
    {
      "midi": 57,
      "hit": false,
      "t": 270521.67149998643,
      "d": 86.95649999997113,
      "v": 110
    },
    {
      "midi": 45,
      "hit": false,
      "t": 270521.67149998643,
      "d": 260.8694999999134,
      "v": 100
    },
    {
      "midi": 57,
      "hit": false,
      "t": 270652.1062499864,
      "d": 86.95649999997113,
      "v": 110
    },
    {
      "midi": 52,
      "hit": false,
      "t": 270652.1062499864,
      "d": 217.39124999992782,
      "v": 100
    },
    {
      "midi": 61,
      "hit": false,
      "t": 270652.1062499864,
      "d": 217.39124999992782,
      "v": 100
    },
    {
      "midi": 57,
      "hit": false,
      "t": 270782.54099998635,
      "d": 86.95649999997113,
      "v": 110
    },
    {
      "midi": 57,
      "hit": false,
      "t": 270912.9757499863,
      "d": 86.95649999997113,
      "v": 110
    },
    {
      "midi": 45,
      "hit": false,
      "t": 270912.9757499863,
      "d": 260.8694999999134,
      "v": 100
    },
    {
      "midi": 57,
      "hit": false,
      "t": 271043.41049998626,
      "d": 86.95649999997113,
      "v": 110
    },
    {
      "midi": 52,
      "hit": false,
      "t": 271043.41049998626,
      "d": 217.39124999992782,
      "v": 94
    },
    {
      "midi": 61,
      "hit": false,
      "t": 271043.41049998626,
      "d": 217.39124999992782,
      "v": 94
    },
    {
      "midi": 57,
      "hit": false,
      "t": 271173.8452499862,
      "d": 86.95649999997113,
      "v": 110
    }
  ]
}