{
  "jsonPath": "Religious/Christian Relaxative/Lenny LeBlanc/there-is-none-like-you.json",
  "path": "Religious\\Christian Relaxative\\Lenny LeBlanc\\There Is None Like You.mid",
  "name": "There Is None Like You",
  "difficulty": "Advanced",
  "bpm": 65.99999340000066,
  "notes": [
    {
      "midi": 28,
      "hit": false,
      "t": 3636.3639999999996,
      "d": 1742.4244166666667,
      "v": 102
    },
    {
      "midi": 67,
      "hit": false,
      "t": 3636.3639999999996,
      "d": 1787.878966666667,
      "v": 90
    },
    {
      "midi": 59,
      "hit": false,
      "t": 3636.3639999999996,
      "d": 1795.4547250000005,
      "v": 90
    },
    {
      "midi": 64,
      "hit": false,
      "t": 3636.3639999999996,
      "d": 1795.4547250000005,
      "v": 90
    },
    {
      "midi": 55,
      "hit": false,
      "t": 5454.546,
      "d": 1803.030483333333,
      "v": 90
    },
    {
      "midi": 60,
      "hit": false,
      "t": 5454.546,
      "d": 1803.030483333333,
      "v": 90
    },
    {
      "midi": 64,
      "hit": false,
      "t": 5454.546,
      "d": 1803.030483333333,
      "v": 90
    },
    {
      "midi": 36,
      "hit": false,
      "t": 5500.00055,
      "d": 1560.6062166666661,
      "v": 89
    },
    {
      "midi": 38,
      "hit": false,
      "t": 7272.727999999999,
      "d": 1712.1213833333331,
      "v": 86
    },
    {
      "midi": 59,
      "hit": false,
      "t": 7272.728,
      "d": 1787.8789666666662,
      "v": 90
    },
    {
      "midi": 62,
      "hit": false,
      "t": 7272.728,
      "d": 1803.030483333333,
      "v": 90
    },
    {
      "midi": 67,
      "hit": false,
      "t": 7272.728,
      "d": 1803.030483333333,
      "v": 90
    },
    {
      "midi": 57,
      "hit": false,
      "t": 9090.91,
      "d": 878.7879666666668,
      "v": 90
    },
    {
      "midi": 62,
      "hit": false,
      "t": 9090.91,
      "d": 878.7879666666668,
      "v": 90
    },
    {
      "midi": 60,
      "hit": false,
      "t": 9090.91,
      "d": 886.3637249999992,
      "v": 90
    },
    {
      "midi": 67,
      "hit": false,
      "t": 9090.91,
      "d": 893.9394833333317,
      "v": 90
    },
    {
      "midi": 38,
      "hit": false,
      "t": 9113.637275,
      "d": 1590.9092500000006,
      "v": 82
    },
    {
      "midi": 60,
      "hit": false,
      "t": 10000.000999999998,
      "d": 878.7879666666668,
      "v": 90
    },
    {
      "midi": 66,
      "hit": false,
      "t": 10000.000999999998,
      "d": 878.7879666666668,
      "v": 90
    },
    {
      "midi": 57,
      "hit": false,
      "t": 10000.000999999998,
      "d": 886.3637249999992,
      "v": 90
    },
    {
      "midi": 55,
      "hit": false,
      "t": 10909.091999999997,
      "d": 454.5455000000002,
      "v": 120
    },
    {
      "midi": 31,
      "hit": false,
      "t": 10909.092,
      "d": 1537.878941666666,
      "v": 77
    },
    {
      "midi": 59,
      "hit": false,
      "t": 11363.637499999997,
      "d": 454.5455000000002,
      "v": 110
    },
    {
      "midi": 62,
      "hit": false,
      "t": 11818.182999999997,
      "d": 454.5455000000002,
      "v": 110
    },
    {
      "midi": 67,
      "hit": false,
      "t": 12272.728499999997,
      "d": 431.8182249999991,
      "v": 110
    },
    {
      "midi": 66,
      "hit": false,
      "t": 12727.273999999996,
      "d": 454.5455000000002,
      "v": 120
    },
    {
      "midi": 62,
      "hit": false,
      "t": 12727.273999999996,
      "d": 1795.4547250000014,
      "v": 90
    },
    {
      "midi": 57,
      "hit": false,
      "t": 12727.273999999996,
      "d": 1803.030483333334,
      "v": 90
    },
    {
      "midi": 30,
      "hit": false,
      "t": 12757.577033333333,
      "d": 1757.5759333333335,
      "v": 82
    },
    {
      "midi": 69,
      "hit": false,
      "t": 13181.819499999996,
      "d": 909.0910000000003,
      "v": 110
    },
    {
      "midi": 66,
      "hit": false,
      "t": 14090.910499999996,
      "d": 431.8182250000009,
      "v": 110
    },
    {
      "midi": 52,
      "hit": false,
      "t": 14545.455999999996,
      "d": 909.0910000000003,
      "v": 120
    },
    {
      "midi": 60,
      "hit": false,
      "t": 14545.455999999996,
      "d": 1795.4547249999996,
      "v": 90
    },
    {
      "midi": 64,
      "hit": false,
      "t": 14545.455999999996,
      "d": 1795.4547249999996,
      "v": 90
    },
    {
      "midi": 67,
      "hit": false,
      "t": 14545.455999999996,
      "d": 1803.030483333332,
      "v": 90
    },
    {
      "midi": 28,
      "hit": false,
      "t": 14598.486308333333,
      "d": 1666.6668333333328,
      "v": 82
    },
    {
      "midi": 55,
      "hit": false,
      "t": 15454.546999999997,
      "d": 909.0909999999985,
      "v": 120
    },
    {
      "midi": 38,
      "hit": false,
      "t": 16356.062241666667,
      "d": 1772.7274499999985,
      "v": 78
    },
    {
      "midi": 50,
      "hit": false,
      "t": 16363.637999999995,
      "d": 454.5455000000002,
      "v": 120
    },
    {
      "midi": 67,
      "hit": false,
      "t": 16363.637999999995,
      "d": 1787.878966666667,
      "v": 90
    },
    {
      "midi": 59,
      "hit": false,
      "t": 16363.637999999995,
      "d": 1795.4547249999996,
      "v": 90
    },
    {
      "midi": 62,
      "hit": false,
      "t": 16818.183499999996,
      "d": 454.5455000000002,
      "v": 110
    },
    {
      "midi": 55,
      "hit": false,
      "t": 17272.728999999996,
      "d": 454.5455000000002,
      "v": 110
    },
    {
      "midi": 55,
      "hit": false,
      "t": 17727.274499999996,
      "d": 454.5455000000002,
      "v": 110
    },
    {
      "midi": 55,
      "hit": false,
      "t": 18181.819999999996,
      "d": 909.0910000000003,
      "v": 120
    },
    {
      "midi": 64,
      "hit": false,
      "t": 18181.819999999996,
      "d": 1795.4547249999996,
      "v": 90
    },
    {
      "midi": 36,
      "hit": false,
      "t": 18234.85030833333,
      "d": 1666.6668333333328,
      "v": 70
    },
    {
      "midi": 60,
      "hit": false,
      "t": 19090.910999999996,
      "d": 893.9394833333317,
      "v": 120
    },
    {
      "midi": 59,
      "hit": false,
      "t": 20000.001999999993,
      "d": 909.0910000000003,
      "v": 120
    },
    {
      "midi": 62,
      "hit": false,
      "t": 20000.001999999993,
      "d": 1795.4547249999996,
      "v": 90
    },
    {
      "midi": 55,
      "hit": false,
      "t": 20000.001999999993,
      "d": 1803.030483333332,
      "v": 90
    },
    {
      "midi": 35,
      "hit": false,
      "t": 20045.456549999995,
      "d": 1719.6971416666674,
      "v": 71
    },
    {
      "midi": 59,
      "hit": false,
      "t": 20909.092999999993,
      "d": 878.7879666666668,
      "v": 120
    },
    {
      "midi": 60,
      "hit": false,
      "t": 21818.18399999999,
      "d": 454.5455000000002,
      "v": 120
    },
    {
      "midi": 64,
      "hit": false,
      "t": 21818.18399999999,
      "d": 1803.030483333332,
      "v": 90
    },
    {
      "midi": 67,
      "hit": false,
      "t": 21818.18399999999,
      "d": 1803.030483333332,
      "v": 90
    },
    {
      "midi": 33,
      "hit": false,
      "t": 21833.335516666662,
      "d": 1780.3032083333346,
      "v": 68
    },
    {
      "midi": 52,
      "hit": false,
      "t": 22272.72949999999,
      "d": 454.5455000000002,
      "v": 110
    },
    {
      "midi": 55,
      "hit": false,
      "t": 22727.27499999999,
      "d": 454.5455000000002,
      "v": 110
    },
    {
      "midi": 48,
      "hit": false,
      "t": 23181.82049999999,
      "d": 454.54549999999654,
      "v": 110
    },
    {
      "midi": 50,
      "hit": false,
      "t": 23636.365999999987,
      "d": 454.5455000000002,
      "v": 120
    },
    {
      "midi": 69,
      "hit": false,
      "t": 23636.365999999987,
      "d": 878.7879666666668,
      "v": 90
    },
    {
      "midi": 62,
      "hit": false,
      "t": 23636.365999999987,
      "d": 886.3637249999992,
      "v": 90
    },
    {
      "midi": 60,
      "hit": false,
      "t": 23636.365999999987,
      "d": 893.9394833333317,
      "v": 90
    },
    {
      "midi": 67,
      "hit": false,
      "t": 23636.365999999987,
      "d": 893.9394833333317,
      "v": 90
    },
    {
      "midi": 38,
      "hit": false,
      "t": 23659.093274999996,
      "d": 1765.151691666666,
      "v": 77
    },
    {
      "midi": 57,
      "hit": false,
      "t": 24090.911499999987,
      "d": 454.54549999999654,
      "v": 110
    },
    {
      "midi": 66,
      "hit": false,
      "t": 24545.456999999984,
      "d": 886.3637249999992,
      "v": 90
    },
    {
      "midi": 57,
      "hit": false,
      "t": 24545.456999999984,
      "d": 893.9394833333317,
      "v": 90
    },
    {
      "midi": 60,
      "hit": false,
      "t": 24545.456999999984,
      "d": 893.9394833333317,
      "v": 120
    },
    {
      "midi": 59,
      "hit": false,
      "t": 25454.54799999998,
      "d": 909.0910000000003,
      "v": 120
    },
    {
      "midi": 55,
      "hit": false,
      "t": 25454.54799999998,
      "d": 1787.878966666667,
      "v": 90
    },
    {
      "midi": 62,
      "hit": false,
      "t": 25454.54799999998,
      "d": 1803.030483333332,
      "v": 90
    },
    {
      "midi": 31,
      "hit": false,
      "t": 25507.57830833333,
      "d": 1666.6668333333328,
      "v": 84
    },
    {
      "midi": 50,
      "hit": false,
      "t": 26363.63899999998,
      "d": 909.0909999999967,
      "v": 120
    },
    {
      "midi": 57,
      "hit": false,
      "t": 27272.729999999978,
      "d": 454.5455000000002,
      "v": 120
    },
    {
      "midi": 66,
      "hit": false,
      "t": 27272.729999999978,
      "d": 1787.878966666667,
      "v": 90
    },
    {
      "midi": 62,
      "hit": false,
      "t": 27272.729999999978,
      "d": 1803.030483333332,
      "v": 90
    },
    {
      "midi": 30,
      "hit": false,
      "t": 27348.487583333328,
      "d": 1575.757733333332,
      "v": 80
    },
    {
      "midi": 50,
      "hit": false,
      "t": 27727.275499999978,
      "d": 454.5455000000002,
      "v": 110
    },
    {
      "midi": 50,
      "hit": false,
      "t": 28181.820999999978,
      "d": 454.5455000000002,
      "v": 110
    },
    {
      "midi": 54,
      "hit": false,
      "t": 28636.36649999998,
      "d": 431.8182249999991,
      "v": 110
    },
    {
      "midi": 53,
      "hit": false,
      "t": 29090.911999999975,
      "d": 909.0910000000003,
      "v": 120
    },
    {
      "midi": 65,
      "hit": false,
      "t": 29090.911999999975,
      "d": 1787.878966666667,
      "v": 90
    },
    {
      "midi": 62,
      "hit": false,
      "t": 29090.911999999975,
      "d": 1803.030483333332,
      "v": 90
    },
    {
      "midi": 69,
      "hit": false,
      "t": 29090.911999999975,
      "d": 1803.030483333332,
      "v": 90
    },
    {
      "midi": 29,
      "hit": false,
      "t": 29121.215033333327,
      "d": 1757.5759333333335,
      "v": 83
    },
    {
      "midi": 50,
      "hit": false,
      "t": 30000.002999999975,
      "d": 909.0909999999967,
      "v": 110
    },
    {
      "midi": 48,
      "hit": false,
      "t": 30909.093999999972,
      "d": 909.0910000000003,
      "v": 120
    },
    {
      "midi": 60,
      "hit": false,
      "t": 30909.093999999972,
      "d": 1787.878966666667,
      "v": 90
    },
    {
      "midi": 64,
      "hit": false,
      "t": 30909.093999999972,
      "d": 1795.4547249999996,
      "v": 90
    },
    {
      "midi": 67,
      "hit": false,
      "t": 30909.093999999972,
      "d": 1795.4547249999996,
      "v": 90
    },
    {
      "midi": 28,
      "hit": false,
      "t": 30909.093999999994,
      "d": 1810.6062416666682,
      "v": 84
    },
    {
      "midi": 48,
      "hit": false,
      "t": 31818.184999999972,
      "d": 909.0910000000003,
      "v": 120
    },
    {
      "midi": 50,
      "hit": false,
      "t": 32727.275999999973,
      "d": 1787.878966666667,
      "v": 110
    },
    {
      "midi": 55,
      "hit": false,
      "t": 32727.275999999973,
      "d": 1795.4547249999996,
      "v": 110
    },
    {
      "midi": 59,
      "hit": false,
      "t": 32727.275999999973,
      "d": 1795.4547249999996,
      "v": 110
    },
    {
      "midi": 62,
      "hit": false,
      "t": 32727.275999999973,
      "d": 1803.030483333332,
      "v": 90
    },
    {
      "midi": 38,
      "hit": false,
      "t": 32765.15479166666,
      "d": 1712.1213833333313,
      "v": 74
    },
    {
      "midi": 38,
      "hit": false,
      "t": 34515.15496666666,
      "d": 1810.6062416666682,
      "v": 68
    },
    {
      "midi": 57,
      "hit": false,
      "t": 34545.45799999997,
      "d": 909.0910000000003,
      "v": 120
    },
    {
      "midi": 69,
      "hit": false,
      "t": 34545.45799999997,
      "d": 1787.8789666666635,
      "v": 90
    },
    {
      "midi": 60,
      "hit": false,
      "t": 34545.45799999997,
      "d": 1795.454724999996,
      "v": 90
    },
    {
      "midi": 67,
      "hit": false,
      "t": 34545.45799999997,
      "d": 1795.454724999996,
      "v": 90
    },
    {
      "midi": 62,
      "hit": false,
      "t": 35454.54899999997,
      "d": 893.9394833333281,
      "v": 120
    },
    {
      "midi": 59,
      "hit": false,
      "t": 36363.63999999996,
      "d": 886.3637250000029,
      "v": 120
    },
    {
      "midi": 62,
      "hit": false,
      "t": 36363.63999999996,
      "d": 1787.8789666666635,
      "v": 90
    },
    {
      "midi": 55,
      "hit": false,
      "t": 36363.63999999996,
      "d": 1795.454724999996,
      "v": 90
    },
    {
      "midi": 31,
      "hit": false,
      "t": 36393.94303333333,
      "d": 1825.7577583333332,
      "v": 90
    },
    {
      "midi": 50,
      "hit": false,
      "t": 37272.73099999996,
      "d": 909.0909999999931,
      "v": 120
    },
    {
      "midi": 60,
      "hit": false,
      "t": 38181.82199999996,
      "d": 878.7879666666631,
      "v": 90
    },
    {
      "midi": 64,
      "hit": false,
      "t": 38181.82199999996,
      "d": 878.7879666666631,
      "v": 90
    },
    {
      "midi": 55,
      "hit": false,
      "t": 38181.82199999996,
      "d": 886.3637249999956,
      "v": 90
    },
    {
      "midi": 52,
      "hit": false,
      "t": 38181.82199999996,
      "d": 909.0909999999931,
      "v": 120
    },
    {
      "midi": 31,
      "hit": false,
      "t": 38227.276549999995,
      "d": 1795.4547250000032,
      "v": 89
    },
    {
      "midi": 57,
      "hit": false,
      "t": 39090.91299999995,
      "d": 878.7879666666631,
      "v": 90
    },
    {
      "midi": 54,
      "hit": false,
      "t": 39090.91299999995,
      "d": 886.3637249999956,
      "v": 120
    },
    {
      "midi": 62,
      "hit": false,
      "t": 39090.91299999995,
      "d": 893.9394833333281,
      "v": 90
    },
    {
      "midi": 66,
      "hit": false,
      "t": 39090.91299999995,
      "d": 893.9394833333281,
      "v": 90
    },
    {
      "midi": 55,
      "hit": false,
      "t": 40000.00399999994,
      "d": 454.5455000000002,
      "v": 120
    },
    {
      "midi": 67,
      "hit": false,
      "t": 40000.00399999994,
      "d": 1787.8789666666707,
      "v": 90
    },
    {
      "midi": 62,
      "hit": false,
      "t": 40000.00399999994,
      "d": 1795.4547250000032,
      "v": 90
    },
    {
      "midi": 31,
      "hit": false,
      "t": 40045.458549999996,
      "d": 1545.454700000002,
      "v": 93
    },
    {
      "midi": 50,
      "hit": false,
      "t": 40454.54949999994,
      "d": 454.5455000000002,
      "v": 110
    },
    {
      "midi": 55,
      "hit": false,
      "t": 40909.09499999994,
      "d": 454.5455000000002,
      "v": 110
    },
    {
      "midi": 59,
      "hit": false,
      "t": 41363.64049999994,
      "d": 431.8182250000027,
      "v": 110
    },
    {
      "midi": 62,
      "hit": false,
      "t": 41818.18599999994,
      "d": 909.0910000000003,
      "v": 120
    },
    {
      "midi": 66,
      "hit": false,
      "t": 41818.18599999994,
      "d": 1795.4547250000032,
      "v": 90
    },
    {
      "midi": 69,
      "hit": false,
      "t": 41818.18599999994,
      "d": 1795.4547250000032,
      "v": 90
    },
    {
      "midi": 30,
      "hit": false,
      "t": 41856.064791666664,
      "d": 1696.9698666666663,
      "v": 79
    },
    {
      "midi": 54,
      "hit": false,
      "t": 42727.276999999944,
      "d": 886.3637250000029,
      "v": 120
    },
    {
      "midi": 28,
      "hit": false,
      "t": 43628.79224166666,
      "d": 1772.7274499999985,
      "v": 88
    },
    {
      "midi": 48,
      "hit": false,
      "t": 43636.367999999944,
      "d": 909.0910000000003,
      "v": 110
    },
    {
      "midi": 60,
      "hit": false,
      "t": 43636.367999999944,
      "d": 1787.8789666666635,
      "v": 90
    },
    {
      "midi": 64,
      "hit": false,
      "t": 43636.367999999944,
      "d": 1795.454724999996,
      "v": 90
    },
    {
      "midi": 67,
      "hit": false,
      "t": 43636.367999999944,
      "d": 1795.454724999996,
      "v": 90
    },
    {
      "midi": 52,
      "hit": false,
      "t": 44545.458999999944,
      "d": 909.0909999999931,
      "v": 120
    },
    {
      "midi": 55,
      "hit": false,
      "t": 45454.54999999994,
      "d": 909.0910000000003,
      "v": 120
    },
    {
      "midi": 59,
      "hit": false,
      "t": 45454.54999999994,
      "d": 1795.4547250000032,
      "v": 90
    },
    {
      "midi": 62,
      "hit": false,
      "t": 45454.54999999994,
      "d": 1803.0304833333357,
      "v": 90
    },
    {
      "midi": 67,
      "hit": false,
      "t": 45454.54999999994,
      "d": 1803.0304833333357,
      "v": 90
    },
    {
      "midi": 38,
      "hit": false,
      "t": 45500.00455,
      "d": 1696.9698666666663,
      "v": 67
    },
    {
      "midi": 50,
      "hit": false,
      "t": 46363.64099999994,
      "d": 909.0910000000003,
      "v": 120
    },
    {
      "midi": 52,
      "hit": false,
      "t": 47272.73199999994,
      "d": 7.575758333332487,
      "v": 110
    },
    {
      "midi": 55,
      "hit": false,
      "t": 47272.73199999994,
      "d": 7.575758333332487,
      "v": 110
    },
    {
      "midi": 60,
      "hit": false,
      "t": 47272.73199999994,
      "d": 1787.8789666666635,
      "v": 110
    },
    {
      "midi": 67,
      "hit": false,
      "t": 47272.73199999994,
      "d": 1787.8789666666635,
      "v": 90
    },
    {
      "midi": 64,
      "hit": false,
      "t": 47272.73199999994,
      "d": 1795.454724999996,
      "v": 90
    },
    {
      "midi": 36,
      "hit": false,
      "t": 47280.30775833333,
      "d": 1651.5153166666641,
      "v": 78
    },
    {
      "midi": 67,
      "hit": false,
      "t": 49090.91399999993,
      "d": 1787.8789666666707,
      "v": 90
    },
    {
      "midi": 62,
      "hit": false,
      "t": 49090.91399999993,
      "d": 1795.4547250000032,
      "v": 90
    },
    {
      "midi": 35,
      "hit": false,
      "t": 49136.36854999999,
      "d": 1719.6971416666638,
      "v": 71
    },
    {
      "midi": 59,
      "hit": false,
      "t": 49545.45949999993,
      "d": 454.5455000000002,
      "v": 110
    },
    {
      "midi": 55,
      "hit": false,
      "t": 50000.00499999993,
      "d": 454.5455000000002,
      "v": 120
    },
    {
      "midi": 50,
      "hit": false,
      "t": 50454.55049999993,
      "d": 454.5455000000002,
      "v": 110
    },
    {
      "midi": 55,
      "hit": false,
      "t": 50909.09599999993,
      "d": 886.3637250000029,
      "v": 110
    },
    {
      "midi": 60,
      "hit": false,
      "t": 50909.09599999993,
      "d": 886.3637250000029,
      "v": 110
    },
    {
      "midi": 64,
      "hit": false,
      "t": 50909.09599999993,
      "d": 886.3637250000029,
      "v": 110
    },
    {
      "midi": 67,
      "hit": false,
      "t": 50909.09599999993,
      "d": 1787.8789666666635,
      "v": 90
    },
    {
      "midi": 33,
      "hit": false,
      "t": 50924.247516666655,
      "d": 1795.4547250000032,
      "v": 65
    },
    {
      "midi": 52,
      "hit": false,
      "t": 51818.18699999993,
      "d": 909.0909999999931,
      "v": 110
    },
    {
      "midi": 60,
      "hit": false,
      "t": 52727.277999999926,
      "d": 878.7879666666631,
      "v": 90
    },
    {
      "midi": 62,
      "hit": false,
      "t": 52727.277999999926,
      "d": 886.3637249999956,
      "v": 90
    },
    {
      "midi": 55,
      "hit": false,
      "t": 52727.277999999926,
      "d": 893.9394833333281,
      "v": 90
    },
    {
      "midi": 57,
      "hit": false,
      "t": 52727.277999999926,
      "d": 893.9394833333281,
      "v": 90
    },
    {
      "midi": 50,
      "hit": false,
      "t": 52727.277999999926,
      "d": 909.0909999999931,
      "v": 120
    },
    {
      "midi": 38,
      "hit": false,
      "t": 52765.15679166666,
      "d": 1643.9395583333317,
      "v": 82
    },
    {
      "midi": 62,
      "hit": false,
      "t": 53636.36899999992,
      "d": 878.7879666666631,
      "v": 120
    },
    {
      "midi": 66,
      "hit": false,
      "t": 53636.36899999992,
      "d": 878.7879666666631,
      "v": 90
    },
    {
      "midi": 57,
      "hit": false,
      "t": 53636.36899999992,
      "d": 886.3637249999956,
      "v": 90
    },
    {
      "midi": 50,
      "hit": false,
      "t": 54545.45999999991,
      "d": 909.0910000000003,
      "v": 120
    },
    {
      "midi": 59,
      "hit": false,
      "t": 54545.45999999991,
      "d": 1787.8789666666635,
      "v": 90
    },
    {
      "midi": 62,
      "hit": false,
      "t": 54545.45999999991,
      "d": 1795.454724999996,
      "v": 90
    },
    {
      "midi": 67,
      "hit": false,
      "t": 54545.45999999991,
      "d": 1795.454724999996,
      "v": 90
    },
    {
      "midi": 31,
      "hit": false,
      "t": 54621.217583333324,
      "d": 1545.454700000002,
      "v": 95
    },
    {
      "midi": 55,
      "hit": false,
      "t": 55454.55099999991,
      "d": 886.3637249999956,
      "v": 120
    },
    {
      "midi": 54,
      "hit": false,
      "t": 56363.641999999905,
      "d": 454.5455000000002,
      "v": 110
    },
    {
      "midi": 30,
      "hit": false,
      "t": 56401.52079166666,
      "d": 1568.1819749999995,
      "v": 102
    },
    {
      "midi": 57,
      "hit": false,
      "t": 56818.187499999905,
      "d": 454.5455000000002,
      "v": 110
    },
    {
      "midi": 62,
      "hit": false,
      "t": 57272.732999999906,
      "d": 454.5455000000002,
      "v": 110
    },
    {
      "midi": 66,
      "hit": false,
      "t": 57727.278499999906,
      "d": 424.2424666666702,
      "v": 110
    },
    {
      "midi": 65,
      "hit": false,
      "t": 58181.823999999906,
      "d": 431.8182250000027,
      "v": 120
    },
    {
      "midi": 69,
      "hit": false,
      "t": 58181.823999999906,
      "d": 1787.8789666666635,
      "v": 90
    },
    {
      "midi": 29,
      "hit": false,
      "t": 58181.82399999999,
      "d": 1803.0304833333357,
      "v": 100
    },
    {
      "midi": 62,
      "hit": false,
      "t": 58636.369499999906,
      "d": 454.5455000000002,
      "v": 110
    },
    {
      "midi": 65,
      "hit": false,
      "t": 59090.914999999906,
      "d": 878.7879666666631,
      "v": 120
    },
    {
      "midi": 64,
      "hit": false,
      "t": 60000.0059999999,
      "d": 909.0910000000003,
      "v": 120
    },
    {
      "midi": 55,
      "hit": false,
      "t": 60000.0059999999,
      "d": 1795.4547250000032,
      "v": 90
    },
    {
      "midi": 60,
      "hit": false,
      "t": 60000.0059999999,
      "d": 1803.0304833333357,
      "v": 90
    },
    {
      "midi": 28,
      "hit": false,
      "t": 60000.005999999994,
      "d": 1659.0910749999966,
      "v": 103
    },
    {
      "midi": 52,
      "hit": false,
      "t": 60909.0969999999,
      "d": 909.0910000000003,
      "v": 120
    },
    {
      "midi": 55,
      "hit": false,
      "t": 61818.1879999999,
      "d": 909.0910000000003,
      "v": 120
    },
    {
      "midi": 62,
      "hit": false,
      "t": 61818.1879999999,
      "d": 1787.8789666666635,
      "v": 90
    },
    {
      "midi": 38,
      "hit": false,
      "t": 61848.491033333325,
      "d": 1750.000175000001,
      "v": 90
    },
    {
      "midi": 59,
      "hit": false,
      "t": 62727.2789999999,
      "d": 878.7879666666631,
      "v": 120
    },
    {
      "midi": 60,
      "hit": false,
      "t": 63636.36999999989,
      "d": 454.5455000000002,
      "v": 120
    },
    {
      "midi": 57,
      "hit": false,
      "t": 63636.36999999989,
      "d": 1787.8789666666707,
      "v": 90
    },
    {
      "midi": 62,
      "hit": false,
      "t": 63636.36999999989,
      "d": 1787.8789666666707,
      "v": 90
    },
    {
      "midi": 38,
      "hit": false,
      "t": 63659.09727499999,
      "d": 1803.0304833333357,
      "v": 77
    },
    {
      "midi": 55,
      "hit": false,
      "t": 64090.915499999894,
      "d": 454.5455000000002,
      "v": 110
    },
    {
      "midi": 55,
      "hit": false,
      "t": 64545.460999999894,
      "d": 454.5455000000002,
      "v": 110
    },
    {
      "midi": 50,
      "hit": false,
      "t": 65000.006499999894,
      "d": 454.5455000000002,
      "v": 110
    },
    {
      "midi": 50,
      "hit": false,
      "t": 65454.551999999894,
      "d": 3606.0609666666714,
      "v": 110
    },
    {
      "midi": 59,
      "hit": false,
      "t": 65454.551999999894,
      "d": 3606.0609666666714,
      "v": 110
    },
    {
      "midi": 62,
      "hit": false,
      "t": 65454.551999999894,
      "d": 3613.636725000004,
      "v": 90
    },
    {
      "midi": 67,
      "hit": false,
      "t": 65454.551999999894,
      "d": 3613.636725000004,
      "v": 90
    },
    {
      "midi": 55,
      "hit": false,
      "t": 65454.551999999894,
      "d": 3621.2124833333364,
      "v": 110
    },
    {
      "midi": 31,
      "hit": false,
      "t": 65522.733824999996,
      "d": 3477.2730749999973,
      "v": 91
    },
    {
      "midi": 52,
      "hit": false,
      "t": 69090.9159999999,
      "d": 909.0910000000003,
      "v": 120
    },
    {
      "midi": 59,
      "hit": false,
      "t": 69090.9159999999,
      "d": 1795.4547250000032,
      "v": 90
    },
    {
      "midi": 64,
      "hit": false,
      "t": 69090.9159999999,
      "d": 1803.0304833333357,
      "v": 90
    },
    {
      "midi": 67,
      "hit": false,
      "t": 69090.9159999999,
      "d": 1803.0304833333357,
      "v": 90
    },
    {
      "midi": 28,
      "hit": false,
      "t": 69106.06751666666,
      "d": 1712.1213833333313,
      "v": 104
    },
    {
      "midi": 52,
      "hit": false,
      "t": 70000.0069999999,
      "d": 886.3637250000029,
      "v": 120
    },
    {
      "midi": 64,
      "hit": false,
      "t": 70909.0979999999,
      "d": 909.0910000000003,
      "v": 120
    },
    {
      "midi": 67,
      "hit": false,
      "t": 70909.0979999999,
      "d": 1803.0304833333357,
      "v": 90
    },
    {
      "midi": 36,
      "hit": false,
      "t": 70939.40103333333,
      "d": 1643.939558333339,
      "v": 76
    },
    {
      "midi": 60,
      "hit": false,
      "t": 71818.1889999999,
      "d": 878.7879666666704,
      "v": 110
    },
    {
      "midi": 38,
      "hit": false,
      "t": 72719.70424166667,
      "d": 1772.7274500000058,
      "v": 84
    },
    {
      "midi": 55,
      "hit": false,
      "t": 72727.2799999999,
      "d": 886.3637250000029,
      "v": 120
    },
    {
      "midi": 62,
      "hit": false,
      "t": 72727.2799999999,
      "d": 1795.4547250000032,
      "v": 90
    },
    {
      "midi": 59,
      "hit": false,
      "t": 73636.3709999999,
      "d": 886.3637250000029,
      "v": 120
    },
    {
      "midi": 38,
      "hit": false,
      "t": 74537.88624166667,
      "d": 1825.7577583333332,
      "v": 90
    },
    {
      "midi": 69,
      "hit": false,
      "t": 74545.4619999999,
      "d": 878.7879666666704,
      "v": 90
    },
    {
      "midi": 62,
      "hit": false,
      "t": 74545.4619999999,
      "d": 886.3637250000029,
      "v": 120
    },
    {
      "midi": 60,
      "hit": false,
      "t": 74545.4619999999,
      "d": 893.9394833333354,
      "v": 90
    },
    {
      "midi": 67,
      "hit": false,
      "t": 74545.4619999999,
      "d": 893.9394833333354,
      "v": 90
    },
    {
      "midi": 66,
      "hit": false,
      "t": 75454.5529999999,
      "d": 878.7879666666704,
      "v": 120
    },
    {
      "midi": 60,
      "hit": false,
      "t": 75454.5529999999,
      "d": 893.9394833333354,
      "v": 90
    },
    {
      "midi": 69,
      "hit": false,
      "t": 75454.5529999999,
      "d": 893.9394833333354,
      "v": 90
    },
    {
      "midi": 52,
      "hit": false,
      "t": 76363.6439999999,
      "d": 909.0910000000003,
      "v": 120
    },
    {
      "midi": 55,
      "hit": false,
      "t": 76363.6439999999,
      "d": 1787.8789666666562,
      "v": 90
    },
    {
      "midi": 64,
      "hit": false,
      "t": 76363.6439999999,
      "d": 1787.8789666666562,
      "v": 90
    },
    {
      "midi": 59,
      "hit": false,
      "t": 76363.6439999999,
      "d": 1795.4547249999887,
      "v": 90
    },
    {
      "midi": 36,
      "hit": false,
      "t": 76454.5531,
      "d": 1727.2728999999963,
      "v": 94
    },
    {
      "midi": 60,
      "hit": false,
      "t": 77272.7349999999,
      "d": 454.5454999999929,
      "v": 120
    },
    {
      "midi": 52,
      "hit": false,
      "t": 77727.28049999989,
      "d": 431.81822499999544,
      "v": 110
    },
    {
      "midi": 52,
      "hit": false,
      "t": 78181.82599999988,
      "d": 909.0910000000003,
      "v": 110
    },
    {
      "midi": 55,
      "hit": false,
      "t": 78181.82599999988,
      "d": 1803.0304833333357,
      "v": 90
    },
    {
      "midi": 60,
      "hit": false,
      "t": 78181.82599999988,
      "d": 1803.0304833333357,
      "v": 90
    },
    {
      "midi": 64,
      "hit": false,
      "t": 78181.82599999988,
      "d": 1803.0304833333357,
      "v": 90
    },
    {
      "midi": 38,
      "hit": false,
      "t": 78250.00782500001,
      "d": 1757.5759333333262,
      "v": 89
    },
    {
      "midi": 48,
      "hit": false,
      "t": 79090.91699999988,
      "d": 909.0910000000003,
      "v": 120
    },
    {
      "midi": 50,
      "hit": false,
      "t": 80000.00799999989,
      "d": 909.0910000000003,
      "v": 120
    },
    {
      "midi": 55,
      "hit": false,
      "t": 80000.00799999989,
      "d": 1787.8789666666707,
      "v": 90
    },
    {
      "midi": 62,
      "hit": false,
      "t": 80000.00799999989,
      "d": 1795.4547250000032,
      "v": 90
    },
    {
      "midi": 31,
      "hit": false,
      "t": 80000.008,
      "d": 1643.939558333339,
      "v": 110
    },
    {
      "midi": 59,
      "hit": false,
      "t": 80909.09899999989,
      "d": 878.7879666666704,
      "v": 120
    },
    {
      "midi": 55,
      "hit": false,
      "t": 81818.18999999989,
      "d": 454.5454999999929,
      "v": 120
    },
    {
      "midi": 28,
      "hit": false,
      "t": 81848.49303333335,
      "d": 1772.7274500000058,
      "v": 109
    },
    {
      "midi": 50,
      "hit": false,
      "t": 82272.73549999988,
      "d": 454.5454999999929,
      "v": 110
    },
    {
      "midi": 62,
      "hit": false,
      "t": 82727.28099999987,
      "d": 454.5454999999929,
      "v": 110
    },
    {
      "midi": 59,
      "hit": false,
      "t": 83181.82649999986,
      "d": 431.81822499999544,
      "v": 110
    },
    {
      "midi": 48,
      "hit": false,
      "t": 83636.37199999986,
      "d": 909.0910000000003,
      "v": 120
    },
    {
      "midi": 60,
      "hit": false,
      "t": 83636.37199999986,
      "d": 1787.8789666666707,
      "v": 90
    },
    {
      "midi": 67,
      "hit": false,
      "t": 83636.37199999986,
      "d": 1795.4547250000032,
      "v": 90
    },
    {
      "midi": 64,
      "hit": false,
      "t": 83636.37199999986,
      "d": 1803.0304833333357,
      "v": 90
    },
    {
      "midi": 33,
      "hit": false,
      "t": 83681.82655000001,
      "d": 1659.091075000004,
      "v": 110
    },
    {
      "midi": 52,
      "hit": false,
      "t": 84545.46299999986,
      "d": 909.0910000000003,
      "v": 110
    },
    {
      "midi": 54,
      "hit": false,
      "t": 85454.55399999986,
      "d": 454.5454999999929,
      "v": 120
    },
    {
      "midi": 69,
      "hit": false,
      "t": 85454.55399999986,
      "d": 1787.8789666666416,
      "v": 90
    },
    {
      "midi": 66,
      "hit": false,
      "t": 85454.55399999986,
      "d": 1803.0304833333066,
      "v": 90
    },
    {
      "midi": 30,
      "hit": false,
      "t": 85454.55400000002,
      "d": 1553.0304583333345,
      "v": 106
    },
    {
      "midi": 54,
      "hit": false,
      "t": 85909.09949999985,
      "d": 454.5454999999929,
      "v": 110
    },
    {
      "midi": 50,
      "hit": false,
      "t": 86363.64499999984,
      "d": 454.5454999999929,
      "v": 110
    },
    {
      "midi": 62,
      "hit": false,
      "t": 86818.19049999984,
      "d": 424.24246666666295,
      "v": 110
    },
    {
      "midi": 62,
      "hit": false,
      "t": 87272.73599999983,
      "d": 454.5454999999929,
      "v": 120
    },
    {
      "midi": 31,
      "hit": false,
      "t": 87272.73600000002,
      "d": 1780.3032083333383,
      "v": 96
    },
    {
      "midi": 62,
      "hit": false,
      "t": 87727.28149999982,
      "d": 454.5454999999929,
      "v": 110
    },
    {
      "midi": 50,
      "hit": false,
      "t": 88181.82699999982,
      "d": 454.5454999999929,
      "v": 110
    },
    {
      "midi": 55,
      "hit": false,
      "t": 88636.37249999981,
      "d": 886.3637250000029,
      "v": 110
    },
    {
      "midi": 31,
      "hit": false,
      "t": 89143.94830833336,
      "d": 901.5152416666679,
      "v": 87
    },
    {
      "midi": 59,
      "hit": false,
      "t": 89545.46349999981,
      "d": 424.24246666666295,
      "v": 110
    },
    {
      "midi": 62,
      "hit": false,
      "t": 90000.0089999998,
      "d": 454.5454999999929,
      "v": 120
    },
    {
      "midi": 66,
      "hit": false,
      "t": 90000.0089999998,
      "d": 886.3637249999883,
      "v": 90
    },
    {
      "midi": 67,
      "hit": false,
      "t": 90000.0089999998,
      "d": 893.9394833333208,
      "v": 90
    },
    {
      "midi": 35,
      "hit": false,
      "t": 90000.00900000003,
      "d": 787.878866666666,
      "v": 70
    },
    {
      "midi": 59,
      "hit": false,
      "t": 90454.5544999998,
      "d": 424.24246666666295,
      "v": 110
    },
    {
      "midi": 60,
      "hit": false,
      "t": 90909.09999999979,
      "d": 909.0910000000003,
      "v": 120
    },
    {
      "midi": 55,
      "hit": false,
      "t": 90909.09999999979,
      "d": 1803.0304833333357,
      "v": 90
    },
    {
      "midi": 59,
      "hit": false,
      "t": 90909.09999999979,
      "d": 1803.0304833333357,
      "v": 90
    },
    {
      "midi": 64,
      "hit": false,
      "t": 90909.09999999979,
      "d": 1803.0304833333357,
      "v": 90
    },
    {
      "midi": 36,
      "hit": false,
      "t": 90909.10000000003,
      "d": 1712.1213833333313,
      "v": 65
    },
    {
      "midi": 48,
      "hit": false,
      "t": 91818.19099999979,
      "d": 909.0910000000003,
      "v": 110
    },
    {
      "midi": 52,
      "hit": false,
      "t": 92727.28199999979,
      "d": 909.0910000000003,
      "v": 120
    },
    {
      "midi": 67,
      "hit": false,
      "t": 92727.28199999979,
      "d": 1787.8789666666707,
      "v": 90
    },
    {
      "midi": 64,
      "hit": false,
      "t": 92727.28199999979,
      "d": 1795.4547250000032,
      "v": 90
    },
    {
      "midi": 60,
      "hit": false,
      "t": 92727.28199999979,
      "d": 1803.0304833333357,
      "v": 90
    },
    {
      "midi": 38,
      "hit": false,
      "t": 92772.73655000003,
      "d": 1704.5456249999988,
      "v": 71
    },
    {
      "midi": 52,
      "hit": false,
      "t": 93636.37299999979,
      "d": 909.0910000000003,
      "v": 110
    },
    {
      "midi": 55,
      "hit": false,
      "t": 94545.46399999979,
      "d": 909.0910000000003,
      "v": 120
    },
    {
      "midi": 59,
      "hit": false,
      "t": 94545.46399999979,
      "d": 1795.4547250000032,
      "v": 90
    },
    {
      "midi": 62,
      "hit": false,
      "t": 94545.46399999979,
      "d": 1795.4547250000032,
      "v": 90
    },
    {
      "midi": 31,
      "hit": false,
      "t": 94575.76703333337,
      "d": 1757.5759333333262,
      "v": 101
    },
    {
      "midi": 50,
      "hit": false,
      "t": 95454.55499999979,
      "d": 909.0910000000003,
      "v": 110
    },
    {
      "midi": 55,
      "hit": false,
      "t": 96363.64599999979,
      "d": 909.0910000000003,
      "v": 120
    },
    {
      "midi": 59,
      "hit": false,
      "t": 96363.64599999979,
      "d": 1787.8789666666707,
      "v": 90
    },
    {
      "midi": 67,
      "hit": false,
      "t": 96363.64599999979,
      "d": 1787.8789666666707,
      "v": 90
    },
    {
      "midi": 62,
      "hit": false,
      "t": 96363.64599999979,
      "d": 1795.4547250000032,
      "v": 90
    },
    {
      "midi": 28,
      "hit": false,
      "t": 96416.67630833336,
      "d": 1787.8789666666707,
      "v": 97
    },
    {
      "midi": 55,
      "hit": false,
      "t": 97272.73699999979,
      "d": 909.0910000000003,
      "v": 120
    },
    {
      "midi": 52,
      "hit": false,
      "t": 98181.82799999979,
      "d": 909.0910000000003,
      "v": 120
    },
    {
      "midi": 60,
      "hit": false,
      "t": 98181.82799999979,
      "d": 1795.4547250000032,
      "v": 90
    },
    {
      "midi": 64,
      "hit": false,
      "t": 98181.82799999979,
      "d": 1795.4547250000032,
      "v": 90
    },
    {
      "midi": 67,
      "hit": false,
      "t": 98181.82799999979,
      "d": 1803.0304833333357,
      "v": 90
    },
    {
      "midi": 33,
      "hit": false,
      "t": 98265.1613416667,
      "d": 1696.9698666666663,
      "v": 102
    },
    {
      "midi": 52,
      "hit": false,
      "t": 99090.91899999979,
      "d": 909.0910000000003,
      "v": 120
    },
    {
      "midi": 48,
      "hit": false,
      "t": 100000.00999999979,
      "d": 1787.8789666666707,
      "v": 110
    },
    {
      "midi": 55,
      "hit": false,
      "t": 100000.00999999979,
      "d": 1787.8789666666707,
      "v": 110
    },
    {
      "midi": 64,
      "hit": false,
      "t": 100000.00999999979,
      "d": 1787.8789666666707,
      "v": 90
    },
    {
      "midi": 52,
      "hit": false,
      "t": 100000.00999999979,
      "d": 1803.0304833333357,
      "v": 110
    },
    {
      "midi": 60,
      "hit": false,
      "t": 100000.00999999979,
      "d": 1803.0304833333357,
      "v": 90
    },
    {
      "midi": 31,
      "hit": false,
      "t": 100000.01000000002,
      "d": 1810.6062416666682,
      "v": 55
    },
    {
      "midi": 66,
      "hit": false,
      "t": 101818.19199999979,
      "d": 909.0910000000003,
      "v": 120
    },
    {
      "midi": 62,
      "hit": false,
      "t": 101818.19199999979,
      "d": 1803.0304833333212,
      "v": 90
    },
    {
      "midi": 69,
      "hit": false,
      "t": 101818.19199999979,
      "d": 1803.0304833333212,
      "v": 90
    },
    {
      "midi": 30,
      "hit": false,
      "t": 101856.07079166669,
      "d": 1734.8486583333288,
      "v": 90
    },
    {
      "midi": 50,
      "hit": false,
      "t": 102727.28299999979,
      "d": 454.5454999999929,
      "v": 120
    },
    {
      "midi": 54,
      "hit": false,
      "t": 103181.82849999978,
      "d": 454.5454999999929,
      "v": 110
    },
    {
      "midi": 64,
      "hit": false,
      "t": 103636.37399999978,
      "d": 886.3637250000029,
      "v": 120
    },
    {
      "midi": 67,
      "hit": false,
      "t": 103636.37399999978,
      "d": 886.3637250000029,
      "v": 90
    },
    {
      "midi": 60,
      "hit": false,
      "t": 103636.37399999978,
      "d": 893.9394833333354,
      "v": 90
    },
    {
      "midi": 28,
      "hit": false,
      "t": 103659.10127500002,
      "d": 946.9697916666628,
      "v": 100
    },
    {
      "midi": 54,
      "hit": false,
      "t": 104545.46499999978,
      "d": 7.575758333332487,
      "v": 110
    },
    {
      "midi": 57,
      "hit": false,
      "t": 104545.46499999978,
      "d": 7.575758333332487,
      "v": 110
    },
    {
      "midi": 62,
      "hit": false,
      "t": 104545.46499999978,
      "d": 886.3637250000029,
      "v": 110
    },
    {
      "midi": 66,
      "hit": false,
      "t": 104545.46499999978,
      "d": 886.3637250000029,
      "v": 90
    },
    {
      "midi": 30,
      "hit": false,
      "t": 104545.46500000003,
      "d": 818.181899999996,
      "v": 99
    },
    {
      "midi": 55,
      "hit": false,
      "t": 105454.55599999978,
      "d": 909.0910000000003,
      "v": 120
    },
    {
      "midi": 67,
      "hit": false,
      "t": 105454.55599999978,
      "d": 1795.4547250000032,
      "v": 90
    },
    {
      "midi": 62,
      "hit": false,
      "t": 105454.55599999978,
      "d": 1803.0304833333357,
      "v": 90
    },
    {
      "midi": 31,
      "hit": false,
      "t": 105454.55600000003,
      "d": 1666.6668333333364,
      "v": 104
    },
    {
      "midi": 59,
      "hit": false,
      "t": 106363.64699999978,
      "d": 893.9394833333354,
      "v": 120
    },
    {
      "midi": 62,
      "hit": false,
      "t": 107272.73799999978,
      "d": 909.0910000000003,
      "v": 120
    },
    {
      "midi": 66,
      "hit": false,
      "t": 107272.73799999978,
      "d": 1787.8789666666707,
      "v": 90
    },
    {
      "midi": 57,
      "hit": false,
      "t": 107272.73799999978,
      "d": 1795.4547250000032,
      "v": 90
    },
    {
      "midi": 30,
      "hit": false,
      "t": 107340.91982500003,
      "d": 1696.9698666666663,
      "v": 81
    },
    {
      "midi": 50,
      "hit": false,
      "t": 108181.82899999978,
      "d": 909.0910000000003,
      "v": 120
    },
    {
      "midi": 52,
      "hit": false,
      "t": 109090.91999999978,
      "d": 1787.8789666666707,
      "v": 110
    },
    {
      "midi": 64,
      "hit": false,
      "t": 109090.91999999978,
      "d": 1787.8789666666707,
      "v": 90
    },
    {
      "midi": 60,
      "hit": false,
      "t": 109090.91999999978,
      "d": 1795.4547250000032,
      "v": 110
    },
    {
      "midi": 67,
      "hit": false,
      "t": 109090.91999999978,
      "d": 1795.4547250000032,
      "v": 90
    },
    {
      "midi": 55,
      "hit": false,
      "t": 109090.91999999978,
      "d": 1803.0304833333357,
      "v": 110
    },
    {
      "midi": 28,
      "hit": false,
      "t": 109136.37455000004,
      "d": 1704.5456249999988,
      "v": 94
    },
    {
      "midi": 50,
      "hit": false,
      "t": 110909.10199999978,
      "d": 909.0910000000003,
      "v": 120
    },
    {
      "midi": 59,
      "hit": false,
      "t": 110909.10199999978,
      "d": 1795.4547249999887,
      "v": 90
    },
    {
      "midi": 55,
      "hit": false,
      "t": 110909.10199999978,
      "d": 1803.0304833333212,
      "v": 90
    },
    {
      "midi": 38,
      "hit": false,
      "t": 110939.40503333337,
      "d": 1780.3032083333383,
      "v": 71
    },
    {
      "midi": 50,
      "hit": false,
      "t": 111818.19299999978,
      "d": 454.5454999999929,
      "v": 120
    },
    {
      "midi": 62,
      "hit": false,
      "t": 112272.73849999977,
      "d": 431.81822499999544,
      "v": 110
    },
    {
      "midi": 60,
      "hit": false,
      "t": 112727.28399999977,
      "d": 909.0910000000003,
      "v": 120
    },
    {
      "midi": 67,
      "hit": false,
      "t": 112727.28399999977,
      "d": 1795.4547250000032,
      "v": 90
    },
    {
      "midi": 36,
      "hit": false,
      "t": 112727.28400000004,
      "d": 1651.5153166666714,
      "v": 77
    },
    {
      "midi": 64,
      "hit": false,
      "t": 113636.37499999977,
      "d": 893.9394833333354,
      "v": 120
    },
    {
      "midi": 50,
      "hit": false,
      "t": 114545.46599999977,
      "d": 909.0910000000003,
      "v": 120
    },
    {
      "midi": 59,
      "hit": false,
      "t": 114545.46599999977,
      "d": 1795.4547250000032,
      "v": 90
    },
    {
      "midi": 67,
      "hit": false,
      "t": 114545.46599999977,
      "d": 1803.0304833333357,
      "v": 90
    },
    {
      "midi": 35,
      "hit": false,
      "t": 114606.07206666672,
      "d": 1636.3638000000064,
      "v": 81
    },
    {
      "midi": 62,
      "hit": false,
      "t": 115454.55699999977,
      "d": 886.3637250000029,
      "v": 120
    },
    {
      "midi": 48,
      "hit": false,
      "t": 116363.64799999977,
      "d": 909.0910000000003,
      "v": 120
    },
    {
      "midi": 60,
      "hit": false,
      "t": 116363.64799999977,
      "d": 1787.8789666666707,
      "v": 90
    },
    {
      "midi": 64,
      "hit": false,
      "t": 116363.64799999977,
      "d": 1795.4547250000032,
      "v": 90
    },
    {
      "midi": 67,
      "hit": false,
      "t": 116363.64799999977,
      "d": 1795.4547250000032,
      "v": 90
    },
    {
      "midi": 33,
      "hit": false,
      "t": 116363.64800000006,
      "d": 1810.6062416666682,
      "v": 87
    },
    {
      "midi": 52,
      "hit": false,
      "t": 117272.73899999977,
      "d": 886.3637250000029,
      "v": 120
    },
    {
      "midi": 50,
      "hit": false,
      "t": 118181.82999999977,
      "d": 454.5454999999929,
      "v": 120
    },
    {
      "midi": 57,
      "hit": false,
      "t": 118181.82999999977,
      "d": 878.7879666666558,
      "v": 90
    },
    {
      "midi": 62,
      "hit": false,
      "t": 118181.82999999977,
      "d": 878.7879666666558,
      "v": 90
    },
    {
      "midi": 60,
      "hit": false,
      "t": 118181.82999999977,
      "d": 886.3637249999883,
      "v": 90
    },
    {
      "midi": 67,
      "hit": false,
      "t": 118181.82999999977,
      "d": 886.3637249999883,
      "v": 90
    },
    {
      "midi": 38,
      "hit": false,
      "t": 118234.86030833339,
      "d": 1696.9698666666663,
      "v": 76
    },
    {
      "midi": 55,
      "hit": false,
      "t": 118636.37549999976,
      "d": 454.5454999999929,
      "v": 110
    },
    {
      "midi": 57,
      "hit": false,
      "t": 119090.92099999975,
      "d": 454.5454999999929,
      "v": 110
    },
    {
      "midi": 66,
      "hit": false,
      "t": 119090.92099999975,
      "d": 893.9394833333208,
      "v": 90
    },
    {
      "midi": 69,
      "hit": false,
      "t": 119090.92099999975,
      "d": 893.9394833333208,
      "v": 90
    },
    {
      "midi": 62,
      "hit": false,
      "t": 119545.46649999975,
      "d": 431.81822499999544,
      "v": 110
    },
    {
      "midi": 59,
      "hit": false,
      "t": 120000.01199999974,
      "d": 909.0910000000003,
      "v": 120
    },
    {
      "midi": 62,
      "hit": false,
      "t": 120000.01199999974,
      "d": 1795.4547250000032,
      "v": 90
    },
    {
      "midi": 67,
      "hit": false,
      "t": 120000.01199999974,
      "d": 1803.0304833333357,
      "v": 90
    },
    {
      "midi": 31,
      "hit": false,
      "t": 120015.16351666673,
      "d": 1833.3335166666657,
      "v": 109
    },
    {
      "midi": 55,
      "hit": false,
      "t": 120909.10299999974,
      "d": 886.3637250000029,
      "v": 120
    },
    {
      "midi": 62,
      "hit": false,
      "t": 121818.19399999974,
      "d": 909.0910000000003,
      "v": 120
    },
    {
      "midi": 57,
      "hit": false,
      "t": 121818.19399999974,
      "d": 1787.8789666666707,
      "v": 90
    },
    {
      "midi": 30,
      "hit": false,
      "t": 121818.19400000006,
      "d": 1696.9698666666663,
      "v": 64
    },
    {
      "midi": 66,
      "hit": false,
      "t": 122727.28499999974,
      "d": 878.7879666666704,
      "v": 110
    },
    {
      "midi": 65,
      "hit": false,
      "t": 123636.37599999974,
      "d": 909.0910000000003,
      "v": 120
    },
    {
      "midi": 69,
      "hit": false,
      "t": 123636.37599999974,
      "d": 1803.0304833333357,
      "v": 90
    },
    {
      "midi": 29,
      "hit": false,
      "t": 123659.10327500006,
      "d": 1780.3032083333383,
      "v": 90
    },
    {
      "midi": 57,
      "hit": false,
      "t": 124545.46699999974,
      "d": 7.575758333332487,
      "v": 110
    },
    {
      "midi": 62,
      "hit": false,
      "t": 124545.46699999974,
      "d": 7.575758333332487,
      "v": 110
    },
    {
      "midi": 65,
      "hit": false,
      "t": 124545.46699999974,
      "d": 886.3637250000029,
      "v": 110
    },
    {
      "midi": 52,
      "hit": false,
      "t": 125454.55799999974,
      "d": 909.0910000000003,
      "v": 120
    },
    {
      "midi": 64,
      "hit": false,
      "t": 125454.55799999974,
      "d": 1787.8789666666707,
      "v": 90
    },
    {
      "midi": 60,
      "hit": false,
      "t": 125454.55799999974,
      "d": 1795.4547250000032,
      "v": 90
    },
    {
      "midi": 28,
      "hit": false,
      "t": 125522.73982500007,
      "d": 1522.7274250000046,
      "v": 78
    },
    {
      "midi": 55,
      "hit": false,
      "t": 126363.64899999974,
      "d": 886.3637250000029,
      "v": 120
    },
    {
      "midi": 59,
      "hit": false,
      "t": 127272.73999999974,
      "d": 431.81822499999544,
      "v": 120
    },
    {
      "midi": 38,
      "hit": false,
      "t": 127303.04303333341,
      "d": 1742.4244166666613,
      "v": 77
    },
    {
      "midi": 55,
      "hit": false,
      "t": 127727.28549999974,
      "d": 454.5454999999929,
      "v": 110
    },
    {
      "midi": 59,
      "hit": false,
      "t": 128181.83099999973,
      "d": 454.5454999999929,
      "v": 120
    },
    {
      "midi": 62,
      "hit": false,
      "t": 128636.37649999972,
      "d": 439.3939833333279,
      "v": 110
    },
    {
      "midi": 60,
      "hit": false,
      "t": 129090.92199999971,
      "d": 909.0910000000003,
      "v": 120
    },
    {
      "midi": 55,
      "hit": false,
      "t": 129090.92199999971,
      "d": 1795.4547250000032,
      "v": 90
    },
    {
      "midi": 62,
      "hit": false,
      "t": 129090.92199999971,
      "d": 1795.4547250000032,
      "v": 90
    },
    {
      "midi": 38,
      "hit": false,
      "t": 129098.4977583334,
      "d": 1734.8486583333288,
      "v": 82
    },
    {
      "midi": 57,
      "hit": false,
      "t": 130000.01299999972,
      "d": 886.3637250000029,
      "v": 120
    },
    {
      "midi": 55,
      "hit": false,
      "t": 130909.10399999972,
      "d": 454.5454999999929,
      "v": 120
    },
    {
      "midi": 67,
      "hit": false,
      "t": 130909.10399999972,
      "d": 1795.4547249999741,
      "v": 90
    },
    {
      "midi": 31,
      "hit": false,
      "t": 130954.55855000006,
      "d": 1560.6062166666525,
      "v": 90
    },
    {
      "midi": 59,
      "hit": false,
      "t": 131363.6494999997,
      "d": 909.0909999999858,
      "v": 110
    },
    {
      "midi": 62,
      "hit": false,
      "t": 132272.7404999997,
      "d": 431.81822499999544,
      "v": 110
    },
    {
      "midi": 66,
      "hit": false,
      "t": 132727.2859999997,
      "d": 454.54550000000745,
      "v": 120
    },
    {
      "midi": 62,
      "hit": false,
      "t": 132727.2859999997,
      "d": 878.787966666685,
      "v": 90
    },
    {
      "midi": 30,
      "hit": false,
      "t": 132780.3163083334,
      "d": 810.606141666678,
      "v": 112
    },
    {
      "midi": 57,
      "hit": false,
      "t": 133181.8314999997,
      "d": 431.81822500002454,
      "v": 110
    },
    {
      "midi": 32,
      "hit": false,
      "t": 133628.80124166675,
      "d": 765.151591666654,
      "v": 108
    },
    {
      "midi": 52,
      "hit": false,
      "t": 133636.37699999975,
      "d": 7.575758333347039,
      "v": 110
    },
    {
      "midi": 56,
      "hit": false,
      "t": 133636.37699999975,
      "d": 7.575758333347039,
      "v": 110
    },
    {
      "midi": 59,
      "hit": false,
      "t": 133636.37699999975,
      "d": 886.3637250000029,
      "v": 110
    },
    {
      "midi": 64,
      "hit": false,
      "t": 133636.37699999975,
      "d": 886.3637250000029,
      "v": 90
    },
    {
      "midi": 52,
      "hit": false,
      "t": 134545.46799999976,
      "d": 454.54550000000745,
      "v": 120
    },
    {
      "midi": 64,
      "hit": false,
      "t": 134545.46799999976,
      "d": 1787.8789666666707,
      "v": 90
    },
    {
      "midi": 69,
      "hit": false,
      "t": 134545.46799999976,
      "d": 1803.0304833333357,
      "v": 90
    },
    {
      "midi": 33,
      "hit": false,
      "t": 134545.46800000008,
      "d": 1696.969866666681,
      "v": 64
    },
    {
      "midi": 57,
      "hit": false,
      "t": 135000.01349999977,
      "d": 909.0909999999858,
      "v": 110
    },
    {
      "midi": 61,
      "hit": false,
      "t": 135909.10449999975,
      "d": 424.2424666666775,
      "v": 110
    },
    {
      "midi": 64,
      "hit": false,
      "t": 136363.64999999976,
      "d": 909.0909999999858,
      "v": 120
    },
    {
      "midi": 59,
      "hit": false,
      "t": 136363.64999999976,
      "d": 1787.8789666666416,
      "v": 90
    },
    {
      "midi": 68,
      "hit": false,
      "t": 136363.64999999976,
      "d": 1795.4547249999887,
      "v": 90
    },
    {
      "midi": 32,
      "hit": false,
      "t": 136363.65000000008,
      "d": 1696.969866666681,
      "v": 81
    },
    {
      "midi": 64,
      "hit": false,
      "t": 137272.74099999975,
      "d": 886.3637250000029,
      "v": 120
    },
    {
      "midi": 62,
      "hit": false,
      "t": 138181.83199999976,
      "d": 909.0909999999858,
      "v": 120
    },
    {
      "midi": 66,
      "hit": false,
      "t": 138181.83199999976,
      "d": 1787.8789666666416,
      "v": 90
    },
    {
      "midi": 57,
      "hit": false,
      "t": 138181.83199999976,
      "d": 1803.0304833333066,
      "v": 90
    },
    {
      "midi": 30,
      "hit": false,
      "t": 138189.40775833343,
      "d": 1757.5759333333408,
      "v": 110
    },
    {
      "midi": 50,
      "hit": false,
      "t": 139090.92299999975,
      "d": 909.0909999999858,
      "v": 110
    },
    {
      "midi": 49,
      "hit": false,
      "t": 140000.01399999973,
      "d": 454.54550000000745,
      "v": 120
    },
    {
      "midi": 57,
      "hit": false,
      "t": 140000.01399999973,
      "d": 1795.4547250000178,
      "v": 90
    },
    {
      "midi": 64,
      "hit": false,
      "t": 140000.01399999973,
      "d": 1795.4547250000178,
      "v": 90
    },
    {
      "midi": 28,
      "hit": false,
      "t": 140060.62006666677,
      "d": 1636.363799999992,
      "v": 106
    },
    {
      "midi": 61,
      "hit": false,
      "t": 140909.10499999975,
      "d": 878.7879666666558,
      "v": 120
    },
    {
      "midi": 57,
      "hit": false,
      "t": 141818.19599999976,
      "d": 454.54550000000745,
      "v": 120
    },
    {
      "midi": 62,
      "hit": false,
      "t": 141818.19599999976,
      "d": 1795.4547250000178,
      "v": 90
    },
    {
      "midi": 66,
      "hit": false,
      "t": 141818.19599999976,
      "d": 1795.4547250000178,
      "v": 90
    },
    {
      "midi": 69,
      "hit": false,
      "t": 141818.19599999976,
      "d": 1795.4547250000178,
      "v": 90
    },
    {
      "midi": 38,
      "hit": false,
      "t": 141840.9232750001,
      "d": 1734.8486583333288,
      "v": 77
    },
    {
      "midi": 57,
      "hit": false,
      "t": 142272.74149999977,
      "d": 454.54550000000745,
      "v": 110
    },
    {
      "midi": 54,
      "hit": false,
      "t": 142727.28699999978,
      "d": 454.54550000000745,
      "v": 110
    },
    {
      "midi": 57,
      "hit": false,
      "t": 143181.8324999998,
      "d": 431.81822499999544,
      "v": 110
    },
    {
      "midi": 61,
      "hit": false,
      "t": 143636.3779999998,
      "d": 909.0909999999858,
      "v": 110
    },
    {
      "midi": 57,
      "hit": false,
      "t": 143636.3779999998,
      "d": 1803.0304833333066,
      "v": 90
    },
    {
      "midi": 37,
      "hit": false,
      "t": 143651.52951666675,
      "d": 1810.6062416666828,
      "v": 86
    },
    {
      "midi": 64,
      "hit": false,
      "t": 144545.46899999978,
      "d": 878.7879666666558,
      "v": 120
    },
    {
      "midi": 62,
      "hit": false,
      "t": 145454.55999999976,
      "d": 909.0909999999858,
      "v": 120
    },
    {
      "midi": 57,
      "hit": false,
      "t": 145454.55999999976,
      "d": 1787.8789666666416,
      "v": 90
    },
    {
      "midi": 66,
      "hit": false,
      "t": 145454.55999999976,
      "d": 1787.8789666666416,
      "v": 90
    },
    {
      "midi": 35,
      "hit": false,
      "t": 145454.56000000008,
      "d": 1750.0001750000229,
      "v": 62
    },
    {
      "midi": 54,
      "hit": false,
      "t": 146363.65099999975,
      "d": 909.0909999999858,
      "v": 110
    },
    {
      "midi": 52,
      "hit": false,
      "t": 147272.74199999974,
      "d": 424.2424666666775,
      "v": 110
    },
    {
      "midi": 57,
      "hit": false,
      "t": 147272.74199999974,
      "d": 424.2424666666775,
      "v": 110
    },
    {
      "midi": 59,
      "hit": false,
      "t": 147272.74199999974,
      "d": 431.81822500002454,
      "v": 110
    },
    {
      "midi": 62,
      "hit": false,
      "t": 147272.74199999974,
      "d": 431.81822500002454,
      "v": 110
    },
    {
      "midi": 64,
      "hit": false,
      "t": 147272.74199999974,
      "d": 439.3939833333716,
      "v": 90
    },
    {
      "midi": 28,
      "hit": false,
      "t": 147272.74200000011,
      "d": 1727.2729000000108,
      "v": 87
    },
    {
      "midi": 56,
      "hit": false,
      "t": 147727.28749999977,
      "d": 909.0909999999858,
      "v": 120
    },
    {
      "midi": 59,
      "hit": false,
      "t": 147727.28749999977,
      "d": 1348.4849833333283,
      "v": 90
    },
    {
      "midi": 64,
      "hit": false,
      "t": 148636.37849999976,
      "d": 439.3939833333425,
      "v": 120
    },
    {
      "midi": 64,
      "hit": false,
      "t": 149090.92399999977,
      "d": 909.0909999999858,
      "v": 120
    },
    {
      "midi": 57,
      "hit": false,
      "t": 149090.92399999977,
      "d": 1795.4547250000178,
      "v": 90
    },
    {
      "midi": 33,
      "hit": false,
      "t": 149136.37855000014,
      "d": 1681.8183499999868,
      "v": 104
    },
    {
      "midi": 61,
      "hit": false,
      "t": 150000.01499999975,
      "d": 454.54550000000745,
      "v": 120
    },
    {
      "midi": 64,
      "hit": false,
      "t": 150454.56049999976,
      "d": 424.2424666666775,
      "v": 110
    },
    {
      "midi": 64,
      "hit": false,
      "t": 150909.1059999998,
      "d": 909.0909999999858,
      "v": 120
    },
    {
      "midi": 68,
      "hit": false,
      "t": 150909.1059999998,
      "d": 1787.8789666666416,
      "v": 90
    },
    {
      "midi": 59,
      "hit": false,
      "t": 150909.1059999998,
      "d": 1795.4547249999887,
      "v": 90
    },
    {
      "midi": 32,
      "hit": false,
      "t": 150909.10600000012,
      "d": 1810.6062416666537,
      "v": 100
    },
    {
      "midi": 56,
      "hit": false,
      "t": 151818.19699999978,
      "d": 909.0910000000149,
      "v": 120
    },
    {
      "midi": 59,
      "hit": false,
      "t": 152727.2879999998,
      "d": 909.0909999999858,
      "v": 120
    },
    {
      "midi": 64,
      "hit": false,
      "t": 152727.2879999998,
      "d": 1787.8789666666416,
      "v": 90
    },
    {
      "midi": 67,
      "hit": false,
      "t": 152727.2879999998,
      "d": 1787.8789666666416,
      "v": 90
    },
    {
      "midi": 31,
      "hit": false,
      "t": 152727.28800000012,
      "d": 1712.1213833333459,
      "v": 88
    },
    {
      "midi": 59,
      "hit": false,
      "t": 153636.37899999978,
      "d": 878.7879666666558,
      "v": 120
    },
    {
      "midi": 62,
      "hit": false,
      "t": 154545.46999999977,
      "d": 454.54550000000745,
      "v": 120
    },
    {
      "midi": 57,
      "hit": false,
      "t": 154545.46999999977,
      "d": 886.363725000032,
      "v": 90
    },
    {
      "midi": 66,
      "hit": false,
      "t": 154545.46999999977,
      "d": 886.363725000032,
      "v": 90
    },
    {
      "midi": 30,
      "hit": false,
      "t": 154545.47000000012,
      "d": 1696.969866666681,
      "v": 97
    },
    {
      "midi": 62,
      "hit": false,
      "t": 155000.01549999978,
      "d": 424.2424666666775,
      "v": 110
    },
    {
      "midi": 62,
      "hit": false,
      "t": 155454.5609999998,
      "d": 878.7879666666558,
      "v": 90
    },
    {
      "midi": 50,
      "hit": false,
      "t": 155454.5609999998,
      "d": 886.3637250000029,
      "v": 120
    },
    {
      "midi": 57,
      "hit": false,
      "t": 155454.5609999998,
      "d": 886.3637250000029,
      "v": 90
    },
    {
      "midi": 65,
      "hit": false,
      "t": 155454.5609999998,
      "d": 886.3637250000029,
      "v": 90
    },
    {
      "midi": 64,
      "hit": false,
      "t": 156363.65199999983,
      "d": 909.0909999999858,
      "v": 120
    },
    {
      "midi": 69,
      "hit": false,
      "t": 156363.65199999983,
      "d": 1795.4547249999887,
      "v": 90
    },
    {
      "midi": 28,
      "hit": false,
      "t": 156393.95503333348,
      "d": 1340.9092250000103,
      "v": 91
    },
    {
      "midi": 61,
      "hit": false,
      "t": 157272.7429999998,
      "d": 878.7879666666558,
      "v": 110
    },
    {
      "midi": 28,
      "hit": false,
      "t": 157750.01577500015,
      "d": 439.3939833333425,
      "v": 74
    },
    {
      "midi": 64,
      "hit": false,
      "t": 158181.83399999983,
      "d": 454.54550000000745,
      "v": 120
    },
    {
      "midi": 69,
      "hit": false,
      "t": 158181.83399999983,
      "d": 1803.0304833333648,
      "v": 90
    },
    {
      "midi": 28,
      "hit": false,
      "t": 158212.1370333335,
      "d": 1795.4547249999887,
      "v": 105
    },
    {
      "midi": 62,
      "hit": false,
      "t": 158636.37949999984,
      "d": 454.54550000000745,
      "v": 110
    },
    {
      "midi": 59,
      "hit": false,
      "t": 159090.92499999984,
      "d": 454.54550000000745,
      "v": 110
    },
    {
      "midi": 52,
      "hit": false,
      "t": 159545.47049999985,
      "d": 431.81822499999544,
      "v": 110
    },
    {
      "midi": 52,
      "hit": false,
      "t": 160000.01599999986,
      "d": 454.54550000000745,
      "v": 120
    },
    {
      "midi": 61,
      "hit": false,
      "t": 160000.01599999986,
      "d": 1795.4547249999887,
      "v": 90
    },
    {
      "midi": 64,
      "hit": false,
      "t": 160000.01599999986,
      "d": 1795.4547249999887,
      "v": 90
    },
    {
      "midi": 69,
      "hit": false,
      "t": 160000.01599999986,
      "d": 1795.4547249999887,
      "v": 90
    },
    {
      "midi": 33,
      "hit": false,
      "t": 160037.89479166683,
      "d": 1318.1819499999983,
      "v": 102
    },
    {
      "midi": 57,
      "hit": false,
      "t": 160454.56149999987,
      "d": 909.0909999999858,
      "v": 110
    },
    {
      "midi": 52,
      "hit": false,
      "t": 161363.65249999985,
      "d": 454.54550000000745,
      "v": 110
    },
    {
      "midi": 33,
      "hit": false,
      "t": 161363.65250000017,
      "d": 287.8788166666636,
      "v": 87
    },
    {
      "midi": 66,
      "hit": false,
      "t": 161818.19799999986,
      "d": 878.7879666666558,
      "v": 90
    },
    {
      "midi": 69,
      "hit": false,
      "t": 161818.19799999986,
      "d": 878.7879666666558,
      "v": 90
    },
    {
      "midi": 62,
      "hit": false,
      "t": 161818.19799999986,
      "d": 893.9394833333208,
      "v": 90
    },
    {
      "midi": 50,
      "hit": false,
      "t": 161818.19799999986,
      "d": 909.0909999999858,
      "v": 120
    },
    {
      "midi": 30,
      "hit": false,
      "t": 161840.92527500016,
      "d": 825.757658333343,
      "v": 87
    },
    {
      "midi": 59,
      "hit": false,
      "t": 162727.28899999984,
      "d": 878.7879666666558,
      "v": 110
    },
    {
      "midi": 64,
      "hit": false,
      "t": 162727.28899999984,
      "d": 878.7879666666558,
      "v": 90
    },
    {
      "midi": 56,
      "hit": false,
      "t": 162727.28899999984,
      "d": 886.3637250000029,
      "v": 110
    },
    {
      "midi": 52,
      "hit": false,
      "t": 162727.28899999984,
      "d": 893.9394833333499,
      "v": 110
    },
    {
      "midi": 32,
      "hit": false,
      "t": 162742.44051666683,
      "d": 848.4849333333259,
      "v": 95
    },
    {
      "midi": 49,
      "hit": false,
      "t": 163636.37999999986,
      "d": 7.575758333347039,
      "v": 110
    },
    {
      "midi": 52,
      "hit": false,
      "t": 163636.37999999986,
      "d": 7.575758333347039,
      "v": 110
    },
    {
      "midi": 64,
      "hit": false,
      "t": 163636.37999999986,
      "d": 1787.8789666666707,
      "v": 90
    },
    {
      "midi": 57,
      "hit": false,
      "t": 163636.37999999986,
      "d": 1795.4547250000178,
      "v": 110
    },
    {
      "midi": 61,
      "hit": false,
      "t": 163636.37999999986,
      "d": 1803.0304833333648,
      "v": 90
    },
    {
      "midi": 33,
      "hit": false,
      "t": 163636.38000000015,
      "d": 1681.8183499999868,
      "v": 97
    },
    {
      "midi": 59,
      "hit": false,
      "t": 165454.5619999999,
      "d": 909.0909999999858,
      "v": 120
    },
    {
      "midi": 56,
      "hit": false,
      "t": 165454.5619999999,
      "d": 1787.8789666666416,
      "v": 90
    },
    {
      "midi": 32,
      "hit": false,
      "t": 165454.56200000015,
      "d": 1750.0001749999938,
      "v": 92
    },
    {
      "midi": 64,
      "hit": false,
      "t": 166363.65299999987,
      "d": 878.7879666666558,
      "v": 110
    },
    {
      "midi": 59,
      "hit": false,
      "t": 167272.74399999986,
      "d": 909.0909999999858,
      "v": 120
    },
    {
      "midi": 55,
      "hit": false,
      "t": 167272.74399999986,
      "d": 1787.8789666666416,
      "v": 90
    },
    {
      "midi": 31,
      "hit": false,
      "t": 167318.19855000015,
      "d": 1765.1516916666587,
      "v": 85
    },
    {
      "midi": 64,
      "hit": false,
      "t": 168181.83499999985,
      "d": 893.9394833333208,
      "v": 120
    },
    {
      "midi": 57,
      "hit": false,
      "t": 169090.92599999983,
      "d": 886.3637250000029,
      "v": 90
    },
    {
      "midi": 62,
      "hit": false,
      "t": 169090.92599999983,
      "d": 893.9394833333499,
      "v": 90
    },
    {
      "midi": 66,
      "hit": false,
      "t": 169090.92599999983,
      "d": 893.9394833333499,
      "v": 120
    },
    {
      "midi": 30,
      "hit": false,
      "t": 169090.92600000015,
      "d": 1696.969866666681,
      "v": 91
    },
    {
      "midi": 69,
      "hit": false,
      "t": 170000.01699999985,
      "d": 878.7879666666558,
      "v": 90
    },
    {
      "midi": 65,
      "hit": false,
      "t": 170000.01699999985,
      "d": 886.3637250000029,
      "v": 90
    },
    {
      "midi": 62,
      "hit": false,
      "t": 170000.01699999985,
      "d": 893.9394833333499,
      "v": 120
    },
    {
      "midi": 61,
      "hit": false,
      "t": 170909.10799999986,
      "d": 909.0909999999858,
      "v": 120
    },
    {
      "midi": 64,
      "hit": false,
      "t": 170909.10799999986,
      "d": 1787.8789666666416,
      "v": 90
    },
    {
      "midi": 69,
      "hit": false,
      "t": 170909.10799999986,
      "d": 1787.8789666666416,
      "v": 90
    },
    {
      "midi": 28,
      "hit": false,
      "t": 170992.44134166682,
      "d": 1325.7577083333454,
      "v": 103
    },
    {
      "midi": 52,
      "hit": false,
      "t": 171818.19899999985,
      "d": 886.3637250000029,
      "v": 120
    },
    {
      "midi": 28,
      "hit": false,
      "t": 172340.92632500018,
      "d": 492.42429166665534,
      "v": 95
    },
    {
      "midi": 50,
      "hit": false,
      "t": 172727.28999999986,
      "d": 909.0909999999858,
      "v": 120
    },
    {
      "midi": 62,
      "hit": false,
      "t": 172727.28999999986,
      "d": 1787.8789666666416,
      "v": 90
    },
    {
      "midi": 69,
      "hit": false,
      "t": 172727.28999999986,
      "d": 1787.8789666666416,
      "v": 90
    },
    {
      "midi": 59,
      "hit": false,
      "t": 172727.28999999986,
      "d": 1803.0304833333066,
      "v": 90
    },
    {
      "midi": 64,
      "hit": false,
      "t": 172727.28999999986,
      "d": 1803.0304833333066,
      "v": 90
    },
    {
      "midi": 28,
      "hit": false,
      "t": 172856.07789166685,
      "d": 1689.3941083333339,
      "v": 104
    },
    {
      "midi": 52,
      "hit": false,
      "t": 173636.38099999985,
      "d": 909.0909999999858,
      "v": 110
    },
    {
      "midi": 57,
      "hit": false,
      "t": 174545.47199999983,
      "d": 909.0909999999858,
      "v": 120
    },
    {
      "midi": 61,
      "hit": false,
      "t": 174545.47199999983,
      "d": 1795.4547249999887,
      "v": 90
    },
    {
      "midi": 64,
      "hit": false,
      "t": 174545.47199999983,
      "d": 1795.4547249999887,
      "v": 90
    },
    {
      "midi": 28,
      "hit": false,
      "t": 174598.50230833353,
      "d": 1287.8789166666684,
      "v": 106
    },
    {
      "midi": 52,
      "hit": false,
      "t": 175454.56299999982,
      "d": 909.0910000000149,
      "v": 110
    },
    {
      "midi": 28,
      "hit": false,
      "t": 175924.26001666687,
      "d": 439.3939833333425,
      "v": 108
    },
    {
      "midi": 57,
      "hit": false,
      "t": 176363.65399999983,
      "d": 909.0909999999858,
      "v": 120
    },
    {
      "midi": 59,
      "hit": false,
      "t": 176363.65399999983,
      "d": 1787.8789666666416,
      "v": 90
    },
    {
      "midi": 62,
      "hit": false,
      "t": 176363.65399999983,
      "d": 1795.4547249999887,
      "v": 90
    },
    {
      "midi": 64,
      "hit": false,
      "t": 176363.65399999983,
      "d": 1803.0304833333357,
      "v": 90
    },
    {
      "midi": 28,
      "hit": false,
      "t": 176393.95703333354,
      "d": 1719.6971416666638,
      "v": 105
    },
    {
      "midi": 50,
      "hit": false,
      "t": 177272.74499999982,
      "d": 909.0910000000149,
      "v": 110
    },
    {
      "midi": 28,
      "hit": false,
      "t": 178166.68448333355,
      "d": 1409.0910499999882,
      "v": 116
    },
    {
      "midi": 49,
      "hit": false,
      "t": 178181.83599999984,
      "d": 909.0909999999858,
      "v": 120
    },
    {
      "midi": 64,
      "hit": false,
      "t": 178181.83599999984,
      "d": 1787.8789666666416,
      "v": 90
    },
    {
      "midi": 61,
      "hit": false,
      "t": 178181.83599999984,
      "d": 1803.0304833333066,
      "v": 90
    },
    {
      "midi": 69,
      "hit": false,
      "t": 178181.83599999984,
      "d": 1803.0304833333066,
      "v": 90
    },
    {
      "midi": 52,
      "hit": false,
      "t": 179090.92699999982,
      "d": 909.0909999999858,
      "v": 110
    },
    {
      "midi": 28,
      "hit": false,
      "t": 179636.3816000002,
      "d": 348.4848833333235,
      "v": 89
    },
    {
      "midi": 57,
      "hit": false,
      "t": 180000.0179999998,
      "d": 878.7879666666558,
      "v": 110
    },
    {
      "midi": 62,
      "hit": false,
      "t": 180000.0179999998,
      "d": 878.7879666666558,
      "v": 110
    },
    {
      "midi": 66,
      "hit": false,
      "t": 180000.0179999998,
      "d": 893.9394833333208,
      "v": 110
    },
    {
      "midi": 35,
      "hit": false,
      "t": 180037.89679166686,
      "d": 886.3637250000029,
      "v": 77
    },
    {
      "midi": 59,
      "hit": false,
      "t": 180909.1089999998,
      "d": 886.3637250000029,
      "v": 90
    },
    {
      "midi": 62,
      "hit": false,
      "t": 180909.1089999998,
      "d": 886.3637250000029,
      "v": 90
    },
    {
      "midi": 64,
      "hit": false,
      "t": 180909.1089999998,
      "d": 886.3637250000029,
      "v": 90
    },
    {
      "midi": 69,
      "hit": false,
      "t": 180909.1089999998,
      "d": 886.3637250000029,
      "v": 90
    },
    {
      "midi": 50,
      "hit": false,
      "t": 180909.1089999998,
      "d": 909.0910000000149,
      "v": 120
    },
    {
      "midi": 28,
      "hit": false,
      "t": 180962.13930833354,
      "d": 856.0606916666729,
      "v": 94
    },
    {
      "midi": 49,
      "hit": false,
      "t": 181818.1999999998,
      "d": 909.0909999999858,
      "v": 120
    },
    {
      "midi": 61,
      "hit": false,
      "t": 181818.1999999998,
      "d": 3621.2124833333364,
      "v": 90
    },
    {
      "midi": 69,
      "hit": false,
      "t": 181818.1999999998,
      "d": 3621.2124833333364,
      "v": 90
    },
    {
      "midi": 33,
      "hit": false,
      "t": 181886.38182500022,
      "d": 1757.5759333333408,
      "v": 97
    },
    {
      "midi": 57,
      "hit": false,
      "t": 182727.2909999998,
      "d": 909.0909999999858,
      "v": 120
    },
    {
      "midi": 52,
      "hit": false,
      "t": 183636.38199999978,
      "d": 454.54550000000745,
      "v": 120
    },
    {
      "midi": 33,
      "hit": false,
      "t": 183659.10927500023,
      "d": 1621.212283333327,
      "v": 92
    },
    {
      "midi": 49,
      "hit": false,
      "t": 184090.9274999998,
      "d": 454.54550000000745,
      "v": 110
    },
    {
      "midi": 64,
      "hit": false,
      "t": 184545.4729999998,
      "d": 454.54550000000745,
      "v": 110
    },
    {
      "midi": 52,
      "hit": false,
      "t": 185000.0184999998,
      "d": 431.81822499999544,
      "v": 110
    },
    {
      "midi": 57,
      "hit": false,
      "t": 185454.5639999998,
      "d": 909.0909999999858,
      "v": 120
    },
    {
      "midi": 61,
      "hit": false,
      "t": 185454.5639999998,
      "d": 1803.0304833333066,
      "v": 90
    },
    {
      "midi": 66,
      "hit": false,
      "t": 185454.5639999998,
      "d": 1803.0304833333066,
      "v": 90
    },
    {
      "midi": 30,
      "hit": false,
      "t": 185507.59430833356,
      "d": 1659.091075000004,
      "v": 104
    },
    {
      "midi": 54,
      "hit": false,
      "t": 186363.6549999998,
      "d": 909.0909999999858,
      "v": 120
    },
    {
      "midi": 50,
      "hit": false,
      "t": 187272.74599999978,
      "d": 909.0909999999858,
      "v": 120
    },
    {
      "midi": 62,
      "hit": false,
      "t": 187272.74599999978,
      "d": 1787.8789666666416,
      "v": 90
    },
    {
      "midi": 69,
      "hit": false,
      "t": 187272.74599999978,
      "d": 1795.4547249999887,
      "v": 90
    },
    {
      "midi": 38,
      "hit": false,
      "t": 187295.47327500023,
      "d": 1689.3941083333339,
      "v": 77
    },
    {
      "midi": 66,
      "hit": false,
      "t": 188181.83699999977,
      "d": 886.3637250000029,
      "v": 120
    },
    {
      "midi": 52,
      "hit": false,
      "t": 189090.92799999978,
      "d": 909.0909999999858,
      "v": 120
    },
    {
      "midi": 64,
      "hit": false,
      "t": 189090.92799999978,
      "d": 1787.8789666666416,
      "v": 90
    },
    {
      "midi": 57,
      "hit": false,
      "t": 189090.92799999978,
      "d": 1803.0304833333066,
      "v": 90
    },
    {
      "midi": 61,
      "hit": false,
      "t": 189090.92799999978,
      "d": 1803.0304833333066,
      "v": 90
    },
    {
      "midi": 28,
      "hit": false,
      "t": 189098.50375833357,
      "d": 1818.1820000000007,
      "v": 107
    },
    {
      "midi": 49,
      "hit": false,
      "t": 190000.01899999977,
      "d": 909.0909999999858,
      "v": 120
    },
    {
      "midi": 59,
      "hit": false,
      "t": 190909.10999999975,
      "d": 424.2424666666775,
      "v": 90
    },
    {
      "midi": 69,
      "hit": false,
      "t": 190909.10999999975,
      "d": 424.2424666666775,
      "v": 90
    },
    {
      "midi": 62,
      "hit": false,
      "t": 190909.10999999975,
      "d": 431.81822500002454,
      "v": 90
    },
    {
      "midi": 64,
      "hit": false,
      "t": 190909.10999999975,
      "d": 431.81822500002454,
      "v": 90
    },
    {
      "midi": 52,
      "hit": false,
      "t": 190909.10999999975,
      "d": 454.54550000003655,
      "v": 120
    },
    {
      "midi": 28,
      "hit": false,
      "t": 190954.56455000024,
      "d": 1257.5758833333384,
      "v": 97
    },
    {
      "midi": 50,
      "hit": false,
      "t": 191363.6554999998,
      "d": 909.0909999999858,
      "v": 120
    },
    {
      "midi": 59,
      "hit": false,
      "t": 191363.6554999998,
      "d": 1333.3334666666633,
      "v": 90
    },
    {
      "midi": 56,
      "hit": false,
      "t": 191363.6554999998,
      "d": 1340.9092250000103,
      "v": 90
    },
    {
      "midi": 28,
      "hit": false,
      "t": 192265.17074166692,
      "d": 507.5758083333203,
      "v": 103
    },
    {
      "midi": 62,
      "hit": false,
      "t": 192272.74649999978,
      "d": 431.81822500002454,
      "v": 120
    },
    {
      "midi": 69,
      "hit": false,
      "t": 192727.2919999998,
      "d": 3606.0609666666714,
      "v": 90
    },
    {
      "midi": 52,
      "hit": false,
      "t": 192727.2919999998,
      "d": 3613.6367250000185,
      "v": 110
    },
    {
      "midi": 59,
      "hit": false,
      "t": 192727.2919999998,
      "d": 3613.6367250000185,
      "v": 110
    },
    {
      "midi": 61,
      "hit": false,
      "t": 192727.2919999998,
      "d": 3613.6367250000185,
      "v": 110
    },
    {
      "midi": 64,
      "hit": false,
      "t": 192727.2919999998,
      "d": 3621.2124833333655,
      "v": 90
    },
    {
      "midi": 33,
      "hit": false,
      "t": 192727.29200000025,
      "d": 3628.7882416666544,
      "v": 103
    }
  ]
}