{
  "jsonPath": "Rock/Soft Rock/Carpenters/breaking-up-is-hard-to-do.json",
  "path": "Rock\\Soft Rock\\Carpenters\\Breaking Up Is Hard To Do.mid",
  "name": "Breaking Up Is Hard To Do",
  "difficulty": "Advanced",
  "bpm": 117.000117000117,
  "notes": [
    {
      "midi": 47,
      "hit": false,
      "t": 14374.985625000001,
      "d": 486.11062499999935,
      "v": 98
    },
    {
      "midi": 63,
      "hit": false,
      "t": 14861.09625,
      "d": 267.09375,
      "v": 95
    },
    {
      "midi": 59,
      "hit": false,
      "t": 14861.09625,
      "d": 283.1193750000002,
      "v": 90
    },
    {
      "midi": 66,
      "hit": false,
      "t": 14861.09625,
      "d": 283.1193750000002,
      "v": 102
    },
    {
      "midi": 47,
      "hit": false,
      "t": 15096.13875,
      "d": 251.06812499999978,
      "v": 69
    },
    {
      "midi": 44,
      "hit": false,
      "t": 15347.206875,
      "d": 432.69187500000044,
      "v": 73
    },
    {
      "midi": 59,
      "hit": false,
      "t": 15368.574375,
      "d": 117.52124999999978,
      "v": 71
    },
    {
      "midi": 63,
      "hit": false,
      "t": 15368.574375,
      "d": 117.52124999999978,
      "v": 81
    },
    {
      "midi": 68,
      "hit": false,
      "t": 15368.574375,
      "d": 133.546875,
      "v": 87
    },
    {
      "midi": 59,
      "hit": false,
      "t": 15624.984375,
      "d": 106.83749999999964,
      "v": 80
    },
    {
      "midi": 68,
      "hit": false,
      "t": 15624.984375,
      "d": 112.17937499999971,
      "v": 90
    },
    {
      "midi": 63,
      "hit": false,
      "t": 15635.668125,
      "d": 90.81187499999942,
      "v": 83
    },
    {
      "midi": 40,
      "hit": false,
      "t": 16394.214375,
      "d": 587.6062499999971,
      "v": 80
    },
    {
      "midi": 59,
      "hit": false,
      "t": 16650.624375,
      "d": 117.52124999999796,
      "v": 68
    },
    {
      "midi": 68,
      "hit": false,
      "t": 16650.624375,
      "d": 117.52124999999796,
      "v": 72
    },
    {
      "midi": 64,
      "hit": false,
      "t": 16655.966249999998,
      "d": 101.49562499999956,
      "v": 75
    },
    {
      "midi": 59,
      "hit": false,
      "t": 16901.692499999997,
      "d": 154.9143750000003,
      "v": 77
    },
    {
      "midi": 64,
      "hit": false,
      "t": 16901.692499999997,
      "d": 325.854374999999,
      "v": 87
    },
    {
      "midi": 68,
      "hit": false,
      "t": 16901.692499999997,
      "d": 331.19624999999724,
      "v": 83
    },
    {
      "midi": 59,
      "hit": false,
      "t": 17158.102499999997,
      "d": 96.15374999999767,
      "v": 68
    },
    {
      "midi": 40,
      "hit": false,
      "t": 17174.128124999996,
      "d": 85.46999999999753,
      "v": 60
    },
    {
      "midi": 64,
      "hit": false,
      "t": 17414.512499999993,
      "d": 117.52124999999796,
      "v": 82
    },
    {
      "midi": 59,
      "hit": false,
      "t": 17414.512499999993,
      "d": 122.86312499999622,
      "v": 72
    },
    {
      "midi": 68,
      "hit": false,
      "t": 17419.85437499999,
      "d": 106.83750000000146,
      "v": 77
    },
    {
      "midi": 42,
      "hit": false,
      "t": 17419.85437499999,
      "d": 448.7174999999952,
      "v": 75
    },
    {
      "midi": 64,
      "hit": false,
      "t": 17670.92249999999,
      "d": 112.17937499999971,
      "v": 80
    },
    {
      "midi": 68,
      "hit": false,
      "t": 17670.92249999999,
      "d": 112.17937499999971,
      "v": 72
    },
    {
      "midi": 59,
      "hit": false,
      "t": 17670.92249999999,
      "d": 117.52124999999796,
      "v": 67
    },
    {
      "midi": 59,
      "hit": false,
      "t": 17921.990624999988,
      "d": 154.91437499999665,
      "v": 78
    },
    {
      "midi": 64,
      "hit": false,
      "t": 17921.990624999988,
      "d": 315.17062499999884,
      "v": 90
    },
    {
      "midi": 68,
      "hit": false,
      "t": 17921.990624999988,
      "d": 331.19624999999724,
      "v": 87
    },
    {
      "midi": 42,
      "hit": false,
      "t": 17927.332499999986,
      "d": 416.6662499999984,
      "v": 67
    },
    {
      "midi": 59,
      "hit": false,
      "t": 18183.742499999986,
      "d": 74.78624999999738,
      "v": 81
    },
    {
      "midi": 47,
      "hit": false,
      "t": 18440.152499999986,
      "d": 336.5381249999991,
      "v": 75
    },
    {
      "midi": 59,
      "hit": false,
      "t": 18450.836249999986,
      "d": 363.2474999999977,
      "v": 80
    },
    {
      "midi": 63,
      "hit": false,
      "t": 18461.519999999986,
      "d": 368.5893749999959,
      "v": 83
    },
    {
      "midi": 66,
      "hit": false,
      "t": 18461.519999999986,
      "d": 368.5893749999959,
      "v": 87
    },
    {
      "midi": 47,
      "hit": false,
      "t": 18947.630624999983,
      "d": 202.99124999999913,
      "v": 78
    },
    {
      "midi": 66,
      "hit": false,
      "t": 18963.65624999998,
      "d": 304.4868749999987,
      "v": 95
    },
    {
      "midi": 59,
      "hit": false,
      "t": 18963.65624999998,
      "d": 309.82874999999694,
      "v": 91
    },
    {
      "midi": 63,
      "hit": false,
      "t": 18963.65624999998,
      "d": 309.82874999999694,
      "v": 93
    },
    {
      "midi": 47,
      "hit": false,
      "t": 19230.74999999998,
      "d": 197.64937499999724,
      "v": 80
    },
    {
      "midi": 40,
      "hit": false,
      "t": 19449.76687499998,
      "d": 170.9399999999987,
      "v": 69
    },
    {
      "midi": 59,
      "hit": false,
      "t": 19460.45062499998,
      "d": 138.88874999999825,
      "v": 82
    },
    {
      "midi": 64,
      "hit": false,
      "t": 19460.45062499998,
      "d": 138.88874999999825,
      "v": 88
    },
    {
      "midi": 68,
      "hit": false,
      "t": 19460.45062499998,
      "d": 138.88874999999825,
      "v": 92
    },
    {
      "midi": 59,
      "hit": false,
      "t": 19722.202499999978,
      "d": 197.64937499999724,
      "v": 75
    },
    {
      "midi": 68,
      "hit": false,
      "t": 19727.544374999976,
      "d": 186.96562500000073,
      "v": 82
    },
    {
      "midi": 64,
      "hit": false,
      "t": 19727.544374999976,
      "d": 192.30749999999898,
      "v": 82
    },
    {
      "midi": 40,
      "hit": false,
      "t": 19727.544374999976,
      "d": 197.64937499999724,
      "v": 80
    },
    {
      "midi": 40,
      "hit": false,
      "t": 20202.971249999973,
      "d": 288.46124999999665,
      "v": 75
    },
    {
      "midi": 68,
      "hit": false,
      "t": 20208.31312499997,
      "d": 122.86312499999985,
      "v": 84
    },
    {
      "midi": 64,
      "hit": false,
      "t": 20208.31312499997,
      "d": 170.9399999999987,
      "v": 87
    },
    {
      "midi": 59,
      "hit": false,
      "t": 20218.99687499997,
      "d": 149.5724999999984,
      "v": 81
    },
    {
      "midi": 63,
      "hit": false,
      "t": 20475.40687499997,
      "d": 235.04249999999956,
      "v": 86
    },
    {
      "midi": 59,
      "hit": false,
      "t": 20475.40687499997,
      "d": 245.7262499999997,
      "v": 83
    },
    {
      "midi": 47,
      "hit": false,
      "t": 20475.40687499997,
      "d": 261.7518749999981,
      "v": 92
    },
    {
      "midi": 66,
      "hit": false,
      "t": 20475.40687499997,
      "d": 261.7518749999981,
      "v": 88
    },
    {
      "midi": 47,
      "hit": false,
      "t": 22574.76374999997,
      "d": 886.7512500000012,
      "v": 101
    },
    {
      "midi": 75,
      "hit": false,
      "t": 23071.55812499997,
      "d": 181.62374999999884,
      "v": 98
    },
    {
      "midi": 71,
      "hit": false,
      "t": 23076.89999999997,
      "d": 176.28187500000058,
      "v": 100
    },
    {
      "midi": 78,
      "hit": false,
      "t": 23076.89999999997,
      "d": 186.96562500000073,
      "v": 100
    },
    {
      "midi": 71,
      "hit": false,
      "t": 23584.37812499997,
      "d": 138.88874999999825,
      "v": 80
    },
    {
      "midi": 75,
      "hit": false,
      "t": 23584.37812499997,
      "d": 138.88874999999825,
      "v": 87
    },
    {
      "midi": 78,
      "hit": false,
      "t": 23584.37812499997,
      "d": 154.91437499999665,
      "v": 93
    },
    {
      "midi": 44,
      "hit": false,
      "t": 23584.37812499997,
      "d": 929.4862499999945,
      "v": 98
    },
    {
      "midi": 75,
      "hit": false,
      "t": 23846.12999999997,
      "d": 80.12812499999927,
      "v": 103
    },
    {
      "midi": 71,
      "hit": false,
      "t": 23846.12999999997,
      "d": 90.81187499999942,
      "v": 103
    },
    {
      "midi": 78,
      "hit": false,
      "t": 23846.12999999997,
      "d": 96.15374999999767,
      "v": 103
    },
    {
      "midi": 40,
      "hit": false,
      "t": 24620.701874999966,
      "d": 860.0418749999917,
      "v": 90
    },
    {
      "midi": 75,
      "hit": false,
      "t": 24626.043749999964,
      "d": 80.12812499999927,
      "v": 84
    },
    {
      "midi": 78,
      "hit": false,
      "t": 24626.043749999964,
      "d": 96.15374999999767,
      "v": 83
    },
    {
      "midi": 71,
      "hit": false,
      "t": 24631.385624999963,
      "d": 80.12812499999927,
      "v": 76
    },
    {
      "midi": 76,
      "hit": false,
      "t": 24882.45374999996,
      "d": 96.15375000000131,
      "v": 93
    },
    {
      "midi": 71,
      "hit": false,
      "t": 24882.45374999996,
      "d": 101.49562499999956,
      "v": 85
    },
    {
      "midi": 80,
      "hit": false,
      "t": 24882.45374999996,
      "d": 106.83749999999782,
      "v": 97
    },
    {
      "midi": 76,
      "hit": false,
      "t": 25389.93187499996,
      "d": 785.255624999998,
      "v": 80
    },
    {
      "midi": 73,
      "hit": false,
      "t": 25389.93187499996,
      "d": 806.6231249999983,
      "v": 87
    },
    {
      "midi": 42,
      "hit": false,
      "t": 25640.999999999956,
      "d": 582.2643749999988,
      "v": 90
    },
    {
      "midi": 47,
      "hit": false,
      "t": 26650.614374999954,
      "d": 950.8537499999984,
      "v": 97
    },
    {
      "midi": 71,
      "hit": false,
      "t": 27168.776249999955,
      "d": 80.12812499999927,
      "v": 101
    },
    {
      "midi": 75,
      "hit": false,
      "t": 27168.776249999955,
      "d": 80.12812499999927,
      "v": 109
    },
    {
      "midi": 78,
      "hit": false,
      "t": 27168.776249999955,
      "d": 96.15374999999767,
      "v": 95
    },
    {
      "midi": 44,
      "hit": false,
      "t": 27676.254374999953,
      "d": 598.2899999999936,
      "v": 88
    },
    {
      "midi": 78,
      "hit": false,
      "t": 27686.938124999953,
      "d": 138.88874999999825,
      "v": 93
    },
    {
      "midi": 75,
      "hit": false,
      "t": 27686.938124999953,
      "d": 149.5724999999984,
      "v": 93
    },
    {
      "midi": 71,
      "hit": false,
      "t": 27686.938124999953,
      "d": 154.91437499999665,
      "v": 83
    },
    {
      "midi": 75,
      "hit": false,
      "t": 27954.03187499995,
      "d": 58.76062499999898,
      "v": 102
    },
    {
      "midi": 78,
      "hit": false,
      "t": 27954.03187499995,
      "d": 64.10249999999724,
      "v": 101
    },
    {
      "midi": 71,
      "hit": false,
      "t": 27954.03187499995,
      "d": 69.44437499999549,
      "v": 93
    },
    {
      "midi": 44,
      "hit": false,
      "t": 28445.484374999945,
      "d": 240.38437500000146,
      "v": 80
    },
    {
      "midi": 40,
      "hit": false,
      "t": 28701.894374999945,
      "d": 918.802499999998,
      "v": 81
    },
    {
      "midi": 71,
      "hit": false,
      "t": 28712.578124999945,
      "d": 128.20500000000175,
      "v": 93
    },
    {
      "midi": 75,
      "hit": false,
      "t": 28712.578124999945,
      "d": 128.20500000000175,
      "v": 97
    },
    {
      "midi": 78,
      "hit": false,
      "t": 28712.578124999945,
      "d": 138.8887500000019,
      "v": 98
    },
    {
      "midi": 76,
      "hit": false,
      "t": 28974.329999999947,
      "d": 101.49562499999956,
      "v": 101
    },
    {
      "midi": 71,
      "hit": false,
      "t": 28974.329999999947,
      "d": 106.83749999999782,
      "v": 90
    },
    {
      "midi": 80,
      "hit": false,
      "t": 28974.329999999947,
      "d": 106.83749999999782,
      "v": 109
    },
    {
      "midi": 76,
      "hit": false,
      "t": 29481.808124999945,
      "d": 710.4693750000006,
      "v": 92
    },
    {
      "midi": 73,
      "hit": false,
      "t": 29481.808124999945,
      "d": 731.8368750000009,
      "v": 92
    },
    {
      "midi": 42,
      "hit": false,
      "t": 29738.218124999945,
      "d": 865.3837500000009,
      "v": 90
    },
    {
      "midi": 47,
      "hit": false,
      "t": 30753.174374999944,
      "d": 902.7768749999959,
      "v": 95
    },
    {
      "midi": 75,
      "hit": false,
      "t": 30779.883749999943,
      "d": 219.01687500000116,
      "v": 97
    },
    {
      "midi": 71,
      "hit": false,
      "t": 30779.883749999943,
      "d": 229.7006250000013,
      "v": 91
    },
    {
      "midi": 78,
      "hit": false,
      "t": 30779.883749999943,
      "d": 235.04249999999956,
      "v": 99
    },
    {
      "midi": 71,
      "hit": false,
      "t": 31292.703749999942,
      "d": 144.23062500000015,
      "v": 104
    },
    {
      "midi": 78,
      "hit": false,
      "t": 31292.703749999942,
      "d": 149.5724999999984,
      "v": 105
    },
    {
      "midi": 75,
      "hit": false,
      "t": 31292.703749999942,
      "d": 170.9399999999987,
      "v": 111
    },
    {
      "midi": 46,
      "hit": false,
      "t": 31778.81437499994,
      "d": 657.0506249999889,
      "v": 95
    },
    {
      "midi": 75,
      "hit": false,
      "t": 31789.49812499994,
      "d": 186.9656249999971,
      "v": 87
    },
    {
      "midi": 70,
      "hit": false,
      "t": 31789.49812499994,
      "d": 192.30749999999534,
      "v": 78
    },
    {
      "midi": 79,
      "hit": false,
      "t": 31789.49812499994,
      "d": 192.30749999999534,
      "v": 81
    },
    {
      "midi": 73,
      "hit": false,
      "t": 31794.83999999994,
      "d": 170.9399999999987,
      "v": 87
    },
    {
      "midi": 70,
      "hit": false,
      "t": 32056.591874999936,
      "d": 149.57249999999476,
      "v": 92
    },
    {
      "midi": 79,
      "hit": false,
      "t": 32056.591874999936,
      "d": 176.2818749999933,
      "v": 96
    },
    {
      "midi": 73,
      "hit": false,
      "t": 32061.933749999935,
      "d": 138.88874999999825,
      "v": 88
    },
    {
      "midi": 75,
      "hit": false,
      "t": 32061.933749999935,
      "d": 144.2306249999965,
      "v": 86
    },
    {
      "midi": 46,
      "hit": false,
      "t": 32542.70249999993,
      "d": 128.2049999999981,
      "v": 76
    },
    {
      "midi": 80,
      "hit": false,
      "t": 32569.41187499993,
      "d": 550.2131249999984,
      "v": 99
    },
    {
      "midi": 71,
      "hit": false,
      "t": 32574.753749999927,
      "d": 566.2387500000004,
      "v": 90
    },
    {
      "midi": 75,
      "hit": false,
      "t": 32574.753749999927,
      "d": 571.5806249999987,
      "v": 98
    },
    {
      "midi": 44,
      "hit": false,
      "t": 32804.45437499993,
      "d": 929.4862499999945,
      "v": 90
    },
    {
      "midi": 71,
      "hit": false,
      "t": 33317.27437499993,
      "d": 368.5893749999959,
      "v": 91
    },
    {
      "midi": 68,
      "hit": false,
      "t": 33322.61624999993,
      "d": 352.56375000000116,
      "v": 84
    },
    {
      "midi": 75,
      "hit": false,
      "t": 33322.61624999993,
      "d": 395.29874999999447,
      "v": 85
    },
    {
      "midi": 75,
      "hit": false,
      "t": 33840.778124999924,
      "d": 432.6918749999968,
      "v": 78
    },
    {
      "midi": 71,
      "hit": false,
      "t": 33846.11999999992,
      "d": 438.03374999999505,
      "v": 69
    },
    {
      "midi": 68,
      "hit": false,
      "t": 33846.11999999992,
      "d": 443.3756249999933,
      "v": 76
    },
    {
      "midi": 44,
      "hit": false,
      "t": 33856.80374999992,
      "d": 801.2812499999927,
      "v": 79
    },
    {
      "midi": 68,
      "hit": false,
      "t": 34358.939999999915,
      "d": 208.33312499999738,
      "v": 79
    },
    {
      "midi": 75,
      "hit": false,
      "t": 34358.939999999915,
      "d": 208.33312499999738,
      "v": 79
    },
    {
      "midi": 71,
      "hit": false,
      "t": 34364.28187499991,
      "d": 186.9656249999971,
      "v": 80
    },
    {
      "midi": 53,
      "hit": false,
      "t": 34850.392499999914,
      "d": 459.40124999998807,
      "v": 63
    },
    {
      "midi": 56,
      "hit": false,
      "t": 34861.07624999991,
      "d": 443.3756249999933,
      "v": 87
    },
    {
      "midi": 59,
      "hit": false,
      "t": 34871.75999999991,
      "d": 422.0081250000003,
      "v": 90
    },
    {
      "midi": 63,
      "hit": false,
      "t": 34871.75999999991,
      "d": 438.03374999999505,
      "v": 95
    },
    {
      "midi": 53,
      "hit": false,
      "t": 35379.2381249999,
      "d": 176.2818749999933,
      "v": 79
    },
    {
      "midi": 56,
      "hit": false,
      "t": 35384.5799999999,
      "d": 181.62374999999156,
      "v": 80
    },
    {
      "midi": 63,
      "hit": false,
      "t": 35389.9218749999,
      "d": 154.9143750000003,
      "v": 82
    },
    {
      "midi": 59,
      "hit": false,
      "t": 35389.9218749999,
      "d": 170.93999999999505,
      "v": 90
    },
    {
      "midi": 53,
      "hit": false,
      "t": 35886.71624999989,
      "d": 170.93999999999505,
      "v": 68
    },
    {
      "midi": 56,
      "hit": false,
      "t": 35892.05812499989,
      "d": 165.5981249999968,
      "v": 82
    },
    {
      "midi": 59,
      "hit": false,
      "t": 35892.05812499989,
      "d": 176.2818749999933,
      "v": 86
    },
    {
      "midi": 63,
      "hit": false,
      "t": 35892.05812499989,
      "d": 192.30749999999534,
      "v": 74
    },
    {
      "midi": 63,
      "hit": false,
      "t": 36148.46812499988,
      "d": 384.61499999999796,
      "v": 64
    },
    {
      "midi": 53,
      "hit": false,
      "t": 36148.46812499988,
      "d": 400.640625,
      "v": 61
    },
    {
      "midi": 56,
      "hit": false,
      "t": 36148.46812499988,
      "d": 416.66625000000204,
      "v": 87
    },
    {
      "midi": 59,
      "hit": false,
      "t": 36148.46812499988,
      "d": 422.0081250000003,
      "v": 87
    },
    {
      "midi": 52,
      "hit": false,
      "t": 36896.330624999886,
      "d": 219.01687500000116,
      "v": 77
    },
    {
      "midi": 58,
      "hit": false,
      "t": 36896.330624999886,
      "d": 229.70062499999767,
      "v": 80
    },
    {
      "midi": 54,
      "hit": false,
      "t": 36896.330624999886,
      "d": 235.04249999999593,
      "v": 70
    },
    {
      "midi": 61,
      "hit": false,
      "t": 36901.672499999884,
      "d": 235.04249999999593,
      "v": 66
    },
    {
      "midi": 47,
      "hit": false,
      "t": 38979.66187499988,
      "d": 918.802499999998,
      "v": 99
    },
    {
      "midi": 75,
      "hit": false,
      "t": 39481.798124999885,
      "d": 181.62374999999884,
      "v": 107
    },
    {
      "midi": 71,
      "hit": false,
      "t": 39487.13999999988,
      "d": 176.28187500000058,
      "v": 102
    },
    {
      "midi": 78,
      "hit": false,
      "t": 39487.13999999988,
      "d": 186.9656249999971,
      "v": 104
    },
    {
      "midi": 71,
      "hit": false,
      "t": 39994.61812499988,
      "d": 138.88875000000553,
      "v": 80
    },
    {
      "midi": 75,
      "hit": false,
      "t": 39994.61812499988,
      "d": 240.38437500000873,
      "v": 87
    },
    {
      "midi": 78,
      "hit": false,
      "t": 39994.61812499988,
      "d": 256.41000000001077,
      "v": 93
    },
    {
      "midi": 44,
      "hit": false,
      "t": 40010.64374999988,
      "d": 624.9993750000067,
      "v": 95
    },
    {
      "midi": 75,
      "hit": false,
      "t": 40256.369999999886,
      "d": 80.12812500000291,
      "v": 97
    },
    {
      "midi": 71,
      "hit": false,
      "t": 40256.369999999886,
      "d": 90.81187499999942,
      "v": 88
    },
    {
      "midi": 78,
      "hit": false,
      "t": 40256.369999999886,
      "d": 96.15374999999767,
      "v": 98
    },
    {
      "midi": 44,
      "hit": false,
      "t": 40758.50624999989,
      "d": 240.38437500000146,
      "v": 97
    },
    {
      "midi": 40,
      "hit": false,
      "t": 41014.91624999989,
      "d": 924.1443749999889,
      "v": 85
    },
    {
      "midi": 75,
      "hit": false,
      "t": 41036.28374999989,
      "d": 170.93999999999505,
      "v": 84
    },
    {
      "midi": 78,
      "hit": false,
      "t": 41036.28374999989,
      "d": 170.93999999999505,
      "v": 83
    },
    {
      "midi": 71,
      "hit": false,
      "t": 41041.62562499989,
      "d": 165.5981249999968,
      "v": 76
    },
    {
      "midi": 76,
      "hit": false,
      "t": 41292.69374999989,
      "d": 96.15374999999767,
      "v": 93
    },
    {
      "midi": 71,
      "hit": false,
      "t": 41292.69374999989,
      "d": 101.49562499999593,
      "v": 85
    },
    {
      "midi": 80,
      "hit": false,
      "t": 41292.69374999989,
      "d": 106.83749999999418,
      "v": 97
    },
    {
      "midi": 76,
      "hit": false,
      "t": 41800.17187499988,
      "d": 614.3156250000029,
      "v": 80
    },
    {
      "midi": 73,
      "hit": false,
      "t": 41800.17187499988,
      "d": 646.3668749999997,
      "v": 87
    },
    {
      "midi": 42,
      "hit": false,
      "t": 42040.556249999885,
      "d": 854.6999999999971,
      "v": 87
    },
    {
      "midi": 47,
      "hit": false,
      "t": 43060.85437499988,
      "d": 966.8793749999895,
      "v": 99
    },
    {
      "midi": 75,
      "hit": false,
      "t": 43579.01624999988,
      "d": 117.52124999999796,
      "v": 109
    },
    {
      "midi": 71,
      "hit": false,
      "t": 43579.01624999988,
      "d": 149.57249999999476,
      "v": 101
    },
    {
      "midi": 78,
      "hit": false,
      "t": 43579.01624999988,
      "d": 149.57249999999476,
      "v": 95
    },
    {
      "midi": 71,
      "hit": false,
      "t": 44097.17812499987,
      "d": 154.9143750000003,
      "v": 83
    },
    {
      "midi": 75,
      "hit": false,
      "t": 44097.17812499987,
      "d": 197.64937500000087,
      "v": 93
    },
    {
      "midi": 78,
      "hit": false,
      "t": 44097.17812499987,
      "d": 229.70062499999767,
      "v": 93
    },
    {
      "midi": 44,
      "hit": false,
      "t": 44097.17812499987,
      "d": 902.7768749999959,
      "v": 97
    },
    {
      "midi": 75,
      "hit": false,
      "t": 44364.27187499987,
      "d": 58.76062500000262,
      "v": 102
    },
    {
      "midi": 78,
      "hit": false,
      "t": 44364.27187499987,
      "d": 64.10250000000087,
      "v": 101
    },
    {
      "midi": 71,
      "hit": false,
      "t": 44364.27187499987,
      "d": 69.44437499999913,
      "v": 93
    },
    {
      "midi": 40,
      "hit": false,
      "t": 45112.13437499986,
      "d": 902.7768749999959,
      "v": 87
    },
    {
      "midi": 71,
      "hit": false,
      "t": 45122.81812499986,
      "d": 154.9143750000003,
      "v": 93
    },
    {
      "midi": 75,
      "hit": false,
      "t": 45122.81812499986,
      "d": 176.28187500000058,
      "v": 97
    },
    {
      "midi": 78,
      "hit": false,
      "t": 45122.81812499986,
      "d": 186.9656249999971,
      "v": 98
    },
    {
      "midi": 76,
      "hit": false,
      "t": 45384.569999999854,
      "d": 101.4956250000032,
      "v": 101
    },
    {
      "midi": 71,
      "hit": false,
      "t": 45384.569999999854,
      "d": 106.83750000000146,
      "v": 90
    },
    {
      "midi": 80,
      "hit": false,
      "t": 45384.569999999854,
      "d": 106.83750000000146,
      "v": 109
    },
    {
      "midi": 73,
      "hit": false,
      "t": 45892.048124999856,
      "d": 657.0506250000035,
      "v": 92
    },
    {
      "midi": 76,
      "hit": false,
      "t": 45892.048124999856,
      "d": 667.734375,
      "v": 92
    },
    {
      "midi": 42,
      "hit": false,
      "t": 46137.77437499986,
      "d": 779.9137499999924,
      "v": 86
    },
    {
      "midi": 47,
      "hit": false,
      "t": 47168.75624999985,
      "d": 876.0674999999901,
      "v": 93
    },
    {
      "midi": 75,
      "hit": false,
      "t": 47190.12374999985,
      "d": 219.01687500000116,
      "v": 97
    },
    {
      "midi": 71,
      "hit": false,
      "t": 47190.12374999985,
      "d": 229.70062499999767,
      "v": 91
    },
    {
      "midi": 78,
      "hit": false,
      "t": 47190.12374999985,
      "d": 235.04249999999593,
      "v": 99
    },
    {
      "midi": 71,
      "hit": false,
      "t": 47702.943749999846,
      "d": 144.2306249999965,
      "v": 104
    },
    {
      "midi": 78,
      "hit": false,
      "t": 47702.943749999846,
      "d": 149.57249999999476,
      "v": 105
    },
    {
      "midi": 75,
      "hit": false,
      "t": 47702.943749999846,
      "d": 170.93999999999505,
      "v": 111
    },
    {
      "midi": 46,
      "hit": false,
      "t": 48194.396249999845,
      "d": 763.8881249999831,
      "v": 87
    },
    {
      "midi": 75,
      "hit": false,
      "t": 48199.73812499984,
      "d": 186.9656249999971,
      "v": 87
    },
    {
      "midi": 70,
      "hit": false,
      "t": 48199.73812499984,
      "d": 192.30749999999534,
      "v": 78
    },
    {
      "midi": 79,
      "hit": false,
      "t": 48199.73812499984,
      "d": 192.30749999999534,
      "v": 81
    },
    {
      "midi": 73,
      "hit": false,
      "t": 48205.07999999984,
      "d": 170.94000000000233,
      "v": 87
    },
    {
      "midi": 70,
      "hit": false,
      "t": 48466.831874999836,
      "d": 149.57249999999476,
      "v": 92
    },
    {
      "midi": 79,
      "hit": false,
      "t": 48466.831874999836,
      "d": 176.2818749999933,
      "v": 96
    },
    {
      "midi": 73,
      "hit": false,
      "t": 48472.173749999834,
      "d": 138.88874999999825,
      "v": 88
    },
    {
      "midi": 75,
      "hit": false,
      "t": 48472.173749999834,
      "d": 144.2306249999965,
      "v": 86
    },
    {
      "midi": 80,
      "hit": false,
      "t": 48979.65187499983,
      "d": 550.2131249999948,
      "v": 99
    },
    {
      "midi": 71,
      "hit": false,
      "t": 48984.99374999983,
      "d": 566.2387499999968,
      "v": 90
    },
    {
      "midi": 75,
      "hit": false,
      "t": 48984.99374999983,
      "d": 571.580624999995,
      "v": 98
    },
    {
      "midi": 44,
      "hit": false,
      "t": 49209.352499999826,
      "d": 1084.400625000002,
      "v": 87
    },
    {
      "midi": 71,
      "hit": false,
      "t": 49727.514374999824,
      "d": 240.38437500000146,
      "v": 91
    },
    {
      "midi": 68,
      "hit": false,
      "t": 49732.85624999982,
      "d": 213.6750000000029,
      "v": 87
    },
    {
      "midi": 75,
      "hit": false,
      "t": 49732.85624999982,
      "d": 229.70062500000495,
      "v": 85
    },
    {
      "midi": 75,
      "hit": false,
      "t": 50251.01812499983,
      "d": 432.6918750000041,
      "v": 77
    },
    {
      "midi": 71,
      "hit": false,
      "t": 50256.359999999826,
      "d": 438.0337500000023,
      "v": 74
    },
    {
      "midi": 68,
      "hit": false,
      "t": 50256.359999999826,
      "d": 443.3756250000006,
      "v": 72
    },
    {
      "midi": 68,
      "hit": false,
      "t": 50769.179999999826,
      "d": 208.33312499999738,
      "v": 77
    },
    {
      "midi": 75,
      "hit": false,
      "t": 50769.179999999826,
      "d": 208.33312499999738,
      "v": 81
    },
    {
      "midi": 71,
      "hit": false,
      "t": 50774.521874999824,
      "d": 186.9656249999971,
      "v": 80
    },
    {
      "midi": 53,
      "hit": false,
      "t": 51260.632499999825,
      "d": 459.40124999998807,
      "v": 63
    },
    {
      "midi": 56,
      "hit": false,
      "t": 51271.31624999982,
      "d": 443.3756249999933,
      "v": 87
    },
    {
      "midi": 59,
      "hit": false,
      "t": 51281.99999999982,
      "d": 422.0081250000003,
      "v": 90
    },
    {
      "midi": 63,
      "hit": false,
      "t": 51281.99999999982,
      "d": 438.03374999999505,
      "v": 95
    },
    {
      "midi": 53,
      "hit": false,
      "t": 51789.47812499981,
      "d": 176.2818749999933,
      "v": 79
    },
    {
      "midi": 56,
      "hit": false,
      "t": 51794.81999999981,
      "d": 181.62374999999156,
      "v": 80
    },
    {
      "midi": 63,
      "hit": false,
      "t": 51800.16187499981,
      "d": 154.9143750000003,
      "v": 82
    },
    {
      "midi": 59,
      "hit": false,
      "t": 51800.16187499981,
      "d": 170.93999999999505,
      "v": 90
    },
    {
      "midi": 61,
      "hit": false,
      "t": 52302.298124999805,
      "d": 202.99124999999185,
      "v": 75
    },
    {
      "midi": 52,
      "hit": false,
      "t": 52307.6399999998,
      "d": 208.3331249999901,
      "v": 65
    },
    {
      "midi": 54,
      "hit": false,
      "t": 52312.9818749998,
      "d": 181.62374999999884,
      "v": 70
    },
    {
      "midi": 58,
      "hit": false,
      "t": 52312.9818749998,
      "d": 192.30749999999534,
      "v": 87
    },
    {
      "midi": 61,
      "hit": false,
      "t": 52569.39187499979,
      "d": 240.38437500000146,
      "v": 86
    },
    {
      "midi": 52,
      "hit": false,
      "t": 52569.39187499979,
      "d": 251.06812499999796,
      "v": 71
    },
    {
      "midi": 54,
      "hit": false,
      "t": 52569.39187499979,
      "d": 251.06812499999796,
      "v": 86
    },
    {
      "midi": 58,
      "hit": false,
      "t": 52569.39187499979,
      "d": 251.06812499999796,
      "v": 87
    },
    {
      "midi": 61,
      "hit": false,
      "t": 53082.21187499979,
      "d": 101.4956250000032,
      "v": 62
    },
    {
      "midi": 52,
      "hit": false,
      "t": 53082.21187499979,
      "d": 149.57250000000204,
      "v": 60
    },
    {
      "midi": 58,
      "hit": false,
      "t": 53082.21187499979,
      "d": 154.9143750000003,
      "v": 79
    },
    {
      "midi": 54,
      "hit": false,
      "t": 53082.21187499979,
      "d": 165.5981249999968,
      "v": 68
    },
    {
      "midi": 54,
      "hit": false,
      "t": 53327.93812499979,
      "d": 256.4099999999962,
      "v": 83
    },
    {
      "midi": 51,
      "hit": false,
      "t": 53333.27999999979,
      "d": 261.75187499999447,
      "v": 87
    },
    {
      "midi": 59,
      "hit": false,
      "t": 53333.27999999979,
      "d": 267.0937499999927,
      "v": 87
    },
    {
      "midi": 47,
      "hit": false,
      "t": 73851.42187499978,
      "d": 918.8024999999907,
      "v": 99
    },
    {
      "midi": 75,
      "hit": false,
      "t": 74353.55812499978,
      "d": 181.62374999999884,
      "v": 107
    },
    {
      "midi": 71,
      "hit": false,
      "t": 74358.89999999978,
      "d": 176.28187500000058,
      "v": 102
    },
    {
      "midi": 78,
      "hit": false,
      "t": 74358.89999999978,
      "d": 186.9656249999971,
      "v": 104
    },
    {
      "midi": 71,
      "hit": false,
      "t": 74866.37812499977,
      "d": 138.88874999999825,
      "v": 80
    },
    {
      "midi": 75,
      "hit": false,
      "t": 74866.37812499977,
      "d": 240.38437499999418,
      "v": 87
    },
    {
      "midi": 78,
      "hit": false,
      "t": 74866.37812499977,
      "d": 256.40999999998894,
      "v": 93
    },
    {
      "midi": 44,
      "hit": false,
      "t": 74882.40374999976,
      "d": 624.9993749999849,
      "v": 95
    },
    {
      "midi": 75,
      "hit": false,
      "t": 75128.12999999976,
      "d": 80.12812500000291,
      "v": 97
    },
    {
      "midi": 71,
      "hit": false,
      "t": 75128.12999999976,
      "d": 90.81187499999942,
      "v": 88
    },
    {
      "midi": 78,
      "hit": false,
      "t": 75128.12999999976,
      "d": 96.15374999999767,
      "v": 98
    },
    {
      "midi": 44,
      "hit": false,
      "t": 75630.26624999975,
      "d": 240.38437499999418,
      "v": 97
    },
    {
      "midi": 40,
      "hit": false,
      "t": 75886.67624999974,
      "d": 924.1443749999889,
      "v": 85
    },
    {
      "midi": 75,
      "hit": false,
      "t": 75908.04374999974,
      "d": 170.94000000000233,
      "v": 84
    },
    {
      "midi": 78,
      "hit": false,
      "t": 75908.04374999974,
      "d": 170.94000000000233,
      "v": 83
    },
    {
      "midi": 71,
      "hit": false,
      "t": 75913.38562499973,
      "d": 165.59812500000407,
      "v": 76
    },
    {
      "midi": 76,
      "hit": false,
      "t": 76164.45374999974,
      "d": 96.15374999999767,
      "v": 93
    },
    {
      "midi": 71,
      "hit": false,
      "t": 76164.45374999974,
      "d": 101.49562499999593,
      "v": 85
    },
    {
      "midi": 80,
      "hit": false,
      "t": 76164.45374999974,
      "d": 106.83749999999418,
      "v": 97
    },
    {
      "midi": 76,
      "hit": false,
      "t": 76671.93187499973,
      "d": 614.3156249999884,
      "v": 80
    },
    {
      "midi": 73,
      "hit": false,
      "t": 76671.93187499973,
      "d": 646.3668749999924,
      "v": 87
    },
    {
      "midi": 42,
      "hit": false,
      "t": 76912.31624999973,
      "d": 854.6999999999971,
      "v": 87
    },
    {
      "midi": 47,
      "hit": false,
      "t": 77932.61437499973,
      "d": 966.8793750000186,
      "v": 99
    },
    {
      "midi": 75,
      "hit": false,
      "t": 78450.77624999973,
      "d": 117.52125000000524,
      "v": 109
    },
    {
      "midi": 71,
      "hit": false,
      "t": 78450.77624999973,
      "d": 149.5725000000093,
      "v": 101
    },
    {
      "midi": 78,
      "hit": false,
      "t": 78450.77624999973,
      "d": 149.5725000000093,
      "v": 95
    },
    {
      "midi": 71,
      "hit": false,
      "t": 78968.93812499975,
      "d": 154.91437499999302,
      "v": 83
    },
    {
      "midi": 75,
      "hit": false,
      "t": 78968.93812499975,
      "d": 197.6493749999936,
      "v": 93
    },
    {
      "midi": 78,
      "hit": false,
      "t": 78968.93812499975,
      "d": 229.70062499999767,
      "v": 93
    },
    {
      "midi": 44,
      "hit": false,
      "t": 78968.93812499975,
      "d": 902.7768749999959,
      "v": 97
    },
    {
      "midi": 75,
      "hit": false,
      "t": 79236.03187499975,
      "d": 58.76062499999534,
      "v": 102
    },
    {
      "midi": 78,
      "hit": false,
      "t": 79236.03187499975,
      "d": 64.1024999999936,
      "v": 101
    },
    {
      "midi": 71,
      "hit": false,
      "t": 79236.03187499975,
      "d": 69.44437499999185,
      "v": 93
    },
    {
      "midi": 40,
      "hit": false,
      "t": 79983.89437499976,
      "d": 902.7768749999814,
      "v": 87
    },
    {
      "midi": 71,
      "hit": false,
      "t": 79994.57812499975,
      "d": 154.91437499999302,
      "v": 93
    },
    {
      "midi": 75,
      "hit": false,
      "t": 79994.57812499975,
      "d": 176.28187499998603,
      "v": 97
    },
    {
      "midi": 78,
      "hit": false,
      "t": 79994.57812499975,
      "d": 186.96562499998254,
      "v": 98
    },
    {
      "midi": 76,
      "hit": false,
      "t": 80256.32999999974,
      "d": 101.49562499999593,
      "v": 101
    },
    {
      "midi": 71,
      "hit": false,
      "t": 80256.32999999974,
      "d": 106.83749999999418,
      "v": 90
    },
    {
      "midi": 80,
      "hit": false,
      "t": 80256.32999999974,
      "d": 106.83749999999418,
      "v": 109
    },
    {
      "midi": 73,
      "hit": false,
      "t": 80763.80812499973,
      "d": 657.0506250000035,
      "v": 92
    },
    {
      "midi": 76,
      "hit": false,
      "t": 80763.80812499973,
      "d": 667.734375,
      "v": 92
    },
    {
      "midi": 42,
      "hit": false,
      "t": 81009.53437499974,
      "d": 779.9137499999924,
      "v": 86
    },
    {
      "midi": 47,
      "hit": false,
      "t": 82040.51624999974,
      "d": 876.0674999999756,
      "v": 93
    },
    {
      "midi": 75,
      "hit": false,
      "t": 82061.88374999973,
      "d": 219.01687500000116,
      "v": 97
    },
    {
      "midi": 71,
      "hit": false,
      "t": 82061.88374999973,
      "d": 229.70062499999767,
      "v": 91
    },
    {
      "midi": 78,
      "hit": false,
      "t": 82061.88374999973,
      "d": 235.04249999999593,
      "v": 99
    },
    {
      "midi": 71,
      "hit": false,
      "t": 82574.70374999972,
      "d": 144.2306249999965,
      "v": 104
    },
    {
      "midi": 78,
      "hit": false,
      "t": 82574.70374999972,
      "d": 149.57249999999476,
      "v": 105
    },
    {
      "midi": 75,
      "hit": false,
      "t": 82574.70374999972,
      "d": 170.93999999998778,
      "v": 111
    },
    {
      "midi": 46,
      "hit": false,
      "t": 83066.15624999971,
      "d": 763.8881249999977,
      "v": 87
    },
    {
      "midi": 75,
      "hit": false,
      "t": 83071.4981249997,
      "d": 186.9656249999971,
      "v": 87
    },
    {
      "midi": 70,
      "hit": false,
      "t": 83071.4981249997,
      "d": 192.30749999999534,
      "v": 78
    },
    {
      "midi": 79,
      "hit": false,
      "t": 83071.4981249997,
      "d": 192.30749999999534,
      "v": 81
    },
    {
      "midi": 73,
      "hit": false,
      "t": 83076.8399999997,
      "d": 170.94000000000233,
      "v": 87
    },
    {
      "midi": 70,
      "hit": false,
      "t": 83338.5918749997,
      "d": 149.57249999999476,
      "v": 92
    },
    {
      "midi": 79,
      "hit": false,
      "t": 83338.5918749997,
      "d": 176.28187500000058,
      "v": 96
    },
    {
      "midi": 73,
      "hit": false,
      "t": 83343.9337499997,
      "d": 138.88874999999825,
      "v": 88
    },
    {
      "midi": 75,
      "hit": false,
      "t": 83343.9337499997,
      "d": 144.2306249999965,
      "v": 86
    },
    {
      "midi": 80,
      "hit": false,
      "t": 83851.4118749997,
      "d": 550.2131249999948,
      "v": 99
    },
    {
      "midi": 71,
      "hit": false,
      "t": 83856.7537499997,
      "d": 566.2387499999895,
      "v": 90
    },
    {
      "midi": 75,
      "hit": false,
      "t": 83856.7537499997,
      "d": 571.5806249999878,
      "v": 98
    },
    {
      "midi": 44,
      "hit": false,
      "t": 84081.1124999997,
      "d": 1084.4006249999802,
      "v": 87
    },
    {
      "midi": 71,
      "hit": false,
      "t": 84599.27437499969,
      "d": 240.38437499999418,
      "v": 91
    },
    {
      "midi": 68,
      "hit": false,
      "t": 84604.61624999969,
      "d": 213.6750000000029,
      "v": 87
    },
    {
      "midi": 75,
      "hit": false,
      "t": 84604.61624999969,
      "d": 229.70062499999767,
      "v": 85
    },
    {
      "midi": 75,
      "hit": false,
      "t": 85122.77812499968,
      "d": 432.6918750000041,
      "v": 77
    },
    {
      "midi": 71,
      "hit": false,
      "t": 85128.11999999968,
      "d": 438.0337500000023,
      "v": 74
    },
    {
      "midi": 68,
      "hit": false,
      "t": 85128.11999999968,
      "d": 443.3756250000006,
      "v": 72
    },
    {
      "midi": 68,
      "hit": false,
      "t": 85640.93999999968,
      "d": 208.3331249999901,
      "v": 77
    },
    {
      "midi": 75,
      "hit": false,
      "t": 85640.93999999968,
      "d": 208.3331249999901,
      "v": 81
    },
    {
      "midi": 71,
      "hit": false,
      "t": 85646.28187499968,
      "d": 186.9656249999971,
      "v": 80
    },
    {
      "midi": 53,
      "hit": false,
      "t": 86132.39249999967,
      "d": 459.4012499999808,
      "v": 63
    },
    {
      "midi": 56,
      "hit": false,
      "t": 86143.07624999966,
      "d": 443.37562499998603,
      "v": 87
    },
    {
      "midi": 59,
      "hit": false,
      "t": 86153.75999999966,
      "d": 422.008124999993,
      "v": 90
    },
    {
      "midi": 63,
      "hit": false,
      "t": 86153.75999999966,
      "d": 438.0337499999878,
      "v": 95
    },
    {
      "midi": 53,
      "hit": false,
      "t": 86661.23812499965,
      "d": 176.28187499998603,
      "v": 79
    },
    {
      "midi": 56,
      "hit": false,
      "t": 86666.57999999965,
      "d": 181.62374999998428,
      "v": 80
    },
    {
      "midi": 63,
      "hit": false,
      "t": 86671.92187499965,
      "d": 154.91437499999302,
      "v": 82
    },
    {
      "midi": 59,
      "hit": false,
      "t": 86671.92187499965,
      "d": 170.93999999998778,
      "v": 90
    },
    {
      "midi": 61,
      "hit": false,
      "t": 87174.05812499963,
      "d": 202.99124999999185,
      "v": 75
    },
    {
      "midi": 52,
      "hit": false,
      "t": 87179.39999999963,
      "d": 208.3331249999901,
      "v": 65
    },
    {
      "midi": 54,
      "hit": false,
      "t": 87184.74187499963,
      "d": 181.62374999999884,
      "v": 70
    },
    {
      "midi": 58,
      "hit": false,
      "t": 87184.74187499963,
      "d": 192.30749999999534,
      "v": 87
    },
    {
      "midi": 61,
      "hit": false,
      "t": 87441.15187499962,
      "d": 240.38437499999418,
      "v": 86
    },
    {
      "midi": 52,
      "hit": false,
      "t": 87441.15187499962,
      "d": 251.0681249999907,
      "v": 71
    },
    {
      "midi": 54,
      "hit": false,
      "t": 87441.15187499962,
      "d": 251.0681249999907,
      "v": 86
    },
    {
      "midi": 58,
      "hit": false,
      "t": 87441.15187499962,
      "d": 251.0681249999907,
      "v": 87
    },
    {
      "midi": 61,
      "hit": false,
      "t": 87953.97187499961,
      "d": 101.49562499999593,
      "v": 62
    },
    {
      "midi": 52,
      "hit": false,
      "t": 87953.97187499961,
      "d": 149.57249999999476,
      "v": 60
    },
    {
      "midi": 58,
      "hit": false,
      "t": 87953.97187499961,
      "d": 154.91437499999302,
      "v": 79
    },
    {
      "midi": 54,
      "hit": false,
      "t": 87953.97187499961,
      "d": 165.59812499998952,
      "v": 68
    },
    {
      "midi": 54,
      "hit": false,
      "t": 88199.6981249996,
      "d": 256.4100000000035,
      "v": 83
    },
    {
      "midi": 51,
      "hit": false,
      "t": 88205.0399999996,
      "d": 261.75187500000175,
      "v": 87
    },
    {
      "midi": 59,
      "hit": false,
      "t": 88205.0399999996,
      "d": 267.09375,
      "v": 87
    },
    {
      "midi": 47,
      "hit": false,
      "t": 108723.1818749996,
      "d": 918.8024999999907,
      "v": 99
    },
    {
      "midi": 75,
      "hit": false,
      "t": 109225.3181249996,
      "d": 181.62374999999884,
      "v": 107
    },
    {
      "midi": 71,
      "hit": false,
      "t": 109230.6599999996,
      "d": 176.28187500000058,
      "v": 102
    },
    {
      "midi": 78,
      "hit": false,
      "t": 109230.6599999996,
      "d": 186.9656249999971,
      "v": 104
    },
    {
      "midi": 71,
      "hit": false,
      "t": 109738.13812499959,
      "d": 138.88874999999825,
      "v": 80
    },
    {
      "midi": 75,
      "hit": false,
      "t": 109738.13812499959,
      "d": 240.38437499999418,
      "v": 87
    },
    {
      "midi": 78,
      "hit": false,
      "t": 109738.13812499959,
      "d": 256.40999999998894,
      "v": 93
    },
    {
      "midi": 44,
      "hit": false,
      "t": 109754.16374999958,
      "d": 624.9993749999849,
      "v": 95
    },
    {
      "midi": 75,
      "hit": false,
      "t": 109999.88999999958,
      "d": 80.12812500000291,
      "v": 97
    },
    {
      "midi": 71,
      "hit": false,
      "t": 109999.88999999958,
      "d": 90.81187499999942,
      "v": 88
    },
    {
      "midi": 78,
      "hit": false,
      "t": 109999.88999999958,
      "d": 96.15374999999767,
      "v": 98
    },
    {
      "midi": 44,
      "hit": false,
      "t": 110502.02624999957,
      "d": 240.38437499999418,
      "v": 97
    },
    {
      "midi": 40,
      "hit": false,
      "t": 110758.43624999956,
      "d": 924.1443749999889,
      "v": 85
    },
    {
      "midi": 75,
      "hit": false,
      "t": 110779.80374999956,
      "d": 170.94000000000233,
      "v": 84
    },
    {
      "midi": 78,
      "hit": false,
      "t": 110779.80374999956,
      "d": 170.94000000000233,
      "v": 83
    },
    {
      "midi": 71,
      "hit": false,
      "t": 110785.14562499955,
      "d": 165.59812500000407,
      "v": 76
    },
    {
      "midi": 76,
      "hit": false,
      "t": 111036.21374999956,
      "d": 96.15374999999767,
      "v": 93
    },
    {
      "midi": 71,
      "hit": false,
      "t": 111036.21374999956,
      "d": 101.49562499999593,
      "v": 85
    },
    {
      "midi": 80,
      "hit": false,
      "t": 111036.21374999956,
      "d": 106.83749999999418,
      "v": 97
    },
    {
      "midi": 76,
      "hit": false,
      "t": 111543.69187499955,
      "d": 614.3156249999884,
      "v": 80
    },
    {
      "midi": 73,
      "hit": false,
      "t": 111543.69187499955,
      "d": 646.3668749999924,
      "v": 87
    },
    {
      "midi": 42,
      "hit": false,
      "t": 111784.07624999955,
      "d": 854.6999999999971,
      "v": 87
    },
    {
      "midi": 47,
      "hit": false,
      "t": 112804.37437499955,
      "d": 966.8793750000186,
      "v": 99
    },
    {
      "midi": 75,
      "hit": false,
      "t": 113322.53624999955,
      "d": 117.52125000000524,
      "v": 109
    },
    {
      "midi": 71,
      "hit": false,
      "t": 113322.53624999955,
      "d": 149.5725000000093,
      "v": 101
    },
    {
      "midi": 78,
      "hit": false,
      "t": 113322.53624999955,
      "d": 149.5725000000093,
      "v": 95
    },
    {
      "midi": 71,
      "hit": false,
      "t": 113840.69812499957,
      "d": 154.91437499999302,
      "v": 83
    },
    {
      "midi": 75,
      "hit": false,
      "t": 113840.69812499957,
      "d": 197.6493749999936,
      "v": 93
    },
    {
      "midi": 78,
      "hit": false,
      "t": 113840.69812499957,
      "d": 229.70062499999767,
      "v": 93
    },
    {
      "midi": 44,
      "hit": false,
      "t": 113840.69812499957,
      "d": 902.7768749999959,
      "v": 97
    },
    {
      "midi": 75,
      "hit": false,
      "t": 114107.79187499957,
      "d": 58.76062499999534,
      "v": 102
    },
    {
      "midi": 78,
      "hit": false,
      "t": 114107.79187499957,
      "d": 64.1024999999936,
      "v": 101
    },
    {
      "midi": 71,
      "hit": false,
      "t": 114107.79187499957,
      "d": 69.44437499999185,
      "v": 93
    },
    {
      "midi": 40,
      "hit": false,
      "t": 114855.65437499958,
      "d": 902.7768749999814,
      "v": 87
    },
    {
      "midi": 71,
      "hit": false,
      "t": 114866.33812499957,
      "d": 154.91437499999302,
      "v": 93
    },
    {
      "midi": 75,
      "hit": false,
      "t": 114866.33812499957,
      "d": 176.28187499998603,
      "v": 97
    },
    {
      "midi": 78,
      "hit": false,
      "t": 114866.33812499957,
      "d": 186.96562499998254,
      "v": 98
    },
    {
      "midi": 76,
      "hit": false,
      "t": 115128.08999999956,
      "d": 101.49562499999593,
      "v": 101
    },
    {
      "midi": 71,
      "hit": false,
      "t": 115128.08999999956,
      "d": 106.83749999999418,
      "v": 90
    },
    {
      "midi": 80,
      "hit": false,
      "t": 115128.08999999956,
      "d": 106.83749999999418,
      "v": 109
    },
    {
      "midi": 73,
      "hit": false,
      "t": 115635.56812499955,
      "d": 657.0506250000035,
      "v": 92
    },
    {
      "midi": 76,
      "hit": false,
      "t": 115635.56812499955,
      "d": 667.734375,
      "v": 92
    },
    {
      "midi": 42,
      "hit": false,
      "t": 115881.29437499956,
      "d": 779.9137499999924,
      "v": 86
    },
    {
      "midi": 47,
      "hit": false,
      "t": 116912.27624999956,
      "d": 876.0674999999756,
      "v": 93
    },
    {
      "midi": 75,
      "hit": false,
      "t": 116933.64374999955,
      "d": 219.01687500000116,
      "v": 97
    },
    {
      "midi": 71,
      "hit": false,
      "t": 116933.64374999955,
      "d": 229.70062499999767,
      "v": 91
    },
    {
      "midi": 78,
      "hit": false,
      "t": 116933.64374999955,
      "d": 235.04249999999593,
      "v": 99
    },
    {
      "midi": 71,
      "hit": false,
      "t": 117446.46374999954,
      "d": 144.2306249999965,
      "v": 104
    },
    {
      "midi": 78,
      "hit": false,
      "t": 117446.46374999954,
      "d": 149.57249999999476,
      "v": 105
    },
    {
      "midi": 75,
      "hit": false,
      "t": 117446.46374999954,
      "d": 170.93999999998778,
      "v": 111
    },
    {
      "midi": 46,
      "hit": false,
      "t": 117937.91624999953,
      "d": 763.8881249999977,
      "v": 87
    },
    {
      "midi": 75,
      "hit": false,
      "t": 117943.25812499953,
      "d": 186.9656249999971,
      "v": 87
    },
    {
      "midi": 70,
      "hit": false,
      "t": 117943.25812499953,
      "d": 192.30749999999534,
      "v": 78
    },
    {
      "midi": 79,
      "hit": false,
      "t": 117943.25812499953,
      "d": 192.30749999999534,
      "v": 81
    },
    {
      "midi": 73,
      "hit": false,
      "t": 117948.59999999953,
      "d": 170.94000000000233,
      "v": 87
    },
    {
      "midi": 70,
      "hit": false,
      "t": 118210.35187499953,
      "d": 149.57249999999476,
      "v": 92
    },
    {
      "midi": 79,
      "hit": false,
      "t": 118210.35187499953,
      "d": 176.28187500000058,
      "v": 96
    },
    {
      "midi": 73,
      "hit": false,
      "t": 118215.69374999953,
      "d": 138.88874999999825,
      "v": 88
    },
    {
      "midi": 75,
      "hit": false,
      "t": 118215.69374999953,
      "d": 144.2306249999965,
      "v": 86
    },
    {
      "midi": 80,
      "hit": false,
      "t": 118723.17187499952,
      "d": 550.2131249999948,
      "v": 99
    },
    {
      "midi": 71,
      "hit": false,
      "t": 118728.51374999952,
      "d": 566.2387499999895,
      "v": 90
    },
    {
      "midi": 75,
      "hit": false,
      "t": 118728.51374999952,
      "d": 571.5806249999878,
      "v": 98
    },
    {
      "midi": 44,
      "hit": false,
      "t": 118952.87249999952,
      "d": 1084.4006249999802,
      "v": 87
    },
    {
      "midi": 71,
      "hit": false,
      "t": 119471.03437499951,
      "d": 240.38437499999418,
      "v": 91
    },
    {
      "midi": 68,
      "hit": false,
      "t": 119476.3762499995,
      "d": 213.6750000000029,
      "v": 87
    },
    {
      "midi": 75,
      "hit": false,
      "t": 119476.3762499995,
      "d": 229.70062499999767,
      "v": 85
    },
    {
      "midi": 75,
      "hit": false,
      "t": 119994.5381249995,
      "d": 432.6918750000041,
      "v": 77
    },
    {
      "midi": 71,
      "hit": false,
      "t": 119999.8799999995,
      "d": 438.0337500000023,
      "v": 74
    },
    {
      "midi": 68,
      "hit": false,
      "t": 119999.8799999995,
      "d": 443.3756250000006,
      "v": 72
    },
    {
      "midi": 68,
      "hit": false,
      "t": 120512.6999999995,
      "d": 208.3331249999901,
      "v": 77
    },
    {
      "midi": 75,
      "hit": false,
      "t": 120512.6999999995,
      "d": 208.3331249999901,
      "v": 81
    },
    {
      "midi": 71,
      "hit": false,
      "t": 120518.0418749995,
      "d": 186.9656249999971,
      "v": 80
    },
    {
      "midi": 53,
      "hit": false,
      "t": 121004.15249999949,
      "d": 459.4012499999808,
      "v": 63
    },
    {
      "midi": 56,
      "hit": false,
      "t": 121014.83624999948,
      "d": 443.37562499998603,
      "v": 87
    },
    {
      "midi": 59,
      "hit": false,
      "t": 121025.51999999948,
      "d": 422.008124999993,
      "v": 90
    },
    {
      "midi": 63,
      "hit": false,
      "t": 121025.51999999948,
      "d": 438.0337499999878,
      "v": 95
    },
    {
      "midi": 53,
      "hit": false,
      "t": 121532.99812499947,
      "d": 176.28187499998603,
      "v": 79
    },
    {
      "midi": 56,
      "hit": false,
      "t": 121538.33999999947,
      "d": 181.62374999998428,
      "v": 80
    },
    {
      "midi": 63,
      "hit": false,
      "t": 121543.68187499947,
      "d": 154.91437499999302,
      "v": 82
    },
    {
      "midi": 59,
      "hit": false,
      "t": 121543.68187499947,
      "d": 170.93999999998778,
      "v": 90
    },
    {
      "midi": 61,
      "hit": false,
      "t": 122045.81812499945,
      "d": 202.99124999999185,
      "v": 75
    },
    {
      "midi": 52,
      "hit": false,
      "t": 122051.15999999945,
      "d": 208.3331249999901,
      "v": 65
    },
    {
      "midi": 54,
      "hit": false,
      "t": 122056.50187499945,
      "d": 181.62374999999884,
      "v": 70
    },
    {
      "midi": 58,
      "hit": false,
      "t": 122056.50187499945,
      "d": 192.30749999999534,
      "v": 87
    },
    {
      "midi": 61,
      "hit": false,
      "t": 122312.91187499944,
      "d": 240.38437499999418,
      "v": 86
    },
    {
      "midi": 52,
      "hit": false,
      "t": 122312.91187499944,
      "d": 251.0681249999907,
      "v": 71
    },
    {
      "midi": 54,
      "hit": false,
      "t": 122312.91187499944,
      "d": 251.0681249999907,
      "v": 86
    },
    {
      "midi": 58,
      "hit": false,
      "t": 122312.91187499944,
      "d": 251.0681249999907,
      "v": 87
    },
    {
      "midi": 61,
      "hit": false,
      "t": 122825.73187499943,
      "d": 101.49562499999593,
      "v": 62
    },
    {
      "midi": 52,
      "hit": false,
      "t": 122825.73187499943,
      "d": 149.57249999999476,
      "v": 60
    },
    {
      "midi": 58,
      "hit": false,
      "t": 122825.73187499943,
      "d": 154.91437499999302,
      "v": 79
    },
    {
      "midi": 54,
      "hit": false,
      "t": 122825.73187499943,
      "d": 165.59812499998952,
      "v": 68
    },
    {
      "midi": 47,
      "hit": false,
      "t": 123082.14187499942,
      "d": 651.7087499999907,
      "v": 92
    },
    {
      "midi": 66,
      "hit": false,
      "t": 123333.20999999942,
      "d": 154.91437499999302,
      "v": 72
    },
    {
      "midi": 59,
      "hit": false,
      "t": 123333.20999999942,
      "d": 160.25624999999127,
      "v": 66
    },
    {
      "midi": 63,
      "hit": false,
      "t": 123338.55187499942,
      "d": 154.91437499999302,
      "v": 75
    },
    {
      "midi": 59,
      "hit": false,
      "t": 123584.27812499942,
      "d": 256.40999999998894,
      "v": 76
    },
    {
      "midi": 63,
      "hit": false,
      "t": 123584.27812499942,
      "d": 261.7518749999872,
      "v": 87
    },
    {
      "midi": 66,
      "hit": false,
      "t": 123584.27812499942,
      "d": 272.4356249999837,
      "v": 85
    },
    {
      "midi": 47,
      "hit": false,
      "t": 123851.3718749994,
      "d": 53.41874999999709,
      "v": 43
    },
    {
      "midi": 44,
      "hit": false,
      "t": 124097.0981249994,
      "d": 539.5293750000128,
      "v": 75
    },
    {
      "midi": 59,
      "hit": false,
      "t": 124609.9181249994,
      "d": 245.72625000000698,
      "v": 90
    },
    {
      "midi": 63,
      "hit": false,
      "t": 124609.9181249994,
      "d": 256.4100000000035,
      "v": 92
    },
    {
      "midi": 68,
      "hit": false,
      "t": 124609.9181249994,
      "d": 288.46125000000757,
      "v": 93
    },
    {
      "midi": 40,
      "hit": false,
      "t": 125122.7381249994,
      "d": 950.8537499999802,
      "v": 69
    },
    {
      "midi": 64,
      "hit": false,
      "t": 125133.4218749994,
      "d": 192.30749999999534,
      "v": 77
    },
    {
      "midi": 59,
      "hit": false,
      "t": 125133.4218749994,
      "d": 197.6493749999936,
      "v": 68
    },
    {
      "midi": 68,
      "hit": false,
      "t": 125133.4218749994,
      "d": 197.6493749999936,
      "v": 77
    },
    {
      "midi": 64,
      "hit": false,
      "t": 125646.2418749994,
      "d": 219.01687500000116,
      "v": 80
    },
    {
      "midi": 59,
      "hit": false,
      "t": 125646.2418749994,
      "d": 229.70062499999767,
      "v": 73
    },
    {
      "midi": 68,
      "hit": false,
      "t": 125646.2418749994,
      "d": 229.70062499999767,
      "v": 77
    },
    {
      "midi": 68,
      "hit": false,
      "t": 126148.37812499939,
      "d": 154.91437499999302,
      "v": 67
    },
    {
      "midi": 59,
      "hit": false,
      "t": 126153.71999999939,
      "d": 149.57249999999476,
      "v": 63
    },
    {
      "midi": 64,
      "hit": false,
      "t": 126159.06187499939,
      "d": 144.2306249999965,
      "v": 77
    },
    {
      "midi": 59,
      "hit": false,
      "t": 126415.47187499939,
      "d": 149.57249999999476,
      "v": 77
    },
    {
      "midi": 64,
      "hit": false,
      "t": 126415.47187499939,
      "d": 160.25624999999127,
      "v": 85
    },
    {
      "midi": 68,
      "hit": false,
      "t": 126415.47187499939,
      "d": 160.25624999999127,
      "v": 78
    },
    {
      "midi": 42,
      "hit": false,
      "t": 126666.53999999938,
      "d": 315.17062499999884,
      "v": 61
    },
    {
      "midi": 59,
      "hit": false,
      "t": 126917.60812499939,
      "d": 299.1449999999895,
      "v": 75
    },
    {
      "midi": 63,
      "hit": false,
      "t": 126917.60812499939,
      "d": 304.4868749999878,
      "v": 77
    },
    {
      "midi": 66,
      "hit": false,
      "t": 126917.60812499939,
      "d": 315.1706249999843,
      "v": 75
    },
    {
      "midi": 47,
      "hit": false,
      "t": 127174.01812499938,
      "d": 544.871249999982,
      "v": 81
    },
    {
      "midi": 66,
      "hit": false,
      "t": 127425.08624999937,
      "d": 133.54687499998545,
      "v": 60
    },
    {
      "midi": 59,
      "hit": false,
      "t": 127425.08624999937,
      "d": 138.8887499999837,
      "v": 56
    },
    {
      "midi": 63,
      "hit": false,
      "t": 127430.42812499937,
      "d": 106.83749999999418,
      "v": 69
    },
    {
      "midi": 63,
      "hit": false,
      "t": 127686.83812499935,
      "d": 224.35874999999942,
      "v": 80
    },
    {
      "midi": 66,
      "hit": false,
      "t": 127686.83812499935,
      "d": 235.04249999999593,
      "v": 76
    },
    {
      "midi": 59,
      "hit": false,
      "t": 127686.83812499935,
      "d": 240.38437499999418,
      "v": 66
    },
    {
      "midi": 47,
      "hit": false,
      "t": 127937.90624999935,
      "d": 74.78625000000466,
      "v": 63
    },
    {
      "midi": 44,
      "hit": false,
      "t": 128199.65812499935,
      "d": 630.3412499999977,
      "v": 71
    },
    {
      "midi": 59,
      "hit": false,
      "t": 128210.34187499934,
      "d": 80.12812500000291,
      "v": 31
    },
    {
      "midi": 63,
      "hit": false,
      "t": 128466.75187499935,
      "d": 235.04249999999593,
      "v": 83
    },
    {
      "midi": 59,
      "hit": false,
      "t": 128466.75187499935,
      "d": 251.0681249999907,
      "v": 72
    },
    {
      "midi": 68,
      "hit": false,
      "t": 128466.75187499935,
      "d": 251.0681249999907,
      "v": 75
    },
    {
      "midi": 40,
      "hit": false,
      "t": 129219.95624999935,
      "d": 908.1187499999651,
      "v": 71
    },
    {
      "midi": 64,
      "hit": false,
      "t": 129481.70812499935,
      "d": 74.7862499999901,
      "v": 56
    },
    {
      "midi": 68,
      "hit": false,
      "t": 129481.70812499935,
      "d": 85.46999999998661,
      "v": 39
    },
    {
      "midi": 59,
      "hit": false,
      "t": 129492.39187499935,
      "d": 80.12812499998836,
      "v": 33
    },
    {
      "midi": 64,
      "hit": false,
      "t": 129738.11812499932,
      "d": 256.4100000000035,
      "v": 82
    },
    {
      "midi": 68,
      "hit": false,
      "t": 129738.11812499932,
      "d": 272.43562499999825,
      "v": 71
    },
    {
      "midi": 59,
      "hit": false,
      "t": 129738.11812499932,
      "d": 293.80312499999127,
      "v": 63
    },
    {
      "midi": 42,
      "hit": false,
      "t": 130763.75812499932,
      "d": 368.5893750000105,
      "v": 80
    },
    {
      "midi": 47,
      "hit": false,
      "t": 131276.57812499933,
      "d": 566.2387500000186,
      "v": 75
    },
    {
      "midi": 63,
      "hit": false,
      "t": 131527.64624999932,
      "d": 112.17937500000698,
      "v": 59
    },
    {
      "midi": 59,
      "hit": false,
      "t": 131532.98812499933,
      "d": 112.17937500000698,
      "v": 43
    },
    {
      "midi": 66,
      "hit": false,
      "t": 131532.98812499933,
      "d": 112.17937500000698,
      "v": 51
    },
    {
      "midi": 63,
      "hit": false,
      "t": 131789.39812499934,
      "d": 170.94000000000233,
      "v": 86
    },
    {
      "midi": 59,
      "hit": false,
      "t": 131789.39812499934,
      "d": 186.96562500001164,
      "v": 72
    },
    {
      "midi": 66,
      "hit": false,
      "t": 131789.39812499934,
      "d": 208.33312500000466,
      "v": 84
    },
    {
      "midi": 47,
      "hit": false,
      "t": 132035.12437499934,
      "d": 117.52125000001979,
      "v": 63
    },
    {
      "midi": 44,
      "hit": false,
      "t": 132296.87624999936,
      "d": 683.7600000000384,
      "v": 72
    },
    {
      "midi": 68,
      "hit": false,
      "t": 132312.90187499937,
      "d": 117.52125000001979,
      "v": 39
    },
    {
      "midi": 59,
      "hit": false,
      "t": 132312.90187499937,
      "d": 122.8631250000326,
      "v": 35
    },
    {
      "midi": 68,
      "hit": false,
      "t": 132563.96999999942,
      "d": 224.35874999998487,
      "v": 77
    },
    {
      "midi": 59,
      "hit": false,
      "t": 132563.96999999942,
      "d": 235.04249999998137,
      "v": 72
    },
    {
      "midi": 63,
      "hit": false,
      "t": 132569.31187499943,
      "d": 208.33312499997555,
      "v": 85
    },
    {
      "midi": 44,
      "hit": false,
      "t": 133071.44812499938,
      "d": 101.49562500001048,
      "v": 64
    },
    {
      "midi": 40,
      "hit": false,
      "t": 133327.8581249994,
      "d": 902.7768750000396,
      "v": 71
    },
    {
      "midi": 68,
      "hit": false,
      "t": 133589.6099999994,
      "d": 112.17937500003609,
      "v": 52
    },
    {
      "midi": 59,
      "hit": false,
      "t": 133594.95187499942,
      "d": 101.49562500001048,
      "v": 36
    },
    {
      "midi": 64,
      "hit": false,
      "t": 133594.95187499942,
      "d": 101.49562500001048,
      "v": 62
    },
    {
      "midi": 68,
      "hit": false,
      "t": 133846.01999999944,
      "d": 160.25625000000582,
      "v": 80
    },
    {
      "midi": 64,
      "hit": false,
      "t": 133846.01999999944,
      "d": 181.62374999999884,
      "v": 87
    },
    {
      "midi": 59,
      "hit": false,
      "t": 133846.01999999944,
      "d": 219.01687500000116,
      "v": 71
    },
    {
      "midi": 42,
      "hit": false,
      "t": 134348.15624999942,
      "d": 801.28125,
      "v": 72
    },
    {
      "midi": 66,
      "hit": false,
      "t": 134866.3181249994,
      "d": 186.96562500001164,
      "v": 67
    },
    {
      "midi": 58,
      "hit": false,
      "t": 134866.3181249994,
      "d": 208.33312500000466,
      "v": 61
    },
    {
      "midi": 61,
      "hit": false,
      "t": 134871.65999999942,
      "d": 208.33312500000466,
      "v": 77
    },
    {
      "midi": 47,
      "hit": false,
      "t": 135379.13812499942,
      "d": 571.5806250000023,
      "v": 73
    },
    {
      "midi": 66,
      "hit": false,
      "t": 135646.23187499942,
      "d": 96.15375000002678,
      "v": 48
    },
    {
      "midi": 59,
      "hit": false,
      "t": 135651.57374999943,
      "d": 85.47000000000116,
      "v": 35
    },
    {
      "midi": 63,
      "hit": false,
      "t": 135651.57374999943,
      "d": 85.47000000000116,
      "v": 54
    },
    {
      "midi": 63,
      "hit": false,
      "t": 135891.95812499942,
      "d": 197.64937500000815,
      "v": 83
    },
    {
      "midi": 59,
      "hit": false,
      "t": 135891.95812499942,
      "d": 202.99125000002095,
      "v": 71
    },
    {
      "midi": 66,
      "hit": false,
      "t": 135891.95812499942,
      "d": 235.04250000001048,
      "v": 80
    },
    {
      "midi": 47,
      "hit": false,
      "t": 136148.36812499943,
      "d": 90.81187500001397,
      "v": 64
    },
    {
      "midi": 44,
      "hit": false,
      "t": 136399.43624999945,
      "d": 694.443750000064,
      "v": 71
    },
    {
      "midi": 59,
      "hit": false,
      "t": 136404.77812499946,
      "d": 117.52125000001979,
      "v": 38
    },
    {
      "midi": 68,
      "hit": false,
      "t": 136404.77812499946,
      "d": 128.2050000000163,
      "v": 39
    },
    {
      "midi": 63,
      "hit": false,
      "t": 136415.46187499948,
      "d": 69.44437499999185,
      "v": 37
    },
    {
      "midi": 68,
      "hit": false,
      "t": 136661.18812499946,
      "d": 235.04250000001048,
      "v": 90
    },
    {
      "midi": 63,
      "hit": false,
      "t": 136661.18812499946,
      "d": 240.38437500002328,
      "v": 93
    },
    {
      "midi": 59,
      "hit": false,
      "t": 136661.18812499946,
      "d": 256.4100000000326,
      "v": 77
    },
    {
      "midi": 44,
      "hit": false,
      "t": 137168.6662499995,
      "d": 85.47000000000116,
      "v": 66
    },
    {
      "midi": 40,
      "hit": false,
      "t": 137425.0762499995,
      "d": 886.7512499999721,
      "v": 75
    },
    {
      "midi": 64,
      "hit": false,
      "t": 137697.51187499947,
      "d": 122.86312500000349,
      "v": 56
    },
    {
      "midi": 68,
      "hit": false,
      "t": 137697.51187499947,
      "d": 133.546875,
      "v": 46
    },
    {
      "midi": 59,
      "hit": false,
      "t": 137702.85374999949,
      "d": 96.15374999999767,
      "v": 31
    },
    {
      "midi": 68,
      "hit": false,
      "t": 137943.23812499945,
      "d": 165.59812499998952,
      "v": 82
    },
    {
      "midi": 64,
      "hit": false,
      "t": 137943.23812499945,
      "d": 181.62374999999884,
      "v": 93
    },
    {
      "midi": 59,
      "hit": false,
      "t": 137943.23812499945,
      "d": 208.33312500000466,
      "v": 79
    },
    {
      "midi": 42,
      "hit": false,
      "t": 138450.71624999947,
      "d": 689.101874999993,
      "v": 76
    },
    {
      "midi": 66,
      "hit": false,
      "t": 138578.92124999946,
      "d": 58.76062499999534,
      "v": 33
    },
    {
      "midi": 58,
      "hit": false,
      "t": 138723.15187499946,
      "d": 288.4612500000221,
      "v": 73
    },
    {
      "midi": 61,
      "hit": false,
      "t": 138723.15187499946,
      "d": 299.1450000000186,
      "v": 87
    },
    {
      "midi": 66,
      "hit": false,
      "t": 138723.15187499946,
      "d": 299.1450000000186,
      "v": 82
    },
    {
      "midi": 42,
      "hit": false,
      "t": 139235.97187499946,
      "d": 90.81187499998487,
      "v": 51
    },
    {
      "midi": 47,
      "hit": false,
      "t": 139481.69812499944,
      "d": 336.53812499999185,
      "v": 75
    },
    {
      "midi": 59,
      "hit": false,
      "t": 139481.69812499944,
      "d": 1431.6224999999977,
      "v": 66
    },
    {
      "midi": 63,
      "hit": false,
      "t": 139481.69812499944,
      "d": 1452.9899999999907,
      "v": 73
    },
    {
      "midi": 66,
      "hit": false,
      "t": 139481.69812499944,
      "d": 1452.9899999999907,
      "v": 72
    }
  ]
}