{
  "jsonPath": "Rock/Soft Rock/Carpenters/hurting-each-other.json",
  "path": "Rock\\Soft Rock\\Carpenters\\Hurting Each Other.mid",
  "name": "Hurting Each Other",
  "difficulty": "Advanced",
  "bpm": 91.99998773333498,
  "notes": [
    {
      "midi": 54,
      "hit": false,
      "t": 2526.3160000000003,
      "d": 618.4211041666663,
      "v": 48
    },
    {
      "midi": 57,
      "hit": false,
      "t": 2526.3160000000003,
      "d": 618.4211041666663,
      "v": 63
    },
    {
      "midi": 62,
      "hit": false,
      "t": 2526.3160000000003,
      "d": 618.4211041666663,
      "v": 57
    },
    {
      "midi": 28,
      "hit": false,
      "t": 2526.3160000000003,
      "d": 934.2106041666661,
      "v": 68
    },
    {
      "midi": 54,
      "hit": false,
      "t": 3151.316052083333,
      "d": 625.0000520833332,
      "v": 56
    },
    {
      "midi": 57,
      "hit": false,
      "t": 3151.316052083333,
      "d": 625.0000520833332,
      "v": 73
    },
    {
      "midi": 62,
      "hit": false,
      "t": 3151.316052083333,
      "d": 625.0000520833332,
      "v": 79
    },
    {
      "midi": 28,
      "hit": false,
      "t": 3467.105552083333,
      "d": 309.21055208333337,
      "v": 70
    },
    {
      "midi": 54,
      "hit": false,
      "t": 3782.8950520833328,
      "d": 625.0000520833332,
      "v": 44
    },
    {
      "midi": 57,
      "hit": false,
      "t": 3782.8950520833328,
      "d": 625.0000520833332,
      "v": 55
    },
    {
      "midi": 62,
      "hit": false,
      "t": 3782.8950520833328,
      "d": 625.0000520833332,
      "v": 59
    },
    {
      "midi": 28,
      "hit": false,
      "t": 3782.8950520833328,
      "d": 940.789552083334,
      "v": 74
    },
    {
      "midi": 54,
      "hit": false,
      "t": 4414.474052083333,
      "d": 519.7368854166671,
      "v": 59
    },
    {
      "midi": 57,
      "hit": false,
      "t": 4414.474052083333,
      "d": 519.7368854166671,
      "v": 71
    },
    {
      "midi": 62,
      "hit": false,
      "t": 4414.474052083333,
      "d": 519.7368854166671,
      "v": 74
    },
    {
      "midi": 28,
      "hit": false,
      "t": 4730.263552083334,
      "d": 203.9473854166663,
      "v": 69
    },
    {
      "midi": 54,
      "hit": false,
      "t": 5046.053052083334,
      "d": 625.0000520833337,
      "v": 55
    },
    {
      "midi": 57,
      "hit": false,
      "t": 5046.053052083334,
      "d": 625.0000520833337,
      "v": 71
    },
    {
      "midi": 62,
      "hit": false,
      "t": 5046.053052083334,
      "d": 625.0000520833337,
      "v": 66
    },
    {
      "midi": 28,
      "hit": false,
      "t": 5046.053052083334,
      "d": 940.7895520833345,
      "v": 77
    },
    {
      "midi": 35,
      "hit": false,
      "t": 5052.6320000000005,
      "d": 98.68421874999967,
      "v": 46
    },
    {
      "midi": 54,
      "hit": false,
      "t": 5677.632052083334,
      "d": 625.0000520833346,
      "v": 60
    },
    {
      "midi": 57,
      "hit": false,
      "t": 5677.632052083334,
      "d": 625.0000520833346,
      "v": 75
    },
    {
      "midi": 62,
      "hit": false,
      "t": 5677.632052083334,
      "d": 625.0000520833346,
      "v": 74
    },
    {
      "midi": 28,
      "hit": false,
      "t": 5993.421552083335,
      "d": 309.2105520833338,
      "v": 75
    },
    {
      "midi": 54,
      "hit": false,
      "t": 6309.211052083336,
      "d": 625.0000520833337,
      "v": 67
    },
    {
      "midi": 57,
      "hit": false,
      "t": 6309.211052083336,
      "d": 625.0000520833337,
      "v": 80
    },
    {
      "midi": 62,
      "hit": false,
      "t": 6309.211052083336,
      "d": 625.0000520833337,
      "v": 77
    },
    {
      "midi": 28,
      "hit": false,
      "t": 6309.211052083336,
      "d": 940.7895520833335,
      "v": 76
    },
    {
      "midi": 54,
      "hit": false,
      "t": 6940.790052083336,
      "d": 565.789520833333,
      "v": 61
    },
    {
      "midi": 57,
      "hit": false,
      "t": 6940.790052083336,
      "d": 565.789520833333,
      "v": 76
    },
    {
      "midi": 62,
      "hit": false,
      "t": 6940.790052083336,
      "d": 565.789520833333,
      "v": 76
    },
    {
      "midi": 28,
      "hit": false,
      "t": 7256.579552083336,
      "d": 250.0000208333331,
      "v": 67
    },
    {
      "midi": 52,
      "hit": false,
      "t": 7572.369052083336,
      "d": 625.0000520833337,
      "v": 63
    },
    {
      "midi": 54,
      "hit": false,
      "t": 7572.369052083336,
      "d": 625.0000520833337,
      "v": 58
    },
    {
      "midi": 56,
      "hit": false,
      "t": 7572.369052083336,
      "d": 625.0000520833337,
      "v": 56
    },
    {
      "midi": 59,
      "hit": false,
      "t": 7572.369052083336,
      "d": 625.0000520833337,
      "v": 58
    },
    {
      "midi": 28,
      "hit": false,
      "t": 7572.369052083336,
      "d": 940.7895520833345,
      "v": 67
    },
    {
      "midi": 40,
      "hit": false,
      "t": 7572.369052083336,
      "d": 3690.7897812500078,
      "v": 64
    },
    {
      "midi": 52,
      "hit": false,
      "t": 8203.948052083337,
      "d": 625.0000520833346,
      "v": 71
    },
    {
      "midi": 54,
      "hit": false,
      "t": 8203.948052083337,
      "d": 625.0000520833346,
      "v": 61
    },
    {
      "midi": 59,
      "hit": false,
      "t": 8203.948052083337,
      "d": 625.0000520833346,
      "v": 66
    },
    {
      "midi": 56,
      "hit": false,
      "t": 8203.948052083337,
      "d": 940.7895520833354,
      "v": 68
    },
    {
      "midi": 28,
      "hit": false,
      "t": 8519.737552083338,
      "d": 309.2105520833338,
      "v": 78
    },
    {
      "midi": 52,
      "hit": false,
      "t": 8835.527052083338,
      "d": 625.0000520833346,
      "v": 74
    },
    {
      "midi": 59,
      "hit": false,
      "t": 8835.527052083338,
      "d": 625.0000520833346,
      "v": 59
    },
    {
      "midi": 54,
      "hit": false,
      "t": 8835.527052083338,
      "d": 940.7895520833354,
      "v": 78
    },
    {
      "midi": 28,
      "hit": false,
      "t": 8835.527052083338,
      "d": 947.3685000000023,
      "v": 78
    },
    {
      "midi": 56,
      "hit": false,
      "t": 9151.316552083339,
      "d": 309.2105520833338,
      "v": 64
    },
    {
      "midi": 52,
      "hit": false,
      "t": 9467.10605208334,
      "d": 631.5790000000015,
      "v": 73
    },
    {
      "midi": 56,
      "hit": false,
      "t": 9467.10605208334,
      "d": 631.5790000000015,
      "v": 81
    },
    {
      "midi": 59,
      "hit": false,
      "t": 9467.10605208334,
      "d": 631.5790000000015,
      "v": 76
    },
    {
      "midi": 54,
      "hit": false,
      "t": 9782.89555208334,
      "d": 315.78950000000077,
      "v": 63
    },
    {
      "midi": 28,
      "hit": false,
      "t": 9789.474500000008,
      "d": 302.6316041666669,
      "v": 78
    },
    {
      "midi": 28,
      "hit": false,
      "t": 10098.685052083341,
      "d": 309.2105520833338,
      "v": 41
    },
    {
      "midi": 59,
      "hit": false,
      "t": 10105.264000000008,
      "d": 934.2106041666684,
      "v": 73
    },
    {
      "midi": 52,
      "hit": false,
      "t": 10105.264000000008,
      "d": 1157.8948333333356,
      "v": 73
    },
    {
      "midi": 54,
      "hit": false,
      "t": 10105.264000000008,
      "d": 1157.8948333333356,
      "v": 73
    },
    {
      "midi": 56,
      "hit": false,
      "t": 10105.264000000008,
      "d": 1157.8948333333356,
      "v": 81
    },
    {
      "midi": 28,
      "hit": false,
      "t": 10414.474552083342,
      "d": 631.5790000000015,
      "v": 74
    },
    {
      "midi": 66,
      "hit": false,
      "t": 10730.264052083343,
      "d": 625.0000520833346,
      "v": 81
    },
    {
      "midi": 68,
      "hit": false,
      "t": 10730.264052083343,
      "d": 625.0000520833346,
      "v": 77
    },
    {
      "midi": 71,
      "hit": false,
      "t": 10730.264052083343,
      "d": 625.0000520833346,
      "v": 89
    },
    {
      "midi": 59,
      "hit": false,
      "t": 11046.053552083344,
      "d": 309.2105520833338,
      "v": 79
    },
    {
      "midi": 28,
      "hit": false,
      "t": 11052.63250000001,
      "d": 210.52633333333324,
      "v": 78
    },
    {
      "midi": 68,
      "hit": false,
      "t": 11361.843052083344,
      "d": 625.0000520833346,
      "v": 76
    },
    {
      "midi": 71,
      "hit": false,
      "t": 11361.843052083344,
      "d": 625.0000520833346,
      "v": 87
    },
    {
      "midi": 28,
      "hit": false,
      "t": 11361.843052083344,
      "d": 947.3685000000023,
      "v": 82
    },
    {
      "midi": 64,
      "hit": false,
      "t": 11361.843052083344,
      "d": 1171.0527291666695,
      "v": 88
    },
    {
      "midi": 59,
      "hit": false,
      "t": 11677.632552083345,
      "d": 625.0000520833346,
      "v": 84
    },
    {
      "midi": 63,
      "hit": false,
      "t": 11993.422052083346,
      "d": 625.0000520833346,
      "v": 94
    },
    {
      "midi": 68,
      "hit": false,
      "t": 11993.422052083346,
      "d": 625.0000520833346,
      "v": 84
    },
    {
      "midi": 71,
      "hit": false,
      "t": 11993.422052083346,
      "d": 625.0000520833346,
      "v": 94
    },
    {
      "midi": 59,
      "hit": false,
      "t": 12309.211552083347,
      "d": 223.68422916666714,
      "v": 82
    },
    {
      "midi": 28,
      "hit": false,
      "t": 12315.790500000014,
      "d": 217.1052812500002,
      "v": 78
    },
    {
      "midi": 54,
      "hit": false,
      "t": 12631.580000000014,
      "d": 625.0000520833328,
      "v": 79
    },
    {
      "midi": 57,
      "hit": false,
      "t": 12631.580000000014,
      "d": 625.0000520833328,
      "v": 79
    },
    {
      "midi": 62,
      "hit": false,
      "t": 12631.580000000014,
      "d": 625.0000520833328,
      "v": 79
    },
    {
      "midi": 28,
      "hit": false,
      "t": 12631.580000000014,
      "d": 934.2106041666666,
      "v": 79
    },
    {
      "midi": 66,
      "hit": false,
      "t": 12631.580000000014,
      "d": 1256.5790520833343,
      "v": 53
    },
    {
      "midi": 54,
      "hit": false,
      "t": 13263.159000000014,
      "d": 625.0000520833346,
      "v": 73
    },
    {
      "midi": 57,
      "hit": false,
      "t": 13263.159000000014,
      "d": 625.0000520833346,
      "v": 83
    },
    {
      "midi": 62,
      "hit": false,
      "t": 13263.159000000014,
      "d": 625.0000520833346,
      "v": 82
    },
    {
      "midi": 28,
      "hit": false,
      "t": 13572.369552083348,
      "d": 315.78950000000077,
      "v": 74
    },
    {
      "midi": 57,
      "hit": false,
      "t": 13894.738000000016,
      "d": 618.4211041666676,
      "v": 77
    },
    {
      "midi": 62,
      "hit": false,
      "t": 13894.738000000016,
      "d": 618.4211041666676,
      "v": 75
    },
    {
      "midi": 66,
      "hit": false,
      "t": 13894.738000000016,
      "d": 618.4211041666676,
      "v": 53
    },
    {
      "midi": 28,
      "hit": false,
      "t": 13894.738000000016,
      "d": 934.2106041666684,
      "v": 71
    },
    {
      "midi": 54,
      "hit": false,
      "t": 13894.738000000016,
      "d": 1190.7895729166685,
      "v": 63
    },
    {
      "midi": 57,
      "hit": false,
      "t": 14519.73805208335,
      "d": 565.7895208333339,
      "v": 91
    },
    {
      "midi": 62,
      "hit": false,
      "t": 14519.73805208335,
      "d": 565.7895208333339,
      "v": 90
    },
    {
      "midi": 66,
      "hit": false,
      "t": 14519.73805208335,
      "d": 565.7895208333339,
      "v": 84
    },
    {
      "midi": 28,
      "hit": false,
      "t": 14835.527552083351,
      "d": 250.0000208333331,
      "v": 74
    },
    {
      "midi": 54,
      "hit": false,
      "t": 15151.31705208335,
      "d": 625.0000520833328,
      "v": 66
    },
    {
      "midi": 57,
      "hit": false,
      "t": 15151.31705208335,
      "d": 625.0000520833328,
      "v": 70
    },
    {
      "midi": 62,
      "hit": false,
      "t": 15151.31705208335,
      "d": 625.0000520833328,
      "v": 62
    },
    {
      "midi": 28,
      "hit": false,
      "t": 15151.31705208335,
      "d": 940.7895520833335,
      "v": 55
    },
    {
      "midi": 54,
      "hit": false,
      "t": 15782.89605208335,
      "d": 625.0000520833346,
      "v": 81
    },
    {
      "midi": 57,
      "hit": false,
      "t": 15782.89605208335,
      "d": 625.0000520833346,
      "v": 90
    },
    {
      "midi": 62,
      "hit": false,
      "t": 15782.89605208335,
      "d": 625.0000520833346,
      "v": 90
    },
    {
      "midi": 28,
      "hit": false,
      "t": 16098.68555208335,
      "d": 309.2105520833338,
      "v": 73
    },
    {
      "midi": 54,
      "hit": false,
      "t": 16414.47505208335,
      "d": 625.0000520833346,
      "v": 65
    },
    {
      "midi": 57,
      "hit": false,
      "t": 16414.47505208335,
      "d": 625.0000520833346,
      "v": 75
    },
    {
      "midi": 62,
      "hit": false,
      "t": 16414.47505208335,
      "d": 625.0000520833346,
      "v": 75
    },
    {
      "midi": 28,
      "hit": false,
      "t": 16414.47505208335,
      "d": 940.7895520833335,
      "v": 76
    },
    {
      "midi": 54,
      "hit": false,
      "t": 17046.054052083353,
      "d": 585.5263645833329,
      "v": 82
    },
    {
      "midi": 57,
      "hit": false,
      "t": 17046.054052083353,
      "d": 585.5263645833329,
      "v": 91
    },
    {
      "midi": 62,
      "hit": false,
      "t": 17046.054052083353,
      "d": 585.5263645833329,
      "v": 89
    },
    {
      "midi": 28,
      "hit": false,
      "t": 17361.843552083352,
      "d": 269.73686458333395,
      "v": 80
    },
    {
      "midi": 57,
      "hit": false,
      "t": 17677.63305208335,
      "d": 625.000052083331,
      "v": 71
    },
    {
      "midi": 61,
      "hit": false,
      "t": 17677.63305208335,
      "d": 625.000052083331,
      "v": 64
    },
    {
      "midi": 64,
      "hit": false,
      "t": 17677.63305208335,
      "d": 625.000052083331,
      "v": 70
    },
    {
      "midi": 28,
      "hit": false,
      "t": 17677.63305208335,
      "d": 940.7895520833299,
      "v": 71
    },
    {
      "midi": 56,
      "hit": false,
      "t": 17993.42255208335,
      "d": 625.000052083331,
      "v": 62
    },
    {
      "midi": 57,
      "hit": false,
      "t": 18309.21205208335,
      "d": 625.000052083331,
      "v": 89
    },
    {
      "midi": 61,
      "hit": false,
      "t": 18309.21205208335,
      "d": 625.000052083331,
      "v": 83
    },
    {
      "midi": 64,
      "hit": false,
      "t": 18309.21205208335,
      "d": 625.000052083331,
      "v": 86
    },
    {
      "midi": 28,
      "hit": false,
      "t": 18625.001552083348,
      "d": 309.210552083332,
      "v": 78
    },
    {
      "midi": 56,
      "hit": false,
      "t": 18625.001552083348,
      "d": 625.000052083331,
      "v": 66
    },
    {
      "midi": 57,
      "hit": false,
      "t": 18940.791052083347,
      "d": 625.000052083331,
      "v": 84
    },
    {
      "midi": 61,
      "hit": false,
      "t": 18940.791052083347,
      "d": 625.000052083331,
      "v": 75
    },
    {
      "midi": 64,
      "hit": false,
      "t": 18940.791052083347,
      "d": 625.000052083331,
      "v": 80
    },
    {
      "midi": 28,
      "hit": false,
      "t": 18940.791052083347,
      "d": 1144.736937499998,
      "v": 80
    },
    {
      "midi": 56,
      "hit": false,
      "t": 19256.580552083346,
      "d": 625.000052083331,
      "v": 61
    },
    {
      "midi": 57,
      "hit": false,
      "t": 19572.370052083344,
      "d": 513.1579375000001,
      "v": 93
    },
    {
      "midi": 61,
      "hit": false,
      "t": 19572.370052083344,
      "d": 513.1579375000001,
      "v": 84
    },
    {
      "midi": 64,
      "hit": false,
      "t": 19572.370052083344,
      "d": 513.1579375000001,
      "v": 93
    },
    {
      "midi": 56,
      "hit": false,
      "t": 19888.159552083343,
      "d": 197.36843750000116,
      "v": 67
    },
    {
      "midi": 57,
      "hit": false,
      "t": 20203.949052083346,
      "d": 625.000052083331,
      "v": 78
    },
    {
      "midi": 61,
      "hit": false,
      "t": 20203.949052083346,
      "d": 625.000052083331,
      "v": 67
    },
    {
      "midi": 64,
      "hit": false,
      "t": 20203.949052083346,
      "d": 625.000052083331,
      "v": 75
    },
    {
      "midi": 28,
      "hit": false,
      "t": 20203.949052083346,
      "d": 940.7895520833299,
      "v": 76
    },
    {
      "midi": 56,
      "hit": false,
      "t": 20519.738552083345,
      "d": 625.000052083331,
      "v": 70
    },
    {
      "midi": 57,
      "hit": false,
      "t": 20835.528052083344,
      "d": 625.000052083331,
      "v": 90
    },
    {
      "midi": 61,
      "hit": false,
      "t": 20835.528052083344,
      "d": 625.000052083331,
      "v": 78
    },
    {
      "midi": 64,
      "hit": false,
      "t": 20835.528052083344,
      "d": 625.000052083331,
      "v": 83
    },
    {
      "midi": 28,
      "hit": false,
      "t": 21151.317552083343,
      "d": 309.210552083332,
      "v": 88
    },
    {
      "midi": 56,
      "hit": false,
      "t": 21151.317552083343,
      "d": 625.000052083331,
      "v": 60
    },
    {
      "midi": 57,
      "hit": false,
      "t": 21467.107052083342,
      "d": 625.000052083331,
      "v": 86
    },
    {
      "midi": 61,
      "hit": false,
      "t": 21467.107052083342,
      "d": 625.000052083331,
      "v": 83
    },
    {
      "midi": 64,
      "hit": false,
      "t": 21467.107052083342,
      "d": 625.000052083331,
      "v": 87
    },
    {
      "midi": 28,
      "hit": false,
      "t": 21467.107052083342,
      "d": 1250.000104166662,
      "v": 93
    },
    {
      "midi": 56,
      "hit": false,
      "t": 21782.89655208334,
      "d": 625.000052083331,
      "v": 64
    },
    {
      "midi": 57,
      "hit": false,
      "t": 22098.68605208334,
      "d": 618.421104166664,
      "v": 90
    },
    {
      "midi": 61,
      "hit": false,
      "t": 22098.68605208334,
      "d": 618.421104166664,
      "v": 92
    },
    {
      "midi": 64,
      "hit": false,
      "t": 22098.68605208334,
      "d": 618.421104166664,
      "v": 94
    },
    {
      "midi": 56,
      "hit": false,
      "t": 22414.47555208334,
      "d": 302.63160416666506,
      "v": 64
    },
    {
      "midi": 55,
      "hit": false,
      "t": 22736.844000000005,
      "d": 631.5790000000015,
      "v": 76
    },
    {
      "midi": 60,
      "hit": false,
      "t": 22736.844000000005,
      "d": 631.5790000000015,
      "v": 75
    },
    {
      "midi": 64,
      "hit": false,
      "t": 22736.844000000005,
      "d": 631.5790000000015,
      "v": 76
    },
    {
      "midi": 33,
      "hit": false,
      "t": 22736.844000000005,
      "d": 934.2106041666702,
      "v": 75
    },
    {
      "midi": 55,
      "hit": false,
      "t": 23375.001947916673,
      "d": 618.4211041666676,
      "v": 97
    },
    {
      "midi": 60,
      "hit": false,
      "t": 23375.001947916673,
      "d": 618.4211041666676,
      "v": 96
    },
    {
      "midi": 64,
      "hit": false,
      "t": 23375.001947916673,
      "d": 618.4211041666676,
      "v": 90
    },
    {
      "midi": 33,
      "hit": false,
      "t": 23677.63355208334,
      "d": 309.210552083332,
      "v": 85
    },
    {
      "midi": 33,
      "hit": false,
      "t": 23993.42305208334,
      "d": 940.7895520833335,
      "v": 80
    },
    {
      "midi": 55,
      "hit": false,
      "t": 24000.002000000008,
      "d": 618.4211041666676,
      "v": 80
    },
    {
      "midi": 60,
      "hit": false,
      "t": 24000.002000000008,
      "d": 618.4211041666676,
      "v": 80
    },
    {
      "midi": 64,
      "hit": false,
      "t": 24000.002000000008,
      "d": 618.4211041666676,
      "v": 80
    },
    {
      "midi": 55,
      "hit": false,
      "t": 24625.002052083342,
      "d": 631.5789999999979,
      "v": 101
    },
    {
      "midi": 60,
      "hit": false,
      "t": 24625.002052083342,
      "d": 631.5789999999979,
      "v": 97
    },
    {
      "midi": 64,
      "hit": false,
      "t": 24625.002052083342,
      "d": 631.5789999999979,
      "v": 97
    },
    {
      "midi": 33,
      "hit": false,
      "t": 24940.79155208334,
      "d": 315.78949999999895,
      "v": 78
    },
    {
      "midi": 55,
      "hit": false,
      "t": 25269.738947916674,
      "d": 611.8421562500007,
      "v": 90
    },
    {
      "midi": 60,
      "hit": false,
      "t": 25269.738947916674,
      "d": 611.8421562500007,
      "v": 90
    },
    {
      "midi": 64,
      "hit": false,
      "t": 25269.738947916674,
      "d": 611.8421562500007,
      "v": 86
    },
    {
      "midi": 33,
      "hit": false,
      "t": 25269.738947916674,
      "d": 927.6316562499997,
      "v": 82
    },
    {
      "midi": 55,
      "hit": false,
      "t": 25888.16005208334,
      "d": 559.2105729166651,
      "v": 97
    },
    {
      "midi": 60,
      "hit": false,
      "t": 25888.16005208334,
      "d": 559.2105729166651,
      "v": 98
    },
    {
      "midi": 64,
      "hit": false,
      "t": 25888.16005208334,
      "d": 559.2105729166651,
      "v": 93
    },
    {
      "midi": 33,
      "hit": false,
      "t": 26203.94955208334,
      "d": 243.42107291666616,
      "v": 75
    },
    {
      "midi": 55,
      "hit": false,
      "t": 26519.73905208334,
      "d": 625.0000520833346,
      "v": 90
    },
    {
      "midi": 60,
      "hit": false,
      "t": 26519.73905208334,
      "d": 625.0000520833346,
      "v": 89
    },
    {
      "midi": 64,
      "hit": false,
      "t": 26519.73905208334,
      "d": 625.0000520833346,
      "v": 83
    },
    {
      "midi": 26,
      "hit": false,
      "t": 26519.73905208334,
      "d": 940.7895520833335,
      "v": 96
    },
    {
      "midi": 38,
      "hit": false,
      "t": 26519.73905208334,
      "d": 1236.8422083333353,
      "v": 75
    },
    {
      "midi": 55,
      "hit": false,
      "t": 27151.31805208334,
      "d": 605.2632083333338,
      "v": 101
    },
    {
      "midi": 60,
      "hit": false,
      "t": 27151.31805208334,
      "d": 605.2632083333338,
      "v": 100
    },
    {
      "midi": 64,
      "hit": false,
      "t": 27151.31805208334,
      "d": 605.2632083333338,
      "v": 95
    },
    {
      "midi": 26,
      "hit": false,
      "t": 27467.10755208334,
      "d": 289.4737083333348,
      "v": 73
    },
    {
      "midi": 56,
      "hit": false,
      "t": 27782.897052083343,
      "d": 625.0000520833346,
      "v": 77
    },
    {
      "midi": 59,
      "hit": false,
      "t": 27782.897052083343,
      "d": 625.0000520833346,
      "v": 87
    },
    {
      "midi": 63,
      "hit": false,
      "t": 27782.897052083343,
      "d": 625.0000520833346,
      "v": 75
    },
    {
      "midi": 54,
      "hit": false,
      "t": 27782.897052083343,
      "d": 940.7895520833335,
      "v": 68
    },
    {
      "midi": 28,
      "hit": false,
      "t": 27782.897052083343,
      "d": 953.9474479166674,
      "v": 72
    },
    {
      "midi": 56,
      "hit": false,
      "t": 28414.476052083344,
      "d": 625.0000520833346,
      "v": 94
    },
    {
      "midi": 59,
      "hit": false,
      "t": 28414.476052083344,
      "d": 625.0000520833346,
      "v": 101
    },
    {
      "midi": 63,
      "hit": false,
      "t": 28414.476052083344,
      "d": 625.0000520833346,
      "v": 95
    },
    {
      "midi": 54,
      "hit": false,
      "t": 28730.265552083343,
      "d": 625.0000520833346,
      "v": 78
    },
    {
      "midi": 28,
      "hit": false,
      "t": 28743.423447916677,
      "d": 296.05265625000175,
      "v": 108
    },
    {
      "midi": 56,
      "hit": false,
      "t": 29046.055052083346,
      "d": 625.000052083331,
      "v": 78
    },
    {
      "midi": 59,
      "hit": false,
      "t": 29046.055052083346,
      "d": 625.000052083331,
      "v": 83
    },
    {
      "midi": 63,
      "hit": false,
      "t": 29046.055052083346,
      "d": 625.000052083331,
      "v": 85
    },
    {
      "midi": 28,
      "hit": false,
      "t": 29046.055052083346,
      "d": 947.3684999999969,
      "v": 93
    },
    {
      "midi": 54,
      "hit": false,
      "t": 29361.844552083345,
      "d": 625.000052083331,
      "v": 77
    },
    {
      "midi": 56,
      "hit": false,
      "t": 29677.634052083344,
      "d": 611.8421562500007,
      "v": 99
    },
    {
      "midi": 59,
      "hit": false,
      "t": 29677.634052083344,
      "d": 611.8421562500007,
      "v": 105
    },
    {
      "midi": 63,
      "hit": false,
      "t": 29677.634052083344,
      "d": 611.8421562500007,
      "v": 94
    },
    {
      "midi": 54,
      "hit": false,
      "t": 29993.423552083343,
      "d": 296.05265625000175,
      "v": 76
    },
    {
      "midi": 28,
      "hit": false,
      "t": 30000.00250000001,
      "d": 289.4737083333348,
      "v": 108
    },
    {
      "midi": 54,
      "hit": false,
      "t": 30309.213052083345,
      "d": 309.210552083332,
      "v": 82
    },
    {
      "midi": 58,
      "hit": false,
      "t": 30309.213052083345,
      "d": 625.000052083331,
      "v": 91
    },
    {
      "midi": 61,
      "hit": false,
      "t": 30309.213052083345,
      "d": 625.000052083331,
      "v": 83
    },
    {
      "midi": 28,
      "hit": false,
      "t": 30309.213052083345,
      "d": 947.3684999999969,
      "v": 89
    },
    {
      "midi": 54,
      "hit": false,
      "t": 30625.002552083344,
      "d": 625.000052083331,
      "v": 55
    },
    {
      "midi": 58,
      "hit": false,
      "t": 30940.792052083343,
      "d": 625.000052083331,
      "v": 103
    },
    {
      "midi": 61,
      "hit": false,
      "t": 30940.792052083343,
      "d": 625.000052083331,
      "v": 95
    },
    {
      "midi": 54,
      "hit": false,
      "t": 31256.581552083342,
      "d": 625.000052083331,
      "v": 89
    },
    {
      "midi": 28,
      "hit": false,
      "t": 31263.16050000001,
      "d": 302.63160416666506,
      "v": 108
    },
    {
      "midi": 58,
      "hit": false,
      "t": 31572.37105208334,
      "d": 625.000052083331,
      "v": 99
    },
    {
      "midi": 61,
      "hit": false,
      "t": 31572.37105208334,
      "d": 625.000052083331,
      "v": 92
    },
    {
      "midi": 28,
      "hit": false,
      "t": 31572.37105208334,
      "d": 1217.1053645833308,
      "v": 82
    },
    {
      "midi": 54,
      "hit": false,
      "t": 31888.16055208334,
      "d": 625.000052083331,
      "v": 84
    },
    {
      "midi": 58,
      "hit": false,
      "t": 32203.95005208334,
      "d": 585.5263645833329,
      "v": 101
    },
    {
      "midi": 61,
      "hit": false,
      "t": 32203.95005208334,
      "d": 585.5263645833329,
      "v": 101
    },
    {
      "midi": 54,
      "hit": false,
      "t": 32519.739552083338,
      "d": 269.73686458333395,
      "v": 74
    },
    {
      "midi": 57,
      "hit": false,
      "t": 32835.52905208334,
      "d": 625.0000520833346,
      "v": 85
    },
    {
      "midi": 59,
      "hit": false,
      "t": 32835.52905208334,
      "d": 625.0000520833346,
      "v": 82
    },
    {
      "midi": 61,
      "hit": false,
      "t": 32835.52905208334,
      "d": 625.0000520833346,
      "v": 70
    },
    {
      "midi": 64,
      "hit": false,
      "t": 32835.52905208334,
      "d": 625.0000520833346,
      "v": 78
    },
    {
      "midi": 33,
      "hit": false,
      "t": 32835.52905208334,
      "d": 940.7895520833335,
      "v": 83
    },
    {
      "midi": 57,
      "hit": false,
      "t": 33467.108052083335,
      "d": 565.7895208333357,
      "v": 95
    },
    {
      "midi": 59,
      "hit": false,
      "t": 33467.108052083335,
      "d": 565.7895208333357,
      "v": 97
    },
    {
      "midi": 61,
      "hit": false,
      "t": 33467.108052083335,
      "d": 565.7895208333357,
      "v": 88
    },
    {
      "midi": 64,
      "hit": false,
      "t": 33467.108052083335,
      "d": 565.7895208333357,
      "v": 96
    },
    {
      "midi": 33,
      "hit": false,
      "t": 33782.897552083334,
      "d": 250.00002083333675,
      "v": 80
    },
    {
      "midi": 56,
      "hit": false,
      "t": 34098.68705208334,
      "d": 625.0000520833346,
      "v": 87
    },
    {
      "midi": 59,
      "hit": false,
      "t": 34098.68705208334,
      "d": 625.0000520833346,
      "v": 95
    },
    {
      "midi": 64,
      "hit": false,
      "t": 34098.68705208334,
      "d": 625.0000520833346,
      "v": 87
    },
    {
      "midi": 32,
      "hit": false,
      "t": 34098.68705208334,
      "d": 940.7895520833335,
      "v": 75
    },
    {
      "midi": 56,
      "hit": false,
      "t": 34730.26605208334,
      "d": 519.7368854166634,
      "v": 99
    },
    {
      "midi": 59,
      "hit": false,
      "t": 34730.26605208334,
      "d": 519.7368854166634,
      "v": 107
    },
    {
      "midi": 64,
      "hit": false,
      "t": 34730.26605208334,
      "d": 519.7368854166634,
      "v": 98
    },
    {
      "midi": 32,
      "hit": false,
      "t": 35046.05555208334,
      "d": 203.94738541666447,
      "v": 83
    },
    {
      "midi": 54,
      "hit": false,
      "t": 35361.845052083336,
      "d": 625.0000520833346,
      "v": 66
    },
    {
      "midi": 57,
      "hit": false,
      "t": 35361.845052083336,
      "d": 625.0000520833346,
      "v": 84
    },
    {
      "midi": 61,
      "hit": false,
      "t": 35361.845052083336,
      "d": 625.0000520833346,
      "v": 64
    },
    {
      "midi": 64,
      "hit": false,
      "t": 35361.845052083336,
      "d": 625.0000520833346,
      "v": 83
    },
    {
      "midi": 30,
      "hit": false,
      "t": 35361.845052083336,
      "d": 940.7895520833335,
      "v": 73
    },
    {
      "midi": 54,
      "hit": false,
      "t": 35993.424052083334,
      "d": 506.57898958332953,
      "v": 97
    },
    {
      "midi": 57,
      "hit": false,
      "t": 35993.424052083334,
      "d": 506.57898958332953,
      "v": 104
    },
    {
      "midi": 61,
      "hit": false,
      "t": 35993.424052083334,
      "d": 506.57898958332953,
      "v": 83
    },
    {
      "midi": 64,
      "hit": false,
      "t": 35993.424052083334,
      "d": 506.57898958332953,
      "v": 104
    },
    {
      "midi": 30,
      "hit": false,
      "t": 36309.21355208333,
      "d": 190.78948958333058,
      "v": 88
    },
    {
      "midi": 35,
      "hit": false,
      "t": 36625.00305208333,
      "d": 519.7368854166634,
      "v": 90
    },
    {
      "midi": 57,
      "hit": false,
      "t": 36625.00305208333,
      "d": 519.7368854166634,
      "v": 93
    },
    {
      "midi": 61,
      "hit": false,
      "t": 36625.00305208333,
      "d": 519.7368854166634,
      "v": 99
    },
    {
      "midi": 64,
      "hit": false,
      "t": 36625.00305208333,
      "d": 519.7368854166634,
      "v": 101
    },
    {
      "midi": 59,
      "hit": false,
      "t": 37256.58205208333,
      "d": 585.5263645833329,
      "v": 98
    },
    {
      "midi": 63,
      "hit": false,
      "t": 37256.58205208333,
      "d": 585.5263645833329,
      "v": 107
    },
    {
      "midi": 66,
      "hit": false,
      "t": 37256.58205208333,
      "d": 598.6842604166668,
      "v": 105
    },
    {
      "midi": 23,
      "hit": false,
      "t": 37263.16099999999,
      "d": 625.0000520833346,
      "v": 81
    },
    {
      "midi": 59,
      "hit": false,
      "t": 37894.73999999999,
      "d": 631.5789999999979,
      "v": 90
    },
    {
      "midi": 64,
      "hit": false,
      "t": 37894.73999999999,
      "d": 631.5789999999979,
      "v": 89
    },
    {
      "midi": 66,
      "hit": false,
      "t": 37894.73999999999,
      "d": 631.5789999999979,
      "v": 89
    },
    {
      "midi": 68,
      "hit": false,
      "t": 37894.73999999999,
      "d": 631.5789999999979,
      "v": 81
    },
    {
      "midi": 59,
      "hit": false,
      "t": 38532.89794791665,
      "d": 296.05265625000175,
      "v": 80
    },
    {
      "midi": 64,
      "hit": false,
      "t": 38532.89794791665,
      "d": 625.0000520833346,
      "v": 93
    },
    {
      "midi": 68,
      "hit": false,
      "t": 38532.89794791665,
      "d": 625.0000520833346,
      "v": 94
    },
    {
      "midi": 66,
      "hit": false,
      "t": 38532.89794791665,
      "d": 1875.0001562499965,
      "v": 92
    },
    {
      "midi": 59,
      "hit": false,
      "t": 38835.52955208332,
      "d": 322.36844791666954,
      "v": 77
    },
    {
      "midi": 64,
      "hit": false,
      "t": 39164.47694791665,
      "d": 611.8421562500007,
      "v": 80
    },
    {
      "midi": 68,
      "hit": false,
      "t": 39164.47694791665,
      "d": 611.8421562500007,
      "v": 81
    },
    {
      "midi": 59,
      "hit": false,
      "t": 39164.47694791665,
      "d": 927.6316562499997,
      "v": 78
    },
    {
      "midi": 64,
      "hit": false,
      "t": 39782.898052083314,
      "d": 638.1579479166612,
      "v": 104
    },
    {
      "midi": 68,
      "hit": false,
      "t": 39782.898052083314,
      "d": 657.8947916666584,
      "v": 109
    },
    {
      "midi": 59,
      "hit": false,
      "t": 40098.68755208331,
      "d": 342.10529166665947,
      "v": 84
    },
    {
      "midi": 61,
      "hit": false,
      "t": 40414.47705208331,
      "d": 625.0000520833273,
      "v": 70
    },
    {
      "midi": 66,
      "hit": false,
      "t": 40414.47705208331,
      "d": 625.0000520833273,
      "v": 74
    },
    {
      "midi": 57,
      "hit": false,
      "t": 40427.63494791664,
      "d": 611.8421562500007,
      "v": 80
    },
    {
      "midi": 64,
      "hit": false,
      "t": 40427.63494791664,
      "d": 611.8421562500007,
      "v": 87
    },
    {
      "midi": 61,
      "hit": false,
      "t": 41046.0560520833,
      "d": 625.0000520833346,
      "v": 101
    },
    {
      "midi": 64,
      "hit": false,
      "t": 41046.0560520833,
      "d": 625.0000520833346,
      "v": 107
    },
    {
      "midi": 66,
      "hit": false,
      "t": 41046.0560520833,
      "d": 625.0000520833346,
      "v": 99
    },
    {
      "midi": 57,
      "hit": false,
      "t": 41046.0560520833,
      "d": 940.7895520833335,
      "v": 102
    },
    {
      "midi": 61,
      "hit": false,
      "t": 41677.6350520833,
      "d": 625.0000520833346,
      "v": 89
    },
    {
      "midi": 64,
      "hit": false,
      "t": 41677.6350520833,
      "d": 625.0000520833346,
      "v": 100
    },
    {
      "midi": 66,
      "hit": false,
      "t": 41677.6350520833,
      "d": 625.0000520833346,
      "v": 89
    },
    {
      "midi": 57,
      "hit": false,
      "t": 41993.4245520833,
      "d": 625.0000520833346,
      "v": 71
    },
    {
      "midi": 61,
      "hit": false,
      "t": 42309.2140520833,
      "d": 605.2632083333301,
      "v": 92
    },
    {
      "midi": 64,
      "hit": false,
      "t": 42309.2140520833,
      "d": 605.2632083333301,
      "v": 102
    },
    {
      "midi": 66,
      "hit": false,
      "t": 42309.2140520833,
      "d": 605.2632083333301,
      "v": 92
    },
    {
      "midi": 57,
      "hit": false,
      "t": 42625.0035520833,
      "d": 289.47370833333116,
      "v": 76
    },
    {
      "midi": 63,
      "hit": false,
      "t": 42940.793052083296,
      "d": 625.0000520833346,
      "v": 97
    },
    {
      "midi": 66,
      "hit": false,
      "t": 42940.793052083296,
      "d": 625.0000520833346,
      "v": 99
    },
    {
      "midi": 68,
      "hit": false,
      "t": 42940.793052083296,
      "d": 625.0000520833346,
      "v": 99
    },
    {
      "midi": 59,
      "hit": false,
      "t": 42940.793052083296,
      "d": 1572.3685520833315,
      "v": 91
    },
    {
      "midi": 63,
      "hit": false,
      "t": 43572.372052083294,
      "d": 625.0000520833346,
      "v": 95
    },
    {
      "midi": 66,
      "hit": false,
      "t": 43572.372052083294,
      "d": 625.0000520833346,
      "v": 97
    },
    {
      "midi": 68,
      "hit": false,
      "t": 43572.372052083294,
      "d": 625.0000520833346,
      "v": 95
    },
    {
      "midi": 63,
      "hit": false,
      "t": 44203.95105208329,
      "d": 631.5789999999979,
      "v": 94
    },
    {
      "midi": 66,
      "hit": false,
      "t": 44203.95105208329,
      "d": 631.5789999999979,
      "v": 95
    },
    {
      "midi": 68,
      "hit": false,
      "t": 44203.95105208329,
      "d": 638.1579479166612,
      "v": 95
    },
    {
      "midi": 59,
      "hit": false,
      "t": 44519.74055208329,
      "d": 934.2106041666557,
      "v": 66
    },
    {
      "midi": 63,
      "hit": false,
      "t": 44842.10899999995,
      "d": 611.8421562499934,
      "v": 94
    },
    {
      "midi": 66,
      "hit": false,
      "t": 44842.10899999995,
      "d": 611.8421562499934,
      "v": 97
    },
    {
      "midi": 68,
      "hit": false,
      "t": 44848.68794791662,
      "d": 605.2632083333301,
      "v": 99
    },
    {
      "midi": 61,
      "hit": false,
      "t": 45467.10905208328,
      "d": 625.0000520833346,
      "v": 84
    },
    {
      "midi": 64,
      "hit": false,
      "t": 45467.10905208328,
      "d": 625.0000520833346,
      "v": 89
    },
    {
      "midi": 66,
      "hit": false,
      "t": 45467.10905208328,
      "d": 625.0000520833346,
      "v": 84
    },
    {
      "midi": 57,
      "hit": false,
      "t": 45467.10905208328,
      "d": 1578.9474999999875,
      "v": 89
    },
    {
      "midi": 61,
      "hit": false,
      "t": 46098.68805208328,
      "d": 631.5789999999979,
      "v": 99
    },
    {
      "midi": 64,
      "hit": false,
      "t": 46098.68805208328,
      "d": 638.1579479166612,
      "v": 105
    },
    {
      "midi": 66,
      "hit": false,
      "t": 46098.68805208328,
      "d": 638.1579479166612,
      "v": 101
    },
    {
      "midi": 61,
      "hit": false,
      "t": 46736.84599999994,
      "d": 631.5789999999906,
      "v": 63
    },
    {
      "midi": 64,
      "hit": false,
      "t": 46743.4249479166,
      "d": 625.0000520833273,
      "v": 56
    },
    {
      "midi": 66,
      "hit": false,
      "t": 46743.4249479166,
      "d": 625.0000520833273,
      "v": 53
    },
    {
      "midi": 57,
      "hit": false,
      "t": 47052.63549999993,
      "d": 618.421104166664,
      "v": 78
    },
    {
      "midi": 61,
      "hit": false,
      "t": 47375.00394791659,
      "d": 500.0000416666662,
      "v": 107
    },
    {
      "midi": 64,
      "hit": false,
      "t": 47375.00394791659,
      "d": 500.0000416666662,
      "v": 110
    },
    {
      "midi": 66,
      "hit": false,
      "t": 47375.00394791659,
      "d": 500.0000416666662,
      "v": 105
    },
    {
      "midi": 57,
      "hit": false,
      "t": 47677.63555208326,
      "d": 197.36843750000116,
      "v": 65
    },
    {
      "midi": 57,
      "hit": false,
      "t": 47993.42505208326,
      "d": 861.8421770833302,
      "v": 98
    },
    {
      "midi": 61,
      "hit": false,
      "t": 47993.42505208326,
      "d": 861.8421770833302,
      "v": 99
    },
    {
      "midi": 64,
      "hit": false,
      "t": 47993.42505208326,
      "d": 861.8421770833302,
      "v": 104
    },
    {
      "midi": 66,
      "hit": false,
      "t": 47993.42505208326,
      "d": 861.8421770833302,
      "v": 92
    },
    {
      "midi": 66,
      "hit": false,
      "t": 48940.793552083254,
      "d": 625.0000520833346,
      "v": 103
    },
    {
      "midi": 59,
      "hit": false,
      "t": 48940.793552083254,
      "d": 730.2632187499985,
      "v": 102
    },
    {
      "midi": 63,
      "hit": false,
      "t": 48940.793552083254,
      "d": 730.2632187499985,
      "v": 105
    },
    {
      "midi": 68,
      "hit": false,
      "t": 48940.793552083254,
      "d": 730.2632187499985,
      "v": 103
    },
    {
      "midi": 57,
      "hit": false,
      "t": 49572.37255208325,
      "d": 98.68421875000058,
      "v": 94
    },
    {
      "midi": 61,
      "hit": false,
      "t": 49572.37255208325,
      "d": 98.68421875000058,
      "v": 94
    },
    {
      "midi": 64,
      "hit": false,
      "t": 49572.37255208325,
      "d": 98.68421875000058,
      "v": 89
    },
    {
      "midi": 66,
      "hit": false,
      "t": 49572.37255208325,
      "d": 98.68421875000058,
      "v": 89
    },
    {
      "midi": 63,
      "hit": false,
      "t": 49888.16205208325,
      "d": 394.7368750000023,
      "v": 103
    },
    {
      "midi": 68,
      "hit": false,
      "t": 49888.16205208325,
      "d": 394.7368750000023,
      "v": 99
    },
    {
      "midi": 66,
      "hit": false,
      "t": 49888.16205208325,
      "d": 407.8947708333362,
      "v": 99
    },
    {
      "midi": 59,
      "hit": false,
      "t": 49888.16205208325,
      "d": 414.47371874999953,
      "v": 96
    },
    {
      "midi": 57,
      "hit": false,
      "t": 50532.89894791658,
      "d": 848.6842812500036,
      "v": 95
    },
    {
      "midi": 61,
      "hit": false,
      "t": 50532.89894791658,
      "d": 848.6842812500036,
      "v": 95
    },
    {
      "midi": 64,
      "hit": false,
      "t": 50532.89894791658,
      "d": 848.6842812500036,
      "v": 95
    },
    {
      "midi": 66,
      "hit": false,
      "t": 50532.89894791658,
      "d": 848.6842812500036,
      "v": 89
    },
    {
      "midi": 59,
      "hit": false,
      "t": 51467.10955208325,
      "d": 1565.7896041666609,
      "v": 101
    },
    {
      "midi": 63,
      "hit": false,
      "t": 51467.10955208325,
      "d": 1565.7896041666609,
      "v": 103
    },
    {
      "midi": 66,
      "hit": false,
      "t": 51467.10955208325,
      "d": 1565.7896041666609,
      "v": 99
    },
    {
      "midi": 68,
      "hit": false,
      "t": 51467.10955208325,
      "d": 1565.7896041666609,
      "v": 97
    },
    {
      "midi": 56,
      "hit": false,
      "t": 52098.68855208325,
      "d": 934.210604166663,
      "v": 99
    },
    {
      "midi": 52,
      "hit": false,
      "t": 52414.47805208325,
      "d": 618.421104166664,
      "v": 81
    },
    {
      "midi": 47,
      "hit": false,
      "t": 52730.26755208325,
      "d": 302.63160416666506,
      "v": 83
    },
    {
      "midi": 28,
      "hit": false,
      "t": 53059.21494791658,
      "d": 2256.579135416665,
      "v": 75
    },
    {
      "midi": 40,
      "hit": false,
      "t": 53059.21494791658,
      "d": 2256.579135416665,
      "v": 69
    },
    {
      "midi": 54,
      "hit": false,
      "t": 53059.21494791658,
      "d": 2256.579135416665,
      "v": 63
    },
    {
      "midi": 57,
      "hit": false,
      "t": 53059.21494791658,
      "d": 2256.579135416665,
      "v": 78
    },
    {
      "midi": 62,
      "hit": false,
      "t": 53059.21494791658,
      "d": 2256.579135416665,
      "v": 78
    },
    {
      "midi": 74,
      "hit": false,
      "t": 55572.37305208325,
      "d": 1684.2106666666587,
      "v": 68
    },
    {
      "midi": 86,
      "hit": false,
      "t": 55578.95199999991,
      "d": 2453.9475729166516,
      "v": 67
    },
    {
      "midi": 73,
      "hit": false,
      "t": 55993.42571874991,
      "d": 1684.2106666666587,
      "v": 58
    },
    {
      "midi": 85,
      "hit": false,
      "t": 55993.42571874991,
      "d": 2039.473854166652,
      "v": 77
    },
    {
      "midi": 81,
      "hit": false,
      "t": 56427.63628124991,
      "d": 1605.2632916666553,
      "v": 62
    },
    {
      "midi": 69,
      "hit": false,
      "t": 56434.21522916657,
      "d": 1598.684343749992,
      "v": 63
    },
    {
      "midi": 66,
      "hit": false,
      "t": 56842.109999999906,
      "d": 1190.7895729166557,
      "v": 63
    },
    {
      "midi": 78,
      "hit": false,
      "t": 56842.109999999906,
      "d": 1190.7895729166557,
      "v": 71
    },
    {
      "midi": 62,
      "hit": false,
      "t": 57263.16266666657,
      "d": 769.7369062499929,
      "v": 63
    },
    {
      "midi": 74,
      "hit": false,
      "t": 57263.16266666657,
      "d": 769.7369062499929,
      "v": 72
    },
    {
      "midi": 61,
      "hit": false,
      "t": 57684.21533333323,
      "d": 348.68423958333005,
      "v": 53
    },
    {
      "midi": 73,
      "hit": false,
      "t": 57684.21533333323,
      "d": 348.68423958333005,
      "v": 71
    },
    {
      "midi": 66,
      "hit": false,
      "t": 58105.267999999895,
      "d": 631.5789999999979,
      "v": 58
    },
    {
      "midi": 68,
      "hit": false,
      "t": 58105.267999999895,
      "d": 631.5789999999979,
      "v": 48
    },
    {
      "midi": 71,
      "hit": false,
      "t": 58105.267999999895,
      "d": 631.5789999999979,
      "v": 59
    },
    {
      "midi": 52,
      "hit": false,
      "t": 58105.267999999895,
      "d": 4993.421468749977,
      "v": 68
    },
    {
      "midi": 66,
      "hit": false,
      "t": 58743.425947916556,
      "d": 625.0000520833346,
      "v": 72
    },
    {
      "midi": 68,
      "hit": false,
      "t": 58743.425947916556,
      "d": 625.0000520833346,
      "v": 68
    },
    {
      "midi": 71,
      "hit": false,
      "t": 58743.425947916556,
      "d": 625.0000520833346,
      "v": 70
    },
    {
      "midi": 66,
      "hit": false,
      "t": 59375.004947916554,
      "d": 625.0000520833346,
      "v": 57
    },
    {
      "midi": 68,
      "hit": false,
      "t": 59375.004947916554,
      "d": 625.0000520833346,
      "v": 48
    },
    {
      "midi": 71,
      "hit": false,
      "t": 59375.004947916554,
      "d": 625.0000520833346,
      "v": 61
    },
    {
      "midi": 68,
      "hit": false,
      "t": 60006.58394791655,
      "d": 625.0000520833346,
      "v": 61
    },
    {
      "midi": 71,
      "hit": false,
      "t": 60006.58394791655,
      "d": 625.0000520833346,
      "v": 61
    },
    {
      "midi": 66,
      "hit": false,
      "t": 60006.58394791655,
      "d": 750.0000624999957,
      "v": 68
    },
    {
      "midi": 59,
      "hit": false,
      "t": 60322.37344791655,
      "d": 434.21056249999674,
      "v": 65
    },
    {
      "midi": 64,
      "hit": false,
      "t": 60638.16294791655,
      "d": 618.421104166664,
      "v": 71
    },
    {
      "midi": 68,
      "hit": false,
      "t": 60638.16294791655,
      "d": 618.421104166664,
      "v": 65
    },
    {
      "midi": 71,
      "hit": false,
      "t": 60638.16294791655,
      "d": 618.421104166664,
      "v": 68
    },
    {
      "midi": 64,
      "hit": false,
      "t": 61263.16299999988,
      "d": 618.421104166664,
      "v": 78
    },
    {
      "midi": 68,
      "hit": false,
      "t": 61263.16299999988,
      "d": 618.421104166664,
      "v": 69
    },
    {
      "midi": 71,
      "hit": false,
      "t": 61263.16299999988,
      "d": 618.421104166664,
      "v": 75
    },
    {
      "midi": 64,
      "hit": false,
      "t": 61888.163052083204,
      "d": 625.0000520833346,
      "v": 80
    },
    {
      "midi": 68,
      "hit": false,
      "t": 61888.163052083204,
      "d": 625.0000520833346,
      "v": 77
    },
    {
      "midi": 71,
      "hit": false,
      "t": 61888.163052083204,
      "d": 625.0000520833346,
      "v": 78
    },
    {
      "midi": 64,
      "hit": false,
      "t": 62519.7420520832,
      "d": 578.9474166666696,
      "v": 100
    },
    {
      "midi": 68,
      "hit": false,
      "t": 62519.7420520832,
      "d": 578.9474166666696,
      "v": 94
    },
    {
      "midi": 71,
      "hit": false,
      "t": 62519.7420520832,
      "d": 578.9474166666696,
      "v": 97
    },
    {
      "midi": 54,
      "hit": false,
      "t": 63157.89999999987,
      "d": 618.421104166664,
      "v": 48
    },
    {
      "midi": 57,
      "hit": false,
      "t": 63157.89999999987,
      "d": 618.421104166664,
      "v": 63
    },
    {
      "midi": 62,
      "hit": false,
      "t": 63157.89999999987,
      "d": 618.421104166664,
      "v": 57
    },
    {
      "midi": 28,
      "hit": false,
      "t": 63157.89999999987,
      "d": 934.210604166663,
      "v": 68
    },
    {
      "midi": 54,
      "hit": false,
      "t": 63782.9000520832,
      "d": 625.0000520833346,
      "v": 56
    },
    {
      "midi": 57,
      "hit": false,
      "t": 63782.9000520832,
      "d": 625.0000520833346,
      "v": 73
    },
    {
      "midi": 62,
      "hit": false,
      "t": 63782.9000520832,
      "d": 625.0000520833346,
      "v": 79
    },
    {
      "midi": 28,
      "hit": false,
      "t": 64098.6895520832,
      "d": 309.21055208333564,
      "v": 70
    },
    {
      "midi": 54,
      "hit": false,
      "t": 64414.479052083196,
      "d": 625.0000520833346,
      "v": 44
    },
    {
      "midi": 57,
      "hit": false,
      "t": 64414.479052083196,
      "d": 625.0000520833346,
      "v": 55
    },
    {
      "midi": 62,
      "hit": false,
      "t": 64414.479052083196,
      "d": 625.0000520833346,
      "v": 59
    },
    {
      "midi": 28,
      "hit": false,
      "t": 64414.479052083196,
      "d": 940.7895520833335,
      "v": 74
    },
    {
      "midi": 54,
      "hit": false,
      "t": 65046.05805208319,
      "d": 519.7368854166634,
      "v": 59
    },
    {
      "midi": 57,
      "hit": false,
      "t": 65046.05805208319,
      "d": 519.7368854166634,
      "v": 71
    },
    {
      "midi": 62,
      "hit": false,
      "t": 65046.05805208319,
      "d": 519.7368854166634,
      "v": 74
    },
    {
      "midi": 28,
      "hit": false,
      "t": 65361.84755208319,
      "d": 203.94738541666447,
      "v": 69
    },
    {
      "midi": 54,
      "hit": false,
      "t": 65677.63705208318,
      "d": 625.0000520833419,
      "v": 55
    },
    {
      "midi": 57,
      "hit": false,
      "t": 65677.63705208318,
      "d": 625.0000520833419,
      "v": 71
    },
    {
      "midi": 62,
      "hit": false,
      "t": 65677.63705208318,
      "d": 625.0000520833419,
      "v": 66
    },
    {
      "midi": 28,
      "hit": false,
      "t": 65677.63705208318,
      "d": 940.7895520833408,
      "v": 77
    },
    {
      "midi": 35,
      "hit": false,
      "t": 65684.21599999985,
      "d": 98.68421875000058,
      "v": 46
    },
    {
      "midi": 54,
      "hit": false,
      "t": 66309.2160520832,
      "d": 625.0000520833273,
      "v": 60
    },
    {
      "midi": 57,
      "hit": false,
      "t": 66309.2160520832,
      "d": 625.0000520833273,
      "v": 75
    },
    {
      "midi": 62,
      "hit": false,
      "t": 66309.2160520832,
      "d": 625.0000520833273,
      "v": 74
    },
    {
      "midi": 28,
      "hit": false,
      "t": 66625.0055520832,
      "d": 309.21055208332837,
      "v": 75
    },
    {
      "midi": 54,
      "hit": false,
      "t": 66940.7950520832,
      "d": 625.0000520833273,
      "v": 67
    },
    {
      "midi": 57,
      "hit": false,
      "t": 66940.7950520832,
      "d": 625.0000520833273,
      "v": 80
    },
    {
      "midi": 62,
      "hit": false,
      "t": 66940.7950520832,
      "d": 625.0000520833273,
      "v": 77
    },
    {
      "midi": 28,
      "hit": false,
      "t": 66940.7950520832,
      "d": 940.7895520833263,
      "v": 76
    },
    {
      "midi": 54,
      "hit": false,
      "t": 67572.37405208319,
      "d": 565.7895208333357,
      "v": 61
    },
    {
      "midi": 57,
      "hit": false,
      "t": 67572.37405208319,
      "d": 565.7895208333357,
      "v": 76
    },
    {
      "midi": 62,
      "hit": false,
      "t": 67572.37405208319,
      "d": 565.7895208333357,
      "v": 76
    },
    {
      "midi": 28,
      "hit": false,
      "t": 67888.16355208319,
      "d": 250.00002083333675,
      "v": 67
    },
    {
      "midi": 52,
      "hit": false,
      "t": 68203.95305208319,
      "d": 625.0000520833273,
      "v": 63
    },
    {
      "midi": 54,
      "hit": false,
      "t": 68203.95305208319,
      "d": 625.0000520833273,
      "v": 58
    },
    {
      "midi": 56,
      "hit": false,
      "t": 68203.95305208319,
      "d": 625.0000520833273,
      "v": 56
    },
    {
      "midi": 59,
      "hit": false,
      "t": 68203.95305208319,
      "d": 625.0000520833273,
      "v": 58
    },
    {
      "midi": 28,
      "hit": false,
      "t": 68203.95305208319,
      "d": 940.7895520833263,
      "v": 67
    },
    {
      "midi": 40,
      "hit": false,
      "t": 68203.95305208319,
      "d": 3690.789781250016,
      "v": 64
    },
    {
      "midi": 52,
      "hit": false,
      "t": 68835.53205208319,
      "d": 625.0000520833273,
      "v": 71
    },
    {
      "midi": 54,
      "hit": false,
      "t": 68835.53205208319,
      "d": 625.0000520833273,
      "v": 61
    },
    {
      "midi": 59,
      "hit": false,
      "t": 68835.53205208319,
      "d": 625.0000520833273,
      "v": 66
    },
    {
      "midi": 56,
      "hit": false,
      "t": 68835.53205208319,
      "d": 940.7895520833263,
      "v": 68
    },
    {
      "midi": 28,
      "hit": false,
      "t": 69151.32155208319,
      "d": 309.21055208332837,
      "v": 78
    },
    {
      "midi": 52,
      "hit": false,
      "t": 69467.11105208319,
      "d": 625.0000520833273,
      "v": 74
    },
    {
      "midi": 59,
      "hit": false,
      "t": 69467.11105208319,
      "d": 625.0000520833273,
      "v": 59
    },
    {
      "midi": 54,
      "hit": false,
      "t": 69467.11105208319,
      "d": 940.7895520833263,
      "v": 78
    },
    {
      "midi": 28,
      "hit": false,
      "t": 69467.11105208319,
      "d": 947.3684999999969,
      "v": 78
    },
    {
      "midi": 56,
      "hit": false,
      "t": 69782.90055208319,
      "d": 309.21055208332837,
      "v": 64
    },
    {
      "midi": 52,
      "hit": false,
      "t": 70098.69005208318,
      "d": 631.5790000000125,
      "v": 73
    },
    {
      "midi": 56,
      "hit": false,
      "t": 70098.69005208318,
      "d": 631.5790000000125,
      "v": 81
    },
    {
      "midi": 59,
      "hit": false,
      "t": 70098.69005208318,
      "d": 631.5790000000125,
      "v": 76
    },
    {
      "midi": 54,
      "hit": false,
      "t": 70414.47955208318,
      "d": 315.7895000000135,
      "v": 63
    },
    {
      "midi": 28,
      "hit": false,
      "t": 70421.05849999985,
      "d": 302.63160416667233,
      "v": 78
    },
    {
      "midi": 28,
      "hit": false,
      "t": 70730.2690520832,
      "d": 309.2105520833429,
      "v": 41
    },
    {
      "midi": 52,
      "hit": false,
      "t": 70736.84799999987,
      "d": 618.4211041666713,
      "v": 73
    },
    {
      "midi": 54,
      "hit": false,
      "t": 70736.84799999987,
      "d": 618.4211041666713,
      "v": 73
    },
    {
      "midi": 59,
      "hit": false,
      "t": 70736.84799999987,
      "d": 618.4211041666713,
      "v": 73
    },
    {
      "midi": 56,
      "hit": false,
      "t": 70736.84799999987,
      "d": 625.0000520833419,
      "v": 81
    },
    {
      "midi": 28,
      "hit": false,
      "t": 71046.05855208321,
      "d": 631.5789999999979,
      "v": 74
    },
    {
      "midi": 52,
      "hit": false,
      "t": 71361.84805208321,
      "d": 625.0000520833273,
      "v": 81
    },
    {
      "midi": 54,
      "hit": false,
      "t": 71361.84805208321,
      "d": 625.0000520833273,
      "v": 77
    },
    {
      "midi": 59,
      "hit": false,
      "t": 71361.84805208321,
      "d": 625.0000520833273,
      "v": 89
    },
    {
      "midi": 56,
      "hit": false,
      "t": 71368.42699999988,
      "d": 625.0000520833273,
      "v": 89
    },
    {
      "midi": 28,
      "hit": false,
      "t": 71684.21649999988,
      "d": 210.52633333332778,
      "v": 78
    },
    {
      "midi": 54,
      "hit": false,
      "t": 71993.4270520832,
      "d": 625.0000520833273,
      "v": 88
    },
    {
      "midi": 59,
      "hit": false,
      "t": 71993.4270520832,
      "d": 625.0000520833273,
      "v": 76
    },
    {
      "midi": 63,
      "hit": false,
      "t": 71993.4270520832,
      "d": 625.0000520833273,
      "v": 87
    },
    {
      "midi": 28,
      "hit": false,
      "t": 71993.4270520832,
      "d": 947.3684999999969,
      "v": 82
    },
    {
      "midi": 54,
      "hit": false,
      "t": 72625.0060520832,
      "d": 625.0000520833273,
      "v": 94
    },
    {
      "midi": 59,
      "hit": false,
      "t": 72625.0060520832,
      "d": 625.0000520833273,
      "v": 84
    },
    {
      "midi": 63,
      "hit": false,
      "t": 72625.0060520832,
      "d": 625.0000520833273,
      "v": 94
    },
    {
      "midi": 28,
      "hit": false,
      "t": 72947.37449999987,
      "d": 217.10528124999837,
      "v": 78
    },
    {
      "midi": 54,
      "hit": false,
      "t": 73263.16399999986,
      "d": 625.0000520833273,
      "v": 79
    },
    {
      "midi": 57,
      "hit": false,
      "t": 73263.16399999986,
      "d": 625.0000520833273,
      "v": 79
    },
    {
      "midi": 62,
      "hit": false,
      "t": 73263.16399999986,
      "d": 625.0000520833273,
      "v": 79
    },
    {
      "midi": 28,
      "hit": false,
      "t": 73263.16399999986,
      "d": 934.2106041666702,
      "v": 79
    },
    {
      "midi": 66,
      "hit": false,
      "t": 73263.16399999986,
      "d": 1256.5790520833398,
      "v": 53
    },
    {
      "midi": 54,
      "hit": false,
      "t": 73894.74299999986,
      "d": 625.0000520833419,
      "v": 73
    },
    {
      "midi": 57,
      "hit": false,
      "t": 73894.74299999986,
      "d": 625.0000520833419,
      "v": 83
    },
    {
      "midi": 62,
      "hit": false,
      "t": 73894.74299999986,
      "d": 625.0000520833419,
      "v": 82
    },
    {
      "midi": 28,
      "hit": false,
      "t": 74203.9535520832,
      "d": 315.78949999999895,
      "v": 74
    },
    {
      "midi": 57,
      "hit": false,
      "t": 74526.32199999987,
      "d": 618.4211041666713,
      "v": 77
    },
    {
      "midi": 62,
      "hit": false,
      "t": 74526.32199999987,
      "d": 618.4211041666713,
      "v": 75
    },
    {
      "midi": 66,
      "hit": false,
      "t": 74526.32199999987,
      "d": 618.4211041666713,
      "v": 53
    },
    {
      "midi": 28,
      "hit": false,
      "t": 74526.32199999987,
      "d": 934.2106041666702,
      "v": 71
    },
    {
      "midi": 54,
      "hit": false,
      "t": 74526.32199999987,
      "d": 1190.7895729166776,
      "v": 63
    },
    {
      "midi": 57,
      "hit": false,
      "t": 75151.32205208321,
      "d": 565.7895208333357,
      "v": 91
    },
    {
      "midi": 62,
      "hit": false,
      "t": 75151.32205208321,
      "d": 565.7895208333357,
      "v": 90
    },
    {
      "midi": 66,
      "hit": false,
      "t": 75151.32205208321,
      "d": 565.7895208333357,
      "v": 84
    },
    {
      "midi": 28,
      "hit": false,
      "t": 75467.11155208321,
      "d": 250.00002083333675,
      "v": 74
    },
    {
      "midi": 54,
      "hit": false,
      "t": 75782.90105208321,
      "d": 625.0000520833273,
      "v": 66
    },
    {
      "midi": 57,
      "hit": false,
      "t": 75782.90105208321,
      "d": 625.0000520833273,
      "v": 70
    },
    {
      "midi": 62,
      "hit": false,
      "t": 75782.90105208321,
      "d": 625.0000520833273,
      "v": 62
    },
    {
      "midi": 28,
      "hit": false,
      "t": 75782.90105208321,
      "d": 940.7895520833263,
      "v": 55
    },
    {
      "midi": 54,
      "hit": false,
      "t": 76414.4800520832,
      "d": 625.0000520833273,
      "v": 81
    },
    {
      "midi": 57,
      "hit": false,
      "t": 76414.4800520832,
      "d": 625.0000520833273,
      "v": 90
    },
    {
      "midi": 62,
      "hit": false,
      "t": 76414.4800520832,
      "d": 625.0000520833273,
      "v": 90
    },
    {
      "midi": 28,
      "hit": false,
      "t": 76730.2695520832,
      "d": 309.21055208332837,
      "v": 73
    },
    {
      "midi": 54,
      "hit": false,
      "t": 77046.0590520832,
      "d": 625.0000520833273,
      "v": 65
    },
    {
      "midi": 57,
      "hit": false,
      "t": 77046.0590520832,
      "d": 625.0000520833273,
      "v": 75
    },
    {
      "midi": 62,
      "hit": false,
      "t": 77046.0590520832,
      "d": 625.0000520833273,
      "v": 75
    },
    {
      "midi": 28,
      "hit": false,
      "t": 77046.0590520832,
      "d": 940.7895520833263,
      "v": 76
    },
    {
      "midi": 54,
      "hit": false,
      "t": 77677.6380520832,
      "d": 585.5263645833329,
      "v": 82
    },
    {
      "midi": 57,
      "hit": false,
      "t": 77677.6380520832,
      "d": 585.5263645833329,
      "v": 91
    },
    {
      "midi": 62,
      "hit": false,
      "t": 77677.6380520832,
      "d": 585.5263645833329,
      "v": 89
    },
    {
      "midi": 28,
      "hit": false,
      "t": 77993.4275520832,
      "d": 269.73686458333395,
      "v": 80
    },
    {
      "midi": 57,
      "hit": false,
      "t": 78309.2170520832,
      "d": 625.0000520833273,
      "v": 71
    },
    {
      "midi": 61,
      "hit": false,
      "t": 78309.2170520832,
      "d": 625.0000520833273,
      "v": 64
    },
    {
      "midi": 64,
      "hit": false,
      "t": 78309.2170520832,
      "d": 625.0000520833273,
      "v": 70
    },
    {
      "midi": 28,
      "hit": false,
      "t": 78309.2170520832,
      "d": 940.7895520833263,
      "v": 71
    },
    {
      "midi": 56,
      "hit": false,
      "t": 78625.0065520832,
      "d": 625.0000520833273,
      "v": 62
    },
    {
      "midi": 57,
      "hit": false,
      "t": 78940.7960520832,
      "d": 625.0000520833273,
      "v": 89
    },
    {
      "midi": 61,
      "hit": false,
      "t": 78940.7960520832,
      "d": 625.0000520833273,
      "v": 83
    },
    {
      "midi": 64,
      "hit": false,
      "t": 78940.7960520832,
      "d": 625.0000520833273,
      "v": 86
    },
    {
      "midi": 28,
      "hit": false,
      "t": 79256.5855520832,
      "d": 309.21055208332837,
      "v": 78
    },
    {
      "midi": 56,
      "hit": false,
      "t": 79256.5855520832,
      "d": 625.0000520833273,
      "v": 66
    },
    {
      "midi": 57,
      "hit": false,
      "t": 79572.3750520832,
      "d": 625.0000520833273,
      "v": 84
    },
    {
      "midi": 61,
      "hit": false,
      "t": 79572.3750520832,
      "d": 625.0000520833273,
      "v": 75
    },
    {
      "midi": 64,
      "hit": false,
      "t": 79572.3750520832,
      "d": 625.0000520833273,
      "v": 80
    },
    {
      "midi": 28,
      "hit": false,
      "t": 79572.3750520832,
      "d": 1144.736937499998,
      "v": 80
    },
    {
      "midi": 56,
      "hit": false,
      "t": 79888.1645520832,
      "d": 625.0000520833273,
      "v": 61
    },
    {
      "midi": 57,
      "hit": false,
      "t": 80203.9540520832,
      "d": 513.1579375000001,
      "v": 93
    },
    {
      "midi": 61,
      "hit": false,
      "t": 80203.9540520832,
      "d": 513.1579375000001,
      "v": 84
    },
    {
      "midi": 64,
      "hit": false,
      "t": 80203.9540520832,
      "d": 513.1579375000001,
      "v": 93
    },
    {
      "midi": 56,
      "hit": false,
      "t": 80519.7435520832,
      "d": 197.36843750000116,
      "v": 67
    },
    {
      "midi": 57,
      "hit": false,
      "t": 80835.53305208319,
      "d": 625.0000520833273,
      "v": 78
    },
    {
      "midi": 61,
      "hit": false,
      "t": 80835.53305208319,
      "d": 625.0000520833273,
      "v": 67
    },
    {
      "midi": 64,
      "hit": false,
      "t": 80835.53305208319,
      "d": 625.0000520833273,
      "v": 75
    },
    {
      "midi": 28,
      "hit": false,
      "t": 80835.53305208319,
      "d": 940.7895520833263,
      "v": 76
    },
    {
      "midi": 56,
      "hit": false,
      "t": 81151.32255208319,
      "d": 625.0000520833273,
      "v": 70
    },
    {
      "midi": 57,
      "hit": false,
      "t": 81467.11205208319,
      "d": 625.0000520833273,
      "v": 90
    },
    {
      "midi": 61,
      "hit": false,
      "t": 81467.11205208319,
      "d": 625.0000520833273,
      "v": 78
    },
    {
      "midi": 64,
      "hit": false,
      "t": 81467.11205208319,
      "d": 625.0000520833273,
      "v": 83
    },
    {
      "midi": 28,
      "hit": false,
      "t": 81782.90155208319,
      "d": 309.21055208332837,
      "v": 88
    },
    {
      "midi": 56,
      "hit": false,
      "t": 81782.90155208319,
      "d": 625.0000520833273,
      "v": 60
    },
    {
      "midi": 57,
      "hit": false,
      "t": 82098.69105208319,
      "d": 625.0000520833273,
      "v": 86
    },
    {
      "midi": 61,
      "hit": false,
      "t": 82098.69105208319,
      "d": 625.0000520833273,
      "v": 83
    },
    {
      "midi": 64,
      "hit": false,
      "t": 82098.69105208319,
      "d": 625.0000520833273,
      "v": 87
    },
    {
      "midi": 28,
      "hit": false,
      "t": 82098.69105208319,
      "d": 1250.0001041666692,
      "v": 93
    },
    {
      "midi": 56,
      "hit": false,
      "t": 82414.48055208319,
      "d": 625.0000520833273,
      "v": 64
    },
    {
      "midi": 57,
      "hit": false,
      "t": 82730.27005208319,
      "d": 618.4211041666713,
      "v": 90
    },
    {
      "midi": 61,
      "hit": false,
      "t": 82730.27005208319,
      "d": 618.4211041666713,
      "v": 92
    },
    {
      "midi": 64,
      "hit": false,
      "t": 82730.27005208319,
      "d": 618.4211041666713,
      "v": 94
    },
    {
      "midi": 56,
      "hit": false,
      "t": 83046.05955208318,
      "d": 302.63160416667233,
      "v": 64
    },
    {
      "midi": 55,
      "hit": false,
      "t": 83368.42799999985,
      "d": 631.5789999999979,
      "v": 76
    },
    {
      "midi": 60,
      "hit": false,
      "t": 83368.42799999985,
      "d": 631.5789999999979,
      "v": 75
    },
    {
      "midi": 64,
      "hit": false,
      "t": 83368.42799999985,
      "d": 631.5789999999979,
      "v": 76
    },
    {
      "midi": 33,
      "hit": false,
      "t": 83368.42799999985,
      "d": 934.2106041666702,
      "v": 75
    },
    {
      "midi": 55,
      "hit": false,
      "t": 84006.58594791652,
      "d": 618.4211041666713,
      "v": 97
    },
    {
      "midi": 60,
      "hit": false,
      "t": 84006.58594791652,
      "d": 618.4211041666713,
      "v": 96
    },
    {
      "midi": 64,
      "hit": false,
      "t": 84006.58594791652,
      "d": 618.4211041666713,
      "v": 90
    },
    {
      "midi": 33,
      "hit": false,
      "t": 84309.2175520832,
      "d": 309.21055208332837,
      "v": 85
    },
    {
      "midi": 33,
      "hit": false,
      "t": 84625.0070520832,
      "d": 940.7895520833408,
      "v": 80
    },
    {
      "midi": 55,
      "hit": false,
      "t": 84631.58599999986,
      "d": 618.4211041666713,
      "v": 80
    },
    {
      "midi": 60,
      "hit": false,
      "t": 84631.58599999986,
      "d": 618.4211041666713,
      "v": 80
    },
    {
      "midi": 64,
      "hit": false,
      "t": 84631.58599999986,
      "d": 618.4211041666713,
      "v": 80
    },
    {
      "midi": 55,
      "hit": false,
      "t": 85256.5860520832,
      "d": 631.5789999999979,
      "v": 101
    },
    {
      "midi": 60,
      "hit": false,
      "t": 85256.5860520832,
      "d": 631.5789999999979,
      "v": 97
    },
    {
      "midi": 64,
      "hit": false,
      "t": 85256.5860520832,
      "d": 631.5789999999979,
      "v": 97
    },
    {
      "midi": 33,
      "hit": false,
      "t": 85572.3755520832,
      "d": 315.78949999999895,
      "v": 78
    },
    {
      "midi": 55,
      "hit": false,
      "t": 85901.32294791653,
      "d": 611.8421562500007,
      "v": 90
    },
    {
      "midi": 60,
      "hit": false,
      "t": 85901.32294791653,
      "d": 611.8421562500007,
      "v": 90
    },
    {
      "midi": 64,
      "hit": false,
      "t": 85901.32294791653,
      "d": 611.8421562500007,
      "v": 86
    },
    {
      "midi": 33,
      "hit": false,
      "t": 85901.32294791653,
      "d": 927.6316562499997,
      "v": 82
    },
    {
      "midi": 55,
      "hit": false,
      "t": 86519.7440520832,
      "d": 559.2105729166651,
      "v": 97
    },
    {
      "midi": 60,
      "hit": false,
      "t": 86519.7440520832,
      "d": 559.2105729166651,
      "v": 98
    },
    {
      "midi": 64,
      "hit": false,
      "t": 86519.7440520832,
      "d": 559.2105729166651,
      "v": 93
    },
    {
      "midi": 33,
      "hit": false,
      "t": 86835.5335520832,
      "d": 243.42107291666616,
      "v": 75
    },
    {
      "midi": 55,
      "hit": false,
      "t": 87151.3230520832,
      "d": 625.0000520833273,
      "v": 90
    },
    {
      "midi": 60,
      "hit": false,
      "t": 87151.3230520832,
      "d": 625.0000520833273,
      "v": 89
    },
    {
      "midi": 64,
      "hit": false,
      "t": 87151.3230520832,
      "d": 625.0000520833273,
      "v": 83
    },
    {
      "midi": 26,
      "hit": false,
      "t": 87151.3230520832,
      "d": 940.7895520833263,
      "v": 96
    },
    {
      "midi": 38,
      "hit": false,
      "t": 87151.3230520832,
      "d": 1236.842208333328,
      "v": 75
    },
    {
      "midi": 55,
      "hit": false,
      "t": 87782.9020520832,
      "d": 605.2632083333301,
      "v": 101
    },
    {
      "midi": 60,
      "hit": false,
      "t": 87782.9020520832,
      "d": 605.2632083333301,
      "v": 100
    },
    {
      "midi": 64,
      "hit": false,
      "t": 87782.9020520832,
      "d": 605.2632083333301,
      "v": 95
    },
    {
      "midi": 26,
      "hit": false,
      "t": 88098.6915520832,
      "d": 289.47370833333116,
      "v": 73
    },
    {
      "midi": 56,
      "hit": false,
      "t": 88414.4810520832,
      "d": 625.0000520833273,
      "v": 77
    },
    {
      "midi": 59,
      "hit": false,
      "t": 88414.4810520832,
      "d": 625.0000520833273,
      "v": 87
    },
    {
      "midi": 63,
      "hit": false,
      "t": 88414.4810520832,
      "d": 625.0000520833273,
      "v": 75
    },
    {
      "midi": 54,
      "hit": false,
      "t": 88414.4810520832,
      "d": 940.7895520833263,
      "v": 68
    },
    {
      "midi": 28,
      "hit": false,
      "t": 88414.4810520832,
      "d": 953.9474479166674,
      "v": 72
    },
    {
      "midi": 56,
      "hit": false,
      "t": 89046.0600520832,
      "d": 625.0000520833419,
      "v": 94
    },
    {
      "midi": 59,
      "hit": false,
      "t": 89046.0600520832,
      "d": 625.0000520833419,
      "v": 101
    },
    {
      "midi": 63,
      "hit": false,
      "t": 89046.0600520832,
      "d": 625.0000520833419,
      "v": 95
    },
    {
      "midi": 54,
      "hit": false,
      "t": 89361.8495520832,
      "d": 625.0000520833419,
      "v": 78
    },
    {
      "midi": 28,
      "hit": false,
      "t": 89375.00744791653,
      "d": 296.05265625000175,
      "v": 108
    },
    {
      "midi": 56,
      "hit": false,
      "t": 89677.6390520832,
      "d": 625.0000520833273,
      "v": 78
    },
    {
      "midi": 59,
      "hit": false,
      "t": 89677.6390520832,
      "d": 625.0000520833273,
      "v": 83
    },
    {
      "midi": 63,
      "hit": false,
      "t": 89677.6390520832,
      "d": 625.0000520833273,
      "v": 85
    },
    {
      "midi": 28,
      "hit": false,
      "t": 89677.6390520832,
      "d": 947.3684999999969,
      "v": 93
    },
    {
      "midi": 54,
      "hit": false,
      "t": 89993.4285520832,
      "d": 625.0000520833273,
      "v": 77
    },
    {
      "midi": 56,
      "hit": false,
      "t": 90309.2180520832,
      "d": 611.8421562500007,
      "v": 99
    },
    {
      "midi": 59,
      "hit": false,
      "t": 90309.2180520832,
      "d": 611.8421562500007,
      "v": 105
    },
    {
      "midi": 63,
      "hit": false,
      "t": 90309.2180520832,
      "d": 611.8421562500007,
      "v": 94
    },
    {
      "midi": 54,
      "hit": false,
      "t": 90625.0075520832,
      "d": 296.05265625000175,
      "v": 76
    },
    {
      "midi": 28,
      "hit": false,
      "t": 90631.58649999987,
      "d": 289.47370833333116,
      "v": 108
    },
    {
      "midi": 54,
      "hit": false,
      "t": 90940.7970520832,
      "d": 309.21055208332837,
      "v": 82
    },
    {
      "midi": 58,
      "hit": false,
      "t": 90940.7970520832,
      "d": 625.0000520833273,
      "v": 91
    },
    {
      "midi": 61,
      "hit": false,
      "t": 90940.7970520832,
      "d": 625.0000520833273,
      "v": 83
    },
    {
      "midi": 28,
      "hit": false,
      "t": 90940.7970520832,
      "d": 947.3684999999969,
      "v": 89
    },
    {
      "midi": 54,
      "hit": false,
      "t": 91256.5865520832,
      "d": 625.0000520833273,
      "v": 55
    },
    {
      "midi": 58,
      "hit": false,
      "t": 91572.3760520832,
      "d": 625.0000520833419,
      "v": 103
    },
    {
      "midi": 61,
      "hit": false,
      "t": 91572.3760520832,
      "d": 625.0000520833419,
      "v": 95
    },
    {
      "midi": 54,
      "hit": false,
      "t": 91888.1655520832,
      "d": 625.0000520833419,
      "v": 89
    },
    {
      "midi": 28,
      "hit": false,
      "t": 91894.74449999987,
      "d": 302.63160416667233,
      "v": 108
    },
    {
      "midi": 58,
      "hit": false,
      "t": 92203.95505208321,
      "d": 625.0000520833273,
      "v": 99
    },
    {
      "midi": 61,
      "hit": false,
      "t": 92203.95505208321,
      "d": 625.0000520833273,
      "v": 92
    },
    {
      "midi": 28,
      "hit": false,
      "t": 92203.95505208321,
      "d": 1217.1053645833308,
      "v": 82
    },
    {
      "midi": 54,
      "hit": false,
      "t": 92519.74455208321,
      "d": 625.0000520833273,
      "v": 84
    },
    {
      "midi": 58,
      "hit": false,
      "t": 92835.53405208321,
      "d": 585.5263645833329,
      "v": 101
    },
    {
      "midi": 61,
      "hit": false,
      "t": 92835.53405208321,
      "d": 585.5263645833329,
      "v": 101
    },
    {
      "midi": 54,
      "hit": false,
      "t": 93151.32355208321,
      "d": 269.73686458333395,
      "v": 74
    },
    {
      "midi": 57,
      "hit": false,
      "t": 93467.11305208321,
      "d": 625.0000520833273,
      "v": 85
    },
    {
      "midi": 59,
      "hit": false,
      "t": 93467.11305208321,
      "d": 625.0000520833273,
      "v": 82
    },
    {
      "midi": 61,
      "hit": false,
      "t": 93467.11305208321,
      "d": 625.0000520833273,
      "v": 70
    },
    {
      "midi": 64,
      "hit": false,
      "t": 93467.11305208321,
      "d": 625.0000520833273,
      "v": 78
    },
    {
      "midi": 33,
      "hit": false,
      "t": 93467.11305208321,
      "d": 940.7895520833263,
      "v": 83
    },
    {
      "midi": 57,
      "hit": false,
      "t": 94098.6920520832,
      "d": 565.7895208333357,
      "v": 95
    },
    {
      "midi": 59,
      "hit": false,
      "t": 94098.6920520832,
      "d": 565.7895208333357,
      "v": 97
    },
    {
      "midi": 61,
      "hit": false,
      "t": 94098.6920520832,
      "d": 565.7895208333357,
      "v": 88
    },
    {
      "midi": 64,
      "hit": false,
      "t": 94098.6920520832,
      "d": 565.7895208333357,
      "v": 96
    },
    {
      "midi": 33,
      "hit": false,
      "t": 94414.4815520832,
      "d": 250.00002083333675,
      "v": 80
    },
    {
      "midi": 56,
      "hit": false,
      "t": 94730.2710520832,
      "d": 625.0000520833273,
      "v": 87
    },
    {
      "midi": 59,
      "hit": false,
      "t": 94730.2710520832,
      "d": 625.0000520833273,
      "v": 95
    },
    {
      "midi": 64,
      "hit": false,
      "t": 94730.2710520832,
      "d": 625.0000520833273,
      "v": 87
    },
    {
      "midi": 32,
      "hit": false,
      "t": 94730.2710520832,
      "d": 940.7895520833263,
      "v": 75
    },
    {
      "midi": 56,
      "hit": false,
      "t": 95361.8500520832,
      "d": 519.7368854166707,
      "v": 99
    },
    {
      "midi": 59,
      "hit": false,
      "t": 95361.8500520832,
      "d": 519.7368854166707,
      "v": 107
    },
    {
      "midi": 64,
      "hit": false,
      "t": 95361.8500520832,
      "d": 519.7368854166707,
      "v": 98
    },
    {
      "midi": 32,
      "hit": false,
      "t": 95677.6395520832,
      "d": 203.94738541667175,
      "v": 83
    },
    {
      "midi": 54,
      "hit": false,
      "t": 95993.4290520832,
      "d": 625.0000520833273,
      "v": 66
    },
    {
      "midi": 57,
      "hit": false,
      "t": 95993.4290520832,
      "d": 625.0000520833273,
      "v": 84
    },
    {
      "midi": 61,
      "hit": false,
      "t": 95993.4290520832,
      "d": 625.0000520833273,
      "v": 64
    },
    {
      "midi": 64,
      "hit": false,
      "t": 95993.4290520832,
      "d": 625.0000520833273,
      "v": 83
    },
    {
      "midi": 30,
      "hit": false,
      "t": 95993.4290520832,
      "d": 940.7895520833263,
      "v": 73
    },
    {
      "midi": 54,
      "hit": false,
      "t": 96625.0080520832,
      "d": 506.57898958332953,
      "v": 97
    },
    {
      "midi": 57,
      "hit": false,
      "t": 96625.0080520832,
      "d": 506.57898958332953,
      "v": 104
    },
    {
      "midi": 61,
      "hit": false,
      "t": 96625.0080520832,
      "d": 506.57898958332953,
      "v": 83
    },
    {
      "midi": 64,
      "hit": false,
      "t": 96625.0080520832,
      "d": 506.57898958332953,
      "v": 104
    },
    {
      "midi": 30,
      "hit": false,
      "t": 96940.7975520832,
      "d": 190.78948958333058,
      "v": 88
    },
    {
      "midi": 35,
      "hit": false,
      "t": 97256.5870520832,
      "d": 519.7368854166707,
      "v": 90
    },
    {
      "midi": 57,
      "hit": false,
      "t": 97256.5870520832,
      "d": 519.7368854166707,
      "v": 93
    },
    {
      "midi": 61,
      "hit": false,
      "t": 97256.5870520832,
      "d": 519.7368854166707,
      "v": 99
    },
    {
      "midi": 64,
      "hit": false,
      "t": 97256.5870520832,
      "d": 519.7368854166707,
      "v": 101
    },
    {
      "midi": 59,
      "hit": false,
      "t": 97888.1660520832,
      "d": 585.5263645833329,
      "v": 98
    },
    {
      "midi": 63,
      "hit": false,
      "t": 97888.1660520832,
      "d": 585.5263645833329,
      "v": 107
    },
    {
      "midi": 66,
      "hit": false,
      "t": 97888.1660520832,
      "d": 598.6842604166595,
      "v": 105
    },
    {
      "midi": 23,
      "hit": false,
      "t": 97894.74499999986,
      "d": 625.0000520833273,
      "v": 81
    },
    {
      "midi": 59,
      "hit": false,
      "t": 98526.32399999986,
      "d": 631.5789999999979,
      "v": 90
    },
    {
      "midi": 64,
      "hit": false,
      "t": 98526.32399999986,
      "d": 631.5789999999979,
      "v": 89
    },
    {
      "midi": 68,
      "hit": false,
      "t": 98526.32399999986,
      "d": 631.5789999999979,
      "v": 81
    },
    {
      "midi": 59,
      "hit": false,
      "t": 99164.48194791653,
      "d": 625.0000520833273,
      "v": 80
    },
    {
      "midi": 64,
      "hit": false,
      "t": 99164.48194791653,
      "d": 625.0000520833273,
      "v": 93
    },
    {
      "midi": 68,
      "hit": false,
      "t": 99164.48194791653,
      "d": 625.0000520833273,
      "v": 94
    },
    {
      "midi": 64,
      "hit": false,
      "t": 99796.06094791653,
      "d": 611.8421562500007,
      "v": 80
    },
    {
      "midi": 68,
      "hit": false,
      "t": 99796.06094791653,
      "d": 611.8421562500007,
      "v": 81
    },
    {
      "midi": 59,
      "hit": false,
      "t": 99796.06094791653,
      "d": 1276.3158958333224,
      "v": 78
    },
    {
      "midi": 64,
      "hit": false,
      "t": 100414.4820520832,
      "d": 657.8947916666511,
      "v": 104
    },
    {
      "midi": 68,
      "hit": false,
      "t": 100414.4820520832,
      "d": 657.8947916666511,
      "v": 109
    },
    {
      "midi": 61,
      "hit": false,
      "t": 101046.0610520832,
      "d": 625.0000520833128,
      "v": 70
    },
    {
      "midi": 66,
      "hit": false,
      "t": 101046.0610520832,
      "d": 625.0000520833128,
      "v": 74
    },
    {
      "midi": 57,
      "hit": false,
      "t": 101059.21894791652,
      "d": 611.8421562499861,
      "v": 80
    },
    {
      "midi": 61,
      "hit": false,
      "t": 101677.64005208318,
      "d": 625.0000520833273,
      "v": 101
    },
    {
      "midi": 66,
      "hit": false,
      "t": 101677.64005208318,
      "d": 625.0000520833273,
      "v": 99
    },
    {
      "midi": 57,
      "hit": false,
      "t": 101677.64005208318,
      "d": 1868.421208333326,
      "v": 102
    },
    {
      "midi": 61,
      "hit": false,
      "t": 102309.21905208318,
      "d": 625.0000520833273,
      "v": 89
    },
    {
      "midi": 64,
      "hit": false,
      "t": 102309.21905208318,
      "d": 625.0000520833273,
      "v": 100
    },
    {
      "midi": 66,
      "hit": false,
      "t": 102309.21905208318,
      "d": 625.0000520833273,
      "v": 89
    },
    {
      "midi": 61,
      "hit": false,
      "t": 102940.79805208318,
      "d": 605.2632083333301,
      "v": 92
    },
    {
      "midi": 64,
      "hit": false,
      "t": 102940.79805208318,
      "d": 605.2632083333301,
      "v": 102
    },
    {
      "midi": 66,
      "hit": false,
      "t": 102940.79805208318,
      "d": 605.2632083333301,
      "v": 92
    },
    {
      "midi": 63,
      "hit": false,
      "t": 103572.37705208317,
      "d": 625.0000520833273,
      "v": 97
    },
    {
      "midi": 68,
      "hit": false,
      "t": 103572.37705208317,
      "d": 625.0000520833273,
      "v": 99
    },
    {
      "midi": 59,
      "hit": false,
      "t": 103572.37705208317,
      "d": 631.5789999999979,
      "v": 91
    },
    {
      "midi": 63,
      "hit": false,
      "t": 104203.95605208317,
      "d": 625.0000520833419,
      "v": 95
    },
    {
      "midi": 68,
      "hit": false,
      "t": 104203.95605208317,
      "d": 625.0000520833419,
      "v": 95
    },
    {
      "midi": 59,
      "hit": false,
      "t": 104210.53499999984,
      "d": 1875.000156250011,
      "v": 97
    },
    {
      "midi": 63,
      "hit": false,
      "t": 104835.53505208319,
      "d": 631.5789999999979,
      "v": 94
    },
    {
      "midi": 68,
      "hit": false,
      "t": 104835.53505208319,
      "d": 638.1579479166685,
      "v": 95
    },
    {
      "midi": 63,
      "hit": false,
      "t": 105473.69299999985,
      "d": 611.8421562500007,
      "v": 94
    },
    {
      "midi": 68,
      "hit": false,
      "t": 105480.27194791652,
      "d": 605.2632083333301,
      "v": 99
    },
    {
      "midi": 57,
      "hit": false,
      "t": 106098.69305208318,
      "d": 625.0000520833273,
      "v": 89
    },
    {
      "midi": 61,
      "hit": false,
      "t": 106098.69305208318,
      "d": 625.0000520833273,
      "v": 84
    },
    {
      "midi": 66,
      "hit": false,
      "t": 106098.69305208318,
      "d": 625.0000520833273,
      "v": 84
    },
    {
      "midi": 61,
      "hit": false,
      "t": 106730.27205208318,
      "d": 631.5789999999979,
      "v": 99
    },
    {
      "midi": 57,
      "hit": false,
      "t": 106730.27205208318,
      "d": 638.1579479166685,
      "v": 105
    },
    {
      "midi": 66,
      "hit": false,
      "t": 106730.27205208318,
      "d": 638.1579479166685,
      "v": 101
    },
    {
      "midi": 61,
      "hit": false,
      "t": 107368.42999999985,
      "d": 631.5789999999979,
      "v": 63
    },
    {
      "midi": 66,
      "hit": false,
      "t": 107375.00894791652,
      "d": 625.0000520833273,
      "v": 53
    },
    {
      "midi": 57,
      "hit": false,
      "t": 107375.00894791652,
      "d": 1131.5790416666714,
      "v": 56
    },
    {
      "midi": 61,
      "hit": false,
      "t": 108006.58794791652,
      "d": 500.0000416666735,
      "v": 107
    },
    {
      "midi": 64,
      "hit": false,
      "t": 108006.58794791652,
      "d": 500.0000416666735,
      "v": 110
    },
    {
      "midi": 66,
      "hit": false,
      "t": 108006.58794791652,
      "d": 500.0000416666735,
      "v": 105
    },
    {
      "midi": 57,
      "hit": false,
      "t": 108625.00905208319,
      "d": 861.8421770833374,
      "v": 98
    },
    {
      "midi": 61,
      "hit": false,
      "t": 108625.00905208319,
      "d": 861.8421770833374,
      "v": 99
    },
    {
      "midi": 66,
      "hit": false,
      "t": 108625.00905208319,
      "d": 861.8421770833374,
      "v": 92
    },
    {
      "midi": 59,
      "hit": false,
      "t": 109572.37755208318,
      "d": 625.0000520833273,
      "v": 105
    },
    {
      "midi": 64,
      "hit": false,
      "t": 109572.37755208318,
      "d": 625.0000520833273,
      "v": 103
    },
    {
      "midi": 68,
      "hit": false,
      "t": 109572.37755208318,
      "d": 625.0000520833273,
      "v": 103
    },
    {
      "midi": 57,
      "hit": false,
      "t": 110203.95655208318,
      "d": 98.68421875000058,
      "v": 94
    },
    {
      "midi": 61,
      "hit": false,
      "t": 110203.95655208318,
      "d": 98.68421875000058,
      "v": 94
    },
    {
      "midi": 66,
      "hit": false,
      "t": 110203.95655208318,
      "d": 98.68421875000058,
      "v": 89
    },
    {
      "midi": 59,
      "hit": false,
      "t": 110519.74605208318,
      "d": 394.7368750000023,
      "v": 103
    },
    {
      "midi": 68,
      "hit": false,
      "t": 110519.74605208318,
      "d": 394.7368750000023,
      "v": 99
    },
    {
      "midi": 64,
      "hit": false,
      "t": 110519.74605208318,
      "d": 407.89477083332895,
      "v": 99
    },
    {
      "midi": 57,
      "hit": false,
      "t": 111164.4829479165,
      "d": 848.6842812499963,
      "v": 95
    },
    {
      "midi": 61,
      "hit": false,
      "t": 111164.4829479165,
      "d": 848.6842812499963,
      "v": 95
    },
    {
      "midi": 66,
      "hit": false,
      "t": 111164.4829479165,
      "d": 848.6842812499963,
      "v": 89
    },
    {
      "midi": 59,
      "hit": false,
      "t": 112098.69355208316,
      "d": 1565.7896041666681,
      "v": 101
    },
    {
      "midi": 64,
      "hit": false,
      "t": 112098.69355208316,
      "d": 1565.7896041666681,
      "v": 99
    },
    {
      "midi": 68,
      "hit": false,
      "t": 112098.69355208316,
      "d": 1572.3685520833387,
      "v": 97
    },
    {
      "midi": 56,
      "hit": false,
      "t": 112730.27255208316,
      "d": 151.31580208333617,
      "v": 99
    },
    {
      "midi": 52,
      "hit": false,
      "t": 113046.06205208316,
      "d": 309.21055208332837,
      "v": 81
    },
    {
      "midi": 47,
      "hit": false,
      "t": 113361.85155208316,
      "d": 151.31580208333617,
      "v": 83
    },
    {
      "midi": 28,
      "hit": false,
      "t": 113690.7989479165,
      "d": 2256.579135416672,
      "v": 75
    },
    {
      "midi": 40,
      "hit": false,
      "t": 113690.7989479165,
      "d": 2256.579135416672,
      "v": 69
    },
    {
      "midi": 54,
      "hit": false,
      "t": 113690.7989479165,
      "d": 2256.579135416672,
      "v": 63
    },
    {
      "midi": 57,
      "hit": false,
      "t": 113690.7989479165,
      "d": 2256.579135416672,
      "v": 78
    },
    {
      "midi": 62,
      "hit": false,
      "t": 113690.7989479165,
      "d": 2256.579135416672,
      "v": 78
    },
    {
      "midi": 74,
      "hit": false,
      "t": 116203.95705208316,
      "d": 1684.2106666666805,
      "v": 68
    },
    {
      "midi": 86,
      "hit": false,
      "t": 116210.53599999983,
      "d": 2453.947572916688,
      "v": 67
    },
    {
      "midi": 73,
      "hit": false,
      "t": 116631.5886666665,
      "d": 1677.63171875001,
      "v": 58
    },
    {
      "midi": 85,
      "hit": false,
      "t": 116631.5886666665,
      "d": 2032.8949062500178,
      "v": 77
    },
    {
      "midi": 69,
      "hit": false,
      "t": 117052.64133333317,
      "d": 1611.8422395833477,
      "v": 63
    },
    {
      "midi": 81,
      "hit": false,
      "t": 117052.64133333317,
      "d": 1611.8422395833477,
      "v": 62
    },
    {
      "midi": 66,
      "hit": false,
      "t": 117473.69399999984,
      "d": 1190.7895729166776,
      "v": 63
    },
    {
      "midi": 78,
      "hit": false,
      "t": 117473.69399999984,
      "d": 1190.7895729166776,
      "v": 71
    },
    {
      "midi": 62,
      "hit": false,
      "t": 117894.74666666651,
      "d": 769.7369062500075,
      "v": 63
    },
    {
      "midi": 74,
      "hit": false,
      "t": 117894.74666666651,
      "d": 769.7369062500075,
      "v": 72
    },
    {
      "midi": 61,
      "hit": false,
      "t": 118315.79933333318,
      "d": 348.68423958333733,
      "v": 53
    },
    {
      "midi": 73,
      "hit": false,
      "t": 118315.79933333318,
      "d": 348.68423958333733,
      "v": 71
    },
    {
      "midi": 66,
      "hit": false,
      "t": 118736.85199999985,
      "d": 631.5789999999979,
      "v": 58
    },
    {
      "midi": 68,
      "hit": false,
      "t": 118736.85199999985,
      "d": 631.5789999999979,
      "v": 48
    },
    {
      "midi": 71,
      "hit": false,
      "t": 118736.85199999985,
      "d": 631.5789999999979,
      "v": 59
    },
    {
      "midi": 52,
      "hit": false,
      "t": 118736.85199999985,
      "d": 2651.31601041666,
      "v": 68
    },
    {
      "midi": 59,
      "hit": false,
      "t": 118736.85199999985,
      "d": 2651.31601041666,
      "v": 68
    },
    {
      "midi": 66,
      "hit": false,
      "t": 119375.00994791652,
      "d": 625.0000520833273,
      "v": 72
    },
    {
      "midi": 68,
      "hit": false,
      "t": 119375.00994791652,
      "d": 625.0000520833273,
      "v": 68
    },
    {
      "midi": 71,
      "hit": false,
      "t": 119375.00994791652,
      "d": 625.0000520833273,
      "v": 70
    },
    {
      "midi": 66,
      "hit": false,
      "t": 120006.58894791652,
      "d": 625.0000520833273,
      "v": 57
    },
    {
      "midi": 68,
      "hit": false,
      "t": 120006.58894791652,
      "d": 625.0000520833273,
      "v": 48
    },
    {
      "midi": 71,
      "hit": false,
      "t": 120006.58894791652,
      "d": 625.0000520833273,
      "v": 61
    },
    {
      "midi": 68,
      "hit": false,
      "t": 120638.16794791652,
      "d": 625.0000520833273,
      "v": 61
    },
    {
      "midi": 71,
      "hit": false,
      "t": 120638.16794791652,
      "d": 625.0000520833273,
      "v": 61
    },
    {
      "midi": 66,
      "hit": false,
      "t": 120638.16794791652,
      "d": 750.0000624999957,
      "v": 68
    },
    {
      "midi": 64,
      "hit": false,
      "t": 121269.74694791652,
      "d": 802.6316458333313,
      "v": 71
    },
    {
      "midi": 68,
      "hit": false,
      "t": 121269.74694791652,
      "d": 802.6316458333313,
      "v": 65
    },
    {
      "midi": 71,
      "hit": false,
      "t": 121269.74694791652,
      "d": 802.6316458333313,
      "v": 68
    },
    {
      "midi": 35,
      "hit": false,
      "t": 121684.22066666652,
      "d": 388.15792708333174,
      "v": 102
    },
    {
      "midi": 47,
      "hit": false,
      "t": 121690.79961458319,
      "d": 381.57897916666116,
      "v": 114
    },
    {
      "midi": 46,
      "hit": false,
      "t": 122098.69438541651,
      "d": 322.36844791666954,
      "v": 111
    },
    {
      "midi": 34,
      "hit": false,
      "t": 122098.69438541651,
      "d": 335.52634374999616,
      "v": 99
    },
    {
      "midi": 45,
      "hit": false,
      "t": 122519.74705208317,
      "d": 388.15792708333174,
      "v": 112
    },
    {
      "midi": 33,
      "hit": false,
      "t": 122519.74705208317,
      "d": 401.31582291665836,
      "v": 97
    },
    {
      "midi": 32,
      "hit": false,
      "t": 122940.79971874983,
      "d": 348.68423958333733,
      "v": 107
    },
    {
      "midi": 44,
      "hit": false,
      "t": 122940.79971874983,
      "d": 348.68423958333733,
      "v": 109
    },
    {
      "midi": 30,
      "hit": false,
      "t": 123375.01028124982,
      "d": 322.36844791666954,
      "v": 109
    },
    {
      "midi": 42,
      "hit": false,
      "t": 123375.01028124982,
      "d": 322.36844791666954,
      "v": 111
    },
    {
      "midi": 64,
      "hit": false,
      "t": 123789.48399999982,
      "d": 631.5789999999979,
      "v": 89
    },
    {
      "midi": 68,
      "hit": false,
      "t": 123789.48399999982,
      "d": 631.5789999999979,
      "v": 81
    },
    {
      "midi": 59,
      "hit": false,
      "t": 123789.48399999982,
      "d": 1263.1579999999958,
      "v": 90
    },
    {
      "midi": 64,
      "hit": false,
      "t": 124427.64194791649,
      "d": 625.0000520833273,
      "v": 93
    },
    {
      "midi": 68,
      "hit": false,
      "t": 124427.64194791649,
      "d": 625.0000520833273,
      "v": 94
    },
    {
      "midi": 64,
      "hit": false,
      "t": 125059.22094791649,
      "d": 611.8421562500007,
      "v": 80
    },
    {
      "midi": 68,
      "hit": false,
      "t": 125059.22094791649,
      "d": 611.8421562500007,
      "v": 81
    },
    {
      "midi": 59,
      "hit": false,
      "t": 125059.22094791649,
      "d": 1276.3158958333224,
      "v": 78
    },
    {
      "midi": 64,
      "hit": false,
      "t": 125677.64205208316,
      "d": 657.8947916666511,
      "v": 104
    },
    {
      "midi": 68,
      "hit": false,
      "t": 125677.64205208316,
      "d": 657.8947916666511,
      "v": 109
    },
    {
      "midi": 61,
      "hit": false,
      "t": 126309.22105208316,
      "d": 625.0000520833128,
      "v": 70
    },
    {
      "midi": 66,
      "hit": false,
      "t": 126309.22105208316,
      "d": 625.0000520833128,
      "v": 74
    },
    {
      "midi": 57,
      "hit": false,
      "t": 126322.37894791648,
      "d": 611.8421562499861,
      "v": 80
    },
    {
      "midi": 61,
      "hit": false,
      "t": 126940.80005208314,
      "d": 625.0000520833273,
      "v": 101
    },
    {
      "midi": 66,
      "hit": false,
      "t": 126940.80005208314,
      "d": 625.0000520833273,
      "v": 99
    },
    {
      "midi": 57,
      "hit": false,
      "t": 126940.80005208314,
      "d": 1868.421208333326,
      "v": 102
    },
    {
      "midi": 61,
      "hit": false,
      "t": 127572.37905208314,
      "d": 625.0000520833273,
      "v": 89
    },
    {
      "midi": 64,
      "hit": false,
      "t": 127572.37905208314,
      "d": 625.0000520833273,
      "v": 100
    },
    {
      "midi": 66,
      "hit": false,
      "t": 127572.37905208314,
      "d": 625.0000520833273,
      "v": 89
    },
    {
      "midi": 61,
      "hit": false,
      "t": 128203.95805208314,
      "d": 605.2632083333301,
      "v": 92
    },
    {
      "midi": 64,
      "hit": false,
      "t": 128203.95805208314,
      "d": 605.2632083333301,
      "v": 102
    },
    {
      "midi": 66,
      "hit": false,
      "t": 128203.95805208314,
      "d": 605.2632083333301,
      "v": 92
    },
    {
      "midi": 64,
      "hit": false,
      "t": 128835.53705208313,
      "d": 625.0000520833273,
      "v": 91
    },
    {
      "midi": 66,
      "hit": false,
      "t": 128835.53705208313,
      "d": 625.0000520833273,
      "v": 99
    },
    {
      "midi": 68,
      "hit": false,
      "t": 128835.53705208313,
      "d": 625.0000520833273,
      "v": 99
    },
    {
      "midi": 66,
      "hit": false,
      "t": 129467.11605208313,
      "d": 625.0000520833419,
      "v": 97
    },
    {
      "midi": 68,
      "hit": false,
      "t": 129467.11605208313,
      "d": 625.0000520833419,
      "v": 95
    },
    {
      "midi": 64,
      "hit": false,
      "t": 129467.11605208313,
      "d": 1881.5791041666962,
      "v": 95
    },
    {
      "midi": 63,
      "hit": false,
      "t": 129789.4844999998,
      "d": 940.7895520833408,
      "v": 94
    },
    {
      "midi": 66,
      "hit": false,
      "t": 130098.69505208315,
      "d": 631.5789999999979,
      "v": 95
    },
    {
      "midi": 68,
      "hit": false,
      "t": 130098.69505208315,
      "d": 638.1579479166685,
      "v": 95
    },
    {
      "midi": 59,
      "hit": false,
      "t": 130414.48455208314,
      "d": 934.2106041666848,
      "v": 66
    },
    {
      "midi": 63,
      "hit": false,
      "t": 130736.85299999981,
      "d": 611.8421562500153,
      "v": 94
    },
    {
      "midi": 66,
      "hit": false,
      "t": 130736.85299999981,
      "d": 611.8421562500153,
      "v": 97
    },
    {
      "midi": 68,
      "hit": false,
      "t": 130743.43194791648,
      "d": 605.2632083333447,
      "v": 99
    },
    {
      "midi": 61,
      "hit": false,
      "t": 131361.85305208317,
      "d": 625.0000520833419,
      "v": 84
    },
    {
      "midi": 64,
      "hit": false,
      "t": 131361.85305208317,
      "d": 625.0000520833419,
      "v": 89
    },
    {
      "midi": 66,
      "hit": false,
      "t": 131361.85305208317,
      "d": 625.0000520833419,
      "v": 84
    },
    {
      "midi": 61,
      "hit": false,
      "t": 131993.43205208317,
      "d": 631.5789999999979,
      "v": 99
    },
    {
      "midi": 64,
      "hit": false,
      "t": 131993.43205208317,
      "d": 638.1579479166539,
      "v": 105
    },
    {
      "midi": 66,
      "hit": false,
      "t": 131993.43205208317,
      "d": 638.1579479166539,
      "v": 101
    },
    {
      "midi": 61,
      "hit": false,
      "t": 132631.58999999982,
      "d": 631.5789999999979,
      "v": 63
    },
    {
      "midi": 64,
      "hit": false,
      "t": 132638.16894791648,
      "d": 625.0000520833419,
      "v": 56
    },
    {
      "midi": 66,
      "hit": false,
      "t": 132638.16894791648,
      "d": 625.0000520833419,
      "v": 53
    },
    {
      "midi": 61,
      "hit": false,
      "t": 133269.74794791648,
      "d": 500.0000416666735,
      "v": 107
    },
    {
      "midi": 64,
      "hit": false,
      "t": 133269.74794791648,
      "d": 500.0000416666735,
      "v": 110
    },
    {
      "midi": 66,
      "hit": false,
      "t": 133269.74794791648,
      "d": 500.0000416666735,
      "v": 105
    },
    {
      "midi": 57,
      "hit": false,
      "t": 133888.16905208316,
      "d": 861.8421770833374,
      "v": 98
    },
    {
      "midi": 61,
      "hit": false,
      "t": 133888.16905208316,
      "d": 861.8421770833374,
      "v": 99
    },
    {
      "midi": 66,
      "hit": false,
      "t": 133888.16905208316,
      "d": 861.8421770833374,
      "v": 92
    },
    {
      "midi": 59,
      "hit": false,
      "t": 134835.53755208317,
      "d": 730.2632187499839,
      "v": 105
    },
    {
      "midi": 64,
      "hit": false,
      "t": 134835.53755208317,
      "d": 730.2632187499839,
      "v": 103
    },
    {
      "midi": 68,
      "hit": false,
      "t": 134835.53755208317,
      "d": 730.2632187499839,
      "v": 103
    },
    {
      "midi": 57,
      "hit": false,
      "t": 135467.11655208317,
      "d": 98.68421874998603,
      "v": 94
    },
    {
      "midi": 61,
      "hit": false,
      "t": 135467.11655208317,
      "d": 98.68421874998603,
      "v": 94
    },
    {
      "midi": 66,
      "hit": false,
      "t": 135467.11655208317,
      "d": 98.68421874998603,
      "v": 89
    },
    {
      "midi": 59,
      "hit": false,
      "t": 135782.90605208316,
      "d": 394.7368750000023,
      "v": 103
    },
    {
      "midi": 68,
      "hit": false,
      "t": 135782.90605208316,
      "d": 394.7368750000023,
      "v": 99
    },
    {
      "midi": 64,
      "hit": false,
      "t": 135782.90605208316,
      "d": 407.8947708333435,
      "v": 99
    },
    {
      "midi": 57,
      "hit": false,
      "t": 136421.06399999984,
      "d": 855.2632291666523,
      "v": 98
    },
    {
      "midi": 61,
      "hit": false,
      "t": 136421.06399999984,
      "d": 855.2632291666523,
      "v": 99
    },
    {
      "midi": 66,
      "hit": false,
      "t": 136421.06399999984,
      "d": 855.2632291666523,
      "v": 92
    },
    {
      "midi": 59,
      "hit": false,
      "t": 137361.85355208316,
      "d": 730.2632187499839,
      "v": 105
    },
    {
      "midi": 64,
      "hit": false,
      "t": 137361.85355208316,
      "d": 730.2632187499839,
      "v": 103
    },
    {
      "midi": 68,
      "hit": false,
      "t": 137361.85355208316,
      "d": 730.2632187499839,
      "v": 103
    },
    {
      "midi": 57,
      "hit": false,
      "t": 137993.43255208316,
      "d": 98.68421874998603,
      "v": 94
    },
    {
      "midi": 61,
      "hit": false,
      "t": 137993.43255208316,
      "d": 98.68421874998603,
      "v": 94
    },
    {
      "midi": 66,
      "hit": false,
      "t": 137993.43255208316,
      "d": 98.68421874998603,
      "v": 89
    },
    {
      "midi": 59,
      "hit": false,
      "t": 138309.22205208315,
      "d": 394.7368750000023,
      "v": 103
    },
    {
      "midi": 68,
      "hit": false,
      "t": 138309.22205208315,
      "d": 394.7368750000023,
      "v": 99
    },
    {
      "midi": 64,
      "hit": false,
      "t": 138309.22205208315,
      "d": 407.8947708333435,
      "v": 99
    },
    {
      "midi": 57,
      "hit": false,
      "t": 138953.9589479165,
      "d": 407.8947708333435,
      "v": 98
    },
    {
      "midi": 61,
      "hit": false,
      "t": 138953.9589479165,
      "d": 407.8947708333435,
      "v": 95
    },
    {
      "midi": 66,
      "hit": false,
      "t": 138953.9589479165,
      "d": 407.8947708333435,
      "v": 91
    },
    {
      "midi": 68,
      "hit": false,
      "t": 139368.4326666665,
      "d": 407.8947708333144,
      "v": 87
    },
    {
      "midi": 59,
      "hit": false,
      "t": 139375.01161458314,
      "d": 407.8947708333144,
      "v": 66
    },
    {
      "midi": 64,
      "hit": false,
      "t": 139375.01161458314,
      "d": 407.8947708333144,
      "v": 87
    },
    {
      "midi": 61,
      "hit": false,
      "t": 139796.0642812498,
      "d": 407.8947708333435,
      "v": 97
    },
    {
      "midi": 66,
      "hit": false,
      "t": 139796.0642812498,
      "d": 407.8947708333435,
      "v": 97
    },
    {
      "midi": 69,
      "hit": false,
      "t": 139796.0642812498,
      "d": 407.8947708333435,
      "v": 105
    },
    {
      "midi": 59,
      "hit": false,
      "t": 140203.95905208314,
      "d": 407.8947708333435,
      "v": 93
    },
    {
      "midi": 64,
      "hit": false,
      "t": 140203.95905208314,
      "d": 407.8947708333435,
      "v": 108
    },
    {
      "midi": 68,
      "hit": false,
      "t": 140203.95905208314,
      "d": 407.8947708333435,
      "v": 105
    },
    {
      "midi": 61,
      "hit": false,
      "t": 140625.01171874983,
      "d": 407.8947708333435,
      "v": 99
    },
    {
      "midi": 66,
      "hit": false,
      "t": 140625.01171874983,
      "d": 407.8947708333435,
      "v": 99
    },
    {
      "midi": 57,
      "hit": false,
      "t": 140638.16961458317,
      "d": 407.8947708333435,
      "v": 96
    },
    {
      "midi": 56,
      "hit": false,
      "t": 141046.0643854165,
      "d": 407.8947708333144,
      "v": 88
    },
    {
      "midi": 59,
      "hit": false,
      "t": 141052.64333333317,
      "d": 407.8947708333144,
      "v": 94
    },
    {
      "midi": 64,
      "hit": false,
      "t": 141052.64333333317,
      "d": 407.8947708333144,
      "v": 100
    },
    {
      "midi": 57,
      "hit": false,
      "t": 141473.69599999982,
      "d": 1177.6316770833218,
      "v": 90
    },
    {
      "midi": 62,
      "hit": false,
      "t": 141473.69599999982,
      "d": 1177.6316770833218,
      "v": 98
    },
    {
      "midi": 66,
      "hit": false,
      "t": 141473.69599999982,
      "d": 1177.6316770833218,
      "v": 88
    },
    {
      "midi": 64,
      "hit": false,
      "t": 142736.85399999982,
      "d": 578.9474166666623,
      "v": 116
    },
    {
      "midi": 57,
      "hit": false,
      "t": 142736.85399999982,
      "d": 592.1053125000035,
      "v": 105
    },
    {
      "midi": 61,
      "hit": false,
      "t": 142736.85399999982,
      "d": 625.0000520833419,
      "v": 110
    },
    {
      "midi": 57,
      "hit": false,
      "t": 143368.43299999982,
      "d": 506.57898958332953,
      "v": 94
    },
    {
      "midi": 63,
      "hit": false,
      "t": 143368.43299999982,
      "d": 506.57898958332953,
      "v": 103
    },
    {
      "midi": 59,
      "hit": false,
      "t": 143368.43299999982,
      "d": 519.7368854166707,
      "v": 110
    },
    {
      "midi": 64,
      "hit": false,
      "t": 144000.0119999998,
      "d": 631.5789999999979,
      "v": 89
    },
    {
      "midi": 68,
      "hit": false,
      "t": 144000.0119999998,
      "d": 631.5789999999979,
      "v": 81
    },
    {
      "midi": 59,
      "hit": false,
      "t": 144000.0119999998,
      "d": 1263.1579999999958,
      "v": 90
    },
    {
      "midi": 64,
      "hit": false,
      "t": 144638.16994791647,
      "d": 625.0000520833419,
      "v": 93
    },
    {
      "midi": 68,
      "hit": false,
      "t": 144638.16994791647,
      "d": 625.0000520833419,
      "v": 94
    },
    {
      "midi": 64,
      "hit": false,
      "t": 145269.74894791647,
      "d": 611.8421562500007,
      "v": 80
    },
    {
      "midi": 68,
      "hit": false,
      "t": 145269.74894791647,
      "d": 611.8421562500007,
      "v": 81
    },
    {
      "midi": 59,
      "hit": false,
      "t": 145269.74894791647,
      "d": 1276.315895833337,
      "v": 78
    },
    {
      "midi": 64,
      "hit": false,
      "t": 145888.17005208312,
      "d": 657.8947916666802,
      "v": 104
    },
    {
      "midi": 68,
      "hit": false,
      "t": 145888.17005208312,
      "d": 657.8947916666802,
      "v": 109
    },
    {
      "midi": 61,
      "hit": false,
      "t": 146519.74905208312,
      "d": 625.0000520833419,
      "v": 70
    },
    {
      "midi": 66,
      "hit": false,
      "t": 146519.74905208312,
      "d": 625.0000520833419,
      "v": 74
    },
    {
      "midi": 57,
      "hit": false,
      "t": 146532.90694791646,
      "d": 611.8421562500007,
      "v": 80
    },
    {
      "midi": 61,
      "hit": false,
      "t": 147151.32805208312,
      "d": 625.0000520833419,
      "v": 101
    },
    {
      "midi": 66,
      "hit": false,
      "t": 147151.32805208312,
      "d": 625.0000520833419,
      "v": 99
    },
    {
      "midi": 57,
      "hit": false,
      "t": 147151.32805208312,
      "d": 1868.4212083333405,
      "v": 102
    },
    {
      "midi": 61,
      "hit": false,
      "t": 147782.90705208312,
      "d": 625.0000520833419,
      "v": 89
    },
    {
      "midi": 64,
      "hit": false,
      "t": 147782.90705208312,
      "d": 625.0000520833419,
      "v": 100
    },
    {
      "midi": 66,
      "hit": false,
      "t": 147782.90705208312,
      "d": 625.0000520833419,
      "v": 89
    },
    {
      "midi": 61,
      "hit": false,
      "t": 148414.4860520831,
      "d": 605.2632083333447,
      "v": 92
    },
    {
      "midi": 64,
      "hit": false,
      "t": 148414.4860520831,
      "d": 605.2632083333447,
      "v": 102
    },
    {
      "midi": 66,
      "hit": false,
      "t": 148414.4860520831,
      "d": 605.2632083333447,
      "v": 92
    },
    {
      "midi": 64,
      "hit": false,
      "t": 149046.0650520831,
      "d": 625.0000520833419,
      "v": 91
    },
    {
      "midi": 66,
      "hit": false,
      "t": 149046.0650520831,
      "d": 625.0000520833419,
      "v": 99
    },
    {
      "midi": 68,
      "hit": false,
      "t": 149046.0650520831,
      "d": 625.0000520833419,
      "v": 99
    },
    {
      "midi": 66,
      "hit": false,
      "t": 149677.6440520831,
      "d": 625.0000520833419,
      "v": 97
    },
    {
      "midi": 68,
      "hit": false,
      "t": 149677.6440520831,
      "d": 625.0000520833419,
      "v": 95
    },
    {
      "midi": 64,
      "hit": false,
      "t": 149677.6440520831,
      "d": 1881.5791041666816,
      "v": 95
    },
    {
      "midi": 63,
      "hit": false,
      "t": 150000.01249999978,
      "d": 940.7895520833554,
      "v": 94
    },
    {
      "midi": 66,
      "hit": false,
      "t": 150309.2230520831,
      "d": 631.579000000027,
      "v": 95
    },
    {
      "midi": 68,
      "hit": false,
      "t": 150309.2230520831,
      "d": 638.157947916683,
      "v": 95
    },
    {
      "midi": 59,
      "hit": false,
      "t": 150625.01255208312,
      "d": 934.2106041666702,
      "v": 66
    },
    {
      "midi": 63,
      "hit": false,
      "t": 150947.3809999998,
      "d": 611.8421562500007,
      "v": 94
    },
    {
      "midi": 66,
      "hit": false,
      "t": 150947.3809999998,
      "d": 611.8421562500007,
      "v": 97
    },
    {
      "midi": 68,
      "hit": false,
      "t": 150953.95994791645,
      "d": 605.2632083333447,
      "v": 99
    },
    {
      "midi": 61,
      "hit": false,
      "t": 151572.38105208313,
      "d": 625.0000520833419,
      "v": 84
    },
    {
      "midi": 64,
      "hit": false,
      "t": 151572.38105208313,
      "d": 625.0000520833419,
      "v": 89
    },
    {
      "midi": 66,
      "hit": false,
      "t": 151572.38105208313,
      "d": 625.0000520833419,
      "v": 84
    },
    {
      "midi": 61,
      "hit": false,
      "t": 152203.96005208313,
      "d": 631.5789999999979,
      "v": 99
    },
    {
      "midi": 64,
      "hit": false,
      "t": 152203.96005208313,
      "d": 638.1579479166539,
      "v": 105
    },
    {
      "midi": 66,
      "hit": false,
      "t": 152203.96005208313,
      "d": 638.1579479166539,
      "v": 101
    },
    {
      "midi": 61,
      "hit": false,
      "t": 152842.11799999978,
      "d": 631.5789999999979,
      "v": 63
    },
    {
      "midi": 64,
      "hit": false,
      "t": 152848.69694791644,
      "d": 625.0000520833419,
      "v": 56
    },
    {
      "midi": 66,
      "hit": false,
      "t": 152848.69694791644,
      "d": 625.0000520833419,
      "v": 53
    },
    {
      "midi": 61,
      "hit": false,
      "t": 153480.27594791644,
      "d": 500.0000416666735,
      "v": 107
    },
    {
      "midi": 64,
      "hit": false,
      "t": 153480.27594791644,
      "d": 500.0000416666735,
      "v": 110
    },
    {
      "midi": 66,
      "hit": false,
      "t": 153480.27594791644,
      "d": 500.0000416666735,
      "v": 105
    },
    {
      "midi": 57,
      "hit": false,
      "t": 154098.69705208312,
      "d": 861.8421770833666,
      "v": 98
    },
    {
      "midi": 61,
      "hit": false,
      "t": 154098.69705208312,
      "d": 861.8421770833666,
      "v": 99
    },
    {
      "midi": 66,
      "hit": false,
      "t": 154098.69705208312,
      "d": 861.8421770833666,
      "v": 92
    },
    {
      "midi": 59,
      "hit": false,
      "t": 155046.06555208316,
      "d": 730.263218750013,
      "v": 105
    },
    {
      "midi": 64,
      "hit": false,
      "t": 155046.06555208316,
      "d": 730.263218750013,
      "v": 103
    },
    {
      "midi": 68,
      "hit": false,
      "t": 155046.06555208316,
      "d": 730.263218750013,
      "v": 103
    },
    {
      "midi": 57,
      "hit": false,
      "t": 155677.6445520832,
      "d": 98.68421874998603,
      "v": 94
    },
    {
      "midi": 61,
      "hit": false,
      "t": 155677.6445520832,
      "d": 98.68421874998603,
      "v": 94
    },
    {
      "midi": 66,
      "hit": false,
      "t": 155677.6445520832,
      "d": 98.68421874998603,
      "v": 89
    },
    {
      "midi": 59,
      "hit": false,
      "t": 155993.4340520832,
      "d": 394.7368750000023,
      "v": 103
    },
    {
      "midi": 68,
      "hit": false,
      "t": 155993.4340520832,
      "d": 394.7368750000023,
      "v": 99
    },
    {
      "midi": 64,
      "hit": false,
      "t": 155993.4340520832,
      "d": 407.8947708333435,
      "v": 99
    },
    {
      "midi": 57,
      "hit": false,
      "t": 156631.5919999999,
      "d": 855.2632291667105,
      "v": 98
    },
    {
      "midi": 61,
      "hit": false,
      "t": 156631.5919999999,
      "d": 855.2632291667105,
      "v": 99
    },
    {
      "midi": 66,
      "hit": false,
      "t": 156631.5919999999,
      "d": 855.2632291667105,
      "v": 92
    },
    {
      "midi": 59,
      "hit": false,
      "t": 157572.38155208327,
      "d": 730.2632187499839,
      "v": 105
    },
    {
      "midi": 64,
      "hit": false,
      "t": 157572.38155208327,
      "d": 730.2632187499839,
      "v": 103
    },
    {
      "midi": 68,
      "hit": false,
      "t": 157572.38155208327,
      "d": 730.2632187499839,
      "v": 103
    },
    {
      "midi": 57,
      "hit": false,
      "t": 158203.96055208327,
      "d": 98.68421874998603,
      "v": 94
    },
    {
      "midi": 61,
      "hit": false,
      "t": 158203.96055208327,
      "d": 98.68421874998603,
      "v": 94
    },
    {
      "midi": 66,
      "hit": false,
      "t": 158203.96055208327,
      "d": 98.68421874998603,
      "v": 89
    },
    {
      "midi": 59,
      "hit": false,
      "t": 158519.75005208325,
      "d": 394.7368750000023,
      "v": 103
    },
    {
      "midi": 68,
      "hit": false,
      "t": 158519.75005208325,
      "d": 394.7368750000023,
      "v": 99
    },
    {
      "midi": 64,
      "hit": false,
      "t": 158519.75005208325,
      "d": 407.8947708333435,
      "v": 99
    },
    {
      "midi": 57,
      "hit": false,
      "t": 159164.4869479166,
      "d": 407.8947708333435,
      "v": 98
    },
    {
      "midi": 61,
      "hit": false,
      "t": 159164.4869479166,
      "d": 407.8947708333435,
      "v": 95
    },
    {
      "midi": 66,
      "hit": false,
      "t": 159164.4869479166,
      "d": 407.8947708333435,
      "v": 91
    },
    {
      "midi": 68,
      "hit": false,
      "t": 159578.9606666666,
      "d": 407.8947708333435,
      "v": 87
    },
    {
      "midi": 59,
      "hit": false,
      "t": 159585.53961458325,
      "d": 407.8947708333435,
      "v": 66
    },
    {
      "midi": 64,
      "hit": false,
      "t": 159585.53961458325,
      "d": 407.8947708333435,
      "v": 87
    },
    {
      "midi": 61,
      "hit": false,
      "t": 160006.5922812499,
      "d": 407.8947708333144,
      "v": 97
    },
    {
      "midi": 66,
      "hit": false,
      "t": 160006.5922812499,
      "d": 407.8947708333144,
      "v": 97
    },
    {
      "midi": 69,
      "hit": false,
      "t": 160006.5922812499,
      "d": 407.8947708333144,
      "v": 105
    },
    {
      "midi": 59,
      "hit": false,
      "t": 160414.48705208322,
      "d": 407.8947708333435,
      "v": 93
    },
    {
      "midi": 64,
      "hit": false,
      "t": 160414.48705208322,
      "d": 407.8947708333435,
      "v": 108
    },
    {
      "midi": 68,
      "hit": false,
      "t": 160414.48705208322,
      "d": 407.8947708333435,
      "v": 105
    },
    {
      "midi": 61,
      "hit": false,
      "t": 160835.5397187499,
      "d": 407.8947708333144,
      "v": 99
    },
    {
      "midi": 66,
      "hit": false,
      "t": 160835.5397187499,
      "d": 407.8947708333144,
      "v": 99
    },
    {
      "midi": 57,
      "hit": false,
      "t": 160848.69761458322,
      "d": 407.8947708333435,
      "v": 96
    },
    {
      "midi": 56,
      "hit": false,
      "t": 161256.59238541656,
      "d": 407.8947708333435,
      "v": 88
    },
    {
      "midi": 59,
      "hit": false,
      "t": 161263.17133333322,
      "d": 407.8947708333435,
      "v": 94
    },
    {
      "midi": 64,
      "hit": false,
      "t": 161263.17133333322,
      "d": 407.8947708333435,
      "v": 100
    },
    {
      "midi": 57,
      "hit": false,
      "t": 161684.2239999999,
      "d": 1177.63167708338,
      "v": 90
    },
    {
      "midi": 62,
      "hit": false,
      "t": 161684.2239999999,
      "d": 1177.63167708338,
      "v": 98
    },
    {
      "midi": 66,
      "hit": false,
      "t": 161684.2239999999,
      "d": 1177.63167708338,
      "v": 88
    },
    {
      "midi": 64,
      "hit": false,
      "t": 162947.38199999995,
      "d": 578.9474166666914,
      "v": 116
    },
    {
      "midi": 57,
      "hit": false,
      "t": 162947.38199999995,
      "d": 592.1053125000326,
      "v": 105
    },
    {
      "midi": 61,
      "hit": false,
      "t": 162947.38199999995,
      "d": 625.000052083371,
      "v": 110
    },
    {
      "midi": 57,
      "hit": false,
      "t": 163578.96099999998,
      "d": 506.57898958332953,
      "v": 94
    },
    {
      "midi": 63,
      "hit": false,
      "t": 163578.96099999998,
      "d": 506.57898958332953,
      "v": 103
    },
    {
      "midi": 59,
      "hit": false,
      "t": 163578.96099999998,
      "d": 519.7368854166707,
      "v": 110
    },
    {
      "midi": 59,
      "hit": false,
      "t": 164210.53999999998,
      "d": 3828.947687500011,
      "v": 112
    },
    {
      "midi": 64,
      "hit": false,
      "t": 164210.53999999998,
      "d": 3828.947687500011,
      "v": 114
    },
    {
      "midi": 66,
      "hit": false,
      "t": 164210.53999999998,
      "d": 3828.947687500011,
      "v": 114
    },
    {
      "midi": 68,
      "hit": false,
      "t": 164210.53999999998,
      "d": 3828.947687500011,
      "v": 111
    }
  ]
}