{
  "jsonPath": "Rock/Soft Rock/Carpenters/now.json",
  "path": "Rock\\Soft Rock\\Carpenters\\Now.mid",
  "name": "Now",
  "difficulty": "Advanced",
  "bpm": 80,
  "notes": [
    {
      "midi": 69,
      "hit": false,
      "t": 6666.664,
      "d": 416.66650000000027,
      "v": 119
    },
    {
      "midi": 74,
      "hit": false,
      "t": 6666.664,
      "d": 416.66650000000027,
      "v": 127
    },
    {
      "midi": 78,
      "hit": false,
      "t": 6666.664,
      "d": 416.66650000000027,
      "v": 90
    },
    {
      "midi": 50,
      "hit": false,
      "t": 6666.664,
      "d": 833.3330000000005,
      "v": 112
    },
    {
      "midi": 57,
      "hit": false,
      "t": 7083.3305,
      "d": 416.66650000000027,
      "v": 121
    },
    {
      "midi": 62,
      "hit": false,
      "t": 7499.997,
      "d": 416.66650000000027,
      "v": 122
    },
    {
      "midi": 66,
      "hit": false,
      "t": 7916.663500000001,
      "d": 1249.999499999998,
      "v": 127
    },
    {
      "midi": 69,
      "hit": false,
      "t": 8333.33,
      "d": 833.3329999999987,
      "v": 127
    },
    {
      "midi": 74,
      "hit": false,
      "t": 8749.9965,
      "d": 416.66649999999936,
      "v": 127
    },
    {
      "midi": 78,
      "hit": false,
      "t": 9166.662999999999,
      "d": 416.66649999999936,
      "v": 127
    },
    {
      "midi": 70,
      "hit": false,
      "t": 9999.995999999997,
      "d": 833.3329999999987,
      "v": 94
    },
    {
      "midi": 73,
      "hit": false,
      "t": 9999.995999999997,
      "d": 1249.999499999998,
      "v": 121
    },
    {
      "midi": 78,
      "hit": false,
      "t": 9999.995999999997,
      "d": 1249.999499999998,
      "v": 126
    },
    {
      "midi": 50,
      "hit": false,
      "t": 9999.995999999997,
      "d": 2916.6654999999955,
      "v": 127
    },
    {
      "midi": 58,
      "hit": false,
      "t": 10416.662499999997,
      "d": 2499.998999999996,
      "v": 109
    },
    {
      "midi": 62,
      "hit": false,
      "t": 10833.328999999996,
      "d": 2083.332499999997,
      "v": 110
    },
    {
      "midi": 70,
      "hit": false,
      "t": 11249.995499999995,
      "d": 416.66649999999936,
      "v": 100
    },
    {
      "midi": 78,
      "hit": false,
      "t": 11666.661999999995,
      "d": 416.66649999999936,
      "v": 127
    },
    {
      "midi": 73,
      "hit": false,
      "t": 12083.328499999994,
      "d": 416.66649999999936,
      "v": 75
    },
    {
      "midi": 70,
      "hit": false,
      "t": 12499.994999999994,
      "d": 416.66649999999936,
      "v": 113
    },
    {
      "midi": 73,
      "hit": false,
      "t": 12916.661499999993,
      "d": 416.66649999999936,
      "v": 127
    },
    {
      "midi": 71,
      "hit": false,
      "t": 13333.327999999992,
      "d": 833.3330000000005,
      "v": 120
    },
    {
      "midi": 74,
      "hit": false,
      "t": 13333.327999999992,
      "d": 833.3330000000005,
      "v": 127
    },
    {
      "midi": 78,
      "hit": false,
      "t": 13333.327999999992,
      "d": 833.3330000000005,
      "v": 127
    },
    {
      "midi": 50,
      "hit": false,
      "t": 13333.327999999992,
      "d": 2916.6654999999973,
      "v": 122
    },
    {
      "midi": 59,
      "hit": false,
      "t": 13749.994499999993,
      "d": 2499.998999999996,
      "v": 120
    },
    {
      "midi": 62,
      "hit": false,
      "t": 14166.660999999993,
      "d": 1249.999499999998,
      "v": 119
    },
    {
      "midi": 71,
      "hit": false,
      "t": 14583.327499999992,
      "d": 416.66649999999936,
      "v": 127
    },
    {
      "midi": 78,
      "hit": false,
      "t": 14999.993999999992,
      "d": 833.3329999999987,
      "v": 127
    },
    {
      "midi": 74,
      "hit": false,
      "t": 15416.66049999999,
      "d": 416.66649999999936,
      "v": 127
    },
    {
      "midi": 71,
      "hit": false,
      "t": 15833.32699999999,
      "d": 416.66649999999936,
      "v": 127
    },
    {
      "midi": 74,
      "hit": false,
      "t": 16249.99349999999,
      "d": 416.66649999999936,
      "v": 127
    },
    {
      "midi": 69,
      "hit": false,
      "t": 16666.65999999999,
      "d": 833.3329999999987,
      "v": 116
    },
    {
      "midi": 72,
      "hit": false,
      "t": 16666.65999999999,
      "d": 833.3329999999987,
      "v": 127
    },
    {
      "midi": 78,
      "hit": false,
      "t": 16666.65999999999,
      "d": 833.3329999999987,
      "v": 116
    },
    {
      "midi": 50,
      "hit": false,
      "t": 16666.65999999999,
      "d": 2499.998999999996,
      "v": 123
    },
    {
      "midi": 57,
      "hit": false,
      "t": 17083.32649999999,
      "d": 2083.332499999997,
      "v": 118
    },
    {
      "midi": 62,
      "hit": false,
      "t": 17499.992999999988,
      "d": 833.3329999999987,
      "v": 115
    },
    {
      "midi": 69,
      "hit": false,
      "t": 17916.659499999987,
      "d": 416.66649999999936,
      "v": 126
    },
    {
      "midi": 78,
      "hit": false,
      "t": 18333.325999999986,
      "d": 416.66649999999936,
      "v": 127
    },
    {
      "midi": 72,
      "hit": false,
      "t": 18749.992499999986,
      "d": 416.66649999999936,
      "v": 127
    },
    {
      "midi": 81,
      "hit": false,
      "t": 19166.658999999985,
      "d": 416.66649999999936,
      "v": 127
    },
    {
      "midi": 78,
      "hit": false,
      "t": 19583.325499999984,
      "d": 416.66649999999936,
      "v": 114
    },
    {
      "midi": 55,
      "hit": false,
      "t": 19999.991999999984,
      "d": 1249.999499999998,
      "v": 127
    },
    {
      "midi": 71,
      "hit": false,
      "t": 20416.658499999983,
      "d": 416.66649999999936,
      "v": 127
    },
    {
      "midi": 62,
      "hit": false,
      "t": 20416.658499999983,
      "d": 833.3329999999987,
      "v": 127
    },
    {
      "midi": 67,
      "hit": false,
      "t": 20833.324999999983,
      "d": 416.66649999999936,
      "v": 119
    },
    {
      "midi": 74,
      "hit": false,
      "t": 20833.324999999983,
      "d": 416.66649999999936,
      "v": 127
    },
    {
      "midi": 79,
      "hit": false,
      "t": 21249.991499999982,
      "d": 416.66649999999936,
      "v": 126
    },
    {
      "midi": 55,
      "hit": false,
      "t": 21666.65799999998,
      "d": 833.3330000000024,
      "v": 125
    },
    {
      "midi": 73,
      "hit": false,
      "t": 21666.65799999998,
      "d": 833.3330000000024,
      "v": 73
    },
    {
      "midi": 76,
      "hit": false,
      "t": 21666.65799999998,
      "d": 833.3330000000024,
      "v": 120
    },
    {
      "midi": 81,
      "hit": false,
      "t": 21666.65799999998,
      "d": 833.3330000000024,
      "v": 127
    },
    {
      "midi": 67,
      "hit": false,
      "t": 22499.990999999984,
      "d": 416.66649999999936,
      "v": 120
    },
    {
      "midi": 73,
      "hit": false,
      "t": 22499.990999999984,
      "d": 416.66649999999936,
      "v": 127
    },
    {
      "midi": 73,
      "hit": false,
      "t": 23333.323999999982,
      "d": 416.66649999999936,
      "v": 127
    },
    {
      "midi": 81,
      "hit": false,
      "t": 23333.323999999982,
      "d": 416.66649999999936,
      "v": 127
    },
    {
      "midi": 54,
      "hit": false,
      "t": 23333.323999999982,
      "d": 833.3329999999987,
      "v": 127
    },
    {
      "midi": 66,
      "hit": false,
      "t": 23749.99049999998,
      "d": 416.66649999999936,
      "v": 99
    },
    {
      "midi": 69,
      "hit": false,
      "t": 23749.99049999998,
      "d": 416.66649999999936,
      "v": 120
    },
    {
      "midi": 76,
      "hit": false,
      "t": 23749.99049999998,
      "d": 416.66649999999936,
      "v": 127
    },
    {
      "midi": 73,
      "hit": false,
      "t": 24166.65699999998,
      "d": 416.66649999999936,
      "v": 127
    },
    {
      "midi": 69,
      "hit": false,
      "t": 24583.32349999998,
      "d": 416.66649999999936,
      "v": 123
    },
    {
      "midi": 69,
      "hit": false,
      "t": 24999.98999999998,
      "d": 416.66649999999936,
      "v": 105
    },
    {
      "midi": 74,
      "hit": false,
      "t": 24999.98999999998,
      "d": 416.66649999999936,
      "v": 121
    },
    {
      "midi": 59,
      "hit": false,
      "t": 24999.98999999998,
      "d": 833.3329999999987,
      "v": 127
    },
    {
      "midi": 66,
      "hit": false,
      "t": 24999.98999999998,
      "d": 833.3329999999987,
      "v": 110
    },
    {
      "midi": 78,
      "hit": false,
      "t": 24999.98999999998,
      "d": 833.3329999999987,
      "v": 127
    },
    {
      "midi": 69,
      "hit": false,
      "t": 25416.65649999998,
      "d": 416.66649999999936,
      "v": 127
    },
    {
      "midi": 62,
      "hit": false,
      "t": 25833.32299999998,
      "d": 416.66649999999936,
      "v": 127
    },
    {
      "midi": 83,
      "hit": false,
      "t": 26249.989499999978,
      "d": 416.66649999999936,
      "v": 116
    },
    {
      "midi": 83,
      "hit": false,
      "t": 26666.655999999977,
      "d": 555.5553333333337,
      "v": 127
    },
    {
      "midi": 52,
      "hit": false,
      "t": 26666.655999999977,
      "d": 1666.666000000001,
      "v": 127
    },
    {
      "midi": 64,
      "hit": false,
      "t": 26666.655999999977,
      "d": 1666.666000000001,
      "v": 127
    },
    {
      "midi": 74,
      "hit": false,
      "t": 26666.655999999977,
      "d": 1666.666000000001,
      "v": 127
    },
    {
      "midi": 81,
      "hit": false,
      "t": 27222.21133333331,
      "d": 555.5553333333337,
      "v": 127
    },
    {
      "midi": 79,
      "hit": false,
      "t": 27777.766666666645,
      "d": 555.5553333333337,
      "v": 127
    },
    {
      "midi": 78,
      "hit": false,
      "t": 28333.32199999998,
      "d": 555.5553333333337,
      "v": 127
    },
    {
      "midi": 54,
      "hit": false,
      "t": 28333.32199999998,
      "d": 1666.666000000001,
      "v": 127
    },
    {
      "midi": 66,
      "hit": false,
      "t": 28333.32199999998,
      "d": 1666.666000000001,
      "v": 127
    },
    {
      "midi": 69,
      "hit": false,
      "t": 28333.32199999998,
      "d": 1666.666000000001,
      "v": 127
    },
    {
      "midi": 74,
      "hit": false,
      "t": 28333.32199999998,
      "d": 1666.666000000001,
      "v": 127
    },
    {
      "midi": 79,
      "hit": false,
      "t": 28888.877333333312,
      "d": 555.5553333333337,
      "v": 127
    },
    {
      "midi": 81,
      "hit": false,
      "t": 29444.432666666646,
      "d": 555.5553333333337,
      "v": 127
    },
    {
      "midi": 71,
      "hit": false,
      "t": 29999.98799999998,
      "d": 833.3329999999951,
      "v": 119
    },
    {
      "midi": 74,
      "hit": false,
      "t": 29999.98799999998,
      "d": 833.3329999999951,
      "v": 119
    },
    {
      "midi": 78,
      "hit": false,
      "t": 29999.98799999998,
      "d": 833.3329999999951,
      "v": 119
    },
    {
      "midi": 43,
      "hit": false,
      "t": 29999.98799999998,
      "d": 1666.6659999999938,
      "v": 119
    },
    {
      "midi": 71,
      "hit": false,
      "t": 30833.320999999974,
      "d": 833.3329999999987,
      "v": 119
    },
    {
      "midi": 74,
      "hit": false,
      "t": 30833.320999999974,
      "d": 833.3329999999987,
      "v": 119
    },
    {
      "midi": 62,
      "hit": false,
      "t": 31666.653999999973,
      "d": 416.666500000003,
      "v": 119
    },
    {
      "midi": 71,
      "hit": false,
      "t": 31666.653999999973,
      "d": 833.3330000000024,
      "v": 119
    },
    {
      "midi": 45,
      "hit": false,
      "t": 31666.653999999973,
      "d": 1249.9995000000054,
      "v": 119
    },
    {
      "midi": 59,
      "hit": false,
      "t": 32083.320499999976,
      "d": 416.66649999999936,
      "v": 119
    },
    {
      "midi": 61,
      "hit": false,
      "t": 32499.986999999976,
      "d": 833.3330000000024,
      "v": 119
    },
    {
      "midi": 69,
      "hit": false,
      "t": 32499.986999999976,
      "d": 833.3330000000024,
      "v": 119
    },
    {
      "midi": 57,
      "hit": false,
      "t": 32916.65349999998,
      "d": 416.66649999999936,
      "v": 119
    },
    {
      "midi": 57,
      "hit": false,
      "t": 33333.31999999998,
      "d": 416.66649999999936,
      "v": 114
    },
    {
      "midi": 66,
      "hit": false,
      "t": 33333.31999999998,
      "d": 416.66649999999936,
      "v": 127
    },
    {
      "midi": 62,
      "hit": false,
      "t": 33333.31999999998,
      "d": 833.3329999999987,
      "v": 118
    },
    {
      "midi": 38,
      "hit": false,
      "t": 33333.31999999998,
      "d": 1249.999499999998,
      "v": 124
    },
    {
      "midi": 45,
      "hit": false,
      "t": 33749.98649999998,
      "d": 416.66649999999936,
      "v": 127
    },
    {
      "midi": 45,
      "hit": false,
      "t": 34166.65299999998,
      "d": 416.66649999999936,
      "v": 86
    },
    {
      "midi": 50,
      "hit": false,
      "t": 34166.65299999998,
      "d": 416.66649999999936,
      "v": 127
    },
    {
      "midi": 57,
      "hit": false,
      "t": 34166.65299999998,
      "d": 416.66649999999936,
      "v": 126
    },
    {
      "midi": 64,
      "hit": false,
      "t": 34166.65299999998,
      "d": 416.66649999999936,
      "v": 127
    },
    {
      "midi": 66,
      "hit": false,
      "t": 34166.65299999998,
      "d": 416.66649999999936,
      "v": 127
    },
    {
      "midi": 62,
      "hit": false,
      "t": 34583.319499999976,
      "d": 416.66649999999936,
      "v": 127
    },
    {
      "midi": 57,
      "hit": false,
      "t": 34999.985999999975,
      "d": 416.6664999999921,
      "v": 125
    },
    {
      "midi": 61,
      "hit": false,
      "t": 34999.985999999975,
      "d": 416.6664999999921,
      "v": 127
    },
    {
      "midi": 64,
      "hit": false,
      "t": 34999.985999999975,
      "d": 416.6664999999921,
      "v": 127
    },
    {
      "midi": 49,
      "hit": false,
      "t": 34999.985999999975,
      "d": 1249.9994999999908,
      "v": 121
    },
    {
      "midi": 57,
      "hit": false,
      "t": 35416.65249999997,
      "d": 416.66649999999936,
      "v": 121
    },
    {
      "midi": 69,
      "hit": false,
      "t": 35833.31899999997,
      "d": 416.66649999999936,
      "v": 127
    },
    {
      "midi": 61,
      "hit": false,
      "t": 36249.985499999966,
      "d": 416.66649999999936,
      "v": 111
    },
    {
      "midi": 57,
      "hit": false,
      "t": 36666.651999999965,
      "d": 416.6664999999921,
      "v": 114
    },
    {
      "midi": 60,
      "hit": false,
      "t": 36666.651999999965,
      "d": 416.6664999999921,
      "v": 125
    },
    {
      "midi": 66,
      "hit": false,
      "t": 36666.651999999965,
      "d": 833.3329999999914,
      "v": 114
    },
    {
      "midi": 48,
      "hit": false,
      "t": 36666.651999999965,
      "d": 1249.9994999999908,
      "v": 127
    },
    {
      "midi": 57,
      "hit": false,
      "t": 37083.31849999996,
      "d": 416.66649999999936,
      "v": 121
    },
    {
      "midi": 60,
      "hit": false,
      "t": 37499.98499999996,
      "d": 416.66649999999936,
      "v": 117
    },
    {
      "midi": 66,
      "hit": false,
      "t": 37916.651499999956,
      "d": 416.66649999999936,
      "v": 121
    },
    {
      "midi": 57,
      "hit": false,
      "t": 38333.317999999956,
      "d": 416.66649999999936,
      "v": 113
    },
    {
      "midi": 63,
      "hit": false,
      "t": 38333.317999999956,
      "d": 416.66649999999936,
      "v": 127
    },
    {
      "midi": 67,
      "hit": false,
      "t": 38333.317999999956,
      "d": 416.66649999999936,
      "v": 119
    },
    {
      "midi": 47,
      "hit": false,
      "t": 38333.317999999956,
      "d": 833.3329999999987,
      "v": 126
    },
    {
      "midi": 54,
      "hit": false,
      "t": 38333.317999999956,
      "d": 833.3329999999987,
      "v": 116
    },
    {
      "midi": 66,
      "hit": false,
      "t": 39166.650999999954,
      "d": 416.66649999999936,
      "v": 127
    },
    {
      "midi": 40,
      "hit": false,
      "t": 39999.98399999995,
      "d": 1249.999499999998,
      "v": 127
    },
    {
      "midi": 59,
      "hit": false,
      "t": 39999.98399999995,
      "d": 1249.999499999998,
      "v": 127
    },
    {
      "midi": 62,
      "hit": false,
      "t": 39999.98399999995,
      "d": 1249.999499999998,
      "v": 121
    },
    {
      "midi": 64,
      "hit": false,
      "t": 39999.98399999995,
      "d": 1249.999499999998,
      "v": 117
    },
    {
      "midi": 67,
      "hit": false,
      "t": 39999.98399999995,
      "d": 1249.999499999998,
      "v": 127
    },
    {
      "midi": 47,
      "hit": false,
      "t": 40416.65049999995,
      "d": 833.3329999999987,
      "v": 127
    },
    {
      "midi": 52,
      "hit": false,
      "t": 40833.31699999995,
      "d": 416.66649999999936,
      "v": 127
    },
    {
      "midi": 55,
      "hit": false,
      "t": 41249.98349999995,
      "d": 416.66649999999936,
      "v": 120
    },
    {
      "midi": 38,
      "hit": false,
      "t": 41666.64999999995,
      "d": 1249.999499999998,
      "v": 124
    },
    {
      "midi": 59,
      "hit": false,
      "t": 41666.64999999995,
      "d": 1249.999499999998,
      "v": 127
    },
    {
      "midi": 62,
      "hit": false,
      "t": 41666.64999999995,
      "d": 1249.999499999998,
      "v": 127
    },
    {
      "midi": 64,
      "hit": false,
      "t": 41666.64999999995,
      "d": 1249.999499999998,
      "v": 127
    },
    {
      "midi": 67,
      "hit": false,
      "t": 41666.64999999995,
      "d": 1249.999499999998,
      "v": 127
    },
    {
      "midi": 47,
      "hit": false,
      "t": 42083.31649999995,
      "d": 833.3329999999987,
      "v": 123
    },
    {
      "midi": 50,
      "hit": false,
      "t": 42499.98299999995,
      "d": 416.66649999999936,
      "v": 125
    },
    {
      "midi": 55,
      "hit": false,
      "t": 42916.64949999995,
      "d": 416.66649999999936,
      "v": 118
    },
    {
      "midi": 61,
      "hit": false,
      "t": 43333.31599999995,
      "d": 416.66649999999936,
      "v": 126
    },
    {
      "midi": 64,
      "hit": false,
      "t": 43333.31599999995,
      "d": 416.66649999999936,
      "v": 127
    },
    {
      "midi": 67,
      "hit": false,
      "t": 43333.31599999995,
      "d": 416.66649999999936,
      "v": 127
    },
    {
      "midi": 37,
      "hit": false,
      "t": 43333.31599999995,
      "d": 833.3329999999987,
      "v": 127
    },
    {
      "midi": 49,
      "hit": false,
      "t": 43749.98249999995,
      "d": 416.66649999999936,
      "v": 118
    },
    {
      "midi": 64,
      "hit": false,
      "t": 44166.64899999995,
      "d": 416.66649999999936,
      "v": 127
    },
    {
      "midi": 67,
      "hit": false,
      "t": 44166.64899999995,
      "d": 416.66649999999936,
      "v": 127
    },
    {
      "midi": 61,
      "hit": false,
      "t": 44583.315499999946,
      "d": 416.66649999999936,
      "v": 127
    },
    {
      "midi": 58,
      "hit": false,
      "t": 44999.981999999945,
      "d": 416.66649999999936,
      "v": 110
    },
    {
      "midi": 61,
      "hit": false,
      "t": 44999.981999999945,
      "d": 416.66649999999936,
      "v": 127
    },
    {
      "midi": 42,
      "hit": false,
      "t": 44999.981999999945,
      "d": 833.3329999999987,
      "v": 123
    },
    {
      "midi": 49,
      "hit": false,
      "t": 45416.648499999945,
      "d": 833.3329999999987,
      "v": 79
    },
    {
      "midi": 54,
      "hit": false,
      "t": 45833.314999999944,
      "d": 416.66649999999936,
      "v": 127
    },
    {
      "midi": 58,
      "hit": false,
      "t": 45833.314999999944,
      "d": 416.66649999999936,
      "v": 125
    },
    {
      "midi": 61,
      "hit": false,
      "t": 45833.314999999944,
      "d": 416.66649999999936,
      "v": 127
    },
    {
      "midi": 66,
      "hit": false,
      "t": 45833.314999999944,
      "d": 416.66649999999936,
      "v": 127
    },
    {
      "midi": 64,
      "hit": false,
      "t": 46249.98149999994,
      "d": 416.66649999999936,
      "v": 127
    },
    {
      "midi": 59,
      "hit": false,
      "t": 46666.64799999994,
      "d": 416.66649999999936,
      "v": 127
    },
    {
      "midi": 62,
      "hit": false,
      "t": 46666.64799999994,
      "d": 416.66649999999936,
      "v": 127
    },
    {
      "midi": 66,
      "hit": false,
      "t": 46666.64799999994,
      "d": 416.66649999999936,
      "v": 123
    },
    {
      "midi": 47,
      "hit": false,
      "t": 46666.64799999994,
      "d": 1249.999499999998,
      "v": 127
    },
    {
      "midi": 54,
      "hit": false,
      "t": 47083.31449999994,
      "d": 833.3329999999987,
      "v": 121
    },
    {
      "midi": 59,
      "hit": false,
      "t": 47499.98099999994,
      "d": 416.66649999999936,
      "v": 123
    },
    {
      "midi": 62,
      "hit": false,
      "t": 47916.64749999994,
      "d": 416.66649999999936,
      "v": 127
    },
    {
      "midi": 71,
      "hit": false,
      "t": 47916.64749999994,
      "d": 416.66649999999936,
      "v": 120
    },
    {
      "midi": 45,
      "hit": false,
      "t": 48333.31399999994,
      "d": 833.3329999999987,
      "v": 127
    },
    {
      "midi": 62,
      "hit": false,
      "t": 48333.31399999994,
      "d": 833.3329999999987,
      "v": 124
    },
    {
      "midi": 71,
      "hit": false,
      "t": 48333.31399999994,
      "d": 833.3329999999987,
      "v": 127
    },
    {
      "midi": 54,
      "hit": false,
      "t": 48749.98049999994,
      "d": 416.66649999999936,
      "v": 125
    },
    {
      "midi": 59,
      "hit": false,
      "t": 49166.64699999994,
      "d": 416.66649999999936,
      "v": 122
    },
    {
      "midi": 62,
      "hit": false,
      "t": 49583.31349999994,
      "d": 416.66649999999936,
      "v": 120
    },
    {
      "midi": 55,
      "hit": false,
      "t": 49999.97999999994,
      "d": 416.66649999999936,
      "v": 112
    },
    {
      "midi": 59,
      "hit": false,
      "t": 49999.97999999994,
      "d": 833.3329999999987,
      "v": 127
    },
    {
      "midi": 62,
      "hit": false,
      "t": 49999.97999999994,
      "d": 833.3329999999987,
      "v": 127
    },
    {
      "midi": 66,
      "hit": false,
      "t": 49999.97999999994,
      "d": 833.3329999999987,
      "v": 127
    },
    {
      "midi": 43,
      "hit": false,
      "t": 49999.97999999994,
      "d": 2916.6654999999955,
      "v": 127
    },
    {
      "midi": 50,
      "hit": false,
      "t": 50416.64649999994,
      "d": 2916.6654999999955,
      "v": 127
    },
    {
      "midi": 55,
      "hit": false,
      "t": 50833.31299999994,
      "d": 1666.6659999999974,
      "v": 127
    },
    {
      "midi": 59,
      "hit": false,
      "t": 51249.979499999936,
      "d": 416.66649999999936,
      "v": 127
    },
    {
      "midi": 66,
      "hit": false,
      "t": 51666.645999999935,
      "d": 416.66649999999936,
      "v": 127
    },
    {
      "midi": 64,
      "hit": false,
      "t": 52083.312499999935,
      "d": 416.66649999999936,
      "v": 124
    },
    {
      "midi": 62,
      "hit": false,
      "t": 52499.978999999934,
      "d": 416.66649999999936,
      "v": 127
    },
    {
      "midi": 59,
      "hit": false,
      "t": 52916.64549999993,
      "d": 416.66649999999936,
      "v": 127
    },
    {
      "midi": 55,
      "hit": false,
      "t": 53333.31199999993,
      "d": 416.66649999999936,
      "v": 127
    },
    {
      "midi": 59,
      "hit": false,
      "t": 53333.31199999993,
      "d": 416.66649999999936,
      "v": 127
    },
    {
      "midi": 62,
      "hit": false,
      "t": 53333.31199999993,
      "d": 416.66649999999936,
      "v": 127
    },
    {
      "midi": 45,
      "hit": false,
      "t": 53333.31199999993,
      "d": 1249.999499999998,
      "v": 127
    },
    {
      "midi": 55,
      "hit": false,
      "t": 53749.97849999993,
      "d": 416.66649999999936,
      "v": 126
    },
    {
      "midi": 59,
      "hit": false,
      "t": 54166.64499999993,
      "d": 416.66649999999936,
      "v": 122
    },
    {
      "midi": 62,
      "hit": false,
      "t": 54166.64499999993,
      "d": 416.66649999999936,
      "v": 127
    },
    {
      "midi": 67,
      "hit": false,
      "t": 54166.64499999993,
      "d": 416.66649999999936,
      "v": 127
    },
    {
      "midi": 55,
      "hit": false,
      "t": 54583.31149999993,
      "d": 416.66649999999936,
      "v": 124
    },
    {
      "midi": 55,
      "hit": false,
      "t": 54999.97799999993,
      "d": 416.66649999999936,
      "v": 113
    },
    {
      "midi": 61,
      "hit": false,
      "t": 54999.97799999993,
      "d": 416.66649999999936,
      "v": 122
    },
    {
      "midi": 64,
      "hit": false,
      "t": 54999.97799999993,
      "d": 416.66649999999936,
      "v": 127
    },
    {
      "midi": 45,
      "hit": false,
      "t": 54999.97799999993,
      "d": 1249.999499999998,
      "v": 122
    },
    {
      "midi": 55,
      "hit": false,
      "t": 55416.64449999993,
      "d": 833.3329999999987,
      "v": 118
    },
    {
      "midi": 61,
      "hit": false,
      "t": 55833.31099999993,
      "d": 416.66649999999936,
      "v": 127
    },
    {
      "midi": 64,
      "hit": false,
      "t": 56249.97749999993,
      "d": 416.66649999999936,
      "v": 116
    },
    {
      "midi": 59,
      "hit": false,
      "t": 56666.64399999993,
      "d": 833.3329999999987,
      "v": 116
    },
    {
      "midi": 62,
      "hit": false,
      "t": 56666.64399999993,
      "d": 833.3329999999987,
      "v": 127
    },
    {
      "midi": 66,
      "hit": false,
      "t": 56666.64399999993,
      "d": 833.3329999999987,
      "v": 127
    },
    {
      "midi": 43,
      "hit": false,
      "t": 56666.64399999993,
      "d": 1249.999499999998,
      "v": 127
    },
    {
      "midi": 50,
      "hit": false,
      "t": 57083.31049999993,
      "d": 833.3329999999987,
      "v": 127
    },
    {
      "midi": 55,
      "hit": false,
      "t": 57499.976999999926,
      "d": 416.66649999999936,
      "v": 125
    },
    {
      "midi": 71,
      "hit": false,
      "t": 57916.643499999926,
      "d": 416.66649999999936,
      "v": 125
    },
    {
      "midi": 83,
      "hit": false,
      "t": 58333.309999999925,
      "d": 416.66649999999936,
      "v": 127
    },
    {
      "midi": 43,
      "hit": false,
      "t": 58333.309999999925,
      "d": 1249.999499999998,
      "v": 125
    },
    {
      "midi": 78,
      "hit": false,
      "t": 58749.976499999924,
      "d": 416.66649999999936,
      "v": 127
    },
    {
      "midi": 50,
      "hit": false,
      "t": 58749.976499999924,
      "d": 833.3329999999987,
      "v": 127
    },
    {
      "midi": 55,
      "hit": false,
      "t": 59166.64299999992,
      "d": 416.66649999999936,
      "v": 126
    },
    {
      "midi": 74,
      "hit": false,
      "t": 59166.64299999992,
      "d": 416.66649999999936,
      "v": 127
    },
    {
      "midi": 71,
      "hit": false,
      "t": 59583.30949999992,
      "d": 416.66649999999936,
      "v": 127
    },
    {
      "midi": 55,
      "hit": false,
      "t": 59999.97599999992,
      "d": 416.66649999999936,
      "v": 123
    },
    {
      "midi": 59,
      "hit": false,
      "t": 59999.97599999992,
      "d": 416.66649999999936,
      "v": 127
    },
    {
      "midi": 62,
      "hit": false,
      "t": 59999.97599999992,
      "d": 833.3329999999987,
      "v": 127
    },
    {
      "midi": 45,
      "hit": false,
      "t": 59999.97599999992,
      "d": 1249.999499999998,
      "v": 127
    },
    {
      "midi": 55,
      "hit": false,
      "t": 60416.64249999992,
      "d": 833.3329999999987,
      "v": 121
    },
    {
      "midi": 59,
      "hit": false,
      "t": 60833.30899999992,
      "d": 416.66649999999936,
      "v": 127
    },
    {
      "midi": 62,
      "hit": false,
      "t": 61249.97549999992,
      "d": 416.66649999999936,
      "v": 126
    },
    {
      "midi": 55,
      "hit": false,
      "t": 61666.64199999992,
      "d": 416.66649999999936,
      "v": 116
    },
    {
      "midi": 64,
      "hit": false,
      "t": 61666.64199999992,
      "d": 416.66649999999936,
      "v": 127
    },
    {
      "midi": 61,
      "hit": false,
      "t": 61666.64199999992,
      "d": 833.3329999999987,
      "v": 127
    },
    {
      "midi": 45,
      "hit": false,
      "t": 61666.64199999992,
      "d": 1249.999499999998,
      "v": 116
    },
    {
      "midi": 55,
      "hit": false,
      "t": 62083.30849999992,
      "d": 416.66649999999936,
      "v": 113
    },
    {
      "midi": 61,
      "hit": false,
      "t": 62499.97499999992,
      "d": 416.66649999999936,
      "v": 97
    },
    {
      "midi": 64,
      "hit": false,
      "t": 62499.97499999992,
      "d": 416.66649999999936,
      "v": 127
    },
    {
      "midi": 67,
      "hit": false,
      "t": 62499.97499999992,
      "d": 416.66649999999936,
      "v": 127
    },
    {
      "midi": 55,
      "hit": false,
      "t": 62916.64149999992,
      "d": 416.66649999999936,
      "v": 110
    },
    {
      "midi": 62,
      "hit": false,
      "t": 63326.36355833325,
      "d": 1013.8884833333359,
      "v": 127
    },
    {
      "midi": 57,
      "hit": false,
      "t": 63333.30799999992,
      "d": 833.333000000006,
      "v": 107
    },
    {
      "midi": 38,
      "hit": false,
      "t": 63333.30799999992,
      "d": 1076.3884583333347,
      "v": 124
    },
    {
      "midi": 57,
      "hit": false,
      "t": 63333.308,
      "d": 416.66649999999936,
      "v": 94
    },
    {
      "midi": 64,
      "hit": false,
      "t": 63333.308,
      "d": 416.66649999999936,
      "v": 103
    },
    {
      "midi": 66,
      "hit": false,
      "t": 63333.308,
      "d": 416.66649999999936,
      "v": 109
    },
    {
      "midi": 38,
      "hit": false,
      "t": 63333.308,
      "d": 833.3329999999987,
      "v": 92
    },
    {
      "midi": 66,
      "hit": false,
      "t": 63354.14132499992,
      "d": 999.9996000000028,
      "v": 127
    },
    {
      "midi": 45,
      "hit": false,
      "t": 63749.9745,
      "d": 416.66649999999936,
      "v": 94
    },
    {
      "midi": 50,
      "hit": false,
      "t": 64166.640999999996,
      "d": 416.66649999999936,
      "v": 76
    },
    {
      "midi": 57,
      "hit": false,
      "t": 64166.640999999996,
      "d": 416.66649999999936,
      "v": 96
    },
    {
      "midi": 64,
      "hit": false,
      "t": 64166.640999999996,
      "d": 416.66649999999936,
      "v": 110
    },
    {
      "midi": 66,
      "hit": false,
      "t": 64166.640999999996,
      "d": 416.66649999999936,
      "v": 105
    },
    {
      "midi": 57,
      "hit": false,
      "t": 64583.307499999995,
      "d": 416.66649999999936,
      "v": 91
    },
    {
      "midi": 57,
      "hit": false,
      "t": 64999.973999999995,
      "d": 416.66649999999936,
      "v": 93
    },
    {
      "midi": 61,
      "hit": false,
      "t": 64999.973999999995,
      "d": 416.66649999999936,
      "v": 93
    },
    {
      "midi": 64,
      "hit": false,
      "t": 64999.973999999995,
      "d": 416.66649999999936,
      "v": 105
    },
    {
      "midi": 49,
      "hit": false,
      "t": 64999.973999999995,
      "d": 1249.9995000000126,
      "v": 97
    },
    {
      "midi": 57,
      "hit": false,
      "t": 65416.640499999994,
      "d": 416.66650000000664,
      "v": 95
    },
    {
      "midi": 61,
      "hit": false,
      "t": 65833.307,
      "d": 416.66650000000664,
      "v": 94
    },
    {
      "midi": 69,
      "hit": false,
      "t": 65833.307,
      "d": 416.66650000000664,
      "v": 95
    },
    {
      "midi": 64,
      "hit": false,
      "t": 66249.97350000001,
      "d": 416.66650000000664,
      "v": 104
    },
    {
      "midi": 57,
      "hit": false,
      "t": 66666.64000000001,
      "d": 416.6664999999921,
      "v": 90
    },
    {
      "midi": 60,
      "hit": false,
      "t": 66666.64000000001,
      "d": 416.6664999999921,
      "v": 110
    },
    {
      "midi": 66,
      "hit": false,
      "t": 66666.64000000001,
      "d": 416.6664999999921,
      "v": 101
    },
    {
      "midi": 48,
      "hit": false,
      "t": 66666.64000000001,
      "d": 1249.9995000000054,
      "v": 111
    },
    {
      "midi": 57,
      "hit": false,
      "t": 67083.3065,
      "d": 416.66650000000664,
      "v": 87
    },
    {
      "midi": 60,
      "hit": false,
      "t": 67499.97300000001,
      "d": 416.66650000000664,
      "v": 104
    },
    {
      "midi": 66,
      "hit": false,
      "t": 67916.63950000002,
      "d": 416.66650000000664,
      "v": 88
    },
    {
      "midi": 57,
      "hit": false,
      "t": 68333.30600000003,
      "d": 416.6664999999921,
      "v": 95
    },
    {
      "midi": 63,
      "hit": false,
      "t": 68333.30600000003,
      "d": 416.6664999999921,
      "v": 49
    },
    {
      "midi": 67,
      "hit": false,
      "t": 68333.30600000003,
      "d": 416.6664999999921,
      "v": 81
    },
    {
      "midi": 47,
      "hit": false,
      "t": 68333.30600000003,
      "d": 1249.9995000000054,
      "v": 103
    },
    {
      "midi": 57,
      "hit": false,
      "t": 68749.97250000002,
      "d": 416.66650000000664,
      "v": 77
    },
    {
      "midi": 63,
      "hit": false,
      "t": 69166.63900000002,
      "d": 416.66650000000664,
      "v": 101
    },
    {
      "midi": 66,
      "hit": false,
      "t": 69166.63900000002,
      "d": 416.66650000000664,
      "v": 100
    },
    {
      "midi": 57,
      "hit": false,
      "t": 69583.30550000003,
      "d": 416.66650000000664,
      "v": 85
    },
    {
      "midi": 40,
      "hit": false,
      "t": 69999.97200000004,
      "d": 833.3329999999987,
      "v": 102
    },
    {
      "midi": 59,
      "hit": false,
      "t": 69999.97200000004,
      "d": 833.3329999999987,
      "v": 106
    },
    {
      "midi": 62,
      "hit": false,
      "t": 69999.97200000004,
      "d": 833.3329999999987,
      "v": 103
    },
    {
      "midi": 64,
      "hit": false,
      "t": 69999.97200000004,
      "d": 833.3329999999987,
      "v": 103
    },
    {
      "midi": 67,
      "hit": false,
      "t": 69999.97200000004,
      "d": 833.3329999999987,
      "v": 111
    },
    {
      "midi": 47,
      "hit": false,
      "t": 70416.63850000003,
      "d": 833.3330000000133,
      "v": 90
    },
    {
      "midi": 52,
      "hit": false,
      "t": 70833.30500000004,
      "d": 416.66650000000664,
      "v": 108
    },
    {
      "midi": 55,
      "hit": false,
      "t": 71249.97150000004,
      "d": 416.66650000000664,
      "v": 90
    },
    {
      "midi": 38,
      "hit": false,
      "t": 71666.63800000005,
      "d": 833.3329999999987,
      "v": 89
    },
    {
      "midi": 59,
      "hit": false,
      "t": 71666.63800000005,
      "d": 833.3329999999987,
      "v": 96
    },
    {
      "midi": 62,
      "hit": false,
      "t": 71666.63800000005,
      "d": 833.3329999999987,
      "v": 101
    },
    {
      "midi": 64,
      "hit": false,
      "t": 71666.63800000005,
      "d": 833.3329999999987,
      "v": 107
    },
    {
      "midi": 67,
      "hit": false,
      "t": 71666.63800000005,
      "d": 833.3329999999987,
      "v": 103
    },
    {
      "midi": 47,
      "hit": false,
      "t": 72083.30450000004,
      "d": 416.66650000000664,
      "v": 92
    },
    {
      "midi": 50,
      "hit": false,
      "t": 72499.97100000005,
      "d": 416.66650000000664,
      "v": 92
    },
    {
      "midi": 55,
      "hit": false,
      "t": 72916.63750000006,
      "d": 416.66650000000664,
      "v": 77
    },
    {
      "midi": 61,
      "hit": false,
      "t": 73333.30400000006,
      "d": 416.6664999999921,
      "v": 94
    },
    {
      "midi": 64,
      "hit": false,
      "t": 73333.30400000006,
      "d": 416.6664999999921,
      "v": 94
    },
    {
      "midi": 37,
      "hit": false,
      "t": 73333.30400000006,
      "d": 833.3329999999987,
      "v": 69
    },
    {
      "midi": 49,
      "hit": false,
      "t": 73333.30400000006,
      "d": 833.3329999999987,
      "v": 91
    },
    {
      "midi": 55,
      "hit": false,
      "t": 73749.97050000005,
      "d": 416.66650000000664,
      "v": 91
    },
    {
      "midi": 61,
      "hit": false,
      "t": 74166.63700000006,
      "d": 416.66650000000664,
      "v": 94
    },
    {
      "midi": 64,
      "hit": false,
      "t": 74583.30350000007,
      "d": 416.66650000000664,
      "v": 115
    },
    {
      "midi": 58,
      "hit": false,
      "t": 74999.97000000007,
      "d": 416.6664999999921,
      "v": 115
    },
    {
      "midi": 61,
      "hit": false,
      "t": 74999.97000000007,
      "d": 416.6664999999921,
      "v": 117
    },
    {
      "midi": 42,
      "hit": false,
      "t": 74999.97000000007,
      "d": 833.3329999999987,
      "v": 107
    },
    {
      "midi": 54,
      "hit": false,
      "t": 75416.63650000007,
      "d": 416.66650000000664,
      "v": 101
    },
    {
      "midi": 58,
      "hit": false,
      "t": 75833.30300000007,
      "d": 416.66650000000664,
      "v": 115
    },
    {
      "midi": 61,
      "hit": false,
      "t": 75833.30300000007,
      "d": 416.66650000000664,
      "v": 112
    },
    {
      "midi": 66,
      "hit": false,
      "t": 75833.30300000007,
      "d": 416.66650000000664,
      "v": 123
    },
    {
      "midi": 64,
      "hit": false,
      "t": 76249.96950000008,
      "d": 416.66650000000664,
      "v": 94
    },
    {
      "midi": 62,
      "hit": false,
      "t": 76666.63600000009,
      "d": 833.3329999999987,
      "v": 108
    },
    {
      "midi": 66,
      "hit": false,
      "t": 76666.63600000009,
      "d": 833.3329999999987,
      "v": 101
    },
    {
      "midi": 47,
      "hit": false,
      "t": 76666.63600000009,
      "d": 1249.9995000000054,
      "v": 107
    },
    {
      "midi": 54,
      "hit": false,
      "t": 77083.30250000008,
      "d": 1249.99950000002,
      "v": 97
    },
    {
      "midi": 59,
      "hit": false,
      "t": 77499.96900000008,
      "d": 416.66650000000664,
      "v": 98
    },
    {
      "midi": 62,
      "hit": false,
      "t": 77916.63550000009,
      "d": 416.66650000000664,
      "v": 110
    },
    {
      "midi": 57,
      "hit": false,
      "t": 78333.3020000001,
      "d": 416.6664999999921,
      "v": 104
    },
    {
      "midi": 66,
      "hit": false,
      "t": 78333.3020000001,
      "d": 416.6664999999921,
      "v": 98
    },
    {
      "midi": 45,
      "hit": false,
      "t": 78333.3020000001,
      "d": 833.3329999999987,
      "v": 102
    },
    {
      "midi": 62,
      "hit": false,
      "t": 78333.3020000001,
      "d": 833.3329999999987,
      "v": 110
    },
    {
      "midi": 54,
      "hit": false,
      "t": 78749.96850000009,
      "d": 416.66650000000664,
      "v": 80
    },
    {
      "midi": 57,
      "hit": false,
      "t": 79166.6350000001,
      "d": 416.66650000000664,
      "v": 98
    },
    {
      "midi": 62,
      "hit": false,
      "t": 79583.3015000001,
      "d": 416.66650000000664,
      "v": 105
    },
    {
      "midi": 59,
      "hit": false,
      "t": 79999.96800000011,
      "d": 416.6664999999921,
      "v": 103
    },
    {
      "midi": 62,
      "hit": false,
      "t": 79999.96800000011,
      "d": 416.6664999999921,
      "v": 79
    },
    {
      "midi": 66,
      "hit": false,
      "t": 79999.96800000011,
      "d": 416.6664999999921,
      "v": 74
    },
    {
      "midi": 43,
      "hit": false,
      "t": 79999.96800000011,
      "d": 1249.9995000000054,
      "v": 80
    },
    {
      "midi": 50,
      "hit": false,
      "t": 80416.6345000001,
      "d": 833.3330000000133,
      "v": 104
    },
    {
      "midi": 55,
      "hit": false,
      "t": 80833.30100000011,
      "d": 416.66650000000664,
      "v": 94
    },
    {
      "midi": 62,
      "hit": false,
      "t": 80833.30100000011,
      "d": 416.66650000000664,
      "v": 111
    },
    {
      "midi": 66,
      "hit": false,
      "t": 80833.30100000011,
      "d": 416.66650000000664,
      "v": 86
    },
    {
      "midi": 71,
      "hit": false,
      "t": 80833.30100000011,
      "d": 416.66650000000664,
      "v": 122
    },
    {
      "midi": 59,
      "hit": false,
      "t": 81249.96750000012,
      "d": 416.66650000000664,
      "v": 92
    },
    {
      "midi": 43,
      "hit": false,
      "t": 81666.63400000012,
      "d": 833.3330000000133,
      "v": 93
    },
    {
      "midi": 50,
      "hit": false,
      "t": 82083.30050000013,
      "d": 833.3330000000133,
      "v": 100
    },
    {
      "midi": 55,
      "hit": false,
      "t": 82499.96700000014,
      "d": 416.66650000000664,
      "v": 89
    },
    {
      "midi": 62,
      "hit": false,
      "t": 82499.96700000014,
      "d": 416.66650000000664,
      "v": 109
    },
    {
      "midi": 66,
      "hit": false,
      "t": 82499.96700000014,
      "d": 416.66650000000664,
      "v": 103
    },
    {
      "midi": 71,
      "hit": false,
      "t": 82499.96700000014,
      "d": 416.66650000000664,
      "v": 121
    },
    {
      "midi": 59,
      "hit": false,
      "t": 82916.63350000014,
      "d": 416.66650000000664,
      "v": 103
    },
    {
      "midi": 62,
      "hit": false,
      "t": 82916.63350000014,
      "d": 416.66650000000664,
      "v": 91
    },
    {
      "midi": 55,
      "hit": false,
      "t": 83333.30000000015,
      "d": 416.6664999999921,
      "v": 90
    },
    {
      "midi": 59,
      "hit": false,
      "t": 83333.30000000015,
      "d": 416.6664999999921,
      "v": 106
    },
    {
      "midi": 62,
      "hit": false,
      "t": 83333.30000000015,
      "d": 416.6664999999921,
      "v": 92
    },
    {
      "midi": 45,
      "hit": false,
      "t": 83333.30000000015,
      "d": 1249.9995000000054,
      "v": 103
    },
    {
      "midi": 55,
      "hit": false,
      "t": 83749.96650000014,
      "d": 416.66650000000664,
      "v": 78
    },
    {
      "midi": 59,
      "hit": false,
      "t": 84166.63300000015,
      "d": 416.66650000000664,
      "v": 101
    },
    {
      "midi": 62,
      "hit": false,
      "t": 84166.63300000015,
      "d": 416.66650000000664,
      "v": 99
    },
    {
      "midi": 67,
      "hit": false,
      "t": 84166.63300000015,
      "d": 416.66650000000664,
      "v": 103
    },
    {
      "midi": 55,
      "hit": false,
      "t": 84583.29950000015,
      "d": 416.66650000000664,
      "v": 84
    },
    {
      "midi": 55,
      "hit": false,
      "t": 84999.96600000016,
      "d": 416.6664999999921,
      "v": 82
    },
    {
      "midi": 61,
      "hit": false,
      "t": 84999.96600000016,
      "d": 416.6664999999921,
      "v": 76
    },
    {
      "midi": 64,
      "hit": false,
      "t": 84999.96600000016,
      "d": 416.6664999999921,
      "v": 95
    },
    {
      "midi": 45,
      "hit": false,
      "t": 84999.96600000016,
      "d": 833.3329999999987,
      "v": 86
    },
    {
      "midi": 55,
      "hit": false,
      "t": 85416.63250000015,
      "d": 416.66650000000664,
      "v": 90
    },
    {
      "midi": 61,
      "hit": false,
      "t": 85833.29900000016,
      "d": 416.66650000000664,
      "v": 108
    },
    {
      "midi": 64,
      "hit": false,
      "t": 85833.29900000016,
      "d": 416.66650000000664,
      "v": 110
    },
    {
      "midi": 45,
      "hit": false,
      "t": 86249.96550000017,
      "d": 416.66650000000664,
      "v": 84
    },
    {
      "midi": 59,
      "hit": false,
      "t": 86666.63200000017,
      "d": 833.3329999999987,
      "v": 91
    },
    {
      "midi": 62,
      "hit": false,
      "t": 86666.63200000017,
      "d": 833.3329999999987,
      "v": 90
    },
    {
      "midi": 43,
      "hit": false,
      "t": 86666.63200000017,
      "d": 1249.9995000000054,
      "v": 98
    },
    {
      "midi": 66,
      "hit": false,
      "t": 86666.63200000017,
      "d": 1249.9995000000054,
      "v": 91
    },
    {
      "midi": 50,
      "hit": false,
      "t": 87083.29850000016,
      "d": 833.3330000000133,
      "v": 100
    },
    {
      "midi": 55,
      "hit": false,
      "t": 87499.96500000017,
      "d": 416.66650000000664,
      "v": 98
    },
    {
      "midi": 71,
      "hit": false,
      "t": 87499.96500000017,
      "d": 416.66650000000664,
      "v": 103
    },
    {
      "midi": 59,
      "hit": false,
      "t": 87916.63150000018,
      "d": 833.3330000000133,
      "v": 100
    },
    {
      "midi": 43,
      "hit": false,
      "t": 88333.29800000018,
      "d": 833.3330000000133,
      "v": 95
    },
    {
      "midi": 50,
      "hit": false,
      "t": 88749.96450000019,
      "d": 833.3330000000133,
      "v": 108
    },
    {
      "midi": 62,
      "hit": false,
      "t": 89166.6310000002,
      "d": 416.66650000000664,
      "v": 111
    },
    {
      "midi": 66,
      "hit": false,
      "t": 89166.6310000002,
      "d": 416.66650000000664,
      "v": 112
    },
    {
      "midi": 71,
      "hit": false,
      "t": 89166.6310000002,
      "d": 416.66650000000664,
      "v": 114
    },
    {
      "midi": 55,
      "hit": false,
      "t": 89583.2975000002,
      "d": 416.66650000000664,
      "v": 90
    },
    {
      "midi": 59,
      "hit": false,
      "t": 89583.2975000002,
      "d": 416.66650000000664,
      "v": 105
    },
    {
      "midi": 59,
      "hit": false,
      "t": 89999.96400000021,
      "d": 416.6664999999921,
      "v": 110
    },
    {
      "midi": 62,
      "hit": false,
      "t": 89999.96400000021,
      "d": 416.6664999999921,
      "v": 108
    },
    {
      "midi": 67,
      "hit": false,
      "t": 89999.96400000021,
      "d": 416.6664999999921,
      "v": 86
    },
    {
      "midi": 55,
      "hit": false,
      "t": 89999.96400000021,
      "d": 833.3329999999987,
      "v": 89
    },
    {
      "midi": 45,
      "hit": false,
      "t": 89999.96400000021,
      "d": 1249.9995000000054,
      "v": 100
    },
    {
      "midi": 59,
      "hit": false,
      "t": 90833.29700000021,
      "d": 416.66650000000664,
      "v": 115
    },
    {
      "midi": 62,
      "hit": false,
      "t": 90833.29700000021,
      "d": 416.66650000000664,
      "v": 110
    },
    {
      "midi": 66,
      "hit": false,
      "t": 90833.29700000021,
      "d": 416.66650000000664,
      "v": 121
    },
    {
      "midi": 45,
      "hit": false,
      "t": 91249.96350000022,
      "d": 416.66650000000664,
      "v": 83
    },
    {
      "midi": 55,
      "hit": false,
      "t": 91249.96350000022,
      "d": 416.66650000000664,
      "v": 81
    },
    {
      "midi": 58,
      "hit": false,
      "t": 91666.63000000022,
      "d": 416.6664999999921,
      "v": 123
    },
    {
      "midi": 66,
      "hit": false,
      "t": 91666.63000000022,
      "d": 416.6664999999921,
      "v": 125
    },
    {
      "midi": 46,
      "hit": false,
      "t": 91666.63000000022,
      "d": 833.3329999999987,
      "v": 117
    },
    {
      "midi": 61,
      "hit": false,
      "t": 91666.63000000022,
      "d": 833.3329999999987,
      "v": 111
    },
    {
      "midi": 58,
      "hit": false,
      "t": 92499.96300000022,
      "d": 416.66650000000664,
      "v": 117
    },
    {
      "midi": 61,
      "hit": false,
      "t": 92499.96300000022,
      "d": 416.66650000000664,
      "v": 112
    },
    {
      "midi": 66,
      "hit": false,
      "t": 92499.96300000022,
      "d": 416.66650000000664,
      "v": 121
    },
    {
      "midi": 46,
      "hit": false,
      "t": 92916.62950000023,
      "d": 416.66650000000664,
      "v": 91
    },
    {
      "midi": 63,
      "hit": false,
      "t": 93333.29600000023,
      "d": 416.6664999999921,
      "v": 116
    },
    {
      "midi": 66,
      "hit": false,
      "t": 93333.29600000023,
      "d": 416.6664999999921,
      "v": 119
    },
    {
      "midi": 47,
      "hit": false,
      "t": 93333.29600000023,
      "d": 1249.9995000000054,
      "v": 124
    },
    {
      "midi": 54,
      "hit": false,
      "t": 93749.96250000023,
      "d": 416.66650000000664,
      "v": 96
    },
    {
      "midi": 63,
      "hit": false,
      "t": 94166.62900000023,
      "d": 416.66650000000664,
      "v": 97
    },
    {
      "midi": 66,
      "hit": false,
      "t": 94166.62900000023,
      "d": 416.66650000000664,
      "v": 109
    },
    {
      "midi": 47,
      "hit": false,
      "t": 94583.29550000024,
      "d": 416.66650000000664,
      "v": 96
    },
    {
      "midi": 63,
      "hit": false,
      "t": 94999.96200000025,
      "d": 416.66650000000664,
      "v": 107
    },
    {
      "midi": 66,
      "hit": false,
      "t": 94999.96200000025,
      "d": 416.66650000000664,
      "v": 103
    },
    {
      "midi": 47,
      "hit": false,
      "t": 94999.96200000025,
      "d": 1249.99950000002,
      "v": 103
    },
    {
      "midi": 58,
      "hit": false,
      "t": 95416.62850000025,
      "d": 416.66650000000664,
      "v": 77
    },
    {
      "midi": 63,
      "hit": false,
      "t": 95833.29500000026,
      "d": 416.66650000000664,
      "v": 112
    },
    {
      "midi": 66,
      "hit": false,
      "t": 96249.96150000027,
      "d": 416.66650000000664,
      "v": 100
    },
    {
      "midi": 56,
      "hit": false,
      "t": 96666.62800000027,
      "d": 416.6664999999921,
      "v": 103
    },
    {
      "midi": 59,
      "hit": false,
      "t": 96666.62800000027,
      "d": 833.3329999999987,
      "v": 118
    },
    {
      "midi": 63,
      "hit": false,
      "t": 96666.62800000027,
      "d": 833.3329999999987,
      "v": 98
    },
    {
      "midi": 40,
      "hit": false,
      "t": 96666.62800000027,
      "d": 1249.9995000000054,
      "v": 109
    },
    {
      "midi": 47,
      "hit": false,
      "t": 97083.29450000027,
      "d": 833.3330000000133,
      "v": 98
    },
    {
      "midi": 52,
      "hit": false,
      "t": 97499.96100000027,
      "d": 416.66650000000664,
      "v": 108
    },
    {
      "midi": 59,
      "hit": false,
      "t": 97499.96100000027,
      "d": 416.66650000000664,
      "v": 107
    },
    {
      "midi": 63,
      "hit": false,
      "t": 97499.96100000027,
      "d": 416.66650000000664,
      "v": 91
    },
    {
      "midi": 68,
      "hit": false,
      "t": 97499.96100000027,
      "d": 416.66650000000664,
      "v": 104
    },
    {
      "midi": 56,
      "hit": false,
      "t": 97916.62750000028,
      "d": 416.66650000000664,
      "v": 87
    },
    {
      "midi": 40,
      "hit": false,
      "t": 98333.29400000029,
      "d": 1249.99950000002,
      "v": 96
    },
    {
      "midi": 47,
      "hit": false,
      "t": 98749.96050000029,
      "d": 833.3330000000133,
      "v": 111
    },
    {
      "midi": 52,
      "hit": false,
      "t": 99166.6270000003,
      "d": 416.66650000000664,
      "v": 103
    },
    {
      "midi": 59,
      "hit": false,
      "t": 99166.6270000003,
      "d": 416.66650000000664,
      "v": 127
    },
    {
      "midi": 68,
      "hit": false,
      "t": 99166.6270000003,
      "d": 416.66650000000664,
      "v": 117
    },
    {
      "midi": 63,
      "hit": false,
      "t": 99583.2935000003,
      "d": 416.66650000000664,
      "v": 105
    },
    {
      "midi": 61,
      "hit": false,
      "t": 99999.96000000031,
      "d": 416.6664999999921,
      "v": 103
    },
    {
      "midi": 66,
      "hit": false,
      "t": 99999.96000000031,
      "d": 416.6664999999921,
      "v": 104
    },
    {
      "midi": 47,
      "hit": false,
      "t": 99999.96000000031,
      "d": 1249.9995000000054,
      "v": 114
    },
    {
      "midi": 54,
      "hit": false,
      "t": 100416.6265000003,
      "d": 833.3330000000133,
      "v": 98
    },
    {
      "midi": 59,
      "hit": false,
      "t": 100833.29300000031,
      "d": 416.66650000000664,
      "v": 104
    },
    {
      "midi": 63,
      "hit": false,
      "t": 101249.95950000032,
      "d": 416.66650000000664,
      "v": 88
    },
    {
      "midi": 58,
      "hit": false,
      "t": 101666.62600000032,
      "d": 416.6664999999921,
      "v": 114
    },
    {
      "midi": 66,
      "hit": false,
      "t": 101666.62600000032,
      "d": 416.6664999999921,
      "v": 115
    },
    {
      "midi": 47,
      "hit": false,
      "t": 101666.62600000032,
      "d": 1249.9995000000054,
      "v": 111
    },
    {
      "midi": 54,
      "hit": false,
      "t": 102083.29250000032,
      "d": 416.66650000000664,
      "v": 75
    },
    {
      "midi": 63,
      "hit": false,
      "t": 102499.95900000032,
      "d": 416.66650000000664,
      "v": 104
    },
    {
      "midi": 66,
      "hit": false,
      "t": 102499.95900000032,
      "d": 416.66650000000664,
      "v": 109
    },
    {
      "midi": 59,
      "hit": false,
      "t": 102916.62550000033,
      "d": 416.66650000000664,
      "v": 102
    },
    {
      "midi": 56,
      "hit": false,
      "t": 103333.29200000034,
      "d": 416.6664999999921,
      "v": 93
    },
    {
      "midi": 59,
      "hit": false,
      "t": 103333.29200000034,
      "d": 416.6664999999921,
      "v": 99
    },
    {
      "midi": 63,
      "hit": false,
      "t": 103333.29200000034,
      "d": 416.6664999999921,
      "v": 91
    },
    {
      "midi": 44,
      "hit": false,
      "t": 103333.29200000034,
      "d": 1249.9995000000054,
      "v": 125
    },
    {
      "midi": 51,
      "hit": false,
      "t": 103749.95850000033,
      "d": 416.66650000000664,
      "v": 93
    },
    {
      "midi": 59,
      "hit": false,
      "t": 104166.62500000033,
      "d": 416.66650000000664,
      "v": 113
    },
    {
      "midi": 63,
      "hit": false,
      "t": 104583.29150000034,
      "d": 416.66650000000664,
      "v": 93
    },
    {
      "midi": 56,
      "hit": false,
      "t": 104999.95800000035,
      "d": 416.6664999999921,
      "v": 101
    },
    {
      "midi": 59,
      "hit": false,
      "t": 104999.95800000035,
      "d": 416.6664999999921,
      "v": 118
    },
    {
      "midi": 63,
      "hit": false,
      "t": 104999.95800000035,
      "d": 416.6664999999921,
      "v": 104
    },
    {
      "midi": 42,
      "hit": false,
      "t": 104999.95800000035,
      "d": 833.3329999999987,
      "v": 125
    },
    {
      "midi": 56,
      "hit": false,
      "t": 105416.62450000034,
      "d": 416.66650000000664,
      "v": 68
    },
    {
      "midi": 56,
      "hit": false,
      "t": 105833.29100000035,
      "d": 416.66650000000664,
      "v": 83
    },
    {
      "midi": 59,
      "hit": false,
      "t": 105833.29100000035,
      "d": 416.66650000000664,
      "v": 110
    },
    {
      "midi": 63,
      "hit": false,
      "t": 105833.29100000035,
      "d": 416.66650000000664,
      "v": 90
    },
    {
      "midi": 42,
      "hit": false,
      "t": 106249.95750000035,
      "d": 416.66650000000664,
      "v": 90
    },
    {
      "midi": 54,
      "hit": false,
      "t": 106666.62400000036,
      "d": 416.6664999999921,
      "v": 67
    },
    {
      "midi": 58,
      "hit": false,
      "t": 106666.62400000036,
      "d": 416.6664999999921,
      "v": 90
    },
    {
      "midi": 61,
      "hit": false,
      "t": 106666.62400000036,
      "d": 416.6664999999921,
      "v": 91
    },
    {
      "midi": 66,
      "hit": false,
      "t": 106666.62400000036,
      "d": 416.6664999999921,
      "v": 127
    },
    {
      "midi": 40,
      "hit": false,
      "t": 106666.62400000036,
      "d": 1249.9995000000054,
      "v": 92
    },
    {
      "midi": 54,
      "hit": false,
      "t": 107083.29050000035,
      "d": 416.66650000000664,
      "v": 60
    },
    {
      "midi": 40,
      "hit": false,
      "t": 107916.62350000037,
      "d": 416.66650000000664,
      "v": 79
    },
    {
      "midi": 56,
      "hit": false,
      "t": 107916.62350000037,
      "d": 416.66650000000664,
      "v": 98
    },
    {
      "midi": 59,
      "hit": false,
      "t": 107916.62350000037,
      "d": 416.66650000000664,
      "v": 79
    },
    {
      "midi": 64,
      "hit": false,
      "t": 107916.62350000037,
      "d": 416.66650000000664,
      "v": 79
    },
    {
      "midi": 54,
      "hit": false,
      "t": 108333.29000000037,
      "d": 416.6664999999921,
      "v": 123
    },
    {
      "midi": 63,
      "hit": false,
      "t": 108333.29000000037,
      "d": 416.6664999999921,
      "v": 117
    },
    {
      "midi": 39,
      "hit": false,
      "t": 108333.29000000037,
      "d": 833.3329999999987,
      "v": 108
    },
    {
      "midi": 59,
      "hit": false,
      "t": 108749.95650000036,
      "d": 416.66650000000664,
      "v": 100
    },
    {
      "midi": 54,
      "hit": false,
      "t": 109166.62300000037,
      "d": 416.66650000000664,
      "v": 103
    },
    {
      "midi": 39,
      "hit": false,
      "t": 109583.28950000038,
      "d": 416.66650000000664,
      "v": 74
    },
    {
      "midi": 54,
      "hit": false,
      "t": 109583.28950000038,
      "d": 416.66650000000664,
      "v": 47
    },
    {
      "midi": 66,
      "hit": false,
      "t": 109583.28950000038,
      "d": 416.66650000000664,
      "v": 77
    },
    {
      "midi": 58,
      "hit": false,
      "t": 109999.95600000038,
      "d": 416.6664999999921,
      "v": 108
    },
    {
      "midi": 61,
      "hit": false,
      "t": 109999.95600000038,
      "d": 416.6664999999921,
      "v": 109
    },
    {
      "midi": 66,
      "hit": false,
      "t": 109999.95600000038,
      "d": 416.6664999999921,
      "v": 112
    },
    {
      "midi": 40,
      "hit": false,
      "t": 109999.95600000038,
      "d": 1249.9995000000054,
      "v": 104
    },
    {
      "midi": 54,
      "hit": false,
      "t": 110416.62250000038,
      "d": 416.66650000000664,
      "v": 86
    },
    {
      "midi": 58,
      "hit": false,
      "t": 110833.28900000038,
      "d": 416.66650000000664,
      "v": 88
    },
    {
      "midi": 40,
      "hit": false,
      "t": 111249.95550000039,
      "d": 416.66650000000664,
      "v": 104
    },
    {
      "midi": 56,
      "hit": false,
      "t": 111249.95550000039,
      "d": 416.66650000000664,
      "v": 104
    },
    {
      "midi": 59,
      "hit": false,
      "t": 111249.95550000039,
      "d": 416.66650000000664,
      "v": 92
    },
    {
      "midi": 64,
      "hit": false,
      "t": 111249.95550000039,
      "d": 416.66650000000664,
      "v": 91
    },
    {
      "midi": 54,
      "hit": false,
      "t": 111666.6220000004,
      "d": 416.6664999999921,
      "v": 108
    },
    {
      "midi": 59,
      "hit": false,
      "t": 111666.6220000004,
      "d": 416.6664999999921,
      "v": 113
    },
    {
      "midi": 63,
      "hit": false,
      "t": 111666.6220000004,
      "d": 416.6664999999921,
      "v": 91
    },
    {
      "midi": 39,
      "hit": false,
      "t": 111666.6220000004,
      "d": 833.3329999999987,
      "v": 119
    },
    {
      "midi": 54,
      "hit": false,
      "t": 112083.28850000039,
      "d": 416.66650000000664,
      "v": 61
    },
    {
      "midi": 54,
      "hit": false,
      "t": 112499.9550000004,
      "d": 416.66650000000664,
      "v": 88
    },
    {
      "midi": 59,
      "hit": false,
      "t": 112499.9550000004,
      "d": 416.66650000000664,
      "v": 103
    },
    {
      "midi": 63,
      "hit": false,
      "t": 112499.9550000004,
      "d": 416.66650000000664,
      "v": 97
    },
    {
      "midi": 40,
      "hit": false,
      "t": 113333.28800000041,
      "d": 1666.6659999999974,
      "v": 104
    },
    {
      "midi": 55,
      "hit": false,
      "t": 113333.28800000041,
      "d": 1666.6659999999974,
      "v": 104
    },
    {
      "midi": 59,
      "hit": false,
      "t": 113333.28800000041,
      "d": 1666.6659999999974,
      "v": 104
    },
    {
      "midi": 62,
      "hit": false,
      "t": 113333.28800000041,
      "d": 1666.6659999999974,
      "v": 104
    },
    {
      "midi": 67,
      "hit": false,
      "t": 113333.28800000041,
      "d": 1666.6659999999974,
      "v": 104
    },
    {
      "midi": 42,
      "hit": false,
      "t": 114999.9540000004,
      "d": 1666.6659999999974,
      "v": 104
    },
    {
      "midi": 57,
      "hit": false,
      "t": 114999.9540000004,
      "d": 1666.6659999999974,
      "v": 104
    },
    {
      "midi": 62,
      "hit": false,
      "t": 114999.9540000004,
      "d": 1666.6659999999974,
      "v": 104
    },
    {
      "midi": 66,
      "hit": false,
      "t": 114999.9540000004,
      "d": 1666.6659999999974,
      "v": 104
    },
    {
      "midi": 43,
      "hit": false,
      "t": 116666.6200000004,
      "d": 1666.6659999999974,
      "v": 104
    },
    {
      "midi": 59,
      "hit": false,
      "t": 116666.6200000004,
      "d": 4999.997999999992,
      "v": 104
    },
    {
      "midi": 62,
      "hit": false,
      "t": 116666.6200000004,
      "d": 4999.997999999992,
      "v": 104
    },
    {
      "midi": 67,
      "hit": false,
      "t": 116666.6200000004,
      "d": 4999.997999999992,
      "v": 104
    },
    {
      "midi": 45,
      "hit": false,
      "t": 118333.2860000004,
      "d": 3333.331999999995,
      "v": 127
    },
    {
      "midi": 54,
      "hit": false,
      "t": 121666.6180000004,
      "d": 416.66650000000664,
      "v": 94
    },
    {
      "midi": 61,
      "hit": false,
      "t": 121666.6180000004,
      "d": 416.66650000000664,
      "v": 103
    },
    {
      "midi": 63,
      "hit": false,
      "t": 121666.6180000004,
      "d": 416.66650000000664,
      "v": 109
    },
    {
      "midi": 35,
      "hit": false,
      "t": 121666.6180000004,
      "d": 833.3330000000133,
      "v": 92
    },
    {
      "midi": 42,
      "hit": false,
      "t": 122083.2845000004,
      "d": 416.66650000000664,
      "v": 94
    },
    {
      "midi": 47,
      "hit": false,
      "t": 122499.95100000041,
      "d": 416.66650000000664,
      "v": 76
    },
    {
      "midi": 54,
      "hit": false,
      "t": 122499.95100000041,
      "d": 416.66650000000664,
      "v": 96
    },
    {
      "midi": 61,
      "hit": false,
      "t": 122499.95100000041,
      "d": 416.66650000000664,
      "v": 110
    },
    {
      "midi": 63,
      "hit": false,
      "t": 122499.95100000041,
      "d": 416.66650000000664,
      "v": 105
    },
    {
      "midi": 54,
      "hit": false,
      "t": 122916.61750000042,
      "d": 416.66650000000664,
      "v": 91
    },
    {
      "midi": 54,
      "hit": false,
      "t": 123333.28400000042,
      "d": 416.6664999999921,
      "v": 93
    },
    {
      "midi": 58,
      "hit": false,
      "t": 123333.28400000042,
      "d": 416.6664999999921,
      "v": 93
    },
    {
      "midi": 61,
      "hit": false,
      "t": 123333.28400000042,
      "d": 416.6664999999921,
      "v": 105
    },
    {
      "midi": 46,
      "hit": false,
      "t": 123333.28400000042,
      "d": 1249.9995000000054,
      "v": 97
    },
    {
      "midi": 54,
      "hit": false,
      "t": 123749.95050000041,
      "d": 416.66650000000664,
      "v": 95
    },
    {
      "midi": 58,
      "hit": false,
      "t": 124166.61700000042,
      "d": 416.66650000000664,
      "v": 94
    },
    {
      "midi": 66,
      "hit": false,
      "t": 124166.61700000042,
      "d": 416.66650000000664,
      "v": 95
    },
    {
      "midi": 61,
      "hit": false,
      "t": 124583.28350000043,
      "d": 416.66650000000664,
      "v": 104
    },
    {
      "midi": 54,
      "hit": false,
      "t": 124999.95000000043,
      "d": 416.6664999999921,
      "v": 90
    },
    {
      "midi": 57,
      "hit": false,
      "t": 124999.95000000043,
      "d": 416.6664999999921,
      "v": 110
    },
    {
      "midi": 63,
      "hit": false,
      "t": 124999.95000000043,
      "d": 416.6664999999921,
      "v": 101
    },
    {
      "midi": 45,
      "hit": false,
      "t": 124999.95000000043,
      "d": 1249.9995000000054,
      "v": 111
    },
    {
      "midi": 54,
      "hit": false,
      "t": 125416.61650000043,
      "d": 416.66650000000664,
      "v": 87
    },
    {
      "midi": 57,
      "hit": false,
      "t": 125833.28300000043,
      "d": 416.66650000000664,
      "v": 104
    },
    {
      "midi": 63,
      "hit": false,
      "t": 126249.94950000044,
      "d": 416.66650000000664,
      "v": 88
    },
    {
      "midi": 54,
      "hit": false,
      "t": 126666.61600000045,
      "d": 416.6664999999921,
      "v": 95
    },
    {
      "midi": 60,
      "hit": false,
      "t": 126666.61600000045,
      "d": 416.6664999999921,
      "v": 49
    },
    {
      "midi": 64,
      "hit": false,
      "t": 126666.61600000045,
      "d": 416.6664999999921,
      "v": 81
    },
    {
      "midi": 44,
      "hit": false,
      "t": 126666.61600000045,
      "d": 1249.9995000000054,
      "v": 103
    },
    {
      "midi": 54,
      "hit": false,
      "t": 127083.28250000044,
      "d": 416.66650000000664,
      "v": 77
    },
    {
      "midi": 60,
      "hit": false,
      "t": 127499.94900000044,
      "d": 416.66650000000664,
      "v": 101
    },
    {
      "midi": 63,
      "hit": false,
      "t": 127499.94900000044,
      "d": 416.66650000000664,
      "v": 100
    },
    {
      "midi": 54,
      "hit": false,
      "t": 127916.61550000045,
      "d": 416.66650000000664,
      "v": 85
    },
    {
      "midi": 37,
      "hit": false,
      "t": 128333.28200000046,
      "d": 833.3329999999987,
      "v": 102
    },
    {
      "midi": 56,
      "hit": false,
      "t": 128333.28200000046,
      "d": 833.3329999999987,
      "v": 106
    },
    {
      "midi": 59,
      "hit": false,
      "t": 128333.28200000046,
      "d": 833.3329999999987,
      "v": 103
    },
    {
      "midi": 61,
      "hit": false,
      "t": 128333.28200000046,
      "d": 833.3329999999987,
      "v": 103
    },
    {
      "midi": 64,
      "hit": false,
      "t": 128333.28200000046,
      "d": 833.3329999999987,
      "v": 111
    },
    {
      "midi": 44,
      "hit": false,
      "t": 128749.94850000045,
      "d": 833.3330000000133,
      "v": 90
    },
    {
      "midi": 49,
      "hit": false,
      "t": 129166.61500000046,
      "d": 416.66650000000664,
      "v": 108
    },
    {
      "midi": 52,
      "hit": false,
      "t": 129583.28150000046,
      "d": 416.66650000000664,
      "v": 90
    },
    {
      "midi": 35,
      "hit": false,
      "t": 129999.94800000047,
      "d": 833.3329999999987,
      "v": 89
    },
    {
      "midi": 56,
      "hit": false,
      "t": 129999.94800000047,
      "d": 833.3329999999987,
      "v": 96
    },
    {
      "midi": 59,
      "hit": false,
      "t": 129999.94800000047,
      "d": 833.3329999999987,
      "v": 101
    },
    {
      "midi": 61,
      "hit": false,
      "t": 129999.94800000047,
      "d": 833.3329999999987,
      "v": 107
    },
    {
      "midi": 64,
      "hit": false,
      "t": 129999.94800000047,
      "d": 833.3329999999987,
      "v": 103
    },
    {
      "midi": 44,
      "hit": false,
      "t": 130416.61450000046,
      "d": 416.66650000000664,
      "v": 92
    },
    {
      "midi": 47,
      "hit": false,
      "t": 130833.28100000047,
      "d": 416.66650000000664,
      "v": 92
    },
    {
      "midi": 52,
      "hit": false,
      "t": 131249.94750000047,
      "d": 416.6664999999921,
      "v": 77
    },
    {
      "midi": 58,
      "hit": false,
      "t": 131666.61400000047,
      "d": 416.6664999999921,
      "v": 94
    },
    {
      "midi": 61,
      "hit": false,
      "t": 131666.61400000047,
      "d": 416.6664999999921,
      "v": 94
    },
    {
      "midi": 34,
      "hit": false,
      "t": 131666.61400000047,
      "d": 833.3329999999842,
      "v": 69
    },
    {
      "midi": 46,
      "hit": false,
      "t": 131666.61400000047,
      "d": 833.3329999999842,
      "v": 91
    },
    {
      "midi": 52,
      "hit": false,
      "t": 132083.28050000046,
      "d": 416.6664999999921,
      "v": 91
    },
    {
      "midi": 58,
      "hit": false,
      "t": 132499.94700000045,
      "d": 416.6664999999921,
      "v": 94
    },
    {
      "midi": 61,
      "hit": false,
      "t": 132916.61350000044,
      "d": 416.6664999999921,
      "v": 115
    },
    {
      "midi": 55,
      "hit": false,
      "t": 133333.28000000044,
      "d": 416.6664999999921,
      "v": 115
    },
    {
      "midi": 58,
      "hit": false,
      "t": 133333.28000000044,
      "d": 416.6664999999921,
      "v": 117
    },
    {
      "midi": 39,
      "hit": false,
      "t": 133333.28000000044,
      "d": 833.3329999999842,
      "v": 107
    },
    {
      "midi": 51,
      "hit": false,
      "t": 133749.94650000043,
      "d": 416.6664999999921,
      "v": 101
    },
    {
      "midi": 55,
      "hit": false,
      "t": 134166.61300000042,
      "d": 416.6664999999921,
      "v": 115
    },
    {
      "midi": 58,
      "hit": false,
      "t": 134166.61300000042,
      "d": 416.6664999999921,
      "v": 112
    },
    {
      "midi": 63,
      "hit": false,
      "t": 134166.61300000042,
      "d": 416.6664999999921,
      "v": 123
    },
    {
      "midi": 61,
      "hit": false,
      "t": 134583.2795000004,
      "d": 416.6664999999921,
      "v": 94
    },
    {
      "midi": 59,
      "hit": false,
      "t": 134999.9460000004,
      "d": 833.3330000000133,
      "v": 108
    },
    {
      "midi": 63,
      "hit": false,
      "t": 134999.9460000004,
      "d": 833.3330000000133,
      "v": 101
    },
    {
      "midi": 44,
      "hit": false,
      "t": 134999.9460000004,
      "d": 1249.9995000000054,
      "v": 107
    },
    {
      "midi": 51,
      "hit": false,
      "t": 135416.61250000042,
      "d": 1249.9994999999763,
      "v": 97
    },
    {
      "midi": 56,
      "hit": false,
      "t": 135833.27900000042,
      "d": 416.6664999999921,
      "v": 98
    },
    {
      "midi": 59,
      "hit": false,
      "t": 136249.9455000004,
      "d": 416.6664999999921,
      "v": 110
    },
    {
      "midi": 54,
      "hit": false,
      "t": 136666.6120000004,
      "d": 416.6664999999921,
      "v": 104
    },
    {
      "midi": 63,
      "hit": false,
      "t": 136666.6120000004,
      "d": 416.6664999999921,
      "v": 98
    },
    {
      "midi": 42,
      "hit": false,
      "t": 136666.6120000004,
      "d": 833.3329999999842,
      "v": 102
    },
    {
      "midi": 59,
      "hit": false,
      "t": 136666.6120000004,
      "d": 833.3329999999842,
      "v": 110
    },
    {
      "midi": 51,
      "hit": false,
      "t": 137083.2785000004,
      "d": 416.6664999999921,
      "v": 80
    },
    {
      "midi": 54,
      "hit": false,
      "t": 137499.94500000039,
      "d": 416.6664999999921,
      "v": 98
    },
    {
      "midi": 59,
      "hit": false,
      "t": 137916.61150000038,
      "d": 416.6664999999921,
      "v": 105
    },
    {
      "midi": 56,
      "hit": false,
      "t": 138333.27800000037,
      "d": 416.6664999999921,
      "v": 103
    },
    {
      "midi": 59,
      "hit": false,
      "t": 138333.27800000037,
      "d": 416.6664999999921,
      "v": 79
    },
    {
      "midi": 63,
      "hit": false,
      "t": 138333.27800000037,
      "d": 416.6664999999921,
      "v": 74
    },
    {
      "midi": 40,
      "hit": false,
      "t": 138333.27800000037,
      "d": 1249.9994999999763,
      "v": 80
    },
    {
      "midi": 47,
      "hit": false,
      "t": 138749.94450000036,
      "d": 833.3329999999842,
      "v": 104
    },
    {
      "midi": 52,
      "hit": false,
      "t": 139166.61100000035,
      "d": 416.6664999999921,
      "v": 94
    },
    {
      "midi": 59,
      "hit": false,
      "t": 139166.61100000035,
      "d": 416.6664999999921,
      "v": 111
    },
    {
      "midi": 63,
      "hit": false,
      "t": 139166.61100000035,
      "d": 416.6664999999921,
      "v": 86
    },
    {
      "midi": 68,
      "hit": false,
      "t": 139166.61100000035,
      "d": 416.6664999999921,
      "v": 122
    },
    {
      "midi": 56,
      "hit": false,
      "t": 139583.27750000035,
      "d": 416.6664999999921,
      "v": 92
    },
    {
      "midi": 80,
      "hit": false,
      "t": 139756.8885416666,
      "d": 173.61104166667792,
      "v": 96
    },
    {
      "midi": 83,
      "hit": false,
      "t": 139861.0551666666,
      "d": 138.8888333333307,
      "v": 127
    },
    {
      "midi": 87,
      "hit": false,
      "t": 139916.61069999993,
      "d": 166.66660000002594,
      "v": 127
    },
    {
      "midi": 40,
      "hit": false,
      "t": 139999.94400000034,
      "d": 833.3329999999842,
      "v": 93
    },
    {
      "midi": 92,
      "hit": false,
      "t": 140034.66620833328,
      "d": 118.05550833334564,
      "v": 127
    },
    {
      "midi": 47,
      "hit": false,
      "t": 140416.61050000033,
      "d": 833.3329999999842,
      "v": 100
    },
    {
      "midi": 52,
      "hit": false,
      "t": 140833.27700000032,
      "d": 416.6664999999921,
      "v": 89
    },
    {
      "midi": 59,
      "hit": false,
      "t": 140833.27700000032,
      "d": 416.6664999999921,
      "v": 109
    },
    {
      "midi": 63,
      "hit": false,
      "t": 140833.27700000032,
      "d": 416.6664999999921,
      "v": 103
    },
    {
      "midi": 68,
      "hit": false,
      "t": 140833.27700000032,
      "d": 416.6664999999921,
      "v": 121
    },
    {
      "midi": 56,
      "hit": false,
      "t": 141249.9435000003,
      "d": 416.6664999999921,
      "v": 103
    },
    {
      "midi": 59,
      "hit": false,
      "t": 141249.9435000003,
      "d": 416.6664999999921,
      "v": 91
    },
    {
      "midi": 52,
      "hit": false,
      "t": 141666.6100000003,
      "d": 416.6664999999921,
      "v": 90
    },
    {
      "midi": 56,
      "hit": false,
      "t": 141666.6100000003,
      "d": 416.6664999999921,
      "v": 106
    },
    {
      "midi": 59,
      "hit": false,
      "t": 141666.6100000003,
      "d": 416.6664999999921,
      "v": 92
    },
    {
      "midi": 42,
      "hit": false,
      "t": 141666.6100000003,
      "d": 1249.9994999999763,
      "v": 103
    },
    {
      "midi": 52,
      "hit": false,
      "t": 142083.2765000003,
      "d": 416.6664999999921,
      "v": 78
    },
    {
      "midi": 56,
      "hit": false,
      "t": 142499.9430000003,
      "d": 416.6664999999921,
      "v": 101
    },
    {
      "midi": 59,
      "hit": false,
      "t": 142499.9430000003,
      "d": 416.6664999999921,
      "v": 99
    },
    {
      "midi": 64,
      "hit": false,
      "t": 142499.9430000003,
      "d": 416.6664999999921,
      "v": 103
    },
    {
      "midi": 52,
      "hit": false,
      "t": 142916.60950000028,
      "d": 416.6664999999921,
      "v": 84
    },
    {
      "midi": 52,
      "hit": false,
      "t": 143333.27600000027,
      "d": 416.6665000000212,
      "v": 82
    },
    {
      "midi": 58,
      "hit": false,
      "t": 143333.27600000027,
      "d": 416.6665000000212,
      "v": 76
    },
    {
      "midi": 61,
      "hit": false,
      "t": 143333.27600000027,
      "d": 416.6665000000212,
      "v": 95
    },
    {
      "midi": 42,
      "hit": false,
      "t": 143333.27600000027,
      "d": 833.3330000000133,
      "v": 86
    },
    {
      "midi": 52,
      "hit": false,
      "t": 143749.9425000003,
      "d": 416.6664999999921,
      "v": 90
    },
    {
      "midi": 58,
      "hit": false,
      "t": 144166.6090000003,
      "d": 416.6664999999921,
      "v": 108
    },
    {
      "midi": 61,
      "hit": false,
      "t": 144166.6090000003,
      "d": 416.6664999999921,
      "v": 110
    },
    {
      "midi": 42,
      "hit": false,
      "t": 144583.27550000028,
      "d": 416.6664999999921,
      "v": 84
    },
    {
      "midi": 56,
      "hit": false,
      "t": 144999.94200000027,
      "d": 833.3329999999842,
      "v": 91
    },
    {
      "midi": 59,
      "hit": false,
      "t": 144999.94200000027,
      "d": 833.3329999999842,
      "v": 90
    },
    {
      "midi": 40,
      "hit": false,
      "t": 144999.94200000027,
      "d": 1249.9994999999763,
      "v": 98
    },
    {
      "midi": 63,
      "hit": false,
      "t": 144999.94200000027,
      "d": 1249.9994999999763,
      "v": 91
    },
    {
      "midi": 47,
      "hit": false,
      "t": 145416.60850000026,
      "d": 833.3329999999842,
      "v": 100
    },
    {
      "midi": 52,
      "hit": false,
      "t": 145833.27500000026,
      "d": 416.6664999999921,
      "v": 98
    },
    {
      "midi": 68,
      "hit": false,
      "t": 145833.27500000026,
      "d": 416.6664999999921,
      "v": 103
    },
    {
      "midi": 56,
      "hit": false,
      "t": 146249.94150000025,
      "d": 833.3329999999842,
      "v": 100
    },
    {
      "midi": 80,
      "hit": false,
      "t": 146465.2191916666,
      "d": 215.27769166670623,
      "v": 106
    },
    {
      "midi": 83,
      "hit": false,
      "t": 146527.71916666662,
      "d": 215.27769166670623,
      "v": 127
    },
    {
      "midi": 87,
      "hit": false,
      "t": 146617.9969083333,
      "d": 180.555483333359,
      "v": 127
    },
    {
      "midi": 40,
      "hit": false,
      "t": 146666.60800000024,
      "d": 833.3329999999842,
      "v": 95
    },
    {
      "midi": 92,
      "hit": false,
      "t": 146736.05241666664,
      "d": 131.9443916666787,
      "v": 127
    },
    {
      "midi": 47,
      "hit": false,
      "t": 147083.27450000023,
      "d": 833.3329999999842,
      "v": 108
    },
    {
      "midi": 59,
      "hit": false,
      "t": 147499.94100000022,
      "d": 416.6664999999921,
      "v": 111
    },
    {
      "midi": 63,
      "hit": false,
      "t": 147499.94100000022,
      "d": 416.6664999999921,
      "v": 112
    },
    {
      "midi": 68,
      "hit": false,
      "t": 147499.94100000022,
      "d": 416.6664999999921,
      "v": 114
    },
    {
      "midi": 52,
      "hit": false,
      "t": 147916.60750000022,
      "d": 416.6664999999921,
      "v": 90
    },
    {
      "midi": 56,
      "hit": false,
      "t": 147916.60750000022,
      "d": 416.6664999999921,
      "v": 105
    },
    {
      "midi": 61,
      "hit": false,
      "t": 148333.2740000002,
      "d": 416.6665000000212,
      "v": 127
    },
    {
      "midi": 64,
      "hit": false,
      "t": 148333.2740000002,
      "d": 416.6665000000212,
      "v": 127
    },
    {
      "midi": 68,
      "hit": false,
      "t": 148333.2740000002,
      "d": 416.6665000000212,
      "v": 127
    },
    {
      "midi": 42,
      "hit": false,
      "t": 148333.2740000002,
      "d": 1249.9995000000054,
      "v": 127
    },
    {
      "midi": 56,
      "hit": false,
      "t": 148749.94050000023,
      "d": 416.6664999999921,
      "v": 127
    },
    {
      "midi": 61,
      "hit": false,
      "t": 149166.60700000022,
      "d": 416.6664999999921,
      "v": 127
    },
    {
      "midi": 64,
      "hit": false,
      "t": 149166.60700000022,
      "d": 416.6664999999921,
      "v": 127
    },
    {
      "midi": 42,
      "hit": false,
      "t": 149583.2735000002,
      "d": 416.6664999999921,
      "v": 127
    },
    {
      "midi": 59,
      "hit": false,
      "t": 149583.2735000002,
      "d": 416.6664999999921,
      "v": 127
    },
    {
      "midi": 66,
      "hit": false,
      "t": 149583.2735000002,
      "d": 416.6664999999921,
      "v": 127
    },
    {
      "midi": 59,
      "hit": false,
      "t": 149999.9400000002,
      "d": 833.3330000000133,
      "v": 127
    },
    {
      "midi": 62,
      "hit": false,
      "t": 149999.9400000002,
      "d": 833.3330000000133,
      "v": 127
    },
    {
      "midi": 67,
      "hit": false,
      "t": 149999.9400000002,
      "d": 833.3330000000133,
      "v": 127
    },
    {
      "midi": 40,
      "hit": false,
      "t": 149999.9400000002,
      "d": 1249.9995000000054,
      "v": 127
    },
    {
      "midi": 55,
      "hit": false,
      "t": 150416.60650000023,
      "d": 416.6664999999921,
      "v": 127
    },
    {
      "midi": 55,
      "hit": false,
      "t": 150833.27300000022,
      "d": 833.3329999999842,
      "v": 127
    },
    {
      "midi": 59,
      "hit": false,
      "t": 150833.27300000022,
      "d": 833.3329999999842,
      "v": 127
    },
    {
      "midi": 62,
      "hit": false,
      "t": 150833.27300000022,
      "d": 833.3329999999842,
      "v": 127
    },
    {
      "midi": 67,
      "hit": false,
      "t": 150833.27300000022,
      "d": 833.3329999999842,
      "v": 127
    },
    {
      "midi": 45,
      "hit": false,
      "t": 151249.9395000002,
      "d": 416.6664999999921,
      "v": 127
    },
    {
      "midi": 57,
      "hit": false,
      "t": 151666.6060000002,
      "d": 416.6664999999921,
      "v": 94
    },
    {
      "midi": 64,
      "hit": false,
      "t": 151666.6060000002,
      "d": 416.6664999999921,
      "v": 103
    },
    {
      "midi": 66,
      "hit": false,
      "t": 151666.6060000002,
      "d": 416.6664999999921,
      "v": 109
    },
    {
      "midi": 38,
      "hit": false,
      "t": 151666.6060000002,
      "d": 833.3329999999842,
      "v": 92
    },
    {
      "midi": 45,
      "hit": false,
      "t": 152083.2725000002,
      "d": 416.6664999999921,
      "v": 94
    },
    {
      "midi": 50,
      "hit": false,
      "t": 152499.9390000002,
      "d": 416.6664999999921,
      "v": 76
    },
    {
      "midi": 57,
      "hit": false,
      "t": 152499.9390000002,
      "d": 416.6664999999921,
      "v": 96
    },
    {
      "midi": 64,
      "hit": false,
      "t": 152499.9390000002,
      "d": 416.6664999999921,
      "v": 110
    },
    {
      "midi": 66,
      "hit": false,
      "t": 152499.9390000002,
      "d": 416.6664999999921,
      "v": 105
    },
    {
      "midi": 57,
      "hit": false,
      "t": 152916.60550000018,
      "d": 416.6664999999921,
      "v": 91
    },
    {
      "midi": 57,
      "hit": false,
      "t": 153333.27200000017,
      "d": 416.6665000000212,
      "v": 93
    },
    {
      "midi": 61,
      "hit": false,
      "t": 153333.27200000017,
      "d": 416.6665000000212,
      "v": 93
    },
    {
      "midi": 64,
      "hit": false,
      "t": 153333.27200000017,
      "d": 416.6665000000212,
      "v": 105
    },
    {
      "midi": 49,
      "hit": false,
      "t": 153333.27200000017,
      "d": 1249.9995000000054,
      "v": 97
    },
    {
      "midi": 57,
      "hit": false,
      "t": 153749.9385000002,
      "d": 416.6664999999921,
      "v": 95
    },
    {
      "midi": 61,
      "hit": false,
      "t": 154166.60500000019,
      "d": 416.6664999999921,
      "v": 94
    },
    {
      "midi": 69,
      "hit": false,
      "t": 154166.60500000019,
      "d": 416.6664999999921,
      "v": 95
    },
    {
      "midi": 64,
      "hit": false,
      "t": 154583.27150000018,
      "d": 416.6664999999921,
      "v": 104
    },
    {
      "midi": 57,
      "hit": false,
      "t": 154999.93800000017,
      "d": 416.6665000000212,
      "v": 90
    },
    {
      "midi": 60,
      "hit": false,
      "t": 154999.93800000017,
      "d": 416.6665000000212,
      "v": 110
    },
    {
      "midi": 66,
      "hit": false,
      "t": 154999.93800000017,
      "d": 416.6665000000212,
      "v": 101
    },
    {
      "midi": 48,
      "hit": false,
      "t": 154999.93800000017,
      "d": 1249.9995000000054,
      "v": 111
    },
    {
      "midi": 57,
      "hit": false,
      "t": 155416.6045000002,
      "d": 416.6664999999921,
      "v": 87
    },
    {
      "midi": 60,
      "hit": false,
      "t": 155833.27100000018,
      "d": 416.6664999999921,
      "v": 104
    },
    {
      "midi": 66,
      "hit": false,
      "t": 156249.93750000017,
      "d": 416.6664999999921,
      "v": 88
    },
    {
      "midi": 57,
      "hit": false,
      "t": 156666.60400000017,
      "d": 416.6664999999921,
      "v": 95
    },
    {
      "midi": 63,
      "hit": false,
      "t": 156666.60400000017,
      "d": 416.6664999999921,
      "v": 49
    },
    {
      "midi": 67,
      "hit": false,
      "t": 156666.60400000017,
      "d": 416.6664999999921,
      "v": 81
    },
    {
      "midi": 47,
      "hit": false,
      "t": 156666.60400000017,
      "d": 1249.9994999999763,
      "v": 103
    },
    {
      "midi": 57,
      "hit": false,
      "t": 157083.27050000016,
      "d": 416.6664999999921,
      "v": 77
    },
    {
      "midi": 63,
      "hit": false,
      "t": 157499.93700000015,
      "d": 416.6664999999921,
      "v": 101
    },
    {
      "midi": 66,
      "hit": false,
      "t": 157499.93700000015,
      "d": 416.6664999999921,
      "v": 100
    },
    {
      "midi": 57,
      "hit": false,
      "t": 157916.60350000014,
      "d": 416.6664999999921,
      "v": 85
    },
    {
      "midi": 40,
      "hit": false,
      "t": 158333.27000000014,
      "d": 833.3330000000133,
      "v": 102
    },
    {
      "midi": 59,
      "hit": false,
      "t": 158333.27000000014,
      "d": 833.3330000000133,
      "v": 106
    },
    {
      "midi": 62,
      "hit": false,
      "t": 158333.27000000014,
      "d": 833.3330000000133,
      "v": 103
    },
    {
      "midi": 64,
      "hit": false,
      "t": 158333.27000000014,
      "d": 833.3330000000133,
      "v": 103
    },
    {
      "midi": 67,
      "hit": false,
      "t": 158333.27000000014,
      "d": 833.3330000000133,
      "v": 111
    },
    {
      "midi": 47,
      "hit": false,
      "t": 158749.93650000016,
      "d": 833.3329999999842,
      "v": 90
    },
    {
      "midi": 52,
      "hit": false,
      "t": 159166.60300000015,
      "d": 416.6664999999921,
      "v": 108
    },
    {
      "midi": 55,
      "hit": false,
      "t": 159583.26950000014,
      "d": 416.6664999999921,
      "v": 90
    },
    {
      "midi": 38,
      "hit": false,
      "t": 159999.93600000013,
      "d": 833.3330000000133,
      "v": 89
    },
    {
      "midi": 59,
      "hit": false,
      "t": 159999.93600000013,
      "d": 833.3330000000133,
      "v": 96
    },
    {
      "midi": 62,
      "hit": false,
      "t": 159999.93600000013,
      "d": 833.3330000000133,
      "v": 101
    },
    {
      "midi": 64,
      "hit": false,
      "t": 159999.93600000013,
      "d": 833.3330000000133,
      "v": 107
    },
    {
      "midi": 67,
      "hit": false,
      "t": 159999.93600000013,
      "d": 833.3330000000133,
      "v": 103
    },
    {
      "midi": 47,
      "hit": false,
      "t": 160416.60250000015,
      "d": 416.6664999999921,
      "v": 92
    },
    {
      "midi": 50,
      "hit": false,
      "t": 160833.26900000015,
      "d": 416.6664999999921,
      "v": 92
    },
    {
      "midi": 55,
      "hit": false,
      "t": 161249.93550000014,
      "d": 416.6664999999921,
      "v": 77
    },
    {
      "midi": 61,
      "hit": false,
      "t": 161666.60200000013,
      "d": 416.6664999999921,
      "v": 94
    },
    {
      "midi": 64,
      "hit": false,
      "t": 161666.60200000013,
      "d": 416.6664999999921,
      "v": 94
    },
    {
      "midi": 37,
      "hit": false,
      "t": 161666.60200000013,
      "d": 833.3329999999842,
      "v": 69
    },
    {
      "midi": 49,
      "hit": false,
      "t": 161666.60200000013,
      "d": 833.3329999999842,
      "v": 91
    },
    {
      "midi": 55,
      "hit": false,
      "t": 162083.26850000012,
      "d": 416.6664999999921,
      "v": 91
    },
    {
      "midi": 61,
      "hit": false,
      "t": 162499.9350000001,
      "d": 416.6664999999921,
      "v": 94
    },
    {
      "midi": 64,
      "hit": false,
      "t": 162916.6015000001,
      "d": 416.6664999999921,
      "v": 115
    },
    {
      "midi": 58,
      "hit": false,
      "t": 163333.2680000001,
      "d": 416.6664999999921,
      "v": 115
    },
    {
      "midi": 61,
      "hit": false,
      "t": 163333.2680000001,
      "d": 416.6664999999921,
      "v": 117
    },
    {
      "midi": 42,
      "hit": false,
      "t": 163333.2680000001,
      "d": 833.3329999999842,
      "v": 107
    },
    {
      "midi": 54,
      "hit": false,
      "t": 163749.9345000001,
      "d": 416.6664999999921,
      "v": 101
    },
    {
      "midi": 58,
      "hit": false,
      "t": 164166.60100000008,
      "d": 416.6664999999921,
      "v": 115
    },
    {
      "midi": 61,
      "hit": false,
      "t": 164166.60100000008,
      "d": 416.6664999999921,
      "v": 112
    },
    {
      "midi": 66,
      "hit": false,
      "t": 164166.60100000008,
      "d": 416.6664999999921,
      "v": 123
    },
    {
      "midi": 64,
      "hit": false,
      "t": 164583.26750000007,
      "d": 416.6664999999921,
      "v": 94
    },
    {
      "midi": 62,
      "hit": false,
      "t": 164999.93400000007,
      "d": 833.3330000000133,
      "v": 108
    },
    {
      "midi": 66,
      "hit": false,
      "t": 164999.93400000007,
      "d": 833.3330000000133,
      "v": 101
    },
    {
      "midi": 47,
      "hit": false,
      "t": 164999.93400000007,
      "d": 1249.9995000000054,
      "v": 107
    },
    {
      "midi": 54,
      "hit": false,
      "t": 165416.6005000001,
      "d": 1249.9994999999763,
      "v": 97
    },
    {
      "midi": 59,
      "hit": false,
      "t": 165833.26700000008,
      "d": 416.6664999999921,
      "v": 98
    },
    {
      "midi": 62,
      "hit": false,
      "t": 166249.93350000007,
      "d": 416.6664999999921,
      "v": 110
    },
    {
      "midi": 57,
      "hit": false,
      "t": 166666.60000000006,
      "d": 416.6664999999921,
      "v": 104
    },
    {
      "midi": 66,
      "hit": false,
      "t": 166666.60000000006,
      "d": 416.6664999999921,
      "v": 98
    },
    {
      "midi": 45,
      "hit": false,
      "t": 166666.60000000006,
      "d": 833.3329999999842,
      "v": 102
    },
    {
      "midi": 62,
      "hit": false,
      "t": 166666.60000000006,
      "d": 833.3329999999842,
      "v": 110
    },
    {
      "midi": 54,
      "hit": false,
      "t": 167083.26650000006,
      "d": 416.6664999999921,
      "v": 80
    },
    {
      "midi": 57,
      "hit": false,
      "t": 167499.93300000005,
      "d": 416.6664999999921,
      "v": 98
    },
    {
      "midi": 62,
      "hit": false,
      "t": 167916.59950000004,
      "d": 416.6664999999921,
      "v": 105
    },
    {
      "midi": 59,
      "hit": false,
      "t": 168333.26600000003,
      "d": 416.6664999999921,
      "v": 103
    },
    {
      "midi": 62,
      "hit": false,
      "t": 168333.26600000003,
      "d": 416.6664999999921,
      "v": 79
    },
    {
      "midi": 66,
      "hit": false,
      "t": 168333.26600000003,
      "d": 416.6664999999921,
      "v": 74
    },
    {
      "midi": 43,
      "hit": false,
      "t": 168333.26600000003,
      "d": 1249.9994999999763,
      "v": 80
    },
    {
      "midi": 50,
      "hit": false,
      "t": 168749.93250000002,
      "d": 833.3329999999842,
      "v": 104
    },
    {
      "midi": 55,
      "hit": false,
      "t": 169166.59900000002,
      "d": 416.6664999999921,
      "v": 94
    },
    {
      "midi": 62,
      "hit": false,
      "t": 169166.59900000002,
      "d": 416.6664999999921,
      "v": 111
    },
    {
      "midi": 66,
      "hit": false,
      "t": 169166.59900000002,
      "d": 416.6664999999921,
      "v": 86
    },
    {
      "midi": 71,
      "hit": false,
      "t": 169166.59900000002,
      "d": 416.6664999999921,
      "v": 122
    },
    {
      "midi": 59,
      "hit": false,
      "t": 169583.2655,
      "d": 416.6664999999921,
      "v": 92
    },
    {
      "midi": 43,
      "hit": false,
      "t": 169999.932,
      "d": 833.3329999999842,
      "v": 93
    },
    {
      "midi": 50,
      "hit": false,
      "t": 170416.5985,
      "d": 833.3329999999842,
      "v": 100
    },
    {
      "midi": 55,
      "hit": false,
      "t": 170833.26499999998,
      "d": 416.6664999999921,
      "v": 89
    },
    {
      "midi": 62,
      "hit": false,
      "t": 170833.26499999998,
      "d": 416.6664999999921,
      "v": 109
    },
    {
      "midi": 66,
      "hit": false,
      "t": 170833.26499999998,
      "d": 416.6664999999921,
      "v": 103
    },
    {
      "midi": 71,
      "hit": false,
      "t": 170833.26499999998,
      "d": 416.6664999999921,
      "v": 121
    },
    {
      "midi": 59,
      "hit": false,
      "t": 171249.93149999998,
      "d": 416.6664999999921,
      "v": 103
    },
    {
      "midi": 62,
      "hit": false,
      "t": 171249.93149999998,
      "d": 416.6664999999921,
      "v": 91
    },
    {
      "midi": 55,
      "hit": false,
      "t": 171666.59799999997,
      "d": 416.6664999999921,
      "v": 90
    },
    {
      "midi": 59,
      "hit": false,
      "t": 171666.59799999997,
      "d": 416.6664999999921,
      "v": 106
    },
    {
      "midi": 62,
      "hit": false,
      "t": 171666.59799999997,
      "d": 416.6664999999921,
      "v": 92
    },
    {
      "midi": 45,
      "hit": false,
      "t": 171666.59799999997,
      "d": 1249.9994999999763,
      "v": 103
    },
    {
      "midi": 55,
      "hit": false,
      "t": 172083.26449999996,
      "d": 416.6664999999921,
      "v": 78
    },
    {
      "midi": 59,
      "hit": false,
      "t": 172499.93099999995,
      "d": 416.6664999999921,
      "v": 101
    },
    {
      "midi": 62,
      "hit": false,
      "t": 172499.93099999995,
      "d": 416.6664999999921,
      "v": 99
    },
    {
      "midi": 67,
      "hit": false,
      "t": 172499.93099999995,
      "d": 416.6664999999921,
      "v": 103
    },
    {
      "midi": 55,
      "hit": false,
      "t": 172916.59749999995,
      "d": 416.6664999999921,
      "v": 84
    },
    {
      "midi": 55,
      "hit": false,
      "t": 173333.26399999994,
      "d": 416.6665000000212,
      "v": 82
    },
    {
      "midi": 61,
      "hit": false,
      "t": 173333.26399999994,
      "d": 416.6665000000212,
      "v": 76
    },
    {
      "midi": 64,
      "hit": false,
      "t": 173333.26399999994,
      "d": 416.6665000000212,
      "v": 95
    },
    {
      "midi": 45,
      "hit": false,
      "t": 173333.26399999994,
      "d": 833.3330000000133,
      "v": 86
    },
    {
      "midi": 55,
      "hit": false,
      "t": 173749.93049999996,
      "d": 416.6664999999921,
      "v": 90
    },
    {
      "midi": 61,
      "hit": false,
      "t": 174166.59699999995,
      "d": 416.6664999999921,
      "v": 108
    },
    {
      "midi": 64,
      "hit": false,
      "t": 174166.59699999995,
      "d": 416.6664999999921,
      "v": 110
    },
    {
      "midi": 45,
      "hit": false,
      "t": 174583.26349999994,
      "d": 416.6664999999921,
      "v": 84
    },
    {
      "midi": 48,
      "hit": false,
      "t": 174999.92999999993,
      "d": 3333.331999999995,
      "v": 127
    },
    {
      "midi": 58,
      "hit": false,
      "t": 174999.92999999993,
      "d": 3333.331999999995,
      "v": 127
    },
    {
      "midi": 70,
      "hit": false,
      "t": 174999.92999999993,
      "d": 3333.331999999995,
      "v": 127
    },
    {
      "midi": 74,
      "hit": false,
      "t": 174999.92999999993,
      "d": 3333.331999999995,
      "v": 127
    },
    {
      "midi": 47,
      "hit": false,
      "t": 178333.26199999993,
      "d": 2499.9990000000107,
      "v": 127
    },
    {
      "midi": 57,
      "hit": false,
      "t": 178333.26199999993,
      "d": 2499.9990000000107,
      "v": 127
    },
    {
      "midi": 69,
      "hit": false,
      "t": 178333.26199999993,
      "d": 3333.332000000024,
      "v": 127
    },
    {
      "midi": 72,
      "hit": false,
      "t": 178333.26199999993,
      "d": 3333.332000000024,
      "v": 127
    },
    {
      "midi": 75,
      "hit": false,
      "t": 178333.26199999993,
      "d": 3333.332000000024,
      "v": 127
    },
    {
      "midi": 47,
      "hit": false,
      "t": 180833.26099999994,
      "d": 833.3330000000133,
      "v": 127
    },
    {
      "midi": 40,
      "hit": false,
      "t": 181666.59399999995,
      "d": 833.3330000000133,
      "v": 102
    },
    {
      "midi": 59,
      "hit": false,
      "t": 181666.59399999995,
      "d": 833.3330000000133,
      "v": 106
    },
    {
      "midi": 62,
      "hit": false,
      "t": 181666.59399999995,
      "d": 833.3330000000133,
      "v": 103
    },
    {
      "midi": 64,
      "hit": false,
      "t": 181666.59399999995,
      "d": 833.3330000000133,
      "v": 103
    },
    {
      "midi": 67,
      "hit": false,
      "t": 181666.59399999995,
      "d": 833.3330000000133,
      "v": 111
    },
    {
      "midi": 47,
      "hit": false,
      "t": 182083.26049999997,
      "d": 833.3329999999842,
      "v": 90
    },
    {
      "midi": 52,
      "hit": false,
      "t": 182499.92699999997,
      "d": 416.6664999999921,
      "v": 108
    },
    {
      "midi": 55,
      "hit": false,
      "t": 182916.59349999996,
      "d": 416.6664999999921,
      "v": 90
    },
    {
      "midi": 42,
      "hit": false,
      "t": 183333.25999999995,
      "d": 833.3330000000133,
      "v": 89
    },
    {
      "midi": 62,
      "hit": false,
      "t": 183333.25999999995,
      "d": 833.3330000000133,
      "v": 101
    },
    {
      "midi": 66,
      "hit": false,
      "t": 183333.25999999995,
      "d": 833.3330000000133,
      "v": 107
    },
    {
      "midi": 69,
      "hit": false,
      "t": 183333.25999999995,
      "d": 833.3330000000133,
      "v": 103
    },
    {
      "midi": 57,
      "hit": false,
      "t": 183749.92649999997,
      "d": 416.6664999999921,
      "v": 92
    },
    {
      "midi": 62,
      "hit": false,
      "t": 184166.59299999996,
      "d": 416.6664999999921,
      "v": 92
    },
    {
      "midi": 66,
      "hit": false,
      "t": 184583.25949999996,
      "d": 416.6664999999921,
      "v": 77
    },
    {
      "midi": 43,
      "hit": false,
      "t": 184999.92599999995,
      "d": 833.3330000000133,
      "v": 102
    },
    {
      "midi": 55,
      "hit": false,
      "t": 184999.92599999995,
      "d": 833.3330000000133,
      "v": 111
    },
    {
      "midi": 59,
      "hit": false,
      "t": 184999.92599999995,
      "d": 833.3330000000133,
      "v": 106
    },
    {
      "midi": 62,
      "hit": false,
      "t": 184999.92599999995,
      "d": 833.3330000000133,
      "v": 103
    },
    {
      "midi": 66,
      "hit": false,
      "t": 184999.92599999995,
      "d": 833.3330000000133,
      "v": 103
    },
    {
      "midi": 50,
      "hit": false,
      "t": 185416.59249999997,
      "d": 833.3329999999842,
      "v": 90
    },
    {
      "midi": 55,
      "hit": false,
      "t": 185833.25899999996,
      "d": 416.6664999999921,
      "v": 108
    },
    {
      "midi": 59,
      "hit": false,
      "t": 186249.92549999995,
      "d": 416.6664999999921,
      "v": 90
    },
    {
      "midi": 44,
      "hit": false,
      "t": 186666.59199999995,
      "d": 833.3330000000133,
      "v": 89
    },
    {
      "midi": 59,
      "hit": false,
      "t": 186666.59199999995,
      "d": 833.3330000000133,
      "v": 101
    },
    {
      "midi": 62,
      "hit": false,
      "t": 186666.59199999995,
      "d": 833.3330000000133,
      "v": 107
    },
    {
      "midi": 68,
      "hit": false,
      "t": 186666.59199999995,
      "d": 833.3330000000133,
      "v": 103
    },
    {
      "midi": 56,
      "hit": false,
      "t": 187083.25849999997,
      "d": 416.6664999999921,
      "v": 92
    },
    {
      "midi": 59,
      "hit": false,
      "t": 187499.92499999996,
      "d": 416.6664999999921,
      "v": 92
    },
    {
      "midi": 62,
      "hit": false,
      "t": 187916.59149999995,
      "d": 416.6664999999921,
      "v": 77
    },
    {
      "midi": 45,
      "hit": false,
      "t": 188333.25799999994,
      "d": 833.3330000000133,
      "v": 102
    },
    {
      "midi": 57,
      "hit": false,
      "t": 188333.25799999994,
      "d": 833.3330000000133,
      "v": 106
    },
    {
      "midi": 62,
      "hit": false,
      "t": 188333.25799999994,
      "d": 833.3330000000133,
      "v": 103
    },
    {
      "midi": 66,
      "hit": false,
      "t": 188333.25799999994,
      "d": 833.3330000000133,
      "v": 103
    },
    {
      "midi": 69,
      "hit": false,
      "t": 188333.25799999994,
      "d": 833.3330000000133,
      "v": 111
    },
    {
      "midi": 54,
      "hit": false,
      "t": 188749.92449999996,
      "d": 833.3329999999842,
      "v": 90
    },
    {
      "midi": 57,
      "hit": false,
      "t": 189166.59099999996,
      "d": 416.6664999999921,
      "v": 108
    },
    {
      "midi": 62,
      "hit": false,
      "t": 189583.25749999995,
      "d": 416.6664999999921,
      "v": 90
    },
    {
      "midi": 45,
      "hit": false,
      "t": 189999.92399999994,
      "d": 833.3330000000133,
      "v": 89
    },
    {
      "midi": 62,
      "hit": false,
      "t": 189999.92399999994,
      "d": 833.3330000000133,
      "v": 101
    },
    {
      "midi": 66,
      "hit": false,
      "t": 189999.92399999994,
      "d": 833.3330000000133,
      "v": 107
    },
    {
      "midi": 69,
      "hit": false,
      "t": 189999.92399999994,
      "d": 833.3330000000133,
      "v": 103
    },
    {
      "midi": 57,
      "hit": false,
      "t": 190416.59049999996,
      "d": 416.6664999999921,
      "v": 92
    },
    {
      "midi": 62,
      "hit": false,
      "t": 190833.25699999995,
      "d": 416.6664999999921,
      "v": 92
    },
    {
      "midi": 66,
      "hit": false,
      "t": 191249.92349999995,
      "d": 416.6664999999921,
      "v": 77
    },
    {
      "midi": 45,
      "hit": false,
      "t": 191666.58999999994,
      "d": 1666.6659999999974,
      "v": 77
    },
    {
      "midi": 59,
      "hit": false,
      "t": 191666.58999999994,
      "d": 1666.6659999999974,
      "v": 77
    },
    {
      "midi": 62,
      "hit": false,
      "t": 191666.58999999994,
      "d": 1666.6659999999974,
      "v": 77
    },
    {
      "midi": 67,
      "hit": false,
      "t": 191666.58999999994,
      "d": 1666.6659999999974,
      "v": 77
    },
    {
      "midi": 71,
      "hit": false,
      "t": 192298.53419166664,
      "d": 215.27769166670623,
      "v": 106
    },
    {
      "midi": 74,
      "hit": false,
      "t": 192361.03416666665,
      "d": 215.27769166670623,
      "v": 127
    },
    {
      "midi": 78,
      "hit": false,
      "t": 192451.31190833333,
      "d": 180.555483333359,
      "v": 127
    },
    {
      "midi": 83,
      "hit": false,
      "t": 192569.36741666668,
      "d": 131.9443916666787,
      "v": 127
    },
    {
      "midi": 69,
      "hit": false,
      "t": 199999.92,
      "d": 416.6664999999921,
      "v": 119
    },
    {
      "midi": 74,
      "hit": false,
      "t": 199999.92,
      "d": 416.6664999999921,
      "v": 127
    },
    {
      "midi": 78,
      "hit": false,
      "t": 199999.92,
      "d": 416.6664999999921,
      "v": 90
    },
    {
      "midi": 50,
      "hit": false,
      "t": 199999.92,
      "d": 833.3329999999842,
      "v": 112
    },
    {
      "midi": 57,
      "hit": false,
      "t": 200416.5865,
      "d": 416.6664999999921,
      "v": 121
    },
    {
      "midi": 62,
      "hit": false,
      "t": 200833.253,
      "d": 416.6664999999921,
      "v": 122
    },
    {
      "midi": 66,
      "hit": false,
      "t": 201249.9195,
      "d": 1249.9994999999763,
      "v": 127
    },
    {
      "midi": 69,
      "hit": false,
      "t": 201666.58599999998,
      "d": 833.3329999999842,
      "v": 127
    },
    {
      "midi": 74,
      "hit": false,
      "t": 202083.25249999997,
      "d": 416.6664999999921,
      "v": 127
    },
    {
      "midi": 78,
      "hit": false,
      "t": 202499.91899999997,
      "d": 416.6664999999921,
      "v": 127
    },
    {
      "midi": 70,
      "hit": false,
      "t": 203333.25199999995,
      "d": 833.3330000000133,
      "v": 94
    },
    {
      "midi": 73,
      "hit": false,
      "t": 203333.25199999995,
      "d": 1249.9995000000054,
      "v": 121
    },
    {
      "midi": 78,
      "hit": false,
      "t": 203333.25199999995,
      "d": 1249.9995000000054,
      "v": 126
    },
    {
      "midi": 50,
      "hit": false,
      "t": 203333.25199999995,
      "d": 2916.6654999999737,
      "v": 127
    },
    {
      "midi": 58,
      "hit": false,
      "t": 203749.91849999997,
      "d": 2499.9989999999525,
      "v": 109
    },
    {
      "midi": 62,
      "hit": false,
      "t": 204166.58499999996,
      "d": 2083.3324999999604,
      "v": 110
    },
    {
      "midi": 70,
      "hit": false,
      "t": 204583.25149999995,
      "d": 416.6664999999921,
      "v": 100
    },
    {
      "midi": 78,
      "hit": false,
      "t": 204999.91799999995,
      "d": 416.6664999999921,
      "v": 127
    },
    {
      "midi": 73,
      "hit": false,
      "t": 205416.58449999994,
      "d": 416.6664999999921,
      "v": 75
    },
    {
      "midi": 70,
      "hit": false,
      "t": 205833.25099999993,
      "d": 416.6664999999921,
      "v": 113
    },
    {
      "midi": 73,
      "hit": false,
      "t": 206249.91749999992,
      "d": 416.6664999999921,
      "v": 127
    },
    {
      "midi": 71,
      "hit": false,
      "t": 206666.58399999992,
      "d": 833.3330000000133,
      "v": 120
    },
    {
      "midi": 74,
      "hit": false,
      "t": 206666.58399999992,
      "d": 833.3330000000133,
      "v": 127
    },
    {
      "midi": 78,
      "hit": false,
      "t": 206666.58399999992,
      "d": 833.3330000000133,
      "v": 127
    },
    {
      "midi": 50,
      "hit": false,
      "t": 206666.58399999992,
      "d": 2916.6654999999737,
      "v": 122
    },
    {
      "midi": 59,
      "hit": false,
      "t": 207083.25049999994,
      "d": 2499.9989999999525,
      "v": 120
    },
    {
      "midi": 62,
      "hit": false,
      "t": 207499.91699999993,
      "d": 1249.9994999999763,
      "v": 119
    },
    {
      "midi": 71,
      "hit": false,
      "t": 207916.58349999992,
      "d": 416.6664999999921,
      "v": 127
    },
    {
      "midi": 78,
      "hit": false,
      "t": 208333.2499999999,
      "d": 833.3329999999842,
      "v": 127
    },
    {
      "midi": 74,
      "hit": false,
      "t": 208749.9164999999,
      "d": 416.6664999999921,
      "v": 127
    },
    {
      "midi": 71,
      "hit": false,
      "t": 209166.5829999999,
      "d": 416.6664999999921,
      "v": 127
    },
    {
      "midi": 74,
      "hit": false,
      "t": 209583.2494999999,
      "d": 416.6664999999921,
      "v": 127
    },
    {
      "midi": 69,
      "hit": false,
      "t": 209999.91599999988,
      "d": 833.3330000000133,
      "v": 116
    },
    {
      "midi": 72,
      "hit": false,
      "t": 209999.91599999988,
      "d": 833.3330000000133,
      "v": 127
    },
    {
      "midi": 78,
      "hit": false,
      "t": 209999.91599999988,
      "d": 833.3330000000133,
      "v": 116
    },
    {
      "midi": 50,
      "hit": false,
      "t": 209999.91599999988,
      "d": 2499.9989999999816,
      "v": 123
    },
    {
      "midi": 57,
      "hit": false,
      "t": 210416.5824999999,
      "d": 2083.3324999999604,
      "v": 118
    },
    {
      "midi": 62,
      "hit": false,
      "t": 210833.2489999999,
      "d": 833.3329999999842,
      "v": 115
    },
    {
      "midi": 69,
      "hit": false,
      "t": 211249.9154999999,
      "d": 416.6664999999921,
      "v": 126
    },
    {
      "midi": 78,
      "hit": false,
      "t": 211666.58199999988,
      "d": 416.6664999999921,
      "v": 127
    },
    {
      "midi": 72,
      "hit": false,
      "t": 212083.24849999987,
      "d": 416.6664999999921,
      "v": 127
    },
    {
      "midi": 81,
      "hit": false,
      "t": 212499.91499999986,
      "d": 416.6664999999921,
      "v": 127
    },
    {
      "midi": 78,
      "hit": false,
      "t": 212916.58149999985,
      "d": 416.6664999999921,
      "v": 114
    },
    {
      "midi": 55,
      "hit": false,
      "t": 213333.24799999985,
      "d": 1249.9995000000054,
      "v": 127
    },
    {
      "midi": 71,
      "hit": false,
      "t": 213749.91449999987,
      "d": 416.6664999999921,
      "v": 127
    },
    {
      "midi": 62,
      "hit": false,
      "t": 213749.91449999987,
      "d": 833.3329999999842,
      "v": 127
    },
    {
      "midi": 67,
      "hit": false,
      "t": 214166.58099999986,
      "d": 416.6664999999921,
      "v": 119
    },
    {
      "midi": 74,
      "hit": false,
      "t": 214166.58099999986,
      "d": 416.6664999999921,
      "v": 127
    },
    {
      "midi": 79,
      "hit": false,
      "t": 214583.24749999985,
      "d": 416.6664999999921,
      "v": 126
    },
    {
      "midi": 55,
      "hit": false,
      "t": 214999.91399999984,
      "d": 833.3330000000133,
      "v": 125
    },
    {
      "midi": 73,
      "hit": false,
      "t": 214999.91399999984,
      "d": 833.3330000000133,
      "v": 73
    },
    {
      "midi": 76,
      "hit": false,
      "t": 214999.91399999984,
      "d": 833.3330000000133,
      "v": 120
    },
    {
      "midi": 81,
      "hit": false,
      "t": 214999.91399999984,
      "d": 833.3330000000133,
      "v": 127
    },
    {
      "midi": 67,
      "hit": false,
      "t": 215833.24699999986,
      "d": 416.6664999999921,
      "v": 120
    },
    {
      "midi": 73,
      "hit": false,
      "t": 215833.24699999986,
      "d": 416.6664999999921,
      "v": 127
    },
    {
      "midi": 73,
      "hit": false,
      "t": 216666.57999999984,
      "d": 416.6665000000212,
      "v": 127
    },
    {
      "midi": 81,
      "hit": false,
      "t": 216666.57999999984,
      "d": 416.6665000000212,
      "v": 127
    },
    {
      "midi": 54,
      "hit": false,
      "t": 216666.57999999984,
      "d": 833.3330000000133,
      "v": 127
    },
    {
      "midi": 66,
      "hit": false,
      "t": 217083.24649999986,
      "d": 416.6664999999921,
      "v": 99
    },
    {
      "midi": 69,
      "hit": false,
      "t": 217083.24649999986,
      "d": 416.6664999999921,
      "v": 120
    },
    {
      "midi": 76,
      "hit": false,
      "t": 217083.24649999986,
      "d": 416.6664999999921,
      "v": 127
    },
    {
      "midi": 73,
      "hit": false,
      "t": 217499.91299999985,
      "d": 416.6664999999921,
      "v": 127
    },
    {
      "midi": 69,
      "hit": false,
      "t": 217916.57949999985,
      "d": 416.6665000000212,
      "v": 123
    },
    {
      "midi": 69,
      "hit": false,
      "t": 218333.24599999987,
      "d": 416.6665000000212,
      "v": 105
    },
    {
      "midi": 72,
      "hit": false,
      "t": 218333.24599999987,
      "d": 416.6665000000212,
      "v": 121
    },
    {
      "midi": 53,
      "hit": false,
      "t": 218333.24599999987,
      "d": 833.3330000000133,
      "v": 127
    },
    {
      "midi": 65,
      "hit": false,
      "t": 218333.24599999987,
      "d": 833.3330000000133,
      "v": 110
    },
    {
      "midi": 77,
      "hit": false,
      "t": 218333.24599999987,
      "d": 833.3330000000133,
      "v": 127
    },
    {
      "midi": 69,
      "hit": false,
      "t": 218749.9124999999,
      "d": 416.6664999999921,
      "v": 127
    },
    {
      "midi": 63,
      "hit": false,
      "t": 219166.57899999988,
      "d": 416.6664999999921,
      "v": 127
    },
    {
      "midi": 81,
      "hit": false,
      "t": 219583.24549999987,
      "d": 416.6664999999921,
      "v": 116
    },
    {
      "midi": 52,
      "hit": false,
      "t": 219999.91199999987,
      "d": 1666.6659999999974,
      "v": 116
    },
    {
      "midi": 59,
      "hit": false,
      "t": 220041.57864999986,
      "d": 1624.9993499999982,
      "v": 116
    },
    {
      "midi": 67,
      "hit": false,
      "t": 220083.24529999986,
      "d": 1583.332699999999,
      "v": 116
    },
    {
      "midi": 71,
      "hit": false,
      "t": 220124.91194999986,
      "d": 1541.6660499999998,
      "v": 116
    },
    {
      "midi": 74,
      "hit": false,
      "t": 220166.57859999986,
      "d": 1499.9994000000006,
      "v": 116
    },
    {
      "midi": 54,
      "hit": false,
      "t": 221666.57799999986,
      "d": 1666.6659999999974,
      "v": 116
    },
    {
      "midi": 62,
      "hit": false,
      "t": 221708.24464999986,
      "d": 1624.9993499999982,
      "v": 116
    },
    {
      "midi": 69,
      "hit": false,
      "t": 221749.91129999986,
      "d": 1583.332699999999,
      "v": 116
    },
    {
      "midi": 74,
      "hit": false,
      "t": 221791.57794999986,
      "d": 1541.6660499999998,
      "v": 116
    },
    {
      "midi": 78,
      "hit": false,
      "t": 221833.24459999986,
      "d": 1499.9994000000006,
      "v": 116
    },
    {
      "midi": 55,
      "hit": false,
      "t": 223333.24399999986,
      "d": 1666.6659999999974,
      "v": 116
    },
    {
      "midi": 59,
      "hit": false,
      "t": 223374.91064999986,
      "d": 1624.9993499999982,
      "v": 116
    },
    {
      "midi": 66,
      "hit": false,
      "t": 223416.57729999986,
      "d": 1583.332699999999,
      "v": 116
    },
    {
      "midi": 71,
      "hit": false,
      "t": 223458.24394999986,
      "d": 1541.6660499999998,
      "v": 116
    },
    {
      "midi": 78,
      "hit": false,
      "t": 223499.91059999986,
      "d": 1499.9994000000006,
      "v": 116
    },
    {
      "midi": 45,
      "hit": false,
      "t": 224999.90999999986,
      "d": 1666.6659999999974,
      "v": 116
    },
    {
      "midi": 55,
      "hit": false,
      "t": 225041.57664999986,
      "d": 1624.9993499999982,
      "v": 116
    },
    {
      "midi": 59,
      "hit": false,
      "t": 225083.24329999986,
      "d": 1583.332699999999,
      "v": 116
    },
    {
      "midi": 62,
      "hit": false,
      "t": 225124.90994999986,
      "d": 1541.6660499999998,
      "v": 116
    },
    {
      "midi": 67,
      "hit": false,
      "t": 225166.57659999985,
      "d": 1499.9994000000006,
      "v": 116
    },
    {
      "midi": 38,
      "hit": false,
      "t": 226666.57599999986,
      "d": 416.6665000000212,
      "v": 116
    },
    {
      "midi": 45,
      "hit": false,
      "t": 227083.24249999988,
      "d": 416.6664999999921,
      "v": 116
    },
    {
      "midi": 50,
      "hit": false,
      "t": 227499.90899999987,
      "d": 416.6664999999921,
      "v": 116
    },
    {
      "midi": 54,
      "hit": false,
      "t": 227916.57549999986,
      "d": 416.6664999999921,
      "v": 116
    },
    {
      "midi": 57,
      "hit": false,
      "t": 228333.24199999985,
      "d": 1666.6659999999683,
      "v": 116
    },
    {
      "midi": 66,
      "hit": false,
      "t": 228749.90849999984,
      "d": 416.6664999999921,
      "v": 116
    },
    {
      "midi": 69,
      "hit": false,
      "t": 228749.90849999984,
      "d": 416.6664999999921,
      "v": 116
    },
    {
      "midi": 69,
      "hit": false,
      "t": 229166.57499999984,
      "d": 416.6664999999921,
      "v": 116
    },
    {
      "midi": 74,
      "hit": false,
      "t": 229166.57499999984,
      "d": 416.6664999999921,
      "v": 116
    },
    {
      "midi": 74,
      "hit": false,
      "t": 229583.24149999983,
      "d": 416.6664999999921,
      "v": 116
    },
    {
      "midi": 78,
      "hit": false,
      "t": 229583.24149999983,
      "d": 416.6664999999921,
      "v": 116
    },
    {
      "midi": 67,
      "hit": false,
      "t": 229999.90799999982,
      "d": 833.3330000000133,
      "v": 116
    },
    {
      "midi": 70,
      "hit": false,
      "t": 229999.90799999982,
      "d": 833.3330000000133,
      "v": 116
    },
    {
      "midi": 74,
      "hit": false,
      "t": 229999.90799999982,
      "d": 833.3330000000133,
      "v": 116
    },
    {
      "midi": 50,
      "hit": false,
      "t": 229999.90799999982,
      "d": 1666.6660000000265,
      "v": 116
    },
    {
      "midi": 67,
      "hit": false,
      "t": 230833.24099999983,
      "d": 833.3330000000133,
      "v": 116
    },
    {
      "midi": 70,
      "hit": false,
      "t": 230833.24099999983,
      "d": 833.3330000000133,
      "v": 116
    },
    {
      "midi": 76,
      "hit": false,
      "t": 230833.24099999983,
      "d": 833.3330000000133,
      "v": 116
    },
    {
      "midi": 52,
      "hit": false,
      "t": 231666.57399999985,
      "d": 416.6664999999921,
      "v": 116
    },
    {
      "midi": 70,
      "hit": false,
      "t": 231666.57399999985,
      "d": 833.3329999999842,
      "v": 116
    },
    {
      "midi": 74,
      "hit": false,
      "t": 231666.57399999985,
      "d": 833.3329999999842,
      "v": 116
    },
    {
      "midi": 79,
      "hit": false,
      "t": 231666.57399999985,
      "d": 833.3329999999842,
      "v": 116
    },
    {
      "midi": 50,
      "hit": false,
      "t": 232083.24049999984,
      "d": 416.6664999999921,
      "v": 116
    },
    {
      "midi": 49,
      "hit": false,
      "t": 232499.90699999983,
      "d": 833.3330000000133,
      "v": 116
    },
    {
      "midi": 74,
      "hit": false,
      "t": 232499.90699999983,
      "d": 833.3330000000133,
      "v": 116
    },
    {
      "midi": 79,
      "hit": false,
      "t": 232499.90699999983,
      "d": 833.3330000000133,
      "v": 116
    },
    {
      "midi": 82,
      "hit": false,
      "t": 232499.90699999983,
      "d": 833.3330000000133,
      "v": 116
    },
    {
      "midi": 38,
      "hit": false,
      "t": 233333.23999999985,
      "d": 9999.9960000008,
      "v": 116
    },
    {
      "midi": 45,
      "hit": false,
      "t": 233374.90664999984,
      "d": 9958.3293500008,
      "v": 116
    },
    {
      "midi": 50,
      "hit": false,
      "t": 233416.57329999984,
      "d": 9916.662700000801,
      "v": 116
    },
    {
      "midi": 74,
      "hit": false,
      "t": 233458.23994999984,
      "d": 9874.996050000802,
      "v": 116
    },
    {
      "midi": 78,
      "hit": false,
      "t": 233499.90659999984,
      "d": 9833.329400000803,
      "v": 116
    },
    {
      "midi": 81,
      "hit": false,
      "t": 233541.57324999984,
      "d": 9791.662750000803,
      "v": 116
    }
  ]
}