{
  "jsonPath": "Rock/Soft Rock/Carpenters/rainy-days-and-mondays.json",
  "path": "Rock\\Soft Rock\\Carpenters\\Rainy Days And Mondays.mid",
  "name": "Rainy Days And Mondays",
  "difficulty": "Advanced",
  "bpm": 75,
  "notes": [
    {
      "midi": 75,
      "hit": false,
      "t": 6400,
      "d": 391.66666666666606,
      "v": 81
    },
    {
      "midi": 67,
      "hit": false,
      "t": 6400,
      "d": 1541.6666666666652,
      "v": 85
    },
    {
      "midi": 72,
      "hit": false,
      "t": 6400,
      "d": 1558.3333333333312,
      "v": 89
    },
    {
      "midi": 60,
      "hit": false,
      "t": 6400,
      "d": 1574.9999999999973,
      "v": 83
    },
    {
      "midi": 75,
      "hit": false,
      "t": 6799.999999999999,
      "d": 1174.9999999999982,
      "v": 80
    },
    {
      "midi": 58,
      "hit": false,
      "t": 7199.999999999999,
      "d": 774.9999999999982,
      "v": 73
    },
    {
      "midi": 77,
      "hit": false,
      "t": 7583.333333333332,
      "d": 391.66666666666515,
      "v": 93
    },
    {
      "midi": 63,
      "hit": false,
      "t": 7933.333333333332,
      "d": 1658.3333333333321,
      "v": 65
    },
    {
      "midi": 67,
      "hit": false,
      "t": 7949.999999999998,
      "d": 1591.6666666666642,
      "v": 69
    },
    {
      "midi": 56,
      "hit": false,
      "t": 7958.333333333331,
      "d": 841.6666666666652,
      "v": 71
    },
    {
      "midi": 72,
      "hit": false,
      "t": 7966.666666666664,
      "d": 1591.666666666666,
      "v": 77
    },
    {
      "midi": 75,
      "hit": false,
      "t": 7991.666666666664,
      "d": 1600,
      "v": 66
    },
    {
      "midi": 79,
      "hit": false,
      "t": 7999.999999999997,
      "d": 1549.999999999999,
      "v": 92
    },
    {
      "midi": 55,
      "hit": false,
      "t": 8783.33333333333,
      "d": 800,
      "v": 83
    },
    {
      "midi": 53,
      "hit": false,
      "t": 9599.999999999998,
      "d": 675,
      "v": 76
    },
    {
      "midi": 63,
      "hit": false,
      "t": 9599.999999999998,
      "d": 675,
      "v": 69
    },
    {
      "midi": 67,
      "hit": false,
      "t": 9599.999999999998,
      "d": 675,
      "v": 73
    },
    {
      "midi": 68,
      "hit": false,
      "t": 9599.999999999998,
      "d": 675,
      "v": 66
    },
    {
      "midi": 72,
      "hit": false,
      "t": 9599.999999999998,
      "d": 675,
      "v": 86
    },
    {
      "midi": 75,
      "hit": false,
      "t": 9958.333333333332,
      "d": 316.66666666666606,
      "v": 72
    },
    {
      "midi": 58,
      "hit": false,
      "t": 10349.999999999998,
      "d": 741.6666666666661,
      "v": 78
    },
    {
      "midi": 63,
      "hit": false,
      "t": 10366.666666666664,
      "d": 725,
      "v": 69
    },
    {
      "midi": 68,
      "hit": false,
      "t": 10366.666666666664,
      "d": 725,
      "v": 62
    },
    {
      "midi": 72,
      "hit": false,
      "t": 10383.33333333333,
      "d": 708.3333333333339,
      "v": 81
    },
    {
      "midi": 75,
      "hit": false,
      "t": 10399.999999999996,
      "d": 691.6666666666679,
      "v": 71
    },
    {
      "midi": 77,
      "hit": false,
      "t": 10758.33333333333,
      "d": 333.33333333333394,
      "v": 85
    },
    {
      "midi": 56,
      "hit": false,
      "t": 10758.33333333333,
      "d": 391.6666666666679,
      "v": 68
    },
    {
      "midi": 75,
      "hit": false,
      "t": 11191.666666666664,
      "d": 691.6666666666679,
      "v": 71
    },
    {
      "midi": 70,
      "hit": false,
      "t": 11191.666666666664,
      "d": 1575,
      "v": 64
    },
    {
      "midi": 63,
      "hit": false,
      "t": 11191.666666666664,
      "d": 1583.333333333334,
      "v": 69
    },
    {
      "midi": 79,
      "hit": false,
      "t": 11191.666666666664,
      "d": 1600.0000000000018,
      "v": 68
    },
    {
      "midi": 55,
      "hit": false,
      "t": 11199.999999999998,
      "d": 1583.333333333334,
      "v": 80
    },
    {
      "midi": 74,
      "hit": false,
      "t": 11983.333333333332,
      "d": 766.6666666666661,
      "v": 72
    },
    {
      "midi": 72,
      "hit": false,
      "t": 12800,
      "d": 1191.6666666666679,
      "v": 82
    },
    {
      "midi": 56,
      "hit": false,
      "t": 12800,
      "d": 1500.0000000000018,
      "v": 69
    },
    {
      "midi": 63,
      "hit": false,
      "t": 12800,
      "d": 1500.0000000000018,
      "v": 77
    },
    {
      "midi": 68,
      "hit": false,
      "t": 12800,
      "d": 1500.0000000000018,
      "v": 69
    },
    {
      "midi": 67,
      "hit": false,
      "t": 12825,
      "d": 1475.0000000000018,
      "v": 68
    },
    {
      "midi": 75,
      "hit": false,
      "t": 13200,
      "d": 400,
      "v": 76
    },
    {
      "midi": 75,
      "hit": false,
      "t": 13608.333333333334,
      "d": 691.6666666666679,
      "v": 79
    },
    {
      "midi": 72,
      "hit": false,
      "t": 14000.000000000002,
      "d": 300,
      "v": 79
    },
    {
      "midi": 63,
      "hit": false,
      "t": 14358.333333333336,
      "d": 1608.333333333334,
      "v": 65
    },
    {
      "midi": 58,
      "hit": false,
      "t": 14366.66666666667,
      "d": 1633.333333333334,
      "v": 73
    },
    {
      "midi": 68,
      "hit": false,
      "t": 14375.000000000004,
      "d": 1591.666666666666,
      "v": 64
    },
    {
      "midi": 72,
      "hit": false,
      "t": 14433.333333333338,
      "d": 1158.3333333333321,
      "v": 81
    },
    {
      "midi": 75,
      "hit": false,
      "t": 14450.000000000004,
      "d": 741.6666666666661,
      "v": 79
    },
    {
      "midi": 80,
      "hit": false,
      "t": 14466.66666666667,
      "d": 1500,
      "v": 89
    },
    {
      "midi": 79,
      "hit": false,
      "t": 14800.000000000004,
      "d": 1166.666666666666,
      "v": 80
    },
    {
      "midi": 75,
      "hit": false,
      "t": 15200.000000000004,
      "d": 766.6666666666661,
      "v": 82
    },
    {
      "midi": 72,
      "hit": false,
      "t": 15600.000000000004,
      "d": 366.66666666666606,
      "v": 80
    },
    {
      "midi": 58,
      "hit": false,
      "t": 16008.333333333338,
      "d": 774.9999999999982,
      "v": 69
    },
    {
      "midi": 62,
      "hit": false,
      "t": 16008.333333333338,
      "d": 774.9999999999982,
      "v": 83
    },
    {
      "midi": 63,
      "hit": false,
      "t": 16008.333333333338,
      "d": 783.3333333333303,
      "v": 64
    },
    {
      "midi": 55,
      "hit": false,
      "t": 16008.333333333338,
      "d": 1174.9999999999945,
      "v": 63
    },
    {
      "midi": 46,
      "hit": false,
      "t": 16008.333333333338,
      "d": 1574.9999999999945,
      "v": 63
    },
    {
      "midi": 58,
      "hit": false,
      "t": 16791.666666666668,
      "d": 858.3333333333285,
      "v": 76
    },
    {
      "midi": 62,
      "hit": false,
      "t": 16791.666666666668,
      "d": 858.3333333333285,
      "v": 83
    },
    {
      "midi": 63,
      "hit": false,
      "t": 16800,
      "d": 783.3333333333321,
      "v": 70
    },
    {
      "midi": 55,
      "hit": false,
      "t": 17191.666666666664,
      "d": 458.3333333333321,
      "v": 67
    },
    {
      "midi": 56,
      "hit": false,
      "t": 17591.666666666664,
      "d": 791.6666666666642,
      "v": 49
    },
    {
      "midi": 60,
      "hit": false,
      "t": 17591.666666666664,
      "d": 791.6666666666642,
      "v": 86
    },
    {
      "midi": 63,
      "hit": false,
      "t": 17591.666666666664,
      "d": 791.6666666666642,
      "v": 60
    },
    {
      "midi": 46,
      "hit": false,
      "t": 17591.666666666664,
      "d": 1191.6666666666642,
      "v": 61
    },
    {
      "midi": 53,
      "hit": false,
      "t": 17599.999999999996,
      "d": 1591.6666666666642,
      "v": 58
    },
    {
      "midi": 63,
      "hit": false,
      "t": 18391.66666666666,
      "d": 733.3333333333358,
      "v": 81
    },
    {
      "midi": 56,
      "hit": false,
      "t": 18391.66666666666,
      "d": 791.6666666666679,
      "v": 89
    },
    {
      "midi": 60,
      "hit": false,
      "t": 18391.66666666666,
      "d": 791.6666666666679,
      "v": 86
    },
    {
      "midi": 46,
      "hit": false,
      "t": 18791.66666666666,
      "d": 241.66666666666788,
      "v": 82
    },
    {
      "midi": 55,
      "hit": false,
      "t": 19191.66666666666,
      "d": 791.6666666666642,
      "v": 76
    },
    {
      "midi": 62,
      "hit": false,
      "t": 19191.66666666666,
      "d": 791.6666666666642,
      "v": 90
    },
    {
      "midi": 63,
      "hit": false,
      "t": 19191.66666666666,
      "d": 791.6666666666642,
      "v": 68
    },
    {
      "midi": 46,
      "hit": false,
      "t": 19191.66666666666,
      "d": 1508.3333333333285,
      "v": 73
    },
    {
      "midi": 58,
      "hit": false,
      "t": 19599.999999999993,
      "d": 783.3333333333321,
      "v": 68
    },
    {
      "midi": 63,
      "hit": false,
      "t": 19991.666666666657,
      "d": 708.3333333333321,
      "v": 72
    },
    {
      "midi": 55,
      "hit": false,
      "t": 19991.666666666657,
      "d": 791.6666666666642,
      "v": 79
    },
    {
      "midi": 62,
      "hit": false,
      "t": 19991.666666666657,
      "d": 791.6666666666642,
      "v": 83
    },
    {
      "midi": 58,
      "hit": false,
      "t": 20391.666666666657,
      "d": 391.66666666666424,
      "v": 75
    },
    {
      "midi": 56,
      "hit": false,
      "t": 20791.666666666653,
      "d": 791.6666666666642,
      "v": 59
    },
    {
      "midi": 63,
      "hit": false,
      "t": 20791.666666666653,
      "d": 791.6666666666642,
      "v": 54
    },
    {
      "midi": 46,
      "hit": false,
      "t": 20791.666666666653,
      "d": 1191.6666666666606,
      "v": 69
    },
    {
      "midi": 53,
      "hit": false,
      "t": 20799.999999999985,
      "d": 783.3333333333321,
      "v": 54
    },
    {
      "midi": 60,
      "hit": false,
      "t": 20799.999999999985,
      "d": 799.9999999999964,
      "v": 77
    },
    {
      "midi": 53,
      "hit": false,
      "t": 21591.66666666665,
      "d": 774.9999999999964,
      "v": 77
    },
    {
      "midi": 56,
      "hit": false,
      "t": 21591.66666666665,
      "d": 774.9999999999964,
      "v": 74
    },
    {
      "midi": 63,
      "hit": false,
      "t": 21591.66666666665,
      "d": 774.9999999999964,
      "v": 76
    },
    {
      "midi": 60,
      "hit": false,
      "t": 21608.333333333314,
      "d": 758.3333333333321,
      "v": 74
    },
    {
      "midi": 46,
      "hit": false,
      "t": 21991.666666666646,
      "d": 375,
      "v": 76
    },
    {
      "midi": 67,
      "hit": false,
      "t": 22399.999999999978,
      "d": 1591.6666666666642,
      "v": 57
    },
    {
      "midi": 55,
      "hit": false,
      "t": 22408.33333333331,
      "d": 375,
      "v": 78
    },
    {
      "midi": 58,
      "hit": false,
      "t": 22408.33333333331,
      "d": 775,
      "v": 73
    },
    {
      "midi": 63,
      "hit": false,
      "t": 22408.33333333331,
      "d": 775,
      "v": 81
    },
    {
      "midi": 51,
      "hit": false,
      "t": 22408.33333333331,
      "d": 1558.3333333333321,
      "v": 70
    },
    {
      "midi": 55,
      "hit": false,
      "t": 22791.666666666642,
      "d": 791.6666666666679,
      "v": 57
    },
    {
      "midi": 58,
      "hit": false,
      "t": 23191.666666666642,
      "d": 775,
      "v": 73
    },
    {
      "midi": 63,
      "hit": false,
      "t": 23191.666666666642,
      "d": 775,
      "v": 76
    },
    {
      "midi": 55,
      "hit": false,
      "t": 23591.666666666642,
      "d": 375,
      "v": 56
    },
    {
      "midi": 55,
      "hit": false,
      "t": 23991.666666666642,
      "d": 391.6666666666679,
      "v": 76
    },
    {
      "midi": 58,
      "hit": false,
      "t": 23991.666666666642,
      "d": 791.6666666666679,
      "v": 68
    },
    {
      "midi": 62,
      "hit": false,
      "t": 23991.666666666642,
      "d": 791.6666666666679,
      "v": 79
    },
    {
      "midi": 50,
      "hit": false,
      "t": 23991.666666666642,
      "d": 1550,
      "v": 75
    },
    {
      "midi": 65,
      "hit": false,
      "t": 23991.666666666642,
      "d": 1591.6666666666679,
      "v": 57
    },
    {
      "midi": 55,
      "hit": false,
      "t": 24391.666666666642,
      "d": 791.6666666666679,
      "v": 52
    },
    {
      "midi": 58,
      "hit": false,
      "t": 24791.666666666642,
      "d": 750,
      "v": 80
    },
    {
      "midi": 62,
      "hit": false,
      "t": 24791.666666666642,
      "d": 750,
      "v": 86
    },
    {
      "midi": 55,
      "hit": false,
      "t": 25191.666666666642,
      "d": 350,
      "v": 75
    },
    {
      "midi": 58,
      "hit": false,
      "t": 25591.666666666642,
      "d": 791.6666666666679,
      "v": 64
    },
    {
      "midi": 61,
      "hit": false,
      "t": 25591.666666666642,
      "d": 791.6666666666679,
      "v": 64
    },
    {
      "midi": 65,
      "hit": false,
      "t": 25591.666666666642,
      "d": 791.6666666666679,
      "v": 77
    },
    {
      "midi": 49,
      "hit": false,
      "t": 25591.666666666642,
      "d": 1533.3333333333321,
      "v": 69
    },
    {
      "midi": 55,
      "hit": false,
      "t": 25991.666666666642,
      "d": 791.6666666666679,
      "v": 59
    },
    {
      "midi": 58,
      "hit": false,
      "t": 26391.666666666642,
      "d": 733.3333333333321,
      "v": 80
    },
    {
      "midi": 61,
      "hit": false,
      "t": 26391.666666666642,
      "d": 733.3333333333321,
      "v": 76
    },
    {
      "midi": 65,
      "hit": false,
      "t": 26391.666666666642,
      "d": 733.3333333333321,
      "v": 87
    },
    {
      "midi": 55,
      "hit": false,
      "t": 26791.666666666642,
      "d": 333.3333333333321,
      "v": 63
    },
    {
      "midi": 58,
      "hit": false,
      "t": 27191.666666666642,
      "d": 791.6666666666679,
      "v": 66
    },
    {
      "midi": 60,
      "hit": false,
      "t": 27191.666666666642,
      "d": 791.6666666666679,
      "v": 75
    },
    {
      "midi": 64,
      "hit": false,
      "t": 27191.666666666642,
      "d": 791.6666666666679,
      "v": 61
    },
    {
      "midi": 48,
      "hit": false,
      "t": 27191.666666666642,
      "d": 1575,
      "v": 71
    },
    {
      "midi": 55,
      "hit": false,
      "t": 27591.666666666642,
      "d": 791.6666666666679,
      "v": 59
    },
    {
      "midi": 58,
      "hit": false,
      "t": 27991.666666666642,
      "d": 775,
      "v": 72
    },
    {
      "midi": 60,
      "hit": false,
      "t": 27991.666666666642,
      "d": 775,
      "v": 79
    },
    {
      "midi": 64,
      "hit": false,
      "t": 27991.666666666642,
      "d": 775,
      "v": 81
    },
    {
      "midi": 55,
      "hit": false,
      "t": 28391.666666666642,
      "d": 375,
      "v": 54
    },
    {
      "midi": 56,
      "hit": false,
      "t": 28799.999999999975,
      "d": 800,
      "v": 68
    },
    {
      "midi": 63,
      "hit": false,
      "t": 28799.999999999975,
      "d": 800,
      "v": 73
    },
    {
      "midi": 65,
      "hit": false,
      "t": 28799.999999999975,
      "d": 1600,
      "v": 73
    },
    {
      "midi": 60,
      "hit": false,
      "t": 28808.333333333307,
      "d": 791.6666666666679,
      "v": 86
    },
    {
      "midi": 41,
      "hit": false,
      "t": 28808.333333333307,
      "d": 1591.6666666666679,
      "v": 83
    },
    {
      "midi": 48,
      "hit": false,
      "t": 28808.333333333307,
      "d": 1591.6666666666679,
      "v": 76
    },
    {
      "midi": 56,
      "hit": false,
      "t": 29608.333333333307,
      "d": 791.6666666666679,
      "v": 87
    },
    {
      "midi": 60,
      "hit": false,
      "t": 29608.333333333307,
      "d": 791.6666666666679,
      "v": 95
    },
    {
      "midi": 63,
      "hit": false,
      "t": 29608.333333333307,
      "d": 791.6666666666679,
      "v": 83
    },
    {
      "midi": 53,
      "hit": false,
      "t": 30008.333333333307,
      "d": 391.6666666666679,
      "v": 71
    },
    {
      "midi": 55,
      "hit": false,
      "t": 30408.333333333307,
      "d": 791.6666666666679,
      "v": 79
    },
    {
      "midi": 58,
      "hit": false,
      "t": 30408.333333333307,
      "d": 791.6666666666679,
      "v": 69
    },
    {
      "midi": 62,
      "hit": false,
      "t": 30408.333333333307,
      "d": 791.6666666666679,
      "v": 80
    },
    {
      "midi": 53,
      "hit": false,
      "t": 30408.333333333307,
      "d": 1191.6666666666679,
      "v": 68
    },
    {
      "midi": 43,
      "hit": false,
      "t": 30408.333333333307,
      "d": 1575,
      "v": 83
    },
    {
      "midi": 55,
      "hit": false,
      "t": 31208.333333333307,
      "d": 775,
      "v": 87
    },
    {
      "midi": 58,
      "hit": false,
      "t": 31208.333333333307,
      "d": 775,
      "v": 87
    },
    {
      "midi": 62,
      "hit": false,
      "t": 31208.333333333307,
      "d": 775,
      "v": 87
    },
    {
      "midi": 53,
      "hit": false,
      "t": 31608.333333333307,
      "d": 375,
      "v": 64
    },
    {
      "midi": 55,
      "hit": false,
      "t": 32008.333333333307,
      "d": 391.6666666666679,
      "v": 71
    },
    {
      "midi": 63,
      "hit": false,
      "t": 32008.333333333307,
      "d": 783.3333333333358,
      "v": 65
    },
    {
      "midi": 56,
      "hit": false,
      "t": 32008.333333333307,
      "d": 791.6666666666715,
      "v": 65
    },
    {
      "midi": 60,
      "hit": false,
      "t": 32008.333333333307,
      "d": 791.6666666666715,
      "v": 83
    },
    {
      "midi": 44,
      "hit": false,
      "t": 32008.333333333307,
      "d": 1566.6666666666715,
      "v": 65
    },
    {
      "midi": 55,
      "hit": false,
      "t": 32408.333333333307,
      "d": 791.6666666666715,
      "v": 65
    },
    {
      "midi": 63,
      "hit": false,
      "t": 32799.99999999998,
      "d": 775,
      "v": 88
    },
    {
      "midi": 56,
      "hit": false,
      "t": 32808.333333333314,
      "d": 766.6666666666642,
      "v": 92
    },
    {
      "midi": 60,
      "hit": false,
      "t": 32808.333333333314,
      "d": 766.6666666666642,
      "v": 95
    },
    {
      "midi": 55,
      "hit": false,
      "t": 33208.333333333314,
      "d": 366.66666666666424,
      "v": 76
    },
    {
      "midi": 53,
      "hit": false,
      "t": 33608.333333333314,
      "d": 391.66666666666424,
      "v": 64
    },
    {
      "midi": 55,
      "hit": false,
      "t": 33608.333333333314,
      "d": 800,
      "v": 77
    },
    {
      "midi": 58,
      "hit": false,
      "t": 33608.333333333314,
      "d": 800,
      "v": 65
    },
    {
      "midi": 62,
      "hit": false,
      "t": 33608.333333333314,
      "d": 800,
      "v": 76
    },
    {
      "midi": 43,
      "hit": false,
      "t": 33608.333333333314,
      "d": 1558.3333333333358,
      "v": 76
    },
    {
      "midi": 53,
      "hit": false,
      "t": 34008.333333333314,
      "d": 800,
      "v": 63
    },
    {
      "midi": 55,
      "hit": false,
      "t": 34416.66666666665,
      "d": 750,
      "v": 98
    },
    {
      "midi": 58,
      "hit": false,
      "t": 34416.66666666665,
      "d": 750,
      "v": 86
    },
    {
      "midi": 62,
      "hit": false,
      "t": 34416.66666666665,
      "d": 750,
      "v": 89
    },
    {
      "midi": 53,
      "hit": false,
      "t": 34816.66666666665,
      "d": 350,
      "v": 64
    },
    {
      "midi": 48,
      "hit": false,
      "t": 35199.999999999985,
      "d": 791.6666666666642,
      "v": 79
    },
    {
      "midi": 58,
      "hit": false,
      "t": 35199.999999999985,
      "d": 791.6666666666642,
      "v": 71
    },
    {
      "midi": 60,
      "hit": false,
      "t": 35199.999999999985,
      "d": 791.6666666666642,
      "v": 88
    },
    {
      "midi": 63,
      "hit": false,
      "t": 35199.999999999985,
      "d": 791.6666666666642,
      "v": 83
    },
    {
      "midi": 55,
      "hit": false,
      "t": 35199.999999999985,
      "d": 1591.6666666666642,
      "v": 80
    },
    {
      "midi": 58,
      "hit": false,
      "t": 35999.999999999985,
      "d": 800,
      "v": 79
    },
    {
      "midi": 60,
      "hit": false,
      "t": 35999.999999999985,
      "d": 800,
      "v": 81
    },
    {
      "midi": 63,
      "hit": false,
      "t": 35999.999999999985,
      "d": 800,
      "v": 71
    },
    {
      "midi": 67,
      "hit": false,
      "t": 35999.999999999985,
      "d": 858.3333333333358,
      "v": 83
    },
    {
      "midi": 56,
      "hit": false,
      "t": 36808.33333333332,
      "d": 791.6666666666642,
      "v": 76
    },
    {
      "midi": 60,
      "hit": false,
      "t": 36808.33333333332,
      "d": 1583.3333333333285,
      "v": 74
    },
    {
      "midi": 63,
      "hit": false,
      "t": 36808.33333333332,
      "d": 1583.3333333333285,
      "v": 75
    },
    {
      "midi": 58,
      "hit": false,
      "t": 36808.33333333332,
      "d": 1591.6666666666642,
      "v": 80
    },
    {
      "midi": 55,
      "hit": false,
      "t": 37599.999999999985,
      "d": 791.6666666666642,
      "v": 78
    },
    {
      "midi": 41,
      "hit": false,
      "t": 38399.999999999985,
      "d": 750,
      "v": 79
    },
    {
      "midi": 56,
      "hit": false,
      "t": 38399.999999999985,
      "d": 750,
      "v": 68
    },
    {
      "midi": 60,
      "hit": false,
      "t": 38399.999999999985,
      "d": 750,
      "v": 93
    },
    {
      "midi": 63,
      "hit": false,
      "t": 38399.999999999985,
      "d": 750,
      "v": 82
    },
    {
      "midi": 65,
      "hit": false,
      "t": 38399.999999999985,
      "d": 750,
      "v": 77
    },
    {
      "midi": 46,
      "hit": false,
      "t": 39208.33333333332,
      "d": 791.6666666666715,
      "v": 68
    },
    {
      "midi": 60,
      "hit": false,
      "t": 39208.33333333332,
      "d": 791.6666666666715,
      "v": 83
    },
    {
      "midi": 65,
      "hit": false,
      "t": 39208.33333333332,
      "d": 791.6666666666715,
      "v": 75
    },
    {
      "midi": 62,
      "hit": false,
      "t": 39216.66666666666,
      "d": 775,
      "v": 83
    },
    {
      "midi": 56,
      "hit": false,
      "t": 39216.66666666666,
      "d": 783.3333333333358,
      "v": 60
    },
    {
      "midi": 44,
      "hit": false,
      "t": 39599.99999999999,
      "d": 400,
      "v": 71
    },
    {
      "midi": 58,
      "hit": false,
      "t": 39999.99999999999,
      "d": 800,
      "v": 77
    },
    {
      "midi": 55,
      "hit": false,
      "t": 39999.99999999999,
      "d": 808.3333333333358,
      "v": 75
    },
    {
      "midi": 43,
      "hit": false,
      "t": 39999.99999999999,
      "d": 1608.333333333343,
      "v": 77
    },
    {
      "midi": 63,
      "hit": false,
      "t": 40016.66666666666,
      "d": 816.6666666666715,
      "v": 81
    },
    {
      "midi": 58,
      "hit": false,
      "t": 40808.33333333333,
      "d": 766.6666666666715,
      "v": 82
    },
    {
      "midi": 62,
      "hit": false,
      "t": 40808.33333333333,
      "d": 791.6666666666715,
      "v": 87
    },
    {
      "midi": 55,
      "hit": false,
      "t": 40816.666666666664,
      "d": 391.66666666666424,
      "v": 81
    },
    {
      "midi": 55,
      "hit": false,
      "t": 41216.666666666664,
      "d": 350,
      "v": 75
    },
    {
      "midi": 60,
      "hit": false,
      "t": 41608.333333333336,
      "d": 791.6666666666642,
      "v": 88
    },
    {
      "midi": 63,
      "hit": false,
      "t": 41608.333333333336,
      "d": 791.6666666666642,
      "v": 75
    },
    {
      "midi": 65,
      "hit": false,
      "t": 41608.333333333336,
      "d": 791.6666666666642,
      "v": 87
    },
    {
      "midi": 56,
      "hit": false,
      "t": 41608.333333333336,
      "d": 1175,
      "v": 75
    },
    {
      "midi": 41,
      "hit": false,
      "t": 41608.333333333336,
      "d": 1575,
      "v": 87
    },
    {
      "midi": 60,
      "hit": false,
      "t": 42408.333333333336,
      "d": 775,
      "v": 81
    },
    {
      "midi": 63,
      "hit": false,
      "t": 42408.333333333336,
      "d": 775,
      "v": 73
    },
    {
      "midi": 65,
      "hit": false,
      "t": 42408.333333333336,
      "d": 775,
      "v": 95
    },
    {
      "midi": 56,
      "hit": false,
      "t": 42791.66666666667,
      "d": 391.66666666666424,
      "v": 80
    },
    {
      "midi": 56,
      "hit": false,
      "t": 43191.66666666667,
      "d": 391.66666666666424,
      "v": 64
    },
    {
      "midi": 60,
      "hit": false,
      "t": 43191.66666666667,
      "d": 800,
      "v": 83
    },
    {
      "midi": 63,
      "hit": false,
      "t": 43191.66666666667,
      "d": 800,
      "v": 69
    },
    {
      "midi": 65,
      "hit": false,
      "t": 43191.66666666667,
      "d": 800,
      "v": 77
    },
    {
      "midi": 46,
      "hit": false,
      "t": 43191.66666666667,
      "d": 1533.333333333343,
      "v": 81
    },
    {
      "midi": 56,
      "hit": false,
      "t": 43591.66666666667,
      "d": 791.6666666666715,
      "v": 62
    },
    {
      "midi": 60,
      "hit": false,
      "t": 44000.00000000001,
      "d": 725.0000000000073,
      "v": 85
    },
    {
      "midi": 63,
      "hit": false,
      "t": 44000.00000000001,
      "d": 725.0000000000073,
      "v": 88
    },
    {
      "midi": 65,
      "hit": false,
      "t": 44000.00000000001,
      "d": 725.0000000000073,
      "v": 96
    },
    {
      "midi": 56,
      "hit": false,
      "t": 44391.66666666668,
      "d": 333.33333333333576,
      "v": 79
    },
    {
      "midi": 58,
      "hit": false,
      "t": 44791.66666666668,
      "d": 791.6666666666642,
      "v": 76
    },
    {
      "midi": 62,
      "hit": false,
      "t": 44791.66666666668,
      "d": 791.6666666666642,
      "v": 88
    },
    {
      "midi": 63,
      "hit": false,
      "t": 44791.66666666668,
      "d": 791.6666666666642,
      "v": 49
    },
    {
      "midi": 55,
      "hit": false,
      "t": 44791.66666666668,
      "d": 1191.6666666666642,
      "v": 71
    },
    {
      "midi": 46,
      "hit": false,
      "t": 44791.66666666668,
      "d": 1566.6666666666642,
      "v": 70
    },
    {
      "midi": 58,
      "hit": false,
      "t": 45591.66666666668,
      "d": 766.6666666666642,
      "v": 74
    },
    {
      "midi": 62,
      "hit": false,
      "t": 45591.66666666668,
      "d": 766.6666666666642,
      "v": 93
    },
    {
      "midi": 63,
      "hit": false,
      "t": 45591.66666666668,
      "d": 766.6666666666642,
      "v": 69
    },
    {
      "midi": 55,
      "hit": false,
      "t": 45991.66666666668,
      "d": 366.66666666666424,
      "v": 92
    },
    {
      "midi": 56,
      "hit": false,
      "t": 46383.33333333334,
      "d": 791.6666666666715,
      "v": 74
    },
    {
      "midi": 63,
      "hit": false,
      "t": 46383.33333333334,
      "d": 791.6666666666715,
      "v": 68
    },
    {
      "midi": 46,
      "hit": false,
      "t": 46383.33333333334,
      "d": 1583.333333333343,
      "v": 72
    },
    {
      "midi": 60,
      "hit": false,
      "t": 46391.66666666668,
      "d": 783.3333333333358,
      "v": 84
    },
    {
      "midi": 53,
      "hit": false,
      "t": 46391.66666666668,
      "d": 1191.6666666666715,
      "v": 65
    },
    {
      "midi": 56,
      "hit": false,
      "t": 47183.33333333335,
      "d": 783.3333333333358,
      "v": 69
    },
    {
      "midi": 60,
      "hit": false,
      "t": 47183.33333333335,
      "d": 783.3333333333358,
      "v": 88
    },
    {
      "midi": 63,
      "hit": false,
      "t": 47183.33333333335,
      "d": 783.3333333333358,
      "v": 73
    },
    {
      "midi": 53,
      "hit": false,
      "t": 47591.666666666686,
      "d": 375,
      "v": 64
    },
    {
      "midi": 58,
      "hit": false,
      "t": 47991.666666666686,
      "d": 783.3333333333358,
      "v": 69
    },
    {
      "midi": 62,
      "hit": false,
      "t": 47991.666666666686,
      "d": 783.3333333333358,
      "v": 77
    },
    {
      "midi": 63,
      "hit": false,
      "t": 47991.666666666686,
      "d": 783.3333333333358,
      "v": 57
    },
    {
      "midi": 55,
      "hit": false,
      "t": 47991.666666666686,
      "d": 1191.6666666666715,
      "v": 62
    },
    {
      "midi": 46,
      "hit": false,
      "t": 47991.666666666686,
      "d": 1566.6666666666715,
      "v": 67
    },
    {
      "midi": 58,
      "hit": false,
      "t": 48783.33333333336,
      "d": 775,
      "v": 76
    },
    {
      "midi": 62,
      "hit": false,
      "t": 48783.33333333336,
      "d": 775,
      "v": 88
    },
    {
      "midi": 63,
      "hit": false,
      "t": 48783.33333333336,
      "d": 775,
      "v": 77
    },
    {
      "midi": 55,
      "hit": false,
      "t": 49191.66666666669,
      "d": 366.66666666666424,
      "v": 78
    },
    {
      "midi": 56,
      "hit": false,
      "t": 49583.33333333336,
      "d": 800,
      "v": 70
    },
    {
      "midi": 60,
      "hit": false,
      "t": 49583.33333333336,
      "d": 800,
      "v": 85
    },
    {
      "midi": 63,
      "hit": false,
      "t": 49583.33333333336,
      "d": 800,
      "v": 53
    },
    {
      "midi": 46,
      "hit": false,
      "t": 49583.33333333336,
      "d": 1575.0000000000073,
      "v": 63
    },
    {
      "midi": 53,
      "hit": false,
      "t": 49591.66666666669,
      "d": 1208.3333333333358,
      "v": 58
    },
    {
      "midi": 56,
      "hit": false,
      "t": 50391.66666666669,
      "d": 766.6666666666715,
      "v": 78
    },
    {
      "midi": 60,
      "hit": false,
      "t": 50391.66666666669,
      "d": 766.6666666666715,
      "v": 91
    },
    {
      "midi": 63,
      "hit": false,
      "t": 50391.66666666669,
      "d": 766.6666666666715,
      "v": 85
    },
    {
      "midi": 53,
      "hit": false,
      "t": 50808.333333333365,
      "d": 350,
      "v": 72
    },
    {
      "midi": 63,
      "hit": false,
      "t": 51208.33333333333,
      "d": 791.6666666666715,
      "v": 59
    },
    {
      "midi": 67,
      "hit": false,
      "t": 51208.33333333333,
      "d": 791.6666666666715,
      "v": 63
    },
    {
      "midi": 58,
      "hit": false,
      "t": 51208.33333333333,
      "d": 1175.0000000000073,
      "v": 49
    },
    {
      "midi": 63,
      "hit": false,
      "t": 52008.333333333336,
      "d": 716.6666666666715,
      "v": 64
    },
    {
      "midi": 67,
      "hit": false,
      "t": 52008.333333333336,
      "d": 716.6666666666715,
      "v": 77
    },
    {
      "midi": 58,
      "hit": false,
      "t": 52391.66666666667,
      "d": 333.33333333333576,
      "v": 43
    },
    {
      "midi": 58,
      "hit": false,
      "t": 52791.66666666667,
      "d": 408.33333333333576,
      "v": 37
    },
    {
      "midi": 62,
      "hit": false,
      "t": 52791.66666666667,
      "d": 808.3333333333358,
      "v": 62
    },
    {
      "midi": 65,
      "hit": false,
      "t": 52791.66666666667,
      "d": 808.3333333333358,
      "v": 62
    },
    {
      "midi": 67,
      "hit": false,
      "t": 52791.66666666667,
      "d": 808.3333333333358,
      "v": 50
    },
    {
      "midi": 58,
      "hit": false,
      "t": 53208.33333333334,
      "d": 791.6666666666642,
      "v": 36
    },
    {
      "midi": 62,
      "hit": false,
      "t": 53608.33333333334,
      "d": 791.6666666666642,
      "v": 73
    },
    {
      "midi": 65,
      "hit": false,
      "t": 53608.33333333334,
      "d": 791.6666666666642,
      "v": 65
    },
    {
      "midi": 67,
      "hit": false,
      "t": 53608.33333333334,
      "d": 791.6666666666642,
      "v": 65
    },
    {
      "midi": 58,
      "hit": false,
      "t": 54008.33333333334,
      "d": 391.66666666666424,
      "v": 49
    },
    {
      "midi": 61,
      "hit": false,
      "t": 54400.00000000001,
      "d": 800.0000000000073,
      "v": 59
    },
    {
      "midi": 58,
      "hit": false,
      "t": 54408.33333333334,
      "d": 375,
      "v": 50
    },
    {
      "midi": 65,
      "hit": false,
      "t": 54408.33333333334,
      "d": 791.6666666666715,
      "v": 67
    },
    {
      "midi": 58,
      "hit": false,
      "t": 54791.66666666668,
      "d": 808.3333333333358,
      "v": 14
    },
    {
      "midi": 61,
      "hit": false,
      "t": 55208.33333333335,
      "d": 666.6666666666642,
      "v": 74
    },
    {
      "midi": 65,
      "hit": false,
      "t": 55208.33333333335,
      "d": 666.6666666666642,
      "v": 71
    },
    {
      "midi": 58,
      "hit": false,
      "t": 55608.33333333335,
      "d": 266.66666666666424,
      "v": 43
    },
    {
      "midi": 60,
      "hit": false,
      "t": 55991.66666666668,
      "d": 791.6666666666642,
      "v": 67
    },
    {
      "midi": 64,
      "hit": false,
      "t": 55991.66666666668,
      "d": 791.6666666666642,
      "v": 69
    },
    {
      "midi": 58,
      "hit": false,
      "t": 55991.66666666668,
      "d": 1208.3333333333358,
      "v": 46
    },
    {
      "midi": 64,
      "hit": false,
      "t": 56791.66666666668,
      "d": 791.6666666666715,
      "v": 72
    },
    {
      "midi": 67,
      "hit": false,
      "t": 56791.66666666668,
      "d": 791.6666666666715,
      "v": 58
    },
    {
      "midi": 60,
      "hit": false,
      "t": 56791.66666666668,
      "d": 800.0000000000073,
      "v": 73
    },
    {
      "midi": 58,
      "hit": false,
      "t": 57208.33333333335,
      "d": 358.33333333333576,
      "v": 42
    },
    {
      "midi": 56,
      "hit": false,
      "t": 57600.00000000002,
      "d": 783.3333333333358,
      "v": 59
    },
    {
      "midi": 60,
      "hit": false,
      "t": 57600.00000000002,
      "d": 783.3333333333358,
      "v": 60
    },
    {
      "midi": 51,
      "hit": false,
      "t": 57600.00000000002,
      "d": 1183.3333333333358,
      "v": 46
    },
    {
      "midi": 56,
      "hit": false,
      "t": 58391.66666666669,
      "d": 833.3333333333285,
      "v": 71
    },
    {
      "midi": 60,
      "hit": false,
      "t": 58391.66666666669,
      "d": 833.3333333333285,
      "v": 72
    },
    {
      "midi": 51,
      "hit": false,
      "t": 58791.66666666669,
      "d": 433.3333333333285,
      "v": 41
    },
    {
      "midi": 53,
      "hit": false,
      "t": 59208.33333333336,
      "d": 391.66666666666424,
      "v": 59
    },
    {
      "midi": 58,
      "hit": false,
      "t": 59208.33333333336,
      "d": 791.6666666666642,
      "v": 58
    },
    {
      "midi": 62,
      "hit": false,
      "t": 59208.33333333336,
      "d": 791.6666666666642,
      "v": 62
    },
    {
      "midi": 53,
      "hit": false,
      "t": 59608.33333333336,
      "d": 775,
      "v": 51
    },
    {
      "midi": 58,
      "hit": false,
      "t": 60008.33333333336,
      "d": 733.3333333333358,
      "v": 81
    },
    {
      "midi": 62,
      "hit": false,
      "t": 60008.33333333336,
      "d": 733.3333333333358,
      "v": 82
    },
    {
      "midi": 53,
      "hit": false,
      "t": 60391.66666666669,
      "d": 350,
      "v": 58
    },
    {
      "midi": 63,
      "hit": false,
      "t": 60800.00000000003,
      "d": 791.6666666666715,
      "v": 48
    },
    {
      "midi": 55,
      "hit": false,
      "t": 60808.333333333365,
      "d": 391.66666666666424,
      "v": 53
    },
    {
      "midi": 60,
      "hit": false,
      "t": 60808.333333333365,
      "d": 783.3333333333358,
      "v": 62
    },
    {
      "midi": 55,
      "hit": false,
      "t": 61208.333333333365,
      "d": 791.6666666666715,
      "v": 39
    },
    {
      "midi": 60,
      "hit": false,
      "t": 61600.00000000004,
      "d": 758.3333333333358,
      "v": 83
    },
    {
      "midi": 63,
      "hit": false,
      "t": 61600.00000000004,
      "d": 758.3333333333358,
      "v": 83
    },
    {
      "midi": 55,
      "hit": false,
      "t": 62008.33333333337,
      "d": 350,
      "v": 37
    },
    {
      "midi": 62,
      "hit": false,
      "t": 62391.66666666671,
      "d": 808.3333333333358,
      "v": 65
    },
    {
      "midi": 53,
      "hit": false,
      "t": 62400.000000000044,
      "d": 400,
      "v": 49
    },
    {
      "midi": 58,
      "hit": false,
      "t": 62400.000000000044,
      "d": 800,
      "v": 55
    },
    {
      "midi": 53,
      "hit": false,
      "t": 62808.33333333338,
      "d": 783.3333333333358,
      "v": 52
    },
    {
      "midi": 58,
      "hit": false,
      "t": 63208.33333333338,
      "d": 675.0000000000073,
      "v": 77
    },
    {
      "midi": 62,
      "hit": false,
      "t": 63208.33333333338,
      "d": 675.0000000000073,
      "v": 79
    },
    {
      "midi": 53,
      "hit": false,
      "t": 63600.00000000005,
      "d": 283.33333333333576,
      "v": 57
    },
    {
      "midi": 58,
      "hit": false,
      "t": 64008.33333333339,
      "d": 791.6666666666715,
      "v": 54
    },
    {
      "midi": 63,
      "hit": false,
      "t": 64008.33333333339,
      "d": 791.6666666666715,
      "v": 63
    },
    {
      "midi": 67,
      "hit": false,
      "t": 64008.33333333339,
      "d": 791.6666666666715,
      "v": 68
    },
    {
      "midi": 60,
      "hit": false,
      "t": 64391.66666666672,
      "d": 441.6666666666715,
      "v": 65
    },
    {
      "midi": 58,
      "hit": false,
      "t": 64808.333333333394,
      "d": 783.3333333333358,
      "v": 45
    },
    {
      "midi": 63,
      "hit": false,
      "t": 64808.333333333394,
      "d": 783.3333333333358,
      "v": 59
    },
    {
      "midi": 67,
      "hit": false,
      "t": 64808.333333333394,
      "d": 783.3333333333358,
      "v": 61
    },
    {
      "midi": 60,
      "hit": false,
      "t": 65200.00000000006,
      "d": 1216.666666666657,
      "v": 55
    },
    {
      "midi": 58,
      "hit": false,
      "t": 65600.00000000006,
      "d": 783.3333333333285,
      "v": 48
    },
    {
      "midi": 63,
      "hit": false,
      "t": 65600.00000000006,
      "d": 783.3333333333285,
      "v": 56
    },
    {
      "midi": 67,
      "hit": false,
      "t": 65600.00000000006,
      "d": 783.3333333333285,
      "v": 65
    },
    {
      "midi": 63,
      "hit": false,
      "t": 66391.66666666672,
      "d": 800,
      "v": 48
    },
    {
      "midi": 58,
      "hit": false,
      "t": 66391.66666666672,
      "d": 833.3333333333285,
      "v": 34
    },
    {
      "midi": 67,
      "hit": false,
      "t": 66391.66666666672,
      "d": 833.3333333333285,
      "v": 61
    },
    {
      "midi": 60,
      "hit": false,
      "t": 66808.33333333339,
      "d": 391.66666666665697,
      "v": 52
    },
    {
      "midi": 63,
      "hit": false,
      "t": 67200.00000000004,
      "d": 816.6666666666715,
      "v": 59
    },
    {
      "midi": 56,
      "hit": false,
      "t": 67208.33333333337,
      "d": 783.333333333343,
      "v": 59
    },
    {
      "midi": 60,
      "hit": false,
      "t": 67208.33333333337,
      "d": 783.333333333343,
      "v": 72
    },
    {
      "midi": 65,
      "hit": false,
      "t": 67208.33333333337,
      "d": 783.333333333343,
      "v": 65
    },
    {
      "midi": 56,
      "hit": false,
      "t": 68000.00000000004,
      "d": 733.333333333343,
      "v": 42
    },
    {
      "midi": 60,
      "hit": false,
      "t": 68000.00000000004,
      "d": 733.333333333343,
      "v": 59
    },
    {
      "midi": 62,
      "hit": false,
      "t": 68000.00000000004,
      "d": 733.333333333343,
      "v": 70
    },
    {
      "midi": 65,
      "hit": false,
      "t": 68000.00000000004,
      "d": 733.333333333343,
      "v": 56
    },
    {
      "midi": 58,
      "hit": false,
      "t": 68791.66666666672,
      "d": 800,
      "v": 57
    },
    {
      "midi": 55,
      "hit": false,
      "t": 68791.66666666672,
      "d": 808.3333333333285,
      "v": 59
    },
    {
      "midi": 63,
      "hit": false,
      "t": 68791.66666666672,
      "d": 808.3333333333285,
      "v": 59
    },
    {
      "midi": 62,
      "hit": false,
      "t": 68800.00000000004,
      "d": 791.6666666666715,
      "v": 59
    },
    {
      "midi": 58,
      "hit": false,
      "t": 69600.00000000004,
      "d": 733.3333333333285,
      "v": 53
    },
    {
      "midi": 62,
      "hit": false,
      "t": 69600.00000000004,
      "d": 733.3333333333285,
      "v": 65
    },
    {
      "midi": 55,
      "hit": false,
      "t": 69608.33333333337,
      "d": 725,
      "v": 51
    },
    {
      "midi": 56,
      "hit": false,
      "t": 70400.00000000004,
      "d": 775,
      "v": 63
    },
    {
      "midi": 63,
      "hit": false,
      "t": 70400.00000000004,
      "d": 775,
      "v": 73
    },
    {
      "midi": 60,
      "hit": false,
      "t": 70408.33333333337,
      "d": 766.6666666666715,
      "v": 72
    },
    {
      "midi": 56,
      "hit": false,
      "t": 71191.66666666672,
      "d": 791.6666666666715,
      "v": 64
    },
    {
      "midi": 60,
      "hit": false,
      "t": 71191.66666666672,
      "d": 791.6666666666715,
      "v": 72
    },
    {
      "midi": 63,
      "hit": false,
      "t": 71191.66666666672,
      "d": 791.6666666666715,
      "v": 59
    },
    {
      "midi": 53,
      "hit": false,
      "t": 71591.66666666672,
      "d": 400,
      "v": 58
    },
    {
      "midi": 60,
      "hit": false,
      "t": 71991.66666666672,
      "d": 800,
      "v": 72
    },
    {
      "midi": 63,
      "hit": false,
      "t": 71991.66666666672,
      "d": 800,
      "v": 58
    },
    {
      "midi": 65,
      "hit": false,
      "t": 71991.66666666672,
      "d": 808.3333333333285,
      "v": 65
    },
    {
      "midi": 56,
      "hit": false,
      "t": 71991.66666666672,
      "d": 1191.666666666657,
      "v": 65
    },
    {
      "midi": 60,
      "hit": false,
      "t": 72800.00000000004,
      "d": 766.666666666657,
      "v": 72
    },
    {
      "midi": 63,
      "hit": false,
      "t": 72800.00000000004,
      "d": 766.666666666657,
      "v": 63
    },
    {
      "midi": 65,
      "hit": false,
      "t": 72808.33333333337,
      "d": 758.3333333333285,
      "v": 52
    },
    {
      "midi": 56,
      "hit": false,
      "t": 73191.6666666667,
      "d": 375,
      "v": 59
    },
    {
      "midi": 55,
      "hit": false,
      "t": 73600.00000000003,
      "d": 741.6666666666715,
      "v": 53
    },
    {
      "midi": 58,
      "hit": false,
      "t": 73600.00000000003,
      "d": 741.6666666666715,
      "v": 53
    },
    {
      "midi": 62,
      "hit": false,
      "t": 73600.00000000003,
      "d": 741.6666666666715,
      "v": 72
    },
    {
      "midi": 63,
      "hit": false,
      "t": 73600.00000000003,
      "d": 741.6666666666715,
      "v": 60
    },
    {
      "midi": 58,
      "hit": false,
      "t": 74391.6666666667,
      "d": 391.6666666666715,
      "v": 53
    },
    {
      "midi": 63,
      "hit": false,
      "t": 74391.6666666667,
      "d": 791.6666666666715,
      "v": 60
    },
    {
      "midi": 62,
      "hit": false,
      "t": 74391.6666666667,
      "d": 833.3333333333285,
      "v": 68
    },
    {
      "midi": 67,
      "hit": false,
      "t": 74391.6666666667,
      "d": 833.3333333333285,
      "v": 65
    },
    {
      "midi": 58,
      "hit": false,
      "t": 74791.6666666667,
      "d": 433.3333333333285,
      "v": 41
    },
    {
      "midi": 60,
      "hit": false,
      "t": 75191.6666666667,
      "d": 775,
      "v": 58
    },
    {
      "midi": 63,
      "hit": false,
      "t": 75191.6666666667,
      "d": 775,
      "v": 59
    },
    {
      "midi": 65,
      "hit": false,
      "t": 75191.6666666667,
      "d": 775,
      "v": 68
    },
    {
      "midi": 68,
      "hit": false,
      "t": 75191.6666666667,
      "d": 775,
      "v": 55
    },
    {
      "midi": 56,
      "hit": false,
      "t": 75991.6666666667,
      "d": 391.6666666666715,
      "v": 46
    },
    {
      "midi": 60,
      "hit": false,
      "t": 75991.6666666667,
      "d": 708.3333333333285,
      "v": 70
    },
    {
      "midi": 63,
      "hit": false,
      "t": 75991.6666666667,
      "d": 708.3333333333285,
      "v": 59
    },
    {
      "midi": 65,
      "hit": false,
      "t": 75991.6666666667,
      "d": 708.3333333333285,
      "v": 58
    },
    {
      "midi": 56,
      "hit": false,
      "t": 76391.6666666667,
      "d": 308.3333333333285,
      "v": 45
    },
    {
      "midi": 55,
      "hit": false,
      "t": 76791.6666666667,
      "d": 766.6666666666715,
      "v": 62
    },
    {
      "midi": 58,
      "hit": false,
      "t": 76791.6666666667,
      "d": 766.6666666666715,
      "v": 64
    },
    {
      "midi": 62,
      "hit": false,
      "t": 76791.6666666667,
      "d": 766.6666666666715,
      "v": 75
    },
    {
      "midi": 63,
      "hit": false,
      "t": 76791.6666666667,
      "d": 766.6666666666715,
      "v": 67
    },
    {
      "midi": 58,
      "hit": false,
      "t": 77591.6666666667,
      "d": 741.6666666666715,
      "v": 54
    },
    {
      "midi": 62,
      "hit": false,
      "t": 77591.6666666667,
      "d": 741.6666666666715,
      "v": 72
    },
    {
      "midi": 63,
      "hit": false,
      "t": 77591.6666666667,
      "d": 741.6666666666715,
      "v": 59
    },
    {
      "midi": 67,
      "hit": false,
      "t": 77591.6666666667,
      "d": 741.6666666666715,
      "v": 68
    },
    {
      "midi": 65,
      "hit": false,
      "t": 78391.6666666667,
      "d": 808.3333333333285,
      "v": 57
    },
    {
      "midi": 56,
      "hit": false,
      "t": 78391.6666666667,
      "d": 849.9999999999854,
      "v": 53
    },
    {
      "midi": 60,
      "hit": false,
      "t": 78391.6666666667,
      "d": 849.9999999999854,
      "v": 76
    },
    {
      "midi": 63,
      "hit": false,
      "t": 78391.6666666667,
      "d": 849.9999999999854,
      "v": 66
    },
    {
      "midi": 59,
      "hit": false,
      "t": 79200.00000000003,
      "d": 724.9999999999854,
      "v": 62
    },
    {
      "midi": 62,
      "hit": false,
      "t": 79208.33333333336,
      "d": 724.9999999999854,
      "v": 71
    },
    {
      "midi": 65,
      "hit": false,
      "t": 79208.33333333336,
      "d": 758.3333333333139,
      "v": 65
    },
    {
      "midi": 55,
      "hit": false,
      "t": 80000,
      "d": 375,
      "v": 70
    },
    {
      "midi": 60,
      "hit": false,
      "t": 80000,
      "d": 783.3333333333285,
      "v": 72
    },
    {
      "midi": 63,
      "hit": false,
      "t": 80000,
      "d": 783.3333333333285,
      "v": 65
    },
    {
      "midi": 55,
      "hit": false,
      "t": 80383.33333333333,
      "d": 800,
      "v": 51
    },
    {
      "midi": 60,
      "hit": false,
      "t": 80791.66666666666,
      "d": 791.6666666666715,
      "v": 77
    },
    {
      "midi": 63,
      "hit": false,
      "t": 80791.66666666666,
      "d": 791.6666666666715,
      "v": 73
    },
    {
      "midi": 55,
      "hit": false,
      "t": 81191.66666666666,
      "d": 391.6666666666715,
      "v": 51
    },
    {
      "midi": 55,
      "hit": false,
      "t": 81591.66666666666,
      "d": 400,
      "v": 59
    },
    {
      "midi": 60,
      "hit": false,
      "t": 81591.66666666666,
      "d": 808.3333333333285,
      "v": 61
    },
    {
      "midi": 63,
      "hit": false,
      "t": 81591.66666666666,
      "d": 808.3333333333285,
      "v": 53
    },
    {
      "midi": 55,
      "hit": false,
      "t": 81999.99999999999,
      "d": 791.666666666657,
      "v": 40
    },
    {
      "midi": 60,
      "hit": false,
      "t": 82408.33333333331,
      "d": 724.9999999999854,
      "v": 77
    },
    {
      "midi": 63,
      "hit": false,
      "t": 82408.33333333331,
      "d": 724.9999999999854,
      "v": 70
    },
    {
      "midi": 55,
      "hit": false,
      "t": 82799.99999999997,
      "d": 350,
      "v": 47
    },
    {
      "midi": 56,
      "hit": false,
      "t": 83191.66666666664,
      "d": 791.6666666666715,
      "v": 76
    },
    {
      "midi": 60,
      "hit": false,
      "t": 83191.66666666664,
      "d": 791.6666666666715,
      "v": 73
    },
    {
      "midi": 63,
      "hit": false,
      "t": 83191.66666666664,
      "d": 791.6666666666715,
      "v": 67
    },
    {
      "midi": 56,
      "hit": false,
      "t": 83991.66666666664,
      "d": 766.6666666666715,
      "v": 62
    },
    {
      "midi": 60,
      "hit": false,
      "t": 83991.66666666664,
      "d": 766.6666666666715,
      "v": 73
    },
    {
      "midi": 62,
      "hit": false,
      "t": 83991.66666666664,
      "d": 766.6666666666715,
      "v": 73
    },
    {
      "midi": 55,
      "hit": false,
      "t": 84791.66666666664,
      "d": 791.6666666666715,
      "v": 57
    },
    {
      "midi": 58,
      "hit": false,
      "t": 84791.66666666664,
      "d": 791.6666666666715,
      "v": 59
    },
    {
      "midi": 62,
      "hit": false,
      "t": 84791.66666666664,
      "d": 791.6666666666715,
      "v": 63
    },
    {
      "midi": 65,
      "hit": false,
      "t": 84791.66666666664,
      "d": 791.6666666666715,
      "v": 62
    },
    {
      "midi": 63,
      "hit": false,
      "t": 85591.66666666664,
      "d": 791.666666666657,
      "v": 64
    },
    {
      "midi": 58,
      "hit": false,
      "t": 85599.99999999997,
      "d": 791.666666666657,
      "v": 66
    },
    {
      "midi": 55,
      "hit": false,
      "t": 85608.3333333333,
      "d": 783.3333333333285,
      "v": 65
    },
    {
      "midi": 60,
      "hit": false,
      "t": 85608.3333333333,
      "d": 791.666666666657,
      "v": 62
    },
    {
      "midi": 58,
      "hit": false,
      "t": 86408.33333333328,
      "d": 783.3333333333285,
      "v": 71
    },
    {
      "midi": 62,
      "hit": false,
      "t": 86408.33333333328,
      "d": 783.3333333333285,
      "v": 72
    },
    {
      "midi": 53,
      "hit": false,
      "t": 86416.66666666661,
      "d": 1166.666666666657,
      "v": 64
    },
    {
      "midi": 58,
      "hit": false,
      "t": 87199.99999999994,
      "d": 733.3333333333285,
      "v": 76
    },
    {
      "midi": 62,
      "hit": false,
      "t": 87199.99999999994,
      "d": 733.3333333333285,
      "v": 73
    },
    {
      "midi": 53,
      "hit": false,
      "t": 87591.6666666666,
      "d": 341.6666666666715,
      "v": 61
    },
    {
      "midi": 63,
      "hit": false,
      "t": 87991.6666666666,
      "d": 791.6666666666715,
      "v": 64
    },
    {
      "midi": 58,
      "hit": false,
      "t": 87991.6666666666,
      "d": 800,
      "v": 62
    },
    {
      "midi": 60,
      "hit": false,
      "t": 87991.6666666666,
      "d": 800,
      "v": 67
    },
    {
      "midi": 55,
      "hit": false,
      "t": 87991.6666666666,
      "d": 1191.666666666657,
      "v": 62
    },
    {
      "midi": 63,
      "hit": false,
      "t": 88791.6666666666,
      "d": 658.3333333333139,
      "v": 76
    },
    {
      "midi": 58,
      "hit": false,
      "t": 88799.99999999993,
      "d": 649.9999999999854,
      "v": 77
    },
    {
      "midi": 60,
      "hit": false,
      "t": 88799.99999999993,
      "d": 649.9999999999854,
      "v": 78
    },
    {
      "midi": 55,
      "hit": false,
      "t": 89191.66666666658,
      "d": 258.3333333333285,
      "v": 58
    },
    {
      "midi": 51,
      "hit": false,
      "t": 89591.66666666658,
      "d": 1750,
      "v": 60
    },
    {
      "midi": 56,
      "hit": false,
      "t": 89591.66666666658,
      "d": 1750,
      "v": 71
    },
    {
      "midi": 60,
      "hit": false,
      "t": 89591.66666666658,
      "d": 1750,
      "v": 71
    },
    {
      "midi": 63,
      "hit": false,
      "t": 90399.99999999991,
      "d": 941.6666666666715,
      "v": 76
    },
    {
      "midi": 53,
      "hit": false,
      "t": 91391.66666666658,
      "d": 200,
      "v": 54
    },
    {
      "midi": 62,
      "hit": false,
      "t": 91391.66666666658,
      "d": 200,
      "v": 58
    },
    {
      "midi": 63,
      "hit": false,
      "t": 91591.66666666658,
      "d": 191.66666666667152,
      "v": 56
    },
    {
      "midi": 55,
      "hit": false,
      "t": 91591.66666666658,
      "d": 225,
      "v": 51
    },
    {
      "midi": 53,
      "hit": false,
      "t": 91791.66666666658,
      "d": 208.33333333332848,
      "v": 49
    },
    {
      "midi": 62,
      "hit": false,
      "t": 91791.66666666658,
      "d": 216.66666666665697,
      "v": 54
    },
    {
      "midi": 63,
      "hit": false,
      "t": 91991.66666666658,
      "d": 199.99999999998545,
      "v": 65
    },
    {
      "midi": 55,
      "hit": false,
      "t": 91999.99999999991,
      "d": 216.66666666665697,
      "v": 65
    },
    {
      "midi": 53,
      "hit": false,
      "t": 92191.66666666657,
      "d": 625,
      "v": 62
    },
    {
      "midi": 62,
      "hit": false,
      "t": 92191.66666666657,
      "d": 625,
      "v": 67
    },
    {
      "midi": 55,
      "hit": false,
      "t": 92799.9999999999,
      "d": 383.33333333334303,
      "v": 63
    },
    {
      "midi": 60,
      "hit": false,
      "t": 92799.9999999999,
      "d": 783.333333333343,
      "v": 65
    },
    {
      "midi": 63,
      "hit": false,
      "t": 92799.9999999999,
      "d": 783.333333333343,
      "v": 53
    },
    {
      "midi": 55,
      "hit": false,
      "t": 93191.66666666657,
      "d": 800,
      "v": 45
    },
    {
      "midi": 63,
      "hit": false,
      "t": 93591.66666666657,
      "d": 791.666666666657,
      "v": 58
    },
    {
      "midi": 60,
      "hit": false,
      "t": 93591.66666666657,
      "d": 799.9999999999854,
      "v": 69
    },
    {
      "midi": 55,
      "hit": false,
      "t": 93999.9999999999,
      "d": 391.66666666665697,
      "v": 55
    },
    {
      "midi": 63,
      "hit": false,
      "t": 94391.66666666656,
      "d": 800,
      "v": 69
    },
    {
      "midi": 60,
      "hit": false,
      "t": 94399.99999999988,
      "d": 791.6666666666715,
      "v": 72
    },
    {
      "midi": 55,
      "hit": false,
      "t": 94791.66666666656,
      "d": 791.666666666657,
      "v": 57
    },
    {
      "midi": 60,
      "hit": false,
      "t": 95199.99999999988,
      "d": 749.9999999999854,
      "v": 72
    },
    {
      "midi": 63,
      "hit": false,
      "t": 95199.99999999988,
      "d": 749.9999999999854,
      "v": 63
    },
    {
      "midi": 55,
      "hit": false,
      "t": 95591.66666666654,
      "d": 358.3333333333285,
      "v": 60
    },
    {
      "midi": 56,
      "hit": false,
      "t": 95991.66666666654,
      "d": 800,
      "v": 55
    },
    {
      "midi": 60,
      "hit": false,
      "t": 95991.66666666654,
      "d": 808.3333333333285,
      "v": 70
    },
    {
      "midi": 63,
      "hit": false,
      "t": 95991.66666666654,
      "d": 824.9999999999854,
      "v": 52
    },
    {
      "midi": 53,
      "hit": false,
      "t": 96399.99999999987,
      "d": 416.66666666665697,
      "v": 46
    },
    {
      "midi": 62,
      "hit": false,
      "t": 96799.99999999987,
      "d": 783.3333333333285,
      "v": 60
    },
    {
      "midi": 56,
      "hit": false,
      "t": 96799.99999999987,
      "d": 808.3333333333285,
      "v": 57
    },
    {
      "midi": 60,
      "hit": false,
      "t": 96808.3333333332,
      "d": 800,
      "v": 65
    },
    {
      "midi": 53,
      "hit": false,
      "t": 97208.3333333332,
      "d": 400,
      "v": 47
    },
    {
      "midi": 58,
      "hit": false,
      "t": 97591.66666666653,
      "d": 791.6666666666715,
      "v": 60
    },
    {
      "midi": 62,
      "hit": false,
      "t": 97591.66666666653,
      "d": 858.3333333333285,
      "v": 65
    },
    {
      "midi": 65,
      "hit": false,
      "t": 97591.66666666653,
      "d": 858.3333333333285,
      "v": 63
    },
    {
      "midi": 55,
      "hit": false,
      "t": 97991.66666666653,
      "d": 458.3333333333285,
      "v": 54
    },
    {
      "midi": 58,
      "hit": false,
      "t": 98391.66666666653,
      "d": 758.3333333333285,
      "v": 61
    },
    {
      "midi": 63,
      "hit": false,
      "t": 98391.66666666653,
      "d": 808.3333333333285,
      "v": 62
    },
    {
      "midi": 55,
      "hit": false,
      "t": 98791.66666666653,
      "d": 408.3333333333285,
      "v": 56
    },
    {
      "midi": 53,
      "hit": false,
      "t": 99208.33333333318,
      "d": 383.3333333333285,
      "v": 65
    },
    {
      "midi": 58,
      "hit": false,
      "t": 99208.33333333318,
      "d": 791.666666666657,
      "v": 67
    },
    {
      "midi": 62,
      "hit": false,
      "t": 99208.33333333318,
      "d": 791.666666666657,
      "v": 70
    },
    {
      "midi": 53,
      "hit": false,
      "t": 99599.99999999984,
      "d": 783.3333333333285,
      "v": 37
    },
    {
      "midi": 58,
      "hit": false,
      "t": 100008.33333333317,
      "d": 741.666666666657,
      "v": 73
    },
    {
      "midi": 62,
      "hit": false,
      "t": 100008.33333333317,
      "d": 741.666666666657,
      "v": 77
    },
    {
      "midi": 53,
      "hit": false,
      "t": 100391.6666666665,
      "d": 358.3333333333285,
      "v": 58
    },
    {
      "midi": 51,
      "hit": false,
      "t": 100791.6666666665,
      "d": 408.3333333333285,
      "v": 58
    },
    {
      "midi": 58,
      "hit": false,
      "t": 100791.6666666665,
      "d": 808.3333333333285,
      "v": 65
    },
    {
      "midi": 60,
      "hit": false,
      "t": 100791.6666666665,
      "d": 808.3333333333285,
      "v": 65
    },
    {
      "midi": 55,
      "hit": false,
      "t": 100799.99999999983,
      "d": 800,
      "v": 79
    },
    {
      "midi": 51,
      "hit": false,
      "t": 101208.33333333315,
      "d": 1150,
      "v": 40
    },
    {
      "midi": 55,
      "hit": false,
      "t": 101608.33333333315,
      "d": 750,
      "v": 84
    },
    {
      "midi": 58,
      "hit": false,
      "t": 101608.33333333315,
      "d": 750,
      "v": 74
    },
    {
      "midi": 60,
      "hit": false,
      "t": 101608.33333333315,
      "d": 750,
      "v": 71
    },
    {
      "midi": 56,
      "hit": false,
      "t": 102391.66666666648,
      "d": 391.6666666666715,
      "v": 53
    },
    {
      "midi": 60,
      "hit": false,
      "t": 102391.66666666648,
      "d": 791.6666666666715,
      "v": 65
    },
    {
      "midi": 63,
      "hit": false,
      "t": 102391.66666666648,
      "d": 791.6666666666715,
      "v": 54
    },
    {
      "midi": 56,
      "hit": false,
      "t": 102791.66666666648,
      "d": 791.6666666666715,
      "v": 43
    },
    {
      "midi": 60,
      "hit": false,
      "t": 103191.66666666648,
      "d": 766.6666666666715,
      "v": 82
    },
    {
      "midi": 63,
      "hit": false,
      "t": 103191.66666666648,
      "d": 766.6666666666715,
      "v": 74
    },
    {
      "midi": 56,
      "hit": false,
      "t": 103591.66666666648,
      "d": 366.6666666666715,
      "v": 59
    },
    {
      "midi": 56,
      "hit": false,
      "t": 103991.66666666648,
      "d": 391.66666666665697,
      "v": 56
    },
    {
      "midi": 65,
      "hit": false,
      "t": 103999.99999999981,
      "d": 783.3333333333285,
      "v": 60
    },
    {
      "midi": 60,
      "hit": false,
      "t": 104008.33333333314,
      "d": 783.3333333333285,
      "v": 62
    },
    {
      "midi": 62,
      "hit": false,
      "t": 104008.33333333314,
      "d": 783.3333333333285,
      "v": 65
    },
    {
      "midi": 56,
      "hit": false,
      "t": 104391.66666666647,
      "d": 800,
      "v": 35
    },
    {
      "midi": 65,
      "hit": false,
      "t": 104791.66666666647,
      "d": 658.3333333333285,
      "v": 65
    },
    {
      "midi": 60,
      "hit": false,
      "t": 104799.9999999998,
      "d": 650,
      "v": 68
    },
    {
      "midi": 62,
      "hit": false,
      "t": 104799.9999999998,
      "d": 650,
      "v": 70
    },
    {
      "midi": 56,
      "hit": false,
      "t": 105199.9999999998,
      "d": 358.3333333333285,
      "v": 37
    },
    {
      "midi": 60,
      "hit": false,
      "t": 105591.66666666645,
      "d": 808.333333333343,
      "v": 75
    },
    {
      "midi": 63,
      "hit": false,
      "t": 105591.66666666645,
      "d": 808.333333333343,
      "v": 64
    },
    {
      "midi": 56,
      "hit": false,
      "t": 106008.33333333312,
      "d": 783.3333333333285,
      "v": 59
    },
    {
      "midi": 60,
      "hit": false,
      "t": 106408.33333333312,
      "d": 783.3333333333285,
      "v": 77
    },
    {
      "midi": 63,
      "hit": false,
      "t": 106408.33333333312,
      "d": 808.3333333333285,
      "v": 76
    },
    {
      "midi": 56,
      "hit": false,
      "t": 106799.99999999978,
      "d": 391.6666666666715,
      "v": 67
    },
    {
      "midi": 56,
      "hit": false,
      "t": 107199.99999999978,
      "d": 1616.666666666657,
      "v": 76
    },
    {
      "midi": 60,
      "hit": false,
      "t": 107199.99999999978,
      "d": 1616.666666666657,
      "v": 77
    },
    {
      "midi": 62,
      "hit": false,
      "t": 107199.99999999978,
      "d": 1616.666666666657,
      "v": 72
    },
    {
      "midi": 65,
      "hit": false,
      "t": 107199.99999999978,
      "d": 1633.3333333333285,
      "v": 79
    },
    {
      "midi": 63,
      "hit": false,
      "t": 108799.99999999978,
      "d": 800,
      "v": 70
    },
    {
      "midi": 58,
      "hit": false,
      "t": 108799.99999999978,
      "d": 1183.3333333333285,
      "v": 70
    },
    {
      "midi": 67,
      "hit": false,
      "t": 108808.33333333311,
      "d": 791.6666666666715,
      "v": 73
    },
    {
      "midi": 63,
      "hit": false,
      "t": 109608.33333333311,
      "d": 741.666666666657,
      "v": 70
    },
    {
      "midi": 67,
      "hit": false,
      "t": 109608.33333333311,
      "d": 741.666666666657,
      "v": 70
    },
    {
      "midi": 58,
      "hit": false,
      "t": 109991.66666666644,
      "d": 366.66666666665697,
      "v": 58
    },
    {
      "midi": 58,
      "hit": false,
      "t": 110391.66666666642,
      "d": 391.6666666666715,
      "v": 63
    },
    {
      "midi": 62,
      "hit": false,
      "t": 110391.66666666642,
      "d": 808.3333333333285,
      "v": 73
    },
    {
      "midi": 67,
      "hit": false,
      "t": 110391.66666666642,
      "d": 808.3333333333285,
      "v": 73
    },
    {
      "midi": 58,
      "hit": false,
      "t": 110791.66666666642,
      "d": 791.666666666657,
      "v": 59
    },
    {
      "midi": 62,
      "hit": false,
      "t": 111208.33333333308,
      "d": 716.666666666657,
      "v": 77
    },
    {
      "midi": 67,
      "hit": false,
      "t": 111208.33333333308,
      "d": 716.666666666657,
      "v": 75
    },
    {
      "midi": 58,
      "hit": false,
      "t": 111591.66666666641,
      "d": 366.66666666665697,
      "v": 62
    },
    {
      "midi": 58,
      "hit": false,
      "t": 111991.6666666664,
      "d": 391.6666666666715,
      "v": 59
    },
    {
      "midi": 61,
      "hit": false,
      "t": 111991.6666666664,
      "d": 808.3333333333285,
      "v": 59
    },
    {
      "midi": 65,
      "hit": false,
      "t": 111991.6666666664,
      "d": 808.3333333333285,
      "v": 79
    },
    {
      "midi": 67,
      "hit": false,
      "t": 111991.6666666664,
      "d": 808.3333333333285,
      "v": 61
    },
    {
      "midi": 58,
      "hit": false,
      "t": 112391.6666666664,
      "d": 799.9999999999854,
      "v": 48
    },
    {
      "midi": 61,
      "hit": false,
      "t": 112808.33333333305,
      "d": 774.9999999999854,
      "v": 60
    },
    {
      "midi": 65,
      "hit": false,
      "t": 112808.33333333305,
      "d": 774.9999999999854,
      "v": 75
    },
    {
      "midi": 67,
      "hit": false,
      "t": 112808.33333333305,
      "d": 774.9999999999854,
      "v": 54
    },
    {
      "midi": 58,
      "hit": false,
      "t": 113199.99999999971,
      "d": 383.3333333333285,
      "v": 49
    },
    {
      "midi": 64,
      "hit": false,
      "t": 113591.66666666637,
      "d": 808.3333333333139,
      "v": 48
    },
    {
      "midi": 58,
      "hit": false,
      "t": 113599.9999999997,
      "d": 799.9999999999854,
      "v": 59
    },
    {
      "midi": 60,
      "hit": false,
      "t": 113599.9999999997,
      "d": 799.9999999999854,
      "v": 65
    },
    {
      "midi": 55,
      "hit": false,
      "t": 113608.33333333302,
      "d": 375,
      "v": 58
    },
    {
      "midi": 55,
      "hit": false,
      "t": 113991.66666666635,
      "d": 808.3333333333285,
      "v": 47
    },
    {
      "midi": 58,
      "hit": false,
      "t": 114408.33333333301,
      "d": 775,
      "v": 70
    },
    {
      "midi": 60,
      "hit": false,
      "t": 114408.33333333301,
      "d": 775,
      "v": 78
    },
    {
      "midi": 64,
      "hit": false,
      "t": 114408.33333333301,
      "d": 775,
      "v": 73
    },
    {
      "midi": 55,
      "hit": false,
      "t": 114808.33333333301,
      "d": 375,
      "v": 72
    },
    {
      "midi": 51,
      "hit": false,
      "t": 115208.33333333301,
      "d": 391.6666666666715,
      "v": 71
    },
    {
      "midi": 56,
      "hit": false,
      "t": 115208.33333333301,
      "d": 775,
      "v": 69
    },
    {
      "midi": 60,
      "hit": false,
      "t": 115208.33333333301,
      "d": 775,
      "v": 75
    },
    {
      "midi": 51,
      "hit": false,
      "t": 115608.33333333301,
      "d": 775,
      "v": 59
    },
    {
      "midi": 56,
      "hit": false,
      "t": 115991.66666666634,
      "d": 766.6666666666715,
      "v": 77
    },
    {
      "midi": 60,
      "hit": false,
      "t": 115991.66666666634,
      "d": 766.6666666666715,
      "v": 75
    },
    {
      "midi": 51,
      "hit": false,
      "t": 116391.66666666634,
      "d": 366.6666666666715,
      "v": 42
    },
    {
      "midi": 58,
      "hit": false,
      "t": 116791.66666666634,
      "d": 791.666666666657,
      "v": 79
    },
    {
      "midi": 62,
      "hit": false,
      "t": 116791.66666666634,
      "d": 791.666666666657,
      "v": 77
    },
    {
      "midi": 53,
      "hit": false,
      "t": 116799.99999999967,
      "d": 383.3333333333285,
      "v": 66
    },
    {
      "midi": 53,
      "hit": false,
      "t": 117191.66666666632,
      "d": 391.6666666666715,
      "v": 56
    },
    {
      "midi": 53,
      "hit": false,
      "t": 117591.66666666632,
      "d": 391.6666666666715,
      "v": 63
    },
    {
      "midi": 58,
      "hit": false,
      "t": 117591.66666666632,
      "d": 750,
      "v": 85
    },
    {
      "midi": 62,
      "hit": false,
      "t": 117591.66666666632,
      "d": 750,
      "v": 78
    },
    {
      "midi": 53,
      "hit": false,
      "t": 117991.66666666632,
      "d": 358.3333333333285,
      "v": 41
    },
    {
      "midi": 55,
      "hit": false,
      "t": 118391.66666666632,
      "d": 391.6666666666715,
      "v": 65
    },
    {
      "midi": 60,
      "hit": false,
      "t": 118391.66666666632,
      "d": 791.6666666666715,
      "v": 73
    },
    {
      "midi": 63,
      "hit": false,
      "t": 118391.66666666632,
      "d": 791.6666666666715,
      "v": 67
    },
    {
      "midi": 55,
      "hit": false,
      "t": 118791.66666666632,
      "d": 808.3333333333285,
      "v": 34
    },
    {
      "midi": 60,
      "hit": false,
      "t": 119191.66666666632,
      "d": 774.9999999999854,
      "v": 89
    },
    {
      "midi": 63,
      "hit": false,
      "t": 119191.66666666632,
      "d": 774.9999999999854,
      "v": 87
    },
    {
      "midi": 55,
      "hit": false,
      "t": 119608.33333333298,
      "d": 358.3333333333285,
      "v": 45
    },
    {
      "midi": 53,
      "hit": false,
      "t": 119999.99999999964,
      "d": 791.666666666657,
      "v": 65
    },
    {
      "midi": 58,
      "hit": false,
      "t": 120008.33333333296,
      "d": 783.3333333333285,
      "v": 79
    },
    {
      "midi": 62,
      "hit": false,
      "t": 120008.33333333296,
      "d": 783.3333333333285,
      "v": 72
    },
    {
      "midi": 58,
      "hit": false,
      "t": 120799.99999999962,
      "d": 775,
      "v": 87
    },
    {
      "midi": 62,
      "hit": false,
      "t": 120799.99999999962,
      "d": 775,
      "v": 79
    },
    {
      "midi": 53,
      "hit": false,
      "t": 120799.99999999962,
      "d": 791.6666666666715,
      "v": 70
    },
    {
      "midi": 63,
      "hit": false,
      "t": 121599.99999999962,
      "d": 783.3333333333285,
      "v": 67
    },
    {
      "midi": 58,
      "hit": false,
      "t": 121599.99999999962,
      "d": 791.666666666657,
      "v": 60
    },
    {
      "midi": 67,
      "hit": false,
      "t": 121599.99999999962,
      "d": 791.666666666657,
      "v": 54
    },
    {
      "midi": 63,
      "hit": false,
      "t": 122391.66666666628,
      "d": 808.3333333333285,
      "v": 71
    },
    {
      "midi": 58,
      "hit": false,
      "t": 122399.9999999996,
      "d": 400,
      "v": 73
    },
    {
      "midi": 67,
      "hit": false,
      "t": 122399.9999999996,
      "d": 800,
      "v": 79
    },
    {
      "midi": 58,
      "hit": false,
      "t": 122808.33333333294,
      "d": 775,
      "v": 36
    },
    {
      "midi": 63,
      "hit": false,
      "t": 123208.33333333294,
      "d": 791.666666666657,
      "v": 67
    },
    {
      "midi": 67,
      "hit": false,
      "t": 123208.33333333294,
      "d": 791.666666666657,
      "v": 79
    },
    {
      "midi": 58,
      "hit": false,
      "t": 123591.66666666626,
      "d": 408.3333333333285,
      "v": 48
    },
    {
      "midi": 58,
      "hit": false,
      "t": 124008.33333333292,
      "d": 758.3333333333285,
      "v": 74
    },
    {
      "midi": 63,
      "hit": false,
      "t": 124008.33333333292,
      "d": 758.3333333333285,
      "v": 65
    },
    {
      "midi": 67,
      "hit": false,
      "t": 124008.33333333292,
      "d": 758.3333333333285,
      "v": 75
    },
    {
      "midi": 60,
      "hit": false,
      "t": 124408.33333333292,
      "d": 358.3333333333285,
      "v": 51
    },
    {
      "midi": 56,
      "hit": false,
      "t": 124791.66666666625,
      "d": 766.666666666657,
      "v": 71
    },
    {
      "midi": 63,
      "hit": false,
      "t": 124791.66666666625,
      "d": 766.666666666657,
      "v": 66
    },
    {
      "midi": 60,
      "hit": false,
      "t": 124799.99999999958,
      "d": 758.3333333333285,
      "v": 76
    },
    {
      "midi": 56,
      "hit": false,
      "t": 125591.66666666623,
      "d": 766.6666666666715,
      "v": 63
    },
    {
      "midi": 60,
      "hit": false,
      "t": 125591.66666666623,
      "d": 766.6666666666715,
      "v": 67
    },
    {
      "midi": 62,
      "hit": false,
      "t": 125591.66666666623,
      "d": 766.6666666666715,
      "v": 71
    },
    {
      "midi": 58,
      "hit": false,
      "t": 126391.66666666623,
      "d": 791.6666666666715,
      "v": 76
    },
    {
      "midi": 55,
      "hit": false,
      "t": 126391.66666666623,
      "d": 800,
      "v": 67
    },
    {
      "midi": 63,
      "hit": false,
      "t": 126391.66666666623,
      "d": 800,
      "v": 66
    },
    {
      "midi": 53,
      "hit": false,
      "t": 127191.66666666623,
      "d": 725,
      "v": 65
    },
    {
      "midi": 58,
      "hit": false,
      "t": 127191.66666666623,
      "d": 725,
      "v": 71
    },
    {
      "midi": 62,
      "hit": false,
      "t": 127191.66666666623,
      "d": 725,
      "v": 69
    },
    {
      "midi": 60,
      "hit": false,
      "t": 127991.66666666623,
      "d": 791.6666666666715,
      "v": 64
    },
    {
      "midi": 63,
      "hit": false,
      "t": 127991.66666666623,
      "d": 791.6666666666715,
      "v": 65
    },
    {
      "midi": 56,
      "hit": false,
      "t": 127991.66666666623,
      "d": 1208.3333333333285,
      "v": 64
    },
    {
      "midi": 60,
      "hit": false,
      "t": 128791.66666666623,
      "d": 716.666666666657,
      "v": 75
    },
    {
      "midi": 63,
      "hit": false,
      "t": 128791.66666666623,
      "d": 716.666666666657,
      "v": 70
    },
    {
      "midi": 56,
      "hit": false,
      "t": 129208.33333333289,
      "d": 350,
      "v": 52
    },
    {
      "midi": 63,
      "hit": false,
      "t": 129599.99999999956,
      "d": 791.666666666657,
      "v": 73
    },
    {
      "midi": 56,
      "hit": false,
      "t": 129608.33333333289,
      "d": 775,
      "v": 76
    },
    {
      "midi": 60,
      "hit": false,
      "t": 129608.33333333289,
      "d": 775,
      "v": 77
    },
    {
      "midi": 56,
      "hit": false,
      "t": 130391.66666666622,
      "d": 783.333333333343,
      "v": 76
    },
    {
      "midi": 60,
      "hit": false,
      "t": 130391.66666666622,
      "d": 783.333333333343,
      "v": 75
    },
    {
      "midi": 62,
      "hit": false,
      "t": 130391.66666666622,
      "d": 783.333333333343,
      "v": 83
    },
    {
      "midi": 58,
      "hit": false,
      "t": 131191.66666666622,
      "d": 791.666666666657,
      "v": 77
    },
    {
      "midi": 63,
      "hit": false,
      "t": 131191.66666666622,
      "d": 791.666666666657,
      "v": 70
    },
    {
      "midi": 62,
      "hit": false,
      "t": 131191.66666666622,
      "d": 800,
      "v": 76
    },
    {
      "midi": 55,
      "hit": false,
      "t": 131191.66666666622,
      "d": 1208.333333333343,
      "v": 73
    },
    {
      "midi": 58,
      "hit": false,
      "t": 131991.66666666622,
      "d": 775.0000000000291,
      "v": 70
    },
    {
      "midi": 63,
      "hit": false,
      "t": 131991.66666666622,
      "d": 775.0000000000291,
      "v": 62
    },
    {
      "midi": 62,
      "hit": false,
      "t": 131999.99999999956,
      "d": 766.6666666666861,
      "v": 80
    },
    {
      "midi": 55,
      "hit": false,
      "t": 132408.3333333329,
      "d": 358.33333333334303,
      "v": 71
    },
    {
      "midi": 56,
      "hit": false,
      "t": 132791.66666666625,
      "d": 791.6666666666861,
      "v": 67
    },
    {
      "midi": 63,
      "hit": false,
      "t": 132791.66666666625,
      "d": 791.6666666666861,
      "v": 65
    },
    {
      "midi": 53,
      "hit": false,
      "t": 132799.9999999996,
      "d": 1183.333333333343,
      "v": 62
    },
    {
      "midi": 60,
      "hit": false,
      "t": 132808.33333333294,
      "d": 775,
      "v": 78
    },
    {
      "midi": 56,
      "hit": false,
      "t": 133591.66666666628,
      "d": 675,
      "v": 70
    },
    {
      "midi": 60,
      "hit": false,
      "t": 133591.66666666628,
      "d": 675,
      "v": 83
    },
    {
      "midi": 63,
      "hit": false,
      "t": 133591.66666666628,
      "d": 675,
      "v": 66
    },
    {
      "midi": 53,
      "hit": false,
      "t": 133991.66666666628,
      "d": 358.33333333334303,
      "v": 54
    },
    {
      "midi": 63,
      "hit": false,
      "t": 134399.99999999962,
      "d": 783.333333333343,
      "v": 53
    },
    {
      "midi": 58,
      "hit": false,
      "t": 134408.33333333296,
      "d": 775,
      "v": 76
    },
    {
      "midi": 62,
      "hit": false,
      "t": 134408.33333333296,
      "d": 775,
      "v": 77
    },
    {
      "midi": 55,
      "hit": false,
      "t": 134408.33333333296,
      "d": 1475,
      "v": 72
    },
    {
      "midi": 58,
      "hit": false,
      "t": 135191.6666666663,
      "d": 691.666666666657,
      "v": 77
    },
    {
      "midi": 62,
      "hit": false,
      "t": 135191.6666666663,
      "d": 691.666666666657,
      "v": 83
    },
    {
      "midi": 63,
      "hit": false,
      "t": 135191.6666666663,
      "d": 691.666666666657,
      "v": 69
    },
    {
      "midi": 53,
      "hit": false,
      "t": 135991.6666666663,
      "d": 391.66666666665697,
      "v": 84
    },
    {
      "midi": 56,
      "hit": false,
      "t": 135991.6666666663,
      "d": 791.666666666657,
      "v": 91
    },
    {
      "midi": 60,
      "hit": false,
      "t": 135991.6666666663,
      "d": 791.666666666657,
      "v": 86
    },
    {
      "midi": 63,
      "hit": false,
      "t": 135991.6666666663,
      "d": 791.666666666657,
      "v": 85
    },
    {
      "midi": 53,
      "hit": false,
      "t": 136391.6666666663,
      "d": 391.66666666665697,
      "v": 38
    },
    {
      "midi": 53,
      "hit": false,
      "t": 136791.6666666663,
      "d": 450,
      "v": 72
    },
    {
      "midi": 56,
      "hit": false,
      "t": 136791.6666666663,
      "d": 450,
      "v": 76
    },
    {
      "midi": 60,
      "hit": false,
      "t": 136791.6666666663,
      "d": 450,
      "v": 72
    },
    {
      "midi": 63,
      "hit": false,
      "t": 136791.6666666663,
      "d": 450,
      "v": 74
    },
    {
      "midi": 55,
      "hit": false,
      "t": 137208.33333333296,
      "d": 383.33333333334303,
      "v": 73
    },
    {
      "midi": 59,
      "hit": false,
      "t": 137208.33333333296,
      "d": 416.66666666668607,
      "v": 72
    },
    {
      "midi": 62,
      "hit": false,
      "t": 137208.33333333296,
      "d": 425.0000000000291,
      "v": 56
    },
    {
      "midi": 58,
      "hit": false,
      "t": 137599.99999999965,
      "d": 800,
      "v": 83
    },
    {
      "midi": 63,
      "hit": false,
      "t": 137599.99999999965,
      "d": 800,
      "v": 71
    },
    {
      "midi": 55,
      "hit": false,
      "t": 137599.99999999965,
      "d": 1191.666666666686,
      "v": 77
    },
    {
      "midi": 58,
      "hit": false,
      "t": 138408.333333333,
      "d": 775.0000000000291,
      "v": 81
    },
    {
      "midi": 63,
      "hit": false,
      "t": 138408.333333333,
      "d": 775.0000000000291,
      "v": 83
    },
    {
      "midi": 55,
      "hit": false,
      "t": 138799.99999999968,
      "d": 383.33333333334303,
      "v": 58
    },
    {
      "midi": 58,
      "hit": false,
      "t": 139208.33333333302,
      "d": 808.3333333333139,
      "v": 83
    },
    {
      "midi": 63,
      "hit": false,
      "t": 139208.33333333302,
      "d": 808.3333333333139,
      "v": 81
    },
    {
      "midi": 55,
      "hit": false,
      "t": 139208.33333333302,
      "d": 825,
      "v": 79
    },
    {
      "midi": 60,
      "hit": false,
      "t": 139624.99999999968,
      "d": 408.33333333334303,
      "v": 58
    },
    {
      "midi": 58,
      "hit": false,
      "t": 140024.99999999968,
      "d": 758.3333333333721,
      "v": 81
    },
    {
      "midi": 63,
      "hit": false,
      "t": 140024.99999999968,
      "d": 758.3333333333721,
      "v": 71
    },
    {
      "midi": 55,
      "hit": false,
      "t": 140041.66666666637,
      "d": 741.6666666666861,
      "v": 76
    },
    {
      "midi": 60,
      "hit": false,
      "t": 140424.9999999997,
      "d": 358.33333333334303,
      "v": 63
    },
    {
      "midi": 56,
      "hit": false,
      "t": 140816.6666666664,
      "d": 783.333333333343,
      "v": 71
    },
    {
      "midi": 60,
      "hit": false,
      "t": 140816.6666666664,
      "d": 825.0000000000291,
      "v": 82
    },
    {
      "midi": 63,
      "hit": false,
      "t": 140816.6666666664,
      "d": 825.0000000000291,
      "v": 83
    },
    {
      "midi": 62,
      "hit": false,
      "t": 141608.33333333308,
      "d": 366.66666666668607,
      "v": 83
    },
    {
      "midi": 56,
      "hit": false,
      "t": 141608.33333333308,
      "d": 800.0000000000291,
      "v": 79
    },
    {
      "midi": 58,
      "hit": false,
      "t": 141608.33333333308,
      "d": 800.0000000000291,
      "v": 76
    },
    {
      "midi": 58,
      "hit": false,
      "t": 142416.66666666645,
      "d": 833.333333333343,
      "v": 83
    },
    {
      "midi": 63,
      "hit": false,
      "t": 142416.66666666645,
      "d": 833.333333333343,
      "v": 83
    },
    {
      "midi": 55,
      "hit": false,
      "t": 142416.66666666645,
      "d": 1200.000000000029,
      "v": 78
    },
    {
      "midi": 58,
      "hit": false,
      "t": 143258.33333333314,
      "d": 725.0000000000291,
      "v": 83
    },
    {
      "midi": 63,
      "hit": false,
      "t": 143258.33333333314,
      "d": 725.0000000000291,
      "v": 85
    },
    {
      "midi": 55,
      "hit": false,
      "t": 143624.99999999983,
      "d": 358.33333333334303,
      "v": 50
    },
    {
      "midi": 58,
      "hit": false,
      "t": 144016.6666666665,
      "d": 783.333333333343,
      "v": 89
    },
    {
      "midi": 53,
      "hit": false,
      "t": 144024.99999999985,
      "d": 775,
      "v": 72
    },
    {
      "midi": 62,
      "hit": false,
      "t": 144024.99999999985,
      "d": 775,
      "v": 87
    },
    {
      "midi": 53,
      "hit": false,
      "t": 144808.3333333332,
      "d": 375,
      "v": 79
    },
    {
      "midi": 58,
      "hit": false,
      "t": 144808.3333333332,
      "d": 750,
      "v": 89
    },
    {
      "midi": 62,
      "hit": false,
      "t": 144808.3333333332,
      "d": 750,
      "v": 90
    },
    {
      "midi": 53,
      "hit": false,
      "t": 145191.66666666654,
      "d": 366.66666666665697,
      "v": 62
    },
    {
      "midi": 63,
      "hit": false,
      "t": 145608.3333333332,
      "d": 800,
      "v": 99
    },
    {
      "midi": 58,
      "hit": false,
      "t": 145608.3333333332,
      "d": 816.6666666666861,
      "v": 102
    },
    {
      "midi": 60,
      "hit": false,
      "t": 145616.66666666654,
      "d": 800,
      "v": 87
    },
    {
      "midi": 55,
      "hit": false,
      "t": 145616.66666666654,
      "d": 1216.666666666686,
      "v": 80
    },
    {
      "midi": 63,
      "hit": false,
      "t": 146416.66666666654,
      "d": 725.0000000000291,
      "v": 108
    },
    {
      "midi": 60,
      "hit": false,
      "t": 146424.99999999988,
      "d": 716.6666666666861,
      "v": 92
    },
    {
      "midi": 58,
      "hit": false,
      "t": 146433.33333333323,
      "d": 708.333333333343,
      "v": 87
    },
    {
      "midi": 55,
      "hit": false,
      "t": 146841.66666666657,
      "d": 300,
      "v": 45
    },
    {
      "midi": 63,
      "hit": false,
      "t": 147208.33333333323,
      "d": 816.666666666657,
      "v": 87
    },
    {
      "midi": 56,
      "hit": false,
      "t": 147208.33333333323,
      "d": 1208.333333333343,
      "v": 81
    },
    {
      "midi": 60,
      "hit": false,
      "t": 147233.33333333323,
      "d": 800,
      "v": 71
    },
    {
      "midi": 63,
      "hit": false,
      "t": 148033.33333333323,
      "d": 666.6666666666861,
      "v": 87
    },
    {
      "midi": 60,
      "hit": false,
      "t": 148041.66666666657,
      "d": 658.333333333343,
      "v": 75
    },
    {
      "midi": 56,
      "hit": false,
      "t": 148424.9999999999,
      "d": 275,
      "v": 34
    },
    {
      "midi": 56,
      "hit": false,
      "t": 148816.66666666657,
      "d": 783.3333333333139,
      "v": 81
    },
    {
      "midi": 62,
      "hit": false,
      "t": 148816.66666666657,
      "d": 783.3333333333139,
      "v": 87
    },
    {
      "midi": 60,
      "hit": false,
      "t": 148833.33333333323,
      "d": 775,
      "v": 75
    },
    {
      "midi": 62,
      "hit": false,
      "t": 149608.33333333323,
      "d": 166.66666666668607,
      "v": 91
    },
    {
      "midi": 56,
      "hit": false,
      "t": 149608.33333333323,
      "d": 808.333333333343,
      "v": 89
    },
    {
      "midi": 60,
      "hit": false,
      "t": 149616.66666666657,
      "d": 775,
      "v": 76
    },
    {
      "midi": 62,
      "hit": false,
      "t": 149824.9999999999,
      "d": 566.666666666657,
      "v": 78
    },
    {
      "midi": 58,
      "hit": false,
      "t": 150399.9999999999,
      "d": 800,
      "v": 79
    },
    {
      "midi": 63,
      "hit": false,
      "t": 150399.9999999999,
      "d": 800,
      "v": 77
    },
    {
      "midi": 55,
      "hit": false,
      "t": 150399.9999999999,
      "d": 1183.333333333343,
      "v": 82
    },
    {
      "midi": 58,
      "hit": false,
      "t": 151208.33333333326,
      "d": 766.6666666666861,
      "v": 81
    },
    {
      "midi": 63,
      "hit": false,
      "t": 151208.33333333326,
      "d": 766.6666666666861,
      "v": 83
    },
    {
      "midi": 55,
      "hit": false,
      "t": 151591.6666666666,
      "d": 383.33333333334303,
      "v": 65
    },
    {
      "midi": 63,
      "hit": false,
      "t": 151991.6666666666,
      "d": 791.666666666657,
      "v": 79
    },
    {
      "midi": 55,
      "hit": false,
      "t": 151991.6666666666,
      "d": 800,
      "v": 78
    },
    {
      "midi": 58,
      "hit": false,
      "t": 151991.6666666666,
      "d": 800,
      "v": 85
    },
    {
      "midi": 60,
      "hit": false,
      "t": 152391.6666666666,
      "d": 791.6666666666861,
      "v": 62
    },
    {
      "midi": 63,
      "hit": false,
      "t": 152791.6666666666,
      "d": 766.6666666666861,
      "v": 76
    },
    {
      "midi": 55,
      "hit": false,
      "t": 152799.99999999994,
      "d": 758.333333333343,
      "v": 71
    },
    {
      "midi": 58,
      "hit": false,
      "t": 152799.99999999994,
      "d": 758.333333333343,
      "v": 87
    },
    {
      "midi": 60,
      "hit": false,
      "t": 153191.66666666663,
      "d": 366.66666666665697,
      "v": 61
    },
    {
      "midi": 56,
      "hit": false,
      "t": 153591.66666666663,
      "d": 791.666666666657,
      "v": 79
    },
    {
      "midi": 60,
      "hit": false,
      "t": 153591.66666666663,
      "d": 800,
      "v": 82
    },
    {
      "midi": 63,
      "hit": false,
      "t": 153591.66666666663,
      "d": 825,
      "v": 79
    },
    {
      "midi": 56,
      "hit": false,
      "t": 154391.66666666663,
      "d": 816.666666666657,
      "v": 66
    },
    {
      "midi": 62,
      "hit": false,
      "t": 154399.99999999997,
      "d": 783.3333333333139,
      "v": 75
    },
    {
      "midi": 60,
      "hit": false,
      "t": 154399.99999999997,
      "d": 808.3333333333139,
      "v": 72
    },
    {
      "midi": 58,
      "hit": false,
      "t": 155191.66666666663,
      "d": 791.666666666657,
      "v": 59
    },
    {
      "midi": 62,
      "hit": false,
      "t": 155191.66666666663,
      "d": 791.666666666657,
      "v": 66
    },
    {
      "midi": 53,
      "hit": false,
      "t": 155191.66666666663,
      "d": 1191.666666666657,
      "v": 55
    },
    {
      "midi": 58,
      "hit": false,
      "t": 155991.66666666663,
      "d": 775,
      "v": 77
    },
    {
      "midi": 62,
      "hit": false,
      "t": 155991.66666666663,
      "d": 775,
      "v": 89
    },
    {
      "midi": 53,
      "hit": false,
      "t": 156391.66666666663,
      "d": 375,
      "v": 54
    },
    {
      "midi": 62,
      "hit": false,
      "t": 156808.33333333328,
      "d": 775,
      "v": 78
    },
    {
      "midi": 58,
      "hit": false,
      "t": 156808.33333333328,
      "d": 783.333333333343,
      "v": 77
    },
    {
      "midi": 53,
      "hit": false,
      "t": 156808.33333333328,
      "d": 1175.000000000029,
      "v": 71
    },
    {
      "midi": 62,
      "hit": false,
      "t": 157591.66666666663,
      "d": 758.3333333333721,
      "v": 86
    },
    {
      "midi": 58,
      "hit": false,
      "t": 157599.99999999997,
      "d": 750.0000000000291,
      "v": 81
    },
    {
      "midi": 53,
      "hit": false,
      "t": 157991.66666666666,
      "d": 358.33333333334303,
      "v": 51
    },
    {
      "midi": 58,
      "hit": false,
      "t": 158391.66666666666,
      "d": 791.666666666657,
      "v": 76
    },
    {
      "midi": 60,
      "hit": false,
      "t": 158391.66666666666,
      "d": 791.666666666657,
      "v": 76
    },
    {
      "midi": 63,
      "hit": false,
      "t": 158391.66666666666,
      "d": 791.666666666657,
      "v": 66
    },
    {
      "midi": 55,
      "hit": false,
      "t": 158391.66666666666,
      "d": 1483.333333333343,
      "v": 72
    },
    {
      "midi": 58,
      "hit": false,
      "t": 159191.66666666666,
      "d": 683.333333333343,
      "v": 73
    },
    {
      "midi": 60,
      "hit": false,
      "t": 159191.66666666666,
      "d": 683.333333333343,
      "v": 72
    },
    {
      "midi": 63,
      "hit": false,
      "t": 159191.66666666666,
      "d": 683.333333333343,
      "v": 76
    },
    {
      "midi": 60,
      "hit": false,
      "t": 159991.66666666666,
      "d": 791.666666666657,
      "v": 73
    },
    {
      "midi": 63,
      "hit": false,
      "t": 159991.66666666666,
      "d": 791.666666666657,
      "v": 73
    },
    {
      "midi": 56,
      "hit": false,
      "t": 159991.66666666666,
      "d": 1191.666666666657,
      "v": 65
    },
    {
      "midi": 60,
      "hit": false,
      "t": 160791.66666666666,
      "d": 675,
      "v": 76
    },
    {
      "midi": 63,
      "hit": false,
      "t": 160791.66666666666,
      "d": 675,
      "v": 87
    },
    {
      "midi": 56,
      "hit": false,
      "t": 161191.66666666666,
      "d": 275,
      "v": 73
    },
    {
      "midi": 58,
      "hit": false,
      "t": 161591.66666666666,
      "d": 808.333333333343,
      "v": 83
    },
    {
      "midi": 62,
      "hit": false,
      "t": 161591.66666666666,
      "d": 808.333333333343,
      "v": 76
    },
    {
      "midi": 56,
      "hit": false,
      "t": 161591.66666666666,
      "d": 1191.666666666686,
      "v": 81
    },
    {
      "midi": 58,
      "hit": false,
      "t": 162408.33333333334,
      "d": 758.333333333343,
      "v": 83
    },
    {
      "midi": 62,
      "hit": false,
      "t": 162408.33333333334,
      "d": 758.333333333343,
      "v": 90
    },
    {
      "midi": 56,
      "hit": false,
      "t": 162791.6666666667,
      "d": 375,
      "v": 67
    },
    {
      "midi": 53,
      "hit": false,
      "t": 163200.00000000003,
      "d": 800,
      "v": 72
    },
    {
      "midi": 58,
      "hit": false,
      "t": 163200.00000000003,
      "d": 800,
      "v": 85
    },
    {
      "midi": 62,
      "hit": false,
      "t": 163200.00000000003,
      "d": 800,
      "v": 89
    },
    {
      "midi": 53,
      "hit": false,
      "t": 164008.33333333337,
      "d": 716.666666666657,
      "v": 79
    },
    {
      "midi": 58,
      "hit": false,
      "t": 164008.33333333337,
      "d": 716.666666666657,
      "v": 83
    },
    {
      "midi": 62,
      "hit": false,
      "t": 164008.33333333337,
      "d": 716.666666666657,
      "v": 89
    },
    {
      "midi": 65,
      "hit": false,
      "t": 164008.33333333337,
      "d": 716.666666666657,
      "v": 77
    },
    {
      "midi": 62,
      "hit": false,
      "t": 164791.6666666667,
      "d": 791.666666666657,
      "v": 90
    },
    {
      "midi": 65,
      "hit": false,
      "t": 164791.6666666667,
      "d": 791.666666666657,
      "v": 87
    },
    {
      "midi": 55,
      "hit": false,
      "t": 164791.6666666667,
      "d": 808.3333333333139,
      "v": 87
    },
    {
      "midi": 58,
      "hit": false,
      "t": 164791.6666666667,
      "d": 808.3333333333139,
      "v": 89
    },
    {
      "midi": 55,
      "hit": false,
      "t": 165608.33333333334,
      "d": 775,
      "v": 84
    },
    {
      "midi": 58,
      "hit": false,
      "t": 165608.33333333334,
      "d": 775,
      "v": 87
    },
    {
      "midi": 60,
      "hit": false,
      "t": 165608.33333333334,
      "d": 775,
      "v": 84
    },
    {
      "midi": 64,
      "hit": false,
      "t": 165608.33333333334,
      "d": 775,
      "v": 78
    },
    {
      "midi": 57,
      "hit": false,
      "t": 166408.33333333334,
      "d": 350,
      "v": 72
    },
    {
      "midi": 60,
      "hit": false,
      "t": 166408.33333333334,
      "d": 791.6666666666861,
      "v": 70
    },
    {
      "midi": 65,
      "hit": false,
      "t": 166408.33333333334,
      "d": 791.6666666666861,
      "v": 76
    },
    {
      "midi": 57,
      "hit": false,
      "t": 166791.6666666667,
      "d": 800.0000000000291,
      "v": 60
    },
    {
      "midi": 60,
      "hit": false,
      "t": 167208.33333333337,
      "d": 775.0000000000291,
      "v": 75
    },
    {
      "midi": 65,
      "hit": false,
      "t": 167208.33333333337,
      "d": 775.0000000000291,
      "v": 83
    },
    {
      "midi": 57,
      "hit": false,
      "t": 167600.00000000006,
      "d": 783.333333333343,
      "v": 63
    },
    {
      "midi": 60,
      "hit": false,
      "t": 167991.66666666674,
      "d": 791.666666666657,
      "v": 78
    },
    {
      "midi": 64,
      "hit": false,
      "t": 167991.66666666674,
      "d": 808.333333333343,
      "v": 86
    },
    {
      "midi": 57,
      "hit": false,
      "t": 168391.66666666674,
      "d": 791.6666666666861,
      "v": 57
    },
    {
      "midi": 60,
      "hit": false,
      "t": 168791.66666666674,
      "d": 725.0000000000291,
      "v": 77
    },
    {
      "midi": 64,
      "hit": false,
      "t": 168808.33333333343,
      "d": 708.333333333343,
      "v": 87
    },
    {
      "midi": 57,
      "hit": false,
      "t": 169191.66666666677,
      "d": 325,
      "v": 50
    },
    {
      "midi": 60,
      "hit": false,
      "t": 169591.66666666677,
      "d": 791.666666666657,
      "v": 68
    },
    {
      "midi": 63,
      "hit": false,
      "t": 169591.66666666677,
      "d": 791.666666666657,
      "v": 60
    },
    {
      "midi": 67,
      "hit": false,
      "t": 169591.66666666677,
      "d": 791.666666666657,
      "v": 73
    },
    {
      "midi": 57,
      "hit": false,
      "t": 169991.66666666677,
      "d": 791.666666666657,
      "v": 59
    },
    {
      "midi": 60,
      "hit": false,
      "t": 170391.66666666677,
      "d": 691.666666666657,
      "v": 84
    },
    {
      "midi": 63,
      "hit": false,
      "t": 170391.66666666677,
      "d": 691.666666666657,
      "v": 79
    },
    {
      "midi": 67,
      "hit": false,
      "t": 170391.66666666677,
      "d": 691.666666666657,
      "v": 87
    },
    {
      "midi": 57,
      "hit": false,
      "t": 170791.66666666677,
      "d": 291.66666666665697,
      "v": 60
    },
    {
      "midi": 57,
      "hit": false,
      "t": 171191.66666666677,
      "d": 391.66666666665697,
      "v": 71
    },
    {
      "midi": 60,
      "hit": false,
      "t": 171191.66666666677,
      "d": 791.666666666657,
      "v": 72
    },
    {
      "midi": 62,
      "hit": false,
      "t": 171191.66666666677,
      "d": 791.666666666657,
      "v": 72
    },
    {
      "midi": 66,
      "hit": false,
      "t": 171191.66666666677,
      "d": 791.666666666657,
      "v": 64
    },
    {
      "midi": 57,
      "hit": false,
      "t": 171591.66666666677,
      "d": 791.666666666657,
      "v": 46
    },
    {
      "midi": 60,
      "hit": false,
      "t": 171991.66666666677,
      "d": 700,
      "v": 78
    },
    {
      "midi": 62,
      "hit": false,
      "t": 171991.66666666677,
      "d": 700,
      "v": 84
    },
    {
      "midi": 66,
      "hit": false,
      "t": 171991.66666666677,
      "d": 700,
      "v": 79
    },
    {
      "midi": 57,
      "hit": false,
      "t": 172391.66666666677,
      "d": 300,
      "v": 60
    },
    {
      "midi": 58,
      "hit": false,
      "t": 172791.66666666677,
      "d": 791.666666666657,
      "v": 71
    },
    {
      "midi": 62,
      "hit": false,
      "t": 172791.66666666677,
      "d": 791.666666666657,
      "v": 67
    },
    {
      "midi": 53,
      "hit": false,
      "t": 172791.66666666677,
      "d": 1191.666666666657,
      "v": 67
    },
    {
      "midi": 58,
      "hit": false,
      "t": 173591.66666666677,
      "d": 641.666666666657,
      "v": 87
    },
    {
      "midi": 62,
      "hit": false,
      "t": 173591.66666666677,
      "d": 641.666666666657,
      "v": 82
    },
    {
      "midi": 53,
      "hit": false,
      "t": 173991.66666666677,
      "d": 241.66666666665697,
      "v": 58
    },
    {
      "midi": 60,
      "hit": false,
      "t": 174391.66666666677,
      "d": 808.333333333343,
      "v": 68
    },
    {
      "midi": 64,
      "hit": false,
      "t": 174391.66666666677,
      "d": 808.333333333343,
      "v": 71
    },
    {
      "midi": 55,
      "hit": false,
      "t": 174391.66666666677,
      "d": 1191.666666666686,
      "v": 69
    },
    {
      "midi": 60,
      "hit": false,
      "t": 175208.33333333346,
      "d": 666.6666666666861,
      "v": 82
    },
    {
      "midi": 64,
      "hit": false,
      "t": 175208.33333333346,
      "d": 666.6666666666861,
      "v": 79
    },
    {
      "midi": 55,
      "hit": false,
      "t": 175591.6666666668,
      "d": 283.33333333334303,
      "v": 49
    },
    {
      "midi": 57,
      "hit": false,
      "t": 175991.6666666668,
      "d": 308.33333333334303,
      "v": 65
    },
    {
      "midi": 62,
      "hit": false,
      "t": 175991.6666666668,
      "d": 808.333333333343,
      "v": 65
    },
    {
      "midi": 65,
      "hit": false,
      "t": 175991.6666666668,
      "d": 808.333333333343,
      "v": 75
    },
    {
      "midi": 57,
      "hit": false,
      "t": 176800.00000000015,
      "d": 400,
      "v": 79
    },
    {
      "midi": 62,
      "hit": false,
      "t": 176808.3333333335,
      "d": 708.333333333343,
      "v": 79
    },
    {
      "midi": 65,
      "hit": false,
      "t": 176808.3333333335,
      "d": 708.333333333343,
      "v": 83
    },
    {
      "midi": 57,
      "hit": false,
      "t": 177208.3333333335,
      "d": 308.33333333334303,
      "v": 45
    },
    {
      "midi": 55,
      "hit": false,
      "t": 177591.66666666683,
      "d": 391.66666666668607,
      "v": 79
    },
    {
      "midi": 64,
      "hit": false,
      "t": 177591.66666666683,
      "d": 808.3333333333721,
      "v": 80
    },
    {
      "midi": 60,
      "hit": false,
      "t": 177600.00000000017,
      "d": 791.6666666666861,
      "v": 83
    },
    {
      "midi": 55,
      "hit": false,
      "t": 177991.66666666686,
      "d": 791.6666666666861,
      "v": 50
    },
    {
      "midi": 60,
      "hit": false,
      "t": 178400.0000000002,
      "d": 641.6666666666861,
      "v": 82
    },
    {
      "midi": 64,
      "hit": false,
      "t": 178408.33333333355,
      "d": 633.333333333343,
      "v": 84
    },
    {
      "midi": 55,
      "hit": false,
      "t": 178791.6666666669,
      "d": 250,
      "v": 53
    },
    {
      "midi": 57,
      "hit": false,
      "t": 179208.33333333355,
      "d": 375,
      "v": 72
    },
    {
      "midi": 65,
      "hit": false,
      "t": 179208.33333333355,
      "d": 775,
      "v": 75
    },
    {
      "midi": 62,
      "hit": false,
      "t": 179208.33333333355,
      "d": 783.333333333343,
      "v": 72
    },
    {
      "midi": 57,
      "hit": false,
      "t": 179591.6666666669,
      "d": 791.6666666666861,
      "v": 35
    },
    {
      "midi": 65,
      "hit": false,
      "t": 179991.6666666669,
      "d": 700.0000000000291,
      "v": 79
    },
    {
      "midi": 62,
      "hit": false,
      "t": 180000.00000000023,
      "d": 691.6666666666861,
      "v": 80
    },
    {
      "midi": 57,
      "hit": false,
      "t": 180391.66666666692,
      "d": 300,
      "v": 46
    },
    {
      "midi": 57,
      "hit": false,
      "t": 180791.66666666692,
      "d": 391.66666666665697,
      "v": 71
    },
    {
      "midi": 62,
      "hit": false,
      "t": 180791.66666666692,
      "d": 791.666666666657,
      "v": 70
    },
    {
      "midi": 65,
      "hit": false,
      "t": 180791.66666666692,
      "d": 791.666666666657,
      "v": 73
    },
    {
      "midi": 57,
      "hit": false,
      "t": 181191.66666666692,
      "d": 791.666666666657,
      "v": 48
    },
    {
      "midi": 62,
      "hit": false,
      "t": 181591.66666666692,
      "d": 741.666666666657,
      "v": 73
    },
    {
      "midi": 65,
      "hit": false,
      "t": 181591.66666666692,
      "d": 741.666666666657,
      "v": 86
    },
    {
      "midi": 57,
      "hit": false,
      "t": 181991.66666666692,
      "d": 341.66666666665697,
      "v": 51
    },
    {
      "midi": 62,
      "hit": false,
      "t": 182400.00000000023,
      "d": 791.666666666657,
      "v": 80
    },
    {
      "midi": 58,
      "hit": false,
      "t": 182400.00000000023,
      "d": 800,
      "v": 81
    },
    {
      "midi": 53,
      "hit": false,
      "t": 182400.00000000023,
      "d": 841.6666666666861,
      "v": 72
    },
    {
      "midi": 60,
      "hit": false,
      "t": 183208.33333333358,
      "d": 775,
      "v": 76
    },
    {
      "midi": 55,
      "hit": false,
      "t": 183208.33333333358,
      "d": 800,
      "v": 77
    },
    {
      "midi": 58,
      "hit": false,
      "t": 183208.33333333358,
      "d": 800,
      "v": 74
    },
    {
      "midi": 57,
      "hit": false,
      "t": 183991.66666666692,
      "d": 783.3333333333139,
      "v": 72
    },
    {
      "midi": 60,
      "hit": false,
      "t": 183991.66666666692,
      "d": 783.3333333333139,
      "v": 70
    },
    {
      "midi": 65,
      "hit": false,
      "t": 183991.66666666692,
      "d": 783.3333333333139,
      "v": 86
    },
    {
      "midi": 55,
      "hit": false,
      "t": 184791.6666666669,
      "d": 741.666666666657,
      "v": 77
    },
    {
      "midi": 60,
      "hit": false,
      "t": 184791.6666666669,
      "d": 741.666666666657,
      "v": 77
    },
    {
      "midi": 64,
      "hit": false,
      "t": 184791.6666666669,
      "d": 741.666666666657,
      "v": 76
    },
    {
      "midi": 58,
      "hit": false,
      "t": 185600.0000000002,
      "d": 791.6666666666861,
      "v": 85
    },
    {
      "midi": 62,
      "hit": false,
      "t": 185600.0000000002,
      "d": 791.6666666666861,
      "v": 90
    },
    {
      "midi": 53,
      "hit": false,
      "t": 185608.33333333355,
      "d": 1175.000000000029,
      "v": 86
    },
    {
      "midi": 58,
      "hit": false,
      "t": 186400.00000000023,
      "d": 741.6666666666861,
      "v": 87
    },
    {
      "midi": 62,
      "hit": false,
      "t": 186400.00000000023,
      "d": 741.6666666666861,
      "v": 83
    },
    {
      "midi": 53,
      "hit": false,
      "t": 186791.66666666692,
      "d": 350,
      "v": 53
    },
    {
      "midi": 62,
      "hit": false,
      "t": 187200.00000000026,
      "d": 783.333333333343,
      "v": 82
    },
    {
      "midi": 53,
      "hit": false,
      "t": 187208.3333333336,
      "d": 391.66666666665697,
      "v": 70
    },
    {
      "midi": 58,
      "hit": false,
      "t": 187208.3333333336,
      "d": 775,
      "v": 85
    },
    {
      "midi": 53,
      "hit": false,
      "t": 187608.3333333336,
      "d": 1216.666666666657,
      "v": 45
    },
    {
      "midi": 58,
      "hit": false,
      "t": 187991.66666666695,
      "d": 833.3333333333139,
      "v": 91
    },
    {
      "midi": 62,
      "hit": false,
      "t": 187991.66666666695,
      "d": 833.3333333333139,
      "v": 89
    },
    {
      "midi": 60,
      "hit": false,
      "t": 188808.3333333336,
      "d": 775,
      "v": 76
    },
    {
      "midi": 64,
      "hit": false,
      "t": 188808.3333333336,
      "d": 775,
      "v": 68
    },
    {
      "midi": 65,
      "hit": false,
      "t": 188808.3333333336,
      "d": 775,
      "v": 73
    },
    {
      "midi": 57,
      "hit": false,
      "t": 188808.3333333336,
      "d": 1583.333333333343,
      "v": 71
    },
    {
      "midi": 65,
      "hit": false,
      "t": 189591.66666666695,
      "d": 791.666666666657,
      "v": 78
    },
    {
      "midi": 60,
      "hit": false,
      "t": 189591.66666666695,
      "d": 800,
      "v": 77
    },
    {
      "midi": 64,
      "hit": false,
      "t": 189591.66666666695,
      "d": 800,
      "v": 77
    },
    {
      "midi": 58,
      "hit": false,
      "t": 190400.0000000003,
      "d": 791.6666666666861,
      "v": 79
    },
    {
      "midi": 62,
      "hit": false,
      "t": 190400.0000000003,
      "d": 791.6666666666861,
      "v": 87
    },
    {
      "midi": 65,
      "hit": false,
      "t": 190408.33333333363,
      "d": 791.6666666666861,
      "v": 76
    },
    {
      "midi": 64,
      "hit": false,
      "t": 191191.66666666698,
      "d": 791.6666666666861,
      "v": 84
    },
    {
      "midi": 61,
      "hit": false,
      "t": 191191.66666666698,
      "d": 825,
      "v": 74
    },
    {
      "midi": 55,
      "hit": false,
      "t": 191191.66666666698,
      "d": 841.666666666657,
      "v": 76
    },
    {
      "midi": 57,
      "hit": false,
      "t": 191191.66666666698,
      "d": 850,
      "v": 72
    },
    {
      "midi": 65,
      "hit": false,
      "t": 192000.00000000032,
      "d": 783.3333333333139,
      "v": 57
    },
    {
      "midi": 69,
      "hit": false,
      "t": 192000.00000000032,
      "d": 783.3333333333139,
      "v": 58
    },
    {
      "midi": 62,
      "hit": false,
      "t": 192000.00000000032,
      "d": 791.666666666657,
      "v": 58
    },
    {
      "midi": 60,
      "hit": false,
      "t": 192000.00000000032,
      "d": 1591.666666666686,
      "v": 55
    },
    {
      "midi": 62,
      "hit": false,
      "t": 192800.00000000032,
      "d": 783.333333333343,
      "v": 61
    },
    {
      "midi": 65,
      "hit": false,
      "t": 192800.00000000032,
      "d": 783.333333333343,
      "v": 72
    },
    {
      "midi": 69,
      "hit": false,
      "t": 192800.00000000032,
      "d": 783.333333333343,
      "v": 79
    },
    {
      "midi": 72,
      "hit": false,
      "t": 193608.33333333366,
      "d": 775,
      "v": 70
    },
    {
      "midi": 62,
      "hit": false,
      "t": 193608.33333333366,
      "d": 783.333333333343,
      "v": 72
    },
    {
      "midi": 65,
      "hit": false,
      "t": 193608.33333333366,
      "d": 783.333333333343,
      "v": 68
    },
    {
      "midi": 69,
      "hit": false,
      "t": 193608.33333333366,
      "d": 783.333333333343,
      "v": 72
    },
    {
      "midi": 60,
      "hit": false,
      "t": 194408.33333333366,
      "d": 758.333333333343,
      "v": 65
    },
    {
      "midi": 62,
      "hit": false,
      "t": 194408.33333333366,
      "d": 758.333333333343,
      "v": 72
    },
    {
      "midi": 65,
      "hit": false,
      "t": 194408.33333333366,
      "d": 758.333333333343,
      "v": 71
    },
    {
      "midi": 69,
      "hit": false,
      "t": 194408.33333333366,
      "d": 758.333333333343,
      "v": 68
    },
    {
      "midi": 58,
      "hit": false,
      "t": 195191.666666667,
      "d": 791.666666666657,
      "v": 79
    },
    {
      "midi": 62,
      "hit": false,
      "t": 195191.666666667,
      "d": 791.666666666657,
      "v": 75
    },
    {
      "midi": 65,
      "hit": false,
      "t": 195191.666666667,
      "d": 791.666666666657,
      "v": 76
    },
    {
      "midi": 64,
      "hit": false,
      "t": 195991.666666667,
      "d": 783.333333333343,
      "v": 70
    },
    {
      "midi": 58,
      "hit": false,
      "t": 196000.00000000035,
      "d": 783.333333333343,
      "v": 40
    },
    {
      "midi": 60,
      "hit": false,
      "t": 196000.00000000035,
      "d": 783.333333333343,
      "v": 40
    },
    {
      "midi": 60,
      "hit": false,
      "t": 196808.3333333337,
      "d": 766.666666666657,
      "v": 65
    },
    {
      "midi": 65,
      "hit": false,
      "t": 196808.3333333337,
      "d": 766.666666666657,
      "v": 65
    },
    {
      "midi": 57,
      "hit": false,
      "t": 196808.3333333337,
      "d": 775,
      "v": 78
    },
    {
      "midi": 55,
      "hit": false,
      "t": 197608.3333333337,
      "d": 766.666666666657,
      "v": 83
    },
    {
      "midi": 60,
      "hit": false,
      "t": 197608.3333333337,
      "d": 766.666666666657,
      "v": 65
    },
    {
      "midi": 64,
      "hit": false,
      "t": 197608.3333333337,
      "d": 766.666666666657,
      "v": 75
    },
    {
      "midi": 58,
      "hit": false,
      "t": 198391.666666667,
      "d": 791.666666666657,
      "v": 55
    },
    {
      "midi": 65,
      "hit": false,
      "t": 198391.666666667,
      "d": 791.666666666657,
      "v": 67
    },
    {
      "midi": 62,
      "hit": false,
      "t": 198391.666666667,
      "d": 800,
      "v": 65
    },
    {
      "midi": 62,
      "hit": false,
      "t": 199208.33333333366,
      "d": 750,
      "v": 68
    },
    {
      "midi": 58,
      "hit": false,
      "t": 199208.33333333366,
      "d": 758.333333333343,
      "v": 65
    },
    {
      "midi": 65,
      "hit": false,
      "t": 199208.33333333366,
      "d": 758.333333333343,
      "v": 65
    },
    {
      "midi": 58,
      "hit": false,
      "t": 199991.666666667,
      "d": 791.666666666657,
      "v": 83
    },
    {
      "midi": 62,
      "hit": false,
      "t": 200008.33333333366,
      "d": 775,
      "v": 82
    },
    {
      "midi": 65,
      "hit": false,
      "t": 200008.33333333366,
      "d": 775,
      "v": 84
    },
    {
      "midi": 57,
      "hit": false,
      "t": 200808.33333333366,
      "d": 766.666666666657,
      "v": 84
    },
    {
      "midi": 60,
      "hit": false,
      "t": 200808.33333333366,
      "d": 775,
      "v": 72
    },
    {
      "midi": 65,
      "hit": false,
      "t": 200808.33333333366,
      "d": 775,
      "v": 77
    },
    {
      "midi": 62,
      "hit": false,
      "t": 201608.33333333366,
      "d": 1591.666666666657,
      "v": 79
    },
    {
      "midi": 65,
      "hit": false,
      "t": 201608.33333333366,
      "d": 1591.666666666657,
      "v": 73
    },
    {
      "midi": 70,
      "hit": false,
      "t": 201608.33333333366,
      "d": 1591.666666666657,
      "v": 93
    },
    {
      "midi": 72,
      "hit": false,
      "t": 201608.33333333366,
      "d": 1591.666666666657,
      "v": 82
    },
    {
      "midi": 48,
      "hit": false,
      "t": 204800.00000000003,
      "d": 1591.666666666657,
      "v": 70
    },
    {
      "midi": 53,
      "hit": false,
      "t": 204991.6666666667,
      "d": 1391.666666666657,
      "v": 72
    },
    {
      "midi": 57,
      "hit": false,
      "t": 205191.6666666667,
      "d": 1391.666666666686,
      "v": 68
    },
    {
      "midi": 60,
      "hit": false,
      "t": 205383.33333333334,
      "d": 1391.666666666686,
      "v": 65
    },
    {
      "midi": 65,
      "hit": false,
      "t": 205591.6666666667,
      "d": 1391.666666666686,
      "v": 63
    },
    {
      "midi": 69,
      "hit": false,
      "t": 205791.6666666667,
      "d": 1391.666666666686,
      "v": 72
    },
    {
      "midi": 72,
      "hit": false,
      "t": 205983.33333333334,
      "d": 1391.666666666686,
      "v": 73
    },
    {
      "midi": 77,
      "hit": false,
      "t": 206183.33333333334,
      "d": 1391.666666666686,
      "v": 77
    },
    {
      "midi": 48,
      "hit": false,
      "t": 206400.00000000003,
      "d": 1400,
      "v": 74
    },
    {
      "midi": 55,
      "hit": false,
      "t": 206600.00000000003,
      "d": 1208.333333333343,
      "v": 80
    },
    {
      "midi": 58,
      "hit": false,
      "t": 206800.00000000003,
      "d": 1391.666666666686,
      "v": 79
    },
    {
      "midi": 62,
      "hit": false,
      "t": 207000.00000000003,
      "d": 1391.6666666667152,
      "v": 80
    },
    {
      "midi": 65,
      "hit": false,
      "t": 207200.00000000003,
      "d": 1391.6666666667152,
      "v": 78
    },
    {
      "midi": 70,
      "hit": false,
      "t": 207383.33333333337,
      "d": 991.6666666666861,
      "v": 62
    },
    {
      "midi": 74,
      "hit": false,
      "t": 207583.33333333337,
      "d": 791.6666666666861,
      "v": 73
    },
    {
      "midi": 77,
      "hit": false,
      "t": 207783.33333333337,
      "d": 1391.666666666686,
      "v": 85
    },
    {
      "midi": 48,
      "hit": false,
      "t": 207983.33333333337,
      "d": 1391.666666666686,
      "v": 80
    },
    {
      "midi": 53,
      "hit": false,
      "t": 208183.33333333337,
      "d": 1391.666666666686,
      "v": 78
    },
    {
      "midi": 57,
      "hit": false,
      "t": 208383.3333333334,
      "d": 1191.666666666657,
      "v": 83
    },
    {
      "midi": 60,
      "hit": false,
      "t": 208583.3333333334,
      "d": 1191.666666666657,
      "v": 80
    },
    {
      "midi": 65,
      "hit": false,
      "t": 208783.3333333334,
      "d": 1391.666666666686,
      "v": 73
    },
    {
      "midi": 69,
      "hit": false,
      "t": 208983.3333333334,
      "d": 1591.666666666657,
      "v": 65
    },
    {
      "midi": 72,
      "hit": false,
      "t": 209183.3333333334,
      "d": 1391.666666666657,
      "v": 70
    },
    {
      "midi": 77,
      "hit": false,
      "t": 209383.3333333334,
      "d": 1391.666666666657,
      "v": 79
    },
    {
      "midi": 48,
      "hit": false,
      "t": 209583.3333333334,
      "d": 1700.000000000029,
      "v": 60
    },
    {
      "midi": 55,
      "hit": false,
      "t": 209783.3333333334,
      "d": 1466.666666666686,
      "v": 75
    },
    {
      "midi": 58,
      "hit": false,
      "t": 209991.66666666674,
      "d": 1208.333333333343,
      "v": 72
    },
    {
      "midi": 62,
      "hit": false,
      "t": 210191.66666666674,
      "d": 1008.333333333343,
      "v": 77
    },
    {
      "midi": 65,
      "hit": false,
      "t": 210408.3333333334,
      "d": 750,
      "v": 74
    },
    {
      "midi": 70,
      "hit": false,
      "t": 210600.00000000006,
      "d": 558.333333333343,
      "v": 64
    },
    {
      "midi": 74,
      "hit": false,
      "t": 210800.00000000006,
      "d": 366.66666666668607,
      "v": 72
    },
    {
      "midi": 77,
      "hit": false,
      "t": 211000.00000000006,
      "d": 175.0000000000291,
      "v": 78
    },
    {
      "midi": 41,
      "hit": false,
      "t": 211216.66666666674,
      "d": 3825,
      "v": 77
    },
    {
      "midi": 48,
      "hit": false,
      "t": 211383.33333333343,
      "d": 3658.333333333314,
      "v": 70
    },
    {
      "midi": 55,
      "hit": false,
      "t": 211583.33333333343,
      "d": 3458.333333333314,
      "v": 66
    },
    {
      "midi": 57,
      "hit": false,
      "t": 211775.0000000001,
      "d": 3266.666666666657,
      "v": 69
    },
    {
      "midi": 60,
      "hit": false,
      "t": 211950.0000000001,
      "d": 3091.666666666657,
      "v": 66
    },
    {
      "midi": 65,
      "hit": false,
      "t": 212158.33333333343,
      "d": 2800,
      "v": 72
    },
    {
      "midi": 69,
      "hit": false,
      "t": 212366.66666666677,
      "d": 2674.999999999971,
      "v": 73
    },
    {
      "midi": 72,
      "hit": false,
      "t": 212566.66666666677,
      "d": 2474.999999999971,
      "v": 62
    },
    {
      "midi": 77,
      "hit": false,
      "t": 212783.33333333343,
      "d": 2258.333333333314,
      "v": 69
    },
    {
      "midi": 81,
      "hit": false,
      "t": 213008.33333333343,
      "d": 1966.666666666657,
      "v": 66
    },
    {
      "midi": 84,
      "hit": false,
      "t": 213233.33333333343,
      "d": 1808.333333333314,
      "v": 76
    },
    {
      "midi": 89,
      "hit": false,
      "t": 213441.66666666677,
      "d": 1599.999999999971,
      "v": 66
    },
    {
      "midi": 93,
      "hit": false,
      "t": 213641.66666666677,
      "d": 1399.999999999971,
      "v": 64
    },
    {
      "midi": 101,
      "hit": false,
      "t": 213716.66666666677,
      "d": 1324.999999999971,
      "v": 66
    }
  ]
}