{
  "jsonPath": "Country/Country/HOLLY DUNN/only-when-i-love-album-version.json",
  "path": "Country\\Country\\HOLLY DUNN\\Only When I Love (Album Version).mid",
  "name": "Only When I Love (Album Version)",
  "difficulty": "Advanced",
  "bpm": 83.99996640001343,
  "notes": [
    {
      "midi": 64,
      "hit": false,
      "t": 1428.5720000000001,
      "d": 89.28575000000001,
      "v": 95
    },
    {
      "midi": 68,
      "hit": false,
      "t": 1428.5720000000001,
      "d": 126.48814583333342,
      "v": 110
    },
    {
      "midi": 52,
      "hit": false,
      "t": 1428.5720000000001,
      "d": 141.36910416666683,
      "v": 77
    },
    {
      "midi": 64,
      "hit": false,
      "t": 1785.7150000000004,
      "d": 133.928625,
      "v": 105
    },
    {
      "midi": 68,
      "hit": false,
      "t": 1785.7150000000004,
      "d": 148.80958333333342,
      "v": 110
    },
    {
      "midi": 68,
      "hit": false,
      "t": 2857.1440000000002,
      "d": 193.4524583333332,
      "v": 112
    },
    {
      "midi": 76,
      "hit": false,
      "t": 2857.1440000000002,
      "d": 200.8929374999998,
      "v": 105
    },
    {
      "midi": 68,
      "hit": false,
      "t": 3214.2870000000003,
      "d": 141.3691041666666,
      "v": 106
    },
    {
      "midi": 76,
      "hit": false,
      "t": 3214.2870000000003,
      "d": 156.25006249999979,
      "v": 105
    },
    {
      "midi": 80,
      "hit": false,
      "t": 4285.716,
      "d": 171.13102083333342,
      "v": 106
    },
    {
      "midi": 71,
      "hit": false,
      "t": 4285.716,
      "d": 178.57150000000001,
      "v": 90
    },
    {
      "midi": 80,
      "hit": false,
      "t": 4642.859,
      "d": 156.25006250000024,
      "v": 106
    },
    {
      "midi": 71,
      "hit": false,
      "t": 4642.859,
      "d": 215.77389583333388,
      "v": 100
    },
    {
      "midi": 68,
      "hit": false,
      "t": 5714.2880000000005,
      "d": 171.13102083333342,
      "v": 106
    },
    {
      "midi": 76,
      "hit": false,
      "t": 5714.2880000000005,
      "d": 178.57150000000001,
      "v": 105
    },
    {
      "midi": 76,
      "hit": false,
      "t": 6071.4310000000005,
      "d": 193.4524583333332,
      "v": 100
    },
    {
      "midi": 68,
      "hit": false,
      "t": 6071.4310000000005,
      "d": 312.50012499999957,
      "v": 101
    },
    {
      "midi": 64,
      "hit": false,
      "t": 7142.860000000001,
      "d": 171.13102083333342,
      "v": 100
    },
    {
      "midi": 71,
      "hit": false,
      "t": 7142.860000000001,
      "d": 186.0119791666666,
      "v": 105
    },
    {
      "midi": 64,
      "hit": false,
      "t": 7500.003000000001,
      "d": 193.4524583333332,
      "v": 105
    },
    {
      "midi": 71,
      "hit": false,
      "t": 7500.003000000001,
      "d": 230.65485416666615,
      "v": 109
    },
    {
      "midi": 59,
      "hit": false,
      "t": 8571.432,
      "d": 186.01197916666752,
      "v": 90
    },
    {
      "midi": 68,
      "hit": false,
      "t": 8571.432,
      "d": 186.01197916666752,
      "v": 106
    },
    {
      "midi": 59,
      "hit": false,
      "t": 8928.575,
      "d": 215.77389583333388,
      "v": 95
    },
    {
      "midi": 68,
      "hit": false,
      "t": 8928.575,
      "d": 230.65485416666706,
      "v": 101
    },
    {
      "midi": 69,
      "hit": false,
      "t": 9642.861,
      "d": 208.33341666666638,
      "v": 100
    },
    {
      "midi": 56,
      "hit": false,
      "t": 10000.004,
      "d": 1153.2742708333335,
      "v": 106
    },
    {
      "midi": 52,
      "hit": false,
      "t": 10000.004,
      "d": 1428.5720000000001,
      "v": 85
    },
    {
      "midi": 85,
      "hit": false,
      "t": 10000.004,
      "d": 104.1667083333341,
      "v": 112
    },
    {
      "midi": 83,
      "hit": false,
      "t": 10178.5755,
      "d": 119.04766666666728,
      "v": 112
    },
    {
      "midi": 80,
      "hit": false,
      "t": 10357.147,
      "d": 119.04766666666728,
      "v": 112
    },
    {
      "midi": 76,
      "hit": false,
      "t": 10535.7185,
      "d": 111.60718749999978,
      "v": 112
    },
    {
      "midi": 81,
      "hit": false,
      "t": 10714.29,
      "d": 119.04766666666728,
      "v": 112
    },
    {
      "midi": 80,
      "hit": false,
      "t": 10892.8615,
      "d": 111.60718749999978,
      "v": 112
    },
    {
      "midi": 76,
      "hit": false,
      "t": 11071.433,
      "d": 133.92862500000047,
      "v": 112
    },
    {
      "midi": 71,
      "hit": false,
      "t": 11250.004500000001,
      "d": 119.04766666666728,
      "v": 112
    },
    {
      "midi": 56,
      "hit": false,
      "t": 11428.576000000001,
      "d": 781.2503125000003,
      "v": 101
    },
    {
      "midi": 64,
      "hit": false,
      "t": 11428.576000000001,
      "d": 959.8218125000003,
      "v": 105
    },
    {
      "midi": 78,
      "hit": false,
      "t": 11428.576000000001,
      "d": 126.48814583333296,
      "v": 112
    },
    {
      "midi": 76,
      "hit": false,
      "t": 11607.147500000001,
      "d": 148.80958333333365,
      "v": 112
    },
    {
      "midi": 71,
      "hit": false,
      "t": 11785.719000000001,
      "d": 126.48814583333296,
      "v": 112
    },
    {
      "midi": 68,
      "hit": false,
      "t": 11964.290500000001,
      "d": 89.28575000000092,
      "v": 112
    },
    {
      "midi": 71,
      "hit": false,
      "t": 12142.862000000001,
      "d": 156.25006249999933,
      "v": 112
    },
    {
      "midi": 68,
      "hit": false,
      "t": 12321.433500000001,
      "d": 89.28575000000092,
      "v": 112
    },
    {
      "midi": 66,
      "hit": false,
      "t": 12500.005000000001,
      "d": 156.25006249999933,
      "v": 112
    },
    {
      "midi": 68,
      "hit": false,
      "t": 12678.576500000001,
      "d": 133.92862500000047,
      "v": 112
    },
    {
      "midi": 59,
      "hit": false,
      "t": 12857.148000000001,
      "d": 89.2857499999991,
      "v": 81
    },
    {
      "midi": 64,
      "hit": false,
      "t": 12857.148000000001,
      "d": 119.04766666666546,
      "v": 100
    },
    {
      "midi": 64,
      "hit": false,
      "t": 12857.148000000001,
      "d": 1034.2266041666662,
      "v": 112
    },
    {
      "midi": 59,
      "hit": false,
      "t": 13214.291,
      "d": 186.01197916666752,
      "v": 85
    },
    {
      "midi": 64,
      "hit": false,
      "t": 13214.291,
      "d": 193.45245833333502,
      "v": 100
    },
    {
      "midi": 64,
      "hit": false,
      "t": 14285.720000000001,
      "d": 148.80958333333365,
      "v": 100
    },
    {
      "midi": 68,
      "hit": false,
      "t": 14285.720000000001,
      "d": 163.69054166666683,
      "v": 106
    },
    {
      "midi": 64,
      "hit": false,
      "t": 14642.863000000001,
      "d": 171.1310208333325,
      "v": 105
    },
    {
      "midi": 68,
      "hit": false,
      "t": 14642.863000000001,
      "d": 186.0119791666657,
      "v": 106
    },
    {
      "midi": 71,
      "hit": false,
      "t": 15714.292,
      "d": 104.1667083333341,
      "v": 90
    },
    {
      "midi": 75,
      "hit": false,
      "t": 15714.292,
      "d": 104.1667083333341,
      "v": 110
    },
    {
      "midi": 71,
      "hit": false,
      "t": 16071.435,
      "d": 193.4524583333332,
      "v": 85
    },
    {
      "midi": 75,
      "hit": false,
      "t": 16071.435,
      "d": 200.8929375000007,
      "v": 110
    },
    {
      "midi": 64,
      "hit": false,
      "t": 17142.864,
      "d": 200.8929375000007,
      "v": 95
    },
    {
      "midi": 71,
      "hit": false,
      "t": 17142.864,
      "d": 200.8929375000007,
      "v": 90
    },
    {
      "midi": 52,
      "hit": false,
      "t": 17142.864,
      "d": 781.2503125000003,
      "v": 85
    },
    {
      "midi": 64,
      "hit": false,
      "t": 17500.007,
      "d": 238.09533333333457,
      "v": 85
    },
    {
      "midi": 64,
      "hit": false,
      "t": 18571.436,
      "d": 178.5714999999982,
      "v": 100
    },
    {
      "midi": 68,
      "hit": false,
      "t": 18571.436,
      "d": 186.0119791666657,
      "v": 106
    },
    {
      "midi": 64,
      "hit": false,
      "t": 18928.579,
      "d": 193.4524583333332,
      "v": 100
    },
    {
      "midi": 68,
      "hit": false,
      "t": 18928.579,
      "d": 208.3334166666682,
      "v": 106
    },
    {
      "midi": 68,
      "hit": false,
      "t": 20000.008,
      "d": 186.0119791666657,
      "v": 101
    },
    {
      "midi": 76,
      "hit": false,
      "t": 20000.008,
      "d": 186.0119791666657,
      "v": 100
    },
    {
      "midi": 68,
      "hit": false,
      "t": 20357.151,
      "d": 208.3334166666682,
      "v": 106
    },
    {
      "midi": 76,
      "hit": false,
      "t": 20357.151,
      "d": 215.7738958333357,
      "v": 95
    },
    {
      "midi": 75,
      "hit": false,
      "t": 21428.580000000005,
      "d": 156.25006249999933,
      "v": 106
    },
    {
      "midi": 71,
      "hit": false,
      "t": 21428.580000000005,
      "d": 163.69054166666683,
      "v": 105
    },
    {
      "midi": 59,
      "hit": false,
      "t": 21428.580000000005,
      "d": 200.8929375000007,
      "v": 77
    },
    {
      "midi": 75,
      "hit": false,
      "t": 21785.723000000005,
      "d": 193.4524583333332,
      "v": 106
    },
    {
      "midi": 71,
      "hit": false,
      "t": 21785.723000000005,
      "d": 200.8929375000007,
      "v": 105
    },
    {
      "midi": 64,
      "hit": false,
      "t": 22857.152000000006,
      "d": 104.1667083333341,
      "v": 90
    },
    {
      "midi": 52,
      "hit": false,
      "t": 22857.152000000006,
      "d": 111.6071875000016,
      "v": 74
    },
    {
      "midi": 68,
      "hit": false,
      "t": 22857.152000000006,
      "d": 126.4881458333366,
      "v": 101
    },
    {
      "midi": 66,
      "hit": false,
      "t": 23214.29500000001,
      "d": 14.880958333335002,
      "v": 94
    },
    {
      "midi": 64,
      "hit": false,
      "t": 23214.29500000001,
      "d": 245.53581250000207,
      "v": 105
    },
    {
      "midi": 68,
      "hit": false,
      "t": 23214.29500000001,
      "d": 245.53581250000207,
      "v": 110
    },
    {
      "midi": 52,
      "hit": false,
      "t": 23214.29500000001,
      "d": 297.6191666666673,
      "v": 77
    },
    {
      "midi": 66,
      "hit": false,
      "t": 23571.43800000001,
      "d": 223.21437499999956,
      "v": 110
    },
    {
      "midi": 69,
      "hit": false,
      "t": 23571.43800000001,
      "d": 238.09533333333457,
      "v": 109
    },
    {
      "midi": 54,
      "hit": false,
      "t": 23571.43800000001,
      "d": 372.02395833333503,
      "v": 101
    },
    {
      "midi": 68,
      "hit": false,
      "t": 23928.58100000001,
      "d": 215.7738958333357,
      "v": 110
    },
    {
      "midi": 71,
      "hit": false,
      "t": 23928.58100000001,
      "d": 238.09533333333457,
      "v": 100
    },
    {
      "midi": 56,
      "hit": false,
      "t": 23928.58100000001,
      "d": 282.73820833333593,
      "v": 94
    },
    {
      "midi": 57,
      "hit": false,
      "t": 24285.724000000013,
      "d": 349.7025208333325,
      "v": 90
    },
    {
      "midi": 69,
      "hit": false,
      "t": 24285.724000000013,
      "d": 572.9168958333321,
      "v": 105
    },
    {
      "midi": 64,
      "hit": false,
      "t": 24285.724000000013,
      "d": 1011.9051666666674,
      "v": 100
    },
    {
      "midi": 73,
      "hit": false,
      "t": 25000.010000000013,
      "d": 327.38108333333366,
      "v": 101
    },
    {
      "midi": 57,
      "hit": false,
      "t": 25000.010000000013,
      "d": 513.3930624999994,
      "v": 85
    },
    {
      "midi": 64,
      "hit": false,
      "t": 25357.153000000013,
      "d": 260.41677083333343,
      "v": 44
    },
    {
      "midi": 61,
      "hit": false,
      "t": 25357.153000000013,
      "d": 669.6431249999987,
      "v": 86
    },
    {
      "midi": 76,
      "hit": false,
      "t": 25714.296000000013,
      "d": 483.631145833333,
      "v": 95
    },
    {
      "midi": 69,
      "hit": false,
      "t": 25714.296000000013,
      "d": 572.9168958333321,
      "v": 109
    },
    {
      "midi": 57,
      "hit": false,
      "t": 26071.439000000013,
      "d": 386.9049166666664,
      "v": 90
    },
    {
      "midi": 64,
      "hit": false,
      "t": 26428.582000000013,
      "d": 119.04766666666546,
      "v": 74
    },
    {
      "midi": 61,
      "hit": false,
      "t": 26428.582000000013,
      "d": 230.65485416666343,
      "v": 86
    },
    {
      "midi": 73,
      "hit": false,
      "t": 26607.15350000001,
      "d": 111.60718749999796,
      "v": 106
    },
    {
      "midi": 69,
      "hit": false,
      "t": 26607.15350000001,
      "d": 119.04766666666546,
      "v": 105
    },
    {
      "midi": 73,
      "hit": false,
      "t": 26785.72500000001,
      "d": 29.761916666666366,
      "v": 94
    },
    {
      "midi": 69,
      "hit": false,
      "t": 26785.72500000001,
      "d": 66.96431250000023,
      "v": 95
    },
    {
      "midi": 64,
      "hit": false,
      "t": 26785.72500000001,
      "d": 252.97629166666593,
      "v": 105
    },
    {
      "midi": 64,
      "hit": false,
      "t": 27142.86800000001,
      "d": 297.6191666666673,
      "v": 105
    },
    {
      "midi": 68,
      "hit": false,
      "t": 27142.86800000001,
      "d": 461.30970833333413,
      "v": 106
    },
    {
      "midi": 52,
      "hit": false,
      "t": 27142.86800000001,
      "d": 736.6074375000026,
      "v": 74
    },
    {
      "midi": 64,
      "hit": false,
      "t": 27500.01100000001,
      "d": 186.0119791666657,
      "v": 57
    },
    {
      "midi": 59,
      "hit": false,
      "t": 27500.01100000001,
      "d": 372.02395833333503,
      "v": 71
    },
    {
      "midi": 68,
      "hit": false,
      "t": 27857.15400000001,
      "d": 14.880958333335002,
      "v": 63
    },
    {
      "midi": 64,
      "hit": false,
      "t": 27857.15400000001,
      "d": 252.97629166666957,
      "v": 105
    },
    {
      "midi": 71,
      "hit": false,
      "t": 27857.15400000001,
      "d": 312.5001250000023,
      "v": 109
    },
    {
      "midi": 59,
      "hit": false,
      "t": 28214.297000000013,
      "d": 364.58347916666753,
      "v": 61
    },
    {
      "midi": 76,
      "hit": false,
      "t": 28571.440000000013,
      "d": 424.10731250000026,
      "v": 109
    },
    {
      "midi": 68,
      "hit": false,
      "t": 28571.440000000013,
      "d": 453.8692291666666,
      "v": 106
    },
    {
      "midi": 52,
      "hit": false,
      "t": 28571.440000000013,
      "d": 811.0122291666667,
      "v": 81
    },
    {
      "midi": 59,
      "hit": false,
      "t": 28928.583000000013,
      "d": 252.97629166666593,
      "v": 77
    },
    {
      "midi": 68,
      "hit": false,
      "t": 29285.726000000013,
      "d": 111.6071875000016,
      "v": 70
    },
    {
      "midi": 59,
      "hit": false,
      "t": 29285.726000000013,
      "d": 297.6191666666673,
      "v": 81
    },
    {
      "midi": 76,
      "hit": false,
      "t": 29464.297500000015,
      "d": 119.04766666666546,
      "v": 95
    },
    {
      "midi": 68,
      "hit": false,
      "t": 29642.869000000013,
      "d": 208.3334166666682,
      "v": 101
    },
    {
      "midi": 59,
      "hit": false,
      "t": 30000.012000000013,
      "d": 550.5954583333332,
      "v": 85
    },
    {
      "midi": 71,
      "hit": false,
      "t": 30000.012000000013,
      "d": 744.0479166666664,
      "v": 109
    },
    {
      "midi": 63,
      "hit": false,
      "t": 30357.155000000013,
      "d": 133.92862500000047,
      "v": 86
    },
    {
      "midi": 63,
      "hit": false,
      "t": 30714.298000000013,
      "d": 290.1786874999998,
      "v": 78
    },
    {
      "midi": 71,
      "hit": false,
      "t": 31071.441000000013,
      "d": 297.6191666666673,
      "v": 112
    },
    {
      "midi": 59,
      "hit": false,
      "t": 31428.584000000013,
      "d": 610.119291666666,
      "v": 81
    },
    {
      "midi": 75,
      "hit": false,
      "t": 31428.584000000013,
      "d": 729.1669583333351,
      "v": 106
    },
    {
      "midi": 69,
      "hit": false,
      "t": 31428.584000000013,
      "d": 744.0479166666701,
      "v": 109
    },
    {
      "midi": 63,
      "hit": false,
      "t": 31785.727000000014,
      "d": 148.80958333333183,
      "v": 94
    },
    {
      "midi": 59,
      "hit": false,
      "t": 32142.870000000014,
      "d": 44.642875000005006,
      "v": 61
    },
    {
      "midi": 63,
      "hit": false,
      "t": 32142.870000000014,
      "d": 111.60718750000524,
      "v": 101
    },
    {
      "midi": 71,
      "hit": false,
      "t": 32321.44150000002,
      "d": 126.48814583333296,
      "v": 100
    },
    {
      "midi": 69,
      "hit": false,
      "t": 32500.013000000017,
      "d": 252.97629166666593,
      "v": 109
    },
    {
      "midi": 85,
      "hit": false,
      "t": 32857.156,
      "d": 119.04766666666546,
      "v": 102
    },
    {
      "midi": 52,
      "hit": false,
      "t": 32857.15600000002,
      "d": 803.5717500000028,
      "v": 77
    },
    {
      "midi": 83,
      "hit": false,
      "t": 33035.7275,
      "d": 111.60718749999796,
      "v": 102
    },
    {
      "midi": 80,
      "hit": false,
      "t": 33214.299,
      "d": 141.36910416666797,
      "v": 102
    },
    {
      "midi": 56,
      "hit": false,
      "t": 33214.29900000001,
      "d": 200.8929375000007,
      "v": 52
    },
    {
      "midi": 76,
      "hit": false,
      "t": 33392.8705,
      "d": 126.48814583333296,
      "v": 102
    },
    {
      "midi": 81,
      "hit": false,
      "t": 33571.441999999995,
      "d": 119.04766666666546,
      "v": 102
    },
    {
      "midi": 56,
      "hit": false,
      "t": 33571.44200000002,
      "d": 684.5240833333373,
      "v": 94
    },
    {
      "midi": 80,
      "hit": false,
      "t": 33750.013499999994,
      "d": 111.60718749999796,
      "v": 102
    },
    {
      "midi": 76,
      "hit": false,
      "t": 33928.58499999999,
      "d": 148.80958333333547,
      "v": 102
    },
    {
      "midi": 71,
      "hit": false,
      "t": 34107.1565,
      "d": 119.04766666666546,
      "v": 102
    },
    {
      "midi": 78,
      "hit": false,
      "t": 34285.727999999996,
      "d": 119.04766666666546,
      "v": 102
    },
    {
      "midi": 76,
      "hit": false,
      "t": 34464.299499999994,
      "d": 163.6905416666632,
      "v": 102
    },
    {
      "midi": 71,
      "hit": false,
      "t": 34642.87099999999,
      "d": 148.80958333333547,
      "v": 102
    },
    {
      "midi": 66,
      "hit": false,
      "t": 34642.87100000002,
      "d": 7.440479166667501,
      "v": 70
    },
    {
      "midi": 68,
      "hit": false,
      "t": 34642.87100000002,
      "d": 260.41677083333343,
      "v": 106
    },
    {
      "midi": 64,
      "hit": false,
      "t": 34642.87100000002,
      "d": 275.29772916666843,
      "v": 100
    },
    {
      "midi": 52,
      "hit": false,
      "t": 34642.87100000002,
      "d": 319.94060416666616,
      "v": 77
    },
    {
      "midi": 68,
      "hit": false,
      "t": 34821.4425,
      "d": 119.04766666666546,
      "v": 102
    },
    {
      "midi": 71,
      "hit": false,
      "t": 35000.013999999996,
      "d": 148.80958333333547,
      "v": 102
    },
    {
      "midi": 66,
      "hit": false,
      "t": 35000.01400000002,
      "d": 178.5714999999982,
      "v": 101
    },
    {
      "midi": 69,
      "hit": false,
      "t": 35000.01400000002,
      "d": 215.77389583332842,
      "v": 105
    },
    {
      "midi": 54,
      "hit": false,
      "t": 35000.01400000002,
      "d": 372.0239583333314,
      "v": 101
    },
    {
      "midi": 68,
      "hit": false,
      "t": 35178.5855,
      "d": 126.48814583333296,
      "v": 102
    },
    {
      "midi": 66,
      "hit": false,
      "t": 35357.157,
      "d": 133.92862500000047,
      "v": 102
    },
    {
      "midi": 71,
      "hit": false,
      "t": 35357.157000000014,
      "d": 230.6548541666707,
      "v": 109
    },
    {
      "midi": 56,
      "hit": false,
      "t": 35357.157000000014,
      "d": 342.26204166666867,
      "v": 101
    },
    {
      "midi": 64,
      "hit": false,
      "t": 35535.7285,
      "d": 126.48814583333296,
      "v": 102
    },
    {
      "midi": 69,
      "hit": false,
      "t": 35714.299999999996,
      "d": 654.7621666666673,
      "v": 102
    },
    {
      "midi": 57,
      "hit": false,
      "t": 35714.30000000002,
      "d": 520.8335416666669,
      "v": 77
    },
    {
      "midi": 73,
      "hit": false,
      "t": 35714.30000000002,
      "d": 610.1192916666696,
      "v": 110
    },
    {
      "midi": 57,
      "hit": false,
      "t": 36428.58600000002,
      "d": 394.3453958333339,
      "v": 95
    },
    {
      "midi": 64,
      "hit": false,
      "t": 36428.58600000002,
      "d": 498.51210416666436,
      "v": 105
    },
    {
      "midi": 61,
      "hit": false,
      "t": 36785.72900000002,
      "d": 334.8215624999939,
      "v": 86
    },
    {
      "midi": 76,
      "hit": false,
      "t": 37500.015000000014,
      "d": 267.85725000000093,
      "v": 109
    },
    {
      "midi": 69,
      "hit": false,
      "t": 37500.015000000014,
      "d": 297.61916666667094,
      "v": 105
    },
    {
      "midi": 61,
      "hit": false,
      "t": 37857.15800000002,
      "d": 141.36910416666797,
      "v": 101
    },
    {
      "midi": 64,
      "hit": false,
      "t": 38035.729500000016,
      "d": 386.9049166666664,
      "v": 95
    },
    {
      "midi": 73,
      "hit": false,
      "t": 38035.729500000016,
      "d": 424.1073124999966,
      "v": 101
    },
    {
      "midi": 64,
      "hit": false,
      "t": 38571.44400000001,
      "d": 312.50012499999866,
      "v": 112
    },
    {
      "midi": 71,
      "hit": false,
      "t": 38571.44400000001,
      "d": 461.30970833332685,
      "v": 100
    },
    {
      "midi": 52,
      "hit": false,
      "t": 38571.44400000001,
      "d": 647.3216874999998,
      "v": 77
    },
    {
      "midi": 64,
      "hit": false,
      "t": 38928.58700000001,
      "d": 133.92862500000047,
      "v": 34
    },
    {
      "midi": 59,
      "hit": false,
      "t": 38928.58700000001,
      "d": 290.17868750000343,
      "v": 61
    },
    {
      "midi": 56,
      "hit": false,
      "t": 39285.73000000001,
      "d": 267.85725000000093,
      "v": 63
    },
    {
      "midi": 59,
      "hit": false,
      "t": 39642.873000000014,
      "d": 252.97629166666593,
      "v": 90
    },
    {
      "midi": 68,
      "hit": false,
      "t": 39642.873000000014,
      "d": 290.17868749999616,
      "v": 101
    },
    {
      "midi": 52,
      "hit": false,
      "t": 40000.01600000001,
      "d": 386.90491666667367,
      "v": 65
    },
    {
      "midi": 64,
      "hit": false,
      "t": 40000.01600000001,
      "d": 550.5954583333369,
      "v": 105
    },
    {
      "midi": 59,
      "hit": false,
      "t": 40000.01600000001,
      "d": 572.9168958333394,
      "v": 90
    },
    {
      "midi": 56,
      "hit": false,
      "t": 40357.159000000014,
      "d": 349.70252083333617,
      "v": 94
    },
    {
      "midi": 59,
      "hit": false,
      "t": 40714.30200000002,
      "d": 104.16670833333046,
      "v": 59
    },
    {
      "midi": 64,
      "hit": false,
      "t": 40892.873500000016,
      "d": 200.8929375000007,
      "v": 100
    },
    {
      "midi": 68,
      "hit": false,
      "t": 40892.873500000016,
      "d": 223.2143750000032,
      "v": 110
    },
    {
      "midi": 66,
      "hit": false,
      "t": 41428.58800000002,
      "d": 290.17868750000343,
      "v": 94
    },
    {
      "midi": 75,
      "hit": false,
      "t": 41428.58800000002,
      "d": 528.2740208333344,
      "v": 106
    },
    {
      "midi": 59,
      "hit": false,
      "t": 41428.58800000002,
      "d": 848.2146250000078,
      "v": 81
    },
    {
      "midi": 63,
      "hit": false,
      "t": 41785.73100000002,
      "d": 461.30970833333413,
      "v": 94
    },
    {
      "midi": 63,
      "hit": false,
      "t": 42500.01700000003,
      "d": 260.41677083333343,
      "v": 94
    },
    {
      "midi": 71,
      "hit": false,
      "t": 42857.16000000003,
      "d": 550.5954583333296,
      "v": 109
    },
    {
      "midi": 59,
      "hit": false,
      "t": 42857.16000000003,
      "d": 706.8455208333253,
      "v": 81
    },
    {
      "midi": 63,
      "hit": false,
      "t": 43214.30300000003,
      "d": 230.65485416666343,
      "v": 86
    },
    {
      "midi": 69,
      "hit": false,
      "t": 43571.446000000025,
      "d": 491.07162499999686,
      "v": 112
    },
    {
      "midi": 52,
      "hit": false,
      "t": 44285.732000000025,
      "d": 699.4050416666723,
      "v": 77
    },
    {
      "midi": 59,
      "hit": false,
      "t": 44285.732000000025,
      "d": 773.8098333333401,
      "v": 81
    },
    {
      "midi": 68,
      "hit": false,
      "t": 44642.87500000003,
      "d": 200.8929375000007,
      "v": 106
    },
    {
      "midi": 76,
      "hit": false,
      "t": 44642.87500000003,
      "d": 230.6548541666707,
      "v": 105
    },
    {
      "midi": 69,
      "hit": false,
      "t": 45000.01800000003,
      "d": 230.65485416666343,
      "v": 105
    },
    {
      "midi": 78,
      "hit": false,
      "t": 45000.01800000003,
      "d": 252.97629166666593,
      "v": 101
    },
    {
      "midi": 71,
      "hit": false,
      "t": 45357.16100000003,
      "d": 260.41677083333343,
      "v": 100
    },
    {
      "midi": 80,
      "hit": false,
      "t": 45357.16100000003,
      "d": 260.41677083333343,
      "v": 101
    },
    {
      "midi": 81,
      "hit": false,
      "t": 45714.30400000003,
      "d": 357.1429999999964,
      "v": 90
    },
    {
      "midi": 73,
      "hit": false,
      "t": 45714.30400000003,
      "d": 409.2263541666616,
      "v": 110
    },
    {
      "midi": 57,
      "hit": false,
      "t": 45714.30400000003,
      "d": 944.9408541666635,
      "v": 95
    },
    {
      "midi": 61,
      "hit": false,
      "t": 46071.44700000003,
      "d": 260.41677083333343,
      "v": 78
    },
    {
      "midi": 61,
      "hit": false,
      "t": 46428.59000000003,
      "d": 230.65485416666343,
      "v": 94
    },
    {
      "midi": 64,
      "hit": false,
      "t": 46607.16150000003,
      "d": 14.880958333335002,
      "v": 46
    },
    {
      "midi": 73,
      "hit": false,
      "t": 46607.16150000003,
      "d": 111.60718749999796,
      "v": 106
    },
    {
      "midi": 69,
      "hit": false,
      "t": 46785.73300000003,
      "d": 267.85725000000093,
      "v": 95
    },
    {
      "midi": 64,
      "hit": false,
      "t": 47142.87600000003,
      "d": 357.1429999999964,
      "v": 95
    },
    {
      "midi": 52,
      "hit": false,
      "t": 47142.87600000003,
      "d": 818.4527083333232,
      "v": 81
    },
    {
      "midi": 59,
      "hit": false,
      "t": 47500.01900000003,
      "d": 535.7144999999946,
      "v": 74
    },
    {
      "midi": 68,
      "hit": false,
      "t": 47857.162000000026,
      "d": 52.08335416666523,
      "v": 26
    },
    {
      "midi": 76,
      "hit": false,
      "t": 48035.733500000024,
      "d": 468.75018750000163,
      "v": 100
    },
    {
      "midi": 68,
      "hit": false,
      "t": 48214.30500000002,
      "d": 260.41677083333343,
      "v": 101
    },
    {
      "midi": 66,
      "hit": false,
      "t": 48571.448000000026,
      "d": 312.50012499999866,
      "v": 94
    },
    {
      "midi": 59,
      "hit": false,
      "t": 48571.448000000026,
      "d": 781.2503125000003,
      "v": 90
    },
    {
      "midi": 63,
      "hit": false,
      "t": 48928.59100000002,
      "d": 357.14300000000367,
      "v": 106
    },
    {
      "midi": 66,
      "hit": false,
      "t": 49285.734000000026,
      "d": 156.25006250000297,
      "v": 101
    },
    {
      "midi": 75,
      "hit": false,
      "t": 49464.30550000003,
      "d": 171.1310208333307,
      "v": 106
    },
    {
      "midi": 66,
      "hit": false,
      "t": 49642.87700000003,
      "d": 141.36910416666797,
      "v": 94
    },
    {
      "midi": 68,
      "hit": false,
      "t": 50357.16300000003,
      "d": 230.65485416666343,
      "v": 110
    },
    {
      "midi": 64,
      "hit": false,
      "t": 50357.16300000003,
      "d": 245.53581249999843,
      "v": 100
    },
    {
      "midi": 52,
      "hit": false,
      "t": 50357.16300000003,
      "d": 305.05964583333116,
      "v": 71
    },
    {
      "midi": 66,
      "hit": false,
      "t": 50714.306000000026,
      "d": 193.4524583333332,
      "v": 106
    },
    {
      "midi": 69,
      "hit": false,
      "t": 50714.306000000026,
      "d": 230.65485416666343,
      "v": 109
    },
    {
      "midi": 54,
      "hit": false,
      "t": 50714.306000000026,
      "d": 327.38108333333366,
      "v": 86
    },
    {
      "midi": 68,
      "hit": false,
      "t": 51071.44900000003,
      "d": 193.4524583333332,
      "v": 101
    },
    {
      "midi": 71,
      "hit": false,
      "t": 51071.44900000003,
      "d": 230.65485416666343,
      "v": 95
    },
    {
      "midi": 56,
      "hit": false,
      "t": 51071.44900000003,
      "d": 342.2620416666614,
      "v": 106
    },
    {
      "midi": 57,
      "hit": false,
      "t": 51428.592000000026,
      "d": 446.4287499999991,
      "v": 105
    },
    {
      "midi": 73,
      "hit": false,
      "t": 51428.592000000026,
      "d": 580.3573749999996,
      "v": 110
    },
    {
      "midi": 69,
      "hit": false,
      "t": 51428.592000000026,
      "d": 602.6788125000021,
      "v": 112
    },
    {
      "midi": 69,
      "hit": false,
      "t": 52142.878000000026,
      "d": 96.72622916667024,
      "v": 23
    },
    {
      "midi": 73,
      "hit": false,
      "t": 52321.44950000003,
      "d": 409.2263541666616,
      "v": 86
    },
    {
      "midi": 64,
      "hit": false,
      "t": 52500.02100000003,
      "d": 275.29772916666116,
      "v": 85
    },
    {
      "midi": 64,
      "hit": false,
      "t": 52857.164000000026,
      "d": 275.29772916666843,
      "v": 95
    },
    {
      "midi": 71,
      "hit": false,
      "t": 52857.164000000026,
      "d": 505.95258333333913,
      "v": 105
    },
    {
      "midi": 52,
      "hit": false,
      "t": 52857.164000000026,
      "d": 714.2860000000073,
      "v": 74
    },
    {
      "midi": 64,
      "hit": false,
      "t": 53214.30700000003,
      "d": 96.72622916667024,
      "v": 34
    },
    {
      "midi": 59,
      "hit": false,
      "t": 53214.30700000003,
      "d": 513.3930624999994,
      "v": 65
    },
    {
      "midi": 64,
      "hit": false,
      "t": 53571.45000000003,
      "d": 119.04766666666546,
      "v": 105
    },
    {
      "midi": 71,
      "hit": false,
      "t": 53750.02150000003,
      "d": 141.36910416666797,
      "v": 90
    },
    {
      "midi": 68,
      "hit": false,
      "t": 53928.59300000003,
      "d": 104.16670833333046,
      "v": 106
    },
    {
      "midi": 66,
      "hit": false,
      "t": 54285.736000000026,
      "d": 275.29772916666843,
      "v": 94
    },
    {
      "midi": 75,
      "hit": false,
      "t": 54285.736000000026,
      "d": 468.75018750000163,
      "v": 101
    },
    {
      "midi": 59,
      "hit": false,
      "t": 54285.736000000026,
      "d": 729.1669583333351,
      "v": 85
    },
    {
      "midi": 63,
      "hit": false,
      "t": 54642.87900000003,
      "d": 357.1429999999964,
      "v": 94
    },
    {
      "midi": 66,
      "hit": false,
      "t": 55000.022000000026,
      "d": 238.0953333333382,
      "v": 101
    },
    {
      "midi": 71,
      "hit": false,
      "t": 55000.022000000026,
      "d": 342.26204166666867,
      "v": 100
    },
    {
      "midi": 66,
      "hit": false,
      "t": 55357.16500000003,
      "d": 215.7738958333357,
      "v": 101
    },
    {
      "midi": 59,
      "hit": false,
      "t": 55714.308000000034,
      "d": 223.2143750000032,
      "v": 71
    },
    {
      "midi": 52,
      "hit": false,
      "t": 55714.308000000034,
      "d": 260.41677083333343,
      "v": 74
    },
    {
      "midi": 68,
      "hit": false,
      "t": 56071.45100000004,
      "d": 215.7738958333357,
      "v": 106
    },
    {
      "midi": 76,
      "hit": false,
      "t": 56071.45100000004,
      "d": 252.97629166666593,
      "v": 109
    },
    {
      "midi": 52,
      "hit": false,
      "t": 56071.45100000004,
      "d": 275.29772916666843,
      "v": 81
    },
    {
      "midi": 69,
      "hit": false,
      "t": 56428.59400000004,
      "d": 245.53581249999843,
      "v": 105
    },
    {
      "midi": 78,
      "hit": false,
      "t": 56428.59400000004,
      "d": 260.41677083333343,
      "v": 110
    },
    {
      "midi": 54,
      "hit": false,
      "t": 56428.59400000004,
      "d": 305.05964583333116,
      "v": 78
    },
    {
      "midi": 71,
      "hit": false,
      "t": 56785.73700000004,
      "d": 200.8929375000007,
      "v": 95
    },
    {
      "midi": 80,
      "hit": false,
      "t": 56785.73700000004,
      "d": 238.09533333333093,
      "v": 106
    },
    {
      "midi": 56,
      "hit": false,
      "t": 56785.73700000004,
      "d": 305.05964583333116,
      "v": 94
    },
    {
      "midi": 57,
      "hit": false,
      "t": 57142.880000000034,
      "d": 357.1429999999964,
      "v": 85
    },
    {
      "midi": 81,
      "hit": false,
      "t": 57142.880000000034,
      "d": 416.6668333333291,
      "v": 95
    },
    {
      "midi": 73,
      "hit": false,
      "t": 57142.880000000034,
      "d": 424.1073124999966,
      "v": 101
    },
    {
      "midi": 73,
      "hit": false,
      "t": 57678.59450000003,
      "d": 37.20239583333023,
      "v": 34
    },
    {
      "midi": 57,
      "hit": false,
      "t": 57857.16600000003,
      "d": 282.73820833332866,
      "v": 90
    },
    {
      "midi": 76,
      "hit": false,
      "t": 58035.737500000025,
      "d": 662.2026458333276,
      "v": 100
    },
    {
      "midi": 69,
      "hit": false,
      "t": 58214.30900000002,
      "d": 312.50012499999866,
      "v": 100
    },
    {
      "midi": 52,
      "hit": false,
      "t": 58571.45200000002,
      "d": 848.2146250000005,
      "v": 81
    },
    {
      "midi": 68,
      "hit": false,
      "t": 58928.595000000016,
      "d": 37.20239583333023,
      "v": 12
    },
    {
      "midi": 59,
      "hit": false,
      "t": 58928.595000000016,
      "d": 260.41677083333343,
      "v": 77
    },
    {
      "midi": 68,
      "hit": false,
      "t": 59285.73800000002,
      "d": 74.40479166666773,
      "v": 38
    },
    {
      "midi": 59,
      "hit": false,
      "t": 59285.73800000002,
      "d": 163.69054166667047,
      "v": 68
    },
    {
      "midi": 76,
      "hit": false,
      "t": 59464.309500000025,
      "d": 476.19066666666185,
      "v": 105
    },
    {
      "midi": 71,
      "hit": false,
      "t": 59642.88100000002,
      "d": 342.2620416666614,
      "v": 81
    },
    {
      "midi": 66,
      "hit": false,
      "t": 60000.02400000002,
      "d": 297.61916666666366,
      "v": 78
    },
    {
      "midi": 59,
      "hit": false,
      "t": 60000.02400000002,
      "d": 811.012229166663,
      "v": 90
    },
    {
      "midi": 63,
      "hit": false,
      "t": 60357.167000000016,
      "d": 238.09533333333093,
      "v": 101
    },
    {
      "midi": 66,
      "hit": false,
      "t": 60714.31000000001,
      "d": 74.40479166666773,
      "v": 52
    },
    {
      "midi": 63,
      "hit": false,
      "t": 60714.31000000001,
      "d": 111.60718750000524,
      "v": 101
    },
    {
      "midi": 75,
      "hit": false,
      "t": 60892.88150000002,
      "d": 468.75018749999435,
      "v": 110
    },
    {
      "midi": 66,
      "hit": false,
      "t": 61071.453000000016,
      "d": 44.64287499999773,
      "v": 43
    },
    {
      "midi": 71,
      "hit": false,
      "t": 61071.453000000016,
      "d": 290.17868749999616,
      "v": 74
    },
    {
      "midi": 52,
      "hit": false,
      "t": 61428.59600000001,
      "d": 238.09533333333093,
      "v": 68
    },
    {
      "midi": 66,
      "hit": false,
      "t": 61785.73900000001,
      "d": 7.440479166667501,
      "v": 63
    },
    {
      "midi": 64,
      "hit": false,
      "t": 61785.73900000001,
      "d": 260.41677083333343,
      "v": 105
    },
    {
      "midi": 68,
      "hit": false,
      "t": 61785.73900000001,
      "d": 267.85725000000093,
      "v": 110
    },
    {
      "midi": 66,
      "hit": false,
      "t": 62142.88200000001,
      "d": 223.2143750000032,
      "v": 101
    },
    {
      "midi": 69,
      "hit": false,
      "t": 62142.88200000001,
      "d": 260.41677083333343,
      "v": 100
    },
    {
      "midi": 68,
      "hit": false,
      "t": 62500.025000000016,
      "d": 252.97629166666593,
      "v": 110
    },
    {
      "midi": 71,
      "hit": false,
      "t": 62500.025000000016,
      "d": 282.73820833333593,
      "v": 109
    },
    {
      "midi": 57,
      "hit": false,
      "t": 62857.16800000002,
      "d": 632.4407291666575,
      "v": 90
    },
    {
      "midi": 73,
      "hit": false,
      "t": 62857.16800000002,
      "d": 788.6907916666605,
      "v": 110
    },
    {
      "midi": 69,
      "hit": false,
      "t": 62857.16800000002,
      "d": 803.5717499999955,
      "v": 105
    },
    {
      "midi": 61,
      "hit": false,
      "t": 63214.311000000016,
      "d": 171.1310208333307,
      "v": 101
    },
    {
      "midi": 61,
      "hit": false,
      "t": 63571.45400000001,
      "d": 245.5358125000057,
      "v": 101
    },
    {
      "midi": 64,
      "hit": false,
      "t": 63750.02550000002,
      "d": 461.30970833333413,
      "v": 95
    },
    {
      "midi": 73,
      "hit": false,
      "t": 63928.597000000016,
      "d": 305.05964583333844,
      "v": 101
    },
    {
      "midi": 64,
      "hit": false,
      "t": 64285.74000000002,
      "d": 498.51210416666436,
      "v": 85
    },
    {
      "midi": 71,
      "hit": false,
      "t": 64285.74000000002,
      "d": 535.7144999999946,
      "v": 95
    },
    {
      "midi": 52,
      "hit": false,
      "t": 64285.74000000002,
      "d": 691.9645624999976,
      "v": 81
    },
    {
      "midi": 59,
      "hit": false,
      "t": 64642.883000000016,
      "d": 327.38108333333366,
      "v": 77
    },
    {
      "midi": 59,
      "hit": false,
      "t": 65000.02600000002,
      "d": 104.16670833333046,
      "v": 32
    },
    {
      "midi": 64,
      "hit": false,
      "t": 65000.02600000002,
      "d": 133.92862500000047,
      "v": 100
    },
    {
      "midi": 71,
      "hit": false,
      "t": 65178.59750000002,
      "d": 163.6905416666632,
      "v": 100
    },
    {
      "midi": 66,
      "hit": false,
      "t": 65714.31200000002,
      "d": 483.63114583333663,
      "v": 101
    },
    {
      "midi": 75,
      "hit": false,
      "t": 65714.31200000002,
      "d": 572.9168958333321,
      "v": 110
    },
    {
      "midi": 59,
      "hit": false,
      "t": 65714.31200000002,
      "d": 1086.3099583333242,
      "v": 85
    },
    {
      "midi": 63,
      "hit": false,
      "t": 66071.45500000002,
      "d": 334.82156250000116,
      "v": 101
    },
    {
      "midi": 71,
      "hit": false,
      "t": 66428.59800000001,
      "d": 342.2620416666614,
      "v": 105
    },
    {
      "midi": 63,
      "hit": false,
      "t": 66785.74100000001,
      "d": 59.52383333334001,
      "v": 101
    },
    {
      "midi": 66,
      "hit": false,
      "t": 66785.74100000001,
      "d": 133.92862500000047,
      "v": 110
    },
    {
      "midi": 64,
      "hit": false,
      "t": 67142.884,
      "d": 89.28574999999546,
      "v": 95
    },
    {
      "midi": 68,
      "hit": false,
      "t": 67142.884,
      "d": 126.48814583332569,
      "v": 110
    },
    {
      "midi": 52,
      "hit": false,
      "t": 67142.884,
      "d": 141.3691041666607,
      "v": 77
    },
    {
      "midi": 64,
      "hit": false,
      "t": 67500.027,
      "d": 133.92862500000047,
      "v": 105
    },
    {
      "midi": 68,
      "hit": false,
      "t": 67500.027,
      "d": 148.80958333333547,
      "v": 110
    },
    {
      "midi": 68,
      "hit": false,
      "t": 68571.456,
      "d": 193.45245833334047,
      "v": 112
    },
    {
      "midi": 76,
      "hit": false,
      "t": 68571.456,
      "d": 200.8929375000007,
      "v": 105
    },
    {
      "midi": 68,
      "hit": false,
      "t": 68928.599,
      "d": 141.3691041666607,
      "v": 106
    },
    {
      "midi": 76,
      "hit": false,
      "t": 68928.599,
      "d": 156.2500624999957,
      "v": 105
    },
    {
      "midi": 80,
      "hit": false,
      "t": 70000.02799999999,
      "d": 171.1310208333307,
      "v": 106
    },
    {
      "midi": 71,
      "hit": false,
      "t": 70000.02799999999,
      "d": 178.57149999999092,
      "v": 90
    },
    {
      "midi": 80,
      "hit": false,
      "t": 70357.17099999999,
      "d": 156.2500624999957,
      "v": 106
    },
    {
      "midi": 71,
      "hit": false,
      "t": 70357.17099999999,
      "d": 215.7738958333357,
      "v": 100
    },
    {
      "midi": 68,
      "hit": false,
      "t": 71428.59999999999,
      "d": 171.1310208333307,
      "v": 106
    },
    {
      "midi": 76,
      "hit": false,
      "t": 71428.59999999999,
      "d": 178.57149999999092,
      "v": 105
    },
    {
      "midi": 76,
      "hit": false,
      "t": 71785.74299999999,
      "d": 193.45245833334047,
      "v": 100
    },
    {
      "midi": 68,
      "hit": false,
      "t": 71785.74299999999,
      "d": 312.50012500000594,
      "v": 101
    },
    {
      "midi": 64,
      "hit": false,
      "t": 72857.17199999999,
      "d": 171.1310208333307,
      "v": 100
    },
    {
      "midi": 71,
      "hit": false,
      "t": 72857.17199999999,
      "d": 186.0119791666657,
      "v": 105
    },
    {
      "midi": 64,
      "hit": false,
      "t": 73214.31499999999,
      "d": 193.45245833334047,
      "v": 105
    },
    {
      "midi": 71,
      "hit": false,
      "t": 73214.31499999999,
      "d": 230.6548541666707,
      "v": 109
    },
    {
      "midi": 59,
      "hit": false,
      "t": 74285.74399999999,
      "d": 186.0119791666657,
      "v": 90
    },
    {
      "midi": 68,
      "hit": false,
      "t": 74285.74399999999,
      "d": 186.0119791666657,
      "v": 106
    },
    {
      "midi": 59,
      "hit": false,
      "t": 74642.88699999999,
      "d": 215.7738958333357,
      "v": 95
    },
    {
      "midi": 68,
      "hit": false,
      "t": 74642.88699999999,
      "d": 230.6548541666707,
      "v": 101
    },
    {
      "midi": 69,
      "hit": false,
      "t": 75357.173,
      "d": 208.33341666666092,
      "v": 100
    },
    {
      "midi": 56,
      "hit": false,
      "t": 75714.31599999999,
      "d": 1153.274270833339,
      "v": 106
    },
    {
      "midi": 52,
      "hit": false,
      "t": 75714.31599999999,
      "d": 1428.5720000000001,
      "v": 85
    },
    {
      "midi": 85,
      "hit": false,
      "t": 75714.31599999999,
      "d": 104.16670833333046,
      "v": 112
    },
    {
      "midi": 83,
      "hit": false,
      "t": 75892.88749999998,
      "d": 119.04766666666546,
      "v": 112
    },
    {
      "midi": 80,
      "hit": false,
      "t": 76071.45899999999,
      "d": 119.04766666666546,
      "v": 112
    },
    {
      "midi": 76,
      "hit": false,
      "t": 76250.0305,
      "d": 111.60718750000524,
      "v": 112
    },
    {
      "midi": 81,
      "hit": false,
      "t": 76428.602,
      "d": 119.04766666666546,
      "v": 112
    },
    {
      "midi": 80,
      "hit": false,
      "t": 76607.1735,
      "d": 111.60718750000524,
      "v": 112
    },
    {
      "midi": 76,
      "hit": false,
      "t": 76785.74500000001,
      "d": 133.92862500000047,
      "v": 112
    },
    {
      "midi": 71,
      "hit": false,
      "t": 76964.31650000002,
      "d": 119.04766666666546,
      "v": 112
    },
    {
      "midi": 56,
      "hit": false,
      "t": 77142.88799999999,
      "d": 781.250312499993,
      "v": 101
    },
    {
      "midi": 64,
      "hit": false,
      "t": 77142.88799999999,
      "d": 959.8218124999985,
      "v": 105
    },
    {
      "midi": 78,
      "hit": false,
      "t": 77142.88800000002,
      "d": 126.48814583334024,
      "v": 112
    },
    {
      "midi": 76,
      "hit": false,
      "t": 77321.45950000003,
      "d": 148.80958333333547,
      "v": 112
    },
    {
      "midi": 71,
      "hit": false,
      "t": 77500.03100000003,
      "d": 126.48814583334024,
      "v": 112
    },
    {
      "midi": 68,
      "hit": false,
      "t": 77678.60250000004,
      "d": 89.28574999999546,
      "v": 112
    },
    {
      "midi": 71,
      "hit": false,
      "t": 77857.17400000003,
      "d": 156.2500624999957,
      "v": 112
    },
    {
      "midi": 68,
      "hit": false,
      "t": 78035.74550000002,
      "d": 89.28574999999546,
      "v": 112
    },
    {
      "midi": 66,
      "hit": false,
      "t": 78214.31700000001,
      "d": 156.2500624999957,
      "v": 112
    },
    {
      "midi": 68,
      "hit": false,
      "t": 78392.8885,
      "d": 133.92862500000047,
      "v": 112
    },
    {
      "midi": 59,
      "hit": false,
      "t": 78571.45999999999,
      "d": 89.28574999999546,
      "v": 81
    },
    {
      "midi": 64,
      "hit": false,
      "t": 78571.45999999999,
      "d": 119.04766666666546,
      "v": 100
    },
    {
      "midi": 64,
      "hit": false,
      "t": 78571.46,
      "d": 1034.2266041666735,
      "v": 112
    },
    {
      "midi": 59,
      "hit": false,
      "t": 78928.60299999999,
      "d": 186.0119791666657,
      "v": 85
    },
    {
      "midi": 64,
      "hit": false,
      "t": 78928.60299999999,
      "d": 193.45245833332592,
      "v": 100
    },
    {
      "midi": 64,
      "hit": false,
      "t": 80000.03199999998,
      "d": 148.80958333333547,
      "v": 100
    },
    {
      "midi": 68,
      "hit": false,
      "t": 80000.03199999998,
      "d": 163.69054166667047,
      "v": 106
    },
    {
      "midi": 64,
      "hit": false,
      "t": 80357.17499999999,
      "d": 171.1310208333307,
      "v": 105
    },
    {
      "midi": 68,
      "hit": false,
      "t": 80357.17499999999,
      "d": 186.0119791666657,
      "v": 106
    },
    {
      "midi": 71,
      "hit": false,
      "t": 81428.60399999999,
      "d": 96.72622916667024,
      "v": 85
    },
    {
      "midi": 75,
      "hit": false,
      "t": 81428.60399999999,
      "d": 96.72622916667024,
      "v": 110
    },
    {
      "midi": 71,
      "hit": false,
      "t": 81785.74699999999,
      "d": 223.21437499999593,
      "v": 85
    },
    {
      "midi": 75,
      "hit": false,
      "t": 81785.74699999999,
      "d": 223.21437499999593,
      "v": 110
    },
    {
      "midi": 64,
      "hit": false,
      "t": 82857.17599999998,
      "d": 200.8929375000007,
      "v": 95
    },
    {
      "midi": 71,
      "hit": false,
      "t": 82857.17599999998,
      "d": 200.8929375000007,
      "v": 90
    },
    {
      "midi": 52,
      "hit": false,
      "t": 82857.17599999998,
      "d": 781.250312499993,
      "v": 85
    },
    {
      "midi": 64,
      "hit": false,
      "t": 83214.31899999997,
      "d": 238.09533333333093,
      "v": 85
    },
    {
      "midi": 64,
      "hit": false,
      "t": 84285.74799999998,
      "d": 178.57150000000547,
      "v": 100
    },
    {
      "midi": 68,
      "hit": false,
      "t": 84285.74799999998,
      "d": 186.0119791666657,
      "v": 106
    },
    {
      "midi": 64,
      "hit": false,
      "t": 84642.89099999997,
      "d": 193.45245833334047,
      "v": 100
    },
    {
      "midi": 68,
      "hit": false,
      "t": 84642.89099999997,
      "d": 208.33341666667548,
      "v": 106
    },
    {
      "midi": 68,
      "hit": false,
      "t": 85714.31999999998,
      "d": 186.0119791666657,
      "v": 101
    },
    {
      "midi": 76,
      "hit": false,
      "t": 85714.31999999998,
      "d": 186.0119791666657,
      "v": 100
    },
    {
      "midi": 68,
      "hit": false,
      "t": 86071.46299999997,
      "d": 208.33341666666092,
      "v": 106
    },
    {
      "midi": 76,
      "hit": false,
      "t": 86071.46299999997,
      "d": 215.77389583332115,
      "v": 95
    },
    {
      "midi": 75,
      "hit": false,
      "t": 87142.89199999996,
      "d": 156.2500624999957,
      "v": 106
    },
    {
      "midi": 71,
      "hit": false,
      "t": 87142.89199999996,
      "d": 163.69054166665592,
      "v": 105
    },
    {
      "midi": 59,
      "hit": false,
      "t": 87142.89199999996,
      "d": 200.89293749998615,
      "v": 77
    },
    {
      "midi": 75,
      "hit": false,
      "t": 87500.03499999995,
      "d": 193.45245833334047,
      "v": 106
    },
    {
      "midi": 71,
      "hit": false,
      "t": 87500.03499999995,
      "d": 200.8929375000007,
      "v": 105
    },
    {
      "midi": 64,
      "hit": false,
      "t": 88571.46399999995,
      "d": 104.16670833333046,
      "v": 90
    },
    {
      "midi": 52,
      "hit": false,
      "t": 88571.46399999995,
      "d": 111.60718749999069,
      "v": 74
    },
    {
      "midi": 68,
      "hit": false,
      "t": 88571.46399999995,
      "d": 126.48814583332569,
      "v": 101
    },
    {
      "midi": 66,
      "hit": false,
      "t": 88928.60699999995,
      "d": 14.880958333335002,
      "v": 94
    },
    {
      "midi": 64,
      "hit": false,
      "t": 88928.60699999995,
      "d": 245.5358125000057,
      "v": 105
    },
    {
      "midi": 68,
      "hit": false,
      "t": 88928.60699999995,
      "d": 245.5358125000057,
      "v": 110
    },
    {
      "midi": 52,
      "hit": false,
      "t": 88928.60699999995,
      "d": 297.61916666667094,
      "v": 77
    },
    {
      "midi": 66,
      "hit": false,
      "t": 89285.74999999996,
      "d": 223.21437499999593,
      "v": 110
    },
    {
      "midi": 69,
      "hit": false,
      "t": 89285.74999999996,
      "d": 238.09533333333093,
      "v": 109
    },
    {
      "midi": 54,
      "hit": false,
      "t": 89285.74999999996,
      "d": 372.0239583333314,
      "v": 101
    },
    {
      "midi": 68,
      "hit": false,
      "t": 89642.89299999995,
      "d": 215.7738958333357,
      "v": 110
    },
    {
      "midi": 71,
      "hit": false,
      "t": 89642.89299999995,
      "d": 238.09533333333093,
      "v": 100
    },
    {
      "midi": 56,
      "hit": false,
      "t": 89642.89299999995,
      "d": 282.73820833333593,
      "v": 94
    },
    {
      "midi": 57,
      "hit": false,
      "t": 90000.03599999995,
      "d": 349.70252083333617,
      "v": 90
    },
    {
      "midi": 69,
      "hit": false,
      "t": 90000.03599999995,
      "d": 572.9168958333321,
      "v": 105
    },
    {
      "midi": 64,
      "hit": false,
      "t": 90000.03599999995,
      "d": 1011.9051666666637,
      "v": 100
    },
    {
      "midi": 73,
      "hit": false,
      "t": 90714.32199999994,
      "d": 327.38108333334094,
      "v": 101
    },
    {
      "midi": 57,
      "hit": false,
      "t": 90714.32199999994,
      "d": 513.3930625000066,
      "v": 85
    },
    {
      "midi": 64,
      "hit": false,
      "t": 91071.46499999995,
      "d": 260.41677083332615,
      "v": 44
    },
    {
      "midi": 61,
      "hit": false,
      "t": 91071.46499999995,
      "d": 669.6431250000023,
      "v": 86
    },
    {
      "midi": 76,
      "hit": false,
      "t": 91428.60799999995,
      "d": 483.6311458333512,
      "v": 95
    },
    {
      "midi": 69,
      "hit": false,
      "t": 91428.60799999995,
      "d": 572.9168958333466,
      "v": 109
    },
    {
      "midi": 57,
      "hit": false,
      "t": 91785.75099999996,
      "d": 386.9049166666664,
      "v": 90
    },
    {
      "midi": 64,
      "hit": false,
      "t": 92142.89399999996,
      "d": 119.04766666666546,
      "v": 74
    },
    {
      "midi": 61,
      "hit": false,
      "t": 92142.89399999996,
      "d": 230.6548541666707,
      "v": 86
    },
    {
      "midi": 73,
      "hit": false,
      "t": 92321.46549999996,
      "d": 111.60718750000524,
      "v": 106
    },
    {
      "midi": 69,
      "hit": false,
      "t": 92321.46549999996,
      "d": 119.04766666666546,
      "v": 105
    },
    {
      "midi": 73,
      "hit": false,
      "t": 92500.03699999997,
      "d": 29.761916666670004,
      "v": 94
    },
    {
      "midi": 69,
      "hit": false,
      "t": 92500.03699999997,
      "d": 66.96431250000023,
      "v": 95
    },
    {
      "midi": 64,
      "hit": false,
      "t": 92500.03699999997,
      "d": 252.97629166666593,
      "v": 105
    },
    {
      "midi": 64,
      "hit": false,
      "t": 92857.17999999996,
      "d": 297.61916666667094,
      "v": 105
    },
    {
      "midi": 68,
      "hit": false,
      "t": 92857.17999999996,
      "d": 461.3097083333414,
      "v": 106
    },
    {
      "midi": 52,
      "hit": false,
      "t": 92857.17999999996,
      "d": 736.6074375000026,
      "v": 74
    },
    {
      "midi": 64,
      "hit": false,
      "t": 93214.32299999997,
      "d": 186.0119791666657,
      "v": 57
    },
    {
      "midi": 59,
      "hit": false,
      "t": 93214.32299999997,
      "d": 372.0239583333314,
      "v": 71
    },
    {
      "midi": 68,
      "hit": false,
      "t": 93571.46599999997,
      "d": 14.880958333335002,
      "v": 63
    },
    {
      "midi": 64,
      "hit": false,
      "t": 93571.46599999997,
      "d": 252.97629166666593,
      "v": 105
    },
    {
      "midi": 71,
      "hit": false,
      "t": 93571.46599999997,
      "d": 312.50012500000594,
      "v": 109
    },
    {
      "midi": 59,
      "hit": false,
      "t": 93928.60899999998,
      "d": 364.5834791666566,
      "v": 61
    },
    {
      "midi": 76,
      "hit": false,
      "t": 94285.75199999998,
      "d": 424.1073124999966,
      "v": 109
    },
    {
      "midi": 68,
      "hit": false,
      "t": 94285.75199999998,
      "d": 453.8692291666666,
      "v": 106
    },
    {
      "midi": 52,
      "hit": false,
      "t": 94285.75199999998,
      "d": 811.012229166663,
      "v": 81
    },
    {
      "midi": 59,
      "hit": false,
      "t": 94642.89499999997,
      "d": 252.97629166666593,
      "v": 77
    },
    {
      "midi": 68,
      "hit": false,
      "t": 95000.03799999997,
      "d": 111.60718750000524,
      "v": 70
    },
    {
      "midi": 59,
      "hit": false,
      "t": 95000.03799999997,
      "d": 297.61916666667094,
      "v": 81
    },
    {
      "midi": 76,
      "hit": false,
      "t": 95178.60949999998,
      "d": 119.04766666666546,
      "v": 95
    },
    {
      "midi": 68,
      "hit": false,
      "t": 95357.18099999998,
      "d": 208.33341666666092,
      "v": 101
    },
    {
      "midi": 59,
      "hit": false,
      "t": 95714.32399999998,
      "d": 550.5954583333369,
      "v": 85
    },
    {
      "midi": 71,
      "hit": false,
      "t": 95714.32399999998,
      "d": 744.0479166666773,
      "v": 109
    },
    {
      "midi": 63,
      "hit": false,
      "t": 96071.46699999998,
      "d": 133.92862500000047,
      "v": 86
    },
    {
      "midi": 63,
      "hit": false,
      "t": 96428.60999999999,
      "d": 290.17868749999616,
      "v": 78
    },
    {
      "midi": 71,
      "hit": false,
      "t": 96785.75299999998,
      "d": 297.61916666667094,
      "v": 112
    },
    {
      "midi": 59,
      "hit": false,
      "t": 97142.896,
      "d": 610.1192916666623,
      "v": 81
    },
    {
      "midi": 75,
      "hit": false,
      "t": 97142.896,
      "d": 729.1669583333278,
      "v": 106
    },
    {
      "midi": 69,
      "hit": false,
      "t": 97142.896,
      "d": 744.0479166666628,
      "v": 109
    },
    {
      "midi": 63,
      "hit": false,
      "t": 97500.03899999999,
      "d": 148.80958333333547,
      "v": 94
    },
    {
      "midi": 59,
      "hit": false,
      "t": 97857.18199999999,
      "d": 44.642875000005006,
      "v": 61
    },
    {
      "midi": 63,
      "hit": false,
      "t": 97857.18199999999,
      "d": 111.60718750000524,
      "v": 101
    },
    {
      "midi": 71,
      "hit": false,
      "t": 98035.75349999999,
      "d": 126.48814583334024,
      "v": 100
    },
    {
      "midi": 69,
      "hit": false,
      "t": 98214.325,
      "d": 252.97629166666593,
      "v": 109
    },
    {
      "midi": 52,
      "hit": false,
      "t": 98571.468,
      "d": 803.5717499999882,
      "v": 77
    },
    {
      "midi": 85,
      "hit": false,
      "t": 98571.46800000001,
      "d": 119.04766666666546,
      "v": 102
    },
    {
      "midi": 83,
      "hit": false,
      "t": 98750.03950000001,
      "d": 111.60718750000524,
      "v": 102
    },
    {
      "midi": 56,
      "hit": false,
      "t": 98928.61099999999,
      "d": 200.8929375000007,
      "v": 52
    },
    {
      "midi": 80,
      "hit": false,
      "t": 98928.61100000002,
      "d": 141.3691041666607,
      "v": 102
    },
    {
      "midi": 76,
      "hit": false,
      "t": 99107.18250000001,
      "d": 126.48814583334024,
      "v": 102
    },
    {
      "midi": 56,
      "hit": false,
      "t": 99285.75399999999,
      "d": 684.5240833333228,
      "v": 94
    },
    {
      "midi": 81,
      "hit": false,
      "t": 99285.75400000002,
      "d": 119.04766666666546,
      "v": 102
    },
    {
      "midi": 80,
      "hit": false,
      "t": 99464.32550000002,
      "d": 111.60718750000524,
      "v": 102
    },
    {
      "midi": 76,
      "hit": false,
      "t": 99642.89700000003,
      "d": 148.80958333333547,
      "v": 102
    },
    {
      "midi": 71,
      "hit": false,
      "t": 99821.46850000003,
      "d": 119.04766666666546,
      "v": 102
    },
    {
      "midi": 78,
      "hit": false,
      "t": 100000.04000000004,
      "d": 119.04766666666546,
      "v": 102
    },
    {
      "midi": 76,
      "hit": false,
      "t": 100178.61150000004,
      "d": 163.69054166667047,
      "v": 102
    },
    {
      "midi": 66,
      "hit": false,
      "t": 100357.18299999998,
      "d": 7.440479166660225,
      "v": 70
    },
    {
      "midi": 68,
      "hit": false,
      "t": 100357.18299999998,
      "d": 260.41677083332615,
      "v": 106
    },
    {
      "midi": 64,
      "hit": false,
      "t": 100357.18299999998,
      "d": 275.29772916666116,
      "v": 100
    },
    {
      "midi": 52,
      "hit": false,
      "t": 100357.18299999998,
      "d": 319.94060416666616,
      "v": 77
    },
    {
      "midi": 71,
      "hit": false,
      "t": 100357.18300000005,
      "d": 148.80958333333547,
      "v": 102
    },
    {
      "midi": 68,
      "hit": false,
      "t": 100535.75450000005,
      "d": 119.04766666666546,
      "v": 102
    },
    {
      "midi": 66,
      "hit": false,
      "t": 100714.32599999997,
      "d": 178.57150000000547,
      "v": 101
    },
    {
      "midi": 69,
      "hit": false,
      "t": 100714.32599999997,
      "d": 215.7738958333357,
      "v": 105
    },
    {
      "midi": 54,
      "hit": false,
      "t": 100714.32599999997,
      "d": 372.0239583333314,
      "v": 101
    },
    {
      "midi": 71,
      "hit": false,
      "t": 100714.32600000006,
      "d": 148.80958333333547,
      "v": 102
    },
    {
      "midi": 68,
      "hit": false,
      "t": 100892.89750000006,
      "d": 126.48814583334024,
      "v": 102
    },
    {
      "midi": 71,
      "hit": false,
      "t": 101071.46899999997,
      "d": 230.6548541666707,
      "v": 109
    },
    {
      "midi": 56,
      "hit": false,
      "t": 101071.46899999997,
      "d": 342.26204166667594,
      "v": 101
    },
    {
      "midi": 66,
      "hit": false,
      "t": 101071.46900000007,
      "d": 133.92862500000047,
      "v": 102
    },
    {
      "midi": 64,
      "hit": false,
      "t": 101250.04050000008,
      "d": 126.48814583334024,
      "v": 102
    },
    {
      "midi": 57,
      "hit": false,
      "t": 101428.61199999998,
      "d": 520.8335416666669,
      "v": 77
    },
    {
      "midi": 73,
      "hit": false,
      "t": 101428.61199999998,
      "d": 610.1192916666623,
      "v": 110
    },
    {
      "midi": 69,
      "hit": false,
      "t": 101428.61200000008,
      "d": 654.7621666666673,
      "v": 102
    },
    {
      "midi": 57,
      "hit": false,
      "t": 102142.89799999997,
      "d": 394.3453958333266,
      "v": 95
    },
    {
      "midi": 64,
      "hit": false,
      "t": 102142.89799999997,
      "d": 498.5121041666571,
      "v": 105
    },
    {
      "midi": 61,
      "hit": false,
      "t": 102500.04099999997,
      "d": 334.82156250000116,
      "v": 86
    },
    {
      "midi": 76,
      "hit": false,
      "t": 103214.32699999998,
      "d": 267.85725000000093,
      "v": 109
    },
    {
      "midi": 69,
      "hit": false,
      "t": 103214.32699999998,
      "d": 297.61916666667094,
      "v": 105
    },
    {
      "midi": 61,
      "hit": false,
      "t": 103571.46999999999,
      "d": 141.3691041666607,
      "v": 101
    },
    {
      "midi": 64,
      "hit": false,
      "t": 103750.04149999998,
      "d": 386.9049166666664,
      "v": 95
    },
    {
      "midi": 73,
      "hit": false,
      "t": 103750.04149999998,
      "d": 424.1073124999966,
      "v": 101
    },
    {
      "midi": 64,
      "hit": false,
      "t": 104285.75599999998,
      "d": 312.50012500000594,
      "v": 112
    },
    {
      "midi": 71,
      "hit": false,
      "t": 104285.75599999998,
      "d": 461.3097083333414,
      "v": 100
    },
    {
      "midi": 52,
      "hit": false,
      "t": 104285.75599999998,
      "d": 647.3216875000071,
      "v": 77
    },
    {
      "midi": 64,
      "hit": false,
      "t": 104642.89899999999,
      "d": 133.92862500000047,
      "v": 34
    },
    {
      "midi": 59,
      "hit": false,
      "t": 104642.89899999999,
      "d": 290.17868749999616,
      "v": 61
    },
    {
      "midi": 56,
      "hit": false,
      "t": 105000.04199999999,
      "d": 267.85725000000093,
      "v": 63
    },
    {
      "midi": 59,
      "hit": false,
      "t": 105357.18499999998,
      "d": 252.97629166666593,
      "v": 90
    },
    {
      "midi": 68,
      "hit": false,
      "t": 105357.18499999998,
      "d": 290.17868749999616,
      "v": 101
    },
    {
      "midi": 52,
      "hit": false,
      "t": 105714.32799999998,
      "d": 386.9049166666664,
      "v": 65
    },
    {
      "midi": 64,
      "hit": false,
      "t": 105714.32799999998,
      "d": 550.5954583333369,
      "v": 105
    },
    {
      "midi": 59,
      "hit": false,
      "t": 105714.32799999998,
      "d": 572.9168958333321,
      "v": 90
    },
    {
      "midi": 56,
      "hit": false,
      "t": 106071.47099999998,
      "d": 349.70252083333617,
      "v": 94
    },
    {
      "midi": 59,
      "hit": false,
      "t": 106428.61399999997,
      "d": 104.16670833333046,
      "v": 59
    },
    {
      "midi": 64,
      "hit": false,
      "t": 106607.18549999996,
      "d": 200.8929375000007,
      "v": 100
    },
    {
      "midi": 68,
      "hit": false,
      "t": 106607.18549999996,
      "d": 223.21437499999593,
      "v": 110
    },
    {
      "midi": 66,
      "hit": false,
      "t": 107142.89999999997,
      "d": 290.17868749999616,
      "v": 94
    },
    {
      "midi": 75,
      "hit": false,
      "t": 107142.89999999997,
      "d": 528.2740208333271,
      "v": 106
    },
    {
      "midi": 59,
      "hit": false,
      "t": 107142.89999999997,
      "d": 848.2146249999932,
      "v": 81
    },
    {
      "midi": 63,
      "hit": false,
      "t": 107500.04299999996,
      "d": 461.30970833332685,
      "v": 94
    },
    {
      "midi": 63,
      "hit": false,
      "t": 108214.32899999995,
      "d": 260.41677083332615,
      "v": 94
    },
    {
      "midi": 71,
      "hit": false,
      "t": 108571.47199999995,
      "d": 550.5954583333369,
      "v": 109
    },
    {
      "midi": 59,
      "hit": false,
      "t": 108571.47199999995,
      "d": 706.8455208333326,
      "v": 81
    },
    {
      "midi": 63,
      "hit": false,
      "t": 108928.61499999995,
      "d": 230.6548541666707,
      "v": 86
    },
    {
      "midi": 69,
      "hit": false,
      "t": 109285.75799999994,
      "d": 491.07162499999686,
      "v": 112
    },
    {
      "midi": 52,
      "hit": false,
      "t": 110000.04399999994,
      "d": 699.4050416666723,
      "v": 77
    },
    {
      "midi": 59,
      "hit": false,
      "t": 110000.04399999994,
      "d": 773.8098333333473,
      "v": 81
    },
    {
      "midi": 68,
      "hit": false,
      "t": 110357.18699999993,
      "d": 200.8929375000007,
      "v": 106
    },
    {
      "midi": 76,
      "hit": false,
      "t": 110357.18699999993,
      "d": 230.6548541666707,
      "v": 105
    },
    {
      "midi": 69,
      "hit": false,
      "t": 110714.32999999994,
      "d": 230.6548541666707,
      "v": 105
    },
    {
      "midi": 78,
      "hit": false,
      "t": 110714.32999999994,
      "d": 252.97629166666593,
      "v": 101
    },
    {
      "midi": 71,
      "hit": false,
      "t": 111071.47299999994,
      "d": 260.41677083332615,
      "v": 100
    },
    {
      "midi": 80,
      "hit": false,
      "t": 111071.47299999994,
      "d": 260.41677083332615,
      "v": 101
    },
    {
      "midi": 81,
      "hit": false,
      "t": 111428.61599999994,
      "d": 357.1429999999964,
      "v": 90
    },
    {
      "midi": 73,
      "hit": false,
      "t": 111428.61599999994,
      "d": 409.2263541666616,
      "v": 110
    },
    {
      "midi": 57,
      "hit": false,
      "t": 111428.61599999994,
      "d": 944.9408541666635,
      "v": 95
    },
    {
      "midi": 61,
      "hit": false,
      "t": 111785.75899999993,
      "d": 260.41677083332615,
      "v": 78
    },
    {
      "midi": 61,
      "hit": false,
      "t": 112142.90199999993,
      "d": 230.6548541666707,
      "v": 94
    },
    {
      "midi": 64,
      "hit": false,
      "t": 112321.47349999993,
      "d": 14.880958333335002,
      "v": 46
    },
    {
      "midi": 73,
      "hit": false,
      "t": 112321.47349999993,
      "d": 111.60718750000524,
      "v": 106
    },
    {
      "midi": 69,
      "hit": false,
      "t": 112500.04499999994,
      "d": 267.85725000000093,
      "v": 95
    },
    {
      "midi": 64,
      "hit": false,
      "t": 112857.18799999994,
      "d": 357.1429999999964,
      "v": 95
    },
    {
      "midi": 52,
      "hit": false,
      "t": 112857.18799999994,
      "d": 818.4527083333232,
      "v": 81
    },
    {
      "midi": 59,
      "hit": false,
      "t": 113214.33099999993,
      "d": 535.7144999999873,
      "v": 74
    },
    {
      "midi": 68,
      "hit": false,
      "t": 113571.47399999993,
      "d": 52.08335416666523,
      "v": 26
    },
    {
      "midi": 76,
      "hit": false,
      "t": 113750.04549999992,
      "d": 468.75018750000163,
      "v": 100
    },
    {
      "midi": 68,
      "hit": false,
      "t": 113928.61699999993,
      "d": 260.41677083332615,
      "v": 101
    },
    {
      "midi": 66,
      "hit": false,
      "t": 114285.75999999992,
      "d": 312.50012500000594,
      "v": 94
    },
    {
      "midi": 59,
      "hit": false,
      "t": 114285.75999999992,
      "d": 781.2503125000076,
      "v": 90
    },
    {
      "midi": 63,
      "hit": false,
      "t": 114642.90299999993,
      "d": 357.1429999999964,
      "v": 106
    },
    {
      "midi": 66,
      "hit": false,
      "t": 115000.04599999993,
      "d": 156.2500624999957,
      "v": 101
    },
    {
      "midi": 75,
      "hit": false,
      "t": 115178.61749999992,
      "d": 171.1310208333307,
      "v": 106
    },
    {
      "midi": 66,
      "hit": false,
      "t": 115357.18899999991,
      "d": 141.3691041666607,
      "v": 94
    },
    {
      "midi": 68,
      "hit": false,
      "t": 116071.4749999999,
      "d": 230.6548541666707,
      "v": 110
    },
    {
      "midi": 64,
      "hit": false,
      "t": 116071.4749999999,
      "d": 245.5358125000057,
      "v": 100
    },
    {
      "midi": 52,
      "hit": false,
      "t": 116071.4749999999,
      "d": 305.0596458333457,
      "v": 71
    },
    {
      "midi": 66,
      "hit": false,
      "t": 116428.61799999991,
      "d": 193.45245833334047,
      "v": 106
    },
    {
      "midi": 69,
      "hit": false,
      "t": 116428.61799999991,
      "d": 230.6548541666707,
      "v": 109
    },
    {
      "midi": 54,
      "hit": false,
      "t": 116428.61799999991,
      "d": 327.38108333334094,
      "v": 86
    },
    {
      "midi": 68,
      "hit": false,
      "t": 116785.76099999993,
      "d": 193.45245833334047,
      "v": 101
    },
    {
      "midi": 71,
      "hit": false,
      "t": 116785.76099999993,
      "d": 230.6548541666707,
      "v": 95
    },
    {
      "midi": 56,
      "hit": false,
      "t": 116785.76099999993,
      "d": 342.26204166667594,
      "v": 106
    },
    {
      "midi": 57,
      "hit": false,
      "t": 117142.90399999994,
      "d": 446.4287500000064,
      "v": 105
    },
    {
      "midi": 73,
      "hit": false,
      "t": 117142.90399999994,
      "d": 580.3573750000069,
      "v": 110
    },
    {
      "midi": 69,
      "hit": false,
      "t": 117142.90399999994,
      "d": 602.6788125000021,
      "v": 112
    },
    {
      "midi": 69,
      "hit": false,
      "t": 117857.18999999994,
      "d": 96.72622916667024,
      "v": 23
    },
    {
      "midi": 73,
      "hit": false,
      "t": 118035.76149999995,
      "d": 409.2263541666762,
      "v": 86
    },
    {
      "midi": 64,
      "hit": false,
      "t": 118214.33299999996,
      "d": 275.2977291666757,
      "v": 85
    },
    {
      "midi": 64,
      "hit": false,
      "t": 118571.47599999997,
      "d": 275.29772916666116,
      "v": 95
    },
    {
      "midi": 71,
      "hit": false,
      "t": 118571.47599999997,
      "d": 505.95258333333186,
      "v": 105
    },
    {
      "midi": 52,
      "hit": false,
      "t": 118571.47599999997,
      "d": 714.2859999999928,
      "v": 74
    },
    {
      "midi": 64,
      "hit": false,
      "t": 118928.61899999996,
      "d": 96.72622916667024,
      "v": 34
    },
    {
      "midi": 59,
      "hit": false,
      "t": 118928.61899999996,
      "d": 513.3930624999921,
      "v": 65
    },
    {
      "midi": 64,
      "hit": false,
      "t": 119285.76199999996,
      "d": 119.04766666666546,
      "v": 105
    },
    {
      "midi": 71,
      "hit": false,
      "t": 119464.33349999995,
      "d": 141.3691041666607,
      "v": 90
    },
    {
      "midi": 68,
      "hit": false,
      "t": 119642.90499999994,
      "d": 104.16670833333046,
      "v": 106
    },
    {
      "midi": 66,
      "hit": false,
      "t": 120000.04799999994,
      "d": 275.29772916666116,
      "v": 94
    },
    {
      "midi": 75,
      "hit": false,
      "t": 120000.04799999994,
      "d": 468.75018750000163,
      "v": 101
    },
    {
      "midi": 59,
      "hit": false,
      "t": 120000.04799999994,
      "d": 729.1669583333423,
      "v": 85
    },
    {
      "midi": 63,
      "hit": false,
      "t": 120357.19099999993,
      "d": 357.14300000001094,
      "v": 94
    },
    {
      "midi": 66,
      "hit": false,
      "t": 120714.33399999994,
      "d": 238.09533333333093,
      "v": 101
    },
    {
      "midi": 71,
      "hit": false,
      "t": 120714.33399999994,
      "d": 342.2620416666614,
      "v": 100
    },
    {
      "midi": 66,
      "hit": false,
      "t": 121071.47699999994,
      "d": 215.7738958333357,
      "v": 101
    },
    {
      "midi": 59,
      "hit": false,
      "t": 121428.61999999994,
      "d": 223.21437499999593,
      "v": 71
    },
    {
      "midi": 52,
      "hit": false,
      "t": 121428.61999999994,
      "d": 260.41677083332615,
      "v": 74
    },
    {
      "midi": 68,
      "hit": false,
      "t": 121785.76299999993,
      "d": 215.7738958333357,
      "v": 106
    },
    {
      "midi": 76,
      "hit": false,
      "t": 121785.76299999993,
      "d": 252.97629166666593,
      "v": 109
    },
    {
      "midi": 52,
      "hit": false,
      "t": 121785.76299999993,
      "d": 275.29772916666116,
      "v": 81
    },
    {
      "midi": 69,
      "hit": false,
      "t": 122142.90599999993,
      "d": 245.5358125000057,
      "v": 105
    },
    {
      "midi": 78,
      "hit": false,
      "t": 122142.90599999993,
      "d": 260.4167708333407,
      "v": 110
    },
    {
      "midi": 54,
      "hit": false,
      "t": 122142.90599999993,
      "d": 305.0596458333457,
      "v": 78
    },
    {
      "midi": 71,
      "hit": false,
      "t": 122500.04899999994,
      "d": 200.8929375000007,
      "v": 95
    },
    {
      "midi": 80,
      "hit": false,
      "t": 122500.04899999994,
      "d": 238.09533333333093,
      "v": 106
    },
    {
      "midi": 56,
      "hit": false,
      "t": 122500.04899999994,
      "d": 305.05964583333116,
      "v": 94
    },
    {
      "midi": 57,
      "hit": false,
      "t": 122857.19199999994,
      "d": 357.1429999999964,
      "v": 85
    },
    {
      "midi": 81,
      "hit": false,
      "t": 122857.19199999994,
      "d": 416.6668333333364,
      "v": 95
    },
    {
      "midi": 73,
      "hit": false,
      "t": 122857.19199999994,
      "d": 424.1073124999966,
      "v": 101
    },
    {
      "midi": 73,
      "hit": false,
      "t": 123392.90649999994,
      "d": 37.20239583333023,
      "v": 34
    },
    {
      "midi": 57,
      "hit": false,
      "t": 123571.47799999993,
      "d": 282.73820833333593,
      "v": 90
    },
    {
      "midi": 76,
      "hit": false,
      "t": 123750.04949999994,
      "d": 662.2026458333421,
      "v": 100
    },
    {
      "midi": 69,
      "hit": false,
      "t": 123928.62099999993,
      "d": 312.50012500000594,
      "v": 100
    },
    {
      "midi": 52,
      "hit": false,
      "t": 124285.76399999994,
      "d": 848.2146250000078,
      "v": 81
    },
    {
      "midi": 68,
      "hit": false,
      "t": 124642.90699999995,
      "d": 37.20239583333023,
      "v": 12
    },
    {
      "midi": 59,
      "hit": false,
      "t": 124642.90699999995,
      "d": 260.41677083332615,
      "v": 77
    },
    {
      "midi": 68,
      "hit": false,
      "t": 125000.04999999994,
      "d": 74.40479166666046,
      "v": 38
    },
    {
      "midi": 59,
      "hit": false,
      "t": 125000.04999999994,
      "d": 163.69054166667047,
      "v": 68
    },
    {
      "midi": 76,
      "hit": false,
      "t": 125178.62149999995,
      "d": 476.1906666666764,
      "v": 105
    },
    {
      "midi": 71,
      "hit": false,
      "t": 125357.19299999996,
      "d": 342.26204166667594,
      "v": 81
    },
    {
      "midi": 66,
      "hit": false,
      "t": 125714.33599999997,
      "d": 297.61916666667094,
      "v": 78
    },
    {
      "midi": 59,
      "hit": false,
      "t": 125714.33599999997,
      "d": 811.012229166663,
      "v": 90
    },
    {
      "midi": 63,
      "hit": false,
      "t": 126071.47899999998,
      "d": 238.09533333333093,
      "v": 101
    },
    {
      "midi": 66,
      "hit": false,
      "t": 126428.62199999997,
      "d": 74.40479166666046,
      "v": 52
    },
    {
      "midi": 63,
      "hit": false,
      "t": 126428.62199999997,
      "d": 111.60718749999069,
      "v": 101
    },
    {
      "midi": 75,
      "hit": false,
      "t": 126607.19349999996,
      "d": 468.7501875000162,
      "v": 110
    },
    {
      "midi": 66,
      "hit": false,
      "t": 126785.76499999997,
      "d": 44.642875000005006,
      "v": 43
    },
    {
      "midi": 71,
      "hit": false,
      "t": 126785.76499999997,
      "d": 290.1786875000107,
      "v": 74
    },
    {
      "midi": 52,
      "hit": false,
      "t": 127142.90799999998,
      "d": 238.09533333333093,
      "v": 68
    },
    {
      "midi": 66,
      "hit": false,
      "t": 127500.05099999998,
      "d": 7.440479166660225,
      "v": 63
    },
    {
      "midi": 64,
      "hit": false,
      "t": 127500.05099999998,
      "d": 260.41677083332615,
      "v": 105
    },
    {
      "midi": 68,
      "hit": false,
      "t": 127500.05099999998,
      "d": 267.8572499999864,
      "v": 110
    },
    {
      "midi": 66,
      "hit": false,
      "t": 127857.19399999996,
      "d": 223.21437499999593,
      "v": 101
    },
    {
      "midi": 69,
      "hit": false,
      "t": 127857.19399999996,
      "d": 260.41677083332615,
      "v": 100
    },
    {
      "midi": 68,
      "hit": false,
      "t": 128214.33699999996,
      "d": 252.97629166666593,
      "v": 110
    },
    {
      "midi": 71,
      "hit": false,
      "t": 128214.33699999996,
      "d": 282.73820833333593,
      "v": 109
    },
    {
      "midi": 57,
      "hit": false,
      "t": 128571.47999999995,
      "d": 632.4407291666575,
      "v": 90
    },
    {
      "midi": 73,
      "hit": false,
      "t": 128571.47999999995,
      "d": 788.6907916666532,
      "v": 110
    },
    {
      "midi": 69,
      "hit": false,
      "t": 128571.47999999995,
      "d": 803.5717499999882,
      "v": 105
    },
    {
      "midi": 61,
      "hit": false,
      "t": 128928.62299999995,
      "d": 171.1310208333307,
      "v": 101
    },
    {
      "midi": 61,
      "hit": false,
      "t": 129285.76599999995,
      "d": 245.53581249999115,
      "v": 101
    },
    {
      "midi": 64,
      "hit": false,
      "t": 129464.33749999994,
      "d": 461.3097083333414,
      "v": 95
    },
    {
      "midi": 73,
      "hit": false,
      "t": 129642.90899999994,
      "d": 305.05964583333116,
      "v": 101
    },
    {
      "midi": 64,
      "hit": false,
      "t": 130000.05199999994,
      "d": 498.5121041666571,
      "v": 85
    },
    {
      "midi": 71,
      "hit": false,
      "t": 130000.05199999994,
      "d": 535.7144999999873,
      "v": 95
    },
    {
      "midi": 52,
      "hit": false,
      "t": 130000.05199999994,
      "d": 691.964562499983,
      "v": 81
    },
    {
      "midi": 59,
      "hit": false,
      "t": 130357.19499999993,
      "d": 327.3810833333264,
      "v": 77
    },
    {
      "midi": 59,
      "hit": false,
      "t": 130714.33799999992,
      "d": 104.16670833333046,
      "v": 32
    },
    {
      "midi": 64,
      "hit": false,
      "t": 130714.33799999992,
      "d": 133.92862500000047,
      "v": 100
    },
    {
      "midi": 71,
      "hit": false,
      "t": 130892.90949999992,
      "d": 163.69054166667047,
      "v": 100
    },
    {
      "midi": 66,
      "hit": false,
      "t": 131428.62399999992,
      "d": 483.6311458333512,
      "v": 101
    },
    {
      "midi": 75,
      "hit": false,
      "t": 131428.62399999992,
      "d": 572.9168958333612,
      "v": 110
    },
    {
      "midi": 59,
      "hit": false,
      "t": 131428.62399999992,
      "d": 1086.3099583333533,
      "v": 85
    },
    {
      "midi": 63,
      "hit": false,
      "t": 131785.76699999993,
      "d": 334.82156250003027,
      "v": 101
    },
    {
      "midi": 71,
      "hit": false,
      "t": 132142.90999999997,
      "d": 342.2620416666614,
      "v": 105
    },
    {
      "midi": 63,
      "hit": false,
      "t": 132500.05299999996,
      "d": 59.523833333310904,
      "v": 101
    },
    {
      "midi": 66,
      "hit": false,
      "t": 132500.05299999996,
      "d": 133.92862499997136,
      "v": 110
    },
    {
      "midi": 68,
      "hit": false,
      "t": 132857.19599999994,
      "d": 133.92862500000047,
      "v": 101
    },
    {
      "midi": 76,
      "hit": false,
      "t": 132857.19599999994,
      "d": 133.92862500000047,
      "v": 105
    },
    {
      "midi": 52,
      "hit": false,
      "t": 132857.19599999994,
      "d": 178.57149999999092,
      "v": 77
    },
    {
      "midi": 64,
      "hit": false,
      "t": 133214.33899999992,
      "d": 267.85725000000093,
      "v": 95
    },
    {
      "midi": 68,
      "hit": false,
      "t": 133214.33899999992,
      "d": 290.1786875000107,
      "v": 106
    },
    {
      "midi": 52,
      "hit": false,
      "t": 133214.33899999992,
      "d": 312.5001250000205,
      "v": 77
    },
    {
      "midi": 66,
      "hit": false,
      "t": 133571.48199999993,
      "d": 193.45245833334047,
      "v": 101
    },
    {
      "midi": 69,
      "hit": false,
      "t": 133571.48199999993,
      "d": 215.77389583335025,
      "v": 109
    },
    {
      "midi": 54,
      "hit": false,
      "t": 133571.48199999993,
      "d": 319.9406041666807,
      "v": 70
    },
    {
      "midi": 71,
      "hit": false,
      "t": 133928.62499999994,
      "d": 171.1310208333307,
      "v": 90
    },
    {
      "midi": 56,
      "hit": false,
      "t": 133928.62499999994,
      "d": 178.57149999999092,
      "v": 94
    },
    {
      "midi": 69,
      "hit": false,
      "t": 134285.76799999992,
      "d": 104.16670833333046,
      "v": 109
    },
    {
      "midi": 73,
      "hit": false,
      "t": 134285.76799999992,
      "d": 126.48814583334024,
      "v": 106
    },
    {
      "midi": 69,
      "hit": false,
      "t": 134642.91099999993,
      "d": 119.04766666668002,
      "v": 100
    },
    {
      "midi": 73,
      "hit": false,
      "t": 134642.91099999993,
      "d": 141.3691041666898,
      "v": 106
    },
    {
      "midi": 64,
      "hit": false,
      "t": 135714.33999999997,
      "d": 126.48814583334024,
      "v": 95
    },
    {
      "midi": 52,
      "hit": false,
      "t": 135714.33999999997,
      "d": 141.3691041666607,
      "v": 68
    },
    {
      "midi": 68,
      "hit": false,
      "t": 135714.33999999997,
      "d": 141.3691041666607,
      "v": 106
    },
    {
      "midi": 64,
      "hit": false,
      "t": 136071.48299999995,
      "d": 163.69054166667047,
      "v": 100
    },
    {
      "midi": 68,
      "hit": false,
      "t": 136071.48299999995,
      "d": 178.57149999999092,
      "v": 110
    },
    {
      "midi": 63,
      "hit": false,
      "t": 137142.91199999995,
      "d": 119.04766666668002,
      "v": 101
    },
    {
      "midi": 71,
      "hit": false,
      "t": 137142.91199999995,
      "d": 178.57150000002002,
      "v": 100
    },
    {
      "midi": 63,
      "hit": false,
      "t": 137500.05499999996,
      "d": 148.80958333332092,
      "v": 101
    },
    {
      "midi": 71,
      "hit": false,
      "t": 137500.05499999996,
      "d": 208.33341666666092,
      "v": 100
    },
    {
      "midi": 52,
      "hit": false,
      "t": 138571.48399999997,
      "d": 148.80958333332092,
      "v": 77
    },
    {
      "midi": 64,
      "hit": false,
      "t": 138571.48399999997,
      "d": 148.80958333332092,
      "v": 95
    },
    {
      "midi": 68,
      "hit": false,
      "t": 138571.48399999997,
      "d": 163.69054166664137,
      "v": 106
    },
    {
      "midi": 52,
      "hit": false,
      "t": 138928.62699999995,
      "d": 119.04766666668002,
      "v": 74
    },
    {
      "midi": 64,
      "hit": false,
      "t": 138928.62699999995,
      "d": 148.80958333335002,
      "v": 100
    },
    {
      "midi": 68,
      "hit": false,
      "t": 138928.62699999995,
      "d": 193.45245833334047,
      "v": 110
    },
    {
      "midi": 73,
      "hit": false,
      "t": 140000.05599999995,
      "d": 178.57149999999092,
      "v": 106
    },
    {
      "midi": 69,
      "hit": false,
      "t": 140000.05599999995,
      "d": 193.45245833331137,
      "v": 112
    },
    {
      "midi": 57,
      "hit": false,
      "t": 140000.05599999995,
      "d": 215.77389583332115,
      "v": 81
    },
    {
      "midi": 73,
      "hit": false,
      "t": 140357.19899999994,
      "d": 156.25006250001024,
      "v": 101
    },
    {
      "midi": 69,
      "hit": false,
      "t": 140357.19899999994,
      "d": 186.01197916668025,
      "v": 100
    },
    {
      "midi": 68,
      "hit": false,
      "t": 141428.62799999994,
      "d": 133.92862500000047,
      "v": 110
    },
    {
      "midi": 52,
      "hit": false,
      "t": 141428.62799999994,
      "d": 148.80958333332092,
      "v": 77
    },
    {
      "midi": 71,
      "hit": false,
      "t": 141428.62799999994,
      "d": 171.1310208333307,
      "v": 109
    },
    {
      "midi": 68,
      "hit": false,
      "t": 141785.77099999995,
      "d": 200.8929375000007,
      "v": 110
    },
    {
      "midi": 71,
      "hit": false,
      "t": 141785.77099999995,
      "d": 208.33341666666092,
      "v": 105
    },
    {
      "midi": 66,
      "hit": false,
      "t": 142857.19999999995,
      "d": 163.69054166667047,
      "v": 106
    },
    {
      "midi": 69,
      "hit": false,
      "t": 142857.19999999995,
      "d": 178.57149999999092,
      "v": 105
    },
    {
      "midi": 66,
      "hit": false,
      "t": 143214.34299999994,
      "d": 223.21437500001048,
      "v": 106
    },
    {
      "midi": 69,
      "hit": false,
      "t": 143214.34299999994,
      "d": 245.53581250002026,
      "v": 109
    },
    {
      "midi": 52,
      "hit": false,
      "t": 144285.77199999997,
      "d": 119.04766666668002,
      "v": 85
    },
    {
      "midi": 64,
      "hit": false,
      "t": 144285.77199999997,
      "d": 119.04766666668002,
      "v": 105
    },
    {
      "midi": 68,
      "hit": false,
      "t": 144285.77199999997,
      "d": 148.80958333335002,
      "v": 106
    },
    {
      "midi": 66,
      "hit": false,
      "t": 144642.91499999998,
      "d": 7.440479166660225,
      "v": 78
    },
    {
      "midi": 64,
      "hit": false,
      "t": 144642.91499999998,
      "d": 245.53581249999115,
      "v": 100
    },
    {
      "midi": 52,
      "hit": false,
      "t": 144642.91499999998,
      "d": 252.97629166665138,
      "v": 81
    },
    {
      "midi": 68,
      "hit": false,
      "t": 144642.91499999998,
      "d": 260.4167708333116,
      "v": 110
    },
    {
      "midi": 66,
      "hit": false,
      "t": 145000.05799999996,
      "d": 230.6548541666707,
      "v": 110
    },
    {
      "midi": 69,
      "hit": false,
      "t": 145000.05799999996,
      "d": 238.09533333333093,
      "v": 109
    },
    {
      "midi": 54,
      "hit": false,
      "t": 145000.05799999996,
      "d": 245.53581249999115,
      "v": 70
    },
    {
      "midi": 68,
      "hit": false,
      "t": 145357.20099999994,
      "d": 163.69054166667047,
      "v": 110
    },
    {
      "midi": 71,
      "hit": false,
      "t": 145357.20099999994,
      "d": 208.33341666666092,
      "v": 100
    },
    {
      "midi": 81,
      "hit": false,
      "t": 145714.34399999992,
      "d": 357.14300000001094,
      "v": 90
    },
    {
      "midi": 73,
      "hit": false,
      "t": 145714.34399999992,
      "d": 409.2263541666907,
      "v": 110
    },
    {
      "midi": 61,
      "hit": false,
      "t": 146071.48699999994,
      "d": 260.4167708333407,
      "v": 78
    },
    {
      "midi": 61,
      "hit": false,
      "t": 146428.62999999995,
      "d": 230.6548541666416,
      "v": 94
    },
    {
      "midi": 64,
      "hit": false,
      "t": 146607.20149999994,
      "d": 14.88095833332045,
      "v": 46
    },
    {
      "midi": 73,
      "hit": false,
      "t": 146607.20149999994,
      "d": 111.60718749999069,
      "v": 106
    },
    {
      "midi": 69,
      "hit": false,
      "t": 146785.77299999993,
      "d": 267.85725000000093,
      "v": 95
    },
    {
      "midi": 64,
      "hit": false,
      "t": 147142.91599999994,
      "d": 357.14300000001094,
      "v": 95
    },
    {
      "midi": 52,
      "hit": false,
      "t": 147142.91599999994,
      "d": 818.4527083333815,
      "v": 81
    },
    {
      "midi": 59,
      "hit": false,
      "t": 147500.05899999995,
      "d": 535.714500000031,
      "v": 74
    },
    {
      "midi": 68,
      "hit": false,
      "t": 147857.20199999996,
      "d": 52.08335416667978,
      "v": 26
    },
    {
      "midi": 76,
      "hit": false,
      "t": 148035.77349999998,
      "d": 468.75018750000163,
      "v": 100
    },
    {
      "midi": 68,
      "hit": false,
      "t": 148214.34499999997,
      "d": 260.4167708333407,
      "v": 101
    },
    {
      "midi": 66,
      "hit": false,
      "t": 148571.48799999998,
      "d": 312.5001249999914,
      "v": 94
    },
    {
      "midi": 59,
      "hit": false,
      "t": 148571.48799999998,
      "d": 781.250312499993,
      "v": 90
    },
    {
      "midi": 63,
      "hit": false,
      "t": 148928.63099999996,
      "d": 357.14300000001094,
      "v": 106
    },
    {
      "midi": 66,
      "hit": false,
      "t": 149285.77399999998,
      "d": 156.25006250001024,
      "v": 101
    },
    {
      "midi": 75,
      "hit": false,
      "t": 149464.3455,
      "d": 171.1310208333307,
      "v": 106
    },
    {
      "midi": 66,
      "hit": false,
      "t": 149642.917,
      "d": 141.3691041666607,
      "v": 94
    },
    {
      "midi": 68,
      "hit": false,
      "t": 150357.20299999998,
      "d": 230.6548541666707,
      "v": 110
    },
    {
      "midi": 64,
      "hit": false,
      "t": 150357.20299999998,
      "d": 245.53581249999115,
      "v": 100
    },
    {
      "midi": 52,
      "hit": false,
      "t": 150357.20299999998,
      "d": 305.05964583333116,
      "v": 71
    },
    {
      "midi": 66,
      "hit": false,
      "t": 150714.346,
      "d": 193.45245833334047,
      "v": 106
    },
    {
      "midi": 69,
      "hit": false,
      "t": 150714.346,
      "d": 230.6548541666707,
      "v": 109
    },
    {
      "midi": 54,
      "hit": false,
      "t": 150714.346,
      "d": 327.38108333334094,
      "v": 86
    },
    {
      "midi": 68,
      "hit": false,
      "t": 151071.489,
      "d": 193.45245833334047,
      "v": 101
    },
    {
      "midi": 71,
      "hit": false,
      "t": 151071.489,
      "d": 230.6548541666707,
      "v": 95
    },
    {
      "midi": 56,
      "hit": false,
      "t": 151071.489,
      "d": 342.2620416666614,
      "v": 106
    },
    {
      "midi": 57,
      "hit": false,
      "t": 151428.63199999998,
      "d": 446.42874999999185,
      "v": 105
    },
    {
      "midi": 73,
      "hit": false,
      "t": 151428.63199999998,
      "d": 580.3573749999923,
      "v": 110
    },
    {
      "midi": 69,
      "hit": false,
      "t": 151428.63199999998,
      "d": 602.6788125000021,
      "v": 112
    },
    {
      "midi": 69,
      "hit": false,
      "t": 152142.91799999998,
      "d": 96.72622916667024,
      "v": 23
    },
    {
      "midi": 73,
      "hit": false,
      "t": 152321.48949999997,
      "d": 409.2263541666616,
      "v": 86
    },
    {
      "midi": 64,
      "hit": false,
      "t": 152500.06099999996,
      "d": 275.29772916666116,
      "v": 85
    },
    {
      "midi": 64,
      "hit": false,
      "t": 152857.20399999994,
      "d": 275.29772916666116,
      "v": 95
    },
    {
      "midi": 71,
      "hit": false,
      "t": 152857.20399999994,
      "d": 505.95258333333186,
      "v": 105
    },
    {
      "midi": 52,
      "hit": false,
      "t": 152857.20399999994,
      "d": 714.2859999999928,
      "v": 74
    },
    {
      "midi": 64,
      "hit": false,
      "t": 153214.34699999992,
      "d": 96.72622916667024,
      "v": 34
    },
    {
      "midi": 59,
      "hit": false,
      "t": 153214.34699999992,
      "d": 513.3930625000212,
      "v": 65
    },
    {
      "midi": 64,
      "hit": false,
      "t": 153571.48999999993,
      "d": 119.04766666668002,
      "v": 105
    },
    {
      "midi": 71,
      "hit": false,
      "t": 153750.06149999995,
      "d": 141.3691041666607,
      "v": 90
    },
    {
      "midi": 68,
      "hit": false,
      "t": 153928.63299999994,
      "d": 104.16670833333046,
      "v": 106
    },
    {
      "midi": 66,
      "hit": false,
      "t": 154285.77599999995,
      "d": 275.29772916666116,
      "v": 94
    },
    {
      "midi": 75,
      "hit": false,
      "t": 154285.77599999995,
      "d": 468.7501874999725,
      "v": 101
    },
    {
      "midi": 59,
      "hit": false,
      "t": 154285.77599999995,
      "d": 729.1669583332841,
      "v": 85
    },
    {
      "midi": 63,
      "hit": false,
      "t": 154642.91899999994,
      "d": 357.14299999998184,
      "v": 94
    },
    {
      "midi": 66,
      "hit": false,
      "t": 155000.06199999992,
      "d": 238.09533333333093,
      "v": 101
    },
    {
      "midi": 71,
      "hit": false,
      "t": 155000.06199999992,
      "d": 342.2620416666614,
      "v": 100
    },
    {
      "midi": 66,
      "hit": false,
      "t": 155357.2049999999,
      "d": 215.77389583332115,
      "v": 101
    },
    {
      "midi": 68,
      "hit": false,
      "t": 155714.34799999988,
      "d": 141.3691041666607,
      "v": 101
    },
    {
      "midi": 76,
      "hit": false,
      "t": 155714.34799999988,
      "d": 141.3691041666607,
      "v": 109
    },
    {
      "midi": 59,
      "hit": false,
      "t": 155714.34799999988,
      "d": 223.21437499998137,
      "v": 71
    },
    {
      "midi": 52,
      "hit": false,
      "t": 155714.34799999988,
      "d": 260.4167708333116,
      "v": 74
    },
    {
      "midi": 85,
      "hit": false,
      "t": 155714.3480000001,
      "d": 119.04766666668002,
      "v": 112
    },
    {
      "midi": 83,
      "hit": false,
      "t": 155892.9195000001,
      "d": 104.16670833333046,
      "v": 112
    },
    {
      "midi": 75,
      "hit": false,
      "t": 156071.49099999986,
      "d": 14.88095833332045,
      "v": 56
    },
    {
      "midi": 68,
      "hit": false,
      "t": 156071.49099999986,
      "d": 245.53581249999115,
      "v": 106
    },
    {
      "midi": 76,
      "hit": false,
      "t": 156071.49099999986,
      "d": 245.53581249999115,
      "v": 105
    },
    {
      "midi": 80,
      "hit": false,
      "t": 156071.4910000001,
      "d": 133.92862500000047,
      "v": 112
    },
    {
      "midi": 76,
      "hit": false,
      "t": 156250.0625000001,
      "d": 119.04766666668002,
      "v": 112
    },
    {
      "midi": 56,
      "hit": false,
      "t": 156428.63399999985,
      "d": 119.04766666668002,
      "v": 54
    },
    {
      "midi": 81,
      "hit": false,
      "t": 156428.6340000001,
      "d": 133.92862500000047,
      "v": 112
    },
    {
      "midi": 80,
      "hit": false,
      "t": 156607.2055000001,
      "d": 119.04766666668002,
      "v": 112
    },
    {
      "midi": 56,
      "hit": false,
      "t": 156785.77699999986,
      "d": 66.96431250000023,
      "v": 46
    },
    {
      "midi": 76,
      "hit": false,
      "t": 156785.77700000012,
      "d": 119.04766666668002,
      "v": 112
    },
    {
      "midi": 71,
      "hit": false,
      "t": 156964.34850000014,
      "d": 126.48814583334024,
      "v": 112
    },
    {
      "midi": 68,
      "hit": false,
      "t": 157142.91999999987,
      "d": 119.04766666668002,
      "v": 106
    },
    {
      "midi": 71,
      "hit": false,
      "t": 157142.91999999987,
      "d": 141.3691041666898,
      "v": 90
    },
    {
      "midi": 52,
      "hit": false,
      "t": 157142.91999999987,
      "d": 297.61916666670004,
      "v": 74
    },
    {
      "midi": 78,
      "hit": false,
      "t": 157142.92000000016,
      "d": 163.69054166667047,
      "v": 112
    },
    {
      "midi": 76,
      "hit": false,
      "t": 157321.49150000015,
      "d": 133.92862500000047,
      "v": 112
    },
    {
      "midi": 68,
      "hit": false,
      "t": 157500.0629999999,
      "d": 215.77389583332115,
      "v": 106
    },
    {
      "midi": 71,
      "hit": false,
      "t": 157500.0629999999,
      "d": 267.85725000000093,
      "v": 100
    },
    {
      "midi": 71,
      "hit": false,
      "t": 157500.06300000014,
      "d": 744.0479166666628,
      "v": 112
    },
    {
      "midi": 59,
      "hit": false,
      "t": 158571.4919999999,
      "d": 163.69054166667047,
      "v": 85
    },
    {
      "midi": 68,
      "hit": false,
      "t": 158571.4919999999,
      "d": 171.1310208333307,
      "v": 101
    },
    {
      "midi": 52,
      "hit": false,
      "t": 158571.4919999999,
      "d": 215.77389583332115,
      "v": 68
    },
    {
      "midi": 81,
      "hit": false,
      "t": 158571.49200000014,
      "d": 126.48814583334024,
      "v": 112
    },
    {
      "midi": 80,
      "hit": false,
      "t": 158750.06350000016,
      "d": 104.16670833333046,
      "v": 112
    },
    {
      "midi": 59,
      "hit": false,
      "t": 158928.6349999999,
      "d": 230.6548541666707,
      "v": 95
    },
    {
      "midi": 68,
      "hit": false,
      "t": 158928.6349999999,
      "d": 230.6548541666707,
      "v": 101
    },
    {
      "midi": 76,
      "hit": false,
      "t": 158928.63500000015,
      "d": 111.60718749999069,
      "v": 112
    },
    {
      "midi": 71,
      "hit": false,
      "t": 159107.20650000015,
      "d": 126.48814583334024,
      "v": 112
    },
    {
      "midi": 78,
      "hit": false,
      "t": 159285.77800000017,
      "d": 119.04766666668002,
      "v": 112
    },
    {
      "midi": 76,
      "hit": false,
      "t": 159464.3495000002,
      "d": 126.48814583334024,
      "v": 112
    },
    {
      "midi": 71,
      "hit": false,
      "t": 159642.9210000002,
      "d": 126.48814583334024,
      "v": 112
    },
    {
      "midi": 68,
      "hit": false,
      "t": 159821.49250000023,
      "d": 119.04766666668002,
      "v": 112
    },
    {
      "midi": 56,
      "hit": false,
      "t": 160000.0639999999,
      "d": 156.25006250001024,
      "v": 101
    },
    {
      "midi": 64,
      "hit": false,
      "t": 160000.0639999999,
      "d": 163.69054166667047,
      "v": 105
    },
    {
      "midi": 64,
      "hit": false,
      "t": 160000.06400000025,
      "d": 751.488395833323,
      "v": 112
    },
    {
      "midi": 56,
      "hit": false,
      "t": 160357.2069999999,
      "d": 230.6548541666707,
      "v": 101
    },
    {
      "midi": 64,
      "hit": false,
      "t": 160357.2069999999,
      "d": 260.4167708333407,
      "v": 105
    },
    {
      "midi": 68,
      "hit": false,
      "t": 161071.49300000025,
      "d": 156.25006250001024,
      "v": 112
    },
    {
      "midi": 69,
      "hit": false,
      "t": 161250.06450000027,
      "d": 171.1310208333307,
      "v": 112
    },
    {
      "midi": 64,
      "hit": false,
      "t": 161428.6359999999,
      "d": 2857.1440000000002,
      "v": 105
    },
    {
      "midi": 68,
      "hit": false,
      "t": 161428.6359999999,
      "d": 2857.1440000000002,
      "v": 106
    },
    {
      "midi": 68,
      "hit": false,
      "t": 161428.63600000026,
      "d": 2857.1440000000002,
      "v": 112
    }
  ]
}