{
  "jsonPath": "Jazz/Jazz Organ/Bill Doggett/passion-flower.json",
  "path": "Jazz\\Jazz Organ\\Bill Doggett\\Passion Flower.mid",
  "name": "Passion Flower",
  "difficulty": "Advanced",
  "bpm": 60,
  "notes": [
    {
      "midi": 43,
      "hit": false,
      "t": 4000,
      "d": 4000.000000000002,
      "v": 84
    },
    {
      "midi": 59,
      "hit": false,
      "t": 4000,
      "d": 4000.000000000002,
      "v": 88
    },
    {
      "midi": 62,
      "hit": false,
      "t": 4000,
      "d": 4000.000000000002,
      "v": 100
    },
    {
      "midi": 64,
      "hit": false,
      "t": 4000,
      "d": 4000.000000000002,
      "v": 96
    },
    {
      "midi": 69,
      "hit": false,
      "t": 4000,
      "d": 4000.000000000002,
      "v": 84
    },
    {
      "midi": 83,
      "hit": false,
      "t": 5500,
      "d": 218.75,
      "v": 50
    },
    {
      "midi": 81,
      "hit": false,
      "t": 5593.75,
      "d": 191.66666666666697,
      "v": 38
    },
    {
      "midi": 78,
      "hit": false,
      "t": 5660.416666666667,
      "d": 177.08333333333303,
      "v": 50
    },
    {
      "midi": 76,
      "hit": false,
      "t": 5787.5,
      "d": 87.5,
      "v": 50
    },
    {
      "midi": 83,
      "hit": false,
      "t": 5879.166666666667,
      "d": 168.75,
      "v": 62
    },
    {
      "midi": 81,
      "hit": false,
      "t": 5968.75,
      "d": 177.08333333333394,
      "v": 39
    },
    {
      "midi": 78,
      "hit": false,
      "t": 6052.083333333334,
      "d": 160.41666666666697,
      "v": 50
    },
    {
      "midi": 76,
      "hit": false,
      "t": 6145.833333333334,
      "d": 89.58333333333394,
      "v": 38
    },
    {
      "midi": 83,
      "hit": false,
      "t": 6235.416666666668,
      "d": 177.08333333333394,
      "v": 54
    },
    {
      "midi": 81,
      "hit": false,
      "t": 6333.333333333335,
      "d": 187.5,
      "v": 37
    },
    {
      "midi": 78,
      "hit": false,
      "t": 6400.000000000002,
      "d": 174.9999999999991,
      "v": 50
    },
    {
      "midi": 76,
      "hit": false,
      "t": 6522.916666666668,
      "d": 125,
      "v": 42
    },
    {
      "midi": 83,
      "hit": false,
      "t": 6610.416666666668,
      "d": 197.91666666666697,
      "v": 58
    },
    {
      "midi": 81,
      "hit": false,
      "t": 6722.916666666668,
      "d": 216.66666666666697,
      "v": 39
    },
    {
      "midi": 78,
      "hit": false,
      "t": 6777.083333333335,
      "d": 175,
      "v": 58
    },
    {
      "midi": 76,
      "hit": false,
      "t": 6889.583333333335,
      "d": 135.41666666666697,
      "v": 50
    },
    {
      "midi": 83,
      "hit": false,
      "t": 7000.000000000002,
      "d": 500,
      "v": 46
    },
    {
      "midi": 38,
      "hit": false,
      "t": 8000.000000000002,
      "d": 4000.0000000000036,
      "v": 84
    },
    {
      "midi": 58,
      "hit": false,
      "t": 8000.000000000002,
      "d": 4000.0000000000036,
      "v": 80
    },
    {
      "midi": 62,
      "hit": false,
      "t": 8000.000000000002,
      "d": 4000.0000000000036,
      "v": 92
    },
    {
      "midi": 64,
      "hit": false,
      "t": 8000.000000000002,
      "d": 4000.0000000000036,
      "v": 96
    },
    {
      "midi": 68,
      "hit": false,
      "t": 8000.000000000002,
      "d": 4000.0000000000036,
      "v": 84
    },
    {
      "midi": 84,
      "hit": false,
      "t": 9500.000000000002,
      "d": 218.75000000000182,
      "v": 50
    },
    {
      "midi": 82,
      "hit": false,
      "t": 9583.333333333336,
      "d": 191.66666666666788,
      "v": 41
    },
    {
      "midi": 80,
      "hit": false,
      "t": 9666.66666666667,
      "d": 177.08333333333394,
      "v": 50
    },
    {
      "midi": 78,
      "hit": false,
      "t": 9750.000000000004,
      "d": 85.41666666666606,
      "v": 50
    },
    {
      "midi": 84,
      "hit": false,
      "t": 9875.000000000004,
      "d": 218.75000000000182,
      "v": 50
    },
    {
      "midi": 82,
      "hit": false,
      "t": 9958.333333333338,
      "d": 191.66666666666788,
      "v": 45
    },
    {
      "midi": 80,
      "hit": false,
      "t": 10041.666666666672,
      "d": 177.08333333333394,
      "v": 50
    },
    {
      "midi": 78,
      "hit": false,
      "t": 10125.000000000005,
      "d": 85.41666666666606,
      "v": 50
    },
    {
      "midi": 89,
      "hit": false,
      "t": 10291.666666666672,
      "d": 108.33333333333394,
      "v": 78
    },
    {
      "midi": 86,
      "hit": false,
      "t": 10500.000000000005,
      "d": 97.91666666666606,
      "v": 66
    },
    {
      "midi": 82,
      "hit": false,
      "t": 10666.666666666672,
      "d": 93.75,
      "v": 66
    },
    {
      "midi": 84,
      "hit": false,
      "t": 10875.000000000005,
      "d": 89.58333333333394,
      "v": 66
    },
    {
      "midi": 79,
      "hit": false,
      "t": 11083.33333333334,
      "d": 104.16666666666606,
      "v": 50
    },
    {
      "midi": 80,
      "hit": false,
      "t": 11127.08333333334,
      "d": 554.1666666666661,
      "v": 78
    },
    {
      "midi": 43,
      "hit": false,
      "t": 12000.000000000005,
      "d": 4000.0000000000036,
      "v": 84
    },
    {
      "midi": 59,
      "hit": false,
      "t": 12000.000000000005,
      "d": 4000.0000000000036,
      "v": 88
    },
    {
      "midi": 62,
      "hit": false,
      "t": 12000.000000000005,
      "d": 4000.0000000000036,
      "v": 100
    },
    {
      "midi": 64,
      "hit": false,
      "t": 12000.000000000005,
      "d": 4000.0000000000036,
      "v": 96
    },
    {
      "midi": 69,
      "hit": false,
      "t": 12000.000000000005,
      "d": 4000.0000000000036,
      "v": 84
    },
    {
      "midi": 88,
      "hit": false,
      "t": 13500.000000000005,
      "d": 218.75000000000182,
      "v": 50
    },
    {
      "midi": 86,
      "hit": false,
      "t": 13583.33333333334,
      "d": 191.66666666666788,
      "v": 38
    },
    {
      "midi": 83,
      "hit": false,
      "t": 13666.666666666673,
      "d": 177.08333333333394,
      "v": 50
    },
    {
      "midi": 81,
      "hit": false,
      "t": 13750.000000000007,
      "d": 85.41666666666606,
      "v": 50
    },
    {
      "midi": 88,
      "hit": false,
      "t": 13879.166666666673,
      "d": 168.75,
      "v": 62
    },
    {
      "midi": 86,
      "hit": false,
      "t": 13958.33333333334,
      "d": 177.08333333333394,
      "v": 39
    },
    {
      "midi": 83,
      "hit": false,
      "t": 14056.250000000007,
      "d": 162.5,
      "v": 50
    },
    {
      "midi": 81,
      "hit": false,
      "t": 14106.250000000007,
      "d": 91.66666666666606,
      "v": 38
    },
    {
      "midi": 88,
      "hit": false,
      "t": 14235.416666666673,
      "d": 177.08333333333394,
      "v": 54
    },
    {
      "midi": 86,
      "hit": false,
      "t": 14322.916666666673,
      "d": 187.50000000000182,
      "v": 38
    },
    {
      "midi": 83,
      "hit": false,
      "t": 14406.250000000007,
      "d": 172.91666666666788,
      "v": 50
    },
    {
      "midi": 81,
      "hit": false,
      "t": 14483.333333333341,
      "d": 125,
      "v": 42
    },
    {
      "midi": 88,
      "hit": false,
      "t": 14610.416666666675,
      "d": 197.91666666666788,
      "v": 58
    },
    {
      "midi": 86,
      "hit": false,
      "t": 14712.50000000001,
      "d": 216.66666666666606,
      "v": 43
    },
    {
      "midi": 83,
      "hit": false,
      "t": 14783.333333333343,
      "d": 174.99999999999818,
      "v": 42
    },
    {
      "midi": 81,
      "hit": false,
      "t": 14850.00000000001,
      "d": 135.41666666666606,
      "v": 50
    },
    {
      "midi": 88,
      "hit": false,
      "t": 15000.00000000001,
      "d": 500,
      "v": 46
    },
    {
      "midi": 38,
      "hit": false,
      "t": 16000.00000000001,
      "d": 3999.999999999998,
      "v": 84
    },
    {
      "midi": 58,
      "hit": false,
      "t": 16000.00000000001,
      "d": 3999.999999999998,
      "v": 80
    },
    {
      "midi": 62,
      "hit": false,
      "t": 16000.00000000001,
      "d": 3999.999999999998,
      "v": 92
    },
    {
      "midi": 64,
      "hit": false,
      "t": 16000.00000000001,
      "d": 3999.999999999998,
      "v": 96
    },
    {
      "midi": 68,
      "hit": false,
      "t": 16000.00000000001,
      "d": 3999.999999999998,
      "v": 84
    },
    {
      "midi": 89,
      "hit": false,
      "t": 16666.666666666675,
      "d": 233.33333333333576,
      "v": 44
    },
    {
      "midi": 86,
      "hit": false,
      "t": 16764.583333333343,
      "d": 245.83333333333212,
      "v": 48
    },
    {
      "midi": 84,
      "hit": false,
      "t": 16843.75000000001,
      "d": 170.83333333333212,
      "v": 48
    },
    {
      "midi": 80,
      "hit": false,
      "t": 16964.583333333343,
      "d": 133.33333333333212,
      "v": 68
    },
    {
      "midi": 94,
      "hit": false,
      "t": 17314.583333333343,
      "d": 127.08333333333212,
      "v": 64
    },
    {
      "midi": 89,
      "hit": false,
      "t": 17733.333333333343,
      "d": 1070.8333333333321,
      "v": 68
    },
    {
      "midi": 71,
      "hit": false,
      "t": 32750.000000000007,
      "d": 83.33333333333576,
      "v": 84
    },
    {
      "midi": 83,
      "hit": false,
      "t": 33000.00000000001,
      "d": 339.58333333333576,
      "v": 80
    },
    {
      "midi": 71,
      "hit": false,
      "t": 33502.08333333334,
      "d": 83.33333333333576,
      "v": 56
    },
    {
      "midi": 79,
      "hit": false,
      "t": 33931.250000000015,
      "d": 1037.5,
      "v": 1
    },
    {
      "midi": 77,
      "hit": false,
      "t": 39056.250000000015,
      "d": 135.41666666666424,
      "v": 80
    },
    {
      "midi": 78,
      "hit": false,
      "t": 39137.500000000015,
      "d": 147.91666666666424,
      "v": 76
    },
    {
      "midi": 77,
      "hit": false,
      "t": 39229.16666666668,
      "d": 172.91666666666424,
      "v": 56
    },
    {
      "midi": 76,
      "hit": false,
      "t": 39416.66666666668,
      "d": 187.5,
      "v": 28
    },
    {
      "midi": 75,
      "hit": false,
      "t": 39627.08333333334,
      "d": 187.5,
      "v": 84
    },
    {
      "midi": 74,
      "hit": false,
      "t": 39864.58333333334,
      "d": 212.5,
      "v": 72
    },
    {
      "midi": 73,
      "hit": false,
      "t": 40145.83333333334,
      "d": 679.1666666666642,
      "v": 72
    },
    {
      "midi": 73,
      "hit": false,
      "t": 41493.75000000001,
      "d": 216.66666666666424,
      "v": 36
    },
    {
      "midi": 74,
      "hit": false,
      "t": 41725.00000000001,
      "d": 254.16666666666424,
      "v": 84
    },
    {
      "midi": 75,
      "hit": false,
      "t": 41983.333333333336,
      "d": 256.25,
      "v": 108
    },
    {
      "midi": 76,
      "hit": false,
      "t": 42254.16666666667,
      "d": 241.66666666666424,
      "v": 80
    },
    {
      "midi": 77,
      "hit": false,
      "t": 42489.583333333336,
      "d": 275,
      "v": 84
    },
    {
      "midi": 78,
      "hit": false,
      "t": 42720.833333333336,
      "d": 239.58333333333576,
      "v": 108
    },
    {
      "midi": 79,
      "hit": false,
      "t": 42995.833333333336,
      "d": 308.3333333333285,
      "v": 104
    },
    {
      "midi": 80,
      "hit": false,
      "t": 43262.5,
      "d": 295.8333333333285,
      "v": 92
    },
    {
      "midi": 81,
      "hit": false,
      "t": 43541.666666666664,
      "d": 220.83333333332848,
      "v": 88
    },
    {
      "midi": 82,
      "hit": false,
      "t": 43772.91666666666,
      "d": 285.41666666666424,
      "v": 92
    },
    {
      "midi": 83,
      "hit": false,
      "t": 44064.58333333332,
      "d": 1410.4166666666642,
      "v": 80
    },
    {
      "midi": 86,
      "hit": false,
      "t": 45479.16666666665,
      "d": 231.25,
      "v": 80
    },
    {
      "midi": 83,
      "hit": false,
      "t": 45720.833333333314,
      "d": 112.5,
      "v": 72
    },
    {
      "midi": 87,
      "hit": false,
      "t": 46577.083333333314,
      "d": 83.33333333333576,
      "v": 88
    },
    {
      "midi": 88,
      "hit": false,
      "t": 46647.91666666665,
      "d": 216.66666666666424,
      "v": 92
    },
    {
      "midi": 86,
      "hit": false,
      "t": 46943.74999999998,
      "d": 433.33333333333576,
      "v": 80
    },
    {
      "midi": 81,
      "hit": false,
      "t": 47374.99999999998,
      "d": 308.33333333333576,
      "v": 84
    },
    {
      "midi": 86,
      "hit": false,
      "t": 47708.333333333314,
      "d": 391.66666666666424,
      "v": 72
    },
    {
      "midi": 83,
      "hit": false,
      "t": 48139.583333333314,
      "d": 1747.9166666666642,
      "v": 76
    },
    {
      "midi": 82,
      "hit": false,
      "t": 51022.91666666664,
      "d": 83.33333333333576,
      "v": 84
    },
    {
      "midi": 81,
      "hit": false,
      "t": 51041.66666666664,
      "d": 314.58333333333576,
      "v": 100
    },
    {
      "midi": 79,
      "hit": false,
      "t": 51399.99999999998,
      "d": 1260.4166666666642,
      "v": 56
    },
    {
      "midi": 75,
      "hit": false,
      "t": 53689.58333333331,
      "d": 85.41666666666424,
      "v": 68
    },
    {
      "midi": 78,
      "hit": false,
      "t": 53974.99999999997,
      "d": 508.3333333333285,
      "v": 100
    },
    {
      "midi": 77,
      "hit": false,
      "t": 54472.916666666635,
      "d": 508.3333333333285,
      "v": 84
    },
    {
      "midi": 76,
      "hit": false,
      "t": 54989.5833333333,
      "d": 462.5,
      "v": 64
    },
    {
      "midi": 75,
      "hit": false,
      "t": 55499.99999999996,
      "d": 502.08333333333576,
      "v": 80
    },
    {
      "midi": 74,
      "hit": false,
      "t": 56004.166666666635,
      "d": 752.0833333333358,
      "v": 80
    },
    {
      "midi": 69,
      "hit": false,
      "t": 57627.08333333331,
      "d": 102.08333333333576,
      "v": 84
    },
    {
      "midi": 74,
      "hit": false,
      "t": 57802.08333333331,
      "d": 135.41666666666424,
      "v": 80
    },
    {
      "midi": 73,
      "hit": false,
      "t": 58010.416666666635,
      "d": 156.25,
      "v": 108
    },
    {
      "midi": 72,
      "hit": false,
      "t": 58152.0833333333,
      "d": 112.5,
      "v": 96
    },
    {
      "midi": 71,
      "hit": false,
      "t": 58287.49999999996,
      "d": 125,
      "v": 92
    },
    {
      "midi": 70,
      "hit": false,
      "t": 58452.0833333333,
      "d": 154.16666666666424,
      "v": 96
    },
    {
      "midi": 69,
      "hit": false,
      "t": 58608.3333333333,
      "d": 125,
      "v": 100
    },
    {
      "midi": 68,
      "hit": false,
      "t": 58741.666666666635,
      "d": 143.75,
      "v": 88
    },
    {
      "midi": 67,
      "hit": false,
      "t": 58929.166666666635,
      "d": 106.25,
      "v": 100
    },
    {
      "midi": 66,
      "hit": false,
      "t": 59056.24999999997,
      "d": 143.75,
      "v": 68
    },
    {
      "midi": 65,
      "hit": false,
      "t": 59220.83333333331,
      "d": 170.83333333333576,
      "v": 84
    },
    {
      "midi": 64,
      "hit": false,
      "t": 59385.41666666664,
      "d": 177.08333333333576,
      "v": 92
    },
    {
      "midi": 65,
      "hit": false,
      "t": 59562.49999999998,
      "d": 272.9166666666715,
      "v": 88
    },
    {
      "midi": 66,
      "hit": false,
      "t": 59764.583333333314,
      "d": 179.16666666667152,
      "v": 44
    },
    {
      "midi": 72,
      "hit": false,
      "t": 59999.999999999985,
      "d": 962.5,
      "v": 88
    },
    {
      "midi": 70,
      "hit": false,
      "t": 61616.66666666665,
      "d": 135.41666666666424,
      "v": 52
    },
    {
      "midi": 67,
      "hit": false,
      "t": 61754.16666666665,
      "d": 168.75,
      "v": 80
    },
    {
      "midi": 72,
      "hit": false,
      "t": 62012.499999999985,
      "d": 1031.25,
      "v": 92
    },
    {
      "midi": 71,
      "hit": false,
      "t": 65189.58333333332,
      "d": 289.58333333333576,
      "v": 68
    },
    {
      "midi": 83,
      "hit": false,
      "t": 65489.58333333332,
      "d": 231.24999999999272,
      "v": 108
    },
    {
      "midi": 83,
      "hit": false,
      "t": 65764.58333333331,
      "d": 187.5,
      "v": 88
    },
    {
      "midi": 83,
      "hit": false,
      "t": 66074.99999999999,
      "d": 325,
      "v": 108
    },
    {
      "midi": 71,
      "hit": false,
      "t": 66402.08333333331,
      "d": 268.75,
      "v": 100
    },
    {
      "midi": 71,
      "hit": false,
      "t": 66729.16666666664,
      "d": 306.25,
      "v": 88
    },
    {
      "midi": 71,
      "hit": false,
      "t": 67058.33333333331,
      "d": 381.25,
      "v": 72
    },
    {
      "midi": 83,
      "hit": false,
      "t": 67364.58333333331,
      "d": 670.8333333333285,
      "v": 100
    },
    {
      "midi": 83,
      "hit": false,
      "t": 73499.99999999997,
      "d": 162.5,
      "v": 48
    },
    {
      "midi": 78,
      "hit": false,
      "t": 73597.91666666664,
      "d": 133.33333333332848,
      "v": 88
    },
    {
      "midi": 74,
      "hit": false,
      "t": 73749.99999999997,
      "d": 181.25,
      "v": 120
    },
    {
      "midi": 88,
      "hit": false,
      "t": 73999.99999999997,
      "d": 406.25,
      "v": 84
    },
    {
      "midi": 86,
      "hit": false,
      "t": 74499.99999999997,
      "d": 547.9166666666715,
      "v": 96
    },
    {
      "midi": 81,
      "hit": false,
      "t": 74999.99999999997,
      "d": 843.75,
      "v": 92
    },
    {
      "midi": 82,
      "hit": false,
      "t": 76422.91666666664,
      "d": 83.33333333334303,
      "v": 100
    },
    {
      "midi": 83,
      "hit": false,
      "t": 76495.83333333331,
      "d": 216.66666666667152,
      "v": 68
    },
    {
      "midi": 86,
      "hit": false,
      "t": 76729.16666666666,
      "d": 325,
      "v": 72
    },
    {
      "midi": 81,
      "hit": false,
      "t": 77066.66666666666,
      "d": 687.5,
      "v": 104
    },
    {
      "midi": 80,
      "hit": false,
      "t": 77802.08333333333,
      "d": 120.83333333332848,
      "v": 84
    },
    {
      "midi": 79,
      "hit": false,
      "t": 77910.41666666666,
      "d": 133.33333333332848,
      "v": 96
    },
    {
      "midi": 78,
      "hit": false,
      "t": 77999.99999999999,
      "d": 543.75,
      "v": 100
    },
    {
      "midi": 81,
      "hit": false,
      "t": 78499.99999999999,
      "d": 531.25,
      "v": 76
    },
    {
      "midi": 76,
      "hit": false,
      "t": 79064.58333333331,
      "d": 910.4166666666715,
      "v": 88
    },
    {
      "midi": 74,
      "hit": false,
      "t": 80002.08333333331,
      "d": 822.9166666666715,
      "v": 76
    },
    {
      "midi": 71,
      "hit": false,
      "t": 81360.41666666666,
      "d": 191.66666666667152,
      "v": 80
    },
    {
      "midi": 74,
      "hit": false,
      "t": 81510.41666666666,
      "d": 191.66666666667152,
      "v": 84
    },
    {
      "midi": 75,
      "hit": false,
      "t": 81679.16666666666,
      "d": 147.91666666667152,
      "v": 100
    },
    {
      "midi": 76,
      "hit": false,
      "t": 81835.41666666666,
      "d": 181.25,
      "v": 96
    },
    {
      "midi": 78,
      "hit": false,
      "t": 81999.99999999999,
      "d": 262.5,
      "v": 104
    },
    {
      "midi": 79,
      "hit": false,
      "t": 82349.99999999999,
      "d": 268.75,
      "v": 96
    },
    {
      "midi": 81,
      "hit": false,
      "t": 82499.99999999999,
      "d": 252.08333333332848,
      "v": 100
    },
    {
      "midi": 78,
      "hit": false,
      "t": 82845.83333333331,
      "d": 281.25,
      "v": 100
    },
    {
      "midi": 76,
      "hit": false,
      "t": 83249.99999999999,
      "d": 283.3333333333285,
      "v": 92
    },
    {
      "midi": 78,
      "hit": false,
      "t": 83499.99999999999,
      "d": 272.91666666665697,
      "v": 84
    },
    {
      "midi": 77,
      "hit": false,
      "t": 83999.99999999997,
      "d": 2000,
      "v": 84
    },
    {
      "midi": 68,
      "hit": false,
      "t": 86283.3333333333,
      "d": 264.5833333333285,
      "v": 76
    },
    {
      "midi": 70,
      "hit": false,
      "t": 86541.66666666663,
      "d": 170.83333333332848,
      "v": 88
    },
    {
      "midi": 69,
      "hit": false,
      "t": 86781.24999999996,
      "d": 243.75,
      "v": 104
    },
    {
      "midi": 68,
      "hit": false,
      "t": 87052.08333333328,
      "d": 1000,
      "v": 112
    },
    {
      "midi": 66,
      "hit": false,
      "t": 90493.74999999996,
      "d": 495.8333333333285,
      "v": 84
    },
    {
      "midi": 65,
      "hit": false,
      "t": 91002.08333333328,
      "d": 958.3333333333285,
      "v": 88
    },
    {
      "midi": 67,
      "hit": false,
      "t": 91962.49999999994,
      "d": 843.75,
      "v": 76
    },
    {
      "midi": 67,
      "hit": false,
      "t": 93485.41666666661,
      "d": 145.83333333334303,
      "v": 88
    },
    {
      "midi": 69,
      "hit": false,
      "t": 93608.33333333328,
      "d": 166.66666666667152,
      "v": 96
    },
    {
      "midi": 70,
      "hit": false,
      "t": 93741.66666666663,
      "d": 160.41666666665697,
      "v": 108
    },
    {
      "midi": 71,
      "hit": false,
      "t": 93927.08333333328,
      "d": 156.25,
      "v": 104
    },
    {
      "midi": 72,
      "hit": false,
      "t": 94097.91666666661,
      "d": 195.83333333332848,
      "v": 80
    },
    {
      "midi": 73,
      "hit": false,
      "t": 94262.49999999994,
      "d": 156.25,
      "v": 84
    },
    {
      "midi": 74,
      "hit": false,
      "t": 94449.99999999994,
      "d": 143.75,
      "v": 84
    },
    {
      "midi": 75,
      "hit": false,
      "t": 94593.74999999994,
      "d": 147.91666666667152,
      "v": 108
    },
    {
      "midi": 76,
      "hit": false,
      "t": 94756.24999999994,
      "d": 181.25,
      "v": 84
    },
    {
      "midi": 77,
      "hit": false,
      "t": 94962.49999999994,
      "d": 989.5833333333285,
      "v": 108
    },
    {
      "midi": 80,
      "hit": false,
      "t": 96999.99999999994,
      "d": 500,
      "v": 112
    },
    {
      "midi": 75,
      "hit": false,
      "t": 97499.99999999994,
      "d": 204.16666666667152,
      "v": 44
    },
    {
      "midi": 78,
      "hit": false,
      "t": 97999.99999999994,
      "d": 1118.75,
      "v": 100
    },
    {
      "midi": 82,
      "hit": false,
      "t": 99493.74999999994,
      "d": 122.91666666667152,
      "v": 108
    },
    {
      "midi": 81,
      "hit": false,
      "t": 99572.91666666661,
      "d": 116.66666666667152,
      "v": 88
    },
    {
      "midi": 80,
      "hit": false,
      "t": 99697.91666666661,
      "d": 114.58333333332848,
      "v": 104
    },
    {
      "midi": 79,
      "hit": false,
      "t": 99827.08333333327,
      "d": 102.08333333332848,
      "v": 100
    },
    {
      "midi": 78,
      "hit": false,
      "t": 99929.1666666666,
      "d": 108.33333333332848,
      "v": 108
    },
    {
      "midi": 63,
      "hit": false,
      "t": 101041.6666666666,
      "d": 150,
      "v": 92
    },
    {
      "midi": 75,
      "hit": false,
      "t": 102077.08333333327,
      "d": 279.1666666666715,
      "v": 112
    },
    {
      "midi": 77,
      "hit": false,
      "t": 102377.08333333327,
      "d": 320.8333333333285,
      "v": 92
    },
    {
      "midi": 73,
      "hit": false,
      "t": 102672.9166666666,
      "d": 368.75,
      "v": 100
    },
    {
      "midi": 75,
      "hit": false,
      "t": 103031.24999999993,
      "d": 347.9166666666715,
      "v": 108
    },
    {
      "midi": 72,
      "hit": false,
      "t": 103356.24999999993,
      "d": 343.75000000001455,
      "v": 92
    },
    {
      "midi": 73,
      "hit": false,
      "t": 103689.58333333327,
      "d": 337.5,
      "v": 100
    },
    {
      "midi": 74,
      "hit": false,
      "t": 104024.99999999994,
      "d": 1427.0833333333285,
      "v": 92
    },
    {
      "midi": 87,
      "hit": false,
      "t": 108999.99999999994,
      "d": 979.1666666666715,
      "v": 116
    },
    {
      "midi": 80,
      "hit": false,
      "t": 109979.16666666661,
      "d": 718.75,
      "v": 112
    },
    {
      "midi": 78,
      "hit": false,
      "t": 111027.08333333328,
      "d": 256.25,
      "v": 80
    },
    {
      "midi": 77,
      "hit": false,
      "t": 111252.08333333328,
      "d": 218.75,
      "v": 92
    },
    {
      "midi": 78,
      "hit": false,
      "t": 111504.16666666661,
      "d": 287.5,
      "v": 124
    },
    {
      "midi": 80,
      "hit": false,
      "t": 111749.99999999994,
      "d": 312.5,
      "v": 100
    },
    {
      "midi": 75,
      "hit": false,
      "t": 112024.99999999994,
      "d": 547.9166666666715,
      "v": 112
    },
    {
      "midi": 73,
      "hit": false,
      "t": 113002.08333333328,
      "d": 93.75,
      "v": 112
    },
    {
      "midi": 75,
      "hit": false,
      "t": 113114.58333333328,
      "d": 108.33333333332848,
      "v": 88
    },
    {
      "midi": 73,
      "hit": false,
      "t": 113166.66666666661,
      "d": 93.75,
      "v": 88
    },
    {
      "midi": 72,
      "hit": false,
      "t": 113272.91666666661,
      "d": 208.33333333332848,
      "v": 88
    },
    {
      "midi": 71,
      "hit": false,
      "t": 113502.08333333327,
      "d": 247.91666666667152,
      "v": 96
    },
    {
      "midi": 70,
      "hit": false,
      "t": 113720.83333333327,
      "d": 272.9166666666715,
      "v": 88
    },
    {
      "midi": 69,
      "hit": false,
      "t": 114006.24999999994,
      "d": 289.58333333334303,
      "v": 92
    },
    {
      "midi": 68,
      "hit": false,
      "t": 114241.66666666661,
      "d": 241.66666666667152,
      "v": 84
    },
    {
      "midi": 67,
      "hit": false,
      "t": 114512.49999999996,
      "d": 247.91666666667152,
      "v": 84
    },
    {
      "midi": 66,
      "hit": false,
      "t": 114749.99999999996,
      "d": 250,
      "v": 92
    },
    {
      "midi": 65,
      "hit": false,
      "t": 115016.66666666663,
      "d": 316.66666666665697,
      "v": 92
    },
    {
      "midi": 64,
      "hit": false,
      "t": 115256.24999999996,
      "d": 279.16666666665697,
      "v": 84
    },
    {
      "midi": 63,
      "hit": false,
      "t": 115510.41666666661,
      "d": 241.66666666665697,
      "v": 72
    },
    {
      "midi": 62,
      "hit": false,
      "t": 115749.99999999994,
      "d": 241.66666666665697,
      "v": 72
    },
    {
      "midi": 60,
      "hit": false,
      "t": 115999.99999999993,
      "d": 1631.25,
      "v": 68
    },
    {
      "midi": 92,
      "hit": false,
      "t": 121724.99999999993,
      "d": 91.66666666667152,
      "v": 48
    },
    {
      "midi": 92,
      "hit": false,
      "t": 121972.9166666666,
      "d": 329.1666666666715,
      "v": 100
    },
    {
      "midi": 92,
      "hit": false,
      "t": 122337.49999999994,
      "d": 256.25,
      "v": 44
    },
    {
      "midi": 92,
      "hit": false,
      "t": 122668.74999999994,
      "d": 356.25,
      "v": 80
    },
    {
      "midi": 85,
      "hit": false,
      "t": 122962.49999999994,
      "d": 385.41666666665697,
      "v": 100
    },
    {
      "midi": 87,
      "hit": false,
      "t": 123345.83333333327,
      "d": 341.66666666665697,
      "v": 104
    },
    {
      "midi": 86,
      "hit": false,
      "t": 123679.1666666666,
      "d": 393.75,
      "v": 84
    },
    {
      "midi": 84,
      "hit": false,
      "t": 124035.4166666666,
      "d": 2335.4166666666715,
      "v": 100
    },
    {
      "midi": 80,
      "hit": false,
      "t": 129610.4166666666,
      "d": 104.16666666665697,
      "v": 120
    },
    {
      "midi": 77,
      "hit": false,
      "t": 129712.49999999993,
      "d": 154.16666666665697,
      "v": 100
    },
    {
      "midi": 74,
      "hit": false,
      "t": 129802.08333333326,
      "d": 199.99999999998545,
      "v": 84
    },
    {
      "midi": 71,
      "hit": false,
      "t": 129937.49999999991,
      "d": 200,
      "v": 100
    },
    {
      "midi": 83,
      "hit": false,
      "t": 130083.33333333324,
      "d": 1368.7500000000146,
      "v": 116
    },
    {
      "midi": 77,
      "hit": false,
      "t": 131999.9999999999,
      "d": 312.5,
      "v": 92
    },
    {
      "midi": 69,
      "hit": false,
      "t": 133802.08333333326,
      "d": 181.25,
      "v": 48
    },
    {
      "midi": 75,
      "hit": false,
      "t": 134006.2499999999,
      "d": 516.666666666657,
      "v": 76
    },
    {
      "midi": 74,
      "hit": false,
      "t": 134516.66666666657,
      "d": 510.41666666665697,
      "v": 84
    },
    {
      "midi": 73,
      "hit": false,
      "t": 135031.24999999988,
      "d": 950,
      "v": 96
    },
    {
      "midi": 72,
      "hit": false,
      "t": 135999.99999999988,
      "d": 985.416666666657,
      "v": 92
    },
    {
      "midi": 72,
      "hit": false,
      "t": 137543.74999999988,
      "d": 114.58333333334303,
      "v": 76
    },
    {
      "midi": 73,
      "hit": false,
      "t": 137689.58333333323,
      "d": 143.75,
      "v": 68
    },
    {
      "midi": 74,
      "hit": false,
      "t": 137824.99999999988,
      "d": 143.75,
      "v": 92
    },
    {
      "midi": 75,
      "hit": false,
      "t": 137999.99999999988,
      "d": 531.25,
      "v": 96
    },
    {
      "midi": 74,
      "hit": false,
      "t": 138531.24999999988,
      "d": 427.08333333334303,
      "v": 100
    },
    {
      "midi": 73,
      "hit": false,
      "t": 138989.58333333323,
      "d": 512.5,
      "v": 100
    },
    {
      "midi": 74,
      "hit": false,
      "t": 139516.66666666657,
      "d": 1475,
      "v": 100
    },
    {
      "midi": 79,
      "hit": false,
      "t": 139999.9999999999,
      "d": 1472.9166666666279,
      "v": 100
    },
    {
      "midi": 74,
      "hit": false,
      "t": 141239.58333333323,
      "d": 160.41666666665697,
      "v": 84
    },
    {
      "midi": 81,
      "hit": false,
      "t": 141460.41666666654,
      "d": 477.08333333334303,
      "v": 108
    },
    {
      "midi": 79,
      "hit": false,
      "t": 141960.41666666654,
      "d": 2658.333333333343,
      "v": 68
    },
    {
      "midi": 79,
      "hit": false,
      "t": 145806.24999999988,
      "d": 83.33333333334303,
      "v": 68
    },
    {
      "midi": 81,
      "hit": false,
      "t": 146037.49999999988,
      "d": 193.75,
      "v": 108
    },
    {
      "midi": 82,
      "hit": false,
      "t": 146179.16666666654,
      "d": 166.66666666668607,
      "v": 104
    },
    {
      "midi": 81,
      "hit": false,
      "t": 146318.74999999988,
      "d": 245.83333333334303,
      "v": 76
    },
    {
      "midi": 79,
      "hit": false,
      "t": 146558.33333333323,
      "d": 247.91666666665697,
      "v": 96
    },
    {
      "midi": 81,
      "hit": false,
      "t": 146833.33333333323,
      "d": 189.58333333334303,
      "v": 92
    },
    {
      "midi": 82,
      "hit": false,
      "t": 147110.41666666657,
      "d": 83.33333333334303,
      "v": 76
    },
    {
      "midi": 83,
      "hit": false,
      "t": 147149.9999999999,
      "d": 308.33333333334303,
      "v": 84
    },
    {
      "midi": 86,
      "hit": false,
      "t": 147452.08333333326,
      "d": 214.58333333334303,
      "v": 92
    },
    {
      "midi": 86,
      "hit": false,
      "t": 147739.58333333326,
      "d": 202.08333333334303,
      "v": 92
    },
    {
      "midi": 86,
      "hit": false,
      "t": 148047.9166666666,
      "d": 383.33333333331393,
      "v": 108
    },
    {
      "midi": 81,
      "hit": false,
      "t": 148402.08333333326,
      "d": 1381.25,
      "v": 100
    },
    {
      "midi": 82,
      "hit": false,
      "t": 152979.1666666666,
      "d": 83.33333333334303,
      "v": 84
    },
    {
      "midi": 83,
      "hit": false,
      "t": 153047.9166666666,
      "d": 275,
      "v": 88
    },
    {
      "midi": 86,
      "hit": false,
      "t": 153281.24999999994,
      "d": 325,
      "v": 80
    },
    {
      "midi": 85,
      "hit": false,
      "t": 153543.74999999994,
      "d": 264.58333333331393,
      "v": 84
    },
    {
      "midi": 84,
      "hit": false,
      "t": 153785.4166666666,
      "d": 227.08333333331393,
      "v": 92
    },
    {
      "midi": 83,
      "hit": false,
      "t": 154031.2499999999,
      "d": 272.91666666668607,
      "v": 84
    },
    {
      "midi": 84,
      "hit": false,
      "t": 154283.33333333326,
      "d": 270.83333333334303,
      "v": 84
    },
    {
      "midi": 85,
      "hit": false,
      "t": 154531.24999999994,
      "d": 204.16666666665697,
      "v": 100
    },
    {
      "midi": 86,
      "hit": false,
      "t": 154760.4166666666,
      "d": 337.5,
      "v": 96
    },
    {
      "midi": 93,
      "hit": false,
      "t": 154999.99999999994,
      "d": 764.5833333333139,
      "v": 100
    },
    {
      "midi": 89,
      "hit": false,
      "t": 155999.9999999999,
      "d": 1347.916666666657,
      "v": 108
    },
    {
      "midi": 82,
      "hit": false,
      "t": 158489.58333333323,
      "d": 345.83333333331393,
      "v": 108
    },
    {
      "midi": 75,
      "hit": false,
      "t": 158762.49999999988,
      "d": 239.58333333331393,
      "v": 100
    },
    {
      "midi": 80,
      "hit": false,
      "t": 159056.24999999985,
      "d": 925,
      "v": 108
    },
    {
      "midi": 80,
      "hit": false,
      "t": 161512.49999999985,
      "d": 264.58333333334303,
      "v": 108
    },
    {
      "midi": 73,
      "hit": false,
      "t": 161752.0833333332,
      "d": 164.58333333334303,
      "v": 108
    },
    {
      "midi": 78,
      "hit": false,
      "t": 162033.3333333332,
      "d": 991.666666666657,
      "v": 112
    },
    {
      "midi": 77,
      "hit": false,
      "t": 163006.24999999985,
      "d": 945.833333333343,
      "v": 96
    },
    {
      "midi": 75,
      "hit": false,
      "t": 166324.99999999985,
      "d": 83.33333333331393,
      "v": 104
    },
    {
      "midi": 74,
      "hit": false,
      "t": 166385.4166666665,
      "d": 104.16666666665697,
      "v": 104
    },
    {
      "midi": 73,
      "hit": false,
      "t": 166474.99999999983,
      "d": 322.91666666665697,
      "v": 124
    },
    {
      "midi": 72,
      "hit": false,
      "t": 166787.49999999983,
      "d": 312.5,
      "v": 92
    },
    {
      "midi": 71,
      "hit": false,
      "t": 167072.91666666648,
      "d": 256.25,
      "v": 100
    },
    {
      "midi": 72,
      "hit": false,
      "t": 167316.66666666648,
      "d": 220.83333333334303,
      "v": 96
    },
    {
      "midi": 73,
      "hit": false,
      "t": 167524.99999999983,
      "d": 229.16666666668607,
      "v": 104
    },
    {
      "midi": 74,
      "hit": false,
      "t": 167739.58333333317,
      "d": 231.25,
      "v": 84
    },
    {
      "midi": 75,
      "hit": false,
      "t": 167985.4166666665,
      "d": 1081.25,
      "v": 92
    },
    {
      "midi": 78,
      "hit": false,
      "t": 169999.99999999985,
      "d": 495.83333333334303,
      "v": 112
    },
    {
      "midi": 74,
      "hit": false,
      "t": 170499.99999999985,
      "d": 385.41666666665697,
      "v": 92
    },
    {
      "midi": 82,
      "hit": false,
      "t": 171002.08333333317,
      "d": 989.583333333343,
      "v": 104
    },
    {
      "midi": 77,
      "hit": false,
      "t": 172499.99999999985,
      "d": 231.25,
      "v": 56
    },
    {
      "midi": 78,
      "hit": false,
      "t": 172749.99999999985,
      "d": 266.66666666665697,
      "v": 92
    },
    {
      "midi": 77,
      "hit": false,
      "t": 172949.99999999985,
      "d": 810.416666666657,
      "v": 124
    },
    {
      "midi": 77,
      "hit": false,
      "t": 174999.99999999985,
      "d": 989.583333333343,
      "v": 116
    },
    {
      "midi": 78,
      "hit": false,
      "t": 175999.99999999985,
      "d": 1397.916666666657,
      "v": 108
    },
    {
      "midi": 68,
      "hit": false,
      "t": 180295.83333333317,
      "d": 437.5,
      "v": 112
    },
    {
      "midi": 75,
      "hit": false,
      "t": 180656.24999999983,
      "d": 329.16666666668607,
      "v": 116
    },
    {
      "midi": 80,
      "hit": false,
      "t": 181041.6666666665,
      "d": 272.91666666665697,
      "v": 108
    },
    {
      "midi": 82,
      "hit": false,
      "t": 181410.4166666665,
      "d": 291.66666666665697,
      "v": 104
    },
    {
      "midi": 80,
      "hit": false,
      "t": 181712.49999999983,
      "d": 229.16666666665697,
      "v": 112
    },
    {
      "midi": 82,
      "hit": false,
      "t": 182037.49999999983,
      "d": 337.5,
      "v": 116
    },
    {
      "midi": 77,
      "hit": false,
      "t": 182374.99999999983,
      "d": 322.91666666665697,
      "v": 112
    },
    {
      "midi": 80,
      "hit": false,
      "t": 182668.74999999983,
      "d": 345.83333333331393,
      "v": 116
    },
    {
      "midi": 80,
      "hit": false,
      "t": 183749.9999999998,
      "d": 141.66666666665697,
      "v": 108
    },
    {
      "midi": 75,
      "hit": false,
      "t": 183999.9999999998,
      "d": 391.66666666665697,
      "v": 120
    },
    {
      "midi": 75,
      "hit": false,
      "t": 184439.5833333331,
      "d": 541.666666666657,
      "v": 104
    },
    {
      "midi": 73,
      "hit": false,
      "t": 185002.0833333331,
      "d": 733.333333333343,
      "v": 124
    },
    {
      "midi": 84,
      "hit": false,
      "t": 189733.3333333331,
      "d": 116.66666666665697,
      "v": 52
    },
    {
      "midi": 85,
      "hit": false,
      "t": 189827.0833333331,
      "d": 137.5,
      "v": 96
    },
    {
      "midi": 84,
      "hit": false,
      "t": 189943.74999999977,
      "d": 1670.833333333343,
      "v": 108
    },
    {
      "midi": 83,
      "hit": false,
      "t": 193295.8333333331,
      "d": 377.08333333334303,
      "v": 84
    },
    {
      "midi": 85,
      "hit": false,
      "t": 193658.3333333331,
      "d": 393.75,
      "v": 92
    },
    {
      "midi": 83,
      "hit": false,
      "t": 194033.3333333331,
      "d": 347.91666666668607,
      "v": 92
    },
    {
      "midi": 86,
      "hit": false,
      "t": 194379.16666666645,
      "d": 381.25,
      "v": 88
    },
    {
      "midi": 83,
      "hit": false,
      "t": 194699.9999999998,
      "d": 320.83333333331393,
      "v": 80
    },
    {
      "midi": 82,
      "hit": false,
      "t": 195035.41666666645,
      "d": 370.83333333331393,
      "v": 88
    },
    {
      "midi": 83,
      "hit": false,
      "t": 195402.0833333331,
      "d": 785.416666666657,
      "v": 92
    },
    {
      "midi": 84,
      "hit": false,
      "t": 197999.99999999977,
      "d": 593.7499999999709,
      "v": 88
    },
    {
      "midi": 77,
      "hit": false,
      "t": 198272.91666666642,
      "d": 295.83333333331393,
      "v": 76
    },
    {
      "midi": 78,
      "hit": false,
      "t": 198527.08333333308,
      "d": 297.91666666665697,
      "v": 68
    },
    {
      "midi": 84,
      "hit": false,
      "t": 198806.24999999974,
      "d": 293.75,
      "v": 92
    },
    {
      "midi": 72,
      "hit": false,
      "t": 199095.83333333308,
      "d": 1327.083333333314,
      "v": 96
    },
    {
      "midi": 80,
      "hit": false,
      "t": 203002.08333333305,
      "d": 243.75,
      "v": 108
    },
    {
      "midi": 81,
      "hit": false,
      "t": 203243.7499999997,
      "d": 237.5,
      "v": 72
    },
    {
      "midi": 82,
      "hit": false,
      "t": 203499.9999999997,
      "d": 250,
      "v": 88
    },
    {
      "midi": 83,
      "hit": false,
      "t": 203752.08333333305,
      "d": 302.08333333334303,
      "v": 64
    },
    {
      "midi": 84,
      "hit": false,
      "t": 204047.9166666664,
      "d": 1816.666666666657,
      "v": 92
    },
    {
      "midi": 86,
      "hit": false,
      "t": 206510.4166666664,
      "d": 545.833333333343,
      "v": 92
    },
    {
      "midi": 83,
      "hit": false,
      "t": 207047.9166666664,
      "d": 487.5,
      "v": 84
    },
    {
      "midi": 86,
      "hit": false,
      "t": 207535.4166666664,
      "d": 497.91666666665697,
      "v": 76
    },
    {
      "midi": 83,
      "hit": false,
      "t": 208047.9166666664,
      "d": 1516.666666666686,
      "v": 88
    },
    {
      "midi": 82,
      "hit": false,
      "t": 209556.24999999974,
      "d": 179.16666666665697,
      "v": 56
    },
    {
      "midi": 81,
      "hit": false,
      "t": 209637.49999999974,
      "d": 127.08333333331393,
      "v": 92
    },
    {
      "midi": 80,
      "hit": false,
      "t": 209745.83333333305,
      "d": 177.08333333334303,
      "v": 108
    },
    {
      "midi": 79,
      "hit": false,
      "t": 209931.24999999974,
      "d": 606.25,
      "v": 76
    },
    {
      "midi": 78,
      "hit": false,
      "t": 210499.99999999974,
      "d": 533.333333333343,
      "v": 92
    },
    {
      "midi": 77,
      "hit": false,
      "t": 211045.83333333308,
      "d": 550,
      "v": 80
    },
    {
      "midi": 76,
      "hit": false,
      "t": 211583.33333333308,
      "d": 506.25,
      "v": 76
    },
    {
      "midi": 74,
      "hit": false,
      "t": 212099.99999999974,
      "d": 1483.333333333343,
      "v": 92
    },
    {
      "midi": 70,
      "hit": false,
      "t": 214020.83333333308,
      "d": 83.33333333334303,
      "v": 104
    },
    {
      "midi": 71,
      "hit": false,
      "t": 214047.91666666642,
      "d": 352.08333333334303,
      "v": 84
    },
    {
      "midi": 74,
      "hit": false,
      "t": 214397.91666666642,
      "d": 606.25,
      "v": 100
    },
    {
      "midi": 69,
      "hit": false,
      "t": 215054.16666666642,
      "d": 364.58333333334303,
      "v": 84
    },
    {
      "midi": 67,
      "hit": false,
      "t": 215416.66666666642,
      "d": 295.83333333334303,
      "v": 68
    },
    {
      "midi": 66,
      "hit": false,
      "t": 215704.16666666642,
      "d": 247.91666666668607,
      "v": 80
    },
    {
      "midi": 67,
      "hit": false,
      "t": 216058.3333333331,
      "d": 279.16666666665697,
      "v": 84
    },
    {
      "midi": 69,
      "hit": false,
      "t": 216327.0833333331,
      "d": 356.25,
      "v": 76
    },
    {
      "midi": 62,
      "hit": false,
      "t": 216649.99999999977,
      "d": 766.6666666666861,
      "v": 92
    },
    {
      "midi": 62,
      "hit": false,
      "t": 218754.16666666645,
      "d": 145.83333333331393,
      "v": 96
    },
    {
      "midi": 66,
      "hit": false,
      "t": 218839.5833333331,
      "d": 133.33333333334303,
      "v": 76
    },
    {
      "midi": 69,
      "hit": false,
      "t": 218902.0833333331,
      "d": 152.08333333334303,
      "v": 100
    },
    {
      "midi": 74,
      "hit": false,
      "t": 219004.16666666645,
      "d": 495.83333333334303,
      "v": 116
    },
    {
      "midi": 72,
      "hit": false,
      "t": 219522.91666666645,
      "d": 356.25,
      "v": 108
    },
    {
      "midi": 71,
      "hit": false,
      "t": 220066.66666666645,
      "d": 318.75,
      "v": 112
    },
    {
      "midi": 76,
      "hit": false,
      "t": 220389.5833333331,
      "d": 258.33333333334303,
      "v": 116
    },
    {
      "midi": 76,
      "hit": false,
      "t": 220704.16666666645,
      "d": 279.16666666665697,
      "v": 108
    },
    {
      "midi": 74,
      "hit": false,
      "t": 221035.41666666645,
      "d": 256.25,
      "v": 104
    },
    {
      "midi": 76,
      "hit": false,
      "t": 221349.9999999998,
      "d": 258.33333333334303,
      "v": 96
    },
    {
      "midi": 71,
      "hit": false,
      "t": 221689.58333333314,
      "d": 314.58333333334303,
      "v": 92
    },
    {
      "midi": 74,
      "hit": false,
      "t": 222022.91666666648,
      "d": 354.16666666665697,
      "v": 112
    },
    {
      "midi": 69,
      "hit": false,
      "t": 222408.33333333314,
      "d": 1066.666666666657,
      "v": 92
    },
    {
      "midi": 68,
      "hit": false,
      "t": 225749.9999999998,
      "d": 120.83333333331393,
      "v": 76
    },
    {
      "midi": 69,
      "hit": false,
      "t": 225835.41666666645,
      "d": 137.5,
      "v": 84
    },
    {
      "midi": 70,
      "hit": false,
      "t": 225972.91666666645,
      "d": 127.08333333334303,
      "v": 112
    },
    {
      "midi": 71,
      "hit": false,
      "t": 226099.9999999998,
      "d": 102.08333333334303,
      "v": 108
    },
    {
      "midi": 74,
      "hit": false,
      "t": 226256.2499999998,
      "d": 1756.25,
      "v": 112
    },
    {
      "midi": 79,
      "hit": false,
      "t": 228462.4999999998,
      "d": 883.333333333343,
      "v": 92
    },
    {
      "midi": 78,
      "hit": false,
      "t": 229345.83333333314,
      "d": 327.08333333334303,
      "v": 100
    },
    {
      "midi": 74,
      "hit": false,
      "t": 229666.66666666648,
      "d": 804.166666666657,
      "v": 88
    },
    {
      "midi": 71,
      "hit": false,
      "t": 230495.83333333314,
      "d": 354.16666666665697,
      "v": 52
    },
    {
      "midi": 74,
      "hit": false,
      "t": 230781.2499999998,
      "d": 193.75,
      "v": 76
    },
    {
      "midi": 74,
      "hit": false,
      "t": 231068.7499999998,
      "d": 527.0833333333139,
      "v": 108
    },
    {
      "midi": 67,
      "hit": false,
      "t": 231504.16666666645,
      "d": 189.58333333331393,
      "v": 40
    },
    {
      "midi": 67,
      "hit": false,
      "t": 231802.0833333331,
      "d": 1054.166666666657,
      "v": 84
    },
    {
      "midi": 66,
      "hit": false,
      "t": 233416.66666666642,
      "d": 120.83333333331393,
      "v": 32
    },
    {
      "midi": 67,
      "hit": false,
      "t": 233527.08333333308,
      "d": 133.33333333331393,
      "v": 68
    },
    {
      "midi": 68,
      "hit": false,
      "t": 233683.33333333305,
      "d": 93.75,
      "v": 84
    },
    {
      "midi": 69,
      "hit": false,
      "t": 233797.9166666664,
      "d": 114.58333333334303,
      "v": 100
    },
    {
      "midi": 70,
      "hit": false,
      "t": 233920.83333333308,
      "d": 114.58333333334303,
      "v": 84
    },
    {
      "midi": 71,
      "hit": false,
      "t": 234043.74999999977,
      "d": 327.08333333334303,
      "v": 100
    },
    {
      "midi": 72,
      "hit": false,
      "t": 234389.5833333331,
      "d": 206.25,
      "v": 60
    },
    {
      "midi": 73,
      "hit": false,
      "t": 234783.3333333331,
      "d": 145.83333333334303,
      "v": 24
    },
    {
      "midi": 74,
      "hit": false,
      "t": 234999.9999999998,
      "d": 275,
      "v": 92
    },
    {
      "midi": 75,
      "hit": false,
      "t": 235262.4999999998,
      "d": 229.16666666665697,
      "v": 96
    },
    {
      "midi": 76,
      "hit": false,
      "t": 235504.16666666645,
      "d": 256.25,
      "v": 108
    },
    {
      "midi": 77,
      "hit": false,
      "t": 235762.4999999998,
      "d": 252.08333333334303,
      "v": 92
    },
    {
      "midi": 78,
      "hit": false,
      "t": 236035.41666666648,
      "d": 402.08333333334303,
      "v": 100
    },
    {
      "midi": 78,
      "hit": false,
      "t": 236514.58333333317,
      "d": 241.66666666665697,
      "v": 88
    },
    {
      "midi": 74,
      "hit": false,
      "t": 236793.74999999983,
      "d": 437.5,
      "v": 88
    },
    {
      "midi": 78,
      "hit": false,
      "t": 237270.83333333317,
      "d": 293.75,
      "v": 92
    },
    {
      "midi": 78,
      "hit": false,
      "t": 237637.49999999983,
      "d": 191.66666666665697,
      "v": 84
    },
    {
      "midi": 71,
      "hit": false,
      "t": 237999.99999999983,
      "d": 366.66666666665697,
      "v": 56
    },
    {
      "midi": 74,
      "hit": false,
      "t": 238381.24999999983,
      "d": 354.16666666665697,
      "v": 60
    },
    {
      "midi": 71,
      "hit": false,
      "t": 238724.99999999983,
      "d": 362.5,
      "v": 80
    },
    {
      "midi": 69,
      "hit": false,
      "t": 238999.99999999983,
      "d": 366.66666666665697,
      "v": 80
    },
    {
      "midi": 74,
      "hit": false,
      "t": 239422.91666666648,
      "d": 318.75,
      "v": 80
    },
    {
      "midi": 70,
      "hit": false,
      "t": 239731.24999999983,
      "d": 312.5,
      "v": 20
    },
    {
      "midi": 69,
      "hit": false,
      "t": 240054.16666666648,
      "d": 1020.833333333343,
      "v": 80
    },
    {
      "midi": 60,
      "hit": false,
      "t": 242724.99999999983,
      "d": 93.75,
      "v": 68
    },
    {
      "midi": 62,
      "hit": false,
      "t": 242791.66666666648,
      "d": 135.41666666668607,
      "v": 92
    },
    {
      "midi": 64,
      "hit": false,
      "t": 242858.33333333317,
      "d": 133.33333333334303,
      "v": 100
    },
    {
      "midi": 69,
      "hit": false,
      "t": 243012.49999999985,
      "d": 539.583333333343,
      "v": 116
    },
    {
      "midi": 67,
      "hit": false,
      "t": 243552.0833333332,
      "d": 447.91666666665697,
      "v": 96
    },
    {
      "midi": 66,
      "hit": false,
      "t": 244027.0833333332,
      "d": 7343.75,
      "v": 108
    }
  ]
}