{
  "jsonPath": "Rock/French Rock/Calogero/je-vis-ou-tu-mas-laisse.json",
  "path": "Rock\\French Rock\\Calogero\\Je Vis Où Tu MAs Laissé.mid",
  "name": "Je Vis Où Tu MAs Laissé",
  "difficulty": "Advanced",
  "bpm": 97.00010993345792,
  "notes": [
    {
      "midi": 76,
      "hit": false,
      "t": 2474.224,
      "d": 2439.430225,
      "v": 86
    },
    {
      "midi": 71,
      "hit": false,
      "t": 2474.224,
      "d": 2443.2961999999998,
      "v": 79
    },
    {
      "midi": 52,
      "hit": false,
      "t": 2474.224,
      "d": 2454.894125,
      "v": 87
    },
    {
      "midi": 67,
      "hit": false,
      "t": 2474.224,
      "d": 2458.7600999999995,
      "v": 74
    },
    {
      "midi": 74,
      "hit": false,
      "t": 2474.224,
      "d": 2458.7600999999995,
      "v": 59
    },
    {
      "midi": 74,
      "hit": false,
      "t": 4948.447999999999,
      "d": 137.88644166666654,
      "v": 79
    },
    {
      "midi": 66,
      "hit": false,
      "t": 5096.643708333333,
      "d": 137.88644166666654,
      "v": 78
    },
    {
      "midi": 69,
      "hit": false,
      "t": 5251.282708333333,
      "d": 137.88644166666654,
      "v": 78
    },
    {
      "midi": 74,
      "hit": false,
      "t": 5405.921708333333,
      "d": 137.88644166666654,
      "v": 79
    },
    {
      "midi": 66,
      "hit": false,
      "t": 5560.560708333333,
      "d": 137.88644166666654,
      "v": 77
    },
    {
      "midi": 69,
      "hit": false,
      "t": 5715.199708333334,
      "d": 137.88644166666654,
      "v": 76
    },
    {
      "midi": 74,
      "hit": false,
      "t": 5869.838708333334,
      "d": 137.88644166666654,
      "v": 76
    },
    {
      "midi": 66,
      "hit": false,
      "t": 6024.477708333334,
      "d": 137.88644166666654,
      "v": 77
    },
    {
      "midi": 69,
      "hit": false,
      "t": 6179.116708333334,
      "d": 137.88644166666654,
      "v": 77
    },
    {
      "midi": 74,
      "hit": false,
      "t": 6333.755708333334,
      "d": 137.88644166666654,
      "v": 74
    },
    {
      "midi": 66,
      "hit": false,
      "t": 6488.394708333334,
      "d": 137.88644166666654,
      "v": 74
    },
    {
      "midi": 69,
      "hit": false,
      "t": 6643.033708333334,
      "d": 137.88644166666654,
      "v": 75
    },
    {
      "midi": 74,
      "hit": false,
      "t": 6797.672708333334,
      "d": 137.88644166666654,
      "v": 74
    },
    {
      "midi": 66,
      "hit": false,
      "t": 6952.3117083333345,
      "d": 137.88644166666654,
      "v": 75
    },
    {
      "midi": 69,
      "hit": false,
      "t": 7106.950708333335,
      "d": 137.88644166666654,
      "v": 73
    },
    {
      "midi": 74,
      "hit": false,
      "t": 7261.589708333335,
      "d": 137.88644166666654,
      "v": 72
    },
    {
      "midi": 66,
      "hit": false,
      "t": 7416.228708333335,
      "d": 137.88644166666654,
      "v": 73
    },
    {
      "midi": 69,
      "hit": false,
      "t": 7570.867708333335,
      "d": 137.88644166666654,
      "v": 72
    },
    {
      "midi": 74,
      "hit": false,
      "t": 7725.506708333335,
      "d": 137.88644166666654,
      "v": 72
    },
    {
      "midi": 66,
      "hit": false,
      "t": 7880.145708333335,
      "d": 137.88644166666654,
      "v": 71
    },
    {
      "midi": 69,
      "hit": false,
      "t": 8034.784708333335,
      "d": 137.88644166666654,
      "v": 71
    },
    {
      "midi": 74,
      "hit": false,
      "t": 8189.4237083333355,
      "d": 137.88644166666745,
      "v": 70
    },
    {
      "midi": 66,
      "hit": false,
      "t": 8344.062708333337,
      "d": 137.88644166666745,
      "v": 70
    },
    {
      "midi": 69,
      "hit": false,
      "t": 8498.701708333338,
      "d": 137.88644166666745,
      "v": 71
    },
    {
      "midi": 74,
      "hit": false,
      "t": 8653.340708333339,
      "d": 137.88644166666745,
      "v": 69
    },
    {
      "midi": 66,
      "hit": false,
      "t": 8807.97970833334,
      "d": 137.88644166666745,
      "v": 68
    },
    {
      "midi": 69,
      "hit": false,
      "t": 8962.61870833334,
      "d": 137.88644166666745,
      "v": 68
    },
    {
      "midi": 74,
      "hit": false,
      "t": 9117.257708333342,
      "d": 137.88644166666745,
      "v": 69
    },
    {
      "midi": 66,
      "hit": false,
      "t": 9271.896708333343,
      "d": 137.88644166666745,
      "v": 68
    },
    {
      "midi": 69,
      "hit": false,
      "t": 9426.535708333344,
      "d": 137.88644166666745,
      "v": 67
    },
    {
      "midi": 74,
      "hit": false,
      "t": 9581.174708333345,
      "d": 137.88644166666745,
      "v": 67
    },
    {
      "midi": 66,
      "hit": false,
      "t": 9735.813708333346,
      "d": 137.88644166666745,
      "v": 66
    },
    {
      "midi": 74,
      "hit": false,
      "t": 9890.452708333347,
      "d": 137.88644166666745,
      "v": 63
    },
    {
      "midi": 67,
      "hit": false,
      "t": 10045.091708333348,
      "d": 137.88644166666745,
      "v": 60
    },
    {
      "midi": 69,
      "hit": false,
      "t": 10199.730708333349,
      "d": 137.88644166666745,
      "v": 58
    },
    {
      "midi": 74,
      "hit": false,
      "t": 10354.36970833335,
      "d": 137.88644166666745,
      "v": 59
    },
    {
      "midi": 67,
      "hit": false,
      "t": 10509.008708333351,
      "d": 137.88644166666745,
      "v": 59
    },
    {
      "midi": 69,
      "hit": false,
      "t": 10663.647708333352,
      "d": 137.88644166666745,
      "v": 58
    },
    {
      "midi": 74,
      "hit": false,
      "t": 10818.286708333353,
      "d": 137.88644166666745,
      "v": 56
    },
    {
      "midi": 67,
      "hit": false,
      "t": 10972.925708333354,
      "d": 137.88644166666745,
      "v": 57
    },
    {
      "midi": 69,
      "hit": false,
      "t": 11127.564708333355,
      "d": 137.88644166666745,
      "v": 57
    },
    {
      "midi": 74,
      "hit": false,
      "t": 11282.203708333356,
      "d": 137.88644166666745,
      "v": 54
    },
    {
      "midi": 67,
      "hit": false,
      "t": 11436.842708333357,
      "d": 137.88644166666745,
      "v": 54
    },
    {
      "midi": 69,
      "hit": false,
      "t": 11591.481708333358,
      "d": 137.88644166666745,
      "v": 55
    },
    {
      "midi": 74,
      "hit": false,
      "t": 11746.12070833336,
      "d": 137.88644166666745,
      "v": 52
    },
    {
      "midi": 67,
      "hit": false,
      "t": 11900.75970833336,
      "d": 137.88644166666745,
      "v": 53
    },
    {
      "midi": 69,
      "hit": false,
      "t": 12055.398708333361,
      "d": 137.88644166666745,
      "v": 53
    },
    {
      "midi": 74,
      "hit": false,
      "t": 12210.037708333362,
      "d": 137.88644166666745,
      "v": 52
    },
    {
      "midi": 67,
      "hit": false,
      "t": 12364.676708333363,
      "d": 137.88644166666745,
      "v": 51
    },
    {
      "midi": 69,
      "hit": false,
      "t": 12519.315708333364,
      "d": 137.88644166666745,
      "v": 50
    },
    {
      "midi": 74,
      "hit": false,
      "t": 12673.954708333365,
      "d": 137.88644166666745,
      "v": 50
    },
    {
      "midi": 67,
      "hit": false,
      "t": 12828.593708333367,
      "d": 137.88644166666745,
      "v": 49
    },
    {
      "midi": 69,
      "hit": false,
      "t": 12983.232708333368,
      "d": 137.88644166666745,
      "v": 49
    },
    {
      "midi": 74,
      "hit": false,
      "t": 13137.871708333369,
      "d": 137.88644166666745,
      "v": 48
    },
    {
      "midi": 67,
      "hit": false,
      "t": 13292.51070833337,
      "d": 137.88644166666745,
      "v": 48
    },
    {
      "midi": 69,
      "hit": false,
      "t": 13447.14970833337,
      "d": 137.88644166666745,
      "v": 47
    },
    {
      "midi": 74,
      "hit": false,
      "t": 13601.788708333372,
      "d": 137.88644166666745,
      "v": 47
    },
    {
      "midi": 67,
      "hit": false,
      "t": 13756.427708333373,
      "d": 137.88644166666563,
      "v": 46
    },
    {
      "midi": 76,
      "hit": false,
      "t": 13762.87100000004,
      "d": 201.03069999999934,
      "v": 68
    },
    {
      "midi": 69,
      "hit": false,
      "t": 13911.066708333372,
      "d": 137.88644166666745,
      "v": 45
    },
    {
      "midi": 79,
      "hit": false,
      "t": 13917.510000000038,
      "d": 144.32973333333393,
      "v": 68
    },
    {
      "midi": 74,
      "hit": false,
      "t": 14065.705708333373,
      "d": 137.88644166666563,
      "v": 45
    },
    {
      "midi": 81,
      "hit": false,
      "t": 14072.14900000004,
      "d": 113.40193333333264,
      "v": 69
    },
    {
      "midi": 67,
      "hit": false,
      "t": 14220.344708333372,
      "d": 137.88644166666563,
      "v": 44
    },
    {
      "midi": 86,
      "hit": false,
      "t": 14226.788000000039,
      "d": 184.27814166666576,
      "v": 77
    },
    {
      "midi": 69,
      "hit": false,
      "t": 14374.983708333371,
      "d": 137.88644166666563,
      "v": 42
    },
    {
      "midi": 81,
      "hit": false,
      "t": 14381.427000000038,
      "d": 197.16472499999873,
      "v": 68
    },
    {
      "midi": 74,
      "hit": false,
      "t": 14529.62270833337,
      "d": 137.88644166666563,
      "v": 43
    },
    {
      "midi": 79,
      "hit": false,
      "t": 14536.066000000037,
      "d": 161.0822916666657,
      "v": 69
    },
    {
      "midi": 67,
      "hit": false,
      "t": 14684.26170833337,
      "d": 137.88644166666563,
      "v": 42
    },
    {
      "midi": 76,
      "hit": false,
      "t": 14690.705000000036,
      "d": 154.6389999999992,
      "v": 68
    },
    {
      "midi": 74,
      "hit": false,
      "t": 14845.344000000036,
      "d": 137.88644166666745,
      "v": 79
    },
    {
      "midi": 66,
      "hit": false,
      "t": 14993.53970833337,
      "d": 137.88644166666745,
      "v": 79
    },
    {
      "midi": 69,
      "hit": false,
      "t": 15148.178708333371,
      "d": 137.88644166666745,
      "v": 78
    },
    {
      "midi": 74,
      "hit": false,
      "t": 15302.817708333372,
      "d": 137.88644166666745,
      "v": 78
    },
    {
      "midi": 66,
      "hit": false,
      "t": 15457.456708333373,
      "d": 137.88644166666745,
      "v": 77
    },
    {
      "midi": 69,
      "hit": false,
      "t": 15612.095708333374,
      "d": 137.88644166666745,
      "v": 76
    },
    {
      "midi": 74,
      "hit": false,
      "t": 15766.734708333375,
      "d": 137.88644166666745,
      "v": 77
    },
    {
      "midi": 66,
      "hit": false,
      "t": 15921.373708333376,
      "d": 137.88644166666745,
      "v": 77
    },
    {
      "midi": 69,
      "hit": false,
      "t": 16076.012708333377,
      "d": 137.88644166666745,
      "v": 76
    },
    {
      "midi": 74,
      "hit": false,
      "t": 16230.651708333378,
      "d": 137.88644166666745,
      "v": 75
    },
    {
      "midi": 66,
      "hit": false,
      "t": 16385.290708333378,
      "d": 137.88644166666563,
      "v": 74
    },
    {
      "midi": 69,
      "hit": false,
      "t": 16539.929708333377,
      "d": 137.88644166666563,
      "v": 74
    },
    {
      "midi": 74,
      "hit": false,
      "t": 16694.568708333376,
      "d": 137.88644166666563,
      "v": 75
    },
    {
      "midi": 66,
      "hit": false,
      "t": 16849.207708333375,
      "d": 137.88644166666563,
      "v": 75
    },
    {
      "midi": 69,
      "hit": false,
      "t": 17003.846708333374,
      "d": 137.88644166666563,
      "v": 72
    },
    {
      "midi": 74,
      "hit": false,
      "t": 17158.485708333374,
      "d": 137.88644166666563,
      "v": 72
    },
    {
      "midi": 66,
      "hit": false,
      "t": 17313.124708333373,
      "d": 137.88644166666563,
      "v": 73
    },
    {
      "midi": 69,
      "hit": false,
      "t": 17467.763708333372,
      "d": 137.88644166666563,
      "v": 73
    },
    {
      "midi": 74,
      "hit": false,
      "t": 17622.40270833337,
      "d": 137.88644166666563,
      "v": 72
    },
    {
      "midi": 66,
      "hit": false,
      "t": 17777.04170833337,
      "d": 137.88644166666563,
      "v": 70
    },
    {
      "midi": 69,
      "hit": false,
      "t": 17931.68070833337,
      "d": 137.88644166666563,
      "v": 71
    },
    {
      "midi": 74,
      "hit": false,
      "t": 18086.31970833337,
      "d": 137.88644166666563,
      "v": 70
    },
    {
      "midi": 66,
      "hit": false,
      "t": 18240.958708333368,
      "d": 137.88644166666563,
      "v": 71
    },
    {
      "midi": 69,
      "hit": false,
      "t": 18395.597708333367,
      "d": 137.88644166666563,
      "v": 71
    },
    {
      "midi": 74,
      "hit": false,
      "t": 18550.236708333367,
      "d": 137.88644166666563,
      "v": 68
    },
    {
      "midi": 66,
      "hit": false,
      "t": 18704.875708333366,
      "d": 137.88644166666563,
      "v": 69
    },
    {
      "midi": 76,
      "hit": false,
      "t": 18711.319000000032,
      "d": 182.989483333331,
      "v": 68
    },
    {
      "midi": 69,
      "hit": false,
      "t": 18859.514708333365,
      "d": 137.88644166666563,
      "v": 68
    },
    {
      "midi": 79,
      "hit": false,
      "t": 18865.95800000003,
      "d": 150.7730249999986,
      "v": 69
    },
    {
      "midi": 74,
      "hit": false,
      "t": 19014.153708333364,
      "d": 137.88644166666927,
      "v": 69
    },
    {
      "midi": 81,
      "hit": false,
      "t": 19020.59700000003,
      "d": 113.40193333333445,
      "v": 68
    },
    {
      "midi": 66,
      "hit": false,
      "t": 19168.792708333367,
      "d": 137.88644166666563,
      "v": 68
    },
    {
      "midi": 86,
      "hit": false,
      "t": 19175.236000000034,
      "d": 145.61839166666687,
      "v": 77
    },
    {
      "midi": 69,
      "hit": false,
      "t": 19323.431708333366,
      "d": 137.88644166666563,
      "v": 67
    },
    {
      "midi": 81,
      "hit": false,
      "t": 19329.875000000033,
      "d": 170.10289999999804,
      "v": 68
    },
    {
      "midi": 74,
      "hit": false,
      "t": 19478.070708333365,
      "d": 137.88644166666563,
      "v": 66
    },
    {
      "midi": 79,
      "hit": false,
      "t": 19484.514000000032,
      "d": 139.17510000000038,
      "v": 69
    },
    {
      "midi": 66,
      "hit": false,
      "t": 19632.709708333365,
      "d": 137.88644166666563,
      "v": 66
    },
    {
      "midi": 76,
      "hit": false,
      "t": 19639.15300000003,
      "d": 188.14411666666638,
      "v": 69
    },
    {
      "midi": 74,
      "hit": false,
      "t": 19787.348708333364,
      "d": 137.88644166666563,
      "v": 63
    },
    {
      "midi": 67,
      "hit": false,
      "t": 19941.987708333363,
      "d": 137.88644166666563,
      "v": 60
    },
    {
      "midi": 69,
      "hit": false,
      "t": 20096.626708333362,
      "d": 137.88644166666563,
      "v": 59
    },
    {
      "midi": 74,
      "hit": false,
      "t": 20251.26570833336,
      "d": 137.88644166666563,
      "v": 58
    },
    {
      "midi": 67,
      "hit": false,
      "t": 20405.90470833336,
      "d": 137.88644166666563,
      "v": 58
    },
    {
      "midi": 69,
      "hit": false,
      "t": 20560.54370833336,
      "d": 137.88644166666563,
      "v": 59
    },
    {
      "midi": 74,
      "hit": false,
      "t": 20715.18270833336,
      "d": 137.88644166666563,
      "v": 57
    },
    {
      "midi": 67,
      "hit": false,
      "t": 20869.82170833336,
      "d": 137.88644166666563,
      "v": 56
    },
    {
      "midi": 69,
      "hit": false,
      "t": 21024.460708333358,
      "d": 137.88644166666563,
      "v": 56
    },
    {
      "midi": 74,
      "hit": false,
      "t": 21179.099708333357,
      "d": 137.88644166666563,
      "v": 55
    },
    {
      "midi": 67,
      "hit": false,
      "t": 21333.738708333356,
      "d": 137.88644166666563,
      "v": 55
    },
    {
      "midi": 69,
      "hit": false,
      "t": 21488.377708333355,
      "d": 137.88644166666563,
      "v": 54
    },
    {
      "midi": 74,
      "hit": false,
      "t": 21643.016708333354,
      "d": 137.88644166666563,
      "v": 52
    },
    {
      "midi": 67,
      "hit": false,
      "t": 21797.655708333354,
      "d": 137.88644166666563,
      "v": 53
    },
    {
      "midi": 69,
      "hit": false,
      "t": 21952.294708333353,
      "d": 137.88644166666563,
      "v": 52
    },
    {
      "midi": 74,
      "hit": false,
      "t": 22106.933708333352,
      "d": 137.88644166666563,
      "v": 53
    },
    {
      "midi": 67,
      "hit": false,
      "t": 22261.57270833335,
      "d": 137.88644166666563,
      "v": 51
    },
    {
      "midi": 69,
      "hit": false,
      "t": 22416.21170833335,
      "d": 137.88644166666563,
      "v": 50
    },
    {
      "midi": 74,
      "hit": false,
      "t": 22570.85070833335,
      "d": 137.88644166666563,
      "v": 51
    },
    {
      "midi": 67,
      "hit": false,
      "t": 22725.48970833335,
      "d": 137.88644166666563,
      "v": 48
    },
    {
      "midi": 69,
      "hit": false,
      "t": 22880.12870833335,
      "d": 137.88644166666563,
      "v": 48
    },
    {
      "midi": 74,
      "hit": false,
      "t": 23034.767708333347,
      "d": 137.88644166666563,
      "v": 49
    },
    {
      "midi": 67,
      "hit": false,
      "t": 23189.406708333347,
      "d": 137.88644166666563,
      "v": 49
    },
    {
      "midi": 69,
      "hit": false,
      "t": 23344.045708333346,
      "d": 137.88644166666563,
      "v": 46
    },
    {
      "midi": 74,
      "hit": false,
      "t": 23498.684708333345,
      "d": 137.88644166666563,
      "v": 46
    },
    {
      "midi": 67,
      "hit": false,
      "t": 23653.323708333344,
      "d": 137.88644166666563,
      "v": 47
    },
    {
      "midi": 76,
      "hit": false,
      "t": 23659.76700000001,
      "d": 181.7008249999999,
      "v": 69
    },
    {
      "midi": 69,
      "hit": false,
      "t": 23807.962708333343,
      "d": 137.88644166666563,
      "v": 44
    },
    {
      "midi": 79,
      "hit": false,
      "t": 23814.40600000001,
      "d": 171.3915583333328,
      "v": 68
    },
    {
      "midi": 74,
      "hit": false,
      "t": 23962.601708333343,
      "d": 137.88644166666563,
      "v": 45
    },
    {
      "midi": 81,
      "hit": false,
      "t": 23969.04500000001,
      "d": 97.93803333333199,
      "v": 68
    },
    {
      "midi": 67,
      "hit": false,
      "t": 24117.240708333342,
      "d": 137.88644166666563,
      "v": 45
    },
    {
      "midi": 86,
      "hit": false,
      "t": 24123.68400000001,
      "d": 168.81424166666693,
      "v": 77
    },
    {
      "midi": 69,
      "hit": false,
      "t": 24271.87970833334,
      "d": 137.88644166666927,
      "v": 42
    },
    {
      "midi": 81,
      "hit": false,
      "t": 24278.323000000008,
      "d": 177.83485000000292,
      "v": 69
    },
    {
      "midi": 74,
      "hit": false,
      "t": 24426.518708333344,
      "d": 137.88644166666563,
      "v": 42
    },
    {
      "midi": 79,
      "hit": false,
      "t": 24432.96200000001,
      "d": 144.32973333333211,
      "v": 68
    },
    {
      "midi": 67,
      "hit": false,
      "t": 24581.157708333343,
      "d": 137.88644166666563,
      "v": 43
    },
    {
      "midi": 76,
      "hit": false,
      "t": 24587.60100000001,
      "d": 132.7318083333339,
      "v": 69
    },
    {
      "midi": 69,
      "hit": false,
      "t": 74226.72000000002,
      "d": 122.42254166665953,
      "v": 82
    },
    {
      "midi": 67,
      "hit": false,
      "t": 74374.91570833334,
      "d": 122.42254166665953,
      "v": 84
    },
    {
      "midi": 69,
      "hit": false,
      "t": 74529.55470833334,
      "d": 122.42254166665953,
      "v": 83
    },
    {
      "midi": 76,
      "hit": false,
      "t": 74684.19370833333,
      "d": 154.63899999999558,
      "v": 79
    },
    {
      "midi": 69,
      "hit": false,
      "t": 74838.83270833333,
      "d": 122.42254166665953,
      "v": 76
    },
    {
      "midi": 67,
      "hit": false,
      "t": 74993.47170833332,
      "d": 122.42254166665953,
      "v": 72
    },
    {
      "midi": 69,
      "hit": false,
      "t": 75148.11070833332,
      "d": 122.42254166665953,
      "v": 71
    },
    {
      "midi": 76,
      "hit": false,
      "t": 75302.74970833331,
      "d": 154.63899999999558,
      "v": 66
    },
    {
      "midi": 69,
      "hit": false,
      "t": 75457.38870833331,
      "d": 122.42254166665953,
      "v": 65
    },
    {
      "midi": 67,
      "hit": false,
      "t": 75612.0277083333,
      "d": 122.42254166665953,
      "v": 61
    },
    {
      "midi": 69,
      "hit": false,
      "t": 75766.6667083333,
      "d": 122.42254166665953,
      "v": 62
    },
    {
      "midi": 76,
      "hit": false,
      "t": 75921.3057083333,
      "d": 154.63899999999558,
      "v": 65
    },
    {
      "midi": 69,
      "hit": false,
      "t": 76075.94470833329,
      "d": 122.42254166665953,
      "v": 64
    },
    {
      "midi": 67,
      "hit": false,
      "t": 76230.58370833329,
      "d": 122.42254166665953,
      "v": 66
    },
    {
      "midi": 69,
      "hit": false,
      "t": 76385.22270833328,
      "d": 122.42254166665953,
      "v": 71
    },
    {
      "midi": 76,
      "hit": false,
      "t": 76539.86170833328,
      "d": 154.63899999999558,
      "v": 75
    },
    {
      "midi": 69,
      "hit": false,
      "t": 76694.50070833327,
      "d": 122.42254166665953,
      "v": 76
    },
    {
      "midi": 67,
      "hit": false,
      "t": 76849.13970833327,
      "d": 122.42254166665953,
      "v": 78
    },
    {
      "midi": 69,
      "hit": false,
      "t": 77003.77870833327,
      "d": 122.42254166665953,
      "v": 81
    },
    {
      "midi": 74,
      "hit": false,
      "t": 77158.41770833326,
      "d": 154.63899999999558,
      "v": 73
    },
    {
      "midi": 69,
      "hit": false,
      "t": 77313.05670833326,
      "d": 122.42254166665953,
      "v": 68
    },
    {
      "midi": 67,
      "hit": false,
      "t": 77467.69570833325,
      "d": 122.42254166665953,
      "v": 68
    },
    {
      "midi": 69,
      "hit": false,
      "t": 77622.33470833325,
      "d": 122.42254166665953,
      "v": 67
    },
    {
      "midi": 74,
      "hit": false,
      "t": 77776.97370833324,
      "d": 154.63899999999558,
      "v": 66
    },
    {
      "midi": 69,
      "hit": false,
      "t": 77931.61270833324,
      "d": 122.42254166665953,
      "v": 65
    },
    {
      "midi": 67,
      "hit": false,
      "t": 78086.25170833324,
      "d": 122.42254166665953,
      "v": 65
    },
    {
      "midi": 69,
      "hit": false,
      "t": 78240.89070833323,
      "d": 122.42254166665953,
      "v": 66
    },
    {
      "midi": 74,
      "hit": false,
      "t": 78395.52970833323,
      "d": 154.63899999999558,
      "v": 71
    },
    {
      "midi": 69,
      "hit": false,
      "t": 78550.16870833322,
      "d": 122.42254166665953,
      "v": 72
    },
    {
      "midi": 67,
      "hit": false,
      "t": 78704.80770833322,
      "d": 122.42254166665953,
      "v": 74
    },
    {
      "midi": 69,
      "hit": false,
      "t": 78859.44670833321,
      "d": 122.42254166665953,
      "v": 77
    },
    {
      "midi": 74,
      "hit": false,
      "t": 79014.08570833321,
      "d": 154.63899999999558,
      "v": 79
    },
    {
      "midi": 69,
      "hit": false,
      "t": 79168.7247083332,
      "d": 122.42254166665953,
      "v": 80
    },
    {
      "midi": 67,
      "hit": false,
      "t": 79323.3637083332,
      "d": 122.42254166665953,
      "v": 82
    },
    {
      "midi": 69,
      "hit": false,
      "t": 79478.0027083332,
      "d": 122.42254166665953,
      "v": 75
    },
    {
      "midi": 76,
      "hit": false,
      "t": 79632.64170833319,
      "d": 154.63899999999558,
      "v": 75
    },
    {
      "midi": 69,
      "hit": false,
      "t": 79787.28070833319,
      "d": 122.42254166665953,
      "v": 72
    },
    {
      "midi": 67,
      "hit": false,
      "t": 79941.91970833318,
      "d": 122.42254166665953,
      "v": 70
    },
    {
      "midi": 69,
      "hit": false,
      "t": 80096.55870833318,
      "d": 122.42254166665953,
      "v": 71
    },
    {
      "midi": 76,
      "hit": false,
      "t": 80251.19770833317,
      "d": 154.63899999999558,
      "v": 68
    },
    {
      "midi": 69,
      "hit": false,
      "t": 80405.83670833317,
      "d": 122.42254166665953,
      "v": 71
    },
    {
      "midi": 67,
      "hit": false,
      "t": 80560.47570833316,
      "d": 122.42254166665953,
      "v": 73
    },
    {
      "midi": 69,
      "hit": false,
      "t": 80715.11470833316,
      "d": 122.42254166665953,
      "v": 76
    },
    {
      "midi": 76,
      "hit": false,
      "t": 80869.75370833316,
      "d": 154.63899999999558,
      "v": 81
    },
    {
      "midi": 69,
      "hit": false,
      "t": 81024.39270833315,
      "d": 122.42254166665953,
      "v": 82
    },
    {
      "midi": 67,
      "hit": false,
      "t": 81179.03170833315,
      "d": 122.42254166665953,
      "v": 86
    },
    {
      "midi": 69,
      "hit": false,
      "t": 81333.67070833314,
      "d": 122.42254166665953,
      "v": 89
    },
    {
      "midi": 76,
      "hit": false,
      "t": 81488.30970833314,
      "d": 154.63899999999558,
      "v": 73
    },
    {
      "midi": 69,
      "hit": false,
      "t": 81649.3919999998,
      "d": 122.42254166665953,
      "v": 82
    },
    {
      "midi": 67,
      "hit": false,
      "t": 81797.58770833313,
      "d": 122.42254166665953,
      "v": 82
    },
    {
      "midi": 69,
      "hit": false,
      "t": 81952.22670833312,
      "d": 122.42254166665953,
      "v": 79
    },
    {
      "midi": 74,
      "hit": false,
      "t": 82106.86570833312,
      "d": 154.63899999999558,
      "v": 73
    },
    {
      "midi": 69,
      "hit": false,
      "t": 82261.50470833312,
      "d": 122.42254166665953,
      "v": 68
    },
    {
      "midi": 67,
      "hit": false,
      "t": 82416.14370833311,
      "d": 122.42254166665953,
      "v": 64
    },
    {
      "midi": 69,
      "hit": false,
      "t": 82570.7827083331,
      "d": 122.42254166665953,
      "v": 59
    },
    {
      "midi": 74,
      "hit": false,
      "t": 82725.4217083331,
      "d": 154.63899999999558,
      "v": 62
    },
    {
      "midi": 69,
      "hit": false,
      "t": 82880.0607083331,
      "d": 122.42254166665953,
      "v": 63
    },
    {
      "midi": 67,
      "hit": false,
      "t": 83034.6997083331,
      "d": 122.42254166665953,
      "v": 65
    },
    {
      "midi": 69,
      "hit": false,
      "t": 83189.33870833309,
      "d": 122.42254166665953,
      "v": 70
    },
    {
      "midi": 74,
      "hit": false,
      "t": 83343.97770833308,
      "d": 154.63899999999558,
      "v": 75
    },
    {
      "midi": 69,
      "hit": false,
      "t": 83498.61670833308,
      "d": 122.42254166665953,
      "v": 78
    },
    {
      "midi": 67,
      "hit": false,
      "t": 83653.25570833308,
      "d": 122.42254166665953,
      "v": 82
    },
    {
      "midi": 69,
      "hit": false,
      "t": 83807.89470833307,
      "d": 122.42254166665953,
      "v": 87
    },
    {
      "midi": 74,
      "hit": false,
      "t": 83962.53370833307,
      "d": 154.63899999999558,
      "v": 93
    },
    {
      "midi": 69,
      "hit": false,
      "t": 84117.17270833306,
      "d": 122.42254166665953,
      "v": 82
    },
    {
      "midi": 67,
      "hit": false,
      "t": 84271.81170833306,
      "d": 122.42254166665953,
      "v": 84
    },
    {
      "midi": 69,
      "hit": false,
      "t": 84426.45070833305,
      "d": 122.42254166665953,
      "v": 83
    },
    {
      "midi": 76,
      "hit": false,
      "t": 84581.08970833305,
      "d": 154.63899999999558,
      "v": 79
    },
    {
      "midi": 69,
      "hit": false,
      "t": 84735.72870833304,
      "d": 122.42254166665953,
      "v": 76
    },
    {
      "midi": 67,
      "hit": false,
      "t": 84890.36770833304,
      "d": 122.42254166665953,
      "v": 72
    },
    {
      "midi": 69,
      "hit": false,
      "t": 85045.00670833304,
      "d": 122.42254166665953,
      "v": 71
    },
    {
      "midi": 76,
      "hit": false,
      "t": 85199.64570833303,
      "d": 154.63899999999558,
      "v": 66
    },
    {
      "midi": 69,
      "hit": false,
      "t": 85354.28470833303,
      "d": 122.42254166665953,
      "v": 65
    },
    {
      "midi": 67,
      "hit": false,
      "t": 85508.92370833302,
      "d": 122.42254166665953,
      "v": 61
    },
    {
      "midi": 69,
      "hit": false,
      "t": 85663.56270833302,
      "d": 122.42254166665953,
      "v": 62
    },
    {
      "midi": 76,
      "hit": false,
      "t": 85818.20170833301,
      "d": 154.63899999999558,
      "v": 65
    },
    {
      "midi": 69,
      "hit": false,
      "t": 85972.84070833301,
      "d": 122.42254166665953,
      "v": 64
    },
    {
      "midi": 67,
      "hit": false,
      "t": 86127.479708333,
      "d": 122.42254166665953,
      "v": 66
    },
    {
      "midi": 69,
      "hit": false,
      "t": 86282.118708333,
      "d": 122.42254166665953,
      "v": 71
    },
    {
      "midi": 76,
      "hit": false,
      "t": 86436.757708333,
      "d": 154.63899999999558,
      "v": 75
    },
    {
      "midi": 69,
      "hit": false,
      "t": 86591.39670833299,
      "d": 122.42254166665953,
      "v": 76
    },
    {
      "midi": 67,
      "hit": false,
      "t": 86746.03570833299,
      "d": 122.42254166665953,
      "v": 78
    },
    {
      "midi": 69,
      "hit": false,
      "t": 86900.67470833298,
      "d": 122.42254166665953,
      "v": 81
    },
    {
      "midi": 74,
      "hit": false,
      "t": 87055.31370833298,
      "d": 154.63899999999558,
      "v": 73
    },
    {
      "midi": 69,
      "hit": false,
      "t": 87209.95270833297,
      "d": 122.42254166665953,
      "v": 68
    },
    {
      "midi": 67,
      "hit": false,
      "t": 87364.59170833297,
      "d": 122.42254166665953,
      "v": 62
    },
    {
      "midi": 69,
      "hit": false,
      "t": 87519.23070833297,
      "d": 122.42254166665953,
      "v": 65
    },
    {
      "midi": 74,
      "hit": false,
      "t": 87673.86970833296,
      "d": 154.63899999999558,
      "v": 68
    },
    {
      "midi": 69,
      "hit": false,
      "t": 87828.50870833296,
      "d": 122.42254166665953,
      "v": 73
    },
    {
      "midi": 67,
      "hit": false,
      "t": 87983.14770833295,
      "d": 122.42254166665953,
      "v": 75
    },
    {
      "midi": 69,
      "hit": false,
      "t": 88137.78670833295,
      "d": 122.42254166665953,
      "v": 78
    },
    {
      "midi": 74,
      "hit": false,
      "t": 88292.42570833294,
      "d": 154.63899999999558,
      "v": 83
    },
    {
      "midi": 69,
      "hit": false,
      "t": 88447.06470833294,
      "d": 122.42254166665953,
      "v": 84
    },
    {
      "midi": 67,
      "hit": false,
      "t": 88601.70370833293,
      "d": 122.42254166665953,
      "v": 88
    },
    {
      "midi": 69,
      "hit": false,
      "t": 88756.34270833293,
      "d": 122.42254166665953,
      "v": 93
    },
    {
      "midi": 74,
      "hit": false,
      "t": 88910.98170833293,
      "d": 154.63899999999558,
      "v": 95
    },
    {
      "midi": 69,
      "hit": false,
      "t": 89072.06399999959,
      "d": 122.42254166665953,
      "v": 88
    },
    {
      "midi": 67,
      "hit": false,
      "t": 89220.25970833292,
      "d": 122.42254166665953,
      "v": 90
    },
    {
      "midi": 69,
      "hit": false,
      "t": 89374.89870833291,
      "d": 122.42254166665953,
      "v": 89
    },
    {
      "midi": 74,
      "hit": false,
      "t": 89529.53770833291,
      "d": 154.63899999999558,
      "v": 85
    },
    {
      "midi": 69,
      "hit": false,
      "t": 89684.1767083329,
      "d": 122.42254166665953,
      "v": 82
    },
    {
      "midi": 67,
      "hit": false,
      "t": 89838.8157083329,
      "d": 122.42254166665953,
      "v": 78
    },
    {
      "midi": 69,
      "hit": false,
      "t": 89993.4547083329,
      "d": 122.42254166665953,
      "v": 77
    },
    {
      "midi": 74,
      "hit": false,
      "t": 90148.09370833289,
      "d": 154.63899999999558,
      "v": 72
    },
    {
      "midi": 69,
      "hit": false,
      "t": 90302.73270833289,
      "d": 122.42254166665953,
      "v": 71
    },
    {
      "midi": 67,
      "hit": false,
      "t": 90457.37170833288,
      "d": 122.42254166665953,
      "v": 67
    },
    {
      "midi": 69,
      "hit": false,
      "t": 90612.01070833288,
      "d": 122.42254166665953,
      "v": 68
    },
    {
      "midi": 74,
      "hit": false,
      "t": 90766.64970833287,
      "d": 154.63899999999558,
      "v": 71
    },
    {
      "midi": 69,
      "hit": false,
      "t": 90921.28870833287,
      "d": 122.42254166665953,
      "v": 70
    },
    {
      "midi": 67,
      "hit": false,
      "t": 91075.92770833286,
      "d": 122.42254166665953,
      "v": 72
    },
    {
      "midi": 69,
      "hit": false,
      "t": 91230.56670833286,
      "d": 122.42254166665953,
      "v": 77
    },
    {
      "midi": 74,
      "hit": false,
      "t": 91385.20570833285,
      "d": 154.63899999999558,
      "v": 81
    },
    {
      "midi": 69,
      "hit": false,
      "t": 91539.84470833285,
      "d": 122.42254166665953,
      "v": 82
    },
    {
      "midi": 67,
      "hit": false,
      "t": 91694.48370833285,
      "d": 122.42254166665953,
      "v": 84
    },
    {
      "midi": 69,
      "hit": false,
      "t": 91849.12270833284,
      "d": 122.42254166665953,
      "v": 87
    },
    {
      "midi": 74,
      "hit": false,
      "t": 92003.76170833284,
      "d": 154.63899999999558,
      "v": 79
    },
    {
      "midi": 69,
      "hit": false,
      "t": 92158.40070833283,
      "d": 122.42254166665953,
      "v": 74
    },
    {
      "midi": 67,
      "hit": false,
      "t": 92313.03970833283,
      "d": 122.42254166665953,
      "v": 74
    },
    {
      "midi": 69,
      "hit": false,
      "t": 92467.67870833282,
      "d": 122.42254166665953,
      "v": 73
    },
    {
      "midi": 74,
      "hit": false,
      "t": 92622.31770833282,
      "d": 154.63899999999558,
      "v": 72
    },
    {
      "midi": 69,
      "hit": false,
      "t": 92776.95670833281,
      "d": 122.42254166665953,
      "v": 71
    },
    {
      "midi": 67,
      "hit": false,
      "t": 92931.59570833281,
      "d": 122.42254166665953,
      "v": 71
    },
    {
      "midi": 69,
      "hit": false,
      "t": 93086.2347083328,
      "d": 122.42254166665953,
      "v": 72
    },
    {
      "midi": 74,
      "hit": false,
      "t": 93240.8737083328,
      "d": 154.63899999999558,
      "v": 77
    },
    {
      "midi": 69,
      "hit": false,
      "t": 93395.5127083328,
      "d": 122.42254166665953,
      "v": 78
    },
    {
      "midi": 67,
      "hit": false,
      "t": 93550.15170833279,
      "d": 122.42254166665953,
      "v": 80
    },
    {
      "midi": 69,
      "hit": false,
      "t": 93704.79070833279,
      "d": 122.42254166665953,
      "v": 83
    },
    {
      "midi": 74,
      "hit": false,
      "t": 93859.42970833278,
      "d": 154.63899999999558,
      "v": 85
    },
    {
      "midi": 69,
      "hit": false,
      "t": 94014.06870833278,
      "d": 122.42254166665953,
      "v": 86
    },
    {
      "midi": 67,
      "hit": false,
      "t": 94168.70770833277,
      "d": 122.42254166665953,
      "v": 88
    },
    {
      "midi": 69,
      "hit": false,
      "t": 94323.34670833277,
      "d": 122.42254166665953,
      "v": 81
    },
    {
      "midi": 74,
      "hit": false,
      "t": 94477.98570833277,
      "d": 154.63899999999558,
      "v": 81
    },
    {
      "midi": 69,
      "hit": false,
      "t": 94632.62470833276,
      "d": 122.42254166665953,
      "v": 78
    },
    {
      "midi": 67,
      "hit": false,
      "t": 94787.26370833276,
      "d": 122.42254166665953,
      "v": 76
    },
    {
      "midi": 69,
      "hit": false,
      "t": 94941.90270833275,
      "d": 122.42254166665953,
      "v": 77
    },
    {
      "midi": 74,
      "hit": false,
      "t": 95096.54170833275,
      "d": 154.63899999999558,
      "v": 74
    },
    {
      "midi": 69,
      "hit": false,
      "t": 95251.18070833274,
      "d": 122.42254166665953,
      "v": 77
    },
    {
      "midi": 67,
      "hit": false,
      "t": 95405.81970833274,
      "d": 122.42254166665953,
      "v": 79
    },
    {
      "midi": 69,
      "hit": false,
      "t": 95560.45870833274,
      "d": 122.42254166665953,
      "v": 82
    },
    {
      "midi": 74,
      "hit": false,
      "t": 95715.09770833273,
      "d": 154.63899999999558,
      "v": 87
    },
    {
      "midi": 69,
      "hit": false,
      "t": 95869.73670833273,
      "d": 122.42254166665953,
      "v": 88
    },
    {
      "midi": 67,
      "hit": false,
      "t": 96024.37570833272,
      "d": 122.42254166665953,
      "v": 92
    },
    {
      "midi": 69,
      "hit": false,
      "t": 96179.01470833272,
      "d": 122.42254166665953,
      "v": 95
    },
    {
      "midi": 74,
      "hit": false,
      "t": 96333.65370833271,
      "d": 154.63899999999558,
      "v": 79
    },
    {
      "midi": 69,
      "hit": false,
      "t": 96494.73599999938,
      "d": 122.42254166665953,
      "v": 88
    },
    {
      "midi": 67,
      "hit": false,
      "t": 96642.9317083327,
      "d": 122.42254166665953,
      "v": 88
    },
    {
      "midi": 69,
      "hit": false,
      "t": 96797.5707083327,
      "d": 122.42254166665953,
      "v": 85
    },
    {
      "midi": 74,
      "hit": false,
      "t": 96952.2097083327,
      "d": 154.63899999999558,
      "v": 79
    },
    {
      "midi": 69,
      "hit": false,
      "t": 97106.84870833269,
      "d": 122.42254166665953,
      "v": 74
    },
    {
      "midi": 67,
      "hit": false,
      "t": 97261.48770833269,
      "d": 122.42254166665953,
      "v": 70
    },
    {
      "midi": 69,
      "hit": false,
      "t": 97416.12670833268,
      "d": 122.42254166665953,
      "v": 65
    },
    {
      "midi": 74,
      "hit": false,
      "t": 97570.76570833268,
      "d": 154.63899999999558,
      "v": 68
    },
    {
      "midi": 69,
      "hit": false,
      "t": 97725.40470833267,
      "d": 122.42254166665953,
      "v": 69
    },
    {
      "midi": 67,
      "hit": false,
      "t": 97880.04370833267,
      "d": 122.42254166665953,
      "v": 71
    },
    {
      "midi": 69,
      "hit": false,
      "t": 98034.68270833266,
      "d": 122.42254166665953,
      "v": 76
    },
    {
      "midi": 74,
      "hit": false,
      "t": 98189.32170833266,
      "d": 154.63899999999558,
      "v": 81
    },
    {
      "midi": 69,
      "hit": false,
      "t": 98343.96070833266,
      "d": 122.42254166665953,
      "v": 84
    },
    {
      "midi": 67,
      "hit": false,
      "t": 98498.59970833265,
      "d": 122.42254166665953,
      "v": 88
    },
    {
      "midi": 69,
      "hit": false,
      "t": 98653.23870833265,
      "d": 122.42254166665953,
      "v": 93
    },
    {
      "midi": 74,
      "hit": false,
      "t": 98807.87770833264,
      "d": 154.63899999999558,
      "v": 99
    },
    {
      "midi": 69,
      "hit": false,
      "t": 98962.51670833264,
      "d": 122.42254166665953,
      "v": 88
    },
    {
      "midi": 67,
      "hit": false,
      "t": 99117.15570833263,
      "d": 122.42254166665953,
      "v": 90
    },
    {
      "midi": 69,
      "hit": false,
      "t": 99271.79470833263,
      "d": 122.42254166665953,
      "v": 89
    },
    {
      "midi": 74,
      "hit": false,
      "t": 99426.43370833262,
      "d": 154.63899999999558,
      "v": 85
    },
    {
      "midi": 69,
      "hit": false,
      "t": 99581.07270833262,
      "d": 122.42254166665953,
      "v": 82
    },
    {
      "midi": 67,
      "hit": false,
      "t": 99735.71170833262,
      "d": 122.42254166665953,
      "v": 78
    },
    {
      "midi": 69,
      "hit": false,
      "t": 99890.35070833261,
      "d": 122.42254166665953,
      "v": 77
    },
    {
      "midi": 74,
      "hit": false,
      "t": 100044.9897083326,
      "d": 154.63899999999558,
      "v": 72
    },
    {
      "midi": 69,
      "hit": false,
      "t": 100199.6287083326,
      "d": 122.42254166665953,
      "v": 71
    },
    {
      "midi": 67,
      "hit": false,
      "t": 100354.2677083326,
      "d": 122.42254166665953,
      "v": 67
    },
    {
      "midi": 69,
      "hit": false,
      "t": 100508.9067083326,
      "d": 122.42254166665953,
      "v": 68
    },
    {
      "midi": 74,
      "hit": false,
      "t": 100663.54570833259,
      "d": 154.63899999999558,
      "v": 71
    },
    {
      "midi": 69,
      "hit": false,
      "t": 100818.18470833258,
      "d": 122.42254166665953,
      "v": 70
    },
    {
      "midi": 67,
      "hit": false,
      "t": 100972.82370833258,
      "d": 122.42254166665953,
      "v": 72
    },
    {
      "midi": 69,
      "hit": false,
      "t": 101127.46270833258,
      "d": 122.42254166665953,
      "v": 77
    },
    {
      "midi": 74,
      "hit": false,
      "t": 101282.10170833257,
      "d": 154.63899999999558,
      "v": 81
    },
    {
      "midi": 69,
      "hit": false,
      "t": 101436.74070833257,
      "d": 122.42254166665953,
      "v": 82
    },
    {
      "midi": 67,
      "hit": false,
      "t": 101591.37970833256,
      "d": 122.42254166665953,
      "v": 84
    },
    {
      "midi": 69,
      "hit": false,
      "t": 101746.01870833256,
      "d": 122.42254166665953,
      "v": 87
    },
    {
      "midi": 74,
      "hit": false,
      "t": 101900.65770833255,
      "d": 154.63899999999558,
      "v": 79
    },
    {
      "midi": 69,
      "hit": false,
      "t": 102055.29670833255,
      "d": 122.42254166665953,
      "v": 74
    },
    {
      "midi": 67,
      "hit": false,
      "t": 102209.93570833254,
      "d": 122.42254166665953,
      "v": 68
    },
    {
      "midi": 69,
      "hit": false,
      "t": 102364.57470833254,
      "d": 122.42254166665953,
      "v": 71
    },
    {
      "midi": 74,
      "hit": false,
      "t": 102519.21370833254,
      "d": 154.63899999999558,
      "v": 74
    },
    {
      "midi": 69,
      "hit": false,
      "t": 102673.85270833253,
      "d": 122.42254166665953,
      "v": 79
    },
    {
      "midi": 67,
      "hit": false,
      "t": 102828.49170833253,
      "d": 122.42254166665953,
      "v": 81
    },
    {
      "midi": 69,
      "hit": false,
      "t": 102983.13070833252,
      "d": 122.42254166665953,
      "v": 84
    },
    {
      "midi": 74,
      "hit": false,
      "t": 103137.76970833252,
      "d": 154.63899999999558,
      "v": 89
    },
    {
      "midi": 69,
      "hit": false,
      "t": 103292.40870833251,
      "d": 122.42254166665953,
      "v": 90
    },
    {
      "midi": 67,
      "hit": false,
      "t": 103447.04770833251,
      "d": 122.42254166665953,
      "v": 94
    },
    {
      "midi": 69,
      "hit": false,
      "t": 103601.6867083325,
      "d": 122.42254166665953,
      "v": 99
    },
    {
      "midi": 74,
      "hit": false,
      "t": 103756.3257083325,
      "d": 154.63899999999558,
      "v": 101
    },
    {
      "midi": 69,
      "hit": false,
      "t": 103917.40799999917,
      "d": 122.42254166665953,
      "v": 88
    },
    {
      "midi": 67,
      "hit": false,
      "t": 104065.60370833249,
      "d": 122.42254166665953,
      "v": 90
    },
    {
      "midi": 69,
      "hit": false,
      "t": 104220.24270833249,
      "d": 122.42254166665953,
      "v": 89
    },
    {
      "midi": 74,
      "hit": false,
      "t": 104374.88170833248,
      "d": 154.63899999999558,
      "v": 85
    },
    {
      "midi": 69,
      "hit": false,
      "t": 104529.52070833248,
      "d": 122.42254166665953,
      "v": 82
    },
    {
      "midi": 67,
      "hit": false,
      "t": 104684.15970833247,
      "d": 122.42254166665953,
      "v": 78
    },
    {
      "midi": 69,
      "hit": false,
      "t": 104838.79870833247,
      "d": 122.42254166665953,
      "v": 77
    },
    {
      "midi": 74,
      "hit": false,
      "t": 104993.43770833247,
      "d": 154.63899999999558,
      "v": 72
    },
    {
      "midi": 69,
      "hit": false,
      "t": 105148.07670833246,
      "d": 122.42254166665953,
      "v": 71
    },
    {
      "midi": 67,
      "hit": false,
      "t": 105302.71570833246,
      "d": 122.42254166665953,
      "v": 67
    },
    {
      "midi": 69,
      "hit": false,
      "t": 105457.35470833245,
      "d": 122.42254166665953,
      "v": 68
    },
    {
      "midi": 74,
      "hit": false,
      "t": 105611.99370833245,
      "d": 154.63899999999558,
      "v": 71
    },
    {
      "midi": 69,
      "hit": false,
      "t": 105766.63270833244,
      "d": 122.42254166665953,
      "v": 70
    },
    {
      "midi": 67,
      "hit": false,
      "t": 105921.27170833244,
      "d": 122.42254166665953,
      "v": 72
    },
    {
      "midi": 69,
      "hit": false,
      "t": 106075.91070833243,
      "d": 122.42254166665953,
      "v": 77
    },
    {
      "midi": 74,
      "hit": false,
      "t": 106230.54970833243,
      "d": 154.63899999999558,
      "v": 81
    },
    {
      "midi": 69,
      "hit": false,
      "t": 106385.18870833243,
      "d": 122.42254166665953,
      "v": 82
    },
    {
      "midi": 67,
      "hit": false,
      "t": 106539.82770833242,
      "d": 122.42254166665953,
      "v": 84
    },
    {
      "midi": 69,
      "hit": false,
      "t": 106694.46670833242,
      "d": 122.42254166665953,
      "v": 87
    },
    {
      "midi": 74,
      "hit": false,
      "t": 106849.10570833241,
      "d": 154.63899999999558,
      "v": 79
    },
    {
      "midi": 69,
      "hit": false,
      "t": 107003.74470833241,
      "d": 122.42254166665953,
      "v": 74
    },
    {
      "midi": 67,
      "hit": false,
      "t": 107158.3837083324,
      "d": 122.42254166665953,
      "v": 74
    },
    {
      "midi": 69,
      "hit": false,
      "t": 107313.0227083324,
      "d": 122.42254166665953,
      "v": 73
    },
    {
      "midi": 74,
      "hit": false,
      "t": 107467.6617083324,
      "d": 154.63899999999558,
      "v": 72
    },
    {
      "midi": 69,
      "hit": false,
      "t": 107622.30070833239,
      "d": 122.42254166665953,
      "v": 71
    },
    {
      "midi": 67,
      "hit": false,
      "t": 107776.93970833239,
      "d": 122.42254166665953,
      "v": 71
    },
    {
      "midi": 69,
      "hit": false,
      "t": 107931.57870833238,
      "d": 122.42254166665953,
      "v": 72
    },
    {
      "midi": 74,
      "hit": false,
      "t": 108086.21770833238,
      "d": 154.63899999999558,
      "v": 77
    },
    {
      "midi": 69,
      "hit": false,
      "t": 108240.85670833237,
      "d": 122.42254166665953,
      "v": 78
    },
    {
      "midi": 67,
      "hit": false,
      "t": 108395.49570833237,
      "d": 122.42254166665953,
      "v": 80
    },
    {
      "midi": 69,
      "hit": false,
      "t": 108550.13470833236,
      "d": 122.42254166665953,
      "v": 83
    },
    {
      "midi": 74,
      "hit": false,
      "t": 108704.77370833236,
      "d": 154.63899999999558,
      "v": 85
    },
    {
      "midi": 69,
      "hit": false,
      "t": 108865.85599999902,
      "d": 115.97925000000396,
      "v": 88
    },
    {
      "midi": 67,
      "hit": false,
      "t": 109014.05170833236,
      "d": 122.42254166665953,
      "v": 91
    },
    {
      "midi": 69,
      "hit": false,
      "t": 109168.69070833236,
      "d": 122.42254166665953,
      "v": 89
    },
    {
      "midi": 74,
      "hit": false,
      "t": 109323.32970833236,
      "d": 154.63899999999558,
      "v": 84
    },
    {
      "midi": 69,
      "hit": false,
      "t": 109477.96870833235,
      "d": 122.42254166665953,
      "v": 82
    },
    {
      "midi": 67,
      "hit": false,
      "t": 109632.60770833235,
      "d": 122.42254166665953,
      "v": 79
    },
    {
      "midi": 69,
      "hit": false,
      "t": 109787.24670833234,
      "d": 122.42254166665953,
      "v": 76
    },
    {
      "midi": 74,
      "hit": false,
      "t": 109941.88570833234,
      "d": 154.63899999999558,
      "v": 73
    },
    {
      "midi": 69,
      "hit": false,
      "t": 110096.52470833233,
      "d": 122.42254166665953,
      "v": 71
    },
    {
      "midi": 67,
      "hit": false,
      "t": 110251.16370833233,
      "d": 122.42254166665953,
      "v": 66
    },
    {
      "midi": 69,
      "hit": false,
      "t": 110405.80270833232,
      "d": 122.42254166665953,
      "v": 69
    },
    {
      "midi": 74,
      "hit": false,
      "t": 110560.44170833232,
      "d": 154.63899999999558,
      "v": 70
    },
    {
      "midi": 69,
      "hit": false,
      "t": 110715.08070833232,
      "d": 122.42254166665953,
      "v": 70
    },
    {
      "midi": 67,
      "hit": false,
      "t": 110869.71970833231,
      "d": 122.42254166665953,
      "v": 73
    },
    {
      "midi": 69,
      "hit": false,
      "t": 111024.35870833231,
      "d": 122.42254166665953,
      "v": 77
    },
    {
      "midi": 74,
      "hit": false,
      "t": 111178.9977083323,
      "d": 154.63899999999558,
      "v": 80
    },
    {
      "midi": 69,
      "hit": false,
      "t": 111333.6367083323,
      "d": 122.42254166665953,
      "v": 82
    },
    {
      "midi": 67,
      "hit": false,
      "t": 111488.2757083323,
      "d": 122.42254166665953,
      "v": 85
    },
    {
      "midi": 69,
      "hit": false,
      "t": 111642.91470833229,
      "d": 122.42254166665953,
      "v": 87
    },
    {
      "midi": 74,
      "hit": false,
      "t": 111797.55370833229,
      "d": 154.63899999999558,
      "v": 78
    },
    {
      "midi": 69,
      "hit": false,
      "t": 111952.19270833228,
      "d": 122.42254166665953,
      "v": 74
    },
    {
      "midi": 67,
      "hit": false,
      "t": 112106.83170833228,
      "d": 122.42254166665953,
      "v": 75
    },
    {
      "midi": 69,
      "hit": false,
      "t": 112261.47070833227,
      "d": 122.42254166665953,
      "v": 72
    },
    {
      "midi": 74,
      "hit": false,
      "t": 112416.10970833227,
      "d": 154.63899999999558,
      "v": 73
    },
    {
      "midi": 69,
      "hit": false,
      "t": 112570.74870833226,
      "d": 122.42254166665953,
      "v": 71
    },
    {
      "midi": 67,
      "hit": false,
      "t": 112725.38770833226,
      "d": 122.42254166665953,
      "v": 70
    },
    {
      "midi": 69,
      "hit": false,
      "t": 112880.02670833225,
      "d": 122.42254166665953,
      "v": 73
    },
    {
      "midi": 74,
      "hit": false,
      "t": 113034.66570833225,
      "d": 154.63899999999558,
      "v": 76
    },
    {
      "midi": 69,
      "hit": false,
      "t": 113189.30470833225,
      "d": 122.42254166665953,
      "v": 78
    },
    {
      "midi": 67,
      "hit": false,
      "t": 113343.94370833224,
      "d": 122.42254166665953,
      "v": 81
    },
    {
      "midi": 69,
      "hit": false,
      "t": 113498.58270833224,
      "d": 122.42254166665953,
      "v": 83
    },
    {
      "midi": 74,
      "hit": false,
      "t": 113653.22170833223,
      "d": 154.63899999999558,
      "v": 84
    },
    {
      "midi": 69,
      "hit": false,
      "t": 113807.86070833223,
      "d": 122.42254166665953,
      "v": 86
    },
    {
      "midi": 67,
      "hit": false,
      "t": 113962.49970833222,
      "d": 122.42254166665953,
      "v": 89
    },
    {
      "midi": 69,
      "hit": false,
      "t": 114117.13870833222,
      "d": 122.42254166665953,
      "v": 81
    },
    {
      "midi": 74,
      "hit": false,
      "t": 114271.77770833221,
      "d": 154.63899999999558,
      "v": 80
    },
    {
      "midi": 69,
      "hit": false,
      "t": 114426.41670833221,
      "d": 122.42254166665953,
      "v": 78
    },
    {
      "midi": 67,
      "hit": false,
      "t": 114581.0557083322,
      "d": 122.42254166665953,
      "v": 77
    },
    {
      "midi": 69,
      "hit": false,
      "t": 114735.6947083322,
      "d": 122.42254166665953,
      "v": 76
    },
    {
      "midi": 74,
      "hit": false,
      "t": 114890.3337083322,
      "d": 154.63899999999558,
      "v": 75
    },
    {
      "midi": 69,
      "hit": false,
      "t": 115044.97270833219,
      "d": 122.42254166665953,
      "v": 77
    },
    {
      "midi": 67,
      "hit": false,
      "t": 115199.61170833219,
      "d": 122.42254166665953,
      "v": 78
    },
    {
      "midi": 69,
      "hit": false,
      "t": 115354.25070833218,
      "d": 122.42254166665953,
      "v": 83
    },
    {
      "midi": 74,
      "hit": false,
      "t": 115508.88970833218,
      "d": 154.63899999999558,
      "v": 86
    },
    {
      "midi": 69,
      "hit": false,
      "t": 115663.52870833217,
      "d": 122.42254166665953,
      "v": 88
    },
    {
      "midi": 67,
      "hit": false,
      "t": 115818.16770833217,
      "d": 122.42254166665953,
      "v": 93
    },
    {
      "midi": 69,
      "hit": false,
      "t": 115972.80670833217,
      "d": 122.42254166665953,
      "v": 95
    },
    {
      "midi": 74,
      "hit": false,
      "t": 116127.44570833216,
      "d": 154.63899999999558,
      "v": 78
    },
    {
      "midi": 69,
      "hit": false,
      "t": 116288.52799999883,
      "d": 122.42254166665953,
      "v": 88
    },
    {
      "midi": 67,
      "hit": false,
      "t": 116436.72370833215,
      "d": 122.42254166665953,
      "v": 89
    },
    {
      "midi": 69,
      "hit": false,
      "t": 116591.36270833215,
      "d": 122.42254166665953,
      "v": 85
    },
    {
      "midi": 74,
      "hit": false,
      "t": 116746.00170833214,
      "d": 154.63899999999558,
      "v": 78
    },
    {
      "midi": 69,
      "hit": false,
      "t": 116900.64070833214,
      "d": 122.42254166665953,
      "v": 74
    },
    {
      "midi": 67,
      "hit": false,
      "t": 117055.27970833213,
      "d": 122.42254166665953,
      "v": 71
    },
    {
      "midi": 69,
      "hit": false,
      "t": 117209.91870833213,
      "d": 122.42254166665953,
      "v": 64
    },
    {
      "midi": 74,
      "hit": false,
      "t": 117364.55770833213,
      "d": 154.63899999999558,
      "v": 69
    },
    {
      "midi": 69,
      "hit": false,
      "t": 117519.19670833212,
      "d": 122.42254166665953,
      "v": 69
    },
    {
      "midi": 67,
      "hit": false,
      "t": 117673.83570833212,
      "d": 122.42254166665953,
      "v": 70
    },
    {
      "midi": 69,
      "hit": false,
      "t": 117828.47470833211,
      "d": 122.42254166665953,
      "v": 77
    },
    {
      "midi": 74,
      "hit": false,
      "t": 117983.11370833211,
      "d": 154.63899999999558,
      "v": 80
    },
    {
      "midi": 69,
      "hit": false,
      "t": 118137.7527083321,
      "d": 122.42254166665953,
      "v": 84
    },
    {
      "midi": 67,
      "hit": false,
      "t": 118292.3917083321,
      "d": 122.42254166665953,
      "v": 89
    },
    {
      "midi": 69,
      "hit": false,
      "t": 118447.0307083321,
      "d": 122.42254166665953,
      "v": 93
    },
    {
      "midi": 74,
      "hit": false,
      "t": 118601.66970833209,
      "d": 154.63899999999558,
      "v": 98
    },
    {
      "midi": 69,
      "hit": false,
      "t": 118756.30870833209,
      "d": 122.42254166665953,
      "v": 88
    },
    {
      "midi": 67,
      "hit": false,
      "t": 118910.94770833208,
      "d": 122.42254166665953,
      "v": 91
    },
    {
      "midi": 69,
      "hit": false,
      "t": 119065.58670833208,
      "d": 122.42254166665953,
      "v": 89
    },
    {
      "midi": 74,
      "hit": false,
      "t": 119220.22570833207,
      "d": 154.63899999999558,
      "v": 84
    },
    {
      "midi": 69,
      "hit": false,
      "t": 119374.86470833207,
      "d": 122.42254166665953,
      "v": 82
    },
    {
      "midi": 67,
      "hit": false,
      "t": 119529.50370833206,
      "d": 122.42254166665953,
      "v": 79
    },
    {
      "midi": 69,
      "hit": false,
      "t": 119684.14270833206,
      "d": 122.42254166665953,
      "v": 76
    },
    {
      "midi": 74,
      "hit": false,
      "t": 119838.78170833206,
      "d": 154.63899999999558,
      "v": 73
    },
    {
      "midi": 69,
      "hit": false,
      "t": 119993.42070833205,
      "d": 122.42254166665953,
      "v": 71
    },
    {
      "midi": 67,
      "hit": false,
      "t": 120148.05970833205,
      "d": 122.42254166665953,
      "v": 66
    },
    {
      "midi": 69,
      "hit": false,
      "t": 120302.69870833204,
      "d": 122.42254166665953,
      "v": 69
    },
    {
      "midi": 74,
      "hit": false,
      "t": 120457.33770833204,
      "d": 154.63899999999558,
      "v": 70
    },
    {
      "midi": 69,
      "hit": false,
      "t": 120611.97670833203,
      "d": 122.42254166665953,
      "v": 70
    },
    {
      "midi": 67,
      "hit": false,
      "t": 120766.61570833203,
      "d": 122.42254166665953,
      "v": 73
    },
    {
      "midi": 69,
      "hit": false,
      "t": 120921.25470833202,
      "d": 122.42254166665953,
      "v": 77
    },
    {
      "midi": 74,
      "hit": false,
      "t": 121075.89370833202,
      "d": 154.63899999999558,
      "v": 80
    },
    {
      "midi": 69,
      "hit": false,
      "t": 121230.53270833202,
      "d": 122.42254166665953,
      "v": 82
    },
    {
      "midi": 67,
      "hit": false,
      "t": 121385.17170833201,
      "d": 122.42254166665953,
      "v": 85
    },
    {
      "midi": 69,
      "hit": false,
      "t": 121539.810708332,
      "d": 122.42254166665953,
      "v": 87
    },
    {
      "midi": 74,
      "hit": false,
      "t": 121694.449708332,
      "d": 154.63899999999558,
      "v": 78
    },
    {
      "midi": 69,
      "hit": false,
      "t": 121849.088708332,
      "d": 122.42254166665953,
      "v": 74
    },
    {
      "midi": 67,
      "hit": false,
      "t": 122003.727708332,
      "d": 122.42254166665953,
      "v": 69
    },
    {
      "midi": 69,
      "hit": false,
      "t": 122158.36670833199,
      "d": 122.42254166665953,
      "v": 70
    },
    {
      "midi": 74,
      "hit": false,
      "t": 122313.00570833198,
      "d": 154.63899999999558,
      "v": 75
    },
    {
      "midi": 69,
      "hit": false,
      "t": 122467.64470833198,
      "d": 122.42254166665953,
      "v": 79
    },
    {
      "midi": 67,
      "hit": false,
      "t": 122622.28370833198,
      "d": 122.42254166665953,
      "v": 80
    },
    {
      "midi": 69,
      "hit": false,
      "t": 122776.92270833197,
      "d": 122.42254166665953,
      "v": 85
    },
    {
      "midi": 74,
      "hit": false,
      "t": 122931.56170833197,
      "d": 154.63899999999558,
      "v": 88
    },
    {
      "midi": 69,
      "hit": false,
      "t": 123086.20070833196,
      "d": 122.42254166665953,
      "v": 90
    },
    {
      "midi": 67,
      "hit": false,
      "t": 123240.83970833196,
      "d": 122.42254166665953,
      "v": 95
    },
    {
      "midi": 69,
      "hit": false,
      "t": 123395.47870833195,
      "d": 122.42254166665953,
      "v": 99
    },
    {
      "midi": 74,
      "hit": false,
      "t": 123550.11770833195,
      "d": 154.63899999999558,
      "v": 100
    },
    {
      "midi": 69,
      "hit": false,
      "t": 123711.19999999861,
      "d": 122.42254166665953,
      "v": 88
    },
    {
      "midi": 67,
      "hit": false,
      "t": 123859.39570833194,
      "d": 122.42254166665953,
      "v": 91
    },
    {
      "midi": 69,
      "hit": false,
      "t": 124014.03470833194,
      "d": 122.42254166665953,
      "v": 89
    },
    {
      "midi": 74,
      "hit": false,
      "t": 124168.67370833193,
      "d": 154.63899999999558,
      "v": 84
    },
    {
      "midi": 69,
      "hit": false,
      "t": 124323.31270833193,
      "d": 122.42254166665953,
      "v": 82
    },
    {
      "midi": 67,
      "hit": false,
      "t": 124477.95170833192,
      "d": 122.42254166665953,
      "v": 79
    },
    {
      "midi": 69,
      "hit": false,
      "t": 124632.59070833192,
      "d": 122.42254166665953,
      "v": 76
    },
    {
      "midi": 74,
      "hit": false,
      "t": 124787.22970833191,
      "d": 154.63899999999558,
      "v": 73
    },
    {
      "midi": 69,
      "hit": false,
      "t": 124941.86870833191,
      "d": 122.42254166665953,
      "v": 71
    },
    {
      "midi": 67,
      "hit": false,
      "t": 125096.5077083319,
      "d": 122.42254166665953,
      "v": 66
    },
    {
      "midi": 69,
      "hit": false,
      "t": 125251.1467083319,
      "d": 122.42254166665953,
      "v": 69
    },
    {
      "midi": 74,
      "hit": false,
      "t": 125405.7857083319,
      "d": 154.63899999999558,
      "v": 70
    },
    {
      "midi": 69,
      "hit": false,
      "t": 125560.42470833189,
      "d": 122.42254166665953,
      "v": 70
    },
    {
      "midi": 67,
      "hit": false,
      "t": 125715.06370833189,
      "d": 122.42254166665953,
      "v": 73
    },
    {
      "midi": 69,
      "hit": false,
      "t": 125869.70270833188,
      "d": 122.42254166665953,
      "v": 77
    },
    {
      "midi": 74,
      "hit": false,
      "t": 126024.34170833188,
      "d": 154.63899999999558,
      "v": 80
    },
    {
      "midi": 69,
      "hit": false,
      "t": 126178.98070833187,
      "d": 122.42254166665953,
      "v": 82
    },
    {
      "midi": 67,
      "hit": false,
      "t": 126333.61970833187,
      "d": 122.42254166665953,
      "v": 85
    },
    {
      "midi": 69,
      "hit": false,
      "t": 126488.25870833186,
      "d": 122.42254166665953,
      "v": 87
    },
    {
      "midi": 74,
      "hit": false,
      "t": 126642.89770833186,
      "d": 154.63899999999558,
      "v": 78
    },
    {
      "midi": 69,
      "hit": false,
      "t": 126797.53670833186,
      "d": 122.42254166665953,
      "v": 74
    },
    {
      "midi": 67,
      "hit": false,
      "t": 126952.17570833185,
      "d": 122.42254166665953,
      "v": 75
    },
    {
      "midi": 69,
      "hit": false,
      "t": 127106.81470833185,
      "d": 122.42254166665953,
      "v": 72
    },
    {
      "midi": 74,
      "hit": false,
      "t": 127261.45370833184,
      "d": 154.63899999999558,
      "v": 73
    },
    {
      "midi": 69,
      "hit": false,
      "t": 127416.09270833184,
      "d": 122.42254166665953,
      "v": 71
    },
    {
      "midi": 67,
      "hit": false,
      "t": 127570.73170833183,
      "d": 122.42254166665953,
      "v": 70
    },
    {
      "midi": 69,
      "hit": false,
      "t": 127725.37070833183,
      "d": 122.42254166665953,
      "v": 73
    },
    {
      "midi": 74,
      "hit": false,
      "t": 127880.00970833183,
      "d": 154.63899999999558,
      "v": 76
    },
    {
      "midi": 69,
      "hit": false,
      "t": 128034.64870833182,
      "d": 122.42254166665953,
      "v": 78
    },
    {
      "midi": 67,
      "hit": false,
      "t": 128189.28770833182,
      "d": 122.42254166665953,
      "v": 81
    },
    {
      "midi": 69,
      "hit": false,
      "t": 128343.92670833181,
      "d": 122.42254166665953,
      "v": 83
    },
    {
      "midi": 74,
      "hit": false,
      "t": 128498.56570833181,
      "d": 154.63899999999558,
      "v": 84
    },
    {
      "midi": 69,
      "hit": false,
      "t": 128653.2047083318,
      "d": 122.42254166665953,
      "v": 86
    },
    {
      "midi": 69,
      "hit": false,
      "t": 175669.90399999847,
      "d": 122.42254166665953,
      "v": 83
    },
    {
      "midi": 67,
      "hit": false,
      "t": 175818.0997083318,
      "d": 122.42254166665953,
      "v": 85
    },
    {
      "midi": 69,
      "hit": false,
      "t": 175972.7387083318,
      "d": 122.42254166665953,
      "v": 82
    },
    {
      "midi": 76,
      "hit": false,
      "t": 176127.3777083318,
      "d": 154.63899999999558,
      "v": 78
    },
    {
      "midi": 69,
      "hit": false,
      "t": 176282.0167083318,
      "d": 122.42254166665953,
      "v": 77
    },
    {
      "midi": 67,
      "hit": false,
      "t": 176436.6557083318,
      "d": 122.42254166665953,
      "v": 72
    },
    {
      "midi": 69,
      "hit": false,
      "t": 176591.29470833178,
      "d": 122.42254166665953,
      "v": 71
    },
    {
      "midi": 76,
      "hit": false,
      "t": 176745.93370833178,
      "d": 154.63899999999558,
      "v": 67
    },
    {
      "midi": 69,
      "hit": false,
      "t": 176900.57270833178,
      "d": 122.42254166665953,
      "v": 64
    },
    {
      "midi": 67,
      "hit": false,
      "t": 177055.21170833177,
      "d": 122.42254166665953,
      "v": 61
    },
    {
      "midi": 69,
      "hit": false,
      "t": 177209.85070833177,
      "d": 122.42254166665953,
      "v": 62
    },
    {
      "midi": 76,
      "hit": false,
      "t": 177364.48970833176,
      "d": 154.63899999999558,
      "v": 64
    },
    {
      "midi": 69,
      "hit": false,
      "t": 177519.12870833176,
      "d": 122.42254166665953,
      "v": 65
    },
    {
      "midi": 67,
      "hit": false,
      "t": 177673.76770833175,
      "d": 122.42254166665953,
      "v": 67
    },
    {
      "midi": 69,
      "hit": false,
      "t": 177828.40670833175,
      "d": 122.42254166665953,
      "v": 70
    },
    {
      "midi": 76,
      "hit": false,
      "t": 177983.04570833175,
      "d": 154.63899999999558,
      "v": 74
    },
    {
      "midi": 69,
      "hit": false,
      "t": 178137.68470833174,
      "d": 122.42254166665953,
      "v": 77
    },
    {
      "midi": 67,
      "hit": false,
      "t": 178292.32370833174,
      "d": 122.42254166665953,
      "v": 79
    },
    {
      "midi": 69,
      "hit": false,
      "t": 178446.96270833173,
      "d": 122.42254166665953,
      "v": 80
    },
    {
      "midi": 74,
      "hit": false,
      "t": 178601.60170833173,
      "d": 154.63899999999558,
      "v": 72
    },
    {
      "midi": 69,
      "hit": false,
      "t": 178756.24070833172,
      "d": 122.42254166665953,
      "v": 69
    },
    {
      "midi": 67,
      "hit": false,
      "t": 178910.87970833172,
      "d": 122.42254166665953,
      "v": 68
    },
    {
      "midi": 69,
      "hit": false,
      "t": 179065.5187083317,
      "d": 122.42254166665953,
      "v": 67
    },
    {
      "midi": 74,
      "hit": false,
      "t": 179220.1577083317,
      "d": 154.63899999999558,
      "v": 67
    },
    {
      "midi": 69,
      "hit": false,
      "t": 179374.7967083317,
      "d": 122.42254166665953,
      "v": 64
    },
    {
      "midi": 67,
      "hit": false,
      "t": 179529.4357083317,
      "d": 122.42254166665953,
      "v": 65
    },
    {
      "midi": 69,
      "hit": false,
      "t": 179684.0747083317,
      "d": 122.42254166665953,
      "v": 66
    },
    {
      "midi": 74,
      "hit": false,
      "t": 179838.7137083317,
      "d": 154.63899999999558,
      "v": 70
    },
    {
      "midi": 69,
      "hit": false,
      "t": 179993.3527083317,
      "d": 122.42254166665953,
      "v": 73
    },
    {
      "midi": 67,
      "hit": false,
      "t": 180147.99170833168,
      "d": 122.42254166665953,
      "v": 75
    },
    {
      "midi": 69,
      "hit": false,
      "t": 180302.63070833168,
      "d": 122.42254166665953,
      "v": 76
    },
    {
      "midi": 74,
      "hit": false,
      "t": 180457.26970833167,
      "d": 154.63899999999558,
      "v": 78
    },
    {
      "midi": 69,
      "hit": false,
      "t": 180611.90870833167,
      "d": 122.42254166665953,
      "v": 81
    },
    {
      "midi": 67,
      "hit": false,
      "t": 180766.54770833167,
      "d": 122.42254166665953,
      "v": 83
    },
    {
      "midi": 69,
      "hit": false,
      "t": 180921.18670833166,
      "d": 122.42254166665953,
      "v": 74
    },
    {
      "midi": 76,
      "hit": false,
      "t": 181075.82570833166,
      "d": 154.63899999999558,
      "v": 74
    },
    {
      "midi": 69,
      "hit": false,
      "t": 181230.46470833165,
      "d": 122.42254166665953,
      "v": 73
    },
    {
      "midi": 67,
      "hit": false,
      "t": 181385.10370833165,
      "d": 122.42254166665953,
      "v": 70
    },
    {
      "midi": 69,
      "hit": false,
      "t": 181539.74270833164,
      "d": 122.42254166665953,
      "v": 71
    },
    {
      "midi": 76,
      "hit": false,
      "t": 181694.38170833164,
      "d": 154.63899999999558,
      "v": 69
    },
    {
      "midi": 69,
      "hit": false,
      "t": 181849.02070833163,
      "d": 122.42254166665953,
      "v": 70
    },
    {
      "midi": 67,
      "hit": false,
      "t": 182003.65970833163,
      "d": 122.42254166665953,
      "v": 73
    },
    {
      "midi": 69,
      "hit": false,
      "t": 182158.29870833163,
      "d": 122.42254166665953,
      "v": 76
    },
    {
      "midi": 76,
      "hit": false,
      "t": 182312.93770833162,
      "d": 154.63899999999558,
      "v": 80
    },
    {
      "midi": 69,
      "hit": false,
      "t": 182467.57670833162,
      "d": 122.42254166665953,
      "v": 83
    },
    {
      "midi": 67,
      "hit": false,
      "t": 182622.2157083316,
      "d": 122.42254166665953,
      "v": 87
    },
    {
      "midi": 69,
      "hit": false,
      "t": 182776.8547083316,
      "d": 122.42254166665953,
      "v": 88
    },
    {
      "midi": 76,
      "hit": false,
      "t": 182931.4937083316,
      "d": 154.63899999999558,
      "v": 72
    },
    {
      "midi": 69,
      "hit": false,
      "t": 183092.57599999825,
      "d": 122.42254166665953,
      "v": 83
    },
    {
      "midi": 67,
      "hit": false,
      "t": 183240.7717083316,
      "d": 122.42254166665953,
      "v": 83
    },
    {
      "midi": 69,
      "hit": false,
      "t": 183395.4107083316,
      "d": 122.42254166665953,
      "v": 78
    },
    {
      "midi": 74,
      "hit": false,
      "t": 183550.0497083316,
      "d": 154.63899999999558,
      "v": 72
    },
    {
      "midi": 69,
      "hit": false,
      "t": 183704.68870833158,
      "d": 122.42254166665953,
      "v": 69
    },
    {
      "midi": 67,
      "hit": false,
      "t": 183859.32770833158,
      "d": 122.42254166665953,
      "v": 64
    },
    {
      "midi": 69,
      "hit": false,
      "t": 184013.96670833157,
      "d": 122.42254166665953,
      "v": 59
    },
    {
      "midi": 74,
      "hit": false,
      "t": 184168.60570833157,
      "d": 154.63899999999558,
      "v": 63
    },
    {
      "midi": 69,
      "hit": false,
      "t": 184323.24470833156,
      "d": 122.42254166665953,
      "v": 62
    },
    {
      "midi": 67,
      "hit": false,
      "t": 184477.88370833156,
      "d": 122.42254166665953,
      "v": 65
    },
    {
      "midi": 69,
      "hit": false,
      "t": 184632.52270833155,
      "d": 122.42254166665953,
      "v": 70
    },
    {
      "midi": 74,
      "hit": false,
      "t": 184787.16170833155,
      "d": 154.63899999999558,
      "v": 74
    },
    {
      "midi": 69,
      "hit": false,
      "t": 184941.80070833155,
      "d": 122.42254166665953,
      "v": 79
    },
    {
      "midi": 67,
      "hit": false,
      "t": 185096.43970833154,
      "d": 122.42254166665953,
      "v": 83
    },
    {
      "midi": 69,
      "hit": false,
      "t": 185251.07870833154,
      "d": 122.42254166665953,
      "v": 86
    },
    {
      "midi": 74,
      "hit": false,
      "t": 185405.71770833153,
      "d": 154.63899999999558,
      "v": 92
    },
    {
      "midi": 69,
      "hit": false,
      "t": 185560.35670833153,
      "d": 122.42254166665953,
      "v": 83
    },
    {
      "midi": 67,
      "hit": false,
      "t": 185714.99570833152,
      "d": 122.42254166665953,
      "v": 85
    },
    {
      "midi": 69,
      "hit": false,
      "t": 185869.63470833152,
      "d": 122.42254166665953,
      "v": 82
    },
    {
      "midi": 76,
      "hit": false,
      "t": 186024.27370833152,
      "d": 154.63899999999558,
      "v": 78
    },
    {
      "midi": 69,
      "hit": false,
      "t": 186178.9127083315,
      "d": 122.42254166665953,
      "v": 77
    },
    {
      "midi": 67,
      "hit": false,
      "t": 186333.5517083315,
      "d": 122.42254166665953,
      "v": 72
    },
    {
      "midi": 69,
      "hit": false,
      "t": 186488.1907083315,
      "d": 122.42254166665953,
      "v": 71
    },
    {
      "midi": 76,
      "hit": false,
      "t": 186642.8297083315,
      "d": 154.63899999999558,
      "v": 67
    },
    {
      "midi": 69,
      "hit": false,
      "t": 186797.4687083315,
      "d": 122.42254166665953,
      "v": 64
    },
    {
      "midi": 67,
      "hit": false,
      "t": 186952.1077083315,
      "d": 122.42254166665953,
      "v": 61
    },
    {
      "midi": 69,
      "hit": false,
      "t": 187106.74670833148,
      "d": 122.42254166665953,
      "v": 62
    },
    {
      "midi": 76,
      "hit": false,
      "t": 187261.38570833148,
      "d": 154.63899999999558,
      "v": 64
    },
    {
      "midi": 69,
      "hit": false,
      "t": 187416.02470833148,
      "d": 122.42254166665953,
      "v": 65
    },
    {
      "midi": 67,
      "hit": false,
      "t": 187570.66370833147,
      "d": 122.42254166665953,
      "v": 67
    },
    {
      "midi": 69,
      "hit": false,
      "t": 187725.30270833147,
      "d": 122.42254166665953,
      "v": 70
    },
    {
      "midi": 76,
      "hit": false,
      "t": 187879.94170833146,
      "d": 154.63899999999558,
      "v": 74
    },
    {
      "midi": 69,
      "hit": false,
      "t": 188034.58070833146,
      "d": 122.42254166665953,
      "v": 77
    },
    {
      "midi": 67,
      "hit": false,
      "t": 188189.21970833145,
      "d": 122.42254166665953,
      "v": 79
    },
    {
      "midi": 69,
      "hit": false,
      "t": 188343.85870833145,
      "d": 122.42254166665953,
      "v": 80
    },
    {
      "midi": 74,
      "hit": false,
      "t": 188498.49770833144,
      "d": 154.63899999999558,
      "v": 72
    },
    {
      "midi": 69,
      "hit": false,
      "t": 188653.13670833144,
      "d": 122.42254166665953,
      "v": 69
    },
    {
      "midi": 67,
      "hit": false,
      "t": 188807.77570833144,
      "d": 122.42254166665953,
      "v": 62
    },
    {
      "midi": 69,
      "hit": false,
      "t": 188962.41470833143,
      "d": 122.42254166665953,
      "v": 65
    },
    {
      "midi": 74,
      "hit": false,
      "t": 189117.05370833143,
      "d": 154.63899999999558,
      "v": 69
    },
    {
      "midi": 69,
      "hit": false,
      "t": 189271.69270833142,
      "d": 122.42254166665953,
      "v": 72
    },
    {
      "midi": 67,
      "hit": false,
      "t": 189426.33170833142,
      "d": 122.42254166665953,
      "v": 75
    },
    {
      "midi": 69,
      "hit": false,
      "t": 189580.9707083314,
      "d": 122.42254166665953,
      "v": 78
    },
    {
      "midi": 74,
      "hit": false,
      "t": 189735.6097083314,
      "d": 154.63899999999558,
      "v": 82
    },
    {
      "midi": 69,
      "hit": false,
      "t": 189890.2487083314,
      "d": 122.42254166665953,
      "v": 85
    },
    {
      "midi": 67,
      "hit": false,
      "t": 190044.8877083314,
      "d": 122.42254166665953,
      "v": 89
    },
    {
      "midi": 69,
      "hit": false,
      "t": 190199.5267083314,
      "d": 122.42254166665953,
      "v": 92
    },
    {
      "midi": 74,
      "hit": false,
      "t": 190354.1657083314,
      "d": 154.63899999999558,
      "v": 94
    },
    {
      "midi": 69,
      "hit": false,
      "t": 190515.24799999804,
      "d": 122.42254166665953,
      "v": 89
    },
    {
      "midi": 67,
      "hit": false,
      "t": 190663.44370833138,
      "d": 122.42254166665953,
      "v": 91
    },
    {
      "midi": 69,
      "hit": false,
      "t": 190818.08270833138,
      "d": 122.42254166665953,
      "v": 88
    },
    {
      "midi": 74,
      "hit": false,
      "t": 190972.72170833137,
      "d": 154.63899999999558,
      "v": 84
    },
    {
      "midi": 69,
      "hit": false,
      "t": 191127.36070833137,
      "d": 122.42254166665953,
      "v": 83
    },
    {
      "midi": 67,
      "hit": false,
      "t": 191281.99970833136,
      "d": 122.42254166665953,
      "v": 78
    },
    {
      "midi": 69,
      "hit": false,
      "t": 191436.63870833136,
      "d": 122.42254166665953,
      "v": 77
    },
    {
      "midi": 74,
      "hit": false,
      "t": 191591.27770833136,
      "d": 154.63899999999558,
      "v": 73
    },
    {
      "midi": 69,
      "hit": false,
      "t": 191745.91670833135,
      "d": 122.42254166665953,
      "v": 70
    },
    {
      "midi": 67,
      "hit": false,
      "t": 191900.55570833135,
      "d": 122.42254166665953,
      "v": 67
    },
    {
      "midi": 69,
      "hit": false,
      "t": 192055.19470833134,
      "d": 122.42254166665953,
      "v": 68
    },
    {
      "midi": 74,
      "hit": false,
      "t": 192209.83370833134,
      "d": 154.63899999999558,
      "v": 70
    },
    {
      "midi": 69,
      "hit": false,
      "t": 192364.47270833133,
      "d": 122.42254166665953,
      "v": 71
    },
    {
      "midi": 67,
      "hit": false,
      "t": 192519.11170833133,
      "d": 122.42254166665953,
      "v": 73
    },
    {
      "midi": 69,
      "hit": false,
      "t": 192673.75070833132,
      "d": 122.42254166665953,
      "v": 76
    },
    {
      "midi": 74,
      "hit": false,
      "t": 192828.38970833132,
      "d": 154.63899999999558,
      "v": 80
    },
    {
      "midi": 69,
      "hit": false,
      "t": 192983.02870833132,
      "d": 122.42254166665953,
      "v": 83
    },
    {
      "midi": 67,
      "hit": false,
      "t": 193137.6677083313,
      "d": 122.42254166665953,
      "v": 85
    },
    {
      "midi": 69,
      "hit": false,
      "t": 193292.3067083313,
      "d": 122.42254166665953,
      "v": 86
    },
    {
      "midi": 74,
      "hit": false,
      "t": 193446.9457083313,
      "d": 154.63899999999558,
      "v": 78
    },
    {
      "midi": 69,
      "hit": false,
      "t": 193601.5847083313,
      "d": 122.42254166665953,
      "v": 75
    },
    {
      "midi": 67,
      "hit": false,
      "t": 193756.2237083313,
      "d": 122.42254166665953,
      "v": 74
    },
    {
      "midi": 69,
      "hit": false,
      "t": 193910.8627083313,
      "d": 122.42254166665953,
      "v": 73
    },
    {
      "midi": 74,
      "hit": false,
      "t": 194065.50170833129,
      "d": 154.63899999999558,
      "v": 73
    },
    {
      "midi": 69,
      "hit": false,
      "t": 194220.14070833128,
      "d": 122.42254166665953,
      "v": 70
    },
    {
      "midi": 67,
      "hit": false,
      "t": 194374.77970833128,
      "d": 122.42254166665953,
      "v": 71
    },
    {
      "midi": 69,
      "hit": false,
      "t": 194529.41870833127,
      "d": 122.42254166665953,
      "v": 72
    },
    {
      "midi": 74,
      "hit": false,
      "t": 194684.05770833127,
      "d": 154.63899999999558,
      "v": 76
    },
    {
      "midi": 69,
      "hit": false,
      "t": 194838.69670833126,
      "d": 122.42254166665953,
      "v": 79
    },
    {
      "midi": 67,
      "hit": false,
      "t": 194993.33570833126,
      "d": 122.42254166665953,
      "v": 81
    },
    {
      "midi": 69,
      "hit": false,
      "t": 195147.97470833125,
      "d": 122.42254166665953,
      "v": 82
    },
    {
      "midi": 74,
      "hit": false,
      "t": 195302.61370833125,
      "d": 154.63899999999558,
      "v": 84
    },
    {
      "midi": 69,
      "hit": false,
      "t": 195457.25270833125,
      "d": 122.42254166665953,
      "v": 87
    },
    {
      "midi": 67,
      "hit": false,
      "t": 195611.89170833124,
      "d": 122.42254166665953,
      "v": 89
    },
    {
      "midi": 69,
      "hit": false,
      "t": 195766.53070833124,
      "d": 122.42254166665953,
      "v": 80
    },
    {
      "midi": 74,
      "hit": false,
      "t": 195921.16970833123,
      "d": 154.63899999999558,
      "v": 80
    },
    {
      "midi": 69,
      "hit": false,
      "t": 196075.80870833123,
      "d": 122.42254166665953,
      "v": 79
    },
    {
      "midi": 67,
      "hit": false,
      "t": 196230.44770833122,
      "d": 122.42254166665953,
      "v": 76
    },
    {
      "midi": 69,
      "hit": false,
      "t": 196385.08670833122,
      "d": 122.42254166665953,
      "v": 77
    },
    {
      "midi": 74,
      "hit": false,
      "t": 196539.7257083312,
      "d": 154.63899999999558,
      "v": 75
    },
    {
      "midi": 69,
      "hit": false,
      "t": 196694.3647083312,
      "d": 122.42254166665953,
      "v": 76
    },
    {
      "midi": 67,
      "hit": false,
      "t": 196849.0037083312,
      "d": 122.42254166665953,
      "v": 79
    },
    {
      "midi": 69,
      "hit": false,
      "t": 197003.6427083312,
      "d": 122.42254166665953,
      "v": 82
    },
    {
      "midi": 74,
      "hit": false,
      "t": 197158.2817083312,
      "d": 154.63899999999558,
      "v": 86
    },
    {
      "midi": 69,
      "hit": false,
      "t": 197312.9207083312,
      "d": 122.42254166665953,
      "v": 89
    },
    {
      "midi": 67,
      "hit": false,
      "t": 197467.5597083312,
      "d": 122.42254166665953,
      "v": 93
    },
    {
      "midi": 69,
      "hit": false,
      "t": 197622.19870833118,
      "d": 122.42254166665953,
      "v": 94
    },
    {
      "midi": 74,
      "hit": false,
      "t": 197776.83770833118,
      "d": 154.63899999999558,
      "v": 78
    },
    {
      "midi": 69,
      "hit": false,
      "t": 197937.91999999783,
      "d": 122.42254166665953,
      "v": 89
    },
    {
      "midi": 67,
      "hit": false,
      "t": 198086.11570833117,
      "d": 122.42254166665953,
      "v": 89
    },
    {
      "midi": 69,
      "hit": false,
      "t": 198240.75470833117,
      "d": 122.42254166665953,
      "v": 84
    },
    {
      "midi": 74,
      "hit": false,
      "t": 198395.39370833116,
      "d": 154.63899999999558,
      "v": 78
    },
    {
      "midi": 69,
      "hit": false,
      "t": 198550.03270833116,
      "d": 122.42254166665953,
      "v": 75
    },
    {
      "midi": 67,
      "hit": false,
      "t": 198704.67170833115,
      "d": 122.42254166665953,
      "v": 70
    },
    {
      "midi": 69,
      "hit": false,
      "t": 198859.31070833115,
      "d": 122.42254166665953,
      "v": 65
    },
    {
      "midi": 74,
      "hit": false,
      "t": 199013.94970833114,
      "d": 154.63899999999558,
      "v": 69
    },
    {
      "midi": 69,
      "hit": false,
      "t": 199168.58870833114,
      "d": 122.42254166665953,
      "v": 68
    },
    {
      "midi": 67,
      "hit": false,
      "t": 199323.22770833113,
      "d": 122.42254166665953,
      "v": 71
    },
    {
      "midi": 69,
      "hit": false,
      "t": 199477.86670833113,
      "d": 122.42254166665953,
      "v": 76
    },
    {
      "midi": 74,
      "hit": false,
      "t": 199632.50570833113,
      "d": 154.63899999999558,
      "v": 80
    },
    {
      "midi": 69,
      "hit": false,
      "t": 199787.14470833112,
      "d": 122.42254166665953,
      "v": 85
    },
    {
      "midi": 67,
      "hit": false,
      "t": 199941.78370833112,
      "d": 122.42254166665953,
      "v": 89
    },
    {
      "midi": 69,
      "hit": false,
      "t": 200096.4227083311,
      "d": 122.42254166665953,
      "v": 92
    },
    {
      "midi": 74,
      "hit": false,
      "t": 200251.0617083311,
      "d": 154.63899999999558,
      "v": 98
    },
    {
      "midi": 69,
      "hit": false,
      "t": 200405.7007083311,
      "d": 122.42254166665953,
      "v": 89
    },
    {
      "midi": 67,
      "hit": false,
      "t": 200560.3397083311,
      "d": 122.42254166665953,
      "v": 91
    },
    {
      "midi": 69,
      "hit": false,
      "t": 200714.9787083311,
      "d": 122.42254166665953,
      "v": 88
    },
    {
      "midi": 74,
      "hit": false,
      "t": 200869.6177083311,
      "d": 154.63899999999558,
      "v": 84
    },
    {
      "midi": 69,
      "hit": false,
      "t": 201024.2567083311,
      "d": 122.42254166665953,
      "v": 83
    },
    {
      "midi": 67,
      "hit": false,
      "t": 201178.89570833108,
      "d": 122.42254166665953,
      "v": 78
    },
    {
      "midi": 69,
      "hit": false,
      "t": 201333.53470833108,
      "d": 122.42254166665953,
      "v": 77
    },
    {
      "midi": 74,
      "hit": false,
      "t": 201488.17370833107,
      "d": 154.63899999999558,
      "v": 73
    },
    {
      "midi": 69,
      "hit": false,
      "t": 201642.81270833107,
      "d": 122.42254166665953,
      "v": 70
    },
    {
      "midi": 67,
      "hit": false,
      "t": 201797.45170833106,
      "d": 122.42254166665953,
      "v": 67
    },
    {
      "midi": 69,
      "hit": false,
      "t": 201952.09070833106,
      "d": 122.42254166665953,
      "v": 68
    },
    {
      "midi": 74,
      "hit": false,
      "t": 202106.72970833106,
      "d": 154.63899999999558,
      "v": 70
    },
    {
      "midi": 69,
      "hit": false,
      "t": 202261.36870833105,
      "d": 122.42254166665953,
      "v": 71
    },
    {
      "midi": 67,
      "hit": false,
      "t": 202416.00770833105,
      "d": 122.42254166665953,
      "v": 73
    },
    {
      "midi": 69,
      "hit": false,
      "t": 202570.64670833104,
      "d": 122.42254166665953,
      "v": 76
    },
    {
      "midi": 74,
      "hit": false,
      "t": 202725.28570833104,
      "d": 154.63899999999558,
      "v": 80
    },
    {
      "midi": 69,
      "hit": false,
      "t": 202879.92470833103,
      "d": 122.42254166665953,
      "v": 83
    },
    {
      "midi": 67,
      "hit": false,
      "t": 203034.56370833103,
      "d": 122.42254166665953,
      "v": 85
    },
    {
      "midi": 69,
      "hit": false,
      "t": 203189.20270833102,
      "d": 122.42254166665953,
      "v": 86
    },
    {
      "midi": 74,
      "hit": false,
      "t": 203343.84170833102,
      "d": 154.63899999999558,
      "v": 78
    },
    {
      "midi": 69,
      "hit": false,
      "t": 203498.48070833102,
      "d": 122.42254166665953,
      "v": 75
    },
    {
      "midi": 67,
      "hit": false,
      "t": 203653.119708331,
      "d": 122.42254166665953,
      "v": 68
    },
    {
      "midi": 69,
      "hit": false,
      "t": 203807.758708331,
      "d": 122.42254166665953,
      "v": 71
    },
    {
      "midi": 74,
      "hit": false,
      "t": 203962.397708331,
      "d": 154.63899999999558,
      "v": 75
    },
    {
      "midi": 69,
      "hit": false,
      "t": 204117.036708331,
      "d": 122.42254166665953,
      "v": 78
    },
    {
      "midi": 67,
      "hit": false,
      "t": 204271.675708331,
      "d": 122.42254166665953,
      "v": 81
    },
    {
      "midi": 69,
      "hit": false,
      "t": 204426.314708331,
      "d": 122.42254166665953,
      "v": 84
    },
    {
      "midi": 74,
      "hit": false,
      "t": 204580.95370833098,
      "d": 154.63899999999558,
      "v": 88
    },
    {
      "midi": 69,
      "hit": false,
      "t": 204735.59270833098,
      "d": 122.42254166665953,
      "v": 91
    },
    {
      "midi": 67,
      "hit": false,
      "t": 204890.23170833098,
      "d": 122.42254166665953,
      "v": 95
    },
    {
      "midi": 69,
      "hit": false,
      "t": 205044.87070833097,
      "d": 122.42254166665953,
      "v": 98
    },
    {
      "midi": 74,
      "hit": false,
      "t": 205199.50970833097,
      "d": 154.63899999999558,
      "v": 100
    },
    {
      "midi": 69,
      "hit": false,
      "t": 205360.59199999762,
      "d": 122.42254166665953,
      "v": 89
    },
    {
      "midi": 67,
      "hit": false,
      "t": 205508.78770833096,
      "d": 122.42254166665953,
      "v": 91
    },
    {
      "midi": 69,
      "hit": false,
      "t": 205663.42670833095,
      "d": 122.42254166665953,
      "v": 88
    },
    {
      "midi": 74,
      "hit": false,
      "t": 205818.06570833095,
      "d": 154.63899999999558,
      "v": 84
    },
    {
      "midi": 69,
      "hit": false,
      "t": 205972.70470833094,
      "d": 122.42254166665953,
      "v": 83
    },
    {
      "midi": 67,
      "hit": false,
      "t": 206127.34370833094,
      "d": 122.42254166665953,
      "v": 78
    },
    {
      "midi": 69,
      "hit": false,
      "t": 206281.98270833094,
      "d": 122.42254166665953,
      "v": 77
    },
    {
      "midi": 74,
      "hit": false,
      "t": 206436.62170833093,
      "d": 154.63899999999558,
      "v": 73
    },
    {
      "midi": 69,
      "hit": false,
      "t": 206591.26070833093,
      "d": 122.42254166665953,
      "v": 70
    },
    {
      "midi": 67,
      "hit": false,
      "t": 206745.89970833092,
      "d": 122.42254166665953,
      "v": 67
    },
    {
      "midi": 69,
      "hit": false,
      "t": 206900.53870833092,
      "d": 122.42254166665953,
      "v": 68
    },
    {
      "midi": 74,
      "hit": false,
      "t": 207055.1777083309,
      "d": 154.63899999999558,
      "v": 70
    },
    {
      "midi": 69,
      "hit": false,
      "t": 207209.8167083309,
      "d": 122.42254166665953,
      "v": 71
    },
    {
      "midi": 67,
      "hit": false,
      "t": 207364.4557083309,
      "d": 122.42254166665953,
      "v": 73
    },
    {
      "midi": 69,
      "hit": false,
      "t": 207519.0947083309,
      "d": 122.42254166665953,
      "v": 76
    },
    {
      "midi": 74,
      "hit": false,
      "t": 207673.7337083309,
      "d": 154.63899999999558,
      "v": 80
    },
    {
      "midi": 69,
      "hit": false,
      "t": 207828.3727083309,
      "d": 122.42254166665953,
      "v": 83
    },
    {
      "midi": 67,
      "hit": false,
      "t": 207983.0117083309,
      "d": 122.42254166665953,
      "v": 85
    },
    {
      "midi": 69,
      "hit": false,
      "t": 208137.65070833088,
      "d": 122.42254166665953,
      "v": 86
    },
    {
      "midi": 74,
      "hit": false,
      "t": 208292.28970833088,
      "d": 154.63899999999558,
      "v": 78
    },
    {
      "midi": 69,
      "hit": false,
      "t": 208446.92870833087,
      "d": 122.42254166665953,
      "v": 75
    },
    {
      "midi": 67,
      "hit": false,
      "t": 208601.56770833087,
      "d": 122.42254166665953,
      "v": 74
    },
    {
      "midi": 69,
      "hit": false,
      "t": 208756.20670833086,
      "d": 122.42254166665953,
      "v": 73
    },
    {
      "midi": 74,
      "hit": false,
      "t": 208910.84570833086,
      "d": 154.63899999999558,
      "v": 73
    },
    {
      "midi": 69,
      "hit": false,
      "t": 209065.48470833086,
      "d": 122.42254166665953,
      "v": 70
    },
    {
      "midi": 67,
      "hit": false,
      "t": 209220.12370833085,
      "d": 122.42254166665953,
      "v": 71
    },
    {
      "midi": 69,
      "hit": false,
      "t": 209374.76270833085,
      "d": 122.42254166665953,
      "v": 72
    },
    {
      "midi": 74,
      "hit": false,
      "t": 209529.40170833084,
      "d": 154.63899999999558,
      "v": 76
    },
    {
      "midi": 69,
      "hit": false,
      "t": 209684.04070833084,
      "d": 122.42254166665953,
      "v": 79
    },
    {
      "midi": 67,
      "hit": false,
      "t": 209838.67970833083,
      "d": 122.42254166665953,
      "v": 81
    },
    {
      "midi": 69,
      "hit": false,
      "t": 209993.31870833083,
      "d": 122.42254166665953,
      "v": 82
    },
    {
      "midi": 74,
      "hit": false,
      "t": 210147.95770833082,
      "d": 154.63899999999558,
      "v": 84
    },
    {
      "midi": 69,
      "hit": false,
      "t": 210309.03999999748,
      "d": 115.97925000000396,
      "v": 89
    },
    {
      "midi": 67,
      "hit": false,
      "t": 210457.23570833082,
      "d": 122.42254166665953,
      "v": 90
    },
    {
      "midi": 69,
      "hit": false,
      "t": 210611.8747083308,
      "d": 122.42254166665953,
      "v": 88
    },
    {
      "midi": 74,
      "hit": false,
      "t": 210766.5137083308,
      "d": 154.63899999999558,
      "v": 85
    },
    {
      "midi": 69,
      "hit": false,
      "t": 210921.1527083308,
      "d": 122.42254166665953,
      "v": 82
    },
    {
      "midi": 67,
      "hit": false,
      "t": 211075.7917083308,
      "d": 122.42254166665953,
      "v": 79
    },
    {
      "midi": 69,
      "hit": false,
      "t": 211230.4307083308,
      "d": 122.42254166665953,
      "v": 77
    },
    {
      "midi": 74,
      "hit": false,
      "t": 211385.0697083308,
      "d": 154.63899999999558,
      "v": 72
    },
    {
      "midi": 69,
      "hit": false,
      "t": 211539.70870833079,
      "d": 122.42254166665953,
      "v": 71
    },
    {
      "midi": 67,
      "hit": false,
      "t": 211694.34770833078,
      "d": 122.42254166665953,
      "v": 66
    },
    {
      "midi": 69,
      "hit": false,
      "t": 211848.98670833078,
      "d": 122.42254166665953,
      "v": 68
    },
    {
      "midi": 74,
      "hit": false,
      "t": 212003.62570833077,
      "d": 154.63899999999558,
      "v": 71
    },
    {
      "midi": 69,
      "hit": false,
      "t": 212158.26470833077,
      "d": 122.42254166665953,
      "v": 71
    },
    {
      "midi": 67,
      "hit": false,
      "t": 212312.90370833076,
      "d": 122.42254166665953,
      "v": 72
    },
    {
      "midi": 69,
      "hit": false,
      "t": 212467.54270833076,
      "d": 122.42254166665953,
      "v": 76
    },
    {
      "midi": 74,
      "hit": false,
      "t": 212622.18170833075,
      "d": 154.63899999999558,
      "v": 81
    },
    {
      "midi": 69,
      "hit": false,
      "t": 212776.82070833075,
      "d": 122.42254166665953,
      "v": 83
    },
    {
      "midi": 67,
      "hit": false,
      "t": 212931.45970833075,
      "d": 122.42254166665953,
      "v": 84
    },
    {
      "midi": 69,
      "hit": false,
      "t": 213086.09870833074,
      "d": 122.42254166665953,
      "v": 86
    },
    {
      "midi": 74,
      "hit": false,
      "t": 213240.73770833074,
      "d": 154.63899999999558,
      "v": 79
    },
    {
      "midi": 69,
      "hit": false,
      "t": 213395.37670833073,
      "d": 122.42254166665953,
      "v": 74
    },
    {
      "midi": 67,
      "hit": false,
      "t": 213550.01570833073,
      "d": 122.42254166665953,
      "v": 75
    },
    {
      "midi": 69,
      "hit": false,
      "t": 213704.65470833072,
      "d": 122.42254166665953,
      "v": 73
    },
    {
      "midi": 74,
      "hit": false,
      "t": 213859.29370833072,
      "d": 154.63899999999558,
      "v": 72
    },
    {
      "midi": 69,
      "hit": false,
      "t": 214013.9327083307,
      "d": 122.42254166665953,
      "v": 71
    },
    {
      "midi": 67,
      "hit": false,
      "t": 214168.5717083307,
      "d": 122.42254166665953,
      "v": 70
    },
    {
      "midi": 69,
      "hit": false,
      "t": 214323.2107083307,
      "d": 122.42254166665953,
      "v": 72
    },
    {
      "midi": 74,
      "hit": false,
      "t": 214477.8497083307,
      "d": 154.63899999999558,
      "v": 77
    },
    {
      "midi": 69,
      "hit": false,
      "t": 214632.4887083307,
      "d": 122.42254166665953,
      "v": 79
    },
    {
      "midi": 67,
      "hit": false,
      "t": 214787.1277083307,
      "d": 122.42254166665953,
      "v": 80
    },
    {
      "midi": 69,
      "hit": false,
      "t": 214941.7667083307,
      "d": 122.42254166665953,
      "v": 82
    },
    {
      "midi": 74,
      "hit": false,
      "t": 215096.40570833068,
      "d": 154.63899999999558,
      "v": 85
    },
    {
      "midi": 69,
      "hit": false,
      "t": 215251.04470833068,
      "d": 122.42254166665953,
      "v": 87
    },
    {
      "midi": 67,
      "hit": false,
      "t": 215405.68370833067,
      "d": 122.42254166665953,
      "v": 88
    },
    {
      "midi": 69,
      "hit": false,
      "t": 215560.32270833067,
      "d": 122.42254166665953,
      "v": 80
    },
    {
      "midi": 74,
      "hit": false,
      "t": 215714.96170833067,
      "d": 154.63899999999558,
      "v": 81
    },
    {
      "midi": 69,
      "hit": false,
      "t": 215869.60070833066,
      "d": 122.42254166665953,
      "v": 78
    },
    {
      "midi": 67,
      "hit": false,
      "t": 216024.23970833066,
      "d": 122.42254166665953,
      "v": 77
    },
    {
      "midi": 69,
      "hit": false,
      "t": 216178.87870833065,
      "d": 122.42254166665953,
      "v": 77
    },
    {
      "midi": 74,
      "hit": false,
      "t": 216333.51770833065,
      "d": 154.63899999999558,
      "v": 74
    },
    {
      "midi": 69,
      "hit": false,
      "t": 216488.15670833064,
      "d": 122.42254166665953,
      "v": 77
    },
    {
      "midi": 67,
      "hit": false,
      "t": 216642.79570833064,
      "d": 122.42254166665953,
      "v": 78
    },
    {
      "midi": 69,
      "hit": false,
      "t": 216797.43470833063,
      "d": 122.42254166665953,
      "v": 82
    },
    {
      "midi": 74,
      "hit": false,
      "t": 216952.07370833063,
      "d": 154.63899999999558,
      "v": 87
    },
    {
      "midi": 69,
      "hit": false,
      "t": 217106.71270833063,
      "d": 122.42254166665953,
      "v": 89
    },
    {
      "midi": 67,
      "hit": false,
      "t": 217261.35170833062,
      "d": 122.42254166665953,
      "v": 92
    },
    {
      "midi": 69,
      "hit": false,
      "t": 217415.99070833062,
      "d": 122.42254166665953,
      "v": 94
    },
    {
      "midi": 74,
      "hit": false,
      "t": 217570.6297083306,
      "d": 154.63899999999558,
      "v": 79
    },
    {
      "midi": 69,
      "hit": false,
      "t": 217731.71199999726,
      "d": 122.42254166665953,
      "v": 89
    },
    {
      "midi": 67,
      "hit": false,
      "t": 217879.9077083306,
      "d": 122.42254166665953,
      "v": 88
    },
    {
      "midi": 69,
      "hit": false,
      "t": 218034.5467083306,
      "d": 122.42254166665953,
      "v": 84
    },
    {
      "midi": 74,
      "hit": false,
      "t": 218189.1857083306,
      "d": 154.63899999999558,
      "v": 79
    },
    {
      "midi": 69,
      "hit": false,
      "t": 218343.8247083306,
      "d": 122.42254166665953,
      "v": 74
    },
    {
      "midi": 67,
      "hit": false,
      "t": 218498.4637083306,
      "d": 122.42254166665953,
      "v": 71
    },
    {
      "midi": 69,
      "hit": false,
      "t": 218653.10270833058,
      "d": 122.42254166665953,
      "v": 65
    },
    {
      "midi": 74,
      "hit": false,
      "t": 218807.74170833058,
      "d": 154.63899999999558,
      "v": 68
    },
    {
      "midi": 69,
      "hit": false,
      "t": 218962.38070833057,
      "d": 122.42254166665953,
      "v": 69
    },
    {
      "midi": 67,
      "hit": false,
      "t": 219117.01970833057,
      "d": 122.42254166665953,
      "v": 70
    },
    {
      "midi": 69,
      "hit": false,
      "t": 219271.65870833056,
      "d": 122.42254166665953,
      "v": 76
    },
    {
      "midi": 74,
      "hit": false,
      "t": 219426.29770833056,
      "d": 154.63899999999558,
      "v": 81
    },
    {
      "midi": 69,
      "hit": false,
      "t": 219580.93670833056,
      "d": 122.42254166665953,
      "v": 85
    },
    {
      "midi": 67,
      "hit": false,
      "t": 219735.57570833055,
      "d": 122.42254166665953,
      "v": 88
    },
    {
      "midi": 69,
      "hit": false,
      "t": 219890.21470833055,
      "d": 122.42254166665953,
      "v": 92
    },
    {
      "midi": 74,
      "hit": false,
      "t": 220044.85370833054,
      "d": 154.63899999999558,
      "v": 99
    },
    {
      "midi": 69,
      "hit": false,
      "t": 220199.49270833054,
      "d": 122.42254166665953,
      "v": 89
    },
    {
      "midi": 67,
      "hit": false,
      "t": 220354.13170833053,
      "d": 122.42254166665953,
      "v": 90
    },
    {
      "midi": 69,
      "hit": false,
      "t": 220508.77070833053,
      "d": 122.42254166665953,
      "v": 88
    },
    {
      "midi": 74,
      "hit": false,
      "t": 220663.40970833052,
      "d": 154.63899999999558,
      "v": 85
    },
    {
      "midi": 69,
      "hit": false,
      "t": 220818.04870833052,
      "d": 122.42254166665953,
      "v": 82
    },
    {
      "midi": 67,
      "hit": false,
      "t": 220972.68770833052,
      "d": 122.42254166665953,
      "v": 79
    },
    {
      "midi": 69,
      "hit": false,
      "t": 221127.3267083305,
      "d": 122.42254166665953,
      "v": 77
    },
    {
      "midi": 74,
      "hit": false,
      "t": 221281.9657083305,
      "d": 154.63899999999558,
      "v": 72
    },
    {
      "midi": 69,
      "hit": false,
      "t": 221436.6047083305,
      "d": 122.42254166665953,
      "v": 71
    },
    {
      "midi": 67,
      "hit": false,
      "t": 221591.2437083305,
      "d": 122.42254166665953,
      "v": 66
    },
    {
      "midi": 69,
      "hit": false,
      "t": 221745.8827083305,
      "d": 122.42254166665953,
      "v": 68
    },
    {
      "midi": 74,
      "hit": false,
      "t": 221900.5217083305,
      "d": 154.63899999999558,
      "v": 71
    },
    {
      "midi": 69,
      "hit": false,
      "t": 222055.16070833048,
      "d": 122.42254166665953,
      "v": 71
    },
    {
      "midi": 67,
      "hit": false,
      "t": 222209.79970833048,
      "d": 122.42254166665953,
      "v": 72
    },
    {
      "midi": 69,
      "hit": false,
      "t": 222364.43870833048,
      "d": 122.42254166665953,
      "v": 76
    },
    {
      "midi": 74,
      "hit": false,
      "t": 222519.07770833047,
      "d": 154.63899999999558,
      "v": 81
    },
    {
      "midi": 69,
      "hit": false,
      "t": 222673.71670833047,
      "d": 122.42254166665953,
      "v": 83
    },
    {
      "midi": 67,
      "hit": false,
      "t": 222828.35570833046,
      "d": 122.42254166665953,
      "v": 84
    },
    {
      "midi": 69,
      "hit": false,
      "t": 222982.99470833046,
      "d": 122.42254166665953,
      "v": 86
    },
    {
      "midi": 74,
      "hit": false,
      "t": 223137.63370833045,
      "d": 154.63899999999558,
      "v": 79
    },
    {
      "midi": 69,
      "hit": false,
      "t": 223292.27270833045,
      "d": 122.42254166665953,
      "v": 74
    },
    {
      "midi": 67,
      "hit": false,
      "t": 223446.91170833044,
      "d": 122.42254166665953,
      "v": 69
    },
    {
      "midi": 69,
      "hit": false,
      "t": 223601.55070833044,
      "d": 122.42254166665953,
      "v": 71
    },
    {
      "midi": 74,
      "hit": false,
      "t": 223756.18970833044,
      "d": 154.63899999999558,
      "v": 74
    },
    {
      "midi": 69,
      "hit": false,
      "t": 223910.82870833043,
      "d": 122.42254166665953,
      "v": 79
    },
    {
      "midi": 67,
      "hit": false,
      "t": 224065.46770833043,
      "d": 122.42254166665953,
      "v": 80
    },
    {
      "midi": 69,
      "hit": false,
      "t": 224220.10670833042,
      "d": 122.42254166665953,
      "v": 84
    },
    {
      "midi": 74,
      "hit": false,
      "t": 224374.74570833042,
      "d": 154.63899999999558,
      "v": 89
    },
    {
      "midi": 69,
      "hit": false,
      "t": 224529.3847083304,
      "d": 122.42254166665953,
      "v": 91
    },
    {
      "midi": 67,
      "hit": false,
      "t": 224684.0237083304,
      "d": 122.42254166665953,
      "v": 94
    },
    {
      "midi": 69,
      "hit": false,
      "t": 224838.6627083304,
      "d": 122.42254166665953,
      "v": 98
    },
    {
      "midi": 74,
      "hit": false,
      "t": 224993.3017083304,
      "d": 154.63899999999558,
      "v": 101
    },
    {
      "midi": 69,
      "hit": false,
      "t": 225154.38399999705,
      "d": 122.42254166665953,
      "v": 89
    },
    {
      "midi": 67,
      "hit": false,
      "t": 225302.5797083304,
      "d": 122.42254166665953,
      "v": 90
    },
    {
      "midi": 69,
      "hit": false,
      "t": 225457.2187083304,
      "d": 122.42254166665953,
      "v": 88
    },
    {
      "midi": 74,
      "hit": false,
      "t": 225611.85770833038,
      "d": 154.63899999999558,
      "v": 85
    },
    {
      "midi": 69,
      "hit": false,
      "t": 225766.49670833038,
      "d": 122.42254166665953,
      "v": 82
    },
    {
      "midi": 67,
      "hit": false,
      "t": 225921.13570833037,
      "d": 122.42254166665953,
      "v": 79
    },
    {
      "midi": 69,
      "hit": false,
      "t": 226075.77470833037,
      "d": 122.42254166665953,
      "v": 77
    },
    {
      "midi": 74,
      "hit": false,
      "t": 226230.41370833036,
      "d": 154.63899999999558,
      "v": 72
    },
    {
      "midi": 69,
      "hit": false,
      "t": 226385.05270833036,
      "d": 122.42254166665953,
      "v": 71
    },
    {
      "midi": 67,
      "hit": false,
      "t": 226539.69170833036,
      "d": 122.42254166665953,
      "v": 66
    },
    {
      "midi": 69,
      "hit": false,
      "t": 226694.33070833035,
      "d": 122.42254166665953,
      "v": 68
    },
    {
      "midi": 74,
      "hit": false,
      "t": 226848.96970833035,
      "d": 154.63899999999558,
      "v": 71
    },
    {
      "midi": 69,
      "hit": false,
      "t": 227003.60870833034,
      "d": 122.42254166665953,
      "v": 71
    },
    {
      "midi": 67,
      "hit": false,
      "t": 227158.24770833034,
      "d": 122.42254166665953,
      "v": 72
    },
    {
      "midi": 69,
      "hit": false,
      "t": 227312.88670833033,
      "d": 122.42254166665953,
      "v": 76
    },
    {
      "midi": 74,
      "hit": false,
      "t": 227467.52570833033,
      "d": 154.63899999999558,
      "v": 81
    },
    {
      "midi": 69,
      "hit": false,
      "t": 227622.16470833033,
      "d": 122.42254166665953,
      "v": 83
    },
    {
      "midi": 67,
      "hit": false,
      "t": 227776.80370833032,
      "d": 122.42254166665953,
      "v": 84
    },
    {
      "midi": 69,
      "hit": false,
      "t": 227931.44270833032,
      "d": 122.42254166665953,
      "v": 86
    },
    {
      "midi": 74,
      "hit": false,
      "t": 228086.0817083303,
      "d": 154.63899999999558,
      "v": 79
    },
    {
      "midi": 69,
      "hit": false,
      "t": 228240.7207083303,
      "d": 122.42254166665953,
      "v": 74
    },
    {
      "midi": 67,
      "hit": false,
      "t": 228395.3597083303,
      "d": 122.42254166665953,
      "v": 75
    },
    {
      "midi": 69,
      "hit": false,
      "t": 228549.9987083303,
      "d": 122.42254166665953,
      "v": 73
    },
    {
      "midi": 74,
      "hit": false,
      "t": 228704.6377083303,
      "d": 154.63899999999558,
      "v": 72
    },
    {
      "midi": 69,
      "hit": false,
      "t": 228859.2767083303,
      "d": 122.42254166665953,
      "v": 71
    },
    {
      "midi": 67,
      "hit": false,
      "t": 229013.91570833029,
      "d": 122.42254166665953,
      "v": 70
    },
    {
      "midi": 69,
      "hit": false,
      "t": 229168.55470833028,
      "d": 122.42254166665953,
      "v": 72
    },
    {
      "midi": 74,
      "hit": false,
      "t": 229323.19370833028,
      "d": 154.63899999999558,
      "v": 77
    },
    {
      "midi": 69,
      "hit": false,
      "t": 229477.83270833027,
      "d": 122.42254166665953,
      "v": 79
    },
    {
      "midi": 67,
      "hit": false,
      "t": 229632.47170833027,
      "d": 122.42254166665953,
      "v": 80
    },
    {
      "midi": 69,
      "hit": false,
      "t": 229787.11070833026,
      "d": 122.42254166665953,
      "v": 82
    },
    {
      "midi": 74,
      "hit": false,
      "t": 229941.74970833026,
      "d": 154.63899999999558,
      "v": 85
    },
    {
      "midi": 69,
      "hit": false,
      "t": 230096.38870833025,
      "d": 122.42254166665953,
      "v": 87
    },
    {
      "midi": 90,
      "hit": false,
      "t": 249896.624,
      "d": 190.72143333332497,
      "v": 93
    },
    {
      "midi": 83,
      "hit": false,
      "t": 250051.263,
      "d": 382.73152499998105,
      "v": 66
    },
    {
      "midi": 88,
      "hit": false,
      "t": 250360.541,
      "d": 119.8452249999973,
      "v": 75
    },
    {
      "midi": 79,
      "hit": false,
      "t": 250515.18,
      "d": 420.10261666667066,
      "v": 75
    },
    {
      "midi": 86,
      "hit": false,
      "t": 250824.45799999998,
      "d": 216.49460000003455,
      "v": 54
    },
    {
      "midi": 81,
      "hit": false,
      "t": 250979.097,
      "d": 326.03055833335384,
      "v": 75
    },
    {
      "midi": 83,
      "hit": false,
      "t": 251288.37500000003,
      "d": 112.11327500001062,
      "v": 68
    },
    {
      "midi": 76,
      "hit": false,
      "t": 251443.01400000005,
      "d": 283.5048333333398,
      "v": 82
    },
    {
      "midi": 81,
      "hit": false,
      "t": 251752.29200000007,
      "d": 324.7418999999936,
      "v": 89
    },
    {
      "midi": 79,
      "hit": false,
      "t": 252061.57000000007,
      "d": 319.58726666666917,
      "v": 87
    },
    {
      "midi": 74,
      "hit": false,
      "t": 252370.8479999969,
      "d": 137.886441666662,
      "v": 78
    },
    {
      "midi": 66,
      "hit": false,
      "t": 252519.04370833025,
      "d": 137.886441666662,
      "v": 78
    },
    {
      "midi": 69,
      "hit": false,
      "t": 252673.68270833025,
      "d": 137.886441666662,
      "v": 79
    },
    {
      "midi": 74,
      "hit": false,
      "t": 252828.32170833024,
      "d": 137.886441666662,
      "v": 78
    },
    {
      "midi": 66,
      "hit": false,
      "t": 252982.96070833024,
      "d": 137.886441666662,
      "v": 77
    },
    {
      "midi": 69,
      "hit": false,
      "t": 253137.59970833024,
      "d": 137.886441666662,
      "v": 77
    },
    {
      "midi": 74,
      "hit": false,
      "t": 253292.23870833023,
      "d": 137.886441666662,
      "v": 76
    },
    {
      "midi": 66,
      "hit": false,
      "t": 253446.87770833023,
      "d": 137.886441666662,
      "v": 77
    },
    {
      "midi": 69,
      "hit": false,
      "t": 253601.51670833022,
      "d": 137.886441666662,
      "v": 76
    },
    {
      "midi": 74,
      "hit": false,
      "t": 253756.15570833022,
      "d": 137.886441666662,
      "v": 74
    },
    {
      "midi": 66,
      "hit": false,
      "t": 253910.7947083302,
      "d": 137.886441666662,
      "v": 75
    },
    {
      "midi": 69,
      "hit": false,
      "t": 254065.4337083302,
      "d": 137.886441666662,
      "v": 75
    },
    {
      "midi": 74,
      "hit": false,
      "t": 254220.0727083302,
      "d": 137.886441666662,
      "v": 74
    },
    {
      "midi": 66,
      "hit": false,
      "t": 254374.7117083302,
      "d": 137.886441666662,
      "v": 74
    },
    {
      "midi": 69,
      "hit": false,
      "t": 254529.3507083302,
      "d": 137.886441666662,
      "v": 73
    },
    {
      "midi": 74,
      "hit": false,
      "t": 254683.9897083302,
      "d": 137.886441666662,
      "v": 73
    },
    {
      "midi": 66,
      "hit": false,
      "t": 254838.6287083302,
      "d": 137.886441666662,
      "v": 72
    },
    {
      "midi": 69,
      "hit": false,
      "t": 254993.26770833018,
      "d": 137.886441666662,
      "v": 72
    },
    {
      "midi": 74,
      "hit": false,
      "t": 255147.90670833018,
      "d": 137.886441666662,
      "v": 73
    },
    {
      "midi": 66,
      "hit": false,
      "t": 255302.54570833017,
      "d": 137.886441666662,
      "v": 70
    },
    {
      "midi": 69,
      "hit": false,
      "t": 255457.18470833017,
      "d": 137.886441666662,
      "v": 71
    },
    {
      "midi": 74,
      "hit": false,
      "t": 255611.82370833016,
      "d": 137.886441666662,
      "v": 71
    },
    {
      "midi": 66,
      "hit": false,
      "t": 255766.46270833016,
      "d": 137.886441666662,
      "v": 70
    },
    {
      "midi": 69,
      "hit": false,
      "t": 255921.10170833016,
      "d": 137.886441666662,
      "v": 71
    },
    {
      "midi": 74,
      "hit": false,
      "t": 256075.74070833015,
      "d": 137.886441666662,
      "v": 68
    },
    {
      "midi": 66,
      "hit": false,
      "t": 256230.37970833015,
      "d": 137.886441666662,
      "v": 68
    },
    {
      "midi": 69,
      "hit": false,
      "t": 256385.01870833014,
      "d": 137.886441666662,
      "v": 69
    },
    {
      "midi": 74,
      "hit": false,
      "t": 256539.65770833014,
      "d": 137.886441666662,
      "v": 69
    },
    {
      "midi": 66,
      "hit": false,
      "t": 256694.29670833013,
      "d": 137.886441666662,
      "v": 68
    },
    {
      "midi": 69,
      "hit": false,
      "t": 256848.93570833013,
      "d": 137.886441666662,
      "v": 66
    },
    {
      "midi": 74,
      "hit": false,
      "t": 257003.57470833012,
      "d": 137.886441666662,
      "v": 67
    },
    {
      "midi": 66,
      "hit": false,
      "t": 257158.21370833012,
      "d": 137.886441666662,
      "v": 67
    },
    {
      "midi": 74,
      "hit": false,
      "t": 257312.85270833012,
      "d": 137.886441666662,
      "v": 62
    },
    {
      "midi": 67,
      "hit": false,
      "t": 257467.4917083301,
      "d": 137.886441666662,
      "v": 60
    },
    {
      "midi": 69,
      "hit": false,
      "t": 257622.1307083301,
      "d": 137.886441666662,
      "v": 59
    },
    {
      "midi": 74,
      "hit": false,
      "t": 257776.7697083301,
      "d": 137.886441666662,
      "v": 58
    },
    {
      "midi": 67,
      "hit": false,
      "t": 257931.4087083301,
      "d": 137.886441666662,
      "v": 59
    },
    {
      "midi": 69,
      "hit": false,
      "t": 258086.0477083301,
      "d": 137.886441666662,
      "v": 59
    },
    {
      "midi": 74,
      "hit": false,
      "t": 258240.6867083301,
      "d": 137.886441666662,
      "v": 56
    },
    {
      "midi": 67,
      "hit": false,
      "t": 258395.32570833009,
      "d": 137.886441666662,
      "v": 57
    },
    {
      "midi": 69,
      "hit": false,
      "t": 258549.96470833008,
      "d": 137.886441666662,
      "v": 56
    },
    {
      "midi": 74,
      "hit": false,
      "t": 258704.60370833008,
      "d": 137.886441666662,
      "v": 54
    },
    {
      "midi": 67,
      "hit": false,
      "t": 258859.24270833007,
      "d": 137.886441666662,
      "v": 55
    },
    {
      "midi": 69,
      "hit": false,
      "t": 259013.88170833007,
      "d": 137.886441666662,
      "v": 55
    },
    {
      "midi": 74,
      "hit": false,
      "t": 259168.52070833006,
      "d": 137.886441666662,
      "v": 52
    },
    {
      "midi": 67,
      "hit": false,
      "t": 259323.15970833006,
      "d": 137.886441666662,
      "v": 52
    },
    {
      "midi": 69,
      "hit": false,
      "t": 259477.79870833005,
      "d": 137.886441666662,
      "v": 53
    },
    {
      "midi": 74,
      "hit": false,
      "t": 259632.43770833005,
      "d": 137.886441666662,
      "v": 53
    },
    {
      "midi": 67,
      "hit": false,
      "t": 259787.07670833005,
      "d": 137.886441666662,
      "v": 50
    },
    {
      "midi": 69,
      "hit": false,
      "t": 259941.71570833004,
      "d": 137.886441666662,
      "v": 50
    },
    {
      "midi": 74,
      "hit": false,
      "t": 260096.35470833004,
      "d": 137.886441666662,
      "v": 51
    },
    {
      "midi": 67,
      "hit": false,
      "t": 260250.99370833003,
      "d": 137.886441666662,
      "v": 48
    },
    {
      "midi": 69,
      "hit": false,
      "t": 260405.63270833003,
      "d": 137.886441666662,
      "v": 49
    },
    {
      "midi": 74,
      "hit": false,
      "t": 260560.27170833002,
      "d": 137.886441666662,
      "v": 49
    },
    {
      "midi": 67,
      "hit": false,
      "t": 260714.91070833002,
      "d": 137.886441666662,
      "v": 48
    },
    {
      "midi": 69,
      "hit": false,
      "t": 260869.54970833,
      "d": 137.886441666662,
      "v": 47
    },
    {
      "midi": 74,
      "hit": false,
      "t": 261024.18870833,
      "d": 137.886441666662,
      "v": 46
    },
    {
      "midi": 67,
      "hit": false,
      "t": 261178.82770833,
      "d": 137.886441666662,
      "v": 46
    },
    {
      "midi": 76,
      "hit": false,
      "t": 261185.27099999666,
      "d": 201.03070000000298,
      "v": 69
    },
    {
      "midi": 69,
      "hit": false,
      "t": 261333.46670833,
      "d": 137.886441666662,
      "v": 45
    },
    {
      "midi": 79,
      "hit": false,
      "t": 261339.90999999666,
      "d": 144.32973333334667,
      "v": 68
    },
    {
      "midi": 74,
      "hit": false,
      "t": 261488.10570833,
      "d": 137.886441666662,
      "v": 44
    },
    {
      "midi": 81,
      "hit": false,
      "t": 261494.54899999665,
      "d": 113.40193333334173,
      "v": 69
    },
    {
      "midi": 67,
      "hit": false,
      "t": 261642.74470833,
      "d": 137.886441666662,
      "v": 45
    },
    {
      "midi": 86,
      "hit": false,
      "t": 261649.18799999665,
      "d": 184.2781416666694,
      "v": 76
    },
    {
      "midi": 69,
      "hit": false,
      "t": 261797.38370833,
      "d": 137.886441666662,
      "v": 42
    },
    {
      "midi": 81,
      "hit": false,
      "t": 261803.82699999664,
      "d": 197.16472500000964,
      "v": 69
    },
    {
      "midi": 74,
      "hit": false,
      "t": 261952.02270832998,
      "d": 137.886441666662,
      "v": 42
    },
    {
      "midi": 79,
      "hit": false,
      "t": 261958.46599999664,
      "d": 161.08229166665114,
      "v": 69
    },
    {
      "midi": 67,
      "hit": false,
      "t": 262106.66170832998,
      "d": 137.8864416666329,
      "v": 43
    },
    {
      "midi": 76,
      "hit": false,
      "t": 262113.10499999663,
      "d": 154.63899999999558,
      "v": 68
    },
    {
      "midi": 74,
      "hit": false,
      "t": 262267.74399999663,
      "d": 137.8864416666911,
      "v": 79
    },
    {
      "midi": 66,
      "hit": false,
      "t": 262415.93970832997,
      "d": 137.8864416666911,
      "v": 78
    },
    {
      "midi": 69,
      "hit": false,
      "t": 262570.57870833,
      "d": 137.8864416666911,
      "v": 78
    },
    {
      "midi": 74,
      "hit": false,
      "t": 262725.21770833,
      "d": 137.8864416666911,
      "v": 79
    },
    {
      "midi": 66,
      "hit": false,
      "t": 262879.85670833004,
      "d": 137.8864416666911,
      "v": 77
    },
    {
      "midi": 69,
      "hit": false,
      "t": 263034.49570833007,
      "d": 137.8864416666911,
      "v": 76
    },
    {
      "midi": 74,
      "hit": false,
      "t": 263189.1347083301,
      "d": 137.8864416666911,
      "v": 76
    },
    {
      "midi": 66,
      "hit": false,
      "t": 263343.7737083301,
      "d": 137.8864416666911,
      "v": 77
    },
    {
      "midi": 69,
      "hit": false,
      "t": 263498.41270833014,
      "d": 137.8864416666911,
      "v": 77
    },
    {
      "midi": 74,
      "hit": false,
      "t": 263653.05170833017,
      "d": 137.8864416666911,
      "v": 74
    },
    {
      "midi": 66,
      "hit": false,
      "t": 263807.6907083302,
      "d": 137.8864416666911,
      "v": 74
    },
    {
      "midi": 69,
      "hit": false,
      "t": 263962.3297083302,
      "d": 137.8864416666911,
      "v": 75
    },
    {
      "midi": 74,
      "hit": false,
      "t": 264116.96870833024,
      "d": 137.8864416666911,
      "v": 74
    },
    {
      "midi": 66,
      "hit": false,
      "t": 264271.60770833027,
      "d": 137.8864416666911,
      "v": 75
    },
    {
      "midi": 69,
      "hit": false,
      "t": 264426.2467083303,
      "d": 137.8864416666911,
      "v": 73
    },
    {
      "midi": 74,
      "hit": false,
      "t": 264580.8857083303,
      "d": 137.8864416666911,
      "v": 72
    },
    {
      "midi": 66,
      "hit": false,
      "t": 264735.52470833034,
      "d": 137.8864416666911,
      "v": 73
    },
    {
      "midi": 69,
      "hit": false,
      "t": 264890.16370833036,
      "d": 137.8864416666911,
      "v": 72
    },
    {
      "midi": 74,
      "hit": false,
      "t": 265044.8027083304,
      "d": 137.8864416666911,
      "v": 72
    },
    {
      "midi": 66,
      "hit": false,
      "t": 265199.4417083304,
      "d": 137.8864416666911,
      "v": 71
    },
    {
      "midi": 69,
      "hit": false,
      "t": 265354.08070833044,
      "d": 137.8864416666911,
      "v": 71
    },
    {
      "midi": 74,
      "hit": false,
      "t": 265508.71970833046,
      "d": 137.8864416666911,
      "v": 70
    },
    {
      "midi": 66,
      "hit": false,
      "t": 265663.3587083305,
      "d": 137.8864416666911,
      "v": 70
    },
    {
      "midi": 69,
      "hit": false,
      "t": 265817.9977083305,
      "d": 137.8864416666911,
      "v": 71
    },
    {
      "midi": 74,
      "hit": false,
      "t": 265972.63670833054,
      "d": 137.8864416666911,
      "v": 69
    },
    {
      "midi": 66,
      "hit": false,
      "t": 266127.27570833056,
      "d": 137.8864416666911,
      "v": 68
    },
    {
      "midi": 76,
      "hit": false,
      "t": 266133.71899999725,
      "d": 182.9894833333674,
      "v": 68
    },
    {
      "midi": 69,
      "hit": false,
      "t": 266281.9147083306,
      "d": 137.8864416666911,
      "v": 69
    },
    {
      "midi": 79,
      "hit": false,
      "t": 266288.3579999973,
      "d": 150.77302500000224,
      "v": 68
    },
    {
      "midi": 74,
      "hit": false,
      "t": 266436.5537083306,
      "d": 137.8864416666911,
      "v": 69
    },
    {
      "midi": 81,
      "hit": false,
      "t": 266442.9969999973,
      "d": 113.40193333331263,
      "v": 69
    },
    {
      "midi": 66,
      "hit": false,
      "t": 266591.19270833064,
      "d": 137.8864416666911,
      "v": 68
    },
    {
      "midi": 86,
      "hit": false,
      "t": 266597.6359999973,
      "d": 145.61839166667778,
      "v": 77
    },
    {
      "midi": 69,
      "hit": false,
      "t": 266745.83170833066,
      "d": 137.8864416666911,
      "v": 66
    },
    {
      "midi": 81,
      "hit": false,
      "t": 266752.27499999735,
      "d": 170.10289999999804,
      "v": 68
    },
    {
      "midi": 74,
      "hit": false,
      "t": 266900.4707083307,
      "d": 137.8864416666329,
      "v": 67
    },
    {
      "midi": 79,
      "hit": false,
      "t": 266906.91399999737,
      "d": 139.1750999999349,
      "v": 69
    },
    {
      "midi": 66,
      "hit": false,
      "t": 267055.10970833065,
      "d": 137.8864416666911,
      "v": 66
    },
    {
      "midi": 76,
      "hit": false,
      "t": 267061.55299999734,
      "d": 188.14411666669184,
      "v": 68
    },
    {
      "midi": 74,
      "hit": false,
      "t": 267209.7487083307,
      "d": 137.8864416666911,
      "v": 63
    },
    {
      "midi": 67,
      "hit": false,
      "t": 267364.3877083307,
      "d": 137.8864416666911,
      "v": 61
    },
    {
      "midi": 69,
      "hit": false,
      "t": 267519.0267083307,
      "d": 137.8864416666911,
      "v": 58
    },
    {
      "midi": 74,
      "hit": false,
      "t": 267673.66570833075,
      "d": 137.8864416666911,
      "v": 58
    },
    {
      "midi": 67,
      "hit": false,
      "t": 267828.3047083308,
      "d": 137.8864416666911,
      "v": 59
    },
    {
      "midi": 69,
      "hit": false,
      "t": 267982.9437083308,
      "d": 137.8864416666911,
      "v": 58
    },
    {
      "midi": 74,
      "hit": false,
      "t": 268137.5827083308,
      "d": 137.8864416666911,
      "v": 57
    },
    {
      "midi": 67,
      "hit": false,
      "t": 268292.22170833085,
      "d": 137.8864416666911,
      "v": 57
    },
    {
      "midi": 69,
      "hit": false,
      "t": 268446.8607083309,
      "d": 137.8864416666911,
      "v": 56
    },
    {
      "midi": 74,
      "hit": false,
      "t": 268601.4997083309,
      "d": 137.8864416666911,
      "v": 55
    },
    {
      "midi": 67,
      "hit": false,
      "t": 268756.1387083309,
      "d": 137.8864416666911,
      "v": 54
    },
    {
      "midi": 69,
      "hit": false,
      "t": 268910.77770833095,
      "d": 137.8864416666911,
      "v": 54
    },
    {
      "midi": 74,
      "hit": false,
      "t": 269065.416708331,
      "d": 137.8864416666911,
      "v": 53
    },
    {
      "midi": 67,
      "hit": false,
      "t": 269220.055708331,
      "d": 137.8864416666911,
      "v": 53
    },
    {
      "midi": 69,
      "hit": false,
      "t": 269374.694708331,
      "d": 137.8864416666911,
      "v": 52
    },
    {
      "midi": 74,
      "hit": false,
      "t": 269529.33370833105,
      "d": 137.8864416666911,
      "v": 52
    },
    {
      "midi": 67,
      "hit": false,
      "t": 269683.9727083311,
      "d": 137.8864416666911,
      "v": 51
    },
    {
      "midi": 69,
      "hit": false,
      "t": 269838.6117083311,
      "d": 137.8864416666911,
      "v": 51
    },
    {
      "midi": 74,
      "hit": false,
      "t": 269993.2507083311,
      "d": 137.8864416666911,
      "v": 50
    },
    {
      "midi": 67,
      "hit": false,
      "t": 270147.88970833115,
      "d": 137.8864416666911,
      "v": 48
    },
    {
      "midi": 69,
      "hit": false,
      "t": 270302.52870833117,
      "d": 137.8864416666911,
      "v": 49
    },
    {
      "midi": 74,
      "hit": false,
      "t": 270457.1677083312,
      "d": 137.8864416666911,
      "v": 48
    },
    {
      "midi": 67,
      "hit": false,
      "t": 270611.8067083312,
      "d": 137.8864416666911,
      "v": 49
    },
    {
      "midi": 69,
      "hit": false,
      "t": 270766.44570833124,
      "d": 137.8864416666911,
      "v": 47
    },
    {
      "midi": 74,
      "hit": false,
      "t": 270921.08470833127,
      "d": 137.8864416666911,
      "v": 46
    },
    {
      "midi": 67,
      "hit": false,
      "t": 271075.7237083313,
      "d": 137.8864416666911,
      "v": 47
    },
    {
      "midi": 76,
      "hit": false,
      "t": 271082.166999998,
      "d": 181.70082500000717,
      "v": 68
    },
    {
      "midi": 69,
      "hit": false,
      "t": 271230.3627083313,
      "d": 137.8864416666911,
      "v": 44
    },
    {
      "midi": 79,
      "hit": false,
      "t": 271236.805999998,
      "d": 171.39155833335826,
      "v": 69
    },
    {
      "midi": 74,
      "hit": false,
      "t": 271385.00170833134,
      "d": 137.8864416666911,
      "v": 45
    },
    {
      "midi": 81,
      "hit": false,
      "t": 271391.444999998,
      "d": 97.93803333333926,
      "v": 68
    },
    {
      "midi": 67,
      "hit": false,
      "t": 271539.64070833137,
      "d": 137.8864416666911,
      "v": 44
    },
    {
      "midi": 86,
      "hit": false,
      "t": 271546.08399999805,
      "d": 168.81424166669603,
      "v": 77
    },
    {
      "midi": 69,
      "hit": false,
      "t": 271694.2797083314,
      "d": 137.8864416666911,
      "v": 43
    },
    {
      "midi": 81,
      "hit": false,
      "t": 271700.7229999981,
      "d": 177.83485000004293,
      "v": 68
    },
    {
      "midi": 74,
      "hit": false,
      "t": 271848.9187083314,
      "d": 137.8864416666911,
      "v": 42
    },
    {
      "midi": 79,
      "hit": false,
      "t": 271855.3619999981,
      "d": 144.32973333331756,
      "v": 69
    },
    {
      "midi": 67,
      "hit": false,
      "t": 272003.55770833144,
      "d": 137.8864416666911,
      "v": 42
    },
    {
      "midi": 76,
      "hit": false,
      "t": 272010.0009999981,
      "d": 132.73180833336664,
      "v": 69
    },
    {
      "midi": 74,
      "hit": false,
      "t": 272164.63999999815,
      "d": 137.8864416666911,
      "v": 79
    },
    {
      "midi": 66,
      "hit": false,
      "t": 272312.8357083315,
      "d": 137.8864416666911,
      "v": 82
    },
    {
      "midi": 69,
      "hit": false,
      "t": 272467.4747083315,
      "d": 137.8864416666911,
      "v": 83
    },
    {
      "midi": 74,
      "hit": false,
      "t": 272622.11370833154,
      "d": 137.8864416666911,
      "v": 80
    },
    {
      "midi": 66,
      "hit": false,
      "t": 272776.75270833157,
      "d": 137.8864416666911,
      "v": 78
    },
    {
      "midi": 69,
      "hit": false,
      "t": 272931.3917083316,
      "d": 137.8864416666911,
      "v": 77
    },
    {
      "midi": 74,
      "hit": false,
      "t": 273086.0307083316,
      "d": 137.8864416666911,
      "v": 75
    },
    {
      "midi": 66,
      "hit": false,
      "t": 273240.66970833164,
      "d": 137.8864416666911,
      "v": 72
    },
    {
      "midi": 69,
      "hit": false,
      "t": 273395.30870833166,
      "d": 137.8864416666911,
      "v": 70
    },
    {
      "midi": 74,
      "hit": false,
      "t": 273549.9477083317,
      "d": 137.8864416666911,
      "v": 69
    },
    {
      "midi": 66,
      "hit": false,
      "t": 273704.5867083317,
      "d": 137.8864416666911,
      "v": 67
    },
    {
      "midi": 69,
      "hit": false,
      "t": 273859.22570833174,
      "d": 137.8864416666911,
      "v": 64
    },
    {
      "midi": 74,
      "hit": false,
      "t": 274013.86470833176,
      "d": 137.8864416666911,
      "v": 64
    },
    {
      "midi": 66,
      "hit": false,
      "t": 274168.5037083318,
      "d": 137.8864416666911,
      "v": 63
    },
    {
      "midi": 69,
      "hit": false,
      "t": 274323.1427083318,
      "d": 137.8864416666911,
      "v": 60
    },
    {
      "midi": 74,
      "hit": false,
      "t": 274477.78170833184,
      "d": 137.8864416666911,
      "v": 59
    },
    {
      "midi": 74,
      "hit": false,
      "t": 274638.86399999855,
      "d": 137.8864416666911,
      "v": 57
    },
    {
      "midi": 66,
      "hit": false,
      "t": 274787.0597083319,
      "d": 137.8864416666911,
      "v": 54
    },
    {
      "midi": 69,
      "hit": false,
      "t": 274941.6987083319,
      "d": 137.8864416666911,
      "v": 53
    },
    {
      "midi": 74,
      "hit": false,
      "t": 275096.33770833194,
      "d": 137.8864416666911,
      "v": 50
    },
    {
      "midi": 66,
      "hit": false,
      "t": 275250.97670833196,
      "d": 137.8864416666911,
      "v": 48
    },
    {
      "midi": 69,
      "hit": false,
      "t": 275405.615708332,
      "d": 137.8864416666911,
      "v": 47
    },
    {
      "midi": 74,
      "hit": false,
      "t": 275560.254708332,
      "d": 137.8864416666911,
      "v": 45
    },
    {
      "midi": 66,
      "hit": false,
      "t": 275714.89370833203,
      "d": 137.8864416666911,
      "v": 42
    },
    {
      "midi": 69,
      "hit": false,
      "t": 275869.53270833206,
      "d": 137.8864416666911,
      "v": 42
    },
    {
      "midi": 74,
      "hit": false,
      "t": 276024.1717083321,
      "d": 137.8864416666911,
      "v": 41
    },
    {
      "midi": 66,
      "hit": false,
      "t": 276178.8107083321,
      "d": 137.8864416666911,
      "v": 39
    },
    {
      "midi": 69,
      "hit": false,
      "t": 276333.44970833213,
      "d": 137.8864416666911,
      "v": 36
    },
    {
      "midi": 74,
      "hit": false,
      "t": 276488.08870833216,
      "d": 137.8864416666911,
      "v": 34
    },
    {
      "midi": 66,
      "hit": false,
      "t": 276642.7277083322,
      "d": 137.8864416666911,
      "v": 33
    },
    {
      "midi": 69,
      "hit": false,
      "t": 276797.3667083322,
      "d": 137.8864416666911,
      "v": 31
    },
    {
      "midi": 74,
      "hit": false,
      "t": 276952.00570833223,
      "d": 137.8864416666911,
      "v": 29
    },
    {
      "midi": 74,
      "hit": false,
      "t": 277113.08799999894,
      "d": 137.8864416666911,
      "v": 27
    },
    {
      "midi": 66,
      "hit": false,
      "t": 277261.2837083323,
      "d": 137.8864416666911,
      "v": 25
    },
    {
      "midi": 69,
      "hit": false,
      "t": 277415.9227083323,
      "d": 137.8864416666911,
      "v": 24
    },
    {
      "midi": 74,
      "hit": false,
      "t": 277570.56170833233,
      "d": 137.8864416666911,
      "v": 22
    },
    {
      "midi": 66,
      "hit": false,
      "t": 277725.20070833236,
      "d": 137.8864416666911,
      "v": 20
    },
    {
      "midi": 69,
      "hit": false,
      "t": 277879.8397083324,
      "d": 137.8864416666911,
      "v": 18
    },
    {
      "midi": 74,
      "hit": false,
      "t": 278034.4787083324,
      "d": 137.8864416666911,
      "v": 16
    }
  ]
}