{
  "jsonPath": "Country/Nashville Sound/Floyd Cramer/your-last-goodbye.json",
  "path": "Country\\Nashville Sound\\Floyd Cramer\\Your Last Goodbye.mid",
  "name": "Your Last Goodbye",
  "difficulty": "Advanced",
  "bpm": 70.00007000007,
  "notes": [
    {
      "midi": 74,
      "hit": false,
      "t": 3600,
      "d": 1200,
      "v": 109
    },
    {
      "midi": 81,
      "hit": false,
      "t": 4800,
      "d": 290,
      "v": 114
    },
    {
      "midi": 86,
      "hit": false,
      "t": 4800,
      "d": 1490,
      "v": 114
    },
    {
      "midi": 83,
      "hit": false,
      "t": 5100,
      "d": 1190,
      "v": 118
    },
    {
      "midi": 81,
      "hit": false,
      "t": 6300,
      "d": 180,
      "v": 119
    },
    {
      "midi": 83,
      "hit": false,
      "t": 6500,
      "d": 180,
      "v": 106
    },
    {
      "midi": 81,
      "hit": false,
      "t": 6700,
      "d": 170,
      "v": 119
    },
    {
      "midi": 79,
      "hit": false,
      "t": 6900,
      "d": 300,
      "v": 113
    },
    {
      "midi": 81,
      "hit": false,
      "t": 7200,
      "d": 1580,
      "v": 117
    },
    {
      "midi": 87,
      "hit": false,
      "t": 7200,
      "d": 1580,
      "v": 115
    },
    {
      "midi": 83,
      "hit": false,
      "t": 8800,
      "d": 370,
      "v": 115
    },
    {
      "midi": 87,
      "hit": false,
      "t": 8800,
      "d": 370,
      "v": 108
    },
    {
      "midi": 84,
      "hit": false,
      "t": 9200,
      "d": 400,
      "v": 114
    },
    {
      "midi": 87,
      "hit": false,
      "t": 9200,
      "d": 400,
      "v": 113
    },
    {
      "midi": 81,
      "hit": false,
      "t": 9600,
      "d": 300,
      "v": 115
    },
    {
      "midi": 86,
      "hit": false,
      "t": 9600,
      "d": 1500,
      "v": 114
    },
    {
      "midi": 83,
      "hit": false,
      "t": 9900,
      "d": 1200,
      "v": 108
    },
    {
      "midi": 81,
      "hit": false,
      "t": 11100,
      "d": 200,
      "v": 104
    },
    {
      "midi": 83,
      "hit": false,
      "t": 11300,
      "d": 200,
      "v": 116
    },
    {
      "midi": 81,
      "hit": false,
      "t": 11500,
      "d": 200,
      "v": 117
    },
    {
      "midi": 79,
      "hit": false,
      "t": 11700,
      "d": 300,
      "v": 114
    },
    {
      "midi": 81,
      "hit": false,
      "t": 12000,
      "d": 1600,
      "v": 118
    },
    {
      "midi": 87,
      "hit": false,
      "t": 12000,
      "d": 1600,
      "v": 102
    },
    {
      "midi": 83,
      "hit": false,
      "t": 13600,
      "d": 400,
      "v": 116
    },
    {
      "midi": 87,
      "hit": false,
      "t": 13600,
      "d": 400,
      "v": 114
    },
    {
      "midi": 84,
      "hit": false,
      "t": 14000,
      "d": 400,
      "v": 105
    },
    {
      "midi": 87,
      "hit": false,
      "t": 14000,
      "d": 400,
      "v": 102
    },
    {
      "midi": 81,
      "hit": false,
      "t": 14400,
      "d": 300,
      "v": 116
    },
    {
      "midi": 86,
      "hit": false,
      "t": 14400,
      "d": 1500,
      "v": 104
    },
    {
      "midi": 43,
      "hit": false,
      "t": 14400,
      "d": 2400,
      "v": 92
    },
    {
      "midi": 83,
      "hit": false,
      "t": 14700,
      "d": 1200,
      "v": 117
    },
    {
      "midi": 50,
      "hit": false,
      "t": 15600,
      "d": 1200,
      "v": 97
    },
    {
      "midi": 55,
      "hit": false,
      "t": 15600,
      "d": 1200,
      "v": 98
    },
    {
      "midi": 59,
      "hit": false,
      "t": 15600,
      "d": 1200,
      "v": 94
    },
    {
      "midi": 81,
      "hit": false,
      "t": 15900,
      "d": 200,
      "v": 117
    },
    {
      "midi": 86,
      "hit": false,
      "t": 15900,
      "d": 900,
      "v": 115
    },
    {
      "midi": 83,
      "hit": false,
      "t": 16100,
      "d": 200,
      "v": 117
    },
    {
      "midi": 81,
      "hit": false,
      "t": 16300,
      "d": 200,
      "v": 110
    },
    {
      "midi": 79,
      "hit": false,
      "t": 16500,
      "d": 300,
      "v": 115
    },
    {
      "midi": 79,
      "hit": false,
      "t": 16800,
      "d": 300,
      "v": 107
    },
    {
      "midi": 84,
      "hit": false,
      "t": 16800,
      "d": 1500,
      "v": 115
    },
    {
      "midi": 48,
      "hit": false,
      "t": 16800,
      "d": 2400,
      "v": 93
    },
    {
      "midi": 81,
      "hit": false,
      "t": 17100,
      "d": 1200,
      "v": 113
    },
    {
      "midi": 52,
      "hit": false,
      "t": 18000,
      "d": 1200,
      "v": 98
    },
    {
      "midi": 55,
      "hit": false,
      "t": 18000,
      "d": 1200,
      "v": 99
    },
    {
      "midi": 60,
      "hit": false,
      "t": 18000,
      "d": 1200,
      "v": 94
    },
    {
      "midi": 79,
      "hit": false,
      "t": 18300,
      "d": 200,
      "v": 118
    },
    {
      "midi": 84,
      "hit": false,
      "t": 18300,
      "d": 900,
      "v": 114
    },
    {
      "midi": 81,
      "hit": false,
      "t": 18500,
      "d": 200,
      "v": 119
    },
    {
      "midi": 79,
      "hit": false,
      "t": 18700,
      "d": 200,
      "v": 114
    },
    {
      "midi": 76,
      "hit": false,
      "t": 18900,
      "d": 300,
      "v": 116
    },
    {
      "midi": 72,
      "hit": false,
      "t": 19200,
      "d": 300,
      "v": 113
    },
    {
      "midi": 79,
      "hit": false,
      "t": 19200,
      "d": 2400,
      "v": 118
    },
    {
      "midi": 43,
      "hit": false,
      "t": 19200,
      "d": 1200,
      "v": 91
    },
    {
      "midi": 74,
      "hit": false,
      "t": 19500,
      "d": 2100,
      "v": 109
    },
    {
      "midi": 47,
      "hit": false,
      "t": 20400,
      "d": 800,
      "v": 91
    },
    {
      "midi": 52,
      "hit": false,
      "t": 21200,
      "d": 400,
      "v": 90
    },
    {
      "midi": 50,
      "hit": false,
      "t": 21600,
      "d": 2400,
      "v": 94
    },
    {
      "midi": 54,
      "hit": false,
      "t": 22800,
      "d": 1200,
      "v": 89
    },
    {
      "midi": 57,
      "hit": false,
      "t": 22800,
      "d": 1200,
      "v": 83
    },
    {
      "midi": 60,
      "hit": false,
      "t": 22800,
      "d": 1200,
      "v": 88
    },
    {
      "midi": 62,
      "hit": false,
      "t": 22800,
      "d": 1200,
      "v": 99
    },
    {
      "midi": 74,
      "hit": false,
      "t": 23400,
      "d": 600,
      "v": 119
    },
    {
      "midi": 81,
      "hit": false,
      "t": 24000,
      "d": 290,
      "v": 115
    },
    {
      "midi": 86,
      "hit": false,
      "t": 24000,
      "d": 1490,
      "v": 113
    },
    {
      "midi": 43,
      "hit": false,
      "t": 24000,
      "d": 2400,
      "v": 88
    },
    {
      "midi": 83,
      "hit": false,
      "t": 24300,
      "d": 1190,
      "v": 102
    },
    {
      "midi": 50,
      "hit": false,
      "t": 25200,
      "d": 1200,
      "v": 99
    },
    {
      "midi": 55,
      "hit": false,
      "t": 25200,
      "d": 1200,
      "v": 97
    },
    {
      "midi": 59,
      "hit": false,
      "t": 25200,
      "d": 1200,
      "v": 84
    },
    {
      "midi": 81,
      "hit": false,
      "t": 25500,
      "d": 180,
      "v": 118
    },
    {
      "midi": 83,
      "hit": false,
      "t": 25700,
      "d": 180,
      "v": 112
    },
    {
      "midi": 81,
      "hit": false,
      "t": 25900,
      "d": 170,
      "v": 118
    },
    {
      "midi": 79,
      "hit": false,
      "t": 26100,
      "d": 300,
      "v": 112
    },
    {
      "midi": 81,
      "hit": false,
      "t": 26400,
      "d": 1580,
      "v": 117
    },
    {
      "midi": 87,
      "hit": false,
      "t": 26400,
      "d": 1580,
      "v": 108
    },
    {
      "midi": 48,
      "hit": false,
      "t": 26400,
      "d": 2400,
      "v": 82
    },
    {
      "midi": 51,
      "hit": false,
      "t": 27600,
      "d": 1200,
      "v": 99
    },
    {
      "midi": 54,
      "hit": false,
      "t": 27600,
      "d": 1200,
      "v": 89
    },
    {
      "midi": 57,
      "hit": false,
      "t": 27600,
      "d": 1200,
      "v": 92
    },
    {
      "midi": 60,
      "hit": false,
      "t": 27600,
      "d": 1200,
      "v": 83
    },
    {
      "midi": 83,
      "hit": false,
      "t": 28000,
      "d": 370,
      "v": 115
    },
    {
      "midi": 87,
      "hit": false,
      "t": 28000,
      "d": 370,
      "v": 110
    },
    {
      "midi": 84,
      "hit": false,
      "t": 28400,
      "d": 400,
      "v": 119
    },
    {
      "midi": 87,
      "hit": false,
      "t": 28400,
      "d": 400,
      "v": 104
    },
    {
      "midi": 81,
      "hit": false,
      "t": 28800,
      "d": 300,
      "v": 112
    },
    {
      "midi": 86,
      "hit": false,
      "t": 28800,
      "d": 1500,
      "v": 119
    },
    {
      "midi": 43,
      "hit": false,
      "t": 28800,
      "d": 2400,
      "v": 94
    },
    {
      "midi": 83,
      "hit": false,
      "t": 29100,
      "d": 1200,
      "v": 118
    },
    {
      "midi": 50,
      "hit": false,
      "t": 30000,
      "d": 1200,
      "v": 85
    },
    {
      "midi": 55,
      "hit": false,
      "t": 30000,
      "d": 1200,
      "v": 91
    },
    {
      "midi": 59,
      "hit": false,
      "t": 30000,
      "d": 1200,
      "v": 92
    },
    {
      "midi": 81,
      "hit": false,
      "t": 30300,
      "d": 200,
      "v": 107
    },
    {
      "midi": 83,
      "hit": false,
      "t": 30500,
      "d": 200,
      "v": 115
    },
    {
      "midi": 81,
      "hit": false,
      "t": 30700,
      "d": 200,
      "v": 109
    },
    {
      "midi": 79,
      "hit": false,
      "t": 30900,
      "d": 300,
      "v": 114
    },
    {
      "midi": 81,
      "hit": false,
      "t": 31200,
      "d": 1600,
      "v": 118
    },
    {
      "midi": 87,
      "hit": false,
      "t": 31200,
      "d": 1600,
      "v": 117
    },
    {
      "midi": 48,
      "hit": false,
      "t": 31200,
      "d": 2400,
      "v": 95
    },
    {
      "midi": 51,
      "hit": false,
      "t": 32400,
      "d": 1200,
      "v": 95
    },
    {
      "midi": 54,
      "hit": false,
      "t": 32400,
      "d": 1200,
      "v": 91
    },
    {
      "midi": 57,
      "hit": false,
      "t": 32400,
      "d": 1200,
      "v": 97
    },
    {
      "midi": 60,
      "hit": false,
      "t": 32400,
      "d": 1200,
      "v": 84
    },
    {
      "midi": 83,
      "hit": false,
      "t": 32800,
      "d": 400,
      "v": 117
    },
    {
      "midi": 87,
      "hit": false,
      "t": 32800,
      "d": 400,
      "v": 114
    },
    {
      "midi": 84,
      "hit": false,
      "t": 33200,
      "d": 400,
      "v": 118
    },
    {
      "midi": 87,
      "hit": false,
      "t": 33200,
      "d": 400,
      "v": 119
    },
    {
      "midi": 81,
      "hit": false,
      "t": 33600,
      "d": 300,
      "v": 110
    },
    {
      "midi": 86,
      "hit": false,
      "t": 33600,
      "d": 1500,
      "v": 111
    },
    {
      "midi": 43,
      "hit": false,
      "t": 33600,
      "d": 2400,
      "v": 96
    },
    {
      "midi": 83,
      "hit": false,
      "t": 33900,
      "d": 1200,
      "v": 118
    },
    {
      "midi": 50,
      "hit": false,
      "t": 34800,
      "d": 1200,
      "v": 94
    },
    {
      "midi": 55,
      "hit": false,
      "t": 34800,
      "d": 1200,
      "v": 94
    },
    {
      "midi": 59,
      "hit": false,
      "t": 34800,
      "d": 1200,
      "v": 99
    },
    {
      "midi": 81,
      "hit": false,
      "t": 35100,
      "d": 200,
      "v": 109
    },
    {
      "midi": 86,
      "hit": false,
      "t": 35100,
      "d": 900,
      "v": 102
    },
    {
      "midi": 83,
      "hit": false,
      "t": 35300,
      "d": 200,
      "v": 118
    },
    {
      "midi": 81,
      "hit": false,
      "t": 35500,
      "d": 200,
      "v": 110
    },
    {
      "midi": 79,
      "hit": false,
      "t": 35700,
      "d": 300,
      "v": 118
    },
    {
      "midi": 79,
      "hit": false,
      "t": 36000,
      "d": 300,
      "v": 118
    },
    {
      "midi": 84,
      "hit": false,
      "t": 36000,
      "d": 1500,
      "v": 112
    },
    {
      "midi": 48,
      "hit": false,
      "t": 36000,
      "d": 2400,
      "v": 96
    },
    {
      "midi": 81,
      "hit": false,
      "t": 36300,
      "d": 1200,
      "v": 118
    },
    {
      "midi": 52,
      "hit": false,
      "t": 37200,
      "d": 1200,
      "v": 98
    },
    {
      "midi": 55,
      "hit": false,
      "t": 37200,
      "d": 1200,
      "v": 87
    },
    {
      "midi": 60,
      "hit": false,
      "t": 37200,
      "d": 1200,
      "v": 88
    },
    {
      "midi": 79,
      "hit": false,
      "t": 37500,
      "d": 200,
      "v": 118
    },
    {
      "midi": 84,
      "hit": false,
      "t": 37500,
      "d": 900,
      "v": 112
    },
    {
      "midi": 81,
      "hit": false,
      "t": 37700,
      "d": 200,
      "v": 114
    },
    {
      "midi": 79,
      "hit": false,
      "t": 37900,
      "d": 200,
      "v": 117
    },
    {
      "midi": 76,
      "hit": false,
      "t": 38100,
      "d": 300,
      "v": 113
    },
    {
      "midi": 79,
      "hit": false,
      "t": 38400,
      "d": 1200,
      "v": 108
    },
    {
      "midi": 83,
      "hit": false,
      "t": 38400,
      "d": 1200,
      "v": 113
    },
    {
      "midi": 43,
      "hit": false,
      "t": 38400,
      "d": 1200,
      "v": 97
    },
    {
      "midi": 67,
      "hit": false,
      "t": 39600,
      "d": 200,
      "v": 115
    },
    {
      "midi": 74,
      "hit": false,
      "t": 39600,
      "d": 400,
      "v": 117
    },
    {
      "midi": 43,
      "hit": false,
      "t": 39600,
      "d": 1200,
      "v": 84
    },
    {
      "midi": 69,
      "hit": false,
      "t": 39800,
      "d": 200,
      "v": 116
    },
    {
      "midi": 67,
      "hit": false,
      "t": 40000,
      "d": 400,
      "v": 114
    },
    {
      "midi": 74,
      "hit": false,
      "t": 40000,
      "d": 400,
      "v": 117
    },
    {
      "midi": 69,
      "hit": false,
      "t": 40400,
      "d": 400,
      "v": 113
    },
    {
      "midi": 74,
      "hit": false,
      "t": 40400,
      "d": 400,
      "v": 114
    },
    {
      "midi": 69,
      "hit": false,
      "t": 40800,
      "d": 300,
      "v": 112
    },
    {
      "midi": 74,
      "hit": false,
      "t": 40800,
      "d": 1200,
      "v": 106
    },
    {
      "midi": 45,
      "hit": false,
      "t": 40800,
      "d": 1200,
      "v": 99
    },
    {
      "midi": 71,
      "hit": false,
      "t": 41100,
      "d": 900,
      "v": 108
    },
    {
      "midi": 47,
      "hit": false,
      "t": 42000,
      "d": 1200,
      "v": 95
    },
    {
      "midi": 67,
      "hit": false,
      "t": 42400,
      "d": 400,
      "v": 110
    },
    {
      "midi": 67,
      "hit": false,
      "t": 42800,
      "d": 400,
      "v": 107
    },
    {
      "midi": 74,
      "hit": false,
      "t": 43200,
      "d": 300,
      "v": 117
    },
    {
      "midi": 79,
      "hit": false,
      "t": 43200,
      "d": 1600,
      "v": 116
    },
    {
      "midi": 48,
      "hit": false,
      "t": 43200,
      "d": 2400,
      "v": 88
    },
    {
      "midi": 76,
      "hit": false,
      "t": 43500,
      "d": 1300,
      "v": 117
    },
    {
      "midi": 52,
      "hit": false,
      "t": 44400,
      "d": 1200,
      "v": 97
    },
    {
      "midi": 55,
      "hit": false,
      "t": 44400,
      "d": 1200,
      "v": 96
    },
    {
      "midi": 60,
      "hit": false,
      "t": 44400,
      "d": 1200,
      "v": 99
    },
    {
      "midi": 76,
      "hit": false,
      "t": 44800,
      "d": 400,
      "v": 111
    },
    {
      "midi": 79,
      "hit": false,
      "t": 44800,
      "d": 400,
      "v": 109
    },
    {
      "midi": 76,
      "hit": false,
      "t": 45200,
      "d": 400,
      "v": 110
    },
    {
      "midi": 79,
      "hit": false,
      "t": 45200,
      "d": 400,
      "v": 109
    },
    {
      "midi": 74,
      "hit": false,
      "t": 45600,
      "d": 300,
      "v": 112
    },
    {
      "midi": 81,
      "hit": false,
      "t": 45600,
      "d": 1600,
      "v": 114
    },
    {
      "midi": 50,
      "hit": false,
      "t": 45600,
      "d": 2400,
      "v": 95
    },
    {
      "midi": 76,
      "hit": false,
      "t": 45900,
      "d": 1300,
      "v": 106
    },
    {
      "midi": 54,
      "hit": false,
      "t": 46800,
      "d": 1200,
      "v": 86
    },
    {
      "midi": 57,
      "hit": false,
      "t": 46800,
      "d": 1200,
      "v": 97
    },
    {
      "midi": 60,
      "hit": false,
      "t": 46800,
      "d": 1200,
      "v": 87
    },
    {
      "midi": 74,
      "hit": false,
      "t": 47200,
      "d": 400,
      "v": 111
    },
    {
      "midi": 81,
      "hit": false,
      "t": 47200,
      "d": 400,
      "v": 117
    },
    {
      "midi": 76,
      "hit": false,
      "t": 47600,
      "d": 400,
      "v": 112
    },
    {
      "midi": 81,
      "hit": false,
      "t": 47600,
      "d": 400,
      "v": 109
    },
    {
      "midi": 72,
      "hit": false,
      "t": 48000,
      "d": 300,
      "v": 116
    },
    {
      "midi": 79,
      "hit": false,
      "t": 48000,
      "d": 1200,
      "v": 107
    },
    {
      "midi": 43,
      "hit": false,
      "t": 48000,
      "d": 1200,
      "v": 96
    },
    {
      "midi": 74,
      "hit": false,
      "t": 48300,
      "d": 900,
      "v": 119
    },
    {
      "midi": 47,
      "hit": false,
      "t": 49200,
      "d": 1200,
      "v": 88
    },
    {
      "midi": 51,
      "hit": false,
      "t": 49200,
      "d": 1200,
      "v": 99
    },
    {
      "midi": 54,
      "hit": false,
      "t": 49200,
      "d": 1200,
      "v": 94
    },
    {
      "midi": 57,
      "hit": false,
      "t": 49200,
      "d": 1200,
      "v": 87
    },
    {
      "midi": 71,
      "hit": false,
      "t": 49600,
      "d": 400,
      "v": 107
    },
    {
      "midi": 69,
      "hit": false,
      "t": 50000,
      "d": 400,
      "v": 114
    },
    {
      "midi": 67,
      "hit": false,
      "t": 50400,
      "d": 400,
      "v": 118
    },
    {
      "midi": 52,
      "hit": false,
      "t": 50400,
      "d": 1200,
      "v": 93
    },
    {
      "midi": 56,
      "hit": false,
      "t": 50400,
      "d": 1200,
      "v": 90
    },
    {
      "midi": 59,
      "hit": false,
      "t": 50400,
      "d": 1200,
      "v": 89
    },
    {
      "midi": 69,
      "hit": false,
      "t": 50800,
      "d": 400,
      "v": 117
    },
    {
      "midi": 71,
      "hit": false,
      "t": 51200,
      "d": 1000,
      "v": 112
    },
    {
      "midi": 50,
      "hit": false,
      "t": 51600,
      "d": 1200,
      "v": 99
    },
    {
      "midi": 53,
      "hit": false,
      "t": 51600,
      "d": 1200,
      "v": 98
    },
    {
      "midi": 55,
      "hit": false,
      "t": 51600,
      "d": 1200,
      "v": 92
    },
    {
      "midi": 59,
      "hit": false,
      "t": 51600,
      "d": 1200,
      "v": 98
    },
    {
      "midi": 67,
      "hit": false,
      "t": 52200,
      "d": 600,
      "v": 107
    },
    {
      "midi": 74,
      "hit": false,
      "t": 52800,
      "d": 300,
      "v": 114
    },
    {
      "midi": 79,
      "hit": false,
      "t": 52800,
      "d": 1600,
      "v": 113
    },
    {
      "midi": 48,
      "hit": false,
      "t": 52800,
      "d": 2400,
      "v": 96
    },
    {
      "midi": 76,
      "hit": false,
      "t": 53100,
      "d": 1300,
      "v": 118
    },
    {
      "midi": 52,
      "hit": false,
      "t": 54000,
      "d": 1200,
      "v": 94
    },
    {
      "midi": 55,
      "hit": false,
      "t": 54000,
      "d": 1200,
      "v": 97
    },
    {
      "midi": 60,
      "hit": false,
      "t": 54000,
      "d": 1200,
      "v": 94
    },
    {
      "midi": 76,
      "hit": false,
      "t": 54400,
      "d": 400,
      "v": 111
    },
    {
      "midi": 79,
      "hit": false,
      "t": 54400,
      "d": 400,
      "v": 105
    },
    {
      "midi": 76,
      "hit": false,
      "t": 54800,
      "d": 400,
      "v": 113
    },
    {
      "midi": 79,
      "hit": false,
      "t": 54800,
      "d": 400,
      "v": 117
    },
    {
      "midi": 72,
      "hit": false,
      "t": 55200,
      "d": 300,
      "v": 117
    },
    {
      "midi": 78,
      "hit": false,
      "t": 55200,
      "d": 1600,
      "v": 116
    },
    {
      "midi": 50,
      "hit": false,
      "t": 55200,
      "d": 2400,
      "v": 82
    },
    {
      "midi": 74,
      "hit": false,
      "t": 55500,
      "d": 1300,
      "v": 117
    },
    {
      "midi": 54,
      "hit": false,
      "t": 56400,
      "d": 1200,
      "v": 88
    },
    {
      "midi": 57,
      "hit": false,
      "t": 56400,
      "d": 1200,
      "v": 88
    },
    {
      "midi": 60,
      "hit": false,
      "t": 56400,
      "d": 1200,
      "v": 91
    },
    {
      "midi": 66,
      "hit": false,
      "t": 56800,
      "d": 400,
      "v": 116
    },
    {
      "midi": 72,
      "hit": false,
      "t": 57200,
      "d": 400,
      "v": 110
    },
    {
      "midi": 76,
      "hit": false,
      "t": 57200,
      "d": 400,
      "v": 110
    },
    {
      "midi": 67,
      "hit": false,
      "t": 57600,
      "d": 300,
      "v": 113
    },
    {
      "midi": 74,
      "hit": false,
      "t": 57600,
      "d": 3600,
      "v": 115
    },
    {
      "midi": 43,
      "hit": false,
      "t": 57600,
      "d": 1200,
      "v": 90
    },
    {
      "midi": 71,
      "hit": false,
      "t": 57900,
      "d": 3300,
      "v": 115
    },
    {
      "midi": 47,
      "hit": false,
      "t": 58800,
      "d": 800,
      "v": 94
    },
    {
      "midi": 52,
      "hit": false,
      "t": 59600,
      "d": 400,
      "v": 96
    },
    {
      "midi": 50,
      "hit": false,
      "t": 60000,
      "d": 1200,
      "v": 90
    },
    {
      "midi": 43,
      "hit": false,
      "t": 61200,
      "d": 1200,
      "v": 99
    },
    {
      "midi": 67,
      "hit": false,
      "t": 61600,
      "d": 400,
      "v": 108
    },
    {
      "midi": 67,
      "hit": false,
      "t": 62000,
      "d": 400,
      "v": 114
    },
    {
      "midi": 74,
      "hit": false,
      "t": 62400,
      "d": 300,
      "v": 115
    },
    {
      "midi": 79,
      "hit": false,
      "t": 62400,
      "d": 1600,
      "v": 106
    },
    {
      "midi": 48,
      "hit": false,
      "t": 62400,
      "d": 2400,
      "v": 98
    },
    {
      "midi": 76,
      "hit": false,
      "t": 62700,
      "d": 1300,
      "v": 117
    },
    {
      "midi": 52,
      "hit": false,
      "t": 63600,
      "d": 1200,
      "v": 96
    },
    {
      "midi": 55,
      "hit": false,
      "t": 63600,
      "d": 1200,
      "v": 98
    },
    {
      "midi": 60,
      "hit": false,
      "t": 63600,
      "d": 1200,
      "v": 93
    },
    {
      "midi": 76,
      "hit": false,
      "t": 64000,
      "d": 400,
      "v": 119
    },
    {
      "midi": 79,
      "hit": false,
      "t": 64000,
      "d": 400,
      "v": 103
    },
    {
      "midi": 76,
      "hit": false,
      "t": 64400,
      "d": 400,
      "v": 117
    },
    {
      "midi": 79,
      "hit": false,
      "t": 64400,
      "d": 400,
      "v": 117
    },
    {
      "midi": 74,
      "hit": false,
      "t": 64800,
      "d": 300,
      "v": 116
    },
    {
      "midi": 81,
      "hit": false,
      "t": 64800,
      "d": 1200,
      "v": 108
    },
    {
      "midi": 50,
      "hit": false,
      "t": 64800,
      "d": 2400,
      "v": 87
    },
    {
      "midi": 76,
      "hit": false,
      "t": 65100,
      "d": 1300,
      "v": 118
    },
    {
      "midi": 81,
      "hit": false,
      "t": 66000,
      "d": 400,
      "v": 116
    },
    {
      "midi": 54,
      "hit": false,
      "t": 66000,
      "d": 1200,
      "v": 99
    },
    {
      "midi": 57,
      "hit": false,
      "t": 66000,
      "d": 1200,
      "v": 83
    },
    {
      "midi": 60,
      "hit": false,
      "t": 66000,
      "d": 1200,
      "v": 85
    },
    {
      "midi": 74,
      "hit": false,
      "t": 66400,
      "d": 400,
      "v": 105
    },
    {
      "midi": 81,
      "hit": false,
      "t": 66400,
      "d": 400,
      "v": 116
    },
    {
      "midi": 76,
      "hit": false,
      "t": 66800,
      "d": 400,
      "v": 119
    },
    {
      "midi": 81,
      "hit": false,
      "t": 66800,
      "d": 400,
      "v": 119
    },
    {
      "midi": 72,
      "hit": false,
      "t": 67200,
      "d": 300,
      "v": 112
    },
    {
      "midi": 79,
      "hit": false,
      "t": 67200,
      "d": 1200,
      "v": 106
    },
    {
      "midi": 43,
      "hit": false,
      "t": 67200,
      "d": 1200,
      "v": 88
    },
    {
      "midi": 74,
      "hit": false,
      "t": 67500,
      "d": 900,
      "v": 108
    },
    {
      "midi": 47,
      "hit": false,
      "t": 68400,
      "d": 1200,
      "v": 97
    },
    {
      "midi": 51,
      "hit": false,
      "t": 68400,
      "d": 1200,
      "v": 89
    },
    {
      "midi": 54,
      "hit": false,
      "t": 68400,
      "d": 1200,
      "v": 96
    },
    {
      "midi": 57,
      "hit": false,
      "t": 68400,
      "d": 1200,
      "v": 91
    },
    {
      "midi": 71,
      "hit": false,
      "t": 68800,
      "d": 400,
      "v": 115
    },
    {
      "midi": 69,
      "hit": false,
      "t": 69200,
      "d": 400,
      "v": 115
    },
    {
      "midi": 67,
      "hit": false,
      "t": 69600,
      "d": 400,
      "v": 119
    },
    {
      "midi": 52,
      "hit": false,
      "t": 69600,
      "d": 1200,
      "v": 90
    },
    {
      "midi": 55,
      "hit": false,
      "t": 69600,
      "d": 1200,
      "v": 83
    },
    {
      "midi": 59,
      "hit": false,
      "t": 69600,
      "d": 1200,
      "v": 88
    },
    {
      "midi": 69,
      "hit": false,
      "t": 70000,
      "d": 400,
      "v": 107
    },
    {
      "midi": 71,
      "hit": false,
      "t": 70400,
      "d": 1000,
      "v": 107
    },
    {
      "midi": 50,
      "hit": false,
      "t": 70800,
      "d": 1200,
      "v": 91
    },
    {
      "midi": 53,
      "hit": false,
      "t": 70800,
      "d": 1200,
      "v": 97
    },
    {
      "midi": 55,
      "hit": false,
      "t": 70800,
      "d": 1200,
      "v": 97
    },
    {
      "midi": 59,
      "hit": false,
      "t": 70800,
      "d": 1200,
      "v": 87
    },
    {
      "midi": 67,
      "hit": false,
      "t": 71400,
      "d": 600,
      "v": 109
    },
    {
      "midi": 74,
      "hit": false,
      "t": 72000,
      "d": 300,
      "v": 113
    },
    {
      "midi": 79,
      "hit": false,
      "t": 72000,
      "d": 1600,
      "v": 115
    },
    {
      "midi": 48,
      "hit": false,
      "t": 72000,
      "d": 2400,
      "v": 91
    },
    {
      "midi": 76,
      "hit": false,
      "t": 72300,
      "d": 1300,
      "v": 116
    },
    {
      "midi": 52,
      "hit": false,
      "t": 73200,
      "d": 1200,
      "v": 93
    },
    {
      "midi": 55,
      "hit": false,
      "t": 73200,
      "d": 1200,
      "v": 96
    },
    {
      "midi": 60,
      "hit": false,
      "t": 73200,
      "d": 1200,
      "v": 98
    },
    {
      "midi": 76,
      "hit": false,
      "t": 73600,
      "d": 400,
      "v": 115
    },
    {
      "midi": 79,
      "hit": false,
      "t": 73600,
      "d": 400,
      "v": 113
    },
    {
      "midi": 76,
      "hit": false,
      "t": 74000,
      "d": 400,
      "v": 119
    },
    {
      "midi": 79,
      "hit": false,
      "t": 74000,
      "d": 400,
      "v": 110
    },
    {
      "midi": 72,
      "hit": false,
      "t": 74400,
      "d": 300,
      "v": 112
    },
    {
      "midi": 80,
      "hit": false,
      "t": 74400,
      "d": 1600,
      "v": 115
    },
    {
      "midi": 52,
      "hit": false,
      "t": 74400,
      "d": 2400,
      "v": 87
    },
    {
      "midi": 74,
      "hit": false,
      "t": 74700,
      "d": 1300,
      "v": 112
    },
    {
      "midi": 56,
      "hit": false,
      "t": 75600,
      "d": 1200,
      "v": 92
    },
    {
      "midi": 59,
      "hit": false,
      "t": 75600,
      "d": 1200,
      "v": 97
    },
    {
      "midi": 64,
      "hit": false,
      "t": 76000,
      "d": 400,
      "v": 113
    },
    {
      "midi": 71,
      "hit": false,
      "t": 76400,
      "d": 400,
      "v": 110
    },
    {
      "midi": 67,
      "hit": false,
      "t": 76800,
      "d": 300,
      "v": 118
    },
    {
      "midi": 72,
      "hit": false,
      "t": 76800,
      "d": 1600,
      "v": 116
    },
    {
      "midi": 48,
      "hit": false,
      "t": 76800,
      "d": 1200,
      "v": 97
    },
    {
      "midi": 69,
      "hit": false,
      "t": 77100,
      "d": 1300,
      "v": 109
    },
    {
      "midi": 52,
      "hit": false,
      "t": 78000,
      "d": 1200,
      "v": 97
    },
    {
      "midi": 55,
      "hit": false,
      "t": 78000,
      "d": 1200,
      "v": 89
    },
    {
      "midi": 60,
      "hit": false,
      "t": 78000,
      "d": 2400,
      "v": 89
    },
    {
      "midi": 69,
      "hit": false,
      "t": 78400,
      "d": 400,
      "v": 110
    },
    {
      "midi": 72,
      "hit": false,
      "t": 78400,
      "d": 800,
      "v": 110
    },
    {
      "midi": 67,
      "hit": false,
      "t": 78800,
      "d": 400,
      "v": 111
    },
    {
      "midi": 64,
      "hit": false,
      "t": 79200,
      "d": 300,
      "v": 119
    },
    {
      "midi": 69,
      "hit": false,
      "t": 79200,
      "d": 1200,
      "v": 119
    },
    {
      "midi": 50,
      "hit": false,
      "t": 79200,
      "d": 1200,
      "v": 86
    },
    {
      "midi": 54,
      "hit": false,
      "t": 79200,
      "d": 1200,
      "v": 86
    },
    {
      "midi": 57,
      "hit": false,
      "t": 79200,
      "d": 1200,
      "v": 99
    },
    {
      "midi": 66,
      "hit": false,
      "t": 79500,
      "d": 900,
      "v": 111
    },
    {
      "midi": 38,
      "hit": false,
      "t": 80400,
      "d": 1200,
      "v": 99
    },
    {
      "midi": 74,
      "hit": false,
      "t": 80800,
      "d": 400,
      "v": 118
    },
    {
      "midi": 74,
      "hit": false,
      "t": 81200,
      "d": 400,
      "v": 108
    },
    {
      "midi": 81,
      "hit": false,
      "t": 81600,
      "d": 290,
      "v": 115
    },
    {
      "midi": 86,
      "hit": false,
      "t": 81600,
      "d": 1490,
      "v": 116
    },
    {
      "midi": 62,
      "hit": false,
      "t": 81600,
      "d": 2400,
      "v": 98
    },
    {
      "midi": 67,
      "hit": false,
      "t": 81600,
      "d": 2400,
      "v": 95
    },
    {
      "midi": 71,
      "hit": false,
      "t": 81600,
      "d": 2400,
      "v": 90
    },
    {
      "midi": 83,
      "hit": false,
      "t": 81900,
      "d": 1190,
      "v": 118
    },
    {
      "midi": 81,
      "hit": false,
      "t": 83100,
      "d": 180,
      "v": 116
    },
    {
      "midi": 83,
      "hit": false,
      "t": 83300,
      "d": 180,
      "v": 107
    },
    {
      "midi": 81,
      "hit": false,
      "t": 83500,
      "d": 170,
      "v": 103
    },
    {
      "midi": 79,
      "hit": false,
      "t": 83700,
      "d": 300,
      "v": 115
    },
    {
      "midi": 81,
      "hit": false,
      "t": 84000,
      "d": 1580,
      "v": 111
    },
    {
      "midi": 87,
      "hit": false,
      "t": 84000,
      "d": 1580,
      "v": 108
    },
    {
      "midi": 63,
      "hit": false,
      "t": 84000,
      "d": 2400,
      "v": 96
    },
    {
      "midi": 66,
      "hit": false,
      "t": 84000,
      "d": 2400,
      "v": 90
    },
    {
      "midi": 69,
      "hit": false,
      "t": 84000,
      "d": 2400,
      "v": 87
    },
    {
      "midi": 72,
      "hit": false,
      "t": 84000,
      "d": 2400,
      "v": 98
    },
    {
      "midi": 83,
      "hit": false,
      "t": 85600,
      "d": 370,
      "v": 118
    },
    {
      "midi": 87,
      "hit": false,
      "t": 85600,
      "d": 370,
      "v": 115
    },
    {
      "midi": 84,
      "hit": false,
      "t": 86000,
      "d": 400,
      "v": 118
    },
    {
      "midi": 87,
      "hit": false,
      "t": 86000,
      "d": 400,
      "v": 119
    },
    {
      "midi": 81,
      "hit": false,
      "t": 86400,
      "d": 300,
      "v": 116
    },
    {
      "midi": 86,
      "hit": false,
      "t": 86400,
      "d": 1500,
      "v": 112
    },
    {
      "midi": 67,
      "hit": false,
      "t": 86400,
      "d": 2400,
      "v": 98
    },
    {
      "midi": 71,
      "hit": false,
      "t": 86400,
      "d": 2400,
      "v": 87
    },
    {
      "midi": 74,
      "hit": false,
      "t": 86400,
      "d": 2400,
      "v": 94
    },
    {
      "midi": 83,
      "hit": false,
      "t": 86700,
      "d": 1200,
      "v": 118
    },
    {
      "midi": 81,
      "hit": false,
      "t": 87900,
      "d": 200,
      "v": 103
    },
    {
      "midi": 83,
      "hit": false,
      "t": 88100,
      "d": 200,
      "v": 111
    },
    {
      "midi": 81,
      "hit": false,
      "t": 88300,
      "d": 200,
      "v": 118
    },
    {
      "midi": 79,
      "hit": false,
      "t": 88500,
      "d": 300,
      "v": 102
    },
    {
      "midi": 81,
      "hit": false,
      "t": 88800,
      "d": 1600,
      "v": 119
    },
    {
      "midi": 87,
      "hit": false,
      "t": 88800,
      "d": 1600,
      "v": 111
    },
    {
      "midi": 63,
      "hit": false,
      "t": 88800,
      "d": 2400,
      "v": 96
    },
    {
      "midi": 66,
      "hit": false,
      "t": 88800,
      "d": 2400,
      "v": 97
    },
    {
      "midi": 69,
      "hit": false,
      "t": 88800,
      "d": 2400,
      "v": 98
    },
    {
      "midi": 72,
      "hit": false,
      "t": 88800,
      "d": 2400,
      "v": 98
    },
    {
      "midi": 83,
      "hit": false,
      "t": 90400,
      "d": 400,
      "v": 116
    },
    {
      "midi": 87,
      "hit": false,
      "t": 90400,
      "d": 400,
      "v": 116
    },
    {
      "midi": 84,
      "hit": false,
      "t": 90800,
      "d": 400,
      "v": 103
    },
    {
      "midi": 87,
      "hit": false,
      "t": 90800,
      "d": 400,
      "v": 113
    },
    {
      "midi": 81,
      "hit": false,
      "t": 91200,
      "d": 300,
      "v": 112
    },
    {
      "midi": 86,
      "hit": false,
      "t": 91200,
      "d": 1500,
      "v": 113
    },
    {
      "midi": 43,
      "hit": false,
      "t": 91200,
      "d": 2400,
      "v": 99
    },
    {
      "midi": 83,
      "hit": false,
      "t": 91500,
      "d": 1200,
      "v": 118
    },
    {
      "midi": 50,
      "hit": false,
      "t": 92400,
      "d": 1200,
      "v": 96
    },
    {
      "midi": 55,
      "hit": false,
      "t": 92400,
      "d": 1200,
      "v": 83
    },
    {
      "midi": 59,
      "hit": false,
      "t": 92400,
      "d": 1200,
      "v": 89
    },
    {
      "midi": 81,
      "hit": false,
      "t": 92700,
      "d": 200,
      "v": 105
    },
    {
      "midi": 86,
      "hit": false,
      "t": 92700,
      "d": 900,
      "v": 119
    },
    {
      "midi": 83,
      "hit": false,
      "t": 92900,
      "d": 200,
      "v": 108
    },
    {
      "midi": 81,
      "hit": false,
      "t": 93100,
      "d": 200,
      "v": 112
    },
    {
      "midi": 79,
      "hit": false,
      "t": 93300,
      "d": 300,
      "v": 106
    },
    {
      "midi": 79,
      "hit": false,
      "t": 93600,
      "d": 300,
      "v": 113
    },
    {
      "midi": 84,
      "hit": false,
      "t": 93600,
      "d": 1500,
      "v": 114
    },
    {
      "midi": 48,
      "hit": false,
      "t": 93600,
      "d": 2400,
      "v": 84
    },
    {
      "midi": 81,
      "hit": false,
      "t": 93900,
      "d": 1200,
      "v": 119
    },
    {
      "midi": 52,
      "hit": false,
      "t": 94800,
      "d": 1200,
      "v": 91
    },
    {
      "midi": 55,
      "hit": false,
      "t": 94800,
      "d": 1200,
      "v": 92
    },
    {
      "midi": 60,
      "hit": false,
      "t": 94800,
      "d": 1200,
      "v": 98
    },
    {
      "midi": 79,
      "hit": false,
      "t": 95100,
      "d": 200,
      "v": 112
    },
    {
      "midi": 84,
      "hit": false,
      "t": 95100,
      "d": 900,
      "v": 116
    },
    {
      "midi": 81,
      "hit": false,
      "t": 95300,
      "d": 200,
      "v": 114
    },
    {
      "midi": 79,
      "hit": false,
      "t": 95500,
      "d": 200,
      "v": 117
    },
    {
      "midi": 76,
      "hit": false,
      "t": 95700,
      "d": 300,
      "v": 116
    },
    {
      "midi": 72,
      "hit": false,
      "t": 96000,
      "d": 300,
      "v": 117
    },
    {
      "midi": 79,
      "hit": false,
      "t": 96000,
      "d": 2400,
      "v": 118
    },
    {
      "midi": 43,
      "hit": false,
      "t": 96000,
      "d": 1200,
      "v": 84
    },
    {
      "midi": 74,
      "hit": false,
      "t": 96300,
      "d": 2100,
      "v": 107
    },
    {
      "midi": 47,
      "hit": false,
      "t": 97200,
      "d": 800,
      "v": 86
    },
    {
      "midi": 52,
      "hit": false,
      "t": 98000,
      "d": 400,
      "v": 94
    },
    {
      "midi": 50,
      "hit": false,
      "t": 98400,
      "d": 2400,
      "v": 92
    },
    {
      "midi": 54,
      "hit": false,
      "t": 99600,
      "d": 1200,
      "v": 97
    },
    {
      "midi": 57,
      "hit": false,
      "t": 99600,
      "d": 1200,
      "v": 97
    },
    {
      "midi": 60,
      "hit": false,
      "t": 99600,
      "d": 1200,
      "v": 94
    },
    {
      "midi": 62,
      "hit": false,
      "t": 99600,
      "d": 1200,
      "v": 83
    },
    {
      "midi": 74,
      "hit": false,
      "t": 100200,
      "d": 600,
      "v": 112
    },
    {
      "midi": 81,
      "hit": false,
      "t": 100800,
      "d": 290,
      "v": 117
    },
    {
      "midi": 86,
      "hit": false,
      "t": 100800,
      "d": 1490,
      "v": 110
    },
    {
      "midi": 43,
      "hit": false,
      "t": 100800,
      "d": 2400,
      "v": 92
    },
    {
      "midi": 83,
      "hit": false,
      "t": 101100,
      "d": 1190,
      "v": 116
    },
    {
      "midi": 50,
      "hit": false,
      "t": 102000,
      "d": 1200,
      "v": 94
    },
    {
      "midi": 55,
      "hit": false,
      "t": 102000,
      "d": 1200,
      "v": 93
    },
    {
      "midi": 59,
      "hit": false,
      "t": 102000,
      "d": 1200,
      "v": 96
    },
    {
      "midi": 81,
      "hit": false,
      "t": 102300,
      "d": 180,
      "v": 115
    },
    {
      "midi": 83,
      "hit": false,
      "t": 102500,
      "d": 180,
      "v": 110
    },
    {
      "midi": 81,
      "hit": false,
      "t": 102700,
      "d": 170,
      "v": 117
    },
    {
      "midi": 79,
      "hit": false,
      "t": 102900,
      "d": 300,
      "v": 119
    },
    {
      "midi": 81,
      "hit": false,
      "t": 103200,
      "d": 1580,
      "v": 117
    },
    {
      "midi": 87,
      "hit": false,
      "t": 103200,
      "d": 1580,
      "v": 113
    },
    {
      "midi": 48,
      "hit": false,
      "t": 103200,
      "d": 2400,
      "v": 90
    },
    {
      "midi": 51,
      "hit": false,
      "t": 104400,
      "d": 1200,
      "v": 87
    },
    {
      "midi": 54,
      "hit": false,
      "t": 104400,
      "d": 1200,
      "v": 88
    },
    {
      "midi": 57,
      "hit": false,
      "t": 104400,
      "d": 1200,
      "v": 97
    },
    {
      "midi": 60,
      "hit": false,
      "t": 104400,
      "d": 1200,
      "v": 98
    },
    {
      "midi": 83,
      "hit": false,
      "t": 104800,
      "d": 370,
      "v": 111
    },
    {
      "midi": 87,
      "hit": false,
      "t": 104800,
      "d": 370,
      "v": 114
    },
    {
      "midi": 84,
      "hit": false,
      "t": 105200,
      "d": 400,
      "v": 119
    },
    {
      "midi": 87,
      "hit": false,
      "t": 105200,
      "d": 400,
      "v": 110
    },
    {
      "midi": 81,
      "hit": false,
      "t": 105600,
      "d": 300,
      "v": 106
    },
    {
      "midi": 86,
      "hit": false,
      "t": 105600,
      "d": 1500,
      "v": 108
    },
    {
      "midi": 43,
      "hit": false,
      "t": 105600,
      "d": 2400,
      "v": 97
    },
    {
      "midi": 83,
      "hit": false,
      "t": 105900,
      "d": 1200,
      "v": 105
    },
    {
      "midi": 50,
      "hit": false,
      "t": 106800,
      "d": 1200,
      "v": 86
    },
    {
      "midi": 55,
      "hit": false,
      "t": 106800,
      "d": 1200,
      "v": 92
    },
    {
      "midi": 59,
      "hit": false,
      "t": 106800,
      "d": 1200,
      "v": 90
    },
    {
      "midi": 81,
      "hit": false,
      "t": 107100,
      "d": 200,
      "v": 111
    },
    {
      "midi": 83,
      "hit": false,
      "t": 107300,
      "d": 200,
      "v": 118
    },
    {
      "midi": 81,
      "hit": false,
      "t": 107500,
      "d": 200,
      "v": 117
    },
    {
      "midi": 79,
      "hit": false,
      "t": 107700,
      "d": 300,
      "v": 115
    },
    {
      "midi": 81,
      "hit": false,
      "t": 108000,
      "d": 1600,
      "v": 108
    },
    {
      "midi": 87,
      "hit": false,
      "t": 108000,
      "d": 1600,
      "v": 112
    },
    {
      "midi": 48,
      "hit": false,
      "t": 108000,
      "d": 2400,
      "v": 93
    },
    {
      "midi": 51,
      "hit": false,
      "t": 109200,
      "d": 1200,
      "v": 99
    },
    {
      "midi": 54,
      "hit": false,
      "t": 109200,
      "d": 1200,
      "v": 89
    },
    {
      "midi": 57,
      "hit": false,
      "t": 109200,
      "d": 1200,
      "v": 84
    },
    {
      "midi": 60,
      "hit": false,
      "t": 109200,
      "d": 1200,
      "v": 94
    },
    {
      "midi": 83,
      "hit": false,
      "t": 109600,
      "d": 400,
      "v": 116
    },
    {
      "midi": 87,
      "hit": false,
      "t": 109600,
      "d": 400,
      "v": 115
    },
    {
      "midi": 84,
      "hit": false,
      "t": 110000,
      "d": 400,
      "v": 114
    },
    {
      "midi": 87,
      "hit": false,
      "t": 110000,
      "d": 400,
      "v": 115
    },
    {
      "midi": 81,
      "hit": false,
      "t": 110400,
      "d": 300,
      "v": 118
    },
    {
      "midi": 86,
      "hit": false,
      "t": 110400,
      "d": 1500,
      "v": 103
    },
    {
      "midi": 43,
      "hit": false,
      "t": 110400,
      "d": 2400,
      "v": 92
    },
    {
      "midi": 83,
      "hit": false,
      "t": 110700,
      "d": 1200,
      "v": 108
    },
    {
      "midi": 50,
      "hit": false,
      "t": 111600,
      "d": 1200,
      "v": 85
    },
    {
      "midi": 55,
      "hit": false,
      "t": 111600,
      "d": 1200,
      "v": 91
    },
    {
      "midi": 59,
      "hit": false,
      "t": 111600,
      "d": 1200,
      "v": 93
    },
    {
      "midi": 81,
      "hit": false,
      "t": 111900,
      "d": 200,
      "v": 119
    },
    {
      "midi": 86,
      "hit": false,
      "t": 111900,
      "d": 900,
      "v": 115
    },
    {
      "midi": 83,
      "hit": false,
      "t": 112100,
      "d": 200,
      "v": 116
    },
    {
      "midi": 81,
      "hit": false,
      "t": 112300,
      "d": 200,
      "v": 107
    },
    {
      "midi": 79,
      "hit": false,
      "t": 112500,
      "d": 300,
      "v": 105
    },
    {
      "midi": 79,
      "hit": false,
      "t": 112800,
      "d": 300,
      "v": 117
    },
    {
      "midi": 84,
      "hit": false,
      "t": 112800,
      "d": 1500,
      "v": 106
    },
    {
      "midi": 48,
      "hit": false,
      "t": 112800,
      "d": 2400,
      "v": 83
    },
    {
      "midi": 81,
      "hit": false,
      "t": 113100,
      "d": 1200,
      "v": 105
    },
    {
      "midi": 52,
      "hit": false,
      "t": 114000,
      "d": 1200,
      "v": 99
    },
    {
      "midi": 55,
      "hit": false,
      "t": 114000,
      "d": 1200,
      "v": 96
    },
    {
      "midi": 60,
      "hit": false,
      "t": 114000,
      "d": 1200,
      "v": 91
    },
    {
      "midi": 79,
      "hit": false,
      "t": 114300,
      "d": 200,
      "v": 114
    },
    {
      "midi": 84,
      "hit": false,
      "t": 114300,
      "d": 900,
      "v": 107
    },
    {
      "midi": 81,
      "hit": false,
      "t": 114500,
      "d": 200,
      "v": 107
    },
    {
      "midi": 79,
      "hit": false,
      "t": 114700,
      "d": 200,
      "v": 115
    },
    {
      "midi": 76,
      "hit": false,
      "t": 114900,
      "d": 300,
      "v": 109
    },
    {
      "midi": 79,
      "hit": false,
      "t": 115200,
      "d": 1200,
      "v": 108
    },
    {
      "midi": 83,
      "hit": false,
      "t": 115200,
      "d": 1200,
      "v": 117
    },
    {
      "midi": 43,
      "hit": false,
      "t": 115200,
      "d": 1200,
      "v": 85
    },
    {
      "midi": 67,
      "hit": false,
      "t": 116400,
      "d": 200,
      "v": 116
    },
    {
      "midi": 74,
      "hit": false,
      "t": 116400,
      "d": 400,
      "v": 113
    },
    {
      "midi": 43,
      "hit": false,
      "t": 116400,
      "d": 1200,
      "v": 91
    },
    {
      "midi": 69,
      "hit": false,
      "t": 116600,
      "d": 200,
      "v": 107
    },
    {
      "midi": 67,
      "hit": false,
      "t": 116800,
      "d": 400,
      "v": 111
    },
    {
      "midi": 74,
      "hit": false,
      "t": 116800,
      "d": 400,
      "v": 103
    },
    {
      "midi": 69,
      "hit": false,
      "t": 117200,
      "d": 400,
      "v": 117
    },
    {
      "midi": 74,
      "hit": false,
      "t": 117200,
      "d": 400,
      "v": 108
    },
    {
      "midi": 69,
      "hit": false,
      "t": 117600,
      "d": 300,
      "v": 115
    },
    {
      "midi": 74,
      "hit": false,
      "t": 117600,
      "d": 1200,
      "v": 116
    },
    {
      "midi": 45,
      "hit": false,
      "t": 117600,
      "d": 1200,
      "v": 96
    },
    {
      "midi": 71,
      "hit": false,
      "t": 117900,
      "d": 900,
      "v": 104
    },
    {
      "midi": 47,
      "hit": false,
      "t": 118800,
      "d": 1200,
      "v": 90
    },
    {
      "midi": 67,
      "hit": false,
      "t": 119200,
      "d": 400,
      "v": 117
    },
    {
      "midi": 67,
      "hit": false,
      "t": 119600,
      "d": 400,
      "v": 115
    },
    {
      "midi": 74,
      "hit": false,
      "t": 120000,
      "d": 300,
      "v": 111
    },
    {
      "midi": 79,
      "hit": false,
      "t": 120000,
      "d": 1600,
      "v": 112
    },
    {
      "midi": 48,
      "hit": false,
      "t": 120000,
      "d": 2400,
      "v": 96
    },
    {
      "midi": 76,
      "hit": false,
      "t": 120300,
      "d": 1300,
      "v": 108
    },
    {
      "midi": 52,
      "hit": false,
      "t": 121200,
      "d": 1200,
      "v": 95
    },
    {
      "midi": 55,
      "hit": false,
      "t": 121200,
      "d": 1200,
      "v": 95
    },
    {
      "midi": 60,
      "hit": false,
      "t": 121200,
      "d": 1200,
      "v": 88
    },
    {
      "midi": 76,
      "hit": false,
      "t": 121600,
      "d": 400,
      "v": 106
    },
    {
      "midi": 79,
      "hit": false,
      "t": 121600,
      "d": 400,
      "v": 117
    },
    {
      "midi": 76,
      "hit": false,
      "t": 122000,
      "d": 400,
      "v": 115
    },
    {
      "midi": 79,
      "hit": false,
      "t": 122000,
      "d": 400,
      "v": 115
    },
    {
      "midi": 74,
      "hit": false,
      "t": 122400,
      "d": 300,
      "v": 115
    },
    {
      "midi": 81,
      "hit": false,
      "t": 122400,
      "d": 1600,
      "v": 103
    },
    {
      "midi": 50,
      "hit": false,
      "t": 122400,
      "d": 2400,
      "v": 90
    },
    {
      "midi": 76,
      "hit": false,
      "t": 122700,
      "d": 1300,
      "v": 107
    },
    {
      "midi": 54,
      "hit": false,
      "t": 123600,
      "d": 1200,
      "v": 87
    },
    {
      "midi": 57,
      "hit": false,
      "t": 123600,
      "d": 1200,
      "v": 85
    },
    {
      "midi": 60,
      "hit": false,
      "t": 123600,
      "d": 1200,
      "v": 91
    },
    {
      "midi": 74,
      "hit": false,
      "t": 124000,
      "d": 400,
      "v": 113
    },
    {
      "midi": 81,
      "hit": false,
      "t": 124000,
      "d": 400,
      "v": 114
    },
    {
      "midi": 76,
      "hit": false,
      "t": 124400,
      "d": 400,
      "v": 118
    },
    {
      "midi": 81,
      "hit": false,
      "t": 124400,
      "d": 400,
      "v": 107
    },
    {
      "midi": 72,
      "hit": false,
      "t": 124800,
      "d": 300,
      "v": 114
    },
    {
      "midi": 79,
      "hit": false,
      "t": 124800,
      "d": 1200,
      "v": 116
    },
    {
      "midi": 43,
      "hit": false,
      "t": 124800,
      "d": 1200,
      "v": 91
    },
    {
      "midi": 74,
      "hit": false,
      "t": 125100,
      "d": 900,
      "v": 115
    },
    {
      "midi": 47,
      "hit": false,
      "t": 126000,
      "d": 1200,
      "v": 97
    },
    {
      "midi": 51,
      "hit": false,
      "t": 126000,
      "d": 1200,
      "v": 90
    },
    {
      "midi": 54,
      "hit": false,
      "t": 126000,
      "d": 1200,
      "v": 92
    },
    {
      "midi": 57,
      "hit": false,
      "t": 126000,
      "d": 1200,
      "v": 96
    },
    {
      "midi": 71,
      "hit": false,
      "t": 126400,
      "d": 400,
      "v": 110
    },
    {
      "midi": 69,
      "hit": false,
      "t": 126800,
      "d": 400,
      "v": 116
    },
    {
      "midi": 67,
      "hit": false,
      "t": 127200,
      "d": 400,
      "v": 112
    },
    {
      "midi": 52,
      "hit": false,
      "t": 127200,
      "d": 1200,
      "v": 96
    },
    {
      "midi": 56,
      "hit": false,
      "t": 127200,
      "d": 1200,
      "v": 87
    },
    {
      "midi": 59,
      "hit": false,
      "t": 127200,
      "d": 1200,
      "v": 92
    },
    {
      "midi": 69,
      "hit": false,
      "t": 127600,
      "d": 400,
      "v": 119
    },
    {
      "midi": 71,
      "hit": false,
      "t": 128000,
      "d": 1000,
      "v": 118
    },
    {
      "midi": 50,
      "hit": false,
      "t": 128400,
      "d": 1200,
      "v": 95
    },
    {
      "midi": 53,
      "hit": false,
      "t": 128400,
      "d": 1200,
      "v": 97
    },
    {
      "midi": 55,
      "hit": false,
      "t": 128400,
      "d": 1200,
      "v": 95
    },
    {
      "midi": 59,
      "hit": false,
      "t": 128400,
      "d": 1200,
      "v": 87
    },
    {
      "midi": 67,
      "hit": false,
      "t": 129000,
      "d": 600,
      "v": 117
    },
    {
      "midi": 74,
      "hit": false,
      "t": 129600,
      "d": 300,
      "v": 107
    },
    {
      "midi": 79,
      "hit": false,
      "t": 129600,
      "d": 1600,
      "v": 108
    },
    {
      "midi": 48,
      "hit": false,
      "t": 129600,
      "d": 2400,
      "v": 96
    },
    {
      "midi": 76,
      "hit": false,
      "t": 129900,
      "d": 1300,
      "v": 114
    },
    {
      "midi": 52,
      "hit": false,
      "t": 130800,
      "d": 1200,
      "v": 92
    },
    {
      "midi": 55,
      "hit": false,
      "t": 130800,
      "d": 1200,
      "v": 94
    },
    {
      "midi": 60,
      "hit": false,
      "t": 130800,
      "d": 1200,
      "v": 90
    },
    {
      "midi": 76,
      "hit": false,
      "t": 131200,
      "d": 400,
      "v": 117
    },
    {
      "midi": 79,
      "hit": false,
      "t": 131200,
      "d": 400,
      "v": 119
    },
    {
      "midi": 76,
      "hit": false,
      "t": 131600,
      "d": 400,
      "v": 110
    },
    {
      "midi": 79,
      "hit": false,
      "t": 131600,
      "d": 400,
      "v": 119
    },
    {
      "midi": 72,
      "hit": false,
      "t": 132000,
      "d": 300,
      "v": 109
    },
    {
      "midi": 78,
      "hit": false,
      "t": 132000,
      "d": 1600,
      "v": 119
    },
    {
      "midi": 50,
      "hit": false,
      "t": 132000,
      "d": 2400,
      "v": 98
    },
    {
      "midi": 74,
      "hit": false,
      "t": 132300,
      "d": 1300,
      "v": 104
    },
    {
      "midi": 54,
      "hit": false,
      "t": 133200,
      "d": 1200,
      "v": 94
    },
    {
      "midi": 57,
      "hit": false,
      "t": 133200,
      "d": 1200,
      "v": 89
    },
    {
      "midi": 60,
      "hit": false,
      "t": 133200,
      "d": 1200,
      "v": 92
    },
    {
      "midi": 66,
      "hit": false,
      "t": 133600,
      "d": 400,
      "v": 111
    },
    {
      "midi": 72,
      "hit": false,
      "t": 134000,
      "d": 400,
      "v": 113
    },
    {
      "midi": 76,
      "hit": false,
      "t": 134000,
      "d": 400,
      "v": 113
    },
    {
      "midi": 67,
      "hit": false,
      "t": 134400,
      "d": 300,
      "v": 116
    },
    {
      "midi": 74,
      "hit": false,
      "t": 134400,
      "d": 3600,
      "v": 118
    },
    {
      "midi": 43,
      "hit": false,
      "t": 134400,
      "d": 1200,
      "v": 91
    },
    {
      "midi": 71,
      "hit": false,
      "t": 134700,
      "d": 3300,
      "v": 109
    },
    {
      "midi": 47,
      "hit": false,
      "t": 135600,
      "d": 800,
      "v": 90
    },
    {
      "midi": 52,
      "hit": false,
      "t": 136400,
      "d": 400,
      "v": 94
    },
    {
      "midi": 50,
      "hit": false,
      "t": 136800,
      "d": 1200,
      "v": 83
    },
    {
      "midi": 43,
      "hit": false,
      "t": 138000,
      "d": 1200,
      "v": 98
    },
    {
      "midi": 67,
      "hit": false,
      "t": 138400,
      "d": 400,
      "v": 119
    },
    {
      "midi": 67,
      "hit": false,
      "t": 138800,
      "d": 400,
      "v": 103
    },
    {
      "midi": 74,
      "hit": false,
      "t": 139200,
      "d": 300,
      "v": 101
    },
    {
      "midi": 79,
      "hit": false,
      "t": 139200,
      "d": 1600,
      "v": 109
    },
    {
      "midi": 48,
      "hit": false,
      "t": 139200,
      "d": 2400,
      "v": 92
    },
    {
      "midi": 76,
      "hit": false,
      "t": 139500,
      "d": 1300,
      "v": 119
    },
    {
      "midi": 52,
      "hit": false,
      "t": 140400,
      "d": 1200,
      "v": 86
    },
    {
      "midi": 55,
      "hit": false,
      "t": 140400,
      "d": 1200,
      "v": 88
    },
    {
      "midi": 60,
      "hit": false,
      "t": 140400,
      "d": 1200,
      "v": 95
    },
    {
      "midi": 76,
      "hit": false,
      "t": 140800,
      "d": 400,
      "v": 103
    },
    {
      "midi": 79,
      "hit": false,
      "t": 140800,
      "d": 400,
      "v": 118
    },
    {
      "midi": 76,
      "hit": false,
      "t": 141200,
      "d": 400,
      "v": 113
    },
    {
      "midi": 79,
      "hit": false,
      "t": 141200,
      "d": 400,
      "v": 116
    },
    {
      "midi": 74,
      "hit": false,
      "t": 141600,
      "d": 300,
      "v": 114
    },
    {
      "midi": 81,
      "hit": false,
      "t": 141600,
      "d": 1200,
      "v": 107
    },
    {
      "midi": 50,
      "hit": false,
      "t": 141600,
      "d": 2400,
      "v": 87
    },
    {
      "midi": 76,
      "hit": false,
      "t": 141900,
      "d": 1300,
      "v": 117
    },
    {
      "midi": 81,
      "hit": false,
      "t": 142800,
      "d": 400,
      "v": 117
    },
    {
      "midi": 54,
      "hit": false,
      "t": 142800,
      "d": 1200,
      "v": 90
    },
    {
      "midi": 57,
      "hit": false,
      "t": 142800,
      "d": 1200,
      "v": 98
    },
    {
      "midi": 60,
      "hit": false,
      "t": 142800,
      "d": 1200,
      "v": 96
    },
    {
      "midi": 74,
      "hit": false,
      "t": 143200,
      "d": 400,
      "v": 110
    },
    {
      "midi": 81,
      "hit": false,
      "t": 143200,
      "d": 400,
      "v": 102
    },
    {
      "midi": 76,
      "hit": false,
      "t": 143600,
      "d": 400,
      "v": 105
    },
    {
      "midi": 81,
      "hit": false,
      "t": 143600,
      "d": 400,
      "v": 115
    },
    {
      "midi": 72,
      "hit": false,
      "t": 144000,
      "d": 300,
      "v": 105
    },
    {
      "midi": 79,
      "hit": false,
      "t": 144000,
      "d": 1200,
      "v": 110
    },
    {
      "midi": 43,
      "hit": false,
      "t": 144000,
      "d": 1200,
      "v": 95
    },
    {
      "midi": 74,
      "hit": false,
      "t": 144300,
      "d": 900,
      "v": 113
    },
    {
      "midi": 47,
      "hit": false,
      "t": 145200,
      "d": 1200,
      "v": 97
    },
    {
      "midi": 51,
      "hit": false,
      "t": 145200,
      "d": 1200,
      "v": 90
    },
    {
      "midi": 54,
      "hit": false,
      "t": 145200,
      "d": 1200,
      "v": 83
    },
    {
      "midi": 57,
      "hit": false,
      "t": 145200,
      "d": 1200,
      "v": 99
    },
    {
      "midi": 71,
      "hit": false,
      "t": 145600,
      "d": 400,
      "v": 105
    },
    {
      "midi": 69,
      "hit": false,
      "t": 146000,
      "d": 400,
      "v": 119
    },
    {
      "midi": 67,
      "hit": false,
      "t": 146400,
      "d": 400,
      "v": 113
    },
    {
      "midi": 52,
      "hit": false,
      "t": 146400,
      "d": 1200,
      "v": 96
    },
    {
      "midi": 55,
      "hit": false,
      "t": 146400,
      "d": 1200,
      "v": 87
    },
    {
      "midi": 59,
      "hit": false,
      "t": 146400,
      "d": 1200,
      "v": 89
    },
    {
      "midi": 69,
      "hit": false,
      "t": 146800,
      "d": 400,
      "v": 119
    },
    {
      "midi": 71,
      "hit": false,
      "t": 147200,
      "d": 1000,
      "v": 115
    },
    {
      "midi": 50,
      "hit": false,
      "t": 147600,
      "d": 1200,
      "v": 91
    },
    {
      "midi": 53,
      "hit": false,
      "t": 147600,
      "d": 1200,
      "v": 94
    },
    {
      "midi": 55,
      "hit": false,
      "t": 147600,
      "d": 1200,
      "v": 94
    },
    {
      "midi": 59,
      "hit": false,
      "t": 147600,
      "d": 1200,
      "v": 94
    },
    {
      "midi": 67,
      "hit": false,
      "t": 148200,
      "d": 600,
      "v": 109
    },
    {
      "midi": 74,
      "hit": false,
      "t": 148800,
      "d": 300,
      "v": 108
    },
    {
      "midi": 79,
      "hit": false,
      "t": 148800,
      "d": 1600,
      "v": 119
    },
    {
      "midi": 48,
      "hit": false,
      "t": 148800,
      "d": 2400,
      "v": 90
    },
    {
      "midi": 76,
      "hit": false,
      "t": 149100,
      "d": 1300,
      "v": 116
    },
    {
      "midi": 52,
      "hit": false,
      "t": 150000,
      "d": 1200,
      "v": 81
    },
    {
      "midi": 55,
      "hit": false,
      "t": 150000,
      "d": 1200,
      "v": 84
    },
    {
      "midi": 60,
      "hit": false,
      "t": 150000,
      "d": 1200,
      "v": 97
    },
    {
      "midi": 76,
      "hit": false,
      "t": 150400,
      "d": 400,
      "v": 119
    },
    {
      "midi": 79,
      "hit": false,
      "t": 150400,
      "d": 400,
      "v": 117
    },
    {
      "midi": 76,
      "hit": false,
      "t": 150800,
      "d": 400,
      "v": 114
    },
    {
      "midi": 79,
      "hit": false,
      "t": 150800,
      "d": 400,
      "v": 107
    },
    {
      "midi": 72,
      "hit": false,
      "t": 151200,
      "d": 300,
      "v": 114
    },
    {
      "midi": 80,
      "hit": false,
      "t": 151200,
      "d": 1600,
      "v": 110
    },
    {
      "midi": 52,
      "hit": false,
      "t": 151200,
      "d": 2400,
      "v": 93
    },
    {
      "midi": 74,
      "hit": false,
      "t": 151500,
      "d": 1300,
      "v": 113
    },
    {
      "midi": 56,
      "hit": false,
      "t": 152400,
      "d": 1200,
      "v": 96
    },
    {
      "midi": 59,
      "hit": false,
      "t": 152400,
      "d": 1200,
      "v": 91
    },
    {
      "midi": 64,
      "hit": false,
      "t": 152800,
      "d": 400,
      "v": 117
    },
    {
      "midi": 71,
      "hit": false,
      "t": 153200,
      "d": 400,
      "v": 110
    },
    {
      "midi": 67,
      "hit": false,
      "t": 153600,
      "d": 300,
      "v": 118
    },
    {
      "midi": 72,
      "hit": false,
      "t": 153600,
      "d": 1600,
      "v": 108
    },
    {
      "midi": 48,
      "hit": false,
      "t": 153600,
      "d": 1200,
      "v": 95
    },
    {
      "midi": 69,
      "hit": false,
      "t": 153900,
      "d": 1300,
      "v": 116
    },
    {
      "midi": 52,
      "hit": false,
      "t": 154800,
      "d": 1200,
      "v": 90
    },
    {
      "midi": 55,
      "hit": false,
      "t": 154800,
      "d": 1200,
      "v": 93
    },
    {
      "midi": 60,
      "hit": false,
      "t": 154800,
      "d": 2400,
      "v": 94
    },
    {
      "midi": 69,
      "hit": false,
      "t": 155200,
      "d": 400,
      "v": 118
    },
    {
      "midi": 72,
      "hit": false,
      "t": 155200,
      "d": 800,
      "v": 110
    },
    {
      "midi": 67,
      "hit": false,
      "t": 155600,
      "d": 400,
      "v": 118
    },
    {
      "midi": 64,
      "hit": false,
      "t": 156000,
      "d": 300,
      "v": 107
    },
    {
      "midi": 69,
      "hit": false,
      "t": 156000,
      "d": 1200,
      "v": 118
    },
    {
      "midi": 50,
      "hit": false,
      "t": 156000,
      "d": 1200,
      "v": 86
    },
    {
      "midi": 54,
      "hit": false,
      "t": 156000,
      "d": 1200,
      "v": 96
    },
    {
      "midi": 57,
      "hit": false,
      "t": 156000,
      "d": 1200,
      "v": 99
    },
    {
      "midi": 66,
      "hit": false,
      "t": 156300,
      "d": 900,
      "v": 103
    },
    {
      "midi": 38,
      "hit": false,
      "t": 157200,
      "d": 1200,
      "v": 87
    },
    {
      "midi": 74,
      "hit": false,
      "t": 157600,
      "d": 400,
      "v": 114
    },
    {
      "midi": 74,
      "hit": false,
      "t": 158000,
      "d": 400,
      "v": 106
    },
    {
      "midi": 81,
      "hit": false,
      "t": 158400,
      "d": 290,
      "v": 109
    },
    {
      "midi": 86,
      "hit": false,
      "t": 158400,
      "d": 1490,
      "v": 119
    },
    {
      "midi": 62,
      "hit": false,
      "t": 158400,
      "d": 2400,
      "v": 90
    },
    {
      "midi": 67,
      "hit": false,
      "t": 158400,
      "d": 2400,
      "v": 92
    },
    {
      "midi": 71,
      "hit": false,
      "t": 158400,
      "d": 2400,
      "v": 87
    },
    {
      "midi": 83,
      "hit": false,
      "t": 158700,
      "d": 1190,
      "v": 108
    },
    {
      "midi": 81,
      "hit": false,
      "t": 159900,
      "d": 180,
      "v": 116
    },
    {
      "midi": 86,
      "hit": false,
      "t": 159900,
      "d": 900,
      "v": 118
    },
    {
      "midi": 83,
      "hit": false,
      "t": 160100,
      "d": 180,
      "v": 105
    },
    {
      "midi": 81,
      "hit": false,
      "t": 160300,
      "d": 170,
      "v": 116
    },
    {
      "midi": 79,
      "hit": false,
      "t": 160500,
      "d": 300,
      "v": 119
    },
    {
      "midi": 81,
      "hit": false,
      "t": 160800,
      "d": 1580,
      "v": 108
    },
    {
      "midi": 87,
      "hit": false,
      "t": 160800,
      "d": 1580,
      "v": 105
    },
    {
      "midi": 63,
      "hit": false,
      "t": 160800,
      "d": 2400,
      "v": 94
    },
    {
      "midi": 66,
      "hit": false,
      "t": 160800,
      "d": 2400,
      "v": 81
    },
    {
      "midi": 69,
      "hit": false,
      "t": 160800,
      "d": 2400,
      "v": 93
    },
    {
      "midi": 72,
      "hit": false,
      "t": 160800,
      "d": 2400,
      "v": 96
    },
    {
      "midi": 83,
      "hit": false,
      "t": 162400,
      "d": 370,
      "v": 116
    },
    {
      "midi": 87,
      "hit": false,
      "t": 162400,
      "d": 370,
      "v": 111
    },
    {
      "midi": 84,
      "hit": false,
      "t": 162800,
      "d": 400,
      "v": 117
    },
    {
      "midi": 87,
      "hit": false,
      "t": 162800,
      "d": 400,
      "v": 115
    },
    {
      "midi": 81,
      "hit": false,
      "t": 163200,
      "d": 300,
      "v": 118
    },
    {
      "midi": 86,
      "hit": false,
      "t": 163200,
      "d": 1500,
      "v": 114
    },
    {
      "midi": 67,
      "hit": false,
      "t": 163200,
      "d": 2400,
      "v": 99
    },
    {
      "midi": 71,
      "hit": false,
      "t": 163200,
      "d": 2400,
      "v": 99
    },
    {
      "midi": 74,
      "hit": false,
      "t": 163200,
      "d": 2400,
      "v": 98
    },
    {
      "midi": 83,
      "hit": false,
      "t": 163500,
      "d": 1200,
      "v": 110
    },
    {
      "midi": 81,
      "hit": false,
      "t": 164700,
      "d": 200,
      "v": 118
    },
    {
      "midi": 86,
      "hit": false,
      "t": 164700,
      "d": 900,
      "v": 117
    },
    {
      "midi": 83,
      "hit": false,
      "t": 164900,
      "d": 200,
      "v": 117
    },
    {
      "midi": 81,
      "hit": false,
      "t": 165100,
      "d": 200,
      "v": 101
    },
    {
      "midi": 79,
      "hit": false,
      "t": 165300,
      "d": 300,
      "v": 119
    },
    {
      "midi": 81,
      "hit": false,
      "t": 165600,
      "d": 1600,
      "v": 116
    },
    {
      "midi": 87,
      "hit": false,
      "t": 165600,
      "d": 1600,
      "v": 112
    },
    {
      "midi": 63,
      "hit": false,
      "t": 165600,
      "d": 2400,
      "v": 93
    },
    {
      "midi": 66,
      "hit": false,
      "t": 165600,
      "d": 2400,
      "v": 89
    },
    {
      "midi": 69,
      "hit": false,
      "t": 165600,
      "d": 2400,
      "v": 94
    },
    {
      "midi": 72,
      "hit": false,
      "t": 165600,
      "d": 2400,
      "v": 92
    },
    {
      "midi": 83,
      "hit": false,
      "t": 167200,
      "d": 400,
      "v": 110
    },
    {
      "midi": 87,
      "hit": false,
      "t": 167200,
      "d": 400,
      "v": 114
    },
    {
      "midi": 84,
      "hit": false,
      "t": 167600,
      "d": 400,
      "v": 119
    },
    {
      "midi": 87,
      "hit": false,
      "t": 167600,
      "d": 400,
      "v": 103
    },
    {
      "midi": 81,
      "hit": false,
      "t": 168000,
      "d": 300,
      "v": 113
    },
    {
      "midi": 86,
      "hit": false,
      "t": 168000,
      "d": 1500,
      "v": 115
    },
    {
      "midi": 43,
      "hit": false,
      "t": 168000,
      "d": 2400,
      "v": 97
    },
    {
      "midi": 83,
      "hit": false,
      "t": 168300,
      "d": 1200,
      "v": 110
    },
    {
      "midi": 50,
      "hit": false,
      "t": 169200,
      "d": 1200,
      "v": 98
    },
    {
      "midi": 55,
      "hit": false,
      "t": 169200,
      "d": 1200,
      "v": 89
    },
    {
      "midi": 59,
      "hit": false,
      "t": 169200,
      "d": 1200,
      "v": 89
    },
    {
      "midi": 81,
      "hit": false,
      "t": 169500,
      "d": 200,
      "v": 112
    },
    {
      "midi": 86,
      "hit": false,
      "t": 169500,
      "d": 900,
      "v": 108
    },
    {
      "midi": 83,
      "hit": false,
      "t": 169700,
      "d": 200,
      "v": 103
    },
    {
      "midi": 81,
      "hit": false,
      "t": 169900,
      "d": 200,
      "v": 117
    },
    {
      "midi": 79,
      "hit": false,
      "t": 170100,
      "d": 300,
      "v": 113
    },
    {
      "midi": 79,
      "hit": false,
      "t": 170400,
      "d": 300,
      "v": 115
    },
    {
      "midi": 84,
      "hit": false,
      "t": 170400,
      "d": 1500,
      "v": 102
    },
    {
      "midi": 48,
      "hit": false,
      "t": 170400,
      "d": 2400,
      "v": 92
    },
    {
      "midi": 81,
      "hit": false,
      "t": 170700,
      "d": 1200,
      "v": 118
    },
    {
      "midi": 52,
      "hit": false,
      "t": 171600,
      "d": 1200,
      "v": 80
    },
    {
      "midi": 55,
      "hit": false,
      "t": 171600,
      "d": 1200,
      "v": 94
    },
    {
      "midi": 60,
      "hit": false,
      "t": 171600,
      "d": 1200,
      "v": 89
    },
    {
      "midi": 79,
      "hit": false,
      "t": 171900,
      "d": 200,
      "v": 112
    },
    {
      "midi": 84,
      "hit": false,
      "t": 171900,
      "d": 900,
      "v": 105
    },
    {
      "midi": 81,
      "hit": false,
      "t": 172100,
      "d": 200,
      "v": 109
    },
    {
      "midi": 79,
      "hit": false,
      "t": 172300,
      "d": 200,
      "v": 115
    },
    {
      "midi": 76,
      "hit": false,
      "t": 172500,
      "d": 300,
      "v": 113
    },
    {
      "midi": 72,
      "hit": false,
      "t": 172800,
      "d": 300,
      "v": 112
    },
    {
      "midi": 79,
      "hit": false,
      "t": 172800,
      "d": 1200,
      "v": 117
    },
    {
      "midi": 55,
      "hit": false,
      "t": 172800,
      "d": 1200,
      "v": 96
    },
    {
      "midi": 74,
      "hit": false,
      "t": 173100,
      "d": 900,
      "v": 119
    },
    {
      "midi": 67,
      "hit": false,
      "t": 174000,
      "d": 200,
      "v": 117
    },
    {
      "midi": 74,
      "hit": false,
      "t": 174000,
      "d": 800,
      "v": 111
    },
    {
      "midi": 50,
      "hit": false,
      "t": 174000,
      "d": 1200,
      "v": 89
    },
    {
      "midi": 69,
      "hit": false,
      "t": 174200,
      "d": 200,
      "v": 110
    },
    {
      "midi": 67,
      "hit": false,
      "t": 174400,
      "d": 400,
      "v": 115
    },
    {
      "midi": 69,
      "hit": false,
      "t": 174800,
      "d": 400,
      "v": 109
    },
    {
      "midi": 74,
      "hit": false,
      "t": 174800,
      "d": 400,
      "v": 119
    },
    {
      "midi": 69,
      "hit": false,
      "t": 175200,
      "d": 300,
      "v": 110
    },
    {
      "midi": 74,
      "hit": false,
      "t": 175200,
      "d": 1200,
      "v": 118
    },
    {
      "midi": 43,
      "hit": false,
      "t": 175200,
      "d": 1200,
      "v": 86
    },
    {
      "midi": 71,
      "hit": false,
      "t": 175500,
      "d": 900,
      "v": 118
    },
    {
      "midi": 79,
      "hit": false,
      "t": 176800,
      "d": 400,
      "v": 107
    },
    {
      "midi": 86,
      "hit": false,
      "t": 176800,
      "d": 400,
      "v": 118
    },
    {
      "midi": 81,
      "hit": false,
      "t": 177200,
      "d": 400,
      "v": 119
    },
    {
      "midi": 86,
      "hit": false,
      "t": 177200,
      "d": 400,
      "v": 109
    },
    {
      "midi": 81,
      "hit": false,
      "t": 177600,
      "d": 300,
      "v": 111
    },
    {
      "midi": 86,
      "hit": false,
      "t": 177600,
      "d": 1500,
      "v": 119
    },
    {
      "midi": 67,
      "hit": false,
      "t": 177600,
      "d": 2400,
      "v": 87
    },
    {
      "midi": 71,
      "hit": false,
      "t": 177600,
      "d": 2400,
      "v": 96
    },
    {
      "midi": 74,
      "hit": false,
      "t": 177600,
      "d": 2400,
      "v": 91
    },
    {
      "midi": 83,
      "hit": false,
      "t": 177900,
      "d": 1200,
      "v": 117
    },
    {
      "midi": 81,
      "hit": false,
      "t": 179100,
      "d": 200,
      "v": 108
    },
    {
      "midi": 86,
      "hit": false,
      "t": 179100,
      "d": 900,
      "v": 113
    },
    {
      "midi": 83,
      "hit": false,
      "t": 179300,
      "d": 200,
      "v": 117
    },
    {
      "midi": 81,
      "hit": false,
      "t": 179500,
      "d": 200,
      "v": 115
    },
    {
      "midi": 79,
      "hit": false,
      "t": 179700,
      "d": 300,
      "v": 109
    },
    {
      "midi": 81,
      "hit": false,
      "t": 180000,
      "d": 600,
      "v": 115
    },
    {
      "midi": 87,
      "hit": false,
      "t": 180000,
      "d": 600,
      "v": 115
    },
    {
      "midi": 63,
      "hit": false,
      "t": 180000,
      "d": 2400,
      "v": 91
    },
    {
      "midi": 66,
      "hit": false,
      "t": 180000,
      "d": 2400,
      "v": 88
    },
    {
      "midi": 69,
      "hit": false,
      "t": 180000,
      "d": 2400,
      "v": 97
    },
    {
      "midi": 72,
      "hit": false,
      "t": 180000,
      "d": 2400,
      "v": 93
    },
    {
      "midi": 83,
      "hit": false,
      "t": 180600,
      "d": 600,
      "v": 118
    },
    {
      "midi": 87,
      "hit": false,
      "t": 180600,
      "d": 600,
      "v": 113
    },
    {
      "midi": 84,
      "hit": false,
      "t": 181200,
      "d": 600,
      "v": 116
    },
    {
      "midi": 87,
      "hit": false,
      "t": 181200,
      "d": 600,
      "v": 113
    },
    {
      "midi": 81,
      "hit": false,
      "t": 181800,
      "d": 600,
      "v": 118
    },
    {
      "midi": 87,
      "hit": false,
      "t": 181800,
      "d": 600,
      "v": 116
    },
    {
      "midi": 81,
      "hit": false,
      "t": 182400,
      "d": 300,
      "v": 119
    },
    {
      "midi": 86,
      "hit": false,
      "t": 182400,
      "d": 2100,
      "v": 90
    },
    {
      "midi": 62,
      "hit": false,
      "t": 182400,
      "d": 2400,
      "v": 98
    },
    {
      "midi": 67,
      "hit": false,
      "t": 182400,
      "d": 2400,
      "v": 92
    },
    {
      "midi": 71,
      "hit": false,
      "t": 182400,
      "d": 2400,
      "v": 96
    },
    {
      "midi": 83,
      "hit": false,
      "t": 182700,
      "d": 1800,
      "v": 117
    },
    {
      "midi": 69,
      "hit": false,
      "t": 184800,
      "d": 300,
      "v": 103
    },
    {
      "midi": 67,
      "hit": false,
      "t": 184800,
      "d": 2400,
      "v": 111
    },
    {
      "midi": 74,
      "hit": false,
      "t": 184800,
      "d": 2400,
      "v": 114
    },
    {
      "midi": 43,
      "hit": false,
      "t": 184800,
      "d": 2400,
      "v": 95
    },
    {
      "midi": 50,
      "hit": false,
      "t": 184800,
      "d": 2400,
      "v": 98
    },
    {
      "midi": 59,
      "hit": false,
      "t": 184800,
      "d": 2400,
      "v": 98
    },
    {
      "midi": 71,
      "hit": false,
      "t": 185100,
      "d": 2100,
      "v": 108
    }
  ]
}