{
  "jsonPath": "Soundtracks/Soundtrack/Alan Silvestri/forest-gump-theme.json",
  "path": "Soundtracks\\Soundtrack\\Alan Silvestri\\Forest Gump Theme.mid",
  "name": "Forest Gump Theme",
  "difficulty": "Advanced",
  "bpm": 100,
  "notes": [
    {
      "midi": 57,
      "hit": false,
      "t": 0,
      "d": 300,
      "v": 80
    },
    {
      "midi": 64,
      "hit": false,
      "t": 300,
      "d": 600,
      "v": 80
    },
    {
      "midi": 64,
      "hit": false,
      "t": 900,
      "d": 600,
      "v": 80
    },
    {
      "midi": 64,
      "hit": false,
      "t": 1500,
      "d": 600,
      "v": 80
    },
    {
      "midi": 64,
      "hit": false,
      "t": 2100,
      "d": 300,
      "v": 80
    },
    {
      "midi": 57,
      "hit": false,
      "t": 2400,
      "d": 300,
      "v": 80
    },
    {
      "midi": 64,
      "hit": false,
      "t": 2700,
      "d": 600,
      "v": 80
    },
    {
      "midi": 64,
      "hit": false,
      "t": 3300,
      "d": 600,
      "v": 80
    },
    {
      "midi": 64,
      "hit": false,
      "t": 3900,
      "d": 600,
      "v": 80
    },
    {
      "midi": 64,
      "hit": false,
      "t": 4500,
      "d": 300,
      "v": 80
    },
    {
      "midi": 57,
      "hit": false,
      "t": 4800,
      "d": 300,
      "v": 80
    },
    {
      "midi": 64,
      "hit": false,
      "t": 5100,
      "d": 600,
      "v": 80
    },
    {
      "midi": 64,
      "hit": false,
      "t": 5700,
      "d": 600,
      "v": 80
    },
    {
      "midi": 64,
      "hit": false,
      "t": 6300,
      "d": 600,
      "v": 80
    },
    {
      "midi": 64,
      "hit": false,
      "t": 6900,
      "d": 300,
      "v": 80
    },
    {
      "midi": 57,
      "hit": false,
      "t": 7200,
      "d": 300,
      "v": 80
    },
    {
      "midi": 64,
      "hit": false,
      "t": 7500,
      "d": 600,
      "v": 80
    },
    {
      "midi": 64,
      "hit": false,
      "t": 8100,
      "d": 600,
      "v": 80
    },
    {
      "midi": 64,
      "hit": false,
      "t": 8700,
      "d": 600,
      "v": 80
    },
    {
      "midi": 64,
      "hit": false,
      "t": 9300,
      "d": 300,
      "v": 80
    },
    {
      "midi": 73,
      "hit": false,
      "t": 9600,
      "d": 300,
      "v": 110
    },
    {
      "midi": 57,
      "hit": false,
      "t": 9600,
      "d": 300,
      "v": 80
    },
    {
      "midi": 74,
      "hit": false,
      "t": 9900,
      "d": 300,
      "v": 110
    },
    {
      "midi": 64,
      "hit": false,
      "t": 9900,
      "d": 600,
      "v": 80
    },
    {
      "midi": 76,
      "hit": false,
      "t": 10200,
      "d": 300,
      "v": 110
    },
    {
      "midi": 76,
      "hit": false,
      "t": 10500,
      "d": 600,
      "v": 110
    },
    {
      "midi": 64,
      "hit": false,
      "t": 10500,
      "d": 600,
      "v": 80
    },
    {
      "midi": 73,
      "hit": false,
      "t": 11100,
      "d": 600,
      "v": 110
    },
    {
      "midi": 64,
      "hit": false,
      "t": 11100,
      "d": 600,
      "v": 80
    },
    {
      "midi": 76,
      "hit": false,
      "t": 11700,
      "d": 300,
      "v": 110
    },
    {
      "midi": 64,
      "hit": false,
      "t": 11700,
      "d": 300,
      "v": 80
    },
    {
      "midi": 57,
      "hit": false,
      "t": 12000,
      "d": 300,
      "v": 80
    },
    {
      "midi": 81,
      "hit": false,
      "t": 12300,
      "d": 600,
      "v": 110
    },
    {
      "midi": 64,
      "hit": false,
      "t": 12300,
      "d": 600,
      "v": 80
    },
    {
      "midi": 76,
      "hit": false,
      "t": 12900,
      "d": 600,
      "v": 110
    },
    {
      "midi": 64,
      "hit": false,
      "t": 12900,
      "d": 600,
      "v": 80
    },
    {
      "midi": 73,
      "hit": false,
      "t": 13500,
      "d": 900,
      "v": 110
    },
    {
      "midi": 64,
      "hit": false,
      "t": 13500,
      "d": 600,
      "v": 80
    },
    {
      "midi": 64,
      "hit": false,
      "t": 14100,
      "d": 300,
      "v": 80
    },
    {
      "midi": 74,
      "hit": false,
      "t": 14400,
      "d": 300,
      "v": 110
    },
    {
      "midi": 57,
      "hit": false,
      "t": 14400,
      "d": 300,
      "v": 80
    },
    {
      "midi": 76,
      "hit": false,
      "t": 14700,
      "d": 300,
      "v": 110
    },
    {
      "midi": 64,
      "hit": false,
      "t": 14700,
      "d": 600,
      "v": 80
    },
    {
      "midi": 78,
      "hit": false,
      "t": 15000,
      "d": 300,
      "v": 110
    },
    {
      "midi": 78,
      "hit": false,
      "t": 15300,
      "d": 600,
      "v": 110
    },
    {
      "midi": 64,
      "hit": false,
      "t": 15300,
      "d": 600,
      "v": 80
    },
    {
      "midi": 74,
      "hit": false,
      "t": 15900,
      "d": 600,
      "v": 110
    },
    {
      "midi": 64,
      "hit": false,
      "t": 15900,
      "d": 600,
      "v": 80
    },
    {
      "midi": 78,
      "hit": false,
      "t": 16500,
      "d": 300,
      "v": 110
    },
    {
      "midi": 64,
      "hit": false,
      "t": 16500,
      "d": 300,
      "v": 80
    },
    {
      "midi": 57,
      "hit": false,
      "t": 16800,
      "d": 300,
      "v": 80
    },
    {
      "midi": 66,
      "hit": false,
      "t": 17100,
      "d": 600,
      "v": 80
    },
    {
      "midi": 66,
      "hit": false,
      "t": 17700,
      "d": 600,
      "v": 80
    },
    {
      "midi": 66,
      "hit": false,
      "t": 18300,
      "d": 600,
      "v": 80
    },
    {
      "midi": 66,
      "hit": false,
      "t": 18900,
      "d": 300,
      "v": 80
    },
    {
      "midi": 74,
      "hit": false,
      "t": 19200,
      "d": 300,
      "v": 110
    },
    {
      "midi": 59,
      "hit": false,
      "t": 19200,
      "d": 300,
      "v": 80
    },
    {
      "midi": 76,
      "hit": false,
      "t": 19500,
      "d": 300,
      "v": 110
    },
    {
      "midi": 66,
      "hit": false,
      "t": 19500,
      "d": 600,
      "v": 80
    },
    {
      "midi": 78,
      "hit": false,
      "t": 19800,
      "d": 300,
      "v": 110
    },
    {
      "midi": 78,
      "hit": false,
      "t": 20100,
      "d": 600,
      "v": 110
    },
    {
      "midi": 66,
      "hit": false,
      "t": 20100,
      "d": 600,
      "v": 80
    },
    {
      "midi": 74,
      "hit": false,
      "t": 20700,
      "d": 600,
      "v": 110
    },
    {
      "midi": 66,
      "hit": false,
      "t": 20700,
      "d": 600,
      "v": 80
    },
    {
      "midi": 78,
      "hit": false,
      "t": 21300,
      "d": 300,
      "v": 110
    },
    {
      "midi": 66,
      "hit": false,
      "t": 21300,
      "d": 300,
      "v": 80
    },
    {
      "midi": 56,
      "hit": false,
      "t": 21600,
      "d": 300,
      "v": 80
    },
    {
      "midi": 83,
      "hit": false,
      "t": 21900,
      "d": 600,
      "v": 110
    },
    {
      "midi": 64,
      "hit": false,
      "t": 21900,
      "d": 600,
      "v": 80
    },
    {
      "midi": 80,
      "hit": false,
      "t": 22500,
      "d": 600,
      "v": 110
    },
    {
      "midi": 64,
      "hit": false,
      "t": 22500,
      "d": 600,
      "v": 80
    },
    {
      "midi": 76,
      "hit": false,
      "t": 23100,
      "d": 900,
      "v": 110
    },
    {
      "midi": 64,
      "hit": false,
      "t": 23100,
      "d": 600,
      "v": 80
    },
    {
      "midi": 64,
      "hit": false,
      "t": 23700,
      "d": 300,
      "v": 80
    },
    {
      "midi": 73,
      "hit": false,
      "t": 24000,
      "d": 300,
      "v": 110
    },
    {
      "midi": 57,
      "hit": false,
      "t": 24000,
      "d": 300,
      "v": 80
    },
    {
      "midi": 74,
      "hit": false,
      "t": 24300,
      "d": 300,
      "v": 110
    },
    {
      "midi": 64,
      "hit": false,
      "t": 24300,
      "d": 600,
      "v": 80
    },
    {
      "midi": 76,
      "hit": false,
      "t": 24600,
      "d": 300,
      "v": 110
    },
    {
      "midi": 76,
      "hit": false,
      "t": 24900,
      "d": 600,
      "v": 110
    },
    {
      "midi": 64,
      "hit": false,
      "t": 24900,
      "d": 600,
      "v": 80
    },
    {
      "midi": 81,
      "hit": false,
      "t": 25500,
      "d": 600,
      "v": 110
    },
    {
      "midi": 64,
      "hit": false,
      "t": 25500,
      "d": 600,
      "v": 80
    },
    {
      "midi": 76,
      "hit": false,
      "t": 26100,
      "d": 300,
      "v": 110
    },
    {
      "midi": 64,
      "hit": false,
      "t": 26100,
      "d": 300,
      "v": 80
    },
    {
      "midi": 57,
      "hit": false,
      "t": 26400,
      "d": 300,
      "v": 80
    },
    {
      "midi": 64,
      "hit": false,
      "t": 26700,
      "d": 600,
      "v": 81
    },
    {
      "midi": 64,
      "hit": false,
      "t": 27300,
      "d": 300,
      "v": 83
    },
    {
      "midi": 57,
      "hit": false,
      "t": 27600,
      "d": 300,
      "v": 85
    },
    {
      "midi": 64,
      "hit": false,
      "t": 27900,
      "d": 300,
      "v": 86
    },
    {
      "midi": 56,
      "hit": false,
      "t": 28200,
      "d": 300,
      "v": 87
    },
    {
      "midi": 64,
      "hit": false,
      "t": 28500,
      "d": 300,
      "v": 88
    },
    {
      "midi": 69,
      "hit": false,
      "t": 28800,
      "d": 300,
      "v": 110
    },
    {
      "midi": 78,
      "hit": false,
      "t": 28800,
      "d": 300,
      "v": 110
    },
    {
      "midi": 54,
      "hit": false,
      "t": 28800,
      "d": 300,
      "v": 90
    },
    {
      "midi": 71,
      "hit": false,
      "t": 29100,
      "d": 300,
      "v": 110
    },
    {
      "midi": 80,
      "hit": false,
      "t": 29100,
      "d": 300,
      "v": 110
    },
    {
      "midi": 61,
      "hit": false,
      "t": 29100,
      "d": 600,
      "v": 90
    },
    {
      "midi": 73,
      "hit": false,
      "t": 29400,
      "d": 300,
      "v": 110
    },
    {
      "midi": 81,
      "hit": false,
      "t": 29400,
      "d": 300,
      "v": 110
    },
    {
      "midi": 73,
      "hit": false,
      "t": 29700,
      "d": 600,
      "v": 110
    },
    {
      "midi": 81,
      "hit": false,
      "t": 29700,
      "d": 600,
      "v": 110
    },
    {
      "midi": 61,
      "hit": false,
      "t": 29700,
      "d": 600,
      "v": 90
    },
    {
      "midi": 69,
      "hit": false,
      "t": 30300,
      "d": 600,
      "v": 110
    },
    {
      "midi": 78,
      "hit": false,
      "t": 30300,
      "d": 600,
      "v": 110
    },
    {
      "midi": 61,
      "hit": false,
      "t": 30300,
      "d": 600,
      "v": 90
    },
    {
      "midi": 73,
      "hit": false,
      "t": 30900,
      "d": 300,
      "v": 110
    },
    {
      "midi": 81,
      "hit": false,
      "t": 30900,
      "d": 300,
      "v": 110
    },
    {
      "midi": 61,
      "hit": false,
      "t": 30900,
      "d": 300,
      "v": 90
    },
    {
      "midi": 54,
      "hit": false,
      "t": 31200,
      "d": 300,
      "v": 90
    },
    {
      "midi": 61,
      "hit": false,
      "t": 31500,
      "d": 600,
      "v": 90
    },
    {
      "midi": 69,
      "hit": false,
      "t": 31800,
      "d": 300,
      "v": 110
    },
    {
      "midi": 78,
      "hit": false,
      "t": 31800,
      "d": 300,
      "v": 110
    },
    {
      "midi": 73,
      "hit": false,
      "t": 32100,
      "d": 600,
      "v": 110
    },
    {
      "midi": 81,
      "hit": false,
      "t": 32100,
      "d": 600,
      "v": 110
    },
    {
      "midi": 61,
      "hit": false,
      "t": 32100,
      "d": 300,
      "v": 90
    },
    {
      "midi": 54,
      "hit": false,
      "t": 32400,
      "d": 300,
      "v": 90
    },
    {
      "midi": 69,
      "hit": false,
      "t": 32700,
      "d": 900,
      "v": 110
    },
    {
      "midi": 78,
      "hit": false,
      "t": 32700,
      "d": 900,
      "v": 110
    },
    {
      "midi": 61,
      "hit": false,
      "t": 32700,
      "d": 300,
      "v": 90
    },
    {
      "midi": 52,
      "hit": false,
      "t": 33000,
      "d": 300,
      "v": 90
    },
    {
      "midi": 61,
      "hit": false,
      "t": 33300,
      "d": 300,
      "v": 90
    },
    {
      "midi": 66,
      "hit": false,
      "t": 33600,
      "d": 300,
      "v": 110
    },
    {
      "midi": 74,
      "hit": false,
      "t": 33600,
      "d": 300,
      "v": 110
    },
    {
      "midi": 50,
      "hit": false,
      "t": 33600,
      "d": 300,
      "v": 90
    },
    {
      "midi": 68,
      "hit": false,
      "t": 33900,
      "d": 300,
      "v": 110
    },
    {
      "midi": 76,
      "hit": false,
      "t": 33900,
      "d": 300,
      "v": 110
    },
    {
      "midi": 57,
      "hit": false,
      "t": 33900,
      "d": 600,
      "v": 90
    },
    {
      "midi": 69,
      "hit": false,
      "t": 34200,
      "d": 300,
      "v": 110
    },
    {
      "midi": 78,
      "hit": false,
      "t": 34200,
      "d": 300,
      "v": 110
    },
    {
      "midi": 69,
      "hit": false,
      "t": 34500,
      "d": 600,
      "v": 110
    },
    {
      "midi": 78,
      "hit": false,
      "t": 34500,
      "d": 600,
      "v": 110
    },
    {
      "midi": 57,
      "hit": false,
      "t": 34500,
      "d": 600,
      "v": 90
    },
    {
      "midi": 66,
      "hit": false,
      "t": 35100,
      "d": 600,
      "v": 110
    },
    {
      "midi": 74,
      "hit": false,
      "t": 35100,
      "d": 600,
      "v": 110
    },
    {
      "midi": 57,
      "hit": false,
      "t": 35100,
      "d": 600,
      "v": 90
    },
    {
      "midi": 69,
      "hit": false,
      "t": 35700,
      "d": 300,
      "v": 110
    },
    {
      "midi": 78,
      "hit": false,
      "t": 35700,
      "d": 300,
      "v": 110
    },
    {
      "midi": 57,
      "hit": false,
      "t": 35700,
      "d": 300,
      "v": 90
    },
    {
      "midi": 50,
      "hit": false,
      "t": 36000,
      "d": 300,
      "v": 90
    },
    {
      "midi": 57,
      "hit": false,
      "t": 36300,
      "d": 600,
      "v": 90
    },
    {
      "midi": 57,
      "hit": false,
      "t": 36900,
      "d": 300,
      "v": 90
    },
    {
      "midi": 50,
      "hit": false,
      "t": 37200,
      "d": 300,
      "v": 90
    },
    {
      "midi": 57,
      "hit": false,
      "t": 37500,
      "d": 300,
      "v": 90
    },
    {
      "midi": 49,
      "hit": false,
      "t": 37800,
      "d": 300,
      "v": 90
    },
    {
      "midi": 57,
      "hit": false,
      "t": 38100,
      "d": 300,
      "v": 90
    },
    {
      "midi": 66,
      "hit": false,
      "t": 38400,
      "d": 300,
      "v": 110
    },
    {
      "midi": 74,
      "hit": false,
      "t": 38400,
      "d": 300,
      "v": 110
    },
    {
      "midi": 47,
      "hit": false,
      "t": 38400,
      "d": 300,
      "v": 90
    },
    {
      "midi": 68,
      "hit": false,
      "t": 38700,
      "d": 300,
      "v": 110
    },
    {
      "midi": 76,
      "hit": false,
      "t": 38700,
      "d": 300,
      "v": 110
    },
    {
      "midi": 54,
      "hit": false,
      "t": 38700,
      "d": 600,
      "v": 90
    },
    {
      "midi": 69,
      "hit": false,
      "t": 39000,
      "d": 300,
      "v": 110
    },
    {
      "midi": 78,
      "hit": false,
      "t": 39000,
      "d": 300,
      "v": 110
    },
    {
      "midi": 69,
      "hit": false,
      "t": 39300,
      "d": 600,
      "v": 110
    },
    {
      "midi": 78,
      "hit": false,
      "t": 39300,
      "d": 600,
      "v": 110
    },
    {
      "midi": 54,
      "hit": false,
      "t": 39300,
      "d": 300,
      "v": 90
    },
    {
      "midi": 45,
      "hit": false,
      "t": 39600,
      "d": 300,
      "v": 90
    },
    {
      "midi": 66,
      "hit": false,
      "t": 39900,
      "d": 600,
      "v": 110
    },
    {
      "midi": 74,
      "hit": false,
      "t": 39900,
      "d": 600,
      "v": 110
    },
    {
      "midi": 54,
      "hit": false,
      "t": 39900,
      "d": 600,
      "v": 90
    },
    {
      "midi": 62,
      "hit": false,
      "t": 40500,
      "d": 300,
      "v": 110
    },
    {
      "midi": 71,
      "hit": false,
      "t": 40500,
      "d": 300,
      "v": 110
    },
    {
      "midi": 54,
      "hit": false,
      "t": 40500,
      "d": 300,
      "v": 90
    },
    {
      "midi": 44,
      "hit": false,
      "t": 40800,
      "d": 300,
      "v": 90
    },
    {
      "midi": 52,
      "hit": false,
      "t": 41100,
      "d": 600,
      "v": 90
    },
    {
      "midi": 64,
      "hit": false,
      "t": 41400,
      "d": 300,
      "v": 110
    },
    {
      "midi": 73,
      "hit": false,
      "t": 41400,
      "d": 300,
      "v": 110
    },
    {
      "midi": 66,
      "hit": false,
      "t": 41700,
      "d": 600,
      "v": 110
    },
    {
      "midi": 74,
      "hit": false,
      "t": 41700,
      "d": 600,
      "v": 110
    },
    {
      "midi": 52,
      "hit": false,
      "t": 41700,
      "d": 300,
      "v": 90
    },
    {
      "midi": 40,
      "hit": false,
      "t": 42000,
      "d": 300,
      "v": 90
    },
    {
      "midi": 62,
      "hit": false,
      "t": 42300,
      "d": 900,
      "v": 110
    },
    {
      "midi": 71,
      "hit": false,
      "t": 42300,
      "d": 900,
      "v": 110
    },
    {
      "midi": 52,
      "hit": false,
      "t": 42300,
      "d": 600,
      "v": 90
    },
    {
      "midi": 52,
      "hit": false,
      "t": 42900,
      "d": 300,
      "v": 90
    },
    {
      "midi": 61,
      "hit": false,
      "t": 43200,
      "d": 2400,
      "v": 110
    },
    {
      "midi": 69,
      "hit": false,
      "t": 43200,
      "d": 2400,
      "v": 110
    },
    {
      "midi": 45,
      "hit": false,
      "t": 43200,
      "d": 300,
      "v": 90
    },
    {
      "midi": 52,
      "hit": false,
      "t": 43500,
      "d": 600,
      "v": 90
    },
    {
      "midi": 52,
      "hit": false,
      "t": 44100,
      "d": 600,
      "v": 90
    },
    {
      "midi": 52,
      "hit": false,
      "t": 44700,
      "d": 600,
      "v": 90
    },
    {
      "midi": 52,
      "hit": false,
      "t": 45300,
      "d": 300,
      "v": 90
    },
    {
      "midi": 45,
      "hit": false,
      "t": 45600,
      "d": 300,
      "v": 90
    },
    {
      "midi": 52,
      "hit": false,
      "t": 45900,
      "d": 600,
      "v": 90
    },
    {
      "midi": 52,
      "hit": false,
      "t": 46500,
      "d": 600,
      "v": 90
    },
    {
      "midi": 52,
      "hit": false,
      "t": 47100,
      "d": 300,
      "v": 110
    },
    {
      "midi": 57,
      "hit": false,
      "t": 47400,
      "d": 300,
      "v": 110
    },
    {
      "midi": 52,
      "hit": false,
      "t": 47700,
      "d": 300,
      "v": 90
    },
    {
      "midi": 59,
      "hit": false,
      "t": 47700,
      "d": 300,
      "v": 110
    },
    {
      "midi": 61,
      "hit": false,
      "t": 48000,
      "d": 300,
      "v": 110
    },
    {
      "midi": 45,
      "hit": false,
      "t": 48000,
      "d": 300,
      "v": 90
    },
    {
      "midi": 57,
      "hit": false,
      "t": 48000,
      "d": 300,
      "v": 110
    },
    {
      "midi": 62,
      "hit": false,
      "t": 48300,
      "d": 300,
      "v": 110
    },
    {
      "midi": 52,
      "hit": false,
      "t": 48300,
      "d": 300,
      "v": 90
    },
    {
      "midi": 64,
      "hit": false,
      "t": 48600,
      "d": 300,
      "v": 110
    },
    {
      "midi": 64,
      "hit": false,
      "t": 48900,
      "d": 300,
      "v": 110
    },
    {
      "midi": 52,
      "hit": false,
      "t": 48900,
      "d": 300,
      "v": 90
    },
    {
      "midi": 56,
      "hit": false,
      "t": 49200,
      "d": 300,
      "v": 110
    },
    {
      "midi": 61,
      "hit": false,
      "t": 49500,
      "d": 600,
      "v": 110
    },
    {
      "midi": 52,
      "hit": false,
      "t": 49500,
      "d": 600,
      "v": 90
    },
    {
      "midi": 64,
      "hit": false,
      "t": 50100,
      "d": 300,
      "v": 110
    },
    {
      "midi": 52,
      "hit": false,
      "t": 50100,
      "d": 300,
      "v": 90
    },
    {
      "midi": 45,
      "hit": false,
      "t": 50400,
      "d": 300,
      "v": 90
    },
    {
      "midi": 54,
      "hit": false,
      "t": 50400,
      "d": 300,
      "v": 110
    },
    {
      "midi": 69,
      "hit": false,
      "t": 50700,
      "d": 600,
      "v": 110
    },
    {
      "midi": 52,
      "hit": false,
      "t": 50700,
      "d": 600,
      "v": 90
    },
    {
      "midi": 64,
      "hit": false,
      "t": 51300,
      "d": 300,
      "v": 110
    },
    {
      "midi": 52,
      "hit": false,
      "t": 51300,
      "d": 600,
      "v": 90
    },
    {
      "midi": 61,
      "hit": false,
      "t": 51900,
      "d": 600,
      "v": 110
    },
    {
      "midi": 52,
      "hit": false,
      "t": 51900,
      "d": 600,
      "v": 90
    },
    {
      "midi": 52,
      "hit": false,
      "t": 52500,
      "d": 300,
      "v": 90
    },
    {
      "midi": 62,
      "hit": false,
      "t": 52800,
      "d": 300,
      "v": 110
    },
    {
      "midi": 45,
      "hit": false,
      "t": 52800,
      "d": 300,
      "v": 90
    },
    {
      "midi": 64,
      "hit": false,
      "t": 53100,
      "d": 300,
      "v": 110
    },
    {
      "midi": 54,
      "hit": false,
      "t": 53100,
      "d": 600,
      "v": 90
    },
    {
      "midi": 66,
      "hit": false,
      "t": 53400,
      "d": 300,
      "v": 110
    },
    {
      "midi": 66,
      "hit": false,
      "t": 53700,
      "d": 300,
      "v": 110
    },
    {
      "midi": 54,
      "hit": false,
      "t": 53700,
      "d": 600,
      "v": 90
    },
    {
      "midi": 61,
      "hit": false,
      "t": 54000,
      "d": 300,
      "v": 110
    },
    {
      "midi": 62,
      "hit": false,
      "t": 54300,
      "d": 600,
      "v": 110
    },
    {
      "midi": 54,
      "hit": false,
      "t": 54300,
      "d": 600,
      "v": 90
    },
    {
      "midi": 66,
      "hit": false,
      "t": 54900,
      "d": 300,
      "v": 110
    },
    {
      "midi": 54,
      "hit": false,
      "t": 54900,
      "d": 300,
      "v": 90
    },
    {
      "midi": 45,
      "hit": false,
      "t": 55200,
      "d": 300,
      "v": 90
    },
    {
      "midi": 59,
      "hit": false,
      "t": 55200,
      "d": 300,
      "v": 110
    },
    {
      "midi": 54,
      "hit": false,
      "t": 55500,
      "d": 600,
      "v": 90
    },
    {
      "midi": 54,
      "hit": false,
      "t": 56100,
      "d": 300,
      "v": 90
    },
    {
      "midi": 57,
      "hit": false,
      "t": 56400,
      "d": 300,
      "v": 110
    },
    {
      "midi": 54,
      "hit": false,
      "t": 56700,
      "d": 600,
      "v": 90
    },
    {
      "midi": 54,
      "hit": false,
      "t": 57300,
      "d": 300,
      "v": 90
    },
    {
      "midi": 62,
      "hit": false,
      "t": 57600,
      "d": 300,
      "v": 110
    },
    {
      "midi": 47,
      "hit": false,
      "t": 57600,
      "d": 300,
      "v": 90
    },
    {
      "midi": 59,
      "hit": false,
      "t": 57600,
      "d": 300,
      "v": 110
    },
    {
      "midi": 64,
      "hit": false,
      "t": 57900,
      "d": 300,
      "v": 110
    },
    {
      "midi": 54,
      "hit": false,
      "t": 57900,
      "d": 600,
      "v": 90
    },
    {
      "midi": 66,
      "hit": false,
      "t": 58200,
      "d": 300,
      "v": 110
    },
    {
      "midi": 66,
      "hit": false,
      "t": 58500,
      "d": 300,
      "v": 110
    },
    {
      "midi": 54,
      "hit": false,
      "t": 58500,
      "d": 300,
      "v": 90
    },
    {
      "midi": 57,
      "hit": false,
      "t": 58800,
      "d": 300,
      "v": 110
    },
    {
      "midi": 62,
      "hit": false,
      "t": 59100,
      "d": 600,
      "v": 110
    },
    {
      "midi": 54,
      "hit": false,
      "t": 59100,
      "d": 600,
      "v": 90
    },
    {
      "midi": 66,
      "hit": false,
      "t": 59700,
      "d": 300,
      "v": 110
    },
    {
      "midi": 54,
      "hit": false,
      "t": 59700,
      "d": 300,
      "v": 90
    },
    {
      "midi": 44,
      "hit": false,
      "t": 60000,
      "d": 300,
      "v": 90
    },
    {
      "midi": 56,
      "hit": false,
      "t": 60000,
      "d": 300,
      "v": 110
    },
    {
      "midi": 71,
      "hit": false,
      "t": 60300,
      "d": 600,
      "v": 110
    },
    {
      "midi": 52,
      "hit": false,
      "t": 60300,
      "d": 600,
      "v": 90
    },
    {
      "midi": 68,
      "hit": false,
      "t": 60900,
      "d": 600,
      "v": 110
    },
    {
      "midi": 52,
      "hit": false,
      "t": 60900,
      "d": 600,
      "v": 90
    },
    {
      "midi": 64,
      "hit": false,
      "t": 61500,
      "d": 600,
      "v": 110
    },
    {
      "midi": 52,
      "hit": false,
      "t": 61500,
      "d": 600,
      "v": 90
    },
    {
      "midi": 52,
      "hit": false,
      "t": 62100,
      "d": 300,
      "v": 90
    },
    {
      "midi": 57,
      "hit": false,
      "t": 62400,
      "d": 300,
      "v": 110
    },
    {
      "midi": 61,
      "hit": false,
      "t": 62400,
      "d": 300,
      "v": 110
    },
    {
      "midi": 45,
      "hit": false,
      "t": 62400,
      "d": 300,
      "v": 90
    },
    {
      "midi": 62,
      "hit": false,
      "t": 62700,
      "d": 300,
      "v": 110
    },
    {
      "midi": 52,
      "hit": false,
      "t": 62700,
      "d": 600,
      "v": 90
    },
    {
      "midi": 64,
      "hit": false,
      "t": 63000,
      "d": 300,
      "v": 110
    },
    {
      "midi": 64,
      "hit": false,
      "t": 63300,
      "d": 300,
      "v": 110
    },
    {
      "midi": 52,
      "hit": false,
      "t": 63300,
      "d": 300,
      "v": 90
    },
    {
      "midi": 56,
      "hit": false,
      "t": 63600,
      "d": 300,
      "v": 110
    },
    {
      "midi": 69,
      "hit": false,
      "t": 63900,
      "d": 600,
      "v": 110
    },
    {
      "midi": 52,
      "hit": false,
      "t": 63900,
      "d": 600,
      "v": 90
    },
    {
      "midi": 64,
      "hit": false,
      "t": 64500,
      "d": 300,
      "v": 110
    },
    {
      "midi": 52,
      "hit": false,
      "t": 64500,
      "d": 300,
      "v": 90
    },
    {
      "midi": 45,
      "hit": false,
      "t": 64800,
      "d": 300,
      "v": 90
    },
    {
      "midi": 54,
      "hit": false,
      "t": 64800,
      "d": 300,
      "v": 110
    },
    {
      "midi": 52,
      "hit": false,
      "t": 65100,
      "d": 600,
      "v": 90
    },
    {
      "midi": 52,
      "hit": false,
      "t": 65700,
      "d": 300,
      "v": 90
    },
    {
      "midi": 52,
      "hit": false,
      "t": 66000,
      "d": 300,
      "v": 110
    },
    {
      "midi": 52,
      "hit": false,
      "t": 66300,
      "d": 600,
      "v": 90
    },
    {
      "midi": 52,
      "hit": false,
      "t": 66900,
      "d": 300,
      "v": 90
    },
    {
      "midi": 57,
      "hit": false,
      "t": 67200,
      "d": 300,
      "v": 110
    },
    {
      "midi": 66,
      "hit": false,
      "t": 67200,
      "d": 300,
      "v": 110
    },
    {
      "midi": 42,
      "hit": false,
      "t": 67200,
      "d": 300,
      "v": 90
    },
    {
      "midi": 59,
      "hit": false,
      "t": 67500,
      "d": 300,
      "v": 110
    },
    {
      "midi": 68,
      "hit": false,
      "t": 67500,
      "d": 300,
      "v": 110
    },
    {
      "midi": 49,
      "hit": false,
      "t": 67500,
      "d": 600,
      "v": 90
    },
    {
      "midi": 61,
      "hit": false,
      "t": 67800,
      "d": 300,
      "v": 110
    },
    {
      "midi": 69,
      "hit": false,
      "t": 67800,
      "d": 300,
      "v": 110
    },
    {
      "midi": 61,
      "hit": false,
      "t": 68100,
      "d": 600,
      "v": 110
    },
    {
      "midi": 69,
      "hit": false,
      "t": 68100,
      "d": 600,
      "v": 110
    },
    {
      "midi": 49,
      "hit": false,
      "t": 68100,
      "d": 600,
      "v": 90
    },
    {
      "midi": 57,
      "hit": false,
      "t": 68700,
      "d": 600,
      "v": 110
    },
    {
      "midi": 66,
      "hit": false,
      "t": 68700,
      "d": 600,
      "v": 110
    },
    {
      "midi": 49,
      "hit": false,
      "t": 68700,
      "d": 600,
      "v": 90
    },
    {
      "midi": 61,
      "hit": false,
      "t": 69300,
      "d": 300,
      "v": 110
    },
    {
      "midi": 69,
      "hit": false,
      "t": 69300,
      "d": 300,
      "v": 110
    },
    {
      "midi": 49,
      "hit": false,
      "t": 69300,
      "d": 300,
      "v": 90
    },
    {
      "midi": 42,
      "hit": false,
      "t": 69600,
      "d": 300,
      "v": 90
    },
    {
      "midi": 49,
      "hit": false,
      "t": 69900,
      "d": 600,
      "v": 90
    },
    {
      "midi": 57,
      "hit": false,
      "t": 70200,
      "d": 300,
      "v": 110
    },
    {
      "midi": 66,
      "hit": false,
      "t": 70200,
      "d": 300,
      "v": 110
    },
    {
      "midi": 61,
      "hit": false,
      "t": 70500,
      "d": 600,
      "v": 110
    },
    {
      "midi": 69,
      "hit": false,
      "t": 70500,
      "d": 600,
      "v": 110
    },
    {
      "midi": 49,
      "hit": false,
      "t": 70500,
      "d": 300,
      "v": 90
    },
    {
      "midi": 42,
      "hit": false,
      "t": 70800,
      "d": 300,
      "v": 90
    },
    {
      "midi": 57,
      "hit": false,
      "t": 71100,
      "d": 900,
      "v": 110
    },
    {
      "midi": 66,
      "hit": false,
      "t": 71100,
      "d": 900,
      "v": 110
    },
    {
      "midi": 49,
      "hit": false,
      "t": 71100,
      "d": 300,
      "v": 90
    },
    {
      "midi": 40,
      "hit": false,
      "t": 71400,
      "d": 300,
      "v": 90
    },
    {
      "midi": 49,
      "hit": false,
      "t": 71700,
      "d": 300,
      "v": 90
    },
    {
      "midi": 54,
      "hit": false,
      "t": 72000,
      "d": 300,
      "v": 110
    },
    {
      "midi": 62,
      "hit": false,
      "t": 72000,
      "d": 300,
      "v": 110
    },
    {
      "midi": 38,
      "hit": false,
      "t": 72000,
      "d": 300,
      "v": 90
    },
    {
      "midi": 56,
      "hit": false,
      "t": 72300,
      "d": 300,
      "v": 110
    },
    {
      "midi": 64,
      "hit": false,
      "t": 72300,
      "d": 300,
      "v": 110
    },
    {
      "midi": 45,
      "hit": false,
      "t": 72300,
      "d": 600,
      "v": 90
    },
    {
      "midi": 57,
      "hit": false,
      "t": 72600,
      "d": 300,
      "v": 110
    },
    {
      "midi": 66,
      "hit": false,
      "t": 72600,
      "d": 300,
      "v": 110
    },
    {
      "midi": 57,
      "hit": false,
      "t": 72900,
      "d": 600,
      "v": 110
    },
    {
      "midi": 66,
      "hit": false,
      "t": 72900,
      "d": 600,
      "v": 110
    },
    {
      "midi": 45,
      "hit": false,
      "t": 72900,
      "d": 600,
      "v": 90
    },
    {
      "midi": 54,
      "hit": false,
      "t": 73500,
      "d": 600,
      "v": 110
    },
    {
      "midi": 62,
      "hit": false,
      "t": 73500,
      "d": 600,
      "v": 110
    },
    {
      "midi": 45,
      "hit": false,
      "t": 73500,
      "d": 300,
      "v": 90
    },
    {
      "midi": 57,
      "hit": false,
      "t": 74100,
      "d": 300,
      "v": 110
    },
    {
      "midi": 66,
      "hit": false,
      "t": 74100,
      "d": 300,
      "v": 110
    },
    {
      "midi": 45,
      "hit": false,
      "t": 74100,
      "d": 300,
      "v": 90
    },
    {
      "midi": 38,
      "hit": false,
      "t": 74400,
      "d": 300,
      "v": 90
    },
    {
      "midi": 45,
      "hit": false,
      "t": 74700,
      "d": 600,
      "v": 90
    },
    {
      "midi": 45,
      "hit": false,
      "t": 75300,
      "d": 300,
      "v": 90
    },
    {
      "midi": 38,
      "hit": false,
      "t": 75600,
      "d": 300,
      "v": 90
    },
    {
      "midi": 45,
      "hit": false,
      "t": 75900,
      "d": 300,
      "v": 90
    },
    {
      "midi": 37,
      "hit": false,
      "t": 76200,
      "d": 300,
      "v": 90
    },
    {
      "midi": 45,
      "hit": false,
      "t": 76500,
      "d": 300,
      "v": 90
    },
    {
      "midi": 54,
      "hit": false,
      "t": 76800,
      "d": 300,
      "v": 110
    },
    {
      "midi": 62,
      "hit": false,
      "t": 76800,
      "d": 300,
      "v": 110
    },
    {
      "midi": 35,
      "hit": false,
      "t": 76800,
      "d": 300,
      "v": 90
    },
    {
      "midi": 56,
      "hit": false,
      "t": 77100,
      "d": 300,
      "v": 110
    },
    {
      "midi": 64,
      "hit": false,
      "t": 77100,
      "d": 300,
      "v": 110
    },
    {
      "midi": 42,
      "hit": false,
      "t": 77100,
      "d": 600,
      "v": 90
    },
    {
      "midi": 57,
      "hit": false,
      "t": 77400,
      "d": 300,
      "v": 110
    },
    {
      "midi": 66,
      "hit": false,
      "t": 77400,
      "d": 300,
      "v": 110
    },
    {
      "midi": 57,
      "hit": false,
      "t": 77700,
      "d": 600,
      "v": 110
    },
    {
      "midi": 66,
      "hit": false,
      "t": 77700,
      "d": 600,
      "v": 110
    },
    {
      "midi": 42,
      "hit": false,
      "t": 77700,
      "d": 300,
      "v": 90
    },
    {
      "midi": 33,
      "hit": false,
      "t": 78000,
      "d": 300,
      "v": 90
    },
    {
      "midi": 54,
      "hit": false,
      "t": 78300,
      "d": 600,
      "v": 110
    },
    {
      "midi": 62,
      "hit": false,
      "t": 78300,
      "d": 600,
      "v": 110
    },
    {
      "midi": 42,
      "hit": false,
      "t": 78300,
      "d": 600,
      "v": 90
    },
    {
      "midi": 50,
      "hit": false,
      "t": 78900,
      "d": 300,
      "v": 110
    },
    {
      "midi": 59,
      "hit": false,
      "t": 78900,
      "d": 300,
      "v": 110
    },
    {
      "midi": 42,
      "hit": false,
      "t": 78900,
      "d": 300,
      "v": 90
    },
    {
      "midi": 32,
      "hit": false,
      "t": 79200,
      "d": 300,
      "v": 90
    },
    {
      "midi": 40,
      "hit": false,
      "t": 79500,
      "d": 600,
      "v": 90
    },
    {
      "midi": 52,
      "hit": false,
      "t": 79800,
      "d": 300,
      "v": 110
    },
    {
      "midi": 61,
      "hit": false,
      "t": 79800,
      "d": 300,
      "v": 110
    },
    {
      "midi": 54,
      "hit": false,
      "t": 80100,
      "d": 600,
      "v": 110
    },
    {
      "midi": 62,
      "hit": false,
      "t": 80100,
      "d": 600,
      "v": 110
    },
    {
      "midi": 40,
      "hit": false,
      "t": 80100,
      "d": 300,
      "v": 90
    },
    {
      "midi": 28,
      "hit": false,
      "t": 80400,
      "d": 300,
      "v": 90
    },
    {
      "midi": 50,
      "hit": false,
      "t": 80700,
      "d": 900,
      "v": 110
    },
    {
      "midi": 59,
      "hit": false,
      "t": 80700,
      "d": 900,
      "v": 110
    },
    {
      "midi": 40,
      "hit": false,
      "t": 80700,
      "d": 600,
      "v": 90
    },
    {
      "midi": 40,
      "hit": false,
      "t": 81300,
      "d": 300,
      "v": 90
    },
    {
      "midi": 57,
      "hit": false,
      "t": 81600,
      "d": 300,
      "v": 110
    },
    {
      "midi": 33,
      "hit": false,
      "t": 81600,
      "d": 300,
      "v": 90
    },
    {
      "midi": 62,
      "hit": false,
      "t": 81900,
      "d": 300,
      "v": 110
    },
    {
      "midi": 40,
      "hit": false,
      "t": 81900,
      "d": 600,
      "v": 90
    },
    {
      "midi": 64,
      "hit": false,
      "t": 82200,
      "d": 300,
      "v": 110
    },
    {
      "midi": 64,
      "hit": false,
      "t": 82500,
      "d": 600,
      "v": 110
    },
    {
      "midi": 40,
      "hit": false,
      "t": 82500,
      "d": 600,
      "v": 90
    },
    {
      "midi": 69,
      "hit": false,
      "t": 83100,
      "d": 600,
      "v": 110
    },
    {
      "midi": 40,
      "hit": false,
      "t": 83100,
      "d": 600,
      "v": 90
    },
    {
      "midi": 64,
      "hit": false,
      "t": 83700,
      "d": 300,
      "v": 110
    },
    {
      "midi": 40,
      "hit": false,
      "t": 83700,
      "d": 300,
      "v": 90
    },
    {
      "midi": 33,
      "hit": false,
      "t": 84000,
      "d": 300,
      "v": 90
    },
    {
      "midi": 71,
      "hit": false,
      "t": 84300,
      "d": 300,
      "v": 110
    },
    {
      "midi": 40,
      "hit": false,
      "t": 84300,
      "d": 600,
      "v": 90
    },
    {
      "midi": 76,
      "hit": false,
      "t": 84600,
      "d": 300,
      "v": 110
    },
    {
      "midi": 83,
      "hit": false,
      "t": 84900,
      "d": 600,
      "v": 110
    },
    {
      "midi": 40,
      "hit": false,
      "t": 84900,
      "d": 600,
      "v": 90
    },
    {
      "midi": 64,
      "hit": false,
      "t": 85500,
      "d": 300,
      "v": 110
    },
    {
      "midi": 40,
      "hit": false,
      "t": 85500,
      "d": 600,
      "v": 90
    },
    {
      "midi": 71,
      "hit": false,
      "t": 85800,
      "d": 300,
      "v": 110
    },
    {
      "midi": 76,
      "hit": false,
      "t": 86100,
      "d": 300,
      "v": 110
    },
    {
      "midi": 40,
      "hit": false,
      "t": 86100,
      "d": 300,
      "v": 90
    },
    {
      "midi": 61,
      "hit": false,
      "t": 86400,
      "d": 300,
      "v": 110
    },
    {
      "midi": 45,
      "hit": false,
      "t": 86400,
      "d": 300,
      "v": 90
    },
    {
      "midi": 62,
      "hit": false,
      "t": 86700,
      "d": 300,
      "v": 110
    },
    {
      "midi": 52,
      "hit": false,
      "t": 86700,
      "d": 600,
      "v": 90
    },
    {
      "midi": 64,
      "hit": false,
      "t": 87000,
      "d": 300,
      "v": 110
    },
    {
      "midi": 64,
      "hit": false,
      "t": 87300,
      "d": 600,
      "v": 110
    },
    {
      "midi": 52,
      "hit": false,
      "t": 87300,
      "d": 600,
      "v": 90
    },
    {
      "midi": 69,
      "hit": false,
      "t": 87900,
      "d": 600,
      "v": 110
    },
    {
      "midi": 52,
      "hit": false,
      "t": 87900,
      "d": 600,
      "v": 90
    },
    {
      "midi": 61,
      "hit": false,
      "t": 88500,
      "d": 300,
      "v": 110
    },
    {
      "midi": 64,
      "hit": false,
      "t": 88500,
      "d": 300,
      "v": 110
    },
    {
      "midi": 52,
      "hit": false,
      "t": 88500,
      "d": 300,
      "v": 90
    },
    {
      "midi": 45,
      "hit": false,
      "t": 88800,
      "d": 300,
      "v": 90
    },
    {
      "midi": 52,
      "hit": false,
      "t": 89100,
      "d": 600,
      "v": 91
    },
    {
      "midi": 57,
      "hit": false,
      "t": 89400,
      "d": 300,
      "v": 112
    },
    {
      "midi": 59,
      "hit": false,
      "t": 89700,
      "d": 300,
      "v": 113
    },
    {
      "midi": 52,
      "hit": false,
      "t": 89700,
      "d": 600,
      "v": 93
    },
    {
      "midi": 61,
      "hit": false,
      "t": 90000,
      "d": 300,
      "v": 115
    },
    {
      "midi": 62,
      "hit": false,
      "t": 90300,
      "d": 900,
      "v": 116
    },
    {
      "midi": 52,
      "hit": false,
      "t": 90300,
      "d": 600,
      "v": 96
    },
    {
      "midi": 52,
      "hit": false,
      "t": 90900,
      "d": 300,
      "v": 98
    },
    {
      "midi": 60,
      "hit": false,
      "t": 91200,
      "d": 300,
      "v": 120
    },
    {
      "midi": 64,
      "hit": false,
      "t": 91200,
      "d": 300,
      "v": 120
    },
    {
      "midi": 36,
      "hit": false,
      "t": 91200,
      "d": 300,
      "v": 100
    },
    {
      "midi": 65,
      "hit": false,
      "t": 91500,
      "d": 300,
      "v": 120
    },
    {
      "midi": 43,
      "hit": false,
      "t": 91500,
      "d": 300,
      "v": 100
    },
    {
      "midi": 67,
      "hit": false,
      "t": 91800,
      "d": 300,
      "v": 120
    },
    {
      "midi": 52,
      "hit": false,
      "t": 91800,
      "d": 300,
      "v": 100
    },
    {
      "midi": 67,
      "hit": false,
      "t": 92100,
      "d": 300,
      "v": 120
    },
    {
      "midi": 43,
      "hit": false,
      "t": 92100,
      "d": 300,
      "v": 100
    },
    {
      "midi": 59,
      "hit": false,
      "t": 92400,
      "d": 300,
      "v": 120
    },
    {
      "midi": 52,
      "hit": false,
      "t": 92400,
      "d": 300,
      "v": 100
    },
    {
      "midi": 64,
      "hit": false,
      "t": 92700,
      "d": 300,
      "v": 120
    },
    {
      "midi": 43,
      "hit": false,
      "t": 92700,
      "d": 600,
      "v": 100
    },
    {
      "midi": 52,
      "hit": false,
      "t": 93000,
      "d": 300,
      "v": 100
    },
    {
      "midi": 67,
      "hit": false,
      "t": 93300,
      "d": 300,
      "v": 120
    },
    {
      "midi": 43,
      "hit": false,
      "t": 93300,
      "d": 300,
      "v": 100
    },
    {
      "midi": 57,
      "hit": false,
      "t": 93600,
      "d": 600,
      "v": 120
    },
    {
      "midi": 36,
      "hit": false,
      "t": 93600,
      "d": 300,
      "v": 100
    },
    {
      "midi": 43,
      "hit": false,
      "t": 93900,
      "d": 300,
      "v": 100
    },
    {
      "midi": 72,
      "hit": false,
      "t": 94200,
      "d": 300,
      "v": 120
    },
    {
      "midi": 52,
      "hit": false,
      "t": 94200,
      "d": 300,
      "v": 100
    },
    {
      "midi": 67,
      "hit": false,
      "t": 94500,
      "d": 300,
      "v": 120
    },
    {
      "midi": 43,
      "hit": false,
      "t": 94500,
      "d": 300,
      "v": 100
    },
    {
      "midi": 55,
      "hit": false,
      "t": 94800,
      "d": 300,
      "v": 120
    },
    {
      "midi": 52,
      "hit": false,
      "t": 94800,
      "d": 300,
      "v": 100
    },
    {
      "midi": 64,
      "hit": false,
      "t": 95100,
      "d": 300,
      "v": 120
    },
    {
      "midi": 43,
      "hit": false,
      "t": 95100,
      "d": 600,
      "v": 100
    },
    {
      "midi": 52,
      "hit": false,
      "t": 95400,
      "d": 600,
      "v": 100
    },
    {
      "midi": 43,
      "hit": false,
      "t": 95700,
      "d": 300,
      "v": 100
    },
    {
      "midi": 65,
      "hit": false,
      "t": 96000,
      "d": 300,
      "v": 120
    },
    {
      "midi": 36,
      "hit": false,
      "t": 96000,
      "d": 300,
      "v": 100
    },
    {
      "midi": 67,
      "hit": false,
      "t": 96300,
      "d": 300,
      "v": 120
    },
    {
      "midi": 45,
      "hit": false,
      "t": 96300,
      "d": 300,
      "v": 100
    },
    {
      "midi": 69,
      "hit": false,
      "t": 96600,
      "d": 300,
      "v": 120
    },
    {
      "midi": 53,
      "hit": false,
      "t": 96600,
      "d": 300,
      "v": 100
    },
    {
      "midi": 69,
      "hit": false,
      "t": 96900,
      "d": 600,
      "v": 120
    },
    {
      "midi": 45,
      "hit": false,
      "t": 96900,
      "d": 300,
      "v": 100
    },
    {
      "midi": 53,
      "hit": false,
      "t": 97200,
      "d": 300,
      "v": 100
    },
    {
      "midi": 64,
      "hit": false,
      "t": 97500,
      "d": 300,
      "v": 120
    },
    {
      "midi": 45,
      "hit": false,
      "t": 97500,
      "d": 600,
      "v": 100
    },
    {
      "midi": 53,
      "hit": false,
      "t": 97800,
      "d": 300,
      "v": 100
    },
    {
      "midi": 69,
      "hit": false,
      "t": 98100,
      "d": 300,
      "v": 120
    },
    {
      "midi": 45,
      "hit": false,
      "t": 98100,
      "d": 300,
      "v": 100
    },
    {
      "midi": 50,
      "hit": false,
      "t": 98400,
      "d": 300,
      "v": 100
    },
    {
      "midi": 45,
      "hit": false,
      "t": 98700,
      "d": 300,
      "v": 100
    },
    {
      "midi": 77,
      "hit": false,
      "t": 99000,
      "d": 300,
      "v": 120
    },
    {
      "midi": 50,
      "hit": false,
      "t": 99000,
      "d": 300,
      "v": 100
    },
    {
      "midi": 76,
      "hit": false,
      "t": 99300,
      "d": 300,
      "v": 120
    },
    {
      "midi": 45,
      "hit": false,
      "t": 99300,
      "d": 300,
      "v": 100
    },
    {
      "midi": 74,
      "hit": false,
      "t": 99600,
      "d": 300,
      "v": 120
    },
    {
      "midi": 48,
      "hit": false,
      "t": 99600,
      "d": 300,
      "v": 100
    },
    {
      "midi": 69,
      "hit": false,
      "t": 99900,
      "d": 300,
      "v": 120
    },
    {
      "midi": 45,
      "hit": false,
      "t": 99900,
      "d": 300,
      "v": 100
    },
    {
      "midi": 65,
      "hit": false,
      "t": 100200,
      "d": 300,
      "v": 120
    },
    {
      "midi": 48,
      "hit": false,
      "t": 100200,
      "d": 300,
      "v": 100
    },
    {
      "midi": 64,
      "hit": false,
      "t": 100500,
      "d": 300,
      "v": 120
    },
    {
      "midi": 45,
      "hit": false,
      "t": 100500,
      "d": 300,
      "v": 100
    },
    {
      "midi": 62,
      "hit": false,
      "t": 100800,
      "d": 300,
      "v": 120
    },
    {
      "midi": 65,
      "hit": false,
      "t": 100800,
      "d": 300,
      "v": 120
    },
    {
      "midi": 38,
      "hit": false,
      "t": 100800,
      "d": 300,
      "v": 100
    },
    {
      "midi": 67,
      "hit": false,
      "t": 101100,
      "d": 300,
      "v": 120
    },
    {
      "midi": 45,
      "hit": false,
      "t": 101100,
      "d": 300,
      "v": 100
    },
    {
      "midi": 69,
      "hit": false,
      "t": 101400,
      "d": 300,
      "v": 120
    },
    {
      "midi": 53,
      "hit": false,
      "t": 101400,
      "d": 300,
      "v": 100
    },
    {
      "midi": 69,
      "hit": false,
      "t": 101700,
      "d": 300,
      "v": 120
    },
    {
      "midi": 45,
      "hit": false,
      "t": 101700,
      "d": 300,
      "v": 100
    },
    {
      "midi": 60,
      "hit": false,
      "t": 102000,
      "d": 300,
      "v": 120
    },
    {
      "midi": 53,
      "hit": false,
      "t": 102000,
      "d": 300,
      "v": 100
    },
    {
      "midi": 65,
      "hit": false,
      "t": 102300,
      "d": 300,
      "v": 120
    },
    {
      "midi": 45,
      "hit": false,
      "t": 102300,
      "d": 300,
      "v": 100
    },
    {
      "midi": 53,
      "hit": false,
      "t": 102600,
      "d": 300,
      "v": 100
    },
    {
      "midi": 69,
      "hit": false,
      "t": 102900,
      "d": 300,
      "v": 120
    },
    {
      "midi": 45,
      "hit": false,
      "t": 102900,
      "d": 300,
      "v": 100
    },
    {
      "midi": 59,
      "hit": false,
      "t": 103200,
      "d": 300,
      "v": 120
    },
    {
      "midi": 43,
      "hit": false,
      "t": 103200,
      "d": 300,
      "v": 100
    },
    {
      "midi": 50,
      "hit": false,
      "t": 103500,
      "d": 300,
      "v": 100
    },
    {
      "midi": 74,
      "hit": false,
      "t": 103800,
      "d": 300,
      "v": 120
    },
    {
      "midi": 55,
      "hit": false,
      "t": 103800,
      "d": 300,
      "v": 100
    },
    {
      "midi": 71,
      "hit": false,
      "t": 104100,
      "d": 300,
      "v": 120
    },
    {
      "midi": 50,
      "hit": false,
      "t": 104100,
      "d": 300,
      "v": 100
    },
    {
      "midi": 59,
      "hit": false,
      "t": 104400,
      "d": 300,
      "v": 100
    },
    {
      "midi": 67,
      "hit": false,
      "t": 104700,
      "d": 300,
      "v": 120
    },
    {
      "midi": 50,
      "hit": false,
      "t": 104700,
      "d": 300,
      "v": 100
    },
    {
      "midi": 55,
      "hit": false,
      "t": 105000,
      "d": 300,
      "v": 100
    },
    {
      "midi": 50,
      "hit": false,
      "t": 105300,
      "d": 300,
      "v": 100
    },
    {
      "midi": 60,
      "hit": false,
      "t": 105600,
      "d": 300,
      "v": 120
    },
    {
      "midi": 64,
      "hit": false,
      "t": 105600,
      "d": 300,
      "v": 120
    },
    {
      "midi": 36,
      "hit": false,
      "t": 105600,
      "d": 300,
      "v": 100
    },
    {
      "midi": 65,
      "hit": false,
      "t": 105900,
      "d": 300,
      "v": 120
    },
    {
      "midi": 43,
      "hit": false,
      "t": 105900,
      "d": 300,
      "v": 100
    },
    {
      "midi": 67,
      "hit": false,
      "t": 106200,
      "d": 300,
      "v": 120
    },
    {
      "midi": 52,
      "hit": false,
      "t": 106200,
      "d": 300,
      "v": 100
    },
    {
      "midi": 67,
      "hit": false,
      "t": 106500,
      "d": 300,
      "v": 120
    },
    {
      "midi": 43,
      "hit": false,
      "t": 106500,
      "d": 300,
      "v": 100
    },
    {
      "midi": 59,
      "hit": false,
      "t": 106800,
      "d": 300,
      "v": 120
    },
    {
      "midi": 52,
      "hit": false,
      "t": 106800,
      "d": 300,
      "v": 100
    },
    {
      "midi": 72,
      "hit": false,
      "t": 107100,
      "d": 600,
      "v": 120
    },
    {
      "midi": 43,
      "hit": false,
      "t": 107100,
      "d": 300,
      "v": 100
    },
    {
      "midi": 52,
      "hit": false,
      "t": 107400,
      "d": 300,
      "v": 100
    },
    {
      "midi": 67,
      "hit": false,
      "t": 107700,
      "d": 300,
      "v": 120
    },
    {
      "midi": 43,
      "hit": false,
      "t": 107700,
      "d": 300,
      "v": 100
    },
    {
      "midi": 57,
      "hit": false,
      "t": 108000,
      "d": 600,
      "v": 120
    },
    {
      "midi": 36,
      "hit": false,
      "t": 108000,
      "d": 300,
      "v": 100
    },
    {
      "midi": 43,
      "hit": false,
      "t": 108300,
      "d": 600,
      "v": 100
    },
    {
      "midi": 52,
      "hit": false,
      "t": 108600,
      "d": 600,
      "v": 100
    },
    {
      "midi": 43,
      "hit": false,
      "t": 108900,
      "d": 300,
      "v": 100
    },
    {
      "midi": 55,
      "hit": false,
      "t": 109200,
      "d": 1200,
      "v": 120
    },
    {
      "midi": 36,
      "hit": false,
      "t": 109200,
      "d": 300,
      "v": 100
    },
    {
      "midi": 43,
      "hit": false,
      "t": 109500,
      "d": 300,
      "v": 100
    },
    {
      "midi": 35,
      "hit": false,
      "t": 109800,
      "d": 300,
      "v": 100
    },
    {
      "midi": 43,
      "hit": false,
      "t": 110100,
      "d": 300,
      "v": 100
    },
    {
      "midi": 60,
      "hit": false,
      "t": 110400,
      "d": 300,
      "v": 120
    },
    {
      "midi": 69,
      "hit": false,
      "t": 110400,
      "d": 300,
      "v": 120
    },
    {
      "midi": 33,
      "hit": false,
      "t": 110400,
      "d": 300,
      "v": 100
    },
    {
      "midi": 62,
      "hit": false,
      "t": 110700,
      "d": 300,
      "v": 120
    },
    {
      "midi": 71,
      "hit": false,
      "t": 110700,
      "d": 300,
      "v": 120
    },
    {
      "midi": 40,
      "hit": false,
      "t": 110700,
      "d": 300,
      "v": 100
    },
    {
      "midi": 64,
      "hit": false,
      "t": 111000,
      "d": 300,
      "v": 120
    },
    {
      "midi": 72,
      "hit": false,
      "t": 111000,
      "d": 300,
      "v": 120
    },
    {
      "midi": 48,
      "hit": false,
      "t": 111000,
      "d": 300,
      "v": 100
    },
    {
      "midi": 64,
      "hit": false,
      "t": 111300,
      "d": 600,
      "v": 120
    },
    {
      "midi": 72,
      "hit": false,
      "t": 111300,
      "d": 600,
      "v": 120
    },
    {
      "midi": 40,
      "hit": false,
      "t": 111300,
      "d": 300,
      "v": 100
    },
    {
      "midi": 52,
      "hit": false,
      "t": 111600,
      "d": 300,
      "v": 100
    },
    {
      "midi": 60,
      "hit": false,
      "t": 111900,
      "d": 600,
      "v": 120
    },
    {
      "midi": 69,
      "hit": false,
      "t": 111900,
      "d": 600,
      "v": 120
    },
    {
      "midi": 40,
      "hit": false,
      "t": 111900,
      "d": 300,
      "v": 100
    },
    {
      "midi": 48,
      "hit": false,
      "t": 112200,
      "d": 300,
      "v": 100
    },
    {
      "midi": 64,
      "hit": false,
      "t": 112500,
      "d": 300,
      "v": 120
    },
    {
      "midi": 72,
      "hit": false,
      "t": 112500,
      "d": 300,
      "v": 120
    },
    {
      "midi": 40,
      "hit": false,
      "t": 112500,
      "d": 300,
      "v": 100
    },
    {
      "midi": 33,
      "hit": false,
      "t": 112800,
      "d": 300,
      "v": 100
    },
    {
      "midi": 40,
      "hit": false,
      "t": 113100,
      "d": 300,
      "v": 100
    },
    {
      "midi": 60,
      "hit": false,
      "t": 113400,
      "d": 300,
      "v": 120
    },
    {
      "midi": 69,
      "hit": false,
      "t": 113400,
      "d": 300,
      "v": 120
    },
    {
      "midi": 48,
      "hit": false,
      "t": 113400,
      "d": 300,
      "v": 100
    },
    {
      "midi": 64,
      "hit": false,
      "t": 113700,
      "d": 600,
      "v": 120
    },
    {
      "midi": 72,
      "hit": false,
      "t": 113700,
      "d": 600,
      "v": 120
    },
    {
      "midi": 40,
      "hit": false,
      "t": 113700,
      "d": 300,
      "v": 100
    },
    {
      "midi": 33,
      "hit": false,
      "t": 114000,
      "d": 300,
      "v": 100
    },
    {
      "midi": 60,
      "hit": false,
      "t": 114300,
      "d": 900,
      "v": 120
    },
    {
      "midi": 69,
      "hit": false,
      "t": 114300,
      "d": 900,
      "v": 120
    },
    {
      "midi": 40,
      "hit": false,
      "t": 114300,
      "d": 300,
      "v": 100
    },
    {
      "midi": 31,
      "hit": false,
      "t": 114600,
      "d": 300,
      "v": 100
    },
    {
      "midi": 40,
      "hit": false,
      "t": 114900,
      "d": 300,
      "v": 100
    },
    {
      "midi": 57,
      "hit": false,
      "t": 115200,
      "d": 300,
      "v": 120
    },
    {
      "midi": 65,
      "hit": false,
      "t": 115200,
      "d": 300,
      "v": 120
    },
    {
      "midi": 29,
      "hit": false,
      "t": 115200,
      "d": 300,
      "v": 100
    },
    {
      "midi": 59,
      "hit": false,
      "t": 115500,
      "d": 300,
      "v": 120
    },
    {
      "midi": 67,
      "hit": false,
      "t": 115500,
      "d": 300,
      "v": 120
    },
    {
      "midi": 36,
      "hit": false,
      "t": 115500,
      "d": 300,
      "v": 100
    },
    {
      "midi": 60,
      "hit": false,
      "t": 115800,
      "d": 300,
      "v": 120
    },
    {
      "midi": 69,
      "hit": false,
      "t": 115800,
      "d": 300,
      "v": 120
    },
    {
      "midi": 45,
      "hit": false,
      "t": 115800,
      "d": 300,
      "v": 100
    },
    {
      "midi": 60,
      "hit": false,
      "t": 116100,
      "d": 600,
      "v": 120
    },
    {
      "midi": 69,
      "hit": false,
      "t": 116100,
      "d": 600,
      "v": 120
    },
    {
      "midi": 36,
      "hit": false,
      "t": 116100,
      "d": 300,
      "v": 100
    },
    {
      "midi": 43,
      "hit": false,
      "t": 116400,
      "d": 300,
      "v": 100
    },
    {
      "midi": 57,
      "hit": false,
      "t": 116700,
      "d": 600,
      "v": 120
    },
    {
      "midi": 65,
      "hit": false,
      "t": 116700,
      "d": 600,
      "v": 120
    },
    {
      "midi": 36,
      "hit": false,
      "t": 116700,
      "d": 300,
      "v": 100
    },
    {
      "midi": 45,
      "hit": false,
      "t": 117000,
      "d": 300,
      "v": 100
    },
    {
      "midi": 60,
      "hit": false,
      "t": 117300,
      "d": 300,
      "v": 120
    },
    {
      "midi": 69,
      "hit": false,
      "t": 117300,
      "d": 300,
      "v": 120
    },
    {
      "midi": 36,
      "hit": false,
      "t": 117300,
      "d": 300,
      "v": 100
    },
    {
      "midi": 29,
      "hit": false,
      "t": 117600,
      "d": 300,
      "v": 100
    },
    {
      "midi": 36,
      "hit": false,
      "t": 117900,
      "d": 300,
      "v": 100
    },
    {
      "midi": 45,
      "hit": false,
      "t": 118200,
      "d": 300,
      "v": 100
    },
    {
      "midi": 36,
      "hit": false,
      "t": 118500,
      "d": 300,
      "v": 100
    },
    {
      "midi": 41,
      "hit": false,
      "t": 118800,
      "d": 300,
      "v": 100
    },
    {
      "midi": 48,
      "hit": false,
      "t": 119100,
      "d": 300,
      "v": 100
    },
    {
      "midi": 40,
      "hit": false,
      "t": 119400,
      "d": 300,
      "v": 100
    },
    {
      "midi": 48,
      "hit": false,
      "t": 119700,
      "d": 300,
      "v": 100
    },
    {
      "midi": 57,
      "hit": false,
      "t": 120000,
      "d": 300,
      "v": 120
    },
    {
      "midi": 65,
      "hit": false,
      "t": 120000,
      "d": 300,
      "v": 120
    },
    {
      "midi": 38,
      "hit": false,
      "t": 120000,
      "d": 300,
      "v": 100
    },
    {
      "midi": 59,
      "hit": false,
      "t": 120300,
      "d": 300,
      "v": 120
    },
    {
      "midi": 67,
      "hit": false,
      "t": 120300,
      "d": 300,
      "v": 120
    },
    {
      "midi": 45,
      "hit": false,
      "t": 120300,
      "d": 300,
      "v": 100
    },
    {
      "midi": 60,
      "hit": false,
      "t": 120600,
      "d": 300,
      "v": 120
    },
    {
      "midi": 69,
      "hit": false,
      "t": 120600,
      "d": 300,
      "v": 120
    },
    {
      "midi": 53,
      "hit": false,
      "t": 120600,
      "d": 300,
      "v": 100
    },
    {
      "midi": 60,
      "hit": false,
      "t": 120900,
      "d": 600,
      "v": 120
    },
    {
      "midi": 69,
      "hit": false,
      "t": 120900,
      "d": 600,
      "v": 120
    },
    {
      "midi": 52,
      "hit": false,
      "t": 120900,
      "d": 300,
      "v": 100
    },
    {
      "midi": 53,
      "hit": false,
      "t": 121200,
      "d": 1200,
      "v": 100
    },
    {
      "midi": 57,
      "hit": false,
      "t": 121500,
      "d": 600,
      "v": 120
    },
    {
      "midi": 65,
      "hit": false,
      "t": 121500,
      "d": 600,
      "v": 120
    },
    {
      "midi": 53,
      "hit": false,
      "t": 122100,
      "d": 300,
      "v": 120
    },
    {
      "midi": 62,
      "hit": false,
      "t": 122100,
      "d": 300,
      "v": 120
    },
    {
      "midi": 31,
      "hit": false,
      "t": 122400,
      "d": 300,
      "v": 100
    },
    {
      "midi": 38,
      "hit": false,
      "t": 122700,
      "d": 300,
      "v": 99
    },
    {
      "midi": 55,
      "hit": false,
      "t": 123000,
      "d": 300,
      "v": 118
    },
    {
      "midi": 64,
      "hit": false,
      "t": 123000,
      "d": 300,
      "v": 118
    },
    {
      "midi": 47,
      "hit": false,
      "t": 123000,
      "d": 1800,
      "v": 98
    },
    {
      "midi": 57,
      "hit": false,
      "t": 123300,
      "d": 600,
      "v": 117
    },
    {
      "midi": 65,
      "hit": false,
      "t": 123300,
      "d": 600,
      "v": 117
    },
    {
      "midi": 53,
      "hit": false,
      "t": 123900,
      "d": 900,
      "v": 114
    },
    {
      "midi": 62,
      "hit": false,
      "t": 123900,
      "d": 900,
      "v": 114
    },
    {
      "midi": 60,
      "hit": false,
      "t": 124800,
      "d": 2400,
      "v": 110
    },
    {
      "midi": 72,
      "hit": false,
      "t": 124800,
      "d": 2400,
      "v": 100
    },
    {
      "midi": 48,
      "hit": false,
      "t": 124800,
      "d": 300,
      "v": 100
    },
    {
      "midi": 55,
      "hit": false,
      "t": 125100,
      "d": 600,
      "v": 110
    },
    {
      "midi": 55,
      "hit": false,
      "t": 125700,
      "d": 600,
      "v": 110
    },
    {
      "midi": 55,
      "hit": false,
      "t": 126300,
      "d": 600,
      "v": 110
    },
    {
      "midi": 55,
      "hit": false,
      "t": 126900,
      "d": 300,
      "v": 110
    },
    {
      "midi": 48,
      "hit": false,
      "t": 127200,
      "d": 300,
      "v": 90
    },
    {
      "midi": 86,
      "hit": false,
      "t": 127500,
      "d": 300,
      "v": 110
    },
    {
      "midi": 55,
      "hit": false,
      "t": 127500,
      "d": 600,
      "v": 90
    },
    {
      "midi": 79,
      "hit": false,
      "t": 127800,
      "d": 300,
      "v": 110
    },
    {
      "midi": 74,
      "hit": false,
      "t": 128100,
      "d": 600,
      "v": 110
    },
    {
      "midi": 55,
      "hit": false,
      "t": 128100,
      "d": 600,
      "v": 90
    },
    {
      "midi": 79,
      "hit": false,
      "t": 128700,
      "d": 300,
      "v": 110
    },
    {
      "midi": 55,
      "hit": false,
      "t": 128700,
      "d": 600,
      "v": 90
    },
    {
      "midi": 74,
      "hit": false,
      "t": 129000,
      "d": 300,
      "v": 109
    },
    {
      "midi": 67,
      "hit": false,
      "t": 129300,
      "d": 300,
      "v": 109
    },
    {
      "midi": 55,
      "hit": false,
      "t": 129300,
      "d": 300,
      "v": 89
    },
    {
      "midi": 60,
      "hit": false,
      "t": 129600,
      "d": 2400,
      "v": 109
    },
    {
      "midi": 72,
      "hit": false,
      "t": 129600,
      "d": 2400,
      "v": 109
    },
    {
      "midi": 48,
      "hit": false,
      "t": 129600,
      "d": 300,
      "v": 89
    },
    {
      "midi": 55,
      "hit": false,
      "t": 129900,
      "d": 600,
      "v": 89
    },
    {
      "midi": 55,
      "hit": false,
      "t": 130500,
      "d": 600,
      "v": 89
    },
    {
      "midi": 55,
      "hit": false,
      "t": 131100,
      "d": 600,
      "v": 88
    },
    {
      "midi": 55,
      "hit": false,
      "t": 131700,
      "d": 300,
      "v": 88
    },
    {
      "midi": 48,
      "hit": false,
      "t": 132000,
      "d": 300,
      "v": 88
    },
    {
      "midi": 86,
      "hit": false,
      "t": 132300,
      "d": 300,
      "v": 107
    },
    {
      "midi": 55,
      "hit": false,
      "t": 132300,
      "d": 600,
      "v": 87
    },
    {
      "midi": 79,
      "hit": false,
      "t": 132600,
      "d": 300,
      "v": 107
    },
    {
      "midi": 74,
      "hit": false,
      "t": 132900,
      "d": 600,
      "v": 107
    },
    {
      "midi": 55,
      "hit": false,
      "t": 132900,
      "d": 600,
      "v": 87
    },
    {
      "midi": 79,
      "hit": false,
      "t": 133500,
      "d": 300,
      "v": 107
    },
    {
      "midi": 55,
      "hit": false,
      "t": 133500,
      "d": 600,
      "v": 87
    },
    {
      "midi": 74,
      "hit": false,
      "t": 133800,
      "d": 300,
      "v": 107
    },
    {
      "midi": 67,
      "hit": false,
      "t": 134100,
      "d": 300,
      "v": 106
    },
    {
      "midi": 55,
      "hit": false,
      "t": 134100,
      "d": 300,
      "v": 86
    },
    {
      "midi": 62,
      "hit": false,
      "t": 134400,
      "d": 900,
      "v": 106
    },
    {
      "midi": 74,
      "hit": false,
      "t": 134400,
      "d": 900,
      "v": 106
    },
    {
      "midi": 48,
      "hit": false,
      "t": 134400,
      "d": 300,
      "v": 86
    },
    {
      "midi": 55,
      "hit": false,
      "t": 134700,
      "d": 600,
      "v": 86
    },
    {
      "midi": 64,
      "hit": false,
      "t": 135300,
      "d": 1200,
      "v": 106
    },
    {
      "midi": 76,
      "hit": false,
      "t": 135300,
      "d": 1200,
      "v": 106
    },
    {
      "midi": 55,
      "hit": false,
      "t": 135300,
      "d": 600,
      "v": 86
    },
    {
      "midi": 55,
      "hit": false,
      "t": 135900,
      "d": 600,
      "v": 85
    },
    {
      "midi": 55,
      "hit": false,
      "t": 136500,
      "d": 300,
      "v": 85
    },
    {
      "midi": 48,
      "hit": false,
      "t": 136800,
      "d": 300,
      "v": 85
    },
    {
      "midi": 86,
      "hit": false,
      "t": 137100,
      "d": 300,
      "v": 105
    },
    {
      "midi": 55,
      "hit": false,
      "t": 137100,
      "d": 600,
      "v": 85
    },
    {
      "midi": 79,
      "hit": false,
      "t": 137400,
      "d": 300,
      "v": 104
    },
    {
      "midi": 74,
      "hit": false,
      "t": 137700,
      "d": 600,
      "v": 104
    },
    {
      "midi": 55,
      "hit": false,
      "t": 137700,
      "d": 600,
      "v": 84
    },
    {
      "midi": 79,
      "hit": false,
      "t": 138300,
      "d": 300,
      "v": 104
    },
    {
      "midi": 55,
      "hit": false,
      "t": 138300,
      "d": 600,
      "v": 84
    },
    {
      "midi": 74,
      "hit": false,
      "t": 138600,
      "d": 300,
      "v": 104
    },
    {
      "midi": 71,
      "hit": false,
      "t": 138900,
      "d": 300,
      "v": 104
    },
    {
      "midi": 55,
      "hit": false,
      "t": 138900,
      "d": 300,
      "v": 84
    },
    {
      "midi": 60,
      "hit": false,
      "t": 139200,
      "d": 2400,
      "v": 103
    },
    {
      "midi": 72,
      "hit": false,
      "t": 139200,
      "d": 2400,
      "v": 103
    },
    {
      "midi": 48,
      "hit": false,
      "t": 139200,
      "d": 300,
      "v": 83
    },
    {
      "midi": 55,
      "hit": false,
      "t": 139500,
      "d": 600,
      "v": 83
    },
    {
      "midi": 55,
      "hit": false,
      "t": 140100,
      "d": 600,
      "v": 83
    },
    {
      "midi": 55,
      "hit": false,
      "t": 140700,
      "d": 600,
      "v": 82
    },
    {
      "midi": 55,
      "hit": false,
      "t": 141300,
      "d": 300,
      "v": 82
    },
    {
      "midi": 69,
      "hit": false,
      "t": 141600,
      "d": 1200,
      "v": 102
    },
    {
      "midi": 77,
      "hit": false,
      "t": 141600,
      "d": 1200,
      "v": 102
    },
    {
      "midi": 48,
      "hit": false,
      "t": 141600,
      "d": 300,
      "v": 82
    },
    {
      "midi": 55,
      "hit": false,
      "t": 141900,
      "d": 600,
      "v": 82
    },
    {
      "midi": 55,
      "hit": false,
      "t": 142500,
      "d": 600,
      "v": 81
    },
    {
      "midi": 71,
      "hit": false,
      "t": 142800,
      "d": 1200,
      "v": 101
    },
    {
      "midi": 79,
      "hit": false,
      "t": 142800,
      "d": 1200,
      "v": 101
    },
    {
      "midi": 55,
      "hit": false,
      "t": 143100,
      "d": 600,
      "v": 81
    },
    {
      "midi": 55,
      "hit": false,
      "t": 143700,
      "d": 300,
      "v": 81
    },
    {
      "midi": 67,
      "hit": false,
      "t": 144000,
      "d": 2400,
      "v": 100
    },
    {
      "midi": 76,
      "hit": false,
      "t": 144000,
      "d": 2400,
      "v": 100
    },
    {
      "midi": 48,
      "hit": false,
      "t": 144000,
      "d": 300,
      "v": 80
    },
    {
      "midi": 55,
      "hit": false,
      "t": 144300,
      "d": 600,
      "v": 80
    },
    {
      "midi": 55,
      "hit": false,
      "t": 144900,
      "d": 600,
      "v": 80
    },
    {
      "midi": 55,
      "hit": false,
      "t": 145500,
      "d": 600,
      "v": 80
    },
    {
      "midi": 55,
      "hit": false,
      "t": 146100,
      "d": 300,
      "v": 80
    },
    {
      "midi": 69,
      "hit": false,
      "t": 146400,
      "d": 1200,
      "v": 100
    },
    {
      "midi": 77,
      "hit": false,
      "t": 146400,
      "d": 1200,
      "v": 100
    },
    {
      "midi": 48,
      "hit": false,
      "t": 146400,
      "d": 300,
      "v": 80
    },
    {
      "midi": 55,
      "hit": false,
      "t": 146700,
      "d": 600,
      "v": 80
    },
    {
      "midi": 55,
      "hit": false,
      "t": 147300,
      "d": 600,
      "v": 80
    },
    {
      "midi": 71,
      "hit": false,
      "t": 147600,
      "d": 1200,
      "v": 100
    },
    {
      "midi": 79,
      "hit": false,
      "t": 147600,
      "d": 1200,
      "v": 100
    },
    {
      "midi": 55,
      "hit": false,
      "t": 147900,
      "d": 600,
      "v": 80
    },
    {
      "midi": 55,
      "hit": false,
      "t": 148500,
      "d": 300,
      "v": 80
    },
    {
      "midi": 72,
      "hit": false,
      "t": 148800,
      "d": 2400,
      "v": 100
    },
    {
      "midi": 76,
      "hit": false,
      "t": 148800,
      "d": 2400,
      "v": 100
    },
    {
      "midi": 48,
      "hit": false,
      "t": 148800,
      "d": 300,
      "v": 80
    },
    {
      "midi": 55,
      "hit": false,
      "t": 149100,
      "d": 600,
      "v": 80
    },
    {
      "midi": 55,
      "hit": false,
      "t": 149700,
      "d": 600,
      "v": 80
    },
    {
      "midi": 55,
      "hit": false,
      "t": 150300,
      "d": 600,
      "v": 80
    },
    {
      "midi": 55,
      "hit": false,
      "t": 150900,
      "d": 300,
      "v": 80
    },
    {
      "midi": 77,
      "hit": false,
      "t": 151200,
      "d": 1200,
      "v": 100
    },
    {
      "midi": 84,
      "hit": false,
      "t": 151200,
      "d": 1200,
      "v": 100
    },
    {
      "midi": 48,
      "hit": false,
      "t": 151200,
      "d": 300,
      "v": 80
    },
    {
      "midi": 55,
      "hit": false,
      "t": 151500,
      "d": 600,
      "v": 80
    },
    {
      "midi": 55,
      "hit": false,
      "t": 152100,
      "d": 600,
      "v": 80
    },
    {
      "midi": 79,
      "hit": false,
      "t": 152400,
      "d": 1200,
      "v": 100
    },
    {
      "midi": 83,
      "hit": false,
      "t": 152400,
      "d": 1200,
      "v": 100
    },
    {
      "midi": 55,
      "hit": false,
      "t": 152700,
      "d": 600,
      "v": 80
    },
    {
      "midi": 55,
      "hit": false,
      "t": 153300,
      "d": 300,
      "v": 80
    },
    {
      "midi": 72,
      "hit": false,
      "t": 153600,
      "d": 150,
      "v": 100
    },
    {
      "midi": 48,
      "hit": false,
      "t": 153600,
      "d": 300,
      "v": 80
    },
    {
      "midi": 79,
      "hit": false,
      "t": 153750,
      "d": 2250,
      "v": 100
    },
    {
      "midi": 84,
      "hit": false,
      "t": 153750,
      "d": 2250,
      "v": 100
    },
    {
      "midi": 55,
      "hit": false,
      "t": 153900,
      "d": 600,
      "v": 80
    },
    {
      "midi": 55,
      "hit": false,
      "t": 154500,
      "d": 600,
      "v": 80
    },
    {
      "midi": 55,
      "hit": false,
      "t": 155100,
      "d": 600,
      "v": 80
    },
    {
      "midi": 55,
      "hit": false,
      "t": 155700,
      "d": 300,
      "v": 80
    },
    {
      "midi": 48,
      "hit": false,
      "t": 156000,
      "d": 300,
      "v": 80
    },
    {
      "midi": 86,
      "hit": false,
      "t": 156300,
      "d": 300,
      "v": 100
    },
    {
      "midi": 55,
      "hit": false,
      "t": 156300,
      "d": 600,
      "v": 80
    },
    {
      "midi": 79,
      "hit": false,
      "t": 156600,
      "d": 300,
      "v": 100
    },
    {
      "midi": 74,
      "hit": false,
      "t": 156900,
      "d": 600,
      "v": 100
    },
    {
      "midi": 55,
      "hit": false,
      "t": 156900,
      "d": 600,
      "v": 80
    },
    {
      "midi": 79,
      "hit": false,
      "t": 157500,
      "d": 300,
      "v": 100
    },
    {
      "midi": 55,
      "hit": false,
      "t": 157500,
      "d": 600,
      "v": 80
    },
    {
      "midi": 74,
      "hit": false,
      "t": 157800,
      "d": 300,
      "v": 100
    },
    {
      "midi": 67,
      "hit": false,
      "t": 158100,
      "d": 300,
      "v": 100
    },
    {
      "midi": 55,
      "hit": false,
      "t": 158100,
      "d": 300,
      "v": 80
    },
    {
      "midi": 72,
      "hit": false,
      "t": 158400,
      "d": 1200,
      "v": 85
    },
    {
      "midi": 48,
      "hit": false,
      "t": 158400,
      "d": 1200,
      "v": 65
    },
    {
      "midi": 60,
      "hit": false,
      "t": 158400,
      "d": 1200,
      "v": 85
    },
    {
      "midi": 48,
      "hit": false,
      "t": 159600,
      "d": 1200,
      "v": 85
    },
    {
      "midi": 24,
      "hit": false,
      "t": 159600,
      "d": 1200,
      "v": 65
    },
    {
      "midi": 36,
      "hit": false,
      "t": 159600,
      "d": 1200,
      "v": 65
    }
  ]
}