{
  "jsonPath": "Unknown/Unknown/Oliver Onions/santamaria.json",
  "path": "Unknown\\Unknown\\Oliver Onions\\Santamaria.mid",
  "name": "Santamaria",
  "difficulty": "Advanced",
  "bpm": 110.00011000011,
  "notes": [
    {
      "midi": 60,
      "hit": false,
      "t": 81391.12800000001,
      "d": 78.80417708333698,
      "v": 64
    },
    {
      "midi": 65,
      "hit": false,
      "t": 81391.12800000001,
      "d": 86.95633333333535,
      "v": 62
    },
    {
      "midi": 81,
      "hit": false,
      "t": 81401.99754166667,
      "d": 141.30404166666267,
      "v": 70
    },
    {
      "midi": 60,
      "hit": false,
      "t": 81649.27961458334,
      "d": 84.23894791667408,
      "v": 64
    },
    {
      "midi": 65,
      "hit": false,
      "t": 81654.71438541668,
      "d": 62.49986458334024,
      "v": 58
    },
    {
      "midi": 81,
      "hit": false,
      "t": 82171.01761458334,
      "d": 70.65202083333861,
      "v": 77
    },
    {
      "midi": 65,
      "hit": false,
      "t": 82176.45238541668,
      "d": 70.65202083333861,
      "v": 48
    },
    {
      "midi": 60,
      "hit": false,
      "t": 82176.45238541668,
      "d": 84.23894791667408,
      "v": 56
    },
    {
      "midi": 65,
      "hit": false,
      "t": 82431.88661458335,
      "d": 70.65202083333861,
      "v": 54
    },
    {
      "midi": 60,
      "hit": false,
      "t": 82431.88661458335,
      "d": 84.23894791667408,
      "v": 64
    },
    {
      "midi": 60,
      "hit": false,
      "t": 82959.05938541668,
      "d": 86.95633333333535,
      "v": 61
    },
    {
      "midi": 65,
      "hit": false,
      "t": 82964.49415625002,
      "d": 54.34770833332732,
      "v": 44
    },
    {
      "midi": 60,
      "hit": false,
      "t": 83219.92838541669,
      "d": 81.52156249999825,
      "v": 57
    },
    {
      "midi": 65,
      "hit": false,
      "t": 83222.64577083335,
      "d": 65.21725000000151,
      "v": 43
    },
    {
      "midi": 81,
      "hit": false,
      "t": 83461.7756875,
      "d": 78.80417708333698,
      "v": 72
    },
    {
      "midi": 60,
      "hit": false,
      "t": 83480.79738541668,
      "d": 81.52156249999825,
      "v": 57
    },
    {
      "midi": 65,
      "hit": false,
      "t": 83483.51477083334,
      "d": 65.21725000000151,
      "v": 42
    },
    {
      "midi": 60,
      "hit": false,
      "t": 83736.23161458335,
      "d": 70.65202083333861,
      "v": 60
    },
    {
      "midi": 65,
      "hit": false,
      "t": 83738.94900000001,
      "d": 62.49986458334024,
      "v": 46
    },
    {
      "midi": 81,
      "hit": false,
      "t": 84249.81745833335,
      "d": 59.782479166664416,
      "v": 61
    },
    {
      "midi": 60,
      "hit": false,
      "t": 84257.96961458336,
      "d": 81.52156249999825,
      "v": 56
    },
    {
      "midi": 65,
      "hit": false,
      "t": 84260.68700000002,
      "d": 59.782479166664416,
      "v": 42
    },
    {
      "midi": 60,
      "hit": false,
      "t": 84518.83861458335,
      "d": 67.93463541666279,
      "v": 63
    },
    {
      "midi": 65,
      "hit": false,
      "t": 84521.55600000001,
      "d": 57.06509375000314,
      "v": 51
    },
    {
      "midi": 60,
      "hit": false,
      "t": 85040.57661458335,
      "d": 84.23894791665953,
      "v": 61
    },
    {
      "midi": 65,
      "hit": false,
      "t": 85043.29400000001,
      "d": 67.93463541666279,
      "v": 47
    },
    {
      "midi": 60,
      "hit": false,
      "t": 85301.44561458334,
      "d": 73.36940624999988,
      "v": 60
    },
    {
      "midi": 65,
      "hit": false,
      "t": 85301.44561458334,
      "d": 81.52156249999825,
      "v": 50
    },
    {
      "midi": 81,
      "hit": false,
      "t": 85556.87984375001,
      "d": 73.36940624999988,
      "v": 79
    },
    {
      "midi": 60,
      "hit": false,
      "t": 85562.31461458333,
      "d": 86.95633333333535,
      "v": 60
    },
    {
      "midi": 65,
      "hit": false,
      "t": 85565.03199999999,
      "d": 78.80417708333698,
      "v": 45
    },
    {
      "midi": 60,
      "hit": false,
      "t": 85825.901,
      "d": 70.65202083333861,
      "v": 66
    },
    {
      "midi": 65,
      "hit": false,
      "t": 85825.901,
      "d": 70.65202083333861,
      "v": 56
    },
    {
      "midi": 81,
      "hit": false,
      "t": 86336.76945833334,
      "d": 86.95633333333535,
      "v": 76
    },
    {
      "midi": 60,
      "hit": false,
      "t": 86344.92161458333,
      "d": 100.54326041667082,
      "v": 60
    },
    {
      "midi": 65,
      "hit": false,
      "t": 86350.35638541667,
      "d": 76.08679166666116,
      "v": 43
    },
    {
      "midi": 65,
      "hit": false,
      "t": 86613.94277083334,
      "d": 57.06509375000314,
      "v": 54
    },
    {
      "midi": 60,
      "hit": false,
      "t": 86613.94277083334,
      "d": 59.782479166664416,
      "v": 67
    },
    {
      "midi": 60,
      "hit": false,
      "t": 87124.81122916668,
      "d": 81.5215624999837,
      "v": 65
    },
    {
      "midi": 65,
      "hit": false,
      "t": 87127.52861458334,
      "d": 76.08679166666116,
      "v": 56
    },
    {
      "midi": 60,
      "hit": false,
      "t": 87388.39761458333,
      "d": 81.5215624999837,
      "v": 59
    },
    {
      "midi": 65,
      "hit": false,
      "t": 87391.11499999999,
      "d": 76.08679166666116,
      "v": 49
    },
    {
      "midi": 81,
      "hit": false,
      "t": 87643.83184375,
      "d": 73.36940624999988,
      "v": 68
    },
    {
      "midi": 60,
      "hit": false,
      "t": 87654.70138541664,
      "d": 73.36940624999988,
      "v": 61
    },
    {
      "midi": 60,
      "hit": false,
      "t": 87910.13561458331,
      "d": 70.65202083332406,
      "v": 62
    },
    {
      "midi": 65,
      "hit": false,
      "t": 87912.85299999997,
      "d": 57.06509375000314,
      "v": 47
    },
    {
      "midi": 81,
      "hit": false,
      "t": 88418.2866875,
      "d": 81.52156249999825,
      "v": 68
    },
    {
      "midi": 60,
      "hit": false,
      "t": 88431.87361458331,
      "d": 78.80417708333698,
      "v": 59
    },
    {
      "midi": 65,
      "hit": false,
      "t": 88437.30838541665,
      "d": 48.91293750000477,
      "v": 38
    },
    {
      "midi": 65,
      "hit": false,
      "t": 88695.45999999998,
      "d": 59.782479166664416,
      "v": 52
    },
    {
      "midi": 60,
      "hit": false,
      "t": 88695.45999999998,
      "d": 65.21725000000151,
      "v": 63
    },
    {
      "midi": 60,
      "hit": false,
      "t": 89211.76322916665,
      "d": 81.52156249999825,
      "v": 67
    },
    {
      "midi": 65,
      "hit": false,
      "t": 89211.76322916665,
      "d": 81.52156249999825,
      "v": 60
    },
    {
      "midi": 65,
      "hit": false,
      "t": 89475.34961458332,
      "d": 65.21725000000151,
      "v": 48
    },
    {
      "midi": 60,
      "hit": false,
      "t": 89475.34961458332,
      "d": 73.36940624999988,
      "v": 59
    },
    {
      "midi": 60,
      "hit": false,
      "t": 89736.21861458333,
      "d": 73.36940624998533,
      "v": 58
    },
    {
      "midi": 81,
      "hit": false,
      "t": 89736.21861458334,
      "d": 78.80417708333698,
      "v": 59
    },
    {
      "midi": 65,
      "hit": false,
      "t": 89738.93599999999,
      "d": 59.782479166664416,
      "v": 39
    },
    {
      "midi": 60,
      "hit": false,
      "t": 89997.08761458332,
      "d": 65.21725000000151,
      "v": 66
    },
    {
      "midi": 65,
      "hit": false,
      "t": 90002.52238541665,
      "d": 38.04339583333058,
      "v": 50
    },
    {
      "midi": 81,
      "hit": false,
      "t": 90510.67345833335,
      "d": 84.23894791665953,
      "v": 62
    },
    {
      "midi": 65,
      "hit": false,
      "t": 90516.10822916665,
      "d": 73.36940624999988,
      "v": 54
    },
    {
      "midi": 60,
      "hit": false,
      "t": 90516.10822916665,
      "d": 78.80417708333698,
      "v": 64
    },
    {
      "midi": 60,
      "hit": false,
      "t": 90776.97722916666,
      "d": 73.36940624998533,
      "v": 61
    },
    {
      "midi": 65,
      "hit": false,
      "t": 90779.69461458332,
      "d": 54.34770833332732,
      "v": 42
    },
    {
      "midi": 60,
      "hit": false,
      "t": 91301.43261458332,
      "d": 73.36940624999988,
      "v": 66
    },
    {
      "midi": 65,
      "hit": false,
      "t": 91304.14999999998,
      "d": 73.36940624999988,
      "v": 56
    },
    {
      "midi": 65,
      "hit": false,
      "t": 91559.58422916665,
      "d": 73.36940624998533,
      "v": 51
    },
    {
      "midi": 60,
      "hit": false,
      "t": 91562.30161458331,
      "d": 67.93463541666279,
      "v": 61
    },
    {
      "midi": 60,
      "hit": false,
      "t": 91820.45322916664,
      "d": 73.36940624998533,
      "v": 66
    },
    {
      "midi": 65,
      "hit": false,
      "t": 91823.1706145833,
      "d": 54.34770833332732,
      "v": 48
    },
    {
      "midi": 81,
      "hit": false,
      "t": 91842.1923125,
      "d": 100.54326041667082,
      "v": 69
    },
    {
      "midi": 65,
      "hit": false,
      "t": 92081.32222916663,
      "d": 65.21725000000151,
      "v": 57
    },
    {
      "midi": 60,
      "hit": false,
      "t": 92081.32222916663,
      "d": 76.08679166666116,
      "v": 67
    },
    {
      "midi": 81,
      "hit": false,
      "t": 92594.90807291667,
      "d": 95.10848958333372,
      "v": 72
    },
    {
      "midi": 60,
      "hit": false,
      "t": 92605.77761458329,
      "d": 76.08679166666116,
      "v": 60
    },
    {
      "midi": 65,
      "hit": false,
      "t": 92605.77761458329,
      "d": 84.23894791665953,
      "v": 52
    },
    {
      "midi": 60,
      "hit": false,
      "t": 92866.64661458328,
      "d": 62.49986458334024,
      "v": 68
    },
    {
      "midi": 65,
      "hit": false,
      "t": 92866.64661458328,
      "d": 76.08679166667571,
      "v": 59
    },
    {
      "midi": 60,
      "hit": false,
      "t": 93388.3846145833,
      "d": 70.65202083333861,
      "v": 69
    },
    {
      "midi": 65,
      "hit": false,
      "t": 93388.3846145833,
      "d": 70.65202083333861,
      "v": 60
    },
    {
      "midi": 60,
      "hit": false,
      "t": 93649.2536145833,
      "d": 76.08679166666116,
      "v": 65
    },
    {
      "midi": 65,
      "hit": false,
      "t": 93649.2536145833,
      "d": 78.80417708332243,
      "v": 55
    },
    {
      "midi": 67,
      "hit": false,
      "t": 93910.12261458329,
      "d": 62.49986458334024,
      "v": 68
    },
    {
      "midi": 60,
      "hit": false,
      "t": 93910.12261458329,
      "d": 73.36940624999988,
      "v": 73
    },
    {
      "midi": 82,
      "hit": false,
      "t": 93912.84000000001,
      "d": 89.67371874999662,
      "v": 79
    },
    {
      "midi": 60,
      "hit": false,
      "t": 94170.9916145833,
      "d": 62.49986458334024,
      "v": 70
    },
    {
      "midi": 67,
      "hit": false,
      "t": 94170.9916145833,
      "d": 73.36940624999988,
      "v": 62
    },
    {
      "midi": 60,
      "hit": false,
      "t": 94690.01222916663,
      "d": 76.08679166666116,
      "v": 65
    },
    {
      "midi": 67,
      "hit": false,
      "t": 94692.7296145833,
      "d": 81.52156249999825,
      "v": 61
    },
    {
      "midi": 82,
      "hit": false,
      "t": 94692.72961458334,
      "d": 73.36940624999988,
      "v": 85
    },
    {
      "midi": 67,
      "hit": false,
      "t": 94953.59861458329,
      "d": 73.36940624999988,
      "v": 66
    },
    {
      "midi": 60,
      "hit": false,
      "t": 94953.59861458329,
      "d": 76.08679166666116,
      "v": 76
    },
    {
      "midi": 67,
      "hit": false,
      "t": 95475.33661458328,
      "d": 95.10848958331917,
      "v": 60
    },
    {
      "midi": 60,
      "hit": false,
      "t": 95478.05399999995,
      "d": 81.52156249999825,
      "v": 62
    },
    {
      "midi": 60,
      "hit": false,
      "t": 95736.20561458328,
      "d": 70.65202083333861,
      "v": 70
    },
    {
      "midi": 67,
      "hit": false,
      "t": 95736.20561458328,
      "d": 81.52156249999825,
      "v": 61
    },
    {
      "midi": 60,
      "hit": false,
      "t": 95997.07461458327,
      "d": 81.52156249999825,
      "v": 69
    },
    {
      "midi": 67,
      "hit": false,
      "t": 96002.5093854166,
      "d": 59.782479166664416,
      "v": 50
    },
    {
      "midi": 82,
      "hit": false,
      "t": 96002.50938541668,
      "d": 70.65202083333861,
      "v": 74
    },
    {
      "midi": 60,
      "hit": false,
      "t": 96257.94361458326,
      "d": 67.93463541666279,
      "v": 68
    },
    {
      "midi": 67,
      "hit": false,
      "t": 96257.94361458326,
      "d": 67.93463541666279,
      "v": 62
    },
    {
      "midi": 55,
      "hit": false,
      "t": 96260.66099999992,
      "d": 1842.387312499981,
      "v": 62
    },
    {
      "midi": 60,
      "hit": false,
      "t": 96510.66045833325,
      "d": 1576.0835416666669,
      "v": 70
    },
    {
      "midi": 82,
      "hit": false,
      "t": 96768.81207291668,
      "d": 76.08679166666116,
      "v": 62
    },
    {
      "midi": 67,
      "hit": false,
      "t": 96779.68161458326,
      "d": 73.36940624999988,
      "v": 59
    },
    {
      "midi": 64,
      "hit": false,
      "t": 97018.81153124993,
      "d": 1073.3672395833128,
      "v": 65
    },
    {
      "midi": 67,
      "hit": false,
      "t": 97043.26799999992,
      "d": 76.08679166666116,
      "v": 56
    },
    {
      "midi": 67,
      "hit": false,
      "t": 97282.39791666658,
      "d": 804.3460833333374,
      "v": 67
    },
    {
      "midi": 72,
      "hit": false,
      "t": 97554.13645833325,
      "d": 548.9118541666539,
      "v": 68
    },
    {
      "midi": 79,
      "hit": false,
      "t": 98084.02661458334,
      "d": 84.23894791665953,
      "v": 60
    },
    {
      "midi": 67,
      "hit": false,
      "t": 98089.46138541658,
      "d": 2.7173854166612728,
      "v": 56
    },
    {
      "midi": 60,
      "hit": false,
      "t": 98089.46138541658,
      "d": 13.586927083320916,
      "v": 69
    },
    {
      "midi": 60,
      "hit": false,
      "t": 98350.33038541657,
      "d": 70.65202083332406,
      "v": 70
    },
    {
      "midi": 67,
      "hit": false,
      "t": 98353.04777083323,
      "d": 51.630322916666046,
      "v": 54
    },
    {
      "midi": 79,
      "hit": false,
      "t": 98842.17714583334,
      "d": 105.97803124999336,
      "v": 65
    },
    {
      "midi": 60,
      "hit": false,
      "t": 98863.91622916656,
      "d": 86.95633333333535,
      "v": 65
    },
    {
      "midi": 67,
      "hit": false,
      "t": 98866.63361458322,
      "d": 21.739083333333838,
      "v": 59
    },
    {
      "midi": 60,
      "hit": false,
      "t": 99124.78522916656,
      "d": 70.65202083332406,
      "v": 73
    },
    {
      "midi": 67,
      "hit": false,
      "t": 99127.50261458322,
      "d": 65.21725000000151,
      "v": 64
    },
    {
      "midi": 60,
      "hit": false,
      "t": 99646.52322916656,
      "d": 13.586927083335468,
      "v": 73
    },
    {
      "midi": 67,
      "hit": false,
      "t": 99651.9579999999,
      "d": 57.06509375000314,
      "v": 59
    },
    {
      "midi": 60,
      "hit": false,
      "t": 99907.39222916657,
      "d": 70.65202083332406,
      "v": 66
    },
    {
      "midi": 67,
      "hit": false,
      "t": 99910.10961458323,
      "d": 57.06509375000314,
      "v": 50
    },
    {
      "midi": 79,
      "hit": false,
      "t": 100162.82645833334,
      "d": 97.825874999995,
      "v": 67
    },
    {
      "midi": 67,
      "hit": false,
      "t": 100168.26122916656,
      "d": 81.52156249999825,
      "v": 59
    },
    {
      "midi": 60,
      "hit": false,
      "t": 100168.26122916656,
      "d": 84.23894791665953,
      "v": 68
    },
    {
      "midi": 67,
      "hit": false,
      "t": 100431.84761458321,
      "d": 65.21725000000151,
      "v": 61
    },
    {
      "midi": 60,
      "hit": false,
      "t": 100431.84761458321,
      "d": 67.93463541666279,
      "v": 68
    },
    {
      "midi": 79,
      "hit": false,
      "t": 100939.9986875,
      "d": 97.825874999995,
      "v": 66
    },
    {
      "midi": 67,
      "hit": false,
      "t": 100953.58561458321,
      "d": 67.93463541666279,
      "v": 61
    },
    {
      "midi": 60,
      "hit": false,
      "t": 100953.58561458321,
      "d": 70.65202083332406,
      "v": 70
    },
    {
      "midi": 67,
      "hit": false,
      "t": 101214.4546145832,
      "d": 51.630322916666046,
      "v": 60
    },
    {
      "midi": 60,
      "hit": false,
      "t": 101214.4546145832,
      "d": 62.49986458332569,
      "v": 71
    },
    {
      "midi": 60,
      "hit": false,
      "t": 101736.1926145832,
      "d": 67.93463541666279,
      "v": 73
    },
    {
      "midi": 67,
      "hit": false,
      "t": 101738.90999999986,
      "d": 65.21725000000151,
      "v": 64
    },
    {
      "midi": 67,
      "hit": false,
      "t": 101997.06161458319,
      "d": 62.49986458334024,
      "v": 53
    },
    {
      "midi": 60,
      "hit": false,
      "t": 101997.06161458319,
      "d": 65.21725000000151,
      "v": 66
    },
    {
      "midi": 60,
      "hit": false,
      "t": 102257.9306145832,
      "d": 67.93463541666279,
      "v": 72
    },
    {
      "midi": 67,
      "hit": false,
      "t": 102260.64799999986,
      "d": 57.06509375000314,
      "v": 51
    },
    {
      "midi": 82,
      "hit": false,
      "t": 102263.36538541666,
      "d": 144.0214270833385,
      "v": 65
    },
    {
      "midi": 60,
      "hit": false,
      "t": 102513.36484374986,
      "d": 73.36940624999988,
      "v": 67
    },
    {
      "midi": 67,
      "hit": false,
      "t": 102513.36484374986,
      "d": 76.08679166666116,
      "v": 57
    },
    {
      "midi": 79,
      "hit": false,
      "t": 102532.38654166667,
      "d": 97.825874999995,
      "v": 56
    },
    {
      "midi": 82,
      "hit": false,
      "t": 103018.79853125,
      "d": 92.39110416667245,
      "v": 78
    },
    {
      "midi": 60,
      "hit": false,
      "t": 103037.82022916652,
      "d": 81.5215624999837,
      "v": 66
    },
    {
      "midi": 67,
      "hit": false,
      "t": 103040.53761458318,
      "d": 67.93463541666279,
      "v": 54
    },
    {
      "midi": 67,
      "hit": false,
      "t": 103298.6892291665,
      "d": 73.36940624999988,
      "v": 66
    },
    {
      "midi": 60,
      "hit": false,
      "t": 103301.40661458316,
      "d": 70.65202083333861,
      "v": 76
    },
    {
      "midi": 79,
      "hit": false,
      "t": 103304.124,
      "d": 111.41280208333046,
      "v": 65
    },
    {
      "midi": 60,
      "hit": false,
      "t": 103820.4272291665,
      "d": 78.80417708332243,
      "v": 67
    },
    {
      "midi": 67,
      "hit": false,
      "t": 103823.14461458316,
      "d": 67.93463541666279,
      "v": 54
    },
    {
      "midi": 82,
      "hit": false,
      "t": 103823.14461458333,
      "d": 130.43450000000303,
      "v": 58
    },
    {
      "midi": 60,
      "hit": false,
      "t": 104081.29622916649,
      "d": 73.36940624999988,
      "v": 66
    },
    {
      "midi": 67,
      "hit": false,
      "t": 104081.29622916649,
      "d": 78.80417708333698,
      "v": 55
    },
    {
      "midi": 79,
      "hit": false,
      "t": 104100.31792708334,
      "d": 62.49986458334024,
      "v": 53
    },
    {
      "midi": 60,
      "hit": false,
      "t": 104344.88261458316,
      "d": 73.36940624999988,
      "v": 67
    },
    {
      "midi": 67,
      "hit": false,
      "t": 104350.31738541649,
      "d": 54.34770833332732,
      "v": 51
    },
    {
      "midi": 82,
      "hit": false,
      "t": 104361.18692708334,
      "d": 97.825874999995,
      "v": 66
    },
    {
      "midi": 67,
      "hit": false,
      "t": 104605.75161458316,
      "d": 67.93463541666279,
      "v": 60
    },
    {
      "midi": 60,
      "hit": false,
      "t": 104605.75161458316,
      "d": 70.65202083332406,
      "v": 69
    },
    {
      "midi": 79,
      "hit": false,
      "t": 104622.05592708333,
      "d": 111.41280208333046,
      "v": 58
    },
    {
      "midi": 60,
      "hit": false,
      "t": 105124.77222916648,
      "d": 78.80417708332243,
      "v": 68
    },
    {
      "midi": 67,
      "hit": false,
      "t": 105127.48961458314,
      "d": 76.08679166666116,
      "v": 58
    },
    {
      "midi": 82,
      "hit": false,
      "t": 105127.48961458333,
      "d": 78.80417708333698,
      "v": 67
    },
    {
      "midi": 60,
      "hit": false,
      "t": 105391.07599999981,
      "d": 65.21724999998696,
      "v": 65
    },
    {
      "midi": 79,
      "hit": false,
      "t": 105391.076,
      "d": 100.54326041667082,
      "v": 64
    },
    {
      "midi": 67,
      "hit": false,
      "t": 105393.79338541647,
      "d": 59.782479166664416,
      "v": 50
    },
    {
      "midi": 67,
      "hit": false,
      "t": 105907.37922916647,
      "d": 76.08679166666116,
      "v": 55
    },
    {
      "midi": 60,
      "hit": false,
      "t": 105907.37922916647,
      "d": 78.80417708332243,
      "v": 67
    },
    {
      "midi": 82,
      "hit": false,
      "t": 105910.09661458334,
      "d": 135.86927083334012,
      "v": 61
    },
    {
      "midi": 60,
      "hit": false,
      "t": 106168.24822916646,
      "d": 70.65202083332406,
      "v": 65
    },
    {
      "midi": 67,
      "hit": false,
      "t": 106170.96561458312,
      "d": 59.782479166664416,
      "v": 48
    },
    {
      "midi": 79,
      "hit": false,
      "t": 106181.83515625002,
      "d": 76.08679166666116,
      "v": 54
    },
    {
      "midi": 60,
      "hit": false,
      "t": 106431.83461458312,
      "d": 70.65202083332406,
      "v": 66
    },
    {
      "midi": 67,
      "hit": false,
      "t": 106434.55199999978,
      "d": 67.93463541666279,
      "v": 52
    },
    {
      "midi": 82,
      "hit": false,
      "t": 106445.42154166668,
      "d": 105.97803124999336,
      "v": 71
    },
    {
      "midi": 60,
      "hit": false,
      "t": 106692.70361458311,
      "d": 65.21724999998696,
      "v": 68
    },
    {
      "midi": 67,
      "hit": false,
      "t": 106695.42099999977,
      "d": 59.782479166664416,
      "v": 57
    },
    {
      "midi": 79,
      "hit": false,
      "t": 106706.29054166668,
      "d": 111.41280208333046,
      "v": 58
    },
    {
      "midi": 82,
      "hit": false,
      "t": 107206.28945833334,
      "d": 138.5866562500014,
      "v": 65
    },
    {
      "midi": 60,
      "hit": false,
      "t": 107211.72422916643,
      "d": 65.21725000000151,
      "v": 68
    },
    {
      "midi": 67,
      "hit": false,
      "t": 107211.72422916643,
      "d": 67.93463541666279,
      "v": 62
    },
    {
      "midi": 60,
      "hit": false,
      "t": 107469.87584374976,
      "d": 67.93463541666279,
      "v": 65
    },
    {
      "midi": 67,
      "hit": false,
      "t": 107469.87584374976,
      "d": 67.93463541666279,
      "v": 57
    },
    {
      "midi": 79,
      "hit": false,
      "t": 107475.31061458334,
      "d": 111.41280208333046,
      "v": 57
    },
    {
      "midi": 60,
      "hit": false,
      "t": 107991.61384374976,
      "d": 73.36940624999988,
      "v": 68
    },
    {
      "midi": 67,
      "hit": false,
      "t": 107991.61384374976,
      "d": 73.36940624999988,
      "v": 58
    },
    {
      "midi": 82,
      "hit": false,
      "t": 107991.61384375,
      "d": 133.1518854166643,
      "v": 63
    },
    {
      "midi": 79,
      "hit": false,
      "t": 108249.76545833334,
      "d": 100.54326041667082,
      "v": 53
    },
    {
      "midi": 60,
      "hit": false,
      "t": 108255.20022916642,
      "d": 73.36940624998533,
      "v": 66
    },
    {
      "midi": 67,
      "hit": false,
      "t": 108257.91761458309,
      "d": 67.93463541666279,
      "v": 49
    },
    {
      "midi": 82,
      "hit": false,
      "t": 108516.06922916668,
      "d": 171.19528124999488,
      "v": 67
    },
    {
      "midi": 67,
      "hit": false,
      "t": 108518.78661458308,
      "d": 67.93463541666279,
      "v": 54
    },
    {
      "midi": 60,
      "hit": false,
      "t": 108518.78661458308,
      "d": 70.65202083332406,
      "v": 68
    },
    {
      "midi": 79,
      "hit": false,
      "t": 108771.50345833333,
      "d": 114.13018750000629,
      "v": 60
    },
    {
      "midi": 60,
      "hit": false,
      "t": 108779.65561458307,
      "d": 59.782479166664416,
      "v": 68
    },
    {
      "midi": 67,
      "hit": false,
      "t": 108779.65561458307,
      "d": 59.782479166664416,
      "v": 55
    },
    {
      "midi": 82,
      "hit": false,
      "t": 109287.80668750001,
      "d": 138.5866562500014,
      "v": 72
    },
    {
      "midi": 60,
      "hit": false,
      "t": 109301.39361458307,
      "d": 67.93463541666279,
      "v": 64
    },
    {
      "midi": 67,
      "hit": false,
      "t": 109301.39361458307,
      "d": 70.65202083332406,
      "v": 54
    },
    {
      "midi": 79,
      "hit": false,
      "t": 109554.11045833334,
      "d": 100.54326041667082,
      "v": 57
    },
    {
      "midi": 60,
      "hit": false,
      "t": 109562.26261458306,
      "d": 65.21725000000151,
      "v": 70
    },
    {
      "midi": 67,
      "hit": false,
      "t": 109562.26261458306,
      "d": 67.93463541666279,
      "v": 61
    },
    {
      "midi": 82,
      "hit": false,
      "t": 110054.109375,
      "d": 184.78220833333035,
      "v": 74
    },
    {
      "midi": 67,
      "hit": false,
      "t": 110081.2832291664,
      "d": 67.93463541666279,
      "v": 60
    },
    {
      "midi": 60,
      "hit": false,
      "t": 110081.2832291664,
      "d": 76.08679166666116,
      "v": 67
    },
    {
      "midi": 79,
      "hit": false,
      "t": 110328.56530208333,
      "d": 84.23894791665953,
      "v": 60
    },
    {
      "midi": 60,
      "hit": false,
      "t": 110342.15222916639,
      "d": 76.08679166666116,
      "v": 68
    },
    {
      "midi": 67,
      "hit": false,
      "t": 110342.15222916639,
      "d": 81.52156249999825,
      "v": 60
    },
    {
      "midi": 60,
      "hit": false,
      "t": 110603.02122916638,
      "d": 89.67371875001118,
      "v": 62
    },
    {
      "midi": 65,
      "hit": false,
      "t": 110608.45599999971,
      "d": 65.21725000000151,
      "v": 66
    },
    {
      "midi": 81,
      "hit": false,
      "t": 110611.17338541665,
      "d": 114.13018750000629,
      "v": 51
    },
    {
      "midi": 60,
      "hit": false,
      "t": 110866.60761458306,
      "d": 73.36940624999988,
      "v": 69
    },
    {
      "midi": 65,
      "hit": false,
      "t": 110866.60761458306,
      "d": 73.36940624999988,
      "v": 67
    },
    {
      "midi": 81,
      "hit": false,
      "t": 111377.47607291666,
      "d": 103.26064583333209,
      "v": 56
    },
    {
      "midi": 60,
      "hit": false,
      "t": 111388.34561458306,
      "d": 67.93463541667734,
      "v": 68
    },
    {
      "midi": 65,
      "hit": false,
      "t": 111393.7803854164,
      "d": 40.7607812500064,
      "v": 60
    },
    {
      "midi": 60,
      "hit": false,
      "t": 111646.4972291664,
      "d": 78.80417708332243,
      "v": 68
    },
    {
      "midi": 65,
      "hit": false,
      "t": 111649.21461458306,
      "d": 59.782479166664416,
      "v": 62
    },
    {
      "midi": 60,
      "hit": false,
      "t": 112168.23522916638,
      "d": 76.08679166666116,
      "v": 68
    },
    {
      "midi": 65,
      "hit": false,
      "t": 112170.95261458305,
      "d": 54.34770833332732,
      "v": 62
    },
    {
      "midi": 60,
      "hit": false,
      "t": 112429.10422916638,
      "d": 73.36940624999988,
      "v": 64
    },
    {
      "midi": 65,
      "hit": false,
      "t": 112431.82161458304,
      "d": 57.06509375000314,
      "v": 59
    },
    {
      "midi": 81,
      "hit": false,
      "t": 112687.25584375,
      "d": 111.41280208333046,
      "v": 64
    },
    {
      "midi": 60,
      "hit": false,
      "t": 112689.97322916638,
      "d": 73.36940624999988,
      "v": 65
    },
    {
      "midi": 65,
      "hit": false,
      "t": 112692.69061458304,
      "d": 57.06509375000314,
      "v": 60
    },
    {
      "midi": 60,
      "hit": false,
      "t": 112953.55961458305,
      "d": 65.21724999998696,
      "v": 66
    },
    {
      "midi": 72,
      "hit": false,
      "t": 112953.55961458305,
      "d": 777.1722291666229,
      "v": 92
    },
    {
      "midi": 65,
      "hit": false,
      "t": 112956.27699999971,
      "d": 51.630322916666046,
      "v": 60
    },
    {
      "midi": 81,
      "hit": false,
      "t": 113219.86338541636,
      "d": 1423.909958333301,
      "v": 102
    },
    {
      "midi": 81,
      "hit": false,
      "t": 113458.99330208333,
      "d": 95.10848958333372,
      "v": 65
    },
    {
      "midi": 60,
      "hit": false,
      "t": 113472.58022916636,
      "d": 73.36940624998533,
      "v": 65
    },
    {
      "midi": 79,
      "hit": false,
      "t": 113472.58022916636,
      "d": 1171.1931145833078,
      "v": 83
    },
    {
      "midi": 65,
      "hit": false,
      "t": 113475.29761458302,
      "d": 54.34770833332732,
      "v": 64
    },
    {
      "midi": 77,
      "hit": false,
      "t": 113733.44922916633,
      "d": 910.3241145833308,
      "v": 100
    },
    {
      "midi": 60,
      "hit": false,
      "t": 113736.166614583,
      "d": 65.21725000000151,
      "v": 66
    },
    {
      "midi": 65,
      "hit": false,
      "t": 113738.88399999966,
      "d": 43.478166666667676,
      "v": 58
    },
    {
      "midi": 72,
      "hit": false,
      "t": 113986.16607291633,
      "d": 918.4762708333292,
      "v": 94
    },
    {
      "midi": 60,
      "hit": false,
      "t": 114252.46984374966,
      "d": 78.80417708333698,
      "v": 60
    },
    {
      "midi": 65,
      "hit": false,
      "t": 114255.18722916632,
      "d": 48.91293750000477,
      "v": 54
    },
    {
      "midi": 70,
      "hit": false,
      "t": 114486.16498958299,
      "d": 111.41280208334501,
      "v": 79
    },
    {
      "midi": 60,
      "hit": false,
      "t": 114513.33884374966,
      "d": 84.23894791667408,
      "v": 54
    },
    {
      "midi": 65,
      "hit": false,
      "t": 114516.05622916632,
      "d": 62.49986458334024,
      "v": 49
    },
    {
      "midi": 69,
      "hit": false,
      "t": 114651.92549999966,
      "d": 76.08679166666116,
      "v": 90
    },
    {
      "midi": 81,
      "hit": false,
      "t": 114766.05568749999,
      "d": 114.13018750000629,
      "v": 68
    },
    {
      "midi": 65,
      "hit": false,
      "t": 114776.92522916633,
      "d": 57.06509374998859,
      "v": 59
    },
    {
      "midi": 60,
      "hit": false,
      "t": 114776.92522916633,
      "d": 70.65202083332406,
      "v": 61
    },
    {
      "midi": 69,
      "hit": false,
      "t": 114809.53385416632,
      "d": 1222.8234374999884,
      "v": 102
    },
    {
      "midi": 65,
      "hit": false,
      "t": 115037.79422916632,
      "d": 59.782479166664416,
      "v": 58
    },
    {
      "midi": 60,
      "hit": false,
      "t": 115037.79422916632,
      "d": 70.65202083332406,
      "v": 60
    },
    {
      "midi": 81,
      "hit": false,
      "t": 115548.6626875,
      "d": 135.86927083334012,
      "v": 57
    },
    {
      "midi": 60,
      "hit": false,
      "t": 115559.53222916632,
      "d": 73.36940624998533,
      "v": 60
    },
    {
      "midi": 65,
      "hit": false,
      "t": 115562.24961458298,
      "d": 59.782479166664416,
      "v": 59
    },
    {
      "midi": 65,
      "hit": false,
      "t": 115823.11861458297,
      "d": 57.06509375000314,
      "v": 62
    },
    {
      "midi": 60,
      "hit": false,
      "t": 115823.11861458297,
      "d": 62.49986458334024,
      "v": 65
    },
    {
      "midi": 60,
      "hit": false,
      "t": 116342.1392291663,
      "d": 78.80417708333698,
      "v": 60
    },
    {
      "midi": 65,
      "hit": false,
      "t": 116344.85661458297,
      "d": 62.49986458334024,
      "v": 57
    },
    {
      "midi": 60,
      "hit": false,
      "t": 116603.00822916631,
      "d": 67.93463541664823,
      "v": 56
    },
    {
      "midi": 65,
      "hit": false,
      "t": 116605.72561458297,
      "d": 54.34770833332732,
      "v": 50
    },
    {
      "midi": 65,
      "hit": false,
      "t": 116866.59461458297,
      "d": 57.06509375000314,
      "v": 61
    },
    {
      "midi": 60,
      "hit": false,
      "t": 116866.59461458297,
      "d": 65.21725000000151,
      "v": 65
    },
    {
      "midi": 81,
      "hit": false,
      "t": 116872.02938541667,
      "d": 133.1518854166643,
      "v": 59
    },
    {
      "midi": 60,
      "hit": false,
      "t": 117124.7462291663,
      "d": 65.21725000000151,
      "v": 56
    },
    {
      "midi": 65,
      "hit": false,
      "t": 117127.46361458296,
      "d": 48.91293750000477,
      "v": 51
    },
    {
      "midi": 60,
      "hit": false,
      "t": 117646.4842291663,
      "d": 70.65202083332406,
      "v": 49
    },
    {
      "midi": 65,
      "hit": false,
      "t": 117649.20161458295,
      "d": 59.782479166664416,
      "v": 48
    },
    {
      "midi": 81,
      "hit": false,
      "t": 117654.63638541667,
      "d": 111.41280208333046,
      "v": 62
    },
    {
      "midi": 60,
      "hit": false,
      "t": 117907.35322916629,
      "d": 59.782479166664416,
      "v": 64
    },
    {
      "midi": 65,
      "hit": false,
      "t": 117910.07061458295,
      "d": 38.04339583333058,
      "v": 56
    },
    {
      "midi": 69,
      "hit": false,
      "t": 117915.50538541628,
      "d": 902.1719583333324,
      "v": 80
    },
    {
      "midi": 60,
      "hit": false,
      "t": 118426.37384374962,
      "d": 65.21724999998696,
      "v": 55
    },
    {
      "midi": 65,
      "hit": false,
      "t": 118429.09122916628,
      "d": 57.06509374998859,
      "v": 59
    },
    {
      "midi": 70,
      "hit": false,
      "t": 118431.80861458294,
      "d": 907.606729166655,
      "v": 68
    },
    {
      "midi": 65,
      "hit": false,
      "t": 118687.24284374961,
      "d": 62.49986458332569,
      "v": 58
    },
    {
      "midi": 60,
      "hit": false,
      "t": 118687.24284374961,
      "d": 67.93463541666279,
      "v": 59
    },
    {
      "midi": 72,
      "hit": false,
      "t": 118717.13408333295,
      "d": 1345.1057812499785,
      "v": 74
    },
    {
      "midi": 60,
      "hit": false,
      "t": 118948.11184374962,
      "d": 73.36940624998533,
      "v": 62
    },
    {
      "midi": 65,
      "hit": false,
      "t": 118950.82922916628,
      "d": 59.782479166664416,
      "v": 58
    },
    {
      "midi": 81,
      "hit": false,
      "t": 118958.98138541667,
      "d": 124.99972916666593,
      "v": 60
    },
    {
      "midi": 60,
      "hit": false,
      "t": 119211.69822916627,
      "d": 67.93463541666279,
      "v": 58
    },
    {
      "midi": 65,
      "hit": false,
      "t": 119214.41561458293,
      "d": 43.478166666667676,
      "v": 48
    },
    {
      "midi": 81,
      "hit": false,
      "t": 119728.00145833334,
      "d": 133.1518854166643,
      "v": 63
    },
    {
      "midi": 60,
      "hit": false,
      "t": 119730.7188437496,
      "d": 70.65202083333861,
      "v": 60
    },
    {
      "midi": 65,
      "hit": false,
      "t": 119733.43622916625,
      "d": 62.49986458334024,
      "v": 58
    },
    {
      "midi": 60,
      "hit": false,
      "t": 119991.5878437496,
      "d": 62.49986458332569,
      "v": 60
    },
    {
      "midi": 65,
      "hit": false,
      "t": 119994.30522916626,
      "d": 51.630322916666046,
      "v": 57
    },
    {
      "midi": 65,
      "hit": false,
      "t": 120513.3258437496,
      "d": 59.782479166664416,
      "v": 56
    },
    {
      "midi": 60,
      "hit": false,
      "t": 120513.3258437496,
      "d": 73.36940624999988,
      "v": 59
    },
    {
      "midi": 65,
      "hit": false,
      "t": 120776.91222916626,
      "d": 67.93463541666279,
      "v": 59
    },
    {
      "midi": 60,
      "hit": false,
      "t": 120776.91222916626,
      "d": 70.65202083332406,
      "v": 60
    },
    {
      "midi": 81,
      "hit": false,
      "t": 121026.9116875,
      "d": 122.28234375000466,
      "v": 62
    },
    {
      "midi": 60,
      "hit": false,
      "t": 121035.0638437496,
      "d": 73.36940624999988,
      "v": 59
    },
    {
      "midi": 65,
      "hit": false,
      "t": 121037.78122916626,
      "d": 62.49986458334024,
      "v": 57
    },
    {
      "midi": 60,
      "hit": false,
      "t": 121298.65022916626,
      "d": 65.21724999998696,
      "v": 58
    },
    {
      "midi": 65,
      "hit": false,
      "t": 121301.36761458292,
      "d": 46.19555208332895,
      "v": 53
    },
    {
      "midi": 81,
      "hit": false,
      "t": 121804.08391666667,
      "d": 119.56495833332883,
      "v": 64
    },
    {
      "midi": 69,
      "hit": false,
      "t": 121809.51868749959,
      "d": 660.3246562499844,
      "v": 79
    },
    {
      "midi": 60,
      "hit": false,
      "t": 121817.67084374958,
      "d": 78.80417708332243,
      "v": 54
    },
    {
      "midi": 65,
      "hit": false,
      "t": 121820.38822916624,
      "d": 67.93463541666279,
      "v": 55
    },
    {
      "midi": 60,
      "hit": false,
      "t": 122081.25722916624,
      "d": 62.49986458332569,
      "v": 56
    },
    {
      "midi": 65,
      "hit": false,
      "t": 122083.9746145829,
      "d": 48.91293750000477,
      "v": 52
    },
    {
      "midi": 72,
      "hit": false,
      "t": 122361.1479270829,
      "d": 1152.1714166666643,
      "v": 86
    },
    {
      "midi": 60,
      "hit": false,
      "t": 122602.99522916623,
      "d": 76.08679166666116,
      "v": 53
    },
    {
      "midi": 65,
      "hit": false,
      "t": 122605.7126145829,
      "d": 59.782479166664416,
      "v": 50
    },
    {
      "midi": 69,
      "hit": false,
      "t": 122605.7126145829,
      "d": 777.1722291666665,
      "v": 79
    },
    {
      "midi": 60,
      "hit": false,
      "t": 122869.29899999956,
      "d": 43.478166666653124,
      "v": 43
    },
    {
      "midi": 65,
      "hit": false,
      "t": 122872.01638541622,
      "d": 29.891239583332208,
      "v": 35
    },
    {
      "midi": 67,
      "hit": false,
      "t": 122872.01638541622,
      "d": 771.737458333344,
      "v": 74
    },
    {
      "midi": 60,
      "hit": false,
      "t": 123122.01584374956,
      "d": 70.65202083333861,
      "v": 56
    },
    {
      "midi": 81,
      "hit": false,
      "t": 123138.32015625,
      "d": 130.43450000000303,
      "v": 65
    },
    {
      "midi": 65,
      "hit": false,
      "t": 123141.03754166623,
      "d": 733.6940625000134,
      "v": 81
    },
    {
      "midi": 60,
      "hit": false,
      "t": 123382.88484374956,
      "d": 62.49986458334024,
      "v": 58
    },
    {
      "midi": 81,
      "hit": false,
      "t": 123907.34022916667,
      "d": 124.99972916666593,
      "v": 61
    },
    {
      "midi": 60,
      "hit": false,
      "t": 123910.05761458291,
      "d": 73.36940624999988,
      "v": 56
    },
    {
      "midi": 65,
      "hit": false,
      "t": 123912.77499999957,
      "d": 65.21725000000151,
      "v": 54
    },
    {
      "midi": 65,
      "hit": false,
      "t": 124176.36138541624,
      "d": 54.34770833332732,
      "v": 53
    },
    {
      "midi": 60,
      "hit": false,
      "t": 124176.36138541624,
      "d": 57.06509374998859,
      "v": 54
    },
    {
      "midi": 60,
      "hit": false,
      "t": 124689.94722916622,
      "d": 76.08679166666116,
      "v": 52
    },
    {
      "midi": 65,
      "hit": false,
      "t": 124692.66461458289,
      "d": 70.65202083333861,
      "v": 51
    },
    {
      "midi": 65,
      "hit": false,
      "t": 124953.53361458289,
      "d": 67.93463541666279,
      "v": 50
    },
    {
      "midi": 60,
      "hit": false,
      "t": 124953.53361458289,
      "d": 70.65202083332406,
      "v": 52
    },
    {
      "midi": 65,
      "hit": false,
      "t": 125214.40261458288,
      "d": 67.93463541666279,
      "v": 50
    },
    {
      "midi": 60,
      "hit": false,
      "t": 125214.40261458288,
      "d": 76.08679166666116,
      "v": 53
    },
    {
      "midi": 81,
      "hit": false,
      "t": 125217.12000000001,
      "d": 122.28234375000466,
      "v": 68
    },
    {
      "midi": 65,
      "hit": false,
      "t": 125475.27161458287,
      "d": 59.782479166664416,
      "v": 57
    },
    {
      "midi": 60,
      "hit": false,
      "t": 125475.27161458287,
      "d": 65.21725000000151,
      "v": 56
    },
    {
      "midi": 81,
      "hit": false,
      "t": 125991.57484375002,
      "d": 149.45619791666104,
      "v": 60
    },
    {
      "midi": 60,
      "hit": false,
      "t": 125997.00961458287,
      "d": 67.93463541666279,
      "v": 61
    },
    {
      "midi": 65,
      "hit": false,
      "t": 125999.72699999953,
      "d": 57.06509375000314,
      "v": 58
    },
    {
      "midi": 60,
      "hit": false,
      "t": 126260.59599999954,
      "d": 59.782479166664416,
      "v": 56
    },
    {
      "midi": 65,
      "hit": false,
      "t": 126263.3133854162,
      "d": 48.91293750000477,
      "v": 52
    },
    {
      "midi": 60,
      "hit": false,
      "t": 126779.61661458288,
      "d": 67.93463541666279,
      "v": 60
    },
    {
      "midi": 65,
      "hit": false,
      "t": 126782.33399999954,
      "d": 59.782479166664416,
      "v": 60
    },
    {
      "midi": 60,
      "hit": false,
      "t": 127037.7682291662,
      "d": 48.91293750000477,
      "v": 62
    },
    {
      "midi": 65,
      "hit": false,
      "t": 127037.7682291662,
      "d": 59.782479166664416,
      "v": 64
    },
    {
      "midi": 82,
      "hit": false,
      "t": 127287.7676875,
      "d": 100.54326041667082,
      "v": 77
    },
    {
      "midi": 62,
      "hit": false,
      "t": 127306.78938541621,
      "d": 65.21725000000151,
      "v": 56
    },
    {
      "midi": 70,
      "hit": false,
      "t": 127309.50677083287,
      "d": 21.739083333333838,
      "v": 51
    },
    {
      "midi": 70,
      "hit": false,
      "t": 127562.22361458288,
      "d": 67.93463541666279,
      "v": 66
    },
    {
      "midi": 62,
      "hit": false,
      "t": 127562.22361458288,
      "d": 78.80417708332243,
      "v": 65
    },
    {
      "midi": 82,
      "hit": false,
      "t": 128078.52684375,
      "d": 114.13018750000629,
      "v": 67
    },
    {
      "midi": 70,
      "hit": false,
      "t": 128089.3963854162,
      "d": 62.49986458334024,
      "v": 71
    },
    {
      "midi": 62,
      "hit": false,
      "t": 128089.3963854162,
      "d": 76.08679166667571,
      "v": 65
    },
    {
      "midi": 70,
      "hit": false,
      "t": 128347.54799999954,
      "d": 51.630322916666046,
      "v": 67
    },
    {
      "midi": 62,
      "hit": false,
      "t": 128347.54799999954,
      "d": 67.93463541666279,
      "v": 61
    },
    {
      "midi": 70,
      "hit": false,
      "t": 128861.13384374954,
      "d": 76.08679166666116,
      "v": 70
    },
    {
      "midi": 62,
      "hit": false,
      "t": 128863.8512291662,
      "d": 81.52156249999825,
      "v": 61
    },
    {
      "midi": 62,
      "hit": false,
      "t": 129124.7202291662,
      "d": 81.5215624999837,
      "v": 60
    },
    {
      "midi": 70,
      "hit": false,
      "t": 129127.43761458286,
      "d": 54.34770833332732,
      "v": 61
    },
    {
      "midi": 82,
      "hit": false,
      "t": 129382.87184375,
      "d": 103.26064583333209,
      "v": 64
    },
    {
      "midi": 62,
      "hit": false,
      "t": 129391.02399999951,
      "d": 73.36940624999988,
      "v": 60
    },
    {
      "midi": 70,
      "hit": false,
      "t": 129393.74138541617,
      "d": 40.7607812500064,
      "v": 59
    },
    {
      "midi": 70,
      "hit": false,
      "t": 129649.17561458284,
      "d": 59.782479166664416,
      "v": 68
    },
    {
      "midi": 62,
      "hit": false,
      "t": 129649.17561458284,
      "d": 78.80417708333698,
      "v": 63
    },
    {
      "midi": 82,
      "hit": false,
      "t": 130162.76145833333,
      "d": 92.39110416667245,
      "v": 63
    },
    {
      "midi": 70,
      "hit": false,
      "t": 130170.91361458284,
      "d": 65.21725000000151,
      "v": 67
    },
    {
      "midi": 62,
      "hit": false,
      "t": 130170.91361458284,
      "d": 81.52156249999825,
      "v": 62
    },
    {
      "midi": 70,
      "hit": false,
      "t": 130431.78261458283,
      "d": 54.34770833332732,
      "v": 66
    },
    {
      "midi": 62,
      "hit": false,
      "t": 130431.78261458283,
      "d": 78.80417708332243,
      "v": 61
    },
    {
      "midi": 70,
      "hit": false,
      "t": 130948.08584374949,
      "d": 62.49986458334024,
      "v": 67
    },
    {
      "midi": 62,
      "hit": false,
      "t": 130948.08584374949,
      "d": 78.80417708333698,
      "v": 65
    },
    {
      "midi": 62,
      "hit": false,
      "t": 131206.23745833282,
      "d": 84.23894791665953,
      "v": 59
    },
    {
      "midi": 70,
      "hit": false,
      "t": 131208.9548437495,
      "d": 57.06509374998859,
      "v": 56
    },
    {
      "midi": 70,
      "hit": false,
      "t": 131469.82384374947,
      "d": 46.195552083314396,
      "v": 72
    },
    {
      "midi": 82,
      "hit": false,
      "t": 131469.82384375,
      "d": 114.13018750000629,
      "v": 67
    },
    {
      "midi": 61,
      "hit": false,
      "t": 131475.2586145828,
      "d": 27.173854166670935,
      "v": 57
    },
    {
      "midi": 61,
      "hit": false,
      "t": 131730.69284374945,
      "d": 76.08679166666116,
      "v": 63
    },
    {
      "midi": 70,
      "hit": false,
      "t": 131733.41022916613,
      "d": 67.93463541666279,
      "v": 73
    },
    {
      "midi": 82,
      "hit": false,
      "t": 132246.99607291666,
      "d": 86.95633333333535,
      "v": 71
    },
    {
      "midi": 70,
      "hit": false,
      "t": 132255.1482291661,
      "d": 51.630322916666046,
      "v": 61
    },
    {
      "midi": 61,
      "hit": false,
      "t": 132255.1482291661,
      "d": 62.49986458334024,
      "v": 64
    },
    {
      "midi": 70,
      "hit": false,
      "t": 132518.7346145828,
      "d": 48.91293749999022,
      "v": 67
    },
    {
      "midi": 61,
      "hit": false,
      "t": 132518.7346145828,
      "d": 51.630322916666046,
      "v": 60
    },
    {
      "midi": 70,
      "hit": false,
      "t": 133035.03784374945,
      "d": 67.93463541669189,
      "v": 63
    },
    {
      "midi": 61,
      "hit": false,
      "t": 133037.75522916613,
      "d": 62.49986458334024,
      "v": 58
    },
    {
      "midi": 70,
      "hit": false,
      "t": 133298.62422916613,
      "d": 48.91293749999022,
      "v": 67
    },
    {
      "midi": 61,
      "hit": false,
      "t": 133298.62422916613,
      "d": 51.630322916666046,
      "v": 66
    },
    {
      "midi": 82,
      "hit": false,
      "t": 133543.18891666667,
      "d": 133.15188541667885,
      "v": 67
    },
    {
      "midi": 61,
      "hit": false,
      "t": 133562.2106145828,
      "d": 51.630322916666046,
      "v": 56
    },
    {
      "midi": 70,
      "hit": false,
      "t": 133562.2106145828,
      "d": 51.630322916666046,
      "v": 56
    },
    {
      "midi": 70,
      "hit": false,
      "t": 133820.36222916612,
      "d": 54.34770833334187,
      "v": 62
    },
    {
      "midi": 61,
      "hit": false,
      "t": 133820.36222916612,
      "d": 67.93463541666279,
      "v": 65
    },
    {
      "midi": 61,
      "hit": false,
      "t": 134342.1002291661,
      "d": 62.49986458334024,
      "v": 63
    },
    {
      "midi": 70,
      "hit": false,
      "t": 134344.81761458277,
      "d": 48.91293749999022,
      "v": 63
    },
    {
      "midi": 82,
      "hit": false,
      "t": 134347.535,
      "d": 116.84757291665301,
      "v": 65
    },
    {
      "midi": 70,
      "hit": false,
      "t": 134600.25184374943,
      "d": 62.49986458334024,
      "v": 58
    },
    {
      "midi": 61,
      "hit": false,
      "t": 134600.25184374943,
      "d": 65.21725000001607,
      "v": 56
    },
    {
      "midi": 61,
      "hit": false,
      "t": 135124.70722916612,
      "d": 62.49986458334024,
      "v": 66
    },
    {
      "midi": 70,
      "hit": false,
      "t": 135124.70722916612,
      "d": 65.21725000001607,
      "v": 68
    },
    {
      "midi": 70,
      "hit": false,
      "t": 135382.85884374948,
      "d": 51.630322916666046,
      "v": 64
    },
    {
      "midi": 61,
      "hit": false,
      "t": 135382.85884374948,
      "d": 59.782479166664416,
      "v": 58
    },
    {
      "midi": 60,
      "hit": false,
      "t": 135643.72784374948,
      "d": 105.97803124997881,
      "v": 55
    },
    {
      "midi": 65,
      "hit": false,
      "t": 135649.1626145828,
      "d": 84.23894791665953,
      "v": 65
    },
    {
      "midi": 81,
      "hit": false,
      "t": 135662.74954166665,
      "d": 108.69541666665464,
      "v": 65
    },
    {
      "midi": 65,
      "hit": false,
      "t": 135907.31422916614,
      "d": 97.82587500000955,
      "v": 68
    },
    {
      "midi": 60,
      "hit": false,
      "t": 135910.0316145828,
      "d": 78.80417708333698,
      "v": 59
    },
    {
      "midi": 65,
      "hit": false,
      "t": 136429.05222916615,
      "d": 73.36940625001444,
      "v": 68
    },
    {
      "midi": 60,
      "hit": false,
      "t": 136429.05222916615,
      "d": 78.80417708333698,
      "v": 59
    },
    {
      "midi": 81,
      "hit": false,
      "t": 136445.35654166664,
      "d": 114.13018750000629,
      "v": 58
    },
    {
      "midi": 65,
      "hit": false,
      "t": 136692.63861458283,
      "d": 62.49986458334024,
      "v": 69
    },
    {
      "midi": 60,
      "hit": false,
      "t": 136692.63861458283,
      "d": 67.93463541666279,
      "v": 60
    },
    {
      "midi": 60,
      "hit": false,
      "t": 137208.9418437495,
      "d": 86.95633333333535,
      "v": 56
    },
    {
      "midi": 65,
      "hit": false,
      "t": 137211.65922916617,
      "d": 70.65202083333861,
      "v": 62
    },
    {
      "midi": 65,
      "hit": false,
      "t": 137472.52822916617,
      "d": 78.80417708333698,
      "v": 62
    },
    {
      "midi": 60,
      "hit": false,
      "t": 137475.24561458285,
      "d": 76.08679166666116,
      "v": 49
    },
    {
      "midi": 65,
      "hit": false,
      "t": 137736.11461458285,
      "d": 67.93463541666279,
      "v": 66
    },
    {
      "midi": 60,
      "hit": false,
      "t": 137738.83199999953,
      "d": 65.21724999998696,
      "v": 51
    },
    {
      "midi": 81,
      "hit": false,
      "t": 137744.26677083332,
      "d": 114.13018750000629,
      "v": 57
    },
    {
      "midi": 65,
      "hit": false,
      "t": 137994.26622916618,
      "d": 70.65202083333861,
      "v": 69
    },
    {
      "midi": 60,
      "hit": false,
      "t": 137994.26622916618,
      "d": 73.36940625001444,
      "v": 56
    },
    {
      "midi": 65,
      "hit": false,
      "t": 138516.0042291662,
      "d": 62.49986458334024,
      "v": 70
    },
    {
      "midi": 60,
      "hit": false,
      "t": 138516.0042291662,
      "d": 67.93463541666279,
      "v": 59
    },
    {
      "midi": 81,
      "hit": false,
      "t": 138535.02592708333,
      "d": 122.28234375000466,
      "v": 58
    },
    {
      "midi": 65,
      "hit": false,
      "t": 138776.8732291662,
      "d": 73.36940625001444,
      "v": 65
    },
    {
      "midi": 60,
      "hit": false,
      "t": 138776.8732291662,
      "d": 78.80417708333698,
      "v": 52
    },
    {
      "midi": 65,
      "hit": false,
      "t": 139298.6112291662,
      "d": 76.08679166669026,
      "v": 68
    },
    {
      "midi": 60,
      "hit": false,
      "t": 139301.3286145829,
      "d": 73.36940625001444,
      "v": 58
    },
    {
      "midi": 65,
      "hit": false,
      "t": 139559.48022916625,
      "d": 65.21725000001607,
      "v": 66
    },
    {
      "midi": 60,
      "hit": false,
      "t": 139562.19761458292,
      "d": 62.49986458334024,
      "v": 57
    },
    {
      "midi": 67,
      "hit": false,
      "t": 139823.06661458293,
      "d": 103.2606458333612,
      "v": 65
    },
    {
      "midi": 62,
      "hit": false,
      "t": 139825.7839999996,
      "d": 89.67371875001118,
      "v": 66
    },
    {
      "midi": 79,
      "hit": false,
      "t": 139828.50138541666,
      "d": 149.4561979166756,
      "v": 63
    },
    {
      "midi": 62,
      "hit": false,
      "t": 140092.08777083296,
      "d": 81.5215625000128,
      "v": 70
    },
    {
      "midi": 67,
      "hit": false,
      "t": 140092.08777083296,
      "d": 84.23894791668863,
      "v": 70
    },
    {
      "midi": 79,
      "hit": false,
      "t": 140594.80407291668,
      "d": 114.13018750000629,
      "v": 54
    },
    {
      "midi": 62,
      "hit": false,
      "t": 140605.67361458298,
      "d": 84.23894791668863,
      "v": 74
    },
    {
      "midi": 67,
      "hit": false,
      "t": 140608.39099999965,
      "d": 81.5215625000128,
      "v": 68
    },
    {
      "midi": 67,
      "hit": false,
      "t": 140869.25999999966,
      "d": 73.36940625001444,
      "v": 72
    },
    {
      "midi": 62,
      "hit": false,
      "t": 140869.25999999966,
      "d": 81.5215625000128,
      "v": 73
    },
    {
      "midi": 67,
      "hit": false,
      "t": 141388.280614583,
      "d": 76.08679166666116,
      "v": 68
    },
    {
      "midi": 62,
      "hit": false,
      "t": 141388.280614583,
      "d": 78.80417708333698,
      "v": 74
    },
    {
      "midi": 79,
      "hit": false,
      "t": 141388.28061458335,
      "d": 127.7171145833272,
      "v": 56
    },
    {
      "midi": 62,
      "hit": false,
      "t": 141649.149614583,
      "d": 86.95633333333535,
      "v": 72
    },
    {
      "midi": 67,
      "hit": false,
      "t": 141649.149614583,
      "d": 89.67371875001118,
      "v": 72
    },
    {
      "midi": 81,
      "hit": false,
      "t": 141893.71430208333,
      "d": 163.0431249999965,
      "v": 63
    },
    {
      "midi": 60,
      "hit": false,
      "t": 141915.45338541636,
      "d": 73.36940625001444,
      "v": 68
    },
    {
      "midi": 67,
      "hit": false,
      "t": 141915.45338541636,
      "d": 76.08679166669026,
      "v": 57
    },
    {
      "midi": 67,
      "hit": false,
      "t": 142173.60499999972,
      "d": 65.21724999998696,
      "v": 57
    },
    {
      "midi": 60,
      "hit": false,
      "t": 142173.60499999972,
      "d": 70.6520208333095,
      "v": 66
    },
    {
      "midi": 60,
      "hit": false,
      "t": 142695.3429999997,
      "d": 78.80417708336608,
      "v": 73
    },
    {
      "midi": 67,
      "hit": false,
      "t": 142698.06038541638,
      "d": 73.36940625001444,
      "v": 65
    },
    {
      "midi": 81,
      "hit": false,
      "t": 142698.06038541667,
      "d": 86.95633333333535,
      "v": 60
    },
    {
      "midi": 60,
      "hit": false,
      "t": 142956.21199999974,
      "d": 73.36940625001444,
      "v": 73
    },
    {
      "midi": 67,
      "hit": false,
      "t": 142958.9293854164,
      "d": 62.49986458334024,
      "v": 66
    },
    {
      "midi": 60,
      "hit": false,
      "t": 143475.23261458307,
      "d": 78.80417708333698,
      "v": 72
    },
    {
      "midi": 67,
      "hit": false,
      "t": 143477.94999999975,
      "d": 65.21724999998696,
      "v": 66
    },
    {
      "midi": 81,
      "hit": false,
      "t": 143505.12385416668,
      "d": 89.67371875001118,
      "v": 56
    },
    {
      "midi": 60,
      "hit": false,
      "t": 143736.10161458308,
      "d": 81.5215625000128,
      "v": 64
    },
    {
      "midi": 67,
      "hit": false,
      "t": 143736.10161458308,
      "d": 84.23894791668863,
      "v": 56
    },
    {
      "midi": 81,
      "hit": false,
      "t": 143988.81845833335,
      "d": 179.34743749999325,
      "v": 56
    },
    {
      "midi": 60,
      "hit": false,
      "t": 143996.97061458312,
      "d": 86.95633333333535,
      "v": 70
    },
    {
      "midi": 65,
      "hit": false,
      "t": 144002.40538541644,
      "d": 62.49986458334024,
      "v": 68
    },
    {
      "midi": 65,
      "hit": false,
      "t": 144257.83961458312,
      "d": 76.08679166666116,
      "v": 68
    },
    {
      "midi": 60,
      "hit": false,
      "t": 144257.83961458312,
      "d": 78.80417708333698,
      "v": 67
    },
    {
      "midi": 77,
      "hit": false,
      "t": 144268.70915625,
      "d": 114.13018750000629,
      "v": 50
    },
    {
      "midi": 81,
      "hit": false,
      "t": 144765.99068750002,
      "d": 95.10848958333372,
      "v": 54
    },
    {
      "midi": 60,
      "hit": false,
      "t": 144779.57761458313,
      "d": 78.80417708333698,
      "v": 65
    },
    {
      "midi": 65,
      "hit": false,
      "t": 144782.2949999998,
      "d": 70.65202083333861,
      "v": 60
    },
    {
      "midi": 60,
      "hit": false,
      "t": 145040.44661458314,
      "d": 73.36940624998533,
      "v": 68
    },
    {
      "midi": 65,
      "hit": false,
      "t": 145043.16399999982,
      "d": 65.21724999998696,
      "v": 66
    },
    {
      "midi": 77,
      "hit": false,
      "t": 145054.0335416667,
      "d": 95.10848958333372,
      "v": 50
    },
    {
      "midi": 60,
      "hit": false,
      "t": 145556.7498437498,
      "d": 84.23894791668863,
      "v": 65
    },
    {
      "midi": 65,
      "hit": false,
      "t": 145559.46722916648,
      "d": 73.36940625001444,
      "v": 62
    },
    {
      "midi": 81,
      "hit": false,
      "t": 145562.18461458336,
      "d": 127.7171145833272,
      "v": 49
    },
    {
      "midi": 60,
      "hit": false,
      "t": 145820.33622916648,
      "d": 73.36940625001444,
      "v": 60
    },
    {
      "midi": 65,
      "hit": false,
      "t": 145823.05361458316,
      "d": 59.782479166664416,
      "v": 54
    },
    {
      "midi": 77,
      "hit": false,
      "t": 145828.48838541668,
      "d": 92.3911041666579,
      "v": 53
    },
    {
      "midi": 60,
      "hit": false,
      "t": 146081.2052291665,
      "d": 76.08679166669026,
      "v": 61
    },
    {
      "midi": 65,
      "hit": false,
      "t": 146083.92261458316,
      "d": 62.49986458334024,
      "v": 57
    },
    {
      "midi": 81,
      "hit": false,
      "t": 146086.64,
      "d": 182.06482291666907,
      "v": 51
    },
    {
      "midi": 60,
      "hit": false,
      "t": 146339.35684374985,
      "d": 73.36940625001444,
      "v": 66
    },
    {
      "midi": 65,
      "hit": false,
      "t": 146342.07422916652,
      "d": 62.49986458334024,
      "v": 62
    },
    {
      "midi": 60,
      "hit": false,
      "t": 146861.09484374986,
      "d": 81.5215625000128,
      "v": 64
    },
    {
      "midi": 81,
      "hit": false,
      "t": 146861.09484375,
      "d": 203.80390624998836,
      "v": 55
    },
    {
      "midi": 65,
      "hit": false,
      "t": 146863.81222916653,
      "d": 73.36940625001444,
      "v": 60
    },
    {
      "midi": 60,
      "hit": false,
      "t": 147124.68122916654,
      "d": 78.80417708336608,
      "v": 62
    },
    {
      "midi": 65,
      "hit": false,
      "t": 147127.39861458322,
      "d": 73.36940625001444,
      "v": 57
    },
    {
      "midi": 77,
      "hit": false,
      "t": 147140.98554166665,
      "d": 111.41280208333046,
      "v": 43
    },
    {
      "midi": 65,
      "hit": false,
      "t": 147649.13661458323,
      "d": 65.21724999998696,
      "v": 61
    },
    {
      "midi": 60,
      "hit": false,
      "t": 147649.13661458323,
      "d": 70.6520208333095,
      "v": 64
    },
    {
      "midi": 81,
      "hit": false,
      "t": 147657.28877083331,
      "d": 127.7171145833272,
      "v": 47
    },
    {
      "midi": 65,
      "hit": false,
      "t": 147907.28822916653,
      "d": 76.08679166666116,
      "v": 60
    },
    {
      "midi": 60,
      "hit": false,
      "t": 147907.28822916653,
      "d": 81.5215624999837,
      "v": 61
    },
    {
      "midi": 77,
      "hit": false,
      "t": 147912.72299999997,
      "d": 92.3911041666579,
      "v": 33
    },
    {
      "midi": 84,
      "hit": false,
      "t": 148173.59199999998,
      "d": 157.60835416667396,
      "v": 78
    },
    {
      "midi": 84,
      "hit": false,
      "t": 148429.02622916666,
      "d": 345.1079479166656,
      "v": 76
    },
    {
      "midi": 83,
      "hit": false,
      "t": 148953.48161458332,
      "d": 192.93436458334327,
      "v": 71
    },
    {
      "midi": 81,
      "hit": false,
      "t": 149211.63322916665,
      "d": 399.45565625000745,
      "v": 76
    },
    {
      "midi": 79,
      "hit": false,
      "t": 149746.95815624998,
      "d": 489.1293749999895,
      "v": 70
    },
    {
      "midi": 88,
      "hit": false,
      "t": 150521.41299999997,
      "d": 195.65174999999,
      "v": 83
    },
    {
      "midi": 89,
      "hit": false,
      "t": 150779.5646145833,
      "d": 184.7822083333449,
      "v": 80
    },
    {
      "midi": 91,
      "hit": false,
      "t": 151034.99884374999,
      "d": 195.65174999999,
      "v": 78
    },
    {
      "midi": 89,
      "hit": false,
      "t": 151293.15045833332,
      "d": 448.3685937499977,
      "v": 81
    },
    {
      "midi": 88,
      "hit": false,
      "t": 151820.32322916665,
      "d": 489.1293749999895,
      "v": 91
    },
    {
      "midi": 89,
      "hit": false,
      "t": 152344.7786145833,
      "d": 521.7380000000121,
      "v": 84
    },
    {
      "midi": 77,
      "hit": false,
      "t": 158434.43933333317,
      "d": 133.15188541667885,
      "v": 76
    },
    {
      "midi": 74,
      "hit": false,
      "t": 158513.2435104165,
      "d": 399.45565625003655,
      "v": 86
    },
    {
      "midi": 70,
      "hit": false,
      "t": 158581.17814583317,
      "d": 399.45565625003655,
      "v": 67
    },
    {
      "midi": 65,
      "hit": false,
      "t": 158651.8301666665,
      "d": 383.1513437500398,
      "v": 58
    },
    {
      "midi": 77,
      "hit": false,
      "t": 158681.72140624985,
      "d": 317.93409375002375,
      "v": 49
    },
    {
      "midi": 76,
      "hit": false,
      "t": 158901.82962499987,
      "d": 258.15161458335933,
      "v": 81
    },
    {
      "midi": 77,
      "hit": false,
      "t": 159162.6986249999,
      "d": 241.8473020833335,
      "v": 86
    },
    {
      "midi": 79,
      "hit": false,
      "t": 159420.85023958323,
      "d": 244.5646875000093,
      "v": 83
    },
    {
      "midi": 70,
      "hit": false,
      "t": 159679.00185416656,
      "d": 195.65174999999,
      "v": 51
    },
    {
      "midi": 77,
      "hit": false,
      "t": 159681.71923958324,
      "d": 13.586927083320916,
      "v": 73
    },
    {
      "midi": 67,
      "hit": false,
      "t": 159687.15401041656,
      "d": 187.49959374999162,
      "v": 55
    },
    {
      "midi": 74,
      "hit": false,
      "t": 159689.87139583324,
      "d": 184.7822083333158,
      "v": 73
    },
    {
      "midi": 77,
      "hit": false,
      "t": 159698.02355208324,
      "d": 8.15215624999837,
      "v": 48
    },
    {
      "midi": 76,
      "hit": false,
      "t": 160211.60939583322,
      "d": 445.65120833332185,
      "v": 73
    },
    {
      "midi": 77,
      "hit": false,
      "t": 160695.30399999986,
      "d": 347.8253333333123,
      "v": 73
    },
    {
      "midi": 72,
      "hit": false,
      "t": 160695.30399999986,
      "d": 350.5427187499881,
      "v": 75
    },
    {
      "midi": 69,
      "hit": false,
      "t": 160700.73877083318,
      "d": 355.9774895833398,
      "v": 65
    },
    {
      "midi": 77,
      "hit": false,
      "t": 161461.60668749985,
      "d": 184.7822083333449,
      "v": 68
    },
    {
      "midi": 72,
      "hit": false,
      "t": 161464.32407291653,
      "d": 195.65174999999,
      "v": 73
    },
    {
      "midi": 69,
      "hit": false,
      "t": 161469.75884374985,
      "d": 198.3691354166658,
      "v": 66
    },
    {
      "midi": 77,
      "hit": false,
      "t": 162771.38645833317,
      "d": 266.3037708333286,
      "v": 68
    },
    {
      "midi": 72,
      "hit": false,
      "t": 162771.38645833317,
      "d": 274.45592708332697,
      "v": 70
    },
    {
      "midi": 69,
      "hit": false,
      "t": 162779.53861458317,
      "d": 271.73854166665114,
      "v": 63
    },
    {
      "midi": 77,
      "hit": false,
      "t": 163553.99345833316,
      "d": 714.6723645833554,
      "v": 61
    },
    {
      "midi": 72,
      "hit": false,
      "t": 163564.86299999984,
      "d": 717.3897500000021,
      "v": 68
    },
    {
      "midi": 69,
      "hit": false,
      "t": 163564.86299999984,
      "d": 755.4331458333472,
      "v": 60
    },
    {
      "midi": 76,
      "hit": false,
      "t": 164613.77377083318,
      "d": 676.6289687500102,
      "v": 77
    },
    {
      "midi": 72,
      "hit": false,
      "t": 164687.1431770832,
      "d": 614.12910416667,
      "v": 78
    },
    {
      "midi": 69,
      "hit": false,
      "t": 164741.49088541654,
      "d": 567.9335520833265,
      "v": 60
    },
    {
      "midi": 65,
      "hit": false,
      "t": 164790.40382291653,
      "d": 622.2812604166684,
      "v": 71
    },
    {
      "midi": 76,
      "hit": false,
      "t": 165654.53238541653,
      "d": 907.6067291666695,
      "v": 62
    },
    {
      "midi": 72,
      "hit": false,
      "t": 165654.53238541653,
      "d": 929.3458124999888,
      "v": 68
    },
    {
      "midi": 69,
      "hit": false,
      "t": 165654.53238541653,
      "d": 951.0848958333081,
      "v": 57
    },
    {
      "midi": 72,
      "hit": false,
      "t": 166950.7252291665,
      "d": 548.911854166683,
      "v": 70
    },
    {
      "midi": 76,
      "hit": false,
      "t": 166950.7252291665,
      "d": 592.3900208333507,
      "v": 69
    },
    {
      "midi": 69,
      "hit": false,
      "t": 166953.44261458318,
      "d": 562.498781250004,
      "v": 63
    },
    {
      "midi": 76,
      "hit": false,
      "t": 167741.48438541652,
      "d": 78.80417708333698,
      "v": 70
    },
    {
      "midi": 72,
      "hit": false,
      "t": 167741.48438541652,
      "d": 86.95633333333535,
      "v": 73
    },
    {
      "midi": 69,
      "hit": false,
      "t": 167752.3539270832,
      "d": 84.23894791665953,
      "v": 58
    },
    {
      "midi": 74,
      "hit": false,
      "t": 168806.69946874984,
      "d": 722.8245208333537,
      "v": 67
    },
    {
      "midi": 69,
      "hit": false,
      "t": 168896.37318749985,
      "d": 616.8464895833458,
      "v": 71
    },
    {
      "midi": 65,
      "hit": false,
      "t": 168950.7208958332,
      "d": 576.0857083333249,
      "v": 68
    },
    {
      "midi": 62,
      "hit": false,
      "t": 169032.2424583332,
      "d": 527.1727708333347,
      "v": 60
    },
    {
      "midi": 74,
      "hit": false,
      "t": 169809.41468749987,
      "d": 657.6072708333668,
      "v": 70
    },
    {
      "midi": 69,
      "hit": false,
      "t": 169820.28422916654,
      "d": 611.4117187500233,
      "v": 75
    },
    {
      "midi": 65,
      "hit": false,
      "t": 169823.00161458322,
      "d": 611.4117187500233,
      "v": 66
    },
    {
      "midi": 72,
      "hit": false,
      "t": 171130.0639999999,
      "d": 323.3688645833463,
      "v": 68
    },
    {
      "midi": 69,
      "hit": false,
      "t": 171132.78138541657,
      "d": 296.19501041667536,
      "v": 70
    },
    {
      "midi": 65,
      "hit": false,
      "t": 171143.65092708325,
      "d": 285.32546875000116,
      "v": 59
    },
    {
      "midi": 74,
      "hit": false,
      "t": 171918.10577083327,
      "d": 899.4545729166712,
      "v": 77
    },
    {
      "midi": 71,
      "hit": false,
      "t": 171991.47517708328,
      "d": 850.5416354166518,
      "v": 78
    },
    {
      "midi": 65,
      "hit": false,
      "t": 172045.8228854166,
      "d": 760.8679166666698,
      "v": 60
    },
    {
      "midi": 62,
      "hit": false,
      "t": 172094.73582291658,
      "d": 785.324385416694,
      "v": 71
    },
    {
      "midi": 74,
      "hit": false,
      "t": 172950.71222916662,
      "d": 1089.6715520833386,
      "v": 70
    },
    {
      "midi": 70,
      "hit": false,
      "t": 173051.25548958327,
      "d": 989.1282916666823,
      "v": 73
    },
    {
      "midi": 67,
      "hit": false,
      "t": 173127.34228124993,
      "d": 921.1936562500196,
      "v": 65
    },
    {
      "midi": 62,
      "hit": false,
      "t": 173208.86384374995,
      "d": 853.2590208333277,
      "v": 60
    },
    {
      "midi": 75,
      "hit": false,
      "t": 174260.49199999994,
      "d": 423.91212500000256,
      "v": 93
    },
    {
      "midi": 70,
      "hit": false,
      "t": 174260.49199999994,
      "d": 440.2164374999993,
      "v": 67
    },
    {
      "midi": 67,
      "hit": false,
      "t": 174271.3615416666,
      "d": 440.2164374999993,
      "v": 63
    },
    {
      "midi": 70,
      "hit": false,
      "t": 174790.38215624995,
      "d": 423.91212500000256,
      "v": 74
    },
    {
      "midi": 76,
      "hit": false,
      "t": 174798.53431249995,
      "d": 385.86872916665743,
      "v": 73
    },
    {
      "midi": 67,
      "hit": false,
      "t": 174798.53431249995,
      "d": 434.78166666667676,
      "v": 65
    },
    {
      "midi": 70,
      "hit": false,
      "t": 175301.2506145833,
      "d": 453.8033645833202,
      "v": 67
    },
    {
      "midi": 67,
      "hit": false,
      "t": 175312.12015624996,
      "d": 426.6295104166493,
      "v": 55
    },
    {
      "midi": 77,
      "hit": false,
      "t": 175317.55492708329,
      "d": 380.4339583333349,
      "v": 90
    },
    {
      "midi": 70,
      "hit": false,
      "t": 175836.57554166662,
      "d": 404.89042708333,
      "v": 53
    },
    {
      "midi": 76,
      "hit": false,
      "t": 175839.2929270833,
      "d": 388.58611458333326,
      "v": 68
    },
    {
      "midi": 67,
      "hit": false,
      "t": 175852.87985416662,
      "d": 383.1513437500107,
      "v": 57
    },
    {
      "midi": 70,
      "hit": false,
      "t": 176339.29184374996,
      "d": 415.7599687499751,
      "v": 74
    },
    {
      "midi": 75,
      "hit": false,
      "t": 176347.44399999996,
      "d": 394.0208854166558,
      "v": 73
    },
    {
      "midi": 67,
      "hit": false,
      "t": 176363.74831249996,
      "d": 413.04258333329926,
      "v": 58
    },
    {
      "midi": 70,
      "hit": false,
      "t": 176850.16030208327,
      "d": 404.8904270833009,
      "v": 67
    },
    {
      "midi": 67,
      "hit": false,
      "t": 176855.5950729166,
      "d": 404.8904270833009,
      "v": 56
    },
    {
      "midi": 74,
      "hit": false,
      "t": 176861.02984374992,
      "d": 404.8904270833009,
      "v": 83
    },
    {
      "midi": 79,
      "hit": false,
      "t": 177388.20261458322,
      "d": 548.9118541666539,
      "v": 68
    },
    {
      "midi": 74,
      "hit": false,
      "t": 177393.63738541654,
      "d": 554.3466250000056,
      "v": 80
    },
    {
      "midi": 70,
      "hit": false,
      "t": 177393.63738541654,
      "d": 559.7813958333281,
      "v": 61
    },
    {
      "midi": 79,
      "hit": false,
      "t": 179475.15461458318,
      "d": 432.06428125000093,
      "v": 70
    },
    {
      "midi": 74,
      "hit": false,
      "t": 179480.5893854165,
      "d": 440.2164374999993,
      "v": 76
    },
    {
      "midi": 70,
      "hit": false,
      "t": 179488.7415416665,
      "d": 434.78166666667676,
      "v": 54
    },
    {
      "midi": 79,
      "hit": false,
      "t": 180246.89207291653,
      "d": 274.45592708332697,
      "v": 73
    },
    {
      "midi": 70,
      "hit": false,
      "t": 180252.32684374985,
      "d": 366.84703124998487,
      "v": 54
    },
    {
      "midi": 74,
      "hit": false,
      "t": 180260.47899999985,
      "d": 353.26010416666395,
      "v": 78
    },
    {
      "midi": 79,
      "hit": false,
      "t": 180801.2386979165,
      "d": 220.1082187500142,
      "v": 85
    },
    {
      "midi": 70,
      "hit": false,
      "t": 181040.3686145832,
      "d": 233.69514583333512,
      "v": 79
    },
    {
      "midi": 74,
      "hit": false,
      "t": 181306.67238541655,
      "d": 146.73881249999977,
      "v": 75
    },
    {
      "midi": 70,
      "hit": false,
      "t": 181518.62844791653,
      "d": 611.4117187499942,
      "v": 85
    },
    {
      "midi": 74,
      "hit": false,
      "t": 181594.71523958322,
      "d": 432.0642812499718,
      "v": 88
    },
    {
      "midi": 77,
      "hit": false,
      "t": 181651.7803333332,
      "d": 350.5427187499881,
      "v": 95
    },
    {
      "midi": 74,
      "hit": false,
      "t": 182339.27884374987,
      "d": 497.2815312499879,
      "v": 72
    },
    {
      "midi": 70,
      "hit": false,
      "t": 182347.43099999987,
      "d": 513.5858437499846,
      "v": 56
    },
    {
      "midi": 77,
      "hit": false,
      "t": 182350.14838541654,
      "d": 480.97721874999115,
      "v": 68
    },
    {
      "midi": 74,
      "hit": false,
      "t": 183654.4933854165,
      "d": 464.6729062499944,
      "v": 65
    },
    {
      "midi": 70,
      "hit": false,
      "t": 183662.6455416665,
      "d": 456.52074999999604,
      "v": 52
    },
    {
      "midi": 77,
      "hit": false,
      "t": 183662.6455416665,
      "d": 459.23813541667187,
      "v": 70
    },
    {
      "midi": 74,
      "hit": false,
      "t": 184426.23084374986,
      "d": 315.2167083333188,
      "v": 66
    },
    {
      "midi": 70,
      "hit": false,
      "t": 184431.66561458318,
      "d": 312.4993229166721,
      "v": 51
    },
    {
      "midi": 77,
      "hit": false,
      "t": 184439.81777083318,
      "d": 263.5863854166528,
      "v": 68
    },
    {
      "midi": 79,
      "hit": false,
      "t": 184950.68622916652,
      "d": 217.39083333333838,
      "v": 80
    },
    {
      "midi": 70,
      "hit": false,
      "t": 185206.1204583332,
      "d": 298.9123958333512,
      "v": 67
    },
    {
      "midi": 74,
      "hit": false,
      "t": 185458.8373020832,
      "d": 111.41280208333046,
      "v": 65
    },
    {
      "midi": 70,
      "hit": false,
      "t": 185649.05428124988,
      "d": 747.2809895832906,
      "v": 67
    },
    {
      "midi": 72,
      "hit": false,
      "t": 185689.81506249987,
      "d": 717.389749999973,
      "v": 67
    },
    {
      "midi": 76,
      "hit": false,
      "t": 185755.03231249985,
      "d": 600.54217708332,
      "v": 88
    },
    {
      "midi": 70,
      "hit": false,
      "t": 186757.74753124986,
      "d": 877.7154895833228,
      "v": 71
    },
    {
      "midi": 72,
      "hit": false,
      "t": 186801.22569791652,
      "d": 611.4117187499942,
      "v": 88
    },
    {
      "midi": 77,
      "hit": false,
      "t": 186828.3995520832,
      "d": 660.3246562499844,
      "v": 85
    },
    {
      "midi": 70,
      "hit": false,
      "t": 187725.1367395832,
      "d": 790.7591562500165,
      "v": 82
    },
    {
      "midi": 72,
      "hit": false,
      "t": 187795.78876041653,
      "d": 725.5419062500005,
      "v": 58
    },
    {
      "midi": 76,
      "hit": false,
      "t": 187831.1147708332,
      "d": 839.6720937500068,
      "v": 73
    },
    {
      "midi": 67,
      "hit": false,
      "t": 188871.87338541652,
      "d": 929.3458125000179,
      "v": 65
    },
    {
      "midi": 72,
      "hit": false,
      "t": 188871.87338541652,
      "d": 975.5413645833323,
      "v": 80
    },
    {
      "midi": 76,
      "hit": false,
      "t": 188890.8950833332,
      "d": 951.0848958333372,
      "v": 70
    },
    {
      "midi": 77,
      "hit": false,
      "t": 189928.93631249986,
      "d": 874.9981041666761,
      "v": 79
    },
    {
      "midi": 72,
      "hit": false,
      "t": 189934.3710833332,
      "d": 907.6067291666986,
      "v": 80
    },
    {
      "midi": 69,
      "hit": false,
      "t": 189937.08846874986,
      "d": 896.7371875000244,
      "v": 67
    },
    {
      "midi": 72,
      "hit": false,
      "t": 190956.1079999999,
      "d": 442.9338229166751,
      "v": 91
    },
    {
      "midi": 69,
      "hit": false,
      "t": 190961.5427708332,
      "d": 423.91212500000256,
      "v": 80
    },
    {
      "midi": 76,
      "hit": false,
      "t": 190961.5427708332,
      "d": 434.78166666667676,
      "v": 88
    },
    {
      "midi": 77,
      "hit": false,
      "t": 191483.28077083323,
      "d": 402.1730416666833,
      "v": 78
    },
    {
      "midi": 72,
      "hit": false,
      "t": 191483.28077083323,
      "d": 440.2164375000284,
      "v": 83
    },
    {
      "midi": 69,
      "hit": false,
      "t": 191494.1503124999,
      "d": 418.47735416668,
      "v": 73
    },
    {
      "midi": 72,
      "hit": false,
      "t": 192013.17092708327,
      "d": 415.7599687499751,
      "v": 81
    },
    {
      "midi": 69,
      "hit": false,
      "t": 192021.32308333326,
      "d": 388.58611458330415,
      "v": 69
    },
    {
      "midi": 79,
      "hit": false,
      "t": 192026.7578541666,
      "d": 369.5644166666607,
      "v": 97
    },
    {
      "midi": 72,
      "hit": false,
      "t": 192505.0176874999,
      "d": 410.32519791668165,
      "v": 87
    },
    {
      "midi": 69,
      "hit": false,
      "t": 192513.1698437499,
      "d": 380.433958333364,
      "v": 70
    },
    {
      "midi": 77,
      "hit": false,
      "t": 192515.88722916658,
      "d": 366.84703125001397,
      "v": 95
    },
    {
      "midi": 72,
      "hit": false,
      "t": 193032.19045833324,
      "d": 448.3685937499977,
      "v": 83
    },
    {
      "midi": 69,
      "hit": false,
      "t": 193040.34261458323,
      "d": 423.91212500000256,
      "v": 83
    },
    {
      "midi": 76,
      "hit": false,
      "t": 193040.34261458323,
      "d": 423.91212500000256,
      "v": 90
    },
    {
      "midi": 72,
      "hit": false,
      "t": 193559.36322916657,
      "d": 364.12964583330904,
      "v": 87
    },
    {
      "midi": 69,
      "hit": false,
      "t": 193564.7979999999,
      "d": 350.5427187499881,
      "v": 70
    },
    {
      "midi": 77,
      "hit": false,
      "t": 193564.7979999999,
      "d": 366.84703124998487,
      "v": 85
    },
    {
      "midi": 72,
      "hit": false,
      "t": 194045.77521874986,
      "d": 673.9115833333053,
      "v": 60
    },
    {
      "midi": 75,
      "hit": false,
      "t": 194067.51430208317,
      "d": 646.7377291666635,
      "v": 75
    },
    {
      "midi": 81,
      "hit": false,
      "t": 194102.84031249984,
      "d": 608.6943333333184,
      "v": 79
    },
    {
      "midi": 75,
      "hit": false,
      "t": 194858.27345833316,
      "d": 1182.0626562499965,
      "v": 72
    },
    {
      "midi": 81,
      "hit": false,
      "t": 194860.99084374984,
      "d": 1100.5410937499837,
      "v": 76
    },
    {
      "midi": 72,
      "hit": false,
      "t": 194866.42561458316,
      "d": 1182.0626562499965,
      "v": 66
    },
    {
      "midi": 75,
      "hit": false,
      "t": 196200.66185416648,
      "d": 858.6937916666502,
      "v": 58
    },
    {
      "midi": 79,
      "hit": false,
      "t": 196206.0966249998,
      "d": 855.9764062500035,
      "v": 68
    },
    {
      "midi": 72,
      "hit": false,
      "t": 196206.0966249998,
      "d": 864.1285625000019,
      "v": 50
    },
    {
      "midi": 75,
      "hit": false,
      "t": 197203.37707291648,
      "d": 763.5853020833165,
      "v": 63
    },
    {
      "midi": 79,
      "hit": false,
      "t": 197211.52922916648,
      "d": 763.5853020833165,
      "v": 68
    },
    {
      "midi": 72,
      "hit": false,
      "t": 197216.9639999998,
      "d": 752.7157604166714,
      "v": 51
    },
    {
      "midi": 74,
      "hit": false,
      "t": 198222.39660416645,
      "d": 1024.4543020833225,
      "v": 74
    },
    {
      "midi": 72,
      "hit": false,
      "t": 198227.83137499978,
      "d": 1010.8673750000016,
      "v": 66
    },
    {
      "midi": 78,
      "hit": false,
      "t": 198227.83137499978,
      "d": 1010.8673750000016,
      "v": 62
    },
    {
      "midi": 78,
      "hit": false,
      "t": 201409.88969791643,
      "d": 804.3460833333666,
      "v": 71
    },
    {
      "midi": 74,
      "hit": false,
      "t": 201409.88969791643,
      "d": 807.0634687500424,
      "v": 80
    },
    {
      "midi": 69,
      "hit": false,
      "t": 201420.7592395831,
      "d": 790.7591562500165,
      "v": 66
    },
    {
      "midi": 70,
      "hit": false,
      "t": 202423.47445833316,
      "d": 1616.8443229166733,
      "v": 57
    },
    {
      "midi": 74,
      "hit": false,
      "t": 202445.21354166648,
      "d": 1565.2140000000072,
      "v": 75
    },
    {
      "midi": 79,
      "hit": false,
      "t": 202453.36569791648,
      "d": 1592.3878541666782,
      "v": 75
    },
    {
      "midi": 70,
      "hit": false,
      "t": 204456.07874999984,
      "d": 1660.3224895833118,
      "v": 61
    },
    {
      "midi": 73,
      "hit": false,
      "t": 204499.5569166665,
      "d": 1608.6921666666458,
      "v": 64
    },
    {
      "midi": 77,
      "hit": false,
      "t": 204562.05678124982,
      "d": 1538.0401458333363,
      "v": 74
    },
    {
      "midi": 69,
      "hit": false,
      "t": 206583.79153124982,
      "d": 790.7591562499874,
      "v": 66
    },
    {
      "midi": 72,
      "hit": false,
      "t": 206594.6610729165,
      "d": 758.150531249994,
      "v": 70
    },
    {
      "midi": 65,
      "hit": false,
      "t": 206602.8132291665,
      "d": 826.0851666666567,
      "v": 54
    },
    {
      "midi": 65,
      "hit": false,
      "t": 207657.15877083316,
      "d": 701.0854374999763,
      "v": 60
    },
    {
      "midi": 62,
      "hit": false,
      "t": 207662.5935416665,
      "d": 701.0854374999763,
      "v": 62
    },
    {
      "midi": 69,
      "hit": false,
      "t": 207665.31092708316,
      "d": 679.346354166657,
      "v": 59
    },
    {
      "midi": 67,
      "hit": false,
      "t": 208687.04784374978,
      "d": 820.6503958333342,
      "v": 67
    },
    {
      "midi": 70,
      "hit": false,
      "t": 208697.91738541645,
      "d": 790.7591562499874,
      "v": 65
    },
    {
      "midi": 62,
      "hit": false,
      "t": 208697.91738541645,
      "d": 866.8459479166486,
      "v": 61
    },
    {
      "midi": 64,
      "hit": false,
      "t": 209754.98031249977,
      "d": 1019.0195312499709,
      "v": 55
    },
    {
      "midi": 67,
      "hit": false,
      "t": 209760.4150833331,
      "d": 1013.5847604166484,
      "v": 55
    },
    {
      "midi": 60,
      "hit": false,
      "t": 209765.84985416642,
      "d": 1008.1499895833258,
      "v": 47
    },
    {
      "midi": 79,
      "hit": false,
      "t": 211825.62799999974,
      "d": 347.8253333333123,
      "v": 73
    },
    {
      "midi": 74,
      "hit": false,
      "t": 211825.62799999974,
      "d": 350.5427187499881,
      "v": 75
    },
    {
      "midi": 71,
      "hit": false,
      "t": 211831.06277083306,
      "d": 355.9774895833398,
      "v": 65
    },
    {
      "midi": 79,
      "hit": false,
      "t": 212591.93068749973,
      "d": 184.7822083333449,
      "v": 68
    },
    {
      "midi": 74,
      "hit": false,
      "t": 212594.6480729164,
      "d": 195.65174999999,
      "v": 73
    },
    {
      "midi": 71,
      "hit": false,
      "t": 212600.08284374973,
      "d": 198.3691354166658,
      "v": 66
    },
    {
      "midi": 79,
      "hit": false,
      "t": 213901.71045833305,
      "d": 266.3037708333286,
      "v": 68
    },
    {
      "midi": 74,
      "hit": false,
      "t": 213901.71045833305,
      "d": 274.45592708332697,
      "v": 70
    },
    {
      "midi": 71,
      "hit": false,
      "t": 213909.86261458305,
      "d": 271.73854166665114,
      "v": 63
    },
    {
      "midi": 79,
      "hit": false,
      "t": 214684.31745833304,
      "d": 714.6723645833554,
      "v": 61
    },
    {
      "midi": 74,
      "hit": false,
      "t": 214695.1869999997,
      "d": 717.3897500000021,
      "v": 68
    },
    {
      "midi": 71,
      "hit": false,
      "t": 214695.1869999997,
      "d": 755.4331458333472,
      "v": 60
    },
    {
      "midi": 78,
      "hit": false,
      "t": 215744.09777083306,
      "d": 676.6289687500102,
      "v": 77
    },
    {
      "midi": 74,
      "hit": false,
      "t": 215817.46717708308,
      "d": 614.12910416667,
      "v": 78
    },
    {
      "midi": 71,
      "hit": false,
      "t": 215871.81488541642,
      "d": 567.9335520833265,
      "v": 60
    },
    {
      "midi": 67,
      "hit": false,
      "t": 215920.7278229164,
      "d": 622.2812604166684,
      "v": 71
    },
    {
      "midi": 78,
      "hit": false,
      "t": 216784.8563854164,
      "d": 907.6067291666695,
      "v": 62
    },
    {
      "midi": 74,
      "hit": false,
      "t": 216784.8563854164,
      "d": 929.3458124999888,
      "v": 68
    },
    {
      "midi": 71,
      "hit": false,
      "t": 216784.8563854164,
      "d": 951.0848958333081,
      "v": 57
    },
    {
      "midi": 74,
      "hit": false,
      "t": 218081.04922916638,
      "d": 548.911854166683,
      "v": 70
    },
    {
      "midi": 78,
      "hit": false,
      "t": 218081.04922916638,
      "d": 592.3900208333507,
      "v": 69
    },
    {
      "midi": 71,
      "hit": false,
      "t": 218083.76661458306,
      "d": 562.498781250004,
      "v": 63
    },
    {
      "midi": 76,
      "hit": false,
      "t": 218999.52549999973,
      "d": 899.4545729166712,
      "v": 77
    },
    {
      "midi": 73,
      "hit": false,
      "t": 219072.8949062497,
      "d": 850.541635416681,
      "v": 78
    },
    {
      "midi": 67,
      "hit": false,
      "t": 219127.24261458305,
      "d": 760.8679166666698,
      "v": 60
    },
    {
      "midi": 64,
      "hit": false,
      "t": 219176.15555208304,
      "d": 785.324385416694,
      "v": 71
    },
    {
      "midi": 69,
      "hit": false,
      "t": 220032.13195833308,
      "d": 961.9544374999823,
      "v": 65
    },
    {
      "midi": 72,
      "hit": false,
      "t": 220089.19705208307,
      "d": 937.4979687499872,
      "v": 71
    },
    {
      "midi": 76,
      "hit": false,
      "t": 220129.95783333306,
      "d": 923.9110416666663,
      "v": 83
    },
    {
      "midi": 69,
      "hit": false,
      "t": 221146.25997916638,
      "d": 961.9544374999823,
      "v": 67
    },
    {
      "midi": 72,
      "hit": false,
      "t": 221173.43383333305,
      "d": 970.1065937499807,
      "v": 75
    },
    {
      "midi": 78,
      "hit": false,
      "t": 221222.34677083304,
      "d": 902.1719583333179,
      "v": 66
    },
    {
      "midi": 69,
      "hit": false,
      "t": 222222.34460416637,
      "d": 872.2807187500002,
      "v": 65
    },
    {
      "midi": 72,
      "hit": false,
      "t": 222249.51845833304,
      "d": 894.0198020833195,
      "v": 60
    },
    {
      "midi": 78,
      "hit": false,
      "t": 222271.25754166636,
      "d": 769.0200729166681,
      "v": 53
    },
    {
      "midi": 69,
      "hit": false,
      "t": 223235.92936458302,
      "d": 842.3894791666826,
      "v": 61
    },
    {
      "midi": 72,
      "hit": false,
      "t": 223265.82060416637,
      "d": 815.2156250000116,
      "v": 61
    },
    {
      "midi": 78,
      "hit": false,
      "t": 223295.7118437497,
      "d": 774.4548437499907,
      "v": 73
    },
    {
      "midi": 71,
      "hit": false,
      "t": 224252.23151041637,
      "d": 1850.5394687499793,
      "v": 66
    },
    {
      "midi": 74,
      "hit": false,
      "t": 224284.84013541637,
      "d": 1817.9308437499858,
      "v": 80
    },
    {
      "midi": 79,
      "hit": false,
      "t": 224350.05738541635,
      "d": 1739.126666666678,
      "v": 80
    },
    {
      "midi": 71,
      "hit": false,
      "t": 226331.03135416636,
      "d": 1942.9305729166372,
      "v": 71
    },
    {
      "midi": 76,
      "hit": false,
      "t": 226379.94429166635,
      "d": 1940.2131874999905,
      "v": 76
    },
    {
      "midi": 80,
      "hit": false,
      "t": 226434.2919999997,
      "d": 122.28234374997555,
      "v": 99
    },
    {
      "midi": 92,
      "hit": false,
      "t": 226695.161,
      "d": 195.65174999999,
      "v": 83
    },
    {
      "midi": 80,
      "hit": false,
      "t": 226706.03054166635,
      "d": 122.28234375000466,
      "v": 93
    },
    {
      "midi": 93,
      "hit": false,
      "t": 226953.31261458332,
      "d": 184.7822083333449,
      "v": 80
    },
    {
      "midi": 81,
      "hit": false,
      "t": 226956.02999999968,
      "d": 214.67344791666255,
      "v": 94
    },
    {
      "midi": 95,
      "hit": false,
      "t": 227208.74684375,
      "d": 195.65174999999,
      "v": 78
    },
    {
      "midi": 83,
      "hit": false,
      "t": 227214.181614583,
      "d": 288.0428541666479,
      "v": 97
    },
    {
      "midi": 93,
      "hit": false,
      "t": 227466.89845833334,
      "d": 448.3685937499977,
      "v": 81
    },
    {
      "midi": 81,
      "hit": false,
      "t": 227477.76799999966,
      "d": 499.9989166666637,
      "v": 100
    },
    {
      "midi": 80,
      "hit": false,
      "t": 227985.91907291632,
      "d": 432.06428125003004,
      "v": 101
    },
    {
      "midi": 92,
      "hit": false,
      "t": 227994.07122916667,
      "d": 489.1293749999895,
      "v": 91
    },
    {
      "midi": 73,
      "hit": false,
      "t": 228461.46152083302,
      "d": 293.47762499999953,
      "v": 71
    },
    {
      "midi": 76,
      "hit": false,
      "t": 228510.374458333,
      "d": 244.5646875000093,
      "v": 90
    },
    {
      "midi": 93,
      "hit": false,
      "t": 228518.52661458333,
      "d": 521.7380000000121,
      "v": 84
    },
    {
      "midi": 81,
      "hit": false,
      "t": 228556.57001041636,
      "d": 201.08652083334164,
      "v": 90
    },
    {
      "midi": 78,
      "hit": false,
      "t": 230608.1959999997,
      "d": 54.34770833334187,
      "v": 62
    },
    {
      "midi": 74,
      "hit": false,
      "t": 230608.1959999997,
      "d": 62.49986458334024,
      "v": 62
    },
    {
      "midi": 81,
      "hit": false,
      "t": 230608.196,
      "d": 86.95633333333535,
      "v": 71
    },
    {
      "midi": 81,
      "hit": false,
      "t": 230610.91338541638,
      "d": 43.478166666667676,
      "v": 62
    },
    {
      "midi": 78,
      "hit": false,
      "t": 230779.39128125002,
      "d": 92.3911041666579,
      "v": 64
    },
    {
      "midi": 81,
      "hit": false,
      "t": 230784.82605208305,
      "d": 29.89123958334676,
      "v": 62
    },
    {
      "midi": 78,
      "hit": false,
      "t": 230784.82605208305,
      "d": 46.1955520833435,
      "v": 62
    },
    {
      "midi": 74,
      "hit": false,
      "t": 230784.82605208305,
      "d": 48.912937500019325,
      "v": 62
    },
    {
      "midi": 78,
      "hit": false,
      "t": 230956.02133333308,
      "d": 57.065093750017695,
      "v": 62
    },
    {
      "midi": 74,
      "hit": false,
      "t": 230956.02133333308,
      "d": 62.49986458334024,
      "v": 62
    },
    {
      "midi": 74,
      "hit": false,
      "t": 230956.02133333334,
      "d": 86.95633333333535,
      "v": 74
    },
    {
      "midi": 81,
      "hit": false,
      "t": 230958.73871874975,
      "d": 46.1955520833435,
      "v": 62
    },
    {
      "midi": 78,
      "hit": false,
      "t": 231129.93399999975,
      "d": 54.34770833334187,
      "v": 62
    },
    {
      "midi": 81,
      "hit": false,
      "t": 231129.934,
      "d": 97.82587500000955,
      "v": 81
    },
    {
      "midi": 81,
      "hit": false,
      "t": 231132.65138541642,
      "d": 48.91293749999022,
      "v": 62
    },
    {
      "midi": 74,
      "hit": false,
      "t": 231132.65138541642,
      "d": 57.06509374998859,
      "v": 62
    },
    {
      "midi": 78,
      "hit": false,
      "t": 231303.84666666642,
      "d": 51.63032291669515,
      "v": 62
    },
    {
      "midi": 74,
      "hit": false,
      "t": 231303.84666666642,
      "d": 57.065093750017695,
      "v": 62
    },
    {
      "midi": 78,
      "hit": false,
      "t": 231303.84666666668,
      "d": 78.80417708333698,
      "v": 78
    },
    {
      "midi": 81,
      "hit": false,
      "t": 231306.5640520831,
      "d": 38.04339583334513,
      "v": 62
    },
    {
      "midi": 81,
      "hit": false,
      "t": 231477.7593333331,
      "d": 51.630322916666046,
      "v": 62
    },
    {
      "midi": 74,
      "hit": false,
      "t": 231477.7593333331,
      "d": 54.34770833334187,
      "v": 62
    },
    {
      "midi": 78,
      "hit": false,
      "t": 231477.7593333331,
      "d": 57.065093750017695,
      "v": 62
    },
    {
      "midi": 74,
      "hit": false,
      "t": 231477.75933333335,
      "d": 76.08679166666116,
      "v": 79
    },
    {
      "midi": 78,
      "hit": false,
      "t": 231651.67199999976,
      "d": 57.065093750017695,
      "v": 62
    },
    {
      "midi": 74,
      "hit": false,
      "t": 231651.67199999976,
      "d": 59.78247916669352,
      "v": 62
    },
    {
      "midi": 81,
      "hit": false,
      "t": 231651.67200000002,
      "d": 95.10848958333372,
      "v": 79
    },
    {
      "midi": 81,
      "hit": false,
      "t": 231654.38938541643,
      "d": 51.630322916666046,
      "v": 62
    },
    {
      "midi": 78,
      "hit": false,
      "t": 231825.58466666646,
      "d": 57.065093750017695,
      "v": 62
    },
    {
      "midi": 74,
      "hit": false,
      "t": 231825.58466666646,
      "d": 59.78247916669352,
      "v": 62
    },
    {
      "midi": 78,
      "hit": false,
      "t": 231825.5846666667,
      "d": 84.23894791665953,
      "v": 72
    },
    {
      "midi": 81,
      "hit": false,
      "t": 231828.30205208313,
      "d": 51.630322916666046,
      "v": 62
    },
    {
      "midi": 78,
      "hit": false,
      "t": 231999.49733333316,
      "d": 57.065093750017695,
      "v": 62
    },
    {
      "midi": 74,
      "hit": false,
      "t": 231999.49733333316,
      "d": 65.21725000001607,
      "v": 62
    },
    {
      "midi": 74,
      "hit": false,
      "t": 231999.49733333336,
      "d": 78.80417708333698,
      "v": 77
    },
    {
      "midi": 81,
      "hit": false,
      "t": 232002.21471874983,
      "d": 54.34770833334187,
      "v": 62
    },
    {
      "midi": 81,
      "hit": false,
      "t": 232173.40999999983,
      "d": 48.91293749999022,
      "v": 62
    },
    {
      "midi": 78,
      "hit": false,
      "t": 232173.40999999983,
      "d": 54.34770833331277,
      "v": 62
    },
    {
      "midi": 74,
      "hit": false,
      "t": 232173.40999999983,
      "d": 59.78247916663531,
      "v": 62
    },
    {
      "midi": 81,
      "hit": false,
      "t": 232173.41000000003,
      "d": 103.26064583333209,
      "v": 76
    },
    {
      "midi": 78,
      "hit": false,
      "t": 232344.60528125003,
      "d": 95.10848958333372,
      "v": 78
    },
    {
      "midi": 81,
      "hit": false,
      "t": 232347.32266666647,
      "d": 51.630322916666046,
      "v": 62
    },
    {
      "midi": 78,
      "hit": false,
      "t": 232347.32266666647,
      "d": 57.06509374998859,
      "v": 62
    },
    {
      "midi": 74,
      "hit": false,
      "t": 232347.32266666647,
      "d": 62.49986458331114,
      "v": 62
    },
    {
      "midi": 78,
      "hit": false,
      "t": 232521.2353333331,
      "d": 54.34770833334187,
      "v": 62
    },
    {
      "midi": 74,
      "hit": false,
      "t": 232521.23533333337,
      "d": 89.67371875001118,
      "v": 76
    },
    {
      "midi": 81,
      "hit": false,
      "t": 232523.9527187498,
      "d": 43.478166666667676,
      "v": 62
    },
    {
      "midi": 74,
      "hit": false,
      "t": 232523.9527187498,
      "d": 57.06509374998859,
      "v": 62
    },
    {
      "midi": 78,
      "hit": false,
      "t": 232695.14799999978,
      "d": 57.065093750017695,
      "v": 62
    },
    {
      "midi": 74,
      "hit": false,
      "t": 232695.14799999978,
      "d": 65.21725000001607,
      "v": 62
    },
    {
      "midi": 81,
      "hit": false,
      "t": 232695.14800000004,
      "d": 100.54326041665627,
      "v": 73
    },
    {
      "midi": 81,
      "hit": false,
      "t": 232697.86538541646,
      "d": 51.630322916666046,
      "v": 62
    },
    {
      "midi": 78,
      "hit": false,
      "t": 232866.34328125004,
      "d": 89.67371875001118,
      "v": 72
    },
    {
      "midi": 81,
      "hit": false,
      "t": 232869.06066666645,
      "d": 48.91293749999022,
      "v": 62
    },
    {
      "midi": 78,
      "hit": false,
      "t": 232869.06066666645,
      "d": 54.34770833331277,
      "v": 62
    },
    {
      "midi": 74,
      "hit": false,
      "t": 232869.06066666645,
      "d": 67.93463541663368,
      "v": 62
    },
    {
      "midi": 74,
      "hit": false,
      "t": 233040.2559479167,
      "d": 84.23894791665953,
      "v": 76
    },
    {
      "midi": 78,
      "hit": false,
      "t": 233042.9733333331,
      "d": 57.065093750017695,
      "v": 62
    },
    {
      "midi": 74,
      "hit": false,
      "t": 233042.9733333331,
      "d": 62.49986458334024,
      "v": 62
    },
    {
      "midi": 81,
      "hit": false,
      "t": 233045.69071874977,
      "d": 51.630322916666046,
      "v": 62
    },
    {
      "midi": 81,
      "hit": false,
      "t": 233214.16861458338,
      "d": 103.26064583333209,
      "v": 70
    },
    {
      "midi": 78,
      "hit": false,
      "t": 233216.88599999977,
      "d": 65.21725000001607,
      "v": 62
    },
    {
      "midi": 81,
      "hit": false,
      "t": 233219.60338541644,
      "d": 54.34770833334187,
      "v": 62
    },
    {
      "midi": 74,
      "hit": false,
      "t": 233219.60338541644,
      "d": 65.21725000001607,
      "v": 62
    },
    {
      "midi": 78,
      "hit": false,
      "t": 233388.08128125005,
      "d": 86.95633333333535,
      "v": 74
    },
    {
      "midi": 81,
      "hit": false,
      "t": 233393.5160520831,
      "d": 43.478166666667676,
      "v": 62
    },
    {
      "midi": 78,
      "hit": false,
      "t": 233393.5160520831,
      "d": 51.630322916666046,
      "v": 62
    },
    {
      "midi": 74,
      "hit": false,
      "t": 233393.5160520831,
      "d": 57.06509374998859,
      "v": 62
    },
    {
      "midi": 74,
      "hit": false,
      "t": 233561.99394791672,
      "d": 89.67371875001118,
      "v": 71
    },
    {
      "midi": 81,
      "hit": false,
      "t": 233567.42871874975,
      "d": 54.34770833334187,
      "v": 62
    },
    {
      "midi": 78,
      "hit": false,
      "t": 233567.42871874975,
      "d": 57.065093750017695,
      "v": 62
    },
    {
      "midi": 74,
      "hit": false,
      "t": 233567.42871874975,
      "d": 62.49986458334024,
      "v": 62
    },
    {
      "midi": 81,
      "hit": false,
      "t": 233735.9066145834,
      "d": 103.26064583333209,
      "v": 76
    },
    {
      "midi": 81,
      "hit": false,
      "t": 233741.34138541642,
      "d": 54.34770833334187,
      "v": 62
    },
    {
      "midi": 74,
      "hit": false,
      "t": 233741.34138541642,
      "d": 62.49986458334024,
      "v": 62
    },
    {
      "midi": 78,
      "hit": false,
      "t": 233741.34138541642,
      "d": 62.49986458334024,
      "v": 62
    },
    {
      "midi": 78,
      "hit": false,
      "t": 233909.81928125006,
      "d": 76.08679166666116,
      "v": 61
    },
    {
      "midi": 78,
      "hit": false,
      "t": 233912.53666666642,
      "d": 62.49986458334024,
      "v": 62
    },
    {
      "midi": 81,
      "hit": false,
      "t": 233915.2540520831,
      "d": 54.34770833334187,
      "v": 62
    },
    {
      "midi": 74,
      "hit": false,
      "t": 233915.2540520831,
      "d": 65.21724999998696,
      "v": 62
    },
    {
      "midi": 74,
      "hit": false,
      "t": 234083.73194791673,
      "d": 78.80417708333698,
      "v": 67
    },
    {
      "midi": 78,
      "hit": false,
      "t": 234086.4493333331,
      "d": 62.49986458334024,
      "v": 62
    },
    {
      "midi": 81,
      "hit": false,
      "t": 234089.16671874977,
      "d": 46.1955520833435,
      "v": 62
    },
    {
      "midi": 74,
      "hit": false,
      "t": 234089.16671874977,
      "d": 62.49986458334024,
      "v": 62
    },
    {
      "midi": 81,
      "hit": false,
      "t": 234257.6446145834,
      "d": 111.41280208333046,
      "v": 74
    },
    {
      "midi": 78,
      "hit": false,
      "t": 234260.36199999976,
      "d": 59.782479166664416,
      "v": 62
    },
    {
      "midi": 81,
      "hit": false,
      "t": 234263.07938541644,
      "d": 51.630322916666046,
      "v": 62
    },
    {
      "midi": 74,
      "hit": false,
      "t": 234263.07938541644,
      "d": 59.782479166664416,
      "v": 62
    },
    {
      "midi": 78,
      "hit": false,
      "t": 234431.55728124976,
      "d": 54.34770833334187,
      "v": 62
    },
    {
      "midi": 78,
      "hit": false,
      "t": 234431.55728125008,
      "d": 92.3911041666579,
      "v": 68
    },
    {
      "midi": 81,
      "hit": false,
      "t": 234434.27466666643,
      "d": 48.91293749999022,
      "v": 62
    },
    {
      "midi": 74,
      "hit": false,
      "t": 234434.27466666643,
      "d": 59.782479166664416,
      "v": 62
    },
    {
      "midi": 81,
      "hit": false,
      "t": 234605.46994791643,
      "d": 48.91293749999022,
      "v": 62
    },
    {
      "midi": 78,
      "hit": false,
      "t": 234605.46994791643,
      "d": 57.06509374998859,
      "v": 62
    },
    {
      "midi": 74,
      "hit": false,
      "t": 234605.46994791643,
      "d": 65.21724999998696,
      "v": 62
    },
    {
      "midi": 74,
      "hit": false,
      "t": 234605.46994791675,
      "d": 76.08679166666116,
      "v": 69
    },
    {
      "midi": 81,
      "hit": false,
      "t": 234779.38261458342,
      "d": 103.26064583333209,
      "v": 76
    },
    {
      "midi": 73,
      "hit": false,
      "t": 234784.81738541642,
      "d": 48.912937500019325,
      "v": 62
    },
    {
      "midi": 76,
      "hit": false,
      "t": 234784.81738541642,
      "d": 51.63032291669515,
      "v": 62
    },
    {
      "midi": 81,
      "hit": false,
      "t": 234787.5347708331,
      "d": 48.912937500019325,
      "v": 62
    },
    {
      "midi": 76,
      "hit": false,
      "t": 234953.2952812501,
      "d": 92.3911041666579,
      "v": 66
    },
    {
      "midi": 73,
      "hit": false,
      "t": 234958.73005208312,
      "d": 54.34770833334187,
      "v": 62
    },
    {
      "midi": 76,
      "hit": false,
      "t": 234958.73005208312,
      "d": 54.34770833334187,
      "v": 62
    },
    {
      "midi": 81,
      "hit": false,
      "t": 234961.4474374998,
      "d": 40.76078124999185,
      "v": 62
    },
    {
      "midi": 73,
      "hit": false,
      "t": 235127.20794791676,
      "d": 67.93463541666279,
      "v": 76
    },
    {
      "midi": 73,
      "hit": false,
      "t": 235132.6427187498,
      "d": 54.34770833334187,
      "v": 62
    },
    {
      "midi": 76,
      "hit": false,
      "t": 235132.6427187498,
      "d": 57.065093750017695,
      "v": 62
    },
    {
      "midi": 81,
      "hit": false,
      "t": 235132.6427187498,
      "d": 57.065093750017695,
      "v": 62
    },
    {
      "midi": 81,
      "hit": false,
      "t": 235301.12061458343,
      "d": 108.69541666665464,
      "v": 76
    },
    {
      "midi": 73,
      "hit": false,
      "t": 235306.55538541646,
      "d": 51.630322916666046,
      "v": 62
    },
    {
      "midi": 76,
      "hit": false,
      "t": 235306.55538541646,
      "d": 59.782479166664416,
      "v": 62
    },
    {
      "midi": 81,
      "hit": false,
      "t": 235309.27277083314,
      "d": 48.91293749999022,
      "v": 62
    },
    {
      "midi": 76,
      "hit": false,
      "t": 235475.03328125007,
      "d": 89.67371875001118,
      "v": 67
    },
    {
      "midi": 73,
      "hit": false,
      "t": 235480.46805208313,
      "d": 48.912937500019325,
      "v": 62
    },
    {
      "midi": 76,
      "hit": false,
      "t": 235480.46805208313,
      "d": 48.912937500019325,
      "v": 62
    },
    {
      "midi": 81,
      "hit": false,
      "t": 235483.1854374998,
      "d": 46.1955520833435,
      "v": 62
    },
    {
      "midi": 73,
      "hit": false,
      "t": 235648.94594791674,
      "d": 73.36940625001444,
      "v": 72
    },
    {
      "midi": 73,
      "hit": false,
      "t": 235654.38071874983,
      "d": 46.1955520833435,
      "v": 62
    },
    {
      "midi": 76,
      "hit": false,
      "t": 235654.38071874983,
      "d": 54.34770833334187,
      "v": 62
    },
    {
      "midi": 81,
      "hit": false,
      "t": 235654.38071874983,
      "d": 54.34770833334187,
      "v": 62
    },
    {
      "midi": 81,
      "hit": false,
      "t": 235822.8586145834,
      "d": 119.56495833332883,
      "v": 74
    },
    {
      "midi": 73,
      "hit": false,
      "t": 235828.2933854165,
      "d": 54.34770833334187,
      "v": 62
    },
    {
      "midi": 81,
      "hit": false,
      "t": 235828.2933854165,
      "d": 57.065093750017695,
      "v": 62
    },
    {
      "midi": 76,
      "hit": false,
      "t": 235828.2933854165,
      "d": 59.78247916669352,
      "v": 62
    },
    {
      "midi": 76,
      "hit": false,
      "t": 235999.48866666673,
      "d": 78.80417708333698,
      "v": 59
    },
    {
      "midi": 76,
      "hit": false,
      "t": 236002.2060520832,
      "d": 46.1955520833435,
      "v": 62
    },
    {
      "midi": 81,
      "hit": false,
      "t": 236002.2060520832,
      "d": 46.1955520833435,
      "v": 62
    },
    {
      "midi": 73,
      "hit": false,
      "t": 236002.2060520832,
      "d": 48.912937500019325,
      "v": 62
    },
    {
      "midi": 73,
      "hit": false,
      "t": 236170.68394791672,
      "d": 78.80417708333698,
      "v": 72
    },
    {
      "midi": 76,
      "hit": false,
      "t": 236176.1187187499,
      "d": 51.630322916666046,
      "v": 62
    },
    {
      "midi": 81,
      "hit": false,
      "t": 236176.1187187499,
      "d": 51.630322916666046,
      "v": 62
    },
    {
      "midi": 73,
      "hit": false,
      "t": 236176.1187187499,
      "d": 54.34770833334187,
      "v": 62
    },
    {
      "midi": 81,
      "hit": false,
      "t": 236347.31400000007,
      "d": 103.26064583333209,
      "v": 79
    },
    {
      "midi": 81,
      "hit": false,
      "t": 236350.03138541657,
      "d": 54.34770833334187,
      "v": 62
    },
    {
      "midi": 76,
      "hit": false,
      "t": 236350.03138541657,
      "d": 57.065093750017695,
      "v": 62
    },
    {
      "midi": 73,
      "hit": false,
      "t": 236350.03138541657,
      "d": 59.78247916669352,
      "v": 62
    },
    {
      "midi": 73,
      "hit": false,
      "t": 236521.2266666666,
      "d": 59.78247916669352,
      "v": 62
    },
    {
      "midi": 76,
      "hit": false,
      "t": 236521.22666666674,
      "d": 89.67371875001118,
      "v": 64
    },
    {
      "midi": 76,
      "hit": false,
      "t": 236523.94405208327,
      "d": 54.34770833334187,
      "v": 62
    },
    {
      "midi": 81,
      "hit": false,
      "t": 236523.94405208327,
      "d": 59.78247916669352,
      "v": 62
    },
    {
      "midi": 73,
      "hit": false,
      "t": 236695.1393333333,
      "d": 59.78247916669352,
      "v": 62
    },
    {
      "midi": 73,
      "hit": false,
      "t": 236695.1393333334,
      "d": 67.93463541666279,
      "v": 66
    },
    {
      "midi": 76,
      "hit": false,
      "t": 236697.85671874997,
      "d": 54.34770833334187,
      "v": 62
    },
    {
      "midi": 81,
      "hit": false,
      "t": 236697.85671874997,
      "d": 62.49986458334024,
      "v": 62
    },
    {
      "midi": 81,
      "hit": false,
      "t": 236869.05200000008,
      "d": 114.13018750000629,
      "v": 76
    },
    {
      "midi": 76,
      "hit": false,
      "t": 236871.76938541664,
      "d": 46.1955520833435,
      "v": 62
    },
    {
      "midi": 73,
      "hit": false,
      "t": 236871.76938541664,
      "d": 51.630322916666046,
      "v": 62
    },
    {
      "midi": 81,
      "hit": false,
      "t": 236871.76938541664,
      "d": 51.630322916666046,
      "v": 62
    },
    {
      "midi": 76,
      "hit": false,
      "t": 237042.96466666675,
      "d": 84.23894791665953,
      "v": 62
    },
    {
      "midi": 76,
      "hit": false,
      "t": 237045.6820520833,
      "d": 40.76078124999185,
      "v": 62
    },
    {
      "midi": 73,
      "hit": false,
      "t": 237045.6820520833,
      "d": 48.91293749999022,
      "v": 62
    },
    {
      "midi": 81,
      "hit": false,
      "t": 237045.6820520833,
      "d": 51.630322916666046,
      "v": 62
    },
    {
      "midi": 73,
      "hit": false,
      "t": 237214.15994791675,
      "d": 67.93463541666279,
      "v": 64
    },
    {
      "midi": 81,
      "hit": false,
      "t": 237216.8773333333,
      "d": 57.065093750017695,
      "v": 62
    },
    {
      "midi": 73,
      "hit": false,
      "t": 237219.59471874998,
      "d": 40.76078124999185,
      "v": 62
    },
    {
      "midi": 76,
      "hit": false,
      "t": 237219.59471874998,
      "d": 43.478166666667676,
      "v": 62
    },
    {
      "midi": 81,
      "hit": false,
      "t": 237388.07261458342,
      "d": 103.26064583333209,
      "v": 79
    },
    {
      "midi": 76,
      "hit": false,
      "t": 237390.78999999998,
      "d": 54.34770833334187,
      "v": 62
    },
    {
      "midi": 73,
      "hit": false,
      "t": 237390.78999999998,
      "d": 57.065093750017695,
      "v": 62
    },
    {
      "midi": 81,
      "hit": false,
      "t": 237390.78999999998,
      "d": 65.21725000001607,
      "v": 62
    },
    {
      "midi": 76,
      "hit": false,
      "t": 237561.9852812501,
      "d": 86.95633333333535,
      "v": 67
    },
    {
      "midi": 73,
      "hit": false,
      "t": 237564.70266666665,
      "d": 57.065093750017695,
      "v": 62
    },
    {
      "midi": 76,
      "hit": false,
      "t": 237567.42005208333,
      "d": 57.065093750017695,
      "v": 62
    },
    {
      "midi": 81,
      "hit": false,
      "t": 237567.42005208333,
      "d": 62.49986458334024,
      "v": 62
    },
    {
      "midi": 73,
      "hit": false,
      "t": 237735.89794791676,
      "d": 70.65202083333861,
      "v": 66
    },
    {
      "midi": 73,
      "hit": false,
      "t": 237741.33271875,
      "d": 51.630322916666046,
      "v": 62
    },
    {
      "midi": 76,
      "hit": false,
      "t": 237741.33271875,
      "d": 51.630322916666046,
      "v": 62
    },
    {
      "midi": 81,
      "hit": false,
      "t": 237741.33271875,
      "d": 57.06509374998859,
      "v": 62
    },
    {
      "midi": 81,
      "hit": false,
      "t": 237909.81061458343,
      "d": 111.41280208333046,
      "v": 73
    },
    {
      "midi": 76,
      "hit": false,
      "t": 237915.24538541664,
      "d": 51.630322916666046,
      "v": 62
    },
    {
      "midi": 73,
      "hit": false,
      "t": 237915.24538541664,
      "d": 54.34770833334187,
      "v": 62
    },
    {
      "midi": 81,
      "hit": false,
      "t": 237915.24538541664,
      "d": 54.34770833334187,
      "v": 62
    },
    {
      "midi": 76,
      "hit": false,
      "t": 238083.7232812501,
      "d": 95.10848958333372,
      "v": 60
    },
    {
      "midi": 76,
      "hit": false,
      "t": 238089.1580520833,
      "d": 46.1955520833435,
      "v": 62
    },
    {
      "midi": 73,
      "hit": false,
      "t": 238089.1580520833,
      "d": 51.630322916666046,
      "v": 62
    },
    {
      "midi": 81,
      "hit": false,
      "t": 238089.1580520833,
      "d": 54.34770833334187,
      "v": 62
    },
    {
      "midi": 73,
      "hit": false,
      "t": 238257.63594791677,
      "d": 73.36940625001444,
      "v": 68
    },
    {
      "midi": 76,
      "hit": false,
      "t": 238260.3533333333,
      "d": 54.34770833334187,
      "v": 62
    },
    {
      "midi": 81,
      "hit": false,
      "t": 238260.3533333333,
      "d": 54.34770833334187,
      "v": 62
    },
    {
      "midi": 73,
      "hit": false,
      "t": 238260.3533333333,
      "d": 59.782479166664416,
      "v": 62
    },
    {
      "midi": 81,
      "hit": false,
      "t": 238431.54861458344,
      "d": 108.69541666665464,
      "v": 73
    },
    {
      "midi": 73,
      "hit": false,
      "t": 238434.26599999997,
      "d": 65.21725000001607,
      "v": 62
    },
    {
      "midi": 76,
      "hit": false,
      "t": 238434.26599999997,
      "d": 65.21725000001607,
      "v": 62
    },
    {
      "midi": 81,
      "hit": false,
      "t": 238436.98338541665,
      "d": 59.782479166664416,
      "v": 62
    },
    {
      "midi": 73,
      "hit": false,
      "t": 238605.46128125,
      "d": 48.912937500019325,
      "v": 62
    },
    {
      "midi": 76,
      "hit": false,
      "t": 238605.46128125,
      "d": 54.34770833334187,
      "v": 62
    },
    {
      "midi": 76,
      "hit": false,
      "t": 238605.4612812501,
      "d": 108.69541666665464,
      "v": 64
    },
    {
      "midi": 81,
      "hit": false,
      "t": 238608.17866666667,
      "d": 43.478166666667676,
      "v": 62
    },
    {
      "midi": 76,
      "hit": false,
      "t": 238779.37394791667,
      "d": 59.782479166664416,
      "v": 62
    },
    {
      "midi": 73,
      "hit": false,
      "t": 238779.37394791667,
      "d": 62.49986458334024,
      "v": 62
    },
    {
      "midi": 73,
      "hit": false,
      "t": 238779.37394791673,
      "d": 70.65202083333861,
      "v": 66
    },
    {
      "midi": 81,
      "hit": false,
      "t": 238782.09133333334,
      "d": 51.630322916666046,
      "v": 62
    },
    {
      "midi": 81,
      "hit": false,
      "t": 238953.2866145834,
      "d": 97.82587500000955,
      "v": 76
    },
    {
      "midi": 81,
      "hit": false,
      "t": 238958.72138541666,
      "d": 43.478166666667676,
      "v": 62
    },
    {
      "midi": 75,
      "hit": false,
      "t": 238958.72138541666,
      "d": 48.91293749999022,
      "v": 62
    },
    {
      "midi": 78,
      "hit": false,
      "t": 238958.72138541666,
      "d": 51.630322916666046,
      "v": 62
    },
    {
      "midi": 78,
      "hit": false,
      "t": 239127.19928125007,
      "d": 100.54326041665627,
      "v": 58
    },
    {
      "midi": 75,
      "hit": false,
      "t": 239132.63405208333,
      "d": 59.782479166664416,
      "v": 62
    },
    {
      "midi": 78,
      "hit": false,
      "t": 239132.63405208333,
      "d": 59.782479166664416,
      "v": 62
    },
    {
      "midi": 81,
      "hit": false,
      "t": 239132.63405208333,
      "d": 62.49986458334024,
      "v": 62
    },
    {
      "midi": 75,
      "hit": false,
      "t": 239301.11194791674,
      "d": 78.80417708333698,
      "v": 64
    },
    {
      "midi": 78,
      "hit": false,
      "t": 239306.54671875,
      "d": 43.478166666667676,
      "v": 62
    },
    {
      "midi": 75,
      "hit": false,
      "t": 239306.54671875,
      "d": 51.630322916666046,
      "v": 62
    },
    {
      "midi": 81,
      "hit": false,
      "t": 239306.54671875,
      "d": 70.65202083333861,
      "v": 62
    },
    {
      "midi": 81,
      "hit": false,
      "t": 239475.0246145834,
      "d": 100.54326041665627,
      "v": 69
    },
    {
      "midi": 75,
      "hit": false,
      "t": 239477.742,
      "d": 65.21724999998696,
      "v": 62
    },
    {
      "midi": 78,
      "hit": false,
      "t": 239480.45938541667,
      "d": 48.91293749999022,
      "v": 62
    },
    {
      "midi": 81,
      "hit": false,
      "t": 239480.45938541667,
      "d": 65.21724999998696,
      "v": 62
    },
    {
      "midi": 78,
      "hit": false,
      "t": 239648.93728125008,
      "d": 86.95633333333535,
      "v": 61
    },
    {
      "midi": 78,
      "hit": false,
      "t": 239654.37205208332,
      "d": 40.76078124999185,
      "v": 62
    },
    {
      "midi": 75,
      "hit": false,
      "t": 239654.37205208332,
      "d": 57.06509374998859,
      "v": 62
    },
    {
      "midi": 81,
      "hit": false,
      "t": 239654.37205208332,
      "d": 62.49986458331114,
      "v": 62
    },
    {
      "midi": 75,
      "hit": false,
      "t": 239822.84994791675,
      "d": 73.36940625001444,
      "v": 70
    },
    {
      "midi": 75,
      "hit": false,
      "t": 239825.56733333328,
      "d": 65.21725000001607,
      "v": 62
    },
    {
      "midi": 78,
      "hit": false,
      "t": 239828.28471874996,
      "d": 43.478166666667676,
      "v": 62
    },
    {
      "midi": 81,
      "hit": false,
      "t": 239828.28471874996,
      "d": 54.34770833334187,
      "v": 62
    },
    {
      "midi": 81,
      "hit": false,
      "t": 239996.76261458342,
      "d": 105.97803125000792,
      "v": 73
    },
    {
      "midi": 78,
      "hit": false,
      "t": 240002.19738541663,
      "d": 48.91293749999022,
      "v": 62
    },
    {
      "midi": 75,
      "hit": false,
      "t": 240002.19738541663,
      "d": 51.630322916666046,
      "v": 62
    },
    {
      "midi": 81,
      "hit": false,
      "t": 240002.19738541663,
      "d": 62.49986458334024,
      "v": 62
    },
    {
      "midi": 78,
      "hit": false,
      "t": 240170.6752812501,
      "d": 97.82587500000955,
      "v": 53
    },
    {
      "midi": 75,
      "hit": false,
      "t": 240176.1100520833,
      "d": 48.91293749999022,
      "v": 62
    },
    {
      "midi": 78,
      "hit": false,
      "t": 240176.1100520833,
      "d": 48.91293749999022,
      "v": 62
    },
    {
      "midi": 81,
      "hit": false,
      "t": 240176.1100520833,
      "d": 54.34770833331277,
      "v": 62
    },
    {
      "midi": 75,
      "hit": false,
      "t": 240344.58794791676,
      "d": 78.80417708333698,
      "v": 70
    },
    {
      "midi": 78,
      "hit": false,
      "t": 240350.02271874994,
      "d": 46.1955520833435,
      "v": 62
    },
    {
      "midi": 75,
      "hit": false,
      "t": 240350.02271874994,
      "d": 48.912937500019325,
      "v": 62
    },
    {
      "midi": 81,
      "hit": false,
      "t": 240350.02271874994,
      "d": 54.34770833334187,
      "v": 62
    },
    {
      "midi": 81,
      "hit": false,
      "t": 240518.50061458343,
      "d": 114.13018750000629,
      "v": 69
    },
    {
      "midi": 75,
      "hit": false,
      "t": 240523.9353854166,
      "d": 48.91293749999022,
      "v": 62
    },
    {
      "midi": 78,
      "hit": false,
      "t": 240523.9353854166,
      "d": 48.91293749999022,
      "v": 62
    },
    {
      "midi": 81,
      "hit": false,
      "t": 240523.9353854166,
      "d": 51.630322916666046,
      "v": 62
    },
    {
      "midi": 78,
      "hit": false,
      "t": 240692.4132812501,
      "d": 108.69541666665464,
      "v": 56
    },
    {
      "midi": 78,
      "hit": false,
      "t": 240695.1306666666,
      "d": 43.47816666669678,
      "v": 62
    },
    {
      "midi": 75,
      "hit": false,
      "t": 240695.1306666666,
      "d": 48.912937500019325,
      "v": 62
    },
    {
      "midi": 81,
      "hit": false,
      "t": 240697.84805208328,
      "d": 10.869541666674195,
      "v": 62
    },
    {
      "midi": 75,
      "hit": false,
      "t": 240866.32594791675,
      "d": 70.65202083333861,
      "v": 72
    },
    {
      "midi": 75,
      "hit": false,
      "t": 240869.0433333333,
      "d": 59.782479166664416,
      "v": 62
    },
    {
      "midi": 78,
      "hit": false,
      "t": 240871.76071874998,
      "d": 51.630322916666046,
      "v": 62
    },
    {
      "midi": 81,
      "hit": false,
      "t": 240871.76071874998,
      "d": 59.782479166664416,
      "v": 62
    },
    {
      "midi": 81,
      "hit": false,
      "t": 241040.23861458342,
      "d": 111.41280208333046,
      "v": 60
    },
    {
      "midi": 81,
      "hit": false,
      "t": 241045.67338541665,
      "d": 59.782479166664416,
      "v": 62
    },
    {
      "midi": 74,
      "hit": false,
      "t": 241045.67338541665,
      "d": 65.21724999998696,
      "v": 62
    },
    {
      "midi": 77,
      "hit": false,
      "t": 241045.67338541665,
      "d": 65.21724999998696,
      "v": 62
    },
    {
      "midi": 77,
      "hit": false,
      "t": 241214.1512812501,
      "d": 108.69541666665464,
      "v": 59
    },
    {
      "midi": 74,
      "hit": false,
      "t": 241216.86866666665,
      "d": 62.49986458334024,
      "v": 62
    },
    {
      "midi": 77,
      "hit": false,
      "t": 241216.86866666665,
      "d": 62.49986458334024,
      "v": 62
    },
    {
      "midi": 81,
      "hit": false,
      "t": 241219.58605208332,
      "d": 54.34770833334187,
      "v": 62
    },
    {
      "midi": 74,
      "hit": false,
      "t": 241388.06394791673,
      "d": 84.23894791665953,
      "v": 64
    },
    {
      "midi": 74,
      "hit": false,
      "t": 241390.78133333332,
      "d": 62.49986458334024,
      "v": 62
    },
    {
      "midi": 77,
      "hit": false,
      "t": 241390.78133333332,
      "d": 62.49986458334024,
      "v": 62
    },
    {
      "midi": 81,
      "hit": false,
      "t": 241390.78133333332,
      "d": 62.49986458334024,
      "v": 62
    },
    {
      "midi": 81,
      "hit": false,
      "t": 241561.9766145834,
      "d": 116.84757291665301,
      "v": 63
    },
    {
      "midi": 74,
      "hit": false,
      "t": 241564.694,
      "d": 54.34770833334187,
      "v": 62
    },
    {
      "midi": 81,
      "hit": false,
      "t": 241564.694,
      "d": 57.065093750017695,
      "v": 62
    },
    {
      "midi": 77,
      "hit": false,
      "t": 241564.694,
      "d": 65.21725000001607,
      "v": 62
    },
    {
      "midi": 77,
      "hit": false,
      "t": 241735.88928125004,
      "d": 133.15188541667885,
      "v": 59
    },
    {
      "midi": 81,
      "hit": false,
      "t": 241738.60666666666,
      "d": 54.34770833334187,
      "v": 62
    },
    {
      "midi": 77,
      "hit": false,
      "t": 241738.60666666666,
      "d": 65.21725000001607,
      "v": 62
    },
    {
      "midi": 74,
      "hit": false,
      "t": 241741.32405208334,
      "d": 43.478166666667676,
      "v": 62
    },
    {
      "midi": 74,
      "hit": false,
      "t": 241909.8019479167,
      "d": 81.5215625000128,
      "v": 70
    },
    {
      "midi": 77,
      "hit": false,
      "t": 241912.51933333333,
      "d": 54.34770833334187,
      "v": 62
    },
    {
      "midi": 81,
      "hit": false,
      "t": 241912.51933333333,
      "d": 57.065093750017695,
      "v": 62
    },
    {
      "midi": 74,
      "hit": false,
      "t": 241912.51933333333,
      "d": 62.49986458334024,
      "v": 62
    },
    {
      "midi": 71,
      "hit": false,
      "t": 242083.71461458332,
      "d": 51.630322916666046,
      "v": 62
    },
    {
      "midi": 80,
      "hit": false,
      "t": 242083.71461458332,
      "d": 51.630322916666046,
      "v": 62
    },
    {
      "midi": 76,
      "hit": false,
      "t": 242083.71461458332,
      "d": 54.34770833334187,
      "v": 62
    },
    {
      "midi": 80,
      "hit": false,
      "t": 242083.71461458338,
      "d": 105.97803125000792,
      "v": 61
    },
    {
      "midi": 80,
      "hit": false,
      "t": 242257.62728125,
      "d": 48.91293749999022,
      "v": 62
    },
    {
      "midi": 71,
      "hit": false,
      "t": 242257.62728125,
      "d": 51.630322916666046,
      "v": 62
    },
    {
      "midi": 76,
      "hit": false,
      "t": 242257.62728125,
      "d": 57.06509374998859,
      "v": 62
    },
    {
      "midi": 76,
      "hit": false,
      "t": 242257.62728125005,
      "d": 130.43450000000303,
      "v": 59
    },
    {
      "midi": 71,
      "hit": false,
      "t": 242431.53994791664,
      "d": 46.1955520833435,
      "v": 62
    },
    {
      "midi": 80,
      "hit": false,
      "t": 242431.53994791664,
      "d": 51.630322916666046,
      "v": 62
    },
    {
      "midi": 76,
      "hit": false,
      "t": 242431.53994791664,
      "d": 59.782479166664416,
      "v": 62
    },
    {
      "midi": 71,
      "hit": false,
      "t": 242431.53994791672,
      "d": 119.56495833332883,
      "v": 62
    },
    {
      "midi": 80,
      "hit": false,
      "t": 242605.4526145834,
      "d": 108.69541666665464,
      "v": 58
    },
    {
      "midi": 80,
      "hit": false,
      "t": 242608.16999999995,
      "d": 43.478166666667676,
      "v": 62
    },
    {
      "midi": 71,
      "hit": false,
      "t": 242608.16999999995,
      "d": 48.91293749999022,
      "v": 62
    },
    {
      "midi": 76,
      "hit": false,
      "t": 242608.16999999995,
      "d": 51.630322916666046,
      "v": 62
    },
    {
      "midi": 80,
      "hit": false,
      "t": 242779.36528124995,
      "d": 40.76078124999185,
      "v": 62
    },
    {
      "midi": 76,
      "hit": false,
      "t": 242779.36528124995,
      "d": 51.630322916666046,
      "v": 62
    },
    {
      "midi": 71,
      "hit": false,
      "t": 242779.36528124995,
      "d": 54.34770833334187,
      "v": 62
    },
    {
      "midi": 76,
      "hit": false,
      "t": 242779.36528125004,
      "d": 130.43450000000303,
      "v": 69
    },
    {
      "midi": 76,
      "hit": false,
      "t": 242953.27794791662,
      "d": 67.93463541669189,
      "v": 62
    },
    {
      "midi": 71,
      "hit": false,
      "t": 242953.2779479167,
      "d": 78.80417708333698,
      "v": 59
    },
    {
      "midi": 80,
      "hit": false,
      "t": 242955.9953333333,
      "d": 54.34770833334187,
      "v": 62
    },
    {
      "midi": 71,
      "hit": false,
      "t": 242955.9953333333,
      "d": 57.065093750017695,
      "v": 62
    },
    {
      "midi": 81,
      "hit": false,
      "t": 243129.90800000005,
      "d": 95.10848958333372,
      "v": 81
    },
    {
      "midi": 73,
      "hit": false,
      "t": 243132.62538541664,
      "d": 48.91293749999022,
      "v": 62
    },
    {
      "midi": 76,
      "hit": false,
      "t": 243132.62538541664,
      "d": 51.630322916666046,
      "v": 62
    },
    {
      "midi": 81,
      "hit": false,
      "t": 243132.62538541664,
      "d": 59.782479166664416,
      "v": 62
    },
    {
      "midi": 73,
      "hit": false,
      "t": 243303.82066666664,
      "d": 51.630322916666046,
      "v": 62
    },
    {
      "midi": 81,
      "hit": false,
      "t": 243303.82066666664,
      "d": 51.630322916666046,
      "v": 62
    },
    {
      "midi": 76,
      "hit": false,
      "t": 243303.82066666664,
      "d": 54.34770833334187,
      "v": 62
    },
    {
      "midi": 76,
      "hit": false,
      "t": 243303.82066666672,
      "d": 84.23894791665953,
      "v": 64
    },
    {
      "midi": 73,
      "hit": false,
      "t": 243475.01594791663,
      "d": 51.630322916666046,
      "v": 62
    },
    {
      "midi": 76,
      "hit": false,
      "t": 243475.01594791663,
      "d": 54.34770833334187,
      "v": 62
    },
    {
      "midi": 81,
      "hit": false,
      "t": 243475.01594791663,
      "d": 59.782479166664416,
      "v": 62
    },
    {
      "midi": 73,
      "hit": false,
      "t": 243475.01594791672,
      "d": 62.49986458334024,
      "v": 68
    },
    {
      "midi": 76,
      "hit": false,
      "t": 243648.9286145833,
      "d": 67.93463541669189,
      "v": 62
    },
    {
      "midi": 81,
      "hit": false,
      "t": 243648.9286145834,
      "d": 108.69541666665464,
      "v": 79
    },
    {
      "midi": 73,
      "hit": false,
      "t": 243651.64599999998,
      "d": 54.34770833334187,
      "v": 62
    },
    {
      "midi": 81,
      "hit": false,
      "t": 243651.64599999998,
      "d": 62.49986458334024,
      "v": 62
    },
    {
      "midi": 76,
      "hit": false,
      "t": 243822.84128125003,
      "d": 78.80417708333698,
      "v": 65
    },
    {
      "midi": 73,
      "hit": false,
      "t": 243825.55866666665,
      "d": 46.1955520833435,
      "v": 62
    },
    {
      "midi": 76,
      "hit": false,
      "t": 243825.55866666665,
      "d": 51.630322916666046,
      "v": 62
    },
    {
      "midi": 81,
      "hit": false,
      "t": 243825.55866666665,
      "d": 51.630322916666046,
      "v": 62
    },
    {
      "midi": 73,
      "hit": false,
      "t": 243996.75394791664,
      "d": 48.912937500019325,
      "v": 62
    },
    {
      "midi": 76,
      "hit": false,
      "t": 243996.75394791664,
      "d": 51.63032291669515,
      "v": 62
    },
    {
      "midi": 73,
      "hit": false,
      "t": 243996.7539479167,
      "d": 62.49986458334024,
      "v": 61
    },
    {
      "midi": 81,
      "hit": false,
      "t": 243999.47133333332,
      "d": 46.1955520833435,
      "v": 62
    },
    {
      "midi": 81,
      "hit": false,
      "t": 244170.66661458337,
      "d": 103.26064583333209,
      "v": 70
    },
    {
      "midi": 73,
      "hit": false,
      "t": 244173.38400000002,
      "d": 46.1955520833435,
      "v": 62
    },
    {
      "midi": 81,
      "hit": false,
      "t": 244173.38400000002,
      "d": 48.912937500019325,
      "v": 62
    },
    {
      "midi": 76,
      "hit": false,
      "t": 244173.38400000002,
      "d": 51.63032291669515,
      "v": 62
    },
    {
      "midi": 76,
      "hit": false,
      "t": 244344.57928125004,
      "d": 78.80417708333698,
      "v": 60
    },
    {
      "midi": 81,
      "hit": false,
      "t": 244347.29666666672,
      "d": 38.04339583334513,
      "v": 62
    },
    {
      "midi": 73,
      "hit": false,
      "t": 244347.29666666672,
      "d": 46.1955520833435,
      "v": 62
    },
    {
      "midi": 76,
      "hit": false,
      "t": 244347.29666666672,
      "d": 46.1955520833435,
      "v": 62
    },
    {
      "midi": 73,
      "hit": false,
      "t": 244518.49194791671,
      "d": 70.65202083333861,
      "v": 60
    },
    {
      "midi": 76,
      "hit": false,
      "t": 244518.49194791674,
      "d": 46.1955520833435,
      "v": 62
    },
    {
      "midi": 73,
      "hit": false,
      "t": 244518.49194791674,
      "d": 48.912937500019325,
      "v": 62
    },
    {
      "midi": 81,
      "hit": false,
      "t": 244521.20933333342,
      "d": 43.478166666667676,
      "v": 62
    },
    {
      "midi": 81,
      "hit": false,
      "t": 244692.40461458339,
      "d": 108.69541666665464,
      "v": 77
    },
    {
      "midi": 73,
      "hit": false,
      "t": 244695.1220000001,
      "d": 43.47816666669678,
      "v": 62
    },
    {
      "midi": 76,
      "hit": false,
      "t": 244695.1220000001,
      "d": 48.912937500019325,
      "v": 62
    },
    {
      "midi": 81,
      "hit": false,
      "t": 244697.83938541677,
      "d": 38.04339583334513,
      "v": 62
    },
    {
      "midi": 76,
      "hit": false,
      "t": 244866.31728125003,
      "d": 116.84757291665301,
      "v": 67
    },
    {
      "midi": 76,
      "hit": false,
      "t": 244866.3172812501,
      "d": 43.47816666669678,
      "v": 62
    },
    {
      "midi": 81,
      "hit": false,
      "t": 244869.0346666668,
      "d": 29.89123958334676,
      "v": 62
    },
    {
      "midi": 73,
      "hit": false,
      "t": 244869.0346666668,
      "d": 38.04339583334513,
      "v": 62
    },
    {
      "midi": 73,
      "hit": false,
      "t": 245040.22994791667,
      "d": 78.80417708333698,
      "v": 72
    },
    {
      "midi": 81,
      "hit": false,
      "t": 245040.2299479168,
      "d": 32.60862499999348,
      "v": 62
    },
    {
      "midi": 73,
      "hit": false,
      "t": 245040.2299479168,
      "d": 48.91293749999022,
      "v": 62
    },
    {
      "midi": 76,
      "hit": false,
      "t": 245040.2299479168,
      "d": 48.91293749999022,
      "v": 62
    },
    {
      "midi": 73,
      "hit": false,
      "t": 245214.14261458348,
      "d": 54.34770833334187,
      "v": 62
    },
    {
      "midi": 76,
      "hit": false,
      "t": 245214.14261458348,
      "d": 54.34770833334187,
      "v": 62
    },
    {
      "midi": 81,
      "hit": false,
      "t": 245214.14261458348,
      "d": 54.34770833334187,
      "v": 62
    },
    {
      "midi": 81,
      "hit": false,
      "t": 247303.812,
      "d": 86.95633333333535,
      "v": 71
    },
    {
      "midi": 78,
      "hit": false,
      "t": 247303.81200000015,
      "d": 54.34770833334187,
      "v": 62
    },
    {
      "midi": 74,
      "hit": false,
      "t": 247303.81200000015,
      "d": 62.49986458334024,
      "v": 62
    },
    {
      "midi": 81,
      "hit": false,
      "t": 247306.52938541683,
      "d": 43.478166666667676,
      "v": 62
    },
    {
      "midi": 78,
      "hit": false,
      "t": 247475.00728125,
      "d": 92.3911041666579,
      "v": 64
    },
    {
      "midi": 81,
      "hit": false,
      "t": 247480.4420520835,
      "d": 29.89123958334676,
      "v": 62
    },
    {
      "midi": 78,
      "hit": false,
      "t": 247480.4420520835,
      "d": 46.1955520833435,
      "v": 62
    },
    {
      "midi": 74,
      "hit": false,
      "t": 247480.4420520835,
      "d": 48.912937500019325,
      "v": 62
    },
    {
      "midi": 74,
      "hit": false,
      "t": 247651.63733333332,
      "d": 86.95633333333535,
      "v": 74
    },
    {
      "midi": 78,
      "hit": false,
      "t": 247651.63733333352,
      "d": 57.065093750017695,
      "v": 62
    },
    {
      "midi": 74,
      "hit": false,
      "t": 247651.63733333352,
      "d": 62.49986458334024,
      "v": 62
    },
    {
      "midi": 81,
      "hit": false,
      "t": 247654.3547187502,
      "d": 46.1955520833435,
      "v": 62
    },
    {
      "midi": 81,
      "hit": false,
      "t": 247825.55,
      "d": 97.82587500000955,
      "v": 81
    },
    {
      "midi": 78,
      "hit": false,
      "t": 247825.5500000002,
      "d": 54.34770833334187,
      "v": 62
    },
    {
      "midi": 81,
      "hit": false,
      "t": 247828.26738541687,
      "d": 48.91293749999022,
      "v": 62
    },
    {
      "midi": 74,
      "hit": false,
      "t": 247828.26738541687,
      "d": 57.06509374998859,
      "v": 62
    },
    {
      "midi": 78,
      "hit": false,
      "t": 247999.46266666666,
      "d": 78.80417708333698,
      "v": 78
    },
    {
      "midi": 78,
      "hit": false,
      "t": 247999.46266666686,
      "d": 51.63032291669515,
      "v": 62
    },
    {
      "midi": 74,
      "hit": false,
      "t": 247999.46266666686,
      "d": 57.065093750017695,
      "v": 62
    },
    {
      "midi": 81,
      "hit": false,
      "t": 248002.18005208354,
      "d": 38.04339583334513,
      "v": 62
    },
    {
      "midi": 74,
      "hit": false,
      "t": 248173.37533333333,
      "d": 76.08679166666116,
      "v": 79
    },
    {
      "midi": 81,
      "hit": false,
      "t": 248173.37533333353,
      "d": 51.630322916666046,
      "v": 62
    },
    {
      "midi": 74,
      "hit": false,
      "t": 248173.37533333353,
      "d": 54.34770833334187,
      "v": 62
    },
    {
      "midi": 78,
      "hit": false,
      "t": 248173.37533333353,
      "d": 57.065093750017695,
      "v": 62
    },
    {
      "midi": 81,
      "hit": false,
      "t": 248347.288,
      "d": 95.10848958333372,
      "v": 79
    },
    {
      "midi": 78,
      "hit": false,
      "t": 248347.2880000002,
      "d": 57.065093750017695,
      "v": 62
    },
    {
      "midi": 74,
      "hit": false,
      "t": 248347.2880000002,
      "d": 59.78247916669352,
      "v": 62
    },
    {
      "midi": 81,
      "hit": false,
      "t": 248350.00538541688,
      "d": 51.630322916666046,
      "v": 62
    },
    {
      "midi": 78,
      "hit": false,
      "t": 248521.20066666667,
      "d": 84.23894791665953,
      "v": 72
    },
    {
      "midi": 78,
      "hit": false,
      "t": 248521.2006666669,
      "d": 57.065093750017695,
      "v": 62
    },
    {
      "midi": 74,
      "hit": false,
      "t": 248521.2006666669,
      "d": 59.78247916669352,
      "v": 62
    },
    {
      "midi": 81,
      "hit": false,
      "t": 248523.91805208358,
      "d": 51.630322916666046,
      "v": 62
    },
    {
      "midi": 74,
      "hit": false,
      "t": 248695.11333333334,
      "d": 78.80417708333698,
      "v": 77
    },
    {
      "midi": 78,
      "hit": false,
      "t": 248695.1133333336,
      "d": 57.065093750017695,
      "v": 62
    },
    {
      "midi": 74,
      "hit": false,
      "t": 248695.1133333336,
      "d": 65.21725000001607,
      "v": 62
    },
    {
      "midi": 81,
      "hit": false,
      "t": 248697.83071875028,
      "d": 54.34770833334187,
      "v": 62
    },
    {
      "midi": 81,
      "hit": false,
      "t": 248869.026,
      "d": 103.26064583333209,
      "v": 76
    },
    {
      "midi": 81,
      "hit": false,
      "t": 248869.02600000027,
      "d": 48.91293749999022,
      "v": 62
    },
    {
      "midi": 78,
      "hit": false,
      "t": 248869.02600000027,
      "d": 54.34770833331277,
      "v": 62
    },
    {
      "midi": 74,
      "hit": false,
      "t": 248869.02600000027,
      "d": 59.78247916663531,
      "v": 62
    },
    {
      "midi": 78,
      "hit": false,
      "t": 249040.22128125,
      "d": 95.10848958333372,
      "v": 78
    },
    {
      "midi": 81,
      "hit": false,
      "t": 249042.93866666692,
      "d": 51.630322916666046,
      "v": 62
    },
    {
      "midi": 78,
      "hit": false,
      "t": 249042.93866666692,
      "d": 57.06509374998859,
      "v": 62
    },
    {
      "midi": 74,
      "hit": false,
      "t": 249042.93866666692,
      "d": 62.49986458331114,
      "v": 62
    },
    {
      "midi": 74,
      "hit": false,
      "t": 249216.85133333335,
      "d": 89.67371875001118,
      "v": 76
    },
    {
      "midi": 78,
      "hit": false,
      "t": 249216.85133333356,
      "d": 54.34770833334187,
      "v": 62
    },
    {
      "midi": 81,
      "hit": false,
      "t": 249219.56871875023,
      "d": 43.478166666667676,
      "v": 62
    },
    {
      "midi": 74,
      "hit": false,
      "t": 249219.56871875023,
      "d": 57.06509374998859,
      "v": 62
    },
    {
      "midi": 81,
      "hit": false,
      "t": 249390.76400000002,
      "d": 100.54326041665627,
      "v": 73
    },
    {
      "midi": 78,
      "hit": false,
      "t": 249390.76400000023,
      "d": 57.065093750017695,
      "v": 62
    },
    {
      "midi": 74,
      "hit": false,
      "t": 249390.76400000023,
      "d": 65.21725000001607,
      "v": 62
    },
    {
      "midi": 81,
      "hit": false,
      "t": 249393.4813854169,
      "d": 51.630322916666046,
      "v": 62
    },
    {
      "midi": 78,
      "hit": false,
      "t": 249561.95928125002,
      "d": 89.67371875001118,
      "v": 72
    },
    {
      "midi": 81,
      "hit": false,
      "t": 249564.6766666669,
      "d": 48.91293749999022,
      "v": 62
    },
    {
      "midi": 78,
      "hit": false,
      "t": 249564.6766666669,
      "d": 54.34770833331277,
      "v": 62
    },
    {
      "midi": 74,
      "hit": false,
      "t": 249564.6766666669,
      "d": 67.93463541663368,
      "v": 62
    },
    {
      "midi": 74,
      "hit": false,
      "t": 249735.8719479167,
      "d": 84.23894791665953,
      "v": 76
    },
    {
      "midi": 78,
      "hit": false,
      "t": 249738.58933333354,
      "d": 57.065093750017695,
      "v": 62
    },
    {
      "midi": 74,
      "hit": false,
      "t": 249738.58933333354,
      "d": 62.49986458334024,
      "v": 62
    },
    {
      "midi": 81,
      "hit": false,
      "t": 249741.30671875022,
      "d": 51.630322916666046,
      "v": 62
    },
    {
      "midi": 81,
      "hit": false,
      "t": 249909.78461458336,
      "d": 103.26064583333209,
      "v": 70
    },
    {
      "midi": 78,
      "hit": false,
      "t": 249912.5020000002,
      "d": 65.21725000001607,
      "v": 62
    },
    {
      "midi": 81,
      "hit": false,
      "t": 249915.2193854169,
      "d": 54.34770833334187,
      "v": 62
    },
    {
      "midi": 74,
      "hit": false,
      "t": 249915.2193854169,
      "d": 65.21725000001607,
      "v": 62
    },
    {
      "midi": 78,
      "hit": false,
      "t": 250083.69728125003,
      "d": 86.95633333333535,
      "v": 74
    },
    {
      "midi": 81,
      "hit": false,
      "t": 250089.13205208356,
      "d": 43.478166666667676,
      "v": 62
    },
    {
      "midi": 78,
      "hit": false,
      "t": 250089.13205208356,
      "d": 51.630322916666046,
      "v": 62
    },
    {
      "midi": 74,
      "hit": false,
      "t": 250089.13205208356,
      "d": 57.06509374998859,
      "v": 62
    },
    {
      "midi": 74,
      "hit": false,
      "t": 250257.6099479167,
      "d": 89.67371875001118,
      "v": 71
    },
    {
      "midi": 81,
      "hit": false,
      "t": 250263.0447187502,
      "d": 54.34770833334187,
      "v": 62
    },
    {
      "midi": 78,
      "hit": false,
      "t": 250263.0447187502,
      "d": 57.065093750017695,
      "v": 62
    },
    {
      "midi": 74,
      "hit": false,
      "t": 250263.0447187502,
      "d": 62.49986458334024,
      "v": 62
    },
    {
      "midi": 81,
      "hit": false,
      "t": 250431.52261458337,
      "d": 103.26064583333209,
      "v": 76
    },
    {
      "midi": 81,
      "hit": false,
      "t": 250436.95738541687,
      "d": 54.34770833334187,
      "v": 62
    },
    {
      "midi": 74,
      "hit": false,
      "t": 250436.95738541687,
      "d": 62.49986458334024,
      "v": 62
    },
    {
      "midi": 78,
      "hit": false,
      "t": 250436.95738541687,
      "d": 62.49986458334024,
      "v": 62
    },
    {
      "midi": 78,
      "hit": false,
      "t": 250605.43528125004,
      "d": 76.08679166666116,
      "v": 61
    },
    {
      "midi": 78,
      "hit": false,
      "t": 250608.15266666687,
      "d": 62.49986458334024,
      "v": 62
    },
    {
      "midi": 81,
      "hit": false,
      "t": 250610.87005208354,
      "d": 54.34770833334187,
      "v": 62
    },
    {
      "midi": 74,
      "hit": false,
      "t": 250610.87005208354,
      "d": 65.21724999998696,
      "v": 62
    },
    {
      "midi": 74,
      "hit": false,
      "t": 250779.3479479167,
      "d": 78.80417708333698,
      "v": 67
    },
    {
      "midi": 78,
      "hit": false,
      "t": 250782.06533333354,
      "d": 62.49986458334024,
      "v": 62
    },
    {
      "midi": 81,
      "hit": false,
      "t": 250784.7827187502,
      "d": 46.1955520833435,
      "v": 62
    },
    {
      "midi": 74,
      "hit": false,
      "t": 250784.7827187502,
      "d": 62.49986458334024,
      "v": 62
    },
    {
      "midi": 81,
      "hit": false,
      "t": 250953.26061458339,
      "d": 111.41280208333046,
      "v": 74
    },
    {
      "midi": 78,
      "hit": false,
      "t": 250955.9780000002,
      "d": 59.782479166664416,
      "v": 62
    },
    {
      "midi": 81,
      "hit": false,
      "t": 250958.69538541688,
      "d": 51.630322916666046,
      "v": 62
    },
    {
      "midi": 74,
      "hit": false,
      "t": 250958.69538541688,
      "d": 59.782479166664416,
      "v": 62
    },
    {
      "midi": 78,
      "hit": false,
      "t": 251127.17328125006,
      "d": 92.3911041666579,
      "v": 68
    },
    {
      "midi": 78,
      "hit": false,
      "t": 251127.1732812502,
      "d": 54.34770833334187,
      "v": 62
    },
    {
      "midi": 81,
      "hit": false,
      "t": 251129.89066666688,
      "d": 48.91293749999022,
      "v": 62
    },
    {
      "midi": 74,
      "hit": false,
      "t": 251129.89066666688,
      "d": 59.782479166664416,
      "v": 62
    },
    {
      "midi": 74,
      "hit": false,
      "t": 251301.08594791673,
      "d": 76.08679166666116,
      "v": 69
    },
    {
      "midi": 81,
      "hit": false,
      "t": 251301.08594791687,
      "d": 48.91293749999022,
      "v": 62
    },
    {
      "midi": 78,
      "hit": false,
      "t": 251301.08594791687,
      "d": 57.06509374998859,
      "v": 62
    },
    {
      "midi": 74,
      "hit": false,
      "t": 251301.08594791687,
      "d": 65.21724999998696,
      "v": 62
    },
    {
      "midi": 81,
      "hit": false,
      "t": 251474.9986145834,
      "d": 103.26064583333209,
      "v": 76
    },
    {
      "midi": 73,
      "hit": false,
      "t": 251480.43338541687,
      "d": 48.912937500019325,
      "v": 62
    },
    {
      "midi": 76,
      "hit": false,
      "t": 251480.43338541687,
      "d": 51.63032291669515,
      "v": 62
    },
    {
      "midi": 81,
      "hit": false,
      "t": 251483.15077083354,
      "d": 48.912937500019325,
      "v": 62
    },
    {
      "midi": 76,
      "hit": false,
      "t": 251648.91128125007,
      "d": 92.3911041666579,
      "v": 66
    },
    {
      "midi": 73,
      "hit": false,
      "t": 251654.34605208357,
      "d": 54.34770833334187,
      "v": 62
    },
    {
      "midi": 76,
      "hit": false,
      "t": 251654.34605208357,
      "d": 54.34770833334187,
      "v": 62
    },
    {
      "midi": 81,
      "hit": false,
      "t": 251657.06343750024,
      "d": 40.76078124999185,
      "v": 62
    },
    {
      "midi": 73,
      "hit": false,
      "t": 251822.82394791674,
      "d": 67.93463541666279,
      "v": 76
    },
    {
      "midi": 73,
      "hit": false,
      "t": 251828.25871875024,
      "d": 54.34770833334187,
      "v": 62
    },
    {
      "midi": 76,
      "hit": false,
      "t": 251828.25871875024,
      "d": 57.065093750017695,
      "v": 62
    },
    {
      "midi": 81,
      "hit": false,
      "t": 251828.25871875024,
      "d": 57.065093750017695,
      "v": 62
    },
    {
      "midi": 81,
      "hit": false,
      "t": 251996.7366145834,
      "d": 108.69541666665464,
      "v": 76
    },
    {
      "midi": 73,
      "hit": false,
      "t": 252002.1713854169,
      "d": 51.630322916666046,
      "v": 62
    },
    {
      "midi": 76,
      "hit": false,
      "t": 252002.1713854169,
      "d": 59.782479166664416,
      "v": 62
    },
    {
      "midi": 81,
      "hit": false,
      "t": 252004.88877083358,
      "d": 48.91293749999022,
      "v": 62
    },
    {
      "midi": 76,
      "hit": false,
      "t": 252170.64928125005,
      "d": 89.67371875001118,
      "v": 67
    },
    {
      "midi": 73,
      "hit": false,
      "t": 252176.08405208358,
      "d": 48.912937500019325,
      "v": 62
    },
    {
      "midi": 76,
      "hit": false,
      "t": 252176.08405208358,
      "d": 48.912937500019325,
      "v": 62
    },
    {
      "midi": 81,
      "hit": false,
      "t": 252178.80143750025,
      "d": 46.1955520833435,
      "v": 62
    },
    {
      "midi": 73,
      "hit": false,
      "t": 252344.56194791672,
      "d": 73.36940625001444,
      "v": 72
    },
    {
      "midi": 73,
      "hit": false,
      "t": 252349.99671875028,
      "d": 46.1955520833435,
      "v": 62
    },
    {
      "midi": 76,
      "hit": false,
      "t": 252349.99671875028,
      "d": 54.34770833334187,
      "v": 62
    },
    {
      "midi": 81,
      "hit": false,
      "t": 252349.99671875028,
      "d": 54.34770833334187,
      "v": 62
    },
    {
      "midi": 81,
      "hit": false,
      "t": 252518.4746145834,
      "d": 119.56495833332883,
      "v": 74
    },
    {
      "midi": 73,
      "hit": false,
      "t": 252523.90938541695,
      "d": 54.34770833334187,
      "v": 62
    },
    {
      "midi": 81,
      "hit": false,
      "t": 252523.90938541695,
      "d": 57.065093750017695,
      "v": 62
    },
    {
      "midi": 76,
      "hit": false,
      "t": 252523.90938541695,
      "d": 59.78247916669352,
      "v": 62
    },
    {
      "midi": 76,
      "hit": false,
      "t": 252695.1046666667,
      "d": 78.80417708333698,
      "v": 59
    },
    {
      "midi": 76,
      "hit": false,
      "t": 252697.82205208365,
      "d": 46.1955520833435,
      "v": 62
    },
    {
      "midi": 81,
      "hit": false,
      "t": 252697.82205208365,
      "d": 46.1955520833435,
      "v": 62
    },
    {
      "midi": 73,
      "hit": false,
      "t": 252697.82205208365,
      "d": 48.912937500019325,
      "v": 62
    },
    {
      "midi": 73,
      "hit": false,
      "t": 252866.2999479167,
      "d": 78.80417708333698,
      "v": 72
    },
    {
      "midi": 76,
      "hit": false,
      "t": 252871.73471875035,
      "d": 51.630322916666046,
      "v": 62
    },
    {
      "midi": 81,
      "hit": false,
      "t": 252871.73471875035,
      "d": 51.630322916666046,
      "v": 62
    },
    {
      "midi": 73,
      "hit": false,
      "t": 252871.73471875035,
      "d": 54.34770833334187,
      "v": 62
    },
    {
      "midi": 81,
      "hit": false,
      "t": 253042.93000000005,
      "d": 103.26064583333209,
      "v": 79
    },
    {
      "midi": 81,
      "hit": false,
      "t": 253045.64738541702,
      "d": 54.34770833334187,
      "v": 62
    },
    {
      "midi": 76,
      "hit": false,
      "t": 253045.64738541702,
      "d": 57.065093750017695,
      "v": 62
    },
    {
      "midi": 73,
      "hit": false,
      "t": 253045.64738541702,
      "d": 59.78247916669352,
      "v": 62
    },
    {
      "midi": 76,
      "hit": false,
      "t": 253216.84266666672,
      "d": 89.67371875001118,
      "v": 64
    },
    {
      "midi": 73,
      "hit": false,
      "t": 253216.84266666704,
      "d": 59.78247916669352,
      "v": 62
    },
    {
      "midi": 76,
      "hit": false,
      "t": 253219.56005208372,
      "d": 54.34770833334187,
      "v": 62
    },
    {
      "midi": 81,
      "hit": false,
      "t": 253219.56005208372,
      "d": 59.78247916669352,
      "v": 62
    },
    {
      "midi": 73,
      "hit": false,
      "t": 253390.7553333334,
      "d": 67.93463541666279,
      "v": 66
    },
    {
      "midi": 73,
      "hit": false,
      "t": 253390.75533333374,
      "d": 59.78247916669352,
      "v": 62
    },
    {
      "midi": 76,
      "hit": false,
      "t": 253393.47271875042,
      "d": 54.34770833334187,
      "v": 62
    },
    {
      "midi": 81,
      "hit": false,
      "t": 253393.47271875042,
      "d": 62.49986458334024,
      "v": 62
    },
    {
      "midi": 81,
      "hit": false,
      "t": 253564.66800000006,
      "d": 114.13018750000629,
      "v": 76
    },
    {
      "midi": 76,
      "hit": false,
      "t": 253567.3853854171,
      "d": 46.1955520833435,
      "v": 62
    },
    {
      "midi": 73,
      "hit": false,
      "t": 253567.3853854171,
      "d": 51.630322916666046,
      "v": 62
    },
    {
      "midi": 81,
      "hit": false,
      "t": 253567.3853854171,
      "d": 51.630322916666046,
      "v": 62
    },
    {
      "midi": 76,
      "hit": false,
      "t": 253738.58066666673,
      "d": 84.23894791665953,
      "v": 62
    },
    {
      "midi": 76,
      "hit": false,
      "t": 253741.29805208376,
      "d": 40.76078124999185,
      "v": 62
    },
    {
      "midi": 73,
      "hit": false,
      "t": 253741.29805208376,
      "d": 48.91293749999022,
      "v": 62
    },
    {
      "midi": 81,
      "hit": false,
      "t": 253741.29805208376,
      "d": 51.630322916666046,
      "v": 62
    },
    {
      "midi": 73,
      "hit": false,
      "t": 253909.77594791673,
      "d": 67.93463541666279,
      "v": 64
    },
    {
      "midi": 81,
      "hit": false,
      "t": 253912.49333333375,
      "d": 57.065093750017695,
      "v": 62
    },
    {
      "midi": 73,
      "hit": false,
      "t": 253915.21071875043,
      "d": 40.76078124999185,
      "v": 62
    },
    {
      "midi": 76,
      "hit": false,
      "t": 253915.21071875043,
      "d": 43.478166666667676,
      "v": 62
    },
    {
      "midi": 81,
      "hit": false,
      "t": 254083.6886145834,
      "d": 103.26064583333209,
      "v": 79
    },
    {
      "midi": 76,
      "hit": false,
      "t": 254086.40600000042,
      "d": 54.34770833334187,
      "v": 62
    },
    {
      "midi": 73,
      "hit": false,
      "t": 254086.40600000042,
      "d": 57.065093750017695,
      "v": 62
    },
    {
      "midi": 81,
      "hit": false,
      "t": 254086.40600000042,
      "d": 65.21725000001607,
      "v": 62
    },
    {
      "midi": 76,
      "hit": false,
      "t": 254257.60128125007,
      "d": 86.95633333333535,
      "v": 67
    },
    {
      "midi": 73,
      "hit": false,
      "t": 254260.3186666671,
      "d": 57.065093750017695,
      "v": 62
    },
    {
      "midi": 76,
      "hit": false,
      "t": 254263.03605208377,
      "d": 57.065093750017695,
      "v": 62
    },
    {
      "midi": 81,
      "hit": false,
      "t": 254263.03605208377,
      "d": 62.49986458334024,
      "v": 62
    },
    {
      "midi": 73,
      "hit": false,
      "t": 254431.51394791674,
      "d": 70.65202083333861,
      "v": 66
    },
    {
      "midi": 73,
      "hit": false,
      "t": 254436.94871875044,
      "d": 51.630322916666046,
      "v": 62
    },
    {
      "midi": 76,
      "hit": false,
      "t": 254436.94871875044,
      "d": 51.630322916666046,
      "v": 62
    },
    {
      "midi": 81,
      "hit": false,
      "t": 254436.94871875044,
      "d": 57.06509374998859,
      "v": 62
    },
    {
      "midi": 81,
      "hit": false,
      "t": 254605.4266145834,
      "d": 111.41280208333046,
      "v": 73
    },
    {
      "midi": 76,
      "hit": false,
      "t": 254610.86138541708,
      "d": 51.630322916666046,
      "v": 62
    },
    {
      "midi": 73,
      "hit": false,
      "t": 254610.86138541708,
      "d": 54.34770833334187,
      "v": 62
    },
    {
      "midi": 81,
      "hit": false,
      "t": 254610.86138541708,
      "d": 54.34770833334187,
      "v": 62
    },
    {
      "midi": 76,
      "hit": false,
      "t": 254779.33928125008,
      "d": 95.10848958333372,
      "v": 60
    },
    {
      "midi": 76,
      "hit": false,
      "t": 254784.77405208375,
      "d": 46.1955520833435,
      "v": 62
    },
    {
      "midi": 73,
      "hit": false,
      "t": 254784.77405208375,
      "d": 51.630322916666046,
      "v": 62
    },
    {
      "midi": 81,
      "hit": false,
      "t": 254784.77405208375,
      "d": 54.34770833334187,
      "v": 62
    },
    {
      "midi": 73,
      "hit": false,
      "t": 254953.25194791675,
      "d": 73.36940625001444,
      "v": 68
    },
    {
      "midi": 76,
      "hit": false,
      "t": 254955.96933333375,
      "d": 54.34770833334187,
      "v": 62
    },
    {
      "midi": 81,
      "hit": false,
      "t": 254955.96933333375,
      "d": 54.34770833334187,
      "v": 62
    },
    {
      "midi": 73,
      "hit": false,
      "t": 254955.96933333375,
      "d": 59.782479166664416,
      "v": 62
    },
    {
      "midi": 81,
      "hit": false,
      "t": 255127.16461458342,
      "d": 108.69541666665464,
      "v": 73
    },
    {
      "midi": 73,
      "hit": false,
      "t": 255129.88200000042,
      "d": 65.21725000001607,
      "v": 62
    },
    {
      "midi": 76,
      "hit": false,
      "t": 255129.88200000042,
      "d": 65.21725000001607,
      "v": 62
    },
    {
      "midi": 81,
      "hit": false,
      "t": 255132.5993854171,
      "d": 59.782479166664416,
      "v": 62
    },
    {
      "midi": 76,
      "hit": false,
      "t": 255301.07728125007,
      "d": 108.69541666665464,
      "v": 64
    },
    {
      "midi": 73,
      "hit": false,
      "t": 255301.07728125044,
      "d": 48.912937500019325,
      "v": 62
    },
    {
      "midi": 76,
      "hit": false,
      "t": 255301.07728125044,
      "d": 54.34770833334187,
      "v": 62
    },
    {
      "midi": 81,
      "hit": false,
      "t": 255303.79466666712,
      "d": 43.478166666667676,
      "v": 62
    },
    {
      "midi": 73,
      "hit": false,
      "t": 255474.9899479167,
      "d": 70.65202083333861,
      "v": 66
    },
    {
      "midi": 76,
      "hit": false,
      "t": 255474.9899479171,
      "d": 59.782479166664416,
      "v": 62
    },
    {
      "midi": 73,
      "hit": false,
      "t": 255474.9899479171,
      "d": 62.49986458334024,
      "v": 62
    },
    {
      "midi": 81,
      "hit": false,
      "t": 255477.7073333338,
      "d": 51.630322916666046,
      "v": 62
    },
    {
      "midi": 81,
      "hit": false,
      "t": 255648.90261458338,
      "d": 97.82587500000955,
      "v": 76
    },
    {
      "midi": 81,
      "hit": false,
      "t": 255654.3373854171,
      "d": 43.478166666667676,
      "v": 62
    },
    {
      "midi": 75,
      "hit": false,
      "t": 255654.3373854171,
      "d": 48.91293749999022,
      "v": 62
    },
    {
      "midi": 78,
      "hit": false,
      "t": 255654.3373854171,
      "d": 51.630322916666046,
      "v": 62
    },
    {
      "midi": 78,
      "hit": false,
      "t": 255822.81528125005,
      "d": 100.54326041665627,
      "v": 58
    },
    {
      "midi": 75,
      "hit": false,
      "t": 255828.25005208378,
      "d": 59.782479166664416,
      "v": 62
    },
    {
      "midi": 78,
      "hit": false,
      "t": 255828.25005208378,
      "d": 59.782479166664416,
      "v": 62
    },
    {
      "midi": 81,
      "hit": false,
      "t": 255828.25005208378,
      "d": 62.49986458334024,
      "v": 62
    },
    {
      "midi": 75,
      "hit": false,
      "t": 255996.72794791672,
      "d": 78.80417708333698,
      "v": 64
    },
    {
      "midi": 78,
      "hit": false,
      "t": 256002.16271875045,
      "d": 43.478166666667676,
      "v": 62
    },
    {
      "midi": 75,
      "hit": false,
      "t": 256002.16271875045,
      "d": 51.630322916666046,
      "v": 62
    },
    {
      "midi": 81,
      "hit": false,
      "t": 256002.16271875045,
      "d": 70.65202083333861,
      "v": 62
    },
    {
      "midi": 81,
      "hit": false,
      "t": 256170.6406145834,
      "d": 100.54326041665627,
      "v": 69
    },
    {
      "midi": 75,
      "hit": false,
      "t": 256173.35800000044,
      "d": 65.21724999998696,
      "v": 62
    },
    {
      "midi": 78,
      "hit": false,
      "t": 256176.07538541712,
      "d": 48.91293749999022,
      "v": 62
    },
    {
      "midi": 81,
      "hit": false,
      "t": 256176.07538541712,
      "d": 65.21724999998696,
      "v": 62
    },
    {
      "midi": 78,
      "hit": false,
      "t": 256344.55328125006,
      "d": 86.95633333333535,
      "v": 61
    },
    {
      "midi": 78,
      "hit": false,
      "t": 256349.98805208376,
      "d": 40.76078124999185,
      "v": 62
    },
    {
      "midi": 75,
      "hit": false,
      "t": 256349.98805208376,
      "d": 57.06509374998859,
      "v": 62
    },
    {
      "midi": 81,
      "hit": false,
      "t": 256349.98805208376,
      "d": 62.49986458331114,
      "v": 62
    },
    {
      "midi": 75,
      "hit": false,
      "t": 256518.46594791673,
      "d": 73.36940625001444,
      "v": 70
    },
    {
      "midi": 75,
      "hit": false,
      "t": 256521.18333333373,
      "d": 65.21725000001607,
      "v": 62
    },
    {
      "midi": 78,
      "hit": false,
      "t": 256523.9007187504,
      "d": 43.478166666667676,
      "v": 62
    },
    {
      "midi": 81,
      "hit": false,
      "t": 256523.9007187504,
      "d": 54.34770833334187,
      "v": 62
    },
    {
      "midi": 81,
      "hit": false,
      "t": 256692.3786145834,
      "d": 105.97803125000792,
      "v": 73
    },
    {
      "midi": 78,
      "hit": false,
      "t": 256697.81338541707,
      "d": 48.91293749999022,
      "v": 62
    },
    {
      "midi": 75,
      "hit": false,
      "t": 256697.81338541707,
      "d": 51.630322916666046,
      "v": 62
    },
    {
      "midi": 81,
      "hit": false,
      "t": 256697.81338541707,
      "d": 62.49986458334024,
      "v": 62
    },
    {
      "midi": 78,
      "hit": false,
      "t": 256866.29128125007,
      "d": 97.82587500000955,
      "v": 53
    },
    {
      "midi": 75,
      "hit": false,
      "t": 256871.72605208374,
      "d": 48.91293749999022,
      "v": 62
    },
    {
      "midi": 78,
      "hit": false,
      "t": 256871.72605208374,
      "d": 48.91293749999022,
      "v": 62
    },
    {
      "midi": 81,
      "hit": false,
      "t": 256871.72605208374,
      "d": 54.34770833331277,
      "v": 62
    },
    {
      "midi": 75,
      "hit": false,
      "t": 257040.20394791674,
      "d": 78.80417708333698,
      "v": 70
    },
    {
      "midi": 78,
      "hit": false,
      "t": 257045.6387187504,
      "d": 46.1955520833435,
      "v": 62
    },
    {
      "midi": 75,
      "hit": false,
      "t": 257045.6387187504,
      "d": 48.912937500019325,
      "v": 62
    },
    {
      "midi": 81,
      "hit": false,
      "t": 257045.6387187504,
      "d": 54.34770833334187,
      "v": 62
    },
    {
      "midi": 81,
      "hit": false,
      "t": 257214.1166145834,
      "d": 114.13018750000629,
      "v": 69
    },
    {
      "midi": 75,
      "hit": false,
      "t": 257219.55138541706,
      "d": 48.91293749999022,
      "v": 62
    },
    {
      "midi": 78,
      "hit": false,
      "t": 257219.55138541706,
      "d": 48.91293749999022,
      "v": 62
    },
    {
      "midi": 81,
      "hit": false,
      "t": 257219.55138541706,
      "d": 51.630322916666046,
      "v": 62
    },
    {
      "midi": 78,
      "hit": false,
      "t": 257388.02928125008,
      "d": 108.69541666665464,
      "v": 56
    },
    {
      "midi": 78,
      "hit": false,
      "t": 257390.74666666705,
      "d": 43.47816666669678,
      "v": 62
    },
    {
      "midi": 75,
      "hit": false,
      "t": 257390.74666666705,
      "d": 48.912937500019325,
      "v": 62
    },
    {
      "midi": 81,
      "hit": false,
      "t": 257393.46405208373,
      "d": 10.869541666674195,
      "v": 62
    },
    {
      "midi": 75,
      "hit": false,
      "t": 257561.94194791673,
      "d": 70.65202083333861,
      "v": 72
    },
    {
      "midi": 75,
      "hit": false,
      "t": 257564.65933333375,
      "d": 59.782479166664416,
      "v": 62
    },
    {
      "midi": 78,
      "hit": false,
      "t": 257567.37671875043,
      "d": 51.630322916666046,
      "v": 62
    },
    {
      "midi": 81,
      "hit": false,
      "t": 257567.37671875043,
      "d": 59.782479166664416,
      "v": 62
    },
    {
      "midi": 81,
      "hit": false,
      "t": 257735.8546145834,
      "d": 111.41280208333046,
      "v": 60
    },
    {
      "midi": 81,
      "hit": false,
      "t": 257741.2893854171,
      "d": 59.782479166664416,
      "v": 62
    },
    {
      "midi": 74,
      "hit": false,
      "t": 257741.2893854171,
      "d": 65.21724999998696,
      "v": 62
    },
    {
      "midi": 77,
      "hit": false,
      "t": 257741.2893854171,
      "d": 65.21724999998696,
      "v": 62
    },
    {
      "midi": 77,
      "hit": false,
      "t": 257909.76728125007,
      "d": 108.69541666665464,
      "v": 59
    },
    {
      "midi": 74,
      "hit": false,
      "t": 257912.4846666671,
      "d": 62.49986458334024,
      "v": 62
    },
    {
      "midi": 77,
      "hit": false,
      "t": 257912.4846666671,
      "d": 62.49986458334024,
      "v": 62
    },
    {
      "midi": 81,
      "hit": false,
      "t": 257915.20205208377,
      "d": 54.34770833334187,
      "v": 62
    },
    {
      "midi": 74,
      "hit": false,
      "t": 258083.6799479167,
      "d": 84.23894791665953,
      "v": 64
    },
    {
      "midi": 74,
      "hit": false,
      "t": 258086.39733333376,
      "d": 62.49986458334024,
      "v": 62
    },
    {
      "midi": 77,
      "hit": false,
      "t": 258086.39733333376,
      "d": 62.49986458334024,
      "v": 62
    },
    {
      "midi": 81,
      "hit": false,
      "t": 258086.39733333376,
      "d": 62.49986458334024,
      "v": 62
    },
    {
      "midi": 81,
      "hit": false,
      "t": 258257.59261458338,
      "d": 116.84757291665301,
      "v": 63
    },
    {
      "midi": 74,
      "hit": false,
      "t": 258260.31000000043,
      "d": 54.34770833334187,
      "v": 62
    },
    {
      "midi": 81,
      "hit": false,
      "t": 258260.31000000043,
      "d": 57.065093750017695,
      "v": 62
    },
    {
      "midi": 77,
      "hit": false,
      "t": 258260.31000000043,
      "d": 65.21725000001607,
      "v": 62
    },
    {
      "midi": 77,
      "hit": false,
      "t": 258431.50528125002,
      "d": 133.15188541667885,
      "v": 59
    },
    {
      "midi": 81,
      "hit": false,
      "t": 258434.2226666671,
      "d": 54.34770833334187,
      "v": 62
    },
    {
      "midi": 77,
      "hit": false,
      "t": 258434.2226666671,
      "d": 65.21725000001607,
      "v": 62
    },
    {
      "midi": 74,
      "hit": false,
      "t": 258436.94005208378,
      "d": 43.478166666667676,
      "v": 62
    },
    {
      "midi": 74,
      "hit": false,
      "t": 258605.4179479167,
      "d": 81.5215625000128,
      "v": 70
    },
    {
      "midi": 77,
      "hit": false,
      "t": 258608.13533333378,
      "d": 54.34770833334187,
      "v": 62
    },
    {
      "midi": 81,
      "hit": false,
      "t": 258608.13533333378,
      "d": 57.065093750017695,
      "v": 62
    },
    {
      "midi": 74,
      "hit": false,
      "t": 258608.13533333378,
      "d": 62.49986458334024,
      "v": 62
    },
    {
      "midi": 80,
      "hit": false,
      "t": 258779.33061458336,
      "d": 105.97803125000792,
      "v": 61
    },
    {
      "midi": 71,
      "hit": false,
      "t": 258779.33061458377,
      "d": 51.630322916666046,
      "v": 62
    },
    {
      "midi": 80,
      "hit": false,
      "t": 258779.33061458377,
      "d": 51.630322916666046,
      "v": 62
    },
    {
      "midi": 76,
      "hit": false,
      "t": 258779.33061458377,
      "d": 54.34770833334187,
      "v": 62
    },
    {
      "midi": 76,
      "hit": false,
      "t": 258953.24328125003,
      "d": 130.43450000000303,
      "v": 59
    },
    {
      "midi": 80,
      "hit": false,
      "t": 258953.24328125044,
      "d": 48.91293749999022,
      "v": 62
    },
    {
      "midi": 71,
      "hit": false,
      "t": 258953.24328125044,
      "d": 51.630322916666046,
      "v": 62
    },
    {
      "midi": 76,
      "hit": false,
      "t": 258953.24328125044,
      "d": 57.06509374998859,
      "v": 62
    },
    {
      "midi": 71,
      "hit": false,
      "t": 259127.1559479167,
      "d": 119.56495833332883,
      "v": 62
    },
    {
      "midi": 71,
      "hit": false,
      "t": 259127.15594791708,
      "d": 46.1955520833435,
      "v": 62
    },
    {
      "midi": 80,
      "hit": false,
      "t": 259127.15594791708,
      "d": 51.630322916666046,
      "v": 62
    },
    {
      "midi": 76,
      "hit": false,
      "t": 259127.15594791708,
      "d": 59.782479166664416,
      "v": 62
    },
    {
      "midi": 80,
      "hit": false,
      "t": 259301.06861458338,
      "d": 108.69541666665464,
      "v": 58
    },
    {
      "midi": 80,
      "hit": false,
      "t": 259303.7860000004,
      "d": 43.478166666667676,
      "v": 62
    },
    {
      "midi": 71,
      "hit": false,
      "t": 259303.7860000004,
      "d": 48.91293749999022,
      "v": 62
    },
    {
      "midi": 76,
      "hit": false,
      "t": 259303.7860000004,
      "d": 51.630322916666046,
      "v": 62
    },
    {
      "midi": 76,
      "hit": false,
      "t": 259474.98128125002,
      "d": 130.43450000000303,
      "v": 69
    },
    {
      "midi": 80,
      "hit": false,
      "t": 259474.9812812504,
      "d": 40.76078124999185,
      "v": 62
    },
    {
      "midi": 76,
      "hit": false,
      "t": 259474.9812812504,
      "d": 51.630322916666046,
      "v": 62
    },
    {
      "midi": 71,
      "hit": false,
      "t": 259474.9812812504,
      "d": 54.34770833334187,
      "v": 62
    },
    {
      "midi": 71,
      "hit": false,
      "t": 259648.8939479167,
      "d": 78.80417708333698,
      "v": 59
    },
    {
      "midi": 76,
      "hit": false,
      "t": 259648.89394791707,
      "d": 67.93463541669189,
      "v": 62
    },
    {
      "midi": 80,
      "hit": false,
      "t": 259651.61133333374,
      "d": 54.34770833334187,
      "v": 62
    },
    {
      "midi": 71,
      "hit": false,
      "t": 259651.61133333374,
      "d": 57.065093750017695,
      "v": 62
    },
    {
      "midi": 81,
      "hit": false,
      "t": 259828.24138541668,
      "d": 105.97803125000792,
      "v": 58
    },
    {
      "midi": 76,
      "hit": false,
      "t": 259828.2413854171,
      "d": 48.91293749999022,
      "v": 62
    },
    {
      "midi": 81,
      "hit": false,
      "t": 259828.2413854171,
      "d": 48.91293749999022,
      "v": 62
    },
    {
      "midi": 73,
      "hit": false,
      "t": 259828.2413854171,
      "d": 54.34770833331277,
      "v": 62
    },
    {
      "midi": 76,
      "hit": false,
      "t": 259999.43666666668,
      "d": 111.41280208333046,
      "v": 47
    },
    {
      "midi": 73,
      "hit": false,
      "t": 259999.43666666705,
      "d": 46.1955520833435,
      "v": 62
    },
    {
      "midi": 76,
      "hit": false,
      "t": 259999.43666666705,
      "d": 54.34770833334187,
      "v": 62
    },
    {
      "midi": 81,
      "hit": false,
      "t": 260002.15405208373,
      "d": 29.89123958334676,
      "v": 62
    },
    {
      "midi": 73,
      "hit": false,
      "t": 260170.63194791667,
      "d": 89.67371875001118,
      "v": 44
    },
    {
      "midi": 81,
      "hit": false,
      "t": 260173.34933333372,
      "d": 51.630322916666046,
      "v": 62
    },
    {
      "midi": 73,
      "hit": false,
      "t": 260173.34933333372,
      "d": 57.06509374998859,
      "v": 62
    },
    {
      "midi": 76,
      "hit": false,
      "t": 260173.34933333372,
      "d": 59.782479166664416,
      "v": 62
    },
    {
      "midi": 81,
      "hit": false,
      "t": 260347.26200000002,
      "d": 111.41280208333046,
      "v": 59
    },
    {
      "midi": 73,
      "hit": false,
      "t": 260347.2620000004,
      "d": 57.06509374998859,
      "v": 62
    },
    {
      "midi": 76,
      "hit": false,
      "t": 260347.2620000004,
      "d": 59.782479166664416,
      "v": 62
    },
    {
      "midi": 81,
      "hit": false,
      "t": 260347.2620000004,
      "d": 59.782479166664416,
      "v": 62
    },
    {
      "midi": 76,
      "hit": false,
      "t": 260518.45728125,
      "d": 97.82587500000955,
      "v": 50
    },
    {
      "midi": 81,
      "hit": false,
      "t": 260521.17466666707,
      "d": 46.1955520833435,
      "v": 62
    },
    {
      "midi": 73,
      "hit": false,
      "t": 260521.17466666707,
      "d": 51.630322916666046,
      "v": 62
    },
    {
      "midi": 76,
      "hit": false,
      "t": 260521.17466666707,
      "d": 54.34770833334187,
      "v": 62
    },
    {
      "midi": 73,
      "hit": false,
      "t": 260692.36994791668,
      "d": 86.95633333333535,
      "v": 45
    },
    {
      "midi": 81,
      "hit": false,
      "t": 260695.08733333374,
      "d": 32.60862499999348,
      "v": 62
    },
    {
      "midi": 73,
      "hit": false,
      "t": 260695.08733333374,
      "d": 46.195552083314396,
      "v": 62
    },
    {
      "midi": 76,
      "hit": false,
      "t": 260695.08733333374,
      "d": 46.195552083314396,
      "v": 62
    },
    {
      "midi": 81,
      "hit": false,
      "t": 260866.28261458335,
      "d": 119.56495833332883,
      "v": 53
    },
    {
      "midi": 73,
      "hit": false,
      "t": 260869.00000000038,
      "d": 46.1955520833435,
      "v": 62
    },
    {
      "midi": 76,
      "hit": false,
      "t": 260869.00000000038,
      "d": 51.630322916666046,
      "v": 62
    },
    {
      "midi": 81,
      "hit": false,
      "t": 260869.00000000038,
      "d": 51.630322916666046,
      "v": 62
    },
    {
      "midi": 76,
      "hit": false,
      "t": 261040.19528125002,
      "d": 114.13018750000629,
      "v": 52
    },
    {
      "midi": 73,
      "hit": false,
      "t": 261040.19528125037,
      "d": 43.47816666669678,
      "v": 62
    },
    {
      "midi": 76,
      "hit": false,
      "t": 261040.19528125037,
      "d": 43.47816666669678,
      "v": 62
    },
    {
      "midi": 81,
      "hit": false,
      "t": 261042.91266666705,
      "d": 38.04339583334513,
      "v": 62
    },
    {
      "midi": 73,
      "hit": false,
      "t": 261214.1079479167,
      "d": 84.23894791665953,
      "v": 35
    },
    {
      "midi": 81,
      "hit": false,
      "t": 261214.10794791707,
      "d": 35.326010416669305,
      "v": 62
    },
    {
      "midi": 73,
      "hit": false,
      "t": 261214.10794791707,
      "d": 46.1955520833435,
      "v": 62
    },
    {
      "midi": 76,
      "hit": false,
      "t": 261214.10794791707,
      "d": 48.912937500019325,
      "v": 62
    },
    {
      "midi": 81,
      "hit": false,
      "t": 261388.02061458337,
      "d": 111.41280208333046,
      "v": 57
    },
    {
      "midi": 81,
      "hit": false,
      "t": 261388.02061458377,
      "d": 40.76078124999185,
      "v": 62
    },
    {
      "midi": 73,
      "hit": false,
      "t": 261388.02061458377,
      "d": 48.91293749999022,
      "v": 62
    },
    {
      "midi": 76,
      "hit": false,
      "t": 261388.02061458377,
      "d": 54.34770833331277,
      "v": 62
    },
    {
      "midi": 76,
      "hit": false,
      "t": 261561.93328125004,
      "d": 116.84757291665301,
      "v": 45
    },
    {
      "midi": 73,
      "hit": false,
      "t": 261561.9332812504,
      "d": 40.76078124999185,
      "v": 62
    },
    {
      "midi": 76,
      "hit": false,
      "t": 261561.9332812504,
      "d": 54.34770833331277,
      "v": 62
    },
    {
      "midi": 81,
      "hit": false,
      "t": 261564.6506666671,
      "d": 32.60862499999348,
      "v": 62
    },
    {
      "midi": 73,
      "hit": false,
      "t": 261735.84594791668,
      "d": 95.10848958333372,
      "v": 30
    },
    {
      "midi": 73,
      "hit": false,
      "t": 261735.84594791706,
      "d": 51.630322916666046,
      "v": 62
    },
    {
      "midi": 81,
      "hit": false,
      "t": 261735.84594791706,
      "d": 54.34770833334187,
      "v": 62
    },
    {
      "midi": 76,
      "hit": false,
      "t": 261735.84594791706,
      "d": 57.065093750017695,
      "v": 62
    },
    {
      "midi": 81,
      "hit": false,
      "t": 261909.75861458335,
      "d": 111.41280208333046,
      "v": 59
    },
    {
      "midi": 76,
      "hit": false,
      "t": 261912.4760000004,
      "d": 48.91293749999022,
      "v": 62
    },
    {
      "midi": 73,
      "hit": false,
      "t": 261912.4760000004,
      "d": 51.630322916666046,
      "v": 62
    },
    {
      "midi": 81,
      "hit": false,
      "t": 261912.4760000004,
      "d": 57.06509374998859,
      "v": 62
    },
    {
      "midi": 76,
      "hit": false,
      "t": 262083.67128125002,
      "d": 141.30404166667722,
      "v": 43
    },
    {
      "midi": 73,
      "hit": false,
      "t": 262086.38866666704,
      "d": 43.478166666667676,
      "v": 62
    },
    {
      "midi": 76,
      "hit": false,
      "t": 262086.38866666704,
      "d": 48.91293749999022,
      "v": 62
    },
    {
      "midi": 81,
      "hit": false,
      "t": 262086.38866666704,
      "d": 54.34770833331277,
      "v": 62
    },
    {
      "midi": 73,
      "hit": false,
      "t": 262257.5839479167,
      "d": 122.28234375000466,
      "v": 28
    },
    {
      "midi": 73,
      "hit": false,
      "t": 262260.3013333337,
      "d": 51.630322916666046,
      "v": 62
    },
    {
      "midi": 81,
      "hit": false,
      "t": 262260.3013333337,
      "d": 51.630322916666046,
      "v": 62
    },
    {
      "midi": 76,
      "hit": false,
      "t": 262260.3013333337,
      "d": 59.78247916669352,
      "v": 62
    },
    {
      "midi": 81,
      "hit": false,
      "t": 262434.21400000004,
      "d": 135.86927083332557,
      "v": 53
    },
    {
      "midi": 73,
      "hit": false,
      "t": 262434.2140000004,
      "d": 51.630322916666046,
      "v": 62
    },
    {
      "midi": 81,
      "hit": false,
      "t": 262434.2140000004,
      "d": 51.630322916666046,
      "v": 62
    },
    {
      "midi": 76,
      "hit": false,
      "t": 262434.2140000004,
      "d": 59.78247916669352,
      "v": 62
    },
    {
      "midi": 76,
      "hit": false,
      "t": 262605.40928125003,
      "d": 122.28234375000466,
      "v": 39
    },
    {
      "midi": 76,
      "hit": false,
      "t": 262605.40928125044,
      "d": 67.93463541666279,
      "v": 62
    },
    {
      "midi": 73,
      "hit": false,
      "t": 262608.1266666671,
      "d": 46.195552083314396,
      "v": 62
    },
    {
      "midi": 81,
      "hit": false,
      "t": 262608.1266666671,
      "d": 48.91293749999022,
      "v": 62
    },
    {
      "midi": 73,
      "hit": false,
      "t": 262779.3219479167,
      "d": 144.02142708335305,
      "v": 21
    },
    {
      "midi": 73,
      "hit": false,
      "t": 262782.0393333338,
      "d": 73.36940625001444,
      "v": 62
    },
    {
      "midi": 76,
      "hit": false,
      "t": 262782.0393333338,
      "d": 76.08679166669026,
      "v": 62
    },
    {
      "midi": 81,
      "hit": false,
      "t": 262782.0393333338,
      "d": 76.08679166669026,
      "v": 62
    },
    {
      "midi": 81,
      "hit": false,
      "t": 262953.2346145834,
      "d": 160.3257395833498,
      "v": 43
    },
    {
      "midi": 73,
      "hit": false,
      "t": 262953.2346145838,
      "d": 76.08679166669026,
      "v": 62
    },
    {
      "midi": 81,
      "hit": false,
      "t": 262955.95200000046,
      "d": 81.52156250004191,
      "v": 62
    },
    {
      "midi": 79,
      "hit": false,
      "t": 262955.95200000046,
      "d": 86.95633333339356,
      "v": 62
    },
    {
      "midi": 76,
      "hit": false,
      "t": 263127.14728125004,
      "d": 135.86927083332557,
      "v": 44
    },
    {
      "midi": 79,
      "hit": false,
      "t": 263127.1472812505,
      "d": 78.80417708330788,
      "v": 62
    },
    {
      "midi": 81,
      "hit": false,
      "t": 263129.8646666672,
      "d": 43.47816666663857,
      "v": 62
    },
    {
      "midi": 73,
      "hit": false,
      "t": 263129.8646666672,
      "d": 48.91293749999022,
      "v": 62
    },
    {
      "midi": 73,
      "hit": false,
      "t": 263301.0599479167,
      "d": 133.15188541664975,
      "v": 35
    },
    {
      "midi": 79,
      "hit": false,
      "t": 263301.0599479171,
      "d": 73.36940625001444,
      "v": 62
    },
    {
      "midi": 81,
      "hit": false,
      "t": 263303.7773333338,
      "d": 48.91293749999022,
      "v": 62
    },
    {
      "midi": 73,
      "hit": false,
      "t": 263303.7773333338,
      "d": 51.630322916666046,
      "v": 62
    },
    {
      "midi": 81,
      "hit": false,
      "t": 263474.9726145834,
      "d": 135.86927083332557,
      "v": 49
    },
    {
      "midi": 79,
      "hit": false,
      "t": 263474.9726145838,
      "d": 73.36940624995623,
      "v": 62
    },
    {
      "midi": 81,
      "hit": false,
      "t": 263477.69000000047,
      "d": 43.47816666663857,
      "v": 62
    },
    {
      "midi": 73,
      "hit": false,
      "t": 263477.69000000047,
      "d": 54.34770833328366,
      "v": 62
    },
    {
      "midi": 76,
      "hit": false,
      "t": 263648.88528125006,
      "d": 141.30404166667722,
      "v": 42
    },
    {
      "midi": 81,
      "hit": false,
      "t": 263651.6026666671,
      "d": 48.91293749999022,
      "v": 62
    },
    {
      "midi": 73,
      "hit": false,
      "t": 263651.6026666671,
      "d": 51.630322916666046,
      "v": 62
    },
    {
      "midi": 79,
      "hit": false,
      "t": 263651.6026666671,
      "d": 59.78247916669352,
      "v": 62
    },
    {
      "midi": 73,
      "hit": false,
      "t": 263822.7979479167,
      "d": 70.65202083333861,
      "v": 32
    },
    {
      "midi": 73,
      "hit": false,
      "t": 263825.51533333375,
      "d": 46.195552083314396,
      "v": 62
    },
    {
      "midi": 79,
      "hit": false,
      "t": 263825.51533333375,
      "d": 54.34770833334187,
      "v": 62
    },
    {
      "midi": 81,
      "hit": false,
      "t": 263825.51533333375,
      "d": 54.34770833334187,
      "v": 62
    },
    {
      "midi": 81,
      "hit": false,
      "t": 263999.4280000001,
      "d": 95.10848958330462,
      "v": 100
    },
    {
      "midi": 78,
      "hit": false,
      "t": 263999.4280000004,
      "d": 51.630322916666046,
      "v": 72
    },
    {
      "midi": 81,
      "hit": false,
      "t": 263999.4280000004,
      "d": 59.78247916669352,
      "v": 72
    },
    {
      "midi": 74,
      "hit": false,
      "t": 263999.4280000004,
      "d": 67.934635416721,
      "v": 72
    },
    {
      "midi": 78,
      "hit": false,
      "t": 264167.9058958334,
      "d": 103.26064583333209,
      "v": 89
    },
    {
      "midi": 78,
      "hit": false,
      "t": 264170.6232812505,
      "d": 59.78247916669352,
      "v": 72
    },
    {
      "midi": 74,
      "hit": false,
      "t": 264170.6232812505,
      "d": 62.499864583369344,
      "v": 72
    },
    {
      "midi": 81,
      "hit": false,
      "t": 264173.34066666715,
      "d": 54.34770833334187,
      "v": 72
    },
    {
      "midi": 74,
      "hit": false,
      "t": 264347.2533333338,
      "d": 54.34770833334187,
      "v": 72
    },
    {
      "midi": 78,
      "hit": false,
      "t": 264347.2533333338,
      "d": 59.78247916669352,
      "v": 72
    },
    {
      "midi": 81,
      "hit": false,
      "t": 264347.2533333338,
      "d": 59.78247916669352,
      "v": 72
    },
    {
      "midi": 74,
      "hit": false,
      "t": 264352.6881041667,
      "d": 105.97803125000792,
      "v": 87
    },
    {
      "midi": 74,
      "hit": false,
      "t": 264521.1660000005,
      "d": 86.95633333333535,
      "v": 72
    },
    {
      "midi": 78,
      "hit": false,
      "t": 264521.1660000005,
      "d": 89.67371875001118,
      "v": 72
    },
    {
      "midi": 81,
      "hit": false,
      "t": 264521.1660000005,
      "d": 92.391104166687,
      "v": 72
    },
    {
      "midi": 81,
      "hit": false,
      "t": 264537.4703125,
      "d": 100.54326041665627,
      "v": 92
    },
    {
      "midi": 74,
      "hit": false,
      "t": 265048.33877083386,
      "d": 57.065093750017695,
      "v": 72
    },
    {
      "midi": 77,
      "hit": false,
      "t": 265048.33877083386,
      "d": 59.78247916669352,
      "v": 72
    },
    {
      "midi": 81,
      "hit": false,
      "t": 265048.33877083386,
      "d": 67.934635416721,
      "v": 72
    },
    {
      "midi": 81,
      "hit": false,
      "t": 265070.0778541667,
      "d": 95.10848958330462,
      "v": 87
    },
    {
      "midi": 77,
      "hit": false,
      "t": 265219.5340520839,
      "d": 51.630322916666046,
      "v": 72
    },
    {
      "midi": 81,
      "hit": false,
      "t": 265219.5340520839,
      "d": 51.630322916666046,
      "v": 72
    },
    {
      "midi": 74,
      "hit": false,
      "t": 265222.2514375006,
      "d": 51.630322916666046,
      "v": 72
    },
    {
      "midi": 77,
      "hit": false,
      "t": 265224.9688229167,
      "d": 92.391104166687,
      "v": 77
    },
    {
      "midi": 74,
      "hit": false,
      "t": 265388.0119479167,
      "d": 89.67371875001118,
      "v": 85
    },
    {
      "midi": 77,
      "hit": false,
      "t": 265393.4467187506,
      "d": 54.34770833334187,
      "v": 72
    },
    {
      "midi": 74,
      "hit": false,
      "t": 265393.4467187506,
      "d": 57.065093750017695,
      "v": 72
    },
    {
      "midi": 81,
      "hit": false,
      "t": 265393.4467187506,
      "d": 62.499864583369344,
      "v": 72
    },
    {
      "midi": 74,
      "hit": false,
      "t": 265567.3593854173,
      "d": 73.36940625001444,
      "v": 72
    },
    {
      "midi": 77,
      "hit": false,
      "t": 265567.3593854173,
      "d": 73.36940625001444,
      "v": 72
    },
    {
      "midi": 81,
      "hit": false,
      "t": 265567.3593854173,
      "d": 73.36940625001444,
      "v": 72
    },
    {
      "midi": 81,
      "hit": false,
      "t": 265578.2289270834,
      "d": 95.10848958330462,
      "v": 100
    },
    {
      "midi": 81,
      "hit": false,
      "t": 266089.0973854173,
      "d": 48.91293749999022,
      "v": 72
    },
    {
      "midi": 73,
      "hit": false,
      "t": 266089.0973854173,
      "d": 57.065093750017695,
      "v": 72
    },
    {
      "midi": 76,
      "hit": false,
      "t": 266089.0973854173,
      "d": 57.065093750017695,
      "v": 72
    },
    {
      "midi": 81,
      "hit": false,
      "t": 266094.53215625003,
      "d": 100.54326041665627,
      "v": 98
    },
    {
      "midi": 76,
      "hit": false,
      "t": 266260.2926666667,
      "d": 122.28234375000466,
      "v": 80
    },
    {
      "midi": 81,
      "hit": false,
      "t": 266263.010052084,
      "d": 38.04339583334513,
      "v": 72
    },
    {
      "midi": 73,
      "hit": false,
      "t": 266263.010052084,
      "d": 40.760781250020955,
      "v": 72
    },
    {
      "midi": 76,
      "hit": false,
      "t": 266263.010052084,
      "d": 40.760781250020955,
      "v": 72
    },
    {
      "midi": 73,
      "hit": false,
      "t": 266423.3357916667,
      "d": 92.391104166687,
      "v": 74
    },
    {
      "midi": 73,
      "hit": false,
      "t": 266431.48794791737,
      "d": 46.195552083314396,
      "v": 72
    },
    {
      "midi": 81,
      "hit": false,
      "t": 266434.20533333404,
      "d": 48.91293749999022,
      "v": 72
    },
    {
      "midi": 76,
      "hit": false,
      "t": 266434.20533333404,
      "d": 51.630322916666046,
      "v": 72
    },
    {
      "midi": 81,
      "hit": false,
      "t": 266602.6832291667,
      "d": 114.13018749997718,
      "v": 91
    },
    {
      "midi": 73,
      "hit": false,
      "t": 266608.1180000007,
      "d": 57.065093750017695,
      "v": 72
    },
    {
      "midi": 76,
      "hit": false,
      "t": 266608.1180000007,
      "d": 65.21725000004517,
      "v": 72
    },
    {
      "midi": 81,
      "hit": false,
      "t": 266608.1180000007,
      "d": 73.36940625007264,
      "v": 72
    },
    {
      "midi": 81,
      "hit": false,
      "t": 267118.9864583334,
      "d": 111.41280208335957,
      "v": 90
    },
    {
      "midi": 78,
      "hit": false,
      "t": 267132.57338541746,
      "d": 40.760781250020955,
      "v": 72
    },
    {
      "midi": 81,
      "hit": false,
      "t": 267132.57338541746,
      "d": 40.760781250020955,
      "v": 72
    },
    {
      "midi": 75,
      "hit": false,
      "t": 267132.57338541746,
      "d": 46.195552083372604,
      "v": 72
    },
    {
      "midi": 78,
      "hit": false,
      "t": 267279.31219791673,
      "d": 95.10848958330462,
      "v": 75
    },
    {
      "midi": 78,
      "hit": false,
      "t": 267303.7686666675,
      "d": 43.47816666669678,
      "v": 72
    },
    {
      "midi": 75,
      "hit": false,
      "t": 267303.7686666675,
      "d": 46.195552083372604,
      "v": 72
    },
    {
      "midi": 81,
      "hit": false,
      "t": 267306.4860520842,
      "d": 40.760781250020955,
      "v": 72
    },
    {
      "midi": 75,
      "hit": false,
      "t": 267472.2465625,
      "d": 76.08679166669026,
      "v": 77
    },
    {
      "midi": 75,
      "hit": false,
      "t": 267477.68133333424,
      "d": 43.47816666663857,
      "v": 72
    },
    {
      "midi": 78,
      "hit": false,
      "t": 267477.68133333424,
      "d": 43.47816666663857,
      "v": 72
    },
    {
      "midi": 81,
      "hit": false,
      "t": 267477.68133333424,
      "d": 43.47816666663857,
      "v": 72
    },
    {
      "midi": 81,
      "hit": false,
      "t": 267651.59400000004,
      "d": 95.10848958330462,
      "v": 94
    },
    {
      "midi": 81,
      "hit": false,
      "t": 267651.59400000086,
      "d": 46.195552083314396,
      "v": 72
    },
    {
      "midi": 75,
      "hit": false,
      "t": 267651.59400000086,
      "d": 51.630322916666046,
      "v": 72
    },
    {
      "midi": 78,
      "hit": false,
      "t": 267651.59400000086,
      "d": 57.065093750017695,
      "v": 72
    },
    {
      "midi": 83,
      "hit": false,
      "t": 268157.0276875,
      "d": 103.26064583333209,
      "v": 90
    },
    {
      "midi": 75,
      "hit": false,
      "t": 268170.6146145842,
      "d": 48.91293749999022,
      "v": 72
    },
    {
      "midi": 78,
      "hit": false,
      "t": 268170.6146145842,
      "d": 51.630322916666046,
      "v": 72
    },
    {
      "midi": 83,
      "hit": false,
      "t": 268170.6146145842,
      "d": 59.78247916669352,
      "v": 72
    },
    {
      "midi": 78,
      "hit": false,
      "t": 268336.375125,
      "d": 95.10848958330462,
      "v": 81
    },
    {
      "midi": 75,
      "hit": false,
      "t": 268344.52728125086,
      "d": 43.47816666663857,
      "v": 72
    },
    {
      "midi": 78,
      "hit": false,
      "t": 268344.52728125086,
      "d": 43.47816666663857,
      "v": 72
    },
    {
      "midi": 83,
      "hit": false,
      "t": 268344.52728125086,
      "d": 54.34770833328366,
      "v": 72
    },
    {
      "midi": 75,
      "hit": false,
      "t": 268496.7008645833,
      "d": 92.391104166687,
      "v": 73
    },
    {
      "midi": 75,
      "hit": false,
      "t": 268518.4399479175,
      "d": 40.760781250020955,
      "v": 72
    },
    {
      "midi": 78,
      "hit": false,
      "t": 268518.4399479175,
      "d": 40.760781250020955,
      "v": 72
    },
    {
      "midi": 83,
      "hit": false,
      "t": 268518.4399479175,
      "d": 48.91293750004843,
      "v": 72
    },
    {
      "midi": 83,
      "hit": false,
      "t": 268692.35261458333,
      "d": 108.69541666668374,
      "v": 91
    },
    {
      "midi": 75,
      "hit": false,
      "t": 268692.3526145842,
      "d": 40.760781250020955,
      "v": 72
    },
    {
      "midi": 78,
      "hit": false,
      "t": 268692.3526145842,
      "d": 40.760781250020955,
      "v": 72
    },
    {
      "midi": 83,
      "hit": false,
      "t": 268692.3526145842,
      "d": 43.47816666669678,
      "v": 72
    },
    {
      "midi": 78,
      "hit": false,
      "t": 268852.6783541667,
      "d": 103.26064583333209,
      "v": 68
    },
    {
      "midi": 78,
      "hit": false,
      "t": 268866.2652812509,
      "d": 40.760781250020955,
      "v": 72
    },
    {
      "midi": 83,
      "hit": false,
      "t": 268866.2652812509,
      "d": 40.760781250020955,
      "v": 72
    },
    {
      "midi": 75,
      "hit": false,
      "t": 268866.2652812509,
      "d": 43.47816666669678,
      "v": 72
    },
    {
      "midi": 75,
      "hit": false,
      "t": 269032.0257916667,
      "d": 84.23894791665953,
      "v": 66
    },
    {
      "midi": 78,
      "hit": false,
      "t": 269040.17794791755,
      "d": 35.326010416669305,
      "v": 72
    },
    {
      "midi": 75,
      "hit": false,
      "t": 269040.17794791755,
      "d": 40.760781250020955,
      "v": 72
    },
    {
      "midi": 83,
      "hit": false,
      "t": 269040.17794791755,
      "d": 43.47816666669678,
      "v": 72
    },
    {
      "midi": 78,
      "hit": false,
      "t": 269214.0906145842,
      "d": 38.04339583334513,
      "v": 72
    },
    {
      "midi": 75,
      "hit": false,
      "t": 269214.0906145842,
      "d": 43.47816666669678,
      "v": 72
    },
    {
      "midi": 83,
      "hit": false,
      "t": 269214.0906145842,
      "d": 46.195552083372604,
      "v": 72
    },
    {
      "midi": 83,
      "hit": false,
      "t": 269216.808,
      "d": 105.97803125000792,
      "v": 87
    },
    {
      "midi": 78,
      "hit": false,
      "t": 269385.28589583334,
      "d": 100.54326041665627,
      "v": 70
    },
    {
      "midi": 83,
      "hit": false,
      "t": 269388.00328125095,
      "d": 35.326010416669305,
      "v": 72
    },
    {
      "midi": 75,
      "hit": false,
      "t": 269388.00328125095,
      "d": 40.760781250020955,
      "v": 72
    },
    {
      "midi": 78,
      "hit": false,
      "t": 269388.00328125095,
      "d": 40.760781250020955,
      "v": 72
    },
    {
      "midi": 75,
      "hit": false,
      "t": 269553.76379166666,
      "d": 76.08679166669026,
      "v": 71
    },
    {
      "midi": 75,
      "hit": false,
      "t": 269561.9159479176,
      "d": 43.47816666663857,
      "v": 72
    },
    {
      "midi": 78,
      "hit": false,
      "t": 269561.9159479176,
      "d": 43.47816666663857,
      "v": 72
    },
    {
      "midi": 83,
      "hit": false,
      "t": 269561.9159479176,
      "d": 48.91293749999022,
      "v": 72
    },
    {
      "midi": 75,
      "hit": false,
      "t": 269735.8286145843,
      "d": 40.760781250020955,
      "v": 72
    },
    {
      "midi": 78,
      "hit": false,
      "t": 269735.8286145843,
      "d": 43.47816666669678,
      "v": 72
    },
    {
      "midi": 83,
      "hit": false,
      "t": 269735.8286145843,
      "d": 43.47816666669678,
      "v": 72
    },
    {
      "midi": 83,
      "hit": false,
      "t": 269738.54600000003,
      "d": 111.41280208335957,
      "v": 87
    },
    {
      "midi": 78,
      "hit": false,
      "t": 269888.00219791674,
      "d": 144.02142708335305,
      "v": 68
    },
    {
      "midi": 75,
      "hit": false,
      "t": 269909.74128125096,
      "d": 43.47816666663857,
      "v": 72
    },
    {
      "midi": 78,
      "hit": false,
      "t": 269909.74128125096,
      "d": 43.47816666663857,
      "v": 72
    },
    {
      "midi": 83,
      "hit": false,
      "t": 269909.74128125096,
      "d": 51.630322916666046,
      "v": 72
    },
    {
      "midi": 75,
      "hit": false,
      "t": 270061.9148645834,
      "d": 78.80417708330788,
      "v": 89
    },
    {
      "midi": 75,
      "hit": false,
      "t": 270083.6539479176,
      "d": 43.47816666663857,
      "v": 72
    },
    {
      "midi": 78,
      "hit": false,
      "t": 270083.6539479176,
      "d": 43.47816666663857,
      "v": 72
    },
    {
      "midi": 83,
      "hit": false,
      "t": 270083.6539479176,
      "d": 43.47816666663857,
      "v": 72
    },
    {
      "midi": 76,
      "hit": false,
      "t": 270257.56661458424,
      "d": 54.34770833334187,
      "v": 72
    },
    {
      "midi": 71,
      "hit": false,
      "t": 270257.56661458424,
      "d": 65.21724999998696,
      "v": 72
    },
    {
      "midi": 80,
      "hit": false,
      "t": 270257.56661458424,
      "d": 67.93463541666279,
      "v": 72
    },
    {
      "midi": 81,
      "hit": false,
      "t": 272347.23600000003,
      "d": 86.95633333333535,
      "v": 71
    },
    {
      "midi": 78,
      "hit": false,
      "t": 272347.2360000009,
      "d": 54.34770833334187,
      "v": 62
    },
    {
      "midi": 74,
      "hit": false,
      "t": 272347.2360000009,
      "d": 62.499864583369344,
      "v": 62
    },
    {
      "midi": 81,
      "hit": false,
      "t": 272349.9533854176,
      "d": 43.47816666663857,
      "v": 62
    },
    {
      "midi": 78,
      "hit": false,
      "t": 272518.43128125,
      "d": 92.391104166687,
      "v": 64
    },
    {
      "midi": 81,
      "hit": false,
      "t": 272523.86605208425,
      "d": 29.891239583317656,
      "v": 62
    },
    {
      "midi": 78,
      "hit": false,
      "t": 272523.86605208425,
      "d": 46.195552083314396,
      "v": 62
    },
    {
      "midi": 74,
      "hit": false,
      "t": 272523.86605208425,
      "d": 48.91293749999022,
      "v": 62
    },
    {
      "midi": 74,
      "hit": false,
      "t": 272695.0613333334,
      "d": 86.95633333333535,
      "v": 74
    },
    {
      "midi": 78,
      "hit": false,
      "t": 272695.06133333425,
      "d": 57.065093750017695,
      "v": 62
    },
    {
      "midi": 74,
      "hit": false,
      "t": 272695.06133333425,
      "d": 62.499864583369344,
      "v": 62
    },
    {
      "midi": 81,
      "hit": false,
      "t": 272697.7787187509,
      "d": 46.195552083314396,
      "v": 62
    },
    {
      "midi": 81,
      "hit": false,
      "t": 272868.97400000005,
      "d": 97.82587499998044,
      "v": 81
    },
    {
      "midi": 78,
      "hit": false,
      "t": 272868.974000001,
      "d": 54.34770833334187,
      "v": 62
    },
    {
      "midi": 81,
      "hit": false,
      "t": 272871.69138541765,
      "d": 48.91293749999022,
      "v": 62
    },
    {
      "midi": 74,
      "hit": false,
      "t": 272871.69138541765,
      "d": 57.065093750017695,
      "v": 62
    },
    {
      "midi": 78,
      "hit": false,
      "t": 273042.8866666667,
      "d": 78.80417708330788,
      "v": 78
    },
    {
      "midi": 78,
      "hit": false,
      "t": 273042.88666666765,
      "d": 51.630322916666046,
      "v": 62
    },
    {
      "midi": 74,
      "hit": false,
      "t": 273042.88666666765,
      "d": 57.065093750017695,
      "v": 62
    },
    {
      "midi": 81,
      "hit": false,
      "t": 273045.6040520843,
      "d": 38.04339583334513,
      "v": 62
    },
    {
      "midi": 74,
      "hit": false,
      "t": 273216.7993333333,
      "d": 76.08679166669026,
      "v": 79
    },
    {
      "midi": 81,
      "hit": false,
      "t": 273216.7993333343,
      "d": 51.630322916666046,
      "v": 62
    },
    {
      "midi": 74,
      "hit": false,
      "t": 273216.7993333343,
      "d": 54.34770833334187,
      "v": 62
    },
    {
      "midi": 78,
      "hit": false,
      "t": 273216.7993333343,
      "d": 57.065093750017695,
      "v": 62
    },
    {
      "midi": 81,
      "hit": false,
      "t": 273390.712,
      "d": 95.10848958330462,
      "v": 79
    },
    {
      "midi": 78,
      "hit": false,
      "t": 273390.712000001,
      "d": 57.065093750017695,
      "v": 62
    },
    {
      "midi": 74,
      "hit": false,
      "t": 273390.712000001,
      "d": 59.78247916669352,
      "v": 62
    },
    {
      "midi": 81,
      "hit": false,
      "t": 273393.42938541766,
      "d": 51.630322916666046,
      "v": 62
    },
    {
      "midi": 78,
      "hit": false,
      "t": 273564.6246666666,
      "d": 84.23894791665953,
      "v": 72
    },
    {
      "midi": 78,
      "hit": false,
      "t": 273564.62466666766,
      "d": 57.065093750017695,
      "v": 62
    },
    {
      "midi": 74,
      "hit": false,
      "t": 273564.62466666766,
      "d": 59.78247916669352,
      "v": 62
    },
    {
      "midi": 81,
      "hit": false,
      "t": 273567.34205208434,
      "d": 51.630322916666046,
      "v": 62
    },
    {
      "midi": 74,
      "hit": false,
      "t": 273738.5373333333,
      "d": 78.80417708330788,
      "v": 77
    },
    {
      "midi": 78,
      "hit": false,
      "t": 273738.53733333433,
      "d": 57.065093750017695,
      "v": 62
    },
    {
      "midi": 74,
      "hit": false,
      "t": 273738.53733333433,
      "d": 65.21725000004517,
      "v": 62
    },
    {
      "midi": 81,
      "hit": false,
      "t": 273741.254718751,
      "d": 54.34770833334187,
      "v": 62
    },
    {
      "midi": 81,
      "hit": false,
      "t": 273912.4499999999,
      "d": 103.26064583333209,
      "v": 76
    },
    {
      "midi": 81,
      "hit": false,
      "t": 273912.45000000106,
      "d": 48.91293749999022,
      "v": 62
    },
    {
      "midi": 78,
      "hit": false,
      "t": 273912.45000000106,
      "d": 54.34770833334187,
      "v": 62
    },
    {
      "midi": 74,
      "hit": false,
      "t": 273912.45000000106,
      "d": 59.78247916669352,
      "v": 62
    },
    {
      "midi": 78,
      "hit": false,
      "t": 274083.6452812499,
      "d": 95.10848958330462,
      "v": 78
    },
    {
      "midi": 81,
      "hit": false,
      "t": 274086.36266666773,
      "d": 51.630322916666046,
      "v": 62
    },
    {
      "midi": 78,
      "hit": false,
      "t": 274086.36266666773,
      "d": 57.065093750017695,
      "v": 62
    },
    {
      "midi": 74,
      "hit": false,
      "t": 274086.36266666773,
      "d": 62.499864583369344,
      "v": 62
    },
    {
      "midi": 74,
      "hit": false,
      "t": 274260.2753333332,
      "d": 89.67371875001118,
      "v": 76
    },
    {
      "midi": 78,
      "hit": false,
      "t": 274260.27533333446,
      "d": 54.34770833334187,
      "v": 62
    },
    {
      "midi": 81,
      "hit": false,
      "t": 274262.99271875113,
      "d": 43.47816666663857,
      "v": 62
    },
    {
      "midi": 74,
      "hit": false,
      "t": 274262.99271875113,
      "d": 57.065093750017695,
      "v": 62
    },
    {
      "midi": 81,
      "hit": false,
      "t": 274434.18799999985,
      "d": 100.54326041665627,
      "v": 73
    },
    {
      "midi": 78,
      "hit": false,
      "t": 274434.18800000113,
      "d": 57.065093750017695,
      "v": 62
    },
    {
      "midi": 74,
      "hit": false,
      "t": 274434.18800000113,
      "d": 65.21725000004517,
      "v": 62
    },
    {
      "midi": 81,
      "hit": false,
      "t": 274436.9053854178,
      "d": 51.630322916666046,
      "v": 62
    },
    {
      "midi": 78,
      "hit": false,
      "t": 274605.38328124984,
      "d": 89.67371875001118,
      "v": 72
    },
    {
      "midi": 81,
      "hit": false,
      "t": 274608.10066666786,
      "d": 48.91293749999022,
      "v": 62
    },
    {
      "midi": 78,
      "hit": false,
      "t": 274608.10066666786,
      "d": 54.34770833334187,
      "v": 62
    },
    {
      "midi": 74,
      "hit": false,
      "t": 274608.10066666786,
      "d": 67.93463541666279,
      "v": 62
    },
    {
      "midi": 74,
      "hit": false,
      "t": 274779.2959479165,
      "d": 84.23894791665953,
      "v": 76
    },
    {
      "midi": 78,
      "hit": false,
      "t": 274782.01333333453,
      "d": 57.065093750017695,
      "v": 62
    },
    {
      "midi": 74,
      "hit": false,
      "t": 274782.01333333453,
      "d": 62.499864583369344,
      "v": 62
    },
    {
      "midi": 81,
      "hit": false,
      "t": 274784.7307187512,
      "d": 51.630322916666046,
      "v": 62
    },
    {
      "midi": 81,
      "hit": false,
      "t": 274953.2086145832,
      "d": 103.26064583333209,
      "v": 70
    },
    {
      "midi": 78,
      "hit": false,
      "t": 274955.92600000126,
      "d": 65.21725000004517,
      "v": 62
    },
    {
      "midi": 81,
      "hit": false,
      "t": 274958.64338541793,
      "d": 54.34770833334187,
      "v": 62
    },
    {
      "midi": 74,
      "hit": false,
      "t": 274958.64338541793,
      "d": 65.21725000004517,
      "v": 62
    },
    {
      "midi": 78,
      "hit": false,
      "t": 275127.12128124986,
      "d": 86.95633333333535,
      "v": 74
    },
    {
      "midi": 81,
      "hit": false,
      "t": 275132.55605208466,
      "d": 43.47816666663857,
      "v": 62
    },
    {
      "midi": 78,
      "hit": false,
      "t": 275132.55605208466,
      "d": 51.630322916666046,
      "v": 62
    },
    {
      "midi": 74,
      "hit": false,
      "t": 275132.55605208466,
      "d": 57.065093750017695,
      "v": 62
    },
    {
      "midi": 74,
      "hit": false,
      "t": 275301.0339479165,
      "d": 89.67371875001118,
      "v": 71
    },
    {
      "midi": 81,
      "hit": false,
      "t": 275306.46871875133,
      "d": 54.34770833334187,
      "v": 62
    },
    {
      "midi": 78,
      "hit": false,
      "t": 275306.46871875133,
      "d": 57.065093750017695,
      "v": 62
    },
    {
      "midi": 74,
      "hit": false,
      "t": 275306.46871875133,
      "d": 62.499864583369344,
      "v": 62
    },
    {
      "midi": 81,
      "hit": false,
      "t": 275474.9466145832,
      "d": 103.26064583333209,
      "v": 76
    },
    {
      "midi": 81,
      "hit": false,
      "t": 275480.38138541806,
      "d": 54.34770833334187,
      "v": 62
    },
    {
      "midi": 74,
      "hit": false,
      "t": 275480.38138541806,
      "d": 62.499864583369344,
      "v": 62
    },
    {
      "midi": 78,
      "hit": false,
      "t": 275480.38138541806,
      "d": 62.499864583369344,
      "v": 62
    },
    {
      "midi": 78,
      "hit": false,
      "t": 275648.85928124987,
      "d": 76.08679166669026,
      "v": 61
    },
    {
      "midi": 78,
      "hit": false,
      "t": 275651.5766666681,
      "d": 62.499864583369344,
      "v": 62
    },
    {
      "midi": 81,
      "hit": false,
      "t": 275654.2940520848,
      "d": 54.34770833334187,
      "v": 62
    },
    {
      "midi": 74,
      "hit": false,
      "t": 275654.2940520848,
      "d": 65.21725000004517,
      "v": 62
    },
    {
      "midi": 74,
      "hit": false,
      "t": 275822.77194791654,
      "d": 78.80417708330788,
      "v": 67
    },
    {
      "midi": 78,
      "hit": false,
      "t": 275825.48933333484,
      "d": 62.49986458331114,
      "v": 62
    },
    {
      "midi": 81,
      "hit": false,
      "t": 275828.2067187515,
      "d": 46.195552083314396,
      "v": 62
    },
    {
      "midi": 74,
      "hit": false,
      "t": 275828.2067187515,
      "d": 62.49986458331114,
      "v": 62
    },
    {
      "midi": 81,
      "hit": false,
      "t": 275996.68461458315,
      "d": 111.41280208335957,
      "v": 74
    },
    {
      "midi": 78,
      "hit": false,
      "t": 275999.4020000015,
      "d": 59.78247916669352,
      "v": 62
    },
    {
      "midi": 81,
      "hit": false,
      "t": 276002.1193854182,
      "d": 51.630322916666046,
      "v": 62
    },
    {
      "midi": 74,
      "hit": false,
      "t": 276002.1193854182,
      "d": 59.78247916669352,
      "v": 62
    },
    {
      "midi": 78,
      "hit": false,
      "t": 276170.5972812498,
      "d": 92.391104166687,
      "v": 68
    },
    {
      "midi": 78,
      "hit": false,
      "t": 276170.59728125157,
      "d": 54.34770833334187,
      "v": 62
    },
    {
      "midi": 81,
      "hit": false,
      "t": 276173.31466666824,
      "d": 48.91293749999022,
      "v": 62
    },
    {
      "midi": 74,
      "hit": false,
      "t": 276173.31466666824,
      "d": 59.78247916669352,
      "v": 62
    },
    {
      "midi": 74,
      "hit": false,
      "t": 276344.5099479165,
      "d": 76.08679166669026,
      "v": 69
    },
    {
      "midi": 81,
      "hit": false,
      "t": 276344.5099479183,
      "d": 48.91293749999022,
      "v": 62
    },
    {
      "midi": 78,
      "hit": false,
      "t": 276344.5099479183,
      "d": 57.065093750017695,
      "v": 62
    },
    {
      "midi": 74,
      "hit": false,
      "t": 276344.5099479183,
      "d": 65.21725000004517,
      "v": 62
    },
    {
      "midi": 81,
      "hit": false,
      "t": 276518.42261458316,
      "d": 103.26064583333209,
      "v": 76
    },
    {
      "midi": 73,
      "hit": false,
      "t": 276523.8573854183,
      "d": 48.91293749999022,
      "v": 62
    },
    {
      "midi": 76,
      "hit": false,
      "t": 276523.8573854183,
      "d": 51.630322916666046,
      "v": 62
    },
    {
      "midi": 81,
      "hit": false,
      "t": 276526.574770835,
      "d": 48.91293749999022,
      "v": 62
    },
    {
      "midi": 76,
      "hit": false,
      "t": 276692.33528124983,
      "d": 92.391104166687,
      "v": 66
    },
    {
      "midi": 73,
      "hit": false,
      "t": 276697.770052085,
      "d": 54.34770833334187,
      "v": 62
    },
    {
      "midi": 76,
      "hit": false,
      "t": 276697.770052085,
      "d": 54.34770833334187,
      "v": 62
    },
    {
      "midi": 81,
      "hit": false,
      "t": 276700.48743750167,
      "d": 40.760781250020955,
      "v": 62
    },
    {
      "midi": 73,
      "hit": false,
      "t": 276866.2479479165,
      "d": 67.93463541666279,
      "v": 76
    },
    {
      "midi": 73,
      "hit": false,
      "t": 276871.68271875166,
      "d": 54.34770833334187,
      "v": 62
    },
    {
      "midi": 76,
      "hit": false,
      "t": 276871.68271875166,
      "d": 57.065093750017695,
      "v": 62
    },
    {
      "midi": 81,
      "hit": false,
      "t": 276871.68271875166,
      "d": 57.065093750017695,
      "v": 62
    },
    {
      "midi": 81,
      "hit": false,
      "t": 277040.1606145832,
      "d": 108.69541666668374,
      "v": 76
    },
    {
      "midi": 73,
      "hit": false,
      "t": 277045.59538541833,
      "d": 51.630322916666046,
      "v": 62
    },
    {
      "midi": 76,
      "hit": false,
      "t": 277045.59538541833,
      "d": 59.78247916669352,
      "v": 62
    },
    {
      "midi": 81,
      "hit": false,
      "t": 277048.312770835,
      "d": 48.91293749999022,
      "v": 62
    },
    {
      "midi": 76,
      "hit": false,
      "t": 277214.07328124985,
      "d": 89.67371875001118,
      "v": 67
    },
    {
      "midi": 73,
      "hit": false,
      "t": 277219.508052085,
      "d": 48.91293749999022,
      "v": 62
    },
    {
      "midi": 76,
      "hit": false,
      "t": 277219.508052085,
      "d": 48.91293749999022,
      "v": 62
    },
    {
      "midi": 81,
      "hit": false,
      "t": 277222.2254375017,
      "d": 46.195552083314396,
      "v": 62
    },
    {
      "midi": 73,
      "hit": false,
      "t": 277387.9859479165,
      "d": 73.36940625001444,
      "v": 72
    },
    {
      "midi": 73,
      "hit": false,
      "t": 277393.4207187517,
      "d": 46.195552083314396,
      "v": 62
    },
    {
      "midi": 76,
      "hit": false,
      "t": 277393.4207187517,
      "d": 54.34770833334187,
      "v": 62
    },
    {
      "midi": 81,
      "hit": false,
      "t": 277393.4207187517,
      "d": 54.34770833334187,
      "v": 62
    },
    {
      "midi": 81,
      "hit": false,
      "t": 277561.8986145832,
      "d": 119.56495833332883,
      "v": 74
    },
    {
      "midi": 73,
      "hit": false,
      "t": 277567.33338541834,
      "d": 54.34770833334187,
      "v": 62
    },
    {
      "midi": 81,
      "hit": false,
      "t": 277567.33338541834,
      "d": 57.065093750017695,
      "v": 62
    },
    {
      "midi": 76,
      "hit": false,
      "t": 277567.33338541834,
      "d": 59.78247916669352,
      "v": 62
    },
    {
      "midi": 76,
      "hit": false,
      "t": 277738.52866666653,
      "d": 78.80417708330788,
      "v": 59
    },
    {
      "midi": 76,
      "hit": false,
      "t": 277741.246052085,
      "d": 46.195552083314396,
      "v": 62
    },
    {
      "midi": 81,
      "hit": false,
      "t": 277741.246052085,
      "d": 46.195552083314396,
      "v": 62
    },
    {
      "midi": 73,
      "hit": false,
      "t": 277741.246052085,
      "d": 48.91293749999022,
      "v": 62
    },
    {
      "midi": 73,
      "hit": false,
      "t": 277909.72394791653,
      "d": 78.80417708330788,
      "v": 72
    },
    {
      "midi": 76,
      "hit": false,
      "t": 277915.1587187517,
      "d": 51.630322916666046,
      "v": 62
    },
    {
      "midi": 81,
      "hit": false,
      "t": 277915.1587187517,
      "d": 51.630322916666046,
      "v": 62
    },
    {
      "midi": 73,
      "hit": false,
      "t": 277915.1587187517,
      "d": 54.34770833334187,
      "v": 62
    },
    {
      "midi": 81,
      "hit": false,
      "t": 278086.3539999998,
      "d": 103.26064583333209,
      "v": 79
    },
    {
      "midi": 81,
      "hit": false,
      "t": 278089.07138541836,
      "d": 54.34770833334187,
      "v": 62
    },
    {
      "midi": 76,
      "hit": false,
      "t": 278089.07138541836,
      "d": 57.065093750017695,
      "v": 62
    },
    {
      "midi": 73,
      "hit": false,
      "t": 278089.07138541836,
      "d": 59.78247916669352,
      "v": 62
    },
    {
      "midi": 76,
      "hit": false,
      "t": 278260.2666666665,
      "d": 89.67371875001118,
      "v": 64
    },
    {
      "midi": 73,
      "hit": false,
      "t": 278260.2666666684,
      "d": 59.78247916669352,
      "v": 62
    },
    {
      "midi": 76,
      "hit": false,
      "t": 278262.9840520851,
      "d": 54.34770833334187,
      "v": 62
    },
    {
      "midi": 81,
      "hit": false,
      "t": 278262.9840520851,
      "d": 59.78247916669352,
      "v": 62
    },
    {
      "midi": 73,
      "hit": false,
      "t": 278434.17933333316,
      "d": 67.93463541666279,
      "v": 66
    },
    {
      "midi": 73,
      "hit": false,
      "t": 278434.17933333514,
      "d": 59.78247916669352,
      "v": 62
    },
    {
      "midi": 76,
      "hit": false,
      "t": 278436.8967187518,
      "d": 54.34770833334187,
      "v": 62
    },
    {
      "midi": 81,
      "hit": false,
      "t": 278436.8967187518,
      "d": 62.499864583369344,
      "v": 62
    },
    {
      "midi": 81,
      "hit": false,
      "t": 278608.09199999983,
      "d": 114.13018749997718,
      "v": 76
    },
    {
      "midi": 76,
      "hit": false,
      "t": 278610.80938541854,
      "d": 46.195552083314396,
      "v": 62
    },
    {
      "midi": 73,
      "hit": false,
      "t": 278610.80938541854,
      "d": 51.630322916666046,
      "v": 62
    },
    {
      "midi": 81,
      "hit": false,
      "t": 278610.80938541854,
      "d": 51.630322916666046,
      "v": 62
    },
    {
      "midi": 76,
      "hit": false,
      "t": 278782.0046666665,
      "d": 84.23894791665953,
      "v": 62
    },
    {
      "midi": 76,
      "hit": false,
      "t": 278784.7220520852,
      "d": 40.760781250020955,
      "v": 62
    },
    {
      "midi": 73,
      "hit": false,
      "t": 278784.7220520852,
      "d": 48.91293750004843,
      "v": 62
    },
    {
      "midi": 81,
      "hit": false,
      "t": 278784.7220520852,
      "d": 51.63032291672425,
      "v": 62
    },
    {
      "midi": 73,
      "hit": false,
      "t": 278953.1999479165,
      "d": 67.93463541666279,
      "v": 64
    },
    {
      "midi": 81,
      "hit": false,
      "t": 278955.91733333527,
      "d": 57.065093750017695,
      "v": 62
    },
    {
      "midi": 73,
      "hit": false,
      "t": 278958.63471875194,
      "d": 40.760781250020955,
      "v": 62
    },
    {
      "midi": 76,
      "hit": false,
      "t": 278958.63471875194,
      "d": 43.47816666669678,
      "v": 62
    },
    {
      "midi": 81,
      "hit": false,
      "t": 279127.11261458317,
      "d": 103.26064583333209,
      "v": 79
    },
    {
      "midi": 76,
      "hit": false,
      "t": 279129.83000000194,
      "d": 54.34770833334187,
      "v": 62
    },
    {
      "midi": 73,
      "hit": false,
      "t": 279129.83000000194,
      "d": 57.065093750017695,
      "v": 62
    },
    {
      "midi": 81,
      "hit": false,
      "t": 279129.83000000194,
      "d": 65.21725000004517,
      "v": 62
    },
    {
      "midi": 76,
      "hit": false,
      "t": 279301.02528124984,
      "d": 86.95633333333535,
      "v": 67
    },
    {
      "midi": 73,
      "hit": false,
      "t": 279303.74266666867,
      "d": 57.065093750017695,
      "v": 62
    },
    {
      "midi": 76,
      "hit": false,
      "t": 279306.46005208534,
      "d": 57.065093750017695,
      "v": 62
    },
    {
      "midi": 81,
      "hit": false,
      "t": 279306.46005208534,
      "d": 62.499864583369344,
      "v": 62
    },
    {
      "midi": 73,
      "hit": false,
      "t": 279474.9379479165,
      "d": 70.65202083333861,
      "v": 66
    },
    {
      "midi": 73,
      "hit": false,
      "t": 279480.37271875207,
      "d": 51.630322916666046,
      "v": 62
    },
    {
      "midi": 76,
      "hit": false,
      "t": 279480.37271875207,
      "d": 51.630322916666046,
      "v": 62
    },
    {
      "midi": 81,
      "hit": false,
      "t": 279480.37271875207,
      "d": 57.065093750017695,
      "v": 62
    },
    {
      "midi": 81,
      "hit": false,
      "t": 279648.8506145832,
      "d": 111.41280208335957,
      "v": 73
    },
    {
      "midi": 76,
      "hit": false,
      "t": 279654.28538541874,
      "d": 51.630322916666046,
      "v": 62
    },
    {
      "midi": 73,
      "hit": false,
      "t": 279654.28538541874,
      "d": 54.34770833334187,
      "v": 62
    },
    {
      "midi": 81,
      "hit": false,
      "t": 279654.28538541874,
      "d": 54.34770833334187,
      "v": 62
    },
    {
      "midi": 76,
      "hit": false,
      "t": 279822.76328124985,
      "d": 95.10848958330462,
      "v": 60
    },
    {
      "midi": 76,
      "hit": false,
      "t": 279828.1980520854,
      "d": 46.195552083314396,
      "v": 62
    },
    {
      "midi": 73,
      "hit": false,
      "t": 279828.1980520854,
      "d": 51.630322916666046,
      "v": 62
    },
    {
      "midi": 81,
      "hit": false,
      "t": 279828.1980520854,
      "d": 54.34770833334187,
      "v": 62
    },
    {
      "midi": 73,
      "hit": false,
      "t": 279996.67594791646,
      "d": 73.36940625001444,
      "v": 68
    },
    {
      "midi": 76,
      "hit": false,
      "t": 279999.3933333354,
      "d": 54.34770833334187,
      "v": 62
    },
    {
      "midi": 81,
      "hit": false,
      "t": 279999.3933333354,
      "d": 54.34770833334187,
      "v": 62
    },
    {
      "midi": 73,
      "hit": false,
      "t": 279999.3933333354,
      "d": 59.78247916669352,
      "v": 62
    },
    {
      "midi": 81,
      "hit": false,
      "t": 280170.58861458313,
      "d": 108.69541666668374,
      "v": 73
    },
    {
      "midi": 73,
      "hit": false,
      "t": 280173.3060000021,
      "d": 65.21725000004517,
      "v": 62
    },
    {
      "midi": 76,
      "hit": false,
      "t": 280173.3060000021,
      "d": 65.21725000004517,
      "v": 62
    },
    {
      "midi": 81,
      "hit": false,
      "t": 280176.02338541875,
      "d": 59.78247916669352,
      "v": 62
    },
    {
      "midi": 76,
      "hit": false,
      "t": 280344.5012812498,
      "d": 108.69541666668374,
      "v": 64
    },
    {
      "midi": 73,
      "hit": false,
      "t": 280344.50128125213,
      "d": 48.91293749999022,
      "v": 62
    },
    {
      "midi": 76,
      "hit": false,
      "t": 280344.50128125213,
      "d": 54.34770833334187,
      "v": 62
    },
    {
      "midi": 81,
      "hit": false,
      "t": 280347.2186666688,
      "d": 43.47816666663857,
      "v": 62
    },
    {
      "midi": 73,
      "hit": false,
      "t": 280518.4139479165,
      "d": 70.65202083333861,
      "v": 66
    },
    {
      "midi": 76,
      "hit": false,
      "t": 280518.4139479188,
      "d": 59.78247916669352,
      "v": 62
    },
    {
      "midi": 73,
      "hit": false,
      "t": 280518.4139479188,
      "d": 62.499864583369344,
      "v": 62
    },
    {
      "midi": 81,
      "hit": false,
      "t": 280521.1313333355,
      "d": 51.630322916666046,
      "v": 62
    },
    {
      "midi": 81,
      "hit": false,
      "t": 280692.32661458314,
      "d": 97.82587499998044,
      "v": 76
    },
    {
      "midi": 81,
      "hit": false,
      "t": 280697.7613854188,
      "d": 43.47816666663857,
      "v": 62
    },
    {
      "midi": 75,
      "hit": false,
      "t": 280697.7613854188,
      "d": 48.91293749999022,
      "v": 62
    },
    {
      "midi": 78,
      "hit": false,
      "t": 280697.7613854188,
      "d": 51.630322916666046,
      "v": 62
    },
    {
      "midi": 78,
      "hit": false,
      "t": 280866.2392812498,
      "d": 100.54326041665627,
      "v": 58
    },
    {
      "midi": 75,
      "hit": false,
      "t": 280871.6740520855,
      "d": 59.78247916669352,
      "v": 62
    },
    {
      "midi": 78,
      "hit": false,
      "t": 280871.6740520855,
      "d": 59.78247916669352,
      "v": 62
    },
    {
      "midi": 81,
      "hit": false,
      "t": 280871.6740520855,
      "d": 62.499864583369344,
      "v": 62
    },
    {
      "midi": 75,
      "hit": false,
      "t": 281040.1519479165,
      "d": 78.80417708330788,
      "v": 64
    },
    {
      "midi": 78,
      "hit": false,
      "t": 281045.5867187522,
      "d": 43.47816666663857,
      "v": 62
    },
    {
      "midi": 75,
      "hit": false,
      "t": 281045.5867187522,
      "d": 51.630322916666046,
      "v": 62
    },
    {
      "midi": 81,
      "hit": false,
      "t": 281045.5867187522,
      "d": 70.65202083333861,
      "v": 62
    },
    {
      "midi": 81,
      "hit": false,
      "t": 281214.0646145831,
      "d": 100.54326041665627,
      "v": 69
    },
    {
      "midi": 75,
      "hit": false,
      "t": 281216.7820000022,
      "d": 65.21724999998696,
      "v": 62
    },
    {
      "midi": 78,
      "hit": false,
      "t": 281219.4993854189,
      "d": 48.91293749999022,
      "v": 62
    },
    {
      "midi": 81,
      "hit": false,
      "t": 281219.4993854189,
      "d": 65.21724999998696,
      "v": 62
    },
    {
      "midi": 78,
      "hit": false,
      "t": 281387.97728124977,
      "d": 86.95633333333535,
      "v": 61
    },
    {
      "midi": 78,
      "hit": false,
      "t": 281393.41205208556,
      "d": 40.760781250020955,
      "v": 62
    },
    {
      "midi": 75,
      "hit": false,
      "t": 281393.41205208556,
      "d": 57.065093750017695,
      "v": 62
    },
    {
      "midi": 81,
      "hit": false,
      "t": 281393.41205208556,
      "d": 62.499864583369344,
      "v": 62
    },
    {
      "midi": 75,
      "hit": false,
      "t": 281561.88994791644,
      "d": 73.36940625001444,
      "v": 70
    },
    {
      "midi": 75,
      "hit": false,
      "t": 281564.6073333356,
      "d": 65.21724999998696,
      "v": 62
    },
    {
      "midi": 78,
      "hit": false,
      "t": 281567.3247187523,
      "d": 43.47816666663857,
      "v": 62
    },
    {
      "midi": 81,
      "hit": false,
      "t": 281567.3247187523,
      "d": 54.34770833328366,
      "v": 62
    },
    {
      "midi": 81,
      "hit": false,
      "t": 281735.8026145831,
      "d": 105.97803125000792,
      "v": 73
    },
    {
      "midi": 78,
      "hit": false,
      "t": 281741.23738541896,
      "d": 48.91293749999022,
      "v": 62
    },
    {
      "midi": 75,
      "hit": false,
      "t": 281741.23738541896,
      "d": 51.630322916666046,
      "v": 62
    },
    {
      "midi": 81,
      "hit": false,
      "t": 281741.23738541896,
      "d": 62.49986458331114,
      "v": 62
    },
    {
      "midi": 78,
      "hit": false,
      "t": 281909.7152812498,
      "d": 97.82587499998044,
      "v": 53
    },
    {
      "midi": 75,
      "hit": false,
      "t": 281915.15005208564,
      "d": 48.91293749999022,
      "v": 62
    },
    {
      "midi": 78,
      "hit": false,
      "t": 281915.15005208564,
      "d": 48.91293749999022,
      "v": 62
    },
    {
      "midi": 81,
      "hit": false,
      "t": 281915.15005208564,
      "d": 54.34770833334187,
      "v": 62
    },
    {
      "midi": 75,
      "hit": false,
      "t": 282083.62794791645,
      "d": 78.80417708330788,
      "v": 70
    },
    {
      "midi": 78,
      "hit": false,
      "t": 282089.0627187523,
      "d": 46.195552083314396,
      "v": 62
    },
    {
      "midi": 75,
      "hit": false,
      "t": 282089.0627187523,
      "d": 48.91293749999022,
      "v": 62
    },
    {
      "midi": 81,
      "hit": false,
      "t": 282089.0627187523,
      "d": 54.34770833334187,
      "v": 62
    },
    {
      "midi": 81,
      "hit": false,
      "t": 282257.54061458306,
      "d": 114.13018749997718,
      "v": 69
    },
    {
      "midi": 75,
      "hit": false,
      "t": 282262.975385419,
      "d": 48.91293749999022,
      "v": 62
    },
    {
      "midi": 78,
      "hit": false,
      "t": 282262.975385419,
      "d": 48.91293749999022,
      "v": 62
    },
    {
      "midi": 81,
      "hit": false,
      "t": 282262.975385419,
      "d": 51.630322916666046,
      "v": 62
    },
    {
      "midi": 78,
      "hit": false,
      "t": 282431.45328124973,
      "d": 108.69541666668374,
      "v": 56
    },
    {
      "midi": 78,
      "hit": false,
      "t": 282434.170666669,
      "d": 43.47816666663857,
      "v": 62
    },
    {
      "midi": 75,
      "hit": false,
      "t": 282434.170666669,
      "d": 48.91293749999022,
      "v": 62
    },
    {
      "midi": 81,
      "hit": false,
      "t": 282436.88805208565,
      "d": 10.869541666645091,
      "v": 62
    },
    {
      "midi": 75,
      "hit": false,
      "t": 282605.3659479164,
      "d": 70.65202083333861,
      "v": 72
    },
    {
      "midi": 75,
      "hit": false,
      "t": 282608.08333333564,
      "d": 59.78247916669352,
      "v": 62
    },
    {
      "midi": 78,
      "hit": false,
      "t": 282610.8007187523,
      "d": 51.630322916666046,
      "v": 62
    },
    {
      "midi": 81,
      "hit": false,
      "t": 282610.8007187523,
      "d": 59.78247916669352,
      "v": 62
    },
    {
      "midi": 45,
      "hit": false,
      "t": 284868.94800000236,
      "d": 413.04258333332837,
      "v": 104
    },
    {
      "midi": 33,
      "hit": false,
      "t": 284868.94800000236,
      "d": 440.2164374999702,
      "v": 90
    },
    {
      "midi": 45,
      "hit": false,
      "t": 285648.83761458565,
      "d": 76.08679166669026,
      "v": 91
    },
    {
      "midi": 33,
      "hit": false,
      "t": 285648.83761458565,
      "d": 97.82587500003865,
      "v": 106
    },
    {
      "midi": 45,
      "hit": false,
      "t": 285909.7066145857,
      "d": 92.391104166687,
      "v": 95
    },
    {
      "midi": 33,
      "hit": false,
      "t": 285909.7066145857,
      "d": 114.13018750003539,
      "v": 97
    },
    {
      "midi": 33,
      "hit": false,
      "t": 286173.2930000024,
      "d": 538.0423125000088,
      "v": 108
    },
    {
      "midi": 45,
      "hit": false,
      "t": 286173.2930000024,
      "d": 538.0423125000088,
      "v": 94
    },
    {
      "midi": 33,
      "hit": false,
      "t": 286953.18261458573,
      "d": 578.8030937499716,
      "v": 110
    },
    {
      "midi": 45,
      "hit": false,
      "t": 286953.18261458573,
      "d": 581.5204791666474,
      "v": 98
    },
    {
      "midi": 45,
      "hit": false,
      "t": 287735.7896145857,
      "d": 73.36940625001444,
      "v": 84
    },
    {
      "midi": 33,
      "hit": false,
      "t": 287735.7896145857,
      "d": 86.95633333333535,
      "v": 100
    },
    {
      "midi": 45,
      "hit": false,
      "t": 287996.6586145857,
      "d": 89.67371875001118,
      "v": 88
    },
    {
      "midi": 33,
      "hit": false,
      "t": 287999.3760000024,
      "d": 84.23894791665953,
      "v": 108
    },
    {
      "midi": 33,
      "hit": false,
      "t": 288257.5276145857,
      "d": 524.4553854166879,
      "v": 110
    },
    {
      "midi": 45,
      "hit": false,
      "t": 288257.5276145857,
      "d": 543.4770833333605,
      "v": 90
    },
    {
      "midi": 34,
      "hit": false,
      "t": 289040.1346145857,
      "d": 557.0640104166814,
      "v": 93
    },
    {
      "midi": 46,
      "hit": false,
      "t": 289040.1346145857,
      "d": 557.0640104166814,
      "v": 101
    },
    {
      "midi": 82,
      "hit": false,
      "t": 289301.00361458305,
      "d": 138.5866562500014,
      "v": 104
    },
    {
      "midi": 87,
      "hit": false,
      "t": 289561.87261458306,
      "d": 152.1735833333223,
      "v": 95
    },
    {
      "midi": 46,
      "hit": false,
      "t": 289822.74161458574,
      "d": 51.630322916666046,
      "v": 95
    },
    {
      "midi": 34,
      "hit": false,
      "t": 289822.74161458574,
      "d": 76.08679166669026,
      "v": 107
    },
    {
      "midi": 89,
      "hit": false,
      "t": 289825.45899999974,
      "d": 138.5866562500014,
      "v": 97
    },
    {
      "midi": 34,
      "hit": false,
      "t": 290083.61061458575,
      "d": 86.95633333339356,
      "v": 99
    },
    {
      "midi": 46,
      "hit": false,
      "t": 290086.3280000024,
      "d": 59.78247916669352,
      "v": 91
    },
    {
      "midi": 34,
      "hit": false,
      "t": 290344.4796145858,
      "d": 595.1074062499683,
      "v": 95
    },
    {
      "midi": 46,
      "hit": false,
      "t": 290347.1970000025,
      "d": 578.8030937499716,
      "v": 91
    },
    {
      "midi": 87,
      "hit": false,
      "t": 290608.06599999976,
      "d": 116.84757291665301,
      "v": 110
    },
    {
      "midi": 46,
      "hit": false,
      "t": 291127.0866145858,
      "d": 567.9335520833265,
      "v": 93
    },
    {
      "midi": 34,
      "hit": false,
      "t": 291127.0866145858,
      "d": 576.085708333354,
      "v": 101
    },
    {
      "midi": 82,
      "hit": false,
      "t": 291387.9556145831,
      "d": 154.89096874999814,
      "v": 113
    },
    {
      "midi": 87,
      "hit": false,
      "t": 291646.10722916643,
      "d": 149.4561979166465,
      "v": 97
    },
    {
      "midi": 89,
      "hit": false,
      "t": 291906.97622916644,
      "d": 124.99972916668048,
      "v": 100
    },
    {
      "midi": 46,
      "hit": false,
      "t": 291909.6936145858,
      "d": 76.08679166669026,
      "v": 81
    },
    {
      "midi": 34,
      "hit": false,
      "t": 291909.6936145858,
      "d": 78.80417708336608,
      "v": 110
    },
    {
      "midi": 46,
      "hit": false,
      "t": 292170.5626145858,
      "d": 67.93463541666279,
      "v": 91
    },
    {
      "midi": 34,
      "hit": false,
      "t": 292170.5626145858,
      "d": 76.08679166669026,
      "v": 101
    },
    {
      "midi": 46,
      "hit": false,
      "t": 292431.4316145858,
      "d": 633.1508020833135,
      "v": 101
    },
    {
      "midi": 34,
      "hit": false,
      "t": 292431.4316145858,
      "d": 654.8898854166619,
      "v": 116
    },
    {
      "midi": 89,
      "hit": false,
      "t": 292697.7353854164,
      "d": 105.97803125000792,
      "v": 104
    },
    {
      "midi": 41,
      "hit": false,
      "t": 297344.4644479191,
      "d": 644.0203437500168,
      "v": 100
    },
    {
      "midi": 41,
      "hit": false,
      "t": 298165.11484375247,
      "d": 65.21724999998696,
      "v": 95
    },
    {
      "midi": 41,
      "hit": false,
      "t": 298431.41861458577,
      "d": 70.65202083333861,
      "v": 104
    },
    {
      "midi": 41,
      "hit": false,
      "t": 298700.4397708358,
      "d": 589.6726354166749,
      "v": 100
    },
    {
      "midi": 41,
      "hit": false,
      "t": 299461.30768750247,
      "d": 654.8898854166619,
      "v": 104
    },
    {
      "midi": 41,
      "hit": false,
      "t": 300279.24069791916,
      "d": 48.91293749999022,
      "v": 87
    },
    {
      "midi": 41,
      "hit": false,
      "t": 300521.0880000025,
      "d": 76.08679166669026,
      "v": 97
    },
    {
      "midi": 41,
      "hit": false,
      "t": 300787.39177083585,
      "d": 706.5202083333279,
      "v": 106
    },
    {
      "midi": 41,
      "hit": false,
      "t": 305711.29414583585,
      "d": 635.8681874999893,
      "v": 102
    },
    {
      "midi": 41,
      "hit": false,
      "t": 306493.9011458359,
      "d": 97.82587499998044,
      "v": 91
    },
    {
      "midi": 41,
      "hit": false,
      "t": 306773.7918437525,
      "d": 73.36940625001444,
      "v": 102
    },
    {
      "midi": 41,
      "hit": false,
      "t": 307037.3782291692,
      "d": 597.8247916666442,
      "v": 100
    },
    {
      "midi": 41,
      "hit": false,
      "t": 307800.96353125246,
      "d": 654.8898854166619,
      "v": 100
    },
    {
      "midi": 41,
      "hit": false,
      "t": 308605.30961458577,
      "d": 65.21724999998696,
      "v": 86
    },
    {
      "midi": 41,
      "hit": false,
      "t": 308858.02645833575,
      "d": 73.36940625001444,
      "v": 91
    },
    {
      "midi": 41,
      "hit": false,
      "t": 309127.0476145858,
      "d": 714.6723645833554,
      "v": 102
    },
    {
      "midi": 44,
      "hit": false,
      "t": 314083.5586145858,
      "d": 578.8030937499716,
      "v": 113
    },
    {
      "midi": 44,
      "hit": false,
      "t": 314844.4265312524,
      "d": 70.65202083333861,
      "v": 101
    },
    {
      "midi": 44,
      "hit": false,
      "t": 315108.0129166691,
      "d": 78.80417708330788,
      "v": 99
    },
    {
      "midi": 44,
      "hit": false,
      "t": 315396.0557708357,
      "d": 595.1074062500265,
      "v": 107
    },
    {
      "midi": 44,
      "hit": false,
      "t": 316173.2280000024,
      "d": 581.5204791666474,
      "v": 99
    },
    {
      "midi": 44,
      "hit": false,
      "t": 316936.8133020857,
      "d": 67.93463541666279,
      "v": 101
    },
    {
      "midi": 44,
      "hit": false,
      "t": 317205.83445833565,
      "d": 54.34770833334187,
      "v": 99
    },
    {
      "midi": 44,
      "hit": false,
      "t": 317458.5513020857,
      "d": 665.759427083307,
      "v": 104
    },
    {
      "midi": 41,
      "hit": false,
      "t": 322417.7796875023,
      "d": 608.6943333333475,
      "v": 112
    },
    {
      "midi": 41,
      "hit": false,
      "t": 323208.5388437523,
      "d": 81.5215624999837,
      "v": 100
    },
    {
      "midi": 41,
      "hit": false,
      "t": 323472.1252291689,
      "d": 76.08679166669026,
      "v": 102
    },
    {
      "midi": 41,
      "hit": false,
      "t": 323732.9942291689,
      "d": 581.5204791666474,
      "v": 106
    },
    {
      "midi": 41,
      "hit": false,
      "t": 324493.8621458356,
      "d": 608.6943333333475,
      "v": 114
    },
    {
      "midi": 41,
      "hit": false,
      "t": 325290.05607291893,
      "d": 78.80417708330788,
      "v": 95
    },
    {
      "midi": 41,
      "hit": false,
      "t": 325561.7946145856,
      "d": 76.08679166669026,
      "v": 106
    },
    {
      "midi": 41,
      "hit": false,
      "t": 325828.09838541894,
      "d": 570.6509375000023,
      "v": 108
    }
  ]
}