{
  "jsonPath": "Rock/Album Rock/Eagles/i-cant-tell-you-why-live-version.json",
  "path": "Rock\\Album Rock\\Eagles\\I Cant Tell You Why (Live Version).mid",
  "name": "I Cant Tell You Why (Live Version)",
  "difficulty": "Intermediate",
  "bpm": 89.00004005001803,
  "notes": [
    {
      "midi": 35,
      "hit": false,
      "t": 2707.86395,
      "d": 5030.896612499998,
      "v": 54
    },
    {
      "midi": 62,
      "hit": false,
      "t": 4016.852125,
      "d": 70.22468749999962,
      "v": 43
    },
    {
      "midi": 59,
      "hit": false,
      "t": 4028.0880749999997,
      "d": 58.98873749999984,
      "v": 30
    },
    {
      "midi": 59,
      "hit": false,
      "t": 4353.930624999999,
      "d": 362.3593874999997,
      "v": 35
    },
    {
      "midi": 62,
      "hit": false,
      "t": 4362.357587499999,
      "d": 339.88748750000013,
      "v": 39
    },
    {
      "midi": 66,
      "hit": false,
      "t": 4367.975562499999,
      "d": 334.2695125,
      "v": 24
    },
    {
      "midi": 61,
      "hit": false,
      "t": 5044.941549999999,
      "d": 2685.3920499999995,
      "v": 32
    },
    {
      "midi": 64,
      "hit": false,
      "t": 5050.559524999999,
      "d": 2707.863949999999,
      "v": 34
    },
    {
      "midi": 57,
      "hit": false,
      "t": 5056.177499999999,
      "d": 2623.594324999999,
      "v": 32
    },
    {
      "midi": 30,
      "hit": false,
      "t": 7724.715624999998,
      "d": 345.50546249999934,
      "v": 45
    },
    {
      "midi": 35,
      "hit": false,
      "t": 8070.221087499997,
      "d": 4713.481024999996,
      "v": 48
    },
    {
      "midi": 59,
      "hit": false,
      "t": 9418.535087499997,
      "d": 81.46063749999848,
      "v": 40
    },
    {
      "midi": 62,
      "hit": false,
      "t": 9418.535087499997,
      "d": 81.46063749999848,
      "v": 49
    },
    {
      "midi": 66,
      "hit": false,
      "t": 9424.153062499996,
      "d": 75.84266249999928,
      "v": 29
    },
    {
      "midi": 62,
      "hit": false,
      "t": 9752.804599999996,
      "d": 345.50546249999934,
      "v": 42
    },
    {
      "midi": 59,
      "hit": false,
      "t": 9752.804599999996,
      "d": 384.83128749999923,
      "v": 35
    },
    {
      "midi": 66,
      "hit": false,
      "t": 9758.422574999995,
      "d": 339.88748750000013,
      "v": 27
    },
    {
      "midi": 61,
      "hit": false,
      "t": 10455.051474999995,
      "d": 2530.8977374999995,
      "v": 30
    },
    {
      "midi": 57,
      "hit": false,
      "t": 10471.905399999994,
      "d": 2522.470775,
      "v": 29
    },
    {
      "midi": 64,
      "hit": false,
      "t": 10471.905399999994,
      "d": 2561.7965999999997,
      "v": 34
    },
    {
      "midi": 30,
      "hit": false,
      "t": 13126.398587499994,
      "d": 345.50546249999934,
      "v": 44
    },
    {
      "midi": 35,
      "hit": false,
      "t": 13463.477087499994,
      "d": 4806.177612499998,
      "v": 54
    },
    {
      "midi": 59,
      "hit": false,
      "t": 14817.409062499994,
      "d": 75.84266249999928,
      "v": 37
    },
    {
      "midi": 62,
      "hit": false,
      "t": 14817.409062499994,
      "d": 81.46063749999848,
      "v": 48
    },
    {
      "midi": 66,
      "hit": false,
      "t": 14817.409062499994,
      "d": 81.46063749999848,
      "v": 35
    },
    {
      "midi": 62,
      "hit": false,
      "t": 15140.442624999992,
      "d": 342.6964749999988,
      "v": 44
    },
    {
      "midi": 66,
      "hit": false,
      "t": 15146.060599999992,
      "d": 337.0784999999996,
      "v": 30
    },
    {
      "midi": 59,
      "hit": false,
      "t": 15146.060599999992,
      "d": 353.93242499999906,
      "v": 36
    },
    {
      "midi": 61,
      "hit": false,
      "t": 15806.17266249999,
      "d": 2558.987612500001,
      "v": 27
    },
    {
      "midi": 64,
      "hit": false,
      "t": 15825.83557499999,
      "d": 2544.942675000002,
      "v": 41
    },
    {
      "midi": 57,
      "hit": false,
      "t": 15848.30747499999,
      "d": 2494.3809,
      "v": 35
    },
    {
      "midi": 30,
      "hit": false,
      "t": 18547.74446249999,
      "d": 323.0335625000007,
      "v": 53
    },
    {
      "midi": 35,
      "hit": false,
      "t": 18870.778024999992,
      "d": 3182.5828374999983,
      "v": 46
    },
    {
      "midi": 62,
      "hit": false,
      "t": 20210.665062499993,
      "d": 78.65164999999979,
      "v": 49
    },
    {
      "midi": 66,
      "hit": false,
      "t": 20210.665062499993,
      "d": 78.65164999999979,
      "v": 35
    },
    {
      "midi": 59,
      "hit": false,
      "t": 20252.799874999993,
      "d": 36.51683749999938,
      "v": 27
    },
    {
      "midi": 66,
      "hit": false,
      "t": 20547.743562499993,
      "d": 334.2695124999991,
      "v": 27
    },
    {
      "midi": 62,
      "hit": false,
      "t": 20547.743562499993,
      "d": 348.31444999999803,
      "v": 43
    },
    {
      "midi": 59,
      "hit": false,
      "t": 20547.743562499993,
      "d": 379.2133124999964,
      "v": 39
    },
    {
      "midi": 61,
      "hit": false,
      "t": 21230.32752499999,
      "d": 2544.942675000002,
      "v": 32
    },
    {
      "midi": 57,
      "hit": false,
      "t": 21230.32752499999,
      "d": 2589.886475000003,
      "v": 38
    },
    {
      "midi": 64,
      "hit": false,
      "t": 21249.99043749999,
      "d": 2651.6842000000033,
      "v": 41
    },
    {
      "midi": 57,
      "hit": false,
      "t": 24249.989087499995,
      "d": 25.280887500000972,
      "v": 24
    },
    {
      "midi": 62,
      "hit": false,
      "t": 24255.607062499996,
      "d": 25.280887500000972,
      "v": 28
    },
    {
      "midi": 62,
      "hit": false,
      "t": 24280.887949999997,
      "d": 4769.660775,
      "v": 38
    },
    {
      "midi": 66,
      "hit": false,
      "t": 24280.887949999997,
      "d": 4792.132675000001,
      "v": 24
    },
    {
      "midi": 57,
      "hit": false,
      "t": 24280.887949999997,
      "d": 4806.1776125,
      "v": 28
    },
    {
      "midi": 62,
      "hit": false,
      "t": 29643.245087499996,
      "d": 4808.9866,
      "v": 34
    },
    {
      "midi": 66,
      "hit": false,
      "t": 29657.290024999995,
      "d": 4808.986600000004,
      "v": 20
    },
    {
      "midi": 59,
      "hit": false,
      "t": 29657.290024999995,
      "d": 4831.458500000001,
      "v": 29
    },
    {
      "midi": 66,
      "hit": false,
      "t": 35067.39994999999,
      "d": 4848.312424999996,
      "v": 21
    },
    {
      "midi": 57,
      "hit": false,
      "t": 35067.39994999999,
      "d": 4856.739387499998,
      "v": 26
    },
    {
      "midi": 62,
      "hit": false,
      "t": 35067.39994999999,
      "d": 4856.739387499998,
      "v": 27
    },
    {
      "midi": 62,
      "hit": false,
      "t": 40421.33012499999,
      "d": 2089.8867000000027,
      "v": 33
    },
    {
      "midi": 66,
      "hit": false,
      "t": 40421.33012499999,
      "d": 2089.8867000000027,
      "v": 20
    },
    {
      "midi": 59,
      "hit": false,
      "t": 40421.33012499999,
      "d": 2143.257462500005,
      "v": 37
    },
    {
      "midi": 58,
      "hit": false,
      "t": 43112.340149999996,
      "d": 2134.830500000011,
      "v": 23
    },
    {
      "midi": 54,
      "hit": false,
      "t": 43160.0929375,
      "d": 2112.358600000007,
      "v": 19
    },
    {
      "midi": 61,
      "hit": false,
      "t": 43174.137875,
      "d": 2143.257462500005,
      "v": 16
    },
    {
      "midi": 64,
      "hit": false,
      "t": 43185.373825,
      "d": 1252.808425000003,
      "v": 21
    },
    {
      "midi": 54,
      "hit": false,
      "t": 45834.249037500005,
      "d": 2634.8302750000075,
      "v": 14
    },
    {
      "midi": 59,
      "hit": false,
      "t": 45853.91195000001,
      "d": 2632.021287500007,
      "v": 25
    },
    {
      "midi": 62,
      "hit": false,
      "t": 45898.85575000001,
      "d": 2651.6842000000033,
      "v": 25
    },
    {
      "midi": 59,
      "hit": false,
      "t": 51190.988200000014,
      "d": 2115.1675875000074,
      "v": 27
    },
    {
      "midi": 62,
      "hit": false,
      "t": 51207.84212500002,
      "d": 2112.358600000007,
      "v": 22
    },
    {
      "midi": 55,
      "hit": false,
      "t": 51213.46010000002,
      "d": 2073.0327749999997,
      "v": 21
    },
    {
      "midi": 61,
      "hit": false,
      "t": 53924.133037500025,
      "d": 1811.7969375000102,
      "v": 17
    },
    {
      "midi": 58,
      "hit": false,
      "t": 53940.98696250003,
      "d": 1741.5722500000047,
      "v": 19
    },
    {
      "midi": 54,
      "hit": false,
      "t": 53949.41392500003,
      "d": 1733.1452875000032,
      "v": 17
    },
    {
      "midi": 62,
      "hit": false,
      "t": 56623.57002500004,
      "d": 2115.1675875,
      "v": 34
    },
    {
      "midi": 59,
      "hit": false,
      "t": 56634.80597500004,
      "d": 2199.437212500001,
      "v": 31
    },
    {
      "midi": 66,
      "hit": false,
      "t": 56640.42395000004,
      "d": 2317.4146875000006,
      "v": 19
    },
    {
      "midi": 61,
      "hit": false,
      "t": 59297.72612500004,
      "d": 2039.3249250000008,
      "v": 22
    },
    {
      "midi": 57,
      "hit": false,
      "t": 59297.72612500004,
      "d": 2050.560875000003,
      "v": 21
    },
    {
      "midi": 64,
      "hit": false,
      "t": 59345.47891250004,
      "d": 1991.5721374999994,
      "v": 21
    },
    {
      "midi": 62,
      "hit": false,
      "t": 64002.78018750004,
      "d": 33.70785000000615,
      "v": 66
    },
    {
      "midi": 66,
      "hit": false,
      "t": 64002.78018750004,
      "d": 33.70785000000615,
      "v": 53
    },
    {
      "midi": 59,
      "hit": false,
      "t": 64016.82512500004,
      "d": 19.662912500003586,
      "v": 48
    },
    {
      "midi": 61,
      "hit": false,
      "t": 64353.90362500004,
      "d": 2536.515712500004,
      "v": 35
    },
    {
      "midi": 57,
      "hit": false,
      "t": 64370.757550000046,
      "d": 2519.661787500001,
      "v": 39
    },
    {
      "midi": 64,
      "hit": false,
      "t": 64387.61147500005,
      "d": 2505.6168499999985,
      "v": 30
    },
    {
      "midi": 57,
      "hit": false,
      "t": 67401.65506250005,
      "d": 4831.458499999993,
      "v": 28
    },
    {
      "midi": 62,
      "hit": false,
      "t": 67426.93595000006,
      "d": 4749.997862499993,
      "v": 23
    },
    {
      "midi": 66,
      "hit": false,
      "t": 67426.93595000006,
      "d": 4797.750649999987,
      "v": 19
    },
    {
      "midi": 62,
      "hit": false,
      "t": 72800.52903750005,
      "d": 4820.222550000006,
      "v": 32
    },
    {
      "midi": 66,
      "hit": false,
      "t": 72814.57397500005,
      "d": 4834.267487500008,
      "v": 20
    },
    {
      "midi": 59,
      "hit": false,
      "t": 72820.19195000005,
      "d": 4837.076475000009,
      "v": 25
    },
    {
      "midi": 62,
      "hit": false,
      "t": 78185.35807500005,
      "d": 4918.537112500009,
      "v": 37
    },
    {
      "midi": 57,
      "hit": false,
      "t": 78185.35807500005,
      "d": 4960.671925000002,
      "v": 30
    },
    {
      "midi": 66,
      "hit": false,
      "t": 78213.44795000006,
      "d": 4969.098887500004,
      "v": 21
    },
    {
      "midi": 62,
      "hit": false,
      "t": 83606.70395000007,
      "d": 1969.1002374999953,
      "v": 32
    },
    {
      "midi": 66,
      "hit": false,
      "t": 83606.70395000007,
      "d": 1969.1002374999953,
      "v": 26
    },
    {
      "midi": 59,
      "hit": false,
      "t": 83606.70395000007,
      "d": 1994.3811249999999,
      "v": 32
    },
    {
      "midi": 64,
      "hit": false,
      "t": 86264.00612500007,
      "d": 1019.6624624999968,
      "v": 22
    },
    {
      "midi": 54,
      "hit": false,
      "t": 86264.00612500007,
      "d": 2084.2687250000017,
      "v": 15
    },
    {
      "midi": 58,
      "hit": false,
      "t": 86264.00612500007,
      "d": 2106.740625000006,
      "v": 17
    },
    {
      "midi": 61,
      "hit": false,
      "t": 86331.42182500007,
      "d": 2087.0777125000022,
      "v": 15
    },
    {
      "midi": 59,
      "hit": false,
      "t": 88974.67906250007,
      "d": 4794.941662500001,
      "v": 27
    },
    {
      "midi": 54,
      "hit": false,
      "t": 88994.34197500008,
      "d": 4803.368625000003,
      "v": 19
    },
    {
      "midi": 62,
      "hit": false,
      "t": 89044.90375000007,
      "d": 4758.424825000009,
      "v": 18
    },
    {
      "midi": 59,
      "hit": false,
      "t": 94367.93506250008,
      "d": 2067.414800000013,
      "v": 28
    },
    {
      "midi": 55,
      "hit": false,
      "t": 94367.93506250008,
      "d": 2101.1226500000193,
      "v": 27
    },
    {
      "midi": 62,
      "hit": false,
      "t": 94401.64291250009,
      "d": 2022.471000000005,
      "v": 25
    },
    {
      "midi": 58,
      "hit": false,
      "t": 97011.1923000001,
      "d": 1693.8194624999887,
      "v": 23
    },
    {
      "midi": 61,
      "hit": false,
      "t": 97087.0349625001,
      "d": 1634.8307249999925,
      "v": 17
    },
    {
      "midi": 54,
      "hit": false,
      "t": 97140.40572500009,
      "d": 1522.4712250000011,
      "v": 13
    },
    {
      "midi": 62,
      "hit": false,
      "t": 99761.19106250009,
      "d": 2168.5383500000025,
      "v": 28
    },
    {
      "midi": 59,
      "hit": false,
      "t": 99786.4719500001,
      "d": 2207.864174999995,
      "v": 26
    },
    {
      "midi": 66,
      "hit": false,
      "t": 99786.4719500001,
      "d": 2384.8303874999983,
      "v": 22
    },
    {
      "midi": 61,
      "hit": false,
      "t": 102452.20108750009,
      "d": 2134.830500000011,
      "v": 28
    },
    {
      "midi": 64,
      "hit": false,
      "t": 102485.90893750009,
      "d": 2078.6507500000007,
      "v": 36
    },
    {
      "midi": 57,
      "hit": false,
      "t": 102485.90893750009,
      "d": 2233.1450624999998,
      "v": 25
    },
    {
      "midi": 59,
      "hit": false,
      "t": 105154.4470625001,
      "d": 2092.6956875000033,
      "v": 30
    },
    {
      "midi": 55,
      "hit": false,
      "t": 105154.4470625001,
      "d": 2115.1675875000074,
      "v": 29
    },
    {
      "midi": 62,
      "hit": false,
      "t": 105171.3009875001,
      "d": 2176.965312500004,
      "v": 30
    },
    {
      "midi": 58,
      "hit": false,
      "t": 107853.88405000011,
      "d": 1926.9654250000021,
      "v": 20
    },
    {
      "midi": 54,
      "hit": false,
      "t": 107853.88405000011,
      "d": 1946.6283375000057,
      "v": 21
    },
    {
      "midi": 61,
      "hit": false,
      "t": 107873.54696250011,
      "d": 2019.6620125000045,
      "v": 20
    },
    {
      "midi": 59,
      "hit": false,
      "t": 110567.36597500012,
      "d": 2165.729362500002,
      "v": 34
    },
    {
      "midi": 55,
      "hit": false,
      "t": 110567.36597500012,
      "d": 2213.482149999996,
      "v": 27
    },
    {
      "midi": 62,
      "hit": false,
      "t": 110572.98395000013,
      "d": 2387.639374999999,
      "v": 30
    },
    {
      "midi": 57,
      "hit": false,
      "t": 113272.42093750012,
      "d": 2441.0101375000086,
      "v": 38
    },
    {
      "midi": 54,
      "hit": false,
      "t": 113286.46587500013,
      "d": 2426.965200000006,
      "v": 22
    },
    {
      "midi": 61,
      "hit": false,
      "t": 113286.46587500013,
      "d": 2426.965200000006,
      "v": 22
    },
    {
      "midi": 62,
      "hit": false,
      "t": 117280.84610000013,
      "d": 64.60671249999723,
      "v": 49
    },
    {
      "midi": 59,
      "hit": false,
      "t": 117286.46407500013,
      "d": 58.988737499996205,
      "v": 34
    },
    {
      "midi": 66,
      "hit": false,
      "t": 117286.46407500013,
      "d": 58.988737499996205,
      "v": 31
    },
    {
      "midi": 62,
      "hit": false,
      "t": 117609.49763750013,
      "d": 317.4155874999997,
      "v": 42
    },
    {
      "midi": 66,
      "hit": false,
      "t": 117620.73358750013,
      "d": 297.7526749999961,
      "v": 26
    },
    {
      "midi": 59,
      "hit": false,
      "t": 117620.73358750013,
      "d": 328.6515375000017,
      "v": 34
    },
    {
      "midi": 61,
      "hit": false,
      "t": 118286.46362500013,
      "d": 3089.8862500000105,
      "v": 27
    },
    {
      "midi": 57,
      "hit": false,
      "t": 118317.36248750014,
      "d": 3061.7963750000054,
      "v": 29
    },
    {
      "midi": 64,
      "hit": false,
      "t": 118342.64337500015,
      "d": 3070.223337500007,
      "v": 25
    },
    {
      "midi": 59,
      "hit": false,
      "t": 122674.10210000015,
      "d": 78.65164999999979,
      "v": 38
    },
    {
      "midi": 62,
      "hit": false,
      "t": 122674.10210000015,
      "d": 78.65164999999979,
      "v": 49
    },
    {
      "midi": 66,
      "hit": false,
      "t": 122679.72007500015,
      "d": 58.988737499996205,
      "v": 31
    },
    {
      "midi": 62,
      "hit": false,
      "t": 122991.51768750015,
      "d": 339.8874875000038,
      "v": 43
    },
    {
      "midi": 59,
      "hit": false,
      "t": 123005.56262500015,
      "d": 342.6964750000043,
      "v": 33
    },
    {
      "midi": 66,
      "hit": false,
      "t": 123011.18060000015,
      "d": 303.3706499999971,
      "v": 30
    },
    {
      "midi": 61,
      "hit": false,
      "t": 123674.10165000016,
      "d": 2449.43710000001,
      "v": 31
    },
    {
      "midi": 57,
      "hit": false,
      "t": 123693.76456250016,
      "d": 2441.0101375000086,
      "v": 35
    },
    {
      "midi": 64,
      "hit": false,
      "t": 123693.76456250016,
      "d": 2457.8640625000116,
      "v": 32
    },
    {
      "midi": 62,
      "hit": false,
      "t": 126752.75195000017,
      "d": 4960.671924999988,
      "v": 35
    },
    {
      "midi": 57,
      "hit": false,
      "t": 126761.17891250017,
      "d": 4963.480912499988,
      "v": 31
    },
    {
      "midi": 66,
      "hit": false,
      "t": 126761.17891250017,
      "d": 4963.480912499988,
      "v": 20
    },
    {
      "midi": 62,
      "hit": false,
      "t": 132154.43491250015,
      "d": 4727.525962499989,
      "v": 28
    },
    {
      "midi": 59,
      "hit": false,
      "t": 132154.43491250015,
      "d": 4738.761912499991,
      "v": 30
    },
    {
      "midi": 66,
      "hit": false,
      "t": 132154.43491250015,
      "d": 4744.379887499992,
      "v": 24
    },
    {
      "midi": 62,
      "hit": false,
      "t": 137513.98306250013,
      "d": 4814.604575000005,
      "v": 29
    },
    {
      "midi": 57,
      "hit": false,
      "t": 137539.26395000014,
      "d": 4764.042799999996,
      "v": 23
    },
    {
      "midi": 66,
      "hit": false,
      "t": 137539.26395000014,
      "d": 4856.7393875000125,
      "v": 21
    },
    {
      "midi": 62,
      "hit": false,
      "t": 142932.51995000016,
      "d": 2008.426062499988,
      "v": 31
    },
    {
      "midi": 59,
      "hit": false,
      "t": 142932.51995000016,
      "d": 2050.5608749999956,
      "v": 29
    },
    {
      "midi": 66,
      "hit": false,
      "t": 142932.51995000016,
      "d": 2050.5608749999956,
      "v": 23
    },
    {
      "midi": 54,
      "hit": false,
      "t": 145581.39516250015,
      "d": 5129.211175000033,
      "v": 23
    },
    {
      "midi": 58,
      "hit": false,
      "t": 145631.95693750016,
      "d": 2117.976575000008,
      "v": 22
    },
    {
      "midi": 61,
      "hit": false,
      "t": 145631.95693750016,
      "d": 2654.4931875000184,
      "v": 19
    },
    {
      "midi": 64,
      "hit": false,
      "t": 147674.09085000015,
      "d": 595.5053500000213,
      "v": 32
    },
    {
      "midi": 62,
      "hit": false,
      "t": 148325.77595000018,
      "d": 2233.1450624999998,
      "v": 47
    },
    {
      "midi": 59,
      "hit": false,
      "t": 148325.77595000018,
      "d": 2247.1900000000023,
      "v": 31
    },
    {
      "midi": 66,
      "hit": false,
      "t": 148325.77595000018,
      "d": 2353.9315249999927,
      "v": 24
    },
    {
      "midi": 61,
      "hit": false,
      "t": 150974.65116250017,
      "d": 2292.1338000000105,
      "v": 32
    },
    {
      "midi": 57,
      "hit": false,
      "t": 150974.65116250017,
      "d": 2367.9764625000244,
      "v": 27
    },
    {
      "midi": 64,
      "hit": false,
      "t": 151025.21293750018,
      "d": 2325.8416500000167,
      "v": 34
    },
    {
      "midi": 55,
      "hit": false,
      "t": 153719.0319500002,
      "d": 2014.044037500018,
      "v": 33
    },
    {
      "midi": 59,
      "hit": false,
      "t": 153727.4589125002,
      "d": 1997.190112500015,
      "v": 35
    },
    {
      "midi": 62,
      "hit": false,
      "t": 153744.3128375002,
      "d": 1980.3361875000119,
      "v": 24
    },
    {
      "midi": 54,
      "hit": false,
      "t": 156367.90716250023,
      "d": 1615.1678125000035,
      "v": 24
    },
    {
      "midi": 61,
      "hit": false,
      "t": 156398.80602500023,
      "d": 1620.7857875000045,
      "v": 19
    },
    {
      "midi": 58,
      "hit": false,
      "t": 156418.46893750023,
      "d": 1573.0329999999958,
      "v": 19
    },
    {
      "midi": 66,
      "hit": false,
      "t": 159078.58010000022,
      "d": 2466.291025000013,
      "v": 25
    },
    {
      "midi": 62,
      "hit": false,
      "t": 159112.28795000023,
      "d": 2249.998987500003,
      "v": 36
    },
    {
      "midi": 59,
      "hit": false,
      "t": 159112.28795000023,
      "d": 2258.4259500000044,
      "v": 29
    },
    {
      "midi": 61,
      "hit": false,
      "t": 161814.53392500023,
      "d": 2188.2012624999916,
      "v": 27
    },
    {
      "midi": 57,
      "hit": false,
      "t": 161814.53392500023,
      "d": 2269.6618999999773,
      "v": 31
    },
    {
      "midi": 64,
      "hit": false,
      "t": 161828.57886250023,
      "d": 2168.538349999988,
      "v": 27
    },
    {
      "midi": 59,
      "hit": false,
      "t": 164488.6900250002,
      "d": 2137.6394875000115,
      "v": 37
    },
    {
      "midi": 62,
      "hit": false,
      "t": 164505.5439500002,
      "d": 2120.7855625000084,
      "v": 30
    },
    {
      "midi": 55,
      "hit": false,
      "t": 164513.9709125002,
      "d": 2084.2687250000017,
      "v": 31
    },
    {
      "midi": 57,
      "hit": false,
      "t": 167207.7899250002,
      "d": 657.3030750000034,
      "v": 44
    },
    {
      "midi": 61,
      "hit": false,
      "t": 167207.7899250002,
      "d": 2033.7069500000216,
      "v": 26
    },
    {
      "midi": 54,
      "hit": false,
      "t": 167275.2056250002,
      "d": 626.4042124999978,
      "v": 13
    },
    {
      "midi": 58,
      "hit": false,
      "t": 168185.3175750002,
      "d": 985.9546125000052,
      "v": 31
    },
    {
      "midi": 54,
      "hit": false,
      "t": 168202.1715000002,
      "d": 969.1006875000021,
      "v": 31
    },
    {
      "midi": 62,
      "hit": false,
      "t": 169865.0921000002,
      "d": 2171.3473375000176,
      "v": 37
    },
    {
      "midi": 59,
      "hit": false,
      "t": 169898.79995000022,
      "d": 2129.21252500001,
      "v": 25
    },
    {
      "midi": 55,
      "hit": false,
      "t": 169898.79995000022,
      "d": 2219.100124999997,
      "v": 18
    },
    {
      "midi": 57,
      "hit": false,
      "t": 172598.23693750022,
      "d": 2042.133912499994,
      "v": 31
    },
    {
      "midi": 61,
      "hit": false,
      "t": 172598.23693750022,
      "d": 2101.122650000005,
      "v": 19
    },
    {
      "midi": 54,
      "hit": false,
      "t": 172640.37175000022,
      "d": 1999.9990999999864,
      "v": 14
    },
    {
      "midi": 59,
      "hit": false,
      "t": 175235.87620000023,
      "d": 2011.2350500000175,
      "v": 38
    },
    {
      "midi": 55,
      "hit": false,
      "t": 175252.73012500023,
      "d": 2078.6507500000007,
      "v": 35
    },
    {
      "midi": 62,
      "hit": false,
      "t": 175266.77506250024,
      "d": 2171.3473374999885,
      "v": 34
    },
    {
      "midi": 57,
      "hit": false,
      "t": 177991.49293750024,
      "d": 2073.0327749999997,
      "v": 37
    },
    {
      "midi": 61,
      "hit": false,
      "t": 177999.91990000024,
      "d": 2095.5046750000038,
      "v": 24
    },
    {
      "midi": 54,
      "hit": false,
      "t": 178011.15585000024,
      "d": 2058.987837499997,
      "v": 17
    },
    {
      "midi": 59,
      "hit": false,
      "t": 180651.60410000026,
      "d": 2140.448475000012,
      "v": 37
    },
    {
      "midi": 62,
      "hit": false,
      "t": 180660.03106250026,
      "d": 2157.302400000015,
      "v": 37
    },
    {
      "midi": 55,
      "hit": false,
      "t": 180682.50296250026,
      "d": 2174.156325000018,
      "v": 26
    },
    {
      "midi": 57,
      "hit": false,
      "t": 183359.4680500003,
      "d": 2174.156325000018,
      "v": 43
    },
    {
      "midi": 61,
      "hit": false,
      "t": 183359.4680500003,
      "d": 2174.156325000018,
      "v": 26
    },
    {
      "midi": 54,
      "hit": false,
      "t": 183384.7489375003,
      "d": 2148.8754375000135,
      "v": 26
    },
    {
      "midi": 59,
      "hit": false,
      "t": 186053.2870625003,
      "d": 2019.662012500019,
      "v": 28
    },
    {
      "midi": 62,
      "hit": false,
      "t": 186086.99491250032,
      "d": 1985.954162500013,
      "v": 34
    },
    {
      "midi": 55,
      "hit": false,
      "t": 186086.99491250032,
      "d": 2067.4147999999986,
      "v": 29
    },
    {
      "midi": 57,
      "hit": false,
      "t": 188752.7240500003,
      "d": 2210.673162500025,
      "v": 35
    },
    {
      "midi": 54,
      "hit": false,
      "t": 188752.7240500003,
      "d": 2272.470887500036,
      "v": 23
    },
    {
      "midi": 61,
      "hit": false,
      "t": 188778.00493750031,
      "d": 2696.628000000026,
      "v": 23
    },
    {
      "midi": 64,
      "hit": false,
      "t": 189775.19550000032,
      "d": 1702.2464250000194,
      "v": 33
    },
    {
      "midi": 59,
      "hit": false,
      "t": 191463.39698750034,
      "d": 2095.5046750000038,
      "v": 35
    },
    {
      "midi": 55,
      "hit": false,
      "t": 191474.63293750034,
      "d": 2112.358600000007,
      "v": 35
    },
    {
      "midi": 62,
      "hit": false,
      "t": 191488.67787500034,
      "d": 2064.605812499998,
      "v": 34
    },
    {
      "midi": 57,
      "hit": false,
      "t": 194137.55308750036,
      "d": 2146.066450000013,
      "v": 31
    },
    {
      "midi": 54,
      "hit": false,
      "t": 194148.78903750036,
      "d": 2134.830500000011,
      "v": 20
    },
    {
      "midi": 64,
      "hit": false,
      "t": 194148.78903750036,
      "d": 2252.8079750000034,
      "v": 35
    },
    {
      "midi": 61,
      "hit": false,
      "t": 194171.26093750037,
      "d": 2112.358600000007,
      "v": 22
    },
    {
      "midi": 59,
      "hit": false,
      "t": 196825.75412500036,
      "d": 2143.2574625000125,
      "v": 43
    },
    {
      "midi": 55,
      "hit": false,
      "t": 196839.79906250036,
      "d": 2148.8754375000135,
      "v": 29
    },
    {
      "midi": 62,
      "hit": false,
      "t": 196865.07995000036,
      "d": 2123.594550000009,
      "v": 31
    },
    {
      "midi": 57,
      "hit": false,
      "t": 199502.71921250038,
      "d": 2224.7180999999982,
      "v": 24
    },
    {
      "midi": 54,
      "hit": false,
      "t": 199547.6630125004,
      "d": 2255.616962500004,
      "v": 19
    },
    {
      "midi": 61,
      "hit": false,
      "t": 199561.7079500004,
      "d": 2165.7293624999875,
      "v": 23
    },
    {
      "midi": 64,
      "hit": false,
      "t": 199561.7079500004,
      "d": 2269.6619000000064,
      "v": 33
    },
    {
      "midi": 59,
      "hit": false,
      "t": 202266.7629125004,
      "d": 1997.190112500015,
      "v": 25
    },
    {
      "midi": 55,
      "hit": false,
      "t": 202266.7629125004,
      "d": 2087.0777125000022,
      "v": 24
    },
    {
      "midi": 62,
      "hit": false,
      "t": 202275.1898750004,
      "d": 2078.6507500000007,
      "v": 31
    },
    {
      "midi": 57,
      "hit": false,
      "t": 204921.25610000038,
      "d": 1887.639599999995,
      "v": 32
    },
    {
      "midi": 54,
      "hit": false,
      "t": 204921.25610000038,
      "d": 1960.6732750000083,
      "v": 29
    },
    {
      "midi": 61,
      "hit": false,
      "t": 204952.15496250038,
      "d": 2126.4035375000094,
      "v": 19
    },
    {
      "midi": 64,
      "hit": false,
      "t": 205988.67135000037,
      "d": 1089.8871500000241,
      "v": 25
    },
    {
      "midi": 57,
      "hit": false,
      "t": 206977.43495000037,
      "d": 58.98873750001076,
      "v": 49
    },
    {
      "midi": 54,
      "hit": false,
      "t": 206985.86191250038,
      "d": 50.56177500000922,
      "v": 44
    },
    {
      "midi": 62,
      "hit": false,
      "t": 207289.2325625004,
      "d": 2483.144949999987,
      "v": 33
    },
    {
      "midi": 55,
      "hit": false,
      "t": 207311.7044625004,
      "d": 2460.673049999983,
      "v": 47
    },
    {
      "midi": 59,
      "hit": false,
      "t": 207317.3224375004,
      "d": 2342.6955749999906,
      "v": 54
    },
    {
      "midi": 61,
      "hit": false,
      "t": 210336.98400000038,
      "d": 1797.7520000000077,
      "v": 24
    },
    {
      "midi": 64,
      "hit": false,
      "t": 210336.98400000038,
      "d": 2078.6507500000007,
      "v": 42
    },
    {
      "midi": 57,
      "hit": false,
      "t": 210348.21995000038,
      "d": 1786.5160500000056,
      "v": 22
    },
    {
      "midi": 61,
      "hit": false,
      "t": 212314.5112000004,
      "d": 382.02229999998235,
      "v": 50
    },
    {
      "midi": 57,
      "hit": false,
      "t": 212331.3651250004,
      "d": 345.5054624999757,
      "v": 57
    },
    {
      "midi": 64,
      "hit": false,
      "t": 212676.87058750037,
      "d": 384.83128750001197,
      "v": 54
    },
    {
      "midi": 55,
      "hit": false,
      "t": 213027.99402500037,
      "d": 2182.5832875000197,
      "v": 30
    },
    {
      "midi": 59,
      "hit": false,
      "t": 213044.84795000037,
      "d": 2078.6507500000007,
      "v": 27
    },
    {
      "midi": 62,
      "hit": false,
      "t": 213654.39823750037,
      "d": 1485.954387500009,
      "v": 21
    },
    {
      "midi": 57,
      "hit": false,
      "t": 215730.2400000004,
      "d": 2078.6507500000007,
      "v": 39
    },
    {
      "midi": 61,
      "hit": false,
      "t": 215730.2400000004,
      "d": 2106.740625000006,
      "v": 27
    },
    {
      "midi": 54,
      "hit": false,
      "t": 215744.2849375004,
      "d": 2087.0777125000022,
      "v": 26
    },
    {
      "midi": 59,
      "hit": false,
      "t": 218438.1039500004,
      "d": 1977.5272000000114,
      "v": 23
    },
    {
      "midi": 55,
      "hit": false,
      "t": 218438.1039500004,
      "d": 2047.7518875000242,
      "v": 23
    },
    {
      "midi": 62,
      "hit": false,
      "t": 218449.3399000004,
      "d": 2137.6394875000115,
      "v": 35
    },
    {
      "midi": 57,
      "hit": false,
      "t": 221112.26005000042,
      "d": 2297.7517749999824,
      "v": 31
    },
    {
      "midi": 54,
      "hit": false,
      "t": 221131.92296250042,
      "d": 2278.088862499979,
      "v": 17
    },
    {
      "midi": 61,
      "hit": false,
      "t": 221131.92296250042,
      "d": 2558.987612499972,
      "v": 18
    },
    {
      "midi": 64,
      "hit": false,
      "t": 223129.1130750004,
      "d": 601.1233249999932,
      "v": 35
    },
    {
      "midi": 62,
      "hit": false,
      "t": 223792.0341250004,
      "d": 2275.2798750000366,
      "v": 14
    },
    {
      "midi": 59,
      "hit": false,
      "t": 223806.07906250042,
      "d": 2123.594550000009,
      "v": 24
    },
    {
      "midi": 55,
      "hit": false,
      "t": 223828.55096250042,
      "d": 2168.538350000017,
      "v": 19
    },
    {
      "midi": 57,
      "hit": false,
      "t": 226527.98795000045,
      "d": 2028.0889749999915,
      "v": 34
    },
    {
      "midi": 54,
      "hit": false,
      "t": 226527.98795000045,
      "d": 2067.4147999999986,
      "v": 19
    },
    {
      "midi": 61,
      "hit": false,
      "t": 226527.98795000045,
      "d": 2219.100124999997,
      "v": 22
    },
    {
      "midi": 59,
      "hit": false,
      "t": 229224.61595000044,
      "d": 2011.2350500000175,
      "v": 29
    },
    {
      "midi": 55,
      "hit": false,
      "t": 229224.61595000044,
      "d": 2039.3249250000226,
      "v": 25
    },
    {
      "midi": 62,
      "hit": false,
      "t": 229252.70582500045,
      "d": 2022.4710000000196,
      "v": 28
    },
    {
      "midi": 54,
      "hit": false,
      "t": 231918.43496250047,
      "d": 2238.763037500001,
      "v": 18
    },
    {
      "midi": 57,
      "hit": false,
      "t": 231918.43496250047,
      "d": 2238.763037500001,
      "v": 28
    },
    {
      "midi": 61,
      "hit": false,
      "t": 231918.43496250047,
      "d": 2272.470887500007,
      "v": 18
    },
    {
      "midi": 35,
      "hit": false,
      "t": 234617.87195000047,
      "d": 4441.009237500024,
      "v": 60
    },
    {
      "midi": 62,
      "hit": false,
      "t": 235926.86012500047,
      "d": 70.2246875000128,
      "v": 50
    },
    {
      "midi": 59,
      "hit": false,
      "t": 235935.28708750047,
      "d": 70.2246875000128,
      "v": 36
    },
    {
      "midi": 66,
      "hit": false,
      "t": 235935.28708750047,
      "d": 70.2246875000128,
      "v": 29
    },
    {
      "midi": 62,
      "hit": false,
      "t": 236269.55660000048,
      "d": 317.4155874999997,
      "v": 41
    },
    {
      "midi": 66,
      "hit": false,
      "t": 236269.55660000048,
      "d": 317.4155874999997,
      "v": 28
    },
    {
      "midi": 59,
      "hit": false,
      "t": 236277.98356250048,
      "d": 337.07850000000326,
      "v": 33
    },
    {
      "midi": 57,
      "hit": false,
      "t": 236974.6124625005,
      "d": 2365.1674749999947,
      "v": 27
    },
    {
      "midi": 61,
      "hit": false,
      "t": 236974.6124625005,
      "d": 2365.1674749999947,
      "v": 32
    },
    {
      "midi": 64,
      "hit": false,
      "t": 236988.6574000005,
      "d": 2390.4483624999993,
      "v": 31
    },
    {
      "midi": 30,
      "hit": false,
      "t": 239640.34160000048,
      "d": 345.5054625000048,
      "v": 36
    },
    {
      "midi": 35,
      "hit": false,
      "t": 240011.1279500005,
      "d": 4623.593425000028,
      "v": 44
    },
    {
      "midi": 62,
      "hit": false,
      "t": 241325.7341000005,
      "d": 73.03367500001332,
      "v": 54
    },
    {
      "midi": 66,
      "hit": false,
      "t": 241325.7341000005,
      "d": 73.03367500001332,
      "v": 31
    },
    {
      "midi": 59,
      "hit": false,
      "t": 241331.3520750005,
      "d": 73.03367500001332,
      "v": 38
    },
    {
      "midi": 62,
      "hit": false,
      "t": 241662.8126000005,
      "d": 339.8874875000038,
      "v": 45
    },
    {
      "midi": 59,
      "hit": false,
      "t": 241662.8126000005,
      "d": 390.449262500013,
      "v": 32
    },
    {
      "midi": 66,
      "hit": false,
      "t": 241671.2395625005,
      "d": 331.46052500000224,
      "v": 28
    },
    {
      "midi": 57,
      "hit": false,
      "t": 242365.0594750005,
      "d": 2705.0549624999985,
      "v": 29
    },
    {
      "midi": 61,
      "hit": false,
      "t": 242365.0594750005,
      "d": 2724.717875000002,
      "v": 29
    },
    {
      "midi": 64,
      "hit": false,
      "t": 242393.14935000052,
      "d": 2733.1448375000036,
      "v": 27
    },
    {
      "midi": 30,
      "hit": false,
      "t": 245044.8335500005,
      "d": 353.93242500000633,
      "v": 52
    },
    {
      "midi": 35,
      "hit": false,
      "t": 245379.1030625005,
      "d": 4713.481025000045,
      "v": 52
    },
    {
      "midi": 66,
      "hit": false,
      "t": 246727.41706250052,
      "d": 70.2246875000128,
      "v": 24
    },
    {
      "midi": 59,
      "hit": false,
      "t": 246727.41706250052,
      "d": 84.26962500001537,
      "v": 30
    },
    {
      "midi": 62,
      "hit": false,
      "t": 246727.41706250052,
      "d": 84.26962500001537,
      "v": 43
    },
    {
      "midi": 62,
      "hit": false,
      "t": 247056.06860000052,
      "d": 311.79761249999865,
      "v": 44
    },
    {
      "midi": 59,
      "hit": false,
      "t": 247056.06860000052,
      "d": 317.4155874999997,
      "v": 35
    },
    {
      "midi": 66,
      "hit": false,
      "t": 247061.68657500052,
      "d": 297.7526749999961,
      "v": 29
    },
    {
      "midi": 61,
      "hit": false,
      "t": 247730.22560000053,
      "d": 2775.2796500000404,
      "v": 23
    },
    {
      "midi": 57,
      "hit": false,
      "t": 247758.31547500053,
      "d": 2730.335850000032,
      "v": 24
    },
    {
      "midi": 64,
      "hit": false,
      "t": 247783.59636250054,
      "d": 2738.7628125000338,
      "v": 22
    },
    {
      "midi": 30,
      "hit": false,
      "t": 250438.08955000056,
      "d": 325.8425500000012,
      "v": 54
    },
    {
      "midi": 35,
      "hit": false,
      "t": 250777.97703750056,
      "d": 2264.0439249999763,
      "v": 56
    },
    {
      "midi": 66,
      "hit": false,
      "t": 252115.05508750057,
      "d": 89.88759999998729,
      "v": 34
    },
    {
      "midi": 59,
      "hit": false,
      "t": 252120.67306250057,
      "d": 81.46063749998575,
      "v": 37
    },
    {
      "midi": 62,
      "hit": false,
      "t": 252120.67306250057,
      "d": 81.46063749998575,
      "v": 46
    },
    {
      "midi": 62,
      "hit": false,
      "t": 252457.75156250055,
      "d": 303.3706499999971,
      "v": 46
    },
    {
      "midi": 59,
      "hit": false,
      "t": 252457.75156250055,
      "d": 328.6515375000017,
      "v": 38
    },
    {
      "midi": 66,
      "hit": false,
      "t": 252499.88637500055,
      "d": 252.8088749999879,
      "v": 30
    },
    {
      "midi": 61,
      "hit": false,
      "t": 253137.52653750053,
      "d": 2441.0101375000086,
      "v": 24
    },
    {
      "midi": 57,
      "hit": false,
      "t": 253137.52653750053,
      "d": 2463.4820375000127,
      "v": 31
    },
    {
      "midi": 64,
      "hit": false,
      "t": 253159.99843750053,
      "d": 2483.1449500000163,
      "v": 38
    },
    {
      "midi": 57,
      "hit": false,
      "t": 256171.23303750055,
      "d": 7308.985475000023,
      "v": 20
    },
    {
      "midi": 38,
      "hit": false,
      "t": 256216.17683750056,
      "d": 7235.95180000001,
      "v": 19
    },
    {
      "midi": 66,
      "hit": false,
      "t": 256216.17683750056,
      "d": 7252.805725000013,
      "v": 16
    },
    {
      "midi": 62,
      "hit": false,
      "t": 256216.17683750056,
      "d": 7266.850662499986,
      "v": 19
    }
  ]
}