{
  "jsonPath": "Rock/Album Rock/Meat Loaf/id-do-anything-for-love.json",
  "path": "Rock\\Album Rock\\Meat Loaf\\Id Do Anything for Love.mid",
  "name": "Id Do Anything for Love",
  "difficulty": "Advanced",
  "bpm": 90.00009000009,
  "notes": [
    {
      "midi": 74,
      "hit": false,
      "t": 1333.332,
      "d": 166.66650000000004,
      "v": 64
    },
    {
      "midi": 76,
      "hit": false,
      "t": 1333.332,
      "d": 166.66650000000004,
      "v": 64
    },
    {
      "midi": 69,
      "hit": false,
      "t": 1499.9985000000001,
      "d": 166.66650000000004,
      "v": 64
    },
    {
      "midi": 74,
      "hit": false,
      "t": 1666.6650000000002,
      "d": 166.66650000000004,
      "v": 64
    },
    {
      "midi": 76,
      "hit": false,
      "t": 1666.6650000000002,
      "d": 166.66650000000004,
      "v": 64
    },
    {
      "midi": 69,
      "hit": false,
      "t": 1833.3315000000002,
      "d": 166.66650000000004,
      "v": 64
    },
    {
      "midi": 74,
      "hit": false,
      "t": 1999.9980000000003,
      "d": 166.66650000000004,
      "v": 64
    },
    {
      "midi": 78,
      "hit": false,
      "t": 1999.9980000000003,
      "d": 166.66650000000004,
      "v": 64
    },
    {
      "midi": 69,
      "hit": false,
      "t": 2166.6645000000003,
      "d": 166.66649999999981,
      "v": 64
    },
    {
      "midi": 74,
      "hit": false,
      "t": 2333.331,
      "d": 166.66649999999981,
      "v": 64
    },
    {
      "midi": 79,
      "hit": false,
      "t": 2333.331,
      "d": 166.66649999999981,
      "v": 64
    },
    {
      "midi": 69,
      "hit": false,
      "t": 2499.9975,
      "d": 166.66649999999981,
      "v": 64
    },
    {
      "midi": 74,
      "hit": false,
      "t": 2666.6639999999998,
      "d": 166.66649999999981,
      "v": 64
    },
    {
      "midi": 78,
      "hit": false,
      "t": 2666.6639999999998,
      "d": 166.66649999999981,
      "v": 64
    },
    {
      "midi": 69,
      "hit": false,
      "t": 2833.3304999999996,
      "d": 166.66649999999981,
      "v": 64
    },
    {
      "midi": 74,
      "hit": false,
      "t": 2999.9969999999994,
      "d": 166.66649999999981,
      "v": 64
    },
    {
      "midi": 69,
      "hit": false,
      "t": 3166.663499999999,
      "d": 166.66649999999981,
      "v": 64
    },
    {
      "midi": 74,
      "hit": false,
      "t": 3333.329999999999,
      "d": 166.66649999999981,
      "v": 64
    },
    {
      "midi": 79,
      "hit": false,
      "t": 3333.329999999999,
      "d": 166.66649999999981,
      "v": 64
    },
    {
      "midi": 69,
      "hit": false,
      "t": 3499.996499999999,
      "d": 166.66649999999981,
      "v": 64
    },
    {
      "midi": 74,
      "hit": false,
      "t": 3666.6629999999986,
      "d": 166.66649999999981,
      "v": 64
    },
    {
      "midi": 78,
      "hit": false,
      "t": 3666.6629999999986,
      "d": 166.66649999999981,
      "v": 64
    },
    {
      "midi": 69,
      "hit": false,
      "t": 3833.3294999999985,
      "d": 166.66649999999981,
      "v": 64
    },
    {
      "midi": 74,
      "hit": false,
      "t": 3999.9959999999983,
      "d": 166.66650000000027,
      "v": 64
    },
    {
      "midi": 76,
      "hit": false,
      "t": 3999.9959999999983,
      "d": 166.66650000000027,
      "v": 64
    },
    {
      "midi": 69,
      "hit": false,
      "t": 4166.6624999999985,
      "d": 166.66650000000027,
      "v": 64
    },
    {
      "midi": 74,
      "hit": false,
      "t": 4333.328999999999,
      "d": 166.66650000000027,
      "v": 64
    },
    {
      "midi": 76,
      "hit": false,
      "t": 4333.328999999999,
      "d": 166.66650000000027,
      "v": 64
    },
    {
      "midi": 69,
      "hit": false,
      "t": 4499.995499999999,
      "d": 166.66650000000027,
      "v": 64
    },
    {
      "midi": 74,
      "hit": false,
      "t": 4666.661999999999,
      "d": 166.66650000000027,
      "v": 64
    },
    {
      "midi": 78,
      "hit": false,
      "t": 4666.661999999999,
      "d": 166.66650000000027,
      "v": 64
    },
    {
      "midi": 69,
      "hit": false,
      "t": 4833.3285,
      "d": 166.66650000000027,
      "v": 64
    },
    {
      "midi": 74,
      "hit": false,
      "t": 4999.995,
      "d": 166.66650000000027,
      "v": 64
    },
    {
      "midi": 79,
      "hit": false,
      "t": 4999.995,
      "d": 166.66650000000027,
      "v": 64
    },
    {
      "midi": 69,
      "hit": false,
      "t": 5166.6615,
      "d": 166.66650000000027,
      "v": 64
    },
    {
      "midi": 74,
      "hit": false,
      "t": 5333.328,
      "d": 166.66650000000027,
      "v": 64
    },
    {
      "midi": 78,
      "hit": false,
      "t": 5333.328,
      "d": 166.66650000000027,
      "v": 64
    },
    {
      "midi": 69,
      "hit": false,
      "t": 5499.994500000001,
      "d": 166.66650000000027,
      "v": 64
    },
    {
      "midi": 74,
      "hit": false,
      "t": 5666.661000000001,
      "d": 166.66650000000027,
      "v": 64
    },
    {
      "midi": 69,
      "hit": false,
      "t": 5833.327500000001,
      "d": 166.66650000000027,
      "v": 64
    },
    {
      "midi": 43,
      "hit": false,
      "t": 5999.994000000001,
      "d": 333.33299999999963,
      "v": 64
    },
    {
      "midi": 74,
      "hit": false,
      "t": 5999.9940000000015,
      "d": 166.66650000000027,
      "v": 64
    },
    {
      "midi": 79,
      "hit": false,
      "t": 5999.9940000000015,
      "d": 166.66650000000027,
      "v": 64
    },
    {
      "midi": 69,
      "hit": false,
      "t": 6166.660500000002,
      "d": 166.66650000000027,
      "v": 64
    },
    {
      "midi": 43,
      "hit": false,
      "t": 6333.327,
      "d": 333.33299999999963,
      "v": 64
    },
    {
      "midi": 74,
      "hit": false,
      "t": 6333.327000000002,
      "d": 166.66650000000027,
      "v": 64
    },
    {
      "midi": 78,
      "hit": false,
      "t": 6333.327000000002,
      "d": 166.66650000000027,
      "v": 64
    },
    {
      "midi": 69,
      "hit": false,
      "t": 6499.993500000002,
      "d": 166.66650000000027,
      "v": 64
    },
    {
      "midi": 40,
      "hit": false,
      "t": 6666.66,
      "d": 999.9989999999998,
      "v": 64
    },
    {
      "midi": 74,
      "hit": false,
      "t": 6666.660000000003,
      "d": 166.66650000000027,
      "v": 64
    },
    {
      "midi": 76,
      "hit": false,
      "t": 6666.660000000003,
      "d": 166.66650000000027,
      "v": 64
    },
    {
      "midi": 69,
      "hit": false,
      "t": 6833.326500000003,
      "d": 166.66650000000027,
      "v": 64
    },
    {
      "midi": 74,
      "hit": false,
      "t": 6999.993000000003,
      "d": 166.66650000000027,
      "v": 64
    },
    {
      "midi": 76,
      "hit": false,
      "t": 6999.993000000003,
      "d": 166.66650000000027,
      "v": 64
    },
    {
      "midi": 69,
      "hit": false,
      "t": 7166.659500000003,
      "d": 166.66650000000027,
      "v": 64
    },
    {
      "midi": 74,
      "hit": false,
      "t": 7333.326000000004,
      "d": 166.66650000000027,
      "v": 64
    },
    {
      "midi": 78,
      "hit": false,
      "t": 7333.326000000004,
      "d": 166.66650000000027,
      "v": 64
    },
    {
      "midi": 69,
      "hit": false,
      "t": 7499.992500000004,
      "d": 166.66650000000027,
      "v": 64
    },
    {
      "midi": 40,
      "hit": false,
      "t": 7666.659,
      "d": 333.33299999999963,
      "v": 64
    },
    {
      "midi": 74,
      "hit": false,
      "t": 7666.659000000004,
      "d": 166.66650000000027,
      "v": 64
    },
    {
      "midi": 79,
      "hit": false,
      "t": 7666.659000000004,
      "d": 166.66650000000027,
      "v": 64
    },
    {
      "midi": 69,
      "hit": false,
      "t": 7833.3255000000045,
      "d": 166.66650000000027,
      "v": 64
    },
    {
      "midi": 42,
      "hit": false,
      "t": 7999.991999999999,
      "d": 999.9990000000007,
      "v": 64
    },
    {
      "midi": 74,
      "hit": false,
      "t": 7999.992000000005,
      "d": 166.66650000000027,
      "v": 64
    },
    {
      "midi": 78,
      "hit": false,
      "t": 7999.992000000005,
      "d": 166.66650000000027,
      "v": 64
    },
    {
      "midi": 69,
      "hit": false,
      "t": 8166.658500000005,
      "d": 166.66649999999936,
      "v": 64
    },
    {
      "midi": 74,
      "hit": false,
      "t": 8333.325000000004,
      "d": 166.66649999999936,
      "v": 64
    },
    {
      "midi": 69,
      "hit": false,
      "t": 8499.991500000004,
      "d": 166.66649999999936,
      "v": 64
    },
    {
      "midi": 74,
      "hit": false,
      "t": 8666.658000000003,
      "d": 166.66649999999936,
      "v": 64
    },
    {
      "midi": 79,
      "hit": false,
      "t": 8666.658000000003,
      "d": 166.66649999999936,
      "v": 64
    },
    {
      "midi": 69,
      "hit": false,
      "t": 8833.324500000002,
      "d": 166.66649999999936,
      "v": 64
    },
    {
      "midi": 42,
      "hit": false,
      "t": 8999.991,
      "d": 333.33300000000054,
      "v": 64
    },
    {
      "midi": 74,
      "hit": false,
      "t": 8999.991000000002,
      "d": 166.66649999999936,
      "v": 64
    },
    {
      "midi": 78,
      "hit": false,
      "t": 8999.991000000002,
      "d": 166.66649999999936,
      "v": 64
    },
    {
      "midi": 69,
      "hit": false,
      "t": 9166.657500000001,
      "d": 166.66649999999936,
      "v": 64
    },
    {
      "midi": 74,
      "hit": false,
      "t": 9333.324,
      "d": 166.66649999999936,
      "v": 64
    },
    {
      "midi": 76,
      "hit": false,
      "t": 9333.324,
      "d": 166.66649999999936,
      "v": 64
    },
    {
      "midi": 45,
      "hit": false,
      "t": 9333.324,
      "d": 999.9989999999998,
      "v": 64
    },
    {
      "midi": 69,
      "hit": false,
      "t": 9499.9905,
      "d": 166.66649999999936,
      "v": 64
    },
    {
      "midi": 74,
      "hit": false,
      "t": 9666.657,
      "d": 166.66649999999936,
      "v": 64
    },
    {
      "midi": 76,
      "hit": false,
      "t": 9666.657,
      "d": 166.66649999999936,
      "v": 64
    },
    {
      "midi": 69,
      "hit": false,
      "t": 9833.323499999999,
      "d": 166.66649999999936,
      "v": 64
    },
    {
      "midi": 74,
      "hit": false,
      "t": 9999.989999999998,
      "d": 166.66649999999936,
      "v": 64
    },
    {
      "midi": 78,
      "hit": false,
      "t": 9999.989999999998,
      "d": 166.66649999999936,
      "v": 64
    },
    {
      "midi": 69,
      "hit": false,
      "t": 10166.656499999997,
      "d": 166.66649999999936,
      "v": 64
    },
    {
      "midi": 74,
      "hit": false,
      "t": 10333.322999999997,
      "d": 166.66649999999936,
      "v": 64
    },
    {
      "midi": 45,
      "hit": false,
      "t": 10333.323,
      "d": 333.33300000000054,
      "v": 64
    },
    {
      "midi": 69,
      "hit": false,
      "t": 10499.989499999996,
      "d": 166.66649999999936,
      "v": 64
    },
    {
      "midi": 78,
      "hit": false,
      "t": 10666.655999999995,
      "d": 166.66649999999936,
      "v": 64
    },
    {
      "midi": 45,
      "hit": false,
      "t": 10666.656,
      "d": 999.9989999999998,
      "v": 64
    },
    {
      "midi": 69,
      "hit": false,
      "t": 10833.322499999995,
      "d": 166.66649999999936,
      "v": 64
    },
    {
      "midi": 78,
      "hit": false,
      "t": 10999.988999999994,
      "d": 166.66649999999936,
      "v": 64
    },
    {
      "midi": 69,
      "hit": false,
      "t": 11166.655499999993,
      "d": 166.66649999999936,
      "v": 64
    },
    {
      "midi": 76,
      "hit": false,
      "t": 11333.321999999993,
      "d": 166.66649999999936,
      "v": 64
    },
    {
      "midi": 79,
      "hit": false,
      "t": 11333.321999999993,
      "d": 166.66649999999936,
      "v": 64
    },
    {
      "midi": 69,
      "hit": false,
      "t": 11499.988499999992,
      "d": 166.66649999999936,
      "v": 64
    },
    {
      "midi": 76,
      "hit": false,
      "t": 11666.654999999992,
      "d": 166.66649999999936,
      "v": 64
    },
    {
      "midi": 45,
      "hit": false,
      "t": 11666.655,
      "d": 333.33300000000054,
      "v": 64
    },
    {
      "midi": 69,
      "hit": false,
      "t": 11833.321499999991,
      "d": 166.66649999999936,
      "v": 64
    },
    {
      "midi": 69,
      "hit": false,
      "t": 11999.98799999999,
      "d": 666.6659999999993,
      "v": 64
    },
    {
      "midi": 76,
      "hit": false,
      "t": 11999.98799999999,
      "d": 666.6659999999993,
      "v": 64
    },
    {
      "midi": 45,
      "hit": false,
      "t": 11999.988000000001,
      "d": 333.33300000000054,
      "v": 64
    },
    {
      "midi": 45,
      "hit": false,
      "t": 12333.321000000002,
      "d": 666.6659999999993,
      "v": 64
    },
    {
      "midi": 64,
      "hit": false,
      "t": 12666.65399999999,
      "d": 666.6659999999993,
      "v": 64
    },
    {
      "midi": 69,
      "hit": false,
      "t": 12666.65399999999,
      "d": 666.6659999999993,
      "v": 64
    },
    {
      "midi": 76,
      "hit": false,
      "t": 12666.65399999999,
      "d": 666.6659999999993,
      "v": 64
    },
    {
      "midi": 57,
      "hit": false,
      "t": 12999.987000000001,
      "d": 333.33300000000054,
      "v": 64
    },
    {
      "midi": 64,
      "hit": false,
      "t": 13333.319999999989,
      "d": 999.9989999999998,
      "v": 64
    },
    {
      "midi": 69,
      "hit": false,
      "t": 13333.319999999989,
      "d": 999.9989999999998,
      "v": 64
    },
    {
      "midi": 76,
      "hit": false,
      "t": 13333.319999999989,
      "d": 999.9989999999998,
      "v": 64
    },
    {
      "midi": 57,
      "hit": false,
      "t": 13333.320000000002,
      "d": 666.6659999999993,
      "v": 64
    },
    {
      "midi": 57,
      "hit": false,
      "t": 13999.986,
      "d": 666.6659999999993,
      "v": 64
    },
    {
      "midi": 76,
      "hit": false,
      "t": 14333.318999999989,
      "d": 333.33300000000054,
      "v": 64
    },
    {
      "midi": 76,
      "hit": false,
      "t": 14666.65199999999,
      "d": 333.33300000000054,
      "v": 64
    },
    {
      "midi": 57,
      "hit": false,
      "t": 14666.652,
      "d": 666.6659999999993,
      "v": 64
    },
    {
      "midi": 78,
      "hit": false,
      "t": 14999.98499999999,
      "d": 333.33300000000054,
      "v": 64
    },
    {
      "midi": 79,
      "hit": false,
      "t": 15333.31799999999,
      "d": 666.6659999999993,
      "v": 64
    },
    {
      "midi": 57,
      "hit": false,
      "t": 15333.318,
      "d": 666.6659999999993,
      "v": 64
    },
    {
      "midi": 69,
      "hit": false,
      "t": 15999.98399999999,
      "d": 666.6660000000011,
      "v": 64
    },
    {
      "midi": 74,
      "hit": false,
      "t": 15999.98399999999,
      "d": 666.6660000000011,
      "v": 64
    },
    {
      "midi": 78,
      "hit": false,
      "t": 15999.98399999999,
      "d": 666.6660000000011,
      "v": 64
    },
    {
      "midi": 50,
      "hit": false,
      "t": 15999.983999999999,
      "d": 999.9990000000016,
      "v": 64
    },
    {
      "midi": 74,
      "hit": false,
      "t": 16666.64999999999,
      "d": 333.3329999999987,
      "v": 64
    },
    {
      "midi": 69,
      "hit": false,
      "t": 16999.98299999999,
      "d": 666.6660000000011,
      "v": 64
    },
    {
      "midi": 74,
      "hit": false,
      "t": 16999.98299999999,
      "d": 666.6660000000011,
      "v": 64
    },
    {
      "midi": 79,
      "hit": false,
      "t": 16999.98299999999,
      "d": 666.6660000000011,
      "v": 64
    },
    {
      "midi": 50,
      "hit": false,
      "t": 16999.983,
      "d": 666.6660000000011,
      "v": 64
    },
    {
      "midi": 69,
      "hit": false,
      "t": 17666.64899999999,
      "d": 666.6660000000011,
      "v": 64
    },
    {
      "midi": 74,
      "hit": false,
      "t": 17666.64899999999,
      "d": 666.6660000000011,
      "v": 64
    },
    {
      "midi": 78,
      "hit": false,
      "t": 17666.64899999999,
      "d": 666.6660000000011,
      "v": 64
    },
    {
      "midi": 50,
      "hit": false,
      "t": 17666.649,
      "d": 666.6660000000011,
      "v": 64
    },
    {
      "midi": 69,
      "hit": false,
      "t": 18333.31499999999,
      "d": 333.3329999999987,
      "v": 64
    },
    {
      "midi": 74,
      "hit": false,
      "t": 18333.31499999999,
      "d": 333.3329999999987,
      "v": 64
    },
    {
      "midi": 76,
      "hit": false,
      "t": 18333.31499999999,
      "d": 333.3329999999987,
      "v": 64
    },
    {
      "midi": 52,
      "hit": false,
      "t": 18333.315000000002,
      "d": 333.3329999999987,
      "v": 64
    },
    {
      "midi": 69,
      "hit": false,
      "t": 19666.64699999999,
      "d": 333.3329999999987,
      "v": 64
    },
    {
      "midi": 69,
      "hit": false,
      "t": 19999.97999999999,
      "d": 333.3329999999987,
      "v": 64
    },
    {
      "midi": 74,
      "hit": false,
      "t": 19999.97999999999,
      "d": 333.3329999999987,
      "v": 64
    },
    {
      "midi": 79,
      "hit": false,
      "t": 19999.97999999999,
      "d": 333.3329999999987,
      "v": 64
    },
    {
      "midi": 57,
      "hit": false,
      "t": 19999.98,
      "d": 1333.3319999999985,
      "v": 64
    },
    {
      "midi": 79,
      "hit": false,
      "t": 20333.312999999987,
      "d": 333.3329999999987,
      "v": 64
    },
    {
      "midi": 78,
      "hit": false,
      "t": 20666.645999999986,
      "d": 333.3329999999987,
      "v": 64
    },
    {
      "midi": 76,
      "hit": false,
      "t": 20999.978999999985,
      "d": 333.3329999999987,
      "v": 64
    },
    {
      "midi": 69,
      "hit": false,
      "t": 21333.311999999984,
      "d": 333.3329999999987,
      "v": 64
    },
    {
      "midi": 74,
      "hit": false,
      "t": 21333.311999999984,
      "d": 333.3329999999987,
      "v": 64
    },
    {
      "midi": 76,
      "hit": false,
      "t": 21333.311999999984,
      "d": 333.3329999999987,
      "v": 64
    },
    {
      "midi": 50,
      "hit": false,
      "t": 21333.311999999998,
      "d": 999.9989999999998,
      "v": 64
    },
    {
      "midi": 78,
      "hit": false,
      "t": 21666.644999999982,
      "d": 666.6660000000011,
      "v": 64
    },
    {
      "midi": 69,
      "hit": false,
      "t": 22333.310999999983,
      "d": 999.9989999999998,
      "v": 64
    },
    {
      "midi": 74,
      "hit": false,
      "t": 22333.310999999983,
      "d": 999.9989999999998,
      "v": 64
    },
    {
      "midi": 78,
      "hit": false,
      "t": 22333.310999999983,
      "d": 999.9989999999998,
      "v": 64
    },
    {
      "midi": 50,
      "hit": false,
      "t": 22333.310999999998,
      "d": 999.9989999999998,
      "v": 64
    },
    {
      "midi": 81,
      "hit": false,
      "t": 23333.309999999983,
      "d": 666.6660000000011,
      "v": 64
    },
    {
      "midi": 85,
      "hit": false,
      "t": 23333.309999999983,
      "d": 666.6660000000011,
      "v": 64
    },
    {
      "midi": 57,
      "hit": false,
      "t": 23333.309999999998,
      "d": 666.6660000000011,
      "v": 64
    },
    {
      "midi": 61,
      "hit": false,
      "t": 23333.309999999998,
      "d": 666.6660000000011,
      "v": 64
    },
    {
      "midi": 74,
      "hit": false,
      "t": 23999.975999999984,
      "d": 1333.3319999999985,
      "v": 64
    },
    {
      "midi": 79,
      "hit": false,
      "t": 23999.975999999984,
      "d": 1333.3319999999985,
      "v": 64
    },
    {
      "midi": 83,
      "hit": false,
      "t": 23999.975999999984,
      "d": 1333.3319999999985,
      "v": 64
    },
    {
      "midi": 50,
      "hit": false,
      "t": 23999.976,
      "d": 2666.6640000000007,
      "v": 64
    },
    {
      "midi": 55,
      "hit": false,
      "t": 23999.976,
      "d": 2666.6640000000007,
      "v": 64
    },
    {
      "midi": 59,
      "hit": false,
      "t": 23999.976,
      "d": 2666.6640000000007,
      "v": 64
    },
    {
      "midi": 71,
      "hit": false,
      "t": 25333.307999999983,
      "d": 333.3329999999987,
      "v": 64
    },
    {
      "midi": 76,
      "hit": false,
      "t": 25333.307999999983,
      "d": 333.3329999999987,
      "v": 64
    },
    {
      "midi": 78,
      "hit": false,
      "t": 25666.64099999998,
      "d": 333.3329999999987,
      "v": 64
    },
    {
      "midi": 69,
      "hit": false,
      "t": 25999.97399999998,
      "d": 666.6660000000011,
      "v": 64
    },
    {
      "midi": 74,
      "hit": false,
      "t": 25999.97399999998,
      "d": 666.6660000000011,
      "v": 64
    },
    {
      "midi": 79,
      "hit": false,
      "t": 25999.97399999998,
      "d": 666.6660000000011,
      "v": 64
    },
    {
      "midi": 78,
      "hit": false,
      "t": 26666.63999999998,
      "d": 666.6660000000011,
      "v": 64
    },
    {
      "midi": 50,
      "hit": false,
      "t": 26666.64,
      "d": 666.6660000000011,
      "v": 64
    },
    {
      "midi": 74,
      "hit": false,
      "t": 27333.305999999982,
      "d": 333.3329999999987,
      "v": 64
    },
    {
      "midi": 50,
      "hit": false,
      "t": 27333.306,
      "d": 333.3329999999987,
      "v": 64
    },
    {
      "midi": 69,
      "hit": false,
      "t": 27666.63899999998,
      "d": 666.6660000000011,
      "v": 64
    },
    {
      "midi": 74,
      "hit": false,
      "t": 27666.63899999998,
      "d": 666.6660000000011,
      "v": 64
    },
    {
      "midi": 79,
      "hit": false,
      "t": 27666.63899999998,
      "d": 666.6660000000011,
      "v": 64
    },
    {
      "midi": 50,
      "hit": false,
      "t": 27666.639,
      "d": 666.6660000000011,
      "v": 64
    },
    {
      "midi": 69,
      "hit": false,
      "t": 28333.304999999982,
      "d": 666.6660000000011,
      "v": 64
    },
    {
      "midi": 74,
      "hit": false,
      "t": 28333.304999999982,
      "d": 666.6660000000011,
      "v": 64
    },
    {
      "midi": 78,
      "hit": false,
      "t": 28333.304999999982,
      "d": 666.6660000000011,
      "v": 64
    },
    {
      "midi": 50,
      "hit": false,
      "t": 28333.305,
      "d": 666.6660000000011,
      "v": 64
    },
    {
      "midi": 69,
      "hit": false,
      "t": 28999.970999999983,
      "d": 333.3329999999987,
      "v": 64
    },
    {
      "midi": 74,
      "hit": false,
      "t": 28999.970999999983,
      "d": 333.3329999999987,
      "v": 64
    },
    {
      "midi": 76,
      "hit": false,
      "t": 28999.970999999983,
      "d": 333.3329999999987,
      "v": 64
    },
    {
      "midi": 52,
      "hit": false,
      "t": 28999.971,
      "d": 333.3329999999987,
      "v": 64
    },
    {
      "midi": 69,
      "hit": false,
      "t": 30166.636499999982,
      "d": 166.66649999999936,
      "v": 64
    },
    {
      "midi": 69,
      "hit": false,
      "t": 30333.30299999998,
      "d": 166.66649999999936,
      "v": 64
    },
    {
      "midi": 69,
      "hit": false,
      "t": 30499.96949999998,
      "d": 166.66649999999936,
      "v": 64
    },
    {
      "midi": 69,
      "hit": false,
      "t": 30666.63599999998,
      "d": 333.3329999999987,
      "v": 64
    },
    {
      "midi": 74,
      "hit": false,
      "t": 30666.63599999998,
      "d": 333.3329999999987,
      "v": 64
    },
    {
      "midi": 79,
      "hit": false,
      "t": 30666.63599999998,
      "d": 333.3329999999987,
      "v": 64
    },
    {
      "midi": 57,
      "hit": false,
      "t": 30666.636,
      "d": 1333.3319999999985,
      "v": 64
    },
    {
      "midi": 79,
      "hit": false,
      "t": 30999.96899999998,
      "d": 333.3329999999987,
      "v": 64
    },
    {
      "midi": 78,
      "hit": false,
      "t": 31333.301999999978,
      "d": 333.3329999999987,
      "v": 64
    },
    {
      "midi": 76,
      "hit": false,
      "t": 31666.634999999977,
      "d": 333.3329999999987,
      "v": 64
    },
    {
      "midi": 66,
      "hit": false,
      "t": 31999.967999999975,
      "d": 333.3329999999987,
      "v": 64
    },
    {
      "midi": 69,
      "hit": false,
      "t": 31999.967999999975,
      "d": 333.3329999999987,
      "v": 64
    },
    {
      "midi": 76,
      "hit": false,
      "t": 31999.967999999975,
      "d": 333.3329999999987,
      "v": 64
    },
    {
      "midi": 50,
      "hit": false,
      "t": 31999.967999999997,
      "d": 999.9989999999998,
      "v": 64
    },
    {
      "midi": 74,
      "hit": false,
      "t": 32333.300999999974,
      "d": 666.6660000000011,
      "v": 64
    },
    {
      "midi": 74,
      "hit": false,
      "t": 32999.966999999975,
      "d": 999.9990000000034,
      "v": 64
    },
    {
      "midi": 50,
      "hit": false,
      "t": 32999.967,
      "d": 666.6659999999974,
      "v": 64
    },
    {
      "midi": 50,
      "hit": false,
      "t": 33666.632999999994,
      "d": 999.9990000000034,
      "v": 64
    },
    {
      "midi": 64,
      "hit": false,
      "t": 33999.96599999998,
      "d": 666.6659999999974,
      "v": 64
    },
    {
      "midi": 69,
      "hit": false,
      "t": 33999.96599999998,
      "d": 666.6659999999974,
      "v": 64
    },
    {
      "midi": 73,
      "hit": false,
      "t": 33999.96599999998,
      "d": 666.6659999999974,
      "v": 64
    },
    {
      "midi": 62,
      "hit": false,
      "t": 34666.631999999976,
      "d": 999.9990000000034,
      "v": 64
    },
    {
      "midi": 67,
      "hit": false,
      "t": 34666.631999999976,
      "d": 999.9990000000034,
      "v": 64
    },
    {
      "midi": 69,
      "hit": false,
      "t": 34666.631999999976,
      "d": 999.9990000000034,
      "v": 64
    },
    {
      "midi": 71,
      "hit": false,
      "t": 34666.631999999976,
      "d": 999.9990000000034,
      "v": 64
    },
    {
      "midi": 50,
      "hit": false,
      "t": 34666.632,
      "d": 2666.663999999997,
      "v": 64
    },
    {
      "midi": 59,
      "hit": false,
      "t": 35666.63099999998,
      "d": 999.9990000000034,
      "v": 64
    },
    {
      "midi": 62,
      "hit": false,
      "t": 36666.62999999998,
      "d": 333.3329999999987,
      "v": 64
    },
    {
      "midi": 76,
      "hit": false,
      "t": 36999.96299999998,
      "d": 166.66649999999936,
      "v": 64
    },
    {
      "midi": 76,
      "hit": false,
      "t": 37166.62949999998,
      "d": 166.66649999999936,
      "v": 64
    },
    {
      "midi": 71,
      "hit": false,
      "t": 37333.29599999998,
      "d": 333.3329999999987,
      "v": 64
    },
    {
      "midi": 74,
      "hit": false,
      "t": 37333.29599999998,
      "d": 333.3329999999987,
      "v": 64
    },
    {
      "midi": 78,
      "hit": false,
      "t": 37333.29599999998,
      "d": 333.3329999999987,
      "v": 64
    },
    {
      "midi": 47,
      "hit": false,
      "t": 37333.295999999995,
      "d": 2666.663999999997,
      "v": 64
    },
    {
      "midi": 78,
      "hit": false,
      "t": 37666.62899999998,
      "d": 333.3329999999987,
      "v": 64
    },
    {
      "midi": 78,
      "hit": false,
      "t": 37999.96199999998,
      "d": 333.3329999999987,
      "v": 64
    },
    {
      "midi": 71,
      "hit": false,
      "t": 38333.29499999998,
      "d": 666.6659999999974,
      "v": 64
    },
    {
      "midi": 74,
      "hit": false,
      "t": 38333.29499999998,
      "d": 666.6659999999974,
      "v": 64
    },
    {
      "midi": 78,
      "hit": false,
      "t": 38333.29499999998,
      "d": 666.6659999999974,
      "v": 64
    },
    {
      "midi": 78,
      "hit": false,
      "t": 38999.960999999974,
      "d": 333.3329999999987,
      "v": 64
    },
    {
      "midi": 71,
      "hit": false,
      "t": 39333.29399999997,
      "d": 333.3329999999987,
      "v": 64
    },
    {
      "midi": 76,
      "hit": false,
      "t": 39333.29399999997,
      "d": 333.3329999999987,
      "v": 64
    },
    {
      "midi": 74,
      "hit": false,
      "t": 39666.62699999997,
      "d": 333.3329999999987,
      "v": 64
    },
    {
      "midi": 69,
      "hit": false,
      "t": 39999.95999999997,
      "d": 666.6659999999974,
      "v": 64
    },
    {
      "midi": 73,
      "hit": false,
      "t": 39999.95999999997,
      "d": 666.6659999999974,
      "v": 64
    },
    {
      "midi": 78,
      "hit": false,
      "t": 39999.95999999997,
      "d": 666.6659999999974,
      "v": 64
    },
    {
      "midi": 45,
      "hit": false,
      "t": 39999.95999999999,
      "d": 2666.663999999997,
      "v": 64
    },
    {
      "midi": 78,
      "hit": false,
      "t": 40666.62599999997,
      "d": 333.3329999999987,
      "v": 64
    },
    {
      "midi": 69,
      "hit": false,
      "t": 40999.958999999966,
      "d": 333.3329999999987,
      "v": 64
    },
    {
      "midi": 73,
      "hit": false,
      "t": 40999.958999999966,
      "d": 333.3329999999987,
      "v": 64
    },
    {
      "midi": 78,
      "hit": false,
      "t": 41333.291999999965,
      "d": 333.3329999999987,
      "v": 64
    },
    {
      "midi": 76,
      "hit": false,
      "t": 41666.62499999996,
      "d": 333.3329999999987,
      "v": 64
    },
    {
      "midi": 69,
      "hit": false,
      "t": 41999.95799999996,
      "d": 333.3329999999987,
      "v": 64
    },
    {
      "midi": 76,
      "hit": false,
      "t": 41999.95799999996,
      "d": 333.3329999999987,
      "v": 64
    },
    {
      "midi": 74,
      "hit": false,
      "t": 42333.29099999996,
      "d": 333.3329999999987,
      "v": 64
    },
    {
      "midi": 67,
      "hit": false,
      "t": 42666.62399999996,
      "d": 666.6659999999974,
      "v": 64
    },
    {
      "midi": 69,
      "hit": false,
      "t": 42666.62399999996,
      "d": 666.6659999999974,
      "v": 64
    },
    {
      "midi": 71,
      "hit": false,
      "t": 42666.62399999996,
      "d": 666.6659999999974,
      "v": 64
    },
    {
      "midi": 74,
      "hit": false,
      "t": 42666.62399999996,
      "d": 666.6659999999974,
      "v": 64
    },
    {
      "midi": 43,
      "hit": false,
      "t": 42666.62399999999,
      "d": 2666.663999999997,
      "v": 64
    },
    {
      "midi": 67,
      "hit": false,
      "t": 43333.28999999996,
      "d": 333.3329999999987,
      "v": 64
    },
    {
      "midi": 69,
      "hit": false,
      "t": 43666.622999999956,
      "d": 999.9990000000034,
      "v": 64
    },
    {
      "midi": 74,
      "hit": false,
      "t": 43666.622999999956,
      "d": 999.9990000000034,
      "v": 64
    },
    {
      "midi": 78,
      "hit": false,
      "t": 44666.62199999996,
      "d": 333.3329999999987,
      "v": 64
    },
    {
      "midi": 76,
      "hit": false,
      "t": 44999.95499999996,
      "d": 333.3329999999987,
      "v": 64
    },
    {
      "midi": 69,
      "hit": false,
      "t": 45333.28799999996,
      "d": 999.9990000000034,
      "v": 64
    },
    {
      "midi": 73,
      "hit": false,
      "t": 45333.28799999996,
      "d": 999.9990000000034,
      "v": 64
    },
    {
      "midi": 76,
      "hit": false,
      "t": 45333.28799999996,
      "d": 999.9990000000034,
      "v": 64
    },
    {
      "midi": 45,
      "hit": false,
      "t": 45333.287999999986,
      "d": 2666.663999999997,
      "v": 64
    },
    {
      "midi": 76,
      "hit": false,
      "t": 46333.28699999996,
      "d": 333.3329999999987,
      "v": 64
    },
    {
      "midi": 69,
      "hit": false,
      "t": 46666.61999999996,
      "d": 333.3329999999987,
      "v": 64
    },
    {
      "midi": 73,
      "hit": false,
      "t": 46666.61999999996,
      "d": 333.3329999999987,
      "v": 64
    },
    {
      "midi": 76,
      "hit": false,
      "t": 46666.61999999996,
      "d": 333.3329999999987,
      "v": 64
    },
    {
      "midi": 78,
      "hit": false,
      "t": 46999.95299999996,
      "d": 333.3329999999987,
      "v": 64
    },
    {
      "midi": 69,
      "hit": false,
      "t": 47333.28599999996,
      "d": 666.6659999999974,
      "v": 64
    },
    {
      "midi": 73,
      "hit": false,
      "t": 47333.28599999996,
      "d": 666.6659999999974,
      "v": 64
    },
    {
      "midi": 79,
      "hit": false,
      "t": 47333.28599999996,
      "d": 666.6659999999974,
      "v": 64
    },
    {
      "midi": 69,
      "hit": false,
      "t": 47999.951999999954,
      "d": 666.6659999999974,
      "v": 64
    },
    {
      "midi": 74,
      "hit": false,
      "t": 47999.951999999954,
      "d": 666.6659999999974,
      "v": 64
    },
    {
      "midi": 78,
      "hit": false,
      "t": 47999.951999999954,
      "d": 666.6659999999974,
      "v": 64
    },
    {
      "midi": 50,
      "hit": false,
      "t": 47999.95199999998,
      "d": 999.9990000000034,
      "v": 64
    },
    {
      "midi": 74,
      "hit": false,
      "t": 48666.61799999995,
      "d": 333.3329999999987,
      "v": 64
    },
    {
      "midi": 69,
      "hit": false,
      "t": 48999.95099999995,
      "d": 666.6659999999974,
      "v": 64
    },
    {
      "midi": 74,
      "hit": false,
      "t": 48999.95099999995,
      "d": 666.6659999999974,
      "v": 64
    },
    {
      "midi": 79,
      "hit": false,
      "t": 48999.95099999995,
      "d": 666.6659999999974,
      "v": 64
    },
    {
      "midi": 50,
      "hit": false,
      "t": 48999.95099999999,
      "d": 666.6659999999974,
      "v": 64
    },
    {
      "midi": 69,
      "hit": false,
      "t": 49666.61699999995,
      "d": 666.6659999999974,
      "v": 64
    },
    {
      "midi": 74,
      "hit": false,
      "t": 49666.61699999995,
      "d": 666.6659999999974,
      "v": 64
    },
    {
      "midi": 78,
      "hit": false,
      "t": 49666.61699999995,
      "d": 666.6659999999974,
      "v": 64
    },
    {
      "midi": 50,
      "hit": false,
      "t": 49666.616999999984,
      "d": 666.6659999999974,
      "v": 64
    },
    {
      "midi": 69,
      "hit": false,
      "t": 50333.282999999945,
      "d": 333.3329999999987,
      "v": 64
    },
    {
      "midi": 74,
      "hit": false,
      "t": 50333.282999999945,
      "d": 333.3329999999987,
      "v": 64
    },
    {
      "midi": 76,
      "hit": false,
      "t": 50333.282999999945,
      "d": 333.3329999999987,
      "v": 64
    },
    {
      "midi": 52,
      "hit": false,
      "t": 50333.28299999998,
      "d": 333.3329999999987,
      "v": 64
    },
    {
      "midi": 57,
      "hit": false,
      "t": 51333.28199999998,
      "d": 333.3329999999987,
      "v": 64
    },
    {
      "midi": 69,
      "hit": false,
      "t": 51666.61499999995,
      "d": 166.66649999999936,
      "v": 64
    },
    {
      "midi": 57,
      "hit": false,
      "t": 51666.614999999976,
      "d": 333.3329999999987,
      "v": 64
    },
    {
      "midi": 69,
      "hit": false,
      "t": 51833.28149999995,
      "d": 166.66649999999936,
      "v": 64
    },
    {
      "midi": 69,
      "hit": false,
      "t": 51999.947999999946,
      "d": 666.6659999999974,
      "v": 64
    },
    {
      "midi": 74,
      "hit": false,
      "t": 51999.947999999946,
      "d": 666.6659999999974,
      "v": 64
    },
    {
      "midi": 78,
      "hit": false,
      "t": 51999.947999999946,
      "d": 666.6659999999974,
      "v": 64
    },
    {
      "midi": 45,
      "hit": false,
      "t": 51999.947999999975,
      "d": 666.6659999999974,
      "v": 64
    },
    {
      "midi": 57,
      "hit": false,
      "t": 51999.947999999975,
      "d": 666.6659999999974,
      "v": 64
    },
    {
      "midi": 69,
      "hit": false,
      "t": 52666.61399999994,
      "d": 333.3329999999987,
      "v": 64
    },
    {
      "midi": 73,
      "hit": false,
      "t": 52666.61399999994,
      "d": 333.3329999999987,
      "v": 64
    },
    {
      "midi": 76,
      "hit": false,
      "t": 52666.61399999994,
      "d": 333.3329999999987,
      "v": 64
    },
    {
      "midi": 57,
      "hit": false,
      "t": 52666.61399999997,
      "d": 666.6659999999974,
      "v": 64
    },
    {
      "midi": 71,
      "hit": false,
      "t": 52999.94699999994,
      "d": 333.3329999999987,
      "v": 64
    },
    {
      "midi": 74,
      "hit": false,
      "t": 52999.94699999994,
      "d": 333.3329999999987,
      "v": 64
    },
    {
      "midi": 67,
      "hit": false,
      "t": 53333.27999999994,
      "d": 999.9990000000034,
      "v": 64
    },
    {
      "midi": 69,
      "hit": false,
      "t": 53333.27999999994,
      "d": 999.9990000000034,
      "v": 64
    },
    {
      "midi": 71,
      "hit": false,
      "t": 53333.27999999994,
      "d": 999.9990000000034,
      "v": 64
    },
    {
      "midi": 74,
      "hit": false,
      "t": 53333.27999999994,
      "d": 999.9990000000034,
      "v": 64
    },
    {
      "midi": 43,
      "hit": false,
      "t": 53333.27999999997,
      "d": 333.3329999999987,
      "v": 64
    },
    {
      "midi": 50,
      "hit": false,
      "t": 53666.61299999997,
      "d": 333.3329999999987,
      "v": 64
    },
    {
      "midi": 55,
      "hit": false,
      "t": 53999.94599999997,
      "d": 1333.3320000000022,
      "v": 64
    },
    {
      "midi": 69,
      "hit": false,
      "t": 54333.278999999944,
      "d": 999.9990000000034,
      "v": 64
    },
    {
      "midi": 62,
      "hit": false,
      "t": 55333.27799999995,
      "d": 666.6659999999974,
      "v": 64
    },
    {
      "midi": 55,
      "hit": false,
      "t": 55333.27799999997,
      "d": 333.3329999999987,
      "v": 64
    },
    {
      "midi": 50,
      "hit": false,
      "t": 55666.61099999997,
      "d": 333.3329999999987,
      "v": 64
    },
    {
      "midi": 64,
      "hit": false,
      "t": 55999.943999999945,
      "d": 666.6659999999974,
      "v": 64
    },
    {
      "midi": 69,
      "hit": false,
      "t": 55999.943999999945,
      "d": 666.6659999999974,
      "v": 64
    },
    {
      "midi": 45,
      "hit": false,
      "t": 55999.94399999997,
      "d": 2666.663999999997,
      "v": 64
    },
    {
      "midi": 69,
      "hit": false,
      "t": 56666.60999999994,
      "d": 333.3329999999987,
      "v": 64
    },
    {
      "midi": 69,
      "hit": false,
      "t": 56999.94299999994,
      "d": 333.3329999999987,
      "v": 64
    },
    {
      "midi": 69,
      "hit": false,
      "t": 57333.27599999994,
      "d": 666.6659999999974,
      "v": 64
    },
    {
      "midi": 78,
      "hit": false,
      "t": 57333.27599999994,
      "d": 666.6659999999974,
      "v": 64
    },
    {
      "midi": 69,
      "hit": false,
      "t": 57999.94199999994,
      "d": 333.3329999999987,
      "v": 64
    },
    {
      "midi": 76,
      "hit": false,
      "t": 57999.94199999994,
      "d": 333.3329999999987,
      "v": 64
    },
    {
      "midi": 74,
      "hit": false,
      "t": 58333.274999999936,
      "d": 333.3329999999987,
      "v": 64
    },
    {
      "midi": 66,
      "hit": false,
      "t": 58666.607999999935,
      "d": 999.9990000000034,
      "v": 64
    },
    {
      "midi": 69,
      "hit": false,
      "t": 58666.607999999935,
      "d": 999.9990000000034,
      "v": 64
    },
    {
      "midi": 74,
      "hit": false,
      "t": 58666.607999999935,
      "d": 999.9990000000034,
      "v": 64
    },
    {
      "midi": 38,
      "hit": false,
      "t": 58666.607999999964,
      "d": 333.3329999999987,
      "v": 64
    },
    {
      "midi": 38,
      "hit": false,
      "t": 58999.94099999996,
      "d": 333.3329999999987,
      "v": 64
    },
    {
      "midi": 38,
      "hit": false,
      "t": 59333.27399999996,
      "d": 333.3329999999987,
      "v": 64
    },
    {
      "midi": 74,
      "hit": false,
      "t": 59666.60699999994,
      "d": 666.6659999999974,
      "v": 64
    },
    {
      "midi": 38,
      "hit": false,
      "t": 59666.60699999996,
      "d": 333.3329999999987,
      "v": 64
    },
    {
      "midi": 38,
      "hit": false,
      "t": 59999.93999999996,
      "d": 333.3329999999987,
      "v": 64
    },
    {
      "midi": 76,
      "hit": false,
      "t": 60333.272999999936,
      "d": 666.6659999999974,
      "v": 64
    },
    {
      "midi": 38,
      "hit": false,
      "t": 60333.27299999996,
      "d": 333.3329999999987,
      "v": 64
    },
    {
      "midi": 38,
      "hit": false,
      "t": 60666.605999999956,
      "d": 333.3329999999987,
      "v": 64
    },
    {
      "midi": 69,
      "hit": false,
      "t": 60999.93899999993,
      "d": 333.3329999999987,
      "v": 64
    },
    {
      "midi": 74,
      "hit": false,
      "t": 60999.93899999993,
      "d": 333.3329999999987,
      "v": 64
    },
    {
      "midi": 78,
      "hit": false,
      "t": 60999.93899999993,
      "d": 333.3329999999987,
      "v": 64
    },
    {
      "midi": 38,
      "hit": false,
      "t": 60999.938999999955,
      "d": 333.3329999999987,
      "v": 64
    },
    {
      "midi": 38,
      "hit": false,
      "t": 61333.27199999995,
      "d": 333.3329999999987,
      "v": 64
    },
    {
      "midi": 38,
      "hit": false,
      "t": 61666.60499999995,
      "d": 333.3329999999987,
      "v": 64
    },
    {
      "midi": 69,
      "hit": false,
      "t": 61999.93799999993,
      "d": 333.3329999999987,
      "v": 64
    },
    {
      "midi": 74,
      "hit": false,
      "t": 61999.93799999993,
      "d": 333.3329999999987,
      "v": 64
    },
    {
      "midi": 79,
      "hit": false,
      "t": 61999.93799999993,
      "d": 333.3329999999987,
      "v": 64
    },
    {
      "midi": 38,
      "hit": false,
      "t": 61999.93799999995,
      "d": 333.3329999999987,
      "v": 64
    },
    {
      "midi": 69,
      "hit": false,
      "t": 62333.27099999993,
      "d": 666.6659999999974,
      "v": 64
    },
    {
      "midi": 74,
      "hit": false,
      "t": 62333.27099999993,
      "d": 666.6659999999974,
      "v": 64
    },
    {
      "midi": 78,
      "hit": false,
      "t": 62333.27099999993,
      "d": 666.6659999999974,
      "v": 64
    },
    {
      "midi": 38,
      "hit": false,
      "t": 62333.27099999995,
      "d": 333.3329999999987,
      "v": 64
    },
    {
      "midi": 38,
      "hit": false,
      "t": 62666.60399999995,
      "d": 333.3329999999987,
      "v": 64
    },
    {
      "midi": 69,
      "hit": false,
      "t": 62999.936999999925,
      "d": 666.6659999999974,
      "v": 64
    },
    {
      "midi": 74,
      "hit": false,
      "t": 62999.936999999925,
      "d": 666.6659999999974,
      "v": 64
    },
    {
      "midi": 76,
      "hit": false,
      "t": 62999.936999999925,
      "d": 666.6659999999974,
      "v": 64
    },
    {
      "midi": 38,
      "hit": false,
      "t": 62999.93699999995,
      "d": 333.3329999999987,
      "v": 64
    },
    {
      "midi": 38,
      "hit": false,
      "t": 63333.269999999946,
      "d": 333.3329999999987,
      "v": 64
    },
    {
      "midi": 69,
      "hit": false,
      "t": 63666.60299999992,
      "d": 333.3329999999987,
      "v": 64
    },
    {
      "midi": 74,
      "hit": false,
      "t": 63666.60299999992,
      "d": 333.3329999999987,
      "v": 64
    },
    {
      "midi": 76,
      "hit": false,
      "t": 63666.60299999992,
      "d": 333.3329999999987,
      "v": 64
    },
    {
      "midi": 38,
      "hit": false,
      "t": 63666.602999999945,
      "d": 333.3329999999987,
      "v": 64
    },
    {
      "midi": 38,
      "hit": false,
      "t": 63999.93599999994,
      "d": 333.3329999999987,
      "v": 64
    },
    {
      "midi": 38,
      "hit": false,
      "t": 64333.26899999994,
      "d": 333.3329999999987,
      "v": 64
    },
    {
      "midi": 38,
      "hit": false,
      "t": 64666.60199999994,
      "d": 333.3329999999987,
      "v": 64
    },
    {
      "midi": 38,
      "hit": false,
      "t": 64999.93499999994,
      "d": 333.3329999999987,
      "v": 64
    },
    {
      "midi": 74,
      "hit": false,
      "t": 65333.26799999992,
      "d": 333.3329999999987,
      "v": 64
    },
    {
      "midi": 38,
      "hit": false,
      "t": 65333.26799999994,
      "d": 333.3329999999987,
      "v": 64
    },
    {
      "midi": 69,
      "hit": false,
      "t": 65666.60099999992,
      "d": 666.6659999999974,
      "v": 64
    },
    {
      "midi": 76,
      "hit": false,
      "t": 65666.60099999992,
      "d": 666.6659999999974,
      "v": 64
    },
    {
      "midi": 38,
      "hit": false,
      "t": 65666.60099999994,
      "d": 333.3329999999987,
      "v": 64
    },
    {
      "midi": 38,
      "hit": false,
      "t": 65999.93399999994,
      "d": 333.3329999999987,
      "v": 64
    },
    {
      "midi": 69,
      "hit": false,
      "t": 66333.26699999992,
      "d": 333.3329999999987,
      "v": 64
    },
    {
      "midi": 74,
      "hit": false,
      "t": 66333.26699999992,
      "d": 333.3329999999987,
      "v": 64
    },
    {
      "midi": 78,
      "hit": false,
      "t": 66333.26699999992,
      "d": 333.3329999999987,
      "v": 64
    },
    {
      "midi": 38,
      "hit": false,
      "t": 66333.26699999993,
      "d": 333.3329999999987,
      "v": 64
    },
    {
      "midi": 38,
      "hit": false,
      "t": 66666.59999999993,
      "d": 333.3329999999987,
      "v": 64
    },
    {
      "midi": 69,
      "hit": false,
      "t": 66999.93299999992,
      "d": 666.6659999999974,
      "v": 64
    },
    {
      "midi": 74,
      "hit": false,
      "t": 66999.93299999992,
      "d": 666.6659999999974,
      "v": 64
    },
    {
      "midi": 79,
      "hit": false,
      "t": 66999.93299999992,
      "d": 666.6659999999974,
      "v": 64
    },
    {
      "midi": 38,
      "hit": false,
      "t": 66999.93299999993,
      "d": 333.3329999999987,
      "v": 64
    },
    {
      "midi": 38,
      "hit": false,
      "t": 67333.26599999993,
      "d": 333.3329999999987,
      "v": 64
    },
    {
      "midi": 69,
      "hit": false,
      "t": 67666.59899999991,
      "d": 666.6659999999974,
      "v": 64
    },
    {
      "midi": 74,
      "hit": false,
      "t": 67666.59899999991,
      "d": 666.6659999999974,
      "v": 64
    },
    {
      "midi": 78,
      "hit": false,
      "t": 67666.59899999991,
      "d": 666.6659999999974,
      "v": 64
    },
    {
      "midi": 38,
      "hit": false,
      "t": 67666.59899999993,
      "d": 333.3329999999987,
      "v": 64
    },
    {
      "midi": 38,
      "hit": false,
      "t": 67999.93199999993,
      "d": 333.3329999999987,
      "v": 64
    },
    {
      "midi": 69,
      "hit": false,
      "t": 68333.26499999991,
      "d": 666.6659999999974,
      "v": 64
    },
    {
      "midi": 74,
      "hit": false,
      "t": 68333.26499999991,
      "d": 666.6659999999974,
      "v": 64
    },
    {
      "midi": 76,
      "hit": false,
      "t": 68333.26499999991,
      "d": 666.6659999999974,
      "v": 64
    },
    {
      "midi": 38,
      "hit": false,
      "t": 68333.26499999993,
      "d": 333.3329999999987,
      "v": 64
    },
    {
      "midi": 38,
      "hit": false,
      "t": 68666.59799999993,
      "d": 333.3329999999987,
      "v": 64
    },
    {
      "midi": 69,
      "hit": false,
      "t": 68999.93099999991,
      "d": 333.3329999999987,
      "v": 64
    },
    {
      "midi": 74,
      "hit": false,
      "t": 68999.93099999991,
      "d": 333.3329999999987,
      "v": 64
    },
    {
      "midi": 76,
      "hit": false,
      "t": 68999.93099999991,
      "d": 333.3329999999987,
      "v": 64
    },
    {
      "midi": 38,
      "hit": false,
      "t": 68999.93099999992,
      "d": 333.3329999999987,
      "v": 64
    },
    {
      "midi": 38,
      "hit": false,
      "t": 69333.26399999992,
      "d": 333.3329999999987,
      "v": 64
    },
    {
      "midi": 38,
      "hit": false,
      "t": 69666.59699999992,
      "d": 333.3329999999987,
      "v": 64
    },
    {
      "midi": 38,
      "hit": false,
      "t": 69999.92999999992,
      "d": 333.3329999999987,
      "v": 64
    },
    {
      "midi": 69,
      "hit": false,
      "t": 70333.2629999999,
      "d": 666.6659999999974,
      "v": 64
    },
    {
      "midi": 74,
      "hit": false,
      "t": 70333.2629999999,
      "d": 666.6659999999974,
      "v": 64
    },
    {
      "midi": 38,
      "hit": false,
      "t": 70333.26299999992,
      "d": 333.3329999999987,
      "v": 64
    },
    {
      "midi": 38,
      "hit": false,
      "t": 70666.59599999992,
      "d": 333.3329999999987,
      "v": 64
    },
    {
      "midi": 69,
      "hit": false,
      "t": 70999.9289999999,
      "d": 999.9989999999962,
      "v": 64
    },
    {
      "midi": 76,
      "hit": false,
      "t": 70999.9289999999,
      "d": 999.9989999999962,
      "v": 64
    },
    {
      "midi": 38,
      "hit": false,
      "t": 70999.92899999992,
      "d": 333.3329999999987,
      "v": 64
    },
    {
      "midi": 50,
      "hit": false,
      "t": 71333.26199999992,
      "d": 666.6659999999974,
      "v": 64
    },
    {
      "midi": 67,
      "hit": false,
      "t": 71999.9279999999,
      "d": 1333.3319999999949,
      "v": 64
    },
    {
      "midi": 71,
      "hit": false,
      "t": 71999.9279999999,
      "d": 1333.3319999999949,
      "v": 64
    },
    {
      "midi": 74,
      "hit": false,
      "t": 71999.9279999999,
      "d": 1333.3319999999949,
      "v": 64
    },
    {
      "midi": 78,
      "hit": false,
      "t": 71999.9279999999,
      "d": 1333.3319999999949,
      "v": 64
    },
    {
      "midi": 43,
      "hit": false,
      "t": 71999.92799999991,
      "d": 1333.3319999999949,
      "v": 64
    },
    {
      "midi": 69,
      "hit": false,
      "t": 73333.2599999999,
      "d": 1333.3319999999949,
      "v": 64
    },
    {
      "midi": 73,
      "hit": false,
      "t": 73333.2599999999,
      "d": 1333.3319999999949,
      "v": 64
    },
    {
      "midi": 76,
      "hit": false,
      "t": 73333.2599999999,
      "d": 1333.3319999999949,
      "v": 64
    },
    {
      "midi": 45,
      "hit": false,
      "t": 73333.25999999991,
      "d": 1333.3319999999949,
      "v": 64
    },
    {
      "midi": 66,
      "hit": false,
      "t": 74666.59199999989,
      "d": 999.9989999999962,
      "v": 64
    },
    {
      "midi": 71,
      "hit": false,
      "t": 74666.59199999989,
      "d": 999.9989999999962,
      "v": 64
    },
    {
      "midi": 74,
      "hit": false,
      "t": 74666.59199999989,
      "d": 999.9989999999962,
      "v": 64
    },
    {
      "midi": 47,
      "hit": false,
      "t": 74666.5919999999,
      "d": 666.6659999999974,
      "v": 64
    },
    {
      "midi": 47,
      "hit": false,
      "t": 75333.2579999999,
      "d": 666.6659999999974,
      "v": 64
    },
    {
      "midi": 74,
      "hit": false,
      "t": 75666.59099999988,
      "d": 333.3329999999987,
      "v": 64
    },
    {
      "midi": 74,
      "hit": false,
      "t": 75999.92399999988,
      "d": 333.3329999999987,
      "v": 64
    },
    {
      "midi": 47,
      "hit": false,
      "t": 75999.9239999999,
      "d": 666.6659999999974,
      "v": 64
    },
    {
      "midi": 73,
      "hit": false,
      "t": 76333.25699999988,
      "d": 333.3329999999987,
      "v": 64
    },
    {
      "midi": 71,
      "hit": false,
      "t": 76666.58999999988,
      "d": 333.3329999999987,
      "v": 64
    },
    {
      "midi": 47,
      "hit": false,
      "t": 76666.5899999999,
      "d": 333.3329999999987,
      "v": 64
    },
    {
      "midi": 73,
      "hit": false,
      "t": 76999.92299999988,
      "d": 333.3329999999987,
      "v": 64
    },
    {
      "midi": 42,
      "hit": false,
      "t": 76999.9229999999,
      "d": 333.3329999999987,
      "v": 64
    },
    {
      "midi": 47,
      "hit": false,
      "t": 77333.25599999989,
      "d": 666.6659999999974,
      "v": 64
    },
    {
      "midi": 74,
      "hit": false,
      "t": 77666.58899999988,
      "d": 666.6659999999974,
      "v": 64
    },
    {
      "midi": 47,
      "hit": false,
      "t": 77999.92199999989,
      "d": 666.6659999999974,
      "v": 64
    },
    {
      "midi": 74,
      "hit": false,
      "t": 78333.25499999987,
      "d": 999.9989999999962,
      "v": 64
    },
    {
      "midi": 47,
      "hit": false,
      "t": 78666.58799999989,
      "d": 666.6659999999974,
      "v": 64
    },
    {
      "midi": 74,
      "hit": false,
      "t": 79333.25399999987,
      "d": 666.6659999999974,
      "v": 64
    },
    {
      "midi": 47,
      "hit": false,
      "t": 79333.25399999988,
      "d": 333.3329999999987,
      "v": 64
    },
    {
      "midi": 50,
      "hit": false,
      "t": 79666.58699999988,
      "d": 333.3329999999987,
      "v": 64
    },
    {
      "midi": 71,
      "hit": false,
      "t": 79999.91999999987,
      "d": 83.33324999999604,
      "v": 64
    },
    {
      "midi": 43,
      "hit": false,
      "t": 79999.91999999988,
      "d": 666.6659999999974,
      "v": 64
    },
    {
      "midi": 43,
      "hit": false,
      "t": 80666.58599999988,
      "d": 666.6659999999974,
      "v": 64
    },
    {
      "midi": 74,
      "hit": false,
      "t": 80999.91899999986,
      "d": 333.3329999999987,
      "v": 64
    },
    {
      "midi": 74,
      "hit": false,
      "t": 81333.25199999986,
      "d": 333.3329999999987,
      "v": 64
    },
    {
      "midi": 43,
      "hit": false,
      "t": 81333.25199999988,
      "d": 666.6659999999974,
      "v": 64
    },
    {
      "midi": 73,
      "hit": false,
      "t": 81666.58499999986,
      "d": 333.3329999999987,
      "v": 64
    },
    {
      "midi": 71,
      "hit": false,
      "t": 81999.91799999986,
      "d": 333.3329999999987,
      "v": 64
    },
    {
      "midi": 43,
      "hit": false,
      "t": 81999.91799999987,
      "d": 333.3329999999987,
      "v": 64
    },
    {
      "midi": 73,
      "hit": false,
      "t": 82333.25099999986,
      "d": 333.3329999999987,
      "v": 64
    },
    {
      "midi": 50,
      "hit": false,
      "t": 82333.25099999987,
      "d": 333.3329999999987,
      "v": 64
    },
    {
      "midi": 55,
      "hit": false,
      "t": 82666.58399999987,
      "d": 666.6659999999974,
      "v": 64
    },
    {
      "midi": 74,
      "hit": false,
      "t": 82999.91699999986,
      "d": 666.6659999999974,
      "v": 64
    },
    {
      "midi": 55,
      "hit": false,
      "t": 83333.24999999987,
      "d": 666.6659999999974,
      "v": 64
    },
    {
      "midi": 74,
      "hit": false,
      "t": 83666.58299999985,
      "d": 999.9989999999962,
      "v": 64
    },
    {
      "midi": 55,
      "hit": false,
      "t": 83999.91599999987,
      "d": 666.6659999999974,
      "v": 64
    },
    {
      "midi": 71,
      "hit": false,
      "t": 84666.58199999985,
      "d": 666.6659999999974,
      "v": 64
    },
    {
      "midi": 74,
      "hit": false,
      "t": 84666.58199999985,
      "d": 666.6659999999974,
      "v": 64
    },
    {
      "midi": 55,
      "hit": false,
      "t": 84666.58199999986,
      "d": 333.3329999999987,
      "v": 64
    },
    {
      "midi": 54,
      "hit": false,
      "t": 84999.91499999986,
      "d": 333.3329999999987,
      "v": 64
    },
    {
      "midi": 67,
      "hit": false,
      "t": 85333.24799999985,
      "d": 999.9989999999962,
      "v": 64
    },
    {
      "midi": 71,
      "hit": false,
      "t": 85333.24799999985,
      "d": 999.9989999999962,
      "v": 64
    },
    {
      "midi": 74,
      "hit": false,
      "t": 85333.24799999985,
      "d": 999.9989999999962,
      "v": 64
    },
    {
      "midi": 52,
      "hit": false,
      "t": 85333.24799999986,
      "d": 666.6659999999974,
      "v": 64
    },
    {
      "midi": 52,
      "hit": false,
      "t": 85999.91399999986,
      "d": 666.6659999999974,
      "v": 64
    },
    {
      "midi": 74,
      "hit": false,
      "t": 86333.24699999984,
      "d": 333.3329999999987,
      "v": 64
    },
    {
      "midi": 74,
      "hit": false,
      "t": 86666.57999999984,
      "d": 333.3329999999987,
      "v": 64
    },
    {
      "midi": 52,
      "hit": false,
      "t": 86666.57999999986,
      "d": 666.6659999999974,
      "v": 64
    },
    {
      "midi": 73,
      "hit": false,
      "t": 86999.91299999984,
      "d": 333.3329999999987,
      "v": 64
    },
    {
      "midi": 71,
      "hit": false,
      "t": 87333.24599999984,
      "d": 333.3329999999987,
      "v": 64
    },
    {
      "midi": 52,
      "hit": false,
      "t": 87333.24599999985,
      "d": 333.3329999999987,
      "v": 64
    },
    {
      "midi": 73,
      "hit": false,
      "t": 87666.57899999984,
      "d": 333.3329999999987,
      "v": 64
    },
    {
      "midi": 40,
      "hit": false,
      "t": 87666.57899999985,
      "d": 333.3329999999987,
      "v": 64
    },
    {
      "midi": 74,
      "hit": false,
      "t": 88333.24499999984,
      "d": 666.6659999999974,
      "v": 64
    },
    {
      "midi": 40,
      "hit": false,
      "t": 88666.57799999985,
      "d": 666.6659999999974,
      "v": 64
    },
    {
      "midi": 74,
      "hit": false,
      "t": 88999.91099999983,
      "d": 666.6659999999974,
      "v": 64
    },
    {
      "midi": 40,
      "hit": false,
      "t": 89333.24399999985,
      "d": 666.6659999999974,
      "v": 64
    },
    {
      "midi": 76,
      "hit": false,
      "t": 89666.57699999983,
      "d": 999.9989999999962,
      "v": 64
    },
    {
      "midi": 45,
      "hit": false,
      "t": 89999.90999999984,
      "d": 333.3329999999987,
      "v": 64
    },
    {
      "midi": 47,
      "hit": false,
      "t": 90333.24299999984,
      "d": 333.3329999999987,
      "v": 64
    },
    {
      "midi": 69,
      "hit": false,
      "t": 90666.57599999983,
      "d": 333.3329999999987,
      "v": 64
    },
    {
      "midi": 74,
      "hit": false,
      "t": 90666.57599999983,
      "d": 333.3329999999987,
      "v": 64
    },
    {
      "midi": 76,
      "hit": false,
      "t": 90666.57599999983,
      "d": 333.3329999999987,
      "v": 64
    },
    {
      "midi": 50,
      "hit": false,
      "t": 90666.57599999984,
      "d": 666.6659999999974,
      "v": 64
    },
    {
      "midi": 78,
      "hit": false,
      "t": 90999.90899999983,
      "d": 333.3329999999987,
      "v": 64
    },
    {
      "midi": 78,
      "hit": false,
      "t": 91333.24199999982,
      "d": 333.3329999999987,
      "v": 64
    },
    {
      "midi": 50,
      "hit": false,
      "t": 91333.24199999984,
      "d": 666.6659999999974,
      "v": 64
    },
    {
      "midi": 69,
      "hit": false,
      "t": 91666.57499999982,
      "d": 999.9989999999962,
      "v": 64
    },
    {
      "midi": 74,
      "hit": false,
      "t": 91666.57499999982,
      "d": 999.9989999999962,
      "v": 64
    },
    {
      "midi": 78,
      "hit": false,
      "t": 91666.57499999982,
      "d": 999.9989999999962,
      "v": 64
    },
    {
      "midi": 50,
      "hit": false,
      "t": 91999.90799999984,
      "d": 666.6659999999974,
      "v": 64
    },
    {
      "midi": 76,
      "hit": false,
      "t": 92666.57399999982,
      "d": 666.6659999999974,
      "v": 64
    },
    {
      "midi": 50,
      "hit": false,
      "t": 92666.57399999983,
      "d": 333.3329999999987,
      "v": 64
    },
    {
      "midi": 45,
      "hit": false,
      "t": 92999.90699999983,
      "d": 333.3329999999987,
      "v": 64
    },
    {
      "midi": 69,
      "hit": false,
      "t": 93333.23999999982,
      "d": 666.6659999999974,
      "v": 64
    },
    {
      "midi": 74,
      "hit": false,
      "t": 93333.23999999982,
      "d": 666.6659999999974,
      "v": 64
    },
    {
      "midi": 76,
      "hit": false,
      "t": 93333.23999999982,
      "d": 666.6659999999974,
      "v": 64
    },
    {
      "midi": 50,
      "hit": false,
      "t": 93333.23999999983,
      "d": 666.6659999999974,
      "v": 64
    },
    {
      "midi": 78,
      "hit": false,
      "t": 93999.90599999981,
      "d": 333.3329999999987,
      "v": 64
    },
    {
      "midi": 50,
      "hit": false,
      "t": 93999.90599999983,
      "d": 666.6659999999974,
      "v": 64
    },
    {
      "midi": 69,
      "hit": false,
      "t": 94333.23899999981,
      "d": 1333.3319999999949,
      "v": 64
    },
    {
      "midi": 74,
      "hit": false,
      "t": 94333.23899999981,
      "d": 1333.3319999999949,
      "v": 64
    },
    {
      "midi": 78,
      "hit": false,
      "t": 94333.23899999981,
      "d": 1333.3319999999949,
      "v": 64
    },
    {
      "midi": 50,
      "hit": false,
      "t": 94666.57199999983,
      "d": 666.6659999999974,
      "v": 64
    },
    {
      "midi": 50,
      "hit": false,
      "t": 95333.23799999982,
      "d": 333.3329999999987,
      "v": 64
    },
    {
      "midi": 50,
      "hit": false,
      "t": 95666.57099999982,
      "d": 333.3329999999987,
      "v": 64
    },
    {
      "midi": 74,
      "hit": false,
      "t": 95999.9039999998,
      "d": 83.33324999999604,
      "v": 64
    },
    {
      "midi": 47,
      "hit": false,
      "t": 95999.90399999982,
      "d": 666.6659999999974,
      "v": 64
    },
    {
      "midi": 47,
      "hit": false,
      "t": 96666.56999999982,
      "d": 666.6659999999974,
      "v": 64
    },
    {
      "midi": 74,
      "hit": false,
      "t": 96999.9029999998,
      "d": 333.3329999999987,
      "v": 64
    },
    {
      "midi": 74,
      "hit": false,
      "t": 97333.2359999998,
      "d": 333.3329999999987,
      "v": 64
    },
    {
      "midi": 47,
      "hit": false,
      "t": 97333.23599999982,
      "d": 666.6659999999974,
      "v": 64
    },
    {
      "midi": 73,
      "hit": false,
      "t": 97666.5689999998,
      "d": 333.3329999999987,
      "v": 64
    },
    {
      "midi": 71,
      "hit": false,
      "t": 97999.9019999998,
      "d": 333.3329999999987,
      "v": 64
    },
    {
      "midi": 47,
      "hit": false,
      "t": 97999.90199999981,
      "d": 333.3329999999987,
      "v": 64
    },
    {
      "midi": 73,
      "hit": false,
      "t": 98333.2349999998,
      "d": 333.3329999999987,
      "v": 64
    },
    {
      "midi": 42,
      "hit": false,
      "t": 98333.23499999981,
      "d": 333.3329999999987,
      "v": 64
    },
    {
      "midi": 47,
      "hit": false,
      "t": 98666.56799999981,
      "d": 666.6659999999974,
      "v": 64
    },
    {
      "midi": 74,
      "hit": false,
      "t": 98999.9009999998,
      "d": 666.6659999999974,
      "v": 64
    },
    {
      "midi": 47,
      "hit": false,
      "t": 99333.23399999981,
      "d": 666.6659999999974,
      "v": 64
    },
    {
      "midi": 74,
      "hit": false,
      "t": 99666.56699999979,
      "d": 999.9989999999962,
      "v": 64
    },
    {
      "midi": 47,
      "hit": false,
      "t": 99999.8999999998,
      "d": 666.6659999999974,
      "v": 64
    },
    {
      "midi": 74,
      "hit": false,
      "t": 100666.56599999979,
      "d": 666.6659999999974,
      "v": 64
    },
    {
      "midi": 47,
      "hit": false,
      "t": 100666.5659999998,
      "d": 333.3329999999987,
      "v": 64
    },
    {
      "midi": 50,
      "hit": false,
      "t": 100999.8989999998,
      "d": 333.3329999999987,
      "v": 64
    },
    {
      "midi": 71,
      "hit": false,
      "t": 101333.23199999979,
      "d": 83.33324999999604,
      "v": 64
    },
    {
      "midi": 43,
      "hit": false,
      "t": 101333.2319999998,
      "d": 666.6659999999974,
      "v": 64
    },
    {
      "midi": 43,
      "hit": false,
      "t": 101999.8979999998,
      "d": 666.6659999999974,
      "v": 64
    },
    {
      "midi": 74,
      "hit": false,
      "t": 102333.23099999978,
      "d": 333.3329999999987,
      "v": 64
    },
    {
      "midi": 74,
      "hit": false,
      "t": 102666.56399999978,
      "d": 333.3329999999987,
      "v": 64
    },
    {
      "midi": 43,
      "hit": false,
      "t": 102666.5639999998,
      "d": 666.6659999999974,
      "v": 64
    },
    {
      "midi": 73,
      "hit": false,
      "t": 102999.89699999978,
      "d": 333.3329999999987,
      "v": 64
    },
    {
      "midi": 71,
      "hit": false,
      "t": 103333.22999999978,
      "d": 333.3329999999987,
      "v": 64
    },
    {
      "midi": 43,
      "hit": false,
      "t": 103333.22999999979,
      "d": 333.3329999999987,
      "v": 64
    },
    {
      "midi": 73,
      "hit": false,
      "t": 103666.56299999978,
      "d": 333.3329999999987,
      "v": 64
    },
    {
      "midi": 50,
      "hit": false,
      "t": 103666.56299999979,
      "d": 333.3329999999987,
      "v": 64
    },
    {
      "midi": 55,
      "hit": false,
      "t": 103999.89599999979,
      "d": 666.6659999999974,
      "v": 64
    },
    {
      "midi": 74,
      "hit": false,
      "t": 104333.22899999977,
      "d": 666.6659999999974,
      "v": 64
    },
    {
      "midi": 55,
      "hit": false,
      "t": 104666.56199999979,
      "d": 666.6659999999974,
      "v": 64
    },
    {
      "midi": 74,
      "hit": false,
      "t": 104999.89499999977,
      "d": 999.9989999999962,
      "v": 64
    },
    {
      "midi": 55,
      "hit": false,
      "t": 105333.22799999978,
      "d": 666.6659999999974,
      "v": 64
    },
    {
      "midi": 71,
      "hit": false,
      "t": 105999.89399999977,
      "d": 666.6659999999974,
      "v": 64
    },
    {
      "midi": 74,
      "hit": false,
      "t": 105999.89399999977,
      "d": 666.6659999999974,
      "v": 64
    },
    {
      "midi": 55,
      "hit": false,
      "t": 105999.89399999978,
      "d": 333.3329999999987,
      "v": 64
    },
    {
      "midi": 54,
      "hit": false,
      "t": 106333.22699999978,
      "d": 333.3329999999987,
      "v": 64
    },
    {
      "midi": 67,
      "hit": false,
      "t": 106666.55999999976,
      "d": 999.9989999999962,
      "v": 64
    },
    {
      "midi": 71,
      "hit": false,
      "t": 106666.55999999976,
      "d": 999.9989999999962,
      "v": 64
    },
    {
      "midi": 74,
      "hit": false,
      "t": 106666.55999999976,
      "d": 999.9989999999962,
      "v": 64
    },
    {
      "midi": 52,
      "hit": false,
      "t": 106666.55999999978,
      "d": 666.6659999999974,
      "v": 64
    },
    {
      "midi": 52,
      "hit": false,
      "t": 107333.22599999978,
      "d": 666.6659999999974,
      "v": 64
    },
    {
      "midi": 74,
      "hit": false,
      "t": 107666.55899999976,
      "d": 333.3329999999987,
      "v": 64
    },
    {
      "midi": 74,
      "hit": false,
      "t": 107999.89199999976,
      "d": 333.3329999999987,
      "v": 64
    },
    {
      "midi": 52,
      "hit": false,
      "t": 107999.89199999977,
      "d": 666.6659999999974,
      "v": 64
    },
    {
      "midi": 73,
      "hit": false,
      "t": 108333.22499999976,
      "d": 333.3329999999987,
      "v": 64
    },
    {
      "midi": 71,
      "hit": false,
      "t": 108666.55799999976,
      "d": 333.3329999999987,
      "v": 64
    },
    {
      "midi": 52,
      "hit": false,
      "t": 108666.55799999977,
      "d": 333.3329999999987,
      "v": 64
    },
    {
      "midi": 73,
      "hit": false,
      "t": 108999.89099999976,
      "d": 333.3329999999987,
      "v": 64
    },
    {
      "midi": 40,
      "hit": false,
      "t": 108999.89099999977,
      "d": 333.3329999999987,
      "v": 64
    },
    {
      "midi": 74,
      "hit": false,
      "t": 109666.55699999975,
      "d": 666.6659999999974,
      "v": 64
    },
    {
      "midi": 40,
      "hit": false,
      "t": 109999.88999999977,
      "d": 666.6659999999974,
      "v": 64
    },
    {
      "midi": 74,
      "hit": false,
      "t": 110333.22299999975,
      "d": 666.6659999999974,
      "v": 64
    },
    {
      "midi": 40,
      "hit": false,
      "t": 110666.55599999976,
      "d": 666.6659999999974,
      "v": 64
    },
    {
      "midi": 76,
      "hit": false,
      "t": 110999.88899999975,
      "d": 999.9989999999962,
      "v": 64
    },
    {
      "midi": 45,
      "hit": false,
      "t": 111333.22199999976,
      "d": 333.3329999999987,
      "v": 64
    },
    {
      "midi": 47,
      "hit": false,
      "t": 111666.55499999976,
      "d": 333.3329999999987,
      "v": 64
    },
    {
      "midi": 69,
      "hit": false,
      "t": 111999.88799999974,
      "d": 333.3329999999987,
      "v": 64
    },
    {
      "midi": 74,
      "hit": false,
      "t": 111999.88799999974,
      "d": 333.3329999999987,
      "v": 64
    },
    {
      "midi": 76,
      "hit": false,
      "t": 111999.88799999974,
      "d": 333.3329999999987,
      "v": 64
    },
    {
      "midi": 50,
      "hit": false,
      "t": 111999.88799999976,
      "d": 666.6659999999974,
      "v": 64
    },
    {
      "midi": 78,
      "hit": false,
      "t": 112333.22099999974,
      "d": 333.3329999999987,
      "v": 64
    },
    {
      "midi": 78,
      "hit": false,
      "t": 112666.55399999974,
      "d": 333.3329999999987,
      "v": 64
    },
    {
      "midi": 50,
      "hit": false,
      "t": 112666.55399999976,
      "d": 666.6659999999974,
      "v": 64
    },
    {
      "midi": 69,
      "hit": false,
      "t": 112999.88699999974,
      "d": 999.9989999999962,
      "v": 64
    },
    {
      "midi": 74,
      "hit": false,
      "t": 112999.88699999974,
      "d": 999.9989999999962,
      "v": 64
    },
    {
      "midi": 78,
      "hit": false,
      "t": 112999.88699999974,
      "d": 999.9989999999962,
      "v": 64
    },
    {
      "midi": 50,
      "hit": false,
      "t": 113333.21999999975,
      "d": 666.6659999999974,
      "v": 64
    },
    {
      "midi": 76,
      "hit": false,
      "t": 113999.88599999974,
      "d": 666.6659999999974,
      "v": 64
    },
    {
      "midi": 50,
      "hit": false,
      "t": 113999.88599999975,
      "d": 333.3329999999987,
      "v": 64
    },
    {
      "midi": 45,
      "hit": false,
      "t": 114333.21899999975,
      "d": 333.3329999999987,
      "v": 64
    },
    {
      "midi": 69,
      "hit": false,
      "t": 114666.55199999973,
      "d": 666.6659999999974,
      "v": 64
    },
    {
      "midi": 74,
      "hit": false,
      "t": 114666.55199999973,
      "d": 666.6659999999974,
      "v": 64
    },
    {
      "midi": 76,
      "hit": false,
      "t": 114666.55199999973,
      "d": 666.6659999999974,
      "v": 64
    },
    {
      "midi": 50,
      "hit": false,
      "t": 114666.55199999975,
      "d": 666.6659999999974,
      "v": 64
    },
    {
      "midi": 69,
      "hit": false,
      "t": 115333.21799999973,
      "d": 333.3329999999987,
      "v": 64
    },
    {
      "midi": 74,
      "hit": false,
      "t": 115333.21799999973,
      "d": 333.3329999999987,
      "v": 64
    },
    {
      "midi": 78,
      "hit": false,
      "t": 115333.21799999973,
      "d": 333.3329999999987,
      "v": 64
    },
    {
      "midi": 50,
      "hit": false,
      "t": 115333.21799999975,
      "d": 666.6659999999974,
      "v": 64
    },
    {
      "midi": 69,
      "hit": false,
      "t": 115666.55099999973,
      "d": 1333.3319999999949,
      "v": 64
    },
    {
      "midi": 74,
      "hit": false,
      "t": 115666.55099999973,
      "d": 1333.3319999999949,
      "v": 64
    },
    {
      "midi": 78,
      "hit": false,
      "t": 115666.55099999973,
      "d": 1333.3319999999949,
      "v": 64
    },
    {
      "midi": 50,
      "hit": false,
      "t": 115999.88399999974,
      "d": 666.6659999999974,
      "v": 64
    },
    {
      "midi": 50,
      "hit": false,
      "t": 116666.54999999974,
      "d": 666.6659999999974,
      "v": 64
    },
    {
      "midi": 67,
      "hit": false,
      "t": 117333.21599999972,
      "d": 999.9989999999962,
      "v": 64
    },
    {
      "midi": 71,
      "hit": false,
      "t": 117333.21599999972,
      "d": 999.9989999999962,
      "v": 64
    },
    {
      "midi": 74,
      "hit": false,
      "t": 117333.21599999972,
      "d": 999.9989999999962,
      "v": 64
    },
    {
      "midi": 43,
      "hit": false,
      "t": 117333.21599999974,
      "d": 1999.9980000000069,
      "v": 64
    },
    {
      "midi": 74,
      "hit": false,
      "t": 118333.21499999972,
      "d": 333.3329999999987,
      "v": 64
    },
    {
      "midi": 74,
      "hit": false,
      "t": 118666.54799999972,
      "d": 333.3329999999987,
      "v": 64
    },
    {
      "midi": 76,
      "hit": false,
      "t": 118999.88099999972,
      "d": 333.3329999999987,
      "v": 64
    },
    {
      "midi": 78,
      "hit": false,
      "t": 119333.21399999972,
      "d": 666.6659999999974,
      "v": 64
    },
    {
      "midi": 47,
      "hit": false,
      "t": 119333.21399999975,
      "d": 333.3329999999987,
      "v": 64
    },
    {
      "midi": 49,
      "hit": false,
      "t": 119666.54699999974,
      "d": 333.3329999999987,
      "v": 64
    },
    {
      "midi": 69,
      "hit": false,
      "t": 119999.87999999971,
      "d": 999.9989999999962,
      "v": 64
    },
    {
      "midi": 74,
      "hit": false,
      "t": 119999.87999999971,
      "d": 999.9989999999962,
      "v": 64
    },
    {
      "midi": 78,
      "hit": false,
      "t": 119999.87999999971,
      "d": 999.9989999999962,
      "v": 64
    },
    {
      "midi": 50,
      "hit": false,
      "t": 119999.87999999974,
      "d": 1999.9980000000069,
      "v": 64
    },
    {
      "midi": 74,
      "hit": false,
      "t": 120999.87899999971,
      "d": 999.9989999999962,
      "v": 64
    },
    {
      "midi": 78,
      "hit": false,
      "t": 121999.8779999997,
      "d": 333.3329999999987,
      "v": 64
    },
    {
      "midi": 50,
      "hit": false,
      "t": 121999.87799999975,
      "d": 333.3329999999987,
      "v": 64
    },
    {
      "midi": 78,
      "hit": false,
      "t": 122333.2109999997,
      "d": 333.3329999999987,
      "v": 64
    },
    {
      "midi": 49,
      "hit": false,
      "t": 122333.21099999975,
      "d": 333.3329999999987,
      "v": 64
    },
    {
      "midi": 69,
      "hit": false,
      "t": 122666.5439999997,
      "d": 666.6659999999974,
      "v": 64
    },
    {
      "midi": 74,
      "hit": false,
      "t": 122666.5439999997,
      "d": 666.6659999999974,
      "v": 64
    },
    {
      "midi": 78,
      "hit": false,
      "t": 122666.5439999997,
      "d": 666.6659999999974,
      "v": 64
    },
    {
      "midi": 47,
      "hit": false,
      "t": 122666.54399999975,
      "d": 1999.9980000000069,
      "v": 64
    },
    {
      "midi": 76,
      "hit": false,
      "t": 123333.2099999997,
      "d": 333.3329999999987,
      "v": 64
    },
    {
      "midi": 76,
      "hit": false,
      "t": 123666.5429999997,
      "d": 666.6659999999974,
      "v": 64
    },
    {
      "midi": 74,
      "hit": false,
      "t": 124333.2089999997,
      "d": 333.3329999999987,
      "v": 64
    },
    {
      "midi": 76,
      "hit": false,
      "t": 124666.5419999997,
      "d": 666.6659999999974,
      "v": 64
    },
    {
      "midi": 42,
      "hit": false,
      "t": 124666.54199999975,
      "d": 666.6659999999974,
      "v": 64
    },
    {
      "midi": 69,
      "hit": false,
      "t": 125333.2079999997,
      "d": 1333.3319999999949,
      "v": 64
    },
    {
      "midi": 74,
      "hit": false,
      "t": 125333.2079999997,
      "d": 1333.3319999999949,
      "v": 64
    },
    {
      "midi": 76,
      "hit": false,
      "t": 125333.2079999997,
      "d": 1333.3319999999949,
      "v": 64
    },
    {
      "midi": 45,
      "hit": false,
      "t": 125333.20799999975,
      "d": 666.6659999999974,
      "v": 64
    },
    {
      "midi": 45,
      "hit": false,
      "t": 125999.87399999975,
      "d": 333.3329999999987,
      "v": 64
    },
    {
      "midi": 45,
      "hit": false,
      "t": 126333.20699999975,
      "d": 333.3329999999987,
      "v": 64
    },
    {
      "midi": 69,
      "hit": false,
      "t": 126666.53999999969,
      "d": 666.6659999999974,
      "v": 64
    },
    {
      "midi": 73,
      "hit": false,
      "t": 126666.53999999969,
      "d": 666.6659999999974,
      "v": 64
    },
    {
      "midi": 57,
      "hit": false,
      "t": 126666.53999999975,
      "d": 666.6659999999974,
      "v": 64
    },
    {
      "midi": 69,
      "hit": false,
      "t": 127333.20599999969,
      "d": 666.6659999999974,
      "v": 64
    },
    {
      "midi": 52,
      "hit": false,
      "t": 127333.20599999974,
      "d": 666.6659999999974,
      "v": 64
    },
    {
      "midi": 67,
      "hit": false,
      "t": 127999.87199999968,
      "d": 999.9989999999962,
      "v": 64
    },
    {
      "midi": 71,
      "hit": false,
      "t": 127999.87199999968,
      "d": 999.9989999999962,
      "v": 64
    },
    {
      "midi": 74,
      "hit": false,
      "t": 127999.87199999968,
      "d": 999.9989999999962,
      "v": 64
    },
    {
      "midi": 43,
      "hit": false,
      "t": 127999.87199999974,
      "d": 1999.9980000000069,
      "v": 64
    },
    {
      "midi": 74,
      "hit": false,
      "t": 128999.87099999968,
      "d": 333.3329999999987,
      "v": 64
    },
    {
      "midi": 74,
      "hit": false,
      "t": 129333.20399999968,
      "d": 333.3329999999987,
      "v": 64
    },
    {
      "midi": 76,
      "hit": false,
      "t": 129666.53699999968,
      "d": 333.3329999999987,
      "v": 64
    },
    {
      "midi": 78,
      "hit": false,
      "t": 129999.86999999968,
      "d": 666.6659999999974,
      "v": 64
    },
    {
      "midi": 43,
      "hit": false,
      "t": 129999.86999999975,
      "d": 666.6659999999974,
      "v": 64
    },
    {
      "midi": 69,
      "hit": false,
      "t": 130666.53599999967,
      "d": 666.6659999999974,
      "v": 64
    },
    {
      "midi": 74,
      "hit": false,
      "t": 130666.53599999967,
      "d": 666.6659999999974,
      "v": 64
    },
    {
      "midi": 78,
      "hit": false,
      "t": 130666.53599999967,
      "d": 666.6659999999974,
      "v": 64
    },
    {
      "midi": 50,
      "hit": false,
      "t": 130666.53599999975,
      "d": 1999.9980000000069,
      "v": 64
    },
    {
      "midi": 76,
      "hit": false,
      "t": 131333.20199999967,
      "d": 666.6659999999974,
      "v": 64
    },
    {
      "midi": 76,
      "hit": false,
      "t": 131999.86799999967,
      "d": 333.33300000001327,
      "v": 64
    },
    {
      "midi": 78,
      "hit": false,
      "t": 132333.20099999968,
      "d": 333.33300000001327,
      "v": 64
    },
    {
      "midi": 78,
      "hit": false,
      "t": 132666.5339999997,
      "d": 333.33300000001327,
      "v": 64
    },
    {
      "midi": 50,
      "hit": false,
      "t": 132666.53399999975,
      "d": 333.33300000001327,
      "v": 64
    },
    {
      "midi": 78,
      "hit": false,
      "t": 132999.8669999997,
      "d": 333.33300000001327,
      "v": 64
    },
    {
      "midi": 49,
      "hit": false,
      "t": 132999.86699999977,
      "d": 333.33300000001327,
      "v": 64
    },
    {
      "midi": 78,
      "hit": false,
      "t": 133333.19999999972,
      "d": 666.6659999999974,
      "v": 64
    },
    {
      "midi": 47,
      "hit": false,
      "t": 133333.19999999978,
      "d": 1999.9979999999923,
      "v": 64
    },
    {
      "midi": 76,
      "hit": false,
      "t": 133999.86599999972,
      "d": 333.33300000001327,
      "v": 64
    },
    {
      "midi": 76,
      "hit": false,
      "t": 134333.19899999973,
      "d": 999.9990000000107,
      "v": 64
    },
    {
      "midi": 74,
      "hit": false,
      "t": 135333.19799999974,
      "d": 666.6659999999974,
      "v": 64
    },
    {
      "midi": 42,
      "hit": false,
      "t": 135333.19799999977,
      "d": 666.6659999999974,
      "v": 64
    },
    {
      "midi": 69,
      "hit": false,
      "t": 135999.86399999974,
      "d": 1333.3319999999949,
      "v": 64
    },
    {
      "midi": 74,
      "hit": false,
      "t": 135999.86399999974,
      "d": 1333.3319999999949,
      "v": 64
    },
    {
      "midi": 76,
      "hit": false,
      "t": 135999.86399999974,
      "d": 1333.3319999999949,
      "v": 64
    },
    {
      "midi": 45,
      "hit": false,
      "t": 135999.86399999977,
      "d": 1999.9979999999923,
      "v": 64
    },
    {
      "midi": 69,
      "hit": false,
      "t": 137333.19599999973,
      "d": 666.6659999999974,
      "v": 64
    },
    {
      "midi": 73,
      "hit": false,
      "t": 137333.19599999973,
      "d": 666.6659999999974,
      "v": 64
    },
    {
      "midi": 69,
      "hit": false,
      "t": 137999.86199999973,
      "d": 666.6659999999974,
      "v": 64
    },
    {
      "midi": 49,
      "hit": false,
      "t": 137999.86199999976,
      "d": 333.33300000001327,
      "v": 64
    },
    {
      "midi": 50,
      "hit": false,
      "t": 138333.19499999977,
      "d": 333.33300000001327,
      "v": 64
    },
    {
      "midi": 76,
      "hit": false,
      "t": 138666.52799999973,
      "d": 83.33324999999604,
      "v": 64
    },
    {
      "midi": 52,
      "hit": false,
      "t": 138666.5279999998,
      "d": 666.6659999999974,
      "v": 64
    },
    {
      "midi": 52,
      "hit": false,
      "t": 139333.19399999978,
      "d": 333.33300000001327,
      "v": 64
    },
    {
      "midi": 76,
      "hit": false,
      "t": 139666.5269999997,
      "d": 333.33300000001327,
      "v": 64
    },
    {
      "midi": 52,
      "hit": false,
      "t": 139666.5269999998,
      "d": 333.33300000001327,
      "v": 64
    },
    {
      "midi": 76,
      "hit": false,
      "t": 139999.85999999972,
      "d": 333.33300000001327,
      "v": 64
    },
    {
      "midi": 52,
      "hit": false,
      "t": 139999.8599999998,
      "d": 333.33300000001327,
      "v": 64
    },
    {
      "midi": 76,
      "hit": false,
      "t": 140333.19299999974,
      "d": 333.33300000001327,
      "v": 64
    },
    {
      "midi": 52,
      "hit": false,
      "t": 140333.19299999982,
      "d": 333.33300000001327,
      "v": 64
    },
    {
      "midi": 76,
      "hit": false,
      "t": 140666.52599999975,
      "d": 333.33300000001327,
      "v": 64
    },
    {
      "midi": 52,
      "hit": false,
      "t": 140666.52599999984,
      "d": 333.33300000001327,
      "v": 64
    },
    {
      "midi": 67,
      "hit": false,
      "t": 140999.85899999976,
      "d": 333.33300000001327,
      "v": 64
    },
    {
      "midi": 71,
      "hit": false,
      "t": 140999.85899999976,
      "d": 333.33300000001327,
      "v": 64
    },
    {
      "midi": 78,
      "hit": false,
      "t": 140999.85899999976,
      "d": 333.33300000001327,
      "v": 64
    },
    {
      "midi": 52,
      "hit": false,
      "t": 140999.85899999985,
      "d": 333.33300000001327,
      "v": 64
    },
    {
      "midi": 52,
      "hit": false,
      "t": 141333.19199999986,
      "d": 333.33300000001327,
      "v": 64
    },
    {
      "midi": 67,
      "hit": false,
      "t": 141666.5249999998,
      "d": 333.33300000001327,
      "v": 64
    },
    {
      "midi": 71,
      "hit": false,
      "t": 141666.5249999998,
      "d": 333.33300000001327,
      "v": 64
    },
    {
      "midi": 76,
      "hit": false,
      "t": 141666.5249999998,
      "d": 333.33300000001327,
      "v": 64
    },
    {
      "midi": 52,
      "hit": false,
      "t": 141666.52499999988,
      "d": 333.33300000001327,
      "v": 64
    },
    {
      "midi": 76,
      "hit": false,
      "t": 141999.8579999998,
      "d": 333.33300000001327,
      "v": 64
    },
    {
      "midi": 52,
      "hit": false,
      "t": 141999.8579999999,
      "d": 333.33300000001327,
      "v": 64
    },
    {
      "midi": 67,
      "hit": false,
      "t": 142333.19099999982,
      "d": 666.6659999999974,
      "v": 64
    },
    {
      "midi": 71,
      "hit": false,
      "t": 142333.19099999982,
      "d": 666.6659999999974,
      "v": 64
    },
    {
      "midi": 78,
      "hit": false,
      "t": 142333.19099999982,
      "d": 666.6659999999974,
      "v": 64
    },
    {
      "midi": 40,
      "hit": false,
      "t": 142333.1909999999,
      "d": 666.6659999999974,
      "v": 64
    },
    {
      "midi": 71,
      "hit": false,
      "t": 142999.8569999998,
      "d": 999.9990000000107,
      "v": 64
    },
    {
      "midi": 76,
      "hit": false,
      "t": 142999.8569999998,
      "d": 999.9990000000107,
      "v": 64
    },
    {
      "midi": 79,
      "hit": false,
      "t": 142999.8569999998,
      "d": 999.9990000000107,
      "v": 64
    },
    {
      "midi": 40,
      "hit": false,
      "t": 142999.8569999999,
      "d": 999.9990000000107,
      "v": 64
    },
    {
      "midi": 67,
      "hit": false,
      "t": 143999.85599999983,
      "d": 999.9990000000107,
      "v": 64
    },
    {
      "midi": 70,
      "hit": false,
      "t": 143999.85599999983,
      "d": 999.9990000000107,
      "v": 64
    },
    {
      "midi": 73,
      "hit": false,
      "t": 143999.85599999983,
      "d": 999.9990000000107,
      "v": 64
    },
    {
      "midi": 49,
      "hit": false,
      "t": 143999.8559999999,
      "d": 666.6659999999974,
      "v": 64
    },
    {
      "midi": 49,
      "hit": false,
      "t": 144666.5219999999,
      "d": 333.33300000001327,
      "v": 64
    },
    {
      "midi": 76,
      "hit": false,
      "t": 144999.85499999984,
      "d": 333.33300000001327,
      "v": 64
    },
    {
      "midi": 49,
      "hit": false,
      "t": 144999.85499999992,
      "d": 333.33300000001327,
      "v": 64
    },
    {
      "midi": 76,
      "hit": false,
      "t": 145333.18799999985,
      "d": 333.33300000001327,
      "v": 64
    },
    {
      "midi": 49,
      "hit": false,
      "t": 145333.18799999994,
      "d": 333.33300000001327,
      "v": 64
    },
    {
      "midi": 76,
      "hit": false,
      "t": 145666.52099999986,
      "d": 333.33300000001327,
      "v": 64
    },
    {
      "midi": 49,
      "hit": false,
      "t": 145666.52099999995,
      "d": 333.33300000001327,
      "v": 64
    },
    {
      "midi": 76,
      "hit": false,
      "t": 145999.85399999988,
      "d": 333.33300000001327,
      "v": 64
    },
    {
      "midi": 49,
      "hit": false,
      "t": 145999.85399999996,
      "d": 333.33300000001327,
      "v": 64
    },
    {
      "midi": 70,
      "hit": false,
      "t": 146333.1869999999,
      "d": 333.33300000001327,
      "v": 64
    },
    {
      "midi": 73,
      "hit": false,
      "t": 146333.1869999999,
      "d": 333.33300000001327,
      "v": 64
    },
    {
      "midi": 78,
      "hit": false,
      "t": 146333.1869999999,
      "d": 333.33300000001327,
      "v": 64
    },
    {
      "midi": 49,
      "hit": false,
      "t": 146333.18699999998,
      "d": 333.33300000001327,
      "v": 64
    },
    {
      "midi": 49,
      "hit": false,
      "t": 146666.52,
      "d": 333.33300000001327,
      "v": 64
    },
    {
      "midi": 49,
      "hit": false,
      "t": 146999.853,
      "d": 333.33300000001327,
      "v": 64
    },
    {
      "midi": 76,
      "hit": false,
      "t": 147333.1859999999,
      "d": 333.33300000001327,
      "v": 64
    },
    {
      "midi": 49,
      "hit": false,
      "t": 147333.18600000002,
      "d": 333.33300000001327,
      "v": 64
    },
    {
      "midi": 78,
      "hit": false,
      "t": 147666.5189999999,
      "d": 666.6659999999974,
      "v": 64
    },
    {
      "midi": 52,
      "hit": false,
      "t": 147666.51900000003,
      "d": 666.6659999999974,
      "v": 64
    },
    {
      "midi": 79,
      "hit": false,
      "t": 148333.1849999999,
      "d": 999.9990000000107,
      "v": 64
    },
    {
      "midi": 49,
      "hit": false,
      "t": 148333.18500000003,
      "d": 333.33300000001327,
      "v": 64
    },
    {
      "midi": 47,
      "hit": false,
      "t": 148666.51800000004,
      "d": 333.33300000001327,
      "v": 64
    },
    {
      "midi": 45,
      "hit": false,
      "t": 148999.85100000005,
      "d": 333.33300000001327,
      "v": 64
    },
    {
      "midi": 67,
      "hit": false,
      "t": 149333.18399999992,
      "d": 999.9990000000107,
      "v": 64
    },
    {
      "midi": 71,
      "hit": false,
      "t": 149333.18399999992,
      "d": 999.9990000000107,
      "v": 64
    },
    {
      "midi": 74,
      "hit": false,
      "t": 149333.18399999992,
      "d": 999.9990000000107,
      "v": 64
    },
    {
      "midi": 43,
      "hit": false,
      "t": 149333.18400000007,
      "d": 666.6659999999974,
      "v": 64
    },
    {
      "midi": 43,
      "hit": false,
      "t": 149999.85000000006,
      "d": 333.33300000001327,
      "v": 64
    },
    {
      "midi": 79,
      "hit": false,
      "t": 150333.18299999993,
      "d": 333.33300000001327,
      "v": 64
    },
    {
      "midi": 43,
      "hit": false,
      "t": 150333.18300000008,
      "d": 333.33300000001327,
      "v": 64
    },
    {
      "midi": 71,
      "hit": false,
      "t": 150666.51599999995,
      "d": 333.33300000001327,
      "v": 64
    },
    {
      "midi": 74,
      "hit": false,
      "t": 150666.51599999995,
      "d": 333.33300000001327,
      "v": 64
    },
    {
      "midi": 79,
      "hit": false,
      "t": 150666.51599999995,
      "d": 333.33300000001327,
      "v": 64
    },
    {
      "midi": 43,
      "hit": false,
      "t": 150666.5160000001,
      "d": 333.33300000001327,
      "v": 64
    },
    {
      "midi": 79,
      "hit": false,
      "t": 150999.84899999996,
      "d": 333.33300000001327,
      "v": 64
    },
    {
      "midi": 43,
      "hit": false,
      "t": 150999.8490000001,
      "d": 333.33300000001327,
      "v": 64
    },
    {
      "midi": 79,
      "hit": false,
      "t": 151333.18199999997,
      "d": 333.33300000001327,
      "v": 64
    },
    {
      "midi": 43,
      "hit": false,
      "t": 151333.18200000012,
      "d": 333.33300000001327,
      "v": 64
    },
    {
      "midi": 71,
      "hit": false,
      "t": 151666.51499999998,
      "d": 333.33300000001327,
      "v": 64
    },
    {
      "midi": 74,
      "hit": false,
      "t": 151666.51499999998,
      "d": 333.33300000001327,
      "v": 64
    },
    {
      "midi": 81,
      "hit": false,
      "t": 151666.51499999998,
      "d": 333.33300000001327,
      "v": 64
    },
    {
      "midi": 43,
      "hit": false,
      "t": 151666.51500000013,
      "d": 333.33300000001327,
      "v": 64
    },
    {
      "midi": 43,
      "hit": false,
      "t": 151999.84800000014,
      "d": 333.33300000001327,
      "v": 64
    },
    {
      "midi": 43,
      "hit": false,
      "t": 152333.18100000016,
      "d": 333.33300000001327,
      "v": 64
    },
    {
      "midi": 79,
      "hit": false,
      "t": 152666.514,
      "d": 666.6659999999974,
      "v": 64
    },
    {
      "midi": 43,
      "hit": false,
      "t": 152666.51400000017,
      "d": 333.33300000001327,
      "v": 64
    },
    {
      "midi": 43,
      "hit": false,
      "t": 152999.84700000018,
      "d": 333.33300000001327,
      "v": 64
    },
    {
      "midi": 71,
      "hit": false,
      "t": 153333.18,
      "d": 666.6659999999974,
      "v": 64
    },
    {
      "midi": 74,
      "hit": false,
      "t": 153333.18,
      "d": 666.6659999999974,
      "v": 64
    },
    {
      "midi": 78,
      "hit": false,
      "t": 153333.18,
      "d": 666.6659999999974,
      "v": 64
    },
    {
      "midi": 43,
      "hit": false,
      "t": 153333.1800000002,
      "d": 333.33300000001327,
      "v": 64
    },
    {
      "midi": 43,
      "hit": false,
      "t": 153666.5130000002,
      "d": 333.33300000001327,
      "v": 64
    },
    {
      "midi": 71,
      "hit": false,
      "t": 153999.846,
      "d": 666.6659999999974,
      "v": 64
    },
    {
      "midi": 74,
      "hit": false,
      "t": 153999.846,
      "d": 666.6659999999974,
      "v": 64
    },
    {
      "midi": 79,
      "hit": false,
      "t": 153999.846,
      "d": 666.6659999999974,
      "v": 64
    },
    {
      "midi": 43,
      "hit": false,
      "t": 153999.84600000022,
      "d": 666.6659999999974,
      "v": 64
    },
    {
      "midi": 79,
      "hit": false,
      "t": 154666.512,
      "d": 83.33324999999604,
      "v": 64
    },
    {
      "midi": 57,
      "hit": false,
      "t": 154666.51200000022,
      "d": 333.33300000001327,
      "v": 64
    },
    {
      "midi": 55,
      "hit": false,
      "t": 154999.84500000023,
      "d": 333.33300000001327,
      "v": 64
    },
    {
      "midi": 54,
      "hit": false,
      "t": 155333.17800000025,
      "d": 333.33300000001327,
      "v": 64
    },
    {
      "midi": 79,
      "hit": false,
      "t": 155666.51099999997,
      "d": 333.33300000001327,
      "v": 64
    },
    {
      "midi": 52,
      "hit": false,
      "t": 155666.51100000026,
      "d": 333.33300000001327,
      "v": 64
    },
    {
      "midi": 79,
      "hit": false,
      "t": 155999.84399999998,
      "d": 333.33300000001327,
      "v": 64
    },
    {
      "midi": 57,
      "hit": false,
      "t": 155999.84400000027,
      "d": 333.33300000001327,
      "v": 64
    },
    {
      "midi": 79,
      "hit": false,
      "t": 156333.177,
      "d": 333.33300000001327,
      "v": 64
    },
    {
      "midi": 55,
      "hit": false,
      "t": 156333.1770000003,
      "d": 333.33300000001327,
      "v": 64
    },
    {
      "midi": 79,
      "hit": false,
      "t": 156666.51,
      "d": 333.33300000001327,
      "v": 64
    },
    {
      "midi": 54,
      "hit": false,
      "t": 156666.5100000003,
      "d": 333.33300000001327,
      "v": 64
    },
    {
      "midi": 81,
      "hit": false,
      "t": 156999.84300000002,
      "d": 333.33300000001327,
      "v": 64
    },
    {
      "midi": 52,
      "hit": false,
      "t": 156999.8430000003,
      "d": 333.33300000001327,
      "v": 64
    },
    {
      "midi": 57,
      "hit": false,
      "t": 157333.17600000033,
      "d": 333.33300000001327,
      "v": 64
    },
    {
      "midi": 79,
      "hit": false,
      "t": 157666.50900000005,
      "d": 666.6659999999974,
      "v": 64
    },
    {
      "midi": 55,
      "hit": false,
      "t": 157666.50900000034,
      "d": 333.33300000001327,
      "v": 64
    },
    {
      "midi": 54,
      "hit": false,
      "t": 157999.84200000035,
      "d": 333.33300000001327,
      "v": 64
    },
    {
      "midi": 76,
      "hit": false,
      "t": 158333.17500000005,
      "d": 333.33300000001327,
      "v": 64
    },
    {
      "midi": 52,
      "hit": false,
      "t": 158333.17500000037,
      "d": 333.33300000001327,
      "v": 64
    },
    {
      "midi": 76,
      "hit": false,
      "t": 158666.50800000006,
      "d": 333.33300000001327,
      "v": 64
    },
    {
      "midi": 57,
      "hit": false,
      "t": 158666.50800000038,
      "d": 333.33300000001327,
      "v": 64
    },
    {
      "midi": 78,
      "hit": false,
      "t": 158999.84100000007,
      "d": 333.33300000001327,
      "v": 64
    },
    {
      "midi": 45,
      "hit": false,
      "t": 158999.8410000004,
      "d": 333.33300000001327,
      "v": 64
    },
    {
      "midi": 79,
      "hit": false,
      "t": 159333.1740000001,
      "d": 666.6659999999974,
      "v": 64
    },
    {
      "midi": 47,
      "hit": false,
      "t": 159333.1740000004,
      "d": 333.33300000001327,
      "v": 64
    },
    {
      "midi": 49,
      "hit": false,
      "t": 159666.50700000042,
      "d": 333.33300000001327,
      "v": 64
    },
    {
      "midi": 69,
      "hit": false,
      "t": 159999.84000000008,
      "d": 666.6659999999974,
      "v": 64
    },
    {
      "midi": 74,
      "hit": false,
      "t": 159999.84000000008,
      "d": 666.6659999999974,
      "v": 64
    },
    {
      "midi": 78,
      "hit": false,
      "t": 159999.84000000008,
      "d": 666.6659999999974,
      "v": 64
    },
    {
      "midi": 50,
      "hit": false,
      "t": 159999.84000000043,
      "d": 999.9990000000107,
      "v": 64
    },
    {
      "midi": 74,
      "hit": false,
      "t": 160666.50600000008,
      "d": 333.33300000001327,
      "v": 64
    },
    {
      "midi": 69,
      "hit": false,
      "t": 160999.8390000001,
      "d": 666.6659999999974,
      "v": 64
    },
    {
      "midi": 74,
      "hit": false,
      "t": 160999.8390000001,
      "d": 666.6659999999974,
      "v": 64
    },
    {
      "midi": 79,
      "hit": false,
      "t": 160999.8390000001,
      "d": 666.6659999999974,
      "v": 64
    },
    {
      "midi": 55,
      "hit": false,
      "t": 160999.83900000044,
      "d": 1333.3319999999949,
      "v": 64
    },
    {
      "midi": 69,
      "hit": false,
      "t": 161666.5050000001,
      "d": 666.6659999999974,
      "v": 64
    },
    {
      "midi": 74,
      "hit": false,
      "t": 161666.5050000001,
      "d": 666.6659999999974,
      "v": 64
    },
    {
      "midi": 78,
      "hit": false,
      "t": 161666.5050000001,
      "d": 666.6659999999974,
      "v": 64
    },
    {
      "midi": 69,
      "hit": false,
      "t": 162333.1710000001,
      "d": 333.33300000001327,
      "v": 64
    },
    {
      "midi": 74,
      "hit": false,
      "t": 162333.1710000001,
      "d": 333.33300000001327,
      "v": 64
    },
    {
      "midi": 76,
      "hit": false,
      "t": 162333.1710000001,
      "d": 333.33300000001327,
      "v": 64
    },
    {
      "midi": 57,
      "hit": false,
      "t": 162333.17100000044,
      "d": 333.33300000001327,
      "v": 64
    },
    {
      "midi": 69,
      "hit": false,
      "t": 162999.83700000012,
      "d": 333.33300000001327,
      "v": 64
    },
    {
      "midi": 76,
      "hit": false,
      "t": 162999.83700000012,
      "d": 333.33300000001327,
      "v": 64
    },
    {
      "midi": 69,
      "hit": false,
      "t": 163333.17000000013,
      "d": 333.33300000001327,
      "v": 64
    },
    {
      "midi": 76,
      "hit": false,
      "t": 163333.17000000013,
      "d": 333.33300000001327,
      "v": 64
    },
    {
      "midi": 69,
      "hit": false,
      "t": 163666.50300000014,
      "d": 333.33300000001327,
      "v": 64
    },
    {
      "midi": 76,
      "hit": false,
      "t": 163666.50300000014,
      "d": 333.33300000001327,
      "v": 64
    },
    {
      "midi": 69,
      "hit": false,
      "t": 163999.83600000016,
      "d": 333.33300000001327,
      "v": 64
    },
    {
      "midi": 74,
      "hit": false,
      "t": 163999.83600000016,
      "d": 333.33300000001327,
      "v": 64
    },
    {
      "midi": 76,
      "hit": false,
      "t": 163999.83600000016,
      "d": 333.33300000001327,
      "v": 64
    },
    {
      "midi": 69,
      "hit": false,
      "t": 164333.16900000017,
      "d": 333.33300000001327,
      "v": 64
    },
    {
      "midi": 74,
      "hit": false,
      "t": 164333.16900000017,
      "d": 333.33300000001327,
      "v": 64
    },
    {
      "midi": 78,
      "hit": false,
      "t": 164333.16900000017,
      "d": 333.33300000001327,
      "v": 64
    },
    {
      "midi": 69,
      "hit": false,
      "t": 164666.50200000018,
      "d": 666.6659999999974,
      "v": 64
    },
    {
      "midi": 74,
      "hit": false,
      "t": 164666.50200000018,
      "d": 666.6659999999974,
      "v": 64
    },
    {
      "midi": 79,
      "hit": false,
      "t": 164666.50200000018,
      "d": 666.6659999999974,
      "v": 64
    },
    {
      "midi": 52,
      "hit": false,
      "t": 164666.50200000044,
      "d": 333.33300000001327,
      "v": 64
    },
    {
      "midi": 54,
      "hit": false,
      "t": 164999.83500000046,
      "d": 333.33300000001327,
      "v": 64
    },
    {
      "midi": 78,
      "hit": false,
      "t": 165333.16800000018,
      "d": 666.6659999999974,
      "v": 64
    },
    {
      "midi": 50,
      "hit": false,
      "t": 165333.16800000047,
      "d": 999.9990000000107,
      "v": 64
    },
    {
      "midi": 74,
      "hit": false,
      "t": 165999.83400000018,
      "d": 333.33300000001327,
      "v": 64
    },
    {
      "midi": 69,
      "hit": false,
      "t": 166333.1670000002,
      "d": 666.6659999999974,
      "v": 64
    },
    {
      "midi": 74,
      "hit": false,
      "t": 166333.1670000002,
      "d": 666.6659999999974,
      "v": 64
    },
    {
      "midi": 79,
      "hit": false,
      "t": 166333.1670000002,
      "d": 666.6659999999974,
      "v": 64
    },
    {
      "midi": 55,
      "hit": false,
      "t": 166333.16700000048,
      "d": 1333.3319999999949,
      "v": 64
    },
    {
      "midi": 81,
      "hit": false,
      "t": 166999.8330000002,
      "d": 666.6659999999974,
      "v": 64
    },
    {
      "midi": 74,
      "hit": false,
      "t": 167666.49900000019,
      "d": 333.33300000001327,
      "v": 64
    },
    {
      "midi": 76,
      "hit": false,
      "t": 167666.49900000019,
      "d": 333.33300000001327,
      "v": 64
    },
    {
      "midi": 81,
      "hit": false,
      "t": 167666.49900000019,
      "d": 333.33300000001327,
      "v": 64
    },
    {
      "midi": 52,
      "hit": false,
      "t": 167666.49900000048,
      "d": 333.33300000001327,
      "v": 64
    },
    {
      "midi": 76,
      "hit": false,
      "t": 168999.8310000002,
      "d": 333.33300000001327,
      "v": 64
    },
    {
      "midi": 52,
      "hit": false,
      "t": 168999.8310000005,
      "d": 999.9990000000107,
      "v": 64
    },
    {
      "midi": 69,
      "hit": false,
      "t": 169333.16400000022,
      "d": 333.33300000001327,
      "v": 64
    },
    {
      "midi": 74,
      "hit": false,
      "t": 169333.16400000022,
      "d": 333.33300000001327,
      "v": 64
    },
    {
      "midi": 76,
      "hit": false,
      "t": 169333.16400000022,
      "d": 333.33300000001327,
      "v": 64
    },
    {
      "midi": 78,
      "hit": false,
      "t": 169666.49700000024,
      "d": 333.33300000001327,
      "v": 64
    },
    {
      "midi": 69,
      "hit": false,
      "t": 169999.83000000025,
      "d": 666.6659999999974,
      "v": 64
    },
    {
      "midi": 74,
      "hit": false,
      "t": 169999.83000000025,
      "d": 666.6659999999974,
      "v": 64
    },
    {
      "midi": 79,
      "hit": false,
      "t": 169999.83000000025,
      "d": 666.6659999999974,
      "v": 64
    },
    {
      "midi": 47,
      "hit": false,
      "t": 169999.8300000005,
      "d": 666.6659999999974,
      "v": 64
    },
    {
      "midi": 69,
      "hit": false,
      "t": 170666.49600000025,
      "d": 666.6659999999974,
      "v": 64
    },
    {
      "midi": 74,
      "hit": false,
      "t": 170666.49600000025,
      "d": 666.6659999999974,
      "v": 64
    },
    {
      "midi": 78,
      "hit": false,
      "t": 170666.49600000025,
      "d": 666.6659999999974,
      "v": 64
    },
    {
      "midi": 50,
      "hit": false,
      "t": 170666.4960000005,
      "d": 999.9990000000107,
      "v": 64
    },
    {
      "midi": 74,
      "hit": false,
      "t": 171333.16200000024,
      "d": 333.33300000001327,
      "v": 64
    },
    {
      "midi": 69,
      "hit": false,
      "t": 171666.49500000026,
      "d": 666.6659999999974,
      "v": 64
    },
    {
      "midi": 74,
      "hit": false,
      "t": 171666.49500000026,
      "d": 666.6659999999974,
      "v": 64
    },
    {
      "midi": 79,
      "hit": false,
      "t": 171666.49500000026,
      "d": 666.6659999999974,
      "v": 64
    },
    {
      "midi": 55,
      "hit": false,
      "t": 171666.49500000052,
      "d": 1333.3319999999949,
      "v": 64
    },
    {
      "midi": 69,
      "hit": false,
      "t": 172333.16100000025,
      "d": 666.6659999999974,
      "v": 64
    },
    {
      "midi": 74,
      "hit": false,
      "t": 172333.16100000025,
      "d": 666.6659999999974,
      "v": 64
    },
    {
      "midi": 78,
      "hit": false,
      "t": 172333.16100000025,
      "d": 666.6659999999974,
      "v": 64
    },
    {
      "midi": 69,
      "hit": false,
      "t": 172999.82700000025,
      "d": 333.33300000001327,
      "v": 64
    },
    {
      "midi": 74,
      "hit": false,
      "t": 172999.82700000025,
      "d": 333.33300000001327,
      "v": 64
    },
    {
      "midi": 76,
      "hit": false,
      "t": 172999.82700000025,
      "d": 333.33300000001327,
      "v": 64
    },
    {
      "midi": 57,
      "hit": false,
      "t": 172999.8270000005,
      "d": 333.33300000001327,
      "v": 64
    },
    {
      "midi": 78,
      "hit": false,
      "t": 174333.15900000028,
      "d": 166.66649999999208,
      "v": 64
    },
    {
      "midi": 78,
      "hit": false,
      "t": 174499.82550000027,
      "d": 166.66649999999208,
      "v": 64
    },
    {
      "midi": 69,
      "hit": false,
      "t": 174666.49200000026,
      "d": 666.6659999999974,
      "v": 64
    },
    {
      "midi": 74,
      "hit": false,
      "t": 174666.49200000026,
      "d": 666.6659999999974,
      "v": 64
    },
    {
      "midi": 78,
      "hit": false,
      "t": 174666.49200000026,
      "d": 666.6659999999974,
      "v": 64
    },
    {
      "midi": 69,
      "hit": false,
      "t": 175333.15800000026,
      "d": 333.33300000001327,
      "v": 64
    },
    {
      "midi": 73,
      "hit": false,
      "t": 175333.15800000026,
      "d": 333.33300000001327,
      "v": 64
    },
    {
      "midi": 76,
      "hit": false,
      "t": 175333.15800000026,
      "d": 333.33300000001327,
      "v": 64
    },
    {
      "midi": 52,
      "hit": false,
      "t": 175333.15800000052,
      "d": 333.33300000001327,
      "v": 64
    },
    {
      "midi": 71,
      "hit": false,
      "t": 175666.49100000027,
      "d": 333.33300000001327,
      "v": 64
    },
    {
      "midi": 74,
      "hit": false,
      "t": 175666.49100000027,
      "d": 333.33300000001327,
      "v": 64
    },
    {
      "midi": 54,
      "hit": false,
      "t": 175666.49100000053,
      "d": 333.33300000001327,
      "v": 64
    },
    {
      "midi": 67,
      "hit": false,
      "t": 175999.82400000028,
      "d": 999.9990000000107,
      "v": 64
    },
    {
      "midi": 69,
      "hit": false,
      "t": 175999.82400000028,
      "d": 999.9990000000107,
      "v": 64
    },
    {
      "midi": 71,
      "hit": false,
      "t": 175999.82400000028,
      "d": 999.9990000000107,
      "v": 64
    },
    {
      "midi": 74,
      "hit": false,
      "t": 175999.82400000028,
      "d": 999.9990000000107,
      "v": 64
    },
    {
      "midi": 55,
      "hit": false,
      "t": 175999.82400000055,
      "d": 1999.9979999999923,
      "v": 64
    },
    {
      "midi": 69,
      "hit": false,
      "t": 176999.8230000003,
      "d": 1333.3319999999949,
      "v": 64
    },
    {
      "midi": 74,
      "hit": false,
      "t": 176999.8230000003,
      "d": 1333.3319999999949,
      "v": 64
    },
    {
      "midi": 59,
      "hit": false,
      "t": 177999.82200000054,
      "d": 666.6659999999974,
      "v": 64
    },
    {
      "midi": 62,
      "hit": false,
      "t": 178666.4880000003,
      "d": 666.6659999999974,
      "v": 64
    },
    {
      "midi": 64,
      "hit": false,
      "t": 178666.4880000003,
      "d": 666.6659999999974,
      "v": 64
    },
    {
      "midi": 69,
      "hit": false,
      "t": 178666.4880000003,
      "d": 666.6659999999974,
      "v": 64
    },
    {
      "midi": 57,
      "hit": false,
      "t": 178666.48800000054,
      "d": 1999.9979999999923,
      "v": 64
    },
    {
      "midi": 69,
      "hit": false,
      "t": 179333.1540000003,
      "d": 333.33300000001327,
      "v": 64
    },
    {
      "midi": 69,
      "hit": false,
      "t": 179666.4870000003,
      "d": 333.33300000001327,
      "v": 64
    },
    {
      "midi": 69,
      "hit": false,
      "t": 179999.82000000033,
      "d": 666.6659999999974,
      "v": 64
    },
    {
      "midi": 78,
      "hit": false,
      "t": 179999.82000000033,
      "d": 666.6659999999974,
      "v": 64
    },
    {
      "midi": 69,
      "hit": false,
      "t": 180666.48600000032,
      "d": 333.33300000001327,
      "v": 64
    },
    {
      "midi": 76,
      "hit": false,
      "t": 180666.48600000032,
      "d": 333.33300000001327,
      "v": 64
    },
    {
      "midi": 57,
      "hit": false,
      "t": 180666.48600000053,
      "d": 666.6659999999974,
      "v": 64
    },
    {
      "midi": 74,
      "hit": false,
      "t": 180999.81900000034,
      "d": 333.33300000001327,
      "v": 64
    },
    {
      "midi": 66,
      "hit": false,
      "t": 181333.15200000035,
      "d": 666.6659999999974,
      "v": 64
    },
    {
      "midi": 69,
      "hit": false,
      "t": 181333.15200000035,
      "d": 666.6659999999974,
      "v": 64
    },
    {
      "midi": 74,
      "hit": false,
      "t": 181333.15200000035,
      "d": 666.6659999999974,
      "v": 64
    },
    {
      "midi": 50,
      "hit": false,
      "t": 181333.15200000053,
      "d": 666.6659999999974,
      "v": 64
    },
    {
      "midi": 74,
      "hit": false,
      "t": 181999.81800000035,
      "d": 333.33300000001327,
      "v": 64
    },
    {
      "midi": 50,
      "hit": false,
      "t": 181999.81800000052,
      "d": 333.33300000001327,
      "v": 64
    },
    {
      "midi": 74,
      "hit": false,
      "t": 182333.15100000036,
      "d": 666.6659999999974,
      "v": 64
    },
    {
      "midi": 50,
      "hit": false,
      "t": 182333.15100000054,
      "d": 333.33300000001327,
      "v": 64
    },
    {
      "midi": 50,
      "hit": false,
      "t": 182666.48400000055,
      "d": 333.33300000001327,
      "v": 64
    },
    {
      "midi": 76,
      "hit": false,
      "t": 182999.81700000036,
      "d": 666.6659999999974,
      "v": 64
    },
    {
      "midi": 50,
      "hit": false,
      "t": 182999.81700000056,
      "d": 333.33300000001327,
      "v": 64
    },
    {
      "midi": 50,
      "hit": false,
      "t": 183333.15000000058,
      "d": 333.33300000001327,
      "v": 64
    },
    {
      "midi": 69,
      "hit": false,
      "t": 183666.48300000036,
      "d": 333.33300000001327,
      "v": 64
    },
    {
      "midi": 74,
      "hit": false,
      "t": 183666.48300000036,
      "d": 333.33300000001327,
      "v": 64
    },
    {
      "midi": 78,
      "hit": false,
      "t": 183666.48300000036,
      "d": 333.33300000001327,
      "v": 64
    },
    {
      "midi": 50,
      "hit": false,
      "t": 183666.4830000006,
      "d": 333.33300000001327,
      "v": 64
    },
    {
      "midi": 50,
      "hit": false,
      "t": 183999.8160000006,
      "d": 333.33300000001327,
      "v": 64
    },
    {
      "midi": 69,
      "hit": false,
      "t": 184333.14900000038,
      "d": 666.6659999999974,
      "v": 64
    },
    {
      "midi": 74,
      "hit": false,
      "t": 184333.14900000038,
      "d": 666.6659999999974,
      "v": 64
    },
    {
      "midi": 79,
      "hit": false,
      "t": 184333.14900000038,
      "d": 666.6659999999974,
      "v": 64
    },
    {
      "midi": 50,
      "hit": false,
      "t": 184333.14900000062,
      "d": 333.33300000001327,
      "v": 64
    },
    {
      "midi": 50,
      "hit": false,
      "t": 184666.48200000063,
      "d": 333.33300000001327,
      "v": 64
    },
    {
      "midi": 69,
      "hit": false,
      "t": 184999.81500000038,
      "d": 999.9990000000107,
      "v": 64
    },
    {
      "midi": 74,
      "hit": false,
      "t": 184999.81500000038,
      "d": 999.9990000000107,
      "v": 64
    },
    {
      "midi": 78,
      "hit": false,
      "t": 184999.81500000038,
      "d": 999.9990000000107,
      "v": 64
    },
    {
      "midi": 50,
      "hit": false,
      "t": 184999.81500000064,
      "d": 333.33300000001327,
      "v": 64
    },
    {
      "midi": 50,
      "hit": false,
      "t": 185333.14800000066,
      "d": 333.33300000001327,
      "v": 64
    },
    {
      "midi": 50,
      "hit": false,
      "t": 185666.48100000067,
      "d": 333.33300000001327,
      "v": 64
    },
    {
      "midi": 69,
      "hit": false,
      "t": 185999.8140000004,
      "d": 333.33300000001327,
      "v": 64
    },
    {
      "midi": 76,
      "hit": false,
      "t": 185999.8140000004,
      "d": 333.33300000001327,
      "v": 64
    },
    {
      "midi": 50,
      "hit": false,
      "t": 185999.81400000068,
      "d": 666.6659999999974,
      "v": 64
    },
    {
      "midi": 69,
      "hit": false,
      "t": 186333.1470000004,
      "d": 333.33300000001327,
      "v": 64
    },
    {
      "midi": 76,
      "hit": false,
      "t": 186333.1470000004,
      "d": 333.33300000001327,
      "v": 64
    },
    {
      "midi": 47,
      "hit": false,
      "t": 186666.48000000068,
      "d": 666.6659999999974,
      "v": 64
    },
    {
      "midi": 66,
      "hit": false,
      "t": 187333.14600000042,
      "d": 333.33300000001327,
      "v": 64
    },
    {
      "midi": 71,
      "hit": false,
      "t": 187333.14600000042,
      "d": 333.33300000001327,
      "v": 64
    },
    {
      "midi": 74,
      "hit": false,
      "t": 187333.14600000042,
      "d": 333.33300000001327,
      "v": 64
    },
    {
      "midi": 47,
      "hit": false,
      "t": 187333.14600000068,
      "d": 333.33300000001327,
      "v": 64
    },
    {
      "midi": 66,
      "hit": false,
      "t": 187666.47900000043,
      "d": 666.6659999999974,
      "v": 64
    },
    {
      "midi": 71,
      "hit": false,
      "t": 187666.47900000043,
      "d": 666.6659999999974,
      "v": 64
    },
    {
      "midi": 74,
      "hit": false,
      "t": 187666.47900000043,
      "d": 666.6659999999974,
      "v": 64
    },
    {
      "midi": 47,
      "hit": false,
      "t": 187666.4790000007,
      "d": 333.33300000001327,
      "v": 64
    },
    {
      "midi": 47,
      "hit": false,
      "t": 187999.8120000007,
      "d": 333.33300000001327,
      "v": 64
    },
    {
      "midi": 76,
      "hit": false,
      "t": 188333.14500000043,
      "d": 666.6659999999974,
      "v": 64
    },
    {
      "midi": 47,
      "hit": false,
      "t": 188333.14500000072,
      "d": 333.33300000001327,
      "v": 64
    },
    {
      "midi": 47,
      "hit": false,
      "t": 188666.47800000073,
      "d": 333.33300000001327,
      "v": 64
    },
    {
      "midi": 71,
      "hit": false,
      "t": 188999.81100000042,
      "d": 333.33300000001327,
      "v": 64
    },
    {
      "midi": 74,
      "hit": false,
      "t": 188999.81100000042,
      "d": 333.33300000001327,
      "v": 64
    },
    {
      "midi": 78,
      "hit": false,
      "t": 188999.81100000042,
      "d": 333.33300000001327,
      "v": 64
    },
    {
      "midi": 47,
      "hit": false,
      "t": 188999.81100000074,
      "d": 333.33300000001327,
      "v": 64
    },
    {
      "midi": 47,
      "hit": false,
      "t": 189333.14400000076,
      "d": 333.33300000001327,
      "v": 64
    },
    {
      "midi": 71,
      "hit": false,
      "t": 189666.47700000045,
      "d": 666.6659999999974,
      "v": 64
    },
    {
      "midi": 74,
      "hit": false,
      "t": 189666.47700000045,
      "d": 666.6659999999974,
      "v": 64
    },
    {
      "midi": 79,
      "hit": false,
      "t": 189666.47700000045,
      "d": 666.6659999999974,
      "v": 64
    },
    {
      "midi": 47,
      "hit": false,
      "t": 189666.47700000077,
      "d": 333.33300000001327,
      "v": 64
    },
    {
      "midi": 47,
      "hit": false,
      "t": 189999.81000000078,
      "d": 333.33300000001327,
      "v": 64
    },
    {
      "midi": 71,
      "hit": false,
      "t": 190333.14300000045,
      "d": 999.9990000000107,
      "v": 64
    },
    {
      "midi": 74,
      "hit": false,
      "t": 190333.14300000045,
      "d": 999.9990000000107,
      "v": 64
    },
    {
      "midi": 78,
      "hit": false,
      "t": 190333.14300000045,
      "d": 999.9990000000107,
      "v": 64
    },
    {
      "midi": 47,
      "hit": false,
      "t": 190333.1430000008,
      "d": 333.33300000001327,
      "v": 64
    },
    {
      "midi": 47,
      "hit": false,
      "t": 190666.4760000008,
      "d": 333.33300000001327,
      "v": 64
    },
    {
      "midi": 47,
      "hit": false,
      "t": 190999.80900000082,
      "d": 333.33300000001327,
      "v": 64
    },
    {
      "midi": 76,
      "hit": false,
      "t": 191333.14200000046,
      "d": 333.33300000001327,
      "v": 64
    },
    {
      "midi": 47,
      "hit": false,
      "t": 191333.14200000084,
      "d": 666.6659999999974,
      "v": 64
    },
    {
      "midi": 76,
      "hit": false,
      "t": 191666.47500000047,
      "d": 333.33300000001327,
      "v": 64
    },
    {
      "midi": 67,
      "hit": false,
      "t": 191999.80800000048,
      "d": 666.6659999999974,
      "v": 64
    },
    {
      "midi": 71,
      "hit": false,
      "t": 191999.80800000048,
      "d": 666.6659999999974,
      "v": 64
    },
    {
      "midi": 43,
      "hit": false,
      "t": 191999.80800000083,
      "d": 666.6659999999974,
      "v": 64
    },
    {
      "midi": 74,
      "hit": false,
      "t": 192666.47400000048,
      "d": 333.33300000001327,
      "v": 64
    },
    {
      "midi": 43,
      "hit": false,
      "t": 192666.47400000083,
      "d": 666.6659999999974,
      "v": 64
    },
    {
      "midi": 74,
      "hit": false,
      "t": 192999.8070000005,
      "d": 666.6659999999974,
      "v": 64
    },
    {
      "midi": 43,
      "hit": false,
      "t": 193333.14000000083,
      "d": 666.6659999999974,
      "v": 64
    },
    {
      "midi": 76,
      "hit": false,
      "t": 193666.4730000005,
      "d": 999.9990000000107,
      "v": 64
    },
    {
      "midi": 43,
      "hit": false,
      "t": 193999.80600000083,
      "d": 666.6659999999974,
      "v": 64
    },
    {
      "midi": 69,
      "hit": false,
      "t": 194666.4720000005,
      "d": 666.6659999999974,
      "v": 64
    },
    {
      "midi": 73,
      "hit": false,
      "t": 194666.4720000005,
      "d": 666.6659999999974,
      "v": 64
    },
    {
      "midi": 78,
      "hit": false,
      "t": 194666.4720000005,
      "d": 666.6659999999974,
      "v": 64
    },
    {
      "midi": 45,
      "hit": false,
      "t": 194666.47200000082,
      "d": 666.6659999999974,
      "v": 64
    },
    {
      "midi": 76,
      "hit": false,
      "t": 195333.1380000005,
      "d": 666.6659999999974,
      "v": 64
    },
    {
      "midi": 45,
      "hit": false,
      "t": 195333.13800000082,
      "d": 666.6659999999974,
      "v": 64
    },
    {
      "midi": 69,
      "hit": false,
      "t": 195999.8040000005,
      "d": 666.6659999999974,
      "v": 64
    },
    {
      "midi": 73,
      "hit": false,
      "t": 195999.8040000005,
      "d": 666.6659999999974,
      "v": 64
    },
    {
      "midi": 76,
      "hit": false,
      "t": 195999.8040000005,
      "d": 666.6659999999974,
      "v": 64
    },
    {
      "midi": 45,
      "hit": false,
      "t": 195999.80400000082,
      "d": 666.6659999999974,
      "v": 64
    },
    {
      "midi": 74,
      "hit": false,
      "t": 196666.4700000005,
      "d": 666.6659999999974,
      "v": 64
    },
    {
      "midi": 45,
      "hit": false,
      "t": 196666.47000000082,
      "d": 666.6659999999974,
      "v": 64
    },
    {
      "midi": 74,
      "hit": false,
      "t": 197333.1360000005,
      "d": 83.33324999999604,
      "v": 64
    },
    {
      "midi": 50,
      "hit": false,
      "t": 197333.1360000008,
      "d": 666.6659999999974,
      "v": 64
    },
    {
      "midi": 74,
      "hit": false,
      "t": 197999.8020000005,
      "d": 333.33300000001327,
      "v": 64
    },
    {
      "midi": 50,
      "hit": false,
      "t": 197999.8020000008,
      "d": 333.33300000001327,
      "v": 64
    },
    {
      "midi": 74,
      "hit": false,
      "t": 198333.1350000005,
      "d": 666.6659999999974,
      "v": 64
    },
    {
      "midi": 50,
      "hit": false,
      "t": 198333.13500000082,
      "d": 333.33300000001327,
      "v": 64
    },
    {
      "midi": 50,
      "hit": false,
      "t": 198666.46800000084,
      "d": 333.33300000001327,
      "v": 64
    },
    {
      "midi": 76,
      "hit": false,
      "t": 198999.8010000005,
      "d": 666.6659999999974,
      "v": 64
    },
    {
      "midi": 50,
      "hit": false,
      "t": 198999.80100000085,
      "d": 333.33300000001327,
      "v": 64
    },
    {
      "midi": 50,
      "hit": false,
      "t": 199333.13400000086,
      "d": 333.33300000001327,
      "v": 64
    },
    {
      "midi": 69,
      "hit": false,
      "t": 199666.4670000005,
      "d": 333.33300000001327,
      "v": 64
    },
    {
      "midi": 74,
      "hit": false,
      "t": 199666.4670000005,
      "d": 333.33300000001327,
      "v": 64
    },
    {
      "midi": 78,
      "hit": false,
      "t": 199666.4670000005,
      "d": 333.33300000001327,
      "v": 64
    },
    {
      "midi": 50,
      "hit": false,
      "t": 199666.46700000088,
      "d": 333.33300000001327,
      "v": 64
    },
    {
      "midi": 50,
      "hit": false,
      "t": 199999.8000000009,
      "d": 333.33300000001327,
      "v": 64
    },
    {
      "midi": 69,
      "hit": false,
      "t": 200333.13300000053,
      "d": 666.6659999999974,
      "v": 64
    },
    {
      "midi": 74,
      "hit": false,
      "t": 200333.13300000053,
      "d": 666.6659999999974,
      "v": 64
    },
    {
      "midi": 79,
      "hit": false,
      "t": 200333.13300000053,
      "d": 666.6659999999974,
      "v": 64
    },
    {
      "midi": 50,
      "hit": false,
      "t": 200333.1330000009,
      "d": 333.33300000001327,
      "v": 64
    },
    {
      "midi": 50,
      "hit": false,
      "t": 200666.46600000092,
      "d": 333.33300000001327,
      "v": 64
    },
    {
      "midi": 69,
      "hit": false,
      "t": 200999.79900000052,
      "d": 999.9990000000107,
      "v": 64
    },
    {
      "midi": 74,
      "hit": false,
      "t": 200999.79900000052,
      "d": 999.9990000000107,
      "v": 64
    },
    {
      "midi": 78,
      "hit": false,
      "t": 200999.79900000052,
      "d": 999.9990000000107,
      "v": 64
    },
    {
      "midi": 50,
      "hit": false,
      "t": 200999.79900000093,
      "d": 333.33300000001327,
      "v": 64
    },
    {
      "midi": 50,
      "hit": false,
      "t": 201333.13200000094,
      "d": 333.33300000001327,
      "v": 64
    },
    {
      "midi": 50,
      "hit": false,
      "t": 201666.46500000096,
      "d": 333.33300000001327,
      "v": 64
    },
    {
      "midi": 69,
      "hit": false,
      "t": 201999.79800000053,
      "d": 333.33300000001327,
      "v": 64
    },
    {
      "midi": 76,
      "hit": false,
      "t": 201999.79800000053,
      "d": 333.33300000001327,
      "v": 64
    },
    {
      "midi": 50,
      "hit": false,
      "t": 201999.79800000097,
      "d": 666.6659999999974,
      "v": 64
    },
    {
      "midi": 69,
      "hit": false,
      "t": 202333.13100000055,
      "d": 333.33300000001327,
      "v": 64
    },
    {
      "midi": 76,
      "hit": false,
      "t": 202333.13100000055,
      "d": 333.33300000001327,
      "v": 64
    },
    {
      "midi": 47,
      "hit": false,
      "t": 202666.46400000097,
      "d": 666.6659999999974,
      "v": 64
    },
    {
      "midi": 66,
      "hit": false,
      "t": 203333.13000000056,
      "d": 333.33300000001327,
      "v": 64
    },
    {
      "midi": 71,
      "hit": false,
      "t": 203333.13000000056,
      "d": 333.33300000001327,
      "v": 64
    },
    {
      "midi": 74,
      "hit": false,
      "t": 203333.13000000056,
      "d": 333.33300000001327,
      "v": 64
    },
    {
      "midi": 47,
      "hit": false,
      "t": 203333.13000000097,
      "d": 333.33300000001327,
      "v": 64
    },
    {
      "midi": 66,
      "hit": false,
      "t": 203666.46300000057,
      "d": 666.6659999999974,
      "v": 64
    },
    {
      "midi": 71,
      "hit": false,
      "t": 203666.46300000057,
      "d": 666.6659999999974,
      "v": 64
    },
    {
      "midi": 74,
      "hit": false,
      "t": 203666.46300000057,
      "d": 666.6659999999974,
      "v": 64
    },
    {
      "midi": 47,
      "hit": false,
      "t": 203666.46300000098,
      "d": 333.33300000001327,
      "v": 64
    },
    {
      "midi": 47,
      "hit": false,
      "t": 203999.796000001,
      "d": 333.33300000001327,
      "v": 64
    },
    {
      "midi": 76,
      "hit": false,
      "t": 204333.12900000057,
      "d": 666.6659999999974,
      "v": 64
    },
    {
      "midi": 47,
      "hit": false,
      "t": 204333.129000001,
      "d": 333.33300000001327,
      "v": 64
    },
    {
      "midi": 47,
      "hit": false,
      "t": 204666.46200000102,
      "d": 333.33300000001327,
      "v": 64
    },
    {
      "midi": 71,
      "hit": false,
      "t": 204999.79500000057,
      "d": 333.33300000001327,
      "v": 64
    },
    {
      "midi": 74,
      "hit": false,
      "t": 204999.79500000057,
      "d": 333.33300000001327,
      "v": 64
    },
    {
      "midi": 78,
      "hit": false,
      "t": 204999.79500000057,
      "d": 333.33300000001327,
      "v": 64
    },
    {
      "midi": 47,
      "hit": false,
      "t": 204999.79500000103,
      "d": 333.33300000001327,
      "v": 64
    },
    {
      "midi": 47,
      "hit": false,
      "t": 205333.12800000104,
      "d": 333.33300000001327,
      "v": 64
    },
    {
      "midi": 71,
      "hit": false,
      "t": 205666.4610000006,
      "d": 666.6659999999974,
      "v": 64
    },
    {
      "midi": 74,
      "hit": false,
      "t": 205666.4610000006,
      "d": 666.6659999999974,
      "v": 64
    },
    {
      "midi": 79,
      "hit": false,
      "t": 205666.4610000006,
      "d": 666.6659999999974,
      "v": 64
    },
    {
      "midi": 47,
      "hit": false,
      "t": 205666.46100000106,
      "d": 333.33300000001327,
      "v": 64
    },
    {
      "midi": 47,
      "hit": false,
      "t": 205999.79400000107,
      "d": 333.33300000001327,
      "v": 64
    },
    {
      "midi": 71,
      "hit": false,
      "t": 206333.1270000006,
      "d": 999.9990000000107,
      "v": 64
    },
    {
      "midi": 74,
      "hit": false,
      "t": 206333.1270000006,
      "d": 999.9990000000107,
      "v": 64
    },
    {
      "midi": 78,
      "hit": false,
      "t": 206333.1270000006,
      "d": 999.9990000000107,
      "v": 64
    },
    {
      "midi": 47,
      "hit": false,
      "t": 206333.12700000108,
      "d": 333.33300000001327,
      "v": 64
    },
    {
      "midi": 47,
      "hit": false,
      "t": 206666.4600000011,
      "d": 333.33300000001327,
      "v": 64
    },
    {
      "midi": 47,
      "hit": false,
      "t": 206999.7930000011,
      "d": 333.33300000001327,
      "v": 64
    },
    {
      "midi": 76,
      "hit": false,
      "t": 207333.1260000006,
      "d": 333.33300000001327,
      "v": 64
    },
    {
      "midi": 47,
      "hit": false,
      "t": 207333.12600000112,
      "d": 666.6659999999974,
      "v": 64
    },
    {
      "midi": 76,
      "hit": false,
      "t": 207666.4590000006,
      "d": 333.33300000001327,
      "v": 64
    },
    {
      "midi": 67,
      "hit": false,
      "t": 207999.79200000063,
      "d": 666.6659999999974,
      "v": 64
    },
    {
      "midi": 71,
      "hit": false,
      "t": 207999.79200000063,
      "d": 666.6659999999974,
      "v": 64
    },
    {
      "midi": 43,
      "hit": false,
      "t": 207999.79200000112,
      "d": 666.6659999999974,
      "v": 64
    },
    {
      "midi": 74,
      "hit": false,
      "t": 208666.45800000062,
      "d": 333.33300000001327,
      "v": 64
    },
    {
      "midi": 43,
      "hit": false,
      "t": 208666.45800000112,
      "d": 666.6659999999974,
      "v": 64
    },
    {
      "midi": 74,
      "hit": false,
      "t": 208999.79100000064,
      "d": 666.6659999999974,
      "v": 64
    },
    {
      "midi": 43,
      "hit": false,
      "t": 209333.12400000112,
      "d": 666.6659999999974,
      "v": 64
    },
    {
      "midi": 76,
      "hit": false,
      "t": 209666.45700000064,
      "d": 999.9990000000107,
      "v": 64
    },
    {
      "midi": 43,
      "hit": false,
      "t": 209999.7900000011,
      "d": 666.6659999999974,
      "v": 64
    },
    {
      "midi": 69,
      "hit": false,
      "t": 210666.45600000065,
      "d": 1333.3319999999949,
      "v": 64
    },
    {
      "midi": 73,
      "hit": false,
      "t": 210666.45600000065,
      "d": 1333.3319999999949,
      "v": 64
    },
    {
      "midi": 78,
      "hit": false,
      "t": 210666.45600000065,
      "d": 1333.3319999999949,
      "v": 64
    },
    {
      "midi": 45,
      "hit": false,
      "t": 210666.4560000011,
      "d": 1333.3319999999949,
      "v": 64
    },
    {
      "midi": 69,
      "hit": false,
      "t": 211999.78800000064,
      "d": 1333.3319999999949,
      "v": 64
    },
    {
      "midi": 73,
      "hit": false,
      "t": 211999.78800000064,
      "d": 1333.3319999999949,
      "v": 64
    },
    {
      "midi": 76,
      "hit": false,
      "t": 211999.78800000064,
      "d": 1333.3319999999949,
      "v": 64
    },
    {
      "midi": 45,
      "hit": false,
      "t": 211999.7880000011,
      "d": 1333.3319999999949,
      "v": 64
    },
    {
      "midi": 74,
      "hit": false,
      "t": 213333.12000000064,
      "d": 83.33324999999604,
      "v": 64
    },
    {
      "midi": 47,
      "hit": false,
      "t": 213333.1200000011,
      "d": 666.6659999999974,
      "v": 64
    },
    {
      "midi": 47,
      "hit": false,
      "t": 213999.7860000011,
      "d": 666.6659999999974,
      "v": 64
    },
    {
      "midi": 74,
      "hit": false,
      "t": 214333.11900000062,
      "d": 333.33300000001327,
      "v": 64
    },
    {
      "midi": 74,
      "hit": false,
      "t": 214666.45200000063,
      "d": 333.33300000001327,
      "v": 64
    },
    {
      "midi": 47,
      "hit": false,
      "t": 214666.4520000011,
      "d": 666.6659999999974,
      "v": 64
    },
    {
      "midi": 73,
      "hit": false,
      "t": 214999.78500000064,
      "d": 333.33300000001327,
      "v": 64
    },
    {
      "midi": 71,
      "hit": false,
      "t": 215333.11800000066,
      "d": 333.33300000001327,
      "v": 64
    },
    {
      "midi": 47,
      "hit": false,
      "t": 215333.1180000011,
      "d": 333.33300000001327,
      "v": 64
    },
    {
      "midi": 73,
      "hit": false,
      "t": 215666.45100000067,
      "d": 333.33300000001327,
      "v": 64
    },
    {
      "midi": 42,
      "hit": false,
      "t": 215666.4510000011,
      "d": 333.33300000001327,
      "v": 64
    },
    {
      "midi": 47,
      "hit": false,
      "t": 215999.78400000112,
      "d": 666.6659999999974,
      "v": 64
    },
    {
      "midi": 74,
      "hit": false,
      "t": 216333.1170000007,
      "d": 666.6659999999974,
      "v": 64
    },
    {
      "midi": 47,
      "hit": false,
      "t": 216666.45000000112,
      "d": 666.6659999999974,
      "v": 64
    },
    {
      "midi": 74,
      "hit": false,
      "t": 216999.7830000007,
      "d": 999.9990000000107,
      "v": 64
    },
    {
      "midi": 47,
      "hit": false,
      "t": 217333.11600000112,
      "d": 666.6659999999974,
      "v": 64
    },
    {
      "midi": 74,
      "hit": false,
      "t": 217999.7820000007,
      "d": 666.6659999999974,
      "v": 64
    },
    {
      "midi": 47,
      "hit": false,
      "t": 217999.7820000011,
      "d": 333.33300000001327,
      "v": 64
    },
    {
      "midi": 50,
      "hit": false,
      "t": 218333.11500000113,
      "d": 333.33300000001327,
      "v": 64
    },
    {
      "midi": 71,
      "hit": false,
      "t": 218666.4480000007,
      "d": 83.33324999999604,
      "v": 64
    },
    {
      "midi": 43,
      "hit": false,
      "t": 218666.44800000114,
      "d": 666.6659999999974,
      "v": 64
    },
    {
      "midi": 43,
      "hit": false,
      "t": 219333.11400000114,
      "d": 666.6659999999974,
      "v": 64
    },
    {
      "midi": 74,
      "hit": false,
      "t": 219666.44700000068,
      "d": 333.33300000001327,
      "v": 64
    },
    {
      "midi": 74,
      "hit": false,
      "t": 219999.7800000007,
      "d": 333.33300000001327,
      "v": 64
    },
    {
      "midi": 43,
      "hit": false,
      "t": 219999.78000000113,
      "d": 666.6659999999974,
      "v": 64
    },
    {
      "midi": 73,
      "hit": false,
      "t": 220333.1130000007,
      "d": 333.33300000001327,
      "v": 64
    },
    {
      "midi": 71,
      "hit": false,
      "t": 220666.44600000072,
      "d": 333.33300000001327,
      "v": 64
    },
    {
      "midi": 43,
      "hit": false,
      "t": 220666.44600000113,
      "d": 333.33300000001327,
      "v": 64
    },
    {
      "midi": 73,
      "hit": false,
      "t": 220999.77900000074,
      "d": 333.33300000001327,
      "v": 64
    },
    {
      "midi": 50,
      "hit": false,
      "t": 220999.77900000114,
      "d": 333.33300000001327,
      "v": 64
    },
    {
      "midi": 55,
      "hit": false,
      "t": 221333.11200000116,
      "d": 666.6659999999974,
      "v": 64
    },
    {
      "midi": 74,
      "hit": false,
      "t": 221666.44500000076,
      "d": 666.6659999999974,
      "v": 64
    },
    {
      "midi": 55,
      "hit": false,
      "t": 221999.77800000116,
      "d": 666.6659999999974,
      "v": 64
    },
    {
      "midi": 74,
      "hit": false,
      "t": 222333.11100000076,
      "d": 999.9990000000107,
      "v": 64
    },
    {
      "midi": 55,
      "hit": false,
      "t": 222666.44400000115,
      "d": 666.6659999999974,
      "v": 64
    },
    {
      "midi": 71,
      "hit": false,
      "t": 223333.11000000077,
      "d": 666.6659999999974,
      "v": 64
    },
    {
      "midi": 74,
      "hit": false,
      "t": 223333.11000000077,
      "d": 666.6659999999974,
      "v": 64
    },
    {
      "midi": 55,
      "hit": false,
      "t": 223333.11000000115,
      "d": 333.33300000001327,
      "v": 64
    },
    {
      "midi": 54,
      "hit": false,
      "t": 223666.44300000116,
      "d": 333.33300000001327,
      "v": 64
    },
    {
      "midi": 67,
      "hit": false,
      "t": 223999.77600000077,
      "d": 999.9990000000107,
      "v": 64
    },
    {
      "midi": 71,
      "hit": false,
      "t": 223999.77600000077,
      "d": 999.9990000000107,
      "v": 64
    },
    {
      "midi": 74,
      "hit": false,
      "t": 223999.77600000077,
      "d": 999.9990000000107,
      "v": 64
    },
    {
      "midi": 52,
      "hit": false,
      "t": 223999.77600000118,
      "d": 666.6659999999974,
      "v": 64
    },
    {
      "midi": 52,
      "hit": false,
      "t": 224666.44200000117,
      "d": 666.6659999999974,
      "v": 64
    },
    {
      "midi": 74,
      "hit": false,
      "t": 224999.77500000078,
      "d": 333.33300000001327,
      "v": 64
    },
    {
      "midi": 74,
      "hit": false,
      "t": 225333.1080000008,
      "d": 333.33300000001327,
      "v": 64
    },
    {
      "midi": 52,
      "hit": false,
      "t": 225333.10800000117,
      "d": 666.6659999999974,
      "v": 64
    },
    {
      "midi": 73,
      "hit": false,
      "t": 225666.4410000008,
      "d": 333.33300000001327,
      "v": 64
    },
    {
      "midi": 71,
      "hit": false,
      "t": 225999.77400000082,
      "d": 333.33300000001327,
      "v": 64
    },
    {
      "midi": 52,
      "hit": false,
      "t": 225999.77400000117,
      "d": 333.33300000001327,
      "v": 64
    },
    {
      "midi": 73,
      "hit": false,
      "t": 226333.10700000083,
      "d": 333.33300000001327,
      "v": 64
    },
    {
      "midi": 40,
      "hit": false,
      "t": 226333.10700000118,
      "d": 333.33300000001327,
      "v": 64
    },
    {
      "midi": 74,
      "hit": false,
      "t": 226999.77300000086,
      "d": 666.6659999999974,
      "v": 64
    },
    {
      "midi": 40,
      "hit": false,
      "t": 227333.1060000012,
      "d": 666.6659999999974,
      "v": 64
    },
    {
      "midi": 74,
      "hit": false,
      "t": 227666.43900000086,
      "d": 666.6659999999974,
      "v": 64
    },
    {
      "midi": 40,
      "hit": false,
      "t": 227999.7720000012,
      "d": 666.6659999999974,
      "v": 64
    },
    {
      "midi": 76,
      "hit": false,
      "t": 228333.10500000085,
      "d": 999.9990000000107,
      "v": 64
    },
    {
      "midi": 45,
      "hit": false,
      "t": 228666.4380000012,
      "d": 333.33300000001327,
      "v": 64
    },
    {
      "midi": 47,
      "hit": false,
      "t": 228999.7710000012,
      "d": 333.33300000001327,
      "v": 64
    },
    {
      "midi": 69,
      "hit": false,
      "t": 229333.10400000087,
      "d": 333.33300000001327,
      "v": 64
    },
    {
      "midi": 74,
      "hit": false,
      "t": 229333.10400000087,
      "d": 333.33300000001327,
      "v": 64
    },
    {
      "midi": 76,
      "hit": false,
      "t": 229333.10400000087,
      "d": 333.33300000001327,
      "v": 64
    },
    {
      "midi": 50,
      "hit": false,
      "t": 229333.1040000012,
      "d": 666.6659999999974,
      "v": 64
    },
    {
      "midi": 78,
      "hit": false,
      "t": 229666.43700000088,
      "d": 333.33300000001327,
      "v": 64
    },
    {
      "midi": 78,
      "hit": false,
      "t": 229999.7700000009,
      "d": 333.33300000001327,
      "v": 64
    },
    {
      "midi": 50,
      "hit": false,
      "t": 229999.7700000012,
      "d": 666.6659999999974,
      "v": 64
    },
    {
      "midi": 69,
      "hit": false,
      "t": 230333.1030000009,
      "d": 999.9990000000107,
      "v": 64
    },
    {
      "midi": 74,
      "hit": false,
      "t": 230333.1030000009,
      "d": 999.9990000000107,
      "v": 64
    },
    {
      "midi": 78,
      "hit": false,
      "t": 230333.1030000009,
      "d": 999.9990000000107,
      "v": 64
    },
    {
      "midi": 50,
      "hit": false,
      "t": 230666.4360000012,
      "d": 666.6659999999974,
      "v": 64
    },
    {
      "midi": 76,
      "hit": false,
      "t": 231333.10200000092,
      "d": 666.6659999999974,
      "v": 64
    },
    {
      "midi": 50,
      "hit": false,
      "t": 231333.1020000012,
      "d": 333.33300000001327,
      "v": 64
    },
    {
      "midi": 45,
      "hit": false,
      "t": 231666.43500000122,
      "d": 333.33300000001327,
      "v": 64
    },
    {
      "midi": 69,
      "hit": false,
      "t": 231999.7680000009,
      "d": 666.6659999999974,
      "v": 64
    },
    {
      "midi": 74,
      "hit": false,
      "t": 231999.7680000009,
      "d": 666.6659999999974,
      "v": 64
    },
    {
      "midi": 76,
      "hit": false,
      "t": 231999.7680000009,
      "d": 666.6659999999974,
      "v": 64
    },
    {
      "midi": 50,
      "hit": false,
      "t": 231999.76800000123,
      "d": 666.6659999999974,
      "v": 64
    },
    {
      "midi": 69,
      "hit": false,
      "t": 232666.4340000009,
      "d": 333.33300000001327,
      "v": 64
    },
    {
      "midi": 74,
      "hit": false,
      "t": 232666.4340000009,
      "d": 333.33300000001327,
      "v": 64
    },
    {
      "midi": 78,
      "hit": false,
      "t": 232666.4340000009,
      "d": 333.33300000001327,
      "v": 64
    },
    {
      "midi": 50,
      "hit": false,
      "t": 232666.43400000123,
      "d": 666.6659999999974,
      "v": 64
    },
    {
      "midi": 69,
      "hit": false,
      "t": 232999.76700000092,
      "d": 1333.3319999999949,
      "v": 64
    },
    {
      "midi": 74,
      "hit": false,
      "t": 232999.76700000092,
      "d": 1333.3319999999949,
      "v": 64
    },
    {
      "midi": 78,
      "hit": false,
      "t": 232999.76700000092,
      "d": 1333.3319999999949,
      "v": 64
    },
    {
      "midi": 50,
      "hit": false,
      "t": 233333.10000000123,
      "d": 666.6659999999974,
      "v": 64
    },
    {
      "midi": 50,
      "hit": false,
      "t": 233999.76600000123,
      "d": 666.6659999999974,
      "v": 64
    },
    {
      "midi": 67,
      "hit": false,
      "t": 234666.43200000093,
      "d": 999.9990000000107,
      "v": 64
    },
    {
      "midi": 71,
      "hit": false,
      "t": 234666.43200000093,
      "d": 999.9990000000107,
      "v": 64
    },
    {
      "midi": 74,
      "hit": false,
      "t": 234666.43200000093,
      "d": 999.9990000000107,
      "v": 64
    },
    {
      "midi": 43,
      "hit": false,
      "t": 234666.43200000122,
      "d": 1999.9979999999923,
      "v": 64
    },
    {
      "midi": 74,
      "hit": false,
      "t": 235666.43100000094,
      "d": 333.33300000001327,
      "v": 64
    },
    {
      "midi": 74,
      "hit": false,
      "t": 235999.76400000096,
      "d": 333.33300000001327,
      "v": 64
    },
    {
      "midi": 76,
      "hit": false,
      "t": 236333.09700000097,
      "d": 333.33300000001327,
      "v": 64
    },
    {
      "midi": 78,
      "hit": false,
      "t": 236666.43000000098,
      "d": 666.6659999999974,
      "v": 64
    },
    {
      "midi": 47,
      "hit": false,
      "t": 236666.43000000122,
      "d": 333.33300000001327,
      "v": 64
    },
    {
      "midi": 49,
      "hit": false,
      "t": 236999.76300000123,
      "d": 333.33300000001327,
      "v": 64
    },
    {
      "midi": 69,
      "hit": false,
      "t": 237333.09600000098,
      "d": 999.9990000000107,
      "v": 64
    },
    {
      "midi": 74,
      "hit": false,
      "t": 237333.09600000098,
      "d": 999.9990000000107,
      "v": 64
    },
    {
      "midi": 78,
      "hit": false,
      "t": 237333.09600000098,
      "d": 999.9990000000107,
      "v": 64
    },
    {
      "midi": 50,
      "hit": false,
      "t": 237333.09600000124,
      "d": 1999.9979999999923,
      "v": 64
    },
    {
      "midi": 74,
      "hit": false,
      "t": 238333.095000001,
      "d": 999.9990000000107,
      "v": 64
    },
    {
      "midi": 78,
      "hit": false,
      "t": 239333.094000001,
      "d": 333.33300000001327,
      "v": 64
    },
    {
      "midi": 50,
      "hit": false,
      "t": 239333.09400000123,
      "d": 333.33300000001327,
      "v": 64
    },
    {
      "midi": 78,
      "hit": false,
      "t": 239666.42700000101,
      "d": 333.33300000001327,
      "v": 64
    },
    {
      "midi": 49,
      "hit": false,
      "t": 239666.42700000125,
      "d": 333.33300000001327,
      "v": 64
    },
    {
      "midi": 69,
      "hit": false,
      "t": 239999.76000000103,
      "d": 666.6659999999974,
      "v": 64
    },
    {
      "midi": 74,
      "hit": false,
      "t": 239999.76000000103,
      "d": 666.6659999999974,
      "v": 64
    },
    {
      "midi": 78,
      "hit": false,
      "t": 239999.76000000103,
      "d": 666.6659999999974,
      "v": 64
    },
    {
      "midi": 47,
      "hit": false,
      "t": 239999.76000000126,
      "d": 1999.9979999999923,
      "v": 64
    },
    {
      "midi": 76,
      "hit": false,
      "t": 240666.42600000103,
      "d": 333.33300000001327,
      "v": 64
    },
    {
      "midi": 76,
      "hit": false,
      "t": 240999.75900000104,
      "d": 666.6659999999974,
      "v": 64
    },
    {
      "midi": 74,
      "hit": false,
      "t": 241666.42500000104,
      "d": 333.33300000001327,
      "v": 64
    },
    {
      "midi": 76,
      "hit": false,
      "t": 241999.75800000105,
      "d": 666.6659999999974,
      "v": 64
    },
    {
      "midi": 42,
      "hit": false,
      "t": 241999.75800000125,
      "d": 666.6659999999974,
      "v": 64
    },
    {
      "midi": 69,
      "hit": false,
      "t": 242666.42400000105,
      "d": 1333.3319999999949,
      "v": 64
    },
    {
      "midi": 74,
      "hit": false,
      "t": 242666.42400000105,
      "d": 1333.3319999999949,
      "v": 64
    },
    {
      "midi": 76,
      "hit": false,
      "t": 242666.42400000105,
      "d": 1333.3319999999949,
      "v": 64
    },
    {
      "midi": 45,
      "hit": false,
      "t": 242666.42400000125,
      "d": 666.6659999999974,
      "v": 64
    },
    {
      "midi": 45,
      "hit": false,
      "t": 243333.09000000125,
      "d": 333.33300000001327,
      "v": 64
    },
    {
      "midi": 45,
      "hit": false,
      "t": 243666.42300000126,
      "d": 333.33300000001327,
      "v": 64
    },
    {
      "midi": 69,
      "hit": false,
      "t": 243999.75600000104,
      "d": 666.6659999999974,
      "v": 64
    },
    {
      "midi": 73,
      "hit": false,
      "t": 243999.75600000104,
      "d": 666.6659999999974,
      "v": 64
    },
    {
      "midi": 57,
      "hit": false,
      "t": 243999.75600000127,
      "d": 666.6659999999974,
      "v": 64
    },
    {
      "midi": 69,
      "hit": false,
      "t": 244666.42200000104,
      "d": 666.6659999999974,
      "v": 64
    },
    {
      "midi": 52,
      "hit": false,
      "t": 244666.42200000127,
      "d": 666.6659999999974,
      "v": 64
    },
    {
      "midi": 67,
      "hit": false,
      "t": 245333.08800000104,
      "d": 999.9990000000107,
      "v": 64
    },
    {
      "midi": 71,
      "hit": false,
      "t": 245333.08800000104,
      "d": 999.9990000000107,
      "v": 64
    },
    {
      "midi": 74,
      "hit": false,
      "t": 245333.08800000104,
      "d": 999.9990000000107,
      "v": 64
    },
    {
      "midi": 43,
      "hit": false,
      "t": 245333.08800000127,
      "d": 1999.9979999999923,
      "v": 64
    },
    {
      "midi": 74,
      "hit": false,
      "t": 246333.08700000105,
      "d": 333.33300000001327,
      "v": 64
    },
    {
      "midi": 74,
      "hit": false,
      "t": 246666.42000000106,
      "d": 333.33300000001327,
      "v": 64
    },
    {
      "midi": 76,
      "hit": false,
      "t": 246999.75300000107,
      "d": 333.33300000001327,
      "v": 64
    },
    {
      "midi": 78,
      "hit": false,
      "t": 247333.0860000011,
      "d": 666.6659999999974,
      "v": 64
    },
    {
      "midi": 43,
      "hit": false,
      "t": 247333.08600000126,
      "d": 666.6659999999974,
      "v": 64
    },
    {
      "midi": 69,
      "hit": false,
      "t": 247999.75200000108,
      "d": 666.6659999999974,
      "v": 64
    },
    {
      "midi": 74,
      "hit": false,
      "t": 247999.75200000108,
      "d": 666.6659999999974,
      "v": 64
    },
    {
      "midi": 78,
      "hit": false,
      "t": 247999.75200000108,
      "d": 666.6659999999974,
      "v": 64
    },
    {
      "midi": 50,
      "hit": false,
      "t": 247999.75200000126,
      "d": 1999.9979999999923,
      "v": 64
    },
    {
      "midi": 76,
      "hit": false,
      "t": 248666.41800000108,
      "d": 666.6659999999974,
      "v": 64
    },
    {
      "midi": 76,
      "hit": false,
      "t": 249333.08400000108,
      "d": 333.33300000001327,
      "v": 64
    },
    {
      "midi": 78,
      "hit": false,
      "t": 249666.4170000011,
      "d": 333.33300000001327,
      "v": 64
    },
    {
      "midi": 78,
      "hit": false,
      "t": 249999.7500000011,
      "d": 333.33300000001327,
      "v": 64
    },
    {
      "midi": 50,
      "hit": false,
      "t": 249999.75000000125,
      "d": 333.33300000001327,
      "v": 64
    },
    {
      "midi": 78,
      "hit": false,
      "t": 250333.08300000112,
      "d": 333.33300000001327,
      "v": 64
    },
    {
      "midi": 49,
      "hit": false,
      "t": 250333.08300000126,
      "d": 333.33300000001327,
      "v": 64
    },
    {
      "midi": 78,
      "hit": false,
      "t": 250666.41600000113,
      "d": 666.6659999999974,
      "v": 64
    },
    {
      "midi": 47,
      "hit": false,
      "t": 250666.41600000128,
      "d": 1999.9979999999923,
      "v": 64
    },
    {
      "midi": 76,
      "hit": false,
      "t": 251333.08200000113,
      "d": 333.33300000001327,
      "v": 64
    },
    {
      "midi": 76,
      "hit": false,
      "t": 251666.41500000114,
      "d": 999.9990000000107,
      "v": 64
    },
    {
      "midi": 74,
      "hit": false,
      "t": 252666.41400000115,
      "d": 666.6659999999974,
      "v": 64
    },
    {
      "midi": 42,
      "hit": false,
      "t": 252666.41400000127,
      "d": 666.6659999999974,
      "v": 64
    },
    {
      "midi": 69,
      "hit": false,
      "t": 253333.08000000115,
      "d": 1333.3319999999949,
      "v": 64
    },
    {
      "midi": 74,
      "hit": false,
      "t": 253333.08000000115,
      "d": 1333.3319999999949,
      "v": 64
    },
    {
      "midi": 76,
      "hit": false,
      "t": 253333.08000000115,
      "d": 1333.3319999999949,
      "v": 64
    },
    {
      "midi": 45,
      "hit": false,
      "t": 253333.08000000127,
      "d": 1999.9979999999923,
      "v": 64
    },
    {
      "midi": 69,
      "hit": false,
      "t": 254666.41200000115,
      "d": 666.6659999999974,
      "v": 64
    },
    {
      "midi": 73,
      "hit": false,
      "t": 254666.41200000115,
      "d": 666.6659999999974,
      "v": 64
    },
    {
      "midi": 69,
      "hit": false,
      "t": 255333.07800000114,
      "d": 666.6659999999974,
      "v": 64
    },
    {
      "midi": 49,
      "hit": false,
      "t": 255333.07800000126,
      "d": 333.33300000001327,
      "v": 64
    },
    {
      "midi": 50,
      "hit": false,
      "t": 255666.41100000127,
      "d": 333.33300000001327,
      "v": 64
    },
    {
      "midi": 67,
      "hit": false,
      "t": 255999.74400000114,
      "d": 999.9990000000107,
      "v": 64
    },
    {
      "midi": 71,
      "hit": false,
      "t": 255999.74400000114,
      "d": 999.9990000000107,
      "v": 64
    },
    {
      "midi": 76,
      "hit": false,
      "t": 255999.74400000114,
      "d": 999.9990000000107,
      "v": 64
    },
    {
      "midi": 52,
      "hit": false,
      "t": 255999.7440000013,
      "d": 666.6659999999974,
      "v": 64
    },
    {
      "midi": 52,
      "hit": false,
      "t": 256666.41000000128,
      "d": 333.33300000001327,
      "v": 64
    },
    {
      "midi": 76,
      "hit": false,
      "t": 256999.74300000115,
      "d": 333.33300000001327,
      "v": 64
    },
    {
      "midi": 52,
      "hit": false,
      "t": 256999.7430000013,
      "d": 333.33300000001327,
      "v": 64
    },
    {
      "midi": 76,
      "hit": false,
      "t": 257333.07600000117,
      "d": 333.33300000001327,
      "v": 64
    },
    {
      "midi": 52,
      "hit": false,
      "t": 257333.0760000013,
      "d": 333.33300000001327,
      "v": 64
    },
    {
      "midi": 76,
      "hit": false,
      "t": 257666.40900000118,
      "d": 333.33300000001327,
      "v": 64
    },
    {
      "midi": 52,
      "hit": false,
      "t": 257666.40900000132,
      "d": 333.33300000001327,
      "v": 64
    },
    {
      "midi": 76,
      "hit": false,
      "t": 257999.7420000012,
      "d": 333.33300000001327,
      "v": 64
    },
    {
      "midi": 52,
      "hit": false,
      "t": 257999.74200000134,
      "d": 333.33300000001327,
      "v": 64
    },
    {
      "midi": 67,
      "hit": false,
      "t": 258333.0750000012,
      "d": 333.33300000001327,
      "v": 64
    },
    {
      "midi": 71,
      "hit": false,
      "t": 258333.0750000012,
      "d": 333.33300000001327,
      "v": 64
    },
    {
      "midi": 78,
      "hit": false,
      "t": 258333.0750000012,
      "d": 333.33300000001327,
      "v": 64
    },
    {
      "midi": 52,
      "hit": false,
      "t": 258333.07500000135,
      "d": 333.33300000001327,
      "v": 64
    },
    {
      "midi": 52,
      "hit": false,
      "t": 258666.40800000136,
      "d": 333.33300000001327,
      "v": 64
    },
    {
      "midi": 67,
      "hit": false,
      "t": 258999.74100000123,
      "d": 333.33300000001327,
      "v": 64
    },
    {
      "midi": 71,
      "hit": false,
      "t": 258999.74100000123,
      "d": 333.33300000001327,
      "v": 64
    },
    {
      "midi": 76,
      "hit": false,
      "t": 258999.74100000123,
      "d": 333.33300000001327,
      "v": 64
    },
    {
      "midi": 52,
      "hit": false,
      "t": 258999.74100000138,
      "d": 333.33300000001327,
      "v": 64
    },
    {
      "midi": 76,
      "hit": false,
      "t": 259333.07400000124,
      "d": 333.33300000001327,
      "v": 64
    },
    {
      "midi": 52,
      "hit": false,
      "t": 259333.0740000014,
      "d": 333.33300000001327,
      "v": 64
    },
    {
      "midi": 67,
      "hit": false,
      "t": 259666.40700000126,
      "d": 666.6659999999974,
      "v": 64
    },
    {
      "midi": 71,
      "hit": false,
      "t": 259666.40700000126,
      "d": 666.6659999999974,
      "v": 64
    },
    {
      "midi": 78,
      "hit": false,
      "t": 259666.40700000126,
      "d": 666.6659999999974,
      "v": 64
    },
    {
      "midi": 40,
      "hit": false,
      "t": 259666.4070000014,
      "d": 666.6659999999974,
      "v": 64
    },
    {
      "midi": 71,
      "hit": false,
      "t": 260333.07300000126,
      "d": 999.9990000000107,
      "v": 64
    },
    {
      "midi": 76,
      "hit": false,
      "t": 260333.07300000126,
      "d": 999.9990000000107,
      "v": 64
    },
    {
      "midi": 79,
      "hit": false,
      "t": 260333.07300000126,
      "d": 999.9990000000107,
      "v": 64
    },
    {
      "midi": 40,
      "hit": false,
      "t": 260333.0730000014,
      "d": 999.9990000000107,
      "v": 64
    },
    {
      "midi": 67,
      "hit": false,
      "t": 261333.07200000127,
      "d": 999.9990000000107,
      "v": 64
    },
    {
      "midi": 70,
      "hit": false,
      "t": 261333.07200000127,
      "d": 999.9990000000107,
      "v": 64
    },
    {
      "midi": 73,
      "hit": false,
      "t": 261333.07200000127,
      "d": 999.9990000000107,
      "v": 64
    },
    {
      "midi": 49,
      "hit": false,
      "t": 261333.0720000014,
      "d": 666.6659999999974,
      "v": 64
    },
    {
      "midi": 49,
      "hit": false,
      "t": 261999.7380000014,
      "d": 333.33299999998417,
      "v": 64
    },
    {
      "midi": 76,
      "hit": false,
      "t": 262333.0710000013,
      "d": 333.33299999998417,
      "v": 64
    },
    {
      "midi": 49,
      "hit": false,
      "t": 262333.0710000014,
      "d": 333.33299999998417,
      "v": 64
    },
    {
      "midi": 76,
      "hit": false,
      "t": 262666.40400000126,
      "d": 333.33299999998417,
      "v": 64
    },
    {
      "midi": 49,
      "hit": false,
      "t": 262666.4040000014,
      "d": 333.33299999998417,
      "v": 64
    },
    {
      "midi": 76,
      "hit": false,
      "t": 262999.73700000125,
      "d": 333.33299999998417,
      "v": 64
    },
    {
      "midi": 49,
      "hit": false,
      "t": 262999.73700000136,
      "d": 333.33299999998417,
      "v": 64
    },
    {
      "midi": 76,
      "hit": false,
      "t": 263333.07000000123,
      "d": 333.33299999998417,
      "v": 64
    },
    {
      "midi": 49,
      "hit": false,
      "t": 263333.07000000135,
      "d": 333.33299999998417,
      "v": 64
    },
    {
      "midi": 70,
      "hit": false,
      "t": 263666.4030000012,
      "d": 333.33299999998417,
      "v": 64
    },
    {
      "midi": 73,
      "hit": false,
      "t": 263666.4030000012,
      "d": 333.33299999998417,
      "v": 64
    },
    {
      "midi": 78,
      "hit": false,
      "t": 263666.4030000012,
      "d": 333.33299999998417,
      "v": 64
    },
    {
      "midi": 49,
      "hit": false,
      "t": 263666.40300000133,
      "d": 333.33299999998417,
      "v": 64
    },
    {
      "midi": 49,
      "hit": false,
      "t": 263999.7360000013,
      "d": 333.33299999998417,
      "v": 64
    },
    {
      "midi": 49,
      "hit": false,
      "t": 264333.0690000013,
      "d": 333.33299999998417,
      "v": 64
    },
    {
      "midi": 76,
      "hit": false,
      "t": 264666.4020000012,
      "d": 333.33299999998417,
      "v": 64
    },
    {
      "midi": 49,
      "hit": false,
      "t": 264666.4020000013,
      "d": 333.33299999998417,
      "v": 64
    },
    {
      "midi": 78,
      "hit": false,
      "t": 264999.7350000012,
      "d": 666.6660000000265,
      "v": 64
    },
    {
      "midi": 52,
      "hit": false,
      "t": 264999.73500000127,
      "d": 666.6660000000265,
      "v": 64
    },
    {
      "midi": 79,
      "hit": false,
      "t": 265666.40100000123,
      "d": 999.9990000000107,
      "v": 64
    },
    {
      "midi": 49,
      "hit": false,
      "t": 265666.4010000013,
      "d": 333.33299999998417,
      "v": 64
    },
    {
      "midi": 47,
      "hit": false,
      "t": 265999.7340000013,
      "d": 333.33299999998417,
      "v": 64
    },
    {
      "midi": 45,
      "hit": false,
      "t": 266333.06700000126,
      "d": 333.33299999998417,
      "v": 64
    },
    {
      "midi": 67,
      "hit": false,
      "t": 266666.40000000125,
      "d": 999.9990000000107,
      "v": 64
    },
    {
      "midi": 71,
      "hit": false,
      "t": 266666.40000000125,
      "d": 999.9990000000107,
      "v": 64
    },
    {
      "midi": 74,
      "hit": false,
      "t": 266666.40000000125,
      "d": 999.9990000000107,
      "v": 64
    },
    {
      "midi": 43,
      "hit": false,
      "t": 266666.40000000125,
      "d": 666.6660000000265,
      "v": 64
    },
    {
      "midi": 43,
      "hit": false,
      "t": 267333.0660000013,
      "d": 333.33299999998417,
      "v": 64
    },
    {
      "midi": 79,
      "hit": false,
      "t": 267666.39900000126,
      "d": 333.33299999998417,
      "v": 64
    },
    {
      "midi": 43,
      "hit": false,
      "t": 267666.39900000126,
      "d": 333.33299999998417,
      "v": 64
    },
    {
      "midi": 71,
      "hit": false,
      "t": 267999.73200000124,
      "d": 333.33299999998417,
      "v": 64
    },
    {
      "midi": 74,
      "hit": false,
      "t": 267999.73200000124,
      "d": 333.33299999998417,
      "v": 64
    },
    {
      "midi": 79,
      "hit": false,
      "t": 267999.73200000124,
      "d": 333.33299999998417,
      "v": 64
    },
    {
      "midi": 43,
      "hit": false,
      "t": 267999.73200000124,
      "d": 333.33299999998417,
      "v": 64
    },
    {
      "midi": 79,
      "hit": false,
      "t": 268333.0650000012,
      "d": 333.33299999998417,
      "v": 64
    },
    {
      "midi": 43,
      "hit": false,
      "t": 268333.0650000012,
      "d": 333.33299999998417,
      "v": 64
    },
    {
      "midi": 79,
      "hit": false,
      "t": 268666.3980000012,
      "d": 333.33299999998417,
      "v": 64
    },
    {
      "midi": 43,
      "hit": false,
      "t": 268666.3980000012,
      "d": 333.33299999998417,
      "v": 64
    },
    {
      "midi": 71,
      "hit": false,
      "t": 268999.7310000012,
      "d": 333.33299999998417,
      "v": 64
    },
    {
      "midi": 74,
      "hit": false,
      "t": 268999.7310000012,
      "d": 333.33299999998417,
      "v": 64
    },
    {
      "midi": 81,
      "hit": false,
      "t": 268999.7310000012,
      "d": 333.33299999998417,
      "v": 64
    },
    {
      "midi": 43,
      "hit": false,
      "t": 268999.7310000012,
      "d": 333.33299999998417,
      "v": 64
    },
    {
      "midi": 43,
      "hit": false,
      "t": 269333.0640000012,
      "d": 333.33299999998417,
      "v": 64
    },
    {
      "midi": 43,
      "hit": false,
      "t": 269666.39700000116,
      "d": 333.33299999998417,
      "v": 64
    },
    {
      "midi": 43,
      "hit": false,
      "t": 269999.73000000115,
      "d": 333.33299999998417,
      "v": 64
    },
    {
      "midi": 79,
      "hit": false,
      "t": 269999.7300000012,
      "d": 666.6660000000265,
      "v": 64
    },
    {
      "midi": 43,
      "hit": false,
      "t": 270333.06300000113,
      "d": 333.33299999998417,
      "v": 64
    },
    {
      "midi": 43,
      "hit": false,
      "t": 270666.3960000011,
      "d": 333.33299999998417,
      "v": 64
    },
    {
      "midi": 71,
      "hit": false,
      "t": 270666.39600000123,
      "d": 666.6660000000265,
      "v": 64
    },
    {
      "midi": 74,
      "hit": false,
      "t": 270666.39600000123,
      "d": 666.6660000000265,
      "v": 64
    },
    {
      "midi": 78,
      "hit": false,
      "t": 270666.39600000123,
      "d": 666.6660000000265,
      "v": 64
    },
    {
      "midi": 43,
      "hit": false,
      "t": 270999.7290000011,
      "d": 333.33299999998417,
      "v": 64
    },
    {
      "midi": 43,
      "hit": false,
      "t": 271333.0620000011,
      "d": 666.6660000000265,
      "v": 64
    },
    {
      "midi": 71,
      "hit": false,
      "t": 271333.06200000126,
      "d": 666.6660000000265,
      "v": 64
    },
    {
      "midi": 74,
      "hit": false,
      "t": 271333.06200000126,
      "d": 666.6660000000265,
      "v": 64
    },
    {
      "midi": 79,
      "hit": false,
      "t": 271333.06200000126,
      "d": 666.6660000000265,
      "v": 64
    },
    {
      "midi": 57,
      "hit": false,
      "t": 271999.7280000011,
      "d": 333.33299999998417,
      "v": 64
    },
    {
      "midi": 79,
      "hit": false,
      "t": 271999.7280000013,
      "d": 83.33325000002515,
      "v": 64
    },
    {
      "midi": 55,
      "hit": false,
      "t": 272333.0610000011,
      "d": 333.33299999998417,
      "v": 64
    },
    {
      "midi": 54,
      "hit": false,
      "t": 272666.3940000011,
      "d": 333.33299999998417,
      "v": 64
    },
    {
      "midi": 52,
      "hit": false,
      "t": 272999.72700000106,
      "d": 333.33299999998417,
      "v": 64
    },
    {
      "midi": 79,
      "hit": false,
      "t": 272999.7270000013,
      "d": 333.33299999998417,
      "v": 64
    },
    {
      "midi": 57,
      "hit": false,
      "t": 273333.06000000105,
      "d": 333.33299999998417,
      "v": 64
    },
    {
      "midi": 79,
      "hit": false,
      "t": 273333.0600000013,
      "d": 333.33299999998417,
      "v": 64
    },
    {
      "midi": 55,
      "hit": false,
      "t": 273666.39300000103,
      "d": 333.33299999998417,
      "v": 64
    },
    {
      "midi": 79,
      "hit": false,
      "t": 273666.39300000126,
      "d": 333.33299999998417,
      "v": 64
    },
    {
      "midi": 54,
      "hit": false,
      "t": 273999.726000001,
      "d": 333.33299999998417,
      "v": 64
    },
    {
      "midi": 79,
      "hit": false,
      "t": 273999.72600000125,
      "d": 333.33299999998417,
      "v": 64
    },
    {
      "midi": 52,
      "hit": false,
      "t": 274333.059000001,
      "d": 333.33299999998417,
      "v": 64
    },
    {
      "midi": 81,
      "hit": false,
      "t": 274333.05900000123,
      "d": 333.33299999998417,
      "v": 64
    },
    {
      "midi": 57,
      "hit": false,
      "t": 274666.392000001,
      "d": 333.33299999998417,
      "v": 64
    },
    {
      "midi": 55,
      "hit": false,
      "t": 274999.72500000097,
      "d": 333.33299999998417,
      "v": 64
    },
    {
      "midi": 79,
      "hit": false,
      "t": 274999.7250000012,
      "d": 666.6660000000265,
      "v": 64
    },
    {
      "midi": 54,
      "hit": false,
      "t": 275333.05800000095,
      "d": 333.33299999998417,
      "v": 64
    },
    {
      "midi": 52,
      "hit": false,
      "t": 275666.39100000093,
      "d": 333.33299999998417,
      "v": 64
    },
    {
      "midi": 76,
      "hit": false,
      "t": 275666.3910000012,
      "d": 333.33299999998417,
      "v": 64
    },
    {
      "midi": 57,
      "hit": false,
      "t": 275999.7240000009,
      "d": 333.33299999998417,
      "v": 64
    },
    {
      "midi": 76,
      "hit": false,
      "t": 275999.7240000012,
      "d": 333.33299999998417,
      "v": 64
    },
    {
      "midi": 45,
      "hit": false,
      "t": 276333.0570000009,
      "d": 333.33299999998417,
      "v": 64
    },
    {
      "midi": 78,
      "hit": false,
      "t": 276333.0570000012,
      "d": 333.33299999998417,
      "v": 64
    },
    {
      "midi": 47,
      "hit": false,
      "t": 276666.3900000009,
      "d": 333.33299999998417,
      "v": 64
    },
    {
      "midi": 79,
      "hit": false,
      "t": 276666.3900000012,
      "d": 666.6660000000265,
      "v": 64
    },
    {
      "midi": 49,
      "hit": false,
      "t": 276999.7230000009,
      "d": 333.33299999998417,
      "v": 64
    },
    {
      "midi": 50,
      "hit": false,
      "t": 277333.05600000086,
      "d": 999.9990000000107,
      "v": 64
    },
    {
      "midi": 69,
      "hit": false,
      "t": 277333.0560000012,
      "d": 666.6660000000265,
      "v": 64
    },
    {
      "midi": 74,
      "hit": false,
      "t": 277333.0560000012,
      "d": 666.6660000000265,
      "v": 64
    },
    {
      "midi": 78,
      "hit": false,
      "t": 277333.0560000012,
      "d": 666.6660000000265,
      "v": 64
    },
    {
      "midi": 74,
      "hit": false,
      "t": 277999.72200000123,
      "d": 333.33299999998417,
      "v": 64
    },
    {
      "midi": 55,
      "hit": false,
      "t": 278333.05500000087,
      "d": 1333.3319999999949,
      "v": 64
    },
    {
      "midi": 69,
      "hit": false,
      "t": 278333.0550000012,
      "d": 666.6660000000265,
      "v": 64
    },
    {
      "midi": 74,
      "hit": false,
      "t": 278333.0550000012,
      "d": 666.6660000000265,
      "v": 64
    },
    {
      "midi": 79,
      "hit": false,
      "t": 278333.0550000012,
      "d": 666.6660000000265,
      "v": 64
    },
    {
      "midi": 69,
      "hit": false,
      "t": 278999.72100000124,
      "d": 666.6660000000265,
      "v": 64
    },
    {
      "midi": 74,
      "hit": false,
      "t": 278999.72100000124,
      "d": 666.6660000000265,
      "v": 64
    },
    {
      "midi": 78,
      "hit": false,
      "t": 278999.72100000124,
      "d": 666.6660000000265,
      "v": 64
    },
    {
      "midi": 57,
      "hit": false,
      "t": 279666.38700000086,
      "d": 333.33299999998417,
      "v": 64
    },
    {
      "midi": 69,
      "hit": false,
      "t": 279666.38700000127,
      "d": 333.33299999998417,
      "v": 64
    },
    {
      "midi": 74,
      "hit": false,
      "t": 279666.38700000127,
      "d": 333.33299999998417,
      "v": 64
    },
    {
      "midi": 76,
      "hit": false,
      "t": 279666.38700000127,
      "d": 333.33299999998417,
      "v": 64
    },
    {
      "midi": 69,
      "hit": false,
      "t": 280333.05300000124,
      "d": 333.33299999998417,
      "v": 64
    },
    {
      "midi": 76,
      "hit": false,
      "t": 280333.05300000124,
      "d": 333.33299999998417,
      "v": 64
    },
    {
      "midi": 69,
      "hit": false,
      "t": 280666.3860000012,
      "d": 333.33299999998417,
      "v": 64
    },
    {
      "midi": 76,
      "hit": false,
      "t": 280666.3860000012,
      "d": 333.33299999998417,
      "v": 64
    },
    {
      "midi": 69,
      "hit": false,
      "t": 280999.7190000012,
      "d": 333.33299999998417,
      "v": 64
    },
    {
      "midi": 76,
      "hit": false,
      "t": 280999.7190000012,
      "d": 333.33299999998417,
      "v": 64
    },
    {
      "midi": 69,
      "hit": false,
      "t": 281333.0520000012,
      "d": 333.33299999998417,
      "v": 64
    },
    {
      "midi": 74,
      "hit": false,
      "t": 281333.0520000012,
      "d": 333.33299999998417,
      "v": 64
    },
    {
      "midi": 76,
      "hit": false,
      "t": 281333.0520000012,
      "d": 333.33299999998417,
      "v": 64
    },
    {
      "midi": 69,
      "hit": false,
      "t": 281666.3850000012,
      "d": 333.33299999998417,
      "v": 64
    },
    {
      "midi": 74,
      "hit": false,
      "t": 281666.3850000012,
      "d": 333.33299999998417,
      "v": 64
    },
    {
      "midi": 78,
      "hit": false,
      "t": 281666.3850000012,
      "d": 333.33299999998417,
      "v": 64
    },
    {
      "midi": 52,
      "hit": false,
      "t": 281999.71800000087,
      "d": 333.33299999998417,
      "v": 64
    },
    {
      "midi": 69,
      "hit": false,
      "t": 281999.71800000116,
      "d": 666.6660000000265,
      "v": 64
    },
    {
      "midi": 74,
      "hit": false,
      "t": 281999.71800000116,
      "d": 666.6660000000265,
      "v": 64
    },
    {
      "midi": 79,
      "hit": false,
      "t": 281999.71800000116,
      "d": 666.6660000000265,
      "v": 64
    },
    {
      "midi": 54,
      "hit": false,
      "t": 282333.05100000085,
      "d": 333.33299999998417,
      "v": 64
    },
    {
      "midi": 50,
      "hit": false,
      "t": 282666.38400000083,
      "d": 999.9990000000107,
      "v": 64
    },
    {
      "midi": 78,
      "hit": false,
      "t": 282666.3840000012,
      "d": 666.6660000000265,
      "v": 64
    },
    {
      "midi": 74,
      "hit": false,
      "t": 283333.0500000012,
      "d": 333.33299999998417,
      "v": 64
    },
    {
      "midi": 55,
      "hit": false,
      "t": 283666.38300000085,
      "d": 1333.3319999999949,
      "v": 64
    },
    {
      "midi": 69,
      "hit": false,
      "t": 283666.3830000012,
      "d": 666.6660000000265,
      "v": 64
    },
    {
      "midi": 74,
      "hit": false,
      "t": 283666.3830000012,
      "d": 666.6660000000265,
      "v": 64
    },
    {
      "midi": 79,
      "hit": false,
      "t": 283666.3830000012,
      "d": 666.6660000000265,
      "v": 64
    },
    {
      "midi": 81,
      "hit": false,
      "t": 284333.0490000012,
      "d": 666.6660000000265,
      "v": 64
    },
    {
      "midi": 52,
      "hit": false,
      "t": 284999.71500000084,
      "d": 333.33299999998417,
      "v": 64
    },
    {
      "midi": 74,
      "hit": false,
      "t": 284999.71500000125,
      "d": 333.33299999998417,
      "v": 64
    },
    {
      "midi": 76,
      "hit": false,
      "t": 284999.71500000125,
      "d": 333.33299999998417,
      "v": 64
    },
    {
      "midi": 81,
      "hit": false,
      "t": 284999.71500000125,
      "d": 333.33299999998417,
      "v": 64
    },
    {
      "midi": 52,
      "hit": false,
      "t": 286333.04700000084,
      "d": 999.9990000000107,
      "v": 64
    },
    {
      "midi": 76,
      "hit": false,
      "t": 286333.04700000124,
      "d": 333.33299999998417,
      "v": 64
    },
    {
      "midi": 69,
      "hit": false,
      "t": 286666.3800000012,
      "d": 333.33299999998417,
      "v": 64
    },
    {
      "midi": 74,
      "hit": false,
      "t": 286666.3800000012,
      "d": 333.33299999998417,
      "v": 64
    },
    {
      "midi": 76,
      "hit": false,
      "t": 286666.3800000012,
      "d": 333.33299999998417,
      "v": 64
    },
    {
      "midi": 78,
      "hit": false,
      "t": 286999.7130000012,
      "d": 333.33299999998417,
      "v": 64
    },
    {
      "midi": 47,
      "hit": false,
      "t": 287333.04600000085,
      "d": 666.6660000000265,
      "v": 64
    },
    {
      "midi": 69,
      "hit": false,
      "t": 287333.0460000012,
      "d": 666.6660000000265,
      "v": 64
    },
    {
      "midi": 74,
      "hit": false,
      "t": 287333.0460000012,
      "d": 666.6660000000265,
      "v": 64
    },
    {
      "midi": 79,
      "hit": false,
      "t": 287333.0460000012,
      "d": 666.6660000000265,
      "v": 64
    },
    {
      "midi": 50,
      "hit": false,
      "t": 287999.7120000009,
      "d": 999.9990000000107,
      "v": 64
    },
    {
      "midi": 69,
      "hit": false,
      "t": 287999.7120000012,
      "d": 666.6660000000265,
      "v": 64
    },
    {
      "midi": 74,
      "hit": false,
      "t": 287999.7120000012,
      "d": 666.6660000000265,
      "v": 64
    },
    {
      "midi": 78,
      "hit": false,
      "t": 287999.7120000012,
      "d": 666.6660000000265,
      "v": 64
    },
    {
      "midi": 74,
      "hit": false,
      "t": 288666.37800000125,
      "d": 333.33299999998417,
      "v": 64
    },
    {
      "midi": 55,
      "hit": false,
      "t": 288999.7110000009,
      "d": 1333.3319999999949,
      "v": 64
    },
    {
      "midi": 69,
      "hit": false,
      "t": 288999.71100000123,
      "d": 666.6660000000265,
      "v": 64
    },
    {
      "midi": 74,
      "hit": false,
      "t": 288999.71100000123,
      "d": 666.6660000000265,
      "v": 64
    },
    {
      "midi": 79,
      "hit": false,
      "t": 288999.71100000123,
      "d": 666.6660000000265,
      "v": 64
    },
    {
      "midi": 69,
      "hit": false,
      "t": 289666.37700000126,
      "d": 666.6660000000265,
      "v": 64
    },
    {
      "midi": 74,
      "hit": false,
      "t": 289666.37700000126,
      "d": 666.6660000000265,
      "v": 64
    },
    {
      "midi": 78,
      "hit": false,
      "t": 289666.37700000126,
      "d": 666.6660000000265,
      "v": 64
    },
    {
      "midi": 57,
      "hit": false,
      "t": 290333.0430000009,
      "d": 333.33299999998417,
      "v": 64
    },
    {
      "midi": 69,
      "hit": false,
      "t": 290333.0430000013,
      "d": 333.33299999998417,
      "v": 64
    },
    {
      "midi": 74,
      "hit": false,
      "t": 290333.0430000013,
      "d": 333.33299999998417,
      "v": 64
    },
    {
      "midi": 76,
      "hit": false,
      "t": 290333.0430000013,
      "d": 333.33299999998417,
      "v": 64
    },
    {
      "midi": 78,
      "hit": false,
      "t": 291666.3750000013,
      "d": 166.66649999999208,
      "v": 64
    },
    {
      "midi": 78,
      "hit": false,
      "t": 291833.0415000013,
      "d": 166.66649999999208,
      "v": 64
    },
    {
      "midi": 69,
      "hit": false,
      "t": 291999.70800000126,
      "d": 666.6660000000265,
      "v": 64
    },
    {
      "midi": 74,
      "hit": false,
      "t": 291999.70800000126,
      "d": 666.6660000000265,
      "v": 64
    },
    {
      "midi": 78,
      "hit": false,
      "t": 291999.70800000126,
      "d": 666.6660000000265,
      "v": 64
    },
    {
      "midi": 52,
      "hit": false,
      "t": 292666.3740000009,
      "d": 333.33299999998417,
      "v": 64
    },
    {
      "midi": 69,
      "hit": false,
      "t": 292666.3740000013,
      "d": 333.33299999998417,
      "v": 64
    },
    {
      "midi": 73,
      "hit": false,
      "t": 292666.3740000013,
      "d": 333.33299999998417,
      "v": 64
    },
    {
      "midi": 76,
      "hit": false,
      "t": 292666.3740000013,
      "d": 333.33299999998417,
      "v": 64
    },
    {
      "midi": 54,
      "hit": false,
      "t": 292999.70700000087,
      "d": 333.33299999998417,
      "v": 64
    },
    {
      "midi": 71,
      "hit": false,
      "t": 292999.7070000013,
      "d": 333.33299999998417,
      "v": 64
    },
    {
      "midi": 74,
      "hit": false,
      "t": 292999.7070000013,
      "d": 333.33299999998417,
      "v": 64
    },
    {
      "midi": 50,
      "hit": false,
      "t": 293333.04000000085,
      "d": 999.9990000000107,
      "v": 64
    },
    {
      "midi": 67,
      "hit": false,
      "t": 293333.04000000126,
      "d": 333.33299999998417,
      "v": 64
    },
    {
      "midi": 76,
      "hit": false,
      "t": 293333.04000000126,
      "d": 333.33299999998417,
      "v": 64
    },
    {
      "midi": 66,
      "hit": false,
      "t": 293666.37300000124,
      "d": 666.6660000000265,
      "v": 64
    },
    {
      "midi": 69,
      "hit": false,
      "t": 293666.37300000124,
      "d": 666.6660000000265,
      "v": 64
    },
    {
      "midi": 74,
      "hit": false,
      "t": 293666.37300000124,
      "d": 666.6660000000265,
      "v": 64
    },
    {
      "midi": 50,
      "hit": false,
      "t": 294333.03900000086,
      "d": 999.9990000000107,
      "v": 64
    },
    {
      "midi": 66,
      "hit": false,
      "t": 294333.03900000127,
      "d": 999.9990000000107,
      "v": 64
    },
    {
      "midi": 69,
      "hit": false,
      "t": 294333.03900000127,
      "d": 999.9990000000107,
      "v": 64
    },
    {
      "midi": 74,
      "hit": false,
      "t": 294333.03900000127,
      "d": 999.9990000000107,
      "v": 64
    },
    {
      "midi": 45,
      "hit": false,
      "t": 295333.0380000009,
      "d": 666.6660000000265,
      "v": 64
    },
    {
      "midi": 64,
      "hit": false,
      "t": 295333.0380000013,
      "d": 666.6660000000265,
      "v": 64
    },
    {
      "midi": 69,
      "hit": false,
      "t": 295333.0380000013,
      "d": 666.6660000000265,
      "v": 64
    },
    {
      "midi": 73,
      "hit": false,
      "t": 295333.0380000013,
      "d": 666.6660000000265,
      "v": 64
    },
    {
      "midi": 43,
      "hit": false,
      "t": 295999.7040000009,
      "d": 1999.9980000000214,
      "v": 64
    },
    {
      "midi": 62,
      "hit": false,
      "t": 295999.7040000013,
      "d": 999.9990000000107,
      "v": 64
    },
    {
      "midi": 67,
      "hit": false,
      "t": 295999.7040000013,
      "d": 999.9990000000107,
      "v": 64
    },
    {
      "midi": 71,
      "hit": false,
      "t": 295999.7040000013,
      "d": 999.9990000000107,
      "v": 64
    },
    {
      "midi": 67,
      "hit": false,
      "t": 296999.7030000013,
      "d": 333.33299999998417,
      "v": 64
    },
    {
      "midi": 69,
      "hit": false,
      "t": 297333.0360000013,
      "d": 666.6660000000265,
      "v": 64
    },
    {
      "midi": 55,
      "hit": false,
      "t": 297999.7020000009,
      "d": 666.6660000000265,
      "v": 64
    },
    {
      "midi": 71,
      "hit": false,
      "t": 297999.7020000013,
      "d": 333.33299999998417,
      "v": 64
    },
    {
      "midi": 78,
      "hit": false,
      "t": 298333.0350000013,
      "d": 166.66649999999208,
      "v": 64
    },
    {
      "midi": 78,
      "hit": false,
      "t": 298499.7015000013,
      "d": 166.66649999999208,
      "v": 64
    },
    {
      "midi": 59,
      "hit": false,
      "t": 298666.36800000095,
      "d": 1999.9980000000214,
      "v": 64
    },
    {
      "midi": 71,
      "hit": false,
      "t": 298666.3680000013,
      "d": 333.33299999998417,
      "v": 64
    },
    {
      "midi": 74,
      "hit": false,
      "t": 298666.3680000013,
      "d": 333.33299999998417,
      "v": 64
    },
    {
      "midi": 78,
      "hit": false,
      "t": 298666.3680000013,
      "d": 333.33299999998417,
      "v": 64
    },
    {
      "midi": 78,
      "hit": false,
      "t": 298999.7010000013,
      "d": 333.33299999998417,
      "v": 64
    },
    {
      "midi": 78,
      "hit": false,
      "t": 299333.03400000127,
      "d": 333.33299999998417,
      "v": 64
    },
    {
      "midi": 78,
      "hit": false,
      "t": 299666.36700000125,
      "d": 333.33299999998417,
      "v": 64
    },
    {
      "midi": 78,
      "hit": false,
      "t": 299999.70000000123,
      "d": 333.33299999998417,
      "v": 64
    },
    {
      "midi": 78,
      "hit": false,
      "t": 300333.0330000012,
      "d": 333.33299999998417,
      "v": 64
    },
    {
      "midi": 54,
      "hit": false,
      "t": 300666.36600000097,
      "d": 333.33299999998417,
      "v": 64
    },
    {
      "midi": 76,
      "hit": false,
      "t": 300666.3660000012,
      "d": 333.33299999998417,
      "v": 64
    },
    {
      "midi": 59,
      "hit": false,
      "t": 300999.69900000095,
      "d": 333.33299999998417,
      "v": 64
    },
    {
      "midi": 74,
      "hit": false,
      "t": 300999.6990000012,
      "d": 333.33299999998417,
      "v": 64
    },
    {
      "midi": 57,
      "hit": false,
      "t": 301333.03200000094,
      "d": 1999.9980000000214,
      "v": 64
    },
    {
      "midi": 69,
      "hit": false,
      "t": 301333.03200000117,
      "d": 333.33299999998417,
      "v": 64
    },
    {
      "midi": 73,
      "hit": false,
      "t": 301333.03200000117,
      "d": 333.33299999998417,
      "v": 64
    },
    {
      "midi": 78,
      "hit": false,
      "t": 301333.03200000117,
      "d": 333.33299999998417,
      "v": 64
    },
    {
      "midi": 78,
      "hit": false,
      "t": 301666.36500000115,
      "d": 333.33299999998417,
      "v": 64
    },
    {
      "midi": 78,
      "hit": false,
      "t": 301999.69800000114,
      "d": 666.6660000000265,
      "v": 64
    },
    {
      "midi": 78,
      "hit": false,
      "t": 302666.36400000117,
      "d": 333.33299999998417,
      "v": 64
    },
    {
      "midi": 76,
      "hit": false,
      "t": 302999.69700000115,
      "d": 666.6660000000265,
      "v": 64
    },
    {
      "midi": 52,
      "hit": false,
      "t": 303333.03000000096,
      "d": 333.33299999998417,
      "v": 64
    },
    {
      "midi": 54,
      "hit": false,
      "t": 303666.36300000094,
      "d": 333.33299999998417,
      "v": 64
    },
    {
      "midi": 76,
      "hit": false,
      "t": 303666.3630000012,
      "d": 333.33299999998417,
      "v": 64
    },
    {
      "midi": 55,
      "hit": false,
      "t": 303999.6960000009,
      "d": 1999.9980000000214,
      "v": 64
    },
    {
      "midi": 67,
      "hit": false,
      "t": 303999.69600000116,
      "d": 666.6660000000265,
      "v": 64
    },
    {
      "midi": 69,
      "hit": false,
      "t": 303999.69600000116,
      "d": 666.6660000000265,
      "v": 64
    },
    {
      "midi": 71,
      "hit": false,
      "t": 303999.69600000116,
      "d": 666.6660000000265,
      "v": 64
    },
    {
      "midi": 74,
      "hit": false,
      "t": 303999.69600000116,
      "d": 666.6660000000265,
      "v": 64
    },
    {
      "midi": 67,
      "hit": false,
      "t": 304666.3620000012,
      "d": 333.33299999998417,
      "v": 64
    },
    {
      "midi": 69,
      "hit": false,
      "t": 304999.6950000012,
      "d": 1333.3319999999949,
      "v": 64
    },
    {
      "midi": 74,
      "hit": false,
      "t": 304999.6950000012,
      "d": 1333.3319999999949,
      "v": 64
    },
    {
      "midi": 59,
      "hit": false,
      "t": 305999.69400000095,
      "d": 666.6660000000265,
      "v": 64
    },
    {
      "midi": 78,
      "hit": false,
      "t": 306333.02700000117,
      "d": 333.33299999998417,
      "v": 64
    },
    {
      "midi": 57,
      "hit": false,
      "t": 306666.360000001,
      "d": 1333.3319999999949,
      "v": 64
    },
    {
      "midi": 69,
      "hit": false,
      "t": 306666.36000000115,
      "d": 999.9990000000107,
      "v": 64
    },
    {
      "midi": 73,
      "hit": false,
      "t": 306666.36000000115,
      "d": 999.9990000000107,
      "v": 64
    },
    {
      "midi": 76,
      "hit": false,
      "t": 306666.36000000115,
      "d": 999.9990000000107,
      "v": 64
    },
    {
      "midi": 76,
      "hit": false,
      "t": 307666.35900000116,
      "d": 333.33299999998417,
      "v": 64
    },
    {
      "midi": 57,
      "hit": false,
      "t": 307999.69200000097,
      "d": 1333.3319999999949,
      "v": 64
    },
    {
      "midi": 76,
      "hit": false,
      "t": 307999.69200000115,
      "d": 333.33299999998417,
      "v": 64
    },
    {
      "midi": 78,
      "hit": false,
      "t": 308333.02500000113,
      "d": 333.33299999998417,
      "v": 64
    },
    {
      "midi": 79,
      "hit": false,
      "t": 308666.3580000011,
      "d": 666.6660000000265,
      "v": 64
    },
    {
      "midi": 50,
      "hit": false,
      "t": 309333.02400000097,
      "d": 999.9990000000107,
      "v": 64
    },
    {
      "midi": 69,
      "hit": false,
      "t": 309333.02400000114,
      "d": 666.6660000000265,
      "v": 64
    },
    {
      "midi": 74,
      "hit": false,
      "t": 309333.02400000114,
      "d": 666.6660000000265,
      "v": 64
    },
    {
      "midi": 78,
      "hit": false,
      "t": 309333.02400000114,
      "d": 666.6660000000265,
      "v": 64
    },
    {
      "midi": 74,
      "hit": false,
      "t": 309999.69000000117,
      "d": 333.33299999998417,
      "v": 64
    },
    {
      "midi": 43,
      "hit": false,
      "t": 310333.023000001,
      "d": 1333.3319999999949,
      "v": 64
    },
    {
      "midi": 69,
      "hit": false,
      "t": 310333.02300000115,
      "d": 666.6660000000265,
      "v": 64
    },
    {
      "midi": 74,
      "hit": false,
      "t": 310333.02300000115,
      "d": 666.6660000000265,
      "v": 64
    },
    {
      "midi": 79,
      "hit": false,
      "t": 310333.02300000115,
      "d": 666.6660000000265,
      "v": 64
    },
    {
      "midi": 69,
      "hit": false,
      "t": 310999.6890000012,
      "d": 666.6660000000265,
      "v": 64
    },
    {
      "midi": 74,
      "hit": false,
      "t": 310999.6890000012,
      "d": 666.6660000000265,
      "v": 64
    },
    {
      "midi": 78,
      "hit": false,
      "t": 310999.6890000012,
      "d": 666.6660000000265,
      "v": 64
    },
    {
      "midi": 45,
      "hit": false,
      "t": 311666.355000001,
      "d": 333.33299999998417,
      "v": 64
    },
    {
      "midi": 69,
      "hit": false,
      "t": 311666.3550000012,
      "d": 333.33299999998417,
      "v": 64
    },
    {
      "midi": 73,
      "hit": false,
      "t": 311666.3550000012,
      "d": 333.33299999998417,
      "v": 64
    },
    {
      "midi": 76,
      "hit": false,
      "t": 311666.3550000012,
      "d": 333.33299999998417,
      "v": 64
    },
    {
      "midi": 76,
      "hit": false,
      "t": 312999.6870000012,
      "d": 333.33299999998417,
      "v": 64
    },
    {
      "midi": 76,
      "hit": false,
      "t": 313333.0200000012,
      "d": 333.33299999998417,
      "v": 64
    },
    {
      "midi": 78,
      "hit": false,
      "t": 313666.35300000117,
      "d": 333.33299999998417,
      "v": 64
    },
    {
      "midi": 79,
      "hit": false,
      "t": 313999.68600000115,
      "d": 666.6660000000265,
      "v": 64
    },
    {
      "midi": 50,
      "hit": false,
      "t": 314666.35200000094,
      "d": 999.9990000000107,
      "v": 64
    },
    {
      "midi": 74,
      "hit": false,
      "t": 314666.3520000012,
      "d": 666.6660000000265,
      "v": 64
    },
    {
      "midi": 78,
      "hit": false,
      "t": 314666.3520000012,
      "d": 666.6660000000265,
      "v": 64
    },
    {
      "midi": 74,
      "hit": false,
      "t": 315333.0180000012,
      "d": 333.33299999998417,
      "v": 64
    },
    {
      "midi": 43,
      "hit": false,
      "t": 315666.35100000096,
      "d": 1333.3319999999949,
      "v": 64
    },
    {
      "midi": 69,
      "hit": false,
      "t": 315666.3510000012,
      "d": 666.6660000000265,
      "v": 64
    },
    {
      "midi": 74,
      "hit": false,
      "t": 315666.3510000012,
      "d": 666.6660000000265,
      "v": 64
    },
    {
      "midi": 79,
      "hit": false,
      "t": 315666.3510000012,
      "d": 666.6660000000265,
      "v": 64
    },
    {
      "midi": 81,
      "hit": false,
      "t": 316333.0170000012,
      "d": 666.6660000000265,
      "v": 64
    },
    {
      "midi": 40,
      "hit": false,
      "t": 316999.68300000095,
      "d": 333.33299999998417,
      "v": 64
    },
    {
      "midi": 74,
      "hit": false,
      "t": 316999.68300000124,
      "d": 333.33299999998417,
      "v": 64
    },
    {
      "midi": 76,
      "hit": false,
      "t": 316999.68300000124,
      "d": 333.33299999998417,
      "v": 64
    },
    {
      "midi": 81,
      "hit": false,
      "t": 316999.68300000124,
      "d": 333.33299999998417,
      "v": 64
    },
    {
      "midi": 83,
      "hit": false,
      "t": 317666.3490000012,
      "d": 999.9990000000107,
      "v": 64
    },
    {
      "midi": 76,
      "hit": false,
      "t": 318666.3480000012,
      "d": 333.33299999998417,
      "v": 64
    },
    {
      "midi": 78,
      "hit": false,
      "t": 318999.6810000012,
      "d": 333.33299999998417,
      "v": 64
    },
    {
      "midi": 79,
      "hit": false,
      "t": 319333.0140000012,
      "d": 666.6660000000265,
      "v": 64
    },
    {
      "midi": 50,
      "hit": false,
      "t": 319999.6800000009,
      "d": 999.9990000000107,
      "v": 64
    },
    {
      "midi": 69,
      "hit": false,
      "t": 319999.6800000012,
      "d": 666.6660000000265,
      "v": 64
    },
    {
      "midi": 74,
      "hit": false,
      "t": 319999.6800000012,
      "d": 666.6660000000265,
      "v": 64
    },
    {
      "midi": 78,
      "hit": false,
      "t": 319999.6800000012,
      "d": 666.6660000000265,
      "v": 64
    },
    {
      "midi": 74,
      "hit": false,
      "t": 320666.34600000124,
      "d": 333.33299999998417,
      "v": 64
    },
    {
      "midi": 43,
      "hit": false,
      "t": 320999.67900000094,
      "d": 1333.3319999999949,
      "v": 64
    },
    {
      "midi": 69,
      "hit": false,
      "t": 320999.6790000012,
      "d": 666.6660000000265,
      "v": 64
    },
    {
      "midi": 74,
      "hit": false,
      "t": 320999.6790000012,
      "d": 666.6660000000265,
      "v": 64
    },
    {
      "midi": 79,
      "hit": false,
      "t": 320999.6790000012,
      "d": 666.6660000000265,
      "v": 64
    },
    {
      "midi": 69,
      "hit": false,
      "t": 321666.34500000125,
      "d": 666.6660000000265,
      "v": 64
    },
    {
      "midi": 74,
      "hit": false,
      "t": 321666.34500000125,
      "d": 666.6660000000265,
      "v": 64
    },
    {
      "midi": 78,
      "hit": false,
      "t": 321666.34500000125,
      "d": 666.6660000000265,
      "v": 64
    },
    {
      "midi": 45,
      "hit": false,
      "t": 322333.01100000093,
      "d": 333.33299999998417,
      "v": 64
    },
    {
      "midi": 69,
      "hit": false,
      "t": 322333.0110000013,
      "d": 333.33299999998417,
      "v": 64
    },
    {
      "midi": 73,
      "hit": false,
      "t": 322333.0110000013,
      "d": 333.33299999998417,
      "v": 64
    },
    {
      "midi": 76,
      "hit": false,
      "t": 322333.0110000013,
      "d": 333.33299999998417,
      "v": 64
    },
    {
      "midi": 78,
      "hit": false,
      "t": 323666.3430000013,
      "d": 166.66649999999208,
      "v": 64
    },
    {
      "midi": 78,
      "hit": false,
      "t": 323833.00950000127,
      "d": 166.66649999999208,
      "v": 64
    },
    {
      "midi": 74,
      "hit": false,
      "t": 323999.67600000126,
      "d": 666.6660000000265,
      "v": 64
    },
    {
      "midi": 78,
      "hit": false,
      "t": 323999.67600000126,
      "d": 666.6660000000265,
      "v": 64
    },
    {
      "midi": 69,
      "hit": false,
      "t": 324666.3420000013,
      "d": 333.33299999998417,
      "v": 64
    },
    {
      "midi": 73,
      "hit": false,
      "t": 324666.3420000013,
      "d": 333.33299999998417,
      "v": 64
    },
    {
      "midi": 76,
      "hit": false,
      "t": 324666.3420000013,
      "d": 333.33299999998417,
      "v": 64
    },
    {
      "midi": 71,
      "hit": false,
      "t": 324999.67500000127,
      "d": 333.33299999998417,
      "v": 64
    },
    {
      "midi": 74,
      "hit": false,
      "t": 324999.67500000127,
      "d": 333.33299999998417,
      "v": 64
    },
    {
      "midi": 55,
      "hit": false,
      "t": 325333.0080000009,
      "d": 1999.9980000000214,
      "v": 64
    },
    {
      "midi": 71,
      "hit": false,
      "t": 325333.00800000125,
      "d": 83.33325000002515,
      "v": 64
    },
    {
      "midi": 74,
      "hit": false,
      "t": 325333.00800000125,
      "d": 83.33325000002515,
      "v": 64
    },
    {
      "midi": 69,
      "hit": false,
      "t": 326333.00700000126,
      "d": 999.9990000000107,
      "v": 64
    },
    {
      "midi": 74,
      "hit": false,
      "t": 326333.00700000126,
      "d": 999.9990000000107,
      "v": 64
    },
    {
      "midi": 59,
      "hit": false,
      "t": 327333.0060000009,
      "d": 666.6660000000265,
      "v": 64
    },
    {
      "midi": 71,
      "hit": false,
      "t": 327333.0060000013,
      "d": 666.6660000000265,
      "v": 64
    },
    {
      "midi": 57,
      "hit": false,
      "t": 327999.67200000095,
      "d": 1333.3319999999949,
      "v": 64
    },
    {
      "midi": 62,
      "hit": false,
      "t": 327999.6720000013,
      "d": 666.6660000000265,
      "v": 64
    },
    {
      "midi": 64,
      "hit": false,
      "t": 327999.6720000013,
      "d": 666.6660000000265,
      "v": 64
    },
    {
      "midi": 69,
      "hit": false,
      "t": 327999.6720000013,
      "d": 666.6660000000265,
      "v": 64
    },
    {
      "midi": 69,
      "hit": false,
      "t": 328666.3380000013,
      "d": 333.33299999998417,
      "v": 64
    },
    {
      "midi": 69,
      "hit": false,
      "t": 328999.6710000013,
      "d": 333.33299999998417,
      "v": 64
    },
    {
      "midi": 57,
      "hit": false,
      "t": 329333.00400000095,
      "d": 1333.3319999999949,
      "v": 64
    },
    {
      "midi": 69,
      "hit": false,
      "t": 329333.0040000013,
      "d": 666.6660000000265,
      "v": 64
    },
    {
      "midi": 66,
      "hit": false,
      "t": 329999.6700000013,
      "d": 333.33299999998417,
      "v": 64
    },
    {
      "midi": 62,
      "hit": false,
      "t": 330333.0030000013,
      "d": 166.66649999999208,
      "v": 64
    },
    {
      "midi": 64,
      "hit": false,
      "t": 330499.6695000013,
      "d": 166.66649999999208,
      "v": 64
    },
    {
      "midi": 50,
      "hit": false,
      "t": 330666.33600000094,
      "d": 1333.3319999999949,
      "v": 64
    },
    {
      "midi": 57,
      "hit": false,
      "t": 330666.3360000013,
      "d": 666.6660000000265,
      "v": 64
    },
    {
      "midi": 62,
      "hit": false,
      "t": 330666.3360000013,
      "d": 666.6660000000265,
      "v": 64
    },
    {
      "midi": 66,
      "hit": false,
      "t": 330666.3360000013,
      "d": 666.6660000000265,
      "v": 64
    },
    {
      "midi": 62,
      "hit": false,
      "t": 331333.0020000013,
      "d": 333.33299999998417,
      "v": 64
    },
    {
      "midi": 57,
      "hit": false,
      "t": 331666.3350000013,
      "d": 666.6660000000265,
      "v": 64
    },
    {
      "midi": 62,
      "hit": false,
      "t": 331666.3350000013,
      "d": 666.6660000000265,
      "v": 64
    },
    {
      "midi": 67,
      "hit": false,
      "t": 331666.3350000013,
      "d": 666.6660000000265,
      "v": 64
    },
    {
      "midi": 43,
      "hit": false,
      "t": 331999.66800000094,
      "d": 1333.3319999999949,
      "v": 64
    },
    {
      "midi": 57,
      "hit": false,
      "t": 332333.0010000013,
      "d": 333.33299999998417,
      "v": 64
    },
    {
      "midi": 62,
      "hit": false,
      "t": 332333.0010000013,
      "d": 333.33299999998417,
      "v": 64
    },
    {
      "midi": 66,
      "hit": false,
      "t": 332333.0010000013,
      "d": 333.33299999998417,
      "v": 64
    },
    {
      "midi": 57,
      "hit": false,
      "t": 332666.3340000013,
      "d": 333.33299999998417,
      "v": 64
    },
    {
      "midi": 62,
      "hit": false,
      "t": 332666.3340000013,
      "d": 333.33299999998417,
      "v": 64
    },
    {
      "midi": 66,
      "hit": false,
      "t": 332666.3340000013,
      "d": 333.33299999998417,
      "v": 64
    },
    {
      "midi": 57,
      "hit": false,
      "t": 332999.6670000013,
      "d": 333.33299999998417,
      "v": 64
    },
    {
      "midi": 62,
      "hit": false,
      "t": 332999.6670000013,
      "d": 333.33299999998417,
      "v": 64
    },
    {
      "midi": 66,
      "hit": false,
      "t": 332999.6670000013,
      "d": 333.33299999998417,
      "v": 64
    },
    {
      "midi": 45,
      "hit": false,
      "t": 333333.00000000093,
      "d": 666.6660000000265,
      "v": 64
    },
    {
      "midi": 57,
      "hit": false,
      "t": 333666.33300000126,
      "d": 666.6660000000265,
      "v": 64
    },
    {
      "midi": 62,
      "hit": false,
      "t": 333666.33300000126,
      "d": 666.6660000000265,
      "v": 64
    },
    {
      "midi": 64,
      "hit": false,
      "t": 333666.33300000126,
      "d": 666.6660000000265,
      "v": 64
    },
    {
      "midi": 45,
      "hit": false,
      "t": 333999.66600000096,
      "d": 333.33299999998417,
      "v": 64
    },
    {
      "midi": 45,
      "hit": false,
      "t": 334332.99900000094,
      "d": 333.33299999998417,
      "v": 64
    },
    {
      "midi": 66,
      "hit": false,
      "t": 334332.9990000013,
      "d": 333.33299999998417,
      "v": 64
    },
    {
      "midi": 45,
      "hit": false,
      "t": 334666.3320000009,
      "d": 666.6660000000265,
      "v": 64
    },
    {
      "midi": 57,
      "hit": false,
      "t": 334666.3320000013,
      "d": 666.6660000000265,
      "v": 64
    },
    {
      "midi": 62,
      "hit": false,
      "t": 334666.3320000013,
      "d": 666.6660000000265,
      "v": 64
    },
    {
      "midi": 64,
      "hit": false,
      "t": 334666.3320000013,
      "d": 666.6660000000265,
      "v": 64
    },
    {
      "midi": 45,
      "hit": false,
      "t": 335332.99800000095,
      "d": 666.6660000000265,
      "v": 64
    },
    {
      "midi": 57,
      "hit": false,
      "t": 335332.9980000013,
      "d": 333.33299999998417,
      "v": 64
    },
    {
      "midi": 62,
      "hit": false,
      "t": 335332.9980000013,
      "d": 333.33299999998417,
      "v": 64
    },
    {
      "midi": 64,
      "hit": false,
      "t": 335332.9980000013,
      "d": 333.33299999998417,
      "v": 64
    },
    {
      "midi": 62,
      "hit": false,
      "t": 335666.3310000013,
      "d": 166.66649999999208,
      "v": 64
    },
    {
      "midi": 64,
      "hit": false,
      "t": 335832.9975000013,
      "d": 166.66649999999208,
      "v": 64
    },
    {
      "midi": 50,
      "hit": false,
      "t": 335999.664000001,
      "d": 999.9990000000107,
      "v": 64
    },
    {
      "midi": 57,
      "hit": false,
      "t": 335999.66400000127,
      "d": 333.33299999998417,
      "v": 64
    },
    {
      "midi": 62,
      "hit": false,
      "t": 335999.66400000127,
      "d": 333.33299999998417,
      "v": 64
    },
    {
      "midi": 64,
      "hit": false,
      "t": 335999.66400000127,
      "d": 333.33299999998417,
      "v": 64
    },
    {
      "midi": 66,
      "hit": false,
      "t": 336332.99700000125,
      "d": 333.33299999998417,
      "v": 64
    },
    {
      "midi": 62,
      "hit": false,
      "t": 336666.33000000124,
      "d": 333.33299999998417,
      "v": 64
    },
    {
      "midi": 66,
      "hit": false,
      "t": 336666.33000000124,
      "d": 333.33299999998417,
      "v": 64
    },
    {
      "midi": 43,
      "hit": false,
      "t": 336999.663000001,
      "d": 333.33299999998417,
      "v": 64
    },
    {
      "midi": 57,
      "hit": false,
      "t": 336999.6630000012,
      "d": 666.6660000000265,
      "v": 64
    },
    {
      "midi": 62,
      "hit": false,
      "t": 336999.6630000012,
      "d": 666.6660000000265,
      "v": 64
    },
    {
      "midi": 67,
      "hit": false,
      "t": 336999.6630000012,
      "d": 666.6660000000265,
      "v": 64
    },
    {
      "midi": 43,
      "hit": false,
      "t": 337332.996000001,
      "d": 999.9990000000107,
      "v": 64
    },
    {
      "midi": 62,
      "hit": false,
      "t": 337666.32900000125,
      "d": 333.33299999998417,
      "v": 64
    },
    {
      "midi": 69,
      "hit": false,
      "t": 337666.32900000125,
      "d": 333.33299999998417,
      "v": 64
    },
    {
      "midi": 69,
      "hit": false,
      "t": 337999.66200000123,
      "d": 333.33299999998417,
      "v": 64
    },
    {
      "midi": 52,
      "hit": false,
      "t": 338332.995000001,
      "d": 333.33299999998417,
      "v": 64
    },
    {
      "midi": 62,
      "hit": false,
      "t": 338332.9950000012,
      "d": 333.33299999998417,
      "v": 64
    },
    {
      "midi": 64,
      "hit": false,
      "t": 338332.9950000012,
      "d": 333.33299999998417,
      "v": 64
    },
    {
      "midi": 69,
      "hit": false,
      "t": 338332.9950000012,
      "d": 333.33299999998417,
      "v": 64
    },
    {
      "midi": 52,
      "hit": false,
      "t": 338666.32800000097,
      "d": 333.33299999998417,
      "v": 64
    },
    {
      "midi": 52,
      "hit": false,
      "t": 338999.66100000095,
      "d": 999.9990000000107,
      "v": 64
    },
    {
      "midi": 69,
      "hit": false,
      "t": 338999.6610000012,
      "d": 333.33299999998417,
      "v": 64
    },
    {
      "midi": 69,
      "hit": false,
      "t": 339332.99400000117,
      "d": 333.33299999998417,
      "v": 64
    },
    {
      "midi": 66,
      "hit": false,
      "t": 339666.32700000115,
      "d": 333.33299999998417,
      "v": 64
    },
    {
      "midi": 52,
      "hit": false,
      "t": 339999.66000000096,
      "d": 666.6660000000265,
      "v": 64
    },
    {
      "midi": 62,
      "hit": false,
      "t": 339999.66000000114,
      "d": 999.9990000000107,
      "v": 64
    },
    {
      "midi": 64,
      "hit": false,
      "t": 339999.66000000114,
      "d": 999.9990000000107,
      "v": 64
    },
    {
      "midi": 71,
      "hit": false,
      "t": 339999.66000000114,
      "d": 999.9990000000107,
      "v": 64
    },
    {
      "midi": 52,
      "hit": false,
      "t": 340666.326000001,
      "d": 666.6660000000265,
      "v": 64
    },
    {
      "midi": 62,
      "hit": false,
      "t": 340999.65900000115,
      "d": 166.66649999999208,
      "v": 64
    },
    {
      "midi": 64,
      "hit": false,
      "t": 341166.32550000114,
      "d": 166.66649999999208,
      "v": 64
    },
    {
      "midi": 50,
      "hit": false,
      "t": 341332.992000001,
      "d": 1333.3319999999949,
      "v": 64
    },
    {
      "midi": 57,
      "hit": false,
      "t": 341332.99200000113,
      "d": 333.33299999998417,
      "v": 64
    },
    {
      "midi": 62,
      "hit": false,
      "t": 341332.99200000113,
      "d": 333.33299999998417,
      "v": 64
    },
    {
      "midi": 66,
      "hit": false,
      "t": 341332.99200000113,
      "d": 333.33299999998417,
      "v": 64
    },
    {
      "midi": 66,
      "hit": false,
      "t": 341666.3250000011,
      "d": 333.33299999998417,
      "v": 64
    },
    {
      "midi": 57,
      "hit": false,
      "t": 341999.6580000011,
      "d": 333.33299999998417,
      "v": 64
    },
    {
      "midi": 62,
      "hit": false,
      "t": 341999.6580000011,
      "d": 333.33299999998417,
      "v": 64
    },
    {
      "midi": 66,
      "hit": false,
      "t": 341999.6580000011,
      "d": 333.33299999998417,
      "v": 64
    },
    {
      "midi": 62,
      "hit": false,
      "t": 342332.9910000011,
      "d": 333.33299999998417,
      "v": 64
    },
    {
      "midi": 43,
      "hit": false,
      "t": 342666.324000001,
      "d": 999.9990000000107,
      "v": 64
    },
    {
      "midi": 57,
      "hit": false,
      "t": 342666.32400000107,
      "d": 166.66649999999208,
      "v": 64
    },
    {
      "midi": 62,
      "hit": false,
      "t": 342666.32400000107,
      "d": 166.66649999999208,
      "v": 64
    },
    {
      "midi": 67,
      "hit": false,
      "t": 342666.32400000107,
      "d": 166.66649999999208,
      "v": 64
    },
    {
      "midi": 67,
      "hit": false,
      "t": 342832.99050000106,
      "d": 166.66649999999208,
      "v": 64
    },
    {
      "midi": 57,
      "hit": false,
      "t": 342999.65700000105,
      "d": 666.6660000000265,
      "v": 64
    },
    {
      "midi": 62,
      "hit": false,
      "t": 342999.65700000105,
      "d": 666.6660000000265,
      "v": 64
    },
    {
      "midi": 66,
      "hit": false,
      "t": 342999.65700000105,
      "d": 666.6660000000265,
      "v": 64
    },
    {
      "midi": 45,
      "hit": false,
      "t": 343666.323000001,
      "d": 333.33299999998417,
      "v": 64
    },
    {
      "midi": 57,
      "hit": false,
      "t": 343666.3230000011,
      "d": 333.33299999998417,
      "v": 64
    },
    {
      "midi": 62,
      "hit": false,
      "t": 343666.3230000011,
      "d": 333.33299999998417,
      "v": 64
    },
    {
      "midi": 64,
      "hit": false,
      "t": 343666.3230000011,
      "d": 333.33299999998417,
      "v": 64
    },
    {
      "midi": 57,
      "hit": false,
      "t": 344332.98900000105,
      "d": 333.33299999998417,
      "v": 64
    },
    {
      "midi": 57,
      "hit": false,
      "t": 344666.32200000103,
      "d": 333.33299999998417,
      "v": 64
    },
    {
      "midi": 57,
      "hit": false,
      "t": 344999.655000001,
      "d": 333.33299999998417,
      "v": 64
    },
    {
      "midi": 45,
      "hit": false,
      "t": 344999.655000001,
      "d": 333.33299999998417,
      "v": 64
    },
    {
      "midi": 57,
      "hit": false,
      "t": 345332.988000001,
      "d": 333.33299999998417,
      "v": 64
    },
    {
      "midi": 62,
      "hit": false,
      "t": 345332.988000001,
      "d": 333.33299999998417,
      "v": 64
    },
    {
      "midi": 66,
      "hit": false,
      "t": 345332.988000001,
      "d": 333.33299999998417,
      "v": 64
    },
    {
      "midi": 45,
      "hit": false,
      "t": 345332.988000001,
      "d": 666.6660000000265,
      "v": 64
    },
    {
      "midi": 66,
      "hit": false,
      "t": 345666.321000001,
      "d": 333.33299999998417,
      "v": 64
    },
    {
      "midi": 57,
      "hit": false,
      "t": 345999.65400000097,
      "d": 333.33299999998417,
      "v": 64
    },
    {
      "midi": 61,
      "hit": false,
      "t": 345999.65400000097,
      "d": 333.33299999998417,
      "v": 64
    },
    {
      "midi": 64,
      "hit": false,
      "t": 345999.65400000097,
      "d": 333.33299999998417,
      "v": 64
    },
    {
      "midi": 45,
      "hit": false,
      "t": 345999.654000001,
      "d": 666.6660000000265,
      "v": 64
    },
    {
      "midi": 62,
      "hit": false,
      "t": 346332.98700000095,
      "d": 333.33299999998417,
      "v": 64
    },
    {
      "midi": 57,
      "hit": false,
      "t": 346666.32000000094,
      "d": 1999.9980000000214,
      "v": 64
    },
    {
      "midi": 59,
      "hit": false,
      "t": 346666.32000000094,
      "d": 1999.9980000000214,
      "v": 64
    },
    {
      "midi": 62,
      "hit": false,
      "t": 346666.32000000094,
      "d": 1999.9980000000214,
      "v": 64
    },
    {
      "midi": 43,
      "hit": false,
      "t": 346666.32000000105,
      "d": 999.9990000000107,
      "v": 64
    },
    {
      "midi": 43,
      "hit": false,
      "t": 347666.31900000107,
      "d": 666.6660000000265,
      "v": 64
    },
    {
      "midi": 43,
      "hit": false,
      "t": 348332.9850000011,
      "d": 333.33299999998417,
      "v": 64
    },
    {
      "midi": 71,
      "hit": false,
      "t": 348666.31800000096,
      "d": 666.6660000000265,
      "v": 64
    },
    {
      "midi": 47,
      "hit": false,
      "t": 348666.3180000011,
      "d": 333.33299999998417,
      "v": 64
    },
    {
      "midi": 45,
      "hit": false,
      "t": 348999.65100000106,
      "d": 333.33299999998417,
      "v": 64
    },
    {
      "midi": 62,
      "hit": false,
      "t": 349332.984000001,
      "d": 666.6660000000265,
      "v": 64
    },
    {
      "midi": 64,
      "hit": false,
      "t": 349332.984000001,
      "d": 666.6660000000265,
      "v": 64
    },
    {
      "midi": 69,
      "hit": false,
      "t": 349332.984000001,
      "d": 666.6660000000265,
      "v": 64
    },
    {
      "midi": 45,
      "hit": false,
      "t": 349332.98400000104,
      "d": 666.6660000000265,
      "v": 64
    },
    {
      "midi": 62,
      "hit": false,
      "t": 349999.650000001,
      "d": 333.33299999998417,
      "v": 64
    },
    {
      "midi": 64,
      "hit": false,
      "t": 349999.650000001,
      "d": 333.33299999998417,
      "v": 64
    },
    {
      "midi": 69,
      "hit": false,
      "t": 349999.650000001,
      "d": 333.33299999998417,
      "v": 64
    },
    {
      "midi": 45,
      "hit": false,
      "t": 349999.6500000011,
      "d": 666.6660000000265,
      "v": 64
    },
    {
      "midi": 66,
      "hit": false,
      "t": 350332.983000001,
      "d": 333.33299999998417,
      "v": 64
    },
    {
      "midi": 62,
      "hit": false,
      "t": 350666.316000001,
      "d": 333.33299999998417,
      "v": 64
    },
    {
      "midi": 64,
      "hit": false,
      "t": 350666.316000001,
      "d": 333.33299999998417,
      "v": 64
    },
    {
      "midi": 69,
      "hit": false,
      "t": 350666.316000001,
      "d": 333.33299999998417,
      "v": 64
    },
    {
      "midi": 45,
      "hit": false,
      "t": 350666.3160000011,
      "d": 666.6660000000265,
      "v": 64
    },
    {
      "midi": 66,
      "hit": false,
      "t": 350999.64900000097,
      "d": 333.33299999998417,
      "v": 64
    },
    {
      "midi": 62,
      "hit": false,
      "t": 351332.98200000095,
      "d": 333.33299999998417,
      "v": 64
    },
    {
      "midi": 64,
      "hit": false,
      "t": 351332.98200000095,
      "d": 333.33299999998417,
      "v": 64
    },
    {
      "midi": 69,
      "hit": false,
      "t": 351332.98200000095,
      "d": 333.33299999998417,
      "v": 64
    },
    {
      "midi": 45,
      "hit": false,
      "t": 351332.9820000011,
      "d": 666.6660000000265,
      "v": 64
    },
    {
      "midi": 62,
      "hit": false,
      "t": 351666.31500000093,
      "d": 166.66649999999208,
      "v": 64
    },
    {
      "midi": 64,
      "hit": false,
      "t": 351832.9815000009,
      "d": 166.66649999999208,
      "v": 64
    },
    {
      "midi": 57,
      "hit": false,
      "t": 351999.6480000009,
      "d": 666.6660000000265,
      "v": 64
    },
    {
      "midi": 62,
      "hit": false,
      "t": 351999.6480000009,
      "d": 666.6660000000265,
      "v": 64
    },
    {
      "midi": 66,
      "hit": false,
      "t": 351999.6480000009,
      "d": 666.6660000000265,
      "v": 64
    },
    {
      "midi": 50,
      "hit": false,
      "t": 351999.64800000115,
      "d": 1333.3319999999949,
      "v": 64
    },
    {
      "midi": 62,
      "hit": false,
      "t": 352666.31400000094,
      "d": 333.33299999998417,
      "v": 64
    },
    {
      "midi": 57,
      "hit": false,
      "t": 352999.6470000009,
      "d": 666.6660000000265,
      "v": 64
    },
    {
      "midi": 62,
      "hit": false,
      "t": 352999.6470000009,
      "d": 666.6660000000265,
      "v": 64
    },
    {
      "midi": 67,
      "hit": false,
      "t": 352999.6470000009,
      "d": 666.6660000000265,
      "v": 64
    },
    {
      "midi": 43,
      "hit": false,
      "t": 353332.98000000115,
      "d": 1333.3319999999949,
      "v": 64
    },
    {
      "midi": 57,
      "hit": false,
      "t": 353666.31300000096,
      "d": 333.33299999998417,
      "v": 64
    },
    {
      "midi": 62,
      "hit": false,
      "t": 353666.31300000096,
      "d": 333.33299999998417,
      "v": 64
    },
    {
      "midi": 66,
      "hit": false,
      "t": 353666.31300000096,
      "d": 333.33299999998417,
      "v": 64
    },
    {
      "midi": 57,
      "hit": false,
      "t": 353999.64600000094,
      "d": 333.33299999998417,
      "v": 64
    },
    {
      "midi": 62,
      "hit": false,
      "t": 353999.64600000094,
      "d": 333.33299999998417,
      "v": 64
    },
    {
      "midi": 66,
      "hit": false,
      "t": 353999.64600000094,
      "d": 333.33299999998417,
      "v": 64
    },
    {
      "midi": 57,
      "hit": false,
      "t": 354332.9790000009,
      "d": 333.33299999998417,
      "v": 64
    },
    {
      "midi": 62,
      "hit": false,
      "t": 354332.9790000009,
      "d": 333.33299999998417,
      "v": 64
    },
    {
      "midi": 66,
      "hit": false,
      "t": 354332.9790000009,
      "d": 333.33299999998417,
      "v": 64
    },
    {
      "midi": 45,
      "hit": false,
      "t": 354666.31200000114,
      "d": 666.6660000000265,
      "v": 64
    },
    {
      "midi": 57,
      "hit": false,
      "t": 354999.6450000009,
      "d": 666.6660000000265,
      "v": 64
    },
    {
      "midi": 62,
      "hit": false,
      "t": 354999.6450000009,
      "d": 666.6660000000265,
      "v": 64
    },
    {
      "midi": 64,
      "hit": false,
      "t": 354999.6450000009,
      "d": 666.6660000000265,
      "v": 64
    },
    {
      "midi": 45,
      "hit": false,
      "t": 355332.97800000117,
      "d": 333.33299999998417,
      "v": 64
    },
    {
      "midi": 66,
      "hit": false,
      "t": 355666.3110000009,
      "d": 333.33299999998417,
      "v": 64
    },
    {
      "midi": 45,
      "hit": false,
      "t": 355666.31100000115,
      "d": 333.33299999998417,
      "v": 64
    },
    {
      "midi": 57,
      "hit": false,
      "t": 355999.6440000009,
      "d": 666.6660000000265,
      "v": 64
    },
    {
      "midi": 62,
      "hit": false,
      "t": 355999.6440000009,
      "d": 666.6660000000265,
      "v": 64
    },
    {
      "midi": 64,
      "hit": false,
      "t": 355999.6440000009,
      "d": 666.6660000000265,
      "v": 64
    },
    {
      "midi": 45,
      "hit": false,
      "t": 355999.64400000114,
      "d": 666.6660000000265,
      "v": 64
    },
    {
      "midi": 57,
      "hit": false,
      "t": 356666.3100000009,
      "d": 333.33299999998417,
      "v": 64
    },
    {
      "midi": 62,
      "hit": false,
      "t": 356666.3100000009,
      "d": 333.33299999998417,
      "v": 64
    },
    {
      "midi": 64,
      "hit": false,
      "t": 356666.3100000009,
      "d": 333.33299999998417,
      "v": 64
    },
    {
      "midi": 45,
      "hit": false,
      "t": 356666.31000000116,
      "d": 666.6660000000265,
      "v": 64
    },
    {
      "midi": 62,
      "hit": false,
      "t": 356999.6430000009,
      "d": 166.66649999999208,
      "v": 64
    },
    {
      "midi": 64,
      "hit": false,
      "t": 357166.3095000009,
      "d": 166.66649999999208,
      "v": 64
    },
    {
      "midi": 57,
      "hit": false,
      "t": 357332.9760000009,
      "d": 333.33299999998417,
      "v": 64
    },
    {
      "midi": 62,
      "hit": false,
      "t": 357332.9760000009,
      "d": 333.33299999998417,
      "v": 64
    },
    {
      "midi": 64,
      "hit": false,
      "t": 357332.9760000009,
      "d": 333.33299999998417,
      "v": 64
    },
    {
      "midi": 50,
      "hit": false,
      "t": 357332.9760000012,
      "d": 999.9990000000107,
      "v": 64
    },
    {
      "midi": 66,
      "hit": false,
      "t": 357666.3090000009,
      "d": 333.33299999998417,
      "v": 64
    },
    {
      "midi": 62,
      "hit": false,
      "t": 357999.64200000087,
      "d": 333.33299999998417,
      "v": 64
    },
    {
      "midi": 66,
      "hit": false,
      "t": 357999.64200000087,
      "d": 333.33299999998417,
      "v": 64
    },
    {
      "midi": 57,
      "hit": false,
      "t": 358332.97500000085,
      "d": 666.6660000000265,
      "v": 64
    },
    {
      "midi": 62,
      "hit": false,
      "t": 358332.97500000085,
      "d": 666.6660000000265,
      "v": 64
    },
    {
      "midi": 67,
      "hit": false,
      "t": 358332.97500000085,
      "d": 666.6660000000265,
      "v": 64
    },
    {
      "midi": 43,
      "hit": false,
      "t": 358332.9750000012,
      "d": 333.33299999998417,
      "v": 64
    },
    {
      "midi": 43,
      "hit": false,
      "t": 358666.3080000012,
      "d": 999.9990000000107,
      "v": 64
    },
    {
      "midi": 62,
      "hit": false,
      "t": 358999.6410000009,
      "d": 333.33299999998417,
      "v": 64
    },
    {
      "midi": 69,
      "hit": false,
      "t": 358999.6410000009,
      "d": 333.33299999998417,
      "v": 64
    },
    {
      "midi": 69,
      "hit": false,
      "t": 359332.97400000086,
      "d": 333.33299999998417,
      "v": 64
    },
    {
      "midi": 62,
      "hit": false,
      "t": 359666.30700000084,
      "d": 333.33299999998417,
      "v": 64
    },
    {
      "midi": 64,
      "hit": false,
      "t": 359666.30700000084,
      "d": 333.33299999998417,
      "v": 64
    },
    {
      "midi": 69,
      "hit": false,
      "t": 359666.30700000084,
      "d": 333.33299999998417,
      "v": 64
    },
    {
      "midi": 52,
      "hit": false,
      "t": 359666.3070000012,
      "d": 333.33299999998417,
      "v": 64
    },
    {
      "midi": 52,
      "hit": false,
      "t": 359999.6400000012,
      "d": 333.33299999998417,
      "v": 64
    },
    {
      "midi": 69,
      "hit": false,
      "t": 360332.9730000008,
      "d": 333.33299999998417,
      "v": 64
    },
    {
      "midi": 52,
      "hit": false,
      "t": 360332.97300000116,
      "d": 999.9990000000107,
      "v": 64
    },
    {
      "midi": 69,
      "hit": false,
      "t": 360666.3060000008,
      "d": 333.33299999998417,
      "v": 64
    },
    {
      "midi": 66,
      "hit": false,
      "t": 360999.6390000008,
      "d": 333.33299999998417,
      "v": 64
    },
    {
      "midi": 62,
      "hit": false,
      "t": 361332.97200000077,
      "d": 999.9990000000107,
      "v": 64
    },
    {
      "midi": 64,
      "hit": false,
      "t": 361332.97200000077,
      "d": 999.9990000000107,
      "v": 64
    },
    {
      "midi": 71,
      "hit": false,
      "t": 361332.97200000077,
      "d": 999.9990000000107,
      "v": 64
    },
    {
      "midi": 52,
      "hit": false,
      "t": 361332.9720000012,
      "d": 666.6660000000265,
      "v": 64
    },
    {
      "midi": 52,
      "hit": false,
      "t": 361999.6380000012,
      "d": 666.6660000000265,
      "v": 64
    },
    {
      "midi": 62,
      "hit": false,
      "t": 362332.9710000008,
      "d": 166.66649999999208,
      "v": 64
    },
    {
      "midi": 64,
      "hit": false,
      "t": 362499.63750000077,
      "d": 166.66649999999208,
      "v": 64
    },
    {
      "midi": 57,
      "hit": false,
      "t": 362666.30400000076,
      "d": 333.33299999998417,
      "v": 64
    },
    {
      "midi": 62,
      "hit": false,
      "t": 362666.30400000076,
      "d": 333.33299999998417,
      "v": 64
    },
    {
      "midi": 66,
      "hit": false,
      "t": 362666.30400000076,
      "d": 333.33299999998417,
      "v": 64
    },
    {
      "midi": 50,
      "hit": false,
      "t": 362666.3040000012,
      "d": 1333.3319999999949,
      "v": 64
    },
    {
      "midi": 66,
      "hit": false,
      "t": 362999.63700000074,
      "d": 333.33299999998417,
      "v": 64
    },
    {
      "midi": 57,
      "hit": false,
      "t": 363332.9700000007,
      "d": 333.33299999998417,
      "v": 64
    },
    {
      "midi": 62,
      "hit": false,
      "t": 363332.9700000007,
      "d": 333.33299999998417,
      "v": 64
    },
    {
      "midi": 66,
      "hit": false,
      "t": 363332.9700000007,
      "d": 333.33299999998417,
      "v": 64
    },
    {
      "midi": 62,
      "hit": false,
      "t": 363666.3030000007,
      "d": 333.33299999998417,
      "v": 64
    },
    {
      "midi": 57,
      "hit": false,
      "t": 363999.6360000007,
      "d": 166.66649999999208,
      "v": 64
    },
    {
      "midi": 62,
      "hit": false,
      "t": 363999.6360000007,
      "d": 166.66649999999208,
      "v": 64
    },
    {
      "midi": 67,
      "hit": false,
      "t": 363999.6360000007,
      "d": 166.66649999999208,
      "v": 64
    },
    {
      "midi": 43,
      "hit": false,
      "t": 363999.6360000012,
      "d": 999.9990000000107,
      "v": 64
    },
    {
      "midi": 67,
      "hit": false,
      "t": 364166.3025000007,
      "d": 166.66649999999208,
      "v": 64
    },
    {
      "midi": 57,
      "hit": false,
      "t": 364332.9690000007,
      "d": 666.6660000000265,
      "v": 64
    },
    {
      "midi": 62,
      "hit": false,
      "t": 364332.9690000007,
      "d": 666.6660000000265,
      "v": 64
    },
    {
      "midi": 66,
      "hit": false,
      "t": 364332.9690000007,
      "d": 666.6660000000265,
      "v": 64
    },
    {
      "midi": 57,
      "hit": false,
      "t": 364999.6350000007,
      "d": 333.33299999998417,
      "v": 64
    },
    {
      "midi": 62,
      "hit": false,
      "t": 364999.6350000007,
      "d": 333.33299999998417,
      "v": 64
    },
    {
      "midi": 64,
      "hit": false,
      "t": 364999.6350000007,
      "d": 333.33299999998417,
      "v": 64
    },
    {
      "midi": 45,
      "hit": false,
      "t": 364999.63500000123,
      "d": 333.33299999998417,
      "v": 64
    },
    {
      "midi": 57,
      "hit": false,
      "t": 365666.3010000007,
      "d": 333.33299999998417,
      "v": 64
    },
    {
      "midi": 57,
      "hit": false,
      "t": 365999.63400000066,
      "d": 333.33299999998417,
      "v": 64
    },
    {
      "midi": 57,
      "hit": false,
      "t": 366332.96700000064,
      "d": 333.33299999998417,
      "v": 64
    },
    {
      "midi": 45,
      "hit": false,
      "t": 366332.9670000012,
      "d": 333.33299999998417,
      "v": 64
    },
    {
      "midi": 57,
      "hit": false,
      "t": 366666.3000000006,
      "d": 333.33299999998417,
      "v": 64
    },
    {
      "midi": 62,
      "hit": false,
      "t": 366666.3000000006,
      "d": 333.33299999998417,
      "v": 64
    },
    {
      "midi": 66,
      "hit": false,
      "t": 366666.3000000006,
      "d": 333.33299999998417,
      "v": 64
    },
    {
      "midi": 45,
      "hit": false,
      "t": 366666.3000000012,
      "d": 666.6660000000265,
      "v": 64
    },
    {
      "midi": 66,
      "hit": false,
      "t": 366999.6330000006,
      "d": 333.33299999998417,
      "v": 64
    },
    {
      "midi": 57,
      "hit": false,
      "t": 367332.9660000006,
      "d": 333.33299999998417,
      "v": 64
    },
    {
      "midi": 61,
      "hit": false,
      "t": 367332.9660000006,
      "d": 333.33299999998417,
      "v": 64
    },
    {
      "midi": 64,
      "hit": false,
      "t": 367332.9660000006,
      "d": 333.33299999998417,
      "v": 64
    },
    {
      "midi": 45,
      "hit": false,
      "t": 367332.96600000124,
      "d": 666.6660000000265,
      "v": 64
    },
    {
      "midi": 62,
      "hit": false,
      "t": 367666.2990000006,
      "d": 333.33299999998417,
      "v": 64
    },
    {
      "midi": 57,
      "hit": false,
      "t": 367999.63200000057,
      "d": 1999.9980000000214,
      "v": 64
    },
    {
      "midi": 59,
      "hit": false,
      "t": 367999.63200000057,
      "d": 1999.9980000000214,
      "v": 64
    },
    {
      "midi": 62,
      "hit": false,
      "t": 367999.63200000057,
      "d": 1999.9980000000214,
      "v": 64
    },
    {
      "midi": 43,
      "hit": false,
      "t": 367999.63200000126,
      "d": 999.9990000000107,
      "v": 64
    },
    {
      "midi": 43,
      "hit": false,
      "t": 368999.6310000013,
      "d": 666.6660000000265,
      "v": 64
    },
    {
      "midi": 43,
      "hit": false,
      "t": 369666.2970000013,
      "d": 333.33299999998417,
      "v": 64
    },
    {
      "midi": 71,
      "hit": false,
      "t": 369999.6300000006,
      "d": 666.6660000000265,
      "v": 64
    },
    {
      "midi": 47,
      "hit": false,
      "t": 369999.6300000013,
      "d": 333.33299999998417,
      "v": 64
    },
    {
      "midi": 45,
      "hit": false,
      "t": 370332.96300000127,
      "d": 333.33299999998417,
      "v": 64
    },
    {
      "midi": 62,
      "hit": false,
      "t": 370666.2960000006,
      "d": 666.6660000000265,
      "v": 64
    },
    {
      "midi": 64,
      "hit": false,
      "t": 370666.2960000006,
      "d": 666.6660000000265,
      "v": 64
    },
    {
      "midi": 69,
      "hit": false,
      "t": 370666.2960000006,
      "d": 666.6660000000265,
      "v": 64
    },
    {
      "midi": 45,
      "hit": false,
      "t": 370666.29600000125,
      "d": 666.6660000000265,
      "v": 64
    },
    {
      "midi": 62,
      "hit": false,
      "t": 371332.96200000064,
      "d": 333.33299999998417,
      "v": 64
    },
    {
      "midi": 64,
      "hit": false,
      "t": 371332.96200000064,
      "d": 333.33299999998417,
      "v": 64
    },
    {
      "midi": 69,
      "hit": false,
      "t": 371332.96200000064,
      "d": 333.33299999998417,
      "v": 64
    },
    {
      "midi": 45,
      "hit": false,
      "t": 371332.9620000013,
      "d": 666.6660000000265,
      "v": 64
    },
    {
      "midi": 66,
      "hit": false,
      "t": 371666.2950000006,
      "d": 333.33299999998417,
      "v": 64
    },
    {
      "midi": 62,
      "hit": false,
      "t": 371999.6280000006,
      "d": 333.33299999998417,
      "v": 64
    },
    {
      "midi": 64,
      "hit": false,
      "t": 371999.6280000006,
      "d": 333.33299999998417,
      "v": 64
    },
    {
      "midi": 69,
      "hit": false,
      "t": 371999.6280000006,
      "d": 333.33299999998417,
      "v": 64
    },
    {
      "midi": 45,
      "hit": false,
      "t": 371999.6280000013,
      "d": 666.6660000000265,
      "v": 64
    },
    {
      "midi": 66,
      "hit": false,
      "t": 372332.9610000006,
      "d": 333.33299999998417,
      "v": 64
    },
    {
      "midi": 62,
      "hit": false,
      "t": 372666.2940000006,
      "d": 666.6660000000265,
      "v": 64
    },
    {
      "midi": 64,
      "hit": false,
      "t": 372666.2940000006,
      "d": 666.6660000000265,
      "v": 64
    },
    {
      "midi": 69,
      "hit": false,
      "t": 372666.2940000006,
      "d": 666.6660000000265,
      "v": 64
    },
    {
      "midi": 45,
      "hit": false,
      "t": 372666.29400000133,
      "d": 666.6660000000265,
      "v": 64
    },
    {
      "midi": 57,
      "hit": false,
      "t": 373332.9600000006,
      "d": 333.33299999998417,
      "v": 64
    },
    {
      "midi": 62,
      "hit": false,
      "t": 373332.9600000006,
      "d": 333.33299999998417,
      "v": 64
    },
    {
      "midi": 66,
      "hit": false,
      "t": 373332.9600000006,
      "d": 333.33299999998417,
      "v": 64
    },
    {
      "midi": 50,
      "hit": false,
      "t": 373332.96000000136,
      "d": 1333.3319999999949,
      "v": 64
    },
    {
      "midi": 66,
      "hit": false,
      "t": 373666.2930000006,
      "d": 333.33299999998417,
      "v": 64
    },
    {
      "midi": 66,
      "hit": false,
      "t": 373999.6260000006,
      "d": 333.33299999998417,
      "v": 64
    },
    {
      "midi": 57,
      "hit": false,
      "t": 374332.95900000056,
      "d": 666.6660000000265,
      "v": 64
    },
    {
      "midi": 62,
      "hit": false,
      "t": 374332.95900000056,
      "d": 666.6660000000265,
      "v": 64
    },
    {
      "midi": 67,
      "hit": false,
      "t": 374332.95900000056,
      "d": 666.6660000000265,
      "v": 64
    },
    {
      "midi": 43,
      "hit": false,
      "t": 374666.29200000135,
      "d": 1333.3319999999949,
      "v": 64
    },
    {
      "midi": 67,
      "hit": false,
      "t": 374999.6250000006,
      "d": 333.33299999998417,
      "v": 64
    },
    {
      "midi": 66,
      "hit": false,
      "t": 375332.95800000057,
      "d": 333.33299999998417,
      "v": 64
    },
    {
      "midi": 66,
      "hit": false,
      "t": 375666.29100000055,
      "d": 333.33299999998417,
      "v": 64
    },
    {
      "midi": 57,
      "hit": false,
      "t": 375999.62400000053,
      "d": 333.33299999998417,
      "v": 64
    },
    {
      "midi": 62,
      "hit": false,
      "t": 375999.62400000053,
      "d": 333.33299999998417,
      "v": 64
    },
    {
      "midi": 66,
      "hit": false,
      "t": 375999.62400000053,
      "d": 333.33299999998417,
      "v": 64
    },
    {
      "midi": 45,
      "hit": false,
      "t": 375999.62400000135,
      "d": 2666.6639999999898,
      "v": 64
    },
    {
      "midi": 64,
      "hit": false,
      "t": 376332.9570000005,
      "d": 166.66649999999208,
      "v": 64
    },
    {
      "midi": 64,
      "hit": false,
      "t": 376499.6235000005,
      "d": 166.66649999999208,
      "v": 64
    },
    {
      "midi": 66,
      "hit": false,
      "t": 376666.2900000005,
      "d": 1333.3319999999949,
      "v": 64
    },
    {
      "midi": 62,
      "hit": false,
      "t": 378332.9550000005,
      "d": 166.66649999999208,
      "v": 64
    },
    {
      "midi": 64,
      "hit": false,
      "t": 378499.6215000005,
      "d": 166.66649999999208,
      "v": 64
    },
    {
      "midi": 57,
      "hit": false,
      "t": 378666.28800000047,
      "d": 333.33299999998417,
      "v": 64
    },
    {
      "midi": 62,
      "hit": false,
      "t": 378666.28800000047,
      "d": 333.33299999998417,
      "v": 64
    },
    {
      "midi": 66,
      "hit": false,
      "t": 378666.28800000047,
      "d": 333.33299999998417,
      "v": 64
    },
    {
      "midi": 50,
      "hit": false,
      "t": 378666.28800000134,
      "d": 1333.3319999999949,
      "v": 64
    },
    {
      "midi": 66,
      "hit": false,
      "t": 378999.62100000045,
      "d": 333.33299999998417,
      "v": 64
    },
    {
      "midi": 66,
      "hit": false,
      "t": 379332.95400000043,
      "d": 333.33299999998417,
      "v": 64
    },
    {
      "midi": 67,
      "hit": false,
      "t": 379666.2870000004,
      "d": 333.33299999998417,
      "v": 64
    },
    {
      "midi": 62,
      "hit": false,
      "t": 379999.6200000004,
      "d": 333.33299999998417,
      "v": 64
    },
    {
      "midi": 43,
      "hit": false,
      "t": 379999.62000000133,
      "d": 1333.3319999999949,
      "v": 64
    },
    {
      "midi": 69,
      "hit": false,
      "t": 380332.9530000004,
      "d": 333.33299999998417,
      "v": 64
    },
    {
      "midi": 69,
      "hit": false,
      "t": 380666.2860000004,
      "d": 333.33299999998417,
      "v": 64
    },
    {
      "midi": 62,
      "hit": false,
      "t": 380999.61900000036,
      "d": 333.33299999998417,
      "v": 64
    },
    {
      "midi": 64,
      "hit": false,
      "t": 380999.61900000036,
      "d": 333.33299999998417,
      "v": 64
    },
    {
      "midi": 69,
      "hit": false,
      "t": 380999.61900000036,
      "d": 333.33299999998417,
      "v": 64
    },
    {
      "midi": 40,
      "hit": false,
      "t": 381332.9520000013,
      "d": 2666.6639999999898,
      "v": 64
    },
    {
      "midi": 69,
      "hit": false,
      "t": 381666.2850000003,
      "d": 666.6660000000265,
      "v": 64
    },
    {
      "midi": 71,
      "hit": false,
      "t": 382332.95100000035,
      "d": 999.9990000000107,
      "v": 64
    },
    {
      "midi": 62,
      "hit": false,
      "t": 383332.95000000036,
      "d": 333.33299999998417,
      "v": 64
    },
    {
      "midi": 64,
      "hit": false,
      "t": 383666.28300000035,
      "d": 333.33299999998417,
      "v": 64
    },
    {
      "midi": 57,
      "hit": false,
      "t": 383999.61600000033,
      "d": 333.33299999998417,
      "v": 64
    },
    {
      "midi": 62,
      "hit": false,
      "t": 383999.61600000033,
      "d": 333.33299999998417,
      "v": 64
    },
    {
      "midi": 66,
      "hit": false,
      "t": 383999.61600000033,
      "d": 333.33299999998417,
      "v": 64
    },
    {
      "midi": 50,
      "hit": false,
      "t": 383999.6160000013,
      "d": 1333.3319999999949,
      "v": 64
    },
    {
      "midi": 66,
      "hit": false,
      "t": 384332.9490000003,
      "d": 333.33299999998417,
      "v": 64
    },
    {
      "midi": 66,
      "hit": false,
      "t": 384666.2820000003,
      "d": 333.33299999998417,
      "v": 64
    },
    {
      "midi": 57,
      "hit": false,
      "t": 384999.6150000003,
      "d": 666.6660000000265,
      "v": 64
    },
    {
      "midi": 62,
      "hit": false,
      "t": 384999.6150000003,
      "d": 666.6660000000265,
      "v": 64
    },
    {
      "midi": 67,
      "hit": false,
      "t": 384999.6150000003,
      "d": 666.6660000000265,
      "v": 64
    },
    {
      "midi": 43,
      "hit": false,
      "t": 385332.9480000013,
      "d": 666.6660000000265,
      "v": 64
    },
    {
      "midi": 57,
      "hit": false,
      "t": 385666.2810000003,
      "d": 333.33299999998417,
      "v": 64
    },
    {
      "midi": 62,
      "hit": false,
      "t": 385666.2810000003,
      "d": 333.33299999998417,
      "v": 64
    },
    {
      "midi": 66,
      "hit": false,
      "t": 385666.2810000003,
      "d": 333.33299999998417,
      "v": 64
    },
    {
      "midi": 67,
      "hit": false,
      "t": 385999.6140000003,
      "d": 333.33299999998417,
      "v": 64
    },
    {
      "midi": 55,
      "hit": false,
      "t": 385999.61400000134,
      "d": 333.33299999998417,
      "v": 64
    },
    {
      "midi": 66,
      "hit": false,
      "t": 386332.9470000003,
      "d": 333.33299999998417,
      "v": 64
    },
    {
      "midi": 43,
      "hit": false,
      "t": 386332.9470000013,
      "d": 333.33299999998417,
      "v": 64
    },
    {
      "midi": 57,
      "hit": false,
      "t": 386666.28000000026,
      "d": 166.66649999999208,
      "v": 64
    },
    {
      "midi": 61,
      "hit": false,
      "t": 386666.28000000026,
      "d": 166.66649999999208,
      "v": 64
    },
    {
      "midi": 66,
      "hit": false,
      "t": 386666.28000000026,
      "d": 166.66649999999208,
      "v": 64
    },
    {
      "midi": 45,
      "hit": false,
      "t": 386666.2800000013,
      "d": 2666.6639999999898,
      "v": 64
    },
    {
      "midi": 64,
      "hit": false,
      "t": 386832.94650000025,
      "d": 166.66649999999208,
      "v": 64
    },
    {
      "midi": 64,
      "hit": false,
      "t": 386999.61300000024,
      "d": 166.66649999999208,
      "v": 64
    },
    {
      "midi": 66,
      "hit": false,
      "t": 387166.27950000024,
      "d": 499.99949999997625,
      "v": 64
    },
    {
      "midi": 57,
      "hit": false,
      "t": 387666.2790000002,
      "d": 333.33299999998417,
      "v": 64
    },
    {
      "midi": 57,
      "hit": false,
      "t": 387999.6120000002,
      "d": 666.6660000000265,
      "v": 64
    },
    {
      "midi": 62,
      "hit": false,
      "t": 387999.6120000002,
      "d": 666.6660000000265,
      "v": 64
    },
    {
      "midi": 66,
      "hit": false,
      "t": 387999.6120000002,
      "d": 666.6660000000265,
      "v": 64
    },
    {
      "midi": 57,
      "hit": false,
      "t": 388666.2780000002,
      "d": 333.33299999998417,
      "v": 64
    },
    {
      "midi": 64,
      "hit": false,
      "t": 388666.2780000002,
      "d": 333.33299999998417,
      "v": 64
    },
    {
      "midi": 62,
      "hit": false,
      "t": 388999.6110000002,
      "d": 333.33299999998417,
      "v": 64
    },
    {
      "midi": 62,
      "hit": false,
      "t": 389332.9440000002,
      "d": 333.33299999998417,
      "v": 64
    },
    {
      "midi": 43,
      "hit": false,
      "t": 389332.9440000013,
      "d": 2666.6639999999898,
      "v": 64
    },
    {
      "midi": 50,
      "hit": false,
      "t": 389666.2770000002,
      "d": 333.33299999998417,
      "v": 64
    },
    {
      "midi": 55,
      "hit": false,
      "t": 389999.61000000016,
      "d": 333.33299999998417,
      "v": 64
    },
    {
      "midi": 57,
      "hit": false,
      "t": 390332.94300000014,
      "d": 999.9990000000107,
      "v": 64
    },
    {
      "midi": 62,
      "hit": false,
      "t": 390332.94300000014,
      "d": 999.9990000000107,
      "v": 64
    },
    {
      "midi": 55,
      "hit": false,
      "t": 391332.94200000016,
      "d": 333.33299999998417,
      "v": 64
    },
    {
      "midi": 62,
      "hit": false,
      "t": 391332.94200000016,
      "d": 333.33299999998417,
      "v": 64
    },
    {
      "midi": 50,
      "hit": false,
      "t": 391666.27500000014,
      "d": 333.33299999998417,
      "v": 64
    },
    {
      "midi": 57,
      "hit": false,
      "t": 391999.6080000001,
      "d": 666.6660000000265,
      "v": 64
    },
    {
      "midi": 62,
      "hit": false,
      "t": 391999.6080000001,
      "d": 666.6660000000265,
      "v": 64
    },
    {
      "midi": 64,
      "hit": false,
      "t": 391999.6080000001,
      "d": 666.6660000000265,
      "v": 64
    },
    {
      "midi": 45,
      "hit": false,
      "t": 391999.6080000013,
      "d": 2666.6639999999898,
      "v": 64
    },
    {
      "midi": 57,
      "hit": false,
      "t": 392666.27400000015,
      "d": 333.33299999998417,
      "v": 64
    },
    {
      "midi": 57,
      "hit": false,
      "t": 392999.60700000013,
      "d": 333.33299999998417,
      "v": 64
    },
    {
      "midi": 66,
      "hit": false,
      "t": 393332.9400000001,
      "d": 666.6660000000265,
      "v": 64
    },
    {
      "midi": 64,
      "hit": false,
      "t": 393999.60600000015,
      "d": 333.33299999998417,
      "v": 64
    },
    {
      "midi": 62,
      "hit": false,
      "t": 394332.93900000013,
      "d": 333.33299999998417,
      "v": 64
    },
    {
      "midi": 57,
      "hit": false,
      "t": 394666.2720000001,
      "d": 666.6660000000265,
      "v": 64
    },
    {
      "midi": 62,
      "hit": false,
      "t": 394666.2720000001,
      "d": 666.6660000000265,
      "v": 64
    },
    {
      "midi": 66,
      "hit": false,
      "t": 394666.2720000001,
      "d": 666.6660000000265,
      "v": 64
    },
    {
      "midi": 50,
      "hit": false,
      "t": 394666.2720000013,
      "d": 999.9990000000107,
      "v": 64
    },
    {
      "midi": 62,
      "hit": false,
      "t": 395332.93800000014,
      "d": 333.33299999998417,
      "v": 64
    },
    {
      "midi": 57,
      "hit": false,
      "t": 395666.2710000001,
      "d": 666.6660000000265,
      "v": 64
    },
    {
      "midi": 62,
      "hit": false,
      "t": 395666.2710000001,
      "d": 666.6660000000265,
      "v": 64
    },
    {
      "midi": 67,
      "hit": false,
      "t": 395666.2710000001,
      "d": 666.6660000000265,
      "v": 64
    },
    {
      "midi": 50,
      "hit": false,
      "t": 395666.2710000013,
      "d": 1333.3319999999949,
      "v": 64
    },
    {
      "midi": 66,
      "hit": false,
      "t": 396332.93700000015,
      "d": 666.6660000000265,
      "v": 64
    },
    {
      "midi": 57,
      "hit": false,
      "t": 396999.6030000002,
      "d": 333.33299999998417,
      "v": 64
    },
    {
      "midi": 62,
      "hit": false,
      "t": 396999.6030000002,
      "d": 333.33299999998417,
      "v": 64
    },
    {
      "midi": 64,
      "hit": false,
      "t": 396999.6030000002,
      "d": 333.33299999998417,
      "v": 64
    },
    {
      "midi": 52,
      "hit": false,
      "t": 396999.6030000013,
      "d": 333.33299999998417,
      "v": 64
    },
    {
      "midi": 52,
      "hit": false,
      "t": 397332.93600000127,
      "d": 2666.6639999999898,
      "v": 64
    },
    {
      "midi": 57,
      "hit": false,
      "t": 398166.2685000002,
      "d": 166.66649999999208,
      "v": 64
    },
    {
      "midi": 57,
      "hit": false,
      "t": 398332.9350000002,
      "d": 333.33299999998417,
      "v": 64
    },
    {
      "midi": 57,
      "hit": false,
      "t": 398666.26800000016,
      "d": 666.6660000000265,
      "v": 64
    },
    {
      "midi": 62,
      "hit": false,
      "t": 398666.26800000016,
      "d": 666.6660000000265,
      "v": 64
    },
    {
      "midi": 66,
      "hit": false,
      "t": 398666.26800000016,
      "d": 666.6660000000265,
      "v": 64
    },
    {
      "midi": 55,
      "hit": false,
      "t": 399332.9340000002,
      "d": 333.33299999998417,
      "v": 64
    },
    {
      "midi": 64,
      "hit": false,
      "t": 399332.9340000002,
      "d": 333.33299999998417,
      "v": 64
    },
    {
      "midi": 62,
      "hit": false,
      "t": 399666.26700000017,
      "d": 333.33299999998417,
      "v": 64
    },
    {
      "midi": 54,
      "hit": false,
      "t": 399999.60000000015,
      "d": 1333.3319999999949,
      "v": 64
    },
    {
      "midi": 57,
      "hit": false,
      "t": 399999.60000000015,
      "d": 1333.3319999999949,
      "v": 64
    },
    {
      "midi": 62,
      "hit": false,
      "t": 399999.60000000015,
      "d": 1333.3319999999949,
      "v": 64
    },
    {
      "midi": 38,
      "hit": false,
      "t": 399999.60000000126,
      "d": 2666.6639999999898,
      "v": 64
    },
    {
      "midi": 50,
      "hit": false,
      "t": 399999.60000000126,
      "d": 2666.6639999999898,
      "v": 64
    },
    {
      "midi": 69,
      "hit": false,
      "t": 401666.26500000013,
      "d": 333.33299999998417,
      "v": 64
    },
    {
      "midi": 74,
      "hit": false,
      "t": 401999.5980000001,
      "d": 333.33299999998417,
      "v": 64
    },
    {
      "midi": 76,
      "hit": false,
      "t": 402332.9310000001,
      "d": 333.33299999998417,
      "v": 64
    },
    {
      "midi": 69,
      "hit": false,
      "t": 402666.2640000001,
      "d": 333.33299999998417,
      "v": 64
    },
    {
      "midi": 74,
      "hit": false,
      "t": 402666.2640000001,
      "d": 333.33299999998417,
      "v": 64
    },
    {
      "midi": 78,
      "hit": false,
      "t": 402666.2640000001,
      "d": 333.33299999998417,
      "v": 64
    },
    {
      "midi": 69,
      "hit": false,
      "t": 402999.59700000007,
      "d": 333.33299999998417,
      "v": 64
    },
    {
      "midi": 74,
      "hit": false,
      "t": 402999.59700000007,
      "d": 333.33299999998417,
      "v": 64
    },
    {
      "midi": 79,
      "hit": false,
      "t": 402999.59700000007,
      "d": 333.33299999998417,
      "v": 64
    },
    {
      "midi": 69,
      "hit": false,
      "t": 403332.93000000005,
      "d": 333.33299999998417,
      "v": 64
    },
    {
      "midi": 74,
      "hit": false,
      "t": 403332.93000000005,
      "d": 333.33299999998417,
      "v": 64
    },
    {
      "midi": 78,
      "hit": false,
      "t": 403332.93000000005,
      "d": 333.33299999998417,
      "v": 64
    },
    {
      "midi": 69,
      "hit": false,
      "t": 403666.26300000004,
      "d": 333.33299999998417,
      "v": 64
    },
    {
      "midi": 74,
      "hit": false,
      "t": 403666.26300000004,
      "d": 333.33299999998417,
      "v": 64
    },
    {
      "midi": 76,
      "hit": false,
      "t": 403666.26300000004,
      "d": 333.33299999998417,
      "v": 64
    },
    {
      "midi": 69,
      "hit": false,
      "t": 403999.596,
      "d": 1333.3319999999949,
      "v": 64
    },
    {
      "midi": 74,
      "hit": false,
      "t": 403999.596,
      "d": 1333.3319999999949,
      "v": 64
    },
    {
      "midi": 76,
      "hit": false,
      "t": 403999.596,
      "d": 1333.3319999999949,
      "v": 64
    }
  ]
}