{
  "jsonPath": "Unknown/Unknown/Shakira feat Gustavo Cerati/no-featuring-gustavo-cerati.json",
  "path": "Unknown\\Unknown\\Shakira feat Gustavo Cerati\\No (featuring Gustavo Cerati).mid",
  "name": "No (featuring Gustavo Cerati)",
  "difficulty": "Intermediate",
  "bpm": 132.000132000132,
  "notes": [
    {
      "midi": 67,
      "hit": false,
      "t": 103636.26,
      "d": 160.98468749999302,
      "v": 100
    },
    {
      "midi": 67,
      "hit": false,
      "t": 103863.53249999999,
      "d": 137.31046875000175,
      "v": 100
    },
    {
      "midi": 67,
      "hit": false,
      "t": 104090.805,
      "d": 208.33312500000466,
      "v": 100
    },
    {
      "midi": 70,
      "hit": false,
      "t": 104318.0775,
      "d": 336.17390624999825,
      "v": 100
    },
    {
      "midi": 67,
      "hit": false,
      "t": 104772.6225,
      "d": 369.3178124999977,
      "v": 100
    },
    {
      "midi": 63,
      "hit": false,
      "t": 105227.1675,
      "d": 885.4157812500052,
      "v": 100
    },
    {
      "midi": 60,
      "hit": false,
      "t": 106136.2575,
      "d": 449.8101562499942,
      "v": 100
    },
    {
      "midi": 56,
      "hit": false,
      "t": 106590.8025,
      "d": 222.53765625000233,
      "v": 100
    },
    {
      "midi": 58,
      "hit": false,
      "t": 106818.07500000001,
      "d": 255.68156250000175,
      "v": 100
    },
    {
      "midi": 65,
      "hit": false,
      "t": 107045.34750000002,
      "d": 222.53765625000233,
      "v": 100
    },
    {
      "midi": 65,
      "hit": false,
      "t": 107272.62000000002,
      "d": 99.43171874999825,
      "v": 100
    },
    {
      "midi": 65,
      "hit": false,
      "t": 107499.89250000002,
      "d": 89.96203125000466,
      "v": 100
    },
    {
      "midi": 65,
      "hit": false,
      "t": 107727.16500000002,
      "d": 85.22718750000058,
      "v": 100
    },
    {
      "midi": 65,
      "hit": false,
      "t": 107954.43750000003,
      "d": 956.4384374999936,
      "v": 100
    },
    {
      "midi": 58,
      "hit": false,
      "t": 108408.98250000003,
      "d": 2495.2626562499936,
      "v": 100
    },
    {
      "midi": 60,
      "hit": false,
      "t": 108863.52750000003,
      "d": 2040.7176562499953,
      "v": 100
    },
    {
      "midi": 67,
      "hit": false,
      "t": 110908.98000000003,
      "d": 160.98468749999302,
      "v": 100
    },
    {
      "midi": 67,
      "hit": false,
      "t": 111136.25250000002,
      "d": 137.31046875000175,
      "v": 100
    },
    {
      "midi": 67,
      "hit": false,
      "t": 111363.52500000002,
      "d": 208.33312500000466,
      "v": 100
    },
    {
      "midi": 70,
      "hit": false,
      "t": 111590.79750000003,
      "d": 336.17390624999825,
      "v": 100
    },
    {
      "midi": 67,
      "hit": false,
      "t": 112045.34250000003,
      "d": 369.3178124999977,
      "v": 100
    },
    {
      "midi": 63,
      "hit": false,
      "t": 112499.88750000003,
      "d": 885.4157812500052,
      "v": 100
    },
    {
      "midi": 60,
      "hit": false,
      "t": 113408.97750000004,
      "d": 449.8101562499942,
      "v": 100
    },
    {
      "midi": 56,
      "hit": false,
      "t": 113863.52250000004,
      "d": 222.53765625000233,
      "v": 100
    },
    {
      "midi": 58,
      "hit": false,
      "t": 114090.79500000004,
      "d": 255.68156250000175,
      "v": 100
    },
    {
      "midi": 65,
      "hit": false,
      "t": 114318.06750000005,
      "d": 222.53765625000233,
      "v": 100
    },
    {
      "midi": 65,
      "hit": false,
      "t": 114545.34000000005,
      "d": 99.43171874999825,
      "v": 100
    },
    {
      "midi": 65,
      "hit": false,
      "t": 114772.61250000005,
      "d": 89.96203125000466,
      "v": 100
    },
    {
      "midi": 65,
      "hit": false,
      "t": 114999.88500000005,
      "d": 85.22718750000058,
      "v": 100
    },
    {
      "midi": 65,
      "hit": false,
      "t": 115227.15750000006,
      "d": 956.4384374999936,
      "v": 100
    },
    {
      "midi": 58,
      "hit": false,
      "t": 115681.70250000006,
      "d": 2495.2626562499936,
      "v": 100
    },
    {
      "midi": 56,
      "hit": false,
      "t": 116136.24750000006,
      "d": 2040.7176562499953,
      "v": 100
    },
    {
      "midi": 67,
      "hit": false,
      "t": 132727.14000000004,
      "d": 1406.2485937499732,
      "v": 100
    },
    {
      "midi": 72,
      "hit": false,
      "t": 132954.41250000003,
      "d": 1160.0367187499942,
      "v": 91
    },
    {
      "midi": 68,
      "hit": false,
      "t": 134545.32,
      "d": 1453.5970312499849,
      "v": 93
    },
    {
      "midi": 74,
      "hit": false,
      "t": 134772.5925,
      "d": 1249.9987499999988,
      "v": 82
    },
    {
      "midi": 68,
      "hit": false,
      "t": 136363.5,
      "d": 1330.4910937499953,
      "v": 91
    },
    {
      "midi": 75,
      "hit": false,
      "t": 136590.7725,
      "d": 1098.483750000014,
      "v": 95
    },
    {
      "midi": 68,
      "hit": false,
      "t": 138181.68,
      "d": 1813.4451562500035,
      "v": 95
    },
    {
      "midi": 72,
      "hit": false,
      "t": 138408.95249999998,
      "d": 1586.1726562500116,
      "v": 89
    },
    {
      "midi": 60,
      "hit": false,
      "t": 139999.86,
      "d": 762.3098437500012,
      "v": 100
    },
    {
      "midi": 68,
      "hit": false,
      "t": 140227.13249999998,
      "d": 1586.1726562499825,
      "v": 88
    },
    {
      "midi": 63,
      "hit": false,
      "t": 140681.6775,
      "d": 1131.6276562499697,
      "v": 91
    },
    {
      "midi": 60,
      "hit": false,
      "t": 141136.22249999997,
      "d": 677.082656249986,
      "v": 95
    },
    {
      "midi": 67,
      "hit": false,
      "t": 142272.58499999996,
      "d": 1226.324531249993,
      "v": 80
    },
    {
      "midi": 70,
      "hit": false,
      "t": 142499.85749999995,
      "d": 984.8475000000035,
      "v": 93
    },
    {
      "midi": 67,
      "hit": false,
      "t": 143636.21999999994,
      "d": 1803.9754687499953,
      "v": 80
    },
    {
      "midi": 70,
      "hit": false,
      "t": 143636.21999999994,
      "d": 1803.9754687499953,
      "v": 88
    },
    {
      "midi": 74,
      "hit": false,
      "t": 143636.21999999994,
      "d": 1803.9754687499953,
      "v": 84
    },
    {
      "midi": 58,
      "hit": false,
      "t": 205454.33999999994,
      "d": 1652.4604687500105,
      "v": 100
    },
    {
      "midi": 63,
      "hit": false,
      "t": 205454.33999999994,
      "d": 1652.4604687500105,
      "v": 100
    },
    {
      "midi": 48,
      "hit": false,
      "t": 205454.33999999994,
      "d": 1661.9301562500186,
      "v": 100
    },
    {
      "midi": 55,
      "hit": false,
      "t": 205454.33999999994,
      "d": 1661.9301562500186,
      "v": 100
    },
    {
      "midi": 51,
      "hit": false,
      "t": 207272.51999999996,
      "d": 1003.7868749999907,
      "v": 100
    },
    {
      "midi": 55,
      "hit": false,
      "t": 207272.51999999996,
      "d": 1249.9987499999988,
      "v": 100
    },
    {
      "midi": 44,
      "hit": false,
      "t": 207272.51999999996,
      "d": 1766.096718750021,
      "v": 100
    },
    {
      "midi": 60,
      "hit": false,
      "t": 207272.51999999996,
      "d": 1775.56640625,
      "v": 100
    },
    {
      "midi": 51,
      "hit": false,
      "t": 208408.88249999995,
      "d": 653.4084375000093,
      "v": 100
    },
    {
      "midi": 55,
      "hit": false,
      "t": 208636.15499999997,
      "d": 407.19656250000116,
      "v": 100
    },
    {
      "midi": 58,
      "hit": false,
      "t": 209090.69999999995,
      "d": 1676.1346874999872,
      "v": 100
    },
    {
      "midi": 53,
      "hit": false,
      "t": 209090.69999999995,
      "d": 1709.2785937500012,
      "v": 100
    },
    {
      "midi": 65,
      "hit": false,
      "t": 209090.69999999995,
      "d": 1718.7482812500093,
      "v": 100
    },
    {
      "midi": 60,
      "hit": false,
      "t": 209090.69999999995,
      "d": 1737.6876562499965,
      "v": 100
    },
    {
      "midi": 56,
      "hit": false,
      "t": 210908.87999999995,
      "d": 1529.3545312499919,
      "v": 100
    },
    {
      "midi": 53,
      "hit": false,
      "t": 210908.87999999995,
      "d": 1586.1726562499825,
      "v": 100
    },
    {
      "midi": 63,
      "hit": false,
      "t": 210908.87999999995,
      "d": 1590.907499999972,
      "v": 100
    },
    {
      "midi": 60,
      "hit": false,
      "t": 210908.87999999995,
      "d": 1609.8468749999593,
      "v": 100
    },
    {
      "midi": 58,
      "hit": false,
      "t": 212727.0599999999,
      "d": 1652.4604687500105,
      "v": 100
    },
    {
      "midi": 63,
      "hit": false,
      "t": 212727.0599999999,
      "d": 1652.4604687500105,
      "v": 100
    },
    {
      "midi": 48,
      "hit": false,
      "t": 212727.0599999999,
      "d": 1661.9301562500186,
      "v": 100
    },
    {
      "midi": 55,
      "hit": false,
      "t": 212727.0599999999,
      "d": 1661.9301562500186,
      "v": 100
    },
    {
      "midi": 51,
      "hit": false,
      "t": 214545.23999999993,
      "d": 1003.7868749999907,
      "v": 100
    },
    {
      "midi": 55,
      "hit": false,
      "t": 214545.23999999993,
      "d": 1249.9987499999988,
      "v": 100
    },
    {
      "midi": 44,
      "hit": false,
      "t": 214545.23999999993,
      "d": 1766.096718750021,
      "v": 100
    },
    {
      "midi": 60,
      "hit": false,
      "t": 214545.23999999993,
      "d": 1775.56640625,
      "v": 100
    },
    {
      "midi": 51,
      "hit": false,
      "t": 215681.60249999992,
      "d": 653.4084375000093,
      "v": 100
    },
    {
      "midi": 55,
      "hit": false,
      "t": 215908.87499999994,
      "d": 407.19656250000116,
      "v": 100
    },
    {
      "midi": 58,
      "hit": false,
      "t": 216363.41999999993,
      "d": 1676.1346874999872,
      "v": 100
    },
    {
      "midi": 53,
      "hit": false,
      "t": 216363.41999999993,
      "d": 1709.2785937500012,
      "v": 100
    },
    {
      "midi": 65,
      "hit": false,
      "t": 216363.41999999993,
      "d": 1718.7482812500093,
      "v": 100
    },
    {
      "midi": 60,
      "hit": false,
      "t": 216363.41999999993,
      "d": 1737.6876562499965,
      "v": 100
    },
    {
      "midi": 56,
      "hit": false,
      "t": 218181.59999999992,
      "d": 1529.3545312499919,
      "v": 100
    },
    {
      "midi": 53,
      "hit": false,
      "t": 218181.59999999992,
      "d": 1586.1726562499825,
      "v": 100
    },
    {
      "midi": 63,
      "hit": false,
      "t": 218181.59999999992,
      "d": 1590.907499999972,
      "v": 100
    },
    {
      "midi": 60,
      "hit": false,
      "t": 218181.59999999992,
      "d": 1609.8468749999593,
      "v": 100
    }
  ]
}