{
  "jsonPath": "Rock/Art Rock/Keith Emerson/close-to-home.json",
  "path": "Rock\\Art Rock\\Keith Emerson\\Close to Home.mid",
  "name": "Close to Home",
  "difficulty": "Advanced",
  "bpm": 113.00030886751091,
  "notes": [
    {
      "midi": 56,
      "hit": false,
      "t": 2400,
      "d": 2400,
      "v": 100
    },
    {
      "midi": 68,
      "hit": false,
      "t": 3600,
      "d": 1200,
      "v": 100
    },
    {
      "midi": 61,
      "hit": false,
      "t": 4800,
      "d": 2400,
      "v": 100
    },
    {
      "midi": 68,
      "hit": false,
      "t": 4800,
      "d": 2400,
      "v": 100
    },
    {
      "midi": 53,
      "hit": false,
      "t": 4800,
      "d": 2400,
      "v": 100
    },
    {
      "midi": 56,
      "hit": false,
      "t": 6000,
      "d": 1200,
      "v": 100
    },
    {
      "midi": 56,
      "hit": false,
      "t": 7200,
      "d": 1200,
      "v": 100
    },
    {
      "midi": 60,
      "hit": false,
      "t": 7200,
      "d": 2400,
      "v": 100
    },
    {
      "midi": 32,
      "hit": false,
      "t": 7200,
      "d": 2400,
      "v": 100
    },
    {
      "midi": 44,
      "hit": false,
      "t": 7200,
      "d": 2400,
      "v": 100
    },
    {
      "midi": 54,
      "hit": false,
      "t": 8400,
      "d": 1200,
      "v": 100
    },
    {
      "midi": 53,
      "hit": false,
      "t": 9600,
      "d": 2400,
      "v": 100
    },
    {
      "midi": 61,
      "hit": false,
      "t": 9600,
      "d": 2400,
      "v": 100
    },
    {
      "midi": 25,
      "hit": false,
      "t": 9600,
      "d": 7200,
      "v": 100
    },
    {
      "midi": 37,
      "hit": false,
      "t": 9600,
      "d": 7200,
      "v": 100
    },
    {
      "midi": 60,
      "hit": false,
      "t": 12000,
      "d": 300,
      "v": 100
    },
    {
      "midi": 61,
      "hit": false,
      "t": 12300,
      "d": 1800,
      "v": 100
    },
    {
      "midi": 63,
      "hit": false,
      "t": 13500,
      "d": 300,
      "v": 100
    },
    {
      "midi": 65,
      "hit": false,
      "t": 13800,
      "d": 300,
      "v": 100
    },
    {
      "midi": 58,
      "hit": false,
      "t": 14100,
      "d": 300,
      "v": 100
    },
    {
      "midi": 56,
      "hit": false,
      "t": 14400,
      "d": 1800,
      "v": 100
    },
    {
      "midi": 61,
      "hit": false,
      "t": 16200,
      "d": 300,
      "v": 100
    },
    {
      "midi": 60,
      "hit": false,
      "t": 16500,
      "d": 300,
      "v": 100
    },
    {
      "midi": 58,
      "hit": false,
      "t": 16800,
      "d": 1200,
      "v": 100
    },
    {
      "midi": 42,
      "hit": false,
      "t": 16800,
      "d": 600,
      "v": 100
    },
    {
      "midi": 44,
      "hit": false,
      "t": 17400,
      "d": 600,
      "v": 100
    },
    {
      "midi": 49,
      "hit": false,
      "t": 17400,
      "d": 600,
      "v": 100
    },
    {
      "midi": 54,
      "hit": false,
      "t": 18000,
      "d": 600,
      "v": 100
    },
    {
      "midi": 46,
      "hit": false,
      "t": 18000,
      "d": 600,
      "v": 100
    },
    {
      "midi": 56,
      "hit": false,
      "t": 18600,
      "d": 600,
      "v": 100
    },
    {
      "midi": 49,
      "hit": false,
      "t": 18600,
      "d": 600,
      "v": 100
    },
    {
      "midi": 61,
      "hit": false,
      "t": 19200,
      "d": 1780,
      "v": 100
    },
    {
      "midi": 54,
      "hit": false,
      "t": 19200,
      "d": 2400,
      "v": 100
    },
    {
      "midi": 61,
      "hit": false,
      "t": 21000,
      "d": 297.5,
      "v": 100
    },
    {
      "midi": 60,
      "hit": false,
      "t": 21300,
      "d": 300,
      "v": 100
    },
    {
      "midi": 58,
      "hit": false,
      "t": 21600,
      "d": 2400,
      "v": 100
    },
    {
      "midi": 36,
      "hit": false,
      "t": 21600,
      "d": 4800,
      "v": 100
    },
    {
      "midi": 51,
      "hit": false,
      "t": 21600,
      "d": 4800,
      "v": 100
    },
    {
      "midi": 65,
      "hit": false,
      "t": 24000,
      "d": 1200,
      "v": 100
    },
    {
      "midi": 63,
      "hit": false,
      "t": 25200,
      "d": 600,
      "v": 100
    },
    {
      "midi": 62,
      "hit": false,
      "t": 25800,
      "d": 600,
      "v": 100
    },
    {
      "midi": 63,
      "hit": false,
      "t": 26400,
      "d": 600,
      "v": 100
    },
    {
      "midi": 38,
      "hit": false,
      "t": 26400,
      "d": 4800,
      "v": 100
    },
    {
      "midi": 53,
      "hit": false,
      "t": 26400,
      "d": 4800,
      "v": 100
    },
    {
      "midi": 62,
      "hit": false,
      "t": 27000,
      "d": 1800,
      "v": 100
    },
    {
      "midi": 58,
      "hit": false,
      "t": 28800,
      "d": 1200,
      "v": 100
    },
    {
      "midi": 70,
      "hit": false,
      "t": 30000,
      "d": 1200,
      "v": 100
    },
    {
      "midi": 70,
      "hit": false,
      "t": 31200,
      "d": 4800,
      "v": 100
    },
    {
      "midi": 39,
      "hit": false,
      "t": 31200,
      "d": 9600,
      "v": 100
    },
    {
      "midi": 56,
      "hit": false,
      "t": 33600,
      "d": 600,
      "v": 100
    },
    {
      "midi": 61,
      "hit": false,
      "t": 33600,
      "d": 7182.5,
      "v": 100
    },
    {
      "midi": 54,
      "hit": false,
      "t": 34200,
      "d": 600,
      "v": 100
    },
    {
      "midi": 56,
      "hit": false,
      "t": 34800,
      "d": 600,
      "v": 100
    },
    {
      "midi": 54,
      "hit": false,
      "t": 35400,
      "d": 5382.5,
      "v": 100
    },
    {
      "midi": 70,
      "hit": false,
      "t": 38400,
      "d": 1200,
      "v": 100
    },
    {
      "midi": 72,
      "hit": false,
      "t": 39600,
      "d": 600,
      "v": 100
    },
    {
      "midi": 73,
      "hit": false,
      "t": 40200,
      "d": 600,
      "v": 100
    },
    {
      "midi": 68,
      "hit": false,
      "t": 40800,
      "d": 3590,
      "v": 102
    },
    {
      "midi": 41,
      "hit": false,
      "t": 40800,
      "d": 3590,
      "v": 101
    },
    {
      "midi": 60,
      "hit": false,
      "t": 42000,
      "d": 600,
      "v": 100
    },
    {
      "midi": 63,
      "hit": false,
      "t": 42000,
      "d": 600,
      "v": 100
    },
    {
      "midi": 56,
      "hit": false,
      "t": 42000,
      "d": 600,
      "v": 100
    },
    {
      "midi": 56,
      "hit": false,
      "t": 42600,
      "d": 600,
      "v": 100
    },
    {
      "midi": 60,
      "hit": false,
      "t": 42600,
      "d": 600,
      "v": 100
    },
    {
      "midi": 53,
      "hit": false,
      "t": 42600,
      "d": 600,
      "v": 100
    },
    {
      "midi": 56,
      "hit": false,
      "t": 43200,
      "d": 1190,
      "v": 100
    },
    {
      "midi": 49,
      "hit": false,
      "t": 43200,
      "d": 5695,
      "v": 100
    },
    {
      "midi": 61,
      "hit": false,
      "t": 44400,
      "d": 2180,
      "v": 100
    },
    {
      "midi": 42,
      "hit": false,
      "t": 44400,
      "d": 4495,
      "v": 100
    },
    {
      "midi": 68,
      "hit": false,
      "t": 46605,
      "d": 1200,
      "v": 100
    },
    {
      "midi": 65,
      "hit": false,
      "t": 48000,
      "d": 600,
      "v": 100
    },
    {
      "midi": 61,
      "hit": false,
      "t": 48600,
      "d": 600,
      "v": 100
    },
    {
      "midi": 36,
      "hit": false,
      "t": 48747.5,
      "d": 172.5,
      "v": 73
    },
    {
      "midi": 37,
      "hit": false,
      "t": 48900,
      "d": 187.5,
      "v": 85
    },
    {
      "midi": 38,
      "hit": false,
      "t": 49042.5,
      "d": 157.5,
      "v": 91
    },
    {
      "midi": 58,
      "hit": false,
      "t": 49200,
      "d": 450,
      "v": 101
    },
    {
      "midi": 61,
      "hit": false,
      "t": 49200,
      "d": 450,
      "v": 101
    },
    {
      "midi": 66,
      "hit": false,
      "t": 49200,
      "d": 740,
      "v": 100
    },
    {
      "midi": 39,
      "hit": false,
      "t": 49200,
      "d": 292.5,
      "v": 99
    },
    {
      "midi": 56,
      "hit": false,
      "t": 50400,
      "d": 522.5,
      "v": 106
    },
    {
      "midi": 61,
      "hit": false,
      "t": 50400,
      "d": 522.5,
      "v": 101
    },
    {
      "midi": 65,
      "hit": false,
      "t": 50400,
      "d": 760,
      "v": 100
    },
    {
      "midi": 41,
      "hit": false,
      "t": 50400,
      "d": 542.5,
      "v": 98
    },
    {
      "midi": 56,
      "hit": false,
      "t": 51600,
      "d": 600,
      "v": 100
    },
    {
      "midi": 63,
      "hit": false,
      "t": 51600,
      "d": 600,
      "v": 100
    },
    {
      "midi": 42,
      "hit": false,
      "t": 51600,
      "d": 870,
      "v": 101
    },
    {
      "midi": 61,
      "hit": false,
      "t": 52200,
      "d": 600,
      "v": 100
    },
    {
      "midi": 56,
      "hit": false,
      "t": 52800,
      "d": 2400,
      "v": 100
    },
    {
      "midi": 60,
      "hit": false,
      "t": 52800,
      "d": 2400,
      "v": 100
    },
    {
      "midi": 63,
      "hit": false,
      "t": 52800,
      "d": 2400,
      "v": 100
    },
    {
      "midi": 32,
      "hit": false,
      "t": 52800,
      "d": 4800,
      "v": 100
    },
    {
      "midi": 56,
      "hit": false,
      "t": 55200,
      "d": 1202.5,
      "v": 100
    },
    {
      "midi": 68,
      "hit": false,
      "t": 56402.5,
      "d": 1187.5,
      "v": 101
    },
    {
      "midi": 61,
      "hit": false,
      "t": 57600,
      "d": 2400,
      "v": 100
    },
    {
      "midi": 68,
      "hit": false,
      "t": 57600,
      "d": 2400,
      "v": 100
    },
    {
      "midi": 53,
      "hit": false,
      "t": 57600,
      "d": 2400,
      "v": 100
    },
    {
      "midi": 56,
      "hit": false,
      "t": 58800,
      "d": 1200,
      "v": 100
    },
    {
      "midi": 56,
      "hit": false,
      "t": 60000,
      "d": 1200,
      "v": 100
    },
    {
      "midi": 60,
      "hit": false,
      "t": 60000,
      "d": 2400,
      "v": 100
    },
    {
      "midi": 32,
      "hit": false,
      "t": 60000,
      "d": 2400,
      "v": 100
    },
    {
      "midi": 44,
      "hit": false,
      "t": 60000,
      "d": 2400,
      "v": 100
    },
    {
      "midi": 54,
      "hit": false,
      "t": 61200,
      "d": 1200,
      "v": 100
    },
    {
      "midi": 53,
      "hit": false,
      "t": 62400,
      "d": 2400,
      "v": 100
    },
    {
      "midi": 61,
      "hit": false,
      "t": 62400,
      "d": 2400,
      "v": 100
    },
    {
      "midi": 25,
      "hit": false,
      "t": 62400,
      "d": 7200,
      "v": 100
    },
    {
      "midi": 37,
      "hit": false,
      "t": 62400,
      "d": 7200,
      "v": 100
    },
    {
      "midi": 60,
      "hit": false,
      "t": 64800,
      "d": 300,
      "v": 100
    },
    {
      "midi": 61,
      "hit": false,
      "t": 65100,
      "d": 1800,
      "v": 100
    },
    {
      "midi": 63,
      "hit": false,
      "t": 66300,
      "d": 300,
      "v": 100
    },
    {
      "midi": 65,
      "hit": false,
      "t": 66600,
      "d": 300,
      "v": 100
    },
    {
      "midi": 58,
      "hit": false,
      "t": 66900,
      "d": 300,
      "v": 100
    },
    {
      "midi": 56,
      "hit": false,
      "t": 67200,
      "d": 1800,
      "v": 100
    },
    {
      "midi": 61,
      "hit": false,
      "t": 69000,
      "d": 300,
      "v": 100
    },
    {
      "midi": 60,
      "hit": false,
      "t": 69300,
      "d": 300,
      "v": 100
    },
    {
      "midi": 58,
      "hit": false,
      "t": 69600,
      "d": 1200,
      "v": 100
    },
    {
      "midi": 42,
      "hit": false,
      "t": 69600,
      "d": 600,
      "v": 100
    },
    {
      "midi": 44,
      "hit": false,
      "t": 70200,
      "d": 600,
      "v": 100
    },
    {
      "midi": 49,
      "hit": false,
      "t": 70200,
      "d": 600,
      "v": 100
    },
    {
      "midi": 54,
      "hit": false,
      "t": 70800,
      "d": 600,
      "v": 100
    },
    {
      "midi": 46,
      "hit": false,
      "t": 70800,
      "d": 600,
      "v": 100
    },
    {
      "midi": 56,
      "hit": false,
      "t": 71400,
      "d": 600,
      "v": 100
    },
    {
      "midi": 49,
      "hit": false,
      "t": 71400,
      "d": 600,
      "v": 100
    },
    {
      "midi": 61,
      "hit": false,
      "t": 72000,
      "d": 1780,
      "v": 100
    },
    {
      "midi": 54,
      "hit": false,
      "t": 72000,
      "d": 2400,
      "v": 100
    },
    {
      "midi": 61,
      "hit": false,
      "t": 73800,
      "d": 297.5,
      "v": 100
    },
    {
      "midi": 60,
      "hit": false,
      "t": 74100,
      "d": 300,
      "v": 100
    },
    {
      "midi": 58,
      "hit": false,
      "t": 74400,
      "d": 2400,
      "v": 100
    },
    {
      "midi": 36,
      "hit": false,
      "t": 74400,
      "d": 4800,
      "v": 100
    },
    {
      "midi": 51,
      "hit": false,
      "t": 74400,
      "d": 4800,
      "v": 100
    },
    {
      "midi": 65,
      "hit": false,
      "t": 76800,
      "d": 1200,
      "v": 100
    },
    {
      "midi": 63,
      "hit": false,
      "t": 78000,
      "d": 600,
      "v": 100
    },
    {
      "midi": 62,
      "hit": false,
      "t": 78600,
      "d": 600,
      "v": 100
    },
    {
      "midi": 63,
      "hit": false,
      "t": 79200,
      "d": 600,
      "v": 100
    },
    {
      "midi": 38,
      "hit": false,
      "t": 79200,
      "d": 4800,
      "v": 100
    },
    {
      "midi": 53,
      "hit": false,
      "t": 79200,
      "d": 4800,
      "v": 100
    },
    {
      "midi": 62,
      "hit": false,
      "t": 79800,
      "d": 1800,
      "v": 100
    },
    {
      "midi": 58,
      "hit": false,
      "t": 81600,
      "d": 1200,
      "v": 100
    },
    {
      "midi": 70,
      "hit": false,
      "t": 82800,
      "d": 1200,
      "v": 100
    },
    {
      "midi": 70,
      "hit": false,
      "t": 84000,
      "d": 4800,
      "v": 100
    },
    {
      "midi": 39,
      "hit": false,
      "t": 84000,
      "d": 9600,
      "v": 100
    },
    {
      "midi": 56,
      "hit": false,
      "t": 86400,
      "d": 600,
      "v": 100
    },
    {
      "midi": 61,
      "hit": false,
      "t": 86400,
      "d": 7195,
      "v": 100
    },
    {
      "midi": 54,
      "hit": false,
      "t": 87000,
      "d": 600,
      "v": 100
    },
    {
      "midi": 56,
      "hit": false,
      "t": 87600,
      "d": 600,
      "v": 100
    },
    {
      "midi": 54,
      "hit": false,
      "t": 88200,
      "d": 5395,
      "v": 100
    },
    {
      "midi": 70,
      "hit": false,
      "t": 91200,
      "d": 1200,
      "v": 100
    },
    {
      "midi": 72,
      "hit": false,
      "t": 92400,
      "d": 600,
      "v": 100
    },
    {
      "midi": 73,
      "hit": false,
      "t": 93000,
      "d": 600,
      "v": 100
    },
    {
      "midi": 68,
      "hit": false,
      "t": 93600,
      "d": 3590,
      "v": 102
    },
    {
      "midi": 41,
      "hit": false,
      "t": 93600,
      "d": 3590,
      "v": 101
    },
    {
      "midi": 60,
      "hit": false,
      "t": 94800,
      "d": 600,
      "v": 100
    },
    {
      "midi": 63,
      "hit": false,
      "t": 94800,
      "d": 600,
      "v": 100
    },
    {
      "midi": 56,
      "hit": false,
      "t": 94800,
      "d": 600,
      "v": 100
    },
    {
      "midi": 56,
      "hit": false,
      "t": 95400,
      "d": 600,
      "v": 100
    },
    {
      "midi": 60,
      "hit": false,
      "t": 95400,
      "d": 600,
      "v": 100
    },
    {
      "midi": 53,
      "hit": false,
      "t": 95400,
      "d": 600,
      "v": 100
    },
    {
      "midi": 56,
      "hit": false,
      "t": 96000,
      "d": 1190,
      "v": 100
    },
    {
      "midi": 49,
      "hit": false,
      "t": 96000,
      "d": 5695,
      "v": 100
    },
    {
      "midi": 61,
      "hit": false,
      "t": 97200,
      "d": 2180,
      "v": 100
    },
    {
      "midi": 42,
      "hit": false,
      "t": 97200,
      "d": 4495,
      "v": 100
    },
    {
      "midi": 68,
      "hit": false,
      "t": 99405,
      "d": 1200,
      "v": 100
    },
    {
      "midi": 65,
      "hit": false,
      "t": 100800,
      "d": 600,
      "v": 100
    },
    {
      "midi": 61,
      "hit": false,
      "t": 101400,
      "d": 600,
      "v": 100
    },
    {
      "midi": 36,
      "hit": false,
      "t": 101547.5,
      "d": 172.5,
      "v": 73
    },
    {
      "midi": 37,
      "hit": false,
      "t": 101700,
      "d": 187.5,
      "v": 85
    },
    {
      "midi": 38,
      "hit": false,
      "t": 101842.5,
      "d": 157.5,
      "v": 91
    },
    {
      "midi": 58,
      "hit": false,
      "t": 102000,
      "d": 450,
      "v": 101
    },
    {
      "midi": 61,
      "hit": false,
      "t": 102000,
      "d": 450,
      "v": 101
    },
    {
      "midi": 66,
      "hit": false,
      "t": 102000,
      "d": 740,
      "v": 100
    },
    {
      "midi": 39,
      "hit": false,
      "t": 102000,
      "d": 292.5,
      "v": 99
    },
    {
      "midi": 56,
      "hit": false,
      "t": 103200,
      "d": 522.5,
      "v": 106
    },
    {
      "midi": 61,
      "hit": false,
      "t": 103200,
      "d": 522.5,
      "v": 101
    },
    {
      "midi": 65,
      "hit": false,
      "t": 103200,
      "d": 760,
      "v": 100
    },
    {
      "midi": 41,
      "hit": false,
      "t": 103200,
      "d": 542.5,
      "v": 98
    },
    {
      "midi": 56,
      "hit": false,
      "t": 104400,
      "d": 600,
      "v": 100
    },
    {
      "midi": 63,
      "hit": false,
      "t": 104400,
      "d": 600,
      "v": 100
    },
    {
      "midi": 42,
      "hit": false,
      "t": 104400,
      "d": 870,
      "v": 101
    },
    {
      "midi": 61,
      "hit": false,
      "t": 105000,
      "d": 600,
      "v": 100
    },
    {
      "midi": 56,
      "hit": false,
      "t": 105600,
      "d": 2400,
      "v": 100
    },
    {
      "midi": 60,
      "hit": false,
      "t": 105600,
      "d": 2400,
      "v": 100
    },
    {
      "midi": 63,
      "hit": false,
      "t": 105600,
      "d": 2400,
      "v": 100
    },
    {
      "midi": 32,
      "hit": false,
      "t": 105600,
      "d": 4800,
      "v": 100
    },
    {
      "midi": 44,
      "hit": false,
      "t": 105600,
      "d": 4800,
      "v": 100
    },
    {
      "midi": 58,
      "hit": false,
      "t": 108000,
      "d": 2400,
      "v": 100
    },
    {
      "midi": 65,
      "hit": false,
      "t": 110400,
      "d": 2400,
      "v": 100
    },
    {
      "midi": 34,
      "hit": false,
      "t": 110400,
      "d": 3597.5,
      "v": 100
    },
    {
      "midi": 46,
      "hit": false,
      "t": 110400,
      "d": 3597.5,
      "v": 100
    },
    {
      "midi": 53,
      "hit": false,
      "t": 111600,
      "d": 1200,
      "v": 100
    },
    {
      "midi": 58,
      "hit": false,
      "t": 111600,
      "d": 1200,
      "v": 100
    },
    {
      "midi": 62,
      "hit": false,
      "t": 111600,
      "d": 1200,
      "v": 100
    },
    {
      "midi": 53,
      "hit": false,
      "t": 112800,
      "d": 1190,
      "v": 102
    },
    {
      "midi": 58,
      "hit": false,
      "t": 112800,
      "d": 1190,
      "v": 100
    },
    {
      "midi": 62,
      "hit": false,
      "t": 112800,
      "d": 1190,
      "v": 100
    },
    {
      "midi": 62,
      "hit": false,
      "t": 113400,
      "d": 600,
      "v": 100
    },
    {
      "midi": 63,
      "hit": false,
      "t": 114000,
      "d": 600,
      "v": 100
    },
    {
      "midi": 53,
      "hit": false,
      "t": 114000,
      "d": 1170,
      "v": 100
    },
    {
      "midi": 58,
      "hit": false,
      "t": 114000,
      "d": 1170,
      "v": 100
    },
    {
      "midi": 62,
      "hit": false,
      "t": 114000,
      "d": 1170,
      "v": 100
    },
    {
      "midi": 65,
      "hit": false,
      "t": 114600,
      "d": 600,
      "v": 100
    },
    {
      "midi": 65,
      "hit": false,
      "t": 115200,
      "d": 1800,
      "v": 100
    },
    {
      "midi": 34,
      "hit": false,
      "t": 115200,
      "d": 3597.5,
      "v": 100
    },
    {
      "midi": 46,
      "hit": false,
      "t": 115200,
      "d": 3597.5,
      "v": 100
    },
    {
      "midi": 51,
      "hit": false,
      "t": 116400,
      "d": 1187.5,
      "v": 100
    },
    {
      "midi": 54,
      "hit": false,
      "t": 116400,
      "d": 1187.5,
      "v": 100
    },
    {
      "midi": 57,
      "hit": false,
      "t": 116400,
      "d": 1187.5,
      "v": 100
    },
    {
      "midi": 60,
      "hit": false,
      "t": 116400,
      "d": 1187.5,
      "v": 100
    },
    {
      "midi": 66,
      "hit": false,
      "t": 117000,
      "d": 600,
      "v": 100
    },
    {
      "midi": 63,
      "hit": false,
      "t": 117600,
      "d": 1800,
      "v": 100
    },
    {
      "midi": 51,
      "hit": false,
      "t": 117600,
      "d": 1187.5,
      "v": 101
    },
    {
      "midi": 54,
      "hit": false,
      "t": 117600,
      "d": 1187.5,
      "v": 100
    },
    {
      "midi": 57,
      "hit": false,
      "t": 117600,
      "d": 1187.5,
      "v": 101
    },
    {
      "midi": 60,
      "hit": false,
      "t": 117600,
      "d": 1187.5,
      "v": 98
    },
    {
      "midi": 51,
      "hit": false,
      "t": 118800,
      "d": 1187.5,
      "v": 100
    },
    {
      "midi": 54,
      "hit": false,
      "t": 118800,
      "d": 1187.5,
      "v": 100
    },
    {
      "midi": 57,
      "hit": false,
      "t": 118800,
      "d": 1187.5,
      "v": 100
    },
    {
      "midi": 60,
      "hit": false,
      "t": 118800,
      "d": 1187.5,
      "v": 101
    },
    {
      "midi": 62,
      "hit": false,
      "t": 119400,
      "d": 600,
      "v": 100
    },
    {
      "midi": 65,
      "hit": false,
      "t": 120000,
      "d": 2400,
      "v": 100
    },
    {
      "midi": 34,
      "hit": false,
      "t": 120000,
      "d": 3597.5,
      "v": 100
    },
    {
      "midi": 46,
      "hit": false,
      "t": 120000,
      "d": 3597.5,
      "v": 100
    },
    {
      "midi": 53,
      "hit": false,
      "t": 121200,
      "d": 1200,
      "v": 100
    },
    {
      "midi": 58,
      "hit": false,
      "t": 121200,
      "d": 1200,
      "v": 100
    },
    {
      "midi": 62,
      "hit": false,
      "t": 121200,
      "d": 1200,
      "v": 100
    },
    {
      "midi": 53,
      "hit": false,
      "t": 122400,
      "d": 1190,
      "v": 102
    },
    {
      "midi": 58,
      "hit": false,
      "t": 122400,
      "d": 1190,
      "v": 100
    },
    {
      "midi": 62,
      "hit": false,
      "t": 122400,
      "d": 1190,
      "v": 100
    },
    {
      "midi": 62,
      "hit": false,
      "t": 123000,
      "d": 600,
      "v": 100
    },
    {
      "midi": 63,
      "hit": false,
      "t": 123600,
      "d": 600,
      "v": 100
    },
    {
      "midi": 53,
      "hit": false,
      "t": 123600,
      "d": 1170,
      "v": 100
    },
    {
      "midi": 58,
      "hit": false,
      "t": 123600,
      "d": 1170,
      "v": 100
    },
    {
      "midi": 62,
      "hit": false,
      "t": 123600,
      "d": 1170,
      "v": 100
    },
    {
      "midi": 65,
      "hit": false,
      "t": 124200,
      "d": 600,
      "v": 100
    },
    {
      "midi": 67,
      "hit": false,
      "t": 124800,
      "d": 1800,
      "v": 100
    },
    {
      "midi": 34,
      "hit": false,
      "t": 124800,
      "d": 3597.5,
      "v": 100
    },
    {
      "midi": 46,
      "hit": false,
      "t": 124800,
      "d": 3597.5,
      "v": 100
    },
    {
      "midi": 55,
      "hit": false,
      "t": 126000,
      "d": 1200,
      "v": 100
    },
    {
      "midi": 58,
      "hit": false,
      "t": 126000,
      "d": 1200,
      "v": 100
    },
    {
      "midi": 63,
      "hit": false,
      "t": 126000,
      "d": 1200,
      "v": 100
    },
    {
      "midi": 69,
      "hit": false,
      "t": 126600,
      "d": 600,
      "v": 100
    },
    {
      "midi": 70,
      "hit": false,
      "t": 127200,
      "d": 1800,
      "v": 100
    },
    {
      "midi": 55,
      "hit": false,
      "t": 127200,
      "d": 1190,
      "v": 102
    },
    {
      "midi": 58,
      "hit": false,
      "t": 127200,
      "d": 1190,
      "v": 100
    },
    {
      "midi": 63,
      "hit": false,
      "t": 127200,
      "d": 1190,
      "v": 100
    },
    {
      "midi": 55,
      "hit": false,
      "t": 128400,
      "d": 1170,
      "v": 100
    },
    {
      "midi": 58,
      "hit": false,
      "t": 128400,
      "d": 1170,
      "v": 100
    },
    {
      "midi": 63,
      "hit": false,
      "t": 128400,
      "d": 1170,
      "v": 100
    },
    {
      "midi": 62,
      "hit": false,
      "t": 129000,
      "d": 600,
      "v": 100
    },
    {
      "midi": 65,
      "hit": false,
      "t": 129600,
      "d": 1800,
      "v": 100
    },
    {
      "midi": 45,
      "hit": false,
      "t": 129600,
      "d": 2395,
      "v": 101
    },
    {
      "midi": 53,
      "hit": false,
      "t": 130200,
      "d": 1785,
      "v": 101
    },
    {
      "midi": 60,
      "hit": false,
      "t": 130800,
      "d": 1210,
      "v": 100
    },
    {
      "midi": 60,
      "hit": false,
      "t": 131400,
      "d": 600,
      "v": 100
    },
    {
      "midi": 63,
      "hit": false,
      "t": 132000,
      "d": 1800,
      "v": 100
    },
    {
      "midi": 43,
      "hit": false,
      "t": 132000,
      "d": 2395,
      "v": 99
    },
    {
      "midi": 51,
      "hit": false,
      "t": 132600,
      "d": 1797.5,
      "v": 103
    },
    {
      "midi": 58,
      "hit": false,
      "t": 133200,
      "d": 1187.5,
      "v": 101
    },
    {
      "midi": 58,
      "hit": false,
      "t": 133800,
      "d": 600,
      "v": 100
    },
    {
      "midi": 60,
      "hit": false,
      "t": 134400,
      "d": 3600,
      "v": 100
    },
    {
      "midi": 44,
      "hit": false,
      "t": 134400,
      "d": 4497.5,
      "v": 100
    },
    {
      "midi": 51,
      "hit": false,
      "t": 135000,
      "d": 3897.5,
      "v": 99
    },
    {
      "midi": 56,
      "hit": false,
      "t": 135600,
      "d": 600,
      "v": 100
    },
    {
      "midi": 58,
      "hit": false,
      "t": 136200,
      "d": 600,
      "v": 100
    },
    {
      "midi": 60,
      "hit": false,
      "t": 136800,
      "d": 2092.5,
      "v": 101
    },
    {
      "midi": 56,
      "hit": false,
      "t": 138000,
      "d": 600,
      "v": 100
    },
    {
      "midi": 68,
      "hit": false,
      "t": 138600,
      "d": 600,
      "v": 100
    },
    {
      "midi": 68,
      "hit": false,
      "t": 139200,
      "d": 2400,
      "v": 100
    },
    {
      "midi": 37,
      "hit": false,
      "t": 139200,
      "d": 4800,
      "v": 100
    },
    {
      "midi": 56,
      "hit": false,
      "t": 140400,
      "d": 1200,
      "v": 100
    },
    {
      "midi": 60,
      "hit": false,
      "t": 140400,
      "d": 1200,
      "v": 100
    },
    {
      "midi": 63,
      "hit": false,
      "t": 140400,
      "d": 1200,
      "v": 100
    },
    {
      "midi": 56,
      "hit": false,
      "t": 141600,
      "d": 1182.5,
      "v": 100
    },
    {
      "midi": 61,
      "hit": false,
      "t": 141600,
      "d": 1182.5,
      "v": 100
    },
    {
      "midi": 65,
      "hit": false,
      "t": 141600,
      "d": 1182.5,
      "v": 100
    },
    {
      "midi": 65,
      "hit": false,
      "t": 142200,
      "d": 600,
      "v": 100
    },
    {
      "midi": 66,
      "hit": false,
      "t": 142800,
      "d": 600,
      "v": 100
    },
    {
      "midi": 56,
      "hit": false,
      "t": 142800,
      "d": 1182.5,
      "v": 100
    },
    {
      "midi": 61,
      "hit": false,
      "t": 142800,
      "d": 1182.5,
      "v": 100
    },
    {
      "midi": 65,
      "hit": false,
      "t": 142800,
      "d": 1182.5,
      "v": 100
    },
    {
      "midi": 68,
      "hit": false,
      "t": 143400,
      "d": 600,
      "v": 100
    },
    {
      "midi": 68,
      "hit": false,
      "t": 144000,
      "d": 1800,
      "v": 100
    },
    {
      "midi": 37,
      "hit": false,
      "t": 144000,
      "d": 4800,
      "v": 100
    },
    {
      "midi": 57,
      "hit": false,
      "t": 145200,
      "d": 1200,
      "v": 100
    },
    {
      "midi": 66,
      "hit": false,
      "t": 145200,
      "d": 1200,
      "v": 100
    },
    {
      "midi": 69,
      "hit": false,
      "t": 145800,
      "d": 600,
      "v": 100
    },
    {
      "midi": 66,
      "hit": false,
      "t": 146400,
      "d": 1800,
      "v": 100
    },
    {
      "midi": 61,
      "hit": false,
      "t": 146400,
      "d": 12.5,
      "v": 99
    },
    {
      "midi": 57,
      "hit": false,
      "t": 146400,
      "d": 1200,
      "v": 100
    },
    {
      "midi": 66,
      "hit": false,
      "t": 146400,
      "d": 1200,
      "v": 100
    },
    {
      "midi": 61,
      "hit": false,
      "t": 147600,
      "d": 1190,
      "v": 100
    },
    {
      "midi": 57,
      "hit": false,
      "t": 147600,
      "d": 1200,
      "v": 100
    },
    {
      "midi": 66,
      "hit": false,
      "t": 147600,
      "d": 1200,
      "v": 100
    },
    {
      "midi": 65,
      "hit": false,
      "t": 148200,
      "d": 600,
      "v": 100
    },
    {
      "midi": 68,
      "hit": false,
      "t": 148800,
      "d": 2400,
      "v": 100
    },
    {
      "midi": 37,
      "hit": false,
      "t": 148800,
      "d": 4800,
      "v": 100
    },
    {
      "midi": 56,
      "hit": false,
      "t": 150000,
      "d": 1200,
      "v": 100
    },
    {
      "midi": 60,
      "hit": false,
      "t": 150000,
      "d": 1200,
      "v": 100
    },
    {
      "midi": 63,
      "hit": false,
      "t": 150000,
      "d": 1200,
      "v": 100
    },
    {
      "midi": 56,
      "hit": false,
      "t": 151200,
      "d": 1182.5,
      "v": 100
    },
    {
      "midi": 61,
      "hit": false,
      "t": 151200,
      "d": 1182.5,
      "v": 100
    },
    {
      "midi": 65,
      "hit": false,
      "t": 151200,
      "d": 1182.5,
      "v": 100
    },
    {
      "midi": 65,
      "hit": false,
      "t": 151800,
      "d": 600,
      "v": 100
    },
    {
      "midi": 66,
      "hit": false,
      "t": 152400,
      "d": 600,
      "v": 100
    },
    {
      "midi": 56,
      "hit": false,
      "t": 152400,
      "d": 1182.5,
      "v": 100
    },
    {
      "midi": 61,
      "hit": false,
      "t": 152400,
      "d": 1182.5,
      "v": 100
    },
    {
      "midi": 65,
      "hit": false,
      "t": 152400,
      "d": 1182.5,
      "v": 100
    },
    {
      "midi": 68,
      "hit": false,
      "t": 153000,
      "d": 600,
      "v": 100
    },
    {
      "midi": 70,
      "hit": false,
      "t": 153600,
      "d": 1800,
      "v": 100
    },
    {
      "midi": 37,
      "hit": false,
      "t": 153600,
      "d": 4800,
      "v": 100
    },
    {
      "midi": 58,
      "hit": false,
      "t": 154800,
      "d": 1200,
      "v": 100
    },
    {
      "midi": 61,
      "hit": false,
      "t": 154800,
      "d": 1200,
      "v": 100
    },
    {
      "midi": 66,
      "hit": false,
      "t": 154800,
      "d": 1200,
      "v": 100
    },
    {
      "midi": 72,
      "hit": false,
      "t": 155400,
      "d": 600,
      "v": 100
    },
    {
      "midi": 73,
      "hit": false,
      "t": 156000,
      "d": 1800,
      "v": 100
    },
    {
      "midi": 58,
      "hit": false,
      "t": 156000,
      "d": 1182.5,
      "v": 100
    },
    {
      "midi": 61,
      "hit": false,
      "t": 156000,
      "d": 1182.5,
      "v": 100
    },
    {
      "midi": 66,
      "hit": false,
      "t": 156000,
      "d": 1182.5,
      "v": 100
    },
    {
      "midi": 58,
      "hit": false,
      "t": 157200,
      "d": 1182.5,
      "v": 100
    },
    {
      "midi": 61,
      "hit": false,
      "t": 157200,
      "d": 1182.5,
      "v": 100
    },
    {
      "midi": 66,
      "hit": false,
      "t": 157200,
      "d": 1182.5,
      "v": 100
    },
    {
      "midi": 75,
      "hit": false,
      "t": 157800,
      "d": 600,
      "v": 100
    },
    {
      "midi": 77,
      "hit": false,
      "t": 158400,
      "d": 1800,
      "v": 100
    },
    {
      "midi": 36,
      "hit": false,
      "t": 158400,
      "d": 2400,
      "v": 100
    },
    {
      "midi": 57,
      "hit": false,
      "t": 159600,
      "d": 1200,
      "v": 100
    },
    {
      "midi": 60,
      "hit": false,
      "t": 159600,
      "d": 1200,
      "v": 100
    },
    {
      "midi": 65,
      "hit": false,
      "t": 159600,
      "d": 1200,
      "v": 100
    },
    {
      "midi": 72,
      "hit": false,
      "t": 160200,
      "d": 600,
      "v": 100
    },
    {
      "midi": 73,
      "hit": false,
      "t": 160800,
      "d": 2400,
      "v": 100
    },
    {
      "midi": 34,
      "hit": false,
      "t": 160800,
      "d": 2400,
      "v": 100
    },
    {
      "midi": 61,
      "hit": false,
      "t": 162000,
      "d": 6000,
      "v": 100
    },
    {
      "midi": 42,
      "hit": false,
      "t": 163200,
      "d": 4800,
      "v": 100
    },
    {
      "midi": 54,
      "hit": false,
      "t": 163200,
      "d": 4800,
      "v": 100
    },
    {
      "midi": 57,
      "hit": false,
      "t": 163200,
      "d": 4800,
      "v": 100
    },
    {
      "midi": 63,
      "hit": false,
      "t": 163200,
      "d": 4800,
      "v": 100
    },
    {
      "midi": 61,
      "hit": false,
      "t": 165000,
      "d": 600,
      "v": 100
    },
    {
      "midi": 69,
      "hit": false,
      "t": 165600,
      "d": 600,
      "v": 100
    },
    {
      "midi": 73,
      "hit": false,
      "t": 166200,
      "d": 600,
      "v": 100
    },
    {
      "midi": 71,
      "hit": false,
      "t": 166800,
      "d": 600,
      "v": 100
    },
    {
      "midi": 69,
      "hit": false,
      "t": 167400,
      "d": 600,
      "v": 100
    },
    {
      "midi": 61,
      "hit": false,
      "t": 168000,
      "d": 1800,
      "v": 100
    },
    {
      "midi": 65,
      "hit": false,
      "t": 168000,
      "d": 1800,
      "v": 100
    },
    {
      "midi": 68,
      "hit": false,
      "t": 168000,
      "d": 1800,
      "v": 100
    },
    {
      "midi": 44,
      "hit": false,
      "t": 168000,
      "d": 2395,
      "v": 99
    },
    {
      "midi": 53,
      "hit": false,
      "t": 168600,
      "d": 1187.5,
      "v": 95
    },
    {
      "midi": 56,
      "hit": false,
      "t": 169200,
      "d": 600,
      "v": 95
    },
    {
      "midi": 61,
      "hit": false,
      "t": 169800,
      "d": 600,
      "v": 100
    },
    {
      "midi": 65,
      "hit": false,
      "t": 169800,
      "d": 600,
      "v": 100
    },
    {
      "midi": 68,
      "hit": false,
      "t": 169800,
      "d": 600,
      "v": 100
    },
    {
      "midi": 53,
      "hit": false,
      "t": 169800,
      "d": 600,
      "v": 95
    },
    {
      "midi": 66,
      "hit": false,
      "t": 170400,
      "d": 3600,
      "v": 100
    },
    {
      "midi": 44,
      "hit": false,
      "t": 170400,
      "d": 2395,
      "v": 100
    },
    {
      "midi": 62,
      "hit": false,
      "t": 170410,
      "d": 3600,
      "v": 100
    },
    {
      "midi": 69,
      "hit": false,
      "t": 170420,
      "d": 3600,
      "v": 100
    },
    {
      "midi": 54,
      "hit": false,
      "t": 171000,
      "d": 1187.5,
      "v": 95
    },
    {
      "midi": 57,
      "hit": false,
      "t": 171600,
      "d": 600,
      "v": 95
    },
    {
      "midi": 54,
      "hit": false,
      "t": 172200,
      "d": 600,
      "v": 95
    },
    {
      "midi": 44,
      "hit": false,
      "t": 172800,
      "d": 2382.5,
      "v": 97
    },
    {
      "midi": 54,
      "hit": false,
      "t": 173400,
      "d": 1187.5,
      "v": 95
    },
    {
      "midi": 57,
      "hit": false,
      "t": 174000,
      "d": 600,
      "v": 95
    },
    {
      "midi": 61,
      "hit": false,
      "t": 174600,
      "d": 600,
      "v": 100
    },
    {
      "midi": 54,
      "hit": false,
      "t": 174600,
      "d": 600,
      "v": 95
    },
    {
      "midi": 69,
      "hit": false,
      "t": 175200,
      "d": 600,
      "v": 100
    },
    {
      "midi": 44,
      "hit": false,
      "t": 175200,
      "d": 2382.5,
      "v": 99
    },
    {
      "midi": 73,
      "hit": false,
      "t": 175800,
      "d": 600,
      "v": 100
    },
    {
      "midi": 54,
      "hit": false,
      "t": 175800,
      "d": 1187.5,
      "v": 94
    },
    {
      "midi": 71,
      "hit": false,
      "t": 176400,
      "d": 600,
      "v": 100
    },
    {
      "midi": 57,
      "hit": false,
      "t": 176400,
      "d": 600,
      "v": 95
    },
    {
      "midi": 69,
      "hit": false,
      "t": 177000,
      "d": 600,
      "v": 100
    },
    {
      "midi": 54,
      "hit": false,
      "t": 177000,
      "d": 600,
      "v": 95
    },
    {
      "midi": 65,
      "hit": false,
      "t": 177600,
      "d": 1800,
      "v": 100
    },
    {
      "midi": 68,
      "hit": false,
      "t": 177600,
      "d": 1800,
      "v": 100
    },
    {
      "midi": 44,
      "hit": false,
      "t": 177600,
      "d": 2382.5,
      "v": 100
    },
    {
      "midi": 61,
      "hit": false,
      "t": 177630,
      "d": 1800,
      "v": 100
    },
    {
      "midi": 53,
      "hit": false,
      "t": 178200,
      "d": 1185,
      "v": 95
    },
    {
      "midi": 56,
      "hit": false,
      "t": 178800,
      "d": 600,
      "v": 95
    },
    {
      "midi": 65,
      "hit": false,
      "t": 179400,
      "d": 600,
      "v": 100
    },
    {
      "midi": 53,
      "hit": false,
      "t": 179400,
      "d": 600,
      "v": 95
    },
    {
      "midi": 61,
      "hit": false,
      "t": 180000,
      "d": 3600,
      "v": 100
    },
    {
      "midi": 63,
      "hit": false,
      "t": 180000,
      "d": 3600,
      "v": 100
    },
    {
      "midi": 44,
      "hit": false,
      "t": 180000,
      "d": 2382.5,
      "v": 100
    },
    {
      "midi": 66,
      "hit": false,
      "t": 180007.5,
      "d": 3600,
      "v": 100
    },
    {
      "midi": 51,
      "hit": false,
      "t": 180600,
      "d": 1187.5,
      "v": 95
    },
    {
      "midi": 54,
      "hit": false,
      "t": 181200,
      "d": 600,
      "v": 95
    },
    {
      "midi": 51,
      "hit": false,
      "t": 181800,
      "d": 600,
      "v": 95
    },
    {
      "midi": 44,
      "hit": false,
      "t": 182400,
      "d": 2382.5,
      "v": 98
    },
    {
      "midi": 51,
      "hit": false,
      "t": 183000,
      "d": 1187.5,
      "v": 95
    },
    {
      "midi": 54,
      "hit": false,
      "t": 183600,
      "d": 600,
      "v": 95
    },
    {
      "midi": 61,
      "hit": false,
      "t": 184197.5,
      "d": 600,
      "v": 100
    },
    {
      "midi": 51,
      "hit": false,
      "t": 184200,
      "d": 600,
      "v": 95
    },
    {
      "midi": 69,
      "hit": false,
      "t": 184797.5,
      "d": 600,
      "v": 100
    },
    {
      "midi": 44,
      "hit": false,
      "t": 184800,
      "d": 2382.5,
      "v": 100
    },
    {
      "midi": 73,
      "hit": false,
      "t": 185400,
      "d": 600,
      "v": 100
    },
    {
      "midi": 51,
      "hit": false,
      "t": 185400,
      "d": 1187.5,
      "v": 95
    },
    {
      "midi": 71,
      "hit": false,
      "t": 186000,
      "d": 600,
      "v": 100
    },
    {
      "midi": 54,
      "hit": false,
      "t": 186000,
      "d": 600,
      "v": 95
    },
    {
      "midi": 69,
      "hit": false,
      "t": 186600,
      "d": 600,
      "v": 100
    },
    {
      "midi": 51,
      "hit": false,
      "t": 186600,
      "d": 600,
      "v": 95
    },
    {
      "midi": 61,
      "hit": false,
      "t": 187200,
      "d": 1800,
      "v": 100
    },
    {
      "midi": 65,
      "hit": false,
      "t": 187200,
      "d": 1800,
      "v": 100
    },
    {
      "midi": 68,
      "hit": false,
      "t": 187200,
      "d": 1800,
      "v": 100
    },
    {
      "midi": 44,
      "hit": false,
      "t": 187200,
      "d": 2382.5,
      "v": 97
    },
    {
      "midi": 53,
      "hit": false,
      "t": 187802.5,
      "d": 600,
      "v": 100
    },
    {
      "midi": 56,
      "hit": false,
      "t": 188400,
      "d": 600,
      "v": 100
    },
    {
      "midi": 65,
      "hit": false,
      "t": 189000,
      "d": 600,
      "v": 100
    },
    {
      "midi": 53,
      "hit": false,
      "t": 189000,
      "d": 600,
      "v": 100
    },
    {
      "midi": 66,
      "hit": false,
      "t": 189600,
      "d": 1190,
      "v": 101
    },
    {
      "midi": 44,
      "hit": false,
      "t": 189600,
      "d": 2382.5,
      "v": 100
    },
    {
      "midi": 69,
      "hit": false,
      "t": 189602.5,
      "d": 1200,
      "v": 100
    },
    {
      "midi": 62,
      "hit": false,
      "t": 189610,
      "d": 1200,
      "v": 100
    },
    {
      "midi": 54,
      "hit": false,
      "t": 190200,
      "d": 600,
      "v": 100
    },
    {
      "midi": 66,
      "hit": false,
      "t": 190800,
      "d": 1177.5,
      "v": 99
    },
    {
      "midi": 57,
      "hit": false,
      "t": 190800,
      "d": 600,
      "v": 100
    },
    {
      "midi": 54,
      "hit": false,
      "t": 191400,
      "d": 600,
      "v": 100
    },
    {
      "midi": 77,
      "hit": false,
      "t": 192000,
      "d": 1200,
      "v": 100
    },
    {
      "midi": 44,
      "hit": false,
      "t": 192000,
      "d": 6000,
      "v": 100
    },
    {
      "midi": 65,
      "hit": false,
      "t": 192600,
      "d": 600,
      "v": 100
    },
    {
      "midi": 75,
      "hit": false,
      "t": 193180,
      "d": 1200,
      "v": 100
    },
    {
      "midi": 63,
      "hit": false,
      "t": 193730,
      "d": 600,
      "v": 100
    },
    {
      "midi": 72,
      "hit": false,
      "t": 194400,
      "d": 1200,
      "v": 100
    },
    {
      "midi": 61,
      "hit": false,
      "t": 195145,
      "d": 1645,
      "v": 101
    },
    {
      "midi": 56,
      "hit": false,
      "t": 196790,
      "d": 1200,
      "v": 100
    },
    {
      "midi": 68,
      "hit": false,
      "t": 197970,
      "d": 1200,
      "v": 100
    },
    {
      "midi": 61,
      "hit": false,
      "t": 199200,
      "d": 2400,
      "v": 100
    },
    {
      "midi": 68,
      "hit": false,
      "t": 199200,
      "d": 2400,
      "v": 100
    },
    {
      "midi": 53,
      "hit": false,
      "t": 199200,
      "d": 2400,
      "v": 100
    },
    {
      "midi": 56,
      "hit": false,
      "t": 200400,
      "d": 1200,
      "v": 100
    },
    {
      "midi": 56,
      "hit": false,
      "t": 201600,
      "d": 1200,
      "v": 100
    },
    {
      "midi": 60,
      "hit": false,
      "t": 201600,
      "d": 2400,
      "v": 100
    },
    {
      "midi": 32,
      "hit": false,
      "t": 201600,
      "d": 2400,
      "v": 100
    },
    {
      "midi": 44,
      "hit": false,
      "t": 201600,
      "d": 2400,
      "v": 100
    },
    {
      "midi": 54,
      "hit": false,
      "t": 202800,
      "d": 1200,
      "v": 100
    },
    {
      "midi": 53,
      "hit": false,
      "t": 204000,
      "d": 2400,
      "v": 100
    },
    {
      "midi": 61,
      "hit": false,
      "t": 204000,
      "d": 2400,
      "v": 100
    },
    {
      "midi": 25,
      "hit": false,
      "t": 204000,
      "d": 7200,
      "v": 100
    },
    {
      "midi": 37,
      "hit": false,
      "t": 204000,
      "d": 7200,
      "v": 100
    },
    {
      "midi": 60,
      "hit": false,
      "t": 206400,
      "d": 300,
      "v": 100
    },
    {
      "midi": 61,
      "hit": false,
      "t": 206700,
      "d": 1800,
      "v": 100
    },
    {
      "midi": 63,
      "hit": false,
      "t": 207900,
      "d": 300,
      "v": 100
    },
    {
      "midi": 65,
      "hit": false,
      "t": 208200,
      "d": 300,
      "v": 100
    },
    {
      "midi": 58,
      "hit": false,
      "t": 208500,
      "d": 300,
      "v": 100
    },
    {
      "midi": 56,
      "hit": false,
      "t": 208800,
      "d": 1800,
      "v": 100
    },
    {
      "midi": 61,
      "hit": false,
      "t": 210600,
      "d": 300,
      "v": 100
    },
    {
      "midi": 60,
      "hit": false,
      "t": 210900,
      "d": 300,
      "v": 100
    },
    {
      "midi": 58,
      "hit": false,
      "t": 211200,
      "d": 1200,
      "v": 100
    },
    {
      "midi": 42,
      "hit": false,
      "t": 211200,
      "d": 600,
      "v": 100
    },
    {
      "midi": 44,
      "hit": false,
      "t": 211800,
      "d": 600,
      "v": 100
    },
    {
      "midi": 49,
      "hit": false,
      "t": 211800,
      "d": 600,
      "v": 100
    },
    {
      "midi": 54,
      "hit": false,
      "t": 212400,
      "d": 600,
      "v": 100
    },
    {
      "midi": 46,
      "hit": false,
      "t": 212400,
      "d": 600,
      "v": 100
    },
    {
      "midi": 56,
      "hit": false,
      "t": 213000,
      "d": 600,
      "v": 100
    },
    {
      "midi": 49,
      "hit": false,
      "t": 213000,
      "d": 600,
      "v": 100
    },
    {
      "midi": 61,
      "hit": false,
      "t": 213600,
      "d": 1780,
      "v": 100
    },
    {
      "midi": 54,
      "hit": false,
      "t": 213600,
      "d": 2400,
      "v": 100
    },
    {
      "midi": 61,
      "hit": false,
      "t": 215400,
      "d": 297.5,
      "v": 100
    },
    {
      "midi": 60,
      "hit": false,
      "t": 215700,
      "d": 300,
      "v": 100
    },
    {
      "midi": 58,
      "hit": false,
      "t": 216000,
      "d": 2400,
      "v": 100
    },
    {
      "midi": 36,
      "hit": false,
      "t": 216000,
      "d": 4800,
      "v": 100
    },
    {
      "midi": 51,
      "hit": false,
      "t": 216000,
      "d": 4800,
      "v": 100
    },
    {
      "midi": 65,
      "hit": false,
      "t": 218400,
      "d": 1200,
      "v": 100
    },
    {
      "midi": 63,
      "hit": false,
      "t": 219600,
      "d": 600,
      "v": 100
    },
    {
      "midi": 62,
      "hit": false,
      "t": 220200,
      "d": 600,
      "v": 100
    },
    {
      "midi": 63,
      "hit": false,
      "t": 220800,
      "d": 600,
      "v": 100
    },
    {
      "midi": 38,
      "hit": false,
      "t": 220800,
      "d": 4800,
      "v": 100
    },
    {
      "midi": 53,
      "hit": false,
      "t": 220800,
      "d": 4800,
      "v": 100
    },
    {
      "midi": 62,
      "hit": false,
      "t": 221400,
      "d": 1800,
      "v": 100
    },
    {
      "midi": 58,
      "hit": false,
      "t": 223200,
      "d": 1200,
      "v": 100
    },
    {
      "midi": 70,
      "hit": false,
      "t": 224400,
      "d": 1200,
      "v": 100
    },
    {
      "midi": 70,
      "hit": false,
      "t": 225600,
      "d": 4800,
      "v": 100
    },
    {
      "midi": 39,
      "hit": false,
      "t": 225600,
      "d": 9600,
      "v": 100
    },
    {
      "midi": 56,
      "hit": false,
      "t": 228000,
      "d": 600,
      "v": 100
    },
    {
      "midi": 61,
      "hit": false,
      "t": 228000,
      "d": 7182.5,
      "v": 100
    },
    {
      "midi": 54,
      "hit": false,
      "t": 228600,
      "d": 600,
      "v": 100
    },
    {
      "midi": 56,
      "hit": false,
      "t": 229200,
      "d": 600,
      "v": 100
    },
    {
      "midi": 54,
      "hit": false,
      "t": 229800,
      "d": 5382.5,
      "v": 100
    },
    {
      "midi": 70,
      "hit": false,
      "t": 232800,
      "d": 1200,
      "v": 100
    },
    {
      "midi": 72,
      "hit": false,
      "t": 234000,
      "d": 600,
      "v": 100
    },
    {
      "midi": 73,
      "hit": false,
      "t": 234600,
      "d": 600,
      "v": 100
    },
    {
      "midi": 68,
      "hit": false,
      "t": 235200,
      "d": 3590,
      "v": 102
    },
    {
      "midi": 41,
      "hit": false,
      "t": 235200,
      "d": 3590,
      "v": 101
    },
    {
      "midi": 60,
      "hit": false,
      "t": 236400,
      "d": 600,
      "v": 100
    },
    {
      "midi": 63,
      "hit": false,
      "t": 236400,
      "d": 600,
      "v": 100
    },
    {
      "midi": 56,
      "hit": false,
      "t": 236400,
      "d": 600,
      "v": 100
    },
    {
      "midi": 56,
      "hit": false,
      "t": 237000,
      "d": 600,
      "v": 100
    },
    {
      "midi": 60,
      "hit": false,
      "t": 237000,
      "d": 600,
      "v": 100
    },
    {
      "midi": 53,
      "hit": false,
      "t": 237000,
      "d": 600,
      "v": 100
    },
    {
      "midi": 56,
      "hit": false,
      "t": 237600,
      "d": 1190,
      "v": 100
    },
    {
      "midi": 49,
      "hit": false,
      "t": 237600,
      "d": 5695,
      "v": 100
    },
    {
      "midi": 61,
      "hit": false,
      "t": 238800,
      "d": 2180,
      "v": 100
    },
    {
      "midi": 42,
      "hit": false,
      "t": 238800,
      "d": 4495,
      "v": 100
    },
    {
      "midi": 68,
      "hit": false,
      "t": 241005,
      "d": 1200,
      "v": 100
    },
    {
      "midi": 65,
      "hit": false,
      "t": 242400,
      "d": 600,
      "v": 100
    },
    {
      "midi": 61,
      "hit": false,
      "t": 243000,
      "d": 600,
      "v": 100
    },
    {
      "midi": 36,
      "hit": false,
      "t": 243147.5,
      "d": 172.5,
      "v": 73
    },
    {
      "midi": 37,
      "hit": false,
      "t": 243300,
      "d": 187.5,
      "v": 85
    },
    {
      "midi": 38,
      "hit": false,
      "t": 243442.5,
      "d": 157.5,
      "v": 91
    },
    {
      "midi": 58,
      "hit": false,
      "t": 243600,
      "d": 450,
      "v": 101
    },
    {
      "midi": 61,
      "hit": false,
      "t": 243600,
      "d": 450,
      "v": 101
    },
    {
      "midi": 66,
      "hit": false,
      "t": 243600,
      "d": 740,
      "v": 100
    },
    {
      "midi": 39,
      "hit": false,
      "t": 243600,
      "d": 292.5,
      "v": 99
    },
    {
      "midi": 56,
      "hit": false,
      "t": 244800,
      "d": 522.5,
      "v": 106
    },
    {
      "midi": 61,
      "hit": false,
      "t": 244800,
      "d": 522.5,
      "v": 101
    },
    {
      "midi": 65,
      "hit": false,
      "t": 244800,
      "d": 760,
      "v": 100
    },
    {
      "midi": 41,
      "hit": false,
      "t": 244800,
      "d": 542.5,
      "v": 98
    },
    {
      "midi": 56,
      "hit": false,
      "t": 246000,
      "d": 600,
      "v": 100
    },
    {
      "midi": 63,
      "hit": false,
      "t": 246000,
      "d": 600,
      "v": 100
    },
    {
      "midi": 42,
      "hit": false,
      "t": 246000,
      "d": 870,
      "v": 101
    },
    {
      "midi": 61,
      "hit": false,
      "t": 246600,
      "d": 600,
      "v": 100
    },
    {
      "midi": 63,
      "hit": false,
      "t": 247200,
      "d": 2400,
      "v": 100
    },
    {
      "midi": 56,
      "hit": false,
      "t": 247200,
      "d": 4770,
      "v": 100
    },
    {
      "midi": 60,
      "hit": false,
      "t": 247200,
      "d": 4770,
      "v": 101
    },
    {
      "midi": 32,
      "hit": false,
      "t": 247200,
      "d": 4800,
      "v": 100
    },
    {
      "midi": 70,
      "hit": false,
      "t": 249607.5,
      "d": 1200,
      "v": 100
    },
    {
      "midi": 68,
      "hit": false,
      "t": 250807.5,
      "d": 2682.5,
      "v": 98
    },
    {
      "midi": 34,
      "hit": false,
      "t": 252000,
      "d": 4800,
      "v": 100
    },
    {
      "midi": 49,
      "hit": false,
      "t": 252000,
      "d": 4800,
      "v": 100
    },
    {
      "midi": 61,
      "hit": false,
      "t": 253530,
      "d": 300,
      "v": 100
    },
    {
      "midi": 63,
      "hit": false,
      "t": 253780,
      "d": 300,
      "v": 100
    },
    {
      "midi": 65,
      "hit": false,
      "t": 254080,
      "d": 300,
      "v": 100
    },
    {
      "midi": 66,
      "hit": false,
      "t": 254395,
      "d": 600,
      "v": 100
    },
    {
      "midi": 65,
      "hit": false,
      "t": 254995,
      "d": 600,
      "v": 100
    },
    {
      "midi": 63,
      "hit": false,
      "t": 255590,
      "d": 600,
      "v": 100
    },
    {
      "midi": 61,
      "hit": false,
      "t": 256190,
      "d": 600,
      "v": 100
    },
    {
      "midi": 63,
      "hit": false,
      "t": 256800,
      "d": 2400,
      "v": 100
    },
    {
      "midi": 48,
      "hit": false,
      "t": 256800,
      "d": 2377.5,
      "v": 97
    },
    {
      "midi": 51,
      "hit": false,
      "t": 257200,
      "d": 1975,
      "v": 102
    },
    {
      "midi": 56,
      "hit": false,
      "t": 257600,
      "d": 1585,
      "v": 100
    },
    {
      "midi": 63,
      "hit": false,
      "t": 258000,
      "d": 1200,
      "v": 100
    },
    {
      "midi": 72,
      "hit": false,
      "t": 258550,
      "d": 600,
      "v": 100
    },
    {
      "midi": 49,
      "hit": false,
      "t": 259200,
      "d": 2377.5,
      "v": 99
    },
    {
      "midi": 68,
      "hit": false,
      "t": 259230,
      "d": 2370,
      "v": 100
    },
    {
      "midi": 56,
      "hit": false,
      "t": 259600,
      "d": 1975,
      "v": 103
    },
    {
      "midi": 61,
      "hit": false,
      "t": 260000,
      "d": 1597.5,
      "v": 102
    },
    {
      "midi": 65,
      "hit": false,
      "t": 260400,
      "d": 1200,
      "v": 100
    },
    {
      "midi": 56,
      "hit": false,
      "t": 261600,
      "d": 2400,
      "v": 100
    },
    {
      "midi": 61,
      "hit": false,
      "t": 261600,
      "d": 2400,
      "v": 100
    },
    {
      "midi": 65,
      "hit": false,
      "t": 261600,
      "d": 2400,
      "v": 100
    },
    {
      "midi": 37,
      "hit": false,
      "t": 261600,
      "d": 2400,
      "v": 100
    },
    {
      "midi": 49,
      "hit": false,
      "t": 261600,
      "d": 2400,
      "v": 100
    },
    {
      "midi": 30,
      "hit": false,
      "t": 264000,
      "d": 1200,
      "v": 100
    },
    {
      "midi": 42,
      "hit": false,
      "t": 264000,
      "d": 1200,
      "v": 100
    },
    {
      "midi": 49,
      "hit": false,
      "t": 264000,
      "d": 1200,
      "v": 100
    },
    {
      "midi": 54,
      "hit": false,
      "t": 264000,
      "d": 1200,
      "v": 100
    },
    {
      "midi": 58,
      "hit": false,
      "t": 264000,
      "d": 1200,
      "v": 100
    },
    {
      "midi": 49,
      "hit": false,
      "t": 265200,
      "d": 1200,
      "v": 100
    },
    {
      "midi": 53,
      "hit": false,
      "t": 265200,
      "d": 1200,
      "v": 100
    },
    {
      "midi": 41,
      "hit": false,
      "t": 265202.5,
      "d": 1197.5,
      "v": 100
    },
    {
      "midi": 56,
      "hit": false,
      "t": 265207.5,
      "d": 1192.5,
      "v": 100
    },
    {
      "midi": 29,
      "hit": false,
      "t": 265230,
      "d": 1170,
      "v": 100
    },
    {
      "midi": 54,
      "hit": false,
      "t": 266400,
      "d": 4800,
      "v": 100
    },
    {
      "midi": 58,
      "hit": false,
      "t": 266400,
      "d": 4800,
      "v": 100
    },
    {
      "midi": 27,
      "hit": false,
      "t": 266400,
      "d": 4800,
      "v": 100
    },
    {
      "midi": 39,
      "hit": false,
      "t": 266400,
      "d": 4800,
      "v": 100
    },
    {
      "midi": 61,
      "hit": false,
      "t": 270300,
      "d": 300,
      "v": 100
    },
    {
      "midi": 63,
      "hit": false,
      "t": 270600,
      "d": 300,
      "v": 100
    },
    {
      "midi": 65,
      "hit": false,
      "t": 270880,
      "d": 300,
      "v": 100
    },
    {
      "midi": 66,
      "hit": false,
      "t": 271200,
      "d": 600,
      "v": 100
    },
    {
      "midi": 32,
      "hit": false,
      "t": 271200,
      "d": 4795,
      "v": 100
    },
    {
      "midi": 44,
      "hit": false,
      "t": 271200,
      "d": 4795,
      "v": 100
    },
    {
      "midi": 65,
      "hit": false,
      "t": 271770,
      "d": 600,
      "v": 100
    },
    {
      "midi": 66,
      "hit": false,
      "t": 272380,
      "d": 600,
      "v": 100
    },
    {
      "midi": 68,
      "hit": false,
      "t": 272980,
      "d": 600,
      "v": 100
    },
    {
      "midi": 56,
      "hit": false,
      "t": 273590,
      "d": 2400,
      "v": 100
    },
    {
      "midi": 61,
      "hit": false,
      "t": 273600,
      "d": 1187.5,
      "v": 100
    },
    {
      "midi": 63,
      "hit": false,
      "t": 273602.5,
      "d": 2337.5,
      "v": 100
    },
    {
      "midi": 60,
      "hit": false,
      "t": 274795,
      "d": 1150,
      "v": 100
    },
    {
      "midi": 25,
      "hit": false,
      "t": 276000,
      "d": 4800,
      "v": 125
    },
    {
      "midi": 37,
      "hit": false,
      "t": 276000,
      "d": 4800,
      "v": 125
    },
    {
      "midi": 56,
      "hit": false,
      "t": 276012.5,
      "d": 600,
      "v": 100
    },
    {
      "midi": 61,
      "hit": false,
      "t": 276602.5,
      "d": 600,
      "v": 100
    },
    {
      "midi": 63,
      "hit": false,
      "t": 277205,
      "d": 600,
      "v": 100
    },
    {
      "midi": 68,
      "hit": false,
      "t": 277800,
      "d": 600,
      "v": 100
    },
    {
      "midi": 68,
      "hit": false,
      "t": 278405,
      "d": 600,
      "v": 100
    },
    {
      "midi": 73,
      "hit": false,
      "t": 279007.5,
      "d": 600,
      "v": 100
    },
    {
      "midi": 75,
      "hit": false,
      "t": 279600,
      "d": 600,
      "v": 100
    },
    {
      "midi": 80,
      "hit": false,
      "t": 280207.5,
      "d": 592.5,
      "v": 100
    },
    {
      "midi": 77,
      "hit": false,
      "t": 280800,
      "d": 1800,
      "v": 100
    },
    {
      "midi": 30,
      "hit": false,
      "t": 280800,
      "d": 4800,
      "v": 125
    },
    {
      "midi": 42,
      "hit": false,
      "t": 280800,
      "d": 4800,
      "v": 125
    },
    {
      "midi": 68,
      "hit": false,
      "t": 280810,
      "d": 1800,
      "v": 100
    },
    {
      "midi": 78,
      "hit": false,
      "t": 282600,
      "d": 300,
      "v": 100
    },
    {
      "midi": 77,
      "hit": false,
      "t": 282900,
      "d": 300,
      "v": 100
    },
    {
      "midi": 75,
      "hit": false,
      "t": 283200,
      "d": 600,
      "v": 100
    },
    {
      "midi": 73,
      "hit": false,
      "t": 283800,
      "d": 600,
      "v": 100
    },
    {
      "midi": 68,
      "hit": false,
      "t": 284400,
      "d": 600,
      "v": 100
    },
    {
      "midi": 61,
      "hit": false,
      "t": 285000,
      "d": 600,
      "v": 100
    },
    {
      "midi": 29,
      "hit": false,
      "t": 285600,
      "d": 9600,
      "v": 125
    },
    {
      "midi": 41,
      "hit": false,
      "t": 285600,
      "d": 9600,
      "v": 125
    },
    {
      "midi": 99,
      "hit": false,
      "t": 286770,
      "d": 300,
      "v": 100
    },
    {
      "midi": 92,
      "hit": false,
      "t": 287070,
      "d": 300,
      "v": 100
    },
    {
      "midi": 90,
      "hit": false,
      "t": 287330,
      "d": 300,
      "v": 100
    },
    {
      "midi": 89,
      "hit": false,
      "t": 287630,
      "d": 300,
      "v": 100
    },
    {
      "midi": 94,
      "hit": false,
      "t": 288050,
      "d": 300,
      "v": 100
    },
    {
      "midi": 89,
      "hit": false,
      "t": 288320,
      "d": 300,
      "v": 100
    },
    {
      "midi": 86,
      "hit": false,
      "t": 288570,
      "d": 300,
      "v": 100
    },
    {
      "midi": 82,
      "hit": false,
      "t": 288900,
      "d": 300,
      "v": 100
    },
    {
      "midi": 87,
      "hit": false,
      "t": 289200,
      "d": 300,
      "v": 100
    },
    {
      "midi": 80,
      "hit": false,
      "t": 289500,
      "d": 300,
      "v": 100
    },
    {
      "midi": 78,
      "hit": false,
      "t": 289770,
      "d": 300,
      "v": 100
    },
    {
      "midi": 77,
      "hit": false,
      "t": 290080,
      "d": 300,
      "v": 100
    },
    {
      "midi": 82,
      "hit": false,
      "t": 290400,
      "d": 300,
      "v": 100
    },
    {
      "midi": 77,
      "hit": false,
      "t": 290700,
      "d": 300,
      "v": 100
    },
    {
      "midi": 74,
      "hit": false,
      "t": 290970,
      "d": 300,
      "v": 100
    },
    {
      "midi": 70,
      "hit": false,
      "t": 291330,
      "d": 300,
      "v": 100
    },
    {
      "midi": 75,
      "hit": false,
      "t": 291570,
      "d": 300,
      "v": 100
    },
    {
      "midi": 68,
      "hit": false,
      "t": 291850,
      "d": 300,
      "v": 100
    },
    {
      "midi": 66,
      "hit": false,
      "t": 292170,
      "d": 300,
      "v": 100
    },
    {
      "midi": 65,
      "hit": false,
      "t": 292500,
      "d": 300,
      "v": 100
    },
    {
      "midi": 70,
      "hit": false,
      "t": 292800,
      "d": 300,
      "v": 100
    },
    {
      "midi": 65,
      "hit": false,
      "t": 293080,
      "d": 300,
      "v": 100
    },
    {
      "midi": 62,
      "hit": false,
      "t": 293380,
      "d": 300,
      "v": 100
    },
    {
      "midi": 58,
      "hit": false,
      "t": 293670,
      "d": 300,
      "v": 100
    },
    {
      "midi": 63,
      "hit": false,
      "t": 294030,
      "d": 300,
      "v": 100
    },
    {
      "midi": 56,
      "hit": false,
      "t": 294350,
      "d": 300,
      "v": 100
    },
    {
      "midi": 54,
      "hit": false,
      "t": 294550,
      "d": 300,
      "v": 100
    },
    {
      "midi": 53,
      "hit": false,
      "t": 294870,
      "d": 240,
      "v": 100
    },
    {
      "midi": 25,
      "hit": false,
      "t": 295200,
      "d": 4800,
      "v": 125
    },
    {
      "midi": 37,
      "hit": false,
      "t": 295200,
      "d": 4800,
      "v": 125
    },
    {
      "midi": 56,
      "hit": false,
      "t": 295212.5,
      "d": 600,
      "v": 100
    },
    {
      "midi": 61,
      "hit": false,
      "t": 295802.5,
      "d": 600,
      "v": 100
    },
    {
      "midi": 63,
      "hit": false,
      "t": 296405,
      "d": 600,
      "v": 100
    },
    {
      "midi": 68,
      "hit": false,
      "t": 297000,
      "d": 600,
      "v": 100
    },
    {
      "midi": 68,
      "hit": false,
      "t": 297605,
      "d": 600,
      "v": 100
    },
    {
      "midi": 73,
      "hit": false,
      "t": 298207.5,
      "d": 600,
      "v": 100
    },
    {
      "midi": 75,
      "hit": false,
      "t": 298800,
      "d": 600,
      "v": 100
    },
    {
      "midi": 80,
      "hit": false,
      "t": 299407.5,
      "d": 592.5,
      "v": 100
    },
    {
      "midi": 77,
      "hit": false,
      "t": 300000,
      "d": 1800,
      "v": 100
    },
    {
      "midi": 30,
      "hit": false,
      "t": 300000,
      "d": 4800,
      "v": 125
    },
    {
      "midi": 42,
      "hit": false,
      "t": 300000,
      "d": 4800,
      "v": 125
    },
    {
      "midi": 68,
      "hit": false,
      "t": 300010,
      "d": 1800,
      "v": 100
    },
    {
      "midi": 78,
      "hit": false,
      "t": 301800,
      "d": 300,
      "v": 100
    },
    {
      "midi": 77,
      "hit": false,
      "t": 302100,
      "d": 300,
      "v": 100
    },
    {
      "midi": 75,
      "hit": false,
      "t": 302400,
      "d": 600,
      "v": 100
    },
    {
      "midi": 73,
      "hit": false,
      "t": 303000,
      "d": 600,
      "v": 100
    },
    {
      "midi": 68,
      "hit": false,
      "t": 303600,
      "d": 600,
      "v": 100
    },
    {
      "midi": 61,
      "hit": false,
      "t": 304200,
      "d": 600,
      "v": 100
    },
    {
      "midi": 34,
      "hit": false,
      "t": 304800,
      "d": 9600,
      "v": 125
    },
    {
      "midi": 46,
      "hit": false,
      "t": 304800,
      "d": 9600,
      "v": 125
    },
    {
      "midi": 99,
      "hit": false,
      "t": 305970,
      "d": 300,
      "v": 100
    },
    {
      "midi": 92,
      "hit": false,
      "t": 306270,
      "d": 300,
      "v": 100
    },
    {
      "midi": 90,
      "hit": false,
      "t": 306530,
      "d": 300,
      "v": 100
    },
    {
      "midi": 89,
      "hit": false,
      "t": 306830,
      "d": 300,
      "v": 100
    },
    {
      "midi": 94,
      "hit": false,
      "t": 307250,
      "d": 300,
      "v": 100
    },
    {
      "midi": 89,
      "hit": false,
      "t": 307520,
      "d": 300,
      "v": 100
    },
    {
      "midi": 86,
      "hit": false,
      "t": 307770,
      "d": 300,
      "v": 100
    },
    {
      "midi": 82,
      "hit": false,
      "t": 308100,
      "d": 300,
      "v": 100
    },
    {
      "midi": 87,
      "hit": false,
      "t": 308400,
      "d": 300,
      "v": 100
    },
    {
      "midi": 80,
      "hit": false,
      "t": 308700,
      "d": 300,
      "v": 100
    },
    {
      "midi": 78,
      "hit": false,
      "t": 308970,
      "d": 300,
      "v": 100
    },
    {
      "midi": 77,
      "hit": false,
      "t": 309280,
      "d": 300,
      "v": 100
    },
    {
      "midi": 82,
      "hit": false,
      "t": 309600,
      "d": 300,
      "v": 100
    },
    {
      "midi": 77,
      "hit": false,
      "t": 309900,
      "d": 300,
      "v": 100
    },
    {
      "midi": 74,
      "hit": false,
      "t": 310170,
      "d": 300,
      "v": 100
    },
    {
      "midi": 70,
      "hit": false,
      "t": 310530,
      "d": 300,
      "v": 100
    },
    {
      "midi": 75,
      "hit": false,
      "t": 310770,
      "d": 300,
      "v": 100
    },
    {
      "midi": 68,
      "hit": false,
      "t": 311050,
      "d": 300,
      "v": 100
    },
    {
      "midi": 66,
      "hit": false,
      "t": 311370,
      "d": 300,
      "v": 100
    },
    {
      "midi": 65,
      "hit": false,
      "t": 311700,
      "d": 300,
      "v": 100
    },
    {
      "midi": 70,
      "hit": false,
      "t": 312000,
      "d": 300,
      "v": 100
    },
    {
      "midi": 65,
      "hit": false,
      "t": 312280,
      "d": 300,
      "v": 100
    },
    {
      "midi": 62,
      "hit": false,
      "t": 312580,
      "d": 300,
      "v": 100
    },
    {
      "midi": 58,
      "hit": false,
      "t": 312870,
      "d": 300,
      "v": 100
    },
    {
      "midi": 63,
      "hit": false,
      "t": 313230,
      "d": 300,
      "v": 100
    },
    {
      "midi": 56,
      "hit": false,
      "t": 313550,
      "d": 300,
      "v": 100
    },
    {
      "midi": 54,
      "hit": false,
      "t": 313750,
      "d": 300,
      "v": 100
    },
    {
      "midi": 53,
      "hit": false,
      "t": 314070,
      "d": 237.5,
      "v": 100
    },
    {
      "midi": 56,
      "hit": false,
      "t": 314400,
      "d": 600,
      "v": 100
    },
    {
      "midi": 61,
      "hit": false,
      "t": 314400,
      "d": 600,
      "v": 100
    },
    {
      "midi": 25,
      "hit": false,
      "t": 314400,
      "d": 14400,
      "v": 100
    },
    {
      "midi": 37,
      "hit": false,
      "t": 314400,
      "d": 14400,
      "v": 100
    },
    {
      "midi": 49,
      "hit": false,
      "t": 315000,
      "d": 600,
      "v": 100
    },
    {
      "midi": 54,
      "hit": false,
      "t": 315000,
      "d": 600,
      "v": 100
    },
    {
      "midi": 56,
      "hit": false,
      "t": 315600,
      "d": 600,
      "v": 100
    },
    {
      "midi": 61,
      "hit": false,
      "t": 315600,
      "d": 600,
      "v": 100
    },
    {
      "midi": 49,
      "hit": false,
      "t": 316200,
      "d": 600,
      "v": 100
    },
    {
      "midi": 54,
      "hit": false,
      "t": 316200,
      "d": 600,
      "v": 100
    },
    {
      "midi": 56,
      "hit": false,
      "t": 316800,
      "d": 600,
      "v": 100
    },
    {
      "midi": 61,
      "hit": false,
      "t": 316800,
      "d": 600,
      "v": 100
    },
    {
      "midi": 49,
      "hit": false,
      "t": 317400,
      "d": 600,
      "v": 100
    },
    {
      "midi": 54,
      "hit": false,
      "t": 317400,
      "d": 600,
      "v": 100
    },
    {
      "midi": 56,
      "hit": false,
      "t": 318000,
      "d": 600,
      "v": 100
    },
    {
      "midi": 61,
      "hit": false,
      "t": 318000,
      "d": 600,
      "v": 100
    },
    {
      "midi": 49,
      "hit": false,
      "t": 318600,
      "d": 600,
      "v": 100
    },
    {
      "midi": 54,
      "hit": false,
      "t": 318600,
      "d": 600,
      "v": 100
    },
    {
      "midi": 56,
      "hit": false,
      "t": 319200,
      "d": 600,
      "v": 100
    },
    {
      "midi": 61,
      "hit": false,
      "t": 319200,
      "d": 600,
      "v": 100
    },
    {
      "midi": 49,
      "hit": false,
      "t": 319800,
      "d": 600,
      "v": 100
    },
    {
      "midi": 54,
      "hit": false,
      "t": 319800,
      "d": 600,
      "v": 100
    },
    {
      "midi": 56,
      "hit": false,
      "t": 320400,
      "d": 600,
      "v": 100
    },
    {
      "midi": 61,
      "hit": false,
      "t": 320400,
      "d": 600,
      "v": 100
    },
    {
      "midi": 49,
      "hit": false,
      "t": 321000,
      "d": 600,
      "v": 100
    },
    {
      "midi": 54,
      "hit": false,
      "t": 321000,
      "d": 600,
      "v": 100
    },
    {
      "midi": 56,
      "hit": false,
      "t": 321600,
      "d": 600,
      "v": 100
    },
    {
      "midi": 61,
      "hit": false,
      "t": 321600,
      "d": 600,
      "v": 100
    },
    {
      "midi": 49,
      "hit": false,
      "t": 322200,
      "d": 600,
      "v": 100
    },
    {
      "midi": 54,
      "hit": false,
      "t": 322200,
      "d": 600,
      "v": 100
    },
    {
      "midi": 56,
      "hit": false,
      "t": 322800,
      "d": 600,
      "v": 100
    },
    {
      "midi": 61,
      "hit": false,
      "t": 322800,
      "d": 600,
      "v": 100
    },
    {
      "midi": 49,
      "hit": false,
      "t": 323400,
      "d": 600,
      "v": 100
    },
    {
      "midi": 54,
      "hit": false,
      "t": 323400,
      "d": 600,
      "v": 100
    },
    {
      "midi": 56,
      "hit": false,
      "t": 324000,
      "d": 600,
      "v": 100
    },
    {
      "midi": 61,
      "hit": false,
      "t": 324000,
      "d": 600,
      "v": 100
    },
    {
      "midi": 49,
      "hit": false,
      "t": 324600,
      "d": 600,
      "v": 100
    },
    {
      "midi": 54,
      "hit": false,
      "t": 324600,
      "d": 600,
      "v": 100
    },
    {
      "midi": 56,
      "hit": false,
      "t": 325200,
      "d": 600,
      "v": 100
    },
    {
      "midi": 61,
      "hit": false,
      "t": 325200,
      "d": 600,
      "v": 100
    },
    {
      "midi": 49,
      "hit": false,
      "t": 325800,
      "d": 600,
      "v": 100
    },
    {
      "midi": 54,
      "hit": false,
      "t": 325800,
      "d": 600,
      "v": 100
    },
    {
      "midi": 56,
      "hit": false,
      "t": 326400,
      "d": 600,
      "v": 100
    },
    {
      "midi": 61,
      "hit": false,
      "t": 326400,
      "d": 600,
      "v": 100
    },
    {
      "midi": 49,
      "hit": false,
      "t": 327000,
      "d": 600,
      "v": 100
    },
    {
      "midi": 54,
      "hit": false,
      "t": 327000,
      "d": 600,
      "v": 100
    },
    {
      "midi": 56,
      "hit": false,
      "t": 327600,
      "d": 600,
      "v": 100
    },
    {
      "midi": 61,
      "hit": false,
      "t": 327600,
      "d": 600,
      "v": 100
    },
    {
      "midi": 49,
      "hit": false,
      "t": 328200,
      "d": 600,
      "v": 100
    },
    {
      "midi": 54,
      "hit": false,
      "t": 328200,
      "d": 600,
      "v": 100
    },
    {
      "midi": 61,
      "hit": false,
      "t": 328800,
      "d": 2400,
      "v": 100
    },
    {
      "midi": 56,
      "hit": false,
      "t": 328800,
      "d": 2400,
      "v": 100
    },
    {
      "midi": 68,
      "hit": false,
      "t": 331200,
      "d": 1182.5,
      "v": 100
    },
    {
      "midi": 56,
      "hit": false,
      "t": 331200,
      "d": 1200,
      "v": 100
    },
    {
      "midi": 68,
      "hit": false,
      "t": 332400,
      "d": 1190,
      "v": 100
    },
    {
      "midi": 80,
      "hit": false,
      "t": 332400,
      "d": 1200,
      "v": 100
    },
    {
      "midi": 68,
      "hit": false,
      "t": 333600,
      "d": 1177.5,
      "v": 99
    },
    {
      "midi": 80,
      "hit": false,
      "t": 333600,
      "d": 1200,
      "v": 100
    },
    {
      "midi": 53,
      "hit": false,
      "t": 333600,
      "d": 2400,
      "v": 100
    },
    {
      "midi": 61,
      "hit": false,
      "t": 333600,
      "d": 2400,
      "v": 100
    },
    {
      "midi": 63,
      "hit": false,
      "t": 333600,
      "d": 2400,
      "v": 100
    },
    {
      "midi": 73,
      "hit": false,
      "t": 334800,
      "d": 1200,
      "v": 100
    },
    {
      "midi": 63,
      "hit": false,
      "t": 336000,
      "d": 1200,
      "v": 100
    },
    {
      "midi": 71,
      "hit": false,
      "t": 336000,
      "d": 1200,
      "v": 100
    },
    {
      "midi": 51,
      "hit": false,
      "t": 336000,
      "d": 2400,
      "v": 100
    },
    {
      "midi": 59,
      "hit": false,
      "t": 336000,
      "d": 2400,
      "v": 100
    },
    {
      "midi": 61,
      "hit": false,
      "t": 336000,
      "d": 2400,
      "v": 100
    },
    {
      "midi": 66,
      "hit": false,
      "t": 337200,
      "d": 1200,
      "v": 100
    },
    {
      "midi": 68,
      "hit": false,
      "t": 338400,
      "d": 2400,
      "v": 100
    },
    {
      "midi": 49,
      "hit": false,
      "t": 338400,
      "d": 4800,
      "v": 100
    },
    {
      "midi": 53,
      "hit": false,
      "t": 338400,
      "d": 4800,
      "v": 100
    },
    {
      "midi": 61,
      "hit": false,
      "t": 338400,
      "d": 4800,
      "v": 100
    },
    {
      "midi": 77,
      "hit": false,
      "t": 339000,
      "d": 600,
      "v": 100
    },
    {
      "midi": 75,
      "hit": false,
      "t": 339600,
      "d": 600,
      "v": 100
    },
    {
      "midi": 80,
      "hit": false,
      "t": 340200,
      "d": 600,
      "v": 100
    },
    {
      "midi": 75,
      "hit": false,
      "t": 340720,
      "d": 80,
      "v": 100
    },
    {
      "midi": 77,
      "hit": false,
      "t": 340800,
      "d": 600,
      "v": 100
    },
    {
      "midi": 75,
      "hit": false,
      "t": 341400,
      "d": 300,
      "v": 100
    },
    {
      "midi": 73,
      "hit": false,
      "t": 341700,
      "d": 300,
      "v": 100
    },
    {
      "midi": 72,
      "hit": false,
      "t": 342000,
      "d": 600,
      "v": 100
    },
    {
      "midi": 68,
      "hit": false,
      "t": 342600,
      "d": 600,
      "v": 100
    },
    {
      "midi": 70,
      "hit": false,
      "t": 343200,
      "d": 600,
      "v": 100
    },
    {
      "midi": 42,
      "hit": false,
      "t": 343200,
      "d": 2322.5,
      "v": 97
    },
    {
      "midi": 49,
      "hit": false,
      "t": 343800,
      "d": 1712.5,
      "v": 99
    },
    {
      "midi": 61,
      "hit": false,
      "t": 343812.5,
      "d": 600,
      "v": 100
    },
    {
      "midi": 66,
      "hit": false,
      "t": 344400,
      "d": 600,
      "v": 100
    },
    {
      "midi": 54,
      "hit": false,
      "t": 344400,
      "d": 650,
      "v": 100
    },
    {
      "midi": 68,
      "hit": false,
      "t": 345000,
      "d": 600,
      "v": 100
    },
    {
      "midi": 56,
      "hit": false,
      "t": 345000,
      "d": 600,
      "v": 100
    },
    {
      "midi": 73,
      "hit": false,
      "t": 345600,
      "d": 600,
      "v": 100
    },
    {
      "midi": 42,
      "hit": false,
      "t": 345600,
      "d": 2400,
      "v": 100
    },
    {
      "midi": 49,
      "hit": false,
      "t": 345600,
      "d": 2400,
      "v": 100
    },
    {
      "midi": 54,
      "hit": false,
      "t": 345600,
      "d": 2400,
      "v": 100
    },
    {
      "midi": 56,
      "hit": false,
      "t": 345600,
      "d": 2400,
      "v": 100
    },
    {
      "midi": 58,
      "hit": false,
      "t": 345600,
      "d": 2400,
      "v": 100
    },
    {
      "midi": 68,
      "hit": false,
      "t": 346200,
      "d": 600,
      "v": 100
    },
    {
      "midi": 73,
      "hit": false,
      "t": 346800,
      "d": 600,
      "v": 100
    },
    {
      "midi": 75,
      "hit": false,
      "t": 347400,
      "d": 600,
      "v": 100
    },
    {
      "midi": 70,
      "hit": false,
      "t": 348000,
      "d": 600,
      "v": 100
    },
    {
      "midi": 48,
      "hit": false,
      "t": 348000,
      "d": 2400,
      "v": 100
    },
    {
      "midi": 56,
      "hit": false,
      "t": 348030,
      "d": 2400,
      "v": 100
    },
    {
      "midi": 63,
      "hit": false,
      "t": 348060,
      "d": 2400,
      "v": 100
    },
    {
      "midi": 58,
      "hit": false,
      "t": 348600,
      "d": 600,
      "v": 100
    },
    {
      "midi": 63,
      "hit": false,
      "t": 349200,
      "d": 600,
      "v": 100
    },
    {
      "midi": 68,
      "hit": false,
      "t": 349800,
      "d": 600,
      "v": 100
    },
    {
      "midi": 58,
      "hit": false,
      "t": 350400,
      "d": 600,
      "v": 100
    },
    {
      "midi": 50,
      "hit": false,
      "t": 350400,
      "d": 2400,
      "v": 100
    },
    {
      "midi": 58,
      "hit": false,
      "t": 350430,
      "d": 2370,
      "v": 100
    },
    {
      "midi": 65,
      "hit": false,
      "t": 350460,
      "d": 2340,
      "v": 100
    },
    {
      "midi": 70,
      "hit": false,
      "t": 351000,
      "d": 587.5,
      "v": 101
    },
    {
      "midi": 70,
      "hit": false,
      "t": 351600,
      "d": 592.5,
      "v": 99
    },
    {
      "midi": 82,
      "hit": false,
      "t": 352200,
      "d": 600,
      "v": 100
    },
    {
      "midi": 70,
      "hit": false,
      "t": 352800,
      "d": 600,
      "v": 100
    },
    {
      "midi": 82,
      "hit": false,
      "t": 352800,
      "d": 600,
      "v": 100
    },
    {
      "midi": 51,
      "hit": false,
      "t": 352800,
      "d": 1200,
      "v": 100
    },
    {
      "midi": 58,
      "hit": false,
      "t": 352830,
      "d": 1200,
      "v": 100
    },
    {
      "midi": 66,
      "hit": false,
      "t": 352835,
      "d": 1200,
      "v": 100
    },
    {
      "midi": 78,
      "hit": false,
      "t": 353400,
      "d": 600,
      "v": 100
    },
    {
      "midi": 80,
      "hit": false,
      "t": 354000,
      "d": 600,
      "v": 100
    },
    {
      "midi": 68,
      "hit": false,
      "t": 354000,
      "d": 1200,
      "v": 100
    },
    {
      "midi": 61,
      "hit": false,
      "t": 354000,
      "d": 1180,
      "v": 99
    },
    {
      "midi": 53,
      "hit": false,
      "t": 354000,
      "d": 1200,
      "v": 100
    },
    {
      "midi": 73,
      "hit": false,
      "t": 354600,
      "d": 600,
      "v": 100
    },
    {
      "midi": 85,
      "hit": false,
      "t": 354600,
      "d": 600,
      "v": 100
    },
    {
      "midi": 70,
      "hit": false,
      "t": 355200,
      "d": 587.5,
      "v": 100
    },
    {
      "midi": 68,
      "hit": false,
      "t": 355200,
      "d": 2400,
      "v": 100
    },
    {
      "midi": 61,
      "hit": false,
      "t": 355200,
      "d": 2387.5,
      "v": 101
    },
    {
      "midi": 54,
      "hit": false,
      "t": 355200,
      "d": 2400,
      "v": 100
    },
    {
      "midi": 82,
      "hit": false,
      "t": 355212.5,
      "d": 577.5,
      "v": 101
    },
    {
      "midi": 82,
      "hit": false,
      "t": 355800,
      "d": 592.5,
      "v": 100
    },
    {
      "midi": 70,
      "hit": false,
      "t": 355800,
      "d": 600,
      "v": 100
    },
    {
      "midi": 72,
      "hit": false,
      "t": 356400,
      "d": 600,
      "v": 100
    },
    {
      "midi": 84,
      "hit": false,
      "t": 356400,
      "d": 600,
      "v": 100
    },
    {
      "midi": 73,
      "hit": false,
      "t": 357000,
      "d": 600,
      "v": 100
    },
    {
      "midi": 85,
      "hit": false,
      "t": 357000,
      "d": 600,
      "v": 100
    },
    {
      "midi": 75,
      "hit": false,
      "t": 357600,
      "d": 600,
      "v": 100
    },
    {
      "midi": 87,
      "hit": false,
      "t": 357600,
      "d": 600,
      "v": 100
    },
    {
      "midi": 55,
      "hit": false,
      "t": 357600,
      "d": 1200,
      "v": 100
    },
    {
      "midi": 61,
      "hit": false,
      "t": 357630,
      "d": 1200,
      "v": 100
    },
    {
      "midi": 67,
      "hit": false,
      "t": 357660,
      "d": 1200,
      "v": 100
    },
    {
      "midi": 82,
      "hit": false,
      "t": 358200,
      "d": 600,
      "v": 100
    },
    {
      "midi": 75,
      "hit": false,
      "t": 358800,
      "d": 600,
      "v": 100
    },
    {
      "midi": 84,
      "hit": false,
      "t": 358800,
      "d": 600,
      "v": 100
    },
    {
      "midi": 41,
      "hit": false,
      "t": 358800,
      "d": 1200,
      "v": 100
    },
    {
      "midi": 48,
      "hit": false,
      "t": 358830,
      "d": 1200,
      "v": 100
    },
    {
      "midi": 56,
      "hit": false,
      "t": 358860,
      "d": 1200,
      "v": 100
    },
    {
      "midi": 80,
      "hit": false,
      "t": 359400,
      "d": 600,
      "v": 100
    },
    {
      "midi": 73,
      "hit": false,
      "t": 360000,
      "d": 600,
      "v": 100
    },
    {
      "midi": 85,
      "hit": false,
      "t": 360000,
      "d": 600,
      "v": 100
    },
    {
      "midi": 42,
      "hit": false,
      "t": 360000,
      "d": 1925,
      "v": 100
    },
    {
      "midi": 49,
      "hit": false,
      "t": 360030,
      "d": 2352.5,
      "v": 99
    },
    {
      "midi": 58,
      "hit": false,
      "t": 360060,
      "d": 2340,
      "v": 100
    },
    {
      "midi": 80,
      "hit": false,
      "t": 360600,
      "d": 1200,
      "v": 100
    },
    {
      "midi": 77,
      "hit": false,
      "t": 361800,
      "d": 300,
      "v": 100
    },
    {
      "midi": 36,
      "hit": false,
      "t": 361947.5,
      "d": 172.5,
      "v": 73
    },
    {
      "midi": 73,
      "hit": false,
      "t": 362100,
      "d": 300,
      "v": 100
    },
    {
      "midi": 37,
      "hit": false,
      "t": 362100,
      "d": 187.5,
      "v": 85
    },
    {
      "midi": 38,
      "hit": false,
      "t": 362242.5,
      "d": 157.5,
      "v": 91
    },
    {
      "midi": 70,
      "hit": false,
      "t": 362400,
      "d": 450,
      "v": 101
    },
    {
      "midi": 73,
      "hit": false,
      "t": 362400,
      "d": 450,
      "v": 101
    },
    {
      "midi": 78,
      "hit": false,
      "t": 362400,
      "d": 740,
      "v": 100
    },
    {
      "midi": 39,
      "hit": false,
      "t": 362400,
      "d": 292.5,
      "v": 99
    },
    {
      "midi": 68,
      "hit": false,
      "t": 363600,
      "d": 522.5,
      "v": 106
    },
    {
      "midi": 73,
      "hit": false,
      "t": 363600,
      "d": 522.5,
      "v": 101
    },
    {
      "midi": 77,
      "hit": false,
      "t": 363600,
      "d": 760,
      "v": 100
    },
    {
      "midi": 41,
      "hit": false,
      "t": 363600,
      "d": 542.5,
      "v": 98
    },
    {
      "midi": 68,
      "hit": false,
      "t": 364800,
      "d": 600,
      "v": 100
    },
    {
      "midi": 75,
      "hit": false,
      "t": 364800,
      "d": 600,
      "v": 100
    },
    {
      "midi": 42,
      "hit": false,
      "t": 364800,
      "d": 870,
      "v": 101
    },
    {
      "midi": 73,
      "hit": false,
      "t": 365400,
      "d": 600,
      "v": 100
    },
    {
      "midi": 68,
      "hit": false,
      "t": 366000,
      "d": 2400,
      "v": 100
    },
    {
      "midi": 72,
      "hit": false,
      "t": 366000,
      "d": 2400,
      "v": 100
    },
    {
      "midi": 75,
      "hit": false,
      "t": 366000,
      "d": 2400,
      "v": 100
    },
    {
      "midi": 32,
      "hit": false,
      "t": 366000,
      "d": 2400,
      "v": 100
    },
    {
      "midi": 44,
      "hit": false,
      "t": 366000,
      "d": 2400,
      "v": 100
    },
    {
      "midi": 68,
      "hit": false,
      "t": 368400,
      "d": 1182.5,
      "v": 100
    },
    {
      "midi": 56,
      "hit": false,
      "t": 368400,
      "d": 1200,
      "v": 100
    },
    {
      "midi": 68,
      "hit": false,
      "t": 369600,
      "d": 1190,
      "v": 100
    },
    {
      "midi": 80,
      "hit": false,
      "t": 369600,
      "d": 1200,
      "v": 100
    },
    {
      "midi": 68,
      "hit": false,
      "t": 370800,
      "d": 1190,
      "v": 99
    },
    {
      "midi": 80,
      "hit": false,
      "t": 370800,
      "d": 1200,
      "v": 100
    },
    {
      "midi": 53,
      "hit": false,
      "t": 370800,
      "d": 2400,
      "v": 100
    },
    {
      "midi": 61,
      "hit": false,
      "t": 370800,
      "d": 2400,
      "v": 100
    },
    {
      "midi": 63,
      "hit": false,
      "t": 370800,
      "d": 2400,
      "v": 100
    },
    {
      "midi": 73,
      "hit": false,
      "t": 372000,
      "d": 1200,
      "v": 100
    },
    {
      "midi": 63,
      "hit": false,
      "t": 373200,
      "d": 1200,
      "v": 100
    },
    {
      "midi": 71,
      "hit": false,
      "t": 373200,
      "d": 1200,
      "v": 100
    },
    {
      "midi": 51,
      "hit": false,
      "t": 373200,
      "d": 2400,
      "v": 100
    },
    {
      "midi": 59,
      "hit": false,
      "t": 373200,
      "d": 2400,
      "v": 100
    },
    {
      "midi": 61,
      "hit": false,
      "t": 373200,
      "d": 2400,
      "v": 100
    },
    {
      "midi": 66,
      "hit": false,
      "t": 374400,
      "d": 1200,
      "v": 100
    },
    {
      "midi": 68,
      "hit": false,
      "t": 375600,
      "d": 2400,
      "v": 100
    },
    {
      "midi": 49,
      "hit": false,
      "t": 375600,
      "d": 4800,
      "v": 100
    },
    {
      "midi": 53,
      "hit": false,
      "t": 375600,
      "d": 4800,
      "v": 100
    },
    {
      "midi": 61,
      "hit": false,
      "t": 375600,
      "d": 4800,
      "v": 100
    },
    {
      "midi": 77,
      "hit": false,
      "t": 376200,
      "d": 600,
      "v": 100
    },
    {
      "midi": 75,
      "hit": false,
      "t": 376800,
      "d": 600,
      "v": 100
    },
    {
      "midi": 80,
      "hit": false,
      "t": 377400,
      "d": 575,
      "v": 100
    },
    {
      "midi": 75,
      "hit": false,
      "t": 377920,
      "d": 80,
      "v": 100
    },
    {
      "midi": 77,
      "hit": false,
      "t": 378000,
      "d": 600,
      "v": 100
    },
    {
      "midi": 75,
      "hit": false,
      "t": 378600,
      "d": 300,
      "v": 100
    },
    {
      "midi": 73,
      "hit": false,
      "t": 378900,
      "d": 300,
      "v": 100
    },
    {
      "midi": 72,
      "hit": false,
      "t": 379200,
      "d": 600,
      "v": 100
    },
    {
      "midi": 68,
      "hit": false,
      "t": 379800,
      "d": 600,
      "v": 100
    },
    {
      "midi": 70,
      "hit": false,
      "t": 380400,
      "d": 600,
      "v": 100
    },
    {
      "midi": 42,
      "hit": false,
      "t": 380400,
      "d": 2310,
      "v": 97
    },
    {
      "midi": 61,
      "hit": false,
      "t": 381000,
      "d": 600,
      "v": 100
    },
    {
      "midi": 49,
      "hit": false,
      "t": 381000,
      "d": 1737.5,
      "v": 99
    },
    {
      "midi": 66,
      "hit": false,
      "t": 381600,
      "d": 600,
      "v": 100
    },
    {
      "midi": 54,
      "hit": false,
      "t": 381600,
      "d": 650,
      "v": 100
    },
    {
      "midi": 56,
      "hit": false,
      "t": 382180,
      "d": 600,
      "v": 100
    },
    {
      "midi": 68,
      "hit": false,
      "t": 382200,
      "d": 600,
      "v": 100
    },
    {
      "midi": 56,
      "hit": false,
      "t": 382790,
      "d": 2400,
      "v": 100
    },
    {
      "midi": 73,
      "hit": false,
      "t": 382800,
      "d": 600,
      "v": 100
    },
    {
      "midi": 42,
      "hit": false,
      "t": 382800,
      "d": 2400,
      "v": 100
    },
    {
      "midi": 49,
      "hit": false,
      "t": 382800,
      "d": 2400,
      "v": 100
    },
    {
      "midi": 54,
      "hit": false,
      "t": 382800,
      "d": 2400,
      "v": 100
    },
    {
      "midi": 58,
      "hit": false,
      "t": 382800,
      "d": 2400,
      "v": 100
    },
    {
      "midi": 68,
      "hit": false,
      "t": 383400,
      "d": 600,
      "v": 100
    },
    {
      "midi": 73,
      "hit": false,
      "t": 384000,
      "d": 600,
      "v": 100
    },
    {
      "midi": 75,
      "hit": false,
      "t": 384600,
      "d": 600,
      "v": 100
    },
    {
      "midi": 70,
      "hit": false,
      "t": 385200,
      "d": 600,
      "v": 100
    },
    {
      "midi": 48,
      "hit": false,
      "t": 385200,
      "d": 2400,
      "v": 100
    },
    {
      "midi": 56,
      "hit": false,
      "t": 385230,
      "d": 2400,
      "v": 100
    },
    {
      "midi": 63,
      "hit": false,
      "t": 385260,
      "d": 2400,
      "v": 100
    },
    {
      "midi": 58,
      "hit": false,
      "t": 385800,
      "d": 600,
      "v": 100
    },
    {
      "midi": 63,
      "hit": false,
      "t": 386400,
      "d": 600,
      "v": 100
    },
    {
      "midi": 68,
      "hit": false,
      "t": 387000,
      "d": 600,
      "v": 100
    },
    {
      "midi": 58,
      "hit": false,
      "t": 387600,
      "d": 600,
      "v": 100
    },
    {
      "midi": 50,
      "hit": false,
      "t": 387600,
      "d": 2400,
      "v": 100
    },
    {
      "midi": 58,
      "hit": false,
      "t": 387630,
      "d": 2370,
      "v": 100
    },
    {
      "midi": 65,
      "hit": false,
      "t": 387660,
      "d": 2340,
      "v": 100
    },
    {
      "midi": 70,
      "hit": false,
      "t": 388200,
      "d": 590,
      "v": 99
    },
    {
      "midi": 70,
      "hit": false,
      "t": 388800,
      "d": 592.5,
      "v": 100
    },
    {
      "midi": 82,
      "hit": false,
      "t": 389400,
      "d": 600,
      "v": 100
    },
    {
      "midi": 70,
      "hit": false,
      "t": 390000,
      "d": 600,
      "v": 100
    },
    {
      "midi": 82,
      "hit": false,
      "t": 390000,
      "d": 600,
      "v": 100
    },
    {
      "midi": 51,
      "hit": false,
      "t": 390000,
      "d": 1200,
      "v": 100
    },
    {
      "midi": 58,
      "hit": false,
      "t": 390030,
      "d": 1200,
      "v": 100
    },
    {
      "midi": 66,
      "hit": false,
      "t": 390060,
      "d": 1200,
      "v": 100
    },
    {
      "midi": 78,
      "hit": false,
      "t": 390600,
      "d": 600,
      "v": 100
    },
    {
      "midi": 68,
      "hit": false,
      "t": 391200,
      "d": 600,
      "v": 100
    },
    {
      "midi": 80,
      "hit": false,
      "t": 391200,
      "d": 600,
      "v": 100
    },
    {
      "midi": 53,
      "hit": false,
      "t": 391200,
      "d": 1200,
      "v": 100
    },
    {
      "midi": 61,
      "hit": false,
      "t": 391200,
      "d": 1200,
      "v": 100
    },
    {
      "midi": 73,
      "hit": false,
      "t": 391800,
      "d": 600,
      "v": 100
    },
    {
      "midi": 85,
      "hit": false,
      "t": 391800,
      "d": 600,
      "v": 100
    },
    {
      "midi": 70,
      "hit": false,
      "t": 392400,
      "d": 600,
      "v": 100
    },
    {
      "midi": 82,
      "hit": false,
      "t": 392400,
      "d": 600,
      "v": 100
    },
    {
      "midi": 54,
      "hit": false,
      "t": 392400,
      "d": 2400,
      "v": 100
    },
    {
      "midi": 61,
      "hit": false,
      "t": 392430,
      "d": 2370,
      "v": 100
    },
    {
      "midi": 68,
      "hit": false,
      "t": 392460,
      "d": 2340,
      "v": 100
    },
    {
      "midi": 70,
      "hit": false,
      "t": 393000,
      "d": 600,
      "v": 100
    },
    {
      "midi": 82,
      "hit": false,
      "t": 393000,
      "d": 600,
      "v": 100
    },
    {
      "midi": 72,
      "hit": false,
      "t": 393600,
      "d": 600,
      "v": 100
    },
    {
      "midi": 84,
      "hit": false,
      "t": 393600,
      "d": 600,
      "v": 100
    },
    {
      "midi": 73,
      "hit": false,
      "t": 394200,
      "d": 600,
      "v": 100
    },
    {
      "midi": 85,
      "hit": false,
      "t": 394200,
      "d": 600,
      "v": 100
    },
    {
      "midi": 75,
      "hit": false,
      "t": 394800,
      "d": 600,
      "v": 100
    },
    {
      "midi": 87,
      "hit": false,
      "t": 394800,
      "d": 600,
      "v": 100
    },
    {
      "midi": 61,
      "hit": false,
      "t": 394800,
      "d": 1192.5,
      "v": 100
    },
    {
      "midi": 55,
      "hit": false,
      "t": 394800,
      "d": 1200,
      "v": 100
    },
    {
      "midi": 67,
      "hit": false,
      "t": 394800,
      "d": 1200,
      "v": 100
    },
    {
      "midi": 82,
      "hit": false,
      "t": 395400,
      "d": 600,
      "v": 100
    },
    {
      "midi": 75,
      "hit": false,
      "t": 396000,
      "d": 600,
      "v": 100
    },
    {
      "midi": 84,
      "hit": false,
      "t": 396000,
      "d": 600,
      "v": 100
    },
    {
      "midi": 41,
      "hit": false,
      "t": 396000,
      "d": 1200,
      "v": 100
    },
    {
      "midi": 48,
      "hit": false,
      "t": 396000,
      "d": 1200,
      "v": 100
    },
    {
      "midi": 56,
      "hit": false,
      "t": 396000,
      "d": 1200,
      "v": 100
    },
    {
      "midi": 80,
      "hit": false,
      "t": 396600,
      "d": 600,
      "v": 100
    },
    {
      "midi": 73,
      "hit": false,
      "t": 397200,
      "d": 600,
      "v": 100
    },
    {
      "midi": 85,
      "hit": false,
      "t": 397200,
      "d": 600,
      "v": 100
    },
    {
      "midi": 42,
      "hit": false,
      "t": 397200,
      "d": 1912.5,
      "v": 100
    },
    {
      "midi": 49,
      "hit": false,
      "t": 397200,
      "d": 2400,
      "v": 100
    },
    {
      "midi": 58,
      "hit": false,
      "t": 397200,
      "d": 2400,
      "v": 100
    },
    {
      "midi": 80,
      "hit": false,
      "t": 397800,
      "d": 1200,
      "v": 100
    },
    {
      "midi": 77,
      "hit": false,
      "t": 399000,
      "d": 300,
      "v": 100
    },
    {
      "midi": 36,
      "hit": false,
      "t": 399147.5,
      "d": 172.5,
      "v": 73
    },
    {
      "midi": 73,
      "hit": false,
      "t": 399300,
      "d": 300,
      "v": 100
    },
    {
      "midi": 37,
      "hit": false,
      "t": 399300,
      "d": 187.5,
      "v": 85
    },
    {
      "midi": 38,
      "hit": false,
      "t": 399442.5,
      "d": 157.5,
      "v": 91
    },
    {
      "midi": 70,
      "hit": false,
      "t": 399600,
      "d": 450,
      "v": 101
    },
    {
      "midi": 73,
      "hit": false,
      "t": 399600,
      "d": 450,
      "v": 101
    },
    {
      "midi": 78,
      "hit": false,
      "t": 399600,
      "d": 740,
      "v": 100
    },
    {
      "midi": 39,
      "hit": false,
      "t": 399600,
      "d": 292.5,
      "v": 99
    },
    {
      "midi": 68,
      "hit": false,
      "t": 400800,
      "d": 522.5,
      "v": 106
    },
    {
      "midi": 73,
      "hit": false,
      "t": 400800,
      "d": 522.5,
      "v": 101
    },
    {
      "midi": 77,
      "hit": false,
      "t": 400800,
      "d": 760,
      "v": 100
    },
    {
      "midi": 41,
      "hit": false,
      "t": 400800,
      "d": 542.5,
      "v": 98
    },
    {
      "midi": 68,
      "hit": false,
      "t": 402000,
      "d": 600,
      "v": 100
    },
    {
      "midi": 75,
      "hit": false,
      "t": 402000,
      "d": 600,
      "v": 100
    },
    {
      "midi": 42,
      "hit": false,
      "t": 402000,
      "d": 870,
      "v": 101
    },
    {
      "midi": 73,
      "hit": false,
      "t": 402600,
      "d": 600,
      "v": 100
    },
    {
      "midi": 68,
      "hit": false,
      "t": 403200,
      "d": 2400,
      "v": 100
    },
    {
      "midi": 72,
      "hit": false,
      "t": 403200,
      "d": 2400,
      "v": 100
    },
    {
      "midi": 75,
      "hit": false,
      "t": 403200,
      "d": 2400,
      "v": 100
    },
    {
      "midi": 32,
      "hit": false,
      "t": 403200,
      "d": 4800,
      "v": 100
    },
    {
      "midi": 44,
      "hit": false,
      "t": 403200,
      "d": 4800,
      "v": 100
    },
    {
      "midi": 58,
      "hit": false,
      "t": 405600,
      "d": 2400,
      "v": 100
    },
    {
      "midi": 65,
      "hit": false,
      "t": 408000,
      "d": 2400,
      "v": 100
    },
    {
      "midi": 34,
      "hit": false,
      "t": 408000,
      "d": 3597.5,
      "v": 100
    },
    {
      "midi": 46,
      "hit": false,
      "t": 408000,
      "d": 3597.5,
      "v": 100
    },
    {
      "midi": 53,
      "hit": false,
      "t": 409200,
      "d": 1200,
      "v": 100
    },
    {
      "midi": 58,
      "hit": false,
      "t": 409200,
      "d": 1200,
      "v": 100
    },
    {
      "midi": 62,
      "hit": false,
      "t": 409200,
      "d": 1200,
      "v": 100
    },
    {
      "midi": 53,
      "hit": false,
      "t": 410400,
      "d": 1190,
      "v": 102
    },
    {
      "midi": 58,
      "hit": false,
      "t": 410400,
      "d": 1190,
      "v": 100
    },
    {
      "midi": 62,
      "hit": false,
      "t": 410400,
      "d": 1190,
      "v": 100
    },
    {
      "midi": 62,
      "hit": false,
      "t": 411000,
      "d": 600,
      "v": 100
    },
    {
      "midi": 63,
      "hit": false,
      "t": 411600,
      "d": 600,
      "v": 100
    },
    {
      "midi": 53,
      "hit": false,
      "t": 411600,
      "d": 1170,
      "v": 100
    },
    {
      "midi": 58,
      "hit": false,
      "t": 411600,
      "d": 1170,
      "v": 100
    },
    {
      "midi": 62,
      "hit": false,
      "t": 411600,
      "d": 1170,
      "v": 100
    },
    {
      "midi": 65,
      "hit": false,
      "t": 412200,
      "d": 600,
      "v": 100
    },
    {
      "midi": 65,
      "hit": false,
      "t": 412800,
      "d": 1800,
      "v": 100
    },
    {
      "midi": 34,
      "hit": false,
      "t": 412800,
      "d": 3597.5,
      "v": 100
    },
    {
      "midi": 46,
      "hit": false,
      "t": 412800,
      "d": 3597.5,
      "v": 100
    },
    {
      "midi": 51,
      "hit": false,
      "t": 414000,
      "d": 1187.5,
      "v": 100
    },
    {
      "midi": 54,
      "hit": false,
      "t": 414000,
      "d": 1187.5,
      "v": 100
    },
    {
      "midi": 57,
      "hit": false,
      "t": 414000,
      "d": 1187.5,
      "v": 100
    },
    {
      "midi": 60,
      "hit": false,
      "t": 414000,
      "d": 1187.5,
      "v": 100
    },
    {
      "midi": 66,
      "hit": false,
      "t": 414600,
      "d": 600,
      "v": 100
    },
    {
      "midi": 63,
      "hit": false,
      "t": 415200,
      "d": 1800,
      "v": 100
    },
    {
      "midi": 51,
      "hit": false,
      "t": 415200,
      "d": 1187.5,
      "v": 101
    },
    {
      "midi": 54,
      "hit": false,
      "t": 415200,
      "d": 1187.5,
      "v": 100
    },
    {
      "midi": 57,
      "hit": false,
      "t": 415200,
      "d": 1187.5,
      "v": 101
    },
    {
      "midi": 60,
      "hit": false,
      "t": 415200,
      "d": 1187.5,
      "v": 98
    },
    {
      "midi": 51,
      "hit": false,
      "t": 416400,
      "d": 1187.5,
      "v": 100
    },
    {
      "midi": 54,
      "hit": false,
      "t": 416400,
      "d": 1187.5,
      "v": 100
    },
    {
      "midi": 57,
      "hit": false,
      "t": 416400,
      "d": 1187.5,
      "v": 100
    },
    {
      "midi": 60,
      "hit": false,
      "t": 416400,
      "d": 1187.5,
      "v": 101
    },
    {
      "midi": 62,
      "hit": false,
      "t": 417000,
      "d": 600,
      "v": 100
    },
    {
      "midi": 65,
      "hit": false,
      "t": 417600,
      "d": 2400,
      "v": 100
    },
    {
      "midi": 34,
      "hit": false,
      "t": 417600,
      "d": 3597.5,
      "v": 100
    },
    {
      "midi": 46,
      "hit": false,
      "t": 417600,
      "d": 3597.5,
      "v": 100
    },
    {
      "midi": 53,
      "hit": false,
      "t": 418800,
      "d": 1200,
      "v": 100
    },
    {
      "midi": 58,
      "hit": false,
      "t": 418800,
      "d": 1200,
      "v": 100
    },
    {
      "midi": 62,
      "hit": false,
      "t": 418800,
      "d": 1200,
      "v": 100
    },
    {
      "midi": 53,
      "hit": false,
      "t": 420000,
      "d": 1190,
      "v": 102
    },
    {
      "midi": 58,
      "hit": false,
      "t": 420000,
      "d": 1190,
      "v": 100
    },
    {
      "midi": 62,
      "hit": false,
      "t": 420000,
      "d": 1190,
      "v": 100
    },
    {
      "midi": 62,
      "hit": false,
      "t": 420600,
      "d": 600,
      "v": 100
    },
    {
      "midi": 63,
      "hit": false,
      "t": 421200,
      "d": 600,
      "v": 100
    },
    {
      "midi": 53,
      "hit": false,
      "t": 421200,
      "d": 1170,
      "v": 100
    },
    {
      "midi": 58,
      "hit": false,
      "t": 421200,
      "d": 1170,
      "v": 100
    },
    {
      "midi": 62,
      "hit": false,
      "t": 421200,
      "d": 1170,
      "v": 100
    },
    {
      "midi": 65,
      "hit": false,
      "t": 421800,
      "d": 600,
      "v": 100
    },
    {
      "midi": 67,
      "hit": false,
      "t": 422400,
      "d": 1800,
      "v": 100
    },
    {
      "midi": 34,
      "hit": false,
      "t": 422400,
      "d": 3597.5,
      "v": 100
    },
    {
      "midi": 46,
      "hit": false,
      "t": 422400,
      "d": 3597.5,
      "v": 100
    },
    {
      "midi": 55,
      "hit": false,
      "t": 423600,
      "d": 1200,
      "v": 100
    },
    {
      "midi": 58,
      "hit": false,
      "t": 423600,
      "d": 1200,
      "v": 100
    },
    {
      "midi": 63,
      "hit": false,
      "t": 423600,
      "d": 1200,
      "v": 100
    },
    {
      "midi": 69,
      "hit": false,
      "t": 424200,
      "d": 600,
      "v": 100
    },
    {
      "midi": 70,
      "hit": false,
      "t": 424800,
      "d": 1800,
      "v": 100
    },
    {
      "midi": 55,
      "hit": false,
      "t": 424800,
      "d": 1190,
      "v": 102
    },
    {
      "midi": 58,
      "hit": false,
      "t": 424800,
      "d": 1190,
      "v": 100
    },
    {
      "midi": 63,
      "hit": false,
      "t": 424800,
      "d": 1190,
      "v": 100
    },
    {
      "midi": 55,
      "hit": false,
      "t": 426000,
      "d": 1170,
      "v": 100
    },
    {
      "midi": 58,
      "hit": false,
      "t": 426000,
      "d": 1170,
      "v": 100
    },
    {
      "midi": 63,
      "hit": false,
      "t": 426000,
      "d": 1170,
      "v": 100
    },
    {
      "midi": 74,
      "hit": false,
      "t": 426600,
      "d": 600,
      "v": 100
    },
    {
      "midi": 72,
      "hit": false,
      "t": 427200,
      "d": 1800,
      "v": 100
    },
    {
      "midi": 45,
      "hit": false,
      "t": 427200,
      "d": 2395,
      "v": 101
    },
    {
      "midi": 53,
      "hit": false,
      "t": 427800,
      "d": 1785,
      "v": 101
    },
    {
      "midi": 60,
      "hit": false,
      "t": 428400,
      "d": 1210,
      "v": 100
    },
    {
      "midi": 77,
      "hit": false,
      "t": 429000,
      "d": 600,
      "v": 100
    },
    {
      "midi": 65,
      "hit": false,
      "t": 429000,
      "d": 600,
      "v": 100
    },
    {
      "midi": 75,
      "hit": false,
      "t": 429600,
      "d": 1800,
      "v": 100
    },
    {
      "midi": 43,
      "hit": false,
      "t": 429600,
      "d": 2395,
      "v": 99
    },
    {
      "midi": 51,
      "hit": false,
      "t": 430200,
      "d": 1797.5,
      "v": 103
    },
    {
      "midi": 58,
      "hit": false,
      "t": 430800,
      "d": 1187.5,
      "v": 101
    },
    {
      "midi": 70,
      "hit": false,
      "t": 431400,
      "d": 600,
      "v": 100
    },
    {
      "midi": 63,
      "hit": false,
      "t": 431400,
      "d": 600,
      "v": 100
    },
    {
      "midi": 72,
      "hit": false,
      "t": 432000,
      "d": 3600,
      "v": 100
    },
    {
      "midi": 44,
      "hit": false,
      "t": 432000,
      "d": 4497.5,
      "v": 100
    },
    {
      "midi": 51,
      "hit": false,
      "t": 432600,
      "d": 3897.5,
      "v": 99
    },
    {
      "midi": 56,
      "hit": false,
      "t": 433200,
      "d": 600,
      "v": 100
    },
    {
      "midi": 58,
      "hit": false,
      "t": 433800,
      "d": 600,
      "v": 100
    },
    {
      "midi": 60,
      "hit": false,
      "t": 434400,
      "d": 2092.5,
      "v": 101
    },
    {
      "midi": 56,
      "hit": false,
      "t": 435600,
      "d": 600,
      "v": 100
    },
    {
      "midi": 68,
      "hit": false,
      "t": 436200,
      "d": 600,
      "v": 100
    },
    {
      "midi": 68,
      "hit": false,
      "t": 436800,
      "d": 2400,
      "v": 100
    },
    {
      "midi": 37,
      "hit": false,
      "t": 436800,
      "d": 4800,
      "v": 100
    },
    {
      "midi": 56,
      "hit": false,
      "t": 438000,
      "d": 1200,
      "v": 100
    },
    {
      "midi": 60,
      "hit": false,
      "t": 438000,
      "d": 1200,
      "v": 100
    },
    {
      "midi": 63,
      "hit": false,
      "t": 438000,
      "d": 1200,
      "v": 100
    },
    {
      "midi": 56,
      "hit": false,
      "t": 439200,
      "d": 1182.5,
      "v": 100
    },
    {
      "midi": 61,
      "hit": false,
      "t": 439200,
      "d": 1182.5,
      "v": 100
    },
    {
      "midi": 65,
      "hit": false,
      "t": 439200,
      "d": 1182.5,
      "v": 100
    },
    {
      "midi": 65,
      "hit": false,
      "t": 439800,
      "d": 600,
      "v": 100
    },
    {
      "midi": 66,
      "hit": false,
      "t": 440400,
      "d": 600,
      "v": 100
    },
    {
      "midi": 56,
      "hit": false,
      "t": 440400,
      "d": 1182.5,
      "v": 100
    },
    {
      "midi": 61,
      "hit": false,
      "t": 440400,
      "d": 1182.5,
      "v": 100
    },
    {
      "midi": 65,
      "hit": false,
      "t": 440400,
      "d": 1182.5,
      "v": 100
    },
    {
      "midi": 68,
      "hit": false,
      "t": 441000,
      "d": 600,
      "v": 100
    },
    {
      "midi": 68,
      "hit": false,
      "t": 441600,
      "d": 1800,
      "v": 100
    },
    {
      "midi": 37,
      "hit": false,
      "t": 441600,
      "d": 4800,
      "v": 100
    },
    {
      "midi": 54,
      "hit": false,
      "t": 442800,
      "d": 1200,
      "v": 100
    },
    {
      "midi": 57,
      "hit": false,
      "t": 442800,
      "d": 1200,
      "v": 100
    },
    {
      "midi": 62,
      "hit": false,
      "t": 442800,
      "d": 1200,
      "v": 100
    },
    {
      "midi": 69,
      "hit": false,
      "t": 443400,
      "d": 600,
      "v": 100
    },
    {
      "midi": 66,
      "hit": false,
      "t": 444000,
      "d": 1800,
      "v": 100
    },
    {
      "midi": 63,
      "hit": false,
      "t": 444000,
      "d": 1192.5,
      "v": 99
    },
    {
      "midi": 54,
      "hit": false,
      "t": 444000,
      "d": 1200,
      "v": 100
    },
    {
      "midi": 58,
      "hit": false,
      "t": 444000,
      "d": 1200,
      "v": 100
    },
    {
      "midi": 63,
      "hit": false,
      "t": 445200,
      "d": 1190,
      "v": 100
    },
    {
      "midi": 56,
      "hit": false,
      "t": 445200,
      "d": 1200,
      "v": 100
    },
    {
      "midi": 60,
      "hit": false,
      "t": 445200,
      "d": 1200,
      "v": 100
    },
    {
      "midi": 65,
      "hit": false,
      "t": 445800,
      "d": 600,
      "v": 100
    },
    {
      "midi": 68,
      "hit": false,
      "t": 446400,
      "d": 2400,
      "v": 100
    },
    {
      "midi": 37,
      "hit": false,
      "t": 446400,
      "d": 4800,
      "v": 100
    },
    {
      "midi": 56,
      "hit": false,
      "t": 447600,
      "d": 1200,
      "v": 100
    },
    {
      "midi": 60,
      "hit": false,
      "t": 447600,
      "d": 1200,
      "v": 100
    },
    {
      "midi": 63,
      "hit": false,
      "t": 447600,
      "d": 1200,
      "v": 100
    },
    {
      "midi": 56,
      "hit": false,
      "t": 448800,
      "d": 1182.5,
      "v": 100
    },
    {
      "midi": 61,
      "hit": false,
      "t": 448800,
      "d": 1182.5,
      "v": 100
    },
    {
      "midi": 65,
      "hit": false,
      "t": 448800,
      "d": 1182.5,
      "v": 100
    },
    {
      "midi": 65,
      "hit": false,
      "t": 449400,
      "d": 600,
      "v": 100
    },
    {
      "midi": 66,
      "hit": false,
      "t": 450000,
      "d": 600,
      "v": 100
    },
    {
      "midi": 56,
      "hit": false,
      "t": 450000,
      "d": 1182.5,
      "v": 100
    },
    {
      "midi": 61,
      "hit": false,
      "t": 450000,
      "d": 1182.5,
      "v": 100
    },
    {
      "midi": 65,
      "hit": false,
      "t": 450000,
      "d": 1182.5,
      "v": 100
    },
    {
      "midi": 68,
      "hit": false,
      "t": 450600,
      "d": 600,
      "v": 100
    },
    {
      "midi": 70,
      "hit": false,
      "t": 451200,
      "d": 1800,
      "v": 100
    },
    {
      "midi": 37,
      "hit": false,
      "t": 451200,
      "d": 4800,
      "v": 100
    },
    {
      "midi": 58,
      "hit": false,
      "t": 452400,
      "d": 1200,
      "v": 100
    },
    {
      "midi": 61,
      "hit": false,
      "t": 452400,
      "d": 1200,
      "v": 100
    },
    {
      "midi": 66,
      "hit": false,
      "t": 452400,
      "d": 1200,
      "v": 100
    },
    {
      "midi": 72,
      "hit": false,
      "t": 453000,
      "d": 600,
      "v": 100
    },
    {
      "midi": 73,
      "hit": false,
      "t": 453600,
      "d": 1800,
      "v": 100
    },
    {
      "midi": 58,
      "hit": false,
      "t": 453600,
      "d": 1182.5,
      "v": 100
    },
    {
      "midi": 61,
      "hit": false,
      "t": 453600,
      "d": 1182.5,
      "v": 100
    },
    {
      "midi": 66,
      "hit": false,
      "t": 453600,
      "d": 1182.5,
      "v": 100
    },
    {
      "midi": 58,
      "hit": false,
      "t": 454800,
      "d": 1182.5,
      "v": 100
    },
    {
      "midi": 61,
      "hit": false,
      "t": 454800,
      "d": 1182.5,
      "v": 100
    },
    {
      "midi": 66,
      "hit": false,
      "t": 454800,
      "d": 1182.5,
      "v": 100
    },
    {
      "midi": 75,
      "hit": false,
      "t": 455400,
      "d": 600,
      "v": 100
    },
    {
      "midi": 77,
      "hit": false,
      "t": 456000,
      "d": 1800,
      "v": 100
    },
    {
      "midi": 36,
      "hit": false,
      "t": 456000,
      "d": 2400,
      "v": 100
    },
    {
      "midi": 57,
      "hit": false,
      "t": 457200,
      "d": 1200,
      "v": 100
    },
    {
      "midi": 60,
      "hit": false,
      "t": 457200,
      "d": 1200,
      "v": 100
    },
    {
      "midi": 65,
      "hit": false,
      "t": 457200,
      "d": 1200,
      "v": 100
    },
    {
      "midi": 72,
      "hit": false,
      "t": 457800,
      "d": 600,
      "v": 100
    },
    {
      "midi": 73,
      "hit": false,
      "t": 458400,
      "d": 2400,
      "v": 100
    },
    {
      "midi": 34,
      "hit": false,
      "t": 458400,
      "d": 2400,
      "v": 100
    },
    {
      "midi": 61,
      "hit": false,
      "t": 459600,
      "d": 6000,
      "v": 100
    },
    {
      "midi": 66,
      "hit": false,
      "t": 460800,
      "d": 1207.5,
      "v": 88
    },
    {
      "midi": 42,
      "hit": false,
      "t": 460800,
      "d": 4800,
      "v": 100
    },
    {
      "midi": 54,
      "hit": false,
      "t": 460800,
      "d": 4800,
      "v": 100
    },
    {
      "midi": 57,
      "hit": false,
      "t": 460800,
      "d": 4800,
      "v": 100
    },
    {
      "midi": 63,
      "hit": false,
      "t": 460800,
      "d": 4800,
      "v": 100
    },
    {
      "midi": 61,
      "hit": false,
      "t": 462600,
      "d": 600,
      "v": 100
    },
    {
      "midi": 69,
      "hit": false,
      "t": 463200,
      "d": 600,
      "v": 100
    },
    {
      "midi": 73,
      "hit": false,
      "t": 463800,
      "d": 600,
      "v": 100
    },
    {
      "midi": 71,
      "hit": false,
      "t": 464400,
      "d": 600,
      "v": 100
    },
    {
      "midi": 69,
      "hit": false,
      "t": 465000,
      "d": 600,
      "v": 100
    },
    {
      "midi": 65,
      "hit": false,
      "t": 465600,
      "d": 550,
      "v": 100
    },
    {
      "midi": 68,
      "hit": false,
      "t": 465600,
      "d": 600,
      "v": 100
    },
    {
      "midi": 61,
      "hit": false,
      "t": 465600,
      "d": 892.5,
      "v": 100
    },
    {
      "midi": 44,
      "hit": false,
      "t": 465600,
      "d": 1150,
      "v": 100
    },
    {
      "midi": 53,
      "hit": false,
      "t": 465900,
      "d": 300,
      "v": 100
    },
    {
      "midi": 65,
      "hit": false,
      "t": 466200,
      "d": 300,
      "v": 100
    },
    {
      "midi": 56,
      "hit": false,
      "t": 466200,
      "d": 300,
      "v": 100
    },
    {
      "midi": 61,
      "hit": false,
      "t": 466500,
      "d": 300,
      "v": 100
    },
    {
      "midi": 53,
      "hit": false,
      "t": 466500,
      "d": 300,
      "v": 100
    },
    {
      "midi": 62,
      "hit": false,
      "t": 466800,
      "d": 882.5,
      "v": 101
    },
    {
      "midi": 66,
      "hit": false,
      "t": 466800,
      "d": 900,
      "v": 100
    },
    {
      "midi": 69,
      "hit": false,
      "t": 466800,
      "d": 900,
      "v": 100
    },
    {
      "midi": 44,
      "hit": false,
      "t": 466800,
      "d": 1150,
      "v": 100
    },
    {
      "midi": 54,
      "hit": false,
      "t": 467100,
      "d": 300,
      "v": 100
    },
    {
      "midi": 57,
      "hit": false,
      "t": 467400,
      "d": 300,
      "v": 100
    },
    {
      "midi": 62,
      "hit": false,
      "t": 467700,
      "d": 297.5,
      "v": 100
    },
    {
      "midi": 54,
      "hit": false,
      "t": 467700,
      "d": 300,
      "v": 100
    },
    {
      "midi": 63,
      "hit": false,
      "t": 468000,
      "d": 882.5,
      "v": 99
    },
    {
      "midi": 67,
      "hit": false,
      "t": 468000,
      "d": 900,
      "v": 100
    },
    {
      "midi": 70,
      "hit": false,
      "t": 468000,
      "d": 900,
      "v": 100
    },
    {
      "midi": 44,
      "hit": false,
      "t": 468000,
      "d": 1150,
      "v": 100
    },
    {
      "midi": 55,
      "hit": false,
      "t": 468300,
      "d": 300,
      "v": 100
    },
    {
      "midi": 58,
      "hit": false,
      "t": 468600,
      "d": 300,
      "v": 100
    },
    {
      "midi": 63,
      "hit": false,
      "t": 468900,
      "d": 297.5,
      "v": 100
    },
    {
      "midi": 55,
      "hit": false,
      "t": 468900,
      "d": 300,
      "v": 100
    },
    {
      "midi": 64,
      "hit": false,
      "t": 469200,
      "d": 875,
      "v": 100
    },
    {
      "midi": 68,
      "hit": false,
      "t": 469200,
      "d": 900,
      "v": 100
    },
    {
      "midi": 71,
      "hit": false,
      "t": 469200,
      "d": 900,
      "v": 100
    },
    {
      "midi": 44,
      "hit": false,
      "t": 469200,
      "d": 1150,
      "v": 100
    },
    {
      "midi": 56,
      "hit": false,
      "t": 469500,
      "d": 300,
      "v": 100
    },
    {
      "midi": 59,
      "hit": false,
      "t": 469800,
      "d": 300,
      "v": 100
    },
    {
      "midi": 64,
      "hit": false,
      "t": 470100,
      "d": 300,
      "v": 100
    },
    {
      "midi": 56,
      "hit": false,
      "t": 470100,
      "d": 300,
      "v": 100
    },
    {
      "midi": 65,
      "hit": false,
      "t": 470400,
      "d": 890,
      "v": 100
    },
    {
      "midi": 69,
      "hit": false,
      "t": 470400,
      "d": 900,
      "v": 100
    },
    {
      "midi": 72,
      "hit": false,
      "t": 470400,
      "d": 900,
      "v": 100
    },
    {
      "midi": 44,
      "hit": false,
      "t": 470400,
      "d": 1150,
      "v": 100
    },
    {
      "midi": 57,
      "hit": false,
      "t": 470700,
      "d": 300,
      "v": 100
    },
    {
      "midi": 60,
      "hit": false,
      "t": 471000,
      "d": 300,
      "v": 100
    },
    {
      "midi": 65,
      "hit": false,
      "t": 471300,
      "d": 300,
      "v": 100
    },
    {
      "midi": 57,
      "hit": false,
      "t": 471300,
      "d": 300,
      "v": 100
    },
    {
      "midi": 66,
      "hit": false,
      "t": 471600,
      "d": 890,
      "v": 100
    },
    {
      "midi": 70,
      "hit": false,
      "t": 471600,
      "d": 900,
      "v": 100
    },
    {
      "midi": 73,
      "hit": false,
      "t": 471600,
      "d": 900,
      "v": 100
    },
    {
      "midi": 44,
      "hit": false,
      "t": 471600,
      "d": 1150,
      "v": 100
    },
    {
      "midi": 58,
      "hit": false,
      "t": 471900,
      "d": 300,
      "v": 100
    },
    {
      "midi": 61,
      "hit": false,
      "t": 472200,
      "d": 300,
      "v": 100
    },
    {
      "midi": 66,
      "hit": false,
      "t": 472500,
      "d": 300,
      "v": 100
    },
    {
      "midi": 58,
      "hit": false,
      "t": 472500,
      "d": 300,
      "v": 100
    },
    {
      "midi": 67,
      "hit": false,
      "t": 472800,
      "d": 890,
      "v": 100
    },
    {
      "midi": 71,
      "hit": false,
      "t": 472800,
      "d": 900,
      "v": 100
    },
    {
      "midi": 74,
      "hit": false,
      "t": 472800,
      "d": 900,
      "v": 100
    },
    {
      "midi": 44,
      "hit": false,
      "t": 472800,
      "d": 1150,
      "v": 100
    },
    {
      "midi": 59,
      "hit": false,
      "t": 473100,
      "d": 300,
      "v": 100
    },
    {
      "midi": 62,
      "hit": false,
      "t": 473400,
      "d": 300,
      "v": 100
    },
    {
      "midi": 67,
      "hit": false,
      "t": 473700,
      "d": 300,
      "v": 100
    },
    {
      "midi": 59,
      "hit": false,
      "t": 473700,
      "d": 300,
      "v": 100
    },
    {
      "midi": 68,
      "hit": false,
      "t": 474000,
      "d": 900,
      "v": 100
    },
    {
      "midi": 72,
      "hit": false,
      "t": 474000,
      "d": 900,
      "v": 100
    },
    {
      "midi": 75,
      "hit": false,
      "t": 474000,
      "d": 900,
      "v": 100
    },
    {
      "midi": 44,
      "hit": false,
      "t": 474000,
      "d": 1197.5,
      "v": 100
    },
    {
      "midi": 60,
      "hit": false,
      "t": 474300,
      "d": 300,
      "v": 100
    },
    {
      "midi": 63,
      "hit": false,
      "t": 474600,
      "d": 300,
      "v": 100
    },
    {
      "midi": 68,
      "hit": false,
      "t": 474900,
      "d": 300,
      "v": 100
    },
    {
      "midi": 60,
      "hit": false,
      "t": 474900,
      "d": 300,
      "v": 100
    },
    {
      "midi": 68,
      "hit": false,
      "t": 475200,
      "d": 1200,
      "v": 100
    },
    {
      "midi": 80,
      "hit": false,
      "t": 475200,
      "d": 1200,
      "v": 100
    },
    {
      "midi": 80,
      "hit": false,
      "t": 476400,
      "d": 1777.5,
      "v": 102
    },
    {
      "midi": 68,
      "hit": false,
      "t": 476400,
      "d": 2400,
      "v": 100
    },
    {
      "midi": 50,
      "hit": false,
      "t": 476400,
      "d": 7157.5,
      "v": 97
    },
    {
      "midi": 59,
      "hit": false,
      "t": 477000,
      "d": 600,
      "v": 100
    },
    {
      "midi": 61,
      "hit": false,
      "t": 477600,
      "d": 600,
      "v": 100
    },
    {
      "midi": 76,
      "hit": false,
      "t": 478200,
      "d": 200,
      "v": 100
    },
    {
      "midi": 62,
      "hit": false,
      "t": 478200,
      "d": 600,
      "v": 100
    },
    {
      "midi": 78,
      "hit": false,
      "t": 478400,
      "d": 200,
      "v": 100
    },
    {
      "midi": 80,
      "hit": false,
      "t": 478600,
      "d": 200,
      "v": 100
    },
    {
      "midi": 83,
      "hit": false,
      "t": 478800,
      "d": 900,
      "v": 100
    },
    {
      "midi": 64,
      "hit": false,
      "t": 478800,
      "d": 600,
      "v": 100
    },
    {
      "midi": 66,
      "hit": false,
      "t": 479400,
      "d": 600,
      "v": 100
    },
    {
      "midi": 80,
      "hit": false,
      "t": 479700,
      "d": 300,
      "v": 100
    },
    {
      "midi": 81,
      "hit": false,
      "t": 480000,
      "d": 900,
      "v": 100
    },
    {
      "midi": 62,
      "hit": false,
      "t": 480000,
      "d": 600,
      "v": 100
    },
    {
      "midi": 64,
      "hit": false,
      "t": 480600,
      "d": 600,
      "v": 100
    },
    {
      "midi": 78,
      "hit": false,
      "t": 480900,
      "d": 300,
      "v": 100
    },
    {
      "midi": 80,
      "hit": false,
      "t": 481200,
      "d": 900,
      "v": 100
    },
    {
      "midi": 61,
      "hit": false,
      "t": 481200,
      "d": 600,
      "v": 100
    },
    {
      "midi": 62,
      "hit": false,
      "t": 481800,
      "d": 600,
      "v": 100
    },
    {
      "midi": 76,
      "hit": false,
      "t": 482100,
      "d": 300,
      "v": 100
    },
    {
      "midi": 78,
      "hit": false,
      "t": 482400,
      "d": 790,
      "v": 100
    },
    {
      "midi": 59,
      "hit": false,
      "t": 482400,
      "d": 600,
      "v": 100
    },
    {
      "midi": 61,
      "hit": false,
      "t": 483000,
      "d": 600,
      "v": 100
    },
    {
      "midi": 80,
      "hit": false,
      "t": 483207.5,
      "d": 300,
      "v": 100
    },
    {
      "midi": 72,
      "hit": false,
      "t": 483600,
      "d": 2400,
      "v": 100
    },
    {
      "midi": 80,
      "hit": false,
      "t": 483600,
      "d": 2400,
      "v": 100
    },
    {
      "midi": 41,
      "hit": false,
      "t": 483600,
      "d": 8360,
      "v": 100
    },
    {
      "midi": 48,
      "hit": false,
      "t": 484200,
      "d": 600,
      "v": 100
    },
    {
      "midi": 53,
      "hit": false,
      "t": 484800,
      "d": 600,
      "v": 100
    },
    {
      "midi": 55,
      "hit": false,
      "t": 485400,
      "d": 600,
      "v": 100
    },
    {
      "midi": 77,
      "hit": false,
      "t": 486000,
      "d": 200,
      "v": 100
    },
    {
      "midi": 56,
      "hit": false,
      "t": 486000,
      "d": 600,
      "v": 100
    },
    {
      "midi": 79,
      "hit": false,
      "t": 486200,
      "d": 200,
      "v": 100
    },
    {
      "midi": 80,
      "hit": false,
      "t": 486400,
      "d": 200,
      "v": 100
    },
    {
      "midi": 84,
      "hit": false,
      "t": 486600,
      "d": 900,
      "v": 100
    },
    {
      "midi": 65,
      "hit": false,
      "t": 486600,
      "d": 600,
      "v": 100
    },
    {
      "midi": 58,
      "hit": false,
      "t": 487200,
      "d": 600,
      "v": 100
    },
    {
      "midi": 80,
      "hit": false,
      "t": 487500,
      "d": 300,
      "v": 100
    },
    {
      "midi": 82,
      "hit": false,
      "t": 487800,
      "d": 900,
      "v": 100
    },
    {
      "midi": 55,
      "hit": false,
      "t": 487800,
      "d": 600,
      "v": 100
    },
    {
      "midi": 56,
      "hit": false,
      "t": 488400,
      "d": 600,
      "v": 100
    },
    {
      "midi": 79,
      "hit": false,
      "t": 488700,
      "d": 300,
      "v": 100
    },
    {
      "midi": 80,
      "hit": false,
      "t": 489000,
      "d": 900,
      "v": 100
    },
    {
      "midi": 53,
      "hit": false,
      "t": 489000,
      "d": 600,
      "v": 100
    },
    {
      "midi": 55,
      "hit": false,
      "t": 489600,
      "d": 600,
      "v": 100
    },
    {
      "midi": 77,
      "hit": false,
      "t": 489900,
      "d": 300,
      "v": 100
    },
    {
      "midi": 65,
      "hit": false,
      "t": 490200,
      "d": 1180,
      "v": 100
    },
    {
      "midi": 77,
      "hit": false,
      "t": 490200,
      "d": 1182.5,
      "v": 99
    },
    {
      "midi": 51,
      "hit": false,
      "t": 490200,
      "d": 1200,
      "v": 99
    },
    {
      "midi": 77,
      "hit": false,
      "t": 491400,
      "d": 600,
      "v": 100
    },
    {
      "midi": 53,
      "hit": false,
      "t": 491400,
      "d": 600,
      "v": 100
    },
    {
      "midi": 89,
      "hit": false,
      "t": 491402.5,
      "d": 597.5,
      "v": 101
    },
    {
      "midi": 77,
      "hit": false,
      "t": 492000,
      "d": 1200,
      "v": 100
    },
    {
      "midi": 89,
      "hit": false,
      "t": 492000,
      "d": 1200,
      "v": 100
    },
    {
      "midi": 37,
      "hit": false,
      "t": 492000,
      "d": 9600,
      "v": 100
    },
    {
      "midi": 49,
      "hit": false,
      "t": 492000,
      "d": 9600,
      "v": 100
    },
    {
      "midi": 63,
      "hit": false,
      "t": 493200,
      "d": 300,
      "v": 100
    },
    {
      "midi": 65,
      "hit": false,
      "t": 493500,
      "d": 300,
      "v": 100
    },
    {
      "midi": 68,
      "hit": false,
      "t": 493800,
      "d": 300,
      "v": 100
    },
    {
      "midi": 77,
      "hit": false,
      "t": 494100,
      "d": 300,
      "v": 100
    },
    {
      "midi": 75,
      "hit": false,
      "t": 494400,
      "d": 300,
      "v": 100
    },
    {
      "midi": 77,
      "hit": false,
      "t": 494700,
      "d": 300,
      "v": 100
    },
    {
      "midi": 80,
      "hit": false,
      "t": 495000,
      "d": 300,
      "v": 100
    },
    {
      "midi": 89,
      "hit": false,
      "t": 495300,
      "d": 300,
      "v": 100
    },
    {
      "midi": 87,
      "hit": false,
      "t": 495600,
      "d": 300,
      "v": 100
    },
    {
      "midi": 89,
      "hit": false,
      "t": 495900,
      "d": 300,
      "v": 100
    },
    {
      "midi": 92,
      "hit": false,
      "t": 496200,
      "d": 300,
      "v": 100
    },
    {
      "midi": 101,
      "hit": false,
      "t": 496500,
      "d": 300,
      "v": 100
    },
    {
      "midi": 99,
      "hit": false,
      "t": 496800,
      "d": 2400,
      "v": 100
    },
    {
      "midi": 77,
      "hit": false,
      "t": 499200,
      "d": 1200,
      "v": 100
    },
    {
      "midi": 89,
      "hit": false,
      "t": 499200,
      "d": 1200,
      "v": 100
    },
    {
      "midi": 79,
      "hit": false,
      "t": 500400,
      "d": 600,
      "v": 100
    },
    {
      "midi": 91,
      "hit": false,
      "t": 500400,
      "d": 600,
      "v": 100
    },
    {
      "midi": 80,
      "hit": false,
      "t": 501000,
      "d": 600,
      "v": 100
    },
    {
      "midi": 92,
      "hit": false,
      "t": 501000,
      "d": 600,
      "v": 100
    },
    {
      "midi": 75,
      "hit": false,
      "t": 501600,
      "d": 1200,
      "v": 100
    },
    {
      "midi": 87,
      "hit": false,
      "t": 501600,
      "d": 1200,
      "v": 100
    },
    {
      "midi": 36,
      "hit": false,
      "t": 501600,
      "d": 9600,
      "v": 100
    },
    {
      "midi": 48,
      "hit": false,
      "t": 501600,
      "d": 9600,
      "v": 100
    },
    {
      "midi": 67,
      "hit": false,
      "t": 502800,
      "d": 300,
      "v": 100
    },
    {
      "midi": 68,
      "hit": false,
      "t": 503100,
      "d": 300,
      "v": 100
    },
    {
      "midi": 75,
      "hit": false,
      "t": 503400,
      "d": 300,
      "v": 100
    },
    {
      "midi": 80,
      "hit": false,
      "t": 503700,
      "d": 300,
      "v": 100
    },
    {
      "midi": 79,
      "hit": false,
      "t": 504000,
      "d": 300,
      "v": 100
    },
    {
      "midi": 80,
      "hit": false,
      "t": 504300,
      "d": 300,
      "v": 100
    },
    {
      "midi": 87,
      "hit": false,
      "t": 504600,
      "d": 300,
      "v": 100
    },
    {
      "midi": 92,
      "hit": false,
      "t": 504900,
      "d": 300,
      "v": 100
    },
    {
      "midi": 91,
      "hit": false,
      "t": 505200,
      "d": 300,
      "v": 100
    },
    {
      "midi": 92,
      "hit": false,
      "t": 505500,
      "d": 300,
      "v": 100
    },
    {
      "midi": 99,
      "hit": false,
      "t": 505800,
      "d": 300,
      "v": 100
    },
    {
      "midi": 104,
      "hit": false,
      "t": 506100,
      "d": 300,
      "v": 100
    },
    {
      "midi": 99,
      "hit": false,
      "t": 506400,
      "d": 2400,
      "v": 100
    },
    {
      "midi": 75,
      "hit": false,
      "t": 510000,
      "d": 400,
      "v": 100
    },
    {
      "midi": 77,
      "hit": false,
      "t": 510400,
      "d": 400,
      "v": 100
    },
    {
      "midi": 78,
      "hit": false,
      "t": 510800,
      "d": 400,
      "v": 100
    },
    {
      "midi": 82,
      "hit": false,
      "t": 511200,
      "d": 900,
      "v": 100
    },
    {
      "midi": 70,
      "hit": false,
      "t": 511200,
      "d": 1187.5,
      "v": 100
    },
    {
      "midi": 65,
      "hit": false,
      "t": 511200,
      "d": 1200,
      "v": 100
    },
    {
      "midi": 68,
      "hit": false,
      "t": 511200,
      "d": 1200,
      "v": 100
    },
    {
      "midi": 78,
      "hit": false,
      "t": 512100,
      "d": 300,
      "v": 100
    },
    {
      "midi": 80,
      "hit": false,
      "t": 512400,
      "d": 900,
      "v": 100
    },
    {
      "midi": 70,
      "hit": false,
      "t": 512400,
      "d": 1182.5,
      "v": 106
    },
    {
      "midi": 66,
      "hit": false,
      "t": 512400,
      "d": 1192.5,
      "v": 100
    },
    {
      "midi": 63,
      "hit": false,
      "t": 512400,
      "d": 1200,
      "v": 100
    },
    {
      "midi": 77,
      "hit": false,
      "t": 513300,
      "d": 300,
      "v": 100
    },
    {
      "midi": 78,
      "hit": false,
      "t": 513600,
      "d": 900,
      "v": 100
    },
    {
      "midi": 66,
      "hit": false,
      "t": 513600,
      "d": 1177.5,
      "v": 99
    },
    {
      "midi": 70,
      "hit": false,
      "t": 513600,
      "d": 1177.5,
      "v": 99
    },
    {
      "midi": 61,
      "hit": false,
      "t": 513600,
      "d": 1200,
      "v": 100
    },
    {
      "midi": 75,
      "hit": false,
      "t": 514500,
      "d": 300,
      "v": 100
    },
    {
      "midi": 77,
      "hit": false,
      "t": 514800,
      "d": 900,
      "v": 100
    },
    {
      "midi": 66,
      "hit": false,
      "t": 514800,
      "d": 1190,
      "v": 101
    },
    {
      "midi": 70,
      "hit": false,
      "t": 514800,
      "d": 1190,
      "v": 100
    },
    {
      "midi": 59,
      "hit": false,
      "t": 514800,
      "d": 1200,
      "v": 100
    },
    {
      "midi": 73,
      "hit": false,
      "t": 515700,
      "d": 300,
      "v": 100
    },
    {
      "midi": 80,
      "hit": false,
      "t": 516000,
      "d": 900,
      "v": 100
    },
    {
      "midi": 68,
      "hit": false,
      "t": 516000,
      "d": 1187.5,
      "v": 100
    },
    {
      "midi": 66,
      "hit": false,
      "t": 516000,
      "d": 1190,
      "v": 100
    },
    {
      "midi": 76,
      "hit": false,
      "t": 516900,
      "d": 300,
      "v": 100
    },
    {
      "midi": 78,
      "hit": false,
      "t": 517200,
      "d": 900,
      "v": 100
    },
    {
      "midi": 68,
      "hit": false,
      "t": 517200,
      "d": 1187.5,
      "v": 100
    },
    {
      "midi": 66,
      "hit": false,
      "t": 517200,
      "d": 1190,
      "v": 100
    },
    {
      "midi": 64,
      "hit": false,
      "t": 517200,
      "d": 1200,
      "v": 100
    },
    {
      "midi": 75,
      "hit": false,
      "t": 518100,
      "d": 300,
      "v": 100
    },
    {
      "midi": 76,
      "hit": false,
      "t": 518400,
      "d": 900,
      "v": 100
    },
    {
      "midi": 68,
      "hit": false,
      "t": 518400,
      "d": 1180,
      "v": 102
    },
    {
      "midi": 66,
      "hit": false,
      "t": 518400,
      "d": 1190,
      "v": 98
    },
    {
      "midi": 63,
      "hit": false,
      "t": 518400,
      "d": 1200,
      "v": 100
    },
    {
      "midi": 73,
      "hit": false,
      "t": 519300,
      "d": 300,
      "v": 100
    },
    {
      "midi": 75,
      "hit": false,
      "t": 519600,
      "d": 900,
      "v": 100
    },
    {
      "midi": 68,
      "hit": false,
      "t": 519600,
      "d": 1190,
      "v": 100
    },
    {
      "midi": 61,
      "hit": false,
      "t": 519600,
      "d": 1200,
      "v": 100
    },
    {
      "midi": 66,
      "hit": false,
      "t": 519600,
      "d": 1200,
      "v": 100
    },
    {
      "midi": 73,
      "hit": false,
      "t": 520500,
      "d": 300,
      "v": 100
    },
    {
      "midi": 75,
      "hit": false,
      "t": 520800,
      "d": 600,
      "v": 100
    },
    {
      "midi": 65,
      "hit": false,
      "t": 520800,
      "d": 2400,
      "v": 100
    },
    {
      "midi": 56,
      "hit": false,
      "t": 520800,
      "d": 4800,
      "v": 100
    },
    {
      "midi": 73,
      "hit": false,
      "t": 521400,
      "d": 600,
      "v": 100
    },
    {
      "midi": 68,
      "hit": false,
      "t": 522000,
      "d": 600,
      "v": 100
    },
    {
      "midi": 73,
      "hit": false,
      "t": 522600,
      "d": 600,
      "v": 100
    },
    {
      "midi": 75,
      "hit": false,
      "t": 523200,
      "d": 600,
      "v": 100
    },
    {
      "midi": 64,
      "hit": false,
      "t": 523200,
      "d": 2400,
      "v": 100
    },
    {
      "midi": 73,
      "hit": false,
      "t": 523800,
      "d": 600,
      "v": 100
    },
    {
      "midi": 68,
      "hit": false,
      "t": 524400,
      "d": 600,
      "v": 100
    },
    {
      "midi": 73,
      "hit": false,
      "t": 525000,
      "d": 600,
      "v": 100
    },
    {
      "midi": 75,
      "hit": false,
      "t": 525600,
      "d": 600,
      "v": 100
    },
    {
      "midi": 54,
      "hit": false,
      "t": 525600,
      "d": 2400,
      "v": 100
    },
    {
      "midi": 63,
      "hit": false,
      "t": 525600,
      "d": 4800,
      "v": 100
    },
    {
      "midi": 73,
      "hit": false,
      "t": 526200,
      "d": 600,
      "v": 100
    },
    {
      "midi": 68,
      "hit": false,
      "t": 526800,
      "d": 600,
      "v": 100
    },
    {
      "midi": 73,
      "hit": false,
      "t": 527400,
      "d": 600,
      "v": 100
    },
    {
      "midi": 75,
      "hit": false,
      "t": 528000,
      "d": 600,
      "v": 100
    },
    {
      "midi": 56,
      "hit": false,
      "t": 528000,
      "d": 2400,
      "v": 100
    },
    {
      "midi": 73,
      "hit": false,
      "t": 528600,
      "d": 600,
      "v": 100
    },
    {
      "midi": 68,
      "hit": false,
      "t": 529200,
      "d": 600,
      "v": 100
    },
    {
      "midi": 80,
      "hit": false,
      "t": 529800,
      "d": 600,
      "v": 100
    },
    {
      "midi": 80,
      "hit": false,
      "t": 530400,
      "d": 1210,
      "v": 100
    },
    {
      "midi": 61,
      "hit": false,
      "t": 530400,
      "d": 2400,
      "v": 100
    },
    {
      "midi": 68,
      "hit": false,
      "t": 530400,
      "d": 2400,
      "v": 100
    },
    {
      "midi": 53,
      "hit": false,
      "t": 530400,
      "d": 2400,
      "v": 100
    },
    {
      "midi": 56,
      "hit": false,
      "t": 531600,
      "d": 1200,
      "v": 100
    },
    {
      "midi": 56,
      "hit": false,
      "t": 532800,
      "d": 1200,
      "v": 100
    },
    {
      "midi": 60,
      "hit": false,
      "t": 532800,
      "d": 2400,
      "v": 100
    },
    {
      "midi": 32,
      "hit": false,
      "t": 532800,
      "d": 2400,
      "v": 100
    },
    {
      "midi": 44,
      "hit": false,
      "t": 532800,
      "d": 2400,
      "v": 100
    },
    {
      "midi": 54,
      "hit": false,
      "t": 534000,
      "d": 1200,
      "v": 100
    },
    {
      "midi": 53,
      "hit": false,
      "t": 535200,
      "d": 2400,
      "v": 100
    },
    {
      "midi": 61,
      "hit": false,
      "t": 535200,
      "d": 2400,
      "v": 100
    },
    {
      "midi": 25,
      "hit": false,
      "t": 535200,
      "d": 7200,
      "v": 100
    },
    {
      "midi": 37,
      "hit": false,
      "t": 535200,
      "d": 7200,
      "v": 100
    },
    {
      "midi": 72,
      "hit": false,
      "t": 537600,
      "d": 300,
      "v": 100
    },
    {
      "midi": 73,
      "hit": false,
      "t": 537900,
      "d": 1800,
      "v": 100
    },
    {
      "midi": 75,
      "hit": false,
      "t": 539100,
      "d": 300,
      "v": 100
    },
    {
      "midi": 77,
      "hit": false,
      "t": 539400,
      "d": 300,
      "v": 100
    },
    {
      "midi": 70,
      "hit": false,
      "t": 539700,
      "d": 300,
      "v": 100
    },
    {
      "midi": 68,
      "hit": false,
      "t": 540000,
      "d": 1800,
      "v": 100
    },
    {
      "midi": 73,
      "hit": false,
      "t": 541800,
      "d": 300,
      "v": 100
    },
    {
      "midi": 72,
      "hit": false,
      "t": 542100,
      "d": 300,
      "v": 100
    },
    {
      "midi": 70,
      "hit": false,
      "t": 542400,
      "d": 1800,
      "v": 100
    },
    {
      "midi": 42,
      "hit": false,
      "t": 542400,
      "d": 600,
      "v": 100
    },
    {
      "midi": 44,
      "hit": false,
      "t": 543000,
      "d": 600,
      "v": 100
    },
    {
      "midi": 49,
      "hit": false,
      "t": 543000,
      "d": 600,
      "v": 100
    },
    {
      "midi": 54,
      "hit": false,
      "t": 543600,
      "d": 600,
      "v": 100
    },
    {
      "midi": 46,
      "hit": false,
      "t": 543600,
      "d": 600,
      "v": 100
    },
    {
      "midi": 56,
      "hit": false,
      "t": 544200,
      "d": 600,
      "v": 100
    },
    {
      "midi": 49,
      "hit": false,
      "t": 544200,
      "d": 600,
      "v": 100
    },
    {
      "midi": 61,
      "hit": false,
      "t": 544800,
      "d": 1800,
      "v": 100
    },
    {
      "midi": 54,
      "hit": false,
      "t": 544800,
      "d": 2400,
      "v": 100
    },
    {
      "midi": 73,
      "hit": false,
      "t": 546600,
      "d": 300,
      "v": 100
    },
    {
      "midi": 72,
      "hit": false,
      "t": 546880,
      "d": 300,
      "v": 100
    },
    {
      "midi": 70,
      "hit": false,
      "t": 547200,
      "d": 2400,
      "v": 100
    },
    {
      "midi": 36,
      "hit": false,
      "t": 547200,
      "d": 4800,
      "v": 100
    },
    {
      "midi": 51,
      "hit": false,
      "t": 547200,
      "d": 4800,
      "v": 100
    },
    {
      "midi": 65,
      "hit": false,
      "t": 549600,
      "d": 1200,
      "v": 100
    },
    {
      "midi": 63,
      "hit": false,
      "t": 550800,
      "d": 600,
      "v": 100
    },
    {
      "midi": 62,
      "hit": false,
      "t": 551400,
      "d": 600,
      "v": 100
    },
    {
      "midi": 63,
      "hit": false,
      "t": 552000,
      "d": 600,
      "v": 100
    },
    {
      "midi": 38,
      "hit": false,
      "t": 552000,
      "d": 4800,
      "v": 100
    },
    {
      "midi": 53,
      "hit": false,
      "t": 552000,
      "d": 4800,
      "v": 100
    },
    {
      "midi": 62,
      "hit": false,
      "t": 552600,
      "d": 1800,
      "v": 100
    },
    {
      "midi": 70,
      "hit": false,
      "t": 554400,
      "d": 1200,
      "v": 100
    },
    {
      "midi": 82,
      "hit": false,
      "t": 555600,
      "d": 1200,
      "v": 100
    },
    {
      "midi": 82,
      "hit": false,
      "t": 556800,
      "d": 4800,
      "v": 100
    },
    {
      "midi": 39,
      "hit": false,
      "t": 556800,
      "d": 9600,
      "v": 100
    },
    {
      "midi": 56,
      "hit": false,
      "t": 559200,
      "d": 600,
      "v": 100
    },
    {
      "midi": 61,
      "hit": false,
      "t": 559200,
      "d": 4800,
      "v": 100
    },
    {
      "midi": 54,
      "hit": false,
      "t": 559800,
      "d": 600,
      "v": 100
    },
    {
      "midi": 56,
      "hit": false,
      "t": 560400,
      "d": 600,
      "v": 100
    },
    {
      "midi": 54,
      "hit": false,
      "t": 561000,
      "d": 3000,
      "v": 100
    },
    {
      "midi": 82,
      "hit": false,
      "t": 564000,
      "d": 1200,
      "v": 100
    },
    {
      "midi": 84,
      "hit": false,
      "t": 565200,
      "d": 600,
      "v": 100
    },
    {
      "midi": 85,
      "hit": false,
      "t": 565800,
      "d": 600,
      "v": 100
    },
    {
      "midi": 80,
      "hit": false,
      "t": 566400,
      "d": 3590,
      "v": 102
    },
    {
      "midi": 41,
      "hit": false,
      "t": 566400,
      "d": 3590,
      "v": 101
    },
    {
      "midi": 60,
      "hit": false,
      "t": 567600,
      "d": 600,
      "v": 100
    },
    {
      "midi": 63,
      "hit": false,
      "t": 567600,
      "d": 600,
      "v": 100
    },
    {
      "midi": 56,
      "hit": false,
      "t": 567600,
      "d": 600,
      "v": 100
    },
    {
      "midi": 56,
      "hit": false,
      "t": 568200,
      "d": 600,
      "v": 100
    },
    {
      "midi": 60,
      "hit": false,
      "t": 568200,
      "d": 600,
      "v": 100
    },
    {
      "midi": 53,
      "hit": false,
      "t": 568200,
      "d": 600,
      "v": 100
    },
    {
      "midi": 56,
      "hit": false,
      "t": 568800,
      "d": 1190,
      "v": 100
    },
    {
      "midi": 49,
      "hit": false,
      "t": 568800,
      "d": 5695,
      "v": 100
    },
    {
      "midi": 61,
      "hit": false,
      "t": 570000,
      "d": 2180,
      "v": 100
    },
    {
      "midi": 42,
      "hit": false,
      "t": 570000,
      "d": 4495,
      "v": 100
    },
    {
      "midi": 80,
      "hit": false,
      "t": 572205,
      "d": 1200,
      "v": 100
    },
    {
      "midi": 77,
      "hit": false,
      "t": 573600,
      "d": 600,
      "v": 100
    },
    {
      "midi": 73,
      "hit": false,
      "t": 574200,
      "d": 600,
      "v": 100
    },
    {
      "midi": 36,
      "hit": false,
      "t": 574347.5,
      "d": 172.5,
      "v": 73
    },
    {
      "midi": 37,
      "hit": false,
      "t": 574500,
      "d": 187.5,
      "v": 85
    },
    {
      "midi": 38,
      "hit": false,
      "t": 574642.5,
      "d": 157.5,
      "v": 91
    },
    {
      "midi": 70,
      "hit": false,
      "t": 574800,
      "d": 450,
      "v": 101
    },
    {
      "midi": 73,
      "hit": false,
      "t": 574800,
      "d": 450,
      "v": 101
    },
    {
      "midi": 78,
      "hit": false,
      "t": 574800,
      "d": 740,
      "v": 100
    },
    {
      "midi": 39,
      "hit": false,
      "t": 574800,
      "d": 292.5,
      "v": 99
    },
    {
      "midi": 68,
      "hit": false,
      "t": 576000,
      "d": 522.5,
      "v": 106
    },
    {
      "midi": 73,
      "hit": false,
      "t": 576000,
      "d": 522.5,
      "v": 101
    },
    {
      "midi": 77,
      "hit": false,
      "t": 576000,
      "d": 760,
      "v": 100
    },
    {
      "midi": 41,
      "hit": false,
      "t": 576000,
      "d": 542.5,
      "v": 98
    },
    {
      "midi": 68,
      "hit": false,
      "t": 577200,
      "d": 600,
      "v": 100
    },
    {
      "midi": 75,
      "hit": false,
      "t": 577200,
      "d": 600,
      "v": 100
    },
    {
      "midi": 42,
      "hit": false,
      "t": 577200,
      "d": 870,
      "v": 101
    },
    {
      "midi": 73,
      "hit": false,
      "t": 577800,
      "d": 600,
      "v": 100
    },
    {
      "midi": 75,
      "hit": false,
      "t": 578400,
      "d": 2400,
      "v": 100
    },
    {
      "midi": 68,
      "hit": false,
      "t": 578400,
      "d": 4782.5,
      "v": 100
    },
    {
      "midi": 72,
      "hit": false,
      "t": 578400,
      "d": 4792.5,
      "v": 101
    },
    {
      "midi": 32,
      "hit": false,
      "t": 578400,
      "d": 4800,
      "v": 100
    },
    {
      "midi": 44,
      "hit": false,
      "t": 578400,
      "d": 4800,
      "v": 100
    },
    {
      "midi": 82,
      "hit": false,
      "t": 580800,
      "d": 1200,
      "v": 100
    },
    {
      "midi": 80,
      "hit": false,
      "t": 582000,
      "d": 1595,
      "v": 103
    },
    {
      "midi": 73,
      "hit": false,
      "t": 583200,
      "d": 1727.5,
      "v": 100
    },
    {
      "midi": 34,
      "hit": false,
      "t": 583200,
      "d": 4800,
      "v": 100
    },
    {
      "midi": 49,
      "hit": false,
      "t": 583200,
      "d": 4800,
      "v": 100
    },
    {
      "midi": 73,
      "hit": false,
      "t": 585000,
      "d": 200,
      "v": 100
    },
    {
      "midi": 75,
      "hit": false,
      "t": 585197.5,
      "d": 200,
      "v": 100
    },
    {
      "midi": 77,
      "hit": false,
      "t": 585400,
      "d": 200,
      "v": 100
    },
    {
      "midi": 78,
      "hit": false,
      "t": 585600,
      "d": 600,
      "v": 100
    },
    {
      "midi": 77,
      "hit": false,
      "t": 586200,
      "d": 600,
      "v": 100
    },
    {
      "midi": 75,
      "hit": false,
      "t": 586800,
      "d": 600,
      "v": 100
    },
    {
      "midi": 73,
      "hit": false,
      "t": 587400,
      "d": 600,
      "v": 100
    },
    {
      "midi": 75,
      "hit": false,
      "t": 588000,
      "d": 590,
      "v": 102
    },
    {
      "midi": 48,
      "hit": false,
      "t": 588000,
      "d": 2377.5,
      "v": 97
    },
    {
      "midi": 51,
      "hit": false,
      "t": 588400,
      "d": 1975,
      "v": 102
    },
    {
      "midi": 75,
      "hit": false,
      "t": 588600,
      "d": 600,
      "v": 101
    },
    {
      "midi": 56,
      "hit": false,
      "t": 588800,
      "d": 1585,
      "v": 100
    },
    {
      "midi": 63,
      "hit": false,
      "t": 589200,
      "d": 1200,
      "v": 100
    },
    {
      "midi": 84,
      "hit": false,
      "t": 589202.5,
      "d": 1197.5,
      "v": 100
    },
    {
      "midi": 80,
      "hit": false,
      "t": 590400,
      "d": 2400,
      "v": 100
    },
    {
      "midi": 49,
      "hit": false,
      "t": 590400,
      "d": 2377.5,
      "v": 99
    },
    {
      "midi": 56,
      "hit": false,
      "t": 590800,
      "d": 1975,
      "v": 103
    },
    {
      "midi": 61,
      "hit": false,
      "t": 591200,
      "d": 1597.5,
      "v": 102
    },
    {
      "midi": 65,
      "hit": false,
      "t": 591600,
      "d": 1200,
      "v": 100
    },
    {
      "midi": 56,
      "hit": false,
      "t": 592800,
      "d": 2400,
      "v": 100
    },
    {
      "midi": 61,
      "hit": false,
      "t": 592800,
      "d": 2400,
      "v": 100
    },
    {
      "midi": 65,
      "hit": false,
      "t": 592800,
      "d": 2400,
      "v": 100
    },
    {
      "midi": 37,
      "hit": false,
      "t": 592800,
      "d": 2400,
      "v": 100
    },
    {
      "midi": 49,
      "hit": false,
      "t": 592800,
      "d": 2400,
      "v": 100
    },
    {
      "midi": 54,
      "hit": false,
      "t": 595200,
      "d": 1200,
      "v": 100
    },
    {
      "midi": 58,
      "hit": false,
      "t": 595200,
      "d": 1200,
      "v": 100
    },
    {
      "midi": 61,
      "hit": false,
      "t": 595200,
      "d": 1200,
      "v": 100
    },
    {
      "midi": 30,
      "hit": false,
      "t": 595200,
      "d": 1200,
      "v": 100
    },
    {
      "midi": 42,
      "hit": false,
      "t": 595200,
      "d": 1200,
      "v": 100
    },
    {
      "midi": 29,
      "hit": false,
      "t": 596400,
      "d": 1200,
      "v": 100
    },
    {
      "midi": 41,
      "hit": false,
      "t": 596400,
      "d": 1200,
      "v": 100
    },
    {
      "midi": 49,
      "hit": false,
      "t": 596400,
      "d": 1200,
      "v": 100
    },
    {
      "midi": 53,
      "hit": false,
      "t": 596400,
      "d": 1200,
      "v": 100
    },
    {
      "midi": 56,
      "hit": false,
      "t": 596400,
      "d": 1200,
      "v": 100
    },
    {
      "midi": 54,
      "hit": false,
      "t": 597600,
      "d": 4800,
      "v": 100
    },
    {
      "midi": 58,
      "hit": false,
      "t": 597600,
      "d": 4800,
      "v": 100
    },
    {
      "midi": 27,
      "hit": false,
      "t": 597600,
      "d": 4800,
      "v": 100
    },
    {
      "midi": 39,
      "hit": false,
      "t": 597600,
      "d": 4800,
      "v": 100
    },
    {
      "midi": 61,
      "hit": false,
      "t": 601940,
      "d": 120,
      "v": 100
    },
    {
      "midi": 63,
      "hit": false,
      "t": 602037.5,
      "d": 155,
      "v": 100
    },
    {
      "midi": 65,
      "hit": false,
      "t": 602200,
      "d": 190,
      "v": 100
    },
    {
      "midi": 66,
      "hit": false,
      "t": 602400,
      "d": 600,
      "v": 100
    },
    {
      "midi": 32,
      "hit": false,
      "t": 602400,
      "d": 2400,
      "v": 100
    },
    {
      "midi": 44,
      "hit": false,
      "t": 602400,
      "d": 2400,
      "v": 100
    },
    {
      "midi": 65,
      "hit": false,
      "t": 603000,
      "d": 600,
      "v": 100
    },
    {
      "midi": 63,
      "hit": false,
      "t": 603600,
      "d": 600,
      "v": 100
    },
    {
      "midi": 61,
      "hit": false,
      "t": 604200,
      "d": 600,
      "v": 100
    },
    {
      "midi": 61,
      "hit": false,
      "t": 604800,
      "d": 1200,
      "v": 100
    },
    {
      "midi": 56,
      "hit": false,
      "t": 604800,
      "d": 2400,
      "v": 100
    },
    {
      "midi": 63,
      "hit": false,
      "t": 604800,
      "d": 2400,
      "v": 100
    },
    {
      "midi": 60,
      "hit": false,
      "t": 606000,
      "d": 1200,
      "v": 100
    },
    {
      "midi": 25,
      "hit": false,
      "t": 607200,
      "d": 4800,
      "v": 125
    },
    {
      "midi": 37,
      "hit": false,
      "t": 607200,
      "d": 4800,
      "v": 125
    },
    {
      "midi": 56,
      "hit": false,
      "t": 607212.5,
      "d": 600,
      "v": 100
    },
    {
      "midi": 61,
      "hit": false,
      "t": 607802.5,
      "d": 600,
      "v": 100
    },
    {
      "midi": 63,
      "hit": false,
      "t": 608405,
      "d": 600,
      "v": 100
    },
    {
      "midi": 68,
      "hit": false,
      "t": 609000,
      "d": 600,
      "v": 100
    },
    {
      "midi": 68,
      "hit": false,
      "t": 609605,
      "d": 600,
      "v": 100
    },
    {
      "midi": 73,
      "hit": false,
      "t": 610207.5,
      "d": 600,
      "v": 100
    },
    {
      "midi": 75,
      "hit": false,
      "t": 610800,
      "d": 600,
      "v": 100
    },
    {
      "midi": 80,
      "hit": false,
      "t": 611407.5,
      "d": 592.5,
      "v": 100
    },
    {
      "midi": 77,
      "hit": false,
      "t": 612000,
      "d": 1800,
      "v": 100
    },
    {
      "midi": 30,
      "hit": false,
      "t": 612000,
      "d": 4800,
      "v": 125
    },
    {
      "midi": 42,
      "hit": false,
      "t": 612000,
      "d": 4800,
      "v": 125
    },
    {
      "midi": 68,
      "hit": false,
      "t": 612010,
      "d": 1800,
      "v": 100
    },
    {
      "midi": 78,
      "hit": false,
      "t": 613800,
      "d": 300,
      "v": 100
    },
    {
      "midi": 77,
      "hit": false,
      "t": 614100,
      "d": 300,
      "v": 100
    },
    {
      "midi": 75,
      "hit": false,
      "t": 614400,
      "d": 600,
      "v": 100
    },
    {
      "midi": 73,
      "hit": false,
      "t": 615000,
      "d": 600,
      "v": 100
    },
    {
      "midi": 68,
      "hit": false,
      "t": 615600,
      "d": 600,
      "v": 100
    },
    {
      "midi": 61,
      "hit": false,
      "t": 616200,
      "d": 600,
      "v": 100
    },
    {
      "midi": 29,
      "hit": false,
      "t": 616800,
      "d": 9600,
      "v": 125
    },
    {
      "midi": 41,
      "hit": false,
      "t": 616800,
      "d": 9600,
      "v": 125
    },
    {
      "midi": 99,
      "hit": false,
      "t": 617970,
      "d": 300,
      "v": 100
    },
    {
      "midi": 92,
      "hit": false,
      "t": 618270,
      "d": 300,
      "v": 100
    },
    {
      "midi": 90,
      "hit": false,
      "t": 618530,
      "d": 300,
      "v": 100
    },
    {
      "midi": 89,
      "hit": false,
      "t": 618830,
      "d": 300,
      "v": 100
    },
    {
      "midi": 94,
      "hit": false,
      "t": 619250,
      "d": 300,
      "v": 100
    },
    {
      "midi": 89,
      "hit": false,
      "t": 619520,
      "d": 300,
      "v": 100
    },
    {
      "midi": 86,
      "hit": false,
      "t": 619770,
      "d": 300,
      "v": 100
    },
    {
      "midi": 82,
      "hit": false,
      "t": 620100,
      "d": 300,
      "v": 100
    },
    {
      "midi": 87,
      "hit": false,
      "t": 620400,
      "d": 300,
      "v": 100
    },
    {
      "midi": 80,
      "hit": false,
      "t": 620700,
      "d": 300,
      "v": 100
    },
    {
      "midi": 78,
      "hit": false,
      "t": 620970,
      "d": 300,
      "v": 100
    },
    {
      "midi": 77,
      "hit": false,
      "t": 621280,
      "d": 300,
      "v": 100
    },
    {
      "midi": 82,
      "hit": false,
      "t": 621600,
      "d": 300,
      "v": 100
    },
    {
      "midi": 77,
      "hit": false,
      "t": 621900,
      "d": 300,
      "v": 100
    },
    {
      "midi": 74,
      "hit": false,
      "t": 622170,
      "d": 300,
      "v": 100
    },
    {
      "midi": 70,
      "hit": false,
      "t": 622530,
      "d": 300,
      "v": 100
    },
    {
      "midi": 75,
      "hit": false,
      "t": 622770,
      "d": 300,
      "v": 100
    },
    {
      "midi": 68,
      "hit": false,
      "t": 623050,
      "d": 300,
      "v": 100
    },
    {
      "midi": 66,
      "hit": false,
      "t": 623370,
      "d": 300,
      "v": 100
    },
    {
      "midi": 65,
      "hit": false,
      "t": 623700,
      "d": 300,
      "v": 100
    },
    {
      "midi": 70,
      "hit": false,
      "t": 624000,
      "d": 300,
      "v": 100
    },
    {
      "midi": 65,
      "hit": false,
      "t": 624280,
      "d": 300,
      "v": 100
    },
    {
      "midi": 62,
      "hit": false,
      "t": 624580,
      "d": 300,
      "v": 100
    },
    {
      "midi": 58,
      "hit": false,
      "t": 624870,
      "d": 300,
      "v": 100
    },
    {
      "midi": 63,
      "hit": false,
      "t": 625230,
      "d": 300,
      "v": 100
    },
    {
      "midi": 56,
      "hit": false,
      "t": 625550,
      "d": 300,
      "v": 100
    },
    {
      "midi": 54,
      "hit": false,
      "t": 625750,
      "d": 300,
      "v": 100
    },
    {
      "midi": 53,
      "hit": false,
      "t": 626070,
      "d": 240,
      "v": 100
    },
    {
      "midi": 25,
      "hit": false,
      "t": 626400,
      "d": 4800,
      "v": 125
    },
    {
      "midi": 37,
      "hit": false,
      "t": 626400,
      "d": 4800,
      "v": 125
    },
    {
      "midi": 56,
      "hit": false,
      "t": 626412.5,
      "d": 600,
      "v": 100
    },
    {
      "midi": 61,
      "hit": false,
      "t": 627002.5,
      "d": 600,
      "v": 100
    },
    {
      "midi": 63,
      "hit": false,
      "t": 627605,
      "d": 600,
      "v": 100
    },
    {
      "midi": 68,
      "hit": false,
      "t": 628200,
      "d": 600,
      "v": 100
    },
    {
      "midi": 68,
      "hit": false,
      "t": 628805,
      "d": 600,
      "v": 100
    },
    {
      "midi": 73,
      "hit": false,
      "t": 629407.5,
      "d": 600,
      "v": 100
    },
    {
      "midi": 75,
      "hit": false,
      "t": 630000,
      "d": 600,
      "v": 100
    },
    {
      "midi": 80,
      "hit": false,
      "t": 630607.5,
      "d": 592.5,
      "v": 100
    },
    {
      "midi": 77,
      "hit": false,
      "t": 631200,
      "d": 1800,
      "v": 100
    },
    {
      "midi": 30,
      "hit": false,
      "t": 631200,
      "d": 4800,
      "v": 125
    },
    {
      "midi": 42,
      "hit": false,
      "t": 631200,
      "d": 4800,
      "v": 125
    },
    {
      "midi": 68,
      "hit": false,
      "t": 631270,
      "d": 1800,
      "v": 100
    },
    {
      "midi": 78,
      "hit": false,
      "t": 633000,
      "d": 300,
      "v": 100
    },
    {
      "midi": 77,
      "hit": false,
      "t": 633300,
      "d": 300,
      "v": 100
    },
    {
      "midi": 75,
      "hit": false,
      "t": 633600,
      "d": 600,
      "v": 100
    },
    {
      "midi": 73,
      "hit": false,
      "t": 634200,
      "d": 600,
      "v": 100
    },
    {
      "midi": 68,
      "hit": false,
      "t": 634800,
      "d": 600,
      "v": 100
    },
    {
      "midi": 61,
      "hit": false,
      "t": 635400,
      "d": 600,
      "v": 100
    },
    {
      "midi": 34,
      "hit": false,
      "t": 636000,
      "d": 9600,
      "v": 125
    },
    {
      "midi": 46,
      "hit": false,
      "t": 636000,
      "d": 9600,
      "v": 125
    },
    {
      "midi": 99,
      "hit": false,
      "t": 637170,
      "d": 300,
      "v": 100
    },
    {
      "midi": 92,
      "hit": false,
      "t": 637470,
      "d": 300,
      "v": 100
    },
    {
      "midi": 90,
      "hit": false,
      "t": 637730,
      "d": 300,
      "v": 100
    },
    {
      "midi": 89,
      "hit": false,
      "t": 638030,
      "d": 300,
      "v": 100
    },
    {
      "midi": 94,
      "hit": false,
      "t": 638450,
      "d": 300,
      "v": 100
    },
    {
      "midi": 89,
      "hit": false,
      "t": 638720,
      "d": 300,
      "v": 100
    },
    {
      "midi": 86,
      "hit": false,
      "t": 638970,
      "d": 300,
      "v": 100
    },
    {
      "midi": 82,
      "hit": false,
      "t": 639300,
      "d": 300,
      "v": 100
    },
    {
      "midi": 87,
      "hit": false,
      "t": 639600,
      "d": 300,
      "v": 100
    },
    {
      "midi": 80,
      "hit": false,
      "t": 639900,
      "d": 300,
      "v": 100
    },
    {
      "midi": 78,
      "hit": false,
      "t": 640170,
      "d": 300,
      "v": 100
    },
    {
      "midi": 77,
      "hit": false,
      "t": 640480,
      "d": 300,
      "v": 100
    },
    {
      "midi": 82,
      "hit": false,
      "t": 640800,
      "d": 300,
      "v": 100
    },
    {
      "midi": 77,
      "hit": false,
      "t": 641100,
      "d": 300,
      "v": 100
    },
    {
      "midi": 74,
      "hit": false,
      "t": 641370,
      "d": 300,
      "v": 100
    },
    {
      "midi": 70,
      "hit": false,
      "t": 641730,
      "d": 300,
      "v": 100
    },
    {
      "midi": 75,
      "hit": false,
      "t": 641970,
      "d": 300,
      "v": 100
    },
    {
      "midi": 68,
      "hit": false,
      "t": 642250,
      "d": 300,
      "v": 100
    },
    {
      "midi": 66,
      "hit": false,
      "t": 642570,
      "d": 300,
      "v": 100
    },
    {
      "midi": 65,
      "hit": false,
      "t": 642900,
      "d": 300,
      "v": 100
    },
    {
      "midi": 70,
      "hit": false,
      "t": 643200,
      "d": 300,
      "v": 100
    },
    {
      "midi": 65,
      "hit": false,
      "t": 643480,
      "d": 300,
      "v": 100
    },
    {
      "midi": 62,
      "hit": false,
      "t": 643780,
      "d": 300,
      "v": 100
    },
    {
      "midi": 58,
      "hit": false,
      "t": 644070,
      "d": 300,
      "v": 100
    },
    {
      "midi": 63,
      "hit": false,
      "t": 644430,
      "d": 300,
      "v": 100
    },
    {
      "midi": 56,
      "hit": false,
      "t": 644750,
      "d": 300,
      "v": 100
    },
    {
      "midi": 54,
      "hit": false,
      "t": 644950,
      "d": 300,
      "v": 100
    },
    {
      "midi": 53,
      "hit": false,
      "t": 645270,
      "d": 250,
      "v": 100
    },
    {
      "midi": 56,
      "hit": false,
      "t": 645600,
      "d": 600,
      "v": 100
    },
    {
      "midi": 61,
      "hit": false,
      "t": 645600,
      "d": 600,
      "v": 100
    },
    {
      "midi": 25,
      "hit": false,
      "t": 645600,
      "d": 14400,
      "v": 100
    },
    {
      "midi": 37,
      "hit": false,
      "t": 645600,
      "d": 14400,
      "v": 100
    },
    {
      "midi": 49,
      "hit": false,
      "t": 646200,
      "d": 600,
      "v": 100
    },
    {
      "midi": 54,
      "hit": false,
      "t": 646200,
      "d": 600,
      "v": 100
    },
    {
      "midi": 56,
      "hit": false,
      "t": 646800,
      "d": 600,
      "v": 100
    },
    {
      "midi": 61,
      "hit": false,
      "t": 646800,
      "d": 600,
      "v": 100
    },
    {
      "midi": 49,
      "hit": false,
      "t": 647400,
      "d": 600,
      "v": 100
    },
    {
      "midi": 54,
      "hit": false,
      "t": 647400,
      "d": 600,
      "v": 100
    },
    {
      "midi": 56,
      "hit": false,
      "t": 648000,
      "d": 600,
      "v": 100
    },
    {
      "midi": 61,
      "hit": false,
      "t": 648000,
      "d": 600,
      "v": 100
    },
    {
      "midi": 49,
      "hit": false,
      "t": 648600,
      "d": 600,
      "v": 100
    },
    {
      "midi": 54,
      "hit": false,
      "t": 648600,
      "d": 600,
      "v": 100
    },
    {
      "midi": 56,
      "hit": false,
      "t": 649200,
      "d": 600,
      "v": 100
    },
    {
      "midi": 61,
      "hit": false,
      "t": 649200,
      "d": 600,
      "v": 100
    },
    {
      "midi": 49,
      "hit": false,
      "t": 649800,
      "d": 600,
      "v": 100
    },
    {
      "midi": 54,
      "hit": false,
      "t": 649800,
      "d": 600,
      "v": 100
    },
    {
      "midi": 56,
      "hit": false,
      "t": 650400,
      "d": 600,
      "v": 100
    },
    {
      "midi": 61,
      "hit": false,
      "t": 650400,
      "d": 600,
      "v": 100
    },
    {
      "midi": 49,
      "hit": false,
      "t": 651000,
      "d": 600,
      "v": 100
    },
    {
      "midi": 54,
      "hit": false,
      "t": 651000,
      "d": 600,
      "v": 100
    },
    {
      "midi": 56,
      "hit": false,
      "t": 651600,
      "d": 600,
      "v": 100
    },
    {
      "midi": 61,
      "hit": false,
      "t": 651600,
      "d": 600,
      "v": 100
    },
    {
      "midi": 49,
      "hit": false,
      "t": 652200,
      "d": 600,
      "v": 100
    },
    {
      "midi": 54,
      "hit": false,
      "t": 652200,
      "d": 600,
      "v": 100
    },
    {
      "midi": 56,
      "hit": false,
      "t": 652800,
      "d": 600,
      "v": 100
    },
    {
      "midi": 61,
      "hit": false,
      "t": 652800,
      "d": 600,
      "v": 100
    },
    {
      "midi": 49,
      "hit": false,
      "t": 653400,
      "d": 600,
      "v": 100
    },
    {
      "midi": 54,
      "hit": false,
      "t": 653400,
      "d": 600,
      "v": 100
    },
    {
      "midi": 56,
      "hit": false,
      "t": 654000,
      "d": 600,
      "v": 100
    },
    {
      "midi": 61,
      "hit": false,
      "t": 654000,
      "d": 600,
      "v": 100
    },
    {
      "midi": 49,
      "hit": false,
      "t": 654600,
      "d": 600,
      "v": 100
    },
    {
      "midi": 54,
      "hit": false,
      "t": 654600,
      "d": 600,
      "v": 100
    },
    {
      "midi": 56,
      "hit": false,
      "t": 655200,
      "d": 600,
      "v": 100
    },
    {
      "midi": 61,
      "hit": false,
      "t": 655200,
      "d": 600,
      "v": 100
    },
    {
      "midi": 49,
      "hit": false,
      "t": 655800,
      "d": 600,
      "v": 100
    },
    {
      "midi": 54,
      "hit": false,
      "t": 655800,
      "d": 600,
      "v": 100
    },
    {
      "midi": 56,
      "hit": false,
      "t": 656400,
      "d": 600,
      "v": 100
    },
    {
      "midi": 61,
      "hit": false,
      "t": 656400,
      "d": 600,
      "v": 100
    },
    {
      "midi": 49,
      "hit": false,
      "t": 657000,
      "d": 600,
      "v": 100
    },
    {
      "midi": 54,
      "hit": false,
      "t": 657000,
      "d": 600,
      "v": 100
    },
    {
      "midi": 56,
      "hit": false,
      "t": 657600,
      "d": 600,
      "v": 100
    },
    {
      "midi": 61,
      "hit": false,
      "t": 657600,
      "d": 600,
      "v": 100
    },
    {
      "midi": 49,
      "hit": false,
      "t": 658200,
      "d": 600,
      "v": 100
    },
    {
      "midi": 54,
      "hit": false,
      "t": 658200,
      "d": 600,
      "v": 100
    },
    {
      "midi": 61,
      "hit": false,
      "t": 658800,
      "d": 600,
      "v": 100
    },
    {
      "midi": 68,
      "hit": false,
      "t": 659400,
      "d": 600,
      "v": 100
    },
    {
      "midi": 61,
      "hit": false,
      "t": 660000,
      "d": 1200,
      "v": 100
    },
    {
      "midi": 68,
      "hit": false,
      "t": 660000,
      "d": 1200,
      "v": 100
    },
    {
      "midi": 53,
      "hit": false,
      "t": 660000,
      "d": 2400,
      "v": 100
    },
    {
      "midi": 56,
      "hit": false,
      "t": 662400,
      "d": 2.5,
      "v": 100
    },
    {
      "midi": 60,
      "hit": false,
      "t": 662400,
      "d": 2400,
      "v": 100
    },
    {
      "midi": 44,
      "hit": false,
      "t": 662400,
      "d": 2400,
      "v": 100
    },
    {
      "midi": 54,
      "hit": false,
      "t": 663600,
      "d": 1200,
      "v": 100
    },
    {
      "midi": 61,
      "hit": false,
      "t": 664800,
      "d": 4800,
      "v": 100
    },
    {
      "midi": 25,
      "hit": false,
      "t": 664800,
      "d": 4800,
      "v": 100
    },
    {
      "midi": 37,
      "hit": false,
      "t": 664800,
      "d": 4800,
      "v": 100
    },
    {
      "midi": 49,
      "hit": false,
      "t": 664800,
      "d": 4800,
      "v": 100
    }
  ]
}