{
  "jsonPath": "World/Australian Dance/Kylie Minogue/wow-live-in-new-york.json",
  "path": "World\\Australian Dance\\Kylie Minogue\\Wow (Live in New York).mid",
  "name": "Wow (Live in New York)",
  "difficulty": "Advanced",
  "bpm": 124.000248000496,
  "notes": [
    {
      "midi": 50,
      "hit": false,
      "t": 3870.96,
      "d": 360.88637500000004,
      "v": 121
    },
    {
      "midi": 50,
      "hit": false,
      "t": 4233.8625,
      "d": 64.51599999999962,
      "v": 121
    },
    {
      "midi": 62,
      "hit": false,
      "t": 4354.83,
      "d": 64.51599999999962,
      "v": 121
    },
    {
      "midi": 66,
      "hit": false,
      "t": 4354.83,
      "d": 64.51599999999962,
      "v": 121
    },
    {
      "midi": 69,
      "hit": false,
      "t": 4354.83,
      "d": 64.51599999999962,
      "v": 121
    },
    {
      "midi": 50,
      "hit": false,
      "t": 4475.7975,
      "d": 64.51599999999962,
      "v": 121
    },
    {
      "midi": 52,
      "hit": false,
      "t": 4596.764999999999,
      "d": 360.88637500000004,
      "v": 121
    },
    {
      "midi": 52,
      "hit": false,
      "t": 5080.634999999999,
      "d": 64.51599999999962,
      "v": 121
    },
    {
      "midi": 52,
      "hit": false,
      "t": 5201.602499999999,
      "d": 64.51599999999962,
      "v": 121
    },
    {
      "midi": 64,
      "hit": false,
      "t": 5322.569999999999,
      "d": 64.51599999999962,
      "v": 121
    },
    {
      "midi": 69,
      "hit": false,
      "t": 5322.569999999999,
      "d": 64.51599999999962,
      "v": 121
    },
    {
      "midi": 71,
      "hit": false,
      "t": 5322.569999999999,
      "d": 64.51599999999962,
      "v": 121
    },
    {
      "midi": 52,
      "hit": false,
      "t": 5443.5374999999985,
      "d": 68.54824999999983,
      "v": 121
    },
    {
      "midi": 52,
      "hit": false,
      "t": 5564.504999999998,
      "d": 68.54824999999983,
      "v": 121
    },
    {
      "midi": 52,
      "hit": false,
      "t": 5685.472499999998,
      "d": 68.54824999999983,
      "v": 121
    },
    {
      "midi": 49,
      "hit": false,
      "t": 5806.439999999998,
      "d": 235.8866250000001,
      "v": 121
    },
    {
      "midi": 59,
      "hit": false,
      "t": 6048.374999999998,
      "d": 64.51599999999962,
      "v": 121
    },
    {
      "midi": 64,
      "hit": false,
      "t": 6048.374999999998,
      "d": 64.51599999999962,
      "v": 121
    },
    {
      "midi": 68,
      "hit": false,
      "t": 6048.374999999998,
      "d": 64.51599999999962,
      "v": 121
    },
    {
      "midi": 49,
      "hit": false,
      "t": 6169.342499999998,
      "d": 360.88637500000004,
      "v": 121
    },
    {
      "midi": 50,
      "hit": false,
      "t": 6532.244999999998,
      "d": 360.88637500000004,
      "v": 121
    },
    {
      "midi": 50,
      "hit": false,
      "t": 7016.114999999998,
      "d": 64.51599999999962,
      "v": 121
    },
    {
      "midi": 50,
      "hit": false,
      "t": 7137.082499999998,
      "d": 64.51599999999962,
      "v": 121
    },
    {
      "midi": 62,
      "hit": false,
      "t": 7258.049999999997,
      "d": 64.51599999999962,
      "v": 121
    },
    {
      "midi": 64,
      "hit": false,
      "t": 7258.049999999997,
      "d": 64.51599999999962,
      "v": 121
    },
    {
      "midi": 69,
      "hit": false,
      "t": 7258.049999999997,
      "d": 64.51599999999962,
      "v": 121
    },
    {
      "midi": 50,
      "hit": false,
      "t": 7379.017499999997,
      "d": 68.54824999999983,
      "v": 121
    },
    {
      "midi": 50,
      "hit": false,
      "t": 7499.984999999997,
      "d": 68.54824999999983,
      "v": 121
    },
    {
      "midi": 50,
      "hit": false,
      "t": 7620.952499999997,
      "d": 68.54824999999983,
      "v": 121
    },
    {
      "midi": 50,
      "hit": false,
      "t": 7741.919999999996,
      "d": 360.88637500000004,
      "v": 121
    },
    {
      "midi": 50,
      "hit": false,
      "t": 8104.822499999997,
      "d": 64.51599999999962,
      "v": 121
    },
    {
      "midi": 62,
      "hit": false,
      "t": 8225.789999999995,
      "d": 64.51599999999962,
      "v": 121
    },
    {
      "midi": 66,
      "hit": false,
      "t": 8225.789999999995,
      "d": 64.51599999999962,
      "v": 121
    },
    {
      "midi": 69,
      "hit": false,
      "t": 8225.789999999995,
      "d": 64.51599999999962,
      "v": 121
    },
    {
      "midi": 50,
      "hit": false,
      "t": 8346.757499999994,
      "d": 64.51599999999962,
      "v": 121
    },
    {
      "midi": 52,
      "hit": false,
      "t": 8467.724999999993,
      "d": 360.88637500000004,
      "v": 121
    },
    {
      "midi": 52,
      "hit": false,
      "t": 8951.594999999994,
      "d": 64.51599999999962,
      "v": 121
    },
    {
      "midi": 52,
      "hit": false,
      "t": 9072.562499999993,
      "d": 64.51599999999962,
      "v": 121
    },
    {
      "midi": 64,
      "hit": false,
      "t": 9193.529999999992,
      "d": 64.51599999999962,
      "v": 121
    },
    {
      "midi": 69,
      "hit": false,
      "t": 9193.529999999992,
      "d": 64.51599999999962,
      "v": 121
    },
    {
      "midi": 71,
      "hit": false,
      "t": 9193.529999999992,
      "d": 64.51599999999962,
      "v": 121
    },
    {
      "midi": 52,
      "hit": false,
      "t": 9314.49749999999,
      "d": 68.54824999999983,
      "v": 121
    },
    {
      "midi": 52,
      "hit": false,
      "t": 9435.464999999991,
      "d": 68.54824999999983,
      "v": 121
    },
    {
      "midi": 52,
      "hit": false,
      "t": 9556.432499999992,
      "d": 68.54824999999983,
      "v": 121
    },
    {
      "midi": 49,
      "hit": false,
      "t": 9677.399999999992,
      "d": 118.95137500000055,
      "v": 121
    },
    {
      "midi": 61,
      "hit": false,
      "t": 9798.367499999993,
      "d": 64.51599999999962,
      "v": 121
    },
    {
      "midi": 66,
      "hit": false,
      "t": 9798.367499999993,
      "d": 64.51599999999962,
      "v": 121
    },
    {
      "midi": 68,
      "hit": false,
      "t": 9798.367499999993,
      "d": 64.51599999999962,
      "v": 121
    },
    {
      "midi": 49,
      "hit": false,
      "t": 9919.334999999992,
      "d": 118.95137500000055,
      "v": 121
    },
    {
      "midi": 49,
      "hit": false,
      "t": 10040.302499999993,
      "d": 360.88637500000004,
      "v": 121
    },
    {
      "midi": 61,
      "hit": false,
      "t": 10161.269999999993,
      "d": 64.51599999999962,
      "v": 121
    },
    {
      "midi": 64,
      "hit": false,
      "t": 10161.269999999993,
      "d": 64.51599999999962,
      "v": 121
    },
    {
      "midi": 68,
      "hit": false,
      "t": 10161.269999999993,
      "d": 64.51599999999962,
      "v": 121
    },
    {
      "midi": 50,
      "hit": false,
      "t": 10403.204999999993,
      "d": 360.88637500000004,
      "v": 121
    },
    {
      "midi": 62,
      "hit": false,
      "t": 10403.204999999993,
      "d": 790.3209999999981,
      "v": 121
    },
    {
      "midi": 66,
      "hit": false,
      "t": 10403.204999999993,
      "d": 790.3209999999981,
      "v": 121
    },
    {
      "midi": 69,
      "hit": false,
      "t": 10403.204999999993,
      "d": 790.3209999999981,
      "v": 121
    },
    {
      "midi": 50,
      "hit": false,
      "t": 10887.074999999993,
      "d": 64.51599999999962,
      "v": 121
    },
    {
      "midi": 50,
      "hit": false,
      "t": 11008.042499999992,
      "d": 64.51599999999962,
      "v": 121
    },
    {
      "midi": 50,
      "hit": false,
      "t": 11129.009999999991,
      "d": 64.51599999999962,
      "v": 121
    },
    {
      "midi": 50,
      "hit": false,
      "t": 11249.97749999999,
      "d": 68.54824999999983,
      "v": 121
    },
    {
      "midi": 50,
      "hit": false,
      "t": 11370.94499999999,
      "d": 68.54824999999983,
      "v": 121
    },
    {
      "midi": 50,
      "hit": false,
      "t": 11491.912499999991,
      "d": 68.54824999999983,
      "v": 121
    },
    {
      "midi": 50,
      "hit": false,
      "t": 11612.879999999992,
      "d": 360.88637500000004,
      "v": 121
    },
    {
      "midi": 66,
      "hit": false,
      "t": 11612.88,
      "d": 247.9833749999998,
      "v": 94
    },
    {
      "midi": 54,
      "hit": false,
      "t": 11854.814999999999,
      "d": 109.878812500001,
      "v": 96
    },
    {
      "midi": 50,
      "hit": false,
      "t": 11975.782499999992,
      "d": 64.51599999999962,
      "v": 121
    },
    {
      "midi": 64,
      "hit": false,
      "t": 11975.7825,
      "d": 101.8143125000006,
      "v": 96
    },
    {
      "midi": 62,
      "hit": false,
      "t": 12096.74999999999,
      "d": 64.51599999999962,
      "v": 121
    },
    {
      "midi": 66,
      "hit": false,
      "t": 12096.74999999999,
      "d": 64.51599999999962,
      "v": 121
    },
    {
      "midi": 69,
      "hit": false,
      "t": 12096.74999999999,
      "d": 64.51599999999962,
      "v": 121
    },
    {
      "midi": 50,
      "hit": false,
      "t": 12217.71749999999,
      "d": 64.51599999999962,
      "v": 121
    },
    {
      "midi": 52,
      "hit": false,
      "t": 12338.684999999989,
      "d": 360.88637500000004,
      "v": 121
    },
    {
      "midi": 52,
      "hit": false,
      "t": 12822.55499999999,
      "d": 64.51599999999962,
      "v": 121
    },
    {
      "midi": 52,
      "hit": false,
      "t": 12822.555,
      "d": 49.39506249999977,
      "v": 93
    },
    {
      "midi": 52,
      "hit": false,
      "t": 12943.522499999988,
      "d": 64.51599999999962,
      "v": 121
    },
    {
      "midi": 64,
      "hit": false,
      "t": 12943.522500000001,
      "d": 30.24187499999971,
      "v": 95
    },
    {
      "midi": 69,
      "hit": false,
      "t": 12943.522500000001,
      "d": 43.34668749999946,
      "v": 95
    },
    {
      "midi": 61,
      "hit": false,
      "t": 12943.522500000001,
      "d": 53.42731249999997,
      "v": 96
    },
    {
      "midi": 64,
      "hit": false,
      "t": 13064.489999999987,
      "d": 64.51599999999962,
      "v": 121
    },
    {
      "midi": 69,
      "hit": false,
      "t": 13064.489999999987,
      "d": 64.51599999999962,
      "v": 121
    },
    {
      "midi": 71,
      "hit": false,
      "t": 13064.489999999987,
      "d": 64.51599999999962,
      "v": 121
    },
    {
      "midi": 52,
      "hit": false,
      "t": 13185.457499999986,
      "d": 68.54824999999983,
      "v": 121
    },
    {
      "midi": 52,
      "hit": false,
      "t": 13185.4575,
      "d": 50.40312500000073,
      "v": 95
    },
    {
      "midi": 52,
      "hit": false,
      "t": 13306.424999999987,
      "d": 68.54824999999983,
      "v": 121
    },
    {
      "midi": 64,
      "hit": false,
      "t": 13306.425000000001,
      "d": 32.25799999999981,
      "v": 95
    },
    {
      "midi": 68,
      "hit": false,
      "t": 13306.425000000001,
      "d": 34.27412499999991,
      "v": 93
    },
    {
      "midi": 59,
      "hit": false,
      "t": 13306.425000000001,
      "d": 50.40312500000073,
      "v": 95
    },
    {
      "midi": 52,
      "hit": false,
      "t": 13427.392499999987,
      "d": 68.54824999999983,
      "v": 121
    },
    {
      "midi": 64,
      "hit": false,
      "t": 13427.392500000002,
      "d": 34.27412499999991,
      "v": 96
    },
    {
      "midi": 68,
      "hit": false,
      "t": 13427.392500000002,
      "d": 40.32250000000022,
      "v": 96
    },
    {
      "midi": 59,
      "hit": false,
      "t": 13427.392500000002,
      "d": 47.378937499999665,
      "v": 95
    },
    {
      "midi": 49,
      "hit": false,
      "t": 13548.359999999988,
      "d": 118.95137500000055,
      "v": 121
    },
    {
      "midi": 59,
      "hit": false,
      "t": 13790.29499999999,
      "d": 64.51599999999962,
      "v": 121
    },
    {
      "midi": 64,
      "hit": false,
      "t": 13790.29499999999,
      "d": 64.51599999999962,
      "v": 121
    },
    {
      "midi": 68,
      "hit": false,
      "t": 13790.29499999999,
      "d": 64.51599999999962,
      "v": 121
    },
    {
      "midi": 68,
      "hit": false,
      "t": 13790.295000000002,
      "d": 49.39506249999977,
      "v": 95
    },
    {
      "midi": 71,
      "hit": false,
      "t": 13790.295000000002,
      "d": 53.42731249999997,
      "v": 94
    },
    {
      "midi": 64,
      "hit": false,
      "t": 13790.295000000002,
      "d": 65.52406250000058,
      "v": 95
    },
    {
      "midi": 49,
      "hit": false,
      "t": 13911.262499999988,
      "d": 360.88637500000004,
      "v": 121
    },
    {
      "midi": 50,
      "hit": false,
      "t": 14274.164999999988,
      "d": 360.88637500000004,
      "v": 121
    },
    {
      "midi": 50,
      "hit": false,
      "t": 14758.034999999989,
      "d": 64.51599999999962,
      "v": 121
    },
    {
      "midi": 50,
      "hit": false,
      "t": 14879.002499999988,
      "d": 64.51599999999962,
      "v": 121
    },
    {
      "midi": 62,
      "hit": false,
      "t": 14999.969999999987,
      "d": 64.51599999999962,
      "v": 121
    },
    {
      "midi": 64,
      "hit": false,
      "t": 14999.969999999987,
      "d": 64.51599999999962,
      "v": 121
    },
    {
      "midi": 69,
      "hit": false,
      "t": 14999.969999999987,
      "d": 64.51599999999962,
      "v": 121
    },
    {
      "midi": 50,
      "hit": false,
      "t": 15120.937499999985,
      "d": 68.54824999999983,
      "v": 121
    },
    {
      "midi": 50,
      "hit": false,
      "t": 15241.904999999986,
      "d": 68.54824999999983,
      "v": 121
    },
    {
      "midi": 50,
      "hit": false,
      "t": 15362.872499999987,
      "d": 68.54824999999983,
      "v": 121
    },
    {
      "midi": 50,
      "hit": false,
      "t": 15483.839999999987,
      "d": 360.88637500000004,
      "v": 121
    },
    {
      "midi": 66,
      "hit": false,
      "t": 15483.840000000002,
      "d": 247.9833749999998,
      "v": 94
    },
    {
      "midi": 54,
      "hit": false,
      "t": 15725.775000000001,
      "d": 109.878812500001,
      "v": 96
    },
    {
      "midi": 50,
      "hit": false,
      "t": 15846.742499999988,
      "d": 64.51599999999962,
      "v": 121
    },
    {
      "midi": 64,
      "hit": false,
      "t": 15846.742500000002,
      "d": 101.8143125000006,
      "v": 96
    },
    {
      "midi": 62,
      "hit": false,
      "t": 15967.709999999986,
      "d": 64.51599999999962,
      "v": 121
    },
    {
      "midi": 66,
      "hit": false,
      "t": 15967.709999999986,
      "d": 64.51599999999962,
      "v": 121
    },
    {
      "midi": 69,
      "hit": false,
      "t": 15967.709999999986,
      "d": 64.51599999999962,
      "v": 121
    },
    {
      "midi": 50,
      "hit": false,
      "t": 16088.677499999985,
      "d": 64.51599999999962,
      "v": 121
    },
    {
      "midi": 52,
      "hit": false,
      "t": 16209.644999999984,
      "d": 360.88637500000004,
      "v": 121
    },
    {
      "midi": 52,
      "hit": false,
      "t": 16693.514999999985,
      "d": 64.51599999999962,
      "v": 121
    },
    {
      "midi": 52,
      "hit": false,
      "t": 16693.515000000003,
      "d": 49.39506249999977,
      "v": 93
    },
    {
      "midi": 52,
      "hit": false,
      "t": 16814.482499999984,
      "d": 64.51599999999962,
      "v": 121
    },
    {
      "midi": 64,
      "hit": false,
      "t": 16814.482500000002,
      "d": 30.24187499999971,
      "v": 95
    },
    {
      "midi": 69,
      "hit": false,
      "t": 16814.482500000002,
      "d": 43.34668750000128,
      "v": 95
    },
    {
      "midi": 61,
      "hit": false,
      "t": 16814.482500000002,
      "d": 53.42731249999997,
      "v": 96
    },
    {
      "midi": 64,
      "hit": false,
      "t": 16935.449999999983,
      "d": 64.51599999999962,
      "v": 121
    },
    {
      "midi": 69,
      "hit": false,
      "t": 16935.449999999983,
      "d": 64.51599999999962,
      "v": 121
    },
    {
      "midi": 71,
      "hit": false,
      "t": 16935.449999999983,
      "d": 64.51599999999962,
      "v": 121
    },
    {
      "midi": 52,
      "hit": false,
      "t": 17056.41749999998,
      "d": 68.54824999999983,
      "v": 121
    },
    {
      "midi": 52,
      "hit": false,
      "t": 17056.417500000003,
      "d": 50.40312500000073,
      "v": 95
    },
    {
      "midi": 52,
      "hit": false,
      "t": 17177.38499999998,
      "d": 68.54824999999983,
      "v": 121
    },
    {
      "midi": 64,
      "hit": false,
      "t": 17177.385000000006,
      "d": 32.25800000000163,
      "v": 95
    },
    {
      "midi": 68,
      "hit": false,
      "t": 17177.385000000006,
      "d": 34.27412499999991,
      "v": 93
    },
    {
      "midi": 59,
      "hit": false,
      "t": 17177.385000000006,
      "d": 50.40312500000073,
      "v": 95
    },
    {
      "midi": 52,
      "hit": false,
      "t": 17298.35249999998,
      "d": 68.54824999999983,
      "v": 121
    },
    {
      "midi": 64,
      "hit": false,
      "t": 17298.352500000008,
      "d": 34.27412499999991,
      "v": 96
    },
    {
      "midi": 68,
      "hit": false,
      "t": 17298.352500000008,
      "d": 40.3224999999984,
      "v": 96
    },
    {
      "midi": 59,
      "hit": false,
      "t": 17298.352500000008,
      "d": 47.378937499997846,
      "v": 95
    },
    {
      "midi": 49,
      "hit": false,
      "t": 17419.319999999978,
      "d": 118.95137500000055,
      "v": 121
    },
    {
      "midi": 61,
      "hit": false,
      "t": 17540.287499999977,
      "d": 64.51599999999962,
      "v": 121
    },
    {
      "midi": 66,
      "hit": false,
      "t": 17540.287499999977,
      "d": 64.51599999999962,
      "v": 121
    },
    {
      "midi": 68,
      "hit": false,
      "t": 17540.287499999977,
      "d": 64.51599999999962,
      "v": 121
    },
    {
      "midi": 66,
      "hit": false,
      "t": 17540.287500000006,
      "d": 49.39506249999977,
      "v": 94
    },
    {
      "midi": 69,
      "hit": false,
      "t": 17540.287500000006,
      "d": 67.54018749999886,
      "v": 95
    },
    {
      "midi": 61,
      "hit": false,
      "t": 17540.287500000006,
      "d": 77.62081249999756,
      "v": 94
    },
    {
      "midi": 49,
      "hit": false,
      "t": 17661.254999999976,
      "d": 118.95137500000055,
      "v": 121
    },
    {
      "midi": 49,
      "hit": false,
      "t": 17782.222499999974,
      "d": 118.95137500000055,
      "v": 121
    },
    {
      "midi": 68,
      "hit": false,
      "t": 17782.222500000003,
      "d": 63.50793749999866,
      "v": 95
    },
    {
      "midi": 64,
      "hit": false,
      "t": 17782.222500000003,
      "d": 67.54018749999886,
      "v": 95
    },
    {
      "midi": 59,
      "hit": false,
      "t": 17782.222500000003,
      "d": 73.58856249999735,
      "v": 95
    },
    {
      "midi": 61,
      "hit": false,
      "t": 17903.189999999973,
      "d": 64.51599999999962,
      "v": 121
    },
    {
      "midi": 64,
      "hit": false,
      "t": 17903.189999999973,
      "d": 64.51599999999962,
      "v": 121
    },
    {
      "midi": 68,
      "hit": false,
      "t": 17903.189999999973,
      "d": 64.51599999999962,
      "v": 121
    },
    {
      "midi": 50,
      "hit": false,
      "t": 18145.124999999975,
      "d": 360.8863749999982,
      "v": 121
    },
    {
      "midi": 62,
      "hit": false,
      "t": 18145.124999999975,
      "d": 790.3209999999963,
      "v": 121
    },
    {
      "midi": 66,
      "hit": false,
      "t": 18145.124999999975,
      "d": 790.3209999999963,
      "v": 121
    },
    {
      "midi": 69,
      "hit": false,
      "t": 18145.124999999975,
      "d": 790.3209999999963,
      "v": 121
    },
    {
      "midi": 61,
      "hit": false,
      "t": 18145.125,
      "d": 32.25800000000163,
      "v": 95
    },
    {
      "midi": 66,
      "hit": false,
      "t": 18145.125,
      "d": 36.29025000000183,
      "v": 93
    },
    {
      "midi": 57,
      "hit": false,
      "t": 18145.125,
      "d": 44.35475000000224,
      "v": 94
    },
    {
      "midi": 57,
      "hit": false,
      "t": 18266.092500000002,
      "d": 43.34668750000128,
      "v": 94
    },
    {
      "midi": 66,
      "hit": false,
      "t": 18266.092500000002,
      "d": 45.36281249999956,
      "v": 90
    },
    {
      "midi": 61,
      "hit": false,
      "t": 18266.092500000002,
      "d": 53.42731249999997,
      "v": 94
    },
    {
      "midi": 57,
      "hit": false,
      "t": 18387.06,
      "d": 49.39506249999977,
      "v": 95
    },
    {
      "midi": 61,
      "hit": false,
      "t": 18387.06,
      "d": 49.39506249999977,
      "v": 93
    },
    {
      "midi": 66,
      "hit": false,
      "t": 18387.06,
      "d": 77.6208125000012,
      "v": 91
    },
    {
      "midi": 66,
      "hit": false,
      "t": 18508.027500000004,
      "d": 42.33862500000032,
      "v": 92
    },
    {
      "midi": 61,
      "hit": false,
      "t": 18508.027500000004,
      "d": 49.39506249999977,
      "v": 96
    },
    {
      "midi": 57,
      "hit": false,
      "t": 18508.027500000004,
      "d": 71.57243749999907,
      "v": 94
    },
    {
      "midi": 50,
      "hit": false,
      "t": 18628.994999999974,
      "d": 64.51599999999962,
      "v": 121
    },
    {
      "midi": 50,
      "hit": false,
      "t": 18749.962499999972,
      "d": 64.51599999999962,
      "v": 121
    },
    {
      "midi": 64,
      "hit": false,
      "t": 18749.9625,
      "d": 73.58856250000099,
      "v": 95
    },
    {
      "midi": 56,
      "hit": false,
      "t": 18749.9625,
      "d": 83.66918749999968,
      "v": 96
    },
    {
      "midi": 59,
      "hit": false,
      "t": 18749.9625,
      "d": 87.70143749999988,
      "v": 97
    },
    {
      "midi": 50,
      "hit": false,
      "t": 18870.92999999997,
      "d": 64.51599999999962,
      "v": 121
    },
    {
      "midi": 50,
      "hit": false,
      "t": 18991.89749999997,
      "d": 68.54824999999983,
      "v": 121
    },
    {
      "midi": 50,
      "hit": false,
      "t": 19112.86499999997,
      "d": 68.54824999999983,
      "v": 121
    },
    {
      "midi": 50,
      "hit": false,
      "t": 19233.832499999968,
      "d": 68.54824999999983,
      "v": 121
    },
    {
      "midi": 50,
      "hit": false,
      "t": 19354.800000000003,
      "d": 294.3542500000003,
      "v": 99
    },
    {
      "midi": 69,
      "hit": false,
      "t": 19717.702500000003,
      "d": 49.39506249999977,
      "v": 96
    },
    {
      "midi": 66,
      "hit": false,
      "t": 19717.702500000003,
      "d": 63.50793749999866,
      "v": 81
    },
    {
      "midi": 62,
      "hit": false,
      "t": 19717.702500000003,
      "d": 79.63693749999948,
      "v": 81
    },
    {
      "midi": 50,
      "hit": false,
      "t": 19838.670000000002,
      "d": 29.23381249999875,
      "v": 69
    },
    {
      "midi": 64,
      "hit": false,
      "t": 20080.605,
      "d": 397.17662500000006,
      "v": 99
    },
    {
      "midi": 69,
      "hit": false,
      "t": 20080.605,
      "d": 450.60393750000003,
      "v": 108
    },
    {
      "midi": 71,
      "hit": false,
      "t": 20080.605,
      "d": 450.60393750000003,
      "v": 105
    },
    {
      "midi": 64,
      "hit": false,
      "t": 20564.475,
      "d": 89.7175625000018,
      "v": 77
    },
    {
      "midi": 69,
      "hit": false,
      "t": 20564.475,
      "d": 89.7175625000018,
      "v": 77
    },
    {
      "midi": 71,
      "hit": false,
      "t": 20564.475,
      "d": 89.7175625000018,
      "v": 77
    },
    {
      "midi": 49,
      "hit": false,
      "t": 21290.28,
      "d": 295.36231249999764,
      "v": 102
    },
    {
      "midi": 61,
      "hit": false,
      "t": 21653.1825,
      "d": 37.298312499999156,
      "v": 84
    },
    {
      "midi": 64,
      "hit": false,
      "t": 21653.1825,
      "d": 41.33056249999936,
      "v": 93
    },
    {
      "midi": 49,
      "hit": false,
      "t": 21774.149999999998,
      "d": 53.42731249999997,
      "v": 96
    },
    {
      "midi": 62,
      "hit": false,
      "t": 22016.084999999995,
      "d": 395.1605000000018,
      "v": 102
    },
    {
      "midi": 64,
      "hit": false,
      "t": 22016.084999999995,
      "d": 417.3378750000011,
      "v": 105
    },
    {
      "midi": 69,
      "hit": false,
      "t": 22016.084999999995,
      "d": 431.45074999999997,
      "v": 99
    },
    {
      "midi": 50,
      "hit": false,
      "t": 22016.084999999995,
      "d": 727.8211249999986,
      "v": 108
    },
    {
      "midi": 62,
      "hit": false,
      "t": 22499.954999999994,
      "d": 53.42731249999997,
      "v": 85
    },
    {
      "midi": 64,
      "hit": false,
      "t": 22499.954999999994,
      "d": 53.42731249999997,
      "v": 85
    },
    {
      "midi": 69,
      "hit": false,
      "t": 22499.954999999994,
      "d": 53.42731249999997,
      "v": 85
    },
    {
      "midi": 50,
      "hit": false,
      "t": 23225.759999999995,
      "d": 294.3542500000003,
      "v": 99
    },
    {
      "midi": 69,
      "hit": false,
      "t": 23588.662499999995,
      "d": 49.39506249999977,
      "v": 96
    },
    {
      "midi": 66,
      "hit": false,
      "t": 23588.662499999995,
      "d": 63.50793749999866,
      "v": 81
    },
    {
      "midi": 62,
      "hit": false,
      "t": 23588.662499999995,
      "d": 79.63693749999948,
      "v": 81
    },
    {
      "midi": 50,
      "hit": false,
      "t": 23709.629999999994,
      "d": 29.23381249999875,
      "v": 69
    },
    {
      "midi": 64,
      "hit": false,
      "t": 23951.564999999995,
      "d": 397.1766249999964,
      "v": 99
    },
    {
      "midi": 69,
      "hit": false,
      "t": 23951.564999999995,
      "d": 450.6039374999964,
      "v": 108
    },
    {
      "midi": 71,
      "hit": false,
      "t": 23951.564999999995,
      "d": 450.6039374999964,
      "v": 105
    },
    {
      "midi": 64,
      "hit": false,
      "t": 24435.43499999999,
      "d": 89.71756249999817,
      "v": 77
    },
    {
      "midi": 69,
      "hit": false,
      "t": 24435.43499999999,
      "d": 89.71756249999817,
      "v": 77
    },
    {
      "midi": 71,
      "hit": false,
      "t": 24435.43499999999,
      "d": 89.71756249999817,
      "v": 77
    },
    {
      "midi": 49,
      "hit": false,
      "t": 25161.239999999987,
      "d": 295.3623125000013,
      "v": 102
    },
    {
      "midi": 61,
      "hit": false,
      "t": 25524.142499999987,
      "d": 37.298312499999156,
      "v": 84
    },
    {
      "midi": 64,
      "hit": false,
      "t": 25524.142499999987,
      "d": 41.33056249999936,
      "v": 93
    },
    {
      "midi": 49,
      "hit": false,
      "t": 25645.109999999986,
      "d": 53.42731249999997,
      "v": 96
    },
    {
      "midi": 62,
      "hit": false,
      "t": 25887.044999999987,
      "d": 395.16049999999814,
      "v": 102
    },
    {
      "midi": 64,
      "hit": false,
      "t": 25887.044999999987,
      "d": 417.33787499999744,
      "v": 105
    },
    {
      "midi": 69,
      "hit": false,
      "t": 25887.044999999987,
      "d": 431.45074999999633,
      "v": 99
    },
    {
      "midi": 50,
      "hit": false,
      "t": 25887.044999999987,
      "d": 727.8211249999986,
      "v": 108
    },
    {
      "midi": 62,
      "hit": false,
      "t": 26370.914999999986,
      "d": 53.42731249999997,
      "v": 85
    },
    {
      "midi": 64,
      "hit": false,
      "t": 26370.914999999986,
      "d": 53.42731249999997,
      "v": 85
    },
    {
      "midi": 69,
      "hit": false,
      "t": 26370.914999999986,
      "d": 53.42731249999997,
      "v": 85
    },
    {
      "midi": 50,
      "hit": false,
      "t": 27096.719999999983,
      "d": 294.3542500000003,
      "v": 119
    },
    {
      "midi": 69,
      "hit": false,
      "t": 27459.622499999983,
      "d": 49.39506249999977,
      "v": 116
    },
    {
      "midi": 66,
      "hit": false,
      "t": 27459.622499999983,
      "d": 63.50793749999866,
      "v": 101
    },
    {
      "midi": 62,
      "hit": false,
      "t": 27459.622499999983,
      "d": 79.63693749999948,
      "v": 101
    },
    {
      "midi": 50,
      "hit": false,
      "t": 27580.589999999982,
      "d": 29.233812500002387,
      "v": 89
    },
    {
      "midi": 64,
      "hit": false,
      "t": 27822.524999999983,
      "d": 397.17662500000006,
      "v": 119
    },
    {
      "midi": 69,
      "hit": false,
      "t": 27822.524999999983,
      "d": 450.60393750000003,
      "v": 127
    },
    {
      "midi": 71,
      "hit": false,
      "t": 27822.524999999983,
      "d": 450.60393750000003,
      "v": 125
    },
    {
      "midi": 64,
      "hit": false,
      "t": 28306.394999999982,
      "d": 89.71756249999817,
      "v": 97
    },
    {
      "midi": 69,
      "hit": false,
      "t": 28306.394999999982,
      "d": 89.71756249999817,
      "v": 97
    },
    {
      "midi": 71,
      "hit": false,
      "t": 28306.394999999982,
      "d": 89.71756249999817,
      "v": 97
    },
    {
      "midi": 49,
      "hit": false,
      "t": 29032.19999999998,
      "d": 295.3623125000013,
      "v": 122
    },
    {
      "midi": 61,
      "hit": false,
      "t": 29395.10249999998,
      "d": 37.298312499999156,
      "v": 104
    },
    {
      "midi": 64,
      "hit": false,
      "t": 29395.10249999998,
      "d": 41.33056249999936,
      "v": 113
    },
    {
      "midi": 49,
      "hit": false,
      "t": 29516.069999999978,
      "d": 53.42731249999997,
      "v": 116
    },
    {
      "midi": 62,
      "hit": false,
      "t": 29758.00499999998,
      "d": 395.16049999999814,
      "v": 122
    },
    {
      "midi": 64,
      "hit": false,
      "t": 29758.00499999998,
      "d": 417.33787499999744,
      "v": 125
    },
    {
      "midi": 69,
      "hit": false,
      "t": 29758.00499999998,
      "d": 431.45074999999633,
      "v": 119
    },
    {
      "midi": 50,
      "hit": false,
      "t": 29758.00499999998,
      "d": 727.8211249999949,
      "v": 127
    },
    {
      "midi": 62,
      "hit": false,
      "t": 30241.874999999975,
      "d": 53.42731249999997,
      "v": 105
    },
    {
      "midi": 64,
      "hit": false,
      "t": 30241.874999999975,
      "d": 53.42731249999997,
      "v": 105
    },
    {
      "midi": 69,
      "hit": false,
      "t": 30241.874999999975,
      "d": 53.42731249999997,
      "v": 105
    },
    {
      "midi": 50,
      "hit": false,
      "t": 30967.679999999975,
      "d": 294.3542499999967,
      "v": 119
    },
    {
      "midi": 69,
      "hit": false,
      "t": 31330.58249999997,
      "d": 49.39506249999977,
      "v": 116
    },
    {
      "midi": 66,
      "hit": false,
      "t": 31330.58249999997,
      "d": 63.50793749999866,
      "v": 101
    },
    {
      "midi": 62,
      "hit": false,
      "t": 31330.58249999997,
      "d": 79.63693749999948,
      "v": 101
    },
    {
      "midi": 50,
      "hit": false,
      "t": 31451.54999999997,
      "d": 29.23381249999875,
      "v": 89
    },
    {
      "midi": 64,
      "hit": false,
      "t": 31693.484999999968,
      "d": 397.17662500000006,
      "v": 119
    },
    {
      "midi": 69,
      "hit": false,
      "t": 31693.484999999968,
      "d": 450.60393750000003,
      "v": 127
    },
    {
      "midi": 71,
      "hit": false,
      "t": 31693.484999999968,
      "d": 450.60393750000003,
      "v": 125
    },
    {
      "midi": 64,
      "hit": false,
      "t": 32177.354999999967,
      "d": 89.7175625000018,
      "v": 97
    },
    {
      "midi": 69,
      "hit": false,
      "t": 32177.354999999967,
      "d": 89.7175625000018,
      "v": 97
    },
    {
      "midi": 71,
      "hit": false,
      "t": 32177.354999999967,
      "d": 89.7175625000018,
      "v": 97
    },
    {
      "midi": 49,
      "hit": false,
      "t": 32903.15999999997,
      "d": 295.3623125000013,
      "v": 122
    },
    {
      "midi": 61,
      "hit": false,
      "t": 33266.06249999996,
      "d": 37.298312500002794,
      "v": 104
    },
    {
      "midi": 64,
      "hit": false,
      "t": 33266.06249999996,
      "d": 41.33056249999936,
      "v": 113
    },
    {
      "midi": 49,
      "hit": false,
      "t": 33387.02999999996,
      "d": 53.42731250000361,
      "v": 116
    },
    {
      "midi": 62,
      "hit": false,
      "t": 33628.96499999997,
      "d": 395.16049999999814,
      "v": 122
    },
    {
      "midi": 64,
      "hit": false,
      "t": 33628.96499999997,
      "d": 417.33787499999744,
      "v": 125
    },
    {
      "midi": 69,
      "hit": false,
      "t": 33628.96499999997,
      "d": 431.45074999999633,
      "v": 119
    },
    {
      "midi": 50,
      "hit": false,
      "t": 33628.96499999997,
      "d": 727.8211249999949,
      "v": 127
    },
    {
      "midi": 62,
      "hit": false,
      "t": 34112.83499999996,
      "d": 53.42731250000361,
      "v": 105
    },
    {
      "midi": 64,
      "hit": false,
      "t": 34112.83499999996,
      "d": 53.42731250000361,
      "v": 105
    },
    {
      "midi": 69,
      "hit": false,
      "t": 34112.83499999996,
      "d": 53.42731250000361,
      "v": 105
    },
    {
      "midi": 50,
      "hit": false,
      "t": 34838.63999999996,
      "d": 294.3542499999967,
      "v": 109
    },
    {
      "midi": 66,
      "hit": false,
      "t": 34838.64,
      "d": 481.8538750000007,
      "v": 1
    },
    {
      "midi": 69,
      "hit": false,
      "t": 34838.64,
      "d": 481.8538750000007,
      "v": 1
    },
    {
      "midi": 69,
      "hit": false,
      "t": 35201.54249999996,
      "d": 49.39506249999977,
      "v": 106
    },
    {
      "midi": 66,
      "hit": false,
      "t": 35201.54249999996,
      "d": 63.50793749999866,
      "v": 91
    },
    {
      "midi": 62,
      "hit": false,
      "t": 35201.54249999996,
      "d": 79.63693749999948,
      "v": 91
    },
    {
      "midi": 50,
      "hit": false,
      "t": 35322.50999999996,
      "d": 29.233812500002387,
      "v": 79
    },
    {
      "midi": 61,
      "hit": false,
      "t": 35322.51,
      "d": 239.91887500000303,
      "v": 1
    },
    {
      "midi": 66,
      "hit": false,
      "t": 35322.51,
      "d": 239.91887500000303,
      "v": 1
    },
    {
      "midi": 64,
      "hit": false,
      "t": 35564.44499999996,
      "d": 397.17662500000006,
      "v": 109
    },
    {
      "midi": 69,
      "hit": false,
      "t": 35564.44499999996,
      "d": 450.60393750000367,
      "v": 118
    },
    {
      "midi": 71,
      "hit": false,
      "t": 35564.44499999996,
      "d": 450.60393750000367,
      "v": 115
    },
    {
      "midi": 68,
      "hit": false,
      "t": 35564.44500000001,
      "d": 823.5870625000025,
      "v": 1
    },
    {
      "midi": 64,
      "hit": false,
      "t": 35564.44500000001,
      "d": 837.6999375000014,
      "v": 1
    },
    {
      "midi": 64,
      "hit": false,
      "t": 36048.314999999966,
      "d": 89.7175625000018,
      "v": 87
    },
    {
      "midi": 69,
      "hit": false,
      "t": 36048.314999999966,
      "d": 89.7175625000018,
      "v": 87
    },
    {
      "midi": 71,
      "hit": false,
      "t": 36048.314999999966,
      "d": 89.7175625000018,
      "v": 87
    },
    {
      "midi": 49,
      "hit": false,
      "t": 36774.119999999966,
      "d": 295.3623125000013,
      "v": 112
    },
    {
      "midi": 61,
      "hit": false,
      "t": 37137.02249999997,
      "d": 37.298312500002794,
      "v": 94
    },
    {
      "midi": 64,
      "hit": false,
      "t": 37137.02249999997,
      "d": 41.33056249999936,
      "v": 103
    },
    {
      "midi": 49,
      "hit": false,
      "t": 37257.98999999997,
      "d": 53.42731250000361,
      "v": 106
    },
    {
      "midi": 62,
      "hit": false,
      "t": 37499.924999999974,
      "d": 395.16049999999814,
      "v": 112
    },
    {
      "midi": 64,
      "hit": false,
      "t": 37499.924999999974,
      "d": 417.33787499999744,
      "v": 115
    },
    {
      "midi": 69,
      "hit": false,
      "t": 37499.924999999974,
      "d": 431.45074999999633,
      "v": 109
    },
    {
      "midi": 50,
      "hit": false,
      "t": 37499.924999999974,
      "d": 727.8211250000022,
      "v": 118
    },
    {
      "midi": 62,
      "hit": false,
      "t": 37983.79499999997,
      "d": 53.42731250000361,
      "v": 95
    },
    {
      "midi": 64,
      "hit": false,
      "t": 37983.79499999997,
      "d": 53.42731250000361,
      "v": 95
    },
    {
      "midi": 69,
      "hit": false,
      "t": 37983.79499999997,
      "d": 53.42731250000361,
      "v": 95
    },
    {
      "midi": 50,
      "hit": false,
      "t": 38709.59999999998,
      "d": 294.3542499999967,
      "v": 109
    },
    {
      "midi": 66,
      "hit": false,
      "t": 38709.600000000006,
      "d": 723.7888749999984,
      "v": 1
    },
    {
      "midi": 69,
      "hit": false,
      "t": 38709.600000000006,
      "d": 723.7888749999984,
      "v": 1
    },
    {
      "midi": 73,
      "hit": false,
      "t": 38709.600000000006,
      "d": 723.7888749999984,
      "v": 1
    },
    {
      "midi": 69,
      "hit": false,
      "t": 39072.50249999997,
      "d": 49.39506249999977,
      "v": 106
    },
    {
      "midi": 66,
      "hit": false,
      "t": 39072.50249999997,
      "d": 63.50793749999866,
      "v": 91
    },
    {
      "midi": 62,
      "hit": false,
      "t": 39072.50249999997,
      "d": 79.63693749999948,
      "v": 91
    },
    {
      "midi": 50,
      "hit": false,
      "t": 39193.46999999997,
      "d": 29.233812500002387,
      "v": 79
    },
    {
      "midi": 64,
      "hit": false,
      "t": 39435.40499999998,
      "d": 397.17662500000006,
      "v": 109
    },
    {
      "midi": 69,
      "hit": false,
      "t": 39435.40499999998,
      "d": 450.60393750000367,
      "v": 118
    },
    {
      "midi": 71,
      "hit": false,
      "t": 39435.40499999998,
      "d": 450.60393750000367,
      "v": 115
    },
    {
      "midi": 68,
      "hit": false,
      "t": 39435.405000000006,
      "d": 823.5870625000025,
      "v": 1
    },
    {
      "midi": 71,
      "hit": false,
      "t": 39435.405000000006,
      "d": 823.5870625000025,
      "v": 1
    },
    {
      "midi": 64,
      "hit": false,
      "t": 39435.405000000006,
      "d": 837.6999375000014,
      "v": 1
    },
    {
      "midi": 64,
      "hit": false,
      "t": 39919.27499999998,
      "d": 89.7175625000018,
      "v": 87
    },
    {
      "midi": 69,
      "hit": false,
      "t": 39919.27499999998,
      "d": 89.7175625000018,
      "v": 87
    },
    {
      "midi": 71,
      "hit": false,
      "t": 39919.27499999998,
      "d": 89.7175625000018,
      "v": 87
    },
    {
      "midi": 49,
      "hit": false,
      "t": 40645.07999999998,
      "d": 295.3623125000013,
      "v": 112
    },
    {
      "midi": 61,
      "hit": false,
      "t": 41007.982499999984,
      "d": 37.298312500002794,
      "v": 94
    },
    {
      "midi": 64,
      "hit": false,
      "t": 41007.982499999984,
      "d": 41.33056249999936,
      "v": 103
    },
    {
      "midi": 49,
      "hit": false,
      "t": 41128.94999999998,
      "d": 53.42731250000361,
      "v": 106
    },
    {
      "midi": 62,
      "hit": false,
      "t": 41370.88499999999,
      "d": 395.16049999999814,
      "v": 112
    },
    {
      "midi": 64,
      "hit": false,
      "t": 41370.88499999999,
      "d": 417.33787499999744,
      "v": 115
    },
    {
      "midi": 69,
      "hit": false,
      "t": 41370.88499999999,
      "d": 431.45074999999633,
      "v": 109
    },
    {
      "midi": 50,
      "hit": false,
      "t": 41370.88499999999,
      "d": 727.8211250000022,
      "v": 118
    },
    {
      "midi": 62,
      "hit": false,
      "t": 41854.75499999998,
      "d": 53.42731250000361,
      "v": 95
    },
    {
      "midi": 64,
      "hit": false,
      "t": 41854.75499999998,
      "d": 53.42731250000361,
      "v": 95
    },
    {
      "midi": 69,
      "hit": false,
      "t": 41854.75499999998,
      "d": 53.42731250000361,
      "v": 95
    },
    {
      "midi": 50,
      "hit": false,
      "t": 42580.55999999999,
      "d": 294.3542499999967,
      "v": 109
    },
    {
      "midi": 66,
      "hit": false,
      "t": 42580.560000000005,
      "d": 481.8538750000007,
      "v": 1
    },
    {
      "midi": 69,
      "hit": false,
      "t": 42580.560000000005,
      "d": 481.8538750000007,
      "v": 1
    },
    {
      "midi": 69,
      "hit": false,
      "t": 42943.46249999999,
      "d": 49.39506249999977,
      "v": 106
    },
    {
      "midi": 66,
      "hit": false,
      "t": 42943.46249999999,
      "d": 63.50793749999866,
      "v": 91
    },
    {
      "midi": 62,
      "hit": false,
      "t": 42943.46249999999,
      "d": 79.63693749999948,
      "v": 91
    },
    {
      "midi": 50,
      "hit": false,
      "t": 43064.429999999986,
      "d": 29.233812500002387,
      "v": 79
    },
    {
      "midi": 61,
      "hit": false,
      "t": 43064.43000000001,
      "d": 239.91887500000303,
      "v": 1
    },
    {
      "midi": 66,
      "hit": false,
      "t": 43064.43000000001,
      "d": 239.91887500000303,
      "v": 1
    },
    {
      "midi": 64,
      "hit": false,
      "t": 43306.36499999999,
      "d": 397.17662500000006,
      "v": 109
    },
    {
      "midi": 69,
      "hit": false,
      "t": 43306.36499999999,
      "d": 450.60393750000367,
      "v": 118
    },
    {
      "midi": 71,
      "hit": false,
      "t": 43306.36499999999,
      "d": 450.60393750000367,
      "v": 115
    },
    {
      "midi": 68,
      "hit": false,
      "t": 43306.36500000001,
      "d": 823.5870625000025,
      "v": 1
    },
    {
      "midi": 64,
      "hit": false,
      "t": 43306.36500000001,
      "d": 837.6999375000014,
      "v": 1
    },
    {
      "midi": 64,
      "hit": false,
      "t": 43790.23499999999,
      "d": 89.7175625000018,
      "v": 87
    },
    {
      "midi": 69,
      "hit": false,
      "t": 43790.23499999999,
      "d": 89.7175625000018,
      "v": 87
    },
    {
      "midi": 71,
      "hit": false,
      "t": 43790.23499999999,
      "d": 89.7175625000018,
      "v": 87
    },
    {
      "midi": 49,
      "hit": false,
      "t": 44516.03999999999,
      "d": 295.3623125000013,
      "v": 112
    },
    {
      "midi": 61,
      "hit": false,
      "t": 44878.9425,
      "d": 37.298312500002794,
      "v": 94
    },
    {
      "midi": 64,
      "hit": false,
      "t": 44878.9425,
      "d": 41.33056249999936,
      "v": 103
    },
    {
      "midi": 49,
      "hit": false,
      "t": 44999.909999999996,
      "d": 53.42731250000361,
      "v": 106
    },
    {
      "midi": 62,
      "hit": false,
      "t": 45241.845,
      "d": 395.16049999999814,
      "v": 112
    },
    {
      "midi": 64,
      "hit": false,
      "t": 45241.845,
      "d": 417.33787499999744,
      "v": 115
    },
    {
      "midi": 69,
      "hit": false,
      "t": 45241.845,
      "d": 431.45074999999633,
      "v": 109
    },
    {
      "midi": 50,
      "hit": false,
      "t": 45241.845,
      "d": 727.8211250000022,
      "v": 118
    },
    {
      "midi": 62,
      "hit": false,
      "t": 45725.715,
      "d": 53.42731250000361,
      "v": 95
    },
    {
      "midi": 64,
      "hit": false,
      "t": 45725.715,
      "d": 53.42731250000361,
      "v": 95
    },
    {
      "midi": 69,
      "hit": false,
      "t": 45725.715,
      "d": 53.42731250000361,
      "v": 95
    },
    {
      "midi": 50,
      "hit": false,
      "t": 46451.520000000004,
      "d": 294.3542499999967,
      "v": 109
    },
    {
      "midi": 66,
      "hit": false,
      "t": 46451.52000000001,
      "d": 723.7888749999984,
      "v": 1
    },
    {
      "midi": 69,
      "hit": false,
      "t": 46451.52000000001,
      "d": 723.7888749999984,
      "v": 1
    },
    {
      "midi": 73,
      "hit": false,
      "t": 46451.52000000001,
      "d": 723.7888749999984,
      "v": 1
    },
    {
      "midi": 69,
      "hit": false,
      "t": 46814.4225,
      "d": 49.39506249999977,
      "v": 106
    },
    {
      "midi": 66,
      "hit": false,
      "t": 46814.4225,
      "d": 63.50793749999866,
      "v": 91
    },
    {
      "midi": 62,
      "hit": false,
      "t": 46814.4225,
      "d": 79.63693749999948,
      "v": 91
    },
    {
      "midi": 50,
      "hit": false,
      "t": 46935.39,
      "d": 29.233812500002387,
      "v": 79
    },
    {
      "midi": 64,
      "hit": false,
      "t": 47177.325000000004,
      "d": 397.17662500000006,
      "v": 109
    },
    {
      "midi": 69,
      "hit": false,
      "t": 47177.325000000004,
      "d": 450.60393750000367,
      "v": 118
    },
    {
      "midi": 71,
      "hit": false,
      "t": 47177.325000000004,
      "d": 450.60393750000367,
      "v": 115
    },
    {
      "midi": 68,
      "hit": false,
      "t": 47177.32500000001,
      "d": 823.5870625000025,
      "v": 1
    },
    {
      "midi": 71,
      "hit": false,
      "t": 47177.32500000001,
      "d": 823.5870625000025,
      "v": 1
    },
    {
      "midi": 64,
      "hit": false,
      "t": 47177.32500000001,
      "d": 837.6999375000014,
      "v": 1
    },
    {
      "midi": 64,
      "hit": false,
      "t": 47661.19500000001,
      "d": 89.7175625000018,
      "v": 87
    },
    {
      "midi": 69,
      "hit": false,
      "t": 47661.19500000001,
      "d": 89.7175625000018,
      "v": 87
    },
    {
      "midi": 71,
      "hit": false,
      "t": 47661.19500000001,
      "d": 89.7175625000018,
      "v": 87
    },
    {
      "midi": 50,
      "hit": false,
      "t": 48386.99999999997,
      "d": 1259.0700625000027,
      "v": 120
    },
    {
      "midi": 71,
      "hit": false,
      "t": 48387.00000000001,
      "d": 321.57193749999715,
      "v": 97
    },
    {
      "midi": 68,
      "hit": false,
      "t": 48387.00000000001,
      "d": 337.70093749999796,
      "v": 109
    },
    {
      "midi": 53,
      "hit": false,
      "t": 48870.86999999997,
      "d": 1259.0700624999954,
      "v": 120
    },
    {
      "midi": 68,
      "hit": false,
      "t": 48870.87,
      "d": 379.0314999999973,
      "v": 100
    },
    {
      "midi": 74,
      "hit": false,
      "t": 48870.87,
      "d": 384.0718124999985,
      "v": 109
    },
    {
      "midi": 71,
      "hit": false,
      "t": 48870.87,
      "d": 393.1443749999962,
      "v": 94
    },
    {
      "midi": 56,
      "hit": false,
      "t": 49354.739999999976,
      "d": 794.3532499999928,
      "v": 114
    },
    {
      "midi": 68,
      "hit": false,
      "t": 49354.74,
      "d": 418.34593750000204,
      "v": 115
    },
    {
      "midi": 71,
      "hit": false,
      "t": 49354.74,
      "d": 427.41849999999977,
      "v": 112
    },
    {
      "midi": 74,
      "hit": false,
      "t": 49354.74,
      "d": 451.612000000001,
      "v": 106
    },
    {
      "midi": 59,
      "hit": false,
      "t": 49838.60999999997,
      "d": 408.2653124999997,
      "v": 117
    },
    {
      "midi": 77,
      "hit": false,
      "t": 49838.61,
      "d": 245.9672500000015,
      "v": 112
    },
    {
      "midi": 68,
      "hit": false,
      "t": 49838.61,
      "d": 278.22525000000314,
      "v": 109
    },
    {
      "midi": 71,
      "hit": false,
      "t": 49838.61,
      "d": 292.33812500000204,
      "v": 97
    },
    {
      "midi": 74,
      "hit": false,
      "t": 49838.61,
      "d": 320.5638749999998,
      "v": 97
    },
    {
      "midi": 50,
      "hit": false,
      "t": 50322.479999999974,
      "d": 360.88637500000186,
      "v": 121
    },
    {
      "midi": 66,
      "hit": false,
      "t": 50322.479999999996,
      "d": 247.98337499999616,
      "v": 94
    },
    {
      "midi": 57,
      "hit": false,
      "t": 50322.48000000001,
      "d": 1556.4484999999986,
      "v": 1
    },
    {
      "midi": 69,
      "hit": false,
      "t": 50322.48000000001,
      "d": 1556.4484999999986,
      "v": 1
    },
    {
      "midi": 54,
      "hit": false,
      "t": 50564.41499999999,
      "d": 109.87881249999919,
      "v": 96
    },
    {
      "midi": 50,
      "hit": false,
      "t": 50685.38249999998,
      "d": 64.51600000000326,
      "v": 121
    },
    {
      "midi": 64,
      "hit": false,
      "t": 50685.38249999999,
      "d": 101.81431249999878,
      "v": 96
    },
    {
      "midi": 62,
      "hit": false,
      "t": 50806.349999999984,
      "d": 64.51600000000326,
      "v": 121
    },
    {
      "midi": 66,
      "hit": false,
      "t": 50806.349999999984,
      "d": 64.51600000000326,
      "v": 121
    },
    {
      "midi": 69,
      "hit": false,
      "t": 50806.349999999984,
      "d": 64.51600000000326,
      "v": 121
    },
    {
      "midi": 50,
      "hit": false,
      "t": 50927.31749999999,
      "d": 64.51600000000326,
      "v": 121
    },
    {
      "midi": 52,
      "hit": false,
      "t": 51048.284999999996,
      "d": 360.88637500000186,
      "v": 121
    },
    {
      "midi": 52,
      "hit": false,
      "t": 51532.15499999999,
      "d": 49.39506249999977,
      "v": 93
    },
    {
      "midi": 52,
      "hit": false,
      "t": 51532.155,
      "d": 64.51600000000326,
      "v": 121
    },
    {
      "midi": 64,
      "hit": false,
      "t": 51653.12249999999,
      "d": 30.24187499999971,
      "v": 95
    },
    {
      "midi": 69,
      "hit": false,
      "t": 51653.12249999999,
      "d": 43.34668750000128,
      "v": 95
    },
    {
      "midi": 61,
      "hit": false,
      "t": 51653.12249999999,
      "d": 53.42731250000361,
      "v": 96
    },
    {
      "midi": 52,
      "hit": false,
      "t": 51653.122500000005,
      "d": 64.51600000000326,
      "v": 121
    },
    {
      "midi": 64,
      "hit": false,
      "t": 51774.09000000001,
      "d": 64.51600000000326,
      "v": 121
    },
    {
      "midi": 69,
      "hit": false,
      "t": 51774.09000000001,
      "d": 64.51600000000326,
      "v": 121
    },
    {
      "midi": 71,
      "hit": false,
      "t": 51774.09000000001,
      "d": 64.51600000000326,
      "v": 121
    },
    {
      "midi": 52,
      "hit": false,
      "t": 51895.057499999995,
      "d": 50.40312499999709,
      "v": 95
    },
    {
      "midi": 52,
      "hit": false,
      "t": 51895.05750000002,
      "d": 68.54824999999983,
      "v": 121
    },
    {
      "midi": 64,
      "hit": false,
      "t": 52016.024999999994,
      "d": 32.25800000000163,
      "v": 95
    },
    {
      "midi": 68,
      "hit": false,
      "t": 52016.024999999994,
      "d": 34.27412500000355,
      "v": 93
    },
    {
      "midi": 59,
      "hit": false,
      "t": 52016.024999999994,
      "d": 50.403125000004366,
      "v": 95
    },
    {
      "midi": 52,
      "hit": false,
      "t": 52016.025000000016,
      "d": 68.54824999999983,
      "v": 121
    },
    {
      "midi": 64,
      "hit": false,
      "t": 52136.9925,
      "d": 34.27412500000355,
      "v": 96
    },
    {
      "midi": 68,
      "hit": false,
      "t": 52136.9925,
      "d": 40.32250000000204,
      "v": 96
    },
    {
      "midi": 59,
      "hit": false,
      "t": 52136.9925,
      "d": 47.37893750000512,
      "v": 95
    },
    {
      "midi": 52,
      "hit": false,
      "t": 52136.992500000015,
      "d": 68.54824999999983,
      "v": 121
    },
    {
      "midi": 49,
      "hit": false,
      "t": 52257.960000000014,
      "d": 118.95137499999691,
      "v": 121
    },
    {
      "midi": 68,
      "hit": false,
      "t": 52499.895000000004,
      "d": 49.39506249999977,
      "v": 95
    },
    {
      "midi": 71,
      "hit": false,
      "t": 52499.895000000004,
      "d": 53.42731249999633,
      "v": 94
    },
    {
      "midi": 64,
      "hit": false,
      "t": 52499.895000000004,
      "d": 65.5240624999933,
      "v": 95
    },
    {
      "midi": 59,
      "hit": false,
      "t": 52499.89500000001,
      "d": 64.51600000000326,
      "v": 121
    },
    {
      "midi": 64,
      "hit": false,
      "t": 52499.89500000001,
      "d": 64.51600000000326,
      "v": 121
    },
    {
      "midi": 68,
      "hit": false,
      "t": 52499.89500000001,
      "d": 64.51600000000326,
      "v": 121
    },
    {
      "midi": 49,
      "hit": false,
      "t": 52620.86250000002,
      "d": 360.88637500000186,
      "v": 121
    },
    {
      "midi": 50,
      "hit": false,
      "t": 52983.76500000002,
      "d": 360.88637500000186,
      "v": 121
    },
    {
      "midi": 50,
      "hit": false,
      "t": 53467.635000000024,
      "d": 64.51600000000326,
      "v": 121
    },
    {
      "midi": 50,
      "hit": false,
      "t": 53588.60250000003,
      "d": 64.51600000000326,
      "v": 121
    },
    {
      "midi": 62,
      "hit": false,
      "t": 53709.570000000036,
      "d": 64.51600000000326,
      "v": 121
    },
    {
      "midi": 64,
      "hit": false,
      "t": 53709.570000000036,
      "d": 64.51600000000326,
      "v": 121
    },
    {
      "midi": 69,
      "hit": false,
      "t": 53709.570000000036,
      "d": 64.51600000000326,
      "v": 121
    },
    {
      "midi": 50,
      "hit": false,
      "t": 53830.53750000004,
      "d": 68.54824999999983,
      "v": 121
    },
    {
      "midi": 50,
      "hit": false,
      "t": 53951.50500000004,
      "d": 68.54824999999983,
      "v": 121
    },
    {
      "midi": 50,
      "hit": false,
      "t": 54072.47250000004,
      "d": 68.54824999999983,
      "v": 121
    },
    {
      "midi": 66,
      "hit": false,
      "t": 54193.439999999995,
      "d": 247.98337499999616,
      "v": 94
    },
    {
      "midi": 50,
      "hit": false,
      "t": 54193.44000000004,
      "d": 360.88637500000186,
      "v": 121
    },
    {
      "midi": 54,
      "hit": false,
      "t": 54435.37499999999,
      "d": 109.87881249999919,
      "v": 96
    },
    {
      "midi": 64,
      "hit": false,
      "t": 54556.34249999999,
      "d": 101.81431249999878,
      "v": 96
    },
    {
      "midi": 50,
      "hit": false,
      "t": 54556.34250000004,
      "d": 64.51600000000326,
      "v": 121
    },
    {
      "midi": 62,
      "hit": false,
      "t": 54677.31000000005,
      "d": 64.51600000000326,
      "v": 121
    },
    {
      "midi": 66,
      "hit": false,
      "t": 54677.31000000005,
      "d": 64.51600000000326,
      "v": 121
    },
    {
      "midi": 69,
      "hit": false,
      "t": 54677.31000000005,
      "d": 64.51600000000326,
      "v": 121
    },
    {
      "midi": 50,
      "hit": false,
      "t": 54798.277500000055,
      "d": 64.51600000000326,
      "v": 121
    },
    {
      "midi": 52,
      "hit": false,
      "t": 54919.24500000006,
      "d": 360.88637500000186,
      "v": 121
    },
    {
      "midi": 52,
      "hit": false,
      "t": 55403.11499999999,
      "d": 49.39506249999977,
      "v": 93
    },
    {
      "midi": 52,
      "hit": false,
      "t": 55403.11500000006,
      "d": 64.51600000000326,
      "v": 121
    },
    {
      "midi": 64,
      "hit": false,
      "t": 55524.08249999999,
      "d": 30.24187499999971,
      "v": 95
    },
    {
      "midi": 69,
      "hit": false,
      "t": 55524.08249999999,
      "d": 43.34668750000128,
      "v": 95
    },
    {
      "midi": 61,
      "hit": false,
      "t": 55524.08249999999,
      "d": 53.42731250000361,
      "v": 96
    },
    {
      "midi": 52,
      "hit": false,
      "t": 55524.08250000007,
      "d": 64.51600000000326,
      "v": 121
    },
    {
      "midi": 64,
      "hit": false,
      "t": 55645.050000000076,
      "d": 64.51600000000326,
      "v": 121
    },
    {
      "midi": 69,
      "hit": false,
      "t": 55645.050000000076,
      "d": 64.51600000000326,
      "v": 121
    },
    {
      "midi": 71,
      "hit": false,
      "t": 55645.050000000076,
      "d": 64.51600000000326,
      "v": 121
    },
    {
      "midi": 52,
      "hit": false,
      "t": 55766.017499999994,
      "d": 50.40312499999709,
      "v": 95
    },
    {
      "midi": 52,
      "hit": false,
      "t": 55766.01750000008,
      "d": 68.54824999999983,
      "v": 121
    },
    {
      "midi": 64,
      "hit": false,
      "t": 55886.98499999999,
      "d": 32.25800000000163,
      "v": 95
    },
    {
      "midi": 68,
      "hit": false,
      "t": 55886.98499999999,
      "d": 34.27412500000355,
      "v": 93
    },
    {
      "midi": 59,
      "hit": false,
      "t": 55886.98499999999,
      "d": 50.403125000004366,
      "v": 95
    },
    {
      "midi": 52,
      "hit": false,
      "t": 55886.98500000008,
      "d": 68.54824999999983,
      "v": 121
    },
    {
      "midi": 64,
      "hit": false,
      "t": 56007.9525,
      "d": 34.27412500000355,
      "v": 96
    },
    {
      "midi": 68,
      "hit": false,
      "t": 56007.9525,
      "d": 40.32250000000204,
      "v": 96
    },
    {
      "midi": 59,
      "hit": false,
      "t": 56007.9525,
      "d": 47.37893750000512,
      "v": 95
    },
    {
      "midi": 52,
      "hit": false,
      "t": 56007.95250000008,
      "d": 68.54824999999983,
      "v": 121
    },
    {
      "midi": 49,
      "hit": false,
      "t": 56128.92000000008,
      "d": 118.95137499999691,
      "v": 121
    },
    {
      "midi": 66,
      "hit": false,
      "t": 56249.887500000004,
      "d": 49.39506249999977,
      "v": 94
    },
    {
      "midi": 69,
      "hit": false,
      "t": 56249.887500000004,
      "d": 67.5401875000025,
      "v": 95
    },
    {
      "midi": 61,
      "hit": false,
      "t": 56249.887500000004,
      "d": 77.62081250000483,
      "v": 94
    },
    {
      "midi": 61,
      "hit": false,
      "t": 56249.88750000008,
      "d": 64.51600000000326,
      "v": 121
    },
    {
      "midi": 66,
      "hit": false,
      "t": 56249.88750000008,
      "d": 64.51600000000326,
      "v": 121
    },
    {
      "midi": 68,
      "hit": false,
      "t": 56249.88750000008,
      "d": 64.51600000000326,
      "v": 121
    },
    {
      "midi": 49,
      "hit": false,
      "t": 56370.85500000008,
      "d": 118.95137499999691,
      "v": 121
    },
    {
      "midi": 68,
      "hit": false,
      "t": 56491.82250000001,
      "d": 63.50793749999866,
      "v": 95
    },
    {
      "midi": 64,
      "hit": false,
      "t": 56491.82250000001,
      "d": 67.54018749999523,
      "v": 95
    },
    {
      "midi": 59,
      "hit": false,
      "t": 56491.82250000001,
      "d": 73.58856249999371,
      "v": 95
    },
    {
      "midi": 49,
      "hit": false,
      "t": 56491.82250000008,
      "d": 118.95137499999691,
      "v": 121
    },
    {
      "midi": 61,
      "hit": false,
      "t": 56612.79000000008,
      "d": 64.51600000000326,
      "v": 121
    },
    {
      "midi": 64,
      "hit": false,
      "t": 56612.79000000008,
      "d": 64.51600000000326,
      "v": 121
    },
    {
      "midi": 68,
      "hit": false,
      "t": 56612.79000000008,
      "d": 64.51600000000326,
      "v": 121
    },
    {
      "midi": 61,
      "hit": false,
      "t": 56854.725000000006,
      "d": 32.25800000000163,
      "v": 95
    },
    {
      "midi": 66,
      "hit": false,
      "t": 56854.725000000006,
      "d": 36.290249999998196,
      "v": 93
    },
    {
      "midi": 57,
      "hit": false,
      "t": 56854.725000000006,
      "d": 44.3547499999986,
      "v": 94
    },
    {
      "midi": 50,
      "hit": false,
      "t": 56854.725000000086,
      "d": 360.88637500000186,
      "v": 121
    },
    {
      "midi": 62,
      "hit": false,
      "t": 56854.725000000086,
      "d": 790.3210000000181,
      "v": 121
    },
    {
      "midi": 66,
      "hit": false,
      "t": 56854.725000000086,
      "d": 790.3210000000181,
      "v": 121
    },
    {
      "midi": 69,
      "hit": false,
      "t": 56854.725000000086,
      "d": 790.3210000000181,
      "v": 121
    },
    {
      "midi": 57,
      "hit": false,
      "t": 56975.692500000005,
      "d": 43.34668750000128,
      "v": 94
    },
    {
      "midi": 66,
      "hit": false,
      "t": 56975.692500000005,
      "d": 45.3628125000032,
      "v": 90
    },
    {
      "midi": 61,
      "hit": false,
      "t": 56975.692500000005,
      "d": 53.42731250000361,
      "v": 94
    },
    {
      "midi": 57,
      "hit": false,
      "t": 57096.66000000001,
      "d": 49.39506249999977,
      "v": 95
    },
    {
      "midi": 61,
      "hit": false,
      "t": 57096.66000000001,
      "d": 49.39506249999977,
      "v": 93
    },
    {
      "midi": 66,
      "hit": false,
      "t": 57096.66000000001,
      "d": 77.62081249999756,
      "v": 91
    },
    {
      "midi": 66,
      "hit": false,
      "t": 57217.62750000001,
      "d": 42.33862499999668,
      "v": 92
    },
    {
      "midi": 61,
      "hit": false,
      "t": 57217.62750000001,
      "d": 49.39506249999977,
      "v": 96
    },
    {
      "midi": 57,
      "hit": false,
      "t": 57217.62750000001,
      "d": 71.57243749999907,
      "v": 94
    },
    {
      "midi": 50,
      "hit": false,
      "t": 57338.59500000009,
      "d": 64.51600000000326,
      "v": 121
    },
    {
      "midi": 64,
      "hit": false,
      "t": 57459.56250000001,
      "d": 73.58856250000099,
      "v": 95
    },
    {
      "midi": 56,
      "hit": false,
      "t": 57459.56250000001,
      "d": 83.66918750000332,
      "v": 96
    },
    {
      "midi": 59,
      "hit": false,
      "t": 57459.56250000001,
      "d": 87.70143749999988,
      "v": 97
    },
    {
      "midi": 50,
      "hit": false,
      "t": 57459.562500000095,
      "d": 64.51600000000326,
      "v": 121
    },
    {
      "midi": 56,
      "hit": false,
      "t": 57580.530000000006,
      "d": 239.91887500000303,
      "v": 1
    },
    {
      "midi": 68,
      "hit": false,
      "t": 57580.530000000006,
      "d": 239.91887500000303,
      "v": 1
    },
    {
      "midi": 50,
      "hit": false,
      "t": 57580.5300000001,
      "d": 64.51600000000326,
      "v": 121
    },
    {
      "midi": 50,
      "hit": false,
      "t": 57701.49750000011,
      "d": 68.54824999999983,
      "v": 121
    },
    {
      "midi": 57,
      "hit": false,
      "t": 57822.46500000001,
      "d": 1556.4484999999986,
      "v": 1
    },
    {
      "midi": 69,
      "hit": false,
      "t": 57822.46500000001,
      "d": 1556.4484999999986,
      "v": 1
    },
    {
      "midi": 50,
      "hit": false,
      "t": 57822.465000000106,
      "d": 68.54824999999983,
      "v": 121
    },
    {
      "midi": 50,
      "hit": false,
      "t": 57943.432500000104,
      "d": 68.54824999999983,
      "v": 121
    },
    {
      "midi": 66,
      "hit": false,
      "t": 58064.40000000001,
      "d": 247.98337499999616,
      "v": 94
    },
    {
      "midi": 50,
      "hit": false,
      "t": 58064.4000000001,
      "d": 360.88637500000186,
      "v": 121
    },
    {
      "midi": 54,
      "hit": false,
      "t": 58306.33500000001,
      "d": 109.87881249999919,
      "v": 96
    },
    {
      "midi": 64,
      "hit": false,
      "t": 58427.302500000005,
      "d": 101.81431249999878,
      "v": 96
    },
    {
      "midi": 50,
      "hit": false,
      "t": 58427.30250000011,
      "d": 64.51600000000326,
      "v": 121
    },
    {
      "midi": 62,
      "hit": false,
      "t": 58548.27000000011,
      "d": 64.51600000000326,
      "v": 121
    },
    {
      "midi": 66,
      "hit": false,
      "t": 58548.27000000011,
      "d": 64.51600000000326,
      "v": 121
    },
    {
      "midi": 69,
      "hit": false,
      "t": 58548.27000000011,
      "d": 64.51600000000326,
      "v": 121
    },
    {
      "midi": 50,
      "hit": false,
      "t": 58669.23750000012,
      "d": 64.51600000000326,
      "v": 121
    },
    {
      "midi": 52,
      "hit": false,
      "t": 58790.205000000125,
      "d": 360.88637500000186,
      "v": 121
    },
    {
      "midi": 52,
      "hit": false,
      "t": 59274.075000000004,
      "d": 49.39506249999977,
      "v": 93
    },
    {
      "midi": 52,
      "hit": false,
      "t": 59274.07500000013,
      "d": 64.51600000000326,
      "v": 121
    },
    {
      "midi": 64,
      "hit": false,
      "t": 59395.0425,
      "d": 30.24187499999971,
      "v": 95
    },
    {
      "midi": 69,
      "hit": false,
      "t": 59395.0425,
      "d": 43.34668750000128,
      "v": 95
    },
    {
      "midi": 61,
      "hit": false,
      "t": 59395.0425,
      "d": 53.42731250000361,
      "v": 96
    },
    {
      "midi": 52,
      "hit": false,
      "t": 59395.042500000134,
      "d": 64.51600000000326,
      "v": 121
    },
    {
      "midi": 64,
      "hit": false,
      "t": 59516.01000000014,
      "d": 64.51600000000326,
      "v": 121
    },
    {
      "midi": 69,
      "hit": false,
      "t": 59516.01000000014,
      "d": 64.51600000000326,
      "v": 121
    },
    {
      "midi": 71,
      "hit": false,
      "t": 59516.01000000014,
      "d": 64.51600000000326,
      "v": 121
    },
    {
      "midi": 52,
      "hit": false,
      "t": 59636.97750000001,
      "d": 50.40312499999709,
      "v": 95
    },
    {
      "midi": 52,
      "hit": false,
      "t": 59636.97750000015,
      "d": 68.54824999999983,
      "v": 121
    },
    {
      "midi": 64,
      "hit": false,
      "t": 59757.94500000001,
      "d": 32.25800000000163,
      "v": 95
    },
    {
      "midi": 68,
      "hit": false,
      "t": 59757.94500000001,
      "d": 34.27412500000355,
      "v": 93
    },
    {
      "midi": 59,
      "hit": false,
      "t": 59757.94500000001,
      "d": 50.403125000004366,
      "v": 95
    },
    {
      "midi": 52,
      "hit": false,
      "t": 59757.945000000145,
      "d": 68.54824999999983,
      "v": 121
    },
    {
      "midi": 64,
      "hit": false,
      "t": 59878.91250000001,
      "d": 34.27412500000355,
      "v": 96
    },
    {
      "midi": 68,
      "hit": false,
      "t": 59878.91250000001,
      "d": 40.32250000000204,
      "v": 96
    },
    {
      "midi": 59,
      "hit": false,
      "t": 59878.91250000001,
      "d": 47.37893750000512,
      "v": 95
    },
    {
      "midi": 52,
      "hit": false,
      "t": 59878.912500000144,
      "d": 68.54824999999983,
      "v": 121
    },
    {
      "midi": 49,
      "hit": false,
      "t": 59999.88000000014,
      "d": 118.95137499999691,
      "v": 121
    },
    {
      "midi": 68,
      "hit": false,
      "t": 60241.81500000002,
      "d": 49.39506249999977,
      "v": 95
    },
    {
      "midi": 71,
      "hit": false,
      "t": 60241.81500000002,
      "d": 53.42731249999633,
      "v": 94
    },
    {
      "midi": 64,
      "hit": false,
      "t": 60241.81500000002,
      "d": 65.5240624999933,
      "v": 95
    },
    {
      "midi": 59,
      "hit": false,
      "t": 60241.81500000014,
      "d": 64.51600000000326,
      "v": 121
    },
    {
      "midi": 64,
      "hit": false,
      "t": 60241.81500000014,
      "d": 64.51600000000326,
      "v": 121
    },
    {
      "midi": 68,
      "hit": false,
      "t": 60241.81500000014,
      "d": 64.51600000000326,
      "v": 121
    },
    {
      "midi": 49,
      "hit": false,
      "t": 60362.78250000015,
      "d": 360.88637500000186,
      "v": 121
    },
    {
      "midi": 50,
      "hit": false,
      "t": 60725.68500000015,
      "d": 360.88637500000186,
      "v": 121
    },
    {
      "midi": 50,
      "hit": false,
      "t": 61209.55500000015,
      "d": 64.51600000000326,
      "v": 121
    },
    {
      "midi": 50,
      "hit": false,
      "t": 61330.52250000016,
      "d": 64.51600000000326,
      "v": 121
    },
    {
      "midi": 62,
      "hit": false,
      "t": 61451.490000000165,
      "d": 64.51600000000326,
      "v": 121
    },
    {
      "midi": 64,
      "hit": false,
      "t": 61451.490000000165,
      "d": 64.51600000000326,
      "v": 121
    },
    {
      "midi": 69,
      "hit": false,
      "t": 61451.490000000165,
      "d": 64.51600000000326,
      "v": 121
    },
    {
      "midi": 50,
      "hit": false,
      "t": 61572.45750000017,
      "d": 68.54824999999983,
      "v": 121
    },
    {
      "midi": 50,
      "hit": false,
      "t": 61693.42500000017,
      "d": 68.54824999999983,
      "v": 121
    },
    {
      "midi": 50,
      "hit": false,
      "t": 61814.39250000017,
      "d": 68.54824999999983,
      "v": 121
    },
    {
      "midi": 66,
      "hit": false,
      "t": 61935.36000000001,
      "d": 247.98337499999616,
      "v": 94
    },
    {
      "midi": 50,
      "hit": false,
      "t": 61935.36000000017,
      "d": 360.88637500000186,
      "v": 121
    },
    {
      "midi": 54,
      "hit": false,
      "t": 62177.295000000006,
      "d": 109.87881249999919,
      "v": 96
    },
    {
      "midi": 64,
      "hit": false,
      "t": 62298.262500000004,
      "d": 101.81431249999878,
      "v": 96
    },
    {
      "midi": 50,
      "hit": false,
      "t": 62298.26250000017,
      "d": 64.51600000000326,
      "v": 121
    },
    {
      "midi": 62,
      "hit": false,
      "t": 62419.23000000018,
      "d": 64.51600000000326,
      "v": 121
    },
    {
      "midi": 66,
      "hit": false,
      "t": 62419.23000000018,
      "d": 64.51600000000326,
      "v": 121
    },
    {
      "midi": 69,
      "hit": false,
      "t": 62419.23000000018,
      "d": 64.51600000000326,
      "v": 121
    },
    {
      "midi": 50,
      "hit": false,
      "t": 62540.197500000184,
      "d": 64.51600000000326,
      "v": 121
    },
    {
      "midi": 52,
      "hit": false,
      "t": 62661.16500000019,
      "d": 360.88637500000186,
      "v": 121
    },
    {
      "midi": 52,
      "hit": false,
      "t": 63145.035,
      "d": 49.39506249999977,
      "v": 93
    },
    {
      "midi": 52,
      "hit": false,
      "t": 63145.03500000019,
      "d": 64.51600000000326,
      "v": 121
    },
    {
      "midi": 64,
      "hit": false,
      "t": 63266.0025,
      "d": 30.24187499999971,
      "v": 95
    },
    {
      "midi": 69,
      "hit": false,
      "t": 63266.0025,
      "d": 43.34668750000128,
      "v": 95
    },
    {
      "midi": 61,
      "hit": false,
      "t": 63266.0025,
      "d": 53.42731250000361,
      "v": 96
    },
    {
      "midi": 52,
      "hit": false,
      "t": 63266.0025000002,
      "d": 64.51600000000326,
      "v": 121
    },
    {
      "midi": 64,
      "hit": false,
      "t": 63386.970000000205,
      "d": 64.51600000000326,
      "v": 121
    },
    {
      "midi": 69,
      "hit": false,
      "t": 63386.970000000205,
      "d": 64.51600000000326,
      "v": 121
    },
    {
      "midi": 71,
      "hit": false,
      "t": 63386.970000000205,
      "d": 64.51600000000326,
      "v": 121
    },
    {
      "midi": 52,
      "hit": false,
      "t": 63507.93750000001,
      "d": 50.40312499999709,
      "v": 95
    },
    {
      "midi": 52,
      "hit": false,
      "t": 63507.93750000021,
      "d": 68.54824999999983,
      "v": 121
    },
    {
      "midi": 64,
      "hit": false,
      "t": 63628.905000000006,
      "d": 32.25800000000163,
      "v": 95
    },
    {
      "midi": 68,
      "hit": false,
      "t": 63628.905000000006,
      "d": 34.27412500000355,
      "v": 93
    },
    {
      "midi": 59,
      "hit": false,
      "t": 63628.905000000006,
      "d": 50.403125000004366,
      "v": 95
    },
    {
      "midi": 52,
      "hit": false,
      "t": 63628.90500000021,
      "d": 68.54824999999983,
      "v": 121
    },
    {
      "midi": 64,
      "hit": false,
      "t": 63749.87250000001,
      "d": 34.27412500000355,
      "v": 96
    },
    {
      "midi": 68,
      "hit": false,
      "t": 63749.87250000001,
      "d": 40.32250000000204,
      "v": 96
    },
    {
      "midi": 59,
      "hit": false,
      "t": 63749.87250000001,
      "d": 47.37893750000512,
      "v": 95
    },
    {
      "midi": 52,
      "hit": false,
      "t": 63749.87250000021,
      "d": 68.54824999999983,
      "v": 121
    },
    {
      "midi": 49,
      "hit": false,
      "t": 63870.84000000021,
      "d": 118.95137499999691,
      "v": 121
    },
    {
      "midi": 66,
      "hit": false,
      "t": 63991.80750000002,
      "d": 49.39506249999977,
      "v": 94
    },
    {
      "midi": 69,
      "hit": false,
      "t": 63991.80750000002,
      "d": 67.5401875000025,
      "v": 95
    },
    {
      "midi": 61,
      "hit": false,
      "t": 63991.80750000002,
      "d": 77.62081250000483,
      "v": 94
    },
    {
      "midi": 61,
      "hit": false,
      "t": 63991.807500000206,
      "d": 64.51600000000326,
      "v": 121
    },
    {
      "midi": 66,
      "hit": false,
      "t": 63991.807500000206,
      "d": 64.51600000000326,
      "v": 121
    },
    {
      "midi": 68,
      "hit": false,
      "t": 63991.807500000206,
      "d": 64.51600000000326,
      "v": 121
    },
    {
      "midi": 49,
      "hit": false,
      "t": 64112.77500000021,
      "d": 118.95137499999691,
      "v": 121
    },
    {
      "midi": 68,
      "hit": false,
      "t": 64233.74250000002,
      "d": 63.50793749999866,
      "v": 95
    },
    {
      "midi": 64,
      "hit": false,
      "t": 64233.74250000002,
      "d": 67.54018749999523,
      "v": 95
    },
    {
      "midi": 59,
      "hit": false,
      "t": 64233.74250000002,
      "d": 73.58856249999371,
      "v": 95
    },
    {
      "midi": 49,
      "hit": false,
      "t": 64233.74250000021,
      "d": 118.95137499999691,
      "v": 121
    },
    {
      "midi": 61,
      "hit": false,
      "t": 64354.71000000021,
      "d": 64.51600000000326,
      "v": 121
    },
    {
      "midi": 64,
      "hit": false,
      "t": 64354.71000000021,
      "d": 64.51600000000326,
      "v": 121
    },
    {
      "midi": 68,
      "hit": false,
      "t": 64354.71000000021,
      "d": 64.51600000000326,
      "v": 121
    },
    {
      "midi": 61,
      "hit": false,
      "t": 64596.64500000002,
      "d": 32.25800000000163,
      "v": 95
    },
    {
      "midi": 66,
      "hit": false,
      "t": 64596.64500000002,
      "d": 36.290249999998196,
      "v": 93
    },
    {
      "midi": 57,
      "hit": false,
      "t": 64596.64500000002,
      "d": 44.3547499999986,
      "v": 94
    },
    {
      "midi": 50,
      "hit": false,
      "t": 64596.645000000215,
      "d": 360.88637500000186,
      "v": 121
    },
    {
      "midi": 62,
      "hit": false,
      "t": 64596.645000000215,
      "d": 790.3210000000181,
      "v": 121
    },
    {
      "midi": 66,
      "hit": false,
      "t": 64596.645000000215,
      "d": 790.3210000000181,
      "v": 121
    },
    {
      "midi": 69,
      "hit": false,
      "t": 64596.645000000215,
      "d": 790.3210000000181,
      "v": 121
    },
    {
      "midi": 57,
      "hit": false,
      "t": 64717.61250000002,
      "d": 43.34668750000128,
      "v": 94
    },
    {
      "midi": 66,
      "hit": false,
      "t": 64717.61250000002,
      "d": 45.3628125000032,
      "v": 90
    },
    {
      "midi": 61,
      "hit": false,
      "t": 64717.61250000002,
      "d": 53.42731250000361,
      "v": 94
    },
    {
      "midi": 69,
      "hit": false,
      "t": 64838.58000000001,
      "d": 1362.9005000000107,
      "v": 1
    },
    {
      "midi": 73,
      "hit": false,
      "t": 64838.58000000001,
      "d": 1367.9408125000118,
      "v": 1
    },
    {
      "midi": 66,
      "hit": false,
      "t": 64838.58000000001,
      "d": 1368.9488750000091,
      "v": 1
    },
    {
      "midi": 62,
      "hit": false,
      "t": 64838.58000000001,
      "d": 1376.005312500005,
      "v": 1
    },
    {
      "midi": 57,
      "hit": false,
      "t": 64838.58000000002,
      "d": 49.39506249999977,
      "v": 95
    },
    {
      "midi": 61,
      "hit": false,
      "t": 64838.58000000002,
      "d": 49.39506249999977,
      "v": 93
    },
    {
      "midi": 66,
      "hit": false,
      "t": 64838.58000000002,
      "d": 77.62081249999756,
      "v": 91
    },
    {
      "midi": 66,
      "hit": false,
      "t": 64959.54750000002,
      "d": 42.33862499999668,
      "v": 92
    },
    {
      "midi": 61,
      "hit": false,
      "t": 64959.54750000002,
      "d": 49.39506249999977,
      "v": 96
    },
    {
      "midi": 57,
      "hit": false,
      "t": 64959.54750000002,
      "d": 71.57243749999907,
      "v": 94
    },
    {
      "midi": 50,
      "hit": false,
      "t": 65080.51500000022,
      "d": 64.51600000000326,
      "v": 121
    },
    {
      "midi": 64,
      "hit": false,
      "t": 65201.48250000002,
      "d": 73.58856250000099,
      "v": 95
    },
    {
      "midi": 56,
      "hit": false,
      "t": 65201.48250000002,
      "d": 83.66918750000332,
      "v": 96
    },
    {
      "midi": 59,
      "hit": false,
      "t": 65201.48250000002,
      "d": 87.70143749999988,
      "v": 97
    },
    {
      "midi": 50,
      "hit": false,
      "t": 65201.482500000224,
      "d": 64.51600000000326,
      "v": 121
    },
    {
      "midi": 50,
      "hit": false,
      "t": 65322.45000000023,
      "d": 64.51600000000326,
      "v": 121
    },
    {
      "midi": 50,
      "hit": false,
      "t": 65443.417500000236,
      "d": 68.54824999999983,
      "v": 121
    },
    {
      "midi": 50,
      "hit": false,
      "t": 65564.38500000024,
      "d": 68.5482500000071,
      "v": 121
    },
    {
      "midi": 50,
      "hit": false,
      "t": 65685.35250000026,
      "d": 68.5482500000071,
      "v": 121
    },
    {
      "midi": 66,
      "hit": false,
      "t": 65806.32000000002,
      "d": 247.98337499999616,
      "v": 94
    },
    {
      "midi": 50,
      "hit": false,
      "t": 65806.32000000027,
      "d": 360.88637500000186,
      "v": 121
    },
    {
      "midi": 54,
      "hit": false,
      "t": 66048.25500000002,
      "d": 109.87881249999919,
      "v": 96
    },
    {
      "midi": 64,
      "hit": false,
      "t": 66169.22250000002,
      "d": 101.81431250000605,
      "v": 96
    },
    {
      "midi": 50,
      "hit": false,
      "t": 66169.22250000027,
      "d": 64.51600000000326,
      "v": 121
    },
    {
      "midi": 62,
      "hit": false,
      "t": 66290.19000000026,
      "d": 64.51600000000326,
      "v": 121
    },
    {
      "midi": 66,
      "hit": false,
      "t": 66290.19000000026,
      "d": 64.51600000000326,
      "v": 121
    },
    {
      "midi": 69,
      "hit": false,
      "t": 66290.19000000026,
      "d": 64.51600000000326,
      "v": 121
    },
    {
      "midi": 50,
      "hit": false,
      "t": 66411.15750000026,
      "d": 64.51600000000326,
      "v": 121
    },
    {
      "midi": 52,
      "hit": false,
      "t": 66532.12500000026,
      "d": 360.88637500000186,
      "v": 121
    },
    {
      "midi": 52,
      "hit": false,
      "t": 67015.99500000002,
      "d": 49.39506249999977,
      "v": 93
    },
    {
      "midi": 52,
      "hit": false,
      "t": 67015.99500000026,
      "d": 64.51600000000326,
      "v": 121
    },
    {
      "midi": 64,
      "hit": false,
      "t": 67136.96250000002,
      "d": 30.241875000006985,
      "v": 95
    },
    {
      "midi": 69,
      "hit": false,
      "t": 67136.96250000002,
      "d": 43.34668750000128,
      "v": 95
    },
    {
      "midi": 61,
      "hit": false,
      "t": 67136.96250000002,
      "d": 53.42731250000361,
      "v": 96
    },
    {
      "midi": 52,
      "hit": false,
      "t": 67136.96250000026,
      "d": 64.51600000000326,
      "v": 121
    },
    {
      "midi": 64,
      "hit": false,
      "t": 67257.93000000025,
      "d": 64.51600000000326,
      "v": 121
    },
    {
      "midi": 69,
      "hit": false,
      "t": 67257.93000000025,
      "d": 64.51600000000326,
      "v": 121
    },
    {
      "midi": 71,
      "hit": false,
      "t": 67257.93000000025,
      "d": 64.51600000000326,
      "v": 121
    },
    {
      "midi": 52,
      "hit": false,
      "t": 67378.89750000002,
      "d": 50.40312499999709,
      "v": 95
    },
    {
      "midi": 52,
      "hit": false,
      "t": 67378.89750000025,
      "d": 68.5482500000071,
      "v": 121
    },
    {
      "midi": 64,
      "hit": false,
      "t": 67499.86500000002,
      "d": 32.25800000000163,
      "v": 95
    },
    {
      "midi": 68,
      "hit": false,
      "t": 67499.86500000002,
      "d": 34.274124999996275,
      "v": 93
    },
    {
      "midi": 59,
      "hit": false,
      "t": 67499.86500000002,
      "d": 50.40312499999709,
      "v": 95
    },
    {
      "midi": 52,
      "hit": false,
      "t": 67499.86500000027,
      "d": 68.5482500000071,
      "v": 121
    },
    {
      "midi": 64,
      "hit": false,
      "t": 67620.83250000002,
      "d": 34.274124999996275,
      "v": 96
    },
    {
      "midi": 68,
      "hit": false,
      "t": 67620.83250000002,
      "d": 40.32249999999476,
      "v": 96
    },
    {
      "midi": 59,
      "hit": false,
      "t": 67620.83250000002,
      "d": 47.37893749999057,
      "v": 95
    },
    {
      "midi": 52,
      "hit": false,
      "t": 67620.83250000028,
      "d": 68.5482500000071,
      "v": 121
    },
    {
      "midi": 49,
      "hit": false,
      "t": 67741.8000000003,
      "d": 118.95137500000419,
      "v": 121
    },
    {
      "midi": 68,
      "hit": false,
      "t": 67983.73500000002,
      "d": 49.39506249999977,
      "v": 95
    },
    {
      "midi": 71,
      "hit": false,
      "t": 67983.73500000002,
      "d": 53.42731250000361,
      "v": 94
    },
    {
      "midi": 64,
      "hit": false,
      "t": 67983.73500000002,
      "d": 65.52406250000058,
      "v": 95
    },
    {
      "midi": 59,
      "hit": false,
      "t": 67983.73500000029,
      "d": 64.51600000000326,
      "v": 121
    },
    {
      "midi": 64,
      "hit": false,
      "t": 67983.73500000029,
      "d": 64.51600000000326,
      "v": 121
    },
    {
      "midi": 68,
      "hit": false,
      "t": 67983.73500000029,
      "d": 64.51600000000326,
      "v": 121
    },
    {
      "midi": 49,
      "hit": false,
      "t": 68104.70250000029,
      "d": 360.88637500000186,
      "v": 121
    },
    {
      "midi": 50,
      "hit": false,
      "t": 68467.60500000029,
      "d": 360.88637500000186,
      "v": 121
    },
    {
      "midi": 69,
      "hit": false,
      "t": 68709.54000000001,
      "d": 1362.9004999999743,
      "v": 1
    },
    {
      "midi": 73,
      "hit": false,
      "t": 68709.54000000001,
      "d": 1367.9408124999754,
      "v": 1
    },
    {
      "midi": 66,
      "hit": false,
      "t": 68709.54000000001,
      "d": 1368.9488749999728,
      "v": 1
    },
    {
      "midi": 62,
      "hit": false,
      "t": 68709.54000000001,
      "d": 1376.0053124999686,
      "v": 1
    },
    {
      "midi": 50,
      "hit": false,
      "t": 68951.47500000028,
      "d": 64.51600000000326,
      "v": 121
    },
    {
      "midi": 50,
      "hit": false,
      "t": 69072.44250000028,
      "d": 64.51600000000326,
      "v": 121
    },
    {
      "midi": 62,
      "hit": false,
      "t": 69193.41000000028,
      "d": 64.51600000000326,
      "v": 121
    },
    {
      "midi": 64,
      "hit": false,
      "t": 69193.41000000028,
      "d": 64.51600000000326,
      "v": 121
    },
    {
      "midi": 69,
      "hit": false,
      "t": 69193.41000000028,
      "d": 64.51600000000326,
      "v": 121
    },
    {
      "midi": 50,
      "hit": false,
      "t": 69314.37750000028,
      "d": 68.5482500000071,
      "v": 121
    },
    {
      "midi": 50,
      "hit": false,
      "t": 69435.34500000029,
      "d": 68.5482500000071,
      "v": 121
    },
    {
      "midi": 50,
      "hit": false,
      "t": 69556.3125000003,
      "d": 68.5482500000071,
      "v": 121
    },
    {
      "midi": 66,
      "hit": false,
      "t": 69677.28000000001,
      "d": 247.98337499999616,
      "v": 94
    },
    {
      "midi": 50,
      "hit": false,
      "t": 69677.28000000032,
      "d": 360.88637500000186,
      "v": 121
    },
    {
      "midi": 54,
      "hit": false,
      "t": 69919.21500000001,
      "d": 109.87881249999919,
      "v": 96
    },
    {
      "midi": 64,
      "hit": false,
      "t": 70040.18250000001,
      "d": 101.81431250000605,
      "v": 96
    },
    {
      "midi": 50,
      "hit": false,
      "t": 70040.18250000032,
      "d": 64.51600000000326,
      "v": 121
    },
    {
      "midi": 62,
      "hit": false,
      "t": 70161.15000000031,
      "d": 64.51600000000326,
      "v": 121
    },
    {
      "midi": 66,
      "hit": false,
      "t": 70161.15000000031,
      "d": 64.51600000000326,
      "v": 121
    },
    {
      "midi": 69,
      "hit": false,
      "t": 70161.15000000031,
      "d": 64.51600000000326,
      "v": 121
    },
    {
      "midi": 50,
      "hit": false,
      "t": 70282.11750000031,
      "d": 64.51600000000326,
      "v": 121
    },
    {
      "midi": 52,
      "hit": false,
      "t": 70403.08500000031,
      "d": 360.88637500000186,
      "v": 121
    },
    {
      "midi": 52,
      "hit": false,
      "t": 70886.95500000002,
      "d": 49.39506249999977,
      "v": 93
    },
    {
      "midi": 52,
      "hit": false,
      "t": 70886.95500000031,
      "d": 64.51600000000326,
      "v": 121
    },
    {
      "midi": 64,
      "hit": false,
      "t": 71007.92250000002,
      "d": 30.241875000006985,
      "v": 95
    },
    {
      "midi": 69,
      "hit": false,
      "t": 71007.92250000002,
      "d": 43.34668750000128,
      "v": 95
    },
    {
      "midi": 61,
      "hit": false,
      "t": 71007.92250000002,
      "d": 53.42731250000361,
      "v": 96
    },
    {
      "midi": 52,
      "hit": false,
      "t": 71007.9225000003,
      "d": 64.51600000000326,
      "v": 121
    },
    {
      "midi": 64,
      "hit": false,
      "t": 71128.8900000003,
      "d": 64.51600000000326,
      "v": 121
    },
    {
      "midi": 69,
      "hit": false,
      "t": 71128.8900000003,
      "d": 64.51600000000326,
      "v": 121
    },
    {
      "midi": 71,
      "hit": false,
      "t": 71128.8900000003,
      "d": 64.51600000000326,
      "v": 121
    },
    {
      "midi": 52,
      "hit": false,
      "t": 71249.85750000001,
      "d": 50.40312499999709,
      "v": 95
    },
    {
      "midi": 52,
      "hit": false,
      "t": 71249.8575000003,
      "d": 68.5482500000071,
      "v": 121
    },
    {
      "midi": 64,
      "hit": false,
      "t": 71370.82500000001,
      "d": 32.25800000000163,
      "v": 95
    },
    {
      "midi": 68,
      "hit": false,
      "t": 71370.82500000001,
      "d": 34.274124999996275,
      "v": 93
    },
    {
      "midi": 59,
      "hit": false,
      "t": 71370.82500000001,
      "d": 50.40312499999709,
      "v": 95
    },
    {
      "midi": 52,
      "hit": false,
      "t": 71370.82500000032,
      "d": 68.5482500000071,
      "v": 121
    },
    {
      "midi": 64,
      "hit": false,
      "t": 71491.79250000001,
      "d": 34.274124999996275,
      "v": 96
    },
    {
      "midi": 68,
      "hit": false,
      "t": 71491.79250000001,
      "d": 40.32249999999476,
      "v": 96
    },
    {
      "midi": 59,
      "hit": false,
      "t": 71491.79250000001,
      "d": 47.37893749999057,
      "v": 95
    },
    {
      "midi": 52,
      "hit": false,
      "t": 71491.79250000033,
      "d": 68.5482500000071,
      "v": 121
    },
    {
      "midi": 49,
      "hit": false,
      "t": 71612.76000000034,
      "d": 118.95137500000419,
      "v": 121
    },
    {
      "midi": 66,
      "hit": false,
      "t": 71733.72750000001,
      "d": 49.39506249999977,
      "v": 94
    },
    {
      "midi": 69,
      "hit": false,
      "t": 71733.72750000001,
      "d": 67.54018749999523,
      "v": 95
    },
    {
      "midi": 61,
      "hit": false,
      "t": 71733.72750000001,
      "d": 77.62081249999756,
      "v": 94
    },
    {
      "midi": 61,
      "hit": false,
      "t": 71733.72750000034,
      "d": 64.51600000000326,
      "v": 121
    },
    {
      "midi": 66,
      "hit": false,
      "t": 71733.72750000034,
      "d": 64.51600000000326,
      "v": 121
    },
    {
      "midi": 68,
      "hit": false,
      "t": 71733.72750000034,
      "d": 64.51600000000326,
      "v": 121
    },
    {
      "midi": 49,
      "hit": false,
      "t": 71854.69500000034,
      "d": 118.95137500000419,
      "v": 121
    },
    {
      "midi": 68,
      "hit": false,
      "t": 71975.6625,
      "d": 63.50793750000594,
      "v": 95
    },
    {
      "midi": 64,
      "hit": false,
      "t": 71975.6625,
      "d": 67.54018750000978,
      "v": 95
    },
    {
      "midi": 59,
      "hit": false,
      "t": 71975.6625,
      "d": 73.58856250000827,
      "v": 95
    },
    {
      "midi": 49,
      "hit": false,
      "t": 71975.66250000034,
      "d": 118.95137500000419,
      "v": 121
    },
    {
      "midi": 61,
      "hit": false,
      "t": 72096.63000000034,
      "d": 64.51600000000326,
      "v": 121
    },
    {
      "midi": 64,
      "hit": false,
      "t": 72096.63000000034,
      "d": 64.51600000000326,
      "v": 121
    },
    {
      "midi": 68,
      "hit": false,
      "t": 72096.63000000034,
      "d": 64.51600000000326,
      "v": 121
    },
    {
      "midi": 61,
      "hit": false,
      "t": 72338.56500000002,
      "d": 32.25800000000163,
      "v": 95
    },
    {
      "midi": 66,
      "hit": false,
      "t": 72338.56500000002,
      "d": 36.29025000000547,
      "v": 93
    },
    {
      "midi": 57,
      "hit": false,
      "t": 72338.56500000002,
      "d": 44.3547499999986,
      "v": 94
    },
    {
      "midi": 50,
      "hit": false,
      "t": 72338.56500000034,
      "d": 360.88637500000186,
      "v": 121
    },
    {
      "midi": 62,
      "hit": false,
      "t": 72338.56500000034,
      "d": 790.3209999999963,
      "v": 121
    },
    {
      "midi": 66,
      "hit": false,
      "t": 72338.56500000034,
      "d": 790.3209999999963,
      "v": 121
    },
    {
      "midi": 69,
      "hit": false,
      "t": 72338.56500000034,
      "d": 790.3209999999963,
      "v": 121
    },
    {
      "midi": 57,
      "hit": false,
      "t": 72459.53250000002,
      "d": 43.34668750000128,
      "v": 94
    },
    {
      "midi": 66,
      "hit": false,
      "t": 72459.53250000002,
      "d": 45.362812499995925,
      "v": 90
    },
    {
      "midi": 61,
      "hit": false,
      "t": 72459.53250000002,
      "d": 53.42731249998906,
      "v": 94
    },
    {
      "midi": 57,
      "hit": false,
      "t": 72580.5,
      "d": 49.39506249999977,
      "v": 95
    },
    {
      "midi": 61,
      "hit": false,
      "t": 72580.5,
      "d": 49.39506249999977,
      "v": 93
    },
    {
      "midi": 66,
      "hit": false,
      "t": 72580.5,
      "d": 77.62081249999756,
      "v": 91
    },
    {
      "midi": 66,
      "hit": false,
      "t": 72701.4675,
      "d": 42.33862500000396,
      "v": 92
    },
    {
      "midi": 61,
      "hit": false,
      "t": 72701.4675,
      "d": 49.39506249999977,
      "v": 96
    },
    {
      "midi": 57,
      "hit": false,
      "t": 72701.4675,
      "d": 71.57243749999907,
      "v": 94
    },
    {
      "midi": 50,
      "hit": false,
      "t": 72822.43500000033,
      "d": 64.51600000000326,
      "v": 121
    },
    {
      "midi": 64,
      "hit": false,
      "t": 72943.4025,
      "d": 73.58856249999371,
      "v": 95
    },
    {
      "midi": 56,
      "hit": false,
      "t": 72943.4025,
      "d": 83.66918749999604,
      "v": 96
    },
    {
      "midi": 59,
      "hit": false,
      "t": 72943.4025,
      "d": 87.70143749999988,
      "v": 97
    },
    {
      "midi": 50,
      "hit": false,
      "t": 72943.40250000033,
      "d": 64.51600000000326,
      "v": 121
    },
    {
      "midi": 50,
      "hit": false,
      "t": 73064.37000000033,
      "d": 64.51600000000326,
      "v": 121
    },
    {
      "midi": 50,
      "hit": false,
      "t": 73185.33750000033,
      "d": 68.5482500000071,
      "v": 121
    },
    {
      "midi": 50,
      "hit": false,
      "t": 73306.30500000034,
      "d": 68.5482500000071,
      "v": 121
    },
    {
      "midi": 50,
      "hit": false,
      "t": 73427.27250000036,
      "d": 68.5482500000071,
      "v": 121
    },
    {
      "midi": 50,
      "hit": false,
      "t": 73548.24000000006,
      "d": 294.35425000000396,
      "v": 99
    },
    {
      "midi": 69,
      "hit": false,
      "t": 73911.14250000007,
      "d": 49.39506249999977,
      "v": 96
    },
    {
      "midi": 66,
      "hit": false,
      "t": 73911.14250000007,
      "d": 63.507937499991385,
      "v": 81
    },
    {
      "midi": 62,
      "hit": false,
      "t": 73911.14250000007,
      "d": 79.6369374999922,
      "v": 81
    },
    {
      "midi": 50,
      "hit": false,
      "t": 74032.11000000007,
      "d": 29.23381249999511,
      "v": 69
    },
    {
      "midi": 64,
      "hit": false,
      "t": 74274.04500000007,
      "d": 397.1766250000219,
      "v": 99
    },
    {
      "midi": 69,
      "hit": false,
      "t": 74274.04500000007,
      "d": 450.6039375000255,
      "v": 108
    },
    {
      "midi": 71,
      "hit": false,
      "t": 74274.04500000007,
      "d": 450.6039375000255,
      "v": 105
    },
    {
      "midi": 64,
      "hit": false,
      "t": 74757.9150000001,
      "d": 89.71756249999453,
      "v": 77
    },
    {
      "midi": 69,
      "hit": false,
      "t": 74757.9150000001,
      "d": 89.71756249999453,
      "v": 77
    },
    {
      "midi": 71,
      "hit": false,
      "t": 74757.9150000001,
      "d": 89.71756249999453,
      "v": 77
    },
    {
      "midi": 49,
      "hit": false,
      "t": 75483.7200000001,
      "d": 295.3623125000013,
      "v": 102
    },
    {
      "midi": 61,
      "hit": false,
      "t": 75846.6225000001,
      "d": 37.298312500002794,
      "v": 84
    },
    {
      "midi": 64,
      "hit": false,
      "t": 75846.6225000001,
      "d": 41.330562500006636,
      "v": 93
    },
    {
      "midi": 49,
      "hit": false,
      "t": 75967.59000000011,
      "d": 53.42731250000361,
      "v": 96
    },
    {
      "midi": 62,
      "hit": false,
      "t": 76209.52500000011,
      "d": 395.16049999999814,
      "v": 102
    },
    {
      "midi": 64,
      "hit": false,
      "t": 76209.52500000011,
      "d": 417.33787499999744,
      "v": 105
    },
    {
      "midi": 69,
      "hit": false,
      "t": 76209.52500000011,
      "d": 431.4507500000036,
      "v": 99
    },
    {
      "midi": 50,
      "hit": false,
      "t": 76209.52500000011,
      "d": 727.8211250000168,
      "v": 108
    },
    {
      "midi": 62,
      "hit": false,
      "t": 76693.39500000012,
      "d": 53.42731250000361,
      "v": 85
    },
    {
      "midi": 64,
      "hit": false,
      "t": 76693.39500000012,
      "d": 53.42731250000361,
      "v": 85
    },
    {
      "midi": 69,
      "hit": false,
      "t": 76693.39500000012,
      "d": 53.42731250000361,
      "v": 85
    },
    {
      "midi": 69,
      "hit": false,
      "t": 77177.26499999997,
      "d": 481.8538750000007,
      "v": 1
    },
    {
      "midi": 50,
      "hit": false,
      "t": 77419.20000000014,
      "d": 294.35425000000396,
      "v": 99
    },
    {
      "midi": 68,
      "hit": false,
      "t": 77661.13499999997,
      "d": 239.91887500000303,
      "v": 1
    },
    {
      "midi": 69,
      "hit": false,
      "t": 77782.10250000015,
      "d": 49.39506249999977,
      "v": 96
    },
    {
      "midi": 66,
      "hit": false,
      "t": 77782.10250000015,
      "d": 63.50793750000594,
      "v": 81
    },
    {
      "midi": 62,
      "hit": false,
      "t": 77782.10250000015,
      "d": 79.63693750000675,
      "v": 81
    },
    {
      "midi": 64,
      "hit": false,
      "t": 77903.06999999996,
      "d": 239.91887500000303,
      "v": 1
    },
    {
      "midi": 50,
      "hit": false,
      "t": 77903.07000000017,
      "d": 29.23381249999511,
      "v": 69
    },
    {
      "midi": 69,
      "hit": false,
      "t": 78145.00499999996,
      "d": 481.8538750000007,
      "v": 1
    },
    {
      "midi": 64,
      "hit": false,
      "t": 78145.00500000016,
      "d": 397.17662500000733,
      "v": 99
    },
    {
      "midi": 69,
      "hit": false,
      "t": 78145.00500000016,
      "d": 450.60393750001094,
      "v": 108
    },
    {
      "midi": 71,
      "hit": false,
      "t": 78145.00500000016,
      "d": 450.60393750001094,
      "v": 105
    },
    {
      "midi": 68,
      "hit": false,
      "t": 78628.87499999996,
      "d": 239.91887500000303,
      "v": 1
    },
    {
      "midi": 64,
      "hit": false,
      "t": 78628.87500000017,
      "d": 89.71756250000908,
      "v": 77
    },
    {
      "midi": 69,
      "hit": false,
      "t": 78628.87500000017,
      "d": 89.71756250000908,
      "v": 77
    },
    {
      "midi": 71,
      "hit": false,
      "t": 78628.87500000017,
      "d": 89.71756250000908,
      "v": 77
    },
    {
      "midi": 64,
      "hit": false,
      "t": 78870.80999999995,
      "d": 239.91887500000303,
      "v": 1
    },
    {
      "midi": 69,
      "hit": false,
      "t": 79112.74499999995,
      "d": 481.8538750000007,
      "v": 1
    },
    {
      "midi": 49,
      "hit": false,
      "t": 79354.68000000021,
      "d": 295.36231250001583,
      "v": 102
    },
    {
      "midi": 68,
      "hit": false,
      "t": 79596.61499999995,
      "d": 239.91887500000303,
      "v": 1
    },
    {
      "midi": 61,
      "hit": false,
      "t": 79717.58250000022,
      "d": 37.298312500002794,
      "v": 84
    },
    {
      "midi": 64,
      "hit": false,
      "t": 79717.58250000022,
      "d": 41.330562500006636,
      "v": 93
    },
    {
      "midi": 64,
      "hit": false,
      "t": 79838.54999999994,
      "d": 195.56412500000442,
      "v": 1
    },
    {
      "midi": 49,
      "hit": false,
      "t": 79838.55000000024,
      "d": 53.42731250000361,
      "v": 96
    },
    {
      "midi": 62,
      "hit": false,
      "t": 80080.48500000025,
      "d": 395.1605000000127,
      "v": 102
    },
    {
      "midi": 64,
      "hit": false,
      "t": 80080.48500000025,
      "d": 417.337875000012,
      "v": 105
    },
    {
      "midi": 69,
      "hit": false,
      "t": 80080.48500000025,
      "d": 431.45075000001816,
      "v": 99
    },
    {
      "midi": 50,
      "hit": false,
      "t": 80080.48500000025,
      "d": 727.8211250000022,
      "v": 108
    },
    {
      "midi": 62,
      "hit": false,
      "t": 80564.35500000026,
      "d": 53.42731250000361,
      "v": 85
    },
    {
      "midi": 64,
      "hit": false,
      "t": 80564.35500000026,
      "d": 53.42731250000361,
      "v": 85
    },
    {
      "midi": 69,
      "hit": false,
      "t": 80564.35500000026,
      "d": 53.42731250000361,
      "v": 85
    },
    {
      "midi": 50,
      "hit": false,
      "t": 81290.16000000027,
      "d": 294.3542500000185,
      "v": 119
    },
    {
      "midi": 69,
      "hit": false,
      "t": 81653.06250000029,
      "d": 49.39506249999977,
      "v": 116
    },
    {
      "midi": 66,
      "hit": false,
      "t": 81653.06250000029,
      "d": 63.50793750000594,
      "v": 101
    },
    {
      "midi": 62,
      "hit": false,
      "t": 81653.06250000029,
      "d": 79.63693750000675,
      "v": 101
    },
    {
      "midi": 50,
      "hit": false,
      "t": 81774.0300000003,
      "d": 29.23381249999511,
      "v": 89
    },
    {
      "midi": 64,
      "hit": false,
      "t": 82015.9650000003,
      "d": 397.1766250000219,
      "v": 119
    },
    {
      "midi": 69,
      "hit": false,
      "t": 82015.9650000003,
      "d": 450.6039375000255,
      "v": 127
    },
    {
      "midi": 71,
      "hit": false,
      "t": 82015.9650000003,
      "d": 450.6039375000255,
      "v": 125
    },
    {
      "midi": 64,
      "hit": false,
      "t": 82499.83500000033,
      "d": 89.71756249999453,
      "v": 97
    },
    {
      "midi": 69,
      "hit": false,
      "t": 82499.83500000033,
      "d": 89.71756249999453,
      "v": 97
    },
    {
      "midi": 71,
      "hit": false,
      "t": 82499.83500000033,
      "d": 89.71756249999453,
      "v": 97
    },
    {
      "midi": 49,
      "hit": false,
      "t": 83225.64000000033,
      "d": 295.3623125000013,
      "v": 122
    },
    {
      "midi": 61,
      "hit": false,
      "t": 83588.54250000033,
      "d": 37.298312500002794,
      "v": 104
    },
    {
      "midi": 64,
      "hit": false,
      "t": 83588.54250000033,
      "d": 41.330562500006636,
      "v": 113
    },
    {
      "midi": 49,
      "hit": false,
      "t": 83709.51000000033,
      "d": 53.42731250000361,
      "v": 116
    },
    {
      "midi": 62,
      "hit": false,
      "t": 83951.44500000034,
      "d": 395.1605000000127,
      "v": 122
    },
    {
      "midi": 64,
      "hit": false,
      "t": 83951.44500000034,
      "d": 417.337875000012,
      "v": 125
    },
    {
      "midi": 69,
      "hit": false,
      "t": 83951.44500000034,
      "d": 431.45075000001816,
      "v": 119
    },
    {
      "midi": 50,
      "hit": false,
      "t": 83951.44500000034,
      "d": 727.8211250000313,
      "v": 127
    },
    {
      "midi": 62,
      "hit": false,
      "t": 84435.31500000037,
      "d": 53.42731250000361,
      "v": 105
    },
    {
      "midi": 64,
      "hit": false,
      "t": 84435.31500000037,
      "d": 53.42731250000361,
      "v": 105
    },
    {
      "midi": 69,
      "hit": false,
      "t": 84435.31500000037,
      "d": 53.42731250000361,
      "v": 105
    },
    {
      "midi": 69,
      "hit": false,
      "t": 85161.11999999995,
      "d": 723.7888749999984,
      "v": 1
    },
    {
      "midi": 73,
      "hit": false,
      "t": 85161.11999999995,
      "d": 723.7888749999984,
      "v": 1
    },
    {
      "midi": 50,
      "hit": false,
      "t": 85161.12000000039,
      "d": 294.35425000000396,
      "v": 119
    },
    {
      "midi": 69,
      "hit": false,
      "t": 85524.0225000004,
      "d": 49.39506249999977,
      "v": 116
    },
    {
      "midi": 66,
      "hit": false,
      "t": 85524.0225000004,
      "d": 63.50793750000594,
      "v": 101
    },
    {
      "midi": 62,
      "hit": false,
      "t": 85524.0225000004,
      "d": 79.63693750000675,
      "v": 101
    },
    {
      "midi": 50,
      "hit": false,
      "t": 85644.99000000041,
      "d": 29.23381249999511,
      "v": 89
    },
    {
      "midi": 68,
      "hit": false,
      "t": 85886.92499999994,
      "d": 239.91887500000303,
      "v": 1
    },
    {
      "midi": 64,
      "hit": false,
      "t": 85886.92500000041,
      "d": 397.17662500000733,
      "v": 119
    },
    {
      "midi": 69,
      "hit": false,
      "t": 85886.92500000041,
      "d": 450.60393750001094,
      "v": 127
    },
    {
      "midi": 71,
      "hit": false,
      "t": 85886.92500000041,
      "d": 450.60393750001094,
      "v": 125
    },
    {
      "midi": 68,
      "hit": false,
      "t": 86128.85999999994,
      "d": 965.723874999996,
      "v": 1
    },
    {
      "midi": 71,
      "hit": false,
      "t": 86128.85999999994,
      "d": 965.723874999996,
      "v": 1
    },
    {
      "midi": 64,
      "hit": false,
      "t": 86370.79500000042,
      "d": 89.71756249999453,
      "v": 97
    },
    {
      "midi": 69,
      "hit": false,
      "t": 86370.79500000042,
      "d": 89.71756249999453,
      "v": 97
    },
    {
      "midi": 71,
      "hit": false,
      "t": 86370.79500000042,
      "d": 89.71756249999453,
      "v": 97
    },
    {
      "midi": 61,
      "hit": false,
      "t": 87096.59999999993,
      "d": 965.723874999996,
      "v": 1
    },
    {
      "midi": 64,
      "hit": false,
      "t": 87096.59999999993,
      "d": 965.723874999996,
      "v": 1
    },
    {
      "midi": 68,
      "hit": false,
      "t": 87096.59999999993,
      "d": 965.723874999996,
      "v": 1
    },
    {
      "midi": 49,
      "hit": false,
      "t": 87096.60000000044,
      "d": 295.3623125000013,
      "v": 122
    },
    {
      "midi": 61,
      "hit": false,
      "t": 87459.50250000044,
      "d": 37.298312500002794,
      "v": 104
    },
    {
      "midi": 64,
      "hit": false,
      "t": 87459.50250000044,
      "d": 41.330562500006636,
      "v": 113
    },
    {
      "midi": 49,
      "hit": false,
      "t": 87580.47000000045,
      "d": 53.42731250000361,
      "v": 116
    },
    {
      "midi": 62,
      "hit": false,
      "t": 87822.40500000045,
      "d": 395.1605000000127,
      "v": 122
    },
    {
      "midi": 64,
      "hit": false,
      "t": 87822.40500000045,
      "d": 417.337875000012,
      "v": 125
    },
    {
      "midi": 69,
      "hit": false,
      "t": 87822.40500000045,
      "d": 431.45075000001816,
      "v": 119
    },
    {
      "midi": 50,
      "hit": false,
      "t": 87822.40500000045,
      "d": 727.8211250000168,
      "v": 127
    },
    {
      "midi": 62,
      "hit": false,
      "t": 88064.33999999992,
      "d": 965.723874999996,
      "v": 1
    },
    {
      "midi": 64,
      "hit": false,
      "t": 88064.33999999992,
      "d": 965.723874999996,
      "v": 1
    },
    {
      "midi": 69,
      "hit": false,
      "t": 88064.33999999992,
      "d": 965.723874999996,
      "v": 1
    },
    {
      "midi": 62,
      "hit": false,
      "t": 88306.27500000047,
      "d": 53.42731249998906,
      "v": 105
    },
    {
      "midi": 64,
      "hit": false,
      "t": 88306.27500000047,
      "d": 53.42731249998906,
      "v": 105
    },
    {
      "midi": 69,
      "hit": false,
      "t": 88306.27500000047,
      "d": 53.42731249998906,
      "v": 105
    },
    {
      "midi": 66,
      "hit": false,
      "t": 89032.07999999991,
      "d": 481.8538750000007,
      "v": 1
    },
    {
      "midi": 69,
      "hit": false,
      "t": 89032.07999999991,
      "d": 481.8538750000007,
      "v": 1
    },
    {
      "midi": 50,
      "hit": false,
      "t": 89032.08000000047,
      "d": 294.35425000000396,
      "v": 109
    },
    {
      "midi": 69,
      "hit": false,
      "t": 89394.98250000048,
      "d": 49.39506249999977,
      "v": 106
    },
    {
      "midi": 66,
      "hit": false,
      "t": 89394.98250000048,
      "d": 63.50793750000594,
      "v": 91
    },
    {
      "midi": 62,
      "hit": false,
      "t": 89394.98250000048,
      "d": 79.63693750000675,
      "v": 91
    },
    {
      "midi": 61,
      "hit": false,
      "t": 89515.94999999991,
      "d": 239.91887500000303,
      "v": 1
    },
    {
      "midi": 66,
      "hit": false,
      "t": 89515.94999999991,
      "d": 239.91887500000303,
      "v": 1
    },
    {
      "midi": 50,
      "hit": false,
      "t": 89515.95000000049,
      "d": 29.23381249999511,
      "v": 79
    },
    {
      "midi": 68,
      "hit": false,
      "t": 89757.88499999991,
      "d": 823.5870624999952,
      "v": 1
    },
    {
      "midi": 64,
      "hit": false,
      "t": 89757.88499999991,
      "d": 837.6999375000014,
      "v": 1
    },
    {
      "midi": 64,
      "hit": false,
      "t": 89757.88500000049,
      "d": 397.1766249999928,
      "v": 109
    },
    {
      "midi": 69,
      "hit": false,
      "t": 89757.88500000049,
      "d": 450.6039374999964,
      "v": 118
    },
    {
      "midi": 71,
      "hit": false,
      "t": 89757.88500000049,
      "d": 450.6039374999964,
      "v": 115
    },
    {
      "midi": 64,
      "hit": false,
      "t": 90241.75500000048,
      "d": 89.71756249999453,
      "v": 87
    },
    {
      "midi": 69,
      "hit": false,
      "t": 90241.75500000048,
      "d": 89.71756249999453,
      "v": 87
    },
    {
      "midi": 71,
      "hit": false,
      "t": 90241.75500000048,
      "d": 89.71756249999453,
      "v": 87
    },
    {
      "midi": 49,
      "hit": false,
      "t": 90967.56000000048,
      "d": 295.3623125000013,
      "v": 112
    },
    {
      "midi": 61,
      "hit": false,
      "t": 91330.46250000047,
      "d": 37.298312500002794,
      "v": 94
    },
    {
      "midi": 64,
      "hit": false,
      "t": 91330.46250000047,
      "d": 41.330562500006636,
      "v": 103
    },
    {
      "midi": 49,
      "hit": false,
      "t": 91451.43000000049,
      "d": 53.42731250000361,
      "v": 106
    },
    {
      "midi": 62,
      "hit": false,
      "t": 91693.36500000049,
      "d": 395.16049999999814,
      "v": 112
    },
    {
      "midi": 64,
      "hit": false,
      "t": 91693.36500000049,
      "d": 417.33787499999744,
      "v": 115
    },
    {
      "midi": 69,
      "hit": false,
      "t": 91693.36500000049,
      "d": 431.4507500000036,
      "v": 109
    },
    {
      "midi": 50,
      "hit": false,
      "t": 91693.36500000049,
      "d": 727.8211250000168,
      "v": 118
    },
    {
      "midi": 62,
      "hit": false,
      "t": 92177.2350000005,
      "d": 53.42731250000361,
      "v": 95
    },
    {
      "midi": 64,
      "hit": false,
      "t": 92177.2350000005,
      "d": 53.42731250000361,
      "v": 95
    },
    {
      "midi": 69,
      "hit": false,
      "t": 92177.2350000005,
      "d": 53.42731250000361,
      "v": 95
    },
    {
      "midi": 66,
      "hit": false,
      "t": 92903.0399999999,
      "d": 723.7888749999984,
      "v": 1
    },
    {
      "midi": 69,
      "hit": false,
      "t": 92903.0399999999,
      "d": 723.7888749999984,
      "v": 1
    },
    {
      "midi": 73,
      "hit": false,
      "t": 92903.0399999999,
      "d": 723.7888749999984,
      "v": 1
    },
    {
      "midi": 50,
      "hit": false,
      "t": 92903.0400000005,
      "d": 294.35425000000396,
      "v": 109
    },
    {
      "midi": 69,
      "hit": false,
      "t": 93265.94250000051,
      "d": 49.39506249999977,
      "v": 106
    },
    {
      "midi": 66,
      "hit": false,
      "t": 93265.94250000051,
      "d": 63.50793750000594,
      "v": 91
    },
    {
      "midi": 62,
      "hit": false,
      "t": 93265.94250000051,
      "d": 79.63693750000675,
      "v": 91
    },
    {
      "midi": 50,
      "hit": false,
      "t": 93386.91000000053,
      "d": 29.23381249999511,
      "v": 79
    },
    {
      "midi": 68,
      "hit": false,
      "t": 93628.8449999999,
      "d": 823.5870624999952,
      "v": 1
    },
    {
      "midi": 71,
      "hit": false,
      "t": 93628.8449999999,
      "d": 823.5870624999952,
      "v": 1
    },
    {
      "midi": 64,
      "hit": false,
      "t": 93628.8449999999,
      "d": 837.6999375000014,
      "v": 1
    },
    {
      "midi": 64,
      "hit": false,
      "t": 93628.84500000053,
      "d": 397.1766249999928,
      "v": 109
    },
    {
      "midi": 69,
      "hit": false,
      "t": 93628.84500000053,
      "d": 450.6039374999964,
      "v": 118
    },
    {
      "midi": 71,
      "hit": false,
      "t": 93628.84500000053,
      "d": 450.6039374999964,
      "v": 115
    },
    {
      "midi": 64,
      "hit": false,
      "t": 94112.71500000052,
      "d": 89.71756249999453,
      "v": 87
    },
    {
      "midi": 69,
      "hit": false,
      "t": 94112.71500000052,
      "d": 89.71756249999453,
      "v": 87
    },
    {
      "midi": 71,
      "hit": false,
      "t": 94112.71500000052,
      "d": 89.71756249999453,
      "v": 87
    },
    {
      "midi": 50,
      "hit": false,
      "t": 94838.52000000037,
      "d": 1259.0700624999881,
      "v": 120
    },
    {
      "midi": 71,
      "hit": false,
      "t": 94838.52000000051,
      "d": 321.5719375000044,
      "v": 97
    },
    {
      "midi": 68,
      "hit": false,
      "t": 94838.52000000051,
      "d": 337.70093750000524,
      "v": 109
    },
    {
      "midi": 53,
      "hit": false,
      "t": 95322.39000000036,
      "d": 1259.0700624999881,
      "v": 120
    },
    {
      "midi": 68,
      "hit": false,
      "t": 95322.39000000052,
      "d": 379.0314999999973,
      "v": 100
    },
    {
      "midi": 74,
      "hit": false,
      "t": 95322.39000000052,
      "d": 384.0718124999985,
      "v": 109
    },
    {
      "midi": 71,
      "hit": false,
      "t": 95322.39000000052,
      "d": 393.1443750000035,
      "v": 94
    },
    {
      "midi": 56,
      "hit": false,
      "t": 95806.26000000036,
      "d": 794.3532499999856,
      "v": 114
    },
    {
      "midi": 68,
      "hit": false,
      "t": 95806.26000000053,
      "d": 418.34593749999476,
      "v": 115
    },
    {
      "midi": 71,
      "hit": false,
      "t": 95806.26000000053,
      "d": 427.41849999999977,
      "v": 112
    },
    {
      "midi": 74,
      "hit": false,
      "t": 95806.26000000053,
      "d": 451.6119999999937,
      "v": 106
    },
    {
      "midi": 59,
      "hit": false,
      "t": 96290.13000000035,
      "d": 408.26531249999243,
      "v": 117
    },
    {
      "midi": 77,
      "hit": false,
      "t": 96290.13000000053,
      "d": 245.9672500000015,
      "v": 112
    },
    {
      "midi": 68,
      "hit": false,
      "t": 96290.13000000053,
      "d": 278.22525000000314,
      "v": 109
    },
    {
      "midi": 71,
      "hit": false,
      "t": 96290.13000000053,
      "d": 292.3381250000093,
      "v": 97
    },
    {
      "midi": 74,
      "hit": false,
      "t": 96290.13000000053,
      "d": 320.5638750000071,
      "v": 97
    },
    {
      "midi": 57,
      "hit": false,
      "t": 96773.9999999999,
      "d": 1556.4484999999986,
      "v": 1
    },
    {
      "midi": 69,
      "hit": false,
      "t": 96773.9999999999,
      "d": 1556.4484999999986,
      "v": 1
    },
    {
      "midi": 66,
      "hit": false,
      "t": 96774,
      "d": 247.98337499999616,
      "v": 94
    },
    {
      "midi": 50,
      "hit": false,
      "t": 96774.00000000035,
      "d": 360.88637500000186,
      "v": 121
    },
    {
      "midi": 54,
      "hit": false,
      "t": 97015.935,
      "d": 109.87881249999919,
      "v": 96
    },
    {
      "midi": 64,
      "hit": false,
      "t": 97136.9025,
      "d": 101.81431250000605,
      "v": 96
    },
    {
      "midi": 50,
      "hit": false,
      "t": 97136.90250000035,
      "d": 64.51600000000326,
      "v": 121
    },
    {
      "midi": 62,
      "hit": false,
      "t": 97257.87000000034,
      "d": 64.51600000000326,
      "v": 121
    },
    {
      "midi": 66,
      "hit": false,
      "t": 97257.87000000034,
      "d": 64.51600000000326,
      "v": 121
    },
    {
      "midi": 69,
      "hit": false,
      "t": 97257.87000000034,
      "d": 64.51600000000326,
      "v": 121
    },
    {
      "midi": 50,
      "hit": false,
      "t": 97378.83750000034,
      "d": 64.51600000000326,
      "v": 121
    },
    {
      "midi": 52,
      "hit": false,
      "t": 97499.80500000034,
      "d": 360.88637500000186,
      "v": 121
    },
    {
      "midi": 52,
      "hit": false,
      "t": 97983.675,
      "d": 49.39506249999977,
      "v": 93
    },
    {
      "midi": 52,
      "hit": false,
      "t": 97983.67500000034,
      "d": 64.51600000000326,
      "v": 121
    },
    {
      "midi": 64,
      "hit": false,
      "t": 98104.6425,
      "d": 30.241875000006985,
      "v": 95
    },
    {
      "midi": 69,
      "hit": false,
      "t": 98104.6425,
      "d": 43.34668750000128,
      "v": 95
    },
    {
      "midi": 61,
      "hit": false,
      "t": 98104.6425,
      "d": 53.42731250000361,
      "v": 96
    },
    {
      "midi": 52,
      "hit": false,
      "t": 98104.64250000034,
      "d": 64.51600000000326,
      "v": 121
    },
    {
      "midi": 64,
      "hit": false,
      "t": 98225.61000000034,
      "d": 64.51600000000326,
      "v": 121
    },
    {
      "midi": 69,
      "hit": false,
      "t": 98225.61000000034,
      "d": 64.51600000000326,
      "v": 121
    },
    {
      "midi": 71,
      "hit": false,
      "t": 98225.61000000034,
      "d": 64.51600000000326,
      "v": 121
    },
    {
      "midi": 52,
      "hit": false,
      "t": 98346.5775,
      "d": 50.40312499999709,
      "v": 95
    },
    {
      "midi": 52,
      "hit": false,
      "t": 98346.57750000033,
      "d": 68.5482500000071,
      "v": 121
    },
    {
      "midi": 64,
      "hit": false,
      "t": 98467.545,
      "d": 32.25800000000163,
      "v": 95
    },
    {
      "midi": 68,
      "hit": false,
      "t": 98467.545,
      "d": 34.274124999996275,
      "v": 93
    },
    {
      "midi": 59,
      "hit": false,
      "t": 98467.545,
      "d": 50.40312499999709,
      "v": 95
    },
    {
      "midi": 52,
      "hit": false,
      "t": 98467.54500000035,
      "d": 68.5482500000071,
      "v": 121
    },
    {
      "midi": 64,
      "hit": false,
      "t": 98588.5125,
      "d": 34.274124999996275,
      "v": 96
    },
    {
      "midi": 68,
      "hit": false,
      "t": 98588.5125,
      "d": 40.32249999999476,
      "v": 96
    },
    {
      "midi": 59,
      "hit": false,
      "t": 98588.5125,
      "d": 47.37893749999057,
      "v": 95
    },
    {
      "midi": 52,
      "hit": false,
      "t": 98588.51250000036,
      "d": 68.5482500000071,
      "v": 121
    },
    {
      "midi": 49,
      "hit": false,
      "t": 98709.48000000037,
      "d": 118.95137500000419,
      "v": 121
    },
    {
      "midi": 68,
      "hit": false,
      "t": 98951.415,
      "d": 49.39506249999977,
      "v": 95
    },
    {
      "midi": 71,
      "hit": false,
      "t": 98951.415,
      "d": 53.42731250000361,
      "v": 94
    },
    {
      "midi": 64,
      "hit": false,
      "t": 98951.415,
      "d": 65.52406250000058,
      "v": 95
    },
    {
      "midi": 59,
      "hit": false,
      "t": 98951.41500000037,
      "d": 64.51600000000326,
      "v": 121
    },
    {
      "midi": 64,
      "hit": false,
      "t": 98951.41500000037,
      "d": 64.51600000000326,
      "v": 121
    },
    {
      "midi": 68,
      "hit": false,
      "t": 98951.41500000037,
      "d": 64.51600000000326,
      "v": 121
    },
    {
      "midi": 49,
      "hit": false,
      "t": 99072.38250000037,
      "d": 360.88637500000186,
      "v": 121
    },
    {
      "midi": 50,
      "hit": false,
      "t": 99435.28500000037,
      "d": 360.88637500000186,
      "v": 121
    },
    {
      "midi": 50,
      "hit": false,
      "t": 99919.15500000036,
      "d": 64.51600000000326,
      "v": 121
    },
    {
      "midi": 50,
      "hit": false,
      "t": 100040.12250000036,
      "d": 64.51600000000326,
      "v": 121
    },
    {
      "midi": 62,
      "hit": false,
      "t": 100161.09000000036,
      "d": 64.51600000000326,
      "v": 121
    },
    {
      "midi": 64,
      "hit": false,
      "t": 100161.09000000036,
      "d": 64.51600000000326,
      "v": 121
    },
    {
      "midi": 69,
      "hit": false,
      "t": 100161.09000000036,
      "d": 64.51600000000326,
      "v": 121
    },
    {
      "midi": 50,
      "hit": false,
      "t": 100282.05750000036,
      "d": 68.5482500000071,
      "v": 121
    },
    {
      "midi": 50,
      "hit": false,
      "t": 100403.02500000037,
      "d": 68.5482500000071,
      "v": 121
    },
    {
      "midi": 50,
      "hit": false,
      "t": 100523.99250000039,
      "d": 68.5482500000071,
      "v": 121
    },
    {
      "midi": 66,
      "hit": false,
      "t": 100644.95999999999,
      "d": 247.98337499999616,
      "v": 94
    },
    {
      "midi": 50,
      "hit": false,
      "t": 100644.9600000004,
      "d": 360.88637500000186,
      "v": 121
    },
    {
      "midi": 54,
      "hit": false,
      "t": 100886.89499999999,
      "d": 109.87881249999919,
      "v": 96
    },
    {
      "midi": 64,
      "hit": false,
      "t": 101007.86249999999,
      "d": 101.81431250000605,
      "v": 96
    },
    {
      "midi": 50,
      "hit": false,
      "t": 101007.8625000004,
      "d": 64.51600000000326,
      "v": 121
    },
    {
      "midi": 62,
      "hit": false,
      "t": 101128.8300000004,
      "d": 64.51600000000326,
      "v": 121
    },
    {
      "midi": 66,
      "hit": false,
      "t": 101128.8300000004,
      "d": 64.51600000000326,
      "v": 121
    },
    {
      "midi": 69,
      "hit": false,
      "t": 101128.8300000004,
      "d": 64.51600000000326,
      "v": 121
    },
    {
      "midi": 50,
      "hit": false,
      "t": 101249.7975000004,
      "d": 64.51600000000326,
      "v": 121
    },
    {
      "midi": 52,
      "hit": false,
      "t": 101370.76500000039,
      "d": 360.88637500000186,
      "v": 121
    },
    {
      "midi": 52,
      "hit": false,
      "t": 101854.635,
      "d": 49.39506249999977,
      "v": 93
    },
    {
      "midi": 52,
      "hit": false,
      "t": 101854.63500000039,
      "d": 64.51600000000326,
      "v": 121
    },
    {
      "midi": 64,
      "hit": false,
      "t": 101975.6025,
      "d": 30.241875000006985,
      "v": 95
    },
    {
      "midi": 69,
      "hit": false,
      "t": 101975.6025,
      "d": 43.34668750000128,
      "v": 95
    },
    {
      "midi": 61,
      "hit": false,
      "t": 101975.6025,
      "d": 53.42731250000361,
      "v": 96
    },
    {
      "midi": 52,
      "hit": false,
      "t": 101975.60250000039,
      "d": 64.51600000000326,
      "v": 121
    },
    {
      "midi": 64,
      "hit": false,
      "t": 102096.57000000039,
      "d": 64.51600000000326,
      "v": 121
    },
    {
      "midi": 69,
      "hit": false,
      "t": 102096.57000000039,
      "d": 64.51600000000326,
      "v": 121
    },
    {
      "midi": 71,
      "hit": false,
      "t": 102096.57000000039,
      "d": 64.51600000000326,
      "v": 121
    },
    {
      "midi": 52,
      "hit": false,
      "t": 102217.53749999999,
      "d": 50.40312499999709,
      "v": 95
    },
    {
      "midi": 52,
      "hit": false,
      "t": 102217.53750000038,
      "d": 68.5482500000071,
      "v": 121
    },
    {
      "midi": 64,
      "hit": false,
      "t": 102338.50499999999,
      "d": 32.25800000000163,
      "v": 95
    },
    {
      "midi": 68,
      "hit": false,
      "t": 102338.50499999999,
      "d": 34.274124999996275,
      "v": 93
    },
    {
      "midi": 59,
      "hit": false,
      "t": 102338.50499999999,
      "d": 50.40312499999709,
      "v": 95
    },
    {
      "midi": 52,
      "hit": false,
      "t": 102338.5050000004,
      "d": 68.5482500000071,
      "v": 121
    },
    {
      "midi": 64,
      "hit": false,
      "t": 102459.47249999999,
      "d": 34.274124999996275,
      "v": 96
    },
    {
      "midi": 68,
      "hit": false,
      "t": 102459.47249999999,
      "d": 40.32249999999476,
      "v": 96
    },
    {
      "midi": 59,
      "hit": false,
      "t": 102459.47249999999,
      "d": 47.37893749999057,
      "v": 95
    },
    {
      "midi": 52,
      "hit": false,
      "t": 102459.47250000041,
      "d": 68.5482500000071,
      "v": 121
    },
    {
      "midi": 49,
      "hit": false,
      "t": 102580.44000000042,
      "d": 118.95137500000419,
      "v": 121
    },
    {
      "midi": 66,
      "hit": false,
      "t": 102701.40749999999,
      "d": 49.39506249999977,
      "v": 94
    },
    {
      "midi": 69,
      "hit": false,
      "t": 102701.40749999999,
      "d": 67.54018749999523,
      "v": 95
    },
    {
      "midi": 61,
      "hit": false,
      "t": 102701.40749999999,
      "d": 77.62081249999756,
      "v": 94
    },
    {
      "midi": 61,
      "hit": false,
      "t": 102701.40750000042,
      "d": 64.51600000000326,
      "v": 121
    },
    {
      "midi": 66,
      "hit": false,
      "t": 102701.40750000042,
      "d": 64.51600000000326,
      "v": 121
    },
    {
      "midi": 68,
      "hit": false,
      "t": 102701.40750000042,
      "d": 64.51600000000326,
      "v": 121
    },
    {
      "midi": 49,
      "hit": false,
      "t": 102822.37500000042,
      "d": 118.95137500000419,
      "v": 121
    },
    {
      "midi": 68,
      "hit": false,
      "t": 102943.34249999998,
      "d": 63.50793750000594,
      "v": 95
    },
    {
      "midi": 64,
      "hit": false,
      "t": 102943.34249999998,
      "d": 67.54018750000978,
      "v": 95
    },
    {
      "midi": 59,
      "hit": false,
      "t": 102943.34249999998,
      "d": 73.58856250000827,
      "v": 95
    },
    {
      "midi": 49,
      "hit": false,
      "t": 102943.34250000042,
      "d": 118.95137500000419,
      "v": 121
    },
    {
      "midi": 61,
      "hit": false,
      "t": 103064.31000000042,
      "d": 64.51600000000326,
      "v": 121
    },
    {
      "midi": 64,
      "hit": false,
      "t": 103064.31000000042,
      "d": 64.51600000000326,
      "v": 121
    },
    {
      "midi": 68,
      "hit": false,
      "t": 103064.31000000042,
      "d": 64.51600000000326,
      "v": 121
    },
    {
      "midi": 61,
      "hit": false,
      "t": 103306.245,
      "d": 32.25800000000163,
      "v": 95
    },
    {
      "midi": 66,
      "hit": false,
      "t": 103306.245,
      "d": 36.29025000000547,
      "v": 93
    },
    {
      "midi": 57,
      "hit": false,
      "t": 103306.245,
      "d": 44.3547499999986,
      "v": 94
    },
    {
      "midi": 50,
      "hit": false,
      "t": 103306.24500000042,
      "d": 360.88637500000186,
      "v": 121
    },
    {
      "midi": 62,
      "hit": false,
      "t": 103306.24500000042,
      "d": 790.3209999999963,
      "v": 121
    },
    {
      "midi": 66,
      "hit": false,
      "t": 103306.24500000042,
      "d": 790.3209999999963,
      "v": 121
    },
    {
      "midi": 69,
      "hit": false,
      "t": 103306.24500000042,
      "d": 790.3209999999963,
      "v": 121
    },
    {
      "midi": 57,
      "hit": false,
      "t": 103427.2125,
      "d": 43.34668750000128,
      "v": 94
    },
    {
      "midi": 66,
      "hit": false,
      "t": 103427.2125,
      "d": 45.362812499995925,
      "v": 90
    },
    {
      "midi": 61,
      "hit": false,
      "t": 103427.2125,
      "d": 53.42731249998906,
      "v": 94
    },
    {
      "midi": 57,
      "hit": false,
      "t": 103548.17999999998,
      "d": 49.39506249999977,
      "v": 95
    },
    {
      "midi": 61,
      "hit": false,
      "t": 103548.17999999998,
      "d": 49.39506249999977,
      "v": 93
    },
    {
      "midi": 66,
      "hit": false,
      "t": 103548.17999999998,
      "d": 77.62081249999756,
      "v": 91
    },
    {
      "midi": 66,
      "hit": false,
      "t": 103669.14749999998,
      "d": 42.33862500000396,
      "v": 92
    },
    {
      "midi": 61,
      "hit": false,
      "t": 103669.14749999998,
      "d": 49.39506249999977,
      "v": 96
    },
    {
      "midi": 57,
      "hit": false,
      "t": 103669.14749999998,
      "d": 71.57243749999907,
      "v": 94
    },
    {
      "midi": 50,
      "hit": false,
      "t": 103790.11500000041,
      "d": 64.51600000000326,
      "v": 121
    },
    {
      "midi": 64,
      "hit": false,
      "t": 103911.08249999997,
      "d": 73.58856249999371,
      "v": 95
    },
    {
      "midi": 56,
      "hit": false,
      "t": 103911.08249999997,
      "d": 83.66918749999604,
      "v": 96
    },
    {
      "midi": 59,
      "hit": false,
      "t": 103911.08249999997,
      "d": 87.70143749999988,
      "v": 97
    },
    {
      "midi": 50,
      "hit": false,
      "t": 103911.08250000041,
      "d": 64.51600000000326,
      "v": 121
    },
    {
      "midi": 56,
      "hit": false,
      "t": 104032.0499999999,
      "d": 239.91887500000303,
      "v": 1
    },
    {
      "midi": 68,
      "hit": false,
      "t": 104032.0499999999,
      "d": 239.91887500000303,
      "v": 1
    },
    {
      "midi": 50,
      "hit": false,
      "t": 104032.05000000041,
      "d": 64.51600000000326,
      "v": 121
    },
    {
      "midi": 50,
      "hit": false,
      "t": 104153.01750000041,
      "d": 68.5482500000071,
      "v": 121
    },
    {
      "midi": 57,
      "hit": false,
      "t": 104273.9849999999,
      "d": 1556.4484999999986,
      "v": 1
    },
    {
      "midi": 69,
      "hit": false,
      "t": 104273.9849999999,
      "d": 1556.4484999999986,
      "v": 1
    },
    {
      "midi": 50,
      "hit": false,
      "t": 104273.98500000042,
      "d": 68.5482500000071,
      "v": 121
    },
    {
      "midi": 50,
      "hit": false,
      "t": 104394.95250000044,
      "d": 68.5482500000071,
      "v": 121
    },
    {
      "midi": 66,
      "hit": false,
      "t": 104515.91999999997,
      "d": 247.98337499999616,
      "v": 94
    },
    {
      "midi": 50,
      "hit": false,
      "t": 104515.92000000045,
      "d": 360.88637500000186,
      "v": 121
    },
    {
      "midi": 54,
      "hit": false,
      "t": 104757.85499999997,
      "d": 109.87881249999919,
      "v": 96
    },
    {
      "midi": 64,
      "hit": false,
      "t": 104878.82249999997,
      "d": 101.81431250000605,
      "v": 96
    },
    {
      "midi": 50,
      "hit": false,
      "t": 104878.82250000045,
      "d": 64.51600000000326,
      "v": 121
    },
    {
      "midi": 62,
      "hit": false,
      "t": 104999.79000000044,
      "d": 64.51600000000326,
      "v": 121
    },
    {
      "midi": 66,
      "hit": false,
      "t": 104999.79000000044,
      "d": 64.51600000000326,
      "v": 121
    },
    {
      "midi": 69,
      "hit": false,
      "t": 104999.79000000044,
      "d": 64.51600000000326,
      "v": 121
    },
    {
      "midi": 50,
      "hit": false,
      "t": 105120.75750000044,
      "d": 64.51600000000326,
      "v": 121
    },
    {
      "midi": 52,
      "hit": false,
      "t": 105241.72500000044,
      "d": 360.88637500000186,
      "v": 121
    },
    {
      "midi": 52,
      "hit": false,
      "t": 105725.59499999997,
      "d": 49.39506249999977,
      "v": 93
    },
    {
      "midi": 52,
      "hit": false,
      "t": 105725.59500000044,
      "d": 64.51600000000326,
      "v": 121
    },
    {
      "midi": 64,
      "hit": false,
      "t": 105846.56249999997,
      "d": 30.241875000006985,
      "v": 95
    },
    {
      "midi": 69,
      "hit": false,
      "t": 105846.56249999997,
      "d": 43.34668750000128,
      "v": 95
    },
    {
      "midi": 61,
      "hit": false,
      "t": 105846.56249999997,
      "d": 53.42731250000361,
      "v": 96
    },
    {
      "midi": 52,
      "hit": false,
      "t": 105846.56250000044,
      "d": 64.51600000000326,
      "v": 121
    },
    {
      "midi": 64,
      "hit": false,
      "t": 105967.53000000044,
      "d": 64.51600000000326,
      "v": 121
    },
    {
      "midi": 69,
      "hit": false,
      "t": 105967.53000000044,
      "d": 64.51600000000326,
      "v": 121
    },
    {
      "midi": 71,
      "hit": false,
      "t": 105967.53000000044,
      "d": 64.51600000000326,
      "v": 121
    },
    {
      "midi": 52,
      "hit": false,
      "t": 106088.49749999997,
      "d": 50.40312499999709,
      "v": 95
    },
    {
      "midi": 52,
      "hit": false,
      "t": 106088.49750000043,
      "d": 68.5482500000071,
      "v": 121
    },
    {
      "midi": 64,
      "hit": false,
      "t": 106209.46499999997,
      "d": 32.25800000000163,
      "v": 95
    },
    {
      "midi": 68,
      "hit": false,
      "t": 106209.46499999997,
      "d": 34.274124999996275,
      "v": 93
    },
    {
      "midi": 59,
      "hit": false,
      "t": 106209.46499999997,
      "d": 50.40312499999709,
      "v": 95
    },
    {
      "midi": 52,
      "hit": false,
      "t": 106209.46500000045,
      "d": 68.5482500000071,
      "v": 121
    },
    {
      "midi": 64,
      "hit": false,
      "t": 106330.43249999997,
      "d": 34.274124999996275,
      "v": 96
    },
    {
      "midi": 68,
      "hit": false,
      "t": 106330.43249999997,
      "d": 40.32249999999476,
      "v": 96
    },
    {
      "midi": 59,
      "hit": false,
      "t": 106330.43249999997,
      "d": 47.37893749999057,
      "v": 95
    },
    {
      "midi": 52,
      "hit": false,
      "t": 106330.43250000046,
      "d": 68.5482500000071,
      "v": 121
    },
    {
      "midi": 49,
      "hit": false,
      "t": 106451.40000000047,
      "d": 118.95137500000419,
      "v": 121
    },
    {
      "midi": 68,
      "hit": false,
      "t": 106693.33499999996,
      "d": 49.39506249999977,
      "v": 95
    },
    {
      "midi": 71,
      "hit": false,
      "t": 106693.33499999996,
      "d": 53.42731250000361,
      "v": 94
    },
    {
      "midi": 64,
      "hit": false,
      "t": 106693.33499999996,
      "d": 65.52406250000058,
      "v": 95
    },
    {
      "midi": 59,
      "hit": false,
      "t": 106693.33500000047,
      "d": 64.51600000000326,
      "v": 121
    },
    {
      "midi": 64,
      "hit": false,
      "t": 106693.33500000047,
      "d": 64.51600000000326,
      "v": 121
    },
    {
      "midi": 68,
      "hit": false,
      "t": 106693.33500000047,
      "d": 64.51600000000326,
      "v": 121
    },
    {
      "midi": 49,
      "hit": false,
      "t": 106814.30250000047,
      "d": 360.88637500000186,
      "v": 121
    },
    {
      "midi": 50,
      "hit": false,
      "t": 107177.20500000047,
      "d": 360.88637500000186,
      "v": 121
    },
    {
      "midi": 50,
      "hit": false,
      "t": 107661.07500000046,
      "d": 64.51600000000326,
      "v": 121
    },
    {
      "midi": 50,
      "hit": false,
      "t": 107782.04250000046,
      "d": 64.51600000000326,
      "v": 121
    },
    {
      "midi": 62,
      "hit": false,
      "t": 107903.01000000046,
      "d": 64.51600000000326,
      "v": 121
    },
    {
      "midi": 64,
      "hit": false,
      "t": 107903.01000000046,
      "d": 64.51600000000326,
      "v": 121
    },
    {
      "midi": 69,
      "hit": false,
      "t": 107903.01000000046,
      "d": 64.51600000000326,
      "v": 121
    },
    {
      "midi": 50,
      "hit": false,
      "t": 108023.97750000046,
      "d": 68.5482500000071,
      "v": 121
    },
    {
      "midi": 50,
      "hit": false,
      "t": 108144.94500000047,
      "d": 68.5482500000071,
      "v": 121
    },
    {
      "midi": 50,
      "hit": false,
      "t": 108265.91250000049,
      "d": 68.5482500000071,
      "v": 121
    },
    {
      "midi": 66,
      "hit": false,
      "t": 108386.87999999996,
      "d": 247.98337499999616,
      "v": 94
    },
    {
      "midi": 50,
      "hit": false,
      "t": 108386.8800000005,
      "d": 360.88637500000186,
      "v": 121
    },
    {
      "midi": 54,
      "hit": false,
      "t": 108628.81499999996,
      "d": 109.87881249999919,
      "v": 96
    },
    {
      "midi": 64,
      "hit": false,
      "t": 108749.78249999996,
      "d": 101.81431250000605,
      "v": 96
    },
    {
      "midi": 50,
      "hit": false,
      "t": 108749.7825000005,
      "d": 64.51600000000326,
      "v": 121
    },
    {
      "midi": 62,
      "hit": false,
      "t": 108870.7500000005,
      "d": 64.51600000000326,
      "v": 121
    },
    {
      "midi": 66,
      "hit": false,
      "t": 108870.7500000005,
      "d": 64.51600000000326,
      "v": 121
    },
    {
      "midi": 69,
      "hit": false,
      "t": 108870.7500000005,
      "d": 64.51600000000326,
      "v": 121
    },
    {
      "midi": 50,
      "hit": false,
      "t": 108991.7175000005,
      "d": 64.51600000000326,
      "v": 121
    },
    {
      "midi": 52,
      "hit": false,
      "t": 109112.68500000049,
      "d": 360.88637500000186,
      "v": 121
    },
    {
      "midi": 52,
      "hit": false,
      "t": 109596.55499999996,
      "d": 49.39506249999977,
      "v": 93
    },
    {
      "midi": 52,
      "hit": false,
      "t": 109596.55500000049,
      "d": 64.51600000000326,
      "v": 121
    },
    {
      "midi": 64,
      "hit": false,
      "t": 109717.52249999996,
      "d": 30.241875000006985,
      "v": 95
    },
    {
      "midi": 69,
      "hit": false,
      "t": 109717.52249999996,
      "d": 43.34668750000128,
      "v": 95
    },
    {
      "midi": 61,
      "hit": false,
      "t": 109717.52249999996,
      "d": 53.42731250000361,
      "v": 96
    },
    {
      "midi": 52,
      "hit": false,
      "t": 109717.52250000049,
      "d": 64.51600000000326,
      "v": 121
    },
    {
      "midi": 64,
      "hit": false,
      "t": 109838.49000000049,
      "d": 64.51600000000326,
      "v": 121
    },
    {
      "midi": 69,
      "hit": false,
      "t": 109838.49000000049,
      "d": 64.51600000000326,
      "v": 121
    },
    {
      "midi": 71,
      "hit": false,
      "t": 109838.49000000049,
      "d": 64.51600000000326,
      "v": 121
    },
    {
      "midi": 52,
      "hit": false,
      "t": 109959.45749999996,
      "d": 50.40312499999709,
      "v": 95
    },
    {
      "midi": 52,
      "hit": false,
      "t": 109959.45750000048,
      "d": 68.5482500000071,
      "v": 121
    },
    {
      "midi": 64,
      "hit": false,
      "t": 110080.42499999996,
      "d": 32.25800000000163,
      "v": 95
    },
    {
      "midi": 68,
      "hit": false,
      "t": 110080.42499999996,
      "d": 34.274124999996275,
      "v": 93
    },
    {
      "midi": 59,
      "hit": false,
      "t": 110080.42499999996,
      "d": 50.40312499999709,
      "v": 95
    },
    {
      "midi": 52,
      "hit": false,
      "t": 110080.4250000005,
      "d": 68.5482500000071,
      "v": 121
    },
    {
      "midi": 64,
      "hit": false,
      "t": 110201.39249999996,
      "d": 34.274124999996275,
      "v": 96
    },
    {
      "midi": 68,
      "hit": false,
      "t": 110201.39249999996,
      "d": 40.32249999999476,
      "v": 96
    },
    {
      "midi": 59,
      "hit": false,
      "t": 110201.39249999996,
      "d": 47.37893749999057,
      "v": 95
    },
    {
      "midi": 52,
      "hit": false,
      "t": 110201.39250000051,
      "d": 68.5482500000071,
      "v": 121
    },
    {
      "midi": 49,
      "hit": false,
      "t": 110322.36000000052,
      "d": 118.95137500000419,
      "v": 121
    },
    {
      "midi": 66,
      "hit": false,
      "t": 110443.32749999996,
      "d": 49.39506249999977,
      "v": 94
    },
    {
      "midi": 69,
      "hit": false,
      "t": 110443.32749999996,
      "d": 67.54018749999523,
      "v": 95
    },
    {
      "midi": 61,
      "hit": false,
      "t": 110443.32749999996,
      "d": 77.62081249999756,
      "v": 94
    },
    {
      "midi": 61,
      "hit": false,
      "t": 110443.32750000052,
      "d": 64.51600000000326,
      "v": 121
    },
    {
      "midi": 66,
      "hit": false,
      "t": 110443.32750000052,
      "d": 64.51600000000326,
      "v": 121
    },
    {
      "midi": 68,
      "hit": false,
      "t": 110443.32750000052,
      "d": 64.51600000000326,
      "v": 121
    },
    {
      "midi": 49,
      "hit": false,
      "t": 110564.29500000052,
      "d": 118.95137500000419,
      "v": 121
    },
    {
      "midi": 68,
      "hit": false,
      "t": 110685.26249999995,
      "d": 63.50793750000594,
      "v": 95
    },
    {
      "midi": 64,
      "hit": false,
      "t": 110685.26249999995,
      "d": 67.54018750000978,
      "v": 95
    },
    {
      "midi": 59,
      "hit": false,
      "t": 110685.26249999995,
      "d": 73.58856250000827,
      "v": 95
    },
    {
      "midi": 49,
      "hit": false,
      "t": 110685.26250000052,
      "d": 118.95137500000419,
      "v": 121
    },
    {
      "midi": 61,
      "hit": false,
      "t": 110806.23000000052,
      "d": 64.51600000000326,
      "v": 121
    },
    {
      "midi": 64,
      "hit": false,
      "t": 110806.23000000052,
      "d": 64.51600000000326,
      "v": 121
    },
    {
      "midi": 68,
      "hit": false,
      "t": 110806.23000000052,
      "d": 64.51600000000326,
      "v": 121
    },
    {
      "midi": 61,
      "hit": false,
      "t": 111048.16499999996,
      "d": 32.25800000000163,
      "v": 95
    },
    {
      "midi": 66,
      "hit": false,
      "t": 111048.16499999996,
      "d": 36.29025000000547,
      "v": 93
    },
    {
      "midi": 57,
      "hit": false,
      "t": 111048.16499999996,
      "d": 44.3547499999986,
      "v": 94
    },
    {
      "midi": 50,
      "hit": false,
      "t": 111048.16500000052,
      "d": 360.88637500000186,
      "v": 121
    },
    {
      "midi": 62,
      "hit": false,
      "t": 111048.16500000052,
      "d": 790.3209999999963,
      "v": 121
    },
    {
      "midi": 66,
      "hit": false,
      "t": 111048.16500000052,
      "d": 790.3209999999963,
      "v": 121
    },
    {
      "midi": 69,
      "hit": false,
      "t": 111048.16500000052,
      "d": 790.3209999999963,
      "v": 121
    },
    {
      "midi": 57,
      "hit": false,
      "t": 111169.13249999996,
      "d": 43.34668750000128,
      "v": 94
    },
    {
      "midi": 66,
      "hit": false,
      "t": 111169.13249999996,
      "d": 45.362812499995925,
      "v": 90
    },
    {
      "midi": 61,
      "hit": false,
      "t": 111169.13249999996,
      "d": 53.42731249998906,
      "v": 94
    },
    {
      "midi": 69,
      "hit": false,
      "t": 111290.0999999999,
      "d": 1362.9004999999743,
      "v": 1
    },
    {
      "midi": 73,
      "hit": false,
      "t": 111290.0999999999,
      "d": 1367.9408124999754,
      "v": 1
    },
    {
      "midi": 66,
      "hit": false,
      "t": 111290.0999999999,
      "d": 1368.9488749999728,
      "v": 1
    },
    {
      "midi": 62,
      "hit": false,
      "t": 111290.0999999999,
      "d": 1376.0053124999686,
      "v": 1
    },
    {
      "midi": 57,
      "hit": false,
      "t": 111290.09999999995,
      "d": 49.39506249999977,
      "v": 95
    },
    {
      "midi": 61,
      "hit": false,
      "t": 111290.09999999995,
      "d": 49.39506249999977,
      "v": 93
    },
    {
      "midi": 66,
      "hit": false,
      "t": 111290.09999999995,
      "d": 77.62081249999756,
      "v": 91
    },
    {
      "midi": 66,
      "hit": false,
      "t": 111411.06749999995,
      "d": 42.33862500000396,
      "v": 92
    },
    {
      "midi": 61,
      "hit": false,
      "t": 111411.06749999995,
      "d": 49.39506249999977,
      "v": 96
    },
    {
      "midi": 57,
      "hit": false,
      "t": 111411.06749999995,
      "d": 71.57243749999907,
      "v": 94
    },
    {
      "midi": 50,
      "hit": false,
      "t": 111532.03500000051,
      "d": 64.51600000000326,
      "v": 121
    },
    {
      "midi": 64,
      "hit": false,
      "t": 111653.00249999994,
      "d": 73.58856249999371,
      "v": 95
    },
    {
      "midi": 56,
      "hit": false,
      "t": 111653.00249999994,
      "d": 83.66918749999604,
      "v": 96
    },
    {
      "midi": 59,
      "hit": false,
      "t": 111653.00249999994,
      "d": 87.70143749999988,
      "v": 97
    },
    {
      "midi": 50,
      "hit": false,
      "t": 111653.00250000051,
      "d": 64.51600000000326,
      "v": 121
    },
    {
      "midi": 50,
      "hit": false,
      "t": 111773.97000000051,
      "d": 64.51600000000326,
      "v": 121
    },
    {
      "midi": 50,
      "hit": false,
      "t": 111894.93750000051,
      "d": 68.5482500000071,
      "v": 121
    },
    {
      "midi": 50,
      "hit": false,
      "t": 112015.90500000052,
      "d": 68.5482500000071,
      "v": 121
    },
    {
      "midi": 50,
      "hit": false,
      "t": 112136.87250000054,
      "d": 68.5482500000071,
      "v": 121
    },
    {
      "midi": 66,
      "hit": false,
      "t": 112257.83999999994,
      "d": 247.98337499999616,
      "v": 94
    },
    {
      "midi": 50,
      "hit": false,
      "t": 112257.84000000055,
      "d": 360.88637500000186,
      "v": 121
    },
    {
      "midi": 54,
      "hit": false,
      "t": 112499.77499999994,
      "d": 109.87881249999919,
      "v": 96
    },
    {
      "midi": 64,
      "hit": false,
      "t": 112620.74249999993,
      "d": 101.81431250000605,
      "v": 96
    },
    {
      "midi": 50,
      "hit": false,
      "t": 112620.74250000055,
      "d": 64.51600000000326,
      "v": 121
    },
    {
      "midi": 62,
      "hit": false,
      "t": 112741.71000000054,
      "d": 64.51600000000326,
      "v": 121
    },
    {
      "midi": 66,
      "hit": false,
      "t": 112741.71000000054,
      "d": 64.51600000000326,
      "v": 121
    },
    {
      "midi": 69,
      "hit": false,
      "t": 112741.71000000054,
      "d": 64.51600000000326,
      "v": 121
    },
    {
      "midi": 50,
      "hit": false,
      "t": 112862.67750000054,
      "d": 64.51600000000326,
      "v": 121
    },
    {
      "midi": 52,
      "hit": false,
      "t": 112983.64500000054,
      "d": 360.88637500000186,
      "v": 121
    },
    {
      "midi": 52,
      "hit": false,
      "t": 113467.51499999994,
      "d": 49.39506249999977,
      "v": 93
    },
    {
      "midi": 52,
      "hit": false,
      "t": 113467.51500000054,
      "d": 64.51600000000326,
      "v": 121
    },
    {
      "midi": 64,
      "hit": false,
      "t": 113588.48249999994,
      "d": 30.241875000006985,
      "v": 95
    },
    {
      "midi": 69,
      "hit": false,
      "t": 113588.48249999994,
      "d": 43.34668750000128,
      "v": 95
    },
    {
      "midi": 61,
      "hit": false,
      "t": 113588.48249999994,
      "d": 53.42731250000361,
      "v": 96
    },
    {
      "midi": 52,
      "hit": false,
      "t": 113588.48250000054,
      "d": 64.51600000000326,
      "v": 121
    },
    {
      "midi": 64,
      "hit": false,
      "t": 113709.45000000054,
      "d": 64.51600000000326,
      "v": 121
    },
    {
      "midi": 69,
      "hit": false,
      "t": 113709.45000000054,
      "d": 64.51600000000326,
      "v": 121
    },
    {
      "midi": 71,
      "hit": false,
      "t": 113709.45000000054,
      "d": 64.51600000000326,
      "v": 121
    },
    {
      "midi": 52,
      "hit": false,
      "t": 113830.41749999994,
      "d": 50.40312499999709,
      "v": 95
    },
    {
      "midi": 52,
      "hit": false,
      "t": 113830.41750000053,
      "d": 68.5482500000071,
      "v": 121
    },
    {
      "midi": 64,
      "hit": false,
      "t": 113951.38499999994,
      "d": 32.25800000000163,
      "v": 95
    },
    {
      "midi": 68,
      "hit": false,
      "t": 113951.38499999994,
      "d": 34.274124999996275,
      "v": 93
    },
    {
      "midi": 59,
      "hit": false,
      "t": 113951.38499999994,
      "d": 50.40312499999709,
      "v": 95
    },
    {
      "midi": 52,
      "hit": false,
      "t": 113951.38500000055,
      "d": 68.5482500000071,
      "v": 121
    },
    {
      "midi": 64,
      "hit": false,
      "t": 114072.35249999994,
      "d": 34.274124999996275,
      "v": 96
    },
    {
      "midi": 68,
      "hit": false,
      "t": 114072.35249999994,
      "d": 40.32249999999476,
      "v": 96
    },
    {
      "midi": 59,
      "hit": false,
      "t": 114072.35249999994,
      "d": 47.37893749999057,
      "v": 95
    },
    {
      "midi": 52,
      "hit": false,
      "t": 114072.35250000056,
      "d": 68.5482500000071,
      "v": 121
    },
    {
      "midi": 49,
      "hit": false,
      "t": 114193.32000000057,
      "d": 118.95137500000419,
      "v": 121
    },
    {
      "midi": 68,
      "hit": false,
      "t": 114435.25499999993,
      "d": 49.39506249999977,
      "v": 95
    },
    {
      "midi": 71,
      "hit": false,
      "t": 114435.25499999993,
      "d": 53.42731250000361,
      "v": 94
    },
    {
      "midi": 64,
      "hit": false,
      "t": 114435.25499999993,
      "d": 65.52406250000058,
      "v": 95
    },
    {
      "midi": 59,
      "hit": false,
      "t": 114435.25500000057,
      "d": 64.51600000000326,
      "v": 121
    },
    {
      "midi": 64,
      "hit": false,
      "t": 114435.25500000057,
      "d": 64.51600000000326,
      "v": 121
    },
    {
      "midi": 68,
      "hit": false,
      "t": 114435.25500000057,
      "d": 64.51600000000326,
      "v": 121
    },
    {
      "midi": 49,
      "hit": false,
      "t": 114556.22250000057,
      "d": 360.88637500000186,
      "v": 121
    },
    {
      "midi": 50,
      "hit": false,
      "t": 114919.12500000057,
      "d": 360.88637500000186,
      "v": 121
    },
    {
      "midi": 69,
      "hit": false,
      "t": 115161.05999999987,
      "d": 1362.9004999999743,
      "v": 1
    },
    {
      "midi": 73,
      "hit": false,
      "t": 115161.05999999987,
      "d": 1367.9408124999754,
      "v": 1
    },
    {
      "midi": 66,
      "hit": false,
      "t": 115161.05999999987,
      "d": 1368.9488749999728,
      "v": 1
    },
    {
      "midi": 62,
      "hit": false,
      "t": 115161.05999999987,
      "d": 1376.0053124999686,
      "v": 1
    },
    {
      "midi": 50,
      "hit": false,
      "t": 115402.99500000056,
      "d": 64.51600000000326,
      "v": 121
    },
    {
      "midi": 50,
      "hit": false,
      "t": 115523.96250000056,
      "d": 64.51600000000326,
      "v": 121
    },
    {
      "midi": 62,
      "hit": false,
      "t": 115644.93000000056,
      "d": 64.51600000000326,
      "v": 121
    },
    {
      "midi": 64,
      "hit": false,
      "t": 115644.93000000056,
      "d": 64.51600000000326,
      "v": 121
    },
    {
      "midi": 69,
      "hit": false,
      "t": 115644.93000000056,
      "d": 64.51600000000326,
      "v": 121
    },
    {
      "midi": 50,
      "hit": false,
      "t": 115765.89750000056,
      "d": 68.5482500000071,
      "v": 121
    },
    {
      "midi": 50,
      "hit": false,
      "t": 115886.86500000057,
      "d": 68.5482500000071,
      "v": 121
    },
    {
      "midi": 50,
      "hit": false,
      "t": 116007.83250000059,
      "d": 68.5482500000071,
      "v": 121
    },
    {
      "midi": 66,
      "hit": false,
      "t": 116128.79999999993,
      "d": 247.98337499999616,
      "v": 94
    },
    {
      "midi": 50,
      "hit": false,
      "t": 116128.8000000006,
      "d": 360.88637500000186,
      "v": 121
    },
    {
      "midi": 54,
      "hit": false,
      "t": 116370.73499999993,
      "d": 109.87881249999919,
      "v": 96
    },
    {
      "midi": 64,
      "hit": false,
      "t": 116491.70249999993,
      "d": 101.81431250000605,
      "v": 96
    },
    {
      "midi": 50,
      "hit": false,
      "t": 116491.7025000006,
      "d": 64.51600000000326,
      "v": 121
    },
    {
      "midi": 62,
      "hit": false,
      "t": 116612.6700000006,
      "d": 64.51600000000326,
      "v": 121
    },
    {
      "midi": 66,
      "hit": false,
      "t": 116612.6700000006,
      "d": 64.51600000000326,
      "v": 121
    },
    {
      "midi": 69,
      "hit": false,
      "t": 116612.6700000006,
      "d": 64.51600000000326,
      "v": 121
    },
    {
      "midi": 50,
      "hit": false,
      "t": 116733.6375000006,
      "d": 64.51600000000326,
      "v": 121
    },
    {
      "midi": 52,
      "hit": false,
      "t": 116854.60500000059,
      "d": 360.88637500000186,
      "v": 121
    },
    {
      "midi": 52,
      "hit": false,
      "t": 117338.47499999993,
      "d": 49.39506249999977,
      "v": 93
    },
    {
      "midi": 52,
      "hit": false,
      "t": 117338.47500000059,
      "d": 64.51600000000326,
      "v": 121
    },
    {
      "midi": 64,
      "hit": false,
      "t": 117459.44249999993,
      "d": 30.241875000006985,
      "v": 95
    },
    {
      "midi": 69,
      "hit": false,
      "t": 117459.44249999993,
      "d": 43.34668750000128,
      "v": 95
    },
    {
      "midi": 61,
      "hit": false,
      "t": 117459.44249999993,
      "d": 53.42731250000361,
      "v": 96
    },
    {
      "midi": 52,
      "hit": false,
      "t": 117459.44250000059,
      "d": 64.51600000000326,
      "v": 121
    },
    {
      "midi": 64,
      "hit": false,
      "t": 117580.41000000059,
      "d": 64.51600000000326,
      "v": 121
    },
    {
      "midi": 69,
      "hit": false,
      "t": 117580.41000000059,
      "d": 64.51600000000326,
      "v": 121
    },
    {
      "midi": 71,
      "hit": false,
      "t": 117580.41000000059,
      "d": 64.51600000000326,
      "v": 121
    },
    {
      "midi": 52,
      "hit": false,
      "t": 117701.37749999993,
      "d": 50.40312499999709,
      "v": 95
    },
    {
      "midi": 52,
      "hit": false,
      "t": 117701.37750000058,
      "d": 68.5482500000071,
      "v": 121
    },
    {
      "midi": 64,
      "hit": false,
      "t": 117822.34499999993,
      "d": 32.25800000000163,
      "v": 95
    },
    {
      "midi": 68,
      "hit": false,
      "t": 117822.34499999993,
      "d": 34.274124999996275,
      "v": 93
    },
    {
      "midi": 59,
      "hit": false,
      "t": 117822.34499999993,
      "d": 50.40312499999709,
      "v": 95
    },
    {
      "midi": 52,
      "hit": false,
      "t": 117822.3450000006,
      "d": 68.5482500000071,
      "v": 121
    },
    {
      "midi": 64,
      "hit": false,
      "t": 117943.31249999993,
      "d": 34.274124999996275,
      "v": 96
    },
    {
      "midi": 68,
      "hit": false,
      "t": 117943.31249999993,
      "d": 40.32249999999476,
      "v": 96
    },
    {
      "midi": 59,
      "hit": false,
      "t": 117943.31249999993,
      "d": 47.37893749999057,
      "v": 95
    },
    {
      "midi": 52,
      "hit": false,
      "t": 117943.31250000061,
      "d": 68.5482500000071,
      "v": 121
    },
    {
      "midi": 49,
      "hit": false,
      "t": 118064.28000000062,
      "d": 118.95137500000419,
      "v": 121
    },
    {
      "midi": 66,
      "hit": false,
      "t": 118185.24749999992,
      "d": 49.39506249999977,
      "v": 94
    },
    {
      "midi": 69,
      "hit": false,
      "t": 118185.24749999992,
      "d": 67.54018749999523,
      "v": 95
    },
    {
      "midi": 61,
      "hit": false,
      "t": 118185.24749999992,
      "d": 77.62081249999756,
      "v": 94
    },
    {
      "midi": 61,
      "hit": false,
      "t": 118185.24750000062,
      "d": 64.51600000000326,
      "v": 121
    },
    {
      "midi": 66,
      "hit": false,
      "t": 118185.24750000062,
      "d": 64.51600000000326,
      "v": 121
    },
    {
      "midi": 68,
      "hit": false,
      "t": 118185.24750000062,
      "d": 64.51600000000326,
      "v": 121
    },
    {
      "midi": 49,
      "hit": false,
      "t": 118306.21500000062,
      "d": 118.95137500000419,
      "v": 121
    },
    {
      "midi": 68,
      "hit": false,
      "t": 118427.18249999992,
      "d": 63.50793750000594,
      "v": 95
    },
    {
      "midi": 64,
      "hit": false,
      "t": 118427.18249999992,
      "d": 67.54018750000978,
      "v": 95
    },
    {
      "midi": 59,
      "hit": false,
      "t": 118427.18249999992,
      "d": 73.58856250000827,
      "v": 95
    },
    {
      "midi": 49,
      "hit": false,
      "t": 118427.18250000062,
      "d": 118.95137500000419,
      "v": 121
    },
    {
      "midi": 61,
      "hit": false,
      "t": 118548.15000000062,
      "d": 64.51600000000326,
      "v": 121
    },
    {
      "midi": 64,
      "hit": false,
      "t": 118548.15000000062,
      "d": 64.51600000000326,
      "v": 121
    },
    {
      "midi": 68,
      "hit": false,
      "t": 118548.15000000062,
      "d": 64.51600000000326,
      "v": 121
    },
    {
      "midi": 61,
      "hit": false,
      "t": 118790.08499999993,
      "d": 32.25800000000163,
      "v": 95
    },
    {
      "midi": 66,
      "hit": false,
      "t": 118790.08499999993,
      "d": 36.29025000000547,
      "v": 93
    },
    {
      "midi": 57,
      "hit": false,
      "t": 118790.08499999993,
      "d": 44.3547499999986,
      "v": 94
    },
    {
      "midi": 50,
      "hit": false,
      "t": 118790.08500000062,
      "d": 360.88637500000186,
      "v": 121
    },
    {
      "midi": 62,
      "hit": false,
      "t": 118790.08500000062,
      "d": 790.3209999999963,
      "v": 121
    },
    {
      "midi": 66,
      "hit": false,
      "t": 118790.08500000062,
      "d": 790.3209999999963,
      "v": 121
    },
    {
      "midi": 69,
      "hit": false,
      "t": 118790.08500000062,
      "d": 790.3209999999963,
      "v": 121
    },
    {
      "midi": 57,
      "hit": false,
      "t": 118911.05249999993,
      "d": 43.34668750000128,
      "v": 94
    },
    {
      "midi": 66,
      "hit": false,
      "t": 118911.05249999993,
      "d": 45.362812499995925,
      "v": 90
    },
    {
      "midi": 61,
      "hit": false,
      "t": 118911.05249999993,
      "d": 53.42731249998906,
      "v": 94
    },
    {
      "midi": 57,
      "hit": false,
      "t": 119032.01999999992,
      "d": 49.39506249999977,
      "v": 95
    },
    {
      "midi": 61,
      "hit": false,
      "t": 119032.01999999992,
      "d": 49.39506249999977,
      "v": 93
    },
    {
      "midi": 66,
      "hit": false,
      "t": 119032.01999999992,
      "d": 77.62081249999756,
      "v": 91
    },
    {
      "midi": 66,
      "hit": false,
      "t": 119152.98749999992,
      "d": 42.33862500000396,
      "v": 92
    },
    {
      "midi": 61,
      "hit": false,
      "t": 119152.98749999992,
      "d": 49.39506249999977,
      "v": 96
    },
    {
      "midi": 57,
      "hit": false,
      "t": 119152.98749999992,
      "d": 71.57243749999907,
      "v": 94
    },
    {
      "midi": 50,
      "hit": false,
      "t": 119273.95500000061,
      "d": 64.51600000000326,
      "v": 121
    },
    {
      "midi": 64,
      "hit": false,
      "t": 119394.92249999991,
      "d": 73.58856249999371,
      "v": 95
    },
    {
      "midi": 56,
      "hit": false,
      "t": 119394.92249999991,
      "d": 83.66918749999604,
      "v": 96
    },
    {
      "midi": 59,
      "hit": false,
      "t": 119394.92249999991,
      "d": 87.70143749999988,
      "v": 97
    },
    {
      "midi": 50,
      "hit": false,
      "t": 119394.92250000061,
      "d": 64.51600000000326,
      "v": 121
    },
    {
      "midi": 50,
      "hit": false,
      "t": 119515.89000000061,
      "d": 64.51600000000326,
      "v": 121
    },
    {
      "midi": 50,
      "hit": false,
      "t": 119636.85750000061,
      "d": 68.5482500000071,
      "v": 121
    },
    {
      "midi": 50,
      "hit": false,
      "t": 119757.82500000062,
      "d": 68.5482500000071,
      "v": 121
    },
    {
      "midi": 50,
      "hit": false,
      "t": 119878.79250000064,
      "d": 68.5482500000071,
      "v": 121
    },
    {
      "midi": 57,
      "hit": false,
      "t": 127741.67999999983,
      "d": 1556.4484999999986,
      "v": 1
    },
    {
      "midi": 69,
      "hit": false,
      "t": 127741.67999999983,
      "d": 1556.4484999999986,
      "v": 1
    },
    {
      "midi": 66,
      "hit": false,
      "t": 127741.6799999999,
      "d": 247.98337499999616,
      "v": 94
    },
    {
      "midi": 50,
      "hit": false,
      "t": 127741.68000000065,
      "d": 360.88637500000186,
      "v": 121
    },
    {
      "midi": 54,
      "hit": false,
      "t": 127983.6149999999,
      "d": 109.87881249999919,
      "v": 96
    },
    {
      "midi": 64,
      "hit": false,
      "t": 128104.5824999999,
      "d": 101.81431250000605,
      "v": 96
    },
    {
      "midi": 50,
      "hit": false,
      "t": 128104.58250000064,
      "d": 64.51600000000326,
      "v": 121
    },
    {
      "midi": 62,
      "hit": false,
      "t": 128225.55000000064,
      "d": 64.51600000000326,
      "v": 121
    },
    {
      "midi": 66,
      "hit": false,
      "t": 128225.55000000064,
      "d": 64.51600000000326,
      "v": 121
    },
    {
      "midi": 69,
      "hit": false,
      "t": 128225.55000000064,
      "d": 64.51600000000326,
      "v": 121
    },
    {
      "midi": 50,
      "hit": false,
      "t": 128346.51750000064,
      "d": 64.51600000000326,
      "v": 121
    },
    {
      "midi": 52,
      "hit": false,
      "t": 128467.48500000064,
      "d": 360.88637500000186,
      "v": 121
    },
    {
      "midi": 52,
      "hit": false,
      "t": 128951.35499999991,
      "d": 49.39506249999977,
      "v": 93
    },
    {
      "midi": 52,
      "hit": false,
      "t": 128951.35500000064,
      "d": 64.51600000000326,
      "v": 121
    },
    {
      "midi": 64,
      "hit": false,
      "t": 129072.32249999991,
      "d": 30.241875000006985,
      "v": 95
    },
    {
      "midi": 69,
      "hit": false,
      "t": 129072.32249999991,
      "d": 43.34668750000128,
      "v": 95
    },
    {
      "midi": 61,
      "hit": false,
      "t": 129072.32249999991,
      "d": 53.42731250000361,
      "v": 96
    },
    {
      "midi": 52,
      "hit": false,
      "t": 129072.32250000064,
      "d": 64.51600000000326,
      "v": 121
    },
    {
      "midi": 64,
      "hit": false,
      "t": 129193.29000000063,
      "d": 64.51600000000326,
      "v": 121
    },
    {
      "midi": 69,
      "hit": false,
      "t": 129193.29000000063,
      "d": 64.51600000000326,
      "v": 121
    },
    {
      "midi": 71,
      "hit": false,
      "t": 129193.29000000063,
      "d": 64.51600000000326,
      "v": 121
    },
    {
      "midi": 52,
      "hit": false,
      "t": 129314.2574999999,
      "d": 50.40312499999709,
      "v": 95
    },
    {
      "midi": 52,
      "hit": false,
      "t": 129314.25750000063,
      "d": 68.5482500000071,
      "v": 121
    },
    {
      "midi": 64,
      "hit": false,
      "t": 129435.2249999999,
      "d": 32.25800000000163,
      "v": 95
    },
    {
      "midi": 68,
      "hit": false,
      "t": 129435.2249999999,
      "d": 34.274124999996275,
      "v": 93
    },
    {
      "midi": 59,
      "hit": false,
      "t": 129435.2249999999,
      "d": 50.40312499999709,
      "v": 95
    },
    {
      "midi": 52,
      "hit": false,
      "t": 129435.22500000065,
      "d": 68.5482500000071,
      "v": 121
    },
    {
      "midi": 64,
      "hit": false,
      "t": 129556.1924999999,
      "d": 34.274124999996275,
      "v": 96
    },
    {
      "midi": 68,
      "hit": false,
      "t": 129556.1924999999,
      "d": 40.32249999999476,
      "v": 96
    },
    {
      "midi": 59,
      "hit": false,
      "t": 129556.1924999999,
      "d": 47.37893749999057,
      "v": 95
    },
    {
      "midi": 52,
      "hit": false,
      "t": 129556.19250000066,
      "d": 68.5482500000071,
      "v": 121
    },
    {
      "midi": 49,
      "hit": false,
      "t": 129677.16000000067,
      "d": 118.95137500000419,
      "v": 121
    },
    {
      "midi": 68,
      "hit": false,
      "t": 129919.0949999999,
      "d": 49.39506249999977,
      "v": 95
    },
    {
      "midi": 71,
      "hit": false,
      "t": 129919.0949999999,
      "d": 53.42731250000361,
      "v": 94
    },
    {
      "midi": 64,
      "hit": false,
      "t": 129919.0949999999,
      "d": 65.52406250000058,
      "v": 95
    },
    {
      "midi": 59,
      "hit": false,
      "t": 129919.09500000067,
      "d": 64.51600000000326,
      "v": 121
    },
    {
      "midi": 64,
      "hit": false,
      "t": 129919.09500000067,
      "d": 64.51600000000326,
      "v": 121
    },
    {
      "midi": 68,
      "hit": false,
      "t": 129919.09500000067,
      "d": 64.51600000000326,
      "v": 121
    },
    {
      "midi": 49,
      "hit": false,
      "t": 130040.06250000067,
      "d": 360.88637500000186,
      "v": 121
    },
    {
      "midi": 50,
      "hit": false,
      "t": 130402.96500000067,
      "d": 360.88637500000186,
      "v": 121
    },
    {
      "midi": 50,
      "hit": false,
      "t": 130886.83500000066,
      "d": 64.51600000000326,
      "v": 121
    },
    {
      "midi": 50,
      "hit": false,
      "t": 131007.80250000066,
      "d": 64.51600000000326,
      "v": 121
    },
    {
      "midi": 62,
      "hit": false,
      "t": 131128.77000000066,
      "d": 64.51600000000326,
      "v": 121
    },
    {
      "midi": 64,
      "hit": false,
      "t": 131128.77000000066,
      "d": 64.51600000000326,
      "v": 121
    },
    {
      "midi": 69,
      "hit": false,
      "t": 131128.77000000066,
      "d": 64.51600000000326,
      "v": 121
    },
    {
      "midi": 50,
      "hit": false,
      "t": 131249.73750000066,
      "d": 68.54824999999255,
      "v": 121
    },
    {
      "midi": 50,
      "hit": false,
      "t": 131370.70500000066,
      "d": 68.54824999999255,
      "v": 121
    },
    {
      "midi": 50,
      "hit": false,
      "t": 131491.67250000066,
      "d": 68.54824999999255,
      "v": 121
    },
    {
      "midi": 66,
      "hit": false,
      "t": 131612.6399999999,
      "d": 247.9833750000107,
      "v": 94
    },
    {
      "midi": 50,
      "hit": false,
      "t": 131612.64000000065,
      "d": 360.88637500000186,
      "v": 121
    },
    {
      "midi": 54,
      "hit": false,
      "t": 131854.5749999999,
      "d": 109.87881250001374,
      "v": 96
    },
    {
      "midi": 64,
      "hit": false,
      "t": 131975.54249999992,
      "d": 101.81431250000605,
      "v": 96
    },
    {
      "midi": 50,
      "hit": false,
      "t": 131975.54250000065,
      "d": 64.51600000000326,
      "v": 121
    },
    {
      "midi": 62,
      "hit": false,
      "t": 132096.51000000065,
      "d": 64.51600000000326,
      "v": 121
    },
    {
      "midi": 66,
      "hit": false,
      "t": 132096.51000000065,
      "d": 64.51600000000326,
      "v": 121
    },
    {
      "midi": 69,
      "hit": false,
      "t": 132096.51000000065,
      "d": 64.51600000000326,
      "v": 121
    },
    {
      "midi": 50,
      "hit": false,
      "t": 132217.47750000065,
      "d": 64.51600000000326,
      "v": 121
    },
    {
      "midi": 52,
      "hit": false,
      "t": 132338.44500000065,
      "d": 360.88637500000186,
      "v": 121
    },
    {
      "midi": 52,
      "hit": false,
      "t": 132822.31499999992,
      "d": 49.39506249999977,
      "v": 93
    },
    {
      "midi": 52,
      "hit": false,
      "t": 132822.31500000064,
      "d": 64.51600000000326,
      "v": 121
    },
    {
      "midi": 64,
      "hit": false,
      "t": 132943.2824999999,
      "d": 30.241875000006985,
      "v": 95
    },
    {
      "midi": 69,
      "hit": false,
      "t": 132943.2824999999,
      "d": 43.34668750001583,
      "v": 95
    },
    {
      "midi": 61,
      "hit": false,
      "t": 132943.2824999999,
      "d": 53.42731250001816,
      "v": 96
    },
    {
      "midi": 52,
      "hit": false,
      "t": 132943.28250000064,
      "d": 64.51600000000326,
      "v": 121
    },
    {
      "midi": 64,
      "hit": false,
      "t": 133064.25000000064,
      "d": 64.51600000000326,
      "v": 121
    },
    {
      "midi": 69,
      "hit": false,
      "t": 133064.25000000064,
      "d": 64.51600000000326,
      "v": 121
    },
    {
      "midi": 71,
      "hit": false,
      "t": 133064.25000000064,
      "d": 64.51600000000326,
      "v": 121
    },
    {
      "midi": 52,
      "hit": false,
      "t": 133185.21749999994,
      "d": 50.40312500001164,
      "v": 95
    },
    {
      "midi": 52,
      "hit": false,
      "t": 133185.21750000064,
      "d": 68.54824999999255,
      "v": 121
    },
    {
      "midi": 64,
      "hit": false,
      "t": 133306.18499999994,
      "d": 32.25800000000163,
      "v": 95
    },
    {
      "midi": 68,
      "hit": false,
      "t": 133306.18499999994,
      "d": 34.274124999996275,
      "v": 93
    },
    {
      "midi": 59,
      "hit": false,
      "t": 133306.18499999994,
      "d": 50.40312499998254,
      "v": 95
    },
    {
      "midi": 52,
      "hit": false,
      "t": 133306.18500000064,
      "d": 68.54824999999255,
      "v": 121
    },
    {
      "midi": 64,
      "hit": false,
      "t": 133427.1524999999,
      "d": 34.274124999996275,
      "v": 96
    },
    {
      "midi": 68,
      "hit": false,
      "t": 133427.1524999999,
      "d": 40.32250000000931,
      "v": 96
    },
    {
      "midi": 59,
      "hit": false,
      "t": 133427.1524999999,
      "d": 47.37893750000512,
      "v": 95
    },
    {
      "midi": 52,
      "hit": false,
      "t": 133427.15250000064,
      "d": 68.54824999999255,
      "v": 121
    },
    {
      "midi": 49,
      "hit": false,
      "t": 133548.12000000064,
      "d": 118.95137500000419,
      "v": 121
    },
    {
      "midi": 66,
      "hit": false,
      "t": 133669.0874999999,
      "d": 49.39506249999977,
      "v": 94
    },
    {
      "midi": 69,
      "hit": false,
      "t": 133669.0874999999,
      "d": 67.54018750000978,
      "v": 95
    },
    {
      "midi": 61,
      "hit": false,
      "t": 133669.0874999999,
      "d": 77.62081250001211,
      "v": 94
    },
    {
      "midi": 61,
      "hit": false,
      "t": 133669.08750000063,
      "d": 64.51600000000326,
      "v": 121
    },
    {
      "midi": 66,
      "hit": false,
      "t": 133669.08750000063,
      "d": 64.51600000000326,
      "v": 121
    },
    {
      "midi": 68,
      "hit": false,
      "t": 133669.08750000063,
      "d": 64.51600000000326,
      "v": 121
    },
    {
      "midi": 49,
      "hit": false,
      "t": 133790.05500000063,
      "d": 118.95137500000419,
      "v": 121
    },
    {
      "midi": 68,
      "hit": false,
      "t": 133911.0224999999,
      "d": 63.507937499991385,
      "v": 95
    },
    {
      "midi": 64,
      "hit": false,
      "t": 133911.0224999999,
      "d": 67.54018749998068,
      "v": 95
    },
    {
      "midi": 59,
      "hit": false,
      "t": 133911.0224999999,
      "d": 73.58856249999371,
      "v": 95
    },
    {
      "midi": 49,
      "hit": false,
      "t": 133911.02250000063,
      "d": 118.95137500000419,
      "v": 121
    },
    {
      "midi": 61,
      "hit": false,
      "t": 134031.99000000063,
      "d": 64.51600000000326,
      "v": 121
    },
    {
      "midi": 64,
      "hit": false,
      "t": 134031.99000000063,
      "d": 64.51600000000326,
      "v": 121
    },
    {
      "midi": 68,
      "hit": false,
      "t": 134031.99000000063,
      "d": 64.51600000000326,
      "v": 121
    },
    {
      "midi": 61,
      "hit": false,
      "t": 134273.9249999999,
      "d": 32.25800000000163,
      "v": 95
    },
    {
      "midi": 66,
      "hit": false,
      "t": 134273.9249999999,
      "d": 36.29024999999092,
      "v": 93
    },
    {
      "midi": 57,
      "hit": false,
      "t": 134273.9249999999,
      "d": 44.3547499999986,
      "v": 94
    },
    {
      "midi": 50,
      "hit": false,
      "t": 134273.92500000063,
      "d": 360.88637500000186,
      "v": 121
    },
    {
      "midi": 62,
      "hit": false,
      "t": 134273.92500000063,
      "d": 790.3209999999963,
      "v": 121
    },
    {
      "midi": 66,
      "hit": false,
      "t": 134273.92500000063,
      "d": 790.3209999999963,
      "v": 121
    },
    {
      "midi": 69,
      "hit": false,
      "t": 134273.92500000063,
      "d": 790.3209999999963,
      "v": 121
    },
    {
      "midi": 57,
      "hit": false,
      "t": 134394.8924999999,
      "d": 43.34668749998673,
      "v": 94
    },
    {
      "midi": 66,
      "hit": false,
      "t": 134394.8924999999,
      "d": 45.36281249998137,
      "v": 90
    },
    {
      "midi": 61,
      "hit": false,
      "t": 134394.8924999999,
      "d": 53.42731249998906,
      "v": 94
    },
    {
      "midi": 57,
      "hit": false,
      "t": 134515.8599999999,
      "d": 49.39506249999977,
      "v": 95
    },
    {
      "midi": 61,
      "hit": false,
      "t": 134515.8599999999,
      "d": 49.39506249999977,
      "v": 93
    },
    {
      "midi": 66,
      "hit": false,
      "t": 134515.8599999999,
      "d": 77.62081250001211,
      "v": 91
    },
    {
      "midi": 66,
      "hit": false,
      "t": 134636.8274999999,
      "d": 42.33862500000396,
      "v": 92
    },
    {
      "midi": 61,
      "hit": false,
      "t": 134636.8274999999,
      "d": 49.39506249999977,
      "v": 96
    },
    {
      "midi": 57,
      "hit": false,
      "t": 134636.8274999999,
      "d": 71.57243749999907,
      "v": 94
    },
    {
      "midi": 50,
      "hit": false,
      "t": 134757.79500000062,
      "d": 64.51600000000326,
      "v": 121
    },
    {
      "midi": 64,
      "hit": false,
      "t": 134878.7624999999,
      "d": 73.58856249999371,
      "v": 95
    },
    {
      "midi": 56,
      "hit": false,
      "t": 134878.7624999999,
      "d": 83.66918749999604,
      "v": 96
    },
    {
      "midi": 59,
      "hit": false,
      "t": 134878.7624999999,
      "d": 87.70143749998533,
      "v": 97
    },
    {
      "midi": 50,
      "hit": false,
      "t": 134878.76250000062,
      "d": 64.51600000000326,
      "v": 121
    },
    {
      "midi": 56,
      "hit": false,
      "t": 134999.72999999984,
      "d": 239.91887500000303,
      "v": 1
    },
    {
      "midi": 68,
      "hit": false,
      "t": 134999.72999999984,
      "d": 239.91887500000303,
      "v": 1
    },
    {
      "midi": 50,
      "hit": false,
      "t": 134999.73000000062,
      "d": 64.51600000000326,
      "v": 121
    },
    {
      "midi": 50,
      "hit": false,
      "t": 135120.69750000062,
      "d": 68.54824999999255,
      "v": 121
    },
    {
      "midi": 57,
      "hit": false,
      "t": 135241.66499999983,
      "d": 1556.4484999999986,
      "v": 1
    },
    {
      "midi": 69,
      "hit": false,
      "t": 135241.66499999983,
      "d": 1556.4484999999986,
      "v": 1
    },
    {
      "midi": 50,
      "hit": false,
      "t": 135241.66500000062,
      "d": 68.54824999999255,
      "v": 121
    },
    {
      "midi": 50,
      "hit": false,
      "t": 135362.63250000062,
      "d": 68.54824999999255,
      "v": 121
    },
    {
      "midi": 66,
      "hit": false,
      "t": 135483.5999999999,
      "d": 247.9833750000107,
      "v": 94
    },
    {
      "midi": 50,
      "hit": false,
      "t": 135483.60000000062,
      "d": 360.88637500000186,
      "v": 121
    },
    {
      "midi": 54,
      "hit": false,
      "t": 135725.5349999999,
      "d": 109.87881250001374,
      "v": 96
    },
    {
      "midi": 64,
      "hit": false,
      "t": 135846.50249999992,
      "d": 101.81431250000605,
      "v": 96
    },
    {
      "midi": 50,
      "hit": false,
      "t": 135846.5025000006,
      "d": 64.51600000000326,
      "v": 121
    },
    {
      "midi": 62,
      "hit": false,
      "t": 135967.4700000006,
      "d": 64.51600000000326,
      "v": 121
    },
    {
      "midi": 66,
      "hit": false,
      "t": 135967.4700000006,
      "d": 64.51600000000326,
      "v": 121
    },
    {
      "midi": 69,
      "hit": false,
      "t": 135967.4700000006,
      "d": 64.51600000000326,
      "v": 121
    },
    {
      "midi": 50,
      "hit": false,
      "t": 136088.4375000006,
      "d": 64.51600000000326,
      "v": 121
    },
    {
      "midi": 52,
      "hit": false,
      "t": 136209.4050000006,
      "d": 360.88637500000186,
      "v": 121
    },
    {
      "midi": 52,
      "hit": false,
      "t": 136693.2749999999,
      "d": 49.39506249999977,
      "v": 93
    },
    {
      "midi": 52,
      "hit": false,
      "t": 136693.2750000006,
      "d": 64.51600000000326,
      "v": 121
    },
    {
      "midi": 64,
      "hit": false,
      "t": 136814.2424999999,
      "d": 30.241875000006985,
      "v": 95
    },
    {
      "midi": 69,
      "hit": false,
      "t": 136814.2424999999,
      "d": 43.34668750001583,
      "v": 95
    },
    {
      "midi": 61,
      "hit": false,
      "t": 136814.2424999999,
      "d": 53.42731250001816,
      "v": 96
    },
    {
      "midi": 52,
      "hit": false,
      "t": 136814.2425000006,
      "d": 64.51600000000326,
      "v": 121
    },
    {
      "midi": 64,
      "hit": false,
      "t": 136935.2100000006,
      "d": 64.51600000000326,
      "v": 121
    },
    {
      "midi": 69,
      "hit": false,
      "t": 136935.2100000006,
      "d": 64.51600000000326,
      "v": 121
    },
    {
      "midi": 71,
      "hit": false,
      "t": 136935.2100000006,
      "d": 64.51600000000326,
      "v": 121
    },
    {
      "midi": 52,
      "hit": false,
      "t": 137056.17749999993,
      "d": 50.40312500001164,
      "v": 95
    },
    {
      "midi": 52,
      "hit": false,
      "t": 137056.1775000006,
      "d": 68.54824999999255,
      "v": 121
    },
    {
      "midi": 64,
      "hit": false,
      "t": 137177.14499999993,
      "d": 32.25800000000163,
      "v": 95
    },
    {
      "midi": 68,
      "hit": false,
      "t": 137177.14499999993,
      "d": 34.274124999996275,
      "v": 93
    },
    {
      "midi": 59,
      "hit": false,
      "t": 137177.14499999993,
      "d": 50.40312499998254,
      "v": 95
    },
    {
      "midi": 52,
      "hit": false,
      "t": 137177.1450000006,
      "d": 68.54824999999255,
      "v": 121
    },
    {
      "midi": 64,
      "hit": false,
      "t": 137298.1124999999,
      "d": 34.274124999996275,
      "v": 96
    },
    {
      "midi": 68,
      "hit": false,
      "t": 137298.1124999999,
      "d": 40.32250000000931,
      "v": 96
    },
    {
      "midi": 59,
      "hit": false,
      "t": 137298.1124999999,
      "d": 47.37893750000512,
      "v": 95
    },
    {
      "midi": 52,
      "hit": false,
      "t": 137298.1125000006,
      "d": 68.54824999999255,
      "v": 121
    },
    {
      "midi": 49,
      "hit": false,
      "t": 137419.0800000006,
      "d": 118.95137500000419,
      "v": 121
    },
    {
      "midi": 68,
      "hit": false,
      "t": 137661.0149999999,
      "d": 49.39506249999977,
      "v": 95
    },
    {
      "midi": 71,
      "hit": false,
      "t": 137661.0149999999,
      "d": 53.42731249998906,
      "v": 94
    },
    {
      "midi": 64,
      "hit": false,
      "t": 137661.0149999999,
      "d": 65.52406249998603,
      "v": 95
    },
    {
      "midi": 59,
      "hit": false,
      "t": 137661.0150000006,
      "d": 64.51600000000326,
      "v": 121
    },
    {
      "midi": 64,
      "hit": false,
      "t": 137661.0150000006,
      "d": 64.51600000000326,
      "v": 121
    },
    {
      "midi": 68,
      "hit": false,
      "t": 137661.0150000006,
      "d": 64.51600000000326,
      "v": 121
    },
    {
      "midi": 49,
      "hit": false,
      "t": 137781.9825000006,
      "d": 360.88637500000186,
      "v": 121
    },
    {
      "midi": 50,
      "hit": false,
      "t": 138144.8850000006,
      "d": 360.88637500000186,
      "v": 121
    },
    {
      "midi": 50,
      "hit": false,
      "t": 138628.7550000006,
      "d": 64.51600000000326,
      "v": 121
    },
    {
      "midi": 50,
      "hit": false,
      "t": 138749.7225000006,
      "d": 64.51600000000326,
      "v": 121
    },
    {
      "midi": 62,
      "hit": false,
      "t": 138870.69000000058,
      "d": 64.51600000000326,
      "v": 121
    },
    {
      "midi": 64,
      "hit": false,
      "t": 138870.69000000058,
      "d": 64.51600000000326,
      "v": 121
    },
    {
      "midi": 69,
      "hit": false,
      "t": 138870.69000000058,
      "d": 64.51600000000326,
      "v": 121
    },
    {
      "midi": 50,
      "hit": false,
      "t": 138991.65750000058,
      "d": 68.54824999999255,
      "v": 121
    },
    {
      "midi": 50,
      "hit": false,
      "t": 139112.62500000058,
      "d": 68.54824999999255,
      "v": 121
    },
    {
      "midi": 50,
      "hit": false,
      "t": 139233.59250000058,
      "d": 68.54824999999255,
      "v": 121
    },
    {
      "midi": 66,
      "hit": false,
      "t": 139354.55999999988,
      "d": 247.9833750000107,
      "v": 94
    },
    {
      "midi": 50,
      "hit": false,
      "t": 139354.56000000058,
      "d": 360.88637500000186,
      "v": 121
    },
    {
      "midi": 54,
      "hit": false,
      "t": 139596.49499999988,
      "d": 109.87881250001374,
      "v": 96
    },
    {
      "midi": 64,
      "hit": false,
      "t": 139717.4624999999,
      "d": 101.81431250000605,
      "v": 96
    },
    {
      "midi": 50,
      "hit": false,
      "t": 139717.46250000058,
      "d": 64.51600000000326,
      "v": 121
    },
    {
      "midi": 62,
      "hit": false,
      "t": 139838.43000000058,
      "d": 64.51600000000326,
      "v": 121
    },
    {
      "midi": 66,
      "hit": false,
      "t": 139838.43000000058,
      "d": 64.51600000000326,
      "v": 121
    },
    {
      "midi": 69,
      "hit": false,
      "t": 139838.43000000058,
      "d": 64.51600000000326,
      "v": 121
    },
    {
      "midi": 50,
      "hit": false,
      "t": 139959.39750000057,
      "d": 64.51600000000326,
      "v": 121
    },
    {
      "midi": 52,
      "hit": false,
      "t": 140080.36500000057,
      "d": 360.88637500000186,
      "v": 121
    },
    {
      "midi": 52,
      "hit": false,
      "t": 140564.2349999999,
      "d": 49.39506249999977,
      "v": 93
    },
    {
      "midi": 52,
      "hit": false,
      "t": 140564.23500000057,
      "d": 64.51600000000326,
      "v": 121
    },
    {
      "midi": 64,
      "hit": false,
      "t": 140685.2024999999,
      "d": 30.241875000006985,
      "v": 95
    },
    {
      "midi": 69,
      "hit": false,
      "t": 140685.2024999999,
      "d": 43.34668750001583,
      "v": 95
    },
    {
      "midi": 61,
      "hit": false,
      "t": 140685.2024999999,
      "d": 53.42731250001816,
      "v": 96
    },
    {
      "midi": 52,
      "hit": false,
      "t": 140685.20250000057,
      "d": 64.51600000000326,
      "v": 121
    },
    {
      "midi": 64,
      "hit": false,
      "t": 140806.17000000057,
      "d": 64.51600000000326,
      "v": 121
    },
    {
      "midi": 69,
      "hit": false,
      "t": 140806.17000000057,
      "d": 64.51600000000326,
      "v": 121
    },
    {
      "midi": 71,
      "hit": false,
      "t": 140806.17000000057,
      "d": 64.51600000000326,
      "v": 121
    },
    {
      "midi": 52,
      "hit": false,
      "t": 140927.13749999992,
      "d": 50.40312500001164,
      "v": 95
    },
    {
      "midi": 52,
      "hit": false,
      "t": 140927.13750000056,
      "d": 68.54824999999255,
      "v": 121
    },
    {
      "midi": 64,
      "hit": false,
      "t": 141048.10499999992,
      "d": 32.25800000000163,
      "v": 95
    },
    {
      "midi": 68,
      "hit": false,
      "t": 141048.10499999992,
      "d": 34.274124999996275,
      "v": 93
    },
    {
      "midi": 59,
      "hit": false,
      "t": 141048.10499999992,
      "d": 50.40312499998254,
      "v": 95
    },
    {
      "midi": 52,
      "hit": false,
      "t": 141048.10500000056,
      "d": 68.54824999999255,
      "v": 121
    },
    {
      "midi": 64,
      "hit": false,
      "t": 141169.0724999999,
      "d": 34.274124999996275,
      "v": 96
    },
    {
      "midi": 68,
      "hit": false,
      "t": 141169.0724999999,
      "d": 40.32250000000931,
      "v": 96
    },
    {
      "midi": 59,
      "hit": false,
      "t": 141169.0724999999,
      "d": 47.37893750000512,
      "v": 95
    },
    {
      "midi": 52,
      "hit": false,
      "t": 141169.07250000056,
      "d": 68.54824999999255,
      "v": 121
    },
    {
      "midi": 71,
      "hit": false,
      "t": 141290.04000000053,
      "d": 321.5719375000044,
      "v": 97
    },
    {
      "midi": 68,
      "hit": false,
      "t": 141290.04000000053,
      "d": 337.7009374999907,
      "v": 109
    },
    {
      "midi": 50,
      "hit": false,
      "t": 141290.04000000056,
      "d": 1259.0700624999881,
      "v": 120
    },
    {
      "midi": 68,
      "hit": false,
      "t": 141773.91000000053,
      "d": 379.0315000000119,
      "v": 100
    },
    {
      "midi": 74,
      "hit": false,
      "t": 141773.91000000053,
      "d": 384.07181250001304,
      "v": 109
    },
    {
      "midi": 71,
      "hit": false,
      "t": 141773.91000000053,
      "d": 393.1443750000035,
      "v": 94
    },
    {
      "midi": 53,
      "hit": false,
      "t": 141773.91000000056,
      "d": 1259.0700624999881,
      "v": 120
    },
    {
      "midi": 68,
      "hit": false,
      "t": 142257.78000000052,
      "d": 418.3459375000093,
      "v": 115
    },
    {
      "midi": 71,
      "hit": false,
      "t": 142257.78000000052,
      "d": 427.41849999999977,
      "v": 112
    },
    {
      "midi": 74,
      "hit": false,
      "t": 142257.78000000052,
      "d": 451.6119999999937,
      "v": 106
    },
    {
      "midi": 56,
      "hit": false,
      "t": 142257.78000000055,
      "d": 794.3532499999856,
      "v": 114
    },
    {
      "midi": 77,
      "hit": false,
      "t": 142741.65000000052,
      "d": 245.96724999998696,
      "v": 112
    },
    {
      "midi": 68,
      "hit": false,
      "t": 142741.65000000052,
      "d": 278.2252499999886,
      "v": 109
    },
    {
      "midi": 71,
      "hit": false,
      "t": 142741.65000000052,
      "d": 292.3381249999802,
      "v": 97
    },
    {
      "midi": 74,
      "hit": false,
      "t": 142741.65000000052,
      "d": 320.56387499999255,
      "v": 97
    },
    {
      "midi": 59,
      "hit": false,
      "t": 142741.65000000055,
      "d": 408.2653124999779,
      "v": 117
    },
    {
      "midi": 50,
      "hit": false,
      "t": 143225.5200000005,
      "d": 1259.0700624999881,
      "v": 120
    },
    {
      "midi": 71,
      "hit": false,
      "t": 143225.5200000005,
      "d": 321.5719375000044,
      "v": 97
    },
    {
      "midi": 68,
      "hit": false,
      "t": 143225.5200000005,
      "d": 337.7009374999907,
      "v": 109
    },
    {
      "midi": 53,
      "hit": false,
      "t": 143709.3900000005,
      "d": 1259.0700624999881,
      "v": 120
    },
    {
      "midi": 68,
      "hit": false,
      "t": 143709.3900000005,
      "d": 379.0315000000119,
      "v": 100
    },
    {
      "midi": 74,
      "hit": false,
      "t": 143709.3900000005,
      "d": 384.07181250001304,
      "v": 109
    },
    {
      "midi": 71,
      "hit": false,
      "t": 143709.3900000005,
      "d": 393.1443750000035,
      "v": 94
    },
    {
      "midi": 56,
      "hit": false,
      "t": 144193.2600000005,
      "d": 794.3532499999856,
      "v": 114
    },
    {
      "midi": 68,
      "hit": false,
      "t": 144193.2600000005,
      "d": 418.3459375000093,
      "v": 115
    },
    {
      "midi": 71,
      "hit": false,
      "t": 144193.2600000005,
      "d": 427.41849999999977,
      "v": 112
    },
    {
      "midi": 74,
      "hit": false,
      "t": 144193.2600000005,
      "d": 451.6119999999937,
      "v": 106
    },
    {
      "midi": 59,
      "hit": false,
      "t": 144677.1300000005,
      "d": 408.2653124999779,
      "v": 117
    },
    {
      "midi": 77,
      "hit": false,
      "t": 144677.1300000005,
      "d": 245.96724999998696,
      "v": 112
    },
    {
      "midi": 68,
      "hit": false,
      "t": 144677.1300000005,
      "d": 278.2252499999886,
      "v": 109
    },
    {
      "midi": 71,
      "hit": false,
      "t": 144677.1300000005,
      "d": 292.3381249999802,
      "v": 97
    },
    {
      "midi": 74,
      "hit": false,
      "t": 144677.1300000005,
      "d": 320.56387499999255,
      "v": 97
    },
    {
      "midi": 57,
      "hit": false,
      "t": 145160.99999999983,
      "d": 1556.4484999999986,
      "v": 1
    },
    {
      "midi": 69,
      "hit": false,
      "t": 145160.99999999983,
      "d": 1556.4484999999986,
      "v": 1
    },
    {
      "midi": 66,
      "hit": false,
      "t": 145160.99999999988,
      "d": 247.9833750000107,
      "v": 94
    },
    {
      "midi": 50,
      "hit": false,
      "t": 145161.00000000047,
      "d": 360.88637500000186,
      "v": 121
    },
    {
      "midi": 54,
      "hit": false,
      "t": 145402.93499999988,
      "d": 109.87881250001374,
      "v": 96
    },
    {
      "midi": 64,
      "hit": false,
      "t": 145523.9024999999,
      "d": 101.81431250000605,
      "v": 96
    },
    {
      "midi": 50,
      "hit": false,
      "t": 145523.90250000046,
      "d": 64.51600000000326,
      "v": 121
    },
    {
      "midi": 62,
      "hit": false,
      "t": 145644.87000000046,
      "d": 64.51600000000326,
      "v": 121
    },
    {
      "midi": 66,
      "hit": false,
      "t": 145644.87000000046,
      "d": 64.51600000000326,
      "v": 121
    },
    {
      "midi": 69,
      "hit": false,
      "t": 145644.87000000046,
      "d": 64.51600000000326,
      "v": 121
    },
    {
      "midi": 50,
      "hit": false,
      "t": 145765.83750000046,
      "d": 64.51600000000326,
      "v": 121
    },
    {
      "midi": 52,
      "hit": false,
      "t": 145886.80500000046,
      "d": 360.88637500000186,
      "v": 121
    },
    {
      "midi": 52,
      "hit": false,
      "t": 146370.6749999999,
      "d": 49.39506249999977,
      "v": 93
    },
    {
      "midi": 52,
      "hit": false,
      "t": 146370.67500000045,
      "d": 64.51600000000326,
      "v": 121
    },
    {
      "midi": 64,
      "hit": false,
      "t": 146491.6424999999,
      "d": 30.241875000006985,
      "v": 95
    },
    {
      "midi": 69,
      "hit": false,
      "t": 146491.6424999999,
      "d": 43.34668750001583,
      "v": 95
    },
    {
      "midi": 61,
      "hit": false,
      "t": 146491.6424999999,
      "d": 53.42731250001816,
      "v": 96
    },
    {
      "midi": 52,
      "hit": false,
      "t": 146491.64250000045,
      "d": 64.51600000000326,
      "v": 121
    },
    {
      "midi": 64,
      "hit": false,
      "t": 146612.61000000045,
      "d": 64.51600000000326,
      "v": 121
    },
    {
      "midi": 69,
      "hit": false,
      "t": 146612.61000000045,
      "d": 64.51600000000326,
      "v": 121
    },
    {
      "midi": 71,
      "hit": false,
      "t": 146612.61000000045,
      "d": 64.51600000000326,
      "v": 121
    },
    {
      "midi": 52,
      "hit": false,
      "t": 146733.57749999993,
      "d": 50.40312500001164,
      "v": 95
    },
    {
      "midi": 52,
      "hit": false,
      "t": 146733.57750000045,
      "d": 68.54824999999255,
      "v": 121
    },
    {
      "midi": 64,
      "hit": false,
      "t": 146854.54499999993,
      "d": 32.25800000000163,
      "v": 95
    },
    {
      "midi": 68,
      "hit": false,
      "t": 146854.54499999993,
      "d": 34.274124999996275,
      "v": 93
    },
    {
      "midi": 59,
      "hit": false,
      "t": 146854.54499999993,
      "d": 50.40312499998254,
      "v": 95
    },
    {
      "midi": 52,
      "hit": false,
      "t": 146854.54500000045,
      "d": 68.54824999999255,
      "v": 121
    },
    {
      "midi": 64,
      "hit": false,
      "t": 146975.5124999999,
      "d": 34.274124999996275,
      "v": 96
    },
    {
      "midi": 68,
      "hit": false,
      "t": 146975.5124999999,
      "d": 40.32250000000931,
      "v": 96
    },
    {
      "midi": 59,
      "hit": false,
      "t": 146975.5124999999,
      "d": 47.37893750000512,
      "v": 95
    },
    {
      "midi": 52,
      "hit": false,
      "t": 146975.51250000045,
      "d": 68.54824999999255,
      "v": 121
    },
    {
      "midi": 49,
      "hit": false,
      "t": 147096.48000000045,
      "d": 118.95137500000419,
      "v": 121
    },
    {
      "midi": 68,
      "hit": false,
      "t": 147338.4149999999,
      "d": 49.39506249999977,
      "v": 95
    },
    {
      "midi": 71,
      "hit": false,
      "t": 147338.4149999999,
      "d": 53.42731249998906,
      "v": 94
    },
    {
      "midi": 64,
      "hit": false,
      "t": 147338.4149999999,
      "d": 65.52406249998603,
      "v": 95
    },
    {
      "midi": 59,
      "hit": false,
      "t": 147338.41500000044,
      "d": 64.51600000000326,
      "v": 121
    },
    {
      "midi": 64,
      "hit": false,
      "t": 147338.41500000044,
      "d": 64.51600000000326,
      "v": 121
    },
    {
      "midi": 68,
      "hit": false,
      "t": 147338.41500000044,
      "d": 64.51600000000326,
      "v": 121
    },
    {
      "midi": 49,
      "hit": false,
      "t": 147459.38250000044,
      "d": 360.88637500000186,
      "v": 121
    },
    {
      "midi": 50,
      "hit": false,
      "t": 147822.28500000044,
      "d": 360.88637500000186,
      "v": 121
    },
    {
      "midi": 50,
      "hit": false,
      "t": 148306.15500000044,
      "d": 64.51600000000326,
      "v": 121
    },
    {
      "midi": 50,
      "hit": false,
      "t": 148427.12250000043,
      "d": 64.51600000000326,
      "v": 121
    },
    {
      "midi": 62,
      "hit": false,
      "t": 148548.09000000043,
      "d": 64.51600000000326,
      "v": 121
    },
    {
      "midi": 64,
      "hit": false,
      "t": 148548.09000000043,
      "d": 64.51600000000326,
      "v": 121
    },
    {
      "midi": 69,
      "hit": false,
      "t": 148548.09000000043,
      "d": 64.51600000000326,
      "v": 121
    },
    {
      "midi": 50,
      "hit": false,
      "t": 148669.05750000043,
      "d": 68.54824999999255,
      "v": 121
    },
    {
      "midi": 50,
      "hit": false,
      "t": 148790.02500000043,
      "d": 68.54824999999255,
      "v": 121
    },
    {
      "midi": 50,
      "hit": false,
      "t": 148910.99250000043,
      "d": 68.54824999999255,
      "v": 121
    },
    {
      "midi": 66,
      "hit": false,
      "t": 149031.95999999988,
      "d": 247.9833750000107,
      "v": 94
    },
    {
      "midi": 50,
      "hit": false,
      "t": 149031.96000000043,
      "d": 360.88637500000186,
      "v": 121
    },
    {
      "midi": 54,
      "hit": false,
      "t": 149273.89499999987,
      "d": 109.87881250001374,
      "v": 96
    },
    {
      "midi": 64,
      "hit": false,
      "t": 149394.8624999999,
      "d": 101.81431250000605,
      "v": 96
    },
    {
      "midi": 50,
      "hit": false,
      "t": 149394.86250000042,
      "d": 64.51600000000326,
      "v": 121
    },
    {
      "midi": 62,
      "hit": false,
      "t": 149515.83000000042,
      "d": 64.51600000000326,
      "v": 121
    },
    {
      "midi": 66,
      "hit": false,
      "t": 149515.83000000042,
      "d": 64.51600000000326,
      "v": 121
    },
    {
      "midi": 69,
      "hit": false,
      "t": 149515.83000000042,
      "d": 64.51600000000326,
      "v": 121
    },
    {
      "midi": 50,
      "hit": false,
      "t": 149636.79750000042,
      "d": 64.51600000000326,
      "v": 121
    },
    {
      "midi": 52,
      "hit": false,
      "t": 149757.76500000042,
      "d": 360.88637500000186,
      "v": 121
    },
    {
      "midi": 52,
      "hit": false,
      "t": 150241.6349999999,
      "d": 49.39506249999977,
      "v": 93
    },
    {
      "midi": 52,
      "hit": false,
      "t": 150241.63500000042,
      "d": 64.51600000000326,
      "v": 121
    },
    {
      "midi": 64,
      "hit": false,
      "t": 150362.6024999999,
      "d": 30.241875000006985,
      "v": 95
    },
    {
      "midi": 69,
      "hit": false,
      "t": 150362.6024999999,
      "d": 43.34668750001583,
      "v": 95
    },
    {
      "midi": 61,
      "hit": false,
      "t": 150362.6024999999,
      "d": 53.42731250001816,
      "v": 96
    },
    {
      "midi": 52,
      "hit": false,
      "t": 150362.60250000042,
      "d": 64.51600000000326,
      "v": 121
    },
    {
      "midi": 64,
      "hit": false,
      "t": 150483.5700000004,
      "d": 64.51600000000326,
      "v": 121
    },
    {
      "midi": 69,
      "hit": false,
      "t": 150483.5700000004,
      "d": 64.51600000000326,
      "v": 121
    },
    {
      "midi": 71,
      "hit": false,
      "t": 150483.5700000004,
      "d": 64.51600000000326,
      "v": 121
    },
    {
      "midi": 52,
      "hit": false,
      "t": 150604.53749999992,
      "d": 50.40312500001164,
      "v": 95
    },
    {
      "midi": 52,
      "hit": false,
      "t": 150604.5375000004,
      "d": 68.54824999999255,
      "v": 121
    },
    {
      "midi": 64,
      "hit": false,
      "t": 150725.50499999992,
      "d": 32.25800000000163,
      "v": 95
    },
    {
      "midi": 68,
      "hit": false,
      "t": 150725.50499999992,
      "d": 34.274124999996275,
      "v": 93
    },
    {
      "midi": 59,
      "hit": false,
      "t": 150725.50499999992,
      "d": 50.40312499998254,
      "v": 95
    },
    {
      "midi": 52,
      "hit": false,
      "t": 150725.5050000004,
      "d": 68.54824999999255,
      "v": 121
    },
    {
      "midi": 64,
      "hit": false,
      "t": 150846.4724999999,
      "d": 34.274124999996275,
      "v": 96
    },
    {
      "midi": 68,
      "hit": false,
      "t": 150846.4724999999,
      "d": 40.32250000000931,
      "v": 96
    },
    {
      "midi": 59,
      "hit": false,
      "t": 150846.4724999999,
      "d": 47.37893750000512,
      "v": 95
    },
    {
      "midi": 52,
      "hit": false,
      "t": 150846.4725000004,
      "d": 68.54824999999255,
      "v": 121
    },
    {
      "midi": 49,
      "hit": false,
      "t": 150967.4400000004,
      "d": 118.95137500000419,
      "v": 121
    },
    {
      "midi": 66,
      "hit": false,
      "t": 151088.40749999988,
      "d": 49.39506249999977,
      "v": 94
    },
    {
      "midi": 69,
      "hit": false,
      "t": 151088.40749999988,
      "d": 67.54018750000978,
      "v": 95
    },
    {
      "midi": 61,
      "hit": false,
      "t": 151088.40749999988,
      "d": 77.62081250001211,
      "v": 94
    },
    {
      "midi": 61,
      "hit": false,
      "t": 151088.4075000004,
      "d": 64.51600000000326,
      "v": 121
    },
    {
      "midi": 66,
      "hit": false,
      "t": 151088.4075000004,
      "d": 64.51600000000326,
      "v": 121
    },
    {
      "midi": 68,
      "hit": false,
      "t": 151088.4075000004,
      "d": 64.51600000000326,
      "v": 121
    },
    {
      "midi": 49,
      "hit": false,
      "t": 151209.3750000004,
      "d": 118.95137500000419,
      "v": 121
    },
    {
      "midi": 68,
      "hit": false,
      "t": 151330.34249999988,
      "d": 63.507937499991385,
      "v": 95
    },
    {
      "midi": 64,
      "hit": false,
      "t": 151330.34249999988,
      "d": 67.54018749998068,
      "v": 95
    },
    {
      "midi": 59,
      "hit": false,
      "t": 151330.34249999988,
      "d": 73.58856249999371,
      "v": 95
    },
    {
      "midi": 49,
      "hit": false,
      "t": 151330.3425000004,
      "d": 118.95137500000419,
      "v": 121
    },
    {
      "midi": 61,
      "hit": false,
      "t": 151451.3100000004,
      "d": 64.51600000000326,
      "v": 121
    },
    {
      "midi": 64,
      "hit": false,
      "t": 151451.3100000004,
      "d": 64.51600000000326,
      "v": 121
    },
    {
      "midi": 68,
      "hit": false,
      "t": 151451.3100000004,
      "d": 64.51600000000326,
      "v": 121
    },
    {
      "midi": 61,
      "hit": false,
      "t": 151693.24499999988,
      "d": 32.25800000000163,
      "v": 95
    },
    {
      "midi": 66,
      "hit": false,
      "t": 151693.24499999988,
      "d": 36.29024999999092,
      "v": 93
    },
    {
      "midi": 57,
      "hit": false,
      "t": 151693.24499999988,
      "d": 44.3547499999986,
      "v": 94
    },
    {
      "midi": 50,
      "hit": false,
      "t": 151693.2450000004,
      "d": 360.88637500000186,
      "v": 121
    },
    {
      "midi": 62,
      "hit": false,
      "t": 151693.2450000004,
      "d": 790.3209999999963,
      "v": 121
    },
    {
      "midi": 66,
      "hit": false,
      "t": 151693.2450000004,
      "d": 790.3209999999963,
      "v": 121
    },
    {
      "midi": 69,
      "hit": false,
      "t": 151693.2450000004,
      "d": 790.3209999999963,
      "v": 121
    },
    {
      "midi": 57,
      "hit": false,
      "t": 151814.21249999988,
      "d": 43.34668749998673,
      "v": 94
    },
    {
      "midi": 66,
      "hit": false,
      "t": 151814.21249999988,
      "d": 45.36281249998137,
      "v": 90
    },
    {
      "midi": 61,
      "hit": false,
      "t": 151814.21249999988,
      "d": 53.42731249998906,
      "v": 94
    },
    {
      "midi": 57,
      "hit": false,
      "t": 151935.17999999988,
      "d": 49.39506249999977,
      "v": 95
    },
    {
      "midi": 61,
      "hit": false,
      "t": 151935.17999999988,
      "d": 49.39506249999977,
      "v": 93
    },
    {
      "midi": 66,
      "hit": false,
      "t": 151935.17999999988,
      "d": 77.62081250001211,
      "v": 91
    },
    {
      "midi": 66,
      "hit": false,
      "t": 152056.14749999988,
      "d": 42.33862500000396,
      "v": 92
    },
    {
      "midi": 61,
      "hit": false,
      "t": 152056.14749999988,
      "d": 49.39506249999977,
      "v": 96
    },
    {
      "midi": 57,
      "hit": false,
      "t": 152056.14749999988,
      "d": 71.57243749999907,
      "v": 94
    },
    {
      "midi": 50,
      "hit": false,
      "t": 152177.1150000004,
      "d": 64.51600000000326,
      "v": 121
    },
    {
      "midi": 64,
      "hit": false,
      "t": 152298.08249999987,
      "d": 73.58856249999371,
      "v": 95
    },
    {
      "midi": 56,
      "hit": false,
      "t": 152298.08249999987,
      "d": 83.66918749999604,
      "v": 96
    },
    {
      "midi": 59,
      "hit": false,
      "t": 152298.08249999987,
      "d": 87.70143749998533,
      "v": 97
    },
    {
      "midi": 50,
      "hit": false,
      "t": 152298.0825000004,
      "d": 64.51600000000326,
      "v": 121
    },
    {
      "midi": 56,
      "hit": false,
      "t": 152419.0499999998,
      "d": 239.91887500000303,
      "v": 1
    },
    {
      "midi": 68,
      "hit": false,
      "t": 152419.0499999998,
      "d": 239.91887500000303,
      "v": 1
    },
    {
      "midi": 50,
      "hit": false,
      "t": 152419.0500000004,
      "d": 64.51600000000326,
      "v": 121
    },
    {
      "midi": 50,
      "hit": false,
      "t": 152540.0175000004,
      "d": 68.54824999999255,
      "v": 121
    },
    {
      "midi": 57,
      "hit": false,
      "t": 152660.9849999998,
      "d": 1556.4484999999986,
      "v": 1
    },
    {
      "midi": 69,
      "hit": false,
      "t": 152660.9849999998,
      "d": 1556.4484999999986,
      "v": 1
    },
    {
      "midi": 50,
      "hit": false,
      "t": 152660.9850000004,
      "d": 68.54824999999255,
      "v": 121
    },
    {
      "midi": 50,
      "hit": false,
      "t": 152781.9525000004,
      "d": 68.54824999999255,
      "v": 121
    },
    {
      "midi": 66,
      "hit": false,
      "t": 152902.91999999987,
      "d": 247.9833750000107,
      "v": 94
    },
    {
      "midi": 50,
      "hit": false,
      "t": 152902.9200000004,
      "d": 360.88637500000186,
      "v": 121
    },
    {
      "midi": 54,
      "hit": false,
      "t": 153144.85499999986,
      "d": 109.87881250001374,
      "v": 96
    },
    {
      "midi": 64,
      "hit": false,
      "t": 153265.8224999999,
      "d": 101.81431250000605,
      "v": 96
    },
    {
      "midi": 50,
      "hit": false,
      "t": 153265.8225000004,
      "d": 64.51600000000326,
      "v": 121
    },
    {
      "midi": 62,
      "hit": false,
      "t": 153386.7900000004,
      "d": 64.51600000000326,
      "v": 121
    },
    {
      "midi": 66,
      "hit": false,
      "t": 153386.7900000004,
      "d": 64.51600000000326,
      "v": 121
    },
    {
      "midi": 69,
      "hit": false,
      "t": 153386.7900000004,
      "d": 64.51600000000326,
      "v": 121
    },
    {
      "midi": 50,
      "hit": false,
      "t": 153507.75750000039,
      "d": 64.51600000000326,
      "v": 121
    },
    {
      "midi": 52,
      "hit": false,
      "t": 153628.72500000038,
      "d": 360.88637500000186,
      "v": 121
    },
    {
      "midi": 52,
      "hit": false,
      "t": 154112.59499999988,
      "d": 49.39506249999977,
      "v": 93
    },
    {
      "midi": 52,
      "hit": false,
      "t": 154112.59500000038,
      "d": 64.51600000000326,
      "v": 121
    },
    {
      "midi": 64,
      "hit": false,
      "t": 154233.56249999988,
      "d": 30.241875000006985,
      "v": 95
    },
    {
      "midi": 69,
      "hit": false,
      "t": 154233.56249999988,
      "d": 43.34668750001583,
      "v": 95
    },
    {
      "midi": 61,
      "hit": false,
      "t": 154233.56249999988,
      "d": 53.42731250001816,
      "v": 96
    },
    {
      "midi": 52,
      "hit": false,
      "t": 154233.56250000038,
      "d": 64.51600000000326,
      "v": 121
    },
    {
      "midi": 64,
      "hit": false,
      "t": 154354.53000000038,
      "d": 64.51600000000326,
      "v": 121
    },
    {
      "midi": 69,
      "hit": false,
      "t": 154354.53000000038,
      "d": 64.51600000000326,
      "v": 121
    },
    {
      "midi": 71,
      "hit": false,
      "t": 154354.53000000038,
      "d": 64.51600000000326,
      "v": 121
    },
    {
      "midi": 52,
      "hit": false,
      "t": 154475.4974999999,
      "d": 50.40312500001164,
      "v": 95
    },
    {
      "midi": 52,
      "hit": false,
      "t": 154475.49750000038,
      "d": 68.54824999999255,
      "v": 121
    },
    {
      "midi": 64,
      "hit": false,
      "t": 154596.4649999999,
      "d": 32.25800000000163,
      "v": 95
    },
    {
      "midi": 68,
      "hit": false,
      "t": 154596.4649999999,
      "d": 34.274124999996275,
      "v": 93
    },
    {
      "midi": 59,
      "hit": false,
      "t": 154596.4649999999,
      "d": 50.40312499998254,
      "v": 95
    },
    {
      "midi": 52,
      "hit": false,
      "t": 154596.46500000037,
      "d": 68.54824999999255,
      "v": 121
    },
    {
      "midi": 64,
      "hit": false,
      "t": 154717.43249999988,
      "d": 34.274124999996275,
      "v": 96
    },
    {
      "midi": 68,
      "hit": false,
      "t": 154717.43249999988,
      "d": 40.32250000000931,
      "v": 96
    },
    {
      "midi": 59,
      "hit": false,
      "t": 154717.43249999988,
      "d": 47.37893750000512,
      "v": 95
    },
    {
      "midi": 52,
      "hit": false,
      "t": 154717.43250000037,
      "d": 68.54824999999255,
      "v": 121
    },
    {
      "midi": 49,
      "hit": false,
      "t": 154838.40000000037,
      "d": 118.95137500000419,
      "v": 121
    },
    {
      "midi": 68,
      "hit": false,
      "t": 155080.33499999988,
      "d": 49.39506249999977,
      "v": 95
    },
    {
      "midi": 71,
      "hit": false,
      "t": 155080.33499999988,
      "d": 53.42731249998906,
      "v": 94
    },
    {
      "midi": 64,
      "hit": false,
      "t": 155080.33499999988,
      "d": 65.52406249998603,
      "v": 95
    },
    {
      "midi": 59,
      "hit": false,
      "t": 155080.33500000037,
      "d": 64.51600000000326,
      "v": 121
    },
    {
      "midi": 64,
      "hit": false,
      "t": 155080.33500000037,
      "d": 64.51600000000326,
      "v": 121
    },
    {
      "midi": 68,
      "hit": false,
      "t": 155080.33500000037,
      "d": 64.51600000000326,
      "v": 121
    },
    {
      "midi": 49,
      "hit": false,
      "t": 155201.30250000037,
      "d": 360.88637500000186,
      "v": 121
    },
    {
      "midi": 50,
      "hit": false,
      "t": 155564.20500000037,
      "d": 360.88637500000186,
      "v": 121
    },
    {
      "midi": 50,
      "hit": false,
      "t": 156048.07500000036,
      "d": 64.51600000000326,
      "v": 121
    },
    {
      "midi": 50,
      "hit": false,
      "t": 156169.04250000036,
      "d": 64.51600000000326,
      "v": 121
    },
    {
      "midi": 62,
      "hit": false,
      "t": 156290.01000000036,
      "d": 64.51600000000326,
      "v": 121
    },
    {
      "midi": 64,
      "hit": false,
      "t": 156290.01000000036,
      "d": 64.51600000000326,
      "v": 121
    },
    {
      "midi": 69,
      "hit": false,
      "t": 156290.01000000036,
      "d": 64.51600000000326,
      "v": 121
    },
    {
      "midi": 50,
      "hit": false,
      "t": 156410.97750000036,
      "d": 68.54824999999255,
      "v": 121
    },
    {
      "midi": 50,
      "hit": false,
      "t": 156531.94500000036,
      "d": 68.54824999999255,
      "v": 121
    },
    {
      "midi": 50,
      "hit": false,
      "t": 156652.91250000036,
      "d": 68.54824999999255,
      "v": 121
    },
    {
      "midi": 66,
      "hit": false,
      "t": 156773.87999999986,
      "d": 247.9833750000107,
      "v": 94
    },
    {
      "midi": 50,
      "hit": false,
      "t": 156773.88000000035,
      "d": 360.88637500000186,
      "v": 121
    },
    {
      "midi": 54,
      "hit": false,
      "t": 157015.81499999986,
      "d": 109.87881250001374,
      "v": 96
    },
    {
      "midi": 64,
      "hit": false,
      "t": 157136.78249999988,
      "d": 101.81431250000605,
      "v": 96
    },
    {
      "midi": 50,
      "hit": false,
      "t": 157136.78250000035,
      "d": 64.51600000000326,
      "v": 121
    },
    {
      "midi": 62,
      "hit": false,
      "t": 157257.75000000035,
      "d": 64.51600000000326,
      "v": 121
    },
    {
      "midi": 66,
      "hit": false,
      "t": 157257.75000000035,
      "d": 64.51600000000326,
      "v": 121
    },
    {
      "midi": 69,
      "hit": false,
      "t": 157257.75000000035,
      "d": 64.51600000000326,
      "v": 121
    },
    {
      "midi": 50,
      "hit": false,
      "t": 157378.71750000035,
      "d": 64.51600000000326,
      "v": 121
    },
    {
      "midi": 52,
      "hit": false,
      "t": 157499.68500000035,
      "d": 360.88637500000186,
      "v": 121
    },
    {
      "midi": 52,
      "hit": false,
      "t": 157983.55499999988,
      "d": 49.39506249999977,
      "v": 93
    },
    {
      "midi": 52,
      "hit": false,
      "t": 157983.55500000034,
      "d": 64.51600000000326,
      "v": 121
    },
    {
      "midi": 64,
      "hit": false,
      "t": 158104.52249999988,
      "d": 30.241875000006985,
      "v": 95
    },
    {
      "midi": 69,
      "hit": false,
      "t": 158104.52249999988,
      "d": 43.34668750001583,
      "v": 95
    },
    {
      "midi": 61,
      "hit": false,
      "t": 158104.52249999988,
      "d": 53.42731250001816,
      "v": 96
    },
    {
      "midi": 52,
      "hit": false,
      "t": 158104.52250000034,
      "d": 64.51600000000326,
      "v": 121
    },
    {
      "midi": 64,
      "hit": false,
      "t": 158225.49000000034,
      "d": 64.51600000000326,
      "v": 121
    },
    {
      "midi": 69,
      "hit": false,
      "t": 158225.49000000034,
      "d": 64.51600000000326,
      "v": 121
    },
    {
      "midi": 71,
      "hit": false,
      "t": 158225.49000000034,
      "d": 64.51600000000326,
      "v": 121
    },
    {
      "midi": 52,
      "hit": false,
      "t": 158346.4574999999,
      "d": 50.40312500001164,
      "v": 95
    },
    {
      "midi": 52,
      "hit": false,
      "t": 158346.45750000034,
      "d": 68.54824999999255,
      "v": 121
    },
    {
      "midi": 64,
      "hit": false,
      "t": 158467.4249999999,
      "d": 32.25800000000163,
      "v": 95
    },
    {
      "midi": 68,
      "hit": false,
      "t": 158467.4249999999,
      "d": 34.274124999996275,
      "v": 93
    },
    {
      "midi": 59,
      "hit": false,
      "t": 158467.4249999999,
      "d": 50.40312499998254,
      "v": 95
    },
    {
      "midi": 52,
      "hit": false,
      "t": 158467.42500000034,
      "d": 68.54824999999255,
      "v": 121
    },
    {
      "midi": 64,
      "hit": false,
      "t": 158588.39249999987,
      "d": 34.274124999996275,
      "v": 96
    },
    {
      "midi": 68,
      "hit": false,
      "t": 158588.39249999987,
      "d": 40.32250000000931,
      "v": 96
    },
    {
      "midi": 59,
      "hit": false,
      "t": 158588.39249999987,
      "d": 47.37893750000512,
      "v": 95
    },
    {
      "midi": 52,
      "hit": false,
      "t": 158588.39250000034,
      "d": 68.54824999999255,
      "v": 121
    },
    {
      "midi": 49,
      "hit": false,
      "t": 158709.36000000034,
      "d": 118.95137500000419,
      "v": 121
    },
    {
      "midi": 66,
      "hit": false,
      "t": 158830.32749999987,
      "d": 49.39506249999977,
      "v": 94
    },
    {
      "midi": 69,
      "hit": false,
      "t": 158830.32749999987,
      "d": 67.54018750000978,
      "v": 95
    },
    {
      "midi": 61,
      "hit": false,
      "t": 158830.32749999987,
      "d": 77.62081250001211,
      "v": 94
    },
    {
      "midi": 61,
      "hit": false,
      "t": 158830.32750000033,
      "d": 64.51600000000326,
      "v": 121
    },
    {
      "midi": 66,
      "hit": false,
      "t": 158830.32750000033,
      "d": 64.51600000000326,
      "v": 121
    },
    {
      "midi": 68,
      "hit": false,
      "t": 158830.32750000033,
      "d": 64.51600000000326,
      "v": 121
    },
    {
      "midi": 49,
      "hit": false,
      "t": 158951.29500000033,
      "d": 118.95137500000419,
      "v": 121
    },
    {
      "midi": 68,
      "hit": false,
      "t": 159072.26249999987,
      "d": 63.507937499991385,
      "v": 95
    },
    {
      "midi": 64,
      "hit": false,
      "t": 159072.26249999987,
      "d": 67.54018749998068,
      "v": 95
    },
    {
      "midi": 59,
      "hit": false,
      "t": 159072.26249999987,
      "d": 73.58856249999371,
      "v": 95
    },
    {
      "midi": 49,
      "hit": false,
      "t": 159072.26250000033,
      "d": 118.95137500000419,
      "v": 121
    },
    {
      "midi": 61,
      "hit": false,
      "t": 159193.23000000033,
      "d": 64.51600000000326,
      "v": 121
    },
    {
      "midi": 64,
      "hit": false,
      "t": 159193.23000000033,
      "d": 64.51600000000326,
      "v": 121
    },
    {
      "midi": 68,
      "hit": false,
      "t": 159193.23000000033,
      "d": 64.51600000000326,
      "v": 121
    },
    {
      "midi": 61,
      "hit": false,
      "t": 159435.16499999986,
      "d": 32.25800000000163,
      "v": 95
    },
    {
      "midi": 66,
      "hit": false,
      "t": 159435.16499999986,
      "d": 36.29024999999092,
      "v": 93
    },
    {
      "midi": 57,
      "hit": false,
      "t": 159435.16499999986,
      "d": 44.3547499999986,
      "v": 94
    },
    {
      "midi": 50,
      "hit": false,
      "t": 159435.16500000033,
      "d": 360.88637500000186,
      "v": 121
    },
    {
      "midi": 62,
      "hit": false,
      "t": 159435.16500000033,
      "d": 790.3209999999963,
      "v": 121
    },
    {
      "midi": 66,
      "hit": false,
      "t": 159435.16500000033,
      "d": 790.3209999999963,
      "v": 121
    },
    {
      "midi": 69,
      "hit": false,
      "t": 159435.16500000033,
      "d": 790.3209999999963,
      "v": 121
    },
    {
      "midi": 57,
      "hit": false,
      "t": 159556.13249999986,
      "d": 43.34668749998673,
      "v": 94
    },
    {
      "midi": 66,
      "hit": false,
      "t": 159556.13249999986,
      "d": 45.36281249998137,
      "v": 90
    },
    {
      "midi": 61,
      "hit": false,
      "t": 159556.13249999986,
      "d": 53.42731249998906,
      "v": 94
    },
    {
      "midi": 69,
      "hit": false,
      "t": 159677.0999999998,
      "d": 1362.900500000018,
      "v": 1
    },
    {
      "midi": 73,
      "hit": false,
      "t": 159677.0999999998,
      "d": 1367.940812500019,
      "v": 1
    },
    {
      "midi": 66,
      "hit": false,
      "t": 159677.0999999998,
      "d": 1368.948875000031,
      "v": 1
    },
    {
      "midi": 62,
      "hit": false,
      "t": 159677.0999999998,
      "d": 1376.0053125000268,
      "v": 1
    },
    {
      "midi": 57,
      "hit": false,
      "t": 159677.09999999986,
      "d": 49.39506249999977,
      "v": 95
    },
    {
      "midi": 61,
      "hit": false,
      "t": 159677.09999999986,
      "d": 49.39506249999977,
      "v": 93
    },
    {
      "midi": 66,
      "hit": false,
      "t": 159677.09999999986,
      "d": 77.62081250001211,
      "v": 91
    },
    {
      "midi": 66,
      "hit": false,
      "t": 159798.06749999986,
      "d": 42.33862500000396,
      "v": 92
    },
    {
      "midi": 61,
      "hit": false,
      "t": 159798.06749999986,
      "d": 49.39506249999977,
      "v": 96
    },
    {
      "midi": 57,
      "hit": false,
      "t": 159798.06749999986,
      "d": 71.57243749999907,
      "v": 94
    },
    {
      "midi": 50,
      "hit": false,
      "t": 159919.03500000032,
      "d": 64.51600000000326,
      "v": 121
    },
    {
      "midi": 64,
      "hit": false,
      "t": 160040.00249999986,
      "d": 73.58856249999371,
      "v": 95
    },
    {
      "midi": 56,
      "hit": false,
      "t": 160040.00249999986,
      "d": 83.66918749999604,
      "v": 96
    },
    {
      "midi": 59,
      "hit": false,
      "t": 160040.00249999986,
      "d": 87.70143749998533,
      "v": 97
    },
    {
      "midi": 50,
      "hit": false,
      "t": 160040.00250000032,
      "d": 64.51600000000326,
      "v": 121
    },
    {
      "midi": 50,
      "hit": false,
      "t": 160160.97000000032,
      "d": 64.51600000000326,
      "v": 121
    },
    {
      "midi": 50,
      "hit": false,
      "t": 160281.93750000032,
      "d": 68.54824999999255,
      "v": 121
    },
    {
      "midi": 50,
      "hit": false,
      "t": 160402.90500000032,
      "d": 68.54824999999255,
      "v": 121
    },
    {
      "midi": 50,
      "hit": false,
      "t": 160523.87250000032,
      "d": 68.54824999999255,
      "v": 121
    },
    {
      "midi": 66,
      "hit": false,
      "t": 160644.83999999985,
      "d": 247.9833750000107,
      "v": 94
    },
    {
      "midi": 50,
      "hit": false,
      "t": 160644.84000000032,
      "d": 360.88637500000186,
      "v": 121
    },
    {
      "midi": 54,
      "hit": false,
      "t": 160886.77499999985,
      "d": 109.87881250001374,
      "v": 96
    },
    {
      "midi": 64,
      "hit": false,
      "t": 161007.74249999988,
      "d": 101.81431250000605,
      "v": 96
    },
    {
      "midi": 50,
      "hit": false,
      "t": 161007.7425000003,
      "d": 64.51600000000326,
      "v": 121
    },
    {
      "midi": 62,
      "hit": false,
      "t": 161128.7100000003,
      "d": 64.51600000000326,
      "v": 121
    },
    {
      "midi": 66,
      "hit": false,
      "t": 161128.7100000003,
      "d": 64.51600000000326,
      "v": 121
    },
    {
      "midi": 69,
      "hit": false,
      "t": 161128.7100000003,
      "d": 64.51600000000326,
      "v": 121
    },
    {
      "midi": 50,
      "hit": false,
      "t": 161249.6775000003,
      "d": 64.51600000000326,
      "v": 121
    },
    {
      "midi": 52,
      "hit": false,
      "t": 161370.6450000003,
      "d": 360.88637500000186,
      "v": 121
    },
    {
      "midi": 52,
      "hit": false,
      "t": 161854.51499999987,
      "d": 49.39506249999977,
      "v": 93
    },
    {
      "midi": 52,
      "hit": false,
      "t": 161854.5150000003,
      "d": 64.51600000000326,
      "v": 121
    },
    {
      "midi": 64,
      "hit": false,
      "t": 161975.48249999987,
      "d": 30.241875000006985,
      "v": 95
    },
    {
      "midi": 69,
      "hit": false,
      "t": 161975.48249999987,
      "d": 43.34668750001583,
      "v": 95
    },
    {
      "midi": 61,
      "hit": false,
      "t": 161975.48249999987,
      "d": 53.42731250001816,
      "v": 96
    },
    {
      "midi": 52,
      "hit": false,
      "t": 161975.4825000003,
      "d": 64.51600000000326,
      "v": 121
    },
    {
      "midi": 64,
      "hit": false,
      "t": 162096.4500000003,
      "d": 64.51600000000326,
      "v": 121
    },
    {
      "midi": 69,
      "hit": false,
      "t": 162096.4500000003,
      "d": 64.51600000000326,
      "v": 121
    },
    {
      "midi": 71,
      "hit": false,
      "t": 162096.4500000003,
      "d": 64.51600000000326,
      "v": 121
    },
    {
      "midi": 52,
      "hit": false,
      "t": 162217.4174999999,
      "d": 50.40312500001164,
      "v": 95
    },
    {
      "midi": 52,
      "hit": false,
      "t": 162217.4175000003,
      "d": 68.54824999999255,
      "v": 121
    },
    {
      "midi": 64,
      "hit": false,
      "t": 162338.3849999999,
      "d": 32.25800000000163,
      "v": 95
    },
    {
      "midi": 68,
      "hit": false,
      "t": 162338.3849999999,
      "d": 34.274124999996275,
      "v": 93
    },
    {
      "midi": 59,
      "hit": false,
      "t": 162338.3849999999,
      "d": 50.40312499998254,
      "v": 95
    },
    {
      "midi": 52,
      "hit": false,
      "t": 162338.3850000003,
      "d": 68.54824999999255,
      "v": 121
    },
    {
      "midi": 64,
      "hit": false,
      "t": 162459.35249999986,
      "d": 34.274124999996275,
      "v": 96
    },
    {
      "midi": 68,
      "hit": false,
      "t": 162459.35249999986,
      "d": 40.32250000000931,
      "v": 96
    },
    {
      "midi": 59,
      "hit": false,
      "t": 162459.35249999986,
      "d": 47.37893750000512,
      "v": 95
    },
    {
      "midi": 52,
      "hit": false,
      "t": 162459.3525000003,
      "d": 68.54824999999255,
      "v": 121
    },
    {
      "midi": 49,
      "hit": false,
      "t": 162580.3200000003,
      "d": 118.95137500000419,
      "v": 121
    },
    {
      "midi": 68,
      "hit": false,
      "t": 162822.25499999986,
      "d": 49.39506249999977,
      "v": 95
    },
    {
      "midi": 71,
      "hit": false,
      "t": 162822.25499999986,
      "d": 53.42731249998906,
      "v": 94
    },
    {
      "midi": 64,
      "hit": false,
      "t": 162822.25499999986,
      "d": 65.52406249998603,
      "v": 95
    },
    {
      "midi": 59,
      "hit": false,
      "t": 162822.2550000003,
      "d": 64.51600000000326,
      "v": 121
    },
    {
      "midi": 64,
      "hit": false,
      "t": 162822.2550000003,
      "d": 64.51600000000326,
      "v": 121
    },
    {
      "midi": 68,
      "hit": false,
      "t": 162822.2550000003,
      "d": 64.51600000000326,
      "v": 121
    },
    {
      "midi": 49,
      "hit": false,
      "t": 162943.2225000003,
      "d": 360.88637500000186,
      "v": 121
    },
    {
      "midi": 50,
      "hit": false,
      "t": 163306.1250000003,
      "d": 360.88637500000186,
      "v": 121
    },
    {
      "midi": 50,
      "hit": false,
      "t": 163789.9950000003,
      "d": 64.51600000000326,
      "v": 121
    },
    {
      "midi": 50,
      "hit": false,
      "t": 163910.96250000029,
      "d": 64.51600000000326,
      "v": 121
    },
    {
      "midi": 62,
      "hit": false,
      "t": 164031.93000000028,
      "d": 64.51600000000326,
      "v": 121
    },
    {
      "midi": 64,
      "hit": false,
      "t": 164031.93000000028,
      "d": 64.51600000000326,
      "v": 121
    },
    {
      "midi": 69,
      "hit": false,
      "t": 164031.93000000028,
      "d": 64.51600000000326,
      "v": 121
    },
    {
      "midi": 50,
      "hit": false,
      "t": 164152.89750000028,
      "d": 68.54824999999255,
      "v": 121
    },
    {
      "midi": 50,
      "hit": false,
      "t": 164273.86500000028,
      "d": 68.54824999999255,
      "v": 121
    },
    {
      "midi": 50,
      "hit": false,
      "t": 164394.83250000028,
      "d": 68.54824999999255,
      "v": 121
    },
    {
      "midi": 66,
      "hit": false,
      "t": 164515.79999999984,
      "d": 247.9833750000107,
      "v": 94
    },
    {
      "midi": 50,
      "hit": false,
      "t": 164515.80000000028,
      "d": 360.88637500000186,
      "v": 121
    },
    {
      "midi": 54,
      "hit": false,
      "t": 164757.73499999984,
      "d": 109.87881250001374,
      "v": 96
    },
    {
      "midi": 64,
      "hit": false,
      "t": 164878.70249999987,
      "d": 101.81431250000605,
      "v": 96
    },
    {
      "midi": 50,
      "hit": false,
      "t": 164878.70250000028,
      "d": 64.51600000000326,
      "v": 121
    },
    {
      "midi": 62,
      "hit": false,
      "t": 164999.67000000027,
      "d": 64.51600000000326,
      "v": 121
    },
    {
      "midi": 66,
      "hit": false,
      "t": 164999.67000000027,
      "d": 64.51600000000326,
      "v": 121
    },
    {
      "midi": 69,
      "hit": false,
      "t": 164999.67000000027,
      "d": 64.51600000000326,
      "v": 121
    },
    {
      "midi": 50,
      "hit": false,
      "t": 165120.63750000027,
      "d": 64.51600000000326,
      "v": 121
    },
    {
      "midi": 52,
      "hit": false,
      "t": 165241.60500000027,
      "d": 360.88637500000186,
      "v": 121
    },
    {
      "midi": 52,
      "hit": false,
      "t": 165725.47499999986,
      "d": 49.39506249999977,
      "v": 93
    },
    {
      "midi": 52,
      "hit": false,
      "t": 165725.47500000027,
      "d": 64.51600000000326,
      "v": 121
    },
    {
      "midi": 64,
      "hit": false,
      "t": 165846.44249999986,
      "d": 30.241875000006985,
      "v": 95
    },
    {
      "midi": 69,
      "hit": false,
      "t": 165846.44249999986,
      "d": 43.34668750001583,
      "v": 95
    },
    {
      "midi": 61,
      "hit": false,
      "t": 165846.44249999986,
      "d": 53.42731250001816,
      "v": 96
    },
    {
      "midi": 52,
      "hit": false,
      "t": 165846.44250000027,
      "d": 64.51600000000326,
      "v": 121
    },
    {
      "midi": 64,
      "hit": false,
      "t": 165967.41000000027,
      "d": 64.51600000000326,
      "v": 121
    },
    {
      "midi": 69,
      "hit": false,
      "t": 165967.41000000027,
      "d": 64.51600000000326,
      "v": 121
    },
    {
      "midi": 71,
      "hit": false,
      "t": 165967.41000000027,
      "d": 64.51600000000326,
      "v": 121
    },
    {
      "midi": 52,
      "hit": false,
      "t": 166088.3774999999,
      "d": 50.40312500001164,
      "v": 95
    },
    {
      "midi": 52,
      "hit": false,
      "t": 166088.37750000026,
      "d": 68.54824999999255,
      "v": 121
    },
    {
      "midi": 64,
      "hit": false,
      "t": 166209.34499999988,
      "d": 32.25800000000163,
      "v": 95
    },
    {
      "midi": 68,
      "hit": false,
      "t": 166209.34499999988,
      "d": 34.274124999996275,
      "v": 93
    },
    {
      "midi": 59,
      "hit": false,
      "t": 166209.34499999988,
      "d": 50.40312499998254,
      "v": 95
    },
    {
      "midi": 52,
      "hit": false,
      "t": 166209.34500000026,
      "d": 68.54824999999255,
      "v": 121
    },
    {
      "midi": 64,
      "hit": false,
      "t": 166330.31249999985,
      "d": 34.274124999996275,
      "v": 96
    },
    {
      "midi": 68,
      "hit": false,
      "t": 166330.31249999985,
      "d": 40.32250000000931,
      "v": 96
    },
    {
      "midi": 59,
      "hit": false,
      "t": 166330.31249999985,
      "d": 47.37893750000512,
      "v": 95
    },
    {
      "midi": 52,
      "hit": false,
      "t": 166330.31250000026,
      "d": 68.54824999999255,
      "v": 121
    },
    {
      "midi": 49,
      "hit": false,
      "t": 166451.28000000026,
      "d": 118.95137500000419,
      "v": 121
    },
    {
      "midi": 66,
      "hit": false,
      "t": 166572.24749999985,
      "d": 49.39506249999977,
      "v": 94
    },
    {
      "midi": 69,
      "hit": false,
      "t": 166572.24749999985,
      "d": 67.54018750000978,
      "v": 95
    },
    {
      "midi": 61,
      "hit": false,
      "t": 166572.24749999985,
      "d": 77.62081250001211,
      "v": 94
    },
    {
      "midi": 61,
      "hit": false,
      "t": 166572.24750000026,
      "d": 64.51600000000326,
      "v": 121
    },
    {
      "midi": 66,
      "hit": false,
      "t": 166572.24750000026,
      "d": 64.51600000000326,
      "v": 121
    },
    {
      "midi": 68,
      "hit": false,
      "t": 166572.24750000026,
      "d": 64.51600000000326,
      "v": 121
    },
    {
      "midi": 49,
      "hit": false,
      "t": 166693.21500000026,
      "d": 118.95137500000419,
      "v": 121
    },
    {
      "midi": 68,
      "hit": false,
      "t": 166814.18249999985,
      "d": 63.507937499991385,
      "v": 95
    },
    {
      "midi": 64,
      "hit": false,
      "t": 166814.18249999985,
      "d": 67.54018749998068,
      "v": 95
    },
    {
      "midi": 59,
      "hit": false,
      "t": 166814.18249999985,
      "d": 73.58856249999371,
      "v": 95
    },
    {
      "midi": 49,
      "hit": false,
      "t": 166814.18250000026,
      "d": 118.95137500000419,
      "v": 121
    },
    {
      "midi": 61,
      "hit": false,
      "t": 166935.15000000026,
      "d": 64.51600000000326,
      "v": 121
    },
    {
      "midi": 64,
      "hit": false,
      "t": 166935.15000000026,
      "d": 64.51600000000326,
      "v": 121
    },
    {
      "midi": 68,
      "hit": false,
      "t": 166935.15000000026,
      "d": 64.51600000000326,
      "v": 121
    },
    {
      "midi": 61,
      "hit": false,
      "t": 167177.08499999985,
      "d": 32.25800000000163,
      "v": 95
    },
    {
      "midi": 66,
      "hit": false,
      "t": 167177.08499999985,
      "d": 36.29024999999092,
      "v": 93
    },
    {
      "midi": 57,
      "hit": false,
      "t": 167177.08499999985,
      "d": 44.3547499999986,
      "v": 94
    },
    {
      "midi": 50,
      "hit": false,
      "t": 167177.08500000025,
      "d": 360.88637500000186,
      "v": 121
    },
    {
      "midi": 62,
      "hit": false,
      "t": 167177.08500000025,
      "d": 790.3209999999963,
      "v": 121
    },
    {
      "midi": 66,
      "hit": false,
      "t": 167177.08500000025,
      "d": 790.3209999999963,
      "v": 121
    },
    {
      "midi": 69,
      "hit": false,
      "t": 167177.08500000025,
      "d": 790.3209999999963,
      "v": 121
    },
    {
      "midi": 57,
      "hit": false,
      "t": 167298.05249999985,
      "d": 43.34668749998673,
      "v": 94
    },
    {
      "midi": 66,
      "hit": false,
      "t": 167298.05249999985,
      "d": 45.36281249998137,
      "v": 90
    },
    {
      "midi": 61,
      "hit": false,
      "t": 167298.05249999985,
      "d": 53.42731249998906,
      "v": 94
    },
    {
      "midi": 57,
      "hit": false,
      "t": 167419.01999999984,
      "d": 49.39506249999977,
      "v": 95
    },
    {
      "midi": 61,
      "hit": false,
      "t": 167419.01999999984,
      "d": 49.39506249999977,
      "v": 93
    },
    {
      "midi": 66,
      "hit": false,
      "t": 167419.01999999984,
      "d": 77.62081250001211,
      "v": 91
    },
    {
      "midi": 66,
      "hit": false,
      "t": 167539.98749999984,
      "d": 42.33862500000396,
      "v": 92
    },
    {
      "midi": 61,
      "hit": false,
      "t": 167539.98749999984,
      "d": 49.39506249999977,
      "v": 96
    },
    {
      "midi": 57,
      "hit": false,
      "t": 167539.98749999984,
      "d": 71.57243749999907,
      "v": 94
    },
    {
      "midi": 50,
      "hit": false,
      "t": 167660.95500000025,
      "d": 64.51600000000326,
      "v": 121
    },
    {
      "midi": 64,
      "hit": false,
      "t": 167781.92249999984,
      "d": 73.58856249999371,
      "v": 95
    },
    {
      "midi": 56,
      "hit": false,
      "t": 167781.92249999984,
      "d": 83.66918749999604,
      "v": 96
    },
    {
      "midi": 59,
      "hit": false,
      "t": 167781.92249999984,
      "d": 87.70143749998533,
      "v": 97
    },
    {
      "midi": 50,
      "hit": false,
      "t": 167781.92250000025,
      "d": 64.51600000000326,
      "v": 121
    },
    {
      "midi": 56,
      "hit": false,
      "t": 167902.88999999984,
      "d": 239.91887500000303,
      "v": 1
    },
    {
      "midi": 68,
      "hit": false,
      "t": 167902.88999999984,
      "d": 239.91887500000303,
      "v": 1
    },
    {
      "midi": 50,
      "hit": false,
      "t": 167902.89000000025,
      "d": 64.51600000000326,
      "v": 121
    },
    {
      "midi": 50,
      "hit": false,
      "t": 168023.85750000025,
      "d": 68.54824999999255,
      "v": 121
    },
    {
      "midi": 57,
      "hit": false,
      "t": 168144.82499999984,
      "d": 1556.4484999999986,
      "v": 1
    },
    {
      "midi": 69,
      "hit": false,
      "t": 168144.82499999984,
      "d": 1556.4484999999986,
      "v": 1
    },
    {
      "midi": 50,
      "hit": false,
      "t": 168144.82500000024,
      "d": 68.54824999999255,
      "v": 121
    },
    {
      "midi": 50,
      "hit": false,
      "t": 168265.79250000024,
      "d": 68.54824999999255,
      "v": 121
    },
    {
      "midi": 66,
      "hit": false,
      "t": 168386.75999999983,
      "d": 247.9833750000107,
      "v": 94
    },
    {
      "midi": 50,
      "hit": false,
      "t": 168386.76000000024,
      "d": 360.88637500000186,
      "v": 121
    },
    {
      "midi": 54,
      "hit": false,
      "t": 168628.69499999983,
      "d": 109.87881250001374,
      "v": 96
    },
    {
      "midi": 64,
      "hit": false,
      "t": 168749.66249999986,
      "d": 101.81431250000605,
      "v": 96
    },
    {
      "midi": 50,
      "hit": false,
      "t": 168749.66250000024,
      "d": 64.51600000000326,
      "v": 121
    },
    {
      "midi": 62,
      "hit": false,
      "t": 168870.63000000024,
      "d": 64.51600000000326,
      "v": 121
    },
    {
      "midi": 66,
      "hit": false,
      "t": 168870.63000000024,
      "d": 64.51600000000326,
      "v": 121
    },
    {
      "midi": 69,
      "hit": false,
      "t": 168870.63000000024,
      "d": 64.51600000000326,
      "v": 121
    },
    {
      "midi": 50,
      "hit": false,
      "t": 168991.59750000024,
      "d": 64.51600000000326,
      "v": 121
    },
    {
      "midi": 52,
      "hit": false,
      "t": 169112.56500000024,
      "d": 360.88637500000186,
      "v": 121
    },
    {
      "midi": 52,
      "hit": false,
      "t": 169596.43499999985,
      "d": 49.39506249999977,
      "v": 93
    },
    {
      "midi": 52,
      "hit": false,
      "t": 169596.43500000023,
      "d": 64.51600000000326,
      "v": 121
    },
    {
      "midi": 64,
      "hit": false,
      "t": 169717.40249999985,
      "d": 30.241875000006985,
      "v": 95
    },
    {
      "midi": 69,
      "hit": false,
      "t": 169717.40249999985,
      "d": 43.34668750001583,
      "v": 95
    },
    {
      "midi": 61,
      "hit": false,
      "t": 169717.40249999985,
      "d": 53.42731250001816,
      "v": 96
    },
    {
      "midi": 52,
      "hit": false,
      "t": 169717.40250000023,
      "d": 64.51600000000326,
      "v": 121
    },
    {
      "midi": 64,
      "hit": false,
      "t": 169838.37000000023,
      "d": 64.51600000000326,
      "v": 121
    },
    {
      "midi": 69,
      "hit": false,
      "t": 169838.37000000023,
      "d": 64.51600000000326,
      "v": 121
    },
    {
      "midi": 71,
      "hit": false,
      "t": 169838.37000000023,
      "d": 64.51600000000326,
      "v": 121
    },
    {
      "midi": 52,
      "hit": false,
      "t": 169959.33749999988,
      "d": 50.40312500001164,
      "v": 95
    },
    {
      "midi": 52,
      "hit": false,
      "t": 169959.33750000023,
      "d": 68.54824999999255,
      "v": 121
    },
    {
      "midi": 64,
      "hit": false,
      "t": 170080.30499999988,
      "d": 32.25800000000163,
      "v": 95
    },
    {
      "midi": 68,
      "hit": false,
      "t": 170080.30499999988,
      "d": 34.274124999996275,
      "v": 93
    },
    {
      "midi": 59,
      "hit": false,
      "t": 170080.30499999988,
      "d": 50.40312499998254,
      "v": 95
    },
    {
      "midi": 52,
      "hit": false,
      "t": 170080.30500000023,
      "d": 68.54824999999255,
      "v": 121
    },
    {
      "midi": 64,
      "hit": false,
      "t": 170201.27249999985,
      "d": 34.274124999996275,
      "v": 96
    },
    {
      "midi": 68,
      "hit": false,
      "t": 170201.27249999985,
      "d": 40.32250000000931,
      "v": 96
    },
    {
      "midi": 59,
      "hit": false,
      "t": 170201.27249999985,
      "d": 47.37893750000512,
      "v": 95
    },
    {
      "midi": 52,
      "hit": false,
      "t": 170201.27250000022,
      "d": 68.54824999999255,
      "v": 121
    },
    {
      "midi": 49,
      "hit": false,
      "t": 170322.24000000022,
      "d": 118.95137500000419,
      "v": 121
    },
    {
      "midi": 68,
      "hit": false,
      "t": 170564.17499999984,
      "d": 49.39506249999977,
      "v": 95
    },
    {
      "midi": 71,
      "hit": false,
      "t": 170564.17499999984,
      "d": 53.42731249998906,
      "v": 94
    },
    {
      "midi": 64,
      "hit": false,
      "t": 170564.17499999984,
      "d": 65.52406249998603,
      "v": 95
    },
    {
      "midi": 59,
      "hit": false,
      "t": 170564.17500000022,
      "d": 64.51600000000326,
      "v": 121
    },
    {
      "midi": 64,
      "hit": false,
      "t": 170564.17500000022,
      "d": 64.51600000000326,
      "v": 121
    },
    {
      "midi": 68,
      "hit": false,
      "t": 170564.17500000022,
      "d": 64.51600000000326,
      "v": 121
    },
    {
      "midi": 49,
      "hit": false,
      "t": 170685.14250000022,
      "d": 360.88637500000186,
      "v": 121
    },
    {
      "midi": 50,
      "hit": false,
      "t": 171048.04500000022,
      "d": 360.88637500000186,
      "v": 121
    },
    {
      "midi": 50,
      "hit": false,
      "t": 171531.9150000002,
      "d": 64.51600000000326,
      "v": 121
    },
    {
      "midi": 50,
      "hit": false,
      "t": 171652.8825000002,
      "d": 64.51600000000326,
      "v": 121
    },
    {
      "midi": 62,
      "hit": false,
      "t": 171773.8500000002,
      "d": 64.51600000000326,
      "v": 121
    },
    {
      "midi": 64,
      "hit": false,
      "t": 171773.8500000002,
      "d": 64.51600000000326,
      "v": 121
    },
    {
      "midi": 69,
      "hit": false,
      "t": 171773.8500000002,
      "d": 64.51600000000326,
      "v": 121
    },
    {
      "midi": 50,
      "hit": false,
      "t": 171894.8175000002,
      "d": 68.54824999999255,
      "v": 121
    },
    {
      "midi": 50,
      "hit": false,
      "t": 172015.7850000002,
      "d": 68.54824999999255,
      "v": 121
    },
    {
      "midi": 50,
      "hit": false,
      "t": 172136.7525000002,
      "d": 68.54824999999255,
      "v": 121
    },
    {
      "midi": 66,
      "hit": false,
      "t": 172257.71999999983,
      "d": 247.9833750000107,
      "v": 94
    },
    {
      "midi": 50,
      "hit": false,
      "t": 172257.7200000002,
      "d": 360.88637500000186,
      "v": 121
    },
    {
      "midi": 54,
      "hit": false,
      "t": 172499.65499999982,
      "d": 109.87881250001374,
      "v": 96
    },
    {
      "midi": 64,
      "hit": false,
      "t": 172620.62249999985,
      "d": 101.81431250000605,
      "v": 96
    },
    {
      "midi": 50,
      "hit": false,
      "t": 172620.6225000002,
      "d": 64.51600000000326,
      "v": 121
    },
    {
      "midi": 62,
      "hit": false,
      "t": 172741.5900000002,
      "d": 64.51600000000326,
      "v": 121
    },
    {
      "midi": 66,
      "hit": false,
      "t": 172741.5900000002,
      "d": 64.51600000000326,
      "v": 121
    },
    {
      "midi": 69,
      "hit": false,
      "t": 172741.5900000002,
      "d": 64.51600000000326,
      "v": 121
    },
    {
      "midi": 50,
      "hit": false,
      "t": 172862.5575000002,
      "d": 64.51600000000326,
      "v": 121
    },
    {
      "midi": 52,
      "hit": false,
      "t": 172983.5250000002,
      "d": 360.88637500000186,
      "v": 121
    },
    {
      "midi": 52,
      "hit": false,
      "t": 173467.39499999984,
      "d": 49.39506249999977,
      "v": 93
    },
    {
      "midi": 52,
      "hit": false,
      "t": 173467.3950000002,
      "d": 64.51600000000326,
      "v": 121
    },
    {
      "midi": 64,
      "hit": false,
      "t": 173588.36249999984,
      "d": 30.241875000006985,
      "v": 95
    },
    {
      "midi": 69,
      "hit": false,
      "t": 173588.36249999984,
      "d": 43.34668750001583,
      "v": 95
    },
    {
      "midi": 61,
      "hit": false,
      "t": 173588.36249999984,
      "d": 53.42731250001816,
      "v": 96
    },
    {
      "midi": 52,
      "hit": false,
      "t": 173588.3625000002,
      "d": 64.51600000000326,
      "v": 121
    },
    {
      "midi": 64,
      "hit": false,
      "t": 173709.3300000002,
      "d": 64.51600000000326,
      "v": 121
    },
    {
      "midi": 69,
      "hit": false,
      "t": 173709.3300000002,
      "d": 64.51600000000326,
      "v": 121
    },
    {
      "midi": 71,
      "hit": false,
      "t": 173709.3300000002,
      "d": 64.51600000000326,
      "v": 121
    },
    {
      "midi": 52,
      "hit": false,
      "t": 173830.29749999987,
      "d": 50.40312500001164,
      "v": 95
    },
    {
      "midi": 52,
      "hit": false,
      "t": 173830.2975000002,
      "d": 68.54824999999255,
      "v": 121
    },
    {
      "midi": 64,
      "hit": false,
      "t": 173951.26499999987,
      "d": 32.25800000000163,
      "v": 95
    },
    {
      "midi": 68,
      "hit": false,
      "t": 173951.26499999987,
      "d": 34.274124999996275,
      "v": 93
    },
    {
      "midi": 59,
      "hit": false,
      "t": 173951.26499999987,
      "d": 50.40312499998254,
      "v": 95
    },
    {
      "midi": 52,
      "hit": false,
      "t": 173951.2650000002,
      "d": 68.54824999999255,
      "v": 121
    },
    {
      "midi": 64,
      "hit": false,
      "t": 174072.23249999984,
      "d": 34.274124999996275,
      "v": 96
    },
    {
      "midi": 68,
      "hit": false,
      "t": 174072.23249999984,
      "d": 40.32250000000931,
      "v": 96
    },
    {
      "midi": 59,
      "hit": false,
      "t": 174072.23249999984,
      "d": 47.37893750000512,
      "v": 95
    },
    {
      "midi": 52,
      "hit": false,
      "t": 174072.2325000002,
      "d": 68.54824999999255,
      "v": 121
    },
    {
      "midi": 49,
      "hit": false,
      "t": 174193.2000000002,
      "d": 118.95137500000419,
      "v": 121
    },
    {
      "midi": 66,
      "hit": false,
      "t": 174314.16749999984,
      "d": 49.39506249999977,
      "v": 94
    },
    {
      "midi": 69,
      "hit": false,
      "t": 174314.16749999984,
      "d": 67.54018750000978,
      "v": 95
    },
    {
      "midi": 61,
      "hit": false,
      "t": 174314.16749999984,
      "d": 77.62081250001211,
      "v": 94
    },
    {
      "midi": 61,
      "hit": false,
      "t": 174314.16750000019,
      "d": 64.51600000000326,
      "v": 121
    },
    {
      "midi": 66,
      "hit": false,
      "t": 174314.16750000019,
      "d": 64.51600000000326,
      "v": 121
    },
    {
      "midi": 68,
      "hit": false,
      "t": 174314.16750000019,
      "d": 64.51600000000326,
      "v": 121
    },
    {
      "midi": 49,
      "hit": false,
      "t": 174435.13500000018,
      "d": 118.95137500000419,
      "v": 121
    },
    {
      "midi": 68,
      "hit": false,
      "t": 174556.10249999983,
      "d": 63.507937499991385,
      "v": 95
    },
    {
      "midi": 64,
      "hit": false,
      "t": 174556.10249999983,
      "d": 67.54018749998068,
      "v": 95
    },
    {
      "midi": 59,
      "hit": false,
      "t": 174556.10249999983,
      "d": 73.58856249999371,
      "v": 95
    },
    {
      "midi": 49,
      "hit": false,
      "t": 174556.10250000018,
      "d": 118.95137500000419,
      "v": 121
    },
    {
      "midi": 61,
      "hit": false,
      "t": 174677.07000000018,
      "d": 64.51600000000326,
      "v": 121
    },
    {
      "midi": 64,
      "hit": false,
      "t": 174677.07000000018,
      "d": 64.51600000000326,
      "v": 121
    },
    {
      "midi": 68,
      "hit": false,
      "t": 174677.07000000018,
      "d": 64.51600000000326,
      "v": 121
    },
    {
      "midi": 61,
      "hit": false,
      "t": 174919.00499999983,
      "d": 32.25800000000163,
      "v": 95
    },
    {
      "midi": 66,
      "hit": false,
      "t": 174919.00499999983,
      "d": 36.29024999999092,
      "v": 93
    },
    {
      "midi": 57,
      "hit": false,
      "t": 174919.00499999983,
      "d": 44.3547499999986,
      "v": 94
    },
    {
      "midi": 50,
      "hit": false,
      "t": 174919.00500000018,
      "d": 360.88637500000186,
      "v": 121
    },
    {
      "midi": 62,
      "hit": false,
      "t": 174919.00500000018,
      "d": 790.3209999999963,
      "v": 121
    },
    {
      "midi": 66,
      "hit": false,
      "t": 174919.00500000018,
      "d": 790.3209999999963,
      "v": 121
    },
    {
      "midi": 69,
      "hit": false,
      "t": 174919.00500000018,
      "d": 790.3209999999963,
      "v": 121
    },
    {
      "midi": 57,
      "hit": false,
      "t": 175039.97249999983,
      "d": 43.34668749998673,
      "v": 94
    },
    {
      "midi": 66,
      "hit": false,
      "t": 175039.97249999983,
      "d": 45.36281249998137,
      "v": 90
    },
    {
      "midi": 61,
      "hit": false,
      "t": 175039.97249999983,
      "d": 53.42731249998906,
      "v": 94
    },
    {
      "midi": 57,
      "hit": false,
      "t": 175160.93999999983,
      "d": 49.39506249999977,
      "v": 95
    },
    {
      "midi": 61,
      "hit": false,
      "t": 175160.93999999983,
      "d": 49.39506249999977,
      "v": 93
    },
    {
      "midi": 66,
      "hit": false,
      "t": 175160.93999999983,
      "d": 77.62081250001211,
      "v": 91
    },
    {
      "midi": 69,
      "hit": false,
      "t": 175160.93999999983,
      "d": 1362.900500000018,
      "v": 1
    },
    {
      "midi": 73,
      "hit": false,
      "t": 175160.93999999983,
      "d": 1367.940812500019,
      "v": 1
    },
    {
      "midi": 66,
      "hit": false,
      "t": 175160.93999999983,
      "d": 1368.948875000031,
      "v": 1
    },
    {
      "midi": 62,
      "hit": false,
      "t": 175160.93999999983,
      "d": 1376.0053125000268,
      "v": 1
    },
    {
      "midi": 66,
      "hit": false,
      "t": 175281.90749999983,
      "d": 42.33862500000396,
      "v": 92
    },
    {
      "midi": 61,
      "hit": false,
      "t": 175281.90749999983,
      "d": 49.39506249999977,
      "v": 96
    },
    {
      "midi": 57,
      "hit": false,
      "t": 175281.90749999983,
      "d": 71.57243749999907,
      "v": 94
    },
    {
      "midi": 50,
      "hit": false,
      "t": 175402.87500000017,
      "d": 64.51600000000326,
      "v": 121
    },
    {
      "midi": 64,
      "hit": false,
      "t": 175523.84249999982,
      "d": 73.58856249999371,
      "v": 95
    },
    {
      "midi": 56,
      "hit": false,
      "t": 175523.84249999982,
      "d": 83.66918749999604,
      "v": 96
    },
    {
      "midi": 59,
      "hit": false,
      "t": 175523.84249999982,
      "d": 87.70143749998533,
      "v": 97
    },
    {
      "midi": 50,
      "hit": false,
      "t": 175523.84250000017,
      "d": 64.51600000000326,
      "v": 121
    },
    {
      "midi": 50,
      "hit": false,
      "t": 175644.81000000017,
      "d": 64.51600000000326,
      "v": 121
    },
    {
      "midi": 50,
      "hit": false,
      "t": 175765.77750000017,
      "d": 68.54824999999255,
      "v": 121
    },
    {
      "midi": 50,
      "hit": false,
      "t": 175886.74500000017,
      "d": 68.54824999999255,
      "v": 121
    },
    {
      "midi": 50,
      "hit": false,
      "t": 176007.71250000017,
      "d": 68.54824999999255,
      "v": 121
    },
    {
      "midi": 66,
      "hit": false,
      "t": 176128.67999999982,
      "d": 247.9833750000107,
      "v": 94
    },
    {
      "midi": 50,
      "hit": false,
      "t": 176128.68000000017,
      "d": 360.88637500000186,
      "v": 121
    },
    {
      "midi": 54,
      "hit": false,
      "t": 176370.61499999982,
      "d": 109.87881250001374,
      "v": 96
    },
    {
      "midi": 64,
      "hit": false,
      "t": 176491.58249999984,
      "d": 101.81431250000605,
      "v": 96
    },
    {
      "midi": 50,
      "hit": false,
      "t": 176491.58250000016,
      "d": 64.51600000000326,
      "v": 121
    },
    {
      "midi": 62,
      "hit": false,
      "t": 176612.55000000016,
      "d": 64.51600000000326,
      "v": 121
    },
    {
      "midi": 66,
      "hit": false,
      "t": 176612.55000000016,
      "d": 64.51600000000326,
      "v": 121
    },
    {
      "midi": 69,
      "hit": false,
      "t": 176612.55000000016,
      "d": 64.51600000000326,
      "v": 121
    },
    {
      "midi": 50,
      "hit": false,
      "t": 176733.51750000016,
      "d": 64.51600000000326,
      "v": 121
    },
    {
      "midi": 52,
      "hit": false,
      "t": 176854.48500000016,
      "d": 360.88637500000186,
      "v": 121
    },
    {
      "midi": 52,
      "hit": false,
      "t": 177338.35499999984,
      "d": 49.39506249999977,
      "v": 93
    },
    {
      "midi": 52,
      "hit": false,
      "t": 177338.35500000016,
      "d": 64.51600000000326,
      "v": 121
    },
    {
      "midi": 64,
      "hit": false,
      "t": 177459.32249999983,
      "d": 30.241875000006985,
      "v": 95
    },
    {
      "midi": 69,
      "hit": false,
      "t": 177459.32249999983,
      "d": 43.34668750001583,
      "v": 95
    },
    {
      "midi": 61,
      "hit": false,
      "t": 177459.32249999983,
      "d": 53.42731250001816,
      "v": 96
    },
    {
      "midi": 52,
      "hit": false,
      "t": 177459.32250000015,
      "d": 64.51600000000326,
      "v": 121
    },
    {
      "midi": 64,
      "hit": false,
      "t": 177580.29000000015,
      "d": 64.51600000000326,
      "v": 121
    },
    {
      "midi": 69,
      "hit": false,
      "t": 177580.29000000015,
      "d": 64.51600000000326,
      "v": 121
    },
    {
      "midi": 71,
      "hit": false,
      "t": 177580.29000000015,
      "d": 64.51600000000326,
      "v": 121
    },
    {
      "midi": 52,
      "hit": false,
      "t": 177701.25749999986,
      "d": 50.40312500001164,
      "v": 95
    },
    {
      "midi": 52,
      "hit": false,
      "t": 177701.25750000015,
      "d": 68.54824999999255,
      "v": 121
    },
    {
      "midi": 64,
      "hit": false,
      "t": 177822.22499999986,
      "d": 32.25800000000163,
      "v": 95
    },
    {
      "midi": 68,
      "hit": false,
      "t": 177822.22499999986,
      "d": 34.274124999996275,
      "v": 93
    },
    {
      "midi": 59,
      "hit": false,
      "t": 177822.22499999986,
      "d": 50.40312499998254,
      "v": 95
    },
    {
      "midi": 52,
      "hit": false,
      "t": 177822.22500000015,
      "d": 68.54824999999255,
      "v": 121
    },
    {
      "midi": 64,
      "hit": false,
      "t": 177943.19249999983,
      "d": 34.274124999996275,
      "v": 96
    },
    {
      "midi": 68,
      "hit": false,
      "t": 177943.19249999983,
      "d": 40.32250000000931,
      "v": 96
    },
    {
      "midi": 59,
      "hit": false,
      "t": 177943.19249999983,
      "d": 47.37893750000512,
      "v": 95
    },
    {
      "midi": 52,
      "hit": false,
      "t": 177943.19250000015,
      "d": 68.54824999999255,
      "v": 121
    },
    {
      "midi": 49,
      "hit": false,
      "t": 178064.16000000015,
      "d": 118.95137500000419,
      "v": 121
    },
    {
      "midi": 68,
      "hit": false,
      "t": 178306.09499999983,
      "d": 49.39506249999977,
      "v": 95
    },
    {
      "midi": 71,
      "hit": false,
      "t": 178306.09499999983,
      "d": 53.42731249998906,
      "v": 94
    },
    {
      "midi": 64,
      "hit": false,
      "t": 178306.09499999983,
      "d": 65.52406249998603,
      "v": 95
    },
    {
      "midi": 59,
      "hit": false,
      "t": 178306.09500000015,
      "d": 64.51600000000326,
      "v": 121
    },
    {
      "midi": 64,
      "hit": false,
      "t": 178306.09500000015,
      "d": 64.51600000000326,
      "v": 121
    },
    {
      "midi": 68,
      "hit": false,
      "t": 178306.09500000015,
      "d": 64.51600000000326,
      "v": 121
    },
    {
      "midi": 49,
      "hit": false,
      "t": 178427.06250000015,
      "d": 360.88637500000186,
      "v": 121
    },
    {
      "midi": 50,
      "hit": false,
      "t": 178789.96500000014,
      "d": 360.88637500000186,
      "v": 121
    },
    {
      "midi": 69,
      "hit": false,
      "t": 179031.89999999985,
      "d": 1362.900500000018,
      "v": 1
    },
    {
      "midi": 73,
      "hit": false,
      "t": 179031.89999999985,
      "d": 1367.940812500019,
      "v": 1
    },
    {
      "midi": 66,
      "hit": false,
      "t": 179031.89999999985,
      "d": 1368.948875000031,
      "v": 1
    },
    {
      "midi": 62,
      "hit": false,
      "t": 179031.89999999985,
      "d": 1376.0053125000268,
      "v": 1
    },
    {
      "midi": 50,
      "hit": false,
      "t": 179273.83500000014,
      "d": 64.51600000000326,
      "v": 121
    },
    {
      "midi": 50,
      "hit": false,
      "t": 179394.80250000014,
      "d": 64.51600000000326,
      "v": 121
    },
    {
      "midi": 62,
      "hit": false,
      "t": 179515.77000000014,
      "d": 64.51600000000326,
      "v": 121
    },
    {
      "midi": 64,
      "hit": false,
      "t": 179515.77000000014,
      "d": 64.51600000000326,
      "v": 121
    },
    {
      "midi": 69,
      "hit": false,
      "t": 179515.77000000014,
      "d": 64.51600000000326,
      "v": 121
    },
    {
      "midi": 50,
      "hit": false,
      "t": 179636.73750000013,
      "d": 68.54824999999255,
      "v": 121
    },
    {
      "midi": 50,
      "hit": false,
      "t": 179757.70500000013,
      "d": 68.54824999999255,
      "v": 121
    },
    {
      "midi": 50,
      "hit": false,
      "t": 179878.67250000013,
      "d": 68.54824999999255,
      "v": 121
    },
    {
      "midi": 66,
      "hit": false,
      "t": 179999.6399999998,
      "d": 247.9833750000107,
      "v": 94
    },
    {
      "midi": 50,
      "hit": false,
      "t": 179999.64000000013,
      "d": 360.88637500000186,
      "v": 121
    },
    {
      "midi": 54,
      "hit": false,
      "t": 180241.5749999998,
      "d": 109.87881250001374,
      "v": 96
    },
    {
      "midi": 64,
      "hit": false,
      "t": 180362.54249999984,
      "d": 101.81431250000605,
      "v": 96
    },
    {
      "midi": 50,
      "hit": false,
      "t": 180362.54250000013,
      "d": 64.51600000000326,
      "v": 121
    },
    {
      "midi": 62,
      "hit": false,
      "t": 180483.51000000013,
      "d": 64.51600000000326,
      "v": 121
    },
    {
      "midi": 66,
      "hit": false,
      "t": 180483.51000000013,
      "d": 64.51600000000326,
      "v": 121
    },
    {
      "midi": 69,
      "hit": false,
      "t": 180483.51000000013,
      "d": 64.51600000000326,
      "v": 121
    },
    {
      "midi": 50,
      "hit": false,
      "t": 180604.47750000012,
      "d": 64.51600000000326,
      "v": 121
    },
    {
      "midi": 52,
      "hit": false,
      "t": 180725.44500000012,
      "d": 360.88637500000186,
      "v": 121
    },
    {
      "midi": 52,
      "hit": false,
      "t": 181209.31499999983,
      "d": 49.39506249999977,
      "v": 93
    },
    {
      "midi": 52,
      "hit": false,
      "t": 181209.31500000012,
      "d": 64.51600000000326,
      "v": 121
    },
    {
      "midi": 64,
      "hit": false,
      "t": 181330.28249999983,
      "d": 30.241875000006985,
      "v": 95
    },
    {
      "midi": 69,
      "hit": false,
      "t": 181330.28249999983,
      "d": 43.34668750001583,
      "v": 95
    },
    {
      "midi": 61,
      "hit": false,
      "t": 181330.28249999983,
      "d": 53.42731250001816,
      "v": 96
    },
    {
      "midi": 52,
      "hit": false,
      "t": 181330.28250000012,
      "d": 64.51600000000326,
      "v": 121
    },
    {
      "midi": 64,
      "hit": false,
      "t": 181451.25000000012,
      "d": 64.51600000000326,
      "v": 121
    },
    {
      "midi": 69,
      "hit": false,
      "t": 181451.25000000012,
      "d": 64.51600000000326,
      "v": 121
    },
    {
      "midi": 71,
      "hit": false,
      "t": 181451.25000000012,
      "d": 64.51600000000326,
      "v": 121
    },
    {
      "midi": 52,
      "hit": false,
      "t": 181572.21749999985,
      "d": 50.40312500001164,
      "v": 95
    },
    {
      "midi": 52,
      "hit": false,
      "t": 181572.21750000012,
      "d": 68.54824999999255,
      "v": 121
    },
    {
      "midi": 64,
      "hit": false,
      "t": 181693.18499999985,
      "d": 32.25800000000163,
      "v": 95
    },
    {
      "midi": 68,
      "hit": false,
      "t": 181693.18499999985,
      "d": 34.274124999996275,
      "v": 93
    },
    {
      "midi": 59,
      "hit": false,
      "t": 181693.18499999985,
      "d": 50.40312499998254,
      "v": 95
    },
    {
      "midi": 52,
      "hit": false,
      "t": 181693.1850000001,
      "d": 68.54824999999255,
      "v": 121
    },
    {
      "midi": 64,
      "hit": false,
      "t": 181814.15249999982,
      "d": 34.274124999996275,
      "v": 96
    },
    {
      "midi": 68,
      "hit": false,
      "t": 181814.15249999982,
      "d": 40.32250000000931,
      "v": 96
    },
    {
      "midi": 59,
      "hit": false,
      "t": 181814.15249999982,
      "d": 47.37893750000512,
      "v": 95
    },
    {
      "midi": 52,
      "hit": false,
      "t": 181814.1525000001,
      "d": 68.54824999999255,
      "v": 121
    },
    {
      "midi": 49,
      "hit": false,
      "t": 181935.1200000001,
      "d": 118.95137500000419,
      "v": 121
    },
    {
      "midi": 66,
      "hit": false,
      "t": 182056.08749999982,
      "d": 49.39506249999977,
      "v": 94
    },
    {
      "midi": 69,
      "hit": false,
      "t": 182056.08749999982,
      "d": 67.54018750000978,
      "v": 95
    },
    {
      "midi": 61,
      "hit": false,
      "t": 182056.08749999982,
      "d": 77.62081250001211,
      "v": 94
    },
    {
      "midi": 61,
      "hit": false,
      "t": 182056.0875000001,
      "d": 64.51600000000326,
      "v": 121
    },
    {
      "midi": 66,
      "hit": false,
      "t": 182056.0875000001,
      "d": 64.51600000000326,
      "v": 121
    },
    {
      "midi": 68,
      "hit": false,
      "t": 182056.0875000001,
      "d": 64.51600000000326,
      "v": 121
    },
    {
      "midi": 49,
      "hit": false,
      "t": 182177.0550000001,
      "d": 118.95137500000419,
      "v": 121
    },
    {
      "midi": 68,
      "hit": false,
      "t": 182298.02249999982,
      "d": 63.507937499991385,
      "v": 95
    },
    {
      "midi": 64,
      "hit": false,
      "t": 182298.02249999982,
      "d": 67.54018749998068,
      "v": 95
    },
    {
      "midi": 59,
      "hit": false,
      "t": 182298.02249999982,
      "d": 73.58856249999371,
      "v": 95
    },
    {
      "midi": 49,
      "hit": false,
      "t": 182298.0225000001,
      "d": 118.95137500000419,
      "v": 121
    },
    {
      "midi": 61,
      "hit": false,
      "t": 182418.9900000001,
      "d": 64.51600000000326,
      "v": 121
    },
    {
      "midi": 64,
      "hit": false,
      "t": 182418.9900000001,
      "d": 64.51600000000326,
      "v": 121
    },
    {
      "midi": 68,
      "hit": false,
      "t": 182418.9900000001,
      "d": 64.51600000000326,
      "v": 121
    },
    {
      "midi": 61,
      "hit": false,
      "t": 182660.9249999998,
      "d": 32.25800000000163,
      "v": 95
    },
    {
      "midi": 66,
      "hit": false,
      "t": 182660.9249999998,
      "d": 36.29024999999092,
      "v": 93
    },
    {
      "midi": 57,
      "hit": false,
      "t": 182660.9249999998,
      "d": 44.3547499999986,
      "v": 94
    },
    {
      "midi": 50,
      "hit": false,
      "t": 182660.9250000001,
      "d": 360.88637500000186,
      "v": 121
    },
    {
      "midi": 62,
      "hit": false,
      "t": 182660.9250000001,
      "d": 790.3209999999963,
      "v": 121
    },
    {
      "midi": 66,
      "hit": false,
      "t": 182660.9250000001,
      "d": 790.3209999999963,
      "v": 121
    },
    {
      "midi": 69,
      "hit": false,
      "t": 182660.9250000001,
      "d": 790.3209999999963,
      "v": 121
    },
    {
      "midi": 57,
      "hit": false,
      "t": 182781.8924999998,
      "d": 43.34668749998673,
      "v": 94
    },
    {
      "midi": 66,
      "hit": false,
      "t": 182781.8924999998,
      "d": 45.36281249998137,
      "v": 90
    },
    {
      "midi": 61,
      "hit": false,
      "t": 182781.8924999998,
      "d": 53.42731249998906,
      "v": 94
    },
    {
      "midi": 57,
      "hit": false,
      "t": 182902.8599999998,
      "d": 49.39506249999977,
      "v": 95
    },
    {
      "midi": 61,
      "hit": false,
      "t": 182902.8599999998,
      "d": 49.39506249999977,
      "v": 93
    },
    {
      "midi": 66,
      "hit": false,
      "t": 182902.8599999998,
      "d": 77.62081250001211,
      "v": 91
    },
    {
      "midi": 66,
      "hit": false,
      "t": 183023.8274999998,
      "d": 42.33862500000396,
      "v": 92
    },
    {
      "midi": 61,
      "hit": false,
      "t": 183023.8274999998,
      "d": 49.39506249999977,
      "v": 96
    },
    {
      "midi": 57,
      "hit": false,
      "t": 183023.8274999998,
      "d": 71.57243749999907,
      "v": 94
    },
    {
      "midi": 50,
      "hit": false,
      "t": 183144.7950000001,
      "d": 64.51600000000326,
      "v": 121
    },
    {
      "midi": 64,
      "hit": false,
      "t": 183265.7624999998,
      "d": 73.58856249999371,
      "v": 95
    },
    {
      "midi": 56,
      "hit": false,
      "t": 183265.7624999998,
      "d": 83.66918749999604,
      "v": 96
    },
    {
      "midi": 59,
      "hit": false,
      "t": 183265.7624999998,
      "d": 87.70143749998533,
      "v": 97
    },
    {
      "midi": 50,
      "hit": false,
      "t": 183265.7625000001,
      "d": 64.51600000000326,
      "v": 121
    },
    {
      "midi": 50,
      "hit": false,
      "t": 183386.7300000001,
      "d": 64.51600000000326,
      "v": 121
    },
    {
      "midi": 50,
      "hit": false,
      "t": 183507.6975000001,
      "d": 68.54824999999255,
      "v": 121
    },
    {
      "midi": 50,
      "hit": false,
      "t": 183628.6650000001,
      "d": 68.54824999999255,
      "v": 121
    },
    {
      "midi": 50,
      "hit": false,
      "t": 183749.6325000001,
      "d": 68.54824999999255,
      "v": 121
    },
    {
      "midi": 66,
      "hit": false,
      "t": 183870.5999999998,
      "d": 247.9833750000107,
      "v": 94
    },
    {
      "midi": 50,
      "hit": false,
      "t": 183870.6000000001,
      "d": 360.88637500000186,
      "v": 121
    },
    {
      "midi": 54,
      "hit": false,
      "t": 184112.5349999998,
      "d": 109.87881250001374,
      "v": 96
    },
    {
      "midi": 64,
      "hit": false,
      "t": 184233.50249999983,
      "d": 101.81431250000605,
      "v": 96
    },
    {
      "midi": 50,
      "hit": false,
      "t": 184233.5025000001,
      "d": 64.51600000000326,
      "v": 121
    },
    {
      "midi": 62,
      "hit": false,
      "t": 184354.4700000001,
      "d": 64.51600000000326,
      "v": 121
    },
    {
      "midi": 66,
      "hit": false,
      "t": 184354.4700000001,
      "d": 64.51600000000326,
      "v": 121
    },
    {
      "midi": 69,
      "hit": false,
      "t": 184354.4700000001,
      "d": 64.51600000000326,
      "v": 121
    },
    {
      "midi": 50,
      "hit": false,
      "t": 184475.4375000001,
      "d": 64.51600000000326,
      "v": 121
    },
    {
      "midi": 52,
      "hit": false,
      "t": 184596.4050000001,
      "d": 360.88637500000186,
      "v": 121
    },
    {
      "midi": 52,
      "hit": false,
      "t": 185080.27499999982,
      "d": 49.39506249999977,
      "v": 93
    },
    {
      "midi": 52,
      "hit": false,
      "t": 185080.27500000008,
      "d": 64.51600000000326,
      "v": 121
    },
    {
      "midi": 64,
      "hit": false,
      "t": 185201.24249999982,
      "d": 30.241875000006985,
      "v": 95
    },
    {
      "midi": 69,
      "hit": false,
      "t": 185201.24249999982,
      "d": 43.34668750001583,
      "v": 95
    },
    {
      "midi": 61,
      "hit": false,
      "t": 185201.24249999982,
      "d": 53.42731250001816,
      "v": 96
    },
    {
      "midi": 52,
      "hit": false,
      "t": 185201.24250000008,
      "d": 64.51600000000326,
      "v": 121
    },
    {
      "midi": 64,
      "hit": false,
      "t": 185322.21000000008,
      "d": 64.51600000000326,
      "v": 121
    },
    {
      "midi": 69,
      "hit": false,
      "t": 185322.21000000008,
      "d": 64.51600000000326,
      "v": 121
    },
    {
      "midi": 71,
      "hit": false,
      "t": 185322.21000000008,
      "d": 64.51600000000326,
      "v": 121
    },
    {
      "midi": 52,
      "hit": false,
      "t": 185443.17749999985,
      "d": 50.40312500001164,
      "v": 95
    },
    {
      "midi": 52,
      "hit": false,
      "t": 185443.17750000008,
      "d": 68.54824999999255,
      "v": 121
    },
    {
      "midi": 64,
      "hit": false,
      "t": 185564.14499999984,
      "d": 32.25800000000163,
      "v": 95
    },
    {
      "midi": 68,
      "hit": false,
      "t": 185564.14499999984,
      "d": 34.274124999996275,
      "v": 93
    },
    {
      "midi": 59,
      "hit": false,
      "t": 185564.14499999984,
      "d": 50.40312499998254,
      "v": 95
    },
    {
      "midi": 52,
      "hit": false,
      "t": 185564.14500000008,
      "d": 68.54824999999255,
      "v": 121
    },
    {
      "midi": 64,
      "hit": false,
      "t": 185685.1124999998,
      "d": 34.274124999996275,
      "v": 96
    },
    {
      "midi": 68,
      "hit": false,
      "t": 185685.1124999998,
      "d": 40.32250000000931,
      "v": 96
    },
    {
      "midi": 59,
      "hit": false,
      "t": 185685.1124999998,
      "d": 47.37893750000512,
      "v": 95
    },
    {
      "midi": 52,
      "hit": false,
      "t": 185685.11250000008,
      "d": 68.54824999999255,
      "v": 121
    },
    {
      "midi": 49,
      "hit": false,
      "t": 185806.08000000007,
      "d": 118.95137500000419,
      "v": 121
    },
    {
      "midi": 68,
      "hit": false,
      "t": 186048.0149999998,
      "d": 49.39506249999977,
      "v": 95
    },
    {
      "midi": 71,
      "hit": false,
      "t": 186048.0149999998,
      "d": 53.42731249998906,
      "v": 94
    },
    {
      "midi": 64,
      "hit": false,
      "t": 186048.0149999998,
      "d": 65.52406249998603,
      "v": 95
    },
    {
      "midi": 59,
      "hit": false,
      "t": 186048.01500000007,
      "d": 64.51600000000326,
      "v": 121
    },
    {
      "midi": 64,
      "hit": false,
      "t": 186048.01500000007,
      "d": 64.51600000000326,
      "v": 121
    },
    {
      "midi": 68,
      "hit": false,
      "t": 186048.01500000007,
      "d": 64.51600000000326,
      "v": 121
    },
    {
      "midi": 49,
      "hit": false,
      "t": 186168.98250000007,
      "d": 360.88637500000186,
      "v": 121
    },
    {
      "midi": 50,
      "hit": false,
      "t": 186531.88500000007,
      "d": 360.88637500000186,
      "v": 121
    },
    {
      "midi": 69,
      "hit": false,
      "t": 186773.81999999986,
      "d": 1362.900500000018,
      "v": 1
    },
    {
      "midi": 73,
      "hit": false,
      "t": 186773.81999999986,
      "d": 1367.940812500019,
      "v": 1
    },
    {
      "midi": 66,
      "hit": false,
      "t": 186773.81999999986,
      "d": 1368.948875000031,
      "v": 1
    },
    {
      "midi": 62,
      "hit": false,
      "t": 186773.81999999986,
      "d": 1376.0053125000268,
      "v": 1
    },
    {
      "midi": 50,
      "hit": false,
      "t": 187015.75500000006,
      "d": 64.51600000000326,
      "v": 121
    },
    {
      "midi": 50,
      "hit": false,
      "t": 187136.72250000006,
      "d": 64.51600000000326,
      "v": 121
    },
    {
      "midi": 62,
      "hit": false,
      "t": 187257.69000000006,
      "d": 64.51600000000326,
      "v": 121
    },
    {
      "midi": 64,
      "hit": false,
      "t": 187257.69000000006,
      "d": 64.51600000000326,
      "v": 121
    },
    {
      "midi": 69,
      "hit": false,
      "t": 187257.69000000006,
      "d": 64.51600000000326,
      "v": 121
    },
    {
      "midi": 50,
      "hit": false,
      "t": 187378.65750000006,
      "d": 68.54824999999255,
      "v": 121
    },
    {
      "midi": 50,
      "hit": false,
      "t": 187499.62500000006,
      "d": 68.54824999999255,
      "v": 121
    },
    {
      "midi": 50,
      "hit": false,
      "t": 187620.59250000006,
      "d": 68.54824999999255,
      "v": 121
    },
    {
      "midi": 66,
      "hit": false,
      "t": 187741.5599999998,
      "d": 247.9833750000107,
      "v": 94
    },
    {
      "midi": 50,
      "hit": false,
      "t": 187741.56000000006,
      "d": 360.88637500000186,
      "v": 121
    },
    {
      "midi": 54,
      "hit": false,
      "t": 187983.4949999998,
      "d": 109.87881250001374,
      "v": 96
    },
    {
      "midi": 64,
      "hit": false,
      "t": 188104.46249999982,
      "d": 101.81431250000605,
      "v": 96
    },
    {
      "midi": 50,
      "hit": false,
      "t": 188104.46250000005,
      "d": 64.51600000000326,
      "v": 121
    },
    {
      "midi": 62,
      "hit": false,
      "t": 188225.43000000005,
      "d": 64.51600000000326,
      "v": 121
    },
    {
      "midi": 66,
      "hit": false,
      "t": 188225.43000000005,
      "d": 64.51600000000326,
      "v": 121
    },
    {
      "midi": 69,
      "hit": false,
      "t": 188225.43000000005,
      "d": 64.51600000000326,
      "v": 121
    },
    {
      "midi": 50,
      "hit": false,
      "t": 188346.39750000005,
      "d": 64.51600000000326,
      "v": 121
    },
    {
      "midi": 52,
      "hit": false,
      "t": 188467.36500000005,
      "d": 360.88637500000186,
      "v": 121
    },
    {
      "midi": 52,
      "hit": false,
      "t": 188951.2349999998,
      "d": 49.39506249999977,
      "v": 93
    },
    {
      "midi": 52,
      "hit": false,
      "t": 188951.23500000004,
      "d": 64.51600000000326,
      "v": 121
    },
    {
      "midi": 64,
      "hit": false,
      "t": 189072.2024999998,
      "d": 30.241875000006985,
      "v": 95
    },
    {
      "midi": 69,
      "hit": false,
      "t": 189072.2024999998,
      "d": 43.34668750001583,
      "v": 95
    },
    {
      "midi": 61,
      "hit": false,
      "t": 189072.2024999998,
      "d": 53.42731250001816,
      "v": 96
    },
    {
      "midi": 52,
      "hit": false,
      "t": 189072.20250000004,
      "d": 64.51600000000326,
      "v": 121
    },
    {
      "midi": 64,
      "hit": false,
      "t": 189193.17000000004,
      "d": 64.51600000000326,
      "v": 121
    },
    {
      "midi": 69,
      "hit": false,
      "t": 189193.17000000004,
      "d": 64.51600000000326,
      "v": 121
    },
    {
      "midi": 71,
      "hit": false,
      "t": 189193.17000000004,
      "d": 64.51600000000326,
      "v": 121
    },
    {
      "midi": 52,
      "hit": false,
      "t": 189314.13749999984,
      "d": 50.40312500001164,
      "v": 95
    },
    {
      "midi": 52,
      "hit": false,
      "t": 189314.13750000004,
      "d": 68.54824999999255,
      "v": 121
    },
    {
      "midi": 64,
      "hit": false,
      "t": 189435.10499999984,
      "d": 32.25800000000163,
      "v": 95
    },
    {
      "midi": 68,
      "hit": false,
      "t": 189435.10499999984,
      "d": 34.274124999996275,
      "v": 93
    },
    {
      "midi": 59,
      "hit": false,
      "t": 189435.10499999984,
      "d": 50.40312499998254,
      "v": 95
    },
    {
      "midi": 52,
      "hit": false,
      "t": 189435.10500000004,
      "d": 68.54824999999255,
      "v": 121
    },
    {
      "midi": 64,
      "hit": false,
      "t": 189556.0724999998,
      "d": 34.274124999996275,
      "v": 96
    },
    {
      "midi": 68,
      "hit": false,
      "t": 189556.0724999998,
      "d": 40.32250000000931,
      "v": 96
    },
    {
      "midi": 59,
      "hit": false,
      "t": 189556.0724999998,
      "d": 47.37893750000512,
      "v": 95
    },
    {
      "midi": 52,
      "hit": false,
      "t": 189556.07250000004,
      "d": 68.54824999999255,
      "v": 121
    },
    {
      "midi": 49,
      "hit": false,
      "t": 189677.04000000004,
      "d": 118.95137500000419,
      "v": 121
    },
    {
      "midi": 66,
      "hit": false,
      "t": 189798.0074999998,
      "d": 49.39506249999977,
      "v": 94
    },
    {
      "midi": 69,
      "hit": false,
      "t": 189798.0074999998,
      "d": 67.54018750000978,
      "v": 95
    },
    {
      "midi": 61,
      "hit": false,
      "t": 189798.0074999998,
      "d": 77.62081250001211,
      "v": 94
    },
    {
      "midi": 61,
      "hit": false,
      "t": 189798.00750000004,
      "d": 64.51600000000326,
      "v": 121
    },
    {
      "midi": 66,
      "hit": false,
      "t": 189798.00750000004,
      "d": 64.51600000000326,
      "v": 121
    },
    {
      "midi": 68,
      "hit": false,
      "t": 189798.00750000004,
      "d": 64.51600000000326,
      "v": 121
    },
    {
      "midi": 49,
      "hit": false,
      "t": 189918.97500000003,
      "d": 118.95137500000419,
      "v": 121
    },
    {
      "midi": 68,
      "hit": false,
      "t": 190039.9424999998,
      "d": 63.507937499991385,
      "v": 95
    },
    {
      "midi": 64,
      "hit": false,
      "t": 190039.9424999998,
      "d": 67.54018749998068,
      "v": 95
    },
    {
      "midi": 59,
      "hit": false,
      "t": 190039.9424999998,
      "d": 73.58856249999371,
      "v": 95
    },
    {
      "midi": 49,
      "hit": false,
      "t": 190039.94250000003,
      "d": 118.95137500000419,
      "v": 121
    },
    {
      "midi": 61,
      "hit": false,
      "t": 190160.91000000003,
      "d": 64.51600000000326,
      "v": 121
    },
    {
      "midi": 64,
      "hit": false,
      "t": 190160.91000000003,
      "d": 64.51600000000326,
      "v": 121
    },
    {
      "midi": 68,
      "hit": false,
      "t": 190160.91000000003,
      "d": 64.51600000000326,
      "v": 121
    },
    {
      "midi": 61,
      "hit": false,
      "t": 190402.8449999998,
      "d": 32.25800000000163,
      "v": 95
    },
    {
      "midi": 66,
      "hit": false,
      "t": 190402.8449999998,
      "d": 36.29024999999092,
      "v": 93
    },
    {
      "midi": 57,
      "hit": false,
      "t": 190402.8449999998,
      "d": 44.3547499999986,
      "v": 94
    },
    {
      "midi": 50,
      "hit": false,
      "t": 190402.84500000003,
      "d": 360.88637500000186,
      "v": 121
    },
    {
      "midi": 62,
      "hit": false,
      "t": 190402.84500000003,
      "d": 790.3209999999963,
      "v": 121
    },
    {
      "midi": 66,
      "hit": false,
      "t": 190402.84500000003,
      "d": 790.3209999999963,
      "v": 121
    },
    {
      "midi": 69,
      "hit": false,
      "t": 190402.84500000003,
      "d": 790.3209999999963,
      "v": 121
    },
    {
      "midi": 57,
      "hit": false,
      "t": 190523.8124999998,
      "d": 43.34668749998673,
      "v": 94
    },
    {
      "midi": 66,
      "hit": false,
      "t": 190523.8124999998,
      "d": 45.36281249998137,
      "v": 90
    },
    {
      "midi": 61,
      "hit": false,
      "t": 190523.8124999998,
      "d": 53.42731249998906,
      "v": 94
    },
    {
      "midi": 57,
      "hit": false,
      "t": 190644.7799999998,
      "d": 49.39506249999977,
      "v": 95
    },
    {
      "midi": 61,
      "hit": false,
      "t": 190644.7799999998,
      "d": 49.39506249999977,
      "v": 93
    },
    {
      "midi": 66,
      "hit": false,
      "t": 190644.7799999998,
      "d": 77.62081250001211,
      "v": 91
    },
    {
      "midi": 69,
      "hit": false,
      "t": 190644.77999999988,
      "d": 1362.900500000018,
      "v": 1
    },
    {
      "midi": 73,
      "hit": false,
      "t": 190644.77999999988,
      "d": 1367.940812500019,
      "v": 1
    },
    {
      "midi": 66,
      "hit": false,
      "t": 190644.77999999988,
      "d": 1368.948875000031,
      "v": 1
    },
    {
      "midi": 62,
      "hit": false,
      "t": 190644.77999999988,
      "d": 1376.0053125000268,
      "v": 1
    },
    {
      "midi": 66,
      "hit": false,
      "t": 190765.7474999998,
      "d": 42.33862500000396,
      "v": 92
    },
    {
      "midi": 61,
      "hit": false,
      "t": 190765.7474999998,
      "d": 49.39506249999977,
      "v": 96
    },
    {
      "midi": 57,
      "hit": false,
      "t": 190765.7474999998,
      "d": 71.57243749999907,
      "v": 94
    },
    {
      "midi": 50,
      "hit": false,
      "t": 190886.71500000003,
      "d": 64.51600000000326,
      "v": 121
    },
    {
      "midi": 64,
      "hit": false,
      "t": 191007.6824999998,
      "d": 73.58856249999371,
      "v": 95
    },
    {
      "midi": 56,
      "hit": false,
      "t": 191007.6824999998,
      "d": 83.66918749999604,
      "v": 96
    },
    {
      "midi": 59,
      "hit": false,
      "t": 191007.6824999998,
      "d": 87.70143749998533,
      "v": 97
    },
    {
      "midi": 50,
      "hit": false,
      "t": 191007.68250000002,
      "d": 64.51600000000326,
      "v": 121
    },
    {
      "midi": 50,
      "hit": false,
      "t": 191128.65000000002,
      "d": 64.51600000000326,
      "v": 121
    },
    {
      "midi": 50,
      "hit": false,
      "t": 191249.61750000002,
      "d": 68.54824999999255,
      "v": 121
    },
    {
      "midi": 50,
      "hit": false,
      "t": 191370.58500000002,
      "d": 68.54824999999255,
      "v": 121
    },
    {
      "midi": 50,
      "hit": false,
      "t": 191491.55250000002,
      "d": 68.54824999999255,
      "v": 121
    }
  ]
}