{
  "jsonPath": "World/Australian Pop/Anastacia/youll-never-be-alone.json",
  "path": "World\\Australian Pop\\Anastacia\\Youll Never Be Alone.mid",
  "name": "Youll Never Be Alone",
  "difficulty": "Advanced",
  "bpm": 69.00009660013524,
  "notes": [
    {
      "midi": 68,
      "hit": false,
      "t": 3478.2560000000003,
      "d": 467.3906500000003,
      "v": 99
    },
    {
      "midi": 76,
      "hit": false,
      "t": 3478.2560000000003,
      "d": 498.18770833333383,
      "v": 86
    },
    {
      "midi": 61,
      "hit": false,
      "t": 3478.2560000000003,
      "d": 1391.3024000000005,
      "v": 88
    },
    {
      "midi": 64,
      "hit": false,
      "t": 3913.0380000000005,
      "d": 853.2596750000002,
      "v": 82
    },
    {
      "midi": 68,
      "hit": false,
      "t": 4130.429000000001,
      "d": 652.1729999999998,
      "v": 86
    },
    {
      "midi": 76,
      "hit": false,
      "t": 4347.820000000001,
      "d": 442.02836666666644,
      "v": 93
    },
    {
      "midi": 64,
      "hit": false,
      "t": 4782.602000000001,
      "d": 849.6364916666671,
      "v": 76
    },
    {
      "midi": 73,
      "hit": false,
      "t": 4782.602000000001,
      "d": 1682.9686583333332,
      "v": 98
    },
    {
      "midi": 57,
      "hit": false,
      "t": 4782.602000000001,
      "d": 2141.3013500000006,
      "v": 88
    },
    {
      "midi": 69,
      "hit": false,
      "t": 4782.602000000001,
      "d": 2159.4172666666673,
      "v": 73
    },
    {
      "midi": 64,
      "hit": false,
      "t": 5652.166000000001,
      "d": 1288.0416750000004,
      "v": 87
    },
    {
      "midi": 76,
      "hit": false,
      "t": 6521.7300000000005,
      "d": 186.59394166666698,
      "v": 88
    },
    {
      "midi": 78,
      "hit": false,
      "t": 6739.121000000001,
      "d": 197.46349166666732,
      "v": 102
    },
    {
      "midi": 80,
      "hit": false,
      "t": 6956.5120000000015,
      "d": 452.8979166666668,
      "v": 104
    },
    {
      "midi": 71,
      "hit": false,
      "t": 6956.5120000000015,
      "d": 1289.853266666666,
      "v": 87
    },
    {
      "midi": 64,
      "hit": false,
      "t": 6956.5120000000015,
      "d": 1313.4039583333315,
      "v": 87
    },
    {
      "midi": 81,
      "hit": false,
      "t": 7391.294000000002,
      "d": 440.21677499999987,
      "v": 99
    },
    {
      "midi": 80,
      "hit": false,
      "t": 7826.076000000002,
      "d": 432.97040833333176,
      "v": 104
    },
    {
      "midi": 71,
      "hit": false,
      "t": 8260.858,
      "d": 849.6364916666662,
      "v": 76
    },
    {
      "midi": 78,
      "hit": false,
      "t": 8260.858,
      "d": 1715.5773083333333,
      "v": 108
    },
    {
      "midi": 63,
      "hit": false,
      "t": 8260.858,
      "d": 2159.4172666666673,
      "v": 82
    },
    {
      "midi": 71,
      "hit": false,
      "t": 9130.422,
      "d": 1315.215549999999,
      "v": 87
    },
    {
      "midi": 76,
      "hit": false,
      "t": 9999.986,
      "d": 186.59394166666607,
      "v": 97
    },
    {
      "midi": 75,
      "hit": false,
      "t": 10217.377,
      "d": 239.1300999999985,
      "v": 108
    },
    {
      "midi": 68,
      "hit": false,
      "t": 10434.768,
      "d": 467.39064999999937,
      "v": 99
    },
    {
      "midi": 76,
      "hit": false,
      "t": 10434.768,
      "d": 498.1877083333329,
      "v": 86
    },
    {
      "midi": 61,
      "hit": false,
      "t": 10434.768,
      "d": 1391.3023999999969,
      "v": 88
    },
    {
      "midi": 64,
      "hit": false,
      "t": 10869.55,
      "d": 853.2596749999993,
      "v": 82
    },
    {
      "midi": 68,
      "hit": false,
      "t": 11086.940999999999,
      "d": 652.1729999999989,
      "v": 86
    },
    {
      "midi": 76,
      "hit": false,
      "t": 11304.331999999999,
      "d": 442.02836666666553,
      "v": 93
    },
    {
      "midi": 64,
      "hit": false,
      "t": 11739.113999999998,
      "d": 849.6364916666662,
      "v": 76
    },
    {
      "midi": 57,
      "hit": false,
      "t": 11739.113999999998,
      "d": 2141.3013499999997,
      "v": 88
    },
    {
      "midi": 69,
      "hit": false,
      "t": 11739.113999999998,
      "d": 2159.4172666666655,
      "v": 73
    },
    {
      "midi": 73,
      "hit": false,
      "t": 11739.113999999998,
      "d": 2173.909999999998,
      "v": 98
    },
    {
      "midi": 64,
      "hit": false,
      "t": 12608.677999999998,
      "d": 1288.0416749999986,
      "v": 87
    },
    {
      "midi": 66,
      "hit": false,
      "t": 13913.023999999996,
      "d": 1293.47645,
      "v": 82
    },
    {
      "midi": 64,
      "hit": false,
      "t": 13913.023999999996,
      "d": 1327.8966916666668,
      "v": 72
    },
    {
      "midi": 52,
      "hit": false,
      "t": 13913.023999999996,
      "d": 1338.7662416666662,
      "v": 66
    },
    {
      "midi": 68,
      "hit": false,
      "t": 13913.023999999996,
      "d": 1338.7662416666662,
      "v": 85
    },
    {
      "midi": 71,
      "hit": false,
      "t": 13913.023999999996,
      "d": 1346.0126083333325,
      "v": 92
    },
    {
      "midi": 56,
      "hit": false,
      "t": 13913.023999999996,
      "d": 1356.882158333332,
      "v": 65
    },
    {
      "midi": 54,
      "hit": false,
      "t": 15217.369999999995,
      "d": 3695.647000000001,
      "v": 74
    },
    {
      "midi": 59,
      "hit": false,
      "t": 15217.369999999995,
      "d": 3695.647000000001,
      "v": 71
    },
    {
      "midi": 61,
      "hit": false,
      "t": 15217.369999999995,
      "d": 3695.647000000001,
      "v": 72
    },
    {
      "midi": 63,
      "hit": false,
      "t": 15217.369999999995,
      "d": 3695.647000000001,
      "v": 70
    },
    {
      "midi": 66,
      "hit": false,
      "t": 15217.369999999995,
      "d": 3695.647000000001,
      "v": 71
    },
    {
      "midi": 61,
      "hit": false,
      "t": 19021.712499999994,
      "d": 3586.9514999999956,
      "v": 91
    },
    {
      "midi": 45,
      "hit": false,
      "t": 19130.407999999992,
      "d": 2923.9089499999973,
      "v": 86
    },
    {
      "midi": 57,
      "hit": false,
      "t": 19186.567341666658,
      "d": 3422.096658333332,
      "v": 95
    },
    {
      "midi": 59,
      "hit": false,
      "t": 19782.58099999999,
      "d": 2748.1845583333306,
      "v": 90
    },
    {
      "midi": 64,
      "hit": false,
      "t": 20217.36299999999,
      "d": 2387.6778166666663,
      "v": 91
    },
    {
      "midi": 45,
      "hit": false,
      "t": 22391.27299999999,
      "d": 224.6373666666659,
      "v": 75
    },
    {
      "midi": 52,
      "hit": false,
      "t": 22608.66399999999,
      "d": 12.681141666667827,
      "v": 94
    },
    {
      "midi": 59,
      "hit": false,
      "t": 22608.66399999999,
      "d": 538.042725000003,
      "v": 87
    },
    {
      "midi": 56,
      "hit": false,
      "t": 22608.66399999999,
      "d": 2835.140958333337,
      "v": 94
    },
    {
      "midi": 44,
      "hit": false,
      "t": 22608.66399999999,
      "d": 3478.256000000001,
      "v": 89
    },
    {
      "midi": 59,
      "hit": false,
      "t": 23260.836999999992,
      "d": 2815.2134499999993,
      "v": 99
    },
    {
      "midi": 64,
      "hit": false,
      "t": 23695.61899999999,
      "d": 2384.054633333333,
      "v": 97
    },
    {
      "midi": 52,
      "hit": false,
      "t": 24130.40099999999,
      "d": 1288.0416750000004,
      "v": 87
    },
    {
      "midi": 52,
      "hit": false,
      "t": 25434.746999999992,
      "d": 652.1729999999989,
      "v": 86
    },
    {
      "midi": 57,
      "hit": false,
      "t": 25652.13799999999,
      "d": 222.82577500000116,
      "v": 98
    },
    {
      "midi": 56,
      "hit": false,
      "t": 25869.52899999999,
      "d": 259.0576083333326,
      "v": 84
    },
    {
      "midi": 57,
      "hit": false,
      "t": 26086.91999999999,
      "d": 487.31815833333167,
      "v": 101
    },
    {
      "midi": 42,
      "hit": false,
      "t": 26086.91999999999,
      "d": 3478.256000000001,
      "v": 89
    },
    {
      "midi": 54,
      "hit": false,
      "t": 26086.91999999999,
      "d": 3478.256000000001,
      "v": 90
    },
    {
      "midi": 52,
      "hit": false,
      "t": 26521.70199999999,
      "d": 3030.792858333334,
      "v": 76
    },
    {
      "midi": 57,
      "hit": false,
      "t": 26739.09299999999,
      "d": 719.2018916666675,
      "v": 104
    },
    {
      "midi": 64,
      "hit": false,
      "t": 27173.87499999999,
      "d": 2391.301000000003,
      "v": 97
    },
    {
      "midi": 57,
      "hit": false,
      "t": 27608.656999999992,
      "d": 1956.5190000000002,
      "v": 101
    },
    {
      "midi": 52,
      "hit": false,
      "t": 29565.175999999992,
      "d": 306.15899166666713,
      "v": 87
    },
    {
      "midi": 59,
      "hit": false,
      "t": 29565.175999999992,
      "d": 499.9992999999995,
      "v": 101
    },
    {
      "midi": 56,
      "hit": false,
      "t": 29565.175999999992,
      "d": 3449.270533333329,
      "v": 89
    },
    {
      "midi": 44,
      "hit": false,
      "t": 29565.175999999992,
      "d": 3478.2559999999867,
      "v": 89
    },
    {
      "midi": 52,
      "hit": false,
      "t": 29999.95799999999,
      "d": 3030.792858333327,
      "v": 80
    },
    {
      "midi": 59,
      "hit": false,
      "t": 30217.34899999999,
      "d": 737.3178083333332,
      "v": 102
    },
    {
      "midi": 64,
      "hit": false,
      "t": 30652.13099999999,
      "d": 2380.4314499999928,
      "v": 101
    },
    {
      "midi": 59,
      "hit": false,
      "t": 31086.91299999999,
      "d": 1954.7074083333246,
      "v": 85
    },
    {
      "midi": 57,
      "hit": false,
      "t": 33043.43199999998,
      "d": 244.56487500000367,
      "v": 100
    },
    {
      "midi": 59,
      "hit": false,
      "t": 33043.43199999998,
      "d": 405.7965333333341,
      "v": 97
    },
    {
      "midi": 64,
      "hit": false,
      "t": 33043.43199999998,
      "d": 804.3467000000019,
      "v": 85
    },
    {
      "midi": 45,
      "hit": false,
      "t": 33043.43199999998,
      "d": 3181.1549666666688,
      "v": 95
    },
    {
      "midi": 61,
      "hit": false,
      "t": 33043.43199999998,
      "d": 3478.2560000000085,
      "v": 91
    },
    {
      "midi": 57,
      "hit": false,
      "t": 33478.21399999998,
      "d": 3043.4740000000093,
      "v": 95
    },
    {
      "midi": 59,
      "hit": false,
      "t": 33695.60499999998,
      "d": 784.4191916666678,
      "v": 95
    },
    {
      "midi": 64,
      "hit": false,
      "t": 34130.38699999998,
      "d": 2378.619858333339,
      "v": 94
    },
    {
      "midi": 59,
      "hit": false,
      "t": 34565.16899999998,
      "d": 1940.214675000003,
      "v": 81
    },
    {
      "midi": 45,
      "hit": false,
      "t": 36304.296999999984,
      "d": 215.5794083333385,
      "v": 97
    },
    {
      "midi": 52,
      "hit": false,
      "t": 36521.68799999999,
      "d": 318.8401333333313,
      "v": 92
    },
    {
      "midi": 59,
      "hit": false,
      "t": 36521.68799999999,
      "d": 576.0861500000028,
      "v": 97
    },
    {
      "midi": 64,
      "hit": false,
      "t": 36521.68799999999,
      "d": 1070.6506750000044,
      "v": 93
    },
    {
      "midi": 56,
      "hit": false,
      "t": 36521.68799999999,
      "d": 2856.880058333336,
      "v": 95
    },
    {
      "midi": 44,
      "hit": false,
      "t": 36521.68799999999,
      "d": 3478.256000000001,
      "v": 90
    },
    {
      "midi": 52,
      "hit": false,
      "t": 36956.46999999999,
      "d": 898.5494666666709,
      "v": 88
    },
    {
      "midi": 59,
      "hit": false,
      "t": 37173.86099999999,
      "d": 2798.9091249999983,
      "v": 97
    },
    {
      "midi": 64,
      "hit": false,
      "t": 37608.64299999999,
      "d": 2364.127124999999,
      "v": 95
    },
    {
      "midi": 52,
      "hit": false,
      "t": 38043.42499999999,
      "d": 1264.4909833333368,
      "v": 87
    },
    {
      "midi": 52,
      "hit": false,
      "t": 39347.77099999999,
      "d": 217.39099999999598,
      "v": 88
    },
    {
      "midi": 57,
      "hit": false,
      "t": 39565.16199999999,
      "d": 240.94169166666688,
      "v": 97
    },
    {
      "midi": 56,
      "hit": false,
      "t": 39782.55299999999,
      "d": 202.8982666666634,
      "v": 113
    },
    {
      "midi": 52,
      "hit": false,
      "t": 39999.94399999999,
      "d": 295.2894416666677,
      "v": 94
    },
    {
      "midi": 57,
      "hit": false,
      "t": 39999.94399999999,
      "d": 576.0861500000028,
      "v": 107
    },
    {
      "midi": 64,
      "hit": false,
      "t": 39999.94399999999,
      "d": 978.2595000000001,
      "v": 96
    },
    {
      "midi": 42,
      "hit": false,
      "t": 39999.94399999999,
      "d": 3175.7201916666672,
      "v": 96
    },
    {
      "midi": 52,
      "hit": false,
      "t": 40434.72599999999,
      "d": 3028.981266666662,
      "v": 94
    },
    {
      "midi": 57,
      "hit": false,
      "t": 40652.11699999999,
      "d": 782.6075999999957,
      "v": 104
    },
    {
      "midi": 64,
      "hit": false,
      "t": 41086.89899999999,
      "d": 2449.2719333333225,
      "v": 95
    },
    {
      "midi": 57,
      "hit": false,
      "t": 41521.68099999999,
      "d": 1987.3160583333229,
      "v": 97
    },
    {
      "midi": 42,
      "hit": false,
      "t": 43260.80899999999,
      "d": 239.13009999999485,
      "v": 82
    },
    {
      "midi": 54,
      "hit": false,
      "t": 43478.19999999998,
      "d": 634.0570833333331,
      "v": 98
    },
    {
      "midi": 40,
      "hit": false,
      "t": 43478.19999999998,
      "d": 1434.7805999999982,
      "v": 93
    },
    {
      "midi": 52,
      "hit": false,
      "t": 43490.88114166665,
      "d": 402.1733499999973,
      "v": 95
    },
    {
      "midi": 52,
      "hit": false,
      "t": 43912.98199999998,
      "d": 2043.475400000003,
      "v": 93
    },
    {
      "midi": 54,
      "hit": false,
      "t": 44130.372999999985,
      "d": 869.5639999999985,
      "v": 103
    },
    {
      "midi": 59,
      "hit": false,
      "t": 44565.154999999984,
      "d": 1925.7219416666703,
      "v": 95
    },
    {
      "midi": 56,
      "hit": false,
      "t": 44999.93699999998,
      "d": 1353.2589750000043,
      "v": 96
    },
    {
      "midi": 40,
      "hit": false,
      "t": 44999.93699999998,
      "d": 1943.8378583333397,
      "v": 88
    },
    {
      "midi": 52,
      "hit": false,
      "t": 46086.891999999985,
      "d": 865.9408166666763,
      "v": 68
    },
    {
      "midi": 54,
      "hit": false,
      "t": 46304.28299999999,
      "d": 644.9266333333362,
      "v": 82
    },
    {
      "midi": 56,
      "hit": false,
      "t": 46521.673999999985,
      "d": 440.21677500001533,
      "v": 89
    },
    {
      "midi": 59,
      "hit": false,
      "t": 46739.06499999999,
      "d": 228.2605500000136,
      "v": 100
    },
    {
      "midi": 36,
      "hit": false,
      "t": 46956.456,
      "d": 3460.140083333339,
      "v": 95
    },
    {
      "midi": 48,
      "hit": false,
      "t": 46956.456,
      "d": 3460.140083333339,
      "v": 95
    },
    {
      "midi": 60,
      "hit": false,
      "t": 46956.456,
      "d": 3460.140083333339,
      "v": 97
    },
    {
      "midi": 62,
      "hit": false,
      "t": 46956.456,
      "d": 3460.140083333339,
      "v": 101
    },
    {
      "midi": 64,
      "hit": false,
      "t": 46956.456,
      "d": 3460.140083333339,
      "v": 102
    },
    {
      "midi": 67,
      "hit": false,
      "t": 46956.456,
      "d": 3460.140083333339,
      "v": 101
    },
    {
      "midi": 69,
      "hit": false,
      "t": 50434.71200000001,
      "d": 869.5639999999985,
      "v": 100
    },
    {
      "midi": 64,
      "hit": false,
      "t": 50434.71200000001,
      "d": 1400.3603583333315,
      "v": 100
    },
    {
      "midi": 62,
      "hit": false,
      "t": 50434.71200000001,
      "d": 1567.0267916666708,
      "v": 101
    },
    {
      "midi": 66,
      "hit": false,
      "t": 50434.71200000001,
      "d": 2556.155841666674,
      "v": 121
    },
    {
      "midi": 38,
      "hit": false,
      "t": 50434.71200000001,
      "d": 3432.9662083333533,
      "v": 96
    },
    {
      "midi": 50,
      "hit": false,
      "t": 50434.71200000001,
      "d": 3432.9662083333533,
      "v": 96
    },
    {
      "midi": 69,
      "hit": false,
      "t": 51521.66700000001,
      "d": 1731.8816333333452,
      "v": 100
    },
    {
      "midi": 64,
      "hit": false,
      "t": 51956.44900000001,
      "d": 876.810366666672,
      "v": 98
    },
    {
      "midi": 62,
      "hit": false,
      "t": 52826.01300000001,
      "d": 1077.897041666678,
      "v": 95
    },
    {
      "midi": 64,
      "hit": false,
      "t": 53043.40400000002,
      "d": 844.2017166666774,
      "v": 101
    },
    {
      "midi": 66,
      "hit": false,
      "t": 53260.79500000002,
      "d": 623.1875333333373,
      "v": 106
    },
    {
      "midi": 69,
      "hit": false,
      "t": 53478.18600000002,
      "d": 389.49220833333675,
      "v": 106
    },
    {
      "midi": 60,
      "hit": false,
      "t": 53912.96800000002,
      "d": 1403.9835416666683,
      "v": 100
    },
    {
      "midi": 64,
      "hit": false,
      "t": 53912.96800000002,
      "d": 2666.662933333333,
      "v": 104
    },
    {
      "midi": 67,
      "hit": false,
      "t": 53912.96800000002,
      "d": 2925.720541666662,
      "v": 101
    },
    {
      "midi": 48,
      "hit": false,
      "t": 53912.96800000002,
      "d": 3449.2705333333215,
      "v": 97
    },
    {
      "midi": 62,
      "hit": false,
      "t": 53912.96800000002,
      "d": 3461.9516749999893,
      "v": 105
    },
    {
      "midi": 36,
      "hit": false,
      "t": 53912.96800000002,
      "d": 3467.386449999991,
      "v": 95
    },
    {
      "midi": 60,
      "hit": false,
      "t": 55434.70500000002,
      "d": 1951.0842249999914,
      "v": 80
    },
    {
      "midi": 64,
      "hit": false,
      "t": 56739.05100000002,
      "d": 606.8832083333255,
      "v": 98
    },
    {
      "midi": 67,
      "hit": false,
      "t": 56956.44200000002,
      "d": 374.9994749999969,
      "v": 112
    },
    {
      "midi": 69,
      "hit": false,
      "t": 57391.22400000002,
      "d": 920.2885666666698,
      "v": 105
    },
    {
      "midi": 50,
      "hit": false,
      "t": 57391.22400000002,
      "d": 1605.070216666667,
      "v": 99
    },
    {
      "midi": 66,
      "hit": false,
      "t": 57391.22400000002,
      "d": 1608.6934000000037,
      "v": 116
    },
    {
      "midi": 38,
      "hit": false,
      "t": 57391.22400000002,
      "d": 1621.3745416666716,
      "v": 97
    },
    {
      "midi": 62,
      "hit": false,
      "t": 57391.22400000002,
      "d": 1624.9977250000084,
      "v": 101
    },
    {
      "midi": 69,
      "hit": false,
      "t": 58478.17900000002,
      "d": 494.5645250000016,
      "v": 101
    },
    {
      "midi": 69,
      "hit": false,
      "t": 59130.35200000003,
      "d": 873.1871833333353,
      "v": 113
    },
    {
      "midi": 66,
      "hit": false,
      "t": 59130.35200000003,
      "d": 876.810366666672,
      "v": 113
    },
    {
      "midi": 50,
      "hit": false,
      "t": 59130.35200000003,
      "d": 878.6219583333368,
      "v": 100
    },
    {
      "midi": 38,
      "hit": false,
      "t": 59130.35200000003,
      "d": 885.8683250000031,
      "v": 93
    },
    {
      "midi": 62,
      "hit": false,
      "t": 59130.35200000003,
      "d": 896.7378750000062,
      "v": 99
    },
    {
      "midi": 52,
      "hit": false,
      "t": 59999.91600000003,
      "d": 827.8973916666728,
      "v": 101
    },
    {
      "midi": 68,
      "hit": false,
      "t": 59999.91600000003,
      "d": 829.7089833333375,
      "v": 121
    },
    {
      "midi": 40,
      "hit": false,
      "t": 59999.91600000003,
      "d": 831.5205750000023,
      "v": 99
    },
    {
      "midi": 64,
      "hit": false,
      "t": 59999.91600000003,
      "d": 835.1437583333391,
      "v": 101
    },
    {
      "midi": 71,
      "hit": false,
      "t": 59999.91600000003,
      "d": 840.5785333333406,
      "v": 101
    },
    {
      "midi": 69,
      "hit": false,
      "t": 60869.48000000003,
      "d": 1121.3752416666684,
      "v": 101
    },
    {
      "midi": 61,
      "hit": false,
      "t": 60869.48000000003,
      "d": 1161.2302583333367,
      "v": 117
    },
    {
      "midi": 64,
      "hit": false,
      "t": 60869.48000000003,
      "d": 1177.534583333334,
      "v": 105
    },
    {
      "midi": 42,
      "hit": false,
      "t": 60869.48000000003,
      "d": 1224.6359666666685,
      "v": 111
    },
    {
      "midi": 54,
      "hit": false,
      "t": 60869.48000000003,
      "d": 1224.6359666666685,
      "v": 120
    },
    {
      "midi": 59,
      "hit": false,
      "t": 62173.82600000004,
      "d": 2001.80879166667,
      "v": 99
    },
    {
      "midi": 68,
      "hit": false,
      "t": 62173.82600000004,
      "d": 2005.4319750000068,
      "v": 116
    },
    {
      "midi": 64,
      "hit": false,
      "t": 62173.82600000004,
      "d": 2007.2435666666715,
      "v": 105
    },
    {
      "midi": 37,
      "hit": false,
      "t": 62173.82600000004,
      "d": 2039.8522166666735,
      "v": 104
    },
    {
      "midi": 49,
      "hit": false,
      "t": 62173.82600000004,
      "d": 2039.8522166666735,
      "v": 113
    },
    {
      "midi": 59,
      "hit": false,
      "t": 64347.73600000004,
      "d": 577.8977416666676,
      "v": 105
    },
    {
      "midi": 68,
      "hit": false,
      "t": 64347.73600000004,
      "d": 579.7093333333323,
      "v": 116
    },
    {
      "midi": 64,
      "hit": false,
      "t": 64347.73600000004,
      "d": 581.5209249999971,
      "v": 113
    },
    {
      "midi": 40,
      "hit": false,
      "t": 64347.73600000004,
      "d": 1295.2880416666667,
      "v": 99
    },
    {
      "midi": 52,
      "hit": false,
      "t": 64347.73600000004,
      "d": 1295.2880416666667,
      "v": 108
    },
    {
      "midi": 64,
      "hit": false,
      "t": 64999.909000000036,
      "d": 460.1442833333349,
      "v": 110
    },
    {
      "midi": 68,
      "hit": false,
      "t": 64999.909000000036,
      "d": 476.44860833333223,
      "v": 121
    },
    {
      "midi": 59,
      "hit": false,
      "t": 64999.909000000036,
      "d": 525.3615833333315,
      "v": 101
    },
    {
      "midi": 66,
      "hit": false,
      "t": 65652.08200000004,
      "d": 706.520749999996,
      "v": 117
    },
    {
      "midi": 63,
      "hit": false,
      "t": 65652.08200000004,
      "d": 708.3323416666681,
      "v": 124
    },
    {
      "midi": 59,
      "hit": false,
      "t": 65652.08200000004,
      "d": 726.4482583333302,
      "v": 95
    },
    {
      "midi": 35,
      "hit": false,
      "t": 65652.08200000004,
      "d": 739.1293999999907,
      "v": 103
    },
    {
      "midi": 47,
      "hit": false,
      "t": 65652.08200000004,
      "d": 739.1293999999907,
      "v": 112
    },
    {
      "midi": 59,
      "hit": false,
      "t": 66521.64600000002,
      "d": 563.4050083333277,
      "v": 108
    },
    {
      "midi": 63,
      "hit": false,
      "t": 66521.64600000002,
      "d": 586.9556999999913,
      "v": 117
    },
    {
      "midi": 66,
      "hit": false,
      "t": 66521.64600000002,
      "d": 588.7672916666634,
      "v": 117
    },
    {
      "midi": 35,
      "hit": false,
      "t": 66521.64600000002,
      "d": 634.0570833333331,
      "v": 99
    },
    {
      "midi": 47,
      "hit": false,
      "t": 66521.64600000002,
      "d": 634.0570833333331,
      "v": 108
    },
    {
      "midi": 64,
      "hit": false,
      "t": 67173.81900000002,
      "d": 574.2745583333308,
      "v": 105
    },
    {
      "midi": 61,
      "hit": false,
      "t": 67173.81900000002,
      "d": 577.8977416666603,
      "v": 105
    },
    {
      "midi": 68,
      "hit": false,
      "t": 67173.81900000002,
      "d": 588.7672916666634,
      "v": 116
    },
    {
      "midi": 37,
      "hit": false,
      "t": 67173.81900000002,
      "d": 597.8252499999944,
      "v": 97
    },
    {
      "midi": 49,
      "hit": false,
      "t": 67173.81900000002,
      "d": 597.8252499999944,
      "v": 106
    },
    {
      "midi": 69,
      "hit": false,
      "t": 67825.99200000001,
      "d": 1121.3752416666684,
      "v": 101
    },
    {
      "midi": 61,
      "hit": false,
      "t": 67825.99200000001,
      "d": 1161.2302583333367,
      "v": 117
    },
    {
      "midi": 64,
      "hit": false,
      "t": 67825.99200000001,
      "d": 1177.5345833333413,
      "v": 105
    },
    {
      "midi": 42,
      "hit": false,
      "t": 67825.99200000001,
      "d": 1224.6359666666685,
      "v": 111
    },
    {
      "midi": 54,
      "hit": false,
      "t": 67825.99200000001,
      "d": 1224.6359666666685,
      "v": 120
    },
    {
      "midi": 59,
      "hit": false,
      "t": 69130.33800000002,
      "d": 2001.80879166667,
      "v": 99
    },
    {
      "midi": 68,
      "hit": false,
      "t": 69130.33800000002,
      "d": 2005.4319749999995,
      "v": 116
    },
    {
      "midi": 64,
      "hit": false,
      "t": 69130.33800000002,
      "d": 2007.2435666666715,
      "v": 105
    },
    {
      "midi": 37,
      "hit": false,
      "t": 69130.33800000002,
      "d": 2039.8522166666662,
      "v": 104
    },
    {
      "midi": 49,
      "hit": false,
      "t": 69130.33800000002,
      "d": 2039.8522166666662,
      "v": 113
    },
    {
      "midi": 59,
      "hit": false,
      "t": 71304.24800000002,
      "d": 577.8977416666603,
      "v": 105
    },
    {
      "midi": 68,
      "hit": false,
      "t": 71304.24800000002,
      "d": 579.7093333333323,
      "v": 116
    },
    {
      "midi": 64,
      "hit": false,
      "t": 71304.24800000002,
      "d": 581.5209250000044,
      "v": 113
    },
    {
      "midi": 40,
      "hit": false,
      "t": 71304.24800000002,
      "d": 1295.288041666674,
      "v": 99
    },
    {
      "midi": 52,
      "hit": false,
      "t": 71304.24800000002,
      "d": 1295.288041666674,
      "v": 108
    },
    {
      "midi": 64,
      "hit": false,
      "t": 71956.42100000003,
      "d": 460.1442833333276,
      "v": 110
    },
    {
      "midi": 68,
      "hit": false,
      "t": 71956.42100000003,
      "d": 476.44860833333223,
      "v": 121
    },
    {
      "midi": 59,
      "hit": false,
      "t": 71956.42100000003,
      "d": 525.3615833333315,
      "v": 101
    },
    {
      "midi": 66,
      "hit": false,
      "t": 72608.59400000003,
      "d": 706.520749999996,
      "v": 117
    },
    {
      "midi": 63,
      "hit": false,
      "t": 72608.59400000003,
      "d": 708.3323416666681,
      "v": 124
    },
    {
      "midi": 59,
      "hit": false,
      "t": 72608.59400000003,
      "d": 726.4482583333302,
      "v": 95
    },
    {
      "midi": 35,
      "hit": false,
      "t": 72608.59400000003,
      "d": 739.1293999999907,
      "v": 103
    },
    {
      "midi": 47,
      "hit": false,
      "t": 72608.59400000003,
      "d": 739.1293999999907,
      "v": 112
    },
    {
      "midi": 59,
      "hit": false,
      "t": 73478.15800000001,
      "d": 563.4050083333277,
      "v": 108
    },
    {
      "midi": 63,
      "hit": false,
      "t": 73478.15800000001,
      "d": 586.9556999999913,
      "v": 117
    },
    {
      "midi": 66,
      "hit": false,
      "t": 73478.15800000001,
      "d": 588.7672916666634,
      "v": 117
    },
    {
      "midi": 35,
      "hit": false,
      "t": 73478.15800000001,
      "d": 634.0570833333331,
      "v": 99
    },
    {
      "midi": 47,
      "hit": false,
      "t": 73478.15800000001,
      "d": 634.0570833333331,
      "v": 108
    },
    {
      "midi": 64,
      "hit": false,
      "t": 74130.331,
      "d": 574.2745583333308,
      "v": 105
    },
    {
      "midi": 61,
      "hit": false,
      "t": 74130.331,
      "d": 577.8977416666603,
      "v": 105
    },
    {
      "midi": 68,
      "hit": false,
      "t": 74130.331,
      "d": 588.7672916666634,
      "v": 116
    },
    {
      "midi": 37,
      "hit": false,
      "t": 74130.331,
      "d": 597.8252499999944,
      "v": 97
    },
    {
      "midi": 49,
      "hit": false,
      "t": 74130.331,
      "d": 597.8252499999944,
      "v": 106
    },
    {
      "midi": 69,
      "hit": false,
      "t": 74782.504,
      "d": 1121.3752416666684,
      "v": 101
    },
    {
      "midi": 61,
      "hit": false,
      "t": 74782.504,
      "d": 1161.2302583333367,
      "v": 117
    },
    {
      "midi": 64,
      "hit": false,
      "t": 74782.504,
      "d": 1177.5345833333413,
      "v": 105
    },
    {
      "midi": 42,
      "hit": false,
      "t": 74782.504,
      "d": 1224.6359666666685,
      "v": 111
    },
    {
      "midi": 54,
      "hit": false,
      "t": 74782.504,
      "d": 1224.6359666666685,
      "v": 120
    },
    {
      "midi": 64,
      "hit": false,
      "t": 76086.85,
      "d": 1521.7369999999937,
      "v": 105
    },
    {
      "midi": 59,
      "hit": false,
      "t": 76086.85,
      "d": 2001.80879166667,
      "v": 99
    },
    {
      "midi": 68,
      "hit": false,
      "t": 76086.85,
      "d": 2005.4319749999995,
      "v": 116
    },
    {
      "midi": 37,
      "hit": false,
      "t": 76086.85,
      "d": 2039.8522166666662,
      "v": 104
    },
    {
      "midi": 49,
      "hit": false,
      "t": 76086.85,
      "d": 2039.8522166666662,
      "v": 113
    },
    {
      "midi": 64,
      "hit": false,
      "t": 77825.978,
      "d": 248.18805833334045,
      "v": 104
    },
    {
      "midi": 66,
      "hit": false,
      "t": 78043.369,
      "d": 202.89826666667068,
      "v": 120
    },
    {
      "midi": 59,
      "hit": false,
      "t": 78260.76000000001,
      "d": 577.8977416666603,
      "v": 105
    },
    {
      "midi": 68,
      "hit": false,
      "t": 78260.76000000001,
      "d": 579.7093333333323,
      "v": 116
    },
    {
      "midi": 64,
      "hit": false,
      "t": 78260.76000000001,
      "d": 581.5209250000044,
      "v": 113
    },
    {
      "midi": 40,
      "hit": false,
      "t": 78260.76000000001,
      "d": 1295.288041666674,
      "v": 99
    },
    {
      "midi": 52,
      "hit": false,
      "t": 78260.76000000001,
      "d": 1295.288041666674,
      "v": 108
    },
    {
      "midi": 64,
      "hit": false,
      "t": 78912.93300000002,
      "d": 460.1442833333276,
      "v": 110
    },
    {
      "midi": 68,
      "hit": false,
      "t": 78912.93300000002,
      "d": 476.44860833333223,
      "v": 121
    },
    {
      "midi": 59,
      "hit": false,
      "t": 78912.93300000002,
      "d": 525.3615833333315,
      "v": 101
    },
    {
      "midi": 66,
      "hit": false,
      "t": 79565.10600000001,
      "d": 706.520749999996,
      "v": 117
    },
    {
      "midi": 63,
      "hit": false,
      "t": 79565.10600000001,
      "d": 708.3323416666681,
      "v": 124
    },
    {
      "midi": 59,
      "hit": false,
      "t": 79565.10600000001,
      "d": 726.4482583333302,
      "v": 95
    },
    {
      "midi": 35,
      "hit": false,
      "t": 79565.10600000001,
      "d": 2173.910000000018,
      "v": 94
    },
    {
      "midi": 47,
      "hit": false,
      "t": 79565.10600000001,
      "d": 2173.910000000018,
      "v": 112
    },
    {
      "midi": 64,
      "hit": false,
      "t": 80434.67000000001,
      "d": 635.8686750000052,
      "v": 112
    },
    {
      "midi": 66,
      "hit": false,
      "t": 80434.67000000001,
      "d": 1072.4622666666837,
      "v": 112
    },
    {
      "midi": 59,
      "hit": false,
      "t": 80434.67000000001,
      "d": 1108.6941000000224,
      "v": 101
    },
    {
      "midi": 63,
      "hit": false,
      "t": 81086.84300000002,
      "d": 471.01383333334525,
      "v": 117
    },
    {
      "midi": 59,
      "hit": false,
      "t": 81739.01600000003,
      "d": 3021.734899999996,
      "v": 110
    },
    {
      "midi": 61,
      "hit": false,
      "t": 81739.01600000003,
      "d": 3023.546491666668,
      "v": 117
    },
    {
      "midi": 57,
      "hit": false,
      "t": 81739.01600000003,
      "d": 3028.9812666666694,
      "v": 113
    },
    {
      "midi": 64,
      "hit": false,
      "t": 81739.01600000003,
      "d": 3039.8508166666725,
      "v": 101
    },
    {
      "midi": 45,
      "hit": false,
      "t": 81739.01600000003,
      "d": 3197.4592916666734,
      "v": 98
    },
    {
      "midi": 33,
      "hit": false,
      "t": 81739.01600000003,
      "d": 3219.1983916666795,
      "v": 92
    },
    {
      "midi": 47,
      "hit": false,
      "t": 85217.27200000004,
      "d": 1139.4911583333305,
      "v": 99
    },
    {
      "midi": 64,
      "hit": false,
      "t": 85217.27200000004,
      "d": 1164.8534416666662,
      "v": 110
    },
    {
      "midi": 59,
      "hit": false,
      "t": 85217.27200000004,
      "d": 1181.1577666666708,
      "v": 101
    },
    {
      "midi": 66,
      "hit": false,
      "t": 85217.27200000004,
      "d": 1193.8389083333313,
      "v": 116
    },
    {
      "midi": 35,
      "hit": false,
      "t": 85217.27200000004,
      "d": 3438.400983333355,
      "v": 80
    },
    {
      "midi": 66,
      "hit": false,
      "t": 86521.61800000005,
      "d": 2090.5767833333375,
      "v": 110
    },
    {
      "midi": 59,
      "hit": false,
      "t": 86521.61800000005,
      "d": 2092.3883750000095,
      "v": 98
    },
    {
      "midi": 63,
      "hit": false,
      "t": 86521.61800000005,
      "d": 2092.3883750000095,
      "v": 112
    },
    {
      "midi": 47,
      "hit": false,
      "t": 86521.61800000005,
      "d": 2137.6781666666793,
      "v": 97
    },
    {
      "midi": 68,
      "hit": false,
      "t": 88695.52800000006,
      "d": 467.3906500000012,
      "v": 99
    },
    {
      "midi": 76,
      "hit": false,
      "t": 88695.52800000006,
      "d": 498.1877083333384,
      "v": 86
    },
    {
      "midi": 61,
      "hit": false,
      "t": 88695.52800000006,
      "d": 1391.3024000000296,
      "v": 88
    },
    {
      "midi": 64,
      "hit": false,
      "t": 89130.31000000007,
      "d": 853.2596750000084,
      "v": 82
    },
    {
      "midi": 68,
      "hit": false,
      "t": 89347.70100000007,
      "d": 652.1730000000098,
      "v": 86
    },
    {
      "midi": 76,
      "hit": false,
      "t": 89565.09200000008,
      "d": 442.0283666666801,
      "v": 93
    },
    {
      "midi": 64,
      "hit": false,
      "t": 89999.87400000008,
      "d": 849.6364916666789,
      "v": 76
    },
    {
      "midi": 73,
      "hit": false,
      "t": 89999.87400000008,
      "d": 1682.9686583333532,
      "v": 98
    },
    {
      "midi": 57,
      "hit": false,
      "t": 89999.87400000008,
      "d": 2141.3013500000234,
      "v": 88
    },
    {
      "midi": 69,
      "hit": false,
      "t": 89999.87400000008,
      "d": 2159.4172666666855,
      "v": 73
    },
    {
      "midi": 64,
      "hit": false,
      "t": 90869.4380000001,
      "d": 1288.0416750000004,
      "v": 87
    },
    {
      "midi": 76,
      "hit": false,
      "t": 91739.00200000011,
      "d": 186.59394166666607,
      "v": 88
    },
    {
      "midi": 78,
      "hit": false,
      "t": 91956.39300000011,
      "d": 197.4634916666546,
      "v": 102
    },
    {
      "midi": 80,
      "hit": false,
      "t": 92173.7840000001,
      "d": 452.8979166666686,
      "v": 104
    },
    {
      "midi": 71,
      "hit": false,
      "t": 92173.7840000001,
      "d": 1289.8532666666724,
      "v": 87
    },
    {
      "midi": 64,
      "hit": false,
      "t": 92173.7840000001,
      "d": 1313.403958333336,
      "v": 87
    },
    {
      "midi": 81,
      "hit": false,
      "t": 92608.56600000011,
      "d": 440.2167749999935,
      "v": 99
    },
    {
      "midi": 80,
      "hit": false,
      "t": 93043.3480000001,
      "d": 432.9704083333345,
      "v": 104
    },
    {
      "midi": 63,
      "hit": false,
      "t": 93478.1300000001,
      "d": 2164.852041666658,
      "v": 82
    },
    {
      "midi": 71,
      "hit": false,
      "t": 93478.1300000001,
      "d": 2164.852041666658,
      "v": 76
    },
    {
      "midi": 78,
      "hit": false,
      "t": 93478.1300000001,
      "d": 2164.852041666658,
      "v": 108
    },
    {
      "midi": 45,
      "hit": false,
      "t": 95652.0400000001,
      "d": 2923.908950000012,
      "v": 86
    },
    {
      "midi": 57,
      "hit": false,
      "t": 95708.19934166677,
      "d": 3422.09665833335,
      "v": 95
    },
    {
      "midi": 59,
      "hit": false,
      "t": 96304.2130000001,
      "d": 2748.184558333349,
      "v": 90
    },
    {
      "midi": 64,
      "hit": false,
      "t": 96738.99500000011,
      "d": 2387.6778166666772,
      "v": 91
    },
    {
      "midi": 45,
      "hit": false,
      "t": 98912.90500000012,
      "d": 224.63736666667683,
      "v": 75
    },
    {
      "midi": 52,
      "hit": false,
      "t": 99130.29600000012,
      "d": 12.681141666675103,
      "v": 94
    },
    {
      "midi": 59,
      "hit": false,
      "t": 99130.29600000012,
      "d": 538.0427250000066,
      "v": 87
    },
    {
      "midi": 56,
      "hit": false,
      "t": 99130.29600000012,
      "d": 2835.140958333359,
      "v": 94
    },
    {
      "midi": 44,
      "hit": false,
      "t": 99130.29600000012,
      "d": 3478.2560000000376,
      "v": 89
    },
    {
      "midi": 59,
      "hit": false,
      "t": 99782.46900000013,
      "d": 2815.2134500000247,
      "v": 99
    },
    {
      "midi": 64,
      "hit": false,
      "t": 100217.25100000013,
      "d": 2384.0546333333477,
      "v": 97
    },
    {
      "midi": 52,
      "hit": false,
      "t": 100652.03300000014,
      "d": 1288.0416750000004,
      "v": 87
    },
    {
      "midi": 52,
      "hit": false,
      "t": 101956.37900000015,
      "d": 652.1730000000098,
      "v": 86
    },
    {
      "midi": 57,
      "hit": false,
      "t": 102173.77000000015,
      "d": 222.8257750000048,
      "v": 98
    },
    {
      "midi": 56,
      "hit": false,
      "t": 102391.16100000015,
      "d": 259.0576083333435,
      "v": 84
    },
    {
      "midi": 57,
      "hit": false,
      "t": 102608.55200000016,
      "d": 487.3181583333353,
      "v": 101
    },
    {
      "midi": 42,
      "hit": false,
      "t": 102608.55200000016,
      "d": 3478.255999999994,
      "v": 89
    },
    {
      "midi": 54,
      "hit": false,
      "t": 102608.55200000016,
      "d": 3478.255999999994,
      "v": 90
    },
    {
      "midi": 52,
      "hit": false,
      "t": 103043.33400000016,
      "d": 3030.792858333327,
      "v": 76
    },
    {
      "midi": 57,
      "hit": false,
      "t": 103260.72500000015,
      "d": 719.2018916666711,
      "v": 104
    },
    {
      "midi": 64,
      "hit": false,
      "t": 103695.50700000016,
      "d": 2391.300999999992,
      "v": 97
    },
    {
      "midi": 57,
      "hit": false,
      "t": 104130.28900000015,
      "d": 1956.5190000000002,
      "v": 101
    },
    {
      "midi": 52,
      "hit": false,
      "t": 106086.80800000015,
      "d": 306.1589916666708,
      "v": 87
    },
    {
      "midi": 59,
      "hit": false,
      "t": 106086.80800000015,
      "d": 499.9993000000104,
      "v": 101
    },
    {
      "midi": 56,
      "hit": false,
      "t": 106086.80800000015,
      "d": 3449.2705333333433,
      "v": 89
    },
    {
      "midi": 44,
      "hit": false,
      "t": 106086.80800000015,
      "d": 3478.256000000023,
      "v": 89
    },
    {
      "midi": 52,
      "hit": false,
      "t": 106521.59000000016,
      "d": 3030.7928583333414,
      "v": 80
    },
    {
      "midi": 59,
      "hit": false,
      "t": 106738.98100000016,
      "d": 737.3178083333332,
      "v": 102
    },
    {
      "midi": 64,
      "hit": false,
      "t": 107173.76300000017,
      "d": 2380.4314500000037,
      "v": 101
    },
    {
      "midi": 59,
      "hit": false,
      "t": 107608.54500000016,
      "d": 1954.7074083333428,
      "v": 85
    },
    {
      "midi": 57,
      "hit": false,
      "t": 109565.06400000017,
      "d": 244.5648749999964,
      "v": 100
    },
    {
      "midi": 59,
      "hit": false,
      "t": 109565.06400000017,
      "d": 405.7965333333268,
      "v": 97
    },
    {
      "midi": 64,
      "hit": false,
      "t": 109565.06400000017,
      "d": 804.3466999999946,
      "v": 85
    },
    {
      "midi": 45,
      "hit": false,
      "t": 109565.06400000017,
      "d": 3181.1549666666688,
      "v": 95
    },
    {
      "midi": 61,
      "hit": false,
      "t": 109565.06400000017,
      "d": 3478.2560000000085,
      "v": 91
    },
    {
      "midi": 57,
      "hit": false,
      "t": 109999.84600000017,
      "d": 3043.4740000000165,
      "v": 95
    },
    {
      "midi": 59,
      "hit": false,
      "t": 110217.23700000017,
      "d": 784.419191666675,
      "v": 95
    },
    {
      "midi": 64,
      "hit": false,
      "t": 110652.01900000017,
      "d": 2378.6198583333316,
      "v": 94
    },
    {
      "midi": 59,
      "hit": false,
      "t": 111086.80100000018,
      "d": 1940.2146749999956,
      "v": 81
    },
    {
      "midi": 45,
      "hit": false,
      "t": 112825.92900000018,
      "d": 215.57940833333123,
      "v": 97
    },
    {
      "midi": 52,
      "hit": false,
      "t": 113043.32000000018,
      "d": 318.8401333333313,
      "v": 92
    },
    {
      "midi": 59,
      "hit": false,
      "t": 113043.32000000018,
      "d": 576.0861499999883,
      "v": 97
    },
    {
      "midi": 64,
      "hit": false,
      "t": 113043.32000000018,
      "d": 1070.6506749999971,
      "v": 93
    },
    {
      "midi": 56,
      "hit": false,
      "t": 113043.32000000018,
      "d": 2856.8800583333505,
      "v": 95
    },
    {
      "midi": 44,
      "hit": false,
      "t": 113043.32000000018,
      "d": 3478.2560000000085,
      "v": 90
    },
    {
      "midi": 52,
      "hit": false,
      "t": 113478.10200000017,
      "d": 898.5494666666782,
      "v": 88
    },
    {
      "midi": 59,
      "hit": false,
      "t": 113695.49300000018,
      "d": 2798.90912500002,
      "v": 97
    },
    {
      "midi": 64,
      "hit": false,
      "t": 114130.27500000018,
      "d": 2364.1271250000136,
      "v": 95
    },
    {
      "midi": 52,
      "hit": false,
      "t": 114565.05700000019,
      "d": 1264.4909833333368,
      "v": 87
    },
    {
      "midi": 52,
      "hit": false,
      "t": 115869.4030000002,
      "d": 217.39100000000326,
      "v": 88
    },
    {
      "midi": 57,
      "hit": false,
      "t": 116086.7940000002,
      "d": 240.94169166666688,
      "v": 97
    },
    {
      "midi": 56,
      "hit": false,
      "t": 116304.1850000002,
      "d": 202.89826666665613,
      "v": 113
    },
    {
      "midi": 52,
      "hit": false,
      "t": 116521.57600000019,
      "d": 295.2894416666677,
      "v": 94
    },
    {
      "midi": 57,
      "hit": false,
      "t": 116521.57600000019,
      "d": 576.0861500000028,
      "v": 107
    },
    {
      "midi": 64,
      "hit": false,
      "t": 116521.57600000019,
      "d": 978.2595000000147,
      "v": 96
    },
    {
      "midi": 42,
      "hit": false,
      "t": 116521.57600000019,
      "d": 3175.720191666682,
      "v": 96
    },
    {
      "midi": 52,
      "hit": false,
      "t": 116956.3580000002,
      "d": 3028.981266666684,
      "v": 94
    },
    {
      "midi": 57,
      "hit": false,
      "t": 117173.7490000002,
      "d": 782.607600000003,
      "v": 104
    },
    {
      "midi": 64,
      "hit": false,
      "t": 117608.5310000002,
      "d": 2449.2719333333225,
      "v": 95
    },
    {
      "midi": 57,
      "hit": false,
      "t": 118043.3130000002,
      "d": 1987.3160583333374,
      "v": 97
    },
    {
      "midi": 42,
      "hit": false,
      "t": 119782.44100000021,
      "d": 239.13009999999485,
      "v": 82
    },
    {
      "midi": 54,
      "hit": false,
      "t": 119999.83200000021,
      "d": 634.057083333304,
      "v": 98
    },
    {
      "midi": 40,
      "hit": false,
      "t": 119999.83200000021,
      "d": 1434.7805999999691,
      "v": 93
    },
    {
      "midi": 52,
      "hit": false,
      "t": 120012.51314166687,
      "d": 402.17334999998275,
      "v": 95
    },
    {
      "midi": 52,
      "hit": false,
      "t": 120434.61400000019,
      "d": 2043.4753999999812,
      "v": 93
    },
    {
      "midi": 54,
      "hit": false,
      "t": 120652.00500000018,
      "d": 869.5639999999985,
      "v": 103
    },
    {
      "midi": 59,
      "hit": false,
      "t": 121086.78700000019,
      "d": 1925.7219416666485,
      "v": 95
    },
    {
      "midi": 56,
      "hit": false,
      "t": 121521.56900000018,
      "d": 1353.2589749999897,
      "v": 96
    },
    {
      "midi": 40,
      "hit": false,
      "t": 121521.56900000018,
      "d": 1943.8378583333251,
      "v": 88
    },
    {
      "midi": 52,
      "hit": false,
      "t": 122608.52400000016,
      "d": 865.940816666669,
      "v": 68
    },
    {
      "midi": 54,
      "hit": false,
      "t": 122825.91500000017,
      "d": 644.9266333333362,
      "v": 82
    },
    {
      "midi": 56,
      "hit": false,
      "t": 123043.30600000017,
      "d": 440.2167749999935,
      "v": 89
    },
    {
      "midi": 59,
      "hit": false,
      "t": 123260.69700000017,
      "d": 228.26054999999178,
      "v": 100
    },
    {
      "midi": 36,
      "hit": false,
      "t": 123478.08800000016,
      "d": 3460.140083333332,
      "v": 95
    },
    {
      "midi": 48,
      "hit": false,
      "t": 123478.08800000016,
      "d": 3460.140083333332,
      "v": 95
    },
    {
      "midi": 60,
      "hit": false,
      "t": 123478.08800000016,
      "d": 3460.140083333332,
      "v": 97
    },
    {
      "midi": 62,
      "hit": false,
      "t": 123478.08800000016,
      "d": 3460.140083333332,
      "v": 101
    },
    {
      "midi": 64,
      "hit": false,
      "t": 123478.08800000016,
      "d": 3460.140083333332,
      "v": 102
    },
    {
      "midi": 67,
      "hit": false,
      "t": 123478.08800000016,
      "d": 3460.140083333332,
      "v": 101
    },
    {
      "midi": 69,
      "hit": false,
      "t": 126956.34400000016,
      "d": 869.5639999999985,
      "v": 100
    },
    {
      "midi": 64,
      "hit": false,
      "t": 126956.34400000016,
      "d": 1400.3603583333315,
      "v": 100
    },
    {
      "midi": 62,
      "hit": false,
      "t": 126956.34400000016,
      "d": 1567.0267916666635,
      "v": 101
    },
    {
      "midi": 66,
      "hit": false,
      "t": 126956.34400000016,
      "d": 2556.1558416666667,
      "v": 121
    },
    {
      "midi": 38,
      "hit": false,
      "t": 126956.34400000016,
      "d": 3432.9662083333387,
      "v": 96
    },
    {
      "midi": 50,
      "hit": false,
      "t": 126956.34400000016,
      "d": 3432.9662083333387,
      "v": 96
    },
    {
      "midi": 69,
      "hit": false,
      "t": 128043.29900000016,
      "d": 1731.8816333333234,
      "v": 100
    },
    {
      "midi": 64,
      "hit": false,
      "t": 128478.08100000015,
      "d": 876.810366666672,
      "v": 98
    },
    {
      "midi": 62,
      "hit": false,
      "t": 129347.64500000015,
      "d": 1077.8970416666853,
      "v": 95
    },
    {
      "midi": 64,
      "hit": false,
      "t": 129565.03600000015,
      "d": 844.2017166666774,
      "v": 101
    },
    {
      "midi": 66,
      "hit": false,
      "t": 129782.42700000016,
      "d": 623.1875333333446,
      "v": 106
    },
    {
      "midi": 69,
      "hit": false,
      "t": 129999.81800000016,
      "d": 389.49220833333675,
      "v": 106
    },
    {
      "midi": 60,
      "hit": false,
      "t": 130434.60000000017,
      "d": 1403.983541666661,
      "v": 100
    },
    {
      "midi": 64,
      "hit": false,
      "t": 130434.60000000017,
      "d": 2666.662933333355,
      "v": 104
    },
    {
      "midi": 67,
      "hit": false,
      "t": 130434.60000000017,
      "d": 2925.720541666684,
      "v": 101
    },
    {
      "midi": 48,
      "hit": false,
      "t": 130434.60000000017,
      "d": 3449.2705333333724,
      "v": 97
    },
    {
      "midi": 62,
      "hit": false,
      "t": 130434.60000000017,
      "d": 3461.951675000033,
      "v": 105
    },
    {
      "midi": 36,
      "hit": false,
      "t": 130434.60000000017,
      "d": 3467.3864500000345,
      "v": 95
    },
    {
      "midi": 60,
      "hit": false,
      "t": 131956.33700000017,
      "d": 1951.0842250000278,
      "v": 80
    },
    {
      "midi": 64,
      "hit": false,
      "t": 133260.6830000002,
      "d": 606.88320833334,
      "v": 98
    },
    {
      "midi": 67,
      "hit": false,
      "t": 133478.0740000002,
      "d": 374.9994749999896,
      "v": 112
    },
    {
      "midi": 69,
      "hit": false,
      "t": 133912.8560000002,
      "d": 920.2885666666552,
      "v": 105
    },
    {
      "midi": 50,
      "hit": false,
      "t": 133912.8560000002,
      "d": 1605.0702166666451,
      "v": 99
    },
    {
      "midi": 66,
      "hit": false,
      "t": 133912.8560000002,
      "d": 1608.6933999999892,
      "v": 116
    },
    {
      "midi": 38,
      "hit": false,
      "t": 133912.8560000002,
      "d": 1621.3745416666497,
      "v": 97
    },
    {
      "midi": 62,
      "hit": false,
      "t": 133912.8560000002,
      "d": 1624.9977249999938,
      "v": 101
    },
    {
      "midi": 69,
      "hit": false,
      "t": 134999.8110000002,
      "d": 494.5645249999943,
      "v": 101
    },
    {
      "midi": 69,
      "hit": false,
      "t": 135651.9840000002,
      "d": 873.1871833333571,
      "v": 113
    },
    {
      "midi": 66,
      "hit": false,
      "t": 135651.9840000002,
      "d": 876.8103666667012,
      "v": 113
    },
    {
      "midi": 50,
      "hit": false,
      "t": 135651.9840000002,
      "d": 878.6219583333586,
      "v": 100
    },
    {
      "midi": 38,
      "hit": false,
      "t": 135651.9840000002,
      "d": 885.8683250000176,
      "v": 93
    },
    {
      "midi": 62,
      "hit": false,
      "t": 135651.9840000002,
      "d": 896.7378750000207,
      "v": 99
    },
    {
      "midi": 52,
      "hit": false,
      "t": 136521.5480000002,
      "d": 827.8973916666873,
      "v": 101
    },
    {
      "midi": 68,
      "hit": false,
      "t": 136521.5480000002,
      "d": 829.7089833333448,
      "v": 121
    },
    {
      "midi": 40,
      "hit": false,
      "t": 136521.5480000002,
      "d": 831.5205750000023,
      "v": 99
    },
    {
      "midi": 64,
      "hit": false,
      "t": 136521.5480000002,
      "d": 835.1437583333463,
      "v": 101
    },
    {
      "midi": 71,
      "hit": false,
      "t": 136521.5480000002,
      "d": 840.5785333333479,
      "v": 101
    },
    {
      "midi": 69,
      "hit": false,
      "t": 137391.11200000023,
      "d": 1121.375241666654,
      "v": 101
    },
    {
      "midi": 61,
      "hit": false,
      "t": 137391.11200000023,
      "d": 1161.2302583333221,
      "v": 117
    },
    {
      "midi": 64,
      "hit": false,
      "t": 137391.11200000023,
      "d": 1177.5345833333267,
      "v": 105
    },
    {
      "midi": 42,
      "hit": false,
      "t": 137391.11200000023,
      "d": 1224.635966666654,
      "v": 111
    },
    {
      "midi": 54,
      "hit": false,
      "t": 137391.11200000023,
      "d": 1224.635966666654,
      "v": 120
    },
    {
      "midi": 59,
      "hit": false,
      "t": 138695.45800000022,
      "d": 2001.80879166667,
      "v": 99
    },
    {
      "midi": 68,
      "hit": false,
      "t": 138695.45800000022,
      "d": 2005.431975000014,
      "v": 116
    },
    {
      "midi": 64,
      "hit": false,
      "t": 138695.45800000022,
      "d": 2007.2435666666715,
      "v": 105
    },
    {
      "midi": 37,
      "hit": false,
      "t": 138695.45800000022,
      "d": 2039.8522166666808,
      "v": 104
    },
    {
      "midi": 49,
      "hit": false,
      "t": 138695.45800000022,
      "d": 2039.8522166666808,
      "v": 113
    },
    {
      "midi": 59,
      "hit": false,
      "t": 140869.36800000022,
      "d": 577.8977416666748,
      "v": 105
    },
    {
      "midi": 68,
      "hit": false,
      "t": 140869.36800000022,
      "d": 579.7093333333323,
      "v": 116
    },
    {
      "midi": 64,
      "hit": false,
      "t": 140869.36800000022,
      "d": 581.5209249999898,
      "v": 113
    },
    {
      "midi": 40,
      "hit": false,
      "t": 140869.36800000022,
      "d": 1295.288041666674,
      "v": 99
    },
    {
      "midi": 52,
      "hit": false,
      "t": 140869.36800000022,
      "d": 1295.288041666674,
      "v": 108
    },
    {
      "midi": 64,
      "hit": false,
      "t": 141521.5410000002,
      "d": 460.1442833333276,
      "v": 110
    },
    {
      "midi": 68,
      "hit": false,
      "t": 141521.5410000002,
      "d": 476.44860833333223,
      "v": 121
    },
    {
      "midi": 59,
      "hit": false,
      "t": 141521.5410000002,
      "d": 525.3615833333461,
      "v": 101
    },
    {
      "midi": 66,
      "hit": false,
      "t": 142173.71400000024,
      "d": 706.520749999996,
      "v": 117
    },
    {
      "midi": 63,
      "hit": false,
      "t": 142173.71400000024,
      "d": 708.3323416666535,
      "v": 124
    },
    {
      "midi": 59,
      "hit": false,
      "t": 142173.71400000024,
      "d": 726.4482583333156,
      "v": 95
    },
    {
      "midi": 35,
      "hit": false,
      "t": 142173.71400000024,
      "d": 739.1293999999762,
      "v": 103
    },
    {
      "midi": 47,
      "hit": false,
      "t": 142173.71400000024,
      "d": 739.1293999999762,
      "v": 112
    },
    {
      "midi": 59,
      "hit": false,
      "t": 143043.27800000022,
      "d": 563.4050083333277,
      "v": 108
    },
    {
      "midi": 63,
      "hit": false,
      "t": 143043.27800000022,
      "d": 586.9556999999913,
      "v": 117
    },
    {
      "midi": 66,
      "hit": false,
      "t": 143043.27800000022,
      "d": 588.7672916666488,
      "v": 117
    },
    {
      "midi": 35,
      "hit": false,
      "t": 143043.27800000022,
      "d": 634.0570833333186,
      "v": 99
    },
    {
      "midi": 47,
      "hit": false,
      "t": 143043.27800000022,
      "d": 634.0570833333186,
      "v": 108
    },
    {
      "midi": 64,
      "hit": false,
      "t": 143695.4510000002,
      "d": 574.2745583333308,
      "v": 105
    },
    {
      "midi": 61,
      "hit": false,
      "t": 143695.4510000002,
      "d": 577.8977416666748,
      "v": 105
    },
    {
      "midi": 68,
      "hit": false,
      "t": 143695.4510000002,
      "d": 588.7672916666779,
      "v": 116
    },
    {
      "midi": 37,
      "hit": false,
      "t": 143695.4510000002,
      "d": 597.8252500000235,
      "v": 97
    },
    {
      "midi": 49,
      "hit": false,
      "t": 143695.4510000002,
      "d": 597.8252500000235,
      "v": 106
    },
    {
      "midi": 69,
      "hit": false,
      "t": 144347.6240000002,
      "d": 1121.375241666654,
      "v": 101
    },
    {
      "midi": 61,
      "hit": false,
      "t": 144347.6240000002,
      "d": 1161.2302583333221,
      "v": 117
    },
    {
      "midi": 64,
      "hit": false,
      "t": 144347.6240000002,
      "d": 1177.5345833333267,
      "v": 105
    },
    {
      "midi": 42,
      "hit": false,
      "t": 144347.6240000002,
      "d": 1224.635966666654,
      "v": 111
    },
    {
      "midi": 54,
      "hit": false,
      "t": 144347.6240000002,
      "d": 1224.635966666654,
      "v": 120
    },
    {
      "midi": 59,
      "hit": false,
      "t": 145651.9700000002,
      "d": 2001.80879166667,
      "v": 99
    },
    {
      "midi": 68,
      "hit": false,
      "t": 145651.9700000002,
      "d": 2005.431975000014,
      "v": 116
    },
    {
      "midi": 64,
      "hit": false,
      "t": 145651.9700000002,
      "d": 2007.2435666666715,
      "v": 105
    },
    {
      "midi": 37,
      "hit": false,
      "t": 145651.9700000002,
      "d": 2039.8522166666808,
      "v": 104
    },
    {
      "midi": 49,
      "hit": false,
      "t": 145651.9700000002,
      "d": 2039.8522166666808,
      "v": 113
    },
    {
      "midi": 59,
      "hit": false,
      "t": 147825.8800000002,
      "d": 577.8977416666748,
      "v": 105
    },
    {
      "midi": 68,
      "hit": false,
      "t": 147825.8800000002,
      "d": 579.7093333333323,
      "v": 116
    },
    {
      "midi": 64,
      "hit": false,
      "t": 147825.8800000002,
      "d": 581.5209249999898,
      "v": 113
    },
    {
      "midi": 40,
      "hit": false,
      "t": 147825.8800000002,
      "d": 1295.288041666674,
      "v": 99
    },
    {
      "midi": 52,
      "hit": false,
      "t": 147825.8800000002,
      "d": 1295.288041666674,
      "v": 108
    },
    {
      "midi": 64,
      "hit": false,
      "t": 148478.0530000002,
      "d": 460.1442833333276,
      "v": 110
    },
    {
      "midi": 68,
      "hit": false,
      "t": 148478.0530000002,
      "d": 476.44860833333223,
      "v": 121
    },
    {
      "midi": 59,
      "hit": false,
      "t": 148478.0530000002,
      "d": 525.3615833333461,
      "v": 101
    },
    {
      "midi": 66,
      "hit": false,
      "t": 149130.22600000023,
      "d": 706.520749999996,
      "v": 117
    },
    {
      "midi": 63,
      "hit": false,
      "t": 149130.22600000023,
      "d": 708.3323416666535,
      "v": 124
    },
    {
      "midi": 59,
      "hit": false,
      "t": 149130.22600000023,
      "d": 726.4482583333156,
      "v": 95
    },
    {
      "midi": 35,
      "hit": false,
      "t": 149130.22600000023,
      "d": 739.1293999999762,
      "v": 103
    },
    {
      "midi": 47,
      "hit": false,
      "t": 149130.22600000023,
      "d": 739.1293999999762,
      "v": 112
    },
    {
      "midi": 59,
      "hit": false,
      "t": 149999.7900000002,
      "d": 563.4050083333277,
      "v": 108
    },
    {
      "midi": 63,
      "hit": false,
      "t": 149999.7900000002,
      "d": 586.9556999999913,
      "v": 117
    },
    {
      "midi": 66,
      "hit": false,
      "t": 149999.7900000002,
      "d": 588.7672916666488,
      "v": 117
    },
    {
      "midi": 35,
      "hit": false,
      "t": 149999.7900000002,
      "d": 634.0570833333186,
      "v": 99
    },
    {
      "midi": 47,
      "hit": false,
      "t": 149999.7900000002,
      "d": 634.0570833333186,
      "v": 108
    },
    {
      "midi": 64,
      "hit": false,
      "t": 150651.9630000002,
      "d": 574.2745583333308,
      "v": 105
    },
    {
      "midi": 61,
      "hit": false,
      "t": 150651.9630000002,
      "d": 577.8977416666748,
      "v": 105
    },
    {
      "midi": 68,
      "hit": false,
      "t": 150651.9630000002,
      "d": 588.7672916666779,
      "v": 116
    },
    {
      "midi": 37,
      "hit": false,
      "t": 150651.9630000002,
      "d": 597.8252500000235,
      "v": 97
    },
    {
      "midi": 49,
      "hit": false,
      "t": 150651.9630000002,
      "d": 597.8252500000235,
      "v": 106
    },
    {
      "midi": 69,
      "hit": false,
      "t": 151304.1360000002,
      "d": 1121.375241666654,
      "v": 101
    },
    {
      "midi": 61,
      "hit": false,
      "t": 151304.1360000002,
      "d": 1161.2302583333221,
      "v": 117
    },
    {
      "midi": 64,
      "hit": false,
      "t": 151304.1360000002,
      "d": 1177.5345833333267,
      "v": 105
    },
    {
      "midi": 42,
      "hit": false,
      "t": 151304.1360000002,
      "d": 1224.635966666654,
      "v": 111
    },
    {
      "midi": 54,
      "hit": false,
      "t": 151304.1360000002,
      "d": 1224.635966666654,
      "v": 120
    },
    {
      "midi": 64,
      "hit": false,
      "t": 152608.4820000002,
      "d": 1521.7369999999937,
      "v": 105
    },
    {
      "midi": 59,
      "hit": false,
      "t": 152608.4820000002,
      "d": 2001.80879166667,
      "v": 99
    },
    {
      "midi": 68,
      "hit": false,
      "t": 152608.4820000002,
      "d": 2005.431975000014,
      "v": 116
    },
    {
      "midi": 37,
      "hit": false,
      "t": 152608.4820000002,
      "d": 2039.8522166666808,
      "v": 104
    },
    {
      "midi": 49,
      "hit": false,
      "t": 152608.4820000002,
      "d": 2039.8522166666808,
      "v": 113
    },
    {
      "midi": 64,
      "hit": false,
      "t": 154347.6100000002,
      "d": 248.1880583333259,
      "v": 104
    },
    {
      "midi": 66,
      "hit": false,
      "t": 154565.0010000002,
      "d": 202.89826666668523,
      "v": 120
    },
    {
      "midi": 59,
      "hit": false,
      "t": 154782.39200000023,
      "d": 577.8977416666748,
      "v": 105
    },
    {
      "midi": 68,
      "hit": false,
      "t": 154782.39200000023,
      "d": 579.7093333333323,
      "v": 116
    },
    {
      "midi": 64,
      "hit": false,
      "t": 154782.39200000023,
      "d": 581.5209249999898,
      "v": 113
    },
    {
      "midi": 40,
      "hit": false,
      "t": 154782.39200000023,
      "d": 1295.288041666674,
      "v": 99
    },
    {
      "midi": 52,
      "hit": false,
      "t": 154782.39200000023,
      "d": 1295.288041666674,
      "v": 108
    },
    {
      "midi": 64,
      "hit": false,
      "t": 155434.5650000002,
      "d": 460.1442833333276,
      "v": 110
    },
    {
      "midi": 68,
      "hit": false,
      "t": 155434.5650000002,
      "d": 476.44860833333223,
      "v": 121
    },
    {
      "midi": 59,
      "hit": false,
      "t": 155434.5650000002,
      "d": 525.3615833333461,
      "v": 101
    },
    {
      "midi": 66,
      "hit": false,
      "t": 156086.73800000024,
      "d": 706.520749999996,
      "v": 117
    },
    {
      "midi": 63,
      "hit": false,
      "t": 156086.73800000024,
      "d": 708.3323416666535,
      "v": 124
    },
    {
      "midi": 59,
      "hit": false,
      "t": 156086.73800000024,
      "d": 726.4482583333156,
      "v": 95
    },
    {
      "midi": 35,
      "hit": false,
      "t": 156086.73800000024,
      "d": 2173.9100000000035,
      "v": 94
    },
    {
      "midi": 47,
      "hit": false,
      "t": 156086.73800000024,
      "d": 2173.9100000000035,
      "v": 112
    },
    {
      "midi": 64,
      "hit": false,
      "t": 156956.30200000023,
      "d": 635.8686750000052,
      "v": 112
    },
    {
      "midi": 66,
      "hit": false,
      "t": 156956.30200000023,
      "d": 1072.4622666666692,
      "v": 112
    },
    {
      "midi": 59,
      "hit": false,
      "t": 156956.30200000023,
      "d": 1108.6940999999933,
      "v": 101
    },
    {
      "midi": 63,
      "hit": false,
      "t": 157608.47500000024,
      "d": 471.0138333333307,
      "v": 117
    },
    {
      "midi": 59,
      "hit": false,
      "t": 158260.64800000025,
      "d": 3021.7349000000104,
      "v": 110
    },
    {
      "midi": 61,
      "hit": false,
      "t": 158260.64800000025,
      "d": 3023.546491666668,
      "v": 117
    },
    {
      "midi": 57,
      "hit": false,
      "t": 158260.64800000025,
      "d": 3028.9812666666694,
      "v": 113
    },
    {
      "midi": 64,
      "hit": false,
      "t": 158260.64800000025,
      "d": 3039.8508166666725,
      "v": 101
    },
    {
      "midi": 45,
      "hit": false,
      "t": 158260.64800000025,
      "d": 3197.459291666659,
      "v": 98
    },
    {
      "midi": 33,
      "hit": false,
      "t": 158260.64800000025,
      "d": 3219.198391666665,
      "v": 92
    },
    {
      "midi": 47,
      "hit": false,
      "t": 161738.90400000024,
      "d": 1139.491158333345,
      "v": 99
    },
    {
      "midi": 64,
      "hit": false,
      "t": 161738.90400000024,
      "d": 1164.8534416666662,
      "v": 110
    },
    {
      "midi": 59,
      "hit": false,
      "t": 161738.90400000024,
      "d": 1181.1577666666708,
      "v": 101
    },
    {
      "midi": 66,
      "hit": false,
      "t": 161738.90400000024,
      "d": 1193.8389083333313,
      "v": 116
    },
    {
      "midi": 35,
      "hit": false,
      "t": 161738.90400000024,
      "d": 3438.4009833332966,
      "v": 80
    },
    {
      "midi": 66,
      "hit": false,
      "t": 163043.25000000023,
      "d": 2090.576783333323,
      "v": 110
    },
    {
      "midi": 59,
      "hit": false,
      "t": 163043.25000000023,
      "d": 2092.3883749999804,
      "v": 98
    },
    {
      "midi": 63,
      "hit": false,
      "t": 163043.25000000023,
      "d": 2092.3883749999804,
      "v": 112
    },
    {
      "midi": 47,
      "hit": false,
      "t": 163043.25000000023,
      "d": 2137.67816666665,
      "v": 97
    },
    {
      "midi": 66,
      "hit": false,
      "t": 165217.1600000002,
      "d": 340.5792333333229,
      "v": 116
    },
    {
      "midi": 69,
      "hit": false,
      "t": 165217.1600000002,
      "d": 340.5792333333229,
      "v": 108
    },
    {
      "midi": 61,
      "hit": false,
      "t": 165217.1600000002,
      "d": 346.01400833332445,
      "v": 112
    },
    {
      "midi": 42,
      "hit": false,
      "t": 165217.1600000002,
      "d": 349.6371916666685,
      "v": 121
    },
    {
      "midi": 54,
      "hit": false,
      "t": 165217.1600000002,
      "d": 349.6371916666685,
      "v": 121
    },
    {
      "midi": 68,
      "hit": false,
      "t": 166521.5060000002,
      "d": 347.82560000001104,
      "v": 116
    },
    {
      "midi": 44,
      "hit": false,
      "t": 166521.5060000002,
      "d": 355.07196666667005,
      "v": 108
    },
    {
      "midi": 52,
      "hit": false,
      "t": 166521.5060000002,
      "d": 355.07196666667005,
      "v": 108
    },
    {
      "midi": 64,
      "hit": false,
      "t": 166521.5060000002,
      "d": 355.07196666667005,
      "v": 102
    },
    {
      "midi": 59,
      "hit": false,
      "t": 166521.5060000002,
      "d": 358.6951500000141,
      "v": 104
    },
    {
      "midi": 57,
      "hit": false,
      "t": 168695.4160000002,
      "d": 760.8685000000114,
      "v": 116
    },
    {
      "midi": 64,
      "hit": false,
      "t": 168695.4160000002,
      "d": 773.549641666672,
      "v": 108
    },
    {
      "midi": 61,
      "hit": false,
      "t": 168695.4160000002,
      "d": 784.419191666675,
      "v": 117
    },
    {
      "midi": 33,
      "hit": false,
      "t": 168695.4160000002,
      "d": 820.6510249999992,
      "v": 113
    },
    {
      "midi": 45,
      "hit": false,
      "t": 168695.4160000002,
      "d": 820.6510249999992,
      "v": 113
    },
    {
      "midi": 59,
      "hit": false,
      "t": 169564.9800000002,
      "d": 728.2598500000022,
      "v": 101
    },
    {
      "midi": 66,
      "hit": false,
      "t": 169564.9800000002,
      "d": 757.2453166666673,
      "v": 116
    },
    {
      "midi": 63,
      "hit": false,
      "t": 169564.9800000002,
      "d": 762.6800916666689,
      "v": 116
    },
    {
      "midi": 35,
      "hit": false,
      "t": 169564.9800000002,
      "d": 811.5930666666827,
      "v": 113
    },
    {
      "midi": 47,
      "hit": false,
      "t": 169564.9800000002,
      "d": 811.5930666666827,
      "v": 113
    },
    {
      "midi": 61,
      "hit": false,
      "t": 170434.54400000023,
      "d": 757.2453166666673,
      "v": 116
    },
    {
      "midi": 64,
      "hit": false,
      "t": 170434.54400000023,
      "d": 760.8685000000114,
      "v": 113
    },
    {
      "midi": 69,
      "hit": false,
      "t": 170434.54400000023,
      "d": 789.8539666666766,
      "v": 104
    },
    {
      "midi": 37,
      "hit": false,
      "t": 170434.54400000023,
      "d": 818.8394333333417,
      "v": 113
    },
    {
      "midi": 49,
      "hit": false,
      "t": 170434.54400000023,
      "d": 818.8394333333417,
      "v": 113
    },
    {
      "midi": 63,
      "hit": false,
      "t": 171304.10800000024,
      "d": 744.5641750000068,
      "v": 116
    },
    {
      "midi": 66,
      "hit": false,
      "t": 171304.10800000024,
      "d": 744.5641750000068,
      "v": 102
    },
    {
      "midi": 71,
      "hit": false,
      "t": 171304.10800000024,
      "d": 755.4337250000099,
      "v": 105
    },
    {
      "midi": 39,
      "hit": false,
      "t": 171304.10800000024,
      "d": 766.303275000013,
      "v": 104
    },
    {
      "midi": 51,
      "hit": false,
      "t": 171304.10800000024,
      "d": 766.303275000013,
      "v": 104
    },
    {
      "midi": 66,
      "hit": false,
      "t": 172173.67200000025,
      "d": 340.5792333333229,
      "v": 116
    },
    {
      "midi": 69,
      "hit": false,
      "t": 172173.67200000025,
      "d": 340.5792333333229,
      "v": 108
    },
    {
      "midi": 61,
      "hit": false,
      "t": 172173.67200000025,
      "d": 346.01400833332445,
      "v": 112
    },
    {
      "midi": 42,
      "hit": false,
      "t": 172173.67200000025,
      "d": 349.6371916666685,
      "v": 121
    },
    {
      "midi": 54,
      "hit": false,
      "t": 172173.67200000025,
      "d": 349.6371916666685,
      "v": 121
    },
    {
      "midi": 68,
      "hit": false,
      "t": 173478.01800000024,
      "d": 347.82560000001104,
      "v": 116
    },
    {
      "midi": 44,
      "hit": false,
      "t": 173478.01800000024,
      "d": 355.07196666667005,
      "v": 108
    },
    {
      "midi": 52,
      "hit": false,
      "t": 173478.01800000024,
      "d": 355.07196666667005,
      "v": 108
    },
    {
      "midi": 64,
      "hit": false,
      "t": 173478.01800000024,
      "d": 355.07196666667005,
      "v": 102
    },
    {
      "midi": 59,
      "hit": false,
      "t": 173478.01800000024,
      "d": 358.6951500000141,
      "v": 104
    },
    {
      "midi": 55,
      "hit": false,
      "t": 175651.92800000025,
      "d": 753.6221333333233,
      "v": 108
    },
    {
      "midi": 64,
      "hit": false,
      "t": 175651.92800000025,
      "d": 766.3032749999838,
      "v": 105
    },
    {
      "midi": 60,
      "hit": false,
      "t": 175651.92800000025,
      "d": 775.3612333333294,
      "v": 110
    },
    {
      "midi": 33,
      "hit": false,
      "t": 175651.92800000025,
      "d": 820.6510249999992,
      "v": 113
    },
    {
      "midi": 45,
      "hit": false,
      "t": 175651.92800000025,
      "d": 820.6510249999992,
      "v": 113
    },
    {
      "midi": 57,
      "hit": false,
      "t": 176521.49200000026,
      "d": 702.8975666666811,
      "v": 108
    },
    {
      "midi": 62,
      "hit": false,
      "t": 176521.49200000026,
      "d": 740.9409916666918,
      "v": 110
    },
    {
      "midi": 66,
      "hit": false,
      "t": 176521.49200000026,
      "d": 748.1873583333509,
      "v": 120
    },
    {
      "midi": 35,
      "hit": false,
      "t": 176521.49200000026,
      "d": 820.6510250000283,
      "v": 113
    },
    {
      "midi": 47,
      "hit": false,
      "t": 176521.49200000026,
      "d": 820.6510250000283,
      "v": 113
    },
    {
      "midi": 58,
      "hit": false,
      "t": 177391.0560000003,
      "d": 697.4627916666795,
      "v": 116
    },
    {
      "midi": 67,
      "hit": false,
      "t": 177391.0560000003,
      "d": 726.4482583333447,
      "v": 101
    },
    {
      "midi": 63,
      "hit": false,
      "t": 177391.0560000003,
      "d": 739.1294000000053,
      "v": 121
    },
    {
      "midi": 36,
      "hit": false,
      "t": 177391.0560000003,
      "d": 820.6510249999992,
      "v": 113
    },
    {
      "midi": 48,
      "hit": false,
      "t": 177391.0560000003,
      "d": 820.6510249999992,
      "v": 113
    },
    {
      "midi": 60,
      "hit": false,
      "t": 178260.62000000032,
      "d": 817.0278416666551,
      "v": 105
    },
    {
      "midi": 38,
      "hit": false,
      "t": 178260.62000000032,
      "d": 820.6510249999992,
      "v": 113
    },
    {
      "midi": 50,
      "hit": false,
      "t": 178260.62000000032,
      "d": 820.6510249999992,
      "v": 113
    },
    {
      "midi": 65,
      "hit": false,
      "t": 178260.62000000032,
      "d": 822.4626166666567,
      "v": 113
    },
    {
      "midi": 69,
      "hit": false,
      "t": 178260.62000000032,
      "d": 846.0133083333203,
      "v": 106
    },
    {
      "midi": 65,
      "hit": false,
      "t": 179999.7480000003,
      "d": 422.10085833334597,
      "v": 105
    },
    {
      "midi": 43,
      "hit": false,
      "t": 179999.7480000003,
      "d": 434.7820000000065,
      "v": 111
    },
    {
      "midi": 55,
      "hit": false,
      "t": 179999.7480000003,
      "d": 434.7820000000065,
      "v": 120
    },
    {
      "midi": 62,
      "hit": false,
      "t": 179999.7480000003,
      "d": 434.7820000000065,
      "v": 117
    },
    {
      "midi": 70,
      "hit": false,
      "t": 179999.7480000003,
      "d": 434.7820000000065,
      "v": 101
    },
    {
      "midi": 60,
      "hit": false,
      "t": 180434.53000000032,
      "d": 2001.80879166667,
      "v": 99
    },
    {
      "midi": 69,
      "hit": false,
      "t": 180434.53000000032,
      "d": 2005.431975000014,
      "v": 116
    },
    {
      "midi": 65,
      "hit": false,
      "t": 180434.53000000032,
      "d": 2007.2435666666715,
      "v": 105
    },
    {
      "midi": 38,
      "hit": false,
      "t": 180434.53000000032,
      "d": 2039.8522166666808,
      "v": 104
    },
    {
      "midi": 50,
      "hit": false,
      "t": 180434.53000000032,
      "d": 2039.8522166666808,
      "v": 113
    },
    {
      "midi": 60,
      "hit": false,
      "t": 182608.44000000032,
      "d": 577.8977416666748,
      "v": 105
    },
    {
      "midi": 69,
      "hit": false,
      "t": 182608.44000000032,
      "d": 579.7093333333323,
      "v": 116
    },
    {
      "midi": 65,
      "hit": false,
      "t": 182608.44000000032,
      "d": 581.5209249999898,
      "v": 113
    },
    {
      "midi": 41,
      "hit": false,
      "t": 182608.44000000032,
      "d": 1295.288041666674,
      "v": 99
    },
    {
      "midi": 53,
      "hit": false,
      "t": 182608.44000000032,
      "d": 1295.288041666674,
      "v": 108
    },
    {
      "midi": 65,
      "hit": false,
      "t": 183260.6130000003,
      "d": 460.1442833333276,
      "v": 110
    },
    {
      "midi": 69,
      "hit": false,
      "t": 183260.6130000003,
      "d": 476.44860833333223,
      "v": 121
    },
    {
      "midi": 60,
      "hit": false,
      "t": 183260.6130000003,
      "d": 525.3615833333461,
      "v": 101
    },
    {
      "midi": 67,
      "hit": false,
      "t": 183912.78600000034,
      "d": 706.520749999996,
      "v": 117
    },
    {
      "midi": 64,
      "hit": false,
      "t": 183912.78600000034,
      "d": 708.3323416666535,
      "v": 124
    },
    {
      "midi": 60,
      "hit": false,
      "t": 183912.78600000034,
      "d": 726.4482583333156,
      "v": 95
    },
    {
      "midi": 36,
      "hit": false,
      "t": 183912.78600000034,
      "d": 739.1293999999762,
      "v": 103
    },
    {
      "midi": 48,
      "hit": false,
      "t": 183912.78600000034,
      "d": 739.1293999999762,
      "v": 112
    },
    {
      "midi": 60,
      "hit": false,
      "t": 184782.35000000033,
      "d": 563.4050083333277,
      "v": 108
    },
    {
      "midi": 64,
      "hit": false,
      "t": 184782.35000000033,
      "d": 586.9556999999913,
      "v": 117
    },
    {
      "midi": 67,
      "hit": false,
      "t": 184782.35000000033,
      "d": 588.7672916666488,
      "v": 117
    },
    {
      "midi": 36,
      "hit": false,
      "t": 184782.35000000033,
      "d": 634.0570833333186,
      "v": 99
    },
    {
      "midi": 48,
      "hit": false,
      "t": 184782.35000000033,
      "d": 634.0570833333186,
      "v": 108
    },
    {
      "midi": 65,
      "hit": false,
      "t": 185434.5230000003,
      "d": 574.2745583333308,
      "v": 105
    },
    {
      "midi": 62,
      "hit": false,
      "t": 185434.5230000003,
      "d": 577.8977416666748,
      "v": 105
    },
    {
      "midi": 69,
      "hit": false,
      "t": 185434.5230000003,
      "d": 588.7672916666779,
      "v": 116
    },
    {
      "midi": 38,
      "hit": false,
      "t": 185434.5230000003,
      "d": 597.8252500000235,
      "v": 97
    },
    {
      "midi": 50,
      "hit": false,
      "t": 185434.5230000003,
      "d": 597.8252500000235,
      "v": 106
    },
    {
      "midi": 70,
      "hit": false,
      "t": 186086.69600000032,
      "d": 1121.375241666654,
      "v": 101
    },
    {
      "midi": 62,
      "hit": false,
      "t": 186086.69600000032,
      "d": 1161.2302583333221,
      "v": 117
    },
    {
      "midi": 65,
      "hit": false,
      "t": 186086.69600000032,
      "d": 1177.5345833333267,
      "v": 105
    },
    {
      "midi": 43,
      "hit": false,
      "t": 186086.69600000032,
      "d": 1224.635966666654,
      "v": 111
    },
    {
      "midi": 55,
      "hit": false,
      "t": 186086.69600000032,
      "d": 1224.635966666654,
      "v": 120
    },
    {
      "midi": 60,
      "hit": false,
      "t": 187391.0420000003,
      "d": 2001.80879166667,
      "v": 99
    },
    {
      "midi": 69,
      "hit": false,
      "t": 187391.0420000003,
      "d": 2005.431975000014,
      "v": 116
    },
    {
      "midi": 65,
      "hit": false,
      "t": 187391.0420000003,
      "d": 2007.2435666666715,
      "v": 105
    },
    {
      "midi": 38,
      "hit": false,
      "t": 187391.0420000003,
      "d": 2039.8522166666808,
      "v": 104
    },
    {
      "midi": 50,
      "hit": false,
      "t": 187391.0420000003,
      "d": 2039.8522166666808,
      "v": 113
    },
    {
      "midi": 60,
      "hit": false,
      "t": 189564.9520000003,
      "d": 577.8977416666748,
      "v": 105
    },
    {
      "midi": 69,
      "hit": false,
      "t": 189564.9520000003,
      "d": 579.7093333333323,
      "v": 116
    },
    {
      "midi": 65,
      "hit": false,
      "t": 189564.9520000003,
      "d": 581.5209249999898,
      "v": 113
    },
    {
      "midi": 41,
      "hit": false,
      "t": 189564.9520000003,
      "d": 1295.288041666674,
      "v": 99
    },
    {
      "midi": 53,
      "hit": false,
      "t": 189564.9520000003,
      "d": 1295.288041666674,
      "v": 108
    },
    {
      "midi": 65,
      "hit": false,
      "t": 190217.1250000003,
      "d": 460.1442833333276,
      "v": 110
    },
    {
      "midi": 69,
      "hit": false,
      "t": 190217.1250000003,
      "d": 476.44860833333223,
      "v": 121
    },
    {
      "midi": 60,
      "hit": false,
      "t": 190217.1250000003,
      "d": 525.3615833333461,
      "v": 101
    },
    {
      "midi": 67,
      "hit": false,
      "t": 190869.29800000033,
      "d": 706.520749999996,
      "v": 117
    },
    {
      "midi": 64,
      "hit": false,
      "t": 190869.29800000033,
      "d": 708.3323416666535,
      "v": 124
    },
    {
      "midi": 60,
      "hit": false,
      "t": 190869.29800000033,
      "d": 726.4482583333156,
      "v": 95
    },
    {
      "midi": 36,
      "hit": false,
      "t": 190869.29800000033,
      "d": 739.1293999999762,
      "v": 103
    },
    {
      "midi": 48,
      "hit": false,
      "t": 190869.29800000033,
      "d": 739.1293999999762,
      "v": 112
    },
    {
      "midi": 60,
      "hit": false,
      "t": 191738.8620000003,
      "d": 563.4050083333277,
      "v": 108
    },
    {
      "midi": 64,
      "hit": false,
      "t": 191738.8620000003,
      "d": 586.9556999999913,
      "v": 117
    },
    {
      "midi": 67,
      "hit": false,
      "t": 191738.8620000003,
      "d": 588.7672916666488,
      "v": 117
    },
    {
      "midi": 36,
      "hit": false,
      "t": 191738.8620000003,
      "d": 634.0570833333186,
      "v": 99
    },
    {
      "midi": 48,
      "hit": false,
      "t": 191738.8620000003,
      "d": 634.0570833333186,
      "v": 108
    },
    {
      "midi": 65,
      "hit": false,
      "t": 192391.0350000003,
      "d": 574.2745583333308,
      "v": 105
    },
    {
      "midi": 62,
      "hit": false,
      "t": 192391.0350000003,
      "d": 577.8977416666748,
      "v": 105
    },
    {
      "midi": 69,
      "hit": false,
      "t": 192391.0350000003,
      "d": 588.7672916666779,
      "v": 116
    },
    {
      "midi": 38,
      "hit": false,
      "t": 192391.0350000003,
      "d": 597.8252500000235,
      "v": 97
    },
    {
      "midi": 50,
      "hit": false,
      "t": 192391.0350000003,
      "d": 597.8252500000235,
      "v": 106
    },
    {
      "midi": 70,
      "hit": false,
      "t": 193043.2080000003,
      "d": 1121.375241666654,
      "v": 101
    },
    {
      "midi": 62,
      "hit": false,
      "t": 193043.2080000003,
      "d": 1161.2302583333221,
      "v": 117
    },
    {
      "midi": 65,
      "hit": false,
      "t": 193043.2080000003,
      "d": 1177.5345833333267,
      "v": 105
    },
    {
      "midi": 43,
      "hit": false,
      "t": 193043.2080000003,
      "d": 1224.635966666654,
      "v": 111
    },
    {
      "midi": 55,
      "hit": false,
      "t": 193043.2080000003,
      "d": 1224.635966666654,
      "v": 120
    },
    {
      "midi": 65,
      "hit": false,
      "t": 194347.5540000003,
      "d": 1521.7369999999937,
      "v": 105
    },
    {
      "midi": 60,
      "hit": false,
      "t": 194347.5540000003,
      "d": 2001.80879166667,
      "v": 99
    },
    {
      "midi": 69,
      "hit": false,
      "t": 194347.5540000003,
      "d": 2005.431975000014,
      "v": 116
    },
    {
      "midi": 38,
      "hit": false,
      "t": 194347.5540000003,
      "d": 2039.8522166666808,
      "v": 104
    },
    {
      "midi": 50,
      "hit": false,
      "t": 194347.5540000003,
      "d": 2039.8522166666808,
      "v": 113
    },
    {
      "midi": 65,
      "hit": false,
      "t": 196086.6820000003,
      "d": 248.1880583333259,
      "v": 104
    },
    {
      "midi": 67,
      "hit": false,
      "t": 196304.0730000003,
      "d": 202.89826666668523,
      "v": 120
    },
    {
      "midi": 60,
      "hit": false,
      "t": 196521.46400000033,
      "d": 577.8977416666748,
      "v": 105
    },
    {
      "midi": 69,
      "hit": false,
      "t": 196521.46400000033,
      "d": 579.7093333333323,
      "v": 116
    },
    {
      "midi": 65,
      "hit": false,
      "t": 196521.46400000033,
      "d": 581.5209249999898,
      "v": 113
    },
    {
      "midi": 41,
      "hit": false,
      "t": 196521.46400000033,
      "d": 1295.288041666674,
      "v": 99
    },
    {
      "midi": 53,
      "hit": false,
      "t": 196521.46400000033,
      "d": 1295.288041666674,
      "v": 108
    },
    {
      "midi": 65,
      "hit": false,
      "t": 197173.6370000003,
      "d": 460.1442833333276,
      "v": 110
    },
    {
      "midi": 69,
      "hit": false,
      "t": 197173.6370000003,
      "d": 476.44860833333223,
      "v": 121
    },
    {
      "midi": 60,
      "hit": false,
      "t": 197173.6370000003,
      "d": 525.3615833333461,
      "v": 101
    },
    {
      "midi": 67,
      "hit": false,
      "t": 197825.81000000035,
      "d": 706.520749999996,
      "v": 117
    },
    {
      "midi": 64,
      "hit": false,
      "t": 197825.81000000035,
      "d": 708.3323416666535,
      "v": 124
    },
    {
      "midi": 60,
      "hit": false,
      "t": 197825.81000000035,
      "d": 726.4482583333156,
      "v": 95
    },
    {
      "midi": 36,
      "hit": false,
      "t": 197825.81000000035,
      "d": 2173.9100000000035,
      "v": 94
    },
    {
      "midi": 48,
      "hit": false,
      "t": 197825.81000000035,
      "d": 2173.9100000000035,
      "v": 112
    },
    {
      "midi": 65,
      "hit": false,
      "t": 198695.37400000033,
      "d": 635.8686750000052,
      "v": 112
    },
    {
      "midi": 67,
      "hit": false,
      "t": 198695.37400000033,
      "d": 1072.4622666666692,
      "v": 112
    },
    {
      "midi": 60,
      "hit": false,
      "t": 198695.37400000033,
      "d": 1108.6940999999933,
      "v": 101
    },
    {
      "midi": 64,
      "hit": false,
      "t": 199347.54700000034,
      "d": 471.0138333333307,
      "v": 117
    },
    {
      "midi": 60,
      "hit": false,
      "t": 199999.72000000035,
      "d": 3021.7349000000104,
      "v": 110
    },
    {
      "midi": 62,
      "hit": false,
      "t": 199999.72000000035,
      "d": 3023.546491666668,
      "v": 117
    },
    {
      "midi": 58,
      "hit": false,
      "t": 199999.72000000035,
      "d": 3028.9812666666694,
      "v": 113
    },
    {
      "midi": 65,
      "hit": false,
      "t": 199999.72000000035,
      "d": 3039.8508166666725,
      "v": 101
    },
    {
      "midi": 46,
      "hit": false,
      "t": 199999.72000000035,
      "d": 3197.459291666659,
      "v": 98
    },
    {
      "midi": 34,
      "hit": false,
      "t": 199999.72000000035,
      "d": 3219.198391666665,
      "v": 92
    },
    {
      "midi": 48,
      "hit": false,
      "t": 203477.97600000034,
      "d": 1139.491158333345,
      "v": 99
    },
    {
      "midi": 65,
      "hit": false,
      "t": 203477.97600000034,
      "d": 1164.8534416666662,
      "v": 110
    },
    {
      "midi": 60,
      "hit": false,
      "t": 203477.97600000034,
      "d": 1181.1577666666708,
      "v": 101
    },
    {
      "midi": 67,
      "hit": false,
      "t": 203477.97600000034,
      "d": 1193.8389083333313,
      "v": 116
    },
    {
      "midi": 36,
      "hit": false,
      "t": 203477.97600000034,
      "d": 3438.4009833332966,
      "v": 80
    },
    {
      "midi": 67,
      "hit": false,
      "t": 204782.32200000033,
      "d": 2090.576783333323,
      "v": 110
    },
    {
      "midi": 60,
      "hit": false,
      "t": 204782.32200000033,
      "d": 2092.3883749999804,
      "v": 98
    },
    {
      "midi": 64,
      "hit": false,
      "t": 204782.32200000033,
      "d": 2092.3883749999804,
      "v": 112
    },
    {
      "midi": 48,
      "hit": false,
      "t": 204782.32200000033,
      "d": 2137.67816666665,
      "v": 97
    },
    {
      "midi": 70,
      "hit": false,
      "t": 206956.2320000003,
      "d": 1121.375241666654,
      "v": 101
    },
    {
      "midi": 62,
      "hit": false,
      "t": 206956.2320000003,
      "d": 1161.2302583333221,
      "v": 117
    },
    {
      "midi": 65,
      "hit": false,
      "t": 206956.2320000003,
      "d": 1177.5345833333267,
      "v": 105
    },
    {
      "midi": 43,
      "hit": false,
      "t": 206956.2320000003,
      "d": 1224.635966666654,
      "v": 111
    },
    {
      "midi": 55,
      "hit": false,
      "t": 206956.2320000003,
      "d": 1224.635966666654,
      "v": 120
    },
    {
      "midi": 60,
      "hit": false,
      "t": 208260.5780000003,
      "d": 2001.80879166667,
      "v": 99
    },
    {
      "midi": 69,
      "hit": false,
      "t": 208260.5780000003,
      "d": 2005.431975000014,
      "v": 116
    },
    {
      "midi": 65,
      "hit": false,
      "t": 208260.5780000003,
      "d": 2007.2435666666715,
      "v": 105
    },
    {
      "midi": 38,
      "hit": false,
      "t": 208260.5780000003,
      "d": 2039.8522166666808,
      "v": 104
    },
    {
      "midi": 50,
      "hit": false,
      "t": 208260.5780000003,
      "d": 2039.8522166666808,
      "v": 113
    },
    {
      "midi": 60,
      "hit": false,
      "t": 210434.4880000003,
      "d": 577.8977416666748,
      "v": 105
    },
    {
      "midi": 69,
      "hit": false,
      "t": 210434.4880000003,
      "d": 579.7093333333323,
      "v": 116
    },
    {
      "midi": 65,
      "hit": false,
      "t": 210434.4880000003,
      "d": 581.5209249999898,
      "v": 113
    },
    {
      "midi": 41,
      "hit": false,
      "t": 210434.4880000003,
      "d": 1295.288041666674,
      "v": 99
    },
    {
      "midi": 53,
      "hit": false,
      "t": 210434.4880000003,
      "d": 1295.288041666674,
      "v": 108
    },
    {
      "midi": 65,
      "hit": false,
      "t": 211086.66100000028,
      "d": 460.1442833333276,
      "v": 110
    },
    {
      "midi": 69,
      "hit": false,
      "t": 211086.66100000028,
      "d": 476.44860833333223,
      "v": 121
    },
    {
      "midi": 60,
      "hit": false,
      "t": 211086.66100000028,
      "d": 525.3615833333461,
      "v": 101
    },
    {
      "midi": 67,
      "hit": false,
      "t": 211738.83400000032,
      "d": 706.520749999996,
      "v": 117
    },
    {
      "midi": 64,
      "hit": false,
      "t": 211738.83400000032,
      "d": 708.3323416666535,
      "v": 124
    },
    {
      "midi": 60,
      "hit": false,
      "t": 211738.83400000032,
      "d": 726.4482583333156,
      "v": 95
    },
    {
      "midi": 36,
      "hit": false,
      "t": 211738.83400000032,
      "d": 739.1293999999762,
      "v": 103
    },
    {
      "midi": 48,
      "hit": false,
      "t": 211738.83400000032,
      "d": 739.1293999999762,
      "v": 112
    },
    {
      "midi": 60,
      "hit": false,
      "t": 212608.3980000003,
      "d": 563.4050083333277,
      "v": 108
    },
    {
      "midi": 64,
      "hit": false,
      "t": 212608.3980000003,
      "d": 586.9556999999913,
      "v": 117
    },
    {
      "midi": 67,
      "hit": false,
      "t": 212608.3980000003,
      "d": 588.7672916666488,
      "v": 117
    },
    {
      "midi": 36,
      "hit": false,
      "t": 212608.3980000003,
      "d": 634.0570833333186,
      "v": 99
    },
    {
      "midi": 48,
      "hit": false,
      "t": 212608.3980000003,
      "d": 634.0570833333186,
      "v": 108
    },
    {
      "midi": 65,
      "hit": false,
      "t": 213260.5710000003,
      "d": 574.2745583333308,
      "v": 105
    },
    {
      "midi": 62,
      "hit": false,
      "t": 213260.5710000003,
      "d": 577.8977416666748,
      "v": 105
    },
    {
      "midi": 69,
      "hit": false,
      "t": 213260.5710000003,
      "d": 588.7672916666779,
      "v": 116
    },
    {
      "midi": 38,
      "hit": false,
      "t": 213260.5710000003,
      "d": 597.8252500000235,
      "v": 97
    },
    {
      "midi": 50,
      "hit": false,
      "t": 213260.5710000003,
      "d": 597.8252500000235,
      "v": 106
    },
    {
      "midi": 70,
      "hit": false,
      "t": 213912.7440000003,
      "d": 1121.375241666654,
      "v": 101
    },
    {
      "midi": 62,
      "hit": false,
      "t": 213912.7440000003,
      "d": 1161.2302583333221,
      "v": 117
    },
    {
      "midi": 65,
      "hit": false,
      "t": 213912.7440000003,
      "d": 1177.5345833333267,
      "v": 105
    },
    {
      "midi": 43,
      "hit": false,
      "t": 213912.7440000003,
      "d": 1224.635966666654,
      "v": 111
    },
    {
      "midi": 55,
      "hit": false,
      "t": 213912.7440000003,
      "d": 1224.635966666654,
      "v": 120
    },
    {
      "midi": 60,
      "hit": false,
      "t": 215217.0900000003,
      "d": 2001.80879166667,
      "v": 99
    },
    {
      "midi": 69,
      "hit": false,
      "t": 215217.0900000003,
      "d": 2005.431975000014,
      "v": 116
    },
    {
      "midi": 65,
      "hit": false,
      "t": 215217.0900000003,
      "d": 2007.2435666666715,
      "v": 105
    },
    {
      "midi": 38,
      "hit": false,
      "t": 215217.0900000003,
      "d": 2039.8522166666808,
      "v": 104
    },
    {
      "midi": 50,
      "hit": false,
      "t": 215217.0900000003,
      "d": 2039.8522166666808,
      "v": 113
    },
    {
      "midi": 60,
      "hit": false,
      "t": 217391.0000000003,
      "d": 577.8977416666748,
      "v": 105
    },
    {
      "midi": 69,
      "hit": false,
      "t": 217391.0000000003,
      "d": 579.7093333333323,
      "v": 116
    },
    {
      "midi": 65,
      "hit": false,
      "t": 217391.0000000003,
      "d": 581.5209249999898,
      "v": 113
    },
    {
      "midi": 41,
      "hit": false,
      "t": 217391.0000000003,
      "d": 1295.288041666674,
      "v": 99
    },
    {
      "midi": 53,
      "hit": false,
      "t": 217391.0000000003,
      "d": 1295.288041666674,
      "v": 108
    },
    {
      "midi": 65,
      "hit": false,
      "t": 218043.17300000027,
      "d": 460.1442833333276,
      "v": 110
    },
    {
      "midi": 69,
      "hit": false,
      "t": 218043.17300000027,
      "d": 476.44860833333223,
      "v": 121
    },
    {
      "midi": 60,
      "hit": false,
      "t": 218043.17300000027,
      "d": 525.3615833333461,
      "v": 101
    },
    {
      "midi": 67,
      "hit": false,
      "t": 218695.3460000003,
      "d": 706.520749999996,
      "v": 117
    },
    {
      "midi": 64,
      "hit": false,
      "t": 218695.3460000003,
      "d": 708.3323416666535,
      "v": 124
    },
    {
      "midi": 60,
      "hit": false,
      "t": 218695.3460000003,
      "d": 726.4482583333156,
      "v": 95
    },
    {
      "midi": 36,
      "hit": false,
      "t": 218695.3460000003,
      "d": 739.1293999999762,
      "v": 103
    },
    {
      "midi": 48,
      "hit": false,
      "t": 218695.3460000003,
      "d": 739.1293999999762,
      "v": 112
    },
    {
      "midi": 60,
      "hit": false,
      "t": 219564.9100000003,
      "d": 563.4050083333277,
      "v": 108
    },
    {
      "midi": 64,
      "hit": false,
      "t": 219564.9100000003,
      "d": 586.9556999999913,
      "v": 117
    },
    {
      "midi": 67,
      "hit": false,
      "t": 219564.9100000003,
      "d": 588.7672916666488,
      "v": 117
    },
    {
      "midi": 36,
      "hit": false,
      "t": 219564.9100000003,
      "d": 634.0570833333186,
      "v": 99
    },
    {
      "midi": 48,
      "hit": false,
      "t": 219564.9100000003,
      "d": 634.0570833333186,
      "v": 108
    },
    {
      "midi": 65,
      "hit": false,
      "t": 220217.08300000028,
      "d": 574.2745583333308,
      "v": 105
    },
    {
      "midi": 62,
      "hit": false,
      "t": 220217.08300000028,
      "d": 577.8977416666748,
      "v": 105
    },
    {
      "midi": 69,
      "hit": false,
      "t": 220217.08300000028,
      "d": 588.7672916666779,
      "v": 116
    },
    {
      "midi": 38,
      "hit": false,
      "t": 220217.08300000028,
      "d": 597.8252500000235,
      "v": 97
    },
    {
      "midi": 50,
      "hit": false,
      "t": 220217.08300000028,
      "d": 597.8252500000235,
      "v": 106
    },
    {
      "midi": 70,
      "hit": false,
      "t": 220869.25600000028,
      "d": 1121.375241666654,
      "v": 101
    },
    {
      "midi": 62,
      "hit": false,
      "t": 220869.25600000028,
      "d": 1161.2302583333221,
      "v": 117
    },
    {
      "midi": 65,
      "hit": false,
      "t": 220869.25600000028,
      "d": 1177.5345833333267,
      "v": 105
    },
    {
      "midi": 43,
      "hit": false,
      "t": 220869.25600000028,
      "d": 1224.635966666654,
      "v": 111
    },
    {
      "midi": 55,
      "hit": false,
      "t": 220869.25600000028,
      "d": 1224.635966666654,
      "v": 120
    },
    {
      "midi": 65,
      "hit": false,
      "t": 222173.60200000028,
      "d": 1521.7369999999937,
      "v": 105
    },
    {
      "midi": 60,
      "hit": false,
      "t": 222173.60200000028,
      "d": 2001.80879166667,
      "v": 99
    },
    {
      "midi": 69,
      "hit": false,
      "t": 222173.60200000028,
      "d": 2005.431975000014,
      "v": 116
    },
    {
      "midi": 38,
      "hit": false,
      "t": 222173.60200000028,
      "d": 2039.8522166666808,
      "v": 104
    },
    {
      "midi": 50,
      "hit": false,
      "t": 222173.60200000028,
      "d": 2039.8522166666808,
      "v": 113
    },
    {
      "midi": 65,
      "hit": false,
      "t": 223912.73000000027,
      "d": 248.1880583333259,
      "v": 104
    },
    {
      "midi": 67,
      "hit": false,
      "t": 224130.12100000028,
      "d": 202.89826666668523,
      "v": 120
    },
    {
      "midi": 60,
      "hit": false,
      "t": 224347.5120000003,
      "d": 577.8977416666748,
      "v": 105
    },
    {
      "midi": 69,
      "hit": false,
      "t": 224347.5120000003,
      "d": 579.7093333333323,
      "v": 116
    },
    {
      "midi": 65,
      "hit": false,
      "t": 224347.5120000003,
      "d": 581.5209249999898,
      "v": 113
    },
    {
      "midi": 41,
      "hit": false,
      "t": 224347.5120000003,
      "d": 1295.288041666674,
      "v": 99
    },
    {
      "midi": 53,
      "hit": false,
      "t": 224347.5120000003,
      "d": 1295.288041666674,
      "v": 108
    },
    {
      "midi": 65,
      "hit": false,
      "t": 224999.6850000003,
      "d": 460.1442833333276,
      "v": 110
    },
    {
      "midi": 69,
      "hit": false,
      "t": 224999.6850000003,
      "d": 476.44860833333223,
      "v": 121
    },
    {
      "midi": 60,
      "hit": false,
      "t": 224999.6850000003,
      "d": 525.3615833333461,
      "v": 101
    },
    {
      "midi": 67,
      "hit": false,
      "t": 225651.85800000033,
      "d": 706.520749999996,
      "v": 117
    },
    {
      "midi": 64,
      "hit": false,
      "t": 225651.85800000033,
      "d": 708.3323416666535,
      "v": 124
    },
    {
      "midi": 60,
      "hit": false,
      "t": 225651.85800000033,
      "d": 726.4482583333156,
      "v": 95
    },
    {
      "midi": 36,
      "hit": false,
      "t": 225651.85800000033,
      "d": 2173.9100000000035,
      "v": 94
    },
    {
      "midi": 48,
      "hit": false,
      "t": 225651.85800000033,
      "d": 2173.9100000000035,
      "v": 112
    },
    {
      "midi": 65,
      "hit": false,
      "t": 226521.4220000003,
      "d": 635.8686750000052,
      "v": 112
    },
    {
      "midi": 67,
      "hit": false,
      "t": 226521.4220000003,
      "d": 1072.4622666666692,
      "v": 112
    },
    {
      "midi": 60,
      "hit": false,
      "t": 226521.4220000003,
      "d": 1108.6940999999933,
      "v": 101
    },
    {
      "midi": 64,
      "hit": false,
      "t": 227173.59500000032,
      "d": 471.0138333333307,
      "v": 117
    },
    {
      "midi": 60,
      "hit": false,
      "t": 227825.76800000033,
      "d": 3021.7349000000104,
      "v": 110
    },
    {
      "midi": 62,
      "hit": false,
      "t": 227825.76800000033,
      "d": 3023.546491666668,
      "v": 117
    },
    {
      "midi": 58,
      "hit": false,
      "t": 227825.76800000033,
      "d": 3028.9812666666694,
      "v": 113
    },
    {
      "midi": 65,
      "hit": false,
      "t": 227825.76800000033,
      "d": 3039.8508166666725,
      "v": 101
    },
    {
      "midi": 46,
      "hit": false,
      "t": 227825.76800000033,
      "d": 3197.459291666659,
      "v": 98
    },
    {
      "midi": 34,
      "hit": false,
      "t": 227825.76800000033,
      "d": 3219.198391666665,
      "v": 92
    },
    {
      "midi": 48,
      "hit": false,
      "t": 231304.02400000033,
      "d": 1139.491158333345,
      "v": 99
    },
    {
      "midi": 65,
      "hit": false,
      "t": 231304.02400000033,
      "d": 1164.8534416666662,
      "v": 110
    },
    {
      "midi": 60,
      "hit": false,
      "t": 231304.02400000033,
      "d": 1181.1577666666708,
      "v": 101
    },
    {
      "midi": 67,
      "hit": false,
      "t": 231304.02400000033,
      "d": 1193.8389083333313,
      "v": 116
    },
    {
      "midi": 36,
      "hit": false,
      "t": 231304.02400000033,
      "d": 3438.4009833332966,
      "v": 80
    },
    {
      "midi": 67,
      "hit": false,
      "t": 232608.37000000032,
      "d": 2090.576783333323,
      "v": 110
    },
    {
      "midi": 60,
      "hit": false,
      "t": 232608.37000000032,
      "d": 2092.3883749999804,
      "v": 98
    },
    {
      "midi": 64,
      "hit": false,
      "t": 232608.37000000032,
      "d": 2092.3883749999804,
      "v": 112
    },
    {
      "midi": 48,
      "hit": false,
      "t": 232608.37000000032,
      "d": 2137.67816666665,
      "v": 97
    },
    {
      "midi": 70,
      "hit": false,
      "t": 234782.2800000003,
      "d": 1121.375241666654,
      "v": 101
    },
    {
      "midi": 62,
      "hit": false,
      "t": 234782.2800000003,
      "d": 1161.2302583333221,
      "v": 117
    },
    {
      "midi": 65,
      "hit": false,
      "t": 234782.2800000003,
      "d": 1177.5345833333267,
      "v": 105
    },
    {
      "midi": 43,
      "hit": false,
      "t": 234782.2800000003,
      "d": 1224.635966666654,
      "v": 111
    },
    {
      "midi": 55,
      "hit": false,
      "t": 234782.2800000003,
      "d": 1224.635966666654,
      "v": 120
    },
    {
      "midi": 60,
      "hit": false,
      "t": 236086.62600000028,
      "d": 2001.80879166667,
      "v": 99
    },
    {
      "midi": 69,
      "hit": false,
      "t": 236086.62600000028,
      "d": 2005.431975000014,
      "v": 116
    },
    {
      "midi": 65,
      "hit": false,
      "t": 236086.62600000028,
      "d": 2007.2435666666715,
      "v": 105
    },
    {
      "midi": 38,
      "hit": false,
      "t": 236086.62600000028,
      "d": 2039.8522166666808,
      "v": 104
    },
    {
      "midi": 50,
      "hit": false,
      "t": 236086.62600000028,
      "d": 2039.8522166666808,
      "v": 113
    },
    {
      "midi": 60,
      "hit": false,
      "t": 238260.53600000028,
      "d": 577.8977416666748,
      "v": 105
    },
    {
      "midi": 69,
      "hit": false,
      "t": 238260.53600000028,
      "d": 579.7093333333323,
      "v": 116
    },
    {
      "midi": 65,
      "hit": false,
      "t": 238260.53600000028,
      "d": 581.5209249999898,
      "v": 113
    },
    {
      "midi": 41,
      "hit": false,
      "t": 238260.53600000028,
      "d": 1295.288041666674,
      "v": 99
    },
    {
      "midi": 53,
      "hit": false,
      "t": 238260.53600000028,
      "d": 1295.288041666674,
      "v": 108
    },
    {
      "midi": 65,
      "hit": false,
      "t": 238912.70900000026,
      "d": 460.1442833333276,
      "v": 110
    },
    {
      "midi": 69,
      "hit": false,
      "t": 238912.70900000026,
      "d": 476.44860833333223,
      "v": 121
    },
    {
      "midi": 60,
      "hit": false,
      "t": 238912.70900000026,
      "d": 525.3615833333461,
      "v": 101
    },
    {
      "midi": 67,
      "hit": false,
      "t": 239564.8820000003,
      "d": 706.520749999996,
      "v": 117
    },
    {
      "midi": 64,
      "hit": false,
      "t": 239564.8820000003,
      "d": 708.3323416666535,
      "v": 124
    },
    {
      "midi": 60,
      "hit": false,
      "t": 239564.8820000003,
      "d": 726.4482583333156,
      "v": 95
    },
    {
      "midi": 36,
      "hit": false,
      "t": 239564.8820000003,
      "d": 739.1293999999762,
      "v": 103
    },
    {
      "midi": 48,
      "hit": false,
      "t": 239564.8820000003,
      "d": 739.1293999999762,
      "v": 112
    },
    {
      "midi": 60,
      "hit": false,
      "t": 240434.4460000003,
      "d": 563.4050083333277,
      "v": 108
    },
    {
      "midi": 64,
      "hit": false,
      "t": 240434.4460000003,
      "d": 586.9556999999913,
      "v": 117
    },
    {
      "midi": 67,
      "hit": false,
      "t": 240434.4460000003,
      "d": 588.7672916666488,
      "v": 117
    },
    {
      "midi": 36,
      "hit": false,
      "t": 240434.4460000003,
      "d": 634.0570833333186,
      "v": 99
    },
    {
      "midi": 48,
      "hit": false,
      "t": 240434.4460000003,
      "d": 634.0570833333186,
      "v": 108
    },
    {
      "midi": 65,
      "hit": false,
      "t": 241086.61900000027,
      "d": 574.2745583333308,
      "v": 105
    },
    {
      "midi": 62,
      "hit": false,
      "t": 241086.61900000027,
      "d": 577.8977416666748,
      "v": 105
    },
    {
      "midi": 69,
      "hit": false,
      "t": 241086.61900000027,
      "d": 588.7672916666779,
      "v": 116
    },
    {
      "midi": 38,
      "hit": false,
      "t": 241086.61900000027,
      "d": 597.8252500000235,
      "v": 97
    },
    {
      "midi": 50,
      "hit": false,
      "t": 241086.61900000027,
      "d": 597.8252500000235,
      "v": 106
    },
    {
      "midi": 70,
      "hit": false,
      "t": 241738.79200000028,
      "d": 1121.375241666683,
      "v": 101
    },
    {
      "midi": 62,
      "hit": false,
      "t": 241738.79200000028,
      "d": 1161.2302583333512,
      "v": 117
    },
    {
      "midi": 65,
      "hit": false,
      "t": 241738.79200000028,
      "d": 1177.5345833333558,
      "v": 105
    },
    {
      "midi": 43,
      "hit": false,
      "t": 241738.79200000028,
      "d": 1224.635966666683,
      "v": 111
    },
    {
      "midi": 55,
      "hit": false,
      "t": 241738.79200000028,
      "d": 1224.635966666683,
      "v": 120
    },
    {
      "midi": 60,
      "hit": false,
      "t": 243043.1380000003,
      "d": 2001.808791666699,
      "v": 99
    },
    {
      "midi": 69,
      "hit": false,
      "t": 243043.1380000003,
      "d": 2005.4319750000432,
      "v": 116
    },
    {
      "midi": 65,
      "hit": false,
      "t": 243043.1380000003,
      "d": 2007.2435666667006,
      "v": 105
    },
    {
      "midi": 38,
      "hit": false,
      "t": 243043.1380000003,
      "d": 2039.8522166667099,
      "v": 104
    },
    {
      "midi": 50,
      "hit": false,
      "t": 243043.1380000003,
      "d": 2039.8522166667099,
      "v": 113
    },
    {
      "midi": 60,
      "hit": false,
      "t": 245217.04800000033,
      "d": 577.8977416666748,
      "v": 105
    },
    {
      "midi": 69,
      "hit": false,
      "t": 245217.04800000033,
      "d": 579.7093333333323,
      "v": 116
    },
    {
      "midi": 65,
      "hit": false,
      "t": 245217.04800000033,
      "d": 581.5209249999898,
      "v": 113
    },
    {
      "midi": 41,
      "hit": false,
      "t": 245217.04800000033,
      "d": 1295.288041666674,
      "v": 99
    },
    {
      "midi": 53,
      "hit": false,
      "t": 245217.04800000033,
      "d": 1295.288041666674,
      "v": 108
    },
    {
      "midi": 65,
      "hit": false,
      "t": 245869.2210000003,
      "d": 460.1442833333276,
      "v": 110
    },
    {
      "midi": 69,
      "hit": false,
      "t": 245869.2210000003,
      "d": 476.44860833333223,
      "v": 121
    },
    {
      "midi": 60,
      "hit": false,
      "t": 245869.2210000003,
      "d": 525.3615833333461,
      "v": 101
    },
    {
      "midi": 67,
      "hit": false,
      "t": 246521.39400000035,
      "d": 706.520749999996,
      "v": 117
    },
    {
      "midi": 64,
      "hit": false,
      "t": 246521.39400000035,
      "d": 708.3323416666535,
      "v": 124
    },
    {
      "midi": 60,
      "hit": false,
      "t": 246521.39400000035,
      "d": 726.4482583333156,
      "v": 95
    },
    {
      "midi": 36,
      "hit": false,
      "t": 246521.39400000035,
      "d": 739.1293999999762,
      "v": 103
    },
    {
      "midi": 48,
      "hit": false,
      "t": 246521.39400000035,
      "d": 739.1293999999762,
      "v": 112
    },
    {
      "midi": 60,
      "hit": false,
      "t": 247390.95800000033,
      "d": 563.4050083333277,
      "v": 108
    },
    {
      "midi": 64,
      "hit": false,
      "t": 247390.95800000033,
      "d": 586.9556999999913,
      "v": 117
    },
    {
      "midi": 67,
      "hit": false,
      "t": 247390.95800000033,
      "d": 588.7672916666488,
      "v": 117
    },
    {
      "midi": 36,
      "hit": false,
      "t": 247390.95800000033,
      "d": 634.0570833333186,
      "v": 99
    },
    {
      "midi": 48,
      "hit": false,
      "t": 247390.95800000033,
      "d": 634.0570833333186,
      "v": 108
    },
    {
      "midi": 65,
      "hit": false,
      "t": 248043.1310000003,
      "d": 574.2745583333308,
      "v": 105
    },
    {
      "midi": 62,
      "hit": false,
      "t": 248043.1310000003,
      "d": 577.8977416666748,
      "v": 105
    },
    {
      "midi": 69,
      "hit": false,
      "t": 248043.1310000003,
      "d": 588.7672916666779,
      "v": 116
    },
    {
      "midi": 38,
      "hit": false,
      "t": 248043.1310000003,
      "d": 597.8252500000235,
      "v": 97
    },
    {
      "midi": 50,
      "hit": false,
      "t": 248043.1310000003,
      "d": 597.8252500000235,
      "v": 106
    },
    {
      "midi": 70,
      "hit": false,
      "t": 248695.30400000032,
      "d": 1121.375241666683,
      "v": 101
    },
    {
      "midi": 62,
      "hit": false,
      "t": 248695.30400000032,
      "d": 1161.2302583333512,
      "v": 117
    },
    {
      "midi": 65,
      "hit": false,
      "t": 248695.30400000032,
      "d": 1177.5345833333558,
      "v": 105
    },
    {
      "midi": 43,
      "hit": false,
      "t": 248695.30400000032,
      "d": 1224.635966666683,
      "v": 111
    },
    {
      "midi": 55,
      "hit": false,
      "t": 248695.30400000032,
      "d": 1224.635966666683,
      "v": 120
    },
    {
      "midi": 65,
      "hit": false,
      "t": 249999.65000000034,
      "d": 1521.7370000000228,
      "v": 105
    },
    {
      "midi": 60,
      "hit": false,
      "t": 249999.65000000034,
      "d": 2001.808791666699,
      "v": 99
    },
    {
      "midi": 69,
      "hit": false,
      "t": 249999.65000000034,
      "d": 2005.4319750000432,
      "v": 116
    },
    {
      "midi": 38,
      "hit": false,
      "t": 249999.65000000034,
      "d": 2039.8522166667099,
      "v": 104
    },
    {
      "midi": 50,
      "hit": false,
      "t": 249999.65000000034,
      "d": 2039.8522166667099,
      "v": 113
    },
    {
      "midi": 65,
      "hit": false,
      "t": 251738.77800000037,
      "d": 248.1880583333259,
      "v": 104
    },
    {
      "midi": 67,
      "hit": false,
      "t": 251956.16900000037,
      "d": 202.89826666668523,
      "v": 120
    },
    {
      "midi": 60,
      "hit": false,
      "t": 252173.5600000004,
      "d": 577.8977416666748,
      "v": 105
    },
    {
      "midi": 69,
      "hit": false,
      "t": 252173.5600000004,
      "d": 579.7093333333323,
      "v": 116
    },
    {
      "midi": 65,
      "hit": false,
      "t": 252173.5600000004,
      "d": 581.5209249999898,
      "v": 113
    },
    {
      "midi": 41,
      "hit": false,
      "t": 252173.5600000004,
      "d": 1295.288041666674,
      "v": 99
    },
    {
      "midi": 53,
      "hit": false,
      "t": 252173.5600000004,
      "d": 1295.288041666674,
      "v": 108
    },
    {
      "midi": 65,
      "hit": false,
      "t": 252825.7330000004,
      "d": 460.1442833333276,
      "v": 110
    },
    {
      "midi": 69,
      "hit": false,
      "t": 252825.7330000004,
      "d": 476.44860833333223,
      "v": 121
    },
    {
      "midi": 60,
      "hit": false,
      "t": 252825.7330000004,
      "d": 525.3615833333461,
      "v": 101
    },
    {
      "midi": 67,
      "hit": false,
      "t": 253477.90600000042,
      "d": 706.520749999996,
      "v": 117
    },
    {
      "midi": 64,
      "hit": false,
      "t": 253477.90600000042,
      "d": 708.3323416666535,
      "v": 124
    },
    {
      "midi": 60,
      "hit": false,
      "t": 253477.90600000042,
      "d": 726.4482583333156,
      "v": 95
    },
    {
      "midi": 36,
      "hit": false,
      "t": 253477.90600000042,
      "d": 2173.9100000000326,
      "v": 94
    },
    {
      "midi": 48,
      "hit": false,
      "t": 253477.90600000042,
      "d": 2173.9100000000326,
      "v": 112
    },
    {
      "midi": 65,
      "hit": false,
      "t": 254347.4700000004,
      "d": 635.8686750000052,
      "v": 112
    },
    {
      "midi": 67,
      "hit": false,
      "t": 254347.4700000004,
      "d": 1072.4622666666692,
      "v": 112
    },
    {
      "midi": 60,
      "hit": false,
      "t": 254347.4700000004,
      "d": 1108.6941000000224,
      "v": 101
    },
    {
      "midi": 64,
      "hit": false,
      "t": 254999.64300000042,
      "d": 471.0138333333598,
      "v": 117
    },
    {
      "midi": 60,
      "hit": false,
      "t": 255651.81600000046,
      "d": 3021.7349000000395,
      "v": 110
    },
    {
      "midi": 62,
      "hit": false,
      "t": 255651.81600000046,
      "d": 3023.546491666697,
      "v": 117
    },
    {
      "midi": 58,
      "hit": false,
      "t": 255651.81600000046,
      "d": 3028.9812666666985,
      "v": 113
    },
    {
      "midi": 65,
      "hit": false,
      "t": 255651.81600000046,
      "d": 3039.8508166667016,
      "v": 101
    },
    {
      "midi": 46,
      "hit": false,
      "t": 255651.81600000046,
      "d": 3197.459291666688,
      "v": 98
    },
    {
      "midi": 34,
      "hit": false,
      "t": 255651.81600000046,
      "d": 3219.198391666694,
      "v": 92
    },
    {
      "midi": 48,
      "hit": false,
      "t": 259130.07200000048,
      "d": 1139.491158333345,
      "v": 99
    },
    {
      "midi": 65,
      "hit": false,
      "t": 259130.07200000048,
      "d": 1164.8534416666662,
      "v": 110
    },
    {
      "midi": 60,
      "hit": false,
      "t": 259130.07200000048,
      "d": 1181.1577666666708,
      "v": 101
    },
    {
      "midi": 67,
      "hit": false,
      "t": 259130.07200000048,
      "d": 1193.8389083333313,
      "v": 116
    },
    {
      "midi": 36,
      "hit": false,
      "t": 259130.07200000048,
      "d": 3438.400983333384,
      "v": 80
    },
    {
      "midi": 67,
      "hit": false,
      "t": 260434.41800000047,
      "d": 2090.576783333381,
      "v": 110
    },
    {
      "midi": 60,
      "hit": false,
      "t": 260434.41800000047,
      "d": 2092.3883750000386,
      "v": 98
    },
    {
      "midi": 64,
      "hit": false,
      "t": 260434.41800000047,
      "d": 2092.3883750000386,
      "v": 112
    },
    {
      "midi": 48,
      "hit": false,
      "t": 260434.41800000047,
      "d": 2137.6781666667084,
      "v": 97
    }
  ]
}