{
  "jsonPath": "Unknown/Unknown/Ace Karaoke Productions/put-it-in-a-love-song-in-the-style-of-alicia-keys-feat-beyonce-with-backing-vocals.json",
  "path": "Unknown\\Unknown\\Ace Karaoke Productions\\Put It In A Love Song (In The Style of Alicia Keys feat Beyonce) With Backing Vocals.mid",
  "name": "Put It In A Love Song (In The Style of Alicia Keys feat Beyonce) With Backing Vocals",
  "difficulty": "Advanced",
  "bpm": 94.01014369450463,
  "notes": [
    {
      "midi": 68,
      "hit": false,
      "t": 22976.244,
      "d": 2147.374656250002,
      "v": 97
    },
    {
      "midi": 56,
      "hit": false,
      "t": 22976.244,
      "d": 2200.5604062500024,
      "v": 93
    },
    {
      "midi": 63,
      "hit": false,
      "t": 22976.244,
      "d": 2240.449718750002,
      "v": 97
    },
    {
      "midi": 60,
      "hit": false,
      "t": 22976.244,
      "d": 2253.746156250003,
      "v": 100
    },
    {
      "midi": 44,
      "hit": false,
      "t": 22976.244,
      "d": 2353.4694375000036,
      "v": 97
    },
    {
      "midi": 68,
      "hit": false,
      "t": 22976.244,
      "d": 2147.374656250002,
      "v": 97
    },
    {
      "midi": 56,
      "hit": false,
      "t": 22976.244,
      "d": 2200.5604062500024,
      "v": 93
    },
    {
      "midi": 63,
      "hit": false,
      "t": 22976.244,
      "d": 2240.449718750002,
      "v": 97
    },
    {
      "midi": 60,
      "hit": false,
      "t": 22976.244,
      "d": 2253.746156250003,
      "v": 100
    },
    {
      "midi": 44,
      "hit": false,
      "t": 22976.244,
      "d": 2353.4694375000036,
      "v": 97
    },
    {
      "midi": 67,
      "hit": false,
      "t": 25529.160000000003,
      "d": 1961.2245312500017,
      "v": 95
    },
    {
      "midi": 60,
      "hit": false,
      "t": 25529.160000000003,
      "d": 2001.1138437500013,
      "v": 100
    },
    {
      "midi": 56,
      "hit": false,
      "t": 25529.160000000003,
      "d": 2007.7620625000018,
      "v": 93
    },
    {
      "midi": 63,
      "hit": false,
      "t": 25529.160000000003,
      "d": 2007.7620625000018,
      "v": 95
    },
    {
      "midi": 44,
      "hit": false,
      "t": 25529.160000000003,
      "d": 2087.540687500001,
      "v": 95
    },
    {
      "midi": 67,
      "hit": false,
      "t": 25529.160000000003,
      "d": 1961.2245312500017,
      "v": 95
    },
    {
      "midi": 60,
      "hit": false,
      "t": 25529.160000000003,
      "d": 2001.1138437500013,
      "v": 100
    },
    {
      "midi": 56,
      "hit": false,
      "t": 25529.160000000003,
      "d": 2007.7620625000018,
      "v": 93
    },
    {
      "midi": 63,
      "hit": false,
      "t": 25529.160000000003,
      "d": 2007.7620625000018,
      "v": 95
    },
    {
      "midi": 44,
      "hit": false,
      "t": 25529.160000000003,
      "d": 2087.540687500001,
      "v": 95
    },
    {
      "midi": 66,
      "hit": false,
      "t": 28082.076000000005,
      "d": 2267.0425937500004,
      "v": 100
    },
    {
      "midi": 60,
      "hit": false,
      "t": 28082.076000000005,
      "d": 2273.690812500001,
      "v": 100
    },
    {
      "midi": 63,
      "hit": false,
      "t": 28082.076000000005,
      "d": 2280.3390312500014,
      "v": 102
    },
    {
      "midi": 56,
      "hit": false,
      "t": 28082.076000000005,
      "d": 2286.987250000002,
      "v": 93
    },
    {
      "midi": 44,
      "hit": false,
      "t": 28082.076000000005,
      "d": 2340.1730000000025,
      "v": 93
    },
    {
      "midi": 66,
      "hit": false,
      "t": 28082.076000000005,
      "d": 2267.0425937500004,
      "v": 100
    },
    {
      "midi": 60,
      "hit": false,
      "t": 28082.076000000005,
      "d": 2273.690812500001,
      "v": 100
    },
    {
      "midi": 63,
      "hit": false,
      "t": 28082.076000000005,
      "d": 2280.3390312500014,
      "v": 102
    },
    {
      "midi": 56,
      "hit": false,
      "t": 28082.076000000005,
      "d": 2286.987250000002,
      "v": 93
    },
    {
      "midi": 44,
      "hit": false,
      "t": 28082.076000000005,
      "d": 2340.1730000000025,
      "v": 93
    },
    {
      "midi": 44,
      "hit": false,
      "t": 30634.992000000006,
      "d": 2300.2836874999994,
      "v": 84
    },
    {
      "midi": 56,
      "hit": false,
      "t": 30634.992000000006,
      "d": 2320.228343750001,
      "v": 93
    },
    {
      "midi": 61,
      "hit": false,
      "t": 30634.992000000006,
      "d": 2320.228343750001,
      "v": 102
    },
    {
      "midi": 65,
      "hit": false,
      "t": 30634.992000000006,
      "d": 2326.8765625000015,
      "v": 100
    },
    {
      "midi": 44,
      "hit": false,
      "t": 30634.992000000006,
      "d": 2300.2836874999994,
      "v": 84
    },
    {
      "midi": 56,
      "hit": false,
      "t": 30634.992000000006,
      "d": 2320.228343750001,
      "v": 93
    },
    {
      "midi": 61,
      "hit": false,
      "t": 30634.992000000006,
      "d": 2320.228343750001,
      "v": 102
    },
    {
      "midi": 65,
      "hit": false,
      "t": 30634.992000000006,
      "d": 2326.8765625000015,
      "v": 100
    },
    {
      "midi": 60,
      "hit": false,
      "t": 38293.740000000005,
      "d": 4780.069281249998,
      "v": 95
    },
    {
      "midi": 44,
      "hit": false,
      "t": 38293.740000000005,
      "d": 4800.0139375,
      "v": 89
    },
    {
      "midi": 63,
      "hit": false,
      "t": 38293.740000000005,
      "d": 4806.66215625,
      "v": 100
    },
    {
      "midi": 56,
      "hit": false,
      "t": 38293.740000000005,
      "d": 4813.310375000001,
      "v": 89
    },
    {
      "midi": 60,
      "hit": false,
      "t": 38293.740000000005,
      "d": 4780.069281249998,
      "v": 95
    },
    {
      "midi": 44,
      "hit": false,
      "t": 38293.740000000005,
      "d": 4800.0139375,
      "v": 89
    },
    {
      "midi": 63,
      "hit": false,
      "t": 38293.740000000005,
      "d": 4806.66215625,
      "v": 100
    },
    {
      "midi": 56,
      "hit": false,
      "t": 38293.740000000005,
      "d": 4813.310375000001,
      "v": 89
    },
    {
      "midi": 56,
      "hit": false,
      "t": 43399.57200000001,
      "d": 2340.1730000000025,
      "v": 91
    },
    {
      "midi": 60,
      "hit": false,
      "t": 43399.57200000001,
      "d": 2380.0623125000056,
      "v": 91
    },
    {
      "midi": 51,
      "hit": false,
      "t": 43399.57200000001,
      "d": 2466.489156250005,
      "v": 95
    },
    {
      "midi": 44,
      "hit": false,
      "t": 43399.57200000001,
      "d": 2493.0820312500073,
      "v": 97
    },
    {
      "midi": 56,
      "hit": false,
      "t": 43399.57200000001,
      "d": 2340.1730000000025,
      "v": 91
    },
    {
      "midi": 60,
      "hit": false,
      "t": 43399.57200000001,
      "d": 2380.0623125000056,
      "v": 91
    },
    {
      "midi": 51,
      "hit": false,
      "t": 43399.57200000001,
      "d": 2466.489156250005,
      "v": 95
    },
    {
      "midi": 44,
      "hit": false,
      "t": 43399.57200000001,
      "d": 2493.0820312500073,
      "v": 97
    },
    {
      "midi": 43,
      "hit": false,
      "t": 45952.48800000001,
      "d": 2353.4694374999963,
      "v": 84
    },
    {
      "midi": 58,
      "hit": false,
      "t": 45952.48800000001,
      "d": 2353.4694374999963,
      "v": 100
    },
    {
      "midi": 51,
      "hit": false,
      "t": 45952.48800000001,
      "d": 2360.117656249997,
      "v": 93
    },
    {
      "midi": 55,
      "hit": false,
      "t": 45952.48800000001,
      "d": 2360.117656249997,
      "v": 95
    },
    {
      "midi": 43,
      "hit": false,
      "t": 45952.48800000001,
      "d": 2353.4694374999963,
      "v": 84
    },
    {
      "midi": 58,
      "hit": false,
      "t": 45952.48800000001,
      "d": 2353.4694374999963,
      "v": 100
    },
    {
      "midi": 51,
      "hit": false,
      "t": 45952.48800000001,
      "d": 2360.117656249997,
      "v": 93
    },
    {
      "midi": 55,
      "hit": false,
      "t": 45952.48800000001,
      "d": 2360.117656249997,
      "v": 95
    },
    {
      "midi": 54,
      "hit": false,
      "t": 48505.40400000001,
      "d": 2094.1889062499977,
      "v": 97
    },
    {
      "midi": 58,
      "hit": false,
      "t": 48505.40400000001,
      "d": 2100.837124999998,
      "v": 95
    },
    {
      "midi": 51,
      "hit": false,
      "t": 48505.40400000001,
      "d": 2107.4853437499987,
      "v": 97
    },
    {
      "midi": 42,
      "hit": false,
      "t": 48505.40400000001,
      "d": 2260.394374999996,
      "v": 78
    },
    {
      "midi": 54,
      "hit": false,
      "t": 48505.40400000001,
      "d": 2094.1889062499977,
      "v": 97
    },
    {
      "midi": 58,
      "hit": false,
      "t": 48505.40400000001,
      "d": 2100.837124999998,
      "v": 95
    },
    {
      "midi": 51,
      "hit": false,
      "t": 48505.40400000001,
      "d": 2107.4853437499987,
      "v": 97
    },
    {
      "midi": 42,
      "hit": false,
      "t": 48505.40400000001,
      "d": 2260.394374999996,
      "v": 78
    },
    {
      "midi": 61,
      "hit": false,
      "t": 51058.32000000001,
      "d": 2187.2639687499977,
      "v": 100
    },
    {
      "midi": 49,
      "hit": false,
      "t": 51058.32000000001,
      "d": 2240.4497187499946,
      "v": 97
    },
    {
      "midi": 56,
      "hit": false,
      "t": 51058.32000000001,
      "d": 2247.097937499995,
      "v": 91
    },
    {
      "midi": 53,
      "hit": false,
      "t": 51058.32000000001,
      "d": 2286.9872499999983,
      "v": 97
    },
    {
      "midi": 37,
      "hit": false,
      "t": 51058.32000000001,
      "d": 2306.93190625,
      "v": 89
    },
    {
      "midi": 61,
      "hit": false,
      "t": 51058.32000000001,
      "d": 2187.2639687499977,
      "v": 100
    },
    {
      "midi": 49,
      "hit": false,
      "t": 51058.32000000001,
      "d": 2240.4497187499946,
      "v": 97
    },
    {
      "midi": 56,
      "hit": false,
      "t": 51058.32000000001,
      "d": 2247.097937499995,
      "v": 91
    },
    {
      "midi": 53,
      "hit": false,
      "t": 51058.32000000001,
      "d": 2286.9872499999983,
      "v": 97
    },
    {
      "midi": 37,
      "hit": false,
      "t": 51058.32000000001,
      "d": 2306.93190625,
      "v": 89
    },
    {
      "midi": 56,
      "hit": false,
      "t": 53611.236000000004,
      "d": 2366.7658749999973,
      "v": 84
    },
    {
      "midi": 60,
      "hit": false,
      "t": 53611.236000000004,
      "d": 2400.00696875,
      "v": 89
    },
    {
      "midi": 44,
      "hit": false,
      "t": 53611.236000000004,
      "d": 2433.2480625000026,
      "v": 95
    },
    {
      "midi": 51,
      "hit": false,
      "t": 53611.236000000004,
      "d": 2446.5445000000036,
      "v": 91
    },
    {
      "midi": 56,
      "hit": false,
      "t": 53611.236000000004,
      "d": 2366.7658749999973,
      "v": 84
    },
    {
      "midi": 60,
      "hit": false,
      "t": 53611.236000000004,
      "d": 2400.00696875,
      "v": 89
    },
    {
      "midi": 44,
      "hit": false,
      "t": 53611.236000000004,
      "d": 2433.2480625000026,
      "v": 95
    },
    {
      "midi": 51,
      "hit": false,
      "t": 53611.236000000004,
      "d": 2446.5445000000036,
      "v": 91
    },
    {
      "midi": 43,
      "hit": false,
      "t": 56164.15200000001,
      "d": 2273.6908124999973,
      "v": 86
    },
    {
      "midi": 51,
      "hit": false,
      "t": 56164.15200000001,
      "d": 2273.6908124999973,
      "v": 91
    },
    {
      "midi": 55,
      "hit": false,
      "t": 56164.15200000001,
      "d": 2273.6908124999973,
      "v": 95
    },
    {
      "midi": 58,
      "hit": false,
      "t": 56164.15200000001,
      "d": 2280.339031249998,
      "v": 100
    },
    {
      "midi": 43,
      "hit": false,
      "t": 56164.15200000001,
      "d": 2273.6908124999973,
      "v": 86
    },
    {
      "midi": 51,
      "hit": false,
      "t": 56164.15200000001,
      "d": 2273.6908124999973,
      "v": 91
    },
    {
      "midi": 55,
      "hit": false,
      "t": 56164.15200000001,
      "d": 2273.6908124999973,
      "v": 95
    },
    {
      "midi": 58,
      "hit": false,
      "t": 56164.15200000001,
      "d": 2280.339031249998,
      "v": 100
    },
    {
      "midi": 54,
      "hit": false,
      "t": 58717.06800000001,
      "d": 2160.671093750003,
      "v": 97
    },
    {
      "midi": 58,
      "hit": false,
      "t": 58717.06800000001,
      "d": 2167.3193125000034,
      "v": 100
    },
    {
      "midi": 51,
      "hit": false,
      "t": 58717.06800000001,
      "d": 2180.6157500000045,
      "v": 97
    },
    {
      "midi": 42,
      "hit": false,
      "t": 58717.06800000001,
      "d": 2320.228343750001,
      "v": 91
    },
    {
      "midi": 54,
      "hit": false,
      "t": 58717.06800000001,
      "d": 2160.671093750003,
      "v": 97
    },
    {
      "midi": 58,
      "hit": false,
      "t": 58717.06800000001,
      "d": 2167.3193125000034,
      "v": 100
    },
    {
      "midi": 51,
      "hit": false,
      "t": 58717.06800000001,
      "d": 2180.6157500000045,
      "v": 97
    },
    {
      "midi": 42,
      "hit": false,
      "t": 58717.06800000001,
      "d": 2320.228343750001,
      "v": 91
    },
    {
      "midi": 61,
      "hit": false,
      "t": 61269.984000000004,
      "d": 2167.3193125000034,
      "v": 100
    },
    {
      "midi": 56,
      "hit": false,
      "t": 61269.984000000004,
      "d": 2180.6157500000045,
      "v": 93
    },
    {
      "midi": 53,
      "hit": false,
      "t": 61269.984000000004,
      "d": 2193.9121875000055,
      "v": 93
    },
    {
      "midi": 49,
      "hit": false,
      "t": 61269.984000000004,
      "d": 2213.856843750007,
      "v": 89
    },
    {
      "midi": 37,
      "hit": false,
      "t": 61269.984000000004,
      "d": 2220.5050625000076,
      "v": 74
    },
    {
      "midi": 61,
      "hit": false,
      "t": 61269.984000000004,
      "d": 2167.3193125000034,
      "v": 100
    },
    {
      "midi": 56,
      "hit": false,
      "t": 61269.984000000004,
      "d": 2180.6157500000045,
      "v": 93
    },
    {
      "midi": 53,
      "hit": false,
      "t": 61269.984000000004,
      "d": 2193.9121875000055,
      "v": 93
    },
    {
      "midi": 49,
      "hit": false,
      "t": 61269.984000000004,
      "d": 2213.856843750007,
      "v": 89
    },
    {
      "midi": 37,
      "hit": false,
      "t": 61269.984000000004,
      "d": 2220.5050625000076,
      "v": 74
    },
    {
      "midi": 56,
      "hit": false,
      "t": 74034.56400000001,
      "d": 2293.635468749999,
      "v": 82
    },
    {
      "midi": 53,
      "hit": false,
      "t": 74034.56400000001,
      "d": 2320.228343750001,
      "v": 93
    },
    {
      "midi": 61,
      "hit": false,
      "t": 74034.56400000001,
      "d": 2326.876562499994,
      "v": 95
    },
    {
      "midi": 49,
      "hit": false,
      "t": 74034.56400000001,
      "d": 2340.172999999995,
      "v": 93
    },
    {
      "midi": 37,
      "hit": false,
      "t": 74034.56400000001,
      "d": 2353.4694374999963,
      "v": 86
    },
    {
      "midi": 56,
      "hit": false,
      "t": 74034.56400000001,
      "d": 2293.635468749999,
      "v": 82
    },
    {
      "midi": 53,
      "hit": false,
      "t": 74034.56400000001,
      "d": 2320.228343750001,
      "v": 93
    },
    {
      "midi": 61,
      "hit": false,
      "t": 74034.56400000001,
      "d": 2326.876562499994,
      "v": 95
    },
    {
      "midi": 49,
      "hit": false,
      "t": 74034.56400000001,
      "d": 2340.172999999995,
      "v": 93
    },
    {
      "midi": 37,
      "hit": false,
      "t": 74034.56400000001,
      "d": 2353.4694374999963,
      "v": 86
    },
    {
      "midi": 37,
      "hit": false,
      "t": 76587.48000000001,
      "d": 2173.967531250004,
      "v": 93
    },
    {
      "midi": 56,
      "hit": false,
      "t": 76587.48000000001,
      "d": 2180.615749999997,
      "v": 91
    },
    {
      "midi": 61,
      "hit": false,
      "t": 76587.48000000001,
      "d": 2193.9121874999983,
      "v": 97
    },
    {
      "midi": 53,
      "hit": false,
      "t": 76587.48000000001,
      "d": 2220.5050625000003,
      "v": 100
    },
    {
      "midi": 49,
      "hit": false,
      "t": 76587.48000000001,
      "d": 2227.1532812499936,
      "v": 95
    },
    {
      "midi": 37,
      "hit": false,
      "t": 76587.48000000001,
      "d": 2173.967531250004,
      "v": 93
    },
    {
      "midi": 56,
      "hit": false,
      "t": 76587.48000000001,
      "d": 2180.615749999997,
      "v": 91
    },
    {
      "midi": 61,
      "hit": false,
      "t": 76587.48000000001,
      "d": 2193.9121874999983,
      "v": 97
    },
    {
      "midi": 53,
      "hit": false,
      "t": 76587.48000000001,
      "d": 2220.5050625000003,
      "v": 100
    },
    {
      "midi": 49,
      "hit": false,
      "t": 76587.48000000001,
      "d": 2227.1532812499936,
      "v": 95
    },
    {
      "midi": 44,
      "hit": false,
      "t": 79140.39600000001,
      "d": 2253.7461562499957,
      "v": 93
    },
    {
      "midi": 56,
      "hit": false,
      "t": 79140.39600000001,
      "d": 2253.7461562499957,
      "v": 89
    },
    {
      "midi": 51,
      "hit": false,
      "t": 79140.39600000001,
      "d": 2267.0425937499967,
      "v": 100
    },
    {
      "midi": 60,
      "hit": false,
      "t": 79140.39600000001,
      "d": 2267.0425937499967,
      "v": 89
    },
    {
      "midi": 44,
      "hit": false,
      "t": 79140.39600000001,
      "d": 2253.7461562499957,
      "v": 93
    },
    {
      "midi": 56,
      "hit": false,
      "t": 79140.39600000001,
      "d": 2253.7461562499957,
      "v": 89
    },
    {
      "midi": 51,
      "hit": false,
      "t": 79140.39600000001,
      "d": 2267.0425937499967,
      "v": 100
    },
    {
      "midi": 60,
      "hit": false,
      "t": 79140.39600000001,
      "d": 2267.0425937499967,
      "v": 89
    },
    {
      "midi": 56,
      "hit": false,
      "t": 84246.228,
      "d": 2340.172999999995,
      "v": 91
    },
    {
      "midi": 60,
      "hit": false,
      "t": 84246.228,
      "d": 2380.0623124999984,
      "v": 91
    },
    {
      "midi": 51,
      "hit": false,
      "t": 84246.228,
      "d": 2466.489156249998,
      "v": 95
    },
    {
      "midi": 44,
      "hit": false,
      "t": 84246.228,
      "d": 2493.08203125,
      "v": 97
    },
    {
      "midi": 56,
      "hit": false,
      "t": 84246.228,
      "d": 2340.172999999995,
      "v": 91
    },
    {
      "midi": 60,
      "hit": false,
      "t": 84246.228,
      "d": 2380.0623124999984,
      "v": 91
    },
    {
      "midi": 51,
      "hit": false,
      "t": 84246.228,
      "d": 2466.489156249998,
      "v": 95
    },
    {
      "midi": 44,
      "hit": false,
      "t": 84246.228,
      "d": 2493.08203125,
      "v": 97
    },
    {
      "midi": 43,
      "hit": false,
      "t": 86799.144,
      "d": 2353.4694374999963,
      "v": 84
    },
    {
      "midi": 58,
      "hit": false,
      "t": 86799.144,
      "d": 2353.4694374999963,
      "v": 100
    },
    {
      "midi": 51,
      "hit": false,
      "t": 86799.144,
      "d": 2360.1176562499895,
      "v": 93
    },
    {
      "midi": 55,
      "hit": false,
      "t": 86799.144,
      "d": 2360.1176562499895,
      "v": 95
    },
    {
      "midi": 43,
      "hit": false,
      "t": 86799.144,
      "d": 2353.4694374999963,
      "v": 84
    },
    {
      "midi": 58,
      "hit": false,
      "t": 86799.144,
      "d": 2353.4694374999963,
      "v": 100
    },
    {
      "midi": 51,
      "hit": false,
      "t": 86799.144,
      "d": 2360.1176562499895,
      "v": 93
    },
    {
      "midi": 55,
      "hit": false,
      "t": 86799.144,
      "d": 2360.1176562499895,
      "v": 95
    },
    {
      "midi": 54,
      "hit": false,
      "t": 89352.05999999998,
      "d": 2094.1889062499977,
      "v": 97
    },
    {
      "midi": 58,
      "hit": false,
      "t": 89352.05999999998,
      "d": 2100.837124999991,
      "v": 95
    },
    {
      "midi": 51,
      "hit": false,
      "t": 89352.05999999998,
      "d": 2107.485343749984,
      "v": 97
    },
    {
      "midi": 42,
      "hit": false,
      "t": 89352.05999999998,
      "d": 2260.394374999989,
      "v": 78
    },
    {
      "midi": 54,
      "hit": false,
      "t": 89352.05999999998,
      "d": 2094.1889062499977,
      "v": 97
    },
    {
      "midi": 58,
      "hit": false,
      "t": 89352.05999999998,
      "d": 2100.837124999991,
      "v": 95
    },
    {
      "midi": 51,
      "hit": false,
      "t": 89352.05999999998,
      "d": 2107.485343749984,
      "v": 97
    },
    {
      "midi": 42,
      "hit": false,
      "t": 89352.05999999998,
      "d": 2260.394374999989,
      "v": 78
    },
    {
      "midi": 61,
      "hit": false,
      "t": 91904.97599999997,
      "d": 2187.263968750005,
      "v": 100
    },
    {
      "midi": 49,
      "hit": false,
      "t": 91904.97599999997,
      "d": 2240.449718750009,
      "v": 97
    },
    {
      "midi": 56,
      "hit": false,
      "t": 91904.97599999997,
      "d": 2247.0979375000024,
      "v": 91
    },
    {
      "midi": 53,
      "hit": false,
      "t": 91904.97599999997,
      "d": 2286.9872500000056,
      "v": 97
    },
    {
      "midi": 37,
      "hit": false,
      "t": 91904.97599999997,
      "d": 2306.93190625,
      "v": 89
    },
    {
      "midi": 61,
      "hit": false,
      "t": 91904.97599999997,
      "d": 2187.263968750005,
      "v": 100
    },
    {
      "midi": 49,
      "hit": false,
      "t": 91904.97599999997,
      "d": 2240.449718750009,
      "v": 97
    },
    {
      "midi": 56,
      "hit": false,
      "t": 91904.97599999997,
      "d": 2247.0979375000024,
      "v": 91
    },
    {
      "midi": 53,
      "hit": false,
      "t": 91904.97599999997,
      "d": 2286.9872500000056,
      "v": 97
    },
    {
      "midi": 37,
      "hit": false,
      "t": 91904.97599999997,
      "d": 2306.93190625,
      "v": 89
    },
    {
      "midi": 56,
      "hit": false,
      "t": 94457.89199999996,
      "d": 2366.7658749999973,
      "v": 84
    },
    {
      "midi": 60,
      "hit": false,
      "t": 94457.89199999996,
      "d": 2400.0069687499927,
      "v": 89
    },
    {
      "midi": 44,
      "hit": false,
      "t": 94457.89199999996,
      "d": 2433.248062499988,
      "v": 95
    },
    {
      "midi": 51,
      "hit": false,
      "t": 94457.89199999996,
      "d": 2446.544499999989,
      "v": 91
    },
    {
      "midi": 56,
      "hit": false,
      "t": 94457.89199999996,
      "d": 2366.7658749999973,
      "v": 84
    },
    {
      "midi": 60,
      "hit": false,
      "t": 94457.89199999996,
      "d": 2400.0069687499927,
      "v": 89
    },
    {
      "midi": 44,
      "hit": false,
      "t": 94457.89199999996,
      "d": 2433.248062499988,
      "v": 95
    },
    {
      "midi": 51,
      "hit": false,
      "t": 94457.89199999996,
      "d": 2446.544499999989,
      "v": 91
    },
    {
      "midi": 43,
      "hit": false,
      "t": 97010.80799999995,
      "d": 2273.6908125000045,
      "v": 86
    },
    {
      "midi": 51,
      "hit": false,
      "t": 97010.80799999995,
      "d": 2273.6908125000045,
      "v": 91
    },
    {
      "midi": 55,
      "hit": false,
      "t": 97010.80799999995,
      "d": 2273.6908125000045,
      "v": 95
    },
    {
      "midi": 58,
      "hit": false,
      "t": 97010.80799999995,
      "d": 2280.339031249998,
      "v": 100
    },
    {
      "midi": 43,
      "hit": false,
      "t": 97010.80799999995,
      "d": 2273.6908125000045,
      "v": 86
    },
    {
      "midi": 51,
      "hit": false,
      "t": 97010.80799999995,
      "d": 2273.6908125000045,
      "v": 91
    },
    {
      "midi": 55,
      "hit": false,
      "t": 97010.80799999995,
      "d": 2273.6908125000045,
      "v": 95
    },
    {
      "midi": 58,
      "hit": false,
      "t": 97010.80799999995,
      "d": 2280.339031249998,
      "v": 100
    },
    {
      "midi": 54,
      "hit": false,
      "t": 99563.72399999994,
      "d": 2160.671093750003,
      "v": 97
    },
    {
      "midi": 58,
      "hit": false,
      "t": 99563.72399999994,
      "d": 2167.319312499996,
      "v": 100
    },
    {
      "midi": 51,
      "hit": false,
      "t": 99563.72399999994,
      "d": 2180.615749999997,
      "v": 97
    },
    {
      "midi": 42,
      "hit": false,
      "t": 99563.72399999994,
      "d": 2320.228343750001,
      "v": 91
    },
    {
      "midi": 54,
      "hit": false,
      "t": 99563.72399999994,
      "d": 2160.671093750003,
      "v": 97
    },
    {
      "midi": 58,
      "hit": false,
      "t": 99563.72399999994,
      "d": 2167.319312499996,
      "v": 100
    },
    {
      "midi": 51,
      "hit": false,
      "t": 99563.72399999994,
      "d": 2180.615749999997,
      "v": 97
    },
    {
      "midi": 42,
      "hit": false,
      "t": 99563.72399999994,
      "d": 2320.228343750001,
      "v": 91
    },
    {
      "midi": 37,
      "hit": false,
      "t": 102116.63999999994,
      "d": 1462.6081249999988,
      "v": 89
    },
    {
      "midi": 53,
      "hit": false,
      "t": 102116.63999999994,
      "d": 1475.9045624999999,
      "v": 91
    },
    {
      "midi": 56,
      "hit": false,
      "t": 102116.63999999994,
      "d": 1489.201000000001,
      "v": 84
    },
    {
      "midi": 61,
      "hit": false,
      "t": 102116.63999999994,
      "d": 1489.201000000001,
      "v": 100
    },
    {
      "midi": 49,
      "hit": false,
      "t": 102116.63999999994,
      "d": 1495.8492187499942,
      "v": 91
    },
    {
      "midi": 37,
      "hit": false,
      "t": 102116.63999999994,
      "d": 1462.6081249999988,
      "v": 89
    },
    {
      "midi": 53,
      "hit": false,
      "t": 102116.63999999994,
      "d": 1475.9045624999999,
      "v": 91
    },
    {
      "midi": 56,
      "hit": false,
      "t": 102116.63999999994,
      "d": 1489.201000000001,
      "v": 84
    },
    {
      "midi": 61,
      "hit": false,
      "t": 102116.63999999994,
      "d": 1489.201000000001,
      "v": 100
    },
    {
      "midi": 49,
      "hit": false,
      "t": 102116.63999999994,
      "d": 1495.8492187499942,
      "v": 91
    },
    {
      "midi": 72,
      "hit": false,
      "t": 135304.54799999992,
      "d": 199.44656250000116,
      "v": 108
    },
    {
      "midi": 72,
      "hit": false,
      "t": 135304.54799999992,
      "d": 199.44656250000116,
      "v": 108
    },
    {
      "midi": 68,
      "hit": false,
      "t": 135464.10524999994,
      "d": 139.61259374997462,
      "v": 95
    },
    {
      "midi": 68,
      "hit": false,
      "t": 135464.10524999994,
      "d": 139.61259374997462,
      "v": 95
    },
    {
      "midi": 65,
      "hit": false,
      "t": 135623.66249999992,
      "d": 172.85368749999907,
      "v": 104
    },
    {
      "midi": 65,
      "hit": false,
      "t": 135623.66249999992,
      "d": 172.85368749999907,
      "v": 104
    },
    {
      "midi": 72,
      "hit": false,
      "t": 135783.21974999993,
      "d": 352.3555937499914,
      "v": 115
    },
    {
      "midi": 72,
      "hit": false,
      "t": 135783.21974999993,
      "d": 352.3555937499914,
      "v": 115
    },
    {
      "midi": 68,
      "hit": false,
      "t": 136102.33424999993,
      "d": 279.22518750000745,
      "v": 100
    },
    {
      "midi": 68,
      "hit": false,
      "t": 136102.33424999993,
      "d": 279.22518750000745,
      "v": 100
    },
    {
      "midi": 65,
      "hit": false,
      "t": 136421.44874999992,
      "d": 179.50190625002142,
      "v": 104
    },
    {
      "midi": 65,
      "hit": false,
      "t": 136421.44874999992,
      "d": 179.50190625002142,
      "v": 104
    },
    {
      "midi": 72,
      "hit": false,
      "t": 136581.00599999994,
      "d": 232.6876562500256,
      "v": 106
    },
    {
      "midi": 72,
      "hit": false,
      "t": 136581.00599999994,
      "d": 232.6876562500256,
      "v": 106
    },
    {
      "midi": 68,
      "hit": false,
      "t": 136740.56324999995,
      "d": 126.31615625001723,
      "v": 91
    },
    {
      "midi": 68,
      "hit": false,
      "t": 136740.56324999995,
      "d": 126.31615625001723,
      "v": 91
    },
    {
      "midi": 65,
      "hit": false,
      "t": 136900.12049999996,
      "d": 206.09478125002352,
      "v": 102
    },
    {
      "midi": 65,
      "hit": false,
      "t": 136900.12049999996,
      "d": 206.09478125002352,
      "v": 102
    },
    {
      "midi": 72,
      "hit": false,
      "t": 137059.67774999997,
      "d": 385.59668750001583,
      "v": 115
    },
    {
      "midi": 72,
      "hit": false,
      "t": 137059.67774999997,
      "d": 385.59668750001583,
      "v": 115
    },
    {
      "midi": 68,
      "hit": false,
      "t": 137378.79225,
      "d": 319.11449999999604,
      "v": 91
    },
    {
      "midi": 68,
      "hit": false,
      "t": 137378.79225,
      "d": 319.11449999999604,
      "v": 91
    },
    {
      "midi": 65,
      "hit": false,
      "t": 137697.90675,
      "d": 166.20546875000582,
      "v": 104
    },
    {
      "midi": 65,
      "hit": false,
      "t": 137697.90675,
      "d": 166.20546875000582,
      "v": 104
    },
    {
      "midi": 70,
      "hit": false,
      "t": 137857.464,
      "d": 265.92874999999185,
      "v": 106
    },
    {
      "midi": 70,
      "hit": false,
      "t": 137857.464,
      "d": 265.92874999999185,
      "v": 106
    },
    {
      "midi": 67,
      "hit": false,
      "t": 138017.02125,
      "d": 179.50190625002142,
      "v": 77
    },
    {
      "midi": 67,
      "hit": false,
      "t": 138017.02125,
      "d": 179.50190625002142,
      "v": 77
    },
    {
      "midi": 63,
      "hit": false,
      "t": 138176.5785,
      "d": 212.74300000001676,
      "v": 97
    },
    {
      "midi": 63,
      "hit": false,
      "t": 138176.5785,
      "d": 212.74300000001676,
      "v": 97
    },
    {
      "midi": 70,
      "hit": false,
      "t": 138336.13575000002,
      "d": 405.5413437499956,
      "v": 108
    },
    {
      "midi": 70,
      "hit": false,
      "t": 138336.13575000002,
      "d": 405.5413437499956,
      "v": 108
    },
    {
      "midi": 67,
      "hit": false,
      "t": 138655.25025,
      "d": 285.8734062500007,
      "v": 88
    },
    {
      "midi": 67,
      "hit": false,
      "t": 138655.25025,
      "d": 285.8734062500007,
      "v": 88
    },
    {
      "midi": 63,
      "hit": false,
      "t": 138974.36475,
      "d": 186.15012500001467,
      "v": 102
    },
    {
      "midi": 63,
      "hit": false,
      "t": 138974.36475,
      "d": 186.15012500001467,
      "v": 102
    },
    {
      "midi": 70,
      "hit": false,
      "t": 139133.92200000002,
      "d": 232.6876562500256,
      "v": 106
    },
    {
      "midi": 70,
      "hit": false,
      "t": 139133.92200000002,
      "d": 232.6876562500256,
      "v": 106
    },
    {
      "midi": 67,
      "hit": false,
      "t": 139293.47925000003,
      "d": 166.20546875000582,
      "v": 88
    },
    {
      "midi": 67,
      "hit": false,
      "t": 139293.47925000003,
      "d": 166.20546875000582,
      "v": 88
    },
    {
      "midi": 63,
      "hit": false,
      "t": 139453.03650000005,
      "d": 232.6876562499965,
      "v": 108
    },
    {
      "midi": 63,
      "hit": false,
      "t": 139453.03650000005,
      "d": 232.6876562499965,
      "v": 108
    },
    {
      "midi": 70,
      "hit": false,
      "t": 139612.59375000003,
      "d": 345.70737500002724,
      "v": 108
    },
    {
      "midi": 70,
      "hit": false,
      "t": 139612.59375000003,
      "d": 345.70737500002724,
      "v": 108
    },
    {
      "midi": 67,
      "hit": false,
      "t": 139931.70825000005,
      "d": 372.30025000000023,
      "v": 79
    },
    {
      "midi": 67,
      "hit": false,
      "t": 139931.70825000005,
      "d": 372.30025000000023,
      "v": 79
    },
    {
      "midi": 63,
      "hit": false,
      "t": 140250.82275000005,
      "d": 186.15012500001467,
      "v": 104
    },
    {
      "midi": 63,
      "hit": false,
      "t": 140250.82275000005,
      "d": 186.15012500001467,
      "v": 104
    },
    {
      "midi": 72,
      "hit": false,
      "t": 140410.38000000006,
      "d": 206.09478125002352,
      "v": 95
    },
    {
      "midi": 72,
      "hit": false,
      "t": 140410.38000000006,
      "d": 206.09478125002352,
      "v": 95
    },
    {
      "midi": 68,
      "hit": false,
      "t": 140569.93725000008,
      "d": 219.39121875001,
      "v": 106
    },
    {
      "midi": 68,
      "hit": false,
      "t": 140569.93725000008,
      "d": 219.39121875001,
      "v": 106
    },
    {
      "midi": 65,
      "hit": false,
      "t": 140729.4945000001,
      "d": 192.7983437499788,
      "v": 104
    },
    {
      "midi": 65,
      "hit": false,
      "t": 140729.4945000001,
      "d": 192.7983437499788,
      "v": 104
    },
    {
      "midi": 72,
      "hit": false,
      "t": 140889.05175000007,
      "d": 312.4662812500028,
      "v": 104
    },
    {
      "midi": 72,
      "hit": false,
      "t": 140889.05175000007,
      "d": 312.4662812500028,
      "v": 104
    },
    {
      "midi": 68,
      "hit": false,
      "t": 141208.16625000007,
      "d": 319.11449999999604,
      "v": 95
    },
    {
      "midi": 68,
      "hit": false,
      "t": 141208.16625000007,
      "d": 319.11449999999604,
      "v": 95
    },
    {
      "midi": 65,
      "hit": false,
      "t": 141527.28075000006,
      "d": 179.50190625002142,
      "v": 104
    },
    {
      "midi": 65,
      "hit": false,
      "t": 141527.28075000006,
      "d": 179.50190625002142,
      "v": 104
    },
    {
      "midi": 72,
      "hit": false,
      "t": 141686.83800000008,
      "d": 219.39121875001,
      "v": 100
    },
    {
      "midi": 72,
      "hit": false,
      "t": 141686.83800000008,
      "d": 219.39121875001,
      "v": 100
    },
    {
      "midi": 68,
      "hit": false,
      "t": 141846.3952500001,
      "d": 172.85368749996996,
      "v": 104
    },
    {
      "midi": 68,
      "hit": false,
      "t": 141846.3952500001,
      "d": 172.85368749996996,
      "v": 104
    },
    {
      "midi": 65,
      "hit": false,
      "t": 142005.95250000007,
      "d": 226.03943749997416,
      "v": 104
    },
    {
      "midi": 65,
      "hit": false,
      "t": 142005.95250000007,
      "d": 226.03943749997416,
      "v": 104
    },
    {
      "midi": 72,
      "hit": false,
      "t": 142165.50975000006,
      "d": 378.9484687499935,
      "v": 108
    },
    {
      "midi": 72,
      "hit": false,
      "t": 142165.50975000006,
      "d": 378.9484687499935,
      "v": 108
    },
    {
      "midi": 68,
      "hit": false,
      "t": 142484.62425000005,
      "d": 305.81806250000955,
      "v": 84
    },
    {
      "midi": 68,
      "hit": false,
      "t": 142484.62425000005,
      "d": 305.81806250000955,
      "v": 84
    },
    {
      "midi": 65,
      "hit": false,
      "t": 142803.73875000005,
      "d": 179.50190625002142,
      "v": 100
    },
    {
      "midi": 65,
      "hit": false,
      "t": 142803.73875000005,
      "d": 179.50190625002142,
      "v": 100
    },
    {
      "midi": 70,
      "hit": false,
      "t": 142963.29600000006,
      "d": 219.39121875001,
      "v": 89
    },
    {
      "midi": 70,
      "hit": false,
      "t": 142963.29600000006,
      "d": 219.39121875001,
      "v": 89
    },
    {
      "midi": 67,
      "hit": false,
      "t": 143122.85325000007,
      "d": 199.44656249997206,
      "v": 79
    },
    {
      "midi": 67,
      "hit": false,
      "t": 143122.85325000007,
      "d": 199.44656249997206,
      "v": 79
    },
    {
      "midi": 63,
      "hit": false,
      "t": 143282.41050000006,
      "d": 226.03943749997416,
      "v": 100
    },
    {
      "midi": 63,
      "hit": false,
      "t": 143282.41050000006,
      "d": 226.03943749997416,
      "v": 100
    },
    {
      "midi": 70,
      "hit": false,
      "t": 143441.96775000004,
      "d": 352.3555937499914,
      "v": 106
    },
    {
      "midi": 70,
      "hit": false,
      "t": 143441.96775000004,
      "d": 352.3555937499914,
      "v": 106
    },
    {
      "midi": 67,
      "hit": false,
      "t": 143761.08225000004,
      "d": 299.1698437499872,
      "v": 103
    },
    {
      "midi": 67,
      "hit": false,
      "t": 143761.08225000004,
      "d": 299.1698437499872,
      "v": 103
    },
    {
      "midi": 63,
      "hit": false,
      "t": 144080.19675000003,
      "d": 212.74300000001676,
      "v": 102
    },
    {
      "midi": 63,
      "hit": false,
      "t": 144080.19675000003,
      "d": 212.74300000001676,
      "v": 102
    },
    {
      "midi": 70,
      "hit": false,
      "t": 144239.75400000004,
      "d": 226.03943750000326,
      "v": 106
    },
    {
      "midi": 70,
      "hit": false,
      "t": 144239.75400000004,
      "d": 226.03943750000326,
      "v": 106
    },
    {
      "midi": 67,
      "hit": false,
      "t": 144399.31125000006,
      "d": 172.85368749996996,
      "v": 93
    },
    {
      "midi": 67,
      "hit": false,
      "t": 144399.31125000006,
      "d": 172.85368749996996,
      "v": 93
    },
    {
      "midi": 63,
      "hit": false,
      "t": 144558.86850000004,
      "d": 226.03943749997416,
      "v": 108
    },
    {
      "midi": 63,
      "hit": false,
      "t": 144558.86850000004,
      "d": 226.03943749997416,
      "v": 108
    },
    {
      "midi": 70,
      "hit": false,
      "t": 144718.42575000002,
      "d": 339.0591562500049,
      "v": 108
    },
    {
      "midi": 70,
      "hit": false,
      "t": 144718.42575000002,
      "d": 339.0591562500049,
      "v": 108
    },
    {
      "midi": 67,
      "hit": false,
      "t": 145037.54025000002,
      "d": 299.1698437500163,
      "v": 103
    },
    {
      "midi": 67,
      "hit": false,
      "t": 145037.54025000002,
      "d": 299.1698437500163,
      "v": 103
    },
    {
      "midi": 63,
      "hit": false,
      "t": 145356.65475000005,
      "d": 232.6876562499965,
      "v": 108
    },
    {
      "midi": 63,
      "hit": false,
      "t": 145356.65475000005,
      "d": 232.6876562499965,
      "v": 108
    },
    {
      "midi": 56,
      "hit": false,
      "t": 155727.87600000005,
      "d": 2160.6710937499884,
      "v": 100
    },
    {
      "midi": 60,
      "hit": false,
      "t": 155727.87600000005,
      "d": 2160.6710937499884,
      "v": 97
    },
    {
      "midi": 51,
      "hit": false,
      "t": 155727.87600000005,
      "d": 2360.1176562499895,
      "v": 100
    },
    {
      "midi": 44,
      "hit": false,
      "t": 155727.87600000005,
      "d": 2426.59984374998,
      "v": 95
    },
    {
      "midi": 56,
      "hit": false,
      "t": 155727.87600000005,
      "d": 2160.6710937499884,
      "v": 100
    },
    {
      "midi": 60,
      "hit": false,
      "t": 155727.87600000005,
      "d": 2160.6710937499884,
      "v": 97
    },
    {
      "midi": 51,
      "hit": false,
      "t": 155727.87600000005,
      "d": 2360.1176562499895,
      "v": 100
    },
    {
      "midi": 44,
      "hit": false,
      "t": 155727.87600000005,
      "d": 2426.59984374998,
      "v": 95
    },
    {
      "midi": 63,
      "hit": false,
      "t": 158280.79200000002,
      "d": 1901.3905624999898,
      "v": 102
    },
    {
      "midi": 58,
      "hit": false,
      "t": 158280.79200000002,
      "d": 1947.9280937500007,
      "v": 100
    },
    {
      "midi": 55,
      "hit": false,
      "t": 158280.79200000002,
      "d": 1967.8727500000095,
      "v": 93
    },
    {
      "midi": 43,
      "hit": false,
      "t": 158280.79200000002,
      "d": 2060.9478125000023,
      "v": 98
    },
    {
      "midi": 51,
      "hit": false,
      "t": 158280.79200000002,
      "d": 2080.892468750011,
      "v": 91
    },
    {
      "midi": 63,
      "hit": false,
      "t": 158280.79200000002,
      "d": 1901.3905624999898,
      "v": 102
    },
    {
      "midi": 58,
      "hit": false,
      "t": 158280.79200000002,
      "d": 1947.9280937500007,
      "v": 100
    },
    {
      "midi": 55,
      "hit": false,
      "t": 158280.79200000002,
      "d": 1967.8727500000095,
      "v": 93
    },
    {
      "midi": 43,
      "hit": false,
      "t": 158280.79200000002,
      "d": 2060.9478125000023,
      "v": 98
    },
    {
      "midi": 51,
      "hit": false,
      "t": 158280.79200000002,
      "d": 2080.892468750011,
      "v": 91
    },
    {
      "midi": 58,
      "hit": false,
      "t": 160833.708,
      "d": 2094.1889062499977,
      "v": 95
    },
    {
      "midi": 54,
      "hit": false,
      "t": 160833.708,
      "d": 2114.1335625000065,
      "v": 97
    },
    {
      "midi": 61,
      "hit": false,
      "t": 160833.708,
      "d": 2127.429999999993,
      "v": 95
    },
    {
      "midi": 51,
      "hit": false,
      "t": 160833.708,
      "d": 2147.374656250002,
      "v": 100
    },
    {
      "midi": 39,
      "hit": false,
      "t": 160833.708,
      "d": 2306.9319062500144,
      "v": 82
    },
    {
      "midi": 58,
      "hit": false,
      "t": 160833.708,
      "d": 2094.1889062499977,
      "v": 95
    },
    {
      "midi": 54,
      "hit": false,
      "t": 160833.708,
      "d": 2114.1335625000065,
      "v": 97
    },
    {
      "midi": 61,
      "hit": false,
      "t": 160833.708,
      "d": 2127.429999999993,
      "v": 95
    },
    {
      "midi": 51,
      "hit": false,
      "t": 160833.708,
      "d": 2147.374656250002,
      "v": 100
    },
    {
      "midi": 39,
      "hit": false,
      "t": 160833.708,
      "d": 2306.9319062500144,
      "v": 82
    },
    {
      "midi": 56,
      "hit": false,
      "t": 163386.62400000004,
      "d": 1269.809781249991,
      "v": 84
    },
    {
      "midi": 53,
      "hit": false,
      "t": 163386.62400000004,
      "d": 1276.4579999999842,
      "v": 93
    },
    {
      "midi": 37,
      "hit": false,
      "t": 163386.62400000004,
      "d": 1283.1062187499774,
      "v": 89
    },
    {
      "midi": 61,
      "hit": false,
      "t": 163386.62400000004,
      "d": 1283.1062187499774,
      "v": 97
    },
    {
      "midi": 49,
      "hit": false,
      "t": 163386.62400000004,
      "d": 1296.402656249964,
      "v": 93
    },
    {
      "midi": 56,
      "hit": false,
      "t": 163386.62400000004,
      "d": 1269.809781249991,
      "v": 84
    },
    {
      "midi": 53,
      "hit": false,
      "t": 163386.62400000004,
      "d": 1276.4579999999842,
      "v": 93
    },
    {
      "midi": 37,
      "hit": false,
      "t": 163386.62400000004,
      "d": 1283.1062187499774,
      "v": 89
    },
    {
      "midi": 61,
      "hit": false,
      "t": 163386.62400000004,
      "d": 1283.1062187499774,
      "v": 97
    },
    {
      "midi": 49,
      "hit": false,
      "t": 163386.62400000004,
      "d": 1296.402656249964,
      "v": 93
    }
  ]
}