{
  "jsonPath": "Rock/Blues Rock/Alvin Lee/i-want-you-shes-so-heavy.json",
  "path": "Rock\\Blues Rock\\Alvin Lee\\I Want You (Shes So Heavy).mid",
  "name": "I Want You (Shes So Heavy)",
  "difficulty": "Advanced",
  "bpm": 120,
  "notes": [
    {
      "midi": 62,
      "hit": false,
      "t": 3310.344,
      "d": 2182.7580750000006,
      "v": 53
    },
    {
      "midi": 57,
      "hit": false,
      "t": 3310.344,
      "d": 2382.758025,
      "v": 53
    },
    {
      "midi": 53,
      "hit": false,
      "t": 3310.344,
      "d": 2406.89595,
      "v": 53
    },
    {
      "midi": 62,
      "hit": false,
      "t": 5655.171,
      "d": 148.2758249999997,
      "v": 66
    },
    {
      "midi": 57,
      "hit": false,
      "t": 5793.102,
      "d": 2334.482175,
      "v": 53
    },
    {
      "midi": 53,
      "hit": false,
      "t": 5793.102,
      "d": 2355.1718250000004,
      "v": 53
    },
    {
      "midi": 60,
      "hit": false,
      "t": 5793.102,
      "d": 2362.0683750000007,
      "v": 53
    },
    {
      "midi": 65,
      "hit": false,
      "t": 5793.102,
      "d": 2365.5166500000005,
      "v": 58
    },
    {
      "midi": 69,
      "hit": false,
      "t": 7034.481,
      "d": 393.1033500000003,
      "v": 66
    },
    {
      "midi": 74,
      "hit": false,
      "t": 7437.929175,
      "d": 472.4136749999998,
      "v": 73
    },
    {
      "midi": 72,
      "hit": false,
      "t": 7875.8601,
      "d": 417.2412750000003,
      "v": 74
    },
    {
      "midi": 59,
      "hit": false,
      "t": 8275.86,
      "d": 2403.4476750000013,
      "v": 53
    },
    {
      "midi": 52,
      "hit": false,
      "t": 8275.86,
      "d": 2420.689050000001,
      "v": 53
    },
    {
      "midi": 56,
      "hit": false,
      "t": 8275.86,
      "d": 2431.033875000001,
      "v": 53
    },
    {
      "midi": 71,
      "hit": false,
      "t": 8282.75655,
      "d": 1948.275375000001,
      "v": 65
    },
    {
      "midi": 74,
      "hit": false,
      "t": 9927.583725,
      "d": 437.93092500000057,
      "v": 62
    },
    {
      "midi": 71,
      "hit": false,
      "t": 10348.273275000001,
      "d": 362.06887500000084,
      "v": 66
    },
    {
      "midi": 62,
      "hit": false,
      "t": 10758.618000000002,
      "d": 2427.5856000000003,
      "v": 53
    },
    {
      "midi": 56,
      "hit": false,
      "t": 10758.618000000002,
      "d": 2441.378700000001,
      "v": 53
    },
    {
      "midi": 58,
      "hit": false,
      "t": 10758.618000000002,
      "d": 2441.378700000001,
      "v": 53
    },
    {
      "midi": 53,
      "hit": false,
      "t": 10758.618000000002,
      "d": 2455.171800000002,
      "v": 53
    },
    {
      "midi": 82,
      "hit": false,
      "t": 10762.066275000003,
      "d": 2175.8615250000003,
      "v": 69
    },
    {
      "midi": 69,
      "hit": false,
      "t": 13241.376000000004,
      "d": 444.82747500000005,
      "v": 73
    },
    {
      "midi": 53,
      "hit": false,
      "t": 13241.376000000004,
      "d": 2455.171800000002,
      "v": 53
    },
    {
      "midi": 57,
      "hit": false,
      "t": 13241.376000000004,
      "d": 3451.7232750000003,
      "v": 53
    },
    {
      "midi": 61,
      "hit": false,
      "t": 13241.376000000004,
      "d": 4899.998775,
      "v": 53
    },
    {
      "midi": 73,
      "hit": false,
      "t": 13665.513825000004,
      "d": 448.2757500000007,
      "v": 63
    },
    {
      "midi": 69,
      "hit": false,
      "t": 14062.065450000004,
      "d": 341.3792250000006,
      "v": 78
    },
    {
      "midi": 69,
      "hit": false,
      "t": 14482.755000000005,
      "d": 3675.8611500000006,
      "v": 65
    },
    {
      "midi": 81,
      "hit": false,
      "t": 14486.203275000005,
      "d": 3693.1025250000002,
      "v": 57
    },
    {
      "midi": 60,
      "hit": false,
      "t": 19034.478000000006,
      "d": 72.4137750000009,
      "v": 64
    },
    {
      "midi": 62,
      "hit": false,
      "t": 19034.478000000006,
      "d": 82.75860000000102,
      "v": 64
    },
    {
      "midi": 57,
      "hit": false,
      "t": 19034.478000000006,
      "d": 86.20687499999985,
      "v": 64
    },
    {
      "midi": 57,
      "hit": false,
      "t": 19241.374500000005,
      "d": 75.86204999999973,
      "v": 66
    },
    {
      "midi": 60,
      "hit": false,
      "t": 19241.374500000005,
      "d": 99.99997499999881,
      "v": 56
    },
    {
      "midi": 62,
      "hit": false,
      "t": 19241.374500000005,
      "d": 110.34479999999894,
      "v": 59
    },
    {
      "midi": 60,
      "hit": false,
      "t": 19448.271000000004,
      "d": 99.99997499999881,
      "v": 47
    },
    {
      "midi": 62,
      "hit": false,
      "t": 19448.271000000004,
      "d": 106.89652500000011,
      "v": 58
    },
    {
      "midi": 57,
      "hit": false,
      "t": 19448.271000000004,
      "d": 141.37927499999932,
      "v": 63
    },
    {
      "midi": 60,
      "hit": false,
      "t": 23172.408000000003,
      "d": 79.31032499999856,
      "v": 63
    },
    {
      "midi": 62,
      "hit": false,
      "t": 23172.408000000003,
      "d": 96.55169999999998,
      "v": 63
    },
    {
      "midi": 57,
      "hit": false,
      "t": 23172.408000000003,
      "d": 99.99997499999881,
      "v": 63
    },
    {
      "midi": 60,
      "hit": false,
      "t": 23379.304500000002,
      "d": 75.86204999999973,
      "v": 65
    },
    {
      "midi": 57,
      "hit": false,
      "t": 23379.304500000002,
      "d": 79.31032499999856,
      "v": 65
    },
    {
      "midi": 62,
      "hit": false,
      "t": 23379.304500000002,
      "d": 79.31032499999856,
      "v": 65
    },
    {
      "midi": 57,
      "hit": false,
      "t": 23586.201,
      "d": 103.44825000000128,
      "v": 55
    },
    {
      "midi": 62,
      "hit": false,
      "t": 23586.201,
      "d": 117.24135000000024,
      "v": 55
    },
    {
      "midi": 60,
      "hit": false,
      "t": 23586.201,
      "d": 120.68962499999907,
      "v": 55
    },
    {
      "midi": 60,
      "hit": false,
      "t": 23793.0975,
      "d": 106.89652500000011,
      "v": 62
    },
    {
      "midi": 62,
      "hit": false,
      "t": 23793.0975,
      "d": 106.89652500000011,
      "v": 62
    },
    {
      "midi": 57,
      "hit": false,
      "t": 23793.0975,
      "d": 127.58617500000037,
      "v": 62
    },
    {
      "midi": 60,
      "hit": false,
      "t": 26482.752,
      "d": 79.31032499999856,
      "v": 63
    },
    {
      "midi": 62,
      "hit": false,
      "t": 26482.752,
      "d": 96.55169999999998,
      "v": 63
    },
    {
      "midi": 57,
      "hit": false,
      "t": 26482.752,
      "d": 99.99997499999881,
      "v": 63
    },
    {
      "midi": 60,
      "hit": false,
      "t": 26689.6485,
      "d": 75.86204999999973,
      "v": 65
    },
    {
      "midi": 57,
      "hit": false,
      "t": 26689.6485,
      "d": 79.31032499999856,
      "v": 65
    },
    {
      "midi": 62,
      "hit": false,
      "t": 26689.6485,
      "d": 79.31032499999856,
      "v": 65
    },
    {
      "midi": 57,
      "hit": false,
      "t": 26896.545,
      "d": 103.44825000000128,
      "v": 61
    },
    {
      "midi": 62,
      "hit": false,
      "t": 26896.545,
      "d": 117.24135000000024,
      "v": 61
    },
    {
      "midi": 60,
      "hit": false,
      "t": 26896.545,
      "d": 120.68962499999907,
      "v": 61
    },
    {
      "midi": 60,
      "hit": false,
      "t": 28137.924,
      "d": 699.999824999999,
      "v": 59
    },
    {
      "midi": 57,
      "hit": false,
      "t": 28137.924,
      "d": 720.6894749999992,
      "v": 59
    },
    {
      "midi": 64,
      "hit": false,
      "t": 28137.924,
      "d": 731.0342999999993,
      "v": 59
    },
    {
      "midi": 55,
      "hit": false,
      "t": 28965.51,
      "d": 744.8273999999983,
      "v": 61
    },
    {
      "midi": 64,
      "hit": false,
      "t": 28965.51,
      "d": 755.1722249999984,
      "v": 61
    },
    {
      "midi": 60,
      "hit": false,
      "t": 28965.51,
      "d": 758.6204999999973,
      "v": 61
    },
    {
      "midi": 53,
      "hit": false,
      "t": 29793.095999999994,
      "d": 751.7239499999996,
      "v": 47
    },
    {
      "midi": 62,
      "hit": false,
      "t": 29793.095999999994,
      "d": 793.1032500000001,
      "v": 57
    },
    {
      "midi": 57,
      "hit": false,
      "t": 29796.544274999993,
      "d": 665.5170749999997,
      "v": 59
    },
    {
      "midi": 60,
      "hit": false,
      "t": 30206.888999999992,
      "d": 344.82750000000306,
      "v": 58
    },
    {
      "midi": 60,
      "hit": false,
      "t": 30620.681999999993,
      "d": 327.586124999998,
      "v": 58
    },
    {
      "midi": 65,
      "hit": false,
      "t": 30620.681999999993,
      "d": 782.758425,
      "v": 57
    },
    {
      "midi": 57,
      "hit": false,
      "t": 30624.130274999992,
      "d": 737.9308500000006,
      "v": 65
    },
    {
      "midi": 53,
      "hit": false,
      "t": 30627.57854999999,
      "d": 786.2067000000025,
      "v": 58
    },
    {
      "midi": 60,
      "hit": false,
      "t": 31034.47499999999,
      "d": 358.620600000002,
      "v": 59
    },
    {
      "midi": 63,
      "hit": false,
      "t": 31448.267999999993,
      "d": 206.89649999999892,
      "v": 63
    },
    {
      "midi": 60,
      "hit": false,
      "t": 31448.267999999993,
      "d": 358.6205999999984,
      "v": 59
    },
    {
      "midi": 55,
      "hit": false,
      "t": 31448.267999999993,
      "d": 786.2066999999988,
      "v": 58
    },
    {
      "midi": 62,
      "hit": false,
      "t": 31655.16449999999,
      "d": 206.89649999999892,
      "v": 60
    },
    {
      "midi": 60,
      "hit": false,
      "t": 31862.06099999999,
      "d": 389.6550750000024,
      "v": 62
    },
    {
      "midi": 48,
      "hit": false,
      "t": 32275.853999999992,
      "d": 1472.413425000006,
      "v": 65
    },
    {
      "midi": 45,
      "hit": false,
      "t": 32275.853999999992,
      "d": 1496.5513500000088,
      "v": 63
    },
    {
      "midi": 52,
      "hit": false,
      "t": 32275.853999999992,
      "d": 1517.241000000009,
      "v": 49
    },
    {
      "midi": 60,
      "hit": false,
      "t": 32896.54349999999,
      "d": 58.6206749999983,
      "v": 48
    },
    {
      "midi": 67,
      "hit": false,
      "t": 32896.54349999999,
      "d": 72.4137750000009,
      "v": 65
    },
    {
      "midi": 60,
      "hit": false,
      "t": 33103.439999999995,
      "d": 162.06892499999958,
      "v": 57
    },
    {
      "midi": 67,
      "hit": false,
      "t": 33103.439999999995,
      "d": 189.6551249999975,
      "v": 66
    },
    {
      "midi": 57,
      "hit": false,
      "t": 33310.33649999999,
      "d": 110.34479999999894,
      "v": 69
    },
    {
      "midi": 64,
      "hit": false,
      "t": 33310.33649999999,
      "d": 113.79307500000141,
      "v": 46
    },
    {
      "midi": 55,
      "hit": false,
      "t": 33413.78474999999,
      "d": 89.65514999999868,
      "v": 62
    },
    {
      "midi": 62,
      "hit": false,
      "t": 33413.78474999999,
      "d": 89.65514999999868,
      "v": 62
    },
    {
      "midi": 64,
      "hit": false,
      "t": 33517.23299999999,
      "d": 258.6206250000105,
      "v": 68
    },
    {
      "midi": 57,
      "hit": false,
      "t": 33517.23299999999,
      "d": 268.9654500000106,
      "v": 55
    },
    {
      "midi": 76,
      "hit": false,
      "t": 33724.129499999995,
      "d": 37.93102500000532,
      "v": 43
    },
    {
      "midi": 72,
      "hit": false,
      "t": 33724.129499999995,
      "d": 41.37930000000779,
      "v": 45
    },
    {
      "midi": 52,
      "hit": false,
      "t": 33931.026,
      "d": 96.55170000000362,
      "v": 55
    },
    {
      "midi": 57,
      "hit": false,
      "t": 33931.026,
      "d": 96.55170000000362,
      "v": 75
    },
    {
      "midi": 64,
      "hit": false,
      "t": 33931.026,
      "d": 110.34480000000622,
      "v": 47
    },
    {
      "midi": 60,
      "hit": false,
      "t": 33931.026,
      "d": 113.79307500000868,
      "v": 67
    },
    {
      "midi": 64,
      "hit": false,
      "t": 34344.819,
      "d": 110.34479999999894,
      "v": 53
    },
    {
      "midi": 60,
      "hit": false,
      "t": 34344.819,
      "d": 113.79307500000141,
      "v": 71
    },
    {
      "midi": 57,
      "hit": false,
      "t": 34344.819,
      "d": 755.1722250000021,
      "v": 71
    },
    {
      "midi": 52,
      "hit": false,
      "t": 34344.819,
      "d": 765.5170500000022,
      "v": 45
    },
    {
      "midi": 67,
      "hit": false,
      "t": 34551.715500000006,
      "d": 951.7239000000045,
      "v": 53
    },
    {
      "midi": 57,
      "hit": false,
      "t": 35172.405000000006,
      "d": 134.48272500000166,
      "v": 69
    },
    {
      "midi": 52,
      "hit": false,
      "t": 35172.405000000006,
      "d": 137.93100000000413,
      "v": 37
    },
    {
      "midi": 57,
      "hit": false,
      "t": 35586.19800000001,
      "d": 696.5515499999965,
      "v": 58
    },
    {
      "midi": 60,
      "hit": false,
      "t": 35586.19800000001,
      "d": 710.3446499999991,
      "v": 55
    },
    {
      "midi": 65,
      "hit": false,
      "t": 35999.99100000001,
      "d": 106.89652499999647,
      "v": 56
    },
    {
      "midi": 62,
      "hit": false,
      "t": 35999.99100000001,
      "d": 117.2413499999966,
      "v": 75
    },
    {
      "midi": 57,
      "hit": false,
      "t": 36620.68050000001,
      "d": 568.9653749999998,
      "v": 63
    },
    {
      "midi": 65,
      "hit": false,
      "t": 36827.57700000001,
      "d": 348.2757750000019,
      "v": 57
    },
    {
      "midi": 62,
      "hit": false,
      "t": 36827.57700000001,
      "d": 355.17232499999955,
      "v": 74
    },
    {
      "midi": 60,
      "hit": false,
      "t": 36827.57700000001,
      "d": 382.75852499999746,
      "v": 59
    },
    {
      "midi": 65,
      "hit": false,
      "t": 37241.37000000001,
      "d": 68.96549999999843,
      "v": 50
    },
    {
      "midi": 62,
      "hit": false,
      "t": 37241.37000000001,
      "d": 72.4137750000009,
      "v": 66
    },
    {
      "midi": 57,
      "hit": false,
      "t": 37241.37000000001,
      "d": 637.9308750000055,
      "v": 65
    },
    {
      "midi": 60,
      "hit": false,
      "t": 37241.37000000001,
      "d": 641.3791500000079,
      "v": 54
    },
    {
      "midi": 65,
      "hit": false,
      "t": 37448.26650000001,
      "d": 68.96549999999843,
      "v": 44
    },
    {
      "midi": 62,
      "hit": false,
      "t": 37448.26650000001,
      "d": 72.4137750000009,
      "v": 64
    },
    {
      "midi": 62,
      "hit": false,
      "t": 37655.163000000015,
      "d": 72.4137750000009,
      "v": 65
    },
    {
      "midi": 65,
      "hit": false,
      "t": 37655.163000000015,
      "d": 72.4137750000009,
      "v": 42
    },
    {
      "midi": 62,
      "hit": false,
      "t": 37862.05950000002,
      "d": 968.9652750000023,
      "v": 68
    },
    {
      "midi": 65,
      "hit": false,
      "t": 37862.05950000002,
      "d": 968.9652750000023,
      "v": 68
    },
    {
      "midi": 60,
      "hit": false,
      "t": 38068.95600000002,
      "d": 772.4135999999999,
      "v": 54
    },
    {
      "midi": 57,
      "hit": false,
      "t": 38068.95600000002,
      "d": 779.3101499999975,
      "v": 54
    },
    {
      "midi": 65,
      "hit": false,
      "t": 38896.542000000016,
      "d": 186.2068500000023,
      "v": 55
    },
    {
      "midi": 69,
      "hit": false,
      "t": 38896.542000000016,
      "d": 196.55167500000243,
      "v": 65
    },
    {
      "midi": 60,
      "hit": false,
      "t": 39103.43850000002,
      "d": 558.6205499999996,
      "v": 51
    },
    {
      "midi": 65,
      "hit": false,
      "t": 39310.33500000002,
      "d": 120.68962499999907,
      "v": 53
    },
    {
      "midi": 62,
      "hit": false,
      "t": 39310.33500000002,
      "d": 141.37927499999932,
      "v": 63
    },
    {
      "midi": 65,
      "hit": false,
      "t": 39724.12800000002,
      "d": 213.79305000000022,
      "v": 56
    },
    {
      "midi": 69,
      "hit": false,
      "t": 39724.12800000002,
      "d": 220.68959999999788,
      "v": 58
    },
    {
      "midi": 60,
      "hit": false,
      "t": 39931.02450000002,
      "d": 579.3101999999999,
      "v": 53
    },
    {
      "midi": 62,
      "hit": false,
      "t": 40137.92100000002,
      "d": 165.51720000000205,
      "v": 71
    },
    {
      "midi": 65,
      "hit": false,
      "t": 40137.92100000002,
      "d": 168.96547500000452,
      "v": 58
    },
    {
      "midi": 60,
      "hit": false,
      "t": 40551.71400000002,
      "d": 468.96540000000095,
      "v": 62
    },
    {
      "midi": 53,
      "hit": false,
      "t": 40551.71400000002,
      "d": 689.6549999999988,
      "v": 55
    },
    {
      "midi": 50,
      "hit": false,
      "t": 40551.71400000002,
      "d": 703.4481000000014,
      "v": 48
    },
    {
      "midi": 69,
      "hit": false,
      "t": 40965.50700000002,
      "d": 1151.7238500000021,
      "v": 73
    },
    {
      "midi": 72,
      "hit": false,
      "t": 41172.40350000002,
      "d": 948.275625000002,
      "v": 65
    },
    {
      "midi": 53,
      "hit": false,
      "t": 41379.300000000025,
      "d": 786.2067000000025,
      "v": 56
    },
    {
      "midi": 50,
      "hit": false,
      "t": 41379.300000000025,
      "d": 803.4480750000002,
      "v": 47
    },
    {
      "midi": 62,
      "hit": false,
      "t": 42206.88600000003,
      "d": 410.34472500000265,
      "v": 69
    },
    {
      "midi": 45,
      "hit": false,
      "t": 42206.88600000003,
      "d": 613.7929500000027,
      "v": 52
    },
    {
      "midi": 57,
      "hit": false,
      "t": 42620.67900000003,
      "d": 410.3447249999954,
      "v": 68
    },
    {
      "midi": 53,
      "hit": false,
      "t": 42620.67900000003,
      "d": 420.6895499999955,
      "v": 59
    },
    {
      "midi": 61,
      "hit": false,
      "t": 43034.47200000003,
      "d": 399.99989999999525,
      "v": 65
    },
    {
      "midi": 45,
      "hit": false,
      "t": 43034.47200000003,
      "d": 741.3791249999995,
      "v": 45
    },
    {
      "midi": 53,
      "hit": false,
      "t": 43448.26500000003,
      "d": 403.448175000005,
      "v": 62
    },
    {
      "midi": 57,
      "hit": false,
      "t": 43448.26500000003,
      "d": 431.0343750000029,
      "v": 60
    },
    {
      "midi": 60,
      "hit": false,
      "t": 43862.058000000034,
      "d": 134.4827249999944,
      "v": 60
    },
    {
      "midi": 60,
      "hit": false,
      "t": 44068.95450000003,
      "d": 82.75860000000102,
      "v": 52
    },
    {
      "midi": 65,
      "hit": false,
      "t": 44068.95450000003,
      "d": 86.20687500000349,
      "v": 65
    },
    {
      "midi": 60,
      "hit": false,
      "t": 44275.85100000003,
      "d": 99.99997499999881,
      "v": 68
    },
    {
      "midi": 65,
      "hit": false,
      "t": 44275.85100000003,
      "d": 99.99997499999881,
      "v": 62
    },
    {
      "midi": 69,
      "hit": false,
      "t": 44275.85100000003,
      "d": 217.2413249999954,
      "v": 70
    },
    {
      "midi": 72,
      "hit": false,
      "t": 44482.74750000003,
      "d": 89.65514999999868,
      "v": 56
    },
    {
      "midi": 57,
      "hit": false,
      "t": 44482.74750000003,
      "d": 920.6894249999968,
      "v": 62
    },
    {
      "midi": 53,
      "hit": false,
      "t": 44482.74750000003,
      "d": 999.9997499999954,
      "v": 55
    },
    {
      "midi": 50,
      "hit": false,
      "t": 44482.74750000003,
      "d": 1010.3445749999955,
      "v": 49
    },
    {
      "midi": 69,
      "hit": false,
      "t": 44896.540500000025,
      "d": 548.2757249999995,
      "v": 49
    },
    {
      "midi": 65,
      "hit": false,
      "t": 44896.540500000025,
      "d": 568.9653749999998,
      "v": 64
    },
    {
      "midi": 57,
      "hit": false,
      "t": 45517.230000000025,
      "d": 341.37922499999695,
      "v": 51
    },
    {
      "midi": 62,
      "hit": false,
      "t": 45517.230000000025,
      "d": 599.9998500000002,
      "v": 63
    },
    {
      "midi": 45,
      "hit": false,
      "t": 45517.230000000025,
      "d": 627.5860499999981,
      "v": 55
    },
    {
      "midi": 57,
      "hit": false,
      "t": 45931.02300000002,
      "d": 365.5171499999997,
      "v": 52
    },
    {
      "midi": 65,
      "hit": false,
      "t": 45931.02300000002,
      "d": 765.5170499999949,
      "v": 72
    },
    {
      "midi": 60,
      "hit": false,
      "t": 46344.81600000002,
      "d": 372.41369999999733,
      "v": 65
    },
    {
      "midi": 57,
      "hit": false,
      "t": 46344.81600000002,
      "d": 382.75852499999746,
      "v": 56
    },
    {
      "midi": 45,
      "hit": false,
      "t": 46344.81600000002,
      "d": 734.4825749999945,
      "v": 55
    },
    {
      "midi": 60,
      "hit": false,
      "t": 46758.60900000002,
      "d": 310.34474999999657,
      "v": 65
    },
    {
      "midi": 57,
      "hit": false,
      "t": 46758.60900000002,
      "d": 341.37922499999695,
      "v": 46
    },
    {
      "midi": 65,
      "hit": false,
      "t": 46758.60900000002,
      "d": 375.8619749999998,
      "v": 63
    },
    {
      "midi": 60,
      "hit": false,
      "t": 47172.40200000002,
      "d": 351.7240499999971,
      "v": 65
    },
    {
      "midi": 55,
      "hit": false,
      "t": 47172.40200000002,
      "d": 817.2411749999956,
      "v": 80
    },
    {
      "midi": 60,
      "hit": false,
      "t": 47586.195000000014,
      "d": 382.75852499999746,
      "v": 71
    },
    {
      "midi": 65,
      "hit": false,
      "t": 47999.98800000001,
      "d": 699.999824999999,
      "v": 69
    },
    {
      "midi": 58,
      "hit": false,
      "t": 47999.98800000001,
      "d": 758.6204999999973,
      "v": 77
    },
    {
      "midi": 62,
      "hit": false,
      "t": 48413.78100000001,
      "d": 334.4826749999993,
      "v": 63
    },
    {
      "midi": 62,
      "hit": false,
      "t": 48817.22917500001,
      "d": 299.9999250000037,
      "v": 80
    },
    {
      "midi": 63,
      "hit": false,
      "t": 49103.43600000001,
      "d": 282.75854999999865,
      "v": 83
    },
    {
      "midi": 64,
      "hit": false,
      "t": 49379.29800000001,
      "d": 210.34477499999775,
      "v": 80
    },
    {
      "midi": 47,
      "hit": false,
      "t": 49655.16000000001,
      "d": 3117.240600000012,
      "v": 69
    },
    {
      "midi": 52,
      "hit": false,
      "t": 49655.16000000001,
      "d": 3127.585425000012,
      "v": 62
    },
    {
      "midi": 62,
      "hit": false,
      "t": 50068.95300000001,
      "d": 248.27580000000307,
      "v": 67
    },
    {
      "midi": 56,
      "hit": false,
      "t": 50275.84950000001,
      "d": 224.13787500000035,
      "v": 70
    },
    {
      "midi": 59,
      "hit": false,
      "t": 50482.746000000014,
      "d": 106.89652499999647,
      "v": 61
    },
    {
      "midi": 62,
      "hit": false,
      "t": 50482.746000000014,
      "d": 120.68962499999907,
      "v": 77
    },
    {
      "midi": 62,
      "hit": false,
      "t": 50689.642500000016,
      "d": 117.2413499999966,
      "v": 71
    },
    {
      "midi": 59,
      "hit": false,
      "t": 50689.642500000016,
      "d": 127.58617499999673,
      "v": 55
    },
    {
      "midi": 62,
      "hit": false,
      "t": 51103.435500000014,
      "d": 99.99997499999881,
      "v": 77
    },
    {
      "midi": 64,
      "hit": false,
      "t": 51103.435500000014,
      "d": 103.44825000000128,
      "v": 45
    },
    {
      "midi": 64,
      "hit": false,
      "t": 51310.33200000002,
      "d": 89.65514999999868,
      "v": 46
    },
    {
      "midi": 59,
      "hit": false,
      "t": 51310.33200000002,
      "d": 93.10342500000115,
      "v": 61
    },
    {
      "midi": 62,
      "hit": false,
      "t": 51310.33200000002,
      "d": 110.34479999999894,
      "v": 77
    },
    {
      "midi": 62,
      "hit": false,
      "t": 51517.22850000002,
      "d": 82.75860000000102,
      "v": 68
    },
    {
      "midi": 59,
      "hit": false,
      "t": 51517.22850000002,
      "d": 96.55170000000362,
      "v": 41
    },
    {
      "midi": 64,
      "hit": false,
      "t": 51517.22850000002,
      "d": 96.55170000000362,
      "v": 38
    },
    {
      "midi": 47,
      "hit": false,
      "t": 52965.50400000002,
      "d": 3117.2406000000046,
      "v": 69
    },
    {
      "midi": 52,
      "hit": false,
      "t": 52965.50400000002,
      "d": 3127.5854250000048,
      "v": 62
    },
    {
      "midi": 62,
      "hit": false,
      "t": 53379.29700000002,
      "d": 248.27580000000307,
      "v": 67
    },
    {
      "midi": 56,
      "hit": false,
      "t": 53586.19350000002,
      "d": 224.13787500000035,
      "v": 70
    },
    {
      "midi": 59,
      "hit": false,
      "t": 53793.090000000026,
      "d": 106.89652499999647,
      "v": 61
    },
    {
      "midi": 64,
      "hit": false,
      "t": 53793.090000000026,
      "d": 117.2413499999966,
      "v": 47
    },
    {
      "midi": 62,
      "hit": false,
      "t": 53793.090000000026,
      "d": 120.68962499999907,
      "v": 77
    },
    {
      "midi": 62,
      "hit": false,
      "t": 53999.98650000003,
      "d": 117.2413499999966,
      "v": 71
    },
    {
      "midi": 59,
      "hit": false,
      "t": 53999.98650000003,
      "d": 127.58617499999673,
      "v": 55
    },
    {
      "midi": 64,
      "hit": false,
      "t": 54413.779500000026,
      "d": 93.10342500000115,
      "v": 42
    },
    {
      "midi": 62,
      "hit": false,
      "t": 54413.779500000026,
      "d": 99.99997499999881,
      "v": 77
    },
    {
      "midi": 64,
      "hit": false,
      "t": 54620.67600000002,
      "d": 86.20687500000349,
      "v": 39
    },
    {
      "midi": 59,
      "hit": false,
      "t": 54620.67600000002,
      "d": 93.10342500000115,
      "v": 61
    },
    {
      "midi": 62,
      "hit": false,
      "t": 54620.67600000002,
      "d": 110.34479999999894,
      "v": 77
    },
    {
      "midi": 64,
      "hit": false,
      "t": 54827.572500000024,
      "d": 72.4137750000009,
      "v": 33
    },
    {
      "midi": 62,
      "hit": false,
      "t": 54827.572500000024,
      "d": 82.75860000000102,
      "v": 68
    },
    {
      "midi": 59,
      "hit": false,
      "t": 54827.572500000024,
      "d": 96.55170000000362,
      "v": 41
    },
    {
      "midi": 52,
      "hit": false,
      "t": 56275.84800000003,
      "d": 1751.7237000000096,
      "v": 62
    },
    {
      "midi": 47,
      "hit": false,
      "t": 56275.84800000003,
      "d": 1762.0685250000097,
      "v": 69
    },
    {
      "midi": 62,
      "hit": false,
      "t": 56689.641000000025,
      "d": 248.27580000000307,
      "v": 67
    },
    {
      "midi": 56,
      "hit": false,
      "t": 56896.53750000003,
      "d": 224.13787500000035,
      "v": 70
    },
    {
      "midi": 59,
      "hit": false,
      "t": 57103.43400000003,
      "d": 106.89652499999647,
      "v": 61
    },
    {
      "midi": 62,
      "hit": false,
      "t": 57103.43400000003,
      "d": 120.68962499999907,
      "v": 77
    },
    {
      "midi": 62,
      "hit": false,
      "t": 57310.33050000003,
      "d": 117.2413499999966,
      "v": 71
    },
    {
      "midi": 59,
      "hit": false,
      "t": 57310.33050000003,
      "d": 127.58617499999673,
      "v": 55
    },
    {
      "midi": 62,
      "hit": false,
      "t": 57724.12350000003,
      "d": 99.99997499999881,
      "v": 77
    },
    {
      "midi": 64,
      "hit": false,
      "t": 57724.12350000003,
      "d": 120.68962499999907,
      "v": 54
    },
    {
      "midi": 59,
      "hit": false,
      "t": 57931.02000000003,
      "d": 93.10342500000115,
      "v": 61
    },
    {
      "midi": 62,
      "hit": false,
      "t": 57931.02000000003,
      "d": 110.34480000000622,
      "v": 77
    },
    {
      "midi": 64,
      "hit": false,
      "t": 57931.02000000003,
      "d": 110.34480000000622,
      "v": 62
    },
    {
      "midi": 55,
      "hit": false,
      "t": 59586.19200000004,
      "d": 699.999824999999,
      "v": 66
    },
    {
      "midi": 60,
      "hit": false,
      "t": 59586.19200000004,
      "d": 706.8963749999966,
      "v": 57
    },
    {
      "midi": 60,
      "hit": false,
      "t": 60413.778000000035,
      "d": 72.4137750000009,
      "v": 64
    },
    {
      "midi": 62,
      "hit": false,
      "t": 60413.778000000035,
      "d": 82.75860000000102,
      "v": 64
    },
    {
      "midi": 57,
      "hit": false,
      "t": 60413.778000000035,
      "d": 86.20687500000349,
      "v": 64
    },
    {
      "midi": 48,
      "hit": false,
      "t": 60827.57100000004,
      "d": 72.4137750000009,
      "v": 65
    },
    {
      "midi": 52,
      "hit": false,
      "t": 60827.57100000004,
      "d": 99.99997499999881,
      "v": 67
    },
    {
      "midi": 48,
      "hit": false,
      "t": 61034.467500000035,
      "d": 82.75860000000102,
      "v": 59
    },
    {
      "midi": 52,
      "hit": false,
      "t": 61034.467500000035,
      "d": 120.68962499999907,
      "v": 58
    },
    {
      "midi": 60,
      "hit": false,
      "t": 61241.36400000004,
      "d": 465.5171249999985,
      "v": 61
    },
    {
      "midi": 57,
      "hit": false,
      "t": 61241.36400000004,
      "d": 468.96540000000095,
      "v": 71
    },
    {
      "midi": 52,
      "hit": false,
      "t": 61655.157000000036,
      "d": 82.75860000000102,
      "v": 68
    },
    {
      "midi": 69,
      "hit": false,
      "t": 61655.157000000036,
      "d": 103.44825000000128,
      "v": 66
    },
    {
      "midi": 52,
      "hit": false,
      "t": 61862.05350000004,
      "d": 86.20687500000349,
      "v": 56
    },
    {
      "midi": 52,
      "hit": false,
      "t": 62068.95000000004,
      "d": 89.65515000000596,
      "v": 69
    },
    {
      "midi": 69,
      "hit": false,
      "t": 62068.95000000004,
      "d": 155.1723750000092,
      "v": 54
    },
    {
      "midi": 60,
      "hit": false,
      "t": 62072.39827500004,
      "d": 299.9999250000037,
      "v": 61
    },
    {
      "midi": 55,
      "hit": false,
      "t": 62482.743000000046,
      "d": 379.31025000000227,
      "v": 65
    },
    {
      "midi": 60,
      "hit": false,
      "t": 62482.743000000046,
      "d": 379.31025000000227,
      "v": 53
    },
    {
      "midi": 55,
      "hit": false,
      "t": 62896.53600000005,
      "d": 655.1722500000033,
      "v": 58
    },
    {
      "midi": 52,
      "hit": false,
      "t": 62896.53600000005,
      "d": 693.1032750000013,
      "v": 55
    },
    {
      "midi": 67,
      "hit": false,
      "t": 63517.22550000005,
      "d": 720.6894749999992,
      "v": 56
    },
    {
      "midi": 72,
      "hit": false,
      "t": 63517.22550000005,
      "d": 724.1377500000017,
      "v": 71
    },
    {
      "midi": 55,
      "hit": false,
      "t": 63724.122000000054,
      "d": 720.6894749999992,
      "v": 52
    },
    {
      "midi": 52,
      "hit": false,
      "t": 63724.122000000054,
      "d": 734.4825750000018,
      "v": 52
    },
    {
      "midi": 60,
      "hit": false,
      "t": 64551.70800000006,
      "d": 79.31032499999856,
      "v": 63
    },
    {
      "midi": 62,
      "hit": false,
      "t": 64551.70800000006,
      "d": 96.55169999999634,
      "v": 63
    },
    {
      "midi": 57,
      "hit": false,
      "t": 64551.70800000006,
      "d": 99.99997499999881,
      "v": 63
    },
    {
      "midi": 67,
      "hit": false,
      "t": 64758.60450000005,
      "d": 82.75860000000102,
      "v": 65
    },
    {
      "midi": 62,
      "hit": false,
      "t": 64758.60450000005,
      "d": 344.8274999999994,
      "v": 65
    },
    {
      "midi": 57,
      "hit": false,
      "t": 64758.60450000005,
      "d": 355.17232499999955,
      "v": 65
    },
    {
      "midi": 60,
      "hit": false,
      "t": 64758.60450000005,
      "d": 355.17232499999955,
      "v": 65
    },
    {
      "midi": 67,
      "hit": false,
      "t": 64965.501000000055,
      "d": 224.13787499999307,
      "v": 64
    },
    {
      "midi": 60,
      "hit": false,
      "t": 65172.39750000005,
      "d": 106.89652499999647,
      "v": 62
    },
    {
      "midi": 62,
      "hit": false,
      "t": 65172.39750000005,
      "d": 106.89652499999647,
      "v": 62
    },
    {
      "midi": 57,
      "hit": false,
      "t": 65172.39750000005,
      "d": 127.58617499999673,
      "v": 62
    },
    {
      "midi": 69,
      "hit": false,
      "t": 65172.39750000005,
      "d": 210.34477499999775,
      "v": 70
    },
    {
      "midi": 64,
      "hit": false,
      "t": 65379.294000000045,
      "d": 551.7239999999947,
      "v": 59
    },
    {
      "midi": 48,
      "hit": false,
      "t": 65793.08700000004,
      "d": 355.17232499999227,
      "v": 56
    },
    {
      "midi": 55,
      "hit": false,
      "t": 65793.08700000004,
      "d": 355.17232499999227,
      "v": 56
    },
    {
      "midi": 67,
      "hit": false,
      "t": 66206.88000000003,
      "d": 137.93099999999686,
      "v": 60
    },
    {
      "midi": 64,
      "hit": false,
      "t": 66206.88000000003,
      "d": 155.17237499999464,
      "v": 60
    },
    {
      "midi": 64,
      "hit": false,
      "t": 66620.67300000002,
      "d": 1010.3445750000101,
      "v": 55
    },
    {
      "midi": 67,
      "hit": false,
      "t": 66620.67300000002,
      "d": 1017.241125000015,
      "v": 70
    },
    {
      "midi": 57,
      "hit": false,
      "t": 67034.46600000003,
      "d": 365.5171499999997,
      "v": 72
    },
    {
      "midi": 52,
      "hit": false,
      "t": 67034.46600000003,
      "d": 727.5860250000114,
      "v": 46
    },
    {
      "midi": 57,
      "hit": false,
      "t": 67441.36245000003,
      "d": 365.5171500000142,
      "v": 60
    },
    {
      "midi": 60,
      "hit": false,
      "t": 68068.94850000004,
      "d": 75.86204999999609,
      "v": 48
    },
    {
      "midi": 57,
      "hit": false,
      "t": 68068.94850000004,
      "d": 79.31032499999856,
      "v": 48
    },
    {
      "midi": 62,
      "hit": false,
      "t": 68068.94850000004,
      "d": 79.31032499999856,
      "v": 48
    },
    {
      "midi": 57,
      "hit": false,
      "t": 68275.84500000004,
      "d": 103.44825000000128,
      "v": 61
    },
    {
      "midi": 62,
      "hit": false,
      "t": 68275.84500000004,
      "d": 117.2413499999966,
      "v": 61
    },
    {
      "midi": 60,
      "hit": false,
      "t": 68275.84500000004,
      "d": 120.68962499999907,
      "v": 61
    },
    {
      "midi": 60,
      "hit": false,
      "t": 68689.63800000005,
      "d": 696.5515500000038,
      "v": 45
    },
    {
      "midi": 57,
      "hit": false,
      "t": 68689.63800000005,
      "d": 710.3446499999991,
      "v": 65
    },
    {
      "midi": 55,
      "hit": false,
      "t": 68689.63800000005,
      "d": 713.7929250000016,
      "v": 69
    },
    {
      "midi": 60,
      "hit": false,
      "t": 69517.22400000005,
      "d": 699.9998250000062,
      "v": 59
    },
    {
      "midi": 57,
      "hit": false,
      "t": 69517.22400000005,
      "d": 720.6894750000065,
      "v": 59
    },
    {
      "midi": 64,
      "hit": false,
      "t": 69517.22400000005,
      "d": 731.0342999999993,
      "v": 59
    },
    {
      "midi": 55,
      "hit": false,
      "t": 70344.81000000004,
      "d": 744.8273999999947,
      "v": 61
    },
    {
      "midi": 64,
      "hit": false,
      "t": 70344.81000000004,
      "d": 755.1722249999875,
      "v": 61
    },
    {
      "midi": 60,
      "hit": false,
      "t": 70344.81000000004,
      "d": 758.62049999999,
      "v": 61
    },
    {
      "midi": 53,
      "hit": false,
      "t": 71172.39600000004,
      "d": 751.7239499999996,
      "v": 47
    },
    {
      "midi": 62,
      "hit": false,
      "t": 71172.39600000004,
      "d": 793.1032500000001,
      "v": 57
    },
    {
      "midi": 57,
      "hit": false,
      "t": 71175.84427500004,
      "d": 665.5170749999961,
      "v": 59
    },
    {
      "midi": 60,
      "hit": false,
      "t": 71586.18900000004,
      "d": 344.8274999999994,
      "v": 58
    },
    {
      "midi": 60,
      "hit": false,
      "t": 71999.98200000003,
      "d": 327.58612500000163,
      "v": 58
    },
    {
      "midi": 65,
      "hit": false,
      "t": 71999.98200000003,
      "d": 782.7584249999927,
      "v": 57
    },
    {
      "midi": 57,
      "hit": false,
      "t": 72003.43027500004,
      "d": 737.9308500000043,
      "v": 65
    },
    {
      "midi": 53,
      "hit": false,
      "t": 72006.87855000004,
      "d": 786.2066999999806,
      "v": 58
    },
    {
      "midi": 60,
      "hit": false,
      "t": 72413.77500000004,
      "d": 358.62059999999474,
      "v": 59
    },
    {
      "midi": 63,
      "hit": false,
      "t": 72827.56800000001,
      "d": 206.89650000000256,
      "v": 63
    },
    {
      "midi": 60,
      "hit": false,
      "t": 72827.56800000001,
      "d": 358.6206000000093,
      "v": 59
    },
    {
      "midi": 55,
      "hit": false,
      "t": 72827.56800000001,
      "d": 786.2067000000097,
      "v": 58
    },
    {
      "midi": 62,
      "hit": false,
      "t": 73034.46450000002,
      "d": 206.89650000000256,
      "v": 60
    },
    {
      "midi": 60,
      "hit": false,
      "t": 73241.36100000002,
      "d": 389.6550750000024,
      "v": 62
    },
    {
      "midi": 48,
      "hit": false,
      "t": 73655.15400000002,
      "d": 1472.4134249999915,
      "v": 65
    },
    {
      "midi": 45,
      "hit": false,
      "t": 73655.15400000002,
      "d": 1496.5513499999943,
      "v": 63
    },
    {
      "midi": 52,
      "hit": false,
      "t": 73655.15400000002,
      "d": 1517.2409999999945,
      "v": 49
    },
    {
      "midi": 60,
      "hit": false,
      "t": 74275.84350000002,
      "d": 58.6206749999983,
      "v": 48
    },
    {
      "midi": 67,
      "hit": false,
      "t": 74275.84350000002,
      "d": 72.41377499999362,
      "v": 65
    },
    {
      "midi": 60,
      "hit": false,
      "t": 74482.74,
      "d": 162.06892499999958,
      "v": 57
    },
    {
      "midi": 67,
      "hit": false,
      "t": 74482.74,
      "d": 189.65512500000477,
      "v": 66
    },
    {
      "midi": 57,
      "hit": false,
      "t": 74689.63650000001,
      "d": 110.34480000000622,
      "v": 69
    },
    {
      "midi": 64,
      "hit": false,
      "t": 74689.63650000001,
      "d": 113.79307500000868,
      "v": 46
    },
    {
      "midi": 55,
      "hit": false,
      "t": 74793.08475000001,
      "d": 89.65515000000596,
      "v": 62
    },
    {
      "midi": 62,
      "hit": false,
      "t": 74793.08475000001,
      "d": 89.65515000000596,
      "v": 62
    },
    {
      "midi": 64,
      "hit": false,
      "t": 74896.53300000001,
      "d": 258.6206250000105,
      "v": 68
    },
    {
      "midi": 57,
      "hit": false,
      "t": 74896.53300000001,
      "d": 268.96545000000333,
      "v": 55
    },
    {
      "midi": 76,
      "hit": false,
      "t": 75103.42950000001,
      "d": 37.931024999998044,
      "v": 43
    },
    {
      "midi": 72,
      "hit": false,
      "t": 75103.42950000001,
      "d": 41.37930000000051,
      "v": 45
    },
    {
      "midi": 52,
      "hit": false,
      "t": 75310.32600000002,
      "d": 96.55169999999634,
      "v": 55
    },
    {
      "midi": 57,
      "hit": false,
      "t": 75310.32600000002,
      "d": 96.55169999999634,
      "v": 75
    },
    {
      "midi": 64,
      "hit": false,
      "t": 75310.32600000002,
      "d": 110.34479999999166,
      "v": 47
    },
    {
      "midi": 60,
      "hit": false,
      "t": 75310.32600000002,
      "d": 113.79307499999413,
      "v": 67
    },
    {
      "midi": 64,
      "hit": false,
      "t": 75724.119,
      "d": 110.34480000000622,
      "v": 53
    },
    {
      "midi": 60,
      "hit": false,
      "t": 75724.119,
      "d": 113.79307500000868,
      "v": 71
    },
    {
      "midi": 57,
      "hit": false,
      "t": 75724.119,
      "d": 755.1722250000021,
      "v": 71
    },
    {
      "midi": 52,
      "hit": false,
      "t": 75724.119,
      "d": 765.5170499999949,
      "v": 45
    },
    {
      "midi": 67,
      "hit": false,
      "t": 75931.01550000001,
      "d": 951.7238999999972,
      "v": 53
    },
    {
      "midi": 57,
      "hit": false,
      "t": 76551.705,
      "d": 134.4827249999944,
      "v": 69
    },
    {
      "midi": 52,
      "hit": false,
      "t": 76551.705,
      "d": 137.93099999999686,
      "v": 37
    },
    {
      "midi": 57,
      "hit": false,
      "t": 76965.498,
      "d": 696.5515500000038,
      "v": 58
    },
    {
      "midi": 60,
      "hit": false,
      "t": 76965.498,
      "d": 710.3446499999991,
      "v": 55
    },
    {
      "midi": 65,
      "hit": false,
      "t": 77379.29100000001,
      "d": 106.89652500000375,
      "v": 56
    },
    {
      "midi": 62,
      "hit": false,
      "t": 77379.29100000001,
      "d": 117.2413499999966,
      "v": 75
    },
    {
      "midi": 62,
      "hit": false,
      "t": 77793.084,
      "d": 355.1723250000068,
      "v": 74
    },
    {
      "midi": 57,
      "hit": false,
      "t": 77999.9805,
      "d": 568.9653749999998,
      "v": 63
    },
    {
      "midi": 65,
      "hit": false,
      "t": 78206.87700000001,
      "d": 348.2757750000019,
      "v": 57
    },
    {
      "midi": 60,
      "hit": false,
      "t": 78206.87700000001,
      "d": 382.75852499999746,
      "v": 59
    },
    {
      "midi": 65,
      "hit": false,
      "t": 78620.67,
      "d": 68.9655000000057,
      "v": 50
    },
    {
      "midi": 62,
      "hit": false,
      "t": 78620.67,
      "d": 72.41377500000817,
      "v": 66
    },
    {
      "midi": 57,
      "hit": false,
      "t": 78620.67,
      "d": 637.9308749999909,
      "v": 65
    },
    {
      "midi": 60,
      "hit": false,
      "t": 78620.67,
      "d": 641.3791499999934,
      "v": 54
    },
    {
      "midi": 65,
      "hit": false,
      "t": 78827.5665,
      "d": 68.9655000000057,
      "v": 44
    },
    {
      "midi": 62,
      "hit": false,
      "t": 78827.5665,
      "d": 72.41377500000817,
      "v": 64
    },
    {
      "midi": 62,
      "hit": false,
      "t": 79034.463,
      "d": 72.41377499999362,
      "v": 65
    },
    {
      "midi": 65,
      "hit": false,
      "t": 79034.463,
      "d": 72.41377499999362,
      "v": 42
    },
    {
      "midi": 62,
      "hit": false,
      "t": 79241.35949999999,
      "d": 968.9652750000096,
      "v": 68
    },
    {
      "midi": 65,
      "hit": false,
      "t": 79241.35949999999,
      "d": 968.9652750000096,
      "v": 68
    },
    {
      "midi": 60,
      "hit": false,
      "t": 79448.256,
      "d": 772.4135999999999,
      "v": 54
    },
    {
      "midi": 57,
      "hit": false,
      "t": 79448.256,
      "d": 779.3101500000048,
      "v": 54
    },
    {
      "midi": 65,
      "hit": false,
      "t": 80275.842,
      "d": 186.2068500000023,
      "v": 55
    },
    {
      "midi": 69,
      "hit": false,
      "t": 80275.842,
      "d": 196.55167499999516,
      "v": 65
    },
    {
      "midi": 60,
      "hit": false,
      "t": 80482.73849999999,
      "d": 558.6205500000069,
      "v": 51
    },
    {
      "midi": 65,
      "hit": false,
      "t": 80689.635,
      "d": 120.68962499999907,
      "v": 53
    },
    {
      "midi": 62,
      "hit": false,
      "t": 80689.635,
      "d": 141.37927499999932,
      "v": 63
    },
    {
      "midi": 65,
      "hit": false,
      "t": 81103.428,
      "d": 213.7930500000075,
      "v": 56
    },
    {
      "midi": 69,
      "hit": false,
      "t": 81103.428,
      "d": 220.68960000001243,
      "v": 58
    },
    {
      "midi": 60,
      "hit": false,
      "t": 81310.3245,
      "d": 579.3102000000217,
      "v": 53
    },
    {
      "midi": 62,
      "hit": false,
      "t": 81517.22100000002,
      "d": 165.51720000000205,
      "v": 71
    },
    {
      "midi": 65,
      "hit": false,
      "t": 81517.22100000002,
      "d": 168.96547500000452,
      "v": 58
    },
    {
      "midi": 60,
      "hit": false,
      "t": 81931.01400000002,
      "d": 468.96540000000095,
      "v": 62
    },
    {
      "midi": 53,
      "hit": false,
      "t": 81931.01400000002,
      "d": 689.6550000000134,
      "v": 55
    },
    {
      "midi": 50,
      "hit": false,
      "t": 81931.01400000002,
      "d": 703.4481000000087,
      "v": 48
    },
    {
      "midi": 69,
      "hit": false,
      "t": 82344.80700000003,
      "d": 1151.7238500000094,
      "v": 73
    },
    {
      "midi": 74,
      "hit": false,
      "t": 82551.70350000003,
      "d": 948.2756250000093,
      "v": 65
    },
    {
      "midi": 53,
      "hit": false,
      "t": 82758.60000000003,
      "d": 786.2067000000097,
      "v": 56
    },
    {
      "midi": 50,
      "hit": false,
      "t": 82758.60000000003,
      "d": 803.4480750000075,
      "v": 47
    },
    {
      "midi": 62,
      "hit": false,
      "t": 83586.18600000005,
      "d": 410.34472500000265,
      "v": 69
    },
    {
      "midi": 45,
      "hit": false,
      "t": 83586.18600000005,
      "d": 613.7929500000027,
      "v": 52
    },
    {
      "midi": 57,
      "hit": false,
      "t": 83999.97900000005,
      "d": 410.34472500000265,
      "v": 68
    },
    {
      "midi": 53,
      "hit": false,
      "t": 83999.97900000005,
      "d": 420.68955000001006,
      "v": 59
    },
    {
      "midi": 61,
      "hit": false,
      "t": 84413.77200000006,
      "d": 399.9999000000098,
      "v": 65
    },
    {
      "midi": 45,
      "hit": false,
      "t": 84413.77200000006,
      "d": 741.3791250000068,
      "v": 45
    },
    {
      "midi": 53,
      "hit": false,
      "t": 84827.56500000006,
      "d": 403.4481749999977,
      "v": 62
    },
    {
      "midi": 57,
      "hit": false,
      "t": 84827.56500000006,
      "d": 431.03437499998836,
      "v": 60
    },
    {
      "midi": 60,
      "hit": false,
      "t": 85241.35800000005,
      "d": 134.4827249999944,
      "v": 60
    },
    {
      "midi": 60,
      "hit": false,
      "t": 85448.25450000004,
      "d": 82.75860000000102,
      "v": 52
    },
    {
      "midi": 65,
      "hit": false,
      "t": 85448.25450000004,
      "d": 86.20687500000349,
      "v": 65
    },
    {
      "midi": 60,
      "hit": false,
      "t": 85655.15100000004,
      "d": 99.99997499999881,
      "v": 68
    },
    {
      "midi": 65,
      "hit": false,
      "t": 85655.15100000004,
      "d": 99.99997499999881,
      "v": 62
    },
    {
      "midi": 69,
      "hit": false,
      "t": 85655.15100000004,
      "d": 217.2413249999954,
      "v": 70
    },
    {
      "midi": 72,
      "hit": false,
      "t": 85862.04750000004,
      "d": 89.65514999999141,
      "v": 56
    },
    {
      "midi": 57,
      "hit": false,
      "t": 85862.04750000004,
      "d": 920.6894249999896,
      "v": 62
    },
    {
      "midi": 53,
      "hit": false,
      "t": 85862.04750000004,
      "d": 999.9997499999881,
      "v": 55
    },
    {
      "midi": 50,
      "hit": false,
      "t": 85862.04750000004,
      "d": 1010.344574999981,
      "v": 49
    },
    {
      "midi": 69,
      "hit": false,
      "t": 86275.84050000003,
      "d": 548.2757249999995,
      "v": 49
    },
    {
      "midi": 65,
      "hit": false,
      "t": 86275.84050000003,
      "d": 568.9653749999998,
      "v": 64
    },
    {
      "midi": 57,
      "hit": false,
      "t": 86896.53000000003,
      "d": 341.37922499999695,
      "v": 51
    },
    {
      "midi": 62,
      "hit": false,
      "t": 86896.53000000003,
      "d": 599.9998499999929,
      "v": 63
    },
    {
      "midi": 45,
      "hit": false,
      "t": 86896.53000000003,
      "d": 627.5860499999981,
      "v": 55
    },
    {
      "midi": 57,
      "hit": false,
      "t": 87310.32300000002,
      "d": 365.5171500000142,
      "v": 52
    },
    {
      "midi": 65,
      "hit": false,
      "t": 87310.32300000002,
      "d": 765.517050000024,
      "v": 72
    },
    {
      "midi": 60,
      "hit": false,
      "t": 87724.11600000004,
      "d": 372.4137000000046,
      "v": 65
    },
    {
      "midi": 57,
      "hit": false,
      "t": 87724.11600000004,
      "d": 382.75852499999746,
      "v": 56
    },
    {
      "midi": 45,
      "hit": false,
      "t": 87724.11600000004,
      "d": 734.4825749999873,
      "v": 55
    },
    {
      "midi": 60,
      "hit": false,
      "t": 88137.90900000003,
      "d": 310.34475000000384,
      "v": 65
    },
    {
      "midi": 57,
      "hit": false,
      "t": 88137.90900000003,
      "d": 341.37922499999695,
      "v": 46
    },
    {
      "midi": 65,
      "hit": false,
      "t": 88137.90900000003,
      "d": 375.8619749999925,
      "v": 63
    },
    {
      "midi": 60,
      "hit": false,
      "t": 88551.70200000002,
      "d": 351.72405000000435,
      "v": 65
    },
    {
      "midi": 55,
      "hit": false,
      "t": 88551.70200000002,
      "d": 817.2411750000028,
      "v": 80
    },
    {
      "midi": 60,
      "hit": false,
      "t": 88965.49500000002,
      "d": 382.75852499999746,
      "v": 71
    },
    {
      "midi": 65,
      "hit": false,
      "t": 89379.28800000002,
      "d": 699.9998250000062,
      "v": 69
    },
    {
      "midi": 58,
      "hit": false,
      "t": 89379.28800000002,
      "d": 758.6205000000045,
      "v": 77
    },
    {
      "midi": 62,
      "hit": false,
      "t": 89793.08100000002,
      "d": 334.48267500000657,
      "v": 63
    },
    {
      "midi": 62,
      "hit": false,
      "t": 90196.52917500002,
      "d": 299.99992499999644,
      "v": 80
    },
    {
      "midi": 63,
      "hit": false,
      "t": 90482.73600000002,
      "d": 282.75854999999865,
      "v": 83
    },
    {
      "midi": 64,
      "hit": false,
      "t": 90758.59800000001,
      "d": 210.34477500000503,
      "v": 80
    },
    {
      "midi": 47,
      "hit": false,
      "t": 91034.46000000002,
      "d": 3117.2406000000046,
      "v": 69
    },
    {
      "midi": 52,
      "hit": false,
      "t": 91034.46000000002,
      "d": 3127.5854249999975,
      "v": 62
    },
    {
      "midi": 62,
      "hit": false,
      "t": 91448.25300000003,
      "d": 248.27580000000307,
      "v": 67
    },
    {
      "midi": 56,
      "hit": false,
      "t": 91655.14950000003,
      "d": 224.13787500000035,
      "v": 70
    },
    {
      "midi": 59,
      "hit": false,
      "t": 91862.04600000003,
      "d": 106.89652500000375,
      "v": 61
    },
    {
      "midi": 62,
      "hit": false,
      "t": 91862.04600000003,
      "d": 120.68962499999907,
      "v": 77
    },
    {
      "midi": 62,
      "hit": false,
      "t": 92068.94250000003,
      "d": 117.2413499999966,
      "v": 71
    },
    {
      "midi": 59,
      "hit": false,
      "t": 92068.94250000003,
      "d": 127.58617499998945,
      "v": 55
    },
    {
      "midi": 62,
      "hit": false,
      "t": 92482.73550000002,
      "d": 99.99997499999881,
      "v": 77
    },
    {
      "midi": 64,
      "hit": false,
      "t": 92482.73550000002,
      "d": 103.44825000000128,
      "v": 45
    },
    {
      "midi": 64,
      "hit": false,
      "t": 92689.63200000003,
      "d": 89.65515000000596,
      "v": 46
    },
    {
      "midi": 59,
      "hit": false,
      "t": 92689.63200000003,
      "d": 93.10342500000843,
      "v": 61
    },
    {
      "midi": 62,
      "hit": false,
      "t": 92689.63200000003,
      "d": 110.34480000000622,
      "v": 77
    },
    {
      "midi": 62,
      "hit": false,
      "t": 92896.52850000003,
      "d": 82.75860000000102,
      "v": 68
    },
    {
      "midi": 59,
      "hit": false,
      "t": 92896.52850000003,
      "d": 96.55169999999634,
      "v": 41
    },
    {
      "midi": 64,
      "hit": false,
      "t": 92896.52850000003,
      "d": 96.55169999999634,
      "v": 38
    },
    {
      "midi": 47,
      "hit": false,
      "t": 94344.80400000002,
      "d": 3117.24059999999,
      "v": 69
    },
    {
      "midi": 52,
      "hit": false,
      "t": 94344.80400000002,
      "d": 3127.585424999983,
      "v": 62
    },
    {
      "midi": 62,
      "hit": false,
      "t": 94758.59700000002,
      "d": 248.27580000000307,
      "v": 67
    },
    {
      "midi": 56,
      "hit": false,
      "t": 94965.49350000003,
      "d": 224.13787500000035,
      "v": 70
    },
    {
      "midi": 59,
      "hit": false,
      "t": 95172.39000000003,
      "d": 106.89652500000375,
      "v": 61
    },
    {
      "midi": 64,
      "hit": false,
      "t": 95172.39000000003,
      "d": 117.2413499999966,
      "v": 47
    },
    {
      "midi": 62,
      "hit": false,
      "t": 95172.39000000003,
      "d": 120.68962499999907,
      "v": 77
    },
    {
      "midi": 62,
      "hit": false,
      "t": 95379.28650000003,
      "d": 117.2413499999966,
      "v": 71
    },
    {
      "midi": 59,
      "hit": false,
      "t": 95379.28650000003,
      "d": 127.58617499998945,
      "v": 55
    },
    {
      "midi": 64,
      "hit": false,
      "t": 95793.07950000002,
      "d": 93.10342499999388,
      "v": 42
    },
    {
      "midi": 62,
      "hit": false,
      "t": 95793.07950000002,
      "d": 99.99997499999881,
      "v": 77
    },
    {
      "midi": 64,
      "hit": false,
      "t": 95999.97600000002,
      "d": 86.20687500000349,
      "v": 39
    },
    {
      "midi": 59,
      "hit": false,
      "t": 95999.97600000002,
      "d": 93.10342500000843,
      "v": 61
    },
    {
      "midi": 62,
      "hit": false,
      "t": 95999.97600000002,
      "d": 110.34480000000622,
      "v": 77
    },
    {
      "midi": 64,
      "hit": false,
      "t": 96206.87250000003,
      "d": 72.41377499999362,
      "v": 33
    },
    {
      "midi": 62,
      "hit": false,
      "t": 96206.87250000003,
      "d": 82.75859999998647,
      "v": 68
    },
    {
      "midi": 59,
      "hit": false,
      "t": 96206.87250000003,
      "d": 96.55169999998179,
      "v": 41
    },
    {
      "midi": 52,
      "hit": false,
      "t": 97655.148,
      "d": 1751.7237000000023,
      "v": 62
    },
    {
      "midi": 47,
      "hit": false,
      "t": 97655.148,
      "d": 1762.0685249999951,
      "v": 69
    },
    {
      "midi": 62,
      "hit": false,
      "t": 98068.941,
      "d": 248.27580000000307,
      "v": 67
    },
    {
      "midi": 56,
      "hit": false,
      "t": 98275.83750000001,
      "d": 224.13787500000035,
      "v": 70
    },
    {
      "midi": 59,
      "hit": false,
      "t": 98482.73400000001,
      "d": 106.89652500000375,
      "v": 61
    },
    {
      "midi": 62,
      "hit": false,
      "t": 98482.73400000001,
      "d": 120.68962499999907,
      "v": 77
    },
    {
      "midi": 62,
      "hit": false,
      "t": 98689.63050000001,
      "d": 117.2413499999966,
      "v": 71
    },
    {
      "midi": 59,
      "hit": false,
      "t": 98689.63050000001,
      "d": 127.58617499998945,
      "v": 55
    },
    {
      "midi": 62,
      "hit": false,
      "t": 99103.4235,
      "d": 99.99997499999881,
      "v": 77
    },
    {
      "midi": 64,
      "hit": false,
      "t": 99103.4235,
      "d": 120.68962499999907,
      "v": 54
    },
    {
      "midi": 59,
      "hit": false,
      "t": 99310.32,
      "d": 93.10342499999388,
      "v": 61
    },
    {
      "midi": 62,
      "hit": false,
      "t": 99310.32,
      "d": 110.34479999999166,
      "v": 77
    },
    {
      "midi": 64,
      "hit": false,
      "t": 99310.32,
      "d": 110.34479999999166,
      "v": 62
    },
    {
      "midi": 57,
      "hit": false,
      "t": 100965.492,
      "d": 1148.275575000007,
      "v": 53
    },
    {
      "midi": 62,
      "hit": false,
      "t": 100965.492,
      "d": 2182.758075000005,
      "v": 53
    },
    {
      "midi": 53,
      "hit": false,
      "t": 100965.492,
      "d": 2406.8959500000055,
      "v": 53
    },
    {
      "midi": 57,
      "hit": false,
      "t": 102206.871,
      "d": 1148.275575000007,
      "v": 53
    },
    {
      "midi": 62,
      "hit": false,
      "t": 103310.319,
      "d": 148.2758249999897,
      "v": 46
    },
    {
      "midi": 60,
      "hit": false,
      "t": 103448.25,
      "d": 1117.2410999999993,
      "v": 53
    },
    {
      "midi": 57,
      "hit": false,
      "t": 103448.25,
      "d": 2334.4821749999683,
      "v": 53
    },
    {
      "midi": 53,
      "hit": false,
      "t": 103448.25,
      "d": 2355.1718249999685,
      "v": 53
    },
    {
      "midi": 65,
      "hit": false,
      "t": 103448.25,
      "d": 2365.5166499999614,
      "v": 58
    },
    {
      "midi": 69,
      "hit": false,
      "t": 104689.629,
      "d": 393.1033499999903,
      "v": 66
    },
    {
      "midi": 60,
      "hit": false,
      "t": 104699.973825,
      "d": 1117.2410999999702,
      "v": 53
    },
    {
      "midi": 74,
      "hit": false,
      "t": 105093.07717499998,
      "d": 472.41367499998887,
      "v": 56
    },
    {
      "midi": 72,
      "hit": false,
      "t": 105531.00809999998,
      "d": 417.2412749999785,
      "v": 61
    },
    {
      "midi": 56,
      "hit": false,
      "t": 105931.00799999996,
      "d": 1148.2755749999924,
      "v": 53
    },
    {
      "midi": 59,
      "hit": false,
      "t": 105931.00799999996,
      "d": 2403.447674999974,
      "v": 53
    },
    {
      "midi": 52,
      "hit": false,
      "t": 105931.00799999996,
      "d": 2420.6890499999718,
      "v": 53
    },
    {
      "midi": 71,
      "hit": false,
      "t": 105937.90454999996,
      "d": 1948.275374999983,
      "v": 65
    },
    {
      "midi": 56,
      "hit": false,
      "t": 107172.38699999994,
      "d": 1148.2755749999924,
      "v": 59
    },
    {
      "midi": 74,
      "hit": false,
      "t": 107582.73172499995,
      "d": 437.9309249999933,
      "v": 62
    },
    {
      "midi": 71,
      "hit": false,
      "t": 108003.42127499994,
      "d": 362.06887499998265,
      "v": 66
    },
    {
      "midi": 56,
      "hit": false,
      "t": 108413.76599999993,
      "d": 1158.6203999999998,
      "v": 53
    },
    {
      "midi": 62,
      "hit": false,
      "t": 108413.76599999993,
      "d": 1158.6203999999998,
      "v": 53
    },
    {
      "midi": 58,
      "hit": false,
      "t": 108413.76599999993,
      "d": 2441.3786999999866,
      "v": 53
    },
    {
      "midi": 53,
      "hit": false,
      "t": 108413.76599999993,
      "d": 2455.171799999982,
      "v": 53
    },
    {
      "midi": 56,
      "hit": false,
      "t": 109665.48982499992,
      "d": 1158.6203999999998,
      "v": 53
    },
    {
      "midi": 62,
      "hit": false,
      "t": 109665.48982499992,
      "d": 1158.6203999999998,
      "v": 53
    },
    {
      "midi": 69,
      "hit": false,
      "t": 110896.52399999992,
      "d": 444.82747499999823,
      "v": 73
    },
    {
      "midi": 57,
      "hit": false,
      "t": 110896.52399999992,
      "d": 1182.7583250000025,
      "v": 53
    },
    {
      "midi": 61,
      "hit": false,
      "t": 110896.52399999992,
      "d": 2444.826974999989,
      "v": 53
    },
    {
      "midi": 53,
      "hit": false,
      "t": 110896.52399999992,
      "d": 2455.171799999982,
      "v": 53
    },
    {
      "midi": 73,
      "hit": false,
      "t": 111320.66182499992,
      "d": 448.2757500000007,
      "v": 63
    },
    {
      "midi": 69,
      "hit": false,
      "t": 111717.21344999992,
      "d": 341.37922499999695,
      "v": 63
    },
    {
      "midi": 57,
      "hit": false,
      "t": 112131.00644999991,
      "d": 1182.7583250000025,
      "v": 53
    },
    {
      "midi": 69,
      "hit": false,
      "t": 112137.90299999992,
      "d": 1193.1031499999954,
      "v": 65
    },
    {
      "midi": 57,
      "hit": false,
      "t": 113379.2819999999,
      "d": 1148.275575000007,
      "v": 53
    },
    {
      "midi": 62,
      "hit": false,
      "t": 113379.2819999999,
      "d": 2182.758075000005,
      "v": 53
    },
    {
      "midi": 53,
      "hit": false,
      "t": 113379.2819999999,
      "d": 2406.8959500000055,
      "v": 53
    },
    {
      "midi": 57,
      "hit": false,
      "t": 114620.6609999999,
      "d": 1148.275575000007,
      "v": 53
    },
    {
      "midi": 62,
      "hit": false,
      "t": 115724.10899999991,
      "d": 148.2758249999897,
      "v": 46
    },
    {
      "midi": 60,
      "hit": false,
      "t": 115862.0399999999,
      "d": 1117.2410999999993,
      "v": 53
    },
    {
      "midi": 57,
      "hit": false,
      "t": 115862.0399999999,
      "d": 2334.4821749999683,
      "v": 53
    },
    {
      "midi": 53,
      "hit": false,
      "t": 115862.0399999999,
      "d": 2355.1718249999685,
      "v": 53
    },
    {
      "midi": 65,
      "hit": false,
      "t": 115862.0399999999,
      "d": 2365.5166499999614,
      "v": 58
    },
    {
      "midi": 69,
      "hit": false,
      "t": 117103.4189999999,
      "d": 393.1033499999903,
      "v": 66
    },
    {
      "midi": 60,
      "hit": false,
      "t": 117113.7638249999,
      "d": 1117.2410999999702,
      "v": 53
    },
    {
      "midi": 74,
      "hit": false,
      "t": 117506.86717499989,
      "d": 472.41367499998887,
      "v": 56
    },
    {
      "midi": 72,
      "hit": false,
      "t": 117944.79809999988,
      "d": 417.2412749999785,
      "v": 61
    },
    {
      "midi": 56,
      "hit": false,
      "t": 118344.79799999986,
      "d": 1148.2755749999924,
      "v": 53
    },
    {
      "midi": 59,
      "hit": false,
      "t": 118344.79799999986,
      "d": 2403.447674999974,
      "v": 53
    },
    {
      "midi": 52,
      "hit": false,
      "t": 118344.79799999986,
      "d": 2420.6890499999718,
      "v": 53
    },
    {
      "midi": 71,
      "hit": false,
      "t": 118351.69454999987,
      "d": 1948.275374999983,
      "v": 65
    },
    {
      "midi": 56,
      "hit": false,
      "t": 119586.17699999985,
      "d": 1148.2755749999924,
      "v": 59
    },
    {
      "midi": 74,
      "hit": false,
      "t": 119996.52172499985,
      "d": 437.9309249999933,
      "v": 62
    },
    {
      "midi": 71,
      "hit": false,
      "t": 120417.21127499985,
      "d": 362.06887499998265,
      "v": 66
    },
    {
      "midi": 56,
      "hit": false,
      "t": 120827.55599999984,
      "d": 1158.6203999999998,
      "v": 53
    },
    {
      "midi": 62,
      "hit": false,
      "t": 120827.55599999984,
      "d": 1158.6203999999998,
      "v": 53
    },
    {
      "midi": 58,
      "hit": false,
      "t": 120827.55599999984,
      "d": 2441.3786999999866,
      "v": 53
    },
    {
      "midi": 53,
      "hit": false,
      "t": 120827.55599999984,
      "d": 2455.171799999982,
      "v": 53
    },
    {
      "midi": 56,
      "hit": false,
      "t": 122079.27982499983,
      "d": 1158.6203999999998,
      "v": 53
    },
    {
      "midi": 62,
      "hit": false,
      "t": 122079.27982499983,
      "d": 1158.6203999999998,
      "v": 53
    },
    {
      "midi": 69,
      "hit": false,
      "t": 123310.31399999982,
      "d": 444.82747499999823,
      "v": 57
    },
    {
      "midi": 57,
      "hit": false,
      "t": 123310.31399999982,
      "d": 1182.7583250000025,
      "v": 53
    },
    {
      "midi": 53,
      "hit": false,
      "t": 123310.31399999982,
      "d": 3741.3783750000002,
      "v": 53
    },
    {
      "midi": 61,
      "hit": false,
      "t": 123310.31399999982,
      "d": 5996.550224999999,
      "v": 53
    },
    {
      "midi": 73,
      "hit": false,
      "t": 123734.45182499982,
      "d": 448.2757500000007,
      "v": 50
    },
    {
      "midi": 69,
      "hit": false,
      "t": 124131.00344999983,
      "d": 341.37922499999695,
      "v": 50
    },
    {
      "midi": 57,
      "hit": false,
      "t": 124544.79644999982,
      "d": 4824.136725000004,
      "v": 53
    },
    {
      "midi": 69,
      "hit": false,
      "t": 124551.69299999982,
      "d": 3751.723199999993,
      "v": 65
    },
    {
      "midi": 55,
      "hit": false,
      "t": 129517.20899999983,
      "d": 699.9998250000062,
      "v": 66
    },
    {
      "midi": 60,
      "hit": false,
      "t": 129517.20899999983,
      "d": 706.8963750000112,
      "v": 57
    },
    {
      "midi": 60,
      "hit": false,
      "t": 130344.79499999984,
      "d": 72.41377499999362,
      "v": 64
    },
    {
      "midi": 62,
      "hit": false,
      "t": 130344.79499999984,
      "d": 82.75859999998647,
      "v": 64
    },
    {
      "midi": 57,
      "hit": false,
      "t": 130344.79499999984,
      "d": 86.20687499998894,
      "v": 64
    },
    {
      "midi": 48,
      "hit": false,
      "t": 130758.58799999983,
      "d": 72.41377499999362,
      "v": 65
    },
    {
      "midi": 52,
      "hit": false,
      "t": 130758.58799999983,
      "d": 99.99997499999881,
      "v": 67
    },
    {
      "midi": 48,
      "hit": false,
      "t": 130965.48449999983,
      "d": 82.75860000000102,
      "v": 59
    },
    {
      "midi": 52,
      "hit": false,
      "t": 130965.48449999983,
      "d": 120.68962500001362,
      "v": 58
    },
    {
      "midi": 60,
      "hit": false,
      "t": 131172.38099999985,
      "d": 465.51712500001304,
      "v": 61
    },
    {
      "midi": 57,
      "hit": false,
      "t": 131172.38099999985,
      "d": 468.9654000000155,
      "v": 71
    },
    {
      "midi": 52,
      "hit": false,
      "t": 131586.17399999985,
      "d": 82.75860000000102,
      "v": 68
    },
    {
      "midi": 69,
      "hit": false,
      "t": 131586.17399999985,
      "d": 103.44824999998673,
      "v": 66
    },
    {
      "midi": 52,
      "hit": false,
      "t": 131793.07049999983,
      "d": 86.20687500000349,
      "v": 56
    },
    {
      "midi": 52,
      "hit": false,
      "t": 131999.96699999983,
      "d": 89.65515000000596,
      "v": 69
    },
    {
      "midi": 69,
      "hit": false,
      "t": 131999.96699999983,
      "d": 155.17237499999464,
      "v": 54
    },
    {
      "midi": 60,
      "hit": false,
      "t": 132003.41527499983,
      "d": 299.9999249999819,
      "v": 61
    },
    {
      "midi": 55,
      "hit": false,
      "t": 132413.7599999998,
      "d": 379.31025000000955,
      "v": 65
    },
    {
      "midi": 60,
      "hit": false,
      "t": 132413.7599999998,
      "d": 379.31025000000955,
      "v": 53
    },
    {
      "midi": 55,
      "hit": false,
      "t": 132827.5529999998,
      "d": 655.1722500000033,
      "v": 58
    },
    {
      "midi": 52,
      "hit": false,
      "t": 132827.5529999998,
      "d": 693.1032750000013,
      "v": 55
    },
    {
      "midi": 67,
      "hit": false,
      "t": 133448.24249999982,
      "d": 720.689474999992,
      "v": 56
    },
    {
      "midi": 72,
      "hit": false,
      "t": 133448.24249999982,
      "d": 724.1377499999944,
      "v": 71
    },
    {
      "midi": 55,
      "hit": false,
      "t": 133655.13899999982,
      "d": 720.689474999992,
      "v": 52
    },
    {
      "midi": 52,
      "hit": false,
      "t": 133655.13899999982,
      "d": 734.4825750000018,
      "v": 52
    },
    {
      "midi": 60,
      "hit": false,
      "t": 134482.72499999983,
      "d": 79.31032499999856,
      "v": 63
    },
    {
      "midi": 62,
      "hit": false,
      "t": 134482.72499999983,
      "d": 96.5517000000109,
      "v": 63
    },
    {
      "midi": 57,
      "hit": false,
      "t": 134482.72499999983,
      "d": 99.99997500001336,
      "v": 63
    },
    {
      "midi": 67,
      "hit": false,
      "t": 134689.62149999983,
      "d": 82.75860000000102,
      "v": 65
    },
    {
      "midi": 62,
      "hit": false,
      "t": 134689.62149999983,
      "d": 344.82750000001397,
      "v": 65
    },
    {
      "midi": 57,
      "hit": false,
      "t": 134689.62149999983,
      "d": 355.1723250000214,
      "v": 65
    },
    {
      "midi": 60,
      "hit": false,
      "t": 134689.62149999983,
      "d": 355.1723250000214,
      "v": 65
    },
    {
      "midi": 67,
      "hit": false,
      "t": 134896.51799999984,
      "d": 224.137875000044,
      "v": 64
    },
    {
      "midi": 60,
      "hit": false,
      "t": 135103.41449999987,
      "d": 106.8965250000183,
      "v": 62
    },
    {
      "midi": 62,
      "hit": false,
      "t": 135103.41449999987,
      "d": 106.8965250000183,
      "v": 62
    },
    {
      "midi": 57,
      "hit": false,
      "t": 135103.41449999987,
      "d": 127.586175000004,
      "v": 62
    },
    {
      "midi": 69,
      "hit": false,
      "t": 135103.41449999987,
      "d": 210.34477500000503,
      "v": 70
    },
    {
      "midi": 64,
      "hit": false,
      "t": 135310.31099999987,
      "d": 551.7240000000165,
      "v": 59
    },
    {
      "midi": 48,
      "hit": false,
      "t": 135724.10399999988,
      "d": 355.1723250000214,
      "v": 56
    },
    {
      "midi": 55,
      "hit": false,
      "t": 135724.10399999988,
      "d": 355.1723250000214,
      "v": 56
    },
    {
      "midi": 67,
      "hit": false,
      "t": 136137.8969999999,
      "d": 137.9310000000114,
      "v": 60
    },
    {
      "midi": 64,
      "hit": false,
      "t": 136137.8969999999,
      "d": 155.17237500002375,
      "v": 60
    },
    {
      "midi": 64,
      "hit": false,
      "t": 136551.68999999994,
      "d": 1010.3445749999955,
      "v": 55
    },
    {
      "midi": 67,
      "hit": false,
      "t": 136551.68999999994,
      "d": 1017.2411250000005,
      "v": 70
    },
    {
      "midi": 57,
      "hit": false,
      "t": 136965.48299999995,
      "d": 365.5171499999997,
      "v": 72
    },
    {
      "midi": 52,
      "hit": false,
      "t": 136965.48299999995,
      "d": 727.5860249999969,
      "v": 46
    },
    {
      "midi": 57,
      "hit": false,
      "t": 137372.37944999995,
      "d": 365.5171499999997,
      "v": 60
    },
    {
      "midi": 60,
      "hit": false,
      "t": 137999.96549999996,
      "d": 75.86204999999609,
      "v": 48
    },
    {
      "midi": 57,
      "hit": false,
      "t": 137999.96549999996,
      "d": 79.31032499999856,
      "v": 48
    },
    {
      "midi": 62,
      "hit": false,
      "t": 137999.96549999996,
      "d": 79.31032499999856,
      "v": 48
    },
    {
      "midi": 57,
      "hit": false,
      "t": 138206.86199999996,
      "d": 103.44824999998673,
      "v": 61
    },
    {
      "midi": 62,
      "hit": false,
      "t": 138206.86199999996,
      "d": 117.2413499999966,
      "v": 61
    },
    {
      "midi": 60,
      "hit": false,
      "t": 138206.86199999996,
      "d": 120.68962499999907,
      "v": 61
    },
    {
      "midi": 60,
      "hit": false,
      "t": 138620.65499999997,
      "d": 696.5515500000038,
      "v": 45
    },
    {
      "midi": 57,
      "hit": false,
      "t": 138620.65499999997,
      "d": 710.3446500000136,
      "v": 65
    },
    {
      "midi": 55,
      "hit": false,
      "t": 138620.65499999997,
      "d": 713.7929250000161,
      "v": 69
    },
    {
      "midi": 60,
      "hit": false,
      "t": 139448.24099999998,
      "d": 699.9998250000062,
      "v": 59
    },
    {
      "midi": 57,
      "hit": false,
      "t": 139448.24099999998,
      "d": 720.689474999992,
      "v": 59
    },
    {
      "midi": 64,
      "hit": false,
      "t": 139448.24099999998,
      "d": 731.0342999999993,
      "v": 59
    },
    {
      "midi": 55,
      "hit": false,
      "t": 140275.827,
      "d": 744.8274000000092,
      "v": 61
    },
    {
      "midi": 64,
      "hit": false,
      "t": 140275.827,
      "d": 755.1722250000166,
      "v": 61
    },
    {
      "midi": 60,
      "hit": false,
      "t": 140275.827,
      "d": 758.6205000000191,
      "v": 61
    },
    {
      "midi": 53,
      "hit": false,
      "t": 141103.413,
      "d": 751.7239500000142,
      "v": 47
    },
    {
      "midi": 62,
      "hit": false,
      "t": 141103.413,
      "d": 793.1032500000147,
      "v": 57
    },
    {
      "midi": 57,
      "hit": false,
      "t": 141106.861275,
      "d": 665.5170750000107,
      "v": 59
    },
    {
      "midi": 60,
      "hit": false,
      "t": 141517.206,
      "d": 344.82750000001397,
      "v": 58
    },
    {
      "midi": 60,
      "hit": false,
      "t": 141930.999,
      "d": 327.58612500000163,
      "v": 58
    },
    {
      "midi": 65,
      "hit": false,
      "t": 141930.999,
      "d": 782.7584250000073,
      "v": 57
    },
    {
      "midi": 57,
      "hit": false,
      "t": 141934.447275,
      "d": 737.9308500000043,
      "v": 65
    },
    {
      "midi": 53,
      "hit": false,
      "t": 141937.89555000002,
      "d": 786.2067000000097,
      "v": 58
    },
    {
      "midi": 60,
      "hit": false,
      "t": 142344.79200000002,
      "d": 358.62059999999474,
      "v": 59
    },
    {
      "midi": 63,
      "hit": false,
      "t": 142758.58500000002,
      "d": 206.89650000000256,
      "v": 63
    },
    {
      "midi": 60,
      "hit": false,
      "t": 142758.58500000002,
      "d": 358.62059999999474,
      "v": 59
    },
    {
      "midi": 55,
      "hit": false,
      "t": 142758.58500000002,
      "d": 786.2067000000097,
      "v": 58
    },
    {
      "midi": 62,
      "hit": false,
      "t": 142965.48150000002,
      "d": 206.89650000000256,
      "v": 60
    },
    {
      "midi": 60,
      "hit": false,
      "t": 143172.37800000003,
      "d": 389.65507500001695,
      "v": 62
    },
    {
      "midi": 48,
      "hit": false,
      "t": 143586.17100000003,
      "d": 1472.4134250000352,
      "v": 65
    },
    {
      "midi": 45,
      "hit": false,
      "t": 143586.17100000003,
      "d": 1496.5513500000525,
      "v": 63
    },
    {
      "midi": 52,
      "hit": false,
      "t": 143586.17100000003,
      "d": 1517.2410000000673,
      "v": 49
    },
    {
      "midi": 60,
      "hit": false,
      "t": 144206.86050000004,
      "d": 58.62067500001285,
      "v": 48
    },
    {
      "midi": 67,
      "hit": false,
      "t": 144206.86050000004,
      "d": 72.41377500002272,
      "v": 65
    },
    {
      "midi": 60,
      "hit": false,
      "t": 144413.75700000007,
      "d": 162.06892499999958,
      "v": 57
    },
    {
      "midi": 67,
      "hit": false,
      "t": 144413.75700000007,
      "d": 189.65512499999022,
      "v": 66
    },
    {
      "midi": 57,
      "hit": false,
      "t": 144620.65350000007,
      "d": 110.34479999999166,
      "v": 69
    },
    {
      "midi": 64,
      "hit": false,
      "t": 144620.65350000007,
      "d": 113.79307499999413,
      "v": 46
    },
    {
      "midi": 55,
      "hit": false,
      "t": 144724.10175000006,
      "d": 89.65515000000596,
      "v": 62
    },
    {
      "midi": 62,
      "hit": false,
      "t": 144724.10175000006,
      "d": 89.65515000000596,
      "v": 62
    },
    {
      "midi": 64,
      "hit": false,
      "t": 144827.55000000008,
      "d": 258.6206250000105,
      "v": 68
    },
    {
      "midi": 57,
      "hit": false,
      "t": 144827.55000000008,
      "d": 268.9654500000179,
      "v": 55
    },
    {
      "midi": 76,
      "hit": false,
      "t": 145034.44650000008,
      "d": 37.931024999998044,
      "v": 43
    },
    {
      "midi": 72,
      "hit": false,
      "t": 145034.44650000008,
      "d": 41.37930000000051,
      "v": 45
    },
    {
      "midi": 52,
      "hit": false,
      "t": 145241.3430000001,
      "d": 96.5517000000109,
      "v": 55
    },
    {
      "midi": 57,
      "hit": false,
      "t": 145241.3430000001,
      "d": 96.5517000000109,
      "v": 75
    },
    {
      "midi": 64,
      "hit": false,
      "t": 145241.3430000001,
      "d": 110.34480000002077,
      "v": 47
    },
    {
      "midi": 60,
      "hit": false,
      "t": 145241.3430000001,
      "d": 113.79307500002324,
      "v": 67
    },
    {
      "midi": 64,
      "hit": false,
      "t": 145655.13600000014,
      "d": 110.34479999999166,
      "v": 53
    },
    {
      "midi": 60,
      "hit": false,
      "t": 145655.13600000014,
      "d": 113.79307499999413,
      "v": 71
    },
    {
      "midi": 57,
      "hit": false,
      "t": 145655.13600000014,
      "d": 755.1722250000166,
      "v": 71
    },
    {
      "midi": 52,
      "hit": false,
      "t": 145655.13600000014,
      "d": 765.517050000024,
      "v": 45
    },
    {
      "midi": 67,
      "hit": false,
      "t": 145862.03250000015,
      "d": 951.7239000000118,
      "v": 53
    },
    {
      "midi": 57,
      "hit": false,
      "t": 146482.72200000015,
      "d": 134.48272500000894,
      "v": 69
    },
    {
      "midi": 52,
      "hit": false,
      "t": 146482.72200000015,
      "d": 137.9310000000114,
      "v": 37
    },
    {
      "midi": 57,
      "hit": false,
      "t": 146896.51500000016,
      "d": 696.5515500000038,
      "v": 58
    },
    {
      "midi": 60,
      "hit": false,
      "t": 146896.51500000016,
      "d": 710.3446500000136,
      "v": 55
    },
    {
      "midi": 65,
      "hit": false,
      "t": 147310.30800000016,
      "d": 106.8965249999892,
      "v": 56
    },
    {
      "midi": 62,
      "hit": false,
      "t": 147310.30800000016,
      "d": 117.2413499999966,
      "v": 75
    },
    {
      "midi": 62,
      "hit": false,
      "t": 147724.10100000017,
      "d": 355.17232499999227,
      "v": 74
    },
    {
      "midi": 57,
      "hit": false,
      "t": 147930.99750000017,
      "d": 568.9653749999998,
      "v": 63
    },
    {
      "midi": 65,
      "hit": false,
      "t": 148137.89400000017,
      "d": 348.27577499998733,
      "v": 57
    },
    {
      "midi": 60,
      "hit": false,
      "t": 148137.89400000017,
      "d": 382.7585249999829,
      "v": 59
    },
    {
      "midi": 65,
      "hit": false,
      "t": 148551.68700000015,
      "d": 68.96549999999115,
      "v": 50
    },
    {
      "midi": 62,
      "hit": false,
      "t": 148551.68700000015,
      "d": 72.41377499999362,
      "v": 66
    },
    {
      "midi": 57,
      "hit": false,
      "t": 148551.68700000015,
      "d": 637.93087500002,
      "v": 65
    },
    {
      "midi": 60,
      "hit": false,
      "t": 148551.68700000015,
      "d": 641.3791500000225,
      "v": 54
    },
    {
      "midi": 65,
      "hit": false,
      "t": 148758.58350000015,
      "d": 68.96549999999115,
      "v": 44
    },
    {
      "midi": 62,
      "hit": false,
      "t": 148758.58350000015,
      "d": 72.41377499999362,
      "v": 64
    },
    {
      "midi": 62,
      "hit": false,
      "t": 148965.48000000016,
      "d": 72.41377499999362,
      "v": 65
    },
    {
      "midi": 65,
      "hit": false,
      "t": 148965.48000000016,
      "d": 72.41377499999362,
      "v": 42
    },
    {
      "midi": 62,
      "hit": false,
      "t": 149172.37650000016,
      "d": 968.965274999995,
      "v": 68
    },
    {
      "midi": 65,
      "hit": false,
      "t": 149172.37650000016,
      "d": 968.965274999995,
      "v": 68
    },
    {
      "midi": 60,
      "hit": false,
      "t": 149379.27300000016,
      "d": 772.4135999999999,
      "v": 54
    },
    {
      "midi": 57,
      "hit": false,
      "t": 149379.27300000016,
      "d": 779.3101500000048,
      "v": 54
    },
    {
      "midi": 65,
      "hit": false,
      "t": 150206.85900000017,
      "d": 186.20684999998775,
      "v": 55
    },
    {
      "midi": 69,
      "hit": false,
      "t": 150206.85900000017,
      "d": 196.55167499999516,
      "v": 65
    },
    {
      "midi": 60,
      "hit": false,
      "t": 150413.75550000017,
      "d": 558.6205499999924,
      "v": 51
    },
    {
      "midi": 65,
      "hit": false,
      "t": 150620.65200000018,
      "d": 120.68962499999907,
      "v": 53
    },
    {
      "midi": 62,
      "hit": false,
      "t": 150620.65200000018,
      "d": 141.37927499998477,
      "v": 63
    },
    {
      "midi": 65,
      "hit": false,
      "t": 151034.44500000015,
      "d": 213.7930500000075,
      "v": 56
    },
    {
      "midi": 69,
      "hit": false,
      "t": 151034.44500000015,
      "d": 220.68960000001243,
      "v": 58
    },
    {
      "midi": 60,
      "hit": false,
      "t": 151241.34150000016,
      "d": 579.3102000000072,
      "v": 53
    },
    {
      "midi": 62,
      "hit": false,
      "t": 151448.23800000016,
      "d": 165.51720000000205,
      "v": 71
    },
    {
      "midi": 65,
      "hit": false,
      "t": 151448.23800000016,
      "d": 168.96547500000452,
      "v": 58
    },
    {
      "midi": 60,
      "hit": false,
      "t": 151862.03100000016,
      "d": 468.9654000000155,
      "v": 62
    },
    {
      "midi": 53,
      "hit": false,
      "t": 151862.03100000016,
      "d": 689.6549999999988,
      "v": 55
    },
    {
      "midi": 50,
      "hit": false,
      "t": 151862.03100000016,
      "d": 703.4481000000087,
      "v": 48
    },
    {
      "midi": 69,
      "hit": false,
      "t": 152275.82400000017,
      "d": 1151.7238500000094,
      "v": 58
    },
    {
      "midi": 72,
      "hit": false,
      "t": 152482.72050000017,
      "d": 948.2756250000093,
      "v": 65
    },
    {
      "midi": 53,
      "hit": false,
      "t": 152689.61700000017,
      "d": 786.2067000000097,
      "v": 56
    },
    {
      "midi": 50,
      "hit": false,
      "t": 152689.61700000017,
      "d": 803.4480750000221,
      "v": 47
    },
    {
      "midi": 62,
      "hit": false,
      "t": 153517.20300000018,
      "d": 410.34472500000265,
      "v": 69
    },
    {
      "midi": 45,
      "hit": false,
      "t": 153517.20300000018,
      "d": 613.7929500000027,
      "v": 52
    },
    {
      "midi": 57,
      "hit": false,
      "t": 153930.9960000002,
      "d": 410.34472500000265,
      "v": 68
    },
    {
      "midi": 53,
      "hit": false,
      "t": 153930.9960000002,
      "d": 420.68955000001006,
      "v": 59
    },
    {
      "midi": 61,
      "hit": false,
      "t": 154344.7890000002,
      "d": 399.99989999999525,
      "v": 65
    },
    {
      "midi": 45,
      "hit": false,
      "t": 154344.7890000002,
      "d": 741.3791250000068,
      "v": 45
    },
    {
      "midi": 53,
      "hit": false,
      "t": 154758.5820000002,
      "d": 403.4481749999977,
      "v": 62
    },
    {
      "midi": 57,
      "hit": false,
      "t": 154758.5820000002,
      "d": 431.03437500001746,
      "v": 60
    },
    {
      "midi": 60,
      "hit": false,
      "t": 155172.3750000002,
      "d": 527.5860750000284,
      "v": 72
    },
    {
      "midi": 65,
      "hit": false,
      "t": 155379.2715000002,
      "d": 86.20687500000349,
      "v": 50
    },
    {
      "midi": 65,
      "hit": false,
      "t": 155586.1680000002,
      "d": 99.99997500001336,
      "v": 60
    },
    {
      "midi": 69,
      "hit": false,
      "t": 155586.1680000002,
      "d": 217.24132500003907,
      "v": 60
    },
    {
      "midi": 57,
      "hit": false,
      "t": 155793.06450000024,
      "d": 920.6894250000187,
      "v": 62
    },
    {
      "midi": 53,
      "hit": false,
      "t": 155793.06450000024,
      "d": 999.9997500000172,
      "v": 55
    },
    {
      "midi": 50,
      "hit": false,
      "t": 155793.06450000024,
      "d": 1010.3445750000246,
      "v": 49
    },
    {
      "midi": 69,
      "hit": false,
      "t": 156206.85750000025,
      "d": 548.2757250000141,
      "v": 49
    },
    {
      "midi": 65,
      "hit": false,
      "t": 156206.85750000025,
      "d": 568.9653749999998,
      "v": 64
    },
    {
      "midi": 57,
      "hit": false,
      "t": 156827.54700000025,
      "d": 341.3792250000115,
      "v": 51
    },
    {
      "midi": 62,
      "hit": false,
      "t": 156827.54700000025,
      "d": 599.9998499999929,
      "v": 63
    },
    {
      "midi": 45,
      "hit": false,
      "t": 156827.54700000025,
      "d": 627.5860499999835,
      "v": 55
    },
    {
      "midi": 57,
      "hit": false,
      "t": 157241.34000000026,
      "d": 365.51714999997057,
      "v": 52
    },
    {
      "midi": 65,
      "hit": false,
      "t": 157241.34000000026,
      "d": 765.5170499999658,
      "v": 65
    },
    {
      "midi": 60,
      "hit": false,
      "t": 157655.13300000023,
      "d": 372.4136999999755,
      "v": 65
    },
    {
      "midi": 57,
      "hit": false,
      "t": 157655.13300000023,
      "d": 382.7585249999829,
      "v": 56
    },
    {
      "midi": 45,
      "hit": false,
      "t": 157655.13300000023,
      "d": 734.4825749999727,
      "v": 55
    },
    {
      "midi": 60,
      "hit": false,
      "t": 158068.9260000002,
      "d": 310.3447499999893,
      "v": 65
    },
    {
      "midi": 57,
      "hit": false,
      "t": 158068.9260000002,
      "d": 341.3792249999824,
      "v": 46
    },
    {
      "midi": 65,
      "hit": false,
      "t": 158068.9260000002,
      "d": 375.861974999978,
      "v": 63
    },
    {
      "midi": 60,
      "hit": false,
      "t": 158482.7190000002,
      "d": 351.7240499999898,
      "v": 65
    },
    {
      "midi": 55,
      "hit": false,
      "t": 158482.7190000002,
      "d": 817.2411749999737,
      "v": 80
    },
    {
      "midi": 60,
      "hit": false,
      "t": 158896.51200000016,
      "d": 382.758525000012,
      "v": 71
    },
    {
      "midi": 65,
      "hit": false,
      "t": 159310.30500000017,
      "d": 699.9998250000062,
      "v": 69
    },
    {
      "midi": 58,
      "hit": false,
      "t": 159310.30500000017,
      "d": 758.6205000000191,
      "v": 77
    },
    {
      "midi": 62,
      "hit": false,
      "t": 159724.09800000017,
      "d": 334.48267500000657,
      "v": 63
    },
    {
      "midi": 62,
      "hit": false,
      "t": 160127.5461750002,
      "d": 299.999925000011,
      "v": 69
    },
    {
      "midi": 63,
      "hit": false,
      "t": 160413.7530000002,
      "d": 282.75855000002775,
      "v": 76
    },
    {
      "midi": 64,
      "hit": false,
      "t": 160689.61500000022,
      "d": 210.34477500000503,
      "v": 69
    },
    {
      "midi": 47,
      "hit": false,
      "t": 160965.47700000022,
      "d": 3117.2406000001065,
      "v": 69
    },
    {
      "midi": 52,
      "hit": false,
      "t": 160965.47700000022,
      "d": 3127.585425000114,
      "v": 62
    },
    {
      "midi": 62,
      "hit": false,
      "t": 161379.27000000022,
      "d": 248.27580000000307,
      "v": 67
    },
    {
      "midi": 56,
      "hit": false,
      "t": 161586.16650000022,
      "d": 224.1378750000149,
      "v": 70
    },
    {
      "midi": 59,
      "hit": false,
      "t": 161793.06300000023,
      "d": 106.8965250000183,
      "v": 61
    },
    {
      "midi": 62,
      "hit": false,
      "t": 161793.06300000023,
      "d": 120.68962500002817,
      "v": 77
    },
    {
      "midi": 62,
      "hit": false,
      "t": 161999.95950000026,
      "d": 117.2413499999966,
      "v": 71
    },
    {
      "midi": 59,
      "hit": false,
      "t": 161999.95950000026,
      "d": 127.586175000004,
      "v": 55
    },
    {
      "midi": 62,
      "hit": false,
      "t": 162413.75250000026,
      "d": 99.99997500001336,
      "v": 77
    },
    {
      "midi": 64,
      "hit": false,
      "t": 162413.75250000026,
      "d": 103.44825000001583,
      "v": 45
    },
    {
      "midi": 64,
      "hit": false,
      "t": 162620.64900000027,
      "d": 89.65515000000596,
      "v": 46
    },
    {
      "midi": 59,
      "hit": false,
      "t": 162620.64900000027,
      "d": 93.10342500000843,
      "v": 61
    },
    {
      "midi": 62,
      "hit": false,
      "t": 162620.64900000027,
      "d": 110.34480000002077,
      "v": 77
    },
    {
      "midi": 62,
      "hit": false,
      "t": 162827.5455000003,
      "d": 82.75860000000102,
      "v": 68
    },
    {
      "midi": 59,
      "hit": false,
      "t": 162827.5455000003,
      "d": 96.5517000000109,
      "v": 41
    },
    {
      "midi": 64,
      "hit": false,
      "t": 162827.5455000003,
      "d": 96.5517000000109,
      "v": 38
    },
    {
      "midi": 47,
      "hit": false,
      "t": 164275.82100000035,
      "d": 3117.2406000001065,
      "v": 69
    },
    {
      "midi": 52,
      "hit": false,
      "t": 164275.82100000035,
      "d": 3127.585425000114,
      "v": 62
    },
    {
      "midi": 62,
      "hit": false,
      "t": 164689.61400000035,
      "d": 248.27580000000307,
      "v": 67
    },
    {
      "midi": 56,
      "hit": false,
      "t": 164896.51050000035,
      "d": 224.1378750000149,
      "v": 70
    },
    {
      "midi": 59,
      "hit": false,
      "t": 165103.40700000036,
      "d": 106.8965250000183,
      "v": 61
    },
    {
      "midi": 64,
      "hit": false,
      "t": 165103.40700000036,
      "d": 117.2413500000257,
      "v": 47
    },
    {
      "midi": 62,
      "hit": false,
      "t": 165103.40700000036,
      "d": 120.68962500002817,
      "v": 77
    },
    {
      "midi": 62,
      "hit": false,
      "t": 165310.3035000004,
      "d": 117.2413499999966,
      "v": 71
    },
    {
      "midi": 59,
      "hit": false,
      "t": 165310.3035000004,
      "d": 127.586175000004,
      "v": 55
    },
    {
      "midi": 64,
      "hit": false,
      "t": 165724.0965000004,
      "d": 93.10342500000843,
      "v": 42
    },
    {
      "midi": 62,
      "hit": false,
      "t": 165724.0965000004,
      "d": 99.99997500001336,
      "v": 77
    },
    {
      "midi": 64,
      "hit": false,
      "t": 165930.9930000004,
      "d": 86.20687500000349,
      "v": 39
    },
    {
      "midi": 59,
      "hit": false,
      "t": 165930.9930000004,
      "d": 93.10342500000843,
      "v": 61
    },
    {
      "midi": 62,
      "hit": false,
      "t": 165930.9930000004,
      "d": 110.34480000002077,
      "v": 77
    },
    {
      "midi": 64,
      "hit": false,
      "t": 166137.88950000043,
      "d": 72.41377499999362,
      "v": 33
    },
    {
      "midi": 62,
      "hit": false,
      "t": 166137.88950000043,
      "d": 82.75860000000102,
      "v": 68
    },
    {
      "midi": 59,
      "hit": false,
      "t": 166137.88950000043,
      "d": 96.5517000000109,
      "v": 41
    },
    {
      "midi": 52,
      "hit": false,
      "t": 167586.16500000047,
      "d": 1751.7237000000605,
      "v": 62
    },
    {
      "midi": 47,
      "hit": false,
      "t": 167586.16500000047,
      "d": 1762.068525000068,
      "v": 69
    },
    {
      "midi": 62,
      "hit": false,
      "t": 167999.95800000048,
      "d": 248.27580000000307,
      "v": 67
    },
    {
      "midi": 56,
      "hit": false,
      "t": 168206.85450000048,
      "d": 224.1378750000149,
      "v": 70
    },
    {
      "midi": 59,
      "hit": false,
      "t": 168413.75100000048,
      "d": 106.8965250000183,
      "v": 61
    },
    {
      "midi": 62,
      "hit": false,
      "t": 168413.75100000048,
      "d": 120.68962500002817,
      "v": 77
    },
    {
      "midi": 62,
      "hit": false,
      "t": 168620.64750000052,
      "d": 117.2413499999966,
      "v": 71
    },
    {
      "midi": 59,
      "hit": false,
      "t": 168620.64750000052,
      "d": 127.586175000004,
      "v": 55
    },
    {
      "midi": 62,
      "hit": false,
      "t": 169034.44050000052,
      "d": 99.99997500001336,
      "v": 77
    },
    {
      "midi": 64,
      "hit": false,
      "t": 169034.44050000052,
      "d": 120.68962499999907,
      "v": 54
    },
    {
      "midi": 59,
      "hit": false,
      "t": 169241.33700000052,
      "d": 93.10342500000843,
      "v": 61
    },
    {
      "midi": 62,
      "hit": false,
      "t": 169241.33700000052,
      "d": 110.34480000002077,
      "v": 77
    },
    {
      "midi": 64,
      "hit": false,
      "t": 169241.33700000052,
      "d": 110.34480000002077,
      "v": 62
    },
    {
      "midi": 57,
      "hit": false,
      "t": 170896.50900000054,
      "d": 1148.275575000007,
      "v": 53
    },
    {
      "midi": 62,
      "hit": false,
      "t": 170896.50900000054,
      "d": 2182.7580750000197,
      "v": 53
    },
    {
      "midi": 53,
      "hit": false,
      "t": 170896.50900000054,
      "d": 2406.8959500000346,
      "v": 53
    },
    {
      "midi": 57,
      "hit": false,
      "t": 172137.88800000056,
      "d": 1148.275575000007,
      "v": 53
    },
    {
      "midi": 62,
      "hit": false,
      "t": 173241.33600000056,
      "d": 148.2758250000188,
      "v": 46
    },
    {
      "midi": 60,
      "hit": false,
      "t": 173379.26700000057,
      "d": 1117.2411000000138,
      "v": 53
    },
    {
      "midi": 57,
      "hit": false,
      "t": 173379.26700000057,
      "d": 2334.482175000041,
      "v": 53
    },
    {
      "midi": 53,
      "hit": false,
      "t": 173379.26700000057,
      "d": 2355.1718250000267,
      "v": 53
    },
    {
      "midi": 65,
      "hit": false,
      "t": 173379.26700000057,
      "d": 2365.516650000034,
      "v": 58
    },
    {
      "midi": 69,
      "hit": false,
      "t": 174620.6460000006,
      "d": 393.1033500000194,
      "v": 66
    },
    {
      "midi": 60,
      "hit": false,
      "t": 174630.9908250006,
      "d": 1117.2411000000138,
      "v": 53
    },
    {
      "midi": 74,
      "hit": false,
      "t": 175024.09417500062,
      "d": 472.41367499998887,
      "v": 56
    },
    {
      "midi": 72,
      "hit": false,
      "t": 175462.0251000006,
      "d": 417.2412750000076,
      "v": 61
    },
    {
      "midi": 56,
      "hit": false,
      "t": 175862.0250000006,
      "d": 1148.275575000007,
      "v": 53
    },
    {
      "midi": 59,
      "hit": false,
      "t": 175862.0250000006,
      "d": 2403.4476750000613,
      "v": 53
    },
    {
      "midi": 52,
      "hit": false,
      "t": 175862.0250000006,
      "d": 2420.6890500000736,
      "v": 53
    },
    {
      "midi": 71,
      "hit": false,
      "t": 175868.9215500006,
      "d": 1948.2753750000265,
      "v": 65
    },
    {
      "midi": 56,
      "hit": false,
      "t": 177103.40400000062,
      "d": 1148.275575000036,
      "v": 59
    },
    {
      "midi": 74,
      "hit": false,
      "t": 177513.74872500062,
      "d": 437.9309250000224,
      "v": 62
    },
    {
      "midi": 71,
      "hit": false,
      "t": 177934.43827500063,
      "d": 362.0688750000554,
      "v": 66
    },
    {
      "midi": 56,
      "hit": false,
      "t": 178344.7830000007,
      "d": 1158.6204000000143,
      "v": 53
    },
    {
      "midi": 62,
      "hit": false,
      "t": 178344.7830000007,
      "d": 1158.6204000000143,
      "v": 53
    },
    {
      "midi": 58,
      "hit": false,
      "t": 178344.7830000007,
      "d": 2441.37870000003,
      "v": 53
    },
    {
      "midi": 53,
      "hit": false,
      "t": 178344.7830000007,
      "d": 2455.17180000004,
      "v": 53
    },
    {
      "midi": 56,
      "hit": false,
      "t": 179596.50682500072,
      "d": 1158.6204000000143,
      "v": 53
    },
    {
      "midi": 62,
      "hit": false,
      "t": 179596.50682500072,
      "d": 1158.6204000000143,
      "v": 53
    },
    {
      "midi": 69,
      "hit": false,
      "t": 180827.54100000073,
      "d": 444.82747499999823,
      "v": 73
    },
    {
      "midi": 57,
      "hit": false,
      "t": 180827.54100000073,
      "d": 1182.7583250000025,
      "v": 53
    },
    {
      "midi": 61,
      "hit": false,
      "t": 180827.54100000073,
      "d": 2444.8269750000327,
      "v": 53
    },
    {
      "midi": 53,
      "hit": false,
      "t": 180827.54100000073,
      "d": 2455.17180000004,
      "v": 53
    },
    {
      "midi": 73,
      "hit": false,
      "t": 181251.67882500074,
      "d": 448.2757500000007,
      "v": 63
    },
    {
      "midi": 69,
      "hit": false,
      "t": 181648.23045000073,
      "d": 341.3792250000115,
      "v": 63
    },
    {
      "midi": 57,
      "hit": false,
      "t": 182062.02345000074,
      "d": 1182.7583250000025,
      "v": 53
    },
    {
      "midi": 69,
      "hit": false,
      "t": 182068.92000000074,
      "d": 1193.10315000001,
      "v": 65
    },
    {
      "midi": 57,
      "hit": false,
      "t": 183310.29900000076,
      "d": 1148.275575000007,
      "v": 53
    },
    {
      "midi": 62,
      "hit": false,
      "t": 183310.29900000076,
      "d": 2182.7580750000197,
      "v": 53
    },
    {
      "midi": 53,
      "hit": false,
      "t": 183310.29900000076,
      "d": 2406.8959500000346,
      "v": 53
    },
    {
      "midi": 57,
      "hit": false,
      "t": 184551.67800000077,
      "d": 1148.275575000007,
      "v": 53
    },
    {
      "midi": 62,
      "hit": false,
      "t": 185655.12600000078,
      "d": 148.2758250000188,
      "v": 46
    },
    {
      "midi": 60,
      "hit": false,
      "t": 185793.0570000008,
      "d": 1117.2411000000138,
      "v": 53
    },
    {
      "midi": 57,
      "hit": false,
      "t": 185793.0570000008,
      "d": 2334.482175000041,
      "v": 53
    },
    {
      "midi": 53,
      "hit": false,
      "t": 185793.0570000008,
      "d": 2355.1718250000267,
      "v": 53
    },
    {
      "midi": 65,
      "hit": false,
      "t": 185793.0570000008,
      "d": 2365.516650000034,
      "v": 58
    },
    {
      "midi": 69,
      "hit": false,
      "t": 187034.4360000008,
      "d": 393.1033500000194,
      "v": 66
    },
    {
      "midi": 60,
      "hit": false,
      "t": 187044.7808250008,
      "d": 1117.2411000000138,
      "v": 53
    },
    {
      "midi": 74,
      "hit": false,
      "t": 187437.88417500083,
      "d": 472.41367499998887,
      "v": 56
    },
    {
      "midi": 72,
      "hit": false,
      "t": 187875.81510000082,
      "d": 417.2412750000076,
      "v": 61
    },
    {
      "midi": 56,
      "hit": false,
      "t": 188275.81500000082,
      "d": 1148.275575000007,
      "v": 53
    },
    {
      "midi": 59,
      "hit": false,
      "t": 188275.81500000082,
      "d": 2403.4476750000613,
      "v": 53
    },
    {
      "midi": 52,
      "hit": false,
      "t": 188275.81500000082,
      "d": 2420.6890500000736,
      "v": 53
    },
    {
      "midi": 71,
      "hit": false,
      "t": 188282.71155000082,
      "d": 1948.2753750000265,
      "v": 65
    },
    {
      "midi": 56,
      "hit": false,
      "t": 189517.19400000083,
      "d": 1148.275575000036,
      "v": 59
    },
    {
      "midi": 74,
      "hit": false,
      "t": 189927.53872500084,
      "d": 437.9309250000224,
      "v": 62
    },
    {
      "midi": 71,
      "hit": false,
      "t": 190348.22827500085,
      "d": 362.0688750000554,
      "v": 66
    },
    {
      "midi": 56,
      "hit": false,
      "t": 190758.5730000009,
      "d": 1158.6204000000143,
      "v": 53
    },
    {
      "midi": 62,
      "hit": false,
      "t": 190758.5730000009,
      "d": 1158.6204000000143,
      "v": 53
    },
    {
      "midi": 58,
      "hit": false,
      "t": 190758.5730000009,
      "d": 2441.37870000003,
      "v": 53
    },
    {
      "midi": 53,
      "hit": false,
      "t": 190758.5730000009,
      "d": 2455.17180000004,
      "v": 53
    },
    {
      "midi": 56,
      "hit": false,
      "t": 192010.29682500093,
      "d": 1158.6204000000143,
      "v": 53
    },
    {
      "midi": 62,
      "hit": false,
      "t": 192010.29682500093,
      "d": 1158.6204000000143,
      "v": 53
    },
    {
      "midi": 69,
      "hit": false,
      "t": 193241.33100000094,
      "d": 444.82747499999823,
      "v": 57
    },
    {
      "midi": 57,
      "hit": false,
      "t": 193241.33100000094,
      "d": 1182.7583250000025,
      "v": 53
    },
    {
      "midi": 53,
      "hit": false,
      "t": 193241.33100000094,
      "d": 3741.3783750000293,
      "v": 53
    },
    {
      "midi": 61,
      "hit": false,
      "t": 193241.33100000094,
      "d": 4824.1367250000185,
      "v": 53
    },
    {
      "midi": 73,
      "hit": false,
      "t": 193665.46882500095,
      "d": 448.2757500000007,
      "v": 50
    },
    {
      "midi": 69,
      "hit": false,
      "t": 194062.02045000094,
      "d": 341.3792250000115,
      "v": 50
    },
    {
      "midi": 57,
      "hit": false,
      "t": 194475.81345000095,
      "d": 3631.0335750000086,
      "v": 53
    },
    {
      "midi": 69,
      "hit": false,
      "t": 194482.71000000095,
      "d": 3613.7921999999962,
      "v": 65
    },
    {
      "midi": 55,
      "hit": false,
      "t": 198206.84700000097,
      "d": 699.9998250000062,
      "v": 66
    },
    {
      "midi": 60,
      "hit": false,
      "t": 198206.84700000097,
      "d": 706.8963750000112,
      "v": 57
    },
    {
      "midi": 60,
      "hit": false,
      "t": 199034.43300000098,
      "d": 72.41377499999362,
      "v": 64
    },
    {
      "midi": 62,
      "hit": false,
      "t": 199034.43300000098,
      "d": 82.75860000000102,
      "v": 64
    },
    {
      "midi": 57,
      "hit": false,
      "t": 199034.43300000098,
      "d": 86.20687500000349,
      "v": 64
    },
    {
      "midi": 48,
      "hit": false,
      "t": 199448.22600000098,
      "d": 72.41377499999362,
      "v": 65
    },
    {
      "midi": 52,
      "hit": false,
      "t": 199448.22600000098,
      "d": 99.99997499998426,
      "v": 67
    },
    {
      "midi": 48,
      "hit": false,
      "t": 199655.12250000096,
      "d": 82.75860000000102,
      "v": 59
    },
    {
      "midi": 52,
      "hit": false,
      "t": 199655.12250000096,
      "d": 120.68962499999907,
      "v": 58
    },
    {
      "midi": 60,
      "hit": false,
      "t": 199862.01900000096,
      "d": 465.51712500001304,
      "v": 61
    },
    {
      "midi": 57,
      "hit": false,
      "t": 199862.01900000096,
      "d": 468.9654000000155,
      "v": 71
    },
    {
      "midi": 52,
      "hit": false,
      "t": 200275.81200000097,
      "d": 82.75860000000102,
      "v": 68
    },
    {
      "midi": 69,
      "hit": false,
      "t": 200275.81200000097,
      "d": 103.44824999998673,
      "v": 66
    },
    {
      "midi": 52,
      "hit": false,
      "t": 200482.70850000094,
      "d": 86.20687500000349,
      "v": 56
    },
    {
      "midi": 52,
      "hit": false,
      "t": 200689.60500000094,
      "d": 89.65515000000596,
      "v": 69
    },
    {
      "midi": 69,
      "hit": false,
      "t": 200689.60500000094,
      "d": 155.17237499999464,
      "v": 54
    },
    {
      "midi": 60,
      "hit": false,
      "t": 200693.05327500094,
      "d": 299.9999249999819,
      "v": 61
    },
    {
      "midi": 55,
      "hit": false,
      "t": 201103.39800000092,
      "d": 379.31025000000955,
      "v": 65
    },
    {
      "midi": 60,
      "hit": false,
      "t": 201103.39800000092,
      "d": 379.31025000000955,
      "v": 53
    },
    {
      "midi": 55,
      "hit": false,
      "t": 201517.19100000092,
      "d": 655.1722500000033,
      "v": 58
    },
    {
      "midi": 52,
      "hit": false,
      "t": 201517.19100000092,
      "d": 693.1032750000013,
      "v": 55
    },
    {
      "midi": 67,
      "hit": false,
      "t": 202137.88050000093,
      "d": 720.689474999992,
      "v": 56
    },
    {
      "midi": 72,
      "hit": false,
      "t": 202137.88050000093,
      "d": 724.1377499999944,
      "v": 71
    },
    {
      "midi": 55,
      "hit": false,
      "t": 202344.77700000093,
      "d": 720.689474999992,
      "v": 52
    },
    {
      "midi": 52,
      "hit": false,
      "t": 202344.77700000093,
      "d": 734.4825750000018,
      "v": 52
    },
    {
      "midi": 60,
      "hit": false,
      "t": 203172.36300000094,
      "d": 79.31032499999856,
      "v": 63
    },
    {
      "midi": 62,
      "hit": false,
      "t": 203172.36300000094,
      "d": 96.5517000000109,
      "v": 63
    },
    {
      "midi": 57,
      "hit": false,
      "t": 203172.36300000094,
      "d": 99.99997500001336,
      "v": 63
    },
    {
      "midi": 67,
      "hit": false,
      "t": 203379.25950000095,
      "d": 82.75860000000102,
      "v": 65
    },
    {
      "midi": 62,
      "hit": false,
      "t": 203379.25950000095,
      "d": 344.82750000001397,
      "v": 65
    },
    {
      "midi": 57,
      "hit": false,
      "t": 203379.25950000095,
      "d": 355.1723250000214,
      "v": 65
    },
    {
      "midi": 60,
      "hit": false,
      "t": 203379.25950000095,
      "d": 355.1723250000214,
      "v": 65
    },
    {
      "midi": 67,
      "hit": false,
      "t": 203586.15600000095,
      "d": 224.137875000044,
      "v": 64
    },
    {
      "midi": 60,
      "hit": false,
      "t": 203793.05250000098,
      "d": 106.8965250000183,
      "v": 62
    },
    {
      "midi": 62,
      "hit": false,
      "t": 203793.05250000098,
      "d": 106.8965250000183,
      "v": 62
    },
    {
      "midi": 57,
      "hit": false,
      "t": 203793.05250000098,
      "d": 127.586175000004,
      "v": 62
    },
    {
      "midi": 69,
      "hit": false,
      "t": 203793.05250000098,
      "d": 210.34477500000503,
      "v": 70
    },
    {
      "midi": 64,
      "hit": false,
      "t": 203999.94900000098,
      "d": 551.7240000000165,
      "v": 59
    },
    {
      "midi": 48,
      "hit": false,
      "t": 204413.742000001,
      "d": 355.1723250000214,
      "v": 56
    },
    {
      "midi": 55,
      "hit": false,
      "t": 204413.742000001,
      "d": 355.1723250000214,
      "v": 56
    },
    {
      "midi": 67,
      "hit": false,
      "t": 204827.53500000102,
      "d": 137.9310000000114,
      "v": 60
    },
    {
      "midi": 64,
      "hit": false,
      "t": 204827.53500000102,
      "d": 155.17237500002375,
      "v": 60
    },
    {
      "midi": 64,
      "hit": false,
      "t": 205241.32800000106,
      "d": 1010.3445749999955,
      "v": 55
    },
    {
      "midi": 67,
      "hit": false,
      "t": 205241.32800000106,
      "d": 1017.2411250000005,
      "v": 70
    },
    {
      "midi": 57,
      "hit": false,
      "t": 205655.12100000106,
      "d": 365.5171499999997,
      "v": 72
    },
    {
      "midi": 52,
      "hit": false,
      "t": 205655.12100000106,
      "d": 727.5860249999969,
      "v": 46
    },
    {
      "midi": 57,
      "hit": false,
      "t": 206062.01745000106,
      "d": 365.5171499999997,
      "v": 60
    },
    {
      "midi": 60,
      "hit": false,
      "t": 206689.60350000107,
      "d": 75.86204999999609,
      "v": 48
    },
    {
      "midi": 57,
      "hit": false,
      "t": 206689.60350000107,
      "d": 79.31032499999856,
      "v": 48
    },
    {
      "midi": 62,
      "hit": false,
      "t": 206689.60350000107,
      "d": 79.31032499999856,
      "v": 48
    },
    {
      "midi": 57,
      "hit": false,
      "t": 206896.50000000108,
      "d": 103.44824999998673,
      "v": 61
    },
    {
      "midi": 62,
      "hit": false,
      "t": 206896.50000000108,
      "d": 117.2413499999966,
      "v": 61
    },
    {
      "midi": 60,
      "hit": false,
      "t": 206896.50000000108,
      "d": 120.68962499999907,
      "v": 61
    },
    {
      "midi": 60,
      "hit": false,
      "t": 207310.29300000108,
      "d": 696.5515500000038,
      "v": 45
    },
    {
      "midi": 57,
      "hit": false,
      "t": 207310.29300000108,
      "d": 710.3446500000136,
      "v": 65
    },
    {
      "midi": 55,
      "hit": false,
      "t": 207310.29300000108,
      "d": 713.7929250000161,
      "v": 69
    },
    {
      "midi": 60,
      "hit": false,
      "t": 208137.8790000011,
      "d": 699.9998250000062,
      "v": 59
    },
    {
      "midi": 57,
      "hit": false,
      "t": 208137.8790000011,
      "d": 720.689474999992,
      "v": 59
    },
    {
      "midi": 64,
      "hit": false,
      "t": 208137.8790000011,
      "d": 731.0342999999993,
      "v": 59
    },
    {
      "midi": 55,
      "hit": false,
      "t": 208965.4650000011,
      "d": 744.8274000000092,
      "v": 61
    },
    {
      "midi": 64,
      "hit": false,
      "t": 208965.4650000011,
      "d": 755.1722250000166,
      "v": 61
    },
    {
      "midi": 60,
      "hit": false,
      "t": 208965.4650000011,
      "d": 758.6205000000191,
      "v": 61
    },
    {
      "midi": 53,
      "hit": false,
      "t": 209793.0510000011,
      "d": 751.7239500000142,
      "v": 47
    },
    {
      "midi": 62,
      "hit": false,
      "t": 209793.0510000011,
      "d": 793.1032500000147,
      "v": 57
    },
    {
      "midi": 57,
      "hit": false,
      "t": 209796.49927500112,
      "d": 665.5170750000107,
      "v": 59
    },
    {
      "midi": 60,
      "hit": false,
      "t": 210206.84400000112,
      "d": 344.82750000001397,
      "v": 58
    },
    {
      "midi": 60,
      "hit": false,
      "t": 210620.63700000112,
      "d": 327.58612500000163,
      "v": 58
    },
    {
      "midi": 65,
      "hit": false,
      "t": 210620.63700000112,
      "d": 782.7584250000073,
      "v": 57
    },
    {
      "midi": 57,
      "hit": false,
      "t": 210624.08527500113,
      "d": 737.9308500000043,
      "v": 65
    },
    {
      "midi": 53,
      "hit": false,
      "t": 210627.53355000113,
      "d": 786.2067000000097,
      "v": 58
    },
    {
      "midi": 60,
      "hit": false,
      "t": 211034.43000000113,
      "d": 358.62059999999474,
      "v": 59
    },
    {
      "midi": 63,
      "hit": false,
      "t": 211448.22300000113,
      "d": 206.89650000000256,
      "v": 63
    },
    {
      "midi": 60,
      "hit": false,
      "t": 211448.22300000113,
      "d": 358.62059999999474,
      "v": 59
    },
    {
      "midi": 55,
      "hit": false,
      "t": 211448.22300000113,
      "d": 786.2067000000097,
      "v": 58
    },
    {
      "midi": 62,
      "hit": false,
      "t": 211655.11950000114,
      "d": 206.89650000000256,
      "v": 60
    },
    {
      "midi": 60,
      "hit": false,
      "t": 211862.01600000114,
      "d": 389.65507500001695,
      "v": 62
    },
    {
      "midi": 48,
      "hit": false,
      "t": 212275.80900000114,
      "d": 1472.4134250000352,
      "v": 65
    },
    {
      "midi": 45,
      "hit": false,
      "t": 212275.80900000114,
      "d": 1496.5513500000234,
      "v": 63
    },
    {
      "midi": 52,
      "hit": false,
      "t": 212275.80900000114,
      "d": 1517.2410000000382,
      "v": 49
    },
    {
      "midi": 60,
      "hit": false,
      "t": 212896.49850000115,
      "d": 58.62067500001285,
      "v": 48
    },
    {
      "midi": 67,
      "hit": false,
      "t": 212896.49850000115,
      "d": 72.41377500002272,
      "v": 65
    },
    {
      "midi": 60,
      "hit": false,
      "t": 213103.39500000118,
      "d": 162.06892499999958,
      "v": 57
    },
    {
      "midi": 67,
      "hit": false,
      "t": 213103.39500000118,
      "d": 189.65512499999022,
      "v": 66
    },
    {
      "midi": 57,
      "hit": false,
      "t": 213310.29150000119,
      "d": 110.34479999999166,
      "v": 69
    },
    {
      "midi": 64,
      "hit": false,
      "t": 213310.29150000119,
      "d": 113.79307499999413,
      "v": 46
    },
    {
      "midi": 55,
      "hit": false,
      "t": 213413.73975000117,
      "d": 89.65515000000596,
      "v": 62
    },
    {
      "midi": 62,
      "hit": false,
      "t": 213413.73975000117,
      "d": 89.65515000000596,
      "v": 62
    },
    {
      "midi": 64,
      "hit": false,
      "t": 213517.1880000012,
      "d": 258.6206249999814,
      "v": 68
    },
    {
      "midi": 57,
      "hit": false,
      "t": 213517.1880000012,
      "d": 268.9654499999888,
      "v": 55
    },
    {
      "midi": 52,
      "hit": false,
      "t": 213930.9810000012,
      "d": 96.5517000000109,
      "v": 66
    },
    {
      "midi": 57,
      "hit": false,
      "t": 213930.9810000012,
      "d": 96.5517000000109,
      "v": 66
    },
    {
      "midi": 64,
      "hit": false,
      "t": 213930.9810000012,
      "d": 110.34480000002077,
      "v": 66
    },
    {
      "midi": 60,
      "hit": false,
      "t": 213930.9810000012,
      "d": 113.79307500002324,
      "v": 66
    },
    {
      "midi": 64,
      "hit": false,
      "t": 214344.77400000123,
      "d": 110.34479999999166,
      "v": 53
    },
    {
      "midi": 60,
      "hit": false,
      "t": 214344.77400000123,
      "d": 113.79307499999413,
      "v": 71
    },
    {
      "midi": 57,
      "hit": false,
      "t": 214344.77400000123,
      "d": 755.1722250000166,
      "v": 71
    },
    {
      "midi": 52,
      "hit": false,
      "t": 214344.77400000123,
      "d": 765.517050000024,
      "v": 45
    },
    {
      "midi": 67,
      "hit": false,
      "t": 214551.67050000123,
      "d": 951.7239000000118,
      "v": 53
    },
    {
      "midi": 57,
      "hit": false,
      "t": 215172.36000000124,
      "d": 134.48272500000894,
      "v": 69
    },
    {
      "midi": 52,
      "hit": false,
      "t": 215172.36000000124,
      "d": 137.9310000000114,
      "v": 37
    },
    {
      "midi": 57,
      "hit": false,
      "t": 215586.15300000124,
      "d": 696.5515500000038,
      "v": 58
    },
    {
      "midi": 60,
      "hit": false,
      "t": 215586.15300000124,
      "d": 710.3446500000136,
      "v": 55
    },
    {
      "midi": 65,
      "hit": false,
      "t": 215999.94600000125,
      "d": 106.8965249999892,
      "v": 64
    },
    {
      "midi": 62,
      "hit": false,
      "t": 215999.94600000125,
      "d": 117.2413499999966,
      "v": 64
    },
    {
      "midi": 62,
      "hit": false,
      "t": 216413.73900000125,
      "d": 355.17232499999227,
      "v": 63
    },
    {
      "midi": 57,
      "hit": false,
      "t": 216620.63550000126,
      "d": 568.9653749999998,
      "v": 63
    },
    {
      "midi": 65,
      "hit": false,
      "t": 216827.53200000126,
      "d": 348.27577499998733,
      "v": 57
    },
    {
      "midi": 60,
      "hit": false,
      "t": 216827.53200000126,
      "d": 382.7585249999829,
      "v": 59
    },
    {
      "midi": 65,
      "hit": false,
      "t": 217241.32500000123,
      "d": 68.96549999999115,
      "v": 50
    },
    {
      "midi": 62,
      "hit": false,
      "t": 217241.32500000123,
      "d": 72.41377499999362,
      "v": 66
    },
    {
      "midi": 57,
      "hit": false,
      "t": 217241.32500000123,
      "d": 637.93087500002,
      "v": 65
    },
    {
      "midi": 60,
      "hit": false,
      "t": 217241.32500000123,
      "d": 641.3791500000225,
      "v": 54
    },
    {
      "midi": 62,
      "hit": false,
      "t": 217655.11800000124,
      "d": 72.41377499999362,
      "v": 65
    },
    {
      "midi": 65,
      "hit": false,
      "t": 217655.11800000124,
      "d": 72.41377499999362,
      "v": 42
    },
    {
      "midi": 62,
      "hit": false,
      "t": 217862.01450000124,
      "d": 968.965274999995,
      "v": 68
    },
    {
      "midi": 65,
      "hit": false,
      "t": 217862.01450000124,
      "d": 968.965274999995,
      "v": 68
    },
    {
      "midi": 60,
      "hit": false,
      "t": 218068.91100000124,
      "d": 772.4135999999999,
      "v": 54
    },
    {
      "midi": 57,
      "hit": false,
      "t": 218068.91100000124,
      "d": 779.3101500000048,
      "v": 54
    },
    {
      "midi": 65,
      "hit": false,
      "t": 218896.49700000125,
      "d": 186.20684999998775,
      "v": 55
    },
    {
      "midi": 69,
      "hit": false,
      "t": 218896.49700000125,
      "d": 196.55167499999516,
      "v": 65
    },
    {
      "midi": 60,
      "hit": false,
      "t": 219103.39350000126,
      "d": 558.6205499999924,
      "v": 51
    },
    {
      "midi": 65,
      "hit": false,
      "t": 219310.29000000126,
      "d": 120.68962499999907,
      "v": 53
    },
    {
      "midi": 62,
      "hit": false,
      "t": 219310.29000000126,
      "d": 141.37927499998477,
      "v": 63
    },
    {
      "midi": 65,
      "hit": false,
      "t": 219724.08300000124,
      "d": 213.7930500000075,
      "v": 56
    },
    {
      "midi": 69,
      "hit": false,
      "t": 219724.08300000124,
      "d": 220.68960000001243,
      "v": 58
    },
    {
      "midi": 60,
      "hit": false,
      "t": 219930.97950000124,
      "d": 579.3102000000072,
      "v": 53
    },
    {
      "midi": 62,
      "hit": false,
      "t": 220137.87600000124,
      "d": 165.51720000000205,
      "v": 71
    },
    {
      "midi": 65,
      "hit": false,
      "t": 220137.87600000124,
      "d": 168.96547500000452,
      "v": 58
    },
    {
      "midi": 60,
      "hit": false,
      "t": 220551.66900000125,
      "d": 468.9654000000155,
      "v": 62
    },
    {
      "midi": 53,
      "hit": false,
      "t": 220551.66900000125,
      "d": 689.6549999999988,
      "v": 55
    },
    {
      "midi": 50,
      "hit": false,
      "t": 220551.66900000125,
      "d": 703.4481000000087,
      "v": 48
    },
    {
      "midi": 69,
      "hit": false,
      "t": 220965.46200000125,
      "d": 1151.7238500000094,
      "v": 58
    },
    {
      "midi": 72,
      "hit": false,
      "t": 221172.35850000125,
      "d": 948.2756250000093,
      "v": 65
    },
    {
      "midi": 53,
      "hit": false,
      "t": 221379.25500000126,
      "d": 786.2067000000097,
      "v": 56
    },
    {
      "midi": 50,
      "hit": false,
      "t": 221379.25500000126,
      "d": 803.4480750000221,
      "v": 47
    },
    {
      "midi": 62,
      "hit": false,
      "t": 222206.84100000127,
      "d": 410.34472500000265,
      "v": 69
    },
    {
      "midi": 45,
      "hit": false,
      "t": 222206.84100000127,
      "d": 613.7929500000027,
      "v": 52
    },
    {
      "midi": 57,
      "hit": false,
      "t": 222620.63400000127,
      "d": 410.34472500000265,
      "v": 68
    },
    {
      "midi": 53,
      "hit": false,
      "t": 222620.63400000127,
      "d": 420.68955000001006,
      "v": 59
    },
    {
      "midi": 61,
      "hit": false,
      "t": 223034.42700000128,
      "d": 399.99989999999525,
      "v": 65
    },
    {
      "midi": 45,
      "hit": false,
      "t": 223034.42700000128,
      "d": 741.3791250000068,
      "v": 45
    },
    {
      "midi": 53,
      "hit": false,
      "t": 223448.22000000128,
      "d": 403.4481749999977,
      "v": 62
    },
    {
      "midi": 57,
      "hit": false,
      "t": 223448.22000000128,
      "d": 431.03437500001746,
      "v": 60
    },
    {
      "midi": 60,
      "hit": false,
      "t": 223862.0130000013,
      "d": 527.5860750000284,
      "v": 72
    },
    {
      "midi": 65,
      "hit": false,
      "t": 224068.9095000013,
      "d": 86.20687500000349,
      "v": 50
    },
    {
      "midi": 65,
      "hit": false,
      "t": 224275.8060000013,
      "d": 99.99997500001336,
      "v": 60
    },
    {
      "midi": 69,
      "hit": false,
      "t": 224275.8060000013,
      "d": 217.24132500003907,
      "v": 60
    },
    {
      "midi": 57,
      "hit": false,
      "t": 224482.70250000132,
      "d": 920.6894250000187,
      "v": 62
    },
    {
      "midi": 53,
      "hit": false,
      "t": 224482.70250000132,
      "d": 999.9997500000172,
      "v": 55
    },
    {
      "midi": 50,
      "hit": false,
      "t": 224482.70250000132,
      "d": 1010.3445750000246,
      "v": 49
    },
    {
      "midi": 69,
      "hit": false,
      "t": 224896.49550000133,
      "d": 548.2757250000141,
      "v": 49
    },
    {
      "midi": 65,
      "hit": false,
      "t": 224896.49550000133,
      "d": 568.9653749999998,
      "v": 64
    },
    {
      "midi": 57,
      "hit": false,
      "t": 225517.18500000134,
      "d": 341.3792250000115,
      "v": 51
    },
    {
      "midi": 62,
      "hit": false,
      "t": 225517.18500000134,
      "d": 599.9998499999929,
      "v": 63
    },
    {
      "midi": 45,
      "hit": false,
      "t": 225517.18500000134,
      "d": 627.5860499999835,
      "v": 55
    },
    {
      "midi": 57,
      "hit": false,
      "t": 225930.97800000134,
      "d": 365.51714999997057,
      "v": 52
    },
    {
      "midi": 65,
      "hit": false,
      "t": 225930.97800000134,
      "d": 765.5170499999658,
      "v": 65
    },
    {
      "midi": 60,
      "hit": false,
      "t": 226344.77100000132,
      "d": 372.4136999999755,
      "v": 65
    },
    {
      "midi": 57,
      "hit": false,
      "t": 226344.77100000132,
      "d": 382.7585249999829,
      "v": 56
    },
    {
      "midi": 45,
      "hit": false,
      "t": 226344.77100000132,
      "d": 734.4825749999727,
      "v": 55
    },
    {
      "midi": 60,
      "hit": false,
      "t": 226758.5640000013,
      "d": 310.3447499999893,
      "v": 65
    },
    {
      "midi": 57,
      "hit": false,
      "t": 226758.5640000013,
      "d": 341.3792249999824,
      "v": 46
    },
    {
      "midi": 65,
      "hit": false,
      "t": 226758.5640000013,
      "d": 375.861974999978,
      "v": 63
    },
    {
      "midi": 60,
      "hit": false,
      "t": 227172.35700000127,
      "d": 351.7240499999898,
      "v": 65
    },
    {
      "midi": 55,
      "hit": false,
      "t": 227172.35700000127,
      "d": 817.2411749999737,
      "v": 80
    },
    {
      "midi": 60,
      "hit": false,
      "t": 227586.15000000125,
      "d": 382.758525000012,
      "v": 71
    },
    {
      "midi": 65,
      "hit": false,
      "t": 227999.94300000125,
      "d": 699.9998250000062,
      "v": 69
    },
    {
      "midi": 58,
      "hit": false,
      "t": 227999.94300000125,
      "d": 758.6205000000191,
      "v": 77
    },
    {
      "midi": 62,
      "hit": false,
      "t": 228413.73600000126,
      "d": 334.48267500000657,
      "v": 63
    },
    {
      "midi": 62,
      "hit": false,
      "t": 228817.18417500128,
      "d": 299.999925000011,
      "v": 69
    },
    {
      "midi": 63,
      "hit": false,
      "t": 229103.39100000128,
      "d": 282.75855000002775,
      "v": 76
    },
    {
      "midi": 64,
      "hit": false,
      "t": 229379.2530000013,
      "d": 210.34477500000503,
      "v": 69
    },
    {
      "midi": 47,
      "hit": false,
      "t": 229655.1150000013,
      "d": 3117.2406000001065,
      "v": 69
    },
    {
      "midi": 52,
      "hit": false,
      "t": 229655.1150000013,
      "d": 3127.585425000114,
      "v": 62
    },
    {
      "midi": 62,
      "hit": false,
      "t": 230068.9080000013,
      "d": 248.27580000000307,
      "v": 67
    },
    {
      "midi": 56,
      "hit": false,
      "t": 230275.8045000013,
      "d": 224.1378750000149,
      "v": 70
    },
    {
      "midi": 59,
      "hit": false,
      "t": 230482.7010000013,
      "d": 106.8965250000183,
      "v": 61
    },
    {
      "midi": 62,
      "hit": false,
      "t": 230482.7010000013,
      "d": 120.68962500002817,
      "v": 77
    },
    {
      "midi": 62,
      "hit": false,
      "t": 230689.59750000134,
      "d": 117.2413499999966,
      "v": 71
    },
    {
      "midi": 59,
      "hit": false,
      "t": 230689.59750000134,
      "d": 127.586175000004,
      "v": 55
    },
    {
      "midi": 62,
      "hit": false,
      "t": 231103.39050000135,
      "d": 99.99997500001336,
      "v": 77
    },
    {
      "midi": 64,
      "hit": false,
      "t": 231103.39050000135,
      "d": 103.44825000001583,
      "v": 45
    },
    {
      "midi": 64,
      "hit": false,
      "t": 231310.28700000135,
      "d": 89.65515000000596,
      "v": 46
    },
    {
      "midi": 59,
      "hit": false,
      "t": 231310.28700000135,
      "d": 93.10342500000843,
      "v": 61
    },
    {
      "midi": 62,
      "hit": false,
      "t": 231310.28700000135,
      "d": 110.34480000002077,
      "v": 77
    },
    {
      "midi": 62,
      "hit": false,
      "t": 231517.18350000138,
      "d": 82.75860000000102,
      "v": 68
    },
    {
      "midi": 59,
      "hit": false,
      "t": 231517.18350000138,
      "d": 96.5517000000109,
      "v": 41
    },
    {
      "midi": 64,
      "hit": false,
      "t": 231517.18350000138,
      "d": 96.5517000000109,
      "v": 38
    },
    {
      "midi": 47,
      "hit": false,
      "t": 232965.45900000143,
      "d": 3117.2406000001065,
      "v": 69
    },
    {
      "midi": 52,
      "hit": false,
      "t": 232965.45900000143,
      "d": 3127.585425000114,
      "v": 62
    },
    {
      "midi": 62,
      "hit": false,
      "t": 233379.25200000143,
      "d": 248.27580000000307,
      "v": 67
    },
    {
      "midi": 56,
      "hit": false,
      "t": 233586.14850000144,
      "d": 224.1378750000149,
      "v": 70
    },
    {
      "midi": 59,
      "hit": false,
      "t": 233793.04500000144,
      "d": 106.8965250000183,
      "v": 61
    },
    {
      "midi": 64,
      "hit": false,
      "t": 233793.04500000144,
      "d": 117.2413500000257,
      "v": 47
    },
    {
      "midi": 62,
      "hit": false,
      "t": 233793.04500000144,
      "d": 120.68962500002817,
      "v": 77
    },
    {
      "midi": 62,
      "hit": false,
      "t": 233999.94150000147,
      "d": 117.2413499999966,
      "v": 71
    },
    {
      "midi": 59,
      "hit": false,
      "t": 233999.94150000147,
      "d": 127.586175000004,
      "v": 55
    },
    {
      "midi": 64,
      "hit": false,
      "t": 234413.73450000148,
      "d": 93.10342500000843,
      "v": 42
    },
    {
      "midi": 62,
      "hit": false,
      "t": 234413.73450000148,
      "d": 99.99997500001336,
      "v": 77
    },
    {
      "midi": 64,
      "hit": false,
      "t": 234620.63100000148,
      "d": 86.20687500000349,
      "v": 39
    },
    {
      "midi": 59,
      "hit": false,
      "t": 234620.63100000148,
      "d": 93.10342500000843,
      "v": 61
    },
    {
      "midi": 62,
      "hit": false,
      "t": 234620.63100000148,
      "d": 110.34480000002077,
      "v": 77
    },
    {
      "midi": 64,
      "hit": false,
      "t": 234827.5275000015,
      "d": 72.41377499999362,
      "v": 33
    },
    {
      "midi": 62,
      "hit": false,
      "t": 234827.5275000015,
      "d": 82.75860000000102,
      "v": 68
    },
    {
      "midi": 59,
      "hit": false,
      "t": 234827.5275000015,
      "d": 96.5517000000109,
      "v": 41
    },
    {
      "midi": 52,
      "hit": false,
      "t": 236275.80300000156,
      "d": 1751.7237000000605,
      "v": 62
    },
    {
      "midi": 47,
      "hit": false,
      "t": 236275.80300000156,
      "d": 1762.068525000068,
      "v": 69
    },
    {
      "midi": 62,
      "hit": false,
      "t": 236689.59600000156,
      "d": 248.27580000000307,
      "v": 67
    },
    {
      "midi": 56,
      "hit": false,
      "t": 236896.49250000156,
      "d": 224.1378750000149,
      "v": 70
    },
    {
      "midi": 59,
      "hit": false,
      "t": 237103.38900000157,
      "d": 106.8965250000183,
      "v": 61
    },
    {
      "midi": 62,
      "hit": false,
      "t": 237103.38900000157,
      "d": 120.68962500002817,
      "v": 77
    },
    {
      "midi": 62,
      "hit": false,
      "t": 237310.2855000016,
      "d": 117.2413499999966,
      "v": 71
    },
    {
      "midi": 59,
      "hit": false,
      "t": 237310.2855000016,
      "d": 127.586175000004,
      "v": 55
    },
    {
      "midi": 62,
      "hit": false,
      "t": 237724.0785000016,
      "d": 99.99997500001336,
      "v": 77
    },
    {
      "midi": 64,
      "hit": false,
      "t": 237724.0785000016,
      "d": 120.68962499999907,
      "v": 54
    },
    {
      "midi": 59,
      "hit": false,
      "t": 237930.9750000016,
      "d": 93.10342500000843,
      "v": 61
    },
    {
      "midi": 62,
      "hit": false,
      "t": 237930.9750000016,
      "d": 110.34480000002077,
      "v": 77
    },
    {
      "midi": 64,
      "hit": false,
      "t": 237930.9750000016,
      "d": 110.34480000002077,
      "v": 62
    },
    {
      "midi": 57,
      "hit": false,
      "t": 239586.14700000163,
      "d": 1148.275575000007,
      "v": 53
    },
    {
      "midi": 62,
      "hit": false,
      "t": 239586.14700000163,
      "d": 2182.7580750000197,
      "v": 53
    },
    {
      "midi": 53,
      "hit": false,
      "t": 239586.14700000163,
      "d": 2406.8959500000346,
      "v": 53
    },
    {
      "midi": 57,
      "hit": false,
      "t": 240827.52600000164,
      "d": 1148.275575000007,
      "v": 53
    },
    {
      "midi": 62,
      "hit": false,
      "t": 241930.97400000165,
      "d": 148.2758250000188,
      "v": 46
    },
    {
      "midi": 60,
      "hit": false,
      "t": 242068.90500000166,
      "d": 1117.2411000000138,
      "v": 53
    },
    {
      "midi": 57,
      "hit": false,
      "t": 242068.90500000166,
      "d": 2334.482175000041,
      "v": 53
    },
    {
      "midi": 53,
      "hit": false,
      "t": 242068.90500000166,
      "d": 2355.1718250000267,
      "v": 53
    },
    {
      "midi": 65,
      "hit": false,
      "t": 242068.90500000166,
      "d": 2365.516650000034,
      "v": 58
    },
    {
      "midi": 69,
      "hit": false,
      "t": 243310.28400000167,
      "d": 393.1033500000194,
      "v": 66
    },
    {
      "midi": 60,
      "hit": false,
      "t": 243320.62882500168,
      "d": 1117.2411000000138,
      "v": 53
    },
    {
      "midi": 74,
      "hit": false,
      "t": 243713.7321750017,
      "d": 472.41367499998887,
      "v": 56
    },
    {
      "midi": 72,
      "hit": false,
      "t": 244151.6631000017,
      "d": 417.2412750000076,
      "v": 61
    },
    {
      "midi": 56,
      "hit": false,
      "t": 244551.6630000017,
      "d": 1148.275575000007,
      "v": 53
    },
    {
      "midi": 59,
      "hit": false,
      "t": 244551.6630000017,
      "d": 2403.4476750000613,
      "v": 53
    },
    {
      "midi": 52,
      "hit": false,
      "t": 244551.6630000017,
      "d": 2420.6890500000736,
      "v": 53
    },
    {
      "midi": 71,
      "hit": false,
      "t": 244558.5595500017,
      "d": 1948.2753750000265,
      "v": 65
    },
    {
      "midi": 56,
      "hit": false,
      "t": 245793.0420000017,
      "d": 1148.275575000036,
      "v": 59
    },
    {
      "midi": 74,
      "hit": false,
      "t": 246203.3867250017,
      "d": 437.9309250000224,
      "v": 62
    },
    {
      "midi": 71,
      "hit": false,
      "t": 246624.07627500172,
      "d": 362.0688750000554,
      "v": 66
    },
    {
      "midi": 56,
      "hit": false,
      "t": 247034.42100000178,
      "d": 1158.6204000000143,
      "v": 53
    },
    {
      "midi": 62,
      "hit": false,
      "t": 247034.42100000178,
      "d": 1158.6204000000143,
      "v": 53
    },
    {
      "midi": 58,
      "hit": false,
      "t": 247034.42100000178,
      "d": 2441.37870000003,
      "v": 53
    },
    {
      "midi": 53,
      "hit": false,
      "t": 247034.42100000178,
      "d": 2455.17180000004,
      "v": 53
    },
    {
      "midi": 56,
      "hit": false,
      "t": 248286.1448250018,
      "d": 1158.6204000000143,
      "v": 53
    },
    {
      "midi": 62,
      "hit": false,
      "t": 248286.1448250018,
      "d": 1158.6204000000143,
      "v": 53
    },
    {
      "midi": 69,
      "hit": false,
      "t": 249517.1790000018,
      "d": 444.82747499999823,
      "v": 73
    },
    {
      "midi": 57,
      "hit": false,
      "t": 249517.1790000018,
      "d": 1182.7583250000025,
      "v": 53
    },
    {
      "midi": 61,
      "hit": false,
      "t": 249517.1790000018,
      "d": 2444.8269750000327,
      "v": 53
    },
    {
      "midi": 53,
      "hit": false,
      "t": 249517.1790000018,
      "d": 2455.17180000004,
      "v": 53
    },
    {
      "midi": 73,
      "hit": false,
      "t": 249941.31682500182,
      "d": 448.2757500000007,
      "v": 63
    },
    {
      "midi": 69,
      "hit": false,
      "t": 250337.8684500018,
      "d": 341.3792250000115,
      "v": 63
    },
    {
      "midi": 57,
      "hit": false,
      "t": 250751.66145000182,
      "d": 1182.7583250000025,
      "v": 53
    },
    {
      "midi": 69,
      "hit": false,
      "t": 250758.55800000182,
      "d": 1193.10315000001,
      "v": 65
    },
    {
      "midi": 57,
      "hit": false,
      "t": 251999.93700000184,
      "d": 1148.275575000007,
      "v": 53
    },
    {
      "midi": 62,
      "hit": false,
      "t": 251999.93700000184,
      "d": 2182.7580750000197,
      "v": 53
    },
    {
      "midi": 53,
      "hit": false,
      "t": 251999.93700000184,
      "d": 2406.8959500000346,
      "v": 53
    },
    {
      "midi": 57,
      "hit": false,
      "t": 253241.31600000185,
      "d": 1148.275575000007,
      "v": 53
    },
    {
      "midi": 62,
      "hit": false,
      "t": 254344.76400000186,
      "d": 148.2758250000188,
      "v": 46
    },
    {
      "midi": 60,
      "hit": false,
      "t": 254482.69500000187,
      "d": 1117.2411000000138,
      "v": 53
    },
    {
      "midi": 57,
      "hit": false,
      "t": 254482.69500000187,
      "d": 2334.482175000041,
      "v": 53
    },
    {
      "midi": 53,
      "hit": false,
      "t": 254482.69500000187,
      "d": 2355.1718250000267,
      "v": 53
    },
    {
      "midi": 65,
      "hit": false,
      "t": 254482.69500000187,
      "d": 2365.516650000034,
      "v": 58
    },
    {
      "midi": 69,
      "hit": false,
      "t": 255724.07400000188,
      "d": 393.1033500000194,
      "v": 66
    },
    {
      "midi": 60,
      "hit": false,
      "t": 255734.4188250019,
      "d": 1117.2411000000138,
      "v": 53
    },
    {
      "midi": 74,
      "hit": false,
      "t": 256127.5221750019,
      "d": 472.41367499998887,
      "v": 56
    },
    {
      "midi": 72,
      "hit": false,
      "t": 256565.4531000019,
      "d": 417.2412750000076,
      "v": 61
    },
    {
      "midi": 56,
      "hit": false,
      "t": 256965.4530000019,
      "d": 1148.275575000007,
      "v": 53
    },
    {
      "midi": 59,
      "hit": false,
      "t": 256965.4530000019,
      "d": 2403.4476750000613,
      "v": 53
    },
    {
      "midi": 52,
      "hit": false,
      "t": 256965.4530000019,
      "d": 2420.6890500000736,
      "v": 53
    },
    {
      "midi": 71,
      "hit": false,
      "t": 256972.3495500019,
      "d": 1948.2753750000265,
      "v": 65
    },
    {
      "midi": 56,
      "hit": false,
      "t": 258206.83200000192,
      "d": 1148.275575000036,
      "v": 59
    },
    {
      "midi": 74,
      "hit": false,
      "t": 258617.17672500192,
      "d": 437.9309250000224,
      "v": 62
    },
    {
      "midi": 71,
      "hit": false,
      "t": 259037.86627500193,
      "d": 362.0688750000554,
      "v": 66
    },
    {
      "midi": 56,
      "hit": false,
      "t": 259448.211000002,
      "d": 1158.6204000000143,
      "v": 53
    },
    {
      "midi": 62,
      "hit": false,
      "t": 259448.211000002,
      "d": 1158.6204000000143,
      "v": 53
    },
    {
      "midi": 58,
      "hit": false,
      "t": 259448.211000002,
      "d": 2441.37870000003,
      "v": 53
    },
    {
      "midi": 53,
      "hit": false,
      "t": 259448.211000002,
      "d": 2455.17180000004,
      "v": 53
    },
    {
      "midi": 56,
      "hit": false,
      "t": 260699.934825002,
      "d": 1158.6204000000143,
      "v": 53
    },
    {
      "midi": 62,
      "hit": false,
      "t": 260699.934825002,
      "d": 1158.6204000000143,
      "v": 53
    },
    {
      "midi": 69,
      "hit": false,
      "t": 261930.96900000202,
      "d": 444.82747499999823,
      "v": 57
    },
    {
      "midi": 61,
      "hit": false,
      "t": 261930.96900000202,
      "d": 1168.9652249999926,
      "v": 53
    },
    {
      "midi": 57,
      "hit": false,
      "t": 261930.96900000202,
      "d": 1182.7583250000025,
      "v": 53
    },
    {
      "midi": 53,
      "hit": false,
      "t": 261930.96900000202,
      "d": 2451.723524999921,
      "v": 53
    },
    {
      "midi": 73,
      "hit": false,
      "t": 262355.106825002,
      "d": 448.2757500000298,
      "v": 50
    },
    {
      "midi": 69,
      "hit": false,
      "t": 262751.658450002,
      "d": 341.3792249999824,
      "v": 50
    },
    {
      "midi": 57,
      "hit": false,
      "t": 263165.45145000203,
      "d": 741.3791249999776,
      "v": 53
    },
    {
      "midi": 61,
      "hit": false,
      "t": 263172.34800000204,
      "d": 1168.9652249999344,
      "v": 53
    },
    {
      "midi": 69,
      "hit": false,
      "t": 263172.34800000204,
      "d": 1199.9996999999275,
      "v": 65
    },
    {
      "midi": 57,
      "hit": false,
      "t": 263999.934000002,
      "d": 341.3792249999824,
      "v": 53
    },
    {
      "midi": 57,
      "hit": false,
      "t": 264413.72700000193,
      "d": 1148.2755749999778,
      "v": 53
    },
    {
      "midi": 62,
      "hit": false,
      "t": 264413.72700000193,
      "d": 2182.7580749999615,
      "v": 53
    },
    {
      "midi": 53,
      "hit": false,
      "t": 264413.72700000193,
      "d": 2406.8959499999764,
      "v": 53
    },
    {
      "midi": 57,
      "hit": false,
      "t": 265655.1060000019,
      "d": 1148.275575000036,
      "v": 53
    },
    {
      "midi": 62,
      "hit": false,
      "t": 266758.5540000019,
      "d": 148.2758249999606,
      "v": 46
    },
    {
      "midi": 60,
      "hit": false,
      "t": 266896.4850000019,
      "d": 1117.2410999999847,
      "v": 53
    },
    {
      "midi": 57,
      "hit": false,
      "t": 266896.4850000019,
      "d": 2334.4821749999537,
      "v": 53
    },
    {
      "midi": 53,
      "hit": false,
      "t": 266896.4850000019,
      "d": 2355.1718249999685,
      "v": 53
    },
    {
      "midi": 65,
      "hit": false,
      "t": 266896.4850000019,
      "d": 2365.516649999947,
      "v": 58
    },
    {
      "midi": 69,
      "hit": false,
      "t": 268137.86400000186,
      "d": 393.1033499999903,
      "v": 66
    },
    {
      "midi": 60,
      "hit": false,
      "t": 268148.20882500184,
      "d": 1117.2410999999847,
      "v": 53
    },
    {
      "midi": 74,
      "hit": false,
      "t": 268541.31217500183,
      "d": 472.413675000018,
      "v": 56
    },
    {
      "midi": 72,
      "hit": false,
      "t": 268979.2431000018,
      "d": 417.2412749999785,
      "v": 61
    },
    {
      "midi": 56,
      "hit": false,
      "t": 269379.2430000018,
      "d": 1148.2755749999778,
      "v": 53
    },
    {
      "midi": 59,
      "hit": false,
      "t": 269379.2430000018,
      "d": 2403.447674999945,
      "v": 53
    },
    {
      "midi": 52,
      "hit": false,
      "t": 269379.2430000018,
      "d": 2420.689049999928,
      "v": 53
    },
    {
      "midi": 71,
      "hit": false,
      "t": 269386.1395500018,
      "d": 1948.2753749999101,
      "v": 65
    },
    {
      "midi": 56,
      "hit": false,
      "t": 270620.6220000018,
      "d": 1148.2755749999778,
      "v": 59
    },
    {
      "midi": 74,
      "hit": false,
      "t": 271030.96672500175,
      "d": 437.9309249999933,
      "v": 62
    },
    {
      "midi": 71,
      "hit": false,
      "t": 271451.65627500176,
      "d": 362.0688749999972,
      "v": 66
    },
    {
      "midi": 56,
      "hit": false,
      "t": 271862.00100000174,
      "d": 1158.6204000000143,
      "v": 53
    },
    {
      "midi": 62,
      "hit": false,
      "t": 271862.00100000174,
      "d": 1158.6204000000143,
      "v": 53
    },
    {
      "midi": 58,
      "hit": false,
      "t": 271862.00100000174,
      "d": 2441.378700000001,
      "v": 53
    },
    {
      "midi": 53,
      "hit": false,
      "t": 271862.00100000174,
      "d": 2455.171800000011,
      "v": 53
    },
    {
      "midi": 56,
      "hit": false,
      "t": 273113.72482500173,
      "d": 1158.6204000000143,
      "v": 53
    },
    {
      "midi": 62,
      "hit": false,
      "t": 273113.72482500173,
      "d": 1158.6204000000143,
      "v": 53
    },
    {
      "midi": 69,
      "hit": false,
      "t": 274344.75900000177,
      "d": 444.82747499999823,
      "v": 73
    },
    {
      "midi": 57,
      "hit": false,
      "t": 274344.75900000177,
      "d": 1182.7583250000025,
      "v": 53
    },
    {
      "midi": 61,
      "hit": false,
      "t": 274344.75900000177,
      "d": 2444.8269749999745,
      "v": 53
    },
    {
      "midi": 53,
      "hit": false,
      "t": 274344.75900000177,
      "d": 2455.171799999953,
      "v": 53
    },
    {
      "midi": 73,
      "hit": false,
      "t": 274768.89682500175,
      "d": 448.2757500000298,
      "v": 63
    },
    {
      "midi": 69,
      "hit": false,
      "t": 275165.4484500018,
      "d": 341.3792249999824,
      "v": 63
    },
    {
      "midi": 57,
      "hit": false,
      "t": 275579.2414500018,
      "d": 1182.7583250000025,
      "v": 53
    },
    {
      "midi": 69,
      "hit": false,
      "t": 275586.1380000018,
      "d": 1193.1031499999808,
      "v": 65
    },
    {
      "midi": 57,
      "hit": false,
      "t": 276827.51700000174,
      "d": 1148.2755749999778,
      "v": 53
    },
    {
      "midi": 62,
      "hit": false,
      "t": 276827.51700000174,
      "d": 2182.7580749999615,
      "v": 53
    },
    {
      "midi": 53,
      "hit": false,
      "t": 276827.51700000174,
      "d": 2406.8959499999764,
      "v": 53
    },
    {
      "midi": 57,
      "hit": false,
      "t": 278068.8960000017,
      "d": 1148.275575000036,
      "v": 53
    },
    {
      "midi": 62,
      "hit": false,
      "t": 279172.3440000017,
      "d": 148.2758249999606,
      "v": 46
    },
    {
      "midi": 60,
      "hit": false,
      "t": 279310.2750000017,
      "d": 1117.2410999999847,
      "v": 53
    },
    {
      "midi": 57,
      "hit": false,
      "t": 279310.2750000017,
      "d": 2334.4821749999537,
      "v": 53
    },
    {
      "midi": 53,
      "hit": false,
      "t": 279310.2750000017,
      "d": 2355.1718249999685,
      "v": 53
    },
    {
      "midi": 65,
      "hit": false,
      "t": 279310.2750000017,
      "d": 2365.516649999947,
      "v": 58
    },
    {
      "midi": 69,
      "hit": false,
      "t": 280551.65400000167,
      "d": 393.1033499999903,
      "v": 66
    },
    {
      "midi": 60,
      "hit": false,
      "t": 280561.99882500165,
      "d": 1117.2410999999847,
      "v": 53
    },
    {
      "midi": 74,
      "hit": false,
      "t": 280955.10217500164,
      "d": 472.413675000018,
      "v": 56
    },
    {
      "midi": 72,
      "hit": false,
      "t": 281393.03310000163,
      "d": 417.2412749999785,
      "v": 61
    },
    {
      "midi": 56,
      "hit": false,
      "t": 281793.0330000016,
      "d": 1148.2755749999778,
      "v": 53
    },
    {
      "midi": 59,
      "hit": false,
      "t": 281793.0330000016,
      "d": 2403.447674999945,
      "v": 53
    },
    {
      "midi": 52,
      "hit": false,
      "t": 281793.0330000016,
      "d": 2420.689049999928,
      "v": 53
    },
    {
      "midi": 71,
      "hit": false,
      "t": 281799.92955000163,
      "d": 1948.2753749999101,
      "v": 65
    },
    {
      "midi": 56,
      "hit": false,
      "t": 283034.4120000016,
      "d": 1148.2755749999778,
      "v": 59
    },
    {
      "midi": 74,
      "hit": false,
      "t": 283444.75672500156,
      "d": 437.9309249999933,
      "v": 62
    },
    {
      "midi": 71,
      "hit": false,
      "t": 283865.44627500157,
      "d": 362.0688749999972,
      "v": 66
    },
    {
      "midi": 56,
      "hit": false,
      "t": 284275.79100000154,
      "d": 1158.6204000000143,
      "v": 53
    },
    {
      "midi": 62,
      "hit": false,
      "t": 284275.79100000154,
      "d": 1158.6204000000143,
      "v": 53
    },
    {
      "midi": 58,
      "hit": false,
      "t": 284275.79100000154,
      "d": 2441.378700000001,
      "v": 53
    },
    {
      "midi": 53,
      "hit": false,
      "t": 284275.79100000154,
      "d": 2455.171800000011,
      "v": 53
    },
    {
      "midi": 56,
      "hit": false,
      "t": 285527.51482500153,
      "d": 1158.6204000000143,
      "v": 53
    },
    {
      "midi": 62,
      "hit": false,
      "t": 285527.51482500153,
      "d": 1158.6204000000143,
      "v": 53
    },
    {
      "midi": 69,
      "hit": false,
      "t": 286758.54900000157,
      "d": 444.82747499999823,
      "v": 57
    },
    {
      "midi": 61,
      "hit": false,
      "t": 286758.54900000157,
      "d": 1168.9652249999926,
      "v": 53
    },
    {
      "midi": 57,
      "hit": false,
      "t": 286758.54900000157,
      "d": 1182.7583250000025,
      "v": 53
    },
    {
      "midi": 53,
      "hit": false,
      "t": 286758.54900000157,
      "d": 2451.723524999921,
      "v": 53
    },
    {
      "midi": 73,
      "hit": false,
      "t": 287182.68682500155,
      "d": 448.2757500000298,
      "v": 50
    },
    {
      "midi": 69,
      "hit": false,
      "t": 287579.2384500016,
      "d": 341.3792249999824,
      "v": 50
    },
    {
      "midi": 57,
      "hit": false,
      "t": 287993.0314500016,
      "d": 741.3791249999776,
      "v": 53
    },
    {
      "midi": 61,
      "hit": false,
      "t": 287999.9280000016,
      "d": 1168.9652249999344,
      "v": 53
    },
    {
      "midi": 69,
      "hit": false,
      "t": 287999.9280000016,
      "d": 1199.9996999999275,
      "v": 65
    },
    {
      "midi": 57,
      "hit": false,
      "t": 288827.51400000154,
      "d": 341.3792249999824,
      "v": 53
    },
    {
      "midi": 57,
      "hit": false,
      "t": 289241.3070000015,
      "d": 1148.2755749999778,
      "v": 53
    },
    {
      "midi": 62,
      "hit": false,
      "t": 289241.3070000015,
      "d": 2182.7580749999615,
      "v": 53
    },
    {
      "midi": 53,
      "hit": false,
      "t": 289241.3070000015,
      "d": 2406.8959499999764,
      "v": 53
    },
    {
      "midi": 57,
      "hit": false,
      "t": 290482.68600000144,
      "d": 1148.275575000036,
      "v": 53
    },
    {
      "midi": 62,
      "hit": false,
      "t": 291586.1340000015,
      "d": 148.2758249999606,
      "v": 46
    },
    {
      "midi": 60,
      "hit": false,
      "t": 291724.06500000146,
      "d": 1117.2410999999847,
      "v": 53
    },
    {
      "midi": 57,
      "hit": false,
      "t": 291724.06500000146,
      "d": 2334.4821749999537,
      "v": 53
    },
    {
      "midi": 53,
      "hit": false,
      "t": 291724.06500000146,
      "d": 2355.1718249999685,
      "v": 53
    },
    {
      "midi": 65,
      "hit": false,
      "t": 291724.06500000146,
      "d": 2365.516649999947,
      "v": 58
    },
    {
      "midi": 69,
      "hit": false,
      "t": 292965.4440000014,
      "d": 393.1033499999903,
      "v": 66
    },
    {
      "midi": 60,
      "hit": false,
      "t": 292975.7888250014,
      "d": 1117.2410999999847,
      "v": 53
    },
    {
      "midi": 74,
      "hit": false,
      "t": 293368.8921750014,
      "d": 472.413675000018,
      "v": 56
    },
    {
      "midi": 72,
      "hit": false,
      "t": 293806.8231000014,
      "d": 417.2412749999785,
      "v": 61
    },
    {
      "midi": 56,
      "hit": false,
      "t": 294206.8230000014,
      "d": 1148.2755749999778,
      "v": 53
    },
    {
      "midi": 59,
      "hit": false,
      "t": 294206.8230000014,
      "d": 2403.447674999945,
      "v": 53
    },
    {
      "midi": 52,
      "hit": false,
      "t": 294206.8230000014,
      "d": 2420.689049999928,
      "v": 53
    },
    {
      "midi": 71,
      "hit": false,
      "t": 294213.7195500014,
      "d": 1948.2753749999101,
      "v": 65
    },
    {
      "midi": 56,
      "hit": false,
      "t": 295448.2020000013,
      "d": 1148.2755749999778,
      "v": 59
    },
    {
      "midi": 74,
      "hit": false,
      "t": 295858.5467250013,
      "d": 437.9309249999933,
      "v": 62
    },
    {
      "midi": 71,
      "hit": false,
      "t": 296279.2362750013,
      "d": 362.0688749999972,
      "v": 66
    },
    {
      "midi": 56,
      "hit": false,
      "t": 296689.5810000013,
      "d": 1158.6204000000143,
      "v": 53
    },
    {
      "midi": 62,
      "hit": false,
      "t": 296689.5810000013,
      "d": 1158.6204000000143,
      "v": 53
    },
    {
      "midi": 58,
      "hit": false,
      "t": 296689.5810000013,
      "d": 2441.378700000001,
      "v": 53
    },
    {
      "midi": 53,
      "hit": false,
      "t": 296689.5810000013,
      "d": 2455.171800000011,
      "v": 53
    },
    {
      "midi": 56,
      "hit": false,
      "t": 297941.3048250013,
      "d": 1158.6204000000143,
      "v": 53
    },
    {
      "midi": 62,
      "hit": false,
      "t": 297941.3048250013,
      "d": 1158.6204000000143,
      "v": 53
    },
    {
      "midi": 69,
      "hit": false,
      "t": 299172.3390000013,
      "d": 444.82747499999823,
      "v": 73
    },
    {
      "midi": 57,
      "hit": false,
      "t": 299172.3390000013,
      "d": 1182.7583250000025,
      "v": 53
    },
    {
      "midi": 61,
      "hit": false,
      "t": 299172.3390000013,
      "d": 2444.8269749999745,
      "v": 53
    },
    {
      "midi": 53,
      "hit": false,
      "t": 299172.3390000013,
      "d": 2455.171799999953,
      "v": 53
    },
    {
      "midi": 73,
      "hit": false,
      "t": 299596.4768250013,
      "d": 448.2757500000298,
      "v": 63
    },
    {
      "midi": 69,
      "hit": false,
      "t": 299993.0284500013,
      "d": 341.3792249999824,
      "v": 63
    },
    {
      "midi": 57,
      "hit": false,
      "t": 300406.8214500013,
      "d": 1182.7583250000025,
      "v": 53
    },
    {
      "midi": 69,
      "hit": false,
      "t": 300413.71800000133,
      "d": 1193.1031499999808,
      "v": 65
    },
    {
      "midi": 57,
      "hit": false,
      "t": 301655.0970000013,
      "d": 1148.2755749999778,
      "v": 53
    },
    {
      "midi": 62,
      "hit": false,
      "t": 301655.0970000013,
      "d": 2182.7580749999615,
      "v": 53
    },
    {
      "midi": 53,
      "hit": false,
      "t": 301655.0970000013,
      "d": 2406.8959499999764,
      "v": 53
    },
    {
      "midi": 57,
      "hit": false,
      "t": 302896.47600000125,
      "d": 1148.275575000036,
      "v": 53
    },
    {
      "midi": 62,
      "hit": false,
      "t": 303999.9240000013,
      "d": 148.2758249999606,
      "v": 46
    },
    {
      "midi": 60,
      "hit": false,
      "t": 304137.85500000126,
      "d": 1117.2410999999847,
      "v": 53
    },
    {
      "midi": 57,
      "hit": false,
      "t": 304137.85500000126,
      "d": 2334.4821749999537,
      "v": 53
    },
    {
      "midi": 53,
      "hit": false,
      "t": 304137.85500000126,
      "d": 2355.1718249999685,
      "v": 53
    },
    {
      "midi": 65,
      "hit": false,
      "t": 304137.85500000126,
      "d": 2365.516649999947,
      "v": 58
    },
    {
      "midi": 69,
      "hit": false,
      "t": 305379.2340000012,
      "d": 393.1033499999903,
      "v": 66
    },
    {
      "midi": 60,
      "hit": false,
      "t": 305389.5788250012,
      "d": 1117.2410999999847,
      "v": 53
    },
    {
      "midi": 74,
      "hit": false,
      "t": 305782.6821750012,
      "d": 472.413675000018,
      "v": 56
    },
    {
      "midi": 72,
      "hit": false,
      "t": 306220.6131000012,
      "d": 417.2412749999785,
      "v": 61
    },
    {
      "midi": 56,
      "hit": false,
      "t": 306620.6130000012,
      "d": 1148.2755749999778,
      "v": 53
    },
    {
      "midi": 59,
      "hit": false,
      "t": 306620.6130000012,
      "d": 2403.447674999945,
      "v": 53
    },
    {
      "midi": 52,
      "hit": false,
      "t": 306620.6130000012,
      "d": 2420.689049999928,
      "v": 53
    },
    {
      "midi": 71,
      "hit": false,
      "t": 306627.5095500012,
      "d": 1948.2753749999101,
      "v": 65
    },
    {
      "midi": 56,
      "hit": false,
      "t": 307861.99200000113,
      "d": 1148.2755749999778,
      "v": 59
    },
    {
      "midi": 74,
      "hit": false,
      "t": 308272.3367250011,
      "d": 437.9309249999933,
      "v": 62
    },
    {
      "midi": 71,
      "hit": false,
      "t": 308693.0262750011,
      "d": 362.0688749999972,
      "v": 66
    },
    {
      "midi": 56,
      "hit": false,
      "t": 309103.3710000011,
      "d": 1158.6204000000143,
      "v": 53
    },
    {
      "midi": 62,
      "hit": false,
      "t": 309103.3710000011,
      "d": 1158.6204000000143,
      "v": 53
    },
    {
      "midi": 58,
      "hit": false,
      "t": 309103.3710000011,
      "d": 2441.378700000001,
      "v": 53
    },
    {
      "midi": 53,
      "hit": false,
      "t": 309103.3710000011,
      "d": 2455.171800000011,
      "v": 53
    },
    {
      "midi": 56,
      "hit": false,
      "t": 310355.0948250011,
      "d": 1158.6204000000143,
      "v": 53
    },
    {
      "midi": 62,
      "hit": false,
      "t": 310355.0948250011,
      "d": 1158.6204000000143,
      "v": 53
    },
    {
      "midi": 69,
      "hit": false,
      "t": 311586.1290000011,
      "d": 444.82747499999823,
      "v": 57
    },
    {
      "midi": 61,
      "hit": false,
      "t": 311586.1290000011,
      "d": 1168.9652249999926,
      "v": 53
    },
    {
      "midi": 57,
      "hit": false,
      "t": 311586.1290000011,
      "d": 1182.7583250000025,
      "v": 53
    },
    {
      "midi": 53,
      "hit": false,
      "t": 311586.1290000011,
      "d": 2451.723524999921,
      "v": 53
    },
    {
      "midi": 73,
      "hit": false,
      "t": 312010.2668250011,
      "d": 448.2757500000298,
      "v": 50
    },
    {
      "midi": 69,
      "hit": false,
      "t": 312406.8184500011,
      "d": 341.3792249999824,
      "v": 50
    },
    {
      "midi": 57,
      "hit": false,
      "t": 312820.61145000113,
      "d": 741.3791249999776,
      "v": 53
    },
    {
      "midi": 61,
      "hit": false,
      "t": 312827.50800000114,
      "d": 1168.9652249999344,
      "v": 53
    },
    {
      "midi": 69,
      "hit": false,
      "t": 312827.50800000114,
      "d": 1199.9996999999275,
      "v": 65
    },
    {
      "midi": 57,
      "hit": false,
      "t": 313655.0940000011,
      "d": 341.3792249999824,
      "v": 53
    },
    {
      "midi": 57,
      "hit": false,
      "t": 314068.88700000104,
      "d": 1148.2755749999778,
      "v": 53
    },
    {
      "midi": 62,
      "hit": false,
      "t": 314068.88700000104,
      "d": 2182.7580749999615,
      "v": 53
    },
    {
      "midi": 53,
      "hit": false,
      "t": 314068.88700000104,
      "d": 2406.8959499999764,
      "v": 53
    },
    {
      "midi": 57,
      "hit": false,
      "t": 315310.266000001,
      "d": 1148.275575000036,
      "v": 53
    },
    {
      "midi": 62,
      "hit": false,
      "t": 316413.714000001,
      "d": 148.2758249999606,
      "v": 46
    },
    {
      "midi": 60,
      "hit": false,
      "t": 316551.645000001,
      "d": 1117.2410999999847,
      "v": 53
    },
    {
      "midi": 57,
      "hit": false,
      "t": 316551.645000001,
      "d": 2334.4821749999537,
      "v": 53
    },
    {
      "midi": 53,
      "hit": false,
      "t": 316551.645000001,
      "d": 2355.1718249999685,
      "v": 53
    },
    {
      "midi": 65,
      "hit": false,
      "t": 316551.645000001,
      "d": 2365.516649999947,
      "v": 58
    },
    {
      "midi": 69,
      "hit": false,
      "t": 317793.02400000097,
      "d": 393.1033499999903,
      "v": 66
    },
    {
      "midi": 60,
      "hit": false,
      "t": 317803.36882500094,
      "d": 1117.2410999999847,
      "v": 53
    },
    {
      "midi": 74,
      "hit": false,
      "t": 318196.47217500093,
      "d": 472.413675000018,
      "v": 56
    },
    {
      "midi": 72,
      "hit": false,
      "t": 318634.4031000009,
      "d": 417.2412749999785,
      "v": 61
    },
    {
      "midi": 56,
      "hit": false,
      "t": 319034.4030000009,
      "d": 1148.2755749999778,
      "v": 53
    },
    {
      "midi": 59,
      "hit": false,
      "t": 319034.4030000009,
      "d": 2403.447674999945,
      "v": 53
    },
    {
      "midi": 52,
      "hit": false,
      "t": 319034.4030000009,
      "d": 2420.689049999928,
      "v": 53
    },
    {
      "midi": 71,
      "hit": false,
      "t": 319041.2995500009,
      "d": 1948.2753749999101,
      "v": 65
    },
    {
      "midi": 56,
      "hit": false,
      "t": 320275.7820000009,
      "d": 1148.2755749999778,
      "v": 59
    },
    {
      "midi": 74,
      "hit": false,
      "t": 320686.12672500085,
      "d": 437.9309249999933,
      "v": 62
    },
    {
      "midi": 71,
      "hit": false,
      "t": 321106.81627500086,
      "d": 362.0688749999972,
      "v": 66
    },
    {
      "midi": 56,
      "hit": false,
      "t": 321517.16100000084,
      "d": 1158.6204000000143,
      "v": 53
    },
    {
      "midi": 62,
      "hit": false,
      "t": 321517.16100000084,
      "d": 1158.6204000000143,
      "v": 53
    },
    {
      "midi": 58,
      "hit": false,
      "t": 321517.16100000084,
      "d": 2441.378700000001,
      "v": 53
    },
    {
      "midi": 53,
      "hit": false,
      "t": 321517.16100000084,
      "d": 2455.171800000011,
      "v": 53
    },
    {
      "midi": 56,
      "hit": false,
      "t": 322768.88482500083,
      "d": 1158.6204000000143,
      "v": 53
    },
    {
      "midi": 62,
      "hit": false,
      "t": 322768.88482500083,
      "d": 1158.6204000000143,
      "v": 53
    },
    {
      "midi": 69,
      "hit": false,
      "t": 323999.91900000087,
      "d": 444.82747499999823,
      "v": 73
    },
    {
      "midi": 57,
      "hit": false,
      "t": 323999.91900000087,
      "d": 1182.7583250000025,
      "v": 53
    },
    {
      "midi": 61,
      "hit": false,
      "t": 323999.91900000087,
      "d": 2444.8269749999745,
      "v": 53
    },
    {
      "midi": 53,
      "hit": false,
      "t": 323999.91900000087,
      "d": 2455.171799999953,
      "v": 53
    },
    {
      "midi": 73,
      "hit": false,
      "t": 324424.05682500085,
      "d": 448.2757500000298,
      "v": 63
    },
    {
      "midi": 69,
      "hit": false,
      "t": 324820.6084500009,
      "d": 341.3792249999824,
      "v": 63
    },
    {
      "midi": 57,
      "hit": false,
      "t": 325234.4014500009,
      "d": 1182.7583250000025,
      "v": 53
    },
    {
      "midi": 69,
      "hit": false,
      "t": 325241.2980000009,
      "d": 1193.1031499999808,
      "v": 65
    },
    {
      "midi": 57,
      "hit": false,
      "t": 326482.67700000084,
      "d": 1148.2755749999778,
      "v": 53
    },
    {
      "midi": 62,
      "hit": false,
      "t": 326482.67700000084,
      "d": 2182.7580749999615,
      "v": 53
    },
    {
      "midi": 53,
      "hit": false,
      "t": 326482.67700000084,
      "d": 2406.8959499999764,
      "v": 53
    },
    {
      "midi": 57,
      "hit": false,
      "t": 327724.0560000008,
      "d": 1148.275575000036,
      "v": 53
    },
    {
      "midi": 62,
      "hit": false,
      "t": 328827.50400000083,
      "d": 148.2758249999606,
      "v": 46
    },
    {
      "midi": 60,
      "hit": false,
      "t": 328965.4350000008,
      "d": 1117.2410999999847,
      "v": 53
    },
    {
      "midi": 57,
      "hit": false,
      "t": 328965.4350000008,
      "d": 2334.4821749999537,
      "v": 53
    },
    {
      "midi": 53,
      "hit": false,
      "t": 328965.4350000008,
      "d": 2355.1718249999685,
      "v": 53
    },
    {
      "midi": 65,
      "hit": false,
      "t": 328965.4350000008,
      "d": 2365.516649999947,
      "v": 58
    },
    {
      "midi": 69,
      "hit": false,
      "t": 330206.81400000077,
      "d": 393.1033499999903,
      "v": 66
    },
    {
      "midi": 60,
      "hit": false,
      "t": 330217.15882500075,
      "d": 1117.2410999999847,
      "v": 53
    },
    {
      "midi": 74,
      "hit": false,
      "t": 330610.26217500074,
      "d": 472.413675000018,
      "v": 56
    },
    {
      "midi": 72,
      "hit": false,
      "t": 331048.19310000073,
      "d": 417.2412749999785,
      "v": 61
    },
    {
      "midi": 56,
      "hit": false,
      "t": 331448.1930000007,
      "d": 1148.2755749999778,
      "v": 53
    },
    {
      "midi": 59,
      "hit": false,
      "t": 331448.1930000007,
      "d": 2403.447674999945,
      "v": 53
    },
    {
      "midi": 52,
      "hit": false,
      "t": 331448.1930000007,
      "d": 2420.689049999928,
      "v": 53
    },
    {
      "midi": 71,
      "hit": false,
      "t": 331455.08955000073,
      "d": 1948.2753749999101,
      "v": 65
    },
    {
      "midi": 56,
      "hit": false,
      "t": 332689.5720000007,
      "d": 1148.2755749999778,
      "v": 59
    },
    {
      "midi": 74,
      "hit": false,
      "t": 333099.91672500066,
      "d": 437.9309249999933,
      "v": 62
    },
    {
      "midi": 71,
      "hit": false,
      "t": 333520.60627500067,
      "d": 362.0688749999972,
      "v": 66
    },
    {
      "midi": 56,
      "hit": false,
      "t": 333930.95100000064,
      "d": 1158.6204000000143,
      "v": 53
    },
    {
      "midi": 62,
      "hit": false,
      "t": 333930.95100000064,
      "d": 1158.6204000000143,
      "v": 53
    },
    {
      "midi": 58,
      "hit": false,
      "t": 333930.95100000064,
      "d": 2441.378700000001,
      "v": 53
    },
    {
      "midi": 53,
      "hit": false,
      "t": 333930.95100000064,
      "d": 2455.171800000011,
      "v": 53
    },
    {
      "midi": 56,
      "hit": false,
      "t": 335182.67482500063,
      "d": 1158.6204000000143,
      "v": 53
    },
    {
      "midi": 62,
      "hit": false,
      "t": 335182.67482500063,
      "d": 1158.6204000000143,
      "v": 53
    },
    {
      "midi": 69,
      "hit": false,
      "t": 336413.7090000007,
      "d": 444.82747499999823,
      "v": 57
    },
    {
      "midi": 61,
      "hit": false,
      "t": 336413.7090000007,
      "d": 1168.9652249999926,
      "v": 53
    },
    {
      "midi": 57,
      "hit": false,
      "t": 336413.7090000007,
      "d": 1182.7583250000025,
      "v": 53
    },
    {
      "midi": 53,
      "hit": false,
      "t": 336413.7090000007,
      "d": 2451.723524999921,
      "v": 53
    },
    {
      "midi": 73,
      "hit": false,
      "t": 336837.84682500066,
      "d": 448.2757500000298,
      "v": 50
    },
    {
      "midi": 69,
      "hit": false,
      "t": 337234.3984500007,
      "d": 341.3792249999824,
      "v": 50
    },
    {
      "midi": 57,
      "hit": false,
      "t": 337648.1914500007,
      "d": 741.3791249999776,
      "v": 53
    },
    {
      "midi": 61,
      "hit": false,
      "t": 337655.0880000007,
      "d": 1168.9652249999344,
      "v": 53
    },
    {
      "midi": 69,
      "hit": false,
      "t": 337655.0880000007,
      "d": 1199.9996999999275,
      "v": 65
    },
    {
      "midi": 57,
      "hit": false,
      "t": 338482.67400000064,
      "d": 341.3792249999824,
      "v": 53
    },
    {
      "midi": 57,
      "hit": false,
      "t": 338896.4670000006,
      "d": 1148.2755749999778,
      "v": 53
    },
    {
      "midi": 62,
      "hit": false,
      "t": 338896.4670000006,
      "d": 2182.7580749999615,
      "v": 53
    },
    {
      "midi": 53,
      "hit": false,
      "t": 338896.4670000006,
      "d": 2406.8959499999764,
      "v": 53
    },
    {
      "midi": 57,
      "hit": false,
      "t": 340137.84600000054,
      "d": 1148.275575000036,
      "v": 53
    },
    {
      "midi": 62,
      "hit": false,
      "t": 341241.2940000006,
      "d": 148.2758249999606,
      "v": 46
    },
    {
      "midi": 60,
      "hit": false,
      "t": 341379.22500000056,
      "d": 1117.2410999999847,
      "v": 53
    },
    {
      "midi": 57,
      "hit": false,
      "t": 341379.22500000056,
      "d": 2334.4821749999537,
      "v": 53
    },
    {
      "midi": 53,
      "hit": false,
      "t": 341379.22500000056,
      "d": 2355.1718249999685,
      "v": 53
    },
    {
      "midi": 65,
      "hit": false,
      "t": 341379.22500000056,
      "d": 2365.516649999947,
      "v": 58
    },
    {
      "midi": 69,
      "hit": false,
      "t": 342620.6040000005,
      "d": 393.1033499999903,
      "v": 66
    },
    {
      "midi": 60,
      "hit": false,
      "t": 342630.9488250005,
      "d": 1117.2410999999847,
      "v": 53
    },
    {
      "midi": 74,
      "hit": false,
      "t": 343024.0521750005,
      "d": 472.413675000018,
      "v": 56
    },
    {
      "midi": 72,
      "hit": false,
      "t": 343461.9831000005,
      "d": 417.2412749999785,
      "v": 61
    },
    {
      "midi": 56,
      "hit": false,
      "t": 343861.9830000005,
      "d": 1148.2755749999778,
      "v": 53
    },
    {
      "midi": 59,
      "hit": false,
      "t": 343861.9830000005,
      "d": 2403.447674999945,
      "v": 53
    },
    {
      "midi": 52,
      "hit": false,
      "t": 343861.9830000005,
      "d": 2420.689049999928,
      "v": 53
    },
    {
      "midi": 71,
      "hit": false,
      "t": 343868.8795500005,
      "d": 1948.2753749999101,
      "v": 65
    },
    {
      "midi": 56,
      "hit": false,
      "t": 345103.36200000043,
      "d": 1148.2755749999778,
      "v": 59
    },
    {
      "midi": 74,
      "hit": false,
      "t": 345513.7067250004,
      "d": 437.9309249999933,
      "v": 62
    },
    {
      "midi": 71,
      "hit": false,
      "t": 345934.3962750004,
      "d": 362.0688749999972,
      "v": 66
    },
    {
      "midi": 56,
      "hit": false,
      "t": 346344.7410000004,
      "d": 1158.6204000000143,
      "v": 53
    },
    {
      "midi": 62,
      "hit": false,
      "t": 346344.7410000004,
      "d": 1158.6204000000143,
      "v": 53
    },
    {
      "midi": 58,
      "hit": false,
      "t": 346344.7410000004,
      "d": 2441.378700000001,
      "v": 53
    },
    {
      "midi": 53,
      "hit": false,
      "t": 346344.7410000004,
      "d": 2455.171800000011,
      "v": 53
    },
    {
      "midi": 56,
      "hit": false,
      "t": 347596.4648250004,
      "d": 1158.6204000000143,
      "v": 53
    },
    {
      "midi": 62,
      "hit": false,
      "t": 347596.4648250004,
      "d": 1158.6204000000143,
      "v": 53
    },
    {
      "midi": 69,
      "hit": false,
      "t": 348827.4990000004,
      "d": 444.82747499999823,
      "v": 73
    },
    {
      "midi": 57,
      "hit": false,
      "t": 348827.4990000004,
      "d": 1182.7583250000025,
      "v": 53
    },
    {
      "midi": 61,
      "hit": false,
      "t": 348827.4990000004,
      "d": 2444.8269749999745,
      "v": 53
    },
    {
      "midi": 53,
      "hit": false,
      "t": 348827.4990000004,
      "d": 2455.171799999953,
      "v": 53
    },
    {
      "midi": 73,
      "hit": false,
      "t": 349251.6368250004,
      "d": 448.2757500000298,
      "v": 63
    },
    {
      "midi": 69,
      "hit": false,
      "t": 349648.1884500004,
      "d": 341.3792249999824,
      "v": 63
    },
    {
      "midi": 57,
      "hit": false,
      "t": 350061.9814500004,
      "d": 1182.7583250000025,
      "v": 53
    },
    {
      "midi": 69,
      "hit": false,
      "t": 350068.87800000043,
      "d": 1193.1031499999808,
      "v": 65
    },
    {
      "midi": 57,
      "hit": false,
      "t": 351310.2570000004,
      "d": 1148.2755749999778,
      "v": 53
    },
    {
      "midi": 62,
      "hit": false,
      "t": 351310.2570000004,
      "d": 2182.7580749999615,
      "v": 53
    },
    {
      "midi": 53,
      "hit": false,
      "t": 351310.2570000004,
      "d": 2406.8959499999764,
      "v": 53
    },
    {
      "midi": 57,
      "hit": false,
      "t": 352551.63600000035,
      "d": 1148.275575000036,
      "v": 53
    },
    {
      "midi": 62,
      "hit": false,
      "t": 353655.0840000004,
      "d": 148.2758249999606,
      "v": 46
    },
    {
      "midi": 60,
      "hit": false,
      "t": 353793.01500000036,
      "d": 1117.2410999999847,
      "v": 53
    },
    {
      "midi": 57,
      "hit": false,
      "t": 353793.01500000036,
      "d": 2334.4821749999537,
      "v": 53
    },
    {
      "midi": 53,
      "hit": false,
      "t": 353793.01500000036,
      "d": 2355.1718249999685,
      "v": 53
    },
    {
      "midi": 65,
      "hit": false,
      "t": 353793.01500000036,
      "d": 2365.516649999947,
      "v": 58
    },
    {
      "midi": 69,
      "hit": false,
      "t": 355034.3940000003,
      "d": 393.1033499999903,
      "v": 66
    },
    {
      "midi": 60,
      "hit": false,
      "t": 355044.7388250003,
      "d": 1117.2410999999847,
      "v": 53
    },
    {
      "midi": 74,
      "hit": false,
      "t": 355437.8421750003,
      "d": 472.413675000018,
      "v": 56
    },
    {
      "midi": 72,
      "hit": false,
      "t": 355875.7731000003,
      "d": 417.2412749999785,
      "v": 61
    },
    {
      "midi": 56,
      "hit": false,
      "t": 356275.7730000003,
      "d": 1148.2755749999778,
      "v": 53
    },
    {
      "midi": 59,
      "hit": false,
      "t": 356275.7730000003,
      "d": 2403.447674999945,
      "v": 53
    },
    {
      "midi": 52,
      "hit": false,
      "t": 356275.7730000003,
      "d": 2420.689049999928,
      "v": 53
    },
    {
      "midi": 71,
      "hit": false,
      "t": 356282.6695500003,
      "d": 1948.2753749999101,
      "v": 65
    },
    {
      "midi": 56,
      "hit": false,
      "t": 357517.15200000023,
      "d": 1148.2755749999778,
      "v": 59
    },
    {
      "midi": 74,
      "hit": false,
      "t": 357927.4967250002,
      "d": 437.9309249999933,
      "v": 62
    },
    {
      "midi": 71,
      "hit": false,
      "t": 358348.1862750002,
      "d": 362.0688749999972,
      "v": 66
    },
    {
      "midi": 56,
      "hit": false,
      "t": 358758.5310000002,
      "d": 1158.6204000000143,
      "v": 53
    },
    {
      "midi": 62,
      "hit": false,
      "t": 358758.5310000002,
      "d": 1158.6204000000143,
      "v": 53
    },
    {
      "midi": 58,
      "hit": false,
      "t": 358758.5310000002,
      "d": 2441.378700000001,
      "v": 53
    },
    {
      "midi": 53,
      "hit": false,
      "t": 358758.5310000002,
      "d": 2455.171800000011,
      "v": 53
    },
    {
      "midi": 56,
      "hit": false,
      "t": 360010.2548250002,
      "d": 1158.6204000000143,
      "v": 53
    },
    {
      "midi": 62,
      "hit": false,
      "t": 360010.2548250002,
      "d": 1158.6204000000143,
      "v": 53
    },
    {
      "midi": 69,
      "hit": false,
      "t": 361241.2890000002,
      "d": 444.82747499999823,
      "v": 57
    },
    {
      "midi": 61,
      "hit": false,
      "t": 361241.2890000002,
      "d": 1168.9652249999926,
      "v": 53
    },
    {
      "midi": 57,
      "hit": false,
      "t": 361241.2890000002,
      "d": 1182.7583250000025,
      "v": 53
    },
    {
      "midi": 53,
      "hit": false,
      "t": 361241.2890000002,
      "d": 2451.723524999921,
      "v": 53
    },
    {
      "midi": 73,
      "hit": false,
      "t": 361665.4268250002,
      "d": 448.2757500000298,
      "v": 50
    },
    {
      "midi": 69,
      "hit": false,
      "t": 362061.9784500002,
      "d": 341.3792249999824,
      "v": 50
    },
    {
      "midi": 57,
      "hit": false,
      "t": 362475.77145000023,
      "d": 741.3791249999776,
      "v": 53
    },
    {
      "midi": 61,
      "hit": false,
      "t": 362482.66800000024,
      "d": 1168.9652249999344,
      "v": 53
    },
    {
      "midi": 69,
      "hit": false,
      "t": 362482.66800000024,
      "d": 1199.9996999999275,
      "v": 65
    },
    {
      "midi": 57,
      "hit": false,
      "t": 363310.2540000002,
      "d": 341.3792249999824,
      "v": 53
    },
    {
      "midi": 57,
      "hit": false,
      "t": 363724.04700000014,
      "d": 1148.2755749999778,
      "v": 53
    },
    {
      "midi": 62,
      "hit": false,
      "t": 363724.04700000014,
      "d": 2182.7580749999615,
      "v": 53
    },
    {
      "midi": 53,
      "hit": false,
      "t": 363724.04700000014,
      "d": 2406.8959499999764,
      "v": 53
    },
    {
      "midi": 57,
      "hit": false,
      "t": 364965.4260000001,
      "d": 1148.275575000036,
      "v": 53
    },
    {
      "midi": 62,
      "hit": false,
      "t": 366068.8740000001,
      "d": 148.2758249999606,
      "v": 46
    },
    {
      "midi": 60,
      "hit": false,
      "t": 366206.8050000001,
      "d": 1117.2410999999847,
      "v": 53
    },
    {
      "midi": 57,
      "hit": false,
      "t": 366206.8050000001,
      "d": 2334.4821749999537,
      "v": 53
    },
    {
      "midi": 53,
      "hit": false,
      "t": 366206.8050000001,
      "d": 2355.1718249999685,
      "v": 53
    },
    {
      "midi": 65,
      "hit": false,
      "t": 366206.8050000001,
      "d": 2365.516649999947,
      "v": 58
    },
    {
      "midi": 69,
      "hit": false,
      "t": 367448.18400000007,
      "d": 393.1033499999903,
      "v": 66
    },
    {
      "midi": 60,
      "hit": false,
      "t": 367458.52882500004,
      "d": 1117.2410999999847,
      "v": 53
    },
    {
      "midi": 74,
      "hit": false,
      "t": 367851.63217500004,
      "d": 472.413675000018,
      "v": 56
    },
    {
      "midi": 72,
      "hit": false,
      "t": 368289.5631,
      "d": 417.2412749999785,
      "v": 61
    },
    {
      "midi": 56,
      "hit": false,
      "t": 368689.563,
      "d": 1148.2755749999778,
      "v": 53
    },
    {
      "midi": 59,
      "hit": false,
      "t": 368689.563,
      "d": 2403.447674999945,
      "v": 53
    },
    {
      "midi": 52,
      "hit": false,
      "t": 368689.563,
      "d": 2420.689049999928,
      "v": 53
    },
    {
      "midi": 71,
      "hit": false,
      "t": 368696.45955,
      "d": 1948.2753749999101,
      "v": 65
    },
    {
      "midi": 56,
      "hit": false,
      "t": 369930.942,
      "d": 1148.2755749999778,
      "v": 59
    },
    {
      "midi": 74,
      "hit": false,
      "t": 370341.28672499995,
      "d": 437.9309249999933,
      "v": 62
    },
    {
      "midi": 71,
      "hit": false,
      "t": 370761.97627499996,
      "d": 362.0688749999972,
      "v": 66
    },
    {
      "midi": 56,
      "hit": false,
      "t": 371172.32099999994,
      "d": 1158.6204000000143,
      "v": 53
    },
    {
      "midi": 62,
      "hit": false,
      "t": 371172.32099999994,
      "d": 1158.6204000000143,
      "v": 53
    },
    {
      "midi": 58,
      "hit": false,
      "t": 371172.32099999994,
      "d": 2441.378700000001,
      "v": 53
    },
    {
      "midi": 53,
      "hit": false,
      "t": 371172.32099999994,
      "d": 2455.171800000011,
      "v": 53
    },
    {
      "midi": 56,
      "hit": false,
      "t": 372424.04482499993,
      "d": 1158.6204000000143,
      "v": 53
    },
    {
      "midi": 62,
      "hit": false,
      "t": 372424.04482499993,
      "d": 1158.6204000000143,
      "v": 53
    },
    {
      "midi": 69,
      "hit": false,
      "t": 373655.07899999997,
      "d": 444.82747499999823,
      "v": 73
    },
    {
      "midi": 57,
      "hit": false,
      "t": 373655.07899999997,
      "d": 1182.7583250000025,
      "v": 53
    },
    {
      "midi": 61,
      "hit": false,
      "t": 373655.07899999997,
      "d": 2444.8269749999745,
      "v": 53
    },
    {
      "midi": 53,
      "hit": false,
      "t": 373655.07899999997,
      "d": 2455.171799999953,
      "v": 53
    },
    {
      "midi": 73,
      "hit": false,
      "t": 374079.21682499995,
      "d": 448.2757500000298,
      "v": 63
    },
    {
      "midi": 69,
      "hit": false,
      "t": 374475.76845,
      "d": 341.3792249999824,
      "v": 63
    },
    {
      "midi": 57,
      "hit": false,
      "t": 374889.56145,
      "d": 1182.7583250000025,
      "v": 53
    },
    {
      "midi": 69,
      "hit": false,
      "t": 374896.458,
      "d": 1193.1031499999808,
      "v": 65
    },
    {
      "midi": 57,
      "hit": false,
      "t": 376137.83699999994,
      "d": 1148.2755749999778,
      "v": 53
    },
    {
      "midi": 62,
      "hit": false,
      "t": 376137.83699999994,
      "d": 2182.7580749999615,
      "v": 53
    },
    {
      "midi": 53,
      "hit": false,
      "t": 376137.83699999994,
      "d": 2406.8959499999764,
      "v": 53
    },
    {
      "midi": 57,
      "hit": false,
      "t": 377379.2159999999,
      "d": 1148.275575000036,
      "v": 53
    },
    {
      "midi": 62,
      "hit": false,
      "t": 378482.66399999993,
      "d": 148.2758249999606,
      "v": 46
    },
    {
      "midi": 60,
      "hit": false,
      "t": 378620.5949999999,
      "d": 1117.2410999999847,
      "v": 53
    },
    {
      "midi": 57,
      "hit": false,
      "t": 378620.5949999999,
      "d": 2334.4821749999537,
      "v": 53
    },
    {
      "midi": 53,
      "hit": false,
      "t": 378620.5949999999,
      "d": 2355.1718249999685,
      "v": 53
    },
    {
      "midi": 65,
      "hit": false,
      "t": 378620.5949999999,
      "d": 2365.516649999947,
      "v": 58
    },
    {
      "midi": 69,
      "hit": false,
      "t": 379861.9739999999,
      "d": 393.1033499999903,
      "v": 66
    },
    {
      "midi": 60,
      "hit": false,
      "t": 379872.31882499985,
      "d": 1117.2410999999847,
      "v": 53
    },
    {
      "midi": 74,
      "hit": false,
      "t": 380265.42217499984,
      "d": 472.413675000018,
      "v": 56
    },
    {
      "midi": 72,
      "hit": false,
      "t": 380703.35309999983,
      "d": 417.2412749999785,
      "v": 61
    },
    {
      "midi": 56,
      "hit": false,
      "t": 381103.3529999998,
      "d": 1148.2755749999778,
      "v": 53
    },
    {
      "midi": 59,
      "hit": false,
      "t": 381103.3529999998,
      "d": 2403.447674999945,
      "v": 53
    },
    {
      "midi": 52,
      "hit": false,
      "t": 381103.3529999998,
      "d": 2420.689049999928,
      "v": 53
    },
    {
      "midi": 71,
      "hit": false,
      "t": 381110.24954999983,
      "d": 1948.2753749999101,
      "v": 65
    },
    {
      "midi": 56,
      "hit": false,
      "t": 382344.7319999998,
      "d": 1148.2755749999778,
      "v": 59
    },
    {
      "midi": 74,
      "hit": false,
      "t": 382755.07672499976,
      "d": 437.9309249999933,
      "v": 62
    },
    {
      "midi": 71,
      "hit": false,
      "t": 383175.76627499977,
      "d": 362.0688749999972,
      "v": 66
    },
    {
      "midi": 56,
      "hit": false,
      "t": 383586.11099999974,
      "d": 1158.6204000000143,
      "v": 53
    },
    {
      "midi": 62,
      "hit": false,
      "t": 383586.11099999974,
      "d": 1158.6204000000143,
      "v": 53
    },
    {
      "midi": 58,
      "hit": false,
      "t": 383586.11099999974,
      "d": 2441.378700000001,
      "v": 53
    },
    {
      "midi": 53,
      "hit": false,
      "t": 383586.11099999974,
      "d": 2455.171800000011,
      "v": 53
    },
    {
      "midi": 56,
      "hit": false,
      "t": 384837.83482499974,
      "d": 1158.6204000000143,
      "v": 53
    },
    {
      "midi": 62,
      "hit": false,
      "t": 384837.83482499974,
      "d": 1158.6204000000143,
      "v": 53
    },
    {
      "midi": 69,
      "hit": false,
      "t": 386068.8689999998,
      "d": 444.82747499999823,
      "v": 57
    },
    {
      "midi": 61,
      "hit": false,
      "t": 386068.8689999998,
      "d": 1168.9652249999926,
      "v": 53
    },
    {
      "midi": 57,
      "hit": false,
      "t": 386068.8689999998,
      "d": 1182.7583250000025,
      "v": 53
    },
    {
      "midi": 53,
      "hit": false,
      "t": 386068.8689999998,
      "d": 2451.723524999921,
      "v": 53
    },
    {
      "midi": 73,
      "hit": false,
      "t": 386493.00682499976,
      "d": 448.2757500000298,
      "v": 50
    },
    {
      "midi": 69,
      "hit": false,
      "t": 386889.5584499998,
      "d": 341.3792249999824,
      "v": 50
    },
    {
      "midi": 57,
      "hit": false,
      "t": 387303.3514499998,
      "d": 741.3791249999776,
      "v": 53
    },
    {
      "midi": 61,
      "hit": false,
      "t": 387310.2479999998,
      "d": 1168.9652249999344,
      "v": 53
    },
    {
      "midi": 69,
      "hit": false,
      "t": 387310.2479999998,
      "d": 1199.9996999999275,
      "v": 65
    },
    {
      "midi": 57,
      "hit": false,
      "t": 388137.83399999974,
      "d": 341.3792249999824,
      "v": 53
    },
    {
      "midi": 57,
      "hit": false,
      "t": 388551.6269999997,
      "d": 1148.2755749999778,
      "v": 53
    },
    {
      "midi": 62,
      "hit": false,
      "t": 388551.6269999997,
      "d": 2182.7580749999615,
      "v": 53
    },
    {
      "midi": 53,
      "hit": false,
      "t": 388551.6269999997,
      "d": 2406.8959499999764,
      "v": 53
    },
    {
      "midi": 57,
      "hit": false,
      "t": 389793.00599999964,
      "d": 1148.275575000036,
      "v": 53
    },
    {
      "midi": 62,
      "hit": false,
      "t": 390896.4539999997,
      "d": 148.2758249999606,
      "v": 46
    },
    {
      "midi": 60,
      "hit": false,
      "t": 391034.38499999966,
      "d": 1117.2410999999847,
      "v": 53
    },
    {
      "midi": 57,
      "hit": false,
      "t": 391034.38499999966,
      "d": 2334.4821749999537,
      "v": 53
    },
    {
      "midi": 53,
      "hit": false,
      "t": 391034.38499999966,
      "d": 2355.1718249999685,
      "v": 53
    },
    {
      "midi": 65,
      "hit": false,
      "t": 391034.38499999966,
      "d": 2365.516649999947,
      "v": 58
    },
    {
      "midi": 69,
      "hit": false,
      "t": 392275.7639999996,
      "d": 393.1033499999903,
      "v": 66
    },
    {
      "midi": 60,
      "hit": false,
      "t": 392286.1088249996,
      "d": 1117.2410999999847,
      "v": 53
    },
    {
      "midi": 74,
      "hit": false,
      "t": 392679.2121749996,
      "d": 472.413675000018,
      "v": 56
    },
    {
      "midi": 72,
      "hit": false,
      "t": 393117.1430999996,
      "d": 417.2412749999785,
      "v": 61
    },
    {
      "midi": 56,
      "hit": false,
      "t": 393517.1429999996,
      "d": 1148.2755749999778,
      "v": 53
    },
    {
      "midi": 59,
      "hit": false,
      "t": 393517.1429999996,
      "d": 2403.447674999945,
      "v": 53
    },
    {
      "midi": 52,
      "hit": false,
      "t": 393517.1429999996,
      "d": 2420.689049999928,
      "v": 53
    },
    {
      "midi": 71,
      "hit": false,
      "t": 393524.0395499996,
      "d": 1948.2753749999101,
      "v": 65
    },
    {
      "midi": 56,
      "hit": false,
      "t": 394758.52199999953,
      "d": 1148.2755749999778,
      "v": 59
    },
    {
      "midi": 74,
      "hit": false,
      "t": 395168.8667249995,
      "d": 437.9309249999933,
      "v": 62
    },
    {
      "midi": 71,
      "hit": false,
      "t": 395589.5562749995,
      "d": 362.0688749999972,
      "v": 66
    },
    {
      "midi": 56,
      "hit": false,
      "t": 395999.9009999995,
      "d": 1158.6204000000143,
      "v": 53
    },
    {
      "midi": 62,
      "hit": false,
      "t": 395999.9009999995,
      "d": 1158.6204000000143,
      "v": 53
    },
    {
      "midi": 58,
      "hit": false,
      "t": 395999.9009999995,
      "d": 2441.378700000001,
      "v": 53
    },
    {
      "midi": 53,
      "hit": false,
      "t": 395999.9009999995,
      "d": 2455.171800000011,
      "v": 53
    },
    {
      "midi": 56,
      "hit": false,
      "t": 397251.6248249995,
      "d": 1158.6204000000143,
      "v": 53
    },
    {
      "midi": 62,
      "hit": false,
      "t": 397251.6248249995,
      "d": 1158.6204000000143,
      "v": 53
    },
    {
      "midi": 69,
      "hit": false,
      "t": 398482.6589999995,
      "d": 444.82747499999823,
      "v": 73
    },
    {
      "midi": 57,
      "hit": false,
      "t": 398482.6589999995,
      "d": 1182.7583250000025,
      "v": 53
    },
    {
      "midi": 61,
      "hit": false,
      "t": 398482.6589999995,
      "d": 2444.8269749999745,
      "v": 53
    },
    {
      "midi": 53,
      "hit": false,
      "t": 398482.6589999995,
      "d": 2455.171799999953,
      "v": 53
    },
    {
      "midi": 73,
      "hit": false,
      "t": 398906.7968249995,
      "d": 448.2757500000298,
      "v": 63
    },
    {
      "midi": 69,
      "hit": false,
      "t": 399303.3484499995,
      "d": 341.3792249999824,
      "v": 63
    },
    {
      "midi": 57,
      "hit": false,
      "t": 399717.14144999953,
      "d": 1182.7583250000025,
      "v": 53
    },
    {
      "midi": 69,
      "hit": false,
      "t": 399724.03799999953,
      "d": 1193.1031499999808,
      "v": 65
    },
    {
      "midi": 57,
      "hit": false,
      "t": 400965.4169999995,
      "d": 1148.2755749999778,
      "v": 53
    },
    {
      "midi": 62,
      "hit": false,
      "t": 400965.4169999995,
      "d": 2182.7580749999615,
      "v": 53
    },
    {
      "midi": 53,
      "hit": false,
      "t": 400965.4169999995,
      "d": 2406.8959499999764,
      "v": 53
    },
    {
      "midi": 57,
      "hit": false,
      "t": 402206.79599999945,
      "d": 1148.275575000036,
      "v": 53
    },
    {
      "midi": 62,
      "hit": false,
      "t": 403310.2439999995,
      "d": 148.2758249999606,
      "v": 46
    },
    {
      "midi": 60,
      "hit": false,
      "t": 403448.17499999946,
      "d": 1117.2410999999847,
      "v": 53
    },
    {
      "midi": 57,
      "hit": false,
      "t": 403448.17499999946,
      "d": 2334.4821749999537,
      "v": 53
    },
    {
      "midi": 53,
      "hit": false,
      "t": 403448.17499999946,
      "d": 2355.1718249999685,
      "v": 53
    },
    {
      "midi": 65,
      "hit": false,
      "t": 403448.17499999946,
      "d": 2365.516649999947,
      "v": 58
    },
    {
      "midi": 69,
      "hit": false,
      "t": 404689.5539999994,
      "d": 393.1033499999903,
      "v": 66
    },
    {
      "midi": 60,
      "hit": false,
      "t": 404699.8988249994,
      "d": 1117.2410999999847,
      "v": 53
    },
    {
      "midi": 74,
      "hit": false,
      "t": 405093.0021749994,
      "d": 472.413675000018,
      "v": 56
    },
    {
      "midi": 72,
      "hit": false,
      "t": 405530.9330999994,
      "d": 417.2412749999785,
      "v": 61
    },
    {
      "midi": 56,
      "hit": false,
      "t": 405930.9329999994,
      "d": 1148.2755749999778,
      "v": 53
    },
    {
      "midi": 59,
      "hit": false,
      "t": 405930.9329999994,
      "d": 2403.447674999945,
      "v": 53
    },
    {
      "midi": 52,
      "hit": false,
      "t": 405930.9329999994,
      "d": 2420.689049999928,
      "v": 53
    },
    {
      "midi": 71,
      "hit": false,
      "t": 405937.8295499994,
      "d": 1948.2753749999101,
      "v": 65
    },
    {
      "midi": 56,
      "hit": false,
      "t": 407172.31199999934,
      "d": 1148.2755749999778,
      "v": 59
    },
    {
      "midi": 74,
      "hit": false,
      "t": 407582.6567249993,
      "d": 437.9309249999933,
      "v": 62
    },
    {
      "midi": 71,
      "hit": false,
      "t": 408003.3462749993,
      "d": 362.0688749999972,
      "v": 66
    },
    {
      "midi": 56,
      "hit": false,
      "t": 408413.6909999993,
      "d": 1158.6204000000143,
      "v": 53
    },
    {
      "midi": 62,
      "hit": false,
      "t": 408413.6909999993,
      "d": 1158.6204000000143,
      "v": 53
    },
    {
      "midi": 58,
      "hit": false,
      "t": 408413.6909999993,
      "d": 2441.378700000001,
      "v": 53
    },
    {
      "midi": 53,
      "hit": false,
      "t": 408413.6909999993,
      "d": 2455.171800000011,
      "v": 53
    },
    {
      "midi": 56,
      "hit": false,
      "t": 409665.4148249993,
      "d": 1158.6204000000143,
      "v": 53
    },
    {
      "midi": 62,
      "hit": false,
      "t": 409665.4148249993,
      "d": 1158.6204000000143,
      "v": 53
    },
    {
      "midi": 69,
      "hit": false,
      "t": 410896.4489999993,
      "d": 444.82747499999823,
      "v": 57
    },
    {
      "midi": 61,
      "hit": false,
      "t": 410896.4489999993,
      "d": 1168.9652249999926,
      "v": 53
    },
    {
      "midi": 57,
      "hit": false,
      "t": 410896.4489999993,
      "d": 1182.7583250000025,
      "v": 53
    },
    {
      "midi": 53,
      "hit": false,
      "t": 410896.4489999993,
      "d": 2451.7235250000376,
      "v": 53
    },
    {
      "midi": 73,
      "hit": false,
      "t": 411320.5868249993,
      "d": 448.2757500000298,
      "v": 50
    },
    {
      "midi": 69,
      "hit": false,
      "t": 411717.13844999933,
      "d": 341.3792249999824,
      "v": 50
    },
    {
      "midi": 57,
      "hit": false,
      "t": 412130.93144999933,
      "d": 741.3791250000359,
      "v": 53
    },
    {
      "midi": 61,
      "hit": false,
      "t": 412137.82799999934,
      "d": 1168.9652250000509,
      "v": 53
    },
    {
      "midi": 69,
      "hit": false,
      "t": 412137.82799999934,
      "d": 1199.999700000044,
      "v": 65
    },
    {
      "midi": 57,
      "hit": false,
      "t": 412965.4139999994,
      "d": 341.3792249999824,
      "v": 53
    },
    {
      "midi": 57,
      "hit": false,
      "t": 413379.20699999935,
      "d": 1148.2755749999778,
      "v": 53
    },
    {
      "midi": 62,
      "hit": false,
      "t": 413379.20699999935,
      "d": 2182.7580749999615,
      "v": 53
    },
    {
      "midi": 53,
      "hit": false,
      "t": 413379.20699999935,
      "d": 2406.8959499999182,
      "v": 53
    },
    {
      "midi": 57,
      "hit": false,
      "t": 414620.5859999993,
      "d": 1148.2755749999778,
      "v": 53
    },
    {
      "midi": 62,
      "hit": false,
      "t": 415724.0339999993,
      "d": 148.2758249999606,
      "v": 46
    },
    {
      "midi": 60,
      "hit": false,
      "t": 415861.96499999927,
      "d": 1117.2410999999847,
      "v": 53
    },
    {
      "midi": 57,
      "hit": false,
      "t": 415861.96499999927,
      "d": 2334.48217500007,
      "v": 53
    },
    {
      "midi": 53,
      "hit": false,
      "t": 415861.96499999927,
      "d": 2355.171825000085,
      "v": 53
    },
    {
      "midi": 65,
      "hit": false,
      "t": 415861.96499999927,
      "d": 2365.5166500000632,
      "v": 58
    },
    {
      "midi": 69,
      "hit": false,
      "t": 417103.3439999993,
      "d": 393.1033499999903,
      "v": 66
    },
    {
      "midi": 60,
      "hit": false,
      "t": 417113.68882499926,
      "d": 1117.241100000043,
      "v": 53
    },
    {
      "midi": 74,
      "hit": false,
      "t": 417506.79217499925,
      "d": 472.4136750000762,
      "v": 56
    },
    {
      "midi": 72,
      "hit": false,
      "t": 417944.7230999993,
      "d": 417.2412749999785,
      "v": 61
    },
    {
      "midi": 56,
      "hit": false,
      "t": 418344.7229999993,
      "d": 1148.2755749999778,
      "v": 53
    },
    {
      "midi": 59,
      "hit": false,
      "t": 418344.7229999993,
      "d": 2403.4476749998867,
      "v": 53
    },
    {
      "midi": 52,
      "hit": false,
      "t": 418344.7229999993,
      "d": 2420.68904999987,
      "v": 53
    },
    {
      "midi": 71,
      "hit": false,
      "t": 418351.6195499993,
      "d": 1948.2753749999101,
      "v": 65
    },
    {
      "midi": 56,
      "hit": false,
      "t": 419586.10199999926,
      "d": 1148.2755749999196,
      "v": 59
    },
    {
      "midi": 74,
      "hit": false,
      "t": 419996.44672499923,
      "d": 437.9309249999351,
      "v": 62
    },
    {
      "midi": 71,
      "hit": false,
      "t": 420417.1362749992,
      "d": 362.0688749999972,
      "v": 66
    }
  ]
}