{
  "jsonPath": "Blues/Rhythm And Blues/The Marvelettes/forever.json",
  "path": "Blues\\Rhythm And Blues\\The Marvelettes\\Forever.mid",
  "name": "Forever",
  "difficulty": "Advanced",
  "bpm": 88.00002346667293,
  "notes": [
    {
      "midi": 40,
      "hit": false,
      "t": 4090.908,
      "d": 2045.4540000000002,
      "v": 92
    },
    {
      "midi": 55,
      "hit": false,
      "t": 4772.726,
      "d": 681.8180000000002,
      "v": 75
    },
    {
      "midi": 59,
      "hit": false,
      "t": 4772.726,
      "d": 681.8180000000002,
      "v": 75
    },
    {
      "midi": 64,
      "hit": false,
      "t": 4772.726,
      "d": 681.8180000000002,
      "v": 75
    },
    {
      "midi": 55,
      "hit": false,
      "t": 5454.544,
      "d": 681.8180000000002,
      "v": 74
    },
    {
      "midi": 59,
      "hit": false,
      "t": 5454.544,
      "d": 681.8180000000002,
      "v": 74
    },
    {
      "midi": 64,
      "hit": false,
      "t": 5454.544,
      "d": 681.8180000000002,
      "v": 74
    },
    {
      "midi": 45,
      "hit": false,
      "t": 6136.362,
      "d": 2045.4540000000006,
      "v": 92
    },
    {
      "midi": 57,
      "hit": false,
      "t": 6818.18,
      "d": 681.8180000000002,
      "v": 75
    },
    {
      "midi": 60,
      "hit": false,
      "t": 6818.18,
      "d": 681.8180000000002,
      "v": 75
    },
    {
      "midi": 64,
      "hit": false,
      "t": 6818.18,
      "d": 681.8180000000002,
      "v": 75
    },
    {
      "midi": 57,
      "hit": false,
      "t": 7499.9980000000005,
      "d": 681.8180000000002,
      "v": 74
    },
    {
      "midi": 60,
      "hit": false,
      "t": 7499.9980000000005,
      "d": 681.8180000000002,
      "v": 74
    },
    {
      "midi": 64,
      "hit": false,
      "t": 7499.9980000000005,
      "d": 681.8180000000002,
      "v": 74
    },
    {
      "midi": 60,
      "hit": false,
      "t": 8181.816000000001,
      "d": 2045.4539999999997,
      "v": 64
    },
    {
      "midi": 62,
      "hit": false,
      "t": 8181.816000000001,
      "d": 2045.4539999999997,
      "v": 64
    },
    {
      "midi": 65,
      "hit": false,
      "t": 8181.816000000001,
      "d": 2045.4539999999997,
      "v": 64
    },
    {
      "midi": 69,
      "hit": false,
      "t": 8181.816000000001,
      "d": 2045.4539999999997,
      "v": 64
    },
    {
      "midi": 57,
      "hit": false,
      "t": 10227.27,
      "d": 1363.6360000000004,
      "v": 64
    },
    {
      "midi": 60,
      "hit": false,
      "t": 10227.27,
      "d": 1363.6360000000004,
      "v": 64
    },
    {
      "midi": 65,
      "hit": false,
      "t": 10227.27,
      "d": 1363.6360000000004,
      "v": 64
    },
    {
      "midi": 43,
      "hit": false,
      "t": 11590.906,
      "d": 227.27266666666583,
      "v": 67
    },
    {
      "midi": 57,
      "hit": false,
      "t": 11590.906,
      "d": 227.27266666666583,
      "v": 70
    },
    {
      "midi": 62,
      "hit": false,
      "t": 11590.906,
      "d": 681.8179999999993,
      "v": 68
    },
    {
      "midi": 59,
      "hit": false,
      "t": 11818.178666666667,
      "d": 454.5453333333335,
      "v": 85
    },
    {
      "midi": 48,
      "hit": false,
      "t": 12272.724,
      "d": 227.27266666666583,
      "v": 67
    },
    {
      "midi": 62,
      "hit": false,
      "t": 12272.724,
      "d": 227.27266666666583,
      "v": 70
    },
    {
      "midi": 67,
      "hit": false,
      "t": 12272.724,
      "d": 1522.726866666666,
      "v": 68
    },
    {
      "midi": 64,
      "hit": false,
      "t": 12499.996666666666,
      "d": 1295.4542000000001,
      "v": 85
    },
    {
      "midi": 55,
      "hit": false,
      "t": 12954.542,
      "d": 124.9999666666663,
      "v": 60
    },
    {
      "midi": 52,
      "hit": false,
      "t": 12954.542,
      "d": 159.09086666666553,
      "v": 68
    },
    {
      "midi": 60,
      "hit": false,
      "t": 12954.542,
      "d": 159.09086666666553,
      "v": 57
    },
    {
      "midi": 52,
      "hit": false,
      "t": 13636.359999999999,
      "d": 159.09086666666735,
      "v": 68
    },
    {
      "midi": 55,
      "hit": false,
      "t": 13636.359999999999,
      "d": 159.09086666666735,
      "v": 61
    },
    {
      "midi": 60,
      "hit": false,
      "t": 13636.359999999999,
      "d": 159.09086666666735,
      "v": 38
    },
    {
      "midi": 40,
      "hit": false,
      "t": 14318.178,
      "d": 2045.453999999998,
      "v": 92
    },
    {
      "midi": 59,
      "hit": false,
      "t": 14999.996,
      "d": 681.8179999999993,
      "v": 75
    },
    {
      "midi": 62,
      "hit": false,
      "t": 14999.996,
      "d": 681.8179999999993,
      "v": 75
    },
    {
      "midi": 64,
      "hit": false,
      "t": 14999.996,
      "d": 681.8179999999993,
      "v": 75
    },
    {
      "midi": 67,
      "hit": false,
      "t": 14999.996,
      "d": 681.8179999999993,
      "v": 75
    },
    {
      "midi": 59,
      "hit": false,
      "t": 15681.813999999998,
      "d": 681.8179999999993,
      "v": 74
    },
    {
      "midi": 62,
      "hit": false,
      "t": 15681.813999999998,
      "d": 681.8179999999993,
      "v": 74
    },
    {
      "midi": 64,
      "hit": false,
      "t": 15681.813999999998,
      "d": 681.8179999999993,
      "v": 74
    },
    {
      "midi": 67,
      "hit": false,
      "t": 15681.813999999998,
      "d": 681.8179999999993,
      "v": 74
    },
    {
      "midi": 57,
      "hit": false,
      "t": 16363.631999999998,
      "d": 2045.4540000000015,
      "v": 64
    },
    {
      "midi": 60,
      "hit": false,
      "t": 16363.631999999998,
      "d": 2045.4540000000015,
      "v": 64
    },
    {
      "midi": 65,
      "hit": false,
      "t": 16363.631999999998,
      "d": 2045.4540000000015,
      "v": 64
    },
    {
      "midi": 43,
      "hit": false,
      "t": 18409.086,
      "d": 2045.453999999998,
      "v": 92
    },
    {
      "midi": 55,
      "hit": false,
      "t": 19090.904,
      "d": 681.8179999999993,
      "v": 75
    },
    {
      "midi": 59,
      "hit": false,
      "t": 19090.904,
      "d": 681.8179999999993,
      "v": 75
    },
    {
      "midi": 62,
      "hit": false,
      "t": 19090.904,
      "d": 681.8179999999993,
      "v": 75
    },
    {
      "midi": 55,
      "hit": false,
      "t": 19772.721999999998,
      "d": 681.8179999999993,
      "v": 74
    },
    {
      "midi": 59,
      "hit": false,
      "t": 19772.721999999998,
      "d": 681.8179999999993,
      "v": 74
    },
    {
      "midi": 62,
      "hit": false,
      "t": 19772.721999999998,
      "d": 681.8179999999993,
      "v": 74
    },
    {
      "midi": 48,
      "hit": false,
      "t": 20454.539999999997,
      "d": 2045.453999999998,
      "v": 92
    },
    {
      "midi": 55,
      "hit": false,
      "t": 21136.357999999997,
      "d": 681.8179999999993,
      "v": 75
    },
    {
      "midi": 60,
      "hit": false,
      "t": 21136.357999999997,
      "d": 681.8179999999993,
      "v": 75
    },
    {
      "midi": 64,
      "hit": false,
      "t": 21136.357999999997,
      "d": 681.8179999999993,
      "v": 75
    },
    {
      "midi": 55,
      "hit": false,
      "t": 21818.175999999996,
      "d": 681.8179999999993,
      "v": 74
    },
    {
      "midi": 60,
      "hit": false,
      "t": 21818.175999999996,
      "d": 681.8179999999993,
      "v": 74
    },
    {
      "midi": 64,
      "hit": false,
      "t": 21818.175999999996,
      "d": 681.8179999999993,
      "v": 74
    },
    {
      "midi": 55,
      "hit": false,
      "t": 22499.993999999995,
      "d": 2045.4540000000015,
      "v": 64
    },
    {
      "midi": 60,
      "hit": false,
      "t": 22499.993999999995,
      "d": 2045.4540000000015,
      "v": 64
    },
    {
      "midi": 64,
      "hit": false,
      "t": 22499.993999999995,
      "d": 2045.4540000000015,
      "v": 64
    },
    {
      "midi": 41,
      "hit": false,
      "t": 24545.447999999997,
      "d": 2045.453999999998,
      "v": 92
    },
    {
      "midi": 57,
      "hit": false,
      "t": 25227.265999999996,
      "d": 681.8179999999993,
      "v": 75
    },
    {
      "midi": 60,
      "hit": false,
      "t": 25227.265999999996,
      "d": 681.8179999999993,
      "v": 75
    },
    {
      "midi": 65,
      "hit": false,
      "t": 25227.265999999996,
      "d": 681.8179999999993,
      "v": 75
    },
    {
      "midi": 57,
      "hit": false,
      "t": 25909.083999999995,
      "d": 681.8179999999993,
      "v": 74
    },
    {
      "midi": 60,
      "hit": false,
      "t": 25909.083999999995,
      "d": 681.8179999999993,
      "v": 74
    },
    {
      "midi": 65,
      "hit": false,
      "t": 25909.083999999995,
      "d": 681.8179999999993,
      "v": 74
    },
    {
      "midi": 55,
      "hit": false,
      "t": 26590.901999999995,
      "d": 2045.4540000000015,
      "v": 64
    },
    {
      "midi": 59,
      "hit": false,
      "t": 26590.901999999995,
      "d": 2045.4540000000015,
      "v": 64
    },
    {
      "midi": 62,
      "hit": false,
      "t": 26590.901999999995,
      "d": 2045.4540000000015,
      "v": 64
    },
    {
      "midi": 53,
      "hit": false,
      "t": 28636.355999999996,
      "d": 227.27266666666765,
      "v": 67
    },
    {
      "midi": 67,
      "hit": false,
      "t": 28636.355999999996,
      "d": 227.27266666666765,
      "v": 70
    },
    {
      "midi": 72,
      "hit": false,
      "t": 28636.355999999996,
      "d": 1522.7268666666641,
      "v": 68
    },
    {
      "midi": 69,
      "hit": false,
      "t": 28863.628666666664,
      "d": 1295.4541999999965,
      "v": 85
    },
    {
      "midi": 60,
      "hit": false,
      "t": 29318.173999999995,
      "d": 124.9999666666663,
      "v": 60
    },
    {
      "midi": 57,
      "hit": false,
      "t": 29318.173999999995,
      "d": 159.09086666666553,
      "v": 68
    },
    {
      "midi": 65,
      "hit": false,
      "t": 29318.173999999995,
      "d": 159.09086666666553,
      "v": 57
    },
    {
      "midi": 57,
      "hit": false,
      "t": 29999.991999999995,
      "d": 159.09086666666553,
      "v": 68
    },
    {
      "midi": 60,
      "hit": false,
      "t": 29999.991999999995,
      "d": 159.09086666666553,
      "v": 61
    },
    {
      "midi": 65,
      "hit": false,
      "t": 29999.991999999995,
      "d": 159.09086666666553,
      "v": 38
    },
    {
      "midi": 52,
      "hit": false,
      "t": 30681.809999999994,
      "d": 2045.453999999998,
      "v": 92
    },
    {
      "midi": 55,
      "hit": false,
      "t": 31363.627999999993,
      "d": 681.8179999999993,
      "v": 75
    },
    {
      "midi": 60,
      "hit": false,
      "t": 31363.627999999993,
      "d": 681.8179999999993,
      "v": 75
    },
    {
      "midi": 64,
      "hit": false,
      "t": 31363.627999999993,
      "d": 681.8179999999993,
      "v": 75
    },
    {
      "midi": 55,
      "hit": false,
      "t": 32045.445999999993,
      "d": 681.8179999999993,
      "v": 74
    },
    {
      "midi": 60,
      "hit": false,
      "t": 32045.445999999993,
      "d": 681.8179999999993,
      "v": 74
    },
    {
      "midi": 64,
      "hit": false,
      "t": 32045.445999999993,
      "d": 681.8179999999993,
      "v": 74
    },
    {
      "midi": 60,
      "hit": false,
      "t": 32727.263999999992,
      "d": 2045.4540000000015,
      "v": 64
    },
    {
      "midi": 62,
      "hit": false,
      "t": 32727.263999999992,
      "d": 2045.4540000000015,
      "v": 64
    },
    {
      "midi": 65,
      "hit": false,
      "t": 32727.263999999992,
      "d": 2045.4540000000015,
      "v": 64
    },
    {
      "midi": 69,
      "hit": false,
      "t": 32727.263999999992,
      "d": 2045.4540000000015,
      "v": 64
    },
    {
      "midi": 53,
      "hit": false,
      "t": 34772.71799999999,
      "d": 227.272666666664,
      "v": 67
    },
    {
      "midi": 67,
      "hit": false,
      "t": 34772.71799999999,
      "d": 227.272666666664,
      "v": 70
    },
    {
      "midi": 72,
      "hit": false,
      "t": 34772.71799999999,
      "d": 1522.7268666666714,
      "v": 68
    },
    {
      "midi": 69,
      "hit": false,
      "t": 34999.99066666666,
      "d": 1295.4542000000074,
      "v": 85
    },
    {
      "midi": 60,
      "hit": false,
      "t": 35454.53599999999,
      "d": 124.99996666666993,
      "v": 60
    },
    {
      "midi": 57,
      "hit": false,
      "t": 35454.53599999999,
      "d": 159.0908666666728,
      "v": 68
    },
    {
      "midi": 65,
      "hit": false,
      "t": 35454.53599999999,
      "d": 159.0908666666728,
      "v": 57
    },
    {
      "midi": 57,
      "hit": false,
      "t": 36136.354,
      "d": 159.09086666666553,
      "v": 68
    },
    {
      "midi": 60,
      "hit": false,
      "t": 36136.354,
      "d": 159.09086666666553,
      "v": 61
    },
    {
      "midi": 65,
      "hit": false,
      "t": 36136.354,
      "d": 159.09086666666553,
      "v": 38
    },
    {
      "midi": 48,
      "hit": false,
      "t": 36818.172,
      "d": 2045.453999999998,
      "v": 92
    },
    {
      "midi": 55,
      "hit": false,
      "t": 37499.99,
      "d": 681.8179999999993,
      "v": 75
    },
    {
      "midi": 60,
      "hit": false,
      "t": 37499.99,
      "d": 681.8179999999993,
      "v": 75
    },
    {
      "midi": 64,
      "hit": false,
      "t": 37499.99,
      "d": 681.8179999999993,
      "v": 75
    },
    {
      "midi": 55,
      "hit": false,
      "t": 38181.808,
      "d": 681.8179999999993,
      "v": 74
    },
    {
      "midi": 60,
      "hit": false,
      "t": 38181.808,
      "d": 681.8179999999993,
      "v": 74
    },
    {
      "midi": 64,
      "hit": false,
      "t": 38181.808,
      "d": 681.8179999999993,
      "v": 74
    },
    {
      "midi": 57,
      "hit": false,
      "t": 38863.626,
      "d": 1363.6359999999986,
      "v": 64
    },
    {
      "midi": 60,
      "hit": false,
      "t": 38863.626,
      "d": 1363.6359999999986,
      "v": 64
    },
    {
      "midi": 65,
      "hit": false,
      "t": 38863.626,
      "d": 1363.6359999999986,
      "v": 64
    },
    {
      "midi": 43,
      "hit": false,
      "t": 40227.261999999995,
      "d": 227.272666666664,
      "v": 67
    },
    {
      "midi": 57,
      "hit": false,
      "t": 40227.261999999995,
      "d": 227.272666666664,
      "v": 70
    },
    {
      "midi": 62,
      "hit": false,
      "t": 40227.261999999995,
      "d": 681.8179999999993,
      "v": 68
    },
    {
      "midi": 59,
      "hit": false,
      "t": 40454.53466666666,
      "d": 454.5453333333353,
      "v": 85
    },
    {
      "midi": 55,
      "hit": false,
      "t": 40909.079999999994,
      "d": 2045.453999999998,
      "v": 64
    },
    {
      "midi": 60,
      "hit": false,
      "t": 40909.079999999994,
      "d": 2045.453999999998,
      "v": 64
    },
    {
      "midi": 64,
      "hit": false,
      "t": 40909.079999999994,
      "d": 2045.453999999998,
      "v": 64
    },
    {
      "midi": 36,
      "hit": false,
      "t": 42954.53399999999,
      "d": 1363.6359999999986,
      "v": 92
    },
    {
      "midi": 57,
      "hit": false,
      "t": 43636.35199999999,
      "d": 681.8179999999993,
      "v": 75
    },
    {
      "midi": 60,
      "hit": false,
      "t": 43636.35199999999,
      "d": 681.8179999999993,
      "v": 75
    },
    {
      "midi": 65,
      "hit": false,
      "t": 43636.35199999999,
      "d": 681.8179999999993,
      "v": 75
    },
    {
      "midi": 36,
      "hit": false,
      "t": 44318.16999999999,
      "d": 681.8179999999993,
      "v": 92
    },
    {
      "midi": 55,
      "hit": false,
      "t": 44999.98799999999,
      "d": 2045.453999999998,
      "v": 64
    },
    {
      "midi": 60,
      "hit": false,
      "t": 44999.98799999999,
      "d": 2045.453999999998,
      "v": 64
    },
    {
      "midi": 64,
      "hit": false,
      "t": 44999.98799999999,
      "d": 2045.453999999998,
      "v": 64
    },
    {
      "midi": 36,
      "hit": false,
      "t": 47045.44199999999,
      "d": 1363.6359999999986,
      "v": 92
    },
    {
      "midi": 57,
      "hit": false,
      "t": 47727.25999999999,
      "d": 681.8179999999993,
      "v": 75
    },
    {
      "midi": 60,
      "hit": false,
      "t": 47727.25999999999,
      "d": 681.8179999999993,
      "v": 75
    },
    {
      "midi": 65,
      "hit": false,
      "t": 47727.25999999999,
      "d": 681.8179999999993,
      "v": 75
    },
    {
      "midi": 35,
      "hit": false,
      "t": 48409.07799999999,
      "d": 681.8179999999993,
      "v": 92
    },
    {
      "midi": 60,
      "hit": false,
      "t": 49090.895999999986,
      "d": 2045.453999999998,
      "v": 64
    },
    {
      "midi": 64,
      "hit": false,
      "t": 49090.895999999986,
      "d": 2045.453999999998,
      "v": 64
    },
    {
      "midi": 67,
      "hit": false,
      "t": 49090.895999999986,
      "d": 2045.453999999998,
      "v": 64
    },
    {
      "midi": 69,
      "hit": false,
      "t": 49090.895999999986,
      "d": 2045.453999999998,
      "v": 64
    },
    {
      "midi": 60,
      "hit": false,
      "t": 51136.349999999984,
      "d": 1363.6359999999986,
      "v": 64
    },
    {
      "midi": 64,
      "hit": false,
      "t": 51136.349999999984,
      "d": 1363.6359999999986,
      "v": 64
    },
    {
      "midi": 67,
      "hit": false,
      "t": 51136.349999999984,
      "d": 1363.6359999999986,
      "v": 64
    },
    {
      "midi": 69,
      "hit": false,
      "t": 51136.349999999984,
      "d": 1363.6359999999986,
      "v": 64
    },
    {
      "midi": 57,
      "hit": false,
      "t": 52499.98599999998,
      "d": 681.8179999999993,
      "v": 64
    },
    {
      "midi": 60,
      "hit": false,
      "t": 52499.98599999998,
      "d": 681.8179999999993,
      "v": 64
    },
    {
      "midi": 62,
      "hit": false,
      "t": 52499.98599999998,
      "d": 681.8179999999993,
      "v": 64
    },
    {
      "midi": 66,
      "hit": false,
      "t": 52499.98599999998,
      "d": 681.8179999999993,
      "v": 64
    },
    {
      "midi": 50,
      "hit": false,
      "t": 53181.80399999998,
      "d": 2045.453999999998,
      "v": 92
    },
    {
      "midi": 60,
      "hit": false,
      "t": 53863.62199999998,
      "d": 681.8179999999993,
      "v": 75
    },
    {
      "midi": 62,
      "hit": false,
      "t": 53863.62199999998,
      "d": 681.8179999999993,
      "v": 75
    },
    {
      "midi": 65,
      "hit": false,
      "t": 53863.62199999998,
      "d": 681.8179999999993,
      "v": 75
    },
    {
      "midi": 69,
      "hit": false,
      "t": 53863.62199999998,
      "d": 681.8179999999993,
      "v": 75
    },
    {
      "midi": 60,
      "hit": false,
      "t": 54545.43999999998,
      "d": 681.8179999999993,
      "v": 74
    },
    {
      "midi": 62,
      "hit": false,
      "t": 54545.43999999998,
      "d": 681.8179999999993,
      "v": 74
    },
    {
      "midi": 65,
      "hit": false,
      "t": 54545.43999999998,
      "d": 681.8179999999993,
      "v": 74
    },
    {
      "midi": 69,
      "hit": false,
      "t": 54545.43999999998,
      "d": 681.8179999999993,
      "v": 74
    },
    {
      "midi": 53,
      "hit": false,
      "t": 55227.25799999998,
      "d": 227.272666666664,
      "v": 67
    },
    {
      "midi": 67,
      "hit": false,
      "t": 55227.25799999998,
      "d": 227.272666666664,
      "v": 70
    },
    {
      "midi": 72,
      "hit": false,
      "t": 55227.25799999998,
      "d": 1522.7268666666714,
      "v": 68
    },
    {
      "midi": 69,
      "hit": false,
      "t": 55454.530666666644,
      "d": 1295.4542000000074,
      "v": 85
    },
    {
      "midi": 60,
      "hit": false,
      "t": 55909.07599999998,
      "d": 124.99996666666993,
      "v": 60
    },
    {
      "midi": 57,
      "hit": false,
      "t": 55909.07599999998,
      "d": 159.0908666666728,
      "v": 68
    },
    {
      "midi": 65,
      "hit": false,
      "t": 55909.07599999998,
      "d": 159.0908666666728,
      "v": 57
    },
    {
      "midi": 57,
      "hit": false,
      "t": 56590.893999999986,
      "d": 159.09086666666553,
      "v": 68
    },
    {
      "midi": 60,
      "hit": false,
      "t": 56590.893999999986,
      "d": 159.09086666666553,
      "v": 61
    },
    {
      "midi": 65,
      "hit": false,
      "t": 56590.893999999986,
      "d": 159.09086666666553,
      "v": 38
    },
    {
      "midi": 55,
      "hit": false,
      "t": 57272.711999999985,
      "d": 2045.453999999998,
      "v": 64
    },
    {
      "midi": 60,
      "hit": false,
      "t": 57272.711999999985,
      "d": 2045.453999999998,
      "v": 64
    },
    {
      "midi": 64,
      "hit": false,
      "t": 57272.711999999985,
      "d": 2045.453999999998,
      "v": 64
    },
    {
      "midi": 57,
      "hit": false,
      "t": 59318.16599999998,
      "d": 2045.453999999998,
      "v": 64
    },
    {
      "midi": 60,
      "hit": false,
      "t": 59318.16599999998,
      "d": 2045.453999999998,
      "v": 64
    },
    {
      "midi": 65,
      "hit": false,
      "t": 59318.16599999998,
      "d": 2045.453999999998,
      "v": 64
    },
    {
      "midi": 36,
      "hit": false,
      "t": 61363.61999999998,
      "d": 2045.453999999998,
      "v": 92
    },
    {
      "midi": 57,
      "hit": false,
      "t": 62045.43799999998,
      "d": 681.8179999999993,
      "v": 75
    },
    {
      "midi": 60,
      "hit": false,
      "t": 62045.43799999998,
      "d": 681.8179999999993,
      "v": 75
    },
    {
      "midi": 65,
      "hit": false,
      "t": 62045.43799999998,
      "d": 681.8179999999993,
      "v": 75
    },
    {
      "midi": 57,
      "hit": false,
      "t": 62727.25599999998,
      "d": 681.8179999999993,
      "v": 74
    },
    {
      "midi": 60,
      "hit": false,
      "t": 62727.25599999998,
      "d": 681.8179999999993,
      "v": 74
    },
    {
      "midi": 65,
      "hit": false,
      "t": 62727.25599999998,
      "d": 681.8179999999993,
      "v": 74
    },
    {
      "midi": 48,
      "hit": false,
      "t": 63409.07399999998,
      "d": 2045.453999999998,
      "v": 64
    },
    {
      "midi": 62,
      "hit": false,
      "t": 63409.07399999998,
      "d": 2045.453999999998,
      "v": 64
    },
    {
      "midi": 64,
      "hit": false,
      "t": 63409.07399999998,
      "d": 2045.453999999998,
      "v": 64
    },
    {
      "midi": 67,
      "hit": false,
      "t": 63409.07399999998,
      "d": 2045.453999999998,
      "v": 64
    },
    {
      "midi": 48,
      "hit": false,
      "t": 65454.52799999998,
      "d": 2045.453999999998,
      "v": 92
    },
    {
      "midi": 55,
      "hit": false,
      "t": 66136.34599999998,
      "d": 681.8179999999993,
      "v": 75
    },
    {
      "midi": 60,
      "hit": false,
      "t": 66136.34599999998,
      "d": 681.8179999999993,
      "v": 75
    },
    {
      "midi": 64,
      "hit": false,
      "t": 66136.34599999998,
      "d": 681.8179999999993,
      "v": 75
    },
    {
      "midi": 55,
      "hit": false,
      "t": 66818.16399999998,
      "d": 681.8179999999993,
      "v": 74
    },
    {
      "midi": 60,
      "hit": false,
      "t": 66818.16399999998,
      "d": 681.8179999999993,
      "v": 74
    },
    {
      "midi": 64,
      "hit": false,
      "t": 66818.16399999998,
      "d": 681.8179999999993,
      "v": 74
    },
    {
      "midi": 48,
      "hit": false,
      "t": 67499.98199999997,
      "d": 227.27266666667128,
      "v": 67
    },
    {
      "midi": 62,
      "hit": false,
      "t": 67499.98199999997,
      "d": 227.27266666667128,
      "v": 70
    },
    {
      "midi": 67,
      "hit": false,
      "t": 67499.98199999997,
      "d": 1522.7268666666641,
      "v": 68
    },
    {
      "midi": 64,
      "hit": false,
      "t": 67727.25466666665,
      "d": 1295.4541999999929,
      "v": 85
    },
    {
      "midi": 55,
      "hit": false,
      "t": 68181.79999999997,
      "d": 124.99996666666993,
      "v": 60
    },
    {
      "midi": 52,
      "hit": false,
      "t": 68181.79999999997,
      "d": 159.09086666666553,
      "v": 68
    },
    {
      "midi": 60,
      "hit": false,
      "t": 68181.79999999997,
      "d": 159.09086666666553,
      "v": 57
    },
    {
      "midi": 52,
      "hit": false,
      "t": 68863.61799999997,
      "d": 159.09086666666553,
      "v": 68
    },
    {
      "midi": 55,
      "hit": false,
      "t": 68863.61799999997,
      "d": 159.09086666666553,
      "v": 61
    },
    {
      "midi": 60,
      "hit": false,
      "t": 68863.61799999997,
      "d": 159.09086666666553,
      "v": 38
    },
    {
      "midi": 40,
      "hit": false,
      "t": 69545.43599999997,
      "d": 2045.453999999998,
      "v": 92
    },
    {
      "midi": 59,
      "hit": false,
      "t": 70227.25399999997,
      "d": 681.8179999999993,
      "v": 75
    },
    {
      "midi": 62,
      "hit": false,
      "t": 70227.25399999997,
      "d": 681.8179999999993,
      "v": 75
    },
    {
      "midi": 64,
      "hit": false,
      "t": 70227.25399999997,
      "d": 681.8179999999993,
      "v": 75
    },
    {
      "midi": 67,
      "hit": false,
      "t": 70227.25399999997,
      "d": 681.8179999999993,
      "v": 75
    },
    {
      "midi": 59,
      "hit": false,
      "t": 70909.07199999997,
      "d": 681.8179999999993,
      "v": 74
    },
    {
      "midi": 62,
      "hit": false,
      "t": 70909.07199999997,
      "d": 681.8179999999993,
      "v": 74
    },
    {
      "midi": 64,
      "hit": false,
      "t": 70909.07199999997,
      "d": 681.8179999999993,
      "v": 74
    },
    {
      "midi": 67,
      "hit": false,
      "t": 70909.07199999997,
      "d": 681.8179999999993,
      "v": 74
    },
    {
      "midi": 53,
      "hit": false,
      "t": 71590.88999999997,
      "d": 227.27266666667128,
      "v": 67
    },
    {
      "midi": 67,
      "hit": false,
      "t": 71590.88999999997,
      "d": 227.27266666667128,
      "v": 70
    },
    {
      "midi": 72,
      "hit": false,
      "t": 71590.88999999997,
      "d": 1522.7268666666641,
      "v": 68
    },
    {
      "midi": 69,
      "hit": false,
      "t": 71818.16266666664,
      "d": 1295.4541999999929,
      "v": 85
    },
    {
      "midi": 60,
      "hit": false,
      "t": 72272.70799999997,
      "d": 124.99996666666993,
      "v": 60
    },
    {
      "midi": 57,
      "hit": false,
      "t": 72272.70799999997,
      "d": 159.09086666666553,
      "v": 68
    },
    {
      "midi": 65,
      "hit": false,
      "t": 72272.70799999997,
      "d": 159.09086666666553,
      "v": 57
    },
    {
      "midi": 57,
      "hit": false,
      "t": 72954.52599999997,
      "d": 159.09086666666553,
      "v": 68
    },
    {
      "midi": 60,
      "hit": false,
      "t": 72954.52599999997,
      "d": 159.09086666666553,
      "v": 61
    },
    {
      "midi": 65,
      "hit": false,
      "t": 72954.52599999997,
      "d": 159.09086666666553,
      "v": 38
    },
    {
      "midi": 43,
      "hit": false,
      "t": 73636.34399999997,
      "d": 227.27266666667128,
      "v": 67
    },
    {
      "midi": 57,
      "hit": false,
      "t": 73636.34399999997,
      "d": 227.27266666667128,
      "v": 70
    },
    {
      "midi": 62,
      "hit": false,
      "t": 73636.34399999997,
      "d": 1522.7268666666641,
      "v": 68
    },
    {
      "midi": 59,
      "hit": false,
      "t": 73863.61666666664,
      "d": 1295.4541999999929,
      "v": 85
    },
    {
      "midi": 50,
      "hit": false,
      "t": 74318.16199999997,
      "d": 124.99996666666993,
      "v": 60
    },
    {
      "midi": 47,
      "hit": false,
      "t": 74318.16199999997,
      "d": 159.09086666666553,
      "v": 68
    },
    {
      "midi": 55,
      "hit": false,
      "t": 74318.16199999997,
      "d": 159.09086666666553,
      "v": 57
    },
    {
      "midi": 47,
      "hit": false,
      "t": 74999.97999999997,
      "d": 159.09086666666553,
      "v": 68
    },
    {
      "midi": 50,
      "hit": false,
      "t": 74999.97999999997,
      "d": 159.09086666666553,
      "v": 61
    },
    {
      "midi": 55,
      "hit": false,
      "t": 74999.97999999997,
      "d": 159.09086666666553,
      "v": 38
    },
    {
      "midi": 48,
      "hit": false,
      "t": 75681.79799999997,
      "d": 227.27266666667128,
      "v": 67
    },
    {
      "midi": 62,
      "hit": false,
      "t": 75681.79799999997,
      "d": 227.27266666667128,
      "v": 70
    },
    {
      "midi": 67,
      "hit": false,
      "t": 75681.79799999997,
      "d": 1522.7268666666641,
      "v": 68
    },
    {
      "midi": 64,
      "hit": false,
      "t": 75909.07066666664,
      "d": 1295.4541999999929,
      "v": 85
    },
    {
      "midi": 55,
      "hit": false,
      "t": 76363.61599999997,
      "d": 124.99996666666993,
      "v": 60
    },
    {
      "midi": 52,
      "hit": false,
      "t": 76363.61599999997,
      "d": 159.09086666666553,
      "v": 68
    },
    {
      "midi": 60,
      "hit": false,
      "t": 76363.61599999997,
      "d": 159.09086666666553,
      "v": 57
    },
    {
      "midi": 52,
      "hit": false,
      "t": 77045.43399999996,
      "d": 159.09086666666553,
      "v": 68
    },
    {
      "midi": 55,
      "hit": false,
      "t": 77045.43399999996,
      "d": 159.09086666666553,
      "v": 61
    },
    {
      "midi": 60,
      "hit": false,
      "t": 77045.43399999996,
      "d": 159.09086666666553,
      "v": 38
    },
    {
      "midi": 55,
      "hit": false,
      "t": 77727.25199999996,
      "d": 2045.453999999998,
      "v": 64
    },
    {
      "midi": 60,
      "hit": false,
      "t": 77727.25199999996,
      "d": 2045.453999999998,
      "v": 64
    },
    {
      "midi": 64,
      "hit": false,
      "t": 77727.25199999996,
      "d": 2045.453999999998,
      "v": 64
    },
    {
      "midi": 53,
      "hit": false,
      "t": 79772.70599999996,
      "d": 227.27266666667128,
      "v": 67
    },
    {
      "midi": 67,
      "hit": false,
      "t": 79772.70599999996,
      "d": 227.27266666667128,
      "v": 70
    },
    {
      "midi": 72,
      "hit": false,
      "t": 79772.70599999996,
      "d": 1522.7268666666641,
      "v": 68
    },
    {
      "midi": 69,
      "hit": false,
      "t": 79999.97866666663,
      "d": 1295.4541999999929,
      "v": 85
    },
    {
      "midi": 60,
      "hit": false,
      "t": 80454.52399999996,
      "d": 124.99996666666993,
      "v": 60
    },
    {
      "midi": 57,
      "hit": false,
      "t": 80454.52399999996,
      "d": 159.09086666666553,
      "v": 68
    },
    {
      "midi": 65,
      "hit": false,
      "t": 80454.52399999996,
      "d": 159.09086666666553,
      "v": 57
    },
    {
      "midi": 57,
      "hit": false,
      "t": 81136.34199999996,
      "d": 159.09086666666553,
      "v": 68
    },
    {
      "midi": 60,
      "hit": false,
      "t": 81136.34199999996,
      "d": 159.09086666666553,
      "v": 61
    },
    {
      "midi": 65,
      "hit": false,
      "t": 81136.34199999996,
      "d": 159.09086666666553,
      "v": 38
    },
    {
      "midi": 43,
      "hit": false,
      "t": 81818.15999999996,
      "d": 227.27266666667128,
      "v": 67
    },
    {
      "midi": 57,
      "hit": false,
      "t": 81818.15999999996,
      "d": 227.27266666667128,
      "v": 70
    },
    {
      "midi": 62,
      "hit": false,
      "t": 81818.15999999996,
      "d": 1522.7268666666641,
      "v": 68
    },
    {
      "midi": 59,
      "hit": false,
      "t": 82045.43266666663,
      "d": 1295.4541999999929,
      "v": 85
    },
    {
      "midi": 50,
      "hit": false,
      "t": 82499.97799999996,
      "d": 124.99996666666993,
      "v": 60
    },
    {
      "midi": 47,
      "hit": false,
      "t": 82499.97799999996,
      "d": 159.09086666666553,
      "v": 68
    },
    {
      "midi": 55,
      "hit": false,
      "t": 82499.97799999996,
      "d": 159.09086666666553,
      "v": 57
    },
    {
      "midi": 47,
      "hit": false,
      "t": 83181.79599999996,
      "d": 159.09086666666553,
      "v": 68
    },
    {
      "midi": 50,
      "hit": false,
      "t": 83181.79599999996,
      "d": 159.09086666666553,
      "v": 61
    },
    {
      "midi": 55,
      "hit": false,
      "t": 83181.79599999996,
      "d": 159.09086666666553,
      "v": 38
    },
    {
      "midi": 53,
      "hit": false,
      "t": 83863.61399999996,
      "d": 227.27266666667128,
      "v": 67
    },
    {
      "midi": 67,
      "hit": false,
      "t": 83863.61399999996,
      "d": 227.27266666667128,
      "v": 70
    },
    {
      "midi": 72,
      "hit": false,
      "t": 83863.61399999996,
      "d": 1522.7268666666641,
      "v": 68
    },
    {
      "midi": 69,
      "hit": false,
      "t": 84090.88666666663,
      "d": 1295.4541999999929,
      "v": 85
    },
    {
      "midi": 60,
      "hit": false,
      "t": 84545.43199999996,
      "d": 124.99996666666993,
      "v": 60
    },
    {
      "midi": 57,
      "hit": false,
      "t": 84545.43199999996,
      "d": 159.09086666666553,
      "v": 68
    },
    {
      "midi": 65,
      "hit": false,
      "t": 84545.43199999996,
      "d": 159.09086666666553,
      "v": 57
    },
    {
      "midi": 57,
      "hit": false,
      "t": 85227.24999999996,
      "d": 159.09086666666553,
      "v": 68
    },
    {
      "midi": 60,
      "hit": false,
      "t": 85227.24999999996,
      "d": 159.09086666666553,
      "v": 61
    },
    {
      "midi": 65,
      "hit": false,
      "t": 85227.24999999996,
      "d": 159.09086666666553,
      "v": 38
    },
    {
      "midi": 48,
      "hit": false,
      "t": 85909.06799999996,
      "d": 227.27266666667128,
      "v": 67
    },
    {
      "midi": 62,
      "hit": false,
      "t": 85909.06799999996,
      "d": 227.27266666667128,
      "v": 70
    },
    {
      "midi": 67,
      "hit": false,
      "t": 85909.06799999996,
      "d": 1522.7268666666641,
      "v": 68
    },
    {
      "midi": 64,
      "hit": false,
      "t": 86136.34066666663,
      "d": 1295.4541999999929,
      "v": 85
    },
    {
      "midi": 55,
      "hit": false,
      "t": 86590.88599999995,
      "d": 124.99996666666993,
      "v": 60
    },
    {
      "midi": 52,
      "hit": false,
      "t": 86590.88599999995,
      "d": 159.09086666666553,
      "v": 68
    },
    {
      "midi": 60,
      "hit": false,
      "t": 86590.88599999995,
      "d": 159.09086666666553,
      "v": 57
    },
    {
      "midi": 52,
      "hit": false,
      "t": 87272.70399999995,
      "d": 159.09086666666553,
      "v": 68
    },
    {
      "midi": 55,
      "hit": false,
      "t": 87272.70399999995,
      "d": 159.09086666666553,
      "v": 61
    },
    {
      "midi": 60,
      "hit": false,
      "t": 87272.70399999995,
      "d": 159.09086666666553,
      "v": 38
    },
    {
      "midi": 50,
      "hit": false,
      "t": 87954.52199999995,
      "d": 2045.453999999998,
      "v": 92
    },
    {
      "midi": 60,
      "hit": false,
      "t": 88636.33999999995,
      "d": 681.8179999999993,
      "v": 75
    },
    {
      "midi": 62,
      "hit": false,
      "t": 88636.33999999995,
      "d": 681.8179999999993,
      "v": 75
    },
    {
      "midi": 65,
      "hit": false,
      "t": 88636.33999999995,
      "d": 681.8179999999993,
      "v": 75
    },
    {
      "midi": 69,
      "hit": false,
      "t": 88636.33999999995,
      "d": 681.8179999999993,
      "v": 75
    },
    {
      "midi": 60,
      "hit": false,
      "t": 89318.15799999995,
      "d": 681.8179999999993,
      "v": 74
    },
    {
      "midi": 62,
      "hit": false,
      "t": 89318.15799999995,
      "d": 681.8179999999993,
      "v": 74
    },
    {
      "midi": 65,
      "hit": false,
      "t": 89318.15799999995,
      "d": 681.8179999999993,
      "v": 74
    },
    {
      "midi": 69,
      "hit": false,
      "t": 89318.15799999995,
      "d": 681.8179999999993,
      "v": 74
    },
    {
      "midi": 43,
      "hit": false,
      "t": 89999.97599999995,
      "d": 2045.453999999998,
      "v": 92
    },
    {
      "midi": 57,
      "hit": false,
      "t": 90681.79399999995,
      "d": 681.8179999999993,
      "v": 75
    },
    {
      "midi": 60,
      "hit": false,
      "t": 90681.79399999995,
      "d": 681.8179999999993,
      "v": 75
    },
    {
      "midi": 65,
      "hit": false,
      "t": 90681.79399999995,
      "d": 681.8179999999993,
      "v": 75
    },
    {
      "midi": 57,
      "hit": false,
      "t": 91363.61199999995,
      "d": 681.8179999999993,
      "v": 74
    },
    {
      "midi": 60,
      "hit": false,
      "t": 91363.61199999995,
      "d": 681.8179999999993,
      "v": 74
    },
    {
      "midi": 65,
      "hit": false,
      "t": 91363.61199999995,
      "d": 681.8179999999993,
      "v": 74
    },
    {
      "midi": 48,
      "hit": false,
      "t": 92045.42999999995,
      "d": 2045.453999999998,
      "v": 92
    },
    {
      "midi": 55,
      "hit": false,
      "t": 92727.24799999995,
      "d": 681.8179999999993,
      "v": 75
    },
    {
      "midi": 60,
      "hit": false,
      "t": 92727.24799999995,
      "d": 681.8179999999993,
      "v": 75
    },
    {
      "midi": 64,
      "hit": false,
      "t": 92727.24799999995,
      "d": 681.8179999999993,
      "v": 75
    },
    {
      "midi": 55,
      "hit": false,
      "t": 93409.06599999995,
      "d": 681.8179999999993,
      "v": 74
    },
    {
      "midi": 60,
      "hit": false,
      "t": 93409.06599999995,
      "d": 681.8179999999993,
      "v": 74
    },
    {
      "midi": 64,
      "hit": false,
      "t": 93409.06599999995,
      "d": 681.8179999999993,
      "v": 74
    },
    {
      "midi": 57,
      "hit": false,
      "t": 94090.88399999995,
      "d": 1363.6359999999986,
      "v": 64
    },
    {
      "midi": 60,
      "hit": false,
      "t": 94090.88399999995,
      "d": 1363.6359999999986,
      "v": 64
    },
    {
      "midi": 65,
      "hit": false,
      "t": 94090.88399999995,
      "d": 1363.6359999999986,
      "v": 64
    },
    {
      "midi": 36,
      "hit": false,
      "t": 95454.51999999995,
      "d": 681.8179999999993,
      "v": 92
    },
    {
      "midi": 48,
      "hit": false,
      "t": 96136.33799999995,
      "d": 2045.453999999998,
      "v": 92
    },
    {
      "midi": 55,
      "hit": false,
      "t": 96818.15599999994,
      "d": 681.8179999999993,
      "v": 75
    },
    {
      "midi": 60,
      "hit": false,
      "t": 96818.15599999994,
      "d": 681.8179999999993,
      "v": 75
    },
    {
      "midi": 64,
      "hit": false,
      "t": 96818.15599999994,
      "d": 681.8179999999993,
      "v": 75
    },
    {
      "midi": 55,
      "hit": false,
      "t": 97499.97399999994,
      "d": 681.8179999999993,
      "v": 74
    },
    {
      "midi": 60,
      "hit": false,
      "t": 97499.97399999994,
      "d": 681.8179999999993,
      "v": 74
    },
    {
      "midi": 64,
      "hit": false,
      "t": 97499.97399999994,
      "d": 681.8179999999993,
      "v": 74
    },
    {
      "midi": 57,
      "hit": false,
      "t": 98181.79199999994,
      "d": 1363.6359999999986,
      "v": 64
    },
    {
      "midi": 60,
      "hit": false,
      "t": 98181.79199999994,
      "d": 1363.6359999999986,
      "v": 64
    },
    {
      "midi": 65,
      "hit": false,
      "t": 98181.79199999994,
      "d": 1363.6359999999986,
      "v": 64
    },
    {
      "midi": 36,
      "hit": false,
      "t": 99545.42799999994,
      "d": 681.8179999999993,
      "v": 92
    },
    {
      "midi": 48,
      "hit": false,
      "t": 100227.24599999994,
      "d": 2045.453999999998,
      "v": 92
    },
    {
      "midi": 55,
      "hit": false,
      "t": 100909.06399999994,
      "d": 681.8179999999993,
      "v": 75
    },
    {
      "midi": 60,
      "hit": false,
      "t": 100909.06399999994,
      "d": 681.8179999999993,
      "v": 75
    },
    {
      "midi": 64,
      "hit": false,
      "t": 100909.06399999994,
      "d": 681.8179999999993,
      "v": 75
    },
    {
      "midi": 55,
      "hit": false,
      "t": 101590.88199999994,
      "d": 681.8179999999993,
      "v": 74
    },
    {
      "midi": 60,
      "hit": false,
      "t": 101590.88199999994,
      "d": 681.8179999999993,
      "v": 74
    },
    {
      "midi": 64,
      "hit": false,
      "t": 101590.88199999994,
      "d": 681.8179999999993,
      "v": 74
    },
    {
      "midi": 36,
      "hit": false,
      "t": 102272.69999999994,
      "d": 1363.6359999999986,
      "v": 92
    },
    {
      "midi": 57,
      "hit": false,
      "t": 102954.51799999994,
      "d": 681.8179999999993,
      "v": 75
    },
    {
      "midi": 60,
      "hit": false,
      "t": 102954.51799999994,
      "d": 681.8179999999993,
      "v": 75
    },
    {
      "midi": 65,
      "hit": false,
      "t": 102954.51799999994,
      "d": 681.8179999999993,
      "v": 75
    },
    {
      "midi": 59,
      "hit": false,
      "t": 103636.33599999994,
      "d": 681.8179999999993,
      "v": 64
    },
    {
      "midi": 62,
      "hit": false,
      "t": 103636.33599999994,
      "d": 681.8179999999993,
      "v": 64
    },
    {
      "midi": 64,
      "hit": false,
      "t": 103636.33599999994,
      "d": 681.8179999999993,
      "v": 64
    },
    {
      "midi": 68,
      "hit": false,
      "t": 103636.33599999994,
      "d": 681.8179999999993,
      "v": 64
    },
    {
      "midi": 45,
      "hit": false,
      "t": 104318.15399999994,
      "d": 2045.453999999998,
      "v": 92
    },
    {
      "midi": 60,
      "hit": false,
      "t": 104999.97199999994,
      "d": 681.8179999999993,
      "v": 75
    },
    {
      "midi": 64,
      "hit": false,
      "t": 104999.97199999994,
      "d": 681.8179999999993,
      "v": 75
    },
    {
      "midi": 67,
      "hit": false,
      "t": 104999.97199999994,
      "d": 681.8179999999993,
      "v": 75
    },
    {
      "midi": 69,
      "hit": false,
      "t": 104999.97199999994,
      "d": 681.8179999999993,
      "v": 75
    },
    {
      "midi": 60,
      "hit": false,
      "t": 105681.78999999994,
      "d": 681.8179999999993,
      "v": 74
    },
    {
      "midi": 64,
      "hit": false,
      "t": 105681.78999999994,
      "d": 681.8179999999993,
      "v": 74
    },
    {
      "midi": 67,
      "hit": false,
      "t": 105681.78999999994,
      "d": 681.8179999999993,
      "v": 74
    },
    {
      "midi": 69,
      "hit": false,
      "t": 105681.78999999994,
      "d": 681.8179999999993,
      "v": 74
    },
    {
      "midi": 57,
      "hit": false,
      "t": 106363.60799999993,
      "d": 1363.6359999999986,
      "v": 64
    },
    {
      "midi": 60,
      "hit": false,
      "t": 106363.60799999993,
      "d": 1363.6359999999986,
      "v": 64
    },
    {
      "midi": 64,
      "hit": false,
      "t": 106363.60799999993,
      "d": 1363.6359999999986,
      "v": 64
    },
    {
      "midi": 67,
      "hit": false,
      "t": 106363.60799999993,
      "d": 1363.6359999999986,
      "v": 64
    },
    {
      "midi": 60,
      "hit": false,
      "t": 107727.24399999993,
      "d": 681.8179999999993,
      "v": 64
    },
    {
      "midi": 62,
      "hit": false,
      "t": 107727.24399999993,
      "d": 681.8179999999993,
      "v": 64
    },
    {
      "midi": 66,
      "hit": false,
      "t": 107727.24399999993,
      "d": 681.8179999999993,
      "v": 64
    },
    {
      "midi": 69,
      "hit": false,
      "t": 107727.24399999993,
      "d": 681.8179999999993,
      "v": 64
    },
    {
      "midi": 50,
      "hit": false,
      "t": 108409.06199999993,
      "d": 2045.453999999998,
      "v": 92
    },
    {
      "midi": 60,
      "hit": false,
      "t": 109090.87999999993,
      "d": 681.8179999999993,
      "v": 75
    },
    {
      "midi": 62,
      "hit": false,
      "t": 109090.87999999993,
      "d": 681.8179999999993,
      "v": 75
    },
    {
      "midi": 65,
      "hit": false,
      "t": 109090.87999999993,
      "d": 681.8179999999993,
      "v": 75
    },
    {
      "midi": 69,
      "hit": false,
      "t": 109090.87999999993,
      "d": 681.8179999999993,
      "v": 75
    },
    {
      "midi": 60,
      "hit": false,
      "t": 109772.69799999993,
      "d": 681.8179999999993,
      "v": 74
    },
    {
      "midi": 62,
      "hit": false,
      "t": 109772.69799999993,
      "d": 681.8179999999993,
      "v": 74
    },
    {
      "midi": 65,
      "hit": false,
      "t": 109772.69799999993,
      "d": 681.8179999999993,
      "v": 74
    },
    {
      "midi": 69,
      "hit": false,
      "t": 109772.69799999993,
      "d": 681.8179999999993,
      "v": 74
    },
    {
      "midi": 53,
      "hit": false,
      "t": 110454.51599999993,
      "d": 227.27266666667128,
      "v": 67
    },
    {
      "midi": 67,
      "hit": false,
      "t": 110454.51599999993,
      "d": 227.27266666667128,
      "v": 70
    },
    {
      "midi": 72,
      "hit": false,
      "t": 110454.51599999993,
      "d": 1522.7268666666641,
      "v": 68
    },
    {
      "midi": 69,
      "hit": false,
      "t": 110681.7886666666,
      "d": 1295.4541999999929,
      "v": 85
    },
    {
      "midi": 60,
      "hit": false,
      "t": 111136.33399999993,
      "d": 124.99996666666993,
      "v": 60
    },
    {
      "midi": 57,
      "hit": false,
      "t": 111136.33399999993,
      "d": 159.09086666666553,
      "v": 68
    },
    {
      "midi": 65,
      "hit": false,
      "t": 111136.33399999993,
      "d": 159.09086666666553,
      "v": 57
    },
    {
      "midi": 57,
      "hit": false,
      "t": 111818.15199999993,
      "d": 159.09086666666553,
      "v": 68
    },
    {
      "midi": 60,
      "hit": false,
      "t": 111818.15199999993,
      "d": 159.09086666666553,
      "v": 61
    },
    {
      "midi": 65,
      "hit": false,
      "t": 111818.15199999993,
      "d": 159.09086666666553,
      "v": 38
    },
    {
      "midi": 43,
      "hit": false,
      "t": 112499.96999999993,
      "d": 1363.6359999999986,
      "v": 92
    },
    {
      "midi": 55,
      "hit": false,
      "t": 113181.78799999993,
      "d": 681.8179999999993,
      "v": 75
    },
    {
      "midi": 60,
      "hit": false,
      "t": 113181.78799999993,
      "d": 681.8179999999993,
      "v": 75
    },
    {
      "midi": 64,
      "hit": false,
      "t": 113181.78799999993,
      "d": 681.8179999999993,
      "v": 75
    },
    {
      "midi": 57,
      "hit": false,
      "t": 113863.60599999993,
      "d": 681.8179999999993,
      "v": 64
    },
    {
      "midi": 60,
      "hit": false,
      "t": 113863.60599999993,
      "d": 681.8179999999993,
      "v": 64
    },
    {
      "midi": 65,
      "hit": false,
      "t": 113863.60599999993,
      "d": 681.8179999999993,
      "v": 64
    },
    {
      "midi": 55,
      "hit": false,
      "t": 114545.42399999993,
      "d": 2045.453999999998,
      "v": 64
    },
    {
      "midi": 60,
      "hit": false,
      "t": 114545.42399999993,
      "d": 2045.453999999998,
      "v": 64
    },
    {
      "midi": 64,
      "hit": false,
      "t": 114545.42399999993,
      "d": 2045.453999999998,
      "v": 64
    },
    {
      "midi": 43,
      "hit": false,
      "t": 116590.87799999992,
      "d": 2045.453999999998,
      "v": 92
    },
    {
      "midi": 57,
      "hit": false,
      "t": 117272.69599999992,
      "d": 681.8179999999993,
      "v": 75
    },
    {
      "midi": 60,
      "hit": false,
      "t": 117272.69599999992,
      "d": 681.8179999999993,
      "v": 75
    },
    {
      "midi": 65,
      "hit": false,
      "t": 117272.69599999992,
      "d": 681.8179999999993,
      "v": 75
    },
    {
      "midi": 57,
      "hit": false,
      "t": 117954.51399999992,
      "d": 681.8179999999993,
      "v": 74
    },
    {
      "midi": 60,
      "hit": false,
      "t": 117954.51399999992,
      "d": 681.8179999999993,
      "v": 74
    },
    {
      "midi": 65,
      "hit": false,
      "t": 117954.51399999992,
      "d": 681.8179999999993,
      "v": 74
    },
    {
      "midi": 55,
      "hit": false,
      "t": 118636.33199999992,
      "d": 2045.453999999998,
      "v": 64
    },
    {
      "midi": 60,
      "hit": false,
      "t": 118636.33199999992,
      "d": 2045.453999999998,
      "v": 64
    },
    {
      "midi": 64,
      "hit": false,
      "t": 118636.33199999992,
      "d": 2045.453999999998,
      "v": 64
    },
    {
      "midi": 53,
      "hit": false,
      "t": 120681.78599999992,
      "d": 227.27266666667128,
      "v": 67
    },
    {
      "midi": 67,
      "hit": false,
      "t": 120681.78599999992,
      "d": 227.27266666667128,
      "v": 70
    },
    {
      "midi": 72,
      "hit": false,
      "t": 120681.78599999992,
      "d": 1522.7268666666641,
      "v": 68
    },
    {
      "midi": 69,
      "hit": false,
      "t": 120909.05866666659,
      "d": 1295.4541999999929,
      "v": 85
    },
    {
      "midi": 60,
      "hit": false,
      "t": 121363.60399999992,
      "d": 124.99996666666993,
      "v": 60
    },
    {
      "midi": 57,
      "hit": false,
      "t": 121363.60399999992,
      "d": 159.09086666666553,
      "v": 68
    },
    {
      "midi": 65,
      "hit": false,
      "t": 121363.60399999992,
      "d": 159.09086666666553,
      "v": 57
    },
    {
      "midi": 57,
      "hit": false,
      "t": 122045.42199999992,
      "d": 159.09086666666553,
      "v": 68
    },
    {
      "midi": 60,
      "hit": false,
      "t": 122045.42199999992,
      "d": 159.09086666666553,
      "v": 61
    },
    {
      "midi": 65,
      "hit": false,
      "t": 122045.42199999992,
      "d": 159.09086666666553,
      "v": 38
    },
    {
      "midi": 55,
      "hit": false,
      "t": 122727.23999999992,
      "d": 2045.453999999998,
      "v": 64
    },
    {
      "midi": 60,
      "hit": false,
      "t": 122727.23999999992,
      "d": 2045.453999999998,
      "v": 64
    },
    {
      "midi": 64,
      "hit": false,
      "t": 122727.23999999992,
      "d": 2045.453999999998,
      "v": 64
    },
    {
      "midi": 53,
      "hit": false,
      "t": 124772.69399999992,
      "d": 227.27266666667128,
      "v": 67
    },
    {
      "midi": 67,
      "hit": false,
      "t": 124772.69399999992,
      "d": 227.27266666667128,
      "v": 70
    },
    {
      "midi": 72,
      "hit": false,
      "t": 124772.69399999992,
      "d": 1522.7268666666641,
      "v": 68
    },
    {
      "midi": 69,
      "hit": false,
      "t": 124999.96666666659,
      "d": 1295.4541999999929,
      "v": 85
    },
    {
      "midi": 60,
      "hit": false,
      "t": 125454.51199999992,
      "d": 124.99996666666993,
      "v": 60
    },
    {
      "midi": 57,
      "hit": false,
      "t": 125454.51199999992,
      "d": 159.09086666666553,
      "v": 68
    },
    {
      "midi": 65,
      "hit": false,
      "t": 125454.51199999992,
      "d": 159.09086666666553,
      "v": 57
    },
    {
      "midi": 57,
      "hit": false,
      "t": 126136.32999999991,
      "d": 159.09086666666553,
      "v": 68
    },
    {
      "midi": 60,
      "hit": false,
      "t": 126136.32999999991,
      "d": 159.09086666666553,
      "v": 61
    },
    {
      "midi": 65,
      "hit": false,
      "t": 126136.32999999991,
      "d": 159.09086666666553,
      "v": 38
    },
    {
      "midi": 43,
      "hit": false,
      "t": 126818.14799999991,
      "d": 2045.453999999998,
      "v": 92
    },
    {
      "midi": 58,
      "hit": false,
      "t": 127499.96599999991,
      "d": 681.8179999999993,
      "v": 75
    },
    {
      "midi": 62,
      "hit": false,
      "t": 127499.96599999991,
      "d": 681.8179999999993,
      "v": 75
    },
    {
      "midi": 65,
      "hit": false,
      "t": 127499.96599999991,
      "d": 681.8179999999993,
      "v": 75
    },
    {
      "midi": 58,
      "hit": false,
      "t": 128181.78399999991,
      "d": 681.8179999999993,
      "v": 74
    },
    {
      "midi": 62,
      "hit": false,
      "t": 128181.78399999991,
      "d": 681.8179999999993,
      "v": 74
    },
    {
      "midi": 65,
      "hit": false,
      "t": 128181.78399999991,
      "d": 681.8179999999993,
      "v": 74
    },
    {
      "midi": 48,
      "hit": false,
      "t": 128863.60199999991,
      "d": 681.8179999999993,
      "v": 92
    },
    {
      "midi": 60,
      "hit": false,
      "t": 129545.41999999991,
      "d": 681.8179999999993,
      "v": 64
    },
    {
      "midi": 62,
      "hit": false,
      "t": 129545.41999999991,
      "d": 681.8179999999993,
      "v": 64
    },
    {
      "midi": 65,
      "hit": false,
      "t": 129545.41999999991,
      "d": 681.8179999999993,
      "v": 64
    },
    {
      "midi": 69,
      "hit": false,
      "t": 129545.41999999991,
      "d": 681.8179999999993,
      "v": 64
    },
    {
      "midi": 52,
      "hit": false,
      "t": 130227.23799999991,
      "d": 681.8179999999993,
      "v": 92
    },
    {
      "midi": 57,
      "hit": false,
      "t": 130909.05599999991,
      "d": 2045.4540000000125,
      "v": 64
    },
    {
      "midi": 60,
      "hit": false,
      "t": 130909.05599999991,
      "d": 2045.4540000000125,
      "v": 64
    },
    {
      "midi": 65,
      "hit": false,
      "t": 130909.05599999991,
      "d": 2045.4540000000125,
      "v": 64
    },
    {
      "midi": 52,
      "hit": false,
      "t": 132954.50999999992,
      "d": 2045.453999999998,
      "v": 92
    },
    {
      "midi": 55,
      "hit": false,
      "t": 133636.32799999992,
      "d": 681.8179999999993,
      "v": 75
    },
    {
      "midi": 60,
      "hit": false,
      "t": 133636.32799999992,
      "d": 681.8179999999993,
      "v": 75
    },
    {
      "midi": 64,
      "hit": false,
      "t": 133636.32799999992,
      "d": 681.8179999999993,
      "v": 75
    },
    {
      "midi": 55,
      "hit": false,
      "t": 134318.14599999992,
      "d": 681.8179999999993,
      "v": 74
    },
    {
      "midi": 60,
      "hit": false,
      "t": 134318.14599999992,
      "d": 681.8179999999993,
      "v": 74
    },
    {
      "midi": 64,
      "hit": false,
      "t": 134318.14599999992,
      "d": 681.8179999999993,
      "v": 74
    },
    {
      "midi": 50,
      "hit": false,
      "t": 134999.96399999992,
      "d": 2045.453999999998,
      "v": 92
    },
    {
      "midi": 60,
      "hit": false,
      "t": 135681.78199999992,
      "d": 681.8179999999993,
      "v": 75
    },
    {
      "midi": 62,
      "hit": false,
      "t": 135681.78199999992,
      "d": 681.8179999999993,
      "v": 75
    },
    {
      "midi": 65,
      "hit": false,
      "t": 135681.78199999992,
      "d": 681.8179999999993,
      "v": 75
    },
    {
      "midi": 69,
      "hit": false,
      "t": 135681.78199999992,
      "d": 681.8179999999993,
      "v": 75
    },
    {
      "midi": 60,
      "hit": false,
      "t": 136363.59999999992,
      "d": 681.8179999999993,
      "v": 74
    },
    {
      "midi": 62,
      "hit": false,
      "t": 136363.59999999992,
      "d": 681.8179999999993,
      "v": 74
    },
    {
      "midi": 65,
      "hit": false,
      "t": 136363.59999999992,
      "d": 681.8179999999993,
      "v": 74
    },
    {
      "midi": 69,
      "hit": false,
      "t": 136363.59999999992,
      "d": 681.8179999999993,
      "v": 74
    },
    {
      "midi": 55,
      "hit": false,
      "t": 137045.41799999992,
      "d": 681.8179999999993,
      "v": 64
    },
    {
      "midi": 60,
      "hit": false,
      "t": 137045.41799999992,
      "d": 681.8179999999993,
      "v": 64
    },
    {
      "midi": 64,
      "hit": false,
      "t": 137045.41799999992,
      "d": 681.8179999999993,
      "v": 64
    },
    {
      "midi": 50,
      "hit": false,
      "t": 137727.23599999992,
      "d": 681.8179999999993,
      "v": 92
    },
    {
      "midi": 58,
      "hit": false,
      "t": 138409.05399999992,
      "d": 681.8179999999993,
      "v": 64
    },
    {
      "midi": 60,
      "hit": false,
      "t": 138409.05399999992,
      "d": 681.8179999999993,
      "v": 64
    },
    {
      "midi": 64,
      "hit": false,
      "t": 138409.05399999992,
      "d": 681.8179999999993,
      "v": 64
    },
    {
      "midi": 67,
      "hit": false,
      "t": 138409.05399999992,
      "d": 681.8179999999993,
      "v": 64
    },
    {
      "midi": 53,
      "hit": false,
      "t": 139090.87199999992,
      "d": 227.27266666665673,
      "v": 67
    },
    {
      "midi": 67,
      "hit": false,
      "t": 139090.87199999992,
      "d": 227.27266666665673,
      "v": 70
    },
    {
      "midi": 72,
      "hit": false,
      "t": 139090.87199999992,
      "d": 1522.7268666666641,
      "v": 68
    },
    {
      "midi": 69,
      "hit": false,
      "t": 139318.14466666657,
      "d": 1295.4542000000074,
      "v": 85
    },
    {
      "midi": 60,
      "hit": false,
      "t": 139772.68999999992,
      "d": 124.99996666665538,
      "v": 60
    },
    {
      "midi": 57,
      "hit": false,
      "t": 139772.68999999992,
      "d": 159.09086666666553,
      "v": 68
    },
    {
      "midi": 65,
      "hit": false,
      "t": 139772.68999999992,
      "d": 159.09086666666553,
      "v": 57
    },
    {
      "midi": 57,
      "hit": false,
      "t": 140454.5079999999,
      "d": 159.09086666666553,
      "v": 68
    },
    {
      "midi": 60,
      "hit": false,
      "t": 140454.5079999999,
      "d": 159.09086666666553,
      "v": 61
    },
    {
      "midi": 65,
      "hit": false,
      "t": 140454.5079999999,
      "d": 159.09086666666553,
      "v": 38
    },
    {
      "midi": 52,
      "hit": false,
      "t": 141136.3259999999,
      "d": 2045.453999999998,
      "v": 92
    },
    {
      "midi": 55,
      "hit": false,
      "t": 141818.1439999999,
      "d": 681.8179999999993,
      "v": 75
    },
    {
      "midi": 60,
      "hit": false,
      "t": 141818.1439999999,
      "d": 681.8179999999993,
      "v": 75
    },
    {
      "midi": 64,
      "hit": false,
      "t": 141818.1439999999,
      "d": 681.8179999999993,
      "v": 75
    },
    {
      "midi": 55,
      "hit": false,
      "t": 142499.9619999999,
      "d": 681.8179999999993,
      "v": 74
    },
    {
      "midi": 60,
      "hit": false,
      "t": 142499.9619999999,
      "d": 681.8179999999993,
      "v": 74
    },
    {
      "midi": 64,
      "hit": false,
      "t": 142499.9619999999,
      "d": 681.8179999999993,
      "v": 74
    },
    {
      "midi": 60,
      "hit": false,
      "t": 143181.7799999999,
      "d": 681.8179999999993,
      "v": 64
    },
    {
      "midi": 64,
      "hit": false,
      "t": 143181.7799999999,
      "d": 681.8179999999993,
      "v": 64
    },
    {
      "midi": 66,
      "hit": false,
      "t": 143181.7799999999,
      "d": 681.8179999999993,
      "v": 64
    },
    {
      "midi": 69,
      "hit": false,
      "t": 143181.7799999999,
      "d": 681.8179999999993,
      "v": 64
    },
    {
      "midi": 52,
      "hit": false,
      "t": 143863.5979999999,
      "d": 681.8179999999993,
      "v": 92
    },
    {
      "midi": 54,
      "hit": false,
      "t": 144545.4159999999,
      "d": 681.8179999999993,
      "v": 92
    },
    {
      "midi": 57,
      "hit": false,
      "t": 145227.2339999999,
      "d": 2045.453999999998,
      "v": 64
    },
    {
      "midi": 60,
      "hit": false,
      "t": 145227.2339999999,
      "d": 2045.453999999998,
      "v": 64
    },
    {
      "midi": 65,
      "hit": false,
      "t": 145227.2339999999,
      "d": 2045.453999999998,
      "v": 64
    },
    {
      "midi": 53,
      "hit": false,
      "t": 147272.6879999999,
      "d": 227.27266666665673,
      "v": 67
    },
    {
      "midi": 67,
      "hit": false,
      "t": 147272.6879999999,
      "d": 227.27266666665673,
      "v": 70
    },
    {
      "midi": 72,
      "hit": false,
      "t": 147272.6879999999,
      "d": 1522.7268666666641,
      "v": 68
    },
    {
      "midi": 69,
      "hit": false,
      "t": 147499.96066666656,
      "d": 1295.4542000000074,
      "v": 85
    },
    {
      "midi": 60,
      "hit": false,
      "t": 147954.5059999999,
      "d": 124.99996666665538,
      "v": 60
    },
    {
      "midi": 57,
      "hit": false,
      "t": 147954.5059999999,
      "d": 159.09086666666553,
      "v": 68
    },
    {
      "midi": 65,
      "hit": false,
      "t": 147954.5059999999,
      "d": 159.09086666666553,
      "v": 57
    },
    {
      "midi": 57,
      "hit": false,
      "t": 148636.3239999999,
      "d": 159.09086666666553,
      "v": 68
    },
    {
      "midi": 60,
      "hit": false,
      "t": 148636.3239999999,
      "d": 159.09086666666553,
      "v": 61
    },
    {
      "midi": 65,
      "hit": false,
      "t": 148636.3239999999,
      "d": 159.09086666666553,
      "v": 38
    },
    {
      "midi": 79,
      "hit": false,
      "t": 149318.1419999999,
      "d": 227.27266666665673,
      "v": 88
    },
    {
      "midi": 53,
      "hit": false,
      "t": 149318.1419999999,
      "d": 261.3635666666669,
      "v": 80
    },
    {
      "midi": 84,
      "hit": false,
      "t": 149318.1419999999,
      "d": 1840.908599999966,
      "v": 77
    },
    {
      "midi": 81,
      "hit": false,
      "t": 149545.41466666656,
      "d": 1613.6359333333094,
      "v": 78
    },
    {
      "midi": 60,
      "hit": false,
      "t": 149999.9599999999,
      "d": 159.09086666666553,
      "v": 63
    },
    {
      "midi": 65,
      "hit": false,
      "t": 149999.9599999999,
      "d": 181.81813333331957,
      "v": 63
    },
    {
      "midi": 57,
      "hit": false,
      "t": 149999.9599999999,
      "d": 193.18176666664658,
      "v": 57
    },
    {
      "midi": 57,
      "hit": false,
      "t": 150681.77799999987,
      "d": 159.09086666666553,
      "v": 61
    },
    {
      "midi": 60,
      "hit": false,
      "t": 150681.77799999987,
      "d": 159.09086666666553,
      "v": 57
    },
    {
      "midi": 65,
      "hit": false,
      "t": 150681.77799999987,
      "d": 170.45449999999255,
      "v": 57
    },
    {
      "midi": 53,
      "hit": false,
      "t": 151363.59599999987,
      "d": 227.27266666665673,
      "v": 67
    },
    {
      "midi": 67,
      "hit": false,
      "t": 151363.59599999987,
      "d": 227.27266666665673,
      "v": 70
    },
    {
      "midi": 72,
      "hit": false,
      "t": 151363.59599999987,
      "d": 1522.7268666666641,
      "v": 68
    },
    {
      "midi": 69,
      "hit": false,
      "t": 151590.86866666653,
      "d": 1295.4542000000074,
      "v": 85
    },
    {
      "midi": 60,
      "hit": false,
      "t": 152045.41399999987,
      "d": 124.99996666665538,
      "v": 60
    },
    {
      "midi": 57,
      "hit": false,
      "t": 152045.41399999987,
      "d": 159.09086666666553,
      "v": 68
    },
    {
      "midi": 65,
      "hit": false,
      "t": 152045.41399999987,
      "d": 159.09086666666553,
      "v": 57
    },
    {
      "midi": 57,
      "hit": false,
      "t": 152727.23199999987,
      "d": 159.09086666666553,
      "v": 68
    },
    {
      "midi": 60,
      "hit": false,
      "t": 152727.23199999987,
      "d": 159.09086666666553,
      "v": 61
    },
    {
      "midi": 65,
      "hit": false,
      "t": 152727.23199999987,
      "d": 159.09086666666553,
      "v": 38
    },
    {
      "midi": 48,
      "hit": false,
      "t": 153409.04999999987,
      "d": 2045.453999999998,
      "v": 92
    },
    {
      "midi": 55,
      "hit": false,
      "t": 154090.86799999987,
      "d": 681.8179999999993,
      "v": 75
    },
    {
      "midi": 60,
      "hit": false,
      "t": 154090.86799999987,
      "d": 681.8179999999993,
      "v": 75
    },
    {
      "midi": 64,
      "hit": false,
      "t": 154090.86799999987,
      "d": 681.8179999999993,
      "v": 75
    },
    {
      "midi": 55,
      "hit": false,
      "t": 154772.68599999987,
      "d": 681.8179999999993,
      "v": 74
    },
    {
      "midi": 60,
      "hit": false,
      "t": 154772.68599999987,
      "d": 681.8179999999993,
      "v": 74
    },
    {
      "midi": 64,
      "hit": false,
      "t": 154772.68599999987,
      "d": 681.8179999999993,
      "v": 74
    },
    {
      "midi": 36,
      "hit": false,
      "t": 155454.50399999987,
      "d": 2045.453999999998,
      "v": 92
    },
    {
      "midi": 57,
      "hit": false,
      "t": 156136.32199999987,
      "d": 681.8179999999993,
      "v": 75
    },
    {
      "midi": 60,
      "hit": false,
      "t": 156136.32199999987,
      "d": 681.8179999999993,
      "v": 75
    },
    {
      "midi": 65,
      "hit": false,
      "t": 156136.32199999987,
      "d": 681.8179999999993,
      "v": 75
    },
    {
      "midi": 57,
      "hit": false,
      "t": 156818.13999999987,
      "d": 681.8179999999993,
      "v": 74
    },
    {
      "midi": 60,
      "hit": false,
      "t": 156818.13999999987,
      "d": 681.8179999999993,
      "v": 74
    },
    {
      "midi": 65,
      "hit": false,
      "t": 156818.13999999987,
      "d": 681.8179999999993,
      "v": 74
    },
    {
      "midi": 48,
      "hit": false,
      "t": 157499.95799999987,
      "d": 2045.453999999998,
      "v": 92
    },
    {
      "midi": 55,
      "hit": false,
      "t": 158181.77599999987,
      "d": 681.8179999999993,
      "v": 75
    },
    {
      "midi": 60,
      "hit": false,
      "t": 158181.77599999987,
      "d": 681.8179999999993,
      "v": 75
    },
    {
      "midi": 64,
      "hit": false,
      "t": 158181.77599999987,
      "d": 681.8179999999993,
      "v": 75
    },
    {
      "midi": 55,
      "hit": false,
      "t": 158863.59399999987,
      "d": 681.8179999999993,
      "v": 74
    },
    {
      "midi": 60,
      "hit": false,
      "t": 158863.59399999987,
      "d": 681.8179999999993,
      "v": 74
    },
    {
      "midi": 64,
      "hit": false,
      "t": 158863.59399999987,
      "d": 681.8179999999993,
      "v": 74
    },
    {
      "midi": 57,
      "hit": false,
      "t": 159545.41199999987,
      "d": 2045.453999999998,
      "v": 64
    },
    {
      "midi": 60,
      "hit": false,
      "t": 159545.41199999987,
      "d": 2045.453999999998,
      "v": 64
    },
    {
      "midi": 65,
      "hit": false,
      "t": 159545.41199999987,
      "d": 2045.453999999998,
      "v": 64
    },
    {
      "midi": 55,
      "hit": false,
      "t": 161590.86599999986,
      "d": 2045.453999999998,
      "v": 64
    },
    {
      "midi": 60,
      "hit": false,
      "t": 161590.86599999986,
      "d": 2045.453999999998,
      "v": 64
    },
    {
      "midi": 64,
      "hit": false,
      "t": 161590.86599999986,
      "d": 2045.453999999998,
      "v": 64
    },
    {
      "midi": 57,
      "hit": false,
      "t": 163636.31999999986,
      "d": 1363.6359999999986,
      "v": 64
    },
    {
      "midi": 60,
      "hit": false,
      "t": 163636.31999999986,
      "d": 1363.6359999999986,
      "v": 64
    },
    {
      "midi": 65,
      "hit": false,
      "t": 163636.31999999986,
      "d": 1363.6359999999986,
      "v": 64
    },
    {
      "midi": 59,
      "hit": false,
      "t": 164999.95599999986,
      "d": 681.8179999999993,
      "v": 64
    },
    {
      "midi": 62,
      "hit": false,
      "t": 164999.95599999986,
      "d": 681.8179999999993,
      "v": 64
    },
    {
      "midi": 64,
      "hit": false,
      "t": 164999.95599999986,
      "d": 681.8179999999993,
      "v": 64
    },
    {
      "midi": 68,
      "hit": false,
      "t": 164999.95599999986,
      "d": 681.8179999999993,
      "v": 64
    },
    {
      "midi": 45,
      "hit": false,
      "t": 165681.77399999986,
      "d": 2045.453999999998,
      "v": 92
    },
    {
      "midi": 60,
      "hit": false,
      "t": 166363.59199999986,
      "d": 681.8179999999993,
      "v": 75
    },
    {
      "midi": 64,
      "hit": false,
      "t": 166363.59199999986,
      "d": 681.8179999999993,
      "v": 75
    },
    {
      "midi": 67,
      "hit": false,
      "t": 166363.59199999986,
      "d": 681.8179999999993,
      "v": 75
    },
    {
      "midi": 69,
      "hit": false,
      "t": 166363.59199999986,
      "d": 681.8179999999993,
      "v": 75
    },
    {
      "midi": 60,
      "hit": false,
      "t": 167045.40999999986,
      "d": 681.8179999999993,
      "v": 74
    },
    {
      "midi": 64,
      "hit": false,
      "t": 167045.40999999986,
      "d": 681.8179999999993,
      "v": 74
    },
    {
      "midi": 67,
      "hit": false,
      "t": 167045.40999999986,
      "d": 681.8179999999993,
      "v": 74
    },
    {
      "midi": 69,
      "hit": false,
      "t": 167045.40999999986,
      "d": 681.8179999999993,
      "v": 74
    },
    {
      "midi": 50,
      "hit": false,
      "t": 167727.22799999986,
      "d": 2045.453999999998,
      "v": 92
    },
    {
      "midi": 60,
      "hit": false,
      "t": 168409.04599999986,
      "d": 681.8179999999993,
      "v": 75
    },
    {
      "midi": 64,
      "hit": false,
      "t": 168409.04599999986,
      "d": 681.8179999999993,
      "v": 75
    },
    {
      "midi": 66,
      "hit": false,
      "t": 168409.04599999986,
      "d": 681.8179999999993,
      "v": 75
    },
    {
      "midi": 69,
      "hit": false,
      "t": 168409.04599999986,
      "d": 681.8179999999993,
      "v": 75
    },
    {
      "midi": 60,
      "hit": false,
      "t": 169090.86399999986,
      "d": 681.8179999999993,
      "v": 74
    },
    {
      "midi": 64,
      "hit": false,
      "t": 169090.86399999986,
      "d": 681.8179999999993,
      "v": 74
    },
    {
      "midi": 66,
      "hit": false,
      "t": 169090.86399999986,
      "d": 681.8179999999993,
      "v": 74
    },
    {
      "midi": 69,
      "hit": false,
      "t": 169090.86399999986,
      "d": 681.8179999999993,
      "v": 74
    },
    {
      "midi": 60,
      "hit": false,
      "t": 169772.68199999986,
      "d": 2045.453999999998,
      "v": 64
    },
    {
      "midi": 62,
      "hit": false,
      "t": 169772.68199999986,
      "d": 2045.453999999998,
      "v": 64
    },
    {
      "midi": 65,
      "hit": false,
      "t": 169772.68199999986,
      "d": 2045.453999999998,
      "v": 64
    },
    {
      "midi": 69,
      "hit": false,
      "t": 169772.68199999986,
      "d": 2045.453999999998,
      "v": 64
    },
    {
      "midi": 53,
      "hit": false,
      "t": 171818.13599999985,
      "d": 227.27266666665673,
      "v": 67
    },
    {
      "midi": 67,
      "hit": false,
      "t": 171818.13599999985,
      "d": 227.27266666665673,
      "v": 70
    },
    {
      "midi": 72,
      "hit": false,
      "t": 171818.13599999985,
      "d": 1522.7268666666641,
      "v": 68
    },
    {
      "midi": 69,
      "hit": false,
      "t": 172045.4086666665,
      "d": 1295.4542000000074,
      "v": 85
    },
    {
      "midi": 60,
      "hit": false,
      "t": 172499.95399999985,
      "d": 124.99996666665538,
      "v": 60
    },
    {
      "midi": 57,
      "hit": false,
      "t": 172499.95399999985,
      "d": 159.09086666666553,
      "v": 68
    },
    {
      "midi": 65,
      "hit": false,
      "t": 172499.95399999985,
      "d": 159.09086666666553,
      "v": 57
    },
    {
      "midi": 57,
      "hit": false,
      "t": 173181.77199999985,
      "d": 159.09086666666553,
      "v": 68
    },
    {
      "midi": 60,
      "hit": false,
      "t": 173181.77199999985,
      "d": 159.09086666666553,
      "v": 61
    },
    {
      "midi": 65,
      "hit": false,
      "t": 173181.77199999985,
      "d": 159.09086666666553,
      "v": 38
    },
    {
      "midi": 79,
      "hit": false,
      "t": 173863.58999999985,
      "d": 227.27266666665673,
      "v": 88
    },
    {
      "midi": 53,
      "hit": false,
      "t": 173863.58999999985,
      "d": 261.3635666666669,
      "v": 80
    },
    {
      "midi": 84,
      "hit": false,
      "t": 173863.58999999985,
      "d": 1840.908599999966,
      "v": 77
    },
    {
      "midi": 81,
      "hit": false,
      "t": 174090.8626666665,
      "d": 1613.6359333333094,
      "v": 78
    },
    {
      "midi": 60,
      "hit": false,
      "t": 174545.40799999985,
      "d": 159.09086666666553,
      "v": 63
    },
    {
      "midi": 65,
      "hit": false,
      "t": 174545.40799999985,
      "d": 181.81813333331957,
      "v": 63
    },
    {
      "midi": 57,
      "hit": false,
      "t": 174545.40799999985,
      "d": 193.18176666664658,
      "v": 57
    },
    {
      "midi": 57,
      "hit": false,
      "t": 175227.22599999982,
      "d": 159.09086666666553,
      "v": 61
    },
    {
      "midi": 60,
      "hit": false,
      "t": 175227.22599999982,
      "d": 159.09086666666553,
      "v": 57
    },
    {
      "midi": 65,
      "hit": false,
      "t": 175227.22599999982,
      "d": 170.45449999999255,
      "v": 57
    },
    {
      "midi": 43,
      "hit": false,
      "t": 175909.04399999982,
      "d": 2289.7721166666597,
      "v": 92
    },
    {
      "midi": 57,
      "hit": false,
      "t": 176590.86199999982,
      "d": 681.8179999999993,
      "v": 75
    },
    {
      "midi": 60,
      "hit": false,
      "t": 176590.86199999982,
      "d": 681.8179999999993,
      "v": 75
    },
    {
      "midi": 65,
      "hit": false,
      "t": 176590.86199999982,
      "d": 681.8179999999993,
      "v": 75
    },
    {
      "midi": 57,
      "hit": false,
      "t": 177272.67999999982,
      "d": 1039.7724499999895,
      "v": 74
    },
    {
      "midi": 60,
      "hit": false,
      "t": 177272.67999999982,
      "d": 1039.7724499999895,
      "v": 74
    },
    {
      "midi": 65,
      "hit": false,
      "t": 177272.67999999982,
      "d": 1039.7724499999895,
      "v": 74
    },
    {
      "midi": 36,
      "hit": false,
      "t": 177954.49799999982,
      "d": 2045.453999999998,
      "v": 93
    },
    {
      "midi": 57,
      "hit": false,
      "t": 178636.31599999982,
      "d": 653.4089166666672,
      "v": 63
    },
    {
      "midi": 60,
      "hit": false,
      "t": 178636.31599999982,
      "d": 653.4089166666672,
      "v": 63
    },
    {
      "midi": 65,
      "hit": false,
      "t": 178636.31599999982,
      "d": 653.4089166666672,
      "v": 63
    },
    {
      "midi": 57,
      "hit": false,
      "t": 179318.13399999982,
      "d": 681.8179999999993,
      "v": 79
    },
    {
      "midi": 60,
      "hit": false,
      "t": 179318.13399999982,
      "d": 681.8179999999993,
      "v": 79
    },
    {
      "midi": 65,
      "hit": false,
      "t": 179318.13399999982,
      "d": 681.8179999999993,
      "v": 79
    },
    {
      "midi": 48,
      "hit": false,
      "t": 179999.95199999982,
      "d": 227.27266666665673,
      "v": 67
    },
    {
      "midi": 62,
      "hit": false,
      "t": 179999.95199999982,
      "d": 227.27266666665673,
      "v": 70
    },
    {
      "midi": 67,
      "hit": false,
      "t": 179999.95199999982,
      "d": 1522.7268666666641,
      "v": 68
    },
    {
      "midi": 64,
      "hit": false,
      "t": 180227.22466666647,
      "d": 1295.4542000000074,
      "v": 85
    },
    {
      "midi": 55,
      "hit": false,
      "t": 180681.76999999981,
      "d": 124.99996666665538,
      "v": 60
    },
    {
      "midi": 52,
      "hit": false,
      "t": 180681.76999999981,
      "d": 159.09086666666553,
      "v": 68
    },
    {
      "midi": 60,
      "hit": false,
      "t": 180681.76999999981,
      "d": 159.09086666666553,
      "v": 57
    },
    {
      "midi": 52,
      "hit": false,
      "t": 181363.5879999998,
      "d": 159.09086666666553,
      "v": 68
    },
    {
      "midi": 55,
      "hit": false,
      "t": 181363.5879999998,
      "d": 159.09086666666553,
      "v": 61
    },
    {
      "midi": 60,
      "hit": false,
      "t": 181363.5879999998,
      "d": 159.09086666666553,
      "v": 38
    },
    {
      "midi": 53,
      "hit": false,
      "t": 182045.4059999998,
      "d": 227.27266666665673,
      "v": 67
    },
    {
      "midi": 67,
      "hit": false,
      "t": 182045.4059999998,
      "d": 227.27266666665673,
      "v": 70
    },
    {
      "midi": 72,
      "hit": false,
      "t": 182045.4059999998,
      "d": 1522.7268666666641,
      "v": 68
    },
    {
      "midi": 69,
      "hit": false,
      "t": 182272.67866666647,
      "d": 1295.4542000000074,
      "v": 85
    },
    {
      "midi": 60,
      "hit": false,
      "t": 182727.2239999998,
      "d": 124.99996666665538,
      "v": 60
    },
    {
      "midi": 57,
      "hit": false,
      "t": 182727.2239999998,
      "d": 159.09086666666553,
      "v": 68
    },
    {
      "midi": 65,
      "hit": false,
      "t": 182727.2239999998,
      "d": 159.09086666666553,
      "v": 57
    },
    {
      "midi": 57,
      "hit": false,
      "t": 183409.0419999998,
      "d": 159.09086666666553,
      "v": 68
    },
    {
      "midi": 60,
      "hit": false,
      "t": 183409.0419999998,
      "d": 159.09086666666553,
      "v": 61
    },
    {
      "midi": 65,
      "hit": false,
      "t": 183409.0419999998,
      "d": 159.09086666666553,
      "v": 38
    },
    {
      "midi": 55,
      "hit": false,
      "t": 184090.8599999998,
      "d": 2045.453999999998,
      "v": 64
    },
    {
      "midi": 60,
      "hit": false,
      "t": 184090.8599999998,
      "d": 2045.453999999998,
      "v": 64
    },
    {
      "midi": 64,
      "hit": false,
      "t": 184090.8599999998,
      "d": 2045.453999999998,
      "v": 64
    },
    {
      "midi": 60,
      "hit": false,
      "t": 186136.3139999998,
      "d": 1363.6359999999986,
      "v": 64
    },
    {
      "midi": 64,
      "hit": false,
      "t": 186136.3139999998,
      "d": 1363.6359999999986,
      "v": 64
    },
    {
      "midi": 67,
      "hit": false,
      "t": 186136.3139999998,
      "d": 1363.6359999999986,
      "v": 64
    },
    {
      "midi": 69,
      "hit": false,
      "t": 186136.3139999998,
      "d": 1363.6359999999986,
      "v": 64
    },
    {
      "midi": 60,
      "hit": false,
      "t": 187499.9499999998,
      "d": 681.8179999999993,
      "v": 64
    },
    {
      "midi": 62,
      "hit": false,
      "t": 187499.9499999998,
      "d": 681.8179999999993,
      "v": 64
    },
    {
      "midi": 65,
      "hit": false,
      "t": 187499.9499999998,
      "d": 681.8179999999993,
      "v": 64
    },
    {
      "midi": 69,
      "hit": false,
      "t": 187499.9499999998,
      "d": 681.8179999999993,
      "v": 64
    },
    {
      "midi": 48,
      "hit": false,
      "t": 188181.7679999998,
      "d": 2045.453999999998,
      "v": 92
    }
  ]
}