{
  "jsonPath": "Unknown/Unknown/Ann Charters/ethiopia-rag.json",
  "path": "Unknown\\Unknown\\Ann Charters\\Ethiopia Rag.mid",
  "name": "Ethiopia Rag",
  "difficulty": "Advanced",
  "bpm": 100,
  "notes": [
    {
      "midi": 65,
      "hit": false,
      "t": 4534.375,
      "d": 328.125,
      "v": 107
    },
    {
      "midi": 53,
      "hit": false,
      "t": 4556.25,
      "d": 121.875,
      "v": 57
    },
    {
      "midi": 41,
      "hit": false,
      "t": 4562.5,
      "d": 59.375,
      "v": 54
    },
    {
      "midi": 62,
      "hit": false,
      "t": 5068.75,
      "d": 65.625,
      "v": 79
    },
    {
      "midi": 68,
      "hit": false,
      "t": 5071.875,
      "d": 115.625,
      "v": 111
    },
    {
      "midi": 65,
      "hit": false,
      "t": 5078.125,
      "d": 84.375,
      "v": 99
    },
    {
      "midi": 50,
      "hit": false,
      "t": 5081.25,
      "d": 53.125,
      "v": 63
    },
    {
      "midi": 70,
      "hit": false,
      "t": 5362.5,
      "d": 543.75,
      "v": 114
    },
    {
      "midi": 64,
      "hit": false,
      "t": 5362.5,
      "d": 546.875,
      "v": 103
    },
    {
      "midi": 61,
      "hit": false,
      "t": 5381.25,
      "d": 506.25,
      "v": 93
    },
    {
      "midi": 49,
      "hit": false,
      "t": 5393.75,
      "d": 434.375,
      "v": 68
    },
    {
      "midi": 68,
      "hit": false,
      "t": 5862.5,
      "d": 84.375,
      "v": 98
    },
    {
      "midi": 70,
      "hit": false,
      "t": 6125,
      "d": 378.125,
      "v": 110
    },
    {
      "midi": 64,
      "hit": false,
      "t": 6134.375,
      "d": 253.125,
      "v": 94
    },
    {
      "midi": 61,
      "hit": false,
      "t": 6140.625,
      "d": 237.5,
      "v": 76
    },
    {
      "midi": 49,
      "hit": false,
      "t": 6143.75,
      "d": 262.5,
      "v": 64
    },
    {
      "midi": 60,
      "hit": false,
      "t": 6650,
      "d": 487.5,
      "v": 62
    },
    {
      "midi": 63,
      "hit": false,
      "t": 6650,
      "d": 515.625,
      "v": 68
    },
    {
      "midi": 48,
      "hit": false,
      "t": 6662.5,
      "d": 362.5,
      "v": 43
    },
    {
      "midi": 68,
      "hit": false,
      "t": 6665.625,
      "d": 540.625,
      "v": 81
    },
    {
      "midi": 72,
      "hit": false,
      "t": 6909.375,
      "d": 256.25,
      "v": 76
    },
    {
      "midi": 75,
      "hit": false,
      "t": 7146.875,
      "d": 53.125,
      "v": 73
    },
    {
      "midi": 77,
      "hit": false,
      "t": 7450,
      "d": 418.75,
      "v": 81
    },
    {
      "midi": 65,
      "hit": false,
      "t": 7456.25,
      "d": 381.25,
      "v": 63
    },
    {
      "midi": 73,
      "hit": false,
      "t": 7456.25,
      "d": 450,
      "v": 67
    },
    {
      "midi": 61,
      "hit": false,
      "t": 7459.375,
      "d": 368.75,
      "v": 44
    },
    {
      "midi": 49,
      "hit": false,
      "t": 7481.25,
      "d": 331.25,
      "v": 37
    },
    {
      "midi": 56,
      "hit": false,
      "t": 7496.875,
      "d": 356.25,
      "v": 37
    },
    {
      "midi": 62,
      "hit": false,
      "t": 8134.375,
      "d": 221.875,
      "v": 53
    },
    {
      "midi": 77,
      "hit": false,
      "t": 8143.75,
      "d": 175,
      "v": 78
    },
    {
      "midi": 50,
      "hit": false,
      "t": 8143.75,
      "d": 184.375,
      "v": 47
    },
    {
      "midi": 68,
      "hit": false,
      "t": 8159.375,
      "d": 225,
      "v": 43
    },
    {
      "midi": 71,
      "hit": false,
      "t": 8162.5,
      "d": 181.25,
      "v": 47
    },
    {
      "midi": 75,
      "hit": false,
      "t": 8637.5,
      "d": 418.75,
      "v": 82
    },
    {
      "midi": 68,
      "hit": false,
      "t": 8656.25,
      "d": 246.875,
      "v": 75
    },
    {
      "midi": 51,
      "hit": false,
      "t": 8665.625,
      "d": 321.875,
      "v": 61
    },
    {
      "midi": 63,
      "hit": false,
      "t": 8668.75,
      "d": 275,
      "v": 64
    },
    {
      "midi": 72,
      "hit": false,
      "t": 8896.875,
      "d": 265.625,
      "v": 87
    },
    {
      "midi": 68,
      "hit": false,
      "t": 9118.75,
      "d": 181.25,
      "v": 87
    },
    {
      "midi": 63,
      "hit": false,
      "t": 9353.125,
      "d": 112.5,
      "v": 91
    },
    {
      "midi": 61,
      "hit": false,
      "t": 9596.875,
      "d": 340.625,
      "v": 67
    },
    {
      "midi": 67,
      "hit": false,
      "t": 9600,
      "d": 353.125,
      "v": 70
    },
    {
      "midi": 51,
      "hit": false,
      "t": 9618.75,
      "d": 428.125,
      "v": 37
    },
    {
      "midi": 39,
      "hit": false,
      "t": 9659.375,
      "d": 328.125,
      "v": 20
    },
    {
      "midi": 72,
      "hit": false,
      "t": 9840.625,
      "d": 246.875,
      "v": 67
    },
    {
      "midi": 61,
      "hit": false,
      "t": 10090.625,
      "d": 115.625,
      "v": 60
    },
    {
      "midi": 70,
      "hit": false,
      "t": 10093.75,
      "d": 131.25,
      "v": 73
    },
    {
      "midi": 67,
      "hit": false,
      "t": 10109.375,
      "d": 53.125,
      "v": 50
    },
    {
      "midi": 68,
      "hit": false,
      "t": 10565.625,
      "d": 509.375,
      "v": 62
    },
    {
      "midi": 60,
      "hit": false,
      "t": 10575,
      "d": 440.625,
      "v": 44
    },
    {
      "midi": 63,
      "hit": false,
      "t": 10575,
      "d": 478.125,
      "v": 49
    },
    {
      "midi": 56,
      "hit": false,
      "t": 10587.5,
      "d": 78.125,
      "v": 46
    },
    {
      "midi": 44,
      "hit": false,
      "t": 10603.125,
      "d": 134.375,
      "v": 42
    },
    {
      "midi": 51,
      "hit": false,
      "t": 11075,
      "d": 62.5,
      "v": 34
    },
    {
      "midi": 39,
      "hit": false,
      "t": 11096.875,
      "d": 68.75,
      "v": 35
    },
    {
      "midi": 80,
      "hit": false,
      "t": 11612.5,
      "d": 603.125,
      "v": 58
    },
    {
      "midi": 32,
      "hit": false,
      "t": 11621.875,
      "d": 134.375,
      "v": 59
    },
    {
      "midi": 72,
      "hit": false,
      "t": 11625,
      "d": 628.125,
      "v": 48
    },
    {
      "midi": 75,
      "hit": false,
      "t": 11631.25,
      "d": 621.875,
      "v": 54
    },
    {
      "midi": 44,
      "hit": false,
      "t": 11637.5,
      "d": 121.875,
      "v": 38
    },
    {
      "midi": 68,
      "hit": false,
      "t": 11653.125,
      "d": 609.375,
      "v": 24
    },
    {
      "midi": 39,
      "hit": false,
      "t": 12128.125,
      "d": 53.125,
      "v": 52
    },
    {
      "midi": 51,
      "hit": false,
      "t": 12128.125,
      "d": 56.25,
      "v": 49
    },
    {
      "midi": 44,
      "hit": false,
      "t": 12615.625,
      "d": 121.875,
      "v": 76
    },
    {
      "midi": 56,
      "hit": false,
      "t": 12615.625,
      "d": 150,
      "v": 70
    },
    {
      "midi": 77,
      "hit": false,
      "t": 13056.25,
      "d": 115.625,
      "v": 92
    },
    {
      "midi": 75,
      "hit": false,
      "t": 13081.25,
      "d": 193.75,
      "v": 84
    },
    {
      "midi": 60,
      "hit": false,
      "t": 13093.75,
      "d": 75,
      "v": 63
    },
    {
      "midi": 51,
      "hit": false,
      "t": 13093.75,
      "d": 81.25,
      "v": 60
    },
    {
      "midi": 72,
      "hit": false,
      "t": 13093.75,
      "d": 146.875,
      "v": 76
    },
    {
      "midi": 56,
      "hit": false,
      "t": 13100,
      "d": 68.75,
      "v": 62
    },
    {
      "midi": 74,
      "hit": false,
      "t": 13312.5,
      "d": 153.125,
      "v": 85
    },
    {
      "midi": 71,
      "hit": false,
      "t": 13325,
      "d": 303.125,
      "v": 55
    },
    {
      "midi": 75,
      "hit": false,
      "t": 13553.125,
      "d": 156.25,
      "v": 72
    },
    {
      "midi": 72,
      "hit": false,
      "t": 13565.625,
      "d": 162.5,
      "v": 73
    },
    {
      "midi": 77,
      "hit": false,
      "t": 13803.125,
      "d": 471.875,
      "v": 80
    },
    {
      "midi": 73,
      "hit": false,
      "t": 13809.375,
      "d": 390.625,
      "v": 70
    },
    {
      "midi": 39,
      "hit": false,
      "t": 14050,
      "d": 46.875,
      "v": 57
    },
    {
      "midi": 51,
      "hit": false,
      "t": 14050,
      "d": 84.375,
      "v": 64
    },
    {
      "midi": 75,
      "hit": false,
      "t": 14293.75,
      "d": 200,
      "v": 71
    },
    {
      "midi": 72,
      "hit": false,
      "t": 14296.875,
      "d": 75,
      "v": 65
    },
    {
      "midi": 73,
      "hit": false,
      "t": 14518.75,
      "d": 156.25,
      "v": 74
    },
    {
      "midi": 43,
      "hit": false,
      "t": 14531.25,
      "d": 106.25,
      "v": 44
    },
    {
      "midi": 55,
      "hit": false,
      "t": 14534.375,
      "d": 171.875,
      "v": 43
    },
    {
      "midi": 70,
      "hit": false,
      "t": 14543.75,
      "d": 253.125,
      "v": 72
    },
    {
      "midi": 61,
      "hit": false,
      "t": 14993.75,
      "d": 46.875,
      "v": 58
    },
    {
      "midi": 79,
      "hit": false,
      "t": 15003.125,
      "d": 121.875,
      "v": 84
    },
    {
      "midi": 58,
      "hit": false,
      "t": 15012.5,
      "d": 43.75,
      "v": 70
    },
    {
      "midi": 51,
      "hit": false,
      "t": 15015.625,
      "d": 56.25,
      "v": 49
    },
    {
      "midi": 73,
      "hit": false,
      "t": 15025,
      "d": 75,
      "v": 57
    },
    {
      "midi": 79,
      "hit": false,
      "t": 15265.625,
      "d": 403.125,
      "v": 81
    },
    {
      "midi": 73,
      "hit": false,
      "t": 15265.625,
      "d": 409.375,
      "v": 79
    },
    {
      "midi": 39,
      "hit": false,
      "t": 15481.25,
      "d": 40.625,
      "v": 79
    },
    {
      "midi": 51,
      "hit": false,
      "t": 15487.5,
      "d": 56.25,
      "v": 73
    },
    {
      "midi": 78,
      "hit": false,
      "t": 15734.375,
      "d": 128.125,
      "v": 67
    },
    {
      "midi": 73,
      "hit": false,
      "t": 15943.75,
      "d": 87.5,
      "v": 64
    },
    {
      "midi": 61,
      "hit": false,
      "t": 15950,
      "d": 37.5,
      "v": 69
    },
    {
      "midi": 77,
      "hit": false,
      "t": 15950,
      "d": 62.5,
      "v": 69
    },
    {
      "midi": 58,
      "hit": false,
      "t": 15956.25,
      "d": 50,
      "v": 73
    },
    {
      "midi": 51,
      "hit": false,
      "t": 15962.5,
      "d": 53.125,
      "v": 50
    },
    {
      "midi": 46,
      "hit": false,
      "t": 16406.25,
      "d": 75,
      "v": 87
    },
    {
      "midi": 77,
      "hit": false,
      "t": 16856.25,
      "d": 43.75,
      "v": 81
    },
    {
      "midi": 63,
      "hit": false,
      "t": 16862.5,
      "d": 40.625,
      "v": 74
    },
    {
      "midi": 61,
      "hit": false,
      "t": 16868.75,
      "d": 37.5,
      "v": 75
    },
    {
      "midi": 75,
      "hit": false,
      "t": 16878.125,
      "d": 46.875,
      "v": 83
    },
    {
      "midi": 73,
      "hit": false,
      "t": 16878.125,
      "d": 93.75,
      "v": 79
    },
    {
      "midi": 55,
      "hit": false,
      "t": 16887.5,
      "d": 50,
      "v": 44
    },
    {
      "midi": 84,
      "hit": false,
      "t": 17137.5,
      "d": 331.25,
      "v": 80
    },
    {
      "midi": 79,
      "hit": false,
      "t": 17143.75,
      "d": 365.625,
      "v": 80
    },
    {
      "midi": 73,
      "hit": false,
      "t": 17146.875,
      "d": 484.375,
      "v": 67
    },
    {
      "midi": 39,
      "hit": false,
      "t": 17337.5,
      "d": 62.5,
      "v": 70
    },
    {
      "midi": 51,
      "hit": false,
      "t": 17353.125,
      "d": 68.75,
      "v": 60
    },
    {
      "midi": 83,
      "hit": false,
      "t": 17596.875,
      "d": 106.25,
      "v": 55
    },
    {
      "midi": 82,
      "hit": false,
      "t": 17815.625,
      "d": 62.5,
      "v": 64
    },
    {
      "midi": 73,
      "hit": false,
      "t": 17818.75,
      "d": 81.25,
      "v": 39
    },
    {
      "midi": 63,
      "hit": false,
      "t": 17821.875,
      "d": 68.75,
      "v": 41
    },
    {
      "midi": 55,
      "hit": false,
      "t": 17825,
      "d": 46.875,
      "v": 60
    },
    {
      "midi": 61,
      "hit": false,
      "t": 17825,
      "d": 46.875,
      "v": 51
    },
    {
      "midi": 79,
      "hit": false,
      "t": 17825,
      "d": 56.25,
      "v": 62
    },
    {
      "midi": 58,
      "hit": false,
      "t": 17837.5,
      "d": 59.375,
      "v": 38
    },
    {
      "midi": 44,
      "hit": false,
      "t": 18275,
      "d": 134.375,
      "v": 71
    },
    {
      "midi": 56,
      "hit": false,
      "t": 18278.125,
      "d": 156.25,
      "v": 63
    },
    {
      "midi": 77,
      "hit": false,
      "t": 18693.75,
      "d": 181.25,
      "v": 89
    },
    {
      "midi": 60,
      "hit": false,
      "t": 18725,
      "d": 50,
      "v": 80
    },
    {
      "midi": 56,
      "hit": false,
      "t": 18728.125,
      "d": 78.125,
      "v": 74
    },
    {
      "midi": 72,
      "hit": false,
      "t": 18728.125,
      "d": 121.875,
      "v": 83
    },
    {
      "midi": 51,
      "hit": false,
      "t": 18737.5,
      "d": 81.25,
      "v": 62
    },
    {
      "midi": 75,
      "hit": false,
      "t": 18756.25,
      "d": 156.25,
      "v": 84
    },
    {
      "midi": 51,
      "hit": false,
      "t": 18987.5,
      "d": 62.5,
      "v": 39
    },
    {
      "midi": 82,
      "hit": false,
      "t": 18987.5,
      "d": 350,
      "v": 113
    },
    {
      "midi": 72,
      "hit": false,
      "t": 18990.625,
      "d": 393.75,
      "v": 97
    },
    {
      "midi": 51,
      "hit": false,
      "t": 19193.75,
      "d": 115.625,
      "v": 64
    },
    {
      "midi": 39,
      "hit": false,
      "t": 19196.875,
      "d": 56.25,
      "v": 68
    },
    {
      "midi": 81,
      "hit": false,
      "t": 19440.625,
      "d": 106.25,
      "v": 98
    },
    {
      "midi": 56,
      "hit": false,
      "t": 19643.75,
      "d": 68.75,
      "v": 56
    },
    {
      "midi": 51,
      "hit": false,
      "t": 19643.75,
      "d": 112.5,
      "v": 63
    },
    {
      "midi": 60,
      "hit": false,
      "t": 19650,
      "d": 50,
      "v": 63
    },
    {
      "midi": 80,
      "hit": false,
      "t": 19656.25,
      "d": 50,
      "v": 85
    },
    {
      "midi": 72,
      "hit": false,
      "t": 19662.5,
      "d": 59.375,
      "v": 75
    },
    {
      "midi": 56,
      "hit": false,
      "t": 20109.375,
      "d": 121.875,
      "v": 100
    },
    {
      "midi": 44,
      "hit": false,
      "t": 20112.5,
      "d": 115.625,
      "v": 93
    },
    {
      "midi": 72,
      "hit": false,
      "t": 20362.5,
      "d": 343.75,
      "v": 106
    },
    {
      "midi": 75,
      "hit": false,
      "t": 20362.5,
      "d": 375,
      "v": 102
    },
    {
      "midi": 60,
      "hit": false,
      "t": 20559.375,
      "d": 109.375,
      "v": 96
    },
    {
      "midi": 51,
      "hit": false,
      "t": 20565.625,
      "d": 121.875,
      "v": 86
    },
    {
      "midi": 56,
      "hit": false,
      "t": 20568.75,
      "d": 118.75,
      "v": 72
    },
    {
      "midi": 74,
      "hit": false,
      "t": 20793.75,
      "d": 162.5,
      "v": 106
    },
    {
      "midi": 71,
      "hit": false,
      "t": 20806.25,
      "d": 156.25,
      "v": 76
    },
    {
      "midi": 75,
      "hit": false,
      "t": 21009.375,
      "d": 175,
      "v": 97
    },
    {
      "midi": 56,
      "hit": false,
      "t": 21012.5,
      "d": 206.25,
      "v": 89
    },
    {
      "midi": 72,
      "hit": false,
      "t": 21015.625,
      "d": 175,
      "v": 102
    },
    {
      "midi": 44,
      "hit": false,
      "t": 21015.625,
      "d": 184.375,
      "v": 88
    },
    {
      "midi": 74,
      "hit": false,
      "t": 21231.25,
      "d": 140.625,
      "v": 104
    },
    {
      "midi": 55,
      "hit": false,
      "t": 21443.75,
      "d": 103.125,
      "v": 95
    },
    {
      "midi": 43,
      "hit": false,
      "t": 21446.875,
      "d": 115.625,
      "v": 85
    },
    {
      "midi": 75,
      "hit": false,
      "t": 21446.875,
      "d": 131.25,
      "v": 97
    },
    {
      "midi": 76,
      "hit": false,
      "t": 21668.75,
      "d": 100,
      "v": 106
    },
    {
      "midi": 77,
      "hit": false,
      "t": 21893.75,
      "d": 193.75,
      "v": 83
    },
    {
      "midi": 41,
      "hit": false,
      "t": 21900,
      "d": 71.875,
      "v": 84
    },
    {
      "midi": 72,
      "hit": false,
      "t": 21912.5,
      "d": 575,
      "v": 74
    },
    {
      "midi": 68,
      "hit": false,
      "t": 21915.625,
      "d": 553.125,
      "v": 73
    },
    {
      "midi": 53,
      "hit": false,
      "t": 21918.75,
      "d": 118.75,
      "v": 59
    },
    {
      "midi": 65,
      "hit": false,
      "t": 22362.5,
      "d": 50,
      "v": 58
    },
    {
      "midi": 79,
      "hit": false,
      "t": 22362.5,
      "d": 165.625,
      "v": 76
    },
    {
      "midi": 60,
      "hit": false,
      "t": 22371.875,
      "d": 46.875,
      "v": 66
    },
    {
      "midi": 56,
      "hit": false,
      "t": 22375,
      "d": 56.25,
      "v": 50
    },
    {
      "midi": 72,
      "hit": false,
      "t": 22609.375,
      "d": 393.75,
      "v": 45
    },
    {
      "midi": 77,
      "hit": false,
      "t": 22615.625,
      "d": 328.125,
      "v": 86
    },
    {
      "midi": 68,
      "hit": false,
      "t": 22621.875,
      "d": 450,
      "v": 64
    },
    {
      "midi": 53,
      "hit": false,
      "t": 22818.75,
      "d": 153.125,
      "v": 61
    },
    {
      "midi": 41,
      "hit": false,
      "t": 22831.25,
      "d": 146.875,
      "v": 52
    },
    {
      "midi": 75,
      "hit": false,
      "t": 23075,
      "d": 212.5,
      "v": 68
    },
    {
      "midi": 51,
      "hit": false,
      "t": 23250,
      "d": 75,
      "v": 47
    },
    {
      "midi": 39,
      "hit": false,
      "t": 23275,
      "d": 75,
      "v": 25
    },
    {
      "midi": 72,
      "hit": false,
      "t": 23290.625,
      "d": 100,
      "v": 63
    },
    {
      "midi": 68,
      "hit": false,
      "t": 23490.625,
      "d": 121.875,
      "v": 77
    },
    {
      "midi": 70,
      "hit": false,
      "t": 23696.875,
      "d": 171.875,
      "v": 87
    },
    {
      "midi": 38,
      "hit": false,
      "t": 23706.25,
      "d": 68.75,
      "v": 50
    },
    {
      "midi": 50,
      "hit": false,
      "t": 23718.75,
      "d": 118.75,
      "v": 41
    },
    {
      "midi": 79,
      "hit": false,
      "t": 24137.5,
      "d": 212.5,
      "v": 83
    },
    {
      "midi": 58,
      "hit": false,
      "t": 24156.25,
      "d": 56.25,
      "v": 60
    },
    {
      "midi": 62,
      "hit": false,
      "t": 24156.25,
      "d": 56.25,
      "v": 49
    },
    {
      "midi": 56,
      "hit": false,
      "t": 24162.5,
      "d": 53.125,
      "v": 56
    },
    {
      "midi": 77,
      "hit": false,
      "t": 24390.625,
      "d": 315.625,
      "v": 76
    },
    {
      "midi": 74,
      "hit": false,
      "t": 24393.75,
      "d": 409.375,
      "v": 72
    },
    {
      "midi": 68,
      "hit": false,
      "t": 24396.875,
      "d": 465.625,
      "v": 59
    },
    {
      "midi": 34,
      "hit": false,
      "t": 24578.125,
      "d": 40.625,
      "v": 88
    },
    {
      "midi": 79,
      "hit": false,
      "t": 24800,
      "d": 175,
      "v": 72
    },
    {
      "midi": 62,
      "hit": false,
      "t": 25006.25,
      "d": 50,
      "v": 76
    },
    {
      "midi": 58,
      "hit": false,
      "t": 25006.25,
      "d": 81.25,
      "v": 71
    },
    {
      "midi": 68,
      "hit": false,
      "t": 25006.25,
      "d": 190.625,
      "v": 72
    },
    {
      "midi": 56,
      "hit": false,
      "t": 25012.5,
      "d": 71.875,
      "v": 67
    },
    {
      "midi": 77,
      "hit": false,
      "t": 25021.875,
      "d": 131.25,
      "v": 80
    },
    {
      "midi": 74,
      "hit": false,
      "t": 25028.125,
      "d": 125,
      "v": 69
    },
    {
      "midi": 75,
      "hit": false,
      "t": 25281.25,
      "d": 56.25,
      "v": 46
    },
    {
      "midi": 75,
      "hit": false,
      "t": 25465.625,
      "d": 400,
      "v": 101
    },
    {
      "midi": 67,
      "hit": false,
      "t": 25471.875,
      "d": 312.5,
      "v": 100
    },
    {
      "midi": 39,
      "hit": false,
      "t": 25493.75,
      "d": 106.25,
      "v": 75
    },
    {
      "midi": 51,
      "hit": false,
      "t": 25493.75,
      "d": 150,
      "v": 66
    },
    {
      "midi": 75,
      "hit": false,
      "t": 25925,
      "d": 331.25,
      "v": 93
    },
    {
      "midi": 68,
      "hit": false,
      "t": 25937.5,
      "d": 218.75,
      "v": 106
    },
    {
      "midi": 73,
      "hit": false,
      "t": 25940.625,
      "d": 328.125,
      "v": 96
    },
    {
      "midi": 65,
      "hit": false,
      "t": 25943.75,
      "d": 287.5,
      "v": 90
    },
    {
      "midi": 53,
      "hit": false,
      "t": 25962.5,
      "d": 281.25,
      "v": 73
    },
    {
      "midi": 77,
      "hit": false,
      "t": 26168.75,
      "d": 78.125,
      "v": 108
    },
    {
      "midi": 68,
      "hit": false,
      "t": 26384.375,
      "d": 343.75,
      "v": 99
    },
    {
      "midi": 72,
      "hit": false,
      "t": 26387.5,
      "d": 318.75,
      "v": 97
    },
    {
      "midi": 67,
      "hit": false,
      "t": 26393.75,
      "d": 318.75,
      "v": 91
    },
    {
      "midi": 63,
      "hit": false,
      "t": 26406.25,
      "d": 121.875,
      "v": 75
    },
    {
      "midi": 51,
      "hit": false,
      "t": 26428.125,
      "d": 153.125,
      "v": 65
    },
    {
      "midi": 65,
      "hit": false,
      "t": 26656.25,
      "d": 62.5,
      "v": 93
    },
    {
      "midi": 63,
      "hit": false,
      "t": 26928.125,
      "d": 384.375,
      "v": 90
    },
    {
      "midi": 73,
      "hit": false,
      "t": 26934.375,
      "d": 400,
      "v": 88
    },
    {
      "midi": 51,
      "hit": false,
      "t": 26965.625,
      "d": 175,
      "v": 55
    },
    {
      "midi": 39,
      "hit": false,
      "t": 26968.75,
      "d": 212.5,
      "v": 50
    },
    {
      "midi": 70,
      "hit": false,
      "t": 27221.875,
      "d": 153.125,
      "v": 91
    },
    {
      "midi": 72,
      "hit": false,
      "t": 27528.125,
      "d": 206.25,
      "v": 85
    },
    {
      "midi": 44,
      "hit": false,
      "t": 27537.5,
      "d": 118.75,
      "v": 44
    },
    {
      "midi": 68,
      "hit": false,
      "t": 27537.5,
      "d": 187.5,
      "v": 85
    },
    {
      "midi": 63,
      "hit": false,
      "t": 27540.625,
      "d": 168.75,
      "v": 73
    },
    {
      "midi": 32,
      "hit": false,
      "t": 27543.75,
      "d": 100,
      "v": 65
    },
    {
      "midi": 77,
      "hit": false,
      "t": 28021.875,
      "d": 218.75,
      "v": 102
    },
    {
      "midi": 60,
      "hit": false,
      "t": 28037.5,
      "d": 59.375,
      "v": 76
    },
    {
      "midi": 51,
      "hit": false,
      "t": 28050,
      "d": 87.5,
      "v": 56
    },
    {
      "midi": 72,
      "hit": false,
      "t": 28050,
      "d": 184.375,
      "v": 85
    },
    {
      "midi": 75,
      "hit": false,
      "t": 28050,
      "d": 231.25,
      "v": 78
    },
    {
      "midi": 56,
      "hit": false,
      "t": 28053.125,
      "d": 53.125,
      "v": 74
    },
    {
      "midi": 74,
      "hit": false,
      "t": 28281.25,
      "d": 121.875,
      "v": 84
    },
    {
      "midi": 71,
      "hit": false,
      "t": 28281.25,
      "d": 293.75,
      "v": 66
    },
    {
      "midi": 75,
      "hit": false,
      "t": 28493.75,
      "d": 187.5,
      "v": 80
    },
    {
      "midi": 72,
      "hit": false,
      "t": 28506.25,
      "d": 181.25,
      "v": 73
    },
    {
      "midi": 73,
      "hit": false,
      "t": 28731.25,
      "d": 425,
      "v": 82
    },
    {
      "midi": 77,
      "hit": false,
      "t": 28746.875,
      "d": 428.125,
      "v": 86
    },
    {
      "midi": 39,
      "hit": false,
      "t": 28984.375,
      "d": 28.125,
      "v": 85
    },
    {
      "midi": 51,
      "hit": false,
      "t": 28984.375,
      "d": 40.625,
      "v": 88
    },
    {
      "midi": 75,
      "hit": false,
      "t": 29212.5,
      "d": 275,
      "v": 70
    },
    {
      "midi": 72,
      "hit": false,
      "t": 29225,
      "d": 118.75,
      "v": 57
    },
    {
      "midi": 73,
      "hit": false,
      "t": 29440.625,
      "d": 171.875,
      "v": 83
    },
    {
      "midi": 70,
      "hit": false,
      "t": 29443.75,
      "d": 375,
      "v": 78
    },
    {
      "midi": 43,
      "hit": false,
      "t": 29471.875,
      "d": 106.25,
      "v": 70
    },
    {
      "midi": 79,
      "hit": false,
      "t": 29896.875,
      "d": 137.5,
      "v": 83
    },
    {
      "midi": 61,
      "hit": false,
      "t": 29912.5,
      "d": 34.375,
      "v": 75
    },
    {
      "midi": 58,
      "hit": false,
      "t": 29925,
      "d": 40.625,
      "v": 79
    },
    {
      "midi": 73,
      "hit": false,
      "t": 29925,
      "d": 81.25,
      "v": 65
    },
    {
      "midi": 51,
      "hit": false,
      "t": 29928.125,
      "d": 50,
      "v": 55
    },
    {
      "midi": 79,
      "hit": false,
      "t": 30150,
      "d": 425,
      "v": 70
    },
    {
      "midi": 73,
      "hit": false,
      "t": 30162.5,
      "d": 368.75,
      "v": 73
    },
    {
      "midi": 39,
      "hit": false,
      "t": 30384.375,
      "d": 37.5,
      "v": 75
    },
    {
      "midi": 51,
      "hit": false,
      "t": 30387.5,
      "d": 56.25,
      "v": 70
    },
    {
      "midi": 78,
      "hit": false,
      "t": 30621.875,
      "d": 106.25,
      "v": 60
    },
    {
      "midi": 51,
      "hit": false,
      "t": 30803.125,
      "d": 90.625,
      "v": 62
    },
    {
      "midi": 61,
      "hit": false,
      "t": 30806.25,
      "d": 46.875,
      "v": 65
    },
    {
      "midi": 73,
      "hit": false,
      "t": 30815.625,
      "d": 78.125,
      "v": 71
    },
    {
      "midi": 77,
      "hit": false,
      "t": 30815.625,
      "d": 96.875,
      "v": 78
    },
    {
      "midi": 58,
      "hit": false,
      "t": 30831.25,
      "d": 46.875,
      "v": 64
    },
    {
      "midi": 46,
      "hit": false,
      "t": 31259.375,
      "d": 103.125,
      "v": 87
    },
    {
      "midi": 77,
      "hit": false,
      "t": 31684.375,
      "d": 100,
      "v": 100
    },
    {
      "midi": 63,
      "hit": false,
      "t": 31700,
      "d": 40.625,
      "v": 77
    },
    {
      "midi": 61,
      "hit": false,
      "t": 31706.25,
      "d": 40.625,
      "v": 81
    },
    {
      "midi": 55,
      "hit": false,
      "t": 31712.5,
      "d": 43.75,
      "v": 60
    },
    {
      "midi": 73,
      "hit": false,
      "t": 31712.5,
      "d": 118.75,
      "v": 88
    },
    {
      "midi": 75,
      "hit": false,
      "t": 31731.25,
      "d": 40.625,
      "v": 79
    },
    {
      "midi": 84,
      "hit": false,
      "t": 31975,
      "d": 334.375,
      "v": 88
    },
    {
      "midi": 73,
      "hit": false,
      "t": 31987.5,
      "d": 453.125,
      "v": 76
    },
    {
      "midi": 79,
      "hit": false,
      "t": 31993.75,
      "d": 340.625,
      "v": 88
    },
    {
      "midi": 39,
      "hit": false,
      "t": 32171.875,
      "d": 40.625,
      "v": 71
    },
    {
      "midi": 83,
      "hit": false,
      "t": 32415.625,
      "d": 137.5,
      "v": 64
    },
    {
      "midi": 63,
      "hit": false,
      "t": 32618.75,
      "d": 50,
      "v": 55
    },
    {
      "midi": 73,
      "hit": false,
      "t": 32628.125,
      "d": 137.5,
      "v": 40
    },
    {
      "midi": 82,
      "hit": false,
      "t": 32637.5,
      "d": 84.375,
      "v": 62
    },
    {
      "midi": 55,
      "hit": false,
      "t": 32643.75,
      "d": 46.875,
      "v": 49
    },
    {
      "midi": 61,
      "hit": false,
      "t": 32646.875,
      "d": 50,
      "v": 39
    },
    {
      "midi": 79,
      "hit": false,
      "t": 32668.75,
      "d": 65.625,
      "v": 36
    },
    {
      "midi": 58,
      "hit": false,
      "t": 32675,
      "d": 53.125,
      "v": 19
    },
    {
      "midi": 44,
      "hit": false,
      "t": 33087.5,
      "d": 121.875,
      "v": 73
    },
    {
      "midi": 56,
      "hit": false,
      "t": 33093.75,
      "d": 150,
      "v": 61
    },
    {
      "midi": 77,
      "hit": false,
      "t": 33496.875,
      "d": 184.375,
      "v": 97
    },
    {
      "midi": 56,
      "hit": false,
      "t": 33525,
      "d": 109.375,
      "v": 69
    },
    {
      "midi": 60,
      "hit": false,
      "t": 33528.125,
      "d": 46.875,
      "v": 81
    },
    {
      "midi": 72,
      "hit": false,
      "t": 33528.125,
      "d": 125,
      "v": 81
    },
    {
      "midi": 51,
      "hit": false,
      "t": 33537.5,
      "d": 81.25,
      "v": 60
    },
    {
      "midi": 75,
      "hit": false,
      "t": 33559.375,
      "d": 162.5,
      "v": 79
    },
    {
      "midi": 82,
      "hit": false,
      "t": 33775,
      "d": 315.625,
      "v": 115
    },
    {
      "midi": 72,
      "hit": false,
      "t": 33781.25,
      "d": 375,
      "v": 98
    },
    {
      "midi": 39,
      "hit": false,
      "t": 33971.875,
      "d": 84.375,
      "v": 82
    },
    {
      "midi": 51,
      "hit": false,
      "t": 33971.875,
      "d": 118.75,
      "v": 82
    },
    {
      "midi": 81,
      "hit": false,
      "t": 34196.875,
      "d": 265.625,
      "v": 105
    },
    {
      "midi": 60,
      "hit": false,
      "t": 34406.25,
      "d": 50,
      "v": 75
    },
    {
      "midi": 56,
      "hit": false,
      "t": 34412.5,
      "d": 62.5,
      "v": 69
    },
    {
      "midi": 72,
      "hit": false,
      "t": 34412.5,
      "d": 115.625,
      "v": 83
    },
    {
      "midi": 80,
      "hit": false,
      "t": 34412.5,
      "d": 118.75,
      "v": 97
    },
    {
      "midi": 51,
      "hit": false,
      "t": 34421.875,
      "d": 68.75,
      "v": 59
    },
    {
      "midi": 79,
      "hit": false,
      "t": 34631.25,
      "d": 93.75,
      "v": 109
    },
    {
      "midi": 77,
      "hit": false,
      "t": 34850,
      "d": 256.25,
      "v": 112
    },
    {
      "midi": 49,
      "hit": false,
      "t": 34868.75,
      "d": 106.25,
      "v": 76
    },
    {
      "midi": 73,
      "hit": false,
      "t": 34871.875,
      "d": 271.875,
      "v": 95
    },
    {
      "midi": 37,
      "hit": false,
      "t": 34875,
      "d": 71.875,
      "v": 76
    },
    {
      "midi": 77,
      "hit": false,
      "t": 35306.25,
      "d": 93.75,
      "v": 118
    },
    {
      "midi": 61,
      "hit": false,
      "t": 35309.375,
      "d": 62.5,
      "v": 91
    },
    {
      "midi": 65,
      "hit": false,
      "t": 35312.5,
      "d": 50,
      "v": 106
    },
    {
      "midi": 49,
      "hit": false,
      "t": 35318.75,
      "d": 84.375,
      "v": 76
    },
    {
      "midi": 70,
      "hit": false,
      "t": 35540.625,
      "d": 312.5,
      "v": 106
    },
    {
      "midi": 73,
      "hit": false,
      "t": 35540.625,
      "d": 312.5,
      "v": 103
    },
    {
      "midi": 65,
      "hit": false,
      "t": 35546.875,
      "d": 265.625,
      "v": 91
    },
    {
      "midi": 58,
      "hit": false,
      "t": 35750,
      "d": 156.25,
      "v": 114
    },
    {
      "midi": 46,
      "hit": false,
      "t": 35750,
      "d": 206.25,
      "v": 111
    },
    {
      "midi": 79,
      "hit": false,
      "t": 35971.875,
      "d": 100,
      "v": 115
    },
    {
      "midi": 67,
      "hit": false,
      "t": 35971.875,
      "d": 165.625,
      "v": 108
    },
    {
      "midi": 59,
      "hit": false,
      "t": 36178.125,
      "d": 156.25,
      "v": 102
    },
    {
      "midi": 47,
      "hit": false,
      "t": 36187.5,
      "d": 84.375,
      "v": 79
    },
    {
      "midi": 77,
      "hit": false,
      "t": 36409.375,
      "d": 28.125,
      "v": 111
    },
    {
      "midi": 65,
      "hit": false,
      "t": 36409.375,
      "d": 81.25,
      "v": 107
    },
    {
      "midi": 75,
      "hit": false,
      "t": 36621.875,
      "d": 200,
      "v": 105
    },
    {
      "midi": 63,
      "hit": false,
      "t": 36625,
      "d": 150,
      "v": 95
    },
    {
      "midi": 48,
      "hit": false,
      "t": 36628.125,
      "d": 112.5,
      "v": 73
    },
    {
      "midi": 60,
      "hit": false,
      "t": 36631.25,
      "d": 156.25,
      "v": 87
    },
    {
      "midi": 68,
      "hit": false,
      "t": 36643.75,
      "d": 165.625,
      "v": 86
    },
    {
      "midi": 68,
      "hit": false,
      "t": 37065.625,
      "d": 153.125,
      "v": 78
    },
    {
      "midi": 63,
      "hit": false,
      "t": 37068.75,
      "d": 115.625,
      "v": 81
    },
    {
      "midi": 72,
      "hit": false,
      "t": 37068.75,
      "d": 153.125,
      "v": 83
    },
    {
      "midi": 51,
      "hit": false,
      "t": 37071.875,
      "d": 84.375,
      "v": 71
    },
    {
      "midi": 79,
      "hit": false,
      "t": 37278.125,
      "d": 121.875,
      "v": 89
    },
    {
      "midi": 53,
      "hit": false,
      "t": 37484.375,
      "d": 234.375,
      "v": 53
    },
    {
      "midi": 65,
      "hit": false,
      "t": 37487.5,
      "d": 200,
      "v": 64
    },
    {
      "midi": 72,
      "hit": false,
      "t": 37493.75,
      "d": 412.5,
      "v": 71
    },
    {
      "midi": 68,
      "hit": false,
      "t": 37493.75,
      "d": 418.75,
      "v": 74
    },
    {
      "midi": 77,
      "hit": false,
      "t": 37496.875,
      "d": 409.375,
      "v": 92
    },
    {
      "midi": 64,
      "hit": false,
      "t": 37921.875,
      "d": 131.25,
      "v": 86
    },
    {
      "midi": 52,
      "hit": false,
      "t": 37943.75,
      "d": 50,
      "v": 48
    },
    {
      "midi": 80,
      "hit": false,
      "t": 38162.5,
      "d": 312.5,
      "v": 82
    },
    {
      "midi": 72,
      "hit": false,
      "t": 38175,
      "d": 509.375,
      "v": 69
    },
    {
      "midi": 68,
      "hit": false,
      "t": 38184.375,
      "d": 378.125,
      "v": 53
    },
    {
      "midi": 63,
      "hit": false,
      "t": 38368.75,
      "d": 281.25,
      "v": 70
    },
    {
      "midi": 51,
      "hit": false,
      "t": 38375,
      "d": 181.25,
      "v": 68
    },
    {
      "midi": 77,
      "hit": false,
      "t": 38618.75,
      "d": 156.25,
      "v": 88
    },
    {
      "midi": 60,
      "hit": false,
      "t": 38828.125,
      "d": 40.625,
      "v": 81
    },
    {
      "midi": 63,
      "hit": false,
      "t": 38828.125,
      "d": 40.625,
      "v": 79
    },
    {
      "midi": 75,
      "hit": false,
      "t": 38828.125,
      "d": 228.125,
      "v": 83
    },
    {
      "midi": 56,
      "hit": false,
      "t": 38868.75,
      "d": 56.25,
      "v": 45
    },
    {
      "midi": 72,
      "hit": false,
      "t": 39043.75,
      "d": 43.75,
      "v": 89
    },
    {
      "midi": 62,
      "hit": false,
      "t": 39259.375,
      "d": 53.125,
      "v": 94
    },
    {
      "midi": 68,
      "hit": false,
      "t": 39259.375,
      "d": 190.625,
      "v": 99
    },
    {
      "midi": 52,
      "hit": false,
      "t": 39262.5,
      "d": 171.875,
      "v": 67
    },
    {
      "midi": 40,
      "hit": false,
      "t": 39268.75,
      "d": 65.625,
      "v": 46
    },
    {
      "midi": 61,
      "hit": false,
      "t": 39487.5,
      "d": 437.5,
      "v": 86
    },
    {
      "midi": 70,
      "hit": false,
      "t": 39509.375,
      "d": 453.125,
      "v": 81
    },
    {
      "midi": 39,
      "hit": false,
      "t": 39731.25,
      "d": 121.875,
      "v": 69
    },
    {
      "midi": 51,
      "hit": false,
      "t": 39731.25,
      "d": 168.75,
      "v": 62
    },
    {
      "midi": 68,
      "hit": false,
      "t": 39975,
      "d": 531.25,
      "v": 73
    },
    {
      "midi": 60,
      "hit": false,
      "t": 39990.625,
      "d": 406.25,
      "v": 57
    },
    {
      "midi": 56,
      "hit": false,
      "t": 40215.625,
      "d": 40.625,
      "v": 66
    },
    {
      "midi": 44,
      "hit": false,
      "t": 40221.875,
      "d": 118.75,
      "v": 59
    },
    {
      "midi": 51,
      "hit": false,
      "t": 40681.25,
      "d": 50,
      "v": 62
    },
    {
      "midi": 39,
      "hit": false,
      "t": 40693.75,
      "d": 78.125,
      "v": 58
    },
    {
      "midi": 32,
      "hit": false,
      "t": 41184.375,
      "d": 46.875,
      "v": 54
    },
    {
      "midi": 80,
      "hit": false,
      "t": 41184.375,
      "d": 1181.25,
      "v": 60
    },
    {
      "midi": 68,
      "hit": false,
      "t": 41193.75,
      "d": 1250,
      "v": 47
    },
    {
      "midi": 44,
      "hit": false,
      "t": 41196.875,
      "d": 62.5,
      "v": 38
    },
    {
      "midi": 75,
      "hit": false,
      "t": 41200,
      "d": 1228.125,
      "v": 53
    },
    {
      "midi": 72,
      "hit": false,
      "t": 41200,
      "d": 1234.375,
      "v": 44
    },
    {
      "midi": 39,
      "hit": false,
      "t": 41709.375,
      "d": 46.875,
      "v": 75
    },
    {
      "midi": 51,
      "hit": false,
      "t": 41709.375,
      "d": 46.875,
      "v": 85
    },
    {
      "midi": 44,
      "hit": false,
      "t": 42287.5,
      "d": 112.5,
      "v": 68
    },
    {
      "midi": 56,
      "hit": false,
      "t": 42290.625,
      "d": 106.25,
      "v": 61
    },
    {
      "midi": 77,
      "hit": false,
      "t": 42775,
      "d": 140.625,
      "v": 86
    },
    {
      "midi": 51,
      "hit": false,
      "t": 42787.5,
      "d": 46.875,
      "v": 74
    },
    {
      "midi": 60,
      "hit": false,
      "t": 42796.875,
      "d": 56.25,
      "v": 65
    },
    {
      "midi": 56,
      "hit": false,
      "t": 42800,
      "d": 53.125,
      "v": 68
    },
    {
      "midi": 75,
      "hit": false,
      "t": 42806.25,
      "d": 196.875,
      "v": 72
    },
    {
      "midi": 72,
      "hit": false,
      "t": 42812.5,
      "d": 156.25,
      "v": 75
    },
    {
      "midi": 74,
      "hit": false,
      "t": 43037.5,
      "d": 146.875,
      "v": 64
    },
    {
      "midi": 71,
      "hit": false,
      "t": 43059.375,
      "d": 309.375,
      "v": 30
    },
    {
      "midi": 75,
      "hit": false,
      "t": 43256.25,
      "d": 171.875,
      "v": 66
    },
    {
      "midi": 72,
      "hit": false,
      "t": 43284.375,
      "d": 140.625,
      "v": 64
    },
    {
      "midi": 77,
      "hit": false,
      "t": 43515.625,
      "d": 459.375,
      "v": 74
    },
    {
      "midi": 73,
      "hit": false,
      "t": 43518.75,
      "d": 368.75,
      "v": 64
    },
    {
      "midi": 51,
      "hit": false,
      "t": 43731.25,
      "d": 34.375,
      "v": 98
    },
    {
      "midi": 39,
      "hit": false,
      "t": 43734.375,
      "d": 31.25,
      "v": 95
    },
    {
      "midi": 72,
      "hit": false,
      "t": 43984.375,
      "d": 121.875,
      "v": 51
    },
    {
      "midi": 75,
      "hit": false,
      "t": 43987.5,
      "d": 287.5,
      "v": 56
    },
    {
      "midi": 73,
      "hit": false,
      "t": 44200,
      "d": 59.375,
      "v": 71
    },
    {
      "midi": 55,
      "hit": false,
      "t": 44206.25,
      "d": 53.125,
      "v": 74
    },
    {
      "midi": 43,
      "hit": false,
      "t": 44209.375,
      "d": 50,
      "v": 56
    },
    {
      "midi": 70,
      "hit": false,
      "t": 44215.625,
      "d": 71.875,
      "v": 73
    },
    {
      "midi": 79,
      "hit": false,
      "t": 44650,
      "d": 87.5,
      "v": 80
    },
    {
      "midi": 67,
      "hit": false,
      "t": 44659.375,
      "d": 71.875,
      "v": 67
    },
    {
      "midi": 73,
      "hit": false,
      "t": 44659.375,
      "d": 96.875,
      "v": 64
    },
    {
      "midi": 51,
      "hit": false,
      "t": 44662.5,
      "d": 62.5,
      "v": 70
    },
    {
      "midi": 58,
      "hit": false,
      "t": 44665.625,
      "d": 40.625,
      "v": 75
    },
    {
      "midi": 61,
      "hit": false,
      "t": 44668.75,
      "d": 43.75,
      "v": 62
    },
    {
      "midi": 79,
      "hit": false,
      "t": 44900,
      "d": 334.375,
      "v": 80
    },
    {
      "midi": 73,
      "hit": false,
      "t": 44909.375,
      "d": 343.75,
      "v": 72
    },
    {
      "midi": 67,
      "hit": false,
      "t": 44918.75,
      "d": 353.125,
      "v": 46
    },
    {
      "midi": 39,
      "hit": false,
      "t": 45112.5,
      "d": 37.5,
      "v": 73
    },
    {
      "midi": 78,
      "hit": false,
      "t": 45356.25,
      "d": 81.25,
      "v": 68
    },
    {
      "midi": 77,
      "hit": false,
      "t": 45553.125,
      "d": 71.875,
      "v": 77
    },
    {
      "midi": 73,
      "hit": false,
      "t": 45556.25,
      "d": 59.375,
      "v": 62
    },
    {
      "midi": 67,
      "hit": false,
      "t": 45556.25,
      "d": 65.625,
      "v": 47
    },
    {
      "midi": 61,
      "hit": false,
      "t": 45568.75,
      "d": 50,
      "v": 47
    },
    {
      "midi": 51,
      "hit": false,
      "t": 45571.875,
      "d": 50,
      "v": 50
    },
    {
      "midi": 58,
      "hit": false,
      "t": 45571.875,
      "d": 50,
      "v": 57
    },
    {
      "midi": 46,
      "hit": false,
      "t": 46012.5,
      "d": 75,
      "v": 83
    },
    {
      "midi": 77,
      "hit": false,
      "t": 46437.5,
      "d": 100,
      "v": 104
    },
    {
      "midi": 63,
      "hit": false,
      "t": 46453.125,
      "d": 40.625,
      "v": 69
    },
    {
      "midi": 61,
      "hit": false,
      "t": 46462.5,
      "d": 40.625,
      "v": 76
    },
    {
      "midi": 55,
      "hit": false,
      "t": 46468.75,
      "d": 50,
      "v": 49
    },
    {
      "midi": 73,
      "hit": false,
      "t": 46475,
      "d": 143.75,
      "v": 64
    },
    {
      "midi": 75,
      "hit": false,
      "t": 46503.125,
      "d": 50,
      "v": 50
    },
    {
      "midi": 84,
      "hit": false,
      "t": 46706.25,
      "d": 350,
      "v": 83
    },
    {
      "midi": 73,
      "hit": false,
      "t": 46712.5,
      "d": 487.5,
      "v": 60
    },
    {
      "midi": 79,
      "hit": false,
      "t": 46718.75,
      "d": 384.375,
      "v": 84
    },
    {
      "midi": 39,
      "hit": false,
      "t": 46909.375,
      "d": 56.25,
      "v": 72
    },
    {
      "midi": 51,
      "hit": false,
      "t": 46918.75,
      "d": 81.25,
      "v": 62
    },
    {
      "midi": 83,
      "hit": false,
      "t": 47165.625,
      "d": 121.875,
      "v": 59
    },
    {
      "midi": 63,
      "hit": false,
      "t": 47359.375,
      "d": 50,
      "v": 65
    },
    {
      "midi": 73,
      "hit": false,
      "t": 47368.75,
      "d": 62.5,
      "v": 59
    },
    {
      "midi": 55,
      "hit": false,
      "t": 47381.25,
      "d": 46.875,
      "v": 58
    },
    {
      "midi": 82,
      "hit": false,
      "t": 47381.25,
      "d": 50,
      "v": 68
    },
    {
      "midi": 61,
      "hit": false,
      "t": 47384.375,
      "d": 40.625,
      "v": 60
    },
    {
      "midi": 79,
      "hit": false,
      "t": 47393.75,
      "d": 43.75,
      "v": 63
    },
    {
      "midi": 58,
      "hit": false,
      "t": 47393.75,
      "d": 59.375,
      "v": 43
    },
    {
      "midi": 44,
      "hit": false,
      "t": 47815.625,
      "d": 131.25,
      "v": 76
    },
    {
      "midi": 56,
      "hit": false,
      "t": 47825,
      "d": 121.875,
      "v": 65
    },
    {
      "midi": 77,
      "hit": false,
      "t": 48231.25,
      "d": 228.125,
      "v": 96
    },
    {
      "midi": 72,
      "hit": false,
      "t": 48262.5,
      "d": 128.125,
      "v": 80
    },
    {
      "midi": 56,
      "hit": false,
      "t": 48265.625,
      "d": 78.125,
      "v": 79
    },
    {
      "midi": 60,
      "hit": false,
      "t": 48268.75,
      "d": 46.875,
      "v": 75
    },
    {
      "midi": 51,
      "hit": false,
      "t": 48268.75,
      "d": 118.75,
      "v": 70
    },
    {
      "midi": 75,
      "hit": false,
      "t": 48268.75,
      "d": 618.75,
      "v": 86
    },
    {
      "midi": 82,
      "hit": false,
      "t": 48500,
      "d": 315.625,
      "v": 113
    },
    {
      "midi": 72,
      "hit": false,
      "t": 48506.25,
      "d": 365.625,
      "v": 91
    },
    {
      "midi": 39,
      "hit": false,
      "t": 48712.5,
      "d": 40.625,
      "v": 90
    },
    {
      "midi": 51,
      "hit": false,
      "t": 48715.625,
      "d": 65.625,
      "v": 83
    },
    {
      "midi": 81,
      "hit": false,
      "t": 48946.875,
      "d": 115.625,
      "v": 95
    },
    {
      "midi": 80,
      "hit": false,
      "t": 49156.25,
      "d": 40.625,
      "v": 97
    },
    {
      "midi": 60,
      "hit": false,
      "t": 49156.25,
      "d": 43.75,
      "v": 80
    },
    {
      "midi": 56,
      "hit": false,
      "t": 49156.25,
      "d": 50,
      "v": 70
    },
    {
      "midi": 51,
      "hit": false,
      "t": 49156.25,
      "d": 93.75,
      "v": 70
    },
    {
      "midi": 72,
      "hit": false,
      "t": 49162.5,
      "d": 37.5,
      "v": 85
    },
    {
      "midi": 44,
      "hit": false,
      "t": 49600,
      "d": 112.5,
      "v": 105
    },
    {
      "midi": 56,
      "hit": false,
      "t": 49600,
      "d": 153.125,
      "v": 111
    },
    {
      "midi": 75,
      "hit": false,
      "t": 49912.5,
      "d": 59.375,
      "v": 79
    },
    {
      "midi": 77,
      "hit": false,
      "t": 49993.75,
      "d": 171.875,
      "v": 83
    },
    {
      "midi": 75,
      "hit": false,
      "t": 50037.5,
      "d": 203.125,
      "v": 88
    },
    {
      "midi": 72,
      "hit": false,
      "t": 50043.75,
      "d": 168.75,
      "v": 105
    },
    {
      "midi": 60,
      "hit": false,
      "t": 50050,
      "d": 100,
      "v": 90
    },
    {
      "midi": 51,
      "hit": false,
      "t": 50050,
      "d": 125,
      "v": 76
    },
    {
      "midi": 56,
      "hit": false,
      "t": 50050,
      "d": 125,
      "v": 78
    },
    {
      "midi": 74,
      "hit": false,
      "t": 50275,
      "d": 143.75,
      "v": 111
    },
    {
      "midi": 71,
      "hit": false,
      "t": 50281.25,
      "d": 187.5,
      "v": 85
    },
    {
      "midi": 75,
      "hit": false,
      "t": 50484.375,
      "d": 178.125,
      "v": 100
    },
    {
      "midi": 56,
      "hit": false,
      "t": 50484.375,
      "d": 187.5,
      "v": 78
    },
    {
      "midi": 44,
      "hit": false,
      "t": 50490.625,
      "d": 200,
      "v": 75
    },
    {
      "midi": 72,
      "hit": false,
      "t": 50493.75,
      "d": 162.5,
      "v": 103
    },
    {
      "midi": 71,
      "hit": false,
      "t": 50521.875,
      "d": 59.375,
      "v": 13
    },
    {
      "midi": 74,
      "hit": false,
      "t": 50718.75,
      "d": 118.75,
      "v": 110
    },
    {
      "midi": 55,
      "hit": false,
      "t": 50912.5,
      "d": 112.5,
      "v": 89
    },
    {
      "midi": 75,
      "hit": false,
      "t": 50915.625,
      "d": 146.875,
      "v": 97
    },
    {
      "midi": 43,
      "hit": false,
      "t": 50918.75,
      "d": 121.875,
      "v": 73
    },
    {
      "midi": 76,
      "hit": false,
      "t": 51156.25,
      "d": 43.75,
      "v": 97
    },
    {
      "midi": 77,
      "hit": false,
      "t": 51368.75,
      "d": 159.375,
      "v": 86
    },
    {
      "midi": 41,
      "hit": false,
      "t": 51381.25,
      "d": 62.5,
      "v": 77
    },
    {
      "midi": 68,
      "hit": false,
      "t": 51387.5,
      "d": 250,
      "v": 64
    },
    {
      "midi": 72,
      "hit": false,
      "t": 51387.5,
      "d": 284.375,
      "v": 64
    },
    {
      "midi": 53,
      "hit": false,
      "t": 51393.75,
      "d": 115.625,
      "v": 70
    },
    {
      "midi": 79,
      "hit": false,
      "t": 51803.125,
      "d": 171.875,
      "v": 80
    },
    {
      "midi": 65,
      "hit": false,
      "t": 51825,
      "d": 50,
      "v": 63
    },
    {
      "midi": 56,
      "hit": false,
      "t": 51837.5,
      "d": 53.125,
      "v": 54
    },
    {
      "midi": 60,
      "hit": false,
      "t": 51840.625,
      "d": 43.75,
      "v": 67
    },
    {
      "midi": 77,
      "hit": false,
      "t": 52059.375,
      "d": 300,
      "v": 84
    },
    {
      "midi": 72,
      "hit": false,
      "t": 52062.5,
      "d": 381.25,
      "v": 54
    },
    {
      "midi": 68,
      "hit": false,
      "t": 52065.625,
      "d": 403.125,
      "v": 68
    },
    {
      "midi": 41,
      "hit": false,
      "t": 52268.75,
      "d": 128.125,
      "v": 95
    },
    {
      "midi": 53,
      "hit": false,
      "t": 52268.75,
      "d": 150,
      "v": 95
    },
    {
      "midi": 75,
      "hit": false,
      "t": 52503.125,
      "d": 281.25,
      "v": 73
    },
    {
      "midi": 51,
      "hit": false,
      "t": 52684.375,
      "d": 90.625,
      "v": 104
    },
    {
      "midi": 39,
      "hit": false,
      "t": 52700,
      "d": 40.625,
      "v": 82
    },
    {
      "midi": 72,
      "hit": false,
      "t": 52700,
      "d": 150,
      "v": 89
    },
    {
      "midi": 68,
      "hit": false,
      "t": 52912.5,
      "d": 603.125,
      "v": 94
    },
    {
      "midi": 70,
      "hit": false,
      "t": 53121.875,
      "d": 125,
      "v": 108
    },
    {
      "midi": 38,
      "hit": false,
      "t": 53125,
      "d": 34.375,
      "v": 91
    },
    {
      "midi": 50,
      "hit": false,
      "t": 53125,
      "d": 43.75,
      "v": 92
    },
    {
      "midi": 79,
      "hit": false,
      "t": 53550,
      "d": 250,
      "v": 91
    },
    {
      "midi": 58,
      "hit": false,
      "t": 53559.375,
      "d": 59.375,
      "v": 89
    },
    {
      "midi": 62,
      "hit": false,
      "t": 53562.5,
      "d": 34.375,
      "v": 78
    },
    {
      "midi": 56,
      "hit": false,
      "t": 53568.75,
      "d": 50,
      "v": 76
    },
    {
      "midi": 68,
      "hit": false,
      "t": 53600,
      "d": 59.375,
      "v": 2
    },
    {
      "midi": 77,
      "hit": false,
      "t": 53800,
      "d": 296.875,
      "v": 84
    },
    {
      "midi": 74,
      "hit": false,
      "t": 53812.5,
      "d": 328.125,
      "v": 67
    },
    {
      "midi": 68,
      "hit": false,
      "t": 53812.5,
      "d": 450,
      "v": 66
    },
    {
      "midi": 34,
      "hit": false,
      "t": 54000,
      "d": 37.5,
      "v": 97
    },
    {
      "midi": 79,
      "hit": false,
      "t": 54221.875,
      "d": 168.75,
      "v": 79
    },
    {
      "midi": 68,
      "hit": false,
      "t": 54415.625,
      "d": 206.25,
      "v": 84
    },
    {
      "midi": 77,
      "hit": false,
      "t": 54428.125,
      "d": 143.75,
      "v": 89
    },
    {
      "midi": 58,
      "hit": false,
      "t": 54431.25,
      "d": 75,
      "v": 76
    },
    {
      "midi": 56,
      "hit": false,
      "t": 54431.25,
      "d": 118.75,
      "v": 70
    },
    {
      "midi": 62,
      "hit": false,
      "t": 54434.375,
      "d": 50,
      "v": 73
    },
    {
      "midi": 74,
      "hit": false,
      "t": 54434.375,
      "d": 128.125,
      "v": 82
    },
    {
      "midi": 75,
      "hit": false,
      "t": 54843.75,
      "d": 237.5,
      "v": 106
    },
    {
      "midi": 67,
      "hit": false,
      "t": 54850,
      "d": 181.25,
      "v": 106
    },
    {
      "midi": 39,
      "hit": false,
      "t": 54862.5,
      "d": 100,
      "v": 92
    },
    {
      "midi": 51,
      "hit": false,
      "t": 54865.625,
      "d": 90.625,
      "v": 93
    },
    {
      "midi": 75,
      "hit": false,
      "t": 55293.75,
      "d": 293.75,
      "v": 95
    },
    {
      "midi": 65,
      "hit": false,
      "t": 55296.875,
      "d": 171.875,
      "v": 100
    },
    {
      "midi": 68,
      "hit": false,
      "t": 55296.875,
      "d": 190.625,
      "v": 103
    },
    {
      "midi": 53,
      "hit": false,
      "t": 55296.875,
      "d": 193.75,
      "v": 83
    },
    {
      "midi": 73,
      "hit": false,
      "t": 55303.125,
      "d": 293.75,
      "v": 94
    },
    {
      "midi": 77,
      "hit": false,
      "t": 55518.75,
      "d": 93.75,
      "v": 107
    },
    {
      "midi": 72,
      "hit": false,
      "t": 55750,
      "d": 287.5,
      "v": 92
    },
    {
      "midi": 67,
      "hit": false,
      "t": 55750,
      "d": 312.5,
      "v": 92
    },
    {
      "midi": 68,
      "hit": false,
      "t": 55750,
      "d": 331.25,
      "v": 91
    },
    {
      "midi": 63,
      "hit": false,
      "t": 55771.875,
      "d": 106.25,
      "v": 87
    },
    {
      "midi": 51,
      "hit": false,
      "t": 55775,
      "d": 146.875,
      "v": 83
    },
    {
      "midi": 65,
      "hit": false,
      "t": 56012.5,
      "d": 50,
      "v": 87
    },
    {
      "midi": 73,
      "hit": false,
      "t": 56271.875,
      "d": 34.375,
      "v": 96
    },
    {
      "midi": 51,
      "hit": false,
      "t": 56275,
      "d": 156.25,
      "v": 58
    },
    {
      "midi": 63,
      "hit": false,
      "t": 56275,
      "d": 309.375,
      "v": 86
    },
    {
      "midi": 39,
      "hit": false,
      "t": 56278.125,
      "d": 140.625,
      "v": 61
    },
    {
      "midi": 73,
      "hit": false,
      "t": 56362.5,
      "d": 209.375,
      "v": 28
    },
    {
      "midi": 70,
      "hit": false,
      "t": 56531.25,
      "d": 156.25,
      "v": 85
    },
    {
      "midi": 72,
      "hit": false,
      "t": 56775,
      "d": 165.625,
      "v": 79
    },
    {
      "midi": 44,
      "hit": false,
      "t": 56781.25,
      "d": 125,
      "v": 67
    },
    {
      "midi": 63,
      "hit": false,
      "t": 56781.25,
      "d": 146.875,
      "v": 74
    },
    {
      "midi": 56,
      "hit": false,
      "t": 56787.5,
      "d": 140.625,
      "v": 52
    },
    {
      "midi": 68,
      "hit": false,
      "t": 56787.5,
      "d": 153.125,
      "v": 83
    },
    {
      "midi": 51,
      "hit": false,
      "t": 57225,
      "d": 50,
      "v": 72
    },
    {
      "midi": 77,
      "hit": false,
      "t": 57225,
      "d": 187.5,
      "v": 101
    },
    {
      "midi": 60,
      "hit": false,
      "t": 57231.25,
      "d": 56.25,
      "v": 80
    },
    {
      "midi": 56,
      "hit": false,
      "t": 57237.5,
      "d": 50,
      "v": 74
    },
    {
      "midi": 75,
      "hit": false,
      "t": 57237.5,
      "d": 253.125,
      "v": 90
    },
    {
      "midi": 72,
      "hit": false,
      "t": 57243.75,
      "d": 209.375,
      "v": 91
    },
    {
      "midi": 74,
      "hit": false,
      "t": 57459.375,
      "d": 165.625,
      "v": 94
    },
    {
      "midi": 71,
      "hit": false,
      "t": 57462.5,
      "d": 315.625,
      "v": 66
    },
    {
      "midi": 75,
      "hit": false,
      "t": 57684.375,
      "d": 153.125,
      "v": 84
    },
    {
      "midi": 72,
      "hit": false,
      "t": 57703.125,
      "d": 140.625,
      "v": 79
    },
    {
      "midi": 77,
      "hit": false,
      "t": 57918.75,
      "d": 443.75,
      "v": 92
    },
    {
      "midi": 73,
      "hit": false,
      "t": 57928.125,
      "d": 353.125,
      "v": 81
    },
    {
      "midi": 51,
      "hit": false,
      "t": 58137.5,
      "d": 34.375,
      "v": 96
    },
    {
      "midi": 39,
      "hit": false,
      "t": 58150,
      "d": 40.625,
      "v": 76
    },
    {
      "midi": 75,
      "hit": false,
      "t": 58359.375,
      "d": 321.875,
      "v": 72
    },
    {
      "midi": 72,
      "hit": false,
      "t": 58368.75,
      "d": 96.875,
      "v": 69
    },
    {
      "midi": 43,
      "hit": false,
      "t": 58568.75,
      "d": 50,
      "v": 74
    },
    {
      "midi": 55,
      "hit": false,
      "t": 58568.75,
      "d": 112.5,
      "v": 79
    },
    {
      "midi": 73,
      "hit": false,
      "t": 58575,
      "d": 118.75,
      "v": 79
    },
    {
      "midi": 70,
      "hit": false,
      "t": 58581.25,
      "d": 268.75,
      "v": 76
    },
    {
      "midi": 61,
      "hit": false,
      "t": 59006.25,
      "d": 40.625,
      "v": 83
    },
    {
      "midi": 79,
      "hit": false,
      "t": 59018.75,
      "d": 134.375,
      "v": 86
    },
    {
      "midi": 58,
      "hit": false,
      "t": 59021.875,
      "d": 37.5,
      "v": 79
    },
    {
      "midi": 51,
      "hit": false,
      "t": 59021.875,
      "d": 56.25,
      "v": 63
    },
    {
      "midi": 73,
      "hit": false,
      "t": 59025,
      "d": 109.375,
      "v": 75
    },
    {
      "midi": 79,
      "hit": false,
      "t": 59253.125,
      "d": 371.875,
      "v": 78
    },
    {
      "midi": 73,
      "hit": false,
      "t": 59265.625,
      "d": 350,
      "v": 80
    },
    {
      "midi": 39,
      "hit": false,
      "t": 59465.625,
      "d": 50,
      "v": 83
    },
    {
      "midi": 51,
      "hit": false,
      "t": 59468.75,
      "d": 103.125,
      "v": 79
    },
    {
      "midi": 78,
      "hit": false,
      "t": 59721.875,
      "d": 131.25,
      "v": 67
    },
    {
      "midi": 61,
      "hit": false,
      "t": 59915.625,
      "d": 43.75,
      "v": 78
    },
    {
      "midi": 73,
      "hit": false,
      "t": 59921.875,
      "d": 46.875,
      "v": 79
    },
    {
      "midi": 58,
      "hit": false,
      "t": 59921.875,
      "d": 50,
      "v": 81
    },
    {
      "midi": 77,
      "hit": false,
      "t": 59921.875,
      "d": 53.125,
      "v": 83
    },
    {
      "midi": 51,
      "hit": false,
      "t": 59931.25,
      "d": 50,
      "v": 55
    },
    {
      "midi": 46,
      "hit": false,
      "t": 60356.25,
      "d": 103.125,
      "v": 103
    },
    {
      "midi": 77,
      "hit": false,
      "t": 60771.875,
      "d": 96.875,
      "v": 100
    },
    {
      "midi": 63,
      "hit": false,
      "t": 60790.625,
      "d": 37.5,
      "v": 82
    },
    {
      "midi": 73,
      "hit": false,
      "t": 60796.875,
      "d": 137.5,
      "v": 89
    },
    {
      "midi": 55,
      "hit": false,
      "t": 60800,
      "d": 50,
      "v": 70
    },
    {
      "midi": 75,
      "hit": false,
      "t": 60800,
      "d": 93.75,
      "v": 90
    },
    {
      "midi": 61,
      "hit": false,
      "t": 60806.25,
      "d": 34.375,
      "v": 77
    },
    {
      "midi": 58,
      "hit": false,
      "t": 60806.25,
      "d": 50,
      "v": 72
    },
    {
      "midi": 84,
      "hit": false,
      "t": 61037.5,
      "d": 368.75,
      "v": 84
    },
    {
      "midi": 79,
      "hit": false,
      "t": 61043.75,
      "d": 406.25,
      "v": 94
    },
    {
      "midi": 73,
      "hit": false,
      "t": 61053.125,
      "d": 437.5,
      "v": 78
    },
    {
      "midi": 39,
      "hit": false,
      "t": 61240.625,
      "d": 68.75,
      "v": 79
    },
    {
      "midi": 51,
      "hit": false,
      "t": 61243.75,
      "d": 100,
      "v": 73
    },
    {
      "midi": 83,
      "hit": false,
      "t": 61475,
      "d": 134.375,
      "v": 68
    },
    {
      "midi": 63,
      "hit": false,
      "t": 61675,
      "d": 43.75,
      "v": 75
    },
    {
      "midi": 73,
      "hit": false,
      "t": 61687.5,
      "d": 46.875,
      "v": 59
    },
    {
      "midi": 82,
      "hit": false,
      "t": 61687.5,
      "d": 46.875,
      "v": 73
    },
    {
      "midi": 61,
      "hit": false,
      "t": 61690.625,
      "d": 37.5,
      "v": 71
    },
    {
      "midi": 58,
      "hit": false,
      "t": 61690.625,
      "d": 43.75,
      "v": 74
    },
    {
      "midi": 79,
      "hit": false,
      "t": 61706.25,
      "d": 50,
      "v": 64
    },
    {
      "midi": 55,
      "hit": false,
      "t": 61725,
      "d": 53.125,
      "v": 47
    },
    {
      "midi": 44,
      "hit": false,
      "t": 62118.75,
      "d": 115.625,
      "v": 86
    },
    {
      "midi": 56,
      "hit": false,
      "t": 62118.75,
      "d": 153.125,
      "v": 90
    },
    {
      "midi": 77,
      "hit": false,
      "t": 62512.5,
      "d": 243.75,
      "v": 103
    },
    {
      "midi": 56,
      "hit": false,
      "t": 62546.875,
      "d": 87.5,
      "v": 84
    },
    {
      "midi": 60,
      "hit": false,
      "t": 62550,
      "d": 37.5,
      "v": 84
    },
    {
      "midi": 72,
      "hit": false,
      "t": 62550,
      "d": 125,
      "v": 92
    },
    {
      "midi": 51,
      "hit": false,
      "t": 62556.25,
      "d": 100,
      "v": 77
    },
    {
      "midi": 75,
      "hit": false,
      "t": 62556.25,
      "d": 540.625,
      "v": 97
    },
    {
      "midi": 82,
      "hit": false,
      "t": 62787.5,
      "d": 278.125,
      "v": 115
    },
    {
      "midi": 72,
      "hit": false,
      "t": 62800,
      "d": 331.25,
      "v": 100
    },
    {
      "midi": 51,
      "hit": false,
      "t": 62975,
      "d": 100,
      "v": 96
    },
    {
      "midi": 39,
      "hit": false,
      "t": 62981.25,
      "d": 62.5,
      "v": 85
    },
    {
      "midi": 81,
      "hit": false,
      "t": 63196.875,
      "d": 121.875,
      "v": 111
    },
    {
      "midi": 60,
      "hit": false,
      "t": 63393.75,
      "d": 40.625,
      "v": 91
    },
    {
      "midi": 56,
      "hit": false,
      "t": 63396.875,
      "d": 53.125,
      "v": 79
    },
    {
      "midi": 51,
      "hit": false,
      "t": 63396.875,
      "d": 84.375,
      "v": 78
    },
    {
      "midi": 80,
      "hit": false,
      "t": 63396.875,
      "d": 96.875,
      "v": 103
    },
    {
      "midi": 81,
      "hit": false,
      "t": 63403.125,
      "d": 40.625,
      "v": 53
    },
    {
      "midi": 72,
      "hit": false,
      "t": 63403.125,
      "d": 96.875,
      "v": 96
    },
    {
      "midi": 79,
      "hit": false,
      "t": 63615.625,
      "d": 75,
      "v": 117
    },
    {
      "midi": 77,
      "hit": false,
      "t": 63825,
      "d": 250,
      "v": 108
    },
    {
      "midi": 73,
      "hit": false,
      "t": 63828.125,
      "d": 281.25,
      "v": 97
    },
    {
      "midi": 65,
      "hit": false,
      "t": 63831.25,
      "d": 234.375,
      "v": 94
    },
    {
      "midi": 37,
      "hit": false,
      "t": 63837.5,
      "d": 112.5,
      "v": 86
    },
    {
      "midi": 49,
      "hit": false,
      "t": 63837.5,
      "d": 121.875,
      "v": 78
    },
    {
      "midi": 61,
      "hit": false,
      "t": 64262.5,
      "d": 50,
      "v": 80
    },
    {
      "midi": 77,
      "hit": false,
      "t": 64271.875,
      "d": 21.875,
      "v": 121
    },
    {
      "midi": 58,
      "hit": false,
      "t": 64278.125,
      "d": 46.875,
      "v": 65
    },
    {
      "midi": 65,
      "hit": false,
      "t": 64281.25,
      "d": 37.5,
      "v": 104
    },
    {
      "midi": 65,
      "hit": false,
      "t": 64484.375,
      "d": 287.5,
      "v": 95
    },
    {
      "midi": 70,
      "hit": false,
      "t": 64484.375,
      "d": 325,
      "v": 109
    },
    {
      "midi": 73,
      "hit": false,
      "t": 64484.375,
      "d": 328.125,
      "v": 99
    },
    {
      "midi": 58,
      "hit": false,
      "t": 64703.125,
      "d": 178.125,
      "v": 119
    },
    {
      "midi": 46,
      "hit": false,
      "t": 64709.375,
      "d": 193.75,
      "v": 108
    },
    {
      "midi": 79,
      "hit": false,
      "t": 64912.5,
      "d": 315.625,
      "v": 117
    },
    {
      "midi": 67,
      "hit": false,
      "t": 64912.5,
      "d": 331.25,
      "v": 113
    },
    {
      "midi": 59,
      "hit": false,
      "t": 65109.375,
      "d": 168.75,
      "v": 103
    },
    {
      "midi": 47,
      "hit": false,
      "t": 65115.625,
      "d": 112.5,
      "v": 85
    },
    {
      "midi": 77,
      "hit": false,
      "t": 65334.375,
      "d": 50,
      "v": 113
    },
    {
      "midi": 65,
      "hit": false,
      "t": 65334.375,
      "d": 96.875,
      "v": 109
    },
    {
      "midi": 63,
      "hit": false,
      "t": 65531.25,
      "d": 143.75,
      "v": 102
    },
    {
      "midi": 60,
      "hit": false,
      "t": 65531.25,
      "d": 162.5,
      "v": 96
    },
    {
      "midi": 75,
      "hit": false,
      "t": 65531.25,
      "d": 193.75,
      "v": 106
    },
    {
      "midi": 48,
      "hit": false,
      "t": 65537.5,
      "d": 106.25,
      "v": 84
    },
    {
      "midi": 68,
      "hit": false,
      "t": 65550,
      "d": 125,
      "v": 92
    },
    {
      "midi": 72,
      "hit": false,
      "t": 65956.25,
      "d": 318.75,
      "v": 96
    },
    {
      "midi": 63,
      "hit": false,
      "t": 65959.375,
      "d": 140.625,
      "v": 100
    },
    {
      "midi": 68,
      "hit": false,
      "t": 65959.375,
      "d": 293.75,
      "v": 86
    },
    {
      "midi": 51,
      "hit": false,
      "t": 65968.75,
      "d": 128.125,
      "v": 86
    },
    {
      "midi": 79,
      "hit": false,
      "t": 66171.875,
      "d": 187.5,
      "v": 103
    },
    {
      "midi": 65,
      "hit": false,
      "t": 66381.25,
      "d": 250,
      "v": 73
    },
    {
      "midi": 53,
      "hit": false,
      "t": 66387.5,
      "d": 268.75,
      "v": 56
    },
    {
      "midi": 72,
      "hit": false,
      "t": 66387.5,
      "d": 440.625,
      "v": 68
    },
    {
      "midi": 68,
      "hit": false,
      "t": 66393.75,
      "d": 456.25,
      "v": 84
    },
    {
      "midi": 77,
      "hit": false,
      "t": 66400,
      "d": 428.125,
      "v": 94
    },
    {
      "midi": 64,
      "hit": false,
      "t": 66831.25,
      "d": 106.25,
      "v": 72
    },
    {
      "midi": 52,
      "hit": false,
      "t": 66837.5,
      "d": 56.25,
      "v": 56
    },
    {
      "midi": 80,
      "hit": false,
      "t": 67050,
      "d": 525,
      "v": 78
    },
    {
      "midi": 68,
      "hit": false,
      "t": 67065.625,
      "d": 903.125,
      "v": 50
    },
    {
      "midi": 72,
      "hit": false,
      "t": 67068.75,
      "d": 506.25,
      "v": 51
    },
    {
      "midi": 51,
      "hit": false,
      "t": 67265.625,
      "d": 121.875,
      "v": 76
    },
    {
      "midi": 63,
      "hit": false,
      "t": 67268.75,
      "d": 137.5,
      "v": 69
    },
    {
      "midi": 77,
      "hit": false,
      "t": 67500,
      "d": 328.125,
      "v": 75
    },
    {
      "midi": 63,
      "hit": false,
      "t": 67668.75,
      "d": 43.75,
      "v": 72
    },
    {
      "midi": 56,
      "hit": false,
      "t": 67693.75,
      "d": 43.75,
      "v": 55
    },
    {
      "midi": 60,
      "hit": false,
      "t": 67693.75,
      "d": 46.875,
      "v": 54
    },
    {
      "midi": 75,
      "hit": false,
      "t": 67718.75,
      "d": 231.25,
      "v": 59
    },
    {
      "midi": 72,
      "hit": false,
      "t": 67893.75,
      "d": 37.5,
      "v": 79
    },
    {
      "midi": 52,
      "hit": false,
      "t": 68106.25,
      "d": 150,
      "v": 54
    },
    {
      "midi": 62,
      "hit": false,
      "t": 68115.625,
      "d": 53.125,
      "v": 55
    },
    {
      "midi": 68,
      "hit": false,
      "t": 68115.625,
      "d": 181.25,
      "v": 56
    },
    {
      "midi": 40,
      "hit": false,
      "t": 68125,
      "d": 81.25,
      "v": 35
    },
    {
      "midi": 61,
      "hit": false,
      "t": 68318.75,
      "d": 368.75,
      "v": 70
    },
    {
      "midi": 70,
      "hit": false,
      "t": 68331.25,
      "d": 465.625,
      "v": 61
    },
    {
      "midi": 67,
      "hit": false,
      "t": 68365.625,
      "d": 290.625,
      "v": 43
    },
    {
      "midi": 39,
      "hit": false,
      "t": 68543.75,
      "d": 53.125,
      "v": 72
    },
    {
      "midi": 51,
      "hit": false,
      "t": 68550,
      "d": 106.25,
      "v": 66
    },
    {
      "midi": 60,
      "hit": false,
      "t": 68768.75,
      "d": 1293.75,
      "v": 59
    },
    {
      "midi": 68,
      "hit": false,
      "t": 68771.875,
      "d": 1325,
      "v": 69
    },
    {
      "midi": 56,
      "hit": false,
      "t": 68993.75,
      "d": 46.875,
      "v": 61
    },
    {
      "midi": 44,
      "hit": false,
      "t": 68993.75,
      "d": 87.5,
      "v": 67
    },
    {
      "midi": 51,
      "hit": false,
      "t": 69446.875,
      "d": 437.5,
      "v": 64
    },
    {
      "midi": 56,
      "hit": false,
      "t": 69918.75,
      "d": 137.5,
      "v": 23
    },
    {
      "midi": 44,
      "hit": false,
      "t": 69921.875,
      "d": 121.875,
      "v": 52
    },
    {
      "midi": 75,
      "hit": false,
      "t": 70356.25,
      "d": 175,
      "v": 56
    },
    {
      "midi": 63,
      "hit": false,
      "t": 70368.75,
      "d": 143.75,
      "v": 50
    },
    {
      "midi": 57,
      "hit": false,
      "t": 70381.25,
      "d": 140.625,
      "v": 46
    },
    {
      "midi": 45,
      "hit": false,
      "t": 70384.375,
      "d": 121.875,
      "v": 48
    },
    {
      "midi": 79,
      "hit": false,
      "t": 70825,
      "d": 437.5,
      "v": 74
    },
    {
      "midi": 73,
      "hit": false,
      "t": 70834.375,
      "d": 553.125,
      "v": 62
    },
    {
      "midi": 67,
      "hit": false,
      "t": 70850,
      "d": 500,
      "v": 39
    },
    {
      "midi": 46,
      "hit": false,
      "t": 70859.375,
      "d": 62.5,
      "v": 76
    },
    {
      "midi": 58,
      "hit": false,
      "t": 70865.625,
      "d": 125,
      "v": 64
    },
    {
      "midi": 61,
      "hit": false,
      "t": 71290.625,
      "d": 50,
      "v": 54
    },
    {
      "midi": 77,
      "hit": false,
      "t": 71300,
      "d": 137.5,
      "v": 64
    },
    {
      "midi": 51,
      "hit": false,
      "t": 71309.375,
      "d": 53.125,
      "v": 56
    },
    {
      "midi": 58,
      "hit": false,
      "t": 71315.625,
      "d": 59.375,
      "v": 54
    },
    {
      "midi": 75,
      "hit": false,
      "t": 71506.25,
      "d": 81.25,
      "v": 72
    },
    {
      "midi": 39,
      "hit": false,
      "t": 71712.5,
      "d": 37.5,
      "v": 67
    },
    {
      "midi": 51,
      "hit": false,
      "t": 71718.75,
      "d": 59.375,
      "v": 67
    },
    {
      "midi": 67,
      "hit": false,
      "t": 71731.25,
      "d": 306.25,
      "v": 71
    },
    {
      "midi": 72,
      "hit": false,
      "t": 71946.875,
      "d": 368.75,
      "v": 69
    },
    {
      "midi": 63,
      "hit": false,
      "t": 72140.625,
      "d": 43.75,
      "v": 84
    },
    {
      "midi": 51,
      "hit": false,
      "t": 72159.375,
      "d": 50,
      "v": 62
    },
    {
      "midi": 61,
      "hit": false,
      "t": 72337.5,
      "d": 50,
      "v": 83
    },
    {
      "midi": 70,
      "hit": false,
      "t": 72350,
      "d": 115.625,
      "v": 93
    },
    {
      "midi": 49,
      "hit": false,
      "t": 72365.625,
      "d": 65.625,
      "v": 37
    },
    {
      "midi": 63,
      "hit": false,
      "t": 72546.875,
      "d": 406.25,
      "v": 80
    },
    {
      "midi": 68,
      "hit": false,
      "t": 72556.25,
      "d": 353.125,
      "v": 86
    },
    {
      "midi": 48,
      "hit": false,
      "t": 72559.375,
      "d": 84.375,
      "v": 70
    },
    {
      "midi": 60,
      "hit": false,
      "t": 72562.5,
      "d": 171.875,
      "v": 63
    },
    {
      "midi": 72,
      "hit": false,
      "t": 72784.375,
      "d": 190.625,
      "v": 76
    },
    {
      "midi": 75,
      "hit": false,
      "t": 72978.125,
      "d": 43.75,
      "v": 69
    },
    {
      "midi": 56,
      "hit": false,
      "t": 72990.625,
      "d": 56.25,
      "v": 47
    },
    {
      "midi": 60,
      "hit": false,
      "t": 72990.625,
      "d": 62.5,
      "v": 47
    },
    {
      "midi": 51,
      "hit": false,
      "t": 73000,
      "d": 62.5,
      "v": 54
    },
    {
      "midi": 72,
      "hit": false,
      "t": 73231.25,
      "d": 446.875,
      "v": 74
    },
    {
      "midi": 79,
      "hit": false,
      "t": 73234.375,
      "d": 296.875,
      "v": 79
    },
    {
      "midi": 68,
      "hit": false,
      "t": 73237.5,
      "d": 346.875,
      "v": 62
    },
    {
      "midi": 44,
      "hit": false,
      "t": 73440.625,
      "d": 150,
      "v": 69
    },
    {
      "midi": 56,
      "hit": false,
      "t": 73440.625,
      "d": 162.5,
      "v": 71
    },
    {
      "midi": 77,
      "hit": false,
      "t": 73646.875,
      "d": 296.875,
      "v": 85
    },
    {
      "midi": 66,
      "hit": false,
      "t": 73846.875,
      "d": 156.25,
      "v": 76
    },
    {
      "midi": 75,
      "hit": false,
      "t": 73850,
      "d": 296.875,
      "v": 83
    },
    {
      "midi": 57,
      "hit": false,
      "t": 73853.125,
      "d": 143.75,
      "v": 92
    },
    {
      "midi": 45,
      "hit": false,
      "t": 73856.25,
      "d": 103.125,
      "v": 81
    },
    {
      "midi": 72,
      "hit": false,
      "t": 74056.25,
      "d": 100,
      "v": 96
    },
    {
      "midi": 73,
      "hit": false,
      "t": 74250,
      "d": 581.25,
      "v": 107
    },
    {
      "midi": 58,
      "hit": false,
      "t": 74253.125,
      "d": 115.625,
      "v": 111
    },
    {
      "midi": 46,
      "hit": false,
      "t": 74256.25,
      "d": 43.75,
      "v": 97
    },
    {
      "midi": 79,
      "hit": false,
      "t": 74490.625,
      "d": 290.625,
      "v": 115
    },
    {
      "midi": 67,
      "hit": false,
      "t": 74490.625,
      "d": 312.5,
      "v": 106
    },
    {
      "midi": 51,
      "hit": false,
      "t": 74500,
      "d": 300,
      "v": 89
    },
    {
      "midi": 63,
      "hit": false,
      "t": 74506.25,
      "d": 275,
      "v": 102
    },
    {
      "midi": 77,
      "hit": false,
      "t": 74881.25,
      "d": 250,
      "v": 121
    },
    {
      "midi": 65,
      "hit": false,
      "t": 74887.5,
      "d": 290.625,
      "v": 113
    },
    {
      "midi": 61,
      "hit": false,
      "t": 74887.5,
      "d": 303.125,
      "v": 96
    },
    {
      "midi": 49,
      "hit": false,
      "t": 74900,
      "d": 287.5,
      "v": 77
    },
    {
      "midi": 75,
      "hit": false,
      "t": 75284.375,
      "d": 393.75,
      "v": 97
    },
    {
      "midi": 63,
      "hit": false,
      "t": 75290.625,
      "d": 334.375,
      "v": 92
    },
    {
      "midi": 60,
      "hit": false,
      "t": 75312.5,
      "d": 221.875,
      "v": 66
    },
    {
      "midi": 48,
      "hit": false,
      "t": 75315.625,
      "d": 203.125,
      "v": 58
    },
    {
      "midi": 46,
      "hit": false,
      "t": 75700,
      "d": 96.875,
      "v": 97
    },
    {
      "midi": 58,
      "hit": false,
      "t": 75703.125,
      "d": 68.75,
      "v": 92
    },
    {
      "midi": 61,
      "hit": false,
      "t": 75712.5,
      "d": 125,
      "v": 72
    },
    {
      "midi": 73,
      "hit": false,
      "t": 75725,
      "d": 71.875,
      "v": 72
    },
    {
      "midi": 60,
      "hit": false,
      "t": 75912.5,
      "d": 50,
      "v": 84
    },
    {
      "midi": 72,
      "hit": false,
      "t": 75912.5,
      "d": 115.625,
      "v": 92
    },
    {
      "midi": 56,
      "hit": false,
      "t": 75940.625,
      "d": 103.125,
      "v": 81
    },
    {
      "midi": 44,
      "hit": false,
      "t": 75943.75,
      "d": 46.875,
      "v": 75
    },
    {
      "midi": 75,
      "hit": false,
      "t": 76125,
      "d": 40.625,
      "v": 90
    },
    {
      "midi": 79,
      "hit": false,
      "t": 76337.5,
      "d": 37.5,
      "v": 101
    },
    {
      "midi": 56,
      "hit": false,
      "t": 76337.5,
      "d": 56.25,
      "v": 54
    },
    {
      "midi": 60,
      "hit": false,
      "t": 76340.625,
      "d": 53.125,
      "v": 58
    },
    {
      "midi": 51,
      "hit": false,
      "t": 76343.75,
      "d": 90.625,
      "v": 57
    },
    {
      "midi": 77,
      "hit": false,
      "t": 76565.625,
      "d": 340.625,
      "v": 83
    },
    {
      "midi": 68,
      "hit": false,
      "t": 76575,
      "d": 375,
      "v": 53
    },
    {
      "midi": 72,
      "hit": false,
      "t": 76581.25,
      "d": 350,
      "v": 41
    },
    {
      "midi": 44,
      "hit": false,
      "t": 76762.5,
      "d": 212.5,
      "v": 61
    },
    {
      "midi": 56,
      "hit": false,
      "t": 76781.25,
      "d": 168.75,
      "v": 37
    },
    {
      "midi": 75,
      "hit": false,
      "t": 77206.25,
      "d": 181.25,
      "v": 55
    },
    {
      "midi": 63,
      "hit": false,
      "t": 77218.75,
      "d": 131.25,
      "v": 46
    },
    {
      "midi": 57,
      "hit": false,
      "t": 77218.75,
      "d": 162.5,
      "v": 51
    },
    {
      "midi": 45,
      "hit": false,
      "t": 77225,
      "d": 125,
      "v": 46
    },
    {
      "midi": 79,
      "hit": false,
      "t": 77662.5,
      "d": 337.5,
      "v": 72
    },
    {
      "midi": 73,
      "hit": false,
      "t": 77668.75,
      "d": 518.75,
      "v": 59
    },
    {
      "midi": 67,
      "hit": false,
      "t": 77678.125,
      "d": 493.75,
      "v": 59
    },
    {
      "midi": 46,
      "hit": false,
      "t": 77684.375,
      "d": 106.25,
      "v": 82
    },
    {
      "midi": 58,
      "hit": false,
      "t": 77696.875,
      "d": 115.625,
      "v": 59
    },
    {
      "midi": 77,
      "hit": false,
      "t": 78103.125,
      "d": 121.875,
      "v": 76
    },
    {
      "midi": 61,
      "hit": false,
      "t": 78106.25,
      "d": 40.625,
      "v": 61
    },
    {
      "midi": 51,
      "hit": false,
      "t": 78131.25,
      "d": 50,
      "v": 54
    },
    {
      "midi": 58,
      "hit": false,
      "t": 78131.25,
      "d": 56.25,
      "v": 49
    },
    {
      "midi": 75,
      "hit": false,
      "t": 78318.75,
      "d": 90.625,
      "v": 65
    },
    {
      "midi": 51,
      "hit": false,
      "t": 78512.5,
      "d": 84.375,
      "v": 73
    },
    {
      "midi": 39,
      "hit": false,
      "t": 78518.75,
      "d": 40.625,
      "v": 62
    },
    {
      "midi": 67,
      "hit": false,
      "t": 78543.75,
      "d": 259.375,
      "v": 76
    },
    {
      "midi": 72,
      "hit": false,
      "t": 78734.375,
      "d": 296.875,
      "v": 82
    },
    {
      "midi": 63,
      "hit": false,
      "t": 78915.625,
      "d": 46.875,
      "v": 95
    },
    {
      "midi": 51,
      "hit": false,
      "t": 78925,
      "d": 59.375,
      "v": 79
    },
    {
      "midi": 61,
      "hit": false,
      "t": 79106.25,
      "d": 109.375,
      "v": 99
    },
    {
      "midi": 70,
      "hit": false,
      "t": 79109.375,
      "d": 106.25,
      "v": 107
    },
    {
      "midi": 49,
      "hit": false,
      "t": 79112.5,
      "d": 46.875,
      "v": 80
    },
    {
      "midi": 63,
      "hit": false,
      "t": 79303.125,
      "d": 415.625,
      "v": 95
    },
    {
      "midi": 68,
      "hit": false,
      "t": 79306.25,
      "d": 365.625,
      "v": 100
    },
    {
      "midi": 60,
      "hit": false,
      "t": 79321.875,
      "d": 278.125,
      "v": 98
    },
    {
      "midi": 48,
      "hit": false,
      "t": 79325,
      "d": 140.625,
      "v": 89
    },
    {
      "midi": 72,
      "hit": false,
      "t": 79518.75,
      "d": 231.25,
      "v": 85
    },
    {
      "midi": 75,
      "hit": false,
      "t": 79718.75,
      "d": 43.75,
      "v": 84
    },
    {
      "midi": 56,
      "hit": false,
      "t": 79746.875,
      "d": 59.375,
      "v": 79
    },
    {
      "midi": 60,
      "hit": false,
      "t": 79746.875,
      "d": 125,
      "v": 73
    },
    {
      "midi": 72,
      "hit": false,
      "t": 79950,
      "d": 359.375,
      "v": 100
    },
    {
      "midi": 79,
      "hit": false,
      "t": 79953.125,
      "d": 303.125,
      "v": 107
    },
    {
      "midi": 68,
      "hit": false,
      "t": 79956.25,
      "d": 350,
      "v": 96
    },
    {
      "midi": 60,
      "hit": false,
      "t": 80156.25,
      "d": 40.625,
      "v": 105
    },
    {
      "midi": 56,
      "hit": false,
      "t": 80156.25,
      "d": 62.5,
      "v": 97
    },
    {
      "midi": 51,
      "hit": false,
      "t": 80165.625,
      "d": 46.875,
      "v": 86
    },
    {
      "midi": 77,
      "hit": false,
      "t": 80350,
      "d": 250,
      "v": 100
    },
    {
      "midi": 56,
      "hit": false,
      "t": 80562.5,
      "d": 87.5,
      "v": 77
    },
    {
      "midi": 68,
      "hit": false,
      "t": 80562.5,
      "d": 131.25,
      "v": 87
    },
    {
      "midi": 72,
      "hit": false,
      "t": 80562.5,
      "d": 131.25,
      "v": 79
    },
    {
      "midi": 44,
      "hit": false,
      "t": 80568.75,
      "d": 140.625,
      "v": 73
    },
    {
      "midi": 75,
      "hit": false,
      "t": 80575,
      "d": 134.375,
      "v": 81
    },
    {
      "midi": 77,
      "hit": false,
      "t": 80765.625,
      "d": 53.125,
      "v": 83
    },
    {
      "midi": 43,
      "hit": false,
      "t": 80981.25,
      "d": 93.75,
      "v": 85
    },
    {
      "midi": 55,
      "hit": false,
      "t": 80987.5,
      "d": 125,
      "v": 93
    },
    {
      "midi": 79,
      "hit": false,
      "t": 80987.5,
      "d": 278.125,
      "v": 119
    },
    {
      "midi": 67,
      "hit": false,
      "t": 80987.5,
      "d": 325,
      "v": 116
    },
    {
      "midi": 75,
      "hit": false,
      "t": 81203.125,
      "d": 271.875,
      "v": 100
    },
    {
      "midi": 63,
      "hit": false,
      "t": 81387.5,
      "d": 43.75,
      "v": 85
    },
    {
      "midi": 72,
      "hit": false,
      "t": 81400,
      "d": 87.5,
      "v": 104
    },
    {
      "midi": 55,
      "hit": false,
      "t": 81409.375,
      "d": 40.625,
      "v": 80
    },
    {
      "midi": 60,
      "hit": false,
      "t": 81412.5,
      "d": 40.625,
      "v": 59
    },
    {
      "midi": 68,
      "hit": false,
      "t": 81612.5,
      "d": 75,
      "v": 118
    },
    {
      "midi": 80,
      "hit": false,
      "t": 81612.5,
      "d": 75,
      "v": 118
    },
    {
      "midi": 50,
      "hit": false,
      "t": 81831.25,
      "d": 56.25,
      "v": 84
    },
    {
      "midi": 79,
      "hit": false,
      "t": 81843.75,
      "d": 93.75,
      "v": 121
    },
    {
      "midi": 67,
      "hit": false,
      "t": 81850,
      "d": 37.5,
      "v": 108
    },
    {
      "midi": 83,
      "hit": false,
      "t": 82062.5,
      "d": 21.875,
      "v": 103
    },
    {
      "midi": 71,
      "hit": false,
      "t": 82075,
      "d": 37.5,
      "v": 66
    },
    {
      "midi": 65,
      "hit": false,
      "t": 82246.875,
      "d": 43.75,
      "v": 69
    },
    {
      "midi": 62,
      "hit": false,
      "t": 82250,
      "d": 40.625,
      "v": 75
    },
    {
      "midi": 59,
      "hit": false,
      "t": 82250,
      "d": 43.75,
      "v": 64
    },
    {
      "midi": 55,
      "hit": false,
      "t": 82256.25,
      "d": 71.875,
      "v": 82
    },
    {
      "midi": 86,
      "hit": false,
      "t": 82262.5,
      "d": 28.125,
      "v": 115
    },
    {
      "midi": 74,
      "hit": false,
      "t": 82268.75,
      "d": 28.125,
      "v": 98
    },
    {
      "midi": 91,
      "hit": false,
      "t": 82490.625,
      "d": 440.625,
      "v": 123
    },
    {
      "midi": 79,
      "hit": false,
      "t": 82493.75,
      "d": 56.25,
      "v": 119
    },
    {
      "midi": 79,
      "hit": false,
      "t": 82600,
      "d": 371.875,
      "v": 44
    },
    {
      "midi": 48,
      "hit": false,
      "t": 82668.75,
      "d": 87.5,
      "v": 105
    },
    {
      "midi": 60,
      "hit": false,
      "t": 82671.875,
      "d": 137.5,
      "v": 105
    },
    {
      "midi": 87,
      "hit": false,
      "t": 82881.25,
      "d": 134.375,
      "v": 102
    },
    {
      "midi": 63,
      "hit": false,
      "t": 83068.75,
      "d": 50,
      "v": 86
    },
    {
      "midi": 55,
      "hit": false,
      "t": 83084.375,
      "d": 100,
      "v": 80
    },
    {
      "midi": 84,
      "hit": false,
      "t": 83090.625,
      "d": 103.125,
      "v": 108
    },
    {
      "midi": 60,
      "hit": false,
      "t": 83093.75,
      "d": 37.5,
      "v": 68
    },
    {
      "midi": 79,
      "hit": false,
      "t": 83303.125,
      "d": 96.875,
      "v": 117
    },
    {
      "midi": 60,
      "hit": false,
      "t": 83503.125,
      "d": 175,
      "v": 106
    },
    {
      "midi": 48,
      "hit": false,
      "t": 83506.25,
      "d": 187.5,
      "v": 87
    },
    {
      "midi": 75,
      "hit": false,
      "t": 83718.75,
      "d": 118.75,
      "v": 111
    },
    {
      "midi": 79,
      "hit": false,
      "t": 83925,
      "d": 331.25,
      "v": 112
    },
    {
      "midi": 74,
      "hit": false,
      "t": 83925,
      "d": 350,
      "v": 108
    },
    {
      "midi": 47,
      "hit": false,
      "t": 83928.125,
      "d": 234.375,
      "v": 86
    },
    {
      "midi": 59,
      "hit": false,
      "t": 83928.125,
      "d": 296.875,
      "v": 95
    },
    {
      "midi": 67,
      "hit": false,
      "t": 83928.125,
      "d": 321.875,
      "v": 106
    },
    {
      "midi": 79,
      "hit": false,
      "t": 84406.25,
      "d": 353.125,
      "v": 105
    },
    {
      "midi": 73,
      "hit": false,
      "t": 84412.5,
      "d": 521.875,
      "v": 85
    },
    {
      "midi": 67,
      "hit": false,
      "t": 84415.625,
      "d": 478.125,
      "v": 76
    },
    {
      "midi": 46,
      "hit": false,
      "t": 84437.5,
      "d": 143.75,
      "v": 93
    },
    {
      "midi": 58,
      "hit": false,
      "t": 84437.5,
      "d": 200,
      "v": 90
    },
    {
      "midi": 77,
      "hit": false,
      "t": 84850,
      "d": 137.5,
      "v": 88
    },
    {
      "midi": 61,
      "hit": false,
      "t": 84856.25,
      "d": 40.625,
      "v": 63
    },
    {
      "midi": 58,
      "hit": false,
      "t": 84859.375,
      "d": 43.75,
      "v": 73
    },
    {
      "midi": 51,
      "hit": false,
      "t": 84875,
      "d": 50,
      "v": 58
    },
    {
      "midi": 75,
      "hit": false,
      "t": 85056.25,
      "d": 56.25,
      "v": 84
    },
    {
      "midi": 51,
      "hit": false,
      "t": 85250,
      "d": 50,
      "v": 69
    },
    {
      "midi": 39,
      "hit": false,
      "t": 85259.375,
      "d": 40.625,
      "v": 65
    },
    {
      "midi": 67,
      "hit": false,
      "t": 85271.875,
      "d": 140.625,
      "v": 87
    },
    {
      "midi": 72,
      "hit": false,
      "t": 85481.25,
      "d": 306.25,
      "v": 80
    },
    {
      "midi": 63,
      "hit": false,
      "t": 85665.625,
      "d": 40.625,
      "v": 96
    },
    {
      "midi": 51,
      "hit": false,
      "t": 85668.75,
      "d": 50,
      "v": 88
    },
    {
      "midi": 61,
      "hit": false,
      "t": 85862.5,
      "d": 71.875,
      "v": 83
    },
    {
      "midi": 70,
      "hit": false,
      "t": 85865.625,
      "d": 121.875,
      "v": 101
    },
    {
      "midi": 49,
      "hit": false,
      "t": 85868.75,
      "d": 53.125,
      "v": 66
    },
    {
      "midi": 63,
      "hit": false,
      "t": 86059.375,
      "d": 437.5,
      "v": 83
    },
    {
      "midi": 68,
      "hit": false,
      "t": 86075,
      "d": 350,
      "v": 84
    },
    {
      "midi": 60,
      "hit": false,
      "t": 86087.5,
      "d": 265.625,
      "v": 73
    },
    {
      "midi": 48,
      "hit": false,
      "t": 86093.75,
      "d": 134.375,
      "v": 61
    },
    {
      "midi": 72,
      "hit": false,
      "t": 86281.25,
      "d": 212.5,
      "v": 79
    },
    {
      "midi": 75,
      "hit": false,
      "t": 86481.25,
      "d": 53.125,
      "v": 75
    },
    {
      "midi": 60,
      "hit": false,
      "t": 86500,
      "d": 56.25,
      "v": 48
    },
    {
      "midi": 56,
      "hit": false,
      "t": 86506.25,
      "d": 50,
      "v": 61
    },
    {
      "midi": 72,
      "hit": false,
      "t": 86750,
      "d": 537.5,
      "v": 69
    },
    {
      "midi": 68,
      "hit": false,
      "t": 86768.75,
      "d": 493.75,
      "v": 58
    },
    {
      "midi": 79,
      "hit": false,
      "t": 86800,
      "d": 375,
      "v": 34
    },
    {
      "midi": 56,
      "hit": false,
      "t": 86946.875,
      "d": 259.375,
      "v": 47
    },
    {
      "midi": 44,
      "hit": false,
      "t": 86959.375,
      "d": 231.25,
      "v": 43
    },
    {
      "midi": 77,
      "hit": false,
      "t": 87190.625,
      "d": 196.875,
      "v": 84
    },
    {
      "midi": 75,
      "hit": false,
      "t": 87400,
      "d": 309.375,
      "v": 70
    },
    {
      "midi": 45,
      "hit": false,
      "t": 87403.125,
      "d": 115.625,
      "v": 62
    },
    {
      "midi": 57,
      "hit": false,
      "t": 87406.25,
      "d": 165.625,
      "v": 61
    },
    {
      "midi": 66,
      "hit": false,
      "t": 87406.25,
      "d": 212.5,
      "v": 53
    },
    {
      "midi": 72,
      "hit": false,
      "t": 87600,
      "d": 109.375,
      "v": 85
    },
    {
      "midi": 58,
      "hit": false,
      "t": 87793.75,
      "d": 112.5,
      "v": 106
    },
    {
      "midi": 46,
      "hit": false,
      "t": 87796.875,
      "d": 37.5,
      "v": 90
    },
    {
      "midi": 73,
      "hit": false,
      "t": 87806.25,
      "d": 581.25,
      "v": 101
    },
    {
      "midi": 79,
      "hit": false,
      "t": 88040.625,
      "d": 278.125,
      "v": 115
    },
    {
      "midi": 67,
      "hit": false,
      "t": 88040.625,
      "d": 303.125,
      "v": 108
    },
    {
      "midi": 63,
      "hit": false,
      "t": 88059.375,
      "d": 256.25,
      "v": 99
    },
    {
      "midi": 51,
      "hit": false,
      "t": 88059.375,
      "d": 278.125,
      "v": 86
    },
    {
      "midi": 77,
      "hit": false,
      "t": 88421.875,
      "d": 246.875,
      "v": 121
    },
    {
      "midi": 61,
      "hit": false,
      "t": 88421.875,
      "d": 268.75,
      "v": 103
    },
    {
      "midi": 65,
      "hit": false,
      "t": 88421.875,
      "d": 284.375,
      "v": 115
    },
    {
      "midi": 49,
      "hit": false,
      "t": 88437.5,
      "d": 253.125,
      "v": 85
    },
    {
      "midi": 63,
      "hit": false,
      "t": 88793.75,
      "d": 328.125,
      "v": 113
    },
    {
      "midi": 75,
      "hit": false,
      "t": 88793.75,
      "d": 337.5,
      "v": 111
    },
    {
      "midi": 60,
      "hit": false,
      "t": 88803.125,
      "d": 246.875,
      "v": 89
    },
    {
      "midi": 48,
      "hit": false,
      "t": 88809.375,
      "d": 228.125,
      "v": 76
    },
    {
      "midi": 61,
      "hit": false,
      "t": 89190.625,
      "d": 103.125,
      "v": 89
    },
    {
      "midi": 58,
      "hit": false,
      "t": 89196.875,
      "d": 46.875,
      "v": 90
    },
    {
      "midi": 73,
      "hit": false,
      "t": 89196.875,
      "d": 100,
      "v": 92
    },
    {
      "midi": 46,
      "hit": false,
      "t": 89209.375,
      "d": 46.875,
      "v": 76
    },
    {
      "midi": 72,
      "hit": false,
      "t": 89393.75,
      "d": 109.375,
      "v": 100
    },
    {
      "midi": 44,
      "hit": false,
      "t": 89396.875,
      "d": 46.875,
      "v": 88
    },
    {
      "midi": 60,
      "hit": false,
      "t": 89400,
      "d": 40.625,
      "v": 87
    },
    {
      "midi": 56,
      "hit": false,
      "t": 89400,
      "d": 100,
      "v": 86
    },
    {
      "midi": 75,
      "hit": false,
      "t": 89600,
      "d": 43.75,
      "v": 99
    },
    {
      "midi": 56,
      "hit": false,
      "t": 89793.75,
      "d": 81.25,
      "v": 77
    },
    {
      "midi": 60,
      "hit": false,
      "t": 89800,
      "d": 46.875,
      "v": 66
    },
    {
      "midi": 79,
      "hit": false,
      "t": 89803.125,
      "d": 37.5,
      "v": 106
    },
    {
      "midi": 77,
      "hit": false,
      "t": 90018.75,
      "d": 306.25,
      "v": 102
    },
    {
      "midi": 72,
      "hit": false,
      "t": 90018.75,
      "d": 346.875,
      "v": 85
    },
    {
      "midi": 68,
      "hit": false,
      "t": 90025,
      "d": 490.625,
      "v": 88
    },
    {
      "midi": 56,
      "hit": false,
      "t": 90225,
      "d": 215.625,
      "v": 105
    },
    {
      "midi": 44,
      "hit": false,
      "t": 90225,
      "d": 218.75,
      "v": 101
    },
    {
      "midi": 75,
      "hit": false,
      "t": 90446.875,
      "d": 228.125,
      "v": 94
    },
    {
      "midi": 72,
      "hit": false,
      "t": 90681.25,
      "d": 165.625,
      "v": 93
    },
    {
      "midi": 42,
      "hit": false,
      "t": 90684.375,
      "d": 243.75,
      "v": 85
    },
    {
      "midi": 68,
      "hit": false,
      "t": 90684.375,
      "d": 337.5,
      "v": 90
    },
    {
      "midi": 54,
      "hit": false,
      "t": 90687.5,
      "d": 150,
      "v": 89
    },
    {
      "midi": 73,
      "hit": false,
      "t": 91212.5,
      "d": 334.375,
      "v": 101
    },
    {
      "midi": 68,
      "hit": false,
      "t": 91212.5,
      "d": 550,
      "v": 97
    },
    {
      "midi": 41,
      "hit": false,
      "t": 91225,
      "d": 109.375,
      "v": 75
    },
    {
      "midi": 53,
      "hit": false,
      "t": 91231.25,
      "d": 162.5,
      "v": 71
    },
    {
      "midi": 77,
      "hit": false,
      "t": 91459.375,
      "d": 368.75,
      "v": 91
    },
    {
      "midi": 61,
      "hit": false,
      "t": 91681.25,
      "d": 37.5,
      "v": 66
    },
    {
      "midi": 53,
      "hit": false,
      "t": 91684.375,
      "d": 46.875,
      "v": 49
    },
    {
      "midi": 80,
      "hit": false,
      "t": 91684.375,
      "d": 128.125,
      "v": 87
    },
    {
      "midi": 56,
      "hit": false,
      "t": 91703.125,
      "d": 40.625,
      "v": 54
    },
    {
      "midi": 82,
      "hit": false,
      "t": 91918.75,
      "d": 306.25,
      "v": 94
    },
    {
      "midi": 73,
      "hit": false,
      "t": 91925,
      "d": 437.5,
      "v": 76
    },
    {
      "midi": 77,
      "hit": false,
      "t": 91931.25,
      "d": 350,
      "v": 59
    },
    {
      "midi": 70,
      "hit": false,
      "t": 91931.25,
      "d": 518.75,
      "v": 76
    },
    {
      "midi": 49,
      "hit": false,
      "t": 92146.875,
      "d": 131.25,
      "v": 75
    },
    {
      "midi": 37,
      "hit": false,
      "t": 92150,
      "d": 125,
      "v": 81
    },
    {
      "midi": 80,
      "hit": false,
      "t": 92368.75,
      "d": 68.75,
      "v": 86
    },
    {
      "midi": 77,
      "hit": false,
      "t": 92581.25,
      "d": 271.875,
      "v": 105
    },
    {
      "midi": 50,
      "hit": false,
      "t": 92596.875,
      "d": 178.125,
      "v": 67
    },
    {
      "midi": 65,
      "hit": false,
      "t": 92596.875,
      "d": 212.5,
      "v": 75
    },
    {
      "midi": 71,
      "hit": false,
      "t": 92596.875,
      "d": 212.5,
      "v": 58
    },
    {
      "midi": 38,
      "hit": false,
      "t": 92600,
      "d": 143.75,
      "v": 65
    },
    {
      "midi": 77,
      "hit": false,
      "t": 93037.5,
      "d": 275,
      "v": 78
    },
    {
      "midi": 72,
      "hit": false,
      "t": 93050,
      "d": 253.125,
      "v": 54
    },
    {
      "midi": 68,
      "hit": false,
      "t": 93056.25,
      "d": 262.5,
      "v": 64
    },
    {
      "midi": 39,
      "hit": false,
      "t": 93075,
      "d": 46.875,
      "v": 70
    },
    {
      "midi": 51,
      "hit": false,
      "t": 93084.375,
      "d": 84.375,
      "v": 55
    },
    {
      "midi": 51,
      "hit": false,
      "t": 93515.625,
      "d": 87.5,
      "v": 40
    },
    {
      "midi": 75,
      "hit": false,
      "t": 93525,
      "d": 71.875,
      "v": 44
    },
    {
      "midi": 68,
      "hit": false,
      "t": 93525,
      "d": 106.25,
      "v": 31
    },
    {
      "midi": 72,
      "hit": false,
      "t": 93531.25,
      "d": 65.625,
      "v": 37
    },
    {
      "midi": 56,
      "hit": false,
      "t": 93556.25,
      "d": 59.375,
      "v": 35
    },
    {
      "midi": 60,
      "hit": false,
      "t": 93562.5,
      "d": 71.875,
      "v": 18
    },
    {
      "midi": 62,
      "hit": false,
      "t": 93981.25,
      "d": 275,
      "v": 78
    },
    {
      "midi": 53,
      "hit": false,
      "t": 93990.625,
      "d": 296.875,
      "v": 55
    },
    {
      "midi": 56,
      "hit": false,
      "t": 94187.5,
      "d": 290.625,
      "v": 65
    },
    {
      "midi": 65,
      "hit": false,
      "t": 94196.875,
      "d": 259.375,
      "v": 81
    },
    {
      "midi": 68,
      "hit": false,
      "t": 94393.75,
      "d": 143.75,
      "v": 87
    },
    {
      "midi": 59,
      "hit": false,
      "t": 94446.875,
      "d": 134.375,
      "v": 58
    },
    {
      "midi": 62,
      "hit": false,
      "t": 94609.375,
      "d": 50,
      "v": 79
    },
    {
      "midi": 71,
      "hit": false,
      "t": 94609.375,
      "d": 109.375,
      "v": 62
    },
    {
      "midi": 72,
      "hit": false,
      "t": 94803.125,
      "d": 103.125,
      "v": 83
    },
    {
      "midi": 68,
      "hit": false,
      "t": 94812.5,
      "d": 87.5,
      "v": 85
    },
    {
      "midi": 63,
      "hit": false,
      "t": 94818.75,
      "d": 590.625,
      "v": 86
    },
    {
      "midi": 70,
      "hit": false,
      "t": 94856.25,
      "d": 62.5,
      "v": 37
    },
    {
      "midi": 77,
      "hit": false,
      "t": 95031.25,
      "d": 156.25,
      "v": 107
    },
    {
      "midi": 75,
      "hit": false,
      "t": 95225,
      "d": 146.875,
      "v": 78
    },
    {
      "midi": 51,
      "hit": false,
      "t": 95237.5,
      "d": 415.625,
      "v": 61
    },
    {
      "midi": 68,
      "hit": false,
      "t": 95437.5,
      "d": 68.75,
      "v": 66
    },
    {
      "midi": 72,
      "hit": false,
      "t": 95437.5,
      "d": 109.375,
      "v": 78
    },
    {
      "midi": 70,
      "hit": false,
      "t": 95640.625,
      "d": 146.875,
      "v": 94
    },
    {
      "midi": 61,
      "hit": false,
      "t": 95640.625,
      "d": 234.375,
      "v": 75
    },
    {
      "midi": 67,
      "hit": false,
      "t": 95653.125,
      "d": 96.875,
      "v": 70
    },
    {
      "midi": 75,
      "hit": false,
      "t": 95837.5,
      "d": 46.875,
      "v": 59
    },
    {
      "midi": 51,
      "hit": false,
      "t": 96090.625,
      "d": 56.25,
      "v": 57
    },
    {
      "midi": 67,
      "hit": false,
      "t": 96093.75,
      "d": 121.875,
      "v": 62
    },
    {
      "midi": 72,
      "hit": false,
      "t": 96100,
      "d": 115.625,
      "v": 64
    },
    {
      "midi": 61,
      "hit": false,
      "t": 96109.375,
      "d": 96.875,
      "v": 54
    },
    {
      "midi": 60,
      "hit": false,
      "t": 96350,
      "d": 1293.75,
      "v": 54
    },
    {
      "midi": 68,
      "hit": false,
      "t": 96350,
      "d": 1334.375,
      "v": 66
    },
    {
      "midi": 44,
      "hit": false,
      "t": 96556.25,
      "d": 453.125,
      "v": 57
    },
    {
      "midi": 56,
      "hit": false,
      "t": 96565.625,
      "d": 553.125,
      "v": 41
    },
    {
      "midi": 51,
      "hit": false,
      "t": 97021.875,
      "d": 493.75,
      "v": 78
    },
    {
      "midi": 44,
      "hit": false,
      "t": 97506.25,
      "d": 165.625,
      "v": 69
    },
    {
      "midi": 56,
      "hit": false,
      "t": 97509.375,
      "d": 190.625,
      "v": 67
    },
    {
      "midi": 63,
      "hit": false,
      "t": 98050,
      "d": 78.125,
      "v": 81
    },
    {
      "midi": 75,
      "hit": false,
      "t": 98050,
      "d": 100,
      "v": 87
    },
    {
      "midi": 57,
      "hit": false,
      "t": 98050,
      "d": 118.75,
      "v": 87
    },
    {
      "midi": 45,
      "hit": false,
      "t": 98059.375,
      "d": 75,
      "v": 67
    },
    {
      "midi": 78,
      "hit": false,
      "t": 98537.5,
      "d": 131.25,
      "v": 60
    },
    {
      "midi": 73,
      "hit": false,
      "t": 98606.25,
      "d": 646.875,
      "v": 62
    },
    {
      "midi": 79,
      "hit": false,
      "t": 98612.5,
      "d": 356.25,
      "v": 88
    },
    {
      "midi": 67,
      "hit": false,
      "t": 98625,
      "d": 693.75,
      "v": 65
    },
    {
      "midi": 46,
      "hit": false,
      "t": 98650,
      "d": 109.375,
      "v": 79
    },
    {
      "midi": 58,
      "hit": false,
      "t": 98650,
      "d": 150,
      "v": 74
    },
    {
      "midi": 63,
      "hit": false,
      "t": 99109.375,
      "d": 43.75,
      "v": 80
    },
    {
      "midi": 77,
      "hit": false,
      "t": 99115.625,
      "d": 175,
      "v": 89
    },
    {
      "midi": 61,
      "hit": false,
      "t": 99121.875,
      "d": 40.625,
      "v": 69
    },
    {
      "midi": 58,
      "hit": false,
      "t": 99125,
      "d": 53.125,
      "v": 71
    },
    {
      "midi": 75,
      "hit": false,
      "t": 99331.25,
      "d": 81.25,
      "v": 82
    },
    {
      "midi": 77,
      "hit": false,
      "t": 99412.5,
      "d": 125,
      "v": 46
    },
    {
      "midi": 75,
      "hit": false,
      "t": 99493.75,
      "d": 106.25,
      "v": 79
    },
    {
      "midi": 51,
      "hit": false,
      "t": 99565.625,
      "d": 59.375,
      "v": 71
    },
    {
      "midi": 39,
      "hit": false,
      "t": 99568.75,
      "d": 40.625,
      "v": 65
    },
    {
      "midi": 67,
      "hit": false,
      "t": 99568.75,
      "d": 559.375,
      "v": 81
    },
    {
      "midi": 72,
      "hit": false,
      "t": 99806.25,
      "d": 393.75,
      "v": 74
    },
    {
      "midi": 63,
      "hit": false,
      "t": 100021.875,
      "d": 56.25,
      "v": 70
    },
    {
      "midi": 51,
      "hit": false,
      "t": 100025,
      "d": 87.5,
      "v": 67
    },
    {
      "midi": 70,
      "hit": false,
      "t": 100206.25,
      "d": 93.75,
      "v": 83
    },
    {
      "midi": 61,
      "hit": false,
      "t": 100268.75,
      "d": 43.75,
      "v": 70
    },
    {
      "midi": 72,
      "hit": false,
      "t": 100268.75,
      "d": 118.75,
      "v": 70
    },
    {
      "midi": 49,
      "hit": false,
      "t": 100284.375,
      "d": 56.25,
      "v": 42
    },
    {
      "midi": 70,
      "hit": false,
      "t": 100353.125,
      "d": 162.5,
      "v": 63
    },
    {
      "midi": 68,
      "hit": false,
      "t": 100446.875,
      "d": 278.125,
      "v": 96
    },
    {
      "midi": 63,
      "hit": false,
      "t": 100462.5,
      "d": 175,
      "v": 78
    },
    {
      "midi": 48,
      "hit": false,
      "t": 100468.75,
      "d": 87.5,
      "v": 41
    },
    {
      "midi": 60,
      "hit": false,
      "t": 100471.875,
      "d": 228.125,
      "v": 51
    },
    {
      "midi": 72,
      "hit": false,
      "t": 100700,
      "d": 43.75,
      "v": 88
    },
    {
      "midi": 60,
      "hit": false,
      "t": 100893.75,
      "d": 65.625,
      "v": 37
    },
    {
      "midi": 56,
      "hit": false,
      "t": 100912.5,
      "d": 50,
      "v": 48
    },
    {
      "midi": 75,
      "hit": false,
      "t": 100928.125,
      "d": 87.5,
      "v": 56
    },
    {
      "midi": 79,
      "hit": false,
      "t": 101137.5,
      "d": 350,
      "v": 94
    },
    {
      "midi": 72,
      "hit": false,
      "t": 101156.25,
      "d": 387.5,
      "v": 73
    },
    {
      "midi": 68,
      "hit": false,
      "t": 101181.25,
      "d": 337.5,
      "v": 70
    },
    {
      "midi": 73,
      "hit": false,
      "t": 101187.5,
      "d": 59.375,
      "v": 31
    },
    {
      "midi": 56,
      "hit": false,
      "t": 101371.875,
      "d": 143.75,
      "v": 81
    },
    {
      "midi": 44,
      "hit": false,
      "t": 101375,
      "d": 171.875,
      "v": 74
    },
    {
      "midi": 77,
      "hit": false,
      "t": 101584.375,
      "d": 296.875,
      "v": 87
    },
    {
      "midi": 45,
      "hit": false,
      "t": 101787.5,
      "d": 109.375,
      "v": 82
    },
    {
      "midi": 57,
      "hit": false,
      "t": 101790.625,
      "d": 134.375,
      "v": 80
    },
    {
      "midi": 75,
      "hit": false,
      "t": 101796.875,
      "d": 309.375,
      "v": 77
    },
    {
      "midi": 66,
      "hit": false,
      "t": 101803.125,
      "d": 153.125,
      "v": 64
    },
    {
      "midi": 72,
      "hit": false,
      "t": 102012.5,
      "d": 100,
      "v": 81
    },
    {
      "midi": 46,
      "hit": false,
      "t": 102215.625,
      "d": 40.625,
      "v": 99
    },
    {
      "midi": 58,
      "hit": false,
      "t": 102215.625,
      "d": 109.375,
      "v": 110
    },
    {
      "midi": 73,
      "hit": false,
      "t": 102215.625,
      "d": 146.875,
      "v": 104
    },
    {
      "midi": 79,
      "hit": false,
      "t": 102459.375,
      "d": 306.25,
      "v": 118
    },
    {
      "midi": 73,
      "hit": false,
      "t": 102459.375,
      "d": 346.875,
      "v": 105
    },
    {
      "midi": 67,
      "hit": false,
      "t": 102462.5,
      "d": 325,
      "v": 113
    },
    {
      "midi": 75,
      "hit": false,
      "t": 102468.75,
      "d": 337.5,
      "v": 100
    },
    {
      "midi": 63,
      "hit": false,
      "t": 102478.125,
      "d": 287.5,
      "v": 100
    },
    {
      "midi": 51,
      "hit": false,
      "t": 102481.25,
      "d": 306.25,
      "v": 88
    },
    {
      "midi": 77,
      "hit": false,
      "t": 102884.375,
      "d": 206.25,
      "v": 115
    },
    {
      "midi": 70,
      "hit": false,
      "t": 102884.375,
      "d": 303.125,
      "v": 111
    },
    {
      "midi": 65,
      "hit": false,
      "t": 102893.75,
      "d": 256.25,
      "v": 103
    },
    {
      "midi": 61,
      "hit": false,
      "t": 102896.875,
      "d": 231.25,
      "v": 92
    },
    {
      "midi": 73,
      "hit": false,
      "t": 102896.875,
      "d": 278.125,
      "v": 80
    },
    {
      "midi": 49,
      "hit": false,
      "t": 102903.125,
      "d": 225,
      "v": 79
    },
    {
      "midi": 75,
      "hit": false,
      "t": 103281.25,
      "d": 315.625,
      "v": 106
    },
    {
      "midi": 63,
      "hit": false,
      "t": 103281.25,
      "d": 353.125,
      "v": 108
    },
    {
      "midi": 60,
      "hit": false,
      "t": 103306.25,
      "d": 231.25,
      "v": 95
    },
    {
      "midi": 48,
      "hit": false,
      "t": 103312.5,
      "d": 228.125,
      "v": 88
    },
    {
      "midi": 73,
      "hit": false,
      "t": 103696.875,
      "d": 106.25,
      "v": 100
    },
    {
      "midi": 61,
      "hit": false,
      "t": 103703.125,
      "d": 103.125,
      "v": 92
    },
    {
      "midi": 58,
      "hit": false,
      "t": 103712.5,
      "d": 40.625,
      "v": 95
    },
    {
      "midi": 46,
      "hit": false,
      "t": 103737.5,
      "d": 53.125,
      "v": 62
    },
    {
      "midi": 72,
      "hit": false,
      "t": 103900,
      "d": 115.625,
      "v": 97
    },
    {
      "midi": 60,
      "hit": false,
      "t": 103906.25,
      "d": 50,
      "v": 88
    },
    {
      "midi": 56,
      "hit": false,
      "t": 103909.375,
      "d": 112.5,
      "v": 93
    },
    {
      "midi": 44,
      "hit": false,
      "t": 103909.375,
      "d": 115.625,
      "v": 92
    },
    {
      "midi": 75,
      "hit": false,
      "t": 104118.75,
      "d": 40.625,
      "v": 96
    },
    {
      "midi": 51,
      "hit": false,
      "t": 104312.5,
      "d": 75,
      "v": 76
    },
    {
      "midi": 79,
      "hit": false,
      "t": 104318.75,
      "d": 87.5,
      "v": 110
    },
    {
      "midi": 60,
      "hit": false,
      "t": 104325,
      "d": 40.625,
      "v": 74
    },
    {
      "midi": 56,
      "hit": false,
      "t": 104331.25,
      "d": 40.625,
      "v": 63
    },
    {
      "midi": 77,
      "hit": false,
      "t": 104543.75,
      "d": 287.5,
      "v": 116
    },
    {
      "midi": 72,
      "hit": false,
      "t": 104550,
      "d": 309.375,
      "v": 98
    },
    {
      "midi": 65,
      "hit": false,
      "t": 104550,
      "d": 334.375,
      "v": 97
    },
    {
      "midi": 56,
      "hit": false,
      "t": 104759.375,
      "d": 253.125,
      "v": 98
    },
    {
      "midi": 44,
      "hit": false,
      "t": 104762.5,
      "d": 196.875,
      "v": 92
    },
    {
      "midi": 72,
      "hit": false,
      "t": 105203.125,
      "d": 181.25,
      "v": 51
    },
    {
      "midi": 63,
      "hit": false,
      "t": 105212.5,
      "d": 168.75,
      "v": 65
    },
    {
      "midi": 75,
      "hit": false,
      "t": 105215.625,
      "d": 209.375,
      "v": 76
    },
    {
      "midi": 69,
      "hit": false,
      "t": 105225,
      "d": 146.875,
      "v": 59
    },
    {
      "midi": 57,
      "hit": false,
      "t": 105234.375,
      "d": 175,
      "v": 67
    },
    {
      "midi": 45,
      "hit": false,
      "t": 105253.125,
      "d": 115.625,
      "v": 52
    },
    {
      "midi": 79,
      "hit": false,
      "t": 105675,
      "d": 350,
      "v": 66
    },
    {
      "midi": 73,
      "hit": false,
      "t": 105675,
      "d": 531.25,
      "v": 61
    },
    {
      "midi": 75,
      "hit": false,
      "t": 105687.5,
      "d": 318.75,
      "v": 60
    },
    {
      "midi": 46,
      "hit": false,
      "t": 105706.25,
      "d": 128.125,
      "v": 68
    },
    {
      "midi": 67,
      "hit": false,
      "t": 105712.5,
      "d": 321.875,
      "v": 31
    },
    {
      "midi": 58,
      "hit": false,
      "t": 105721.875,
      "d": 134.375,
      "v": 49
    },
    {
      "midi": 77,
      "hit": false,
      "t": 106137.5,
      "d": 125,
      "v": 72
    },
    {
      "midi": 61,
      "hit": false,
      "t": 106140.625,
      "d": 50,
      "v": 49
    },
    {
      "midi": 58,
      "hit": false,
      "t": 106146.875,
      "d": 53.125,
      "v": 56
    },
    {
      "midi": 51,
      "hit": false,
      "t": 106153.125,
      "d": 53.125,
      "v": 47
    },
    {
      "midi": 75,
      "hit": false,
      "t": 106337.5,
      "d": 56.25,
      "v": 78
    },
    {
      "midi": 67,
      "hit": false,
      "t": 106556.25,
      "d": 506.25,
      "v": 87
    },
    {
      "midi": 39,
      "hit": false,
      "t": 106562.5,
      "d": 46.875,
      "v": 73
    },
    {
      "midi": 51,
      "hit": false,
      "t": 106571.875,
      "d": 103.125,
      "v": 75
    },
    {
      "midi": 72,
      "hit": false,
      "t": 106784.375,
      "d": 315.625,
      "v": 86
    },
    {
      "midi": 63,
      "hit": false,
      "t": 106984.375,
      "d": 56.25,
      "v": 96
    },
    {
      "midi": 51,
      "hit": false,
      "t": 106990.625,
      "d": 62.5,
      "v": 85
    },
    {
      "midi": 70,
      "hit": false,
      "t": 107181.25,
      "d": 137.5,
      "v": 106
    },
    {
      "midi": 61,
      "hit": false,
      "t": 107184.375,
      "d": 96.875,
      "v": 94
    },
    {
      "midi": 49,
      "hit": false,
      "t": 107193.75,
      "d": 43.75,
      "v": 73
    },
    {
      "midi": 63,
      "hit": false,
      "t": 107378.125,
      "d": 415.625,
      "v": 93
    },
    {
      "midi": 68,
      "hit": false,
      "t": 107381.25,
      "d": 337.5,
      "v": 100
    },
    {
      "midi": 60,
      "hit": false,
      "t": 107393.75,
      "d": 281.25,
      "v": 93
    },
    {
      "midi": 48,
      "hit": false,
      "t": 107403.125,
      "d": 146.875,
      "v": 75
    },
    {
      "midi": 72,
      "hit": false,
      "t": 107593.75,
      "d": 237.5,
      "v": 91
    },
    {
      "midi": 75,
      "hit": false,
      "t": 107796.875,
      "d": 93.75,
      "v": 89
    },
    {
      "midi": 56,
      "hit": false,
      "t": 107812.5,
      "d": 140.625,
      "v": 79
    },
    {
      "midi": 60,
      "hit": false,
      "t": 107818.75,
      "d": 168.75,
      "v": 64
    },
    {
      "midi": 80,
      "hit": false,
      "t": 108025,
      "d": 78.125,
      "v": 62
    },
    {
      "midi": 72,
      "hit": false,
      "t": 108034.375,
      "d": 350,
      "v": 85
    },
    {
      "midi": 79,
      "hit": false,
      "t": 108040.625,
      "d": 284.375,
      "v": 97
    },
    {
      "midi": 68,
      "hit": false,
      "t": 108040.625,
      "d": 315.625,
      "v": 90
    },
    {
      "midi": 73,
      "hit": false,
      "t": 108065.625,
      "d": 62.5,
      "v": 27
    },
    {
      "midi": 56,
      "hit": false,
      "t": 108237.5,
      "d": 93.75,
      "v": 103
    },
    {
      "midi": 60,
      "hit": false,
      "t": 108240.625,
      "d": 90.625,
      "v": 109
    },
    {
      "midi": 51,
      "hit": false,
      "t": 108246.875,
      "d": 128.125,
      "v": 94
    },
    {
      "midi": 77,
      "hit": false,
      "t": 108425,
      "d": 218.75,
      "v": 97
    },
    {
      "midi": 72,
      "hit": false,
      "t": 108643.75,
      "d": 143.75,
      "v": 86
    },
    {
      "midi": 68,
      "hit": false,
      "t": 108643.75,
      "d": 146.875,
      "v": 94
    },
    {
      "midi": 44,
      "hit": false,
      "t": 108653.125,
      "d": 168.75,
      "v": 88
    },
    {
      "midi": 75,
      "hit": false,
      "t": 108653.125,
      "d": 168.75,
      "v": 84
    },
    {
      "midi": 56,
      "hit": false,
      "t": 108656.25,
      "d": 109.375,
      "v": 92
    },
    {
      "midi": 77,
      "hit": false,
      "t": 108850,
      "d": 78.125,
      "v": 92
    },
    {
      "midi": 43,
      "hit": false,
      "t": 109050,
      "d": 100,
      "v": 92
    },
    {
      "midi": 55,
      "hit": false,
      "t": 109056.25,
      "d": 131.25,
      "v": 95
    },
    {
      "midi": 79,
      "hit": false,
      "t": 109056.25,
      "d": 275,
      "v": 119
    },
    {
      "midi": 67,
      "hit": false,
      "t": 109056.25,
      "d": 312.5,
      "v": 115
    },
    {
      "midi": 75,
      "hit": false,
      "t": 109281.25,
      "d": 156.25,
      "v": 97
    },
    {
      "midi": 63,
      "hit": false,
      "t": 109475,
      "d": 46.875,
      "v": 83
    },
    {
      "midi": 72,
      "hit": false,
      "t": 109475,
      "d": 93.75,
      "v": 101
    },
    {
      "midi": 60,
      "hit": false,
      "t": 109481.25,
      "d": 53.125,
      "v": 76
    },
    {
      "midi": 68,
      "hit": false,
      "t": 109696.875,
      "d": 90.625,
      "v": 117
    },
    {
      "midi": 80,
      "hit": false,
      "t": 109696.875,
      "d": 90.625,
      "v": 115
    },
    {
      "midi": 50,
      "hit": false,
      "t": 109925,
      "d": 78.125,
      "v": 56
    },
    {
      "midi": 79,
      "hit": false,
      "t": 109934.375,
      "d": 78.125,
      "v": 117
    },
    {
      "midi": 67,
      "hit": false,
      "t": 109937.5,
      "d": 46.875,
      "v": 111
    },
    {
      "midi": 83,
      "hit": false,
      "t": 110165.625,
      "d": 21.875,
      "v": 100
    },
    {
      "midi": 71,
      "hit": false,
      "t": 110181.25,
      "d": 40.625,
      "v": 58
    },
    {
      "midi": 59,
      "hit": false,
      "t": 110375,
      "d": 53.125,
      "v": 53
    },
    {
      "midi": 65,
      "hit": false,
      "t": 110375,
      "d": 53.125,
      "v": 50
    },
    {
      "midi": 62,
      "hit": false,
      "t": 110381.25,
      "d": 46.875,
      "v": 55
    },
    {
      "midi": 86,
      "hit": false,
      "t": 110387.5,
      "d": 25,
      "v": 106
    },
    {
      "midi": 55,
      "hit": false,
      "t": 110393.75,
      "d": 71.875,
      "v": 63
    },
    {
      "midi": 74,
      "hit": false,
      "t": 110396.875,
      "d": 40.625,
      "v": 73
    },
    {
      "midi": 91,
      "hit": false,
      "t": 110634.375,
      "d": 500,
      "v": 100
    },
    {
      "midi": 79,
      "hit": false,
      "t": 110650,
      "d": 531.25,
      "v": 72
    },
    {
      "midi": 48,
      "hit": false,
      "t": 110825,
      "d": 118.75,
      "v": 62
    },
    {
      "midi": 60,
      "hit": false,
      "t": 110831.25,
      "d": 175,
      "v": 58
    },
    {
      "midi": 87,
      "hit": false,
      "t": 111062.5,
      "d": 315.625,
      "v": 78
    },
    {
      "midi": 63,
      "hit": false,
      "t": 111231.25,
      "d": 43.75,
      "v": 66
    },
    {
      "midi": 55,
      "hit": false,
      "t": 111259.375,
      "d": 50,
      "v": 53
    },
    {
      "midi": 60,
      "hit": false,
      "t": 111259.375,
      "d": 50,
      "v": 49
    },
    {
      "midi": 84,
      "hit": false,
      "t": 111278.125,
      "d": 256.25,
      "v": 66
    },
    {
      "midi": 79,
      "hit": false,
      "t": 111493.75,
      "d": 53.125,
      "v": 87
    },
    {
      "midi": 48,
      "hit": false,
      "t": 111675,
      "d": 200,
      "v": 55
    },
    {
      "midi": 60,
      "hit": false,
      "t": 111678.125,
      "d": 150,
      "v": 66
    },
    {
      "midi": 75,
      "hit": false,
      "t": 111921.875,
      "d": 65.625,
      "v": 68
    },
    {
      "midi": 47,
      "hit": false,
      "t": 112112.5,
      "d": 246.875,
      "v": 36
    },
    {
      "midi": 79,
      "hit": false,
      "t": 112125,
      "d": 328.125,
      "v": 65
    },
    {
      "midi": 59,
      "hit": false,
      "t": 112131.25,
      "d": 243.75,
      "v": 31
    },
    {
      "midi": 74,
      "hit": false,
      "t": 112134.375,
      "d": 334.375,
      "v": 57
    },
    {
      "midi": 67,
      "hit": false,
      "t": 112146.875,
      "d": 306.25,
      "v": 39
    },
    {
      "midi": 79,
      "hit": false,
      "t": 112634.375,
      "d": 259.375,
      "v": 57
    },
    {
      "midi": 73,
      "hit": false,
      "t": 112637.5,
      "d": 268.75,
      "v": 53
    },
    {
      "midi": 67,
      "hit": false,
      "t": 112643.75,
      "d": 268.75,
      "v": 37
    },
    {
      "midi": 46,
      "hit": false,
      "t": 112662.5,
      "d": 165.625,
      "v": 70
    },
    {
      "midi": 58,
      "hit": false,
      "t": 112681.25,
      "d": 190.625,
      "v": 51
    },
    {
      "midi": 77,
      "hit": false,
      "t": 112946.875,
      "d": 62.5,
      "v": 73
    },
    {
      "midi": 79,
      "hit": false,
      "t": 113025,
      "d": 165.625,
      "v": 53
    },
    {
      "midi": 77,
      "hit": false,
      "t": 113100,
      "d": 156.25,
      "v": 83
    },
    {
      "midi": 61,
      "hit": false,
      "t": 113121.875,
      "d": 46.875,
      "v": 76
    },
    {
      "midi": 58,
      "hit": false,
      "t": 113140.625,
      "d": 46.875,
      "v": 70
    },
    {
      "midi": 51,
      "hit": false,
      "t": 113150,
      "d": 62.5,
      "v": 51
    },
    {
      "midi": 75,
      "hit": false,
      "t": 113346.875,
      "d": 43.75,
      "v": 66
    },
    {
      "midi": 67,
      "hit": false,
      "t": 113565.625,
      "d": 503.125,
      "v": 79
    },
    {
      "midi": 51,
      "hit": false,
      "t": 113571.875,
      "d": 78.125,
      "v": 77
    },
    {
      "midi": 39,
      "hit": false,
      "t": 113581.25,
      "d": 43.75,
      "v": 75
    },
    {
      "midi": 72,
      "hit": false,
      "t": 113793.75,
      "d": 325,
      "v": 86
    },
    {
      "midi": 63,
      "hit": false,
      "t": 113993.75,
      "d": 59.375,
      "v": 100
    },
    {
      "midi": 51,
      "hit": false,
      "t": 114000,
      "d": 56.25,
      "v": 88
    },
    {
      "midi": 61,
      "hit": false,
      "t": 114193.75,
      "d": 71.875,
      "v": 92
    },
    {
      "midi": 70,
      "hit": false,
      "t": 114193.75,
      "d": 131.25,
      "v": 103
    },
    {
      "midi": 49,
      "hit": false,
      "t": 114200,
      "d": 43.75,
      "v": 80
    },
    {
      "midi": 63,
      "hit": false,
      "t": 114387.5,
      "d": 450,
      "v": 89
    },
    {
      "midi": 68,
      "hit": false,
      "t": 114393.75,
      "d": 353.125,
      "v": 92
    },
    {
      "midi": 60,
      "hit": false,
      "t": 114403.125,
      "d": 290.625,
      "v": 85
    },
    {
      "midi": 48,
      "hit": false,
      "t": 114409.375,
      "d": 156.25,
      "v": 74
    },
    {
      "midi": 72,
      "hit": false,
      "t": 114593.75,
      "d": 243.75,
      "v": 89
    },
    {
      "midi": 75,
      "hit": false,
      "t": 114793.75,
      "d": 100,
      "v": 90
    },
    {
      "midi": 60,
      "hit": false,
      "t": 114809.375,
      "d": 50,
      "v": 48
    },
    {
      "midi": 56,
      "hit": false,
      "t": 114815.625,
      "d": 43.75,
      "v": 78
    },
    {
      "midi": 79,
      "hit": false,
      "t": 115006.25,
      "d": 318.75,
      "v": 105
    },
    {
      "midi": 72,
      "hit": false,
      "t": 115012.5,
      "d": 368.75,
      "v": 97
    },
    {
      "midi": 73,
      "hit": false,
      "t": 115021.875,
      "d": 59.375,
      "v": 35
    },
    {
      "midi": 68,
      "hit": false,
      "t": 115028.125,
      "d": 325,
      "v": 85
    },
    {
      "midi": 44,
      "hit": false,
      "t": 115212.5,
      "d": 209.375,
      "v": 100
    },
    {
      "midi": 56,
      "hit": false,
      "t": 115212.5,
      "d": 234.375,
      "v": 107
    },
    {
      "midi": 77,
      "hit": false,
      "t": 115425,
      "d": 312.5,
      "v": 95
    },
    {
      "midi": 66,
      "hit": false,
      "t": 115618.75,
      "d": 187.5,
      "v": 83
    },
    {
      "midi": 75,
      "hit": false,
      "t": 115625,
      "d": 325,
      "v": 88
    },
    {
      "midi": 57,
      "hit": false,
      "t": 115628.125,
      "d": 231.25,
      "v": 106
    },
    {
      "midi": 45,
      "hit": false,
      "t": 115637.5,
      "d": 146.875,
      "v": 98
    },
    {
      "midi": 72,
      "hit": false,
      "t": 115825,
      "d": 118.75,
      "v": 97
    },
    {
      "midi": 58,
      "hit": false,
      "t": 116025,
      "d": 106.25,
      "v": 114
    },
    {
      "midi": 73,
      "hit": false,
      "t": 116025,
      "d": 540.625,
      "v": 109
    },
    {
      "midi": 46,
      "hit": false,
      "t": 116031.25,
      "d": 50,
      "v": 97
    },
    {
      "midi": 79,
      "hit": false,
      "t": 116271.875,
      "d": 259.375,
      "v": 116
    },
    {
      "midi": 67,
      "hit": false,
      "t": 116271.875,
      "d": 281.25,
      "v": 108
    },
    {
      "midi": 63,
      "hit": false,
      "t": 116281.25,
      "d": 243.75,
      "v": 96
    },
    {
      "midi": 51,
      "hit": false,
      "t": 116284.375,
      "d": 259.375,
      "v": 77
    },
    {
      "midi": 70,
      "hit": false,
      "t": 116650,
      "d": 331.25,
      "v": 111
    },
    {
      "midi": 77,
      "hit": false,
      "t": 116659.375,
      "d": 234.375,
      "v": 111
    },
    {
      "midi": 61,
      "hit": false,
      "t": 116659.375,
      "d": 240.625,
      "v": 87
    },
    {
      "midi": 65,
      "hit": false,
      "t": 116665.625,
      "d": 265.625,
      "v": 92
    },
    {
      "midi": 49,
      "hit": false,
      "t": 116671.875,
      "d": 246.875,
      "v": 70
    },
    {
      "midi": 75,
      "hit": false,
      "t": 117031.25,
      "d": 309.375,
      "v": 101
    },
    {
      "midi": 63,
      "hit": false,
      "t": 117043.75,
      "d": 306.25,
      "v": 99
    },
    {
      "midi": 60,
      "hit": false,
      "t": 117050,
      "d": 196.875,
      "v": 95
    },
    {
      "midi": 48,
      "hit": false,
      "t": 117059.375,
      "d": 196.875,
      "v": 73
    },
    {
      "midi": 46,
      "hit": false,
      "t": 117412.5,
      "d": 53.125,
      "v": 100
    },
    {
      "midi": 58,
      "hit": false,
      "t": 117412.5,
      "d": 81.25,
      "v": 100
    },
    {
      "midi": 61,
      "hit": false,
      "t": 117437.5,
      "d": 103.125,
      "v": 97
    },
    {
      "midi": 73,
      "hit": false,
      "t": 117437.5,
      "d": 109.375,
      "v": 98
    },
    {
      "midi": 72,
      "hit": false,
      "t": 117612.5,
      "d": 106.25,
      "v": 100
    },
    {
      "midi": 44,
      "hit": false,
      "t": 117615.625,
      "d": 40.625,
      "v": 95
    },
    {
      "midi": 56,
      "hit": false,
      "t": 117615.625,
      "d": 96.875,
      "v": 99
    },
    {
      "midi": 60,
      "hit": false,
      "t": 117618.75,
      "d": 43.75,
      "v": 78
    },
    {
      "midi": 75,
      "hit": false,
      "t": 117815.625,
      "d": 62.5,
      "v": 106
    },
    {
      "midi": 56,
      "hit": false,
      "t": 118000,
      "d": 106.25,
      "v": 74
    },
    {
      "midi": 60,
      "hit": false,
      "t": 118006.25,
      "d": 59.375,
      "v": 89
    },
    {
      "midi": 79,
      "hit": false,
      "t": 118012.5,
      "d": 75,
      "v": 114
    },
    {
      "midi": 51,
      "hit": false,
      "t": 118018.75,
      "d": 93.75,
      "v": 67
    },
    {
      "midi": 77,
      "hit": false,
      "t": 118234.375,
      "d": 359.375,
      "v": 122
    },
    {
      "midi": 72,
      "hit": false,
      "t": 118240.625,
      "d": 481.25,
      "v": 111
    },
    {
      "midi": 56,
      "hit": false,
      "t": 118450,
      "d": 250,
      "v": 114
    },
    {
      "midi": 44,
      "hit": false,
      "t": 118456.25,
      "d": 281.25,
      "v": 107
    },
    {
      "midi": 75,
      "hit": false,
      "t": 118668.75,
      "d": 262.5,
      "v": 100
    },
    {
      "midi": 72,
      "hit": false,
      "t": 118912.5,
      "d": 293.75,
      "v": 97
    },
    {
      "midi": 68,
      "hit": false,
      "t": 118918.75,
      "d": 331.25,
      "v": 95
    },
    {
      "midi": 42,
      "hit": false,
      "t": 118921.875,
      "d": 256.25,
      "v": 84
    },
    {
      "midi": 54,
      "hit": false,
      "t": 118928.125,
      "d": 209.375,
      "v": 81
    },
    {
      "midi": 68,
      "hit": false,
      "t": 119359.375,
      "d": 487.5,
      "v": 68
    },
    {
      "midi": 73,
      "hit": false,
      "t": 119359.375,
      "d": 556.25,
      "v": 88
    },
    {
      "midi": 41,
      "hit": false,
      "t": 119375,
      "d": 75,
      "v": 73
    },
    {
      "midi": 53,
      "hit": false,
      "t": 119375,
      "d": 146.875,
      "v": 60
    },
    {
      "midi": 77,
      "hit": false,
      "t": 119593.75,
      "d": 162.5,
      "v": 87
    },
    {
      "midi": 80,
      "hit": false,
      "t": 119800,
      "d": 100,
      "v": 77
    },
    {
      "midi": 65,
      "hit": false,
      "t": 119818.75,
      "d": 68.75,
      "v": 40
    },
    {
      "midi": 56,
      "hit": false,
      "t": 119831.25,
      "d": 56.25,
      "v": 51
    },
    {
      "midi": 61,
      "hit": false,
      "t": 119837.5,
      "d": 50,
      "v": 48
    },
    {
      "midi": 82,
      "hit": false,
      "t": 120031.25,
      "d": 275,
      "v": 99
    },
    {
      "midi": 70,
      "hit": false,
      "t": 120050,
      "d": 303.125,
      "v": 78
    },
    {
      "midi": 73,
      "hit": false,
      "t": 120071.875,
      "d": 284.375,
      "v": 49
    },
    {
      "midi": 77,
      "hit": false,
      "t": 120081.25,
      "d": 284.375,
      "v": 72
    },
    {
      "midi": 49,
      "hit": false,
      "t": 120253.125,
      "d": 128.125,
      "v": 76
    },
    {
      "midi": 37,
      "hit": false,
      "t": 120265.625,
      "d": 90.625,
      "v": 61
    },
    {
      "midi": 80,
      "hit": false,
      "t": 120468.75,
      "d": 62.5,
      "v": 75
    },
    {
      "midi": 68,
      "hit": false,
      "t": 120490.625,
      "d": 53.125,
      "v": 71
    },
    {
      "midi": 50,
      "hit": false,
      "t": 120678.125,
      "d": 203.125,
      "v": 51
    },
    {
      "midi": 38,
      "hit": false,
      "t": 120681.25,
      "d": 137.5,
      "v": 51
    },
    {
      "midi": 77,
      "hit": false,
      "t": 120693.75,
      "d": 262.5,
      "v": 87
    },
    {
      "midi": 65,
      "hit": false,
      "t": 120706.25,
      "d": 209.375,
      "v": 57
    },
    {
      "midi": 71,
      "hit": false,
      "t": 120715.625,
      "d": 184.375,
      "v": 41
    },
    {
      "midi": 77,
      "hit": false,
      "t": 121143.75,
      "d": 306.25,
      "v": 60
    },
    {
      "midi": 72,
      "hit": false,
      "t": 121162.5,
      "d": 293.75,
      "v": 24
    },
    {
      "midi": 68,
      "hit": false,
      "t": 121171.875,
      "d": 259.375,
      "v": 51
    },
    {
      "midi": 39,
      "hit": false,
      "t": 121175,
      "d": 112.5,
      "v": 58
    },
    {
      "midi": 51,
      "hit": false,
      "t": 121181.25,
      "d": 125,
      "v": 55
    },
    {
      "midi": 75,
      "hit": false,
      "t": 121606.25,
      "d": 71.875,
      "v": 59
    },
    {
      "midi": 51,
      "hit": false,
      "t": 121618.75,
      "d": 87.5,
      "v": 44
    },
    {
      "midi": 68,
      "hit": false,
      "t": 121621.875,
      "d": 84.375,
      "v": 44
    },
    {
      "midi": 72,
      "hit": false,
      "t": 121637.5,
      "d": 53.125,
      "v": 48
    },
    {
      "midi": 56,
      "hit": false,
      "t": 121640.625,
      "d": 59.375,
      "v": 38
    },
    {
      "midi": 60,
      "hit": false,
      "t": 121656.25,
      "d": 75,
      "v": 13
    },
    {
      "midi": 62,
      "hit": false,
      "t": 122053.125,
      "d": 300,
      "v": 75
    },
    {
      "midi": 53,
      "hit": false,
      "t": 122059.375,
      "d": 293.75,
      "v": 59
    },
    {
      "midi": 56,
      "hit": false,
      "t": 122256.25,
      "d": 306.25,
      "v": 77
    },
    {
      "midi": 65,
      "hit": false,
      "t": 122271.875,
      "d": 218.75,
      "v": 88
    },
    {
      "midi": 68,
      "hit": false,
      "t": 122437.5,
      "d": 153.125,
      "v": 62
    },
    {
      "midi": 59,
      "hit": false,
      "t": 122453.125,
      "d": 203.125,
      "v": 69
    },
    {
      "midi": 62,
      "hit": false,
      "t": 122631.25,
      "d": 84.375,
      "v": 79
    },
    {
      "midi": 71,
      "hit": false,
      "t": 122690.625,
      "d": 96.875,
      "v": 41
    },
    {
      "midi": 72,
      "hit": false,
      "t": 122906.25,
      "d": 150,
      "v": 96
    },
    {
      "midi": 68,
      "hit": false,
      "t": 122925,
      "d": 109.375,
      "v": 91
    },
    {
      "midi": 63,
      "hit": false,
      "t": 123112.5,
      "d": 106.25,
      "v": 84
    },
    {
      "midi": 77,
      "hit": false,
      "t": 123134.375,
      "d": 259.375,
      "v": 115
    },
    {
      "midi": 75,
      "hit": false,
      "t": 123337.5,
      "d": 284.375,
      "v": 93
    },
    {
      "midi": 51,
      "hit": false,
      "t": 123346.875,
      "d": 390.625,
      "v": 79
    },
    {
      "midi": 72,
      "hit": false,
      "t": 123537.5,
      "d": 112.5,
      "v": 89
    },
    {
      "midi": 68,
      "hit": false,
      "t": 123543.75,
      "d": 87.5,
      "v": 82
    },
    {
      "midi": 70,
      "hit": false,
      "t": 123756.25,
      "d": 275,
      "v": 92
    },
    {
      "midi": 61,
      "hit": false,
      "t": 123765.625,
      "d": 84.375,
      "v": 79
    },
    {
      "midi": 67,
      "hit": false,
      "t": 123765.625,
      "d": 281.25,
      "v": 68
    },
    {
      "midi": 75,
      "hit": false,
      "t": 123984.375,
      "d": 40.625,
      "v": 73
    },
    {
      "midi": 72,
      "hit": false,
      "t": 124200,
      "d": 153.125,
      "v": 76
    },
    {
      "midi": 67,
      "hit": false,
      "t": 124215.625,
      "d": 68.75,
      "v": 51
    },
    {
      "midi": 51,
      "hit": false,
      "t": 124225,
      "d": 75,
      "v": 53
    },
    {
      "midi": 39,
      "hit": false,
      "t": 124228.125,
      "d": 56.25,
      "v": 50
    },
    {
      "midi": 60,
      "hit": false,
      "t": 124643.75,
      "d": 406.25,
      "v": 51
    },
    {
      "midi": 68,
      "hit": false,
      "t": 124646.875,
      "d": 475,
      "v": 61
    },
    {
      "midi": 56,
      "hit": false,
      "t": 124662.5,
      "d": 53.125,
      "v": 49
    },
    {
      "midi": 44,
      "hit": false,
      "t": 124671.875,
      "d": 96.875,
      "v": 49
    },
    {
      "midi": 51,
      "hit": false,
      "t": 125131.25,
      "d": 50,
      "v": 47
    },
    {
      "midi": 39,
      "hit": false,
      "t": 125137.5,
      "d": 62.5,
      "v": 56
    },
    {
      "midi": 32,
      "hit": false,
      "t": 125593.75,
      "d": 46.875,
      "v": 53
    },
    {
      "midi": 68,
      "hit": false,
      "t": 125612.5,
      "d": 1056.25,
      "v": 46
    },
    {
      "midi": 72,
      "hit": false,
      "t": 125612.5,
      "d": 1062.5,
      "v": 54
    },
    {
      "midi": 80,
      "hit": false,
      "t": 125621.875,
      "d": 965.625,
      "v": 47
    },
    {
      "midi": 75,
      "hit": false,
      "t": 125637.5,
      "d": 1031.25,
      "v": 54
    },
    {
      "midi": 39,
      "hit": false,
      "t": 126081.25,
      "d": 34.375,
      "v": 75
    },
    {
      "midi": 51,
      "hit": false,
      "t": 126087.5,
      "d": 43.75,
      "v": 78
    },
    {
      "midi": 56,
      "hit": false,
      "t": 126565.625,
      "d": 93.75,
      "v": 73
    },
    {
      "midi": 44,
      "hit": false,
      "t": 126575,
      "d": 50,
      "v": 67
    },
    {
      "midi": 77,
      "hit": false,
      "t": 126993.75,
      "d": 165.625,
      "v": 104
    },
    {
      "midi": 51,
      "hit": false,
      "t": 127034.375,
      "d": 50,
      "v": 58
    },
    {
      "midi": 60,
      "hit": false,
      "t": 127034.375,
      "d": 75,
      "v": 63
    },
    {
      "midi": 72,
      "hit": false,
      "t": 127034.375,
      "d": 175,
      "v": 87
    },
    {
      "midi": 56,
      "hit": false,
      "t": 127037.5,
      "d": 75,
      "v": 65
    },
    {
      "midi": 75,
      "hit": false,
      "t": 127040.625,
      "d": 203.125,
      "v": 71
    },
    {
      "midi": 74,
      "hit": false,
      "t": 127243.75,
      "d": 168.75,
      "v": 87
    },
    {
      "midi": 71,
      "hit": false,
      "t": 127253.125,
      "d": 312.5,
      "v": 60
    },
    {
      "midi": 75,
      "hit": false,
      "t": 127462.5,
      "d": 150,
      "v": 72
    },
    {
      "midi": 72,
      "hit": false,
      "t": 127490.625,
      "d": 156.25,
      "v": 72
    },
    {
      "midi": 73,
      "hit": false,
      "t": 127712.5,
      "d": 350,
      "v": 66
    },
    {
      "midi": 77,
      "hit": false,
      "t": 127712.5,
      "d": 418.75,
      "v": 67
    },
    {
      "midi": 39,
      "hit": false,
      "t": 127906.25,
      "d": 40.625,
      "v": 79
    },
    {
      "midi": 51,
      "hit": false,
      "t": 127912.5,
      "d": 68.75,
      "v": 81
    },
    {
      "midi": 75,
      "hit": false,
      "t": 128143.75,
      "d": 284.375,
      "v": 68
    },
    {
      "midi": 72,
      "hit": false,
      "t": 128150,
      "d": 84.375,
      "v": 64
    },
    {
      "midi": 73,
      "hit": false,
      "t": 128350,
      "d": 125,
      "v": 76
    },
    {
      "midi": 55,
      "hit": false,
      "t": 128359.375,
      "d": 121.875,
      "v": 75
    },
    {
      "midi": 43,
      "hit": false,
      "t": 128365.625,
      "d": 50,
      "v": 55
    },
    {
      "midi": 70,
      "hit": false,
      "t": 128365.625,
      "d": 81.25,
      "v": 72
    },
    {
      "midi": 79,
      "hit": false,
      "t": 128806.25,
      "d": 68.75,
      "v": 95
    },
    {
      "midi": 67,
      "hit": false,
      "t": 128812.5,
      "d": 53.125,
      "v": 82
    },
    {
      "midi": 73,
      "hit": false,
      "t": 128812.5,
      "d": 71.875,
      "v": 78
    },
    {
      "midi": 61,
      "hit": false,
      "t": 128821.875,
      "d": 37.5,
      "v": 68
    },
    {
      "midi": 58,
      "hit": false,
      "t": 128825,
      "d": 50,
      "v": 67
    },
    {
      "midi": 51,
      "hit": false,
      "t": 128825,
      "d": 65.625,
      "v": 66
    },
    {
      "midi": 73,
      "hit": false,
      "t": 129050,
      "d": 390.625,
      "v": 79
    },
    {
      "midi": 79,
      "hit": false,
      "t": 129062.5,
      "d": 368.75,
      "v": 75
    },
    {
      "midi": 67,
      "hit": false,
      "t": 129062.5,
      "d": 418.75,
      "v": 70
    },
    {
      "midi": 39,
      "hit": false,
      "t": 129278.125,
      "d": 43.75,
      "v": 73
    },
    {
      "midi": 51,
      "hit": false,
      "t": 129284.375,
      "d": 78.125,
      "v": 71
    },
    {
      "midi": 78,
      "hit": false,
      "t": 129537.5,
      "d": 87.5,
      "v": 70
    },
    {
      "midi": 51,
      "hit": false,
      "t": 129728.125,
      "d": 53.125,
      "v": 54
    },
    {
      "midi": 77,
      "hit": false,
      "t": 129728.125,
      "d": 93.75,
      "v": 79
    },
    {
      "midi": 67,
      "hit": false,
      "t": 129731.25,
      "d": 65.625,
      "v": 56
    },
    {
      "midi": 73,
      "hit": false,
      "t": 129731.25,
      "d": 68.75,
      "v": 65
    },
    {
      "midi": 46,
      "hit": false,
      "t": 130175,
      "d": 75,
      "v": 87
    },
    {
      "midi": 77,
      "hit": false,
      "t": 130587.5,
      "d": 50,
      "v": 91
    },
    {
      "midi": 75,
      "hit": false,
      "t": 130603.125,
      "d": 78.125,
      "v": 85
    },
    {
      "midi": 63,
      "hit": false,
      "t": 130606.25,
      "d": 43.75,
      "v": 67
    },
    {
      "midi": 61,
      "hit": false,
      "t": 130612.5,
      "d": 37.5,
      "v": 69
    },
    {
      "midi": 73,
      "hit": false,
      "t": 130621.875,
      "d": 134.375,
      "v": 76
    },
    {
      "midi": 55,
      "hit": false,
      "t": 130625,
      "d": 46.875,
      "v": 52
    },
    {
      "midi": 58,
      "hit": false,
      "t": 130625,
      "d": 46.875,
      "v": 58
    },
    {
      "midi": 84,
      "hit": false,
      "t": 130846.875,
      "d": 343.75,
      "v": 81
    },
    {
      "midi": 79,
      "hit": false,
      "t": 130862.5,
      "d": 356.25,
      "v": 88
    },
    {
      "midi": 73,
      "hit": false,
      "t": 130862.5,
      "d": 478.125,
      "v": 67
    },
    {
      "midi": 39,
      "hit": false,
      "t": 131046.875,
      "d": 46.875,
      "v": 74
    },
    {
      "midi": 51,
      "hit": false,
      "t": 131056.25,
      "d": 78.125,
      "v": 64
    },
    {
      "midi": 83,
      "hit": false,
      "t": 131287.5,
      "d": 100,
      "v": 61
    },
    {
      "midi": 63,
      "hit": false,
      "t": 131487.5,
      "d": 46.875,
      "v": 67
    },
    {
      "midi": 82,
      "hit": false,
      "t": 131500,
      "d": 46.875,
      "v": 67
    },
    {
      "midi": 73,
      "hit": false,
      "t": 131500,
      "d": 50,
      "v": 59
    },
    {
      "midi": 61,
      "hit": false,
      "t": 131512.5,
      "d": 43.75,
      "v": 52
    },
    {
      "midi": 79,
      "hit": false,
      "t": 131518.75,
      "d": 65.625,
      "v": 45
    },
    {
      "midi": 55,
      "hit": false,
      "t": 131537.5,
      "d": 62.5,
      "v": 32
    },
    {
      "midi": 44,
      "hit": false,
      "t": 131943.75,
      "d": 125,
      "v": 78
    },
    {
      "midi": 56,
      "hit": false,
      "t": 131946.875,
      "d": 156.25,
      "v": 76
    },
    {
      "midi": 77,
      "hit": false,
      "t": 132334.375,
      "d": 278.125,
      "v": 85
    },
    {
      "midi": 72,
      "hit": false,
      "t": 132362.5,
      "d": 128.125,
      "v": 87
    },
    {
      "midi": 75,
      "hit": false,
      "t": 132371.875,
      "d": 618.75,
      "v": 91
    },
    {
      "midi": 60,
      "hit": false,
      "t": 132378.125,
      "d": 40.625,
      "v": 84
    },
    {
      "midi": 56,
      "hit": false,
      "t": 132378.125,
      "d": 90.625,
      "v": 81
    },
    {
      "midi": 51,
      "hit": false,
      "t": 132393.75,
      "d": 75,
      "v": 67
    },
    {
      "midi": 82,
      "hit": false,
      "t": 132615.625,
      "d": 303.125,
      "v": 114
    },
    {
      "midi": 72,
      "hit": false,
      "t": 132618.75,
      "d": 387.5,
      "v": 101
    },
    {
      "midi": 51,
      "hit": false,
      "t": 132821.875,
      "d": 115.625,
      "v": 81
    },
    {
      "midi": 39,
      "hit": false,
      "t": 132828.125,
      "d": 59.375,
      "v": 76
    },
    {
      "midi": 81,
      "hit": false,
      "t": 133040.625,
      "d": 103.125,
      "v": 104
    },
    {
      "midi": 80,
      "hit": false,
      "t": 133246.875,
      "d": 37.5,
      "v": 97
    },
    {
      "midi": 72,
      "hit": false,
      "t": 133253.125,
      "d": 37.5,
      "v": 87
    },
    {
      "midi": 56,
      "hit": false,
      "t": 133253.125,
      "d": 53.125,
      "v": 69
    },
    {
      "midi": 51,
      "hit": false,
      "t": 133253.125,
      "d": 78.125,
      "v": 62
    },
    {
      "midi": 60,
      "hit": false,
      "t": 133262.5,
      "d": 46.875,
      "v": 63
    },
    {
      "midi": 56,
      "hit": false,
      "t": 133687.5,
      "d": 181.25,
      "v": 113
    },
    {
      "midi": 44,
      "hit": false,
      "t": 133693.75,
      "d": 140.625,
      "v": 106
    },
    {
      "midi": 72,
      "hit": false,
      "t": 133925,
      "d": 321.875,
      "v": 111
    },
    {
      "midi": 75,
      "hit": false,
      "t": 133925,
      "d": 331.25,
      "v": 110
    },
    {
      "midi": 60,
      "hit": false,
      "t": 134125,
      "d": 103.125,
      "v": 98
    },
    {
      "midi": 56,
      "hit": false,
      "t": 134125,
      "d": 125,
      "v": 77
    },
    {
      "midi": 51,
      "hit": false,
      "t": 134131.25,
      "d": 125,
      "v": 83
    },
    {
      "midi": 74,
      "hit": false,
      "t": 134337.5,
      "d": 165.625,
      "v": 111
    },
    {
      "midi": 71,
      "hit": false,
      "t": 134353.125,
      "d": 328.125,
      "v": 79
    },
    {
      "midi": 75,
      "hit": false,
      "t": 134540.625,
      "d": 190.625,
      "v": 92
    },
    {
      "midi": 56,
      "hit": false,
      "t": 134546.875,
      "d": 225,
      "v": 93
    },
    {
      "midi": 72,
      "hit": false,
      "t": 134556.25,
      "d": 181.25,
      "v": 99
    },
    {
      "midi": 44,
      "hit": false,
      "t": 134556.25,
      "d": 237.5,
      "v": 87
    },
    {
      "midi": 74,
      "hit": false,
      "t": 134762.5,
      "d": 128.125,
      "v": 104
    },
    {
      "midi": 75,
      "hit": false,
      "t": 134962.5,
      "d": 134.375,
      "v": 99
    },
    {
      "midi": 55,
      "hit": false,
      "t": 134965.625,
      "d": 103.125,
      "v": 92
    },
    {
      "midi": 43,
      "hit": false,
      "t": 134975,
      "d": 115.625,
      "v": 79
    },
    {
      "midi": 76,
      "hit": false,
      "t": 135184.375,
      "d": 106.25,
      "v": 107
    },
    {
      "midi": 72,
      "hit": false,
      "t": 135406.25,
      "d": 381.25,
      "v": 70
    },
    {
      "midi": 41,
      "hit": false,
      "t": 135412.5,
      "d": 59.375,
      "v": 77
    },
    {
      "midi": 77,
      "hit": false,
      "t": 135412.5,
      "d": 206.25,
      "v": 85
    },
    {
      "midi": 68,
      "hit": false,
      "t": 135425,
      "d": 312.5,
      "v": 76
    },
    {
      "midi": 53,
      "hit": false,
      "t": 135437.5,
      "d": 112.5,
      "v": 51
    },
    {
      "midi": 79,
      "hit": false,
      "t": 135828.125,
      "d": 153.125,
      "v": 83
    },
    {
      "midi": 56,
      "hit": false,
      "t": 135853.125,
      "d": 59.375,
      "v": 65
    },
    {
      "midi": 60,
      "hit": false,
      "t": 135868.75,
      "d": 43.75,
      "v": 49
    },
    {
      "midi": 77,
      "hit": false,
      "t": 136071.875,
      "d": 315.625,
      "v": 89
    },
    {
      "midi": 68,
      "hit": false,
      "t": 136075,
      "d": 381.25,
      "v": 73
    },
    {
      "midi": 72,
      "hit": false,
      "t": 136087.5,
      "d": 343.75,
      "v": 54
    },
    {
      "midi": 41,
      "hit": false,
      "t": 136287.5,
      "d": 112.5,
      "v": 82
    },
    {
      "midi": 53,
      "hit": false,
      "t": 136293.75,
      "d": 75,
      "v": 78
    },
    {
      "midi": 75,
      "hit": false,
      "t": 136509.375,
      "d": 278.125,
      "v": 77
    },
    {
      "midi": 51,
      "hit": false,
      "t": 136675,
      "d": 87.5,
      "v": 80
    },
    {
      "midi": 39,
      "hit": false,
      "t": 136690.625,
      "d": 65.625,
      "v": 66
    },
    {
      "midi": 72,
      "hit": false,
      "t": 136712.5,
      "d": 128.125,
      "v": 79
    },
    {
      "midi": 68,
      "hit": false,
      "t": 136918.75,
      "d": 231.25,
      "v": 85
    },
    {
      "midi": 70,
      "hit": false,
      "t": 137118.75,
      "d": 168.75,
      "v": 100
    },
    {
      "midi": 38,
      "hit": false,
      "t": 137131.25,
      "d": 56.25,
      "v": 55
    },
    {
      "midi": 50,
      "hit": false,
      "t": 137137.5,
      "d": 131.25,
      "v": 55
    },
    {
      "midi": 68,
      "hit": false,
      "t": 137240.625,
      "d": 253.125,
      "v": 36
    },
    {
      "midi": 79,
      "hit": false,
      "t": 137559.375,
      "d": 209.375,
      "v": 82
    },
    {
      "midi": 58,
      "hit": false,
      "t": 137568.75,
      "d": 50,
      "v": 65
    },
    {
      "midi": 62,
      "hit": false,
      "t": 137568.75,
      "d": 50,
      "v": 54
    },
    {
      "midi": 56,
      "hit": false,
      "t": 137575,
      "d": 53.125,
      "v": 61
    },
    {
      "midi": 77,
      "hit": false,
      "t": 137809.375,
      "d": 312.5,
      "v": 76
    },
    {
      "midi": 68,
      "hit": false,
      "t": 137809.375,
      "d": 478.125,
      "v": 55
    },
    {
      "midi": 74,
      "hit": false,
      "t": 137818.75,
      "d": 350,
      "v": 49
    },
    {
      "midi": 34,
      "hit": false,
      "t": 138006.25,
      "d": 40.625,
      "v": 78
    },
    {
      "midi": 79,
      "hit": false,
      "t": 138243.75,
      "d": 62.5,
      "v": 65
    },
    {
      "midi": 56,
      "hit": false,
      "t": 138446.875,
      "d": 59.375,
      "v": 60
    },
    {
      "midi": 58,
      "hit": false,
      "t": 138450,
      "d": 56.25,
      "v": 55
    },
    {
      "midi": 62,
      "hit": false,
      "t": 138456.25,
      "d": 68.75,
      "v": 39
    },
    {
      "midi": 68,
      "hit": false,
      "t": 138459.375,
      "d": 162.5,
      "v": 54
    },
    {
      "midi": 77,
      "hit": false,
      "t": 138475,
      "d": 106.25,
      "v": 57
    },
    {
      "midi": 74,
      "hit": false,
      "t": 138500,
      "d": 71.875,
      "v": 37
    },
    {
      "midi": 75,
      "hit": false,
      "t": 138900,
      "d": 328.125,
      "v": 100
    },
    {
      "midi": 67,
      "hit": false,
      "t": 138906.25,
      "d": 234.375,
      "v": 90
    },
    {
      "midi": 39,
      "hit": false,
      "t": 138912.5,
      "d": 109.375,
      "v": 71
    },
    {
      "midi": 51,
      "hit": false,
      "t": 138912.5,
      "d": 146.875,
      "v": 62
    },
    {
      "midi": 75,
      "hit": false,
      "t": 139315.625,
      "d": 306.25,
      "v": 86
    },
    {
      "midi": 73,
      "hit": false,
      "t": 139331.25,
      "d": 306.25,
      "v": 96
    },
    {
      "midi": 68,
      "hit": false,
      "t": 139334.375,
      "d": 171.875,
      "v": 103
    },
    {
      "midi": 65,
      "hit": false,
      "t": 139334.375,
      "d": 181.25,
      "v": 103
    },
    {
      "midi": 53,
      "hit": false,
      "t": 139346.875,
      "d": 168.75,
      "v": 82
    },
    {
      "midi": 77,
      "hit": false,
      "t": 139550,
      "d": 100,
      "v": 107
    },
    {
      "midi": 72,
      "hit": false,
      "t": 139762.5,
      "d": 293.75,
      "v": 91
    },
    {
      "midi": 67,
      "hit": false,
      "t": 139762.5,
      "d": 309.375,
      "v": 96
    },
    {
      "midi": 68,
      "hit": false,
      "t": 139765.625,
      "d": 321.875,
      "v": 90
    },
    {
      "midi": 63,
      "hit": false,
      "t": 139771.875,
      "d": 109.375,
      "v": 78
    },
    {
      "midi": 51,
      "hit": false,
      "t": 139796.875,
      "d": 168.75,
      "v": 59
    },
    {
      "midi": 65,
      "hit": false,
      "t": 140028.125,
      "d": 46.875,
      "v": 87
    },
    {
      "midi": 51,
      "hit": false,
      "t": 140087.5,
      "d": 75,
      "v": 28
    },
    {
      "midi": 73,
      "hit": false,
      "t": 140315.625,
      "d": 381.25,
      "v": 84
    },
    {
      "midi": 63,
      "hit": false,
      "t": 140315.625,
      "d": 396.875,
      "v": 86
    },
    {
      "midi": 51,
      "hit": false,
      "t": 140350,
      "d": 234.375,
      "v": 52
    },
    {
      "midi": 39,
      "hit": false,
      "t": 140375,
      "d": 200,
      "v": 38
    },
    {
      "midi": 70,
      "hit": false,
      "t": 140612.5,
      "d": 168.75,
      "v": 84
    },
    {
      "midi": 72,
      "hit": false,
      "t": 140940.625,
      "d": 200,
      "v": 61
    },
    {
      "midi": 68,
      "hit": false,
      "t": 140956.25,
      "d": 184.375,
      "v": 60
    },
    {
      "midi": 56,
      "hit": false,
      "t": 140956.25,
      "d": 200,
      "v": 35
    },
    {
      "midi": 44,
      "hit": false,
      "t": 140962.5,
      "d": 168.75,
      "v": 39
    },
    {
      "midi": 63,
      "hit": false,
      "t": 140971.875,
      "d": 153.125,
      "v": 38
    },
    {
      "midi": 77,
      "hit": false,
      "t": 141440.625,
      "d": 162.5,
      "v": 88
    },
    {
      "midi": 51,
      "hit": false,
      "t": 141462.5,
      "d": 56.25,
      "v": 64
    },
    {
      "midi": 56,
      "hit": false,
      "t": 141475,
      "d": 75,
      "v": 56
    },
    {
      "midi": 75,
      "hit": false,
      "t": 141481.25,
      "d": 206.25,
      "v": 62
    },
    {
      "midi": 72,
      "hit": false,
      "t": 141490.625,
      "d": 156.25,
      "v": 55
    },
    {
      "midi": 74,
      "hit": false,
      "t": 141706.25,
      "d": 140.625,
      "v": 64
    },
    {
      "midi": 71,
      "hit": false,
      "t": 141712.5,
      "d": 318.75,
      "v": 44
    },
    {
      "midi": 75,
      "hit": false,
      "t": 141921.875,
      "d": 165.625,
      "v": 76
    },
    {
      "midi": 72,
      "hit": false,
      "t": 141946.875,
      "d": 115.625,
      "v": 67
    },
    {
      "midi": 77,
      "hit": false,
      "t": 142159.375,
      "d": 393.75,
      "v": 78
    },
    {
      "midi": 73,
      "hit": false,
      "t": 142168.75,
      "d": 331.25,
      "v": 69
    },
    {
      "midi": 39,
      "hit": false,
      "t": 142340.625,
      "d": 37.5,
      "v": 79
    },
    {
      "midi": 51,
      "hit": false,
      "t": 142343.75,
      "d": 53.125,
      "v": 80
    },
    {
      "midi": 75,
      "hit": false,
      "t": 142562.5,
      "d": 303.125,
      "v": 66
    },
    {
      "midi": 72,
      "hit": false,
      "t": 142575,
      "d": 103.125,
      "v": 57
    },
    {
      "midi": 73,
      "hit": false,
      "t": 142784.375,
      "d": 134.375,
      "v": 73
    },
    {
      "midi": 43,
      "hit": false,
      "t": 142790.625,
      "d": 53.125,
      "v": 63
    },
    {
      "midi": 55,
      "hit": false,
      "t": 142790.625,
      "d": 115.625,
      "v": 70
    },
    {
      "midi": 70,
      "hit": false,
      "t": 142800,
      "d": 134.375,
      "v": 68
    },
    {
      "midi": 61,
      "hit": false,
      "t": 143225,
      "d": 40.625,
      "v": 70
    },
    {
      "midi": 79,
      "hit": false,
      "t": 143225,
      "d": 106.25,
      "v": 79
    },
    {
      "midi": 51,
      "hit": false,
      "t": 143234.375,
      "d": 75,
      "v": 64
    },
    {
      "midi": 73,
      "hit": false,
      "t": 143234.375,
      "d": 96.875,
      "v": 61
    },
    {
      "midi": 67,
      "hit": false,
      "t": 143240.625,
      "d": 65.625,
      "v": 53
    },
    {
      "midi": 58,
      "hit": false,
      "t": 143250,
      "d": 43.75,
      "v": 70
    },
    {
      "midi": 79,
      "hit": false,
      "t": 143487.5,
      "d": 353.125,
      "v": 73
    },
    {
      "midi": 73,
      "hit": false,
      "t": 143487.5,
      "d": 371.875,
      "v": 65
    },
    {
      "midi": 67,
      "hit": false,
      "t": 143500,
      "d": 478.125,
      "v": 38
    },
    {
      "midi": 39,
      "hit": false,
      "t": 143690.625,
      "d": 43.75,
      "v": 71
    },
    {
      "midi": 78,
      "hit": false,
      "t": 143962.5,
      "d": 50,
      "v": 52
    },
    {
      "midi": 55,
      "hit": false,
      "t": 144150,
      "d": 59.375,
      "v": 53
    },
    {
      "midi": 77,
      "hit": false,
      "t": 144150,
      "d": 125,
      "v": 76
    },
    {
      "midi": 61,
      "hit": false,
      "t": 144156.25,
      "d": 50,
      "v": 59
    },
    {
      "midi": 58,
      "hit": false,
      "t": 144162.5,
      "d": 59.375,
      "v": 52
    },
    {
      "midi": 73,
      "hit": false,
      "t": 144175,
      "d": 53.125,
      "v": 52
    },
    {
      "midi": 67,
      "hit": false,
      "t": 144175,
      "d": 71.875,
      "v": 37
    },
    {
      "midi": 46,
      "hit": false,
      "t": 144618.75,
      "d": 93.75,
      "v": 91
    },
    {
      "midi": 58,
      "hit": false,
      "t": 144625,
      "d": 106.25,
      "v": 83
    },
    {
      "midi": 77,
      "hit": false,
      "t": 145043.75,
      "d": 40.625,
      "v": 83
    },
    {
      "midi": 63,
      "hit": false,
      "t": 145053.125,
      "d": 40.625,
      "v": 71
    },
    {
      "midi": 75,
      "hit": false,
      "t": 145056.25,
      "d": 71.875,
      "v": 91
    },
    {
      "midi": 73,
      "hit": false,
      "t": 145056.25,
      "d": 112.5,
      "v": 92
    },
    {
      "midi": 61,
      "hit": false,
      "t": 145059.375,
      "d": 37.5,
      "v": 72
    },
    {
      "midi": 55,
      "hit": false,
      "t": 145059.375,
      "d": 46.875,
      "v": 67
    },
    {
      "midi": 58,
      "hit": false,
      "t": 145062.5,
      "d": 50,
      "v": 70
    },
    {
      "midi": 84,
      "hit": false,
      "t": 145268.75,
      "d": 346.875,
      "v": 81
    },
    {
      "midi": 79,
      "hit": false,
      "t": 145287.5,
      "d": 365.625,
      "v": 96
    },
    {
      "midi": 73,
      "hit": false,
      "t": 145300,
      "d": 468.75,
      "v": 79
    },
    {
      "midi": 51,
      "hit": false,
      "t": 145481.25,
      "d": 112.5,
      "v": 95
    },
    {
      "midi": 39,
      "hit": false,
      "t": 145481.25,
      "d": 118.75,
      "v": 95
    },
    {
      "midi": 83,
      "hit": false,
      "t": 145706.25,
      "d": 153.125,
      "v": 70
    },
    {
      "midi": 63,
      "hit": false,
      "t": 145906.25,
      "d": 37.5,
      "v": 82
    },
    {
      "midi": 73,
      "hit": false,
      "t": 145915.625,
      "d": 40.625,
      "v": 81
    },
    {
      "midi": 82,
      "hit": false,
      "t": 145918.75,
      "d": 37.5,
      "v": 88
    },
    {
      "midi": 58,
      "hit": false,
      "t": 145918.75,
      "d": 46.875,
      "v": 73
    },
    {
      "midi": 55,
      "hit": false,
      "t": 145921.875,
      "d": 43.75,
      "v": 74
    },
    {
      "midi": 61,
      "hit": false,
      "t": 145925,
      "d": 37.5,
      "v": 70
    },
    {
      "midi": 79,
      "hit": false,
      "t": 145928.125,
      "d": 37.5,
      "v": 78
    },
    {
      "midi": 44,
      "hit": false,
      "t": 146346.875,
      "d": 115.625,
      "v": 100
    },
    {
      "midi": 56,
      "hit": false,
      "t": 146346.875,
      "d": 162.5,
      "v": 107
    },
    {
      "midi": 56,
      "hit": false,
      "t": 146606.25,
      "d": 53.125,
      "v": 21
    },
    {
      "midi": 77,
      "hit": false,
      "t": 146721.875,
      "d": 265.625,
      "v": 99
    },
    {
      "midi": 56,
      "hit": false,
      "t": 146762.5,
      "d": 96.875,
      "v": 80
    },
    {
      "midi": 72,
      "hit": false,
      "t": 146765.625,
      "d": 137.5,
      "v": 84
    },
    {
      "midi": 60,
      "hit": false,
      "t": 146768.75,
      "d": 37.5,
      "v": 94
    },
    {
      "midi": 51,
      "hit": false,
      "t": 146781.25,
      "d": 106.25,
      "v": 76
    },
    {
      "midi": 75,
      "hit": false,
      "t": 146790.625,
      "d": 546.875,
      "v": 88
    },
    {
      "midi": 82,
      "hit": false,
      "t": 147003.125,
      "d": 284.375,
      "v": 115
    },
    {
      "midi": 72,
      "hit": false,
      "t": 147006.25,
      "d": 346.875,
      "v": 91
    },
    {
      "midi": 51,
      "hit": false,
      "t": 147190.625,
      "d": 103.125,
      "v": 95
    },
    {
      "midi": 39,
      "hit": false,
      "t": 147193.75,
      "d": 50,
      "v": 84
    },
    {
      "midi": 81,
      "hit": false,
      "t": 147396.875,
      "d": 128.125,
      "v": 106
    },
    {
      "midi": 60,
      "hit": false,
      "t": 147596.875,
      "d": 37.5,
      "v": 91
    },
    {
      "midi": 56,
      "hit": false,
      "t": 147600,
      "d": 50,
      "v": 77
    },
    {
      "midi": 51,
      "hit": false,
      "t": 147600,
      "d": 100,
      "v": 79
    },
    {
      "midi": 80,
      "hit": false,
      "t": 147600,
      "d": 100,
      "v": 98
    },
    {
      "midi": 72,
      "hit": false,
      "t": 147603.125,
      "d": 103.125,
      "v": 89
    },
    {
      "midi": 79,
      "hit": false,
      "t": 147806.25,
      "d": 96.875,
      "v": 110
    },
    {
      "midi": 77,
      "hit": false,
      "t": 148012.5,
      "d": 271.875,
      "v": 110
    },
    {
      "midi": 37,
      "hit": false,
      "t": 148021.875,
      "d": 96.875,
      "v": 97
    },
    {
      "midi": 49,
      "hit": false,
      "t": 148021.875,
      "d": 115.625,
      "v": 98
    },
    {
      "midi": 73,
      "hit": false,
      "t": 148021.875,
      "d": 290.625,
      "v": 100
    },
    {
      "midi": 61,
      "hit": false,
      "t": 148450,
      "d": 59.375,
      "v": 83
    },
    {
      "midi": 77,
      "hit": false,
      "t": 148450,
      "d": 87.5,
      "v": 116
    },
    {
      "midi": 58,
      "hit": false,
      "t": 148459.375,
      "d": 50,
      "v": 86
    },
    {
      "midi": 65,
      "hit": false,
      "t": 148459.375,
      "d": 75,
      "v": 103
    },
    {
      "midi": 53,
      "hit": false,
      "t": 148465.625,
      "d": 43.75,
      "v": 60
    },
    {
      "midi": 70,
      "hit": false,
      "t": 148671.875,
      "d": 309.375,
      "v": 104
    },
    {
      "midi": 73,
      "hit": false,
      "t": 148671.875,
      "d": 312.5,
      "v": 100
    },
    {
      "midi": 65,
      "hit": false,
      "t": 148675,
      "d": 243.75,
      "v": 94
    },
    {
      "midi": 58,
      "hit": false,
      "t": 148875,
      "d": 168.75,
      "v": 119
    },
    {
      "midi": 46,
      "hit": false,
      "t": 148875,
      "d": 190.625,
      "v": 113
    },
    {
      "midi": 79,
      "hit": false,
      "t": 149100,
      "d": 256.25,
      "v": 114
    },
    {
      "midi": 67,
      "hit": false,
      "t": 149103.125,
      "d": 296.875,
      "v": 106
    },
    {
      "midi": 59,
      "hit": false,
      "t": 149278.125,
      "d": 203.125,
      "v": 105
    },
    {
      "midi": 47,
      "hit": false,
      "t": 149293.75,
      "d": 112.5,
      "v": 78
    },
    {
      "midi": 49,
      "hit": false,
      "t": 149312.5,
      "d": 56.25,
      "v": 50
    },
    {
      "midi": 65,
      "hit": false,
      "t": 149512.5,
      "d": 87.5,
      "v": 107
    },
    {
      "midi": 77,
      "hit": false,
      "t": 149515.625,
      "d": 28.125,
      "v": 111
    },
    {
      "midi": 48,
      "hit": false,
      "t": 149712.5,
      "d": 109.375,
      "v": 92
    },
    {
      "midi": 63,
      "hit": false,
      "t": 149715.625,
      "d": 146.875,
      "v": 99
    },
    {
      "midi": 60,
      "hit": false,
      "t": 149715.625,
      "d": 165.625,
      "v": 101
    },
    {
      "midi": 75,
      "hit": false,
      "t": 149715.625,
      "d": 184.375,
      "v": 106
    },
    {
      "midi": 68,
      "hit": false,
      "t": 149731.25,
      "d": 121.875,
      "v": 90
    },
    {
      "midi": 72,
      "hit": false,
      "t": 150134.375,
      "d": 181.25,
      "v": 89
    },
    {
      "midi": 68,
      "hit": false,
      "t": 150134.375,
      "d": 196.875,
      "v": 78
    },
    {
      "midi": 63,
      "hit": false,
      "t": 150146.875,
      "d": 106.25,
      "v": 90
    },
    {
      "midi": 51,
      "hit": false,
      "t": 150146.875,
      "d": 115.625,
      "v": 83
    },
    {
      "midi": 79,
      "hit": false,
      "t": 150350,
      "d": 143.75,
      "v": 96
    },
    {
      "midi": 65,
      "hit": false,
      "t": 150553.125,
      "d": 234.375,
      "v": 94
    },
    {
      "midi": 53,
      "hit": false,
      "t": 150559.375,
      "d": 250,
      "v": 75
    },
    {
      "midi": 68,
      "hit": false,
      "t": 150562.5,
      "d": 446.875,
      "v": 82
    },
    {
      "midi": 77,
      "hit": false,
      "t": 150568.75,
      "d": 418.75,
      "v": 93
    },
    {
      "midi": 72,
      "hit": false,
      "t": 150568.75,
      "d": 440.625,
      "v": 82
    },
    {
      "midi": 64,
      "hit": false,
      "t": 150978.125,
      "d": 109.375,
      "v": 100
    },
    {
      "midi": 52,
      "hit": false,
      "t": 150993.75,
      "d": 43.75,
      "v": 65
    },
    {
      "midi": 80,
      "hit": false,
      "t": 151187.5,
      "d": 493.75,
      "v": 97
    },
    {
      "midi": 72,
      "hit": false,
      "t": 151193.75,
      "d": 462.5,
      "v": 87
    },
    {
      "midi": 68,
      "hit": false,
      "t": 151193.75,
      "d": 887.5,
      "v": 81
    },
    {
      "midi": 63,
      "hit": false,
      "t": 151390.625,
      "d": 140.625,
      "v": 101
    },
    {
      "midi": 51,
      "hit": false,
      "t": 151393.75,
      "d": 118.75,
      "v": 92
    },
    {
      "midi": 77,
      "hit": false,
      "t": 151603.125,
      "d": 375,
      "v": 94
    },
    {
      "midi": 63,
      "hit": false,
      "t": 151793.75,
      "d": 40.625,
      "v": 77
    },
    {
      "midi": 56,
      "hit": false,
      "t": 151793.75,
      "d": 68.75,
      "v": 77
    },
    {
      "midi": 60,
      "hit": false,
      "t": 151803.125,
      "d": 43.75,
      "v": 62
    },
    {
      "midi": 75,
      "hit": false,
      "t": 151843.75,
      "d": 215.625,
      "v": 52
    },
    {
      "midi": 72,
      "hit": false,
      "t": 152006.25,
      "d": 37.5,
      "v": 82
    },
    {
      "midi": 61,
      "hit": false,
      "t": 152203.125,
      "d": 606.25,
      "v": 92
    },
    {
      "midi": 53,
      "hit": false,
      "t": 152212.5,
      "d": 125,
      "v": 89
    },
    {
      "midi": 68,
      "hit": false,
      "t": 152212.5,
      "d": 259.375,
      "v": 78
    },
    {
      "midi": 41,
      "hit": false,
      "t": 152231.25,
      "d": 156.25,
      "v": 60
    },
    {
      "midi": 67,
      "hit": false,
      "t": 152462.5,
      "d": 306.25,
      "v": 63
    },
    {
      "midi": 70,
      "hit": false,
      "t": 152465.625,
      "d": 440.625,
      "v": 76
    },
    {
      "midi": 39,
      "hit": false,
      "t": 152653.125,
      "d": 62.5,
      "v": 66
    },
    {
      "midi": 51,
      "hit": false,
      "t": 152659.375,
      "d": 109.375,
      "v": 63
    },
    {
      "midi": 60,
      "hit": false,
      "t": 152875,
      "d": 459.375,
      "v": 64
    },
    {
      "midi": 68,
      "hit": false,
      "t": 152884.375,
      "d": 584.375,
      "v": 71
    },
    {
      "midi": 56,
      "hit": false,
      "t": 153093.75,
      "d": 40.625,
      "v": 60
    },
    {
      "midi": 44,
      "hit": false,
      "t": 153103.125,
      "d": 93.75,
      "v": 58
    },
    {
      "midi": 51,
      "hit": false,
      "t": 153540.625,
      "d": 56.25,
      "v": 41
    },
    {
      "midi": 39,
      "hit": false,
      "t": 153546.875,
      "d": 59.375,
      "v": 53
    },
    {
      "midi": 80,
      "hit": false,
      "t": 154037.5,
      "d": 431.25,
      "v": 61
    },
    {
      "midi": 32,
      "hit": false,
      "t": 154046.875,
      "d": 375,
      "v": 53
    },
    {
      "midi": 44,
      "hit": false,
      "t": 154046.875,
      "d": 428.125,
      "v": 41
    },
    {
      "midi": 72,
      "hit": false,
      "t": 154046.875,
      "d": 465.625,
      "v": 52
    },
    {
      "midi": 68,
      "hit": false,
      "t": 154056.25,
      "d": 437.5,
      "v": 42
    },
    {
      "midi": 75,
      "hit": false,
      "t": 154068.75,
      "d": 443.75,
      "v": 59
    },
    {
      "midi": 61,
      "hit": false,
      "t": 155096.875,
      "d": 325,
      "v": 54
    },
    {
      "midi": 77,
      "hit": false,
      "t": 155106.25,
      "d": 862.5,
      "v": 73
    },
    {
      "midi": 73,
      "hit": false,
      "t": 155109.375,
      "d": 981.25,
      "v": 53
    },
    {
      "midi": 49,
      "hit": false,
      "t": 155118.75,
      "d": 1015.625,
      "v": 51
    },
    {
      "midi": 65,
      "hit": false,
      "t": 155121.875,
      "d": 900,
      "v": 42
    },
    {
      "midi": 55,
      "hit": false,
      "t": 155356.25,
      "d": 284.375,
      "v": 62
    },
    {
      "midi": 56,
      "hit": false,
      "t": 155593.75,
      "d": 218.75,
      "v": 74
    },
    {
      "midi": 58,
      "hit": false,
      "t": 155806.25,
      "d": 231.25,
      "v": 87
    },
    {
      "midi": 56,
      "hit": false,
      "t": 156031.25,
      "d": 90.625,
      "v": 76
    },
    {
      "midi": 80,
      "hit": false,
      "t": 156228.125,
      "d": 190.625,
      "v": 87
    },
    {
      "midi": 72,
      "hit": false,
      "t": 156431.25,
      "d": 150,
      "v": 76
    },
    {
      "midi": 56,
      "hit": false,
      "t": 156434.375,
      "d": 46.875,
      "v": 84
    },
    {
      "midi": 66,
      "hit": false,
      "t": 156434.375,
      "d": 137.5,
      "v": 81
    },
    {
      "midi": 75,
      "hit": false,
      "t": 156437.5,
      "d": 146.875,
      "v": 82
    },
    {
      "midi": 44,
      "hit": false,
      "t": 156440.625,
      "d": 115.625,
      "v": 79
    },
    {
      "midi": 77,
      "hit": false,
      "t": 156653.125,
      "d": 34.375,
      "v": 103
    },
    {
      "midi": 37,
      "hit": false,
      "t": 156793.75,
      "d": 284.375,
      "v": 99
    },
    {
      "midi": 68,
      "hit": false,
      "t": 156993.75,
      "d": 700,
      "v": 110
    },
    {
      "midi": 65,
      "hit": false,
      "t": 157000,
      "d": 703.125,
      "v": 100
    },
    {
      "midi": 49,
      "hit": false,
      "t": 157018.75,
      "d": 100,
      "v": 78
    },
    {
      "midi": 55,
      "hit": false,
      "t": 157284.375,
      "d": 203.125,
      "v": 84
    },
    {
      "midi": 56,
      "hit": false,
      "t": 157475,
      "d": 237.5,
      "v": 90
    },
    {
      "midi": 58,
      "hit": false,
      "t": 157721.875,
      "d": 171.875,
      "v": 104
    },
    {
      "midi": 56,
      "hit": false,
      "t": 157906.25,
      "d": 40.625,
      "v": 90
    },
    {
      "midi": 68,
      "hit": false,
      "t": 158109.375,
      "d": 168.75,
      "v": 88
    },
    {
      "midi": 63,
      "hit": false,
      "t": 158315.625,
      "d": 137.5,
      "v": 79
    },
    {
      "midi": 44,
      "hit": false,
      "t": 158318.75,
      "d": 50,
      "v": 70
    },
    {
      "midi": 54,
      "hit": false,
      "t": 158321.875,
      "d": 118.75,
      "v": 72
    },
    {
      "midi": 60,
      "hit": false,
      "t": 158325,
      "d": 131.25,
      "v": 83
    },
    {
      "midi": 65,
      "hit": false,
      "t": 158531.25,
      "d": 112.5,
      "v": 101
    },
    {
      "midi": 37,
      "hit": false,
      "t": 158731.25,
      "d": 53.125,
      "v": 75
    },
    {
      "midi": 61,
      "hit": false,
      "t": 158731.25,
      "d": 140.625,
      "v": 101
    },
    {
      "midi": 53,
      "hit": false,
      "t": 158737.5,
      "d": 56.25,
      "v": 87
    },
    {
      "midi": 49,
      "hit": false,
      "t": 158743.75,
      "d": 71.875,
      "v": 64
    },
    {
      "midi": 65,
      "hit": false,
      "t": 158943.75,
      "d": 31.25,
      "v": 103
    },
    {
      "midi": 41,
      "hit": false,
      "t": 159125,
      "d": 40.625,
      "v": 81
    },
    {
      "midi": 53,
      "hit": false,
      "t": 159128.125,
      "d": 78.125,
      "v": 75
    },
    {
      "midi": 68,
      "hit": false,
      "t": 159134.375,
      "d": 40.625,
      "v": 105
    },
    {
      "midi": 61,
      "hit": false,
      "t": 159143.75,
      "d": 43.75,
      "v": 88
    },
    {
      "midi": 56,
      "hit": false,
      "t": 159150,
      "d": 37.5,
      "v": 76
    },
    {
      "midi": 70,
      "hit": false,
      "t": 159371.875,
      "d": 418.75,
      "v": 120
    },
    {
      "midi": 63,
      "hit": false,
      "t": 159375,
      "d": 325,
      "v": 107
    },
    {
      "midi": 42,
      "hit": false,
      "t": 159378.125,
      "d": 384.375,
      "v": 88
    },
    {
      "midi": 54,
      "hit": false,
      "t": 159381.25,
      "d": 450,
      "v": 99
    },
    {
      "midi": 60,
      "hit": false,
      "t": 159387.5,
      "d": 40.625,
      "v": 92
    },
    {
      "midi": 60,
      "hit": false,
      "t": 159484.375,
      "d": 353.125,
      "v": 36
    },
    {
      "midi": 68,
      "hit": false,
      "t": 159759.375,
      "d": 153.125,
      "v": 99
    },
    {
      "midi": 70,
      "hit": false,
      "t": 159950,
      "d": 153.125,
      "v": 112
    },
    {
      "midi": 42,
      "hit": false,
      "t": 159956.25,
      "d": 143.75,
      "v": 74
    },
    {
      "midi": 63,
      "hit": false,
      "t": 159962.5,
      "d": 131.25,
      "v": 88
    },
    {
      "midi": 60,
      "hit": false,
      "t": 159965.625,
      "d": 56.25,
      "v": 71
    },
    {
      "midi": 54,
      "hit": false,
      "t": 159965.625,
      "d": 131.25,
      "v": 68
    },
    {
      "midi": 68,
      "hit": false,
      "t": 160168.75,
      "d": 56.25,
      "v": 90
    },
    {
      "midi": 41,
      "hit": false,
      "t": 160362.5,
      "d": 40.625,
      "v": 81
    },
    {
      "midi": 73,
      "hit": false,
      "t": 160362.5,
      "d": 931.25,
      "v": 93
    },
    {
      "midi": 61,
      "hit": false,
      "t": 160362.5,
      "d": 934.375,
      "v": 83
    },
    {
      "midi": 65,
      "hit": false,
      "t": 160362.5,
      "d": 953.125,
      "v": 85
    },
    {
      "midi": 53,
      "hit": false,
      "t": 160375,
      "d": 100,
      "v": 82
    },
    {
      "midi": 68,
      "hit": false,
      "t": 160381.25,
      "d": 950,
      "v": 84
    },
    {
      "midi": 55,
      "hit": false,
      "t": 160581.25,
      "d": 93.75,
      "v": 100
    },
    {
      "midi": 56,
      "hit": false,
      "t": 160800,
      "d": 168.75,
      "v": 87
    },
    {
      "midi": 58,
      "hit": false,
      "t": 160987.5,
      "d": 262.5,
      "v": 105
    },
    {
      "midi": 56,
      "hit": false,
      "t": 161200,
      "d": 93.75,
      "v": 97
    },
    {
      "midi": 73,
      "hit": false,
      "t": 161428.125,
      "d": 103.125,
      "v": 102
    },
    {
      "midi": 61,
      "hit": false,
      "t": 161434.375,
      "d": 125,
      "v": 90
    },
    {
      "midi": 41,
      "hit": false,
      "t": 161634.375,
      "d": 62.5,
      "v": 83
    },
    {
      "midi": 53,
      "hit": false,
      "t": 161634.375,
      "d": 75,
      "v": 81
    },
    {
      "midi": 74,
      "hit": false,
      "t": 161637.5,
      "d": 162.5,
      "v": 92
    },
    {
      "midi": 62,
      "hit": false,
      "t": 161643.75,
      "d": 171.875,
      "v": 82
    },
    {
      "midi": 68,
      "hit": false,
      "t": 161650,
      "d": 165.625,
      "v": 78
    },
    {
      "midi": 70,
      "hit": false,
      "t": 161650,
      "d": 165.625,
      "v": 79
    },
    {
      "midi": 52,
      "hit": false,
      "t": 161853.125,
      "d": 50,
      "v": 101
    },
    {
      "midi": 40,
      "hit": false,
      "t": 161862.5,
      "d": 28.125,
      "v": 84
    },
    {
      "midi": 46,
      "hit": false,
      "t": 161900,
      "d": 62.5,
      "v": 43
    },
    {
      "midi": 67,
      "hit": false,
      "t": 162090.625,
      "d": 396.875,
      "v": 86
    },
    {
      "midi": 75,
      "hit": false,
      "t": 162090.625,
      "d": 421.875,
      "v": 88
    },
    {
      "midi": 63,
      "hit": false,
      "t": 162093.75,
      "d": 125,
      "v": 88
    },
    {
      "midi": 51,
      "hit": false,
      "t": 162100,
      "d": 93.75,
      "v": 101
    },
    {
      "midi": 39,
      "hit": false,
      "t": 162106.25,
      "d": 37.5,
      "v": 95
    },
    {
      "midi": 70,
      "hit": false,
      "t": 162106.25,
      "d": 450,
      "v": 87
    },
    {
      "midi": 73,
      "hit": false,
      "t": 162112.5,
      "d": 434.375,
      "v": 81
    },
    {
      "midi": 63,
      "hit": false,
      "t": 162478.125,
      "d": 90.625,
      "v": 110
    },
    {
      "midi": 51,
      "hit": false,
      "t": 162496.875,
      "d": 40.625,
      "v": 94
    },
    {
      "midi": 75,
      "hit": false,
      "t": 162678.125,
      "d": 218.75,
      "v": 97
    },
    {
      "midi": 67,
      "hit": false,
      "t": 162681.25,
      "d": 178.125,
      "v": 99
    },
    {
      "midi": 63,
      "hit": false,
      "t": 162687.5,
      "d": 153.125,
      "v": 91
    },
    {
      "midi": 73,
      "hit": false,
      "t": 162700,
      "d": 196.875,
      "v": 86
    },
    {
      "midi": 70,
      "hit": false,
      "t": 162706.25,
      "d": 162.5,
      "v": 87
    },
    {
      "midi": 61,
      "hit": false,
      "t": 162884.375,
      "d": 128.125,
      "v": 113
    },
    {
      "midi": 49,
      "hit": false,
      "t": 162893.75,
      "d": 43.75,
      "v": 95
    },
    {
      "midi": 60,
      "hit": false,
      "t": 163096.875,
      "d": 93.75,
      "v": 97
    },
    {
      "midi": 75,
      "hit": false,
      "t": 163096.875,
      "d": 278.125,
      "v": 86
    },
    {
      "midi": 48,
      "hit": false,
      "t": 163100,
      "d": 100,
      "v": 85
    },
    {
      "midi": 63,
      "hit": false,
      "t": 163100,
      "d": 303.125,
      "v": 91
    },
    {
      "midi": 72,
      "hit": false,
      "t": 163103.125,
      "d": 312.5,
      "v": 87
    },
    {
      "midi": 68,
      "hit": false,
      "t": 163109.375,
      "d": 315.625,
      "v": 92
    },
    {
      "midi": 58,
      "hit": false,
      "t": 163306.25,
      "d": 93.75,
      "v": 115
    },
    {
      "midi": 46,
      "hit": false,
      "t": 163325,
      "d": 75,
      "v": 96
    },
    {
      "midi": 63,
      "hit": false,
      "t": 163500,
      "d": 159.375,
      "v": 96
    },
    {
      "midi": 68,
      "hit": false,
      "t": 163500,
      "d": 206.25,
      "v": 93
    },
    {
      "midi": 75,
      "hit": false,
      "t": 163503.125,
      "d": 196.875,
      "v": 97
    },
    {
      "midi": 72,
      "hit": false,
      "t": 163506.25,
      "d": 159.375,
      "v": 71
    },
    {
      "midi": 56,
      "hit": false,
      "t": 163521.875,
      "d": 100,
      "v": 100
    },
    {
      "midi": 44,
      "hit": false,
      "t": 163531.25,
      "d": 106.25,
      "v": 98
    },
    {
      "midi": 55,
      "hit": false,
      "t": 163718.75,
      "d": 84.375,
      "v": 111
    },
    {
      "midi": 43,
      "hit": false,
      "t": 163721.875,
      "d": 84.375,
      "v": 100
    },
    {
      "midi": 69,
      "hit": false,
      "t": 163931.25,
      "d": 206.25,
      "v": 89
    },
    {
      "midi": 72,
      "hit": false,
      "t": 163931.25,
      "d": 246.875,
      "v": 83
    },
    {
      "midi": 41,
      "hit": false,
      "t": 163937.5,
      "d": 28.125,
      "v": 111
    },
    {
      "midi": 53,
      "hit": false,
      "t": 163937.5,
      "d": 81.25,
      "v": 111
    },
    {
      "midi": 65,
      "hit": false,
      "t": 163937.5,
      "d": 118.75,
      "v": 92
    },
    {
      "midi": 77,
      "hit": false,
      "t": 163937.5,
      "d": 218.75,
      "v": 100
    },
    {
      "midi": 65,
      "hit": false,
      "t": 164143.75,
      "d": 87.5,
      "v": 106
    },
    {
      "midi": 53,
      "hit": false,
      "t": 164146.875,
      "d": 31.25,
      "v": 103
    },
    {
      "midi": 69,
      "hit": false,
      "t": 164359.375,
      "d": 209.375,
      "v": 100
    },
    {
      "midi": 72,
      "hit": false,
      "t": 164359.375,
      "d": 225,
      "v": 84
    },
    {
      "midi": 65,
      "hit": false,
      "t": 164368.75,
      "d": 137.5,
      "v": 103
    },
    {
      "midi": 77,
      "hit": false,
      "t": 164368.75,
      "d": 243.75,
      "v": 105
    },
    {
      "midi": 75,
      "hit": false,
      "t": 164375,
      "d": 265.625,
      "v": 86
    },
    {
      "midi": 63,
      "hit": false,
      "t": 164553.125,
      "d": 71.875,
      "v": 117
    },
    {
      "midi": 51,
      "hit": false,
      "t": 164559.375,
      "d": 34.375,
      "v": 110
    },
    {
      "midi": 61,
      "hit": false,
      "t": 164590.625,
      "d": 62.5,
      "v": 41
    },
    {
      "midi": 77,
      "hit": false,
      "t": 164750,
      "d": 265.625,
      "v": 115
    },
    {
      "midi": 65,
      "hit": false,
      "t": 164750,
      "d": 271.875,
      "v": 110
    },
    {
      "midi": 73,
      "hit": false,
      "t": 164756.25,
      "d": 312.5,
      "v": 100
    },
    {
      "midi": 70,
      "hit": false,
      "t": 164759.375,
      "d": 287.5,
      "v": 104
    },
    {
      "midi": 61,
      "hit": false,
      "t": 164781.25,
      "d": 93.75,
      "v": 111
    },
    {
      "midi": 49,
      "hit": false,
      "t": 164787.5,
      "d": 59.375,
      "v": 101
    },
    {
      "midi": 60,
      "hit": false,
      "t": 164962.5,
      "d": 81.25,
      "v": 111
    },
    {
      "midi": 48,
      "hit": false,
      "t": 164965.625,
      "d": 103.125,
      "v": 103
    },
    {
      "midi": 70,
      "hit": false,
      "t": 165131.25,
      "d": 196.875,
      "v": 103
    },
    {
      "midi": 73,
      "hit": false,
      "t": 165137.5,
      "d": 206.25,
      "v": 92
    },
    {
      "midi": 77,
      "hit": false,
      "t": 165146.875,
      "d": 156.25,
      "v": 108
    },
    {
      "midi": 65,
      "hit": false,
      "t": 165153.125,
      "d": 96.875,
      "v": 94
    },
    {
      "midi": 58,
      "hit": false,
      "t": 165168.75,
      "d": 81.25,
      "v": 119
    },
    {
      "midi": 46,
      "hit": false,
      "t": 165175,
      "d": 68.75,
      "v": 113
    },
    {
      "midi": 56,
      "hit": false,
      "t": 165356.25,
      "d": 96.875,
      "v": 111
    },
    {
      "midi": 44,
      "hit": false,
      "t": 165359.375,
      "d": 121.875,
      "v": 107
    },
    {
      "midi": 71,
      "hit": false,
      "t": 165540.625,
      "d": 228.125,
      "v": 83
    },
    {
      "midi": 67,
      "hit": false,
      "t": 165546.875,
      "d": 156.25,
      "v": 92
    },
    {
      "midi": 79,
      "hit": false,
      "t": 165546.875,
      "d": 246.875,
      "v": 99
    },
    {
      "midi": 74,
      "hit": false,
      "t": 165546.875,
      "d": 259.375,
      "v": 94
    },
    {
      "midi": 65,
      "hit": false,
      "t": 165550,
      "d": 115.625,
      "v": 103
    },
    {
      "midi": 43,
      "hit": false,
      "t": 165571.875,
      "d": 37.5,
      "v": 83
    },
    {
      "midi": 57,
      "hit": false,
      "t": 165571.875,
      "d": 56.25,
      "v": 102
    },
    {
      "midi": 55,
      "hit": false,
      "t": 165575,
      "d": 34.375,
      "v": 101
    },
    {
      "midi": 45,
      "hit": false,
      "t": 165581.25,
      "d": 31.25,
      "v": 92
    },
    {
      "midi": 67,
      "hit": false,
      "t": 165781.25,
      "d": 28.125,
      "v": 111
    },
    {
      "midi": 55,
      "hit": false,
      "t": 165781.25,
      "d": 225,
      "v": 110
    },
    {
      "midi": 71,
      "hit": false,
      "t": 165984.375,
      "d": 234.375,
      "v": 98
    },
    {
      "midi": 74,
      "hit": false,
      "t": 165987.5,
      "d": 250,
      "v": 106
    },
    {
      "midi": 79,
      "hit": false,
      "t": 165987.5,
      "d": 253.125,
      "v": 107
    },
    {
      "midi": 67,
      "hit": false,
      "t": 165996.875,
      "d": 162.5,
      "v": 103
    },
    {
      "midi": 65,
      "hit": false,
      "t": 166165.625,
      "d": 96.875,
      "v": 116
    },
    {
      "midi": 53,
      "hit": false,
      "t": 166175,
      "d": 28.125,
      "v": 111
    },
    {
      "midi": 79,
      "hit": false,
      "t": 166381.25,
      "d": 275,
      "v": 108
    },
    {
      "midi": 72,
      "hit": false,
      "t": 166381.25,
      "d": 303.125,
      "v": 101
    },
    {
      "midi": 75,
      "hit": false,
      "t": 166381.25,
      "d": 315.625,
      "v": 95
    },
    {
      "midi": 67,
      "hit": false,
      "t": 166387.5,
      "d": 262.5,
      "v": 100
    },
    {
      "midi": 63,
      "hit": false,
      "t": 166403.125,
      "d": 90.625,
      "v": 110
    },
    {
      "midi": 51,
      "hit": false,
      "t": 166409.375,
      "d": 84.375,
      "v": 102
    },
    {
      "midi": 62,
      "hit": false,
      "t": 166584.375,
      "d": 96.875,
      "v": 110
    },
    {
      "midi": 50,
      "hit": false,
      "t": 166590.625,
      "d": 103.125,
      "v": 100
    },
    {
      "midi": 72,
      "hit": false,
      "t": 166775,
      "d": 165.625,
      "v": 75
    },
    {
      "midi": 79,
      "hit": false,
      "t": 166775,
      "d": 168.75,
      "v": 97
    },
    {
      "midi": 75,
      "hit": false,
      "t": 166775,
      "d": 206.25,
      "v": 78
    },
    {
      "midi": 67,
      "hit": false,
      "t": 166778.125,
      "d": 153.125,
      "v": 93
    },
    {
      "midi": 48,
      "hit": false,
      "t": 166796.875,
      "d": 68.75,
      "v": 106
    },
    {
      "midi": 60,
      "hit": false,
      "t": 166796.875,
      "d": 100,
      "v": 102
    },
    {
      "midi": 59,
      "hit": false,
      "t": 166993.75,
      "d": 37.5,
      "v": 88
    },
    {
      "midi": 47,
      "hit": false,
      "t": 167009.375,
      "d": 46.875,
      "v": 62
    },
    {
      "midi": 48,
      "hit": false,
      "t": 167021.875,
      "d": 59.375,
      "v": 53
    },
    {
      "midi": 73,
      "hit": false,
      "t": 167196.875,
      "d": 196.875,
      "v": 108
    },
    {
      "midi": 79,
      "hit": false,
      "t": 167200,
      "d": 156.25,
      "v": 111
    },
    {
      "midi": 67,
      "hit": false,
      "t": 167200,
      "d": 259.375,
      "v": 109
    },
    {
      "midi": 75,
      "hit": false,
      "t": 167203.125,
      "d": 181.25,
      "v": 95
    },
    {
      "midi": 46,
      "hit": false,
      "t": 167209.375,
      "d": 109.375,
      "v": 115
    },
    {
      "midi": 58,
      "hit": false,
      "t": 167209.375,
      "d": 143.75,
      "v": 118
    },
    {
      "midi": 77,
      "hit": false,
      "t": 167440.625,
      "d": 128.125,
      "v": 106
    },
    {
      "midi": 61,
      "hit": false,
      "t": 167612.5,
      "d": 37.5,
      "v": 77
    },
    {
      "midi": 58,
      "hit": false,
      "t": 167621.875,
      "d": 40.625,
      "v": 80
    },
    {
      "midi": 51,
      "hit": false,
      "t": 167628.125,
      "d": 46.875,
      "v": 67
    },
    {
      "midi": 67,
      "hit": false,
      "t": 167628.125,
      "d": 56.25,
      "v": 91
    },
    {
      "midi": 73,
      "hit": false,
      "t": 167628.125,
      "d": 125,
      "v": 93
    },
    {
      "midi": 75,
      "hit": false,
      "t": 167631.25,
      "d": 159.375,
      "v": 89
    },
    {
      "midi": 80,
      "hit": false,
      "t": 167850,
      "d": 753.125,
      "v": 99
    },
    {
      "midi": 72,
      "hit": false,
      "t": 167850,
      "d": 862.5,
      "v": 94
    },
    {
      "midi": 75,
      "hit": false,
      "t": 167859.375,
      "d": 815.625,
      "v": 85
    },
    {
      "midi": 68,
      "hit": false,
      "t": 167862.5,
      "d": 800,
      "v": 94
    },
    {
      "midi": 44,
      "hit": false,
      "t": 168031.25,
      "d": 34.375,
      "v": 102
    },
    {
      "midi": 56,
      "hit": false,
      "t": 168037.5,
      "d": 81.25,
      "v": 102
    },
    {
      "midi": 54,
      "hit": false,
      "t": 168275,
      "d": 40.625,
      "v": 76
    },
    {
      "midi": 66,
      "hit": false,
      "t": 168278.125,
      "d": 46.875,
      "v": 85
    },
    {
      "midi": 53,
      "hit": false,
      "t": 168459.375,
      "d": 84.375,
      "v": 98
    },
    {
      "midi": 65,
      "hit": false,
      "t": 168462.5,
      "d": 56.25,
      "v": 98
    },
    {
      "midi": 63,
      "hit": false,
      "t": 168671.875,
      "d": 56.25,
      "v": 99
    },
    {
      "midi": 51,
      "hit": false,
      "t": 168700,
      "d": 43.75,
      "v": 56
    },
    {
      "midi": 77,
      "hit": false,
      "t": 168950,
      "d": 931.25,
      "v": 101
    },
    {
      "midi": 65,
      "hit": false,
      "t": 168953.125,
      "d": 931.25,
      "v": 92
    },
    {
      "midi": 73,
      "hit": false,
      "t": 168953.125,
      "d": 1034.375,
      "v": 88
    },
    {
      "midi": 49,
      "hit": false,
      "t": 168959.375,
      "d": 1021.875,
      "v": 71
    },
    {
      "midi": 61,
      "hit": false,
      "t": 168971.875,
      "d": 234.375,
      "v": 77
    },
    {
      "midi": 55,
      "hit": false,
      "t": 169203.125,
      "d": 271.875,
      "v": 91
    },
    {
      "midi": 56,
      "hit": false,
      "t": 169418.75,
      "d": 221.875,
      "v": 89
    },
    {
      "midi": 58,
      "hit": false,
      "t": 169625,
      "d": 271.875,
      "v": 95
    },
    {
      "midi": 56,
      "hit": false,
      "t": 169884.375,
      "d": 68.75,
      "v": 85
    },
    {
      "midi": 80,
      "hit": false,
      "t": 170131.25,
      "d": 243.75,
      "v": 102
    },
    {
      "midi": 72,
      "hit": false,
      "t": 170393.75,
      "d": 281.25,
      "v": 79
    },
    {
      "midi": 66,
      "hit": false,
      "t": 170400,
      "d": 168.75,
      "v": 75
    },
    {
      "midi": 75,
      "hit": false,
      "t": 170403.125,
      "d": 284.375,
      "v": 78
    },
    {
      "midi": 56,
      "hit": false,
      "t": 170409.375,
      "d": 62.5,
      "v": 64
    },
    {
      "midi": 44,
      "hit": false,
      "t": 170421.875,
      "d": 137.5,
      "v": 60
    },
    {
      "midi": 77,
      "hit": false,
      "t": 170646.875,
      "d": 40.625,
      "v": 97
    },
    {
      "midi": 49,
      "hit": false,
      "t": 170684.375,
      "d": 68.75,
      "v": 24
    },
    {
      "midi": 37,
      "hit": false,
      "t": 170812.5,
      "d": 268.75,
      "v": 73
    },
    {
      "midi": 68,
      "hit": false,
      "t": 171000,
      "d": 712.5,
      "v": 95
    },
    {
      "midi": 49,
      "hit": false,
      "t": 171006.25,
      "d": 112.5,
      "v": 61
    },
    {
      "midi": 65,
      "hit": false,
      "t": 171009.375,
      "d": 721.875,
      "v": 78
    },
    {
      "midi": 55,
      "hit": false,
      "t": 171243.75,
      "d": 140.625,
      "v": 87
    },
    {
      "midi": 56,
      "hit": false,
      "t": 171465.625,
      "d": 175,
      "v": 86
    },
    {
      "midi": 58,
      "hit": false,
      "t": 171643.75,
      "d": 225,
      "v": 103
    },
    {
      "midi": 56,
      "hit": false,
      "t": 171856.25,
      "d": 40.625,
      "v": 93
    },
    {
      "midi": 61,
      "hit": false,
      "t": 171940.625,
      "d": 50,
      "v": 8
    },
    {
      "midi": 68,
      "hit": false,
      "t": 172050,
      "d": 115.625,
      "v": 93
    },
    {
      "midi": 54,
      "hit": false,
      "t": 172262.5,
      "d": 125,
      "v": 70
    },
    {
      "midi": 63,
      "hit": false,
      "t": 172265.625,
      "d": 140.625,
      "v": 73
    },
    {
      "midi": 44,
      "hit": false,
      "t": 172275,
      "d": 46.875,
      "v": 62
    },
    {
      "midi": 60,
      "hit": false,
      "t": 172275,
      "d": 146.875,
      "v": 79
    },
    {
      "midi": 65,
      "hit": false,
      "t": 172478.125,
      "d": 228.125,
      "v": 97
    },
    {
      "midi": 53,
      "hit": false,
      "t": 172675,
      "d": 115.625,
      "v": 89
    },
    {
      "midi": 61,
      "hit": false,
      "t": 172675,
      "d": 250,
      "v": 97
    },
    {
      "midi": 37,
      "hit": false,
      "t": 172687.5,
      "d": 93.75,
      "v": 72
    },
    {
      "midi": 49,
      "hit": false,
      "t": 172687.5,
      "d": 112.5,
      "v": 77
    },
    {
      "midi": 65,
      "hit": false,
      "t": 172884.375,
      "d": 43.75,
      "v": 97
    },
    {
      "midi": 63,
      "hit": false,
      "t": 172918.75,
      "d": 50,
      "v": 15
    },
    {
      "midi": 56,
      "hit": false,
      "t": 173075,
      "d": 43.75,
      "v": 92
    },
    {
      "midi": 41,
      "hit": false,
      "t": 173075,
      "d": 50,
      "v": 68
    },
    {
      "midi": 53,
      "hit": false,
      "t": 173075,
      "d": 84.375,
      "v": 86
    },
    {
      "midi": 68,
      "hit": false,
      "t": 173075,
      "d": 131.25,
      "v": 108
    },
    {
      "midi": 61,
      "hit": false,
      "t": 173081.25,
      "d": 43.75,
      "v": 97
    },
    {
      "midi": 70,
      "hit": false,
      "t": 173300,
      "d": 446.875,
      "v": 121
    },
    {
      "midi": 63,
      "hit": false,
      "t": 173306.25,
      "d": 331.25,
      "v": 111
    },
    {
      "midi": 42,
      "hit": false,
      "t": 173309.375,
      "d": 375,
      "v": 88
    },
    {
      "midi": 54,
      "hit": false,
      "t": 173312.5,
      "d": 431.25,
      "v": 99
    },
    {
      "midi": 60,
      "hit": false,
      "t": 173318.75,
      "d": 450,
      "v": 95
    },
    {
      "midi": 68,
      "hit": false,
      "t": 173690.625,
      "d": 146.875,
      "v": 98
    },
    {
      "midi": 70,
      "hit": false,
      "t": 173871.875,
      "d": 140.625,
      "v": 107
    },
    {
      "midi": 42,
      "hit": false,
      "t": 173890.625,
      "d": 131.25,
      "v": 64
    },
    {
      "midi": 60,
      "hit": false,
      "t": 173893.75,
      "d": 59.375,
      "v": 53
    },
    {
      "midi": 63,
      "hit": false,
      "t": 173893.75,
      "d": 87.5,
      "v": 79
    },
    {
      "midi": 54,
      "hit": false,
      "t": 173903.125,
      "d": 62.5,
      "v": 62
    },
    {
      "midi": 68,
      "hit": false,
      "t": 174087.5,
      "d": 109.375,
      "v": 91
    },
    {
      "midi": 73,
      "hit": false,
      "t": 174287.5,
      "d": 962.5,
      "v": 88
    },
    {
      "midi": 61,
      "hit": false,
      "t": 174290.625,
      "d": 953.125,
      "v": 73
    },
    {
      "midi": 65,
      "hit": false,
      "t": 174290.625,
      "d": 975,
      "v": 76
    },
    {
      "midi": 68,
      "hit": false,
      "t": 174290.625,
      "d": 987.5,
      "v": 62
    },
    {
      "midi": 41,
      "hit": false,
      "t": 174293.75,
      "d": 46.875,
      "v": 65
    },
    {
      "midi": 53,
      "hit": false,
      "t": 174300,
      "d": 87.5,
      "v": 68
    },
    {
      "midi": 55,
      "hit": false,
      "t": 174500,
      "d": 75,
      "v": 91
    },
    {
      "midi": 56,
      "hit": false,
      "t": 174718.75,
      "d": 137.5,
      "v": 81
    },
    {
      "midi": 58,
      "hit": false,
      "t": 174903.125,
      "d": 237.5,
      "v": 87
    },
    {
      "midi": 56,
      "hit": false,
      "t": 175150,
      "d": 62.5,
      "v": 79
    },
    {
      "midi": 73,
      "hit": false,
      "t": 175381.25,
      "d": 128.125,
      "v": 81
    },
    {
      "midi": 61,
      "hit": false,
      "t": 175384.375,
      "d": 112.5,
      "v": 67
    },
    {
      "midi": 74,
      "hit": false,
      "t": 175596.875,
      "d": 209.375,
      "v": 81
    },
    {
      "midi": 70,
      "hit": false,
      "t": 175603.125,
      "d": 259.375,
      "v": 67
    },
    {
      "midi": 68,
      "hit": false,
      "t": 175606.25,
      "d": 250,
      "v": 67
    },
    {
      "midi": 62,
      "hit": false,
      "t": 175612.5,
      "d": 203.125,
      "v": 38
    },
    {
      "midi": 41,
      "hit": false,
      "t": 175809.375,
      "d": 34.375,
      "v": 91
    },
    {
      "midi": 53,
      "hit": false,
      "t": 175809.375,
      "d": 53.125,
      "v": 87
    },
    {
      "midi": 66,
      "hit": false,
      "t": 176068.75,
      "d": 375,
      "v": 62
    },
    {
      "midi": 75,
      "hit": false,
      "t": 176081.25,
      "d": 362.5,
      "v": 76
    },
    {
      "midi": 63,
      "hit": false,
      "t": 176093.75,
      "d": 250,
      "v": 53
    },
    {
      "midi": 70,
      "hit": false,
      "t": 176096.875,
      "d": 375,
      "v": 77
    },
    {
      "midi": 42,
      "hit": false,
      "t": 176125,
      "d": 128.125,
      "v": 62
    },
    {
      "midi": 54,
      "hit": false,
      "t": 176128.125,
      "d": 165.625,
      "v": 50
    },
    {
      "midi": 75,
      "hit": false,
      "t": 176546.875,
      "d": 131.25,
      "v": 77
    },
    {
      "midi": 66,
      "hit": false,
      "t": 176571.875,
      "d": 115.625,
      "v": 70
    },
    {
      "midi": 70,
      "hit": false,
      "t": 176575,
      "d": 93.75,
      "v": 53
    },
    {
      "midi": 63,
      "hit": false,
      "t": 176578.125,
      "d": 53.125,
      "v": 64
    },
    {
      "midi": 58,
      "hit": false,
      "t": 176581.25,
      "d": 50,
      "v": 76
    },
    {
      "midi": 73,
      "hit": false,
      "t": 176781.25,
      "d": 106.25,
      "v": 100
    },
    {
      "midi": 70,
      "hit": false,
      "t": 176984.375,
      "d": 121.875,
      "v": 101
    },
    {
      "midi": 66,
      "hit": false,
      "t": 176990.625,
      "d": 46.875,
      "v": 86
    },
    {
      "midi": 61,
      "hit": false,
      "t": 176990.625,
      "d": 50,
      "v": 84
    },
    {
      "midi": 49,
      "hit": false,
      "t": 176990.625,
      "d": 96.875,
      "v": 76
    },
    {
      "midi": 73,
      "hit": false,
      "t": 177187.5,
      "d": 84.375,
      "v": 108
    },
    {
      "midi": 66,
      "hit": false,
      "t": 177390.625,
      "d": 278.125,
      "v": 96
    },
    {
      "midi": 61,
      "hit": false,
      "t": 177403.125,
      "d": 296.875,
      "v": 81
    },
    {
      "midi": 46,
      "hit": false,
      "t": 177409.375,
      "d": 200,
      "v": 83
    },
    {
      "midi": 58,
      "hit": false,
      "t": 177415.625,
      "d": 153.125,
      "v": 78
    },
    {
      "midi": 70,
      "hit": false,
      "t": 177618.75,
      "d": 168.75,
      "v": 89
    },
    {
      "midi": 61,
      "hit": false,
      "t": 177803.125,
      "d": 590.625,
      "v": 70
    },
    {
      "midi": 65,
      "hit": false,
      "t": 177821.875,
      "d": 503.125,
      "v": 88
    },
    {
      "midi": 44,
      "hit": false,
      "t": 177834.375,
      "d": 528.125,
      "v": 60
    },
    {
      "midi": 56,
      "hit": false,
      "t": 177840.625,
      "d": 540.625,
      "v": 55
    },
    {
      "midi": 70,
      "hit": false,
      "t": 178050,
      "d": 303.125,
      "v": 91
    },
    {
      "midi": 68,
      "hit": false,
      "t": 178275,
      "d": 240.625,
      "v": 82
    },
    {
      "midi": 65,
      "hit": false,
      "t": 178496.875,
      "d": 46.875,
      "v": 68
    },
    {
      "midi": 61,
      "hit": false,
      "t": 178709.375,
      "d": 481.25,
      "v": 83
    },
    {
      "midi": 57,
      "hit": false,
      "t": 178728.125,
      "d": 456.25,
      "v": 37
    },
    {
      "midi": 45,
      "hit": false,
      "t": 178737.5,
      "d": 453.125,
      "v": 26
    },
    {
      "midi": 64,
      "hit": false,
      "t": 178950,
      "d": 171.875,
      "v": 79
    },
    {
      "midi": 69,
      "hit": false,
      "t": 179175,
      "d": 93.75,
      "v": 70
    },
    {
      "midi": 73,
      "hit": false,
      "t": 179418.75,
      "d": 431.25,
      "v": 100
    },
    {
      "midi": 44,
      "hit": false,
      "t": 179640.625,
      "d": 121.875,
      "v": 94
    },
    {
      "midi": 56,
      "hit": false,
      "t": 179640.625,
      "d": 171.875,
      "v": 100
    },
    {
      "midi": 75,
      "hit": false,
      "t": 179853.125,
      "d": 165.625,
      "v": 82
    },
    {
      "midi": 77,
      "hit": false,
      "t": 180056.25,
      "d": 115.625,
      "v": 94
    },
    {
      "midi": 65,
      "hit": false,
      "t": 180075,
      "d": 43.75,
      "v": 71
    },
    {
      "midi": 56,
      "hit": false,
      "t": 180084.375,
      "d": 56.25,
      "v": 63
    },
    {
      "midi": 61,
      "hit": false,
      "t": 180090.625,
      "d": 40.625,
      "v": 64
    },
    {
      "midi": 68,
      "hit": false,
      "t": 180093.75,
      "d": 68.75,
      "v": 55
    },
    {
      "midi": 73,
      "hit": false,
      "t": 180275,
      "d": 68.75,
      "v": 85
    },
    {
      "midi": 56,
      "hit": false,
      "t": 180490.625,
      "d": 521.875,
      "v": 64
    },
    {
      "midi": 75,
      "hit": false,
      "t": 180493.75,
      "d": 93.75,
      "v": 45
    },
    {
      "midi": 66,
      "hit": false,
      "t": 180493.75,
      "d": 162.5,
      "v": 48
    },
    {
      "midi": 72,
      "hit": false,
      "t": 180493.75,
      "d": 450,
      "v": 59
    },
    {
      "midi": 66,
      "hit": false,
      "t": 180715.625,
      "d": 278.125,
      "v": 43
    },
    {
      "midi": 80,
      "hit": false,
      "t": 180728.125,
      "d": 159.375,
      "v": 75
    },
    {
      "midi": 44,
      "hit": false,
      "t": 180925,
      "d": 40.625,
      "v": 67
    },
    {
      "midi": 73,
      "hit": false,
      "t": 181178.125,
      "d": 868.75,
      "v": 68
    },
    {
      "midi": 65,
      "hit": false,
      "t": 181184.375,
      "d": 918.75,
      "v": 75
    },
    {
      "midi": 49,
      "hit": false,
      "t": 181362.5,
      "d": 356.25,
      "v": 58
    },
    {
      "midi": 61,
      "hit": false,
      "t": 181375,
      "d": 218.75,
      "v": 48
    },
    {
      "midi": 55,
      "hit": false,
      "t": 181596.875,
      "d": 243.75,
      "v": 74
    },
    {
      "midi": 49,
      "hit": false,
      "t": 181809.375,
      "d": 509.375,
      "v": 13
    },
    {
      "midi": 56,
      "hit": false,
      "t": 181812.5,
      "d": 212.5,
      "v": 75
    },
    {
      "midi": 58,
      "hit": false,
      "t": 182037.5,
      "d": 193.75,
      "v": 81
    },
    {
      "midi": 56,
      "hit": false,
      "t": 182237.5,
      "d": 93.75,
      "v": 71
    },
    {
      "midi": 80,
      "hit": false,
      "t": 182450,
      "d": 137.5,
      "v": 78
    },
    {
      "midi": 66,
      "hit": false,
      "t": 182662.5,
      "d": 253.125,
      "v": 57
    },
    {
      "midi": 72,
      "hit": false,
      "t": 182668.75,
      "d": 378.125,
      "v": 58
    },
    {
      "midi": 75,
      "hit": false,
      "t": 182671.875,
      "d": 359.375,
      "v": 57
    },
    {
      "midi": 44,
      "hit": false,
      "t": 182675,
      "d": 131.25,
      "v": 69
    },
    {
      "midi": 56,
      "hit": false,
      "t": 182700,
      "d": 156.25,
      "v": 44
    },
    {
      "midi": 80,
      "hit": false,
      "t": 182931.25,
      "d": 50,
      "v": 76
    },
    {
      "midi": 49,
      "hit": false,
      "t": 183090.625,
      "d": 1253.125,
      "v": 59
    },
    {
      "midi": 61,
      "hit": false,
      "t": 183212.5,
      "d": 443.75,
      "v": 71
    },
    {
      "midi": 65,
      "hit": false,
      "t": 183253.125,
      "d": 821.875,
      "v": 71
    },
    {
      "midi": 73,
      "hit": false,
      "t": 183371.875,
      "d": 768.75,
      "v": 73
    },
    {
      "midi": 77,
      "hit": false,
      "t": 183440.625,
      "d": 609.375,
      "v": 107
    },
    {
      "midi": 55,
      "hit": false,
      "t": 183621.875,
      "d": 265.625,
      "v": 81
    },
    {
      "midi": 56,
      "hit": false,
      "t": 183850,
      "d": 190.625,
      "v": 85
    },
    {
      "midi": 58,
      "hit": false,
      "t": 184040.625,
      "d": 253.125,
      "v": 105
    },
    {
      "midi": 56,
      "hit": false,
      "t": 184256.25,
      "d": 112.5,
      "v": 95
    },
    {
      "midi": 80,
      "hit": false,
      "t": 184415.625,
      "d": 171.875,
      "v": 98
    },
    {
      "midi": 66,
      "hit": false,
      "t": 184646.875,
      "d": 121.875,
      "v": 80
    },
    {
      "midi": 75,
      "hit": false,
      "t": 184653.125,
      "d": 153.125,
      "v": 75
    },
    {
      "midi": 56,
      "hit": false,
      "t": 184656.25,
      "d": 40.625,
      "v": 70
    },
    {
      "midi": 44,
      "hit": false,
      "t": 184659.375,
      "d": 68.75,
      "v": 72
    },
    {
      "midi": 72,
      "hit": false,
      "t": 184659.375,
      "d": 134.375,
      "v": 73
    },
    {
      "midi": 77,
      "hit": false,
      "t": 184878.125,
      "d": 46.875,
      "v": 70
    },
    {
      "midi": 37,
      "hit": false,
      "t": 184993.75,
      "d": 290.625,
      "v": 79
    },
    {
      "midi": 44,
      "hit": false,
      "t": 185081.25,
      "d": 234.375,
      "v": 84
    },
    {
      "midi": 56,
      "hit": false,
      "t": 185187.5,
      "d": 262.5,
      "v": 90
    },
    {
      "midi": 49,
      "hit": false,
      "t": 185193.75,
      "d": 143.75,
      "v": 68
    },
    {
      "midi": 65,
      "hit": false,
      "t": 185237.5,
      "d": 715.625,
      "v": 80
    },
    {
      "midi": 68,
      "hit": false,
      "t": 185318.75,
      "d": 643.75,
      "v": 96
    },
    {
      "midi": 55,
      "hit": false,
      "t": 185490.625,
      "d": 121.875,
      "v": 33
    },
    {
      "midi": 53,
      "hit": false,
      "t": 185496.875,
      "d": 84.375,
      "v": 36
    },
    {
      "midi": 56,
      "hit": false,
      "t": 185681.25,
      "d": 175,
      "v": 86
    },
    {
      "midi": 58,
      "hit": false,
      "t": 185853.125,
      "d": 221.875,
      "v": 110
    },
    {
      "midi": 56,
      "hit": false,
      "t": 186078.125,
      "d": 84.375,
      "v": 102
    },
    {
      "midi": 68,
      "hit": false,
      "t": 186281.25,
      "d": 106.25,
      "v": 107
    },
    {
      "midi": 44,
      "hit": false,
      "t": 186440.625,
      "d": 290.625,
      "v": 88
    },
    {
      "midi": 63,
      "hit": false,
      "t": 186600,
      "d": 209.375,
      "v": 102
    },
    {
      "midi": 60,
      "hit": false,
      "t": 186606.25,
      "d": 171.875,
      "v": 95
    },
    {
      "midi": 51,
      "hit": false,
      "t": 186615.625,
      "d": 143.75,
      "v": 81
    },
    {
      "midi": 65,
      "hit": false,
      "t": 186815.625,
      "d": 159.375,
      "v": 105
    },
    {
      "midi": 61,
      "hit": false,
      "t": 187006.25,
      "d": 175,
      "v": 100
    },
    {
      "midi": 53,
      "hit": false,
      "t": 187025,
      "d": 118.75,
      "v": 91
    },
    {
      "midi": 37,
      "hit": false,
      "t": 187034.375,
      "d": 46.875,
      "v": 75
    },
    {
      "midi": 49,
      "hit": false,
      "t": 187034.375,
      "d": 90.625,
      "v": 79
    },
    {
      "midi": 65,
      "hit": false,
      "t": 187228.125,
      "d": 50,
      "v": 109
    },
    {
      "midi": 53,
      "hit": false,
      "t": 187409.375,
      "d": 81.25,
      "v": 97
    },
    {
      "midi": 68,
      "hit": false,
      "t": 187415.625,
      "d": 103.125,
      "v": 111
    },
    {
      "midi": 41,
      "hit": false,
      "t": 187418.75,
      "d": 37.5,
      "v": 80
    },
    {
      "midi": 61,
      "hit": false,
      "t": 187421.875,
      "d": 84.375,
      "v": 101
    },
    {
      "midi": 56,
      "hit": false,
      "t": 187425,
      "d": 37.5,
      "v": 92
    },
    {
      "midi": 70,
      "hit": false,
      "t": 187646.875,
      "d": 356.25,
      "v": 122
    },
    {
      "midi": 63,
      "hit": false,
      "t": 187653.125,
      "d": 325,
      "v": 113
    },
    {
      "midi": 60,
      "hit": false,
      "t": 187662.5,
      "d": 462.5,
      "v": 101
    },
    {
      "midi": 42,
      "hit": false,
      "t": 187665.625,
      "d": 378.125,
      "v": 95
    },
    {
      "midi": 54,
      "hit": false,
      "t": 187665.625,
      "d": 440.625,
      "v": 104
    },
    {
      "midi": 68,
      "hit": false,
      "t": 188050,
      "d": 128.125,
      "v": 103
    },
    {
      "midi": 70,
      "hit": false,
      "t": 188231.25,
      "d": 150,
      "v": 115
    },
    {
      "midi": 42,
      "hit": false,
      "t": 188243.75,
      "d": 137.5,
      "v": 70
    },
    {
      "midi": 63,
      "hit": false,
      "t": 188246.875,
      "d": 131.25,
      "v": 92
    },
    {
      "midi": 60,
      "hit": false,
      "t": 188250,
      "d": 50,
      "v": 75
    },
    {
      "midi": 54,
      "hit": false,
      "t": 188262.5,
      "d": 100,
      "v": 67
    },
    {
      "midi": 68,
      "hit": false,
      "t": 188446.875,
      "d": 128.125,
      "v": 97
    },
    {
      "midi": 41,
      "hit": false,
      "t": 188637.5,
      "d": 34.375,
      "v": 97
    },
    {
      "midi": 73,
      "hit": false,
      "t": 188637.5,
      "d": 896.875,
      "v": 96
    },
    {
      "midi": 65,
      "hit": false,
      "t": 188637.5,
      "d": 925,
      "v": 92
    },
    {
      "midi": 68,
      "hit": false,
      "t": 188637.5,
      "d": 931.25,
      "v": 84
    },
    {
      "midi": 53,
      "hit": false,
      "t": 188640.625,
      "d": 103.125,
      "v": 92
    },
    {
      "midi": 61,
      "hit": false,
      "t": 188640.625,
      "d": 903.125,
      "v": 86
    },
    {
      "midi": 55,
      "hit": false,
      "t": 188856.25,
      "d": 84.375,
      "v": 105
    },
    {
      "midi": 56,
      "hit": false,
      "t": 189053.125,
      "d": 165.625,
      "v": 95
    },
    {
      "midi": 58,
      "hit": false,
      "t": 189228.125,
      "d": 268.75,
      "v": 106
    },
    {
      "midi": 56,
      "hit": false,
      "t": 189450,
      "d": 137.5,
      "v": 103
    },
    {
      "midi": 73,
      "hit": false,
      "t": 189671.875,
      "d": 140.625,
      "v": 103
    },
    {
      "midi": 61,
      "hit": false,
      "t": 189681.25,
      "d": 62.5,
      "v": 83
    },
    {
      "midi": 53,
      "hit": false,
      "t": 189878.125,
      "d": 43.75,
      "v": 82
    },
    {
      "midi": 74,
      "hit": false,
      "t": 189884.375,
      "d": 175,
      "v": 83
    },
    {
      "midi": 70,
      "hit": false,
      "t": 189890.625,
      "d": 206.25,
      "v": 70
    },
    {
      "midi": 62,
      "hit": false,
      "t": 189893.75,
      "d": 187.5,
      "v": 60
    },
    {
      "midi": 68,
      "hit": false,
      "t": 189893.75,
      "d": 221.875,
      "v": 70
    },
    {
      "midi": 41,
      "hit": false,
      "t": 189906.25,
      "d": 46.875,
      "v": 59
    },
    {
      "midi": 40,
      "hit": false,
      "t": 190065.625,
      "d": 31.25,
      "v": 89
    },
    {
      "midi": 52,
      "hit": false,
      "t": 190065.625,
      "d": 65.625,
      "v": 92
    },
    {
      "midi": 75,
      "hit": false,
      "t": 190300,
      "d": 284.375,
      "v": 86
    },
    {
      "midi": 63,
      "hit": false,
      "t": 190318.75,
      "d": 128.125,
      "v": 74
    },
    {
      "midi": 70,
      "hit": false,
      "t": 190318.75,
      "d": 275,
      "v": 76
    },
    {
      "midi": 39,
      "hit": false,
      "t": 190325,
      "d": 34.375,
      "v": 95
    },
    {
      "midi": 67,
      "hit": false,
      "t": 190325,
      "d": 190.625,
      "v": 67
    },
    {
      "midi": 51,
      "hit": false,
      "t": 190328.125,
      "d": 81.25,
      "v": 91
    },
    {
      "midi": 49,
      "hit": false,
      "t": 190337.5,
      "d": 50,
      "v": 59
    },
    {
      "midi": 73,
      "hit": false,
      "t": 190337.5,
      "d": 240.625,
      "v": 64
    },
    {
      "midi": 63,
      "hit": false,
      "t": 190537.5,
      "d": 100,
      "v": 96
    },
    {
      "midi": 51,
      "hit": false,
      "t": 190546.875,
      "d": 46.875,
      "v": 69
    },
    {
      "midi": 75,
      "hit": false,
      "t": 190731.25,
      "d": 131.25,
      "v": 96
    },
    {
      "midi": 67,
      "hit": false,
      "t": 190737.5,
      "d": 96.875,
      "v": 102
    },
    {
      "midi": 63,
      "hit": false,
      "t": 190737.5,
      "d": 112.5,
      "v": 95
    },
    {
      "midi": 70,
      "hit": false,
      "t": 190765.625,
      "d": 90.625,
      "v": 84
    },
    {
      "midi": 73,
      "hit": false,
      "t": 190765.625,
      "d": 109.375,
      "v": 70
    },
    {
      "midi": 61,
      "hit": false,
      "t": 190921.875,
      "d": 112.5,
      "v": 103
    },
    {
      "midi": 49,
      "hit": false,
      "t": 190925,
      "d": 50,
      "v": 93
    },
    {
      "midi": 75,
      "hit": false,
      "t": 191128.125,
      "d": 253.125,
      "v": 94
    },
    {
      "midi": 63,
      "hit": false,
      "t": 191128.125,
      "d": 278.125,
      "v": 98
    },
    {
      "midi": 60,
      "hit": false,
      "t": 191134.375,
      "d": 90.625,
      "v": 107
    },
    {
      "midi": 72,
      "hit": false,
      "t": 191134.375,
      "d": 253.125,
      "v": 90
    },
    {
      "midi": 68,
      "hit": false,
      "t": 191134.375,
      "d": 296.875,
      "v": 98
    },
    {
      "midi": 48,
      "hit": false,
      "t": 191140.625,
      "d": 93.75,
      "v": 97
    },
    {
      "midi": 58,
      "hit": false,
      "t": 191340.625,
      "d": 84.375,
      "v": 121
    },
    {
      "midi": 46,
      "hit": false,
      "t": 191350,
      "d": 40.625,
      "v": 111
    },
    {
      "midi": 75,
      "hit": false,
      "t": 191521.875,
      "d": 137.5,
      "v": 94
    },
    {
      "midi": 63,
      "hit": false,
      "t": 191528.125,
      "d": 118.75,
      "v": 97
    },
    {
      "midi": 68,
      "hit": false,
      "t": 191528.125,
      "d": 137.5,
      "v": 87
    },
    {
      "midi": 72,
      "hit": false,
      "t": 191537.5,
      "d": 90.625,
      "v": 82
    },
    {
      "midi": 56,
      "hit": false,
      "t": 191553.125,
      "d": 68.75,
      "v": 93
    },
    {
      "midi": 44,
      "hit": false,
      "t": 191559.375,
      "d": 37.5,
      "v": 95
    },
    {
      "midi": 55,
      "hit": false,
      "t": 191721.875,
      "d": 81.25,
      "v": 113
    },
    {
      "midi": 43,
      "hit": false,
      "t": 191728.125,
      "d": 75,
      "v": 106
    },
    {
      "midi": 65,
      "hit": false,
      "t": 191909.375,
      "d": 90.625,
      "v": 96
    },
    {
      "midi": 69,
      "hit": false,
      "t": 191912.5,
      "d": 190.625,
      "v": 94
    },
    {
      "midi": 72,
      "hit": false,
      "t": 191918.75,
      "d": 196.875,
      "v": 87
    },
    {
      "midi": 77,
      "hit": false,
      "t": 191925,
      "d": 150,
      "v": 71
    },
    {
      "midi": 53,
      "hit": false,
      "t": 191928.125,
      "d": 71.875,
      "v": 117
    },
    {
      "midi": 41,
      "hit": false,
      "t": 191931.25,
      "d": 25,
      "v": 112
    },
    {
      "midi": 70,
      "hit": false,
      "t": 191943.75,
      "d": 56.25,
      "v": 30
    },
    {
      "midi": 65,
      "hit": false,
      "t": 192125,
      "d": 87.5,
      "v": 120
    },
    {
      "midi": 53,
      "hit": false,
      "t": 192131.25,
      "d": 31.25,
      "v": 99
    },
    {
      "midi": 69,
      "hit": false,
      "t": 192318.75,
      "d": 212.5,
      "v": 105
    },
    {
      "midi": 77,
      "hit": false,
      "t": 192325,
      "d": 225,
      "v": 108
    },
    {
      "midi": 75,
      "hit": false,
      "t": 192325,
      "d": 256.25,
      "v": 78
    },
    {
      "midi": 72,
      "hit": false,
      "t": 192328.125,
      "d": 206.25,
      "v": 94
    },
    {
      "midi": 73,
      "hit": false,
      "t": 192362.5,
      "d": 56.25,
      "v": 35
    },
    {
      "midi": 63,
      "hit": false,
      "t": 192503.125,
      "d": 78.125,
      "v": 120
    },
    {
      "midi": 51,
      "hit": false,
      "t": 192512.5,
      "d": 28.125,
      "v": 112
    },
    {
      "midi": 70,
      "hit": false,
      "t": 192687.5,
      "d": 300,
      "v": 115
    },
    {
      "midi": 77,
      "hit": false,
      "t": 192693.75,
      "d": 265.625,
      "v": 105
    },
    {
      "midi": 73,
      "hit": false,
      "t": 192696.875,
      "d": 234.375,
      "v": 96
    },
    {
      "midi": 65,
      "hit": false,
      "t": 192696.875,
      "d": 246.875,
      "v": 101
    },
    {
      "midi": 61,
      "hit": false,
      "t": 192706.25,
      "d": 87.5,
      "v": 113
    },
    {
      "midi": 49,
      "hit": false,
      "t": 192712.5,
      "d": 68.75,
      "v": 108
    },
    {
      "midi": 60,
      "hit": false,
      "t": 192887.5,
      "d": 71.875,
      "v": 114
    },
    {
      "midi": 48,
      "hit": false,
      "t": 192890.625,
      "d": 100,
      "v": 109
    },
    {
      "midi": 70,
      "hit": false,
      "t": 193062.5,
      "d": 337.5,
      "v": 101
    },
    {
      "midi": 77,
      "hit": false,
      "t": 193068.75,
      "d": 206.25,
      "v": 105
    },
    {
      "midi": 73,
      "hit": false,
      "t": 193068.75,
      "d": 256.25,
      "v": 103
    },
    {
      "midi": 65,
      "hit": false,
      "t": 193075,
      "d": 175,
      "v": 108
    },
    {
      "midi": 58,
      "hit": false,
      "t": 193087.5,
      "d": 78.125,
      "v": 121
    },
    {
      "midi": 46,
      "hit": false,
      "t": 193093.75,
      "d": 59.375,
      "v": 115
    },
    {
      "midi": 56,
      "hit": false,
      "t": 193281.25,
      "d": 96.875,
      "v": 111
    },
    {
      "midi": 44,
      "hit": false,
      "t": 193287.5,
      "d": 93.75,
      "v": 111
    },
    {
      "midi": 71,
      "hit": false,
      "t": 193450,
      "d": 228.125,
      "v": 86
    },
    {
      "midi": 67,
      "hit": false,
      "t": 193459.375,
      "d": 143.75,
      "v": 93
    },
    {
      "midi": 79,
      "hit": false,
      "t": 193459.375,
      "d": 240.625,
      "v": 101
    },
    {
      "midi": 74,
      "hit": false,
      "t": 193459.375,
      "d": 253.125,
      "v": 96
    },
    {
      "midi": 65,
      "hit": false,
      "t": 193462.5,
      "d": 121.875,
      "v": 102
    },
    {
      "midi": 43,
      "hit": false,
      "t": 193481.25,
      "d": 31.25,
      "v": 106
    },
    {
      "midi": 55,
      "hit": false,
      "t": 193487.5,
      "d": 68.75,
      "v": 110
    },
    {
      "midi": 45,
      "hit": false,
      "t": 193534.375,
      "d": 59.375,
      "v": 35
    },
    {
      "midi": 67,
      "hit": false,
      "t": 193693.75,
      "d": 65.625,
      "v": 115
    },
    {
      "midi": 55,
      "hit": false,
      "t": 193703.125,
      "d": 28.125,
      "v": 115
    },
    {
      "midi": 71,
      "hit": false,
      "t": 193906.25,
      "d": 265.625,
      "v": 88
    },
    {
      "midi": 67,
      "hit": false,
      "t": 193915.625,
      "d": 165.625,
      "v": 105
    },
    {
      "midi": 79,
      "hit": false,
      "t": 193918.75,
      "d": 225,
      "v": 100
    },
    {
      "midi": 74,
      "hit": false,
      "t": 193918.75,
      "d": 243.75,
      "v": 103
    },
    {
      "midi": 72,
      "hit": false,
      "t": 193931.25,
      "d": 50,
      "v": 69
    },
    {
      "midi": 65,
      "hit": false,
      "t": 194109.375,
      "d": 90.625,
      "v": 123
    },
    {
      "midi": 53,
      "hit": false,
      "t": 194121.875,
      "d": 21.875,
      "v": 113
    },
    {
      "midi": 67,
      "hit": false,
      "t": 194318.75,
      "d": 287.5,
      "v": 106
    },
    {
      "midi": 72,
      "hit": false,
      "t": 194318.75,
      "d": 303.125,
      "v": 101
    },
    {
      "midi": 79,
      "hit": false,
      "t": 194325,
      "d": 275,
      "v": 104
    },
    {
      "midi": 75,
      "hit": false,
      "t": 194325,
      "d": 312.5,
      "v": 91
    },
    {
      "midi": 63,
      "hit": false,
      "t": 194340.625,
      "d": 84.375,
      "v": 111
    },
    {
      "midi": 51,
      "hit": false,
      "t": 194350,
      "d": 53.125,
      "v": 99
    },
    {
      "midi": 62,
      "hit": false,
      "t": 194521.875,
      "d": 87.5,
      "v": 111
    },
    {
      "midi": 50,
      "hit": false,
      "t": 194531.25,
      "d": 81.25,
      "v": 105
    },
    {
      "midi": 67,
      "hit": false,
      "t": 194706.25,
      "d": 112.5,
      "v": 94
    },
    {
      "midi": 72,
      "hit": false,
      "t": 194706.25,
      "d": 115.625,
      "v": 85
    },
    {
      "midi": 79,
      "hit": false,
      "t": 194706.25,
      "d": 125,
      "v": 98
    },
    {
      "midi": 75,
      "hit": false,
      "t": 194706.25,
      "d": 143.75,
      "v": 84
    },
    {
      "midi": 48,
      "hit": false,
      "t": 194734.375,
      "d": 53.125,
      "v": 105
    },
    {
      "midi": 60,
      "hit": false,
      "t": 194734.375,
      "d": 90.625,
      "v": 106
    },
    {
      "midi": 59,
      "hit": false,
      "t": 194928.125,
      "d": 100,
      "v": 109
    },
    {
      "midi": 47,
      "hit": false,
      "t": 194934.375,
      "d": 28.125,
      "v": 91
    },
    {
      "midi": 67,
      "hit": false,
      "t": 195134.375,
      "d": 159.375,
      "v": 110
    },
    {
      "midi": 79,
      "hit": false,
      "t": 195134.375,
      "d": 184.375,
      "v": 113
    },
    {
      "midi": 73,
      "hit": false,
      "t": 195134.375,
      "d": 209.375,
      "v": 107
    },
    {
      "midi": 75,
      "hit": false,
      "t": 195140.625,
      "d": 190.625,
      "v": 92
    },
    {
      "midi": 58,
      "hit": false,
      "t": 195153.125,
      "d": 168.75,
      "v": 118
    },
    {
      "midi": 46,
      "hit": false,
      "t": 195162.5,
      "d": 112.5,
      "v": 115
    },
    {
      "midi": 77,
      "hit": false,
      "t": 195378.125,
      "d": 134.375,
      "v": 107
    },
    {
      "midi": 61,
      "hit": false,
      "t": 195556.25,
      "d": 37.5,
      "v": 86
    },
    {
      "midi": 58,
      "hit": false,
      "t": 195562.5,
      "d": 37.5,
      "v": 88
    },
    {
      "midi": 51,
      "hit": false,
      "t": 195568.75,
      "d": 50,
      "v": 72
    },
    {
      "midi": 67,
      "hit": false,
      "t": 195571.875,
      "d": 46.875,
      "v": 95
    },
    {
      "midi": 73,
      "hit": false,
      "t": 195571.875,
      "d": 121.875,
      "v": 98
    },
    {
      "midi": 75,
      "hit": false,
      "t": 195571.875,
      "d": 150,
      "v": 95
    },
    {
      "midi": 80,
      "hit": false,
      "t": 195778.125,
      "d": 787.5,
      "v": 100
    },
    {
      "midi": 72,
      "hit": false,
      "t": 195778.125,
      "d": 1034.375,
      "v": 99
    },
    {
      "midi": 68,
      "hit": false,
      "t": 195787.5,
      "d": 421.875,
      "v": 92
    },
    {
      "midi": 75,
      "hit": false,
      "t": 195793.75,
      "d": 837.5,
      "v": 90
    },
    {
      "midi": 44,
      "hit": false,
      "t": 195990.625,
      "d": 40.625,
      "v": 100
    },
    {
      "midi": 56,
      "hit": false,
      "t": 195993.75,
      "d": 50,
      "v": 101
    },
    {
      "midi": 54,
      "hit": false,
      "t": 196003.125,
      "d": 43.75,
      "v": 62
    },
    {
      "midi": 66,
      "hit": false,
      "t": 196237.5,
      "d": 65.625,
      "v": 84
    },
    {
      "midi": 54,
      "hit": false,
      "t": 196246.875,
      "d": 53.125,
      "v": 59
    },
    {
      "midi": 53,
      "hit": false,
      "t": 196440.625,
      "d": 46.875,
      "v": 90
    },
    {
      "midi": 65,
      "hit": false,
      "t": 196450,
      "d": 43.75,
      "v": 87
    },
    {
      "midi": 63,
      "hit": false,
      "t": 196656.25,
      "d": 68.75,
      "v": 90
    },
    {
      "midi": 51,
      "hit": false,
      "t": 196662.5,
      "d": 90.625,
      "v": 88
    },
    {
      "midi": 77,
      "hit": false,
      "t": 196925,
      "d": 731.25,
      "v": 91
    },
    {
      "midi": 73,
      "hit": false,
      "t": 196925,
      "d": 865.625,
      "v": 67
    },
    {
      "midi": 65,
      "hit": false,
      "t": 196950,
      "d": 693.75,
      "v": 62
    },
    {
      "midi": 61,
      "hit": false,
      "t": 196956.25,
      "d": 253.125,
      "v": 74
    },
    {
      "midi": 49,
      "hit": false,
      "t": 196962.5,
      "d": 912.5,
      "v": 52
    },
    {
      "midi": 55,
      "hit": false,
      "t": 197168.75,
      "d": 271.875,
      "v": 74
    },
    {
      "midi": 56,
      "hit": false,
      "t": 197387.5,
      "d": 203.125,
      "v": 75
    },
    {
      "midi": 58,
      "hit": false,
      "t": 197587.5,
      "d": 237.5,
      "v": 92
    },
    {
      "midi": 56,
      "hit": false,
      "t": 197790.625,
      "d": 109.375,
      "v": 94
    },
    {
      "midi": 80,
      "hit": false,
      "t": 197993.75,
      "d": 140.625,
      "v": 96
    },
    {
      "midi": 56,
      "hit": false,
      "t": 198200,
      "d": 40.625,
      "v": 75
    },
    {
      "midi": 75,
      "hit": false,
      "t": 198200,
      "d": 187.5,
      "v": 81
    },
    {
      "midi": 66,
      "hit": false,
      "t": 198203.125,
      "d": 112.5,
      "v": 69
    },
    {
      "midi": 72,
      "hit": false,
      "t": 198203.125,
      "d": 131.25,
      "v": 83
    },
    {
      "midi": 44,
      "hit": false,
      "t": 198215.625,
      "d": 56.25,
      "v": 61
    },
    {
      "midi": 77,
      "hit": false,
      "t": 198406.25,
      "d": 34.375,
      "v": 98
    },
    {
      "midi": 37,
      "hit": false,
      "t": 198537.5,
      "d": 321.875,
      "v": 95
    },
    {
      "midi": 68,
      "hit": false,
      "t": 198781.25,
      "d": 715.625,
      "v": 88
    },
    {
      "midi": 65,
      "hit": false,
      "t": 198781.25,
      "d": 759.375,
      "v": 81
    },
    {
      "midi": 49,
      "hit": false,
      "t": 198800,
      "d": 100,
      "v": 66
    },
    {
      "midi": 55,
      "hit": false,
      "t": 199006.25,
      "d": 181.25,
      "v": 94
    },
    {
      "midi": 56,
      "hit": false,
      "t": 199221.875,
      "d": 171.875,
      "v": 82
    },
    {
      "midi": 58,
      "hit": false,
      "t": 199400,
      "d": 228.125,
      "v": 89
    },
    {
      "midi": 56,
      "hit": false,
      "t": 199600,
      "d": 37.5,
      "v": 83
    },
    {
      "midi": 68,
      "hit": false,
      "t": 199806.25,
      "d": 62.5,
      "v": 88
    },
    {
      "midi": 60,
      "hit": false,
      "t": 200015.625,
      "d": 143.75,
      "v": 64
    },
    {
      "midi": 44,
      "hit": false,
      "t": 200018.75,
      "d": 43.75,
      "v": 62
    },
    {
      "midi": 54,
      "hit": false,
      "t": 200025,
      "d": 128.125,
      "v": 58
    },
    {
      "midi": 63,
      "hit": false,
      "t": 200031.25,
      "d": 143.75,
      "v": 62
    },
    {
      "midi": 65,
      "hit": false,
      "t": 200231.25,
      "d": 228.125,
      "v": 87
    },
    {
      "midi": 37,
      "hit": false,
      "t": 200428.125,
      "d": 84.375,
      "v": 70
    },
    {
      "midi": 53,
      "hit": false,
      "t": 200431.25,
      "d": 150,
      "v": 84
    },
    {
      "midi": 61,
      "hit": false,
      "t": 200431.25,
      "d": 253.125,
      "v": 92
    },
    {
      "midi": 49,
      "hit": false,
      "t": 200440.625,
      "d": 131.25,
      "v": 53
    },
    {
      "midi": 65,
      "hit": false,
      "t": 200634.375,
      "d": 53.125,
      "v": 92
    },
    {
      "midi": 63,
      "hit": false,
      "t": 200662.5,
      "d": 62.5,
      "v": 27
    },
    {
      "midi": 53,
      "hit": false,
      "t": 200815.625,
      "d": 71.875,
      "v": 83
    },
    {
      "midi": 68,
      "hit": false,
      "t": 200815.625,
      "d": 112.5,
      "v": 109
    },
    {
      "midi": 41,
      "hit": false,
      "t": 200821.875,
      "d": 40.625,
      "v": 74
    },
    {
      "midi": 56,
      "hit": false,
      "t": 200821.875,
      "d": 40.625,
      "v": 95
    },
    {
      "midi": 61,
      "hit": false,
      "t": 200825,
      "d": 37.5,
      "v": 98
    },
    {
      "midi": 70,
      "hit": false,
      "t": 201040.625,
      "d": 437.5,
      "v": 123
    },
    {
      "midi": 63,
      "hit": false,
      "t": 201043.75,
      "d": 340.625,
      "v": 113
    },
    {
      "midi": 42,
      "hit": false,
      "t": 201053.125,
      "d": 400,
      "v": 95
    },
    {
      "midi": 60,
      "hit": false,
      "t": 201053.125,
      "d": 446.875,
      "v": 105
    },
    {
      "midi": 54,
      "hit": false,
      "t": 201056.25,
      "d": 437.5,
      "v": 100
    },
    {
      "midi": 68,
      "hit": false,
      "t": 201418.75,
      "d": 140.625,
      "v": 107
    },
    {
      "midi": 70,
      "hit": false,
      "t": 201590.625,
      "d": 268.75,
      "v": 117
    },
    {
      "midi": 60,
      "hit": false,
      "t": 201596.875,
      "d": 125,
      "v": 92
    },
    {
      "midi": 63,
      "hit": false,
      "t": 201600,
      "d": 156.25,
      "v": 106
    },
    {
      "midi": 42,
      "hit": false,
      "t": 201612.5,
      "d": 181.25,
      "v": 73
    },
    {
      "midi": 54,
      "hit": false,
      "t": 201621.875,
      "d": 143.75,
      "v": 67
    },
    {
      "midi": 68,
      "hit": false,
      "t": 201803.125,
      "d": 140.625,
      "v": 106
    },
    {
      "midi": 73,
      "hit": false,
      "t": 201996.875,
      "d": 912.5,
      "v": 103
    },
    {
      "midi": 65,
      "hit": false,
      "t": 201996.875,
      "d": 928.125,
      "v": 97
    },
    {
      "midi": 61,
      "hit": false,
      "t": 202003.125,
      "d": 912.5,
      "v": 90
    },
    {
      "midi": 68,
      "hit": false,
      "t": 202006.25,
      "d": 943.75,
      "v": 91
    },
    {
      "midi": 41,
      "hit": false,
      "t": 202015.625,
      "d": 40.625,
      "v": 78
    },
    {
      "midi": 53,
      "hit": false,
      "t": 202018.75,
      "d": 93.75,
      "v": 83
    },
    {
      "midi": 55,
      "hit": false,
      "t": 202218.75,
      "d": 156.25,
      "v": 95
    },
    {
      "midi": 56,
      "hit": false,
      "t": 202425,
      "d": 187.5,
      "v": 82
    },
    {
      "midi": 58,
      "hit": false,
      "t": 202612.5,
      "d": 215.625,
      "v": 104
    },
    {
      "midi": 56,
      "hit": false,
      "t": 202828.125,
      "d": 121.875,
      "v": 89
    },
    {
      "midi": 73,
      "hit": false,
      "t": 203046.875,
      "d": 121.875,
      "v": 87
    },
    {
      "midi": 61,
      "hit": false,
      "t": 203068.75,
      "d": 100,
      "v": 60
    },
    {
      "midi": 74,
      "hit": false,
      "t": 203259.375,
      "d": 212.5,
      "v": 81
    },
    {
      "midi": 68,
      "hit": false,
      "t": 203268.75,
      "d": 287.5,
      "v": 73
    },
    {
      "midi": 70,
      "hit": false,
      "t": 203268.75,
      "d": 293.75,
      "v": 75
    },
    {
      "midi": 62,
      "hit": false,
      "t": 203287.5,
      "d": 231.25,
      "v": 32
    },
    {
      "midi": 41,
      "hit": false,
      "t": 203468.75,
      "d": 40.625,
      "v": 70
    },
    {
      "midi": 53,
      "hit": false,
      "t": 203475,
      "d": 56.25,
      "v": 64
    },
    {
      "midi": 66,
      "hit": false,
      "t": 203709.375,
      "d": 365.625,
      "v": 56
    },
    {
      "midi": 75,
      "hit": false,
      "t": 203725,
      "d": 350,
      "v": 72
    },
    {
      "midi": 70,
      "hit": false,
      "t": 203737.5,
      "d": 356.25,
      "v": 73
    },
    {
      "midi": 63,
      "hit": false,
      "t": 203740.625,
      "d": 265.625,
      "v": 47
    },
    {
      "midi": 42,
      "hit": false,
      "t": 203775,
      "d": 106.25,
      "v": 53
    },
    {
      "midi": 54,
      "hit": false,
      "t": 203781.25,
      "d": 143.75,
      "v": 54
    },
    {
      "midi": 75,
      "hit": false,
      "t": 204165.625,
      "d": 146.875,
      "v": 89
    },
    {
      "midi": 63,
      "hit": false,
      "t": 204187.5,
      "d": 50,
      "v": 74
    },
    {
      "midi": 58,
      "hit": false,
      "t": 204193.75,
      "d": 50,
      "v": 78
    },
    {
      "midi": 73,
      "hit": false,
      "t": 204378.125,
      "d": 106.25,
      "v": 98
    },
    {
      "midi": 70,
      "hit": false,
      "t": 204578.125,
      "d": 96.875,
      "v": 101
    },
    {
      "midi": 61,
      "hit": false,
      "t": 204587.5,
      "d": 87.5,
      "v": 84
    },
    {
      "midi": 49,
      "hit": false,
      "t": 204606.25,
      "d": 106.25,
      "v": 60
    },
    {
      "midi": 73,
      "hit": false,
      "t": 204781.25,
      "d": 93.75,
      "v": 103
    },
    {
      "midi": 66,
      "hit": false,
      "t": 204971.875,
      "d": 184.375,
      "v": 97
    },
    {
      "midi": 61,
      "hit": false,
      "t": 204975,
      "d": 290.625,
      "v": 92
    },
    {
      "midi": 58,
      "hit": false,
      "t": 204990.625,
      "d": 181.25,
      "v": 85
    },
    {
      "midi": 46,
      "hit": false,
      "t": 204993.75,
      "d": 221.875,
      "v": 84
    },
    {
      "midi": 70,
      "hit": false,
      "t": 205178.125,
      "d": 162.5,
      "v": 97
    },
    {
      "midi": 61,
      "hit": false,
      "t": 205371.875,
      "d": 715.625,
      "v": 63
    },
    {
      "midi": 65,
      "hit": false,
      "t": 205390.625,
      "d": 346.875,
      "v": 85
    },
    {
      "midi": 44,
      "hit": false,
      "t": 205421.875,
      "d": 421.875,
      "v": 57
    },
    {
      "midi": 56,
      "hit": false,
      "t": 205425,
      "d": 437.5,
      "v": 46
    },
    {
      "midi": 70,
      "hit": false,
      "t": 205615.625,
      "d": 259.375,
      "v": 89
    },
    {
      "midi": 68,
      "hit": false,
      "t": 205834.375,
      "d": 240.625,
      "v": 72
    },
    {
      "midi": 65,
      "hit": false,
      "t": 206025,
      "d": 59.375,
      "v": 63
    },
    {
      "midi": 57,
      "hit": false,
      "t": 206237.5,
      "d": 481.25,
      "v": 37
    },
    {
      "midi": 61,
      "hit": false,
      "t": 206246.875,
      "d": 478.125,
      "v": 73
    },
    {
      "midi": 45,
      "hit": false,
      "t": 206246.875,
      "d": 487.5,
      "v": 35
    },
    {
      "midi": 64,
      "hit": false,
      "t": 206468.75,
      "d": 162.5,
      "v": 79
    },
    {
      "midi": 69,
      "hit": false,
      "t": 206687.5,
      "d": 50,
      "v": 69
    },
    {
      "midi": 73,
      "hit": false,
      "t": 206940.625,
      "d": 446.875,
      "v": 70
    },
    {
      "midi": 56,
      "hit": false,
      "t": 207156.25,
      "d": 137.5,
      "v": 73
    },
    {
      "midi": 44,
      "hit": false,
      "t": 207159.375,
      "d": 71.875,
      "v": 71
    },
    {
      "midi": 75,
      "hit": false,
      "t": 207368.75,
      "d": 150,
      "v": 70
    },
    {
      "midi": 77,
      "hit": false,
      "t": 207565.625,
      "d": 81.25,
      "v": 78
    },
    {
      "midi": 65,
      "hit": false,
      "t": 207575,
      "d": 46.875,
      "v": 62
    },
    {
      "midi": 56,
      "hit": false,
      "t": 207593.75,
      "d": 62.5,
      "v": 59
    },
    {
      "midi": 61,
      "hit": false,
      "t": 207600,
      "d": 43.75,
      "v": 59
    },
    {
      "midi": 68,
      "hit": false,
      "t": 207600,
      "d": 71.875,
      "v": 37
    },
    {
      "midi": 73,
      "hit": false,
      "t": 207787.5,
      "d": 71.875,
      "v": 72
    },
    {
      "midi": 75,
      "hit": false,
      "t": 207971.875,
      "d": 150,
      "v": 65
    },
    {
      "midi": 44,
      "hit": false,
      "t": 207984.375,
      "d": 46.875,
      "v": 71
    },
    {
      "midi": 66,
      "hit": false,
      "t": 207990.625,
      "d": 434.375,
      "v": 56
    },
    {
      "midi": 72,
      "hit": false,
      "t": 208012.5,
      "d": 359.375,
      "v": 41
    },
    {
      "midi": 80,
      "hit": false,
      "t": 208200,
      "d": 115.625,
      "v": 81
    },
    {
      "midi": 63,
      "hit": false,
      "t": 208409.375,
      "d": 50,
      "v": 57
    },
    {
      "midi": 60,
      "hit": false,
      "t": 208421.875,
      "d": 59.375,
      "v": 45
    },
    {
      "midi": 54,
      "hit": false,
      "t": 208431.25,
      "d": 46.875,
      "v": 52
    },
    {
      "midi": 73,
      "hit": false,
      "t": 208643.75,
      "d": 831.25,
      "v": 75
    },
    {
      "midi": 68,
      "hit": false,
      "t": 208650,
      "d": 815.625,
      "v": 68
    },
    {
      "midi": 65,
      "hit": false,
      "t": 208656.25,
      "d": 775,
      "v": 61
    },
    {
      "midi": 49,
      "hit": false,
      "t": 208906.25,
      "d": 81.25,
      "v": 36
    },
    {
      "midi": 37,
      "hit": false,
      "t": 208912.5,
      "d": 46.875,
      "v": 65
    },
    {
      "midi": 56,
      "hit": false,
      "t": 209378.125,
      "d": 46.875,
      "v": 61
    },
    {
      "midi": 72,
      "hit": false,
      "t": 209825,
      "d": 206.25,
      "v": 75
    },
    {
      "midi": 80,
      "hit": false,
      "t": 209825,
      "d": 268.75,
      "v": 85
    },
    {
      "midi": 68,
      "hit": false,
      "t": 209834.375,
      "d": 346.875,
      "v": 68
    },
    {
      "midi": 75,
      "hit": false,
      "t": 209846.875,
      "d": 115.625,
      "v": 69
    },
    {
      "midi": 72,
      "hit": false,
      "t": 210115.625,
      "d": 250,
      "v": 64
    },
    {
      "midi": 66,
      "hit": false,
      "t": 210312.5,
      "d": 50,
      "v": 63
    },
    {
      "midi": 75,
      "hit": false,
      "t": 210312.5,
      "d": 59.375,
      "v": 66
    },
    {
      "midi": 56,
      "hit": false,
      "t": 210318.75,
      "d": 71.875,
      "v": 69
    },
    {
      "midi": 68,
      "hit": false,
      "t": 210593.75,
      "d": 487.5,
      "v": 78
    },
    {
      "midi": 77,
      "hit": false,
      "t": 210596.875,
      "d": 418.75,
      "v": 87
    },
    {
      "midi": 80,
      "hit": false,
      "t": 210596.875,
      "d": 487.5,
      "v": 79
    },
    {
      "midi": 37,
      "hit": false,
      "t": 210850,
      "d": 34.375,
      "v": 87
    },
    {
      "midi": 49,
      "hit": false,
      "t": 210850,
      "d": 96.875,
      "v": 87
    },
    {
      "midi": 73,
      "hit": false,
      "t": 211062.5,
      "d": 87.5,
      "v": 73
    },
    {
      "midi": 80,
      "hit": false,
      "t": 211271.875,
      "d": 153.125,
      "v": 84
    },
    {
      "midi": 61,
      "hit": false,
      "t": 211275,
      "d": 43.75,
      "v": 71
    },
    {
      "midi": 68,
      "hit": false,
      "t": 211275,
      "d": 109.375,
      "v": 76
    },
    {
      "midi": 65,
      "hit": false,
      "t": 211281.25,
      "d": 56.25,
      "v": 56
    },
    {
      "midi": 73,
      "hit": false,
      "t": 211281.25,
      "d": 93.75,
      "v": 62
    },
    {
      "midi": 77,
      "hit": false,
      "t": 211296.875,
      "d": 40.625,
      "v": 72
    },
    {
      "midi": 56,
      "hit": false,
      "t": 211296.875,
      "d": 46.875,
      "v": 48
    },
    {
      "midi": 81,
      "hit": false,
      "t": 211506.25,
      "d": 368.75,
      "v": 83
    },
    {
      "midi": 77,
      "hit": false,
      "t": 211509.375,
      "d": 296.875,
      "v": 76
    },
    {
      "midi": 69,
      "hit": false,
      "t": 211509.375,
      "d": 346.875,
      "v": 76
    },
    {
      "midi": 75,
      "hit": false,
      "t": 211509.375,
      "d": 353.125,
      "v": 69
    },
    {
      "midi": 36,
      "hit": false,
      "t": 211715.625,
      "d": 37.5,
      "v": 83
    },
    {
      "midi": 48,
      "hit": false,
      "t": 211715.625,
      "d": 87.5,
      "v": 91
    },
    {
      "midi": 77,
      "hit": false,
      "t": 211940.625,
      "d": 115.625,
      "v": 81
    },
    {
      "midi": 63,
      "hit": false,
      "t": 212131.25,
      "d": 37.5,
      "v": 76
    },
    {
      "midi": 75,
      "hit": false,
      "t": 212131.25,
      "d": 118.75,
      "v": 66
    },
    {
      "midi": 57,
      "hit": false,
      "t": 212137.5,
      "d": 46.875,
      "v": 64
    },
    {
      "midi": 81,
      "hit": false,
      "t": 212137.5,
      "d": 56.25,
      "v": 74
    },
    {
      "midi": 65,
      "hit": false,
      "t": 212140.625,
      "d": 62.5,
      "v": 44
    },
    {
      "midi": 69,
      "hit": false,
      "t": 212140.625,
      "d": 75,
      "v": 70
    },
    {
      "midi": 60,
      "hit": false,
      "t": 212146.875,
      "d": 37.5,
      "v": 69
    },
    {
      "midi": 77,
      "hit": false,
      "t": 212146.875,
      "d": 62.5,
      "v": 68
    },
    {
      "midi": 82,
      "hit": false,
      "t": 212362.5,
      "d": 512.5,
      "v": 101
    },
    {
      "midi": 74,
      "hit": false,
      "t": 212375,
      "d": 290.625,
      "v": 86
    },
    {
      "midi": 77,
      "hit": false,
      "t": 212378.125,
      "d": 209.375,
      "v": 94
    },
    {
      "midi": 70,
      "hit": false,
      "t": 212378.125,
      "d": 540.625,
      "v": 93
    },
    {
      "midi": 37,
      "hit": false,
      "t": 212390.625,
      "d": 65.625,
      "v": 33
    },
    {
      "midi": 34,
      "hit": false,
      "t": 212559.375,
      "d": 46.875,
      "v": 98
    },
    {
      "midi": 46,
      "hit": false,
      "t": 212575,
      "d": 68.75,
      "v": 105
    },
    {
      "midi": 77,
      "hit": false,
      "t": 212778.125,
      "d": 153.125,
      "v": 75
    },
    {
      "midi": 65,
      "hit": false,
      "t": 212981.25,
      "d": 43.75,
      "v": 74
    },
    {
      "midi": 62,
      "hit": false,
      "t": 212987.5,
      "d": 34.375,
      "v": 81
    },
    {
      "midi": 58,
      "hit": false,
      "t": 213000,
      "d": 56.25,
      "v": 78
    },
    {
      "midi": 56,
      "hit": false,
      "t": 213000,
      "d": 68.75,
      "v": 69
    },
    {
      "midi": 74,
      "hit": false,
      "t": 213015.625,
      "d": 103.125,
      "v": 72
    },
    {
      "midi": 82,
      "hit": false,
      "t": 213200,
      "d": 281.25,
      "v": 113
    },
    {
      "midi": 74,
      "hit": false,
      "t": 213200,
      "d": 362.5,
      "v": 100
    },
    {
      "midi": 70,
      "hit": false,
      "t": 213212.5,
      "d": 356.25,
      "v": 107
    },
    {
      "midi": 77,
      "hit": false,
      "t": 213215.625,
      "d": 284.375,
      "v": 102
    },
    {
      "midi": 34,
      "hit": false,
      "t": 213406.25,
      "d": 143.75,
      "v": 106
    },
    {
      "midi": 46,
      "hit": false,
      "t": 213412.5,
      "d": 206.25,
      "v": 120
    },
    {
      "midi": 77,
      "hit": false,
      "t": 213640.625,
      "d": 184.375,
      "v": 98
    },
    {
      "midi": 80,
      "hit": false,
      "t": 213803.125,
      "d": 256.25,
      "v": 105
    },
    {
      "midi": 47,
      "hit": false,
      "t": 213812.5,
      "d": 250,
      "v": 86
    },
    {
      "midi": 68,
      "hit": false,
      "t": 213812.5,
      "d": 284.375,
      "v": 97
    },
    {
      "midi": 74,
      "hit": false,
      "t": 213818.75,
      "d": 181.25,
      "v": 94
    },
    {
      "midi": 35,
      "hit": false,
      "t": 213821.875,
      "d": 137.5,
      "v": 91
    },
    {
      "midi": 77,
      "hit": false,
      "t": 214037.5,
      "d": 50,
      "v": 93
    },
    {
      "midi": 78,
      "hit": false,
      "t": 214218.75,
      "d": 168.75,
      "v": 109
    },
    {
      "midi": 48,
      "hit": false,
      "t": 214221.875,
      "d": 106.25,
      "v": 100
    },
    {
      "midi": 36,
      "hit": false,
      "t": 214225,
      "d": 34.375,
      "v": 94
    },
    {
      "midi": 66,
      "hit": false,
      "t": 214225,
      "d": 143.75,
      "v": 107
    },
    {
      "midi": 75,
      "hit": false,
      "t": 214443.75,
      "d": 118.75,
      "v": 87
    },
    {
      "midi": 44,
      "hit": false,
      "t": 214609.375,
      "d": 100,
      "v": 64
    },
    {
      "midi": 48,
      "hit": false,
      "t": 214609.375,
      "d": 100,
      "v": 64
    },
    {
      "midi": 51,
      "hit": false,
      "t": 214609.375,
      "d": 100,
      "v": 64
    },
    {
      "midi": 78,
      "hit": false,
      "t": 214625,
      "d": 156.25,
      "v": 99
    },
    {
      "midi": 66,
      "hit": false,
      "t": 214631.25,
      "d": 128.125,
      "v": 87
    },
    {
      "midi": 79,
      "hit": false,
      "t": 214859.375,
      "d": 287.5,
      "v": 99
    },
    {
      "midi": 73,
      "hit": false,
      "t": 214859.375,
      "d": 321.875,
      "v": 94
    },
    {
      "midi": 75,
      "hit": false,
      "t": 214862.5,
      "d": 306.25,
      "v": 87
    },
    {
      "midi": 67,
      "hit": false,
      "t": 214868.75,
      "d": 293.75,
      "v": 89
    },
    {
      "midi": 46,
      "hit": false,
      "t": 214881.25,
      "d": 62.5,
      "v": 41
    },
    {
      "midi": 77,
      "hit": false,
      "t": 214915.625,
      "d": 56.25,
      "v": 34
    },
    {
      "midi": 34,
      "hit": false,
      "t": 215062.5,
      "d": 31.25,
      "v": 110
    },
    {
      "midi": 46,
      "hit": false,
      "t": 215062.5,
      "d": 93.75,
      "v": 85
    },
    {
      "midi": 75,
      "hit": false,
      "t": 215268.75,
      "d": 84.375,
      "v": 88
    },
    {
      "midi": 56,
      "hit": false,
      "t": 215453.125,
      "d": 46.875,
      "v": 64
    },
    {
      "midi": 61,
      "hit": false,
      "t": 215456.25,
      "d": 37.5,
      "v": 84
    },
    {
      "midi": 63,
      "hit": false,
      "t": 215456.25,
      "d": 43.75,
      "v": 74
    },
    {
      "midi": 79,
      "hit": false,
      "t": 215462.5,
      "d": 46.875,
      "v": 103
    },
    {
      "midi": 73,
      "hit": false,
      "t": 215468.75,
      "d": 137.5,
      "v": 83
    },
    {
      "midi": 67,
      "hit": false,
      "t": 215471.875,
      "d": 46.875,
      "v": 83
    },
    {
      "midi": 75,
      "hit": false,
      "t": 215475,
      "d": 75,
      "v": 69
    },
    {
      "midi": 58,
      "hit": false,
      "t": 215500,
      "d": 62.5,
      "v": 50
    },
    {
      "midi": 55,
      "hit": false,
      "t": 215525,
      "d": 56.25,
      "v": 24
    },
    {
      "midi": 72,
      "hit": false,
      "t": 215687.5,
      "d": 318.75,
      "v": 82
    },
    {
      "midi": 80,
      "hit": false,
      "t": 215687.5,
      "d": 328.125,
      "v": 96
    },
    {
      "midi": 75,
      "hit": false,
      "t": 215693.75,
      "d": 306.25,
      "v": 81
    },
    {
      "midi": 68,
      "hit": false,
      "t": 215696.875,
      "d": 678.125,
      "v": 84
    },
    {
      "midi": 32,
      "hit": false,
      "t": 215868.75,
      "d": 31.25,
      "v": 95
    },
    {
      "midi": 44,
      "hit": false,
      "t": 215871.875,
      "d": 87.5,
      "v": 101
    },
    {
      "midi": 77,
      "hit": false,
      "t": 216093.75,
      "d": 137.5,
      "v": 83
    },
    {
      "midi": 63,
      "hit": false,
      "t": 216268.75,
      "d": 37.5,
      "v": 80
    },
    {
      "midi": 54,
      "hit": false,
      "t": 216281.25,
      "d": 46.875,
      "v": 65
    },
    {
      "midi": 60,
      "hit": false,
      "t": 216287.5,
      "d": 43.75,
      "v": 61
    },
    {
      "midi": 75,
      "hit": false,
      "t": 216287.5,
      "d": 143.75,
      "v": 77
    },
    {
      "midi": 80,
      "hit": false,
      "t": 216500,
      "d": 256.25,
      "v": 88
    },
    {
      "midi": 68,
      "hit": false,
      "t": 216506.25,
      "d": 318.75,
      "v": 70
    },
    {
      "midi": 75,
      "hit": false,
      "t": 216518.75,
      "d": 300,
      "v": 62
    },
    {
      "midi": 72,
      "hit": false,
      "t": 216521.875,
      "d": 290.625,
      "v": 76
    },
    {
      "midi": 36,
      "hit": false,
      "t": 216687.5,
      "d": 37.5,
      "v": 84
    },
    {
      "midi": 48,
      "hit": false,
      "t": 216693.75,
      "d": 62.5,
      "v": 71
    },
    {
      "midi": 68,
      "hit": false,
      "t": 216906.25,
      "d": 137.5,
      "v": 84
    },
    {
      "midi": 60,
      "hit": false,
      "t": 217100,
      "d": 62.5,
      "v": 56
    },
    {
      "midi": 66,
      "hit": false,
      "t": 217106.25,
      "d": 43.75,
      "v": 66
    },
    {
      "midi": 70,
      "hit": false,
      "t": 217118.75,
      "d": 140.625,
      "v": 86
    },
    {
      "midi": 56,
      "hit": false,
      "t": 217125,
      "d": 56.25,
      "v": 53
    },
    {
      "midi": 72,
      "hit": false,
      "t": 217331.25,
      "d": 87.5,
      "v": 89
    },
    {
      "midi": 37,
      "hit": false,
      "t": 217534.375,
      "d": 181.25,
      "v": 78
    },
    {
      "midi": 49,
      "hit": false,
      "t": 217606.25,
      "d": 165.625,
      "v": 76
    },
    {
      "midi": 73,
      "hit": false,
      "t": 217625,
      "d": 137.5,
      "v": 112
    },
    {
      "midi": 75,
      "hit": false,
      "t": 217846.875,
      "d": 134.375,
      "v": 80
    },
    {
      "midi": 77,
      "hit": false,
      "t": 218087.5,
      "d": 121.875,
      "v": 76
    },
    {
      "midi": 56,
      "hit": false,
      "t": 218093.75,
      "d": 50,
      "v": 47
    },
    {
      "midi": 61,
      "hit": false,
      "t": 218096.875,
      "d": 46.875,
      "v": 51
    },
    {
      "midi": 68,
      "hit": false,
      "t": 218112.5,
      "d": 65.625,
      "v": 46
    },
    {
      "midi": 73,
      "hit": false,
      "t": 218346.875,
      "d": 390.625,
      "v": 66
    },
    {
      "midi": 65,
      "hit": false,
      "t": 218350,
      "d": 303.125,
      "v": 66
    },
    {
      "midi": 44,
      "hit": false,
      "t": 218590.625,
      "d": 103.125,
      "v": 61
    },
    {
      "midi": 56,
      "hit": false,
      "t": 218590.625,
      "d": 159.375,
      "v": 63
    },
    {
      "midi": 75,
      "hit": false,
      "t": 218837.5,
      "d": 153.125,
      "v": 56
    },
    {
      "midi": 65,
      "hit": false,
      "t": 219050,
      "d": 62.5,
      "v": 45
    },
    {
      "midi": 61,
      "hit": false,
      "t": 219059.375,
      "d": 43.75,
      "v": 59
    },
    {
      "midi": 56,
      "hit": false,
      "t": 219062.5,
      "d": 53.125,
      "v": 50
    },
    {
      "midi": 77,
      "hit": false,
      "t": 219062.5,
      "d": 62.5,
      "v": 78
    },
    {
      "midi": 73,
      "hit": false,
      "t": 219078.125,
      "d": 46.875,
      "v": 65
    },
    {
      "midi": 68,
      "hit": false,
      "t": 219081.25,
      "d": 287.5,
      "v": 50
    },
    {
      "midi": 80,
      "hit": false,
      "t": 219275,
      "d": 400,
      "v": 105
    },
    {
      "midi": 68,
      "hit": false,
      "t": 219500,
      "d": 103.125,
      "v": 78
    },
    {
      "midi": 44,
      "hit": false,
      "t": 219506.25,
      "d": 68.75,
      "v": 75
    },
    {
      "midi": 56,
      "hit": false,
      "t": 219506.25,
      "d": 131.25,
      "v": 75
    },
    {
      "midi": 72,
      "hit": false,
      "t": 219515.625,
      "d": 109.375,
      "v": 74
    },
    {
      "midi": 75,
      "hit": false,
      "t": 219515.625,
      "d": 125,
      "v": 74
    },
    {
      "midi": 84,
      "hit": false,
      "t": 219946.875,
      "d": 125,
      "v": 94
    },
    {
      "midi": 66,
      "hit": false,
      "t": 219950,
      "d": 43.75,
      "v": 66
    },
    {
      "midi": 78,
      "hit": false,
      "t": 219953.125,
      "d": 103.125,
      "v": 81
    },
    {
      "midi": 63,
      "hit": false,
      "t": 219962.5,
      "d": 40.625,
      "v": 70
    },
    {
      "midi": 72,
      "hit": false,
      "t": 219978.125,
      "d": 62.5,
      "v": 43
    },
    {
      "midi": 60,
      "hit": false,
      "t": 219987.5,
      "d": 71.875,
      "v": 35
    },
    {
      "midi": 82,
      "hit": false,
      "t": 220184.375,
      "d": 62.5,
      "v": 107
    },
    {
      "midi": 72,
      "hit": false,
      "t": 220187.5,
      "d": 40.625,
      "v": 93
    },
    {
      "midi": 78,
      "hit": false,
      "t": 220187.5,
      "d": 43.75,
      "v": 93
    },
    {
      "midi": 51,
      "hit": false,
      "t": 220393.75,
      "d": 40.625,
      "v": 75
    },
    {
      "midi": 39,
      "hit": false,
      "t": 220400,
      "d": 40.625,
      "v": 62
    },
    {
      "midi": 72,
      "hit": false,
      "t": 220631.25,
      "d": 243.75,
      "v": 90
    },
    {
      "midi": 70,
      "hit": false,
      "t": 220821.875,
      "d": 446.875,
      "v": 103
    },
    {
      "midi": 60,
      "hit": false,
      "t": 220831.25,
      "d": 340.625,
      "v": 83
    },
    {
      "midi": 66,
      "hit": false,
      "t": 220831.25,
      "d": 353.125,
      "v": 81
    },
    {
      "midi": 60,
      "hit": false,
      "t": 221268.75,
      "d": 128.125,
      "v": 91
    },
    {
      "midi": 66,
      "hit": false,
      "t": 221268.75,
      "d": 196.875,
      "v": 92
    },
    {
      "midi": 68,
      "hit": false,
      "t": 221275,
      "d": 190.625,
      "v": 103
    },
    {
      "midi": 56,
      "hit": false,
      "t": 221287.5,
      "d": 106.25,
      "v": 93
    },
    {
      "midi": 44,
      "hit": false,
      "t": 221293.75,
      "d": 50,
      "v": 88
    },
    {
      "midi": 70,
      "hit": false,
      "t": 221487.5,
      "d": 137.5,
      "v": 103
    },
    {
      "midi": 72,
      "hit": false,
      "t": 221690.625,
      "d": 78.125,
      "v": 102
    },
    {
      "midi": 66,
      "hit": false,
      "t": 221700,
      "d": 53.125,
      "v": 62
    },
    {
      "midi": 63,
      "hit": false,
      "t": 221715.625,
      "d": 43.75,
      "v": 60
    },
    {
      "midi": 60,
      "hit": false,
      "t": 221715.625,
      "d": 53.125,
      "v": 44
    },
    {
      "midi": 80,
      "hit": false,
      "t": 221900,
      "d": 315.625,
      "v": 112
    },
    {
      "midi": 56,
      "hit": false,
      "t": 222093.75,
      "d": 115.625,
      "v": 95
    },
    {
      "midi": 44,
      "hit": false,
      "t": 222096.875,
      "d": 46.875,
      "v": 87
    },
    {
      "midi": 78,
      "hit": false,
      "t": 222293.75,
      "d": 125,
      "v": 94
    },
    {
      "midi": 66,
      "hit": false,
      "t": 222481.25,
      "d": 75,
      "v": 84
    },
    {
      "midi": 48,
      "hit": false,
      "t": 222484.375,
      "d": 53.125,
      "v": 86
    },
    {
      "midi": 60,
      "hit": false,
      "t": 222484.375,
      "d": 112.5,
      "v": 85
    },
    {
      "midi": 75,
      "hit": false,
      "t": 222484.375,
      "d": 121.875,
      "v": 87
    },
    {
      "midi": 77,
      "hit": false,
      "t": 222693.75,
      "d": 68.75,
      "v": 110
    },
    {
      "midi": 65,
      "hit": false,
      "t": 222912.5,
      "d": 137.5,
      "v": 101
    },
    {
      "midi": 73,
      "hit": false,
      "t": 222912.5,
      "d": 181.25,
      "v": 105
    },
    {
      "midi": 49,
      "hit": false,
      "t": 222918.75,
      "d": 115.625,
      "v": 76
    },
    {
      "midi": 61,
      "hit": false,
      "t": 222925,
      "d": 159.375,
      "v": 83
    },
    {
      "midi": 56,
      "hit": false,
      "t": 222937.5,
      "d": 109.375,
      "v": 62
    },
    {
      "midi": 61,
      "hit": false,
      "t": 223175,
      "d": 65.625,
      "v": 35
    },
    {
      "midi": 84,
      "hit": false,
      "t": 223343.75,
      "d": 156.25,
      "v": 92
    },
    {
      "midi": 61,
      "hit": false,
      "t": 223356.25,
      "d": 93.75,
      "v": 58
    },
    {
      "midi": 65,
      "hit": false,
      "t": 223362.5,
      "d": 43.75,
      "v": 66
    },
    {
      "midi": 56,
      "hit": false,
      "t": 223365.625,
      "d": 53.125,
      "v": 56
    },
    {
      "midi": 82,
      "hit": false,
      "t": 223568.75,
      "d": 40.625,
      "v": 101
    },
    {
      "midi": 77,
      "hit": false,
      "t": 223575,
      "d": 31.25,
      "v": 103
    },
    {
      "midi": 72,
      "hit": false,
      "t": 224000,
      "d": 50,
      "v": 88
    },
    {
      "midi": 56,
      "hit": false,
      "t": 224193.75,
      "d": 50,
      "v": 51
    },
    {
      "midi": 70,
      "hit": false,
      "t": 224200,
      "d": 143.75,
      "v": 90
    },
    {
      "midi": 44,
      "hit": false,
      "t": 224206.25,
      "d": 81.25,
      "v": 60
    },
    {
      "midi": 61,
      "hit": false,
      "t": 224212.5,
      "d": 31.25,
      "v": 80
    },
    {
      "midi": 65,
      "hit": false,
      "t": 224212.5,
      "d": 50,
      "v": 72
    },
    {
      "midi": 80,
      "hit": false,
      "t": 224625,
      "d": 256.25,
      "v": 113
    },
    {
      "midi": 68,
      "hit": false,
      "t": 224625,
      "d": 293.75,
      "v": 113
    },
    {
      "midi": 49,
      "hit": false,
      "t": 224640.625,
      "d": 100,
      "v": 85
    },
    {
      "midi": 37,
      "hit": false,
      "t": 224643.75,
      "d": 34.375,
      "v": 76
    },
    {
      "midi": 77,
      "hit": false,
      "t": 224850,
      "d": 134.375,
      "v": 83
    },
    {
      "midi": 73,
      "hit": false,
      "t": 224878.125,
      "d": 59.375,
      "v": 48
    },
    {
      "midi": 80,
      "hit": false,
      "t": 225025,
      "d": 146.875,
      "v": 90
    },
    {
      "midi": 56,
      "hit": false,
      "t": 225031.25,
      "d": 43.75,
      "v": 70
    },
    {
      "midi": 61,
      "hit": false,
      "t": 225034.375,
      "d": 37.5,
      "v": 72
    },
    {
      "midi": 65,
      "hit": false,
      "t": 225034.375,
      "d": 56.25,
      "v": 54
    },
    {
      "midi": 68,
      "hit": false,
      "t": 225043.75,
      "d": 75,
      "v": 62
    },
    {
      "midi": 73,
      "hit": false,
      "t": 225056.25,
      "d": 56.25,
      "v": 46
    },
    {
      "midi": 69,
      "hit": false,
      "t": 225256.25,
      "d": 306.25,
      "v": 91
    },
    {
      "midi": 77,
      "hit": false,
      "t": 225256.25,
      "d": 306.25,
      "v": 100
    },
    {
      "midi": 75,
      "hit": false,
      "t": 225256.25,
      "d": 331.25,
      "v": 84
    },
    {
      "midi": 81,
      "hit": false,
      "t": 225259.375,
      "d": 321.875,
      "v": 95
    },
    {
      "midi": 39,
      "hit": false,
      "t": 225278.125,
      "d": 78.125,
      "v": 26
    },
    {
      "midi": 36,
      "hit": false,
      "t": 225446.875,
      "d": 40.625,
      "v": 79
    },
    {
      "midi": 48,
      "hit": false,
      "t": 225446.875,
      "d": 121.875,
      "v": 93
    },
    {
      "midi": 77,
      "hit": false,
      "t": 225681.25,
      "d": 40.625,
      "v": 89
    },
    {
      "midi": 75,
      "hit": false,
      "t": 225862.5,
      "d": 140.625,
      "v": 73
    },
    {
      "midi": 81,
      "hit": false,
      "t": 225865.625,
      "d": 43.75,
      "v": 86
    },
    {
      "midi": 63,
      "hit": false,
      "t": 225868.75,
      "d": 37.5,
      "v": 69
    },
    {
      "midi": 57,
      "hit": false,
      "t": 225871.875,
      "d": 40.625,
      "v": 70
    },
    {
      "midi": 60,
      "hit": false,
      "t": 225875,
      "d": 37.5,
      "v": 69
    },
    {
      "midi": 65,
      "hit": false,
      "t": 225881.25,
      "d": 56.25,
      "v": 27
    },
    {
      "midi": 77,
      "hit": false,
      "t": 225887.5,
      "d": 43.75,
      "v": 69
    },
    {
      "midi": 69,
      "hit": false,
      "t": 225887.5,
      "d": 62.5,
      "v": 47
    },
    {
      "midi": 74,
      "hit": false,
      "t": 226093.75,
      "d": 303.125,
      "v": 85
    },
    {
      "midi": 82,
      "hit": false,
      "t": 226093.75,
      "d": 393.75,
      "v": 100
    },
    {
      "midi": 70,
      "hit": false,
      "t": 226103.125,
      "d": 468.75,
      "v": 88
    },
    {
      "midi": 77,
      "hit": false,
      "t": 226106.25,
      "d": 234.375,
      "v": 85
    },
    {
      "midi": 34,
      "hit": false,
      "t": 226281.25,
      "d": 37.5,
      "v": 92
    },
    {
      "midi": 46,
      "hit": false,
      "t": 226290.625,
      "d": 87.5,
      "v": 105
    },
    {
      "midi": 77,
      "hit": false,
      "t": 226518.75,
      "d": 50,
      "v": 78
    },
    {
      "midi": 62,
      "hit": false,
      "t": 226690.625,
      "d": 37.5,
      "v": 80
    },
    {
      "midi": 65,
      "hit": false,
      "t": 226693.75,
      "d": 50,
      "v": 62
    },
    {
      "midi": 56,
      "hit": false,
      "t": 226700,
      "d": 87.5,
      "v": 73
    },
    {
      "midi": 58,
      "hit": false,
      "t": 226706.25,
      "d": 50,
      "v": 75
    },
    {
      "midi": 74,
      "hit": false,
      "t": 226725,
      "d": 56.25,
      "v": 67
    },
    {
      "midi": 82,
      "hit": false,
      "t": 226903.125,
      "d": 290.625,
      "v": 114
    },
    {
      "midi": 74,
      "hit": false,
      "t": 226909.375,
      "d": 346.875,
      "v": 103
    },
    {
      "midi": 70,
      "hit": false,
      "t": 226912.5,
      "d": 340.625,
      "v": 108
    },
    {
      "midi": 77,
      "hit": false,
      "t": 226915.625,
      "d": 281.25,
      "v": 103
    },
    {
      "midi": 46,
      "hit": false,
      "t": 226934.375,
      "d": 65.625,
      "v": 53
    },
    {
      "midi": 46,
      "hit": false,
      "t": 227090.625,
      "d": 156.25,
      "v": 99
    },
    {
      "midi": 34,
      "hit": false,
      "t": 227100,
      "d": 184.375,
      "v": 108
    },
    {
      "midi": 77,
      "hit": false,
      "t": 227331.25,
      "d": 162.5,
      "v": 87
    },
    {
      "midi": 80,
      "hit": false,
      "t": 227493.75,
      "d": 253.125,
      "v": 106
    },
    {
      "midi": 68,
      "hit": false,
      "t": 227500,
      "d": 175,
      "v": 102
    },
    {
      "midi": 47,
      "hit": false,
      "t": 227503.125,
      "d": 153.125,
      "v": 95
    },
    {
      "midi": 74,
      "hit": false,
      "t": 227503.125,
      "d": 196.875,
      "v": 95
    },
    {
      "midi": 35,
      "hit": false,
      "t": 227512.5,
      "d": 96.875,
      "v": 83
    },
    {
      "midi": 77,
      "hit": false,
      "t": 227734.375,
      "d": 37.5,
      "v": 85
    },
    {
      "midi": 36,
      "hit": false,
      "t": 227915.625,
      "d": 43.75,
      "v": 101
    },
    {
      "midi": 48,
      "hit": false,
      "t": 227915.625,
      "d": 90.625,
      "v": 106
    },
    {
      "midi": 78,
      "hit": false,
      "t": 227915.625,
      "d": 171.875,
      "v": 114
    },
    {
      "midi": 66,
      "hit": false,
      "t": 227918.75,
      "d": 146.875,
      "v": 111
    },
    {
      "midi": 75,
      "hit": false,
      "t": 228137.5,
      "d": 50,
      "v": 80
    },
    {
      "midi": 78,
      "hit": false,
      "t": 228309.375,
      "d": 106.25,
      "v": 101
    },
    {
      "midi": 66,
      "hit": false,
      "t": 228312.5,
      "d": 90.625,
      "v": 96
    },
    {
      "midi": 63,
      "hit": false,
      "t": 228318.75,
      "d": 40.625,
      "v": 84
    },
    {
      "midi": 75,
      "hit": false,
      "t": 228325,
      "d": 115.625,
      "v": 88
    },
    {
      "midi": 60,
      "hit": false,
      "t": 228337.5,
      "d": 43.75,
      "v": 71
    },
    {
      "midi": 79,
      "hit": false,
      "t": 228550,
      "d": 287.5,
      "v": 114
    },
    {
      "midi": 75,
      "hit": false,
      "t": 228553.125,
      "d": 315.625,
      "v": 97
    },
    {
      "midi": 73,
      "hit": false,
      "t": 228553.125,
      "d": 321.875,
      "v": 102
    },
    {
      "midi": 67,
      "hit": false,
      "t": 228556.25,
      "d": 46.875,
      "v": 110
    },
    {
      "midi": 67,
      "hit": false,
      "t": 228656.25,
      "d": 190.625,
      "v": 38
    },
    {
      "midi": 34,
      "hit": false,
      "t": 228737.5,
      "d": 37.5,
      "v": 99
    },
    {
      "midi": 46,
      "hit": false,
      "t": 228743.75,
      "d": 84.375,
      "v": 115
    },
    {
      "midi": 75,
      "hit": false,
      "t": 228965.625,
      "d": 75,
      "v": 87
    },
    {
      "midi": 61,
      "hit": false,
      "t": 229150,
      "d": 34.375,
      "v": 75
    },
    {
      "midi": 63,
      "hit": false,
      "t": 229156.25,
      "d": 46.875,
      "v": 64
    },
    {
      "midi": 67,
      "hit": false,
      "t": 229156.25,
      "d": 56.25,
      "v": 106
    },
    {
      "midi": 79,
      "hit": false,
      "t": 229156.25,
      "d": 96.875,
      "v": 112
    },
    {
      "midi": 73,
      "hit": false,
      "t": 229162.5,
      "d": 181.25,
      "v": 89
    },
    {
      "midi": 75,
      "hit": false,
      "t": 229165.625,
      "d": 103.125,
      "v": 84
    },
    {
      "midi": 58,
      "hit": false,
      "t": 229168.75,
      "d": 46.875,
      "v": 66
    },
    {
      "midi": 55,
      "hit": false,
      "t": 229178.125,
      "d": 46.875,
      "v": 51
    },
    {
      "midi": 80,
      "hit": false,
      "t": 229390.625,
      "d": 321.875,
      "v": 104
    },
    {
      "midi": 72,
      "hit": false,
      "t": 229390.625,
      "d": 331.25,
      "v": 97
    },
    {
      "midi": 68,
      "hit": false,
      "t": 229393.75,
      "d": 506.25,
      "v": 100
    },
    {
      "midi": 75,
      "hit": false,
      "t": 229406.25,
      "d": 300,
      "v": 93
    },
    {
      "midi": 32,
      "hit": false,
      "t": 229575,
      "d": 31.25,
      "v": 100
    },
    {
      "midi": 44,
      "hit": false,
      "t": 229578.125,
      "d": 96.875,
      "v": 96
    },
    {
      "midi": 77,
      "hit": false,
      "t": 229793.75,
      "d": 140.625,
      "v": 91
    },
    {
      "midi": 66,
      "hit": false,
      "t": 229968.75,
      "d": 40.625,
      "v": 90
    },
    {
      "midi": 56,
      "hit": false,
      "t": 229984.375,
      "d": 65.625,
      "v": 76
    },
    {
      "midi": 60,
      "hit": false,
      "t": 229993.75,
      "d": 40.625,
      "v": 64
    },
    {
      "midi": 75,
      "hit": false,
      "t": 229993.75,
      "d": 165.625,
      "v": 82
    },
    {
      "midi": 80,
      "hit": false,
      "t": 230184.375,
      "d": 221.875,
      "v": 103
    },
    {
      "midi": 72,
      "hit": false,
      "t": 230187.5,
      "d": 281.25,
      "v": 96
    },
    {
      "midi": 68,
      "hit": false,
      "t": 230190.625,
      "d": 278.125,
      "v": 91
    },
    {
      "midi": 75,
      "hit": false,
      "t": 230200,
      "d": 284.375,
      "v": 43
    },
    {
      "midi": 42,
      "hit": false,
      "t": 230243.75,
      "d": 65.625,
      "v": 44
    },
    {
      "midi": 48,
      "hit": false,
      "t": 230384.375,
      "d": 112.5,
      "v": 87
    },
    {
      "midi": 36,
      "hit": false,
      "t": 230387.5,
      "d": 37.5,
      "v": 76
    },
    {
      "midi": 68,
      "hit": false,
      "t": 230590.625,
      "d": 121.875,
      "v": 102
    },
    {
      "midi": 66,
      "hit": false,
      "t": 230781.25,
      "d": 43.75,
      "v": 87
    },
    {
      "midi": 70,
      "hit": false,
      "t": 230781.25,
      "d": 137.5,
      "v": 105
    },
    {
      "midi": 63,
      "hit": false,
      "t": 230793.75,
      "d": 43.75,
      "v": 79
    },
    {
      "midi": 60,
      "hit": false,
      "t": 230793.75,
      "d": 46.875,
      "v": 62
    },
    {
      "midi": 72,
      "hit": false,
      "t": 230987.5,
      "d": 103.125,
      "v": 107
    },
    {
      "midi": 49,
      "hit": false,
      "t": 231193.75,
      "d": 143.75,
      "v": 93
    },
    {
      "midi": 73,
      "hit": false,
      "t": 231193.75,
      "d": 150,
      "v": 116
    },
    {
      "midi": 61,
      "hit": false,
      "t": 231193.75,
      "d": 181.25,
      "v": 102
    },
    {
      "midi": 75,
      "hit": false,
      "t": 231412.5,
      "d": 112.5,
      "v": 100
    },
    {
      "midi": 65,
      "hit": false,
      "t": 231603.125,
      "d": 40.625,
      "v": 85
    },
    {
      "midi": 56,
      "hit": false,
      "t": 231603.125,
      "d": 50,
      "v": 75
    },
    {
      "midi": 61,
      "hit": false,
      "t": 231606.25,
      "d": 46.875,
      "v": 80
    },
    {
      "midi": 77,
      "hit": false,
      "t": 231621.875,
      "d": 65.625,
      "v": 117
    },
    {
      "midi": 73,
      "hit": false,
      "t": 231821.875,
      "d": 196.875,
      "v": 114
    },
    {
      "midi": 59,
      "hit": false,
      "t": 232012.5,
      "d": 106.25,
      "v": 105
    },
    {
      "midi": 47,
      "hit": false,
      "t": 232021.875,
      "d": 37.5,
      "v": 90
    },
    {
      "midi": 73,
      "hit": false,
      "t": 232218.75,
      "d": 43.75,
      "v": 100
    },
    {
      "midi": 80,
      "hit": false,
      "t": 232218.75,
      "d": 78.125,
      "v": 107
    },
    {
      "midi": 68,
      "hit": false,
      "t": 232228.125,
      "d": 34.375,
      "v": 86
    },
    {
      "midi": 82,
      "hit": false,
      "t": 232418.75,
      "d": 71.875,
      "v": 115
    },
    {
      "midi": 61,
      "hit": false,
      "t": 232425,
      "d": 53.125,
      "v": 94
    },
    {
      "midi": 70,
      "hit": false,
      "t": 232431.25,
      "d": 43.75,
      "v": 107
    },
    {
      "midi": 65,
      "hit": false,
      "t": 232434.375,
      "d": 40.625,
      "v": 79
    },
    {
      "midi": 80,
      "hit": false,
      "t": 232646.875,
      "d": 353.125,
      "v": 106
    },
    {
      "midi": 68,
      "hit": false,
      "t": 232653.125,
      "d": 321.875,
      "v": 95
    },
    {
      "midi": 73,
      "hit": false,
      "t": 232656.25,
      "d": 43.75,
      "v": 83
    },
    {
      "midi": 73,
      "hit": false,
      "t": 232750,
      "d": 228.125,
      "v": 32
    },
    {
      "midi": 58,
      "hit": false,
      "t": 232840.625,
      "d": 118.75,
      "v": 100
    },
    {
      "midi": 46,
      "hit": false,
      "t": 232843.75,
      "d": 59.375,
      "v": 95
    },
    {
      "midi": 78,
      "hit": false,
      "t": 233062.5,
      "d": 137.5,
      "v": 82
    },
    {
      "midi": 66,
      "hit": false,
      "t": 233259.375,
      "d": 50,
      "v": 73
    },
    {
      "midi": 73,
      "hit": false,
      "t": 233278.125,
      "d": 43.75,
      "v": 83
    },
    {
      "midi": 61,
      "hit": false,
      "t": 233281.25,
      "d": 43.75,
      "v": 68
    },
    {
      "midi": 63,
      "hit": false,
      "t": 233287.5,
      "d": 50,
      "v": 50
    },
    {
      "midi": 70,
      "hit": false,
      "t": 233515.625,
      "d": 406.25,
      "v": 105
    },
    {
      "midi": 58,
      "hit": false,
      "t": 233718.75,
      "d": 243.75,
      "v": 99
    },
    {
      "midi": 46,
      "hit": false,
      "t": 233731.25,
      "d": 240.625,
      "v": 86
    },
    {
      "midi": 73,
      "hit": false,
      "t": 233962.5,
      "d": 162.5,
      "v": 85
    },
    {
      "midi": 66,
      "hit": false,
      "t": 234190.625,
      "d": 296.875,
      "v": 68
    },
    {
      "midi": 75,
      "hit": false,
      "t": 234190.625,
      "d": 368.75,
      "v": 72
    },
    {
      "midi": 57,
      "hit": false,
      "t": 234193.75,
      "d": 250,
      "v": 57
    },
    {
      "midi": 45,
      "hit": false,
      "t": 234206.25,
      "d": 212.5,
      "v": 49
    },
    {
      "midi": 77,
      "hit": false,
      "t": 234631.25,
      "d": 106.25,
      "v": 90
    },
    {
      "midi": 65,
      "hit": false,
      "t": 234643.75,
      "d": 65.625,
      "v": 66
    },
    {
      "midi": 44,
      "hit": false,
      "t": 234643.75,
      "d": 87.5,
      "v": 76
    },
    {
      "midi": 73,
      "hit": false,
      "t": 234643.75,
      "d": 118.75,
      "v": 73
    },
    {
      "midi": 56,
      "hit": false,
      "t": 234646.875,
      "d": 131.25,
      "v": 76
    },
    {
      "midi": 80,
      "hit": false,
      "t": 234878.125,
      "d": 68.75,
      "v": 90
    },
    {
      "midi": 65,
      "hit": false,
      "t": 235075,
      "d": 56.25,
      "v": 56
    },
    {
      "midi": 56,
      "hit": false,
      "t": 235084.375,
      "d": 53.125,
      "v": 59
    },
    {
      "midi": 61,
      "hit": false,
      "t": 235087.5,
      "d": 43.75,
      "v": 66
    },
    {
      "midi": 77,
      "hit": false,
      "t": 235093.75,
      "d": 125,
      "v": 78
    },
    {
      "midi": 73,
      "hit": false,
      "t": 235278.125,
      "d": 93.75,
      "v": 90
    },
    {
      "midi": 68,
      "hit": false,
      "t": 235493.75,
      "d": 137.5,
      "v": 81
    },
    {
      "midi": 44,
      "hit": false,
      "t": 235500,
      "d": 465.625,
      "v": 72
    },
    {
      "midi": 72,
      "hit": false,
      "t": 235731.25,
      "d": 325,
      "v": 66
    },
    {
      "midi": 75,
      "hit": false,
      "t": 235743.75,
      "d": 381.25,
      "v": 53
    },
    {
      "midi": 66,
      "hit": false,
      "t": 235750,
      "d": 315.625,
      "v": 43
    },
    {
      "midi": 56,
      "hit": false,
      "t": 235959.375,
      "d": 100,
      "v": 83
    },
    {
      "midi": 73,
      "hit": false,
      "t": 236206.25,
      "d": 275,
      "v": 72
    },
    {
      "midi": 65,
      "hit": false,
      "t": 236225,
      "d": 218.75,
      "v": 45
    },
    {
      "midi": 61,
      "hit": false,
      "t": 236400,
      "d": 62.5,
      "v": 86
    },
    {
      "midi": 49,
      "hit": false,
      "t": 236406.25,
      "d": 121.875,
      "v": 73
    },
    {
      "midi": 82,
      "hit": false,
      "t": 236818.75,
      "d": 231.25,
      "v": 91
    },
    {
      "midi": 73,
      "hit": false,
      "t": 236837.5,
      "d": 156.25,
      "v": 73
    },
    {
      "midi": 44,
      "hit": false,
      "t": 236843.75,
      "d": 50,
      "v": 74
    },
    {
      "midi": 70,
      "hit": false,
      "t": 236850,
      "d": 112.5,
      "v": 72
    },
    {
      "midi": 56,
      "hit": false,
      "t": 236871.875,
      "d": 62.5,
      "v": 67
    },
    {
      "midi": 77,
      "hit": false,
      "t": 237087.5,
      "d": 43.75,
      "v": 78
    },
    {
      "midi": 80,
      "hit": false,
      "t": 237278.125,
      "d": 321.875,
      "v": 86
    },
    {
      "midi": 66,
      "hit": false,
      "t": 237281.25,
      "d": 106.25,
      "v": 78
    },
    {
      "midi": 56,
      "hit": false,
      "t": 237284.375,
      "d": 159.375,
      "v": 56
    },
    {
      "midi": 68,
      "hit": false,
      "t": 237287.5,
      "d": 318.75,
      "v": 81
    },
    {
      "midi": 63,
      "hit": false,
      "t": 237293.75,
      "d": 134.375,
      "v": 77
    },
    {
      "midi": 75,
      "hit": false,
      "t": 237300,
      "d": 134.375,
      "v": 66
    },
    {
      "midi": 60,
      "hit": false,
      "t": 237306.25,
      "d": 68.75,
      "v": 63
    },
    {
      "midi": 75,
      "hit": false,
      "t": 237543.75,
      "d": 84.375,
      "v": 73
    },
    {
      "midi": 56,
      "hit": false,
      "t": 237765.625,
      "d": 81.25,
      "v": 108
    },
    {
      "midi": 44,
      "hit": false,
      "t": 237771.875,
      "d": 134.375,
      "v": 97
    },
    {
      "midi": 89,
      "hit": false,
      "t": 238050,
      "d": 328.125,
      "v": 95
    },
    {
      "midi": 92,
      "hit": false,
      "t": 238050,
      "d": 378.125,
      "v": 98
    },
    {
      "midi": 85,
      "hit": false,
      "t": 238053.125,
      "d": 362.5,
      "v": 84
    },
    {
      "midi": 80,
      "hit": false,
      "t": 238056.25,
      "d": 390.625,
      "v": 84
    },
    {
      "midi": 49,
      "hit": false,
      "t": 238262.5,
      "d": 75,
      "v": 117
    },
    {
      "midi": 37,
      "hit": false,
      "t": 238265.625,
      "d": 34.375,
      "v": 112
    },
    {
      "midi": 89,
      "hit": false,
      "t": 238525,
      "d": 90.625,
      "v": 61
    },
    {
      "midi": 65,
      "hit": false,
      "t": 238693.75,
      "d": 37.5,
      "v": 88
    },
    {
      "midi": 56,
      "hit": false,
      "t": 238700,
      "d": 56.25,
      "v": 83
    },
    {
      "midi": 61,
      "hit": false,
      "t": 238700,
      "d": 62.5,
      "v": 87
    },
    {
      "midi": 92,
      "hit": false,
      "t": 238700,
      "d": 159.375,
      "v": 95
    },
    {
      "midi": 80,
      "hit": false,
      "t": 238712.5,
      "d": 115.625,
      "v": 76
    },
    {
      "midi": 85,
      "hit": false,
      "t": 238718.75,
      "d": 118.75,
      "v": 78
    },
    {
      "midi": 89,
      "hit": false,
      "t": 238728.125,
      "d": 71.875,
      "v": 58
    },
    {
      "midi": 93,
      "hit": false,
      "t": 238943.75,
      "d": 318.75,
      "v": 105
    },
    {
      "midi": 87,
      "hit": false,
      "t": 238943.75,
      "d": 325,
      "v": 92
    },
    {
      "midi": 89,
      "hit": false,
      "t": 238950,
      "d": 315.625,
      "v": 95
    },
    {
      "midi": 81,
      "hit": false,
      "t": 238956.25,
      "d": 281.25,
      "v": 85
    },
    {
      "midi": 36,
      "hit": false,
      "t": 239131.25,
      "d": 62.5,
      "v": 106
    },
    {
      "midi": 48,
      "hit": false,
      "t": 239131.25,
      "d": 96.875,
      "v": 108
    },
    {
      "midi": 89,
      "hit": false,
      "t": 239378.125,
      "d": 43.75,
      "v": 85
    },
    {
      "midi": 93,
      "hit": false,
      "t": 239553.125,
      "d": 78.125,
      "v": 97
    },
    {
      "midi": 87,
      "hit": false,
      "t": 239553.125,
      "d": 146.875,
      "v": 84
    },
    {
      "midi": 63,
      "hit": false,
      "t": 239556.25,
      "d": 50,
      "v": 92
    },
    {
      "midi": 65,
      "hit": false,
      "t": 239559.375,
      "d": 37.5,
      "v": 84
    },
    {
      "midi": 57,
      "hit": false,
      "t": 239562.5,
      "d": 53.125,
      "v": 83
    },
    {
      "midi": 60,
      "hit": false,
      "t": 239575,
      "d": 34.375,
      "v": 87
    },
    {
      "midi": 81,
      "hit": false,
      "t": 239575,
      "d": 53.125,
      "v": 63
    },
    {
      "midi": 89,
      "hit": false,
      "t": 239578.125,
      "d": 40.625,
      "v": 79
    },
    {
      "midi": 86,
      "hit": false,
      "t": 239800,
      "d": 315.625,
      "v": 85
    },
    {
      "midi": 94,
      "hit": false,
      "t": 239803.125,
      "d": 306.25,
      "v": 102
    },
    {
      "midi": 89,
      "hit": false,
      "t": 239806.25,
      "d": 303.125,
      "v": 81
    },
    {
      "midi": 82,
      "hit": false,
      "t": 239812.5,
      "d": 515.625,
      "v": 93
    },
    {
      "midi": 90,
      "hit": false,
      "t": 239843.75,
      "d": 56.25,
      "v": 25
    },
    {
      "midi": 34,
      "hit": false,
      "t": 239968.75,
      "d": 87.5,
      "v": 114
    },
    {
      "midi": 46,
      "hit": false,
      "t": 239968.75,
      "d": 87.5,
      "v": 120
    },
    {
      "midi": 92,
      "hit": false,
      "t": 240203.125,
      "d": 146.875,
      "v": 82
    },
    {
      "midi": 61,
      "hit": false,
      "t": 240256.25,
      "d": 62.5,
      "v": 26
    },
    {
      "midi": 65,
      "hit": false,
      "t": 240368.75,
      "d": 31.25,
      "v": 95
    },
    {
      "midi": 62,
      "hit": false,
      "t": 240378.125,
      "d": 37.5,
      "v": 89
    },
    {
      "midi": 58,
      "hit": false,
      "t": 240384.375,
      "d": 106.25,
      "v": 87
    },
    {
      "midi": 56,
      "hit": false,
      "t": 240387.5,
      "d": 87.5,
      "v": 87
    },
    {
      "midi": 89,
      "hit": false,
      "t": 240412.5,
      "d": 137.5,
      "v": 80
    },
    {
      "midi": 89,
      "hit": false,
      "t": 240609.375,
      "d": 262.5,
      "v": 101
    },
    {
      "midi": 94,
      "hit": false,
      "t": 240612.5,
      "d": 206.25,
      "v": 112
    },
    {
      "midi": 86,
      "hit": false,
      "t": 240612.5,
      "d": 309.375,
      "v": 106
    },
    {
      "midi": 82,
      "hit": false,
      "t": 240621.875,
      "d": 303.125,
      "v": 100
    },
    {
      "midi": 46,
      "hit": false,
      "t": 240781.25,
      "d": 131.25,
      "v": 120
    },
    {
      "midi": 34,
      "hit": false,
      "t": 240787.5,
      "d": 150,
      "v": 110
    },
    {
      "midi": 89,
      "hit": false,
      "t": 241015.625,
      "d": 137.5,
      "v": 98
    },
    {
      "midi": 47,
      "hit": false,
      "t": 241178.125,
      "d": 162.5,
      "v": 101
    },
    {
      "midi": 92,
      "hit": false,
      "t": 241178.125,
      "d": 181.25,
      "v": 111
    },
    {
      "midi": 35,
      "hit": false,
      "t": 241181.25,
      "d": 115.625,
      "v": 100
    },
    {
      "midi": 80,
      "hit": false,
      "t": 241187.5,
      "d": 156.25,
      "v": 97
    },
    {
      "midi": 86,
      "hit": false,
      "t": 241193.75,
      "d": 146.875,
      "v": 94
    },
    {
      "midi": 89,
      "hit": false,
      "t": 241412.5,
      "d": 46.875,
      "v": 88
    },
    {
      "midi": 36,
      "hit": false,
      "t": 241587.5,
      "d": 59.375,
      "v": 106
    },
    {
      "midi": 48,
      "hit": false,
      "t": 241593.75,
      "d": 109.375,
      "v": 108
    },
    {
      "midi": 90,
      "hit": false,
      "t": 241593.75,
      "d": 156.25,
      "v": 107
    },
    {
      "midi": 87,
      "hit": false,
      "t": 241596.875,
      "d": 118.75,
      "v": 106
    },
    {
      "midi": 78,
      "hit": false,
      "t": 241603.125,
      "d": 150,
      "v": 105
    },
    {
      "midi": 87,
      "hit": false,
      "t": 241818.75,
      "d": 71.875,
      "v": 64
    },
    {
      "midi": 66,
      "hit": false,
      "t": 242000,
      "d": 34.375,
      "v": 83
    },
    {
      "midi": 78,
      "hit": false,
      "t": 242000,
      "d": 131.25,
      "v": 92
    },
    {
      "midi": 90,
      "hit": false,
      "t": 242000,
      "d": 168.75,
      "v": 96
    },
    {
      "midi": 63,
      "hit": false,
      "t": 242003.125,
      "d": 40.625,
      "v": 86
    },
    {
      "midi": 87,
      "hit": false,
      "t": 242003.125,
      "d": 153.125,
      "v": 83
    },
    {
      "midi": 60,
      "hit": false,
      "t": 242006.25,
      "d": 46.875,
      "v": 64
    },
    {
      "midi": 84,
      "hit": false,
      "t": 242012.5,
      "d": 115.625,
      "v": 71
    },
    {
      "midi": 91,
      "hit": false,
      "t": 242228.125,
      "d": 240.625,
      "v": 103
    },
    {
      "midi": 85,
      "hit": false,
      "t": 242228.125,
      "d": 290.625,
      "v": 99
    },
    {
      "midi": 87,
      "hit": false,
      "t": 242228.125,
      "d": 290.625,
      "v": 86
    },
    {
      "midi": 79,
      "hit": false,
      "t": 242250,
      "d": 228.125,
      "v": 76
    },
    {
      "midi": 46,
      "hit": false,
      "t": 242403.125,
      "d": 87.5,
      "v": 119
    },
    {
      "midi": 34,
      "hit": false,
      "t": 242412.5,
      "d": 31.25,
      "v": 101
    },
    {
      "midi": 87,
      "hit": false,
      "t": 242628.125,
      "d": 40.625,
      "v": 90
    },
    {
      "midi": 63,
      "hit": false,
      "t": 242796.875,
      "d": 34.375,
      "v": 92
    },
    {
      "midi": 61,
      "hit": false,
      "t": 242803.125,
      "d": 40.625,
      "v": 82
    },
    {
      "midi": 58,
      "hit": false,
      "t": 242803.125,
      "d": 53.125,
      "v": 87
    },
    {
      "midi": 87,
      "hit": false,
      "t": 242815.625,
      "d": 103.125,
      "v": 97
    },
    {
      "midi": 91,
      "hit": false,
      "t": 242818.75,
      "d": 40.625,
      "v": 102
    },
    {
      "midi": 85,
      "hit": false,
      "t": 242818.75,
      "d": 71.875,
      "v": 95
    },
    {
      "midi": 55,
      "hit": false,
      "t": 242825,
      "d": 40.625,
      "v": 71
    },
    {
      "midi": 79,
      "hit": false,
      "t": 242828.125,
      "d": 40.625,
      "v": 86
    },
    {
      "midi": 92,
      "hit": false,
      "t": 243043.75,
      "d": 271.875,
      "v": 105
    },
    {
      "midi": 85,
      "hit": false,
      "t": 243046.875,
      "d": 200,
      "v": 2
    },
    {
      "midi": 84,
      "hit": false,
      "t": 243046.875,
      "d": 309.375,
      "v": 95
    },
    {
      "midi": 87,
      "hit": false,
      "t": 243046.875,
      "d": 315.625,
      "v": 100
    },
    {
      "midi": 80,
      "hit": false,
      "t": 243059.375,
      "d": 409.375,
      "v": 84
    },
    {
      "midi": 32,
      "hit": false,
      "t": 243203.125,
      "d": 28.125,
      "v": 100
    },
    {
      "midi": 44,
      "hit": false,
      "t": 243203.125,
      "d": 96.875,
      "v": 107
    },
    {
      "midi": 89,
      "hit": false,
      "t": 243437.5,
      "d": 118.75,
      "v": 87
    },
    {
      "midi": 66,
      "hit": false,
      "t": 243590.625,
      "d": 34.375,
      "v": 88
    },
    {
      "midi": 63,
      "hit": false,
      "t": 243596.875,
      "d": 40.625,
      "v": 86
    },
    {
      "midi": 60,
      "hit": false,
      "t": 243600,
      "d": 43.75,
      "v": 68
    },
    {
      "midi": 56,
      "hit": false,
      "t": 243603.125,
      "d": 78.125,
      "v": 79
    },
    {
      "midi": 87,
      "hit": false,
      "t": 243628.125,
      "d": 134.375,
      "v": 84
    },
    {
      "midi": 84,
      "hit": false,
      "t": 243643.75,
      "d": 59.375,
      "v": 57
    },
    {
      "midi": 92,
      "hit": false,
      "t": 243834.375,
      "d": 181.25,
      "v": 107
    },
    {
      "midi": 84,
      "hit": false,
      "t": 243834.375,
      "d": 250,
      "v": 101
    },
    {
      "midi": 87,
      "hit": false,
      "t": 243834.375,
      "d": 256.25,
      "v": 85
    },
    {
      "midi": 80,
      "hit": false,
      "t": 243846.875,
      "d": 246.875,
      "v": 89
    },
    {
      "midi": 36,
      "hit": false,
      "t": 243981.25,
      "d": 34.375,
      "v": 100
    },
    {
      "midi": 48,
      "hit": false,
      "t": 243984.375,
      "d": 106.25,
      "v": 100
    },
    {
      "midi": 68,
      "hit": false,
      "t": 244196.875,
      "d": 100,
      "v": 104
    },
    {
      "midi": 66,
      "hit": false,
      "t": 244381.25,
      "d": 40.625,
      "v": 77
    },
    {
      "midi": 63,
      "hit": false,
      "t": 244387.5,
      "d": 37.5,
      "v": 83
    },
    {
      "midi": 60,
      "hit": false,
      "t": 244387.5,
      "d": 43.75,
      "v": 56
    },
    {
      "midi": 70,
      "hit": false,
      "t": 244387.5,
      "d": 112.5,
      "v": 102
    },
    {
      "midi": 72,
      "hit": false,
      "t": 244593.75,
      "d": 46.875,
      "v": 100
    },
    {
      "midi": 73,
      "hit": false,
      "t": 244784.375,
      "d": 212.5,
      "v": 116
    },
    {
      "midi": 37,
      "hit": false,
      "t": 244793.75,
      "d": 106.25,
      "v": 92
    },
    {
      "midi": 49,
      "hit": false,
      "t": 244793.75,
      "d": 121.875,
      "v": 96
    },
    {
      "midi": 75,
      "hit": false,
      "t": 244996.875,
      "d": 200,
      "v": 88
    },
    {
      "midi": 65,
      "hit": false,
      "t": 245175,
      "d": 37.5,
      "v": 91
    },
    {
      "midi": 61,
      "hit": false,
      "t": 245181.25,
      "d": 59.375,
      "v": 81
    },
    {
      "midi": 56,
      "hit": false,
      "t": 245181.25,
      "d": 100,
      "v": 86
    },
    {
      "midi": 77,
      "hit": false,
      "t": 245200,
      "d": 181.25,
      "v": 101
    },
    {
      "midi": 73,
      "hit": false,
      "t": 245409.375,
      "d": 309.375,
      "v": 105
    },
    {
      "midi": 65,
      "hit": false,
      "t": 245412.5,
      "d": 296.875,
      "v": 103
    },
    {
      "midi": 46,
      "hit": false,
      "t": 245428.125,
      "d": 50,
      "v": 24
    },
    {
      "midi": 44,
      "hit": false,
      "t": 245593.75,
      "d": 106.25,
      "v": 95
    },
    {
      "midi": 75,
      "hit": false,
      "t": 245806.25,
      "d": 100,
      "v": 89
    },
    {
      "midi": 77,
      "hit": false,
      "t": 245965.625,
      "d": 56.25,
      "v": 100
    },
    {
      "midi": 61,
      "hit": false,
      "t": 245975,
      "d": 43.75,
      "v": 80
    },
    {
      "midi": 56,
      "hit": false,
      "t": 245975,
      "d": 53.125,
      "v": 71
    },
    {
      "midi": 73,
      "hit": false,
      "t": 246003.125,
      "d": 46.875,
      "v": 59
    },
    {
      "midi": 80,
      "hit": false,
      "t": 246206.25,
      "d": 281.25,
      "v": 100
    },
    {
      "midi": 72,
      "hit": false,
      "t": 246209.375,
      "d": 253.125,
      "v": 92
    },
    {
      "midi": 44,
      "hit": false,
      "t": 246375,
      "d": 84.375,
      "v": 91
    },
    {
      "midi": 32,
      "hit": false,
      "t": 246381.25,
      "d": 34.375,
      "v": 81
    },
    {
      "midi": 63,
      "hit": false,
      "t": 246800,
      "d": 40.625,
      "v": 72
    },
    {
      "midi": 60,
      "hit": false,
      "t": 246800,
      "d": 43.75,
      "v": 63
    },
    {
      "midi": 66,
      "hit": false,
      "t": 246800,
      "d": 50,
      "v": 64
    },
    {
      "midi": 96,
      "hit": false,
      "t": 246806.25,
      "d": 103.125,
      "v": 98
    },
    {
      "midi": 94,
      "hit": false,
      "t": 247018.75,
      "d": 31.25,
      "v": 98
    },
    {
      "midi": 90,
      "hit": false,
      "t": 247018.75,
      "d": 43.75,
      "v": 78
    },
    {
      "midi": 84,
      "hit": false,
      "t": 247025,
      "d": 43.75,
      "v": 79
    },
    {
      "midi": 92,
      "hit": false,
      "t": 247034.375,
      "d": 40.625,
      "v": 67
    },
    {
      "midi": 39,
      "hit": false,
      "t": 247209.375,
      "d": 34.375,
      "v": 88
    },
    {
      "midi": 51,
      "hit": false,
      "t": 247212.5,
      "d": 46.875,
      "v": 84
    },
    {
      "midi": 84,
      "hit": false,
      "t": 247446.875,
      "d": 59.375,
      "v": 88
    },
    {
      "midi": 78,
      "hit": false,
      "t": 247618.75,
      "d": 31.25,
      "v": 94
    },
    {
      "midi": 82,
      "hit": false,
      "t": 247618.75,
      "d": 31.25,
      "v": 100
    },
    {
      "midi": 63,
      "hit": false,
      "t": 247618.75,
      "d": 46.875,
      "v": 86
    },
    {
      "midi": 80,
      "hit": false,
      "t": 247625,
      "d": 34.375,
      "v": 84
    },
    {
      "midi": 66,
      "hit": false,
      "t": 247625,
      "d": 40.625,
      "v": 75
    },
    {
      "midi": 60,
      "hit": false,
      "t": 247625,
      "d": 43.75,
      "v": 75
    },
    {
      "midi": 51,
      "hit": false,
      "t": 247837.5,
      "d": 153.125,
      "v": 95
    },
    {
      "midi": 56,
      "hit": false,
      "t": 248025,
      "d": 134.375,
      "v": 100
    },
    {
      "midi": 44,
      "hit": false,
      "t": 248028.125,
      "d": 109.375,
      "v": 97
    },
    {
      "midi": 68,
      "hit": false,
      "t": 248031.25,
      "d": 943.75,
      "v": 120
    },
    {
      "midi": 70,
      "hit": false,
      "t": 248228.125,
      "d": 175,
      "v": 98
    },
    {
      "midi": 63,
      "hit": false,
      "t": 248412.5,
      "d": 37.5,
      "v": 80
    },
    {
      "midi": 66,
      "hit": false,
      "t": 248412.5,
      "d": 53.125,
      "v": 62
    },
    {
      "midi": 72,
      "hit": false,
      "t": 248418.75,
      "d": 37.5,
      "v": 85
    },
    {
      "midi": 60,
      "hit": false,
      "t": 248428.125,
      "d": 37.5,
      "v": 63
    },
    {
      "midi": 80,
      "hit": false,
      "t": 248640.625,
      "d": 281.25,
      "v": 103
    },
    {
      "midi": 72,
      "hit": false,
      "t": 248640.625,
      "d": 290.625,
      "v": 66
    },
    {
      "midi": 32,
      "hit": false,
      "t": 248800,
      "d": 28.125,
      "v": 97
    },
    {
      "midi": 77,
      "hit": false,
      "t": 248996.875,
      "d": 234.375,
      "v": 89
    },
    {
      "midi": 63,
      "hit": false,
      "t": 249165.625,
      "d": 40.625,
      "v": 89
    },
    {
      "midi": 60,
      "hit": false,
      "t": 249165.625,
      "d": 53.125,
      "v": 70
    },
    {
      "midi": 66,
      "hit": false,
      "t": 249171.875,
      "d": 134.375,
      "v": 83
    },
    {
      "midi": 72,
      "hit": false,
      "t": 249181.25,
      "d": 93.75,
      "v": 73
    },
    {
      "midi": 75,
      "hit": false,
      "t": 249190.625,
      "d": 71.875,
      "v": 72
    },
    {
      "midi": 77,
      "hit": false,
      "t": 249371.875,
      "d": 250,
      "v": 87
    },
    {
      "midi": 37,
      "hit": false,
      "t": 249559.375,
      "d": 34.375,
      "v": 89
    },
    {
      "midi": 49,
      "hit": false,
      "t": 249559.375,
      "d": 96.875,
      "v": 92
    },
    {
      "midi": 73,
      "hit": false,
      "t": 249571.875,
      "d": 65.625,
      "v": 92
    },
    {
      "midi": 65,
      "hit": false,
      "t": 249578.125,
      "d": 53.125,
      "v": 56
    },
    {
      "midi": 56,
      "hit": false,
      "t": 249965.625,
      "d": 93.75,
      "v": 90
    },
    {
      "midi": 61,
      "hit": false,
      "t": 249965.625,
      "d": 106.25,
      "v": 94
    },
    {
      "midi": 96,
      "hit": false,
      "t": 249968.75,
      "d": 246.875,
      "v": 105
    },
    {
      "midi": 65,
      "hit": false,
      "t": 249971.875,
      "d": 37.5,
      "v": 87
    },
    {
      "midi": 94,
      "hit": false,
      "t": 250184.375,
      "d": 84.375,
      "v": 109
    },
    {
      "midi": 89,
      "hit": false,
      "t": 250184.375,
      "d": 87.5,
      "v": 99
    },
    {
      "midi": 85,
      "hit": false,
      "t": 250193.75,
      "d": 78.125,
      "v": 100
    },
    {
      "midi": 49,
      "hit": false,
      "t": 250218.75,
      "d": 68.75,
      "v": 45
    },
    {
      "midi": 90,
      "hit": false,
      "t": 250225,
      "d": 56.25,
      "v": 18
    },
    {
      "midi": 44,
      "hit": false,
      "t": 250359.375,
      "d": 71.875,
      "v": 99
    },
    {
      "midi": 53,
      "hit": false,
      "t": 250368.75,
      "d": 93.75,
      "v": 105
    },
    {
      "midi": 84,
      "hit": false,
      "t": 250590.625,
      "d": 71.875,
      "v": 103
    },
    {
      "midi": 82,
      "hit": false,
      "t": 250750,
      "d": 43.75,
      "v": 108
    },
    {
      "midi": 61,
      "hit": false,
      "t": 250756.25,
      "d": 59.375,
      "v": 96
    },
    {
      "midi": 56,
      "hit": false,
      "t": 250756.25,
      "d": 78.125,
      "v": 95
    },
    {
      "midi": 65,
      "hit": false,
      "t": 250759.375,
      "d": 34.375,
      "v": 94
    },
    {
      "midi": 77,
      "hit": false,
      "t": 250762.5,
      "d": 28.125,
      "v": 105
    },
    {
      "midi": 37,
      "hit": false,
      "t": 250965.625,
      "d": 78.125,
      "v": 98
    },
    {
      "midi": 39,
      "hit": false,
      "t": 250993.75,
      "d": 43.75,
      "v": 61
    },
    {
      "midi": 80,
      "hit": false,
      "t": 251140.625,
      "d": 153.125,
      "v": 97
    },
    {
      "midi": 68,
      "hit": false,
      "t": 251150,
      "d": 106.25,
      "v": 100
    },
    {
      "midi": 73,
      "hit": false,
      "t": 251150,
      "d": 150,
      "v": 103
    },
    {
      "midi": 77,
      "hit": false,
      "t": 251168.75,
      "d": 46.875,
      "v": 95
    },
    {
      "midi": 77,
      "hit": false,
      "t": 251350,
      "d": 284.375,
      "v": 83
    },
    {
      "midi": 65,
      "hit": false,
      "t": 251521.875,
      "d": 28.125,
      "v": 95
    },
    {
      "midi": 56,
      "hit": false,
      "t": 251521.875,
      "d": 75,
      "v": 84
    },
    {
      "midi": 61,
      "hit": false,
      "t": 251521.875,
      "d": 103.125,
      "v": 96
    },
    {
      "midi": 80,
      "hit": false,
      "t": 251525,
      "d": 159.375,
      "v": 100
    },
    {
      "midi": 68,
      "hit": false,
      "t": 251534.375,
      "d": 112.5,
      "v": 90
    },
    {
      "midi": 73,
      "hit": false,
      "t": 251540.625,
      "d": 140.625,
      "v": 84
    },
    {
      "midi": 75,
      "hit": false,
      "t": 251740.625,
      "d": 325,
      "v": 103
    },
    {
      "midi": 69,
      "hit": false,
      "t": 251743.75,
      "d": 303.125,
      "v": 108
    },
    {
      "midi": 77,
      "hit": false,
      "t": 251746.875,
      "d": 303.125,
      "v": 104
    },
    {
      "midi": 81,
      "hit": false,
      "t": 251746.875,
      "d": 318.75,
      "v": 103
    },
    {
      "midi": 48,
      "hit": false,
      "t": 251921.875,
      "d": 112.5,
      "v": 108
    },
    {
      "midi": 36,
      "hit": false,
      "t": 251925,
      "d": 62.5,
      "v": 107
    },
    {
      "midi": 77,
      "hit": false,
      "t": 252143.75,
      "d": 56.25,
      "v": 92
    },
    {
      "midi": 63,
      "hit": false,
      "t": 252328.125,
      "d": 40.625,
      "v": 94
    },
    {
      "midi": 81,
      "hit": false,
      "t": 252328.125,
      "d": 100,
      "v": 109
    },
    {
      "midi": 75,
      "hit": false,
      "t": 252328.125,
      "d": 159.375,
      "v": 95
    },
    {
      "midi": 69,
      "hit": false,
      "t": 252331.25,
      "d": 50,
      "v": 102
    },
    {
      "midi": 57,
      "hit": false,
      "t": 252334.375,
      "d": 40.625,
      "v": 91
    },
    {
      "midi": 77,
      "hit": false,
      "t": 252334.375,
      "d": 40.625,
      "v": 100
    },
    {
      "midi": 65,
      "hit": false,
      "t": 252340.625,
      "d": 46.875,
      "v": 70
    },
    {
      "midi": 60,
      "hit": false,
      "t": 252350,
      "d": 31.25,
      "v": 84
    },
    {
      "midi": 74,
      "hit": false,
      "t": 252543.75,
      "d": 378.125,
      "v": 101
    },
    {
      "midi": 77,
      "hit": false,
      "t": 252546.875,
      "d": 328.125,
      "v": 113
    },
    {
      "midi": 82,
      "hit": false,
      "t": 252546.875,
      "d": 353.125,
      "v": 112
    },
    {
      "midi": 70,
      "hit": false,
      "t": 252553.125,
      "d": 693.75,
      "v": 108
    },
    {
      "midi": 34,
      "hit": false,
      "t": 252725,
      "d": 109.375,
      "v": 110
    },
    {
      "midi": 46,
      "hit": false,
      "t": 252728.125,
      "d": 93.75,
      "v": 114
    },
    {
      "midi": 80,
      "hit": false,
      "t": 252959.375,
      "d": 200,
      "v": 84
    },
    {
      "midi": 62,
      "hit": false,
      "t": 253131.25,
      "d": 40.625,
      "v": 90
    },
    {
      "midi": 65,
      "hit": false,
      "t": 253134.375,
      "d": 37.5,
      "v": 83
    },
    {
      "midi": 58,
      "hit": false,
      "t": 253137.5,
      "d": 103.125,
      "v": 83
    },
    {
      "midi": 56,
      "hit": false,
      "t": 253150,
      "d": 75,
      "v": 78
    },
    {
      "midi": 77,
      "hit": false,
      "t": 253150,
      "d": 165.625,
      "v": 92
    },
    {
      "midi": 82,
      "hit": false,
      "t": 253371.875,
      "d": 318.75,
      "v": 111
    },
    {
      "midi": 74,
      "hit": false,
      "t": 253375,
      "d": 350,
      "v": 105
    },
    {
      "midi": 70,
      "hit": false,
      "t": 253378.125,
      "d": 353.125,
      "v": 105
    },
    {
      "midi": 77,
      "hit": false,
      "t": 253381.25,
      "d": 293.75,
      "v": 109
    },
    {
      "midi": 46,
      "hit": false,
      "t": 253406.25,
      "d": 53.125,
      "v": 29
    },
    {
      "midi": 46,
      "hit": false,
      "t": 253562.5,
      "d": 196.875,
      "v": 120
    },
    {
      "midi": 34,
      "hit": false,
      "t": 253568.75,
      "d": 212.5,
      "v": 116
    },
    {
      "midi": 77,
      "hit": false,
      "t": 253768.75,
      "d": 159.375,
      "v": 92
    },
    {
      "midi": 80,
      "hit": false,
      "t": 253937.5,
      "d": 246.875,
      "v": 106
    },
    {
      "midi": 47,
      "hit": false,
      "t": 253950,
      "d": 234.375,
      "v": 102
    },
    {
      "midi": 68,
      "hit": false,
      "t": 253950,
      "d": 275,
      "v": 100
    },
    {
      "midi": 74,
      "hit": false,
      "t": 253956.25,
      "d": 256.25,
      "v": 98
    },
    {
      "midi": 35,
      "hit": false,
      "t": 253962.5,
      "d": 156.25,
      "v": 99
    },
    {
      "midi": 77,
      "hit": false,
      "t": 254153.125,
      "d": 59.375,
      "v": 98
    },
    {
      "midi": 78,
      "hit": false,
      "t": 254337.5,
      "d": 303.125,
      "v": 108
    },
    {
      "midi": 66,
      "hit": false,
      "t": 254346.875,
      "d": 121.875,
      "v": 106
    },
    {
      "midi": 48,
      "hit": false,
      "t": 254346.875,
      "d": 137.5,
      "v": 111
    },
    {
      "midi": 75,
      "hit": false,
      "t": 254346.875,
      "d": 165.625,
      "v": 100
    },
    {
      "midi": 36,
      "hit": false,
      "t": 254353.125,
      "d": 65.625,
      "v": 114
    },
    {
      "midi": 66,
      "hit": false,
      "t": 254559.375,
      "d": 59.375,
      "v": 26
    },
    {
      "midi": 72,
      "hit": false,
      "t": 254559.375,
      "d": 112.5,
      "v": 67
    },
    {
      "midi": 78,
      "hit": false,
      "t": 254743.75,
      "d": 165.625,
      "v": 85
    },
    {
      "midi": 63,
      "hit": false,
      "t": 254750,
      "d": 34.375,
      "v": 90
    },
    {
      "midi": 60,
      "hit": false,
      "t": 254750,
      "d": 62.5,
      "v": 65
    },
    {
      "midi": 66,
      "hit": false,
      "t": 254750,
      "d": 131.25,
      "v": 90
    },
    {
      "midi": 72,
      "hit": false,
      "t": 254750,
      "d": 137.5,
      "v": 72
    },
    {
      "midi": 75,
      "hit": false,
      "t": 254750,
      "d": 165.625,
      "v": 85
    },
    {
      "midi": 59,
      "hit": false,
      "t": 254784.375,
      "d": 62.5,
      "v": 26
    },
    {
      "midi": 79,
      "hit": false,
      "t": 254962.5,
      "d": 325,
      "v": 115
    },
    {
      "midi": 75,
      "hit": false,
      "t": 254968.75,
      "d": 321.875,
      "v": 103
    },
    {
      "midi": 67,
      "hit": false,
      "t": 254971.875,
      "d": 309.375,
      "v": 112
    },
    {
      "midi": 73,
      "hit": false,
      "t": 254971.875,
      "d": 334.375,
      "v": 106
    },
    {
      "midi": 34,
      "hit": false,
      "t": 255162.5,
      "d": 31.25,
      "v": 107
    },
    {
      "midi": 46,
      "hit": false,
      "t": 255162.5,
      "d": 81.25,
      "v": 115
    },
    {
      "midi": 75,
      "hit": false,
      "t": 255378.125,
      "d": 109.375,
      "v": 85
    },
    {
      "midi": 63,
      "hit": false,
      "t": 255556.25,
      "d": 31.25,
      "v": 92
    },
    {
      "midi": 79,
      "hit": false,
      "t": 255556.25,
      "d": 78.125,
      "v": 111
    },
    {
      "midi": 61,
      "hit": false,
      "t": 255562.5,
      "d": 37.5,
      "v": 87
    },
    {
      "midi": 67,
      "hit": false,
      "t": 255562.5,
      "d": 81.25,
      "v": 103
    },
    {
      "midi": 55,
      "hit": false,
      "t": 255565.625,
      "d": 56.25,
      "v": 76
    },
    {
      "midi": 73,
      "hit": false,
      "t": 255565.625,
      "d": 181.25,
      "v": 92
    },
    {
      "midi": 75,
      "hit": false,
      "t": 255568.75,
      "d": 134.375,
      "v": 67
    },
    {
      "midi": 58,
      "hit": false,
      "t": 255571.875,
      "d": 43.75,
      "v": 76
    },
    {
      "midi": 75,
      "hit": false,
      "t": 255771.875,
      "d": 334.375,
      "v": 86
    },
    {
      "midi": 80,
      "hit": false,
      "t": 255778.125,
      "d": 353.125,
      "v": 100
    },
    {
      "midi": 72,
      "hit": false,
      "t": 255781.25,
      "d": 328.125,
      "v": 87
    },
    {
      "midi": 68,
      "hit": false,
      "t": 255784.375,
      "d": 493.75,
      "v": 94
    },
    {
      "midi": 32,
      "hit": false,
      "t": 255956.25,
      "d": 31.25,
      "v": 104
    },
    {
      "midi": 44,
      "hit": false,
      "t": 255956.25,
      "d": 96.875,
      "v": 100
    },
    {
      "midi": 77,
      "hit": false,
      "t": 256178.125,
      "d": 165.625,
      "v": 86
    },
    {
      "midi": 66,
      "hit": false,
      "t": 256368.75,
      "d": 37.5,
      "v": 88
    },
    {
      "midi": 63,
      "hit": false,
      "t": 256381.25,
      "d": 40.625,
      "v": 84
    },
    {
      "midi": 60,
      "hit": false,
      "t": 256387.5,
      "d": 46.875,
      "v": 67
    },
    {
      "midi": 75,
      "hit": false,
      "t": 256400,
      "d": 153.125,
      "v": 70
    },
    {
      "midi": 72,
      "hit": false,
      "t": 256421.875,
      "d": 78.125,
      "v": 35
    },
    {
      "midi": 80,
      "hit": false,
      "t": 256606.25,
      "d": 268.75,
      "v": 86
    },
    {
      "midi": 68,
      "hit": false,
      "t": 256606.25,
      "d": 281.25,
      "v": 74
    },
    {
      "midi": 72,
      "hit": false,
      "t": 256615.625,
      "d": 312.5,
      "v": 55
    },
    {
      "midi": 66,
      "hit": false,
      "t": 256618.75,
      "d": 275,
      "v": 83
    },
    {
      "midi": 75,
      "hit": false,
      "t": 256625,
      "d": 309.375,
      "v": 81
    },
    {
      "midi": 51,
      "hit": false,
      "t": 256812.5,
      "d": 115.625,
      "v": 88
    },
    {
      "midi": 39,
      "hit": false,
      "t": 256821.875,
      "d": 37.5,
      "v": 84
    },
    {
      "midi": 68,
      "hit": false,
      "t": 257028.125,
      "d": 115.625,
      "v": 92
    },
    {
      "midi": 66,
      "hit": false,
      "t": 257218.75,
      "d": 43.75,
      "v": 70
    },
    {
      "midi": 70,
      "hit": false,
      "t": 257221.875,
      "d": 137.5,
      "v": 101
    },
    {
      "midi": 63,
      "hit": false,
      "t": 257225,
      "d": 43.75,
      "v": 75
    },
    {
      "midi": 60,
      "hit": false,
      "t": 257225,
      "d": 46.875,
      "v": 66
    },
    {
      "midi": 72,
      "hit": false,
      "t": 257437.5,
      "d": 40.625,
      "v": 91
    },
    {
      "midi": 49,
      "hit": false,
      "t": 257478.125,
      "d": 65.625,
      "v": 37
    },
    {
      "midi": 73,
      "hit": false,
      "t": 257625,
      "d": 184.375,
      "v": 111
    },
    {
      "midi": 49,
      "hit": false,
      "t": 257631.25,
      "d": 128.125,
      "v": 73
    },
    {
      "midi": 37,
      "hit": false,
      "t": 257634.375,
      "d": 71.875,
      "v": 97
    },
    {
      "midi": 44,
      "hit": false,
      "t": 257640.625,
      "d": 62.5,
      "v": 83
    },
    {
      "midi": 65,
      "hit": false,
      "t": 257650,
      "d": 96.875,
      "v": 73
    },
    {
      "midi": 75,
      "hit": false,
      "t": 257856.25,
      "d": 143.75,
      "v": 95
    },
    {
      "midi": 65,
      "hit": false,
      "t": 258053.125,
      "d": 31.25,
      "v": 102
    },
    {
      "midi": 61,
      "hit": false,
      "t": 258053.125,
      "d": 78.125,
      "v": 102
    },
    {
      "midi": 56,
      "hit": false,
      "t": 258053.125,
      "d": 100,
      "v": 98
    },
    {
      "midi": 77,
      "hit": false,
      "t": 258071.875,
      "d": 118.75,
      "v": 119
    },
    {
      "midi": 65,
      "hit": false,
      "t": 258265.625,
      "d": 193.75,
      "v": 110
    },
    {
      "midi": 73,
      "hit": false,
      "t": 258265.625,
      "d": 253.125,
      "v": 114
    },
    {
      "midi": 39,
      "hit": false,
      "t": 258293.75,
      "d": 56.25,
      "v": 58
    },
    {
      "midi": 35,
      "hit": false,
      "t": 258487.5,
      "d": 62.5,
      "v": 107
    },
    {
      "midi": 47,
      "hit": false,
      "t": 258487.5,
      "d": 106.25,
      "v": 106
    },
    {
      "midi": 80,
      "hit": false,
      "t": 258709.375,
      "d": 128.125,
      "v": 112
    },
    {
      "midi": 68,
      "hit": false,
      "t": 258712.5,
      "d": 59.375,
      "v": 106
    },
    {
      "midi": 73,
      "hit": false,
      "t": 258715.625,
      "d": 128.125,
      "v": 105
    },
    {
      "midi": 65,
      "hit": false,
      "t": 258912.5,
      "d": 34.375,
      "v": 95
    },
    {
      "midi": 61,
      "hit": false,
      "t": 258915.625,
      "d": 68.75,
      "v": 97
    },
    {
      "midi": 82,
      "hit": false,
      "t": 258918.75,
      "d": 93.75,
      "v": 115
    },
    {
      "midi": 70,
      "hit": false,
      "t": 258931.25,
      "d": 53.125,
      "v": 110
    },
    {
      "midi": 80,
      "hit": false,
      "t": 259137.5,
      "d": 365.625,
      "v": 114
    },
    {
      "midi": 68,
      "hit": false,
      "t": 259143.75,
      "d": 325,
      "v": 106
    },
    {
      "midi": 73,
      "hit": false,
      "t": 259143.75,
      "d": 337.5,
      "v": 110
    },
    {
      "midi": 46,
      "hit": false,
      "t": 259343.75,
      "d": 75,
      "v": 121
    },
    {
      "midi": 34,
      "hit": false,
      "t": 259346.875,
      "d": 56.25,
      "v": 117
    },
    {
      "midi": 78,
      "hit": false,
      "t": 259571.875,
      "d": 165.625,
      "v": 95
    },
    {
      "midi": 66,
      "hit": false,
      "t": 259778.125,
      "d": 37.5,
      "v": 98
    },
    {
      "midi": 73,
      "hit": false,
      "t": 259784.375,
      "d": 112.5,
      "v": 110
    },
    {
      "midi": 63,
      "hit": false,
      "t": 259787.5,
      "d": 40.625,
      "v": 90
    },
    {
      "midi": 61,
      "hit": false,
      "t": 259790.625,
      "d": 37.5,
      "v": 92
    },
    {
      "midi": 70,
      "hit": false,
      "t": 260021.875,
      "d": 390.625,
      "v": 124
    },
    {
      "midi": 58,
      "hit": false,
      "t": 260237.5,
      "d": 243.75,
      "v": 124
    },
    {
      "midi": 46,
      "hit": false,
      "t": 260243.75,
      "d": 334.375,
      "v": 117
    },
    {
      "midi": 56,
      "hit": false,
      "t": 260265.625,
      "d": 40.625,
      "v": 75
    },
    {
      "midi": 73,
      "hit": false,
      "t": 260484.375,
      "d": 159.375,
      "v": 109
    },
    {
      "midi": 66,
      "hit": false,
      "t": 260703.125,
      "d": 237.5,
      "v": 110
    },
    {
      "midi": 57,
      "hit": false,
      "t": 260712.5,
      "d": 228.125,
      "v": 106
    },
    {
      "midi": 75,
      "hit": false,
      "t": 260712.5,
      "d": 265.625,
      "v": 103
    },
    {
      "midi": 45,
      "hit": false,
      "t": 260728.125,
      "d": 206.25,
      "v": 95
    },
    {
      "midi": 55,
      "hit": false,
      "t": 260734.375,
      "d": 34.375,
      "v": 90
    },
    {
      "midi": 46,
      "hit": false,
      "t": 260734.375,
      "d": 40.625,
      "v": 72
    },
    {
      "midi": 51,
      "hit": false,
      "t": 260993.75,
      "d": 128.125,
      "v": 85
    },
    {
      "midi": 65,
      "hit": false,
      "t": 261162.5,
      "d": 90.625,
      "v": 111
    },
    {
      "midi": 77,
      "hit": false,
      "t": 261162.5,
      "d": 131.25,
      "v": 114
    },
    {
      "midi": 73,
      "hit": false,
      "t": 261168.75,
      "d": 137.5,
      "v": 99
    },
    {
      "midi": 56,
      "hit": false,
      "t": 261168.75,
      "d": 146.875,
      "v": 107
    },
    {
      "midi": 44,
      "hit": false,
      "t": 261175,
      "d": 100,
      "v": 97
    },
    {
      "midi": 80,
      "hit": false,
      "t": 261406.25,
      "d": 181.25,
      "v": 103
    },
    {
      "midi": 56,
      "hit": false,
      "t": 261609.375,
      "d": 100,
      "v": 87
    },
    {
      "midi": 65,
      "hit": false,
      "t": 261618.75,
      "d": 46.875,
      "v": 97
    },
    {
      "midi": 61,
      "hit": false,
      "t": 261625,
      "d": 87.5,
      "v": 91
    },
    {
      "midi": 77,
      "hit": false,
      "t": 261631.25,
      "d": 146.875,
      "v": 101
    },
    {
      "midi": 73,
      "hit": false,
      "t": 261853.125,
      "d": 93.75,
      "v": 100
    },
    {
      "midi": 68,
      "hit": false,
      "t": 262081.25,
      "d": 228.125,
      "v": 114
    },
    {
      "midi": 44,
      "hit": false,
      "t": 262087.5,
      "d": 606.25,
      "v": 88
    },
    {
      "midi": 75,
      "hit": false,
      "t": 262365.625,
      "d": 443.75,
      "v": 92
    },
    {
      "midi": 72,
      "hit": false,
      "t": 262371.875,
      "d": 365.625,
      "v": 96
    },
    {
      "midi": 66,
      "hit": false,
      "t": 262378.125,
      "d": 390.625,
      "v": 92
    },
    {
      "midi": 56,
      "hit": false,
      "t": 262606.25,
      "d": 100,
      "v": 115
    },
    {
      "midi": 54,
      "hit": false,
      "t": 262637.5,
      "d": 46.875,
      "v": 58
    },
    {
      "midi": 65,
      "hit": false,
      "t": 262853.125,
      "d": 346.875,
      "v": 99
    },
    {
      "midi": 73,
      "hit": false,
      "t": 262853.125,
      "d": 384.375,
      "v": 97
    },
    {
      "midi": 68,
      "hit": false,
      "t": 262856.25,
      "d": 384.375,
      "v": 98
    },
    {
      "midi": 61,
      "hit": false,
      "t": 263071.875,
      "d": 84.375,
      "v": 112
    },
    {
      "midi": 49,
      "hit": false,
      "t": 263081.25,
      "d": 112.5,
      "v": 95
    },
    {
      "midi": 44,
      "hit": false,
      "t": 263637.5,
      "d": 96.875,
      "v": 104
    },
    {
      "midi": 56,
      "hit": false,
      "t": 263637.5,
      "d": 100,
      "v": 108
    },
    {
      "midi": 37,
      "hit": false,
      "t": 264012.5,
      "d": 121.875,
      "v": 75
    },
    {
      "midi": 44,
      "hit": false,
      "t": 264100,
      "d": 131.25,
      "v": 81
    },
    {
      "midi": 53,
      "hit": false,
      "t": 264259.375,
      "d": 34.375,
      "v": 96
    },
    {
      "midi": 73,
      "hit": false,
      "t": 264293.75,
      "d": 137.5,
      "v": 97
    },
    {
      "midi": 77,
      "hit": false,
      "t": 264340.625,
      "d": 103.125,
      "v": 102
    },
    {
      "midi": 80,
      "hit": false,
      "t": 264368.75,
      "d": 1031.25,
      "v": 105
    },
    {
      "midi": 85,
      "hit": false,
      "t": 264400,
      "d": 1031.25,
      "v": 115
    }
  ]
}