{
  "jsonPath": "Rock/Modern Alternative Rock/Dreamers/cant-let-go-tribute-to-mariah-carey.json",
  "path": "Rock\\Modern Alternative Rock\\Dreamers\\Cant Let Go - (Tribute To Mariah Carey).mid",
  "name": "Cant Let Go - (Tribute To Mariah Carey)",
  "difficulty": "Advanced",
  "bpm": 80,
  "notes": [
    {
      "midi": 70,
      "hit": false,
      "t": 39000,
      "d": 375,
      "v": 100
    },
    {
      "midi": 69,
      "hit": false,
      "t": 39375,
      "d": 375,
      "v": 100
    },
    {
      "midi": 67,
      "hit": false,
      "t": 39750,
      "d": 375,
      "v": 100
    },
    {
      "midi": 65,
      "hit": false,
      "t": 40125,
      "d": 375,
      "v": 100
    },
    {
      "midi": 82,
      "hit": false,
      "t": 40500,
      "d": 375,
      "v": 100
    },
    {
      "midi": 81,
      "hit": false,
      "t": 40875,
      "d": 375,
      "v": 100
    },
    {
      "midi": 79,
      "hit": false,
      "t": 41250,
      "d": 375,
      "v": 100
    },
    {
      "midi": 77,
      "hit": false,
      "t": 41625,
      "d": 1875,
      "v": 100
    },
    {
      "midi": 65,
      "hit": false,
      "t": 43500,
      "d": 375,
      "v": 100
    },
    {
      "midi": 67,
      "hit": false,
      "t": 43875,
      "d": 375,
      "v": 100
    },
    {
      "midi": 68,
      "hit": false,
      "t": 44250,
      "d": 375,
      "v": 100
    },
    {
      "midi": 70,
      "hit": false,
      "t": 44581.25,
      "d": 375,
      "v": 100
    },
    {
      "midi": 63,
      "hit": false,
      "t": 45000,
      "d": 750,
      "v": 100
    },
    {
      "midi": 65,
      "hit": false,
      "t": 45000,
      "d": 750,
      "v": 100
    },
    {
      "midi": 68,
      "hit": false,
      "t": 45000,
      "d": 750,
      "v": 100
    },
    {
      "midi": 72,
      "hit": false,
      "t": 45000,
      "d": 750,
      "v": 100
    },
    {
      "midi": 49,
      "hit": false,
      "t": 45000,
      "d": 1125,
      "v": 100
    },
    {
      "midi": 63,
      "hit": false,
      "t": 45750,
      "d": 375,
      "v": 100
    },
    {
      "midi": 65,
      "hit": false,
      "t": 45750,
      "d": 375,
      "v": 100
    },
    {
      "midi": 68,
      "hit": false,
      "t": 45750,
      "d": 375,
      "v": 100
    },
    {
      "midi": 72,
      "hit": false,
      "t": 45750,
      "d": 375,
      "v": 100
    },
    {
      "midi": 63,
      "hit": false,
      "t": 46125,
      "d": 1125,
      "v": 100
    },
    {
      "midi": 67,
      "hit": false,
      "t": 46125,
      "d": 1125,
      "v": 100
    },
    {
      "midi": 70,
      "hit": false,
      "t": 46125,
      "d": 1125,
      "v": 100
    },
    {
      "midi": 51,
      "hit": false,
      "t": 46162.5,
      "d": 1500,
      "v": 100
    },
    {
      "midi": 67,
      "hit": false,
      "t": 47250,
      "d": 375,
      "v": 100
    },
    {
      "midi": 70,
      "hit": false,
      "t": 47250,
      "d": 375,
      "v": 100
    },
    {
      "midi": 69,
      "hit": false,
      "t": 47637.5,
      "d": 750,
      "v": 100
    },
    {
      "midi": 72,
      "hit": false,
      "t": 47643.75,
      "d": 750,
      "v": 100
    },
    {
      "midi": 53,
      "hit": false,
      "t": 47662.5,
      "d": 3375,
      "v": 100
    },
    {
      "midi": 67,
      "hit": false,
      "t": 48375,
      "d": 375,
      "v": 100
    },
    {
      "midi": 70,
      "hit": false,
      "t": 48375,
      "d": 375,
      "v": 100
    },
    {
      "midi": 65,
      "hit": false,
      "t": 48750,
      "d": 750,
      "v": 100
    },
    {
      "midi": 69,
      "hit": false,
      "t": 48750,
      "d": 750,
      "v": 100
    },
    {
      "midi": 65,
      "hit": false,
      "t": 49500,
      "d": 375,
      "v": 100
    },
    {
      "midi": 67,
      "hit": false,
      "t": 49875,
      "d": 375,
      "v": 100
    },
    {
      "midi": 65,
      "hit": false,
      "t": 50250,
      "d": 375,
      "v": 100
    },
    {
      "midi": 68,
      "hit": false,
      "t": 50250,
      "d": 375,
      "v": 100
    },
    {
      "midi": 67,
      "hit": false,
      "t": 50625,
      "d": 375,
      "v": 100
    },
    {
      "midi": 70,
      "hit": false,
      "t": 50625,
      "d": 375,
      "v": 100
    },
    {
      "midi": 72,
      "hit": false,
      "t": 51000,
      "d": 750,
      "v": 100
    },
    {
      "midi": 49,
      "hit": false,
      "t": 51000,
      "d": 1125,
      "v": 100
    },
    {
      "midi": 63,
      "hit": false,
      "t": 51000,
      "d": 1125,
      "v": 100
    },
    {
      "midi": 65,
      "hit": false,
      "t": 51000,
      "d": 1125,
      "v": 100
    },
    {
      "midi": 68,
      "hit": false,
      "t": 51000,
      "d": 1125,
      "v": 100
    },
    {
      "midi": 72,
      "hit": false,
      "t": 51750,
      "d": 375,
      "v": 100
    },
    {
      "midi": 63,
      "hit": false,
      "t": 52125,
      "d": 1125,
      "v": 100
    },
    {
      "midi": 67,
      "hit": false,
      "t": 52125,
      "d": 1125,
      "v": 100
    },
    {
      "midi": 70,
      "hit": false,
      "t": 52125,
      "d": 1125,
      "v": 100
    },
    {
      "midi": 51,
      "hit": false,
      "t": 52125,
      "d": 1500,
      "v": 100
    },
    {
      "midi": 65,
      "hit": false,
      "t": 53250,
      "d": 375,
      "v": 100
    },
    {
      "midi": 65,
      "hit": false,
      "t": 53625,
      "d": 1875,
      "v": 100
    },
    {
      "midi": 69,
      "hit": false,
      "t": 53625,
      "d": 1875,
      "v": 100
    },
    {
      "midi": 53,
      "hit": false,
      "t": 53625,
      "d": 3375,
      "v": 100
    },
    {
      "midi": 65,
      "hit": false,
      "t": 55500,
      "d": 375,
      "v": 100
    },
    {
      "midi": 67,
      "hit": false,
      "t": 55875,
      "d": 375,
      "v": 100
    },
    {
      "midi": 65,
      "hit": false,
      "t": 56250,
      "d": 375,
      "v": 100
    },
    {
      "midi": 68,
      "hit": false,
      "t": 56250,
      "d": 375,
      "v": 100
    },
    {
      "midi": 67,
      "hit": false,
      "t": 56625,
      "d": 375,
      "v": 100
    },
    {
      "midi": 70,
      "hit": false,
      "t": 56625,
      "d": 375,
      "v": 100
    },
    {
      "midi": 72,
      "hit": false,
      "t": 57000,
      "d": 750,
      "v": 100
    },
    {
      "midi": 49,
      "hit": false,
      "t": 57000,
      "d": 1125,
      "v": 100
    },
    {
      "midi": 63,
      "hit": false,
      "t": 57000,
      "d": 1125,
      "v": 100
    },
    {
      "midi": 65,
      "hit": false,
      "t": 57000,
      "d": 1125,
      "v": 100
    },
    {
      "midi": 68,
      "hit": false,
      "t": 57000,
      "d": 1125,
      "v": 100
    },
    {
      "midi": 72,
      "hit": false,
      "t": 57750,
      "d": 375,
      "v": 100
    },
    {
      "midi": 63,
      "hit": false,
      "t": 58125,
      "d": 1125,
      "v": 100
    },
    {
      "midi": 67,
      "hit": false,
      "t": 58125,
      "d": 1125,
      "v": 100
    },
    {
      "midi": 70,
      "hit": false,
      "t": 58125,
      "d": 1125,
      "v": 100
    },
    {
      "midi": 51,
      "hit": false,
      "t": 58125,
      "d": 1500,
      "v": 100
    },
    {
      "midi": 63,
      "hit": false,
      "t": 59250,
      "d": 375,
      "v": 100
    },
    {
      "midi": 67,
      "hit": false,
      "t": 59250,
      "d": 375,
      "v": 100
    },
    {
      "midi": 70,
      "hit": false,
      "t": 59250,
      "d": 375,
      "v": 100
    },
    {
      "midi": 60,
      "hit": false,
      "t": 59625,
      "d": 1875,
      "v": 100
    },
    {
      "midi": 67,
      "hit": false,
      "t": 59625,
      "d": 1875,
      "v": 100
    },
    {
      "midi": 69,
      "hit": false,
      "t": 59625,
      "d": 1875,
      "v": 100
    },
    {
      "midi": 53,
      "hit": false,
      "t": 59625,
      "d": 3375,
      "v": 100
    },
    {
      "midi": 65,
      "hit": false,
      "t": 61500,
      "d": 375,
      "v": 100
    },
    {
      "midi": 67,
      "hit": false,
      "t": 61875,
      "d": 375,
      "v": 100
    },
    {
      "midi": 68,
      "hit": false,
      "t": 62250,
      "d": 375,
      "v": 100
    },
    {
      "midi": 70,
      "hit": false,
      "t": 62625,
      "d": 375,
      "v": 100
    },
    {
      "midi": 72,
      "hit": false,
      "t": 63000,
      "d": 750,
      "v": 100
    },
    {
      "midi": 49,
      "hit": false,
      "t": 63000,
      "d": 1125,
      "v": 100
    },
    {
      "midi": 63,
      "hit": false,
      "t": 63000,
      "d": 1125,
      "v": 100
    },
    {
      "midi": 65,
      "hit": false,
      "t": 63000,
      "d": 1125,
      "v": 100
    },
    {
      "midi": 68,
      "hit": false,
      "t": 63000,
      "d": 1125,
      "v": 100
    },
    {
      "midi": 72,
      "hit": false,
      "t": 63750,
      "d": 375,
      "v": 100
    },
    {
      "midi": 63,
      "hit": false,
      "t": 64125,
      "d": 1125,
      "v": 100
    },
    {
      "midi": 67,
      "hit": false,
      "t": 64125,
      "d": 1125,
      "v": 100
    },
    {
      "midi": 70,
      "hit": false,
      "t": 64125,
      "d": 1125,
      "v": 100
    },
    {
      "midi": 51,
      "hit": false,
      "t": 64125,
      "d": 1500,
      "v": 100
    },
    {
      "midi": 63,
      "hit": false,
      "t": 65250,
      "d": 375,
      "v": 100
    },
    {
      "midi": 67,
      "hit": false,
      "t": 65250,
      "d": 375,
      "v": 100
    },
    {
      "midi": 70,
      "hit": false,
      "t": 65250,
      "d": 375,
      "v": 100
    },
    {
      "midi": 53,
      "hit": false,
      "t": 65625,
      "d": 3375,
      "v": 100
    },
    {
      "midi": 60,
      "hit": false,
      "t": 65625,
      "d": 3375,
      "v": 100
    },
    {
      "midi": 67,
      "hit": false,
      "t": 65625,
      "d": 3375,
      "v": 100
    },
    {
      "midi": 69,
      "hit": false,
      "t": 65625,
      "d": 3375,
      "v": 100
    },
    {
      "midi": 53,
      "hit": false,
      "t": 69000,
      "d": 3000,
      "v": 100
    },
    {
      "midi": 57,
      "hit": false,
      "t": 69000,
      "d": 3000,
      "v": 100
    },
    {
      "midi": 60,
      "hit": false,
      "t": 69000,
      "d": 3000,
      "v": 100
    },
    {
      "midi": 52,
      "hit": false,
      "t": 72000,
      "d": 3000,
      "v": 100
    },
    {
      "midi": 60,
      "hit": false,
      "t": 72000,
      "d": 3000,
      "v": 100
    },
    {
      "midi": 67,
      "hit": false,
      "t": 72000,
      "d": 3000,
      "v": 100
    },
    {
      "midi": 51,
      "hit": false,
      "t": 75000,
      "d": 3000,
      "v": 100
    },
    {
      "midi": 63,
      "hit": false,
      "t": 75000,
      "d": 3000,
      "v": 100
    },
    {
      "midi": 67,
      "hit": false,
      "t": 75000,
      "d": 3000,
      "v": 100
    },
    {
      "midi": 50,
      "hit": false,
      "t": 78000,
      "d": 2250,
      "v": 100
    },
    {
      "midi": 58,
      "hit": false,
      "t": 78000,
      "d": 2250,
      "v": 100
    },
    {
      "midi": 65,
      "hit": false,
      "t": 78000,
      "d": 2250,
      "v": 100
    },
    {
      "midi": 52,
      "hit": false,
      "t": 80250,
      "d": 750,
      "v": 100
    },
    {
      "midi": 60,
      "hit": false,
      "t": 80250,
      "d": 750,
      "v": 100
    },
    {
      "midi": 67,
      "hit": false,
      "t": 80250,
      "d": 750,
      "v": 100
    },
    {
      "midi": 53,
      "hit": false,
      "t": 81000,
      "d": 3000,
      "v": 100
    },
    {
      "midi": 57,
      "hit": false,
      "t": 81000,
      "d": 3000,
      "v": 100
    },
    {
      "midi": 60,
      "hit": false,
      "t": 81000,
      "d": 3000,
      "v": 100
    },
    {
      "midi": 52,
      "hit": false,
      "t": 84000,
      "d": 3000,
      "v": 100
    },
    {
      "midi": 60,
      "hit": false,
      "t": 84000,
      "d": 3000,
      "v": 100
    },
    {
      "midi": 67,
      "hit": false,
      "t": 84000,
      "d": 3000,
      "v": 100
    },
    {
      "midi": 51,
      "hit": false,
      "t": 87000,
      "d": 3000,
      "v": 100
    },
    {
      "midi": 63,
      "hit": false,
      "t": 87000,
      "d": 3000,
      "v": 100
    },
    {
      "midi": 67,
      "hit": false,
      "t": 87000,
      "d": 3000,
      "v": 100
    },
    {
      "midi": 65,
      "hit": false,
      "t": 90000,
      "d": 1125,
      "v": 100
    },
    {
      "midi": 70,
      "hit": false,
      "t": 90000,
      "d": 1500,
      "v": 100
    },
    {
      "midi": 50,
      "hit": false,
      "t": 90000,
      "d": 3750,
      "v": 100
    },
    {
      "midi": 58,
      "hit": false,
      "t": 90000,
      "d": 3750,
      "v": 100
    },
    {
      "midi": 69,
      "hit": false,
      "t": 90375,
      "d": 375,
      "v": 100
    },
    {
      "midi": 67,
      "hit": false,
      "t": 90750,
      "d": 375,
      "v": 100
    },
    {
      "midi": 65,
      "hit": false,
      "t": 91125,
      "d": 375,
      "v": 100
    },
    {
      "midi": 70,
      "hit": false,
      "t": 91500,
      "d": 375,
      "v": 100
    },
    {
      "midi": 69,
      "hit": false,
      "t": 91875,
      "d": 375,
      "v": 100
    },
    {
      "midi": 67,
      "hit": false,
      "t": 92250,
      "d": 375,
      "v": 100
    },
    {
      "midi": 65,
      "hit": false,
      "t": 92625,
      "d": 375,
      "v": 100
    },
    {
      "midi": 65,
      "hit": false,
      "t": 94500,
      "d": 375,
      "v": 100
    },
    {
      "midi": 67,
      "hit": false,
      "t": 94875,
      "d": 375,
      "v": 100
    },
    {
      "midi": 65,
      "hit": false,
      "t": 95250,
      "d": 375,
      "v": 100
    },
    {
      "midi": 68,
      "hit": false,
      "t": 95250,
      "d": 375,
      "v": 100
    },
    {
      "midi": 67,
      "hit": false,
      "t": 95625,
      "d": 375,
      "v": 100
    },
    {
      "midi": 70,
      "hit": false,
      "t": 95625,
      "d": 375,
      "v": 100
    },
    {
      "midi": 49,
      "hit": false,
      "t": 96000,
      "d": 1125,
      "v": 100
    },
    {
      "midi": 63,
      "hit": false,
      "t": 96000,
      "d": 1125,
      "v": 100
    },
    {
      "midi": 65,
      "hit": false,
      "t": 96000,
      "d": 1125,
      "v": 100
    },
    {
      "midi": 68,
      "hit": false,
      "t": 96000,
      "d": 1125,
      "v": 100
    },
    {
      "midi": 72,
      "hit": false,
      "t": 96000,
      "d": 1125,
      "v": 100
    },
    {
      "midi": 51,
      "hit": false,
      "t": 97125,
      "d": 1125,
      "v": 100
    },
    {
      "midi": 63,
      "hit": false,
      "t": 97125,
      "d": 1125,
      "v": 100
    },
    {
      "midi": 67,
      "hit": false,
      "t": 97125,
      "d": 1125,
      "v": 100
    },
    {
      "midi": 70,
      "hit": false,
      "t": 97125,
      "d": 1125,
      "v": 100
    },
    {
      "midi": 53,
      "hit": false,
      "t": 98625,
      "d": 1125,
      "v": 100
    },
    {
      "midi": 65,
      "hit": false,
      "t": 98625,
      "d": 1125,
      "v": 100
    },
    {
      "midi": 69,
      "hit": false,
      "t": 98625,
      "d": 1125,
      "v": 100
    },
    {
      "midi": 72,
      "hit": false,
      "t": 98625,
      "d": 1125,
      "v": 100
    },
    {
      "midi": 65,
      "hit": false,
      "t": 100500,
      "d": 375,
      "v": 100
    },
    {
      "midi": 67,
      "hit": false,
      "t": 100875,
      "d": 375,
      "v": 100
    },
    {
      "midi": 65,
      "hit": false,
      "t": 101250,
      "d": 375,
      "v": 100
    },
    {
      "midi": 68,
      "hit": false,
      "t": 101250,
      "d": 375,
      "v": 100
    },
    {
      "midi": 67,
      "hit": false,
      "t": 101625,
      "d": 375,
      "v": 100
    },
    {
      "midi": 70,
      "hit": false,
      "t": 101625,
      "d": 375,
      "v": 100
    },
    {
      "midi": 49,
      "hit": false,
      "t": 102000,
      "d": 1125,
      "v": 100
    },
    {
      "midi": 63,
      "hit": false,
      "t": 102000,
      "d": 1125,
      "v": 100
    },
    {
      "midi": 65,
      "hit": false,
      "t": 102000,
      "d": 1125,
      "v": 100
    },
    {
      "midi": 68,
      "hit": false,
      "t": 102000,
      "d": 1125,
      "v": 100
    },
    {
      "midi": 72,
      "hit": false,
      "t": 102000,
      "d": 1125,
      "v": 100
    },
    {
      "midi": 51,
      "hit": false,
      "t": 103125,
      "d": 1125,
      "v": 100
    },
    {
      "midi": 63,
      "hit": false,
      "t": 103125,
      "d": 1125,
      "v": 100
    },
    {
      "midi": 67,
      "hit": false,
      "t": 103125,
      "d": 1125,
      "v": 100
    },
    {
      "midi": 70,
      "hit": false,
      "t": 103125,
      "d": 1125,
      "v": 100
    },
    {
      "midi": 53,
      "hit": false,
      "t": 104625,
      "d": 1125,
      "v": 100
    },
    {
      "midi": 65,
      "hit": false,
      "t": 104625,
      "d": 1125,
      "v": 100
    },
    {
      "midi": 69,
      "hit": false,
      "t": 104625,
      "d": 1125,
      "v": 100
    },
    {
      "midi": 72,
      "hit": false,
      "t": 104625,
      "d": 1125,
      "v": 100
    },
    {
      "midi": 65,
      "hit": false,
      "t": 106500,
      "d": 375,
      "v": 100
    },
    {
      "midi": 67,
      "hit": false,
      "t": 106875,
      "d": 375,
      "v": 100
    },
    {
      "midi": 65,
      "hit": false,
      "t": 107250,
      "d": 375,
      "v": 100
    },
    {
      "midi": 68,
      "hit": false,
      "t": 107250,
      "d": 375,
      "v": 100
    },
    {
      "midi": 67,
      "hit": false,
      "t": 107625,
      "d": 375,
      "v": 100
    },
    {
      "midi": 70,
      "hit": false,
      "t": 107625,
      "d": 375,
      "v": 100
    },
    {
      "midi": 49,
      "hit": false,
      "t": 108000,
      "d": 1125,
      "v": 100
    },
    {
      "midi": 63,
      "hit": false,
      "t": 108000,
      "d": 1125,
      "v": 100
    },
    {
      "midi": 65,
      "hit": false,
      "t": 108000,
      "d": 1125,
      "v": 100
    },
    {
      "midi": 68,
      "hit": false,
      "t": 108000,
      "d": 1125,
      "v": 100
    },
    {
      "midi": 72,
      "hit": false,
      "t": 108000,
      "d": 1125,
      "v": 100
    },
    {
      "midi": 51,
      "hit": false,
      "t": 109125,
      "d": 1125,
      "v": 100
    },
    {
      "midi": 63,
      "hit": false,
      "t": 109125,
      "d": 1125,
      "v": 100
    },
    {
      "midi": 67,
      "hit": false,
      "t": 109125,
      "d": 1125,
      "v": 100
    },
    {
      "midi": 70,
      "hit": false,
      "t": 109125,
      "d": 1125,
      "v": 100
    },
    {
      "midi": 53,
      "hit": false,
      "t": 110625,
      "d": 1125,
      "v": 100
    },
    {
      "midi": 65,
      "hit": false,
      "t": 110625,
      "d": 1125,
      "v": 100
    },
    {
      "midi": 69,
      "hit": false,
      "t": 110625,
      "d": 1125,
      "v": 100
    },
    {
      "midi": 72,
      "hit": false,
      "t": 110625,
      "d": 1125,
      "v": 100
    },
    {
      "midi": 65,
      "hit": false,
      "t": 112500,
      "d": 375,
      "v": 100
    },
    {
      "midi": 67,
      "hit": false,
      "t": 112875,
      "d": 375,
      "v": 100
    },
    {
      "midi": 65,
      "hit": false,
      "t": 113250,
      "d": 375,
      "v": 100
    },
    {
      "midi": 68,
      "hit": false,
      "t": 113250,
      "d": 375,
      "v": 100
    },
    {
      "midi": 67,
      "hit": false,
      "t": 113625,
      "d": 375,
      "v": 100
    },
    {
      "midi": 70,
      "hit": false,
      "t": 113625,
      "d": 375,
      "v": 100
    },
    {
      "midi": 49,
      "hit": false,
      "t": 114000,
      "d": 1125,
      "v": 100
    },
    {
      "midi": 63,
      "hit": false,
      "t": 114000,
      "d": 1125,
      "v": 100
    },
    {
      "midi": 65,
      "hit": false,
      "t": 114000,
      "d": 1125,
      "v": 100
    },
    {
      "midi": 68,
      "hit": false,
      "t": 114000,
      "d": 1125,
      "v": 100
    },
    {
      "midi": 72,
      "hit": false,
      "t": 114000,
      "d": 1125,
      "v": 100
    },
    {
      "midi": 51,
      "hit": false,
      "t": 115125,
      "d": 1125,
      "v": 100
    },
    {
      "midi": 63,
      "hit": false,
      "t": 115125,
      "d": 1125,
      "v": 100
    },
    {
      "midi": 67,
      "hit": false,
      "t": 115125,
      "d": 1125,
      "v": 100
    },
    {
      "midi": 70,
      "hit": false,
      "t": 115125,
      "d": 1125,
      "v": 100
    }
  ]
}