{
  "jsonPath": "Rap/Pop Rap/Brandy/have-you-ever-radio-edit.json",
  "path": "Rap\\Pop Rap\\Brandy\\Have You Ever (Radio Edit).mid",
  "name": "Have You Ever (Radio Edit)",
  "difficulty": "Advanced",
  "bpm": 136.0001450668214,
  "notes": [
    {
      "midi": 57,
      "hit": false,
      "t": 24705.856,
      "d": 1645.2188333333324,
      "v": 85
    },
    {
      "midi": 62,
      "hit": false,
      "t": 25147.032,
      "d": 1220.127375,
      "v": 71
    },
    {
      "midi": 69,
      "hit": false,
      "t": 25588.208,
      "d": 785.8447500000002,
      "v": 73
    },
    {
      "midi": 78,
      "hit": false,
      "t": 26029.384,
      "d": 406.7091250000012,
      "v": 74
    },
    {
      "midi": 55,
      "hit": false,
      "t": 26470.559999999998,
      "d": 3260.5663749999985,
      "v": 68
    },
    {
      "midi": 76,
      "hit": false,
      "t": 26911.735999999997,
      "d": 1192.5538749999978,
      "v": 91
    },
    {
      "midi": 81,
      "hit": false,
      "t": 27352.911999999997,
      "d": 434.2826249999998,
      "v": 91
    },
    {
      "midi": 79,
      "hit": false,
      "t": 27794.087999999996,
      "d": 487.1318333333329,
      "v": 78
    },
    {
      "midi": 76,
      "hit": false,
      "t": 28235.263999999996,
      "d": 482.536250000001,
      "v": 74
    },
    {
      "midi": 74,
      "hit": false,
      "t": 28676.439999999995,
      "d": 1054.6863750000011,
      "v": 78
    },
    {
      "midi": 76,
      "hit": false,
      "t": 30441.143999999997,
      "d": 1679.6857083333343,
      "v": 82
    },
    {
      "midi": 71,
      "hit": false,
      "t": 30441.143999999997,
      "d": 2681.5228749999987,
      "v": 78
    },
    {
      "midi": 59,
      "hit": false,
      "t": 30441.143999999997,
      "d": 2693.011833333334,
      "v": 66
    },
    {
      "midi": 64,
      "hit": false,
      "t": 30441.143999999997,
      "d": 2695.309624999998,
      "v": 65
    },
    {
      "midi": 83,
      "hit": false,
      "t": 30882.319999999996,
      "d": 473.3450833333336,
      "v": 95
    },
    {
      "midi": 81,
      "hit": false,
      "t": 31323.495999999996,
      "d": 261.9482500000013,
      "v": 88
    },
    {
      "midi": 80,
      "hit": false,
      "t": 31544.083999999995,
      "d": 119.4851666666691,
      "v": 74
    },
    {
      "midi": 78,
      "hit": false,
      "t": 31764.672,
      "d": 454.9627499999988,
      "v": 80
    },
    {
      "midi": 76,
      "hit": false,
      "t": 32205.847999999998,
      "d": 916.8188749999972,
      "v": 85
    },
    {
      "midi": 52,
      "hit": false,
      "t": 33529.376,
      "d": 953.5835416666669,
      "v": 74
    },
    {
      "midi": 57,
      "hit": false,
      "t": 33529.376,
      "d": 1015.6239166666637,
      "v": 78
    },
    {
      "midi": 59,
      "hit": false,
      "t": 33529.376,
      "d": 1017.9217083333278,
      "v": 74
    },
    {
      "midi": 61,
      "hit": false,
      "t": 33529.376,
      "d": 1063.8775416666613,
      "v": 63
    },
    {
      "midi": 64,
      "hit": false,
      "t": 33529.376,
      "d": 1075.3664999999964,
      "v": 71
    },
    {
      "midi": 45,
      "hit": false,
      "t": 33529.376,
      "d": 3134.1878333333298,
      "v": 82
    },
    {
      "midi": 59,
      "hit": false,
      "t": 34852.903999999995,
      "d": 1215.5317916666681,
      "v": 85
    },
    {
      "midi": 61,
      "hit": false,
      "t": 35073.492,
      "d": 992.6460000000006,
      "v": 80
    },
    {
      "midi": 64,
      "hit": false,
      "t": 35294.08,
      "d": 776.6535833333255,
      "v": 80
    },
    {
      "midi": 69,
      "hit": false,
      "t": 35294.08,
      "d": 818.0138333333234,
      "v": 95
    },
    {
      "midi": 52,
      "hit": false,
      "t": 35294.08,
      "d": 1357.9948749999894,
      "v": 80
    },
    {
      "midi": 57,
      "hit": false,
      "t": 36176.43199999999,
      "d": 677.8485416666663,
      "v": 76
    },
    {
      "midi": 61,
      "hit": false,
      "t": 36176.43199999999,
      "d": 730.6977499999994,
      "v": 78
    },
    {
      "midi": 64,
      "hit": false,
      "t": 36176.43199999999,
      "d": 732.9955416666635,
      "v": 58
    },
    {
      "midi": 52,
      "hit": false,
      "t": 37058.78399999999,
      "d": 1663.6011666666673,
      "v": 78
    },
    {
      "midi": 57,
      "hit": false,
      "t": 37058.78399999999,
      "d": 1819.850999999995,
      "v": 76
    },
    {
      "midi": 61,
      "hit": false,
      "t": 37058.78399999999,
      "d": 1918.6560416666616,
      "v": 68
    },
    {
      "midi": 66,
      "hit": false,
      "t": 37058.78399999999,
      "d": 2040.4389999999912,
      "v": 74
    },
    {
      "midi": 52,
      "hit": false,
      "t": 38823.48799999999,
      "d": 1309.7412499999991,
      "v": 91
    },
    {
      "midi": 59,
      "hit": false,
      "t": 39044.07599999999,
      "d": 1300.5500833333354,
      "v": 98
    },
    {
      "midi": 61,
      "hit": false,
      "t": 39264.66399999998,
      "d": 1098.344416666674,
      "v": 82
    },
    {
      "midi": 66,
      "hit": false,
      "t": 39485.251999999986,
      "d": 919.1166666666686,
      "v": 88
    },
    {
      "midi": 69,
      "hit": false,
      "t": 39705.83999999999,
      "d": 673.2529583333308,
      "v": 85
    },
    {
      "midi": 57,
      "hit": false,
      "t": 40588.19199999999,
      "d": 1210.9362083333326,
      "v": 85
    },
    {
      "midi": 50,
      "hit": false,
      "t": 40588.19199999999,
      "d": 1227.020749999996,
      "v": 78
    },
    {
      "midi": 54,
      "hit": false,
      "t": 40588.19199999999,
      "d": 1238.5097083333312,
      "v": 74
    },
    {
      "midi": 61,
      "hit": false,
      "t": 40588.19199999999,
      "d": 1238.5097083333312,
      "v": 74
    },
    {
      "midi": 66,
      "hit": false,
      "t": 40588.19199999999,
      "d": 1293.6567083333284,
      "v": 80
    },
    {
      "midi": 57,
      "hit": false,
      "t": 41911.71999999999,
      "d": 68.93374999999651,
      "v": 80
    },
    {
      "midi": 61,
      "hit": false,
      "t": 41911.71999999999,
      "d": 82.72049999999581,
      "v": 73
    },
    {
      "midi": 54,
      "hit": false,
      "t": 41911.71999999999,
      "d": 94.20945833333099,
      "v": 62
    },
    {
      "midi": 50,
      "hit": false,
      "t": 41911.71999999999,
      "d": 96.50724999999511,
      "v": 63
    },
    {
      "midi": 50,
      "hit": false,
      "t": 42352.89599999998,
      "d": 2141.5418333333364,
      "v": 80
    },
    {
      "midi": 54,
      "hit": false,
      "t": 42352.89599999998,
      "d": 2208.177791666669,
      "v": 67
    },
    {
      "midi": 57,
      "hit": false,
      "t": 42352.89599999998,
      "d": 2265.6225833333374,
      "v": 85
    },
    {
      "midi": 61,
      "hit": false,
      "t": 42352.89599999998,
      "d": 3106.6143333333384,
      "v": 78
    },
    {
      "midi": 50,
      "hit": false,
      "t": 44558.77599999998,
      "d": 2545.953166666666,
      "v": 95
    },
    {
      "midi": 54,
      "hit": false,
      "t": 44999.95199999998,
      "d": 2109.3727500000023,
      "v": 82
    },
    {
      "midi": 66,
      "hit": false,
      "t": 45441.12799999998,
      "d": 2277.1115416666726,
      "v": 91
    },
    {
      "midi": 26,
      "hit": false,
      "t": 45441.128,
      "d": 1254.594250000002,
      "v": 98
    },
    {
      "midi": 38,
      "hit": false,
      "t": 45441.128,
      "d": 1266.083208333337,
      "v": 91
    },
    {
      "midi": 61,
      "hit": false,
      "t": 45882.30399999998,
      "d": 1852.0200833333365,
      "v": 95
    },
    {
      "midi": 59,
      "hit": false,
      "t": 46764.65599999998,
      "d": 928.3078333333397,
      "v": 98
    },
    {
      "midi": 45,
      "hit": false,
      "t": 47647.00799999999,
      "d": 3184.7392500000133,
      "v": 85
    },
    {
      "midi": 52,
      "hit": false,
      "t": 48088.18399999999,
      "d": 2773.434541666684,
      "v": 85
    },
    {
      "midi": 59,
      "hit": false,
      "t": 48529.359999999986,
      "d": 1721.0459583333359,
      "v": 76
    },
    {
      "midi": 61,
      "hit": false,
      "t": 48529.359999999986,
      "d": 1849.7222916666724,
      "v": 74
    },
    {
      "midi": 64,
      "hit": false,
      "t": 48529.359999999986,
      "d": 1854.317875000008,
      "v": 80
    },
    {
      "midi": 57,
      "hit": false,
      "t": 50294.06399999999,
      "d": 840.9917500000083,
      "v": 91
    },
    {
      "midi": 59,
      "hit": false,
      "t": 50514.651999999995,
      "d": 611.2125833333412,
      "v": 104
    },
    {
      "midi": 61,
      "hit": false,
      "t": 50735.24,
      "d": 383.73120833333815,
      "v": 80
    },
    {
      "midi": 64,
      "hit": false,
      "t": 50955.828,
      "d": 278.0327916666647,
      "v": 91
    },
    {
      "midi": 54,
      "hit": false,
      "t": 51176.416,
      "d": 2198.986625000005,
      "v": 88
    },
    {
      "midi": 61,
      "hit": false,
      "t": 51176.416,
      "d": 2621.7802916666697,
      "v": 62
    },
    {
      "midi": 66,
      "hit": false,
      "t": 51176.416,
      "d": 2686.118458333338,
      "v": 80
    },
    {
      "midi": 57,
      "hit": false,
      "t": 51397.004,
      "d": 2711.394166666665,
      "v": 67
    },
    {
      "midi": 49,
      "hit": false,
      "t": 53382.296,
      "d": 1114.4289583333302,
      "v": 88
    },
    {
      "midi": 54,
      "hit": false,
      "t": 53823.472,
      "d": 767.4624166666617,
      "v": 91
    },
    {
      "midi": 69,
      "hit": false,
      "t": 54264.648,
      "d": 482.5362499999901,
      "v": 95
    },
    {
      "midi": 57,
      "hit": false,
      "t": 54705.82399999999,
      "d": 2192.093249999998,
      "v": 76
    },
    {
      "midi": 61,
      "hit": false,
      "t": 54705.82399999999,
      "d": 2258.7292083333305,
      "v": 82
    },
    {
      "midi": 66,
      "hit": false,
      "t": 54705.82399999999,
      "d": 2302.3872499999998,
      "v": 88
    },
    {
      "midi": 50,
      "hit": false,
      "t": 54705.82399999999,
      "d": 6636.022333333349,
      "v": 82
    },
    {
      "midi": 54,
      "hit": false,
      "t": 54705.82399999999,
      "d": 6640.617916666684,
      "v": 74
    },
    {
      "midi": 64,
      "hit": false,
      "t": 57352.87999999999,
      "d": 4202.660958333348,
      "v": 91
    },
    {
      "midi": 66,
      "hit": false,
      "t": 57573.46799999999,
      "d": 2886.0263333333423,
      "v": 88
    },
    {
      "midi": 69,
      "hit": false,
      "t": 57794.056,
      "d": 275.7350000000006,
      "v": 73
    },
    {
      "midi": 73,
      "hit": false,
      "t": 58014.644,
      "d": 2474.7216250000056,
      "v": 88
    },
    {
      "midi": 69,
      "hit": false,
      "t": 58235.231999999996,
      "d": 2194.3910416666695,
      "v": 78
    },
    {
      "midi": 57,
      "hit": false,
      "t": 58235.231999999996,
      "d": 3056.0629166666768,
      "v": 76
    },
    {
      "midi": 66,
      "hit": false,
      "t": 60882.28800000001,
      "d": 664.061791666667,
      "v": 78
    },
    {
      "midi": 69,
      "hit": false,
      "t": 60882.28800000001,
      "d": 684.7419166666659,
      "v": 82
    },
    {
      "midi": 62,
      "hit": false,
      "t": 61764.64000000001,
      "d": 1987.5897916666654,
      "v": 66
    },
    {
      "midi": 66,
      "hit": false,
      "t": 61764.64000000001,
      "d": 2054.225749999998,
      "v": 64
    },
    {
      "midi": 69,
      "hit": false,
      "t": 61764.64000000001,
      "d": 2072.6080833333326,
      "v": 73
    },
    {
      "midi": 47,
      "hit": false,
      "t": 61764.64000000001,
      "d": 3058.3607083333336,
      "v": 71
    },
    {
      "midi": 57,
      "hit": false,
      "t": 61764.64000000001,
      "d": 3079.0408333333326,
      "v": 65
    },
    {
      "midi": 54,
      "hit": false,
      "t": 61764.64000000001,
      "d": 3097.42316666666,
      "v": 59
    },
    {
      "midi": 64,
      "hit": false,
      "t": 64411.696,
      "d": 2061.1191249999756,
      "v": 91
    },
    {
      "midi": 66,
      "hit": false,
      "t": 64632.28400000001,
      "d": 454.9627499999915,
      "v": 82
    },
    {
      "midi": 69,
      "hit": false,
      "t": 64852.872,
      "d": 250.45929166665883,
      "v": 80
    },
    {
      "midi": 74,
      "hit": false,
      "t": 65073.46,
      "d": 250.4592916666661,
      "v": 85
    },
    {
      "midi": 59,
      "hit": false,
      "t": 65294.047999999995,
      "d": 994.9437916666648,
      "v": 76
    },
    {
      "midi": 49,
      "hit": false,
      "t": 65294.047999999995,
      "d": 1027.1128749999916,
      "v": 67
    },
    {
      "midi": 56,
      "hit": false,
      "t": 65294.047999999995,
      "d": 1034.0062499999913,
      "v": 66
    },
    {
      "midi": 73,
      "hit": false,
      "t": 65294.047999999995,
      "d": 1144.3002499999857,
      "v": 73
    },
    {
      "midi": 68,
      "hit": false,
      "t": 65294.047999999995,
      "d": 1158.086999999985,
      "v": 78
    },
    {
      "midi": 64,
      "hit": false,
      "t": 66617.57599999999,
      "d": 1723.34375,
      "v": 78
    },
    {
      "midi": 73,
      "hit": false,
      "t": 66617.57599999999,
      "d": 1730.2371249999997,
      "v": 74
    },
    {
      "midi": 54,
      "hit": false,
      "t": 66617.57599999999,
      "d": 1732.534916666671,
      "v": 73
    },
    {
      "midi": 69,
      "hit": false,
      "t": 66617.57599999999,
      "d": 1741.726083333342,
      "v": 78
    },
    {
      "midi": 57,
      "hit": false,
      "t": 66838.16399999999,
      "d": 1447.6087499999994,
      "v": 68
    },
    {
      "midi": 43,
      "hit": false,
      "t": 68823.45599999999,
      "d": 2853.8572500000155,
      "v": 91
    },
    {
      "midi": 59,
      "hit": false,
      "t": 68823.45599999999,
      "d": 3377.753750000018,
      "v": 80
    },
    {
      "midi": 50,
      "hit": false,
      "t": 69044.044,
      "d": 2704.50079166668,
      "v": 78
    },
    {
      "midi": 64,
      "hit": false,
      "t": 69264.632,
      "d": 1960.016291666674,
      "v": 91
    },
    {
      "midi": 55,
      "hit": false,
      "t": 69264.632,
      "d": 2465.530458333349,
      "v": 70
    },
    {
      "midi": 71,
      "hit": false,
      "t": 69485.22,
      "d": 2745.861041666678,
      "v": 91
    },
    {
      "midi": 66,
      "hit": false,
      "t": 69705.808,
      "d": 1534.924833333338,
      "v": 80
    },
    {
      "midi": 62,
      "hit": false,
      "t": 71470.512,
      "d": 824.9072083333449,
      "v": 78
    },
    {
      "midi": 66,
      "hit": false,
      "t": 71470.512,
      "d": 827.2050000000163,
      "v": 71
    },
    {
      "midi": 52,
      "hit": false,
      "t": 72352.86400000002,
      "d": 3432.9007499999716,
      "v": 91
    },
    {
      "midi": 54,
      "hit": false,
      "t": 72573.45200000002,
      "d": 3193.9304166666407,
      "v": 78
    },
    {
      "midi": 57,
      "hit": false,
      "t": 72794.04000000002,
      "d": 130.97412499999336,
      "v": 76
    },
    {
      "midi": 64,
      "hit": false,
      "t": 72794.04000000002,
      "d": 2242.644666666645,
      "v": 104
    },
    {
      "midi": 66,
      "hit": false,
      "t": 73014.62800000001,
      "d": 1142.0024583333288,
      "v": 88
    },
    {
      "midi": 74,
      "hit": false,
      "t": 73235.21600000001,
      "d": 489.4296250000043,
      "v": 95
    },
    {
      "midi": 71,
      "hit": false,
      "t": 73676.39200000002,
      "d": 2040.4389999999694,
      "v": 85
    },
    {
      "midi": 69,
      "hit": false,
      "t": 74117.56800000001,
      "d": 317.0952499999985,
      "v": 88
    },
    {
      "midi": 68,
      "hit": false,
      "t": 74558.744,
      "d": 445.771583333335,
      "v": 78
    },
    {
      "midi": 66,
      "hit": false,
      "t": 74999.92000000001,
      "d": 487.13183333331835,
      "v": 88
    },
    {
      "midi": 64,
      "hit": false,
      "t": 75441.096,
      "d": 305.60629166665603,
      "v": 76
    }
  ]
}