{
  "jsonPath": "Rock/Country Rock/Vince Gill/liza-jane.json",
  "path": "Rock\\Country Rock\\Vince Gill\\Liza Jane.mid",
  "name": "Liza Jane",
  "difficulty": "Advanced",
  "bpm": 180.00018000018,
  "notes": [
    {
      "midi": 45,
      "hit": false,
      "t": 1333.332,
      "d": 392.36071874999993,
      "v": 101
    },
    {
      "midi": 52,
      "hit": false,
      "t": 1333.332,
      "d": 416.66625,
      "v": 101
    },
    {
      "midi": 57,
      "hit": false,
      "t": 1666.665,
      "d": 90.27768750000018,
      "v": 101
    },
    {
      "midi": 55,
      "hit": false,
      "t": 1666.665,
      "d": 104.16656250000028,
      "v": 101
    },
    {
      "midi": 64,
      "hit": false,
      "t": 1666.665,
      "d": 107.63878125000019,
      "v": 101
    },
    {
      "midi": 61,
      "hit": false,
      "t": 1666.665,
      "d": 121.52765625000029,
      "v": 101
    },
    {
      "midi": 57,
      "hit": false,
      "t": 2166.6645000000003,
      "d": 59.027718750000076,
      "v": 101
    },
    {
      "midi": 55,
      "hit": false,
      "t": 2166.6645000000003,
      "d": 76.38881249999986,
      "v": 101
    },
    {
      "midi": 64,
      "hit": false,
      "t": 2166.6645000000003,
      "d": 93.74990624999964,
      "v": 101
    },
    {
      "midi": 61,
      "hit": false,
      "t": 2166.6645000000003,
      "d": 104.1665624999996,
      "v": 101
    },
    {
      "midi": 45,
      "hit": false,
      "t": 2333.331,
      "d": 86.80546875000027,
      "v": 98
    },
    {
      "midi": 52,
      "hit": false,
      "t": 2333.331,
      "d": 124.99987500000043,
      "v": 84
    },
    {
      "midi": 57,
      "hit": false,
      "t": 2666.6640000000007,
      "d": 62.499937500000215,
      "v": 101
    },
    {
      "midi": 55,
      "hit": false,
      "t": 2666.6640000000007,
      "d": 79.86103125,
      "v": 101
    },
    {
      "midi": 61,
      "hit": false,
      "t": 2666.6640000000007,
      "d": 90.27768749999996,
      "v": 101
    },
    {
      "midi": 64,
      "hit": false,
      "t": 2666.6640000000007,
      "d": 90.27768749999996,
      "v": 101
    },
    {
      "midi": 45,
      "hit": false,
      "t": 2833.3305000000005,
      "d": 72.91659375000017,
      "v": 98
    },
    {
      "midi": 52,
      "hit": false,
      "t": 2833.3305000000005,
      "d": 104.16656250000005,
      "v": 84
    },
    {
      "midi": 52,
      "hit": false,
      "t": 3083.3302500000004,
      "d": 52.0832812499998,
      "v": 84
    },
    {
      "midi": 59,
      "hit": false,
      "t": 3166.6635,
      "d": 27.777750000000196,
      "v": 101
    },
    {
      "midi": 62,
      "hit": false,
      "t": 3166.6635,
      "d": 100.69434375000037,
      "v": 101
    },
    {
      "midi": 64,
      "hit": false,
      "t": 3166.6635,
      "d": 111.11100000000033,
      "v": 101
    },
    {
      "midi": 57,
      "hit": false,
      "t": 3166.6635,
      "d": 118.05543750000015,
      "v": 101
    },
    {
      "midi": 57,
      "hit": false,
      "t": 3499.9965,
      "d": 65.9721562499999,
      "v": 101
    },
    {
      "midi": 64,
      "hit": false,
      "t": 3499.9965,
      "d": 76.38881249999986,
      "v": 101
    },
    {
      "midi": 62,
      "hit": false,
      "t": 3499.9965,
      "d": 79.86103125,
      "v": 101
    },
    {
      "midi": 52,
      "hit": false,
      "t": 3666.663,
      "d": 83.33325000000013,
      "v": 101
    },
    {
      "midi": 45,
      "hit": false,
      "t": 3666.663,
      "d": 86.80546875000027,
      "v": 101
    },
    {
      "midi": 64,
      "hit": false,
      "t": 3833.3295000000003,
      "d": 52.0832812499998,
      "v": 75
    },
    {
      "midi": 57,
      "hit": false,
      "t": 3833.3295000000003,
      "d": 83.33324999999968,
      "v": 86
    },
    {
      "midi": 62,
      "hit": false,
      "t": 3833.3295000000003,
      "d": 93.74990624999964,
      "v": 101
    },
    {
      "midi": 45,
      "hit": false,
      "t": 3999.996,
      "d": 423.6106874999996,
      "v": 101
    },
    {
      "midi": 52,
      "hit": false,
      "t": 3999.996,
      "d": 437.49956249999923,
      "v": 101
    },
    {
      "midi": 57,
      "hit": false,
      "t": 4333.329,
      "d": 69.44437500000004,
      "v": 101
    },
    {
      "midi": 61,
      "hit": false,
      "t": 4333.329,
      "d": 72.91659375000017,
      "v": 101
    },
    {
      "midi": 64,
      "hit": false,
      "t": 4333.329,
      "d": 86.80546874999982,
      "v": 101
    },
    {
      "midi": 52,
      "hit": false,
      "t": 4499.995499999999,
      "d": 83.33324999999968,
      "v": 96
    },
    {
      "midi": 45,
      "hit": false,
      "t": 4499.995499999999,
      "d": 104.1665624999996,
      "v": 101
    },
    {
      "midi": 61,
      "hit": false,
      "t": 4833.328499999999,
      "d": 55.55550000000039,
      "v": 101
    },
    {
      "midi": 57,
      "hit": false,
      "t": 4833.328499999999,
      "d": 65.97215625000081,
      "v": 101
    },
    {
      "midi": 64,
      "hit": false,
      "t": 4833.328499999999,
      "d": 83.33325000000059,
      "v": 101
    },
    {
      "midi": 52,
      "hit": false,
      "t": 4999.994999999999,
      "d": 83.33324999999968,
      "v": 101
    },
    {
      "midi": 45,
      "hit": false,
      "t": 4999.994999999999,
      "d": 90.27768749999996,
      "v": 101
    },
    {
      "midi": 61,
      "hit": false,
      "t": 5166.661499999999,
      "d": 34.72218749999956,
      "v": 68
    },
    {
      "midi": 57,
      "hit": false,
      "t": 5166.661499999999,
      "d": 55.55549999999948,
      "v": 68
    },
    {
      "midi": 64,
      "hit": false,
      "t": 5166.661499999999,
      "d": 62.49993749999976,
      "v": 101
    },
    {
      "midi": 61,
      "hit": false,
      "t": 5333.327999999999,
      "d": 76.38881250000031,
      "v": 101
    },
    {
      "midi": 64,
      "hit": false,
      "t": 5333.327999999999,
      "d": 90.27768749999996,
      "v": 101
    },
    {
      "midi": 57,
      "hit": false,
      "t": 5333.327999999999,
      "d": 93.7499062500001,
      "v": 101
    },
    {
      "midi": 45,
      "hit": false,
      "t": 5499.994499999999,
      "d": 72.91659375000017,
      "v": 101
    },
    {
      "midi": 52,
      "hit": false,
      "t": 5499.994499999999,
      "d": 93.7499062500001,
      "v": 101
    },
    {
      "midi": 61,
      "hit": false,
      "t": 5666.660999999999,
      "d": 48.611062500000116,
      "v": 79
    },
    {
      "midi": 55,
      "hit": false,
      "t": 5666.660999999999,
      "d": 59.02771875000053,
      "v": 98
    },
    {
      "midi": 64,
      "hit": false,
      "t": 5666.660999999999,
      "d": 79.86103125000045,
      "v": 101
    },
    {
      "midi": 55,
      "hit": false,
      "t": 5833.327499999999,
      "d": 65.9721562499999,
      "v": 101
    },
    {
      "midi": 61,
      "hit": false,
      "t": 5833.327499999999,
      "d": 76.38881250000031,
      "v": 101
    },
    {
      "midi": 64,
      "hit": false,
      "t": 5833.327499999999,
      "d": 83.33325000000059,
      "v": 101
    },
    {
      "midi": 55,
      "hit": false,
      "t": 5999.994,
      "d": 62.49993749999976,
      "v": 101
    },
    {
      "midi": 61,
      "hit": false,
      "t": 5999.994,
      "d": 69.44437500000004,
      "v": 101
    },
    {
      "midi": 64,
      "hit": false,
      "t": 5999.994,
      "d": 83.33324999999968,
      "v": 101
    },
    {
      "midi": 55,
      "hit": false,
      "t": 6166.660499999999,
      "d": 90.27768749999996,
      "v": 101
    },
    {
      "midi": 61,
      "hit": false,
      "t": 6166.660499999999,
      "d": 111.11099999999988,
      "v": 101
    },
    {
      "midi": 64,
      "hit": false,
      "t": 6166.660499999999,
      "d": 215.27756250000039,
      "v": 101
    },
    {
      "midi": 45,
      "hit": false,
      "t": 6333.326999999999,
      "d": 83.33325000000059,
      "v": 101
    },
    {
      "midi": 52,
      "hit": false,
      "t": 6333.326999999999,
      "d": 107.63878125000065,
      "v": 101
    },
    {
      "midi": 55,
      "hit": false,
      "t": 6499.9935,
      "d": 93.7499062500001,
      "v": 101
    },
    {
      "midi": 61,
      "hit": false,
      "t": 6499.9935,
      "d": 97.22212500000023,
      "v": 101
    },
    {
      "midi": 64,
      "hit": false,
      "t": 6499.9935,
      "d": 131.9443124999998,
      "v": 101
    },
    {
      "midi": 45,
      "hit": false,
      "t": 6666.659999999999,
      "d": 416.6662499999993,
      "v": 101
    },
    {
      "midi": 52,
      "hit": false,
      "t": 6666.659999999999,
      "d": 423.6106874999996,
      "v": 101
    },
    {
      "midi": 61,
      "hit": false,
      "t": 6999.992999999999,
      "d": 138.88875000000007,
      "v": 101
    },
    {
      "midi": 55,
      "hit": false,
      "t": 6999.992999999999,
      "d": 152.77762499999972,
      "v": 101
    },
    {
      "midi": 64,
      "hit": false,
      "t": 6999.992999999999,
      "d": 173.61093749999964,
      "v": 101
    },
    {
      "midi": 52,
      "hit": false,
      "t": 7249.9927499999985,
      "d": 34.72218749999956,
      "v": 48
    },
    {
      "midi": 61,
      "hit": false,
      "t": 7333.325999999998,
      "d": 38.1944062499997,
      "v": 76
    },
    {
      "midi": 55,
      "hit": false,
      "t": 7333.325999999998,
      "d": 55.55549999999948,
      "v": 81
    },
    {
      "midi": 64,
      "hit": false,
      "t": 7333.325999999998,
      "d": 76.3888124999994,
      "v": 101
    },
    {
      "midi": 55,
      "hit": false,
      "t": 7499.992499999998,
      "d": 83.33324999999968,
      "v": 101
    },
    {
      "midi": 61,
      "hit": false,
      "t": 7499.992499999998,
      "d": 90.27768749999996,
      "v": 101
    },
    {
      "midi": 64,
      "hit": false,
      "t": 7499.992499999998,
      "d": 114.58321875000001,
      "v": 101
    },
    {
      "midi": 45,
      "hit": false,
      "t": 7666.658999999998,
      "d": 79.86103125000045,
      "v": 101
    },
    {
      "midi": 52,
      "hit": false,
      "t": 7666.658999999998,
      "d": 104.16656250000051,
      "v": 101
    },
    {
      "midi": 61,
      "hit": false,
      "t": 7833.325499999998,
      "d": 41.66662499999984,
      "v": 79
    },
    {
      "midi": 55,
      "hit": false,
      "t": 7833.325499999998,
      "d": 48.611062500000116,
      "v": 63
    },
    {
      "midi": 64,
      "hit": false,
      "t": 7833.325499999998,
      "d": 69.44437500000004,
      "v": 101
    },
    {
      "midi": 55,
      "hit": false,
      "t": 7999.991999999998,
      "d": 104.1665624999996,
      "v": 101
    },
    {
      "midi": 61,
      "hit": false,
      "t": 7999.991999999998,
      "d": 124.99987499999952,
      "v": 101
    },
    {
      "midi": 64,
      "hit": false,
      "t": 7999.991999999998,
      "d": 142.3609687499993,
      "v": 101
    },
    {
      "midi": 45,
      "hit": false,
      "t": 8166.658499999998,
      "d": 83.33324999999968,
      "v": 101
    },
    {
      "midi": 52,
      "hit": false,
      "t": 8166.658499999998,
      "d": 97.22212500000023,
      "v": 101
    },
    {
      "midi": 64,
      "hit": false,
      "t": 8333.324999999997,
      "d": 41.66662499999984,
      "v": 60
    },
    {
      "midi": 57,
      "hit": false,
      "t": 8499.991499999996,
      "d": 184.02759374999914,
      "v": 101
    },
    {
      "midi": 64,
      "hit": false,
      "t": 8499.991499999996,
      "d": 194.44424999999865,
      "v": 101
    },
    {
      "midi": 62,
      "hit": false,
      "t": 8499.991499999996,
      "d": 208.3331249999992,
      "v": 101
    },
    {
      "midi": 57,
      "hit": false,
      "t": 8833.324499999995,
      "d": 159.7220625000009,
      "v": 101
    },
    {
      "midi": 64,
      "hit": false,
      "t": 8833.324499999995,
      "d": 159.7220625000009,
      "v": 101
    },
    {
      "midi": 62,
      "hit": false,
      "t": 8833.324499999995,
      "d": 170.1387187500004,
      "v": 101
    },
    {
      "midi": 45,
      "hit": false,
      "t": 8999.990999999996,
      "d": 107.63878124999974,
      "v": 101
    },
    {
      "midi": 52,
      "hit": false,
      "t": 8999.990999999996,
      "d": 111.11099999999897,
      "v": 101
    },
    {
      "midi": 62,
      "hit": false,
      "t": 9166.657499999996,
      "d": 131.9443124999998,
      "v": 101
    },
    {
      "midi": 64,
      "hit": false,
      "t": 9166.657499999996,
      "d": 131.9443124999998,
      "v": 101
    },
    {
      "midi": 57,
      "hit": false,
      "t": 9166.657499999996,
      "d": 135.41653124999903,
      "v": 101
    },
    {
      "midi": 45,
      "hit": false,
      "t": 9333.323999999995,
      "d": 618.0549374999991,
      "v": 101
    },
    {
      "midi": 52,
      "hit": false,
      "t": 9333.323999999995,
      "d": 624.9993749999994,
      "v": 101
    },
    {
      "midi": 55,
      "hit": false,
      "t": 9666.656999999996,
      "d": 90.27768749999996,
      "v": 101
    },
    {
      "midi": 61,
      "hit": false,
      "t": 9666.656999999996,
      "d": 90.27768749999996,
      "v": 101
    },
    {
      "midi": 64,
      "hit": false,
      "t": 9666.656999999996,
      "d": 93.74990624999919,
      "v": 101
    },
    {
      "midi": 61,
      "hit": false,
      "t": 10166.656499999994,
      "d": 62.49993750000067,
      "v": 101
    },
    {
      "midi": 55,
      "hit": false,
      "t": 10166.656499999994,
      "d": 79.86103125000045,
      "v": 101
    },
    {
      "midi": 64,
      "hit": false,
      "t": 10166.656499999994,
      "d": 104.16656250000051,
      "v": 101
    },
    {
      "midi": 52,
      "hit": false,
      "t": 10333.322999999995,
      "d": 72.91659375000017,
      "v": 98
    },
    {
      "midi": 45,
      "hit": false,
      "t": 10333.322999999995,
      "d": 97.22212500000023,
      "v": 101
    },
    {
      "midi": 61,
      "hit": false,
      "t": 10499.989499999994,
      "d": 41.66662499999984,
      "v": 81
    },
    {
      "midi": 55,
      "hit": false,
      "t": 10499.989499999994,
      "d": 45.13884374999907,
      "v": 69
    },
    {
      "midi": 64,
      "hit": false,
      "t": 10499.989499999994,
      "d": 59.02771874999962,
      "v": 101
    },
    {
      "midi": 61,
      "hit": false,
      "t": 10666.655999999994,
      "d": 90.27768749999996,
      "v": 101
    },
    {
      "midi": 55,
      "hit": false,
      "t": 10666.655999999994,
      "d": 97.22212500000023,
      "v": 101
    },
    {
      "midi": 64,
      "hit": false,
      "t": 10666.655999999994,
      "d": 118.05543750000106,
      "v": 101
    },
    {
      "midi": 52,
      "hit": false,
      "t": 10833.322499999995,
      "d": 86.80546875000073,
      "v": 101
    },
    {
      "midi": 45,
      "hit": false,
      "t": 10833.322499999995,
      "d": 111.11100000000079,
      "v": 101
    },
    {
      "midi": 61,
      "hit": false,
      "t": 10999.988999999996,
      "d": 34.72218749999956,
      "v": 72
    },
    {
      "midi": 55,
      "hit": false,
      "t": 10999.988999999996,
      "d": 55.55550000000039,
      "v": 84
    },
    {
      "midi": 64,
      "hit": false,
      "t": 10999.988999999996,
      "d": 69.44437500000095,
      "v": 101
    },
    {
      "midi": 55,
      "hit": false,
      "t": 11166.655499999997,
      "d": 69.44437499999913,
      "v": 101
    },
    {
      "midi": 61,
      "hit": false,
      "t": 11166.655499999997,
      "d": 86.80546874999891,
      "v": 101
    },
    {
      "midi": 64,
      "hit": false,
      "t": 11166.655499999997,
      "d": 90.27768749999814,
      "v": 101
    },
    {
      "midi": 52,
      "hit": false,
      "t": 11333.321999999995,
      "d": 93.74990624999919,
      "v": 88
    },
    {
      "midi": 45,
      "hit": false,
      "t": 11333.321999999995,
      "d": 118.05543749999924,
      "v": 101
    },
    {
      "midi": 61,
      "hit": false,
      "t": 11499.988499999994,
      "d": 55.55550000000039,
      "v": 101
    },
    {
      "midi": 55,
      "hit": false,
      "t": 11499.988499999994,
      "d": 62.49993750000067,
      "v": 101
    },
    {
      "midi": 64,
      "hit": false,
      "t": 11499.988499999994,
      "d": 76.38881250000122,
      "v": 101
    },
    {
      "midi": 55,
      "hit": false,
      "t": 11666.654999999995,
      "d": 69.44437499999913,
      "v": 101
    },
    {
      "midi": 61,
      "hit": false,
      "t": 11666.654999999995,
      "d": 69.44437499999913,
      "v": 101
    },
    {
      "midi": 64,
      "hit": false,
      "t": 11666.654999999995,
      "d": 100.69434374999946,
      "v": 101
    },
    {
      "midi": 52,
      "hit": false,
      "t": 11999.987999999994,
      "d": 256.9441874999993,
      "v": 101
    },
    {
      "midi": 45,
      "hit": false,
      "t": 11999.987999999994,
      "d": 298.61081249999916,
      "v": 101
    },
    {
      "midi": 55,
      "hit": false,
      "t": 12166.654499999993,
      "d": 104.16656250000051,
      "v": 101
    },
    {
      "midi": 57,
      "hit": false,
      "t": 12333.320999999993,
      "d": 149.30540624999958,
      "v": 98
    },
    {
      "midi": 52,
      "hit": false,
      "t": 12499.987499999992,
      "d": 104.16656250000051,
      "v": 101
    },
    {
      "midi": 55,
      "hit": false,
      "t": 12666.653999999993,
      "d": 69.44437499999913,
      "v": 101
    },
    {
      "midi": 57,
      "hit": false,
      "t": 12666.653999999993,
      "d": 69.44437499999913,
      "v": 101
    },
    {
      "midi": 62,
      "hit": false,
      "t": 12666.653999999993,
      "d": 93.74990624999919,
      "v": 101
    },
    {
      "midi": 55,
      "hit": false,
      "t": 12999.986999999992,
      "d": 104.16656250000051,
      "v": 101
    },
    {
      "midi": 62,
      "hit": false,
      "t": 12999.986999999992,
      "d": 111.11100000000079,
      "v": 101
    },
    {
      "midi": 57,
      "hit": false,
      "t": 12999.986999999992,
      "d": 138.88875000000007,
      "v": 101
    },
    {
      "midi": 55,
      "hit": false,
      "t": 13166.653499999991,
      "d": 118.05543749999924,
      "v": 96
    },
    {
      "midi": 61,
      "hit": false,
      "t": 13166.653499999991,
      "d": 149.30540624999958,
      "v": 101
    },
    {
      "midi": 55,
      "hit": false,
      "t": 13499.98649999999,
      "d": 83.33324999999968,
      "v": 101
    },
    {
      "midi": 61,
      "hit": false,
      "t": 13499.98649999999,
      "d": 90.27768749999996,
      "v": 101
    },
    {
      "midi": 52,
      "hit": false,
      "t": 13666.65299999999,
      "d": 97.22212500000023,
      "v": 101
    },
    {
      "midi": 55,
      "hit": false,
      "t": 13833.319499999989,
      "d": 107.63878124999974,
      "v": 101
    },
    {
      "midi": 52,
      "hit": false,
      "t": 13999.985999999988,
      "d": 104.16656250000051,
      "v": 101
    },
    {
      "midi": 55,
      "hit": false,
      "t": 14166.65249999999,
      "d": 149.30540624999958,
      "v": 101
    },
    {
      "midi": 52,
      "hit": false,
      "t": 14333.318999999989,
      "d": 124.99987499999952,
      "v": 101
    },
    {
      "midi": 57,
      "hit": false,
      "t": 14499.985499999988,
      "d": 194.44424999999865,
      "v": 101
    },
    {
      "midi": 52,
      "hit": false,
      "t": 14666.651999999987,
      "d": 100.69434374999946,
      "v": 98
    },
    {
      "midi": 55,
      "hit": false,
      "t": 14833.318499999987,
      "d": 59.02771874999962,
      "v": 68
    },
    {
      "midi": 52,
      "hit": false,
      "t": 14916.651749999986,
      "d": 79.86103125000045,
      "v": 64
    },
    {
      "midi": 57,
      "hit": false,
      "t": 14999.984999999986,
      "d": 69.44437499999913,
      "v": 98
    },
    {
      "midi": 55,
      "hit": false,
      "t": 14999.984999999986,
      "d": 90.27768749999996,
      "v": 101
    },
    {
      "midi": 55,
      "hit": false,
      "t": 15333.317999999987,
      "d": 76.3888124999994,
      "v": 101
    },
    {
      "midi": 57,
      "hit": false,
      "t": 15333.317999999987,
      "d": 79.86103124999863,
      "v": 101
    },
    {
      "midi": 52,
      "hit": false,
      "t": 15499.984499999986,
      "d": 90.27768749999996,
      "v": 101
    },
    {
      "midi": 57,
      "hit": false,
      "t": 15666.650999999985,
      "d": 38.19440625000061,
      "v": 69
    },
    {
      "midi": 55,
      "hit": false,
      "t": 15666.650999999985,
      "d": 69.44437500000095,
      "v": 98
    },
    {
      "midi": 57,
      "hit": false,
      "t": 15833.317499999986,
      "d": 93.74990624999919,
      "v": 101
    },
    {
      "midi": 55,
      "hit": false,
      "t": 15833.317499999986,
      "d": 104.16656249999869,
      "v": 101
    },
    {
      "midi": 61,
      "hit": false,
      "t": 15833.317499999986,
      "d": 114.5832187499982,
      "v": 101
    },
    {
      "midi": 52,
      "hit": false,
      "t": 15999.983999999984,
      "d": 52.083281249999345,
      "v": 63
    },
    {
      "midi": 57,
      "hit": false,
      "t": 16166.650499999983,
      "d": 55.55550000000039,
      "v": 101
    },
    {
      "midi": 55,
      "hit": false,
      "t": 16166.650499999983,
      "d": 83.33324999999968,
      "v": 101
    },
    {
      "midi": 61,
      "hit": false,
      "t": 16166.650499999983,
      "d": 93.74990624999919,
      "v": 101
    },
    {
      "midi": 52,
      "hit": false,
      "t": 16333.316999999983,
      "d": 90.27768749999996,
      "v": 96
    },
    {
      "midi": 57,
      "hit": false,
      "t": 16666.649999999983,
      "d": 69.44437499999913,
      "v": 101
    },
    {
      "midi": 55,
      "hit": false,
      "t": 16666.649999999983,
      "d": 90.27768749999814,
      "v": 101
    },
    {
      "midi": 61,
      "hit": false,
      "t": 16666.649999999983,
      "d": 107.63878124999974,
      "v": 101
    },
    {
      "midi": 45,
      "hit": false,
      "t": 16833.316499999983,
      "d": 62.49993749999703,
      "v": 101
    },
    {
      "midi": 52,
      "hit": false,
      "t": 16833.316499999983,
      "d": 72.91659374999654,
      "v": 101
    },
    {
      "midi": 57,
      "hit": false,
      "t": 16999.98299999998,
      "d": 65.97215625000172,
      "v": 101
    },
    {
      "midi": 55,
      "hit": false,
      "t": 16999.98299999998,
      "d": 79.86103125000227,
      "v": 101
    },
    {
      "midi": 61,
      "hit": false,
      "t": 16999.98299999998,
      "d": 90.27768750000178,
      "v": 101
    },
    {
      "midi": 52,
      "hit": false,
      "t": 17333.31599999998,
      "d": 256.94418750000114,
      "v": 101
    },
    {
      "midi": 45,
      "hit": false,
      "t": 17333.31599999998,
      "d": 298.6108125000028,
      "v": 101
    },
    {
      "midi": 55,
      "hit": false,
      "t": 17499.98249999998,
      "d": 104.16656250000233,
      "v": 101
    },
    {
      "midi": 57,
      "hit": false,
      "t": 17666.648999999983,
      "d": 149.3054062500014,
      "v": 98
    },
    {
      "midi": 52,
      "hit": false,
      "t": 17833.315499999986,
      "d": 104.16656249999869,
      "v": 101
    },
    {
      "midi": 55,
      "hit": false,
      "t": 17999.981999999985,
      "d": 69.44437499999913,
      "v": 101
    },
    {
      "midi": 57,
      "hit": false,
      "t": 17999.981999999985,
      "d": 69.44437499999913,
      "v": 101
    },
    {
      "midi": 62,
      "hit": false,
      "t": 17999.981999999985,
      "d": 93.74990624999919,
      "v": 101
    },
    {
      "midi": 55,
      "hit": false,
      "t": 18333.314999999984,
      "d": 104.16656249999869,
      "v": 101
    },
    {
      "midi": 62,
      "hit": false,
      "t": 18333.314999999984,
      "d": 111.11099999999715,
      "v": 101
    },
    {
      "midi": 57,
      "hit": false,
      "t": 18333.314999999984,
      "d": 138.88874999999825,
      "v": 101
    },
    {
      "midi": 55,
      "hit": false,
      "t": 18499.981499999983,
      "d": 118.05543749999924,
      "v": 96
    },
    {
      "midi": 61,
      "hit": false,
      "t": 18499.981499999983,
      "d": 149.30540624999776,
      "v": 101
    },
    {
      "midi": 55,
      "hit": false,
      "t": 18833.314499999982,
      "d": 83.33324999999968,
      "v": 101
    },
    {
      "midi": 61,
      "hit": false,
      "t": 18833.314499999982,
      "d": 90.27768749999814,
      "v": 101
    },
    {
      "midi": 52,
      "hit": false,
      "t": 18999.98099999998,
      "d": 97.22212500000023,
      "v": 101
    },
    {
      "midi": 55,
      "hit": false,
      "t": 19166.64749999998,
      "d": 107.63878124999974,
      "v": 101
    },
    {
      "midi": 52,
      "hit": false,
      "t": 19333.31399999998,
      "d": 104.16656249999869,
      "v": 101
    },
    {
      "midi": 55,
      "hit": false,
      "t": 19499.98049999998,
      "d": 149.3054062500014,
      "v": 101
    },
    {
      "midi": 52,
      "hit": false,
      "t": 19666.646999999983,
      "d": 124.99987500000134,
      "v": 101
    },
    {
      "midi": 57,
      "hit": false,
      "t": 19833.313499999986,
      "d": 194.44425000000047,
      "v": 101
    },
    {
      "midi": 52,
      "hit": false,
      "t": 19999.979999999985,
      "d": 100.69434375000128,
      "v": 98
    },
    {
      "midi": 55,
      "hit": false,
      "t": 20166.646499999988,
      "d": 59.02771874999962,
      "v": 68
    },
    {
      "midi": 52,
      "hit": false,
      "t": 20249.979749999988,
      "d": 79.86103124999863,
      "v": 64
    },
    {
      "midi": 57,
      "hit": false,
      "t": 20333.312999999987,
      "d": 69.44437499999913,
      "v": 98
    },
    {
      "midi": 55,
      "hit": false,
      "t": 20333.312999999987,
      "d": 90.27768749999814,
      "v": 101
    },
    {
      "midi": 55,
      "hit": false,
      "t": 20666.645999999986,
      "d": 76.38881250000122,
      "v": 101
    },
    {
      "midi": 57,
      "hit": false,
      "t": 20666.645999999986,
      "d": 79.86103125000227,
      "v": 101
    },
    {
      "midi": 52,
      "hit": false,
      "t": 20833.31249999999,
      "d": 90.27768750000178,
      "v": 101
    },
    {
      "midi": 57,
      "hit": false,
      "t": 20999.978999999992,
      "d": 38.19440625000061,
      "v": 69
    },
    {
      "midi": 55,
      "hit": false,
      "t": 20999.978999999992,
      "d": 69.44437499999913,
      "v": 98
    },
    {
      "midi": 57,
      "hit": false,
      "t": 21166.64549999999,
      "d": 93.74990624999919,
      "v": 101
    },
    {
      "midi": 55,
      "hit": false,
      "t": 21166.64549999999,
      "d": 104.16656249999869,
      "v": 101
    },
    {
      "midi": 61,
      "hit": false,
      "t": 21166.64549999999,
      "d": 114.5832187499982,
      "v": 101
    },
    {
      "midi": 52,
      "hit": false,
      "t": 21333.31199999999,
      "d": 52.083281250001164,
      "v": 63
    },
    {
      "midi": 57,
      "hit": false,
      "t": 21499.97849999999,
      "d": 55.555499999998574,
      "v": 101
    },
    {
      "midi": 55,
      "hit": false,
      "t": 21499.97849999999,
      "d": 83.33324999999968,
      "v": 101
    },
    {
      "midi": 61,
      "hit": false,
      "t": 21499.97849999999,
      "d": 93.74990624999919,
      "v": 101
    },
    {
      "midi": 52,
      "hit": false,
      "t": 21666.64499999999,
      "d": 90.27768750000178,
      "v": 96
    },
    {
      "midi": 57,
      "hit": false,
      "t": 21999.977999999992,
      "d": 69.44437499999913,
      "v": 101
    },
    {
      "midi": 55,
      "hit": false,
      "t": 21999.977999999992,
      "d": 90.27768749999814,
      "v": 101
    },
    {
      "midi": 61,
      "hit": false,
      "t": 21999.977999999992,
      "d": 107.63878124999974,
      "v": 101
    },
    {
      "midi": 45,
      "hit": false,
      "t": 22166.64449999999,
      "d": 62.49993749999703,
      "v": 101
    },
    {
      "midi": 52,
      "hit": false,
      "t": 22166.64449999999,
      "d": 72.91659374999654,
      "v": 101
    },
    {
      "midi": 57,
      "hit": false,
      "t": 22333.310999999987,
      "d": 65.97215625000172,
      "v": 101
    },
    {
      "midi": 55,
      "hit": false,
      "t": 22333.310999999987,
      "d": 79.86103125000227,
      "v": 101
    },
    {
      "midi": 61,
      "hit": false,
      "t": 22333.310999999987,
      "d": 90.27768750000178,
      "v": 101
    },
    {
      "midi": 48,
      "hit": false,
      "t": 22666.64399999999,
      "d": 336.80521874999977,
      "v": 101
    },
    {
      "midi": 60,
      "hit": false,
      "t": 22999.976999999988,
      "d": 62.49993750000067,
      "v": 101
    },
    {
      "midi": 55,
      "hit": false,
      "t": 22999.976999999988,
      "d": 72.91659375000017,
      "v": 101
    },
    {
      "midi": 64,
      "hit": false,
      "t": 22999.976999999988,
      "d": 90.27768750000178,
      "v": 101
    },
    {
      "midi": 60,
      "hit": false,
      "t": 23499.97649999999,
      "d": 59.02771874999962,
      "v": 101
    },
    {
      "midi": 55,
      "hit": false,
      "t": 23499.97649999999,
      "d": 69.44437499999913,
      "v": 101
    },
    {
      "midi": 64,
      "hit": false,
      "t": 23499.97649999999,
      "d": 90.27768749999814,
      "v": 101
    },
    {
      "midi": 48,
      "hit": false,
      "t": 23666.64299999999,
      "d": 93.74990624999919,
      "v": 101
    },
    {
      "midi": 48,
      "hit": false,
      "t": 23916.642749999988,
      "d": 34.72218749999956,
      "v": 68
    },
    {
      "midi": 58,
      "hit": false,
      "t": 23999.975999999988,
      "d": 395.8329374999994,
      "v": 101
    },
    {
      "midi": 64,
      "hit": false,
      "t": 23999.975999999988,
      "d": 395.8329374999994,
      "v": 101
    },
    {
      "midi": 55,
      "hit": false,
      "t": 23999.975999999988,
      "d": 409.72181249999994,
      "v": 101
    },
    {
      "midi": 48,
      "hit": false,
      "t": 24333.308999999987,
      "d": 83.33324999999968,
      "v": 101
    },
    {
      "midi": 64,
      "hit": false,
      "t": 24499.975499999986,
      "d": 333.3329999999987,
      "v": 101
    },
    {
      "midi": 60,
      "hit": false,
      "t": 24499.975499999986,
      "d": 364.58296874999724,
      "v": 101
    },
    {
      "midi": 55,
      "hit": false,
      "t": 24499.975499999986,
      "d": 368.0551874999983,
      "v": 101
    },
    {
      "midi": 48,
      "hit": false,
      "t": 24833.308499999985,
      "d": 104.16656249999869,
      "v": 101
    },
    {
      "midi": 55,
      "hit": false,
      "t": 24999.974999999984,
      "d": 124.99987500000134,
      "v": 91
    },
    {
      "midi": 58,
      "hit": false,
      "t": 24999.974999999984,
      "d": 131.9443124999998,
      "v": 101
    },
    {
      "midi": 64,
      "hit": false,
      "t": 24999.974999999984,
      "d": 159.7220625000009,
      "v": 101
    },
    {
      "midi": 50,
      "hit": false,
      "t": 25666.640999999985,
      "d": 118.05543749999924,
      "v": 101
    },
    {
      "midi": 57,
      "hit": false,
      "t": 25666.640999999985,
      "d": 118.05543749999924,
      "v": 101
    },
    {
      "midi": 62,
      "hit": false,
      "t": 26166.640499999983,
      "d": 59.02771874999962,
      "v": 101
    },
    {
      "midi": 60,
      "hit": false,
      "t": 26166.640499999983,
      "d": 62.49993750000067,
      "v": 101
    },
    {
      "midi": 66,
      "hit": false,
      "t": 26166.640499999983,
      "d": 79.86103125000227,
      "v": 101
    },
    {
      "midi": 50,
      "hit": false,
      "t": 26333.306999999986,
      "d": 72.91659375000017,
      "v": 101
    },
    {
      "midi": 57,
      "hit": false,
      "t": 26333.306999999986,
      "d": 76.38881250000122,
      "v": 91
    },
    {
      "midi": 62,
      "hit": false,
      "t": 26666.63999999999,
      "d": 322.9163437499992,
      "v": 101
    },
    {
      "midi": 66,
      "hit": false,
      "t": 26666.63999999999,
      "d": 329.8607812499977,
      "v": 101
    },
    {
      "midi": 60,
      "hit": false,
      "t": 26666.63999999999,
      "d": 333.3329999999987,
      "v": 101
    },
    {
      "midi": 57,
      "hit": false,
      "t": 26999.972999999987,
      "d": 62.49993750000067,
      "v": 101
    },
    {
      "midi": 50,
      "hit": false,
      "t": 26999.972999999987,
      "d": 83.33324999999968,
      "v": 101
    },
    {
      "midi": 62,
      "hit": false,
      "t": 27166.639499999987,
      "d": 388.8884999999973,
      "v": 101
    },
    {
      "midi": 66,
      "hit": false,
      "t": 27166.639499999987,
      "d": 388.8884999999973,
      "v": 101
    },
    {
      "midi": 60,
      "hit": false,
      "t": 27166.639499999987,
      "d": 395.83293749999575,
      "v": 101
    },
    {
      "midi": 50,
      "hit": false,
      "t": 27499.972499999985,
      "d": 72.91659374999654,
      "v": 101
    },
    {
      "midi": 57,
      "hit": false,
      "t": 27499.972499999985,
      "d": 93.74990624999555,
      "v": 98
    },
    {
      "midi": 60,
      "hit": false,
      "t": 27666.63899999998,
      "d": 69.44437499999913,
      "v": 101
    },
    {
      "midi": 62,
      "hit": false,
      "t": 27666.63899999998,
      "d": 72.91659375000017,
      "v": 101
    },
    {
      "midi": 66,
      "hit": false,
      "t": 27666.63899999998,
      "d": 90.27768750000178,
      "v": 101
    },
    {
      "midi": 45,
      "hit": false,
      "t": 27999.971999999983,
      "d": 416.6662499999984,
      "v": 101
    },
    {
      "midi": 52,
      "hit": false,
      "t": 27999.971999999983,
      "d": 423.61068749999686,
      "v": 101
    },
    {
      "midi": 61,
      "hit": false,
      "t": 28333.304999999982,
      "d": 138.88874999999825,
      "v": 101
    },
    {
      "midi": 55,
      "hit": false,
      "t": 28333.304999999982,
      "d": 152.7776249999988,
      "v": 101
    },
    {
      "midi": 64,
      "hit": false,
      "t": 28333.304999999982,
      "d": 173.61093749999782,
      "v": 101
    },
    {
      "midi": 52,
      "hit": false,
      "t": 28583.30474999998,
      "d": 34.72218749999956,
      "v": 48
    },
    {
      "midi": 61,
      "hit": false,
      "t": 28666.63799999998,
      "d": 38.19440625000061,
      "v": 76
    },
    {
      "midi": 55,
      "hit": false,
      "t": 28666.63799999998,
      "d": 55.55550000000221,
      "v": 81
    },
    {
      "midi": 64,
      "hit": false,
      "t": 28666.63799999998,
      "d": 76.38881250000122,
      "v": 101
    },
    {
      "midi": 55,
      "hit": false,
      "t": 28833.304499999984,
      "d": 83.33324999999968,
      "v": 101
    },
    {
      "midi": 61,
      "hit": false,
      "t": 28833.304499999984,
      "d": 90.27768749999814,
      "v": 101
    },
    {
      "midi": 64,
      "hit": false,
      "t": 28833.304499999984,
      "d": 114.5832187499982,
      "v": 101
    },
    {
      "midi": 45,
      "hit": false,
      "t": 28999.970999999983,
      "d": 79.86103124999863,
      "v": 101
    },
    {
      "midi": 52,
      "hit": false,
      "t": 28999.970999999983,
      "d": 104.16656249999869,
      "v": 101
    },
    {
      "midi": 61,
      "hit": false,
      "t": 29166.637499999983,
      "d": 41.66662500000166,
      "v": 79
    },
    {
      "midi": 55,
      "hit": false,
      "t": 29166.637499999983,
      "d": 48.611062500000116,
      "v": 63
    },
    {
      "midi": 64,
      "hit": false,
      "t": 29166.637499999983,
      "d": 69.44437499999913,
      "v": 101
    },
    {
      "midi": 55,
      "hit": false,
      "t": 29333.303999999982,
      "d": 104.16656249999869,
      "v": 101
    },
    {
      "midi": 61,
      "hit": false,
      "t": 29333.303999999982,
      "d": 124.9998749999977,
      "v": 101
    },
    {
      "midi": 64,
      "hit": false,
      "t": 29333.303999999982,
      "d": 142.3609687499993,
      "v": 101
    },
    {
      "midi": 45,
      "hit": false,
      "t": 29499.97049999998,
      "d": 83.33324999999968,
      "v": 101
    },
    {
      "midi": 52,
      "hit": false,
      "t": 29499.97049999998,
      "d": 97.22212500000023,
      "v": 101
    },
    {
      "midi": 64,
      "hit": false,
      "t": 29666.63699999998,
      "d": 41.66662500000166,
      "v": 60
    },
    {
      "midi": 57,
      "hit": false,
      "t": 29833.303499999984,
      "d": 184.02759375000096,
      "v": 101
    },
    {
      "midi": 64,
      "hit": false,
      "t": 29833.303499999984,
      "d": 194.44425000000047,
      "v": 101
    },
    {
      "midi": 62,
      "hit": false,
      "t": 29833.303499999984,
      "d": 208.33312500000102,
      "v": 101
    },
    {
      "midi": 57,
      "hit": false,
      "t": 30166.636499999986,
      "d": 159.7220625000009,
      "v": 101
    },
    {
      "midi": 64,
      "hit": false,
      "t": 30166.636499999986,
      "d": 159.7220625000009,
      "v": 101
    },
    {
      "midi": 62,
      "hit": false,
      "t": 30166.636499999986,
      "d": 170.1387187500004,
      "v": 101
    },
    {
      "midi": 45,
      "hit": false,
      "t": 30333.302999999985,
      "d": 107.63878124999974,
      "v": 101
    },
    {
      "midi": 52,
      "hit": false,
      "t": 30333.302999999985,
      "d": 111.11100000000079,
      "v": 101
    },
    {
      "midi": 62,
      "hit": false,
      "t": 30499.969499999985,
      "d": 131.9443124999998,
      "v": 101
    },
    {
      "midi": 64,
      "hit": false,
      "t": 30499.969499999985,
      "d": 131.9443124999998,
      "v": 101
    },
    {
      "midi": 57,
      "hit": false,
      "t": 30499.969499999985,
      "d": 135.41653125000084,
      "v": 101
    },
    {
      "midi": 45,
      "hit": false,
      "t": 30666.635999999984,
      "d": 618.0549375000046,
      "v": 101
    },
    {
      "midi": 52,
      "hit": false,
      "t": 30666.635999999984,
      "d": 624.999375000003,
      "v": 101
    },
    {
      "midi": 55,
      "hit": false,
      "t": 30999.968999999986,
      "d": 90.27768750000178,
      "v": 101
    },
    {
      "midi": 61,
      "hit": false,
      "t": 30999.968999999986,
      "d": 90.27768750000178,
      "v": 101
    },
    {
      "midi": 64,
      "hit": false,
      "t": 30999.968999999986,
      "d": 93.74990625000282,
      "v": 101
    },
    {
      "midi": 61,
      "hit": false,
      "t": 31499.968499999988,
      "d": 62.49993750000067,
      "v": 101
    },
    {
      "midi": 55,
      "hit": false,
      "t": 31499.968499999988,
      "d": 79.86103125000227,
      "v": 101
    },
    {
      "midi": 64,
      "hit": false,
      "t": 31499.968499999988,
      "d": 104.16656250000233,
      "v": 101
    },
    {
      "midi": 52,
      "hit": false,
      "t": 31666.63499999999,
      "d": 72.91659375000017,
      "v": 98
    },
    {
      "midi": 45,
      "hit": false,
      "t": 31666.63499999999,
      "d": 97.22212500000023,
      "v": 101
    },
    {
      "midi": 61,
      "hit": false,
      "t": 31833.30149999999,
      "d": 41.66662500000166,
      "v": 81
    },
    {
      "midi": 55,
      "hit": false,
      "t": 31833.30149999999,
      "d": 45.13884375000271,
      "v": 69
    },
    {
      "midi": 64,
      "hit": false,
      "t": 31833.30149999999,
      "d": 59.02771875000326,
      "v": 101
    },
    {
      "midi": 61,
      "hit": false,
      "t": 31999.967999999993,
      "d": 90.27768750000178,
      "v": 101
    },
    {
      "midi": 55,
      "hit": false,
      "t": 31999.967999999993,
      "d": 97.22212500000023,
      "v": 101
    },
    {
      "midi": 64,
      "hit": false,
      "t": 31999.967999999993,
      "d": 118.05543749999924,
      "v": 101
    },
    {
      "midi": 52,
      "hit": false,
      "t": 32166.634499999993,
      "d": 86.80546875000073,
      "v": 101
    },
    {
      "midi": 45,
      "hit": false,
      "t": 32166.634499999993,
      "d": 111.11100000000079,
      "v": 101
    },
    {
      "midi": 61,
      "hit": false,
      "t": 32333.300999999992,
      "d": 34.72218749999956,
      "v": 72
    },
    {
      "midi": 55,
      "hit": false,
      "t": 32333.300999999992,
      "d": 55.555499999998574,
      "v": 84
    },
    {
      "midi": 64,
      "hit": false,
      "t": 32333.300999999992,
      "d": 69.44437499999913,
      "v": 101
    },
    {
      "midi": 55,
      "hit": false,
      "t": 32499.96749999999,
      "d": 69.44437499999913,
      "v": 101
    },
    {
      "midi": 61,
      "hit": false,
      "t": 32499.96749999999,
      "d": 86.80546875000073,
      "v": 101
    },
    {
      "midi": 64,
      "hit": false,
      "t": 32499.96749999999,
      "d": 90.27768750000178,
      "v": 101
    },
    {
      "midi": 52,
      "hit": false,
      "t": 32666.633999999995,
      "d": 93.74990624999919,
      "v": 88
    },
    {
      "midi": 45,
      "hit": false,
      "t": 32666.633999999995,
      "d": 118.0554374999956,
      "v": 101
    },
    {
      "midi": 61,
      "hit": false,
      "t": 32833.30049999999,
      "d": 55.55550000000221,
      "v": 101
    },
    {
      "midi": 55,
      "hit": false,
      "t": 32833.30049999999,
      "d": 62.49993750000431,
      "v": 101
    },
    {
      "midi": 64,
      "hit": false,
      "t": 32833.30049999999,
      "d": 76.38881250000122,
      "v": 101
    },
    {
      "midi": 55,
      "hit": false,
      "t": 32999.96699999999,
      "d": 69.44437499999913,
      "v": 101
    },
    {
      "midi": 61,
      "hit": false,
      "t": 32999.96699999999,
      "d": 69.44437499999913,
      "v": 101
    },
    {
      "midi": 64,
      "hit": false,
      "t": 32999.96699999999,
      "d": 100.69434375000128,
      "v": 101
    },
    {
      "midi": 52,
      "hit": false,
      "t": 33333.29999999999,
      "d": 256.9441874999975,
      "v": 101
    },
    {
      "midi": 45,
      "hit": false,
      "t": 33333.29999999999,
      "d": 298.6108124999955,
      "v": 101
    },
    {
      "midi": 55,
      "hit": false,
      "t": 33499.96649999999,
      "d": 104.16656249999505,
      "v": 101
    },
    {
      "midi": 57,
      "hit": false,
      "t": 33666.63299999999,
      "d": 149.3054062500014,
      "v": 98
    },
    {
      "midi": 52,
      "hit": false,
      "t": 33833.29949999999,
      "d": 104.16656250000233,
      "v": 101
    },
    {
      "midi": 55,
      "hit": false,
      "t": 33999.965999999986,
      "d": 69.44437499999913,
      "v": 101
    },
    {
      "midi": 57,
      "hit": false,
      "t": 33999.965999999986,
      "d": 69.44437499999913,
      "v": 101
    },
    {
      "midi": 62,
      "hit": false,
      "t": 33999.965999999986,
      "d": 93.74990624999919,
      "v": 101
    },
    {
      "midi": 55,
      "hit": false,
      "t": 34333.298999999985,
      "d": 104.16656250000233,
      "v": 101
    },
    {
      "midi": 62,
      "hit": false,
      "t": 34333.298999999985,
      "d": 111.11100000000442,
      "v": 101
    },
    {
      "midi": 57,
      "hit": false,
      "t": 34333.298999999985,
      "d": 138.88875000000553,
      "v": 101
    },
    {
      "midi": 55,
      "hit": false,
      "t": 34499.96549999999,
      "d": 118.05543749999924,
      "v": 96
    },
    {
      "midi": 61,
      "hit": false,
      "t": 34499.96549999999,
      "d": 149.3054062500014,
      "v": 101
    },
    {
      "midi": 55,
      "hit": false,
      "t": 34833.29849999999,
      "d": 83.33325000000332,
      "v": 101
    },
    {
      "midi": 61,
      "hit": false,
      "t": 34833.29849999999,
      "d": 90.27768750000541,
      "v": 101
    },
    {
      "midi": 52,
      "hit": false,
      "t": 34999.965,
      "d": 97.22212500000023,
      "v": 101
    },
    {
      "midi": 55,
      "hit": false,
      "t": 35166.631499999996,
      "d": 107.63878125000338,
      "v": 101
    },
    {
      "midi": 52,
      "hit": false,
      "t": 35333.298,
      "d": 104.16656250000233,
      "v": 101
    },
    {
      "midi": 55,
      "hit": false,
      "t": 35499.9645,
      "d": 149.3054062500014,
      "v": 101
    },
    {
      "midi": 52,
      "hit": false,
      "t": 35666.631,
      "d": 124.99987500000134,
      "v": 101
    },
    {
      "midi": 57,
      "hit": false,
      "t": 35833.2975,
      "d": 194.44425000000047,
      "v": 101
    },
    {
      "midi": 52,
      "hit": false,
      "t": 35999.964,
      "d": 100.69434375000128,
      "v": 98
    },
    {
      "midi": 55,
      "hit": false,
      "t": 36166.6305,
      "d": 59.02771875000326,
      "v": 68
    },
    {
      "midi": 52,
      "hit": false,
      "t": 36249.96375,
      "d": 79.86103125000227,
      "v": 64
    },
    {
      "midi": 57,
      "hit": false,
      "t": 36333.297000000006,
      "d": 69.44437499999913,
      "v": 98
    },
    {
      "midi": 55,
      "hit": false,
      "t": 36333.297000000006,
      "d": 90.27768749999814,
      "v": 101
    },
    {
      "midi": 55,
      "hit": false,
      "t": 36666.630000000005,
      "d": 76.38881250000122,
      "v": 101
    },
    {
      "midi": 57,
      "hit": false,
      "t": 36666.630000000005,
      "d": 79.86103125000227,
      "v": 101
    },
    {
      "midi": 52,
      "hit": false,
      "t": 36833.296500000004,
      "d": 90.27768749999814,
      "v": 101
    },
    {
      "midi": 57,
      "hit": false,
      "t": 36999.963,
      "d": 38.19440624999697,
      "v": 69
    },
    {
      "midi": 55,
      "hit": false,
      "t": 36999.963,
      "d": 69.44437499999913,
      "v": 98
    },
    {
      "midi": 57,
      "hit": false,
      "t": 37166.6295,
      "d": 93.74990624999919,
      "v": 101
    },
    {
      "midi": 55,
      "hit": false,
      "t": 37166.6295,
      "d": 104.16656250000233,
      "v": 101
    },
    {
      "midi": 61,
      "hit": false,
      "t": 37166.6295,
      "d": 114.58321875000547,
      "v": 101
    },
    {
      "midi": 52,
      "hit": false,
      "t": 37333.29600000001,
      "d": 52.083281250001164,
      "v": 63
    },
    {
      "midi": 57,
      "hit": false,
      "t": 37499.96250000001,
      "d": 55.55550000000221,
      "v": 101
    },
    {
      "midi": 55,
      "hit": false,
      "t": 37499.96250000001,
      "d": 83.33325000000332,
      "v": 101
    },
    {
      "midi": 61,
      "hit": false,
      "t": 37499.96250000001,
      "d": 93.74990625000646,
      "v": 101
    },
    {
      "midi": 52,
      "hit": false,
      "t": 37666.629000000015,
      "d": 90.27768749999814,
      "v": 96
    },
    {
      "midi": 57,
      "hit": false,
      "t": 37999.962000000014,
      "d": 69.44437499999913,
      "v": 101
    },
    {
      "midi": 55,
      "hit": false,
      "t": 37999.962000000014,
      "d": 90.27768749999814,
      "v": 101
    },
    {
      "midi": 61,
      "hit": false,
      "t": 37999.962000000014,
      "d": 107.6387812499961,
      "v": 101
    },
    {
      "midi": 45,
      "hit": false,
      "t": 38166.62850000001,
      "d": 62.49993750000431,
      "v": 101
    },
    {
      "midi": 52,
      "hit": false,
      "t": 38166.62850000001,
      "d": 72.91659375000745,
      "v": 101
    },
    {
      "midi": 57,
      "hit": false,
      "t": 38333.29500000002,
      "d": 65.97215624999808,
      "v": 101
    },
    {
      "midi": 55,
      "hit": false,
      "t": 38333.29500000002,
      "d": 79.861031249995,
      "v": 101
    },
    {
      "midi": 61,
      "hit": false,
      "t": 38333.29500000002,
      "d": 90.27768749999814,
      "v": 101
    },
    {
      "midi": 52,
      "hit": false,
      "t": 38666.62800000002,
      "d": 256.9441874999975,
      "v": 101
    },
    {
      "midi": 45,
      "hit": false,
      "t": 38666.62800000002,
      "d": 298.6108124999955,
      "v": 101
    },
    {
      "midi": 55,
      "hit": false,
      "t": 38833.29450000002,
      "d": 104.16656249999505,
      "v": 101
    },
    {
      "midi": 57,
      "hit": false,
      "t": 38999.96100000002,
      "d": 149.3054062500014,
      "v": 98
    },
    {
      "midi": 52,
      "hit": false,
      "t": 39166.62750000002,
      "d": 104.16656250000233,
      "v": 101
    },
    {
      "midi": 55,
      "hit": false,
      "t": 39333.294000000016,
      "d": 69.44437499999913,
      "v": 101
    },
    {
      "midi": 57,
      "hit": false,
      "t": 39333.294000000016,
      "d": 69.44437499999913,
      "v": 101
    },
    {
      "midi": 62,
      "hit": false,
      "t": 39333.294000000016,
      "d": 93.74990624999919,
      "v": 101
    },
    {
      "midi": 55,
      "hit": false,
      "t": 39666.627000000015,
      "d": 104.16656250000233,
      "v": 101
    },
    {
      "midi": 62,
      "hit": false,
      "t": 39666.627000000015,
      "d": 111.11100000000442,
      "v": 101
    },
    {
      "midi": 57,
      "hit": false,
      "t": 39666.627000000015,
      "d": 138.88875000000553,
      "v": 101
    },
    {
      "midi": 55,
      "hit": false,
      "t": 39833.29350000002,
      "d": 118.05543749999924,
      "v": 96
    },
    {
      "midi": 61,
      "hit": false,
      "t": 39833.29350000002,
      "d": 149.3054062500014,
      "v": 101
    },
    {
      "midi": 55,
      "hit": false,
      "t": 40166.62650000002,
      "d": 83.33325000000332,
      "v": 101
    },
    {
      "midi": 61,
      "hit": false,
      "t": 40166.62650000002,
      "d": 90.27768750000541,
      "v": 101
    },
    {
      "midi": 52,
      "hit": false,
      "t": 40333.29300000003,
      "d": 97.22212500000023,
      "v": 101
    },
    {
      "midi": 55,
      "hit": false,
      "t": 40499.959500000026,
      "d": 107.63878125000338,
      "v": 101
    },
    {
      "midi": 52,
      "hit": false,
      "t": 40666.62600000003,
      "d": 104.16656250000233,
      "v": 101
    },
    {
      "midi": 55,
      "hit": false,
      "t": 40833.29250000003,
      "d": 149.3054062500014,
      "v": 101
    },
    {
      "midi": 52,
      "hit": false,
      "t": 40999.95900000003,
      "d": 124.99987500000134,
      "v": 101
    },
    {
      "midi": 57,
      "hit": false,
      "t": 41166.62550000003,
      "d": 194.44425000000047,
      "v": 101
    },
    {
      "midi": 52,
      "hit": false,
      "t": 41333.29200000003,
      "d": 100.69434375000128,
      "v": 98
    },
    {
      "midi": 55,
      "hit": false,
      "t": 41499.95850000003,
      "d": 59.02771875000326,
      "v": 68
    },
    {
      "midi": 52,
      "hit": false,
      "t": 41583.29175000003,
      "d": 79.86103125000227,
      "v": 64
    },
    {
      "midi": 57,
      "hit": false,
      "t": 41666.62500000004,
      "d": 69.44437499999913,
      "v": 98
    },
    {
      "midi": 55,
      "hit": false,
      "t": 41666.62500000004,
      "d": 90.27768749999814,
      "v": 101
    },
    {
      "midi": 55,
      "hit": false,
      "t": 41999.958000000035,
      "d": 76.38881250000122,
      "v": 101
    },
    {
      "midi": 57,
      "hit": false,
      "t": 41999.958000000035,
      "d": 79.86103125000227,
      "v": 101
    },
    {
      "midi": 52,
      "hit": false,
      "t": 42166.624500000034,
      "d": 90.27768749999814,
      "v": 101
    },
    {
      "midi": 57,
      "hit": false,
      "t": 42333.291000000034,
      "d": 38.19440624999697,
      "v": 69
    },
    {
      "midi": 55,
      "hit": false,
      "t": 42333.291000000034,
      "d": 69.44437499999913,
      "v": 98
    },
    {
      "midi": 57,
      "hit": false,
      "t": 42499.95750000003,
      "d": 93.74990624999919,
      "v": 101
    },
    {
      "midi": 55,
      "hit": false,
      "t": 42499.95750000003,
      "d": 104.16656250000233,
      "v": 101
    },
    {
      "midi": 61,
      "hit": false,
      "t": 42499.95750000003,
      "d": 114.58321875000547,
      "v": 101
    },
    {
      "midi": 52,
      "hit": false,
      "t": 42666.62400000004,
      "d": 52.083281250001164,
      "v": 63
    },
    {
      "midi": 57,
      "hit": false,
      "t": 42833.29050000004,
      "d": 55.55550000000221,
      "v": 101
    },
    {
      "midi": 55,
      "hit": false,
      "t": 42833.29050000004,
      "d": 83.33325000000332,
      "v": 101
    },
    {
      "midi": 61,
      "hit": false,
      "t": 42833.29050000004,
      "d": 93.74990625000646,
      "v": 101
    },
    {
      "midi": 52,
      "hit": false,
      "t": 42999.957000000046,
      "d": 90.27768749999814,
      "v": 96
    },
    {
      "midi": 57,
      "hit": false,
      "t": 43333.290000000045,
      "d": 69.44437499999913,
      "v": 101
    },
    {
      "midi": 55,
      "hit": false,
      "t": 43333.290000000045,
      "d": 90.27768749999814,
      "v": 101
    },
    {
      "midi": 61,
      "hit": false,
      "t": 43333.290000000045,
      "d": 107.6387812499961,
      "v": 101
    },
    {
      "midi": 45,
      "hit": false,
      "t": 43499.956500000044,
      "d": 62.49993750000431,
      "v": 101
    },
    {
      "midi": 52,
      "hit": false,
      "t": 43499.956500000044,
      "d": 72.91659375000745,
      "v": 101
    },
    {
      "midi": 57,
      "hit": false,
      "t": 43666.62300000005,
      "d": 65.97215624999808,
      "v": 101
    },
    {
      "midi": 55,
      "hit": false,
      "t": 43666.62300000005,
      "d": 79.861031249995,
      "v": 101
    },
    {
      "midi": 61,
      "hit": false,
      "t": 43666.62300000005,
      "d": 90.27768749999814,
      "v": 101
    },
    {
      "midi": 48,
      "hit": false,
      "t": 43999.95600000005,
      "d": 336.80521874999977,
      "v": 101
    },
    {
      "midi": 60,
      "hit": false,
      "t": 44333.28900000005,
      "d": 62.49993750000431,
      "v": 101
    },
    {
      "midi": 55,
      "hit": false,
      "t": 44333.28900000005,
      "d": 72.91659375000745,
      "v": 101
    },
    {
      "midi": 64,
      "hit": false,
      "t": 44333.28900000005,
      "d": 90.27768750000541,
      "v": 101
    },
    {
      "midi": 60,
      "hit": false,
      "t": 44833.28850000005,
      "d": 59.02771875000326,
      "v": 101
    },
    {
      "midi": 55,
      "hit": false,
      "t": 44833.28850000005,
      "d": 69.4443750000064,
      "v": 101
    },
    {
      "midi": 64,
      "hit": false,
      "t": 44833.28850000005,
      "d": 90.27768750000541,
      "v": 101
    },
    {
      "midi": 48,
      "hit": false,
      "t": 44999.95500000006,
      "d": 93.74990624999919,
      "v": 101
    },
    {
      "midi": 48,
      "hit": false,
      "t": 45249.95475000006,
      "d": 34.7221875000032,
      "v": 68
    },
    {
      "midi": 58,
      "hit": false,
      "t": 45333.288000000066,
      "d": 395.83293749999575,
      "v": 101
    },
    {
      "midi": 64,
      "hit": false,
      "t": 45333.288000000066,
      "d": 395.83293749999575,
      "v": 101
    },
    {
      "midi": 55,
      "hit": false,
      "t": 45333.288000000066,
      "d": 409.72181249999267,
      "v": 101
    },
    {
      "midi": 48,
      "hit": false,
      "t": 45666.621000000065,
      "d": 83.33324999999604,
      "v": 101
    },
    {
      "midi": 64,
      "hit": false,
      "t": 45833.287500000064,
      "d": 333.3329999999987,
      "v": 101
    },
    {
      "midi": 60,
      "hit": false,
      "t": 45833.287500000064,
      "d": 364.5829687500009,
      "v": 101
    },
    {
      "midi": 55,
      "hit": false,
      "t": 45833.287500000064,
      "d": 368.0551875000019,
      "v": 101
    },
    {
      "midi": 48,
      "hit": false,
      "t": 46166.62050000006,
      "d": 104.16656250000233,
      "v": 101
    },
    {
      "midi": 55,
      "hit": false,
      "t": 46333.28700000006,
      "d": 124.99987500000134,
      "v": 91
    },
    {
      "midi": 58,
      "hit": false,
      "t": 46333.28700000006,
      "d": 131.94431250000343,
      "v": 101
    },
    {
      "midi": 64,
      "hit": false,
      "t": 46333.28700000006,
      "d": 159.72206250000454,
      "v": 101
    },
    {
      "midi": 50,
      "hit": false,
      "t": 46999.95300000007,
      "d": 118.05543749999924,
      "v": 101
    },
    {
      "midi": 57,
      "hit": false,
      "t": 46999.95300000007,
      "d": 118.05543749999924,
      "v": 101
    },
    {
      "midi": 62,
      "hit": false,
      "t": 47499.952500000065,
      "d": 59.02771875000326,
      "v": 101
    },
    {
      "midi": 60,
      "hit": false,
      "t": 47499.952500000065,
      "d": 62.49993750000431,
      "v": 101
    },
    {
      "midi": 66,
      "hit": false,
      "t": 47499.952500000065,
      "d": 79.86103125000227,
      "v": 101
    },
    {
      "midi": 50,
      "hit": false,
      "t": 47666.619000000064,
      "d": 72.91659375000017,
      "v": 101
    },
    {
      "midi": 57,
      "hit": false,
      "t": 47666.619000000064,
      "d": 76.38881250000122,
      "v": 91
    },
    {
      "midi": 62,
      "hit": false,
      "t": 47999.95200000006,
      "d": 322.91634375000285,
      "v": 101
    },
    {
      "midi": 66,
      "hit": false,
      "t": 47999.95200000006,
      "d": 329.86078125000495,
      "v": 101
    },
    {
      "midi": 60,
      "hit": false,
      "t": 47999.95200000006,
      "d": 333.333000000006,
      "v": 101
    },
    {
      "midi": 57,
      "hit": false,
      "t": 48333.28500000007,
      "d": 62.49993749999703,
      "v": 101
    },
    {
      "midi": 50,
      "hit": false,
      "t": 48333.28500000007,
      "d": 83.33324999999604,
      "v": 101
    },
    {
      "midi": 62,
      "hit": false,
      "t": 48499.95150000007,
      "d": 388.88850000000093,
      "v": 101
    },
    {
      "midi": 66,
      "hit": false,
      "t": 48499.95150000007,
      "d": 388.88850000000093,
      "v": 101
    },
    {
      "midi": 60,
      "hit": false,
      "t": 48499.95150000007,
      "d": 395.832937500003,
      "v": 101
    },
    {
      "midi": 50,
      "hit": false,
      "t": 48833.28450000007,
      "d": 72.91659375000745,
      "v": 101
    },
    {
      "midi": 57,
      "hit": false,
      "t": 48833.28450000007,
      "d": 93.74990625000646,
      "v": 98
    },
    {
      "midi": 60,
      "hit": false,
      "t": 48999.951000000074,
      "d": 69.44437499999913,
      "v": 101
    },
    {
      "midi": 62,
      "hit": false,
      "t": 48999.951000000074,
      "d": 72.91659375000017,
      "v": 101
    },
    {
      "midi": 66,
      "hit": false,
      "t": 48999.951000000074,
      "d": 90.27768749999814,
      "v": 101
    },
    {
      "midi": 45,
      "hit": false,
      "t": 49333.28400000007,
      "d": 416.66625000000204,
      "v": 101
    },
    {
      "midi": 52,
      "hit": false,
      "t": 49333.28400000007,
      "d": 423.61068750000413,
      "v": 101
    },
    {
      "midi": 61,
      "hit": false,
      "t": 49666.61700000007,
      "d": 138.88875000000553,
      "v": 101
    },
    {
      "midi": 55,
      "hit": false,
      "t": 49666.61700000007,
      "d": 152.77762500000244,
      "v": 101
    },
    {
      "midi": 64,
      "hit": false,
      "t": 49666.61700000007,
      "d": 173.61093750000146,
      "v": 101
    },
    {
      "midi": 52,
      "hit": false,
      "t": 49916.616750000074,
      "d": 34.7221875000032,
      "v": 48
    },
    {
      "midi": 61,
      "hit": false,
      "t": 49999.95000000008,
      "d": 38.19440624999697,
      "v": 76
    },
    {
      "midi": 55,
      "hit": false,
      "t": 49999.95000000008,
      "d": 55.555499999994936,
      "v": 81
    },
    {
      "midi": 64,
      "hit": false,
      "t": 49999.95000000008,
      "d": 76.38881249999395,
      "v": 101
    },
    {
      "midi": 55,
      "hit": false,
      "t": 50166.61650000007,
      "d": 83.33325000000332,
      "v": 101
    },
    {
      "midi": 61,
      "hit": false,
      "t": 50166.61650000007,
      "d": 90.27768750000541,
      "v": 101
    },
    {
      "midi": 64,
      "hit": false,
      "t": 50166.61650000007,
      "d": 114.58321875000547,
      "v": 101
    },
    {
      "midi": 45,
      "hit": false,
      "t": 50333.283000000076,
      "d": 79.86103125000227,
      "v": 101
    },
    {
      "midi": 52,
      "hit": false,
      "t": 50333.283000000076,
      "d": 104.16656250000233,
      "v": 101
    },
    {
      "midi": 61,
      "hit": false,
      "t": 50499.949500000075,
      "d": 41.66662499999802,
      "v": 79
    },
    {
      "midi": 55,
      "hit": false,
      "t": 50499.949500000075,
      "d": 48.611062500000116,
      "v": 63
    },
    {
      "midi": 64,
      "hit": false,
      "t": 50499.949500000075,
      "d": 69.44437499999913,
      "v": 101
    },
    {
      "midi": 55,
      "hit": false,
      "t": 50666.616000000075,
      "d": 104.16656250000233,
      "v": 101
    },
    {
      "midi": 61,
      "hit": false,
      "t": 50666.616000000075,
      "d": 124.99987500000134,
      "v": 101
    },
    {
      "midi": 64,
      "hit": false,
      "t": 50666.616000000075,
      "d": 142.3609687499993,
      "v": 101
    },
    {
      "midi": 45,
      "hit": false,
      "t": 50833.282500000074,
      "d": 83.33325000000332,
      "v": 101
    },
    {
      "midi": 52,
      "hit": false,
      "t": 50833.282500000074,
      "d": 97.22212500000023,
      "v": 101
    },
    {
      "midi": 64,
      "hit": false,
      "t": 50999.94900000007,
      "d": 41.66662499999802,
      "v": 60
    },
    {
      "midi": 57,
      "hit": false,
      "t": 51166.61550000007,
      "d": 184.0275937500046,
      "v": 101
    },
    {
      "midi": 64,
      "hit": false,
      "t": 51166.61550000007,
      "d": 194.44425000000774,
      "v": 101
    },
    {
      "midi": 62,
      "hit": false,
      "t": 51166.61550000007,
      "d": 208.33312500000466,
      "v": 101
    },
    {
      "midi": 57,
      "hit": false,
      "t": 51499.94850000008,
      "d": 159.72206249999726,
      "v": 101
    },
    {
      "midi": 64,
      "hit": false,
      "t": 51499.94850000008,
      "d": 159.72206249999726,
      "v": 101
    },
    {
      "midi": 62,
      "hit": false,
      "t": 51499.94850000008,
      "d": 170.1387187500004,
      "v": 101
    },
    {
      "midi": 45,
      "hit": false,
      "t": 51666.61500000008,
      "d": 107.63878125000338,
      "v": 101
    },
    {
      "midi": 52,
      "hit": false,
      "t": 51666.61500000008,
      "d": 111.11100000000442,
      "v": 101
    },
    {
      "midi": 62,
      "hit": false,
      "t": 51833.281500000085,
      "d": 131.94431250000343,
      "v": 101
    },
    {
      "midi": 64,
      "hit": false,
      "t": 51833.281500000085,
      "d": 131.94431250000343,
      "v": 101
    },
    {
      "midi": 57,
      "hit": false,
      "t": 51833.281500000085,
      "d": 135.41653125000448,
      "v": 101
    },
    {
      "midi": 45,
      "hit": false,
      "t": 51999.94800000009,
      "d": 618.0549374999973,
      "v": 101
    },
    {
      "midi": 52,
      "hit": false,
      "t": 51999.94800000009,
      "d": 624.9993749999994,
      "v": 101
    },
    {
      "midi": 55,
      "hit": false,
      "t": 52333.28100000009,
      "d": 90.27768749999814,
      "v": 101
    },
    {
      "midi": 61,
      "hit": false,
      "t": 52333.28100000009,
      "d": 90.27768749999814,
      "v": 101
    },
    {
      "midi": 64,
      "hit": false,
      "t": 52333.28100000009,
      "d": 93.74990624999919,
      "v": 101
    },
    {
      "midi": 61,
      "hit": false,
      "t": 52833.28050000009,
      "d": 62.49993749999703,
      "v": 101
    },
    {
      "midi": 55,
      "hit": false,
      "t": 52833.28050000009,
      "d": 79.861031249995,
      "v": 101
    },
    {
      "midi": 64,
      "hit": false,
      "t": 52833.28050000009,
      "d": 104.16656249999505,
      "v": 101
    },
    {
      "midi": 52,
      "hit": false,
      "t": 52999.94700000008,
      "d": 72.91659375000017,
      "v": 98
    },
    {
      "midi": 45,
      "hit": false,
      "t": 52999.94700000008,
      "d": 97.22212500000023,
      "v": 101
    },
    {
      "midi": 61,
      "hit": false,
      "t": 53166.61350000008,
      "d": 41.66662499999802,
      "v": 81
    },
    {
      "midi": 55,
      "hit": false,
      "t": 53166.61350000008,
      "d": 45.13884374999907,
      "v": 69
    },
    {
      "midi": 64,
      "hit": false,
      "t": 53166.61350000008,
      "d": 59.027718749995984,
      "v": 101
    },
    {
      "midi": 61,
      "hit": false,
      "t": 53333.28000000008,
      "d": 90.27768749999814,
      "v": 101
    },
    {
      "midi": 55,
      "hit": false,
      "t": 53333.28000000008,
      "d": 97.22212500000023,
      "v": 101
    },
    {
      "midi": 64,
      "hit": false,
      "t": 53333.28000000008,
      "d": 118.05543749999924,
      "v": 101
    },
    {
      "midi": 52,
      "hit": false,
      "t": 53499.94650000008,
      "d": 86.80546874999709,
      "v": 101
    },
    {
      "midi": 45,
      "hit": false,
      "t": 53499.94650000008,
      "d": 111.11099999999715,
      "v": 101
    },
    {
      "midi": 61,
      "hit": false,
      "t": 53666.61300000008,
      "d": 34.7221875000032,
      "v": 72
    },
    {
      "midi": 55,
      "hit": false,
      "t": 53666.61300000008,
      "d": 55.55550000000221,
      "v": 84
    },
    {
      "midi": 64,
      "hit": false,
      "t": 53666.61300000008,
      "d": 69.44437499999913,
      "v": 101
    },
    {
      "midi": 55,
      "hit": false,
      "t": 53833.27950000008,
      "d": 69.44437499999913,
      "v": 101
    },
    {
      "midi": 61,
      "hit": false,
      "t": 53833.27950000008,
      "d": 86.80546874999709,
      "v": 101
    },
    {
      "midi": 64,
      "hit": false,
      "t": 53833.27950000008,
      "d": 90.27768749999814,
      "v": 101
    },
    {
      "midi": 52,
      "hit": false,
      "t": 53999.946000000076,
      "d": 93.74990624999919,
      "v": 88
    },
    {
      "midi": 45,
      "hit": false,
      "t": 53999.946000000076,
      "d": 118.05543749999924,
      "v": 101
    },
    {
      "midi": 61,
      "hit": false,
      "t": 54166.612500000076,
      "d": 55.55550000000221,
      "v": 101
    },
    {
      "midi": 55,
      "hit": false,
      "t": 54166.612500000076,
      "d": 62.49993750000431,
      "v": 101
    },
    {
      "midi": 64,
      "hit": false,
      "t": 54166.612500000076,
      "d": 76.38881250000122,
      "v": 101
    },
    {
      "midi": 55,
      "hit": false,
      "t": 54333.279000000075,
      "d": 69.44437499999913,
      "v": 101
    },
    {
      "midi": 61,
      "hit": false,
      "t": 54333.279000000075,
      "d": 69.44437499999913,
      "v": 101
    },
    {
      "midi": 64,
      "hit": false,
      "t": 54333.279000000075,
      "d": 100.69434375000128,
      "v": 101
    },
    {
      "midi": 50,
      "hit": false,
      "t": 54666.612000000074,
      "d": 298.6108125000028,
      "v": 101
    },
    {
      "midi": 57,
      "hit": false,
      "t": 54999.94500000008,
      "d": 65.97215624999808,
      "v": 101
    },
    {
      "midi": 62,
      "hit": false,
      "t": 54999.94500000008,
      "d": 69.44437499999913,
      "v": 101
    },
    {
      "midi": 66,
      "hit": false,
      "t": 54999.94500000008,
      "d": 83.33324999999604,
      "v": 101
    },
    {
      "midi": 62,
      "hit": false,
      "t": 55499.94450000008,
      "d": 55.55550000000221,
      "v": 101
    },
    {
      "midi": 57,
      "hit": false,
      "t": 55499.94450000008,
      "d": 59.02771875000326,
      "v": 101
    },
    {
      "midi": 66,
      "hit": false,
      "t": 55499.94450000008,
      "d": 79.86103125000227,
      "v": 101
    },
    {
      "midi": 61,
      "hit": false,
      "t": 55999.94400000008,
      "d": 62.49993749999703,
      "v": 101
    },
    {
      "midi": 57,
      "hit": false,
      "t": 55999.94400000008,
      "d": 65.97215624999808,
      "v": 101
    },
    {
      "midi": 64,
      "hit": false,
      "t": 55999.94400000008,
      "d": 72.91659375000017,
      "v": 101
    },
    {
      "midi": 45,
      "hit": false,
      "t": 55999.94400000008,
      "d": 90.27768749999814,
      "v": 101
    },
    {
      "midi": 52,
      "hit": false,
      "t": 55999.94400000008,
      "d": 97.22212500000023,
      "v": 98
    },
    {
      "midi": 64,
      "hit": false,
      "t": 56499.94350000008,
      "d": 322.9163437499956,
      "v": 101
    },
    {
      "midi": 61,
      "hit": false,
      "t": 56499.94350000008,
      "d": 326.3885624999966,
      "v": 101
    },
    {
      "midi": 57,
      "hit": false,
      "t": 56499.94350000008,
      "d": 333.3329999999987,
      "v": 101
    },
    {
      "midi": 52,
      "hit": false,
      "t": 56833.27650000008,
      "d": 86.80546874999709,
      "v": 101
    },
    {
      "midi": 45,
      "hit": false,
      "t": 56833.27650000008,
      "d": 90.27768749999814,
      "v": 101
    },
    {
      "midi": 57,
      "hit": false,
      "t": 56999.94300000008,
      "d": 100.69434375000128,
      "v": 101
    },
    {
      "midi": 61,
      "hit": false,
      "t": 56999.94300000008,
      "d": 111.11100000000442,
      "v": 101
    },
    {
      "midi": 64,
      "hit": false,
      "t": 56999.94300000008,
      "d": 131.94431250000343,
      "v": 101
    },
    {
      "midi": 50,
      "hit": false,
      "t": 57333.276000000085,
      "d": 298.6108125000028,
      "v": 101
    },
    {
      "midi": 57,
      "hit": false,
      "t": 57666.60900000009,
      "d": 65.97215624999808,
      "v": 101
    },
    {
      "midi": 62,
      "hit": false,
      "t": 57666.60900000009,
      "d": 69.44437499999913,
      "v": 101
    },
    {
      "midi": 66,
      "hit": false,
      "t": 57666.60900000009,
      "d": 83.33324999999604,
      "v": 101
    },
    {
      "midi": 62,
      "hit": false,
      "t": 58166.60850000009,
      "d": 55.55550000000221,
      "v": 101
    },
    {
      "midi": 57,
      "hit": false,
      "t": 58166.60850000009,
      "d": 59.02771875000326,
      "v": 101
    },
    {
      "midi": 66,
      "hit": false,
      "t": 58166.60850000009,
      "d": 79.86103125000227,
      "v": 101
    },
    {
      "midi": 61,
      "hit": false,
      "t": 58666.608000000095,
      "d": 62.49993749999703,
      "v": 101
    },
    {
      "midi": 57,
      "hit": false,
      "t": 58666.608000000095,
      "d": 65.97215624999808,
      "v": 101
    },
    {
      "midi": 64,
      "hit": false,
      "t": 58666.608000000095,
      "d": 72.91659375000017,
      "v": 101
    },
    {
      "midi": 45,
      "hit": false,
      "t": 58666.608000000095,
      "d": 90.27768749999814,
      "v": 101
    },
    {
      "midi": 52,
      "hit": false,
      "t": 58666.608000000095,
      "d": 97.22212500000023,
      "v": 98
    },
    {
      "midi": 64,
      "hit": false,
      "t": 59166.60750000009,
      "d": 322.9163437499956,
      "v": 101
    },
    {
      "midi": 61,
      "hit": false,
      "t": 59166.60750000009,
      "d": 326.3885624999966,
      "v": 101
    },
    {
      "midi": 57,
      "hit": false,
      "t": 59166.60750000009,
      "d": 333.3329999999987,
      "v": 101
    },
    {
      "midi": 52,
      "hit": false,
      "t": 59499.94050000009,
      "d": 86.80546874999709,
      "v": 101
    },
    {
      "midi": 45,
      "hit": false,
      "t": 59499.94050000009,
      "d": 90.27768749999814,
      "v": 101
    },
    {
      "midi": 57,
      "hit": false,
      "t": 59666.60700000009,
      "d": 100.69434375000128,
      "v": 101
    },
    {
      "midi": 61,
      "hit": false,
      "t": 59666.60700000009,
      "d": 111.11100000000442,
      "v": 101
    },
    {
      "midi": 64,
      "hit": false,
      "t": 59666.60700000009,
      "d": 131.94431250000343,
      "v": 101
    },
    {
      "midi": 50,
      "hit": false,
      "t": 59999.9400000001,
      "d": 298.6108125000028,
      "v": 101
    },
    {
      "midi": 57,
      "hit": false,
      "t": 60333.2730000001,
      "d": 65.97215624999808,
      "v": 101
    },
    {
      "midi": 62,
      "hit": false,
      "t": 60333.2730000001,
      "d": 69.44437499999913,
      "v": 101
    },
    {
      "midi": 66,
      "hit": false,
      "t": 60333.2730000001,
      "d": 83.33324999999604,
      "v": 101
    },
    {
      "midi": 62,
      "hit": false,
      "t": 60833.2725000001,
      "d": 55.55550000000221,
      "v": 101
    },
    {
      "midi": 57,
      "hit": false,
      "t": 60833.2725000001,
      "d": 59.02771875000326,
      "v": 101
    },
    {
      "midi": 66,
      "hit": false,
      "t": 60833.2725000001,
      "d": 79.86103125000227,
      "v": 101
    },
    {
      "midi": 61,
      "hit": false,
      "t": 61333.272000000106,
      "d": 62.49993749999703,
      "v": 101
    },
    {
      "midi": 57,
      "hit": false,
      "t": 61333.272000000106,
      "d": 65.97215624999808,
      "v": 101
    },
    {
      "midi": 64,
      "hit": false,
      "t": 61333.272000000106,
      "d": 72.91659375000017,
      "v": 101
    },
    {
      "midi": 45,
      "hit": false,
      "t": 61333.272000000106,
      "d": 90.27768749999814,
      "v": 101
    },
    {
      "midi": 52,
      "hit": false,
      "t": 61333.272000000106,
      "d": 97.22212500000023,
      "v": 98
    },
    {
      "midi": 64,
      "hit": false,
      "t": 61833.271500000104,
      "d": 322.9163437499956,
      "v": 101
    },
    {
      "midi": 61,
      "hit": false,
      "t": 61833.271500000104,
      "d": 326.3885624999966,
      "v": 101
    },
    {
      "midi": 57,
      "hit": false,
      "t": 61833.271500000104,
      "d": 333.3329999999987,
      "v": 101
    },
    {
      "midi": 52,
      "hit": false,
      "t": 62166.6045000001,
      "d": 86.80546874999709,
      "v": 101
    },
    {
      "midi": 45,
      "hit": false,
      "t": 62166.6045000001,
      "d": 90.27768749999814,
      "v": 101
    },
    {
      "midi": 57,
      "hit": false,
      "t": 62333.2710000001,
      "d": 100.69434375000128,
      "v": 101
    },
    {
      "midi": 61,
      "hit": false,
      "t": 62333.2710000001,
      "d": 111.11100000000442,
      "v": 101
    },
    {
      "midi": 64,
      "hit": false,
      "t": 62333.2710000001,
      "d": 131.94431250000343,
      "v": 101
    },
    {
      "midi": 40,
      "hit": false,
      "t": 62666.6040000001,
      "d": 1239.5820937500393,
      "v": 101
    },
    {
      "midi": 47,
      "hit": false,
      "t": 62666.6040000001,
      "d": 1260.4154062500456,
      "v": 101
    },
    {
      "midi": 59,
      "hit": false,
      "t": 62833.2705000001,
      "d": 83.33325000000332,
      "v": 75
    },
    {
      "midi": 68,
      "hit": false,
      "t": 62833.2705000001,
      "d": 83.33325000000332,
      "v": 93
    },
    {
      "midi": 64,
      "hit": false,
      "t": 62833.2705000001,
      "d": 86.80546875000437,
      "v": 101
    },
    {
      "midi": 64,
      "hit": false,
      "t": 62999.93700000011,
      "d": 55.55550000000221,
      "v": 101
    },
    {
      "midi": 68,
      "hit": false,
      "t": 62999.93700000011,
      "d": 59.02771875000326,
      "v": 91
    },
    {
      "midi": 59,
      "hit": false,
      "t": 62999.93700000011,
      "d": 62.49993750000431,
      "v": 81
    },
    {
      "midi": 59,
      "hit": false,
      "t": 63166.603500000114,
      "d": 55.55550000000221,
      "v": 101
    },
    {
      "midi": 64,
      "hit": false,
      "t": 63166.603500000114,
      "d": 59.02771875000326,
      "v": 101
    },
    {
      "midi": 68,
      "hit": false,
      "t": 63166.603500000114,
      "d": 76.38881250000122,
      "v": 101
    },
    {
      "midi": 59,
      "hit": false,
      "t": 63333.27000000011,
      "d": 59.02771875000326,
      "v": 101
    },
    {
      "midi": 64,
      "hit": false,
      "t": 63333.27000000011,
      "d": 69.4443750000064,
      "v": 101
    },
    {
      "midi": 68,
      "hit": false,
      "t": 63333.27000000011,
      "d": 72.91659375000745,
      "v": 101
    },
    {
      "midi": 59,
      "hit": false,
      "t": 63499.93650000012,
      "d": 55.55550000000221,
      "v": 101
    },
    {
      "midi": 64,
      "hit": false,
      "t": 63499.93650000012,
      "d": 65.97215625000536,
      "v": 101
    },
    {
      "midi": 68,
      "hit": false,
      "t": 63499.93650000012,
      "d": 69.4443750000064,
      "v": 101
    },
    {
      "midi": 59,
      "hit": false,
      "t": 63666.60300000013,
      "d": 55.55550000000221,
      "v": 101
    },
    {
      "midi": 64,
      "hit": false,
      "t": 63666.60300000013,
      "d": 62.49993750000431,
      "v": 101
    },
    {
      "midi": 68,
      "hit": false,
      "t": 63666.60300000013,
      "d": 62.49993750000431,
      "v": 101
    },
    {
      "midi": 59,
      "hit": false,
      "t": 63833.26950000013,
      "d": 59.02771875000326,
      "v": 101
    },
    {
      "midi": 64,
      "hit": false,
      "t": 63833.26950000013,
      "d": 65.97215625000536,
      "v": 101
    },
    {
      "midi": 68,
      "hit": false,
      "t": 63833.26950000013,
      "d": 83.3332500000106,
      "v": 101
    },
    {
      "midi": 68,
      "hit": false,
      "t": 63999.93600000015,
      "d": 954.8601562500044,
      "v": 101
    },
    {
      "midi": 47,
      "hit": false,
      "t": 63999.93600000015,
      "d": 961.8045937500065,
      "v": 101
    },
    {
      "midi": 64,
      "hit": false,
      "t": 63999.93600000015,
      "d": 965.2768125000075,
      "v": 101
    },
    {
      "midi": 71,
      "hit": false,
      "t": 63999.93600000015,
      "d": 979.1656875000044,
      "v": 101
    },
    {
      "midi": 40,
      "hit": false,
      "t": 63999.93600000015,
      "d": 986.1101250000065,
      "v": 101
    },
    {
      "midi": 52,
      "hit": false,
      "t": 65333.26800000016,
      "d": 388.88850000000093,
      "v": 101
    },
    {
      "midi": 45,
      "hit": false,
      "t": 65333.26800000016,
      "d": 392.360718750002,
      "v": 101
    },
    {
      "midi": 55,
      "hit": false,
      "t": 65666.60100000016,
      "d": 69.4443750000064,
      "v": 101
    },
    {
      "midi": 61,
      "hit": false,
      "t": 65666.60100000016,
      "d": 76.3888125000085,
      "v": 101
    },
    {
      "midi": 64,
      "hit": false,
      "t": 65666.60100000016,
      "d": 83.3332500000106,
      "v": 101
    },
    {
      "midi": 55,
      "hit": false,
      "t": 66166.60050000016,
      "d": 62.49993750000431,
      "v": 101
    },
    {
      "midi": 61,
      "hit": false,
      "t": 66166.60050000016,
      "d": 69.4443750000064,
      "v": 101
    },
    {
      "midi": 64,
      "hit": false,
      "t": 66166.60050000016,
      "d": 83.3332500000106,
      "v": 101
    },
    {
      "midi": 61,
      "hit": false,
      "t": 66666.60000000017,
      "d": 180.55537500001083,
      "v": 101
    },
    {
      "midi": 55,
      "hit": false,
      "t": 66666.60000000017,
      "d": 184.02759375001187,
      "v": 101
    },
    {
      "midi": 64,
      "hit": false,
      "t": 66666.60000000017,
      "d": 187.49981250001292,
      "v": 101
    },
    {
      "midi": 45,
      "hit": false,
      "t": 66833.26650000017,
      "d": 104.16656250000233,
      "v": 101
    },
    {
      "midi": 52,
      "hit": false,
      "t": 66833.26650000017,
      "d": 111.11100000000442,
      "v": 88
    },
    {
      "midi": 61,
      "hit": false,
      "t": 66999.93300000018,
      "d": 31.249968749994878,
      "v": 68
    },
    {
      "midi": 64,
      "hit": false,
      "t": 66999.93300000018,
      "d": 41.66662499999802,
      "v": 86
    },
    {
      "midi": 55,
      "hit": false,
      "t": 66999.93300000018,
      "d": 45.13884374999907,
      "v": 69
    },
    {
      "midi": 55,
      "hit": false,
      "t": 67166.59950000017,
      "d": 357.6385312499915,
      "v": 101
    },
    {
      "midi": 64,
      "hit": false,
      "t": 67166.59950000017,
      "d": 388.8884999999864,
      "v": 101
    },
    {
      "midi": 61,
      "hit": false,
      "t": 67166.59950000017,
      "d": 402.77737499999057,
      "v": 101
    },
    {
      "midi": 52,
      "hit": false,
      "t": 67499.93250000017,
      "d": 475.693968749998,
      "v": 93
    },
    {
      "midi": 45,
      "hit": false,
      "t": 67499.93250000017,
      "d": 489.5828437500022,
      "v": 101
    },
    {
      "midi": 64,
      "hit": false,
      "t": 67666.59900000016,
      "d": 288.19415624999965,
      "v": 101
    },
    {
      "midi": 59,
      "hit": false,
      "t": 67666.59900000016,
      "d": 295.13859375000175,
      "v": 101
    },
    {
      "midi": 62,
      "hit": false,
      "t": 67666.59900000016,
      "d": 302.08303125000384,
      "v": 101
    },
    {
      "midi": 61,
      "hit": false,
      "t": 68333.26500000017,
      "d": 65.97215625000536,
      "v": 101
    },
    {
      "midi": 55,
      "hit": false,
      "t": 68333.26500000017,
      "d": 72.91659375000745,
      "v": 101
    },
    {
      "midi": 64,
      "hit": false,
      "t": 68333.26500000017,
      "d": 76.3888125000085,
      "v": 101
    },
    {
      "midi": 61,
      "hit": false,
      "t": 68666.59800000019,
      "d": 100.69434375000128,
      "v": 101
    },
    {
      "midi": 55,
      "hit": false,
      "t": 68666.59800000019,
      "d": 107.63878125000338,
      "v": 98
    },
    {
      "midi": 64,
      "hit": false,
      "t": 68666.59800000019,
      "d": 121.52765625000757,
      "v": 101
    },
    {
      "midi": 45,
      "hit": false,
      "t": 68833.2645000002,
      "d": 90.27768749999814,
      "v": 101
    },
    {
      "midi": 52,
      "hit": false,
      "t": 68833.2645000002,
      "d": 90.27768749999814,
      "v": 96
    },
    {
      "midi": 61,
      "hit": false,
      "t": 69166.59750000019,
      "d": 45.13884374999907,
      "v": 101
    },
    {
      "midi": 55,
      "hit": false,
      "t": 69166.59750000019,
      "d": 55.55550000000221,
      "v": 101
    },
    {
      "midi": 64,
      "hit": false,
      "t": 69166.59750000019,
      "d": 72.91659375000745,
      "v": 101
    },
    {
      "midi": 45,
      "hit": false,
      "t": 69499.9305000002,
      "d": 69.4443750000064,
      "v": 101
    },
    {
      "midi": 52,
      "hit": false,
      "t": 69499.9305000002,
      "d": 83.3332500000106,
      "v": 101
    },
    {
      "midi": 61,
      "hit": false,
      "t": 69666.59700000021,
      "d": 38.19440624999697,
      "v": 88
    },
    {
      "midi": 55,
      "hit": false,
      "t": 69666.59700000021,
      "d": 59.02771875000326,
      "v": 98
    },
    {
      "midi": 64,
      "hit": false,
      "t": 69666.59700000021,
      "d": 62.49993750000431,
      "v": 101
    },
    {
      "midi": 55,
      "hit": false,
      "t": 69833.26350000022,
      "d": 302.08303125000384,
      "v": 101
    },
    {
      "midi": 61,
      "hit": false,
      "t": 69833.26350000022,
      "d": 322.9163437500101,
      "v": 101
    },
    {
      "midi": 64,
      "hit": false,
      "t": 69833.26350000022,
      "d": 326.3885625000112,
      "v": 101
    },
    {
      "midi": 52,
      "hit": false,
      "t": 70166.59650000023,
      "d": 100.69434375000128,
      "v": 98
    },
    {
      "midi": 45,
      "hit": false,
      "t": 70166.59650000023,
      "d": 114.58321875000547,
      "v": 101
    },
    {
      "midi": 65,
      "hit": false,
      "t": 70333.26300000024,
      "d": 20.833312500006286,
      "v": 70
    },
    {
      "midi": 62,
      "hit": false,
      "t": 70333.26300000024,
      "d": 107.63878125000338,
      "v": 101
    },
    {
      "midi": 59,
      "hit": false,
      "t": 70333.26300000024,
      "d": 114.58321875000547,
      "v": 101
    },
    {
      "midi": 64,
      "hit": false,
      "t": 70333.26300000024,
      "d": 118.05543750000652,
      "v": 101
    },
    {
      "midi": 52,
      "hit": false,
      "t": 70666.59600000025,
      "d": 256.9441875000048,
      "v": 101
    },
    {
      "midi": 45,
      "hit": false,
      "t": 70666.59600000025,
      "d": 298.6108125000028,
      "v": 101
    },
    {
      "midi": 55,
      "hit": false,
      "t": 70833.26250000026,
      "d": 104.16656250000233,
      "v": 101
    },
    {
      "midi": 57,
      "hit": false,
      "t": 70999.92900000025,
      "d": 149.3054062500014,
      "v": 98
    },
    {
      "midi": 52,
      "hit": false,
      "t": 71166.59550000026,
      "d": 104.16656250000233,
      "v": 101
    },
    {
      "midi": 55,
      "hit": false,
      "t": 71333.26200000026,
      "d": 69.4443750000064,
      "v": 101
    },
    {
      "midi": 57,
      "hit": false,
      "t": 71333.26200000026,
      "d": 69.4443750000064,
      "v": 101
    },
    {
      "midi": 62,
      "hit": false,
      "t": 71333.26200000026,
      "d": 93.74990624999919,
      "v": 101
    },
    {
      "midi": 55,
      "hit": false,
      "t": 71666.59500000026,
      "d": 104.16656250000233,
      "v": 101
    },
    {
      "midi": 62,
      "hit": false,
      "t": 71666.59500000026,
      "d": 111.11100000000442,
      "v": 101
    },
    {
      "midi": 57,
      "hit": false,
      "t": 71666.59500000026,
      "d": 138.88874999999825,
      "v": 101
    },
    {
      "midi": 55,
      "hit": false,
      "t": 71833.26150000026,
      "d": 118.05543750000652,
      "v": 96
    },
    {
      "midi": 61,
      "hit": false,
      "t": 71833.26150000026,
      "d": 149.3054062500014,
      "v": 101
    },
    {
      "midi": 55,
      "hit": false,
      "t": 72166.59450000025,
      "d": 83.33324999999604,
      "v": 101
    },
    {
      "midi": 61,
      "hit": false,
      "t": 72166.59450000025,
      "d": 90.27768749999814,
      "v": 101
    },
    {
      "midi": 52,
      "hit": false,
      "t": 72333.26100000025,
      "d": 97.22212500000023,
      "v": 101
    },
    {
      "midi": 55,
      "hit": false,
      "t": 72499.92750000025,
      "d": 107.63878125000338,
      "v": 101
    },
    {
      "midi": 52,
      "hit": false,
      "t": 72666.59400000026,
      "d": 104.16656250000233,
      "v": 101
    },
    {
      "midi": 55,
      "hit": false,
      "t": 72833.26050000027,
      "d": 149.3054062500014,
      "v": 101
    },
    {
      "midi": 52,
      "hit": false,
      "t": 72999.92700000027,
      "d": 124.99987499999406,
      "v": 101
    },
    {
      "midi": 57,
      "hit": false,
      "t": 73166.59350000026,
      "d": 194.44425000000047,
      "v": 101
    },
    {
      "midi": 52,
      "hit": false,
      "t": 73333.26000000027,
      "d": 100.69434374998673,
      "v": 98
    },
    {
      "midi": 55,
      "hit": false,
      "t": 73499.92650000026,
      "d": 59.02771875000326,
      "v": 68
    },
    {
      "midi": 52,
      "hit": false,
      "t": 73583.25975000026,
      "d": 79.861031249995,
      "v": 64
    },
    {
      "midi": 57,
      "hit": false,
      "t": 73666.59300000026,
      "d": 69.4443750000064,
      "v": 98
    },
    {
      "midi": 55,
      "hit": false,
      "t": 73666.59300000026,
      "d": 90.27768750001269,
      "v": 101
    },
    {
      "midi": 55,
      "hit": false,
      "t": 73999.92600000027,
      "d": 76.38881249999395,
      "v": 101
    },
    {
      "midi": 57,
      "hit": false,
      "t": 73999.92600000027,
      "d": 79.861031249995,
      "v": 101
    },
    {
      "midi": 52,
      "hit": false,
      "t": 74166.59250000026,
      "d": 90.27768749999814,
      "v": 101
    },
    {
      "midi": 57,
      "hit": false,
      "t": 74333.25900000025,
      "d": 38.19440624999697,
      "v": 69
    },
    {
      "midi": 55,
      "hit": false,
      "t": 74333.25900000025,
      "d": 69.44437499999185,
      "v": 98
    },
    {
      "midi": 57,
      "hit": false,
      "t": 74499.92550000024,
      "d": 93.74990624999919,
      "v": 101
    },
    {
      "midi": 55,
      "hit": false,
      "t": 74499.92550000024,
      "d": 104.16656250000233,
      "v": 101
    },
    {
      "midi": 61,
      "hit": false,
      "t": 74499.92550000024,
      "d": 114.58321875000547,
      "v": 101
    },
    {
      "midi": 52,
      "hit": false,
      "t": 74666.59200000025,
      "d": 52.083281250001164,
      "v": 63
    },
    {
      "midi": 57,
      "hit": false,
      "t": 74833.25850000026,
      "d": 55.55550000000221,
      "v": 101
    },
    {
      "midi": 55,
      "hit": false,
      "t": 74833.25850000026,
      "d": 83.33324999999604,
      "v": 101
    },
    {
      "midi": 61,
      "hit": false,
      "t": 74833.25850000026,
      "d": 93.74990624999919,
      "v": 101
    },
    {
      "midi": 52,
      "hit": false,
      "t": 74999.92500000025,
      "d": 90.27768749999814,
      "v": 96
    },
    {
      "midi": 57,
      "hit": false,
      "t": 75333.25800000025,
      "d": 69.4443750000064,
      "v": 101
    },
    {
      "midi": 55,
      "hit": false,
      "t": 75333.25800000025,
      "d": 90.27768750001269,
      "v": 101
    },
    {
      "midi": 61,
      "hit": false,
      "t": 75333.25800000025,
      "d": 107.63878125001793,
      "v": 101
    },
    {
      "midi": 45,
      "hit": false,
      "t": 75499.92450000027,
      "d": 62.49993750000431,
      "v": 101
    },
    {
      "midi": 52,
      "hit": false,
      "t": 75499.92450000027,
      "d": 72.91659375000745,
      "v": 101
    },
    {
      "midi": 57,
      "hit": false,
      "t": 75666.59100000028,
      "d": 65.97215625000536,
      "v": 101
    },
    {
      "midi": 55,
      "hit": false,
      "t": 75666.59100000028,
      "d": 79.86103125000955,
      "v": 101
    },
    {
      "midi": 61,
      "hit": false,
      "t": 75666.59100000028,
      "d": 90.27768750001269,
      "v": 101
    },
    {
      "midi": 52,
      "hit": false,
      "t": 75999.92400000029,
      "d": 256.9441875000048,
      "v": 101
    },
    {
      "midi": 45,
      "hit": false,
      "t": 75999.92400000029,
      "d": 298.6108125000028,
      "v": 101
    },
    {
      "midi": 55,
      "hit": false,
      "t": 76166.5905000003,
      "d": 104.16656250000233,
      "v": 101
    },
    {
      "midi": 57,
      "hit": false,
      "t": 76333.25700000029,
      "d": 149.3054062500014,
      "v": 98
    },
    {
      "midi": 52,
      "hit": false,
      "t": 76499.9235000003,
      "d": 104.16656250000233,
      "v": 101
    },
    {
      "midi": 55,
      "hit": false,
      "t": 76666.5900000003,
      "d": 69.4443750000064,
      "v": 101
    },
    {
      "midi": 57,
      "hit": false,
      "t": 76666.5900000003,
      "d": 69.4443750000064,
      "v": 101
    },
    {
      "midi": 62,
      "hit": false,
      "t": 76666.5900000003,
      "d": 93.74990624999919,
      "v": 101
    },
    {
      "midi": 55,
      "hit": false,
      "t": 76999.9230000003,
      "d": 104.16656250000233,
      "v": 101
    },
    {
      "midi": 62,
      "hit": false,
      "t": 76999.9230000003,
      "d": 111.11100000000442,
      "v": 101
    },
    {
      "midi": 57,
      "hit": false,
      "t": 76999.9230000003,
      "d": 138.88874999999825,
      "v": 101
    },
    {
      "midi": 55,
      "hit": false,
      "t": 77166.5895000003,
      "d": 118.05543750000652,
      "v": 96
    },
    {
      "midi": 61,
      "hit": false,
      "t": 77166.5895000003,
      "d": 149.3054062500014,
      "v": 101
    },
    {
      "midi": 55,
      "hit": false,
      "t": 77499.92250000029,
      "d": 83.33324999999604,
      "v": 101
    },
    {
      "midi": 61,
      "hit": false,
      "t": 77499.92250000029,
      "d": 90.27768749999814,
      "v": 101
    },
    {
      "midi": 52,
      "hit": false,
      "t": 77666.58900000028,
      "d": 97.22212500000023,
      "v": 101
    },
    {
      "midi": 55,
      "hit": false,
      "t": 77833.25550000029,
      "d": 107.63878125000338,
      "v": 101
    },
    {
      "midi": 52,
      "hit": false,
      "t": 77999.9220000003,
      "d": 104.16656250000233,
      "v": 101
    },
    {
      "midi": 55,
      "hit": false,
      "t": 78166.5885000003,
      "d": 149.3054062500014,
      "v": 101
    },
    {
      "midi": 52,
      "hit": false,
      "t": 78333.25500000031,
      "d": 124.99987499999406,
      "v": 101
    },
    {
      "midi": 57,
      "hit": false,
      "t": 78499.9215000003,
      "d": 194.44425000000047,
      "v": 101
    },
    {
      "midi": 52,
      "hit": false,
      "t": 78666.58800000031,
      "d": 100.69434374998673,
      "v": 98
    },
    {
      "midi": 55,
      "hit": false,
      "t": 78833.2545000003,
      "d": 59.02771875000326,
      "v": 68
    },
    {
      "midi": 52,
      "hit": false,
      "t": 78916.5877500003,
      "d": 79.861031249995,
      "v": 64
    },
    {
      "midi": 57,
      "hit": false,
      "t": 78999.9210000003,
      "d": 69.4443750000064,
      "v": 98
    },
    {
      "midi": 55,
      "hit": false,
      "t": 78999.9210000003,
      "d": 90.27768750001269,
      "v": 101
    },
    {
      "midi": 55,
      "hit": false,
      "t": 79333.2540000003,
      "d": 76.38881249999395,
      "v": 101
    },
    {
      "midi": 57,
      "hit": false,
      "t": 79333.2540000003,
      "d": 79.861031249995,
      "v": 101
    },
    {
      "midi": 52,
      "hit": false,
      "t": 79499.9205000003,
      "d": 90.27768749999814,
      "v": 101
    },
    {
      "midi": 57,
      "hit": false,
      "t": 79666.58700000029,
      "d": 38.19440624999697,
      "v": 69
    },
    {
      "midi": 55,
      "hit": false,
      "t": 79666.58700000029,
      "d": 69.44437499999185,
      "v": 98
    },
    {
      "midi": 57,
      "hit": false,
      "t": 79833.25350000028,
      "d": 93.74990624999919,
      "v": 101
    },
    {
      "midi": 55,
      "hit": false,
      "t": 79833.25350000028,
      "d": 104.16656250000233,
      "v": 101
    },
    {
      "midi": 61,
      "hit": false,
      "t": 79833.25350000028,
      "d": 114.58321875000547,
      "v": 101
    },
    {
      "midi": 52,
      "hit": false,
      "t": 79999.92000000029,
      "d": 52.083281250001164,
      "v": 63
    },
    {
      "midi": 57,
      "hit": false,
      "t": 80166.5865000003,
      "d": 55.55550000000221,
      "v": 101
    },
    {
      "midi": 55,
      "hit": false,
      "t": 80166.5865000003,
      "d": 83.33324999999604,
      "v": 101
    },
    {
      "midi": 61,
      "hit": false,
      "t": 80166.5865000003,
      "d": 93.74990624999919,
      "v": 101
    },
    {
      "midi": 52,
      "hit": false,
      "t": 80333.25300000029,
      "d": 90.27768749999814,
      "v": 96
    },
    {
      "midi": 57,
      "hit": false,
      "t": 80666.58600000029,
      "d": 69.4443750000064,
      "v": 101
    },
    {
      "midi": 55,
      "hit": false,
      "t": 80666.58600000029,
      "d": 90.27768750001269,
      "v": 101
    },
    {
      "midi": 61,
      "hit": false,
      "t": 80666.58600000029,
      "d": 107.63878125001793,
      "v": 101
    },
    {
      "midi": 45,
      "hit": false,
      "t": 80833.25250000031,
      "d": 62.49993750000431,
      "v": 101
    },
    {
      "midi": 52,
      "hit": false,
      "t": 80833.25250000031,
      "d": 72.91659375000745,
      "v": 101
    },
    {
      "midi": 57,
      "hit": false,
      "t": 80999.91900000031,
      "d": 65.97215625000536,
      "v": 101
    },
    {
      "midi": 55,
      "hit": false,
      "t": 80999.91900000031,
      "d": 79.86103125000955,
      "v": 101
    },
    {
      "midi": 61,
      "hit": false,
      "t": 80999.91900000031,
      "d": 90.27768750001269,
      "v": 101
    },
    {
      "midi": 48,
      "hit": false,
      "t": 81333.25200000033,
      "d": 336.80521874999977,
      "v": 101
    },
    {
      "midi": 60,
      "hit": false,
      "t": 81666.58500000033,
      "d": 62.49993750000431,
      "v": 101
    },
    {
      "midi": 55,
      "hit": false,
      "t": 81666.58500000033,
      "d": 72.91659375000745,
      "v": 101
    },
    {
      "midi": 64,
      "hit": false,
      "t": 81666.58500000033,
      "d": 90.27768750001269,
      "v": 101
    },
    {
      "midi": 60,
      "hit": false,
      "t": 82166.58450000035,
      "d": 59.02771875000326,
      "v": 101
    },
    {
      "midi": 55,
      "hit": false,
      "t": 82166.58450000035,
      "d": 69.4443750000064,
      "v": 101
    },
    {
      "midi": 64,
      "hit": false,
      "t": 82166.58450000035,
      "d": 90.27768750001269,
      "v": 101
    },
    {
      "midi": 48,
      "hit": false,
      "t": 82333.25100000035,
      "d": 93.74990624999919,
      "v": 101
    },
    {
      "midi": 48,
      "hit": false,
      "t": 82583.25075000036,
      "d": 34.722187499995925,
      "v": 68
    },
    {
      "midi": 58,
      "hit": false,
      "t": 82666.58400000035,
      "d": 395.832937500003,
      "v": 101
    },
    {
      "midi": 64,
      "hit": false,
      "t": 82666.58400000035,
      "d": 395.832937500003,
      "v": 101
    },
    {
      "midi": 55,
      "hit": false,
      "t": 82666.58400000035,
      "d": 409.7218125000072,
      "v": 101
    },
    {
      "midi": 48,
      "hit": false,
      "t": 82999.91700000035,
      "d": 83.3332500000106,
      "v": 101
    },
    {
      "midi": 64,
      "hit": false,
      "t": 83166.58350000036,
      "d": 333.3329999999987,
      "v": 101
    },
    {
      "midi": 60,
      "hit": false,
      "t": 83166.58350000036,
      "d": 364.5829687499936,
      "v": 101
    },
    {
      "midi": 55,
      "hit": false,
      "t": 83166.58350000036,
      "d": 368.05518749999464,
      "v": 101
    },
    {
      "midi": 48,
      "hit": false,
      "t": 83499.91650000036,
      "d": 104.16656250000233,
      "v": 101
    },
    {
      "midi": 55,
      "hit": false,
      "t": 83666.58300000036,
      "d": 124.99987499999406,
      "v": 91
    },
    {
      "midi": 58,
      "hit": false,
      "t": 83666.58300000036,
      "d": 131.94431249999616,
      "v": 101
    },
    {
      "midi": 64,
      "hit": false,
      "t": 83666.58300000036,
      "d": 159.72206249999,
      "v": 101
    },
    {
      "midi": 50,
      "hit": false,
      "t": 84333.24900000035,
      "d": 118.05543750000652,
      "v": 101
    },
    {
      "midi": 57,
      "hit": false,
      "t": 84333.24900000035,
      "d": 118.05543750000652,
      "v": 101
    },
    {
      "midi": 62,
      "hit": false,
      "t": 84833.24850000035,
      "d": 59.02771875000326,
      "v": 101
    },
    {
      "midi": 60,
      "hit": false,
      "t": 84833.24850000035,
      "d": 62.49993750000431,
      "v": 101
    },
    {
      "midi": 66,
      "hit": false,
      "t": 84833.24850000035,
      "d": 79.86103125000955,
      "v": 101
    },
    {
      "midi": 50,
      "hit": false,
      "t": 84999.91500000036,
      "d": 72.9165937499929,
      "v": 101
    },
    {
      "midi": 57,
      "hit": false,
      "t": 84999.91500000036,
      "d": 76.38881249999395,
      "v": 91
    },
    {
      "midi": 62,
      "hit": false,
      "t": 85333.24800000036,
      "d": 322.9163437499956,
      "v": 101
    },
    {
      "midi": 66,
      "hit": false,
      "t": 85333.24800000036,
      "d": 329.8607812499977,
      "v": 101
    },
    {
      "midi": 60,
      "hit": false,
      "t": 85333.24800000036,
      "d": 333.3329999999987,
      "v": 101
    },
    {
      "midi": 57,
      "hit": false,
      "t": 85666.58100000035,
      "d": 62.49993750000431,
      "v": 101
    },
    {
      "midi": 50,
      "hit": false,
      "t": 85666.58100000035,
      "d": 83.3332500000106,
      "v": 101
    },
    {
      "midi": 62,
      "hit": false,
      "t": 85833.24750000036,
      "d": 388.88850000000093,
      "v": 101
    },
    {
      "midi": 66,
      "hit": false,
      "t": 85833.24750000036,
      "d": 388.88850000000093,
      "v": 101
    },
    {
      "midi": 60,
      "hit": false,
      "t": 85833.24750000036,
      "d": 395.832937500003,
      "v": 101
    },
    {
      "midi": 50,
      "hit": false,
      "t": 86166.58050000036,
      "d": 72.91659375000745,
      "v": 101
    },
    {
      "midi": 57,
      "hit": false,
      "t": 86166.58050000036,
      "d": 93.74990625001374,
      "v": 98
    },
    {
      "midi": 60,
      "hit": false,
      "t": 86333.24700000037,
      "d": 69.4443750000064,
      "v": 101
    },
    {
      "midi": 62,
      "hit": false,
      "t": 86333.24700000037,
      "d": 72.91659375000745,
      "v": 101
    },
    {
      "midi": 66,
      "hit": false,
      "t": 86333.24700000037,
      "d": 90.27768750001269,
      "v": 101
    },
    {
      "midi": 45,
      "hit": false,
      "t": 86666.58000000038,
      "d": 416.66624999999476,
      "v": 101
    },
    {
      "midi": 52,
      "hit": false,
      "t": 86666.58000000038,
      "d": 423.61068749999686,
      "v": 101
    },
    {
      "midi": 61,
      "hit": false,
      "t": 86999.91300000038,
      "d": 138.88874999999825,
      "v": 101
    },
    {
      "midi": 55,
      "hit": false,
      "t": 86999.91300000038,
      "d": 152.77762500000244,
      "v": 101
    },
    {
      "midi": 64,
      "hit": false,
      "t": 86999.91300000038,
      "d": 173.61093750000873,
      "v": 101
    },
    {
      "midi": 52,
      "hit": false,
      "t": 87249.91275000038,
      "d": 34.722187499995925,
      "v": 48
    },
    {
      "midi": 61,
      "hit": false,
      "t": 87333.24600000038,
      "d": 38.19440624999697,
      "v": 76
    },
    {
      "midi": 55,
      "hit": false,
      "t": 87333.24600000038,
      "d": 55.55550000000221,
      "v": 81
    },
    {
      "midi": 64,
      "hit": false,
      "t": 87333.24600000038,
      "d": 76.3888125000085,
      "v": 101
    },
    {
      "midi": 55,
      "hit": false,
      "t": 87499.91250000038,
      "d": 83.33324999999604,
      "v": 101
    },
    {
      "midi": 61,
      "hit": false,
      "t": 87499.91250000038,
      "d": 90.27768749999814,
      "v": 101
    },
    {
      "midi": 64,
      "hit": false,
      "t": 87499.91250000038,
      "d": 114.58321874999092,
      "v": 101
    },
    {
      "midi": 45,
      "hit": false,
      "t": 87666.57900000038,
      "d": 79.861031249995,
      "v": 101
    },
    {
      "midi": 52,
      "hit": false,
      "t": 87666.57900000038,
      "d": 104.16656249998778,
      "v": 101
    },
    {
      "midi": 61,
      "hit": false,
      "t": 87833.24550000037,
      "d": 41.66662499999802,
      "v": 79
    },
    {
      "midi": 55,
      "hit": false,
      "t": 87833.24550000037,
      "d": 48.611062500000116,
      "v": 63
    },
    {
      "midi": 64,
      "hit": false,
      "t": 87833.24550000037,
      "d": 69.4443750000064,
      "v": 101
    },
    {
      "midi": 55,
      "hit": false,
      "t": 87999.91200000037,
      "d": 104.16656250000233,
      "v": 101
    },
    {
      "midi": 61,
      "hit": false,
      "t": 87999.91200000037,
      "d": 124.99987500000861,
      "v": 101
    },
    {
      "midi": 64,
      "hit": false,
      "t": 87999.91200000037,
      "d": 142.36096875001385,
      "v": 101
    },
    {
      "midi": 45,
      "hit": false,
      "t": 88166.57850000038,
      "d": 83.33324999999604,
      "v": 101
    },
    {
      "midi": 52,
      "hit": false,
      "t": 88166.57850000038,
      "d": 97.22212500000023,
      "v": 101
    },
    {
      "midi": 64,
      "hit": false,
      "t": 88333.24500000039,
      "d": 41.66662499999802,
      "v": 60
    },
    {
      "midi": 57,
      "hit": false,
      "t": 88499.91150000038,
      "d": 184.02759374999732,
      "v": 101
    },
    {
      "midi": 64,
      "hit": false,
      "t": 88499.91150000038,
      "d": 194.44425000000047,
      "v": 101
    },
    {
      "midi": 62,
      "hit": false,
      "t": 88499.91150000038,
      "d": 208.33312500000466,
      "v": 101
    },
    {
      "midi": 57,
      "hit": false,
      "t": 88833.24450000038,
      "d": 159.72206250000454,
      "v": 101
    },
    {
      "midi": 64,
      "hit": false,
      "t": 88833.24450000038,
      "d": 159.72206250000454,
      "v": 101
    },
    {
      "midi": 62,
      "hit": false,
      "t": 88833.24450000038,
      "d": 170.13871875000768,
      "v": 101
    },
    {
      "midi": 45,
      "hit": false,
      "t": 88999.91100000039,
      "d": 107.63878125000338,
      "v": 101
    },
    {
      "midi": 52,
      "hit": false,
      "t": 88999.91100000039,
      "d": 111.11100000000442,
      "v": 101
    },
    {
      "midi": 62,
      "hit": false,
      "t": 89166.57750000039,
      "d": 131.94431249999616,
      "v": 101
    },
    {
      "midi": 64,
      "hit": false,
      "t": 89166.57750000039,
      "d": 131.94431249999616,
      "v": 101
    },
    {
      "midi": 57,
      "hit": false,
      "t": 89166.57750000039,
      "d": 135.4165312499972,
      "v": 101
    },
    {
      "midi": 45,
      "hit": false,
      "t": 89333.24400000038,
      "d": 618.0549374999973,
      "v": 101
    },
    {
      "midi": 52,
      "hit": false,
      "t": 89333.24400000038,
      "d": 624.9993749999994,
      "v": 101
    },
    {
      "midi": 55,
      "hit": false,
      "t": 89666.57700000038,
      "d": 90.27768749999814,
      "v": 101
    },
    {
      "midi": 61,
      "hit": false,
      "t": 89666.57700000038,
      "d": 90.27768749999814,
      "v": 101
    },
    {
      "midi": 64,
      "hit": false,
      "t": 89666.57700000038,
      "d": 93.74990624999919,
      "v": 101
    },
    {
      "midi": 61,
      "hit": false,
      "t": 90166.57650000039,
      "d": 62.49993750000431,
      "v": 101
    },
    {
      "midi": 55,
      "hit": false,
      "t": 90166.57650000039,
      "d": 79.86103125000955,
      "v": 101
    },
    {
      "midi": 64,
      "hit": false,
      "t": 90166.57650000039,
      "d": 104.16656250000233,
      "v": 101
    },
    {
      "midi": 52,
      "hit": false,
      "t": 90333.2430000004,
      "d": 72.9165937499929,
      "v": 98
    },
    {
      "midi": 45,
      "hit": false,
      "t": 90333.2430000004,
      "d": 97.22212499998568,
      "v": 101
    },
    {
      "midi": 61,
      "hit": false,
      "t": 90499.90950000039,
      "d": 41.66662499999802,
      "v": 81
    },
    {
      "midi": 55,
      "hit": false,
      "t": 90499.90950000039,
      "d": 45.13884374999907,
      "v": 69
    },
    {
      "midi": 64,
      "hit": false,
      "t": 90499.90950000039,
      "d": 59.02771875000326,
      "v": 101
    },
    {
      "midi": 61,
      "hit": false,
      "t": 90666.5760000004,
      "d": 90.27768749999814,
      "v": 101
    },
    {
      "midi": 55,
      "hit": false,
      "t": 90666.5760000004,
      "d": 97.22212500000023,
      "v": 101
    },
    {
      "midi": 64,
      "hit": false,
      "t": 90666.5760000004,
      "d": 118.05543750000652,
      "v": 101
    },
    {
      "midi": 52,
      "hit": false,
      "t": 90833.2425000004,
      "d": 86.80546874999709,
      "v": 101
    },
    {
      "midi": 45,
      "hit": false,
      "t": 90833.2425000004,
      "d": 111.11099999998987,
      "v": 101
    },
    {
      "midi": 61,
      "hit": false,
      "t": 90999.90900000039,
      "d": 34.722187499995925,
      "v": 72
    },
    {
      "midi": 55,
      "hit": false,
      "t": 90999.90900000039,
      "d": 55.55550000000221,
      "v": 84
    },
    {
      "midi": 64,
      "hit": false,
      "t": 90999.90900000039,
      "d": 69.4443750000064,
      "v": 101
    },
    {
      "midi": 55,
      "hit": false,
      "t": 91166.5755000004,
      "d": 69.4443750000064,
      "v": 101
    },
    {
      "midi": 61,
      "hit": false,
      "t": 91166.5755000004,
      "d": 86.80546875001164,
      "v": 101
    },
    {
      "midi": 64,
      "hit": false,
      "t": 91166.5755000004,
      "d": 90.27768750001269,
      "v": 101
    },
    {
      "midi": 52,
      "hit": false,
      "t": 91333.2420000004,
      "d": 93.74990624999919,
      "v": 88
    },
    {
      "midi": 45,
      "hit": false,
      "t": 91333.2420000004,
      "d": 118.05543749999197,
      "v": 101
    },
    {
      "midi": 61,
      "hit": false,
      "t": 91499.9085000004,
      "d": 55.55550000000221,
      "v": 101
    },
    {
      "midi": 55,
      "hit": false,
      "t": 91499.9085000004,
      "d": 62.49993750000431,
      "v": 101
    },
    {
      "midi": 64,
      "hit": false,
      "t": 91499.9085000004,
      "d": 76.3888125000085,
      "v": 101
    },
    {
      "midi": 55,
      "hit": false,
      "t": 91666.5750000004,
      "d": 69.4443750000064,
      "v": 101
    },
    {
      "midi": 61,
      "hit": false,
      "t": 91666.5750000004,
      "d": 69.4443750000064,
      "v": 101
    },
    {
      "midi": 64,
      "hit": false,
      "t": 91666.5750000004,
      "d": 100.69434375000128,
      "v": 101
    },
    {
      "midi": 48,
      "hit": false,
      "t": 91999.90800000042,
      "d": 336.80521874999977,
      "v": 101
    },
    {
      "midi": 60,
      "hit": false,
      "t": 92333.24100000042,
      "d": 62.49993750000431,
      "v": 101
    },
    {
      "midi": 55,
      "hit": false,
      "t": 92333.24100000042,
      "d": 72.91659375000745,
      "v": 101
    },
    {
      "midi": 64,
      "hit": false,
      "t": 92333.24100000042,
      "d": 90.27768750001269,
      "v": 101
    },
    {
      "midi": 60,
      "hit": false,
      "t": 92833.24050000044,
      "d": 59.02771875000326,
      "v": 101
    },
    {
      "midi": 55,
      "hit": false,
      "t": 92833.24050000044,
      "d": 69.4443750000064,
      "v": 101
    },
    {
      "midi": 64,
      "hit": false,
      "t": 92833.24050000044,
      "d": 90.27768750001269,
      "v": 101
    },
    {
      "midi": 48,
      "hit": false,
      "t": 92999.90700000044,
      "d": 93.74990624999919,
      "v": 101
    },
    {
      "midi": 48,
      "hit": false,
      "t": 93249.90675000045,
      "d": 34.722187499995925,
      "v": 68
    },
    {
      "midi": 58,
      "hit": false,
      "t": 93333.24000000044,
      "d": 395.832937500003,
      "v": 101
    },
    {
      "midi": 64,
      "hit": false,
      "t": 93333.24000000044,
      "d": 395.832937500003,
      "v": 101
    },
    {
      "midi": 55,
      "hit": false,
      "t": 93333.24000000044,
      "d": 409.7218125000072,
      "v": 101
    },
    {
      "midi": 48,
      "hit": false,
      "t": 93666.57300000044,
      "d": 83.3332500000106,
      "v": 101
    },
    {
      "midi": 64,
      "hit": false,
      "t": 93833.23950000045,
      "d": 333.3329999999987,
      "v": 101
    },
    {
      "midi": 60,
      "hit": false,
      "t": 93833.23950000045,
      "d": 364.5829687499936,
      "v": 101
    },
    {
      "midi": 55,
      "hit": false,
      "t": 93833.23950000045,
      "d": 368.05518749999464,
      "v": 101
    },
    {
      "midi": 48,
      "hit": false,
      "t": 94166.57250000045,
      "d": 104.16656250000233,
      "v": 101
    },
    {
      "midi": 55,
      "hit": false,
      "t": 94333.23900000045,
      "d": 124.99987499999406,
      "v": 91
    },
    {
      "midi": 58,
      "hit": false,
      "t": 94333.23900000045,
      "d": 131.94431249999616,
      "v": 101
    },
    {
      "midi": 64,
      "hit": false,
      "t": 94333.23900000045,
      "d": 159.72206249999,
      "v": 101
    },
    {
      "midi": 50,
      "hit": false,
      "t": 94999.90500000044,
      "d": 118.05543750000652,
      "v": 101
    },
    {
      "midi": 57,
      "hit": false,
      "t": 94999.90500000044,
      "d": 118.05543750000652,
      "v": 101
    },
    {
      "midi": 62,
      "hit": false,
      "t": 95499.90450000044,
      "d": 59.02771875000326,
      "v": 101
    },
    {
      "midi": 60,
      "hit": false,
      "t": 95499.90450000044,
      "d": 62.49993750000431,
      "v": 101
    },
    {
      "midi": 66,
      "hit": false,
      "t": 95499.90450000044,
      "d": 79.86103125000955,
      "v": 101
    },
    {
      "midi": 50,
      "hit": false,
      "t": 95666.57100000045,
      "d": 72.9165937499929,
      "v": 101
    },
    {
      "midi": 57,
      "hit": false,
      "t": 95666.57100000045,
      "d": 76.38881249999395,
      "v": 91
    },
    {
      "midi": 62,
      "hit": false,
      "t": 95999.90400000045,
      "d": 322.9163437499956,
      "v": 101
    },
    {
      "midi": 66,
      "hit": false,
      "t": 95999.90400000045,
      "d": 329.8607812499977,
      "v": 101
    },
    {
      "midi": 60,
      "hit": false,
      "t": 95999.90400000045,
      "d": 333.3329999999987,
      "v": 101
    },
    {
      "midi": 57,
      "hit": false,
      "t": 96333.23700000044,
      "d": 62.49993750000431,
      "v": 101
    },
    {
      "midi": 50,
      "hit": false,
      "t": 96333.23700000044,
      "d": 83.3332500000106,
      "v": 101
    },
    {
      "midi": 62,
      "hit": false,
      "t": 96499.90350000045,
      "d": 388.88850000000093,
      "v": 101
    },
    {
      "midi": 66,
      "hit": false,
      "t": 96499.90350000045,
      "d": 388.88850000000093,
      "v": 101
    },
    {
      "midi": 60,
      "hit": false,
      "t": 96499.90350000045,
      "d": 395.832937500003,
      "v": 101
    },
    {
      "midi": 50,
      "hit": false,
      "t": 96833.23650000045,
      "d": 72.91659375000745,
      "v": 101
    },
    {
      "midi": 57,
      "hit": false,
      "t": 96833.23650000045,
      "d": 93.74990625001374,
      "v": 98
    },
    {
      "midi": 60,
      "hit": false,
      "t": 96999.90300000046,
      "d": 69.4443750000064,
      "v": 101
    },
    {
      "midi": 62,
      "hit": false,
      "t": 96999.90300000046,
      "d": 72.91659375000745,
      "v": 101
    },
    {
      "midi": 66,
      "hit": false,
      "t": 96999.90300000046,
      "d": 90.27768750001269,
      "v": 101
    },
    {
      "midi": 45,
      "hit": false,
      "t": 97333.23600000047,
      "d": 416.66624999999476,
      "v": 101
    },
    {
      "midi": 52,
      "hit": false,
      "t": 97333.23600000047,
      "d": 423.61068749999686,
      "v": 101
    },
    {
      "midi": 61,
      "hit": false,
      "t": 97666.56900000047,
      "d": 138.88874999999825,
      "v": 101
    },
    {
      "midi": 55,
      "hit": false,
      "t": 97666.56900000047,
      "d": 152.77762500000244,
      "v": 101
    },
    {
      "midi": 64,
      "hit": false,
      "t": 97666.56900000047,
      "d": 173.61093750000873,
      "v": 101
    },
    {
      "midi": 52,
      "hit": false,
      "t": 97916.56875000047,
      "d": 34.722187499995925,
      "v": 48
    },
    {
      "midi": 61,
      "hit": false,
      "t": 97999.90200000047,
      "d": 38.19440624999697,
      "v": 76
    },
    {
      "midi": 55,
      "hit": false,
      "t": 97999.90200000047,
      "d": 55.55550000000221,
      "v": 81
    },
    {
      "midi": 64,
      "hit": false,
      "t": 97999.90200000047,
      "d": 76.3888125000085,
      "v": 101
    },
    {
      "midi": 55,
      "hit": false,
      "t": 98166.56850000047,
      "d": 83.33324999999604,
      "v": 101
    },
    {
      "midi": 61,
      "hit": false,
      "t": 98166.56850000047,
      "d": 90.27768749999814,
      "v": 101
    },
    {
      "midi": 64,
      "hit": false,
      "t": 98166.56850000047,
      "d": 114.58321874999092,
      "v": 101
    },
    {
      "midi": 45,
      "hit": false,
      "t": 98333.23500000047,
      "d": 79.861031249995,
      "v": 101
    },
    {
      "midi": 52,
      "hit": false,
      "t": 98333.23500000047,
      "d": 104.16656249998778,
      "v": 101
    },
    {
      "midi": 61,
      "hit": false,
      "t": 98499.90150000046,
      "d": 41.66662499999802,
      "v": 79
    },
    {
      "midi": 55,
      "hit": false,
      "t": 98499.90150000046,
      "d": 48.611062500000116,
      "v": 63
    },
    {
      "midi": 64,
      "hit": false,
      "t": 98499.90150000046,
      "d": 69.4443750000064,
      "v": 101
    },
    {
      "midi": 55,
      "hit": false,
      "t": 98666.56800000046,
      "d": 104.16656250000233,
      "v": 101
    },
    {
      "midi": 61,
      "hit": false,
      "t": 98666.56800000046,
      "d": 124.99987500000861,
      "v": 101
    },
    {
      "midi": 64,
      "hit": false,
      "t": 98666.56800000046,
      "d": 142.36096875001385,
      "v": 101
    },
    {
      "midi": 45,
      "hit": false,
      "t": 98833.23450000047,
      "d": 83.33324999999604,
      "v": 101
    },
    {
      "midi": 52,
      "hit": false,
      "t": 98833.23450000047,
      "d": 97.22212500000023,
      "v": 101
    },
    {
      "midi": 64,
      "hit": false,
      "t": 98999.90100000048,
      "d": 41.66662499999802,
      "v": 60
    },
    {
      "midi": 57,
      "hit": false,
      "t": 99166.56750000047,
      "d": 184.02759374999732,
      "v": 101
    },
    {
      "midi": 64,
      "hit": false,
      "t": 99166.56750000047,
      "d": 194.44425000000047,
      "v": 101
    },
    {
      "midi": 62,
      "hit": false,
      "t": 99166.56750000047,
      "d": 208.33312500000466,
      "v": 101
    },
    {
      "midi": 57,
      "hit": false,
      "t": 99499.90050000047,
      "d": 159.72206250000454,
      "v": 101
    },
    {
      "midi": 64,
      "hit": false,
      "t": 99499.90050000047,
      "d": 159.72206250000454,
      "v": 101
    },
    {
      "midi": 62,
      "hit": false,
      "t": 99499.90050000047,
      "d": 170.13871875000768,
      "v": 101
    },
    {
      "midi": 45,
      "hit": false,
      "t": 99666.56700000048,
      "d": 107.63878125000338,
      "v": 101
    },
    {
      "midi": 52,
      "hit": false,
      "t": 99666.56700000048,
      "d": 111.11100000000442,
      "v": 101
    },
    {
      "midi": 62,
      "hit": false,
      "t": 99833.23350000048,
      "d": 131.94431249999616,
      "v": 101
    },
    {
      "midi": 64,
      "hit": false,
      "t": 99833.23350000048,
      "d": 131.94431249999616,
      "v": 101
    },
    {
      "midi": 57,
      "hit": false,
      "t": 99833.23350000048,
      "d": 135.4165312499972,
      "v": 101
    },
    {
      "midi": 45,
      "hit": false,
      "t": 99999.90000000047,
      "d": 618.0549374999973,
      "v": 101
    },
    {
      "midi": 52,
      "hit": false,
      "t": 99999.90000000047,
      "d": 624.9993749999994,
      "v": 101
    },
    {
      "midi": 55,
      "hit": false,
      "t": 100333.23300000047,
      "d": 90.27768749999814,
      "v": 101
    },
    {
      "midi": 61,
      "hit": false,
      "t": 100333.23300000047,
      "d": 90.27768749999814,
      "v": 101
    },
    {
      "midi": 64,
      "hit": false,
      "t": 100333.23300000047,
      "d": 93.74990624999919,
      "v": 101
    },
    {
      "midi": 61,
      "hit": false,
      "t": 100833.23250000048,
      "d": 62.49993750000431,
      "v": 101
    },
    {
      "midi": 55,
      "hit": false,
      "t": 100833.23250000048,
      "d": 79.86103125000955,
      "v": 101
    },
    {
      "midi": 64,
      "hit": false,
      "t": 100833.23250000048,
      "d": 104.16656250000233,
      "v": 101
    },
    {
      "midi": 52,
      "hit": false,
      "t": 100999.89900000049,
      "d": 72.9165937499929,
      "v": 98
    },
    {
      "midi": 45,
      "hit": false,
      "t": 100999.89900000049,
      "d": 97.22212499998568,
      "v": 101
    },
    {
      "midi": 61,
      "hit": false,
      "t": 101166.56550000048,
      "d": 41.66662499999802,
      "v": 81
    },
    {
      "midi": 55,
      "hit": false,
      "t": 101166.56550000048,
      "d": 45.13884374999907,
      "v": 69
    },
    {
      "midi": 64,
      "hit": false,
      "t": 101166.56550000048,
      "d": 59.02771875000326,
      "v": 101
    },
    {
      "midi": 61,
      "hit": false,
      "t": 101333.23200000048,
      "d": 90.27768749999814,
      "v": 101
    },
    {
      "midi": 55,
      "hit": false,
      "t": 101333.23200000048,
      "d": 97.22212500000023,
      "v": 101
    },
    {
      "midi": 64,
      "hit": false,
      "t": 101333.23200000048,
      "d": 118.05543750000652,
      "v": 101
    },
    {
      "midi": 52,
      "hit": false,
      "t": 101499.89850000049,
      "d": 86.80546874999709,
      "v": 101
    },
    {
      "midi": 45,
      "hit": false,
      "t": 101499.89850000049,
      "d": 111.11099999998987,
      "v": 101
    },
    {
      "midi": 61,
      "hit": false,
      "t": 101666.56500000048,
      "d": 34.722187499995925,
      "v": 72
    },
    {
      "midi": 55,
      "hit": false,
      "t": 101666.56500000048,
      "d": 55.55550000000221,
      "v": 84
    },
    {
      "midi": 64,
      "hit": false,
      "t": 101666.56500000048,
      "d": 69.4443750000064,
      "v": 101
    },
    {
      "midi": 55,
      "hit": false,
      "t": 101833.23150000049,
      "d": 69.4443750000064,
      "v": 101
    },
    {
      "midi": 61,
      "hit": false,
      "t": 101833.23150000049,
      "d": 86.80546875001164,
      "v": 101
    },
    {
      "midi": 64,
      "hit": false,
      "t": 101833.23150000049,
      "d": 90.27768750001269,
      "v": 101
    },
    {
      "midi": 52,
      "hit": false,
      "t": 101999.8980000005,
      "d": 93.74990624999919,
      "v": 88
    },
    {
      "midi": 45,
      "hit": false,
      "t": 101999.8980000005,
      "d": 118.05543749999197,
      "v": 101
    },
    {
      "midi": 61,
      "hit": false,
      "t": 102166.56450000049,
      "d": 55.55550000000221,
      "v": 101
    },
    {
      "midi": 55,
      "hit": false,
      "t": 102166.56450000049,
      "d": 62.49993750000431,
      "v": 101
    },
    {
      "midi": 64,
      "hit": false,
      "t": 102166.56450000049,
      "d": 76.3888125000085,
      "v": 101
    },
    {
      "midi": 55,
      "hit": false,
      "t": 102333.2310000005,
      "d": 69.4443750000064,
      "v": 101
    },
    {
      "midi": 61,
      "hit": false,
      "t": 102333.2310000005,
      "d": 69.4443750000064,
      "v": 101
    },
    {
      "midi": 64,
      "hit": false,
      "t": 102333.2310000005,
      "d": 100.69434375000128,
      "v": 101
    },
    {
      "midi": 52,
      "hit": false,
      "t": 102666.56400000051,
      "d": 256.9441875000048,
      "v": 101
    },
    {
      "midi": 45,
      "hit": false,
      "t": 102666.56400000051,
      "d": 298.6108125000028,
      "v": 101
    },
    {
      "midi": 55,
      "hit": false,
      "t": 102833.23050000051,
      "d": 104.16656250000233,
      "v": 101
    },
    {
      "midi": 57,
      "hit": false,
      "t": 102999.8970000005,
      "d": 149.3054062500014,
      "v": 98
    },
    {
      "midi": 52,
      "hit": false,
      "t": 103166.56350000051,
      "d": 104.16656250000233,
      "v": 101
    },
    {
      "midi": 55,
      "hit": false,
      "t": 103333.23000000052,
      "d": 69.4443750000064,
      "v": 101
    },
    {
      "midi": 57,
      "hit": false,
      "t": 103333.23000000052,
      "d": 69.4443750000064,
      "v": 101
    },
    {
      "midi": 62,
      "hit": false,
      "t": 103333.23000000052,
      "d": 93.74990624999919,
      "v": 101
    },
    {
      "midi": 55,
      "hit": false,
      "t": 103666.56300000052,
      "d": 104.16656250000233,
      "v": 101
    },
    {
      "midi": 62,
      "hit": false,
      "t": 103666.56300000052,
      "d": 111.11100000000442,
      "v": 101
    },
    {
      "midi": 57,
      "hit": false,
      "t": 103666.56300000052,
      "d": 138.88874999999825,
      "v": 101
    },
    {
      "midi": 55,
      "hit": false,
      "t": 103833.22950000051,
      "d": 118.05543750000652,
      "v": 96
    },
    {
      "midi": 61,
      "hit": false,
      "t": 103833.22950000051,
      "d": 149.3054062500014,
      "v": 101
    },
    {
      "midi": 55,
      "hit": false,
      "t": 104166.56250000051,
      "d": 83.33324999999604,
      "v": 101
    },
    {
      "midi": 61,
      "hit": false,
      "t": 104166.56250000051,
      "d": 90.27768749999814,
      "v": 101
    },
    {
      "midi": 52,
      "hit": false,
      "t": 104333.2290000005,
      "d": 97.22212500000023,
      "v": 101
    },
    {
      "midi": 55,
      "hit": false,
      "t": 104499.89550000051,
      "d": 107.63878125000338,
      "v": 101
    },
    {
      "midi": 52,
      "hit": false,
      "t": 104666.56200000051,
      "d": 104.16656250000233,
      "v": 101
    },
    {
      "midi": 55,
      "hit": false,
      "t": 104833.22850000052,
      "d": 149.3054062500014,
      "v": 101
    },
    {
      "midi": 52,
      "hit": false,
      "t": 104999.89500000053,
      "d": 124.99987499999406,
      "v": 101
    },
    {
      "midi": 57,
      "hit": false,
      "t": 105166.56150000052,
      "d": 194.44425000000047,
      "v": 101
    },
    {
      "midi": 52,
      "hit": false,
      "t": 105333.22800000053,
      "d": 100.69434374998673,
      "v": 98
    },
    {
      "midi": 55,
      "hit": false,
      "t": 105499.89450000052,
      "d": 59.02771875000326,
      "v": 68
    },
    {
      "midi": 52,
      "hit": false,
      "t": 105583.22775000051,
      "d": 79.861031249995,
      "v": 64
    },
    {
      "midi": 57,
      "hit": false,
      "t": 105666.56100000051,
      "d": 69.4443750000064,
      "v": 98
    },
    {
      "midi": 55,
      "hit": false,
      "t": 105666.56100000051,
      "d": 90.27768750001269,
      "v": 101
    },
    {
      "midi": 55,
      "hit": false,
      "t": 105999.89400000052,
      "d": 76.38881249999395,
      "v": 101
    },
    {
      "midi": 57,
      "hit": false,
      "t": 105999.89400000052,
      "d": 79.861031249995,
      "v": 101
    },
    {
      "midi": 52,
      "hit": false,
      "t": 106166.56050000052,
      "d": 90.27768749999814,
      "v": 101
    },
    {
      "midi": 57,
      "hit": false,
      "t": 106333.22700000051,
      "d": 38.19440624999697,
      "v": 69
    },
    {
      "midi": 55,
      "hit": false,
      "t": 106333.22700000051,
      "d": 69.44437499999185,
      "v": 98
    },
    {
      "midi": 57,
      "hit": false,
      "t": 106499.8935000005,
      "d": 93.74990624999919,
      "v": 101
    },
    {
      "midi": 55,
      "hit": false,
      "t": 106499.8935000005,
      "d": 104.16656250000233,
      "v": 101
    },
    {
      "midi": 61,
      "hit": false,
      "t": 106499.8935000005,
      "d": 114.58321875000547,
      "v": 101
    },
    {
      "midi": 52,
      "hit": false,
      "t": 106666.5600000005,
      "d": 52.083281250001164,
      "v": 63
    },
    {
      "midi": 57,
      "hit": false,
      "t": 106833.22650000051,
      "d": 55.55550000000221,
      "v": 101
    },
    {
      "midi": 55,
      "hit": false,
      "t": 106833.22650000051,
      "d": 83.33324999999604,
      "v": 101
    },
    {
      "midi": 61,
      "hit": false,
      "t": 106833.22650000051,
      "d": 93.74990624999919,
      "v": 101
    },
    {
      "midi": 52,
      "hit": false,
      "t": 106999.8930000005,
      "d": 90.27768749999814,
      "v": 96
    },
    {
      "midi": 57,
      "hit": false,
      "t": 107333.2260000005,
      "d": 69.4443750000064,
      "v": 101
    },
    {
      "midi": 55,
      "hit": false,
      "t": 107333.2260000005,
      "d": 90.27768750001269,
      "v": 101
    },
    {
      "midi": 61,
      "hit": false,
      "t": 107333.2260000005,
      "d": 107.63878125001793,
      "v": 101
    },
    {
      "midi": 45,
      "hit": false,
      "t": 107499.89250000053,
      "d": 62.49993750000431,
      "v": 101
    },
    {
      "midi": 52,
      "hit": false,
      "t": 107499.89250000053,
      "d": 72.91659375000745,
      "v": 101
    },
    {
      "midi": 57,
      "hit": false,
      "t": 107666.55900000053,
      "d": 65.97215625000536,
      "v": 101
    },
    {
      "midi": 55,
      "hit": false,
      "t": 107666.55900000053,
      "d": 79.86103125000955,
      "v": 101
    },
    {
      "midi": 61,
      "hit": false,
      "t": 107666.55900000053,
      "d": 90.27768750001269,
      "v": 101
    },
    {
      "midi": 52,
      "hit": false,
      "t": 107999.89200000055,
      "d": 256.9441875000048,
      "v": 101
    },
    {
      "midi": 45,
      "hit": false,
      "t": 107999.89200000055,
      "d": 298.6108125000028,
      "v": 101
    },
    {
      "midi": 55,
      "hit": false,
      "t": 108166.55850000055,
      "d": 104.16656250000233,
      "v": 101
    },
    {
      "midi": 57,
      "hit": false,
      "t": 108333.22500000054,
      "d": 149.3054062500014,
      "v": 98
    },
    {
      "midi": 52,
      "hit": false,
      "t": 108499.89150000055,
      "d": 104.16656250000233,
      "v": 101
    },
    {
      "midi": 55,
      "hit": false,
      "t": 108666.55800000056,
      "d": 69.4443750000064,
      "v": 101
    },
    {
      "midi": 57,
      "hit": false,
      "t": 108666.55800000056,
      "d": 69.4443750000064,
      "v": 101
    },
    {
      "midi": 62,
      "hit": false,
      "t": 108666.55800000056,
      "d": 93.74990624999919,
      "v": 101
    },
    {
      "midi": 55,
      "hit": false,
      "t": 108999.89100000056,
      "d": 104.16656250000233,
      "v": 101
    },
    {
      "midi": 62,
      "hit": false,
      "t": 108999.89100000056,
      "d": 111.11100000000442,
      "v": 101
    },
    {
      "midi": 57,
      "hit": false,
      "t": 108999.89100000056,
      "d": 138.88874999999825,
      "v": 101
    },
    {
      "midi": 55,
      "hit": false,
      "t": 109166.55750000055,
      "d": 118.05543750000652,
      "v": 96
    },
    {
      "midi": 61,
      "hit": false,
      "t": 109166.55750000055,
      "d": 149.3054062500014,
      "v": 101
    },
    {
      "midi": 55,
      "hit": false,
      "t": 109499.89050000055,
      "d": 83.33324999999604,
      "v": 101
    },
    {
      "midi": 61,
      "hit": false,
      "t": 109499.89050000055,
      "d": 90.27768749999814,
      "v": 101
    },
    {
      "midi": 52,
      "hit": false,
      "t": 109666.55700000054,
      "d": 97.22212500000023,
      "v": 101
    },
    {
      "midi": 55,
      "hit": false,
      "t": 109833.22350000055,
      "d": 107.63878125000338,
      "v": 101
    },
    {
      "midi": 52,
      "hit": false,
      "t": 109999.89000000055,
      "d": 104.16656250000233,
      "v": 101
    },
    {
      "midi": 55,
      "hit": false,
      "t": 110166.55650000056,
      "d": 149.3054062500014,
      "v": 101
    },
    {
      "midi": 52,
      "hit": false,
      "t": 110333.22300000057,
      "d": 124.99987499999406,
      "v": 101
    },
    {
      "midi": 57,
      "hit": false,
      "t": 110499.88950000056,
      "d": 194.44425000000047,
      "v": 101
    },
    {
      "midi": 52,
      "hit": false,
      "t": 110666.55600000056,
      "d": 100.69434374998673,
      "v": 98
    },
    {
      "midi": 55,
      "hit": false,
      "t": 110833.22250000056,
      "d": 59.02771875000326,
      "v": 68
    },
    {
      "midi": 52,
      "hit": false,
      "t": 110916.55575000055,
      "d": 79.861031249995,
      "v": 64
    },
    {
      "midi": 57,
      "hit": false,
      "t": 110999.88900000055,
      "d": 69.4443750000064,
      "v": 98
    },
    {
      "midi": 55,
      "hit": false,
      "t": 110999.88900000055,
      "d": 90.27768750001269,
      "v": 101
    },
    {
      "midi": 55,
      "hit": false,
      "t": 111333.22200000056,
      "d": 76.38881249999395,
      "v": 101
    },
    {
      "midi": 57,
      "hit": false,
      "t": 111333.22200000056,
      "d": 79.861031249995,
      "v": 101
    },
    {
      "midi": 52,
      "hit": false,
      "t": 111499.88850000055,
      "d": 90.27768749999814,
      "v": 101
    },
    {
      "midi": 57,
      "hit": false,
      "t": 111666.55500000055,
      "d": 38.19440624999697,
      "v": 69
    },
    {
      "midi": 55,
      "hit": false,
      "t": 111666.55500000055,
      "d": 69.44437499999185,
      "v": 98
    },
    {
      "midi": 57,
      "hit": false,
      "t": 111833.22150000054,
      "d": 93.74990624999919,
      "v": 101
    },
    {
      "midi": 55,
      "hit": false,
      "t": 111833.22150000054,
      "d": 104.16656250000233,
      "v": 101
    },
    {
      "midi": 61,
      "hit": false,
      "t": 111833.22150000054,
      "d": 114.58321875000547,
      "v": 101
    },
    {
      "midi": 52,
      "hit": false,
      "t": 111999.88800000054,
      "d": 52.083281250001164,
      "v": 63
    },
    {
      "midi": 57,
      "hit": false,
      "t": 112166.55450000055,
      "d": 55.55550000000221,
      "v": 101
    },
    {
      "midi": 55,
      "hit": false,
      "t": 112166.55450000055,
      "d": 83.33324999999604,
      "v": 101
    },
    {
      "midi": 61,
      "hit": false,
      "t": 112166.55450000055,
      "d": 93.74990624999919,
      "v": 101
    },
    {
      "midi": 52,
      "hit": false,
      "t": 112333.22100000054,
      "d": 90.27768749999814,
      "v": 96
    },
    {
      "midi": 57,
      "hit": false,
      "t": 112666.55400000054,
      "d": 69.4443750000064,
      "v": 101
    },
    {
      "midi": 55,
      "hit": false,
      "t": 112666.55400000054,
      "d": 90.27768750001269,
      "v": 101
    },
    {
      "midi": 61,
      "hit": false,
      "t": 112666.55400000054,
      "d": 107.63878125001793,
      "v": 101
    },
    {
      "midi": 45,
      "hit": false,
      "t": 112833.22050000056,
      "d": 62.49993750000431,
      "v": 101
    },
    {
      "midi": 52,
      "hit": false,
      "t": 112833.22050000056,
      "d": 72.91659375000745,
      "v": 101
    },
    {
      "midi": 57,
      "hit": false,
      "t": 112999.88700000057,
      "d": 65.97215625000536,
      "v": 101
    },
    {
      "midi": 55,
      "hit": false,
      "t": 112999.88700000057,
      "d": 79.86103125000955,
      "v": 101
    },
    {
      "midi": 61,
      "hit": false,
      "t": 112999.88700000057,
      "d": 90.27768750001269,
      "v": 101
    },
    {
      "midi": 48,
      "hit": false,
      "t": 113333.22000000058,
      "d": 336.80521874999977,
      "v": 101
    },
    {
      "midi": 60,
      "hit": false,
      "t": 113666.55300000058,
      "d": 62.49993750000431,
      "v": 101
    },
    {
      "midi": 55,
      "hit": false,
      "t": 113666.55300000058,
      "d": 72.91659375000745,
      "v": 101
    },
    {
      "midi": 64,
      "hit": false,
      "t": 113666.55300000058,
      "d": 90.27768750001269,
      "v": 101
    },
    {
      "midi": 60,
      "hit": false,
      "t": 114166.5525000006,
      "d": 59.02771875000326,
      "v": 101
    },
    {
      "midi": 55,
      "hit": false,
      "t": 114166.5525000006,
      "d": 69.4443750000064,
      "v": 101
    },
    {
      "midi": 64,
      "hit": false,
      "t": 114166.5525000006,
      "d": 90.27768750001269,
      "v": 101
    },
    {
      "midi": 48,
      "hit": false,
      "t": 114333.21900000061,
      "d": 93.74990624999919,
      "v": 101
    },
    {
      "midi": 48,
      "hit": false,
      "t": 114583.21875000061,
      "d": 34.722187499995925,
      "v": 68
    },
    {
      "midi": 58,
      "hit": false,
      "t": 114666.5520000006,
      "d": 395.832937500003,
      "v": 101
    },
    {
      "midi": 64,
      "hit": false,
      "t": 114666.5520000006,
      "d": 395.832937500003,
      "v": 101
    },
    {
      "midi": 55,
      "hit": false,
      "t": 114666.5520000006,
      "d": 409.7218125000072,
      "v": 101
    },
    {
      "midi": 48,
      "hit": false,
      "t": 114999.8850000006,
      "d": 83.3332500000106,
      "v": 101
    },
    {
      "midi": 64,
      "hit": false,
      "t": 115166.55150000061,
      "d": 333.3329999999987,
      "v": 101
    },
    {
      "midi": 60,
      "hit": false,
      "t": 115166.55150000061,
      "d": 364.5829687499936,
      "v": 101
    },
    {
      "midi": 55,
      "hit": false,
      "t": 115166.55150000061,
      "d": 368.05518749999464,
      "v": 101
    },
    {
      "midi": 48,
      "hit": false,
      "t": 115499.88450000061,
      "d": 104.16656250000233,
      "v": 101
    },
    {
      "midi": 55,
      "hit": false,
      "t": 115666.55100000062,
      "d": 124.99987499999406,
      "v": 91
    },
    {
      "midi": 58,
      "hit": false,
      "t": 115666.55100000062,
      "d": 131.94431249999616,
      "v": 101
    },
    {
      "midi": 64,
      "hit": false,
      "t": 115666.55100000062,
      "d": 159.72206249999,
      "v": 101
    },
    {
      "midi": 50,
      "hit": false,
      "t": 116333.2170000006,
      "d": 118.05543750000652,
      "v": 101
    },
    {
      "midi": 57,
      "hit": false,
      "t": 116333.2170000006,
      "d": 118.05543750000652,
      "v": 101
    },
    {
      "midi": 62,
      "hit": false,
      "t": 116833.2165000006,
      "d": 59.02771875000326,
      "v": 101
    },
    {
      "midi": 60,
      "hit": false,
      "t": 116833.2165000006,
      "d": 62.49993750000431,
      "v": 101
    },
    {
      "midi": 66,
      "hit": false,
      "t": 116833.2165000006,
      "d": 79.86103125000955,
      "v": 101
    },
    {
      "midi": 50,
      "hit": false,
      "t": 116999.88300000061,
      "d": 72.9165937499929,
      "v": 101
    },
    {
      "midi": 57,
      "hit": false,
      "t": 116999.88300000061,
      "d": 76.38881249999395,
      "v": 91
    },
    {
      "midi": 62,
      "hit": false,
      "t": 117333.21600000061,
      "d": 322.9163437499956,
      "v": 101
    },
    {
      "midi": 66,
      "hit": false,
      "t": 117333.21600000061,
      "d": 329.8607812499977,
      "v": 101
    },
    {
      "midi": 60,
      "hit": false,
      "t": 117333.21600000061,
      "d": 333.3329999999987,
      "v": 101
    },
    {
      "midi": 57,
      "hit": false,
      "t": 117666.54900000061,
      "d": 62.49993750000431,
      "v": 101
    },
    {
      "midi": 50,
      "hit": false,
      "t": 117666.54900000061,
      "d": 83.3332500000106,
      "v": 101
    },
    {
      "midi": 62,
      "hit": false,
      "t": 117833.21550000062,
      "d": 388.88850000000093,
      "v": 101
    },
    {
      "midi": 66,
      "hit": false,
      "t": 117833.21550000062,
      "d": 388.88850000000093,
      "v": 101
    },
    {
      "midi": 60,
      "hit": false,
      "t": 117833.21550000062,
      "d": 395.832937500003,
      "v": 101
    },
    {
      "midi": 50,
      "hit": false,
      "t": 118166.54850000062,
      "d": 72.91659375000745,
      "v": 101
    },
    {
      "midi": 57,
      "hit": false,
      "t": 118166.54850000062,
      "d": 93.74990625001374,
      "v": 98
    },
    {
      "midi": 60,
      "hit": false,
      "t": 118333.21500000062,
      "d": 69.4443750000064,
      "v": 101
    },
    {
      "midi": 62,
      "hit": false,
      "t": 118333.21500000062,
      "d": 72.91659375000745,
      "v": 101
    },
    {
      "midi": 66,
      "hit": false,
      "t": 118333.21500000062,
      "d": 90.27768750001269,
      "v": 101
    },
    {
      "midi": 45,
      "hit": false,
      "t": 118666.54800000064,
      "d": 416.66624999999476,
      "v": 101
    },
    {
      "midi": 52,
      "hit": false,
      "t": 118666.54800000064,
      "d": 423.61068749999686,
      "v": 101
    },
    {
      "midi": 61,
      "hit": false,
      "t": 118999.88100000063,
      "d": 138.88874999999825,
      "v": 101
    },
    {
      "midi": 55,
      "hit": false,
      "t": 118999.88100000063,
      "d": 152.77762500000244,
      "v": 101
    },
    {
      "midi": 64,
      "hit": false,
      "t": 118999.88100000063,
      "d": 173.61093750000873,
      "v": 101
    },
    {
      "midi": 52,
      "hit": false,
      "t": 119249.88075000064,
      "d": 34.722187499995925,
      "v": 48
    },
    {
      "midi": 61,
      "hit": false,
      "t": 119333.21400000063,
      "d": 38.19440624999697,
      "v": 76
    },
    {
      "midi": 55,
      "hit": false,
      "t": 119333.21400000063,
      "d": 55.55550000000221,
      "v": 81
    },
    {
      "midi": 64,
      "hit": false,
      "t": 119333.21400000063,
      "d": 76.3888125000085,
      "v": 101
    },
    {
      "midi": 55,
      "hit": false,
      "t": 119499.88050000064,
      "d": 83.33324999999604,
      "v": 101
    },
    {
      "midi": 61,
      "hit": false,
      "t": 119499.88050000064,
      "d": 90.27768749999814,
      "v": 101
    },
    {
      "midi": 64,
      "hit": false,
      "t": 119499.88050000064,
      "d": 114.58321874999092,
      "v": 101
    },
    {
      "midi": 45,
      "hit": false,
      "t": 119666.54700000063,
      "d": 79.861031249995,
      "v": 101
    },
    {
      "midi": 52,
      "hit": false,
      "t": 119666.54700000063,
      "d": 104.16656249998778,
      "v": 101
    },
    {
      "midi": 61,
      "hit": false,
      "t": 119833.21350000062,
      "d": 41.66662499999802,
      "v": 79
    },
    {
      "midi": 55,
      "hit": false,
      "t": 119833.21350000062,
      "d": 48.611062500000116,
      "v": 63
    },
    {
      "midi": 64,
      "hit": false,
      "t": 119833.21350000062,
      "d": 69.4443750000064,
      "v": 101
    },
    {
      "midi": 55,
      "hit": false,
      "t": 119999.88000000063,
      "d": 104.16656250000233,
      "v": 101
    },
    {
      "midi": 61,
      "hit": false,
      "t": 119999.88000000063,
      "d": 124.99987500000861,
      "v": 101
    },
    {
      "midi": 64,
      "hit": false,
      "t": 119999.88000000063,
      "d": 142.36096875001385,
      "v": 101
    },
    {
      "midi": 45,
      "hit": false,
      "t": 120166.54650000064,
      "d": 83.33324999999604,
      "v": 101
    },
    {
      "midi": 52,
      "hit": false,
      "t": 120166.54650000064,
      "d": 97.22212500000023,
      "v": 101
    },
    {
      "midi": 64,
      "hit": false,
      "t": 120333.21300000064,
      "d": 41.66662499999802,
      "v": 60
    },
    {
      "midi": 57,
      "hit": false,
      "t": 120499.87950000064,
      "d": 184.02759374999732,
      "v": 101
    },
    {
      "midi": 64,
      "hit": false,
      "t": 120499.87950000064,
      "d": 194.44425000000047,
      "v": 101
    },
    {
      "midi": 62,
      "hit": false,
      "t": 120499.87950000064,
      "d": 208.33312500000466,
      "v": 101
    },
    {
      "midi": 57,
      "hit": false,
      "t": 120833.21250000063,
      "d": 159.72206250000454,
      "v": 101
    },
    {
      "midi": 64,
      "hit": false,
      "t": 120833.21250000063,
      "d": 159.72206250000454,
      "v": 101
    },
    {
      "midi": 62,
      "hit": false,
      "t": 120833.21250000063,
      "d": 170.13871875000768,
      "v": 101
    },
    {
      "midi": 45,
      "hit": false,
      "t": 120999.87900000064,
      "d": 107.63878125000338,
      "v": 101
    },
    {
      "midi": 52,
      "hit": false,
      "t": 120999.87900000064,
      "d": 111.11100000000442,
      "v": 101
    },
    {
      "midi": 62,
      "hit": false,
      "t": 121166.54550000065,
      "d": 131.94431249999616,
      "v": 101
    },
    {
      "midi": 64,
      "hit": false,
      "t": 121166.54550000065,
      "d": 131.94431249999616,
      "v": 101
    },
    {
      "midi": 57,
      "hit": false,
      "t": 121166.54550000065,
      "d": 135.4165312499972,
      "v": 101
    },
    {
      "midi": 45,
      "hit": false,
      "t": 121333.21200000064,
      "d": 618.0549374999973,
      "v": 101
    },
    {
      "midi": 52,
      "hit": false,
      "t": 121333.21200000064,
      "d": 624.9993749999994,
      "v": 101
    },
    {
      "midi": 55,
      "hit": false,
      "t": 121666.54500000064,
      "d": 90.27768749999814,
      "v": 101
    },
    {
      "midi": 61,
      "hit": false,
      "t": 121666.54500000064,
      "d": 90.27768749999814,
      "v": 101
    },
    {
      "midi": 64,
      "hit": false,
      "t": 121666.54500000064,
      "d": 93.74990624999919,
      "v": 101
    },
    {
      "midi": 61,
      "hit": false,
      "t": 122166.54450000064,
      "d": 62.49993750000431,
      "v": 101
    },
    {
      "midi": 55,
      "hit": false,
      "t": 122166.54450000064,
      "d": 79.86103125000955,
      "v": 101
    },
    {
      "midi": 64,
      "hit": false,
      "t": 122166.54450000064,
      "d": 104.16656250000233,
      "v": 101
    },
    {
      "midi": 52,
      "hit": false,
      "t": 122333.21100000065,
      "d": 72.9165937499929,
      "v": 98
    },
    {
      "midi": 45,
      "hit": false,
      "t": 122333.21100000065,
      "d": 97.22212499998568,
      "v": 101
    },
    {
      "midi": 61,
      "hit": false,
      "t": 122499.87750000064,
      "d": 41.66662499999802,
      "v": 81
    },
    {
      "midi": 55,
      "hit": false,
      "t": 122499.87750000064,
      "d": 45.13884374999907,
      "v": 69
    },
    {
      "midi": 64,
      "hit": false,
      "t": 122499.87750000064,
      "d": 59.02771875000326,
      "v": 101
    },
    {
      "midi": 61,
      "hit": false,
      "t": 122666.54400000065,
      "d": 90.27768749999814,
      "v": 101
    },
    {
      "midi": 55,
      "hit": false,
      "t": 122666.54400000065,
      "d": 97.22212500000023,
      "v": 101
    },
    {
      "midi": 64,
      "hit": false,
      "t": 122666.54400000065,
      "d": 118.05543750000652,
      "v": 101
    },
    {
      "midi": 52,
      "hit": false,
      "t": 122833.21050000066,
      "d": 86.80546874999709,
      "v": 101
    },
    {
      "midi": 45,
      "hit": false,
      "t": 122833.21050000066,
      "d": 111.11099999998987,
      "v": 101
    },
    {
      "midi": 61,
      "hit": false,
      "t": 122999.87700000065,
      "d": 34.722187499995925,
      "v": 72
    },
    {
      "midi": 55,
      "hit": false,
      "t": 122999.87700000065,
      "d": 55.55550000000221,
      "v": 84
    },
    {
      "midi": 64,
      "hit": false,
      "t": 122999.87700000065,
      "d": 69.4443750000064,
      "v": 101
    },
    {
      "midi": 55,
      "hit": false,
      "t": 123166.54350000065,
      "d": 69.4443750000064,
      "v": 101
    },
    {
      "midi": 61,
      "hit": false,
      "t": 123166.54350000065,
      "d": 86.80546875001164,
      "v": 101
    },
    {
      "midi": 64,
      "hit": false,
      "t": 123166.54350000065,
      "d": 90.27768750001269,
      "v": 101
    },
    {
      "midi": 52,
      "hit": false,
      "t": 123333.21000000066,
      "d": 93.74990624999919,
      "v": 88
    },
    {
      "midi": 45,
      "hit": false,
      "t": 123333.21000000066,
      "d": 118.05543749999197,
      "v": 101
    },
    {
      "midi": 61,
      "hit": false,
      "t": 123499.87650000065,
      "d": 55.55550000000221,
      "v": 101
    },
    {
      "midi": 55,
      "hit": false,
      "t": 123499.87650000065,
      "d": 62.49993750000431,
      "v": 101
    },
    {
      "midi": 64,
      "hit": false,
      "t": 123499.87650000065,
      "d": 76.3888125000085,
      "v": 101
    },
    {
      "midi": 55,
      "hit": false,
      "t": 123666.54300000066,
      "d": 69.4443750000064,
      "v": 101
    },
    {
      "midi": 61,
      "hit": false,
      "t": 123666.54300000066,
      "d": 69.4443750000064,
      "v": 101
    },
    {
      "midi": 64,
      "hit": false,
      "t": 123666.54300000066,
      "d": 100.69434375000128,
      "v": 101
    },
    {
      "midi": 50,
      "hit": false,
      "t": 123999.87600000067,
      "d": 298.6108125000028,
      "v": 101
    },
    {
      "midi": 57,
      "hit": false,
      "t": 124333.20900000067,
      "d": 65.97215625000536,
      "v": 101
    },
    {
      "midi": 62,
      "hit": false,
      "t": 124333.20900000067,
      "d": 69.4443750000064,
      "v": 101
    },
    {
      "midi": 66,
      "hit": false,
      "t": 124333.20900000067,
      "d": 83.3332500000106,
      "v": 101
    },
    {
      "midi": 62,
      "hit": false,
      "t": 124833.20850000068,
      "d": 55.55550000000221,
      "v": 101
    },
    {
      "midi": 57,
      "hit": false,
      "t": 124833.20850000068,
      "d": 59.02771875000326,
      "v": 101
    },
    {
      "midi": 66,
      "hit": false,
      "t": 124833.20850000068,
      "d": 79.86103125000955,
      "v": 101
    },
    {
      "midi": 61,
      "hit": false,
      "t": 125333.20800000068,
      "d": 62.49993750000431,
      "v": 101
    },
    {
      "midi": 57,
      "hit": false,
      "t": 125333.20800000068,
      "d": 65.97215625000536,
      "v": 101
    },
    {
      "midi": 64,
      "hit": false,
      "t": 125333.20800000068,
      "d": 72.91659375000745,
      "v": 101
    },
    {
      "midi": 45,
      "hit": false,
      "t": 125333.20800000068,
      "d": 90.27768750001269,
      "v": 101
    },
    {
      "midi": 52,
      "hit": false,
      "t": 125333.20800000068,
      "d": 97.22212500001478,
      "v": 98
    },
    {
      "midi": 64,
      "hit": false,
      "t": 125833.2075000007,
      "d": 322.9163437500101,
      "v": 101
    },
    {
      "midi": 61,
      "hit": false,
      "t": 125833.2075000007,
      "d": 326.3885625000112,
      "v": 101
    },
    {
      "midi": 57,
      "hit": false,
      "t": 125833.2075000007,
      "d": 333.33300000001327,
      "v": 101
    },
    {
      "midi": 52,
      "hit": false,
      "t": 126166.54050000072,
      "d": 86.80546874999709,
      "v": 101
    },
    {
      "midi": 45,
      "hit": false,
      "t": 126166.54050000072,
      "d": 90.27768749999814,
      "v": 101
    },
    {
      "midi": 57,
      "hit": false,
      "t": 126333.20700000071,
      "d": 100.69434375000128,
      "v": 101
    },
    {
      "midi": 61,
      "hit": false,
      "t": 126333.20700000071,
      "d": 111.11100000000442,
      "v": 101
    },
    {
      "midi": 64,
      "hit": false,
      "t": 126333.20700000071,
      "d": 131.9443125000107,
      "v": 101
    },
    {
      "midi": 50,
      "hit": false,
      "t": 126666.54000000072,
      "d": 298.6108125000028,
      "v": 101
    },
    {
      "midi": 57,
      "hit": false,
      "t": 126999.87300000072,
      "d": 65.97215625000536,
      "v": 101
    },
    {
      "midi": 62,
      "hit": false,
      "t": 126999.87300000072,
      "d": 69.4443750000064,
      "v": 101
    },
    {
      "midi": 66,
      "hit": false,
      "t": 126999.87300000072,
      "d": 83.3332500000106,
      "v": 101
    },
    {
      "midi": 62,
      "hit": false,
      "t": 127499.87250000073,
      "d": 55.55550000000221,
      "v": 101
    },
    {
      "midi": 57,
      "hit": false,
      "t": 127499.87250000073,
      "d": 59.02771875000326,
      "v": 101
    },
    {
      "midi": 66,
      "hit": false,
      "t": 127499.87250000073,
      "d": 79.86103125000955,
      "v": 101
    },
    {
      "midi": 61,
      "hit": false,
      "t": 127999.87200000073,
      "d": 62.49993750000431,
      "v": 101
    },
    {
      "midi": 57,
      "hit": false,
      "t": 127999.87200000073,
      "d": 65.97215625000536,
      "v": 101
    },
    {
      "midi": 64,
      "hit": false,
      "t": 127999.87200000073,
      "d": 72.91659375000745,
      "v": 101
    },
    {
      "midi": 45,
      "hit": false,
      "t": 127999.87200000073,
      "d": 90.27768750001269,
      "v": 101
    },
    {
      "midi": 52,
      "hit": false,
      "t": 127999.87200000073,
      "d": 97.22212500001478,
      "v": 98
    },
    {
      "midi": 64,
      "hit": false,
      "t": 128499.87150000075,
      "d": 322.9163437500101,
      "v": 101
    },
    {
      "midi": 61,
      "hit": false,
      "t": 128499.87150000075,
      "d": 326.3885625000112,
      "v": 101
    },
    {
      "midi": 57,
      "hit": false,
      "t": 128499.87150000075,
      "d": 333.33300000001327,
      "v": 101
    },
    {
      "midi": 52,
      "hit": false,
      "t": 128833.20450000076,
      "d": 86.80546874999709,
      "v": 101
    },
    {
      "midi": 45,
      "hit": false,
      "t": 128833.20450000076,
      "d": 90.27768749999814,
      "v": 101
    },
    {
      "midi": 57,
      "hit": false,
      "t": 128999.87100000076,
      "d": 100.69434375000128,
      "v": 101
    },
    {
      "midi": 61,
      "hit": false,
      "t": 128999.87100000076,
      "d": 111.11100000000442,
      "v": 101
    },
    {
      "midi": 64,
      "hit": false,
      "t": 128999.87100000076,
      "d": 131.9443125000107,
      "v": 101
    },
    {
      "midi": 50,
      "hit": false,
      "t": 129333.20400000077,
      "d": 298.6108125000028,
      "v": 101
    },
    {
      "midi": 57,
      "hit": false,
      "t": 129666.53700000077,
      "d": 65.97215625000536,
      "v": 101
    },
    {
      "midi": 62,
      "hit": false,
      "t": 129666.53700000077,
      "d": 69.4443750000064,
      "v": 101
    },
    {
      "midi": 66,
      "hit": false,
      "t": 129666.53700000077,
      "d": 83.3332500000106,
      "v": 101
    },
    {
      "midi": 62,
      "hit": false,
      "t": 130166.53650000077,
      "d": 55.55550000000221,
      "v": 101
    },
    {
      "midi": 57,
      "hit": false,
      "t": 130166.53650000077,
      "d": 59.02771875000326,
      "v": 101
    },
    {
      "midi": 66,
      "hit": false,
      "t": 130166.53650000077,
      "d": 79.86103125000955,
      "v": 101
    },
    {
      "midi": 61,
      "hit": false,
      "t": 130666.53600000078,
      "d": 62.49993750000431,
      "v": 101
    },
    {
      "midi": 57,
      "hit": false,
      "t": 130666.53600000078,
      "d": 65.97215625000536,
      "v": 101
    },
    {
      "midi": 64,
      "hit": false,
      "t": 130666.53600000078,
      "d": 72.91659375000745,
      "v": 101
    },
    {
      "midi": 45,
      "hit": false,
      "t": 130666.53600000078,
      "d": 90.27768750001269,
      "v": 101
    },
    {
      "midi": 52,
      "hit": false,
      "t": 130666.53600000078,
      "d": 97.22212500001478,
      "v": 98
    },
    {
      "midi": 64,
      "hit": false,
      "t": 131166.53550000078,
      "d": 322.9163437499956,
      "v": 101
    },
    {
      "midi": 61,
      "hit": false,
      "t": 131166.53550000078,
      "d": 326.3885624999821,
      "v": 101
    },
    {
      "midi": 57,
      "hit": false,
      "t": 131166.53550000078,
      "d": 333.33299999998417,
      "v": 101
    },
    {
      "midi": 52,
      "hit": false,
      "t": 131499.86850000077,
      "d": 86.80546875001164,
      "v": 101
    },
    {
      "midi": 45,
      "hit": false,
      "t": 131499.86850000077,
      "d": 90.27768749999814,
      "v": 101
    },
    {
      "midi": 57,
      "hit": false,
      "t": 131666.53500000076,
      "d": 100.69434375001583,
      "v": 101
    },
    {
      "midi": 61,
      "hit": false,
      "t": 131666.53500000076,
      "d": 111.11100000000442,
      "v": 101
    },
    {
      "midi": 64,
      "hit": false,
      "t": 131666.53500000076,
      "d": 131.9443125000107,
      "v": 101
    },
    {
      "midi": 40,
      "hit": false,
      "t": 131999.86800000077,
      "d": 1239.5820937498647,
      "v": 101
    },
    {
      "midi": 47,
      "hit": false,
      "t": 131999.86800000077,
      "d": 1260.415406249842,
      "v": 101
    },
    {
      "midi": 59,
      "hit": false,
      "t": 132166.53450000077,
      "d": 83.33324999999604,
      "v": 75
    },
    {
      "midi": 68,
      "hit": false,
      "t": 132166.53450000077,
      "d": 83.33324999999604,
      "v": 93
    },
    {
      "midi": 64,
      "hit": false,
      "t": 132166.53450000077,
      "d": 86.80546874998254,
      "v": 101
    },
    {
      "midi": 64,
      "hit": false,
      "t": 132333.20100000076,
      "d": 55.55549999998766,
      "v": 101
    },
    {
      "midi": 68,
      "hit": false,
      "t": 132333.20100000076,
      "d": 59.027718749974156,
      "v": 91
    },
    {
      "midi": 59,
      "hit": false,
      "t": 132333.20100000076,
      "d": 62.49993749996065,
      "v": 81
    },
    {
      "midi": 59,
      "hit": false,
      "t": 132499.86750000072,
      "d": 55.55549999998766,
      "v": 101
    },
    {
      "midi": 64,
      "hit": false,
      "t": 132499.86750000072,
      "d": 59.027718749974156,
      "v": 101
    },
    {
      "midi": 68,
      "hit": false,
      "t": 132499.86750000072,
      "d": 76.38881249996484,
      "v": 101
    },
    {
      "midi": 59,
      "hit": false,
      "t": 132666.53400000068,
      "d": 59.02771875000326,
      "v": 101
    },
    {
      "midi": 64,
      "hit": false,
      "t": 132666.53400000068,
      "d": 69.44437499999185,
      "v": 101
    },
    {
      "midi": 68,
      "hit": false,
      "t": 132666.53400000068,
      "d": 72.91659374997835,
      "v": 101
    },
    {
      "midi": 59,
      "hit": false,
      "t": 132833.20050000068,
      "d": 55.55549999998766,
      "v": 101
    },
    {
      "midi": 64,
      "hit": false,
      "t": 132833.20050000068,
      "d": 65.97215624997625,
      "v": 101
    },
    {
      "midi": 68,
      "hit": false,
      "t": 132833.20050000068,
      "d": 69.44437499996275,
      "v": 101
    },
    {
      "midi": 59,
      "hit": false,
      "t": 132999.86700000064,
      "d": 55.55549999998766,
      "v": 101
    },
    {
      "midi": 64,
      "hit": false,
      "t": 132999.86700000064,
      "d": 62.499937499989755,
      "v": 101
    },
    {
      "midi": 68,
      "hit": false,
      "t": 132999.86700000064,
      "d": 62.499937499989755,
      "v": 101
    },
    {
      "midi": 59,
      "hit": false,
      "t": 133166.53350000063,
      "d": 59.02771875000326,
      "v": 101
    },
    {
      "midi": 64,
      "hit": false,
      "t": 133166.53350000063,
      "d": 65.97215625000536,
      "v": 101
    },
    {
      "midi": 68,
      "hit": false,
      "t": 133166.53350000063,
      "d": 83.33324999999604,
      "v": 101
    },
    {
      "midi": 68,
      "hit": false,
      "t": 133333.20000000062,
      "d": 954.8601562500116,
      "v": 101
    },
    {
      "midi": 47,
      "hit": false,
      "t": 133333.20000000062,
      "d": 961.8045937500137,
      "v": 101
    },
    {
      "midi": 64,
      "hit": false,
      "t": 133333.20000000062,
      "d": 965.2768125000002,
      "v": 101
    },
    {
      "midi": 71,
      "hit": false,
      "t": 133333.20000000062,
      "d": 979.1656875000044,
      "v": 101
    },
    {
      "midi": 40,
      "hit": false,
      "t": 133333.20000000062,
      "d": 986.1101250000065,
      "v": 101
    },
    {
      "midi": 52,
      "hit": false,
      "t": 134666.53200000062,
      "d": 388.88850000000093,
      "v": 101
    },
    {
      "midi": 45,
      "hit": false,
      "t": 134666.53200000062,
      "d": 392.3607187499874,
      "v": 101
    },
    {
      "midi": 55,
      "hit": false,
      "t": 134999.86500000063,
      "d": 69.44437499996275,
      "v": 101
    },
    {
      "midi": 61,
      "hit": false,
      "t": 134999.86500000063,
      "d": 76.38881249996484,
      "v": 101
    },
    {
      "midi": 64,
      "hit": false,
      "t": 134999.86500000063,
      "d": 83.33324999996694,
      "v": 101
    },
    {
      "midi": 55,
      "hit": false,
      "t": 135499.8645000006,
      "d": 62.499937499989755,
      "v": 101
    },
    {
      "midi": 61,
      "hit": false,
      "t": 135499.8645000006,
      "d": 69.44437499999185,
      "v": 101
    },
    {
      "midi": 64,
      "hit": false,
      "t": 135499.8645000006,
      "d": 83.33324999999604,
      "v": 101
    },
    {
      "midi": 61,
      "hit": false,
      "t": 135999.8640000006,
      "d": 180.55537499999627,
      "v": 101
    },
    {
      "midi": 55,
      "hit": false,
      "t": 135999.8640000006,
      "d": 184.02759374998277,
      "v": 101
    },
    {
      "midi": 64,
      "hit": false,
      "t": 135999.8640000006,
      "d": 187.49981249996927,
      "v": 101
    },
    {
      "midi": 45,
      "hit": false,
      "t": 136166.5305000006,
      "d": 104.16656249997322,
      "v": 101
    },
    {
      "midi": 52,
      "hit": false,
      "t": 136166.5305000006,
      "d": 111.11099999997532,
      "v": 88
    },
    {
      "midi": 61,
      "hit": false,
      "t": 136333.19700000057,
      "d": 31.249968749994878,
      "v": 68
    },
    {
      "midi": 64,
      "hit": false,
      "t": 136333.19700000057,
      "d": 41.66662499998347,
      "v": 86
    },
    {
      "midi": 55,
      "hit": false,
      "t": 136333.19700000057,
      "d": 45.138843749969965,
      "v": 69
    },
    {
      "midi": 55,
      "hit": false,
      "t": 136499.86350000053,
      "d": 357.63853125000605,
      "v": 101
    },
    {
      "midi": 64,
      "hit": false,
      "t": 136499.86350000053,
      "d": 388.88850000000093,
      "v": 101
    },
    {
      "midi": 61,
      "hit": false,
      "t": 136499.86350000053,
      "d": 402.7773750000051,
      "v": 101
    },
    {
      "midi": 52,
      "hit": false,
      "t": 136833.19650000054,
      "d": 475.6939687500126,
      "v": 93
    },
    {
      "midi": 45,
      "hit": false,
      "t": 136833.19650000054,
      "d": 489.58284375001676,
      "v": 101
    },
    {
      "midi": 64,
      "hit": false,
      "t": 136999.86300000054,
      "d": 288.1941562500142,
      "v": 101
    },
    {
      "midi": 59,
      "hit": false,
      "t": 136999.86300000054,
      "d": 295.1385937500163,
      "v": 101
    },
    {
      "midi": 62,
      "hit": false,
      "t": 136999.86300000054,
      "d": 302.0830312500184,
      "v": 101
    },
    {
      "midi": 61,
      "hit": false,
      "t": 137666.52900000056,
      "d": 65.97215625000536,
      "v": 101
    },
    {
      "midi": 55,
      "hit": false,
      "t": 137666.52900000056,
      "d": 72.91659375000745,
      "v": 101
    },
    {
      "midi": 64,
      "hit": false,
      "t": 137666.52900000056,
      "d": 76.38881249999395,
      "v": 101
    },
    {
      "midi": 61,
      "hit": false,
      "t": 137999.86200000055,
      "d": 100.69434374998673,
      "v": 101
    },
    {
      "midi": 55,
      "hit": false,
      "t": 137999.86200000055,
      "d": 107.63878124998882,
      "v": 98
    },
    {
      "midi": 64,
      "hit": false,
      "t": 137999.86200000055,
      "d": 121.52765624999302,
      "v": 101
    },
    {
      "midi": 45,
      "hit": false,
      "t": 138166.52850000054,
      "d": 90.27768749999814,
      "v": 101
    },
    {
      "midi": 52,
      "hit": false,
      "t": 138166.52850000054,
      "d": 90.27768749999814,
      "v": 96
    },
    {
      "midi": 61,
      "hit": false,
      "t": 138499.86150000052,
      "d": 45.13884374999907,
      "v": 101
    },
    {
      "midi": 55,
      "hit": false,
      "t": 138499.86150000052,
      "d": 55.55549999998766,
      "v": 101
    },
    {
      "midi": 64,
      "hit": false,
      "t": 138499.86150000052,
      "d": 72.91659374997835,
      "v": 101
    },
    {
      "midi": 45,
      "hit": false,
      "t": 138833.1945000005,
      "d": 69.44437499999185,
      "v": 101
    },
    {
      "midi": 52,
      "hit": false,
      "t": 138833.1945000005,
      "d": 83.33324999999604,
      "v": 101
    },
    {
      "midi": 61,
      "hit": false,
      "t": 138999.8610000005,
      "d": 38.19440624999697,
      "v": 88
    },
    {
      "midi": 55,
      "hit": false,
      "t": 138999.8610000005,
      "d": 59.02771875000326,
      "v": 98
    },
    {
      "midi": 64,
      "hit": false,
      "t": 138999.8610000005,
      "d": 62.499937499989755,
      "v": 101
    },
    {
      "midi": 55,
      "hit": false,
      "t": 139166.5275000005,
      "d": 302.0830312499893,
      "v": 101
    },
    {
      "midi": 61,
      "hit": false,
      "t": 139166.5275000005,
      "d": 322.9163437499956,
      "v": 101
    },
    {
      "midi": 64,
      "hit": false,
      "t": 139166.5275000005,
      "d": 326.3885624999821,
      "v": 101
    },
    {
      "midi": 52,
      "hit": false,
      "t": 139499.86050000048,
      "d": 100.69434374998673,
      "v": 98
    },
    {
      "midi": 45,
      "hit": false,
      "t": 139499.86050000048,
      "d": 114.58321874999092,
      "v": 101
    },
    {
      "midi": 65,
      "hit": false,
      "t": 139666.52700000047,
      "d": 20.833312500006286,
      "v": 70
    },
    {
      "midi": 62,
      "hit": false,
      "t": 139666.52700000047,
      "d": 107.63878125001793,
      "v": 101
    },
    {
      "midi": 59,
      "hit": false,
      "t": 139666.52700000047,
      "d": 114.58321875002002,
      "v": 101
    },
    {
      "midi": 64,
      "hit": false,
      "t": 139666.52700000047,
      "d": 118.05543750000652,
      "v": 101
    },
    {
      "midi": 52,
      "hit": false,
      "t": 139999.86000000048,
      "d": 388.88850000000093,
      "v": 101
    },
    {
      "midi": 45,
      "hit": false,
      "t": 139999.86000000048,
      "d": 392.3607187499874,
      "v": 101
    },
    {
      "midi": 55,
      "hit": false,
      "t": 140333.1930000005,
      "d": 69.44437499996275,
      "v": 101
    },
    {
      "midi": 61,
      "hit": false,
      "t": 140333.1930000005,
      "d": 76.38881249996484,
      "v": 101
    },
    {
      "midi": 64,
      "hit": false,
      "t": 140333.1930000005,
      "d": 83.33324999996694,
      "v": 101
    },
    {
      "midi": 55,
      "hit": false,
      "t": 140833.19250000047,
      "d": 62.499937499989755,
      "v": 101
    },
    {
      "midi": 61,
      "hit": false,
      "t": 140833.19250000047,
      "d": 69.44437499999185,
      "v": 101
    },
    {
      "midi": 64,
      "hit": false,
      "t": 140833.19250000047,
      "d": 83.33324999999604,
      "v": 101
    },
    {
      "midi": 61,
      "hit": false,
      "t": 141333.19200000048,
      "d": 180.55537499999627,
      "v": 101
    },
    {
      "midi": 55,
      "hit": false,
      "t": 141333.19200000048,
      "d": 184.02759374998277,
      "v": 101
    },
    {
      "midi": 64,
      "hit": false,
      "t": 141333.19200000048,
      "d": 187.49981249996927,
      "v": 101
    },
    {
      "midi": 45,
      "hit": false,
      "t": 141499.85850000047,
      "d": 104.16656249997322,
      "v": 101
    },
    {
      "midi": 52,
      "hit": false,
      "t": 141499.85850000047,
      "d": 111.11099999997532,
      "v": 88
    },
    {
      "midi": 61,
      "hit": false,
      "t": 141666.52500000043,
      "d": 31.249968749994878,
      "v": 68
    },
    {
      "midi": 64,
      "hit": false,
      "t": 141666.52500000043,
      "d": 41.66662499998347,
      "v": 86
    },
    {
      "midi": 55,
      "hit": false,
      "t": 141666.52500000043,
      "d": 45.138843749969965,
      "v": 69
    },
    {
      "midi": 55,
      "hit": false,
      "t": 141833.1915000004,
      "d": 357.63853125000605,
      "v": 101
    },
    {
      "midi": 64,
      "hit": false,
      "t": 141833.1915000004,
      "d": 388.88850000000093,
      "v": 101
    },
    {
      "midi": 61,
      "hit": false,
      "t": 141833.1915000004,
      "d": 402.7773750000051,
      "v": 101
    },
    {
      "midi": 52,
      "hit": false,
      "t": 142166.5245000004,
      "d": 475.6939687500126,
      "v": 93
    },
    {
      "midi": 45,
      "hit": false,
      "t": 142166.5245000004,
      "d": 489.58284375001676,
      "v": 101
    },
    {
      "midi": 64,
      "hit": false,
      "t": 142333.1910000004,
      "d": 288.1941562500142,
      "v": 101
    },
    {
      "midi": 59,
      "hit": false,
      "t": 142333.1910000004,
      "d": 295.1385937500163,
      "v": 101
    },
    {
      "midi": 62,
      "hit": false,
      "t": 142333.1910000004,
      "d": 302.0830312500184,
      "v": 101
    },
    {
      "midi": 61,
      "hit": false,
      "t": 142999.85700000043,
      "d": 65.97215625000536,
      "v": 101
    },
    {
      "midi": 55,
      "hit": false,
      "t": 142999.85700000043,
      "d": 72.91659375000745,
      "v": 101
    },
    {
      "midi": 64,
      "hit": false,
      "t": 142999.85700000043,
      "d": 76.38881249999395,
      "v": 101
    },
    {
      "midi": 61,
      "hit": false,
      "t": 143333.1900000004,
      "d": 100.69434374998673,
      "v": 101
    },
    {
      "midi": 55,
      "hit": false,
      "t": 143333.1900000004,
      "d": 107.63878124998882,
      "v": 98
    },
    {
      "midi": 64,
      "hit": false,
      "t": 143333.1900000004,
      "d": 121.52765624999302,
      "v": 101
    },
    {
      "midi": 45,
      "hit": false,
      "t": 143499.8565000004,
      "d": 90.27768749999814,
      "v": 101
    },
    {
      "midi": 52,
      "hit": false,
      "t": 143499.8565000004,
      "d": 90.27768749999814,
      "v": 96
    },
    {
      "midi": 61,
      "hit": false,
      "t": 143833.1895000004,
      "d": 45.13884374999907,
      "v": 101
    },
    {
      "midi": 55,
      "hit": false,
      "t": 143833.1895000004,
      "d": 55.55549999998766,
      "v": 101
    },
    {
      "midi": 64,
      "hit": false,
      "t": 143833.1895000004,
      "d": 72.91659374997835,
      "v": 101
    },
    {
      "midi": 45,
      "hit": false,
      "t": 144166.52250000037,
      "d": 69.44437499999185,
      "v": 101
    },
    {
      "midi": 52,
      "hit": false,
      "t": 144166.52250000037,
      "d": 83.33324999999604,
      "v": 101
    },
    {
      "midi": 61,
      "hit": false,
      "t": 144333.18900000036,
      "d": 38.19440624999697,
      "v": 88
    },
    {
      "midi": 55,
      "hit": false,
      "t": 144333.18900000036,
      "d": 59.02771875000326,
      "v": 98
    },
    {
      "midi": 64,
      "hit": false,
      "t": 144333.18900000036,
      "d": 62.499937499989755,
      "v": 101
    },
    {
      "midi": 55,
      "hit": false,
      "t": 144499.85550000035,
      "d": 302.0830312499893,
      "v": 101
    },
    {
      "midi": 61,
      "hit": false,
      "t": 144499.85550000035,
      "d": 322.9163437499956,
      "v": 101
    },
    {
      "midi": 64,
      "hit": false,
      "t": 144499.85550000035,
      "d": 326.3885624999821,
      "v": 101
    },
    {
      "midi": 52,
      "hit": false,
      "t": 144833.18850000034,
      "d": 100.69434374998673,
      "v": 98
    },
    {
      "midi": 45,
      "hit": false,
      "t": 144833.18850000034,
      "d": 114.58321874999092,
      "v": 101
    },
    {
      "midi": 65,
      "hit": false,
      "t": 144999.85500000033,
      "d": 20.833312500006286,
      "v": 70
    },
    {
      "midi": 62,
      "hit": false,
      "t": 144999.85500000033,
      "d": 107.63878125001793,
      "v": 101
    },
    {
      "midi": 59,
      "hit": false,
      "t": 144999.85500000033,
      "d": 114.58321875002002,
      "v": 101
    },
    {
      "midi": 64,
      "hit": false,
      "t": 144999.85500000033,
      "d": 118.05543750000652,
      "v": 101
    },
    {
      "midi": 52,
      "hit": false,
      "t": 145333.18800000034,
      "d": 388.88850000000093,
      "v": 101
    },
    {
      "midi": 45,
      "hit": false,
      "t": 145333.18800000034,
      "d": 392.3607187499874,
      "v": 101
    },
    {
      "midi": 55,
      "hit": false,
      "t": 145666.52100000036,
      "d": 69.44437499996275,
      "v": 101
    },
    {
      "midi": 61,
      "hit": false,
      "t": 145666.52100000036,
      "d": 76.38881249996484,
      "v": 101
    },
    {
      "midi": 64,
      "hit": false,
      "t": 145666.52100000036,
      "d": 83.33324999996694,
      "v": 101
    },
    {
      "midi": 55,
      "hit": false,
      "t": 146166.52050000033,
      "d": 62.499937499989755,
      "v": 101
    },
    {
      "midi": 61,
      "hit": false,
      "t": 146166.52050000033,
      "d": 69.44437499999185,
      "v": 101
    },
    {
      "midi": 64,
      "hit": false,
      "t": 146166.52050000033,
      "d": 83.33324999999604,
      "v": 101
    },
    {
      "midi": 61,
      "hit": false,
      "t": 146666.52000000034,
      "d": 180.55537499999627,
      "v": 101
    },
    {
      "midi": 55,
      "hit": false,
      "t": 146666.52000000034,
      "d": 184.02759374998277,
      "v": 101
    },
    {
      "midi": 64,
      "hit": false,
      "t": 146666.52000000034,
      "d": 187.49981249996927,
      "v": 101
    },
    {
      "midi": 45,
      "hit": false,
      "t": 146833.18650000033,
      "d": 104.16656249997322,
      "v": 101
    },
    {
      "midi": 52,
      "hit": false,
      "t": 146833.18650000033,
      "d": 111.11099999997532,
      "v": 88
    },
    {
      "midi": 61,
      "hit": false,
      "t": 146999.8530000003,
      "d": 31.249968749994878,
      "v": 68
    },
    {
      "midi": 64,
      "hit": false,
      "t": 146999.8530000003,
      "d": 41.66662499998347,
      "v": 86
    },
    {
      "midi": 55,
      "hit": false,
      "t": 146999.8530000003,
      "d": 45.138843749969965,
      "v": 69
    },
    {
      "midi": 55,
      "hit": false,
      "t": 147166.51950000026,
      "d": 357.63853125000605,
      "v": 101
    },
    {
      "midi": 64,
      "hit": false,
      "t": 147166.51950000026,
      "d": 388.88850000000093,
      "v": 101
    },
    {
      "midi": 61,
      "hit": false,
      "t": 147166.51950000026,
      "d": 402.7773750000051,
      "v": 101
    },
    {
      "midi": 52,
      "hit": false,
      "t": 147499.85250000027,
      "d": 475.6939687500126,
      "v": 93
    },
    {
      "midi": 45,
      "hit": false,
      "t": 147499.85250000027,
      "d": 489.58284375001676,
      "v": 101
    },
    {
      "midi": 64,
      "hit": false,
      "t": 147666.51900000026,
      "d": 288.1941562500142,
      "v": 101
    },
    {
      "midi": 59,
      "hit": false,
      "t": 147666.51900000026,
      "d": 295.1385937500163,
      "v": 101
    },
    {
      "midi": 62,
      "hit": false,
      "t": 147666.51900000026,
      "d": 302.0830312500184,
      "v": 101
    },
    {
      "midi": 61,
      "hit": false,
      "t": 148333.1850000003,
      "d": 65.97215625000536,
      "v": 101
    },
    {
      "midi": 55,
      "hit": false,
      "t": 148333.1850000003,
      "d": 72.91659375000745,
      "v": 101
    },
    {
      "midi": 64,
      "hit": false,
      "t": 148333.1850000003,
      "d": 76.38881249999395,
      "v": 101
    },
    {
      "midi": 61,
      "hit": false,
      "t": 148666.51800000027,
      "d": 100.69434374998673,
      "v": 101
    },
    {
      "midi": 55,
      "hit": false,
      "t": 148666.51800000027,
      "d": 107.63878124998882,
      "v": 98
    },
    {
      "midi": 64,
      "hit": false,
      "t": 148666.51800000027,
      "d": 121.52765624999302,
      "v": 101
    },
    {
      "midi": 45,
      "hit": false,
      "t": 148833.18450000026,
      "d": 90.27768749999814,
      "v": 101
    },
    {
      "midi": 52,
      "hit": false,
      "t": 148833.18450000026,
      "d": 90.27768749999814,
      "v": 96
    },
    {
      "midi": 61,
      "hit": false,
      "t": 149166.51750000025,
      "d": 45.13884374999907,
      "v": 101
    },
    {
      "midi": 55,
      "hit": false,
      "t": 149166.51750000025,
      "d": 55.55549999998766,
      "v": 101
    },
    {
      "midi": 64,
      "hit": false,
      "t": 149166.51750000025,
      "d": 72.91659374997835,
      "v": 101
    },
    {
      "midi": 45,
      "hit": false,
      "t": 149499.85050000023,
      "d": 69.44437499999185,
      "v": 101
    },
    {
      "midi": 52,
      "hit": false,
      "t": 149499.85050000023,
      "d": 83.33324999999604,
      "v": 101
    },
    {
      "midi": 61,
      "hit": false,
      "t": 149666.51700000023,
      "d": 38.19440624999697,
      "v": 88
    },
    {
      "midi": 55,
      "hit": false,
      "t": 149666.51700000023,
      "d": 59.02771875000326,
      "v": 98
    },
    {
      "midi": 64,
      "hit": false,
      "t": 149666.51700000023,
      "d": 62.499937499989755,
      "v": 101
    },
    {
      "midi": 55,
      "hit": false,
      "t": 149833.18350000022,
      "d": 302.0830312499893,
      "v": 101
    },
    {
      "midi": 61,
      "hit": false,
      "t": 149833.18350000022,
      "d": 322.9163437499956,
      "v": 101
    },
    {
      "midi": 64,
      "hit": false,
      "t": 149833.18350000022,
      "d": 326.3885624999821,
      "v": 101
    },
    {
      "midi": 52,
      "hit": false,
      "t": 150166.5165000002,
      "d": 100.69434374998673,
      "v": 98
    },
    {
      "midi": 45,
      "hit": false,
      "t": 150166.5165000002,
      "d": 114.58321874999092,
      "v": 101
    },
    {
      "midi": 65,
      "hit": false,
      "t": 150333.1830000002,
      "d": 20.833312500006286,
      "v": 70
    },
    {
      "midi": 62,
      "hit": false,
      "t": 150333.1830000002,
      "d": 107.63878125001793,
      "v": 101
    },
    {
      "midi": 59,
      "hit": false,
      "t": 150333.1830000002,
      "d": 114.58321875002002,
      "v": 101
    },
    {
      "midi": 64,
      "hit": false,
      "t": 150333.1830000002,
      "d": 118.05543750000652,
      "v": 101
    },
    {
      "midi": 52,
      "hit": false,
      "t": 150666.5160000002,
      "d": 388.88850000000093,
      "v": 101
    },
    {
      "midi": 45,
      "hit": false,
      "t": 150666.5160000002,
      "d": 392.3607187499874,
      "v": 101
    },
    {
      "midi": 55,
      "hit": false,
      "t": 150999.84900000022,
      "d": 69.44437499996275,
      "v": 101
    },
    {
      "midi": 61,
      "hit": false,
      "t": 150999.84900000022,
      "d": 76.38881249996484,
      "v": 101
    },
    {
      "midi": 64,
      "hit": false,
      "t": 150999.84900000022,
      "d": 83.33324999996694,
      "v": 101
    },
    {
      "midi": 55,
      "hit": false,
      "t": 151499.8485000002,
      "d": 62.499937499989755,
      "v": 101
    },
    {
      "midi": 61,
      "hit": false,
      "t": 151499.8485000002,
      "d": 69.44437499999185,
      "v": 101
    },
    {
      "midi": 64,
      "hit": false,
      "t": 151499.8485000002,
      "d": 83.33324999999604,
      "v": 101
    },
    {
      "midi": 61,
      "hit": false,
      "t": 151999.8480000002,
      "d": 180.55537499999627,
      "v": 101
    },
    {
      "midi": 55,
      "hit": false,
      "t": 151999.8480000002,
      "d": 184.02759374998277,
      "v": 101
    },
    {
      "midi": 64,
      "hit": false,
      "t": 151999.8480000002,
      "d": 187.49981249996927,
      "v": 101
    },
    {
      "midi": 45,
      "hit": false,
      "t": 152166.5145000002,
      "d": 104.16656249997322,
      "v": 101
    },
    {
      "midi": 52,
      "hit": false,
      "t": 152166.5145000002,
      "d": 111.11099999997532,
      "v": 88
    },
    {
      "midi": 61,
      "hit": false,
      "t": 152333.18100000016,
      "d": 31.249968749994878,
      "v": 68
    },
    {
      "midi": 64,
      "hit": false,
      "t": 152333.18100000016,
      "d": 41.66662499998347,
      "v": 86
    },
    {
      "midi": 55,
      "hit": false,
      "t": 152333.18100000016,
      "d": 45.138843749969965,
      "v": 69
    },
    {
      "midi": 55,
      "hit": false,
      "t": 152499.84750000012,
      "d": 357.63853125000605,
      "v": 101
    },
    {
      "midi": 64,
      "hit": false,
      "t": 152499.84750000012,
      "d": 388.88850000000093,
      "v": 101
    },
    {
      "midi": 61,
      "hit": false,
      "t": 152499.84750000012,
      "d": 402.7773750000051,
      "v": 101
    },
    {
      "midi": 52,
      "hit": false,
      "t": 152833.18050000013,
      "d": 475.6939687500126,
      "v": 93
    },
    {
      "midi": 45,
      "hit": false,
      "t": 152833.18050000013,
      "d": 489.58284375001676,
      "v": 101
    },
    {
      "midi": 64,
      "hit": false,
      "t": 152999.84700000013,
      "d": 288.1941562500142,
      "v": 101
    },
    {
      "midi": 59,
      "hit": false,
      "t": 152999.84700000013,
      "d": 295.1385937500163,
      "v": 101
    },
    {
      "midi": 62,
      "hit": false,
      "t": 152999.84700000013,
      "d": 302.0830312500184,
      "v": 101
    },
    {
      "midi": 61,
      "hit": false,
      "t": 153666.51300000015,
      "d": 65.97215625000536,
      "v": 101
    },
    {
      "midi": 55,
      "hit": false,
      "t": 153666.51300000015,
      "d": 72.91659375000745,
      "v": 101
    },
    {
      "midi": 64,
      "hit": false,
      "t": 153666.51300000015,
      "d": 76.38881249999395,
      "v": 101
    },
    {
      "midi": 61,
      "hit": false,
      "t": 153999.84600000014,
      "d": 100.69434374998673,
      "v": 101
    },
    {
      "midi": 55,
      "hit": false,
      "t": 153999.84600000014,
      "d": 107.63878124998882,
      "v": 98
    },
    {
      "midi": 64,
      "hit": false,
      "t": 153999.84600000014,
      "d": 121.52765624999302,
      "v": 101
    },
    {
      "midi": 45,
      "hit": false,
      "t": 154166.51250000013,
      "d": 90.27768749999814,
      "v": 101
    },
    {
      "midi": 52,
      "hit": false,
      "t": 154166.51250000013,
      "d": 90.27768749999814,
      "v": 96
    },
    {
      "midi": 61,
      "hit": false,
      "t": 154499.8455000001,
      "d": 45.13884374999907,
      "v": 101
    },
    {
      "midi": 55,
      "hit": false,
      "t": 154499.8455000001,
      "d": 55.55549999998766,
      "v": 101
    },
    {
      "midi": 64,
      "hit": false,
      "t": 154499.8455000001,
      "d": 72.91659374997835,
      "v": 101
    },
    {
      "midi": 45,
      "hit": false,
      "t": 154833.1785000001,
      "d": 69.44437499999185,
      "v": 101
    },
    {
      "midi": 52,
      "hit": false,
      "t": 154833.1785000001,
      "d": 83.33324999999604,
      "v": 101
    },
    {
      "midi": 61,
      "hit": false,
      "t": 154999.8450000001,
      "d": 38.19440624999697,
      "v": 88
    },
    {
      "midi": 55,
      "hit": false,
      "t": 154999.8450000001,
      "d": 59.02771875000326,
      "v": 98
    },
    {
      "midi": 64,
      "hit": false,
      "t": 154999.8450000001,
      "d": 62.499937499989755,
      "v": 101
    },
    {
      "midi": 55,
      "hit": false,
      "t": 155166.51150000008,
      "d": 302.0830312499893,
      "v": 101
    },
    {
      "midi": 61,
      "hit": false,
      "t": 155166.51150000008,
      "d": 322.9163437499956,
      "v": 101
    },
    {
      "midi": 64,
      "hit": false,
      "t": 155166.51150000008,
      "d": 326.3885624999821,
      "v": 101
    },
    {
      "midi": 52,
      "hit": false,
      "t": 155499.84450000006,
      "d": 100.69434374998673,
      "v": 98
    },
    {
      "midi": 45,
      "hit": false,
      "t": 155499.84450000006,
      "d": 114.58321874999092,
      "v": 101
    },
    {
      "midi": 65,
      "hit": false,
      "t": 155666.51100000006,
      "d": 20.833312500006286,
      "v": 70
    },
    {
      "midi": 62,
      "hit": false,
      "t": 155666.51100000006,
      "d": 107.63878125001793,
      "v": 101
    },
    {
      "midi": 59,
      "hit": false,
      "t": 155666.51100000006,
      "d": 114.58321875002002,
      "v": 101
    },
    {
      "midi": 64,
      "hit": false,
      "t": 155666.51100000006,
      "d": 118.05543750000652,
      "v": 101
    },
    {
      "midi": 52,
      "hit": false,
      "t": 155999.84400000007,
      "d": 4006.9404374999867,
      "v": 101
    },
    {
      "midi": 57,
      "hit": false,
      "t": 155999.84400000007,
      "d": 4062.4959374999744,
      "v": 101
    },
    {
      "midi": 45,
      "hit": false,
      "t": 155999.84400000007,
      "d": 4145.82918749997,
      "v": 101
    },
    {
      "midi": 64,
      "hit": false,
      "t": 155999.84400000007,
      "d": 4159.718062499975,
      "v": 101
    },
    {
      "midi": 69,
      "hit": false,
      "t": 155999.84400000007,
      "d": 4222.217999999964,
      "v": 101
    }
  ]
}