{
  "jsonPath": "Rock/Country Rock/Vince Gill/when-love-finds-you.json",
  "path": "Rock\\Country Rock\\Vince Gill\\When Love Finds You.mid",
  "name": "When Love Finds You",
  "difficulty": "Advanced",
  "bpm": 77.000077000077,
  "notes": [
    {
      "midi": 70,
      "hit": false,
      "t": 3124.996875,
      "d": 251.62312500000007,
      "v": 118
    },
    {
      "midi": 82,
      "hit": false,
      "t": 3380.6784374999997,
      "d": 255.68156249999993,
      "v": 96
    },
    {
      "midi": 81,
      "hit": false,
      "t": 3640.4184374999995,
      "d": 255.68156249999993,
      "v": 95
    },
    {
      "midi": 51,
      "hit": false,
      "t": 3904.2168749999996,
      "d": 186.68812500000013,
      "v": 82
    },
    {
      "midi": 58,
      "hit": false,
      "t": 3916.3921874999996,
      "d": 174.5128125000001,
      "v": 87
    },
    {
      "midi": 79,
      "hit": false,
      "t": 3916.3921874999996,
      "d": 174.5128125000001,
      "v": 104
    },
    {
      "midi": 70,
      "hit": false,
      "t": 3920.4506249999995,
      "d": 170.45437500000025,
      "v": 100
    },
    {
      "midi": 67,
      "hit": false,
      "t": 3920.4506249999995,
      "d": 365.25937500000055,
      "v": 87
    },
    {
      "midi": 70,
      "hit": false,
      "t": 4683.436875,
      "d": 381.49312499999996,
      "v": 98
    },
    {
      "midi": 77,
      "hit": false,
      "t": 4687.4953125,
      "d": 182.62968749999982,
      "v": 94
    },
    {
      "midi": 50,
      "hit": false,
      "t": 4691.55375,
      "d": 178.57124999999996,
      "v": 92
    },
    {
      "midi": 58,
      "hit": false,
      "t": 4691.55375,
      "d": 178.57124999999996,
      "v": 86
    },
    {
      "midi": 65,
      "hit": false,
      "t": 4703.7290625,
      "d": 361.2009375000007,
      "v": 87
    },
    {
      "midi": 46,
      "hit": false,
      "t": 5470.77375,
      "d": 190.74656249999953,
      "v": 87
    },
    {
      "midi": 58,
      "hit": false,
      "t": 5470.77375,
      "d": 190.74656249999953,
      "v": 82
    },
    {
      "midi": 70,
      "hit": false,
      "t": 5478.890625,
      "d": 182.62968749999982,
      "v": 100
    },
    {
      "midi": 74,
      "hit": false,
      "t": 5482.9490625,
      "d": 369.3178124999995,
      "v": 103
    },
    {
      "midi": 65,
      "hit": false,
      "t": 5482.9490625,
      "d": 564.1228124999998,
      "v": 95
    },
    {
      "midi": 72,
      "hit": false,
      "t": 5722.396874999999,
      "d": 186.68812499999967,
      "v": 97
    },
    {
      "midi": 70,
      "hit": false,
      "t": 5978.078437499999,
      "d": 190.74656250000044,
      "v": 104
    },
    {
      "midi": 53,
      "hit": false,
      "t": 6237.8184375,
      "d": 190.74656249999862,
      "v": 25
    },
    {
      "midi": 45,
      "hit": false,
      "t": 6245.9353125,
      "d": 182.6296874999989,
      "v": 88
    },
    {
      "midi": 65,
      "hit": false,
      "t": 6258.110624999999,
      "d": 182.6296874999989,
      "v": 99
    },
    {
      "midi": 69,
      "hit": false,
      "t": 6258.110624999999,
      "d": 182.6296874999989,
      "v": 106
    },
    {
      "midi": 72,
      "hit": false,
      "t": 6258.110624999999,
      "d": 182.6296874999989,
      "v": 108
    },
    {
      "midi": 60,
      "hit": false,
      "t": 6262.169062499999,
      "d": 174.5128124999992,
      "v": 91
    },
    {
      "midi": 50,
      "hit": false,
      "t": 7012.979999999999,
      "d": 190.74656250000044,
      "v": 92
    },
    {
      "midi": 58,
      "hit": false,
      "t": 7012.979999999999,
      "d": 190.74656250000044,
      "v": 55
    },
    {
      "midi": 62,
      "hit": false,
      "t": 7012.979999999999,
      "d": 190.74656250000044,
      "v": 94
    },
    {
      "midi": 67,
      "hit": false,
      "t": 7012.979999999999,
      "d": 190.74656250000044,
      "v": 104
    },
    {
      "midi": 70,
      "hit": false,
      "t": 7012.979999999999,
      "d": 190.74656250000044,
      "v": 92
    },
    {
      "midi": 43,
      "hit": false,
      "t": 7012.979999999999,
      "d": 381.4931250000009,
      "v": 68
    },
    {
      "midi": 58,
      "hit": false,
      "t": 7784.083124999999,
      "d": 198.86343750000015,
      "v": 104
    },
    {
      "midi": 43,
      "hit": false,
      "t": 8047.8815625,
      "d": 190.74656249999953,
      "v": 88
    },
    {
      "midi": 70,
      "hit": false,
      "t": 8055.998437499999,
      "d": 190.74656249999953,
      "v": 102
    },
    {
      "midi": 41,
      "hit": false,
      "t": 8311.679999999998,
      "d": 190.74656250000044,
      "v": 100
    },
    {
      "midi": 69,
      "hit": false,
      "t": 8311.679999999998,
      "d": 194.8050000000003,
      "v": 103
    },
    {
      "midi": 67,
      "hit": false,
      "t": 8575.478437499998,
      "d": 190.74656249999862,
      "v": 111
    },
    {
      "midi": 39,
      "hit": false,
      "t": 8579.536874999998,
      "d": 186.68812499999876,
      "v": 112
    },
    {
      "midi": 63,
      "hit": false,
      "t": 8583.595312499998,
      "d": 182.6296874999989,
      "v": 84
    },
    {
      "midi": 58,
      "hit": false,
      "t": 8583.595312499998,
      "d": 377.4346874999992,
      "v": 89
    },
    {
      "midi": 38,
      "hit": false,
      "t": 9342.523124999998,
      "d": 198.86343749999833,
      "v": 79
    },
    {
      "midi": 46,
      "hit": false,
      "t": 9346.581562499998,
      "d": 194.80499999999847,
      "v": 66
    },
    {
      "midi": 60,
      "hit": false,
      "t": 9354.698437499997,
      "d": 190.74656249999862,
      "v": 100
    },
    {
      "midi": 65,
      "hit": false,
      "t": 9354.698437499997,
      "d": 190.74656249999862,
      "v": 103
    },
    {
      "midi": 58,
      "hit": false,
      "t": 9362.815312499997,
      "d": 182.6296874999989,
      "v": 91
    },
    {
      "midi": 53,
      "hit": false,
      "t": 9370.932187499997,
      "d": 174.5128124999992,
      "v": 59
    },
    {
      "midi": 62,
      "hit": false,
      "t": 9370.932187499997,
      "d": 174.5128124999992,
      "v": 88
    },
    {
      "midi": 46,
      "hit": false,
      "t": 10125.801562499995,
      "d": 194.8050000000003,
      "v": 79
    },
    {
      "midi": 34,
      "hit": false,
      "t": 10129.859999999995,
      "d": 190.74656250000044,
      "v": 82
    },
    {
      "midi": 58,
      "hit": false,
      "t": 10129.859999999995,
      "d": 190.74656250000044,
      "v": 75
    },
    {
      "midi": 62,
      "hit": false,
      "t": 10129.859999999995,
      "d": 381.49312499999905,
      "v": 97
    },
    {
      "midi": 53,
      "hit": false,
      "t": 10129.859999999995,
      "d": 584.414999999999,
      "v": 90
    },
    {
      "midi": 60,
      "hit": false,
      "t": 10389.599999999995,
      "d": 186.68812499999876,
      "v": 91
    },
    {
      "midi": 58,
      "hit": false,
      "t": 10637.164687499993,
      "d": 194.8050000000003,
      "v": 84
    },
    {
      "midi": 43,
      "hit": false,
      "t": 10913.138437499994,
      "d": 385.5515625000007,
      "v": 77
    },
    {
      "midi": 57,
      "hit": false,
      "t": 10917.196874999994,
      "d": 186.68812500000058,
      "v": 98
    },
    {
      "midi": 53,
      "hit": false,
      "t": 10917.196874999994,
      "d": 381.4931250000009,
      "v": 91
    },
    {
      "midi": 60,
      "hit": false,
      "t": 10921.255312499994,
      "d": 182.62968750000073,
      "v": 100
    },
    {
      "midi": 41,
      "hit": false,
      "t": 11700.475312499995,
      "d": 377.4346874999992,
      "v": 81
    },
    {
      "midi": 58,
      "hit": false,
      "t": 11704.533749999995,
      "d": 178.57124999999905,
      "v": 77
    },
    {
      "midi": 51,
      "hit": false,
      "t": 11708.592187499995,
      "d": 373.37624999999935,
      "v": 84
    },
    {
      "midi": 55,
      "hit": false,
      "t": 11712.650624999995,
      "d": 174.5128124999992,
      "v": 91
    },
    {
      "midi": 51,
      "hit": false,
      "t": 12479.695312499995,
      "d": 381.49312499999905,
      "v": 67
    },
    {
      "midi": 53,
      "hit": false,
      "t": 12735.376874999994,
      "d": 186.68812499999876,
      "v": 88
    },
    {
      "midi": 58,
      "hit": false,
      "t": 12978.883124999993,
      "d": 194.8050000000003,
      "v": 91
    },
    {
      "midi": 34,
      "hit": false,
      "t": 13254.856874999994,
      "d": 1745.1281249999993,
      "v": 75
    },
    {
      "midi": 46,
      "hit": false,
      "t": 13258.915312499994,
      "d": 762.9862499999981,
      "v": 53
    },
    {
      "midi": 50,
      "hit": false,
      "t": 13262.973749999994,
      "d": 373.37624999999935,
      "v": 83
    },
    {
      "midi": 58,
      "hit": false,
      "t": 13262.973749999994,
      "d": 373.37624999999935,
      "v": 89
    },
    {
      "midi": 53,
      "hit": false,
      "t": 13271.090624999993,
      "d": 373.37624999999935,
      "v": 90
    },
    {
      "midi": 53,
      "hit": false,
      "t": 14034.076874999992,
      "d": 381.4931250000009,
      "v": 68
    },
    {
      "midi": 50,
      "hit": false,
      "t": 14038.135312499991,
      "d": 190.74656250000044,
      "v": 62
    },
    {
      "midi": 58,
      "hit": false,
      "t": 14042.193749999991,
      "d": 377.434687500001,
      "v": 65
    },
    {
      "midi": 50,
      "hit": false,
      "t": 14537.323124999992,
      "d": 194.8050000000003,
      "v": 79
    },
    {
      "midi": 58,
      "hit": false,
      "t": 14813.296874999993,
      "d": 381.4931250000009,
      "v": 91
    },
    {
      "midi": 51,
      "hit": false,
      "t": 14813.296874999993,
      "d": 576.2981250000012,
      "v": 96
    },
    {
      "midi": 46,
      "hit": false,
      "t": 14821.413749999992,
      "d": 182.62968750000073,
      "v": 69
    },
    {
      "midi": 53,
      "hit": false,
      "t": 15576.283124999994,
      "d": 588.4734375000007,
      "v": 88
    },
    {
      "midi": 34,
      "hit": false,
      "t": 15576.283124999994,
      "d": 2146.913437500003,
      "v": 59
    },
    {
      "midi": 58,
      "hit": false,
      "t": 15580.341562499994,
      "d": 389.6100000000006,
      "v": 100
    },
    {
      "midi": 50,
      "hit": false,
      "t": 15584.399999999994,
      "d": 580.356562500001,
      "v": 91
    },
    {
      "midi": 46,
      "hit": false,
      "t": 15584.399999999994,
      "d": 2134.7381250000035,
      "v": 66
    },
    {
      "midi": 53,
      "hit": false,
      "t": 16359.561562499995,
      "d": 389.6100000000006,
      "v": 88
    },
    {
      "midi": 50,
      "hit": false,
      "t": 16363.619999999995,
      "d": 186.68812500000058,
      "v": 81
    },
    {
      "midi": 58,
      "hit": false,
      "t": 16363.619999999995,
      "d": 381.4931250000009,
      "v": 96
    },
    {
      "midi": 50,
      "hit": false,
      "t": 16870.924687499995,
      "d": 194.8050000000003,
      "v": 86
    },
    {
      "midi": 58,
      "hit": false,
      "t": 17142.839999999997,
      "d": 381.4931250000009,
      "v": 81
    },
    {
      "midi": 51,
      "hit": false,
      "t": 17142.839999999997,
      "d": 584.4150000000009,
      "v": 87
    },
    {
      "midi": 58,
      "hit": false,
      "t": 17930.176874999997,
      "d": 373.3762499999975,
      "v": 100
    },
    {
      "midi": 62,
      "hit": false,
      "t": 17930.176874999997,
      "d": 405.84374999999636,
      "v": 97
    },
    {
      "midi": 60,
      "hit": false,
      "t": 17934.235312499997,
      "d": 397.72687499999665,
      "v": 99
    },
    {
      "midi": 46,
      "hit": false,
      "t": 17938.293749999997,
      "d": 803.5706249999967,
      "v": 84
    },
    {
      "midi": 53,
      "hit": false,
      "t": 17942.352187499997,
      "d": 389.60999999999694,
      "v": 100
    },
    {
      "midi": 34,
      "hit": false,
      "t": 17950.469062499997,
      "d": 799.5121874999968,
      "v": 77
    },
    {
      "midi": 58,
      "hit": false,
      "t": 18709.396874999995,
      "d": 365.2593749999978,
      "v": 69
    },
    {
      "midi": 62,
      "hit": false,
      "t": 18713.455312499995,
      "d": 389.60999999999694,
      "v": 87
    },
    {
      "midi": 60,
      "hit": false,
      "t": 18717.513749999995,
      "d": 373.3762499999975,
      "v": 77
    },
    {
      "midi": 53,
      "hit": false,
      "t": 18725.630624999994,
      "d": 357.1424999999981,
      "v": 92
    },
    {
      "midi": 58,
      "hit": false,
      "t": 19496.733749999992,
      "d": 393.66843750000044,
      "v": 91
    },
    {
      "midi": 50,
      "hit": false,
      "t": 19504.850624999992,
      "d": 487.0125000000007,
      "v": 92
    },
    {
      "midi": 60,
      "hit": false,
      "t": 19508.90906249999,
      "d": 393.66843750000044,
      "v": 87
    },
    {
      "midi": 62,
      "hit": false,
      "t": 19508.90906249999,
      "d": 393.66843750000044,
      "v": 94
    },
    {
      "midi": 53,
      "hit": false,
      "t": 19512.96749999999,
      "d": 397.7268750000003,
      "v": 99
    },
    {
      "midi": 38,
      "hit": false,
      "t": 19517.02593749999,
      "d": 365.25937500000146,
      "v": 84
    },
    {
      "midi": 39,
      "hit": false,
      "t": 20271.895312499993,
      "d": 1489.4465624999903,
      "v": 84
    },
    {
      "midi": 46,
      "hit": false,
      "t": 20275.953749999993,
      "d": 1465.0959374999911,
      "v": 84
    },
    {
      "midi": 55,
      "hit": false,
      "t": 20280.012187499993,
      "d": 539.7721874999952,
      "v": 87
    },
    {
      "midi": 53,
      "hit": false,
      "t": 20284.070624999993,
      "d": 527.5968749999956,
      "v": 69
    },
    {
      "midi": 63,
      "hit": false,
      "t": 20288.129062499993,
      "d": 503.2462499999965,
      "v": 91
    },
    {
      "midi": 58,
      "hit": false,
      "t": 20288.129062499993,
      "d": 511.3631249999962,
      "v": 77
    },
    {
      "midi": 55,
      "hit": false,
      "t": 21047.056874999987,
      "d": 446.42812499999854,
      "v": 103
    },
    {
      "midi": 58,
      "hit": false,
      "t": 21047.056874999987,
      "d": 446.42812499999854,
      "v": 100
    },
    {
      "midi": 63,
      "hit": false,
      "t": 21055.173749999987,
      "d": 438.31124999999884,
      "v": 100
    },
    {
      "midi": 58,
      "hit": false,
      "t": 21830.335312499985,
      "d": 442.3696874999987,
      "v": 114
    },
    {
      "midi": 63,
      "hit": false,
      "t": 21838.452187499985,
      "d": 434.252812499999,
      "v": 104
    },
    {
      "midi": 55,
      "hit": false,
      "t": 21842.510624999984,
      "d": 389.6100000000006,
      "v": 114
    },
    {
      "midi": 63,
      "hit": false,
      "t": 22613.613749999982,
      "d": 349.0256249999984,
      "v": 96
    },
    {
      "midi": 55,
      "hit": false,
      "t": 22617.672187499982,
      "d": 292.20750000000044,
      "v": 110
    },
    {
      "midi": 60,
      "hit": false,
      "t": 22621.730624999982,
      "d": 320.6165624999994,
      "v": 107
    },
    {
      "midi": 48,
      "hit": false,
      "t": 22633.90593749998,
      "d": 458.6034374999981,
      "v": 99
    },
    {
      "midi": 36,
      "hit": false,
      "t": 22637.96437499998,
      "d": 478.8956249999974,
      "v": 98
    },
    {
      "midi": 63,
      "hit": false,
      "t": 23405.00906249998,
      "d": 312.4996874999997,
      "v": 87
    },
    {
      "midi": 60,
      "hit": false,
      "t": 23417.18437499998,
      "d": 267.8568750000013,
      "v": 103
    },
    {
      "midi": 55,
      "hit": false,
      "t": 23421.24281249998,
      "d": 312.4996874999997,
      "v": 88
    },
    {
      "midi": 41,
      "hit": false,
      "t": 24143.64468749998,
      "d": 328.7334374999991,
      "v": 103
    },
    {
      "midi": 55,
      "hit": false,
      "t": 24147.703124999978,
      "d": 296.2659375000003,
      "v": 97
    },
    {
      "midi": 63,
      "hit": false,
      "t": 24147.703124999978,
      "d": 300.32437500000015,
      "v": 100
    },
    {
      "midi": 53,
      "hit": false,
      "t": 24155.819999999978,
      "d": 308.44124999999985,
      "v": 88
    },
    {
      "midi": 58,
      "hit": false,
      "t": 24155.819999999978,
      "d": 560.0643749999981,
      "v": 91
    },
    {
      "midi": 58,
      "hit": false,
      "t": 24918.806249999976,
      "d": 458.60343749999447,
      "v": 92
    },
    {
      "midi": 46,
      "hit": false,
      "t": 24918.806249999976,
      "d": 990.25874999999,
      "v": 78
    },
    {
      "midi": 60,
      "hit": false,
      "t": 24926.923124999976,
      "d": 393.6684374999968,
      "v": 97
    },
    {
      "midi": 62,
      "hit": false,
      "t": 24935.039999999975,
      "d": 409.9021874999962,
      "v": 91
    },
    {
      "midi": 53,
      "hit": false,
      "t": 24935.039999999975,
      "d": 572.239687499994,
      "v": 100
    },
    {
      "midi": 34,
      "hit": false,
      "t": 24935.039999999975,
      "d": 1168.8299999999872,
      "v": 79
    },
    {
      "midi": 58,
      "hit": false,
      "t": 25750.785937499968,
      "d": 174.51281249999738,
      "v": 102
    },
    {
      "midi": 53,
      "hit": false,
      "t": 25762.961249999968,
      "d": 170.45437499999753,
      "v": 93
    },
    {
      "midi": 60,
      "hit": false,
      "t": 25762.961249999968,
      "d": 170.45437499999753,
      "v": 94
    },
    {
      "midi": 62,
      "hit": false,
      "t": 25767.019687499967,
      "d": 190.7465624999968,
      "v": 85
    },
    {
      "midi": 53,
      "hit": false,
      "t": 26221.564687499962,
      "d": 162.33750000000146,
      "v": 91
    },
    {
      "midi": 46,
      "hit": false,
      "t": 26501.596874999963,
      "d": 89.28562500000044,
      "v": 108
    },
    {
      "midi": 55,
      "hit": false,
      "t": 26501.596874999963,
      "d": 89.28562500000044,
      "v": 114
    },
    {
      "midi": 58,
      "hit": false,
      "t": 26741.04468749996,
      "d": 73.05187500000102,
      "v": 121
    },
    {
      "midi": 60,
      "hit": false,
      "t": 26996.726249999963,
      "d": 101.4609375,
      "v": 118
    },
    {
      "midi": 58,
      "hit": false,
      "t": 27272.699999999964,
      "d": 344.96718749999854,
      "v": 112
    },
    {
      "midi": 62,
      "hit": false,
      "t": 27280.816874999964,
      "d": 316.55812499999956,
      "v": 111
    },
    {
      "midi": 46,
      "hit": false,
      "t": 27288.933749999964,
      "d": 284.0906250000007,
      "v": 91
    },
    {
      "midi": 53,
      "hit": false,
      "t": 27288.933749999964,
      "d": 308.44124999999985,
      "v": 103
    },
    {
      "midi": 34,
      "hit": false,
      "t": 27297.050624999963,
      "d": 259.7400000000016,
      "v": 92
    },
    {
      "midi": 58,
      "hit": false,
      "t": 28051.919999999962,
      "d": 247.5646874999984,
      "v": 116
    },
    {
      "midi": 55,
      "hit": false,
      "t": 28055.97843749996,
      "d": 320.6165624999994,
      "v": 99
    },
    {
      "midi": 63,
      "hit": false,
      "t": 28060.03687499996,
      "d": 263.7984374999978,
      "v": 94
    },
    {
      "midi": 48,
      "hit": false,
      "t": 28060.03687499996,
      "d": 316.55812499999956,
      "v": 99
    },
    {
      "midi": 36,
      "hit": false,
      "t": 28072.21218749996,
      "d": 239.4478124999987,
      "v": 103
    },
    {
      "midi": 38,
      "hit": false,
      "t": 28847.373749999962,
      "d": 263.7984374999978,
      "v": 103
    },
    {
      "midi": 62,
      "hit": false,
      "t": 28847.373749999962,
      "d": 332.791874999999,
      "v": 106
    },
    {
      "midi": 50,
      "hit": false,
      "t": 28851.432187499962,
      "d": 369.3178124999977,
      "v": 94
    },
    {
      "midi": 58,
      "hit": false,
      "t": 28863.607499999962,
      "d": 312.4996874999997,
      "v": 104
    },
    {
      "midi": 53,
      "hit": false,
      "t": 28863.607499999962,
      "d": 353.08406249999825,
      "v": 106
    },
    {
      "midi": 58,
      "hit": false,
      "t": 29614.41843749996,
      "d": 405.84375,
      "v": 102
    },
    {
      "midi": 63,
      "hit": false,
      "t": 29618.47687499996,
      "d": 381.4931250000009,
      "v": 94
    },
    {
      "midi": 39,
      "hit": false,
      "t": 29618.47687499996,
      "d": 1554.3815624999952,
      "v": 82
    },
    {
      "midi": 46,
      "hit": false,
      "t": 29622.53531249996,
      "d": 815.7459374999999,
      "v": 87
    },
    {
      "midi": 53,
      "hit": false,
      "t": 29626.59374999996,
      "d": 365.25937500000146,
      "v": 97
    },
    {
      "midi": 55,
      "hit": false,
      "t": 29626.59374999996,
      "d": 389.6100000000006,
      "v": 107
    },
    {
      "midi": 58,
      "hit": false,
      "t": 30393.63843749996,
      "d": 353.08406249999825,
      "v": 82
    },
    {
      "midi": 63,
      "hit": false,
      "t": 30397.69687499996,
      "d": 361.20093749999796,
      "v": 84
    },
    {
      "midi": 55,
      "hit": false,
      "t": 30401.75531249996,
      "d": 349.0256249999984,
      "v": 88
    },
    {
      "midi": 51,
      "hit": false,
      "t": 30896.884687499958,
      "d": 247.5646874999984,
      "v": 114
    },
    {
      "midi": 55,
      "hit": false,
      "t": 31160.683124999956,
      "d": 129.86999999999898,
      "v": 113
    },
    {
      "midi": 58,
      "hit": false,
      "t": 31400.130937499955,
      "d": 93.34406250000029,
      "v": 108
    },
    {
      "midi": 58,
      "hit": false,
      "t": 31911.494062499954,
      "d": 547.8890625000022,
      "v": 87
    },
    {
      "midi": 54,
      "hit": false,
      "t": 31919.610937499954,
      "d": 568.1812500000015,
      "v": 100
    },
    {
      "midi": 44,
      "hit": false,
      "t": 31919.610937499954,
      "d": 1359.5765625000095,
      "v": 92
    },
    {
      "midi": 60,
      "hit": false,
      "t": 31931.786249999954,
      "d": 450.48656250000204,
      "v": 92
    },
    {
      "midi": 58,
      "hit": false,
      "t": 32698.830937499955,
      "d": 316.55812500000684,
      "v": 87
    },
    {
      "midi": 54,
      "hit": false,
      "t": 32702.889374999955,
      "d": 300.3243750000038,
      "v": 100
    },
    {
      "midi": 60,
      "hit": false,
      "t": 32711.006249999955,
      "d": 271.91531250000116,
      "v": 90
    },
    {
      "midi": 58,
      "hit": false,
      "t": 33482.10937499996,
      "d": 377.43468750001193,
      "v": 89
    },
    {
      "midi": 54,
      "hit": false,
      "t": 33494.28468749997,
      "d": 336.8503125000061,
      "v": 102
    },
    {
      "midi": 60,
      "hit": false,
      "t": 33498.34312499997,
      "d": 381.49312500000815,
      "v": 92
    },
    {
      "midi": 58,
      "hit": false,
      "t": 34293.79687499998,
      "d": 442.3696875000169,
      "v": 87
    },
    {
      "midi": 46,
      "hit": false,
      "t": 34297.85531249998,
      "d": 909.0900000000183,
      "v": 84
    },
    {
      "midi": 62,
      "hit": false,
      "t": 34301.913749999985,
      "d": 353.08406250000553,
      "v": 99
    },
    {
      "midi": 53,
      "hit": false,
      "t": 34301.913749999985,
      "d": 373.37625000000844,
      "v": 97
    },
    {
      "midi": 34,
      "hit": false,
      "t": 34310.030624999985,
      "d": 1501.6218750000262,
      "v": 75
    },
    {
      "midi": 58,
      "hit": false,
      "t": 35052.7246875,
      "d": 304.3828125000073,
      "v": 104
    },
    {
      "midi": 62,
      "hit": false,
      "t": 35056.783125,
      "d": 288.1490625000006,
      "v": 99
    },
    {
      "midi": 53,
      "hit": false,
      "t": 35064.9,
      "d": 227.27249999999913,
      "v": 95
    },
    {
      "midi": 46,
      "hit": false,
      "t": 35572.20468750001,
      "d": 259.74000000000524,
      "v": 102
    },
    {
      "midi": 53,
      "hit": false,
      "t": 35827.88625000001,
      "d": 178.57125000000087,
      "v": 115
    },
    {
      "midi": 62,
      "hit": false,
      "t": 36107.91843750001,
      "d": 93.34406250000029,
      "v": 103
    },
    {
      "midi": 63,
      "hit": false,
      "t": 36355.48312500001,
      "d": 81.16874999999709,
      "v": 116
    },
    {
      "midi": 58,
      "hit": false,
      "t": 36619.281562500015,
      "d": 547.8890625000131,
      "v": 118
    },
    {
      "midi": 65,
      "hit": false,
      "t": 36631.45687500002,
      "d": 487.01250000000437,
      "v": 110
    },
    {
      "midi": 60,
      "hit": false,
      "t": 36631.45687500002,
      "d": 531.6553125000064,
      "v": 113
    },
    {
      "midi": 62,
      "hit": false,
      "t": 36635.51531250002,
      "d": 515.4215624999997,
      "v": 107
    },
    {
      "midi": 50,
      "hit": false,
      "t": 36643.63218750002,
      "d": 706.1681250000038,
      "v": 103
    },
    {
      "midi": 38,
      "hit": false,
      "t": 36647.690625000025,
      "d": 714.2850000000035,
      "v": 97
    },
    {
      "midi": 62,
      "hit": false,
      "t": 37370.09250000003,
      "d": 422.0775000000067,
      "v": 97
    },
    {
      "midi": 57,
      "hit": false,
      "t": 37374.15093750003,
      "d": 418.0190625000032,
      "v": 95
    },
    {
      "midi": 58,
      "hit": false,
      "t": 37374.15093750003,
      "d": 418.0190625000032,
      "v": 102
    },
    {
      "midi": 65,
      "hit": false,
      "t": 37378.209375000035,
      "d": 405.84375,
      "v": 100
    },
    {
      "midi": 62,
      "hit": false,
      "t": 38193.95531250003,
      "d": 389.61000000000786,
      "v": 94
    },
    {
      "midi": 65,
      "hit": false,
      "t": 38198.013750000035,
      "d": 405.8437500000073,
      "v": 99
    },
    {
      "midi": 56,
      "hit": false,
      "t": 38202.07218750004,
      "d": 393.6684375000041,
      "v": 100
    },
    {
      "midi": 58,
      "hit": false,
      "t": 38202.07218750004,
      "d": 401.7853125000038,
      "v": 94
    },
    {
      "midi": 63,
      "hit": false,
      "t": 38969.11687500004,
      "d": 511.36312500001077,
      "v": 94
    },
    {
      "midi": 58,
      "hit": false,
      "t": 38969.11687500004,
      "d": 572.2396875000122,
      "v": 106
    },
    {
      "midi": 51,
      "hit": false,
      "t": 38973.17531250005,
      "d": 884.7393750000119,
      "v": 87
    },
    {
      "midi": 55,
      "hit": false,
      "t": 38977.23375000005,
      "d": 511.3631250000035,
      "v": 95
    },
    {
      "midi": 39,
      "hit": false,
      "t": 38981.292187500054,
      "d": 1530.0309374999997,
      "v": 81
    },
    {
      "midi": 58,
      "hit": false,
      "t": 39715.86937500005,
      "d": 418.0190625000032,
      "v": 86
    },
    {
      "midi": 63,
      "hit": false,
      "t": 39728.044687500056,
      "d": 1176.9468750000015,
      "v": 84
    },
    {
      "midi": 55,
      "hit": false,
      "t": 39732.10312500006,
      "d": 393.6684374999968,
      "v": 84
    },
    {
      "midi": 51,
      "hit": false,
      "t": 40231.29093750005,
      "d": 247.56468750000204,
      "v": 112
    },
    {
      "midi": 55,
      "hit": false,
      "t": 40503.206250000054,
      "d": 227.27249999999913,
      "v": 114
    },
    {
      "midi": 58,
      "hit": false,
      "t": 40750.770937500056,
      "d": 154.22062500000175,
      "v": 118
    },
    {
      "midi": 58,
      "hit": false,
      "t": 41314.89375000006,
      "d": 397.72687500000757,
      "v": 87
    },
    {
      "midi": 63,
      "hit": false,
      "t": 41327.069062500064,
      "d": 397.72687500000757,
      "v": 94
    },
    {
      "midi": 60,
      "hit": false,
      "t": 41331.12750000007,
      "d": 377.4346874999974,
      "v": 103
    },
    {
      "midi": 54,
      "hit": false,
      "t": 41331.12750000007,
      "d": 409.9021875000035,
      "v": 106
    },
    {
      "midi": 42,
      "hit": false,
      "t": 41331.12750000007,
      "d": 1688.3100000000122,
      "v": 100
    },
    {
      "midi": 54,
      "hit": false,
      "t": 42073.821562500074,
      "d": 271.91531250000116,
      "v": 102
    },
    {
      "midi": 58,
      "hit": false,
      "t": 42073.821562500074,
      "d": 280.0321875000009,
      "v": 89
    },
    {
      "midi": 60,
      "hit": false,
      "t": 42077.88000000008,
      "d": 259.73999999999796,
      "v": 102
    },
    {
      "midi": 58,
      "hit": false,
      "t": 42844.924687500075,
      "d": 353.0840625000128,
      "v": 77
    },
    {
      "midi": 54,
      "hit": false,
      "t": 42848.98312500008,
      "d": 332.7918750000026,
      "v": 96
    },
    {
      "midi": 60,
      "hit": false,
      "t": 42848.98312500008,
      "d": 336.8503125000061,
      "v": 102
    },
    {
      "midi": 46,
      "hit": false,
      "t": 43624.14468750009,
      "d": 888.79781250003,
      "v": 81
    },
    {
      "midi": 62,
      "hit": false,
      "t": 43628.203125000095,
      "d": 409.90218750001804,
      "v": 86
    },
    {
      "midi": 34,
      "hit": false,
      "t": 43628.203125000095,
      "d": 1530.0309375000288,
      "v": 75
    },
    {
      "midi": 60,
      "hit": false,
      "t": 43632.2615625001,
      "d": 381.4931250000154,
      "v": 81
    },
    {
      "midi": 58,
      "hit": false,
      "t": 43636.3200000001,
      "d": 357.142500000009,
      "v": 75
    },
    {
      "midi": 53,
      "hit": false,
      "t": 43640.378437500105,
      "d": 413.960625000007,
      "v": 103
    },
    {
      "midi": 58,
      "hit": false,
      "t": 44435.83218750011,
      "d": 422.0775000000067,
      "v": 71
    },
    {
      "midi": 60,
      "hit": false,
      "t": 44439.89062500012,
      "d": 430.1943750000064,
      "v": 81
    },
    {
      "midi": 62,
      "hit": false,
      "t": 44443.94906250012,
      "d": 450.48656250000204,
      "v": 84
    },
    {
      "midi": 53,
      "hit": false,
      "t": 44448.00750000012,
      "d": 409.9021874999962,
      "v": 95
    },
    {
      "midi": 46,
      "hit": false,
      "t": 44910.66937500012,
      "d": 251.62312500000553,
      "v": 110
    },
    {
      "midi": 55,
      "hit": false,
      "t": 45166.35093750013,
      "d": 158.27906249999796,
      "v": 117
    },
    {
      "midi": 58,
      "hit": false,
      "t": 45409.85718750013,
      "d": 101.4609375,
      "v": 112
    },
    {
      "midi": 60,
      "hit": false,
      "t": 45669.59718750013,
      "d": 154.22062500000175,
      "v": 117
    },
    {
      "midi": 31,
      "hit": false,
      "t": 45961.80468750013,
      "d": 259.74000000000524,
      "v": 100
    },
    {
      "midi": 43,
      "hit": false,
      "t": 45965.863125000134,
      "d": 332.7918750000026,
      "v": 93
    },
    {
      "midi": 58,
      "hit": false,
      "t": 45973.980000000134,
      "d": 308.4412500000035,
      "v": 116
    },
    {
      "midi": 55,
      "hit": false,
      "t": 45973.980000000134,
      "d": 332.7918750000026,
      "v": 110
    },
    {
      "midi": 62,
      "hit": false,
      "t": 45973.980000000134,
      "d": 340.9087500000023,
      "v": 113
    },
    {
      "midi": 58,
      "hit": false,
      "t": 46741.02468750014,
      "d": 413.960625000007,
      "v": 89
    },
    {
      "midi": 55,
      "hit": false,
      "t": 46745.08312500014,
      "d": 385.55156250000437,
      "v": 102
    },
    {
      "midi": 62,
      "hit": false,
      "t": 46749.14156250015,
      "d": 413.9606249999997,
      "v": 100
    },
    {
      "midi": 53,
      "hit": false,
      "t": 46753.20000000015,
      "d": 413.9606249999997,
      "v": 99
    },
    {
      "midi": 50,
      "hit": false,
      "t": 47236.15406250015,
      "d": 154.22062500000175,
      "v": 100
    },
    {
      "midi": 58,
      "hit": false,
      "t": 47524.30312500015,
      "d": 458.603437500009,
      "v": 77
    },
    {
      "midi": 55,
      "hit": false,
      "t": 47536.478437500155,
      "d": 426.1359375000029,
      "v": 94
    },
    {
      "midi": 62,
      "hit": false,
      "t": 47536.478437500155,
      "d": 442.3696875000023,
      "v": 93
    },
    {
      "midi": 53,
      "hit": false,
      "t": 47540.53687500016,
      "d": 454.54500000000553,
      "v": 88
    },
    {
      "midi": 58,
      "hit": false,
      "t": 48331.93218750016,
      "d": 409.9021875000035,
      "v": 58
    },
    {
      "midi": 52,
      "hit": false,
      "t": 48331.93218750016,
      "d": 430.1943750000064,
      "v": 82
    },
    {
      "midi": 48,
      "hit": false,
      "t": 48331.93218750016,
      "d": 787.3368750000081,
      "v": 87
    },
    {
      "midi": 55,
      "hit": false,
      "t": 48340.04906250016,
      "d": 385.55156250000437,
      "v": 81
    },
    {
      "midi": 62,
      "hit": false,
      "t": 48344.107500000166,
      "d": 413.9606249999997,
      "v": 99
    },
    {
      "midi": 36,
      "hit": false,
      "t": 48344.107500000166,
      "d": 1473.2128125000017,
      "v": 92
    },
    {
      "midi": 58,
      "hit": false,
      "t": 49066.50937500017,
      "d": 434.2528125000026,
      "v": 75
    },
    {
      "midi": 55,
      "hit": false,
      "t": 49082.74312500017,
      "d": 365.25937500000146,
      "v": 92
    },
    {
      "midi": 52,
      "hit": false,
      "t": 49090.86000000017,
      "d": 405.84375,
      "v": 92
    },
    {
      "midi": 48,
      "hit": false,
      "t": 49557.58031250017,
      "d": 280.0321875000009,
      "v": 100
    },
    {
      "midi": 62,
      "hit": false,
      "t": 49841.670937500174,
      "d": 275.97375000000466,
      "v": 107
    },
    {
      "midi": 55,
      "hit": false,
      "t": 49845.72937500018,
      "d": 202.921875,
      "v": 114
    },
    {
      "midi": 52,
      "hit": false,
      "t": 49849.78781250018,
      "d": 568.1812499999942,
      "v": 103
    },
    {
      "midi": 58,
      "hit": false,
      "t": 50073.00187500018,
      "d": 206.9803125000035,
      "v": 87
    },
    {
      "midi": 55,
      "hit": false,
      "t": 50344.91718750018,
      "d": 77.11031250000087,
      "v": 93
    },
    {
      "midi": 58,
      "hit": false,
      "t": 50649.30000000018,
      "d": 543.8306250000023,
      "v": 78
    },
    {
      "midi": 60,
      "hit": false,
      "t": 50653.35843750018,
      "d": 353.08406249999825,
      "v": 97
    },
    {
      "midi": 54,
      "hit": false,
      "t": 50653.35843750018,
      "d": 547.8890624999985,
      "v": 100
    },
    {
      "midi": 44,
      "hit": false,
      "t": 50653.35843750018,
      "d": 1594.965937500012,
      "v": 110
    },
    {
      "midi": 58,
      "hit": false,
      "t": 51448.81218750018,
      "d": 320.6165625000067,
      "v": 91
    },
    {
      "midi": 54,
      "hit": false,
      "t": 51452.870625000185,
      "d": 308.4412500000035,
      "v": 104
    },
    {
      "midi": 60,
      "hit": false,
      "t": 51456.92906250019,
      "d": 296.2659375000003,
      "v": 93
    },
    {
      "midi": 58,
      "hit": false,
      "t": 52215.85687500019,
      "d": 401.78531250001106,
      "v": 89
    },
    {
      "midi": 54,
      "hit": false,
      "t": 52232.090625000186,
      "d": 353.08406250000553,
      "v": 102
    },
    {
      "midi": 60,
      "hit": false,
      "t": 52236.14906250019,
      "d": 369.31781250000495,
      "v": 94
    },
    {
      "midi": 41,
      "hit": false,
      "t": 52755.6290625002,
      "d": 64.93499999999767,
      "v": 100
    },
    {
      "midi": 58,
      "hit": false,
      "t": 52999.1353125002,
      "d": 308.4412500000035,
      "v": 100
    },
    {
      "midi": 62,
      "hit": false,
      "t": 52999.1353125002,
      "d": 353.08406250000553,
      "v": 102
    },
    {
      "midi": 60,
      "hit": false,
      "t": 53003.1937500002,
      "d": 328.7334374999991,
      "v": 102
    },
    {
      "midi": 53,
      "hit": false,
      "t": 53011.3106250002,
      "d": 397.7268750000003,
      "v": 104
    },
    {
      "midi": 34,
      "hit": false,
      "t": 53019.4275000002,
      "d": 182.6296874999971,
      "v": 89
    },
    {
      "midi": 46,
      "hit": false,
      "t": 53019.4275000002,
      "d": 211.0387499999997,
      "v": 100
    },
    {
      "midi": 53,
      "hit": false,
      "t": 53762.1215625002,
      "d": 194.8050000000003,
      "v": 91
    },
    {
      "midi": 58,
      "hit": false,
      "t": 53766.180000000204,
      "d": 190.7465624999968,
      "v": 87
    },
    {
      "midi": 60,
      "hit": false,
      "t": 53766.180000000204,
      "d": 190.7465624999968,
      "v": 103
    },
    {
      "midi": 62,
      "hit": false,
      "t": 53766.180000000204,
      "d": 190.7465624999968,
      "v": 102
    },
    {
      "midi": 58,
      "hit": false,
      "t": 54208.5496875002,
      "d": 190.7465624999968,
      "v": 116
    },
    {
      "midi": 70,
      "hit": false,
      "t": 54549.458437500194,
      "d": 190.7465624999968,
      "v": 110
    },
    {
      "midi": 82,
      "hit": false,
      "t": 54813.25687500019,
      "d": 186.68812500000058,
      "v": 108
    },
    {
      "midi": 81,
      "hit": false,
      "t": 55068.93843750019,
      "d": 190.7465624999968,
      "v": 114
    },
    {
      "midi": 63,
      "hit": false,
      "t": 55320.56156250019,
      "d": 259.74000000000524,
      "v": 102
    },
    {
      "midi": 58,
      "hit": false,
      "t": 55324.62000000019,
      "d": 259.74000000000524,
      "v": 106
    },
    {
      "midi": 51,
      "hit": false,
      "t": 55324.62000000019,
      "d": 284.09062500000437,
      "v": 108
    },
    {
      "midi": 75,
      "hit": false,
      "t": 55324.62000000019,
      "d": 304.3828125000073,
      "v": 118
    },
    {
      "midi": 70,
      "hit": false,
      "t": 55324.62000000019,
      "d": 324.6750000000102,
      "v": 112
    },
    {
      "midi": 79,
      "hit": false,
      "t": 55324.62000000019,
      "d": 389.61000000000786,
      "v": 115
    },
    {
      "midi": 72,
      "hit": false,
      "t": 56059.197187500205,
      "d": 259.7400000000125,
      "v": 110
    },
    {
      "midi": 74,
      "hit": false,
      "t": 56075.430937500205,
      "d": 263.798437500016,
      "v": 99
    },
    {
      "midi": 70,
      "hit": false,
      "t": 56079.48937500021,
      "d": 251.6231250000128,
      "v": 102
    },
    {
      "midi": 77,
      "hit": false,
      "t": 56083.54781250021,
      "d": 239.4478125000096,
      "v": 107
    },
    {
      "midi": 58,
      "hit": false,
      "t": 56087.606250000215,
      "d": 223.2140625000029,
      "v": 102
    },
    {
      "midi": 50,
      "hit": false,
      "t": 56091.66468750022,
      "d": 239.44781250000233,
      "v": 103
    },
    {
      "midi": 70,
      "hit": false,
      "t": 56854.65093750022,
      "d": 142.04531250000582,
      "v": 110
    },
    {
      "midi": 58,
      "hit": false,
      "t": 56854.65093750022,
      "d": 150.16218750000553,
      "v": 106
    },
    {
      "midi": 74,
      "hit": false,
      "t": 56862.76781250022,
      "d": 190.74656250000407,
      "v": 106
    },
    {
      "midi": 65,
      "hit": false,
      "t": 56862.76781250022,
      "d": 344.9671875000058,
      "v": 99
    },
    {
      "midi": 46,
      "hit": false,
      "t": 56870.88468750022,
      "d": 166.39593750000495,
      "v": 92
    },
    {
      "midi": 53,
      "hit": false,
      "t": 56874.94312500022,
      "d": 105.51937500000349,
      "v": 100
    },
    {
      "midi": 72,
      "hit": false,
      "t": 57090.04031250023,
      "d": 129.87000000000262,
      "v": 110
    },
    {
      "midi": 70,
      "hit": false,
      "t": 57357.89718750023,
      "d": 77.11031250000087,
      "v": 110
    },
    {
      "midi": 43,
      "hit": false,
      "t": 57662.28000000023,
      "d": 227.27250000001368,
      "v": 103
    },
    {
      "midi": 72,
      "hit": false,
      "t": 57662.28000000023,
      "d": 239.44781250001688,
      "v": 115
    },
    {
      "midi": 58,
      "hit": false,
      "t": 57666.338437500235,
      "d": 219.1556250000067,
      "v": 108
    },
    {
      "midi": 69,
      "hit": false,
      "t": 57670.39687500024,
      "d": 219.1556250000067,
      "v": 111
    },
    {
      "midi": 50,
      "hit": false,
      "t": 57674.45531250024,
      "d": 202.921875,
      "v": 103
    },
    {
      "midi": 65,
      "hit": false,
      "t": 57674.45531250024,
      "d": 280.03218750000815,
      "v": 104
    },
    {
      "midi": 65,
      "hit": false,
      "t": 58421.20781250025,
      "d": 211.03875000000698,
      "v": 99
    },
    {
      "midi": 70,
      "hit": false,
      "t": 58421.20781250025,
      "d": 215.09718750001048,
      "v": 106
    },
    {
      "midi": 67,
      "hit": false,
      "t": 58429.32468750025,
      "d": 206.98031250001077,
      "v": 93
    },
    {
      "midi": 55,
      "hit": false,
      "t": 58433.383125000255,
      "d": 426.1359375000029,
      "v": 99
    },
    {
      "midi": 63,
      "hit": false,
      "t": 58437.44156250026,
      "d": 223.2140625000029,
      "v": 106
    },
    {
      "midi": 41,
      "hit": false,
      "t": 58437.44156250026,
      "d": 450.48656250000204,
      "v": 100
    },
    {
      "midi": 48,
      "hit": false,
      "t": 58441.50000000026,
      "d": 430.1943749999991,
      "v": 107
    },
    {
      "midi": 55,
      "hit": false,
      "t": 59216.66156250026,
      "d": 288.14906250000786,
      "v": 98
    },
    {
      "midi": 58,
      "hit": false,
      "t": 59216.66156250026,
      "d": 312.499687500007,
      "v": 112
    },
    {
      "midi": 63,
      "hit": false,
      "t": 59220.72000000026,
      "d": 255.68156250000175,
      "v": 104
    },
    {
      "midi": 41,
      "hit": false,
      "t": 59224.77843750027,
      "d": 150.16218749999825,
      "v": 113
    },
    {
      "midi": 55,
      "hit": false,
      "t": 59728.02468750026,
      "d": 174.51281250000466,
      "v": 107
    },
    {
      "midi": 63,
      "hit": false,
      "t": 59732.08312500027,
      "d": 174.51281250000466,
      "v": 110
    },
    {
      "midi": 58,
      "hit": false,
      "t": 59732.08312500027,
      "d": 190.74656250000407,
      "v": 116
    },
    {
      "midi": 58,
      "hit": false,
      "t": 60020.23218750027,
      "d": 499.1878125000003,
      "v": 108
    },
    {
      "midi": 62,
      "hit": false,
      "t": 60020.23218750027,
      "d": 515.4215624999997,
      "v": 110
    },
    {
      "midi": 60,
      "hit": false,
      "t": 60028.34906250027,
      "d": 515.4215624999997,
      "v": 107
    },
    {
      "midi": 53,
      "hit": false,
      "t": 60032.40750000027,
      "d": 478.8956249999974,
      "v": 114
    },
    {
      "midi": 34,
      "hit": false,
      "t": 60032.40750000027,
      "d": 572.2396874999977,
      "v": 81
    },
    {
      "midi": 46,
      "hit": false,
      "t": 60032.40750000027,
      "d": 580.3565624999974,
      "v": 92
    },
    {
      "midi": 58,
      "hit": false,
      "t": 60799.45218750027,
      "d": 592.5318750000151,
      "v": 104
    },
    {
      "midi": 62,
      "hit": false,
      "t": 60803.51062500027,
      "d": 584.4150000000081,
      "v": 102
    },
    {
      "midi": 60,
      "hit": false,
      "t": 60807.569062500275,
      "d": 588.4734375000116,
      "v": 102
    },
    {
      "midi": 53,
      "hit": false,
      "t": 60811.62750000028,
      "d": 564.122812499998,
      "v": 108
    },
    {
      "midi": 58,
      "hit": false,
      "t": 61566.49687500029,
      "d": 385.55156250001164,
      "v": 102
    },
    {
      "midi": 60,
      "hit": false,
      "t": 61570.55531250029,
      "d": 385.55156250001164,
      "v": 108
    },
    {
      "midi": 53,
      "hit": false,
      "t": 61574.613750000295,
      "d": 340.9087500000023,
      "v": 104
    },
    {
      "midi": 38,
      "hit": false,
      "t": 61578.6721875003,
      "d": 296.2659375000003,
      "v": 91
    },
    {
      "midi": 62,
      "hit": false,
      "t": 61578.6721875003,
      "d": 365.25937500000146,
      "v": 106
    },
    {
      "midi": 50,
      "hit": false,
      "t": 61590.8475000003,
      "d": 401.7853125000038,
      "v": 102
    },
    {
      "midi": 55,
      "hit": false,
      "t": 62361.9506250003,
      "d": 470.7787500000122,
      "v": 97
    },
    {
      "midi": 58,
      "hit": false,
      "t": 62361.9506250003,
      "d": 527.5968750000102,
      "v": 110
    },
    {
      "midi": 63,
      "hit": false,
      "t": 62370.0675000003,
      "d": 450.4865625000093,
      "v": 102
    },
    {
      "midi": 51,
      "hit": false,
      "t": 62374.12593750031,
      "d": 1607.1412500000006,
      "v": 92
    },
    {
      "midi": 39,
      "hit": false,
      "t": 62374.12593750031,
      "d": 2086.036874999998,
      "v": 94
    },
    {
      "midi": 63,
      "hit": false,
      "t": 63137.112187500315,
      "d": 499.1878125000003,
      "v": 96
    },
    {
      "midi": 55,
      "hit": false,
      "t": 63141.17062500032,
      "d": 560.0643749999945,
      "v": 103
    },
    {
      "midi": 58,
      "hit": false,
      "t": 63141.17062500032,
      "d": 592.5318749999933,
      "v": 106
    },
    {
      "midi": 63,
      "hit": false,
      "t": 63924.44906250031,
      "d": 641.2331249999988,
      "v": 112
    },
    {
      "midi": 51,
      "hit": false,
      "t": 64163.896875000304,
      "d": 243.50624999999854,
      "v": 112
    },
    {
      "midi": 55,
      "hit": false,
      "t": 64391.1693750003,
      "d": 215.0971875000032,
      "v": 113
    },
    {
      "midi": 36,
      "hit": false,
      "t": 64683.37687500031,
      "d": 641.2331250000134,
      "v": 106
    },
    {
      "midi": 58,
      "hit": false,
      "t": 64699.61062500031,
      "d": 393.6684375000041,
      "v": 84
    },
    {
      "midi": 48,
      "hit": false,
      "t": 64699.61062500031,
      "d": 645.2915625000169,
      "v": 97
    },
    {
      "midi": 60,
      "hit": false,
      "t": 64703.66906250031,
      "d": 389.6100000000006,
      "v": 110
    },
    {
      "midi": 63,
      "hit": false,
      "t": 64707.727500000314,
      "d": 397.7268750000003,
      "v": 104
    },
    {
      "midi": 55,
      "hit": false,
      "t": 64707.727500000314,
      "d": 409.9021875000035,
      "v": 104
    },
    {
      "midi": 58,
      "hit": false,
      "t": 65462.59687500032,
      "d": 239.44781250000233,
      "v": 77
    },
    {
      "midi": 60,
      "hit": false,
      "t": 65466.65531250033,
      "d": 223.2140625000029,
      "v": 97
    },
    {
      "midi": 63,
      "hit": false,
      "t": 65466.65531250033,
      "d": 267.8568749999977,
      "v": 96
    },
    {
      "midi": 55,
      "hit": false,
      "t": 65478.83062500033,
      "d": 227.27249999999913,
      "v": 98
    },
    {
      "midi": 63,
      "hit": false,
      "t": 66205.29093750032,
      "d": 300.32437500001106,
      "v": 94
    },
    {
      "midi": 65,
      "hit": false,
      "t": 66213.40781250033,
      "d": 296.26593750000757,
      "v": 102
    },
    {
      "midi": 41,
      "hit": false,
      "t": 66221.52468750034,
      "d": 271.91531250000116,
      "v": 110
    },
    {
      "midi": 55,
      "hit": false,
      "t": 66225.58312500034,
      "d": 308.4412500000035,
      "v": 107
    },
    {
      "midi": 58,
      "hit": false,
      "t": 66233.70000000035,
      "d": 259.7399999999907,
      "v": 110
    },
    {
      "midi": 60,
      "hit": false,
      "t": 66984.51093750035,
      "d": 190.74656250000407,
      "v": 98
    },
    {
      "midi": 58,
      "hit": false,
      "t": 67012.92000000035,
      "d": 324.6750000000029,
      "v": 114
    },
    {
      "midi": 62,
      "hit": false,
      "t": 67012.92000000035,
      "d": 401.7853124999965,
      "v": 113
    },
    {
      "midi": 53,
      "hit": false,
      "t": 67025.09531250034,
      "d": 280.03218750000815,
      "v": 108
    },
    {
      "midi": 34,
      "hit": false,
      "t": 67033.21218750035,
      "d": 738.6356249999953,
      "v": 98
    },
    {
      "midi": 46,
      "hit": false,
      "t": 67037.27062500035,
      "d": 409.90218749998894,
      "v": 94
    },
    {
      "midi": 46,
      "hit": false,
      "t": 67796.19843750035,
      "d": 146.1037500000093,
      "v": 92
    },
    {
      "midi": 62,
      "hit": false,
      "t": 67800.25687500036,
      "d": 186.68812500000058,
      "v": 118
    },
    {
      "midi": 65,
      "hit": false,
      "t": 68051.88000000035,
      "d": 186.68812500000058,
      "v": 93
    },
    {
      "midi": 70,
      "hit": false,
      "t": 68303.50312500035,
      "d": 198.8634374999965,
      "v": 108
    },
    {
      "midi": 75,
      "hit": false,
      "t": 68567.30156250035,
      "d": 190.74656250000407,
      "v": 112
    },
    {
      "midi": 74,
      "hit": false,
      "t": 68827.04156250035,
      "d": 190.74656250000407,
      "v": 114
    },
    {
      "midi": 70,
      "hit": false,
      "t": 69082.72312500035,
      "d": 194.80499999999302,
      "v": 110
    },
    {
      "midi": 58,
      "hit": false,
      "t": 69322.17093750034,
      "d": 405.84374999998545,
      "v": 114
    },
    {
      "midi": 62,
      "hit": false,
      "t": 69322.17093750034,
      "d": 409.90218749998894,
      "v": 114
    },
    {
      "midi": 53,
      "hit": false,
      "t": 69338.40468750034,
      "d": 397.726874999993,
      "v": 99
    },
    {
      "midi": 55,
      "hit": false,
      "t": 69350.58000000034,
      "d": 4.0584375000034925,
      "v": 78
    },
    {
      "midi": 34,
      "hit": false,
      "t": 69350.58000000034,
      "d": 320.6165624999994,
      "v": 102
    },
    {
      "midi": 46,
      "hit": false,
      "t": 69350.58000000034,
      "d": 332.79187499999534,
      "v": 102
    },
    {
      "midi": 36,
      "hit": false,
      "t": 70129.80000000034,
      "d": 247.5646875000093,
      "v": 107
    },
    {
      "midi": 48,
      "hit": false,
      "t": 70129.80000000034,
      "d": 312.499687500007,
      "v": 95
    },
    {
      "midi": 63,
      "hit": false,
      "t": 70129.80000000034,
      "d": 336.85031249999884,
      "v": 108
    },
    {
      "midi": 58,
      "hit": false,
      "t": 70133.85843750034,
      "d": 296.26593750000757,
      "v": 112
    },
    {
      "midi": 55,
      "hit": false,
      "t": 70133.85843750034,
      "d": 320.6165624999994,
      "v": 102
    },
    {
      "midi": 38,
      "hit": false,
      "t": 70900.90312500033,
      "d": 267.8568750000122,
      "v": 98
    },
    {
      "midi": 60,
      "hit": false,
      "t": 70909.02000000034,
      "d": 275.97375000000466,
      "v": 108
    },
    {
      "midi": 62,
      "hit": false,
      "t": 70909.02000000034,
      "d": 288.1490625000006,
      "v": 95
    },
    {
      "midi": 58,
      "hit": false,
      "t": 70909.02000000034,
      "d": 292.2075000000041,
      "v": 102
    },
    {
      "midi": 65,
      "hit": false,
      "t": 70909.02000000034,
      "d": 324.6750000000029,
      "v": 113
    },
    {
      "midi": 50,
      "hit": false,
      "t": 70909.02000000034,
      "d": 401.7853124999965,
      "v": 106
    },
    {
      "midi": 63,
      "hit": false,
      "t": 71692.29843750033,
      "d": 243.50625000000582,
      "v": 108
    },
    {
      "midi": 67,
      "hit": false,
      "t": 71696.35687500033,
      "d": 259.74000000000524,
      "v": 111
    },
    {
      "midi": 58,
      "hit": false,
      "t": 71700.41531250034,
      "d": 259.74000000000524,
      "v": 110
    },
    {
      "midi": 51,
      "hit": false,
      "t": 71712.59062500033,
      "d": 969.9665625000343,
      "v": 98
    },
    {
      "midi": 39,
      "hit": false,
      "t": 71712.59062500033,
      "d": 1655.8425000000134,
      "v": 102
    },
    {
      "midi": 67,
      "hit": false,
      "t": 72475.57687500035,
      "d": 194.80500000000757,
      "v": 110
    },
    {
      "midi": 63,
      "hit": false,
      "t": 72479.63531250035,
      "d": 194.80500000000757,
      "v": 110
    },
    {
      "midi": 63,
      "hit": false,
      "t": 73031.58281250036,
      "d": 77.1103124999936,
      "v": 108
    },
    {
      "midi": 51,
      "hit": false,
      "t": 73287.26437500035,
      "d": 133.92843749999884,
      "v": 106
    },
    {
      "midi": 67,
      "hit": false,
      "t": 73299.43968750034,
      "d": 109.57781250000698,
      "v": 114
    },
    {
      "midi": 70,
      "hit": false,
      "t": 73526.71218750035,
      "d": 142.04531250000582,
      "v": 114
    },
    {
      "midi": 51,
      "hit": false,
      "t": 73758.04312500036,
      "d": 89.28562500000407,
      "v": 92
    },
    {
      "midi": 44,
      "hit": false,
      "t": 74029.95843750036,
      "d": 1765.420312500035,
      "v": 91
    },
    {
      "midi": 70,
      "hit": false,
      "t": 74034.01687500036,
      "d": 206.98031250001804,
      "v": 104
    },
    {
      "midi": 54,
      "hit": false,
      "t": 74034.01687500036,
      "d": 349.02562500002387,
      "v": 102
    },
    {
      "midi": 63,
      "hit": false,
      "t": 74042.13375000037,
      "d": 202.92187500001455,
      "v": 114
    },
    {
      "midi": 60,
      "hit": false,
      "t": 74042.13375000037,
      "d": 206.98031250001804,
      "v": 102
    },
    {
      "midi": 65,
      "hit": false,
      "t": 74297.81531250039,
      "d": 194.80500000000757,
      "v": 106
    },
    {
      "midi": 63,
      "hit": false,
      "t": 74870.0550000004,
      "d": 255.68156250000175,
      "v": 102
    },
    {
      "midi": 54,
      "hit": false,
      "t": 74870.0550000004,
      "d": 300.3243749999965,
      "v": 86
    },
    {
      "midi": 60,
      "hit": false,
      "t": 74874.1134375004,
      "d": 263.7984374999942,
      "v": 91
    },
    {
      "midi": 54,
      "hit": false,
      "t": 75592.4568750004,
      "d": 121.75312500000291,
      "v": 108
    },
    {
      "midi": 63,
      "hit": false,
      "t": 75608.6906250004,
      "d": 202.921875,
      "v": 98
    },
    {
      "midi": 60,
      "hit": false,
      "t": 75616.8075000004,
      "d": 206.98031249998894,
      "v": 91
    },
    {
      "midi": 46,
      "hit": false,
      "t": 76375.73531250039,
      "d": 336.8503125000134,
      "v": 82
    },
    {
      "midi": 58,
      "hit": false,
      "t": 76379.79375000039,
      "d": 239.44781250000233,
      "v": 112
    },
    {
      "midi": 62,
      "hit": false,
      "t": 76379.79375000039,
      "d": 259.74000000000524,
      "v": 110
    },
    {
      "midi": 34,
      "hit": false,
      "t": 76383.8521875004,
      "d": 320.6165624999994,
      "v": 87
    },
    {
      "midi": 55,
      "hit": false,
      "t": 76627.3584375004,
      "d": 133.92843749999884,
      "v": 83
    },
    {
      "midi": 58,
      "hit": false,
      "t": 76891.1568750004,
      "d": 576.2981249999866,
      "v": 116
    },
    {
      "midi": 46,
      "hit": false,
      "t": 77154.95531250039,
      "d": 182.6296874999971,
      "v": 104
    },
    {
      "midi": 55,
      "hit": false,
      "t": 77406.57843750039,
      "d": 186.68812500000058,
      "v": 100
    },
    {
      "midi": 58,
      "hit": false,
      "t": 77666.31843750039,
      "d": 190.74656250000407,
      "v": 118
    },
    {
      "midi": 62,
      "hit": false,
      "t": 77926.0584375004,
      "d": 186.68812500001513,
      "v": 115
    },
    {
      "midi": 46,
      "hit": false,
      "t": 77930.1168750004,
      "d": 182.62968750001164,
      "v": 96
    },
    {
      "midi": 58,
      "hit": false,
      "t": 77934.1753125004,
      "d": 174.51281250000466,
      "v": 116
    },
    {
      "midi": 53,
      "hit": false,
      "t": 77938.2337500004,
      "d": 174.51281250000466,
      "v": 115
    },
    {
      "midi": 34,
      "hit": false,
      "t": 77958.52593750041,
      "d": 223.2140625000029,
      "v": 91
    },
    {
      "midi": 63,
      "hit": false,
      "t": 78185.79843750042,
      "d": 190.74656250000407,
      "v": 118
    },
    {
      "midi": 65,
      "hit": false,
      "t": 78465.83062500042,
      "d": 129.86999999999534,
      "v": 118
    },
    {
      "midi": 62,
      "hit": false,
      "t": 78729.62906250042,
      "d": 482.95406250003725,
      "v": 113
    },
    {
      "midi": 58,
      "hit": false,
      "t": 78737.74593750043,
      "d": 430.19437500002095,
      "v": 106
    },
    {
      "midi": 65,
      "hit": false,
      "t": 78737.74593750043,
      "d": 470.7787500000268,
      "v": 104
    },
    {
      "midi": 38,
      "hit": false,
      "t": 78745.86281250043,
      "d": 653.4084375000384,
      "v": 104
    },
    {
      "midi": 57,
      "hit": false,
      "t": 78749.92125000044,
      "d": 466.7203125000233,
      "v": 106
    },
    {
      "midi": 50,
      "hit": false,
      "t": 78749.92125000044,
      "d": 608.7656250000291,
      "v": 100
    },
    {
      "midi": 65,
      "hit": false,
      "t": 79452.03093750047,
      "d": 312.499687500007,
      "v": 104
    },
    {
      "midi": 65,
      "hit": false,
      "t": 80223.13406250048,
      "d": 353.08406249999825,
      "v": 104
    },
    {
      "midi": 56,
      "hit": false,
      "t": 80227.19250000048,
      "d": 300.3243749999965,
      "v": 102
    },
    {
      "midi": 62,
      "hit": false,
      "t": 80227.19250000048,
      "d": 312.49968749999243,
      "v": 99
    },
    {
      "midi": 58,
      "hit": false,
      "t": 80227.19250000048,
      "d": 320.6165624999994,
      "v": 94
    },
    {
      "midi": 55,
      "hit": false,
      "t": 81038.88000000048,
      "d": 564.1228125000052,
      "v": 95
    },
    {
      "midi": 63,
      "hit": false,
      "t": 81038.88000000048,
      "d": 564.1228125000052,
      "v": 94
    },
    {
      "midi": 58,
      "hit": false,
      "t": 81038.88000000048,
      "d": 576.2981250000012,
      "v": 104
    },
    {
      "midi": 51,
      "hit": false,
      "t": 81038.88000000048,
      "d": 811.6875000000146,
      "v": 82
    },
    {
      "midi": 39,
      "hit": false,
      "t": 81038.88000000048,
      "d": 1546.264687500021,
      "v": 82
    },
    {
      "midi": 63,
      "hit": false,
      "t": 81842.45062500049,
      "d": 1079.5443750000122,
      "v": 114
    },
    {
      "midi": 51,
      "hit": false,
      "t": 82069.7231250005,
      "d": 438.31124999999884,
      "v": 108
    },
    {
      "midi": 55,
      "hit": false,
      "t": 82325.4046875005,
      "d": 202.921875,
      "v": 108
    },
    {
      "midi": 58,
      "hit": false,
      "t": 82589.20312500051,
      "d": 353.08406249999825,
      "v": 112
    },
    {
      "midi": 58,
      "hit": false,
      "t": 83364.3646875005,
      "d": 12.175312500010477,
      "v": 94
    },
    {
      "midi": 48,
      "hit": false,
      "t": 83372.48156250051,
      "d": 608.7656250000291,
      "v": 92
    },
    {
      "midi": 60,
      "hit": false,
      "t": 83376.54000000052,
      "d": 4.0584375000034925,
      "v": 107
    },
    {
      "midi": 58,
      "hit": false,
      "t": 83380.59843750052,
      "d": 539.7721875000134,
      "v": 108
    },
    {
      "midi": 60,
      "hit": false,
      "t": 83380.59843750052,
      "d": 543.8306250000169,
      "v": 104
    },
    {
      "midi": 63,
      "hit": false,
      "t": 83384.65687500052,
      "d": 434.2528125000099,
      "v": 98
    },
    {
      "midi": 54,
      "hit": false,
      "t": 83388.71531250053,
      "d": 462.66187500000524,
      "v": 112
    },
    {
      "midi": 42,
      "hit": false,
      "t": 83388.71531250053,
      "d": 1071.4275000000052,
      "v": 106
    },
    {
      "midi": 58,
      "hit": false,
      "t": 84180.11062500054,
      "d": 312.499687500007,
      "v": 86
    },
    {
      "midi": 63,
      "hit": false,
      "t": 84192.28593750054,
      "d": 275.97375000000466,
      "v": 100
    },
    {
      "midi": 54,
      "hit": false,
      "t": 84192.28593750054,
      "d": 288.1490625000006,
      "v": 106
    },
    {
      "midi": 60,
      "hit": false,
      "t": 84192.28593750054,
      "d": 292.2075000000041,
      "v": 99
    },
    {
      "midi": 58,
      "hit": false,
      "t": 84906.57093750055,
      "d": 409.9021875000035,
      "v": 87
    },
    {
      "midi": 54,
      "hit": false,
      "t": 84910.62937500056,
      "d": 393.6684375000041,
      "v": 106
    },
    {
      "midi": 60,
      "hit": false,
      "t": 84914.68781250056,
      "d": 405.84375,
      "v": 100
    },
    {
      "midi": 63,
      "hit": false,
      "t": 84918.74625000056,
      "d": 385.5515624999971,
      "v": 100
    },
    {
      "midi": 46,
      "hit": false,
      "t": 85693.90781250056,
      "d": 40.584375000034925,
      "v": 86
    },
    {
      "midi": 34,
      "hit": false,
      "t": 85697.96625000057,
      "d": 44.64281250003842,
      "v": 79
    },
    {
      "midi": 62,
      "hit": false,
      "t": 85706.08312500057,
      "d": 8.116875000006985,
      "v": 102
    },
    {
      "midi": 60,
      "hit": false,
      "t": 85710.14156250058,
      "d": 8.116875000006985,
      "v": 100
    },
    {
      "midi": 58,
      "hit": false,
      "t": 85710.14156250058,
      "d": 16.23375000001397,
      "v": 104
    },
    {
      "midi": 62,
      "hit": false,
      "t": 85718.25843750058,
      "d": 572.2396875000122,
      "v": 111
    },
    {
      "midi": 60,
      "hit": false,
      "t": 85722.31687500059,
      "d": 584.4150000000227,
      "v": 110
    },
    {
      "midi": 58,
      "hit": false,
      "t": 85726.37531250059,
      "d": 568.1812500000087,
      "v": 106
    },
    {
      "midi": 53,
      "hit": false,
      "t": 85734.4921875006,
      "d": 564.1228125000052,
      "v": 114
    },
    {
      "midi": 46,
      "hit": false,
      "t": 85734.4921875006,
      "d": 864.4471875000163,
      "v": 92
    },
    {
      "midi": 34,
      "hit": false,
      "t": 85742.6090625006,
      "d": 1887.1734375000087,
      "v": 89
    },
    {
      "midi": 58,
      "hit": false,
      "t": 86505.5953125006,
      "d": 478.89562500000466,
      "v": 118
    },
    {
      "midi": 62,
      "hit": false,
      "t": 86509.65375000061,
      "d": 470.7787499999977,
      "v": 117
    },
    {
      "midi": 53,
      "hit": false,
      "t": 87000.72468750061,
      "d": 56.81812500000524,
      "v": 98
    },
    {
      "midi": 46,
      "hit": false,
      "t": 87000.72468750061,
      "d": 434.25281249999534,
      "v": 108
    },
    {
      "midi": 67,
      "hit": false,
      "t": 87309.16593750061,
      "d": 60.87656249999418,
      "v": 117
    },
    {
      "midi": 67,
      "hit": false,
      "t": 87544.55531250061,
      "d": 85.22718750000058,
      "v": 120
    },
    {
      "midi": 70,
      "hit": false,
      "t": 87779.94468750061,
      "d": 64.93499999999767,
      "v": 116
    },
    {
      "midi": 65,
      "hit": false,
      "t": 88051.86000000061,
      "d": 292.2075000000041,
      "v": 113
    },
    {
      "midi": 62,
      "hit": false,
      "t": 88051.86000000061,
      "d": 340.9087500000023,
      "v": 106
    },
    {
      "midi": 43,
      "hit": false,
      "t": 88051.86000000061,
      "d": 1643.667187500032,
      "v": 100
    },
    {
      "midi": 53,
      "hit": false,
      "t": 88059.97687500062,
      "d": 462.6618749999907,
      "v": 100
    },
    {
      "midi": 62,
      "hit": false,
      "t": 88778.32031250061,
      "d": 235.3893750000134,
      "v": 91
    },
    {
      "midi": 58,
      "hit": false,
      "t": 88786.43718750062,
      "d": 206.9803125000035,
      "v": 86
    },
    {
      "midi": 53,
      "hit": false,
      "t": 88794.55406250063,
      "d": 227.2725000000064,
      "v": 90
    },
    {
      "midi": 62,
      "hit": false,
      "t": 89569.71562500064,
      "d": 150.1621875000128,
      "v": 103
    },
    {
      "midi": 53,
      "hit": false,
      "t": 89573.77406250064,
      "d": 182.62968750001164,
      "v": 114
    },
    {
      "midi": 58,
      "hit": false,
      "t": 89577.83250000064,
      "d": 97.40249999999651,
      "v": 106
    },
    {
      "midi": 58,
      "hit": false,
      "t": 90369.22781250066,
      "d": 308.44124999998894,
      "v": 106
    },
    {
      "midi": 64,
      "hit": false,
      "t": 90381.40312500065,
      "d": 223.2140625000029,
      "v": 104
    },
    {
      "midi": 52,
      "hit": false,
      "t": 90381.40312500065,
      "d": 1659.9009374999878,
      "v": 87
    },
    {
      "midi": 48,
      "hit": false,
      "t": 90393.57843750065,
      "d": 1659.9009374999878,
      "v": 93
    },
    {
      "midi": 70,
      "hit": false,
      "t": 90637.08468750065,
      "d": 174.5128124999901,
      "v": 116
    },
    {
      "midi": 74,
      "hit": false,
      "t": 90649.26000000065,
      "d": 178.5712499999936,
      "v": 107
    },
    {
      "midi": 64,
      "hit": false,
      "t": 90872.47406250064,
      "d": 93.34406249999302,
      "v": 99
    },
    {
      "midi": 58,
      "hit": false,
      "t": 91144.38937500062,
      "d": 438.3112500000134,
      "v": 106
    },
    {
      "midi": 69,
      "hit": false,
      "t": 91152.50625000063,
      "d": 158.27906250000524,
      "v": 122
    },
    {
      "midi": 72,
      "hit": false,
      "t": 91152.50625000063,
      "d": 162.33750000000873,
      "v": 118
    },
    {
      "midi": 64,
      "hit": false,
      "t": 91387.89562500064,
      "d": 117.69468749999942,
      "v": 84
    },
    {
      "midi": 70,
      "hit": false,
      "t": 91667.92781250064,
      "d": 77.1103124999936,
      "v": 116
    },
    {
      "midi": 58,
      "hit": false,
      "t": 91919.55093750064,
      "d": 105.51937500000349,
      "v": 114
    },
    {
      "midi": 67,
      "hit": false,
      "t": 91939.84312500064,
      "d": 158.2790624999907,
      "v": 115
    },
    {
      "midi": 64,
      "hit": false,
      "t": 92191.46625000062,
      "d": 178.5712499999936,
      "v": 111
    },
    {
      "midi": 60,
      "hit": false,
      "t": 92430.91406250061,
      "d": 93.34406249999302,
      "v": 102
    },
    {
      "midi": 60,
      "hit": false,
      "t": 92727.1800000006,
      "d": 474.8371875000157,
      "v": 111
    },
    {
      "midi": 54,
      "hit": false,
      "t": 92727.1800000006,
      "d": 515.4215625000215,
      "v": 110
    },
    {
      "midi": 58,
      "hit": false,
      "t": 92727.1800000006,
      "d": 527.5968750000175,
      "v": 104
    },
    {
      "midi": 44,
      "hit": false,
      "t": 92727.1800000006,
      "d": 1558.4400000000314,
      "v": 100
    },
    {
      "midi": 58,
      "hit": false,
      "t": 93514.51687500063,
      "d": 487.01250000001164,
      "v": 110
    },
    {
      "midi": 54,
      "hit": false,
      "t": 93522.63375000063,
      "d": 458.60343750000175,
      "v": 114
    },
    {
      "midi": 58,
      "hit": false,
      "t": 94281.56156250063,
      "d": 373.37625000000116,
      "v": 112
    },
    {
      "midi": 54,
      "hit": false,
      "t": 94289.67843750064,
      "d": 332.79187499999534,
      "v": 110
    },
    {
      "midi": 34,
      "hit": false,
      "t": 95093.24906250063,
      "d": 937.4990625000064,
      "v": 106
    },
    {
      "midi": 46,
      "hit": false,
      "t": 95093.24906250063,
      "d": 961.8496875000128,
      "v": 110
    },
    {
      "midi": 58,
      "hit": false,
      "t": 95097.30750000064,
      "d": 251.62312499999825,
      "v": 118
    },
    {
      "midi": 62,
      "hit": false,
      "t": 95097.30750000064,
      "d": 259.74000000000524,
      "v": 117
    },
    {
      "midi": 53,
      "hit": false,
      "t": 95097.30750000064,
      "d": 275.97375000000466,
      "v": 114
    },
    {
      "midi": 58,
      "hit": false,
      "t": 95860.29375000064,
      "d": 275.97375000000466,
      "v": 87
    },
    {
      "midi": 62,
      "hit": false,
      "t": 95860.29375000064,
      "d": 275.97375000000466,
      "v": 95
    },
    {
      "midi": 53,
      "hit": false,
      "t": 95872.46906250063,
      "d": 263.79843750000873,
      "v": 91
    },
    {
      "midi": 34,
      "hit": false,
      "t": 96339.18937500064,
      "d": 474.8371875000448,
      "v": 114
    },
    {
      "midi": 62,
      "hit": false,
      "t": 96347.30625000065,
      "d": 146.1037500000093,
      "v": 115
    },
    {
      "midi": 53,
      "hit": false,
      "t": 96351.36468750065,
      "d": 137.98687500000233,
      "v": 111
    },
    {
      "midi": 58,
      "hit": false,
      "t": 96355.42312500066,
      "d": 129.86999999999534,
      "v": 116
    },
    {
      "midi": 63,
      "hit": false,
      "t": 96635.45531250066,
      "d": 150.1621875000128,
      "v": 121
    },
    {
      "midi": 58,
      "hit": false,
      "t": 96643.57218750067,
      "d": 150.1621875000128,
      "v": 126
    },
    {
      "midi": 55,
      "hit": false,
      "t": 96643.57218750067,
      "d": 158.2790625000198,
      "v": 115
    },
    {
      "midi": 46,
      "hit": false,
      "t": 96643.57218750067,
      "d": 178.5712500000227,
      "v": 127
    },
    {
      "midi": 63,
      "hit": false,
      "t": 97134.64312500069,
      "d": 215.09718750001048,
      "v": 121
    },
    {
      "midi": 58,
      "hit": false,
      "t": 97138.70156250069,
      "d": 194.80500000000757,
      "v": 127
    },
    {
      "midi": 55,
      "hit": false,
      "t": 97142.7600000007,
      "d": 186.68812500000058,
      "v": 115
    },
    {
      "midi": 46,
      "hit": false,
      "t": 97142.7600000007,
      "d": 872.5640625000087,
      "v": 127
    },
    {
      "midi": 34,
      "hit": false,
      "t": 97447.1428125007,
      "d": 1603.0828125000116,
      "v": 121
    },
    {
      "midi": 62,
      "hit": false,
      "t": 97451.2012500007,
      "d": 535.7137499999953,
      "v": 122
    },
    {
      "midi": 53,
      "hit": false,
      "t": 97459.3181250007,
      "d": 527.5968749999884,
      "v": 118
    },
    {
      "midi": 58,
      "hit": false,
      "t": 97463.3765625007,
      "d": 531.6553124999919,
      "v": 123
    },
    {
      "midi": 53,
      "hit": false,
      "t": 98222.3043750007,
      "d": 308.44124999998894,
      "v": 114
    },
    {
      "midi": 58,
      "hit": false,
      "t": 98222.3043750007,
      "d": 324.67499999998836,
      "v": 116
    },
    {
      "midi": 62,
      "hit": false,
      "t": 98222.3043750007,
      "d": 340.9087499999878,
      "v": 115
    },
    {
      "midi": 46,
      "hit": false,
      "t": 98234.4796875007,
      "d": 466.7203124999942,
      "v": 116
    },
    {
      "midi": 41,
      "hit": false,
      "t": 98705.2584375007,
      "d": 288.14906250001513,
      "v": 102
    },
    {
      "midi": 62,
      "hit": false,
      "t": 98981.2321875007,
      "d": 450.4865625000093,
      "v": 122
    },
    {
      "midi": 53,
      "hit": false,
      "t": 98985.2906250007,
      "d": 284.0906249999971,
      "v": 117
    },
    {
      "midi": 58,
      "hit": false,
      "t": 98993.40750000071,
      "d": 12.175312499995925,
      "v": 112
    },
    {
      "midi": 46,
      "hit": false,
      "t": 98993.40750000071,
      "d": 89.28562499998952,
      "v": 126
    },
    {
      "midi": 58,
      "hit": false,
      "t": 99220.6800000007,
      "d": 206.9803125000035,
      "v": 121
    },
    {
      "midi": 53,
      "hit": false,
      "t": 99460.12781250071,
      "d": 81.16874999999709,
      "v": 120
    },
    {
      "midi": 41,
      "hit": false,
      "t": 99760.4521875007,
      "d": 884.7393750000192,
      "v": 111
    },
    {
      "midi": 53,
      "hit": false,
      "t": 99760.4521875007,
      "d": 913.1484375000146,
      "v": 108
    },
    {
      "midi": 65,
      "hit": false,
      "t": 99768.56906250071,
      "d": 478.89562500000466,
      "v": 118
    },
    {
      "midi": 57,
      "hit": false,
      "t": 99772.62750000072,
      "d": 511.3631250000035,
      "v": 115
    },
    {
      "midi": 60,
      "hit": false,
      "t": 99772.62750000072,
      "d": 519.4800000000105,
      "v": 125
    },
    {
      "midi": 65,
      "hit": false,
      "t": 100490.97093750072,
      "d": 332.79187499999534,
      "v": 110
    },
    {
      "midi": 60,
      "hit": false,
      "t": 100503.14625000072,
      "d": 365.2593749999942,
      "v": 120
    },
    {
      "midi": 57,
      "hit": false,
      "t": 100503.14625000072,
      "d": 535.7137499999953,
      "v": 110
    },
    {
      "midi": 43,
      "hit": false,
      "t": 101278.30781250072,
      "d": 267.8568750000122,
      "v": 111
    },
    {
      "midi": 58,
      "hit": false,
      "t": 101282.36625000072,
      "d": 275.97375000000466,
      "v": 121
    },
    {
      "midi": 67,
      "hit": false,
      "t": 101282.36625000072,
      "d": 296.26593750000757,
      "v": 122
    },
    {
      "midi": 51,
      "hit": false,
      "t": 101290.48312500073,
      "d": 255.68156250000175,
      "v": 112
    },
    {
      "midi": 55,
      "hit": false,
      "t": 101290.48312500073,
      "d": 267.8568749999977,
      "v": 114
    },
    {
      "midi": 63,
      "hit": false,
      "t": 101290.48312500073,
      "d": 292.2075000000041,
      "v": 116
    },
    {
      "midi": 45,
      "hit": false,
      "t": 102061.58625000074,
      "d": 1493.5050000000338,
      "v": 113
    },
    {
      "midi": 53,
      "hit": false,
      "t": 102069.70312500074,
      "d": 827.9212500000285,
      "v": 114
    },
    {
      "midi": 60,
      "hit": false,
      "t": 102077.82000000075,
      "d": 385.55156250001164,
      "v": 114
    },
    {
      "midi": 69,
      "hit": false,
      "t": 102077.82000000075,
      "d": 401.78531250001106,
      "v": 117
    },
    {
      "midi": 65,
      "hit": false,
      "t": 102077.82000000075,
      "d": 413.960625000007,
      "v": 122
    },
    {
      "midi": 65,
      "hit": false,
      "t": 102852.98156250076,
      "d": 178.57125000000815,
      "v": 110
    },
    {
      "midi": 69,
      "hit": false,
      "t": 102857.04000000076,
      "d": 182.62968750001164,
      "v": 106
    },
    {
      "midi": 60,
      "hit": false,
      "t": 102857.04000000076,
      "d": 255.6815625000163,
      "v": 106
    },
    {
      "midi": 53,
      "hit": false,
      "t": 103396.81218750078,
      "d": 129.86999999999534,
      "v": 106
    },
    {
      "midi": 65,
      "hit": false,
      "t": 103656.55218750077,
      "d": 491.07093750001513,
      "v": 118
    },
    {
      "midi": 57,
      "hit": false,
      "t": 103664.66906250078,
      "d": 223.2140625000029,
      "v": 115
    },
    {
      "midi": 60,
      "hit": false,
      "t": 103904.11687500078,
      "d": 206.9803125000035,
      "v": 110
    },
    {
      "midi": 57,
      "hit": false,
      "t": 104163.85687500078,
      "d": 109.57781250000698,
      "v": 110
    },
    {
      "midi": 41,
      "hit": false,
      "t": 104167.91531250079,
      "d": 202.921875,
      "v": 100
    },
    {
      "midi": 34,
      "hit": false,
      "t": 104387.07093750079,
      "d": 1590.9075000000303,
      "v": 123
    },
    {
      "midi": 55,
      "hit": false,
      "t": 104395.1878125008,
      "d": 572.2396875000122,
      "v": 114
    },
    {
      "midi": 63,
      "hit": false,
      "t": 104427.65531250079,
      "d": 584.4150000000081,
      "v": 126
    },
    {
      "midi": 46,
      "hit": false,
      "t": 104427.65531250079,
      "d": 969.9665625000198,
      "v": 123
    },
    {
      "midi": 58,
      "hit": false,
      "t": 104447.9475000008,
      "d": 572.2396875000122,
      "v": 118
    },
    {
      "midi": 62,
      "hit": false,
      "t": 105223.10906250081,
      "d": 1205.3559375000186,
      "v": 117
    },
    {
      "midi": 58,
      "hit": false,
      "t": 105223.10906250081,
      "d": 1278.4078125000233,
      "v": 121
    },
    {
      "midi": 53,
      "hit": false,
      "t": 105231.22593750081,
      "d": 884.7393750000047,
      "v": 115
    },
    {
      "midi": 46,
      "hit": false,
      "t": 106002.32906250082,
      "d": 426.1359375000029,
      "v": 114
    },
    {
      "midi": 41,
      "hit": false,
      "t": 106440.64031250082,
      "d": 101.46093750001455,
      "v": 106
    },
    {
      "midi": 53,
      "hit": false,
      "t": 106464.99093750083,
      "d": 109.57781250000698,
      "v": 114
    },
    {
      "midi": 43,
      "hit": false,
      "t": 106736.90625000083,
      "d": 568.1812500000087,
      "v": 120
    },
    {
      "midi": 31,
      "hit": false,
      "t": 106740.96468750083,
      "d": 1505.6803125000151,
      "v": 122
    },
    {
      "midi": 53,
      "hit": false,
      "t": 106745.02312500084,
      "d": 564.1228125000052,
      "v": 118
    },
    {
      "midi": 60,
      "hit": false,
      "t": 106749.08156250084,
      "d": 519.4799999999959,
      "v": 123
    },
    {
      "midi": 33,
      "hit": false,
      "t": 106753.14000000084,
      "d": 12.175312499995925,
      "v": 94
    },
    {
      "midi": 57,
      "hit": false,
      "t": 106753.14000000084,
      "d": 413.96062499999243,
      "v": 125
    },
    {
      "midi": 58,
      "hit": false,
      "t": 107528.30156250084,
      "d": 539.7721875000134,
      "v": 112
    },
    {
      "midi": 50,
      "hit": false,
      "t": 107532.36000000084,
      "d": 519.4800000000105,
      "v": 113
    },
    {
      "midi": 55,
      "hit": false,
      "t": 107532.36000000084,
      "d": 535.7137500000099,
      "v": 115
    },
    {
      "midi": 43,
      "hit": false,
      "t": 107536.41843750085,
      "d": 446.4281250000058,
      "v": 110
    },
    {
      "midi": 43,
      "hit": false,
      "t": 108283.17093750085,
      "d": 125.8115625000064,
      "v": 113
    },
    {
      "midi": 50,
      "hit": false,
      "t": 108818.88468750086,
      "d": 105.51937500000349,
      "v": 114
    },
    {
      "midi": 41,
      "hit": false,
      "t": 109098.91687500087,
      "d": 1318.9921874999854,
      "v": 117
    },
    {
      "midi": 60,
      "hit": false,
      "t": 109111.09218750086,
      "d": 296.265937499993,
      "v": 123
    },
    {
      "midi": 48,
      "hit": false,
      "t": 109111.09218750086,
      "d": 393.6684374999895,
      "v": 123
    },
    {
      "midi": 55,
      "hit": false,
      "t": 109115.15062500087,
      "d": 56.81812500000524,
      "v": 125
    },
    {
      "midi": 53,
      "hit": false,
      "t": 109115.15062500087,
      "d": 235.38937499999884,
      "v": 111
    },
    {
      "midi": 57,
      "hit": false,
      "t": 109249.07906250087,
      "d": 129.86999999999534,
      "v": 104
    },
    {
      "midi": 53,
      "hit": false,
      "t": 109841.61093750085,
      "d": 409.9021875000035,
      "v": 102
    },
    {
      "midi": 65,
      "hit": false,
      "t": 109845.66937500086,
      "d": 491.0709375000006,
      "v": 106
    },
    {
      "midi": 60,
      "hit": false,
      "t": 109845.66937500086,
      "d": 556.0059374999983,
      "v": 111
    },
    {
      "midi": 57,
      "hit": false,
      "t": 109853.78625000086,
      "d": 527.5968749999884,
      "v": 103
    },
    {
      "midi": 43,
      "hit": false,
      "t": 110653.29843750085,
      "d": 263.7984375000233,
      "v": 117
    },
    {
      "midi": 55,
      "hit": false,
      "t": 110653.29843750085,
      "d": 353.0840625000419,
      "v": 114
    },
    {
      "midi": 67,
      "hit": false,
      "t": 110661.41531250086,
      "d": 340.90875000003143,
      "v": 120
    },
    {
      "midi": 58,
      "hit": false,
      "t": 110665.47375000086,
      "d": 292.2075000000186,
      "v": 116
    },
    {
      "midi": 62,
      "hit": false,
      "t": 110673.59062500087,
      "d": 324.67500000001746,
      "v": 115
    },
    {
      "midi": 61,
      "hit": false,
      "t": 111111.9018750009,
      "d": 97.40249999999651,
      "v": 49
    },
    {
      "midi": 60,
      "hit": false,
      "t": 111440.6353125009,
      "d": 280.03218750000815,
      "v": 117
    },
    {
      "midi": 45,
      "hit": false,
      "t": 111440.6353125009,
      "d": 1663.9593750000204,
      "v": 108
    },
    {
      "midi": 69,
      "hit": false,
      "t": 111444.69375000091,
      "d": 300.32437500001106,
      "v": 110
    },
    {
      "midi": 53,
      "hit": false,
      "t": 111444.69375000091,
      "d": 1079.5443749999977,
      "v": 118
    },
    {
      "midi": 60,
      "hit": false,
      "t": 112215.79687500092,
      "d": 194.80499999999302,
      "v": 114
    },
    {
      "midi": 60,
      "hit": false,
      "t": 112698.75093750091,
      "d": 178.5712499999936,
      "v": 117
    },
    {
      "midi": 65,
      "hit": false,
      "t": 112962.5493750009,
      "d": 133.9284375000134,
      "v": 118
    },
    {
      "midi": 53,
      "hit": false,
      "t": 112966.60781250091,
      "d": 109.57781250000698,
      "v": 114
    },
    {
      "midi": 69,
      "hit": false,
      "t": 113193.88031250093,
      "d": 117.69468749999942,
      "v": 108
    },
    {
      "midi": 72,
      "hit": false,
      "t": 113437.38656250093,
      "d": 68.99343750000116,
      "v": 118
    },
    {
      "midi": 65,
      "hit": false,
      "t": 113749.88625000094,
      "d": 146.10375000002387,
      "v": 122
    },
    {
      "midi": 63,
      "hit": false,
      "t": 113749.88625000094,
      "d": 397.7268750000512,
      "v": 121
    },
    {
      "midi": 70,
      "hit": false,
      "t": 113758.00312500095,
      "d": 373.37625000003027,
      "v": 116
    },
    {
      "midi": 51,
      "hit": false,
      "t": 113762.06156250095,
      "d": 369.3178125000268,
      "v": 110
    },
    {
      "midi": 39,
      "hit": false,
      "t": 113766.12000000096,
      "d": 373.37625000003027,
      "v": 114
    },
    {
      "midi": 67,
      "hit": false,
      "t": 113871.63937500096,
      "d": 251.6231250000128,
      "v": 103
    },
    {
      "midi": 62,
      "hit": false,
      "t": 114492.580312501,
      "d": 365.25937500000873,
      "v": 111
    },
    {
      "midi": 65,
      "hit": false,
      "t": 114496.638750001,
      "d": 357.14250000000175,
      "v": 113
    },
    {
      "midi": 70,
      "hit": false,
      "t": 114508.814062501,
      "d": 328.7334375000064,
      "v": 110
    },
    {
      "midi": 50,
      "hit": false,
      "t": 114512.872500001,
      "d": 211.03875000000698,
      "v": 111
    },
    {
      "midi": 38,
      "hit": false,
      "t": 114512.872500001,
      "d": 223.2140625000029,
      "v": 95
    },
    {
      "midi": 70,
      "hit": false,
      "t": 115312.38468750102,
      "d": 409.9021875000035,
      "v": 110
    },
    {
      "midi": 65,
      "hit": false,
      "t": 115316.44312500102,
      "d": 418.0190624999959,
      "v": 118
    },
    {
      "midi": 62,
      "hit": false,
      "t": 115320.50156250103,
      "d": 413.96062499999243,
      "v": 117
    },
    {
      "midi": 46,
      "hit": false,
      "t": 115324.56000000103,
      "d": 202.921875,
      "v": 112
    },
    {
      "midi": 34,
      "hit": false,
      "t": 115328.61843750103,
      "d": 174.5128124999901,
      "v": 112
    },
    {
      "midi": 65,
      "hit": false,
      "t": 116120.01375000102,
      "d": 446.4281250000204,
      "v": 123
    },
    {
      "midi": 69,
      "hit": false,
      "t": 116120.01375000102,
      "d": 503.2462500000256,
      "v": 120
    },
    {
      "midi": 43,
      "hit": false,
      "t": 116128.13062500102,
      "d": 357.14250000000175,
      "v": 120
    },
    {
      "midi": 60,
      "hit": false,
      "t": 116128.13062500102,
      "d": 397.72687500000757,
      "v": 123
    },
    {
      "midi": 43,
      "hit": false,
      "t": 116777.48062500104,
      "d": 689.9343750000262,
      "v": 104
    },
    {
      "midi": 50,
      "hit": false,
      "t": 116878.94156250104,
      "d": 876.6225000000268,
      "v": 104
    },
    {
      "midi": 58,
      "hit": false,
      "t": 116887.05843750105,
      "d": 503.2462500000256,
      "v": 123
    },
    {
      "midi": 67,
      "hit": false,
      "t": 116895.17531250106,
      "d": 332.7918750000099,
      "v": 111
    },
    {
      "midi": 62,
      "hit": false,
      "t": 116895.17531250106,
      "d": 357.1425000000163,
      "v": 117
    },
    {
      "midi": 70,
      "hit": false,
      "t": 116895.17531250106,
      "d": 365.2593750000233,
      "v": 114
    },
    {
      "midi": 58,
      "hit": false,
      "t": 117686.57062500107,
      "d": 85.22718750000058,
      "v": 102
    },
    {
      "midi": 67,
      "hit": false,
      "t": 117698.74593750107,
      "d": 556.0059374999983,
      "v": 103
    },
    {
      "midi": 62,
      "hit": false,
      "t": 117702.80437500107,
      "d": 284.0906249999971,
      "v": 98
    },
    {
      "midi": 70,
      "hit": false,
      "t": 117702.80437500107,
      "d": 572.2396874999977,
      "v": 94
    },
    {
      "midi": 62,
      "hit": false,
      "t": 118201.99218750106,
      "d": 142.04531250000582,
      "v": 118
    },
    {
      "midi": 46,
      "hit": false,
      "t": 118222.28437500107,
      "d": 121.75312500000291,
      "v": 96
    },
    {
      "midi": 51,
      "hit": false,
      "t": 118457.67375000106,
      "d": 568.1812500000087,
      "v": 110
    },
    {
      "midi": 70,
      "hit": false,
      "t": 118465.79062500107,
      "d": 377.43468750000466,
      "v": 116
    },
    {
      "midi": 39,
      "hit": false,
      "t": 118465.79062500107,
      "d": 568.1812500000087,
      "v": 114
    },
    {
      "midi": 65,
      "hit": false,
      "t": 118469.84906250107,
      "d": 373.37625000000116,
      "v": 108
    },
    {
      "midi": 63,
      "hit": false,
      "t": 118473.90750000108,
      "d": 369.3178124999977,
      "v": 121
    },
    {
      "midi": 67,
      "hit": false,
      "t": 118473.90750000108,
      "d": 369.3178124999977,
      "v": 115
    },
    {
      "midi": 65,
      "hit": false,
      "t": 119277.47812500109,
      "d": 349.0256250000093,
      "v": 95
    },
    {
      "midi": 63,
      "hit": false,
      "t": 119289.65343750108,
      "d": 316.5581250000105,
      "v": 104
    },
    {
      "midi": 70,
      "hit": false,
      "t": 119293.71187500108,
      "d": 312.499687500007,
      "v": 102
    },
    {
      "midi": 67,
      "hit": false,
      "t": 119293.71187500108,
      "d": 377.43468750000466,
      "v": 95
    },
    {
      "midi": 65,
      "hit": false,
      "t": 119995.82156250109,
      "d": 101.46093750001455,
      "v": 76
    },
    {
      "midi": 70,
      "hit": false,
      "t": 119999.8800000011,
      "d": 117.69468750001397,
      "v": 104
    },
    {
      "midi": 51,
      "hit": false,
      "t": 120007.9968750011,
      "d": 89.28562500000407,
      "v": 110
    },
    {
      "midi": 63,
      "hit": false,
      "t": 120012.0553125011,
      "d": 97.40249999999651,
      "v": 102
    },
    {
      "midi": 67,
      "hit": false,
      "t": 120016.11375000111,
      "d": 81.16874999999709,
      "v": 86
    },
    {
      "midi": 41,
      "hit": false,
      "t": 120515.3015625011,
      "d": 129.86999999999534,
      "v": 91
    },
    {
      "midi": 41,
      "hit": false,
      "t": 120787.2168750011,
      "d": 1927.7578125,
      "v": 110
    },
    {
      "midi": 58,
      "hit": false,
      "t": 120799.3921875011,
      "d": 551.9475000000093,
      "v": 112
    },
    {
      "midi": 53,
      "hit": false,
      "t": 120803.4506250011,
      "d": 560.0643750000017,
      "v": 107
    },
    {
      "midi": 62,
      "hit": false,
      "t": 120807.5090625011,
      "d": 519.4799999999959,
      "v": 113
    },
    {
      "midi": 58,
      "hit": false,
      "t": 121578.6121875011,
      "d": 182.6296874999971,
      "v": 118
    },
    {
      "midi": 62,
      "hit": false,
      "t": 121582.6706250011,
      "d": 186.68812500000058,
      "v": 117
    },
    {
      "midi": 53,
      "hit": false,
      "t": 121814.0015625011,
      "d": 186.68812500000058,
      "v": 97
    },
    {
      "midi": 55,
      "hit": false,
      "t": 122098.0921875011,
      "d": 85.22718750000058,
      "v": 106
    },
    {
      "midi": 58,
      "hit": false,
      "t": 122382.1828125011,
      "d": 190.74656250000407,
      "v": 126
    },
    {
      "midi": 55,
      "hit": false,
      "t": 122629.7475000011,
      "d": 158.27906250000524,
      "v": 92
    },
    {
      "midi": 53,
      "hit": false,
      "t": 122844.84468750111,
      "d": 162.33749999999418,
      "v": 69
    },
    {
      "midi": 43,
      "hit": false,
      "t": 123153.2859375011,
      "d": 1014.6093750000146,
      "v": 108
    },
    {
      "midi": 58,
      "hit": false,
      "t": 123165.46125000111,
      "d": 381.49312500000815,
      "v": 116
    },
    {
      "midi": 63,
      "hit": false,
      "t": 123165.46125000111,
      "d": 401.78531250001106,
      "v": 96
    },
    {
      "midi": 55,
      "hit": false,
      "t": 123165.46125000111,
      "d": 405.84375000001455,
      "v": 107
    },
    {
      "midi": 58,
      "hit": false,
      "t": 123920.33062500112,
      "d": 487.01250000001164,
      "v": 106
    },
    {
      "midi": 63,
      "hit": false,
      "t": 123932.50593750112,
      "d": 442.3696875000023,
      "v": 94
    },
    {
      "midi": 55,
      "hit": false,
      "t": 123936.56437500112,
      "d": 446.4281250000058,
      "v": 94
    },
    {
      "midi": 43,
      "hit": false,
      "t": 124399.22625000113,
      "d": 300.32437500001106,
      "v": 100
    },
    {
      "midi": 63,
      "hit": false,
      "t": 124711.72593750113,
      "d": 332.7918750000099,
      "v": 108
    },
    {
      "midi": 58,
      "hit": false,
      "t": 124715.78437500114,
      "d": 316.5581250000105,
      "v": 116
    },
    {
      "midi": 55,
      "hit": false,
      "t": 124719.84281250114,
      "d": 324.6750000000029,
      "v": 106
    },
    {
      "midi": 53,
      "hit": false,
      "t": 125474.71218750115,
      "d": 454.54500000002736,
      "v": 110
    },
    {
      "midi": 62,
      "hit": false,
      "t": 125478.77062500115,
      "d": 442.3696875000169,
      "v": 114
    },
    {
      "midi": 58,
      "hit": false,
      "t": 125482.82906250116,
      "d": 454.54500000002736,
      "v": 114
    },
    {
      "midi": 41,
      "hit": false,
      "t": 125486.88750000116,
      "d": 1874.9981250000274,
      "v": 110
    },
    {
      "midi": 62,
      "hit": false,
      "t": 126262.04906250119,
      "d": 219.15562500001397,
      "v": 110
    },
    {
      "midi": 53,
      "hit": false,
      "t": 126266.10750000119,
      "d": 227.2725000000064,
      "v": 106
    },
    {
      "midi": 58,
      "hit": false,
      "t": 126270.1659375012,
      "d": 158.27906250000524,
      "v": 108
    },
    {
      "midi": 51,
      "hit": false,
      "t": 127049.3859375012,
      "d": 308.44124999998894,
      "v": 112
    },
    {
      "midi": 57,
      "hit": false,
      "t": 127049.3859375012,
      "d": 308.44124999998894,
      "v": 104
    },
    {
      "midi": 60,
      "hit": false,
      "t": 127049.3859375012,
      "d": 328.73343749999185,
      "v": 106
    },
    {
      "midi": 46,
      "hit": false,
      "t": 127824.5475000012,
      "d": 1225.648125000036,
      "v": 72
    },
    {
      "midi": 62,
      "hit": false,
      "t": 127828.6059375012,
      "d": 418.0190625000105,
      "v": 108
    },
    {
      "midi": 58,
      "hit": false,
      "t": 127828.6059375012,
      "d": 503.24625000001106,
      "v": 112
    },
    {
      "midi": 53,
      "hit": false,
      "t": 127836.7228125012,
      "d": 409.9021875000035,
      "v": 104
    },
    {
      "midi": 34,
      "hit": false,
      "t": 127836.7228125012,
      "d": 1513.7971875000221,
      "v": 91
    },
    {
      "midi": 53,
      "hit": false,
      "t": 128587.53375000121,
      "d": 73.05187500000466,
      "v": 90
    },
    {
      "midi": 58,
      "hit": false,
      "t": 128591.59218750121,
      "d": 77.11031250000815,
      "v": 104
    },
    {
      "midi": 62,
      "hit": false,
      "t": 128595.65062500122,
      "d": 109.57781250000698,
      "v": 104
    },
    {
      "midi": 41,
      "hit": false,
      "t": 129086.72156250123,
      "d": 162.33749999999418,
      "v": 92
    },
    {
      "midi": 70,
      "hit": false,
      "t": 129366.75375000123,
      "d": 146.10374999999476,
      "v": 123
    },
    {
      "midi": 46,
      "hit": false,
      "t": 129370.81218750123,
      "d": 77.1103124999936,
      "v": 112
    },
    {
      "midi": 82,
      "hit": false,
      "t": 129614.31843750122,
      "d": 85.22718750000058,
      "v": 112
    },
    {
      "midi": 81,
      "hit": false,
      "t": 129870.00000000122,
      "d": 93.34406249999302,
      "v": 114
    },
    {
      "midi": 51,
      "hit": false,
      "t": 130154.0906250012,
      "d": 280.0321875000227,
      "v": 98
    },
    {
      "midi": 79,
      "hit": false,
      "t": 130166.2659375012,
      "d": 255.68156250003085,
      "v": 110
    },
    {
      "midi": 63,
      "hit": false,
      "t": 130170.3243750012,
      "d": 251.62312500002736,
      "v": 112
    },
    {
      "midi": 75,
      "hit": false,
      "t": 130174.38281250121,
      "d": 243.50625000002037,
      "v": 108
    },
    {
      "midi": 70,
      "hit": false,
      "t": 130178.44125000121,
      "d": 263.7984375000233,
      "v": 102
    },
    {
      "midi": 58,
      "hit": false,
      "t": 130182.49968750121,
      "d": 239.44781250001688,
      "v": 96
    },
    {
      "midi": 70,
      "hit": false,
      "t": 130900.84312500124,
      "d": 288.14906250001513,
      "v": 91
    },
    {
      "midi": 72,
      "hit": false,
      "t": 130908.96000000124,
      "d": 52.759687500001746,
      "v": 117
    },
    {
      "midi": 77,
      "hit": false,
      "t": 130908.96000000124,
      "d": 296.2659375000221,
      "v": 106
    },
    {
      "midi": 58,
      "hit": false,
      "t": 130921.13531250124,
      "d": 255.68156250000175,
      "v": 104
    },
    {
      "midi": 50,
      "hit": false,
      "t": 130921.13531250124,
      "d": 271.9153125000157,
      "v": 95
    },
    {
      "midi": 74,
      "hit": false,
      "t": 130982.01187500125,
      "d": 219.15562500001397,
      "v": 100
    },
    {
      "midi": 65,
      "hit": false,
      "t": 131680.06312500127,
      "d": 365.2593749999942,
      "v": 95
    },
    {
      "midi": 70,
      "hit": false,
      "t": 131684.12156250127,
      "d": 146.1037500000093,
      "v": 100
    },
    {
      "midi": 74,
      "hit": false,
      "t": 131688.18000000127,
      "d": 194.80499999999302,
      "v": 100
    },
    {
      "midi": 58,
      "hit": false,
      "t": 131688.18000000127,
      "d": 198.8634374999965,
      "v": 96
    },
    {
      "midi": 46,
      "hit": false,
      "t": 131688.18000000127,
      "d": 215.09718750001048,
      "v": 96
    },
    {
      "midi": 72,
      "hit": false,
      "t": 131923.56937500127,
      "d": 137.98687500000233,
      "v": 95
    },
    {
      "midi": 70,
      "hit": false,
      "t": 132195.48468750127,
      "d": 97.40249999999651,
      "v": 112
    },
    {
      "midi": 69,
      "hit": false,
      "t": 132475.51687500128,
      "d": 186.68812500001513,
      "v": 117
    },
    {
      "midi": 65,
      "hit": false,
      "t": 132475.51687500128,
      "d": 381.49312500000815,
      "v": 110
    },
    {
      "midi": 72,
      "hit": false,
      "t": 132479.57531250129,
      "d": 182.62968750001164,
      "v": 120
    },
    {
      "midi": 58,
      "hit": false,
      "t": 132495.8090625013,
      "d": 231.33093749999534,
      "v": 100
    },
    {
      "midi": 43,
      "hit": false,
      "t": 132495.8090625013,
      "d": 251.6231249999837,
      "v": 104
    },
    {
      "midi": 50,
      "hit": false,
      "t": 132503.9259375013,
      "d": 211.03874999997788,
      "v": 107
    },
    {
      "midi": 67,
      "hit": false,
      "t": 133266.9121875013,
      "d": 235.38937499999884,
      "v": 113
    },
    {
      "midi": 65,
      "hit": false,
      "t": 133275.0290625013,
      "d": 219.15562499998487,
      "v": 113
    },
    {
      "midi": 41,
      "hit": false,
      "t": 133275.0290625013,
      "d": 438.31124999999884,
      "v": 110
    },
    {
      "midi": 70,
      "hit": false,
      "t": 133279.0875000013,
      "d": 227.27249999999185,
      "v": 116
    },
    {
      "midi": 63,
      "hit": false,
      "t": 133279.0875000013,
      "d": 247.5646874999802,
      "v": 116
    },
    {
      "midi": 53,
      "hit": false,
      "t": 133279.0875000013,
      "d": 422.07749999998487,
      "v": 110
    },
    {
      "midi": 58,
      "hit": false,
      "t": 134038.0153125013,
      "d": 150.1621875000128,
      "v": 127
    },
    {
      "midi": 63,
      "hit": false,
      "t": 134038.0153125013,
      "d": 166.39593750002678,
      "v": 112
    },
    {
      "midi": 55,
      "hit": false,
      "t": 134046.1321875013,
      "d": 158.2790625000198,
      "v": 114
    },
    {
      "midi": 53,
      "hit": false,
      "t": 134050.1906250013,
      "d": 170.45437500003027,
      "v": 122
    },
    {
      "midi": 53,
      "hit": false,
      "t": 134529.08625000133,
      "d": 105.51937500000349,
      "v": 126
    },
    {
      "midi": 58,
      "hit": false,
      "t": 134533.14468750134,
      "d": 170.45437500000116,
      "v": 127
    },
    {
      "midi": 55,
      "hit": false,
      "t": 134537.20312500134,
      "d": 158.2790624999907,
      "v": 115
    },
    {
      "midi": 63,
      "hit": false,
      "t": 134541.26156250134,
      "d": 146.1037499999802,
      "v": 116
    },
    {
      "midi": 53,
      "hit": false,
      "t": 134841.58593750134,
      "d": 998.3756250000151,
      "v": 115
    },
    {
      "midi": 46,
      "hit": false,
      "t": 134845.64437500134,
      "d": 925.3237500000105,
      "v": 123
    },
    {
      "midi": 58,
      "hit": false,
      "t": 134845.64437500134,
      "d": 990.2587500000081,
      "v": 126
    },
    {
      "midi": 62,
      "hit": false,
      "t": 134849.70281250135,
      "d": 986.2003125000047,
      "v": 125
    },
    {
      "midi": 34,
      "hit": false,
      "t": 134853.76125000135,
      "d": 884.7393750000047,
      "v": 118
    },
    {
      "midi": 38,
      "hit": false,
      "t": 136391.90906250136,
      "d": 263.7984375000233,
      "v": 115
    },
    {
      "midi": 62,
      "hit": false,
      "t": 136391.90906250136,
      "d": 308.4412500000326,
      "v": 123
    },
    {
      "midi": 58,
      "hit": false,
      "t": 136408.14281250138,
      "d": 280.03218750000815,
      "v": 121
    },
    {
      "midi": 50,
      "hit": false,
      "t": 136408.14281250138,
      "d": 344.9671875000058,
      "v": 122
    },
    {
      "midi": 53,
      "hit": false,
      "t": 136412.20125000138,
      "d": 271.91531250000116,
      "v": 118
    },
    {
      "midi": 63,
      "hit": false,
      "t": 137171.1290625014,
      "d": 458.6034375000163,
      "v": 116
    },
    {
      "midi": 58,
      "hit": false,
      "t": 137179.2459375014,
      "d": 466.7203125000233,
      "v": 123
    },
    {
      "midi": 55,
      "hit": false,
      "t": 137183.3043750014,
      "d": 438.31124999999884,
      "v": 120
    },
    {
      "midi": 51,
      "hit": false,
      "t": 137199.53812500142,
      "d": 872.5640625000233,
      "v": 110
    },
    {
      "midi": 39,
      "hit": false,
      "t": 137199.53812500142,
      "d": 1493.5050000000338,
      "v": 110
    },
    {
      "midi": 58,
      "hit": false,
      "t": 137930.05687500144,
      "d": 73.05187500000466,
      "v": 110
    },
    {
      "midi": 63,
      "hit": false,
      "t": 137930.05687500144,
      "d": 113.63625000001048,
      "v": 106
    },
    {
      "midi": 55,
      "hit": false,
      "t": 137946.29062500145,
      "d": 68.99343750000116,
      "v": 100
    },
    {
      "midi": 46,
      "hit": false,
      "t": 138449.53687500145,
      "d": 146.1037500000093,
      "v": 112
    },
    {
      "midi": 65,
      "hit": false,
      "t": 138709.27687500147,
      "d": 231.33093750002445,
      "v": 125
    },
    {
      "midi": 63,
      "hit": false,
      "t": 138709.27687500147,
      "d": 535.7137500000244,
      "v": 121
    },
    {
      "midi": 70,
      "hit": false,
      "t": 138717.39375000147,
      "d": 487.01250000001164,
      "v": 112
    },
    {
      "midi": 51,
      "hit": false,
      "t": 138725.51062500148,
      "d": 48.701250000012806,
      "v": 127
    },
    {
      "midi": 39,
      "hit": false,
      "t": 138749.86125000147,
      "d": 16.23375000001397,
      "v": 60
    },
    {
      "midi": 67,
      "hit": false,
      "t": 138977.1337500015,
      "d": 194.80499999999302,
      "v": 95
    },
    {
      "midi": 65,
      "hit": false,
      "t": 139216.5815625015,
      "d": 97.40249999999651,
      "v": 99
    },
    {
      "midi": 63,
      "hit": false,
      "t": 139512.8475000015,
      "d": 324.67500000001746,
      "v": 123
    },
    {
      "midi": 67,
      "hit": false,
      "t": 139512.8475000015,
      "d": 332.79187500002445,
      "v": 118
    },
    {
      "midi": 70,
      "hit": false,
      "t": 139516.9059375015,
      "d": 349.0256250000093,
      "v": 114
    },
    {
      "midi": 60,
      "hit": false,
      "t": 139516.9059375015,
      "d": 361.2009375000198,
      "v": 120
    },
    {
      "midi": 36,
      "hit": false,
      "t": 139520.9643750015,
      "d": 495.1293750000186,
      "v": 114
    },
    {
      "midi": 48,
      "hit": false,
      "t": 139529.0812500015,
      "d": 413.960625000007,
      "v": 117
    },
    {
      "midi": 63,
      "hit": false,
      "t": 140255.54156250152,
      "d": 154.2206250000163,
      "v": 114
    },
    {
      "midi": 48,
      "hit": false,
      "t": 140263.65843750152,
      "d": 113.63625000001048,
      "v": 117
    },
    {
      "midi": 67,
      "hit": false,
      "t": 140263.65843750152,
      "d": 158.2790625000198,
      "v": 115
    },
    {
      "midi": 70,
      "hit": false,
      "t": 140267.71687500153,
      "d": 215.09718750001048,
      "v": 112
    },
    {
      "midi": 60,
      "hit": false,
      "t": 140275.83375000153,
      "d": 227.27249999999185,
      "v": 118
    },
    {
      "midi": 48,
      "hit": false,
      "t": 140762.84625000152,
      "d": 109.57781250000698,
      "v": 100
    },
    {
      "midi": 63,
      "hit": false,
      "t": 141034.76156250152,
      "d": 556.0059375000128,
      "v": 121
    },
    {
      "midi": 53,
      "hit": false,
      "t": 141038.82000000152,
      "d": 146.1037500000093,
      "v": 118
    },
    {
      "midi": 58,
      "hit": false,
      "t": 141038.82000000152,
      "d": 312.4996875000361,
      "v": 118
    },
    {
      "midi": 67,
      "hit": false,
      "t": 141038.82000000152,
      "d": 466.7203125000233,
      "v": 118
    },
    {
      "midi": 41,
      "hit": false,
      "t": 141046.93687500153,
      "d": 186.68812500001513,
      "v": 113
    },
    {
      "midi": 48,
      "hit": false,
      "t": 141050.99531250153,
      "d": 146.1037500000093,
      "v": 122
    },
    {
      "midi": 58,
      "hit": false,
      "t": 141538.00781250154,
      "d": 113.63624999998137,
      "v": 123
    },
    {
      "midi": 60,
      "hit": false,
      "t": 141838.3321875015,
      "d": 316.5581250000396,
      "v": 120
    },
    {
      "midi": 58,
      "hit": false,
      "t": 141838.3321875015,
      "d": 474.83718750003027,
      "v": 123
    },
    {
      "midi": 62,
      "hit": false,
      "t": 141846.44906250152,
      "d": 401.7853125000256,
      "v": 114
    },
    {
      "midi": 41,
      "hit": false,
      "t": 141850.50750000152,
      "d": 292.2075000000186,
      "v": 125
    },
    {
      "midi": 34,
      "hit": false,
      "t": 141850.50750000152,
      "d": 296.2659375000221,
      "v": 108
    },
    {
      "midi": 46,
      "hit": false,
      "t": 141850.50750000152,
      "d": 377.43468750003376,
      "v": 121
    },
    {
      "midi": 65,
      "hit": false,
      "t": 141850.50750000152,
      "d": 401.7853125000256,
      "v": 118
    },
    {
      "midi": 60,
      "hit": false,
      "t": 142589.14312500154,
      "d": 332.79187499999534,
      "v": 98
    },
    {
      "midi": 58,
      "hit": false,
      "t": 142589.14312500154,
      "d": 430.19437499999185,
      "v": 102
    },
    {
      "midi": 65,
      "hit": false,
      "t": 142593.20156250155,
      "d": 409.9021874999744,
      "v": 111
    },
    {
      "midi": 62,
      "hit": false,
      "t": 142597.26000000155,
      "d": 385.55156249998254,
      "v": 95
    },
    {
      "midi": 46,
      "hit": false,
      "t": 143104.56468750152,
      "d": 442.36968750003143,
      "v": 114
    },
    {
      "midi": 60,
      "hit": false,
      "t": 143364.3046875015,
      "d": 170.45437500003027,
      "v": 126
    },
    {
      "midi": 65,
      "hit": false,
      "t": 143376.48000000152,
      "d": 146.1037500000093,
      "v": 123
    },
    {
      "midi": 58,
      "hit": false,
      "t": 143376.48000000152,
      "d": 158.2790625000198,
      "v": 121
    },
    {
      "midi": 53,
      "hit": false,
      "t": 143376.48000000152,
      "d": 162.33750000002328,
      "v": 115
    },
    {
      "midi": 62,
      "hit": false,
      "t": 143376.48000000152,
      "d": 162.33750000002328,
      "v": 115
    },
    {
      "midi": 56,
      "hit": false,
      "t": 143879.72625000155,
      "d": 146.1037500000093,
      "v": 112
    },
    {
      "midi": 63,
      "hit": false,
      "t": 143879.72625000155,
      "d": 211.03875000000698,
      "v": 123
    },
    {
      "midi": 58,
      "hit": false,
      "t": 143883.78468750155,
      "d": 150.1621875000128,
      "v": 126
    },
    {
      "midi": 60,
      "hit": false,
      "t": 143895.96000000156,
      "d": 174.51281250000466,
      "v": 125
    },
    {
      "midi": 46,
      "hit": false,
      "t": 144171.93375000157,
      "d": 361.2009374999907,
      "v": 104
    },
    {
      "midi": 65,
      "hit": false,
      "t": 144171.93375000157,
      "d": 401.7853125000256,
      "v": 120
    },
    {
      "midi": 60,
      "hit": false,
      "t": 144175.99218750157,
      "d": 361.2009374999907,
      "v": 115
    },
    {
      "midi": 58,
      "hit": false,
      "t": 144180.05062500158,
      "d": 361.2009374999907,
      "v": 123
    },
    {
      "midi": 53,
      "hit": false,
      "t": 144180.05062500158,
      "d": 369.3178124999977,
      "v": 117
    },
    {
      "midi": 62,
      "hit": false,
      "t": 144180.05062500158,
      "d": 385.55156250001164,
      "v": 113
    },
    {
      "midi": 62,
      "hit": false,
      "t": 144951.1537500016,
      "d": 320.6165625000431,
      "v": 120
    },
    {
      "midi": 63,
      "hit": false,
      "t": 144951.1537500016,
      "d": 365.2593750000524,
      "v": 112
    },
    {
      "midi": 55,
      "hit": false,
      "t": 144955.2121875016,
      "d": 304.3828125000291,
      "v": 122
    },
    {
      "midi": 60,
      "hit": false,
      "t": 144959.2706250016,
      "d": 280.03218750000815,
      "v": 122
    },
    {
      "midi": 48,
      "hit": false,
      "t": 144967.3875000016,
      "d": 275.97375000000466,
      "v": 118
    },
    {
      "midi": 65,
      "hit": false,
      "t": 145754.72437500165,
      "d": 478.89562500003376,
      "v": 111
    },
    {
      "midi": 62,
      "hit": false,
      "t": 145754.72437500165,
      "d": 527.5968750000466,
      "v": 117
    },
    {
      "midi": 50,
      "hit": false,
      "t": 145762.84125000166,
      "d": 365.2593750000233,
      "v": 118
    },
    {
      "midi": 60,
      "hit": false,
      "t": 145762.84125000166,
      "d": 503.2462500000256,
      "v": 118
    },
    {
      "midi": 58,
      "hit": false,
      "t": 145766.89968750166,
      "d": 328.73343750002095,
      "v": 118
    },
    {
      "midi": 63,
      "hit": false,
      "t": 146493.3600000017,
      "d": 551.9475000000093,
      "v": 112
    },
    {
      "midi": 58,
      "hit": false,
      "t": 146501.4768750017,
      "d": 564.1228124999907,
      "v": 118
    },
    {
      "midi": 55,
      "hit": false,
      "t": 146505.5353125017,
      "d": 519.4800000000105,
      "v": 111
    },
    {
      "midi": 39,
      "hit": false,
      "t": 146513.65218750172,
      "d": 1676.1346875000163,
      "v": 100
    },
    {
      "midi": 51,
      "hit": false,
      "t": 146521.76906250173,
      "d": 831.9796874999884,
      "v": 114
    },
    {
      "midi": 63,
      "hit": false,
      "t": 147305.0475000017,
      "d": 430.19437499999185,
      "v": 96
    },
    {
      "midi": 58,
      "hit": false,
      "t": 147305.0475000017,
      "d": 446.4281250000058,
      "v": 106
    },
    {
      "midi": 55,
      "hit": false,
      "t": 147309.1059375017,
      "d": 401.7853124999965,
      "v": 99
    },
    {
      "midi": 63,
      "hit": false,
      "t": 148055.8584375017,
      "d": 470.7787500000268,
      "v": 116
    },
    {
      "midi": 58,
      "hit": false,
      "t": 148063.97531250172,
      "d": 389.61000000001513,
      "v": 123
    },
    {
      "midi": 55,
      "hit": false,
      "t": 148072.09218750172,
      "d": 239.44781250000233,
      "v": 120
    },
    {
      "midi": 51,
      "hit": false,
      "t": 148076.15062500173,
      "d": 97.40249999999651,
      "v": 127
    },
    {
      "midi": 55,
      "hit": false,
      "t": 148534.75406250174,
      "d": 81.16875000004075,
      "v": 123
    },
    {
      "midi": 58,
      "hit": false,
      "t": 148546.92937500175,
      "d": 40.584375000034925,
      "v": 78
    },
    {
      "midi": 39,
      "hit": false,
      "t": 148559.10468750176,
      "d": 97.40250000002561,
      "v": 89
    },
    {
      "midi": 63,
      "hit": false,
      "t": 148571.28000000177,
      "d": 12.175312500010477,
      "v": 42
    },
    {
      "midi": 58,
      "hit": false,
      "t": 148831.0200000018,
      "d": 377.43468749997555,
      "v": 114
    },
    {
      "midi": 60,
      "hit": false,
      "t": 148831.0200000018,
      "d": 389.60999999998603,
      "v": 113
    },
    {
      "midi": 63,
      "hit": false,
      "t": 148831.0200000018,
      "d": 413.9606249999779,
      "v": 114
    },
    {
      "midi": 32,
      "hit": false,
      "t": 148831.0200000018,
      "d": 446.4281249999767,
      "v": 118
    },
    {
      "midi": 44,
      "hit": false,
      "t": 148831.0200000018,
      "d": 450.4865624999802,
      "v": 114
    },
    {
      "midi": 54,
      "hit": false,
      "t": 148831.0200000018,
      "d": 519.4799999999814,
      "v": 126
    },
    {
      "midi": 58,
      "hit": false,
      "t": 149658.94125000178,
      "d": 340.9087500000023,
      "v": 86
    },
    {
      "midi": 63,
      "hit": false,
      "t": 149662.99968750178,
      "d": 271.91531250000116,
      "v": 106
    },
    {
      "midi": 54,
      "hit": false,
      "t": 149667.0581250018,
      "d": 275.97375000000466,
      "v": 108
    },
    {
      "midi": 60,
      "hit": false,
      "t": 149667.0581250018,
      "d": 328.73343749999185,
      "v": 103
    },
    {
      "midi": 58,
      "hit": false,
      "t": 150413.8106250018,
      "d": 357.1424999999872,
      "v": 121
    },
    {
      "midi": 54,
      "hit": false,
      "t": 150421.9275000018,
      "d": 227.27249999999185,
      "v": 121
    },
    {
      "midi": 60,
      "hit": false,
      "t": 150421.9275000018,
      "d": 357.1424999999872,
      "v": 115
    },
    {
      "midi": 63,
      "hit": false,
      "t": 150421.9275000018,
      "d": 401.7853124999965,
      "v": 114
    },
    {
      "midi": 54,
      "hit": false,
      "t": 150868.3556250018,
      "d": 101.4609375,
      "v": 114
    },
    {
      "midi": 46,
      "hit": false,
      "t": 150892.7062500018,
      "d": 81.16875000001164,
      "v": 116
    },
    {
      "midi": 58,
      "hit": false,
      "t": 151176.7968750018,
      "d": 271.91531250003027,
      "v": 121
    },
    {
      "midi": 46,
      "hit": false,
      "t": 151176.7968750018,
      "d": 413.9606250000361,
      "v": 108
    },
    {
      "midi": 34,
      "hit": false,
      "t": 151188.97218750181,
      "d": 1635.5503125000978,
      "v": 100
    },
    {
      "midi": 62,
      "hit": false,
      "t": 151197.08906250182,
      "d": 284.09062500001164,
      "v": 118
    },
    {
      "midi": 53,
      "hit": false,
      "t": 151197.08906250182,
      "d": 296.2659375000221,
      "v": 117
    },
    {
      "midi": 46,
      "hit": false,
      "t": 151956.01687500183,
      "d": 361.2009375000489,
      "v": 116
    },
    {
      "midi": 58,
      "hit": false,
      "t": 151968.19218750185,
      "d": 117.69468750001397,
      "v": 127
    },
    {
      "midi": 62,
      "hit": false,
      "t": 151972.25062500185,
      "d": 117.69468750001397,
      "v": 115
    },
    {
      "midi": 53,
      "hit": false,
      "t": 152203.58156250187,
      "d": 109.57781250000698,
      "v": 114
    },
    {
      "midi": 55,
      "hit": false,
      "t": 152459.2631250019,
      "d": 48.701250000012806,
      "v": 106
    },
    {
      "midi": 46,
      "hit": false,
      "t": 152759.58750000192,
      "d": 81.16875000001164,
      "v": 118
    },
    {
      "midi": 58,
      "hit": false,
      "t": 152759.58750000192,
      "d": 174.51281250000466,
      "v": 126
    },
    {
      "midi": 55,
      "hit": false,
      "t": 152990.9184375019,
      "d": 146.1037500000093,
      "v": 90
    },
    {
      "midi": 58,
      "hit": false,
      "t": 153234.42468750192,
      "d": 73.05187500000466,
      "v": 116
    },
    {
      "midi": 62,
      "hit": false,
      "t": 153514.45687500192,
      "d": 474.83718750000116,
      "v": 106
    },
    {
      "midi": 58,
      "hit": false,
      "t": 153514.45687500192,
      "d": 478.89562500000466,
      "v": 110
    },
    {
      "midi": 57,
      "hit": false,
      "t": 153518.51531250193,
      "d": 470.7787499999977,
      "v": 99
    },
    {
      "midi": 65,
      "hit": false,
      "t": 153538.80750000192,
      "d": 454.5450000000128,
      "v": 98
    },
    {
      "midi": 50,
      "hit": false,
      "t": 153538.80750000192,
      "d": 1055.193750000035,
      "v": 94
    },
    {
      "midi": 38,
      "hit": false,
      "t": 153538.80750000192,
      "d": 1879.0565625000745,
      "v": 87
    },
    {
      "midi": 62,
      "hit": false,
      "t": 154277.44312500194,
      "d": 247.5646875000093,
      "v": 104
    },
    {
      "midi": 57,
      "hit": false,
      "t": 154281.50156250194,
      "d": 263.7984374999942,
      "v": 103
    },
    {
      "midi": 58,
      "hit": false,
      "t": 154285.56000000195,
      "d": 259.7399999999907,
      "v": 110
    },
    {
      "midi": 65,
      "hit": false,
      "t": 154285.56000000195,
      "d": 259.7399999999907,
      "v": 104
    },
    {
      "midi": 58,
      "hit": false,
      "t": 155044.48781250196,
      "d": 361.2009375000198,
      "v": 114
    },
    {
      "midi": 65,
      "hit": false,
      "t": 155048.54625000196,
      "d": 357.1425000000163,
      "v": 108
    },
    {
      "midi": 56,
      "hit": false,
      "t": 155056.66312500197,
      "d": 332.79187499999534,
      "v": 112
    },
    {
      "midi": 62,
      "hit": false,
      "t": 155064.78000000198,
      "d": 349.0256250000093,
      "v": 95
    },
    {
      "midi": 50,
      "hit": false,
      "t": 155064.78000000198,
      "d": 430.19437500002095,
      "v": 98
    },
    {
      "midi": 58,
      "hit": false,
      "t": 155864.292187502,
      "d": 556.0059375000128,
      "v": 114
    },
    {
      "midi": 55,
      "hit": false,
      "t": 155868.350625002,
      "d": 515.421562500007,
      "v": 102
    },
    {
      "midi": 63,
      "hit": false,
      "t": 155868.350625002,
      "d": 515.421562500007,
      "v": 102
    },
    {
      "midi": 51,
      "hit": false,
      "t": 155876.467500002,
      "d": 1781.6540625000198,
      "v": 102
    },
    {
      "midi": 39,
      "hit": false,
      "t": 155876.467500002,
      "d": 1814.1215625000186,
      "v": 94
    },
    {
      "midi": 58,
      "hit": false,
      "t": 156635.39531250202,
      "d": 308.4412500000035,
      "v": 96
    },
    {
      "midi": 63,
      "hit": false,
      "t": 156639.45375000202,
      "d": 271.91531250000116,
      "v": 100
    },
    {
      "midi": 55,
      "hit": false,
      "t": 156647.57062500203,
      "d": 267.8568749999977,
      "v": 99
    },
    {
      "midi": 63,
      "hit": false,
      "t": 157406.498437502,
      "d": 450.4865625000093,
      "v": 100
    },
    {
      "midi": 58,
      "hit": false,
      "t": 157410.55687500202,
      "d": 462.6618750000198,
      "v": 110
    },
    {
      "midi": 55,
      "hit": false,
      "t": 157422.73218750203,
      "d": 267.8568749999977,
      "v": 108
    },
    {
      "midi": 55,
      "hit": false,
      "t": 157901.62781250203,
      "d": 97.40249999999651,
      "v": 99
    },
    {
      "midi": 58,
      "hit": false,
      "t": 158197.89375000203,
      "d": 381.49312500000815,
      "v": 94
    },
    {
      "midi": 42,
      "hit": false,
      "t": 158197.89375000203,
      "d": 1452.9206249999988,
      "v": 114
    },
    {
      "midi": 60,
      "hit": false,
      "t": 158206.01062500203,
      "d": 365.2593749999942,
      "v": 107
    },
    {
      "midi": 54,
      "hit": false,
      "t": 158206.01062500203,
      "d": 503.2462499999965,
      "v": 116
    },
    {
      "midi": 58,
      "hit": false,
      "t": 158968.99687500202,
      "d": 312.499687500007,
      "v": 98
    },
    {
      "midi": 60,
      "hit": false,
      "t": 158977.11375000203,
      "d": 296.265937499993,
      "v": 104
    },
    {
      "midi": 54,
      "hit": false,
      "t": 158985.23062500203,
      "d": 361.2009374999907,
      "v": 114
    },
    {
      "midi": 58,
      "hit": false,
      "t": 159744.15843750202,
      "d": 401.7853124999965,
      "v": 106
    },
    {
      "midi": 54,
      "hit": false,
      "t": 159756.33375000203,
      "d": 296.265937499993,
      "v": 116
    },
    {
      "midi": 60,
      "hit": false,
      "t": 159756.33375000203,
      "d": 430.19437499999185,
      "v": 104
    },
    {
      "midi": 53,
      "hit": false,
      "t": 160531.49531250203,
      "d": 182.62968749998254,
      "v": 114
    },
    {
      "midi": 60,
      "hit": false,
      "t": 160531.49531250203,
      "d": 182.62968749998254,
      "v": 114
    },
    {
      "midi": 62,
      "hit": false,
      "t": 160531.49531250203,
      "d": 182.62968749998254,
      "v": 113
    },
    {
      "midi": 58,
      "hit": false,
      "t": 160539.61218750203,
      "d": 174.51281249997555,
      "v": 112
    },
    {
      "midi": 46,
      "hit": false,
      "t": 160563.96281250202,
      "d": 1639.6087499999558,
      "v": 106
    },
    {
      "midi": 53,
      "hit": false,
      "t": 161079.384375002,
      "d": 852.2718749999476,
      "v": 98
    },
    {
      "midi": 65,
      "hit": false,
      "t": 161318.832187502,
      "d": 154.2206249999872,
      "v": 114
    },
    {
      "midi": 58,
      "hit": false,
      "t": 161318.832187502,
      "d": 393.6684374999604,
      "v": 114
    },
    {
      "midi": 74,
      "hit": false,
      "t": 161562.33843750198,
      "d": 60.87656249999418,
      "v": 115
    },
    {
      "midi": 63,
      "hit": false,
      "t": 161805.84468750196,
      "d": 85.22718749998603,
      "v": 116
    },
    {
      "midi": 58,
      "hit": false,
      "t": 162061.52625000195,
      "d": 109.57781250003609,
      "v": 114
    },
    {
      "midi": 53,
      "hit": false,
      "t": 162069.64312500195,
      "d": 89.28562500001863,
      "v": 36
    },
    {
      "midi": 72,
      "hit": false,
      "t": 162077.76000000196,
      "d": 162.33750000002328,
      "v": 125
    },
    {
      "midi": 62,
      "hit": false,
      "t": 162317.207812502,
      "d": 312.499687500007,
      "v": 108
    },
    {
      "midi": 70,
      "hit": false,
      "t": 162556.655625002,
      "d": 73.05187500000466,
      "v": 116
    },
    {
      "midi": 43,
      "hit": false,
      "t": 162865.096875002,
      "d": 1517.8556250000256,
      "v": 94
    },
    {
      "midi": 53,
      "hit": false,
      "t": 162869.155312502,
      "d": 779.2200000000012,
      "v": 99
    },
    {
      "midi": 62,
      "hit": false,
      "t": 162889.447500002,
      "d": 349.0256250000093,
      "v": 110
    },
    {
      "midi": 67,
      "hit": false,
      "t": 162889.447500002,
      "d": 373.37625000000116,
      "v": 115
    },
    {
      "midi": 58,
      "hit": false,
      "t": 162889.447500002,
      "d": 405.84375,
      "v": 112
    },
    {
      "midi": 62,
      "hit": false,
      "t": 163656.492187502,
      "d": 349.0256250000093,
      "v": 108
    },
    {
      "midi": 67,
      "hit": false,
      "t": 163656.492187502,
      "d": 389.61000000001513,
      "v": 107
    },
    {
      "midi": 58,
      "hit": false,
      "t": 163656.492187502,
      "d": 422.07750000001397,
      "v": 110
    },
    {
      "midi": 53,
      "hit": false,
      "t": 164115.09562500202,
      "d": 296.265937499993,
      "v": 72
    },
    {
      "midi": 58,
      "hit": false,
      "t": 164427.59531250203,
      "d": 259.7400000000198,
      "v": 114
    },
    {
      "midi": 62,
      "hit": false,
      "t": 164431.65375000203,
      "d": 263.7984375000233,
      "v": 111
    },
    {
      "midi": 67,
      "hit": false,
      "t": 164435.71218750204,
      "d": 296.2659375000221,
      "v": 111
    },
    {
      "midi": 55,
      "hit": false,
      "t": 164918.66625000205,
      "d": 170.45437500000116,
      "v": 95
    },
    {
      "midi": 62,
      "hit": false,
      "t": 165194.64000000205,
      "d": 52.7596875000163,
      "v": 117
    },
    {
      "midi": 67,
      "hit": false,
      "t": 165194.64000000205,
      "d": 105.51937500000349,
      "v": 113
    },
    {
      "midi": 58,
      "hit": false,
      "t": 165198.69843750205,
      "d": 515.421562500007,
      "v": 100
    },
    {
      "midi": 52,
      "hit": false,
      "t": 165198.69843750205,
      "d": 1680.1931249999907,
      "v": 86
    },
    {
      "midi": 48,
      "hit": false,
      "t": 165202.75687500206,
      "d": 1732.952812500007,
      "v": 100
    },
    {
      "midi": 64,
      "hit": false,
      "t": 165210.87375000207,
      "d": 129.86999999999534,
      "v": 114
    },
    {
      "midi": 70,
      "hit": false,
      "t": 165462.49687500205,
      "d": 64.93499999999767,
      "v": 121
    },
    {
      "midi": 74,
      "hit": false,
      "t": 165466.55531250205,
      "d": 109.57781250000698,
      "v": 113
    },
    {
      "midi": 64,
      "hit": false,
      "t": 165689.76937500207,
      "d": 77.11031249997905,
      "v": 99
    },
    {
      "midi": 58,
      "hit": false,
      "t": 165961.68468750204,
      "d": 543.8306250000023,
      "v": 100
    },
    {
      "midi": 67,
      "hit": false,
      "t": 165981.97687500203,
      "d": 101.4609375,
      "v": 125
    },
    {
      "midi": 70,
      "hit": false,
      "t": 166213.30781250203,
      "d": 105.51937500000349,
      "v": 126
    },
    {
      "midi": 74,
      "hit": false,
      "t": 166213.30781250203,
      "d": 117.69468750001397,
      "v": 113
    },
    {
      "midi": 64,
      "hit": false,
      "t": 166473.04781250205,
      "d": 97.40249999999651,
      "v": 103
    },
    {
      "midi": 58,
      "hit": false,
      "t": 166732.78781250204,
      "d": 146.1037500000093,
      "v": 112
    },
    {
      "midi": 72,
      "hit": false,
      "t": 166740.90468750204,
      "d": 186.68812500001513,
      "v": 108
    },
    {
      "midi": 69,
      "hit": false,
      "t": 166744.96312500205,
      "d": 137.98687500000233,
      "v": 120
    },
    {
      "midi": 64,
      "hit": false,
      "t": 166992.52781250206,
      "d": 125.81156249999185,
      "v": 83
    },
    {
      "midi": 70,
      "hit": false,
      "t": 167276.61843750204,
      "d": 93.34406249999302,
      "v": 110
    },
    {
      "midi": 67,
      "hit": false,
      "t": 167284.73531250205,
      "d": 64.93499999999767,
      "v": 115
    },
    {
      "midi": 70,
      "hit": false,
      "t": 167560.70906250202,
      "d": 288.14906250001513,
      "v": 108
    },
    {
      "midi": 44,
      "hit": false,
      "t": 167560.70906250202,
      "d": 1684.2515624999942,
      "v": 94
    },
    {
      "midi": 63,
      "hit": false,
      "t": 167568.82593750203,
      "d": 320.61656250001397,
      "v": 118
    },
    {
      "midi": 54,
      "hit": false,
      "t": 167568.82593750203,
      "d": 491.07093750001513,
      "v": 106
    },
    {
      "midi": 60,
      "hit": false,
      "t": 167572.88437500203,
      "d": 389.61000000001513,
      "v": 113
    },
    {
      "midi": 54,
      "hit": false,
      "t": 168331.81218750204,
      "d": 422.07749999998487,
      "v": 108
    },
    {
      "midi": 60,
      "hit": false,
      "t": 168343.98750000205,
      "d": 259.7399999999907,
      "v": 104
    },
    {
      "midi": 58,
      "hit": false,
      "t": 168343.98750000205,
      "d": 280.03218749997905,
      "v": 100
    },
    {
      "midi": 58,
      "hit": false,
      "t": 169094.79843750203,
      "d": 288.14906249998603,
      "v": 112
    },
    {
      "midi": 60,
      "hit": false,
      "t": 169094.79843750203,
      "d": 507.3046874999709,
      "v": 108
    },
    {
      "midi": 54,
      "hit": false,
      "t": 169098.85687500203,
      "d": 89.28562499998952,
      "v": 118
    },
    {
      "midi": 58,
      "hit": false,
      "t": 169581.810937502,
      "d": 85.22718749998603,
      "v": 116
    },
    {
      "midi": 46,
      "hit": false,
      "t": 169890.252187502,
      "d": 856.3303125000384,
      "v": 106
    },
    {
      "midi": 53,
      "hit": false,
      "t": 169898.369062502,
      "d": 491.07093749998603,
      "v": 117
    },
    {
      "midi": 34,
      "hit": false,
      "t": 169898.369062502,
      "d": 888.7978125000373,
      "v": 108
    },
    {
      "midi": 58,
      "hit": false,
      "t": 169902.427500002,
      "d": 487.01249999998254,
      "v": 121
    },
    {
      "midi": 62,
      "hit": false,
      "t": 169902.427500002,
      "d": 495.1293749999895,
      "v": 118
    },
    {
      "midi": 60,
      "hit": false,
      "t": 169902.427500002,
      "d": 511.3631250000035,
      "v": 120
    },
    {
      "midi": 60,
      "hit": false,
      "t": 170624.829375002,
      "d": 413.9606250000361,
      "v": 123
    },
    {
      "midi": 58,
      "hit": false,
      "t": 170628.887812502,
      "d": 340.90875000003143,
      "v": 126
    },
    {
      "midi": 62,
      "hit": false,
      "t": 170632.94625000202,
      "d": 397.7268750000221,
      "v": 120
    },
    {
      "midi": 53,
      "hit": false,
      "t": 170641.06312500202,
      "d": 397.7268750000221,
      "v": 125
    },
    {
      "midi": 34,
      "hit": false,
      "t": 171140.25093750205,
      "d": 60.87656249999418,
      "v": 110
    },
    {
      "midi": 38,
      "hit": false,
      "t": 171412.16625000205,
      "d": 515.4215625000652,
      "v": 123
    },
    {
      "midi": 50,
      "hit": false,
      "t": 171416.22468750205,
      "d": 604.7071875000838,
      "v": 125
    },
    {
      "midi": 58,
      "hit": false,
      "t": 171420.28312500205,
      "d": 186.68812500001513,
      "v": 126
    },
    {
      "midi": 53,
      "hit": false,
      "t": 171424.34156250206,
      "d": 101.4609375,
      "v": 122
    },
    {
      "midi": 60,
      "hit": false,
      "t": 171424.34156250206,
      "d": 198.8634375000256,
      "v": 123
    },
    {
      "midi": 62,
      "hit": false,
      "t": 171432.45843750206,
      "d": 198.8634375000256,
      "v": 117
    },
    {
      "midi": 53,
      "hit": false,
      "t": 171639.4387500021,
      "d": 109.57781250000698,
      "v": 104
    },
    {
      "midi": 62,
      "hit": false,
      "t": 171935.70468750212,
      "d": 77.11031250000815,
      "v": 114
    },
    {
      "midi": 58,
      "hit": false,
      "t": 171939.76312500212,
      "d": 56.81812499999069,
      "v": 121
    },
    {
      "midi": 60,
      "hit": false,
      "t": 171943.82156250213,
      "d": 48.7012499999837,
      "v": 120
    },
    {
      "midi": 53,
      "hit": false,
      "t": 171947.88000000213,
      "d": 20.29218749998836,
      "v": 114
    },
    {
      "midi": 57,
      "hit": false,
      "t": 172231.9706250021,
      "d": 487.01250000001164,
      "v": 111
    },
    {
      "midi": 65,
      "hit": false,
      "t": 172240.08750000212,
      "d": 450.4865625000093,
      "v": 117
    },
    {
      "midi": 60,
      "hit": false,
      "t": 172240.08750000212,
      "d": 511.3631250000035,
      "v": 125
    },
    {
      "midi": 41,
      "hit": false,
      "t": 172240.08750000212,
      "d": 844.1549999999988,
      "v": 117
    },
    {
      "midi": 53,
      "hit": false,
      "t": 172240.08750000212,
      "d": 949.6743750000023,
      "v": 123
    },
    {
      "midi": 57,
      "hit": false,
      "t": 172946.25562500212,
      "d": 247.5646875000093,
      "v": 113
    },
    {
      "midi": 65,
      "hit": false,
      "t": 172950.31406250212,
      "d": 219.15562500001397,
      "v": 107
    },
    {
      "midi": 60,
      "hit": false,
      "t": 172954.37250000212,
      "d": 211.03875000000698,
      "v": 118
    },
    {
      "midi": 66,
      "hit": false,
      "t": 173745.76781250213,
      "d": 64.93500000002678,
      "v": 104
    },
    {
      "midi": 43,
      "hit": false,
      "t": 173749.82625000214,
      "d": 308.4412500000035,
      "v": 114
    },
    {
      "midi": 51,
      "hit": false,
      "t": 173753.88468750214,
      "d": 316.5581250000105,
      "v": 112
    },
    {
      "midi": 63,
      "hit": false,
      "t": 173757.94312500214,
      "d": 312.499687500007,
      "v": 118
    },
    {
      "midi": 58,
      "hit": false,
      "t": 173762.00156250215,
      "d": 296.265937499993,
      "v": 116
    },
    {
      "midi": 67,
      "hit": false,
      "t": 173762.00156250215,
      "d": 316.5581250000105,
      "v": 120
    },
    {
      "midi": 67,
      "hit": false,
      "t": 174565.57218750217,
      "d": 109.57781250000698,
      "v": 123
    },
    {
      "midi": 65,
      "hit": false,
      "t": 174565.57218750217,
      "d": 462.6618750000198,
      "v": 120
    },
    {
      "midi": 60,
      "hit": false,
      "t": 174577.74750000218,
      "d": 418.0190625000105,
      "v": 118
    },
    {
      "midi": 53,
      "hit": false,
      "t": 174577.74750000218,
      "d": 600.6487500000221,
      "v": 114
    },
    {
      "midi": 45,
      "hit": false,
      "t": 174581.80593750218,
      "d": 1546.26468750005,
      "v": 113
    },
    {
      "midi": 69,
      "hit": false,
      "t": 174675.15000000218,
      "d": 349.0256250000093,
      "v": 111
    },
    {
      "midi": 69,
      "hit": false,
      "t": 175340.7337500022,
      "d": 547.8890625000058,
      "v": 104
    },
    {
      "midi": 65,
      "hit": false,
      "t": 175340.7337500022,
      "d": 568.1812500000233,
      "v": 108
    },
    {
      "midi": 60,
      "hit": false,
      "t": 175348.8506250022,
      "d": 507.3046875,
      "v": 106
    },
    {
      "midi": 53,
      "hit": false,
      "t": 175352.9090625022,
      "d": 316.5581250000105,
      "v": 99
    },
    {
      "midi": 53,
      "hit": false,
      "t": 175900.7981250022,
      "d": 178.57125000000815,
      "v": 120
    },
    {
      "midi": 69,
      "hit": false,
      "t": 176136.18750000224,
      "d": 422.07750000001397,
      "v": 117
    },
    {
      "midi": 60,
      "hit": false,
      "t": 176140.24593750224,
      "d": 223.21406249998836,
      "v": 118
    },
    {
      "midi": 65,
      "hit": false,
      "t": 176375.63531250224,
      "d": 170.45437500000116,
      "v": 93
    },
    {
      "midi": 60,
      "hit": false,
      "t": 176619.14156250225,
      "d": 68.99343750000116,
      "v": 115
    },
    {
      "midi": 65,
      "hit": false,
      "t": 176627.25843750226,
      "d": 56.81812499999069,
      "v": 60
    },
    {
      "midi": 41,
      "hit": false,
      "t": 176627.25843750226,
      "d": 77.11031250000815,
      "v": 106
    },
    {
      "midi": 65,
      "hit": false,
      "t": 176915.40750000227,
      "d": 125.81156249999185,
      "v": 118
    },
    {
      "midi": 63,
      "hit": false,
      "t": 176915.40750000227,
      "d": 324.67500000001746,
      "v": 121
    },
    {
      "midi": 70,
      "hit": false,
      "t": 176915.40750000227,
      "d": 340.90875000003143,
      "v": 118
    },
    {
      "midi": 46,
      "hit": false,
      "t": 176915.40750000227,
      "d": 474.83718750003027,
      "v": 118
    },
    {
      "midi": 34,
      "hit": false,
      "t": 176915.40750000227,
      "d": 2118.504375000135,
      "v": 118
    },
    {
      "midi": 67,
      "hit": false,
      "t": 177053.39437500227,
      "d": 186.68812500001513,
      "v": 93
    },
    {
      "midi": 65,
      "hit": false,
      "t": 177633.7509375023,
      "d": 243.50625000003492,
      "v": 120
    },
    {
      "midi": 62,
      "hit": false,
      "t": 177637.8093750023,
      "d": 280.03218750003725,
      "v": 117
    },
    {
      "midi": 46,
      "hit": false,
      "t": 177637.8093750023,
      "d": 413.9606250000361,
      "v": 123
    },
    {
      "midi": 70,
      "hit": false,
      "t": 177654.04312500232,
      "d": 223.21406250001746,
      "v": 116
    },
    {
      "midi": 62,
      "hit": false,
      "t": 178433.26312500236,
      "d": 227.27250000002095,
      "v": 113
    },
    {
      "midi": 46,
      "hit": false,
      "t": 178441.38000000236,
      "d": 202.921875,
      "v": 118
    },
    {
      "midi": 53,
      "hit": false,
      "t": 178441.38000000236,
      "d": 211.03875000000698,
      "v": 122
    },
    {
      "midi": 58,
      "hit": false,
      "t": 178441.38000000236,
      "d": 235.38937500002794,
      "v": 116
    },
    {
      "midi": 46,
      "hit": false,
      "t": 178904.04187500238,
      "d": 121.75312500001746,
      "v": 118
    },
    {
      "midi": 58,
      "hit": false,
      "t": 178936.50937500238,
      "d": 206.9803125000326,
      "v": 123
    },
    {
      "midi": 62,
      "hit": false,
      "t": 178940.56781250238,
      "d": 198.8634375000256,
      "v": 120
    },
    {
      "midi": 53,
      "hit": false,
      "t": 178944.6262500024,
      "d": 146.1037500000093,
      "v": 118
    },
    {
      "midi": 43,
      "hit": false,
      "t": 179208.4246875024,
      "d": 24.350625000020955,
      "v": 114
    },
    {
      "midi": 31,
      "hit": false,
      "t": 179212.4831250024,
      "d": 24.350625000020955,
      "v": 120
    },
    {
      "midi": 60,
      "hit": false,
      "t": 179224.65843750242,
      "d": 190.74656250001863,
      "v": 120
    },
    {
      "midi": 57,
      "hit": false,
      "t": 179224.65843750242,
      "d": 219.15562500004307,
      "v": 113
    },
    {
      "midi": 65,
      "hit": false,
      "t": 179228.71687500243,
      "d": 202.9218750000291,
      "v": 113
    },
    {
      "midi": 43,
      "hit": false,
      "t": 179236.83375000244,
      "d": 568.1812500000233,
      "v": 115
    },
    {
      "midi": 31,
      "hit": false,
      "t": 179240.89218750244,
      "d": 1473.2128125000454,
      "v": 111
    },
    {
      "midi": 55,
      "hit": false,
      "t": 180003.87843750246,
      "d": 121.75312500001746,
      "v": 114
    },
    {
      "midi": 58,
      "hit": false,
      "t": 180003.87843750246,
      "d": 150.1621875000128,
      "v": 123
    },
    {
      "midi": 62,
      "hit": false,
      "t": 180007.93687500246,
      "d": 243.50625000000582,
      "v": 115
    },
    {
      "midi": 43,
      "hit": false,
      "t": 180020.11218750247,
      "d": 239.44781250000233,
      "v": 120
    },
    {
      "midi": 65,
      "hit": false,
      "t": 180811.50750000248,
      "d": 64.93499999999767,
      "v": 113
    },
    {
      "midi": 77,
      "hit": false,
      "t": 180811.50750000248,
      "d": 64.93499999999767,
      "v": 113
    },
    {
      "midi": 67,
      "hit": false,
      "t": 181071.24750000247,
      "d": 16.23375000001397,
      "v": 110
    },
    {
      "midi": 69,
      "hit": false,
      "t": 181071.24750000247,
      "d": 16.23375000001397,
      "v": 102
    },
    {
      "midi": 79,
      "hit": false,
      "t": 181071.24750000247,
      "d": 56.81812500001979,
      "v": 113
    },
    {
      "midi": 82,
      "hit": false,
      "t": 181306.6368750025,
      "d": 52.7596875000163,
      "v": 112
    },
    {
      "midi": 70,
      "hit": false,
      "t": 181314.7537500025,
      "d": 40.58437500000582,
      "v": 116
    },
    {
      "midi": 81,
      "hit": false,
      "t": 181590.7275000025,
      "d": 519.4800000000396,
      "v": 114
    },
    {
      "midi": 69,
      "hit": false,
      "t": 181594.78593750251,
      "d": 515.4215625000361,
      "v": 122
    },
    {
      "midi": 72,
      "hit": false,
      "t": 181594.78593750251,
      "d": 523.5384375000431,
      "v": 125
    },
    {
      "midi": 77,
      "hit": false,
      "t": 181602.90281250252,
      "d": 511.3631250000326,
      "v": 111
    },
    {
      "midi": 48,
      "hit": false,
      "t": 181606.96125000253,
      "d": 320.61656250001397,
      "v": 117
    },
    {
      "midi": 41,
      "hit": false,
      "t": 181611.01968750253,
      "d": 328.73343750002095,
      "v": 110
    },
    {
      "midi": 53,
      "hit": false,
      "t": 181615.07812500253,
      "d": 353.0840625000128,
      "v": 114
    },
    {
      "midi": 81,
      "hit": false,
      "t": 182378.06437500255,
      "d": 182.62968750001164,
      "v": 114
    },
    {
      "midi": 69,
      "hit": false,
      "t": 182378.06437500255,
      "d": 231.33093750002445,
      "v": 113
    },
    {
      "midi": 43,
      "hit": false,
      "t": 183047.70656250257,
      "d": 328.73343750002095,
      "v": 111
    },
    {
      "midi": 50,
      "hit": false,
      "t": 183141.0506250026,
      "d": 235.38937499999884,
      "v": 88
    },
    {
      "midi": 74,
      "hit": false,
      "t": 183149.1675000026,
      "d": 211.03874999997788,
      "v": 118
    },
    {
      "midi": 70,
      "hit": false,
      "t": 183149.1675000026,
      "d": 227.27249999999185,
      "v": 123
    },
    {
      "midi": 79,
      "hit": false,
      "t": 183149.1675000026,
      "d": 227.27249999999185,
      "v": 120
    },
    {
      "midi": 82,
      "hit": false,
      "t": 183149.1675000026,
      "d": 239.44781250000233,
      "v": 108
    },
    {
      "midi": 58,
      "hit": false,
      "t": 183153.2259375026,
      "d": 243.50625000000582,
      "v": 121
    },
    {
      "midi": 45,
      "hit": false,
      "t": 183818.80968750262,
      "d": 1619.3165625000547,
      "v": 93
    },
    {
      "midi": 81,
      "hit": false,
      "t": 183895.92000000263,
      "d": 487.01250000001164,
      "v": 111
    },
    {
      "midi": 84,
      "hit": false,
      "t": 183895.92000000263,
      "d": 487.01250000001164,
      "v": 117
    },
    {
      "midi": 53,
      "hit": false,
      "t": 183895.92000000263,
      "d": 738.6356250000244,
      "v": 85
    },
    {
      "midi": 72,
      "hit": false,
      "t": 183899.97843750264,
      "d": 474.83718750000116,
      "v": 125
    },
    {
      "midi": 77,
      "hit": false,
      "t": 183899.97843750264,
      "d": 495.1293750000186,
      "v": 122
    },
    {
      "midi": 60,
      "hit": false,
      "t": 183908.09531250264,
      "d": 1249.998750000028,
      "v": 118
    },
    {
      "midi": 84,
      "hit": false,
      "t": 184667.02312500266,
      "d": 170.45437500000116,
      "v": 115
    },
    {
      "midi": 72,
      "hit": false,
      "t": 184671.08156250266,
      "d": 109.57781250000698,
      "v": 123
    },
    {
      "midi": 53,
      "hit": false,
      "t": 185162.15250000267,
      "d": 340.9087500000023,
      "v": 113
    },
    {
      "midi": 60,
      "hit": false,
      "t": 185438.12625000268,
      "d": 129.87000000002445,
      "v": 113
    },
    {
      "midi": 89,
      "hit": false,
      "t": 185442.18468750268,
      "d": 77.11031250000815,
      "v": 106
    },
    {
      "midi": 77,
      "hit": false,
      "t": 185450.3015625027,
      "d": 60.87656249999418,
      "v": 114
    },
    {
      "midi": 79,
      "hit": false,
      "t": 185705.9831250027,
      "d": 48.701250000012806,
      "v": 111
    },
    {
      "midi": 91,
      "hit": false,
      "t": 185710.0415625027,
      "d": 56.81812500001979,
      "v": 113
    },
    {
      "midi": 94,
      "hit": false,
      "t": 185949.48937500274,
      "d": 64.93499999999767,
      "v": 114
    },
    {
      "midi": 82,
      "hit": false,
      "t": 185953.54781250274,
      "d": 73.05187500000466,
      "v": 118
    },
    {
      "midi": 87,
      "hit": false,
      "t": 186266.04750000275,
      "d": 369.3178125000559,
      "v": 118
    },
    {
      "midi": 82,
      "hit": false,
      "t": 186266.04750000275,
      "d": 397.7268750000512,
      "v": 121
    },
    {
      "midi": 91,
      "hit": false,
      "t": 186270.10593750275,
      "d": 373.3762500000594,
      "v": 117
    },
    {
      "midi": 94,
      "hit": false,
      "t": 186274.16437500276,
      "d": 349.0256250000384,
      "v": 106
    },
    {
      "midi": 63,
      "hit": false,
      "t": 186278.22281250276,
      "d": 320.61656250001397,
      "v": 121
    },
    {
      "midi": 58,
      "hit": false,
      "t": 186278.22281250276,
      "d": 332.79187500002445,
      "v": 112
    },
    {
      "midi": 51,
      "hit": false,
      "t": 186278.22281250276,
      "d": 361.2009375000489,
      "v": 106
    },
    {
      "midi": 55,
      "hit": false,
      "t": 186286.33968750277,
      "d": 300.3243749999965,
      "v": 97
    },
    {
      "midi": 94,
      "hit": false,
      "t": 187012.8000000028,
      "d": 211.0387500000361,
      "v": 110
    },
    {
      "midi": 82,
      "hit": false,
      "t": 187020.91687500282,
      "d": 239.44781250003143,
      "v": 112
    },
    {
      "midi": 86,
      "hit": false,
      "t": 187024.97531250282,
      "d": 198.8634375000256,
      "v": 110
    },
    {
      "midi": 89,
      "hit": false,
      "t": 187024.97531250282,
      "d": 198.8634375000256,
      "v": 111
    },
    {
      "midi": 58,
      "hit": false,
      "t": 187029.03375000283,
      "d": 178.57125000000815,
      "v": 116
    },
    {
      "midi": 50,
      "hit": false,
      "t": 187029.03375000283,
      "d": 194.80500000002212,
      "v": 114
    },
    {
      "midi": 62,
      "hit": false,
      "t": 187037.15062500283,
      "d": 170.45437500000116,
      "v": 115
    },
    {
      "midi": 58,
      "hit": false,
      "t": 187816.37062500286,
      "d": 223.21406250001746,
      "v": 110
    },
    {
      "midi": 46,
      "hit": false,
      "t": 187816.37062500286,
      "d": 275.97375000000466,
      "v": 104
    },
    {
      "midi": 70,
      "hit": false,
      "t": 187820.42906250287,
      "d": 328.73343749999185,
      "v": 116
    },
    {
      "midi": 53,
      "hit": false,
      "t": 187824.48750000287,
      "d": 206.9803125000035,
      "v": 113
    },
    {
      "midi": 74,
      "hit": false,
      "t": 187824.48750000287,
      "d": 324.67499999998836,
      "v": 114
    },
    {
      "midi": 65,
      "hit": false,
      "t": 187824.48750000287,
      "d": 381.49312499997905,
      "v": 110
    },
    {
      "midi": 43,
      "hit": false,
      "t": 188534.71406250284,
      "d": 1797.887812500092,
      "v": 107
    },
    {
      "midi": 50,
      "hit": false,
      "t": 188567.18156250284,
      "d": 1720.7775000000838,
      "v": 91
    },
    {
      "midi": 72,
      "hit": false,
      "t": 188603.70750000284,
      "d": 320.61656250001397,
      "v": 123
    },
    {
      "midi": 65,
      "hit": false,
      "t": 188603.70750000284,
      "d": 328.73343750002095,
      "v": 115
    },
    {
      "midi": 69,
      "hit": false,
      "t": 188611.82437500285,
      "d": 284.09062500001164,
      "v": 120
    },
    {
      "midi": 58,
      "hit": false,
      "t": 188611.82437500285,
      "d": 1201.2975000000442,
      "v": 123
    },
    {
      "midi": 70,
      "hit": false,
      "t": 189374.81062500286,
      "d": 491.07093750004424,
      "v": 112
    },
    {
      "midi": 62,
      "hit": false,
      "t": 189382.92750000287,
      "d": 454.5450000000128,
      "v": 110
    },
    {
      "midi": 67,
      "hit": false,
      "t": 189382.92750000287,
      "d": 470.7787500000268,
      "v": 117
    },
    {
      "midi": 58,
      "hit": false,
      "t": 190125.6215625029,
      "d": 146.1037500000093,
      "v": 110
    },
    {
      "midi": 67,
      "hit": false,
      "t": 190154.0306250029,
      "d": 158.2790625000198,
      "v": 115
    },
    {
      "midi": 62,
      "hit": false,
      "t": 190154.0306250029,
      "d": 170.45437500003027,
      "v": 113
    },
    {
      "midi": 63,
      "hit": false,
      "t": 190917.01687500294,
      "d": 401.7853125000256,
      "v": 106
    },
    {
      "midi": 58,
      "hit": false,
      "t": 190921.07531250294,
      "d": 393.6684375000186,
      "v": 110
    },
    {
      "midi": 55,
      "hit": false,
      "t": 190937.30906250296,
      "d": 316.5581250000105,
      "v": 102
    },
    {
      "midi": 51,
      "hit": false,
      "t": 190941.36750000296,
      "d": 762.9862500000163,
      "v": 102
    },
    {
      "midi": 39,
      "hit": false,
      "t": 190941.36750000296,
      "d": 1570.615312500071,
      "v": 82
    },
    {
      "midi": 63,
      "hit": false,
      "t": 191671.88625000298,
      "d": 418.0190625000105,
      "v": 110
    },
    {
      "midi": 58,
      "hit": false,
      "t": 191680.003125003,
      "d": 426.13593750001746,
      "v": 114
    },
    {
      "midi": 55,
      "hit": false,
      "t": 191684.061562503,
      "d": 324.67499999998836,
      "v": 110
    },
    {
      "midi": 63,
      "hit": false,
      "t": 192447.047812503,
      "d": 503.2462499999965,
      "v": 106
    },
    {
      "midi": 55,
      "hit": false,
      "t": 192455.164687503,
      "d": 271.91531250000116,
      "v": 107
    },
    {
      "midi": 58,
      "hit": false,
      "t": 192455.164687503,
      "d": 466.7203124999942,
      "v": 114
    },
    {
      "midi": 51,
      "hit": false,
      "t": 192467.34000000302,
      "d": 129.86999999999534,
      "v": 100
    },
    {
      "midi": 58,
      "hit": false,
      "t": 192978.703125003,
      "d": 64.93499999999767,
      "v": 51
    },
    {
      "midi": 55,
      "hit": false,
      "t": 192982.761562503,
      "d": 89.28562499998952,
      "v": 99
    },
    {
      "midi": 41,
      "hit": false,
      "t": 193274.969062503,
      "d": 1915.5825000000186,
      "v": 102
    },
    {
      "midi": 53,
      "hit": false,
      "t": 193279.027500003,
      "d": 551.9474999999802,
      "v": 110
    },
    {
      "midi": 62,
      "hit": false,
      "t": 193279.027500003,
      "d": 560.0643749999872,
      "v": 115
    },
    {
      "midi": 58,
      "hit": false,
      "t": 193279.027500003,
      "d": 576.2981250000012,
      "v": 114
    },
    {
      "midi": 62,
      "hit": false,
      "t": 194050.130625003,
      "d": 170.45437500000116,
      "v": 118
    },
    {
      "midi": 53,
      "hit": false,
      "t": 194289.578437503,
      "d": 182.62968750001164,
      "v": 88
    },
    {
      "midi": 58,
      "hit": false,
      "t": 194549.318437503,
      "d": 93.34406249999302,
      "v": 100
    },
    {
      "midi": 62,
      "hit": false,
      "t": 194833.409062503,
      "d": 349.0256250000093,
      "v": 123
    },
    {
      "midi": 58,
      "hit": false,
      "t": 195068.798437503,
      "d": 137.98687500003143,
      "v": 100
    },
    {
      "midi": 63,
      "hit": false,
      "t": 195600.453750003,
      "d": 535.7137500000536,
      "v": 112
    },
    {
      "midi": 55,
      "hit": false,
      "t": 195608.57062500302,
      "d": 515.4215625000361,
      "v": 104
    },
    {
      "midi": 58,
      "hit": false,
      "t": 195608.57062500302,
      "d": 527.5968750000466,
      "v": 114
    },
    {
      "midi": 43,
      "hit": false,
      "t": 195608.57062500302,
      "d": 1590.9075000000885,
      "v": 98
    },
    {
      "midi": 63,
      "hit": false,
      "t": 196347.20625000307,
      "d": 454.5450000000128,
      "v": 98
    },
    {
      "midi": 58,
      "hit": false,
      "t": 196355.32312500308,
      "d": 454.5450000000128,
      "v": 106
    },
    {
      "midi": 55,
      "hit": false,
      "t": 196363.4400000031,
      "d": 418.0190625000105,
      "v": 99
    },
    {
      "midi": 51,
      "hit": false,
      "t": 196826.1018750031,
      "d": 340.9087500000023,
      "v": 69
    },
    {
      "midi": 58,
      "hit": false,
      "t": 197122.3678125031,
      "d": 409.9021875000035,
      "v": 110
    },
    {
      "midi": 63,
      "hit": false,
      "t": 197122.3678125031,
      "d": 413.960625000007,
      "v": 102
    },
    {
      "midi": 55,
      "hit": false,
      "t": 197126.4262500031,
      "d": 405.84375,
      "v": 100
    },
    {
      "midi": 58,
      "hit": false,
      "t": 197905.6462500031,
      "d": 576.2981250000012,
      "v": 106
    },
    {
      "midi": 41,
      "hit": false,
      "t": 197905.6462500031,
      "d": 1850.647500000021,
      "v": 97
    },
    {
      "midi": 62,
      "hit": false,
      "t": 197909.7046875031,
      "d": 543.8306250000023,
      "v": 110
    },
    {
      "midi": 53,
      "hit": false,
      "t": 197921.88000000312,
      "d": 539.7721874999988,
      "v": 108
    },
    {
      "midi": 62,
      "hit": false,
      "t": 198692.9831250031,
      "d": 202.921875,
      "v": 115
    },
    {
      "midi": 53,
      "hit": false,
      "t": 198940.54781250312,
      "d": 166.39593749999767,
      "v": 92
    },
    {
      "midi": 58,
      "hit": false,
      "t": 199196.2293750031,
      "d": 89.28562499998952,
      "v": 96
    },
    {
      "midi": 58,
      "hit": false,
      "t": 199484.3784375031,
      "d": 60.87656249999418,
      "v": 116
    },
    {
      "midi": 60,
      "hit": false,
      "t": 199549.3134375031,
      "d": 113.63625000001048,
      "v": 110
    },
    {
      "midi": 58,
      "hit": false,
      "t": 199740.0600000031,
      "d": 158.2790625000198,
      "v": 116
    },
    {
      "midi": 55,
      "hit": false,
      "t": 199987.62468750312,
      "d": 85.22718749998603,
      "v": 111
    },
    {
      "midi": 63,
      "hit": false,
      "t": 200279.8321875031,
      "d": 357.1425000000163,
      "v": 114
    },
    {
      "midi": 67,
      "hit": false,
      "t": 200283.8906250031,
      "d": 361.2009375000198,
      "v": 115
    },
    {
      "midi": 55,
      "hit": false,
      "t": 200287.94906250312,
      "d": 308.4412500000035,
      "v": 106
    },
    {
      "midi": 58,
      "hit": false,
      "t": 200287.94906250312,
      "d": 308.4412500000035,
      "v": 112
    },
    {
      "midi": 51,
      "hit": false,
      "t": 200292.00750000312,
      "d": 746.7525000000314,
      "v": 84
    },
    {
      "midi": 39,
      "hit": false,
      "t": 200296.06593750312,
      "d": 762.9862500000163,
      "v": 96
    },
    {
      "midi": 63,
      "hit": false,
      "t": 201014.40937500313,
      "d": 247.5646875000093,
      "v": 91
    },
    {
      "midi": 58,
      "hit": false,
      "t": 201014.40937500313,
      "d": 259.7400000000198,
      "v": 81
    },
    {
      "midi": 67,
      "hit": false,
      "t": 201026.58468750314,
      "d": 215.09718750001048,
      "v": 99
    },
    {
      "midi": 67,
      "hit": false,
      "t": 201793.62937500316,
      "d": 206.9803125000035,
      "v": 106
    },
    {
      "midi": 63,
      "hit": false,
      "t": 201801.74625000317,
      "d": 211.03875000000698,
      "v": 98
    },
    {
      "midi": 58,
      "hit": false,
      "t": 201805.80468750317,
      "d": 231.33093749999534,
      "v": 106
    },
    {
      "midi": 60,
      "hit": false,
      "t": 202597.20000000315,
      "d": 255.6815625000163,
      "v": 120
    },
    {
      "midi": 62,
      "hit": false,
      "t": 202597.20000000315,
      "d": 255.6815625000163,
      "v": 108
    },
    {
      "midi": 58,
      "hit": false,
      "t": 202609.37531250317,
      "d": 271.91531250000116,
      "v": 106
    },
    {
      "midi": 65,
      "hit": false,
      "t": 202613.43375000317,
      "d": 296.265937499993,
      "v": 114
    },
    {
      "midi": 41,
      "hit": false,
      "t": 202617.49218750317,
      "d": 1895.2903125000012,
      "v": 113
    },
    {
      "midi": 58,
      "hit": false,
      "t": 203331.77718750318,
      "d": 206.9803125000035,
      "v": 104
    },
    {
      "midi": 62,
      "hit": false,
      "t": 203335.83562500318,
      "d": 194.80499999999302,
      "v": 108
    },
    {
      "midi": 53,
      "hit": false,
      "t": 203343.9525000032,
      "d": 255.6815624999872,
      "v": 100
    },
    {
      "midi": 51,
      "hit": false,
      "t": 204171.87375000317,
      "d": 271.91531250000116,
      "v": 106
    },
    {
      "midi": 57,
      "hit": false,
      "t": 204171.87375000317,
      "d": 275.97375000000466,
      "v": 99
    },
    {
      "midi": 60,
      "hit": false,
      "t": 204171.87375000317,
      "d": 288.14906250001513,
      "v": 107
    },
    {
      "midi": 46,
      "hit": false,
      "t": 204938.9184375032,
      "d": 1676.1346874999872,
      "v": 87
    },
    {
      "midi": 58,
      "hit": false,
      "t": 204938.9184375032,
      "d": 1716.719062499993,
      "v": 94
    },
    {
      "midi": 53,
      "hit": false,
      "t": 204942.9768750032,
      "d": 1647.7256249999919,
      "v": 95
    },
    {
      "midi": 62,
      "hit": false,
      "t": 204947.0353125032,
      "d": 162.33749999999418,
      "v": 113
    },
    {
      "midi": 65,
      "hit": false,
      "t": 205182.4246875032,
      "d": 109.57781250000698,
      "v": 86
    },
    {
      "midi": 67,
      "hit": false,
      "t": 205450.2815625032,
      "d": 101.4609375,
      "v": 90
    },
    {
      "midi": 70,
      "hit": false,
      "t": 205742.48906250318,
      "d": 81.16875000001164,
      "v": 114
    },
    {
      "midi": 72,
      "hit": false,
      "t": 205990.0537500032,
      "d": 77.11031250000815,
      "v": 108
    },
    {
      "midi": 74,
      "hit": false,
      "t": 206213.2678125032,
      "d": 85.22718749998603,
      "v": 106
    },
    {
      "midi": 72,
      "hit": false,
      "t": 206485.18312500318,
      "d": 97.40249999999651,
      "v": 113
    },
    {
      "midi": 70,
      "hit": false,
      "t": 206740.86468750317,
      "d": 85.22718749998603,
      "v": 106
    },
    {
      "midi": 67,
      "hit": false,
      "t": 207020.89687500315,
      "d": 64.93499999999767,
      "v": 103
    },
    {
      "midi": 58,
      "hit": false,
      "t": 207272.52000000313,
      "d": 1550.3231250000244,
      "v": 110
    },
    {
      "midi": 50,
      "hit": false,
      "t": 207276.57843750314,
      "d": 1586.8490625000268,
      "v": 107
    },
    {
      "midi": 65,
      "hit": false,
      "t": 207284.69531250314,
      "d": 162.33749999999418,
      "v": 114
    },
    {
      "midi": 62,
      "hit": false,
      "t": 207503.85093750313,
      "d": 150.1621875000128,
      "v": 90
    },
    {
      "midi": 65,
      "hit": false,
      "t": 207751.41562500314,
      "d": 137.98687500000233,
      "v": 83
    },
    {
      "midi": 67,
      "hit": false,
      "t": 208027.38937500314,
      "d": 174.51281250000466,
      "v": 110
    },
    {
      "midi": 62,
      "hit": false,
      "t": 208031.44781250315,
      "d": 142.04531250000582,
      "v": 111
    },
    {
      "midi": 65,
      "hit": false,
      "t": 208266.83718750314,
      "d": 97.40249999999651,
      "v": 95
    },
    {
      "midi": 70,
      "hit": false,
      "t": 208274.95406250315,
      "d": 113.63624999998137,
      "v": 104
    },
    {
      "midi": 67,
      "hit": false,
      "t": 208522.51875000313,
      "d": 105.51937500000349,
      "v": 95
    },
    {
      "midi": 65,
      "hit": false,
      "t": 208806.60937500314,
      "d": 178.57125000000815,
      "v": 115
    },
    {
      "midi": 62,
      "hit": false,
      "t": 209066.34937500316,
      "d": 154.2206249999872,
      "v": 84
    },
    {
      "midi": 58,
      "hit": false,
      "t": 209362.61531250316,
      "d": 77.11031250000815,
      "v": 112
    },
    {
      "midi": 51,
      "hit": false,
      "t": 209642.64750000316,
      "d": 1603.0828125000407,
      "v": 92
    },
    {
      "midi": 46,
      "hit": false,
      "t": 209646.70593750317,
      "d": 1546.264687500021,
      "v": 91
    },
    {
      "midi": 63,
      "hit": false,
      "t": 209654.82281250317,
      "d": 454.5449999999837,
      "v": 100
    },
    {
      "midi": 39,
      "hit": false,
      "t": 209654.82281250317,
      "d": 1546.264687500021,
      "v": 96
    },
    {
      "midi": 58,
      "hit": false,
      "t": 209658.88125000318,
      "d": 466.7203124999942,
      "v": 110
    },
    {
      "midi": 55,
      "hit": false,
      "t": 209666.99812500319,
      "d": 418.0190624999814,
      "v": 97
    },
    {
      "midi": 63,
      "hit": false,
      "t": 210389.40000000317,
      "d": 430.19437499999185,
      "v": 94
    },
    {
      "midi": 55,
      "hit": false,
      "t": 210393.45843750317,
      "d": 434.25281249999534,
      "v": 95
    },
    {
      "midi": 58,
      "hit": false,
      "t": 210393.45843750317,
      "d": 466.7203124999942,
      "v": 100
    },
    {
      "midi": 63,
      "hit": false,
      "t": 211144.26937500318,
      "d": 401.7853125000256,
      "v": 87
    },
    {
      "midi": 58,
      "hit": false,
      "t": 211148.32781250318,
      "d": 474.83718750003027,
      "v": 100
    },
    {
      "midi": 55,
      "hit": false,
      "t": 211164.5615625032,
      "d": 357.1425000000163,
      "v": 84
    },
    {
      "midi": 58,
      "hit": false,
      "t": 211947.8400000032,
      "d": 454.5450000000128,
      "v": 112
    },
    {
      "midi": 60,
      "hit": false,
      "t": 211947.8400000032,
      "d": 458.6034375000163,
      "v": 106
    },
    {
      "midi": 53,
      "hit": false,
      "t": 211947.8400000032,
      "d": 1083.6028125000303,
      "v": 93
    },
    {
      "midi": 41,
      "hit": false,
      "t": 211951.8984375032,
      "d": 1643.6671875000175,
      "v": 98
    },
    {
      "midi": 62,
      "hit": false,
      "t": 211955.9568750032,
      "d": 446.4281250000058,
      "v": 103
    },
    {
      "midi": 62,
      "hit": false,
      "t": 212735.1768750032,
      "d": 409.9021875000326,
      "v": 97
    },
    {
      "midi": 58,
      "hit": false,
      "t": 212735.1768750032,
      "d": 434.25281250002445,
      "v": 94
    },
    {
      "midi": 60,
      "hit": false,
      "t": 212747.35218750322,
      "d": 442.3696875000023,
      "v": 95
    },
    {
      "midi": 53,
      "hit": false,
      "t": 213230.30625000322,
      "d": 340.9087500000023,
      "v": 94
    },
    {
      "midi": 58,
      "hit": false,
      "t": 213506.28000000323,
      "d": 150.1621874999837,
      "v": 114
    },
    {
      "midi": 62,
      "hit": false,
      "t": 213506.28000000323,
      "d": 466.7203124999942,
      "v": 113
    },
    {
      "midi": 60,
      "hit": false,
      "t": 213761.96156250322,
      "d": 405.8437500000291,
      "v": 88
    },
    {
      "midi": 58,
      "hit": false,
      "t": 214021.70156250324,
      "d": 166.39593749999767,
      "v": 72
    },
    {
      "midi": 55,
      "hit": false,
      "t": 214326.08437500324,
      "d": 470.7787499999977,
      "v": 84
    },
    {
      "midi": 63,
      "hit": false,
      "t": 214326.08437500324,
      "d": 478.89562500000466,
      "v": 100
    },
    {
      "midi": 58,
      "hit": false,
      "t": 214326.08437500324,
      "d": 487.01250000001164,
      "v": 92
    },
    {
      "midi": 51,
      "hit": false,
      "t": 214326.08437500324,
      "d": 1615.2581250000221,
      "v": 94
    },
    {
      "midi": 43,
      "hit": false,
      "t": 214326.08437500324,
      "d": 1643.6671875000175,
      "v": 94
    },
    {
      "midi": 63,
      "hit": false,
      "t": 215072.83687500324,
      "d": 251.6231250000128,
      "v": 98
    },
    {
      "midi": 63,
      "hit": false,
      "t": 215823.64781250324,
      "d": 280.03218750000815,
      "v": 96
    },
    {
      "midi": 58,
      "hit": false,
      "t": 215835.82312500325,
      "d": 227.27249999999185,
      "v": 100
    },
    {
      "midi": 55,
      "hit": false,
      "t": 215843.94000000326,
      "d": 194.80499999999302,
      "v": 94
    },
    {
      "midi": 65,
      "hit": false,
      "t": 216347.18625000326,
      "d": 762.9862500000163,
      "v": 113
    },
    {
      "midi": 58,
      "hit": false,
      "t": 216635.33531250327,
      "d": 799.5121875000186,
      "v": 104
    },
    {
      "midi": 41,
      "hit": false,
      "t": 216643.45218750328,
      "d": 1806.0046875000698,
      "v": 100
    },
    {
      "midi": 53,
      "hit": false,
      "t": 216647.51062500328,
      "d": 799.5121875000186,
      "v": 97
    },
    {
      "midi": 62,
      "hit": false,
      "t": 216651.5690625033,
      "d": 779.2200000000012,
      "v": 72
    },
    {
      "midi": 60,
      "hit": false,
      "t": 216655.6275000033,
      "d": 758.9278124999837,
      "v": 59
    },
    {
      "midi": 29,
      "hit": false,
      "t": 218161.3078125033,
      "d": 166.39593750002678,
      "v": 98
    },
    {
      "midi": 51,
      "hit": false,
      "t": 218177.54156250332,
      "d": 133.92843749999884,
      "v": 98
    },
    {
      "midi": 60,
      "hit": false,
      "t": 218177.54156250332,
      "d": 194.80500000002212,
      "v": 98
    },
    {
      "midi": 57,
      "hit": false,
      "t": 218181.60000000332,
      "d": 142.04531250000582,
      "v": 87
    },
    {
      "midi": 70,
      "hit": false,
      "t": 218835.00843750336,
      "d": 499.1878125000221,
      "v": 75
    },
    {
      "midi": 74,
      "hit": false,
      "t": 218891.82656250335,
      "d": 426.13593750001746,
      "v": 93
    },
    {
      "midi": 34,
      "hit": false,
      "t": 218899.94343750336,
      "d": 434.25281250002445,
      "v": 71
    },
    {
      "midi": 77,
      "hit": false,
      "t": 218916.17718750337,
      "d": 426.13593750001746,
      "v": 97
    },
    {
      "midi": 46,
      "hit": false,
      "t": 218936.46937500336,
      "d": 409.9021875000326,
      "v": 104
    },
    {
      "midi": 82,
      "hit": false,
      "t": 218972.99531250336,
      "d": 369.3178125000268,
      "v": 98
    },
    {
      "midi": 65,
      "hit": false,
      "t": 221160.49312500338,
      "d": 361.2009374999907,
      "v": 86
    },
    {
      "midi": 70,
      "hit": false,
      "t": 221209.1943750034,
      "d": 324.67499999998836,
      "v": 58
    },
    {
      "midi": 72,
      "hit": false,
      "t": 221257.8956250034,
      "d": 308.4412499999744,
      "v": 66
    },
    {
      "midi": 74,
      "hit": false,
      "t": 221310.6553125034,
      "d": 215.09718749998137,
      "v": 83
    },
    {
      "midi": 77,
      "hit": false,
      "t": 221335.0059375034,
      "d": 219.15562499998487,
      "v": 111
    },
    {
      "midi": 65,
      "hit": false,
      "t": 221866.66125000338,
      "d": 133.92843749999884,
      "v": 77
    }
  ]
}