{
  "jsonPath": "Rock/Alternative Rock/Alanis Morissette/mary-jane-lp-version.json",
  "path": "Rock\\Alternative Rock\\Alanis Morissette\\Mary Jane (LP Version).mid",
  "name": "Mary Jane (LP Version)",
  "difficulty": "Advanced",
  "bpm": 92.00012880018032,
  "notes": [
    {
      "midi": 54,
      "hit": false,
      "t": 27391.266,
      "d": 163.0432499999988,
      "v": 98
    },
    {
      "midi": 57,
      "hit": false,
      "t": 27391.266,
      "d": 207.88014375000057,
      "v": 86
    },
    {
      "midi": 62,
      "hit": false,
      "t": 27391.266,
      "d": 400.8146562500042,
      "v": 104
    },
    {
      "midi": 50,
      "hit": false,
      "t": 27391.266,
      "d": 2039.3993187500164,
      "v": 86
    },
    {
      "midi": 54,
      "hit": false,
      "t": 27608.657,
      "d": 95.10856250000143,
      "v": 56
    },
    {
      "midi": 57,
      "hit": false,
      "t": 27608.657,
      "d": 139.9454562500032,
      "v": 21
    },
    {
      "midi": 54,
      "hit": false,
      "t": 27826.048000000003,
      "d": 111.41288749999876,
      "v": 21
    },
    {
      "midi": 57,
      "hit": false,
      "t": 27826.048000000003,
      "d": 127.71721249999973,
      "v": 30
    },
    {
      "midi": 62,
      "hit": false,
      "t": 27826.048000000003,
      "d": 146.73892500000147,
      "v": 21
    },
    {
      "midi": 54,
      "hit": false,
      "t": 28043.439000000006,
      "d": 172.5541062500015,
      "v": 99
    },
    {
      "midi": 57,
      "hit": false,
      "t": 28043.439000000006,
      "d": 328.803887500002,
      "v": 104
    },
    {
      "midi": 62,
      "hit": false,
      "t": 28043.439000000006,
      "d": 572.0100687500053,
      "v": 108
    },
    {
      "midi": 54,
      "hit": false,
      "t": 28260.83000000001,
      "d": 39.40211875000023,
      "v": 15
    },
    {
      "midi": 54,
      "hit": false,
      "t": 28478.22100000001,
      "d": 92.39117500000066,
      "v": 76
    },
    {
      "midi": 57,
      "hit": false,
      "t": 28478.22100000001,
      "d": 180.7062687500038,
      "v": 66
    },
    {
      "midi": 54,
      "hit": false,
      "t": 28695.612000000012,
      "d": 110.05419374999838,
      "v": 86
    },
    {
      "midi": 62,
      "hit": false,
      "t": 28695.612000000012,
      "d": 425.2711437500002,
      "v": 93
    },
    {
      "midi": 57,
      "hit": false,
      "t": 28695.612000000012,
      "d": 552.9883562499999,
      "v": 79
    },
    {
      "midi": 54,
      "hit": false,
      "t": 28913.00300000001,
      "d": 77.44554375000007,
      "v": 63
    },
    {
      "midi": 54,
      "hit": false,
      "t": 29130.39400000001,
      "d": 173.91280000000188,
      "v": 66
    },
    {
      "midi": 62,
      "hit": false,
      "t": 29347.785000000014,
      "d": 120.92374375000145,
      "v": 96
    },
    {
      "midi": 55,
      "hit": false,
      "t": 29347.785000000014,
      "d": 129.07590625000012,
      "v": 96
    },
    {
      "midi": 59,
      "hit": false,
      "t": 29347.785000000014,
      "d": 134.51068125000165,
      "v": 104
    },
    {
      "midi": 43,
      "hit": false,
      "t": 29347.785000000014,
      "d": 2014.9428312499986,
      "v": 66
    },
    {
      "midi": 62,
      "hit": false,
      "t": 29565.176000000018,
      "d": 96.46725625000181,
      "v": 38
    },
    {
      "midi": 59,
      "hit": false,
      "t": 29565.176000000018,
      "d": 103.2607250000001,
      "v": 51
    },
    {
      "midi": 55,
      "hit": false,
      "t": 29565.176000000018,
      "d": 111.41288749999876,
      "v": 63
    },
    {
      "midi": 55,
      "hit": false,
      "t": 29782.567000000017,
      "d": 129.07590625000012,
      "v": 60
    },
    {
      "midi": 59,
      "hit": false,
      "t": 29782.567000000017,
      "d": 129.07590625000012,
      "v": 56
    },
    {
      "midi": 62,
      "hit": false,
      "t": 29782.567000000017,
      "d": 131.79329375000088,
      "v": 21
    },
    {
      "midi": 55,
      "hit": false,
      "t": 29999.958000000017,
      "d": 138.58676249999917,
      "v": 93
    },
    {
      "midi": 59,
      "hit": false,
      "t": 29999.958000000017,
      "d": 355.9777624999988,
      "v": 99
    },
    {
      "midi": 62,
      "hit": false,
      "t": 29999.958000000017,
      "d": 612.7708812499986,
      "v": 91
    },
    {
      "midi": 55,
      "hit": false,
      "t": 30217.349000000017,
      "d": 100.54333749999932,
      "v": 38
    },
    {
      "midi": 55,
      "hit": false,
      "t": 30434.740000000016,
      "d": 145.3802312500011,
      "v": 63
    },
    {
      "midi": 59,
      "hit": false,
      "t": 30434.740000000016,
      "d": 184.78234999999768,
      "v": 51
    },
    {
      "midi": 62,
      "hit": false,
      "t": 30652.131000000012,
      "d": 133.15198750000127,
      "v": 107
    },
    {
      "midi": 55,
      "hit": false,
      "t": 30652.131000000012,
      "d": 135.86937500000204,
      "v": 104
    },
    {
      "midi": 59,
      "hit": false,
      "t": 30652.131000000012,
      "d": 138.5867625000028,
      "v": 111
    },
    {
      "midi": 59,
      "hit": false,
      "t": 30869.522000000015,
      "d": 126.35851874999935,
      "v": 51
    },
    {
      "midi": 55,
      "hit": false,
      "t": 30869.522000000015,
      "d": 290.76046249999854,
      "v": 30
    },
    {
      "midi": 62,
      "hit": false,
      "t": 30869.522000000015,
      "d": 398.0972687499998,
      "v": 60
    },
    {
      "midi": 59,
      "hit": false,
      "t": 31086.913000000015,
      "d": 201.08667499999865,
      "v": 38
    },
    {
      "midi": 54,
      "hit": false,
      "t": 31304.304000000015,
      "d": 164.4019437499992,
      "v": 106
    },
    {
      "midi": 57,
      "hit": false,
      "t": 31304.304000000015,
      "d": 563.8579062499994,
      "v": 56
    },
    {
      "midi": 62,
      "hit": false,
      "t": 31304.304000000015,
      "d": 569.2926812500009,
      "v": 46
    },
    {
      "midi": 50,
      "hit": false,
      "t": 31304.304000000015,
      "d": 2005.4319750000104,
      "v": 91
    },
    {
      "midi": 54,
      "hit": false,
      "t": 31521.695000000014,
      "d": 110.05419374999838,
      "v": 53
    },
    {
      "midi": 54,
      "hit": false,
      "t": 31739.086000000014,
      "d": 153.5323937500034,
      "v": 42
    },
    {
      "midi": 54,
      "hit": false,
      "t": 31956.477000000017,
      "d": 152.17369999999937,
      "v": 99
    },
    {
      "midi": 57,
      "hit": false,
      "t": 31956.477000000017,
      "d": 319.29303124999933,
      "v": 104
    },
    {
      "midi": 54,
      "hit": false,
      "t": 32173.868000000017,
      "d": 153.53239374999976,
      "v": 73
    },
    {
      "midi": 54,
      "hit": false,
      "t": 32391.259000000016,
      "d": 171.1954125000011,
      "v": 51
    },
    {
      "midi": 57,
      "hit": false,
      "t": 32391.259000000016,
      "d": 202.44536875000267,
      "v": 69
    },
    {
      "midi": 62,
      "hit": false,
      "t": 32608.65000000002,
      "d": 8.152162499998667,
      "v": 56
    },
    {
      "midi": 54,
      "hit": false,
      "t": 32608.65000000002,
      "d": 127.71721249999973,
      "v": 99
    },
    {
      "midi": 57,
      "hit": false,
      "t": 32608.65000000002,
      "d": 588.3143937500026,
      "v": 63
    },
    {
      "midi": 54,
      "hit": false,
      "t": 32826.04100000002,
      "d": 108.69550000000163,
      "v": 73
    },
    {
      "midi": 54,
      "hit": false,
      "t": 33043.43200000002,
      "d": 179.34757499999978,
      "v": 46
    },
    {
      "midi": 55,
      "hit": false,
      "t": 33260.823000000026,
      "d": 152.17369999999937,
      "v": 96
    },
    {
      "midi": 59,
      "hit": false,
      "t": 33260.823000000026,
      "d": 376.3581687499973,
      "v": 93
    },
    {
      "midi": 62,
      "hit": false,
      "t": 33260.823000000026,
      "d": 576.0861500000028,
      "v": 99
    },
    {
      "midi": 43,
      "hit": false,
      "t": 33260.823000000026,
      "d": 1994.562425000011,
      "v": 63
    },
    {
      "midi": 55,
      "hit": false,
      "t": 33478.21400000002,
      "d": 122.2824374999982,
      "v": 24
    },
    {
      "midi": 55,
      "hit": false,
      "t": 33695.605000000025,
      "d": 141.30415000000357,
      "v": 63
    },
    {
      "midi": 59,
      "hit": false,
      "t": 33695.605000000025,
      "d": 186.1410437500017,
      "v": 24
    },
    {
      "midi": 55,
      "hit": false,
      "t": 33912.99600000003,
      "d": 160.32586250000168,
      "v": 93
    },
    {
      "midi": 59,
      "hit": false,
      "t": 33912.99600000003,
      "d": 353.2603750000053,
      "v": 93
    },
    {
      "midi": 62,
      "hit": false,
      "t": 33912.99600000003,
      "d": 585.5970062500055,
      "v": 66
    },
    {
      "midi": 55,
      "hit": false,
      "t": 34130.38700000003,
      "d": 114.13027500000317,
      "v": 46
    },
    {
      "midi": 55,
      "hit": false,
      "t": 34347.778000000035,
      "d": 146.73892499999783,
      "v": 21
    },
    {
      "midi": 59,
      "hit": false,
      "t": 34347.778000000035,
      "d": 168.4780249999967,
      "v": 15
    },
    {
      "midi": 55,
      "hit": false,
      "t": 34565.16900000003,
      "d": 561.1405187499986,
      "v": 101
    },
    {
      "midi": 59,
      "hit": false,
      "t": 34565.16900000003,
      "d": 572.0100687500017,
      "v": 107
    },
    {
      "midi": 62,
      "hit": false,
      "t": 34565.16900000003,
      "d": 572.0100687500017,
      "v": 104
    },
    {
      "midi": 54,
      "hit": false,
      "t": 35217.34200000003,
      "d": 163.04325000000244,
      "v": 98
    },
    {
      "midi": 57,
      "hit": false,
      "t": 35217.34200000003,
      "d": 207.88014375000057,
      "v": 86
    },
    {
      "midi": 62,
      "hit": false,
      "t": 35217.34200000003,
      "d": 400.8146562499969,
      "v": 104
    },
    {
      "midi": 50,
      "hit": false,
      "t": 35217.34200000003,
      "d": 2039.3993187499873,
      "v": 86
    },
    {
      "midi": 54,
      "hit": false,
      "t": 35434.73300000004,
      "d": 95.10856249999779,
      "v": 56
    },
    {
      "midi": 57,
      "hit": false,
      "t": 35434.73300000004,
      "d": 139.9454562499959,
      "v": 21
    },
    {
      "midi": 54,
      "hit": false,
      "t": 35652.12400000003,
      "d": 111.4128875000024,
      "v": 21
    },
    {
      "midi": 57,
      "hit": false,
      "t": 35652.12400000003,
      "d": 127.71721249999973,
      "v": 30
    },
    {
      "midi": 62,
      "hit": false,
      "t": 35652.12400000003,
      "d": 146.73892499999783,
      "v": 21
    },
    {
      "midi": 54,
      "hit": false,
      "t": 35869.51500000003,
      "d": 172.55410624999786,
      "v": 99
    },
    {
      "midi": 57,
      "hit": false,
      "t": 35869.51500000003,
      "d": 328.8038874999911,
      "v": 104
    },
    {
      "midi": 62,
      "hit": false,
      "t": 35869.51500000003,
      "d": 572.0100687499871,
      "v": 108
    },
    {
      "midi": 54,
      "hit": false,
      "t": 36086.906000000025,
      "d": 39.40211874999659,
      "v": 15
    },
    {
      "midi": 54,
      "hit": false,
      "t": 36304.29700000002,
      "d": 92.39117499999702,
      "v": 76
    },
    {
      "midi": 57,
      "hit": false,
      "t": 36304.29700000002,
      "d": 180.7062687499929,
      "v": 66
    },
    {
      "midi": 54,
      "hit": false,
      "t": 36521.68800000002,
      "d": 110.05419375000201,
      "v": 86
    },
    {
      "midi": 62,
      "hit": false,
      "t": 36521.68800000002,
      "d": 425.27114375000383,
      "v": 93
    },
    {
      "midi": 57,
      "hit": false,
      "t": 36521.68800000002,
      "d": 552.9883562500036,
      "v": 79
    },
    {
      "midi": 54,
      "hit": false,
      "t": 36739.07900000002,
      "d": 77.44554375000007,
      "v": 63
    },
    {
      "midi": 54,
      "hit": false,
      "t": 36956.47000000002,
      "d": 173.91279999999824,
      "v": 66
    },
    {
      "midi": 62,
      "hit": false,
      "t": 37173.86100000002,
      "d": 120.92374375000509,
      "v": 96
    },
    {
      "midi": 55,
      "hit": false,
      "t": 37173.86100000002,
      "d": 129.0759062500074,
      "v": 96
    },
    {
      "midi": 59,
      "hit": false,
      "t": 37173.86100000002,
      "d": 134.51068125000893,
      "v": 104
    },
    {
      "midi": 43,
      "hit": false,
      "t": 37173.86100000002,
      "d": 2014.942831250024,
      "v": 66
    },
    {
      "midi": 62,
      "hit": false,
      "t": 37391.25200000003,
      "d": 96.46725624999817,
      "v": 38
    },
    {
      "midi": 59,
      "hit": false,
      "t": 37391.25200000003,
      "d": 103.2607250000001,
      "v": 51
    },
    {
      "midi": 55,
      "hit": false,
      "t": 37391.25200000003,
      "d": 111.4128875000024,
      "v": 63
    },
    {
      "midi": 55,
      "hit": false,
      "t": 37608.64300000003,
      "d": 129.07590625000012,
      "v": 60
    },
    {
      "midi": 59,
      "hit": false,
      "t": 37608.64300000003,
      "d": 129.07590625000012,
      "v": 56
    },
    {
      "midi": 62,
      "hit": false,
      "t": 37608.64300000003,
      "d": 131.79329375000088,
      "v": 21
    },
    {
      "midi": 55,
      "hit": false,
      "t": 37826.034000000036,
      "d": 138.5867625000028,
      "v": 93
    },
    {
      "midi": 59,
      "hit": false,
      "t": 37826.034000000036,
      "d": 355.97776250000607,
      "v": 99
    },
    {
      "midi": 62,
      "hit": false,
      "t": 37826.034000000036,
      "d": 612.7708812500059,
      "v": 91
    },
    {
      "midi": 55,
      "hit": false,
      "t": 38043.42500000004,
      "d": 100.54333749999932,
      "v": 38
    },
    {
      "midi": 55,
      "hit": false,
      "t": 38260.81600000004,
      "d": 145.38023124999745,
      "v": 63
    },
    {
      "midi": 59,
      "hit": false,
      "t": 38260.81600000004,
      "d": 184.78235000000132,
      "v": 51
    },
    {
      "midi": 62,
      "hit": false,
      "t": 38478.207000000046,
      "d": 133.15198750000127,
      "v": 107
    },
    {
      "midi": 55,
      "hit": false,
      "t": 38478.207000000046,
      "d": 135.86937500000204,
      "v": 104
    },
    {
      "midi": 59,
      "hit": false,
      "t": 38478.207000000046,
      "d": 138.5867625000028,
      "v": 111
    },
    {
      "midi": 59,
      "hit": false,
      "t": 38695.59800000005,
      "d": 126.35851874999935,
      "v": 51
    },
    {
      "midi": 55,
      "hit": false,
      "t": 38695.59800000005,
      "d": 290.7604624999949,
      "v": 30
    },
    {
      "midi": 62,
      "hit": false,
      "t": 38695.59800000005,
      "d": 398.09726874999615,
      "v": 60
    },
    {
      "midi": 59,
      "hit": false,
      "t": 38912.989000000045,
      "d": 201.08667499999865,
      "v": 38
    },
    {
      "midi": 54,
      "hit": false,
      "t": 39130.38000000004,
      "d": 164.40194375000283,
      "v": 106
    },
    {
      "midi": 57,
      "hit": false,
      "t": 39130.38000000004,
      "d": 563.8579062500066,
      "v": 56
    },
    {
      "midi": 62,
      "hit": false,
      "t": 39130.38000000004,
      "d": 569.2926812500082,
      "v": 46
    },
    {
      "midi": 50,
      "hit": false,
      "t": 39130.38000000004,
      "d": 2005.431975000014,
      "v": 91
    },
    {
      "midi": 54,
      "hit": false,
      "t": 39347.771000000044,
      "d": 110.05419375000201,
      "v": 53
    },
    {
      "midi": 54,
      "hit": false,
      "t": 39565.16200000005,
      "d": 153.53239374999976,
      "v": 42
    },
    {
      "midi": 54,
      "hit": false,
      "t": 39782.55300000005,
      "d": 152.17369999999937,
      "v": 99
    },
    {
      "midi": 57,
      "hit": false,
      "t": 39782.55300000005,
      "d": 319.2930312499957,
      "v": 104
    },
    {
      "midi": 54,
      "hit": false,
      "t": 39999.94400000005,
      "d": 153.53239374999976,
      "v": 73
    },
    {
      "midi": 54,
      "hit": false,
      "t": 40217.33500000005,
      "d": 171.19541249999747,
      "v": 51
    },
    {
      "midi": 57,
      "hit": false,
      "t": 40217.33500000005,
      "d": 202.44536874999903,
      "v": 69
    },
    {
      "midi": 62,
      "hit": false,
      "t": 40434.726000000046,
      "d": 8.152162500002305,
      "v": 56
    },
    {
      "midi": 54,
      "hit": false,
      "t": 40434.726000000046,
      "d": 127.71721249999973,
      "v": 99
    },
    {
      "midi": 57,
      "hit": false,
      "t": 40434.726000000046,
      "d": 588.3143937500063,
      "v": 63
    },
    {
      "midi": 54,
      "hit": false,
      "t": 40652.11700000005,
      "d": 108.69550000000163,
      "v": 73
    },
    {
      "midi": 54,
      "hit": false,
      "t": 40869.50800000005,
      "d": 179.34757499999978,
      "v": 46
    },
    {
      "midi": 55,
      "hit": false,
      "t": 41086.899000000056,
      "d": 152.17369999999937,
      "v": 96
    },
    {
      "midi": 59,
      "hit": false,
      "t": 41086.899000000056,
      "d": 376.3581687499973,
      "v": 93
    },
    {
      "midi": 62,
      "hit": false,
      "t": 41086.899000000056,
      "d": 576.0861500000028,
      "v": 99
    },
    {
      "midi": 43,
      "hit": false,
      "t": 41086.899000000056,
      "d": 1994.562425000011,
      "v": 63
    },
    {
      "midi": 55,
      "hit": false,
      "t": 41304.29000000005,
      "d": 122.2824374999982,
      "v": 24
    },
    {
      "midi": 55,
      "hit": false,
      "t": 41521.681000000055,
      "d": 141.30415000000357,
      "v": 63
    },
    {
      "midi": 59,
      "hit": false,
      "t": 41521.681000000055,
      "d": 186.1410437500017,
      "v": 24
    },
    {
      "midi": 55,
      "hit": false,
      "t": 41739.07200000006,
      "d": 160.32586250000168,
      "v": 93
    },
    {
      "midi": 59,
      "hit": false,
      "t": 41739.07200000006,
      "d": 353.2603750000053,
      "v": 93
    },
    {
      "midi": 62,
      "hit": false,
      "t": 41739.07200000006,
      "d": 585.5970062500055,
      "v": 66
    },
    {
      "midi": 55,
      "hit": false,
      "t": 41956.46300000006,
      "d": 114.13027500000317,
      "v": 46
    },
    {
      "midi": 55,
      "hit": false,
      "t": 42173.854000000065,
      "d": 146.73892499999783,
      "v": 21
    },
    {
      "midi": 59,
      "hit": false,
      "t": 42173.854000000065,
      "d": 168.4780249999967,
      "v": 15
    },
    {
      "midi": 55,
      "hit": false,
      "t": 42391.24500000006,
      "d": 561.1405187499986,
      "v": 101
    },
    {
      "midi": 59,
      "hit": false,
      "t": 42391.24500000006,
      "d": 572.0100687500017,
      "v": 107
    },
    {
      "midi": 62,
      "hit": false,
      "t": 42391.24500000006,
      "d": 572.0100687500017,
      "v": 104
    },
    {
      "midi": 60,
      "hit": false,
      "t": 43043.41800000006,
      "d": 873.6400812500069,
      "v": 111
    },
    {
      "midi": 67,
      "hit": false,
      "t": 43043.41800000006,
      "d": 1154.8896875000064,
      "v": 121
    },
    {
      "midi": 64,
      "hit": false,
      "t": 43043.41800000006,
      "d": 1210.5961312500076,
      "v": 119
    },
    {
      "midi": 48,
      "hit": false,
      "t": 43043.41800000006,
      "d": 1582.878218750011,
      "v": 111
    },
    {
      "midi": 60,
      "hit": false,
      "t": 44130.37300000007,
      "d": 209.23883750000095,
      "v": 56
    },
    {
      "midi": 67,
      "hit": false,
      "t": 44347.764000000076,
      "d": 28.53256875000079,
      "v": 63
    },
    {
      "midi": 60,
      "hit": false,
      "t": 44347.764000000076,
      "d": 569.2926812500009,
      "v": 109
    },
    {
      "midi": 64,
      "hit": false,
      "t": 44347.764000000076,
      "d": 627.7165125000029,
      "v": 99
    },
    {
      "midi": 55,
      "hit": false,
      "t": 44782.546000000075,
      "d": 89.67378750000353,
      "v": 60
    },
    {
      "midi": 48,
      "hit": false,
      "t": 44782.546000000075,
      "d": 180.70626875000016,
      "v": 79
    },
    {
      "midi": 59,
      "hit": false,
      "t": 44999.93700000008,
      "d": 869.5639999999985,
      "v": 66
    },
    {
      "midi": 63,
      "hit": false,
      "t": 44999.93700000008,
      "d": 1149.4549125000049,
      "v": 106
    },
    {
      "midi": 66,
      "hit": false,
      "t": 44999.93700000008,
      "d": 1167.1179312500026,
      "v": 95
    },
    {
      "midi": 47,
      "hit": false,
      "t": 44999.93700000008,
      "d": 1580.1608312500102,
      "v": 104
    },
    {
      "midi": 59,
      "hit": false,
      "t": 46086.89200000008,
      "d": 324.7278062500045,
      "v": 79
    },
    {
      "midi": 63,
      "hit": false,
      "t": 46304.28300000008,
      "d": 464.6732625000077,
      "v": 92
    },
    {
      "midi": 66,
      "hit": false,
      "t": 46304.28300000008,
      "d": 603.2600250000032,
      "v": 101
    },
    {
      "midi": 59,
      "hit": false,
      "t": 46521.67400000009,
      "d": 342.3908250000022,
      "v": 79
    },
    {
      "midi": 47,
      "hit": false,
      "t": 46739.06500000009,
      "d": 149.4563124999986,
      "v": 93
    },
    {
      "midi": 57,
      "hit": false,
      "t": 46956.456000000086,
      "d": 28.53256875000079,
      "v": 99
    },
    {
      "midi": 36,
      "hit": false,
      "t": 46956.456000000086,
      "d": 65.21730000000389,
      "v": 91
    },
    {
      "midi": 48,
      "hit": false,
      "t": 46956.456000000086,
      "d": 67.93468750000466,
      "v": 15
    },
    {
      "midi": 50,
      "hit": false,
      "t": 46956.456000000086,
      "d": 97.82595000000583,
      "v": 21
    },
    {
      "midi": 62,
      "hit": false,
      "t": 46956.456000000086,
      "d": 1006.7920687500009,
      "v": 110
    },
    {
      "midi": 66,
      "hit": false,
      "t": 46956.456000000086,
      "d": 1085.5963062500014,
      "v": 98
    },
    {
      "midi": 38,
      "hit": false,
      "t": 46956.456000000086,
      "d": 1841.030031250004,
      "v": 107
    },
    {
      "midi": 50,
      "hit": false,
      "t": 47608.62900000009,
      "d": 1641.3020499999984,
      "v": 99
    },
    {
      "midi": 57,
      "hit": false,
      "t": 48043.41100000009,
      "d": 335.5973562500003,
      "v": 42
    },
    {
      "midi": 66,
      "hit": false,
      "t": 48260.80200000009,
      "d": 427.9885312499973,
      "v": 103
    },
    {
      "midi": 62,
      "hit": false,
      "t": 48260.80200000009,
      "d": 1631.7911937499957,
      "v": 105
    },
    {
      "midi": 57,
      "hit": false,
      "t": 48478.19300000009,
      "d": 288.0430750000014,
      "v": 96
    },
    {
      "midi": 67,
      "hit": false,
      "t": 48695.58400000009,
      "d": 116.84766249999666,
      "v": 79
    },
    {
      "midi": 57,
      "hit": false,
      "t": 48912.975000000086,
      "d": 724.183768750001,
      "v": 76
    },
    {
      "midi": 66,
      "hit": false,
      "t": 48912.975000000086,
      "d": 1210.5961312500003,
      "v": 109
    },
    {
      "midi": 38,
      "hit": false,
      "t": 48912.975000000086,
      "d": 1811.1387687499882,
      "v": 93
    },
    {
      "midi": 50,
      "hit": false,
      "t": 49565.14800000009,
      "d": 827.4444937499939,
      "v": 105
    },
    {
      "midi": 62,
      "hit": false,
      "t": 49999.93000000009,
      "d": 82.8803187500016,
      "v": 86
    },
    {
      "midi": 45,
      "hit": false,
      "t": 49999.93000000009,
      "d": 781.2489062499881,
      "v": 42
    },
    {
      "midi": 64,
      "hit": false,
      "t": 50217.32100000008,
      "d": 415.76028749999386,
      "v": 113
    },
    {
      "midi": 69,
      "hit": false,
      "t": 50217.32100000008,
      "d": 561.1405187499913,
      "v": 119
    },
    {
      "midi": 66,
      "hit": false,
      "t": 50434.71200000008,
      "d": 197.0105937499975,
      "v": 99
    },
    {
      "midi": 62,
      "hit": false,
      "t": 50652.103000000076,
      "d": 123.64113124999858,
      "v": 91
    },
    {
      "midi": 50,
      "hit": false,
      "t": 50652.103000000076,
      "d": 203.80406249999942,
      "v": 79
    },
    {
      "midi": 61,
      "hit": false,
      "t": 50869.49400000007,
      "d": 40.76081249999697,
      "v": 63
    },
    {
      "midi": 46,
      "hit": false,
      "t": 50869.49400000007,
      "d": 591.0317812499998,
      "v": 115
    },
    {
      "midi": 62,
      "hit": false,
      "t": 50869.49400000007,
      "d": 677.9881812500025,
      "v": 99
    },
    {
      "midi": 58,
      "hit": false,
      "t": 50869.49400000007,
      "d": 762.2271937500045,
      "v": 103
    },
    {
      "midi": 65,
      "hit": false,
      "t": 50869.49400000007,
      "d": 998.6399062500059,
      "v": 96
    },
    {
      "midi": 46,
      "hit": false,
      "t": 51521.667000000074,
      "d": 934.7813000000097,
      "v": 73
    },
    {
      "midi": 58,
      "hit": false,
      "t": 51956.44900000008,
      "d": 180.70626875000016,
      "v": 96
    },
    {
      "midi": 58,
      "hit": false,
      "t": 52173.840000000084,
      "d": 110.05419375000201,
      "v": 109
    },
    {
      "midi": 65,
      "hit": false,
      "t": 52173.840000000084,
      "d": 552.9883562499963,
      "v": 123
    },
    {
      "midi": 62,
      "hit": false,
      "t": 52173.840000000084,
      "d": 627.7165124999956,
      "v": 127
    },
    {
      "midi": 58,
      "hit": false,
      "t": 52391.23100000009,
      "d": 381.79294374999154,
      "v": 105
    },
    {
      "midi": 46,
      "hit": false,
      "t": 52608.62200000008,
      "d": 220.10838749999675,
      "v": 99
    },
    {
      "midi": 57,
      "hit": false,
      "t": 52826.01300000008,
      "d": 783.9662937500034,
      "v": 111
    },
    {
      "midi": 60,
      "hit": false,
      "t": 52826.01300000008,
      "d": 976.900806250007,
      "v": 111
    },
    {
      "midi": 65,
      "hit": false,
      "t": 52826.01300000008,
      "d": 1044.8354937500044,
      "v": 108
    },
    {
      "midi": 41,
      "hit": false,
      "t": 52826.01300000008,
      "d": 1798.9105250000066,
      "v": 79
    },
    {
      "midi": 53,
      "hit": false,
      "t": 53478.18600000008,
      "d": 846.4662062499992,
      "v": 79
    },
    {
      "midi": 57,
      "hit": false,
      "t": 53695.577000000085,
      "d": 197.0105937499975,
      "v": 99
    },
    {
      "midi": 57,
      "hit": false,
      "t": 53912.96800000008,
      "d": 110.05419375000201,
      "v": 21
    },
    {
      "midi": 65,
      "hit": false,
      "t": 54130.359000000084,
      "d": 464.6732625000004,
      "v": 112
    },
    {
      "midi": 60,
      "hit": false,
      "t": 54130.359000000084,
      "d": 635.8686749999979,
      "v": 112
    },
    {
      "midi": 57,
      "hit": false,
      "t": 54347.75000000008,
      "d": 514.9449312500001,
      "v": 96
    },
    {
      "midi": 53,
      "hit": false,
      "t": 54565.14100000008,
      "d": 107.33680625000125,
      "v": 111
    },
    {
      "midi": 66,
      "hit": false,
      "t": 54782.53200000008,
      "d": 615.4882687500067,
      "v": 127
    },
    {
      "midi": 62,
      "hit": false,
      "t": 54782.53200000008,
      "d": 642.6621437500071,
      "v": 115
    },
    {
      "midi": 38,
      "hit": false,
      "t": 54782.53200000008,
      "d": 1864.1278250000178,
      "v": 111
    },
    {
      "midi": 57,
      "hit": false,
      "t": 54999.92300000008,
      "d": 569.2926812500082,
      "v": 86
    },
    {
      "midi": 50,
      "hit": false,
      "t": 55217.314000000086,
      "d": 561.1405187500059,
      "v": 104
    },
    {
      "midi": 66,
      "hit": false,
      "t": 55434.70500000009,
      "d": 620.9230437500009,
      "v": 111
    },
    {
      "midi": 62,
      "hit": false,
      "t": 55434.70500000009,
      "d": 1001.3572937500066,
      "v": 109
    },
    {
      "midi": 57,
      "hit": false,
      "t": 55652.09600000009,
      "d": 493.2058312500012,
      "v": 60
    },
    {
      "midi": 50,
      "hit": false,
      "t": 55869.48700000009,
      "d": 1101.900631250006,
      "v": 104
    },
    {
      "midi": 66,
      "hit": false,
      "t": 56086.87800000009,
      "d": 482.3362812500054,
      "v": 101
    },
    {
      "midi": 57,
      "hit": false,
      "t": 56304.269000000095,
      "d": 493.2058312500012,
      "v": 79
    },
    {
      "midi": 62,
      "hit": false,
      "t": 56521.6600000001,
      "d": 770.3793562499995,
      "v": 91
    },
    {
      "midi": 45,
      "hit": false,
      "t": 56521.6600000001,
      "d": 2014.9428312499804,
      "v": 76
    },
    {
      "midi": 66,
      "hit": false,
      "t": 56739.051000000094,
      "d": 1116.846262500003,
      "v": 113
    },
    {
      "midi": 38,
      "hit": false,
      "t": 56739.051000000094,
      "d": 1811.138768749981,
      "v": 111
    },
    {
      "midi": 57,
      "hit": false,
      "t": 56956.4420000001,
      "d": 479.61889374999737,
      "v": 30
    },
    {
      "midi": 50,
      "hit": false,
      "t": 57391.2240000001,
      "d": 891.3030999999901,
      "v": 109
    },
    {
      "midi": 62,
      "hit": false,
      "t": 57608.61500000009,
      "d": 365.4886187500015,
      "v": 15
    },
    {
      "midi": 57,
      "hit": false,
      "t": 57826.006000000096,
      "d": 163.04324999999517,
      "v": 60
    },
    {
      "midi": 57,
      "hit": false,
      "t": 58043.39700000009,
      "d": 43.47819999999774,
      "v": 86
    },
    {
      "midi": 62,
      "hit": false,
      "t": 58043.39700000009,
      "d": 413.0428999999931,
      "v": 115
    },
    {
      "midi": 66,
      "hit": false,
      "t": 58043.39700000009,
      "d": 476.9015062499893,
      "v": 127
    },
    {
      "midi": 57,
      "hit": false,
      "t": 58260.78800000009,
      "d": 364.12992499998654,
      "v": 109
    },
    {
      "midi": 50,
      "hit": false,
      "t": 58478.179000000084,
      "d": 124.99982499999169,
      "v": 111
    },
    {
      "midi": 64,
      "hit": false,
      "t": 58695.57000000007,
      "d": 1237.7700062500007,
      "v": 119
    },
    {
      "midi": 60,
      "hit": false,
      "t": 58695.57000000007,
      "d": 1267.661268750002,
      "v": 101
    },
    {
      "midi": 36,
      "hit": false,
      "t": 58695.57000000007,
      "d": 1749.9975500000073,
      "v": 66
    },
    {
      "midi": 55,
      "hit": false,
      "t": 58912.961000000076,
      "d": 361.4125375000003,
      "v": 69
    },
    {
      "midi": 48,
      "hit": false,
      "t": 59130.35200000008,
      "d": 1104.6180187499995,
      "v": 93
    },
    {
      "midi": 55,
      "hit": false,
      "t": 59347.743000000075,
      "d": 248.64095624999754,
      "v": 15
    },
    {
      "midi": 55,
      "hit": false,
      "t": 59782.525000000074,
      "d": 328.80388750000566,
      "v": 69
    },
    {
      "midi": 64,
      "hit": false,
      "t": 59999.91600000008,
      "d": 495.923218750002,
      "v": 108
    },
    {
      "midi": 60,
      "hit": false,
      "t": 59999.91600000008,
      "d": 543.4775000000009,
      "v": 111
    },
    {
      "midi": 55,
      "hit": false,
      "t": 60217.30700000008,
      "d": 225.5431624999983,
      "v": 79
    },
    {
      "midi": 48,
      "hit": false,
      "t": 60434.69800000008,
      "d": 173.91279999999824,
      "v": 111
    },
    {
      "midi": 59,
      "hit": false,
      "t": 60652.08900000007,
      "d": 67.93468749999738,
      "v": 63
    },
    {
      "midi": 47,
      "hit": false,
      "t": 60652.08900000007,
      "d": 588.314393749999,
      "v": 116
    },
    {
      "midi": 66,
      "hit": false,
      "t": 60652.08900000007,
      "d": 1195.6505000000034,
      "v": 106
    },
    {
      "midi": 63,
      "hit": false,
      "t": 60652.08900000007,
      "d": 1245.922168750003,
      "v": 112
    },
    {
      "midi": 59,
      "hit": false,
      "t": 61086.87100000007,
      "d": 413.0429000000004,
      "v": 21
    },
    {
      "midi": 47,
      "hit": false,
      "t": 61304.262000000075,
      "d": 930.7052187500085,
      "v": 60
    },
    {
      "midi": 59,
      "hit": false,
      "t": 61739.044000000074,
      "d": 134.51068125000165,
      "v": 76
    },
    {
      "midi": 59,
      "hit": false,
      "t": 61956.43500000008,
      "d": 509.5101562500058,
      "v": 69
    },
    {
      "midi": 66,
      "hit": false,
      "t": 61956.43500000008,
      "d": 624.9991250000094,
      "v": 98
    },
    {
      "midi": 63,
      "hit": false,
      "t": 62173.82600000008,
      "d": 120.92374375000509,
      "v": 15
    },
    {
      "midi": 47,
      "hit": false,
      "t": 62391.217000000084,
      "d": 230.97793749999983,
      "v": 104
    },
    {
      "midi": 46,
      "hit": false,
      "t": 62608.60800000009,
      "d": 612.7708812499914,
      "v": 110
    },
    {
      "midi": 62,
      "hit": false,
      "t": 62608.60800000009,
      "d": 691.5751187499845,
      "v": 108
    },
    {
      "midi": 58,
      "hit": false,
      "t": 62608.60800000009,
      "d": 951.0856249999779,
      "v": 101
    },
    {
      "midi": 65,
      "hit": false,
      "t": 62608.60800000009,
      "d": 1101.9006312499769,
      "v": 99
    },
    {
      "midi": 64,
      "hit": false,
      "t": 62825.99900000008,
      "d": 150.815006249999,
      "v": 38
    },
    {
      "midi": 46,
      "hit": false,
      "t": 63260.781000000075,
      "d": 1013.585537499981,
      "v": 96
    },
    {
      "midi": 61,
      "hit": false,
      "t": 63478.17200000007,
      "d": 42.11950624999736,
      "v": 30
    },
    {
      "midi": 58,
      "hit": false,
      "t": 63695.56300000007,
      "d": 176.630187499999,
      "v": 79
    },
    {
      "midi": 58,
      "hit": false,
      "t": 63912.95400000006,
      "d": 171.19541249999747,
      "v": 66
    },
    {
      "midi": 62,
      "hit": false,
      "t": 63912.95400000006,
      "d": 629.0752062499887,
      "v": 96
    },
    {
      "midi": 65,
      "hit": false,
      "t": 63912.95400000006,
      "d": 714.6729124999838,
      "v": 93
    },
    {
      "midi": 58,
      "hit": false,
      "t": 64130.34500000006,
      "d": 311.1408687499934,
      "v": 66
    },
    {
      "midi": 46,
      "hit": false,
      "t": 64347.736000000055,
      "d": 152.17369999999937,
      "v": 73
    },
    {
      "midi": 47,
      "hit": false,
      "t": 64565.12700000005,
      "d": 23.097793749999255,
      "v": 69
    },
    {
      "midi": 57,
      "hit": false,
      "t": 64565.12700000005,
      "d": 177.9888812499994,
      "v": 107
    },
    {
      "midi": 64,
      "hit": false,
      "t": 64565.12700000005,
      "d": 925.2704437499924,
      "v": 104
    },
    {
      "midi": 61,
      "hit": false,
      "t": 64565.12700000005,
      "d": 1008.150762499994,
      "v": 112
    },
    {
      "midi": 45,
      "hit": false,
      "t": 64565.12700000005,
      "d": 2009.5080562499788,
      "v": 93
    },
    {
      "midi": 57,
      "hit": false,
      "t": 64782.51800000005,
      "d": 285.32568750000064,
      "v": 42
    },
    {
      "midi": 57,
      "hit": false,
      "t": 65217.30000000005,
      "d": 770.3793562499923,
      "v": 107
    },
    {
      "midi": 52,
      "hit": false,
      "t": 65652.08200000004,
      "d": 334.2386625000072,
      "v": 104
    },
    {
      "midi": 59,
      "hit": false,
      "t": 65869.47300000004,
      "d": 288.0430750000087,
      "v": 115
    },
    {
      "midi": 64,
      "hit": false,
      "t": 65869.47300000004,
      "d": 509.5101562500058,
      "v": 111
    },
    {
      "midi": 61,
      "hit": false,
      "t": 66086.86400000005,
      "d": 282.60830000000715,
      "v": 60
    },
    {
      "midi": 57,
      "hit": false,
      "t": 66304.25500000005,
      "d": 169.8367187499971,
      "v": 107
    },
    {
      "midi": 59,
      "hit": false,
      "t": 66304.25500000005,
      "d": 199.727981249991,
      "v": 99
    },
    {
      "midi": 56,
      "hit": false,
      "t": 66521.64600000004,
      "d": 688.8577312499983,
      "v": 111
    },
    {
      "midi": 59,
      "hit": false,
      "t": 66521.64600000004,
      "d": 990.4877437499963,
      "v": 107
    },
    {
      "midi": 64,
      "hit": false,
      "t": 66521.64600000004,
      "d": 1190.2157250000018,
      "v": 109
    },
    {
      "midi": 52,
      "hit": false,
      "t": 66521.64600000004,
      "d": 2120.9209437500103,
      "v": 115
    },
    {
      "midi": 40,
      "hit": false,
      "t": 67173.81900000003,
      "d": 1105.9767125000217,
      "v": 79
    },
    {
      "midi": 56,
      "hit": false,
      "t": 67608.60100000004,
      "d": 116.84766250000393,
      "v": 96
    },
    {
      "midi": 59,
      "hit": false,
      "t": 67608.60100000004,
      "d": 119.5650500000047,
      "v": 15
    },
    {
      "midi": 56,
      "hit": false,
      "t": 67825.99200000004,
      "d": 463.3145687500073,
      "v": 95
    },
    {
      "midi": 64,
      "hit": false,
      "t": 67825.99200000004,
      "d": 512.2275437500066,
      "v": 111
    },
    {
      "midi": 59,
      "hit": false,
      "t": 67825.99200000004,
      "d": 531.249256250012,
      "v": 111
    },
    {
      "midi": 47,
      "hit": false,
      "t": 68260.77400000005,
      "d": 2169.833918749995,
      "v": 99
    },
    {
      "midi": 57,
      "hit": false,
      "t": 68478.16500000005,
      "d": 820.6510249999992,
      "v": 111
    },
    {
      "midi": 64,
      "hit": false,
      "t": 68478.16500000005,
      "d": 1191.574418749995,
      "v": 116
    },
    {
      "midi": 59,
      "hit": false,
      "t": 68478.16500000005,
      "d": 1214.6722124999942,
      "v": 123
    },
    {
      "midi": 40,
      "hit": false,
      "t": 68478.16500000005,
      "d": 1921.1929624999902,
      "v": 109
    },
    {
      "midi": 52,
      "hit": false,
      "t": 69130.33800000005,
      "d": 843.7488187499985,
      "v": 104
    },
    {
      "midi": 57,
      "hit": false,
      "t": 69565.12000000005,
      "d": 145.38023124999017,
      "v": 91
    },
    {
      "midi": 59,
      "hit": false,
      "t": 69782.51100000004,
      "d": 529.8905625000043,
      "v": 111
    },
    {
      "midi": 64,
      "hit": false,
      "t": 69782.51100000004,
      "d": 589.6730875000067,
      "v": 127
    },
    {
      "midi": 57,
      "hit": false,
      "t": 69999.90200000005,
      "d": 381.7929437499988,
      "v": 107
    },
    {
      "midi": 52,
      "hit": false,
      "t": 70217.29300000005,
      "d": 177.9888812499994,
      "v": 108
    },
    {
      "midi": 44,
      "hit": false,
      "t": 70434.68400000004,
      "d": 16.30432500000461,
      "v": 21
    },
    {
      "midi": 57,
      "hit": false,
      "t": 70434.68400000004,
      "d": 726.9011562500091,
      "v": 115
    },
    {
      "midi": 61,
      "hit": false,
      "t": 70434.68400000004,
      "d": 986.4116625000024,
      "v": 106
    },
    {
      "midi": 64,
      "hit": false,
      "t": 70434.68400000004,
      "d": 1158.9657687500003,
      "v": 115
    },
    {
      "midi": 45,
      "hit": false,
      "t": 70434.68400000004,
      "d": 1771.7366500000062,
      "v": 109
    },
    {
      "midi": 52,
      "hit": false,
      "t": 71086.85700000005,
      "d": 960.5964812500024,
      "v": 109
    },
    {
      "midi": 57,
      "hit": false,
      "t": 71521.63900000004,
      "d": 44.8368937500054,
      "v": 111
    },
    {
      "midi": 64,
      "hit": false,
      "t": 71739.03000000004,
      "d": 557.0644374999974,
      "v": 111
    },
    {
      "midi": 62,
      "hit": false,
      "t": 71739.03000000004,
      "d": 581.5209250000044,
      "v": 111
    },
    {
      "midi": 57,
      "hit": false,
      "t": 71956.42100000005,
      "d": 368.20600624999497,
      "v": 91
    },
    {
      "midi": 52,
      "hit": false,
      "t": 72173.81200000005,
      "d": 203.80406249998487,
      "v": 96
    },
    {
      "midi": 57,
      "hit": false,
      "t": 72391.20300000004,
      "d": 107.33680624999397,
      "v": 104
    },
    {
      "midi": 61,
      "hit": false,
      "t": 72391.20300000004,
      "d": 580.1622312499967,
      "v": 111
    },
    {
      "midi": 64,
      "hit": false,
      "t": 72391.20300000004,
      "d": 1269.0199624999805,
      "v": 112
    },
    {
      "midi": 45,
      "hit": false,
      "t": 72391.20300000004,
      "d": 1948.3668374999688,
      "v": 108
    },
    {
      "midi": 57,
      "hit": false,
      "t": 72608.59400000003,
      "d": 366.84731250000186,
      "v": 66
    },
    {
      "midi": 52,
      "hit": false,
      "t": 72825.98500000003,
      "d": 1447.0088437499799,
      "v": 79
    },
    {
      "midi": 57,
      "hit": false,
      "t": 73043.37600000003,
      "d": 201.08667499999865,
      "v": 109
    },
    {
      "midi": 61,
      "hit": false,
      "t": 73043.37600000003,
      "d": 490.4884437499859,
      "v": 95
    },
    {
      "midi": 57,
      "hit": false,
      "t": 73478.15800000002,
      "d": 288.04307499999413,
      "v": 91
    },
    {
      "midi": 60,
      "hit": false,
      "t": 73695.54900000001,
      "d": 130.43460000000778,
      "v": 96
    },
    {
      "midi": 61,
      "hit": false,
      "t": 73695.54900000001,
      "d": 160.32586250000168,
      "v": 127
    },
    {
      "midi": 64,
      "hit": false,
      "t": 73695.54900000001,
      "d": 548.9122749999951,
      "v": 112
    },
    {
      "midi": 57,
      "hit": false,
      "t": 73912.94000000002,
      "d": 278.5322187499987,
      "v": 104
    },
    {
      "midi": 54,
      "hit": false,
      "t": 74347.72200000001,
      "d": 163.04325000000244,
      "v": 98
    },
    {
      "midi": 57,
      "hit": false,
      "t": 74347.72200000001,
      "d": 207.88014375000785,
      "v": 86
    },
    {
      "midi": 62,
      "hit": false,
      "t": 74347.72200000001,
      "d": 400.8146562500042,
      "v": 104
    },
    {
      "midi": 50,
      "hit": false,
      "t": 74347.72200000001,
      "d": 2039.3993187500018,
      "v": 86
    },
    {
      "midi": 54,
      "hit": false,
      "t": 74565.11300000001,
      "d": 95.10856249999779,
      "v": 56
    },
    {
      "midi": 57,
      "hit": false,
      "t": 74565.11300000001,
      "d": 139.9454562500032,
      "v": 21
    },
    {
      "midi": 54,
      "hit": false,
      "t": 74782.50400000002,
      "d": 111.4128875000024,
      "v": 21
    },
    {
      "midi": 57,
      "hit": false,
      "t": 74782.50400000002,
      "d": 127.71721250000701,
      "v": 30
    },
    {
      "midi": 62,
      "hit": false,
      "t": 74782.50400000002,
      "d": 146.7389250000124,
      "v": 21
    },
    {
      "midi": 54,
      "hit": false,
      "t": 74999.89500000003,
      "d": 172.55410624999786,
      "v": 99
    },
    {
      "midi": 57,
      "hit": false,
      "t": 74999.89500000003,
      "d": 328.80388750000566,
      "v": 104
    },
    {
      "midi": 62,
      "hit": false,
      "t": 74999.89500000003,
      "d": 572.0100687500089,
      "v": 108
    },
    {
      "midi": 54,
      "hit": false,
      "t": 75217.28600000004,
      "d": 39.402118750003865,
      "v": 15
    },
    {
      "midi": 54,
      "hit": false,
      "t": 75434.67700000004,
      "d": 92.39117499999702,
      "v": 76
    },
    {
      "midi": 57,
      "hit": false,
      "t": 75434.67700000004,
      "d": 180.70626875000016,
      "v": 66
    },
    {
      "midi": 54,
      "hit": false,
      "t": 75652.06800000004,
      "d": 110.05419374999474,
      "v": 86
    },
    {
      "midi": 62,
      "hit": false,
      "t": 75652.06800000004,
      "d": 425.271143749982,
      "v": 93
    },
    {
      "midi": 57,
      "hit": false,
      "t": 75652.06800000004,
      "d": 552.9883562499745,
      "v": 79
    },
    {
      "midi": 54,
      "hit": false,
      "t": 75869.45900000003,
      "d": 77.44554375000007,
      "v": 63
    },
    {
      "midi": 54,
      "hit": false,
      "t": 76086.85000000002,
      "d": 173.91279999999097,
      "v": 66
    },
    {
      "midi": 62,
      "hit": false,
      "t": 76304.24100000001,
      "d": 120.92374374999781,
      "v": 96
    },
    {
      "midi": 55,
      "hit": false,
      "t": 76304.24100000001,
      "d": 129.07590625000012,
      "v": 96
    },
    {
      "midi": 59,
      "hit": false,
      "t": 76304.24100000001,
      "d": 134.51068125000165,
      "v": 104
    },
    {
      "midi": 43,
      "hit": false,
      "t": 76304.24100000001,
      "d": 2014.9428312499658,
      "v": 66
    },
    {
      "midi": 62,
      "hit": false,
      "t": 76521.63200000001,
      "d": 96.46725625000545,
      "v": 38
    },
    {
      "midi": 59,
      "hit": false,
      "t": 76521.63200000001,
      "d": 103.2607250000001,
      "v": 51
    },
    {
      "midi": 55,
      "hit": false,
      "t": 76521.63200000001,
      "d": 111.4128875000024,
      "v": 63
    },
    {
      "midi": 55,
      "hit": false,
      "t": 76739.02300000002,
      "d": 129.07590625000012,
      "v": 60
    },
    {
      "midi": 59,
      "hit": false,
      "t": 76739.02300000002,
      "d": 129.07590625000012,
      "v": 56
    },
    {
      "midi": 62,
      "hit": false,
      "t": 76739.02300000002,
      "d": 131.79329375000088,
      "v": 21
    },
    {
      "midi": 55,
      "hit": false,
      "t": 76956.41400000002,
      "d": 138.58676249999553,
      "v": 93
    },
    {
      "midi": 59,
      "hit": false,
      "t": 76956.41400000002,
      "d": 355.97776249998424,
      "v": 99
    },
    {
      "midi": 62,
      "hit": false,
      "t": 76956.41400000002,
      "d": 612.7708812499768,
      "v": 91
    },
    {
      "midi": 55,
      "hit": false,
      "t": 77173.80500000001,
      "d": 100.54333749999932,
      "v": 38
    },
    {
      "midi": 55,
      "hit": false,
      "t": 77391.196,
      "d": 145.38023125000473,
      "v": 63
    },
    {
      "midi": 59,
      "hit": false,
      "t": 77391.196,
      "d": 184.78234999999404,
      "v": 51
    },
    {
      "midi": 62,
      "hit": false,
      "t": 77608.58699999998,
      "d": 133.151987499994,
      "v": 107
    },
    {
      "midi": 55,
      "hit": false,
      "t": 77608.58699999998,
      "d": 135.86937499999476,
      "v": 104
    },
    {
      "midi": 59,
      "hit": false,
      "t": 77608.58699999998,
      "d": 138.58676249999553,
      "v": 111
    },
    {
      "midi": 59,
      "hit": false,
      "t": 77825.97799999997,
      "d": 126.35851874999935,
      "v": 51
    },
    {
      "midi": 55,
      "hit": false,
      "t": 77825.97799999997,
      "d": 290.76046250000945,
      "v": 30
    },
    {
      "midi": 62,
      "hit": false,
      "t": 77825.97799999997,
      "d": 398.0972687500034,
      "v": 60
    },
    {
      "midi": 59,
      "hit": false,
      "t": 78043.36899999998,
      "d": 201.08667499999865,
      "v": 38
    },
    {
      "midi": 54,
      "hit": false,
      "t": 78260.75999999998,
      "d": 164.40194374999555,
      "v": 106
    },
    {
      "midi": 57,
      "hit": false,
      "t": 78260.75999999998,
      "d": 563.8579062499775,
      "v": 56
    },
    {
      "midi": 62,
      "hit": false,
      "t": 78260.75999999998,
      "d": 569.2926812499791,
      "v": 46
    },
    {
      "midi": 50,
      "hit": false,
      "t": 78260.75999999998,
      "d": 2005.4319749999995,
      "v": 91
    },
    {
      "midi": 54,
      "hit": false,
      "t": 78478.15099999997,
      "d": 110.05419374999474,
      "v": 53
    },
    {
      "midi": 54,
      "hit": false,
      "t": 78695.54199999996,
      "d": 153.53239375000703,
      "v": 42
    },
    {
      "midi": 54,
      "hit": false,
      "t": 78912.93299999996,
      "d": 152.17369999999937,
      "v": 99
    },
    {
      "midi": 57,
      "hit": false,
      "t": 78912.93299999996,
      "d": 319.29303125001024,
      "v": 104
    },
    {
      "midi": 54,
      "hit": false,
      "t": 79130.32399999996,
      "d": 153.53239375000703,
      "v": 73
    },
    {
      "midi": 54,
      "hit": false,
      "t": 79347.71499999997,
      "d": 171.19541250000475,
      "v": 51
    },
    {
      "midi": 57,
      "hit": false,
      "t": 79347.71499999997,
      "d": 202.4453687500063,
      "v": 69
    },
    {
      "midi": 62,
      "hit": false,
      "t": 79565.10599999997,
      "d": 8.152162500002305,
      "v": 56
    },
    {
      "midi": 54,
      "hit": false,
      "t": 79565.10599999997,
      "d": 127.71721250000701,
      "v": 99
    },
    {
      "midi": 57,
      "hit": false,
      "t": 79565.10599999997,
      "d": 588.3143937500136,
      "v": 63
    },
    {
      "midi": 54,
      "hit": false,
      "t": 79782.49699999997,
      "d": 108.69550000000163,
      "v": 73
    },
    {
      "midi": 54,
      "hit": false,
      "t": 79999.88799999998,
      "d": 179.34757500000705,
      "v": 46
    },
    {
      "midi": 55,
      "hit": false,
      "t": 80217.27899999998,
      "d": 152.17369999999937,
      "v": 96
    },
    {
      "midi": 59,
      "hit": false,
      "t": 80217.27899999998,
      "d": 376.3581687500118,
      "v": 93
    },
    {
      "midi": 62,
      "hit": false,
      "t": 80217.27899999998,
      "d": 576.0861500000028,
      "v": 99
    },
    {
      "midi": 43,
      "hit": false,
      "t": 80217.27899999998,
      "d": 1994.562425000011,
      "v": 63
    },
    {
      "midi": 55,
      "hit": false,
      "t": 80434.66999999998,
      "d": 122.28243750000547,
      "v": 24
    },
    {
      "midi": 55,
      "hit": false,
      "t": 80652.06099999999,
      "d": 141.3041499999963,
      "v": 63
    },
    {
      "midi": 59,
      "hit": false,
      "t": 80652.06099999999,
      "d": 186.1410437500017,
      "v": 24
    },
    {
      "midi": 55,
      "hit": false,
      "t": 80869.45199999999,
      "d": 160.32586250000168,
      "v": 93
    },
    {
      "midi": 59,
      "hit": false,
      "t": 80869.45199999999,
      "d": 353.2603750000126,
      "v": 93
    },
    {
      "midi": 62,
      "hit": false,
      "t": 80869.45199999999,
      "d": 585.5970062499982,
      "v": 66
    },
    {
      "midi": 55,
      "hit": false,
      "t": 81086.843,
      "d": 114.13027500000317,
      "v": 46
    },
    {
      "midi": 55,
      "hit": false,
      "t": 81304.234,
      "d": 146.73892499999783,
      "v": 21
    },
    {
      "midi": 59,
      "hit": false,
      "t": 81304.234,
      "d": 168.47802499998943,
      "v": 15
    },
    {
      "midi": 55,
      "hit": false,
      "t": 81521.62499999999,
      "d": 561.1405187500059,
      "v": 101
    },
    {
      "midi": 59,
      "hit": false,
      "t": 81521.62499999999,
      "d": 572.0100687500089,
      "v": 107
    },
    {
      "midi": 62,
      "hit": false,
      "t": 81521.62499999999,
      "d": 572.0100687500089,
      "v": 104
    },
    {
      "midi": 54,
      "hit": false,
      "t": 82173.798,
      "d": 163.04325000000244,
      "v": 98
    },
    {
      "midi": 57,
      "hit": false,
      "t": 82173.798,
      "d": 207.88014375000785,
      "v": 86
    },
    {
      "midi": 62,
      "hit": false,
      "t": 82173.798,
      "d": 400.8146562500042,
      "v": 104
    },
    {
      "midi": 50,
      "hit": false,
      "t": 82173.798,
      "d": 2039.3993187500018,
      "v": 86
    },
    {
      "midi": 54,
      "hit": false,
      "t": 82391.189,
      "d": 95.10856249999779,
      "v": 56
    },
    {
      "midi": 57,
      "hit": false,
      "t": 82391.189,
      "d": 139.9454562500032,
      "v": 21
    },
    {
      "midi": 54,
      "hit": false,
      "t": 82608.58,
      "d": 111.4128875000024,
      "v": 21
    },
    {
      "midi": 57,
      "hit": false,
      "t": 82608.58,
      "d": 127.71721250000701,
      "v": 30
    },
    {
      "midi": 62,
      "hit": false,
      "t": 82608.58,
      "d": 146.7389250000124,
      "v": 21
    },
    {
      "midi": 54,
      "hit": false,
      "t": 82825.97100000002,
      "d": 172.55410624999786,
      "v": 99
    },
    {
      "midi": 57,
      "hit": false,
      "t": 82825.97100000002,
      "d": 328.80388750000566,
      "v": 104
    },
    {
      "midi": 62,
      "hit": false,
      "t": 82825.97100000002,
      "d": 572.0100687500089,
      "v": 108
    },
    {
      "midi": 54,
      "hit": false,
      "t": 83043.36200000002,
      "d": 39.402118750003865,
      "v": 15
    },
    {
      "midi": 54,
      "hit": false,
      "t": 83260.75300000003,
      "d": 92.39117499999702,
      "v": 76
    },
    {
      "midi": 57,
      "hit": false,
      "t": 83260.75300000003,
      "d": 180.70626875000016,
      "v": 66
    },
    {
      "midi": 54,
      "hit": false,
      "t": 83478.14400000003,
      "d": 110.05419374999474,
      "v": 86
    },
    {
      "midi": 62,
      "hit": false,
      "t": 83478.14400000003,
      "d": 425.271143749982,
      "v": 93
    },
    {
      "midi": 57,
      "hit": false,
      "t": 83478.14400000003,
      "d": 552.9883562499745,
      "v": 79
    },
    {
      "midi": 54,
      "hit": false,
      "t": 83695.53500000002,
      "d": 77.44554375000007,
      "v": 63
    },
    {
      "midi": 54,
      "hit": false,
      "t": 83912.926,
      "d": 173.91279999999097,
      "v": 66
    },
    {
      "midi": 62,
      "hit": false,
      "t": 84130.317,
      "d": 120.92374374999781,
      "v": 96
    },
    {
      "midi": 55,
      "hit": false,
      "t": 84130.317,
      "d": 129.07590625000012,
      "v": 96
    },
    {
      "midi": 59,
      "hit": false,
      "t": 84130.317,
      "d": 134.51068125000165,
      "v": 104
    },
    {
      "midi": 43,
      "hit": false,
      "t": 84130.317,
      "d": 2014.9428312499658,
      "v": 66
    },
    {
      "midi": 62,
      "hit": false,
      "t": 84347.708,
      "d": 96.46725625000545,
      "v": 38
    },
    {
      "midi": 59,
      "hit": false,
      "t": 84347.708,
      "d": 103.2607250000001,
      "v": 51
    },
    {
      "midi": 55,
      "hit": false,
      "t": 84347.708,
      "d": 111.4128875000024,
      "v": 63
    },
    {
      "midi": 55,
      "hit": false,
      "t": 84565.099,
      "d": 129.07590625000012,
      "v": 60
    },
    {
      "midi": 59,
      "hit": false,
      "t": 84565.099,
      "d": 129.07590625000012,
      "v": 56
    },
    {
      "midi": 62,
      "hit": false,
      "t": 84565.099,
      "d": 131.79329375000088,
      "v": 21
    },
    {
      "midi": 55,
      "hit": false,
      "t": 84782.49,
      "d": 138.58676249999553,
      "v": 93
    },
    {
      "midi": 59,
      "hit": false,
      "t": 84782.49,
      "d": 355.97776249998424,
      "v": 99
    },
    {
      "midi": 62,
      "hit": false,
      "t": 84782.49,
      "d": 612.7708812499768,
      "v": 91
    },
    {
      "midi": 55,
      "hit": false,
      "t": 84999.881,
      "d": 100.54333749999932,
      "v": 38
    },
    {
      "midi": 55,
      "hit": false,
      "t": 85217.27199999998,
      "d": 145.38023125000473,
      "v": 63
    },
    {
      "midi": 59,
      "hit": false,
      "t": 85217.27199999998,
      "d": 184.78234999999404,
      "v": 51
    },
    {
      "midi": 62,
      "hit": false,
      "t": 85434.66299999997,
      "d": 133.151987499994,
      "v": 107
    },
    {
      "midi": 55,
      "hit": false,
      "t": 85434.66299999997,
      "d": 135.86937499999476,
      "v": 104
    },
    {
      "midi": 59,
      "hit": false,
      "t": 85434.66299999997,
      "d": 138.58676249999553,
      "v": 111
    },
    {
      "midi": 59,
      "hit": false,
      "t": 85652.05399999996,
      "d": 126.35851874999935,
      "v": 51
    },
    {
      "midi": 55,
      "hit": false,
      "t": 85652.05399999996,
      "d": 290.76046250000945,
      "v": 30
    },
    {
      "midi": 62,
      "hit": false,
      "t": 85652.05399999996,
      "d": 398.0972687500034,
      "v": 60
    },
    {
      "midi": 59,
      "hit": false,
      "t": 85869.44499999996,
      "d": 201.08667499999865,
      "v": 38
    },
    {
      "midi": 54,
      "hit": false,
      "t": 86086.83599999997,
      "d": 164.40194374999555,
      "v": 106
    },
    {
      "midi": 57,
      "hit": false,
      "t": 86086.83599999997,
      "d": 563.8579062499775,
      "v": 56
    },
    {
      "midi": 62,
      "hit": false,
      "t": 86086.83599999997,
      "d": 569.2926812499791,
      "v": 46
    },
    {
      "midi": 50,
      "hit": false,
      "t": 86086.83599999997,
      "d": 2005.4319749999995,
      "v": 91
    },
    {
      "midi": 54,
      "hit": false,
      "t": 86304.22699999996,
      "d": 110.05419374999474,
      "v": 53
    },
    {
      "midi": 54,
      "hit": false,
      "t": 86521.61799999994,
      "d": 153.53239375000703,
      "v": 42
    },
    {
      "midi": 54,
      "hit": false,
      "t": 86739.00899999995,
      "d": 152.17369999999937,
      "v": 99
    },
    {
      "midi": 57,
      "hit": false,
      "t": 86739.00899999995,
      "d": 319.29303125001024,
      "v": 104
    },
    {
      "midi": 54,
      "hit": false,
      "t": 86956.39999999995,
      "d": 153.53239375000703,
      "v": 73
    },
    {
      "midi": 54,
      "hit": false,
      "t": 87173.79099999995,
      "d": 171.19541250000475,
      "v": 51
    },
    {
      "midi": 57,
      "hit": false,
      "t": 87173.79099999995,
      "d": 202.4453687500063,
      "v": 69
    },
    {
      "midi": 62,
      "hit": false,
      "t": 87391.18199999996,
      "d": 8.152162500002305,
      "v": 56
    },
    {
      "midi": 54,
      "hit": false,
      "t": 87391.18199999996,
      "d": 127.71721250000701,
      "v": 99
    },
    {
      "midi": 57,
      "hit": false,
      "t": 87391.18199999996,
      "d": 588.3143937500136,
      "v": 63
    },
    {
      "midi": 54,
      "hit": false,
      "t": 87608.57299999996,
      "d": 108.69550000000163,
      "v": 73
    },
    {
      "midi": 54,
      "hit": false,
      "t": 87825.96399999996,
      "d": 179.34757500000705,
      "v": 46
    },
    {
      "midi": 55,
      "hit": false,
      "t": 88043.35499999997,
      "d": 152.17369999999937,
      "v": 96
    },
    {
      "midi": 59,
      "hit": false,
      "t": 88043.35499999997,
      "d": 376.3581687500118,
      "v": 93
    },
    {
      "midi": 62,
      "hit": false,
      "t": 88043.35499999997,
      "d": 576.0861500000028,
      "v": 99
    },
    {
      "midi": 43,
      "hit": false,
      "t": 88043.35499999997,
      "d": 1994.562425000011,
      "v": 63
    },
    {
      "midi": 55,
      "hit": false,
      "t": 88260.74599999997,
      "d": 122.28243750000547,
      "v": 24
    },
    {
      "midi": 55,
      "hit": false,
      "t": 88478.13699999997,
      "d": 141.3041499999963,
      "v": 63
    },
    {
      "midi": 59,
      "hit": false,
      "t": 88478.13699999997,
      "d": 186.1410437500017,
      "v": 24
    },
    {
      "midi": 55,
      "hit": false,
      "t": 88695.52799999998,
      "d": 160.32586250000168,
      "v": 93
    },
    {
      "midi": 59,
      "hit": false,
      "t": 88695.52799999998,
      "d": 353.2603750000126,
      "v": 93
    },
    {
      "midi": 62,
      "hit": false,
      "t": 88695.52799999998,
      "d": 585.5970062499982,
      "v": 66
    },
    {
      "midi": 55,
      "hit": false,
      "t": 88912.91899999998,
      "d": 114.13027500000317,
      "v": 46
    },
    {
      "midi": 55,
      "hit": false,
      "t": 89130.30999999998,
      "d": 146.73892499999783,
      "v": 21
    },
    {
      "midi": 59,
      "hit": false,
      "t": 89130.30999999998,
      "d": 168.47802499998943,
      "v": 15
    },
    {
      "midi": 55,
      "hit": false,
      "t": 89347.70099999997,
      "d": 561.1405187500059,
      "v": 101
    },
    {
      "midi": 59,
      "hit": false,
      "t": 89347.70099999997,
      "d": 572.0100687500089,
      "v": 107
    },
    {
      "midi": 62,
      "hit": false,
      "t": 89347.70099999997,
      "d": 572.0100687500089,
      "v": 104
    },
    {
      "midi": 54,
      "hit": false,
      "t": 89999.87399999998,
      "d": 163.04325000000244,
      "v": 98
    },
    {
      "midi": 57,
      "hit": false,
      "t": 89999.87399999998,
      "d": 207.88014375000785,
      "v": 86
    },
    {
      "midi": 62,
      "hit": false,
      "t": 89999.87399999998,
      "d": 400.8146562500042,
      "v": 104
    },
    {
      "midi": 50,
      "hit": false,
      "t": 89999.87399999998,
      "d": 2039.3993187500018,
      "v": 86
    },
    {
      "midi": 54,
      "hit": false,
      "t": 90217.26499999998,
      "d": 95.10856249999779,
      "v": 56
    },
    {
      "midi": 57,
      "hit": false,
      "t": 90217.26499999998,
      "d": 139.9454562500032,
      "v": 21
    },
    {
      "midi": 54,
      "hit": false,
      "t": 90434.65599999999,
      "d": 111.4128875000024,
      "v": 21
    },
    {
      "midi": 57,
      "hit": false,
      "t": 90434.65599999999,
      "d": 127.71721250000701,
      "v": 30
    },
    {
      "midi": 62,
      "hit": false,
      "t": 90434.65599999999,
      "d": 146.7389250000124,
      "v": 21
    },
    {
      "midi": 54,
      "hit": false,
      "t": 90652.047,
      "d": 172.55410624999786,
      "v": 99
    },
    {
      "midi": 57,
      "hit": false,
      "t": 90652.047,
      "d": 328.80388750000566,
      "v": 104
    },
    {
      "midi": 62,
      "hit": false,
      "t": 90652.047,
      "d": 572.0100687500089,
      "v": 108
    },
    {
      "midi": 54,
      "hit": false,
      "t": 90869.43800000001,
      "d": 39.402118750003865,
      "v": 15
    },
    {
      "midi": 54,
      "hit": false,
      "t": 91086.82900000001,
      "d": 92.39117499999702,
      "v": 76
    },
    {
      "midi": 57,
      "hit": false,
      "t": 91086.82900000001,
      "d": 180.70626875000016,
      "v": 66
    },
    {
      "midi": 54,
      "hit": false,
      "t": 91304.22000000002,
      "d": 110.05419374999474,
      "v": 86
    },
    {
      "midi": 62,
      "hit": false,
      "t": 91304.22000000002,
      "d": 425.271143749982,
      "v": 93
    },
    {
      "midi": 57,
      "hit": false,
      "t": 91304.22000000002,
      "d": 552.9883562499745,
      "v": 79
    },
    {
      "midi": 54,
      "hit": false,
      "t": 91521.611,
      "d": 77.44554375000007,
      "v": 63
    },
    {
      "midi": 54,
      "hit": false,
      "t": 91739.002,
      "d": 173.91279999999097,
      "v": 66
    },
    {
      "midi": 62,
      "hit": false,
      "t": 91956.39299999998,
      "d": 120.92374374999781,
      "v": 96
    },
    {
      "midi": 55,
      "hit": false,
      "t": 91956.39299999998,
      "d": 129.07590625000012,
      "v": 96
    },
    {
      "midi": 59,
      "hit": false,
      "t": 91956.39299999998,
      "d": 134.51068125000165,
      "v": 104
    },
    {
      "midi": 43,
      "hit": false,
      "t": 91956.39299999998,
      "d": 2014.9428312499658,
      "v": 66
    },
    {
      "midi": 62,
      "hit": false,
      "t": 92173.78399999999,
      "d": 96.46725625000545,
      "v": 38
    },
    {
      "midi": 59,
      "hit": false,
      "t": 92173.78399999999,
      "d": 103.2607250000001,
      "v": 51
    },
    {
      "midi": 55,
      "hit": false,
      "t": 92173.78399999999,
      "d": 111.4128875000024,
      "v": 63
    },
    {
      "midi": 55,
      "hit": false,
      "t": 92391.17499999999,
      "d": 129.07590625000012,
      "v": 60
    },
    {
      "midi": 59,
      "hit": false,
      "t": 92391.17499999999,
      "d": 129.07590625000012,
      "v": 56
    },
    {
      "midi": 62,
      "hit": false,
      "t": 92391.17499999999,
      "d": 131.79329375000088,
      "v": 21
    },
    {
      "midi": 55,
      "hit": false,
      "t": 92608.56599999999,
      "d": 138.58676249999553,
      "v": 93
    },
    {
      "midi": 59,
      "hit": false,
      "t": 92608.56599999999,
      "d": 355.97776249998424,
      "v": 99
    },
    {
      "midi": 62,
      "hit": false,
      "t": 92608.56599999999,
      "d": 612.7708812499768,
      "v": 91
    },
    {
      "midi": 55,
      "hit": false,
      "t": 92825.95699999998,
      "d": 100.54333749999932,
      "v": 38
    },
    {
      "midi": 55,
      "hit": false,
      "t": 93043.34799999997,
      "d": 145.38023125000473,
      "v": 63
    },
    {
      "midi": 59,
      "hit": false,
      "t": 93043.34799999997,
      "d": 184.78234999999404,
      "v": 51
    },
    {
      "midi": 62,
      "hit": false,
      "t": 93260.73899999996,
      "d": 133.151987499994,
      "v": 107
    },
    {
      "midi": 55,
      "hit": false,
      "t": 93260.73899999996,
      "d": 135.86937499999476,
      "v": 104
    },
    {
      "midi": 59,
      "hit": false,
      "t": 93260.73899999996,
      "d": 138.58676249999553,
      "v": 111
    },
    {
      "midi": 59,
      "hit": false,
      "t": 93478.12999999995,
      "d": 126.35851874999935,
      "v": 51
    },
    {
      "midi": 55,
      "hit": false,
      "t": 93478.12999999995,
      "d": 290.76046250000945,
      "v": 30
    },
    {
      "midi": 62,
      "hit": false,
      "t": 93478.12999999995,
      "d": 398.0972687500034,
      "v": 60
    },
    {
      "midi": 59,
      "hit": false,
      "t": 93695.52099999995,
      "d": 201.08667499999865,
      "v": 38
    },
    {
      "midi": 54,
      "hit": false,
      "t": 93912.91199999995,
      "d": 164.40194374999555,
      "v": 106
    },
    {
      "midi": 57,
      "hit": false,
      "t": 93912.91199999995,
      "d": 563.8579062499775,
      "v": 56
    },
    {
      "midi": 62,
      "hit": false,
      "t": 93912.91199999995,
      "d": 569.2926812499791,
      "v": 46
    },
    {
      "midi": 50,
      "hit": false,
      "t": 93912.91199999995,
      "d": 2005.4319749999995,
      "v": 91
    },
    {
      "midi": 54,
      "hit": false,
      "t": 94130.30299999994,
      "d": 110.05419374999474,
      "v": 53
    },
    {
      "midi": 54,
      "hit": false,
      "t": 94347.69399999993,
      "d": 153.53239375000703,
      "v": 42
    },
    {
      "midi": 54,
      "hit": false,
      "t": 94565.08499999993,
      "d": 152.17369999999937,
      "v": 99
    },
    {
      "midi": 57,
      "hit": false,
      "t": 94565.08499999993,
      "d": 319.29303125001024,
      "v": 104
    },
    {
      "midi": 54,
      "hit": false,
      "t": 94782.47599999994,
      "d": 153.53239375000703,
      "v": 73
    },
    {
      "midi": 54,
      "hit": false,
      "t": 94999.86699999994,
      "d": 171.19541250000475,
      "v": 51
    },
    {
      "midi": 57,
      "hit": false,
      "t": 94999.86699999994,
      "d": 202.4453687500063,
      "v": 69
    },
    {
      "midi": 62,
      "hit": false,
      "t": 95217.25799999994,
      "d": 8.152162500002305,
      "v": 56
    },
    {
      "midi": 54,
      "hit": false,
      "t": 95217.25799999994,
      "d": 127.71721250000701,
      "v": 99
    },
    {
      "midi": 57,
      "hit": false,
      "t": 95217.25799999994,
      "d": 588.3143937500136,
      "v": 63
    },
    {
      "midi": 54,
      "hit": false,
      "t": 95434.64899999995,
      "d": 108.69550000000163,
      "v": 73
    },
    {
      "midi": 54,
      "hit": false,
      "t": 95652.03999999995,
      "d": 179.34757500000705,
      "v": 46
    },
    {
      "midi": 55,
      "hit": false,
      "t": 95869.43099999995,
      "d": 152.17369999999937,
      "v": 96
    },
    {
      "midi": 59,
      "hit": false,
      "t": 95869.43099999995,
      "d": 376.3581687500118,
      "v": 93
    },
    {
      "midi": 62,
      "hit": false,
      "t": 95869.43099999995,
      "d": 576.0861500000028,
      "v": 99
    },
    {
      "midi": 43,
      "hit": false,
      "t": 95869.43099999995,
      "d": 1994.562425000011,
      "v": 63
    },
    {
      "midi": 55,
      "hit": false,
      "t": 96086.82199999996,
      "d": 122.28243750000547,
      "v": 24
    },
    {
      "midi": 55,
      "hit": false,
      "t": 96304.21299999996,
      "d": 141.3041499999963,
      "v": 63
    },
    {
      "midi": 59,
      "hit": false,
      "t": 96304.21299999996,
      "d": 186.1410437500017,
      "v": 24
    },
    {
      "midi": 55,
      "hit": false,
      "t": 96521.60399999996,
      "d": 160.32586250000168,
      "v": 93
    },
    {
      "midi": 59,
      "hit": false,
      "t": 96521.60399999996,
      "d": 353.2603750000126,
      "v": 93
    },
    {
      "midi": 62,
      "hit": false,
      "t": 96521.60399999996,
      "d": 585.5970062499982,
      "v": 66
    },
    {
      "midi": 55,
      "hit": false,
      "t": 96738.99499999997,
      "d": 114.13027500000317,
      "v": 46
    },
    {
      "midi": 55,
      "hit": false,
      "t": 96956.38599999997,
      "d": 146.73892499999783,
      "v": 21
    },
    {
      "midi": 59,
      "hit": false,
      "t": 96956.38599999997,
      "d": 168.47802499998943,
      "v": 15
    },
    {
      "midi": 55,
      "hit": false,
      "t": 97173.77699999996,
      "d": 561.1405187500059,
      "v": 101
    },
    {
      "midi": 59,
      "hit": false,
      "t": 97173.77699999996,
      "d": 572.0100687500089,
      "v": 107
    },
    {
      "midi": 62,
      "hit": false,
      "t": 97173.77699999996,
      "d": 572.0100687500089,
      "v": 104
    },
    {
      "midi": 54,
      "hit": false,
      "t": 97825.94999999997,
      "d": 163.04325000000244,
      "v": 98
    },
    {
      "midi": 57,
      "hit": false,
      "t": 97825.94999999997,
      "d": 207.88014375000785,
      "v": 86
    },
    {
      "midi": 62,
      "hit": false,
      "t": 97825.94999999997,
      "d": 400.8146562500042,
      "v": 104
    },
    {
      "midi": 50,
      "hit": false,
      "t": 97825.94999999997,
      "d": 2039.3993187500018,
      "v": 86
    },
    {
      "midi": 54,
      "hit": false,
      "t": 98043.34099999997,
      "d": 95.10856249999779,
      "v": 56
    },
    {
      "midi": 57,
      "hit": false,
      "t": 98043.34099999997,
      "d": 139.9454562500032,
      "v": 21
    },
    {
      "midi": 54,
      "hit": false,
      "t": 98260.73199999997,
      "d": 111.4128875000024,
      "v": 21
    },
    {
      "midi": 57,
      "hit": false,
      "t": 98260.73199999997,
      "d": 127.71721250000701,
      "v": 30
    },
    {
      "midi": 62,
      "hit": false,
      "t": 98260.73199999997,
      "d": 146.7389250000124,
      "v": 21
    },
    {
      "midi": 54,
      "hit": false,
      "t": 98478.12299999999,
      "d": 172.55410624999786,
      "v": 99
    },
    {
      "midi": 57,
      "hit": false,
      "t": 98478.12299999999,
      "d": 328.80388750000566,
      "v": 104
    },
    {
      "midi": 62,
      "hit": false,
      "t": 98478.12299999999,
      "d": 572.0100687500089,
      "v": 108
    },
    {
      "midi": 54,
      "hit": false,
      "t": 98695.514,
      "d": 39.402118750003865,
      "v": 15
    },
    {
      "midi": 54,
      "hit": false,
      "t": 98912.905,
      "d": 92.39117499999702,
      "v": 76
    },
    {
      "midi": 57,
      "hit": false,
      "t": 98912.905,
      "d": 180.70626875000016,
      "v": 66
    },
    {
      "midi": 54,
      "hit": false,
      "t": 99130.296,
      "d": 110.05419374999474,
      "v": 86
    },
    {
      "midi": 62,
      "hit": false,
      "t": 99130.296,
      "d": 425.271143749982,
      "v": 93
    },
    {
      "midi": 57,
      "hit": false,
      "t": 99130.296,
      "d": 552.9883562499745,
      "v": 79
    },
    {
      "midi": 54,
      "hit": false,
      "t": 99347.68699999999,
      "d": 77.44554375000007,
      "v": 63
    },
    {
      "midi": 54,
      "hit": false,
      "t": 99565.07799999998,
      "d": 173.91279999999097,
      "v": 66
    },
    {
      "midi": 62,
      "hit": false,
      "t": 99782.46899999997,
      "d": 120.92374374999781,
      "v": 96
    },
    {
      "midi": 55,
      "hit": false,
      "t": 99782.46899999997,
      "d": 129.07590625000012,
      "v": 96
    },
    {
      "midi": 59,
      "hit": false,
      "t": 99782.46899999997,
      "d": 134.51068125000165,
      "v": 104
    },
    {
      "midi": 43,
      "hit": false,
      "t": 99782.46899999997,
      "d": 2014.9428312499658,
      "v": 66
    },
    {
      "midi": 62,
      "hit": false,
      "t": 99999.85999999997,
      "d": 96.46725625000545,
      "v": 38
    },
    {
      "midi": 59,
      "hit": false,
      "t": 99999.85999999997,
      "d": 103.2607250000001,
      "v": 51
    },
    {
      "midi": 55,
      "hit": false,
      "t": 99999.85999999997,
      "d": 111.4128875000024,
      "v": 63
    },
    {
      "midi": 55,
      "hit": false,
      "t": 100217.25099999997,
      "d": 129.07590625000012,
      "v": 60
    },
    {
      "midi": 59,
      "hit": false,
      "t": 100217.25099999997,
      "d": 129.07590625000012,
      "v": 56
    },
    {
      "midi": 62,
      "hit": false,
      "t": 100217.25099999997,
      "d": 131.79329375000088,
      "v": 21
    },
    {
      "midi": 55,
      "hit": false,
      "t": 100434.64199999998,
      "d": 138.58676249999553,
      "v": 93
    },
    {
      "midi": 59,
      "hit": false,
      "t": 100434.64199999998,
      "d": 355.97776249998424,
      "v": 99
    },
    {
      "midi": 62,
      "hit": false,
      "t": 100434.64199999998,
      "d": 612.7708812499768,
      "v": 91
    },
    {
      "midi": 55,
      "hit": false,
      "t": 100652.03299999997,
      "d": 100.54333749999932,
      "v": 38
    },
    {
      "midi": 55,
      "hit": false,
      "t": 100869.42399999996,
      "d": 145.38023125000473,
      "v": 63
    },
    {
      "midi": 59,
      "hit": false,
      "t": 100869.42399999996,
      "d": 184.78234999999404,
      "v": 51
    },
    {
      "midi": 62,
      "hit": false,
      "t": 101086.81499999994,
      "d": 133.151987499994,
      "v": 107
    },
    {
      "midi": 55,
      "hit": false,
      "t": 101086.81499999994,
      "d": 135.86937499999476,
      "v": 104
    },
    {
      "midi": 59,
      "hit": false,
      "t": 101086.81499999994,
      "d": 138.58676249999553,
      "v": 111
    },
    {
      "midi": 59,
      "hit": false,
      "t": 101304.20599999993,
      "d": 126.35851874999935,
      "v": 51
    },
    {
      "midi": 55,
      "hit": false,
      "t": 101304.20599999993,
      "d": 290.76046250000945,
      "v": 30
    },
    {
      "midi": 62,
      "hit": false,
      "t": 101304.20599999993,
      "d": 398.0972687500034,
      "v": 60
    },
    {
      "midi": 59,
      "hit": false,
      "t": 101521.59699999994,
      "d": 201.08667499999865,
      "v": 38
    },
    {
      "midi": 54,
      "hit": false,
      "t": 101738.98799999994,
      "d": 164.40194374999555,
      "v": 106
    },
    {
      "midi": 57,
      "hit": false,
      "t": 101738.98799999994,
      "d": 563.8579062499775,
      "v": 56
    },
    {
      "midi": 62,
      "hit": false,
      "t": 101738.98799999994,
      "d": 569.2926812499791,
      "v": 46
    },
    {
      "midi": 50,
      "hit": false,
      "t": 101738.98799999994,
      "d": 2005.4319749999995,
      "v": 91
    },
    {
      "midi": 54,
      "hit": false,
      "t": 101956.37899999993,
      "d": 110.05419374999474,
      "v": 53
    },
    {
      "midi": 54,
      "hit": false,
      "t": 102173.76999999992,
      "d": 153.53239375000703,
      "v": 42
    },
    {
      "midi": 54,
      "hit": false,
      "t": 102391.16099999992,
      "d": 152.17369999999937,
      "v": 99
    },
    {
      "midi": 57,
      "hit": false,
      "t": 102391.16099999992,
      "d": 319.29303125001024,
      "v": 104
    },
    {
      "midi": 54,
      "hit": false,
      "t": 102608.55199999992,
      "d": 153.53239375000703,
      "v": 73
    },
    {
      "midi": 54,
      "hit": false,
      "t": 102825.94299999993,
      "d": 171.19541250000475,
      "v": 51
    },
    {
      "midi": 57,
      "hit": false,
      "t": 102825.94299999993,
      "d": 202.4453687500063,
      "v": 69
    },
    {
      "midi": 62,
      "hit": false,
      "t": 103043.33399999993,
      "d": 8.152162500002305,
      "v": 56
    },
    {
      "midi": 54,
      "hit": false,
      "t": 103043.33399999993,
      "d": 127.71721250000701,
      "v": 99
    },
    {
      "midi": 57,
      "hit": false,
      "t": 103043.33399999993,
      "d": 588.3143937500136,
      "v": 63
    },
    {
      "midi": 54,
      "hit": false,
      "t": 103260.72499999993,
      "d": 108.69550000000163,
      "v": 73
    },
    {
      "midi": 54,
      "hit": false,
      "t": 103478.11599999994,
      "d": 179.34757500000705,
      "v": 46
    },
    {
      "midi": 55,
      "hit": false,
      "t": 103695.50699999994,
      "d": 152.17369999999937,
      "v": 96
    },
    {
      "midi": 59,
      "hit": false,
      "t": 103695.50699999994,
      "d": 376.3581687500118,
      "v": 93
    },
    {
      "midi": 62,
      "hit": false,
      "t": 103695.50699999994,
      "d": 576.0861500000028,
      "v": 99
    },
    {
      "midi": 43,
      "hit": false,
      "t": 103695.50699999994,
      "d": 1994.562425000011,
      "v": 63
    },
    {
      "midi": 55,
      "hit": false,
      "t": 103912.89799999994,
      "d": 122.28243750000547,
      "v": 24
    },
    {
      "midi": 55,
      "hit": false,
      "t": 104130.28899999995,
      "d": 141.3041499999963,
      "v": 63
    },
    {
      "midi": 59,
      "hit": false,
      "t": 104130.28899999995,
      "d": 186.1410437500017,
      "v": 24
    },
    {
      "midi": 55,
      "hit": false,
      "t": 104347.67999999995,
      "d": 160.32586250000168,
      "v": 93
    },
    {
      "midi": 59,
      "hit": false,
      "t": 104347.67999999995,
      "d": 353.2603750000126,
      "v": 93
    },
    {
      "midi": 62,
      "hit": false,
      "t": 104347.67999999995,
      "d": 585.5970062499982,
      "v": 66
    },
    {
      "midi": 55,
      "hit": false,
      "t": 104565.07099999995,
      "d": 114.13027500000317,
      "v": 46
    },
    {
      "midi": 55,
      "hit": false,
      "t": 104782.46199999996,
      "d": 146.73892499999783,
      "v": 21
    },
    {
      "midi": 59,
      "hit": false,
      "t": 104782.46199999996,
      "d": 168.47802499998943,
      "v": 15
    },
    {
      "midi": 55,
      "hit": false,
      "t": 104999.85299999994,
      "d": 561.1405187500059,
      "v": 101
    },
    {
      "midi": 59,
      "hit": false,
      "t": 104999.85299999994,
      "d": 572.0100687500089,
      "v": 107
    },
    {
      "midi": 62,
      "hit": false,
      "t": 104999.85299999994,
      "d": 572.0100687500089,
      "v": 104
    },
    {
      "midi": 55,
      "hit": false,
      "t": 105652.02599999995,
      "d": 800.2706187500007,
      "v": 119
    },
    {
      "midi": 67,
      "hit": false,
      "t": 105652.02599999995,
      "d": 1152.1723000000056,
      "v": 113
    },
    {
      "midi": 64,
      "hit": false,
      "t": 105652.02599999995,
      "d": 1176.6287875000125,
      "v": 111
    },
    {
      "midi": 60,
      "hit": false,
      "t": 105652.02599999995,
      "d": 1177.9874812500057,
      "v": 112
    },
    {
      "midi": 36,
      "hit": false,
      "t": 105652.02599999995,
      "d": 1688.8563312500046,
      "v": 113
    },
    {
      "midi": 48,
      "hit": false,
      "t": 106304.19899999995,
      "d": 770.3793562500068,
      "v": 76
    },
    {
      "midi": 55,
      "hit": false,
      "t": 106738.98099999996,
      "d": 105.97811250000086,
      "v": 104
    },
    {
      "midi": 57,
      "hit": false,
      "t": 106956.37199999996,
      "d": 39.402118750003865,
      "v": 24
    },
    {
      "midi": 55,
      "hit": false,
      "t": 106956.37199999996,
      "d": 346.4669062500034,
      "v": 104
    },
    {
      "midi": 67,
      "hit": false,
      "t": 106956.37199999996,
      "d": 547.553581250002,
      "v": 108
    },
    {
      "midi": 60,
      "hit": false,
      "t": 106956.37199999996,
      "d": 548.9122749999951,
      "v": 104
    },
    {
      "midi": 64,
      "hit": false,
      "t": 106956.37199999996,
      "d": 578.803537499989,
      "v": 111
    },
    {
      "midi": 48,
      "hit": false,
      "t": 107391.15399999997,
      "d": 184.7823499999795,
      "v": 107
    },
    {
      "midi": 59,
      "hit": false,
      "t": 107608.54499999994,
      "d": 510.86884999999893,
      "v": 111
    },
    {
      "midi": 67,
      "hit": false,
      "t": 107608.54499999994,
      "d": 1197.0091937499965,
      "v": 111
    },
    {
      "midi": 64,
      "hit": false,
      "t": 107608.54499999994,
      "d": 1251.3569437499973,
      "v": 116
    },
    {
      "midi": 47,
      "hit": false,
      "t": 107608.54499999994,
      "d": 1502.7152874999883,
      "v": 112
    },
    {
      "midi": 59,
      "hit": false,
      "t": 108260.71799999994,
      "d": 103.2607250000001,
      "v": 79
    },
    {
      "midi": 59,
      "hit": false,
      "t": 108695.49999999994,
      "d": 146.73892499999783,
      "v": 76
    },
    {
      "midi": 65,
      "hit": false,
      "t": 108912.89099999993,
      "d": 27.17387499999313,
      "v": 60
    },
    {
      "midi": 59,
      "hit": false,
      "t": 108912.89099999993,
      "d": 525.8144812499959,
      "v": 110
    },
    {
      "midi": 64,
      "hit": false,
      "t": 108912.89099999993,
      "d": 595.1078624999936,
      "v": 115
    },
    {
      "midi": 67,
      "hit": false,
      "t": 108912.89099999993,
      "d": 619.5643500000006,
      "v": 112
    },
    {
      "midi": 47,
      "hit": false,
      "t": 109347.67299999992,
      "d": 150.81500625000626,
      "v": 79
    },
    {
      "midi": 57,
      "hit": false,
      "t": 109565.06399999993,
      "d": 853.2596749999939,
      "v": 115
    },
    {
      "midi": 62,
      "hit": false,
      "t": 109565.06399999993,
      "d": 1160.3244624999934,
      "v": 111
    },
    {
      "midi": 66,
      "hit": false,
      "t": 109565.06399999993,
      "d": 1213.3135187499865,
      "v": 98
    },
    {
      "midi": 38,
      "hit": false,
      "t": 109565.06399999993,
      "d": 1868.203906249997,
      "v": 107
    },
    {
      "midi": 50,
      "hit": false,
      "t": 110217.23699999992,
      "d": 896.7378749999916,
      "v": 93
    },
    {
      "midi": 57,
      "hit": false,
      "t": 110652.01899999991,
      "d": 294.83654375000333,
      "v": 101
    },
    {
      "midi": 69,
      "hit": false,
      "t": 110869.40999999992,
      "d": 307.0647874999995,
      "v": 99
    },
    {
      "midi": 66,
      "hit": false,
      "t": 110869.40999999992,
      "d": 357.33645625000645,
      "v": 111
    },
    {
      "midi": 62,
      "hit": false,
      "t": 110869.40999999992,
      "d": 400.8146562500042,
      "v": 111
    },
    {
      "midi": 57,
      "hit": false,
      "t": 111086.80099999992,
      "d": 266.30397500000254,
      "v": 96
    },
    {
      "midi": 50,
      "hit": false,
      "t": 111304.19199999992,
      "d": 459.2384874999989,
      "v": 93
    },
    {
      "midi": 54,
      "hit": false,
      "t": 111521.58299999993,
      "d": 866.8466124999977,
      "v": 99
    },
    {
      "midi": 57,
      "hit": false,
      "t": 111521.58299999993,
      "d": 1101.9006312499987,
      "v": 96
    },
    {
      "midi": 66,
      "hit": false,
      "t": 111521.58299999993,
      "d": 1180.7048687499919,
      "v": 111
    },
    {
      "midi": 62,
      "hit": false,
      "t": 111521.58299999993,
      "d": 1182.063562499985,
      "v": 109
    },
    {
      "midi": 38,
      "hit": false,
      "t": 111521.58299999993,
      "d": 1802.9866062499786,
      "v": 99
    },
    {
      "midi": 50,
      "hit": false,
      "t": 112173.75599999992,
      "d": 892.6617937499977,
      "v": 121
    },
    {
      "midi": 54,
      "hit": false,
      "t": 112608.53799999993,
      "d": 142.6628437499894,
      "v": 111
    },
    {
      "midi": 54,
      "hit": false,
      "t": 112825.92899999992,
      "d": 59.78252500000235,
      "v": 103
    },
    {
      "midi": 57,
      "hit": false,
      "t": 112825.92899999992,
      "d": 385.8690249999927,
      "v": 111
    },
    {
      "midi": 62,
      "hit": false,
      "t": 112825.92899999992,
      "d": 432.0646124999912,
      "v": 111
    },
    {
      "midi": 66,
      "hit": false,
      "t": 112825.92899999992,
      "d": 501.35799374998896,
      "v": 119
    },
    {
      "midi": 54,
      "hit": false,
      "t": 113043.31999999992,
      "d": 158.96716874999402,
      "v": 114
    },
    {
      "midi": 50,
      "hit": false,
      "t": 113260.71099999991,
      "d": 158.96716874999402,
      "v": 111
    },
    {
      "midi": 61,
      "hit": false,
      "t": 113478.1019999999,
      "d": 20.380406249998487,
      "v": 73
    },
    {
      "midi": 46,
      "hit": false,
      "t": 113478.1019999999,
      "d": 591.0317812499852,
      "v": 127
    },
    {
      "midi": 62,
      "hit": false,
      "t": 113478.1019999999,
      "d": 623.6404312499799,
      "v": 86
    },
    {
      "midi": 58,
      "hit": false,
      "t": 113478.1019999999,
      "d": 657.6077749999822,
      "v": 91
    },
    {
      "midi": 65,
      "hit": false,
      "t": 113478.1019999999,
      "d": 1074.7267562499765,
      "v": 86
    },
    {
      "midi": 64,
      "hit": false,
      "t": 113912.88399999989,
      "d": 40.76081249999697,
      "v": 56
    },
    {
      "midi": 46,
      "hit": false,
      "t": 114130.27499999988,
      "d": 885.8683249999885,
      "v": 110
    },
    {
      "midi": 57,
      "hit": false,
      "t": 114347.66599999988,
      "d": 115.48896874999627,
      "v": 21
    },
    {
      "midi": 53,
      "hit": false,
      "t": 114565.05699999987,
      "d": 78.80423749999318,
      "v": 38
    },
    {
      "midi": 53,
      "hit": false,
      "t": 114782.44799999986,
      "d": 69.29338124999776,
      "v": 111
    },
    {
      "midi": 65,
      "hit": false,
      "t": 114782.44799999986,
      "d": 525.8144812500104,
      "v": 127
    },
    {
      "midi": 58,
      "hit": false,
      "t": 114782.44799999986,
      "d": 527.1731750000035,
      "v": 119
    },
    {
      "midi": 62,
      "hit": false,
      "t": 114782.44799999986,
      "d": 618.2056562500075,
      "v": 123
    },
    {
      "midi": 53,
      "hit": false,
      "t": 114999.83899999986,
      "d": 228.26055000000633,
      "v": 99
    },
    {
      "midi": 46,
      "hit": false,
      "t": 115217.22999999986,
      "d": 218.74969374999637,
      "v": 112
    },
    {
      "midi": 53,
      "hit": false,
      "t": 115434.62099999987,
      "d": 89.67378749999625,
      "v": 93
    },
    {
      "midi": 57,
      "hit": false,
      "t": 115434.62099999987,
      "d": 822.0097187499923,
      "v": 112
    },
    {
      "midi": 60,
      "hit": false,
      "t": 115434.62099999987,
      "d": 1043.4767999999895,
      "v": 115
    },
    {
      "midi": 65,
      "hit": false,
      "t": 115434.62099999987,
      "d": 1146.7375249999895,
      "v": 118
    },
    {
      "midi": 41,
      "hit": false,
      "t": 115434.62099999987,
      "d": 1809.7800750000024,
      "v": 104
    },
    {
      "midi": 53,
      "hit": false,
      "t": 116086.79399999986,
      "d": 855.9770624999946,
      "v": 104
    },
    {
      "midi": 57,
      "hit": false,
      "t": 116521.57599999986,
      "d": 168.47802500000398,
      "v": 93
    },
    {
      "midi": 57,
      "hit": false,
      "t": 116738.96699999986,
      "d": 105.97811250000086,
      "v": 111
    },
    {
      "midi": 65,
      "hit": false,
      "t": 116738.96699999986,
      "d": 544.8361937500158,
      "v": 121
    },
    {
      "midi": 60,
      "hit": false,
      "t": 116738.96699999986,
      "d": 595.1078625000227,
      "v": 111
    },
    {
      "midi": 57,
      "hit": false,
      "t": 116956.35799999986,
      "d": 302.98870625000563,
      "v": 86
    },
    {
      "midi": 53,
      "hit": false,
      "t": 117173.74899999987,
      "d": 91.03248125000391,
      "v": 111
    },
    {
      "midi": 36,
      "hit": false,
      "t": 117391.13999999988,
      "d": 183.42365625000093,
      "v": 111
    },
    {
      "midi": 57,
      "hit": false,
      "t": 117391.13999999988,
      "d": 786.6836812499969,
      "v": 104
    },
    {
      "midi": 62,
      "hit": false,
      "t": 117391.13999999988,
      "d": 1066.5745937500033,
      "v": 112
    },
    {
      "midi": 66,
      "hit": false,
      "t": 117391.13999999988,
      "d": 1176.628787499998,
      "v": 127
    },
    {
      "midi": 38,
      "hit": false,
      "t": 117391.13999999988,
      "d": 1800.269218750007,
      "v": 111
    },
    {
      "midi": 50,
      "hit": false,
      "t": 118043.31299999988,
      "d": 769.0206625000137,
      "v": 110
    },
    {
      "midi": 57,
      "hit": false,
      "t": 118478.09499999988,
      "d": 381.79294375001336,
      "v": 66
    },
    {
      "midi": 62,
      "hit": false,
      "t": 118695.48599999989,
      "d": 281.2496062499995,
      "v": 113
    },
    {
      "midi": 66,
      "hit": false,
      "t": 118695.48599999989,
      "d": 400.8146562500042,
      "v": 112
    },
    {
      "midi": 57,
      "hit": false,
      "t": 118912.87699999989,
      "d": 343.7495187500026,
      "v": 109
    },
    {
      "midi": 50,
      "hit": false,
      "t": 119130.2679999999,
      "d": 512.2275437500066,
      "v": 107
    },
    {
      "midi": 57,
      "hit": false,
      "t": 119347.6589999999,
      "d": 615.4882687500067,
      "v": 112
    },
    {
      "midi": 62,
      "hit": false,
      "t": 119347.6589999999,
      "d": 709.2381375000114,
      "v": 111
    },
    {
      "midi": 66,
      "hit": false,
      "t": 119347.6589999999,
      "d": 1080.161531250007,
      "v": 112
    },
    {
      "midi": 69,
      "hit": false,
      "t": 119347.6589999999,
      "d": 1124.998424999998,
      "v": 111
    },
    {
      "midi": 38,
      "hit": false,
      "t": 119347.6589999999,
      "d": 1812.4974625000032,
      "v": 112
    },
    {
      "midi": 50,
      "hit": false,
      "t": 119999.83199999991,
      "d": 879.0748562499939,
      "v": 112
    },
    {
      "midi": 62,
      "hit": false,
      "t": 120434.6139999999,
      "d": 97.82594999999856,
      "v": 66
    },
    {
      "midi": 45,
      "hit": false,
      "t": 120434.6139999999,
      "d": 812.4988624999969,
      "v": 51
    },
    {
      "midi": 69,
      "hit": false,
      "t": 120652.0049999999,
      "d": 531.2492562499974,
      "v": 117
    },
    {
      "midi": 64,
      "hit": false,
      "t": 120652.0049999999,
      "d": 576.0861499999883,
      "v": 127
    },
    {
      "midi": 66,
      "hit": false,
      "t": 120869.3959999999,
      "d": 346.4669062499888,
      "v": 89
    },
    {
      "midi": 50,
      "hit": false,
      "t": 121086.7869999999,
      "d": 199.72798125000554,
      "v": 79
    },
    {
      "midi": 60,
      "hit": false,
      "t": 121304.1779999999,
      "d": 1134.509281250008,
      "v": 127
    },
    {
      "midi": 64,
      "hit": false,
      "t": 121304.1779999999,
      "d": 1176.6287875000125,
      "v": 121
    },
    {
      "midi": 67,
      "hit": false,
      "t": 121304.1779999999,
      "d": 1184.7809500000149,
      "v": 127
    },
    {
      "midi": 36,
      "hit": false,
      "t": 121304.1779999999,
      "d": 1751.3562437499932,
      "v": 113
    },
    {
      "midi": 48,
      "hit": false,
      "t": 121956.3509999999,
      "d": 756.792418750003,
      "v": 107
    },
    {
      "midi": 55,
      "hit": false,
      "t": 122391.1329999999,
      "d": 133.15198750000854,
      "v": 107
    },
    {
      "midi": 55,
      "hit": false,
      "t": 122608.5239999999,
      "d": 313.85825624999416,
      "v": 107
    },
    {
      "midi": 60,
      "hit": false,
      "t": 122608.5239999999,
      "d": 519.0210124999867,
      "v": 118
    },
    {
      "midi": 67,
      "hit": false,
      "t": 122608.5239999999,
      "d": 652.1729999999952,
      "v": 112
    },
    {
      "midi": 64,
      "hit": false,
      "t": 122608.5239999999,
      "d": 1808.4213812499947,
      "v": 117
    },
    {
      "midi": 48,
      "hit": false,
      "t": 123043.3059999999,
      "d": 167.11933124999632,
      "v": 109
    },
    {
      "midi": 60,
      "hit": false,
      "t": 123260.6969999999,
      "d": 76.08685000000696,
      "v": 107
    },
    {
      "midi": 47,
      "hit": false,
      "t": 123260.6969999999,
      "d": 538.0427250000066,
      "v": 112
    },
    {
      "midi": 59,
      "hit": false,
      "t": 123260.6969999999,
      "d": 687.4990375000052,
      "v": 91
    },
    {
      "midi": 67,
      "hit": false,
      "t": 123260.6969999999,
      "d": 1142.6614437499957,
      "v": 66
    },
    {
      "midi": 47,
      "hit": false,
      "t": 123912.86999999991,
      "d": 906.248731249987,
      "v": 15
    },
    {
      "midi": 59,
      "hit": false,
      "t": 124347.6519999999,
      "d": 110.05419374999474,
      "v": 91
    },
    {
      "midi": 59,
      "hit": false,
      "t": 124565.04299999989,
      "d": 461.95587499999965,
      "v": 115
    },
    {
      "midi": 64,
      "hit": false,
      "t": 124565.04299999989,
      "d": 498.64060625000275,
      "v": 127
    },
    {
      "midi": 67,
      "hit": false,
      "t": 124565.04299999989,
      "d": 573.368762500002,
      "v": 127
    },
    {
      "midi": 47,
      "hit": false,
      "t": 124999.8249999999,
      "d": 197.01059374999022,
      "v": 76
    },
    {
      "midi": 46,
      "hit": false,
      "t": 125217.21599999988,
      "d": 567.9339875000005,
      "v": 107
    },
    {
      "midi": 62,
      "hit": false,
      "t": 125217.21599999988,
      "d": 732.3359312499961,
      "v": 76
    },
    {
      "midi": 58,
      "hit": false,
      "t": 125217.21599999988,
      "d": 1017.661618750004,
      "v": 108
    },
    {
      "midi": 65,
      "hit": false,
      "t": 125217.21599999988,
      "d": 1277.1721249999973,
      "v": 104
    },
    {
      "midi": 46,
      "hit": false,
      "t": 125869.38899999988,
      "d": 927.9878312499932,
      "v": 107
    },
    {
      "midi": 62,
      "hit": false,
      "t": 126086.77999999988,
      "d": 408.96681874999194,
      "v": 15
    },
    {
      "midi": 58,
      "hit": false,
      "t": 126304.17099999989,
      "d": 197.01059374999022,
      "v": 66
    },
    {
      "midi": 58,
      "hit": false,
      "t": 126521.56199999987,
      "d": 490.4884437499859,
      "v": 113
    },
    {
      "midi": 62,
      "hit": false,
      "t": 126521.56199999987,
      "d": 616.8469624999852,
      "v": 118
    },
    {
      "midi": 65,
      "hit": false,
      "t": 126521.56199999987,
      "d": 697.0098937499861,
      "v": 111
    },
    {
      "midi": 46,
      "hit": false,
      "t": 126956.34399999987,
      "d": 207.8801437499933,
      "v": 100
    },
    {
      "midi": 57,
      "hit": false,
      "t": 127173.73499999986,
      "d": 544.8361937500013,
      "v": 108
    },
    {
      "midi": 61,
      "hit": false,
      "t": 127173.73499999986,
      "d": 698.3685874999937,
      "v": 113
    },
    {
      "midi": 64,
      "hit": false,
      "t": 127173.73499999986,
      "d": 1192.9331125000026,
      "v": 101
    },
    {
      "midi": 45,
      "hit": false,
      "t": 127173.73499999986,
      "d": 1887.225618749988,
      "v": 93
    },
    {
      "midi": 57,
      "hit": false,
      "t": 127825.90799999985,
      "d": 323.3691125000041,
      "v": 107
    },
    {
      "midi": 57,
      "hit": false,
      "t": 128260.68999999986,
      "d": 135.86937499999476,
      "v": 60
    },
    {
      "midi": 52,
      "hit": false,
      "t": 128260.68999999986,
      "d": 736.4120124999899,
      "v": 104
    },
    {
      "midi": 59,
      "hit": false,
      "t": 128478.08099999985,
      "d": 300.27131875000487,
      "v": 127
    },
    {
      "midi": 64,
      "hit": false,
      "t": 128478.08099999985,
      "d": 552.9883562500036,
      "v": 113
    },
    {
      "midi": 61,
      "hit": false,
      "t": 128695.47199999985,
      "d": 377.7168624999904,
      "v": 111
    },
    {
      "midi": 57,
      "hit": false,
      "t": 128912.86299999985,
      "d": 146.73892499999783,
      "v": 104
    },
    {
      "midi": 56,
      "hit": false,
      "t": 129130.25399999984,
      "d": 925.2704437499924,
      "v": 99
    },
    {
      "midi": 59,
      "hit": false,
      "t": 129130.25399999984,
      "d": 1573.3673624999938,
      "v": 113
    },
    {
      "midi": 52,
      "hit": false,
      "t": 129130.25399999984,
      "d": 1762.2257937499962,
      "v": 112
    },
    {
      "midi": 64,
      "hit": false,
      "t": 129130.25399999984,
      "d": 1896.7364749999979,
      "v": 111
    },
    {
      "midi": 40,
      "hit": false,
      "t": 129782.42699999984,
      "d": 1130.4331999999995,
      "v": 66
    },
    {
      "midi": 56,
      "hit": false,
      "t": 130217.20899999983,
      "d": 198.36928749999788,
      "v": 84
    },
    {
      "midi": 56,
      "hit": false,
      "t": 130434.59999999983,
      "d": 455.162406250005,
      "v": 98
    },
    {
      "midi": 61,
      "hit": false,
      "t": 130869.38199999984,
      "d": 58.42383124999469,
      "v": 15
    },
    {
      "midi": 47,
      "hit": false,
      "t": 130869.38199999984,
      "d": 2067.9318875000463,
      "v": 86
    },
    {
      "midi": 56,
      "hit": false,
      "t": 131086.77299999984,
      "d": 1069.2919812500186,
      "v": 116
    },
    {
      "midi": 64,
      "hit": false,
      "t": 131086.77299999984,
      "d": 1182.0635625000286,
      "v": 115
    },
    {
      "midi": 59,
      "hit": false,
      "t": 131086.77299999984,
      "d": 1194.2918062500248,
      "v": 112
    },
    {
      "midi": 40,
      "hit": false,
      "t": 131086.77299999984,
      "d": 1800.269218750036,
      "v": 111
    },
    {
      "midi": 52,
      "hit": false,
      "t": 131738.94599999985,
      "d": 235.05401875000098,
      "v": 101
    },
    {
      "midi": 53,
      "hit": false,
      "t": 132173.72799999986,
      "d": 72.01076875001309,
      "v": 24
    },
    {
      "midi": 52,
      "hit": false,
      "t": 132173.72799999986,
      "d": 89.6737875000108,
      "v": 38
    },
    {
      "midi": 59,
      "hit": false,
      "t": 132391.11899999986,
      "d": 563.8579062500212,
      "v": 107
    },
    {
      "midi": 56,
      "hit": false,
      "t": 132391.11899999986,
      "d": 601.901331250032,
      "v": 111
    },
    {
      "midi": 64,
      "hit": false,
      "t": 132391.11899999986,
      "d": 1872.2799875000492,
      "v": 112
    },
    {
      "midi": 52,
      "hit": false,
      "t": 132825.90099999987,
      "d": 177.9888812500285,
      "v": 101
    },
    {
      "midi": 44,
      "hit": false,
      "t": 133043.2919999999,
      "d": 39.402118750003865,
      "v": 106
    },
    {
      "midi": 45,
      "hit": false,
      "t": 133043.2919999999,
      "d": 580.1622312499967,
      "v": 111
    },
    {
      "midi": 52,
      "hit": false,
      "t": 133043.2919999999,
      "d": 836.9553500000038,
      "v": 109
    },
    {
      "midi": 57,
      "hit": false,
      "t": 133043.2919999999,
      "d": 1054.346350000007,
      "v": 93
    },
    {
      "midi": 61,
      "hit": false,
      "t": 133043.2919999999,
      "d": 1244.5634750000027,
      "v": 99
    },
    {
      "midi": 45,
      "hit": false,
      "t": 133695.4649999999,
      "d": 995.9225187499833,
      "v": 60
    },
    {
      "midi": 52,
      "hit": false,
      "t": 134130.24699999992,
      "d": 133.151987499994,
      "v": 79
    },
    {
      "midi": 52,
      "hit": false,
      "t": 134347.6379999999,
      "d": 374.9994749999896,
      "v": 79
    },
    {
      "midi": 57,
      "hit": false,
      "t": 134347.6379999999,
      "d": 514.9449312499783,
      "v": 110
    },
    {
      "midi": 61,
      "hit": false,
      "t": 134347.6379999999,
      "d": 582.8796187499829,
      "v": 112
    },
    {
      "midi": 64,
      "hit": false,
      "t": 134347.6379999999,
      "d": 595.1078624999791,
      "v": 116
    },
    {
      "midi": 45,
      "hit": false,
      "t": 134782.41999999987,
      "d": 179.3475749999925,
      "v": 86
    },
    {
      "midi": 52,
      "hit": false,
      "t": 134999.81099999987,
      "d": 335.59735624998575,
      "v": 66
    },
    {
      "midi": 57,
      "hit": false,
      "t": 134999.81099999987,
      "d": 486.41236249997746,
      "v": 93
    },
    {
      "midi": 64,
      "hit": false,
      "t": 134999.81099999987,
      "d": 1179.3461749999842,
      "v": 104
    },
    {
      "midi": 61,
      "hit": false,
      "t": 134999.81099999987,
      "d": 1211.9548249999934,
      "v": 96
    },
    {
      "midi": 45,
      "hit": false,
      "t": 134999.81099999987,
      "d": 1864.127824999974,
      "v": 79
    },
    {
      "midi": 57,
      "hit": false,
      "t": 135651.98399999985,
      "d": 1165.759237499995,
      "v": 79
    },
    {
      "midi": 52,
      "hit": false,
      "t": 136086.76599999986,
      "d": 802.9880062499724,
      "v": 46
    },
    {
      "midi": 61,
      "hit": false,
      "t": 136304.15699999986,
      "d": 506.7927687499905,
      "v": 115
    },
    {
      "midi": 64,
      "hit": false,
      "t": 136304.15699999986,
      "d": 519.0210124999867,
      "v": 116
    },
    {
      "midi": 54,
      "hit": false,
      "t": 136956.32999999984,
      "d": 163.0432499999879,
      "v": 98
    },
    {
      "midi": 57,
      "hit": false,
      "t": 136956.32999999984,
      "d": 207.8801437499933,
      "v": 86
    },
    {
      "midi": 62,
      "hit": false,
      "t": 136956.32999999984,
      "d": 400.8146562500333,
      "v": 104
    },
    {
      "midi": 50,
      "hit": false,
      "t": 136956.32999999984,
      "d": 2039.3993187500455,
      "v": 86
    },
    {
      "midi": 54,
      "hit": false,
      "t": 137173.72099999984,
      "d": 95.10856250001234,
      "v": 56
    },
    {
      "midi": 57,
      "hit": false,
      "t": 137173.72099999984,
      "d": 139.94545625001774,
      "v": 21
    },
    {
      "midi": 54,
      "hit": false,
      "t": 137391.11199999988,
      "d": 111.41288749998785,
      "v": 21
    },
    {
      "midi": 57,
      "hit": false,
      "t": 137391.11199999988,
      "d": 127.71721249999246,
      "v": 30
    },
    {
      "midi": 62,
      "hit": false,
      "t": 137391.11199999988,
      "d": 146.73892499998328,
      "v": 21
    },
    {
      "midi": 54,
      "hit": false,
      "t": 137608.50299999985,
      "d": 172.55410624999786,
      "v": 99
    },
    {
      "midi": 57,
      "hit": false,
      "t": 137608.50299999985,
      "d": 328.8038875000202,
      "v": 104
    },
    {
      "midi": 62,
      "hit": false,
      "t": 137608.50299999985,
      "d": 572.0100687500089,
      "v": 108
    },
    {
      "midi": 54,
      "hit": false,
      "t": 137825.89399999985,
      "d": 39.402118750003865,
      "v": 15
    },
    {
      "midi": 54,
      "hit": false,
      "t": 138043.28499999986,
      "d": 92.39117499999702,
      "v": 76
    },
    {
      "midi": 57,
      "hit": false,
      "t": 138043.28499999986,
      "d": 180.70626875001471,
      "v": 66
    },
    {
      "midi": 54,
      "hit": false,
      "t": 138260.67599999986,
      "d": 110.05419374999474,
      "v": 86
    },
    {
      "midi": 62,
      "hit": false,
      "t": 138260.67599999986,
      "d": 425.27114374999655,
      "v": 93
    },
    {
      "midi": 57,
      "hit": false,
      "t": 138260.67599999986,
      "d": 552.9883562500181,
      "v": 79
    },
    {
      "midi": 54,
      "hit": false,
      "t": 138478.06699999986,
      "d": 77.44554374998552,
      "v": 63
    },
    {
      "midi": 54,
      "hit": false,
      "t": 138695.45799999987,
      "d": 173.91280000002007,
      "v": 66
    },
    {
      "midi": 62,
      "hit": false,
      "t": 138912.8489999999,
      "d": 120.92374374999781,
      "v": 96
    },
    {
      "midi": 55,
      "hit": false,
      "t": 138912.8489999999,
      "d": 129.07590624998556,
      "v": 96
    },
    {
      "midi": 59,
      "hit": false,
      "t": 138912.8489999999,
      "d": 134.5106812499871,
      "v": 104
    },
    {
      "midi": 43,
      "hit": false,
      "t": 138912.8489999999,
      "d": 2014.9428312499658,
      "v": 66
    },
    {
      "midi": 62,
      "hit": false,
      "t": 139130.23999999987,
      "d": 96.46725625000545,
      "v": 38
    },
    {
      "midi": 59,
      "hit": false,
      "t": 139130.23999999987,
      "d": 103.2607250000001,
      "v": 51
    },
    {
      "midi": 55,
      "hit": false,
      "t": 139130.23999999987,
      "d": 111.41288749998785,
      "v": 63
    },
    {
      "midi": 55,
      "hit": false,
      "t": 139347.63099999985,
      "d": 129.07590624998556,
      "v": 60
    },
    {
      "midi": 59,
      "hit": false,
      "t": 139347.63099999985,
      "d": 129.07590624998556,
      "v": 56
    },
    {
      "midi": 62,
      "hit": false,
      "t": 139347.63099999985,
      "d": 131.79329374997178,
      "v": 21
    },
    {
      "midi": 55,
      "hit": false,
      "t": 139565.02199999982,
      "d": 138.58676249999553,
      "v": 93
    },
    {
      "midi": 59,
      "hit": false,
      "t": 139565.02199999982,
      "d": 355.9777625000279,
      "v": 99
    },
    {
      "midi": 62,
      "hit": false,
      "t": 139565.02199999982,
      "d": 612.770881250035,
      "v": 91
    },
    {
      "midi": 55,
      "hit": false,
      "t": 139782.41299999983,
      "d": 100.54333750001388,
      "v": 38
    },
    {
      "midi": 55,
      "hit": false,
      "t": 139999.80399999986,
      "d": 145.38023124999017,
      "v": 63
    },
    {
      "midi": 59,
      "hit": false,
      "t": 139999.80399999986,
      "d": 184.78234999999404,
      "v": 51
    },
    {
      "midi": 62,
      "hit": false,
      "t": 140217.19499999986,
      "d": 133.151987499994,
      "v": 107
    },
    {
      "midi": 55,
      "hit": false,
      "t": 140217.19499999986,
      "d": 135.8693749999802,
      "v": 104
    },
    {
      "midi": 59,
      "hit": false,
      "t": 140217.19499999986,
      "d": 138.58676249996643,
      "v": 111
    },
    {
      "midi": 59,
      "hit": false,
      "t": 140434.58599999984,
      "d": 126.35851874999935,
      "v": 51
    },
    {
      "midi": 55,
      "hit": false,
      "t": 140434.58599999984,
      "d": 290.76046250000945,
      "v": 30
    },
    {
      "midi": 62,
      "hit": false,
      "t": 140434.58599999984,
      "d": 398.097268750018,
      "v": 60
    },
    {
      "midi": 59,
      "hit": false,
      "t": 140651.97699999984,
      "d": 201.08667500002775,
      "v": 38
    },
    {
      "midi": 54,
      "hit": false,
      "t": 140869.36799999987,
      "d": 164.401943749981,
      "v": 106
    },
    {
      "midi": 57,
      "hit": false,
      "t": 140869.36799999987,
      "d": 563.857906249963,
      "v": 56
    },
    {
      "midi": 62,
      "hit": false,
      "t": 140869.36799999987,
      "d": 569.2926812499645,
      "v": 46
    },
    {
      "midi": 50,
      "hit": false,
      "t": 140869.36799999987,
      "d": 2005.431974999985,
      "v": 91
    },
    {
      "midi": 54,
      "hit": false,
      "t": 141086.75899999985,
      "d": 110.05419374999474,
      "v": 53
    },
    {
      "midi": 54,
      "hit": false,
      "t": 141304.14999999985,
      "d": 153.53239374997793,
      "v": 42
    },
    {
      "midi": 54,
      "hit": false,
      "t": 141521.54099999982,
      "d": 152.17370000001392,
      "v": 99
    },
    {
      "midi": 57,
      "hit": false,
      "t": 141521.54099999982,
      "d": 319.29303125001024,
      "v": 104
    },
    {
      "midi": 54,
      "hit": false,
      "t": 141738.93199999983,
      "d": 153.53239375000703,
      "v": 73
    },
    {
      "midi": 54,
      "hit": false,
      "t": 141956.32299999983,
      "d": 171.19541250000475,
      "v": 51
    },
    {
      "midi": 57,
      "hit": false,
      "t": 141956.32299999983,
      "d": 202.44536874999176,
      "v": 69
    },
    {
      "midi": 62,
      "hit": false,
      "t": 142173.71399999983,
      "d": 8.152162499987753,
      "v": 56
    },
    {
      "midi": 54,
      "hit": false,
      "t": 142173.71399999983,
      "d": 127.71721249999246,
      "v": 99
    },
    {
      "midi": 57,
      "hit": false,
      "t": 142173.71399999983,
      "d": 588.3143937500136,
      "v": 63
    },
    {
      "midi": 54,
      "hit": false,
      "t": 142391.10499999984,
      "d": 108.69550000000163,
      "v": 73
    },
    {
      "midi": 54,
      "hit": false,
      "t": 142608.49599999984,
      "d": 179.3475749999925,
      "v": 46
    },
    {
      "midi": 55,
      "hit": false,
      "t": 142825.88699999984,
      "d": 152.17370000001392,
      "v": 96
    },
    {
      "midi": 59,
      "hit": false,
      "t": 142825.88699999984,
      "d": 376.3581687499827,
      "v": 93
    },
    {
      "midi": 62,
      "hit": false,
      "t": 142825.88699999984,
      "d": 576.0861499999883,
      "v": 99
    },
    {
      "midi": 43,
      "hit": false,
      "t": 142825.88699999984,
      "d": 1994.56242500004,
      "v": 63
    },
    {
      "midi": 55,
      "hit": false,
      "t": 143043.27799999985,
      "d": 122.28243749999092,
      "v": 24
    },
    {
      "midi": 55,
      "hit": false,
      "t": 143260.66899999982,
      "d": 141.30415000001085,
      "v": 63
    },
    {
      "midi": 59,
      "hit": false,
      "t": 143260.66899999982,
      "d": 186.14104375001625,
      "v": 24
    },
    {
      "midi": 55,
      "hit": false,
      "t": 143478.05999999982,
      "d": 160.32586250000168,
      "v": 93
    },
    {
      "midi": 59,
      "hit": false,
      "t": 143478.05999999982,
      "d": 353.2603750000126,
      "v": 93
    },
    {
      "midi": 62,
      "hit": false,
      "t": 143478.05999999982,
      "d": 585.5970062500273,
      "v": 66
    },
    {
      "midi": 55,
      "hit": false,
      "t": 143695.45099999983,
      "d": 114.13027500000317,
      "v": 46
    },
    {
      "midi": 55,
      "hit": false,
      "t": 143912.84199999983,
      "d": 146.7389250000124,
      "v": 21
    },
    {
      "midi": 59,
      "hit": false,
      "t": 143912.84199999983,
      "d": 168.47802500001853,
      "v": 15
    },
    {
      "midi": 55,
      "hit": false,
      "t": 144130.23299999986,
      "d": 561.1405187500059,
      "v": 101
    },
    {
      "midi": 59,
      "hit": false,
      "t": 144130.23299999986,
      "d": 572.0100687500089,
      "v": 107
    },
    {
      "midi": 62,
      "hit": false,
      "t": 144130.23299999986,
      "d": 572.0100687500089,
      "v": 104
    },
    {
      "midi": 54,
      "hit": false,
      "t": 144782.40599999987,
      "d": 163.043250000017,
      "v": 98
    },
    {
      "midi": 57,
      "hit": false,
      "t": 144782.40599999987,
      "d": 207.8801437500224,
      "v": 86
    },
    {
      "midi": 62,
      "hit": false,
      "t": 144782.40599999987,
      "d": 400.8146562500624,
      "v": 104
    },
    {
      "midi": 50,
      "hit": false,
      "t": 144782.40599999987,
      "d": 2039.3993187500746,
      "v": 86
    },
    {
      "midi": 54,
      "hit": false,
      "t": 144999.7969999999,
      "d": 95.10856250001234,
      "v": 56
    },
    {
      "midi": 57,
      "hit": false,
      "t": 144999.7969999999,
      "d": 139.94545625001774,
      "v": 21
    },
    {
      "midi": 54,
      "hit": false,
      "t": 145217.18799999994,
      "d": 111.41288749998785,
      "v": 21
    },
    {
      "midi": 57,
      "hit": false,
      "t": 145217.18799999994,
      "d": 127.71721249999246,
      "v": 30
    },
    {
      "midi": 62,
      "hit": false,
      "t": 145217.18799999994,
      "d": 146.73892499998328,
      "v": 21
    },
    {
      "midi": 54,
      "hit": false,
      "t": 145434.5789999999,
      "d": 172.55410624999786,
      "v": 99
    },
    {
      "midi": 57,
      "hit": false,
      "t": 145434.5789999999,
      "d": 328.8038875000202,
      "v": 104
    },
    {
      "midi": 62,
      "hit": false,
      "t": 145434.5789999999,
      "d": 572.0100687500089,
      "v": 108
    },
    {
      "midi": 54,
      "hit": false,
      "t": 145651.9699999999,
      "d": 39.402118750003865,
      "v": 15
    },
    {
      "midi": 54,
      "hit": false,
      "t": 145869.36099999992,
      "d": 92.39117499999702,
      "v": 76
    },
    {
      "midi": 57,
      "hit": false,
      "t": 145869.36099999992,
      "d": 180.70626875001471,
      "v": 66
    },
    {
      "midi": 54,
      "hit": false,
      "t": 146086.75199999992,
      "d": 110.05419374999474,
      "v": 86
    },
    {
      "midi": 62,
      "hit": false,
      "t": 146086.75199999992,
      "d": 425.27114374999655,
      "v": 93
    },
    {
      "midi": 57,
      "hit": false,
      "t": 146086.75199999992,
      "d": 552.9883562500181,
      "v": 79
    },
    {
      "midi": 54,
      "hit": false,
      "t": 146304.14299999992,
      "d": 77.44554374998552,
      "v": 63
    },
    {
      "midi": 54,
      "hit": false,
      "t": 146521.53399999993,
      "d": 173.91280000002007,
      "v": 66
    },
    {
      "midi": 62,
      "hit": false,
      "t": 146738.92499999996,
      "d": 120.92374374999781,
      "v": 96
    },
    {
      "midi": 55,
      "hit": false,
      "t": 146738.92499999996,
      "d": 129.07590624998556,
      "v": 96
    },
    {
      "midi": 59,
      "hit": false,
      "t": 146738.92499999996,
      "d": 134.5106812499871,
      "v": 104
    },
    {
      "midi": 43,
      "hit": false,
      "t": 146738.92499999996,
      "d": 2014.9428312499658,
      "v": 66
    },
    {
      "midi": 62,
      "hit": false,
      "t": 146956.31599999993,
      "d": 96.46725625000545,
      "v": 38
    },
    {
      "midi": 59,
      "hit": false,
      "t": 146956.31599999993,
      "d": 103.2607250000001,
      "v": 51
    },
    {
      "midi": 55,
      "hit": false,
      "t": 146956.31599999993,
      "d": 111.41288749998785,
      "v": 63
    },
    {
      "midi": 55,
      "hit": false,
      "t": 147173.7069999999,
      "d": 129.07590624998556,
      "v": 60
    },
    {
      "midi": 59,
      "hit": false,
      "t": 147173.7069999999,
      "d": 129.07590624998556,
      "v": 56
    },
    {
      "midi": 62,
      "hit": false,
      "t": 147173.7069999999,
      "d": 131.79329374997178,
      "v": 21
    },
    {
      "midi": 55,
      "hit": false,
      "t": 147391.09799999988,
      "d": 138.58676249999553,
      "v": 93
    },
    {
      "midi": 59,
      "hit": false,
      "t": 147391.09799999988,
      "d": 355.9777625000279,
      "v": 99
    },
    {
      "midi": 62,
      "hit": false,
      "t": 147391.09799999988,
      "d": 612.770881250035,
      "v": 91
    },
    {
      "midi": 55,
      "hit": false,
      "t": 147608.48899999988,
      "d": 100.54333750001388,
      "v": 38
    },
    {
      "midi": 55,
      "hit": false,
      "t": 147825.87999999992,
      "d": 145.38023124999017,
      "v": 63
    },
    {
      "midi": 59,
      "hit": false,
      "t": 147825.87999999992,
      "d": 184.78234999999404,
      "v": 51
    },
    {
      "midi": 62,
      "hit": false,
      "t": 148043.27099999992,
      "d": 133.151987499994,
      "v": 107
    },
    {
      "midi": 55,
      "hit": false,
      "t": 148043.27099999992,
      "d": 135.8693749999802,
      "v": 104
    },
    {
      "midi": 59,
      "hit": false,
      "t": 148043.27099999992,
      "d": 138.58676249996643,
      "v": 111
    },
    {
      "midi": 59,
      "hit": false,
      "t": 148260.6619999999,
      "d": 126.35851874999935,
      "v": 51
    },
    {
      "midi": 55,
      "hit": false,
      "t": 148260.6619999999,
      "d": 290.76046250000945,
      "v": 30
    },
    {
      "midi": 62,
      "hit": false,
      "t": 148260.6619999999,
      "d": 398.097268750018,
      "v": 60
    },
    {
      "midi": 59,
      "hit": false,
      "t": 148478.0529999999,
      "d": 201.08667500002775,
      "v": 38
    },
    {
      "midi": 54,
      "hit": false,
      "t": 148695.44399999993,
      "d": 164.401943749981,
      "v": 106
    },
    {
      "midi": 57,
      "hit": false,
      "t": 148695.44399999993,
      "d": 563.857906249963,
      "v": 56
    },
    {
      "midi": 62,
      "hit": false,
      "t": 148695.44399999993,
      "d": 569.2926812499645,
      "v": 46
    },
    {
      "midi": 50,
      "hit": false,
      "t": 148695.44399999993,
      "d": 2005.431974999985,
      "v": 91
    },
    {
      "midi": 54,
      "hit": false,
      "t": 148912.8349999999,
      "d": 110.05419374999474,
      "v": 53
    },
    {
      "midi": 54,
      "hit": false,
      "t": 149130.2259999999,
      "d": 153.53239374997793,
      "v": 42
    },
    {
      "midi": 54,
      "hit": false,
      "t": 149347.61699999988,
      "d": 152.17370000001392,
      "v": 99
    },
    {
      "midi": 57,
      "hit": false,
      "t": 149347.61699999988,
      "d": 319.29303125001024,
      "v": 104
    },
    {
      "midi": 54,
      "hit": false,
      "t": 149565.00799999989,
      "d": 153.53239375000703,
      "v": 73
    },
    {
      "midi": 54,
      "hit": false,
      "t": 149782.3989999999,
      "d": 171.19541250000475,
      "v": 51
    },
    {
      "midi": 57,
      "hit": false,
      "t": 149782.3989999999,
      "d": 202.44536874999176,
      "v": 69
    },
    {
      "midi": 62,
      "hit": false,
      "t": 149999.7899999999,
      "d": 8.152162499987753,
      "v": 56
    },
    {
      "midi": 54,
      "hit": false,
      "t": 149999.7899999999,
      "d": 127.71721249999246,
      "v": 99
    },
    {
      "midi": 57,
      "hit": false,
      "t": 149999.7899999999,
      "d": 588.3143937500136,
      "v": 63
    },
    {
      "midi": 54,
      "hit": false,
      "t": 150217.1809999999,
      "d": 108.69550000000163,
      "v": 73
    },
    {
      "midi": 54,
      "hit": false,
      "t": 150434.5719999999,
      "d": 179.3475749999925,
      "v": 46
    },
    {
      "midi": 55,
      "hit": false,
      "t": 150651.9629999999,
      "d": 152.17370000001392,
      "v": 96
    },
    {
      "midi": 59,
      "hit": false,
      "t": 150651.9629999999,
      "d": 376.3581687499827,
      "v": 93
    },
    {
      "midi": 62,
      "hit": false,
      "t": 150651.9629999999,
      "d": 576.0861499999883,
      "v": 99
    },
    {
      "midi": 43,
      "hit": false,
      "t": 150651.9629999999,
      "d": 1994.56242500004,
      "v": 63
    },
    {
      "midi": 55,
      "hit": false,
      "t": 150869.3539999999,
      "d": 122.28243749999092,
      "v": 24
    },
    {
      "midi": 55,
      "hit": false,
      "t": 151086.74499999988,
      "d": 141.30415000001085,
      "v": 63
    },
    {
      "midi": 59,
      "hit": false,
      "t": 151086.74499999988,
      "d": 186.14104375001625,
      "v": 24
    },
    {
      "midi": 55,
      "hit": false,
      "t": 151304.13599999988,
      "d": 160.32586250000168,
      "v": 93
    },
    {
      "midi": 59,
      "hit": false,
      "t": 151304.13599999988,
      "d": 353.2603750000126,
      "v": 93
    },
    {
      "midi": 62,
      "hit": false,
      "t": 151304.13599999988,
      "d": 585.5970062500273,
      "v": 66
    },
    {
      "midi": 55,
      "hit": false,
      "t": 151521.52699999989,
      "d": 114.13027500000317,
      "v": 46
    },
    {
      "midi": 55,
      "hit": false,
      "t": 151738.9179999999,
      "d": 146.7389250000124,
      "v": 21
    },
    {
      "midi": 59,
      "hit": false,
      "t": 151738.9179999999,
      "d": 168.47802500001853,
      "v": 15
    },
    {
      "midi": 55,
      "hit": false,
      "t": 151956.30899999992,
      "d": 561.1405187500059,
      "v": 101
    },
    {
      "midi": 59,
      "hit": false,
      "t": 151956.30899999992,
      "d": 572.0100687500089,
      "v": 107
    },
    {
      "midi": 62,
      "hit": false,
      "t": 151956.30899999992,
      "d": 572.0100687500089,
      "v": 104
    },
    {
      "midi": 54,
      "hit": false,
      "t": 152608.48199999993,
      "d": 163.043250000017,
      "v": 98
    },
    {
      "midi": 57,
      "hit": false,
      "t": 152608.48199999993,
      "d": 207.8801437500224,
      "v": 86
    },
    {
      "midi": 62,
      "hit": false,
      "t": 152608.48199999993,
      "d": 400.8146562500624,
      "v": 104
    },
    {
      "midi": 50,
      "hit": false,
      "t": 152608.48199999993,
      "d": 2039.3993187500746,
      "v": 86
    },
    {
      "midi": 54,
      "hit": false,
      "t": 152825.87299999996,
      "d": 95.10856250001234,
      "v": 56
    },
    {
      "midi": 57,
      "hit": false,
      "t": 152825.87299999996,
      "d": 139.94545625001774,
      "v": 21
    },
    {
      "midi": 54,
      "hit": false,
      "t": 153043.264,
      "d": 111.41288749998785,
      "v": 21
    },
    {
      "midi": 57,
      "hit": false,
      "t": 153043.264,
      "d": 127.71721249999246,
      "v": 30
    },
    {
      "midi": 62,
      "hit": false,
      "t": 153043.264,
      "d": 146.73892499998328,
      "v": 21
    },
    {
      "midi": 54,
      "hit": false,
      "t": 153260.65499999997,
      "d": 172.55410624999786,
      "v": 99
    },
    {
      "midi": 57,
      "hit": false,
      "t": 153260.65499999997,
      "d": 328.8038875000202,
      "v": 104
    },
    {
      "midi": 62,
      "hit": false,
      "t": 153260.65499999997,
      "d": 572.0100687500089,
      "v": 108
    },
    {
      "midi": 54,
      "hit": false,
      "t": 153478.04599999997,
      "d": 39.402118750003865,
      "v": 15
    },
    {
      "midi": 54,
      "hit": false,
      "t": 153695.43699999998,
      "d": 92.39117499999702,
      "v": 76
    },
    {
      "midi": 57,
      "hit": false,
      "t": 153695.43699999998,
      "d": 180.70626875001471,
      "v": 66
    },
    {
      "midi": 54,
      "hit": false,
      "t": 153912.82799999998,
      "d": 110.05419374999474,
      "v": 86
    },
    {
      "midi": 62,
      "hit": false,
      "t": 153912.82799999998,
      "d": 425.27114374999655,
      "v": 93
    },
    {
      "midi": 57,
      "hit": false,
      "t": 153912.82799999998,
      "d": 552.9883562500181,
      "v": 79
    },
    {
      "midi": 54,
      "hit": false,
      "t": 154130.21899999998,
      "d": 77.44554374998552,
      "v": 63
    },
    {
      "midi": 54,
      "hit": false,
      "t": 154347.61,
      "d": 173.91280000002007,
      "v": 66
    },
    {
      "midi": 62,
      "hit": false,
      "t": 154565.00100000002,
      "d": 120.92374374999781,
      "v": 96
    },
    {
      "midi": 55,
      "hit": false,
      "t": 154565.00100000002,
      "d": 129.07590624998556,
      "v": 96
    },
    {
      "midi": 59,
      "hit": false,
      "t": 154565.00100000002,
      "d": 134.5106812499871,
      "v": 104
    },
    {
      "midi": 43,
      "hit": false,
      "t": 154565.00100000002,
      "d": 2014.9428312499658,
      "v": 66
    },
    {
      "midi": 62,
      "hit": false,
      "t": 154782.392,
      "d": 96.46725625000545,
      "v": 38
    },
    {
      "midi": 59,
      "hit": false,
      "t": 154782.392,
      "d": 103.2607250000001,
      "v": 51
    },
    {
      "midi": 55,
      "hit": false,
      "t": 154782.392,
      "d": 111.41288749998785,
      "v": 63
    },
    {
      "midi": 55,
      "hit": false,
      "t": 154999.78299999997,
      "d": 129.07590624998556,
      "v": 60
    },
    {
      "midi": 59,
      "hit": false,
      "t": 154999.78299999997,
      "d": 129.07590624998556,
      "v": 56
    },
    {
      "midi": 62,
      "hit": false,
      "t": 154999.78299999997,
      "d": 131.79329374997178,
      "v": 21
    },
    {
      "midi": 55,
      "hit": false,
      "t": 155217.17399999994,
      "d": 138.58676249999553,
      "v": 93
    },
    {
      "midi": 59,
      "hit": false,
      "t": 155217.17399999994,
      "d": 355.9777625000279,
      "v": 99
    },
    {
      "midi": 62,
      "hit": false,
      "t": 155217.17399999994,
      "d": 612.770881250035,
      "v": 91
    },
    {
      "midi": 55,
      "hit": false,
      "t": 155434.56499999994,
      "d": 100.54333750001388,
      "v": 38
    },
    {
      "midi": 55,
      "hit": false,
      "t": 155651.95599999998,
      "d": 145.38023124999017,
      "v": 63
    },
    {
      "midi": 59,
      "hit": false,
      "t": 155651.95599999998,
      "d": 184.78234999999404,
      "v": 51
    },
    {
      "midi": 62,
      "hit": false,
      "t": 155869.34699999998,
      "d": 133.151987499994,
      "v": 107
    },
    {
      "midi": 55,
      "hit": false,
      "t": 155869.34699999998,
      "d": 135.8693749999802,
      "v": 104
    },
    {
      "midi": 59,
      "hit": false,
      "t": 155869.34699999998,
      "d": 138.58676249996643,
      "v": 111
    },
    {
      "midi": 59,
      "hit": false,
      "t": 156086.73799999995,
      "d": 126.35851874999935,
      "v": 51
    },
    {
      "midi": 55,
      "hit": false,
      "t": 156086.73799999995,
      "d": 290.76046250000945,
      "v": 30
    },
    {
      "midi": 62,
      "hit": false,
      "t": 156086.73799999995,
      "d": 398.097268750018,
      "v": 60
    },
    {
      "midi": 59,
      "hit": false,
      "t": 156304.12899999996,
      "d": 201.08667500002775,
      "v": 38
    },
    {
      "midi": 54,
      "hit": false,
      "t": 156521.52,
      "d": 164.401943749981,
      "v": 106
    },
    {
      "midi": 57,
      "hit": false,
      "t": 156521.52,
      "d": 563.857906249963,
      "v": 56
    },
    {
      "midi": 62,
      "hit": false,
      "t": 156521.52,
      "d": 569.2926812499645,
      "v": 46
    },
    {
      "midi": 50,
      "hit": false,
      "t": 156521.52,
      "d": 2005.431974999985,
      "v": 91
    },
    {
      "midi": 54,
      "hit": false,
      "t": 156738.91099999996,
      "d": 110.05419374999474,
      "v": 53
    },
    {
      "midi": 54,
      "hit": false,
      "t": 156956.30199999997,
      "d": 153.53239374997793,
      "v": 42
    },
    {
      "midi": 54,
      "hit": false,
      "t": 157173.69299999994,
      "d": 152.17370000001392,
      "v": 99
    },
    {
      "midi": 57,
      "hit": false,
      "t": 157173.69299999994,
      "d": 319.29303125001024,
      "v": 104
    },
    {
      "midi": 54,
      "hit": false,
      "t": 157391.08399999994,
      "d": 153.53239375000703,
      "v": 73
    },
    {
      "midi": 54,
      "hit": false,
      "t": 157608.47499999995,
      "d": 171.19541250000475,
      "v": 51
    },
    {
      "midi": 57,
      "hit": false,
      "t": 157608.47499999995,
      "d": 202.44536874999176,
      "v": 69
    },
    {
      "midi": 62,
      "hit": false,
      "t": 157825.86599999995,
      "d": 8.152162499987753,
      "v": 56
    },
    {
      "midi": 54,
      "hit": false,
      "t": 157825.86599999995,
      "d": 127.71721249999246,
      "v": 99
    },
    {
      "midi": 57,
      "hit": false,
      "t": 157825.86599999995,
      "d": 588.3143937500136,
      "v": 63
    },
    {
      "midi": 54,
      "hit": false,
      "t": 158043.25699999995,
      "d": 108.69550000000163,
      "v": 73
    },
    {
      "midi": 54,
      "hit": false,
      "t": 158260.64799999996,
      "d": 179.3475749999925,
      "v": 46
    },
    {
      "midi": 55,
      "hit": false,
      "t": 158478.03899999996,
      "d": 152.17370000001392,
      "v": 96
    },
    {
      "midi": 59,
      "hit": false,
      "t": 158478.03899999996,
      "d": 376.3581687499827,
      "v": 93
    },
    {
      "midi": 62,
      "hit": false,
      "t": 158478.03899999996,
      "d": 576.0861499999883,
      "v": 99
    },
    {
      "midi": 43,
      "hit": false,
      "t": 158478.03899999996,
      "d": 1994.56242500004,
      "v": 63
    },
    {
      "midi": 55,
      "hit": false,
      "t": 158695.42999999996,
      "d": 122.28243749999092,
      "v": 24
    },
    {
      "midi": 55,
      "hit": false,
      "t": 158912.82099999994,
      "d": 141.30415000001085,
      "v": 63
    },
    {
      "midi": 59,
      "hit": false,
      "t": 158912.82099999994,
      "d": 186.14104375001625,
      "v": 24
    },
    {
      "midi": 55,
      "hit": false,
      "t": 159130.21199999994,
      "d": 160.32586250000168,
      "v": 93
    },
    {
      "midi": 59,
      "hit": false,
      "t": 159130.21199999994,
      "d": 353.2603750000126,
      "v": 93
    },
    {
      "midi": 62,
      "hit": false,
      "t": 159130.21199999994,
      "d": 585.5970062500273,
      "v": 66
    },
    {
      "midi": 55,
      "hit": false,
      "t": 159347.60299999994,
      "d": 114.13027500000317,
      "v": 46
    },
    {
      "midi": 55,
      "hit": false,
      "t": 159564.99399999995,
      "d": 146.7389250000124,
      "v": 21
    },
    {
      "midi": 59,
      "hit": false,
      "t": 159564.99399999995,
      "d": 168.47802500001853,
      "v": 15
    },
    {
      "midi": 55,
      "hit": false,
      "t": 159782.38499999998,
      "d": 561.1405187500059,
      "v": 101
    },
    {
      "midi": 59,
      "hit": false,
      "t": 159782.38499999998,
      "d": 572.0100687500089,
      "v": 107
    },
    {
      "midi": 62,
      "hit": false,
      "t": 159782.38499999998,
      "d": 572.0100687500089,
      "v": 104
    },
    {
      "midi": 54,
      "hit": false,
      "t": 160434.558,
      "d": 163.043250000017,
      "v": 98
    },
    {
      "midi": 57,
      "hit": false,
      "t": 160434.558,
      "d": 207.8801437500224,
      "v": 86
    },
    {
      "midi": 62,
      "hit": false,
      "t": 160434.558,
      "d": 400.8146562500624,
      "v": 104
    },
    {
      "midi": 50,
      "hit": false,
      "t": 160434.558,
      "d": 2039.3993187500746,
      "v": 86
    },
    {
      "midi": 54,
      "hit": false,
      "t": 160651.94900000002,
      "d": 95.10856250001234,
      "v": 56
    },
    {
      "midi": 57,
      "hit": false,
      "t": 160651.94900000002,
      "d": 139.94545625001774,
      "v": 21
    },
    {
      "midi": 54,
      "hit": false,
      "t": 160869.34000000005,
      "d": 111.41288749998785,
      "v": 21
    },
    {
      "midi": 57,
      "hit": false,
      "t": 160869.34000000005,
      "d": 127.71721249999246,
      "v": 30
    },
    {
      "midi": 62,
      "hit": false,
      "t": 160869.34000000005,
      "d": 146.73892499998328,
      "v": 21
    },
    {
      "midi": 54,
      "hit": false,
      "t": 161086.73100000003,
      "d": 172.55410624999786,
      "v": 99
    },
    {
      "midi": 57,
      "hit": false,
      "t": 161086.73100000003,
      "d": 328.8038875000202,
      "v": 104
    },
    {
      "midi": 62,
      "hit": false,
      "t": 161086.73100000003,
      "d": 572.0100687500089,
      "v": 108
    },
    {
      "midi": 54,
      "hit": false,
      "t": 161304.12200000003,
      "d": 39.402118750003865,
      "v": 15
    },
    {
      "midi": 54,
      "hit": false,
      "t": 161521.51300000004,
      "d": 92.39117499999702,
      "v": 76
    },
    {
      "midi": 57,
      "hit": false,
      "t": 161521.51300000004,
      "d": 180.70626875001471,
      "v": 66
    },
    {
      "midi": 54,
      "hit": false,
      "t": 161738.90400000004,
      "d": 110.05419374999474,
      "v": 86
    },
    {
      "midi": 62,
      "hit": false,
      "t": 161738.90400000004,
      "d": 425.27114374999655,
      "v": 93
    },
    {
      "midi": 57,
      "hit": false,
      "t": 161738.90400000004,
      "d": 552.9883562500181,
      "v": 79
    },
    {
      "midi": 54,
      "hit": false,
      "t": 161956.29500000004,
      "d": 77.44554374998552,
      "v": 63
    },
    {
      "midi": 54,
      "hit": false,
      "t": 162173.68600000005,
      "d": 173.91280000002007,
      "v": 66
    },
    {
      "midi": 62,
      "hit": false,
      "t": 162391.07700000008,
      "d": 120.92374374999781,
      "v": 96
    },
    {
      "midi": 55,
      "hit": false,
      "t": 162391.07700000008,
      "d": 129.07590624998556,
      "v": 96
    },
    {
      "midi": 59,
      "hit": false,
      "t": 162391.07700000008,
      "d": 134.5106812499871,
      "v": 104
    },
    {
      "midi": 43,
      "hit": false,
      "t": 162391.07700000008,
      "d": 2014.9428312499658,
      "v": 66
    },
    {
      "midi": 62,
      "hit": false,
      "t": 162608.46800000005,
      "d": 96.46725625000545,
      "v": 38
    },
    {
      "midi": 59,
      "hit": false,
      "t": 162608.46800000005,
      "d": 103.2607250000001,
      "v": 51
    },
    {
      "midi": 55,
      "hit": false,
      "t": 162608.46800000005,
      "d": 111.41288749998785,
      "v": 63
    },
    {
      "midi": 55,
      "hit": false,
      "t": 162825.85900000003,
      "d": 129.07590624998556,
      "v": 60
    },
    {
      "midi": 59,
      "hit": false,
      "t": 162825.85900000003,
      "d": 129.07590624998556,
      "v": 56
    },
    {
      "midi": 62,
      "hit": false,
      "t": 162825.85900000003,
      "d": 131.79329374997178,
      "v": 21
    },
    {
      "midi": 55,
      "hit": false,
      "t": 163043.25,
      "d": 138.58676249999553,
      "v": 93
    },
    {
      "midi": 59,
      "hit": false,
      "t": 163043.25,
      "d": 355.9777625000279,
      "v": 99
    },
    {
      "midi": 62,
      "hit": false,
      "t": 163043.25,
      "d": 612.770881250035,
      "v": 91
    },
    {
      "midi": 55,
      "hit": false,
      "t": 163260.641,
      "d": 100.54333750001388,
      "v": 38
    },
    {
      "midi": 55,
      "hit": false,
      "t": 163478.03200000004,
      "d": 145.38023124999017,
      "v": 63
    },
    {
      "midi": 59,
      "hit": false,
      "t": 163478.03200000004,
      "d": 184.78234999999404,
      "v": 51
    },
    {
      "midi": 62,
      "hit": false,
      "t": 163695.42300000004,
      "d": 133.151987499994,
      "v": 107
    },
    {
      "midi": 55,
      "hit": false,
      "t": 163695.42300000004,
      "d": 135.8693749999802,
      "v": 104
    },
    {
      "midi": 59,
      "hit": false,
      "t": 163695.42300000004,
      "d": 138.58676249996643,
      "v": 111
    },
    {
      "midi": 59,
      "hit": false,
      "t": 163912.814,
      "d": 126.35851874999935,
      "v": 51
    },
    {
      "midi": 55,
      "hit": false,
      "t": 163912.814,
      "d": 290.76046250000945,
      "v": 30
    },
    {
      "midi": 62,
      "hit": false,
      "t": 163912.814,
      "d": 398.097268750018,
      "v": 60
    },
    {
      "midi": 59,
      "hit": false,
      "t": 164130.20500000002,
      "d": 201.08667500002775,
      "v": 38
    },
    {
      "midi": 54,
      "hit": false,
      "t": 164347.59600000005,
      "d": 164.401943749981,
      "v": 106
    },
    {
      "midi": 57,
      "hit": false,
      "t": 164347.59600000005,
      "d": 563.857906249963,
      "v": 56
    },
    {
      "midi": 62,
      "hit": false,
      "t": 164347.59600000005,
      "d": 569.2926812499645,
      "v": 46
    },
    {
      "midi": 50,
      "hit": false,
      "t": 164347.59600000005,
      "d": 2005.431974999985,
      "v": 91
    },
    {
      "midi": 54,
      "hit": false,
      "t": 164564.98700000002,
      "d": 110.05419374999474,
      "v": 53
    },
    {
      "midi": 54,
      "hit": false,
      "t": 164782.37800000003,
      "d": 153.53239374997793,
      "v": 42
    },
    {
      "midi": 54,
      "hit": false,
      "t": 164999.769,
      "d": 152.17370000001392,
      "v": 99
    },
    {
      "midi": 57,
      "hit": false,
      "t": 164999.769,
      "d": 319.29303125001024,
      "v": 104
    },
    {
      "midi": 54,
      "hit": false,
      "t": 165217.16,
      "d": 153.53239375000703,
      "v": 73
    },
    {
      "midi": 54,
      "hit": false,
      "t": 165434.551,
      "d": 171.19541250000475,
      "v": 51
    },
    {
      "midi": 57,
      "hit": false,
      "t": 165434.551,
      "d": 202.44536874999176,
      "v": 69
    },
    {
      "midi": 62,
      "hit": false,
      "t": 165651.942,
      "d": 8.152162499987753,
      "v": 56
    },
    {
      "midi": 54,
      "hit": false,
      "t": 165651.942,
      "d": 127.71721249999246,
      "v": 99
    },
    {
      "midi": 57,
      "hit": false,
      "t": 165651.942,
      "d": 588.3143937500136,
      "v": 63
    },
    {
      "midi": 54,
      "hit": false,
      "t": 165869.333,
      "d": 108.69550000000163,
      "v": 73
    },
    {
      "midi": 54,
      "hit": false,
      "t": 166086.72400000002,
      "d": 179.3475749999925,
      "v": 46
    },
    {
      "midi": 55,
      "hit": false,
      "t": 166304.11500000002,
      "d": 152.17370000001392,
      "v": 96
    },
    {
      "midi": 59,
      "hit": false,
      "t": 166304.11500000002,
      "d": 376.3581687499827,
      "v": 93
    },
    {
      "midi": 62,
      "hit": false,
      "t": 166304.11500000002,
      "d": 576.0861499999883,
      "v": 99
    },
    {
      "midi": 43,
      "hit": false,
      "t": 166304.11500000002,
      "d": 1994.56242500004,
      "v": 63
    },
    {
      "midi": 55,
      "hit": false,
      "t": 166521.50600000002,
      "d": 122.28243749999092,
      "v": 24
    },
    {
      "midi": 55,
      "hit": false,
      "t": 166738.897,
      "d": 141.30415000001085,
      "v": 63
    },
    {
      "midi": 59,
      "hit": false,
      "t": 166738.897,
      "d": 186.14104375001625,
      "v": 24
    },
    {
      "midi": 55,
      "hit": false,
      "t": 166956.288,
      "d": 160.32586250000168,
      "v": 93
    },
    {
      "midi": 59,
      "hit": false,
      "t": 166956.288,
      "d": 353.2603750000126,
      "v": 93
    },
    {
      "midi": 62,
      "hit": false,
      "t": 166956.288,
      "d": 585.5970062500273,
      "v": 66
    },
    {
      "midi": 55,
      "hit": false,
      "t": 167173.679,
      "d": 114.13027500000317,
      "v": 46
    },
    {
      "midi": 55,
      "hit": false,
      "t": 167391.07,
      "d": 146.7389250000124,
      "v": 21
    },
    {
      "midi": 59,
      "hit": false,
      "t": 167391.07,
      "d": 168.47802500001853,
      "v": 15
    },
    {
      "midi": 55,
      "hit": false,
      "t": 167608.46100000004,
      "d": 561.1405187500059,
      "v": 101
    },
    {
      "midi": 59,
      "hit": false,
      "t": 167608.46100000004,
      "d": 572.0100687500089,
      "v": 107
    },
    {
      "midi": 62,
      "hit": false,
      "t": 167608.46100000004,
      "d": 572.0100687500089,
      "v": 104
    },
    {
      "midi": 55,
      "hit": false,
      "t": 168260.63400000005,
      "d": 800.2706187500153,
      "v": 119
    },
    {
      "midi": 67,
      "hit": false,
      "t": 168260.63400000005,
      "d": 1152.1723000000056,
      "v": 113
    },
    {
      "midi": 64,
      "hit": false,
      "t": 168260.63400000005,
      "d": 1176.628787499998,
      "v": 111
    },
    {
      "midi": 60,
      "hit": false,
      "t": 168260.63400000005,
      "d": 1177.987481249991,
      "v": 112
    },
    {
      "midi": 36,
      "hit": false,
      "t": 168260.63400000005,
      "d": 1688.8563312500191,
      "v": 113
    },
    {
      "midi": 48,
      "hit": false,
      "t": 168912.80700000006,
      "d": 770.3793562499923,
      "v": 76
    },
    {
      "midi": 55,
      "hit": false,
      "t": 169347.58900000007,
      "d": 105.97811249998631,
      "v": 104
    },
    {
      "midi": 57,
      "hit": false,
      "t": 169564.98000000004,
      "d": 39.402118750003865,
      "v": 24
    },
    {
      "midi": 55,
      "hit": false,
      "t": 169564.98000000004,
      "d": 346.4669062500179,
      "v": 104
    },
    {
      "midi": 67,
      "hit": false,
      "t": 169564.98000000004,
      "d": 547.5535812500457,
      "v": 108
    },
    {
      "midi": 60,
      "hit": false,
      "t": 169564.98000000004,
      "d": 548.9122750000388,
      "v": 104
    },
    {
      "midi": 64,
      "hit": false,
      "t": 169564.98000000004,
      "d": 578.8035375000327,
      "v": 111
    },
    {
      "midi": 48,
      "hit": false,
      "t": 169999.76200000008,
      "d": 184.78234999999404,
      "v": 107
    },
    {
      "midi": 59,
      "hit": false,
      "t": 170217.15300000008,
      "d": 510.86884999999893,
      "v": 111
    },
    {
      "midi": 67,
      "hit": false,
      "t": 170217.15300000008,
      "d": 1197.009193750011,
      "v": 111
    },
    {
      "midi": 64,
      "hit": false,
      "t": 170217.15300000008,
      "d": 1251.3569437499973,
      "v": 116
    },
    {
      "midi": 47,
      "hit": false,
      "t": 170217.15300000008,
      "d": 1502.715287500003,
      "v": 112
    },
    {
      "midi": 59,
      "hit": false,
      "t": 170869.3260000001,
      "d": 103.2607250000001,
      "v": 79
    },
    {
      "midi": 59,
      "hit": false,
      "t": 171304.1080000001,
      "d": 146.73892499998328,
      "v": 76
    },
    {
      "midi": 65,
      "hit": false,
      "t": 171521.49900000007,
      "d": 27.173875000007683,
      "v": 60
    },
    {
      "midi": 59,
      "hit": false,
      "t": 171521.49900000007,
      "d": 525.8144812500104,
      "v": 110
    },
    {
      "midi": 64,
      "hit": false,
      "t": 171521.49900000007,
      "d": 595.1078625000082,
      "v": 115
    },
    {
      "midi": 67,
      "hit": false,
      "t": 171521.49900000007,
      "d": 619.5643500000006,
      "v": 112
    },
    {
      "midi": 47,
      "hit": false,
      "t": 171956.28100000008,
      "d": 150.8150062499917,
      "v": 79
    },
    {
      "midi": 57,
      "hit": false,
      "t": 172173.67200000008,
      "d": 853.2596750000084,
      "v": 115
    },
    {
      "midi": 62,
      "hit": false,
      "t": 172173.67200000008,
      "d": 1160.3244625000225,
      "v": 111
    },
    {
      "midi": 66,
      "hit": false,
      "t": 172173.67200000008,
      "d": 1213.3135187500156,
      "v": 98
    },
    {
      "midi": 38,
      "hit": false,
      "t": 172173.67200000008,
      "d": 1868.2039062500407,
      "v": 107
    },
    {
      "midi": 50,
      "hit": false,
      "t": 172825.8450000001,
      "d": 896.7378749999916,
      "v": 93
    },
    {
      "midi": 57,
      "hit": false,
      "t": 173260.6270000001,
      "d": 294.8365437499888,
      "v": 101
    },
    {
      "midi": 69,
      "hit": false,
      "t": 173478.0180000001,
      "d": 307.06478749998496,
      "v": 99
    },
    {
      "midi": 66,
      "hit": false,
      "t": 173478.0180000001,
      "d": 357.3364562499919,
      "v": 111
    },
    {
      "midi": 62,
      "hit": false,
      "t": 173478.0180000001,
      "d": 400.8146562500042,
      "v": 111
    },
    {
      "midi": 57,
      "hit": false,
      "t": 173695.40900000007,
      "d": 266.3039750000462,
      "v": 96
    },
    {
      "midi": 50,
      "hit": false,
      "t": 173912.8000000001,
      "d": 459.2384874999989,
      "v": 93
    },
    {
      "midi": 54,
      "hit": false,
      "t": 174130.1910000001,
      "d": 866.8466124999977,
      "v": 99
    },
    {
      "midi": 57,
      "hit": false,
      "t": 174130.1910000001,
      "d": 1101.9006312499987,
      "v": 96
    },
    {
      "midi": 66,
      "hit": false,
      "t": 174130.1910000001,
      "d": 1180.7048687500064,
      "v": 111
    },
    {
      "midi": 62,
      "hit": false,
      "t": 174130.1910000001,
      "d": 1182.0635624999995,
      "v": 109
    },
    {
      "midi": 38,
      "hit": false,
      "t": 174130.1910000001,
      "d": 1802.986606249964,
      "v": 99
    },
    {
      "midi": 50,
      "hit": false,
      "t": 174782.36400000012,
      "d": 892.6617937499541,
      "v": 121
    },
    {
      "midi": 54,
      "hit": false,
      "t": 175217.1460000001,
      "d": 142.66284375000396,
      "v": 111
    },
    {
      "midi": 54,
      "hit": false,
      "t": 175434.5370000001,
      "d": 59.7825249999878,
      "v": 103
    },
    {
      "midi": 57,
      "hit": false,
      "t": 175434.5370000001,
      "d": 385.8690249999927,
      "v": 111
    },
    {
      "midi": 62,
      "hit": false,
      "t": 175434.5370000001,
      "d": 432.0646124999912,
      "v": 111
    },
    {
      "midi": 66,
      "hit": false,
      "t": 175434.5370000001,
      "d": 501.35799374995986,
      "v": 119
    },
    {
      "midi": 54,
      "hit": false,
      "t": 175651.92800000007,
      "d": 158.96716875000857,
      "v": 114
    },
    {
      "midi": 50,
      "hit": false,
      "t": 175869.31900000008,
      "d": 158.96716874997946,
      "v": 111
    },
    {
      "midi": 61,
      "hit": false,
      "t": 176086.71000000005,
      "d": 20.38040625001304,
      "v": 73
    },
    {
      "midi": 46,
      "hit": false,
      "t": 176086.71000000005,
      "d": 591.0317812499998,
      "v": 127
    },
    {
      "midi": 62,
      "hit": false,
      "t": 176086.71000000005,
      "d": 623.640431250009,
      "v": 86
    },
    {
      "midi": 58,
      "hit": false,
      "t": 176086.71000000005,
      "d": 657.6077750000113,
      "v": 91
    },
    {
      "midi": 65,
      "hit": false,
      "t": 176086.71000000005,
      "d": 1074.7267562500201,
      "v": 86
    },
    {
      "midi": 64,
      "hit": false,
      "t": 176521.49200000006,
      "d": 40.76081249999697,
      "v": 56
    },
    {
      "midi": 46,
      "hit": false,
      "t": 176738.88300000006,
      "d": 885.8683250000176,
      "v": 110
    },
    {
      "midi": 57,
      "hit": false,
      "t": 176956.27400000006,
      "d": 115.48896874999627,
      "v": 21
    },
    {
      "midi": 53,
      "hit": false,
      "t": 177173.66500000007,
      "d": 78.80423750000773,
      "v": 38
    },
    {
      "midi": 53,
      "hit": false,
      "t": 177391.05600000007,
      "d": 69.29338124999776,
      "v": 111
    },
    {
      "midi": 65,
      "hit": false,
      "t": 177391.05600000007,
      "d": 525.8144812500104,
      "v": 127
    },
    {
      "midi": 58,
      "hit": false,
      "t": 177391.05600000007,
      "d": 527.1731750000035,
      "v": 119
    },
    {
      "midi": 62,
      "hit": false,
      "t": 177391.05600000007,
      "d": 618.2056562500075,
      "v": 123
    },
    {
      "midi": 53,
      "hit": false,
      "t": 177608.44700000007,
      "d": 228.26055000000633,
      "v": 99
    },
    {
      "midi": 46,
      "hit": false,
      "t": 177825.83800000008,
      "d": 218.74969374999637,
      "v": 112
    },
    {
      "midi": 53,
      "hit": false,
      "t": 178043.22900000008,
      "d": 89.6737874999817,
      "v": 93
    },
    {
      "midi": 57,
      "hit": false,
      "t": 178043.22900000008,
      "d": 822.0097187499923,
      "v": 112
    },
    {
      "midi": 60,
      "hit": false,
      "t": 178043.22900000008,
      "d": 1043.476800000004,
      "v": 115
    },
    {
      "midi": 65,
      "hit": false,
      "t": 178043.22900000008,
      "d": 1146.737525000004,
      "v": 118
    },
    {
      "midi": 41,
      "hit": false,
      "t": 178043.22900000008,
      "d": 1809.7800749999878,
      "v": 104
    },
    {
      "midi": 53,
      "hit": false,
      "t": 178695.40200000006,
      "d": 855.9770625000237,
      "v": 104
    },
    {
      "midi": 57,
      "hit": false,
      "t": 179130.1840000001,
      "d": 168.47802499998943,
      "v": 93
    },
    {
      "midi": 57,
      "hit": false,
      "t": 179347.5750000001,
      "d": 105.97811249998631,
      "v": 111
    },
    {
      "midi": 65,
      "hit": false,
      "t": 179347.5750000001,
      "d": 544.8361937499722,
      "v": 121
    },
    {
      "midi": 60,
      "hit": false,
      "t": 179347.5750000001,
      "d": 595.1078624999791,
      "v": 111
    },
    {
      "midi": 57,
      "hit": false,
      "t": 179564.96600000007,
      "d": 302.98870625000563,
      "v": 86
    },
    {
      "midi": 53,
      "hit": false,
      "t": 179782.35700000008,
      "d": 91.03248125000391,
      "v": 111
    },
    {
      "midi": 36,
      "hit": false,
      "t": 179999.74800000008,
      "d": 183.42365625000093,
      "v": 111
    },
    {
      "midi": 57,
      "hit": false,
      "t": 179999.74800000008,
      "d": 786.6836812499969,
      "v": 104
    },
    {
      "midi": 62,
      "hit": false,
      "t": 179999.74800000008,
      "d": 1066.5745937500033,
      "v": 112
    },
    {
      "midi": 66,
      "hit": false,
      "t": 179999.74800000008,
      "d": 1176.628787500027,
      "v": 127
    },
    {
      "midi": 38,
      "hit": false,
      "t": 179999.74800000008,
      "d": 1800.269218750007,
      "v": 111
    },
    {
      "midi": 50,
      "hit": false,
      "t": 180651.9210000001,
      "d": 769.0206624999992,
      "v": 110
    },
    {
      "midi": 57,
      "hit": false,
      "t": 181086.7030000001,
      "d": 381.79294374998426,
      "v": 66
    },
    {
      "midi": 62,
      "hit": false,
      "t": 181304.0940000001,
      "d": 281.2496062499704,
      "v": 113
    },
    {
      "midi": 66,
      "hit": false,
      "t": 181304.0940000001,
      "d": 400.8146562499751,
      "v": 112
    },
    {
      "midi": 57,
      "hit": false,
      "t": 181521.48500000007,
      "d": 343.7495187500026,
      "v": 109
    },
    {
      "midi": 50,
      "hit": false,
      "t": 181738.87600000008,
      "d": 512.227543749992,
      "v": 107
    },
    {
      "midi": 57,
      "hit": false,
      "t": 181956.26700000008,
      "d": 615.4882687499921,
      "v": 112
    },
    {
      "midi": 62,
      "hit": false,
      "t": 181956.26700000008,
      "d": 709.2381374999823,
      "v": 111
    },
    {
      "midi": 66,
      "hit": false,
      "t": 181956.26700000008,
      "d": 1080.1615312499925,
      "v": 112
    },
    {
      "midi": 69,
      "hit": false,
      "t": 181956.26700000008,
      "d": 1124.998424999998,
      "v": 111
    },
    {
      "midi": 38,
      "hit": false,
      "t": 181956.26700000008,
      "d": 1812.4974625000032,
      "v": 112
    },
    {
      "midi": 50,
      "hit": false,
      "t": 182608.44000000006,
      "d": 879.074856250023,
      "v": 112
    },
    {
      "midi": 62,
      "hit": false,
      "t": 183043.22200000007,
      "d": 97.82594999999856,
      "v": 66
    },
    {
      "midi": 45,
      "hit": false,
      "t": 183043.22200000007,
      "d": 812.4988625000115,
      "v": 51
    },
    {
      "midi": 69,
      "hit": false,
      "t": 183260.61300000007,
      "d": 531.249256250012,
      "v": 117
    },
    {
      "midi": 64,
      "hit": false,
      "t": 183260.61300000007,
      "d": 576.0861500000174,
      "v": 127
    },
    {
      "midi": 66,
      "hit": false,
      "t": 183478.00400000007,
      "d": 346.4669062500179,
      "v": 89
    },
    {
      "midi": 50,
      "hit": false,
      "t": 183695.39500000008,
      "d": 199.72798125000554,
      "v": 79
    },
    {
      "midi": 60,
      "hit": false,
      "t": 183912.78600000008,
      "d": 1134.509281250008,
      "v": 127
    },
    {
      "midi": 64,
      "hit": false,
      "t": 183912.78600000008,
      "d": 1176.628787499998,
      "v": 121
    },
    {
      "midi": 67,
      "hit": false,
      "t": 183912.78600000008,
      "d": 1184.7809499999858,
      "v": 127
    },
    {
      "midi": 36,
      "hit": false,
      "t": 183912.78600000008,
      "d": 1751.356243749964,
      "v": 113
    },
    {
      "midi": 48,
      "hit": false,
      "t": 184564.9590000001,
      "d": 756.7924187499739,
      "v": 107
    },
    {
      "midi": 55,
      "hit": false,
      "t": 184999.7410000001,
      "d": 133.1519874999649,
      "v": 107
    },
    {
      "midi": 55,
      "hit": false,
      "t": 185217.13200000007,
      "d": 313.8582562499796,
      "v": 107
    },
    {
      "midi": 60,
      "hit": false,
      "t": 185217.13200000007,
      "d": 519.0210124999867,
      "v": 118
    },
    {
      "midi": 67,
      "hit": false,
      "t": 185217.13200000007,
      "d": 652.1729999999807,
      "v": 112
    },
    {
      "midi": 64,
      "hit": false,
      "t": 185217.13200000007,
      "d": 1808.4213812499947,
      "v": 117
    },
    {
      "midi": 48,
      "hit": false,
      "t": 185651.91400000005,
      "d": 167.11933124999632,
      "v": 109
    },
    {
      "midi": 60,
      "hit": false,
      "t": 185869.30500000005,
      "d": 76.08684999999241,
      "v": 107
    },
    {
      "midi": 47,
      "hit": false,
      "t": 185869.30500000005,
      "d": 538.0427250000066,
      "v": 112
    },
    {
      "midi": 59,
      "hit": false,
      "t": 185869.30500000005,
      "d": 687.4990375000052,
      "v": 91
    },
    {
      "midi": 67,
      "hit": false,
      "t": 185869.30500000005,
      "d": 1142.6614437500248,
      "v": 66
    },
    {
      "midi": 47,
      "hit": false,
      "t": 186521.47800000006,
      "d": 906.2487312500016,
      "v": 15
    },
    {
      "midi": 59,
      "hit": false,
      "t": 186956.26000000007,
      "d": 110.05419374999474,
      "v": 91
    },
    {
      "midi": 59,
      "hit": false,
      "t": 187173.65100000007,
      "d": 461.9558749999851,
      "v": 115
    },
    {
      "midi": 64,
      "hit": false,
      "t": 187173.65100000007,
      "d": 498.64060624997364,
      "v": 127
    },
    {
      "midi": 67,
      "hit": false,
      "t": 187173.65100000007,
      "d": 573.368762499973,
      "v": 127
    },
    {
      "midi": 47,
      "hit": false,
      "t": 187608.43300000005,
      "d": 197.01059374999022,
      "v": 76
    },
    {
      "midi": 46,
      "hit": false,
      "t": 187825.82400000005,
      "d": 567.9339875000005,
      "v": 107
    },
    {
      "midi": 62,
      "hit": false,
      "t": 187825.82400000005,
      "d": 732.3359312500106,
      "v": 76
    },
    {
      "midi": 58,
      "hit": false,
      "t": 187825.82400000005,
      "d": 1017.6616187500185,
      "v": 108
    },
    {
      "midi": 65,
      "hit": false,
      "t": 187825.82400000005,
      "d": 1277.1721250000119,
      "v": 104
    },
    {
      "midi": 46,
      "hit": false,
      "t": 188477.99700000006,
      "d": 927.9878312500077,
      "v": 107
    },
    {
      "midi": 62,
      "hit": false,
      "t": 188695.38800000006,
      "d": 408.96681874999194,
      "v": 15
    },
    {
      "midi": 58,
      "hit": false,
      "t": 188912.77900000007,
      "d": 197.01059374999022,
      "v": 66
    },
    {
      "midi": 58,
      "hit": false,
      "t": 189130.17000000007,
      "d": 490.488443750015,
      "v": 113
    },
    {
      "midi": 62,
      "hit": false,
      "t": 189130.17000000007,
      "d": 616.8469625000143,
      "v": 118
    },
    {
      "midi": 65,
      "hit": false,
      "t": 189130.17000000007,
      "d": 697.0098937500152,
      "v": 111
    },
    {
      "midi": 46,
      "hit": false,
      "t": 189564.95200000008,
      "d": 207.8801437499933,
      "v": 100
    },
    {
      "midi": 57,
      "hit": false,
      "t": 189782.34300000008,
      "d": 544.8361937500013,
      "v": 108
    },
    {
      "midi": 61,
      "hit": false,
      "t": 189782.34300000008,
      "d": 698.3685875000083,
      "v": 113
    },
    {
      "midi": 64,
      "hit": false,
      "t": 189782.34300000008,
      "d": 1192.9331124999735,
      "v": 101
    },
    {
      "midi": 45,
      "hit": false,
      "t": 189782.34300000008,
      "d": 1887.2256187499443,
      "v": 93
    },
    {
      "midi": 57,
      "hit": false,
      "t": 190434.5160000001,
      "d": 323.36911249998957,
      "v": 107
    },
    {
      "midi": 57,
      "hit": false,
      "t": 190869.29800000007,
      "d": 135.8693749999802,
      "v": 60
    },
    {
      "midi": 52,
      "hit": false,
      "t": 190869.29800000007,
      "d": 736.4120124999608,
      "v": 104
    },
    {
      "midi": 59,
      "hit": false,
      "t": 191086.68900000004,
      "d": 300.2713187499903,
      "v": 127
    },
    {
      "midi": 64,
      "hit": false,
      "t": 191086.68900000004,
      "d": 552.988356249989,
      "v": 113
    },
    {
      "midi": 61,
      "hit": false,
      "t": 191304.08000000005,
      "d": 377.71686249997583,
      "v": 111
    },
    {
      "midi": 57,
      "hit": false,
      "t": 191521.47100000002,
      "d": 146.7389250000124,
      "v": 104
    },
    {
      "midi": 56,
      "hit": false,
      "t": 191738.86200000002,
      "d": 925.2704437500215,
      "v": 99
    },
    {
      "midi": 59,
      "hit": false,
      "t": 191738.86200000002,
      "d": 1573.3673625000229,
      "v": 113
    },
    {
      "midi": 52,
      "hit": false,
      "t": 191738.86200000002,
      "d": 1762.2257937500253,
      "v": 112
    },
    {
      "midi": 64,
      "hit": false,
      "t": 191738.86200000002,
      "d": 1896.7364750000415,
      "v": 111
    },
    {
      "midi": 40,
      "hit": false,
      "t": 192391.03500000003,
      "d": 1130.4332000000286,
      "v": 66
    },
    {
      "midi": 56,
      "hit": false,
      "t": 192825.81700000004,
      "d": 198.36928750001243,
      "v": 84
    },
    {
      "midi": 56,
      "hit": false,
      "t": 193043.20800000004,
      "d": 455.16240625001956,
      "v": 98
    },
    {
      "midi": 61,
      "hit": false,
      "t": 193477.99000000005,
      "d": 58.423831250023795,
      "v": 15
    },
    {
      "midi": 47,
      "hit": false,
      "t": 193477.99000000005,
      "d": 2067.9318875000463,
      "v": 86
    },
    {
      "midi": 56,
      "hit": false,
      "t": 193695.38100000005,
      "d": 1069.2919812500186,
      "v": 116
    },
    {
      "midi": 64,
      "hit": false,
      "t": 193695.38100000005,
      "d": 1182.0635625000286,
      "v": 115
    },
    {
      "midi": 59,
      "hit": false,
      "t": 193695.38100000005,
      "d": 1194.2918062500248,
      "v": 112
    },
    {
      "midi": 40,
      "hit": false,
      "t": 193695.38100000005,
      "d": 1800.269218750036,
      "v": 111
    },
    {
      "midi": 52,
      "hit": false,
      "t": 194347.55400000006,
      "d": 235.05401875000098,
      "v": 101
    },
    {
      "midi": 53,
      "hit": false,
      "t": 194782.33600000007,
      "d": 72.01076875001309,
      "v": 24
    },
    {
      "midi": 52,
      "hit": false,
      "t": 194782.33600000007,
      "d": 89.6737875000108,
      "v": 38
    },
    {
      "midi": 59,
      "hit": false,
      "t": 194999.72700000007,
      "d": 563.8579062500212,
      "v": 107
    },
    {
      "midi": 56,
      "hit": false,
      "t": 194999.72700000007,
      "d": 601.901331250032,
      "v": 111
    },
    {
      "midi": 64,
      "hit": false,
      "t": 194999.72700000007,
      "d": 1872.2799875000492,
      "v": 112
    },
    {
      "midi": 52,
      "hit": false,
      "t": 195434.50900000008,
      "d": 177.9888812500285,
      "v": 101
    },
    {
      "midi": 44,
      "hit": false,
      "t": 195651.9000000001,
      "d": 39.402118750003865,
      "v": 106
    },
    {
      "midi": 45,
      "hit": false,
      "t": 195651.9000000001,
      "d": 580.1622312499967,
      "v": 111
    },
    {
      "midi": 52,
      "hit": false,
      "t": 195651.9000000001,
      "d": 836.9553500000038,
      "v": 109
    },
    {
      "midi": 57,
      "hit": false,
      "t": 195651.9000000001,
      "d": 1054.346350000007,
      "v": 93
    },
    {
      "midi": 61,
      "hit": false,
      "t": 195651.9000000001,
      "d": 1244.5634750000027,
      "v": 99
    },
    {
      "midi": 45,
      "hit": false,
      "t": 196304.07300000012,
      "d": 995.9225187499833,
      "v": 60
    },
    {
      "midi": 52,
      "hit": false,
      "t": 196738.85500000013,
      "d": 133.151987499994,
      "v": 79
    },
    {
      "midi": 52,
      "hit": false,
      "t": 196956.2460000001,
      "d": 374.9994749999896,
      "v": 79
    },
    {
      "midi": 57,
      "hit": false,
      "t": 196956.2460000001,
      "d": 514.9449312499783,
      "v": 110
    },
    {
      "midi": 61,
      "hit": false,
      "t": 196956.2460000001,
      "d": 582.8796187499829,
      "v": 112
    },
    {
      "midi": 64,
      "hit": false,
      "t": 196956.2460000001,
      "d": 595.1078624999791,
      "v": 116
    },
    {
      "midi": 45,
      "hit": false,
      "t": 197391.02800000008,
      "d": 179.3475749999925,
      "v": 86
    },
    {
      "midi": 52,
      "hit": false,
      "t": 197608.41900000008,
      "d": 335.59735624998575,
      "v": 66
    },
    {
      "midi": 57,
      "hit": false,
      "t": 197608.41900000008,
      "d": 486.41236249997746,
      "v": 93
    },
    {
      "midi": 64,
      "hit": false,
      "t": 197608.41900000008,
      "d": 1179.3461749999842,
      "v": 104
    },
    {
      "midi": 61,
      "hit": false,
      "t": 197608.41900000008,
      "d": 1211.9548249999934,
      "v": 96
    },
    {
      "midi": 45,
      "hit": false,
      "t": 197608.41900000008,
      "d": 1864.1278250000032,
      "v": 79
    },
    {
      "midi": 54,
      "hit": false,
      "t": 201521.45700000008,
      "d": 163.0432499999879,
      "v": 98
    },
    {
      "midi": 57,
      "hit": false,
      "t": 201521.45700000008,
      "d": 207.8801437499933,
      "v": 86
    },
    {
      "midi": 62,
      "hit": false,
      "t": 201521.45700000008,
      "d": 400.8146562500333,
      "v": 104
    },
    {
      "midi": 50,
      "hit": false,
      "t": 201521.45700000008,
      "d": 2039.3993187500455,
      "v": 86
    },
    {
      "midi": 54,
      "hit": false,
      "t": 201738.8480000001,
      "d": 95.10856250001234,
      "v": 56
    },
    {
      "midi": 57,
      "hit": false,
      "t": 201738.8480000001,
      "d": 139.94545625001774,
      "v": 21
    },
    {
      "midi": 54,
      "hit": false,
      "t": 201956.23900000012,
      "d": 111.41288749998785,
      "v": 21
    },
    {
      "midi": 57,
      "hit": false,
      "t": 201956.23900000012,
      "d": 127.71721249999246,
      "v": 30
    },
    {
      "midi": 62,
      "hit": false,
      "t": 201956.23900000012,
      "d": 146.73892499998328,
      "v": 21
    },
    {
      "midi": 54,
      "hit": false,
      "t": 202173.6300000001,
      "d": 172.55410624999786,
      "v": 99
    },
    {
      "midi": 57,
      "hit": false,
      "t": 202173.6300000001,
      "d": 328.8038875000202,
      "v": 104
    },
    {
      "midi": 62,
      "hit": false,
      "t": 202173.6300000001,
      "d": 572.0100687500089,
      "v": 108
    },
    {
      "midi": 54,
      "hit": false,
      "t": 202391.0210000001,
      "d": 39.402118750003865,
      "v": 15
    },
    {
      "midi": 54,
      "hit": false,
      "t": 202608.4120000001,
      "d": 92.39117499999702,
      "v": 76
    },
    {
      "midi": 57,
      "hit": false,
      "t": 202608.4120000001,
      "d": 180.70626875001471,
      "v": 66
    },
    {
      "midi": 54,
      "hit": false,
      "t": 202825.8030000001,
      "d": 110.05419374999474,
      "v": 86
    },
    {
      "midi": 62,
      "hit": false,
      "t": 202825.8030000001,
      "d": 425.27114374999655,
      "v": 93
    },
    {
      "midi": 57,
      "hit": false,
      "t": 202825.8030000001,
      "d": 552.9883562500181,
      "v": 79
    },
    {
      "midi": 54,
      "hit": false,
      "t": 203043.1940000001,
      "d": 77.44554374998552,
      "v": 63
    },
    {
      "midi": 54,
      "hit": false,
      "t": 203260.5850000001,
      "d": 173.91280000002007,
      "v": 66
    },
    {
      "midi": 62,
      "hit": false,
      "t": 203477.97600000014,
      "d": 120.92374374999781,
      "v": 96
    },
    {
      "midi": 55,
      "hit": false,
      "t": 203477.97600000014,
      "d": 129.07590624998556,
      "v": 96
    },
    {
      "midi": 59,
      "hit": false,
      "t": 203477.97600000014,
      "d": 134.5106812499871,
      "v": 104
    },
    {
      "midi": 43,
      "hit": false,
      "t": 203477.97600000014,
      "d": 2014.9428312499658,
      "v": 66
    },
    {
      "midi": 62,
      "hit": false,
      "t": 203695.36700000011,
      "d": 96.46725625000545,
      "v": 38
    },
    {
      "midi": 59,
      "hit": false,
      "t": 203695.36700000011,
      "d": 103.2607250000001,
      "v": 51
    },
    {
      "midi": 55,
      "hit": false,
      "t": 203695.36700000011,
      "d": 111.41288749998785,
      "v": 63
    },
    {
      "midi": 55,
      "hit": false,
      "t": 203912.7580000001,
      "d": 129.07590624998556,
      "v": 60
    },
    {
      "midi": 59,
      "hit": false,
      "t": 203912.7580000001,
      "d": 129.07590624998556,
      "v": 56
    },
    {
      "midi": 62,
      "hit": false,
      "t": 203912.7580000001,
      "d": 131.79329374997178,
      "v": 21
    },
    {
      "midi": 55,
      "hit": false,
      "t": 204130.14900000006,
      "d": 138.58676249999553,
      "v": 93
    },
    {
      "midi": 59,
      "hit": false,
      "t": 204130.14900000006,
      "d": 355.9777625000279,
      "v": 99
    },
    {
      "midi": 62,
      "hit": false,
      "t": 204130.14900000006,
      "d": 612.770881250035,
      "v": 91
    },
    {
      "midi": 55,
      "hit": false,
      "t": 204347.54000000007,
      "d": 100.54333750001388,
      "v": 38
    },
    {
      "midi": 55,
      "hit": false,
      "t": 204564.9310000001,
      "d": 145.38023124999017,
      "v": 63
    },
    {
      "midi": 59,
      "hit": false,
      "t": 204564.9310000001,
      "d": 184.78234999999404,
      "v": 51
    },
    {
      "midi": 62,
      "hit": false,
      "t": 204782.3220000001,
      "d": 133.151987499994,
      "v": 107
    },
    {
      "midi": 55,
      "hit": false,
      "t": 204782.3220000001,
      "d": 135.8693749999802,
      "v": 104
    },
    {
      "midi": 59,
      "hit": false,
      "t": 204782.3220000001,
      "d": 138.58676249996643,
      "v": 111
    },
    {
      "midi": 59,
      "hit": false,
      "t": 204999.71300000008,
      "d": 126.35851874999935,
      "v": 51
    },
    {
      "midi": 55,
      "hit": false,
      "t": 204999.71300000008,
      "d": 290.76046250000945,
      "v": 30
    },
    {
      "midi": 62,
      "hit": false,
      "t": 204999.71300000008,
      "d": 398.097268750018,
      "v": 60
    },
    {
      "midi": 59,
      "hit": false,
      "t": 205217.10400000008,
      "d": 201.08667500002775,
      "v": 38
    },
    {
      "midi": 54,
      "hit": false,
      "t": 205434.4950000001,
      "d": 164.401943749981,
      "v": 106
    },
    {
      "midi": 57,
      "hit": false,
      "t": 205434.4950000001,
      "d": 563.857906249963,
      "v": 56
    },
    {
      "midi": 62,
      "hit": false,
      "t": 205434.4950000001,
      "d": 569.2926812499645,
      "v": 46
    },
    {
      "midi": 50,
      "hit": false,
      "t": 205434.4950000001,
      "d": 2005.431974999985,
      "v": 91
    },
    {
      "midi": 54,
      "hit": false,
      "t": 205651.8860000001,
      "d": 110.05419374999474,
      "v": 53
    },
    {
      "midi": 54,
      "hit": false,
      "t": 205869.2770000001,
      "d": 153.53239374997793,
      "v": 42
    },
    {
      "midi": 54,
      "hit": false,
      "t": 206086.66800000006,
      "d": 152.17370000001392,
      "v": 99
    },
    {
      "midi": 57,
      "hit": false,
      "t": 206086.66800000006,
      "d": 319.29303125001024,
      "v": 104
    },
    {
      "midi": 54,
      "hit": false,
      "t": 206304.05900000007,
      "d": 153.53239375000703,
      "v": 73
    },
    {
      "midi": 54,
      "hit": false,
      "t": 206521.45000000007,
      "d": 171.19541250000475,
      "v": 51
    },
    {
      "midi": 57,
      "hit": false,
      "t": 206521.45000000007,
      "d": 202.44536874999176,
      "v": 69
    },
    {
      "midi": 62,
      "hit": false,
      "t": 206738.84100000007,
      "d": 8.152162499987753,
      "v": 56
    },
    {
      "midi": 54,
      "hit": false,
      "t": 206738.84100000007,
      "d": 127.71721249999246,
      "v": 99
    },
    {
      "midi": 57,
      "hit": false,
      "t": 206738.84100000007,
      "d": 588.3143937500136,
      "v": 63
    },
    {
      "midi": 54,
      "hit": false,
      "t": 206956.23200000008,
      "d": 108.69550000000163,
      "v": 73
    },
    {
      "midi": 54,
      "hit": false,
      "t": 207173.62300000008,
      "d": 179.3475749999925,
      "v": 46
    },
    {
      "midi": 55,
      "hit": false,
      "t": 207391.01400000008,
      "d": 152.17370000001392,
      "v": 96
    },
    {
      "midi": 59,
      "hit": false,
      "t": 207391.01400000008,
      "d": 376.3581687499827,
      "v": 93
    },
    {
      "midi": 62,
      "hit": false,
      "t": 207391.01400000008,
      "d": 576.0861499999883,
      "v": 99
    },
    {
      "midi": 43,
      "hit": false,
      "t": 207391.01400000008,
      "d": 1994.56242500004,
      "v": 63
    },
    {
      "midi": 55,
      "hit": false,
      "t": 207608.4050000001,
      "d": 122.28243749999092,
      "v": 24
    },
    {
      "midi": 55,
      "hit": false,
      "t": 207825.79600000006,
      "d": 141.30415000001085,
      "v": 63
    },
    {
      "midi": 59,
      "hit": false,
      "t": 207825.79600000006,
      "d": 186.14104375001625,
      "v": 24
    },
    {
      "midi": 55,
      "hit": false,
      "t": 208043.18700000006,
      "d": 160.32586250000168,
      "v": 93
    },
    {
      "midi": 59,
      "hit": false,
      "t": 208043.18700000006,
      "d": 353.2603750000126,
      "v": 93
    },
    {
      "midi": 62,
      "hit": false,
      "t": 208043.18700000006,
      "d": 585.5970062500273,
      "v": 66
    },
    {
      "midi": 55,
      "hit": false,
      "t": 208260.57800000007,
      "d": 114.13027500000317,
      "v": 46
    },
    {
      "midi": 55,
      "hit": false,
      "t": 208477.96900000007,
      "d": 146.7389250000124,
      "v": 21
    },
    {
      "midi": 59,
      "hit": false,
      "t": 208477.96900000007,
      "d": 168.47802500001853,
      "v": 15
    },
    {
      "midi": 55,
      "hit": false,
      "t": 208695.3600000001,
      "d": 561.1405187500059,
      "v": 101
    },
    {
      "midi": 59,
      "hit": false,
      "t": 208695.3600000001,
      "d": 572.0100687500089,
      "v": 107
    },
    {
      "midi": 62,
      "hit": false,
      "t": 208695.3600000001,
      "d": 572.0100687500089,
      "v": 104
    },
    {
      "midi": 54,
      "hit": false,
      "t": 209347.5330000001,
      "d": 163.043250000017,
      "v": 98
    },
    {
      "midi": 57,
      "hit": false,
      "t": 209347.5330000001,
      "d": 207.8801437500224,
      "v": 86
    },
    {
      "midi": 62,
      "hit": false,
      "t": 209347.5330000001,
      "d": 400.8146562500624,
      "v": 104
    },
    {
      "midi": 50,
      "hit": false,
      "t": 209347.5330000001,
      "d": 2039.3993187500746,
      "v": 86
    },
    {
      "midi": 54,
      "hit": false,
      "t": 209564.92400000014,
      "d": 95.10856250001234,
      "v": 56
    },
    {
      "midi": 57,
      "hit": false,
      "t": 209564.92400000014,
      "d": 139.94545625001774,
      "v": 21
    },
    {
      "midi": 54,
      "hit": false,
      "t": 209782.31500000018,
      "d": 111.41288749998785,
      "v": 21
    },
    {
      "midi": 57,
      "hit": false,
      "t": 209782.31500000018,
      "d": 127.71721249999246,
      "v": 30
    },
    {
      "midi": 62,
      "hit": false,
      "t": 209782.31500000018,
      "d": 146.73892499998328,
      "v": 21
    },
    {
      "midi": 54,
      "hit": false,
      "t": 209999.70600000015,
      "d": 172.55410624999786,
      "v": 99
    },
    {
      "midi": 57,
      "hit": false,
      "t": 209999.70600000015,
      "d": 328.8038875000202,
      "v": 104
    },
    {
      "midi": 62,
      "hit": false,
      "t": 209999.70600000015,
      "d": 572.0100687500089,
      "v": 108
    },
    {
      "midi": 54,
      "hit": false,
      "t": 210217.09700000015,
      "d": 39.402118750003865,
      "v": 15
    },
    {
      "midi": 54,
      "hit": false,
      "t": 210434.48800000016,
      "d": 92.39117499999702,
      "v": 76
    },
    {
      "midi": 57,
      "hit": false,
      "t": 210434.48800000016,
      "d": 180.70626875001471,
      "v": 66
    },
    {
      "midi": 54,
      "hit": false,
      "t": 210651.87900000016,
      "d": 110.05419374999474,
      "v": 86
    },
    {
      "midi": 62,
      "hit": false,
      "t": 210651.87900000016,
      "d": 425.27114374999655,
      "v": 93
    },
    {
      "midi": 57,
      "hit": false,
      "t": 210651.87900000016,
      "d": 552.9883562500181,
      "v": 79
    },
    {
      "midi": 54,
      "hit": false,
      "t": 210869.27000000016,
      "d": 77.44554374998552,
      "v": 63
    },
    {
      "midi": 54,
      "hit": false,
      "t": 211086.66100000017,
      "d": 173.91280000002007,
      "v": 66
    },
    {
      "midi": 62,
      "hit": false,
      "t": 211304.0520000002,
      "d": 120.92374374999781,
      "v": 96
    },
    {
      "midi": 55,
      "hit": false,
      "t": 211304.0520000002,
      "d": 129.07590624998556,
      "v": 96
    },
    {
      "midi": 59,
      "hit": false,
      "t": 211304.0520000002,
      "d": 134.5106812499871,
      "v": 104
    },
    {
      "midi": 43,
      "hit": false,
      "t": 211304.0520000002,
      "d": 2014.9428312499658,
      "v": 66
    },
    {
      "midi": 62,
      "hit": false,
      "t": 211521.44300000017,
      "d": 96.46725625000545,
      "v": 38
    },
    {
      "midi": 59,
      "hit": false,
      "t": 211521.44300000017,
      "d": 103.2607250000001,
      "v": 51
    },
    {
      "midi": 55,
      "hit": false,
      "t": 211521.44300000017,
      "d": 111.41288749998785,
      "v": 63
    },
    {
      "midi": 55,
      "hit": false,
      "t": 211738.83400000015,
      "d": 129.07590624998556,
      "v": 60
    },
    {
      "midi": 59,
      "hit": false,
      "t": 211738.83400000015,
      "d": 129.07590624998556,
      "v": 56
    },
    {
      "midi": 62,
      "hit": false,
      "t": 211738.83400000015,
      "d": 131.79329374997178,
      "v": 21
    },
    {
      "midi": 55,
      "hit": false,
      "t": 211956.22500000012,
      "d": 138.58676249999553,
      "v": 93
    },
    {
      "midi": 59,
      "hit": false,
      "t": 211956.22500000012,
      "d": 355.9777625000279,
      "v": 99
    },
    {
      "midi": 62,
      "hit": false,
      "t": 211956.22500000012,
      "d": 612.770881250035,
      "v": 91
    },
    {
      "midi": 55,
      "hit": false,
      "t": 212173.61600000013,
      "d": 100.54333750001388,
      "v": 38
    },
    {
      "midi": 55,
      "hit": false,
      "t": 212391.00700000016,
      "d": 145.38023124999017,
      "v": 63
    },
    {
      "midi": 59,
      "hit": false,
      "t": 212391.00700000016,
      "d": 184.78234999999404,
      "v": 51
    },
    {
      "midi": 62,
      "hit": false,
      "t": 212608.39800000016,
      "d": 133.151987499994,
      "v": 107
    },
    {
      "midi": 55,
      "hit": false,
      "t": 212608.39800000016,
      "d": 135.8693749999802,
      "v": 104
    },
    {
      "midi": 59,
      "hit": false,
      "t": 212608.39800000016,
      "d": 138.58676249996643,
      "v": 111
    },
    {
      "midi": 59,
      "hit": false,
      "t": 212825.78900000014,
      "d": 126.35851874999935,
      "v": 51
    },
    {
      "midi": 55,
      "hit": false,
      "t": 212825.78900000014,
      "d": 290.76046250000945,
      "v": 30
    },
    {
      "midi": 62,
      "hit": false,
      "t": 212825.78900000014,
      "d": 398.097268750018,
      "v": 60
    },
    {
      "midi": 59,
      "hit": false,
      "t": 213043.18000000014,
      "d": 201.08667500002775,
      "v": 38
    },
    {
      "midi": 54,
      "hit": false,
      "t": 213260.57100000017,
      "d": 164.401943749981,
      "v": 106
    },
    {
      "midi": 57,
      "hit": false,
      "t": 213260.57100000017,
      "d": 563.857906249963,
      "v": 56
    },
    {
      "midi": 62,
      "hit": false,
      "t": 213260.57100000017,
      "d": 569.2926812499645,
      "v": 46
    },
    {
      "midi": 50,
      "hit": false,
      "t": 213260.57100000017,
      "d": 2005.431974999985,
      "v": 91
    },
    {
      "midi": 54,
      "hit": false,
      "t": 213477.96200000015,
      "d": 110.05419374999474,
      "v": 53
    },
    {
      "midi": 54,
      "hit": false,
      "t": 213695.35300000015,
      "d": 153.53239374997793,
      "v": 42
    },
    {
      "midi": 54,
      "hit": false,
      "t": 213912.74400000012,
      "d": 152.17370000001392,
      "v": 99
    },
    {
      "midi": 57,
      "hit": false,
      "t": 213912.74400000012,
      "d": 319.29303125001024,
      "v": 104
    },
    {
      "midi": 54,
      "hit": false,
      "t": 214130.13500000013,
      "d": 153.53239375000703,
      "v": 73
    },
    {
      "midi": 54,
      "hit": false,
      "t": 214347.52600000013,
      "d": 171.19541250000475,
      "v": 51
    },
    {
      "midi": 57,
      "hit": false,
      "t": 214347.52600000013,
      "d": 202.44536874999176,
      "v": 69
    },
    {
      "midi": 62,
      "hit": false,
      "t": 214564.91700000013,
      "d": 8.152162499987753,
      "v": 56
    },
    {
      "midi": 54,
      "hit": false,
      "t": 214564.91700000013,
      "d": 127.71721249999246,
      "v": 99
    },
    {
      "midi": 57,
      "hit": false,
      "t": 214564.91700000013,
      "d": 588.3143937500136,
      "v": 63
    },
    {
      "midi": 54,
      "hit": false,
      "t": 214782.30800000014,
      "d": 108.69550000000163,
      "v": 73
    },
    {
      "midi": 54,
      "hit": false,
      "t": 214999.69900000014,
      "d": 179.3475749999925,
      "v": 46
    },
    {
      "midi": 55,
      "hit": false,
      "t": 215217.09000000014,
      "d": 152.17370000001392,
      "v": 96
    },
    {
      "midi": 59,
      "hit": false,
      "t": 215217.09000000014,
      "d": 376.3581687499827,
      "v": 93
    },
    {
      "midi": 62,
      "hit": false,
      "t": 215217.09000000014,
      "d": 576.0861499999883,
      "v": 99
    },
    {
      "midi": 43,
      "hit": false,
      "t": 215217.09000000014,
      "d": 1994.56242500004,
      "v": 63
    },
    {
      "midi": 55,
      "hit": false,
      "t": 215434.48100000015,
      "d": 122.28243749999092,
      "v": 24
    },
    {
      "midi": 55,
      "hit": false,
      "t": 215651.87200000012,
      "d": 141.30415000001085,
      "v": 63
    },
    {
      "midi": 59,
      "hit": false,
      "t": 215651.87200000012,
      "d": 186.14104375001625,
      "v": 24
    },
    {
      "midi": 55,
      "hit": false,
      "t": 215869.26300000012,
      "d": 160.32586250000168,
      "v": 93
    },
    {
      "midi": 59,
      "hit": false,
      "t": 215869.26300000012,
      "d": 353.2603750000126,
      "v": 93
    },
    {
      "midi": 62,
      "hit": false,
      "t": 215869.26300000012,
      "d": 585.5970062500273,
      "v": 66
    },
    {
      "midi": 55,
      "hit": false,
      "t": 216086.65400000013,
      "d": 114.13027500000317,
      "v": 46
    },
    {
      "midi": 55,
      "hit": false,
      "t": 216304.04500000013,
      "d": 146.7389250000124,
      "v": 21
    },
    {
      "midi": 59,
      "hit": false,
      "t": 216304.04500000013,
      "d": 168.47802500001853,
      "v": 15
    },
    {
      "midi": 55,
      "hit": false,
      "t": 216521.43600000016,
      "d": 561.1405187500059,
      "v": 101
    },
    {
      "midi": 59,
      "hit": false,
      "t": 216521.43600000016,
      "d": 572.0100687500089,
      "v": 107
    },
    {
      "midi": 62,
      "hit": false,
      "t": 216521.43600000016,
      "d": 572.0100687500089,
      "v": 104
    },
    {
      "midi": 54,
      "hit": false,
      "t": 217173.60900000017,
      "d": 163.043250000017,
      "v": 98
    },
    {
      "midi": 57,
      "hit": false,
      "t": 217173.60900000017,
      "d": 207.8801437500224,
      "v": 86
    },
    {
      "midi": 62,
      "hit": false,
      "t": 217173.60900000017,
      "d": 400.8146562500624,
      "v": 104
    },
    {
      "midi": 50,
      "hit": false,
      "t": 217173.60900000017,
      "d": 2039.3993187500746,
      "v": 86
    },
    {
      "midi": 54,
      "hit": false,
      "t": 217391.0000000002,
      "d": 95.10856250001234,
      "v": 56
    },
    {
      "midi": 57,
      "hit": false,
      "t": 217391.0000000002,
      "d": 139.94545625001774,
      "v": 21
    },
    {
      "midi": 54,
      "hit": false,
      "t": 217608.39100000024,
      "d": 111.41288749998785,
      "v": 21
    },
    {
      "midi": 57,
      "hit": false,
      "t": 217608.39100000024,
      "d": 127.71721249999246,
      "v": 30
    },
    {
      "midi": 62,
      "hit": false,
      "t": 217608.39100000024,
      "d": 146.73892499998328,
      "v": 21
    },
    {
      "midi": 54,
      "hit": false,
      "t": 217825.7820000002,
      "d": 172.55410624999786,
      "v": 99
    },
    {
      "midi": 57,
      "hit": false,
      "t": 217825.7820000002,
      "d": 328.8038875000202,
      "v": 104
    },
    {
      "midi": 62,
      "hit": false,
      "t": 217825.7820000002,
      "d": 572.0100687500089,
      "v": 108
    },
    {
      "midi": 54,
      "hit": false,
      "t": 218043.1730000002,
      "d": 39.402118750003865,
      "v": 15
    },
    {
      "midi": 54,
      "hit": false,
      "t": 218260.56400000022,
      "d": 92.39117499999702,
      "v": 76
    },
    {
      "midi": 57,
      "hit": false,
      "t": 218260.56400000022,
      "d": 180.70626875001471,
      "v": 66
    },
    {
      "midi": 54,
      "hit": false,
      "t": 218477.95500000022,
      "d": 110.05419374999474,
      "v": 86
    },
    {
      "midi": 62,
      "hit": false,
      "t": 218477.95500000022,
      "d": 425.27114374999655,
      "v": 93
    },
    {
      "midi": 57,
      "hit": false,
      "t": 218477.95500000022,
      "d": 552.9883562500181,
      "v": 79
    },
    {
      "midi": 54,
      "hit": false,
      "t": 218695.34600000022,
      "d": 77.44554374998552,
      "v": 63
    },
    {
      "midi": 54,
      "hit": false,
      "t": 218912.73700000023,
      "d": 173.91280000002007,
      "v": 66
    },
    {
      "midi": 62,
      "hit": false,
      "t": 219130.12800000026,
      "d": 120.92374374999781,
      "v": 96
    },
    {
      "midi": 55,
      "hit": false,
      "t": 219130.12800000026,
      "d": 129.07590624998556,
      "v": 96
    },
    {
      "midi": 59,
      "hit": false,
      "t": 219130.12800000026,
      "d": 134.5106812499871,
      "v": 104
    },
    {
      "midi": 43,
      "hit": false,
      "t": 219130.12800000026,
      "d": 2014.9428312499658,
      "v": 66
    },
    {
      "midi": 62,
      "hit": false,
      "t": 219347.51900000023,
      "d": 96.46725625000545,
      "v": 38
    },
    {
      "midi": 59,
      "hit": false,
      "t": 219347.51900000023,
      "d": 103.2607250000001,
      "v": 51
    },
    {
      "midi": 55,
      "hit": false,
      "t": 219347.51900000023,
      "d": 111.41288749998785,
      "v": 63
    },
    {
      "midi": 55,
      "hit": false,
      "t": 219564.9100000002,
      "d": 129.07590624998556,
      "v": 60
    },
    {
      "midi": 59,
      "hit": false,
      "t": 219564.9100000002,
      "d": 129.07590624998556,
      "v": 56
    },
    {
      "midi": 62,
      "hit": false,
      "t": 219564.9100000002,
      "d": 131.79329374997178,
      "v": 21
    },
    {
      "midi": 55,
      "hit": false,
      "t": 219782.30100000018,
      "d": 138.58676249999553,
      "v": 93
    },
    {
      "midi": 59,
      "hit": false,
      "t": 219782.30100000018,
      "d": 355.9777625000279,
      "v": 99
    },
    {
      "midi": 62,
      "hit": false,
      "t": 219782.30100000018,
      "d": 612.770881250035,
      "v": 91
    },
    {
      "midi": 55,
      "hit": false,
      "t": 219999.69200000018,
      "d": 100.54333750001388,
      "v": 38
    },
    {
      "midi": 55,
      "hit": false,
      "t": 220217.08300000022,
      "d": 145.38023124999017,
      "v": 63
    },
    {
      "midi": 59,
      "hit": false,
      "t": 220217.08300000022,
      "d": 184.78234999999404,
      "v": 51
    },
    {
      "midi": 62,
      "hit": false,
      "t": 220434.47400000022,
      "d": 133.151987499994,
      "v": 107
    },
    {
      "midi": 55,
      "hit": false,
      "t": 220434.47400000022,
      "d": 135.8693749999802,
      "v": 104
    },
    {
      "midi": 59,
      "hit": false,
      "t": 220434.47400000022,
      "d": 138.58676249996643,
      "v": 111
    },
    {
      "midi": 59,
      "hit": false,
      "t": 220651.8650000002,
      "d": 126.35851874999935,
      "v": 51
    },
    {
      "midi": 55,
      "hit": false,
      "t": 220651.8650000002,
      "d": 290.76046250000945,
      "v": 30
    },
    {
      "midi": 62,
      "hit": false,
      "t": 220651.8650000002,
      "d": 398.097268750018,
      "v": 60
    },
    {
      "midi": 59,
      "hit": false,
      "t": 220869.2560000002,
      "d": 201.08667500002775,
      "v": 38
    },
    {
      "midi": 54,
      "hit": false,
      "t": 221086.64700000023,
      "d": 164.401943749981,
      "v": 106
    },
    {
      "midi": 57,
      "hit": false,
      "t": 221086.64700000023,
      "d": 563.857906249963,
      "v": 56
    },
    {
      "midi": 62,
      "hit": false,
      "t": 221086.64700000023,
      "d": 569.2926812499645,
      "v": 46
    },
    {
      "midi": 50,
      "hit": false,
      "t": 221086.64700000023,
      "d": 2005.431974999985,
      "v": 91
    },
    {
      "midi": 54,
      "hit": false,
      "t": 221304.0380000002,
      "d": 110.05419374999474,
      "v": 53
    },
    {
      "midi": 54,
      "hit": false,
      "t": 221521.4290000002,
      "d": 153.53239374997793,
      "v": 42
    },
    {
      "midi": 54,
      "hit": false,
      "t": 221738.82000000018,
      "d": 152.17370000001392,
      "v": 99
    },
    {
      "midi": 57,
      "hit": false,
      "t": 221738.82000000018,
      "d": 319.29303125001024,
      "v": 104
    },
    {
      "midi": 54,
      "hit": false,
      "t": 221956.21100000018,
      "d": 153.53239375000703,
      "v": 73
    },
    {
      "midi": 54,
      "hit": false,
      "t": 222173.6020000002,
      "d": 171.19541250000475,
      "v": 51
    },
    {
      "midi": 57,
      "hit": false,
      "t": 222173.6020000002,
      "d": 202.44536874999176,
      "v": 69
    },
    {
      "midi": 62,
      "hit": false,
      "t": 222390.9930000002,
      "d": 8.152162499987753,
      "v": 56
    },
    {
      "midi": 54,
      "hit": false,
      "t": 222390.9930000002,
      "d": 127.71721249999246,
      "v": 99
    },
    {
      "midi": 57,
      "hit": false,
      "t": 222390.9930000002,
      "d": 588.3143937500136,
      "v": 63
    },
    {
      "midi": 54,
      "hit": false,
      "t": 222608.3840000002,
      "d": 108.69550000000163,
      "v": 73
    },
    {
      "midi": 54,
      "hit": false,
      "t": 222825.7750000002,
      "d": 179.3475749999925,
      "v": 46
    },
    {
      "midi": 55,
      "hit": false,
      "t": 223043.1660000002,
      "d": 152.17370000001392,
      "v": 96
    },
    {
      "midi": 59,
      "hit": false,
      "t": 223043.1660000002,
      "d": 376.3581687499827,
      "v": 93
    },
    {
      "midi": 62,
      "hit": false,
      "t": 223043.1660000002,
      "d": 576.0861499999883,
      "v": 99
    },
    {
      "midi": 43,
      "hit": false,
      "t": 223043.1660000002,
      "d": 1994.56242500004,
      "v": 63
    },
    {
      "midi": 55,
      "hit": false,
      "t": 223260.5570000002,
      "d": 122.28243749999092,
      "v": 24
    },
    {
      "midi": 55,
      "hit": false,
      "t": 223477.94800000018,
      "d": 141.30415000001085,
      "v": 63
    },
    {
      "midi": 59,
      "hit": false,
      "t": 223477.94800000018,
      "d": 186.14104375001625,
      "v": 24
    },
    {
      "midi": 55,
      "hit": false,
      "t": 223695.33900000018,
      "d": 160.32586250000168,
      "v": 93
    },
    {
      "midi": 59,
      "hit": false,
      "t": 223695.33900000018,
      "d": 353.2603750000126,
      "v": 93
    },
    {
      "midi": 62,
      "hit": false,
      "t": 223695.33900000018,
      "d": 585.5970062500273,
      "v": 66
    },
    {
      "midi": 55,
      "hit": false,
      "t": 223912.73000000019,
      "d": 114.13027500000317,
      "v": 46
    },
    {
      "midi": 55,
      "hit": false,
      "t": 224130.1210000002,
      "d": 146.7389250000124,
      "v": 21
    },
    {
      "midi": 59,
      "hit": false,
      "t": 224130.1210000002,
      "d": 168.47802500001853,
      "v": 15
    },
    {
      "midi": 55,
      "hit": false,
      "t": 224347.51200000022,
      "d": 561.1405187500059,
      "v": 101
    },
    {
      "midi": 59,
      "hit": false,
      "t": 224347.51200000022,
      "d": 572.0100687500089,
      "v": 107
    },
    {
      "midi": 62,
      "hit": false,
      "t": 224347.51200000022,
      "d": 572.0100687500089,
      "v": 104
    },
    {
      "midi": 54,
      "hit": false,
      "t": 224999.68500000023,
      "d": 163.043250000017,
      "v": 98
    },
    {
      "midi": 57,
      "hit": false,
      "t": 224999.68500000023,
      "d": 207.8801437500224,
      "v": 86
    },
    {
      "midi": 62,
      "hit": false,
      "t": 224999.68500000023,
      "d": 400.8146562500624,
      "v": 104
    },
    {
      "midi": 50,
      "hit": false,
      "t": 224999.68500000023,
      "d": 2039.3993187500746,
      "v": 86
    },
    {
      "midi": 54,
      "hit": false,
      "t": 225217.07600000026,
      "d": 95.10856250001234,
      "v": 56
    },
    {
      "midi": 57,
      "hit": false,
      "t": 225217.07600000026,
      "d": 139.94545625001774,
      "v": 21
    },
    {
      "midi": 54,
      "hit": false,
      "t": 225434.4670000003,
      "d": 111.41288749998785,
      "v": 21
    },
    {
      "midi": 57,
      "hit": false,
      "t": 225434.4670000003,
      "d": 127.71721249999246,
      "v": 30
    },
    {
      "midi": 62,
      "hit": false,
      "t": 225434.4670000003,
      "d": 146.73892499998328,
      "v": 21
    },
    {
      "midi": 54,
      "hit": false,
      "t": 225651.85800000027,
      "d": 172.55410624999786,
      "v": 99
    },
    {
      "midi": 57,
      "hit": false,
      "t": 225651.85800000027,
      "d": 328.8038875000202,
      "v": 104
    },
    {
      "midi": 62,
      "hit": false,
      "t": 225651.85800000027,
      "d": 572.0100687500089,
      "v": 108
    },
    {
      "midi": 54,
      "hit": false,
      "t": 225869.24900000027,
      "d": 39.402118750003865,
      "v": 15
    },
    {
      "midi": 54,
      "hit": false,
      "t": 226086.64000000028,
      "d": 92.39117499999702,
      "v": 76
    },
    {
      "midi": 57,
      "hit": false,
      "t": 226086.64000000028,
      "d": 180.70626875001471,
      "v": 66
    },
    {
      "midi": 54,
      "hit": false,
      "t": 226304.03100000028,
      "d": 110.05419374999474,
      "v": 86
    },
    {
      "midi": 62,
      "hit": false,
      "t": 226304.03100000028,
      "d": 425.27114374999655,
      "v": 93
    },
    {
      "midi": 57,
      "hit": false,
      "t": 226304.03100000028,
      "d": 552.9883562500181,
      "v": 79
    },
    {
      "midi": 54,
      "hit": false,
      "t": 226521.42200000028,
      "d": 77.44554374998552,
      "v": 63
    },
    {
      "midi": 54,
      "hit": false,
      "t": 226738.8130000003,
      "d": 173.91280000002007,
      "v": 66
    },
    {
      "midi": 62,
      "hit": false,
      "t": 226956.20400000032,
      "d": 120.92374374999781,
      "v": 96
    },
    {
      "midi": 55,
      "hit": false,
      "t": 226956.20400000032,
      "d": 129.07590624998556,
      "v": 96
    },
    {
      "midi": 59,
      "hit": false,
      "t": 226956.20400000032,
      "d": 134.5106812499871,
      "v": 104
    },
    {
      "midi": 43,
      "hit": false,
      "t": 226956.20400000032,
      "d": 2014.9428312499658,
      "v": 66
    },
    {
      "midi": 62,
      "hit": false,
      "t": 227173.5950000003,
      "d": 96.46725625000545,
      "v": 38
    },
    {
      "midi": 59,
      "hit": false,
      "t": 227173.5950000003,
      "d": 103.2607250000001,
      "v": 51
    },
    {
      "midi": 55,
      "hit": false,
      "t": 227173.5950000003,
      "d": 111.41288749998785,
      "v": 63
    },
    {
      "midi": 55,
      "hit": false,
      "t": 227390.98600000027,
      "d": 129.07590624998556,
      "v": 60
    },
    {
      "midi": 59,
      "hit": false,
      "t": 227390.98600000027,
      "d": 129.07590624998556,
      "v": 56
    },
    {
      "midi": 62,
      "hit": false,
      "t": 227390.98600000027,
      "d": 131.79329374997178,
      "v": 21
    },
    {
      "midi": 55,
      "hit": false,
      "t": 227608.37700000024,
      "d": 138.58676249999553,
      "v": 93
    },
    {
      "midi": 59,
      "hit": false,
      "t": 227608.37700000024,
      "d": 355.9777625000279,
      "v": 99
    },
    {
      "midi": 62,
      "hit": false,
      "t": 227608.37700000024,
      "d": 612.770881250035,
      "v": 91
    },
    {
      "midi": 55,
      "hit": false,
      "t": 227825.76800000024,
      "d": 100.54333750001388,
      "v": 38
    },
    {
      "midi": 55,
      "hit": false,
      "t": 228043.15900000028,
      "d": 145.38023124999017,
      "v": 63
    },
    {
      "midi": 59,
      "hit": false,
      "t": 228043.15900000028,
      "d": 184.78234999999404,
      "v": 51
    },
    {
      "midi": 62,
      "hit": false,
      "t": 228260.55000000028,
      "d": 133.151987499994,
      "v": 107
    },
    {
      "midi": 55,
      "hit": false,
      "t": 228260.55000000028,
      "d": 135.8693749999802,
      "v": 104
    },
    {
      "midi": 59,
      "hit": false,
      "t": 228260.55000000028,
      "d": 138.58676249996643,
      "v": 111
    },
    {
      "midi": 59,
      "hit": false,
      "t": 228477.94100000025,
      "d": 126.35851874999935,
      "v": 51
    },
    {
      "midi": 55,
      "hit": false,
      "t": 228477.94100000025,
      "d": 290.76046250000945,
      "v": 30
    },
    {
      "midi": 62,
      "hit": false,
      "t": 228477.94100000025,
      "d": 398.097268750018,
      "v": 60
    },
    {
      "midi": 59,
      "hit": false,
      "t": 228695.33200000026,
      "d": 201.08667500002775,
      "v": 38
    },
    {
      "midi": 54,
      "hit": false,
      "t": 228912.7230000003,
      "d": 164.401943749981,
      "v": 106
    },
    {
      "midi": 57,
      "hit": false,
      "t": 228912.7230000003,
      "d": 563.857906249963,
      "v": 56
    },
    {
      "midi": 62,
      "hit": false,
      "t": 228912.7230000003,
      "d": 569.2926812499645,
      "v": 46
    },
    {
      "midi": 50,
      "hit": false,
      "t": 228912.7230000003,
      "d": 2005.431974999985,
      "v": 91
    },
    {
      "midi": 54,
      "hit": false,
      "t": 229130.11400000026,
      "d": 110.05419374999474,
      "v": 53
    },
    {
      "midi": 54,
      "hit": false,
      "t": 229347.50500000027,
      "d": 153.53239374997793,
      "v": 42
    },
    {
      "midi": 54,
      "hit": false,
      "t": 229564.89600000024,
      "d": 152.17370000001392,
      "v": 99
    },
    {
      "midi": 57,
      "hit": false,
      "t": 229564.89600000024,
      "d": 319.29303125001024,
      "v": 104
    },
    {
      "midi": 54,
      "hit": false,
      "t": 229782.28700000024,
      "d": 153.53239375000703,
      "v": 73
    },
    {
      "midi": 54,
      "hit": false,
      "t": 229999.67800000025,
      "d": 171.19541250000475,
      "v": 51
    },
    {
      "midi": 57,
      "hit": false,
      "t": 229999.67800000025,
      "d": 202.44536874999176,
      "v": 69
    },
    {
      "midi": 62,
      "hit": false,
      "t": 230217.06900000025,
      "d": 8.152162499987753,
      "v": 56
    },
    {
      "midi": 54,
      "hit": false,
      "t": 230217.06900000025,
      "d": 127.71721249999246,
      "v": 99
    },
    {
      "midi": 57,
      "hit": false,
      "t": 230217.06900000025,
      "d": 588.3143937500136,
      "v": 63
    },
    {
      "midi": 54,
      "hit": false,
      "t": 230434.46000000025,
      "d": 108.69550000000163,
      "v": 73
    },
    {
      "midi": 54,
      "hit": false,
      "t": 230651.85100000026,
      "d": 179.3475749999925,
      "v": 46
    },
    {
      "midi": 55,
      "hit": false,
      "t": 230869.24200000026,
      "d": 152.17370000001392,
      "v": 96
    },
    {
      "midi": 59,
      "hit": false,
      "t": 230869.24200000026,
      "d": 376.3581687499827,
      "v": 93
    },
    {
      "midi": 62,
      "hit": false,
      "t": 230869.24200000026,
      "d": 576.0861499999883,
      "v": 99
    },
    {
      "midi": 43,
      "hit": false,
      "t": 230869.24200000026,
      "d": 1994.56242500004,
      "v": 63
    },
    {
      "midi": 55,
      "hit": false,
      "t": 231086.63300000026,
      "d": 122.28243749999092,
      "v": 24
    },
    {
      "midi": 55,
      "hit": false,
      "t": 231304.02400000024,
      "d": 141.30415000001085,
      "v": 63
    },
    {
      "midi": 59,
      "hit": false,
      "t": 231304.02400000024,
      "d": 186.14104375001625,
      "v": 24
    },
    {
      "midi": 55,
      "hit": false,
      "t": 231521.41500000024,
      "d": 160.32586250000168,
      "v": 93
    },
    {
      "midi": 59,
      "hit": false,
      "t": 231521.41500000024,
      "d": 353.2603750000126,
      "v": 93
    },
    {
      "midi": 62,
      "hit": false,
      "t": 231521.41500000024,
      "d": 585.5970062500273,
      "v": 66
    },
    {
      "midi": 55,
      "hit": false,
      "t": 231738.80600000024,
      "d": 114.13027500000317,
      "v": 46
    },
    {
      "midi": 55,
      "hit": false,
      "t": 231956.19700000025,
      "d": 146.7389250000124,
      "v": 21
    },
    {
      "midi": 59,
      "hit": false,
      "t": 231956.19700000025,
      "d": 168.47802500001853,
      "v": 15
    },
    {
      "midi": 55,
      "hit": false,
      "t": 232173.58800000028,
      "d": 561.1405187500059,
      "v": 101
    },
    {
      "midi": 59,
      "hit": false,
      "t": 232173.58800000028,
      "d": 572.0100687500089,
      "v": 107
    },
    {
      "midi": 62,
      "hit": false,
      "t": 232173.58800000028,
      "d": 572.0100687500089,
      "v": 104
    },
    {
      "midi": 54,
      "hit": false,
      "t": 232825.7610000003,
      "d": 163.043250000017,
      "v": 98
    },
    {
      "midi": 57,
      "hit": false,
      "t": 232825.7610000003,
      "d": 207.8801437500224,
      "v": 86
    },
    {
      "midi": 62,
      "hit": false,
      "t": 232825.7610000003,
      "d": 400.8146562500624,
      "v": 104
    },
    {
      "midi": 50,
      "hit": false,
      "t": 232825.7610000003,
      "d": 2039.3993187500746,
      "v": 86
    },
    {
      "midi": 54,
      "hit": false,
      "t": 233043.15200000032,
      "d": 95.10856250001234,
      "v": 56
    },
    {
      "midi": 57,
      "hit": false,
      "t": 233043.15200000032,
      "d": 139.94545625001774,
      "v": 21
    },
    {
      "midi": 54,
      "hit": false,
      "t": 233260.54300000035,
      "d": 111.41288749998785,
      "v": 21
    },
    {
      "midi": 57,
      "hit": false,
      "t": 233260.54300000035,
      "d": 127.71721249999246,
      "v": 30
    },
    {
      "midi": 62,
      "hit": false,
      "t": 233260.54300000035,
      "d": 146.73892499998328,
      "v": 21
    },
    {
      "midi": 54,
      "hit": false,
      "t": 233477.93400000033,
      "d": 172.55410624999786,
      "v": 99
    },
    {
      "midi": 57,
      "hit": false,
      "t": 233477.93400000033,
      "d": 328.8038875000202,
      "v": 104
    },
    {
      "midi": 62,
      "hit": false,
      "t": 233477.93400000033,
      "d": 572.0100687500089,
      "v": 108
    },
    {
      "midi": 54,
      "hit": false,
      "t": 233695.32500000033,
      "d": 39.402118750003865,
      "v": 15
    },
    {
      "midi": 54,
      "hit": false,
      "t": 233912.71600000034,
      "d": 92.39117499999702,
      "v": 76
    },
    {
      "midi": 57,
      "hit": false,
      "t": 233912.71600000034,
      "d": 180.70626875001471,
      "v": 66
    },
    {
      "midi": 54,
      "hit": false,
      "t": 234130.10700000034,
      "d": 110.05419374999474,
      "v": 86
    },
    {
      "midi": 62,
      "hit": false,
      "t": 234130.10700000034,
      "d": 425.27114374999655,
      "v": 93
    },
    {
      "midi": 57,
      "hit": false,
      "t": 234130.10700000034,
      "d": 552.9883562500181,
      "v": 79
    },
    {
      "midi": 54,
      "hit": false,
      "t": 234347.49800000034,
      "d": 77.44554374998552,
      "v": 63
    },
    {
      "midi": 54,
      "hit": false,
      "t": 234564.88900000034,
      "d": 173.91280000002007,
      "v": 66
    },
    {
      "midi": 62,
      "hit": false,
      "t": 234782.28000000038,
      "d": 120.92374374999781,
      "v": 96
    },
    {
      "midi": 55,
      "hit": false,
      "t": 234782.28000000038,
      "d": 129.07590624998556,
      "v": 96
    },
    {
      "midi": 59,
      "hit": false,
      "t": 234782.28000000038,
      "d": 134.5106812499871,
      "v": 104
    },
    {
      "midi": 43,
      "hit": false,
      "t": 234782.28000000038,
      "d": 2014.9428312499658,
      "v": 66
    },
    {
      "midi": 62,
      "hit": false,
      "t": 234999.67100000035,
      "d": 96.46725625000545,
      "v": 38
    },
    {
      "midi": 59,
      "hit": false,
      "t": 234999.67100000035,
      "d": 103.2607250000001,
      "v": 51
    },
    {
      "midi": 55,
      "hit": false,
      "t": 234999.67100000035,
      "d": 111.41288749998785,
      "v": 63
    },
    {
      "midi": 55,
      "hit": false,
      "t": 235217.06200000033,
      "d": 129.07590624998556,
      "v": 60
    },
    {
      "midi": 59,
      "hit": false,
      "t": 235217.06200000033,
      "d": 129.07590624998556,
      "v": 56
    },
    {
      "midi": 62,
      "hit": false,
      "t": 235217.06200000033,
      "d": 131.79329374997178,
      "v": 21
    },
    {
      "midi": 55,
      "hit": false,
      "t": 235434.4530000003,
      "d": 138.58676249999553,
      "v": 93
    },
    {
      "midi": 59,
      "hit": false,
      "t": 235434.4530000003,
      "d": 355.9777625000279,
      "v": 99
    },
    {
      "midi": 62,
      "hit": false,
      "t": 235434.4530000003,
      "d": 612.770881250035,
      "v": 91
    },
    {
      "midi": 55,
      "hit": false,
      "t": 235651.8440000003,
      "d": 100.54333750001388,
      "v": 38
    },
    {
      "midi": 55,
      "hit": false,
      "t": 235869.23500000034,
      "d": 145.38023124999017,
      "v": 63
    },
    {
      "midi": 59,
      "hit": false,
      "t": 235869.23500000034,
      "d": 184.78234999999404,
      "v": 51
    },
    {
      "midi": 62,
      "hit": false,
      "t": 236086.62600000034,
      "d": 133.151987499994,
      "v": 107
    },
    {
      "midi": 55,
      "hit": false,
      "t": 236086.62600000034,
      "d": 135.8693749999802,
      "v": 104
    },
    {
      "midi": 59,
      "hit": false,
      "t": 236086.62600000034,
      "d": 138.58676249996643,
      "v": 111
    },
    {
      "midi": 59,
      "hit": false,
      "t": 236304.0170000003,
      "d": 126.35851874999935,
      "v": 51
    },
    {
      "midi": 55,
      "hit": false,
      "t": 236304.0170000003,
      "d": 290.76046250000945,
      "v": 30
    },
    {
      "midi": 62,
      "hit": false,
      "t": 236304.0170000003,
      "d": 398.097268750018,
      "v": 60
    },
    {
      "midi": 59,
      "hit": false,
      "t": 236521.40800000032,
      "d": 201.08667500002775,
      "v": 38
    },
    {
      "midi": 54,
      "hit": false,
      "t": 236738.79900000035,
      "d": 164.401943749981,
      "v": 106
    },
    {
      "midi": 57,
      "hit": false,
      "t": 236738.79900000035,
      "d": 563.857906249963,
      "v": 56
    },
    {
      "midi": 62,
      "hit": false,
      "t": 236738.79900000035,
      "d": 569.2926812499645,
      "v": 46
    },
    {
      "midi": 50,
      "hit": false,
      "t": 236738.79900000035,
      "d": 2005.431974999985,
      "v": 91
    },
    {
      "midi": 54,
      "hit": false,
      "t": 236956.19000000032,
      "d": 110.05419374999474,
      "v": 53
    },
    {
      "midi": 54,
      "hit": false,
      "t": 237173.58100000033,
      "d": 153.53239374997793,
      "v": 42
    },
    {
      "midi": 54,
      "hit": false,
      "t": 237390.9720000003,
      "d": 152.17370000001392,
      "v": 99
    },
    {
      "midi": 57,
      "hit": false,
      "t": 237390.9720000003,
      "d": 319.29303125001024,
      "v": 104
    },
    {
      "midi": 54,
      "hit": false,
      "t": 237608.3630000003,
      "d": 153.53239375000703,
      "v": 73
    },
    {
      "midi": 54,
      "hit": false,
      "t": 237825.7540000003,
      "d": 171.19541250000475,
      "v": 51
    },
    {
      "midi": 57,
      "hit": false,
      "t": 237825.7540000003,
      "d": 202.44536874999176,
      "v": 69
    },
    {
      "midi": 62,
      "hit": false,
      "t": 238043.1450000003,
      "d": 8.152162499987753,
      "v": 56
    },
    {
      "midi": 54,
      "hit": false,
      "t": 238043.1450000003,
      "d": 127.71721249999246,
      "v": 99
    },
    {
      "midi": 57,
      "hit": false,
      "t": 238043.1450000003,
      "d": 588.3143937500136,
      "v": 63
    },
    {
      "midi": 54,
      "hit": false,
      "t": 238260.5360000003,
      "d": 108.69550000000163,
      "v": 73
    },
    {
      "midi": 54,
      "hit": false,
      "t": 238477.92700000032,
      "d": 179.3475749999925,
      "v": 46
    },
    {
      "midi": 55,
      "hit": false,
      "t": 238695.31800000032,
      "d": 152.17370000001392,
      "v": 96
    },
    {
      "midi": 59,
      "hit": false,
      "t": 238695.31800000032,
      "d": 376.3581687499827,
      "v": 93
    },
    {
      "midi": 62,
      "hit": false,
      "t": 238695.31800000032,
      "d": 576.0861499999883,
      "v": 99
    },
    {
      "midi": 43,
      "hit": false,
      "t": 238695.31800000032,
      "d": 1994.56242500004,
      "v": 63
    },
    {
      "midi": 55,
      "hit": false,
      "t": 238912.70900000032,
      "d": 122.28243749999092,
      "v": 24
    },
    {
      "midi": 55,
      "hit": false,
      "t": 239130.1000000003,
      "d": 141.30415000001085,
      "v": 63
    },
    {
      "midi": 59,
      "hit": false,
      "t": 239130.1000000003,
      "d": 186.14104375001625,
      "v": 24
    },
    {
      "midi": 55,
      "hit": false,
      "t": 239347.4910000003,
      "d": 160.32586250000168,
      "v": 93
    },
    {
      "midi": 59,
      "hit": false,
      "t": 239347.4910000003,
      "d": 353.2603750000126,
      "v": 93
    },
    {
      "midi": 62,
      "hit": false,
      "t": 239347.4910000003,
      "d": 585.5970062500273,
      "v": 66
    },
    {
      "midi": 55,
      "hit": false,
      "t": 239564.8820000003,
      "d": 114.13027500000317,
      "v": 46
    },
    {
      "midi": 55,
      "hit": false,
      "t": 239782.2730000003,
      "d": 146.7389250000124,
      "v": 21
    },
    {
      "midi": 59,
      "hit": false,
      "t": 239782.2730000003,
      "d": 168.47802500001853,
      "v": 15
    },
    {
      "midi": 55,
      "hit": false,
      "t": 239999.66400000034,
      "d": 561.1405187500059,
      "v": 101
    },
    {
      "midi": 59,
      "hit": false,
      "t": 239999.66400000034,
      "d": 572.0100687500089,
      "v": 107
    },
    {
      "midi": 62,
      "hit": false,
      "t": 239999.66400000034,
      "d": 572.0100687500089,
      "v": 104
    },
    {
      "midi": 54,
      "hit": false,
      "t": 240651.83700000035,
      "d": 163.043250000017,
      "v": 98
    },
    {
      "midi": 57,
      "hit": false,
      "t": 240651.83700000035,
      "d": 207.8801437500224,
      "v": 86
    },
    {
      "midi": 62,
      "hit": false,
      "t": 240651.83700000035,
      "d": 400.8146562500624,
      "v": 104
    },
    {
      "midi": 50,
      "hit": false,
      "t": 240651.83700000035,
      "d": 2039.3993187500746,
      "v": 86
    },
    {
      "midi": 54,
      "hit": false,
      "t": 240869.22800000038,
      "d": 95.10856250001234,
      "v": 56
    },
    {
      "midi": 57,
      "hit": false,
      "t": 240869.22800000038,
      "d": 139.94545625001774,
      "v": 21
    },
    {
      "midi": 54,
      "hit": false,
      "t": 241086.6190000004,
      "d": 111.41288749998785,
      "v": 21
    },
    {
      "midi": 57,
      "hit": false,
      "t": 241086.6190000004,
      "d": 127.71721249999246,
      "v": 30
    },
    {
      "midi": 62,
      "hit": false,
      "t": 241086.6190000004,
      "d": 146.73892499998328,
      "v": 21
    },
    {
      "midi": 54,
      "hit": false,
      "t": 241304.0100000004,
      "d": 172.55410624999786,
      "v": 99
    },
    {
      "midi": 57,
      "hit": false,
      "t": 241304.0100000004,
      "d": 328.8038875000202,
      "v": 104
    },
    {
      "midi": 62,
      "hit": false,
      "t": 241304.0100000004,
      "d": 572.0100687500089,
      "v": 108
    },
    {
      "midi": 54,
      "hit": false,
      "t": 241521.4010000004,
      "d": 39.402118750003865,
      "v": 15
    },
    {
      "midi": 54,
      "hit": false,
      "t": 241738.7920000004,
      "d": 92.39117499999702,
      "v": 76
    },
    {
      "midi": 57,
      "hit": false,
      "t": 241738.7920000004,
      "d": 180.70626875001471,
      "v": 66
    },
    {
      "midi": 54,
      "hit": false,
      "t": 241956.1830000004,
      "d": 110.05419374999474,
      "v": 86
    },
    {
      "midi": 62,
      "hit": false,
      "t": 241956.1830000004,
      "d": 425.27114374999655,
      "v": 93
    },
    {
      "midi": 57,
      "hit": false,
      "t": 241956.1830000004,
      "d": 552.9883562500181,
      "v": 79
    },
    {
      "midi": 54,
      "hit": false,
      "t": 242173.5740000004,
      "d": 77.44554374998552,
      "v": 63
    },
    {
      "midi": 54,
      "hit": false,
      "t": 242390.9650000004,
      "d": 173.91280000002007,
      "v": 66
    },
    {
      "midi": 62,
      "hit": false,
      "t": 242608.35600000044,
      "d": 120.92374374999781,
      "v": 96
    },
    {
      "midi": 55,
      "hit": false,
      "t": 242608.35600000044,
      "d": 129.07590624998556,
      "v": 96
    },
    {
      "midi": 59,
      "hit": false,
      "t": 242608.35600000044,
      "d": 134.5106812499871,
      "v": 104
    },
    {
      "midi": 43,
      "hit": false,
      "t": 242608.35600000044,
      "d": 2014.9428312499658,
      "v": 66
    },
    {
      "midi": 62,
      "hit": false,
      "t": 242825.7470000004,
      "d": 96.46725625000545,
      "v": 38
    },
    {
      "midi": 59,
      "hit": false,
      "t": 242825.7470000004,
      "d": 103.2607250000001,
      "v": 51
    },
    {
      "midi": 55,
      "hit": false,
      "t": 242825.7470000004,
      "d": 111.41288749998785,
      "v": 63
    },
    {
      "midi": 55,
      "hit": false,
      "t": 243043.13800000038,
      "d": 129.07590624998556,
      "v": 60
    },
    {
      "midi": 59,
      "hit": false,
      "t": 243043.13800000038,
      "d": 129.07590624998556,
      "v": 56
    },
    {
      "midi": 62,
      "hit": false,
      "t": 243043.13800000038,
      "d": 131.79329374997178,
      "v": 21
    },
    {
      "midi": 55,
      "hit": false,
      "t": 243260.52900000036,
      "d": 138.58676249999553,
      "v": 93
    },
    {
      "midi": 59,
      "hit": false,
      "t": 243260.52900000036,
      "d": 355.9777625000279,
      "v": 99
    },
    {
      "midi": 62,
      "hit": false,
      "t": 243260.52900000036,
      "d": 612.770881250035,
      "v": 91
    },
    {
      "midi": 55,
      "hit": false,
      "t": 243477.92000000036,
      "d": 100.54333750001388,
      "v": 38
    },
    {
      "midi": 55,
      "hit": false,
      "t": 243695.3110000004,
      "d": 145.38023124999017,
      "v": 63
    },
    {
      "midi": 59,
      "hit": false,
      "t": 243695.3110000004,
      "d": 184.78234999999404,
      "v": 51
    },
    {
      "midi": 62,
      "hit": false,
      "t": 243912.7020000004,
      "d": 133.151987499994,
      "v": 107
    },
    {
      "midi": 55,
      "hit": false,
      "t": 243912.7020000004,
      "d": 135.8693749999802,
      "v": 104
    },
    {
      "midi": 59,
      "hit": false,
      "t": 243912.7020000004,
      "d": 138.58676249996643,
      "v": 111
    },
    {
      "midi": 59,
      "hit": false,
      "t": 244130.09300000037,
      "d": 126.35851874999935,
      "v": 51
    },
    {
      "midi": 55,
      "hit": false,
      "t": 244130.09300000037,
      "d": 290.76046250000945,
      "v": 30
    },
    {
      "midi": 62,
      "hit": false,
      "t": 244130.09300000037,
      "d": 398.097268750018,
      "v": 60
    },
    {
      "midi": 59,
      "hit": false,
      "t": 244347.48400000038,
      "d": 201.08667500002775,
      "v": 38
    },
    {
      "midi": 54,
      "hit": false,
      "t": 244564.8750000004,
      "d": 164.401943749981,
      "v": 106
    },
    {
      "midi": 57,
      "hit": false,
      "t": 244564.8750000004,
      "d": 563.857906249963,
      "v": 56
    },
    {
      "midi": 62,
      "hit": false,
      "t": 244564.8750000004,
      "d": 569.2926812499645,
      "v": 46
    },
    {
      "midi": 50,
      "hit": false,
      "t": 244564.8750000004,
      "d": 2005.431974999985,
      "v": 91
    },
    {
      "midi": 54,
      "hit": false,
      "t": 244782.26600000038,
      "d": 110.05419374999474,
      "v": 53
    },
    {
      "midi": 54,
      "hit": false,
      "t": 244999.65700000038,
      "d": 153.53239374997793,
      "v": 42
    },
    {
      "midi": 54,
      "hit": false,
      "t": 245217.04800000036,
      "d": 152.17370000001392,
      "v": 99
    },
    {
      "midi": 57,
      "hit": false,
      "t": 245217.04800000036,
      "d": 319.29303125001024,
      "v": 104
    },
    {
      "midi": 54,
      "hit": false,
      "t": 245434.43900000036,
      "d": 153.53239375000703,
      "v": 73
    },
    {
      "midi": 54,
      "hit": false,
      "t": 245651.83000000037,
      "d": 171.19541250000475,
      "v": 51
    },
    {
      "midi": 57,
      "hit": false,
      "t": 245651.83000000037,
      "d": 202.44536874999176,
      "v": 69
    },
    {
      "midi": 62,
      "hit": false,
      "t": 245869.22100000037,
      "d": 8.152162499987753,
      "v": 56
    },
    {
      "midi": 54,
      "hit": false,
      "t": 245869.22100000037,
      "d": 127.71721249999246,
      "v": 99
    },
    {
      "midi": 57,
      "hit": false,
      "t": 245869.22100000037,
      "d": 588.3143937500136,
      "v": 63
    },
    {
      "midi": 54,
      "hit": false,
      "t": 246086.61200000037,
      "d": 108.69550000000163,
      "v": 73
    },
    {
      "midi": 54,
      "hit": false,
      "t": 246304.00300000038,
      "d": 179.3475749999925,
      "v": 46
    },
    {
      "midi": 55,
      "hit": false,
      "t": 246521.39400000038,
      "d": 152.17370000001392,
      "v": 96
    },
    {
      "midi": 59,
      "hit": false,
      "t": 246521.39400000038,
      "d": 376.3581687499827,
      "v": 93
    },
    {
      "midi": 62,
      "hit": false,
      "t": 246521.39400000038,
      "d": 576.0861499999883,
      "v": 99
    },
    {
      "midi": 43,
      "hit": false,
      "t": 246521.39400000038,
      "d": 1994.56242500004,
      "v": 63
    },
    {
      "midi": 55,
      "hit": false,
      "t": 246738.78500000038,
      "d": 122.28243749999092,
      "v": 24
    },
    {
      "midi": 55,
      "hit": false,
      "t": 246956.17600000036,
      "d": 141.30415000001085,
      "v": 63
    },
    {
      "midi": 59,
      "hit": false,
      "t": 246956.17600000036,
      "d": 186.14104375001625,
      "v": 24
    },
    {
      "midi": 55,
      "hit": false,
      "t": 247173.56700000036,
      "d": 160.32586250000168,
      "v": 93
    },
    {
      "midi": 59,
      "hit": false,
      "t": 247173.56700000036,
      "d": 353.2603750000126,
      "v": 93
    },
    {
      "midi": 62,
      "hit": false,
      "t": 247173.56700000036,
      "d": 585.5970062500273,
      "v": 66
    },
    {
      "midi": 55,
      "hit": false,
      "t": 247390.95800000036,
      "d": 114.13027500000317,
      "v": 46
    },
    {
      "midi": 55,
      "hit": false,
      "t": 247608.34900000037,
      "d": 146.7389250000124,
      "v": 21
    },
    {
      "midi": 59,
      "hit": false,
      "t": 247608.34900000037,
      "d": 168.47802500001853,
      "v": 15
    },
    {
      "midi": 55,
      "hit": false,
      "t": 247825.7400000004,
      "d": 561.1405187500059,
      "v": 101
    },
    {
      "midi": 59,
      "hit": false,
      "t": 247825.7400000004,
      "d": 572.0100687500089,
      "v": 107
    },
    {
      "midi": 62,
      "hit": false,
      "t": 247825.7400000004,
      "d": 572.0100687500089,
      "v": 104
    },
    {
      "midi": 54,
      "hit": false,
      "t": 248477.9130000004,
      "d": 163.043250000017,
      "v": 98
    },
    {
      "midi": 57,
      "hit": false,
      "t": 248477.9130000004,
      "d": 207.8801437500224,
      "v": 86
    },
    {
      "midi": 62,
      "hit": false,
      "t": 248477.9130000004,
      "d": 400.8146562500624,
      "v": 104
    },
    {
      "midi": 50,
      "hit": false,
      "t": 248477.9130000004,
      "d": 2039.3993187500746,
      "v": 86
    },
    {
      "midi": 54,
      "hit": false,
      "t": 248695.30400000044,
      "d": 95.10856250001234,
      "v": 56
    },
    {
      "midi": 57,
      "hit": false,
      "t": 248695.30400000044,
      "d": 139.94545625001774,
      "v": 21
    },
    {
      "midi": 54,
      "hit": false,
      "t": 248912.69500000047,
      "d": 111.41288749998785,
      "v": 21
    },
    {
      "midi": 57,
      "hit": false,
      "t": 248912.69500000047,
      "d": 127.71721249999246,
      "v": 30
    },
    {
      "midi": 62,
      "hit": false,
      "t": 248912.69500000047,
      "d": 146.73892499998328,
      "v": 21
    },
    {
      "midi": 54,
      "hit": false,
      "t": 249130.08600000045,
      "d": 172.55410624999786,
      "v": 99
    },
    {
      "midi": 57,
      "hit": false,
      "t": 249130.08600000045,
      "d": 328.8038875000202,
      "v": 104
    },
    {
      "midi": 62,
      "hit": false,
      "t": 249130.08600000045,
      "d": 572.0100687500089,
      "v": 108
    },
    {
      "midi": 54,
      "hit": false,
      "t": 249347.47700000045,
      "d": 39.402118750003865,
      "v": 15
    },
    {
      "midi": 54,
      "hit": false,
      "t": 249564.86800000045,
      "d": 92.39117499999702,
      "v": 76
    },
    {
      "midi": 57,
      "hit": false,
      "t": 249564.86800000045,
      "d": 180.70626875001471,
      "v": 66
    },
    {
      "midi": 54,
      "hit": false,
      "t": 249782.25900000046,
      "d": 110.05419374999474,
      "v": 86
    },
    {
      "midi": 62,
      "hit": false,
      "t": 249782.25900000046,
      "d": 425.27114374999655,
      "v": 93
    },
    {
      "midi": 57,
      "hit": false,
      "t": 249782.25900000046,
      "d": 552.9883562500181,
      "v": 79
    },
    {
      "midi": 54,
      "hit": false,
      "t": 249999.65000000046,
      "d": 77.44554374998552,
      "v": 63
    },
    {
      "midi": 54,
      "hit": false,
      "t": 250217.04100000046,
      "d": 173.91280000002007,
      "v": 66
    },
    {
      "midi": 62,
      "hit": false,
      "t": 250434.4320000005,
      "d": 120.92374374999781,
      "v": 96
    },
    {
      "midi": 55,
      "hit": false,
      "t": 250434.4320000005,
      "d": 129.07590624998556,
      "v": 96
    },
    {
      "midi": 59,
      "hit": false,
      "t": 250434.4320000005,
      "d": 134.5106812499871,
      "v": 104
    },
    {
      "midi": 43,
      "hit": false,
      "t": 250434.4320000005,
      "d": 2014.9428312499658,
      "v": 66
    },
    {
      "midi": 62,
      "hit": false,
      "t": 250651.82300000047,
      "d": 96.46725625000545,
      "v": 38
    },
    {
      "midi": 59,
      "hit": false,
      "t": 250651.82300000047,
      "d": 103.2607250000001,
      "v": 51
    },
    {
      "midi": 55,
      "hit": false,
      "t": 250651.82300000047,
      "d": 111.41288749998785,
      "v": 63
    },
    {
      "midi": 55,
      "hit": false,
      "t": 250869.21400000044,
      "d": 129.07590624998556,
      "v": 60
    },
    {
      "midi": 59,
      "hit": false,
      "t": 250869.21400000044,
      "d": 129.07590624998556,
      "v": 56
    },
    {
      "midi": 62,
      "hit": false,
      "t": 250869.21400000044,
      "d": 131.79329374997178,
      "v": 21
    },
    {
      "midi": 55,
      "hit": false,
      "t": 251086.60500000042,
      "d": 138.58676249999553,
      "v": 93
    },
    {
      "midi": 59,
      "hit": false,
      "t": 251086.60500000042,
      "d": 355.9777625000279,
      "v": 99
    },
    {
      "midi": 62,
      "hit": false,
      "t": 251086.60500000042,
      "d": 612.770881250035,
      "v": 91
    },
    {
      "midi": 55,
      "hit": false,
      "t": 251303.99600000042,
      "d": 100.54333750001388,
      "v": 38
    },
    {
      "midi": 55,
      "hit": false,
      "t": 251521.38700000045,
      "d": 145.38023124999017,
      "v": 63
    },
    {
      "midi": 59,
      "hit": false,
      "t": 251521.38700000045,
      "d": 184.78234999999404,
      "v": 51
    },
    {
      "midi": 62,
      "hit": false,
      "t": 251738.77800000046,
      "d": 133.151987499994,
      "v": 107
    },
    {
      "midi": 55,
      "hit": false,
      "t": 251738.77800000046,
      "d": 135.8693749999802,
      "v": 104
    },
    {
      "midi": 59,
      "hit": false,
      "t": 251738.77800000046,
      "d": 138.58676249996643,
      "v": 111
    },
    {
      "midi": 59,
      "hit": false,
      "t": 251956.16900000043,
      "d": 126.35851874999935,
      "v": 51
    },
    {
      "midi": 55,
      "hit": false,
      "t": 251956.16900000043,
      "d": 290.76046250000945,
      "v": 30
    },
    {
      "midi": 62,
      "hit": false,
      "t": 251956.16900000043,
      "d": 398.097268750018,
      "v": 60
    },
    {
      "midi": 59,
      "hit": false,
      "t": 252173.56000000043,
      "d": 201.08667500002775,
      "v": 38
    },
    {
      "midi": 54,
      "hit": false,
      "t": 252390.95100000047,
      "d": 164.401943749981,
      "v": 106
    },
    {
      "midi": 57,
      "hit": false,
      "t": 252390.95100000047,
      "d": 563.857906249963,
      "v": 56
    },
    {
      "midi": 62,
      "hit": false,
      "t": 252390.95100000047,
      "d": 569.2926812499645,
      "v": 46
    },
    {
      "midi": 50,
      "hit": false,
      "t": 252390.95100000047,
      "d": 2005.431974999985,
      "v": 91
    },
    {
      "midi": 54,
      "hit": false,
      "t": 252608.34200000044,
      "d": 110.05419374999474,
      "v": 53
    },
    {
      "midi": 54,
      "hit": false,
      "t": 252825.73300000044,
      "d": 153.53239374997793,
      "v": 42
    },
    {
      "midi": 54,
      "hit": false,
      "t": 253043.12400000042,
      "d": 152.17370000001392,
      "v": 99
    },
    {
      "midi": 57,
      "hit": false,
      "t": 253043.12400000042,
      "d": 319.29303125001024,
      "v": 104
    },
    {
      "midi": 54,
      "hit": false,
      "t": 253260.51500000042,
      "d": 153.53239375000703,
      "v": 73
    },
    {
      "midi": 54,
      "hit": false,
      "t": 253477.90600000042,
      "d": 171.19541250000475,
      "v": 51
    },
    {
      "midi": 57,
      "hit": false,
      "t": 253477.90600000042,
      "d": 202.44536874999176,
      "v": 69
    },
    {
      "midi": 62,
      "hit": false,
      "t": 253695.29700000043,
      "d": 8.152162499987753,
      "v": 56
    },
    {
      "midi": 54,
      "hit": false,
      "t": 253695.29700000043,
      "d": 127.71721249999246,
      "v": 99
    },
    {
      "midi": 57,
      "hit": false,
      "t": 253695.29700000043,
      "d": 588.3143937500136,
      "v": 63
    },
    {
      "midi": 54,
      "hit": false,
      "t": 253912.68800000043,
      "d": 108.69550000000163,
      "v": 73
    },
    {
      "midi": 54,
      "hit": false,
      "t": 254130.07900000043,
      "d": 179.3475749999925,
      "v": 46
    },
    {
      "midi": 55,
      "hit": false,
      "t": 254347.47000000044,
      "d": 152.17370000001392,
      "v": 96
    },
    {
      "midi": 59,
      "hit": false,
      "t": 254347.47000000044,
      "d": 376.3581687499827,
      "v": 93
    },
    {
      "midi": 62,
      "hit": false,
      "t": 254347.47000000044,
      "d": 576.0861499999883,
      "v": 99
    },
    {
      "midi": 43,
      "hit": false,
      "t": 254347.47000000044,
      "d": 1994.56242500004,
      "v": 63
    },
    {
      "midi": 55,
      "hit": false,
      "t": 254564.86100000044,
      "d": 122.28243749999092,
      "v": 24
    },
    {
      "midi": 55,
      "hit": false,
      "t": 254782.25200000042,
      "d": 141.30415000001085,
      "v": 63
    },
    {
      "midi": 59,
      "hit": false,
      "t": 254782.25200000042,
      "d": 186.14104375001625,
      "v": 24
    },
    {
      "midi": 55,
      "hit": false,
      "t": 254999.64300000042,
      "d": 160.32586250000168,
      "v": 93
    },
    {
      "midi": 59,
      "hit": false,
      "t": 254999.64300000042,
      "d": 353.2603750000126,
      "v": 93
    },
    {
      "midi": 62,
      "hit": false,
      "t": 254999.64300000042,
      "d": 585.5970062500273,
      "v": 66
    },
    {
      "midi": 55,
      "hit": false,
      "t": 255217.03400000042,
      "d": 114.13027500000317,
      "v": 46
    },
    {
      "midi": 55,
      "hit": false,
      "t": 255434.42500000042,
      "d": 146.7389250000124,
      "v": 21
    },
    {
      "midi": 59,
      "hit": false,
      "t": 255434.42500000042,
      "d": 168.47802500001853,
      "v": 15
    },
    {
      "midi": 55,
      "hit": false,
      "t": 255651.81600000046,
      "d": 561.1405187500059,
      "v": 101
    },
    {
      "midi": 59,
      "hit": false,
      "t": 255651.81600000046,
      "d": 572.0100687500089,
      "v": 107
    },
    {
      "midi": 62,
      "hit": false,
      "t": 255651.81600000046,
      "d": 572.0100687500089,
      "v": 104
    },
    {
      "midi": 54,
      "hit": false,
      "t": 256303.98900000047,
      "d": 163.043250000017,
      "v": 98
    },
    {
      "midi": 57,
      "hit": false,
      "t": 256303.98900000047,
      "d": 207.8801437500224,
      "v": 86
    },
    {
      "midi": 62,
      "hit": false,
      "t": 256303.98900000047,
      "d": 400.8146562500624,
      "v": 104
    },
    {
      "midi": 50,
      "hit": false,
      "t": 256303.98900000047,
      "d": 2039.3993187500746,
      "v": 86
    },
    {
      "midi": 54,
      "hit": false,
      "t": 256521.3800000005,
      "d": 95.10856250001234,
      "v": 56
    },
    {
      "midi": 57,
      "hit": false,
      "t": 256521.3800000005,
      "d": 139.94545625001774,
      "v": 21
    },
    {
      "midi": 54,
      "hit": false,
      "t": 256738.77100000053,
      "d": 111.41288749998785,
      "v": 21
    },
    {
      "midi": 57,
      "hit": false,
      "t": 256738.77100000053,
      "d": 127.71721249999246,
      "v": 30
    },
    {
      "midi": 62,
      "hit": false,
      "t": 256738.77100000053,
      "d": 146.73892499998328,
      "v": 21
    },
    {
      "midi": 54,
      "hit": false,
      "t": 256956.1620000005,
      "d": 172.55410624999786,
      "v": 99
    },
    {
      "midi": 57,
      "hit": false,
      "t": 256956.1620000005,
      "d": 328.8038875000202,
      "v": 104
    },
    {
      "midi": 62,
      "hit": false,
      "t": 256956.1620000005,
      "d": 572.0100687500089,
      "v": 108
    },
    {
      "midi": 54,
      "hit": false,
      "t": 257173.5530000005,
      "d": 39.402118750003865,
      "v": 15
    },
    {
      "midi": 54,
      "hit": false,
      "t": 257390.9440000005,
      "d": 92.39117499999702,
      "v": 76
    },
    {
      "midi": 57,
      "hit": false,
      "t": 257390.9440000005,
      "d": 180.70626875001471,
      "v": 66
    },
    {
      "midi": 54,
      "hit": false,
      "t": 257608.33500000052,
      "d": 110.05419374999474,
      "v": 86
    },
    {
      "midi": 62,
      "hit": false,
      "t": 257608.33500000052,
      "d": 425.27114374999655,
      "v": 93
    },
    {
      "midi": 57,
      "hit": false,
      "t": 257608.33500000052,
      "d": 552.9883562500181,
      "v": 79
    },
    {
      "midi": 54,
      "hit": false,
      "t": 257825.72600000052,
      "d": 77.44554374998552,
      "v": 63
    },
    {
      "midi": 54,
      "hit": false,
      "t": 258043.11700000052,
      "d": 173.91280000002007,
      "v": 66
    },
    {
      "midi": 62,
      "hit": false,
      "t": 258260.50800000055,
      "d": 120.92374374999781,
      "v": 96
    },
    {
      "midi": 55,
      "hit": false,
      "t": 258260.50800000055,
      "d": 129.07590624998556,
      "v": 96
    },
    {
      "midi": 59,
      "hit": false,
      "t": 258260.50800000055,
      "d": 134.5106812499871,
      "v": 104
    },
    {
      "midi": 43,
      "hit": false,
      "t": 258260.50800000055,
      "d": 2014.9428312499658,
      "v": 66
    },
    {
      "midi": 62,
      "hit": false,
      "t": 258477.89900000053,
      "d": 96.46725625000545,
      "v": 38
    },
    {
      "midi": 59,
      "hit": false,
      "t": 258477.89900000053,
      "d": 103.2607250000001,
      "v": 51
    },
    {
      "midi": 55,
      "hit": false,
      "t": 258477.89900000053,
      "d": 111.41288749998785,
      "v": 63
    },
    {
      "midi": 55,
      "hit": false,
      "t": 258695.2900000005,
      "d": 129.07590624998556,
      "v": 60
    },
    {
      "midi": 59,
      "hit": false,
      "t": 258695.2900000005,
      "d": 129.07590624998556,
      "v": 56
    },
    {
      "midi": 62,
      "hit": false,
      "t": 258695.2900000005,
      "d": 131.79329374997178,
      "v": 21
    },
    {
      "midi": 55,
      "hit": false,
      "t": 258912.68100000048,
      "d": 138.58676249999553,
      "v": 93
    },
    {
      "midi": 59,
      "hit": false,
      "t": 258912.68100000048,
      "d": 355.9777625000279,
      "v": 99
    },
    {
      "midi": 62,
      "hit": false,
      "t": 258912.68100000048,
      "d": 612.770881250035,
      "v": 91
    },
    {
      "midi": 55,
      "hit": false,
      "t": 259130.07200000048,
      "d": 100.54333750001388,
      "v": 38
    },
    {
      "midi": 55,
      "hit": false,
      "t": 259347.4630000005,
      "d": 145.38023124999017,
      "v": 63
    },
    {
      "midi": 59,
      "hit": false,
      "t": 259347.4630000005,
      "d": 184.78234999999404,
      "v": 51
    },
    {
      "midi": 62,
      "hit": false,
      "t": 259564.85400000052,
      "d": 133.151987499994,
      "v": 107
    },
    {
      "midi": 55,
      "hit": false,
      "t": 259564.85400000052,
      "d": 135.8693749999802,
      "v": 104
    },
    {
      "midi": 59,
      "hit": false,
      "t": 259564.85400000052,
      "d": 138.58676249996643,
      "v": 111
    },
    {
      "midi": 59,
      "hit": false,
      "t": 259782.2450000005,
      "d": 126.35851874999935,
      "v": 51
    },
    {
      "midi": 55,
      "hit": false,
      "t": 259782.2450000005,
      "d": 290.76046250000945,
      "v": 30
    },
    {
      "midi": 62,
      "hit": false,
      "t": 259782.2450000005,
      "d": 398.097268750018,
      "v": 60
    },
    {
      "midi": 59,
      "hit": false,
      "t": 259999.6360000005,
      "d": 201.08667500002775,
      "v": 38
    },
    {
      "midi": 54,
      "hit": false,
      "t": 260217.02700000053,
      "d": 164.401943749981,
      "v": 106
    },
    {
      "midi": 57,
      "hit": false,
      "t": 260217.02700000053,
      "d": 563.857906249963,
      "v": 56
    },
    {
      "midi": 62,
      "hit": false,
      "t": 260217.02700000053,
      "d": 569.2926812499645,
      "v": 46
    },
    {
      "midi": 50,
      "hit": false,
      "t": 260217.02700000053,
      "d": 2005.4319749999559,
      "v": 91
    },
    {
      "midi": 54,
      "hit": false,
      "t": 260434.4180000005,
      "d": 110.05419374999474,
      "v": 53
    },
    {
      "midi": 54,
      "hit": false,
      "t": 260651.8090000005,
      "d": 153.53239374997793,
      "v": 42
    },
    {
      "midi": 54,
      "hit": false,
      "t": 260869.20000000048,
      "d": 152.17370000001392,
      "v": 99
    },
    {
      "midi": 57,
      "hit": false,
      "t": 260869.20000000048,
      "d": 319.29303125001024,
      "v": 104
    },
    {
      "midi": 54,
      "hit": false,
      "t": 261086.59100000048,
      "d": 153.53239375000703,
      "v": 73
    },
    {
      "midi": 54,
      "hit": false,
      "t": 261303.98200000048,
      "d": 171.19541250000475,
      "v": 51
    },
    {
      "midi": 57,
      "hit": false,
      "t": 261303.98200000048,
      "d": 202.44536874999176,
      "v": 69
    },
    {
      "midi": 62,
      "hit": false,
      "t": 261521.3730000005,
      "d": 8.152162499987753,
      "v": 56
    },
    {
      "midi": 54,
      "hit": false,
      "t": 261521.3730000005,
      "d": 127.71721249999246,
      "v": 99
    },
    {
      "midi": 57,
      "hit": false,
      "t": 261521.3730000005,
      "d": 588.3143937500136,
      "v": 63
    },
    {
      "midi": 54,
      "hit": false,
      "t": 261738.7640000005,
      "d": 108.69550000000163,
      "v": 73
    },
    {
      "midi": 54,
      "hit": false,
      "t": 261956.1550000005,
      "d": 179.3475749999925,
      "v": 46
    },
    {
      "midi": 55,
      "hit": false,
      "t": 262173.5460000005,
      "d": 152.17369999998482,
      "v": 96
    },
    {
      "midi": 59,
      "hit": false,
      "t": 262173.5460000005,
      "d": 376.3581687500118,
      "v": 93
    },
    {
      "midi": 62,
      "hit": false,
      "t": 262173.5460000005,
      "d": 576.0861499999883,
      "v": 99
    },
    {
      "midi": 43,
      "hit": false,
      "t": 262173.5460000005,
      "d": 1994.562425000011,
      "v": 63
    },
    {
      "midi": 55,
      "hit": false,
      "t": 262390.9370000005,
      "d": 122.28243750002002,
      "v": 24
    },
    {
      "midi": 55,
      "hit": false,
      "t": 262608.3280000005,
      "d": 141.30414999998175,
      "v": 63
    },
    {
      "midi": 59,
      "hit": false,
      "t": 262608.3280000005,
      "d": 186.14104374998715,
      "v": 24
    },
    {
      "midi": 55,
      "hit": false,
      "t": 262825.7190000005,
      "d": 160.32586250000168,
      "v": 93
    },
    {
      "midi": 59,
      "hit": false,
      "t": 262825.7190000005,
      "d": 353.2603750000126,
      "v": 93
    },
    {
      "midi": 62,
      "hit": false,
      "t": 262825.7190000005,
      "d": 585.5970062499982,
      "v": 66
    },
    {
      "midi": 55,
      "hit": false,
      "t": 263043.1100000005,
      "d": 114.13027500000317,
      "v": 46
    },
    {
      "midi": 55,
      "hit": false,
      "t": 263260.5010000005,
      "d": 146.7389250000124,
      "v": 21
    },
    {
      "midi": 59,
      "hit": false,
      "t": 263260.5010000005,
      "d": 168.47802500001853,
      "v": 15
    },
    {
      "midi": 55,
      "hit": false,
      "t": 263477.8920000005,
      "d": 561.1405187500059,
      "v": 101
    },
    {
      "midi": 59,
      "hit": false,
      "t": 263477.8920000005,
      "d": 572.0100687500089,
      "v": 107
    },
    {
      "midi": 62,
      "hit": false,
      "t": 263477.8920000005,
      "d": 572.0100687500089,
      "v": 104
    },
    {
      "midi": 50,
      "hit": false,
      "t": 264130.0650000005,
      "d": 2603.2572250000085,
      "v": 64
    },
    {
      "midi": 62,
      "hit": false,
      "t": 264130.0650000005,
      "d": 2603.2572250000085,
      "v": 64
    },
    {
      "midi": 66,
      "hit": false,
      "t": 264130.0650000005,
      "d": 2603.2572250000085,
      "v": 64
    },
    {
      "midi": 69,
      "hit": false,
      "t": 264130.0650000005,
      "d": 2603.2572250000085,
      "v": 64
    }
  ]
}