{
  "jsonPath": "Unknown/Unknown/Julio Iglesias duet with Willie Nelson/para-todas-las-chicas-to-all-the-girls-ive-loved-before.json",
  "path": "Unknown\\Unknown\\Julio Iglesias duet with Willie Nelson\\Para Todas Las Chicas (To All The Girls Ive Loved Before).mid",
  "name": "Para Todas Las Chicas (To All The Girls Ive Loved Before)",
  "difficulty": "Advanced",
  "bpm": 84.000084000084,
  "notes": [
    {
      "midi": 1,
      "hit": false,
      "t": 0,
      "d": 2857.14,
      "v": 1
    },
    {
      "midi": 1,
      "hit": false,
      "t": 0,
      "d": 2797.61625,
      "v": 1
    },
    {
      "midi": 73,
      "hit": false,
      "t": 6785.7075,
      "d": 386.9043750000001,
      "v": 93
    },
    {
      "midi": 85,
      "hit": false,
      "t": 6785.7075,
      "d": 386.9043750000001,
      "v": 97
    },
    {
      "midi": 78,
      "hit": false,
      "t": 7142.85,
      "d": 372.0234375,
      "v": 100
    },
    {
      "midi": 90,
      "hit": false,
      "t": 7142.85,
      "d": 372.0234375,
      "v": 104
    },
    {
      "midi": 77,
      "hit": false,
      "t": 7499.9925,
      "d": 372.0234375,
      "v": 76
    },
    {
      "midi": 89,
      "hit": false,
      "t": 7499.9925,
      "d": 372.0234375,
      "v": 80
    },
    {
      "midi": 80,
      "hit": false,
      "t": 7857.135,
      "d": 386.9043750000001,
      "v": 108
    },
    {
      "midi": 92,
      "hit": false,
      "t": 7857.135,
      "d": 386.9043750000001,
      "v": 112
    },
    {
      "midi": 78,
      "hit": false,
      "t": 8214.2775,
      "d": 349.7020312500008,
      "v": 93
    },
    {
      "midi": 90,
      "hit": false,
      "t": 8214.2775,
      "d": 349.7020312500008,
      "v": 97
    },
    {
      "midi": 54,
      "hit": false,
      "t": 8578.86046875,
      "d": 654.7612500000014,
      "v": 123
    },
    {
      "midi": 82,
      "hit": false,
      "t": 8578.860468750001,
      "d": 1130.95125,
      "v": 117
    },
    {
      "midi": 94,
      "hit": false,
      "t": 8578.860468750001,
      "d": 1130.95125,
      "v": 121
    },
    {
      "midi": 58,
      "hit": false,
      "t": 8928.5625,
      "d": 372.0234375,
      "v": 113
    },
    {
      "midi": 61,
      "hit": false,
      "t": 9285.705,
      "d": 409.2257812499993,
      "v": 123
    },
    {
      "midi": 66,
      "hit": false,
      "t": 9642.8475,
      "d": 357.1424999999999,
      "v": 114
    },
    {
      "midi": 73,
      "hit": false,
      "t": 9642.847500000002,
      "d": 178.57124999999905,
      "v": 100
    },
    {
      "midi": 85,
      "hit": false,
      "t": 9642.847500000002,
      "d": 178.57124999999905,
      "v": 104
    },
    {
      "midi": 70,
      "hit": false,
      "t": 9999.99,
      "d": 409.2257812499993,
      "v": 113
    },
    {
      "midi": 73,
      "hit": false,
      "t": 9999.990000000002,
      "d": 2090.77171875,
      "v": 117
    },
    {
      "midi": 85,
      "hit": false,
      "t": 9999.990000000002,
      "d": 2090.77171875,
      "v": 121
    },
    {
      "midi": 66,
      "hit": false,
      "t": 10357.1325,
      "d": 364.58296874999905,
      "v": 107
    },
    {
      "midi": 61,
      "hit": false,
      "t": 10714.275,
      "d": 342.26156249999985,
      "v": 114
    },
    {
      "midi": 58,
      "hit": false,
      "t": 11071.4175,
      "d": 386.9043750000001,
      "v": 102
    },
    {
      "midi": 56,
      "hit": false,
      "t": 11428.56,
      "d": 1078.867968749999,
      "v": 127
    },
    {
      "midi": 61,
      "hit": false,
      "t": 11785.7025,
      "d": 758.9278124999983,
      "v": 114
    },
    {
      "midi": 65,
      "hit": false,
      "t": 12142.845,
      "d": 751.4873437499973,
      "v": 107
    },
    {
      "midi": 68,
      "hit": false,
      "t": 12499.9875,
      "d": 394.3448437499974,
      "v": 101
    },
    {
      "midi": 73,
      "hit": false,
      "t": 12499.987500000001,
      "d": 334.8210937500007,
      "v": 100
    },
    {
      "midi": 85,
      "hit": false,
      "t": 12499.987500000001,
      "d": 334.8210937500007,
      "v": 104
    },
    {
      "midi": 73,
      "hit": false,
      "t": 12857.129999999997,
      "d": 394.3448437499992,
      "v": 110
    },
    {
      "midi": 78,
      "hit": false,
      "t": 12857.130000000001,
      "d": 394.3448437499992,
      "v": 93
    },
    {
      "midi": 90,
      "hit": false,
      "t": 12857.130000000001,
      "d": 394.3448437499992,
      "v": 97
    },
    {
      "midi": 68,
      "hit": false,
      "t": 13214.272499999997,
      "d": 379.4639062499991,
      "v": 106
    },
    {
      "midi": 80,
      "hit": false,
      "t": 13214.272500000001,
      "d": 357.1424999999999,
      "v": 93
    },
    {
      "midi": 92,
      "hit": false,
      "t": 13214.272500000001,
      "d": 357.1424999999999,
      "v": 97
    },
    {
      "midi": 65,
      "hit": false,
      "t": 13571.414999999997,
      "d": 364.58296874999905,
      "v": 106
    },
    {
      "midi": 82,
      "hit": false,
      "t": 13571.415,
      "d": 342.26156249999985,
      "v": 93
    },
    {
      "midi": 94,
      "hit": false,
      "t": 13571.415,
      "d": 342.26156249999985,
      "v": 97
    },
    {
      "midi": 61,
      "hit": false,
      "t": 13928.557499999997,
      "d": 364.58296874999905,
      "v": 104
    },
    {
      "midi": 85,
      "hit": false,
      "t": 13935.99796875,
      "d": 230.65453125000022,
      "v": 79
    },
    {
      "midi": 97,
      "hit": false,
      "t": 13935.99796875,
      "d": 230.65453125000022,
      "v": 83
    },
    {
      "midi": 54,
      "hit": false,
      "t": 14293.140468749996,
      "d": 1116.0703125,
      "v": 120
    },
    {
      "midi": 85,
      "hit": false,
      "t": 14293.14046875,
      "d": 1041.6656249999996,
      "v": 108
    },
    {
      "midi": 97,
      "hit": false,
      "t": 14293.14046875,
      "d": 1041.6656249999996,
      "v": 112
    },
    {
      "midi": 59,
      "hit": false,
      "t": 14642.842499999997,
      "d": 818.4515624999985,
      "v": 106
    },
    {
      "midi": 63,
      "hit": false,
      "t": 14999.984999999997,
      "d": 1093.7489062499972,
      "v": 107
    },
    {
      "midi": 66,
      "hit": false,
      "t": 15357.127499999997,
      "d": 520.8328124999989,
      "v": 108
    },
    {
      "midi": 78,
      "hit": false,
      "t": 15357.127499999999,
      "d": 178.57125000000087,
      "v": 87
    },
    {
      "midi": 90,
      "hit": false,
      "t": 15357.127499999999,
      "d": 178.57125000000087,
      "v": 91
    },
    {
      "midi": 71,
      "hit": false,
      "t": 15714.269999999995,
      "d": 409.2257812499993,
      "v": 106
    },
    {
      "midi": 78,
      "hit": false,
      "t": 15721.71046875,
      "d": 1242.5582812499997,
      "v": 108
    },
    {
      "midi": 90,
      "hit": false,
      "t": 15721.71046875,
      "d": 1242.5582812499997,
      "v": 112
    },
    {
      "midi": 66,
      "hit": false,
      "t": 16071.412499999995,
      "d": 438.9876562499994,
      "v": 114
    },
    {
      "midi": 63,
      "hit": false,
      "t": 16428.554999999993,
      "d": 357.14250000000175,
      "v": 108
    },
    {
      "midi": 59,
      "hit": false,
      "t": 16785.697499999995,
      "d": 438.98765625000306,
      "v": 101
    },
    {
      "midi": 54,
      "hit": false,
      "t": 17142.839999999997,
      "d": 803.5706250000039,
      "v": 116
    },
    {
      "midi": 59,
      "hit": false,
      "t": 17499.9825,
      "d": 424.10671875000116,
      "v": 98
    },
    {
      "midi": 62,
      "hit": false,
      "t": 17857.125,
      "d": 751.4873437500028,
      "v": 99
    },
    {
      "midi": 73,
      "hit": false,
      "t": 18214.267499999998,
      "d": 379.46390625000276,
      "v": 100
    },
    {
      "midi": 85,
      "hit": false,
      "t": 18214.267499999998,
      "d": 379.46390625000276,
      "v": 104
    },
    {
      "midi": 66,
      "hit": false,
      "t": 18214.2675,
      "d": 372.0234375,
      "v": 102
    },
    {
      "midi": 80,
      "hit": false,
      "t": 18571.41,
      "d": 409.2257812500029,
      "v": 100
    },
    {
      "midi": 92,
      "hit": false,
      "t": 18571.41,
      "d": 409.2257812500029,
      "v": 104
    },
    {
      "midi": 71,
      "hit": false,
      "t": 18571.410000000003,
      "d": 394.3448437499974,
      "v": 107
    },
    {
      "midi": 78,
      "hit": false,
      "t": 18928.5525,
      "d": 372.0234375,
      "v": 83
    },
    {
      "midi": 90,
      "hit": false,
      "t": 18928.5525,
      "d": 372.0234375,
      "v": 87
    },
    {
      "midi": 66,
      "hit": false,
      "t": 18928.5525,
      "d": 401.7853124999965,
      "v": 111
    },
    {
      "midi": 62,
      "hit": false,
      "t": 19285.695,
      "d": 379.4639062499991,
      "v": 103
    },
    {
      "midi": 83,
      "hit": false,
      "t": 19285.695000000003,
      "d": 364.58296874999724,
      "v": 104
    },
    {
      "midi": 95,
      "hit": false,
      "t": 19285.695000000003,
      "d": 364.58296874999724,
      "v": 108
    },
    {
      "midi": 59,
      "hit": false,
      "t": 19642.837499999998,
      "d": 409.2257812499993,
      "v": 97
    },
    {
      "midi": 82,
      "hit": false,
      "t": 19650.27796875,
      "d": 334.8210937500007,
      "v": 108
    },
    {
      "midi": 94,
      "hit": false,
      "t": 19650.27796875,
      "d": 334.8210937500007,
      "v": 112
    },
    {
      "midi": 54,
      "hit": false,
      "t": 20007.42046875,
      "d": 751.4873437499991,
      "v": 118
    },
    {
      "midi": 85,
      "hit": false,
      "t": 20007.420468750002,
      "d": 907.737187499999,
      "v": 119
    },
    {
      "midi": 97,
      "hit": false,
      "t": 20007.420468750002,
      "d": 907.737187499999,
      "v": 123
    },
    {
      "midi": 58,
      "hit": false,
      "t": 20357.122499999998,
      "d": 424.10671875000116,
      "v": 102
    },
    {
      "midi": 61,
      "hit": false,
      "t": 20714.265,
      "d": 372.02343749999636,
      "v": 114
    },
    {
      "midi": 66,
      "hit": false,
      "t": 21071.407499999998,
      "d": 394.3448437499974,
      "v": 116
    },
    {
      "midi": 82,
      "hit": false,
      "t": 21071.4075,
      "d": 342.26156249999985,
      "v": 117
    },
    {
      "midi": 94,
      "hit": false,
      "t": 21071.4075,
      "d": 342.26156249999985,
      "v": 121
    },
    {
      "midi": 70,
      "hit": false,
      "t": 21428.549999999996,
      "d": 409.2257812499993,
      "v": 112
    },
    {
      "midi": 80,
      "hit": false,
      "t": 21428.55,
      "d": 327.3806250000016,
      "v": 100
    },
    {
      "midi": 92,
      "hit": false,
      "t": 21428.55,
      "d": 327.3806250000016,
      "v": 104
    },
    {
      "midi": 66,
      "hit": false,
      "t": 21785.692499999994,
      "d": 379.46390625000276,
      "v": 108
    },
    {
      "midi": 78,
      "hit": false,
      "t": 21785.6925,
      "d": 372.0234375,
      "v": 100
    },
    {
      "midi": 90,
      "hit": false,
      "t": 21785.6925,
      "d": 372.0234375,
      "v": 104
    },
    {
      "midi": 61,
      "hit": false,
      "t": 22142.834999999995,
      "d": 357.14250000000175,
      "v": 108
    },
    {
      "midi": 77,
      "hit": false,
      "t": 22142.835000000003,
      "d": 364.58296874999724,
      "v": 97
    },
    {
      "midi": 89,
      "hit": false,
      "t": 22142.835000000003,
      "d": 364.58296874999724,
      "v": 101
    },
    {
      "midi": 58,
      "hit": false,
      "t": 22499.977499999997,
      "d": 431.5471875000003,
      "v": 108
    },
    {
      "midi": 78,
      "hit": false,
      "t": 22499.9775,
      "d": 223.21406249999927,
      "v": 100
    },
    {
      "midi": 90,
      "hit": false,
      "t": 22499.9775,
      "d": 223.21406249999927,
      "v": 104
    },
    {
      "midi": 54,
      "hit": false,
      "t": 22864.560468749998,
      "d": 1495.5342187499991,
      "v": 116
    },
    {
      "midi": 85,
      "hit": false,
      "t": 22864.56046875,
      "d": 1778.2720312499987,
      "v": 117
    },
    {
      "midi": 97,
      "hit": false,
      "t": 22864.56046875,
      "d": 1778.2720312499987,
      "v": 121
    },
    {
      "midi": 58,
      "hit": false,
      "t": 23214.262499999997,
      "d": 401.78531250000015,
      "v": 108
    },
    {
      "midi": 61,
      "hit": false,
      "t": 23571.405,
      "d": 386.90437499999825,
      "v": 113
    },
    {
      "midi": 66,
      "hit": false,
      "t": 23928.547499999997,
      "d": 386.9043750000019,
      "v": 113
    },
    {
      "midi": 70,
      "hit": false,
      "t": 24285.69,
      "d": 401.7853124999965,
      "v": 113
    },
    {
      "midi": 66,
      "hit": false,
      "t": 24642.832499999997,
      "d": 372.02343749999636,
      "v": 106
    },
    {
      "midi": 61,
      "hit": false,
      "t": 24999.974999999995,
      "d": 364.58296874999724,
      "v": 107
    },
    {
      "midi": 78,
      "hit": false,
      "t": 24999.975000000002,
      "d": 520.8328125000007,
      "v": 100
    },
    {
      "midi": 90,
      "hit": false,
      "t": 24999.975000000002,
      "d": 520.8328125000007,
      "v": 104
    },
    {
      "midi": 58,
      "hit": false,
      "t": 25357.117499999993,
      "d": 372.0234375,
      "v": 103
    },
    {
      "midi": 54,
      "hit": false,
      "t": 25721.700468749994,
      "d": 1473.2128124999945,
      "v": 106
    },
    {
      "midi": 80,
      "hit": false,
      "t": 25721.70046875,
      "d": 1919.6409375000003,
      "v": 100
    },
    {
      "midi": 92,
      "hit": false,
      "t": 25721.70046875,
      "d": 1919.6409375000003,
      "v": 104
    },
    {
      "midi": 59,
      "hit": false,
      "t": 26071.402499999993,
      "d": 424.10671875000116,
      "v": 101
    },
    {
      "midi": 63,
      "hit": false,
      "t": 26428.544999999995,
      "d": 424.1067187499975,
      "v": 113
    },
    {
      "midi": 66,
      "hit": false,
      "t": 26785.687499999993,
      "d": 372.02343749999636,
      "v": 118
    },
    {
      "midi": 71,
      "hit": false,
      "t": 27142.82999999999,
      "d": 379.4639062499991,
      "v": 104
    },
    {
      "midi": 66,
      "hit": false,
      "t": 27499.97249999999,
      "d": 394.344843750001,
      "v": 110
    },
    {
      "midi": 63,
      "hit": false,
      "t": 27857.11499999999,
      "d": 357.1424999999981,
      "v": 110
    },
    {
      "midi": 78,
      "hit": false,
      "t": 27857.115,
      "d": 624.9993749999994,
      "v": 117
    },
    {
      "midi": 90,
      "hit": false,
      "t": 27857.115,
      "d": 624.9993749999994,
      "v": 121
    },
    {
      "midi": 59,
      "hit": false,
      "t": 28214.25749999999,
      "d": 349.702031249999,
      "v": 103
    },
    {
      "midi": 61,
      "hit": false,
      "t": 28578.840468749986,
      "d": 1666.6650000000009,
      "v": 106
    },
    {
      "midi": 56,
      "hit": false,
      "t": 28578.840468749986,
      "d": 1696.426875000001,
      "v": 111
    },
    {
      "midi": 65,
      "hit": false,
      "t": 28578.840468749986,
      "d": 1696.426875000001,
      "v": 105
    },
    {
      "midi": 77,
      "hit": false,
      "t": 28578.84046875,
      "d": 1428.5699999999997,
      "v": 104
    },
    {
      "midi": 89,
      "hit": false,
      "t": 28578.84046875,
      "d": 1428.5699999999997,
      "v": 108
    },
    {
      "midi": 54,
      "hit": false,
      "t": 31428.539999999986,
      "d": 342.26156249999985,
      "v": 123
    },
    {
      "midi": 58,
      "hit": false,
      "t": 31785.682499999984,
      "d": 2150.2954687499914,
      "v": 112
    },
    {
      "midi": 61,
      "hit": false,
      "t": 32142.824999999986,
      "d": 736.6064062499972,
      "v": 123
    },
    {
      "midi": 66,
      "hit": false,
      "t": 32507.407968749987,
      "d": 215.77359375000015,
      "v": 111
    },
    {
      "midi": 66,
      "hit": false,
      "t": 32857.109999999986,
      "d": 505.95187499999156,
      "v": 111
    },
    {
      "midi": 70,
      "hit": false,
      "t": 32857.109999999986,
      "d": 1577.3793749999968,
      "v": 108
    },
    {
      "midi": 61,
      "hit": false,
      "t": 33214.25249999998,
      "d": 476.18999999999505,
      "v": 110
    },
    {
      "midi": 66,
      "hit": false,
      "t": 33571.394999999975,
      "d": 848.2134375000096,
      "v": 107
    },
    {
      "midi": 61,
      "hit": false,
      "t": 33928.53749999998,
      "d": 453.86859375000495,
      "v": 100
    },
    {
      "midi": 54,
      "hit": false,
      "t": 34285.67999999998,
      "d": 342.2615625000035,
      "v": 95
    },
    {
      "midi": 58,
      "hit": false,
      "t": 34642.82249999998,
      "d": 1168.153593749994,
      "v": 118
    },
    {
      "midi": 61,
      "hit": false,
      "t": 34999.96499999998,
      "d": 431.5471875000003,
      "v": 127
    },
    {
      "midi": 66,
      "hit": false,
      "t": 35357.107499999984,
      "d": 275.2973437499968,
      "v": 106
    },
    {
      "midi": 66,
      "hit": false,
      "t": 35721.69046874998,
      "d": 386.90437499999825,
      "v": 111
    },
    {
      "midi": 70,
      "hit": false,
      "t": 35721.69046874998,
      "d": 386.90437499999825,
      "v": 108
    },
    {
      "midi": 61,
      "hit": false,
      "t": 36071.39249999997,
      "d": 409.2257812500029,
      "v": 118
    },
    {
      "midi": 66,
      "hit": false,
      "t": 36428.534999999974,
      "d": 394.34484375000466,
      "v": 103
    },
    {
      "midi": 58,
      "hit": false,
      "t": 36428.534999999974,
      "d": 431.54718750000757,
      "v": 98
    },
    {
      "midi": 61,
      "hit": false,
      "t": 36785.677499999976,
      "d": 327.38062500000524,
      "v": 97
    },
    {
      "midi": 56,
      "hit": false,
      "t": 37150.260468749984,
      "d": 2693.449687499997,
      "v": 118
    },
    {
      "midi": 59,
      "hit": false,
      "t": 37857.10499999998,
      "d": 431.5471875000003,
      "v": 112
    },
    {
      "midi": 63,
      "hit": false,
      "t": 38221.68796874998,
      "d": 461.3090625000041,
      "v": 110
    },
    {
      "midi": 68,
      "hit": false,
      "t": 38571.389999999985,
      "d": 736.6064062500009,
      "v": 103
    },
    {
      "midi": 59,
      "hit": false,
      "t": 38928.53249999999,
      "d": 587.7970312499965,
      "v": 97
    },
    {
      "midi": 63,
      "hit": false,
      "t": 39285.67499999999,
      "d": 372.0234374999927,
      "v": 101
    },
    {
      "midi": 68,
      "hit": false,
      "t": 39642.81749999998,
      "d": 223.21406249999563,
      "v": 99
    },
    {
      "midi": 61,
      "hit": false,
      "t": 39999.95999999998,
      "d": 877.9753124999988,
      "v": 114
    },
    {
      "midi": 70,
      "hit": false,
      "t": 39999.95999999998,
      "d": 967.2609374999956,
      "v": 105
    },
    {
      "midi": 56,
      "hit": false,
      "t": 39999.95999999998,
      "d": 3772.3176562500084,
      "v": 113
    },
    {
      "midi": 71,
      "hit": false,
      "t": 41071.387499999975,
      "d": 178.57125000000087,
      "v": 107
    },
    {
      "midi": 63,
      "hit": false,
      "t": 41071.387499999975,
      "d": 223.2140625000029,
      "v": 116
    },
    {
      "midi": 59,
      "hit": false,
      "t": 41435.970468749976,
      "d": 446.4281250000058,
      "v": 115
    },
    {
      "midi": 68,
      "hit": false,
      "t": 41435.970468749976,
      "d": 1168.1535937500084,
      "v": 102
    },
    {
      "midi": 63,
      "hit": false,
      "t": 41785.67249999998,
      "d": 476.1900000000023,
      "v": 101
    },
    {
      "midi": 59,
      "hit": false,
      "t": 42142.81499999998,
      "d": 416.66625000000204,
      "v": 103
    },
    {
      "midi": 63,
      "hit": false,
      "t": 42499.95749999998,
      "d": 156.2498437500035,
      "v": 95
    },
    {
      "midi": 71,
      "hit": false,
      "t": 43214.242499999986,
      "d": 1502.9746874999983,
      "v": 109
    },
    {
      "midi": 66,
      "hit": false,
      "t": 43571.38499999999,
      "d": 863.0943750000006,
      "v": 110
    },
    {
      "midi": 63,
      "hit": false,
      "t": 43935.96796874999,
      "d": 424.10671875000116,
      "v": 107
    },
    {
      "midi": 61,
      "hit": false,
      "t": 44293.11046874999,
      "d": 1123.5107812499991,
      "v": 104
    },
    {
      "midi": 63,
      "hit": false,
      "t": 44642.812499999985,
      "d": 796.1301562500012,
      "v": 104
    },
    {
      "midi": 66,
      "hit": false,
      "t": 44999.95499999999,
      "d": 1078.867968749997,
      "v": 99
    },
    {
      "midi": 71,
      "hit": false,
      "t": 45357.09749999999,
      "d": 386.90437499999825,
      "v": 99
    },
    {
      "midi": 73,
      "hit": false,
      "t": 46071.382499999985,
      "d": 1413.6890625000015,
      "v": 111
    },
    {
      "midi": 68,
      "hit": false,
      "t": 46428.52499999999,
      "d": 781.2492187500029,
      "v": 110
    },
    {
      "midi": 65,
      "hit": false,
      "t": 46785.66749999999,
      "d": 409.2257812500029,
      "v": 106
    },
    {
      "midi": 61,
      "hit": false,
      "t": 47150.25046874999,
      "d": 1383.9271874999977,
      "v": 113
    },
    {
      "midi": 65,
      "hit": false,
      "t": 47499.952499999985,
      "d": 409.2257812500029,
      "v": 100
    },
    {
      "midi": 68,
      "hit": false,
      "t": 47857.09499999999,
      "d": 379.4639062499991,
      "v": 107
    },
    {
      "midi": 65,
      "hit": false,
      "t": 48214.23749999999,
      "d": 379.4639062499991,
      "v": 94
    },
    {
      "midi": 70,
      "hit": false,
      "t": 48571.37999999999,
      "d": 1622.0221874999988,
      "v": 97
    },
    {
      "midi": 73,
      "hit": false,
      "t": 48571.37999999999,
      "d": 1636.903124999997,
      "v": 100
    },
    {
      "midi": 78,
      "hit": false,
      "t": 48571.37999999999,
      "d": 1651.7840624999953,
      "v": 94
    },
    {
      "midi": 73,
      "hit": false,
      "t": 50357.092499999984,
      "d": 409.2257812500029,
      "v": 98
    },
    {
      "midi": 77,
      "hit": false,
      "t": 50357.092499999984,
      "d": 409.2257812500029,
      "v": 96
    },
    {
      "midi": 68,
      "hit": false,
      "t": 50357.092499999984,
      "d": 498.5114062499997,
      "v": 96
    },
    {
      "midi": 73,
      "hit": false,
      "t": 50357.0925,
      "d": 327.38062499999796,
      "v": 76
    },
    {
      "midi": 77,
      "hit": false,
      "t": 50357.0925,
      "d": 327.38062499999796,
      "v": 77
    },
    {
      "midi": 68,
      "hit": false,
      "t": 50357.0925,
      "d": 379.4639062499991,
      "v": 87
    },
    {
      "midi": 71,
      "hit": false,
      "t": 51071.37749999998,
      "d": 208.33312499999738,
      "v": 98
    },
    {
      "midi": 66,
      "hit": false,
      "t": 51071.37749999998,
      "d": 245.5354687500003,
      "v": 97
    },
    {
      "midi": 75,
      "hit": false,
      "t": 51071.37749999998,
      "d": 290.1782812500023,
      "v": 89
    },
    {
      "midi": 71,
      "hit": false,
      "t": 51071.377499999995,
      "d": 171.13078125000175,
      "v": 82
    },
    {
      "midi": 66,
      "hit": false,
      "t": 51071.377499999995,
      "d": 193.45218749999913,
      "v": 87
    },
    {
      "midi": 75,
      "hit": false,
      "t": 51071.377499999995,
      "d": 208.33312499999738,
      "v": 72
    },
    {
      "midi": 66,
      "hit": false,
      "t": 51428.51999999998,
      "d": 1927.0814062499994,
      "v": 95
    },
    {
      "midi": 70,
      "hit": false,
      "t": 51428.51999999998,
      "d": 1949.4028124999968,
      "v": 96
    },
    {
      "midi": 73,
      "hit": false,
      "t": 51428.51999999998,
      "d": 1949.4028124999968,
      "v": 93
    },
    {
      "midi": 73,
      "hit": false,
      "t": 51435.960468749996,
      "d": 1421.1295312500006,
      "v": 87
    },
    {
      "midi": 70,
      "hit": false,
      "t": 51435.960468749996,
      "d": 1436.0104687499988,
      "v": 95
    },
    {
      "midi": 66,
      "hit": false,
      "t": 51435.960468749996,
      "d": 1465.7723437499953,
      "v": 91
    },
    {
      "midi": 54,
      "hit": false,
      "t": 54293.10046874998,
      "d": 2194.9382812500044,
      "v": 111
    },
    {
      "midi": 61,
      "hit": false,
      "t": 54642.80249999998,
      "d": 1093.7489062500026,
      "v": 113
    },
    {
      "midi": 66,
      "hit": false,
      "t": 54999.944999999985,
      "d": 342.2615625000035,
      "v": 108
    },
    {
      "midi": 73,
      "hit": false,
      "t": 55364.527968749986,
      "d": 379.4639062499991,
      "v": 114
    },
    {
      "midi": 70,
      "hit": false,
      "t": 55714.22999999999,
      "d": 758.9278124999983,
      "v": 107
    },
    {
      "midi": 61,
      "hit": false,
      "t": 56071.37249999998,
      "d": 736.6064062500009,
      "v": 110
    },
    {
      "midi": 66,
      "hit": false,
      "t": 56428.514999999985,
      "d": 468.7495312499959,
      "v": 120
    },
    {
      "midi": 70,
      "hit": false,
      "t": 56785.65749999999,
      "d": 1093.7489062499953,
      "v": 106
    },
    {
      "midi": 54,
      "hit": false,
      "t": 57142.79999999998,
      "d": 2358.628593750007,
      "v": 110
    },
    {
      "midi": 61,
      "hit": false,
      "t": 57499.94249999998,
      "d": 476.1900000000023,
      "v": 104
    },
    {
      "midi": 66,
      "hit": false,
      "t": 57857.084999999985,
      "d": 372.0234375,
      "v": 107
    },
    {
      "midi": 70,
      "hit": false,
      "t": 58221.667968749985,
      "d": 1488.09375,
      "v": 102
    },
    {
      "midi": 61,
      "hit": false,
      "t": 58578.81046874999,
      "d": 409.2257812500029,
      "v": 110
    },
    {
      "midi": 66,
      "hit": false,
      "t": 58928.51249999999,
      "d": 372.0234375,
      "v": 107
    },
    {
      "midi": 61,
      "hit": false,
      "t": 59285.65499999999,
      "d": 401.7853124999965,
      "v": 105
    },
    {
      "midi": 66,
      "hit": false,
      "t": 59642.797499999986,
      "d": 349.7020312500026,
      "v": 102
    },
    {
      "midi": 68,
      "hit": false,
      "t": 60007.38046874999,
      "d": 714.2850000000035,
      "v": 110
    },
    {
      "midi": 56,
      "hit": false,
      "t": 60007.38046874999,
      "d": 2261.902500000004,
      "v": 102
    },
    {
      "midi": 59,
      "hit": false,
      "t": 60357.08249999999,
      "d": 1800.593437500007,
      "v": 94
    },
    {
      "midi": 63,
      "hit": false,
      "t": 60714.22499999999,
      "d": 1436.010468750006,
      "v": 104
    },
    {
      "midi": 68,
      "hit": false,
      "t": 61071.36749999999,
      "d": 476.1900000000023,
      "v": 97
    },
    {
      "midi": 75,
      "hit": false,
      "t": 61435.950468749994,
      "d": 758.9278124999983,
      "v": 104
    },
    {
      "midi": 71,
      "hit": false,
      "t": 61785.6525,
      "d": 386.90437499999825,
      "v": 96
    },
    {
      "midi": 68,
      "hit": false,
      "t": 62142.795,
      "d": 327.3806249999907,
      "v": 97
    },
    {
      "midi": 63,
      "hit": false,
      "t": 62499.937499999985,
      "d": 1629.462656249998,
      "v": 112
    },
    {
      "midi": 83,
      "hit": false,
      "t": 62857.07999999999,
      "d": 394.3448437499974,
      "v": 95
    },
    {
      "midi": 83,
      "hit": false,
      "t": 62857.07999999999,
      "d": 401.7853125000038,
      "v": 106
    },
    {
      "midi": 56,
      "hit": false,
      "t": 62857.07999999999,
      "d": 1123.5107812499991,
      "v": 112
    },
    {
      "midi": 82,
      "hit": false,
      "t": 63214.22249999999,
      "d": 386.90437499999825,
      "v": 114
    },
    {
      "midi": 82,
      "hit": false,
      "t": 63221.66296874999,
      "d": 342.2615624999962,
      "v": 95
    },
    {
      "midi": 80,
      "hit": false,
      "t": 63571.36499999999,
      "d": 394.3448437499974,
      "v": 114
    },
    {
      "midi": 80,
      "hit": false,
      "t": 63578.80546874998,
      "d": 349.7020312500026,
      "v": 87
    },
    {
      "midi": 78,
      "hit": false,
      "t": 63928.507499999985,
      "d": 349.7020312500026,
      "v": 80
    },
    {
      "midi": 78,
      "hit": false,
      "t": 63928.507499999985,
      "d": 401.7853125000038,
      "v": 108
    },
    {
      "midi": 56,
      "hit": false,
      "t": 64107.078749999986,
      "d": 1041.6656249999942,
      "v": 107
    },
    {
      "midi": 80,
      "hit": false,
      "t": 64285.64999999999,
      "d": 386.90437499999825,
      "v": 107
    },
    {
      "midi": 63,
      "hit": false,
      "t": 64285.64999999999,
      "d": 1153.2726562499956,
      "v": 105
    },
    {
      "midi": 80,
      "hit": false,
      "t": 64293.090468749986,
      "d": 342.2615625000035,
      "v": 83
    },
    {
      "midi": 78,
      "hit": false,
      "t": 64642.79249999999,
      "d": 349.70203124999534,
      "v": 107
    },
    {
      "midi": 78,
      "hit": false,
      "t": 64650.23296874999,
      "d": 364.5829687500009,
      "v": 76
    },
    {
      "midi": 77,
      "hit": false,
      "t": 64999.93499999998,
      "d": 394.3448437499974,
      "v": 105
    },
    {
      "midi": 77,
      "hit": false,
      "t": 65007.37546874999,
      "d": 334.8210937499971,
      "v": 95
    },
    {
      "midi": 75,
      "hit": false,
      "t": 65357.07749999998,
      "d": 1517.8556250000038,
      "v": 107
    },
    {
      "midi": 75,
      "hit": false,
      "t": 65357.077499999985,
      "d": 163.69031250000262,
      "v": 83
    },
    {
      "midi": 71,
      "hit": false,
      "t": 65721.66046874998,
      "d": 781.2492187500029,
      "v": 105
    },
    {
      "midi": 59,
      "hit": false,
      "t": 65721.66046874998,
      "d": 2574.402187500018,
      "v": 101
    },
    {
      "midi": 71,
      "hit": false,
      "t": 65721.66046875,
      "d": 2135.414531250004,
      "v": 100
    },
    {
      "midi": 63,
      "hit": false,
      "t": 66071.36249999997,
      "d": 1450.8914062500116,
      "v": 100
    },
    {
      "midi": 66,
      "hit": false,
      "t": 66428.50499999998,
      "d": 1123.5107812500064,
      "v": 114
    },
    {
      "midi": 71,
      "hit": false,
      "t": 66785.64749999998,
      "d": 617.5589062500076,
      "v": 98
    },
    {
      "midi": 71,
      "hit": false,
      "t": 67499.93249999998,
      "d": 639.8803125000122,
      "v": 104
    },
    {
      "midi": 66,
      "hit": false,
      "t": 67864.51546874999,
      "d": 468.7495312500105,
      "v": 113
    },
    {
      "midi": 63,
      "hit": false,
      "t": 68214.2175,
      "d": 699.4040625000052,
      "v": 102
    },
    {
      "midi": 61,
      "hit": false,
      "t": 68928.5025,
      "d": 796.1301562499866,
      "v": 100
    },
    {
      "midi": 65,
      "hit": false,
      "t": 69285.645,
      "d": 424.1067187499866,
      "v": 108
    },
    {
      "midi": 63,
      "hit": false,
      "t": 69650.22796875,
      "d": 744.046875,
      "v": 101
    },
    {
      "midi": 68,
      "hit": false,
      "t": 69650.22796875,
      "d": 1465.7723437499953,
      "v": 107
    },
    {
      "midi": 61,
      "hit": false,
      "t": 70357.0725,
      "d": 513.3923437500052,
      "v": 111
    },
    {
      "midi": 61,
      "hit": false,
      "t": 71071.3575,
      "d": 372.0234375,
      "v": 98
    },
    {
      "midi": 70,
      "hit": false,
      "t": 71428.5,
      "d": 1145.8321874999965,
      "v": 111
    },
    {
      "midi": 54,
      "hit": false,
      "t": 71428.5,
      "d": 2537.1998437500006,
      "v": 107
    },
    {
      "midi": 66,
      "hit": false,
      "t": 71785.6425,
      "d": 744.046875,
      "v": 103
    },
    {
      "midi": 58,
      "hit": false,
      "t": 72142.785,
      "d": 1436.0104687499988,
      "v": 90
    },
    {
      "midi": 61,
      "hit": false,
      "t": 72507.36796875,
      "d": 1123.5107812500064,
      "v": 114
    },
    {
      "midi": 73,
      "hit": false,
      "t": 72857.06999999999,
      "d": 446.4281250000058,
      "v": 100
    },
    {
      "midi": 70,
      "hit": false,
      "t": 73214.2125,
      "d": 1063.9870312500134,
      "v": 103
    },
    {
      "midi": 66,
      "hit": false,
      "t": 73571.355,
      "d": 736.6064062500081,
      "v": 106
    },
    {
      "midi": 61,
      "hit": false,
      "t": 73928.4975,
      "d": 424.10671875000116,
      "v": 107
    },
    {
      "midi": 54,
      "hit": false,
      "t": 74293.08046875,
      "d": 2566.9617187500407,
      "v": 106
    },
    {
      "midi": 61,
      "hit": false,
      "t": 74642.7825,
      "d": 595.2375000000029,
      "v": 104
    },
    {
      "midi": 70,
      "hit": false,
      "t": 74642.7825,
      "d": 639.8803125000122,
      "v": 101
    },
    {
      "midi": 66,
      "hit": false,
      "t": 74650.22296875001,
      "d": 624.9993749999994,
      "v": 102
    },
    {
      "midi": 61,
      "hit": false,
      "t": 75357.06750000002,
      "d": 223.2140625000029,
      "v": 99
    },
    {
      "midi": 66,
      "hit": false,
      "t": 75357.06750000002,
      "d": 238.09500000000116,
      "v": 101
    },
    {
      "midi": 70,
      "hit": false,
      "t": 75357.06750000002,
      "d": 238.09500000000116,
      "v": 85
    },
    {
      "midi": 61,
      "hit": false,
      "t": 75721.65046875003,
      "d": 208.33312500000466,
      "v": 123
    },
    {
      "midi": 66,
      "hit": false,
      "t": 75721.65046875003,
      "d": 223.2140625000029,
      "v": 118
    },
    {
      "midi": 70,
      "hit": false,
      "t": 75721.65046875003,
      "d": 223.2140625000029,
      "v": 111
    },
    {
      "midi": 61,
      "hit": false,
      "t": 76071.35250000004,
      "d": 200.89265624999825,
      "v": 127
    },
    {
      "midi": 70,
      "hit": false,
      "t": 76071.35250000004,
      "d": 200.89265624999825,
      "v": 114
    },
    {
      "midi": 66,
      "hit": false,
      "t": 76071.35250000004,
      "d": 215.7735937499965,
      "v": 123
    },
    {
      "midi": 70,
      "hit": false,
      "t": 76428.49500000004,
      "d": 230.6545312500093,
      "v": 118
    },
    {
      "midi": 61,
      "hit": false,
      "t": 76435.93546875005,
      "d": 223.2140625000029,
      "v": 127
    },
    {
      "midi": 66,
      "hit": false,
      "t": 76435.93546875005,
      "d": 223.2140625000029,
      "v": 127
    },
    {
      "midi": 61,
      "hit": false,
      "t": 76793.07796875005,
      "d": 357.14250000000175,
      "v": 127
    },
    {
      "midi": 66,
      "hit": false,
      "t": 76793.07796875005,
      "d": 357.14250000000175,
      "v": 127
    },
    {
      "midi": 70,
      "hit": false,
      "t": 76793.07796875005,
      "d": 379.4639062500064,
      "v": 127
    },
    {
      "midi": 63,
      "hit": false,
      "t": 77142.78000000004,
      "d": 915.1776562500163,
      "v": 113
    },
    {
      "midi": 68,
      "hit": false,
      "t": 77142.78000000004,
      "d": 915.1776562500163,
      "v": 112
    },
    {
      "midi": 71,
      "hit": false,
      "t": 77142.78000000004,
      "d": 915.1776562500163,
      "v": 115
    },
    {
      "midi": 61,
      "hit": false,
      "t": 78221.64796875005,
      "d": 104.16656250000233,
      "v": 102
    },
    {
      "midi": 66,
      "hit": false,
      "t": 78221.64796875005,
      "d": 104.16656250000233,
      "v": 98
    },
    {
      "midi": 70,
      "hit": false,
      "t": 78221.64796875005,
      "d": 148.8093749999971,
      "v": 100
    },
    {
      "midi": 61,
      "hit": false,
      "t": 78578.79046875006,
      "d": 959.8204687499965,
      "v": 110
    },
    {
      "midi": 66,
      "hit": false,
      "t": 78578.79046875006,
      "d": 1175.594062499993,
      "v": 106
    },
    {
      "midi": 70,
      "hit": false,
      "t": 78578.79046875006,
      "d": 3214.2824999999866,
      "v": 104
    },
    {
      "midi": 54,
      "hit": false,
      "t": 79642.77750000005,
      "d": 1220.2368749999878,
      "v": 101
    },
    {
      "midi": 61,
      "hit": false,
      "t": 80007.36046875005,
      "d": 1116.0703124999854,
      "v": 123
    },
    {
      "midi": 66,
      "hit": false,
      "t": 80357.06250000004,
      "d": 900.2967187499889,
      "v": 108
    },
    {
      "midi": 54,
      "hit": false,
      "t": 81078.78796875004,
      "d": 1428.5699999999924,
      "v": 99
    },
    {
      "midi": 61,
      "hit": false,
      "t": 81428.49000000003,
      "d": 699.4040625000052,
      "v": 104
    },
    {
      "midi": 73,
      "hit": false,
      "t": 81785.63250000004,
      "d": 372.0234375,
      "v": 107
    },
    {
      "midi": 70,
      "hit": false,
      "t": 82142.77500000004,
      "d": 394.3448437499901,
      "v": 105
    },
    {
      "midi": 66,
      "hit": false,
      "t": 82321.34625000003,
      "d": 580.3565625000047,
      "v": 105
    },
    {
      "midi": 61,
      "hit": false,
      "t": 82499.91750000003,
      "d": 238.09500000000116,
      "v": 112
    },
    {
      "midi": 56,
      "hit": false,
      "t": 82864.50046875003,
      "d": 1406.2485937499878,
      "v": 111
    },
    {
      "midi": 68,
      "hit": false,
      "t": 82864.50046875003,
      "d": 1912.2004687499866,
      "v": 106
    },
    {
      "midi": 63,
      "hit": false,
      "t": 83571.34500000003,
      "d": 1145.8321874999965,
      "v": 99
    },
    {
      "midi": 59,
      "hit": false,
      "t": 83935.92796875002,
      "d": 624.9993749999994,
      "v": 94
    },
    {
      "midi": 56,
      "hit": false,
      "t": 84642.77250000002,
      "d": 1614.5817187499924,
      "v": 100
    },
    {
      "midi": 63,
      "hit": false,
      "t": 84999.91500000002,
      "d": 1465.7723437499953,
      "v": 97
    },
    {
      "midi": 70,
      "hit": false,
      "t": 85357.05750000002,
      "d": 148.8093749999971,
      "v": 111
    },
    {
      "midi": 75,
      "hit": false,
      "t": 85357.05750000002,
      "d": 1049.106093749986,
      "v": 110
    },
    {
      "midi": 71,
      "hit": false,
      "t": 85535.62875000002,
      "d": 1294.6415624999936,
      "v": 100
    },
    {
      "midi": 68,
      "hit": false,
      "t": 85714.20000000001,
      "d": 1123.5107812500064,
      "v": 107
    },
    {
      "midi": 56,
      "hit": false,
      "t": 86428.48500000002,
      "d": 1532.7365625000093,
      "v": 111
    },
    {
      "midi": 63,
      "hit": false,
      "t": 86785.62750000002,
      "d": 751.4873437500064,
      "v": 101
    },
    {
      "midi": 71,
      "hit": false,
      "t": 87150.21046875003,
      "d": 1116.0703125,
      "v": 99
    },
    {
      "midi": 68,
      "hit": false,
      "t": 87499.91250000002,
      "d": 811.0110937499994,
      "v": 95
    },
    {
      "midi": 63,
      "hit": false,
      "t": 87857.05500000002,
      "d": 617.558906249993,
      "v": 100
    },
    {
      "midi": 56,
      "hit": false,
      "t": 88221.63796875003,
      "d": 379.46390624999185,
      "v": 101
    },
    {
      "midi": 59,
      "hit": false,
      "t": 88928.48250000003,
      "d": 1584.819843749996,
      "v": 103
    },
    {
      "midi": 63,
      "hit": false,
      "t": 89285.62500000003,
      "d": 729.1659374999872,
      "v": 111
    },
    {
      "midi": 71,
      "hit": false,
      "t": 89650.20796875002,
      "d": 1636.9031250000116,
      "v": 104
    },
    {
      "midi": 66,
      "hit": false,
      "t": 89999.91000000002,
      "d": 1108.6298437500081,
      "v": 107
    },
    {
      "midi": 63,
      "hit": false,
      "t": 90357.05250000002,
      "d": 513.3923437500052,
      "v": 103
    },
    {
      "midi": 59,
      "hit": false,
      "t": 90714.19500000002,
      "d": 751.487343750021,
      "v": 107
    },
    {
      "midi": 63,
      "hit": false,
      "t": 91078.77796875003,
      "d": 200.89265624999825,
      "v": 91
    },
    {
      "midi": 65,
      "hit": false,
      "t": 91428.48000000004,
      "d": 803.5706250000076,
      "v": 112
    },
    {
      "midi": 68,
      "hit": false,
      "t": 91428.48000000004,
      "d": 811.011093750014,
      "v": 99
    },
    {
      "midi": 61,
      "hit": false,
      "t": 91428.48000000004,
      "d": 1562.4984375000058,
      "v": 114
    },
    {
      "midi": 68,
      "hit": false,
      "t": 92857.05000000005,
      "d": 1116.0703125000146,
      "v": 96
    },
    {
      "midi": 65,
      "hit": false,
      "t": 93214.19250000005,
      "d": 721.7254687500099,
      "v": 94
    },
    {
      "midi": 61,
      "hit": false,
      "t": 93571.33500000005,
      "d": 401.78531250001106,
      "v": 108
    },
    {
      "midi": 56,
      "hit": false,
      "t": 93928.47750000005,
      "d": 133.9284375000134,
      "v": 90
    },
    {
      "midi": 54,
      "hit": false,
      "t": 94293.06046875006,
      "d": 610.1184375000012,
      "v": 101
    },
    {
      "midi": 58,
      "hit": false,
      "t": 94293.06046875006,
      "d": 691.9635937499988,
      "v": 101
    },
    {
      "midi": 61,
      "hit": false,
      "t": 94293.06046875006,
      "d": 751.4873437499919,
      "v": 105
    },
    {
      "midi": 66,
      "hit": false,
      "t": 94293.06046875006,
      "d": 1116.0703124999854,
      "v": 103
    },
    {
      "midi": 54,
      "hit": false,
      "t": 95364.48796875005,
      "d": 1019.3442187500041,
      "v": 103
    },
    {
      "midi": 61,
      "hit": false,
      "t": 95535.61875000005,
      "d": 781.2492187500029,
      "v": 104
    },
    {
      "midi": 73,
      "hit": false,
      "t": 96078.77296875005,
      "d": 803.5706250000076,
      "v": 113
    },
    {
      "midi": 70,
      "hit": false,
      "t": 96249.90375000006,
      "d": 215.7735937499965,
      "v": 114
    },
    {
      "midi": 68,
      "hit": false,
      "t": 96428.47500000005,
      "d": 156.2498437500035,
      "v": 120
    },
    {
      "midi": 66,
      "hit": false,
      "t": 96607.04625000006,
      "d": 260.4164062500058,
      "v": 127
    },
    {
      "midi": 61,
      "hit": false,
      "t": 96793.05796875006,
      "d": 1078.867968749997,
      "v": 127
    },
    {
      "midi": 54,
      "hit": false,
      "t": 96964.18875000006,
      "d": 959.8204687499965,
      "v": 118
    },
    {
      "midi": 66,
      "hit": false,
      "t": 97150.20046875006,
      "d": 721.7254687499953,
      "v": 105
    },
    {
      "midi": 70,
      "hit": false,
      "t": 97150.20046875006,
      "d": 744.046875,
      "v": 111
    },
    {
      "midi": 54,
      "hit": false,
      "t": 100007.34046875006,
      "d": 4174.102968749998,
      "v": 110
    },
    {
      "midi": 61,
      "hit": false,
      "t": 100357.04250000005,
      "d": 2150.2954687500023,
      "v": 118
    },
    {
      "midi": 66,
      "hit": false,
      "t": 100714.18500000006,
      "d": 877.9753124999988,
      "v": 112
    },
    {
      "midi": 70,
      "hit": false,
      "t": 101071.32750000006,
      "d": 796.1301562500012,
      "v": 105
    },
    {
      "midi": 66,
      "hit": false,
      "t": 101785.61250000006,
      "d": 602.6779687499948,
      "v": 94
    },
    {
      "midi": 73,
      "hit": false,
      "t": 102142.75500000006,
      "d": 1391.3676562499895,
      "v": 108
    },
    {
      "midi": 66,
      "hit": false,
      "t": 102499.89750000005,
      "d": 818.4515625000058,
      "v": 101
    },
    {
      "midi": 61,
      "hit": false,
      "t": 102857.04000000005,
      "d": 744.046875,
      "v": 91
    },
    {
      "midi": 70,
      "hit": false,
      "t": 102857.04000000005,
      "d": 1808.0339062500134,
      "v": 99
    },
    {
      "midi": 66,
      "hit": false,
      "t": 103571.32500000006,
      "d": 1130.9512500000128,
      "v": 97
    },
    {
      "midi": 61,
      "hit": false,
      "t": 103928.46750000006,
      "d": 758.9278125000128,
      "v": 100
    },
    {
      "midi": 54,
      "hit": false,
      "t": 104642.75250000006,
      "d": 1056.546562500007,
      "v": 111
    },
    {
      "midi": 61,
      "hit": false,
      "t": 105007.33546875007,
      "d": 386.90437499999825,
      "v": 112
    },
    {
      "midi": 66,
      "hit": false,
      "t": 105357.03750000006,
      "d": 394.34484375000466,
      "v": 100
    },
    {
      "midi": 56,
      "hit": false,
      "t": 105721.62046875007,
      "d": 2552.0807812499843,
      "v": 118
    },
    {
      "midi": 63,
      "hit": false,
      "t": 106071.32250000007,
      "d": 424.10671875000116,
      "v": 99
    },
    {
      "midi": 68,
      "hit": false,
      "t": 106428.46500000007,
      "d": 1093.7489062499953,
      "v": 104
    },
    {
      "midi": 63,
      "hit": false,
      "t": 106793.04796875006,
      "d": 446.42812499999127,
      "v": 110
    },
    {
      "midi": 59,
      "hit": false,
      "t": 107142.75000000006,
      "d": 1450.891406249997,
      "v": 91
    },
    {
      "midi": 63,
      "hit": false,
      "t": 107499.89250000006,
      "d": 424.10671875000116,
      "v": 88
    },
    {
      "midi": 68,
      "hit": false,
      "t": 107857.03500000006,
      "d": 349.70203124999534,
      "v": 90
    },
    {
      "midi": 63,
      "hit": false,
      "t": 108214.17750000006,
      "d": 334.8210937499971,
      "v": 88
    },
    {
      "midi": 70,
      "hit": false,
      "t": 108578.76046875006,
      "d": 1034.2251562500023,
      "v": 112
    },
    {
      "midi": 61,
      "hit": false,
      "t": 108578.76046875006,
      "d": 1130.9512499999983,
      "v": 123
    },
    {
      "midi": 63,
      "hit": false,
      "t": 109650.18796875006,
      "d": 275.2973437499895,
      "v": 127
    },
    {
      "midi": 71,
      "hit": false,
      "t": 109650.18796875006,
      "d": 319.9401562499843,
      "v": 98
    },
    {
      "midi": 59,
      "hit": false,
      "t": 109999.89000000004,
      "d": 788.6896875000093,
      "v": 98
    },
    {
      "midi": 68,
      "hit": false,
      "t": 109999.89000000004,
      "d": 1063.9870312500134,
      "v": 111
    },
    {
      "midi": 63,
      "hit": false,
      "t": 110714.17500000005,
      "d": 766.3682812500192,
      "v": 104
    },
    {
      "midi": 59,
      "hit": false,
      "t": 111071.31750000006,
      "d": 1339.284375000003,
      "v": 98
    },
    {
      "midi": 66,
      "hit": false,
      "t": 111785.60250000007,
      "d": 22.321406250004657,
      "v": 107
    },
    {
      "midi": 63,
      "hit": false,
      "t": 112142.74500000007,
      "d": 1197.9154687499977,
      "v": 105
    },
    {
      "midi": 59,
      "hit": false,
      "t": 112507.32796875006,
      "d": 1212.796406249996,
      "v": 104
    },
    {
      "midi": 71,
      "hit": false,
      "t": 112864.47046875006,
      "d": 1577.3793749999895,
      "v": 103
    },
    {
      "midi": 63,
      "hit": false,
      "t": 113571.31500000006,
      "d": 706.8445312499971,
      "v": 89
    },
    {
      "midi": 59,
      "hit": false,
      "t": 113928.45750000006,
      "d": 178.5712499999936,
      "v": 102
    },
    {
      "midi": 61,
      "hit": false,
      "t": 114293.04046875006,
      "d": 498.51140624999243,
      "v": 112
    },
    {
      "midi": 65,
      "hit": false,
      "t": 114642.74250000005,
      "d": 1584.819843749996,
      "v": 112
    },
    {
      "midi": 61,
      "hit": false,
      "t": 115364.46796875005,
      "d": 1130.9512499999983,
      "v": 114
    },
    {
      "midi": 73,
      "hit": false,
      "t": 115714.17000000004,
      "d": 1354.1653125000012,
      "v": 110
    },
    {
      "midi": 65,
      "hit": false,
      "t": 116428.45500000005,
      "d": 409.2257812500029,
      "v": 94
    },
    {
      "midi": 61,
      "hit": false,
      "t": 116785.59750000005,
      "d": 416.66624999999476,
      "v": 99
    },
    {
      "midi": 66,
      "hit": false,
      "t": 117150.18046875004,
      "d": 729.1659375000017,
      "v": 108
    },
    {
      "midi": 70,
      "hit": false,
      "t": 117150.18046875004,
      "d": 1562.4984374999913,
      "v": 99
    },
    {
      "midi": 54,
      "hit": false,
      "t": 117150.18046875004,
      "d": 2566.9617187499825,
      "v": 98
    },
    {
      "midi": 61,
      "hit": false,
      "t": 117857.02500000004,
      "d": 438.9876562499994,
      "v": 113
    },
    {
      "midi": 61,
      "hit": false,
      "t": 118392.73875000003,
      "d": 1011.9037499999977,
      "v": 71
    },
    {
      "midi": 70,
      "hit": false,
      "t": 118928.45250000003,
      "d": 937.4990625000064,
      "v": 114
    },
    {
      "midi": 68,
      "hit": false,
      "t": 119285.59500000003,
      "d": 245.53546874999302,
      "v": 108
    },
    {
      "midi": 66,
      "hit": false,
      "t": 119464.16625000002,
      "d": 394.34484375000466,
      "v": 106
    },
    {
      "midi": 61,
      "hit": false,
      "t": 119642.73750000002,
      "d": 186.01171875001455,
      "v": 114
    },
    {
      "midi": 50,
      "hit": false,
      "t": 119821.30875000003,
      "d": 2388.3904687500035,
      "v": 106
    },
    {
      "midi": 57,
      "hit": false,
      "t": 119999.88000000003,
      "d": 2336.3071875000023,
      "v": 127
    },
    {
      "midi": 62,
      "hit": false,
      "t": 119999.88000000003,
      "d": 2433.0332812499983,
      "v": 119
    },
    {
      "midi": 66,
      "hit": false,
      "t": 119999.88000000003,
      "d": 2693.449687500004,
      "v": 120
    },
    {
      "midi": 67,
      "hit": false,
      "t": 122857.02000000003,
      "d": 1272.3201562500035,
      "v": 105
    },
    {
      "midi": 71,
      "hit": false,
      "t": 122857.02000000003,
      "d": 1391.367656250004,
      "v": 100
    },
    {
      "midi": 55,
      "hit": false,
      "t": 122857.02000000003,
      "d": 3943.4484375000466,
      "v": 105
    },
    {
      "midi": 62,
      "hit": false,
      "t": 123571.30500000004,
      "d": 1755.9506250000268,
      "v": 98
    },
    {
      "midi": 67,
      "hit": false,
      "t": 124642.73250000004,
      "d": 394.34484375000466,
      "v": 88
    },
    {
      "midi": 74,
      "hit": false,
      "t": 124999.87500000004,
      "d": 1822.9148437500407,
      "v": 106
    },
    {
      "midi": 69,
      "hit": false,
      "t": 125007.31546875005,
      "d": 178.57125000000815,
      "v": 112
    },
    {
      "midi": 71,
      "hit": false,
      "t": 125178.44625000005,
      "d": 186.01171875001455,
      "v": 103
    },
    {
      "midi": 69,
      "hit": false,
      "t": 125357.01750000006,
      "d": 364.58296875000815,
      "v": 114
    },
    {
      "midi": 62,
      "hit": false,
      "t": 125535.58875000007,
      "d": 1034.2251562500023,
      "v": 112
    },
    {
      "midi": 71,
      "hit": false,
      "t": 125721.60046875007,
      "d": 1116.0703125000146,
      "v": 107
    },
    {
      "midi": 67,
      "hit": false,
      "t": 126071.30250000006,
      "d": 982.1418750000157,
      "v": 101
    },
    {
      "midi": 62,
      "hit": false,
      "t": 126793.02796875007,
      "d": 424.10671875000116,
      "v": 97
    },
    {
      "midi": 71,
      "hit": false,
      "t": 127150.17046875008,
      "d": 751.4873437499919,
      "v": 89
    },
    {
      "midi": 55,
      "hit": false,
      "t": 127150.17046875008,
      "d": 944.9395312499983,
      "v": 105
    },
    {
      "midi": 62,
      "hit": false,
      "t": 127499.87250000007,
      "d": 900.2967187500035,
      "v": 101
    },
    {
      "midi": 67,
      "hit": false,
      "t": 127857.01500000007,
      "d": 550.5946875000081,
      "v": 99
    },
    {
      "midi": 71,
      "hit": false,
      "t": 128214.15750000007,
      "d": 431.54718750000757,
      "v": 93
    },
    {
      "midi": 57,
      "hit": false,
      "t": 128571.30000000008,
      "d": 5610.113437500026,
      "v": 100
    },
    {
      "midi": 60,
      "hit": false,
      "t": 128928.44250000008,
      "d": 1153.272656250003,
      "v": 94
    },
    {
      "midi": 64,
      "hit": false,
      "t": 129285.58500000008,
      "d": 691.9635937499988,
      "v": 108
    },
    {
      "midi": 60,
      "hit": false,
      "t": 130357.01250000008,
      "d": 788.6896874999948,
      "v": 88
    },
    {
      "midi": 64,
      "hit": false,
      "t": 130714.15500000009,
      "d": 342.2615625000035,
      "v": 92
    },
    {
      "midi": 83,
      "hit": false,
      "t": 131435.88046875,
      "d": 781.2492187499884,
      "v": 75
    },
    {
      "midi": 74,
      "hit": false,
      "t": 131435.88046875,
      "d": 796.1301562500012,
      "v": 84
    },
    {
      "midi": 62,
      "hit": false,
      "t": 131435.88046875008,
      "d": 870.534843750007,
      "v": 115
    },
    {
      "midi": 71,
      "hit": false,
      "t": 131435.88046875008,
      "d": 885.4157812500198,
      "v": 119
    },
    {
      "midi": 72,
      "hit": false,
      "t": 132507.30796874998,
      "d": 81.84515624999767,
      "v": 82
    },
    {
      "midi": 81,
      "hit": false,
      "t": 132507.30796874998,
      "d": 81.84515624999767,
      "v": 77
    },
    {
      "midi": 64,
      "hit": false,
      "t": 132507.3079687501,
      "d": 148.80937500001164,
      "v": 104
    },
    {
      "midi": 72,
      "hit": false,
      "t": 132507.3079687501,
      "d": 148.80937500001164,
      "v": 114
    },
    {
      "midi": 72,
      "hit": false,
      "t": 132864.45046874997,
      "d": 1428.570000000007,
      "v": 95
    },
    {
      "midi": 81,
      "hit": false,
      "t": 132864.45046874997,
      "d": 1428.570000000007,
      "v": 87
    },
    {
      "midi": 64,
      "hit": false,
      "t": 132864.45046875012,
      "d": 535.7137499999953,
      "v": 100
    },
    {
      "midi": 60,
      "hit": false,
      "t": 132864.45046875012,
      "d": 587.7970312499965,
      "v": 101
    },
    {
      "midi": 69,
      "hit": false,
      "t": 132864.45046875012,
      "d": 1294.641562499979,
      "v": 112
    },
    {
      "midi": 60,
      "hit": false,
      "t": 133571.2950000001,
      "d": 483.6304687499942,
      "v": 90
    },
    {
      "midi": 64,
      "hit": false,
      "t": 133928.4375000001,
      "d": 178.57125000000815,
      "v": 88
    },
    {
      "midi": 60,
      "hit": false,
      "t": 134293.0204687501,
      "d": 550.5946875000081,
      "v": 97
    },
    {
      "midi": 64,
      "hit": false,
      "t": 134293.0204687501,
      "d": 691.9635937499988,
      "v": 98
    },
    {
      "midi": 67,
      "hit": false,
      "t": 134293.0204687501,
      "d": 2470.235625000001,
      "v": 100
    },
    {
      "midi": 60,
      "hit": false,
      "t": 134999.8650000001,
      "d": 1607.141249999986,
      "v": 103
    },
    {
      "midi": 64,
      "hit": false,
      "t": 136071.2925000001,
      "d": 729.1659374999872,
      "v": 99
    },
    {
      "midi": 60,
      "hit": false,
      "t": 136793.0179687501,
      "d": 379.46390624999185,
      "v": 94
    },
    {
      "midi": 62,
      "hit": false,
      "t": 137150.16046875008,
      "d": 602.6779687500093,
      "v": 105
    },
    {
      "midi": 69,
      "hit": false,
      "t": 137150.16046875008,
      "d": 877.9753124999988,
      "v": 108
    },
    {
      "midi": 66,
      "hit": false,
      "t": 137150.16046875008,
      "d": 1123.5107812499919,
      "v": 108
    },
    {
      "midi": 62,
      "hit": false,
      "t": 137857.0050000001,
      "d": 1584.8198437499814,
      "v": 94
    },
    {
      "midi": 69,
      "hit": false,
      "t": 138214.14750000008,
      "d": 1428.570000000007,
      "v": 103
    },
    {
      "midi": 66,
      "hit": false,
      "t": 138928.43250000008,
      "d": 721.7254687499953,
      "v": 102
    },
    {
      "midi": 62,
      "hit": false,
      "t": 139650.15796875008,
      "d": 290.1782812500023,
      "v": 85
    },
    {
      "midi": 67,
      "hit": false,
      "t": 139999.86000000007,
      "d": 1577.3793750000186,
      "v": 103
    },
    {
      "midi": 71,
      "hit": false,
      "t": 139999.86000000007,
      "d": 1622.022187500028,
      "v": 99
    },
    {
      "midi": 55,
      "hit": false,
      "t": 139999.86000000007,
      "d": 2924.104218749999,
      "v": 100
    },
    {
      "midi": 59,
      "hit": false,
      "t": 140714.14500000008,
      "d": 1763.3910937500477,
      "v": 86
    },
    {
      "midi": 62,
      "hit": false,
      "t": 141078.72796875008,
      "d": 1436.010468750028,
      "v": 104
    },
    {
      "midi": 69,
      "hit": false,
      "t": 141785.5725000001,
      "d": 156.2498437500035,
      "v": 107
    },
    {
      "midi": 74,
      "hit": false,
      "t": 141785.5725000001,
      "d": 1116.070312499971,
      "v": 102
    },
    {
      "midi": 71,
      "hit": false,
      "t": 141964.1437500001,
      "d": 148.80937500001164,
      "v": 102
    },
    {
      "midi": 69,
      "hit": false,
      "t": 142142.7150000001,
      "d": 379.46390624999185,
      "v": 117
    },
    {
      "midi": 67,
      "hit": false,
      "t": 142507.29796875012,
      "d": 208.33312499997555,
      "v": 103
    },
    {
      "midi": 71,
      "hit": false,
      "t": 142507.29796875012,
      "d": 238.09499999997206,
      "v": 93
    },
    {
      "midi": 62,
      "hit": false,
      "t": 142864.44046875008,
      "d": 438.98765624998487,
      "v": 114
    },
    {
      "midi": 67,
      "hit": false,
      "t": 142864.44046875008,
      "d": 892.8562499999825,
      "v": 105
    },
    {
      "midi": 71,
      "hit": false,
      "t": 142864.44046875008,
      "d": 907.7371874999953,
      "v": 100
    },
    {
      "midi": 55,
      "hit": false,
      "t": 143221.58296875007,
      "d": 1852.6767187500081,
      "v": 105
    },
    {
      "midi": 71,
      "hit": false,
      "t": 143928.42750000008,
      "d": 126.48796875000698,
      "v": 84
    },
    {
      "midi": 62,
      "hit": false,
      "t": 143928.42750000008,
      "d": 156.2498437500035,
      "v": 82
    },
    {
      "midi": 67,
      "hit": false,
      "t": 143928.42750000008,
      "d": 163.69031249999534,
      "v": 89
    },
    {
      "midi": 62,
      "hit": false,
      "t": 144293.0104687501,
      "d": 141.3689062499907,
      "v": 98
    },
    {
      "midi": 67,
      "hit": false,
      "t": 144293.0104687501,
      "d": 141.3689062499907,
      "v": 98
    },
    {
      "midi": 71,
      "hit": false,
      "t": 144293.0104687501,
      "d": 141.3689062499907,
      "v": 95
    },
    {
      "midi": 62,
      "hit": false,
      "t": 144642.71250000008,
      "d": 148.80937499998254,
      "v": 105
    },
    {
      "midi": 67,
      "hit": false,
      "t": 144642.71250000008,
      "d": 148.80937499998254,
      "v": 110
    },
    {
      "midi": 71,
      "hit": false,
      "t": 144650.15296875007,
      "d": 141.3689062499907,
      "v": 103
    },
    {
      "midi": 62,
      "hit": false,
      "t": 144999.85500000007,
      "d": 163.69031249999534,
      "v": 114
    },
    {
      "midi": 67,
      "hit": false,
      "t": 144999.85500000007,
      "d": 171.1307812499872,
      "v": 124
    },
    {
      "midi": 71,
      "hit": false,
      "t": 144999.85500000007,
      "d": 171.1307812499872,
      "v": 110
    },
    {
      "midi": 67,
      "hit": false,
      "t": 145356.99750000006,
      "d": 163.69031249999534,
      "v": 119
    },
    {
      "midi": 62,
      "hit": false,
      "t": 145364.43796875005,
      "d": 141.3689062499907,
      "v": 112
    },
    {
      "midi": 71,
      "hit": false,
      "t": 145364.43796875005,
      "d": 171.1307812500163,
      "v": 112
    },
    {
      "midi": 64,
      "hit": false,
      "t": 145721.58046875006,
      "d": 892.8562500000116,
      "v": 114
    },
    {
      "midi": 72,
      "hit": false,
      "t": 145721.58046875006,
      "d": 930.05859375,
      "v": 109
    },
    {
      "midi": 69,
      "hit": false,
      "t": 145721.58046875006,
      "d": 997.022812500014,
      "v": 114
    },
    {
      "midi": 55,
      "hit": false,
      "t": 145721.58046875006,
      "d": 1130.951250000042,
      "v": 104
    },
    {
      "midi": 62,
      "hit": false,
      "t": 146785.5675000001,
      "d": 208.33312500000466,
      "v": 99
    },
    {
      "midi": 67,
      "hit": false,
      "t": 146785.5675000001,
      "d": 208.33312500000466,
      "v": 103
    },
    {
      "midi": 71,
      "hit": false,
      "t": 146785.5675000001,
      "d": 208.33312500000466,
      "v": 98
    },
    {
      "midi": 62,
      "hit": false,
      "t": 147150.1504687501,
      "d": 751.487343750021,
      "v": 85
    },
    {
      "midi": 67,
      "hit": false,
      "t": 147150.1504687501,
      "d": 781.2492187500175,
      "v": 87
    },
    {
      "midi": 71,
      "hit": false,
      "t": 147150.1504687501,
      "d": 915.1776562500163,
      "v": 82
    },
    {
      "midi": 55,
      "hit": false,
      "t": 147856.9950000001,
      "d": 1696.4268750000338,
      "v": 101
    },
    {
      "midi": 62,
      "hit": false,
      "t": 148035.56625000012,
      "d": 1830.3553125000326,
      "v": 108
    },
    {
      "midi": 69,
      "hit": false,
      "t": 148214.13750000013,
      "d": 200.8926562500128,
      "v": 109
    },
    {
      "midi": 71,
      "hit": false,
      "t": 148392.70875000014,
      "d": 1971.7242187499942,
      "v": 114
    },
    {
      "midi": 79,
      "hit": false,
      "t": 148578.72046875014,
      "d": 1369.046250000014,
      "v": 104
    },
    {
      "midi": 55,
      "hit": false,
      "t": 149650.14796875016,
      "d": 1249.9987499999406,
      "v": 104
    },
    {
      "midi": 62,
      "hit": false,
      "t": 149999.85000000015,
      "d": 1212.7964062499523,
      "v": 108
    },
    {
      "midi": 67,
      "hit": false,
      "t": 150356.99250000014,
      "d": 319.94015624999884,
      "v": 108
    },
    {
      "midi": 74,
      "hit": false,
      "t": 150714.13500000013,
      "d": 498.5114062499779,
      "v": 105
    },
    {
      "midi": 69,
      "hit": false,
      "t": 150721.57546875012,
      "d": 200.8926562499837,
      "v": 103
    },
    {
      "midi": 71,
      "hit": false,
      "t": 150892.7062500001,
      "d": 186.01171875,
      "v": 97
    },
    {
      "midi": 69,
      "hit": false,
      "t": 151071.2775000001,
      "d": 193.45218749999185,
      "v": 108
    },
    {
      "midi": 67,
      "hit": false,
      "t": 151249.8487500001,
      "d": 74.40468750000582,
      "v": 76
    },
    {
      "midi": 57,
      "hit": false,
      "t": 151435.8604687501,
      "d": 2313.9857812499686,
      "v": 105
    },
    {
      "midi": 64,
      "hit": false,
      "t": 151785.5625000001,
      "d": 1369.0462499999849,
      "v": 103
    },
    {
      "midi": 69,
      "hit": false,
      "t": 152142.70500000007,
      "d": 691.9635937499988,
      "v": 100
    },
    {
      "midi": 76,
      "hit": false,
      "t": 152499.84750000006,
      "d": 394.34484375000466,
      "v": 98
    },
    {
      "midi": 72,
      "hit": false,
      "t": 152864.43046875007,
      "d": 1011.9037499999977,
      "v": 100
    },
    {
      "midi": 69,
      "hit": false,
      "t": 153214.13250000007,
      "d": 691.9635937499988,
      "v": 102
    },
    {
      "midi": 64,
      "hit": false,
      "t": 153571.27500000005,
      "d": 736.6064062500373,
      "v": 92
    },
    {
      "midi": 69,
      "hit": false,
      "t": 154293.00046875008,
      "d": 446.4281250000349,
      "v": 102
    },
    {
      "midi": 72,
      "hit": false,
      "t": 154293.00046875008,
      "d": 446.4281250000349,
      "v": 100
    },
    {
      "midi": 57,
      "hit": false,
      "t": 154293.00046875008,
      "d": 1592.2603125000605,
      "v": 96
    },
    {
      "midi": 64,
      "hit": false,
      "t": 154642.7025000001,
      "d": 349.70203125002445,
      "v": 80
    },
    {
      "midi": 69,
      "hit": false,
      "t": 155007.28546875014,
      "d": 915.1776562499872,
      "v": 102
    },
    {
      "midi": 72,
      "hit": false,
      "t": 155007.28546875014,
      "d": 930.05859375,
      "v": 99
    },
    {
      "midi": 64,
      "hit": false,
      "t": 155356.98750000013,
      "d": 758.9278125000128,
      "v": 86
    },
    {
      "midi": 57,
      "hit": false,
      "t": 156071.27250000014,
      "d": 409.22578125001746,
      "v": 106
    },
    {
      "midi": 64,
      "hit": false,
      "t": 156428.41500000015,
      "d": 349.70203124999534,
      "v": 103
    },
    {
      "midi": 59,
      "hit": false,
      "t": 156428.41500000015,
      "d": 401.7853124999965,
      "v": 110
    },
    {
      "midi": 60,
      "hit": false,
      "t": 156792.99796875016,
      "d": 215.7735937499965,
      "v": 102
    },
    {
      "midi": 55,
      "hit": false,
      "t": 157142.70000000016,
      "d": 870.534843750007,
      "v": 103
    },
    {
      "midi": 60,
      "hit": false,
      "t": 157142.70000000016,
      "d": 1093.7489062500244,
      "v": 107
    },
    {
      "midi": 64,
      "hit": false,
      "t": 157142.70000000016,
      "d": 1145.8321875000256,
      "v": 100
    },
    {
      "midi": 55,
      "hit": false,
      "t": 158214.12750000018,
      "d": 1324.4034374999756,
      "v": 96
    },
    {
      "midi": 60,
      "hit": false,
      "t": 158578.71046875019,
      "d": 1153.2726562499593,
      "v": 96
    },
    {
      "midi": 62,
      "hit": false,
      "t": 158749.84125000017,
      "d": 171.1307812499872,
      "v": 105
    },
    {
      "midi": 64,
      "hit": false,
      "t": 158928.41250000015,
      "d": 848.2134375000023,
      "v": 103
    },
    {
      "midi": 72,
      "hit": false,
      "t": 159106.98375000016,
      "d": 617.558906249993,
      "v": 112
    },
    {
      "midi": 55,
      "hit": false,
      "t": 159650.13796875015,
      "d": 349.70203124999534,
      "v": 108
    },
    {
      "midi": 62,
      "hit": false,
      "t": 159999.84000000014,
      "d": 922.6181250000081,
      "v": 103
    },
    {
      "midi": 66,
      "hit": false,
      "t": 159999.84000000014,
      "d": 1331.8439062500256,
      "v": 110
    },
    {
      "midi": 57,
      "hit": false,
      "t": 159999.84000000014,
      "d": 2336.3071875000023,
      "v": 115
    },
    {
      "midi": 62,
      "hit": false,
      "t": 161078.70796875015,
      "d": 647.3207812500186,
      "v": 88
    },
    {
      "midi": 69,
      "hit": false,
      "t": 161435.85046875017,
      "d": 1071.4274999999616,
      "v": 94
    },
    {
      "midi": 66,
      "hit": false,
      "t": 161785.55250000017,
      "d": 803.570624999993,
      "v": 111
    },
    {
      "midi": 62,
      "hit": false,
      "t": 162142.69500000015,
      "d": 379.46390624999185,
      "v": 103
    },
    {
      "midi": 57,
      "hit": false,
      "t": 162499.83750000014,
      "d": 252.97593750001397,
      "v": 88
    },
    {
      "midi": 62,
      "hit": false,
      "t": 162864.42046875015,
      "d": 7.440468749991851,
      "v": 104
    },
    {
      "midi": 58,
      "hit": false,
      "t": 162864.42046875015,
      "d": 1532.7365624999802,
      "v": 92
    },
    {
      "midi": 55,
      "hit": false,
      "t": 162864.42046875015,
      "d": 2611.6045312499336,
      "v": 94
    },
    {
      "midi": 67,
      "hit": false,
      "t": 163035.55125000014,
      "d": 171.1307812499872,
      "v": 61
    },
    {
      "midi": 63,
      "hit": false,
      "t": 163214.1225000001,
      "d": 1525.2960937500175,
      "v": 103
    },
    {
      "midi": 58,
      "hit": false,
      "t": 164642.69250000012,
      "d": 133.92843749999884,
      "v": 72
    },
    {
      "midi": 67,
      "hit": false,
      "t": 164999.8350000001,
      "d": 513.3923437499616,
      "v": 105
    },
    {
      "midi": 62,
      "hit": false,
      "t": 165007.27546874998,
      "d": 133.92843749999884,
      "v": 48
    },
    {
      "midi": 62,
      "hit": false,
      "t": 165007.2754687501,
      "d": 200.8926562499837,
      "v": 98
    },
    {
      "midi": 63,
      "hit": false,
      "t": 165178.40624999997,
      "d": 334.82109375001164,
      "v": 53
    },
    {
      "midi": 63,
      "hit": false,
      "t": 165178.4062500001,
      "d": 178.57125000000815,
      "v": 103
    },
    {
      "midi": 67,
      "hit": false,
      "t": 165364.41796874997,
      "d": 223.21406250001746,
      "v": 82
    },
    {
      "midi": 62,
      "hit": false,
      "t": 165364.4179687501,
      "d": 156.2498437499744,
      "v": 98
    },
    {
      "midi": 70,
      "hit": false,
      "t": 165535.54875,
      "d": 133.92843749999884,
      "v": 78
    },
    {
      "midi": 58,
      "hit": false,
      "t": 165535.54875000007,
      "d": 364.58296875000815,
      "v": 88
    },
    {
      "midi": 62,
      "hit": false,
      "t": 165714.12000000008,
      "d": 364.58296874997905,
      "v": 105
    },
    {
      "midi": 67,
      "hit": false,
      "t": 165714.12000000008,
      "d": 1770.8315624999523,
      "v": 103
    },
    {
      "midi": 55,
      "hit": false,
      "t": 165714.12000000008,
      "d": 2522.318906249915,
      "v": 104
    },
    {
      "midi": 74,
      "hit": false,
      "t": 165721.56046875,
      "d": 96.72609375001048,
      "v": 74
    },
    {
      "midi": 75,
      "hit": false,
      "t": 165892.69125,
      "d": 89.28562499998952,
      "v": 108
    },
    {
      "midi": 63,
      "hit": false,
      "t": 166071.26250000007,
      "d": 1458.3318749999744,
      "v": 100
    },
    {
      "midi": 79,
      "hit": false,
      "t": 166078.70296875,
      "d": 96.72609375001048,
      "v": 84
    },
    {
      "midi": 58,
      "hit": false,
      "t": 166249.83375000005,
      "d": 372.0234375,
      "v": 59
    },
    {
      "midi": 82,
      "hit": false,
      "t": 166428.40500000003,
      "d": 89.28562499998952,
      "v": 91
    },
    {
      "midi": 86,
      "hit": false,
      "t": 166606.97625,
      "d": 111.60703124999418,
      "v": 79
    },
    {
      "midi": 87,
      "hit": false,
      "t": 166964.11875,
      "d": 1391.3676562499895,
      "v": 76
    },
    {
      "midi": 58,
      "hit": false,
      "t": 167678.40375000006,
      "d": 171.1307812499872,
      "v": 91
    },
    {
      "midi": 67,
      "hit": false,
      "t": 167856.97500000003,
      "d": 438.98765624995576,
      "v": 106
    },
    {
      "midi": 62,
      "hit": false,
      "t": 167864.41546875003,
      "d": 208.33312499997555,
      "v": 106
    },
    {
      "midi": 63,
      "hit": false,
      "t": 168035.54625,
      "d": 252.97593749998487,
      "v": 102
    },
    {
      "midi": 62,
      "hit": false,
      "t": 168214.1175,
      "d": 200.8926562500128,
      "v": 98
    },
    {
      "midi": 58,
      "hit": false,
      "t": 168392.68875,
      "d": 104.16656250000233,
      "v": 102
    },
    {
      "midi": 59,
      "hit": false,
      "t": 168571.26,
      "d": 1428.5699999999779,
      "v": 108
    },
    {
      "midi": 62,
      "hit": false,
      "t": 168571.26,
      "d": 1465.7723437499662,
      "v": 105
    },
    {
      "midi": 55,
      "hit": false,
      "t": 168571.26,
      "d": 1517.8556249999674,
      "v": 114
    },
    {
      "midi": 67,
      "hit": false,
      "t": 168578.70046875,
      "d": 1510.4151562499756,
      "v": 101
    },
    {
      "midi": 55,
      "hit": false,
      "t": 171428.39999999997,
      "d": 1897.3195312499884,
      "v": 98
    },
    {
      "midi": 62,
      "hit": false,
      "t": 171785.54249999995,
      "d": 1525.2960937499884,
      "v": 99
    },
    {
      "midi": 67,
      "hit": false,
      "t": 172142.68499999994,
      "d": 922.618124999979,
      "v": 98
    },
    {
      "midi": 71,
      "hit": false,
      "t": 172499.82749999993,
      "d": 1540.1770312500012,
      "v": 98
    },
    {
      "midi": 76,
      "hit": false,
      "t": 172864.41046875,
      "d": 751.4873437499919,
      "v": 95
    },
    {
      "midi": 88,
      "hit": false,
      "t": 172864.41046875,
      "d": 781.2492187499884,
      "v": 79
    },
    {
      "midi": 67,
      "hit": false,
      "t": 173214.11249999993,
      "d": 803.570624999993,
      "v": 91
    },
    {
      "midi": 55,
      "hit": false,
      "t": 173571.25499999995,
      "d": 863.094374999986,
      "v": 103
    },
    {
      "midi": 78,
      "hit": false,
      "t": 173578.69546875,
      "d": 647.3207812499895,
      "v": 95
    },
    {
      "midi": 90,
      "hit": false,
      "t": 173578.69546875,
      "d": 706.8445312499825,
      "v": 74
    },
    {
      "midi": 62,
      "hit": false,
      "t": 173928.39749999993,
      "d": 848.2134375000023,
      "v": 105
    },
    {
      "midi": 67,
      "hit": false,
      "t": 174292.98046874994,
      "d": 1130.9512499999837,
      "v": 95
    },
    {
      "midi": 74,
      "hit": false,
      "t": 174292.98046874997,
      "d": 2247.021562500013,
      "v": 65
    },
    {
      "midi": 86,
      "hit": false,
      "t": 174292.98046874997,
      "d": 2276.7834375000093,
      "v": 84
    },
    {
      "midi": 55,
      "hit": false,
      "t": 174642.68249999994,
      "d": 2209.8192187499953,
      "v": 104
    },
    {
      "midi": 62,
      "hit": false,
      "t": 174999.82499999992,
      "d": 1584.8198437500105,
      "v": 102
    },
    {
      "midi": 69,
      "hit": false,
      "t": 175364.40796874993,
      "d": 699.4040624999907,
      "v": 105
    },
    {
      "midi": 74,
      "hit": false,
      "t": 175364.40796874993,
      "d": 1577.3793749999895,
      "v": 88
    },
    {
      "midi": 67,
      "hit": false,
      "t": 176078.69296874994,
      "d": 535.7137499999953,
      "v": 97
    },
    {
      "midi": 71,
      "hit": false,
      "t": 176078.69296874994,
      "d": 1049.106093749986,
      "v": 98
    },
    {
      "midi": 67,
      "hit": false,
      "t": 176785.53749999992,
      "d": 342.2615625000035,
      "v": 88
    },
    {
      "midi": 62,
      "hit": false,
      "t": 176785.53749999992,
      "d": 364.58296875000815,
      "v": 87
    },
    {
      "midi": 57,
      "hit": false,
      "t": 177150.12046874993,
      "d": 2544.640312500007,
      "v": 100
    },
    {
      "midi": 64,
      "hit": false,
      "t": 177499.82249999992,
      "d": 952.3800000000047,
      "v": 98
    },
    {
      "midi": 69,
      "hit": false,
      "t": 178392.67874999993,
      "d": 1636.9031249999825,
      "v": 61
    },
    {
      "midi": 84,
      "hit": false,
      "t": 178578.69046875,
      "d": 364.58296874997905,
      "v": 72
    },
    {
      "midi": 96,
      "hit": false,
      "t": 178578.69046875,
      "d": 394.34484374997555,
      "v": 69
    },
    {
      "midi": 64,
      "hit": false,
      "t": 178928.39249999993,
      "d": 446.4281250000058,
      "v": 88
    },
    {
      "midi": 83,
      "hit": false,
      "t": 178928.3925,
      "d": 379.46390624996275,
      "v": 62
    },
    {
      "midi": 95,
      "hit": false,
      "t": 178935.83296874998,
      "d": 312.4996874999779,
      "v": 64
    },
    {
      "midi": 81,
      "hit": false,
      "t": 179285.53499999995,
      "d": 394.34484375000466,
      "v": 65
    },
    {
      "midi": 93,
      "hit": false,
      "t": 179285.53499999995,
      "d": 394.34484375000466,
      "v": 68
    },
    {
      "midi": 64,
      "hit": false,
      "t": 179642.67749999993,
      "d": 416.6662499999802,
      "v": 100
    },
    {
      "midi": 79,
      "hit": false,
      "t": 179642.67749999996,
      "d": 372.0234374999709,
      "v": 56
    },
    {
      "midi": 91,
      "hit": false,
      "t": 179650.11796874995,
      "d": 386.9043749999837,
      "v": 77
    },
    {
      "midi": 62,
      "hit": false,
      "t": 179999.81999999992,
      "d": 1078.8679687499825,
      "v": 101
    },
    {
      "midi": 71,
      "hit": false,
      "t": 179999.81999999992,
      "d": 1093.7489062499953,
      "v": 103
    },
    {
      "midi": 76,
      "hit": false,
      "t": 179999.81999999995,
      "d": 1502.9746874999837,
      "v": 66
    },
    {
      "midi": 88,
      "hit": false,
      "t": 180007.26046874994,
      "d": 1510.4151562500047,
      "v": 74
    },
    {
      "midi": 72,
      "hit": false,
      "t": 181071.2474999999,
      "d": 349.70203124999534,
      "v": 97
    },
    {
      "midi": 64,
      "hit": false,
      "t": 181071.2474999999,
      "d": 357.1424999999872,
      "v": 105
    },
    {
      "midi": 60,
      "hit": false,
      "t": 181435.8304687499,
      "d": 1220.2368750000023,
      "v": 92
    },
    {
      "midi": 69,
      "hit": false,
      "t": 181435.8304687499,
      "d": 1406.2485937500023,
      "v": 98
    },
    {
      "midi": 67,
      "hit": false,
      "t": 182864.4004687499,
      "d": 2447.9142187500256,
      "v": 96
    },
    {
      "midi": 64,
      "hit": false,
      "t": 183035.53124999988,
      "d": 453.8685937500268,
      "v": 94
    },
    {
      "midi": 55,
      "hit": false,
      "t": 183214.1024999999,
      "d": 2299.104843750043,
      "v": 108
    },
    {
      "midi": 60,
      "hit": false,
      "t": 183392.6737499999,
      "d": 2068.4503125000338,
      "v": 110
    },
    {
      "midi": 64,
      "hit": false,
      "t": 183571.2449999999,
      "d": 1584.8198437500105,
      "v": 104
    },
    {
      "midi": 67,
      "hit": false,
      "t": 185356.95749999993,
      "d": 982.1418750000012,
      "v": 94
    },
    {
      "midi": 62,
      "hit": false,
      "t": 185356.95749999993,
      "d": 2187.4978124999907,
      "v": 98
    },
    {
      "midi": 66,
      "hit": false,
      "t": 186428.38499999992,
      "d": 1116.0703125,
      "v": 88
    },
    {
      "midi": 57,
      "hit": false,
      "t": 187499.8124999999,
      "d": 543.1542187500163,
      "v": 101
    },
    {
      "midi": 64,
      "hit": false,
      "t": 187856.95499999993,
      "d": 349.70203124999534,
      "v": 107
    },
    {
      "midi": 69,
      "hit": false,
      "t": 187856.95499999993,
      "d": 431.5471875000221,
      "v": 108
    },
    {
      "midi": 62,
      "hit": false,
      "t": 188221.53796874994,
      "d": 319.94015625002794,
      "v": 94
    },
    {
      "midi": 66,
      "hit": false,
      "t": 188221.53796874994,
      "d": 349.70203125002445,
      "v": 104
    },
    {
      "midi": 67,
      "hit": false,
      "t": 188571.23999999996,
      "d": 1086.3084375000035,
      "v": 102
    },
    {
      "midi": 55,
      "hit": false,
      "t": 188571.23999999996,
      "d": 2217.2596875000163,
      "v": 102
    },
    {
      "midi": 59,
      "hit": false,
      "t": 189285.52499999997,
      "d": 1480.6532812500081,
      "v": 90
    },
    {
      "midi": 62,
      "hit": false,
      "t": 189642.66749999995,
      "d": 1130.9512500000128,
      "v": 107
    },
    {
      "midi": 69,
      "hit": false,
      "t": 190007.25046874996,
      "d": 186.01171875,
      "v": 106
    },
    {
      "midi": 71,
      "hit": false,
      "t": 190178.38124999995,
      "d": 1227.6773437500233,
      "v": 100
    },
    {
      "midi": 51,
      "hit": false,
      "t": 191435.82046874997,
      "d": 2165.176406250015,
      "v": 110
    },
    {
      "midi": 58,
      "hit": false,
      "t": 191606.95124999995,
      "d": 2001.4860937500198,
      "v": 105
    },
    {
      "midi": 63,
      "hit": false,
      "t": 191785.52249999993,
      "d": 2008.9265624999825,
      "v": 70
    },
    {
      "midi": 63,
      "hit": false,
      "t": 191785.52249999996,
      "d": 1867.557656250021,
      "v": 108
    },
    {
      "midi": 67,
      "hit": false,
      "t": 191964.09374999994,
      "d": 1770.8315624999814,
      "v": 70
    },
    {
      "midi": 67,
      "hit": false,
      "t": 191964.09374999997,
      "d": 2127.974062500027,
      "v": 98
    },
    {
      "midi": 70,
      "hit": false,
      "t": 192142.66499999995,
      "d": 1651.7840624999662,
      "v": 80
    },
    {
      "midi": 75,
      "hit": false,
      "t": 192142.66499999998,
      "d": 2083.3312500000175,
      "v": 98
    },
    {
      "midi": 75,
      "hit": false,
      "t": 192499.80749999994,
      "d": 1346.7248437499802,
      "v": 76
    },
    {
      "midi": 72,
      "hit": false,
      "t": 194285.52,
      "d": 1614.581718750007,
      "v": 107
    },
    {
      "midi": 56,
      "hit": false,
      "t": 194285.52,
      "d": 2291.664374999993,
      "v": 105
    },
    {
      "midi": 58,
      "hit": false,
      "t": 195178.37625,
      "d": 1108.629843749979,
      "v": 83
    },
    {
      "midi": 60,
      "hit": false,
      "t": 195364.38796875,
      "d": 1592.2603124999732,
      "v": 100
    },
    {
      "midi": 82,
      "hit": false,
      "t": 196071.23249999993,
      "d": 721.7254687499953,
      "v": 108
    },
    {
      "midi": 63,
      "hit": false,
      "t": 196071.23249999998,
      "d": 766.3682812500047,
      "v": 104
    },
    {
      "midi": 68,
      "hit": false,
      "t": 196428.37499999997,
      "d": 245.53546875002212,
      "v": 116
    },
    {
      "midi": 72,
      "hit": false,
      "t": 196606.94624999998,
      "d": 3139.8778125000244,
      "v": 103
    },
    {
      "midi": 85,
      "hit": false,
      "t": 196785.51749999993,
      "d": 29.761874999996508,
      "v": 51
    },
    {
      "midi": 84,
      "hit": false,
      "t": 196785.51749999993,
      "d": 342.2615625000035,
      "v": 87
    },
    {
      "midi": 68,
      "hit": false,
      "t": 196785.5175,
      "d": 2209.8192187499662,
      "v": 116
    },
    {
      "midi": 63,
      "hit": false,
      "t": 196964.08874999997,
      "d": 1138.3917187499756,
      "v": 116
    },
    {
      "midi": 75,
      "hit": false,
      "t": 197150.10046874994,
      "d": 1748.5101562500058,
      "v": 87
    },
    {
      "midi": 60,
      "hit": false,
      "t": 197150.10046874997,
      "d": 2008.9265625000116,
      "v": 105
    },
    {
      "midi": 58,
      "hit": false,
      "t": 197321.23124999995,
      "d": 186.01171875,
      "v": 108
    },
    {
      "midi": 56,
      "hit": false,
      "t": 197499.80249999996,
      "d": 1510.4151562500047,
      "v": 100
    },
    {
      "midi": 63,
      "hit": false,
      "t": 198928.37249999994,
      "d": 431.5471875000512,
      "v": 111
    },
    {
      "midi": 56,
      "hit": false,
      "t": 199106.94374999998,
      "d": 617.5589062500221,
      "v": 113
    },
    {
      "midi": 60,
      "hit": false,
      "t": 199285.51499999998,
      "d": 580.3565625000047,
      "v": 112
    },
    {
      "midi": 63,
      "hit": false,
      "t": 199464.08625,
      "d": 364.58296875000815,
      "v": 116
    },
    {
      "midi": 68,
      "hit": false,
      "t": 199642.6575,
      "d": 394.34484374997555,
      "v": 104
    },
    {
      "midi": 58,
      "hit": false,
      "t": 200007.24046874998,
      "d": 2284.2239062500303,
      "v": 102
    },
    {
      "midi": 61,
      "hit": false,
      "t": 200356.94249999998,
      "d": 2217.2596875000454,
      "v": 111
    },
    {
      "midi": 65,
      "hit": false,
      "t": 200714.08499999996,
      "d": 1502.974687500042,
      "v": 117
    },
    {
      "midi": 70,
      "hit": false,
      "t": 201078.66796874997,
      "d": 729.1659375000163,
      "v": 112
    },
    {
      "midi": 73,
      "hit": false,
      "t": 201785.51249999998,
      "d": 714.2850000000326,
      "v": 95
    },
    {
      "midi": 70,
      "hit": false,
      "t": 202142.655,
      "d": 357.1425000000163,
      "v": 91
    },
    {
      "midi": 65,
      "hit": false,
      "t": 202499.79750000002,
      "d": 252.97593750001397,
      "v": 91
    },
    {
      "midi": 84,
      "hit": false,
      "t": 202864.38046874994,
      "d": 7.440468749991851,
      "v": 70
    },
    {
      "midi": 75,
      "hit": false,
      "t": 202864.38046874994,
      "d": 513.3923437499907,
      "v": 83
    },
    {
      "midi": 72,
      "hit": false,
      "t": 202864.38046875002,
      "d": 751.4873437499627,
      "v": 105
    },
    {
      "midi": 63,
      "hit": false,
      "t": 203214.08250000002,
      "d": 461.3090624999604,
      "v": 84
    },
    {
      "midi": 65,
      "hit": false,
      "t": 203571.225,
      "d": 372.0234374999709,
      "v": 107
    },
    {
      "midi": 77,
      "hit": false,
      "t": 203578.66546874994,
      "d": 133.92843749999884,
      "v": 84
    },
    {
      "midi": 85,
      "hit": false,
      "t": 203578.66546874994,
      "d": 148.80937500001164,
      "v": 76
    },
    {
      "midi": 73,
      "hit": false,
      "t": 203578.66546875,
      "d": 349.70203124999534,
      "v": 106
    },
    {
      "midi": 82,
      "hit": false,
      "t": 203935.80796874996,
      "d": 1569.9389062499977,
      "v": 76
    },
    {
      "midi": 73,
      "hit": false,
      "t": 203935.80796874996,
      "d": 1607.141249999986,
      "v": 78
    },
    {
      "midi": 61,
      "hit": false,
      "t": 203935.80796874998,
      "d": 1555.0579687499849,
      "v": 110
    },
    {
      "midi": 70,
      "hit": false,
      "t": 203935.80796874998,
      "d": 1778.2720312499732,
      "v": 112
    },
    {
      "midi": 61,
      "hit": false,
      "t": 205714.07999999996,
      "d": 2462.7951562500093,
      "v": 118
    },
    {
      "midi": 65,
      "hit": false,
      "t": 205892.65124999997,
      "d": 2150.2954687500023,
      "v": 106
    },
    {
      "midi": 68,
      "hit": false,
      "t": 206071.22249999997,
      "d": 2098.212187500001,
      "v": 108
    },
    {
      "midi": 73,
      "hit": false,
      "t": 206249.79374999998,
      "d": 1979.164687499986,
      "v": 116
    },
    {
      "midi": 63,
      "hit": false,
      "t": 207321.22124999994,
      "d": 1257.4392187500198,
      "v": 70
    },
    {
      "midi": 67,
      "hit": false,
      "t": 207499.79249999995,
      "d": 1041.6656249999942,
      "v": 72
    },
    {
      "midi": 70,
      "hit": false,
      "t": 207678.36374999996,
      "d": 877.9753124999988,
      "v": 91
    },
    {
      "midi": 75,
      "hit": false,
      "t": 207856.93499999997,
      "d": 677.082656249986,
      "v": 80
    },
    {
      "midi": 61,
      "hit": false,
      "t": 208571.21999999997,
      "d": 2172.616875000007,
      "v": 111
    },
    {
      "midi": 65,
      "hit": false,
      "t": 208749.79124999998,
      "d": 1331.8439062499965,
      "v": 101
    },
    {
      "midi": 68,
      "hit": false,
      "t": 208935.80296874998,
      "d": 1160.7131250000093,
      "v": 111
    },
    {
      "midi": 73,
      "hit": false,
      "t": 209106.93374999997,
      "d": 1175.5940625000221,
      "v": 118
    },
    {
      "midi": 63,
      "hit": false,
      "t": 210007.23046874997,
      "d": 1361.6057812500221,
      "v": 108
    },
    {
      "midi": 67,
      "hit": false,
      "t": 210178.36124999996,
      "d": 1175.5940625000221,
      "v": 79
    },
    {
      "midi": 70,
      "hit": false,
      "t": 210356.93249999997,
      "d": 997.022812500014,
      "v": 91
    },
    {
      "midi": 75,
      "hit": false,
      "t": 210535.50374999997,
      "d": 811.011093750014,
      "v": 87
    },
    {
      "midi": 64,
      "hit": false,
      "t": 211428.36,
      "d": 2537.199843750015,
      "v": 105
    },
    {
      "midi": 68,
      "hit": false,
      "t": 211606.93125,
      "d": 2671.128281250014,
      "v": 104
    },
    {
      "midi": 71,
      "hit": false,
      "t": 211785.5025,
      "d": 2291.664374999993,
      "v": 105
    },
    {
      "midi": 64,
      "hit": false,
      "t": 211792.94296875,
      "d": 1867.5576562499919,
      "v": 68
    },
    {
      "midi": 68,
      "hit": false,
      "t": 211964.07374999998,
      "d": 1733.629218749993,
      "v": 80
    },
    {
      "midi": 76,
      "hit": false,
      "t": 211964.07375,
      "d": 2351.188125000015,
      "v": 107
    },
    {
      "midi": 71,
      "hit": false,
      "t": 212142.645,
      "d": 1555.0579687499849,
      "v": 68
    },
    {
      "midi": 76,
      "hit": false,
      "t": 212321.21625,
      "d": 1369.0462499999849,
      "v": 74
    },
    {
      "midi": 61,
      "hit": false,
      "t": 214292.94046875002,
      "d": 2157.7359375000524,
      "v": 113
    },
    {
      "midi": 64,
      "hit": false,
      "t": 214464.07125000004,
      "d": 1941.9623437500268,
      "v": 106
    },
    {
      "midi": 68,
      "hit": false,
      "t": 214642.64250000005,
      "d": 2559.52125000002,
      "v": 113
    },
    {
      "midi": 61,
      "hit": false,
      "t": 214650.08296874998,
      "d": 1971.7242187499942,
      "v": 95
    },
    {
      "midi": 64,
      "hit": false,
      "t": 214821.21374999997,
      "d": 1770.8315625000105,
      "v": 82
    },
    {
      "midi": 71,
      "hit": false,
      "t": 214821.21375000005,
      "d": 2276.7834375000093,
      "v": 105
    },
    {
      "midi": 68,
      "hit": false,
      "t": 214999.78499999997,
      "d": 1793.152968749986,
      "v": 91
    },
    {
      "midi": 73,
      "hit": false,
      "t": 214999.78500000006,
      "d": 1979.1646875000151,
      "v": 106
    },
    {
      "midi": 73,
      "hit": false,
      "t": 215178.35624999998,
      "d": 1629.4626562499907,
      "v": 70
    },
    {
      "midi": 76,
      "hit": false,
      "t": 215364.36796874998,
      "d": 1450.8914062499825,
      "v": 77
    },
    {
      "midi": 60,
      "hit": false,
      "t": 217150.08046874998,
      "d": 3080.3540625000314,
      "v": 50
    },
    {
      "midi": 56,
      "hit": false,
      "t": 217150.08046875006,
      "d": 2276.78343749998,
      "v": 106
    },
    {
      "midi": 63,
      "hit": false,
      "t": 217321.21125000005,
      "d": 2008.9265624999825,
      "v": 99
    },
    {
      "midi": 63,
      "hit": false,
      "t": 217499.78249999997,
      "d": 4174.102968750027,
      "v": 76
    },
    {
      "midi": 68,
      "hit": false,
      "t": 217499.78250000006,
      "d": 691.9635937499988,
      "v": 101
    },
    {
      "midi": 70,
      "hit": false,
      "t": 217856.92500000005,
      "d": 409.22578125001746,
      "v": 106
    },
    {
      "midi": 75,
      "hit": false,
      "t": 217856.92500000005,
      "d": 1852.6767187500081,
      "v": 99
    },
    {
      "midi": 68,
      "hit": false,
      "t": 218214.06749999998,
      "d": 1636.9031250000407,
      "v": 48
    },
    {
      "midi": 72,
      "hit": false,
      "t": 218214.06750000006,
      "d": 721.7254687499953,
      "v": 100
    },
    {
      "midi": 82,
      "hit": false,
      "t": 218578.65046874998,
      "d": 156.2498437500035,
      "v": 101
    },
    {
      "midi": 84,
      "hit": false,
      "t": 218749.78125,
      "d": 610.1184375000012,
      "v": 66
    },
    {
      "midi": 70,
      "hit": false,
      "t": 218928.35250000007,
      "d": 364.58296874997905,
      "v": 105
    },
    {
      "midi": 75,
      "hit": false,
      "t": 219106.92375,
      "d": 275.2973437500186,
      "v": 73
    },
    {
      "midi": 80,
      "hit": false,
      "t": 219292.93546875,
      "d": 252.97593750001397,
      "v": 80
    },
    {
      "midi": 68,
      "hit": false,
      "t": 219292.93546875005,
      "d": 416.6662500000093,
      "v": 114
    },
    {
      "midi": 72,
      "hit": false,
      "t": 219642.6375,
      "d": 252.97593750001397,
      "v": 75
    },
    {
      "midi": 63,
      "hit": false,
      "t": 219642.63750000004,
      "d": 3251.4848437499895,
      "v": 108
    },
    {
      "midi": 70,
      "hit": false,
      "t": 219999.78000000006,
      "d": 119.04749999998603,
      "v": 112
    },
    {
      "midi": 68,
      "hit": false,
      "t": 219999.78000000006,
      "d": 3072.9135937499814,
      "v": 82
    },
    {
      "midi": 72,
      "hit": false,
      "t": 219999.78000000006,
      "d": 3095.234999999986,
      "v": 108
    },
    {
      "midi": 56,
      "hit": false,
      "t": 219999.78000000006,
      "d": 3132.4373437499744,
      "v": 113
    },
    {
      "midi": 68,
      "hit": false,
      "t": 220007.22046875002,
      "d": 1607.141249999986,
      "v": 78
    },
    {
      "midi": 72,
      "hit": false,
      "t": 220007.22046875002,
      "d": 1659.2245312499872,
      "v": 77
    },
    {
      "midi": 75,
      "hit": false,
      "t": 220007.22046875002,
      "d": 1674.105468749971,
      "v": 80
    }
  ]
}