{
  "jsonPath": "Unknown/Unknown/Fugu/straight-from-the-heart.json",
  "path": "Unknown\\Unknown\\Fugu\\Straight From The Heart.mid",
  "name": "Straight From The Heart",
  "difficulty": "Intermediate",
  "bpm": 130.00041166797027,
  "notes": [
    {
      "midi": 65,
      "hit": false,
      "t": 1384.6110000000003,
      "d": 740.3822708333332,
      "v": 115
    },
    {
      "midi": 53,
      "hit": false,
      "t": 1384.6110000000003,
      "d": 1346.1495833333338,
      "v": 120
    },
    {
      "midi": 60,
      "hit": false,
      "t": 2538.4535000000005,
      "d": 158.6533437500002,
      "v": 92
    },
    {
      "midi": 65,
      "hit": false,
      "t": 2769.2220000000007,
      "d": 187.49940625,
      "v": 115
    },
    {
      "midi": 69,
      "hit": false,
      "t": 2999.990500000001,
      "d": 230.76850000000013,
      "v": 115
    },
    {
      "midi": 67,
      "hit": false,
      "t": 3230.759000000001,
      "d": 908.6509687500002,
      "v": 100
    },
    {
      "midi": 52,
      "hit": false,
      "t": 3230.759000000001,
      "d": 1274.0344270833339,
      "v": 116
    },
    {
      "midi": 64,
      "hit": false,
      "t": 4153.833000000001,
      "d": 831.7281354166671,
      "v": 121
    },
    {
      "midi": 62,
      "hit": false,
      "t": 5076.907000000002,
      "d": 831.7281354166671,
      "v": 110
    },
    {
      "midi": 50,
      "hit": false,
      "t": 5076.907000000002,
      "d": 1153.8424999999997,
      "v": 96
    },
    {
      "midi": 53,
      "hit": false,
      "t": 5538.444000000002,
      "d": 302.88365625000006,
      "v": 25
    },
    {
      "midi": 62,
      "hit": false,
      "t": 5999.9810000000025,
      "d": 173.07637499999964,
      "v": 63
    },
    {
      "midi": 62,
      "hit": false,
      "t": 6230.749500000002,
      "d": 182.69172916666685,
      "v": 80
    },
    {
      "midi": 65,
      "hit": false,
      "t": 6461.518000000002,
      "d": 153.84566666666706,
      "v": 105
    },
    {
      "midi": 67,
      "hit": false,
      "t": 6692.286500000002,
      "d": 144.23031249999985,
      "v": 92
    },
    {
      "midi": 69,
      "hit": false,
      "t": 6923.055000000002,
      "d": 399.0371979166666,
      "v": 124
    },
    {
      "midi": 67,
      "hit": false,
      "t": 7384.592000000002,
      "d": 394.2295208333335,
      "v": 96
    },
    {
      "midi": 65,
      "hit": false,
      "t": 7846.129000000003,
      "d": 432.69093749999956,
      "v": 115
    },
    {
      "midi": 64,
      "hit": false,
      "t": 8307.666000000003,
      "d": 442.30629166666586,
      "v": 116
    },
    {
      "midi": 62,
      "hit": false,
      "t": 8769.203000000001,
      "d": 1163.457854166667,
      "v": 120
    },
    {
      "midi": 46,
      "hit": false,
      "t": 9692.277000000002,
      "d": 706.7285312499989,
      "v": 80
    },
    {
      "midi": 58,
      "hit": false,
      "t": 9923.045500000002,
      "d": 187.49940624999908,
      "v": 100
    },
    {
      "midi": 60,
      "hit": false,
      "t": 10153.814,
      "d": 197.1147604166672,
      "v": 100
    },
    {
      "midi": 62,
      "hit": false,
      "t": 10384.5825,
      "d": 192.30708333333314,
      "v": 110
    },
    {
      "midi": 64,
      "hit": false,
      "t": 10615.351,
      "d": 1399.0340312499993,
      "v": 116
    },
    {
      "midi": 48,
      "hit": false,
      "t": 10615.351,
      "d": 1509.6106041666662,
      "v": 92
    },
    {
      "midi": 58,
      "hit": false,
      "t": 12461.499,
      "d": 533.6521562500002,
      "v": 110
    },
    {
      "midi": 62,
      "hit": false,
      "t": 12461.499,
      "d": 576.9212499999994,
      "v": 120
    },
    {
      "midi": 57,
      "hit": false,
      "t": 13153.804499999998,
      "d": 519.2291249999998,
      "v": 105
    },
    {
      "midi": 60,
      "hit": false,
      "t": 13153.804499999998,
      "d": 528.8444791666661,
      "v": 110
    },
    {
      "midi": 55,
      "hit": false,
      "t": 13846.109999999997,
      "d": 331.72971875000076,
      "v": 120
    },
    {
      "midi": 58,
      "hit": false,
      "t": 13846.109999999997,
      "d": 379.80648958333404,
      "v": 110
    },
    {
      "midi": 57,
      "hit": false,
      "t": 14307.646999999997,
      "d": 769.2283333333326,
      "v": 105
    },
    {
      "midi": 53,
      "hit": false,
      "t": 14307.646999999997,
      "d": 3423.0660833333313,
      "v": 120
    },
    {
      "midi": 65,
      "hit": false,
      "t": 15461.489499999996,
      "d": 168.2686979166665,
      "v": 89
    },
    {
      "midi": 67,
      "hit": false,
      "t": 15692.257999999996,
      "d": 153.84566666666615,
      "v": 110
    },
    {
      "midi": 69,
      "hit": false,
      "t": 15923.026499999996,
      "d": 153.84566666666615,
      "v": 105
    },
    {
      "midi": 72,
      "hit": false,
      "t": 16153.794999999996,
      "d": 1687.494656249999,
      "v": 115
    },
    {
      "midi": 64,
      "hit": false,
      "t": 29076.831,
      "d": 706.7285312499989,
      "v": 116
    },
    {
      "midi": 48,
      "hit": false,
      "t": 29076.831,
      "d": 740.3822708333319,
      "v": 86
    },
    {
      "midi": 65,
      "hit": false,
      "t": 29769.136499999997,
      "d": 615.3826666666682,
      "v": 115
    },
    {
      "midi": 50,
      "hit": false,
      "t": 29769.136499999997,
      "d": 663.4594375000015,
      "v": 96
    },
    {
      "midi": 67,
      "hit": false,
      "t": 30461.442,
      "d": 437.4986145833318,
      "v": 105
    },
    {
      "midi": 52,
      "hit": false,
      "t": 30461.442,
      "d": 495.1907395833332,
      "v": 93
    },
    {
      "midi": 69,
      "hit": false,
      "t": 30922.979,
      "d": 841.3434895833343,
      "v": 100
    },
    {
      "midi": 53,
      "hit": false,
      "t": 30922.979,
      "d": 1596.1487916666665,
      "v": 96
    },
    {
      "midi": 60,
      "hit": false,
      "t": 31846.053,
      "d": 903.8432916666643,
      "v": 105
    },
    {
      "midi": 69,
      "hit": false,
      "t": 32307.59,
      "d": 403.84487499999886,
      "v": 115
    },
    {
      "midi": 67,
      "hit": false,
      "t": 32769.127,
      "d": 841.3434895833343,
      "v": 100
    },
    {
      "midi": 52,
      "hit": false,
      "t": 32769.127,
      "d": 1298.0728125000023,
      "v": 78
    },
    {
      "midi": 60,
      "hit": false,
      "t": 33692.201,
      "d": 822.1127812500054,
      "v": 96
    },
    {
      "midi": 50,
      "hit": false,
      "t": 34615.27500000001,
      "d": 1168.2655312499992,
      "v": 92
    },
    {
      "midi": 62,
      "hit": false,
      "t": 35307.58050000001,
      "d": 822.1127812499981,
      "v": 70
    },
    {
      "midi": 69,
      "hit": false,
      "t": 35538.34900000001,
      "d": 687.4978229166663,
      "v": 120
    },
    {
      "midi": 67,
      "hit": false,
      "t": 36230.65450000001,
      "d": 158.65334374999657,
      "v": 120
    },
    {
      "midi": 69,
      "hit": false,
      "t": 36461.42300000001,
      "d": 1865.3787083333373,
      "v": 115
    },
    {
      "midi": 64,
      "hit": false,
      "t": 37384.49700000001,
      "d": 788.4590416666688,
      "v": 116
    },
    {
      "midi": 62,
      "hit": false,
      "t": 38307.57100000001,
      "d": 1855.7633541666655,
      "v": 110
    },
    {
      "midi": 70,
      "hit": false,
      "t": 39692.182000000015,
      "d": 399.0371979166666,
      "v": 110
    },
    {
      "midi": 53,
      "hit": false,
      "t": 40153.71900000001,
      "d": 884.6125833333281,
      "v": 96
    },
    {
      "midi": 69,
      "hit": false,
      "t": 40153.71900000001,
      "d": 1423.0724166666623,
      "v": 115
    },
    {
      "midi": 60,
      "hit": false,
      "t": 41538.33000000001,
      "d": 211.5377916666621,
      "v": 58
    },
    {
      "midi": 69,
      "hit": false,
      "t": 41769.09850000001,
      "d": 197.11476041666901,
      "v": 100
    },
    {
      "midi": 67,
      "hit": false,
      "t": 41999.86700000001,
      "d": 1326.918875000003,
      "v": 115
    },
    {
      "midi": 52,
      "hit": false,
      "t": 43846.015000000014,
      "d": 615.3826666666646,
      "v": 121
    },
    {
      "midi": 53,
      "hit": false,
      "t": 44538.32050000001,
      "d": 562.4982187499991,
      "v": 115
    },
    {
      "midi": 55,
      "hit": false,
      "t": 45230.62600000001,
      "d": 374.9988125000018,
      "v": 110
    },
    {
      "midi": 57,
      "hit": false,
      "t": 45692.163000000015,
      "d": 807.6897499999977,
      "v": 105
    },
    {
      "midi": 60,
      "hit": false,
      "t": 46615.237000000016,
      "d": 408.6525520833311,
      "v": 92
    },
    {
      "midi": 53,
      "hit": false,
      "t": 46615.237000000016,
      "d": 490.3830624999973,
      "v": 115
    },
    {
      "midi": 57,
      "hit": false,
      "t": 47076.77400000001,
      "d": 437.4986145833318,
      "v": 100
    },
    {
      "midi": 52,
      "hit": false,
      "t": 47538.31100000001,
      "d": 1798.0712291666641,
      "v": 85
    },
    {
      "midi": 64,
      "hit": false,
      "t": 48461.38500000001,
      "d": 798.0743958333333,
      "v": 116
    },
    {
      "midi": 50,
      "hit": false,
      "t": 49384.45900000001,
      "d": 1139.4194687499985,
      "v": 96
    },
    {
      "midi": 62,
      "hit": false,
      "t": 49384.45900000001,
      "d": 1721.1483958333338,
      "v": 110
    },
    {
      "midi": 69,
      "hit": false,
      "t": 50307.53300000001,
      "d": 1269.2267499999944,
      "v": 120
    },
    {
      "midi": 62,
      "hit": false,
      "t": 51115.22275000001,
      "d": 927.8816770833364,
      "v": 61
    },
    {
      "midi": 67,
      "hit": false,
      "t": 51692.14400000001,
      "d": 456.729322916668,
      "v": 100
    },
    {
      "midi": 65,
      "hit": false,
      "t": 52153.68100000001,
      "d": 1552.8796979166655,
      "v": 115
    },
    {
      "midi": 67,
      "hit": false,
      "t": 53999.82900000001,
      "d": 846.1511666666629,
      "v": 100
    },
    {
      "midi": 62,
      "hit": false,
      "t": 54230.59750000001,
      "d": 610.5749895833287,
      "v": 89
    },
    {
      "midi": 58,
      "hit": false,
      "t": 54461.36600000001,
      "d": 1293.2651354166665,
      "v": 96
    },
    {
      "midi": 64,
      "hit": false,
      "t": 54922.903000000006,
      "d": 1004.8045104166667,
      "v": 116
    },
    {
      "midi": 58,
      "hit": false,
      "t": 55845.977000000006,
      "d": 716.343885416667,
      "v": 89
    },
    {
      "midi": 58,
      "hit": false,
      "t": 56769.05100000001,
      "d": 1235.573010416665,
      "v": 110
    },
    {
      "midi": 65,
      "hit": false,
      "t": 57692.12500000001,
      "d": 764.4206562499967,
      "v": 115
    },
    {
      "midi": 60,
      "hit": false,
      "t": 57922.893500000006,
      "d": 216.34546874999796,
      "v": 72
    },
    {
      "midi": 58,
      "hit": false,
      "t": 58153.662000000004,
      "d": 288.4606249999997,
      "v": 83
    },
    {
      "midi": 60,
      "hit": false,
      "t": 58384.4305,
      "d": 163.46102083333244,
      "v": 70
    },
    {
      "midi": 57,
      "hit": false,
      "t": 58615.199,
      "d": 374.9988125000018,
      "v": 96
    },
    {
      "midi": 65,
      "hit": false,
      "t": 58615.199,
      "d": 754.8053020833322,
      "v": 105
    },
    {
      "midi": 69,
      "hit": false,
      "t": 59538.273,
      "d": 495.1907395833332,
      "v": 105
    },
    {
      "midi": 67,
      "hit": false,
      "t": 59999.81,
      "d": 211.53779166666936,
      "v": 115
    },
    {
      "midi": 65,
      "hit": false,
      "t": 60230.5785,
      "d": 187.49940624999726,
      "v": 100
    },
    {
      "midi": 64,
      "hit": false,
      "t": 60461.347,
      "d": 932.689354166665,
      "v": 101
    },
    {
      "midi": 60,
      "hit": false,
      "t": 61615.1895,
      "d": 173.07637499999691,
      "v": 61
    },
    {
      "midi": 62,
      "hit": false,
      "t": 61845.958,
      "d": 201.9224374999976,
      "v": 110
    },
    {
      "midi": 64,
      "hit": false,
      "t": 62076.7265,
      "d": 245.19153124999866,
      "v": 85
    },
    {
      "midi": 52,
      "hit": false,
      "t": 62307.494999999995,
      "d": 918.2663229166646,
      "v": 109
    },
    {
      "midi": 55,
      "hit": false,
      "t": 63230.568999999996,
      "d": 43.26909375000105,
      "v": 76
    },
    {
      "midi": 60,
      "hit": false,
      "t": 63230.568999999996,
      "d": 1365.3802916666682,
      "v": 110
    },
    {
      "midi": 53,
      "hit": false,
      "t": 64153.643,
      "d": 995.1891562500023,
      "v": 105
    },
    {
      "midi": 65,
      "hit": false,
      "t": 65076.717,
      "d": 836.5358124999984,
      "v": 89
    },
    {
      "midi": 53,
      "hit": false,
      "t": 65538.254,
      "d": 168.26869791666104,
      "v": 74
    },
    {
      "midi": 72,
      "hit": false,
      "t": 65999.791,
      "d": 278.84527083333523,
      "v": 110
    },
    {
      "midi": 69,
      "hit": false,
      "t": 66230.5595,
      "d": 182.6917291666614,
      "v": 92
    },
    {
      "midi": 67,
      "hit": false,
      "t": 66461.328,
      "d": 206.7301145833335,
      "v": 80
    },
    {
      "midi": 65,
      "hit": false,
      "t": 66692.0965,
      "d": 182.6917291666614,
      "v": 110
    },
    {
      "midi": 69,
      "hit": false,
      "t": 66922.86499999999,
      "d": 879.8049062500068,
      "v": 110
    },
    {
      "midi": 48,
      "hit": false,
      "t": 67845.939,
      "d": 490.3830624999973,
      "v": 86
    },
    {
      "midi": 60,
      "hit": false,
      "t": 67845.939,
      "d": 2192.300749999995,
      "v": 96
    },
    {
      "midi": 52,
      "hit": false,
      "t": 69230.55,
      "d": 120.1919270833314,
      "v": 60
    },
    {
      "midi": 52,
      "hit": false,
      "t": 69692.087,
      "d": 1221.1499791666574,
      "v": 93
    },
    {
      "midi": 64,
      "hit": false,
      "t": 70153.624,
      "d": 442.3062916666677,
      "v": 121
    },
    {
      "midi": 62,
      "hit": false,
      "t": 70615.161,
      "d": 451.9216458333249,
      "v": 105
    },
    {
      "midi": 60,
      "hit": false,
      "t": 71076.69799999999,
      "d": 264.4222395833349,
      "v": 80
    },
    {
      "midi": 62,
      "hit": false,
      "t": 71538.23499999999,
      "d": 653.8440833333298,
      "v": 115
    },
    {
      "midi": 60,
      "hit": false,
      "t": 72230.54049999999,
      "d": 586.5366041666712,
      "v": 105
    },
    {
      "midi": 58,
      "hit": false,
      "t": 72922.84599999999,
      "d": 865.3818750000064,
      "v": 105
    },
    {
      "midi": 57,
      "hit": false,
      "t": 73845.92,
      "d": 879.8049062500068,
      "v": 100
    },
    {
      "midi": 65,
      "hit": false,
      "t": 74768.994,
      "d": 149.0379895833321,
      "v": 120
    },
    {
      "midi": 67,
      "hit": false,
      "t": 74999.76250000001,
      "d": 197.11476041666174,
      "v": 92
    },
    {
      "midi": 65,
      "hit": false,
      "t": 75230.531,
      "d": 783.6513645833329,
      "v": 115
    },
    {
      "midi": 69,
      "hit": false,
      "t": 76153.605,
      "d": 413.460229166667,
      "v": 110
    },
    {
      "midi": 65,
      "hit": false,
      "t": 76615.14199999999,
      "d": 394.22952083333803,
      "v": 105
    },
    {
      "midi": 60,
      "hit": false,
      "t": 77076.679,
      "d": 788.4590416666615,
      "v": 80
    },
    {
      "midi": 67,
      "hit": false,
      "t": 77076.679,
      "d": 788.4590416666615,
      "v": 96
    },
    {
      "midi": 52,
      "hit": false,
      "t": 77076.679,
      "d": 1153.8424999999988,
      "v": 74
    },
    {
      "midi": 60,
      "hit": false,
      "t": 77999.753,
      "d": 788.4590416666761,
      "v": 80
    },
    {
      "midi": 62,
      "hit": false,
      "t": 78922.827,
      "d": 735.5745937500033,
      "v": 89
    },
    {
      "midi": 50,
      "hit": false,
      "t": 78922.827,
      "d": 1379.8033229166758,
      "v": 89
    },
    {
      "midi": 62,
      "hit": false,
      "t": 79845.90100000001,
      "d": 437.4986145833391,
      "v": 78
    },
    {
      "midi": 65,
      "hit": false,
      "t": 80307.43800000001,
      "d": 149.0379895833321,
      "v": 96
    },
    {
      "midi": 67,
      "hit": false,
      "t": 80538.20650000001,
      "d": 139.42263541666034,
      "v": 89
    },
    {
      "midi": 69,
      "hit": false,
      "t": 80768.975,
      "d": 408.6525520833384,
      "v": 105
    },
    {
      "midi": 67,
      "hit": false,
      "t": 81230.51200000002,
      "d": 394.22952083333803,
      "v": 83
    },
    {
      "midi": 65,
      "hit": false,
      "t": 81692.04900000003,
      "d": 432.6909374999959,
      "v": 105
    },
    {
      "midi": 64,
      "hit": false,
      "t": 82153.58600000002,
      "d": 403.8448749999952,
      "v": 93
    },
    {
      "midi": 62,
      "hit": false,
      "t": 82615.12300000002,
      "d": 1418.2647395833192,
      "v": 100
    },
    {
      "midi": 70,
      "hit": false,
      "t": 83538.19700000001,
      "d": 870.1895520833205,
      "v": 110
    },
    {
      "midi": 65,
      "hit": false,
      "t": 83999.73400000001,
      "d": 240.3838541666628,
      "v": 80
    },
    {
      "midi": 62,
      "hit": false,
      "t": 84230.5025,
      "d": 211.5377916666621,
      "v": 78
    },
    {
      "midi": 67,
      "hit": false,
      "t": 84461.271,
      "d": 850.958843750006,
      "v": 100
    },
    {
      "midi": 60,
      "hit": false,
      "t": 85384.345,
      "d": 519.229124999998,
      "v": 89
    },
    {
      "midi": 65,
      "hit": false,
      "t": 86307.419,
      "d": 519.229124999998,
      "v": 96
    },
    {
      "midi": 74,
      "hit": false,
      "t": 86307.419,
      "d": 576.9212499999994,
      "v": 110
    },
    {
      "midi": 72,
      "hit": false,
      "t": 86999.7245,
      "d": 533.6521562499984,
      "v": 100
    },
    {
      "midi": 65,
      "hit": false,
      "t": 86999.7245,
      "d": 538.459833333327,
      "v": 105
    },
    {
      "midi": 65,
      "hit": false,
      "t": 87692.02999999998,
      "d": 341.34507291666523,
      "v": 80
    },
    {
      "midi": 74,
      "hit": false,
      "t": 87692.02999999998,
      "d": 394.22952083333803,
      "v": 105
    },
    {
      "midi": 65,
      "hit": false,
      "t": 88153.567,
      "d": 1610.5718229166669,
      "v": 105
    },
    {
      "midi": 72,
      "hit": false,
      "t": 88153.567,
      "d": 1682.6869791666686,
      "v": 115
    },
    {
      "midi": 65,
      "hit": false,
      "t": 89999.715,
      "d": 899.0356145833357,
      "v": 105
    },
    {
      "midi": 60,
      "hit": false,
      "t": 90922.789,
      "d": 855.7665208333492,
      "v": 83
    },
    {
      "midi": 65,
      "hit": false,
      "t": 91153.55750000001,
      "d": 177.8840520833328,
      "v": 92
    },
    {
      "midi": 69,
      "hit": false,
      "t": 91384.32600000002,
      "d": 423.0755833333387,
      "v": 115
    },
    {
      "midi": 67,
      "hit": false,
      "t": 91845.86300000003,
      "d": 831.7281354166626,
      "v": 110
    },
    {
      "midi": 52,
      "hit": false,
      "t": 91845.86300000003,
      "d": 1370.1879687499895,
      "v": 66
    },
    {
      "midi": 64,
      "hit": false,
      "t": 92768.93700000002,
      "d": 466.3446770833252,
      "v": 116
    },
    {
      "midi": 60,
      "hit": false,
      "t": 93230.47400000002,
      "d": 379.8064895833231,
      "v": 92
    },
    {
      "midi": 50,
      "hit": false,
      "t": 93692.01100000001,
      "d": 831.7281354166626,
      "v": 86
    },
    {
      "midi": 62,
      "hit": false,
      "t": 93692.01100000001,
      "d": 1711.5330416666548,
      "v": 96
    },
    {
      "midi": 65,
      "hit": false,
      "t": 94615.085,
      "d": 384.6141666666663,
      "v": 92
    },
    {
      "midi": 67,
      "hit": false,
      "t": 95076.622,
      "d": 480.7677083333256,
      "v": 76
    },
    {
      "midi": 60,
      "hit": false,
      "t": 95538.159,
      "d": 870.189552083335,
      "v": 89
    },
    {
      "midi": 69,
      "hit": false,
      "t": 96461.23300000001,
      "d": 192.30708333333314,
      "v": 120
    },
    {
      "midi": 67,
      "hit": false,
      "t": 96692.00150000001,
      "d": 177.8840520833328,
      "v": 100
    },
    {
      "midi": 65,
      "hit": false,
      "t": 96922.77000000002,
      "d": 225.96082291666244,
      "v": 120
    },
    {
      "midi": 64,
      "hit": false,
      "t": 97153.53850000001,
      "d": 192.30708333333314,
      "v": 121
    },
    {
      "midi": 62,
      "hit": false,
      "t": 97384.30700000002,
      "d": 1528.8413124999934,
      "v": 105
    },
    {
      "midi": 70,
      "hit": false,
      "t": 98307.38100000001,
      "d": 1399.0340312499902,
      "v": 96
    },
    {
      "midi": 65,
      "hit": false,
      "t": 98768.918,
      "d": 1317.3035208333313,
      "v": 110
    },
    {
      "midi": 60,
      "hit": false,
      "t": 99230.455,
      "d": 1543.2643437500083,
      "v": 105
    },
    {
      "midi": 69,
      "hit": false,
      "t": 100153.52900000001,
      "d": 894.2279375000071,
      "v": 110
    },
    {
      "midi": 58,
      "hit": false,
      "t": 101076.60300000002,
      "d": 1153.8424999999988,
      "v": 105
    },
    {
      "midi": 67,
      "hit": false,
      "t": 101999.67700000001,
      "d": 850.958843750006,
      "v": 96
    },
    {
      "midi": 62,
      "hit": false,
      "t": 102230.44550000002,
      "d": 221.15314583333384,
      "v": 86
    },
    {
      "midi": 58,
      "hit": false,
      "t": 102461.21400000002,
      "d": 235.5761770833342,
      "v": 76
    },
    {
      "midi": 64,
      "hit": false,
      "t": 102922.75100000002,
      "d": 605.7673125000001,
      "v": 116
    },
    {
      "midi": 65,
      "hit": false,
      "t": 103615.05650000002,
      "d": 557.6905416666705,
      "v": 110
    },
    {
      "midi": 62,
      "hit": false,
      "t": 103615.05650000002,
      "d": 576.9212499999994,
      "v": 92
    },
    {
      "midi": 64,
      "hit": false,
      "t": 104307.36200000002,
      "d": 379.8064895833377,
      "v": 116
    },
    {
      "midi": 67,
      "hit": false,
      "t": 104307.36200000002,
      "d": 475.9600312500115,
      "v": 100
    },
    {
      "midi": 65,
      "hit": false,
      "t": 104768.89900000003,
      "d": 769.2283333333326,
      "v": 89
    },
    {
      "midi": 60,
      "hit": false,
      "t": 104768.89900000003,
      "d": 1913.4554791666596,
      "v": 96
    },
    {
      "midi": 69,
      "hit": false,
      "t": 105691.97300000003,
      "d": 923.0739999999932,
      "v": 105
    },
    {
      "midi": 67,
      "hit": false,
      "t": 106615.04700000002,
      "d": 1826.917291666672,
      "v": 78
    },
    {
      "midi": 60,
      "hit": false,
      "t": 106730.43125000002,
      "d": 1408.649385416662,
      "v": 33
    },
    {
      "midi": 64,
      "hit": false,
      "t": 107538.12100000003,
      "d": 596.1519583333284,
      "v": 40
    },
    {
      "midi": 62,
      "hit": false,
      "t": 108461.19500000002,
      "d": 2706.7221979166643,
      "v": 70
    },
    {
      "midi": 69,
      "hit": false,
      "t": 109384.26900000001,
      "d": 721.1515625000029,
      "v": 110
    },
    {
      "midi": 67,
      "hit": false,
      "t": 110076.57450000002,
      "d": 144.2303125000035,
      "v": 65
    },
    {
      "midi": 69,
      "hit": false,
      "t": 110307.34300000002,
      "d": 971.1507708333229,
      "v": 96
    },
    {
      "midi": 64,
      "hit": false,
      "t": 111230.41700000002,
      "d": 870.189552083335,
      "v": 116
    },
    {
      "midi": 62,
      "hit": false,
      "t": 112153.49100000002,
      "d": 735.5745937500033,
      "v": 96
    },
    {
      "midi": 70,
      "hit": false,
      "t": 113538.10200000003,
      "d": 192.30708333333314,
      "v": 100
    },
    {
      "midi": 74,
      "hit": false,
      "t": 113768.87050000003,
      "d": 187.49940625000454,
      "v": 110
    },
    {
      "midi": 72,
      "hit": false,
      "t": 113999.63900000004,
      "d": 1826.917291666672,
      "v": 110
    },
    {
      "midi": 70,
      "hit": false,
      "t": 115845.78700000004,
      "d": 533.6521562499984,
      "v": 100
    },
    {
      "midi": 69,
      "hit": false,
      "t": 116307.32400000004,
      "d": 456.729322916668,
      "v": 92
    },
    {
      "midi": 67,
      "hit": false,
      "t": 116768.86100000003,
      "d": 403.8448749999952,
      "v": 80
    },
    {
      "midi": 65,
      "hit": false,
      "t": 117230.39800000003,
      "d": 394.22952083333803,
      "v": 105
    },
    {
      "midi": 64,
      "hit": false,
      "t": 117691.93500000004,
      "d": 658.6517604166729,
      "v": 116
    },
    {
      "midi": 65,
      "hit": false,
      "t": 118384.24050000004,
      "d": 624.9980208333291,
      "v": 100
    },
    {
      "midi": 67,
      "hit": false,
      "t": 119076.54600000005,
      "d": 423.0755833333387,
      "v": 76
    },
    {
      "midi": 65,
      "hit": false,
      "t": 119538.08300000006,
      "d": 889.420260416664,
      "v": 78
    },
    {
      "midi": 69,
      "hit": false,
      "t": 120461.15700000005,
      "d": 427.8832604166673,
      "v": 110
    },
    {
      "midi": 65,
      "hit": false,
      "t": 120922.69400000005,
      "d": 427.8832604166673,
      "v": 92
    },
    {
      "midi": 67,
      "hit": false,
      "t": 121384.23100000004,
      "d": 1812.4942604166718,
      "v": 89
    },
    {
      "midi": 62,
      "hit": false,
      "t": 123230.37900000004,
      "d": 1201.9192708333285,
      "v": 96
    },
    {
      "midi": 81,
      "hit": false,
      "t": 125538.06400000004,
      "d": 197.11476041666174,
      "v": 96
    },
    {
      "midi": 79,
      "hit": false,
      "t": 125768.83250000003,
      "d": 235.5761770833342,
      "v": 115
    },
    {
      "midi": 77,
      "hit": false,
      "t": 125999.60100000004,
      "d": 2716.337552083336,
      "v": 110
    },
    {
      "midi": 74,
      "hit": false,
      "t": 126922.67500000003,
      "d": 1221.149979166672,
      "v": 110
    },
    {
      "midi": 67,
      "hit": false,
      "t": 128768.82300000005,
      "d": 759.6129791666608,
      "v": 92
    },
    {
      "midi": 76,
      "hit": false,
      "t": 128768.82300000005,
      "d": 1043.2659270833246,
      "v": 85
    },
    {
      "midi": 67,
      "hit": false,
      "t": 129691.89700000004,
      "d": 749.9976250000036,
      "v": 86
    },
    {
      "midi": 70,
      "hit": false,
      "t": 130614.97100000005,
      "d": 1644.2255625000107,
      "v": 110
    },
    {
      "midi": 72,
      "hit": false,
      "t": 132461.11900000006,
      "d": 221.1531458333193,
      "v": 105
    },
    {
      "midi": 69,
      "hit": false,
      "t": 132691.88750000004,
      "d": 221.1531458333193,
      "v": 100
    },
    {
      "midi": 67,
      "hit": false,
      "t": 132922.65600000002,
      "d": 197.1147604166763,
      "v": 110
    },
    {
      "midi": 65,
      "hit": false,
      "t": 133153.42450000002,
      "d": 192.3070833333477,
      "v": 105
    },
    {
      "midi": 69,
      "hit": false,
      "t": 133384.19300000003,
      "d": 447.1139687499963,
      "v": 110
    },
    {
      "midi": 67,
      "hit": false,
      "t": 133845.73,
      "d": 187.49940624999,
      "v": 80
    },
    {
      "midi": 65,
      "hit": false,
      "t": 134076.4985,
      "d": 211.5377916666621,
      "v": 92
    },
    {
      "midi": 64,
      "hit": false,
      "t": 134307.267,
      "d": 2100.954885416664,
      "v": 109
    },
    {
      "midi": 67,
      "hit": false,
      "t": 136614.952,
      "d": 1331.7265520833316,
      "v": 92
    },
    {
      "midi": 64,
      "hit": false,
      "t": 137076.489,
      "d": 889.420260416664,
      "v": 116
    },
    {
      "midi": 65,
      "hit": false,
      "t": 137999.563,
      "d": 5754.789468750008,
      "v": 92
    },
    {
      "midi": 77,
      "hit": false,
      "t": 140307.248,
      "d": 1182.6885624999995,
      "v": 115
    },
    {
      "midi": 72,
      "hit": false,
      "t": 140768.785,
      "d": 889.420260416664,
      "v": 110
    },
    {
      "midi": 67,
      "hit": false,
      "t": 143999.544,
      "d": 432.6909375000105,
      "v": 105
    },
    {
      "midi": 64,
      "hit": false,
      "t": 144461.081,
      "d": 456.7293229166535,
      "v": 109
    },
    {
      "midi": 60,
      "hit": false,
      "t": 144922.618,
      "d": 322.1143645833363,
      "v": 89
    },
    {
      "midi": 70,
      "hit": false,
      "t": 145384.155,
      "d": 649.0364062500012,
      "v": 115
    },
    {
      "midi": 69,
      "hit": false,
      "t": 146076.4605,
      "d": 615.3826666666719,
      "v": 120
    },
    {
      "midi": 67,
      "hit": false,
      "t": 146768.766,
      "d": 961.5354166666511,
      "v": 105
    },
    {
      "midi": 65,
      "hit": false,
      "t": 147691.84,
      "d": 846.1511666666484,
      "v": 115
    },
    {
      "midi": 67,
      "hit": false,
      "t": 148614.914,
      "d": 240.3838541666628,
      "v": 89
    },
    {
      "midi": 69,
      "hit": false,
      "t": 148845.6825,
      "d": 225.96082291664788,
      "v": 92
    },
    {
      "midi": 65,
      "hit": false,
      "t": 149076.45099999997,
      "d": 1312.4958437499881,
      "v": 110
    },
    {
      "midi": 60,
      "hit": false,
      "t": 150461.06199999995,
      "d": 211.5377916666621,
      "v": 76
    },
    {
      "midi": 69,
      "hit": false,
      "t": 150691.83049999995,
      "d": 211.5377916666621,
      "v": 100
    },
    {
      "midi": 67,
      "hit": false,
      "t": 150922.59899999996,
      "d": 1793.2635520833428,
      "v": 115
    },
    {
      "midi": 60,
      "hit": false,
      "t": 151845.67299999995,
      "d": 548.0751875000133,
      "v": 55
    },
    {
      "midi": 62,
      "hit": false,
      "t": 152768.74699999997,
      "d": 1355.7649375000037,
      "v": 105
    },
    {
      "midi": 81,
      "hit": false,
      "t": 154614.895,
      "d": 317.3066875000077,
      "v": 105
    },
    {
      "midi": 79,
      "hit": false,
      "t": 155076.432,
      "d": 437.4986145833391,
      "v": 110
    },
    {
      "midi": 77,
      "hit": false,
      "t": 155537.969,
      "d": 475.960031249997,
      "v": 115
    },
    {
      "midi": 76,
      "hit": false,
      "t": 155999.50600000002,
      "d": 408.6525520833093,
      "v": 121
    },
    {
      "midi": 74,
      "hit": false,
      "t": 156461.043,
      "d": 1519.2259583333216,
      "v": 105
    },
    {
      "midi": 74,
      "hit": false,
      "t": 158076.4225,
      "d": 177.8840520833328,
      "v": 96
    },
    {
      "midi": 76,
      "hit": false,
      "t": 158307.191,
      "d": 990.381479166681,
      "v": 109
    },
    {
      "midi": 70,
      "hit": false,
      "t": 160153.339,
      "d": 572.1135729166563,
      "v": 110
    },
    {
      "midi": 69,
      "hit": false,
      "t": 160845.6445,
      "d": 548.0751875000133,
      "v": 100
    },
    {
      "midi": 70,
      "hit": false,
      "t": 161537.95,
      "d": 423.0755833333242,
      "v": 105
    },
    {
      "midi": 69,
      "hit": false,
      "t": 161999.487,
      "d": 1370.1879687499895,
      "v": 100
    },
    {
      "midi": 53,
      "hit": false,
      "t": 163845.63499999998,
      "d": 1057.6889583333395,
      "v": 110
    },
    {
      "midi": 57,
      "hit": false,
      "t": 164307.172,
      "d": 100.96121874998789,
      "v": 72
    },
    {
      "midi": 60,
      "hit": false,
      "t": 164537.94049999997,
      "d": 124.99960416665999,
      "v": 86
    },
    {
      "midi": 65,
      "hit": false,
      "t": 164768.70899999997,
      "d": 514.421447916684,
      "v": 115
    },
    {
      "midi": 60,
      "hit": false,
      "t": 165230.24599999998,
      "d": 475.960031249997,
      "v": 100
    },
    {
      "midi": 52,
      "hit": false,
      "t": 165691.783,
      "d": 600.959635416657,
      "v": 85
    },
    {
      "midi": 55,
      "hit": false,
      "t": 165691.783,
      "d": 1605.7641458333237,
      "v": 100
    },
    {
      "midi": 64,
      "hit": false,
      "t": 166614.857,
      "d": 879.8049062500068,
      "v": 116
    },
    {
      "midi": 57,
      "hit": false,
      "t": 167537.93099999998,
      "d": 548.0751875000133,
      "v": 96
    },
    {
      "midi": 62,
      "hit": false,
      "t": 167999.468,
      "d": 399.0371979166812,
      "v": 115
    },
    {
      "midi": 64,
      "hit": false,
      "t": 168461.005,
      "d": 418.2679062499956,
      "v": 109
    },
    {
      "midi": 65,
      "hit": false,
      "t": 168922.542,
      "d": 403.8448750000098,
      "v": 96
    },
    {
      "midi": 69,
      "hit": false,
      "t": 169384.079,
      "d": 427.8832604166528,
      "v": 110
    },
    {
      "midi": 67,
      "hit": false,
      "t": 169845.61599999998,
      "d": 461.5370000000112,
      "v": 86
    },
    {
      "midi": 65,
      "hit": false,
      "t": 170307.153,
      "d": 423.0755833333242,
      "v": 110
    },
    {
      "midi": 64,
      "hit": false,
      "t": 170768.68999999997,
      "d": 432.6909375000105,
      "v": 116
    },
    {
      "midi": 62,
      "hit": false,
      "t": 171230.22699999998,
      "d": 1812.4942604166572,
      "v": 115
    },
    {
      "midi": 60,
      "hit": false,
      "t": 173076.37499999997,
      "d": 1798.0712291666714,
      "v": 100
    },
    {
      "midi": 58,
      "hit": false,
      "t": 174922.523,
      "d": 1682.6869791666686,
      "v": 110
    },
    {
      "midi": 60,
      "hit": false,
      "t": 177230.20799999998,
      "d": 4730.754249999998,
      "v": 115
    },
    {
      "midi": 65,
      "hit": false,
      "t": 178614.819,
      "d": 1302.880489583331,
      "v": 110
    },
    {
      "midi": 69,
      "hit": false,
      "t": 179999.43,
      "d": 423.0755833333242,
      "v": 110
    },
    {
      "midi": 67,
      "hit": false,
      "t": 180460.96699999998,
      "d": 1812.4942604166863,
      "v": 110
    },
    {
      "midi": 77,
      "hit": false,
      "t": 183691.726,
      "d": 221.1531458333193,
      "v": 120
    },
    {
      "midi": 76,
      "hit": false,
      "t": 183922.49449999997,
      "d": 173.0763750000042,
      "v": 116
    },
    {
      "midi": 77,
      "hit": false,
      "t": 184153.26299999998,
      "d": 499.9984166666691,
      "v": 115
    },
    {
      "midi": 72,
      "hit": false,
      "t": 184614.8,
      "d": 447.1139687499963,
      "v": 100
    },
    {
      "midi": 69,
      "hit": false,
      "t": 185076.33699999997,
      "d": 399.0371979166812,
      "v": 110
    },
    {
      "midi": 65,
      "hit": false,
      "t": 185537.87399999998,
      "d": 3620.180843750015,
      "v": 105
    },
    {
      "midi": 70,
      "hit": false,
      "t": 185999.411,
      "d": 1894.2247708333307,
      "v": 110
    },
    {
      "midi": 69,
      "hit": false,
      "t": 187845.55899999998,
      "d": 1158.6501770833565,
      "v": 100
    },
    {
      "midi": 55,
      "hit": false,
      "t": 190153.244,
      "d": 399.0371979166812,
      "v": 110
    },
    {
      "midi": 57,
      "hit": false,
      "t": 190614.78100000002,
      "d": 389.4218437499949,
      "v": 105
    },
    {
      "midi": 58,
      "hit": false,
      "t": 191076.318,
      "d": 389.4218437499949,
      "v": 105
    },
    {
      "midi": 60,
      "hit": false,
      "t": 191537.85499999998,
      "d": 668.2671145833447,
      "v": 105
    },
    {
      "midi": 62,
      "hit": false,
      "t": 192230.1605,
      "d": 634.6133749999863,
      "v": 115
    },
    {
      "midi": 64,
      "hit": false,
      "t": 192922.466,
      "d": 374.9988125000091,
      "v": 109
    },
    {
      "midi": 65,
      "hit": false,
      "t": 193384.003,
      "d": 1355.7649375000037,
      "v": 96
    },
    {
      "midi": 60,
      "hit": false,
      "t": 194768.614,
      "d": 201.9224375000049,
      "v": 78
    },
    {
      "midi": 69,
      "hit": false,
      "t": 194999.3825,
      "d": 216.3454687499907,
      "v": 105
    },
    {
      "midi": 67,
      "hit": false,
      "t": 195230.15099999998,
      "d": 1807.6865833333286,
      "v": 115
    },
    {
      "midi": 60,
      "hit": false,
      "t": 196153.22499999998,
      "d": 620.1903437500005,
      "v": 74
    },
    {
      "midi": 62,
      "hit": false,
      "t": 197076.29899999997,
      "d": 1024.0352187500102,
      "v": 105
    },
    {
      "midi": 69,
      "hit": false,
      "t": 198922.447,
      "d": 370.1911354166805,
      "v": 105
    },
    {
      "midi": 77,
      "hit": false,
      "t": 198922.447,
      "d": 394.2295208333526,
      "v": 120
    },
    {
      "midi": 69,
      "hit": false,
      "t": 199383.984,
      "d": 144.2303125000035,
      "v": 62
    },
    {
      "midi": 76,
      "hit": false,
      "t": 199383.984,
      "d": 163.461020833347,
      "v": 116
    },
    {
      "midi": 69,
      "hit": false,
      "t": 199614.7525,
      "d": 129.8072812499886,
      "v": 89
    },
    {
      "midi": 72,
      "hit": false,
      "t": 199614.7525,
      "d": 682.6901458333305,
      "v": 100
    },
    {
      "midi": 69,
      "hit": false,
      "t": 200307.058,
      "d": 437.4986145833391,
      "v": 100
    },
    {
      "midi": 70,
      "hit": false,
      "t": 200768.595,
      "d": 1235.5730104166723,
      "v": 92
    },
    {
      "midi": 60,
      "hit": false,
      "t": 202614.74300000002,
      "d": 432.6909375000105,
      "v": 57
    },
    {
      "midi": 62,
      "hit": false,
      "t": 203076.28000000003,
      "d": 399.0371979166812,
      "v": 105
    },
    {
      "midi": 64,
      "hit": false,
      "t": 203537.81700000004,
      "d": 822.1127812500054,
      "v": 121
    },
    {
      "midi": 65,
      "hit": false,
      "t": 204460.89100000003,
      "d": 2293.261968750012,
      "v": 100
    },
    {
      "midi": 72,
      "hit": false,
      "t": 206768.57600000003,
      "d": 206.7301145833335,
      "v": 120
    },
    {
      "midi": 65,
      "hit": false,
      "t": 206999.34450000004,
      "d": 221.1531458333193,
      "v": 80
    },
    {
      "midi": 77,
      "hit": false,
      "t": 207230.113,
      "d": 807.6897499999905,
      "v": 115
    },
    {
      "midi": 67,
      "hit": false,
      "t": 209076.261,
      "d": 360.5757812499942,
      "v": 100
    },
    {
      "midi": 65,
      "hit": false,
      "t": 209537.79799999998,
      "d": 197.1147604166763,
      "v": 115
    },
    {
      "midi": 64,
      "hit": false,
      "t": 209768.5665,
      "d": 240.3838541666628,
      "v": 109
    },
    {
      "midi": 60,
      "hit": false,
      "t": 209999.335,
      "d": 2870.1832187499967,
      "v": 100
    },
    {
      "midi": 65,
      "hit": false,
      "t": 214153.16799999998,
      "d": 211.5377916666621,
      "v": 115
    },
    {
      "midi": 67,
      "hit": false,
      "t": 214383.93649999998,
      "d": 158.6533437499893,
      "v": 92
    },
    {
      "midi": 69,
      "hit": false,
      "t": 214614.70499999996,
      "d": 923.0739999999932,
      "v": 115
    },
    {
      "midi": 67,
      "hit": false,
      "t": 215537.77899999995,
      "d": 2620.1840104166768,
      "v": 89
    },
    {
      "midi": 64,
      "hit": false,
      "t": 218307.00099999996,
      "d": 874.9972291666782,
      "v": 116
    },
    {
      "midi": 65,
      "hit": false,
      "t": 219230.07499999998,
      "d": 610.5749895833433,
      "v": 92
    },
    {
      "midi": 65,
      "hit": false,
      "t": 219922.3805,
      "d": 567.3058958333277,
      "v": 80
    },
    {
      "midi": 65,
      "hit": false,
      "t": 220614.686,
      "d": 1302.880489583331,
      "v": 105
    },
    {
      "midi": 72,
      "hit": false,
      "t": 221999.297,
      "d": 235.5761770833342,
      "v": 105
    },
    {
      "midi": 69,
      "hit": false,
      "t": 222230.0655,
      "d": 197.1147604166763,
      "v": 100
    },
    {
      "midi": 67,
      "hit": false,
      "t": 222460.834,
      "d": 206.7301145833335,
      "v": 92
    },
    {
      "midi": 65,
      "hit": false,
      "t": 222691.6025,
      "d": 182.6917291666614,
      "v": 105
    },
    {
      "midi": 64,
      "hit": false,
      "t": 222922.371,
      "d": 1533.6489895833365,
      "v": 116
    },
    {
      "midi": 67,
      "hit": false,
      "t": 224999.2875,
      "d": 67.3074791666586,
      "v": 92
    },
    {
      "midi": 60,
      "hit": false,
      "t": 224999.2875,
      "d": 72.1151562499872,
      "v": 96
    },
    {
      "midi": 58,
      "hit": false,
      "t": 225691.593,
      "d": 812.497427083319,
      "v": 110
    },
    {
      "midi": 67,
      "hit": false,
      "t": 225691.593,
      "d": 817.3051041666477,
      "v": 105
    },
    {
      "midi": 60,
      "hit": false,
      "t": 225691.593,
      "d": 831.7281354166334,
      "v": 110
    },
    {
      "midi": 60,
      "hit": false,
      "t": 227306.97249999997,
      "d": 52.8844479166728,
      "v": 83
    },
    {
      "midi": 67,
      "hit": false,
      "t": 227537.74099999998,
      "d": 216.3454687499907,
      "v": 124
    },
    {
      "midi": 65,
      "hit": false,
      "t": 227768.50949999996,
      "d": 163.461020833347,
      "v": 89
    },
    {
      "midi": 60,
      "hit": false,
      "t": 227999.27799999996,
      "d": 134.6149583333463,
      "v": 78
    },
    {
      "midi": 69,
      "hit": false,
      "t": 228230.04649999997,
      "d": 894.2279374999925,
      "v": 115
    },
    {
      "midi": 60,
      "hit": false,
      "t": 229153.12049999996,
      "d": 144.2303125000035,
      "v": 70
    },
    {
      "midi": 65,
      "hit": false,
      "t": 229383.88899999997,
      "d": 437.4986145833391,
      "v": 115
    },
    {
      "midi": 60,
      "hit": false,
      "t": 230306.96299999996,
      "d": 807.6897499999905,
      "v": 76
    },
    {
      "midi": 62,
      "hit": false,
      "t": 231230.03699999995,
      "d": 206.7301145833335,
      "v": 96
    },
    {
      "midi": 60,
      "hit": false,
      "t": 231460.80549999996,
      "d": 120.1919270833314,
      "v": 40
    },
    {
      "midi": 64,
      "hit": false,
      "t": 231691.57399999996,
      "d": 158.6533437499893,
      "v": 121
    },
    {
      "midi": 67,
      "hit": false,
      "t": 231922.34249999994,
      "d": 1975.9552812500042,
      "v": 86
    },
    {
      "midi": 60,
      "hit": false,
      "t": 233076.18499999994,
      "d": 399.0371979166812,
      "v": 89
    },
    {
      "midi": 72,
      "hit": false,
      "t": 234460.79599999994,
      "d": 153.8456666666607,
      "v": 83
    },
    {
      "midi": 74,
      "hit": false,
      "t": 234691.56449999995,
      "d": 350.960427083337,
      "v": 110
    },
    {
      "midi": 72,
      "hit": false,
      "t": 235153.10149999996,
      "d": 105.7688958333456,
      "v": 78
    },
    {
      "midi": 74,
      "hit": false,
      "t": 235383.86999999997,
      "d": 96.1535416666593,
      "v": 92
    },
    {
      "midi": 77,
      "hit": false,
      "t": 235614.63849999997,
      "d": 509.6137708333554,
      "v": 110
    },
    {
      "midi": 72,
      "hit": false,
      "t": 236076.17549999998,
      "d": 124.9996041666891,
      "v": 72
    },
    {
      "midi": 74,
      "hit": false,
      "t": 236306.94400000002,
      "d": 197.1147604166763,
      "v": 83
    },
    {
      "midi": 72,
      "hit": false,
      "t": 236537.71250000002,
      "d": 120.1919270833314,
      "v": 76
    },
    {
      "midi": 77,
      "hit": false,
      "t": 236768.48100000003,
      "d": 485.57538541665417,
      "v": 100
    },
    {
      "midi": 60,
      "hit": false,
      "t": 238268.47625,
      "d": 168.2686979166756,
      "v": 34
    },
    {
      "midi": 67,
      "hit": false,
      "t": 238614.62900000002,
      "d": 379.8064895833377,
      "v": 96
    },
    {
      "midi": 65,
      "hit": false,
      "t": 239076.16600000003,
      "d": 182.6917291666614,
      "v": 78
    },
    {
      "midi": 64,
      "hit": false,
      "t": 239306.93450000003,
      "d": 201.9224375000049,
      "v": 116
    },
    {
      "midi": 60,
      "hit": false,
      "t": 239537.70300000004,
      "d": 1216.3423020833288,
      "v": 110
    },
    {
      "midi": 65,
      "hit": false,
      "t": 241383.85100000002,
      "d": 379.8064895833377,
      "v": 115
    },
    {
      "midi": 67,
      "hit": false,
      "t": 241845.38800000004,
      "d": 182.6917291666614,
      "v": 92
    },
    {
      "midi": 69,
      "hit": false,
      "t": 242076.15650000004,
      "d": 124.99960416665999,
      "v": 92
    },
    {
      "midi": 62,
      "hit": false,
      "t": 242306.92500000005,
      "d": 754.8053020833468,
      "v": 110
    },
    {
      "midi": 70,
      "hit": false,
      "t": 242306.92500000005,
      "d": 831.7281354166917,
      "v": 110
    },
    {
      "midi": 60,
      "hit": false,
      "t": 243229.99900000007,
      "d": 3620.180843750015,
      "v": 110
    },
    {
      "midi": 69,
      "hit": false,
      "t": 243229.99900000007,
      "d": 3639.4115520833584,
      "v": 115
    }
  ]
}