{
  "jsonPath": "Rock/Album Rock/Survivor/everlasting.json",
  "path": "Rock\\Album Rock\\Survivor\\Everlasting.mid",
  "name": "Everlasting",
  "difficulty": "Advanced",
  "bpm": 136.0019946959222,
  "notes": [
    {
      "midi": 57,
      "hit": false,
      "t": 5294.040000000001,
      "d": 1741.702395833333,
      "v": 127
    },
    {
      "midi": 41,
      "hit": false,
      "t": 5294.040000000001,
      "d": 1252.2794270833338,
      "v": 127
    },
    {
      "midi": 57,
      "hit": false,
      "t": 5294.040000000001,
      "d": 1266.0659895833342,
      "v": 83
    },
    {
      "midi": 49,
      "hit": false,
      "t": 5294.040000000001,
      "d": 1286.7458333333343,
      "v": 69
    },
    {
      "midi": 64,
      "hit": false,
      "t": 5514.625000000001,
      "d": 280.3267708333333,
      "v": 127
    },
    {
      "midi": 72,
      "hit": false,
      "t": 5735.210000000001,
      "d": 248.15812499999993,
      "v": 127
    },
    {
      "midi": 64,
      "hit": false,
      "t": 5955.795000000001,
      "d": 255.05140624999967,
      "v": 127
    },
    {
      "midi": 71,
      "hit": false,
      "t": 6176.380000000001,
      "d": 220.58500000000004,
      "v": 127
    },
    {
      "midi": 64,
      "hit": false,
      "t": 6396.965000000001,
      "d": 248.15812499999993,
      "v": 127
    },
    {
      "midi": 69,
      "hit": false,
      "t": 6617.550000000001,
      "d": 218.28723958333285,
      "v": 127
    },
    {
      "midi": 64,
      "hit": false,
      "t": 6838.135,
      "d": 220.58500000000004,
      "v": 127
    },
    {
      "midi": 53,
      "hit": false,
      "t": 7058.72,
      "d": 1757.7867187499987,
      "v": 127
    },
    {
      "midi": 65,
      "hit": false,
      "t": 7279.305,
      "d": 209.09619791666682,
      "v": 127
    },
    {
      "midi": 72,
      "hit": false,
      "t": 7499.89,
      "d": 238.967083333333,
      "v": 127
    },
    {
      "midi": 65,
      "hit": false,
      "t": 7720.475,
      "d": 222.88276041666631,
      "v": 127
    },
    {
      "midi": 71,
      "hit": false,
      "t": 7941.06,
      "d": 215.98947916666657,
      "v": 127
    },
    {
      "midi": 65,
      "hit": false,
      "t": 8161.645,
      "d": 215.98947916666657,
      "v": 127
    },
    {
      "midi": 69,
      "hit": false,
      "t": 8382.23,
      "d": 220.58499999999913,
      "v": 127
    },
    {
      "midi": 65,
      "hit": false,
      "t": 8602.814999999999,
      "d": 220.58500000000095,
      "v": 127
    },
    {
      "midi": 55,
      "hit": false,
      "t": 8823.4,
      "d": 1760.084479166664,
      "v": 127
    },
    {
      "midi": 62,
      "hit": false,
      "t": 9043.984999999999,
      "d": 218.28723958333285,
      "v": 127
    },
    {
      "midi": 71,
      "hit": false,
      "t": 9264.569999999998,
      "d": 195.30963541666642,
      "v": 127
    },
    {
      "midi": 62,
      "hit": false,
      "t": 9485.154999999997,
      "d": 252.75364583333248,
      "v": 127
    },
    {
      "midi": 69,
      "hit": false,
      "t": 9705.739999999996,
      "d": 213.6917187500003,
      "v": 127
    },
    {
      "midi": 62,
      "hit": false,
      "t": 9926.324999999997,
      "d": 227.47828124999978,
      "v": 127
    },
    {
      "midi": 67,
      "hit": false,
      "t": 10146.909999999996,
      "d": 229.77604166666788,
      "v": 127
    },
    {
      "midi": 62,
      "hit": false,
      "t": 10367.494999999997,
      "d": 232.07380208333234,
      "v": 127
    },
    {
      "midi": 52,
      "hit": false,
      "t": 10588.079999999996,
      "d": 1629.1121354166626,
      "v": 127
    },
    {
      "midi": 64,
      "hit": false,
      "t": 10808.664999999995,
      "d": 188.41635416666577,
      "v": 127
    },
    {
      "midi": 71,
      "hit": false,
      "t": 11029.249999999995,
      "d": 186.1185937499995,
      "v": 127
    },
    {
      "midi": 64,
      "hit": false,
      "t": 11249.834999999994,
      "d": 234.37156249999862,
      "v": 127
    },
    {
      "midi": 69,
      "hit": false,
      "t": 11470.419999999993,
      "d": 186.1185937499995,
      "v": 127
    },
    {
      "midi": 64,
      "hit": false,
      "t": 11691.004999999992,
      "d": 209.09619791666591,
      "v": 127
    },
    {
      "midi": 67,
      "hit": false,
      "t": 11911.589999999991,
      "d": 193.01187500000015,
      "v": 127
    },
    {
      "midi": 64,
      "hit": false,
      "t": 12132.174999999992,
      "d": 220.58500000000095,
      "v": 127
    },
    {
      "midi": 57,
      "hit": false,
      "t": 12352.759999999993,
      "d": 1741.702395833332,
      "v": 127
    },
    {
      "midi": 64,
      "hit": false,
      "t": 12573.344999999992,
      "d": 280.3267708333333,
      "v": 127
    },
    {
      "midi": 72,
      "hit": false,
      "t": 12793.929999999991,
      "d": 248.15812500000175,
      "v": 127
    },
    {
      "midi": 64,
      "hit": false,
      "t": 13014.514999999992,
      "d": 255.05140625000058,
      "v": 127
    },
    {
      "midi": 71,
      "hit": false,
      "t": 13235.099999999993,
      "d": 220.58499999999913,
      "v": 127
    },
    {
      "midi": 64,
      "hit": false,
      "t": 13455.684999999992,
      "d": 248.15812499999993,
      "v": 127
    },
    {
      "midi": 69,
      "hit": false,
      "t": 13676.269999999991,
      "d": 218.28723958333467,
      "v": 127
    },
    {
      "midi": 64,
      "hit": false,
      "t": 13896.854999999992,
      "d": 220.58499999999913,
      "v": 127
    },
    {
      "midi": 53,
      "hit": false,
      "t": 14117.439999999991,
      "d": 1757.786718749996,
      "v": 127
    },
    {
      "midi": 65,
      "hit": false,
      "t": 14338.02499999999,
      "d": 209.09619791666591,
      "v": 127
    },
    {
      "midi": 72,
      "hit": false,
      "t": 14558.60999999999,
      "d": 238.967083333333,
      "v": 127
    },
    {
      "midi": 65,
      "hit": false,
      "t": 14779.194999999989,
      "d": 222.88276041666722,
      "v": 127
    },
    {
      "midi": 71,
      "hit": false,
      "t": 14999.77999999999,
      "d": 215.98947916666657,
      "v": 127
    },
    {
      "midi": 65,
      "hit": false,
      "t": 15220.364999999989,
      "d": 215.98947916666657,
      "v": 127
    },
    {
      "midi": 69,
      "hit": false,
      "t": 15440.949999999988,
      "d": 220.58499999999913,
      "v": 127
    },
    {
      "midi": 65,
      "hit": false,
      "t": 15661.534999999987,
      "d": 220.58500000000095,
      "v": 127
    },
    {
      "midi": 55,
      "hit": false,
      "t": 15882.119999999988,
      "d": 1760.0844791666568,
      "v": 127
    },
    {
      "midi": 62,
      "hit": false,
      "t": 16102.704999999987,
      "d": 218.28723958333285,
      "v": 127
    },
    {
      "midi": 71,
      "hit": false,
      "t": 16323.289999999986,
      "d": 195.30963541666642,
      "v": 127
    },
    {
      "midi": 62,
      "hit": false,
      "t": 16543.874999999985,
      "d": 252.75364583333067,
      "v": 127
    },
    {
      "midi": 69,
      "hit": false,
      "t": 16764.459999999985,
      "d": 213.69171874999665,
      "v": 127
    },
    {
      "midi": 62,
      "hit": false,
      "t": 16985.04499999998,
      "d": 227.47828124999796,
      "v": 127
    },
    {
      "midi": 67,
      "hit": false,
      "t": 17205.62999999998,
      "d": 229.77604166666424,
      "v": 127
    },
    {
      "midi": 62,
      "hit": false,
      "t": 17426.21499999998,
      "d": 232.07380208333416,
      "v": 127
    },
    {
      "midi": 52,
      "hit": false,
      "t": 17646.799999999977,
      "d": 1629.1121354166753,
      "v": 127
    },
    {
      "midi": 64,
      "hit": false,
      "t": 17867.38499999998,
      "d": 188.4163541666676,
      "v": 127
    },
    {
      "midi": 71,
      "hit": false,
      "t": 18087.96999999998,
      "d": 186.1185937500013,
      "v": 127
    },
    {
      "midi": 64,
      "hit": false,
      "t": 18308.554999999982,
      "d": 234.37156250000044,
      "v": 127
    },
    {
      "midi": 52,
      "hit": false,
      "t": 18308.555,
      "d": 193.01187500000015,
      "v": 127
    },
    {
      "midi": 69,
      "hit": false,
      "t": 18529.13999999998,
      "d": 186.1185937500013,
      "v": 127
    },
    {
      "midi": 64,
      "hit": false,
      "t": 18749.724999999984,
      "d": 209.09619791666773,
      "v": 127
    },
    {
      "midi": 67,
      "hit": false,
      "t": 18970.309999999987,
      "d": 193.01187500000015,
      "v": 127
    },
    {
      "midi": 64,
      "hit": false,
      "t": 19190.894999999986,
      "d": 220.58499999999913,
      "v": 127
    },
    {
      "midi": 42,
      "hit": false,
      "t": 19190.895,
      "d": 43.65744791666657,
      "v": 127
    },
    {
      "midi": 41,
      "hit": false,
      "t": 19190.895,
      "d": 85.01713541666686,
      "v": 90
    },
    {
      "midi": 42,
      "hit": false,
      "t": 19301.1875,
      "d": 68.93281249999927,
      "v": 100
    },
    {
      "midi": 64,
      "hit": false,
      "t": 19411.479999999985,
      "d": 160.84322916666497,
      "v": 127
    },
    {
      "midi": 69,
      "hit": false,
      "t": 19411.479999999985,
      "d": 160.84322916666497,
      "v": 127
    },
    {
      "midi": 72,
      "hit": false,
      "t": 19411.479999999985,
      "d": 160.84322916666497,
      "v": 127
    },
    {
      "midi": 41,
      "hit": false,
      "t": 19411.48,
      "d": 1252.2794270833328,
      "v": 90
    },
    {
      "midi": 57,
      "hit": false,
      "t": 19411.48,
      "d": 1266.0659895833342,
      "v": 83
    },
    {
      "midi": 49,
      "hit": false,
      "t": 19411.48,
      "d": 1286.7458333333343,
      "v": 69
    },
    {
      "midi": 64,
      "hit": false,
      "t": 19742.357499999984,
      "d": 160.84322916666497,
      "v": 127
    },
    {
      "midi": 69,
      "hit": false,
      "t": 19742.357499999984,
      "d": 160.84322916666497,
      "v": 127
    },
    {
      "midi": 72,
      "hit": false,
      "t": 19742.357499999984,
      "d": 160.84322916666497,
      "v": 127
    },
    {
      "midi": 69,
      "hit": false,
      "t": 20073.234999999982,
      "d": 160.84322916666497,
      "v": 127
    },
    {
      "midi": 72,
      "hit": false,
      "t": 20073.234999999982,
      "d": 160.84322916666497,
      "v": 127
    },
    {
      "midi": 76,
      "hit": false,
      "t": 20073.234999999982,
      "d": 160.84322916666497,
      "v": 127
    },
    {
      "midi": 64,
      "hit": false,
      "t": 20514.40499999998,
      "d": 160.84322916666497,
      "v": 127
    },
    {
      "midi": 69,
      "hit": false,
      "t": 20514.40499999998,
      "d": 160.84322916666497,
      "v": 127
    },
    {
      "midi": 72,
      "hit": false,
      "t": 20514.40499999998,
      "d": 160.84322916666497,
      "v": 127
    },
    {
      "midi": 64,
      "hit": false,
      "t": 20955.57499999998,
      "d": 160.84322916666497,
      "v": 127
    },
    {
      "midi": 69,
      "hit": false,
      "t": 20955.57499999998,
      "d": 160.84322916666497,
      "v": 127
    },
    {
      "midi": 72,
      "hit": false,
      "t": 20955.57499999998,
      "d": 160.84322916666497,
      "v": 127
    },
    {
      "midi": 65,
      "hit": false,
      "t": 21176.159999999978,
      "d": 160.84322916666497,
      "v": 127
    },
    {
      "midi": 69,
      "hit": false,
      "t": 21176.159999999978,
      "d": 160.84322916666497,
      "v": 127
    },
    {
      "midi": 72,
      "hit": false,
      "t": 21176.159999999978,
      "d": 160.84322916666497,
      "v": 127
    },
    {
      "midi": 65,
      "hit": false,
      "t": 21507.037499999977,
      "d": 160.84322916666497,
      "v": 127
    },
    {
      "midi": 69,
      "hit": false,
      "t": 21507.037499999977,
      "d": 160.84322916666497,
      "v": 127
    },
    {
      "midi": 72,
      "hit": false,
      "t": 21507.037499999977,
      "d": 160.84322916666497,
      "v": 127
    },
    {
      "midi": 69,
      "hit": false,
      "t": 21837.914999999975,
      "d": 160.84322916666497,
      "v": 127
    },
    {
      "midi": 72,
      "hit": false,
      "t": 21837.914999999975,
      "d": 160.84322916666497,
      "v": 127
    },
    {
      "midi": 77,
      "hit": false,
      "t": 21837.914999999975,
      "d": 160.84322916666497,
      "v": 127
    },
    {
      "midi": 67,
      "hit": false,
      "t": 22279.084999999974,
      "d": 160.84322916666497,
      "v": 127
    },
    {
      "midi": 72,
      "hit": false,
      "t": 22279.084999999974,
      "d": 160.84322916666497,
      "v": 127
    },
    {
      "midi": 76,
      "hit": false,
      "t": 22279.084999999974,
      "d": 160.84322916666497,
      "v": 127
    },
    {
      "midi": 67,
      "hit": false,
      "t": 22720.254999999972,
      "d": 160.84322916666497,
      "v": 127
    },
    {
      "midi": 71,
      "hit": false,
      "t": 22720.254999999972,
      "d": 160.84322916666497,
      "v": 127
    },
    {
      "midi": 74,
      "hit": false,
      "t": 22720.254999999972,
      "d": 160.84322916666497,
      "v": 127
    },
    {
      "midi": 67,
      "hit": false,
      "t": 22940.83999999997,
      "d": 160.84322916666497,
      "v": 127
    },
    {
      "midi": 71,
      "hit": false,
      "t": 22940.83999999997,
      "d": 160.84322916666497,
      "v": 127
    },
    {
      "midi": 74,
      "hit": false,
      "t": 22940.83999999997,
      "d": 160.84322916666497,
      "v": 127
    },
    {
      "midi": 67,
      "hit": false,
      "t": 23271.71749999997,
      "d": 160.84322916666497,
      "v": 127
    },
    {
      "midi": 71,
      "hit": false,
      "t": 23271.71749999997,
      "d": 160.84322916666497,
      "v": 127
    },
    {
      "midi": 74,
      "hit": false,
      "t": 23271.71749999997,
      "d": 160.84322916666497,
      "v": 127
    },
    {
      "midi": 62,
      "hit": false,
      "t": 23602.59499999997,
      "d": 160.84322916666497,
      "v": 127
    },
    {
      "midi": 67,
      "hit": false,
      "t": 23602.59499999997,
      "d": 160.84322916666497,
      "v": 127
    },
    {
      "midi": 71,
      "hit": false,
      "t": 23602.59499999997,
      "d": 160.84322916666497,
      "v": 127
    },
    {
      "midi": 67,
      "hit": false,
      "t": 24043.764999999967,
      "d": 160.84322916666497,
      "v": 127
    },
    {
      "midi": 71,
      "hit": false,
      "t": 24043.764999999967,
      "d": 160.84322916666497,
      "v": 127
    },
    {
      "midi": 74,
      "hit": false,
      "t": 24043.764999999967,
      "d": 160.84322916666497,
      "v": 127
    },
    {
      "midi": 69,
      "hit": false,
      "t": 24484.934999999965,
      "d": 160.84322916666497,
      "v": 127
    },
    {
      "midi": 71,
      "hit": false,
      "t": 24484.934999999965,
      "d": 160.84322916666497,
      "v": 127
    },
    {
      "midi": 74,
      "hit": false,
      "t": 24484.934999999965,
      "d": 160.84322916666497,
      "v": 127
    },
    {
      "midi": 67,
      "hit": false,
      "t": 24705.519999999964,
      "d": 160.84322916666497,
      "v": 127
    },
    {
      "midi": 71,
      "hit": false,
      "t": 24705.519999999964,
      "d": 160.84322916666497,
      "v": 127
    },
    {
      "midi": 74,
      "hit": false,
      "t": 24705.519999999964,
      "d": 160.84322916666497,
      "v": 127
    },
    {
      "midi": 67,
      "hit": false,
      "t": 25036.397499999963,
      "d": 160.84322916666497,
      "v": 127
    },
    {
      "midi": 71,
      "hit": false,
      "t": 25036.397499999963,
      "d": 160.84322916666497,
      "v": 127
    },
    {
      "midi": 74,
      "hit": false,
      "t": 25036.397499999963,
      "d": 160.84322916666497,
      "v": 127
    },
    {
      "midi": 64,
      "hit": false,
      "t": 25367.27499999996,
      "d": 160.84322916666497,
      "v": 127
    },
    {
      "midi": 67,
      "hit": false,
      "t": 25367.27499999996,
      "d": 160.84322916666497,
      "v": 127
    },
    {
      "midi": 71,
      "hit": false,
      "t": 25367.27499999996,
      "d": 160.84322916666497,
      "v": 127
    },
    {
      "midi": 67,
      "hit": false,
      "t": 25808.44499999996,
      "d": 160.84322916666497,
      "v": 127
    },
    {
      "midi": 71,
      "hit": false,
      "t": 25808.44499999996,
      "d": 160.84322916666497,
      "v": 127
    },
    {
      "midi": 74,
      "hit": false,
      "t": 25808.44499999996,
      "d": 160.84322916666497,
      "v": 127
    },
    {
      "midi": 77,
      "hit": false,
      "t": 25808.44499999996,
      "d": 160.84322916666497,
      "v": 127
    },
    {
      "midi": 69,
      "hit": false,
      "t": 26249.614999999958,
      "d": 160.84322916666497,
      "v": 127
    },
    {
      "midi": 72,
      "hit": false,
      "t": 26249.614999999958,
      "d": 160.84322916666497,
      "v": 127
    },
    {
      "midi": 76,
      "hit": false,
      "t": 26249.614999999958,
      "d": 160.84322916666497,
      "v": 127
    },
    {
      "midi": 64,
      "hit": false,
      "t": 26470.199999999957,
      "d": 160.84322916666497,
      "v": 127
    },
    {
      "midi": 69,
      "hit": false,
      "t": 26470.199999999957,
      "d": 160.84322916666497,
      "v": 127
    },
    {
      "midi": 72,
      "hit": false,
      "t": 26470.199999999957,
      "d": 160.84322916666497,
      "v": 127
    },
    {
      "midi": 64,
      "hit": false,
      "t": 26801.077499999956,
      "d": 160.84322916666497,
      "v": 127
    },
    {
      "midi": 69,
      "hit": false,
      "t": 26801.077499999956,
      "d": 160.84322916666497,
      "v": 127
    },
    {
      "midi": 72,
      "hit": false,
      "t": 26801.077499999956,
      "d": 160.84322916666497,
      "v": 127
    },
    {
      "midi": 69,
      "hit": false,
      "t": 27131.954999999954,
      "d": 160.84322916666497,
      "v": 127
    },
    {
      "midi": 72,
      "hit": false,
      "t": 27131.954999999954,
      "d": 160.84322916666497,
      "v": 127
    },
    {
      "midi": 76,
      "hit": false,
      "t": 27131.954999999954,
      "d": 160.84322916666497,
      "v": 127
    },
    {
      "midi": 64,
      "hit": false,
      "t": 27573.124999999953,
      "d": 160.84322916666497,
      "v": 127
    },
    {
      "midi": 69,
      "hit": false,
      "t": 27573.124999999953,
      "d": 160.84322916666497,
      "v": 127
    },
    {
      "midi": 72,
      "hit": false,
      "t": 27573.124999999953,
      "d": 160.84322916666497,
      "v": 127
    },
    {
      "midi": 64,
      "hit": false,
      "t": 28014.29499999995,
      "d": 160.84322916666497,
      "v": 127
    },
    {
      "midi": 69,
      "hit": false,
      "t": 28014.29499999995,
      "d": 160.84322916666497,
      "v": 127
    },
    {
      "midi": 72,
      "hit": false,
      "t": 28014.29499999995,
      "d": 160.84322916666497,
      "v": 127
    },
    {
      "midi": 65,
      "hit": false,
      "t": 28234.87999999995,
      "d": 160.84322916666497,
      "v": 127
    },
    {
      "midi": 69,
      "hit": false,
      "t": 28234.87999999995,
      "d": 160.84322916666497,
      "v": 127
    },
    {
      "midi": 72,
      "hit": false,
      "t": 28234.87999999995,
      "d": 160.84322916666497,
      "v": 127
    },
    {
      "midi": 65,
      "hit": false,
      "t": 28565.75749999995,
      "d": 160.84322916666497,
      "v": 127
    },
    {
      "midi": 69,
      "hit": false,
      "t": 28565.75749999995,
      "d": 160.84322916666497,
      "v": 127
    },
    {
      "midi": 72,
      "hit": false,
      "t": 28565.75749999995,
      "d": 160.84322916666497,
      "v": 127
    },
    {
      "midi": 69,
      "hit": false,
      "t": 28896.634999999947,
      "d": 160.84322916666497,
      "v": 127
    },
    {
      "midi": 72,
      "hit": false,
      "t": 28896.634999999947,
      "d": 160.84322916666497,
      "v": 127
    },
    {
      "midi": 77,
      "hit": false,
      "t": 28896.634999999947,
      "d": 160.84322916666497,
      "v": 127
    },
    {
      "midi": 67,
      "hit": false,
      "t": 29337.804999999946,
      "d": 160.84322916666497,
      "v": 127
    },
    {
      "midi": 72,
      "hit": false,
      "t": 29337.804999999946,
      "d": 160.84322916666497,
      "v": 127
    },
    {
      "midi": 76,
      "hit": false,
      "t": 29337.804999999946,
      "d": 160.84322916666497,
      "v": 127
    },
    {
      "midi": 67,
      "hit": false,
      "t": 29778.974999999944,
      "d": 160.84322916666497,
      "v": 127
    },
    {
      "midi": 71,
      "hit": false,
      "t": 29778.974999999944,
      "d": 160.84322916666497,
      "v": 127
    },
    {
      "midi": 74,
      "hit": false,
      "t": 29778.974999999944,
      "d": 160.84322916666497,
      "v": 127
    },
    {
      "midi": 67,
      "hit": false,
      "t": 29999.559999999943,
      "d": 160.84322916666497,
      "v": 127
    },
    {
      "midi": 71,
      "hit": false,
      "t": 29999.559999999943,
      "d": 160.84322916666497,
      "v": 127
    },
    {
      "midi": 74,
      "hit": false,
      "t": 29999.559999999943,
      "d": 160.84322916666497,
      "v": 127
    },
    {
      "midi": 67,
      "hit": false,
      "t": 30330.43749999994,
      "d": 160.84322916666497,
      "v": 127
    },
    {
      "midi": 71,
      "hit": false,
      "t": 30330.43749999994,
      "d": 160.84322916666497,
      "v": 127
    },
    {
      "midi": 74,
      "hit": false,
      "t": 30330.43749999994,
      "d": 160.84322916666497,
      "v": 127
    },
    {
      "midi": 62,
      "hit": false,
      "t": 30661.31499999994,
      "d": 160.84322916666497,
      "v": 127
    },
    {
      "midi": 67,
      "hit": false,
      "t": 30661.31499999994,
      "d": 160.84322916666497,
      "v": 127
    },
    {
      "midi": 71,
      "hit": false,
      "t": 30661.31499999994,
      "d": 160.84322916666497,
      "v": 127
    },
    {
      "midi": 67,
      "hit": false,
      "t": 31102.48499999994,
      "d": 160.84322916666497,
      "v": 127
    },
    {
      "midi": 71,
      "hit": false,
      "t": 31102.48499999994,
      "d": 160.84322916666497,
      "v": 127
    },
    {
      "midi": 74,
      "hit": false,
      "t": 31102.48499999994,
      "d": 160.84322916666497,
      "v": 127
    },
    {
      "midi": 69,
      "hit": false,
      "t": 31543.654999999937,
      "d": 160.84322916666497,
      "v": 127
    },
    {
      "midi": 71,
      "hit": false,
      "t": 31543.654999999937,
      "d": 160.84322916666497,
      "v": 127
    },
    {
      "midi": 74,
      "hit": false,
      "t": 31543.654999999937,
      "d": 160.84322916666497,
      "v": 127
    },
    {
      "midi": 67,
      "hit": false,
      "t": 31764.239999999936,
      "d": 160.84322916666497,
      "v": 127
    },
    {
      "midi": 71,
      "hit": false,
      "t": 31764.239999999936,
      "d": 160.84322916666497,
      "v": 127
    },
    {
      "midi": 74,
      "hit": false,
      "t": 31764.239999999936,
      "d": 160.84322916666497,
      "v": 127
    },
    {
      "midi": 67,
      "hit": false,
      "t": 32095.117499999935,
      "d": 160.84322916666497,
      "v": 127
    },
    {
      "midi": 71,
      "hit": false,
      "t": 32095.117499999935,
      "d": 160.84322916666497,
      "v": 127
    },
    {
      "midi": 74,
      "hit": false,
      "t": 32095.117499999935,
      "d": 160.84322916666497,
      "v": 127
    },
    {
      "midi": 64,
      "hit": false,
      "t": 32425.994999999933,
      "d": 160.84322916666497,
      "v": 127
    },
    {
      "midi": 67,
      "hit": false,
      "t": 32425.994999999933,
      "d": 160.84322916666497,
      "v": 127
    },
    {
      "midi": 71,
      "hit": false,
      "t": 32425.994999999933,
      "d": 160.84322916666497,
      "v": 127
    },
    {
      "midi": 52,
      "hit": false,
      "t": 32425.995000000003,
      "d": 193.01187500000015,
      "v": 127
    },
    {
      "midi": 67,
      "hit": false,
      "t": 32867.164999999935,
      "d": 160.8432291666686,
      "v": 127
    },
    {
      "midi": 71,
      "hit": false,
      "t": 32867.164999999935,
      "d": 160.8432291666686,
      "v": 127
    },
    {
      "midi": 74,
      "hit": false,
      "t": 32867.164999999935,
      "d": 160.8432291666686,
      "v": 127
    },
    {
      "midi": 77,
      "hit": false,
      "t": 32867.164999999935,
      "d": 160.8432291666686,
      "v": 127
    },
    {
      "midi": 69,
      "hit": false,
      "t": 33308.33499999994,
      "d": 160.8432291666686,
      "v": 127
    },
    {
      "midi": 72,
      "hit": false,
      "t": 33308.33499999994,
      "d": 160.8432291666686,
      "v": 127
    },
    {
      "midi": 76,
      "hit": false,
      "t": 33308.33499999994,
      "d": 160.8432291666686,
      "v": 127
    },
    {
      "midi": 42,
      "hit": false,
      "t": 33308.33500000001,
      "d": 43.65744791666657,
      "v": 127
    },
    {
      "midi": 41,
      "hit": false,
      "t": 33308.33500000001,
      "d": 85.01713541666686,
      "v": 90
    },
    {
      "midi": 49,
      "hit": false,
      "t": 33308.33500000001,
      "d": 94.20817708333198,
      "v": 86
    },
    {
      "midi": 42,
      "hit": false,
      "t": 33418.6275,
      "d": 68.93281250000291,
      "v": 100
    },
    {
      "midi": 64,
      "hit": false,
      "t": 33528.91999999994,
      "d": 160.8432291666686,
      "v": 127
    },
    {
      "midi": 69,
      "hit": false,
      "t": 33528.91999999994,
      "d": 160.8432291666686,
      "v": 127
    },
    {
      "midi": 72,
      "hit": false,
      "t": 33528.91999999994,
      "d": 160.8432291666686,
      "v": 127
    },
    {
      "midi": 42,
      "hit": false,
      "t": 33528.920000000006,
      "d": 82.71937500000058,
      "v": 16
    },
    {
      "midi": 57,
      "hit": false,
      "t": 33528.920000000006,
      "d": 1369.4652083333276,
      "v": 112
    },
    {
      "midi": 42,
      "hit": false,
      "t": 33749.505000000005,
      "d": 147.05666666666366,
      "v": 127
    },
    {
      "midi": 64,
      "hit": false,
      "t": 33859.79749999994,
      "d": 160.8432291666686,
      "v": 127
    },
    {
      "midi": 69,
      "hit": false,
      "t": 33859.79749999994,
      "d": 160.8432291666686,
      "v": 127
    },
    {
      "midi": 72,
      "hit": false,
      "t": 33859.79749999994,
      "d": 160.8432291666686,
      "v": 127
    },
    {
      "midi": 42,
      "hit": false,
      "t": 33970.090000000004,
      "d": 128.67458333333343,
      "v": 26
    },
    {
      "midi": 69,
      "hit": false,
      "t": 34190.674999999945,
      "d": 160.8432291666686,
      "v": 127
    },
    {
      "midi": 72,
      "hit": false,
      "t": 34190.674999999945,
      "d": 160.8432291666686,
      "v": 127
    },
    {
      "midi": 76,
      "hit": false,
      "t": 34190.674999999945,
      "d": 160.8432291666686,
      "v": 127
    },
    {
      "midi": 42,
      "hit": false,
      "t": 34190.675,
      "d": 126.37682291666715,
      "v": 112
    },
    {
      "midi": 42,
      "hit": false,
      "t": 34411.26,
      "d": 128.67458333333343,
      "v": 35
    },
    {
      "midi": 64,
      "hit": false,
      "t": 34631.84499999995,
      "d": 160.8432291666686,
      "v": 127
    },
    {
      "midi": 69,
      "hit": false,
      "t": 34631.84499999995,
      "d": 160.8432291666686,
      "v": 127
    },
    {
      "midi": 72,
      "hit": false,
      "t": 34631.84499999995,
      "d": 160.8432291666686,
      "v": 127
    },
    {
      "midi": 42,
      "hit": false,
      "t": 34631.845,
      "d": 105.69697916666337,
      "v": 127
    },
    {
      "midi": 42,
      "hit": false,
      "t": 34852.43,
      "d": 114.88802083333576,
      "v": 44
    },
    {
      "midi": 64,
      "hit": false,
      "t": 35073.014999999956,
      "d": 160.8432291666686,
      "v": 127
    },
    {
      "midi": 69,
      "hit": false,
      "t": 35073.014999999956,
      "d": 160.8432291666686,
      "v": 127
    },
    {
      "midi": 72,
      "hit": false,
      "t": 35073.014999999956,
      "d": 160.8432291666686,
      "v": 127
    },
    {
      "midi": 42,
      "hit": false,
      "t": 35073.015,
      "d": 98.80369791666453,
      "v": 127
    },
    {
      "midi": 65,
      "hit": false,
      "t": 35293.599999999955,
      "d": 160.8432291666686,
      "v": 127
    },
    {
      "midi": 69,
      "hit": false,
      "t": 35293.599999999955,
      "d": 160.8432291666686,
      "v": 127
    },
    {
      "midi": 72,
      "hit": false,
      "t": 35293.599999999955,
      "d": 160.8432291666686,
      "v": 127
    },
    {
      "midi": 42,
      "hit": false,
      "t": 35293.6,
      "d": 105.69697916666337,
      "v": 72
    },
    {
      "midi": 42,
      "hit": false,
      "t": 35514.185,
      "d": 94.20817708333198,
      "v": 127
    },
    {
      "midi": 65,
      "hit": false,
      "t": 35624.47749999996,
      "d": 160.8432291666686,
      "v": 127
    },
    {
      "midi": 69,
      "hit": false,
      "t": 35624.47749999996,
      "d": 160.8432291666686,
      "v": 127
    },
    {
      "midi": 72,
      "hit": false,
      "t": 35624.47749999996,
      "d": 160.8432291666686,
      "v": 127
    },
    {
      "midi": 42,
      "hit": false,
      "t": 35734.77,
      "d": 71.23057291666919,
      "v": 11
    },
    {
      "midi": 69,
      "hit": false,
      "t": 35955.35499999996,
      "d": 160.8432291666686,
      "v": 127
    },
    {
      "midi": 72,
      "hit": false,
      "t": 35955.35499999996,
      "d": 160.8432291666686,
      "v": 127
    },
    {
      "midi": 77,
      "hit": false,
      "t": 35955.35499999996,
      "d": 160.8432291666686,
      "v": 127
    },
    {
      "midi": 42,
      "hit": false,
      "t": 35955.354999999996,
      "d": 107.99473958333692,
      "v": 127
    },
    {
      "midi": 42,
      "hit": false,
      "t": 36175.94,
      "d": 107.99473958333692,
      "v": 51
    },
    {
      "midi": 67,
      "hit": false,
      "t": 36396.524999999965,
      "d": 160.8432291666686,
      "v": 127
    },
    {
      "midi": 72,
      "hit": false,
      "t": 36396.524999999965,
      "d": 160.8432291666686,
      "v": 127
    },
    {
      "midi": 76,
      "hit": false,
      "t": 36396.524999999965,
      "d": 160.8432291666686,
      "v": 127
    },
    {
      "midi": 42,
      "hit": false,
      "t": 36396.52500000001,
      "d": 87.31489583333314,
      "v": 127
    },
    {
      "midi": 42,
      "hit": false,
      "t": 36617.11000000001,
      "d": 105.69697916666337,
      "v": 21
    },
    {
      "midi": 67,
      "hit": false,
      "t": 36837.69499999997,
      "d": 160.8432291666686,
      "v": 127
    },
    {
      "midi": 71,
      "hit": false,
      "t": 36837.69499999997,
      "d": 160.8432291666686,
      "v": 127
    },
    {
      "midi": 74,
      "hit": false,
      "t": 36837.69499999997,
      "d": 160.8432291666686,
      "v": 127
    },
    {
      "midi": 42,
      "hit": false,
      "t": 36837.69500000001,
      "d": 85.01713541666686,
      "v": 127
    },
    {
      "midi": 67,
      "hit": false,
      "t": 37058.27999999997,
      "d": 160.8432291666686,
      "v": 127
    },
    {
      "midi": 71,
      "hit": false,
      "t": 37058.27999999997,
      "d": 160.8432291666686,
      "v": 127
    },
    {
      "midi": 74,
      "hit": false,
      "t": 37058.27999999997,
      "d": 160.8432291666686,
      "v": 127
    },
    {
      "midi": 42,
      "hit": false,
      "t": 37058.280000000006,
      "d": 66.63505208333663,
      "v": 60
    },
    {
      "midi": 42,
      "hit": false,
      "t": 37278.86500000001,
      "d": 91.9104166666657,
      "v": 127
    },
    {
      "midi": 67,
      "hit": false,
      "t": 37389.15749999997,
      "d": 160.8432291666686,
      "v": 127
    },
    {
      "midi": 71,
      "hit": false,
      "t": 37389.15749999997,
      "d": 160.8432291666686,
      "v": 127
    },
    {
      "midi": 74,
      "hit": false,
      "t": 37389.15749999997,
      "d": 160.8432291666686,
      "v": 127
    },
    {
      "midi": 42,
      "hit": false,
      "t": 37499.45000000001,
      "d": 75.82609375000175,
      "v": 67
    },
    {
      "midi": 62,
      "hit": false,
      "t": 37720.034999999974,
      "d": 160.8432291666686,
      "v": 127
    },
    {
      "midi": 67,
      "hit": false,
      "t": 37720.034999999974,
      "d": 160.8432291666686,
      "v": 127
    },
    {
      "midi": 71,
      "hit": false,
      "t": 37720.034999999974,
      "d": 160.8432291666686,
      "v": 127
    },
    {
      "midi": 42,
      "hit": false,
      "t": 37720.03500000001,
      "d": 89.61265624999942,
      "v": 127
    },
    {
      "midi": 42,
      "hit": false,
      "t": 37940.62000000001,
      "d": 94.20817708333198,
      "v": 38
    },
    {
      "midi": 67,
      "hit": false,
      "t": 38161.20499999998,
      "d": 160.8432291666686,
      "v": 127
    },
    {
      "midi": 71,
      "hit": false,
      "t": 38161.20499999998,
      "d": 160.8432291666686,
      "v": 127
    },
    {
      "midi": 74,
      "hit": false,
      "t": 38161.20499999998,
      "d": 160.8432291666686,
      "v": 127
    },
    {
      "midi": 42,
      "hit": false,
      "t": 38161.20500000001,
      "d": 89.61265624999942,
      "v": 127
    },
    {
      "midi": 42,
      "hit": false,
      "t": 38381.79000000001,
      "d": 91.9104166666657,
      "v": 60
    },
    {
      "midi": 69,
      "hit": false,
      "t": 38602.374999999985,
      "d": 160.8432291666686,
      "v": 127
    },
    {
      "midi": 71,
      "hit": false,
      "t": 38602.374999999985,
      "d": 160.8432291666686,
      "v": 127
    },
    {
      "midi": 74,
      "hit": false,
      "t": 38602.374999999985,
      "d": 160.8432291666686,
      "v": 127
    },
    {
      "midi": 42,
      "hit": false,
      "t": 38602.37500000001,
      "d": 94.20817708333198,
      "v": 127
    },
    {
      "midi": 67,
      "hit": false,
      "t": 38822.959999999985,
      "d": 160.8432291666686,
      "v": 127
    },
    {
      "midi": 71,
      "hit": false,
      "t": 38822.959999999985,
      "d": 160.8432291666686,
      "v": 127
    },
    {
      "midi": 74,
      "hit": false,
      "t": 38822.959999999985,
      "d": 160.8432291666686,
      "v": 127
    },
    {
      "midi": 42,
      "hit": false,
      "t": 38822.96000000001,
      "d": 85.01713541666686,
      "v": 75
    },
    {
      "midi": 42,
      "hit": false,
      "t": 39043.545000000006,
      "d": 94.20817708333198,
      "v": 127
    },
    {
      "midi": 67,
      "hit": false,
      "t": 39153.83749999999,
      "d": 160.8432291666686,
      "v": 127
    },
    {
      "midi": 71,
      "hit": false,
      "t": 39153.83749999999,
      "d": 160.8432291666686,
      "v": 127
    },
    {
      "midi": 74,
      "hit": false,
      "t": 39153.83749999999,
      "d": 160.8432291666686,
      "v": 127
    },
    {
      "midi": 42,
      "hit": false,
      "t": 39264.130000000005,
      "d": 91.9104166666657,
      "v": 56
    },
    {
      "midi": 64,
      "hit": false,
      "t": 39484.71499999999,
      "d": 160.8432291666686,
      "v": 127
    },
    {
      "midi": 67,
      "hit": false,
      "t": 39484.71499999999,
      "d": 160.8432291666686,
      "v": 127
    },
    {
      "midi": 71,
      "hit": false,
      "t": 39484.71499999999,
      "d": 160.8432291666686,
      "v": 127
    },
    {
      "midi": 42,
      "hit": false,
      "t": 39484.715000000004,
      "d": 89.61265624999942,
      "v": 127
    },
    {
      "midi": 42,
      "hit": false,
      "t": 39705.3,
      "d": 103.39921874999709,
      "v": 38
    },
    {
      "midi": 67,
      "hit": false,
      "t": 39925.884999999995,
      "d": 160.8432291666686,
      "v": 127
    },
    {
      "midi": 71,
      "hit": false,
      "t": 39925.884999999995,
      "d": 160.8432291666686,
      "v": 127
    },
    {
      "midi": 74,
      "hit": false,
      "t": 39925.884999999995,
      "d": 160.8432291666686,
      "v": 127
    },
    {
      "midi": 77,
      "hit": false,
      "t": 39925.884999999995,
      "d": 160.8432291666686,
      "v": 127
    },
    {
      "midi": 42,
      "hit": false,
      "t": 39925.885,
      "d": 94.20817708333198,
      "v": 127
    },
    {
      "midi": 42,
      "hit": false,
      "t": 40146.47,
      "d": 85.01713541666686,
      "v": 72
    },
    {
      "midi": 69,
      "hit": false,
      "t": 40367.055,
      "d": 160.8432291666686,
      "v": 127
    },
    {
      "midi": 72,
      "hit": false,
      "t": 40367.055,
      "d": 160.8432291666686,
      "v": 127
    },
    {
      "midi": 76,
      "hit": false,
      "t": 40367.055,
      "d": 160.8432291666686,
      "v": 127
    },
    {
      "midi": 46,
      "hit": false,
      "t": 40367.055,
      "d": 85.01713541666686,
      "v": 127
    },
    {
      "midi": 64,
      "hit": false,
      "t": 40587.64,
      "d": 160.8432291666686,
      "v": 127
    },
    {
      "midi": 69,
      "hit": false,
      "t": 40587.64,
      "d": 160.8432291666686,
      "v": 127
    },
    {
      "midi": 72,
      "hit": false,
      "t": 40587.64,
      "d": 160.8432291666686,
      "v": 127
    },
    {
      "midi": 42,
      "hit": false,
      "t": 40587.64,
      "d": 85.01713541666686,
      "v": 69
    },
    {
      "midi": 42,
      "hit": false,
      "t": 40808.225,
      "d": 101.10145833333081,
      "v": 127
    },
    {
      "midi": 64,
      "hit": false,
      "t": 40918.5175,
      "d": 160.8432291666686,
      "v": 127
    },
    {
      "midi": 69,
      "hit": false,
      "t": 40918.5175,
      "d": 160.8432291666686,
      "v": 127
    },
    {
      "midi": 72,
      "hit": false,
      "t": 40918.5175,
      "d": 160.8432291666686,
      "v": 127
    },
    {
      "midi": 42,
      "hit": false,
      "t": 41028.81,
      "d": 103.39921874999709,
      "v": 48
    },
    {
      "midi": 42,
      "hit": false,
      "t": 41249.395,
      "d": 98.80369791666453,
      "v": 127
    },
    {
      "midi": 69,
      "hit": false,
      "t": 41249.395000000004,
      "d": 160.8432291666686,
      "v": 127
    },
    {
      "midi": 72,
      "hit": false,
      "t": 41249.395000000004,
      "d": 160.8432291666686,
      "v": 127
    },
    {
      "midi": 76,
      "hit": false,
      "t": 41249.395000000004,
      "d": 160.8432291666686,
      "v": 127
    },
    {
      "midi": 42,
      "hit": false,
      "t": 41469.979999999996,
      "d": 101.10145833333081,
      "v": 51
    },
    {
      "midi": 42,
      "hit": false,
      "t": 41690.564999999995,
      "d": 103.39921874999709,
      "v": 127
    },
    {
      "midi": 64,
      "hit": false,
      "t": 41690.56500000001,
      "d": 160.8432291666686,
      "v": 127
    },
    {
      "midi": 69,
      "hit": false,
      "t": 41690.56500000001,
      "d": 160.8432291666686,
      "v": 127
    },
    {
      "midi": 72,
      "hit": false,
      "t": 41690.56500000001,
      "d": 160.8432291666686,
      "v": 127
    },
    {
      "midi": 42,
      "hit": false,
      "t": 41911.149999999994,
      "d": 112.59026041666948,
      "v": 60
    },
    {
      "midi": 42,
      "hit": false,
      "t": 42131.735,
      "d": 96.50593749999825,
      "v": 127
    },
    {
      "midi": 64,
      "hit": false,
      "t": 42131.735000000015,
      "d": 160.8432291666686,
      "v": 127
    },
    {
      "midi": 69,
      "hit": false,
      "t": 42131.735000000015,
      "d": 160.8432291666686,
      "v": 127
    },
    {
      "midi": 72,
      "hit": false,
      "t": 42131.735000000015,
      "d": 160.8432291666686,
      "v": 127
    },
    {
      "midi": 42,
      "hit": false,
      "t": 42352.32,
      "d": 82.71937500000058,
      "v": 30
    },
    {
      "midi": 65,
      "hit": false,
      "t": 42352.320000000014,
      "d": 160.8432291666686,
      "v": 127
    },
    {
      "midi": 69,
      "hit": false,
      "t": 42352.320000000014,
      "d": 160.8432291666686,
      "v": 127
    },
    {
      "midi": 72,
      "hit": false,
      "t": 42352.320000000014,
      "d": 160.8432291666686,
      "v": 127
    },
    {
      "midi": 42,
      "hit": false,
      "t": 42572.905,
      "d": 98.80369791666453,
      "v": 127
    },
    {
      "midi": 65,
      "hit": false,
      "t": 42683.19750000002,
      "d": 160.8432291666686,
      "v": 127
    },
    {
      "midi": 69,
      "hit": false,
      "t": 42683.19750000002,
      "d": 160.8432291666686,
      "v": 127
    },
    {
      "midi": 72,
      "hit": false,
      "t": 42683.19750000002,
      "d": 160.8432291666686,
      "v": 127
    },
    {
      "midi": 42,
      "hit": false,
      "t": 42793.49,
      "d": 82.71937500000058,
      "v": 54
    },
    {
      "midi": 42,
      "hit": false,
      "t": 43014.075,
      "d": 103.39921874999709,
      "v": 127
    },
    {
      "midi": 69,
      "hit": false,
      "t": 43014.07500000002,
      "d": 160.8432291666686,
      "v": 127
    },
    {
      "midi": 72,
      "hit": false,
      "t": 43014.07500000002,
      "d": 160.8432291666686,
      "v": 127
    },
    {
      "midi": 77,
      "hit": false,
      "t": 43014.07500000002,
      "d": 160.8432291666686,
      "v": 127
    },
    {
      "midi": 42,
      "hit": false,
      "t": 43234.659999999996,
      "d": 87.31489583333314,
      "v": 46
    },
    {
      "midi": 42,
      "hit": false,
      "t": 43455.244999999995,
      "d": 91.9104166666657,
      "v": 127
    },
    {
      "midi": 67,
      "hit": false,
      "t": 43455.245000000024,
      "d": 160.8432291666686,
      "v": 127
    },
    {
      "midi": 72,
      "hit": false,
      "t": 43455.245000000024,
      "d": 160.8432291666686,
      "v": 127
    },
    {
      "midi": 76,
      "hit": false,
      "t": 43455.245000000024,
      "d": 160.8432291666686,
      "v": 127
    },
    {
      "midi": 42,
      "hit": false,
      "t": 43675.829999999994,
      "d": 91.9104166666657,
      "v": 56
    },
    {
      "midi": 42,
      "hit": false,
      "t": 43896.41499999999,
      "d": 94.20817708333198,
      "v": 127
    },
    {
      "midi": 67,
      "hit": false,
      "t": 43896.41500000003,
      "d": 160.8432291666686,
      "v": 127
    },
    {
      "midi": 71,
      "hit": false,
      "t": 43896.41500000003,
      "d": 160.8432291666686,
      "v": 127
    },
    {
      "midi": 74,
      "hit": false,
      "t": 43896.41500000003,
      "d": 160.8432291666686,
      "v": 127
    },
    {
      "midi": 42,
      "hit": false,
      "t": 44116.99999999999,
      "d": 85.01713541666686,
      "v": 60
    },
    {
      "midi": 67,
      "hit": false,
      "t": 44117.00000000003,
      "d": 160.8432291666686,
      "v": 127
    },
    {
      "midi": 71,
      "hit": false,
      "t": 44117.00000000003,
      "d": 160.8432291666686,
      "v": 127
    },
    {
      "midi": 74,
      "hit": false,
      "t": 44117.00000000003,
      "d": 160.8432291666686,
      "v": 127
    },
    {
      "midi": 42,
      "hit": false,
      "t": 44337.58499999999,
      "d": 89.61265624999942,
      "v": 127
    },
    {
      "midi": 67,
      "hit": false,
      "t": 44447.87750000003,
      "d": 160.8432291666686,
      "v": 127
    },
    {
      "midi": 71,
      "hit": false,
      "t": 44447.87750000003,
      "d": 160.8432291666686,
      "v": 127
    },
    {
      "midi": 74,
      "hit": false,
      "t": 44447.87750000003,
      "d": 160.8432291666686,
      "v": 127
    },
    {
      "midi": 42,
      "hit": false,
      "t": 44558.16999999999,
      "d": 82.71937500000058,
      "v": 58
    },
    {
      "midi": 42,
      "hit": false,
      "t": 44778.75499999999,
      "d": 85.01713541666686,
      "v": 127
    },
    {
      "midi": 62,
      "hit": false,
      "t": 44778.755000000034,
      "d": 160.8432291666686,
      "v": 127
    },
    {
      "midi": 67,
      "hit": false,
      "t": 44778.755000000034,
      "d": 160.8432291666686,
      "v": 127
    },
    {
      "midi": 71,
      "hit": false,
      "t": 44778.755000000034,
      "d": 160.8432291666686,
      "v": 127
    },
    {
      "midi": 42,
      "hit": false,
      "t": 44999.33999999999,
      "d": 59.74177083333052,
      "v": 60
    },
    {
      "midi": 42,
      "hit": false,
      "t": 45219.92499999999,
      "d": 96.50593749999825,
      "v": 127
    },
    {
      "midi": 67,
      "hit": false,
      "t": 45219.92500000004,
      "d": 160.8432291666686,
      "v": 127
    },
    {
      "midi": 71,
      "hit": false,
      "t": 45219.92500000004,
      "d": 160.8432291666686,
      "v": 127
    },
    {
      "midi": 74,
      "hit": false,
      "t": 45219.92500000004,
      "d": 160.8432291666686,
      "v": 127
    },
    {
      "midi": 42,
      "hit": false,
      "t": 45440.50999999999,
      "d": 73.52833333333547,
      "v": 54
    },
    {
      "midi": 42,
      "hit": false,
      "t": 45661.09499999999,
      "d": 107.99473958333692,
      "v": 127
    },
    {
      "midi": 69,
      "hit": false,
      "t": 45661.095000000045,
      "d": 160.8432291666686,
      "v": 127
    },
    {
      "midi": 71,
      "hit": false,
      "t": 45661.095000000045,
      "d": 160.8432291666686,
      "v": 127
    },
    {
      "midi": 74,
      "hit": false,
      "t": 45661.095000000045,
      "d": 160.8432291666686,
      "v": 127
    },
    {
      "midi": 42,
      "hit": false,
      "t": 45881.67999999999,
      "d": 80.4216145833343,
      "v": 51
    },
    {
      "midi": 67,
      "hit": false,
      "t": 45881.680000000044,
      "d": 160.8432291666686,
      "v": 127
    },
    {
      "midi": 71,
      "hit": false,
      "t": 45881.680000000044,
      "d": 160.8432291666686,
      "v": 127
    },
    {
      "midi": 74,
      "hit": false,
      "t": 45881.680000000044,
      "d": 160.8432291666686,
      "v": 127
    },
    {
      "midi": 42,
      "hit": false,
      "t": 46102.26499999999,
      "d": 98.80369791666453,
      "v": 127
    },
    {
      "midi": 67,
      "hit": false,
      "t": 46212.557500000046,
      "d": 160.8432291666686,
      "v": 127
    },
    {
      "midi": 71,
      "hit": false,
      "t": 46212.557500000046,
      "d": 160.8432291666686,
      "v": 127
    },
    {
      "midi": 74,
      "hit": false,
      "t": 46212.557500000046,
      "d": 160.8432291666686,
      "v": 127
    },
    {
      "midi": 42,
      "hit": false,
      "t": 46322.84999999999,
      "d": 101.10145833333081,
      "v": 58
    },
    {
      "midi": 42,
      "hit": false,
      "t": 46543.43499999999,
      "d": 89.61265624999942,
      "v": 127
    },
    {
      "midi": 64,
      "hit": false,
      "t": 46543.43500000005,
      "d": 160.8432291666686,
      "v": 127
    },
    {
      "midi": 67,
      "hit": false,
      "t": 46543.43500000005,
      "d": 160.8432291666686,
      "v": 127
    },
    {
      "midi": 71,
      "hit": false,
      "t": 46543.43500000005,
      "d": 160.8432291666686,
      "v": 127
    },
    {
      "midi": 42,
      "hit": false,
      "t": 46764.01999999999,
      "d": 91.9104166666657,
      "v": 64
    },
    {
      "midi": 42,
      "hit": false,
      "t": 46984.60499999999,
      "d": 85.01713541666686,
      "v": 127
    },
    {
      "midi": 67,
      "hit": false,
      "t": 46984.605000000054,
      "d": 160.8432291666686,
      "v": 127
    },
    {
      "midi": 71,
      "hit": false,
      "t": 46984.605000000054,
      "d": 160.8432291666686,
      "v": 127
    },
    {
      "midi": 74,
      "hit": false,
      "t": 46984.605000000054,
      "d": 160.8432291666686,
      "v": 127
    },
    {
      "midi": 77,
      "hit": false,
      "t": 46984.605000000054,
      "d": 160.8432291666686,
      "v": 127
    },
    {
      "midi": 42,
      "hit": false,
      "t": 47205.18999999999,
      "d": 85.01713541666686,
      "v": 75
    },
    {
      "midi": 46,
      "hit": false,
      "t": 47425.77499999999,
      "d": 66.63505208333663,
      "v": 127
    },
    {
      "midi": 69,
      "hit": false,
      "t": 47425.77500000006,
      "d": 160.8432291666686,
      "v": 127
    },
    {
      "midi": 72,
      "hit": false,
      "t": 47425.77500000006,
      "d": 160.8432291666686,
      "v": 127
    },
    {
      "midi": 76,
      "hit": false,
      "t": 47425.77500000006,
      "d": 160.8432291666686,
      "v": 127
    },
    {
      "midi": 42,
      "hit": false,
      "t": 47646.35999999999,
      "d": 82.71937500000058,
      "v": 16
    },
    {
      "midi": 57,
      "hit": false,
      "t": 47646.35999999999,
      "d": 1369.4652083333276,
      "v": 112
    },
    {
      "midi": 72,
      "hit": false,
      "t": 47646.36000000006,
      "d": 114.88802083333576,
      "v": 127
    },
    {
      "midi": 76,
      "hit": false,
      "t": 47646.36000000006,
      "d": 114.88802083333576,
      "v": 127
    },
    {
      "midi": 79,
      "hit": false,
      "t": 47646.36000000006,
      "d": 114.88802083333576,
      "v": 127
    },
    {
      "midi": 42,
      "hit": false,
      "t": 47866.94499999999,
      "d": 147.05666666666366,
      "v": 127
    },
    {
      "midi": 72,
      "hit": false,
      "t": 47977.23750000006,
      "d": 114.88802083333576,
      "v": 127
    },
    {
      "midi": 76,
      "hit": false,
      "t": 47977.23750000006,
      "d": 114.88802083333576,
      "v": 127
    },
    {
      "midi": 79,
      "hit": false,
      "t": 47977.23750000006,
      "d": 114.88802083333576,
      "v": 127
    },
    {
      "midi": 42,
      "hit": false,
      "t": 48087.52999999999,
      "d": 128.67458333333343,
      "v": 26
    },
    {
      "midi": 42,
      "hit": false,
      "t": 48308.11499999999,
      "d": 126.37682291666715,
      "v": 112
    },
    {
      "midi": 72,
      "hit": false,
      "t": 48308.11500000006,
      "d": 114.88802083333576,
      "v": 127
    },
    {
      "midi": 76,
      "hit": false,
      "t": 48308.11500000006,
      "d": 114.88802083333576,
      "v": 127
    },
    {
      "midi": 79,
      "hit": false,
      "t": 48308.11500000006,
      "d": 114.88802083333576,
      "v": 127
    },
    {
      "midi": 42,
      "hit": false,
      "t": 48528.69999999999,
      "d": 128.67458333333343,
      "v": 35
    },
    {
      "midi": 42,
      "hit": false,
      "t": 48749.28499999999,
      "d": 105.69697916666337,
      "v": 127
    },
    {
      "midi": 72,
      "hit": false,
      "t": 48749.28500000007,
      "d": 114.88802083333576,
      "v": 127
    },
    {
      "midi": 76,
      "hit": false,
      "t": 48749.28500000007,
      "d": 114.88802083333576,
      "v": 127
    },
    {
      "midi": 79,
      "hit": false,
      "t": 48749.28500000007,
      "d": 114.88802083333576,
      "v": 127
    },
    {
      "midi": 42,
      "hit": false,
      "t": 48969.86999999999,
      "d": 114.88802083333576,
      "v": 44
    },
    {
      "midi": 42,
      "hit": false,
      "t": 49190.45499999999,
      "d": 98.80369791666453,
      "v": 127
    },
    {
      "midi": 72,
      "hit": false,
      "t": 49190.455000000075,
      "d": 114.88802083333576,
      "v": 127
    },
    {
      "midi": 76,
      "hit": false,
      "t": 49190.455000000075,
      "d": 114.88802083333576,
      "v": 127
    },
    {
      "midi": 79,
      "hit": false,
      "t": 49190.455000000075,
      "d": 114.88802083333576,
      "v": 127
    },
    {
      "midi": 42,
      "hit": false,
      "t": 49411.039999999986,
      "d": 105.69697916666337,
      "v": 72
    },
    {
      "midi": 72,
      "hit": false,
      "t": 49411.04000000007,
      "d": 114.88802083333576,
      "v": 127
    },
    {
      "midi": 76,
      "hit": false,
      "t": 49411.04000000007,
      "d": 114.88802083333576,
      "v": 127
    },
    {
      "midi": 79,
      "hit": false,
      "t": 49411.04000000007,
      "d": 114.88802083333576,
      "v": 127
    },
    {
      "midi": 42,
      "hit": false,
      "t": 49631.624999999985,
      "d": 94.20817708333198,
      "v": 127
    },
    {
      "midi": 72,
      "hit": false,
      "t": 49741.917500000076,
      "d": 114.88802083333576,
      "v": 127
    },
    {
      "midi": 76,
      "hit": false,
      "t": 49741.917500000076,
      "d": 114.88802083333576,
      "v": 127
    },
    {
      "midi": 79,
      "hit": false,
      "t": 49741.917500000076,
      "d": 114.88802083333576,
      "v": 127
    },
    {
      "midi": 42,
      "hit": false,
      "t": 49852.209999999985,
      "d": 71.23057291666919,
      "v": 11
    },
    {
      "midi": 42,
      "hit": false,
      "t": 50072.794999999984,
      "d": 107.99473958333692,
      "v": 127
    },
    {
      "midi": 72,
      "hit": false,
      "t": 50072.79500000008,
      "d": 114.88802083333576,
      "v": 127
    },
    {
      "midi": 76,
      "hit": false,
      "t": 50072.79500000008,
      "d": 114.88802083333576,
      "v": 127
    },
    {
      "midi": 79,
      "hit": false,
      "t": 50072.79500000008,
      "d": 114.88802083333576,
      "v": 127
    },
    {
      "midi": 42,
      "hit": false,
      "t": 50293.37999999999,
      "d": 107.99473958333692,
      "v": 51
    },
    {
      "midi": 42,
      "hit": false,
      "t": 50513.965,
      "d": 87.31489583333314,
      "v": 127
    },
    {
      "midi": 72,
      "hit": false,
      "t": 50513.965000000084,
      "d": 114.88802083333576,
      "v": 127
    },
    {
      "midi": 76,
      "hit": false,
      "t": 50513.965000000084,
      "d": 114.88802083333576,
      "v": 127
    },
    {
      "midi": 79,
      "hit": false,
      "t": 50513.965000000084,
      "d": 114.88802083333576,
      "v": 127
    },
    {
      "midi": 42,
      "hit": false,
      "t": 50734.549999999996,
      "d": 105.69697916666337,
      "v": 21
    },
    {
      "midi": 42,
      "hit": false,
      "t": 50955.134999999995,
      "d": 85.01713541666686,
      "v": 127
    },
    {
      "midi": 72,
      "hit": false,
      "t": 50955.13500000009,
      "d": 114.88802083333576,
      "v": 127
    },
    {
      "midi": 76,
      "hit": false,
      "t": 50955.13500000009,
      "d": 114.88802083333576,
      "v": 127
    },
    {
      "midi": 79,
      "hit": false,
      "t": 50955.13500000009,
      "d": 114.88802083333576,
      "v": 127
    },
    {
      "midi": 42,
      "hit": false,
      "t": 51175.719999999994,
      "d": 66.63505208333663,
      "v": 60
    },
    {
      "midi": 70,
      "hit": false,
      "t": 51175.72000000009,
      "d": 114.88802083333576,
      "v": 127
    },
    {
      "midi": 72,
      "hit": false,
      "t": 51175.72000000009,
      "d": 114.88802083333576,
      "v": 127
    },
    {
      "midi": 77,
      "hit": false,
      "t": 51175.72000000009,
      "d": 114.88802083333576,
      "v": 127
    },
    {
      "midi": 42,
      "hit": false,
      "t": 51396.305,
      "d": 91.9104166666657,
      "v": 127
    },
    {
      "midi": 70,
      "hit": false,
      "t": 51506.59750000009,
      "d": 114.88802083333576,
      "v": 127
    },
    {
      "midi": 72,
      "hit": false,
      "t": 51506.59750000009,
      "d": 114.88802083333576,
      "v": 127
    },
    {
      "midi": 77,
      "hit": false,
      "t": 51506.59750000009,
      "d": 114.88802083333576,
      "v": 127
    },
    {
      "midi": 42,
      "hit": false,
      "t": 51616.89,
      "d": 75.82609375000175,
      "v": 67
    },
    {
      "midi": 42,
      "hit": false,
      "t": 51837.475,
      "d": 89.61265624999942,
      "v": 127
    },
    {
      "midi": 70,
      "hit": false,
      "t": 51837.47500000009,
      "d": 114.88802083333576,
      "v": 127
    },
    {
      "midi": 72,
      "hit": false,
      "t": 51837.47500000009,
      "d": 114.88802083333576,
      "v": 127
    },
    {
      "midi": 77,
      "hit": false,
      "t": 51837.47500000009,
      "d": 114.88802083333576,
      "v": 127
    },
    {
      "midi": 42,
      "hit": false,
      "t": 52058.06,
      "d": 94.20817708333198,
      "v": 38
    },
    {
      "midi": 42,
      "hit": false,
      "t": 52278.645,
      "d": 89.61265624999942,
      "v": 127
    },
    {
      "midi": 70,
      "hit": false,
      "t": 52278.6450000001,
      "d": 114.88802083333576,
      "v": 127
    },
    {
      "midi": 72,
      "hit": false,
      "t": 52278.6450000001,
      "d": 114.88802083333576,
      "v": 127
    },
    {
      "midi": 77,
      "hit": false,
      "t": 52278.6450000001,
      "d": 114.88802083333576,
      "v": 127
    },
    {
      "midi": 42,
      "hit": false,
      "t": 52499.229999999996,
      "d": 91.9104166666657,
      "v": 60
    },
    {
      "midi": 42,
      "hit": false,
      "t": 52719.814999999995,
      "d": 94.20817708333198,
      "v": 127
    },
    {
      "midi": 70,
      "hit": false,
      "t": 52719.815000000104,
      "d": 114.88802083333576,
      "v": 127
    },
    {
      "midi": 72,
      "hit": false,
      "t": 52719.815000000104,
      "d": 114.88802083333576,
      "v": 127
    },
    {
      "midi": 77,
      "hit": false,
      "t": 52719.815000000104,
      "d": 114.88802083333576,
      "v": 127
    },
    {
      "midi": 42,
      "hit": false,
      "t": 52940.399999999994,
      "d": 85.01713541666686,
      "v": 75
    },
    {
      "midi": 70,
      "hit": false,
      "t": 52940.4000000001,
      "d": 114.88802083333576,
      "v": 127
    },
    {
      "midi": 72,
      "hit": false,
      "t": 52940.4000000001,
      "d": 114.88802083333576,
      "v": 127
    },
    {
      "midi": 77,
      "hit": false,
      "t": 52940.4000000001,
      "d": 114.88802083333576,
      "v": 127
    },
    {
      "midi": 42,
      "hit": false,
      "t": 53160.98499999999,
      "d": 94.20817708333198,
      "v": 127
    },
    {
      "midi": 70,
      "hit": false,
      "t": 53271.277500000106,
      "d": 114.88802083333576,
      "v": 127
    },
    {
      "midi": 72,
      "hit": false,
      "t": 53271.277500000106,
      "d": 114.88802083333576,
      "v": 127
    },
    {
      "midi": 77,
      "hit": false,
      "t": 53271.277500000106,
      "d": 114.88802083333576,
      "v": 127
    },
    {
      "midi": 42,
      "hit": false,
      "t": 53381.56999999999,
      "d": 91.9104166666657,
      "v": 56
    },
    {
      "midi": 42,
      "hit": false,
      "t": 53602.15499999999,
      "d": 89.61265624999942,
      "v": 127
    },
    {
      "midi": 70,
      "hit": false,
      "t": 53602.15500000011,
      "d": 114.88802083333576,
      "v": 127
    },
    {
      "midi": 72,
      "hit": false,
      "t": 53602.15500000011,
      "d": 114.88802083333576,
      "v": 127
    },
    {
      "midi": 77,
      "hit": false,
      "t": 53602.15500000011,
      "d": 114.88802083333576,
      "v": 127
    },
    {
      "midi": 42,
      "hit": false,
      "t": 53822.73999999999,
      "d": 103.39921874999709,
      "v": 38
    },
    {
      "midi": 42,
      "hit": false,
      "t": 54043.32499999999,
      "d": 94.20817708333198,
      "v": 127
    },
    {
      "midi": 70,
      "hit": false,
      "t": 54043.32500000011,
      "d": 114.88802083333576,
      "v": 127
    },
    {
      "midi": 72,
      "hit": false,
      "t": 54043.32500000011,
      "d": 114.88802083333576,
      "v": 127
    },
    {
      "midi": 77,
      "hit": false,
      "t": 54043.32500000011,
      "d": 114.88802083333576,
      "v": 127
    },
    {
      "midi": 42,
      "hit": false,
      "t": 54263.90999999999,
      "d": 85.01713541666686,
      "v": 72
    },
    {
      "midi": 46,
      "hit": false,
      "t": 54484.49499999999,
      "d": 85.01713541666686,
      "v": 127
    },
    {
      "midi": 57,
      "hit": false,
      "t": 54484.49499999999,
      "d": 643.3729166666599,
      "v": 75
    },
    {
      "midi": 70,
      "hit": false,
      "t": 54484.49500000012,
      "d": 114.88802083333576,
      "v": 127
    },
    {
      "midi": 72,
      "hit": false,
      "t": 54484.49500000012,
      "d": 114.88802083333576,
      "v": 127
    },
    {
      "midi": 77,
      "hit": false,
      "t": 54484.49500000012,
      "d": 114.88802083333576,
      "v": 127
    },
    {
      "midi": 42,
      "hit": false,
      "t": 54705.07999999999,
      "d": 85.01713541666686,
      "v": 69
    },
    {
      "midi": 72,
      "hit": false,
      "t": 54705.08000000012,
      "d": 114.88802083333576,
      "v": 127
    },
    {
      "midi": 76,
      "hit": false,
      "t": 54705.08000000012,
      "d": 114.88802083333576,
      "v": 127
    },
    {
      "midi": 79,
      "hit": false,
      "t": 54705.08000000012,
      "d": 114.88802083333576,
      "v": 127
    },
    {
      "midi": 42,
      "hit": false,
      "t": 54925.664999999986,
      "d": 101.10145833333081,
      "v": 127
    },
    {
      "midi": 72,
      "hit": false,
      "t": 55035.95750000012,
      "d": 114.88802083333576,
      "v": 127
    },
    {
      "midi": 76,
      "hit": false,
      "t": 55035.95750000012,
      "d": 114.88802083333576,
      "v": 127
    },
    {
      "midi": 79,
      "hit": false,
      "t": 55035.95750000012,
      "d": 114.88802083333576,
      "v": 127
    },
    {
      "midi": 42,
      "hit": false,
      "t": 55146.24999999998,
      "d": 103.39921874999709,
      "v": 48
    },
    {
      "midi": 42,
      "hit": false,
      "t": 55366.83499999998,
      "d": 98.80369791666453,
      "v": 127
    },
    {
      "midi": 72,
      "hit": false,
      "t": 55366.83500000012,
      "d": 114.88802083333576,
      "v": 127
    },
    {
      "midi": 76,
      "hit": false,
      "t": 55366.83500000012,
      "d": 114.88802083333576,
      "v": 127
    },
    {
      "midi": 79,
      "hit": false,
      "t": 55366.83500000012,
      "d": 114.88802083333576,
      "v": 127
    },
    {
      "midi": 42,
      "hit": false,
      "t": 55587.41999999998,
      "d": 101.10145833333081,
      "v": 51
    },
    {
      "midi": 42,
      "hit": false,
      "t": 55808.004999999976,
      "d": 103.39921874999709,
      "v": 127
    },
    {
      "midi": 72,
      "hit": false,
      "t": 55808.00500000013,
      "d": 114.88802083333576,
      "v": 127
    },
    {
      "midi": 76,
      "hit": false,
      "t": 55808.00500000013,
      "d": 114.88802083333576,
      "v": 127
    },
    {
      "midi": 79,
      "hit": false,
      "t": 55808.00500000013,
      "d": 114.88802083333576,
      "v": 127
    },
    {
      "midi": 42,
      "hit": false,
      "t": 56028.589999999975,
      "d": 112.59026041666948,
      "v": 60
    },
    {
      "midi": 42,
      "hit": false,
      "t": 56249.17499999998,
      "d": 96.50593749999825,
      "v": 127
    },
    {
      "midi": 72,
      "hit": false,
      "t": 56249.175000000134,
      "d": 114.88802083333576,
      "v": 127
    },
    {
      "midi": 76,
      "hit": false,
      "t": 56249.175000000134,
      "d": 114.88802083333576,
      "v": 127
    },
    {
      "midi": 79,
      "hit": false,
      "t": 56249.175000000134,
      "d": 114.88802083333576,
      "v": 127
    },
    {
      "midi": 42,
      "hit": false,
      "t": 56469.75999999998,
      "d": 82.71937500000058,
      "v": 30
    },
    {
      "midi": 72,
      "hit": false,
      "t": 56469.76000000013,
      "d": 114.88802083333576,
      "v": 127
    },
    {
      "midi": 76,
      "hit": false,
      "t": 56469.76000000013,
      "d": 114.88802083333576,
      "v": 127
    },
    {
      "midi": 79,
      "hit": false,
      "t": 56469.76000000013,
      "d": 114.88802083333576,
      "v": 127
    },
    {
      "midi": 42,
      "hit": false,
      "t": 56690.34499999998,
      "d": 98.80369791666453,
      "v": 127
    },
    {
      "midi": 72,
      "hit": false,
      "t": 56800.637500000135,
      "d": 114.88802083333576,
      "v": 127
    },
    {
      "midi": 76,
      "hit": false,
      "t": 56800.637500000135,
      "d": 114.88802083333576,
      "v": 127
    },
    {
      "midi": 79,
      "hit": false,
      "t": 56800.637500000135,
      "d": 114.88802083333576,
      "v": 127
    },
    {
      "midi": 42,
      "hit": false,
      "t": 56910.92999999998,
      "d": 82.71937500000058,
      "v": 54
    },
    {
      "midi": 42,
      "hit": false,
      "t": 57131.51499999998,
      "d": 103.39921874999709,
      "v": 127
    },
    {
      "midi": 72,
      "hit": false,
      "t": 57131.51500000014,
      "d": 114.88802083333576,
      "v": 127
    },
    {
      "midi": 76,
      "hit": false,
      "t": 57131.51500000014,
      "d": 114.88802083333576,
      "v": 127
    },
    {
      "midi": 79,
      "hit": false,
      "t": 57131.51500000014,
      "d": 114.88802083333576,
      "v": 127
    },
    {
      "midi": 42,
      "hit": false,
      "t": 57352.09999999998,
      "d": 87.31489583333314,
      "v": 46
    },
    {
      "midi": 42,
      "hit": false,
      "t": 57572.684999999976,
      "d": 91.9104166666657,
      "v": 127
    },
    {
      "midi": 72,
      "hit": false,
      "t": 57572.68500000014,
      "d": 114.88802083333576,
      "v": 127
    },
    {
      "midi": 76,
      "hit": false,
      "t": 57572.68500000014,
      "d": 114.88802083333576,
      "v": 127
    },
    {
      "midi": 79,
      "hit": false,
      "t": 57572.68500000014,
      "d": 114.88802083333576,
      "v": 127
    },
    {
      "midi": 42,
      "hit": false,
      "t": 57793.269999999975,
      "d": 91.9104166666657,
      "v": 56
    },
    {
      "midi": 42,
      "hit": false,
      "t": 58013.854999999974,
      "d": 94.20817708333198,
      "v": 127
    },
    {
      "midi": 72,
      "hit": false,
      "t": 58013.85500000015,
      "d": 114.88802083333576,
      "v": 127
    },
    {
      "midi": 76,
      "hit": false,
      "t": 58013.85500000015,
      "d": 114.88802083333576,
      "v": 127
    },
    {
      "midi": 79,
      "hit": false,
      "t": 58013.85500000015,
      "d": 114.88802083333576,
      "v": 127
    },
    {
      "midi": 42,
      "hit": false,
      "t": 58234.43999999997,
      "d": 85.01713541666686,
      "v": 60
    },
    {
      "midi": 70,
      "hit": false,
      "t": 58234.44000000015,
      "d": 114.88802083333576,
      "v": 127
    },
    {
      "midi": 72,
      "hit": false,
      "t": 58234.44000000015,
      "d": 114.88802083333576,
      "v": 127
    },
    {
      "midi": 77,
      "hit": false,
      "t": 58234.44000000015,
      "d": 114.88802083333576,
      "v": 127
    },
    {
      "midi": 42,
      "hit": false,
      "t": 58455.02499999997,
      "d": 89.61265624999942,
      "v": 127
    },
    {
      "midi": 70,
      "hit": false,
      "t": 58565.31750000015,
      "d": 114.88802083333576,
      "v": 127
    },
    {
      "midi": 72,
      "hit": false,
      "t": 58565.31750000015,
      "d": 114.88802083333576,
      "v": 127
    },
    {
      "midi": 77,
      "hit": false,
      "t": 58565.31750000015,
      "d": 114.88802083333576,
      "v": 127
    },
    {
      "midi": 42,
      "hit": false,
      "t": 58675.60999999997,
      "d": 82.71937500000058,
      "v": 58
    },
    {
      "midi": 42,
      "hit": false,
      "t": 58896.19499999997,
      "d": 85.01713541666686,
      "v": 127
    },
    {
      "midi": 70,
      "hit": false,
      "t": 58896.19500000015,
      "d": 114.88802083333576,
      "v": 127
    },
    {
      "midi": 72,
      "hit": false,
      "t": 58896.19500000015,
      "d": 114.88802083333576,
      "v": 127
    },
    {
      "midi": 77,
      "hit": false,
      "t": 58896.19500000015,
      "d": 114.88802083333576,
      "v": 127
    },
    {
      "midi": 42,
      "hit": false,
      "t": 59116.77999999997,
      "d": 59.74177083333052,
      "v": 60
    },
    {
      "midi": 42,
      "hit": false,
      "t": 59337.36499999997,
      "d": 96.50593749999825,
      "v": 127
    },
    {
      "midi": 70,
      "hit": false,
      "t": 59337.36500000016,
      "d": 114.88802083333576,
      "v": 127
    },
    {
      "midi": 72,
      "hit": false,
      "t": 59337.36500000016,
      "d": 114.88802083333576,
      "v": 127
    },
    {
      "midi": 77,
      "hit": false,
      "t": 59337.36500000016,
      "d": 114.88802083333576,
      "v": 127
    },
    {
      "midi": 42,
      "hit": false,
      "t": 59557.94999999997,
      "d": 73.52833333333547,
      "v": 54
    },
    {
      "midi": 42,
      "hit": false,
      "t": 59778.53499999997,
      "d": 107.99473958333692,
      "v": 127
    },
    {
      "midi": 70,
      "hit": false,
      "t": 59778.53500000016,
      "d": 114.88802083333576,
      "v": 127
    },
    {
      "midi": 72,
      "hit": false,
      "t": 59778.53500000016,
      "d": 114.88802083333576,
      "v": 127
    },
    {
      "midi": 77,
      "hit": false,
      "t": 59778.53500000016,
      "d": 114.88802083333576,
      "v": 127
    },
    {
      "midi": 42,
      "hit": false,
      "t": 59999.11999999997,
      "d": 80.4216145833343,
      "v": 51
    },
    {
      "midi": 70,
      "hit": false,
      "t": 59999.12000000016,
      "d": 114.88802083333576,
      "v": 127
    },
    {
      "midi": 72,
      "hit": false,
      "t": 59999.12000000016,
      "d": 114.88802083333576,
      "v": 127
    },
    {
      "midi": 77,
      "hit": false,
      "t": 59999.12000000016,
      "d": 114.88802083333576,
      "v": 127
    },
    {
      "midi": 42,
      "hit": false,
      "t": 60219.70499999997,
      "d": 98.80369791666453,
      "v": 127
    },
    {
      "midi": 70,
      "hit": false,
      "t": 60329.997500000165,
      "d": 114.88802083333576,
      "v": 127
    },
    {
      "midi": 72,
      "hit": false,
      "t": 60329.997500000165,
      "d": 114.88802083333576,
      "v": 127
    },
    {
      "midi": 77,
      "hit": false,
      "t": 60329.997500000165,
      "d": 114.88802083333576,
      "v": 127
    },
    {
      "midi": 42,
      "hit": false,
      "t": 60440.28999999997,
      "d": 101.10145833333081,
      "v": 58
    },
    {
      "midi": 42,
      "hit": false,
      "t": 60660.87499999997,
      "d": 89.61265624999942,
      "v": 127
    },
    {
      "midi": 70,
      "hit": false,
      "t": 60660.87500000017,
      "d": 114.88802083333576,
      "v": 127
    },
    {
      "midi": 72,
      "hit": false,
      "t": 60660.87500000017,
      "d": 114.88802083333576,
      "v": 127
    },
    {
      "midi": 77,
      "hit": false,
      "t": 60660.87500000017,
      "d": 114.88802083333576,
      "v": 127
    },
    {
      "midi": 42,
      "hit": false,
      "t": 60881.45999999997,
      "d": 91.9104166666657,
      "v": 64
    },
    {
      "midi": 42,
      "hit": false,
      "t": 61102.04499999997,
      "d": 85.01713541666686,
      "v": 127
    },
    {
      "midi": 70,
      "hit": false,
      "t": 61102.04500000017,
      "d": 114.88802083333576,
      "v": 127
    },
    {
      "midi": 72,
      "hit": false,
      "t": 61102.04500000017,
      "d": 114.88802083333576,
      "v": 127
    },
    {
      "midi": 77,
      "hit": false,
      "t": 61102.04500000017,
      "d": 114.88802083333576,
      "v": 127
    },
    {
      "midi": 42,
      "hit": false,
      "t": 61322.62999999997,
      "d": 85.01713541666686,
      "v": 75
    },
    {
      "midi": 46,
      "hit": false,
      "t": 61543.21499999997,
      "d": 66.63505208333663,
      "v": 127
    },
    {
      "midi": 70,
      "hit": false,
      "t": 61543.21500000018,
      "d": 114.88802083333576,
      "v": 127
    },
    {
      "midi": 72,
      "hit": false,
      "t": 61543.21500000018,
      "d": 114.88802083333576,
      "v": 127
    },
    {
      "midi": 77,
      "hit": false,
      "t": 61543.21500000018,
      "d": 114.88802083333576,
      "v": 127
    },
    {
      "midi": 42,
      "hit": false,
      "t": 61763.799999999974,
      "d": 82.71937500000058,
      "v": 16
    },
    {
      "midi": 57,
      "hit": false,
      "t": 61763.799999999974,
      "d": 1369.4652083333276,
      "v": 112
    },
    {
      "midi": 63,
      "hit": false,
      "t": 61763.80000000018,
      "d": 114.88802083333576,
      "v": 127
    },
    {
      "midi": 67,
      "hit": false,
      "t": 61763.80000000018,
      "d": 114.88802083333576,
      "v": 127
    },
    {
      "midi": 70,
      "hit": false,
      "t": 61763.80000000018,
      "d": 114.88802083333576,
      "v": 127
    },
    {
      "midi": 42,
      "hit": false,
      "t": 61984.38499999997,
      "d": 147.05666666666366,
      "v": 127
    },
    {
      "midi": 63,
      "hit": false,
      "t": 62094.67750000018,
      "d": 114.88802083333576,
      "v": 127
    },
    {
      "midi": 67,
      "hit": false,
      "t": 62094.67750000018,
      "d": 114.88802083333576,
      "v": 127
    },
    {
      "midi": 70,
      "hit": false,
      "t": 62094.67750000018,
      "d": 114.88802083333576,
      "v": 127
    },
    {
      "midi": 42,
      "hit": false,
      "t": 62204.96999999997,
      "d": 128.67458333333343,
      "v": 26
    },
    {
      "midi": 42,
      "hit": false,
      "t": 62425.55499999997,
      "d": 126.37682291666715,
      "v": 112
    },
    {
      "midi": 63,
      "hit": false,
      "t": 62425.55500000018,
      "d": 114.88802083333576,
      "v": 127
    },
    {
      "midi": 67,
      "hit": false,
      "t": 62425.55500000018,
      "d": 114.88802083333576,
      "v": 127
    },
    {
      "midi": 70,
      "hit": false,
      "t": 62425.55500000018,
      "d": 114.88802083333576,
      "v": 127
    },
    {
      "midi": 42,
      "hit": false,
      "t": 62646.13999999997,
      "d": 128.67458333333343,
      "v": 35
    },
    {
      "midi": 42,
      "hit": false,
      "t": 62866.72499999997,
      "d": 105.69697916666337,
      "v": 127
    },
    {
      "midi": 63,
      "hit": false,
      "t": 62866.72500000019,
      "d": 114.88802083333576,
      "v": 127
    },
    {
      "midi": 67,
      "hit": false,
      "t": 62866.72500000019,
      "d": 114.88802083333576,
      "v": 127
    },
    {
      "midi": 70,
      "hit": false,
      "t": 62866.72500000019,
      "d": 114.88802083333576,
      "v": 127
    },
    {
      "midi": 42,
      "hit": false,
      "t": 63087.30999999997,
      "d": 114.88802083333576,
      "v": 44
    },
    {
      "midi": 42,
      "hit": false,
      "t": 63307.89499999997,
      "d": 98.80369791666453,
      "v": 127
    },
    {
      "midi": 63,
      "hit": false,
      "t": 63307.89500000019,
      "d": 114.88802083333576,
      "v": 127
    },
    {
      "midi": 67,
      "hit": false,
      "t": 63307.89500000019,
      "d": 114.88802083333576,
      "v": 127
    },
    {
      "midi": 70,
      "hit": false,
      "t": 63307.89500000019,
      "d": 114.88802083333576,
      "v": 127
    },
    {
      "midi": 42,
      "hit": false,
      "t": 63528.47999999997,
      "d": 105.69697916666337,
      "v": 72
    },
    {
      "midi": 63,
      "hit": false,
      "t": 63528.48000000019,
      "d": 114.88802083333576,
      "v": 127
    },
    {
      "midi": 68,
      "hit": false,
      "t": 63528.48000000019,
      "d": 114.88802083333576,
      "v": 127
    },
    {
      "midi": 72,
      "hit": false,
      "t": 63528.48000000019,
      "d": 114.88802083333576,
      "v": 127
    },
    {
      "midi": 42,
      "hit": false,
      "t": 63749.064999999966,
      "d": 94.20817708333198,
      "v": 127
    },
    {
      "midi": 63,
      "hit": false,
      "t": 63859.357500000195,
      "d": 114.88802083333576,
      "v": 127
    },
    {
      "midi": 68,
      "hit": false,
      "t": 63859.357500000195,
      "d": 114.88802083333576,
      "v": 127
    },
    {
      "midi": 72,
      "hit": false,
      "t": 63859.357500000195,
      "d": 114.88802083333576,
      "v": 127
    },
    {
      "midi": 42,
      "hit": false,
      "t": 63969.649999999965,
      "d": 71.23057291666919,
      "v": 11
    },
    {
      "midi": 42,
      "hit": false,
      "t": 64190.234999999964,
      "d": 107.99473958333692,
      "v": 127
    },
    {
      "midi": 63,
      "hit": false,
      "t": 64190.2350000002,
      "d": 114.88802083333576,
      "v": 127
    },
    {
      "midi": 68,
      "hit": false,
      "t": 64190.2350000002,
      "d": 114.88802083333576,
      "v": 127
    },
    {
      "midi": 72,
      "hit": false,
      "t": 64190.2350000002,
      "d": 114.88802083333576,
      "v": 127
    },
    {
      "midi": 42,
      "hit": false,
      "t": 64410.81999999997,
      "d": 107.99473958333692,
      "v": 51
    },
    {
      "midi": 42,
      "hit": false,
      "t": 64631.40499999998,
      "d": 87.31489583333314,
      "v": 127
    },
    {
      "midi": 63,
      "hit": false,
      "t": 64631.4050000002,
      "d": 114.88802083333576,
      "v": 127
    },
    {
      "midi": 68,
      "hit": false,
      "t": 64631.4050000002,
      "d": 114.88802083333576,
      "v": 127
    },
    {
      "midi": 72,
      "hit": false,
      "t": 64631.4050000002,
      "d": 114.88802083333576,
      "v": 127
    },
    {
      "midi": 42,
      "hit": false,
      "t": 64851.989999999976,
      "d": 105.69697916666337,
      "v": 21
    },
    {
      "midi": 42,
      "hit": false,
      "t": 65072.574999999975,
      "d": 85.01713541666686,
      "v": 127
    },
    {
      "midi": 63,
      "hit": false,
      "t": 65072.57500000021,
      "d": 114.88802083333576,
      "v": 127
    },
    {
      "midi": 68,
      "hit": false,
      "t": 65072.57500000021,
      "d": 114.88802083333576,
      "v": 127
    },
    {
      "midi": 72,
      "hit": false,
      "t": 65072.57500000021,
      "d": 114.88802083333576,
      "v": 127
    },
    {
      "midi": 42,
      "hit": false,
      "t": 65293.159999999974,
      "d": 66.63505208333663,
      "v": 60
    },
    {
      "midi": 63,
      "hit": false,
      "t": 65293.16000000021,
      "d": 114.88802083333576,
      "v": 127
    },
    {
      "midi": 68,
      "hit": false,
      "t": 65293.16000000021,
      "d": 114.88802083333576,
      "v": 127
    },
    {
      "midi": 72,
      "hit": false,
      "t": 65293.16000000021,
      "d": 114.88802083333576,
      "v": 127
    },
    {
      "midi": 42,
      "hit": false,
      "t": 65513.74499999998,
      "d": 91.9104166666657,
      "v": 127
    },
    {
      "midi": 63,
      "hit": false,
      "t": 65624.03750000021,
      "d": 114.88802083332848,
      "v": 127
    },
    {
      "midi": 68,
      "hit": false,
      "t": 65624.03750000021,
      "d": 114.88802083332848,
      "v": 127
    },
    {
      "midi": 72,
      "hit": false,
      "t": 65624.03750000021,
      "d": 114.88802083332848,
      "v": 127
    },
    {
      "midi": 42,
      "hit": false,
      "t": 65734.32999999997,
      "d": 75.82609375000175,
      "v": 67
    },
    {
      "midi": 42,
      "hit": false,
      "t": 65954.91499999998,
      "d": 89.61265624999942,
      "v": 127
    },
    {
      "midi": 63,
      "hit": false,
      "t": 65954.91500000021,
      "d": 114.88802083332848,
      "v": 127
    },
    {
      "midi": 68,
      "hit": false,
      "t": 65954.91500000021,
      "d": 114.88802083332848,
      "v": 127
    },
    {
      "midi": 72,
      "hit": false,
      "t": 65954.91500000021,
      "d": 114.88802083332848,
      "v": 127
    },
    {
      "midi": 42,
      "hit": false,
      "t": 66175.49999999999,
      "d": 94.20817708333198,
      "v": 38
    },
    {
      "midi": 42,
      "hit": false,
      "t": 66396.08499999998,
      "d": 89.61265624999942,
      "v": 127
    },
    {
      "midi": 63,
      "hit": false,
      "t": 66396.08500000021,
      "d": 114.88802083332848,
      "v": 127
    },
    {
      "midi": 68,
      "hit": false,
      "t": 66396.08500000021,
      "d": 114.88802083332848,
      "v": 127
    },
    {
      "midi": 72,
      "hit": false,
      "t": 66396.08500000021,
      "d": 114.88802083332848,
      "v": 127
    },
    {
      "midi": 42,
      "hit": false,
      "t": 66616.66999999998,
      "d": 91.9104166666657,
      "v": 60
    },
    {
      "midi": 42,
      "hit": false,
      "t": 66837.25499999998,
      "d": 94.20817708333198,
      "v": 127
    },
    {
      "midi": 63,
      "hit": false,
      "t": 66837.25500000021,
      "d": 114.88802083332848,
      "v": 127
    },
    {
      "midi": 68,
      "hit": false,
      "t": 66837.25500000021,
      "d": 114.88802083332848,
      "v": 127
    },
    {
      "midi": 72,
      "hit": false,
      "t": 66837.25500000021,
      "d": 114.88802083332848,
      "v": 127
    },
    {
      "midi": 42,
      "hit": false,
      "t": 67057.83999999997,
      "d": 85.01713541666686,
      "v": 75
    },
    {
      "midi": 57,
      "hit": false,
      "t": 67057.83999999997,
      "d": 643.3729166666599,
      "v": 101
    },
    {
      "midi": 63,
      "hit": false,
      "t": 67057.8400000002,
      "d": 114.88802083332848,
      "v": 127
    },
    {
      "midi": 67,
      "hit": false,
      "t": 67057.8400000002,
      "d": 114.88802083332848,
      "v": 127
    },
    {
      "midi": 70,
      "hit": false,
      "t": 67057.8400000002,
      "d": 114.88802083332848,
      "v": 127
    },
    {
      "midi": 42,
      "hit": false,
      "t": 67278.42499999997,
      "d": 94.20817708333198,
      "v": 127
    },
    {
      "midi": 63,
      "hit": false,
      "t": 67388.7175000002,
      "d": 114.88802083332848,
      "v": 127
    },
    {
      "midi": 67,
      "hit": false,
      "t": 67388.7175000002,
      "d": 114.88802083332848,
      "v": 127
    },
    {
      "midi": 70,
      "hit": false,
      "t": 67388.7175000002,
      "d": 114.88802083332848,
      "v": 127
    },
    {
      "midi": 42,
      "hit": false,
      "t": 67499.00999999997,
      "d": 91.9104166666657,
      "v": 56
    },
    {
      "midi": 42,
      "hit": false,
      "t": 67719.59499999996,
      "d": 89.61265624999942,
      "v": 127
    },
    {
      "midi": 63,
      "hit": false,
      "t": 67719.5950000002,
      "d": 114.88802083332848,
      "v": 127
    },
    {
      "midi": 67,
      "hit": false,
      "t": 67719.5950000002,
      "d": 114.88802083332848,
      "v": 127
    },
    {
      "midi": 70,
      "hit": false,
      "t": 67719.5950000002,
      "d": 114.88802083332848,
      "v": 127
    },
    {
      "midi": 42,
      "hit": false,
      "t": 67940.17999999996,
      "d": 103.39921874999709,
      "v": 38
    },
    {
      "midi": 42,
      "hit": false,
      "t": 68160.76499999996,
      "d": 94.20817708333198,
      "v": 127
    },
    {
      "midi": 63,
      "hit": false,
      "t": 68160.7650000002,
      "d": 114.88802083332848,
      "v": 127
    },
    {
      "midi": 67,
      "hit": false,
      "t": 68160.7650000002,
      "d": 114.88802083332848,
      "v": 127
    },
    {
      "midi": 70,
      "hit": false,
      "t": 68160.7650000002,
      "d": 114.88802083332848,
      "v": 127
    },
    {
      "midi": 42,
      "hit": false,
      "t": 68381.34999999995,
      "d": 85.01713541666686,
      "v": 72
    },
    {
      "midi": 46,
      "hit": false,
      "t": 68601.93499999995,
      "d": 85.01713541666686,
      "v": 127
    },
    {
      "midi": 63,
      "hit": false,
      "t": 68601.9350000002,
      "d": 114.88802083332848,
      "v": 127
    },
    {
      "midi": 67,
      "hit": false,
      "t": 68601.9350000002,
      "d": 114.88802083332848,
      "v": 127
    },
    {
      "midi": 70,
      "hit": false,
      "t": 68601.9350000002,
      "d": 114.88802083332848,
      "v": 127
    },
    {
      "midi": 42,
      "hit": false,
      "t": 68822.51999999996,
      "d": 85.01713541666686,
      "v": 69
    },
    {
      "midi": 63,
      "hit": false,
      "t": 68822.5200000002,
      "d": 114.88802083332848,
      "v": 127
    },
    {
      "midi": 68,
      "hit": false,
      "t": 68822.5200000002,
      "d": 114.88802083332848,
      "v": 127
    },
    {
      "midi": 72,
      "hit": false,
      "t": 68822.5200000002,
      "d": 114.88802083332848,
      "v": 127
    },
    {
      "midi": 42,
      "hit": false,
      "t": 69043.10499999997,
      "d": 101.10145833333081,
      "v": 127
    },
    {
      "midi": 63,
      "hit": false,
      "t": 69153.3975000002,
      "d": 114.88802083332848,
      "v": 127
    },
    {
      "midi": 68,
      "hit": false,
      "t": 69153.3975000002,
      "d": 114.88802083332848,
      "v": 127
    },
    {
      "midi": 72,
      "hit": false,
      "t": 69153.3975000002,
      "d": 114.88802083332848,
      "v": 127
    },
    {
      "midi": 42,
      "hit": false,
      "t": 69263.68999999996,
      "d": 103.39921874999709,
      "v": 48
    },
    {
      "midi": 42,
      "hit": false,
      "t": 69484.27499999995,
      "d": 98.80369791666453,
      "v": 127
    },
    {
      "midi": 63,
      "hit": false,
      "t": 69484.2750000002,
      "d": 114.88802083332848,
      "v": 127
    },
    {
      "midi": 68,
      "hit": false,
      "t": 69484.2750000002,
      "d": 114.88802083332848,
      "v": 127
    },
    {
      "midi": 72,
      "hit": false,
      "t": 69484.2750000002,
      "d": 114.88802083332848,
      "v": 127
    },
    {
      "midi": 42,
      "hit": false,
      "t": 69704.85999999994,
      "d": 101.10145833333081,
      "v": 51
    },
    {
      "midi": 42,
      "hit": false,
      "t": 69925.44499999993,
      "d": 103.39921874999709,
      "v": 127
    },
    {
      "midi": 63,
      "hit": false,
      "t": 69925.4450000002,
      "d": 114.88802083332848,
      "v": 127
    },
    {
      "midi": 68,
      "hit": false,
      "t": 69925.4450000002,
      "d": 114.88802083332848,
      "v": 127
    },
    {
      "midi": 72,
      "hit": false,
      "t": 69925.4450000002,
      "d": 114.88802083332848,
      "v": 127
    },
    {
      "midi": 42,
      "hit": false,
      "t": 70146.02999999993,
      "d": 112.5902604166622,
      "v": 60
    },
    {
      "midi": 42,
      "hit": false,
      "t": 70366.61499999992,
      "d": 96.50593749999825,
      "v": 127
    },
    {
      "midi": 63,
      "hit": false,
      "t": 70366.6150000002,
      "d": 114.88802083332848,
      "v": 127
    },
    {
      "midi": 68,
      "hit": false,
      "t": 70366.6150000002,
      "d": 114.88802083332848,
      "v": 127
    },
    {
      "midi": 72,
      "hit": false,
      "t": 70366.6150000002,
      "d": 114.88802083332848,
      "v": 127
    },
    {
      "midi": 42,
      "hit": false,
      "t": 70587.19999999991,
      "d": 82.71937500000058,
      "v": 30
    },
    {
      "midi": 57,
      "hit": false,
      "t": 70587.19999999991,
      "d": 110.29249999999593,
      "v": 93
    },
    {
      "midi": 63,
      "hit": false,
      "t": 70587.20000000019,
      "d": 114.88802083332848,
      "v": 127
    },
    {
      "midi": 68,
      "hit": false,
      "t": 70587.20000000019,
      "d": 114.88802083332848,
      "v": 127
    },
    {
      "midi": 72,
      "hit": false,
      "t": 70587.20000000019,
      "d": 114.88802083332848,
      "v": 127
    },
    {
      "midi": 42,
      "hit": false,
      "t": 70807.7849999999,
      "d": 98.80369791666453,
      "v": 127
    },
    {
      "midi": 42,
      "hit": false,
      "t": 71028.3699999999,
      "d": 82.71937500000058,
      "v": 54
    },
    {
      "midi": 57,
      "hit": false,
      "t": 71028.3699999999,
      "d": 110.29249999999593,
      "v": 93
    },
    {
      "midi": 63,
      "hit": false,
      "t": 71028.37000000018,
      "d": 114.88802083332848,
      "v": 127
    },
    {
      "midi": 68,
      "hit": false,
      "t": 71028.37000000018,
      "d": 114.88802083332848,
      "v": 127
    },
    {
      "midi": 72,
      "hit": false,
      "t": 71028.37000000018,
      "d": 114.88802083332848,
      "v": 127
    },
    {
      "midi": 52,
      "hit": false,
      "t": 71138.66249999989,
      "d": 1141.9869270833005,
      "v": 127
    },
    {
      "midi": 42,
      "hit": false,
      "t": 71248.95499999989,
      "d": 103.39921874999709,
      "v": 127
    },
    {
      "midi": 42,
      "hit": false,
      "t": 71469.53999999988,
      "d": 87.31489583333314,
      "v": 46
    },
    {
      "midi": 57,
      "hit": false,
      "t": 71469.53999999988,
      "d": 110.29249999999593,
      "v": 93
    },
    {
      "midi": 63,
      "hit": false,
      "t": 71469.54000000018,
      "d": 114.88802083332848,
      "v": 127
    },
    {
      "midi": 68,
      "hit": false,
      "t": 71469.54000000018,
      "d": 114.88802083332848,
      "v": 127
    },
    {
      "midi": 72,
      "hit": false,
      "t": 71469.54000000018,
      "d": 114.88802083332848,
      "v": 127
    },
    {
      "midi": 42,
      "hit": false,
      "t": 71690.12499999987,
      "d": 91.9104166666657,
      "v": 127
    },
    {
      "midi": 42,
      "hit": false,
      "t": 71910.70999999986,
      "d": 91.9104166666657,
      "v": 56
    },
    {
      "midi": 57,
      "hit": false,
      "t": 71910.70999999986,
      "d": 110.29249999999593,
      "v": 87
    },
    {
      "midi": 42,
      "hit": false,
      "t": 72131.29499999985,
      "d": 94.20817708333198,
      "v": 127
    },
    {
      "midi": 42,
      "hit": false,
      "t": 72351.87999999986,
      "d": 82.71937500000058,
      "v": 16
    },
    {
      "midi": 57,
      "hit": false,
      "t": 72351.87999999986,
      "d": 1369.4652083333203,
      "v": 112
    },
    {
      "midi": 67,
      "hit": false,
      "t": 72351.88000000018,
      "d": 114.88802083332848,
      "v": 127
    },
    {
      "midi": 71,
      "hit": false,
      "t": 72351.88000000018,
      "d": 114.88802083332848,
      "v": 127
    },
    {
      "midi": 74,
      "hit": false,
      "t": 72351.88000000018,
      "d": 114.88802083332848,
      "v": 127
    },
    {
      "midi": 42,
      "hit": false,
      "t": 72572.46499999987,
      "d": 147.05666666667094,
      "v": 127
    },
    {
      "midi": 67,
      "hit": false,
      "t": 72682.75750000018,
      "d": 114.88802083332848,
      "v": 127
    },
    {
      "midi": 71,
      "hit": false,
      "t": 72682.75750000018,
      "d": 114.88802083332848,
      "v": 127
    },
    {
      "midi": 74,
      "hit": false,
      "t": 72682.75750000018,
      "d": 114.88802083332848,
      "v": 127
    },
    {
      "midi": 42,
      "hit": false,
      "t": 72793.04999999987,
      "d": 128.67458333332615,
      "v": 26
    },
    {
      "midi": 42,
      "hit": false,
      "t": 73013.63499999986,
      "d": 126.37682291665988,
      "v": 112
    },
    {
      "midi": 67,
      "hit": false,
      "t": 73013.63500000018,
      "d": 114.88802083332848,
      "v": 127
    },
    {
      "midi": 71,
      "hit": false,
      "t": 73013.63500000018,
      "d": 114.88802083332848,
      "v": 127
    },
    {
      "midi": 74,
      "hit": false,
      "t": 73013.63500000018,
      "d": 114.88802083332848,
      "v": 127
    },
    {
      "midi": 42,
      "hit": false,
      "t": 73234.21999999986,
      "d": 128.67458333332615,
      "v": 35
    },
    {
      "midi": 42,
      "hit": false,
      "t": 73454.80499999985,
      "d": 105.69697916666337,
      "v": 127
    },
    {
      "midi": 67,
      "hit": false,
      "t": 73454.80500000018,
      "d": 114.88802083332848,
      "v": 127
    },
    {
      "midi": 71,
      "hit": false,
      "t": 73454.80500000018,
      "d": 114.88802083332848,
      "v": 127
    },
    {
      "midi": 74,
      "hit": false,
      "t": 73454.80500000018,
      "d": 114.88802083332848,
      "v": 127
    },
    {
      "midi": 42,
      "hit": false,
      "t": 73675.38999999984,
      "d": 114.88802083334303,
      "v": 44
    },
    {
      "midi": 42,
      "hit": false,
      "t": 73895.97499999985,
      "d": 98.80369791666453,
      "v": 127
    },
    {
      "midi": 67,
      "hit": false,
      "t": 73895.97500000018,
      "d": 114.88802083332848,
      "v": 127
    },
    {
      "midi": 71,
      "hit": false,
      "t": 73895.97500000018,
      "d": 114.88802083332848,
      "v": 127
    },
    {
      "midi": 74,
      "hit": false,
      "t": 73895.97500000018,
      "d": 114.88802083332848,
      "v": 127
    },
    {
      "midi": 42,
      "hit": false,
      "t": 74116.55999999984,
      "d": 105.69697916666337,
      "v": 72
    },
    {
      "midi": 67,
      "hit": false,
      "t": 74116.56000000017,
      "d": 114.88802083332848,
      "v": 127
    },
    {
      "midi": 71,
      "hit": false,
      "t": 74116.56000000017,
      "d": 114.88802083332848,
      "v": 127
    },
    {
      "midi": 74,
      "hit": false,
      "t": 74116.56000000017,
      "d": 114.88802083332848,
      "v": 127
    },
    {
      "midi": 76,
      "hit": false,
      "t": 74116.56000000017,
      "d": 114.88802083332848,
      "v": 127
    },
    {
      "midi": 42,
      "hit": false,
      "t": 74337.14499999983,
      "d": 94.20817708333198,
      "v": 127
    },
    {
      "midi": 67,
      "hit": false,
      "t": 74447.43750000017,
      "d": 114.88802083332848,
      "v": 127
    },
    {
      "midi": 71,
      "hit": false,
      "t": 74447.43750000017,
      "d": 114.88802083332848,
      "v": 127
    },
    {
      "midi": 74,
      "hit": false,
      "t": 74447.43750000017,
      "d": 114.88802083332848,
      "v": 127
    },
    {
      "midi": 76,
      "hit": false,
      "t": 74447.43750000017,
      "d": 114.88802083332848,
      "v": 127
    },
    {
      "midi": 42,
      "hit": false,
      "t": 74557.72999999982,
      "d": 71.23057291666919,
      "v": 11
    },
    {
      "midi": 42,
      "hit": false,
      "t": 74778.31499999983,
      "d": 107.99473958332965,
      "v": 127
    },
    {
      "midi": 67,
      "hit": false,
      "t": 74778.31500000018,
      "d": 114.88802083332848,
      "v": 127
    },
    {
      "midi": 71,
      "hit": false,
      "t": 74778.31500000018,
      "d": 114.88802083332848,
      "v": 127
    },
    {
      "midi": 74,
      "hit": false,
      "t": 74778.31500000018,
      "d": 114.88802083332848,
      "v": 127
    },
    {
      "midi": 76,
      "hit": false,
      "t": 74778.31500000018,
      "d": 114.88802083332848,
      "v": 127
    },
    {
      "midi": 42,
      "hit": false,
      "t": 74998.89999999982,
      "d": 107.99473958332965,
      "v": 51
    },
    {
      "midi": 42,
      "hit": false,
      "t": 75219.48499999981,
      "d": 87.31489583333314,
      "v": 127
    },
    {
      "midi": 67,
      "hit": false,
      "t": 75219.48500000018,
      "d": 114.88802083332848,
      "v": 127
    },
    {
      "midi": 71,
      "hit": false,
      "t": 75219.48500000018,
      "d": 114.88802083332848,
      "v": 127
    },
    {
      "midi": 74,
      "hit": false,
      "t": 75219.48500000018,
      "d": 114.88802083332848,
      "v": 127
    },
    {
      "midi": 76,
      "hit": false,
      "t": 75219.48500000018,
      "d": 114.88802083332848,
      "v": 127
    },
    {
      "midi": 42,
      "hit": false,
      "t": 75440.06999999982,
      "d": 105.69697916666337,
      "v": 21
    },
    {
      "midi": 42,
      "hit": false,
      "t": 75660.65499999981,
      "d": 85.01713541666686,
      "v": 127
    },
    {
      "midi": 67,
      "hit": false,
      "t": 75660.65500000017,
      "d": 114.88802083332848,
      "v": 127
    },
    {
      "midi": 71,
      "hit": false,
      "t": 75660.65500000017,
      "d": 114.88802083332848,
      "v": 127
    },
    {
      "midi": 74,
      "hit": false,
      "t": 75660.65500000017,
      "d": 114.88802083332848,
      "v": 127
    },
    {
      "midi": 76,
      "hit": false,
      "t": 75660.65500000017,
      "d": 114.88802083332848,
      "v": 127
    },
    {
      "midi": 42,
      "hit": false,
      "t": 75881.23999999982,
      "d": 66.63505208333663,
      "v": 60
    },
    {
      "midi": 67,
      "hit": false,
      "t": 75881.24000000017,
      "d": 114.88802083332848,
      "v": 127
    },
    {
      "midi": 72,
      "hit": false,
      "t": 75881.24000000017,
      "d": 114.88802083332848,
      "v": 127
    },
    {
      "midi": 76,
      "hit": false,
      "t": 75881.24000000017,
      "d": 114.88802083332848,
      "v": 127
    },
    {
      "midi": 42,
      "hit": false,
      "t": 76101.82499999982,
      "d": 91.9104166666657,
      "v": 127
    },
    {
      "midi": 67,
      "hit": false,
      "t": 76212.11750000017,
      "d": 114.88802083332848,
      "v": 127
    },
    {
      "midi": 72,
      "hit": false,
      "t": 76212.11750000017,
      "d": 114.88802083332848,
      "v": 127
    },
    {
      "midi": 76,
      "hit": false,
      "t": 76212.11750000017,
      "d": 114.88802083332848,
      "v": 127
    },
    {
      "midi": 42,
      "hit": false,
      "t": 76322.40999999981,
      "d": 75.82609375000175,
      "v": 67
    },
    {
      "midi": 42,
      "hit": false,
      "t": 76542.99499999982,
      "d": 89.61265624999942,
      "v": 127
    },
    {
      "midi": 67,
      "hit": false,
      "t": 76542.99500000017,
      "d": 114.88802083332848,
      "v": 127
    },
    {
      "midi": 72,
      "hit": false,
      "t": 76542.99500000017,
      "d": 114.88802083332848,
      "v": 127
    },
    {
      "midi": 76,
      "hit": false,
      "t": 76542.99500000017,
      "d": 114.88802083332848,
      "v": 127
    },
    {
      "midi": 42,
      "hit": false,
      "t": 76763.57999999983,
      "d": 94.20817708333198,
      "v": 38
    },
    {
      "midi": 42,
      "hit": false,
      "t": 76984.16499999982,
      "d": 89.61265624999942,
      "v": 127
    },
    {
      "midi": 67,
      "hit": false,
      "t": 76984.16500000017,
      "d": 114.88802083332848,
      "v": 127
    },
    {
      "midi": 72,
      "hit": false,
      "t": 76984.16500000017,
      "d": 114.88802083332848,
      "v": 127
    },
    {
      "midi": 76,
      "hit": false,
      "t": 76984.16500000017,
      "d": 114.88802083332848,
      "v": 127
    },
    {
      "midi": 42,
      "hit": false,
      "t": 77204.74999999983,
      "d": 91.9104166666657,
      "v": 60
    },
    {
      "midi": 42,
      "hit": false,
      "t": 77425.33499999982,
      "d": 94.20817708333198,
      "v": 127
    },
    {
      "midi": 67,
      "hit": false,
      "t": 77425.33500000017,
      "d": 114.88802083332848,
      "v": 127
    },
    {
      "midi": 72,
      "hit": false,
      "t": 77425.33500000017,
      "d": 114.88802083332848,
      "v": 127
    },
    {
      "midi": 76,
      "hit": false,
      "t": 77425.33500000017,
      "d": 114.88802083332848,
      "v": 127
    },
    {
      "midi": 42,
      "hit": false,
      "t": 77645.91999999981,
      "d": 85.01713541666686,
      "v": 75
    },
    {
      "midi": 66,
      "hit": false,
      "t": 77645.92000000016,
      "d": 114.88802083332848,
      "v": 127
    },
    {
      "midi": 69,
      "hit": false,
      "t": 77645.92000000016,
      "d": 114.88802083332848,
      "v": 127
    },
    {
      "midi": 74,
      "hit": false,
      "t": 77645.92000000016,
      "d": 114.88802083332848,
      "v": 127
    },
    {
      "midi": 42,
      "hit": false,
      "t": 77866.50499999982,
      "d": 94.20817708333198,
      "v": 127
    },
    {
      "midi": 66,
      "hit": false,
      "t": 77976.79750000016,
      "d": 114.88802083332848,
      "v": 127
    },
    {
      "midi": 69,
      "hit": false,
      "t": 77976.79750000016,
      "d": 114.88802083332848,
      "v": 127
    },
    {
      "midi": 74,
      "hit": false,
      "t": 77976.79750000016,
      "d": 114.88802083332848,
      "v": 127
    },
    {
      "midi": 42,
      "hit": false,
      "t": 78087.08999999981,
      "d": 91.9104166666657,
      "v": 56
    },
    {
      "midi": 42,
      "hit": false,
      "t": 78307.6749999998,
      "d": 89.61265624999942,
      "v": 127
    },
    {
      "midi": 66,
      "hit": false,
      "t": 78307.67500000016,
      "d": 114.88802083332848,
      "v": 127
    },
    {
      "midi": 69,
      "hit": false,
      "t": 78307.67500000016,
      "d": 114.88802083332848,
      "v": 127
    },
    {
      "midi": 74,
      "hit": false,
      "t": 78307.67500000016,
      "d": 114.88802083332848,
      "v": 127
    },
    {
      "midi": 42,
      "hit": false,
      "t": 78528.2599999998,
      "d": 103.39921874999709,
      "v": 38
    },
    {
      "midi": 42,
      "hit": false,
      "t": 78748.8449999998,
      "d": 94.20817708333198,
      "v": 127
    },
    {
      "midi": 66,
      "hit": false,
      "t": 78748.84500000016,
      "d": 114.88802083332848,
      "v": 127
    },
    {
      "midi": 69,
      "hit": false,
      "t": 78748.84500000016,
      "d": 114.88802083332848,
      "v": 127
    },
    {
      "midi": 74,
      "hit": false,
      "t": 78748.84500000016,
      "d": 114.88802083332848,
      "v": 127
    },
    {
      "midi": 42,
      "hit": false,
      "t": 78969.42999999979,
      "d": 85.01713541666686,
      "v": 72
    },
    {
      "midi": 46,
      "hit": false,
      "t": 79190.0149999998,
      "d": 85.01713541666686,
      "v": 127
    },
    {
      "midi": 66,
      "hit": false,
      "t": 79190.01500000016,
      "d": 114.88802083332848,
      "v": 127
    },
    {
      "midi": 69,
      "hit": false,
      "t": 79190.01500000016,
      "d": 114.88802083332848,
      "v": 127
    },
    {
      "midi": 74,
      "hit": false,
      "t": 79190.01500000016,
      "d": 114.88802083332848,
      "v": 127
    },
    {
      "midi": 42,
      "hit": false,
      "t": 79410.5999999998,
      "d": 82.71937500000058,
      "v": 16
    },
    {
      "midi": 57,
      "hit": false,
      "t": 79410.5999999998,
      "d": 220.5850000000064,
      "v": 112
    },
    {
      "midi": 67,
      "hit": false,
      "t": 79410.60000000015,
      "d": 114.88802083332848,
      "v": 127
    },
    {
      "midi": 71,
      "hit": false,
      "t": 79410.60000000015,
      "d": 114.88802083332848,
      "v": 127
    },
    {
      "midi": 74,
      "hit": false,
      "t": 79410.60000000015,
      "d": 114.88802083332848,
      "v": 127
    },
    {
      "midi": 42,
      "hit": false,
      "t": 79631.18499999981,
      "d": 147.05666666667094,
      "v": 127
    },
    {
      "midi": 67,
      "hit": false,
      "t": 79741.47750000015,
      "d": 114.88802083332848,
      "v": 127
    },
    {
      "midi": 71,
      "hit": false,
      "t": 79741.47750000015,
      "d": 114.88802083332848,
      "v": 127
    },
    {
      "midi": 74,
      "hit": false,
      "t": 79741.47750000015,
      "d": 114.88802083332848,
      "v": 127
    },
    {
      "midi": 42,
      "hit": false,
      "t": 79851.76999999981,
      "d": 128.67458333332615,
      "v": 26
    },
    {
      "midi": 42,
      "hit": false,
      "t": 80072.3549999998,
      "d": 126.37682291665988,
      "v": 112
    },
    {
      "midi": 67,
      "hit": false,
      "t": 80072.35500000016,
      "d": 114.88802083332848,
      "v": 127
    },
    {
      "midi": 71,
      "hit": false,
      "t": 80072.35500000016,
      "d": 114.88802083332848,
      "v": 127
    },
    {
      "midi": 74,
      "hit": false,
      "t": 80072.35500000016,
      "d": 114.88802083332848,
      "v": 127
    },
    {
      "midi": 42,
      "hit": false,
      "t": 80292.9399999998,
      "d": 128.67458333332615,
      "v": 35
    },
    {
      "midi": 42,
      "hit": false,
      "t": 80513.52499999979,
      "d": 105.69697916666337,
      "v": 127
    },
    {
      "midi": 67,
      "hit": false,
      "t": 80513.52500000015,
      "d": 114.88802083332848,
      "v": 127
    },
    {
      "midi": 71,
      "hit": false,
      "t": 80513.52500000015,
      "d": 114.88802083332848,
      "v": 127
    },
    {
      "midi": 74,
      "hit": false,
      "t": 80513.52500000015,
      "d": 114.88802083332848,
      "v": 127
    },
    {
      "midi": 42,
      "hit": false,
      "t": 80734.10999999978,
      "d": 114.88802083332848,
      "v": 44
    },
    {
      "midi": 42,
      "hit": false,
      "t": 80954.69499999977,
      "d": 98.80369791666453,
      "v": 127
    },
    {
      "midi": 67,
      "hit": false,
      "t": 80954.69500000015,
      "d": 114.88802083332848,
      "v": 127
    },
    {
      "midi": 71,
      "hit": false,
      "t": 80954.69500000015,
      "d": 114.88802083332848,
      "v": 127
    },
    {
      "midi": 74,
      "hit": false,
      "t": 80954.69500000015,
      "d": 114.88802083332848,
      "v": 127
    },
    {
      "midi": 42,
      "hit": false,
      "t": 81175.27999999977,
      "d": 105.69697916666337,
      "v": 72
    },
    {
      "midi": 67,
      "hit": false,
      "t": 81175.28000000014,
      "d": 114.88802083332848,
      "v": 127
    },
    {
      "midi": 71,
      "hit": false,
      "t": 81175.28000000014,
      "d": 114.88802083332848,
      "v": 127
    },
    {
      "midi": 74,
      "hit": false,
      "t": 81175.28000000014,
      "d": 114.88802083332848,
      "v": 127
    },
    {
      "midi": 76,
      "hit": false,
      "t": 81175.28000000014,
      "d": 114.88802083332848,
      "v": 127
    },
    {
      "midi": 42,
      "hit": false,
      "t": 81395.86499999976,
      "d": 94.20817708333198,
      "v": 127
    },
    {
      "midi": 67,
      "hit": false,
      "t": 81506.15750000015,
      "d": 114.88802083332848,
      "v": 127
    },
    {
      "midi": 71,
      "hit": false,
      "t": 81506.15750000015,
      "d": 114.88802083332848,
      "v": 127
    },
    {
      "midi": 74,
      "hit": false,
      "t": 81506.15750000015,
      "d": 114.88802083332848,
      "v": 127
    },
    {
      "midi": 76,
      "hit": false,
      "t": 81506.15750000015,
      "d": 114.88802083332848,
      "v": 127
    },
    {
      "midi": 42,
      "hit": false,
      "t": 81616.44999999975,
      "d": 71.23057291666919,
      "v": 11
    },
    {
      "midi": 42,
      "hit": false,
      "t": 81837.03499999976,
      "d": 107.99473958332965,
      "v": 127
    },
    {
      "midi": 67,
      "hit": false,
      "t": 81837.03500000015,
      "d": 114.88802083332848,
      "v": 127
    },
    {
      "midi": 71,
      "hit": false,
      "t": 81837.03500000015,
      "d": 114.88802083332848,
      "v": 127
    },
    {
      "midi": 74,
      "hit": false,
      "t": 81837.03500000015,
      "d": 114.88802083332848,
      "v": 127
    },
    {
      "midi": 76,
      "hit": false,
      "t": 81837.03500000015,
      "d": 114.88802083332848,
      "v": 127
    },
    {
      "midi": 42,
      "hit": false,
      "t": 82057.61999999975,
      "d": 107.99473958332965,
      "v": 51
    },
    {
      "midi": 42,
      "hit": false,
      "t": 82278.20499999974,
      "d": 87.31489583333314,
      "v": 127
    },
    {
      "midi": 67,
      "hit": false,
      "t": 82278.20500000015,
      "d": 114.88802083332848,
      "v": 127
    },
    {
      "midi": 71,
      "hit": false,
      "t": 82278.20500000015,
      "d": 114.88802083332848,
      "v": 127
    },
    {
      "midi": 74,
      "hit": false,
      "t": 82278.20500000015,
      "d": 114.88802083332848,
      "v": 127
    },
    {
      "midi": 76,
      "hit": false,
      "t": 82278.20500000015,
      "d": 114.88802083332848,
      "v": 127
    },
    {
      "midi": 42,
      "hit": false,
      "t": 82498.78999999975,
      "d": 105.69697916666337,
      "v": 21
    },
    {
      "midi": 42,
      "hit": false,
      "t": 82719.37499999974,
      "d": 85.01713541666686,
      "v": 127
    },
    {
      "midi": 67,
      "hit": false,
      "t": 82719.37500000015,
      "d": 114.88802083332848,
      "v": 127
    },
    {
      "midi": 71,
      "hit": false,
      "t": 82719.37500000015,
      "d": 114.88802083332848,
      "v": 127
    },
    {
      "midi": 74,
      "hit": false,
      "t": 82719.37500000015,
      "d": 114.88802083332848,
      "v": 127
    },
    {
      "midi": 76,
      "hit": false,
      "t": 82719.37500000015,
      "d": 114.88802083332848,
      "v": 127
    },
    {
      "midi": 42,
      "hit": false,
      "t": 82939.95999999974,
      "d": 66.63505208333663,
      "v": 60
    },
    {
      "midi": 67,
      "hit": false,
      "t": 82939.96000000014,
      "d": 114.88802083332848,
      "v": 127
    },
    {
      "midi": 72,
      "hit": false,
      "t": 82939.96000000014,
      "d": 114.88802083332848,
      "v": 127
    },
    {
      "midi": 76,
      "hit": false,
      "t": 82939.96000000014,
      "d": 114.88802083332848,
      "v": 127
    },
    {
      "midi": 42,
      "hit": false,
      "t": 83160.54499999975,
      "d": 91.9104166666657,
      "v": 127
    },
    {
      "midi": 67,
      "hit": false,
      "t": 83270.83750000014,
      "d": 114.88802083332848,
      "v": 127
    },
    {
      "midi": 72,
      "hit": false,
      "t": 83270.83750000014,
      "d": 114.88802083332848,
      "v": 127
    },
    {
      "midi": 76,
      "hit": false,
      "t": 83270.83750000014,
      "d": 114.88802083332848,
      "v": 127
    },
    {
      "midi": 42,
      "hit": false,
      "t": 83381.12999999974,
      "d": 75.82609375000175,
      "v": 67
    },
    {
      "midi": 42,
      "hit": false,
      "t": 83601.71499999975,
      "d": 89.61265624999942,
      "v": 127
    },
    {
      "midi": 67,
      "hit": false,
      "t": 83601.71500000014,
      "d": 114.88802083332848,
      "v": 127
    },
    {
      "midi": 72,
      "hit": false,
      "t": 83601.71500000014,
      "d": 114.88802083332848,
      "v": 127
    },
    {
      "midi": 76,
      "hit": false,
      "t": 83601.71500000014,
      "d": 114.88802083332848,
      "v": 127
    },
    {
      "midi": 42,
      "hit": false,
      "t": 83822.29999999976,
      "d": 94.20817708333198,
      "v": 38
    },
    {
      "midi": 42,
      "hit": false,
      "t": 84042.88499999975,
      "d": 89.61265624999942,
      "v": 127
    },
    {
      "midi": 67,
      "hit": false,
      "t": 84042.88500000014,
      "d": 114.88802083332848,
      "v": 127
    },
    {
      "midi": 72,
      "hit": false,
      "t": 84042.88500000014,
      "d": 114.88802083332848,
      "v": 127
    },
    {
      "midi": 76,
      "hit": false,
      "t": 84042.88500000014,
      "d": 114.88802083332848,
      "v": 127
    },
    {
      "midi": 42,
      "hit": false,
      "t": 84263.46999999975,
      "d": 91.9104166666657,
      "v": 60
    },
    {
      "midi": 42,
      "hit": false,
      "t": 84484.05499999975,
      "d": 94.20817708333198,
      "v": 127
    },
    {
      "midi": 67,
      "hit": false,
      "t": 84484.05500000014,
      "d": 114.88802083332848,
      "v": 127
    },
    {
      "midi": 72,
      "hit": false,
      "t": 84484.05500000014,
      "d": 114.88802083332848,
      "v": 127
    },
    {
      "midi": 76,
      "hit": false,
      "t": 84484.05500000014,
      "d": 114.88802083332848,
      "v": 127
    },
    {
      "midi": 42,
      "hit": false,
      "t": 84704.63999999974,
      "d": 85.01713541666686,
      "v": 75
    },
    {
      "midi": 66,
      "hit": false,
      "t": 84704.64000000013,
      "d": 114.88802083332848,
      "v": 127
    },
    {
      "midi": 69,
      "hit": false,
      "t": 84704.64000000013,
      "d": 114.88802083332848,
      "v": 127
    },
    {
      "midi": 74,
      "hit": false,
      "t": 84704.64000000013,
      "d": 114.88802083332848,
      "v": 127
    },
    {
      "midi": 42,
      "hit": false,
      "t": 84925.22499999974,
      "d": 94.20817708333198,
      "v": 127
    },
    {
      "midi": 66,
      "hit": false,
      "t": 85035.51750000013,
      "d": 114.88802083332848,
      "v": 127
    },
    {
      "midi": 69,
      "hit": false,
      "t": 85035.51750000013,
      "d": 114.88802083332848,
      "v": 127
    },
    {
      "midi": 74,
      "hit": false,
      "t": 85035.51750000013,
      "d": 114.88802083332848,
      "v": 127
    },
    {
      "midi": 42,
      "hit": false,
      "t": 85145.80999999974,
      "d": 91.9104166666657,
      "v": 56
    },
    {
      "midi": 42,
      "hit": false,
      "t": 85366.39499999973,
      "d": 89.61265624999942,
      "v": 127
    },
    {
      "midi": 66,
      "hit": false,
      "t": 85366.39500000014,
      "d": 114.88802083332848,
      "v": 127
    },
    {
      "midi": 69,
      "hit": false,
      "t": 85366.39500000014,
      "d": 114.88802083332848,
      "v": 127
    },
    {
      "midi": 74,
      "hit": false,
      "t": 85366.39500000014,
      "d": 114.88802083332848,
      "v": 127
    },
    {
      "midi": 42,
      "hit": false,
      "t": 85586.97999999973,
      "d": 103.39921874999709,
      "v": 38
    },
    {
      "midi": 42,
      "hit": false,
      "t": 85807.56499999973,
      "d": 94.20817708333198,
      "v": 127
    },
    {
      "midi": 66,
      "hit": false,
      "t": 85807.56500000013,
      "d": 114.88802083332848,
      "v": 127
    },
    {
      "midi": 69,
      "hit": false,
      "t": 85807.56500000013,
      "d": 114.88802083332848,
      "v": 127
    },
    {
      "midi": 74,
      "hit": false,
      "t": 85807.56500000013,
      "d": 114.88802083332848,
      "v": 127
    },
    {
      "midi": 42,
      "hit": false,
      "t": 86028.14999999972,
      "d": 85.01713541666686,
      "v": 72
    },
    {
      "midi": 46,
      "hit": false,
      "t": 86248.73499999972,
      "d": 85.01713541666686,
      "v": 127
    },
    {
      "midi": 66,
      "hit": false,
      "t": 86248.73500000013,
      "d": 114.88802083332848,
      "v": 127
    },
    {
      "midi": 69,
      "hit": false,
      "t": 86248.73500000013,
      "d": 114.88802083332848,
      "v": 127
    },
    {
      "midi": 74,
      "hit": false,
      "t": 86248.73500000013,
      "d": 114.88802083332848,
      "v": 127
    },
    {
      "midi": 42,
      "hit": false,
      "t": 86469.31999999973,
      "d": 82.71937500000058,
      "v": 16
    },
    {
      "midi": 57,
      "hit": false,
      "t": 86469.31999999973,
      "d": 220.5850000000064,
      "v": 112
    },
    {
      "midi": 67,
      "hit": false,
      "t": 86469.32000000012,
      "d": 114.88802083332848,
      "v": 127
    },
    {
      "midi": 71,
      "hit": false,
      "t": 86469.32000000012,
      "d": 114.88802083332848,
      "v": 127
    },
    {
      "midi": 74,
      "hit": false,
      "t": 86469.32000000012,
      "d": 114.88802083332848,
      "v": 127
    },
    {
      "midi": 42,
      "hit": false,
      "t": 86689.90499999974,
      "d": 147.05666666667094,
      "v": 127
    },
    {
      "midi": 67,
      "hit": false,
      "t": 86800.19750000013,
      "d": 114.88802083332848,
      "v": 127
    },
    {
      "midi": 71,
      "hit": false,
      "t": 86800.19750000013,
      "d": 114.88802083332848,
      "v": 127
    },
    {
      "midi": 74,
      "hit": false,
      "t": 86800.19750000013,
      "d": 114.88802083332848,
      "v": 127
    },
    {
      "midi": 42,
      "hit": false,
      "t": 86910.48999999974,
      "d": 128.67458333332615,
      "v": 26
    },
    {
      "midi": 42,
      "hit": false,
      "t": 87131.07499999974,
      "d": 126.37682291665988,
      "v": 112
    },
    {
      "midi": 67,
      "hit": false,
      "t": 87131.07500000013,
      "d": 114.88802083332848,
      "v": 127
    },
    {
      "midi": 71,
      "hit": false,
      "t": 87131.07500000013,
      "d": 114.88802083332848,
      "v": 127
    },
    {
      "midi": 74,
      "hit": false,
      "t": 87131.07500000013,
      "d": 114.88802083332848,
      "v": 127
    },
    {
      "midi": 42,
      "hit": false,
      "t": 87351.65999999973,
      "d": 128.67458333332615,
      "v": 35
    },
    {
      "midi": 42,
      "hit": false,
      "t": 87572.24499999972,
      "d": 105.69697916666337,
      "v": 127
    },
    {
      "midi": 67,
      "hit": false,
      "t": 87572.24500000013,
      "d": 114.88802083332848,
      "v": 127
    },
    {
      "midi": 71,
      "hit": false,
      "t": 87572.24500000013,
      "d": 114.88802083332848,
      "v": 127
    },
    {
      "midi": 74,
      "hit": false,
      "t": 87572.24500000013,
      "d": 114.88802083332848,
      "v": 127
    },
    {
      "midi": 42,
      "hit": false,
      "t": 87792.82999999971,
      "d": 114.88802083332848,
      "v": 44
    },
    {
      "midi": 42,
      "hit": false,
      "t": 88013.4149999997,
      "d": 98.80369791666453,
      "v": 127
    },
    {
      "midi": 67,
      "hit": false,
      "t": 88013.41500000012,
      "d": 114.88802083332848,
      "v": 127
    },
    {
      "midi": 71,
      "hit": false,
      "t": 88013.41500000012,
      "d": 114.88802083332848,
      "v": 127
    },
    {
      "midi": 74,
      "hit": false,
      "t": 88013.41500000012,
      "d": 114.88802083332848,
      "v": 127
    },
    {
      "midi": 42,
      "hit": false,
      "t": 88233.9999999997,
      "d": 105.69697916666337,
      "v": 72
    },
    {
      "midi": 67,
      "hit": false,
      "t": 88234.00000000012,
      "d": 114.88802083332848,
      "v": 127
    },
    {
      "midi": 71,
      "hit": false,
      "t": 88234.00000000012,
      "d": 114.88802083332848,
      "v": 127
    },
    {
      "midi": 74,
      "hit": false,
      "t": 88234.00000000012,
      "d": 114.88802083332848,
      "v": 127
    },
    {
      "midi": 76,
      "hit": false,
      "t": 88234.00000000012,
      "d": 114.88802083332848,
      "v": 127
    },
    {
      "midi": 42,
      "hit": false,
      "t": 88454.58499999969,
      "d": 94.20817708333198,
      "v": 127
    },
    {
      "midi": 67,
      "hit": false,
      "t": 88564.87750000012,
      "d": 114.88802083332848,
      "v": 127
    },
    {
      "midi": 71,
      "hit": false,
      "t": 88564.87750000012,
      "d": 114.88802083332848,
      "v": 127
    },
    {
      "midi": 74,
      "hit": false,
      "t": 88564.87750000012,
      "d": 114.88802083332848,
      "v": 127
    },
    {
      "midi": 76,
      "hit": false,
      "t": 88564.87750000012,
      "d": 114.88802083332848,
      "v": 127
    },
    {
      "midi": 42,
      "hit": false,
      "t": 88675.16999999968,
      "d": 71.23057291666919,
      "v": 11
    },
    {
      "midi": 42,
      "hit": false,
      "t": 88895.75499999968,
      "d": 107.99473958332965,
      "v": 127
    },
    {
      "midi": 67,
      "hit": false,
      "t": 88895.75500000012,
      "d": 114.88802083332848,
      "v": 127
    },
    {
      "midi": 71,
      "hit": false,
      "t": 88895.75500000012,
      "d": 114.88802083332848,
      "v": 127
    },
    {
      "midi": 74,
      "hit": false,
      "t": 88895.75500000012,
      "d": 114.88802083332848,
      "v": 127
    },
    {
      "midi": 76,
      "hit": false,
      "t": 88895.75500000012,
      "d": 114.88802083332848,
      "v": 127
    },
    {
      "midi": 42,
      "hit": false,
      "t": 89116.33999999968,
      "d": 107.99473958332965,
      "v": 51
    },
    {
      "midi": 42,
      "hit": false,
      "t": 89336.92499999967,
      "d": 87.31489583333314,
      "v": 127
    },
    {
      "midi": 67,
      "hit": false,
      "t": 89336.92500000012,
      "d": 114.88802083332848,
      "v": 127
    },
    {
      "midi": 71,
      "hit": false,
      "t": 89336.92500000012,
      "d": 114.88802083332848,
      "v": 127
    },
    {
      "midi": 74,
      "hit": false,
      "t": 89336.92500000012,
      "d": 114.88802083332848,
      "v": 127
    },
    {
      "midi": 76,
      "hit": false,
      "t": 89336.92500000012,
      "d": 114.88802083332848,
      "v": 127
    },
    {
      "midi": 42,
      "hit": false,
      "t": 89557.50999999967,
      "d": 105.69697916666337,
      "v": 21
    },
    {
      "midi": 42,
      "hit": false,
      "t": 89778.09499999967,
      "d": 85.01713541666686,
      "v": 127
    },
    {
      "midi": 67,
      "hit": false,
      "t": 89778.09500000012,
      "d": 114.88802083332848,
      "v": 127
    },
    {
      "midi": 71,
      "hit": false,
      "t": 89778.09500000012,
      "d": 114.88802083332848,
      "v": 127
    },
    {
      "midi": 74,
      "hit": false,
      "t": 89778.09500000012,
      "d": 114.88802083332848,
      "v": 127
    },
    {
      "midi": 76,
      "hit": false,
      "t": 89778.09500000012,
      "d": 114.88802083332848,
      "v": 127
    },
    {
      "midi": 42,
      "hit": false,
      "t": 89998.67999999967,
      "d": 66.63505208333663,
      "v": 60
    },
    {
      "midi": 67,
      "hit": false,
      "t": 89998.68000000011,
      "d": 114.88802083332848,
      "v": 127
    },
    {
      "midi": 72,
      "hit": false,
      "t": 89998.68000000011,
      "d": 114.88802083332848,
      "v": 127
    },
    {
      "midi": 76,
      "hit": false,
      "t": 89998.68000000011,
      "d": 114.88802083332848,
      "v": 127
    },
    {
      "midi": 42,
      "hit": false,
      "t": 90219.26499999968,
      "d": 91.9104166666657,
      "v": 127
    },
    {
      "midi": 67,
      "hit": false,
      "t": 90329.55750000011,
      "d": 114.88802083332848,
      "v": 127
    },
    {
      "midi": 72,
      "hit": false,
      "t": 90329.55750000011,
      "d": 114.88802083332848,
      "v": 127
    },
    {
      "midi": 76,
      "hit": false,
      "t": 90329.55750000011,
      "d": 114.88802083332848,
      "v": 127
    },
    {
      "midi": 42,
      "hit": false,
      "t": 90439.84999999967,
      "d": 75.82609375000175,
      "v": 67
    },
    {
      "midi": 42,
      "hit": false,
      "t": 90660.43499999968,
      "d": 89.61265624999942,
      "v": 127
    },
    {
      "midi": 67,
      "hit": false,
      "t": 90660.43500000011,
      "d": 114.88802083332848,
      "v": 127
    },
    {
      "midi": 72,
      "hit": false,
      "t": 90660.43500000011,
      "d": 114.88802083332848,
      "v": 127
    },
    {
      "midi": 76,
      "hit": false,
      "t": 90660.43500000011,
      "d": 114.88802083332848,
      "v": 127
    },
    {
      "midi": 42,
      "hit": false,
      "t": 90881.01999999968,
      "d": 94.20817708333198,
      "v": 38
    },
    {
      "midi": 42,
      "hit": false,
      "t": 91101.60499999968,
      "d": 89.61265624999942,
      "v": 127
    },
    {
      "midi": 67,
      "hit": false,
      "t": 91101.60500000011,
      "d": 114.88802083332848,
      "v": 127
    },
    {
      "midi": 72,
      "hit": false,
      "t": 91101.60500000011,
      "d": 114.88802083332848,
      "v": 127
    },
    {
      "midi": 76,
      "hit": false,
      "t": 91101.60500000011,
      "d": 114.88802083332848,
      "v": 127
    },
    {
      "midi": 42,
      "hit": false,
      "t": 91322.18999999968,
      "d": 91.9104166666657,
      "v": 60
    },
    {
      "midi": 42,
      "hit": false,
      "t": 91542.77499999967,
      "d": 94.20817708333198,
      "v": 127
    },
    {
      "midi": 67,
      "hit": false,
      "t": 91542.77500000011,
      "d": 114.88802083332848,
      "v": 127
    },
    {
      "midi": 72,
      "hit": false,
      "t": 91542.77500000011,
      "d": 114.88802083332848,
      "v": 127
    },
    {
      "midi": 76,
      "hit": false,
      "t": 91542.77500000011,
      "d": 114.88802083332848,
      "v": 127
    },
    {
      "midi": 42,
      "hit": false,
      "t": 91763.35999999967,
      "d": 85.01713541666686,
      "v": 75
    },
    {
      "midi": 66,
      "hit": false,
      "t": 91763.3600000001,
      "d": 114.88802083332848,
      "v": 127
    },
    {
      "midi": 69,
      "hit": false,
      "t": 91763.3600000001,
      "d": 114.88802083332848,
      "v": 127
    },
    {
      "midi": 74,
      "hit": false,
      "t": 91763.3600000001,
      "d": 114.88802083332848,
      "v": 127
    },
    {
      "midi": 42,
      "hit": false,
      "t": 91983.94499999967,
      "d": 94.20817708333198,
      "v": 127
    },
    {
      "midi": 66,
      "hit": false,
      "t": 92094.2375000001,
      "d": 114.88802083332848,
      "v": 127
    },
    {
      "midi": 69,
      "hit": false,
      "t": 92094.2375000001,
      "d": 114.88802083332848,
      "v": 127
    },
    {
      "midi": 74,
      "hit": false,
      "t": 92094.2375000001,
      "d": 114.88802083332848,
      "v": 127
    },
    {
      "midi": 42,
      "hit": false,
      "t": 92204.52999999966,
      "d": 91.9104166666657,
      "v": 56
    },
    {
      "midi": 42,
      "hit": false,
      "t": 92425.11499999966,
      "d": 89.61265624999942,
      "v": 127
    },
    {
      "midi": 66,
      "hit": false,
      "t": 92425.1150000001,
      "d": 114.88802083332848,
      "v": 127
    },
    {
      "midi": 69,
      "hit": false,
      "t": 92425.1150000001,
      "d": 114.88802083332848,
      "v": 127
    },
    {
      "midi": 74,
      "hit": false,
      "t": 92425.1150000001,
      "d": 114.88802083332848,
      "v": 127
    },
    {
      "midi": 42,
      "hit": false,
      "t": 92645.69999999966,
      "d": 103.39921874999709,
      "v": 38
    },
    {
      "midi": 42,
      "hit": false,
      "t": 92866.28499999965,
      "d": 94.20817708333198,
      "v": 127
    },
    {
      "midi": 66,
      "hit": false,
      "t": 92866.2850000001,
      "d": 114.88802083332848,
      "v": 127
    },
    {
      "midi": 69,
      "hit": false,
      "t": 92866.2850000001,
      "d": 114.88802083332848,
      "v": 127
    },
    {
      "midi": 74,
      "hit": false,
      "t": 92866.2850000001,
      "d": 114.88802083332848,
      "v": 127
    },
    {
      "midi": 42,
      "hit": false,
      "t": 93086.86999999965,
      "d": 85.01713541666686,
      "v": 72
    },
    {
      "midi": 46,
      "hit": false,
      "t": 93307.45499999965,
      "d": 85.01713541666686,
      "v": 127
    },
    {
      "midi": 66,
      "hit": false,
      "t": 93307.4550000001,
      "d": 114.88802083332848,
      "v": 127
    },
    {
      "midi": 69,
      "hit": false,
      "t": 93307.4550000001,
      "d": 114.88802083332848,
      "v": 127
    },
    {
      "midi": 74,
      "hit": false,
      "t": 93307.4550000001,
      "d": 114.88802083332848,
      "v": 127
    },
    {
      "midi": 42,
      "hit": false,
      "t": 93528.03999999966,
      "d": 82.71937500000058,
      "v": 16
    },
    {
      "midi": 57,
      "hit": false,
      "t": 93528.03999999966,
      "d": 220.5850000000064,
      "v": 112
    },
    {
      "midi": 55,
      "hit": false,
      "t": 93528.0400000001,
      "d": 1755.4889583333425,
      "v": 127
    },
    {
      "midi": 42,
      "hit": false,
      "t": 93748.62499999967,
      "d": 147.05666666667094,
      "v": 127
    },
    {
      "midi": 62,
      "hit": false,
      "t": 93748.6250000001,
      "d": 222.88276041667268,
      "v": 127
    },
    {
      "midi": 42,
      "hit": false,
      "t": 93969.20999999967,
      "d": 128.67458333332615,
      "v": 26
    },
    {
      "midi": 71,
      "hit": false,
      "t": 93969.21000000011,
      "d": 220.5850000000064,
      "v": 127
    },
    {
      "midi": 42,
      "hit": false,
      "t": 94189.79499999966,
      "d": 126.37682291665988,
      "v": 112
    },
    {
      "midi": 62,
      "hit": false,
      "t": 94189.79500000011,
      "d": 236.66932291667035,
      "v": 127
    },
    {
      "midi": 42,
      "hit": false,
      "t": 94410.37999999966,
      "d": 128.67458333332615,
      "v": 35
    },
    {
      "midi": 69,
      "hit": false,
      "t": 94410.38000000012,
      "d": 220.58499999999185,
      "v": 127
    },
    {
      "midi": 42,
      "hit": false,
      "t": 94630.96499999965,
      "d": 105.69697916666337,
      "v": 127
    },
    {
      "midi": 62,
      "hit": false,
      "t": 94630.96500000011,
      "d": 234.37156250000407,
      "v": 127
    },
    {
      "midi": 42,
      "hit": false,
      "t": 94851.54999999964,
      "d": 114.88802083332848,
      "v": 44
    },
    {
      "midi": 67,
      "hit": false,
      "t": 94851.55000000012,
      "d": 236.6693229166558,
      "v": 127
    },
    {
      "midi": 42,
      "hit": false,
      "t": 95072.13499999963,
      "d": 98.80369791666453,
      "v": 127
    },
    {
      "midi": 62,
      "hit": false,
      "t": 95072.13500000011,
      "d": 220.58499999999185,
      "v": 127
    },
    {
      "midi": 42,
      "hit": false,
      "t": 95292.71999999962,
      "d": 105.69697916666337,
      "v": 72
    },
    {
      "midi": 52,
      "hit": false,
      "t": 95292.7200000001,
      "d": 1746.2979166667064,
      "v": 127
    },
    {
      "midi": 42,
      "hit": false,
      "t": 95513.30499999961,
      "d": 94.20817708333198,
      "v": 127
    },
    {
      "midi": 64,
      "hit": false,
      "t": 95513.30500000011,
      "d": 225.18052083333896,
      "v": 127
    },
    {
      "midi": 42,
      "hit": false,
      "t": 95733.8899999996,
      "d": 71.23057291666919,
      "v": 11
    },
    {
      "midi": 71,
      "hit": false,
      "t": 95733.89000000012,
      "d": 220.5850000000064,
      "v": 127
    },
    {
      "midi": 42,
      "hit": false,
      "t": 95954.47499999961,
      "d": 107.99473958332965,
      "v": 127
    },
    {
      "midi": 64,
      "hit": false,
      "t": 95954.47500000012,
      "d": 220.5850000000064,
      "v": 127
    },
    {
      "midi": 42,
      "hit": false,
      "t": 96175.0599999996,
      "d": 107.99473958332965,
      "v": 51
    },
    {
      "midi": 69,
      "hit": false,
      "t": 96175.06000000013,
      "d": 220.5850000000064,
      "v": 127
    },
    {
      "midi": 42,
      "hit": false,
      "t": 96395.6449999996,
      "d": 87.31489583333314,
      "v": 127
    },
    {
      "midi": 64,
      "hit": false,
      "t": 96395.64500000014,
      "d": 220.5850000000064,
      "v": 127
    },
    {
      "midi": 42,
      "hit": false,
      "t": 96616.2299999996,
      "d": 105.69697916666337,
      "v": 21
    },
    {
      "midi": 67,
      "hit": false,
      "t": 96616.23000000014,
      "d": 232.0738020833378,
      "v": 127
    },
    {
      "midi": 42,
      "hit": false,
      "t": 96836.8149999996,
      "d": 85.01713541666686,
      "v": 127
    },
    {
      "midi": 64,
      "hit": false,
      "t": 96836.81500000015,
      "d": 220.58499999999185,
      "v": 127
    },
    {
      "midi": 42,
      "hit": false,
      "t": 97057.3999999996,
      "d": 66.63505208333663,
      "v": 60
    },
    {
      "midi": 59,
      "hit": false,
      "t": 97057.40000000014,
      "d": 1739.404635416693,
      "v": 127
    },
    {
      "midi": 42,
      "hit": false,
      "t": 97277.98499999961,
      "d": 91.9104166666657,
      "v": 127
    },
    {
      "midi": 63,
      "hit": false,
      "t": 97277.98500000015,
      "d": 220.5850000000064,
      "v": 127
    },
    {
      "midi": 42,
      "hit": false,
      "t": 97498.5699999996,
      "d": 75.82609375000175,
      "v": 67
    },
    {
      "midi": 69,
      "hit": false,
      "t": 97498.57000000015,
      "d": 220.5850000000064,
      "v": 127
    },
    {
      "midi": 42,
      "hit": false,
      "t": 97719.1549999996,
      "d": 89.61265624999942,
      "v": 127
    },
    {
      "midi": 63,
      "hit": false,
      "t": 97719.15500000016,
      "d": 220.5850000000064,
      "v": 127
    },
    {
      "midi": 42,
      "hit": false,
      "t": 97939.73999999961,
      "d": 94.20817708333198,
      "v": 38
    },
    {
      "midi": 67,
      "hit": false,
      "t": 97939.74000000017,
      "d": 227.47828125000524,
      "v": 127
    },
    {
      "midi": 42,
      "hit": false,
      "t": 98160.3249999996,
      "d": 89.61265624999942,
      "v": 127
    },
    {
      "midi": 63,
      "hit": false,
      "t": 98160.32500000017,
      "d": 220.58499999999185,
      "v": 127
    },
    {
      "midi": 42,
      "hit": false,
      "t": 98380.90999999961,
      "d": 91.9104166666657,
      "v": 60
    },
    {
      "midi": 66,
      "hit": false,
      "t": 98380.91000000016,
      "d": 220.5850000000064,
      "v": 127
    },
    {
      "midi": 42,
      "hit": false,
      "t": 98601.4949999996,
      "d": 94.20817708333198,
      "v": 127
    },
    {
      "midi": 63,
      "hit": false,
      "t": 98601.49500000017,
      "d": 330.8774999999878,
      "v": 127
    },
    {
      "midi": 42,
      "hit": false,
      "t": 98822.0799999996,
      "d": 85.01713541666686,
      "v": 75
    },
    {
      "midi": 60,
      "hit": false,
      "t": 98822.08000000016,
      "d": 1686.556145833354,
      "v": 120
    },
    {
      "midi": 42,
      "hit": false,
      "t": 99042.6649999996,
      "d": 94.20817708333198,
      "v": 127
    },
    {
      "midi": 64,
      "hit": false,
      "t": 99042.66500000015,
      "d": 220.5850000000064,
      "v": 127
    },
    {
      "midi": 42,
      "hit": false,
      "t": 99263.24999999959,
      "d": 91.9104166666657,
      "v": 56
    },
    {
      "midi": 72,
      "hit": false,
      "t": 99263.25000000016,
      "d": 220.5850000000064,
      "v": 127
    },
    {
      "midi": 42,
      "hit": false,
      "t": 99483.83499999958,
      "d": 89.61265624999942,
      "v": 127
    },
    {
      "midi": 64,
      "hit": false,
      "t": 99483.83500000017,
      "d": 225.18052083333896,
      "v": 127
    },
    {
      "midi": 42,
      "hit": false,
      "t": 99704.41999999959,
      "d": 103.39921874999709,
      "v": 38
    },
    {
      "midi": 71,
      "hit": false,
      "t": 99704.42000000017,
      "d": 220.5850000000064,
      "v": 127
    },
    {
      "midi": 42,
      "hit": false,
      "t": 99925.00499999958,
      "d": 94.20817708333198,
      "v": 127
    },
    {
      "midi": 64,
      "hit": false,
      "t": 99925.00500000018,
      "d": 232.0738020833378,
      "v": 127
    },
    {
      "midi": 42,
      "hit": false,
      "t": 100145.58999999957,
      "d": 85.01713541666686,
      "v": 72
    },
    {
      "midi": 69,
      "hit": false,
      "t": 100145.59000000019,
      "d": 220.58499999999185,
      "v": 127
    },
    {
      "midi": 46,
      "hit": false,
      "t": 100366.17499999958,
      "d": 85.01713541666686,
      "v": 127
    },
    {
      "midi": 64,
      "hit": false,
      "t": 100366.17500000018,
      "d": 220.5850000000064,
      "v": 127
    },
    {
      "midi": 57,
      "hit": false,
      "t": 100586.76000000018,
      "d": 1725.6180729166517,
      "v": 127
    },
    {
      "midi": 64,
      "hit": false,
      "t": 100807.34500000019,
      "d": 220.5850000000064,
      "v": 127
    },
    {
      "midi": 72,
      "hit": false,
      "t": 101027.9300000002,
      "d": 257.34916666666686,
      "v": 127
    },
    {
      "midi": 64,
      "hit": false,
      "t": 101248.5150000002,
      "d": 236.6693229166558,
      "v": 127
    },
    {
      "midi": 69,
      "hit": false,
      "t": 101469.1000000002,
      "d": 22.977604166662786,
      "v": 127
    },
    {
      "midi": 71,
      "hit": false,
      "t": 101469.1000000002,
      "d": 213.69171874999302,
      "v": 127
    },
    {
      "midi": 64,
      "hit": false,
      "t": 101689.68500000019,
      "d": 213.69171874999302,
      "v": 127
    },
    {
      "midi": 69,
      "hit": false,
      "t": 101910.27000000018,
      "d": 213.69171874999302,
      "v": 127
    },
    {
      "midi": 64,
      "hit": false,
      "t": 102130.85500000017,
      "d": 220.58499999999185,
      "v": 127
    },
    {
      "midi": 50,
      "hit": false,
      "t": 102351.44000000016,
      "d": 1700.3427083333227,
      "v": 127
    },
    {
      "midi": 62,
      "hit": false,
      "t": 102572.02500000017,
      "d": 211.39395833332674,
      "v": 127
    },
    {
      "midi": 69,
      "hit": false,
      "t": 102792.61000000016,
      "d": 195.3096354166628,
      "v": 127
    },
    {
      "midi": 62,
      "hit": false,
      "t": 103013.19500000015,
      "d": 252.7536458333343,
      "v": 127
    },
    {
      "midi": 67,
      "hit": false,
      "t": 103233.78000000016,
      "d": 197.60739583332906,
      "v": 127
    },
    {
      "midi": 62,
      "hit": false,
      "t": 103454.36500000015,
      "d": 232.0738020833378,
      "v": 127
    },
    {
      "midi": 66,
      "hit": false,
      "t": 103674.95000000016,
      "d": 206.79843749999418,
      "v": 127
    },
    {
      "midi": 62,
      "hit": false,
      "t": 103895.53500000015,
      "d": 220.5850000000064,
      "v": 127
    },
    {
      "midi": 55,
      "hit": false,
      "t": 104116.12000000016,
      "d": 1656.6852604166488,
      "v": 127
    },
    {
      "midi": 62,
      "hit": false,
      "t": 104336.70500000016,
      "d": 202.20291666666162,
      "v": 127
    },
    {
      "midi": 71,
      "hit": false,
      "t": 104557.29000000015,
      "d": 197.60739583332906,
      "v": 127
    },
    {
      "midi": 62,
      "hit": false,
      "t": 104777.87500000015,
      "d": 229.77604166667152,
      "v": 127
    },
    {
      "midi": 69,
      "hit": false,
      "t": 104998.46000000015,
      "d": 213.69171874999302,
      "v": 127
    },
    {
      "midi": 62,
      "hit": false,
      "t": 105219.04500000014,
      "d": 227.47828125000524,
      "v": 127
    },
    {
      "midi": 67,
      "hit": false,
      "t": 105439.63000000015,
      "d": 220.58499999999185,
      "v": 127
    },
    {
      "midi": 62,
      "hit": false,
      "t": 105660.21500000014,
      "d": 245.86036458332092,
      "v": 127
    },
    {
      "midi": 41,
      "hit": false,
      "t": 105880.79999999958,
      "d": 73.52833333333547,
      "v": 81
    },
    {
      "midi": 43,
      "hit": false,
      "t": 105880.79999999958,
      "d": 199.90515624999534,
      "v": 81
    },
    {
      "midi": 49,
      "hit": false,
      "t": 105880.79999999958,
      "d": 751.3676562499895,
      "v": 40
    },
    {
      "midi": 57,
      "hit": false,
      "t": 105880.79999999958,
      "d": 753.6654166666558,
      "v": 26
    },
    {
      "midi": 55,
      "hit": false,
      "t": 105880.80000000013,
      "d": 1700.342708333308,
      "v": 127
    },
    {
      "midi": 62,
      "hit": false,
      "t": 106101.38500000013,
      "d": 215.98947916667385,
      "v": 127
    },
    {
      "midi": 71,
      "hit": false,
      "t": 106321.97000000013,
      "d": 186.11859374999767,
      "v": 127
    },
    {
      "midi": 52,
      "hit": false,
      "t": 106542.55499999957,
      "d": 80.4216145833343,
      "v": 127
    },
    {
      "midi": 62,
      "hit": false,
      "t": 106542.55500000012,
      "d": 238.96708333333663,
      "v": 127
    },
    {
      "midi": 69,
      "hit": false,
      "t": 106763.14000000013,
      "d": 188.41635416666395,
      "v": 127
    },
    {
      "midi": 62,
      "hit": false,
      "t": 106983.72500000012,
      "d": 213.69171874999302,
      "v": 127
    },
    {
      "midi": 67,
      "hit": false,
      "t": 107204.31000000011,
      "d": 202.20291666666162,
      "v": 127
    },
    {
      "midi": 49,
      "hit": false,
      "t": 107424.89499999957,
      "d": 43.657447916673846,
      "v": 96
    },
    {
      "midi": 41,
      "hit": false,
      "t": 107424.89499999957,
      "d": 64.33729166667035,
      "v": 120
    },
    {
      "midi": 62,
      "hit": false,
      "t": 107424.8950000001,
      "d": 220.5850000000064,
      "v": 127
    },
    {
      "midi": 41,
      "hit": false,
      "t": 107645.47999999957,
      "d": 1252.2794270833401,
      "v": 90
    },
    {
      "midi": 57,
      "hit": false,
      "t": 107645.47999999957,
      "d": 1266.0659895833378,
      "v": 83
    },
    {
      "midi": 49,
      "hit": false,
      "t": 107645.47999999957,
      "d": 1286.7458333333343,
      "v": 69
    },
    {
      "midi": 64,
      "hit": false,
      "t": 107645.48000000011,
      "d": 160.8432291666686,
      "v": 127
    },
    {
      "midi": 69,
      "hit": false,
      "t": 107645.48000000011,
      "d": 160.8432291666686,
      "v": 127
    },
    {
      "midi": 72,
      "hit": false,
      "t": 107645.48000000011,
      "d": 160.8432291666686,
      "v": 127
    },
    {
      "midi": 64,
      "hit": false,
      "t": 107976.35750000011,
      "d": 160.8432291666686,
      "v": 127
    },
    {
      "midi": 69,
      "hit": false,
      "t": 107976.35750000011,
      "d": 160.8432291666686,
      "v": 127
    },
    {
      "midi": 72,
      "hit": false,
      "t": 107976.35750000011,
      "d": 160.8432291666686,
      "v": 127
    },
    {
      "midi": 69,
      "hit": false,
      "t": 108307.23500000012,
      "d": 160.8432291666686,
      "v": 127
    },
    {
      "midi": 72,
      "hit": false,
      "t": 108307.23500000012,
      "d": 160.8432291666686,
      "v": 127
    },
    {
      "midi": 76,
      "hit": false,
      "t": 108307.23500000012,
      "d": 160.8432291666686,
      "v": 127
    },
    {
      "midi": 64,
      "hit": false,
      "t": 108748.40500000012,
      "d": 160.8432291666686,
      "v": 127
    },
    {
      "midi": 69,
      "hit": false,
      "t": 108748.40500000012,
      "d": 160.8432291666686,
      "v": 127
    },
    {
      "midi": 72,
      "hit": false,
      "t": 108748.40500000012,
      "d": 160.8432291666686,
      "v": 127
    },
    {
      "midi": 64,
      "hit": false,
      "t": 109189.57500000011,
      "d": 160.8432291666686,
      "v": 127
    },
    {
      "midi": 69,
      "hit": false,
      "t": 109189.57500000011,
      "d": 160.8432291666686,
      "v": 127
    },
    {
      "midi": 72,
      "hit": false,
      "t": 109189.57500000011,
      "d": 160.8432291666686,
      "v": 127
    },
    {
      "midi": 65,
      "hit": false,
      "t": 109410.16000000012,
      "d": 160.8432291666686,
      "v": 127
    },
    {
      "midi": 69,
      "hit": false,
      "t": 109410.16000000012,
      "d": 160.8432291666686,
      "v": 127
    },
    {
      "midi": 72,
      "hit": false,
      "t": 109410.16000000012,
      "d": 160.8432291666686,
      "v": 127
    },
    {
      "midi": 65,
      "hit": false,
      "t": 109741.03750000012,
      "d": 160.8432291666686,
      "v": 127
    },
    {
      "midi": 69,
      "hit": false,
      "t": 109741.03750000012,
      "d": 160.8432291666686,
      "v": 127
    },
    {
      "midi": 72,
      "hit": false,
      "t": 109741.03750000012,
      "d": 160.8432291666686,
      "v": 127
    },
    {
      "midi": 69,
      "hit": false,
      "t": 110071.91500000012,
      "d": 160.8432291666686,
      "v": 127
    },
    {
      "midi": 72,
      "hit": false,
      "t": 110071.91500000012,
      "d": 160.8432291666686,
      "v": 127
    },
    {
      "midi": 77,
      "hit": false,
      "t": 110071.91500000012,
      "d": 160.8432291666686,
      "v": 127
    },
    {
      "midi": 67,
      "hit": false,
      "t": 110513.08500000012,
      "d": 160.8432291666686,
      "v": 127
    },
    {
      "midi": 72,
      "hit": false,
      "t": 110513.08500000012,
      "d": 160.8432291666686,
      "v": 127
    },
    {
      "midi": 76,
      "hit": false,
      "t": 110513.08500000012,
      "d": 160.8432291666686,
      "v": 127
    },
    {
      "midi": 67,
      "hit": false,
      "t": 110954.25500000012,
      "d": 160.8432291666686,
      "v": 127
    },
    {
      "midi": 71,
      "hit": false,
      "t": 110954.25500000012,
      "d": 160.8432291666686,
      "v": 127
    },
    {
      "midi": 74,
      "hit": false,
      "t": 110954.25500000012,
      "d": 160.8432291666686,
      "v": 127
    },
    {
      "midi": 67,
      "hit": false,
      "t": 111174.84000000013,
      "d": 160.8432291666686,
      "v": 127
    },
    {
      "midi": 71,
      "hit": false,
      "t": 111174.84000000013,
      "d": 160.8432291666686,
      "v": 127
    },
    {
      "midi": 74,
      "hit": false,
      "t": 111174.84000000013,
      "d": 160.8432291666686,
      "v": 127
    },
    {
      "midi": 67,
      "hit": false,
      "t": 111505.71750000013,
      "d": 160.8432291666686,
      "v": 127
    },
    {
      "midi": 71,
      "hit": false,
      "t": 111505.71750000013,
      "d": 160.8432291666686,
      "v": 127
    },
    {
      "midi": 74,
      "hit": false,
      "t": 111505.71750000013,
      "d": 160.8432291666686,
      "v": 127
    },
    {
      "midi": 62,
      "hit": false,
      "t": 111836.59500000013,
      "d": 160.8432291666686,
      "v": 127
    },
    {
      "midi": 67,
      "hit": false,
      "t": 111836.59500000013,
      "d": 160.8432291666686,
      "v": 127
    },
    {
      "midi": 71,
      "hit": false,
      "t": 111836.59500000013,
      "d": 160.8432291666686,
      "v": 127
    },
    {
      "midi": 67,
      "hit": false,
      "t": 112277.76500000013,
      "d": 160.8432291666686,
      "v": 127
    },
    {
      "midi": 71,
      "hit": false,
      "t": 112277.76500000013,
      "d": 160.8432291666686,
      "v": 127
    },
    {
      "midi": 74,
      "hit": false,
      "t": 112277.76500000013,
      "d": 160.8432291666686,
      "v": 127
    },
    {
      "midi": 69,
      "hit": false,
      "t": 112718.93500000013,
      "d": 160.8432291666686,
      "v": 127
    },
    {
      "midi": 71,
      "hit": false,
      "t": 112718.93500000013,
      "d": 160.8432291666686,
      "v": 127
    },
    {
      "midi": 74,
      "hit": false,
      "t": 112718.93500000013,
      "d": 160.8432291666686,
      "v": 127
    },
    {
      "midi": 67,
      "hit": false,
      "t": 112939.52000000014,
      "d": 160.8432291666686,
      "v": 127
    },
    {
      "midi": 71,
      "hit": false,
      "t": 112939.52000000014,
      "d": 160.8432291666686,
      "v": 127
    },
    {
      "midi": 74,
      "hit": false,
      "t": 112939.52000000014,
      "d": 160.8432291666686,
      "v": 127
    },
    {
      "midi": 67,
      "hit": false,
      "t": 113270.39750000014,
      "d": 160.8432291666686,
      "v": 127
    },
    {
      "midi": 71,
      "hit": false,
      "t": 113270.39750000014,
      "d": 160.8432291666686,
      "v": 127
    },
    {
      "midi": 74,
      "hit": false,
      "t": 113270.39750000014,
      "d": 160.8432291666686,
      "v": 127
    },
    {
      "midi": 64,
      "hit": false,
      "t": 113601.27500000014,
      "d": 160.8432291666686,
      "v": 127
    },
    {
      "midi": 67,
      "hit": false,
      "t": 113601.27500000014,
      "d": 160.8432291666686,
      "v": 127
    },
    {
      "midi": 71,
      "hit": false,
      "t": 113601.27500000014,
      "d": 160.8432291666686,
      "v": 127
    },
    {
      "midi": 67,
      "hit": false,
      "t": 114042.44500000014,
      "d": 160.8432291666686,
      "v": 127
    },
    {
      "midi": 71,
      "hit": false,
      "t": 114042.44500000014,
      "d": 160.8432291666686,
      "v": 127
    },
    {
      "midi": 74,
      "hit": false,
      "t": 114042.44500000014,
      "d": 160.8432291666686,
      "v": 127
    },
    {
      "midi": 77,
      "hit": false,
      "t": 114042.44500000014,
      "d": 160.8432291666686,
      "v": 127
    },
    {
      "midi": 69,
      "hit": false,
      "t": 114483.61500000014,
      "d": 160.8432291666686,
      "v": 127
    },
    {
      "midi": 72,
      "hit": false,
      "t": 114483.61500000014,
      "d": 160.8432291666686,
      "v": 127
    },
    {
      "midi": 76,
      "hit": false,
      "t": 114483.61500000014,
      "d": 160.8432291666686,
      "v": 127
    },
    {
      "midi": 64,
      "hit": false,
      "t": 114704.20000000014,
      "d": 160.8432291666686,
      "v": 127
    },
    {
      "midi": 69,
      "hit": false,
      "t": 114704.20000000014,
      "d": 160.8432291666686,
      "v": 127
    },
    {
      "midi": 72,
      "hit": false,
      "t": 114704.20000000014,
      "d": 160.8432291666686,
      "v": 127
    },
    {
      "midi": 64,
      "hit": false,
      "t": 115035.07750000014,
      "d": 160.8432291666686,
      "v": 127
    },
    {
      "midi": 69,
      "hit": false,
      "t": 115035.07750000014,
      "d": 160.8432291666686,
      "v": 127
    },
    {
      "midi": 72,
      "hit": false,
      "t": 115035.07750000014,
      "d": 160.8432291666686,
      "v": 127
    },
    {
      "midi": 69,
      "hit": false,
      "t": 115365.95500000015,
      "d": 160.8432291666686,
      "v": 127
    },
    {
      "midi": 72,
      "hit": false,
      "t": 115365.95500000015,
      "d": 160.8432291666686,
      "v": 127
    },
    {
      "midi": 76,
      "hit": false,
      "t": 115365.95500000015,
      "d": 160.8432291666686,
      "v": 127
    },
    {
      "midi": 64,
      "hit": false,
      "t": 115807.12500000015,
      "d": 160.8432291666686,
      "v": 127
    },
    {
      "midi": 69,
      "hit": false,
      "t": 115807.12500000015,
      "d": 160.8432291666686,
      "v": 127
    },
    {
      "midi": 72,
      "hit": false,
      "t": 115807.12500000015,
      "d": 160.8432291666686,
      "v": 127
    },
    {
      "midi": 64,
      "hit": false,
      "t": 116248.29500000014,
      "d": 160.8432291666686,
      "v": 127
    },
    {
      "midi": 69,
      "hit": false,
      "t": 116248.29500000014,
      "d": 160.8432291666686,
      "v": 127
    },
    {
      "midi": 72,
      "hit": false,
      "t": 116248.29500000014,
      "d": 160.8432291666686,
      "v": 127
    },
    {
      "midi": 65,
      "hit": false,
      "t": 116468.88000000015,
      "d": 160.8432291666686,
      "v": 127
    },
    {
      "midi": 69,
      "hit": false,
      "t": 116468.88000000015,
      "d": 160.8432291666686,
      "v": 127
    },
    {
      "midi": 72,
      "hit": false,
      "t": 116468.88000000015,
      "d": 160.8432291666686,
      "v": 127
    },
    {
      "midi": 65,
      "hit": false,
      "t": 116799.75750000015,
      "d": 160.8432291666686,
      "v": 127
    },
    {
      "midi": 69,
      "hit": false,
      "t": 116799.75750000015,
      "d": 160.8432291666686,
      "v": 127
    },
    {
      "midi": 72,
      "hit": false,
      "t": 116799.75750000015,
      "d": 160.8432291666686,
      "v": 127
    },
    {
      "midi": 69,
      "hit": false,
      "t": 117130.63500000015,
      "d": 160.8432291666686,
      "v": 127
    },
    {
      "midi": 72,
      "hit": false,
      "t": 117130.63500000015,
      "d": 160.8432291666686,
      "v": 127
    },
    {
      "midi": 77,
      "hit": false,
      "t": 117130.63500000015,
      "d": 160.8432291666686,
      "v": 127
    },
    {
      "midi": 67,
      "hit": false,
      "t": 117571.80500000015,
      "d": 160.8432291666686,
      "v": 127
    },
    {
      "midi": 72,
      "hit": false,
      "t": 117571.80500000015,
      "d": 160.8432291666686,
      "v": 127
    },
    {
      "midi": 76,
      "hit": false,
      "t": 117571.80500000015,
      "d": 160.8432291666686,
      "v": 127
    },
    {
      "midi": 67,
      "hit": false,
      "t": 118012.97500000015,
      "d": 160.8432291666686,
      "v": 127
    },
    {
      "midi": 71,
      "hit": false,
      "t": 118012.97500000015,
      "d": 160.8432291666686,
      "v": 127
    },
    {
      "midi": 74,
      "hit": false,
      "t": 118012.97500000015,
      "d": 160.8432291666686,
      "v": 127
    },
    {
      "midi": 67,
      "hit": false,
      "t": 118233.56000000016,
      "d": 160.8432291666686,
      "v": 127
    },
    {
      "midi": 71,
      "hit": false,
      "t": 118233.56000000016,
      "d": 160.8432291666686,
      "v": 127
    },
    {
      "midi": 74,
      "hit": false,
      "t": 118233.56000000016,
      "d": 160.8432291666686,
      "v": 127
    },
    {
      "midi": 67,
      "hit": false,
      "t": 118564.43750000016,
      "d": 160.8432291666686,
      "v": 127
    },
    {
      "midi": 71,
      "hit": false,
      "t": 118564.43750000016,
      "d": 160.8432291666686,
      "v": 127
    },
    {
      "midi": 74,
      "hit": false,
      "t": 118564.43750000016,
      "d": 160.8432291666686,
      "v": 127
    },
    {
      "midi": 62,
      "hit": false,
      "t": 118895.31500000016,
      "d": 160.8432291666686,
      "v": 127
    },
    {
      "midi": 67,
      "hit": false,
      "t": 118895.31500000016,
      "d": 160.8432291666686,
      "v": 127
    },
    {
      "midi": 71,
      "hit": false,
      "t": 118895.31500000016,
      "d": 160.8432291666686,
      "v": 127
    },
    {
      "midi": 67,
      "hit": false,
      "t": 119336.48500000016,
      "d": 160.8432291666686,
      "v": 127
    },
    {
      "midi": 71,
      "hit": false,
      "t": 119336.48500000016,
      "d": 160.8432291666686,
      "v": 127
    },
    {
      "midi": 74,
      "hit": false,
      "t": 119336.48500000016,
      "d": 160.8432291666686,
      "v": 127
    },
    {
      "midi": 69,
      "hit": false,
      "t": 119777.65500000016,
      "d": 160.8432291666686,
      "v": 127
    },
    {
      "midi": 71,
      "hit": false,
      "t": 119777.65500000016,
      "d": 160.8432291666686,
      "v": 127
    },
    {
      "midi": 74,
      "hit": false,
      "t": 119777.65500000016,
      "d": 160.8432291666686,
      "v": 127
    },
    {
      "midi": 67,
      "hit": false,
      "t": 119998.24000000017,
      "d": 160.8432291666686,
      "v": 127
    },
    {
      "midi": 71,
      "hit": false,
      "t": 119998.24000000017,
      "d": 160.8432291666686,
      "v": 127
    },
    {
      "midi": 74,
      "hit": false,
      "t": 119998.24000000017,
      "d": 160.8432291666686,
      "v": 127
    },
    {
      "midi": 67,
      "hit": false,
      "t": 120329.11750000017,
      "d": 160.8432291666686,
      "v": 127
    },
    {
      "midi": 71,
      "hit": false,
      "t": 120329.11750000017,
      "d": 160.8432291666686,
      "v": 127
    },
    {
      "midi": 74,
      "hit": false,
      "t": 120329.11750000017,
      "d": 160.8432291666686,
      "v": 127
    },
    {
      "midi": 52,
      "hit": false,
      "t": 120659.99499999957,
      "d": 193.0118749999965,
      "v": 127
    },
    {
      "midi": 64,
      "hit": false,
      "t": 120659.99500000017,
      "d": 160.8432291666686,
      "v": 127
    },
    {
      "midi": 67,
      "hit": false,
      "t": 120659.99500000017,
      "d": 160.8432291666686,
      "v": 127
    },
    {
      "midi": 71,
      "hit": false,
      "t": 120659.99500000017,
      "d": 160.8432291666686,
      "v": 127
    },
    {
      "midi": 67,
      "hit": false,
      "t": 121101.16500000017,
      "d": 160.8432291666686,
      "v": 127
    },
    {
      "midi": 71,
      "hit": false,
      "t": 121101.16500000017,
      "d": 160.8432291666686,
      "v": 127
    },
    {
      "midi": 74,
      "hit": false,
      "t": 121101.16500000017,
      "d": 160.8432291666686,
      "v": 127
    },
    {
      "midi": 77,
      "hit": false,
      "t": 121101.16500000017,
      "d": 160.8432291666686,
      "v": 127
    },
    {
      "midi": 42,
      "hit": false,
      "t": 121542.33499999957,
      "d": 43.657447916673846,
      "v": 127
    },
    {
      "midi": 41,
      "hit": false,
      "t": 121542.33499999957,
      "d": 85.01713541666686,
      "v": 90
    },
    {
      "midi": 49,
      "hit": false,
      "t": 121542.33499999957,
      "d": 94.20817708333198,
      "v": 86
    },
    {
      "midi": 69,
      "hit": false,
      "t": 121542.33500000017,
      "d": 160.8432291666686,
      "v": 127
    },
    {
      "midi": 72,
      "hit": false,
      "t": 121542.33500000017,
      "d": 160.8432291666686,
      "v": 127
    },
    {
      "midi": 76,
      "hit": false,
      "t": 121542.33500000017,
      "d": 160.8432291666686,
      "v": 127
    },
    {
      "midi": 42,
      "hit": false,
      "t": 121652.62749999957,
      "d": 68.93281250000291,
      "v": 100
    },
    {
      "midi": 57,
      "hit": false,
      "t": 121762.91999999956,
      "d": 1369.4652083333349,
      "v": 112
    },
    {
      "midi": 64,
      "hit": false,
      "t": 121762.92000000017,
      "d": 160.8432291666686,
      "v": 127
    },
    {
      "midi": 69,
      "hit": false,
      "t": 121762.92000000017,
      "d": 160.8432291666686,
      "v": 127
    },
    {
      "midi": 72,
      "hit": false,
      "t": 121762.92000000017,
      "d": 160.8432291666686,
      "v": 127
    },
    {
      "midi": 64,
      "hit": false,
      "t": 122093.79750000018,
      "d": 160.8432291666686,
      "v": 127
    },
    {
      "midi": 69,
      "hit": false,
      "t": 122093.79750000018,
      "d": 160.8432291666686,
      "v": 127
    },
    {
      "midi": 72,
      "hit": false,
      "t": 122093.79750000018,
      "d": 160.8432291666686,
      "v": 127
    },
    {
      "midi": 69,
      "hit": false,
      "t": 122424.67500000018,
      "d": 160.8432291666686,
      "v": 127
    },
    {
      "midi": 72,
      "hit": false,
      "t": 122424.67500000018,
      "d": 160.8432291666686,
      "v": 127
    },
    {
      "midi": 76,
      "hit": false,
      "t": 122424.67500000018,
      "d": 160.8432291666686,
      "v": 127
    },
    {
      "midi": 64,
      "hit": false,
      "t": 122865.84500000018,
      "d": 160.8432291666686,
      "v": 127
    },
    {
      "midi": 69,
      "hit": false,
      "t": 122865.84500000018,
      "d": 160.8432291666686,
      "v": 127
    },
    {
      "midi": 72,
      "hit": false,
      "t": 122865.84500000018,
      "d": 160.8432291666686,
      "v": 127
    },
    {
      "midi": 64,
      "hit": false,
      "t": 123307.01500000017,
      "d": 160.8432291666686,
      "v": 127
    },
    {
      "midi": 69,
      "hit": false,
      "t": 123307.01500000017,
      "d": 160.8432291666686,
      "v": 127
    },
    {
      "midi": 72,
      "hit": false,
      "t": 123307.01500000017,
      "d": 160.8432291666686,
      "v": 127
    },
    {
      "midi": 65,
      "hit": false,
      "t": 123527.60000000018,
      "d": 160.8432291666686,
      "v": 127
    },
    {
      "midi": 69,
      "hit": false,
      "t": 123527.60000000018,
      "d": 160.8432291666686,
      "v": 127
    },
    {
      "midi": 72,
      "hit": false,
      "t": 123527.60000000018,
      "d": 160.8432291666686,
      "v": 127
    },
    {
      "midi": 65,
      "hit": false,
      "t": 123858.47750000018,
      "d": 160.8432291666686,
      "v": 127
    },
    {
      "midi": 69,
      "hit": false,
      "t": 123858.47750000018,
      "d": 160.8432291666686,
      "v": 127
    },
    {
      "midi": 72,
      "hit": false,
      "t": 123858.47750000018,
      "d": 160.8432291666686,
      "v": 127
    },
    {
      "midi": 69,
      "hit": false,
      "t": 124189.35500000019,
      "d": 160.8432291666686,
      "v": 127
    },
    {
      "midi": 72,
      "hit": false,
      "t": 124189.35500000019,
      "d": 160.8432291666686,
      "v": 127
    },
    {
      "midi": 77,
      "hit": false,
      "t": 124189.35500000019,
      "d": 160.8432291666686,
      "v": 127
    },
    {
      "midi": 67,
      "hit": false,
      "t": 124630.52500000018,
      "d": 160.8432291666686,
      "v": 127
    },
    {
      "midi": 72,
      "hit": false,
      "t": 124630.52500000018,
      "d": 160.8432291666686,
      "v": 127
    },
    {
      "midi": 76,
      "hit": false,
      "t": 124630.52500000018,
      "d": 160.8432291666686,
      "v": 127
    },
    {
      "midi": 67,
      "hit": false,
      "t": 125071.69500000018,
      "d": 160.8432291666686,
      "v": 127
    },
    {
      "midi": 71,
      "hit": false,
      "t": 125071.69500000018,
      "d": 160.8432291666686,
      "v": 127
    },
    {
      "midi": 74,
      "hit": false,
      "t": 125071.69500000018,
      "d": 160.8432291666686,
      "v": 127
    },
    {
      "midi": 67,
      "hit": false,
      "t": 125292.28000000019,
      "d": 160.8432291666686,
      "v": 127
    },
    {
      "midi": 71,
      "hit": false,
      "t": 125292.28000000019,
      "d": 160.8432291666686,
      "v": 127
    },
    {
      "midi": 74,
      "hit": false,
      "t": 125292.28000000019,
      "d": 160.8432291666686,
      "v": 127
    },
    {
      "midi": 67,
      "hit": false,
      "t": 125623.15750000019,
      "d": 160.8432291666686,
      "v": 127
    },
    {
      "midi": 71,
      "hit": false,
      "t": 125623.15750000019,
      "d": 160.8432291666686,
      "v": 127
    },
    {
      "midi": 74,
      "hit": false,
      "t": 125623.15750000019,
      "d": 160.8432291666686,
      "v": 127
    },
    {
      "midi": 62,
      "hit": false,
      "t": 125954.03500000019,
      "d": 160.8432291666686,
      "v": 127
    },
    {
      "midi": 67,
      "hit": false,
      "t": 125954.03500000019,
      "d": 160.8432291666686,
      "v": 127
    },
    {
      "midi": 71,
      "hit": false,
      "t": 125954.03500000019,
      "d": 160.8432291666686,
      "v": 127
    },
    {
      "midi": 67,
      "hit": false,
      "t": 126395.20500000019,
      "d": 160.8432291666686,
      "v": 127
    },
    {
      "midi": 71,
      "hit": false,
      "t": 126395.20500000019,
      "d": 160.8432291666686,
      "v": 127
    },
    {
      "midi": 74,
      "hit": false,
      "t": 126395.20500000019,
      "d": 160.8432291666686,
      "v": 127
    },
    {
      "midi": 69,
      "hit": false,
      "t": 126836.37500000019,
      "d": 160.8432291666686,
      "v": 127
    },
    {
      "midi": 71,
      "hit": false,
      "t": 126836.37500000019,
      "d": 160.8432291666686,
      "v": 127
    },
    {
      "midi": 74,
      "hit": false,
      "t": 126836.37500000019,
      "d": 160.8432291666686,
      "v": 127
    },
    {
      "midi": 67,
      "hit": false,
      "t": 127056.9600000002,
      "d": 160.8432291666686,
      "v": 127
    },
    {
      "midi": 71,
      "hit": false,
      "t": 127056.9600000002,
      "d": 160.8432291666686,
      "v": 127
    },
    {
      "midi": 74,
      "hit": false,
      "t": 127056.9600000002,
      "d": 160.8432291666686,
      "v": 127
    },
    {
      "midi": 67,
      "hit": false,
      "t": 127387.8375000002,
      "d": 160.8432291666686,
      "v": 127
    },
    {
      "midi": 71,
      "hit": false,
      "t": 127387.8375000002,
      "d": 160.8432291666686,
      "v": 127
    },
    {
      "midi": 74,
      "hit": false,
      "t": 127387.8375000002,
      "d": 160.8432291666686,
      "v": 127
    },
    {
      "midi": 64,
      "hit": false,
      "t": 127718.7150000002,
      "d": 160.8432291666686,
      "v": 127
    },
    {
      "midi": 67,
      "hit": false,
      "t": 127718.7150000002,
      "d": 160.8432291666686,
      "v": 127
    },
    {
      "midi": 71,
      "hit": false,
      "t": 127718.7150000002,
      "d": 160.8432291666686,
      "v": 127
    },
    {
      "midi": 67,
      "hit": false,
      "t": 128159.8850000002,
      "d": 160.8432291666686,
      "v": 127
    },
    {
      "midi": 71,
      "hit": false,
      "t": 128159.8850000002,
      "d": 160.8432291666686,
      "v": 127
    },
    {
      "midi": 74,
      "hit": false,
      "t": 128159.8850000002,
      "d": 160.8432291666686,
      "v": 127
    },
    {
      "midi": 77,
      "hit": false,
      "t": 128159.8850000002,
      "d": 160.8432291666686,
      "v": 127
    },
    {
      "midi": 69,
      "hit": false,
      "t": 128601.0550000002,
      "d": 160.8432291666686,
      "v": 127
    },
    {
      "midi": 72,
      "hit": false,
      "t": 128601.0550000002,
      "d": 160.8432291666686,
      "v": 127
    },
    {
      "midi": 76,
      "hit": false,
      "t": 128601.0550000002,
      "d": 160.8432291666686,
      "v": 127
    },
    {
      "midi": 64,
      "hit": false,
      "t": 128821.6400000002,
      "d": 160.8432291666686,
      "v": 127
    },
    {
      "midi": 69,
      "hit": false,
      "t": 128821.6400000002,
      "d": 160.8432291666686,
      "v": 127
    },
    {
      "midi": 72,
      "hit": false,
      "t": 128821.6400000002,
      "d": 160.8432291666686,
      "v": 127
    },
    {
      "midi": 64,
      "hit": false,
      "t": 129152.5175000002,
      "d": 160.8432291666686,
      "v": 127
    },
    {
      "midi": 69,
      "hit": false,
      "t": 129152.5175000002,
      "d": 160.8432291666686,
      "v": 127
    },
    {
      "midi": 72,
      "hit": false,
      "t": 129152.5175000002,
      "d": 160.8432291666686,
      "v": 127
    },
    {
      "midi": 69,
      "hit": false,
      "t": 129483.39500000021,
      "d": 160.8432291666686,
      "v": 127
    },
    {
      "midi": 72,
      "hit": false,
      "t": 129483.39500000021,
      "d": 160.8432291666686,
      "v": 127
    },
    {
      "midi": 76,
      "hit": false,
      "t": 129483.39500000021,
      "d": 160.8432291666686,
      "v": 127
    },
    {
      "midi": 64,
      "hit": false,
      "t": 129924.5650000002,
      "d": 160.8432291666686,
      "v": 127
    },
    {
      "midi": 69,
      "hit": false,
      "t": 129924.5650000002,
      "d": 160.8432291666686,
      "v": 127
    },
    {
      "midi": 72,
      "hit": false,
      "t": 129924.5650000002,
      "d": 160.8432291666686,
      "v": 127
    },
    {
      "midi": 64,
      "hit": false,
      "t": 130365.7350000002,
      "d": 160.8432291666686,
      "v": 127
    },
    {
      "midi": 69,
      "hit": false,
      "t": 130365.7350000002,
      "d": 160.8432291666686,
      "v": 127
    },
    {
      "midi": 72,
      "hit": false,
      "t": 130365.7350000002,
      "d": 160.8432291666686,
      "v": 127
    },
    {
      "midi": 65,
      "hit": false,
      "t": 130586.32000000021,
      "d": 160.8432291666686,
      "v": 127
    },
    {
      "midi": 69,
      "hit": false,
      "t": 130586.32000000021,
      "d": 160.8432291666686,
      "v": 127
    },
    {
      "midi": 72,
      "hit": false,
      "t": 130586.32000000021,
      "d": 160.8432291666686,
      "v": 127
    },
    {
      "midi": 65,
      "hit": false,
      "t": 130917.19750000021,
      "d": 160.8432291666686,
      "v": 127
    },
    {
      "midi": 69,
      "hit": false,
      "t": 130917.19750000021,
      "d": 160.8432291666686,
      "v": 127
    },
    {
      "midi": 72,
      "hit": false,
      "t": 130917.19750000021,
      "d": 160.8432291666686,
      "v": 127
    },
    {
      "midi": 69,
      "hit": false,
      "t": 131248.07500000022,
      "d": 160.8432291666686,
      "v": 127
    },
    {
      "midi": 72,
      "hit": false,
      "t": 131248.07500000022,
      "d": 160.8432291666686,
      "v": 127
    },
    {
      "midi": 77,
      "hit": false,
      "t": 131248.07500000022,
      "d": 160.8432291666686,
      "v": 127
    },
    {
      "midi": 67,
      "hit": false,
      "t": 131689.24500000023,
      "d": 160.8432291666686,
      "v": 127
    },
    {
      "midi": 72,
      "hit": false,
      "t": 131689.24500000023,
      "d": 160.8432291666686,
      "v": 127
    },
    {
      "midi": 76,
      "hit": false,
      "t": 131689.24500000023,
      "d": 160.8432291666686,
      "v": 127
    },
    {
      "midi": 67,
      "hit": false,
      "t": 132130.41500000024,
      "d": 160.8432291666686,
      "v": 127
    },
    {
      "midi": 71,
      "hit": false,
      "t": 132130.41500000024,
      "d": 160.8432291666686,
      "v": 127
    },
    {
      "midi": 74,
      "hit": false,
      "t": 132130.41500000024,
      "d": 160.8432291666686,
      "v": 127
    },
    {
      "midi": 67,
      "hit": false,
      "t": 132351.00000000023,
      "d": 160.8432291666686,
      "v": 127
    },
    {
      "midi": 71,
      "hit": false,
      "t": 132351.00000000023,
      "d": 160.8432291666686,
      "v": 127
    },
    {
      "midi": 74,
      "hit": false,
      "t": 132351.00000000023,
      "d": 160.8432291666686,
      "v": 127
    },
    {
      "midi": 67,
      "hit": false,
      "t": 132681.87750000024,
      "d": 160.8432291666686,
      "v": 127
    },
    {
      "midi": 71,
      "hit": false,
      "t": 132681.87750000024,
      "d": 160.8432291666686,
      "v": 127
    },
    {
      "midi": 74,
      "hit": false,
      "t": 132681.87750000024,
      "d": 160.8432291666686,
      "v": 127
    },
    {
      "midi": 62,
      "hit": false,
      "t": 133012.75500000024,
      "d": 160.8432291666686,
      "v": 127
    },
    {
      "midi": 67,
      "hit": false,
      "t": 133012.75500000024,
      "d": 160.8432291666686,
      "v": 127
    },
    {
      "midi": 71,
      "hit": false,
      "t": 133012.75500000024,
      "d": 160.8432291666686,
      "v": 127
    },
    {
      "midi": 67,
      "hit": false,
      "t": 133453.92500000025,
      "d": 160.8432291666686,
      "v": 127
    },
    {
      "midi": 71,
      "hit": false,
      "t": 133453.92500000025,
      "d": 160.8432291666686,
      "v": 127
    },
    {
      "midi": 74,
      "hit": false,
      "t": 133453.92500000025,
      "d": 160.8432291666686,
      "v": 127
    },
    {
      "midi": 69,
      "hit": false,
      "t": 133895.09500000026,
      "d": 160.8432291666686,
      "v": 127
    },
    {
      "midi": 71,
      "hit": false,
      "t": 133895.09500000026,
      "d": 160.8432291666686,
      "v": 127
    },
    {
      "midi": 74,
      "hit": false,
      "t": 133895.09500000026,
      "d": 160.8432291666686,
      "v": 127
    },
    {
      "midi": 67,
      "hit": false,
      "t": 134115.68000000025,
      "d": 160.8432291666686,
      "v": 127
    },
    {
      "midi": 71,
      "hit": false,
      "t": 134115.68000000025,
      "d": 160.8432291666686,
      "v": 127
    },
    {
      "midi": 74,
      "hit": false,
      "t": 134115.68000000025,
      "d": 160.8432291666686,
      "v": 127
    },
    {
      "midi": 67,
      "hit": false,
      "t": 134446.55750000026,
      "d": 160.8432291666686,
      "v": 127
    },
    {
      "midi": 71,
      "hit": false,
      "t": 134446.55750000026,
      "d": 160.8432291666686,
      "v": 127
    },
    {
      "midi": 74,
      "hit": false,
      "t": 134446.55750000026,
      "d": 160.8432291666686,
      "v": 127
    },
    {
      "midi": 64,
      "hit": false,
      "t": 134777.43500000026,
      "d": 160.8432291666686,
      "v": 127
    },
    {
      "midi": 67,
      "hit": false,
      "t": 134777.43500000026,
      "d": 160.8432291666686,
      "v": 127
    },
    {
      "midi": 71,
      "hit": false,
      "t": 134777.43500000026,
      "d": 160.8432291666686,
      "v": 127
    },
    {
      "midi": 67,
      "hit": false,
      "t": 135218.60500000027,
      "d": 160.8432291666686,
      "v": 127
    },
    {
      "midi": 71,
      "hit": false,
      "t": 135218.60500000027,
      "d": 160.8432291666686,
      "v": 127
    },
    {
      "midi": 74,
      "hit": false,
      "t": 135218.60500000027,
      "d": 160.8432291666686,
      "v": 127
    },
    {
      "midi": 77,
      "hit": false,
      "t": 135218.60500000027,
      "d": 160.8432291666686,
      "v": 127
    },
    {
      "midi": 69,
      "hit": false,
      "t": 135659.77500000029,
      "d": 160.8432291666686,
      "v": 127
    },
    {
      "midi": 72,
      "hit": false,
      "t": 135659.77500000029,
      "d": 160.8432291666686,
      "v": 127
    },
    {
      "midi": 76,
      "hit": false,
      "t": 135659.77500000029,
      "d": 160.8432291666686,
      "v": 127
    },
    {
      "midi": 42,
      "hit": false,
      "t": 135880.35999999958,
      "d": 82.71937499998603,
      "v": 16
    },
    {
      "midi": 57,
      "hit": false,
      "t": 135880.35999999958,
      "d": 1369.465208333393,
      "v": 112
    },
    {
      "midi": 72,
      "hit": false,
      "t": 135880.36000000028,
      "d": 114.88802083334303,
      "v": 127
    },
    {
      "midi": 76,
      "hit": false,
      "t": 135880.36000000028,
      "d": 114.88802083334303,
      "v": 127
    },
    {
      "midi": 79,
      "hit": false,
      "t": 135880.36000000028,
      "d": 114.88802083334303,
      "v": 127
    },
    {
      "midi": 42,
      "hit": false,
      "t": 136100.94499999957,
      "d": 147.05666666667094,
      "v": 127
    },
    {
      "midi": 72,
      "hit": false,
      "t": 136211.23750000028,
      "d": 114.88802083334303,
      "v": 127
    },
    {
      "midi": 76,
      "hit": false,
      "t": 136211.23750000028,
      "d": 114.88802083334303,
      "v": 127
    },
    {
      "midi": 79,
      "hit": false,
      "t": 136211.23750000028,
      "d": 114.88802083334303,
      "v": 127
    },
    {
      "midi": 42,
      "hit": false,
      "t": 136321.52999999956,
      "d": 128.6745833333407,
      "v": 26
    },
    {
      "midi": 42,
      "hit": false,
      "t": 136542.11499999958,
      "d": 126.37682291667443,
      "v": 112
    },
    {
      "midi": 72,
      "hit": false,
      "t": 136542.11500000028,
      "d": 114.88802083334303,
      "v": 127
    },
    {
      "midi": 76,
      "hit": false,
      "t": 136542.11500000028,
      "d": 114.88802083334303,
      "v": 127
    },
    {
      "midi": 79,
      "hit": false,
      "t": 136542.11500000028,
      "d": 114.88802083334303,
      "v": 127
    },
    {
      "midi": 42,
      "hit": false,
      "t": 136762.6999999996,
      "d": 128.6745833333407,
      "v": 35
    },
    {
      "midi": 42,
      "hit": false,
      "t": 136983.28499999963,
      "d": 105.69697916667792,
      "v": 127
    },
    {
      "midi": 72,
      "hit": false,
      "t": 136983.2850000003,
      "d": 114.88802083334303,
      "v": 127
    },
    {
      "midi": 76,
      "hit": false,
      "t": 136983.2850000003,
      "d": 114.88802083334303,
      "v": 127
    },
    {
      "midi": 79,
      "hit": false,
      "t": 136983.2850000003,
      "d": 114.88802083334303,
      "v": 127
    },
    {
      "midi": 42,
      "hit": false,
      "t": 137203.86999999965,
      "d": 114.88802083331393,
      "v": 44
    },
    {
      "midi": 42,
      "hit": false,
      "t": 137424.45499999964,
      "d": 98.80369791667908,
      "v": 127
    },
    {
      "midi": 72,
      "hit": false,
      "t": 137424.4550000003,
      "d": 114.88802083334303,
      "v": 127
    },
    {
      "midi": 76,
      "hit": false,
      "t": 137424.4550000003,
      "d": 114.88802083334303,
      "v": 127
    },
    {
      "midi": 79,
      "hit": false,
      "t": 137424.4550000003,
      "d": 114.88802083334303,
      "v": 127
    },
    {
      "midi": 42,
      "hit": false,
      "t": 137645.03999999966,
      "d": 105.69697916667792,
      "v": 72
    },
    {
      "midi": 72,
      "hit": false,
      "t": 137645.04000000033,
      "d": 114.88802083334303,
      "v": 127
    },
    {
      "midi": 76,
      "hit": false,
      "t": 137645.04000000033,
      "d": 114.88802083334303,
      "v": 127
    },
    {
      "midi": 79,
      "hit": false,
      "t": 137645.04000000033,
      "d": 114.88802083334303,
      "v": 127
    },
    {
      "midi": 42,
      "hit": false,
      "t": 137865.62499999968,
      "d": 94.20817708334653,
      "v": 127
    },
    {
      "midi": 72,
      "hit": false,
      "t": 137975.91750000033,
      "d": 114.88802083334303,
      "v": 127
    },
    {
      "midi": 76,
      "hit": false,
      "t": 137975.91750000033,
      "d": 114.88802083334303,
      "v": 127
    },
    {
      "midi": 79,
      "hit": false,
      "t": 137975.91750000033,
      "d": 114.88802083334303,
      "v": 127
    },
    {
      "midi": 42,
      "hit": false,
      "t": 138086.2099999997,
      "d": 71.23057291665464,
      "v": 11
    },
    {
      "midi": 42,
      "hit": false,
      "t": 138306.7949999997,
      "d": 107.9947395833442,
      "v": 127
    },
    {
      "midi": 72,
      "hit": false,
      "t": 138306.79500000033,
      "d": 114.88802083334303,
      "v": 127
    },
    {
      "midi": 76,
      "hit": false,
      "t": 138306.79500000033,
      "d": 114.88802083334303,
      "v": 127
    },
    {
      "midi": 79,
      "hit": false,
      "t": 138306.79500000033,
      "d": 114.88802083334303,
      "v": 127
    },
    {
      "midi": 42,
      "hit": false,
      "t": 138527.3799999997,
      "d": 107.9947395833442,
      "v": 51
    },
    {
      "midi": 42,
      "hit": false,
      "t": 138747.96499999973,
      "d": 87.31489583334769,
      "v": 127
    },
    {
      "midi": 72,
      "hit": false,
      "t": 138747.96500000035,
      "d": 114.88802083334303,
      "v": 127
    },
    {
      "midi": 76,
      "hit": false,
      "t": 138747.96500000035,
      "d": 114.88802083334303,
      "v": 127
    },
    {
      "midi": 79,
      "hit": false,
      "t": 138747.96500000035,
      "d": 114.88802083334303,
      "v": 127
    },
    {
      "midi": 42,
      "hit": false,
      "t": 138968.54999999976,
      "d": 105.69697916667792,
      "v": 21
    },
    {
      "midi": 42,
      "hit": false,
      "t": 139189.13499999978,
      "d": 85.01713541665231,
      "v": 127
    },
    {
      "midi": 72,
      "hit": false,
      "t": 139189.13500000036,
      "d": 114.88802083334303,
      "v": 127
    },
    {
      "midi": 76,
      "hit": false,
      "t": 139189.13500000036,
      "d": 114.88802083334303,
      "v": 127
    },
    {
      "midi": 79,
      "hit": false,
      "t": 139189.13500000036,
      "d": 114.88802083334303,
      "v": 127
    },
    {
      "midi": 42,
      "hit": false,
      "t": 139409.71999999977,
      "d": 66.63505208332208,
      "v": 60
    },
    {
      "midi": 70,
      "hit": false,
      "t": 139409.72000000038,
      "d": 114.88802083334303,
      "v": 127
    },
    {
      "midi": 72,
      "hit": false,
      "t": 139409.72000000038,
      "d": 114.88802083334303,
      "v": 127
    },
    {
      "midi": 77,
      "hit": false,
      "t": 139409.72000000038,
      "d": 114.88802083334303,
      "v": 127
    },
    {
      "midi": 42,
      "hit": false,
      "t": 139630.30499999976,
      "d": 91.91041666668025,
      "v": 127
    },
    {
      "midi": 70,
      "hit": false,
      "t": 139740.59750000038,
      "d": 114.88802083334303,
      "v": 127
    },
    {
      "midi": 72,
      "hit": false,
      "t": 139740.59750000038,
      "d": 114.88802083334303,
      "v": 127
    },
    {
      "midi": 77,
      "hit": false,
      "t": 139740.59750000038,
      "d": 114.88802083334303,
      "v": 127
    },
    {
      "midi": 42,
      "hit": false,
      "t": 139850.88999999978,
      "d": 75.8260937499872,
      "v": 67
    },
    {
      "midi": 42,
      "hit": false,
      "t": 140071.47499999977,
      "d": 89.61265625001397,
      "v": 127
    },
    {
      "midi": 70,
      "hit": false,
      "t": 140071.47500000038,
      "d": 114.88802083334303,
      "v": 127
    },
    {
      "midi": 72,
      "hit": false,
      "t": 140071.47500000038,
      "d": 114.88802083334303,
      "v": 127
    },
    {
      "midi": 77,
      "hit": false,
      "t": 140071.47500000038,
      "d": 114.88802083334303,
      "v": 127
    },
    {
      "midi": 42,
      "hit": false,
      "t": 140292.0599999998,
      "d": 94.20817708334653,
      "v": 38
    },
    {
      "midi": 42,
      "hit": false,
      "t": 140512.64499999981,
      "d": 89.61265625001397,
      "v": 127
    },
    {
      "midi": 70,
      "hit": false,
      "t": 140512.6450000004,
      "d": 114.88802083334303,
      "v": 127
    },
    {
      "midi": 72,
      "hit": false,
      "t": 140512.6450000004,
      "d": 114.88802083334303,
      "v": 127
    },
    {
      "midi": 77,
      "hit": false,
      "t": 140512.6450000004,
      "d": 114.88802083334303,
      "v": 127
    },
    {
      "midi": 42,
      "hit": false,
      "t": 140733.22999999984,
      "d": 91.91041666668025,
      "v": 60
    },
    {
      "midi": 42,
      "hit": false,
      "t": 140953.81499999986,
      "d": 94.20817708334653,
      "v": 127
    },
    {
      "midi": 70,
      "hit": false,
      "t": 140953.8150000004,
      "d": 114.88802083334303,
      "v": 127
    },
    {
      "midi": 72,
      "hit": false,
      "t": 140953.8150000004,
      "d": 114.88802083334303,
      "v": 127
    },
    {
      "midi": 77,
      "hit": false,
      "t": 140953.8150000004,
      "d": 114.88802083334303,
      "v": 127
    },
    {
      "midi": 42,
      "hit": false,
      "t": 141174.39999999988,
      "d": 85.01713541665231,
      "v": 75
    },
    {
      "midi": 70,
      "hit": false,
      "t": 141174.40000000043,
      "d": 114.88802083334303,
      "v": 127
    },
    {
      "midi": 72,
      "hit": false,
      "t": 141174.40000000043,
      "d": 114.88802083334303,
      "v": 127
    },
    {
      "midi": 77,
      "hit": false,
      "t": 141174.40000000043,
      "d": 114.88802083334303,
      "v": 127
    },
    {
      "midi": 42,
      "hit": false,
      "t": 141394.98499999987,
      "d": 94.20817708334653,
      "v": 127
    },
    {
      "midi": 70,
      "hit": false,
      "t": 141505.27750000043,
      "d": 114.88802083334303,
      "v": 127
    },
    {
      "midi": 72,
      "hit": false,
      "t": 141505.27750000043,
      "d": 114.88802083334303,
      "v": 127
    },
    {
      "midi": 77,
      "hit": false,
      "t": 141505.27750000043,
      "d": 114.88802083334303,
      "v": 127
    },
    {
      "midi": 42,
      "hit": false,
      "t": 141615.5699999999,
      "d": 91.91041666668025,
      "v": 56
    },
    {
      "midi": 42,
      "hit": false,
      "t": 141836.1549999999,
      "d": 89.61265625001397,
      "v": 127
    },
    {
      "midi": 70,
      "hit": false,
      "t": 141836.15500000044,
      "d": 114.88802083334303,
      "v": 127
    },
    {
      "midi": 72,
      "hit": false,
      "t": 141836.15500000044,
      "d": 114.88802083334303,
      "v": 127
    },
    {
      "midi": 77,
      "hit": false,
      "t": 141836.15500000044,
      "d": 114.88802083334303,
      "v": 127
    },
    {
      "midi": 42,
      "hit": false,
      "t": 142056.73999999993,
      "d": 103.39921875001164,
      "v": 38
    },
    {
      "midi": 42,
      "hit": false,
      "t": 142277.32499999995,
      "d": 94.20817708334653,
      "v": 127
    },
    {
      "midi": 70,
      "hit": false,
      "t": 142277.32500000045,
      "d": 114.88802083334303,
      "v": 127
    },
    {
      "midi": 72,
      "hit": false,
      "t": 142277.32500000045,
      "d": 114.88802083334303,
      "v": 127
    },
    {
      "midi": 77,
      "hit": false,
      "t": 142277.32500000045,
      "d": 114.88802083334303,
      "v": 127
    },
    {
      "midi": 42,
      "hit": false,
      "t": 142497.90999999997,
      "d": 85.01713541665231,
      "v": 72
    },
    {
      "midi": 46,
      "hit": false,
      "t": 142718.49499999997,
      "d": 85.01713541665231,
      "v": 127
    },
    {
      "midi": 57,
      "hit": false,
      "t": 142718.49499999997,
      "d": 643.3729166666744,
      "v": 75
    },
    {
      "midi": 70,
      "hit": false,
      "t": 142718.49500000046,
      "d": 114.88802083334303,
      "v": 127
    },
    {
      "midi": 72,
      "hit": false,
      "t": 142718.49500000046,
      "d": 114.88802083334303,
      "v": 127
    },
    {
      "midi": 77,
      "hit": false,
      "t": 142718.49500000046,
      "d": 114.88802083334303,
      "v": 127
    },
    {
      "midi": 42,
      "hit": false,
      "t": 142939.07999999996,
      "d": 85.01713541665231,
      "v": 69
    },
    {
      "midi": 72,
      "hit": false,
      "t": 142939.08000000048,
      "d": 114.88802083334303,
      "v": 127
    },
    {
      "midi": 76,
      "hit": false,
      "t": 142939.08000000048,
      "d": 114.88802083334303,
      "v": 127
    },
    {
      "midi": 79,
      "hit": false,
      "t": 142939.08000000048,
      "d": 114.88802083334303,
      "v": 127
    },
    {
      "midi": 42,
      "hit": false,
      "t": 143159.66499999995,
      "d": 101.10145833334536,
      "v": 127
    },
    {
      "midi": 72,
      "hit": false,
      "t": 143269.95750000048,
      "d": 114.88802083334303,
      "v": 127
    },
    {
      "midi": 76,
      "hit": false,
      "t": 143269.95750000048,
      "d": 114.88802083334303,
      "v": 127
    },
    {
      "midi": 79,
      "hit": false,
      "t": 143269.95750000048,
      "d": 114.88802083334303,
      "v": 127
    },
    {
      "midi": 42,
      "hit": false,
      "t": 143380.24999999997,
      "d": 103.39921875001164,
      "v": 48
    },
    {
      "midi": 42,
      "hit": false,
      "t": 143600.835,
      "d": 98.80369791667908,
      "v": 127
    },
    {
      "midi": 72,
      "hit": false,
      "t": 143600.8350000005,
      "d": 114.88802083334303,
      "v": 127
    },
    {
      "midi": 76,
      "hit": false,
      "t": 143600.8350000005,
      "d": 114.88802083334303,
      "v": 127
    },
    {
      "midi": 79,
      "hit": false,
      "t": 143600.8350000005,
      "d": 114.88802083334303,
      "v": 127
    },
    {
      "midi": 42,
      "hit": false,
      "t": 143821.42,
      "d": 101.10145833334536,
      "v": 51
    },
    {
      "midi": 42,
      "hit": false,
      "t": 144042.00500000003,
      "d": 103.39921875001164,
      "v": 127
    },
    {
      "midi": 72,
      "hit": false,
      "t": 144042.0050000005,
      "d": 114.88802083334303,
      "v": 127
    },
    {
      "midi": 76,
      "hit": false,
      "t": 144042.0050000005,
      "d": 114.88802083334303,
      "v": 127
    },
    {
      "midi": 79,
      "hit": false,
      "t": 144042.0050000005,
      "d": 114.88802083334303,
      "v": 127
    },
    {
      "midi": 42,
      "hit": false,
      "t": 144262.59000000005,
      "d": 112.59026041667676,
      "v": 60
    },
    {
      "midi": 42,
      "hit": false,
      "t": 144483.17500000008,
      "d": 96.5059375000128,
      "v": 127
    },
    {
      "midi": 72,
      "hit": false,
      "t": 144483.1750000005,
      "d": 114.88802083334303,
      "v": 127
    },
    {
      "midi": 76,
      "hit": false,
      "t": 144483.1750000005,
      "d": 114.88802083334303,
      "v": 127
    },
    {
      "midi": 79,
      "hit": false,
      "t": 144483.1750000005,
      "d": 114.88802083334303,
      "v": 127
    },
    {
      "midi": 42,
      "hit": false,
      "t": 144703.7600000001,
      "d": 82.71937499998603,
      "v": 30
    },
    {
      "midi": 72,
      "hit": false,
      "t": 144703.76000000053,
      "d": 114.88802083334303,
      "v": 127
    },
    {
      "midi": 76,
      "hit": false,
      "t": 144703.76000000053,
      "d": 114.88802083334303,
      "v": 127
    },
    {
      "midi": 79,
      "hit": false,
      "t": 144703.76000000053,
      "d": 114.88802083334303,
      "v": 127
    },
    {
      "midi": 42,
      "hit": false,
      "t": 144924.3450000001,
      "d": 98.80369791667908,
      "v": 127
    },
    {
      "midi": 72,
      "hit": false,
      "t": 145034.63750000054,
      "d": 114.88802083334303,
      "v": 127
    },
    {
      "midi": 76,
      "hit": false,
      "t": 145034.63750000054,
      "d": 114.88802083334303,
      "v": 127
    },
    {
      "midi": 79,
      "hit": false,
      "t": 145034.63750000054,
      "d": 114.88802083334303,
      "v": 127
    },
    {
      "midi": 42,
      "hit": false,
      "t": 145144.9300000001,
      "d": 82.71937499998603,
      "v": 54
    },
    {
      "midi": 42,
      "hit": false,
      "t": 145365.5150000001,
      "d": 103.39921875001164,
      "v": 127
    },
    {
      "midi": 72,
      "hit": false,
      "t": 145365.51500000054,
      "d": 114.88802083334303,
      "v": 127
    },
    {
      "midi": 76,
      "hit": false,
      "t": 145365.51500000054,
      "d": 114.88802083334303,
      "v": 127
    },
    {
      "midi": 79,
      "hit": false,
      "t": 145365.51500000054,
      "d": 114.88802083334303,
      "v": 127
    },
    {
      "midi": 42,
      "hit": false,
      "t": 145586.10000000012,
      "d": 87.31489583334769,
      "v": 46
    },
    {
      "midi": 42,
      "hit": false,
      "t": 145806.68500000014,
      "d": 91.91041666668025,
      "v": 127
    },
    {
      "midi": 72,
      "hit": false,
      "t": 145806.68500000055,
      "d": 114.88802083334303,
      "v": 127
    },
    {
      "midi": 76,
      "hit": false,
      "t": 145806.68500000055,
      "d": 114.88802083334303,
      "v": 127
    },
    {
      "midi": 79,
      "hit": false,
      "t": 145806.68500000055,
      "d": 114.88802083334303,
      "v": 127
    },
    {
      "midi": 42,
      "hit": false,
      "t": 146027.27000000016,
      "d": 91.91041666668025,
      "v": 56
    },
    {
      "midi": 42,
      "hit": false,
      "t": 146247.85500000019,
      "d": 94.20817708334653,
      "v": 127
    },
    {
      "midi": 72,
      "hit": false,
      "t": 146247.85500000056,
      "d": 114.88802083334303,
      "v": 127
    },
    {
      "midi": 76,
      "hit": false,
      "t": 146247.85500000056,
      "d": 114.88802083334303,
      "v": 127
    },
    {
      "midi": 79,
      "hit": false,
      "t": 146247.85500000056,
      "d": 114.88802083334303,
      "v": 127
    },
    {
      "midi": 42,
      "hit": false,
      "t": 146468.4400000002,
      "d": 85.01713541665231,
      "v": 60
    },
    {
      "midi": 70,
      "hit": false,
      "t": 146468.44000000058,
      "d": 114.88802083334303,
      "v": 127
    },
    {
      "midi": 72,
      "hit": false,
      "t": 146468.44000000058,
      "d": 114.88802083334303,
      "v": 127
    },
    {
      "midi": 77,
      "hit": false,
      "t": 146468.44000000058,
      "d": 114.88802083334303,
      "v": 127
    },
    {
      "midi": 42,
      "hit": false,
      "t": 146689.0250000002,
      "d": 89.61265625001397,
      "v": 127
    },
    {
      "midi": 70,
      "hit": false,
      "t": 146799.3175000006,
      "d": 114.88802083334303,
      "v": 127
    },
    {
      "midi": 72,
      "hit": false,
      "t": 146799.3175000006,
      "d": 114.88802083334303,
      "v": 127
    },
    {
      "midi": 77,
      "hit": false,
      "t": 146799.3175000006,
      "d": 114.88802083334303,
      "v": 127
    },
    {
      "midi": 42,
      "hit": false,
      "t": 146909.61000000022,
      "d": 82.71937499998603,
      "v": 58
    },
    {
      "midi": 42,
      "hit": false,
      "t": 147130.1950000002,
      "d": 85.01713541665231,
      "v": 127
    },
    {
      "midi": 70,
      "hit": false,
      "t": 147130.1950000006,
      "d": 114.88802083334303,
      "v": 127
    },
    {
      "midi": 72,
      "hit": false,
      "t": 147130.1950000006,
      "d": 114.88802083334303,
      "v": 127
    },
    {
      "midi": 77,
      "hit": false,
      "t": 147130.1950000006,
      "d": 114.88802083334303,
      "v": 127
    },
    {
      "midi": 42,
      "hit": false,
      "t": 147350.7800000002,
      "d": 59.741770833323244,
      "v": 60
    },
    {
      "midi": 42,
      "hit": false,
      "t": 147571.3650000002,
      "d": 96.5059375000128,
      "v": 127
    },
    {
      "midi": 70,
      "hit": false,
      "t": 147571.3650000006,
      "d": 114.88802083334303,
      "v": 127
    },
    {
      "midi": 72,
      "hit": false,
      "t": 147571.3650000006,
      "d": 114.88802083334303,
      "v": 127
    },
    {
      "midi": 77,
      "hit": false,
      "t": 147571.3650000006,
      "d": 114.88802083334303,
      "v": 127
    },
    {
      "midi": 42,
      "hit": false,
      "t": 147791.95000000022,
      "d": 73.52833333332092,
      "v": 54
    },
    {
      "midi": 42,
      "hit": false,
      "t": 148012.5350000002,
      "d": 107.9947395833442,
      "v": 127
    },
    {
      "midi": 70,
      "hit": false,
      "t": 148012.53500000061,
      "d": 114.88802083334303,
      "v": 127
    },
    {
      "midi": 72,
      "hit": false,
      "t": 148012.53500000061,
      "d": 114.88802083334303,
      "v": 127
    },
    {
      "midi": 77,
      "hit": false,
      "t": 148012.53500000061,
      "d": 114.88802083334303,
      "v": 127
    },
    {
      "midi": 42,
      "hit": false,
      "t": 148233.12000000023,
      "d": 80.42161458331975,
      "v": 51
    },
    {
      "midi": 70,
      "hit": false,
      "t": 148233.12000000064,
      "d": 114.88802083334303,
      "v": 127
    },
    {
      "midi": 72,
      "hit": false,
      "t": 148233.12000000064,
      "d": 114.88802083334303,
      "v": 127
    },
    {
      "midi": 77,
      "hit": false,
      "t": 148233.12000000064,
      "d": 114.88802083334303,
      "v": 127
    },
    {
      "midi": 42,
      "hit": false,
      "t": 148453.70500000022,
      "d": 98.80369791667908,
      "v": 127
    },
    {
      "midi": 70,
      "hit": false,
      "t": 148563.99750000064,
      "d": 114.88802083334303,
      "v": 127
    },
    {
      "midi": 72,
      "hit": false,
      "t": 148563.99750000064,
      "d": 114.88802083334303,
      "v": 127
    },
    {
      "midi": 77,
      "hit": false,
      "t": 148563.99750000064,
      "d": 114.88802083334303,
      "v": 127
    },
    {
      "midi": 42,
      "hit": false,
      "t": 148674.29000000024,
      "d": 101.10145833334536,
      "v": 58
    },
    {
      "midi": 42,
      "hit": false,
      "t": 148894.87500000026,
      "d": 89.61265625001397,
      "v": 127
    },
    {
      "midi": 70,
      "hit": false,
      "t": 148894.87500000064,
      "d": 114.88802083334303,
      "v": 127
    },
    {
      "midi": 72,
      "hit": false,
      "t": 148894.87500000064,
      "d": 114.88802083334303,
      "v": 127
    },
    {
      "midi": 77,
      "hit": false,
      "t": 148894.87500000064,
      "d": 114.88802083334303,
      "v": 127
    },
    {
      "midi": 42,
      "hit": false,
      "t": 149115.46000000028,
      "d": 91.91041666668025,
      "v": 64
    },
    {
      "midi": 42,
      "hit": false,
      "t": 149336.0450000003,
      "d": 85.01713541665231,
      "v": 127
    },
    {
      "midi": 70,
      "hit": false,
      "t": 149336.04500000065,
      "d": 114.88802083334303,
      "v": 127
    },
    {
      "midi": 72,
      "hit": false,
      "t": 149336.04500000065,
      "d": 114.88802083334303,
      "v": 127
    },
    {
      "midi": 77,
      "hit": false,
      "t": 149336.04500000065,
      "d": 114.88802083334303,
      "v": 127
    },
    {
      "midi": 42,
      "hit": false,
      "t": 149556.6300000003,
      "d": 85.01713541665231,
      "v": 75
    },
    {
      "midi": 46,
      "hit": false,
      "t": 149777.2150000003,
      "d": 66.63505208332208,
      "v": 127
    },
    {
      "midi": 70,
      "hit": false,
      "t": 149777.21500000067,
      "d": 114.88802083334303,
      "v": 127
    },
    {
      "midi": 72,
      "hit": false,
      "t": 149777.21500000067,
      "d": 114.88802083334303,
      "v": 127
    },
    {
      "midi": 77,
      "hit": false,
      "t": 149777.21500000067,
      "d": 114.88802083334303,
      "v": 127
    },
    {
      "midi": 42,
      "hit": false,
      "t": 149997.80000000028,
      "d": 82.71937499998603,
      "v": 16
    },
    {
      "midi": 57,
      "hit": false,
      "t": 149997.80000000028,
      "d": 1369.465208333393,
      "v": 112
    },
    {
      "midi": 63,
      "hit": false,
      "t": 149997.8000000007,
      "d": 114.88802083334303,
      "v": 127
    },
    {
      "midi": 67,
      "hit": false,
      "t": 149997.8000000007,
      "d": 114.88802083334303,
      "v": 127
    },
    {
      "midi": 70,
      "hit": false,
      "t": 149997.8000000007,
      "d": 114.88802083334303,
      "v": 127
    },
    {
      "midi": 42,
      "hit": false,
      "t": 150218.38500000027,
      "d": 147.05666666667094,
      "v": 127
    },
    {
      "midi": 63,
      "hit": false,
      "t": 150328.6775000007,
      "d": 114.88802083334303,
      "v": 127
    },
    {
      "midi": 67,
      "hit": false,
      "t": 150328.6775000007,
      "d": 114.88802083334303,
      "v": 127
    },
    {
      "midi": 70,
      "hit": false,
      "t": 150328.6775000007,
      "d": 114.88802083334303,
      "v": 127
    },
    {
      "midi": 42,
      "hit": false,
      "t": 150438.97000000026,
      "d": 128.6745833333407,
      "v": 26
    },
    {
      "midi": 42,
      "hit": false,
      "t": 150659.55500000028,
      "d": 126.37682291667443,
      "v": 112
    },
    {
      "midi": 63,
      "hit": false,
      "t": 150659.5550000007,
      "d": 114.88802083334303,
      "v": 127
    },
    {
      "midi": 67,
      "hit": false,
      "t": 150659.5550000007,
      "d": 114.88802083334303,
      "v": 127
    },
    {
      "midi": 70,
      "hit": false,
      "t": 150659.5550000007,
      "d": 114.88802083334303,
      "v": 127
    },
    {
      "midi": 42,
      "hit": false,
      "t": 150880.1400000003,
      "d": 128.6745833333407,
      "v": 35
    },
    {
      "midi": 42,
      "hit": false,
      "t": 151100.72500000033,
      "d": 105.69697916667792,
      "v": 127
    },
    {
      "midi": 63,
      "hit": false,
      "t": 151100.7250000007,
      "d": 114.88802083334303,
      "v": 127
    },
    {
      "midi": 67,
      "hit": false,
      "t": 151100.7250000007,
      "d": 114.88802083334303,
      "v": 127
    },
    {
      "midi": 70,
      "hit": false,
      "t": 151100.7250000007,
      "d": 114.88802083334303,
      "v": 127
    },
    {
      "midi": 42,
      "hit": false,
      "t": 151321.31000000035,
      "d": 114.88802083331393,
      "v": 44
    },
    {
      "midi": 42,
      "hit": false,
      "t": 151541.89500000034,
      "d": 98.80369791667908,
      "v": 127
    },
    {
      "midi": 63,
      "hit": false,
      "t": 151541.89500000072,
      "d": 114.88802083334303,
      "v": 127
    },
    {
      "midi": 67,
      "hit": false,
      "t": 151541.89500000072,
      "d": 114.88802083334303,
      "v": 127
    },
    {
      "midi": 70,
      "hit": false,
      "t": 151541.89500000072,
      "d": 114.88802083334303,
      "v": 127
    },
    {
      "midi": 42,
      "hit": false,
      "t": 151762.48000000036,
      "d": 105.69697916667792,
      "v": 72
    },
    {
      "midi": 63,
      "hit": false,
      "t": 151762.48000000074,
      "d": 114.88802083334303,
      "v": 127
    },
    {
      "midi": 68,
      "hit": false,
      "t": 151762.48000000074,
      "d": 114.88802083334303,
      "v": 127
    },
    {
      "midi": 72,
      "hit": false,
      "t": 151762.48000000074,
      "d": 114.88802083334303,
      "v": 127
    },
    {
      "midi": 42,
      "hit": false,
      "t": 151983.06500000038,
      "d": 94.20817708334653,
      "v": 127
    },
    {
      "midi": 63,
      "hit": false,
      "t": 152093.35750000074,
      "d": 114.88802083334303,
      "v": 127
    },
    {
      "midi": 68,
      "hit": false,
      "t": 152093.35750000074,
      "d": 114.88802083334303,
      "v": 127
    },
    {
      "midi": 72,
      "hit": false,
      "t": 152093.35750000074,
      "d": 114.88802083334303,
      "v": 127
    },
    {
      "midi": 42,
      "hit": false,
      "t": 152203.6500000004,
      "d": 71.23057291665464,
      "v": 11
    },
    {
      "midi": 42,
      "hit": false,
      "t": 152424.2350000004,
      "d": 107.9947395833442,
      "v": 127
    },
    {
      "midi": 63,
      "hit": false,
      "t": 152424.23500000074,
      "d": 114.88802083334303,
      "v": 127
    },
    {
      "midi": 68,
      "hit": false,
      "t": 152424.23500000074,
      "d": 114.88802083334303,
      "v": 127
    },
    {
      "midi": 72,
      "hit": false,
      "t": 152424.23500000074,
      "d": 114.88802083334303,
      "v": 127
    },
    {
      "midi": 42,
      "hit": false,
      "t": 152644.8200000004,
      "d": 107.9947395833442,
      "v": 51
    },
    {
      "midi": 42,
      "hit": false,
      "t": 152865.40500000044,
      "d": 87.31489583334769,
      "v": 127
    },
    {
      "midi": 63,
      "hit": false,
      "t": 152865.40500000076,
      "d": 114.88802083334303,
      "v": 127
    },
    {
      "midi": 68,
      "hit": false,
      "t": 152865.40500000076,
      "d": 114.88802083334303,
      "v": 127
    },
    {
      "midi": 72,
      "hit": false,
      "t": 152865.40500000076,
      "d": 114.88802083334303,
      "v": 127
    },
    {
      "midi": 42,
      "hit": false,
      "t": 153085.99000000046,
      "d": 105.69697916667792,
      "v": 21
    },
    {
      "midi": 42,
      "hit": false,
      "t": 153306.57500000048,
      "d": 85.01713541665231,
      "v": 127
    },
    {
      "midi": 63,
      "hit": false,
      "t": 153306.57500000077,
      "d": 114.88802083334303,
      "v": 127
    },
    {
      "midi": 68,
      "hit": false,
      "t": 153306.57500000077,
      "d": 114.88802083334303,
      "v": 127
    },
    {
      "midi": 72,
      "hit": false,
      "t": 153306.57500000077,
      "d": 114.88802083334303,
      "v": 127
    },
    {
      "midi": 42,
      "hit": false,
      "t": 153527.16000000047,
      "d": 66.63505208332208,
      "v": 60
    },
    {
      "midi": 63,
      "hit": false,
      "t": 153527.1600000008,
      "d": 114.88802083334303,
      "v": 127
    },
    {
      "midi": 68,
      "hit": false,
      "t": 153527.1600000008,
      "d": 114.88802083334303,
      "v": 127
    },
    {
      "midi": 72,
      "hit": false,
      "t": 153527.1600000008,
      "d": 114.88802083334303,
      "v": 127
    },
    {
      "midi": 42,
      "hit": false,
      "t": 153747.74500000046,
      "d": 91.91041666668025,
      "v": 127
    },
    {
      "midi": 63,
      "hit": false,
      "t": 153858.0375000008,
      "d": 114.88802083334303,
      "v": 127
    },
    {
      "midi": 68,
      "hit": false,
      "t": 153858.0375000008,
      "d": 114.88802083334303,
      "v": 127
    },
    {
      "midi": 72,
      "hit": false,
      "t": 153858.0375000008,
      "d": 114.88802083334303,
      "v": 127
    },
    {
      "midi": 42,
      "hit": false,
      "t": 153968.33000000048,
      "d": 75.8260937499872,
      "v": 67
    },
    {
      "midi": 42,
      "hit": false,
      "t": 154188.91500000047,
      "d": 89.61265625001397,
      "v": 127
    },
    {
      "midi": 63,
      "hit": false,
      "t": 154188.9150000008,
      "d": 114.88802083334303,
      "v": 127
    },
    {
      "midi": 68,
      "hit": false,
      "t": 154188.9150000008,
      "d": 114.88802083334303,
      "v": 127
    },
    {
      "midi": 72,
      "hit": false,
      "t": 154188.9150000008,
      "d": 114.88802083334303,
      "v": 127
    },
    {
      "midi": 42,
      "hit": false,
      "t": 154409.5000000005,
      "d": 94.20817708334653,
      "v": 38
    },
    {
      "midi": 42,
      "hit": false,
      "t": 154630.08500000052,
      "d": 89.61265625001397,
      "v": 127
    },
    {
      "midi": 63,
      "hit": false,
      "t": 154630.0850000008,
      "d": 114.88802083334303,
      "v": 127
    },
    {
      "midi": 68,
      "hit": false,
      "t": 154630.0850000008,
      "d": 114.88802083334303,
      "v": 127
    },
    {
      "midi": 72,
      "hit": false,
      "t": 154630.0850000008,
      "d": 114.88802083334303,
      "v": 127
    },
    {
      "midi": 42,
      "hit": false,
      "t": 154850.67000000054,
      "d": 91.91041666668025,
      "v": 60
    },
    {
      "midi": 42,
      "hit": false,
      "t": 155071.25500000056,
      "d": 94.20817708334653,
      "v": 127
    },
    {
      "midi": 63,
      "hit": false,
      "t": 155071.25500000082,
      "d": 114.88802083334303,
      "v": 127
    },
    {
      "midi": 68,
      "hit": false,
      "t": 155071.25500000082,
      "d": 114.88802083334303,
      "v": 127
    },
    {
      "midi": 72,
      "hit": false,
      "t": 155071.25500000082,
      "d": 114.88802083334303,
      "v": 127
    },
    {
      "midi": 42,
      "hit": false,
      "t": 155291.84000000058,
      "d": 85.01713541665231,
      "v": 75
    },
    {
      "midi": 57,
      "hit": false,
      "t": 155291.84000000058,
      "d": 643.3729166667035,
      "v": 101
    },
    {
      "midi": 63,
      "hit": false,
      "t": 155291.84000000084,
      "d": 114.88802083334303,
      "v": 127
    },
    {
      "midi": 67,
      "hit": false,
      "t": 155291.84000000084,
      "d": 114.88802083334303,
      "v": 127
    },
    {
      "midi": 70,
      "hit": false,
      "t": 155291.84000000084,
      "d": 114.88802083334303,
      "v": 127
    },
    {
      "midi": 42,
      "hit": false,
      "t": 155512.42500000057,
      "d": 94.20817708334653,
      "v": 127
    },
    {
      "midi": 63,
      "hit": false,
      "t": 155622.71750000084,
      "d": 114.88802083334303,
      "v": 127
    },
    {
      "midi": 67,
      "hit": false,
      "t": 155622.71750000084,
      "d": 114.88802083334303,
      "v": 127
    },
    {
      "midi": 70,
      "hit": false,
      "t": 155622.71750000084,
      "d": 114.88802083334303,
      "v": 127
    },
    {
      "midi": 42,
      "hit": false,
      "t": 155733.0100000006,
      "d": 91.91041666668025,
      "v": 56
    },
    {
      "midi": 42,
      "hit": false,
      "t": 155953.5950000006,
      "d": 89.61265625001397,
      "v": 127
    },
    {
      "midi": 63,
      "hit": false,
      "t": 155953.59500000085,
      "d": 114.88802083334303,
      "v": 127
    },
    {
      "midi": 67,
      "hit": false,
      "t": 155953.59500000085,
      "d": 114.88802083334303,
      "v": 127
    },
    {
      "midi": 70,
      "hit": false,
      "t": 155953.59500000085,
      "d": 114.88802083334303,
      "v": 127
    },
    {
      "midi": 42,
      "hit": false,
      "t": 156174.18000000063,
      "d": 103.39921875001164,
      "v": 38
    },
    {
      "midi": 42,
      "hit": false,
      "t": 156394.76500000065,
      "d": 94.20817708334653,
      "v": 127
    },
    {
      "midi": 63,
      "hit": false,
      "t": 156394.76500000086,
      "d": 114.88802083334303,
      "v": 127
    },
    {
      "midi": 67,
      "hit": false,
      "t": 156394.76500000086,
      "d": 114.88802083334303,
      "v": 127
    },
    {
      "midi": 70,
      "hit": false,
      "t": 156394.76500000086,
      "d": 114.88802083334303,
      "v": 127
    },
    {
      "midi": 42,
      "hit": false,
      "t": 156615.35000000068,
      "d": 85.01713541665231,
      "v": 72
    },
    {
      "midi": 46,
      "hit": false,
      "t": 156835.93500000067,
      "d": 85.01713541665231,
      "v": 127
    },
    {
      "midi": 63,
      "hit": false,
      "t": 156835.93500000087,
      "d": 114.88802083334303,
      "v": 127
    },
    {
      "midi": 67,
      "hit": false,
      "t": 156835.93500000087,
      "d": 114.88802083334303,
      "v": 127
    },
    {
      "midi": 70,
      "hit": false,
      "t": 156835.93500000087,
      "d": 114.88802083334303,
      "v": 127
    },
    {
      "midi": 42,
      "hit": false,
      "t": 157056.52000000066,
      "d": 85.01713541665231,
      "v": 69
    },
    {
      "midi": 63,
      "hit": false,
      "t": 157056.5200000009,
      "d": 114.88802083334303,
      "v": 127
    },
    {
      "midi": 68,
      "hit": false,
      "t": 157056.5200000009,
      "d": 114.88802083334303,
      "v": 127
    },
    {
      "midi": 72,
      "hit": false,
      "t": 157056.5200000009,
      "d": 114.88802083334303,
      "v": 127
    },
    {
      "midi": 42,
      "hit": false,
      "t": 157277.10500000065,
      "d": 101.10145833334536,
      "v": 127
    },
    {
      "midi": 63,
      "hit": false,
      "t": 157387.3975000009,
      "d": 114.88802083334303,
      "v": 127
    },
    {
      "midi": 68,
      "hit": false,
      "t": 157387.3975000009,
      "d": 114.88802083334303,
      "v": 127
    },
    {
      "midi": 72,
      "hit": false,
      "t": 157387.3975000009,
      "d": 114.88802083334303,
      "v": 127
    },
    {
      "midi": 42,
      "hit": false,
      "t": 157497.69000000067,
      "d": 103.39921875001164,
      "v": 48
    },
    {
      "midi": 42,
      "hit": false,
      "t": 157718.2750000007,
      "d": 98.80369791667908,
      "v": 127
    },
    {
      "midi": 63,
      "hit": false,
      "t": 157718.2750000009,
      "d": 114.88802083334303,
      "v": 127
    },
    {
      "midi": 68,
      "hit": false,
      "t": 157718.2750000009,
      "d": 114.88802083334303,
      "v": 127
    },
    {
      "midi": 72,
      "hit": false,
      "t": 157718.2750000009,
      "d": 114.88802083334303,
      "v": 127
    },
    {
      "midi": 42,
      "hit": false,
      "t": 157938.8600000007,
      "d": 101.10145833334536,
      "v": 51
    },
    {
      "midi": 42,
      "hit": false,
      "t": 158159.44500000073,
      "d": 103.39921875001164,
      "v": 127
    },
    {
      "midi": 63,
      "hit": false,
      "t": 158159.4450000009,
      "d": 114.88802083334303,
      "v": 127
    },
    {
      "midi": 68,
      "hit": false,
      "t": 158159.4450000009,
      "d": 114.88802083334303,
      "v": 127
    },
    {
      "midi": 72,
      "hit": false,
      "t": 158159.4450000009,
      "d": 114.88802083334303,
      "v": 127
    },
    {
      "midi": 42,
      "hit": false,
      "t": 158380.03000000076,
      "d": 112.59026041667676,
      "v": 60
    },
    {
      "midi": 42,
      "hit": false,
      "t": 158600.61500000078,
      "d": 96.5059375000128,
      "v": 127
    },
    {
      "midi": 63,
      "hit": false,
      "t": 158600.61500000092,
      "d": 114.88802083334303,
      "v": 127
    },
    {
      "midi": 68,
      "hit": false,
      "t": 158600.61500000092,
      "d": 114.88802083334303,
      "v": 127
    },
    {
      "midi": 72,
      "hit": false,
      "t": 158600.61500000092,
      "d": 114.88802083334303,
      "v": 127
    },
    {
      "midi": 42,
      "hit": false,
      "t": 158821.2000000008,
      "d": 82.71937499998603,
      "v": 30
    },
    {
      "midi": 57,
      "hit": false,
      "t": 158821.2000000008,
      "d": 110.29249999998137,
      "v": 93
    },
    {
      "midi": 63,
      "hit": false,
      "t": 158821.20000000094,
      "d": 114.88802083334303,
      "v": 127
    },
    {
      "midi": 68,
      "hit": false,
      "t": 158821.20000000094,
      "d": 114.88802083334303,
      "v": 127
    },
    {
      "midi": 72,
      "hit": false,
      "t": 158821.20000000094,
      "d": 114.88802083334303,
      "v": 127
    },
    {
      "midi": 42,
      "hit": false,
      "t": 159041.7850000008,
      "d": 98.80369791667908,
      "v": 127
    },
    {
      "midi": 42,
      "hit": false,
      "t": 159262.3700000008,
      "d": 82.71937499998603,
      "v": 54
    },
    {
      "midi": 57,
      "hit": false,
      "t": 159262.3700000008,
      "d": 110.29249999998137,
      "v": 93
    },
    {
      "midi": 63,
      "hit": false,
      "t": 159262.37000000096,
      "d": 114.88802083334303,
      "v": 127
    },
    {
      "midi": 68,
      "hit": false,
      "t": 159262.37000000096,
      "d": 114.88802083334303,
      "v": 127
    },
    {
      "midi": 72,
      "hit": false,
      "t": 159262.37000000096,
      "d": 114.88802083334303,
      "v": 127
    },
    {
      "midi": 52,
      "hit": false,
      "t": 159372.6625000008,
      "d": 1141.9869270834315,
      "v": 127
    },
    {
      "midi": 42,
      "hit": false,
      "t": 159482.9550000008,
      "d": 103.39921875001164,
      "v": 127
    },
    {
      "midi": 42,
      "hit": false,
      "t": 159703.54000000082,
      "d": 87.31489583334769,
      "v": 46
    },
    {
      "midi": 57,
      "hit": false,
      "t": 159703.54000000082,
      "d": 110.29250000001048,
      "v": 93
    },
    {
      "midi": 63,
      "hit": false,
      "t": 159703.54000000097,
      "d": 114.88802083334303,
      "v": 127
    },
    {
      "midi": 68,
      "hit": false,
      "t": 159703.54000000097,
      "d": 114.88802083334303,
      "v": 127
    },
    {
      "midi": 72,
      "hit": false,
      "t": 159703.54000000097,
      "d": 114.88802083334303,
      "v": 127
    },
    {
      "midi": 42,
      "hit": false,
      "t": 159924.12500000084,
      "d": 91.91041666668025,
      "v": 127
    },
    {
      "midi": 42,
      "hit": false,
      "t": 160144.71000000086,
      "d": 91.91041666668025,
      "v": 56
    },
    {
      "midi": 57,
      "hit": false,
      "t": 160144.71000000086,
      "d": 110.29250000001048,
      "v": 87
    },
    {
      "midi": 42,
      "hit": false,
      "t": 160365.2950000009,
      "d": 94.20817708334653,
      "v": 127
    },
    {
      "midi": 42,
      "hit": false,
      "t": 160585.88000000088,
      "d": 82.71937499998603,
      "v": 16
    },
    {
      "midi": 57,
      "hit": false,
      "t": 160585.88000000088,
      "d": 1369.465208333393,
      "v": 112
    },
    {
      "midi": 67,
      "hit": false,
      "t": 160585.88000000097,
      "d": 114.88802083334303,
      "v": 127
    },
    {
      "midi": 71,
      "hit": false,
      "t": 160585.88000000097,
      "d": 114.88802083334303,
      "v": 127
    },
    {
      "midi": 74,
      "hit": false,
      "t": 160585.88000000097,
      "d": 114.88802083334303,
      "v": 127
    },
    {
      "midi": 42,
      "hit": false,
      "t": 160806.46500000087,
      "d": 147.05666666667094,
      "v": 127
    },
    {
      "midi": 67,
      "hit": false,
      "t": 160916.75750000097,
      "d": 114.88802083334303,
      "v": 127
    },
    {
      "midi": 71,
      "hit": false,
      "t": 160916.75750000097,
      "d": 114.88802083334303,
      "v": 127
    },
    {
      "midi": 74,
      "hit": false,
      "t": 160916.75750000097,
      "d": 114.88802083334303,
      "v": 127
    },
    {
      "midi": 42,
      "hit": false,
      "t": 161027.05000000086,
      "d": 128.6745833333407,
      "v": 26
    },
    {
      "midi": 42,
      "hit": false,
      "t": 161247.63500000088,
      "d": 126.37682291667443,
      "v": 112
    },
    {
      "midi": 67,
      "hit": false,
      "t": 161247.63500000097,
      "d": 114.88802083334303,
      "v": 127
    },
    {
      "midi": 71,
      "hit": false,
      "t": 161247.63500000097,
      "d": 114.88802083334303,
      "v": 127
    },
    {
      "midi": 74,
      "hit": false,
      "t": 161247.63500000097,
      "d": 114.88802083334303,
      "v": 127
    },
    {
      "midi": 42,
      "hit": false,
      "t": 161468.2200000009,
      "d": 128.6745833333407,
      "v": 35
    },
    {
      "midi": 42,
      "hit": false,
      "t": 161688.80500000092,
      "d": 105.69697916667792,
      "v": 127
    },
    {
      "midi": 67,
      "hit": false,
      "t": 161688.80500000098,
      "d": 114.88802083334303,
      "v": 127
    },
    {
      "midi": 71,
      "hit": false,
      "t": 161688.80500000098,
      "d": 114.88802083334303,
      "v": 127
    },
    {
      "midi": 74,
      "hit": false,
      "t": 161688.80500000098,
      "d": 114.88802083334303,
      "v": 127
    },
    {
      "midi": 42,
      "hit": false,
      "t": 161909.39000000095,
      "d": 114.88802083331393,
      "v": 44
    },
    {
      "midi": 42,
      "hit": false,
      "t": 162129.97500000094,
      "d": 98.80369791667908,
      "v": 127
    },
    {
      "midi": 67,
      "hit": false,
      "t": 162129.975000001,
      "d": 114.88802083334303,
      "v": 127
    },
    {
      "midi": 71,
      "hit": false,
      "t": 162129.975000001,
      "d": 114.88802083334303,
      "v": 127
    },
    {
      "midi": 74,
      "hit": false,
      "t": 162129.975000001,
      "d": 114.88802083334303,
      "v": 127
    },
    {
      "midi": 42,
      "hit": false,
      "t": 162350.56000000096,
      "d": 105.69697916667792,
      "v": 72
    },
    {
      "midi": 67,
      "hit": false,
      "t": 162350.56000000102,
      "d": 114.88802083334303,
      "v": 127
    },
    {
      "midi": 71,
      "hit": false,
      "t": 162350.56000000102,
      "d": 114.88802083334303,
      "v": 127
    },
    {
      "midi": 74,
      "hit": false,
      "t": 162350.56000000102,
      "d": 114.88802083334303,
      "v": 127
    },
    {
      "midi": 76,
      "hit": false,
      "t": 162350.56000000102,
      "d": 114.88802083334303,
      "v": 127
    },
    {
      "midi": 42,
      "hit": false,
      "t": 162571.14500000098,
      "d": 94.20817708334653,
      "v": 127
    },
    {
      "midi": 67,
      "hit": false,
      "t": 162681.43750000102,
      "d": 114.88802083334303,
      "v": 127
    },
    {
      "midi": 71,
      "hit": false,
      "t": 162681.43750000102,
      "d": 114.88802083334303,
      "v": 127
    },
    {
      "midi": 74,
      "hit": false,
      "t": 162681.43750000102,
      "d": 114.88802083334303,
      "v": 127
    },
    {
      "midi": 76,
      "hit": false,
      "t": 162681.43750000102,
      "d": 114.88802083334303,
      "v": 127
    },
    {
      "midi": 42,
      "hit": false,
      "t": 162791.730000001,
      "d": 71.23057291665464,
      "v": 11
    },
    {
      "midi": 42,
      "hit": false,
      "t": 163012.315000001,
      "d": 107.9947395833442,
      "v": 127
    },
    {
      "midi": 67,
      "hit": false,
      "t": 163012.31500000102,
      "d": 114.88802083334303,
      "v": 127
    },
    {
      "midi": 71,
      "hit": false,
      "t": 163012.31500000102,
      "d": 114.88802083334303,
      "v": 127
    },
    {
      "midi": 74,
      "hit": false,
      "t": 163012.31500000102,
      "d": 114.88802083334303,
      "v": 127
    },
    {
      "midi": 76,
      "hit": false,
      "t": 163012.31500000102,
      "d": 114.88802083334303,
      "v": 127
    },
    {
      "midi": 42,
      "hit": false,
      "t": 163232.900000001,
      "d": 107.9947395833442,
      "v": 51
    },
    {
      "midi": 67,
      "hit": false,
      "t": 163453.48500000103,
      "d": 114.88802083334303,
      "v": 127
    },
    {
      "midi": 71,
      "hit": false,
      "t": 163453.48500000103,
      "d": 114.88802083334303,
      "v": 127
    },
    {
      "midi": 74,
      "hit": false,
      "t": 163453.48500000103,
      "d": 114.88802083334303,
      "v": 127
    },
    {
      "midi": 76,
      "hit": false,
      "t": 163453.48500000103,
      "d": 114.88802083334303,
      "v": 127
    },
    {
      "midi": 42,
      "hit": false,
      "t": 163453.48500000103,
      "d": 87.31489583334769,
      "v": 127
    },
    {
      "midi": 42,
      "hit": false,
      "t": 163674.07000000105,
      "d": 105.69697916667792,
      "v": 21
    },
    {
      "midi": 67,
      "hit": false,
      "t": 163894.65500000105,
      "d": 114.88802083334303,
      "v": 127
    },
    {
      "midi": 71,
      "hit": false,
      "t": 163894.65500000105,
      "d": 114.88802083334303,
      "v": 127
    },
    {
      "midi": 74,
      "hit": false,
      "t": 163894.65500000105,
      "d": 114.88802083334303,
      "v": 127
    },
    {
      "midi": 76,
      "hit": false,
      "t": 163894.65500000105,
      "d": 114.88802083334303,
      "v": 127
    },
    {
      "midi": 42,
      "hit": false,
      "t": 163894.65500000108,
      "d": 85.01713541665231,
      "v": 127
    },
    {
      "midi": 67,
      "hit": false,
      "t": 164115.24000000107,
      "d": 114.88802083334303,
      "v": 127
    },
    {
      "midi": 72,
      "hit": false,
      "t": 164115.24000000107,
      "d": 114.88802083334303,
      "v": 127
    },
    {
      "midi": 76,
      "hit": false,
      "t": 164115.24000000107,
      "d": 114.88802083334303,
      "v": 127
    },
    {
      "midi": 42,
      "hit": false,
      "t": 164115.24000000107,
      "d": 66.63505208332208,
      "v": 60
    },
    {
      "midi": 42,
      "hit": false,
      "t": 164335.82500000106,
      "d": 91.91041666668025,
      "v": 127
    },
    {
      "midi": 67,
      "hit": false,
      "t": 164446.11750000107,
      "d": 114.88802083334303,
      "v": 127
    },
    {
      "midi": 72,
      "hit": false,
      "t": 164446.11750000107,
      "d": 114.88802083334303,
      "v": 127
    },
    {
      "midi": 76,
      "hit": false,
      "t": 164446.11750000107,
      "d": 114.88802083334303,
      "v": 127
    },
    {
      "midi": 42,
      "hit": false,
      "t": 164556.41000000108,
      "d": 75.8260937499872,
      "v": 67
    },
    {
      "midi": 67,
      "hit": false,
      "t": 164776.99500000107,
      "d": 114.88802083334303,
      "v": 127
    },
    {
      "midi": 72,
      "hit": false,
      "t": 164776.99500000107,
      "d": 114.88802083334303,
      "v": 127
    },
    {
      "midi": 76,
      "hit": false,
      "t": 164776.99500000107,
      "d": 114.88802083334303,
      "v": 127
    },
    {
      "midi": 42,
      "hit": false,
      "t": 164776.99500000107,
      "d": 89.61265625001397,
      "v": 127
    },
    {
      "midi": 42,
      "hit": false,
      "t": 164997.5800000011,
      "d": 94.20817708334653,
      "v": 38
    },
    {
      "midi": 67,
      "hit": false,
      "t": 165218.16500000108,
      "d": 114.88802083334303,
      "v": 127
    },
    {
      "midi": 72,
      "hit": false,
      "t": 165218.16500000108,
      "d": 114.88802083334303,
      "v": 127
    },
    {
      "midi": 76,
      "hit": false,
      "t": 165218.16500000108,
      "d": 114.88802083334303,
      "v": 127
    },
    {
      "midi": 42,
      "hit": false,
      "t": 165218.1650000011,
      "d": 89.61265625001397,
      "v": 127
    },
    {
      "midi": 42,
      "hit": false,
      "t": 165438.75000000114,
      "d": 91.91041666668025,
      "v": 60
    },
    {
      "midi": 67,
      "hit": false,
      "t": 165659.3350000011,
      "d": 114.88802083334303,
      "v": 127
    },
    {
      "midi": 72,
      "hit": false,
      "t": 165659.3350000011,
      "d": 114.88802083334303,
      "v": 127
    },
    {
      "midi": 76,
      "hit": false,
      "t": 165659.3350000011,
      "d": 114.88802083334303,
      "v": 127
    },
    {
      "midi": 42,
      "hit": false,
      "t": 165659.33500000116,
      "d": 94.20817708334653,
      "v": 127
    },
    {
      "midi": 66,
      "hit": false,
      "t": 165879.92000000112,
      "d": 114.88802083334303,
      "v": 127
    },
    {
      "midi": 69,
      "hit": false,
      "t": 165879.92000000112,
      "d": 114.88802083334303,
      "v": 127
    },
    {
      "midi": 74,
      "hit": false,
      "t": 165879.92000000112,
      "d": 114.88802083334303,
      "v": 127
    },
    {
      "midi": 42,
      "hit": false,
      "t": 165879.92000000118,
      "d": 85.01713541665231,
      "v": 75
    },
    {
      "midi": 42,
      "hit": false,
      "t": 166100.50500000117,
      "d": 94.20817708334653,
      "v": 127
    },
    {
      "midi": 66,
      "hit": false,
      "t": 166210.79750000112,
      "d": 114.88802083334303,
      "v": 127
    },
    {
      "midi": 69,
      "hit": false,
      "t": 166210.79750000112,
      "d": 114.88802083334303,
      "v": 127
    },
    {
      "midi": 74,
      "hit": false,
      "t": 166210.79750000112,
      "d": 114.88802083334303,
      "v": 127
    },
    {
      "midi": 42,
      "hit": false,
      "t": 166321.0900000012,
      "d": 91.91041666668025,
      "v": 56
    },
    {
      "midi": 66,
      "hit": false,
      "t": 166541.67500000112,
      "d": 114.88802083334303,
      "v": 127
    },
    {
      "midi": 69,
      "hit": false,
      "t": 166541.67500000112,
      "d": 114.88802083334303,
      "v": 127
    },
    {
      "midi": 74,
      "hit": false,
      "t": 166541.67500000112,
      "d": 114.88802083334303,
      "v": 127
    },
    {
      "midi": 42,
      "hit": false,
      "t": 166541.6750000012,
      "d": 89.61265625001397,
      "v": 127
    },
    {
      "midi": 42,
      "hit": false,
      "t": 166762.26000000123,
      "d": 103.39921875001164,
      "v": 38
    },
    {
      "midi": 66,
      "hit": false,
      "t": 166982.84500000114,
      "d": 114.88802083334303,
      "v": 127
    },
    {
      "midi": 69,
      "hit": false,
      "t": 166982.84500000114,
      "d": 114.88802083334303,
      "v": 127
    },
    {
      "midi": 74,
      "hit": false,
      "t": 166982.84500000114,
      "d": 114.88802083334303,
      "v": 127
    },
    {
      "midi": 42,
      "hit": false,
      "t": 166982.84500000125,
      "d": 94.20817708334653,
      "v": 127
    },
    {
      "midi": 42,
      "hit": false,
      "t": 167203.43000000127,
      "d": 85.01713541665231,
      "v": 72
    },
    {
      "midi": 66,
      "hit": false,
      "t": 167424.01500000115,
      "d": 114.88802083334303,
      "v": 127
    },
    {
      "midi": 69,
      "hit": false,
      "t": 167424.01500000115,
      "d": 114.88802083334303,
      "v": 127
    },
    {
      "midi": 74,
      "hit": false,
      "t": 167424.01500000115,
      "d": 114.88802083334303,
      "v": 127
    },
    {
      "midi": 46,
      "hit": false,
      "t": 167424.01500000127,
      "d": 85.01713541665231,
      "v": 127
    },
    {
      "midi": 67,
      "hit": false,
      "t": 167644.60000000117,
      "d": 114.88802083334303,
      "v": 127
    },
    {
      "midi": 71,
      "hit": false,
      "t": 167644.60000000117,
      "d": 114.88802083334303,
      "v": 127
    },
    {
      "midi": 74,
      "hit": false,
      "t": 167644.60000000117,
      "d": 114.88802083334303,
      "v": 127
    },
    {
      "midi": 42,
      "hit": false,
      "t": 167644.60000000126,
      "d": 82.71937499998603,
      "v": 16
    },
    {
      "midi": 57,
      "hit": false,
      "t": 167644.60000000126,
      "d": 220.58499999999185,
      "v": 112
    },
    {
      "midi": 42,
      "hit": false,
      "t": 167865.18500000125,
      "d": 147.05666666667094,
      "v": 127
    },
    {
      "midi": 67,
      "hit": false,
      "t": 167975.47750000117,
      "d": 114.88802083334303,
      "v": 127
    },
    {
      "midi": 71,
      "hit": false,
      "t": 167975.47750000117,
      "d": 114.88802083334303,
      "v": 127
    },
    {
      "midi": 74,
      "hit": false,
      "t": 167975.47750000117,
      "d": 114.88802083334303,
      "v": 127
    },
    {
      "midi": 42,
      "hit": false,
      "t": 168085.77000000124,
      "d": 128.6745833333407,
      "v": 26
    },
    {
      "midi": 67,
      "hit": false,
      "t": 168306.35500000117,
      "d": 114.88802083334303,
      "v": 127
    },
    {
      "midi": 71,
      "hit": false,
      "t": 168306.35500000117,
      "d": 114.88802083334303,
      "v": 127
    },
    {
      "midi": 74,
      "hit": false,
      "t": 168306.35500000117,
      "d": 114.88802083334303,
      "v": 127
    },
    {
      "midi": 42,
      "hit": false,
      "t": 168306.35500000126,
      "d": 126.37682291667443,
      "v": 112
    },
    {
      "midi": 42,
      "hit": false,
      "t": 168526.94000000128,
      "d": 128.6745833333407,
      "v": 35
    },
    {
      "midi": 67,
      "hit": false,
      "t": 168747.5250000012,
      "d": 114.88802083334303,
      "v": 127
    },
    {
      "midi": 71,
      "hit": false,
      "t": 168747.5250000012,
      "d": 114.88802083334303,
      "v": 127
    },
    {
      "midi": 74,
      "hit": false,
      "t": 168747.5250000012,
      "d": 114.88802083334303,
      "v": 127
    },
    {
      "midi": 42,
      "hit": false,
      "t": 168747.5250000013,
      "d": 105.69697916667792,
      "v": 127
    },
    {
      "midi": 42,
      "hit": false,
      "t": 168968.11000000132,
      "d": 114.88802083334303,
      "v": 44
    },
    {
      "midi": 67,
      "hit": false,
      "t": 169188.6950000012,
      "d": 114.88802083334303,
      "v": 127
    },
    {
      "midi": 71,
      "hit": false,
      "t": 169188.6950000012,
      "d": 114.88802083334303,
      "v": 127
    },
    {
      "midi": 74,
      "hit": false,
      "t": 169188.6950000012,
      "d": 114.88802083334303,
      "v": 127
    },
    {
      "midi": 42,
      "hit": false,
      "t": 169188.69500000135,
      "d": 98.80369791667908,
      "v": 127
    },
    {
      "midi": 67,
      "hit": false,
      "t": 169409.28000000122,
      "d": 114.88802083334303,
      "v": 127
    },
    {
      "midi": 71,
      "hit": false,
      "t": 169409.28000000122,
      "d": 114.88802083334303,
      "v": 127
    },
    {
      "midi": 74,
      "hit": false,
      "t": 169409.28000000122,
      "d": 114.88802083334303,
      "v": 127
    },
    {
      "midi": 76,
      "hit": false,
      "t": 169409.28000000122,
      "d": 114.88802083334303,
      "v": 127
    },
    {
      "midi": 42,
      "hit": false,
      "t": 169409.28000000137,
      "d": 105.69697916667792,
      "v": 72
    },
    {
      "midi": 42,
      "hit": false,
      "t": 169629.8650000014,
      "d": 94.20817708334653,
      "v": 127
    },
    {
      "midi": 67,
      "hit": false,
      "t": 169740.15750000122,
      "d": 114.88802083334303,
      "v": 127
    },
    {
      "midi": 71,
      "hit": false,
      "t": 169740.15750000122,
      "d": 114.88802083334303,
      "v": 127
    },
    {
      "midi": 74,
      "hit": false,
      "t": 169740.15750000122,
      "d": 114.88802083334303,
      "v": 127
    },
    {
      "midi": 76,
      "hit": false,
      "t": 169740.15750000122,
      "d": 114.88802083334303,
      "v": 127
    },
    {
      "midi": 42,
      "hit": false,
      "t": 169850.4500000014,
      "d": 71.23057291665464,
      "v": 11
    },
    {
      "midi": 67,
      "hit": false,
      "t": 170071.03500000123,
      "d": 114.88802083334303,
      "v": 127
    },
    {
      "midi": 71,
      "hit": false,
      "t": 170071.03500000123,
      "d": 114.88802083334303,
      "v": 127
    },
    {
      "midi": 74,
      "hit": false,
      "t": 170071.03500000123,
      "d": 114.88802083334303,
      "v": 127
    },
    {
      "midi": 76,
      "hit": false,
      "t": 170071.03500000123,
      "d": 114.88802083334303,
      "v": 127
    },
    {
      "midi": 42,
      "hit": false,
      "t": 170071.0350000014,
      "d": 107.9947395833442,
      "v": 127
    },
    {
      "midi": 42,
      "hit": false,
      "t": 170291.62000000142,
      "d": 107.9947395833442,
      "v": 51
    },
    {
      "midi": 67,
      "hit": false,
      "t": 170512.20500000124,
      "d": 114.88802083334303,
      "v": 127
    },
    {
      "midi": 71,
      "hit": false,
      "t": 170512.20500000124,
      "d": 114.88802083334303,
      "v": 127
    },
    {
      "midi": 74,
      "hit": false,
      "t": 170512.20500000124,
      "d": 114.88802083334303,
      "v": 127
    },
    {
      "midi": 76,
      "hit": false,
      "t": 170512.20500000124,
      "d": 114.88802083334303,
      "v": 127
    },
    {
      "midi": 42,
      "hit": false,
      "t": 170512.20500000144,
      "d": 87.31489583334769,
      "v": 127
    },
    {
      "midi": 42,
      "hit": false,
      "t": 170732.79000000146,
      "d": 105.69697916667792,
      "v": 21
    },
    {
      "midi": 67,
      "hit": false,
      "t": 170953.37500000125,
      "d": 114.88802083334303,
      "v": 127
    },
    {
      "midi": 71,
      "hit": false,
      "t": 170953.37500000125,
      "d": 114.88802083334303,
      "v": 127
    },
    {
      "midi": 74,
      "hit": false,
      "t": 170953.37500000125,
      "d": 114.88802083334303,
      "v": 127
    },
    {
      "midi": 76,
      "hit": false,
      "t": 170953.37500000125,
      "d": 114.88802083334303,
      "v": 127
    },
    {
      "midi": 42,
      "hit": false,
      "t": 170953.37500000148,
      "d": 85.01713541665231,
      "v": 127
    },
    {
      "midi": 67,
      "hit": false,
      "t": 171173.96000000127,
      "d": 114.88802083334303,
      "v": 127
    },
    {
      "midi": 72,
      "hit": false,
      "t": 171173.96000000127,
      "d": 114.88802083334303,
      "v": 127
    },
    {
      "midi": 76,
      "hit": false,
      "t": 171173.96000000127,
      "d": 114.88802083334303,
      "v": 127
    },
    {
      "midi": 42,
      "hit": false,
      "t": 171173.96000000148,
      "d": 66.63505208332208,
      "v": 60
    },
    {
      "midi": 42,
      "hit": false,
      "t": 171394.54500000147,
      "d": 91.91041666668025,
      "v": 127
    },
    {
      "midi": 67,
      "hit": false,
      "t": 171504.83750000127,
      "d": 114.88802083334303,
      "v": 127
    },
    {
      "midi": 72,
      "hit": false,
      "t": 171504.83750000127,
      "d": 114.88802083334303,
      "v": 127
    },
    {
      "midi": 76,
      "hit": false,
      "t": 171504.83750000127,
      "d": 114.88802083334303,
      "v": 127
    },
    {
      "midi": 42,
      "hit": false,
      "t": 171615.1300000015,
      "d": 75.8260937499872,
      "v": 67
    },
    {
      "midi": 67,
      "hit": false,
      "t": 171835.71500000128,
      "d": 114.88802083334303,
      "v": 127
    },
    {
      "midi": 72,
      "hit": false,
      "t": 171835.71500000128,
      "d": 114.88802083334303,
      "v": 127
    },
    {
      "midi": 76,
      "hit": false,
      "t": 171835.71500000128,
      "d": 114.88802083334303,
      "v": 127
    },
    {
      "midi": 42,
      "hit": false,
      "t": 171835.71500000148,
      "d": 89.61265625001397,
      "v": 127
    },
    {
      "midi": 42,
      "hit": false,
      "t": 172056.3000000015,
      "d": 94.20817708334653,
      "v": 38
    },
    {
      "midi": 67,
      "hit": false,
      "t": 172276.8850000013,
      "d": 114.88802083334303,
      "v": 127
    },
    {
      "midi": 72,
      "hit": false,
      "t": 172276.8850000013,
      "d": 114.88802083334303,
      "v": 127
    },
    {
      "midi": 76,
      "hit": false,
      "t": 172276.8850000013,
      "d": 114.88802083334303,
      "v": 127
    },
    {
      "midi": 42,
      "hit": false,
      "t": 172276.88500000152,
      "d": 89.61265625001397,
      "v": 127
    },
    {
      "midi": 42,
      "hit": false,
      "t": 172497.47000000154,
      "d": 91.91041666668025,
      "v": 60
    },
    {
      "midi": 67,
      "hit": false,
      "t": 172718.0550000013,
      "d": 114.88802083334303,
      "v": 127
    },
    {
      "midi": 72,
      "hit": false,
      "t": 172718.0550000013,
      "d": 114.88802083334303,
      "v": 127
    },
    {
      "midi": 76,
      "hit": false,
      "t": 172718.0550000013,
      "d": 114.88802083334303,
      "v": 127
    },
    {
      "midi": 42,
      "hit": false,
      "t": 172718.05500000156,
      "d": 94.20817708334653,
      "v": 127
    },
    {
      "midi": 66,
      "hit": false,
      "t": 172938.64000000132,
      "d": 114.88802083334303,
      "v": 127
    },
    {
      "midi": 69,
      "hit": false,
      "t": 172938.64000000132,
      "d": 114.88802083334303,
      "v": 127
    },
    {
      "midi": 74,
      "hit": false,
      "t": 172938.64000000132,
      "d": 114.88802083334303,
      "v": 127
    },
    {
      "midi": 42,
      "hit": false,
      "t": 172938.6400000016,
      "d": 85.01713541665231,
      "v": 75
    },
    {
      "midi": 42,
      "hit": false,
      "t": 173159.22500000158,
      "d": 94.20817708334653,
      "v": 127
    },
    {
      "midi": 66,
      "hit": false,
      "t": 173269.51750000133,
      "d": 114.88802083334303,
      "v": 127
    },
    {
      "midi": 69,
      "hit": false,
      "t": 173269.51750000133,
      "d": 114.88802083334303,
      "v": 127
    },
    {
      "midi": 74,
      "hit": false,
      "t": 173269.51750000133,
      "d": 114.88802083334303,
      "v": 127
    },
    {
      "midi": 42,
      "hit": false,
      "t": 173379.8100000016,
      "d": 91.91041666668025,
      "v": 56
    },
    {
      "midi": 66,
      "hit": false,
      "t": 173600.39500000133,
      "d": 114.88802083334303,
      "v": 127
    },
    {
      "midi": 69,
      "hit": false,
      "t": 173600.39500000133,
      "d": 114.88802083334303,
      "v": 127
    },
    {
      "midi": 74,
      "hit": false,
      "t": 173600.39500000133,
      "d": 114.88802083334303,
      "v": 127
    },
    {
      "midi": 42,
      "hit": false,
      "t": 173600.39500000162,
      "d": 89.61265625001397,
      "v": 127
    },
    {
      "midi": 42,
      "hit": false,
      "t": 173820.98000000164,
      "d": 103.39921875001164,
      "v": 38
    },
    {
      "midi": 66,
      "hit": false,
      "t": 174041.56500000134,
      "d": 114.88802083334303,
      "v": 127
    },
    {
      "midi": 69,
      "hit": false,
      "t": 174041.56500000134,
      "d": 114.88802083334303,
      "v": 127
    },
    {
      "midi": 74,
      "hit": false,
      "t": 174041.56500000134,
      "d": 114.88802083334303,
      "v": 127
    },
    {
      "midi": 42,
      "hit": false,
      "t": 174041.56500000166,
      "d": 94.20817708334653,
      "v": 127
    },
    {
      "midi": 42,
      "hit": false,
      "t": 174262.15000000168,
      "d": 85.01713541665231,
      "v": 72
    },
    {
      "midi": 66,
      "hit": false,
      "t": 174482.73500000135,
      "d": 114.88802083334303,
      "v": 127
    },
    {
      "midi": 69,
      "hit": false,
      "t": 174482.73500000135,
      "d": 114.88802083334303,
      "v": 127
    },
    {
      "midi": 74,
      "hit": false,
      "t": 174482.73500000135,
      "d": 114.88802083334303,
      "v": 127
    },
    {
      "midi": 46,
      "hit": false,
      "t": 174482.73500000167,
      "d": 85.01713541665231,
      "v": 127
    },
    {
      "midi": 67,
      "hit": false,
      "t": 174703.32000000137,
      "d": 114.88802083334303,
      "v": 127
    },
    {
      "midi": 71,
      "hit": false,
      "t": 174703.32000000137,
      "d": 114.88802083334303,
      "v": 127
    },
    {
      "midi": 74,
      "hit": false,
      "t": 174703.32000000137,
      "d": 114.88802083334303,
      "v": 127
    },
    {
      "midi": 42,
      "hit": false,
      "t": 174703.32000000167,
      "d": 82.71937499998603,
      "v": 16
    },
    {
      "midi": 57,
      "hit": false,
      "t": 174703.32000000167,
      "d": 220.58499999999185,
      "v": 112
    },
    {
      "midi": 42,
      "hit": false,
      "t": 174923.90500000166,
      "d": 147.05666666667094,
      "v": 127
    },
    {
      "midi": 67,
      "hit": false,
      "t": 175034.19750000138,
      "d": 114.88802083334303,
      "v": 127
    },
    {
      "midi": 71,
      "hit": false,
      "t": 175034.19750000138,
      "d": 114.88802083334303,
      "v": 127
    },
    {
      "midi": 74,
      "hit": false,
      "t": 175034.19750000138,
      "d": 114.88802083334303,
      "v": 127
    },
    {
      "midi": 42,
      "hit": false,
      "t": 175144.49000000165,
      "d": 128.6745833333407,
      "v": 26
    },
    {
      "midi": 67,
      "hit": false,
      "t": 175365.07500000138,
      "d": 114.88802083334303,
      "v": 127
    },
    {
      "midi": 71,
      "hit": false,
      "t": 175365.07500000138,
      "d": 114.88802083334303,
      "v": 127
    },
    {
      "midi": 74,
      "hit": false,
      "t": 175365.07500000138,
      "d": 114.88802083334303,
      "v": 127
    },
    {
      "midi": 42,
      "hit": false,
      "t": 175365.07500000167,
      "d": 126.37682291667443,
      "v": 112
    },
    {
      "midi": 42,
      "hit": false,
      "t": 175585.6600000017,
      "d": 128.6745833333407,
      "v": 35
    },
    {
      "midi": 67,
      "hit": false,
      "t": 175806.2450000014,
      "d": 114.88802083334303,
      "v": 127
    },
    {
      "midi": 71,
      "hit": false,
      "t": 175806.2450000014,
      "d": 114.88802083334303,
      "v": 127
    },
    {
      "midi": 74,
      "hit": false,
      "t": 175806.2450000014,
      "d": 114.88802083334303,
      "v": 127
    },
    {
      "midi": 42,
      "hit": false,
      "t": 175806.2450000017,
      "d": 105.69697916667792,
      "v": 127
    },
    {
      "midi": 42,
      "hit": false,
      "t": 176026.83000000173,
      "d": 114.88802083334303,
      "v": 44
    },
    {
      "midi": 67,
      "hit": false,
      "t": 176247.4150000014,
      "d": 114.88802083334303,
      "v": 127
    },
    {
      "midi": 71,
      "hit": false,
      "t": 176247.4150000014,
      "d": 114.88802083334303,
      "v": 127
    },
    {
      "midi": 74,
      "hit": false,
      "t": 176247.4150000014,
      "d": 114.88802083334303,
      "v": 127
    },
    {
      "midi": 42,
      "hit": false,
      "t": 176247.41500000175,
      "d": 98.80369791667908,
      "v": 127
    },
    {
      "midi": 67,
      "hit": false,
      "t": 176468.00000000143,
      "d": 114.88802083334303,
      "v": 127
    },
    {
      "midi": 71,
      "hit": false,
      "t": 176468.00000000143,
      "d": 114.88802083334303,
      "v": 127
    },
    {
      "midi": 74,
      "hit": false,
      "t": 176468.00000000143,
      "d": 114.88802083334303,
      "v": 127
    },
    {
      "midi": 76,
      "hit": false,
      "t": 176468.00000000143,
      "d": 114.88802083334303,
      "v": 127
    },
    {
      "midi": 42,
      "hit": false,
      "t": 176468.00000000178,
      "d": 105.69697916667792,
      "v": 72
    },
    {
      "midi": 42,
      "hit": false,
      "t": 176688.5850000018,
      "d": 94.20817708334653,
      "v": 127
    },
    {
      "midi": 67,
      "hit": false,
      "t": 176798.87750000143,
      "d": 114.88802083334303,
      "v": 127
    },
    {
      "midi": 71,
      "hit": false,
      "t": 176798.87750000143,
      "d": 114.88802083334303,
      "v": 127
    },
    {
      "midi": 74,
      "hit": false,
      "t": 176798.87750000143,
      "d": 114.88802083334303,
      "v": 127
    },
    {
      "midi": 76,
      "hit": false,
      "t": 176798.87750000143,
      "d": 114.88802083334303,
      "v": 127
    },
    {
      "midi": 42,
      "hit": false,
      "t": 176909.17000000182,
      "d": 71.23057291665464,
      "v": 11
    },
    {
      "midi": 67,
      "hit": false,
      "t": 177129.75500000143,
      "d": 114.88802083334303,
      "v": 127
    },
    {
      "midi": 71,
      "hit": false,
      "t": 177129.75500000143,
      "d": 114.88802083334303,
      "v": 127
    },
    {
      "midi": 74,
      "hit": false,
      "t": 177129.75500000143,
      "d": 114.88802083334303,
      "v": 127
    },
    {
      "midi": 76,
      "hit": false,
      "t": 177129.75500000143,
      "d": 114.88802083334303,
      "v": 127
    },
    {
      "midi": 42,
      "hit": false,
      "t": 177129.7550000018,
      "d": 107.9947395833442,
      "v": 127
    },
    {
      "midi": 42,
      "hit": false,
      "t": 177350.34000000183,
      "d": 107.9947395833442,
      "v": 51
    },
    {
      "midi": 67,
      "hit": false,
      "t": 177570.92500000144,
      "d": 114.88802083334303,
      "v": 127
    },
    {
      "midi": 71,
      "hit": false,
      "t": 177570.92500000144,
      "d": 114.88802083334303,
      "v": 127
    },
    {
      "midi": 74,
      "hit": false,
      "t": 177570.92500000144,
      "d": 114.88802083334303,
      "v": 127
    },
    {
      "midi": 76,
      "hit": false,
      "t": 177570.92500000144,
      "d": 114.88802083334303,
      "v": 127
    },
    {
      "midi": 42,
      "hit": false,
      "t": 177570.92500000185,
      "d": 87.31489583334769,
      "v": 127
    },
    {
      "midi": 42,
      "hit": false,
      "t": 177791.51000000187,
      "d": 105.69697916667792,
      "v": 21
    },
    {
      "midi": 67,
      "hit": false,
      "t": 178012.09500000146,
      "d": 114.88802083334303,
      "v": 127
    },
    {
      "midi": 71,
      "hit": false,
      "t": 178012.09500000146,
      "d": 114.88802083334303,
      "v": 127
    },
    {
      "midi": 74,
      "hit": false,
      "t": 178012.09500000146,
      "d": 114.88802083334303,
      "v": 127
    },
    {
      "midi": 76,
      "hit": false,
      "t": 178012.09500000146,
      "d": 114.88802083334303,
      "v": 127
    },
    {
      "midi": 42,
      "hit": false,
      "t": 178012.0950000019,
      "d": 85.01713541665231,
      "v": 127
    },
    {
      "midi": 67,
      "hit": false,
      "t": 178232.68000000148,
      "d": 114.88802083334303,
      "v": 127
    },
    {
      "midi": 72,
      "hit": false,
      "t": 178232.68000000148,
      "d": 114.88802083334303,
      "v": 127
    },
    {
      "midi": 76,
      "hit": false,
      "t": 178232.68000000148,
      "d": 114.88802083334303,
      "v": 127
    },
    {
      "midi": 42,
      "hit": false,
      "t": 178232.68000000188,
      "d": 66.63505208332208,
      "v": 60
    },
    {
      "midi": 42,
      "hit": false,
      "t": 178453.26500000188,
      "d": 91.91041666668025,
      "v": 127
    },
    {
      "midi": 67,
      "hit": false,
      "t": 178563.55750000148,
      "d": 114.88802083334303,
      "v": 127
    },
    {
      "midi": 72,
      "hit": false,
      "t": 178563.55750000148,
      "d": 114.88802083334303,
      "v": 127
    },
    {
      "midi": 76,
      "hit": false,
      "t": 178563.55750000148,
      "d": 114.88802083334303,
      "v": 127
    },
    {
      "midi": 42,
      "hit": false,
      "t": 178673.8500000019,
      "d": 75.8260937499872,
      "v": 67
    },
    {
      "midi": 67,
      "hit": false,
      "t": 178894.43500000148,
      "d": 114.88802083334303,
      "v": 127
    },
    {
      "midi": 72,
      "hit": false,
      "t": 178894.43500000148,
      "d": 114.88802083334303,
      "v": 127
    },
    {
      "midi": 76,
      "hit": false,
      "t": 178894.43500000148,
      "d": 114.88802083334303,
      "v": 127
    },
    {
      "midi": 42,
      "hit": false,
      "t": 178894.4350000019,
      "d": 89.61265625001397,
      "v": 127
    },
    {
      "midi": 42,
      "hit": false,
      "t": 179115.0200000019,
      "d": 94.20817708334653,
      "v": 38
    },
    {
      "midi": 67,
      "hit": false,
      "t": 179335.6050000015,
      "d": 114.88802083334303,
      "v": 127
    },
    {
      "midi": 72,
      "hit": false,
      "t": 179335.6050000015,
      "d": 114.88802083334303,
      "v": 127
    },
    {
      "midi": 76,
      "hit": false,
      "t": 179335.6050000015,
      "d": 114.88802083334303,
      "v": 127
    },
    {
      "midi": 42,
      "hit": false,
      "t": 179335.60500000193,
      "d": 89.61265625001397,
      "v": 127
    },
    {
      "midi": 42,
      "hit": false,
      "t": 179556.19000000195,
      "d": 91.91041666668025,
      "v": 60
    },
    {
      "midi": 67,
      "hit": false,
      "t": 179776.7750000015,
      "d": 114.88802083334303,
      "v": 127
    },
    {
      "midi": 72,
      "hit": false,
      "t": 179776.7750000015,
      "d": 114.88802083334303,
      "v": 127
    },
    {
      "midi": 76,
      "hit": false,
      "t": 179776.7750000015,
      "d": 114.88802083334303,
      "v": 127
    },
    {
      "midi": 42,
      "hit": false,
      "t": 179776.77500000197,
      "d": 94.20817708334653,
      "v": 127
    },
    {
      "midi": 66,
      "hit": false,
      "t": 179997.36000000153,
      "d": 114.88802083334303,
      "v": 127
    },
    {
      "midi": 69,
      "hit": false,
      "t": 179997.36000000153,
      "d": 114.88802083334303,
      "v": 127
    },
    {
      "midi": 74,
      "hit": false,
      "t": 179997.36000000153,
      "d": 114.88802083334303,
      "v": 127
    },
    {
      "midi": 42,
      "hit": false,
      "t": 179997.360000002,
      "d": 85.01713541665231,
      "v": 75
    },
    {
      "midi": 42,
      "hit": false,
      "t": 180217.945000002,
      "d": 94.20817708334653,
      "v": 127
    },
    {
      "midi": 66,
      "hit": false,
      "t": 180328.23750000153,
      "d": 114.88802083334303,
      "v": 127
    },
    {
      "midi": 69,
      "hit": false,
      "t": 180328.23750000153,
      "d": 114.88802083334303,
      "v": 127
    },
    {
      "midi": 74,
      "hit": false,
      "t": 180328.23750000153,
      "d": 114.88802083334303,
      "v": 127
    },
    {
      "midi": 42,
      "hit": false,
      "t": 180438.530000002,
      "d": 91.91041666668025,
      "v": 56
    },
    {
      "midi": 66,
      "hit": false,
      "t": 180659.11500000153,
      "d": 114.88802083334303,
      "v": 127
    },
    {
      "midi": 69,
      "hit": false,
      "t": 180659.11500000153,
      "d": 114.88802083334303,
      "v": 127
    },
    {
      "midi": 74,
      "hit": false,
      "t": 180659.11500000153,
      "d": 114.88802083334303,
      "v": 127
    },
    {
      "midi": 42,
      "hit": false,
      "t": 180659.11500000203,
      "d": 89.61265625001397,
      "v": 127
    },
    {
      "midi": 42,
      "hit": false,
      "t": 180879.70000000205,
      "d": 103.39921875001164,
      "v": 38
    },
    {
      "midi": 66,
      "hit": false,
      "t": 181100.28500000155,
      "d": 114.88802083334303,
      "v": 127
    },
    {
      "midi": 69,
      "hit": false,
      "t": 181100.28500000155,
      "d": 114.88802083334303,
      "v": 127
    },
    {
      "midi": 74,
      "hit": false,
      "t": 181100.28500000155,
      "d": 114.88802083334303,
      "v": 127
    },
    {
      "midi": 42,
      "hit": false,
      "t": 181100.28500000207,
      "d": 94.20817708334653,
      "v": 127
    },
    {
      "midi": 42,
      "hit": false,
      "t": 181320.8700000021,
      "d": 85.01713541665231,
      "v": 72
    },
    {
      "midi": 66,
      "hit": false,
      "t": 181541.45500000156,
      "d": 114.88802083334303,
      "v": 127
    },
    {
      "midi": 69,
      "hit": false,
      "t": 181541.45500000156,
      "d": 114.88802083334303,
      "v": 127
    },
    {
      "midi": 74,
      "hit": false,
      "t": 181541.45500000156,
      "d": 114.88802083334303,
      "v": 127
    },
    {
      "midi": 46,
      "hit": false,
      "t": 181541.45500000208,
      "d": 85.01713541665231,
      "v": 127
    },
    {
      "midi": 67,
      "hit": false,
      "t": 181762.04000000158,
      "d": 114.88802083334303,
      "v": 127
    },
    {
      "midi": 72,
      "hit": false,
      "t": 181762.04000000158,
      "d": 114.88802083334303,
      "v": 127
    },
    {
      "midi": 76,
      "hit": false,
      "t": 181762.04000000158,
      "d": 114.88802083334303,
      "v": 127
    },
    {
      "midi": 42,
      "hit": false,
      "t": 181762.04000000207,
      "d": 82.71937499998603,
      "v": 16
    },
    {
      "midi": 57,
      "hit": false,
      "t": 181762.04000000207,
      "d": 220.58499999999185,
      "v": 85
    },
    {
      "midi": 49,
      "hit": false,
      "t": 181762.04000000207,
      "d": 1769.275520833442,
      "v": 86
    },
    {
      "midi": 42,
      "hit": false,
      "t": 181982.62500000207,
      "d": 147.05666666667094,
      "v": 127
    },
    {
      "midi": 67,
      "hit": false,
      "t": 182092.91750000158,
      "d": 114.88802083334303,
      "v": 127
    },
    {
      "midi": 72,
      "hit": false,
      "t": 182092.91750000158,
      "d": 114.88802083334303,
      "v": 127
    },
    {
      "midi": 76,
      "hit": false,
      "t": 182092.91750000158,
      "d": 114.88802083334303,
      "v": 127
    },
    {
      "midi": 42,
      "hit": false,
      "t": 182203.21000000206,
      "d": 128.6745833333407,
      "v": 26
    },
    {
      "midi": 67,
      "hit": false,
      "t": 182423.79500000158,
      "d": 114.88802083334303,
      "v": 127
    },
    {
      "midi": 72,
      "hit": false,
      "t": 182423.79500000158,
      "d": 114.88802083334303,
      "v": 127
    },
    {
      "midi": 76,
      "hit": false,
      "t": 182423.79500000158,
      "d": 114.88802083334303,
      "v": 127
    },
    {
      "midi": 42,
      "hit": false,
      "t": 182423.79500000208,
      "d": 126.37682291667443,
      "v": 112
    },
    {
      "midi": 42,
      "hit": false,
      "t": 182644.3800000021,
      "d": 128.6745833333407,
      "v": 35
    },
    {
      "midi": 67,
      "hit": false,
      "t": 182864.9650000016,
      "d": 114.88802083334303,
      "v": 127
    },
    {
      "midi": 72,
      "hit": false,
      "t": 182864.9650000016,
      "d": 114.88802083334303,
      "v": 127
    },
    {
      "midi": 76,
      "hit": false,
      "t": 182864.9650000016,
      "d": 114.88802083334303,
      "v": 127
    },
    {
      "midi": 42,
      "hit": false,
      "t": 182864.96500000212,
      "d": 105.69697916667792,
      "v": 127
    },
    {
      "midi": 42,
      "hit": false,
      "t": 183085.55000000214,
      "d": 114.88802083334303,
      "v": 44
    },
    {
      "midi": 67,
      "hit": false,
      "t": 183306.1350000016,
      "d": 114.88802083334303,
      "v": 127
    },
    {
      "midi": 72,
      "hit": false,
      "t": 183306.1350000016,
      "d": 114.88802083334303,
      "v": 127
    },
    {
      "midi": 76,
      "hit": false,
      "t": 183306.1350000016,
      "d": 114.88802083334303,
      "v": 127
    },
    {
      "midi": 42,
      "hit": false,
      "t": 183306.13500000216,
      "d": 98.80369791667908,
      "v": 127
    },
    {
      "midi": 69,
      "hit": false,
      "t": 183526.72000000163,
      "d": 114.88802083334303,
      "v": 127
    },
    {
      "midi": 74,
      "hit": false,
      "t": 183526.72000000163,
      "d": 114.88802083334303,
      "v": 127
    },
    {
      "midi": 78,
      "hit": false,
      "t": 183526.72000000163,
      "d": 114.88802083334303,
      "v": 127
    },
    {
      "midi": 42,
      "hit": false,
      "t": 183526.72000000218,
      "d": 105.69697916667792,
      "v": 72
    },
    {
      "midi": 42,
      "hit": false,
      "t": 183747.3050000022,
      "d": 94.20817708334653,
      "v": 127
    },
    {
      "midi": 69,
      "hit": false,
      "t": 183857.59750000163,
      "d": 114.88802083334303,
      "v": 127
    },
    {
      "midi": 74,
      "hit": false,
      "t": 183857.59750000163,
      "d": 114.88802083334303,
      "v": 127
    },
    {
      "midi": 78,
      "hit": false,
      "t": 183857.59750000163,
      "d": 114.88802083334303,
      "v": 127
    },
    {
      "midi": 42,
      "hit": false,
      "t": 183967.89000000223,
      "d": 71.23057291665464,
      "v": 11
    },
    {
      "midi": 69,
      "hit": false,
      "t": 184188.47500000164,
      "d": 114.88802083334303,
      "v": 127
    },
    {
      "midi": 74,
      "hit": false,
      "t": 184188.47500000164,
      "d": 114.88802083334303,
      "v": 127
    },
    {
      "midi": 78,
      "hit": false,
      "t": 184188.47500000164,
      "d": 114.88802083334303,
      "v": 127
    },
    {
      "midi": 42,
      "hit": false,
      "t": 184188.47500000222,
      "d": 107.9947395833442,
      "v": 127
    },
    {
      "midi": 42,
      "hit": false,
      "t": 184409.06000000224,
      "d": 107.9947395833442,
      "v": 51
    },
    {
      "midi": 69,
      "hit": false,
      "t": 184629.64500000165,
      "d": 114.88802083334303,
      "v": 127
    },
    {
      "midi": 74,
      "hit": false,
      "t": 184629.64500000165,
      "d": 114.88802083334303,
      "v": 127
    },
    {
      "midi": 78,
      "hit": false,
      "t": 184629.64500000165,
      "d": 114.88802083334303,
      "v": 127
    },
    {
      "midi": 42,
      "hit": false,
      "t": 184629.64500000226,
      "d": 87.31489583334769,
      "v": 127
    },
    {
      "midi": 42,
      "hit": false,
      "t": 184850.23000000228,
      "d": 105.69697916667792,
      "v": 21
    },
    {
      "midi": 69,
      "hit": false,
      "t": 185070.81500000166,
      "d": 114.88802083334303,
      "v": 127
    },
    {
      "midi": 74,
      "hit": false,
      "t": 185070.81500000166,
      "d": 114.88802083334303,
      "v": 127
    },
    {
      "midi": 78,
      "hit": false,
      "t": 185070.81500000166,
      "d": 114.88802083334303,
      "v": 127
    },
    {
      "midi": 42,
      "hit": false,
      "t": 185070.8150000023,
      "d": 85.01713541665231,
      "v": 127
    },
    {
      "midi": 67,
      "hit": false,
      "t": 185291.40000000168,
      "d": 114.88802083334303,
      "v": 127
    },
    {
      "midi": 71,
      "hit": false,
      "t": 185291.40000000168,
      "d": 114.88802083334303,
      "v": 127
    },
    {
      "midi": 76,
      "hit": false,
      "t": 185291.40000000168,
      "d": 114.88802083334303,
      "v": 127
    },
    {
      "midi": 42,
      "hit": false,
      "t": 185291.4000000023,
      "d": 66.63505208332208,
      "v": 60
    },
    {
      "midi": 42,
      "hit": false,
      "t": 185511.98500000229,
      "d": 91.91041666668025,
      "v": 127
    },
    {
      "midi": 67,
      "hit": false,
      "t": 185622.27750000168,
      "d": 114.88802083334303,
      "v": 127
    },
    {
      "midi": 71,
      "hit": false,
      "t": 185622.27750000168,
      "d": 114.88802083334303,
      "v": 127
    },
    {
      "midi": 76,
      "hit": false,
      "t": 185622.27750000168,
      "d": 114.88802083334303,
      "v": 127
    },
    {
      "midi": 42,
      "hit": false,
      "t": 185732.5700000023,
      "d": 75.8260937499872,
      "v": 67
    },
    {
      "midi": 67,
      "hit": false,
      "t": 185953.1550000017,
      "d": 114.88802083334303,
      "v": 127
    },
    {
      "midi": 71,
      "hit": false,
      "t": 185953.1550000017,
      "d": 114.88802083334303,
      "v": 127
    },
    {
      "midi": 76,
      "hit": false,
      "t": 185953.1550000017,
      "d": 114.88802083334303,
      "v": 127
    },
    {
      "midi": 42,
      "hit": false,
      "t": 185953.1550000023,
      "d": 89.61265625001397,
      "v": 127
    },
    {
      "midi": 42,
      "hit": false,
      "t": 186173.74000000232,
      "d": 94.20817708334653,
      "v": 38
    },
    {
      "midi": 67,
      "hit": false,
      "t": 186394.3250000017,
      "d": 114.88802083334303,
      "v": 127
    },
    {
      "midi": 71,
      "hit": false,
      "t": 186394.3250000017,
      "d": 114.88802083334303,
      "v": 127
    },
    {
      "midi": 76,
      "hit": false,
      "t": 186394.3250000017,
      "d": 114.88802083334303,
      "v": 127
    },
    {
      "midi": 42,
      "hit": false,
      "t": 186394.32500000234,
      "d": 89.61265625001397,
      "v": 127
    },
    {
      "midi": 42,
      "hit": false,
      "t": 186614.91000000236,
      "d": 91.91041666668025,
      "v": 60
    },
    {
      "midi": 67,
      "hit": false,
      "t": 186835.4950000017,
      "d": 114.88802083334303,
      "v": 127
    },
    {
      "midi": 71,
      "hit": false,
      "t": 186835.4950000017,
      "d": 114.88802083334303,
      "v": 127
    },
    {
      "midi": 76,
      "hit": false,
      "t": 186835.4950000017,
      "d": 114.88802083334303,
      "v": 127
    },
    {
      "midi": 42,
      "hit": false,
      "t": 186835.49500000238,
      "d": 94.20817708334653,
      "v": 127
    },
    {
      "midi": 69,
      "hit": false,
      "t": 187056.08000000173,
      "d": 114.88802083334303,
      "v": 127
    },
    {
      "midi": 73,
      "hit": false,
      "t": 187056.08000000173,
      "d": 114.88802083334303,
      "v": 127
    },
    {
      "midi": 76,
      "hit": false,
      "t": 187056.08000000173,
      "d": 114.88802083334303,
      "v": 127
    },
    {
      "midi": 42,
      "hit": false,
      "t": 187056.0800000024,
      "d": 85.01713541665231,
      "v": 75
    },
    {
      "midi": 42,
      "hit": false,
      "t": 187276.6650000024,
      "d": 94.20817708334653,
      "v": 127
    },
    {
      "midi": 69,
      "hit": false,
      "t": 187386.95750000174,
      "d": 114.88802083334303,
      "v": 127
    },
    {
      "midi": 73,
      "hit": false,
      "t": 187386.95750000174,
      "d": 114.88802083334303,
      "v": 127
    },
    {
      "midi": 76,
      "hit": false,
      "t": 187386.95750000174,
      "d": 114.88802083334303,
      "v": 127
    },
    {
      "midi": 42,
      "hit": false,
      "t": 187497.25000000242,
      "d": 91.91041666668025,
      "v": 56
    },
    {
      "midi": 69,
      "hit": false,
      "t": 187717.83500000174,
      "d": 114.88802083334303,
      "v": 127
    },
    {
      "midi": 73,
      "hit": false,
      "t": 187717.83500000174,
      "d": 114.88802083334303,
      "v": 127
    },
    {
      "midi": 76,
      "hit": false,
      "t": 187717.83500000174,
      "d": 114.88802083334303,
      "v": 127
    },
    {
      "midi": 42,
      "hit": false,
      "t": 187717.83500000244,
      "d": 89.61265625001397,
      "v": 127
    },
    {
      "midi": 42,
      "hit": false,
      "t": 187938.42000000246,
      "d": 103.39921875001164,
      "v": 38
    },
    {
      "midi": 69,
      "hit": false,
      "t": 188159.00500000175,
      "d": 114.88802083334303,
      "v": 127
    },
    {
      "midi": 73,
      "hit": false,
      "t": 188159.00500000175,
      "d": 114.88802083334303,
      "v": 127
    },
    {
      "midi": 76,
      "hit": false,
      "t": 188159.00500000175,
      "d": 114.88802083334303,
      "v": 127
    },
    {
      "midi": 42,
      "hit": false,
      "t": 188159.00500000248,
      "d": 94.20817708334653,
      "v": 127
    },
    {
      "midi": 42,
      "hit": false,
      "t": 188379.5900000025,
      "d": 85.01713541665231,
      "v": 72
    },
    {
      "midi": 69,
      "hit": false,
      "t": 188600.17500000176,
      "d": 114.88802083334303,
      "v": 127
    },
    {
      "midi": 73,
      "hit": false,
      "t": 188600.17500000176,
      "d": 114.88802083334303,
      "v": 127
    },
    {
      "midi": 76,
      "hit": false,
      "t": 188600.17500000176,
      "d": 114.88802083334303,
      "v": 127
    },
    {
      "midi": 46,
      "hit": false,
      "t": 188600.1750000025,
      "d": 85.01713541665231,
      "v": 127
    },
    {
      "midi": 69,
      "hit": false,
      "t": 188820.76000000178,
      "d": 114.88802083334303,
      "v": 127
    },
    {
      "midi": 73,
      "hit": false,
      "t": 188820.76000000178,
      "d": 114.88802083334303,
      "v": 127
    },
    {
      "midi": 76,
      "hit": false,
      "t": 188820.76000000178,
      "d": 114.88802083334303,
      "v": 127
    },
    {
      "midi": 42,
      "hit": false,
      "t": 188820.76000000248,
      "d": 82.71937499998603,
      "v": 16
    },
    {
      "midi": 42,
      "hit": false,
      "t": 189041.34500000247,
      "d": 147.05666666667094,
      "v": 127
    },
    {
      "midi": 69,
      "hit": false,
      "t": 189151.6375000018,
      "d": 114.88802083334303,
      "v": 127
    },
    {
      "midi": 73,
      "hit": false,
      "t": 189151.6375000018,
      "d": 114.88802083334303,
      "v": 127
    },
    {
      "midi": 76,
      "hit": false,
      "t": 189151.6375000018,
      "d": 114.88802083334303,
      "v": 127
    },
    {
      "midi": 42,
      "hit": false,
      "t": 189261.93000000247,
      "d": 128.6745833333407,
      "v": 26
    },
    {
      "midi": 69,
      "hit": false,
      "t": 189482.5150000018,
      "d": 114.88802083334303,
      "v": 127
    },
    {
      "midi": 73,
      "hit": false,
      "t": 189482.5150000018,
      "d": 114.88802083334303,
      "v": 127
    },
    {
      "midi": 76,
      "hit": false,
      "t": 189482.5150000018,
      "d": 114.88802083334303,
      "v": 127
    },
    {
      "midi": 42,
      "hit": false,
      "t": 189482.5150000025,
      "d": 126.37682291667443,
      "v": 112
    },
    {
      "midi": 42,
      "hit": false,
      "t": 189703.1000000025,
      "d": 128.6745833333407,
      "v": 35
    },
    {
      "midi": 69,
      "hit": false,
      "t": 189923.6850000018,
      "d": 114.88802083334303,
      "v": 127
    },
    {
      "midi": 73,
      "hit": false,
      "t": 189923.6850000018,
      "d": 114.88802083334303,
      "v": 127
    },
    {
      "midi": 76,
      "hit": false,
      "t": 189923.6850000018,
      "d": 114.88802083334303,
      "v": 127
    },
    {
      "midi": 42,
      "hit": false,
      "t": 189923.68500000253,
      "d": 105.69697916667792,
      "v": 127
    },
    {
      "midi": 42,
      "hit": false,
      "t": 190144.27000000255,
      "d": 114.88802083334303,
      "v": 44
    },
    {
      "midi": 69,
      "hit": false,
      "t": 190364.85500000181,
      "d": 114.88802083334303,
      "v": 127
    },
    {
      "midi": 73,
      "hit": false,
      "t": 190364.85500000181,
      "d": 114.88802083334303,
      "v": 127
    },
    {
      "midi": 76,
      "hit": false,
      "t": 190364.85500000181,
      "d": 114.88802083334303,
      "v": 127
    },
    {
      "midi": 42,
      "hit": false,
      "t": 190364.85500000257,
      "d": 98.80369791667908,
      "v": 127
    },
    {
      "midi": 67,
      "hit": false,
      "t": 190585.44000000184,
      "d": 114.88802083334303,
      "v": 127
    },
    {
      "midi": 71,
      "hit": false,
      "t": 190585.44000000184,
      "d": 114.88802083334303,
      "v": 127
    },
    {
      "midi": 74,
      "hit": false,
      "t": 190585.44000000184,
      "d": 114.88802083334303,
      "v": 127
    },
    {
      "midi": 42,
      "hit": false,
      "t": 190585.4400000026,
      "d": 105.69697916667792,
      "v": 72
    },
    {
      "midi": 49,
      "hit": false,
      "t": 190585.4400000026,
      "d": 1511.9263541667606,
      "v": 106
    },
    {
      "midi": 57,
      "hit": false,
      "t": 190585.4400000026,
      "d": 1541.7972395834222,
      "v": 85
    },
    {
      "midi": 42,
      "hit": false,
      "t": 190806.0250000026,
      "d": 94.20817708334653,
      "v": 127
    },
    {
      "midi": 67,
      "hit": false,
      "t": 190916.31750000184,
      "d": 114.88802083334303,
      "v": 127
    },
    {
      "midi": 71,
      "hit": false,
      "t": 190916.31750000184,
      "d": 114.88802083334303,
      "v": 127
    },
    {
      "midi": 74,
      "hit": false,
      "t": 190916.31750000184,
      "d": 114.88802083334303,
      "v": 127
    },
    {
      "midi": 42,
      "hit": false,
      "t": 191026.61000000263,
      "d": 71.23057291665464,
      "v": 11
    },
    {
      "midi": 67,
      "hit": false,
      "t": 191247.19500000184,
      "d": 114.88802083334303,
      "v": 127
    },
    {
      "midi": 71,
      "hit": false,
      "t": 191247.19500000184,
      "d": 114.88802083334303,
      "v": 127
    },
    {
      "midi": 74,
      "hit": false,
      "t": 191247.19500000184,
      "d": 114.88802083334303,
      "v": 127
    },
    {
      "midi": 42,
      "hit": false,
      "t": 191247.19500000263,
      "d": 107.9947395833442,
      "v": 127
    },
    {
      "midi": 42,
      "hit": false,
      "t": 191467.78000000265,
      "d": 107.9947395833442,
      "v": 51
    },
    {
      "midi": 67,
      "hit": false,
      "t": 191688.36500000185,
      "d": 114.88802083334303,
      "v": 127
    },
    {
      "midi": 71,
      "hit": false,
      "t": 191688.36500000185,
      "d": 114.88802083334303,
      "v": 127
    },
    {
      "midi": 74,
      "hit": false,
      "t": 191688.36500000185,
      "d": 114.88802083334303,
      "v": 127
    },
    {
      "midi": 42,
      "hit": false,
      "t": 191688.36500000267,
      "d": 87.31489583334769,
      "v": 127
    },
    {
      "midi": 42,
      "hit": false,
      "t": 191908.9500000027,
      "d": 105.69697916667792,
      "v": 21
    },
    {
      "midi": 67,
      "hit": false,
      "t": 192129.53500000187,
      "d": 114.88802083334303,
      "v": 127
    },
    {
      "midi": 71,
      "hit": false,
      "t": 192129.53500000187,
      "d": 114.88802083334303,
      "v": 127
    },
    {
      "midi": 74,
      "hit": false,
      "t": 192129.53500000187,
      "d": 114.88802083334303,
      "v": 127
    },
    {
      "midi": 42,
      "hit": false,
      "t": 192129.53500000268,
      "d": 85.01713541665231,
      "v": 127
    },
    {
      "midi": 66,
      "hit": false,
      "t": 192350.1200000019,
      "d": 114.88802083334303,
      "v": 127
    },
    {
      "midi": 69,
      "hit": false,
      "t": 192350.1200000019,
      "d": 114.88802083334303,
      "v": 127
    },
    {
      "midi": 74,
      "hit": false,
      "t": 192350.1200000019,
      "d": 114.88802083334303,
      "v": 127
    },
    {
      "midi": 42,
      "hit": false,
      "t": 192350.12000000267,
      "d": 66.63505208332208,
      "v": 60
    },
    {
      "midi": 57,
      "hit": false,
      "t": 192350.12000000267,
      "d": 1534.9039583334234,
      "v": 85
    },
    {
      "midi": 42,
      "hit": false,
      "t": 192570.70500000266,
      "d": 91.91041666668025,
      "v": 127
    },
    {
      "midi": 66,
      "hit": false,
      "t": 192680.9975000019,
      "d": 114.88802083334303,
      "v": 127
    },
    {
      "midi": 69,
      "hit": false,
      "t": 192680.9975000019,
      "d": 114.88802083334303,
      "v": 127
    },
    {
      "midi": 74,
      "hit": false,
      "t": 192680.9975000019,
      "d": 114.88802083334303,
      "v": 127
    },
    {
      "midi": 42,
      "hit": false,
      "t": 192791.2900000027,
      "d": 75.8260937499872,
      "v": 67
    },
    {
      "midi": 66,
      "hit": false,
      "t": 193011.8750000019,
      "d": 114.88802083334303,
      "v": 127
    },
    {
      "midi": 69,
      "hit": false,
      "t": 193011.8750000019,
      "d": 114.88802083334303,
      "v": 127
    },
    {
      "midi": 74,
      "hit": false,
      "t": 193011.8750000019,
      "d": 114.88802083334303,
      "v": 127
    },
    {
      "midi": 42,
      "hit": false,
      "t": 193011.87500000268,
      "d": 89.61265625001397,
      "v": 127
    },
    {
      "midi": 42,
      "hit": false,
      "t": 193232.4600000027,
      "d": 94.20817708334653,
      "v": 38
    },
    {
      "midi": 66,
      "hit": false,
      "t": 193453.0450000019,
      "d": 114.88802083334303,
      "v": 127
    },
    {
      "midi": 69,
      "hit": false,
      "t": 193453.0450000019,
      "d": 114.88802083334303,
      "v": 127
    },
    {
      "midi": 74,
      "hit": false,
      "t": 193453.0450000019,
      "d": 114.88802083334303,
      "v": 127
    },
    {
      "midi": 42,
      "hit": false,
      "t": 193453.04500000272,
      "d": 89.61265625001397,
      "v": 127
    },
    {
      "midi": 42,
      "hit": false,
      "t": 193673.63000000274,
      "d": 91.91041666668025,
      "v": 60
    },
    {
      "midi": 66,
      "hit": false,
      "t": 193894.21500000192,
      "d": 114.88802083334303,
      "v": 127
    },
    {
      "midi": 69,
      "hit": false,
      "t": 193894.21500000192,
      "d": 114.88802083334303,
      "v": 127
    },
    {
      "midi": 74,
      "hit": false,
      "t": 193894.21500000192,
      "d": 114.88802083334303,
      "v": 127
    },
    {
      "midi": 42,
      "hit": false,
      "t": 193894.21500000276,
      "d": 94.20817708334653,
      "v": 127
    },
    {
      "midi": 67,
      "hit": false,
      "t": 194114.80000000194,
      "d": 114.88802083334303,
      "v": 127
    },
    {
      "midi": 71,
      "hit": false,
      "t": 194114.80000000194,
      "d": 114.88802083334303,
      "v": 127
    },
    {
      "midi": 76,
      "hit": false,
      "t": 194114.80000000194,
      "d": 114.88802083334303,
      "v": 127
    },
    {
      "midi": 42,
      "hit": false,
      "t": 194114.80000000278,
      "d": 85.01713541665231,
      "v": 75
    },
    {
      "midi": 57,
      "hit": false,
      "t": 194114.80000000278,
      "d": 1553.2860416667536,
      "v": 90
    },
    {
      "midi": 42,
      "hit": false,
      "t": 194335.38500000277,
      "d": 94.20817708334653,
      "v": 127
    },
    {
      "midi": 67,
      "hit": false,
      "t": 194445.67750000194,
      "d": 114.88802083334303,
      "v": 127
    },
    {
      "midi": 71,
      "hit": false,
      "t": 194445.67750000194,
      "d": 114.88802083334303,
      "v": 127
    },
    {
      "midi": 76,
      "hit": false,
      "t": 194445.67750000194,
      "d": 114.88802083334303,
      "v": 127
    },
    {
      "midi": 42,
      "hit": false,
      "t": 194555.9700000028,
      "d": 91.91041666668025,
      "v": 56
    },
    {
      "midi": 67,
      "hit": false,
      "t": 194776.55500000194,
      "d": 114.88802083334303,
      "v": 127
    },
    {
      "midi": 71,
      "hit": false,
      "t": 194776.55500000194,
      "d": 114.88802083334303,
      "v": 127
    },
    {
      "midi": 76,
      "hit": false,
      "t": 194776.55500000194,
      "d": 114.88802083334303,
      "v": 127
    },
    {
      "midi": 42,
      "hit": false,
      "t": 194776.55500000282,
      "d": 89.61265625001397,
      "v": 127
    },
    {
      "midi": 42,
      "hit": false,
      "t": 194997.14000000284,
      "d": 103.39921875001164,
      "v": 38
    },
    {
      "midi": 67,
      "hit": false,
      "t": 195217.72500000196,
      "d": 114.88802083334303,
      "v": 127
    },
    {
      "midi": 71,
      "hit": false,
      "t": 195217.72500000196,
      "d": 114.88802083334303,
      "v": 127
    },
    {
      "midi": 76,
      "hit": false,
      "t": 195217.72500000196,
      "d": 114.88802083334303,
      "v": 127
    },
    {
      "midi": 42,
      "hit": false,
      "t": 195217.72500000286,
      "d": 94.20817708334653,
      "v": 127
    },
    {
      "midi": 42,
      "hit": false,
      "t": 195438.31000000288,
      "d": 85.01713541665231,
      "v": 72
    },
    {
      "midi": 67,
      "hit": false,
      "t": 195658.89500000197,
      "d": 114.88802083334303,
      "v": 127
    },
    {
      "midi": 71,
      "hit": false,
      "t": 195658.89500000197,
      "d": 114.88802083334303,
      "v": 127
    },
    {
      "midi": 76,
      "hit": false,
      "t": 195658.89500000197,
      "d": 114.88802083334303,
      "v": 127
    },
    {
      "midi": 46,
      "hit": false,
      "t": 195658.89500000287,
      "d": 85.01713541665231,
      "v": 127
    },
    {
      "midi": 69,
      "hit": false,
      "t": 195879.480000002,
      "d": 114.88802083334303,
      "v": 127
    },
    {
      "midi": 73,
      "hit": false,
      "t": 195879.480000002,
      "d": 114.88802083334303,
      "v": 127
    },
    {
      "midi": 76,
      "hit": false,
      "t": 195879.480000002,
      "d": 114.88802083334303,
      "v": 127
    },
    {
      "midi": 42,
      "hit": false,
      "t": 195879.48000000286,
      "d": 82.71937499998603,
      "v": 16
    },
    {
      "midi": 57,
      "hit": false,
      "t": 195879.48000000286,
      "d": 1681.9606250000943,
      "v": 100
    },
    {
      "midi": 42,
      "hit": false,
      "t": 196100.06500000285,
      "d": 147.05666666667094,
      "v": 127
    },
    {
      "midi": 69,
      "hit": false,
      "t": 196210.357500002,
      "d": 114.88802083334303,
      "v": 127
    },
    {
      "midi": 73,
      "hit": false,
      "t": 196210.357500002,
      "d": 114.88802083334303,
      "v": 127
    },
    {
      "midi": 76,
      "hit": false,
      "t": 196210.357500002,
      "d": 114.88802083334303,
      "v": 127
    },
    {
      "midi": 42,
      "hit": false,
      "t": 196320.65000000285,
      "d": 128.6745833333407,
      "v": 26
    },
    {
      "midi": 69,
      "hit": false,
      "t": 196541.235000002,
      "d": 114.88802083334303,
      "v": 127
    },
    {
      "midi": 73,
      "hit": false,
      "t": 196541.235000002,
      "d": 114.88802083334303,
      "v": 127
    },
    {
      "midi": 76,
      "hit": false,
      "t": 196541.235000002,
      "d": 114.88802083334303,
      "v": 127
    },
    {
      "midi": 42,
      "hit": false,
      "t": 196541.23500000287,
      "d": 126.37682291667443,
      "v": 112
    },
    {
      "midi": 42,
      "hit": false,
      "t": 196761.8200000029,
      "d": 128.6745833333407,
      "v": 35
    },
    {
      "midi": 69,
      "hit": false,
      "t": 196982.405000002,
      "d": 114.88802083334303,
      "v": 127
    },
    {
      "midi": 73,
      "hit": false,
      "t": 196982.405000002,
      "d": 114.88802083334303,
      "v": 127
    },
    {
      "midi": 76,
      "hit": false,
      "t": 196982.405000002,
      "d": 114.88802083334303,
      "v": 127
    },
    {
      "midi": 42,
      "hit": false,
      "t": 196982.4050000029,
      "d": 105.69697916667792,
      "v": 127
    },
    {
      "midi": 42,
      "hit": false,
      "t": 197202.99000000293,
      "d": 114.88802083334303,
      "v": 44
    },
    {
      "midi": 69,
      "hit": false,
      "t": 197423.57500000202,
      "d": 114.88802083334303,
      "v": 127
    },
    {
      "midi": 73,
      "hit": false,
      "t": 197423.57500000202,
      "d": 114.88802083334303,
      "v": 127
    },
    {
      "midi": 76,
      "hit": false,
      "t": 197423.57500000202,
      "d": 114.88802083334303,
      "v": 127
    },
    {
      "midi": 42,
      "hit": false,
      "t": 197423.57500000295,
      "d": 98.80369791667908,
      "v": 127
    },
    {
      "midi": 69,
      "hit": false,
      "t": 197644.16000000204,
      "d": 114.88802083334303,
      "v": 127
    },
    {
      "midi": 73,
      "hit": false,
      "t": 197644.16000000204,
      "d": 114.88802083334303,
      "v": 127
    },
    {
      "midi": 76,
      "hit": false,
      "t": 197644.16000000204,
      "d": 114.88802083334303,
      "v": 127
    },
    {
      "midi": 42,
      "hit": false,
      "t": 197644.16000000294,
      "d": 105.69697916667792,
      "v": 72
    },
    {
      "midi": 42,
      "hit": false,
      "t": 197864.74500000296,
      "d": 94.20817708334653,
      "v": 127
    },
    {
      "midi": 69,
      "hit": false,
      "t": 197975.03750000204,
      "d": 114.88802083334303,
      "v": 127
    },
    {
      "midi": 73,
      "hit": false,
      "t": 197975.03750000204,
      "d": 114.88802083334303,
      "v": 127
    },
    {
      "midi": 76,
      "hit": false,
      "t": 197975.03750000204,
      "d": 114.88802083334303,
      "v": 127
    },
    {
      "midi": 42,
      "hit": false,
      "t": 198085.33000000298,
      "d": 71.23057291665464,
      "v": 11
    },
    {
      "midi": 69,
      "hit": false,
      "t": 198305.91500000205,
      "d": 114.88802083334303,
      "v": 127
    },
    {
      "midi": 73,
      "hit": false,
      "t": 198305.91500000205,
      "d": 114.88802083334303,
      "v": 127
    },
    {
      "midi": 76,
      "hit": false,
      "t": 198305.91500000205,
      "d": 114.88802083334303,
      "v": 127
    },
    {
      "midi": 42,
      "hit": false,
      "t": 198305.91500000298,
      "d": 107.9947395833442,
      "v": 127
    },
    {
      "midi": 42,
      "hit": false,
      "t": 198526.500000003,
      "d": 107.9947395833442,
      "v": 51
    },
    {
      "midi": 69,
      "hit": false,
      "t": 198747.08500000206,
      "d": 114.88802083334303,
      "v": 127
    },
    {
      "midi": 73,
      "hit": false,
      "t": 198747.08500000206,
      "d": 114.88802083334303,
      "v": 127
    },
    {
      "midi": 76,
      "hit": false,
      "t": 198747.08500000206,
      "d": 114.88802083334303,
      "v": 127
    },
    {
      "midi": 42,
      "hit": false,
      "t": 198747.08500000302,
      "d": 87.31489583334769,
      "v": 127
    },
    {
      "midi": 42,
      "hit": false,
      "t": 198967.67000000304,
      "d": 105.69697916667792,
      "v": 21
    },
    {
      "midi": 69,
      "hit": false,
      "t": 199188.25500000207,
      "d": 114.88802083334303,
      "v": 127
    },
    {
      "midi": 73,
      "hit": false,
      "t": 199188.25500000207,
      "d": 114.88802083334303,
      "v": 127
    },
    {
      "midi": 76,
      "hit": false,
      "t": 199188.25500000207,
      "d": 114.88802083334303,
      "v": 127
    },
    {
      "midi": 42,
      "hit": false,
      "t": 199188.25500000306,
      "d": 85.01713541665231,
      "v": 127
    },
    {
      "midi": 57,
      "hit": false,
      "t": 199188.25500000306,
      "d": 1764.6800000000512,
      "v": 81
    },
    {
      "midi": 67,
      "hit": false,
      "t": 199408.8400000021,
      "d": 114.88802083334303,
      "v": 127
    },
    {
      "midi": 71,
      "hit": false,
      "t": 199408.8400000021,
      "d": 114.88802083334303,
      "v": 127
    },
    {
      "midi": 74,
      "hit": false,
      "t": 199408.8400000021,
      "d": 114.88802083334303,
      "v": 127
    },
    {
      "midi": 42,
      "hit": false,
      "t": 199408.84000000305,
      "d": 66.63505208332208,
      "v": 60
    },
    {
      "midi": 49,
      "hit": false,
      "t": 199408.84000000305,
      "d": 1470.5666666667385,
      "v": 100
    },
    {
      "midi": 42,
      "hit": false,
      "t": 199629.42500000304,
      "d": 91.91041666668025,
      "v": 127
    },
    {
      "midi": 67,
      "hit": false,
      "t": 199739.7175000021,
      "d": 114.88802083334303,
      "v": 127
    },
    {
      "midi": 71,
      "hit": false,
      "t": 199739.7175000021,
      "d": 114.88802083334303,
      "v": 127
    },
    {
      "midi": 74,
      "hit": false,
      "t": 199739.7175000021,
      "d": 114.88802083334303,
      "v": 127
    },
    {
      "midi": 42,
      "hit": false,
      "t": 199850.01000000307,
      "d": 75.8260937499872,
      "v": 67
    },
    {
      "midi": 67,
      "hit": false,
      "t": 200070.5950000021,
      "d": 114.88802083334303,
      "v": 127
    },
    {
      "midi": 71,
      "hit": false,
      "t": 200070.5950000021,
      "d": 114.88802083334303,
      "v": 127
    },
    {
      "midi": 74,
      "hit": false,
      "t": 200070.5950000021,
      "d": 114.88802083334303,
      "v": 127
    },
    {
      "midi": 42,
      "hit": false,
      "t": 200070.59500000306,
      "d": 89.61265625001397,
      "v": 127
    },
    {
      "midi": 42,
      "hit": false,
      "t": 200291.18000000308,
      "d": 94.20817708334653,
      "v": 38
    },
    {
      "midi": 67,
      "hit": false,
      "t": 200511.7650000021,
      "d": 114.88802083334303,
      "v": 127
    },
    {
      "midi": 71,
      "hit": false,
      "t": 200511.7650000021,
      "d": 114.88802083334303,
      "v": 127
    },
    {
      "midi": 74,
      "hit": false,
      "t": 200511.7650000021,
      "d": 114.88802083334303,
      "v": 127
    },
    {
      "midi": 42,
      "hit": false,
      "t": 200511.7650000031,
      "d": 89.61265625001397,
      "v": 127
    },
    {
      "midi": 42,
      "hit": false,
      "t": 200732.35000000312,
      "d": 91.91041666668025,
      "v": 60
    },
    {
      "midi": 67,
      "hit": false,
      "t": 200952.93500000212,
      "d": 114.88802083334303,
      "v": 127
    },
    {
      "midi": 71,
      "hit": false,
      "t": 200952.93500000212,
      "d": 114.88802083334303,
      "v": 127
    },
    {
      "midi": 74,
      "hit": false,
      "t": 200952.93500000212,
      "d": 114.88802083334303,
      "v": 127
    },
    {
      "midi": 42,
      "hit": false,
      "t": 200952.9350000031,
      "d": 94.20817708334653,
      "v": 127
    },
    {
      "midi": 64,
      "hit": false,
      "t": 201173.52000000214,
      "d": 114.88802083334303,
      "v": 127
    },
    {
      "midi": 69,
      "hit": false,
      "t": 201173.52000000214,
      "d": 114.88802083334303,
      "v": 127
    },
    {
      "midi": 72,
      "hit": false,
      "t": 201173.52000000214,
      "d": 114.88802083334303,
      "v": 127
    },
    {
      "midi": 42,
      "hit": false,
      "t": 201173.52000000313,
      "d": 85.01713541665231,
      "v": 75
    },
    {
      "midi": 57,
      "hit": false,
      "t": 201173.52000000313,
      "d": 1507.330833333428,
      "v": 94
    },
    {
      "midi": 42,
      "hit": false,
      "t": 201394.10500000312,
      "d": 94.20817708334653,
      "v": 127
    },
    {
      "midi": 64,
      "hit": false,
      "t": 201504.39750000215,
      "d": 114.88802083334303,
      "v": 127
    },
    {
      "midi": 69,
      "hit": false,
      "t": 201504.39750000215,
      "d": 114.88802083334303,
      "v": 127
    },
    {
      "midi": 72,
      "hit": false,
      "t": 201504.39750000215,
      "d": 114.88802083334303,
      "v": 127
    },
    {
      "midi": 42,
      "hit": false,
      "t": 201614.69000000315,
      "d": 91.91041666668025,
      "v": 56
    },
    {
      "midi": 67,
      "hit": false,
      "t": 201835.27500000215,
      "d": 114.88802083334303,
      "v": 127
    },
    {
      "midi": 71,
      "hit": false,
      "t": 201835.27500000215,
      "d": 114.88802083334303,
      "v": 127
    },
    {
      "midi": 74,
      "hit": false,
      "t": 201835.27500000215,
      "d": 114.88802083334303,
      "v": 127
    },
    {
      "midi": 42,
      "hit": false,
      "t": 201835.27500000317,
      "d": 89.61265625001397,
      "v": 127
    },
    {
      "midi": 42,
      "hit": false,
      "t": 202055.8600000032,
      "d": 103.39921875001164,
      "v": 38
    },
    {
      "midi": 67,
      "hit": false,
      "t": 202276.44500000216,
      "d": 114.88802083334303,
      "v": 127
    },
    {
      "midi": 71,
      "hit": false,
      "t": 202276.44500000216,
      "d": 114.88802083334303,
      "v": 127
    },
    {
      "midi": 74,
      "hit": false,
      "t": 202276.44500000216,
      "d": 114.88802083334303,
      "v": 127
    },
    {
      "midi": 42,
      "hit": false,
      "t": 202276.4450000032,
      "d": 94.20817708334653,
      "v": 127
    },
    {
      "midi": 42,
      "hit": false,
      "t": 202497.03000000323,
      "d": 85.01713541665231,
      "v": 72
    },
    {
      "midi": 67,
      "hit": false,
      "t": 202717.61500000217,
      "d": 114.88802083334303,
      "v": 127
    },
    {
      "midi": 71,
      "hit": false,
      "t": 202717.61500000217,
      "d": 114.88802083334303,
      "v": 127
    },
    {
      "midi": 74,
      "hit": false,
      "t": 202717.61500000217,
      "d": 114.88802083334303,
      "v": 127
    },
    {
      "midi": 46,
      "hit": false,
      "t": 202717.61500000322,
      "d": 85.01713541665231,
      "v": 127
    },
    {
      "midi": 67,
      "hit": false,
      "t": 202938.2000000022,
      "d": 114.88802083334303,
      "v": 127
    },
    {
      "midi": 72,
      "hit": false,
      "t": 202938.2000000022,
      "d": 114.88802083334303,
      "v": 127
    },
    {
      "midi": 76,
      "hit": false,
      "t": 202938.2000000022,
      "d": 114.88802083334303,
      "v": 127
    },
    {
      "midi": 42,
      "hit": false,
      "t": 202938.2000000032,
      "d": 82.71937499998603,
      "v": 16
    },
    {
      "midi": 57,
      "hit": false,
      "t": 202938.2000000032,
      "d": 1309.7234375000698,
      "v": 100
    },
    {
      "midi": 42,
      "hit": false,
      "t": 203158.7850000032,
      "d": 147.05666666667094,
      "v": 127
    },
    {
      "midi": 67,
      "hit": false,
      "t": 203269.0775000022,
      "d": 114.88802083334303,
      "v": 127
    },
    {
      "midi": 72,
      "hit": false,
      "t": 203269.0775000022,
      "d": 114.88802083334303,
      "v": 127
    },
    {
      "midi": 76,
      "hit": false,
      "t": 203269.0775000022,
      "d": 114.88802083334303,
      "v": 127
    },
    {
      "midi": 42,
      "hit": false,
      "t": 203379.3700000032,
      "d": 128.6745833333407,
      "v": 26
    },
    {
      "midi": 67,
      "hit": false,
      "t": 203599.9550000022,
      "d": 114.88802083334303,
      "v": 127
    },
    {
      "midi": 72,
      "hit": false,
      "t": 203599.9550000022,
      "d": 114.88802083334303,
      "v": 127
    },
    {
      "midi": 76,
      "hit": false,
      "t": 203599.9550000022,
      "d": 114.88802083334303,
      "v": 127
    },
    {
      "midi": 42,
      "hit": false,
      "t": 203599.95500000322,
      "d": 126.37682291667443,
      "v": 112
    },
    {
      "midi": 42,
      "hit": false,
      "t": 203820.54000000324,
      "d": 128.6745833333407,
      "v": 35
    },
    {
      "midi": 67,
      "hit": false,
      "t": 204041.1250000022,
      "d": 114.88802083334303,
      "v": 127
    },
    {
      "midi": 72,
      "hit": false,
      "t": 204041.1250000022,
      "d": 114.88802083334303,
      "v": 127
    },
    {
      "midi": 76,
      "hit": false,
      "t": 204041.1250000022,
      "d": 114.88802083334303,
      "v": 127
    },
    {
      "midi": 42,
      "hit": false,
      "t": 204041.12500000326,
      "d": 105.69697916667792,
      "v": 127
    },
    {
      "midi": 42,
      "hit": false,
      "t": 204261.71000000328,
      "d": 114.88802083334303,
      "v": 44
    },
    {
      "midi": 67,
      "hit": false,
      "t": 204482.29500000222,
      "d": 114.88802083334303,
      "v": 127
    },
    {
      "midi": 72,
      "hit": false,
      "t": 204482.29500000222,
      "d": 114.88802083334303,
      "v": 127
    },
    {
      "midi": 76,
      "hit": false,
      "t": 204482.29500000222,
      "d": 114.88802083334303,
      "v": 127
    },
    {
      "midi": 42,
      "hit": false,
      "t": 204482.2950000033,
      "d": 98.80369791667908,
      "v": 127
    },
    {
      "midi": 66,
      "hit": false,
      "t": 204702.88000000225,
      "d": 1748.595677083329,
      "v": 127
    },
    {
      "midi": 69,
      "hit": false,
      "t": 204702.88000000225,
      "d": 1748.595677083329,
      "v": 127
    },
    {
      "midi": 74,
      "hit": false,
      "t": 204702.88000000225,
      "d": 1748.595677083329,
      "v": 127
    },
    {
      "midi": 57,
      "hit": false,
      "t": 204702.88000000332,
      "d": 1298.2346354166802,
      "v": 85
    },
    {
      "midi": 49,
      "hit": false,
      "t": 204702.88000000332,
      "d": 1325.8077604166756,
      "v": 80
    },
    {
      "midi": 55,
      "hit": false,
      "t": 206467.56000000224,
      "d": 1755.4889583332697,
      "v": 127
    },
    {
      "midi": 53,
      "hit": false,
      "t": 206467.56000000334,
      "d": 43.657447916659294,
      "v": 57
    },
    {
      "midi": 51,
      "hit": false,
      "t": 206467.56000000334,
      "d": 147.05666666667094,
      "v": 57
    },
    {
      "midi": 59,
      "hit": false,
      "t": 206467.56000000334,
      "d": 170.03427083333372,
      "v": 57
    },
    {
      "midi": 62,
      "hit": false,
      "t": 206688.14500000223,
      "d": 222.88276041665813,
      "v": 127
    },
    {
      "midi": 71,
      "hit": false,
      "t": 206908.73000000222,
      "d": 220.58499999999185,
      "v": 127
    },
    {
      "midi": 62,
      "hit": false,
      "t": 207129.3150000022,
      "d": 236.6693229166558,
      "v": 127
    },
    {
      "midi": 69,
      "hit": false,
      "t": 207349.9000000022,
      "d": 220.58499999999185,
      "v": 127
    },
    {
      "midi": 62,
      "hit": false,
      "t": 207570.4850000022,
      "d": 234.37156249998952,
      "v": 127
    },
    {
      "midi": 67,
      "hit": false,
      "t": 207791.0700000022,
      "d": 236.6693229166558,
      "v": 127
    },
    {
      "midi": 62,
      "hit": false,
      "t": 208011.65500000218,
      "d": 220.58499999999185,
      "v": 127
    },
    {
      "midi": 52,
      "hit": false,
      "t": 208232.24000000217,
      "d": 1746.2979166666046,
      "v": 127
    },
    {
      "midi": 53,
      "hit": false,
      "t": 208232.24000000334,
      "d": 107.9947395833442,
      "v": 57
    },
    {
      "midi": 51,
      "hit": false,
      "t": 208232.24000000334,
      "d": 128.6745833333407,
      "v": 57
    },
    {
      "midi": 59,
      "hit": false,
      "t": 208232.24000000334,
      "d": 130.97234375000698,
      "v": 57
    },
    {
      "midi": 64,
      "hit": false,
      "t": 208452.82500000217,
      "d": 225.1805208333244,
      "v": 127
    },
    {
      "midi": 71,
      "hit": false,
      "t": 208673.41000000216,
      "d": 220.58499999999185,
      "v": 127
    },
    {
      "midi": 64,
      "hit": false,
      "t": 208893.99500000215,
      "d": 220.58499999999185,
      "v": 127
    },
    {
      "midi": 69,
      "hit": false,
      "t": 209114.58000000214,
      "d": 220.58499999999185,
      "v": 127
    },
    {
      "midi": 64,
      "hit": false,
      "t": 209335.16500000213,
      "d": 220.58499999999185,
      "v": 127
    },
    {
      "midi": 67,
      "hit": false,
      "t": 209555.75000000212,
      "d": 232.07380208332324,
      "v": 127
    },
    {
      "midi": 64,
      "hit": false,
      "t": 209776.33500000212,
      "d": 220.58499999999185,
      "v": 127
    },
    {
      "midi": 59,
      "hit": false,
      "t": 209996.9200000021,
      "d": 1739.4046354166057,
      "v": 127
    },
    {
      "midi": 53,
      "hit": false,
      "t": 209996.92000000333,
      "d": 107.9947395833442,
      "v": 57
    },
    {
      "midi": 51,
      "hit": false,
      "t": 209996.92000000333,
      "d": 110.29250000001048,
      "v": 57
    },
    {
      "midi": 59,
      "hit": false,
      "t": 209996.92000000333,
      "d": 117.18578125000931,
      "v": 57
    },
    {
      "midi": 63,
      "hit": false,
      "t": 210217.5050000021,
      "d": 220.58499999999185,
      "v": 127
    },
    {
      "midi": 69,
      "hit": false,
      "t": 210438.0900000021,
      "d": 220.58499999999185,
      "v": 127
    },
    {
      "midi": 63,
      "hit": false,
      "t": 210658.67500000208,
      "d": 220.58499999999185,
      "v": 127
    },
    {
      "midi": 67,
      "hit": false,
      "t": 210879.26000000208,
      "d": 227.4782812499907,
      "v": 127
    },
    {
      "midi": 63,
      "hit": false,
      "t": 211099.84500000207,
      "d": 220.58499999999185,
      "v": 127
    },
    {
      "midi": 66,
      "hit": false,
      "t": 211320.43000000206,
      "d": 220.58499999999185,
      "v": 127
    },
    {
      "midi": 63,
      "hit": false,
      "t": 211541.01500000205,
      "d": 330.8775000000023,
      "v": 127
    },
    {
      "midi": 60,
      "hit": false,
      "t": 211761.60000000204,
      "d": 1686.5561458333104,
      "v": 120
    },
    {
      "midi": 51,
      "hit": false,
      "t": 211761.60000000335,
      "d": 114.88802083334303,
      "v": 57
    },
    {
      "midi": 53,
      "hit": false,
      "t": 211761.60000000335,
      "d": 124.07906250000815,
      "v": 57
    },
    {
      "midi": 59,
      "hit": false,
      "t": 211761.60000000335,
      "d": 126.37682291667443,
      "v": 57
    },
    {
      "midi": 64,
      "hit": false,
      "t": 211982.18500000206,
      "d": 220.58499999999185,
      "v": 127
    },
    {
      "midi": 72,
      "hit": false,
      "t": 212202.77000000206,
      "d": 220.58499999999185,
      "v": 127
    },
    {
      "midi": 64,
      "hit": false,
      "t": 212423.35500000205,
      "d": 225.1805208333244,
      "v": 127
    },
    {
      "midi": 71,
      "hit": false,
      "t": 212643.94000000204,
      "d": 220.58499999999185,
      "v": 127
    },
    {
      "midi": 64,
      "hit": false,
      "t": 212864.52500000203,
      "d": 232.07380208332324,
      "v": 127
    },
    {
      "midi": 69,
      "hit": false,
      "t": 213085.11000000202,
      "d": 220.58499999999185,
      "v": 127
    },
    {
      "midi": 64,
      "hit": false,
      "t": 213305.69500000202,
      "d": 220.58499999999185,
      "v": 127
    },
    {
      "midi": 57,
      "hit": false,
      "t": 213526.280000002,
      "d": 1725.618072916608,
      "v": 127
    },
    {
      "midi": 51,
      "hit": false,
      "t": 213526.28000000337,
      "d": 98.80369791667908,
      "v": 57
    },
    {
      "midi": 59,
      "hit": false,
      "t": 213526.28000000337,
      "d": 98.80369791667908,
      "v": 57
    },
    {
      "midi": 53,
      "hit": false,
      "t": 213526.28000000337,
      "d": 107.9947395833442,
      "v": 57
    },
    {
      "midi": 64,
      "hit": false,
      "t": 213746.865000002,
      "d": 220.58499999999185,
      "v": 127
    },
    {
      "midi": 72,
      "hit": false,
      "t": 213967.450000002,
      "d": 257.3491666666523,
      "v": 127
    },
    {
      "midi": 64,
      "hit": false,
      "t": 214188.03500000198,
      "d": 236.6693229166558,
      "v": 127
    },
    {
      "midi": 71,
      "hit": false,
      "t": 214408.62000000197,
      "d": 213.69171874999302,
      "v": 127
    },
    {
      "midi": 64,
      "hit": false,
      "t": 214629.20500000197,
      "d": 213.69171874999302,
      "v": 127
    },
    {
      "midi": 69,
      "hit": false,
      "t": 214849.79000000196,
      "d": 213.69171874999302,
      "v": 127
    },
    {
      "midi": 64,
      "hit": false,
      "t": 215070.37500000195,
      "d": 220.58499999999185,
      "v": 127
    },
    {
      "midi": 50,
      "hit": false,
      "t": 215290.96000000194,
      "d": 1700.342708333279,
      "v": 127
    },
    {
      "midi": 53,
      "hit": false,
      "t": 215290.9600000034,
      "d": 89.61265625001397,
      "v": 57
    },
    {
      "midi": 51,
      "hit": false,
      "t": 215290.9600000034,
      "d": 103.39921875001164,
      "v": 57
    },
    {
      "midi": 59,
      "hit": false,
      "t": 215290.9600000034,
      "d": 124.07906250000815,
      "v": 57
    },
    {
      "midi": 62,
      "hit": false,
      "t": 215511.54500000193,
      "d": 211.39395833332674,
      "v": 127
    },
    {
      "midi": 69,
      "hit": false,
      "t": 215732.13000000193,
      "d": 195.3096354166628,
      "v": 127
    },
    {
      "midi": 62,
      "hit": false,
      "t": 215952.71500000192,
      "d": 252.75364583331975,
      "v": 127
    },
    {
      "midi": 67,
      "hit": false,
      "t": 216173.3000000019,
      "d": 197.60739583332906,
      "v": 127
    },
    {
      "midi": 62,
      "hit": false,
      "t": 216393.8850000019,
      "d": 232.07380208332324,
      "v": 127
    },
    {
      "midi": 66,
      "hit": false,
      "t": 216614.4700000019,
      "d": 206.79843749999418,
      "v": 127
    },
    {
      "midi": 62,
      "hit": false,
      "t": 216835.05500000188,
      "d": 220.58499999999185,
      "v": 127
    },
    {
      "midi": 71,
      "hit": false,
      "t": 217055.64000000188,
      "d": 163.14098958333489,
      "v": 127
    },
    {
      "midi": 74,
      "hit": false,
      "t": 217055.64000000188,
      "d": 165.43875000000116,
      "v": 127
    },
    {
      "midi": 79,
      "hit": false,
      "t": 217055.64000000188,
      "d": 165.43875000000116,
      "v": 127
    },
    {
      "midi": 55,
      "hit": false,
      "t": 217055.64000000188,
      "d": 1656.6852604166488,
      "v": 127
    },
    {
      "midi": 53,
      "hit": false,
      "t": 217055.64000000342,
      "d": 101.10145833334536,
      "v": 57
    },
    {
      "midi": 51,
      "hit": false,
      "t": 217055.64000000342,
      "d": 103.39921875001164,
      "v": 57
    },
    {
      "midi": 59,
      "hit": false,
      "t": 217055.64000000342,
      "d": 107.9947395833442,
      "v": 57
    },
    {
      "midi": 62,
      "hit": false,
      "t": 217276.22500000187,
      "d": 202.20291666669073,
      "v": 127
    },
    {
      "midi": 74,
      "hit": false,
      "t": 217386.51750000188,
      "d": 160.8432291666686,
      "v": 127
    },
    {
      "midi": 79,
      "hit": false,
      "t": 217386.51750000188,
      "d": 160.8432291666686,
      "v": 127
    },
    {
      "midi": 71,
      "hit": false,
      "t": 217496.8100000019,
      "d": 52.84848958332441,
      "v": 127
    },
    {
      "midi": 71,
      "hit": false,
      "t": 217717.39500000188,
      "d": 176.92755208333256,
      "v": 127
    },
    {
      "midi": 74,
      "hit": false,
      "t": 217717.39500000188,
      "d": 176.92755208333256,
      "v": 127
    },
    {
      "midi": 79,
      "hit": false,
      "t": 217717.39500000188,
      "d": 181.52307291666511,
      "v": 127
    },
    {
      "midi": 62,
      "hit": false,
      "t": 217717.39500000188,
      "d": 229.77604166665697,
      "v": 127
    },
    {
      "midi": 69,
      "hit": false,
      "t": 217937.98000000187,
      "d": 213.69171874999302,
      "v": 127
    },
    {
      "midi": 79,
      "hit": false,
      "t": 218158.56500000186,
      "d": 160.8432291666686,
      "v": 127
    },
    {
      "midi": 74,
      "hit": false,
      "t": 218158.56500000186,
      "d": 167.73651041666744,
      "v": 127
    },
    {
      "midi": 71,
      "hit": false,
      "t": 218158.56500000186,
      "d": 172.33203125,
      "v": 127
    },
    {
      "midi": 62,
      "hit": false,
      "t": 218158.56500000186,
      "d": 227.4782812499907,
      "v": 127
    },
    {
      "midi": 67,
      "hit": false,
      "t": 218379.15000000186,
      "d": 220.58499999999185,
      "v": 127
    },
    {
      "midi": 79,
      "hit": false,
      "t": 218599.73500000185,
      "d": 107.9947395833442,
      "v": 127
    },
    {
      "midi": 74,
      "hit": false,
      "t": 218599.73500000185,
      "d": 117.18578125000931,
      "v": 127
    },
    {
      "midi": 71,
      "hit": false,
      "t": 218599.73500000185,
      "d": 121.78130208334187,
      "v": 127
    },
    {
      "midi": 62,
      "hit": false,
      "t": 218599.73500000185,
      "d": 245.86036458335002,
      "v": 127
    },
    {
      "midi": 79,
      "hit": false,
      "t": 218820.32000000187,
      "d": 170.03427083333372,
      "v": 127
    },
    {
      "midi": 74,
      "hit": false,
      "t": 218820.32000000187,
      "d": 179.22531249999884,
      "v": 127
    },
    {
      "midi": 71,
      "hit": false,
      "t": 218820.32000000187,
      "d": 181.52307291666511,
      "v": 127
    },
    {
      "midi": 55,
      "hit": false,
      "t": 218820.32000000187,
      "d": 1700.342708333308,
      "v": 127
    },
    {
      "midi": 51,
      "hit": false,
      "t": 218820.32000000344,
      "d": 135.56786458333954,
      "v": 57
    },
    {
      "midi": 59,
      "hit": false,
      "t": 218820.32000000344,
      "d": 151.6521875000035,
      "v": 57
    },
    {
      "midi": 62,
      "hit": false,
      "t": 219040.90500000186,
      "d": 215.9894791666884,
      "v": 127
    },
    {
      "midi": 79,
      "hit": false,
      "t": 219151.19750000187,
      "d": 163.14098958333489,
      "v": 127
    },
    {
      "midi": 74,
      "hit": false,
      "t": 219151.19750000187,
      "d": 165.43875000000116,
      "v": 127
    },
    {
      "midi": 71,
      "hit": false,
      "t": 219261.49000000188,
      "d": 55.14624999999069,
      "v": 127
    },
    {
      "midi": 71,
      "hit": false,
      "t": 219482.07500000187,
      "d": 174.62979166666628,
      "v": 127
    },
    {
      "midi": 74,
      "hit": false,
      "t": 219482.07500000187,
      "d": 176.92755208333256,
      "v": 127
    },
    {
      "midi": 79,
      "hit": false,
      "t": 219482.07500000187,
      "d": 176.92755208333256,
      "v": 127
    },
    {
      "midi": 62,
      "hit": false,
      "t": 219482.07500000187,
      "d": 238.96708333332208,
      "v": 127
    },
    {
      "midi": 69,
      "hit": false,
      "t": 219702.66000000187,
      "d": 188.41635416666395,
      "v": 127
    },
    {
      "midi": 79,
      "hit": false,
      "t": 219923.24500000186,
      "d": 172.33203125,
      "v": 127
    },
    {
      "midi": 74,
      "hit": false,
      "t": 219923.24500000186,
      "d": 181.52307291666511,
      "v": 127
    },
    {
      "midi": 71,
      "hit": false,
      "t": 219923.24500000186,
      "d": 183.8208333333314,
      "v": 127
    },
    {
      "midi": 62,
      "hit": false,
      "t": 219923.24500000186,
      "d": 213.69171874999302,
      "v": 127
    },
    {
      "midi": 67,
      "hit": false,
      "t": 220143.83000000185,
      "d": 202.20291666666162,
      "v": 127
    },
    {
      "midi": 79,
      "hit": false,
      "t": 220364.41500000184,
      "d": 135.56786458333954,
      "v": 127
    },
    {
      "midi": 74,
      "hit": false,
      "t": 220364.41500000184,
      "d": 137.86562500000582,
      "v": 127
    },
    {
      "midi": 71,
      "hit": false,
      "t": 220364.41500000184,
      "d": 149.3544270833372,
      "v": 127
    },
    {
      "midi": 62,
      "hit": false,
      "t": 220364.41500000184,
      "d": 220.58499999999185,
      "v": 127
    },
    {
      "midi": 55,
      "hit": false,
      "t": 220585.00000000183,
      "d": 1755.4889583332697,
      "v": 127
    },
    {
      "midi": 53,
      "hit": false,
      "t": 220585.00000000343,
      "d": 43.657447916659294,
      "v": 57
    },
    {
      "midi": 51,
      "hit": false,
      "t": 220585.00000000343,
      "d": 147.05666666667094,
      "v": 57
    },
    {
      "midi": 59,
      "hit": false,
      "t": 220585.00000000343,
      "d": 170.03427083333372,
      "v": 57
    },
    {
      "midi": 41,
      "hit": false,
      "t": 220585.00000000343,
      "d": 1144.2846875000105,
      "v": 120
    },
    {
      "midi": 43,
      "hit": false,
      "t": 220585.00000000343,
      "d": 1144.2846875000105,
      "v": 112
    },
    {
      "midi": 49,
      "hit": false,
      "t": 220585.00000000343,
      "d": 1236.1951041666907,
      "v": 60
    },
    {
      "midi": 57,
      "hit": false,
      "t": 220585.00000000343,
      "d": 1245.3861458333558,
      "v": 64
    },
    {
      "midi": 62,
      "hit": false,
      "t": 220805.58500000183,
      "d": 222.88276041665813,
      "v": 127
    },
    {
      "midi": 71,
      "hit": false,
      "t": 221026.17000000182,
      "d": 220.58499999999185,
      "v": 127
    },
    {
      "midi": 62,
      "hit": false,
      "t": 221246.7550000018,
      "d": 236.6693229166558,
      "v": 127
    },
    {
      "midi": 69,
      "hit": false,
      "t": 221467.3400000018,
      "d": 220.58499999999185,
      "v": 127
    },
    {
      "midi": 62,
      "hit": false,
      "t": 221687.9250000018,
      "d": 234.37156249998952,
      "v": 127
    },
    {
      "midi": 67,
      "hit": false,
      "t": 221908.51000000178,
      "d": 236.6693229166558,
      "v": 127
    },
    {
      "midi": 62,
      "hit": false,
      "t": 222129.09500000178,
      "d": 220.58499999999185,
      "v": 127
    },
    {
      "midi": 52,
      "hit": false,
      "t": 222349.68000000177,
      "d": 1746.2979166666046,
      "v": 127
    },
    {
      "midi": 53,
      "hit": false,
      "t": 222349.68000000346,
      "d": 107.9947395833442,
      "v": 57
    },
    {
      "midi": 51,
      "hit": false,
      "t": 222349.68000000346,
      "d": 128.6745833333407,
      "v": 57
    },
    {
      "midi": 59,
      "hit": false,
      "t": 222349.68000000346,
      "d": 130.97234375000698,
      "v": 57
    },
    {
      "midi": 64,
      "hit": false,
      "t": 222570.26500000176,
      "d": 225.1805208333244,
      "v": 127
    },
    {
      "midi": 71,
      "hit": false,
      "t": 222790.85000000175,
      "d": 220.58499999999185,
      "v": 127
    },
    {
      "midi": 64,
      "hit": false,
      "t": 223011.43500000174,
      "d": 220.58499999999185,
      "v": 127
    },
    {
      "midi": 69,
      "hit": false,
      "t": 223232.02000000174,
      "d": 220.58499999999185,
      "v": 127
    },
    {
      "midi": 64,
      "hit": false,
      "t": 223452.60500000173,
      "d": 220.58499999999185,
      "v": 127
    },
    {
      "midi": 67,
      "hit": false,
      "t": 223673.19000000172,
      "d": 232.07380208332324,
      "v": 127
    },
    {
      "midi": 64,
      "hit": false,
      "t": 223893.7750000017,
      "d": 220.58499999999185,
      "v": 127
    },
    {
      "midi": 59,
      "hit": false,
      "t": 224114.3600000017,
      "d": 1739.4046354166057,
      "v": 127
    },
    {
      "midi": 53,
      "hit": false,
      "t": 224114.36000000345,
      "d": 107.9947395833442,
      "v": 57
    },
    {
      "midi": 51,
      "hit": false,
      "t": 224114.36000000345,
      "d": 110.29250000001048,
      "v": 57
    },
    {
      "midi": 59,
      "hit": false,
      "t": 224114.36000000345,
      "d": 117.18578125000931,
      "v": 57
    },
    {
      "midi": 63,
      "hit": false,
      "t": 224334.9450000017,
      "d": 220.58499999999185,
      "v": 127
    },
    {
      "midi": 69,
      "hit": false,
      "t": 224555.5300000017,
      "d": 220.58499999999185,
      "v": 127
    },
    {
      "midi": 63,
      "hit": false,
      "t": 224776.11500000168,
      "d": 220.58499999999185,
      "v": 127
    },
    {
      "midi": 67,
      "hit": false,
      "t": 224996.70000000167,
      "d": 227.4782812499907,
      "v": 127
    },
    {
      "midi": 63,
      "hit": false,
      "t": 225217.28500000166,
      "d": 220.58499999999185,
      "v": 127
    },
    {
      "midi": 66,
      "hit": false,
      "t": 225437.87000000165,
      "d": 220.58499999999185,
      "v": 127
    },
    {
      "midi": 63,
      "hit": false,
      "t": 225658.45500000165,
      "d": 330.8775000000023,
      "v": 127
    },
    {
      "midi": 60,
      "hit": false,
      "t": 225879.04000000164,
      "d": 1686.5561458333104,
      "v": 120
    },
    {
      "midi": 51,
      "hit": false,
      "t": 225879.04000000347,
      "d": 114.88802083334303,
      "v": 57
    },
    {
      "midi": 53,
      "hit": false,
      "t": 225879.04000000347,
      "d": 124.07906250000815,
      "v": 57
    },
    {
      "midi": 59,
      "hit": false,
      "t": 225879.04000000347,
      "d": 126.37682291667443,
      "v": 57
    },
    {
      "midi": 64,
      "hit": false,
      "t": 226099.62500000166,
      "d": 220.58499999999185,
      "v": 127
    },
    {
      "midi": 72,
      "hit": false,
      "t": 226320.21000000165,
      "d": 220.58499999999185,
      "v": 127
    },
    {
      "midi": 64,
      "hit": false,
      "t": 226540.79500000164,
      "d": 225.1805208333244,
      "v": 127
    },
    {
      "midi": 71,
      "hit": false,
      "t": 226761.38000000163,
      "d": 220.58499999999185,
      "v": 127
    },
    {
      "midi": 64,
      "hit": false,
      "t": 226981.96500000163,
      "d": 232.07380208332324,
      "v": 127
    },
    {
      "midi": 69,
      "hit": false,
      "t": 227202.55000000162,
      "d": 220.58499999999185,
      "v": 127
    },
    {
      "midi": 64,
      "hit": false,
      "t": 227423.1350000016,
      "d": 220.58499999999185,
      "v": 127
    },
    {
      "midi": 57,
      "hit": false,
      "t": 227643.7200000016,
      "d": 1725.618072916608,
      "v": 127
    },
    {
      "midi": 51,
      "hit": false,
      "t": 227643.7200000035,
      "d": 98.80369791667908,
      "v": 57
    },
    {
      "midi": 59,
      "hit": false,
      "t": 227643.7200000035,
      "d": 98.80369791667908,
      "v": 57
    },
    {
      "midi": 53,
      "hit": false,
      "t": 227643.7200000035,
      "d": 107.9947395833442,
      "v": 57
    },
    {
      "midi": 64,
      "hit": false,
      "t": 227864.3050000016,
      "d": 220.58499999999185,
      "v": 127
    },
    {
      "midi": 72,
      "hit": false,
      "t": 228084.8900000016,
      "d": 257.3491666666523,
      "v": 127
    },
    {
      "midi": 64,
      "hit": false,
      "t": 228305.47500000158,
      "d": 236.6693229166558,
      "v": 127
    },
    {
      "midi": 71,
      "hit": false,
      "t": 228526.06000000157,
      "d": 213.69171874999302,
      "v": 127
    },
    {
      "midi": 64,
      "hit": false,
      "t": 228746.64500000156,
      "d": 213.69171874999302,
      "v": 127
    },
    {
      "midi": 69,
      "hit": false,
      "t": 228967.23000000155,
      "d": 213.69171874999302,
      "v": 127
    },
    {
      "midi": 64,
      "hit": false,
      "t": 229187.81500000154,
      "d": 220.58499999999185,
      "v": 127
    },
    {
      "midi": 50,
      "hit": false,
      "t": 229408.40000000154,
      "d": 1700.342708333279,
      "v": 127
    },
    {
      "midi": 53,
      "hit": false,
      "t": 229408.40000000352,
      "d": 89.61265625001397,
      "v": 57
    },
    {
      "midi": 51,
      "hit": false,
      "t": 229408.40000000352,
      "d": 103.39921875001164,
      "v": 57
    },
    {
      "midi": 59,
      "hit": false,
      "t": 229408.40000000352,
      "d": 124.07906250000815,
      "v": 57
    },
    {
      "midi": 62,
      "hit": false,
      "t": 229628.98500000153,
      "d": 211.39395833332674,
      "v": 127
    },
    {
      "midi": 69,
      "hit": false,
      "t": 229849.57000000152,
      "d": 195.3096354166628,
      "v": 127
    },
    {
      "midi": 62,
      "hit": false,
      "t": 230070.1550000015,
      "d": 252.75364583331975,
      "v": 127
    },
    {
      "midi": 67,
      "hit": false,
      "t": 230290.7400000015,
      "d": 197.60739583332906,
      "v": 127
    },
    {
      "midi": 62,
      "hit": false,
      "t": 230511.3250000015,
      "d": 232.07380208332324,
      "v": 127
    },
    {
      "midi": 66,
      "hit": false,
      "t": 230731.9100000015,
      "d": 206.79843749999418,
      "v": 127
    },
    {
      "midi": 62,
      "hit": false,
      "t": 230952.49500000148,
      "d": 220.58499999999185,
      "v": 127
    },
    {
      "midi": 55,
      "hit": false,
      "t": 231173.08000000147,
      "d": 1656.6852604166197,
      "v": 127
    },
    {
      "midi": 53,
      "hit": false,
      "t": 231173.08000000354,
      "d": 101.10145833334536,
      "v": 57
    },
    {
      "midi": 51,
      "hit": false,
      "t": 231173.08000000354,
      "d": 103.39921875001164,
      "v": 57
    },
    {
      "midi": 59,
      "hit": false,
      "t": 231173.08000000354,
      "d": 107.9947395833442,
      "v": 57
    },
    {
      "midi": 62,
      "hit": false,
      "t": 231393.66500000146,
      "d": 202.20291666666162,
      "v": 127
    },
    {
      "midi": 71,
      "hit": false,
      "t": 231614.25000000146,
      "d": 197.60739583332906,
      "v": 127
    },
    {
      "midi": 62,
      "hit": false,
      "t": 231834.83500000145,
      "d": 229.77604166665697,
      "v": 127
    },
    {
      "midi": 69,
      "hit": false,
      "t": 232055.42000000144,
      "d": 213.69171874999302,
      "v": 127
    },
    {
      "midi": 62,
      "hit": false,
      "t": 232276.00500000143,
      "d": 227.4782812499907,
      "v": 127
    },
    {
      "midi": 67,
      "hit": false,
      "t": 232496.59000000142,
      "d": 220.58499999999185,
      "v": 127
    },
    {
      "midi": 62,
      "hit": false,
      "t": 232717.1750000014,
      "d": 245.86036458335002,
      "v": 127
    },
    {
      "midi": 43,
      "hit": false,
      "t": 232717.17500000354,
      "d": 1038.5877083333326,
      "v": 82
    },
    {
      "midi": 41,
      "hit": false,
      "t": 232717.17500000354,
      "d": 1050.076510416664,
      "v": 82
    },
    {
      "midi": 55,
      "hit": false,
      "t": 232937.76000000144,
      "d": 1700.342708333279,
      "v": 127
    },
    {
      "midi": 51,
      "hit": false,
      "t": 232937.76000000353,
      "d": 135.56786458333954,
      "v": 57
    },
    {
      "midi": 59,
      "hit": false,
      "t": 232937.76000000353,
      "d": 151.6521875000035,
      "v": 57
    },
    {
      "midi": 52,
      "hit": false,
      "t": 232937.76000000353,
      "d": 296.41109375000815,
      "v": 127
    },
    {
      "midi": 62,
      "hit": false,
      "t": 233158.34500000143,
      "d": 215.9894791666593,
      "v": 127
    },
    {
      "midi": 71,
      "hit": false,
      "t": 233378.93000000142,
      "d": 186.11859374999767,
      "v": 127
    },
    {
      "midi": 62,
      "hit": false,
      "t": 233599.5150000014,
      "d": 238.96708333332208,
      "v": 127
    },
    {
      "midi": 69,
      "hit": false,
      "t": 233820.1000000014,
      "d": 188.41635416666395,
      "v": 127
    },
    {
      "midi": 62,
      "hit": false,
      "t": 234040.6850000014,
      "d": 213.69171874999302,
      "v": 127
    },
    {
      "midi": 67,
      "hit": false,
      "t": 234261.2700000014,
      "d": 202.20291666666162,
      "v": 127
    },
    {
      "midi": 62,
      "hit": false,
      "t": 234481.85500000138,
      "d": 220.58499999999185,
      "v": 127
    },
    {
      "midi": 51,
      "hit": false,
      "t": 234702.44000000352,
      "d": 52.84848958332441,
      "v": 127
    },
    {
      "midi": 59,
      "hit": false,
      "t": 234702.44000000352,
      "d": 64.3372916666558,
      "v": 127
    }
  ]
}