{
  "jsonPath": "Rock/Album Rock/Survivor/eye-of-the-tiger.json",
  "path": "Rock\\Album Rock\\Survivor\\Eye Of The Tiger.mid",
  "name": "Eye Of The Tiger",
  "difficulty": "Advanced",
  "bpm": 114.00450317787552,
  "notes": [
    {
      "midi": 48,
      "hit": false,
      "t": 50524.32,
      "d": 1925.3625416666619,
      "v": 91
    },
    {
      "midi": 51,
      "hit": false,
      "t": 50529.80223958333,
      "d": 1925.3625416666619,
      "v": 86
    },
    {
      "midi": 55,
      "hit": false,
      "t": 50535.284479166665,
      "d": 1925.3625416666619,
      "v": 89
    },
    {
      "midi": 58,
      "hit": false,
      "t": 50540.76671875,
      "d": 1925.3625416666619,
      "v": 89
    },
    {
      "midi": 62,
      "hit": false,
      "t": 50546.24895833333,
      "d": 1925.3625416666619,
      "v": 82
    },
    {
      "midi": 44,
      "hit": false,
      "t": 52629.49999999999,
      "d": 1925.3625416666619,
      "v": 91
    },
    {
      "midi": 51,
      "hit": false,
      "t": 52634.982239583325,
      "d": 1925.3625416666619,
      "v": 89
    },
    {
      "midi": 55,
      "hit": false,
      "t": 52640.46447916666,
      "d": 1925.3625416666619,
      "v": 86
    },
    {
      "midi": 60,
      "hit": false,
      "t": 52645.94671874999,
      "d": 1925.3625416666619,
      "v": 92
    },
    {
      "midi": 63,
      "hit": false,
      "t": 52651.42895833332,
      "d": 1925.3625416666619,
      "v": 88
    },
    {
      "midi": 46,
      "hit": false,
      "t": 54734.679999999986,
      "d": 1925.3625416666619,
      "v": 87
    },
    {
      "midi": 53,
      "hit": false,
      "t": 54740.16223958332,
      "d": 1925.3625416666619,
      "v": 90
    },
    {
      "midi": 58,
      "hit": false,
      "t": 54745.64447916665,
      "d": 1925.3625416666619,
      "v": 86
    },
    {
      "midi": 62,
      "hit": false,
      "t": 54751.12671874998,
      "d": 1925.3625416666619,
      "v": 93
    },
    {
      "midi": 65,
      "hit": false,
      "t": 54756.608958333316,
      "d": 1925.3625416666619,
      "v": 88
    },
    {
      "midi": 48,
      "hit": false,
      "t": 56839.85999999998,
      "d": 1925.3625416666619,
      "v": 88
    },
    {
      "midi": 55,
      "hit": false,
      "t": 56845.34223958331,
      "d": 1925.3625416666619,
      "v": 87
    },
    {
      "midi": 60,
      "hit": false,
      "t": 56850.824479166644,
      "d": 1925.3625416666619,
      "v": 84
    },
    {
      "midi": 63,
      "hit": false,
      "t": 56856.30671874998,
      "d": 1925.3625416666619,
      "v": 91
    },
    {
      "midi": 67,
      "hit": false,
      "t": 56861.78895833331,
      "d": 1925.3625416666619,
      "v": 82
    },
    {
      "midi": 48,
      "hit": false,
      "t": 58945.03999999997,
      "d": 1925.3625416666619,
      "v": 92
    },
    {
      "midi": 55,
      "hit": false,
      "t": 58950.522239583304,
      "d": 1925.3625416666619,
      "v": 87
    },
    {
      "midi": 60,
      "hit": false,
      "t": 58956.00447916664,
      "d": 1925.3625416666619,
      "v": 92
    },
    {
      "midi": 63,
      "hit": false,
      "t": 58961.48671874997,
      "d": 1925.3625416666619,
      "v": 94
    },
    {
      "midi": 67,
      "hit": false,
      "t": 58966.9689583333,
      "d": 1925.3625416666619,
      "v": 88
    },
    {
      "midi": 44,
      "hit": false,
      "t": 61050.219999999965,
      "d": 1925.3625416666619,
      "v": 90
    },
    {
      "midi": 56,
      "hit": false,
      "t": 61055.7022395833,
      "d": 1925.3625416666619,
      "v": 86
    },
    {
      "midi": 60,
      "hit": false,
      "t": 61061.18447916663,
      "d": 1925.3625416666619,
      "v": 91
    },
    {
      "midi": 63,
      "hit": false,
      "t": 61066.66671874996,
      "d": 1925.3625416666619,
      "v": 89
    },
    {
      "midi": 67,
      "hit": false,
      "t": 61072.148958333295,
      "d": 1925.3625416666619,
      "v": 85
    },
    {
      "midi": 46,
      "hit": false,
      "t": 63155.39999999996,
      "d": 1925.3625416666619,
      "v": 87
    },
    {
      "midi": 53,
      "hit": false,
      "t": 63160.88223958329,
      "d": 1925.3625416666619,
      "v": 91
    },
    {
      "midi": 58,
      "hit": false,
      "t": 63166.36447916662,
      "d": 1925.3625416666619,
      "v": 88
    },
    {
      "midi": 62,
      "hit": false,
      "t": 63171.846718749955,
      "d": 1925.3625416666619,
      "v": 89
    },
    {
      "midi": 65,
      "hit": false,
      "t": 63177.32895833329,
      "d": 1925.3625416666619,
      "v": 85
    },
    {
      "midi": 48,
      "hit": false,
      "t": 65260.57999999995,
      "d": 1925.3625416666691,
      "v": 87
    },
    {
      "midi": 55,
      "hit": false,
      "t": 65266.06223958328,
      "d": 1925.3625416666691,
      "v": 87
    },
    {
      "midi": 60,
      "hit": false,
      "t": 65271.544479166616,
      "d": 1925.3625416666691,
      "v": 86
    },
    {
      "midi": 63,
      "hit": false,
      "t": 65277.02671874995,
      "d": 1925.3625416666691,
      "v": 94
    },
    {
      "midi": 67,
      "hit": false,
      "t": 65282.50895833328,
      "d": 1925.3625416666691,
      "v": 83
    },
    {
      "midi": 48,
      "hit": false,
      "t": 67365.75999999995,
      "d": 1925.3625416666619,
      "v": 89
    },
    {
      "midi": 55,
      "hit": false,
      "t": 67371.24223958328,
      "d": 1925.3625416666619,
      "v": 90
    },
    {
      "midi": 60,
      "hit": false,
      "t": 67376.72447916662,
      "d": 1925.3625416666619,
      "v": 88
    },
    {
      "midi": 63,
      "hit": false,
      "t": 67382.20671874995,
      "d": 1925.3625416666619,
      "v": 89
    },
    {
      "midi": 67,
      "hit": false,
      "t": 67387.68895833328,
      "d": 1925.3625416666619,
      "v": 82
    },
    {
      "midi": 44,
      "hit": false,
      "t": 69470.93999999994,
      "d": 1925.3625416666619,
      "v": 93
    },
    {
      "midi": 51,
      "hit": false,
      "t": 69476.42223958328,
      "d": 1925.3625416666619,
      "v": 84
    },
    {
      "midi": 56,
      "hit": false,
      "t": 69481.90447916661,
      "d": 1925.3625416666619,
      "v": 86
    },
    {
      "midi": 60,
      "hit": false,
      "t": 69487.38671874994,
      "d": 1925.3625416666619,
      "v": 87
    },
    {
      "midi": 63,
      "hit": false,
      "t": 69492.86895833327,
      "d": 1925.3625416666619,
      "v": 89
    },
    {
      "midi": 46,
      "hit": false,
      "t": 71576.11999999994,
      "d": 1925.3625416666619,
      "v": 89
    },
    {
      "midi": 53,
      "hit": false,
      "t": 71581.60223958327,
      "d": 1925.3625416666619,
      "v": 87
    },
    {
      "midi": 58,
      "hit": false,
      "t": 71587.0844791666,
      "d": 1925.3625416666619,
      "v": 91
    },
    {
      "midi": 62,
      "hit": false,
      "t": 71592.56671874993,
      "d": 1925.3625416666619,
      "v": 87
    },
    {
      "midi": 65,
      "hit": false,
      "t": 71598.04895833327,
      "d": 1925.3625416666619,
      "v": 85
    },
    {
      "midi": 48,
      "hit": false,
      "t": 73681.29999999993,
      "d": 1925.3625416666619,
      "v": 87
    },
    {
      "midi": 55,
      "hit": false,
      "t": 73686.78223958326,
      "d": 1925.3625416666619,
      "v": 86
    },
    {
      "midi": 60,
      "hit": false,
      "t": 73692.2644791666,
      "d": 1925.3625416666619,
      "v": 88
    },
    {
      "midi": 63,
      "hit": false,
      "t": 73697.74671874993,
      "d": 1925.3625416666619,
      "v": 94
    },
    {
      "midi": 67,
      "hit": false,
      "t": 73703.22895833326,
      "d": 1925.3625416666619,
      "v": 89
    },
    {
      "midi": 48,
      "hit": false,
      "t": 75786.47999999992,
      "d": 1925.3625416666619,
      "v": 92
    },
    {
      "midi": 55,
      "hit": false,
      "t": 75791.96223958326,
      "d": 1925.3625416666619,
      "v": 87
    },
    {
      "midi": 60,
      "hit": false,
      "t": 75797.44447916659,
      "d": 1925.3625416666619,
      "v": 89
    },
    {
      "midi": 63,
      "hit": false,
      "t": 75802.92671874992,
      "d": 1925.3625416666619,
      "v": 90
    },
    {
      "midi": 67,
      "hit": false,
      "t": 75808.40895833325,
      "d": 1925.3625416666619,
      "v": 88
    },
    {
      "midi": 44,
      "hit": false,
      "t": 77891.65999999992,
      "d": 1925.3625416666619,
      "v": 87
    },
    {
      "midi": 51,
      "hit": false,
      "t": 77897.14223958325,
      "d": 1925.3625416666619,
      "v": 89
    },
    {
      "midi": 56,
      "hit": false,
      "t": 77902.62447916658,
      "d": 1925.3625416666619,
      "v": 90
    },
    {
      "midi": 60,
      "hit": false,
      "t": 77908.10671874991,
      "d": 1925.3625416666619,
      "v": 89
    },
    {
      "midi": 63,
      "hit": false,
      "t": 77913.58895833325,
      "d": 1925.3625416666619,
      "v": 88
    },
    {
      "midi": 46,
      "hit": false,
      "t": 79996.83999999991,
      "d": 1925.3625416666619,
      "v": 90
    },
    {
      "midi": 53,
      "hit": false,
      "t": 80002.32223958324,
      "d": 1925.3625416666619,
      "v": 91
    },
    {
      "midi": 58,
      "hit": false,
      "t": 80007.80447916657,
      "d": 1925.3625416666619,
      "v": 87
    },
    {
      "midi": 62,
      "hit": false,
      "t": 80013.2867187499,
      "d": 1925.3625416666619,
      "v": 92
    },
    {
      "midi": 65,
      "hit": false,
      "t": 80018.76895833324,
      "d": 1925.3625416666619,
      "v": 84
    },
    {
      "midi": 48,
      "hit": false,
      "t": 82102.0199999999,
      "d": 1185.2601979166648,
      "v": 92
    },
    {
      "midi": 55,
      "hit": false,
      "t": 82107.50223958323,
      "d": 1185.2601979166648,
      "v": 86
    },
    {
      "midi": 60,
      "hit": false,
      "t": 82112.98447916657,
      "d": 1185.2601979166648,
      "v": 90
    },
    {
      "midi": 63,
      "hit": false,
      "t": 82118.4667187499,
      "d": 1185.2601979166648,
      "v": 93
    },
    {
      "midi": 67,
      "hit": false,
      "t": 82123.94895833323,
      "d": 1185.2601979166648,
      "v": 84
    },
    {
      "midi": 46,
      "hit": false,
      "t": 83417.75749999989,
      "d": 291.65514583332697,
      "v": 102
    },
    {
      "midi": 53,
      "hit": false,
      "t": 83417.75749999989,
      "d": 291.65514583332697,
      "v": 99
    },
    {
      "midi": 62,
      "hit": false,
      "t": 83417.75749999989,
      "d": 291.65514583332697,
      "v": 102
    },
    {
      "midi": 58,
      "hit": false,
      "t": 83419.95039583322,
      "d": 291.65514583332697,
      "v": 97
    },
    {
      "midi": 65,
      "hit": false,
      "t": 83423.23973958322,
      "d": 291.65514583332697,
      "v": 94
    },
    {
      "midi": 48,
      "hit": false,
      "t": 83812.47874999988,
      "d": 291.65514583332697,
      "v": 89
    },
    {
      "midi": 55,
      "hit": false,
      "t": 83812.47874999988,
      "d": 291.65514583332697,
      "v": 85
    },
    {
      "midi": 63,
      "hit": false,
      "t": 83812.47874999988,
      "d": 291.65514583332697,
      "v": 89
    },
    {
      "midi": 60,
      "hit": false,
      "t": 83814.67164583321,
      "d": 291.65514583332697,
      "v": 84
    },
    {
      "midi": 67,
      "hit": false,
      "t": 83817.96098958321,
      "d": 291.65514583332697,
      "v": 84
    },
    {
      "midi": 41,
      "hit": false,
      "t": 84207.19999999987,
      "d": 1925.3625416666619,
      "v": 97
    },
    {
      "midi": 53,
      "hit": false,
      "t": 84212.6822395832,
      "d": 1925.3625416666619,
      "v": 94
    },
    {
      "midi": 60,
      "hit": false,
      "t": 84218.16447916653,
      "d": 1925.3625416666619,
      "v": 92
    },
    {
      "midi": 63,
      "hit": false,
      "t": 84223.64671874986,
      "d": 1925.3625416666619,
      "v": 93
    },
    {
      "midi": 68,
      "hit": false,
      "t": 84229.1289583332,
      "d": 1925.3625416666619,
      "v": 90
    },
    {
      "midi": 43,
      "hit": false,
      "t": 86312.37999999986,
      "d": 979.1279895833286,
      "v": 96
    },
    {
      "midi": 51,
      "hit": false,
      "t": 86317.86223958319,
      "d": 979.1279895833286,
      "v": 91
    },
    {
      "midi": 58,
      "hit": false,
      "t": 86323.34447916652,
      "d": 979.1279895833286,
      "v": 95
    },
    {
      "midi": 63,
      "hit": false,
      "t": 86328.82671874986,
      "d": 979.1279895833286,
      "v": 92
    },
    {
      "midi": 67,
      "hit": false,
      "t": 86334.30895833319,
      "d": 979.1279895833286,
      "v": 89
    },
    {
      "midi": 46,
      "hit": false,
      "t": 87364.96999999986,
      "d": 189.68548958332394,
      "v": 93
    },
    {
      "midi": 58,
      "hit": false,
      "t": 87370.45223958319,
      "d": 189.68548958332394,
      "v": 89
    },
    {
      "midi": 62,
      "hit": false,
      "t": 87375.93447916652,
      "d": 189.68548958332394,
      "v": 91
    },
    {
      "midi": 65,
      "hit": false,
      "t": 87381.41671874985,
      "d": 189.68548958332394,
      "v": 94
    },
    {
      "midi": 70,
      "hit": false,
      "t": 87386.89895833319,
      "d": 189.68548958332394,
      "v": 93
    },
    {
      "midi": 46,
      "hit": false,
      "t": 87628.11749999985,
      "d": 359.6349166666623,
      "v": 102
    },
    {
      "midi": 58,
      "hit": false,
      "t": 87628.11749999985,
      "d": 359.6349166666623,
      "v": 101
    },
    {
      "midi": 65,
      "hit": false,
      "t": 87628.11749999985,
      "d": 359.6349166666623,
      "v": 100
    },
    {
      "midi": 62,
      "hit": false,
      "t": 87630.31039583318,
      "d": 359.6349166666623,
      "v": 103
    },
    {
      "midi": 70,
      "hit": false,
      "t": 87633.59973958318,
      "d": 359.6349166666623,
      "v": 100
    },
    {
      "midi": 48,
      "hit": false,
      "t": 88022.83874999984,
      "d": 351.95978124999965,
      "v": 96
    },
    {
      "midi": 60,
      "hit": false,
      "t": 88022.83874999984,
      "d": 351.95978124999965,
      "v": 88
    },
    {
      "midi": 67,
      "hit": false,
      "t": 88022.83874999984,
      "d": 351.95978124999965,
      "v": 93
    },
    {
      "midi": 63,
      "hit": false,
      "t": 88025.03164583317,
      "d": 351.95978124999965,
      "v": 91
    },
    {
      "midi": 72,
      "hit": false,
      "t": 88028.32098958317,
      "d": 351.95978124999965,
      "v": 90
    },
    {
      "midi": 41,
      "hit": false,
      "t": 88417.55999999984,
      "d": 1925.3625416666619,
      "v": 94
    },
    {
      "midi": 53,
      "hit": false,
      "t": 88423.04223958317,
      "d": 1925.3625416666619,
      "v": 90
    },
    {
      "midi": 60,
      "hit": false,
      "t": 88428.5244791665,
      "d": 1925.3625416666619,
      "v": 94
    },
    {
      "midi": 63,
      "hit": false,
      "t": 88434.00671874984,
      "d": 1925.3625416666619,
      "v": 93
    },
    {
      "midi": 68,
      "hit": false,
      "t": 88439.48895833317,
      "d": 1925.3625416666619,
      "v": 88
    },
    {
      "midi": 43,
      "hit": false,
      "t": 90522.73999999983,
      "d": 452.83298958333035,
      "v": 91
    },
    {
      "midi": 51,
      "hit": false,
      "t": 90528.22223958316,
      "d": 452.83298958333035,
      "v": 95
    },
    {
      "midi": 58,
      "hit": false,
      "t": 90533.7044791665,
      "d": 452.83298958333035,
      "v": 89
    },
    {
      "midi": 63,
      "hit": false,
      "t": 90539.18671874983,
      "d": 452.83298958333035,
      "v": 95
    },
    {
      "midi": 67,
      "hit": false,
      "t": 90544.66895833316,
      "d": 452.83298958333035,
      "v": 92
    },
    {
      "midi": 46,
      "hit": false,
      "t": 91049.03499999983,
      "d": 556.9955416666635,
      "v": 90
    },
    {
      "midi": 58,
      "hit": false,
      "t": 91054.51723958316,
      "d": 549.3204062500008,
      "v": 94
    },
    {
      "midi": 62,
      "hit": false,
      "t": 91059.9994791665,
      "d": 546.0310624999984,
      "v": 88
    },
    {
      "midi": 65,
      "hit": false,
      "t": 91065.48171874983,
      "d": 538.3559270833357,
      "v": 94
    },
    {
      "midi": 70,
      "hit": false,
      "t": 91070.96395833316,
      "d": 538.3559270833357,
      "v": 90
    },
    {
      "midi": 46,
      "hit": false,
      "t": 91838.47749999983,
      "d": 291.65514583332697,
      "v": 100
    },
    {
      "midi": 58,
      "hit": false,
      "t": 91838.47749999983,
      "d": 291.65514583332697,
      "v": 104
    },
    {
      "midi": 65,
      "hit": false,
      "t": 91838.47749999983,
      "d": 291.65514583332697,
      "v": 100
    },
    {
      "midi": 62,
      "hit": false,
      "t": 91840.67039583316,
      "d": 291.65514583332697,
      "v": 99
    },
    {
      "midi": 70,
      "hit": false,
      "t": 91843.95973958317,
      "d": 291.65514583332697,
      "v": 101
    },
    {
      "midi": 48,
      "hit": false,
      "t": 92233.19874999982,
      "d": 351.95978124999965,
      "v": 97
    },
    {
      "midi": 60,
      "hit": false,
      "t": 92233.19874999982,
      "d": 351.95978124999965,
      "v": 94
    },
    {
      "midi": 67,
      "hit": false,
      "t": 92233.19874999982,
      "d": 351.95978124999965,
      "v": 99
    },
    {
      "midi": 63,
      "hit": false,
      "t": 92235.39164583315,
      "d": 351.95978124999965,
      "v": 88
    },
    {
      "midi": 72,
      "hit": false,
      "t": 92238.68098958315,
      "d": 351.95978124999965,
      "v": 88
    },
    {
      "midi": 41,
      "hit": false,
      "t": 92627.91999999982,
      "d": 1925.3625416666619,
      "v": 95
    },
    {
      "midi": 53,
      "hit": false,
      "t": 92633.40223958316,
      "d": 1925.3625416666619,
      "v": 91
    },
    {
      "midi": 60,
      "hit": false,
      "t": 92638.88447916649,
      "d": 1925.3625416666619,
      "v": 90
    },
    {
      "midi": 63,
      "hit": false,
      "t": 92644.36671874982,
      "d": 1925.3625416666619,
      "v": 96
    },
    {
      "midi": 68,
      "hit": false,
      "t": 92649.84895833315,
      "d": 1925.3625416666619,
      "v": 93
    },
    {
      "midi": 43,
      "hit": false,
      "t": 94733.09999999982,
      "d": 979.1279895833286,
      "v": 90
    },
    {
      "midi": 51,
      "hit": false,
      "t": 94738.58223958315,
      "d": 979.1279895833286,
      "v": 93
    },
    {
      "midi": 58,
      "hit": false,
      "t": 94744.06447916648,
      "d": 979.1279895833286,
      "v": 91
    },
    {
      "midi": 63,
      "hit": false,
      "t": 94749.54671874981,
      "d": 979.1279895833286,
      "v": 95
    },
    {
      "midi": 67,
      "hit": false,
      "t": 94755.02895833315,
      "d": 979.1279895833286,
      "v": 93
    },
    {
      "midi": 46,
      "hit": false,
      "t": 95785.68999999981,
      "d": 979.1279895833286,
      "v": 97
    },
    {
      "midi": 58,
      "hit": false,
      "t": 95791.17223958315,
      "d": 979.1279895833286,
      "v": 89
    },
    {
      "midi": 62,
      "hit": false,
      "t": 95796.65447916648,
      "d": 979.1279895833286,
      "v": 93
    },
    {
      "midi": 65,
      "hit": false,
      "t": 95802.13671874981,
      "d": 979.1279895833286,
      "v": 95
    },
    {
      "midi": 70,
      "hit": false,
      "t": 95807.61895833314,
      "d": 979.1279895833286,
      "v": 93
    },
    {
      "midi": 53,
      "hit": false,
      "t": 96838.27999999981,
      "d": 351.95978124999965,
      "v": 114
    },
    {
      "midi": 65,
      "hit": false,
      "t": 96838.27999999981,
      "d": 351.95978124999965,
      "v": 116
    },
    {
      "midi": 52,
      "hit": false,
      "t": 97202.30070833315,
      "d": 337.7059583333321,
      "v": 95
    },
    {
      "midi": 64,
      "hit": false,
      "t": 97202.30070833315,
      "d": 337.7059583333321,
      "v": 93
    },
    {
      "midi": 53,
      "hit": false,
      "t": 97553.16404166647,
      "d": 302.61962500000664,
      "v": 109
    },
    {
      "midi": 65,
      "hit": false,
      "t": 97553.16404166647,
      "d": 302.61962500000664,
      "v": 114
    },
    {
      "midi": 55,
      "hit": false,
      "t": 97868.94104166648,
      "d": 365.1171562499949,
      "v": 108
    },
    {
      "midi": 67,
      "hit": false,
      "t": 97868.94104166648,
      "d": 365.1171562499949,
      "v": 111
    },
    {
      "midi": 53,
      "hit": false,
      "t": 98247.21557291647,
      "d": 359.6349166666623,
      "v": 108
    },
    {
      "midi": 65,
      "hit": false,
      "t": 98247.21557291647,
      "d": 359.6349166666623,
      "v": 114
    },
    {
      "midi": 55,
      "hit": false,
      "t": 98620.00786458312,
      "d": 291.65514583332697,
      "v": 111
    },
    {
      "midi": 67,
      "hit": false,
      "t": 98620.00786458312,
      "d": 291.65514583332697,
      "v": 112
    },
    {
      "midi": 44,
      "hit": false,
      "t": 98943.45999999979,
      "d": 1141.4022812499898,
      "v": 91
    },
    {
      "midi": 56,
      "hit": false,
      "t": 98948.94223958312,
      "d": 1141.4022812499898,
      "v": 88
    },
    {
      "midi": 60,
      "hit": false,
      "t": 98954.42447916645,
      "d": 1141.4022812499898,
      "v": 91
    },
    {
      "midi": 63,
      "hit": false,
      "t": 98959.90671874979,
      "d": 1141.4022812499898,
      "v": 98
    },
    {
      "midi": 68,
      "hit": false,
      "t": 98965.38895833312,
      "d": 1141.4022812499898,
      "v": 88
    },
    {
      "midi": 48,
      "hit": false,
      "t": 105258.99999999977,
      "d": 1925.3625416666619,
      "v": 100
    },
    {
      "midi": 55,
      "hit": false,
      "t": 105264.4822395831,
      "d": 1925.3625416666619,
      "v": 99
    },
    {
      "midi": 60,
      "hit": false,
      "t": 105269.96447916643,
      "d": 1925.3625416666619,
      "v": 92
    },
    {
      "midi": 63,
      "hit": false,
      "t": 105275.44671874976,
      "d": 1925.3625416666619,
      "v": 96
    },
    {
      "midi": 67,
      "hit": false,
      "t": 105280.9289583331,
      "d": 1925.3625416666619,
      "v": 89
    },
    {
      "midi": 44,
      "hit": false,
      "t": 107364.17999999976,
      "d": 1925.3625416666619,
      "v": 97
    },
    {
      "midi": 56,
      "hit": false,
      "t": 107369.6622395831,
      "d": 1925.3625416666619,
      "v": 92
    },
    {
      "midi": 63,
      "hit": false,
      "t": 107375.14447916643,
      "d": 1925.3625416666619,
      "v": 92
    },
    {
      "midi": 67,
      "hit": false,
      "t": 107380.62671874976,
      "d": 1291.615645833328,
      "v": 95
    },
    {
      "midi": 72,
      "hit": false,
      "t": 107386.10895833309,
      "d": 1267.4937916666677,
      "v": 97
    },
    {
      "midi": 67,
      "hit": false,
      "t": 108679.91749999975,
      "d": 626.0717604166712,
      "v": 107
    },
    {
      "midi": 72,
      "hit": false,
      "t": 108679.91749999975,
      "d": 702.8231145833415,
      "v": 108
    },
    {
      "midi": 75,
      "hit": false,
      "t": 108679.91749999975,
      "d": 702.8231145833415,
      "v": 106
    },
    {
      "midi": 46,
      "hit": false,
      "t": 109469.35999999975,
      "d": 1925.3625416666619,
      "v": 100
    },
    {
      "midi": 58,
      "hit": false,
      "t": 109474.84223958309,
      "d": 1925.3625416666619,
      "v": 91
    },
    {
      "midi": 65,
      "hit": false,
      "t": 109480.32447916642,
      "d": 1925.3625416666619,
      "v": 96
    },
    {
      "midi": 70,
      "hit": false,
      "t": 109485.80671874975,
      "d": 1925.3625416666619,
      "v": 96
    },
    {
      "midi": 74,
      "hit": false,
      "t": 109491.28895833308,
      "d": 1925.3625416666619,
      "v": 90
    },
    {
      "midi": 48,
      "hit": false,
      "t": 111574.53999999975,
      "d": 1530.6412916666595,
      "v": 96
    },
    {
      "midi": 60,
      "hit": false,
      "t": 111580.02223958308,
      "d": 1530.6412916666595,
      "v": 92
    },
    {
      "midi": 63,
      "hit": false,
      "t": 111585.50447916641,
      "d": 1530.6412916666595,
      "v": 95
    },
    {
      "midi": 67,
      "hit": false,
      "t": 111590.98671874974,
      "d": 1530.6412916666595,
      "v": 97
    },
    {
      "midi": 72,
      "hit": false,
      "t": 111596.46895833308,
      "d": 1530.6412916666595,
      "v": 89
    },
    {
      "midi": 53,
      "hit": false,
      "t": 113284.99874999974,
      "d": 362.92426041666477,
      "v": 104
    },
    {
      "midi": 58,
      "hit": false,
      "t": 113284.99874999974,
      "d": 362.92426041666477,
      "v": 102
    },
    {
      "midi": 62,
      "hit": false,
      "t": 113284.99874999974,
      "d": 362.92426041666477,
      "v": 104
    },
    {
      "midi": 48,
      "hit": false,
      "t": 113679.71999999974,
      "d": 1925.3625416666619,
      "v": 98
    },
    {
      "midi": 55,
      "hit": false,
      "t": 113685.20223958307,
      "d": 1925.3625416666619,
      "v": 94
    },
    {
      "midi": 60,
      "hit": false,
      "t": 113690.6844791664,
      "d": 1925.3625416666619,
      "v": 95
    },
    {
      "midi": 63,
      "hit": false,
      "t": 113696.16671874974,
      "d": 1925.3625416666619,
      "v": 106
    },
    {
      "midi": 67,
      "hit": false,
      "t": 113701.64895833307,
      "d": 1925.3625416666619,
      "v": 88
    },
    {
      "midi": 44,
      "hit": false,
      "t": 115784.89999999973,
      "d": 1925.3625416666619,
      "v": 95
    },
    {
      "midi": 56,
      "hit": false,
      "t": 115790.38223958306,
      "d": 1925.3625416666619,
      "v": 95
    },
    {
      "midi": 60,
      "hit": false,
      "t": 115795.8644791664,
      "d": 1925.3625416666619,
      "v": 94
    },
    {
      "midi": 63,
      "hit": false,
      "t": 115801.34671874973,
      "d": 1291.615645833328,
      "v": 96
    },
    {
      "midi": 67,
      "hit": false,
      "t": 115806.82895833306,
      "d": 1267.4937916666677,
      "v": 94
    },
    {
      "midi": 63,
      "hit": false,
      "t": 117100.63749999972,
      "d": 626.0717604166712,
      "v": 104
    },
    {
      "midi": 67,
      "hit": false,
      "t": 117100.63749999972,
      "d": 702.8231145833415,
      "v": 107
    },
    {
      "midi": 72,
      "hit": false,
      "t": 117100.63749999972,
      "d": 702.8231145833415,
      "v": 101
    },
    {
      "midi": 46,
      "hit": false,
      "t": 117890.07999999973,
      "d": 1925.3625416666619,
      "v": 100
    },
    {
      "midi": 58,
      "hit": false,
      "t": 117895.56223958306,
      "d": 1925.3625416666619,
      "v": 92
    },
    {
      "midi": 62,
      "hit": false,
      "t": 117901.04447916639,
      "d": 1925.3625416666619,
      "v": 98
    },
    {
      "midi": 65,
      "hit": false,
      "t": 117906.52671874972,
      "d": 1925.3625416666619,
      "v": 95
    },
    {
      "midi": 70,
      "hit": false,
      "t": 117912.00895833306,
      "d": 1925.3625416666619,
      "v": 94
    },
    {
      "midi": 48,
      "hit": false,
      "t": 119995.25999999972,
      "d": 1185.2601979166648,
      "v": 100
    },
    {
      "midi": 55,
      "hit": false,
      "t": 120000.74223958305,
      "d": 1185.2601979166648,
      "v": 92
    },
    {
      "midi": 60,
      "hit": false,
      "t": 120006.22447916638,
      "d": 1185.2601979166648,
      "v": 95
    },
    {
      "midi": 63,
      "hit": false,
      "t": 120011.70671874972,
      "d": 1185.2601979166648,
      "v": 94
    },
    {
      "midi": 67,
      "hit": false,
      "t": 120017.18895833305,
      "d": 1185.2601979166648,
      "v": 94
    },
    {
      "midi": 46,
      "hit": false,
      "t": 121310.9974999997,
      "d": 291.65514583332697,
      "v": 107
    },
    {
      "midi": 53,
      "hit": false,
      "t": 121310.9974999997,
      "d": 291.65514583332697,
      "v": 106
    },
    {
      "midi": 62,
      "hit": false,
      "t": 121310.9974999997,
      "d": 291.65514583332697,
      "v": 110
    },
    {
      "midi": 58,
      "hit": false,
      "t": 121313.19039583304,
      "d": 291.65514583332697,
      "v": 105
    },
    {
      "midi": 65,
      "hit": false,
      "t": 121316.47973958304,
      "d": 291.65514583332697,
      "v": 103
    },
    {
      "midi": 48,
      "hit": false,
      "t": 121705.7187499997,
      "d": 291.65514583332697,
      "v": 94
    },
    {
      "midi": 55,
      "hit": false,
      "t": 121705.7187499997,
      "d": 291.65514583332697,
      "v": 95
    },
    {
      "midi": 63,
      "hit": false,
      "t": 121705.7187499997,
      "d": 291.65514583332697,
      "v": 101
    },
    {
      "midi": 60,
      "hit": false,
      "t": 121707.91164583302,
      "d": 291.65514583332697,
      "v": 93
    },
    {
      "midi": 67,
      "hit": false,
      "t": 121711.20098958303,
      "d": 291.65514583332697,
      "v": 90
    },
    {
      "midi": 41,
      "hit": false,
      "t": 122100.43999999968,
      "d": 1925.3625416666619,
      "v": 95
    },
    {
      "midi": 53,
      "hit": false,
      "t": 122105.92223958301,
      "d": 1925.3625416666619,
      "v": 93
    },
    {
      "midi": 60,
      "hit": false,
      "t": 122111.40447916635,
      "d": 1925.3625416666619,
      "v": 89
    },
    {
      "midi": 63,
      "hit": false,
      "t": 122116.88671874968,
      "d": 1925.3625416666619,
      "v": 98
    },
    {
      "midi": 68,
      "hit": false,
      "t": 122122.36895833301,
      "d": 1925.3625416666619,
      "v": 87
    },
    {
      "midi": 43,
      "hit": false,
      "t": 124205.61999999968,
      "d": 979.1279895833286,
      "v": 95
    },
    {
      "midi": 51,
      "hit": false,
      "t": 124211.10223958301,
      "d": 979.1279895833286,
      "v": 95
    },
    {
      "midi": 58,
      "hit": false,
      "t": 124216.58447916634,
      "d": 979.1279895833286,
      "v": 96
    },
    {
      "midi": 63,
      "hit": false,
      "t": 124222.06671874967,
      "d": 979.1279895833286,
      "v": 99
    },
    {
      "midi": 67,
      "hit": false,
      "t": 124227.548958333,
      "d": 979.1279895833286,
      "v": 89
    },
    {
      "midi": 46,
      "hit": false,
      "t": 125258.20999999967,
      "d": 189.68548958332394,
      "v": 91
    },
    {
      "midi": 58,
      "hit": false,
      "t": 125263.692239583,
      "d": 189.68548958332394,
      "v": 91
    },
    {
      "midi": 62,
      "hit": false,
      "t": 125269.17447916634,
      "d": 189.68548958332394,
      "v": 92
    },
    {
      "midi": 65,
      "hit": false,
      "t": 125274.65671874967,
      "d": 189.68548958332394,
      "v": 96
    },
    {
      "midi": 70,
      "hit": false,
      "t": 125280.138958333,
      "d": 189.68548958332394,
      "v": 92
    },
    {
      "midi": 46,
      "hit": false,
      "t": 125521.35749999966,
      "d": 359.6349166666623,
      "v": 106
    },
    {
      "midi": 58,
      "hit": false,
      "t": 125521.35749999966,
      "d": 359.6349166666623,
      "v": 99
    },
    {
      "midi": 65,
      "hit": false,
      "t": 125521.35749999966,
      "d": 359.6349166666623,
      "v": 105
    },
    {
      "midi": 62,
      "hit": false,
      "t": 125523.550395833,
      "d": 359.6349166666623,
      "v": 100
    },
    {
      "midi": 70,
      "hit": false,
      "t": 125526.839739583,
      "d": 359.6349166666623,
      "v": 98
    },
    {
      "midi": 48,
      "hit": false,
      "t": 125916.07874999965,
      "d": 351.95978124999965,
      "v": 93
    },
    {
      "midi": 60,
      "hit": false,
      "t": 125916.07874999965,
      "d": 351.95978124999965,
      "v": 91
    },
    {
      "midi": 67,
      "hit": false,
      "t": 125916.07874999965,
      "d": 351.95978124999965,
      "v": 99
    },
    {
      "midi": 63,
      "hit": false,
      "t": 125918.27164583298,
      "d": 351.95978124999965,
      "v": 93
    },
    {
      "midi": 72,
      "hit": false,
      "t": 125921.56098958298,
      "d": 351.95978124999965,
      "v": 92
    },
    {
      "midi": 41,
      "hit": false,
      "t": 126310.79999999965,
      "d": 1925.3625416666619,
      "v": 92
    },
    {
      "midi": 53,
      "hit": false,
      "t": 126316.28223958299,
      "d": 1925.3625416666619,
      "v": 95
    },
    {
      "midi": 60,
      "hit": false,
      "t": 126321.76447916632,
      "d": 1925.3625416666619,
      "v": 93
    },
    {
      "midi": 63,
      "hit": false,
      "t": 126327.24671874965,
      "d": 1925.3625416666619,
      "v": 96
    },
    {
      "midi": 68,
      "hit": false,
      "t": 126332.72895833298,
      "d": 1925.3625416666619,
      "v": 94
    },
    {
      "midi": 43,
      "hit": false,
      "t": 128415.97999999965,
      "d": 452.83298958333035,
      "v": 91
    },
    {
      "midi": 51,
      "hit": false,
      "t": 128421.46223958298,
      "d": 452.83298958333035,
      "v": 89
    },
    {
      "midi": 58,
      "hit": false,
      "t": 128426.94447916631,
      "d": 452.83298958333035,
      "v": 92
    },
    {
      "midi": 63,
      "hit": false,
      "t": 128432.42671874964,
      "d": 452.83298958333035,
      "v": 99
    },
    {
      "midi": 67,
      "hit": false,
      "t": 128437.90895833298,
      "d": 452.83298958333035,
      "v": 88
    },
    {
      "midi": 46,
      "hit": false,
      "t": 128942.27499999964,
      "d": 556.9955416666635,
      "v": 98
    },
    {
      "midi": 58,
      "hit": false,
      "t": 128947.75723958298,
      "d": 549.3204062500008,
      "v": 95
    },
    {
      "midi": 62,
      "hit": false,
      "t": 128953.23947916631,
      "d": 546.0310624999984,
      "v": 96
    },
    {
      "midi": 65,
      "hit": false,
      "t": 128958.72171874964,
      "d": 538.3559270833357,
      "v": 100
    },
    {
      "midi": 70,
      "hit": false,
      "t": 128964.20395833298,
      "d": 538.3559270833357,
      "v": 93
    },
    {
      "midi": 46,
      "hit": false,
      "t": 129731.71749999965,
      "d": 291.65514583332697,
      "v": 101
    },
    {
      "midi": 58,
      "hit": false,
      "t": 129731.71749999965,
      "d": 291.65514583332697,
      "v": 101
    },
    {
      "midi": 65,
      "hit": false,
      "t": 129731.71749999965,
      "d": 291.65514583332697,
      "v": 101
    },
    {
      "midi": 62,
      "hit": false,
      "t": 129733.91039583298,
      "d": 291.65514583332697,
      "v": 105
    },
    {
      "midi": 70,
      "hit": false,
      "t": 129737.19973958298,
      "d": 291.65514583332697,
      "v": 102
    },
    {
      "midi": 48,
      "hit": false,
      "t": 130126.43874999964,
      "d": 351.95978124999965,
      "v": 92
    },
    {
      "midi": 60,
      "hit": false,
      "t": 130126.43874999964,
      "d": 351.95978124999965,
      "v": 92
    },
    {
      "midi": 67,
      "hit": false,
      "t": 130126.43874999964,
      "d": 351.95978124999965,
      "v": 98
    },
    {
      "midi": 63,
      "hit": false,
      "t": 130128.63164583297,
      "d": 351.95978124999965,
      "v": 93
    },
    {
      "midi": 72,
      "hit": false,
      "t": 130131.92098958297,
      "d": 351.95978124999965,
      "v": 91
    },
    {
      "midi": 41,
      "hit": false,
      "t": 130521.15999999964,
      "d": 1925.3625416666764,
      "v": 94
    },
    {
      "midi": 53,
      "hit": false,
      "t": 130526.64223958297,
      "d": 1925.3625416666764,
      "v": 93
    },
    {
      "midi": 60,
      "hit": false,
      "t": 130532.1244791663,
      "d": 1925.3625416666764,
      "v": 92
    },
    {
      "midi": 63,
      "hit": false,
      "t": 130537.60671874964,
      "d": 1925.3625416666764,
      "v": 95
    },
    {
      "midi": 68,
      "hit": false,
      "t": 130543.08895833297,
      "d": 1925.3625416666764,
      "v": 87
    },
    {
      "midi": 43,
      "hit": false,
      "t": 132626.33999999965,
      "d": 979.1279895833286,
      "v": 96
    },
    {
      "midi": 51,
      "hit": false,
      "t": 132631.82223958298,
      "d": 979.1279895833286,
      "v": 91
    },
    {
      "midi": 58,
      "hit": false,
      "t": 132637.3044791663,
      "d": 979.1279895833286,
      "v": 89
    },
    {
      "midi": 63,
      "hit": false,
      "t": 132642.78671874964,
      "d": 979.1279895833286,
      "v": 98
    },
    {
      "midi": 67,
      "hit": false,
      "t": 132648.26895833298,
      "d": 979.1279895833286,
      "v": 90
    },
    {
      "midi": 46,
      "hit": false,
      "t": 133678.92999999964,
      "d": 979.1279895833286,
      "v": 93
    },
    {
      "midi": 58,
      "hit": false,
      "t": 133684.41223958298,
      "d": 979.1279895833286,
      "v": 91
    },
    {
      "midi": 62,
      "hit": false,
      "t": 133689.8944791663,
      "d": 979.1279895833286,
      "v": 94
    },
    {
      "midi": 65,
      "hit": false,
      "t": 133695.37671874964,
      "d": 979.1279895833286,
      "v": 93
    },
    {
      "midi": 70,
      "hit": false,
      "t": 133700.85895833297,
      "d": 979.1279895833286,
      "v": 89
    },
    {
      "midi": 53,
      "hit": false,
      "t": 134731.51999999964,
      "d": 351.9597812500142,
      "v": 119
    },
    {
      "midi": 65,
      "hit": false,
      "t": 134731.51999999964,
      "d": 351.9597812500142,
      "v": 115
    },
    {
      "midi": 52,
      "hit": false,
      "t": 135095.540708333,
      "d": 337.7059583333321,
      "v": 93
    },
    {
      "midi": 64,
      "hit": false,
      "t": 135095.540708333,
      "d": 337.7059583333321,
      "v": 93
    },
    {
      "midi": 53,
      "hit": false,
      "t": 135446.40404166633,
      "d": 302.6196249999921,
      "v": 115
    },
    {
      "midi": 65,
      "hit": false,
      "t": 135446.40404166633,
      "d": 302.6196249999921,
      "v": 109
    },
    {
      "midi": 55,
      "hit": false,
      "t": 135762.18104166634,
      "d": 365.1171562499949,
      "v": 110
    },
    {
      "midi": 67,
      "hit": false,
      "t": 135762.18104166634,
      "d": 365.1171562499949,
      "v": 110
    },
    {
      "midi": 53,
      "hit": false,
      "t": 136140.45557291634,
      "d": 359.6349166666623,
      "v": 108
    },
    {
      "midi": 65,
      "hit": false,
      "t": 136140.45557291634,
      "d": 359.6349166666623,
      "v": 108
    },
    {
      "midi": 55,
      "hit": false,
      "t": 136513.247864583,
      "d": 291.65514583332697,
      "v": 116
    },
    {
      "midi": 67,
      "hit": false,
      "t": 136513.247864583,
      "d": 291.65514583332697,
      "v": 109
    },
    {
      "midi": 44,
      "hit": false,
      "t": 136836.69999999966,
      "d": 1141.4022812499898,
      "v": 93
    },
    {
      "midi": 56,
      "hit": false,
      "t": 136842.182239583,
      "d": 1141.4022812499898,
      "v": 96
    },
    {
      "midi": 60,
      "hit": false,
      "t": 136847.66447916633,
      "d": 1141.4022812499898,
      "v": 91
    },
    {
      "midi": 63,
      "hit": false,
      "t": 136853.14671874966,
      "d": 1141.4022812499898,
      "v": 98
    },
    {
      "midi": 68,
      "hit": false,
      "t": 136858.628958333,
      "d": 1141.4022812499898,
      "v": 87
    },
    {
      "midi": 48,
      "hit": false,
      "t": 147362.59999999966,
      "d": 1925.3625416666619,
      "v": 99
    },
    {
      "midi": 58,
      "hit": false,
      "t": 147368.082239583,
      "d": 1925.3625416666619,
      "v": 96
    },
    {
      "midi": 60,
      "hit": false,
      "t": 147373.56447916632,
      "d": 1925.3625416666619,
      "v": 90
    },
    {
      "midi": 62,
      "hit": false,
      "t": 147379.04671874965,
      "d": 1925.3625416666619,
      "v": 112
    },
    {
      "midi": 67,
      "hit": false,
      "t": 147384.528958333,
      "d": 1925.3625416666619,
      "v": 100
    },
    {
      "midi": 44,
      "hit": false,
      "t": 149467.77999999965,
      "d": 1925.3625416666619,
      "v": 98
    },
    {
      "midi": 56,
      "hit": false,
      "t": 149473.26223958298,
      "d": 1925.3625416666619,
      "v": 101
    },
    {
      "midi": 60,
      "hit": false,
      "t": 149478.74447916631,
      "d": 1925.3625416666619,
      "v": 97
    },
    {
      "midi": 63,
      "hit": false,
      "t": 149484.22671874965,
      "d": 2002.1138958333177,
      "v": 103
    },
    {
      "midi": 67,
      "hit": false,
      "t": 149489.70895833298,
      "d": 2002.1138958333177,
      "v": 97
    },
    {
      "midi": 46,
      "hit": false,
      "t": 151572.95999999964,
      "d": 1925.3625416666619,
      "v": 97
    },
    {
      "midi": 53,
      "hit": false,
      "t": 151578.44223958298,
      "d": 1925.3625416666619,
      "v": 96
    },
    {
      "midi": 58,
      "hit": false,
      "t": 151583.9244791663,
      "d": 1925.3625416666619,
      "v": 96
    },
    {
      "midi": 62,
      "hit": false,
      "t": 151589.40671874964,
      "d": 1925.3625416666619,
      "v": 104
    },
    {
      "midi": 65,
      "hit": false,
      "t": 151594.88895833297,
      "d": 1925.3625416666619,
      "v": 93
    },
    {
      "midi": 48,
      "hit": false,
      "t": 153678.13999999964,
      "d": 1267.4937916666677,
      "v": 102
    },
    {
      "midi": 55,
      "hit": false,
      "t": 153683.62223958297,
      "d": 1267.4937916666677,
      "v": 102
    },
    {
      "midi": 60,
      "hit": false,
      "t": 153689.1044791663,
      "d": 1267.4937916666677,
      "v": 95
    },
    {
      "midi": 63,
      "hit": false,
      "t": 153694.58671874963,
      "d": 1267.4937916666677,
      "v": 104
    },
    {
      "midi": 67,
      "hit": false,
      "t": 153700.06895833297,
      "d": 1267.4937916666677,
      "v": 100
    },
    {
      "midi": 60,
      "hit": false,
      "t": 154993.87749999962,
      "d": 33.989885416667676,
      "v": 87
    },
    {
      "midi": 65,
      "hit": false,
      "t": 154993.87749999962,
      "d": 33.989885416667676,
      "v": 93
    },
    {
      "midi": 60,
      "hit": false,
      "t": 155125.45124999963,
      "d": 33.989885416667676,
      "v": 88
    },
    {
      "midi": 65,
      "hit": false,
      "t": 155125.45124999963,
      "d": 33.989885416667676,
      "v": 94
    },
    {
      "midi": 55,
      "hit": false,
      "t": 155257.02499999964,
      "d": 33.989885416667676,
      "v": 78
    },
    {
      "midi": 63,
      "hit": false,
      "t": 155257.02499999964,
      "d": 33.989885416667676,
      "v": 74
    },
    {
      "midi": 53,
      "hit": false,
      "t": 155388.59874999966,
      "d": 362.9242604166793,
      "v": 109
    },
    {
      "midi": 58,
      "hit": false,
      "t": 155388.59874999966,
      "d": 362.9242604166793,
      "v": 113
    },
    {
      "midi": 62,
      "hit": false,
      "t": 155388.59874999966,
      "d": 362.9242604166793,
      "v": 110
    },
    {
      "midi": 48,
      "hit": false,
      "t": 155783.31999999966,
      "d": 1925.3625416666619,
      "v": 97
    },
    {
      "midi": 55,
      "hit": false,
      "t": 155788.802239583,
      "d": 1925.3625416666619,
      "v": 102
    },
    {
      "midi": 60,
      "hit": false,
      "t": 155794.28447916632,
      "d": 1925.3625416666619,
      "v": 101
    },
    {
      "midi": 62,
      "hit": false,
      "t": 155799.76671874966,
      "d": 1925.3625416666619,
      "v": 104
    },
    {
      "midi": 67,
      "hit": false,
      "t": 155805.248958333,
      "d": 1925.3625416666619,
      "v": 91
    },
    {
      "midi": 44,
      "hit": false,
      "t": 157888.49999999965,
      "d": 1925.3625416666328,
      "v": 99
    },
    {
      "midi": 56,
      "hit": false,
      "t": 157893.98223958298,
      "d": 1925.3625416666328,
      "v": 100
    },
    {
      "midi": 60,
      "hit": false,
      "t": 157899.46447916632,
      "d": 1530.6412916666595,
      "v": 102
    },
    {
      "midi": 63,
      "hit": false,
      "t": 157904.94671874965,
      "d": 1530.6412916666595,
      "v": 98
    },
    {
      "midi": 67,
      "hit": false,
      "t": 157910.42895833298,
      "d": 1530.6412916666595,
      "v": 94
    },
    {
      "midi": 60,
      "hit": false,
      "t": 159467.38499999963,
      "d": 494.4980104166607,
      "v": 104
    },
    {
      "midi": 63,
      "hit": false,
      "t": 159467.38499999963,
      "d": 494.4980104166607,
      "v": 100
    },
    {
      "midi": 67,
      "hit": false,
      "t": 159467.38499999963,
      "d": 494.4980104166607,
      "v": 98
    },
    {
      "midi": 46,
      "hit": false,
      "t": 159993.67999999961,
      "d": 1925.3625416666328,
      "v": 102
    },
    {
      "midi": 53,
      "hit": false,
      "t": 159999.16223958295,
      "d": 1925.3625416666328,
      "v": 97
    },
    {
      "midi": 58,
      "hit": false,
      "t": 160004.64447916628,
      "d": 1530.6412916666595,
      "v": 99
    },
    {
      "midi": 62,
      "hit": false,
      "t": 160010.1267187496,
      "d": 1530.6412916666595,
      "v": 104
    },
    {
      "midi": 65,
      "hit": false,
      "t": 160015.60895833294,
      "d": 1530.6412916666595,
      "v": 97
    },
    {
      "midi": 58,
      "hit": false,
      "t": 161572.5649999996,
      "d": 494.4980104166607,
      "v": 98
    },
    {
      "midi": 62,
      "hit": false,
      "t": 161572.5649999996,
      "d": 494.4980104166607,
      "v": 102
    },
    {
      "midi": 65,
      "hit": false,
      "t": 161572.5649999996,
      "d": 494.4980104166607,
      "v": 98
    },
    {
      "midi": 48,
      "hit": false,
      "t": 162098.85999999958,
      "d": 1185.2601979166502,
      "v": 97
    },
    {
      "midi": 55,
      "hit": false,
      "t": 162104.3422395829,
      "d": 1185.2601979166502,
      "v": 98
    },
    {
      "midi": 60,
      "hit": false,
      "t": 162109.82447916624,
      "d": 1185.2601979166502,
      "v": 102
    },
    {
      "midi": 63,
      "hit": false,
      "t": 162115.30671874958,
      "d": 1185.2601979166502,
      "v": 105
    },
    {
      "midi": 67,
      "hit": false,
      "t": 162120.7889583329,
      "d": 1185.2601979166502,
      "v": 100
    },
    {
      "midi": 46,
      "hit": false,
      "t": 163414.59749999957,
      "d": 291.65514583332697,
      "v": 108
    },
    {
      "midi": 53,
      "hit": false,
      "t": 163414.59749999957,
      "d": 291.65514583332697,
      "v": 108
    },
    {
      "midi": 62,
      "hit": false,
      "t": 163414.59749999957,
      "d": 291.65514583332697,
      "v": 107
    },
    {
      "midi": 58,
      "hit": false,
      "t": 163416.7903958329,
      "d": 291.65514583332697,
      "v": 106
    },
    {
      "midi": 65,
      "hit": false,
      "t": 163420.0797395829,
      "d": 291.65514583332697,
      "v": 107
    },
    {
      "midi": 48,
      "hit": false,
      "t": 163809.31874999957,
      "d": 291.65514583332697,
      "v": 102
    },
    {
      "midi": 55,
      "hit": false,
      "t": 163809.31874999957,
      "d": 291.65514583332697,
      "v": 96
    },
    {
      "midi": 63,
      "hit": false,
      "t": 163809.31874999957,
      "d": 291.65514583332697,
      "v": 105
    },
    {
      "midi": 60,
      "hit": false,
      "t": 163811.5116458329,
      "d": 291.65514583332697,
      "v": 102
    },
    {
      "midi": 67,
      "hit": false,
      "t": 163814.8009895829,
      "d": 291.65514583332697,
      "v": 99
    },
    {
      "midi": 41,
      "hit": false,
      "t": 164204.03999999957,
      "d": 1925.3625416666619,
      "v": 97
    },
    {
      "midi": 53,
      "hit": false,
      "t": 164209.5222395829,
      "d": 1925.3625416666619,
      "v": 92
    },
    {
      "midi": 60,
      "hit": false,
      "t": 164215.00447916624,
      "d": 1925.3625416666619,
      "v": 99
    },
    {
      "midi": 63,
      "hit": false,
      "t": 164220.48671874957,
      "d": 1925.3625416666619,
      "v": 100
    },
    {
      "midi": 68,
      "hit": false,
      "t": 164225.9689583329,
      "d": 1925.3625416666619,
      "v": 92
    },
    {
      "midi": 43,
      "hit": false,
      "t": 166309.21999999956,
      "d": 979.1279895833286,
      "v": 97
    },
    {
      "midi": 51,
      "hit": false,
      "t": 166314.7022395829,
      "d": 979.1279895833286,
      "v": 99
    },
    {
      "midi": 58,
      "hit": false,
      "t": 166320.18447916623,
      "d": 979.1279895833286,
      "v": 92
    },
    {
      "midi": 63,
      "hit": false,
      "t": 166325.66671874956,
      "d": 979.1279895833286,
      "v": 95
    },
    {
      "midi": 67,
      "hit": false,
      "t": 166331.1489583329,
      "d": 979.1279895833286,
      "v": 91
    },
    {
      "midi": 46,
      "hit": false,
      "t": 167361.80999999956,
      "d": 189.68548958332394,
      "v": 101
    },
    {
      "midi": 58,
      "hit": false,
      "t": 167367.2922395829,
      "d": 189.68548958332394,
      "v": 98
    },
    {
      "midi": 62,
      "hit": false,
      "t": 167372.77447916623,
      "d": 189.68548958332394,
      "v": 93
    },
    {
      "midi": 65,
      "hit": false,
      "t": 167378.25671874956,
      "d": 189.68548958332394,
      "v": 95
    },
    {
      "midi": 70,
      "hit": false,
      "t": 167383.7389583329,
      "d": 189.68548958332394,
      "v": 90
    },
    {
      "midi": 46,
      "hit": false,
      "t": 167624.95749999955,
      "d": 359.6349166666623,
      "v": 105
    },
    {
      "midi": 58,
      "hit": false,
      "t": 167624.95749999955,
      "d": 359.6349166666623,
      "v": 107
    },
    {
      "midi": 65,
      "hit": false,
      "t": 167624.95749999955,
      "d": 359.6349166666623,
      "v": 106
    },
    {
      "midi": 62,
      "hit": false,
      "t": 167627.1503958329,
      "d": 359.6349166666623,
      "v": 103
    },
    {
      "midi": 70,
      "hit": false,
      "t": 167630.4397395829,
      "d": 359.6349166666623,
      "v": 103
    },
    {
      "midi": 48,
      "hit": false,
      "t": 168019.67874999956,
      "d": 351.9597812499851,
      "v": 97
    },
    {
      "midi": 60,
      "hit": false,
      "t": 168019.67874999956,
      "d": 351.9597812499851,
      "v": 96
    },
    {
      "midi": 67,
      "hit": false,
      "t": 168019.67874999956,
      "d": 351.9597812499851,
      "v": 102
    },
    {
      "midi": 63,
      "hit": false,
      "t": 168021.8716458329,
      "d": 351.9597812499851,
      "v": 92
    },
    {
      "midi": 72,
      "hit": false,
      "t": 168025.1609895829,
      "d": 351.9597812499851,
      "v": 91
    },
    {
      "midi": 41,
      "hit": false,
      "t": 168414.39999999953,
      "d": 1925.3625416666619,
      "v": 95
    },
    {
      "midi": 53,
      "hit": false,
      "t": 168419.88223958286,
      "d": 1925.3625416666619,
      "v": 99
    },
    {
      "midi": 60,
      "hit": false,
      "t": 168425.3644791662,
      "d": 1925.3625416666619,
      "v": 98
    },
    {
      "midi": 63,
      "hit": false,
      "t": 168430.84671874953,
      "d": 1925.3625416666619,
      "v": 101
    },
    {
      "midi": 68,
      "hit": false,
      "t": 168436.32895833286,
      "d": 1925.3625416666619,
      "v": 96
    },
    {
      "midi": 43,
      "hit": false,
      "t": 170519.57999999952,
      "d": 452.8329895833158,
      "v": 98
    },
    {
      "midi": 51,
      "hit": false,
      "t": 170525.06223958285,
      "d": 452.8329895833158,
      "v": 94
    },
    {
      "midi": 58,
      "hit": false,
      "t": 170530.5444791662,
      "d": 452.8329895833158,
      "v": 93
    },
    {
      "midi": 63,
      "hit": false,
      "t": 170536.02671874952,
      "d": 452.8329895833158,
      "v": 100
    },
    {
      "midi": 67,
      "hit": false,
      "t": 170541.50895833285,
      "d": 452.8329895833158,
      "v": 94
    },
    {
      "midi": 46,
      "hit": false,
      "t": 171045.8749999995,
      "d": 556.9955416666635,
      "v": 97
    },
    {
      "midi": 58,
      "hit": false,
      "t": 171051.35723958284,
      "d": 549.3204062499863,
      "v": 92
    },
    {
      "midi": 62,
      "hit": false,
      "t": 171056.83947916617,
      "d": 546.0310624999984,
      "v": 96
    },
    {
      "midi": 65,
      "hit": false,
      "t": 171062.3217187495,
      "d": 538.3559270833211,
      "v": 97
    },
    {
      "midi": 70,
      "hit": false,
      "t": 171067.80395833284,
      "d": 538.3559270833211,
      "v": 94
    },
    {
      "midi": 46,
      "hit": false,
      "t": 171835.31749999948,
      "d": 291.65514583332697,
      "v": 106
    },
    {
      "midi": 58,
      "hit": false,
      "t": 171835.31749999948,
      "d": 291.65514583332697,
      "v": 104
    },
    {
      "midi": 65,
      "hit": false,
      "t": 171835.31749999948,
      "d": 291.65514583332697,
      "v": 110
    },
    {
      "midi": 62,
      "hit": false,
      "t": 171837.51039583283,
      "d": 291.65514583332697,
      "v": 108
    },
    {
      "midi": 70,
      "hit": false,
      "t": 171840.7997395828,
      "d": 291.65514583332697,
      "v": 106
    },
    {
      "midi": 48,
      "hit": false,
      "t": 172230.03874999948,
      "d": 351.9597812499851,
      "v": 96
    },
    {
      "midi": 60,
      "hit": false,
      "t": 172230.03874999948,
      "d": 351.9597812499851,
      "v": 94
    },
    {
      "midi": 67,
      "hit": false,
      "t": 172230.03874999948,
      "d": 351.9597812499851,
      "v": 101
    },
    {
      "midi": 63,
      "hit": false,
      "t": 172232.23164583283,
      "d": 351.9597812499851,
      "v": 97
    },
    {
      "midi": 72,
      "hit": false,
      "t": 172235.52098958282,
      "d": 351.9597812499851,
      "v": 92
    },
    {
      "midi": 41,
      "hit": false,
      "t": 172624.75999999946,
      "d": 1925.3625416666619,
      "v": 98
    },
    {
      "midi": 53,
      "hit": false,
      "t": 172630.2422395828,
      "d": 1925.3625416666619,
      "v": 93
    },
    {
      "midi": 60,
      "hit": false,
      "t": 172635.72447916612,
      "d": 1925.3625416666619,
      "v": 93
    },
    {
      "midi": 63,
      "hit": false,
      "t": 172641.20671874945,
      "d": 1925.3625416666619,
      "v": 96
    },
    {
      "midi": 68,
      "hit": false,
      "t": 172646.6889583328,
      "d": 1925.3625416666619,
      "v": 90
    },
    {
      "midi": 43,
      "hit": false,
      "t": 174729.93999999945,
      "d": 979.1279895833286,
      "v": 98
    },
    {
      "midi": 51,
      "hit": false,
      "t": 174735.42223958278,
      "d": 979.1279895833286,
      "v": 97
    },
    {
      "midi": 58,
      "hit": false,
      "t": 174740.9044791661,
      "d": 979.1279895833286,
      "v": 99
    },
    {
      "midi": 63,
      "hit": false,
      "t": 174746.38671874945,
      "d": 979.1279895833286,
      "v": 99
    },
    {
      "midi": 67,
      "hit": false,
      "t": 174751.86895833278,
      "d": 979.1279895833286,
      "v": 97
    },
    {
      "midi": 46,
      "hit": false,
      "t": 175782.52999999945,
      "d": 979.1279895833286,
      "v": 99
    },
    {
      "midi": 58,
      "hit": false,
      "t": 175788.01223958278,
      "d": 979.1279895833286,
      "v": 96
    },
    {
      "midi": 62,
      "hit": false,
      "t": 175793.4944791661,
      "d": 979.1279895833286,
      "v": 95
    },
    {
      "midi": 65,
      "hit": false,
      "t": 175798.97671874944,
      "d": 979.1279895833286,
      "v": 100
    },
    {
      "midi": 70,
      "hit": false,
      "t": 175804.45895833278,
      "d": 979.1279895833286,
      "v": 91
    },
    {
      "midi": 53,
      "hit": false,
      "t": 176835.11999999944,
      "d": 351.9597812500142,
      "v": 118
    },
    {
      "midi": 65,
      "hit": false,
      "t": 176835.11999999944,
      "d": 351.9597812500142,
      "v": 120
    },
    {
      "midi": 52,
      "hit": false,
      "t": 177199.1407083328,
      "d": 337.7059583333321,
      "v": 101
    },
    {
      "midi": 64,
      "hit": false,
      "t": 177199.1407083328,
      "d": 337.7059583333321,
      "v": 94
    },
    {
      "midi": 53,
      "hit": false,
      "t": 177550.00404166614,
      "d": 302.6196249999921,
      "v": 115
    },
    {
      "midi": 65,
      "hit": false,
      "t": 177550.00404166614,
      "d": 302.6196249999921,
      "v": 112
    },
    {
      "midi": 55,
      "hit": false,
      "t": 177865.78104166614,
      "d": 365.1171562499949,
      "v": 119
    },
    {
      "midi": 67,
      "hit": false,
      "t": 177865.78104166614,
      "d": 365.1171562499949,
      "v": 112
    },
    {
      "midi": 53,
      "hit": false,
      "t": 178244.05557291614,
      "d": 359.6349166666623,
      "v": 116
    },
    {
      "midi": 65,
      "hit": false,
      "t": 178244.05557291614,
      "d": 359.6349166666623,
      "v": 111
    },
    {
      "midi": 55,
      "hit": false,
      "t": 178616.8478645828,
      "d": 291.65514583332697,
      "v": 119
    },
    {
      "midi": 67,
      "hit": false,
      "t": 178616.8478645828,
      "d": 291.65514583332697,
      "v": 112
    },
    {
      "midi": 44,
      "hit": false,
      "t": 178940.29999999946,
      "d": 3246.5822812499828,
      "v": 98
    },
    {
      "midi": 56,
      "hit": false,
      "t": 178945.7822395828,
      "d": 3246.5822812499828,
      "v": 99
    },
    {
      "midi": 60,
      "hit": false,
      "t": 178951.26447916613,
      "d": 3246.5822812499828,
      "v": 93
    },
    {
      "midi": 63,
      "hit": false,
      "t": 178956.74671874946,
      "d": 3246.5822812499828,
      "v": 102
    },
    {
      "midi": 68,
      "hit": false,
      "t": 178962.2289583328,
      "d": 3246.5822812499828,
      "v": 92
    }
  ]
}