{
  "jsonPath": "Soundtracks/Broadway/Lionel Bart/pick-a-pocket-or-two.json",
  "path": "Soundtracks\\Broadway\\Lionel Bart\\Pick A Pocket Or Two.mid",
  "name": "Pick A Pocket Or Two",
  "difficulty": "Advanced",
  "bpm": 110.00011000011,
  "notes": [
    {
      "midi": 41,
      "hit": false,
      "t": 0,
      "d": 1090.9080000000001,
      "v": 95
    },
    {
      "midi": 56,
      "hit": false,
      "t": 545.4540000000001,
      "d": 1090.908,
      "v": 33
    },
    {
      "midi": 60,
      "hit": false,
      "t": 545.4540000000001,
      "d": 1090.908,
      "v": 84
    },
    {
      "midi": 65,
      "hit": false,
      "t": 545.4540000000001,
      "d": 1090.908,
      "v": 97
    },
    {
      "midi": 36,
      "hit": false,
      "t": 1090.9080000000001,
      "d": 1090.9080000000001,
      "v": 97
    },
    {
      "midi": 56,
      "hit": false,
      "t": 1636.362,
      "d": 1090.9080000000004,
      "v": 45
    },
    {
      "midi": 60,
      "hit": false,
      "t": 1636.362,
      "d": 1090.9080000000004,
      "v": 95
    },
    {
      "midi": 65,
      "hit": false,
      "t": 1636.362,
      "d": 1090.9080000000004,
      "v": 97
    },
    {
      "midi": 37,
      "hit": false,
      "t": 2181.8160000000003,
      "d": 1090.908,
      "v": 84
    },
    {
      "midi": 55,
      "hit": false,
      "t": 2727.2700000000004,
      "d": 1090.9080000000004,
      "v": 74
    },
    {
      "midi": 58,
      "hit": false,
      "t": 2727.2700000000004,
      "d": 1090.9080000000004,
      "v": 55
    },
    {
      "midi": 61,
      "hit": false,
      "t": 2727.2700000000004,
      "d": 1090.9080000000004,
      "v": 88
    },
    {
      "midi": 65,
      "hit": false,
      "t": 2727.2700000000004,
      "d": 1090.9080000000004,
      "v": 84
    },
    {
      "midi": 36,
      "hit": false,
      "t": 3272.724,
      "d": 1090.9080000000004,
      "v": 80
    },
    {
      "midi": 55,
      "hit": false,
      "t": 3818.178000000001,
      "d": 1090.9080000000004,
      "v": 74
    },
    {
      "midi": 58,
      "hit": false,
      "t": 3818.178000000001,
      "d": 1090.9080000000004,
      "v": 37
    },
    {
      "midi": 60,
      "hit": false,
      "t": 3818.178000000001,
      "d": 1090.9080000000004,
      "v": 92
    },
    {
      "midi": 64,
      "hit": false,
      "t": 3818.178000000001,
      "d": 1090.9080000000004,
      "v": 87
    },
    {
      "midi": 41,
      "hit": false,
      "t": 4363.6320000000005,
      "d": 1090.9080000000004,
      "v": 84
    },
    {
      "midi": 56,
      "hit": false,
      "t": 4909.086000000001,
      "d": 1090.9080000000004,
      "v": 40
    },
    {
      "midi": 60,
      "hit": false,
      "t": 4909.086000000001,
      "d": 1090.9080000000004,
      "v": 92
    },
    {
      "midi": 65,
      "hit": false,
      "t": 4909.086000000001,
      "d": 1090.9080000000004,
      "v": 89
    },
    {
      "midi": 36,
      "hit": false,
      "t": 5454.540000000001,
      "d": 1090.9080000000004,
      "v": 92
    },
    {
      "midi": 56,
      "hit": false,
      "t": 5999.9940000000015,
      "d": 1090.9080000000004,
      "v": 72
    },
    {
      "midi": 60,
      "hit": false,
      "t": 5999.9940000000015,
      "d": 1090.9080000000004,
      "v": 104
    },
    {
      "midi": 65,
      "hit": false,
      "t": 5999.9940000000015,
      "d": 1090.9080000000004,
      "v": 101
    },
    {
      "midi": 37,
      "hit": false,
      "t": 6545.448000000001,
      "d": 1090.9080000000004,
      "v": 84
    },
    {
      "midi": 55,
      "hit": false,
      "t": 7090.902000000002,
      "d": 1090.9080000000004,
      "v": 82
    },
    {
      "midi": 58,
      "hit": false,
      "t": 7090.902000000002,
      "d": 1090.9080000000004,
      "v": 81
    },
    {
      "midi": 61,
      "hit": false,
      "t": 7090.902000000002,
      "d": 1090.9080000000004,
      "v": 88
    },
    {
      "midi": 65,
      "hit": false,
      "t": 7090.902000000002,
      "d": 1090.9080000000004,
      "v": 89
    },
    {
      "midi": 36,
      "hit": false,
      "t": 7636.356000000002,
      "d": 1090.9079999999994,
      "v": 80
    },
    {
      "midi": 55,
      "hit": false,
      "t": 8181.810000000002,
      "d": 545.4540000000006,
      "v": 82
    },
    {
      "midi": 58,
      "hit": false,
      "t": 8181.810000000002,
      "d": 545.4540000000006,
      "v": 72
    },
    {
      "midi": 60,
      "hit": false,
      "t": 8181.810000000002,
      "d": 545.4540000000006,
      "v": 104
    },
    {
      "midi": 64,
      "hit": false,
      "t": 8181.810000000002,
      "d": 545.4540000000006,
      "v": 95
    },
    {
      "midi": 41,
      "hit": false,
      "t": 8727.264000000001,
      "d": 545.4539999999997,
      "v": 92
    },
    {
      "midi": 56,
      "hit": false,
      "t": 8727.264000000003,
      "d": 545.4539999999997,
      "v": 63
    },
    {
      "midi": 60,
      "hit": false,
      "t": 8727.264000000003,
      "d": 545.4539999999997,
      "v": 101
    },
    {
      "midi": 65,
      "hit": false,
      "t": 8727.264000000003,
      "d": 545.4539999999997,
      "v": 92
    },
    {
      "midi": 41,
      "hit": false,
      "t": 9272.718,
      "d": 545.4539999999997,
      "v": 80
    },
    {
      "midi": 56,
      "hit": false,
      "t": 9272.718000000003,
      "d": 545.4539999999997,
      "v": 74
    },
    {
      "midi": 60,
      "hit": false,
      "t": 9272.718000000003,
      "d": 545.4539999999997,
      "v": 101
    },
    {
      "midi": 65,
      "hit": false,
      "t": 9272.718000000003,
      "d": 545.4539999999997,
      "v": 101
    },
    {
      "midi": 41,
      "hit": false,
      "t": 9818.172,
      "d": 545.4539999999997,
      "v": 84
    },
    {
      "midi": 56,
      "hit": false,
      "t": 9818.172000000002,
      "d": 1090.9079999999994,
      "v": 66
    },
    {
      "midi": 60,
      "hit": false,
      "t": 9818.172000000002,
      "d": 1090.9079999999994,
      "v": 97
    },
    {
      "midi": 65,
      "hit": false,
      "t": 9818.172000000002,
      "d": 1090.9079999999994,
      "v": 92
    },
    {
      "midi": 36,
      "hit": false,
      "t": 10363.626,
      "d": 545.4539999999997,
      "v": 74
    },
    {
      "midi": 43,
      "hit": false,
      "t": 10909.08,
      "d": 545.4539999999997,
      "v": 92
    },
    {
      "midi": 61,
      "hit": false,
      "t": 10909.080000000002,
      "d": 545.4539999999997,
      "v": 81
    },
    {
      "midi": 65,
      "hit": false,
      "t": 10909.080000000002,
      "d": 545.4539999999997,
      "v": 95
    },
    {
      "midi": 67,
      "hit": false,
      "t": 10909.080000000002,
      "d": 545.4539999999997,
      "v": 104
    },
    {
      "midi": 70,
      "hit": false,
      "t": 10909.080000000002,
      "d": 545.4539999999997,
      "v": 88
    },
    {
      "midi": 43,
      "hit": false,
      "t": 11454.534,
      "d": 545.4539999999997,
      "v": 74
    },
    {
      "midi": 61,
      "hit": false,
      "t": 11454.534000000001,
      "d": 545.4539999999997,
      "v": 84
    },
    {
      "midi": 65,
      "hit": false,
      "t": 11454.534000000001,
      "d": 545.4539999999997,
      "v": 104
    },
    {
      "midi": 67,
      "hit": false,
      "t": 11454.534000000001,
      "d": 545.4539999999997,
      "v": 104
    },
    {
      "midi": 70,
      "hit": false,
      "t": 11454.534000000001,
      "d": 545.4539999999997,
      "v": 88
    },
    {
      "midi": 43,
      "hit": false,
      "t": 11999.988,
      "d": 545.4539999999997,
      "v": 87
    },
    {
      "midi": 61,
      "hit": false,
      "t": 11999.988000000001,
      "d": 1090.9079999999994,
      "v": 84
    },
    {
      "midi": 65,
      "hit": false,
      "t": 11999.988000000001,
      "d": 1090.9079999999994,
      "v": 104
    },
    {
      "midi": 67,
      "hit": false,
      "t": 11999.988000000001,
      "d": 1090.9079999999994,
      "v": 101
    },
    {
      "midi": 70,
      "hit": false,
      "t": 11999.988000000001,
      "d": 1090.9079999999994,
      "v": 88
    },
    {
      "midi": 37,
      "hit": false,
      "t": 12545.442,
      "d": 545.4539999999997,
      "v": 81
    },
    {
      "midi": 41,
      "hit": false,
      "t": 13090.895999999999,
      "d": 545.4539999999997,
      "v": 89
    },
    {
      "midi": 56,
      "hit": false,
      "t": 13090.896,
      "d": 545.4539999999997,
      "v": 65
    },
    {
      "midi": 60,
      "hit": false,
      "t": 13090.896,
      "d": 545.4539999999997,
      "v": 95
    },
    {
      "midi": 65,
      "hit": false,
      "t": 13090.896,
      "d": 545.4539999999997,
      "v": 95
    },
    {
      "midi": 41,
      "hit": false,
      "t": 13636.349999999999,
      "d": 545.4539999999997,
      "v": 74
    },
    {
      "midi": 56,
      "hit": false,
      "t": 13636.35,
      "d": 545.4539999999997,
      "v": 72
    },
    {
      "midi": 60,
      "hit": false,
      "t": 13636.35,
      "d": 545.4539999999997,
      "v": 97
    },
    {
      "midi": 65,
      "hit": false,
      "t": 13636.35,
      "d": 545.4539999999997,
      "v": 104
    },
    {
      "midi": 41,
      "hit": false,
      "t": 14181.803999999998,
      "d": 545.4539999999997,
      "v": 74
    },
    {
      "midi": 56,
      "hit": false,
      "t": 14181.804,
      "d": 1090.9079999999994,
      "v": 66
    },
    {
      "midi": 60,
      "hit": false,
      "t": 14181.804,
      "d": 1090.9079999999994,
      "v": 97
    },
    {
      "midi": 65,
      "hit": false,
      "t": 14181.804,
      "d": 1090.9079999999994,
      "v": 97
    },
    {
      "midi": 36,
      "hit": false,
      "t": 14727.257999999998,
      "d": 545.4539999999997,
      "v": 74
    },
    {
      "midi": 42,
      "hit": false,
      "t": 15272.711999999998,
      "d": 545.4539999999997,
      "v": 77
    },
    {
      "midi": 52,
      "hit": false,
      "t": 15272.712,
      "d": 545.4539999999997,
      "v": 81
    },
    {
      "midi": 54,
      "hit": false,
      "t": 15272.712,
      "d": 545.4539999999997,
      "v": 72
    },
    {
      "midi": 58,
      "hit": false,
      "t": 15272.712,
      "d": 545.4539999999997,
      "v": 72
    },
    {
      "midi": 60,
      "hit": false,
      "t": 15272.712,
      "d": 545.4539999999997,
      "v": 101
    },
    {
      "midi": 42,
      "hit": false,
      "t": 15818.165999999997,
      "d": 545.4539999999997,
      "v": 104
    },
    {
      "midi": 52,
      "hit": false,
      "t": 15818.166,
      "d": 545.4539999999997,
      "v": 81
    },
    {
      "midi": 54,
      "hit": false,
      "t": 15818.166,
      "d": 545.4539999999997,
      "v": 74
    },
    {
      "midi": 58,
      "hit": false,
      "t": 15818.166,
      "d": 545.4539999999997,
      "v": 74
    },
    {
      "midi": 60,
      "hit": false,
      "t": 15818.166,
      "d": 545.4539999999997,
      "v": 101
    },
    {
      "midi": 42,
      "hit": false,
      "t": 16363.619999999997,
      "d": 545.4539999999997,
      "v": 96
    },
    {
      "midi": 52,
      "hit": false,
      "t": 16363.619999999999,
      "d": 1090.9079999999994,
      "v": 81
    },
    {
      "midi": 54,
      "hit": false,
      "t": 16363.619999999999,
      "d": 1090.9079999999994,
      "v": 80
    },
    {
      "midi": 58,
      "hit": false,
      "t": 16363.619999999999,
      "d": 1090.9079999999994,
      "v": 69
    },
    {
      "midi": 60,
      "hit": false,
      "t": 16363.619999999999,
      "d": 1090.9079999999994,
      "v": 97
    },
    {
      "midi": 36,
      "hit": false,
      "t": 16909.073999999997,
      "d": 545.4540000000015,
      "v": 84
    },
    {
      "midi": 56,
      "hit": false,
      "t": 17454.528,
      "d": 272.72699999999895,
      "v": 59
    },
    {
      "midi": 60,
      "hit": false,
      "t": 17454.528,
      "d": 272.72699999999895,
      "v": 80
    },
    {
      "midi": 65,
      "hit": false,
      "t": 17454.528,
      "d": 272.72699999999895,
      "v": 101
    },
    {
      "midi": 41,
      "hit": false,
      "t": 17454.528,
      "d": 1090.9079999999994,
      "v": 89
    },
    {
      "midi": 67,
      "hit": false,
      "t": 17727.254999999997,
      "d": 272.72699999999895,
      "v": 89
    },
    {
      "midi": 60,
      "hit": false,
      "t": 17999.981999999996,
      "d": 545.4540000000015,
      "v": 74
    },
    {
      "midi": 65,
      "hit": false,
      "t": 17999.981999999996,
      "d": 545.4540000000015,
      "v": 80
    },
    {
      "midi": 68,
      "hit": false,
      "t": 17999.981999999996,
      "d": 545.4540000000015,
      "v": 77
    },
    {
      "midi": 58,
      "hit": false,
      "t": 18545.435999999998,
      "d": 545.4540000000015,
      "v": 69
    },
    {
      "midi": 63,
      "hit": false,
      "t": 18545.435999999998,
      "d": 545.4540000000015,
      "v": 92
    },
    {
      "midi": 67,
      "hit": false,
      "t": 18545.435999999998,
      "d": 545.4540000000015,
      "v": 95
    },
    {
      "midi": 39,
      "hit": false,
      "t": 18545.435999999998,
      "d": 1090.9079999999994,
      "v": 92
    },
    {
      "midi": 63,
      "hit": false,
      "t": 19090.89,
      "d": 545.4540000000015,
      "v": 66
    },
    {
      "midi": 67,
      "hit": false,
      "t": 19090.89,
      "d": 545.4540000000015,
      "v": 108
    },
    {
      "midi": 72,
      "hit": false,
      "t": 19090.89,
      "d": 545.4540000000015,
      "v": 97
    },
    {
      "midi": 37,
      "hit": false,
      "t": 19636.343999999997,
      "d": 545.4540000000015,
      "v": 77
    },
    {
      "midi": 61,
      "hit": false,
      "t": 19636.344,
      "d": 545.4540000000015,
      "v": 72
    },
    {
      "midi": 65,
      "hit": false,
      "t": 19636.344,
      "d": 545.4540000000015,
      "v": 101
    },
    {
      "midi": 70,
      "hit": false,
      "t": 19636.344,
      "d": 545.4540000000015,
      "v": 88
    },
    {
      "midi": 46,
      "hit": false,
      "t": 20181.798,
      "d": 545.4540000000015,
      "v": 57
    },
    {
      "midi": 65,
      "hit": false,
      "t": 20181.798000000003,
      "d": 545.4540000000015,
      "v": 92
    },
    {
      "midi": 70,
      "hit": false,
      "t": 20181.798000000003,
      "d": 545.4540000000015,
      "v": 84
    },
    {
      "midi": 73,
      "hit": false,
      "t": 20181.798000000003,
      "d": 545.4540000000015,
      "v": 77
    },
    {
      "midi": 44,
      "hit": false,
      "t": 20727.252,
      "d": 1090.9079999999994,
      "v": 96
    },
    {
      "midi": 65,
      "hit": false,
      "t": 20727.252000000004,
      "d": 818.1810000000005,
      "v": 84
    },
    {
      "midi": 68,
      "hit": false,
      "t": 20727.252000000004,
      "d": 818.1810000000005,
      "v": 77
    },
    {
      "midi": 72,
      "hit": false,
      "t": 20727.252000000004,
      "d": 818.1810000000005,
      "v": 82
    },
    {
      "midi": 72,
      "hit": false,
      "t": 21545.433000000005,
      "d": 272.72699999999895,
      "v": 80
    },
    {
      "midi": 43,
      "hit": false,
      "t": 21818.16,
      "d": 1090.9079999999994,
      "v": 87
    },
    {
      "midi": 61,
      "hit": false,
      "t": 21818.160000000003,
      "d": 272.72699999999895,
      "v": 63
    },
    {
      "midi": 65,
      "hit": false,
      "t": 21818.160000000003,
      "d": 272.72699999999895,
      "v": 80
    },
    {
      "midi": 72,
      "hit": false,
      "t": 21818.160000000003,
      "d": 272.72699999999895,
      "v": 92
    },
    {
      "midi": 73,
      "hit": false,
      "t": 22090.887000000002,
      "d": 272.72699999999895,
      "v": 84
    },
    {
      "midi": 72,
      "hit": false,
      "t": 22363.614,
      "d": 272.72699999999895,
      "v": 87
    },
    {
      "midi": 70,
      "hit": false,
      "t": 22636.341,
      "d": 272.72699999999895,
      "v": 88
    },
    {
      "midi": 59,
      "hit": false,
      "t": 22909.068,
      "d": 272.72699999999895,
      "v": 80
    },
    {
      "midi": 65,
      "hit": false,
      "t": 22909.068,
      "d": 272.72699999999895,
      "v": 74
    },
    {
      "midi": 68,
      "hit": false,
      "t": 22909.068,
      "d": 272.72699999999895,
      "v": 81
    },
    {
      "midi": 37,
      "hit": false,
      "t": 22909.068,
      "d": 545.4540000000015,
      "v": 88
    },
    {
      "midi": 65,
      "hit": false,
      "t": 23181.795,
      "d": 272.72699999999895,
      "v": 95
    },
    {
      "midi": 58,
      "hit": false,
      "t": 23454.521999999997,
      "d": 545.4540000000015,
      "v": 77
    },
    {
      "midi": 64,
      "hit": false,
      "t": 23454.521999999997,
      "d": 545.4540000000015,
      "v": 108
    },
    {
      "midi": 67,
      "hit": false,
      "t": 23454.521999999997,
      "d": 545.4540000000015,
      "v": 95
    },
    {
      "midi": 36,
      "hit": false,
      "t": 23454.522,
      "d": 545.4540000000015,
      "v": 101
    },
    {
      "midi": 56,
      "hit": false,
      "t": 23999.976,
      "d": 1636.362000000001,
      "v": 69
    },
    {
      "midi": 60,
      "hit": false,
      "t": 23999.976,
      "d": 1636.362000000001,
      "v": 101
    },
    {
      "midi": 65,
      "hit": false,
      "t": 23999.976,
      "d": 1636.362000000001,
      "v": 89
    },
    {
      "midi": 41,
      "hit": false,
      "t": 23999.976000000002,
      "d": 545.4540000000015,
      "v": 95
    },
    {
      "midi": 36,
      "hit": false,
      "t": 24545.430000000004,
      "d": 545.4540000000015,
      "v": 55
    },
    {
      "midi": 41,
      "hit": false,
      "t": 25090.884000000005,
      "d": 1090.9079999999994,
      "v": 74
    },
    {
      "midi": 60,
      "hit": false,
      "t": 25636.338,
      "d": 545.4540000000015,
      "v": 97
    },
    {
      "midi": 65,
      "hit": false,
      "t": 26181.792,
      "d": 272.72699999999895,
      "v": 87
    },
    {
      "midi": 41,
      "hit": false,
      "t": 26181.792000000005,
      "d": 1090.9079999999994,
      "v": 80
    },
    {
      "midi": 67,
      "hit": false,
      "t": 26454.519,
      "d": 272.72699999999895,
      "v": 80
    },
    {
      "midi": 60,
      "hit": false,
      "t": 26727.246,
      "d": 272.72699999999895,
      "v": 63
    },
    {
      "midi": 65,
      "hit": false,
      "t": 26727.246,
      "d": 272.72699999999895,
      "v": 63
    },
    {
      "midi": 68,
      "hit": false,
      "t": 26727.246,
      "d": 272.72699999999895,
      "v": 74
    },
    {
      "midi": 65,
      "hit": false,
      "t": 26999.972999999998,
      "d": 272.72699999999895,
      "v": 89
    },
    {
      "midi": 67,
      "hit": false,
      "t": 27272.699999999997,
      "d": 272.72699999999895,
      "v": 95
    },
    {
      "midi": 46,
      "hit": false,
      "t": 27272.700000000004,
      "d": 1090.9079999999994,
      "v": 72
    },
    {
      "midi": 65,
      "hit": false,
      "t": 27545.426999999996,
      "d": 272.72699999999895,
      "v": 95
    },
    {
      "midi": 58,
      "hit": false,
      "t": 27818.153999999995,
      "d": 545.4540000000015,
      "v": 66
    },
    {
      "midi": 61,
      "hit": false,
      "t": 27818.153999999995,
      "d": 545.4540000000015,
      "v": 88
    },
    {
      "midi": 67,
      "hit": false,
      "t": 27818.153999999995,
      "d": 545.4540000000015,
      "v": 101
    },
    {
      "midi": 68,
      "hit": false,
      "t": 28363.607999999997,
      "d": 545.4540000000015,
      "v": 59
    },
    {
      "midi": 44,
      "hit": false,
      "t": 28363.608000000004,
      "d": 1090.9079999999994,
      "v": 88
    },
    {
      "midi": 60,
      "hit": false,
      "t": 28909.061999999998,
      "d": 545.4540000000015,
      "v": 84
    },
    {
      "midi": 65,
      "hit": false,
      "t": 28909.061999999998,
      "d": 545.4540000000015,
      "v": 87
    },
    {
      "midi": 61,
      "hit": false,
      "t": 29454.516,
      "d": 818.1810000000005,
      "v": 81
    },
    {
      "midi": 65,
      "hit": false,
      "t": 29454.516,
      "d": 818.1810000000005,
      "v": 104
    },
    {
      "midi": 70,
      "hit": false,
      "t": 29454.516,
      "d": 818.1810000000005,
      "v": 92
    },
    {
      "midi": 43,
      "hit": false,
      "t": 29454.516000000003,
      "d": 1090.9079999999994,
      "v": 97
    },
    {
      "midi": 70,
      "hit": false,
      "t": 30272.697,
      "d": 272.72699999999895,
      "v": 88
    },
    {
      "midi": 72,
      "hit": false,
      "t": 30545.424,
      "d": 272.72699999999895,
      "v": 89
    },
    {
      "midi": 41,
      "hit": false,
      "t": 30545.424000000003,
      "d": 1090.9079999999994,
      "v": 97
    },
    {
      "midi": 73,
      "hit": false,
      "t": 30818.150999999998,
      "d": 272.72699999999895,
      "v": 84
    },
    {
      "midi": 65,
      "hit": false,
      "t": 31090.877999999997,
      "d": 272.72699999999895,
      "v": 82
    },
    {
      "midi": 68,
      "hit": false,
      "t": 31090.877999999997,
      "d": 272.72699999999895,
      "v": 88
    },
    {
      "midi": 72,
      "hit": false,
      "t": 31090.877999999997,
      "d": 272.72699999999895,
      "v": 95
    },
    {
      "midi": 70,
      "hit": false,
      "t": 31363.604999999996,
      "d": 272.72699999999895,
      "v": 88
    },
    {
      "midi": 59,
      "hit": false,
      "t": 31636.331999999995,
      "d": 272.72699999999895,
      "v": 80
    },
    {
      "midi": 65,
      "hit": false,
      "t": 31636.331999999995,
      "d": 272.72699999999895,
      "v": 78
    },
    {
      "midi": 68,
      "hit": false,
      "t": 31636.331999999995,
      "d": 272.72699999999895,
      "v": 88
    },
    {
      "midi": 37,
      "hit": false,
      "t": 31636.332000000002,
      "d": 545.4540000000015,
      "v": 59
    },
    {
      "midi": 65,
      "hit": false,
      "t": 31909.058999999994,
      "d": 272.72699999999895,
      "v": 101
    },
    {
      "midi": 58,
      "hit": false,
      "t": 32181.785999999993,
      "d": 545.4540000000015,
      "v": 84
    },
    {
      "midi": 64,
      "hit": false,
      "t": 32181.785999999993,
      "d": 545.4540000000015,
      "v": 113
    },
    {
      "midi": 67,
      "hit": false,
      "t": 32181.785999999993,
      "d": 545.4540000000015,
      "v": 101
    },
    {
      "midi": 36,
      "hit": false,
      "t": 32181.786000000004,
      "d": 545.4540000000015,
      "v": 87
    },
    {
      "midi": 65,
      "hit": false,
      "t": 32727.239999999994,
      "d": 545.4540000000015,
      "v": 108
    },
    {
      "midi": 41,
      "hit": false,
      "t": 32727.240000000005,
      "d": 1090.908000000003,
      "v": 92
    },
    {
      "midi": 56,
      "hit": false,
      "t": 33272.693999999996,
      "d": 545.4539999999979,
      "v": 66
    },
    {
      "midi": 60,
      "hit": false,
      "t": 33272.693999999996,
      "d": 545.4539999999979,
      "v": 101
    },
    {
      "midi": 56,
      "hit": false,
      "t": 33818.147999999994,
      "d": 545.4539999999979,
      "v": 57
    },
    {
      "midi": 60,
      "hit": false,
      "t": 33818.147999999994,
      "d": 545.4539999999979,
      "v": 89
    },
    {
      "midi": 65,
      "hit": false,
      "t": 33818.147999999994,
      "d": 545.4539999999979,
      "v": 101
    },
    {
      "midi": 36,
      "hit": false,
      "t": 33818.14800000001,
      "d": 1090.908000000003,
      "v": 92
    },
    {
      "midi": 60,
      "hit": false,
      "t": 34363.60199999999,
      "d": 545.4539999999979,
      "v": 71
    },
    {
      "midi": 65,
      "hit": false,
      "t": 34363.60199999999,
      "d": 545.4539999999979,
      "v": 87
    },
    {
      "midi": 68,
      "hit": false,
      "t": 34363.60199999999,
      "d": 545.4539999999979,
      "v": 66
    },
    {
      "midi": 65,
      "hit": false,
      "t": 34909.05599999999,
      "d": 545.4539999999979,
      "v": 67
    },
    {
      "midi": 77,
      "hit": false,
      "t": 34909.05599999999,
      "d": 545.4539999999979,
      "v": 80
    },
    {
      "midi": 41,
      "hit": false,
      "t": 34909.05600000001,
      "d": 1090.908000000003,
      "v": 76
    },
    {
      "midi": 68,
      "hit": false,
      "t": 35454.50999999999,
      "d": 272.72699999999895,
      "v": 42
    },
    {
      "midi": 72,
      "hit": false,
      "t": 35454.50999999999,
      "d": 272.72699999999895,
      "v": 76
    },
    {
      "midi": 67,
      "hit": false,
      "t": 35727.23699999999,
      "d": 272.72699999999895,
      "v": 82
    },
    {
      "midi": 79,
      "hit": false,
      "t": 35727.23699999999,
      "d": 272.72699999999895,
      "v": 113
    },
    {
      "midi": 65,
      "hit": false,
      "t": 35999.963999999985,
      "d": 545.4539999999979,
      "v": 61
    },
    {
      "midi": 77,
      "hit": false,
      "t": 35999.963999999985,
      "d": 545.4539999999979,
      "v": 72
    },
    {
      "midi": 44,
      "hit": false,
      "t": 35999.964000000014,
      "d": 1090.908000000003,
      "v": 74
    },
    {
      "midi": 63,
      "hit": false,
      "t": 36545.41799999998,
      "d": 545.4539999999979,
      "v": 72
    },
    {
      "midi": 68,
      "hit": false,
      "t": 36545.41799999998,
      "d": 545.4539999999979,
      "v": 27
    },
    {
      "midi": 72,
      "hit": false,
      "t": 36545.41799999998,
      "d": 545.4539999999979,
      "v": 95
    },
    {
      "midi": 75,
      "hit": false,
      "t": 36545.41799999998,
      "d": 545.4539999999979,
      "v": 59
    },
    {
      "midi": 73,
      "hit": false,
      "t": 37090.87199999998,
      "d": 545.4539999999979,
      "v": 77
    },
    {
      "midi": 43,
      "hit": false,
      "t": 37090.87200000002,
      "d": 1090.908000000003,
      "v": 95
    },
    {
      "midi": 67,
      "hit": false,
      "t": 37636.32599999998,
      "d": 545.4539999999979,
      "v": 87
    },
    {
      "midi": 70,
      "hit": false,
      "t": 37636.32599999998,
      "d": 545.4539999999979,
      "v": 84
    },
    {
      "midi": 75,
      "hit": false,
      "t": 37636.32599999998,
      "d": 545.4539999999979,
      "v": 77
    },
    {
      "midi": 72,
      "hit": false,
      "t": 38181.77999999998,
      "d": 545.4539999999979,
      "v": 101
    },
    {
      "midi": 41,
      "hit": false,
      "t": 38181.78000000002,
      "d": 1090.908000000003,
      "v": 87
    },
    {
      "midi": 65,
      "hit": false,
      "t": 38727.233999999975,
      "d": 272.72699999999895,
      "v": 84
    },
    {
      "midi": 68,
      "hit": false,
      "t": 38727.233999999975,
      "d": 272.72699999999895,
      "v": 77
    },
    {
      "midi": 72,
      "hit": false,
      "t": 38999.960999999974,
      "d": 272.72699999999895,
      "v": 97
    },
    {
      "midi": 72,
      "hit": false,
      "t": 39272.68799999997,
      "d": 272.72699999999895,
      "v": 84
    },
    {
      "midi": 40,
      "hit": false,
      "t": 39272.688000000024,
      "d": 1090.908000000003,
      "v": 92
    },
    {
      "midi": 72,
      "hit": false,
      "t": 39545.41499999997,
      "d": 272.72699999999895,
      "v": 55
    },
    {
      "midi": 64,
      "hit": false,
      "t": 39818.14199999997,
      "d": 272.72699999999895,
      "v": 68
    },
    {
      "midi": 67,
      "hit": false,
      "t": 39818.14199999997,
      "d": 272.72699999999895,
      "v": 92
    },
    {
      "midi": 72,
      "hit": false,
      "t": 39818.14199999997,
      "d": 272.72699999999895,
      "v": 74
    },
    {
      "midi": 72,
      "hit": false,
      "t": 40090.86899999997,
      "d": 272.72699999999895,
      "v": 89
    },
    {
      "midi": 76,
      "hit": false,
      "t": 40363.59599999997,
      "d": 272.72699999999895,
      "v": 87
    },
    {
      "midi": 36,
      "hit": false,
      "t": 40363.59600000003,
      "d": 1090.908000000003,
      "v": 87
    },
    {
      "midi": 76,
      "hit": false,
      "t": 40636.32299999997,
      "d": 272.72699999999895,
      "v": 92
    },
    {
      "midi": 67,
      "hit": false,
      "t": 40909.04999999997,
      "d": 545.4539999999979,
      "v": 84
    },
    {
      "midi": 70,
      "hit": false,
      "t": 40909.04999999997,
      "d": 545.4539999999979,
      "v": 88
    },
    {
      "midi": 72,
      "hit": false,
      "t": 40909.04999999997,
      "d": 545.4539999999979,
      "v": 97
    },
    {
      "midi": 76,
      "hit": false,
      "t": 40909.04999999997,
      "d": 545.4539999999979,
      "v": 97
    },
    {
      "midi": 68,
      "hit": false,
      "t": 41454.503999999964,
      "d": 545.4539999999979,
      "v": 69
    },
    {
      "midi": 72,
      "hit": false,
      "t": 41454.503999999964,
      "d": 545.4539999999979,
      "v": 108
    },
    {
      "midi": 77,
      "hit": false,
      "t": 41454.503999999964,
      "d": 545.4539999999979,
      "v": 84
    },
    {
      "midi": 41,
      "hit": false,
      "t": 41454.50400000003,
      "d": 1090.908000000003,
      "v": 108
    },
    {
      "midi": 56,
      "hit": false,
      "t": 41999.95799999996,
      "d": 1090.908000000003,
      "v": 61
    },
    {
      "midi": 60,
      "hit": false,
      "t": 41999.95799999996,
      "d": 1090.908000000003,
      "v": 59
    },
    {
      "midi": 65,
      "hit": false,
      "t": 41999.95799999996,
      "d": 1090.908000000003,
      "v": 84
    },
    {
      "midi": 36,
      "hit": false,
      "t": 42545.41200000003,
      "d": 1090.908000000003,
      "v": 87
    },
    {
      "midi": 56,
      "hit": false,
      "t": 43090.865999999965,
      "d": 1090.908000000003,
      "v": 66
    },
    {
      "midi": 60,
      "hit": false,
      "t": 43090.865999999965,
      "d": 1090.908000000003,
      "v": 84
    },
    {
      "midi": 65,
      "hit": false,
      "t": 43090.865999999965,
      "d": 1090.908000000003,
      "v": 97
    },
    {
      "midi": 37,
      "hit": false,
      "t": 43636.320000000036,
      "d": 1090.908000000003,
      "v": 77
    },
    {
      "midi": 55,
      "hit": false,
      "t": 44181.77399999997,
      "d": 1090.908000000003,
      "v": 67
    },
    {
      "midi": 58,
      "hit": false,
      "t": 44181.77399999997,
      "d": 1090.908000000003,
      "v": 49
    },
    {
      "midi": 61,
      "hit": false,
      "t": 44181.77399999997,
      "d": 1090.908000000003,
      "v": 81
    },
    {
      "midi": 65,
      "hit": false,
      "t": 44181.77399999997,
      "d": 1090.908000000003,
      "v": 76
    },
    {
      "midi": 36,
      "hit": false,
      "t": 44727.22800000004,
      "d": 1090.908000000003,
      "v": 84
    },
    {
      "midi": 55,
      "hit": false,
      "t": 45272.68199999997,
      "d": 545.4539999999979,
      "v": 59
    },
    {
      "midi": 58,
      "hit": false,
      "t": 45272.68199999997,
      "d": 545.4539999999979,
      "v": 59
    },
    {
      "midi": 60,
      "hit": false,
      "t": 45272.68199999997,
      "d": 545.4539999999979,
      "v": 92
    },
    {
      "midi": 64,
      "hit": false,
      "t": 45272.68199999997,
      "d": 545.4539999999979,
      "v": 80
    },
    {
      "midi": 56,
      "hit": false,
      "t": 45818.13599999997,
      "d": 545.4539999999979,
      "v": 35
    },
    {
      "midi": 60,
      "hit": false,
      "t": 45818.13599999997,
      "d": 545.4539999999979,
      "v": 92
    },
    {
      "midi": 65,
      "hit": false,
      "t": 45818.13599999997,
      "d": 545.4539999999979,
      "v": 97
    },
    {
      "midi": 41,
      "hit": false,
      "t": 45818.13600000004,
      "d": 545.4539999999979,
      "v": 89
    },
    {
      "midi": 56,
      "hit": false,
      "t": 46363.58999999997,
      "d": 545.4539999999979,
      "v": 53
    },
    {
      "midi": 60,
      "hit": false,
      "t": 46363.58999999997,
      "d": 545.4539999999979,
      "v": 92
    },
    {
      "midi": 65,
      "hit": false,
      "t": 46363.58999999997,
      "d": 545.4539999999979,
      "v": 92
    },
    {
      "midi": 41,
      "hit": false,
      "t": 46363.59000000004,
      "d": 545.4539999999979,
      "v": 82
    },
    {
      "midi": 56,
      "hit": false,
      "t": 46909.043999999965,
      "d": 1090.908000000003,
      "v": 66
    },
    {
      "midi": 60,
      "hit": false,
      "t": 46909.043999999965,
      "d": 1090.908000000003,
      "v": 101
    },
    {
      "midi": 65,
      "hit": false,
      "t": 46909.043999999965,
      "d": 1090.908000000003,
      "v": 95
    },
    {
      "midi": 41,
      "hit": false,
      "t": 46909.04400000004,
      "d": 545.4539999999979,
      "v": 72
    },
    {
      "midi": 36,
      "hit": false,
      "t": 47454.498000000036,
      "d": 545.4539999999979,
      "v": 69
    },
    {
      "midi": 61,
      "hit": false,
      "t": 47999.95199999997,
      "d": 545.4539999999979,
      "v": 53
    },
    {
      "midi": 65,
      "hit": false,
      "t": 47999.95199999997,
      "d": 545.4539999999979,
      "v": 87
    },
    {
      "midi": 67,
      "hit": false,
      "t": 47999.95199999997,
      "d": 545.4539999999979,
      "v": 95
    },
    {
      "midi": 70,
      "hit": false,
      "t": 47999.95199999997,
      "d": 545.4539999999979,
      "v": 74
    },
    {
      "midi": 43,
      "hit": false,
      "t": 47999.952000000034,
      "d": 545.4539999999979,
      "v": 74
    },
    {
      "midi": 61,
      "hit": false,
      "t": 48545.405999999966,
      "d": 545.4539999999979,
      "v": 66
    },
    {
      "midi": 65,
      "hit": false,
      "t": 48545.405999999966,
      "d": 545.4539999999979,
      "v": 95
    },
    {
      "midi": 67,
      "hit": false,
      "t": 48545.405999999966,
      "d": 545.4539999999979,
      "v": 97
    },
    {
      "midi": 70,
      "hit": false,
      "t": 48545.405999999966,
      "d": 545.4539999999979,
      "v": 69
    },
    {
      "midi": 43,
      "hit": false,
      "t": 48545.40600000003,
      "d": 545.4539999999979,
      "v": 80
    },
    {
      "midi": 61,
      "hit": false,
      "t": 49090.859999999964,
      "d": 1090.908000000003,
      "v": 81
    },
    {
      "midi": 65,
      "hit": false,
      "t": 49090.859999999964,
      "d": 1090.908000000003,
      "v": 104
    },
    {
      "midi": 67,
      "hit": false,
      "t": 49090.859999999964,
      "d": 1090.908000000003,
      "v": 104
    },
    {
      "midi": 70,
      "hit": false,
      "t": 49090.859999999964,
      "d": 1090.908000000003,
      "v": 88
    },
    {
      "midi": 43,
      "hit": false,
      "t": 49090.86000000003,
      "d": 545.4539999999979,
      "v": 84
    },
    {
      "midi": 37,
      "hit": false,
      "t": 49636.31400000003,
      "d": 545.4539999999979,
      "v": 77
    },
    {
      "midi": 56,
      "hit": false,
      "t": 50181.76799999997,
      "d": 545.4539999999979,
      "v": 74
    },
    {
      "midi": 60,
      "hit": false,
      "t": 50181.76799999997,
      "d": 545.4539999999979,
      "v": 101
    },
    {
      "midi": 65,
      "hit": false,
      "t": 50181.76799999997,
      "d": 545.4539999999979,
      "v": 97
    },
    {
      "midi": 41,
      "hit": false,
      "t": 50181.768000000025,
      "d": 545.4539999999979,
      "v": 82
    },
    {
      "midi": 56,
      "hit": false,
      "t": 50727.221999999965,
      "d": 545.4539999999979,
      "v": 65
    },
    {
      "midi": 60,
      "hit": false,
      "t": 50727.221999999965,
      "d": 545.4539999999979,
      "v": 97
    },
    {
      "midi": 65,
      "hit": false,
      "t": 50727.221999999965,
      "d": 545.4539999999979,
      "v": 101
    },
    {
      "midi": 41,
      "hit": false,
      "t": 50727.22200000002,
      "d": 545.4539999999979,
      "v": 76
    },
    {
      "midi": 56,
      "hit": false,
      "t": 51272.67599999996,
      "d": 1090.908000000003,
      "v": 72
    },
    {
      "midi": 60,
      "hit": false,
      "t": 51272.67599999996,
      "d": 1090.908000000003,
      "v": 95
    },
    {
      "midi": 65,
      "hit": false,
      "t": 51272.67599999996,
      "d": 1090.908000000003,
      "v": 97
    },
    {
      "midi": 41,
      "hit": false,
      "t": 51272.67600000002,
      "d": 545.4539999999979,
      "v": 69
    },
    {
      "midi": 36,
      "hit": false,
      "t": 51818.13000000002,
      "d": 545.4539999999979,
      "v": 66
    },
    {
      "midi": 52,
      "hit": false,
      "t": 52363.583999999966,
      "d": 545.4539999999979,
      "v": 59
    },
    {
      "midi": 54,
      "hit": false,
      "t": 52363.583999999966,
      "d": 545.4539999999979,
      "v": 74
    },
    {
      "midi": 58,
      "hit": false,
      "t": 52363.583999999966,
      "d": 545.4539999999979,
      "v": 65
    },
    {
      "midi": 60,
      "hit": false,
      "t": 52363.583999999966,
      "d": 545.4539999999979,
      "v": 95
    },
    {
      "midi": 42,
      "hit": false,
      "t": 52363.58400000002,
      "d": 545.4539999999979,
      "v": 72
    },
    {
      "midi": 52,
      "hit": false,
      "t": 52909.037999999964,
      "d": 545.4539999999979,
      "v": 59
    },
    {
      "midi": 54,
      "hit": false,
      "t": 52909.037999999964,
      "d": 545.4539999999979,
      "v": 80
    },
    {
      "midi": 58,
      "hit": false,
      "t": 52909.037999999964,
      "d": 545.4539999999979,
      "v": 63
    },
    {
      "midi": 60,
      "hit": false,
      "t": 52909.037999999964,
      "d": 545.4539999999979,
      "v": 97
    },
    {
      "midi": 42,
      "hit": false,
      "t": 52909.038000000015,
      "d": 545.4539999999979,
      "v": 96
    },
    {
      "midi": 52,
      "hit": false,
      "t": 53454.49199999996,
      "d": 1090.908000000003,
      "v": 59
    },
    {
      "midi": 54,
      "hit": false,
      "t": 53454.49199999996,
      "d": 1090.908000000003,
      "v": 80
    },
    {
      "midi": 58,
      "hit": false,
      "t": 53454.49199999996,
      "d": 1090.908000000003,
      "v": 61
    },
    {
      "midi": 60,
      "hit": false,
      "t": 53454.49199999996,
      "d": 1090.908000000003,
      "v": 101
    },
    {
      "midi": 42,
      "hit": false,
      "t": 53454.49200000001,
      "d": 545.4539999999979,
      "v": 104
    },
    {
      "midi": 36,
      "hit": false,
      "t": 53999.94600000001,
      "d": 545.4539999999979,
      "v": 78
    },
    {
      "midi": 56,
      "hit": false,
      "t": 54545.399999999965,
      "d": 272.72699999999895,
      "v": 42
    },
    {
      "midi": 60,
      "hit": false,
      "t": 54545.399999999965,
      "d": 272.72699999999895,
      "v": 95
    },
    {
      "midi": 65,
      "hit": false,
      "t": 54545.399999999965,
      "d": 272.72699999999895,
      "v": 95
    },
    {
      "midi": 41,
      "hit": false,
      "t": 54545.40000000001,
      "d": 1090.908000000003,
      "v": 80
    },
    {
      "midi": 67,
      "hit": false,
      "t": 54818.126999999964,
      "d": 272.72699999999895,
      "v": 66
    },
    {
      "midi": 60,
      "hit": false,
      "t": 55090.85399999996,
      "d": 545.4539999999979,
      "v": 55
    },
    {
      "midi": 65,
      "hit": false,
      "t": 55090.85399999996,
      "d": 545.4539999999979,
      "v": 97
    },
    {
      "midi": 68,
      "hit": false,
      "t": 55090.85399999996,
      "d": 545.4539999999979,
      "v": 65
    },
    {
      "midi": 58,
      "hit": false,
      "t": 55636.30799999996,
      "d": 545.4539999999979,
      "v": 65
    },
    {
      "midi": 63,
      "hit": false,
      "t": 55636.30799999996,
      "d": 545.4539999999979,
      "v": 92
    },
    {
      "midi": 67,
      "hit": false,
      "t": 55636.30799999996,
      "d": 545.4539999999979,
      "v": 89
    },
    {
      "midi": 39,
      "hit": false,
      "t": 55636.30800000001,
      "d": 1090.908000000003,
      "v": 100
    },
    {
      "midi": 63,
      "hit": false,
      "t": 56181.76199999996,
      "d": 545.4539999999979,
      "v": 74
    },
    {
      "midi": 67,
      "hit": false,
      "t": 56181.76199999996,
      "d": 545.4539999999979,
      "v": 101
    },
    {
      "midi": 72,
      "hit": false,
      "t": 56181.76199999996,
      "d": 545.4539999999979,
      "v": 108
    },
    {
      "midi": 61,
      "hit": false,
      "t": 56727.21599999996,
      "d": 545.4539999999979,
      "v": 72
    },
    {
      "midi": 65,
      "hit": false,
      "t": 56727.21599999996,
      "d": 545.4539999999979,
      "v": 104
    },
    {
      "midi": 70,
      "hit": false,
      "t": 56727.21599999996,
      "d": 545.4539999999979,
      "v": 92
    },
    {
      "midi": 37,
      "hit": false,
      "t": 56727.216000000015,
      "d": 545.4539999999979,
      "v": 81
    },
    {
      "midi": 65,
      "hit": false,
      "t": 57272.669999999955,
      "d": 545.4539999999979,
      "v": 92
    },
    {
      "midi": 70,
      "hit": false,
      "t": 57272.669999999955,
      "d": 545.4539999999979,
      "v": 81
    },
    {
      "midi": 73,
      "hit": false,
      "t": 57272.669999999955,
      "d": 545.4539999999979,
      "v": 72
    },
    {
      "midi": 46,
      "hit": false,
      "t": 57272.67000000001,
      "d": 545.4539999999979,
      "v": 66
    },
    {
      "midi": 65,
      "hit": false,
      "t": 57818.12399999995,
      "d": 818.1809999999969,
      "v": 84
    },
    {
      "midi": 68,
      "hit": false,
      "t": 57818.12399999995,
      "d": 818.1809999999969,
      "v": 81
    },
    {
      "midi": 72,
      "hit": false,
      "t": 57818.12399999995,
      "d": 818.1809999999969,
      "v": 92
    },
    {
      "midi": 44,
      "hit": false,
      "t": 57818.12400000001,
      "d": 1090.908000000003,
      "v": 96
    },
    {
      "midi": 72,
      "hit": false,
      "t": 58636.30499999995,
      "d": 272.72699999999895,
      "v": 89
    },
    {
      "midi": 61,
      "hit": false,
      "t": 58909.03199999995,
      "d": 272.72699999999895,
      "v": 66
    },
    {
      "midi": 65,
      "hit": false,
      "t": 58909.03199999995,
      "d": 272.72699999999895,
      "v": 89
    },
    {
      "midi": 72,
      "hit": false,
      "t": 58909.03199999995,
      "d": 272.72699999999895,
      "v": 84
    },
    {
      "midi": 43,
      "hit": false,
      "t": 58909.032000000014,
      "d": 1090.908000000003,
      "v": 76
    },
    {
      "midi": 73,
      "hit": false,
      "t": 59181.75899999995,
      "d": 272.72699999999895,
      "v": 92
    },
    {
      "midi": 72,
      "hit": false,
      "t": 59454.485999999946,
      "d": 272.72699999999895,
      "v": 89
    },
    {
      "midi": 70,
      "hit": false,
      "t": 59727.212999999945,
      "d": 272.72699999999895,
      "v": 81
    },
    {
      "midi": 59,
      "hit": false,
      "t": 59999.939999999944,
      "d": 272.72699999999895,
      "v": 82
    },
    {
      "midi": 65,
      "hit": false,
      "t": 59999.939999999944,
      "d": 272.72699999999895,
      "v": 78
    },
    {
      "midi": 68,
      "hit": false,
      "t": 59999.939999999944,
      "d": 272.72699999999895,
      "v": 72
    },
    {
      "midi": 37,
      "hit": false,
      "t": 59999.94000000002,
      "d": 545.4539999999979,
      "v": 81
    },
    {
      "midi": 65,
      "hit": false,
      "t": 60272.66699999994,
      "d": 272.72699999999895,
      "v": 97
    },
    {
      "midi": 58,
      "hit": false,
      "t": 60545.39399999994,
      "d": 545.4539999999979,
      "v": 69
    },
    {
      "midi": 64,
      "hit": false,
      "t": 60545.39399999994,
      "d": 545.4539999999979,
      "v": 97
    },
    {
      "midi": 67,
      "hit": false,
      "t": 60545.39399999994,
      "d": 545.4539999999979,
      "v": 104
    },
    {
      "midi": 36,
      "hit": false,
      "t": 60545.394000000015,
      "d": 545.4539999999979,
      "v": 78
    },
    {
      "midi": 56,
      "hit": false,
      "t": 61090.84799999994,
      "d": 1636.362000000001,
      "v": 69
    },
    {
      "midi": 60,
      "hit": false,
      "t": 61090.84799999994,
      "d": 1636.362000000001,
      "v": 101
    },
    {
      "midi": 65,
      "hit": false,
      "t": 61090.84799999994,
      "d": 1636.362000000001,
      "v": 104
    },
    {
      "midi": 41,
      "hit": false,
      "t": 61090.84800000001,
      "d": 545.4539999999979,
      "v": 84
    },
    {
      "midi": 36,
      "hit": false,
      "t": 61636.30200000001,
      "d": 545.4539999999979,
      "v": 68
    },
    {
      "midi": 41,
      "hit": false,
      "t": 62181.75600000001,
      "d": 1090.908000000003,
      "v": 76
    },
    {
      "midi": 60,
      "hit": false,
      "t": 62727.20999999994,
      "d": 545.4539999999979,
      "v": 101
    },
    {
      "midi": 65,
      "hit": false,
      "t": 63272.66399999994,
      "d": 272.72699999999895,
      "v": 61
    },
    {
      "midi": 41,
      "hit": false,
      "t": 63272.66400000001,
      "d": 1090.908000000003,
      "v": 87
    },
    {
      "midi": 67,
      "hit": false,
      "t": 63545.39099999994,
      "d": 272.72699999999895,
      "v": 55
    },
    {
      "midi": 60,
      "hit": false,
      "t": 63818.11799999994,
      "d": 272.72699999999895,
      "v": 61
    },
    {
      "midi": 65,
      "hit": false,
      "t": 63818.11799999994,
      "d": 272.72699999999895,
      "v": 78
    },
    {
      "midi": 68,
      "hit": false,
      "t": 63818.11799999994,
      "d": 272.72699999999895,
      "v": 66
    },
    {
      "midi": 65,
      "hit": false,
      "t": 64090.844999999936,
      "d": 272.72699999999895,
      "v": 92
    },
    {
      "midi": 67,
      "hit": false,
      "t": 64363.571999999935,
      "d": 272.72699999999895,
      "v": 89
    },
    {
      "midi": 46,
      "hit": false,
      "t": 64363.572000000015,
      "d": 1090.908000000003,
      "v": 69
    },
    {
      "midi": 65,
      "hit": false,
      "t": 64636.29899999993,
      "d": 272.72699999999895,
      "v": 92
    },
    {
      "midi": 58,
      "hit": false,
      "t": 64909.02599999993,
      "d": 545.4539999999979,
      "v": 59
    },
    {
      "midi": 61,
      "hit": false,
      "t": 64909.02599999993,
      "d": 545.4539999999979,
      "v": 81
    },
    {
      "midi": 67,
      "hit": false,
      "t": 64909.02599999993,
      "d": 545.4539999999979,
      "v": 101
    },
    {
      "midi": 60,
      "hit": false,
      "t": 65454.47999999993,
      "d": 1090.908000000003,
      "v": 87
    },
    {
      "midi": 65,
      "hit": false,
      "t": 65454.47999999993,
      "d": 1090.908000000003,
      "v": 97
    },
    {
      "midi": 68,
      "hit": false,
      "t": 65454.47999999993,
      "d": 1090.908000000003,
      "v": 81
    },
    {
      "midi": 44,
      "hit": false,
      "t": 65454.48000000002,
      "d": 545.4540000000052,
      "v": 84
    },
    {
      "midi": 36,
      "hit": false,
      "t": 65999.93400000002,
      "d": 545.4539999999979,
      "v": 74
    },
    {
      "midi": 61,
      "hit": false,
      "t": 66545.38799999993,
      "d": 136.36350000000675,
      "v": 69
    },
    {
      "midi": 65,
      "hit": false,
      "t": 66545.38799999993,
      "d": 136.36350000000675,
      "v": 84
    },
    {
      "midi": 70,
      "hit": false,
      "t": 66545.38799999993,
      "d": 136.36350000000675,
      "v": 74
    },
    {
      "midi": 43,
      "hit": false,
      "t": 66545.38800000002,
      "d": 1090.9079999999958,
      "v": 92
    },
    {
      "midi": 72,
      "hit": false,
      "t": 66681.75149999994,
      "d": 136.36350000000675,
      "v": 74
    },
    {
      "midi": 70,
      "hit": false,
      "t": 66818.11499999995,
      "d": 136.36350000000675,
      "v": 88
    },
    {
      "midi": 69,
      "hit": false,
      "t": 66954.47849999995,
      "d": 136.36350000000675,
      "v": 97
    },
    {
      "midi": 70,
      "hit": false,
      "t": 67090.84199999996,
      "d": 136.36350000000675,
      "v": 92
    },
    {
      "midi": 73,
      "hit": false,
      "t": 67363.56899999997,
      "d": 272.72699999999895,
      "v": 63
    },
    {
      "midi": 72,
      "hit": false,
      "t": 67636.29599999997,
      "d": 272.72699999999895,
      "v": 87
    },
    {
      "midi": 41,
      "hit": false,
      "t": 67636.29600000002,
      "d": 1090.9079999999958,
      "v": 92
    },
    {
      "midi": 73,
      "hit": false,
      "t": 67909.02299999997,
      "d": 272.72699999999895,
      "v": 84
    },
    {
      "midi": 65,
      "hit": false,
      "t": 68181.74999999997,
      "d": 272.72699999999895,
      "v": 78
    },
    {
      "midi": 68,
      "hit": false,
      "t": 68181.74999999997,
      "d": 272.72699999999895,
      "v": 81
    },
    {
      "midi": 72,
      "hit": false,
      "t": 68181.74999999997,
      "d": 272.72699999999895,
      "v": 82
    },
    {
      "midi": 70,
      "hit": false,
      "t": 68454.47699999997,
      "d": 272.72699999999895,
      "v": 84
    },
    {
      "midi": 60,
      "hit": false,
      "t": 68727.20399999997,
      "d": 272.72699999999895,
      "v": 69
    },
    {
      "midi": 65,
      "hit": false,
      "t": 68727.20399999997,
      "d": 272.72699999999895,
      "v": 66
    },
    {
      "midi": 68,
      "hit": false,
      "t": 68727.20399999997,
      "d": 272.72699999999895,
      "v": 33
    },
    {
      "midi": 37,
      "hit": false,
      "t": 68727.20400000001,
      "d": 545.4539999999979,
      "v": 84
    },
    {
      "midi": 65,
      "hit": false,
      "t": 68999.93099999997,
      "d": 272.72699999999895,
      "v": 82
    },
    {
      "midi": 58,
      "hit": false,
      "t": 69272.65799999997,
      "d": 545.4539999999979,
      "v": 84
    },
    {
      "midi": 64,
      "hit": false,
      "t": 69272.65799999997,
      "d": 545.4539999999979,
      "v": 97
    },
    {
      "midi": 67,
      "hit": false,
      "t": 69272.65799999997,
      "d": 545.4539999999979,
      "v": 108
    },
    {
      "midi": 36,
      "hit": false,
      "t": 69272.65800000001,
      "d": 545.4539999999979,
      "v": 92
    },
    {
      "midi": 65,
      "hit": false,
      "t": 69818.11199999996,
      "d": 545.4539999999979,
      "v": 104
    },
    {
      "midi": 41,
      "hit": false,
      "t": 69818.11200000001,
      "d": 1090.9079999999958,
      "v": 80
    },
    {
      "midi": 56,
      "hit": false,
      "t": 70363.56599999996,
      "d": 545.4539999999979,
      "v": 74
    },
    {
      "midi": 60,
      "hit": false,
      "t": 70363.56599999996,
      "d": 545.4539999999979,
      "v": 74
    },
    {
      "midi": 56,
      "hit": false,
      "t": 70909.01999999996,
      "d": 545.4539999999979,
      "v": 53
    },
    {
      "midi": 60,
      "hit": false,
      "t": 70909.01999999996,
      "d": 545.4539999999979,
      "v": 95
    },
    {
      "midi": 65,
      "hit": false,
      "t": 70909.01999999996,
      "d": 545.4539999999979,
      "v": 92
    },
    {
      "midi": 36,
      "hit": false,
      "t": 70909.02,
      "d": 1090.9079999999958,
      "v": 82
    },
    {
      "midi": 60,
      "hit": false,
      "t": 71454.47399999996,
      "d": 545.4539999999979,
      "v": 95
    },
    {
      "midi": 65,
      "hit": false,
      "t": 71454.47399999996,
      "d": 545.4539999999979,
      "v": 101
    },
    {
      "midi": 68,
      "hit": false,
      "t": 71454.47399999996,
      "d": 545.4539999999979,
      "v": 88
    },
    {
      "midi": 72,
      "hit": false,
      "t": 71454.47399999996,
      "d": 545.4539999999979,
      "v": 66
    },
    {
      "midi": 65,
      "hit": false,
      "t": 71999.92799999996,
      "d": 545.4539999999979,
      "v": 92
    },
    {
      "midi": 77,
      "hit": false,
      "t": 71999.92799999996,
      "d": 545.4539999999979,
      "v": 87
    },
    {
      "midi": 41,
      "hit": false,
      "t": 71999.928,
      "d": 1090.9079999999958,
      "v": 87
    },
    {
      "midi": 68,
      "hit": false,
      "t": 72545.38199999995,
      "d": 272.72699999999895,
      "v": 61
    },
    {
      "midi": 72,
      "hit": false,
      "t": 72545.38199999995,
      "d": 272.72699999999895,
      "v": 101
    },
    {
      "midi": 67,
      "hit": false,
      "t": 72818.10899999995,
      "d": 272.72699999999895,
      "v": 2
    },
    {
      "midi": 79,
      "hit": false,
      "t": 72818.10899999995,
      "d": 272.72699999999895,
      "v": 97
    },
    {
      "midi": 65,
      "hit": false,
      "t": 73090.83599999995,
      "d": 545.4539999999979,
      "v": 84
    },
    {
      "midi": 77,
      "hit": false,
      "t": 73090.83599999995,
      "d": 545.4539999999979,
      "v": 72
    },
    {
      "midi": 44,
      "hit": false,
      "t": 73090.836,
      "d": 1090.9079999999958,
      "v": 84
    },
    {
      "midi": 63,
      "hit": false,
      "t": 73636.28999999995,
      "d": 545.4539999999979,
      "v": 66
    },
    {
      "midi": 68,
      "hit": false,
      "t": 73636.28999999995,
      "d": 545.4539999999979,
      "v": 77
    },
    {
      "midi": 72,
      "hit": false,
      "t": 73636.28999999995,
      "d": 545.4539999999979,
      "v": 101
    },
    {
      "midi": 75,
      "hit": false,
      "t": 73636.28999999995,
      "d": 545.4539999999979,
      "v": 65
    },
    {
      "midi": 73,
      "hit": false,
      "t": 74181.74399999995,
      "d": 545.4539999999979,
      "v": 55
    },
    {
      "midi": 43,
      "hit": false,
      "t": 74181.74399999999,
      "d": 1090.9079999999958,
      "v": 104
    },
    {
      "midi": 67,
      "hit": false,
      "t": 74727.19799999995,
      "d": 545.4539999999979,
      "v": 84
    },
    {
      "midi": 70,
      "hit": false,
      "t": 74727.19799999995,
      "d": 545.4539999999979,
      "v": 77
    },
    {
      "midi": 75,
      "hit": false,
      "t": 74727.19799999995,
      "d": 545.4539999999979,
      "v": 77
    },
    {
      "midi": 72,
      "hit": false,
      "t": 75272.65199999994,
      "d": 545.4539999999979,
      "v": 89
    },
    {
      "midi": 41,
      "hit": false,
      "t": 75272.65199999999,
      "d": 1090.9079999999958,
      "v": 92
    },
    {
      "midi": 65,
      "hit": false,
      "t": 75818.10599999994,
      "d": 272.72699999999895,
      "v": 78
    },
    {
      "midi": 68,
      "hit": false,
      "t": 75818.10599999994,
      "d": 272.72699999999895,
      "v": 66
    },
    {
      "midi": 72,
      "hit": false,
      "t": 76090.83299999994,
      "d": 272.72699999999895,
      "v": 92
    },
    {
      "midi": 72,
      "hit": false,
      "t": 76363.55999999994,
      "d": 272.72699999999895,
      "v": 74
    },
    {
      "midi": 40,
      "hit": false,
      "t": 76363.55999999998,
      "d": 1090.9079999999958,
      "v": 92
    },
    {
      "midi": 72,
      "hit": false,
      "t": 76636.28699999994,
      "d": 272.72699999999895,
      "v": 59
    },
    {
      "midi": 64,
      "hit": false,
      "t": 76909.01399999994,
      "d": 272.72699999999895,
      "v": 64
    },
    {
      "midi": 67,
      "hit": false,
      "t": 76909.01399999994,
      "d": 272.72699999999895,
      "v": 82
    },
    {
      "midi": 72,
      "hit": false,
      "t": 76909.01399999994,
      "d": 272.72699999999895,
      "v": 80
    },
    {
      "midi": 72,
      "hit": false,
      "t": 77181.74099999994,
      "d": 272.72699999999895,
      "v": 82
    },
    {
      "midi": 76,
      "hit": false,
      "t": 77454.46799999994,
      "d": 272.72699999999895,
      "v": 61
    },
    {
      "midi": 36,
      "hit": false,
      "t": 77454.46799999998,
      "d": 1090.9079999999958,
      "v": 74
    },
    {
      "midi": 76,
      "hit": false,
      "t": 77727.19499999993,
      "d": 272.72699999999895,
      "v": 78
    },
    {
      "midi": 67,
      "hit": false,
      "t": 77999.92199999993,
      "d": 545.4539999999979,
      "v": 78
    },
    {
      "midi": 70,
      "hit": false,
      "t": 77999.92199999993,
      "d": 545.4539999999979,
      "v": 74
    },
    {
      "midi": 72,
      "hit": false,
      "t": 77999.92199999993,
      "d": 545.4539999999979,
      "v": 95
    },
    {
      "midi": 76,
      "hit": false,
      "t": 77999.92199999993,
      "d": 545.4539999999979,
      "v": 97
    },
    {
      "midi": 68,
      "hit": false,
      "t": 78545.37599999993,
      "d": 2181.816000000006,
      "v": 57
    },
    {
      "midi": 72,
      "hit": false,
      "t": 78545.37599999993,
      "d": 2181.816000000006,
      "v": 101
    },
    {
      "midi": 77,
      "hit": false,
      "t": 78545.37599999993,
      "d": 2181.816000000006,
      "v": 71
    },
    {
      "midi": 41,
      "hit": false,
      "t": 78545.37599999997,
      "d": 545.4539999999979,
      "v": 68
    },
    {
      "midi": 36,
      "hit": false,
      "t": 79090.82999999997,
      "d": 545.4539999999979,
      "v": 92
    },
    {
      "midi": 29,
      "hit": false,
      "t": 79636.28399999997,
      "d": 1090.9079999999958,
      "v": 92
    }
  ]
}