{
  "jsonPath": "Rock/Classic Finnish Rock/Heikki Silvennoinen/aurora.json",
  "path": "Rock\\Classic Finnish Rock\\Heikki Silvennoinen\\Aurora.mid",
  "name": "Aurora",
  "difficulty": "Advanced",
  "bpm": 120,
  "notes": [
    {
      "midi": 57,
      "hit": false,
      "t": 202366.66666666666,
      "d": 300,
      "v": 83
    },
    {
      "midi": 64,
      "hit": false,
      "t": 202366.66666666666,
      "d": 600,
      "v": 100
    },
    {
      "midi": 73,
      "hit": false,
      "t": 202366.66666666666,
      "d": 600,
      "v": 116
    },
    {
      "midi": 52,
      "hit": false,
      "t": 202366.66666666666,
      "d": 1483.333333333343,
      "v": 92
    },
    {
      "midi": 45,
      "hit": false,
      "t": 202366.66666666666,
      "d": 1783.333333333343,
      "v": 89
    },
    {
      "midi": 57,
      "hit": false,
      "t": 202966.66666666666,
      "d": 300,
      "v": 63
    },
    {
      "midi": 65,
      "hit": false,
      "t": 203266.66666666666,
      "d": 300,
      "v": 110
    },
    {
      "midi": 74,
      "hit": false,
      "t": 203266.66666666666,
      "d": 300,
      "v": 120
    },
    {
      "midi": 57,
      "hit": false,
      "t": 204150,
      "d": 300,
      "v": 74
    },
    {
      "midi": 67,
      "hit": false,
      "t": 204150,
      "d": 300,
      "v": 110
    },
    {
      "midi": 76,
      "hit": false,
      "t": 204150,
      "d": 300,
      "v": 110
    },
    {
      "midi": 77,
      "hit": false,
      "t": 204750,
      "d": 599.9999999999709,
      "v": 96
    },
    {
      "midi": 57,
      "hit": false,
      "t": 204750,
      "d": 883.3333333333139,
      "v": 80
    },
    {
      "midi": 62,
      "hit": false,
      "t": 204750,
      "d": 883.3333333333139,
      "v": 80
    },
    {
      "midi": 65,
      "hit": false,
      "t": 204750,
      "d": 883.3333333333139,
      "v": 105
    },
    {
      "midi": 69,
      "hit": false,
      "t": 204750,
      "d": 883.3333333333139,
      "v": 105
    },
    {
      "midi": 50,
      "hit": false,
      "t": 204750,
      "d": 1783.333333333314,
      "v": 86
    },
    {
      "midi": 57,
      "hit": false,
      "t": 205933.3333333333,
      "d": 300,
      "v": 70
    },
    {
      "midi": 60,
      "hit": false,
      "t": 206233.3333333333,
      "d": 300,
      "v": 86
    },
    {
      "midi": 69,
      "hit": false,
      "t": 206533.3333333333,
      "d": 300,
      "v": 105
    },
    {
      "midi": 50,
      "hit": false,
      "t": 207133.3333333333,
      "d": 883.333333333343,
      "v": 80
    },
    {
      "midi": 55,
      "hit": false,
      "t": 207133.3333333333,
      "d": 883.333333333343,
      "v": 66
    },
    {
      "midi": 43,
      "hit": false,
      "t": 207133.3333333333,
      "d": 1783.333333333343,
      "v": 65
    },
    {
      "midi": 58,
      "hit": false,
      "t": 207133.3333333333,
      "d": 1783.333333333343,
      "v": 109
    },
    {
      "midi": 62,
      "hit": false,
      "t": 207133.3333333333,
      "d": 1783.333333333343,
      "v": 100
    },
    {
      "midi": 67,
      "hit": false,
      "t": 207133.3333333333,
      "d": 2383.333333333343,
      "v": 89
    },
    {
      "midi": 55,
      "hit": false,
      "t": 208316.66666666666,
      "d": 600,
      "v": 66
    },
    {
      "midi": 57,
      "hit": false,
      "t": 208916.66666666666,
      "d": 300,
      "v": 54
    },
    {
      "midi": 58,
      "hit": false,
      "t": 209216.66666666666,
      "d": 300,
      "v": 44
    },
    {
      "midi": 55,
      "hit": false,
      "t": 209516.66666666666,
      "d": 583.3333333333139,
      "v": 80
    },
    {
      "midi": 64,
      "hit": false,
      "t": 209516.66666666666,
      "d": 583.3333333333139,
      "v": 92
    },
    {
      "midi": 60,
      "hit": false,
      "t": 209516.66666666666,
      "d": 883.3333333333139,
      "v": 110
    },
    {
      "midi": 67,
      "hit": false,
      "t": 209516.66666666666,
      "d": 883.3333333333139,
      "v": 83
    },
    {
      "midi": 48,
      "hit": false,
      "t": 209516.66666666666,
      "d": 1783.333333333314,
      "v": 86
    },
    {
      "midi": 62,
      "hit": false,
      "t": 210399.99999999997,
      "d": 600,
      "v": 96
    },
    {
      "midi": 65,
      "hit": false,
      "t": 210399.99999999997,
      "d": 600,
      "v": 105
    },
    {
      "midi": 60,
      "hit": false,
      "t": 210999.99999999997,
      "d": 300,
      "v": 86
    },
    {
      "midi": 64,
      "hit": false,
      "t": 210999.99999999997,
      "d": 300,
      "v": 86
    },
    {
      "midi": 67,
      "hit": false,
      "t": 210999.99999999997,
      "d": 300,
      "v": 74
    },
    {
      "midi": 55,
      "hit": false,
      "t": 211299.99999999997,
      "d": 300,
      "v": 56
    },
    {
      "midi": 64,
      "hit": false,
      "t": 211883.33333333328,
      "d": 600,
      "v": 105
    },
    {
      "midi": 73,
      "hit": false,
      "t": 211883.33333333328,
      "d": 600,
      "v": 121
    },
    {
      "midi": 57,
      "hit": false,
      "t": 211883.33333333328,
      "d": 900,
      "v": 80
    },
    {
      "midi": 45,
      "hit": false,
      "t": 211883.33333333328,
      "d": 1800,
      "v": 80
    },
    {
      "midi": 52,
      "hit": false,
      "t": 211883.33333333328,
      "d": 1800,
      "v": 89
    },
    {
      "midi": 65,
      "hit": false,
      "t": 212783.33333333328,
      "d": 300,
      "v": 110
    },
    {
      "midi": 74,
      "hit": false,
      "t": 212783.33333333328,
      "d": 300,
      "v": 120
    },
    {
      "midi": 67,
      "hit": false,
      "t": 213683.33333333328,
      "d": 283.33333333334303,
      "v": 105
    },
    {
      "midi": 76,
      "hit": false,
      "t": 213683.33333333328,
      "d": 283.33333333334303,
      "v": 105
    },
    {
      "midi": 77,
      "hit": false,
      "t": 214266.66666666663,
      "d": 599.9999999999709,
      "v": 96
    },
    {
      "midi": 57,
      "hit": false,
      "t": 214266.66666666663,
      "d": 899.9999999999709,
      "v": 80
    },
    {
      "midi": 62,
      "hit": false,
      "t": 214266.66666666663,
      "d": 899.9999999999709,
      "v": 80
    },
    {
      "midi": 65,
      "hit": false,
      "t": 214266.66666666663,
      "d": 899.9999999999709,
      "v": 105
    },
    {
      "midi": 69,
      "hit": false,
      "t": 214266.66666666663,
      "d": 899.9999999999709,
      "v": 105
    },
    {
      "midi": 50,
      "hit": false,
      "t": 214266.66666666663,
      "d": 1783.333333333314,
      "v": 86
    },
    {
      "midi": 57,
      "hit": false,
      "t": 215466.6666666666,
      "d": 300,
      "v": 70
    },
    {
      "midi": 60,
      "hit": false,
      "t": 215766.6666666666,
      "d": 283.33333333334303,
      "v": 86
    },
    {
      "midi": 69,
      "hit": false,
      "t": 216049.99999999994,
      "d": 300,
      "v": 105
    },
    {
      "midi": 50,
      "hit": false,
      "t": 216649.99999999994,
      "d": 900.0000000000291,
      "v": 80
    },
    {
      "midi": 55,
      "hit": false,
      "t": 216649.99999999994,
      "d": 900.0000000000291,
      "v": 66
    },
    {
      "midi": 43,
      "hit": false,
      "t": 216649.99999999994,
      "d": 1783.3333333333721,
      "v": 65
    },
    {
      "midi": 58,
      "hit": false,
      "t": 216649.99999999994,
      "d": 1783.3333333333721,
      "v": 109
    },
    {
      "midi": 62,
      "hit": false,
      "t": 216649.99999999994,
      "d": 1783.3333333333721,
      "v": 100
    },
    {
      "midi": 67,
      "hit": false,
      "t": 216649.99999999994,
      "d": 2383.333333333372,
      "v": 89
    },
    {
      "midi": 55,
      "hit": false,
      "t": 217849.99999999997,
      "d": 583.333333333343,
      "v": 66
    },
    {
      "midi": 57,
      "hit": false,
      "t": 218433.3333333333,
      "d": 300,
      "v": 54
    },
    {
      "midi": 58,
      "hit": false,
      "t": 218733.3333333333,
      "d": 300,
      "v": 44
    },
    {
      "midi": 55,
      "hit": false,
      "t": 219033.3333333333,
      "d": 600,
      "v": 80
    },
    {
      "midi": 64,
      "hit": false,
      "t": 219033.3333333333,
      "d": 600,
      "v": 92
    },
    {
      "midi": 60,
      "hit": false,
      "t": 219033.3333333333,
      "d": 900,
      "v": 110
    },
    {
      "midi": 67,
      "hit": false,
      "t": 219033.3333333333,
      "d": 900,
      "v": 83
    },
    {
      "midi": 48,
      "hit": false,
      "t": 219033.3333333333,
      "d": 1783.333333333343,
      "v": 86
    },
    {
      "midi": 62,
      "hit": false,
      "t": 219933.3333333333,
      "d": 583.333333333343,
      "v": 96
    },
    {
      "midi": 65,
      "hit": false,
      "t": 219933.3333333333,
      "d": 583.333333333343,
      "v": 105
    },
    {
      "midi": 60,
      "hit": false,
      "t": 220516.66666666666,
      "d": 300,
      "v": 86
    },
    {
      "midi": 64,
      "hit": false,
      "t": 220516.66666666666,
      "d": 300,
      "v": 86
    },
    {
      "midi": 67,
      "hit": false,
      "t": 220516.66666666666,
      "d": 300,
      "v": 74
    },
    {
      "midi": 55,
      "hit": false,
      "t": 220816.66666666666,
      "d": 300,
      "v": 56
    },
    {
      "midi": 64,
      "hit": false,
      "t": 221416.66666666666,
      "d": 600,
      "v": 105
    },
    {
      "midi": 73,
      "hit": false,
      "t": 221416.66666666666,
      "d": 600,
      "v": 121
    },
    {
      "midi": 57,
      "hit": false,
      "t": 221416.66666666666,
      "d": 883.333333333343,
      "v": 80
    },
    {
      "midi": 45,
      "hit": false,
      "t": 221416.66666666666,
      "d": 1783.333333333343,
      "v": 80
    },
    {
      "midi": 52,
      "hit": false,
      "t": 221416.66666666666,
      "d": 1783.333333333343,
      "v": 89
    },
    {
      "midi": 65,
      "hit": false,
      "t": 222300,
      "d": 300,
      "v": 110
    },
    {
      "midi": 74,
      "hit": false,
      "t": 222300,
      "d": 300,
      "v": 120
    },
    {
      "midi": 67,
      "hit": false,
      "t": 223200,
      "d": 300,
      "v": 105
    },
    {
      "midi": 76,
      "hit": false,
      "t": 223200,
      "d": 300,
      "v": 105
    },
    {
      "midi": 77,
      "hit": false,
      "t": 223800,
      "d": 583.333333333343,
      "v": 96
    },
    {
      "midi": 57,
      "hit": false,
      "t": 223800,
      "d": 883.333333333343,
      "v": 80
    },
    {
      "midi": 62,
      "hit": false,
      "t": 223800,
      "d": 883.333333333343,
      "v": 80
    },
    {
      "midi": 65,
      "hit": false,
      "t": 223800,
      "d": 883.333333333343,
      "v": 105
    },
    {
      "midi": 69,
      "hit": false,
      "t": 223800,
      "d": 883.333333333343,
      "v": 105
    },
    {
      "midi": 50,
      "hit": false,
      "t": 223800,
      "d": 1783.333333333343,
      "v": 86
    },
    {
      "midi": 57,
      "hit": false,
      "t": 224983.33333333334,
      "d": 300,
      "v": 70
    },
    {
      "midi": 60,
      "hit": false,
      "t": 225283.33333333334,
      "d": 300,
      "v": 86
    },
    {
      "midi": 69,
      "hit": false,
      "t": 225583.33333333334,
      "d": 300,
      "v": 105
    },
    {
      "midi": 50,
      "hit": false,
      "t": 226183.33333333334,
      "d": 883.333333333343,
      "v": 80
    },
    {
      "midi": 55,
      "hit": false,
      "t": 226183.33333333334,
      "d": 883.333333333343,
      "v": 66
    },
    {
      "midi": 43,
      "hit": false,
      "t": 226183.33333333334,
      "d": 1783.333333333343,
      "v": 65
    },
    {
      "midi": 58,
      "hit": false,
      "t": 226183.33333333334,
      "d": 1783.333333333343,
      "v": 109
    },
    {
      "midi": 62,
      "hit": false,
      "t": 226183.33333333334,
      "d": 1783.333333333343,
      "v": 100
    },
    {
      "midi": 67,
      "hit": false,
      "t": 226183.33333333334,
      "d": 2366.666666666657,
      "v": 89
    },
    {
      "midi": 55,
      "hit": false,
      "t": 227366.6666666667,
      "d": 600,
      "v": 66
    },
    {
      "midi": 57,
      "hit": false,
      "t": 227966.6666666667,
      "d": 300,
      "v": 54
    },
    {
      "midi": 58,
      "hit": false,
      "t": 228266.6666666667,
      "d": 283.33333333331393,
      "v": 44
    },
    {
      "midi": 55,
      "hit": false,
      "t": 228550,
      "d": 600,
      "v": 80
    },
    {
      "midi": 64,
      "hit": false,
      "t": 228550,
      "d": 600,
      "v": 92
    },
    {
      "midi": 60,
      "hit": false,
      "t": 228550,
      "d": 900,
      "v": 110
    },
    {
      "midi": 67,
      "hit": false,
      "t": 228550,
      "d": 900,
      "v": 83
    },
    {
      "midi": 48,
      "hit": false,
      "t": 228550,
      "d": 1800,
      "v": 86
    },
    {
      "midi": 62,
      "hit": false,
      "t": 229450,
      "d": 600,
      "v": 96
    },
    {
      "midi": 65,
      "hit": false,
      "t": 229450,
      "d": 600,
      "v": 105
    },
    {
      "midi": 60,
      "hit": false,
      "t": 230050,
      "d": 300,
      "v": 86
    },
    {
      "midi": 64,
      "hit": false,
      "t": 230050,
      "d": 300,
      "v": 86
    },
    {
      "midi": 67,
      "hit": false,
      "t": 230050,
      "d": 300,
      "v": 74
    },
    {
      "midi": 55,
      "hit": false,
      "t": 230350,
      "d": 283.33333333334303,
      "v": 56
    },
    {
      "midi": 64,
      "hit": false,
      "t": 230933.33333333334,
      "d": 600,
      "v": 105
    },
    {
      "midi": 73,
      "hit": false,
      "t": 230933.33333333334,
      "d": 600,
      "v": 121
    },
    {
      "midi": 57,
      "hit": false,
      "t": 230933.33333333334,
      "d": 900,
      "v": 80
    },
    {
      "midi": 45,
      "hit": false,
      "t": 230933.33333333334,
      "d": 1783.333333333343,
      "v": 80
    },
    {
      "midi": 52,
      "hit": false,
      "t": 230933.33333333334,
      "d": 1783.333333333343,
      "v": 89
    },
    {
      "midi": 65,
      "hit": false,
      "t": 231833.33333333334,
      "d": 300,
      "v": 110
    },
    {
      "midi": 74,
      "hit": false,
      "t": 231833.33333333334,
      "d": 300,
      "v": 120
    },
    {
      "midi": 67,
      "hit": false,
      "t": 232716.6666666667,
      "d": 300,
      "v": 105
    },
    {
      "midi": 76,
      "hit": false,
      "t": 232716.6666666667,
      "d": 300,
      "v": 105
    },
    {
      "midi": 77,
      "hit": false,
      "t": 233316.6666666667,
      "d": 599.9999999999709,
      "v": 96
    },
    {
      "midi": 57,
      "hit": false,
      "t": 233316.6666666667,
      "d": 899.9999999999709,
      "v": 80
    },
    {
      "midi": 62,
      "hit": false,
      "t": 233316.6666666667,
      "d": 899.9999999999709,
      "v": 80
    },
    {
      "midi": 65,
      "hit": false,
      "t": 233316.6666666667,
      "d": 899.9999999999709,
      "v": 105
    },
    {
      "midi": 69,
      "hit": false,
      "t": 233316.6666666667,
      "d": 899.9999999999709,
      "v": 105
    },
    {
      "midi": 50,
      "hit": false,
      "t": 233316.6666666667,
      "d": 1783.333333333314,
      "v": 86
    },
    {
      "midi": 57,
      "hit": false,
      "t": 234516.66666666666,
      "d": 283.33333333334303,
      "v": 70
    },
    {
      "midi": 60,
      "hit": false,
      "t": 234800,
      "d": 300,
      "v": 86
    },
    {
      "midi": 69,
      "hit": false,
      "t": 235100,
      "d": 300,
      "v": 105
    },
    {
      "midi": 50,
      "hit": false,
      "t": 235700,
      "d": 899.9999999999709,
      "v": 80
    },
    {
      "midi": 55,
      "hit": false,
      "t": 235700,
      "d": 899.9999999999709,
      "v": 66
    },
    {
      "midi": 43,
      "hit": false,
      "t": 235700,
      "d": 1783.333333333314,
      "v": 65
    },
    {
      "midi": 58,
      "hit": false,
      "t": 235700,
      "d": 1783.333333333314,
      "v": 109
    },
    {
      "midi": 62,
      "hit": false,
      "t": 235700,
      "d": 1783.333333333314,
      "v": 100
    },
    {
      "midi": 67,
      "hit": false,
      "t": 235700,
      "d": 2383.333333333285,
      "v": 89
    },
    {
      "midi": 55,
      "hit": false,
      "t": 236883.3333333333,
      "d": 600,
      "v": 66
    },
    {
      "midi": 57,
      "hit": false,
      "t": 237483.3333333333,
      "d": 300,
      "v": 54
    },
    {
      "midi": 58,
      "hit": false,
      "t": 237783.3333333333,
      "d": 299.9999999999709,
      "v": 44
    },
    {
      "midi": 55,
      "hit": false,
      "t": 238083.33333333328,
      "d": 600,
      "v": 80
    },
    {
      "midi": 64,
      "hit": false,
      "t": 238083.33333333328,
      "d": 600,
      "v": 92
    },
    {
      "midi": 60,
      "hit": false,
      "t": 238083.33333333328,
      "d": 883.333333333343,
      "v": 110
    },
    {
      "midi": 67,
      "hit": false,
      "t": 238083.33333333328,
      "d": 883.333333333343,
      "v": 83
    },
    {
      "midi": 48,
      "hit": false,
      "t": 238083.33333333328,
      "d": 1783.333333333343,
      "v": 86
    },
    {
      "midi": 62,
      "hit": false,
      "t": 238966.66666666663,
      "d": 600,
      "v": 96
    },
    {
      "midi": 65,
      "hit": false,
      "t": 238966.66666666663,
      "d": 600,
      "v": 105
    },
    {
      "midi": 60,
      "hit": false,
      "t": 239566.66666666663,
      "d": 300,
      "v": 86
    },
    {
      "midi": 64,
      "hit": false,
      "t": 239566.66666666663,
      "d": 300,
      "v": 86
    },
    {
      "midi": 67,
      "hit": false,
      "t": 239566.66666666663,
      "d": 300,
      "v": 74
    },
    {
      "midi": 55,
      "hit": false,
      "t": 239866.66666666663,
      "d": 300,
      "v": 56
    },
    {
      "midi": 64,
      "hit": false,
      "t": 240466.66666666663,
      "d": 583.3333333333139,
      "v": 105
    },
    {
      "midi": 73,
      "hit": false,
      "t": 240466.66666666663,
      "d": 583.3333333333139,
      "v": 121
    },
    {
      "midi": 57,
      "hit": false,
      "t": 240466.66666666663,
      "d": 883.3333333333139,
      "v": 80
    },
    {
      "midi": 45,
      "hit": false,
      "t": 240466.66666666663,
      "d": 1783.333333333314,
      "v": 80
    },
    {
      "midi": 52,
      "hit": false,
      "t": 240466.66666666663,
      "d": 1783.333333333314,
      "v": 89
    },
    {
      "midi": 65,
      "hit": false,
      "t": 241349.99999999994,
      "d": 300,
      "v": 110
    },
    {
      "midi": 74,
      "hit": false,
      "t": 241349.99999999994,
      "d": 300,
      "v": 120
    },
    {
      "midi": 67,
      "hit": false,
      "t": 242249.99999999994,
      "d": 300,
      "v": 105
    },
    {
      "midi": 76,
      "hit": false,
      "t": 242249.99999999994,
      "d": 300,
      "v": 105
    },
    {
      "midi": 77,
      "hit": false,
      "t": 242833.33333333328,
      "d": 600,
      "v": 96
    },
    {
      "midi": 57,
      "hit": false,
      "t": 242833.33333333328,
      "d": 900,
      "v": 80
    },
    {
      "midi": 62,
      "hit": false,
      "t": 242833.33333333328,
      "d": 900,
      "v": 80
    },
    {
      "midi": 65,
      "hit": false,
      "t": 242833.33333333328,
      "d": 900,
      "v": 105
    },
    {
      "midi": 69,
      "hit": false,
      "t": 242833.33333333328,
      "d": 900,
      "v": 105
    },
    {
      "midi": 50,
      "hit": false,
      "t": 242833.33333333328,
      "d": 1800,
      "v": 86
    },
    {
      "midi": 57,
      "hit": false,
      "t": 244033.33333333328,
      "d": 300,
      "v": 70
    },
    {
      "midi": 60,
      "hit": false,
      "t": 244333.33333333328,
      "d": 300,
      "v": 86
    },
    {
      "midi": 69,
      "hit": false,
      "t": 244633.33333333328,
      "d": 283.33333333334303,
      "v": 105
    },
    {
      "midi": 50,
      "hit": false,
      "t": 245216.66666666663,
      "d": 899.9999999999709,
      "v": 80
    },
    {
      "midi": 55,
      "hit": false,
      "t": 245216.66666666663,
      "d": 899.9999999999709,
      "v": 66
    },
    {
      "midi": 43,
      "hit": false,
      "t": 245216.66666666663,
      "d": 1783.3333333332848,
      "v": 65
    },
    {
      "midi": 58,
      "hit": false,
      "t": 245216.66666666663,
      "d": 1783.3333333332848,
      "v": 109
    },
    {
      "midi": 62,
      "hit": false,
      "t": 245216.66666666663,
      "d": 1783.3333333332848,
      "v": 100
    },
    {
      "midi": 67,
      "hit": false,
      "t": 245216.66666666663,
      "d": 2383.3333333332557,
      "v": 89
    },
    {
      "midi": 55,
      "hit": false,
      "t": 246416.6666666666,
      "d": 583.3333333333139,
      "v": 66
    },
    {
      "midi": 57,
      "hit": false,
      "t": 246999.9999999999,
      "d": 300,
      "v": 54
    },
    {
      "midi": 58,
      "hit": false,
      "t": 247299.9999999999,
      "d": 299.9999999999709,
      "v": 44
    },
    {
      "midi": 55,
      "hit": false,
      "t": 247599.99999999988,
      "d": 600,
      "v": 80
    },
    {
      "midi": 64,
      "hit": false,
      "t": 247599.99999999988,
      "d": 600,
      "v": 92
    },
    {
      "midi": 60,
      "hit": false,
      "t": 247599.99999999988,
      "d": 900,
      "v": 110
    },
    {
      "midi": 67,
      "hit": false,
      "t": 247599.99999999988,
      "d": 900,
      "v": 83
    },
    {
      "midi": 48,
      "hit": false,
      "t": 247599.99999999988,
      "d": 1783.333333333343,
      "v": 86
    },
    {
      "midi": 62,
      "hit": false,
      "t": 248499.99999999988,
      "d": 583.333333333343,
      "v": 96
    },
    {
      "midi": 65,
      "hit": false,
      "t": 248499.99999999988,
      "d": 583.333333333343,
      "v": 105
    },
    {
      "midi": 60,
      "hit": false,
      "t": 249083.33333333323,
      "d": 300,
      "v": 86
    },
    {
      "midi": 64,
      "hit": false,
      "t": 249083.33333333323,
      "d": 300,
      "v": 86
    },
    {
      "midi": 67,
      "hit": false,
      "t": 249083.33333333323,
      "d": 300,
      "v": 74
    },
    {
      "midi": 55,
      "hit": false,
      "t": 249383.33333333323,
      "d": 300,
      "v": 56
    },
    {
      "midi": 64,
      "hit": false,
      "t": 249983.33333333323,
      "d": 600,
      "v": 105
    },
    {
      "midi": 73,
      "hit": false,
      "t": 249983.33333333323,
      "d": 600,
      "v": 121
    },
    {
      "midi": 57,
      "hit": false,
      "t": 249983.33333333323,
      "d": 900,
      "v": 80
    },
    {
      "midi": 45,
      "hit": false,
      "t": 249983.33333333323,
      "d": 1783.333333333343,
      "v": 80
    },
    {
      "midi": 52,
      "hit": false,
      "t": 249983.33333333323,
      "d": 1783.333333333343,
      "v": 89
    },
    {
      "midi": 65,
      "hit": false,
      "t": 250883.33333333323,
      "d": 283.33333333334303,
      "v": 110
    },
    {
      "midi": 74,
      "hit": false,
      "t": 250883.33333333323,
      "d": 283.33333333334303,
      "v": 120
    },
    {
      "midi": 67,
      "hit": false,
      "t": 251766.66666666657,
      "d": 300,
      "v": 105
    },
    {
      "midi": 76,
      "hit": false,
      "t": 251766.66666666657,
      "d": 300,
      "v": 105
    },
    {
      "midi": 77,
      "hit": false,
      "t": 252366.66666666657,
      "d": 600,
      "v": 96
    },
    {
      "midi": 57,
      "hit": false,
      "t": 252366.66666666657,
      "d": 883.333333333343,
      "v": 80
    },
    {
      "midi": 62,
      "hit": false,
      "t": 252366.66666666657,
      "d": 883.333333333343,
      "v": 80
    },
    {
      "midi": 65,
      "hit": false,
      "t": 252366.66666666657,
      "d": 883.333333333343,
      "v": 105
    },
    {
      "midi": 69,
      "hit": false,
      "t": 252366.66666666657,
      "d": 883.333333333343,
      "v": 105
    },
    {
      "midi": 50,
      "hit": false,
      "t": 252366.66666666657,
      "d": 1783.333333333343,
      "v": 86
    },
    {
      "midi": 57,
      "hit": false,
      "t": 253549.9999999999,
      "d": 300,
      "v": 70
    },
    {
      "midi": 60,
      "hit": false,
      "t": 253849.9999999999,
      "d": 300,
      "v": 86
    },
    {
      "midi": 69,
      "hit": false,
      "t": 254149.9999999999,
      "d": 300,
      "v": 105
    },
    {
      "midi": 50,
      "hit": false,
      "t": 254749.9999999999,
      "d": 883.3333333332848,
      "v": 80
    },
    {
      "midi": 55,
      "hit": false,
      "t": 254749.9999999999,
      "d": 883.3333333332848,
      "v": 66
    },
    {
      "midi": 43,
      "hit": false,
      "t": 254749.9999999999,
      "d": 1783.3333333332848,
      "v": 65
    },
    {
      "midi": 58,
      "hit": false,
      "t": 254749.9999999999,
      "d": 1783.3333333332848,
      "v": 109
    },
    {
      "midi": 62,
      "hit": false,
      "t": 254749.9999999999,
      "d": 1783.3333333332848,
      "v": 100
    },
    {
      "midi": 67,
      "hit": false,
      "t": 254749.9999999999,
      "d": 2383.333333333285,
      "v": 89
    },
    {
      "midi": 55,
      "hit": false,
      "t": 255933.3333333332,
      "d": 600,
      "v": 66
    },
    {
      "midi": 57,
      "hit": false,
      "t": 256533.3333333332,
      "d": 300,
      "v": 54
    },
    {
      "midi": 58,
      "hit": false,
      "t": 256833.3333333332,
      "d": 300,
      "v": 44
    },
    {
      "midi": 55,
      "hit": false,
      "t": 257133.3333333332,
      "d": 583.3333333333139,
      "v": 80
    },
    {
      "midi": 64,
      "hit": false,
      "t": 257133.3333333332,
      "d": 583.3333333333139,
      "v": 92
    },
    {
      "midi": 60,
      "hit": false,
      "t": 257133.3333333332,
      "d": 883.3333333333139,
      "v": 110
    },
    {
      "midi": 67,
      "hit": false,
      "t": 257133.3333333332,
      "d": 883.3333333333139,
      "v": 83
    },
    {
      "midi": 48,
      "hit": false,
      "t": 257133.3333333332,
      "d": 1783.333333333314,
      "v": 86
    },
    {
      "midi": 62,
      "hit": false,
      "t": 258016.6666666665,
      "d": 600,
      "v": 96
    },
    {
      "midi": 65,
      "hit": false,
      "t": 258016.6666666665,
      "d": 600,
      "v": 105
    },
    {
      "midi": 60,
      "hit": false,
      "t": 258616.6666666665,
      "d": 300,
      "v": 86
    },
    {
      "midi": 64,
      "hit": false,
      "t": 258616.6666666665,
      "d": 300,
      "v": 86
    },
    {
      "midi": 67,
      "hit": false,
      "t": 258616.6666666665,
      "d": 300,
      "v": 74
    },
    {
      "midi": 55,
      "hit": false,
      "t": 258916.6666666665,
      "d": 300,
      "v": 56
    },
    {
      "midi": 64,
      "hit": false,
      "t": 259499.99999999983,
      "d": 600,
      "v": 105
    },
    {
      "midi": 73,
      "hit": false,
      "t": 259499.99999999983,
      "d": 600,
      "v": 121
    },
    {
      "midi": 57,
      "hit": false,
      "t": 259499.99999999983,
      "d": 900,
      "v": 80
    },
    {
      "midi": 45,
      "hit": false,
      "t": 259499.99999999983,
      "d": 1800,
      "v": 80
    },
    {
      "midi": 52,
      "hit": false,
      "t": 259499.99999999983,
      "d": 1800,
      "v": 89
    },
    {
      "midi": 65,
      "hit": false,
      "t": 260399.99999999983,
      "d": 300,
      "v": 110
    },
    {
      "midi": 74,
      "hit": false,
      "t": 260399.99999999983,
      "d": 300,
      "v": 120
    },
    {
      "midi": 67,
      "hit": false,
      "t": 261299.99999999983,
      "d": 283.33333333334303,
      "v": 105
    },
    {
      "midi": 76,
      "hit": false,
      "t": 261299.99999999983,
      "d": 283.33333333334303,
      "v": 105
    },
    {
      "midi": 77,
      "hit": false,
      "t": 261883.33333333317,
      "d": 599.9999999999709,
      "v": 96
    },
    {
      "midi": 57,
      "hit": false,
      "t": 261883.33333333317,
      "d": 899.9999999999709,
      "v": 80
    },
    {
      "midi": 62,
      "hit": false,
      "t": 261883.33333333317,
      "d": 899.9999999999709,
      "v": 80
    },
    {
      "midi": 65,
      "hit": false,
      "t": 261883.33333333317,
      "d": 899.9999999999709,
      "v": 105
    },
    {
      "midi": 69,
      "hit": false,
      "t": 261883.33333333317,
      "d": 899.9999999999709,
      "v": 105
    },
    {
      "midi": 50,
      "hit": false,
      "t": 261883.33333333317,
      "d": 1783.3333333332848,
      "v": 86
    },
    {
      "midi": 57,
      "hit": false,
      "t": 263083.33333333314,
      "d": 300,
      "v": 70
    },
    {
      "midi": 60,
      "hit": false,
      "t": 263383.33333333314,
      "d": 283.33333333331393,
      "v": 86
    },
    {
      "midi": 69,
      "hit": false,
      "t": 263666.66666666645,
      "d": 300,
      "v": 105
    },
    {
      "midi": 50,
      "hit": false,
      "t": 264266.66666666645,
      "d": 899.9999999999418,
      "v": 80
    },
    {
      "midi": 55,
      "hit": false,
      "t": 264266.66666666645,
      "d": 899.9999999999418,
      "v": 66
    },
    {
      "midi": 43,
      "hit": false,
      "t": 264266.66666666645,
      "d": 1783.3333333332557,
      "v": 65
    },
    {
      "midi": 58,
      "hit": false,
      "t": 264266.66666666645,
      "d": 1783.3333333332557,
      "v": 109
    },
    {
      "midi": 62,
      "hit": false,
      "t": 264266.66666666645,
      "d": 1783.3333333332557,
      "v": 100
    },
    {
      "midi": 67,
      "hit": false,
      "t": 264266.66666666645,
      "d": 2383.3333333332557,
      "v": 89
    },
    {
      "midi": 55,
      "hit": false,
      "t": 265466.6666666664,
      "d": 583.3333333333139,
      "v": 66
    },
    {
      "midi": 57,
      "hit": false,
      "t": 266049.9999999997,
      "d": 300,
      "v": 54
    },
    {
      "midi": 58,
      "hit": false,
      "t": 266349.9999999997,
      "d": 300,
      "v": 44
    },
    {
      "midi": 55,
      "hit": false,
      "t": 266649.9999999997,
      "d": 600.0000000000582,
      "v": 80
    },
    {
      "midi": 64,
      "hit": false,
      "t": 266649.9999999997,
      "d": 600.0000000000582,
      "v": 92
    },
    {
      "midi": 60,
      "hit": false,
      "t": 266649.9999999997,
      "d": 900.0000000000582,
      "v": 110
    },
    {
      "midi": 67,
      "hit": false,
      "t": 266649.9999999997,
      "d": 900.0000000000582,
      "v": 83
    },
    {
      "midi": 48,
      "hit": false,
      "t": 266649.9999999997,
      "d": 1783.3333333334303,
      "v": 86
    },
    {
      "midi": 62,
      "hit": false,
      "t": 267549.99999999977,
      "d": 583.3333333333721,
      "v": 96
    },
    {
      "midi": 65,
      "hit": false,
      "t": 267549.99999999977,
      "d": 583.3333333333721,
      "v": 105
    },
    {
      "midi": 60,
      "hit": false,
      "t": 268133.33333333314,
      "d": 300,
      "v": 86
    },
    {
      "midi": 64,
      "hit": false,
      "t": 268133.33333333314,
      "d": 300,
      "v": 86
    },
    {
      "midi": 67,
      "hit": false,
      "t": 268133.33333333314,
      "d": 300,
      "v": 74
    },
    {
      "midi": 55,
      "hit": false,
      "t": 268433.33333333314,
      "d": 300,
      "v": 56
    },
    {
      "midi": 64,
      "hit": false,
      "t": 269033.33333333314,
      "d": 600,
      "v": 105
    },
    {
      "midi": 73,
      "hit": false,
      "t": 269033.33333333314,
      "d": 600,
      "v": 121
    },
    {
      "midi": 57,
      "hit": false,
      "t": 269033.33333333314,
      "d": 883.3333333333139,
      "v": 80
    },
    {
      "midi": 45,
      "hit": false,
      "t": 269033.33333333314,
      "d": 1783.333333333314,
      "v": 80
    },
    {
      "midi": 52,
      "hit": false,
      "t": 269033.33333333314,
      "d": 1783.333333333314,
      "v": 89
    },
    {
      "midi": 65,
      "hit": false,
      "t": 269916.66666666645,
      "d": 300,
      "v": 110
    },
    {
      "midi": 74,
      "hit": false,
      "t": 269916.66666666645,
      "d": 300,
      "v": 120
    },
    {
      "midi": 67,
      "hit": false,
      "t": 270816.66666666645,
      "d": 300,
      "v": 105
    },
    {
      "midi": 76,
      "hit": false,
      "t": 270816.66666666645,
      "d": 300,
      "v": 105
    },
    {
      "midi": 77,
      "hit": false,
      "t": 271416.66666666645,
      "d": 583.3333333333139,
      "v": 96
    },
    {
      "midi": 57,
      "hit": false,
      "t": 271416.66666666645,
      "d": 883.3333333333139,
      "v": 80
    },
    {
      "midi": 62,
      "hit": false,
      "t": 271416.66666666645,
      "d": 883.3333333333139,
      "v": 80
    },
    {
      "midi": 65,
      "hit": false,
      "t": 271416.66666666645,
      "d": 883.3333333333139,
      "v": 105
    },
    {
      "midi": 69,
      "hit": false,
      "t": 271416.66666666645,
      "d": 883.3333333333139,
      "v": 105
    },
    {
      "midi": 50,
      "hit": false,
      "t": 271416.66666666645,
      "d": 1783.333333333314,
      "v": 86
    },
    {
      "midi": 57,
      "hit": false,
      "t": 272599.99999999977,
      "d": 300,
      "v": 70
    },
    {
      "midi": 60,
      "hit": false,
      "t": 272899.99999999977,
      "d": 300,
      "v": 86
    },
    {
      "midi": 69,
      "hit": false,
      "t": 273199.99999999977,
      "d": 300,
      "v": 105
    },
    {
      "midi": 50,
      "hit": false,
      "t": 273799.99999999977,
      "d": 883.3333333333139,
      "v": 80
    },
    {
      "midi": 55,
      "hit": false,
      "t": 273799.99999999977,
      "d": 883.3333333333139,
      "v": 66
    },
    {
      "midi": 43,
      "hit": false,
      "t": 273799.99999999977,
      "d": 1783.333333333314,
      "v": 65
    },
    {
      "midi": 58,
      "hit": false,
      "t": 273799.99999999977,
      "d": 1783.333333333314,
      "v": 109
    },
    {
      "midi": 62,
      "hit": false,
      "t": 273799.99999999977,
      "d": 1783.333333333314,
      "v": 100
    },
    {
      "midi": 67,
      "hit": false,
      "t": 273799.99999999977,
      "d": 2366.666666666628,
      "v": 89
    },
    {
      "midi": 55,
      "hit": false,
      "t": 274983.3333333331,
      "d": 600,
      "v": 66
    },
    {
      "midi": 57,
      "hit": false,
      "t": 275583.3333333331,
      "d": 300,
      "v": 54
    },
    {
      "midi": 58,
      "hit": false,
      "t": 275883.3333333331,
      "d": 283.33333333331393,
      "v": 44
    },
    {
      "midi": 55,
      "hit": false,
      "t": 276166.6666666664,
      "d": 600,
      "v": 80
    },
    {
      "midi": 64,
      "hit": false,
      "t": 276166.6666666664,
      "d": 600,
      "v": 92
    },
    {
      "midi": 60,
      "hit": false,
      "t": 276166.6666666664,
      "d": 900,
      "v": 110
    },
    {
      "midi": 67,
      "hit": false,
      "t": 276166.6666666664,
      "d": 900,
      "v": 83
    },
    {
      "midi": 48,
      "hit": false,
      "t": 276166.6666666664,
      "d": 1800,
      "v": 86
    },
    {
      "midi": 62,
      "hit": false,
      "t": 277066.6666666664,
      "d": 600,
      "v": 96
    },
    {
      "midi": 65,
      "hit": false,
      "t": 277066.6666666664,
      "d": 600,
      "v": 105
    },
    {
      "midi": 60,
      "hit": false,
      "t": 277666.6666666664,
      "d": 300,
      "v": 86
    },
    {
      "midi": 64,
      "hit": false,
      "t": 277666.6666666664,
      "d": 300,
      "v": 86
    },
    {
      "midi": 67,
      "hit": false,
      "t": 277666.6666666664,
      "d": 300,
      "v": 74
    },
    {
      "midi": 55,
      "hit": false,
      "t": 277966.6666666664,
      "d": 283.33333333331393,
      "v": 56
    },
    {
      "midi": 64,
      "hit": false,
      "t": 278549.9999999997,
      "d": 600,
      "v": 105
    },
    {
      "midi": 73,
      "hit": false,
      "t": 278549.9999999997,
      "d": 600,
      "v": 121
    },
    {
      "midi": 57,
      "hit": false,
      "t": 278549.9999999997,
      "d": 900,
      "v": 80
    },
    {
      "midi": 45,
      "hit": false,
      "t": 278549.9999999997,
      "d": 1783.3333333333721,
      "v": 80
    },
    {
      "midi": 52,
      "hit": false,
      "t": 278549.9999999997,
      "d": 1783.3333333333721,
      "v": 89
    },
    {
      "midi": 65,
      "hit": false,
      "t": 279449.9999999997,
      "d": 300,
      "v": 110
    },
    {
      "midi": 74,
      "hit": false,
      "t": 279449.9999999997,
      "d": 300,
      "v": 120
    },
    {
      "midi": 67,
      "hit": false,
      "t": 280333.3333333331,
      "d": 300,
      "v": 105
    },
    {
      "midi": 76,
      "hit": false,
      "t": 280333.3333333331,
      "d": 300,
      "v": 105
    },
    {
      "midi": 77,
      "hit": false,
      "t": 280933.3333333331,
      "d": 600.0000000000582,
      "v": 96
    },
    {
      "midi": 57,
      "hit": false,
      "t": 280933.3333333331,
      "d": 900.0000000000582,
      "v": 80
    },
    {
      "midi": 62,
      "hit": false,
      "t": 280933.3333333331,
      "d": 900.0000000000582,
      "v": 80
    },
    {
      "midi": 65,
      "hit": false,
      "t": 280933.3333333331,
      "d": 900.0000000000582,
      "v": 105
    },
    {
      "midi": 69,
      "hit": false,
      "t": 280933.3333333331,
      "d": 900.0000000000582,
      "v": 105
    },
    {
      "midi": 50,
      "hit": false,
      "t": 280933.3333333331,
      "d": 1783.3333333333721,
      "v": 86
    },
    {
      "midi": 57,
      "hit": false,
      "t": 282116.66666666645,
      "d": 300,
      "v": 70
    },
    {
      "midi": 60,
      "hit": false,
      "t": 282416.66666666645,
      "d": 300,
      "v": 86
    },
    {
      "midi": 69,
      "hit": false,
      "t": 282716.66666666645,
      "d": 300,
      "v": 105
    },
    {
      "midi": 50,
      "hit": false,
      "t": 283316.66666666645,
      "d": 883.3333333332557,
      "v": 80
    },
    {
      "midi": 55,
      "hit": false,
      "t": 283316.66666666645,
      "d": 883.3333333332557,
      "v": 66
    },
    {
      "midi": 43,
      "hit": false,
      "t": 283316.66666666645,
      "d": 1783.3333333332557,
      "v": 65
    },
    {
      "midi": 58,
      "hit": false,
      "t": 283316.66666666645,
      "d": 1783.3333333332557,
      "v": 109
    },
    {
      "midi": 62,
      "hit": false,
      "t": 283316.66666666645,
      "d": 1783.3333333332557,
      "v": 100
    },
    {
      "midi": 67,
      "hit": false,
      "t": 283316.66666666645,
      "d": 2383.3333333332557,
      "v": 89
    },
    {
      "midi": 55,
      "hit": false,
      "t": 284499.9999999997,
      "d": 600,
      "v": 66
    },
    {
      "midi": 57,
      "hit": false,
      "t": 285099.9999999997,
      "d": 300,
      "v": 54
    },
    {
      "midi": 58,
      "hit": false,
      "t": 285399.9999999997,
      "d": 300,
      "v": 44
    },
    {
      "midi": 55,
      "hit": false,
      "t": 285699.9999999997,
      "d": 583.3333333333721,
      "v": 80
    },
    {
      "midi": 64,
      "hit": false,
      "t": 285699.9999999997,
      "d": 583.3333333333721,
      "v": 92
    },
    {
      "midi": 60,
      "hit": false,
      "t": 285699.9999999997,
      "d": 883.3333333333721,
      "v": 110
    },
    {
      "midi": 67,
      "hit": false,
      "t": 285699.9999999997,
      "d": 883.3333333333721,
      "v": 83
    },
    {
      "midi": 48,
      "hit": false,
      "t": 285699.9999999997,
      "d": 1783.3333333333721,
      "v": 86
    },
    {
      "midi": 62,
      "hit": false,
      "t": 286583.3333333331,
      "d": 600,
      "v": 96
    },
    {
      "midi": 65,
      "hit": false,
      "t": 286583.3333333331,
      "d": 600,
      "v": 105
    },
    {
      "midi": 60,
      "hit": false,
      "t": 287183.3333333331,
      "d": 300,
      "v": 86
    },
    {
      "midi": 64,
      "hit": false,
      "t": 287183.3333333331,
      "d": 300,
      "v": 86
    },
    {
      "midi": 67,
      "hit": false,
      "t": 287183.3333333331,
      "d": 300,
      "v": 74
    },
    {
      "midi": 55,
      "hit": false,
      "t": 287483.3333333331,
      "d": 300,
      "v": 56
    },
    {
      "midi": 64,
      "hit": false,
      "t": 288083.3333333331,
      "d": 583.3333333333139,
      "v": 105
    },
    {
      "midi": 73,
      "hit": false,
      "t": 288083.3333333331,
      "d": 583.3333333333139,
      "v": 121
    },
    {
      "midi": 57,
      "hit": false,
      "t": 288083.3333333331,
      "d": 883.3333333333139,
      "v": 80
    },
    {
      "midi": 45,
      "hit": false,
      "t": 288083.3333333331,
      "d": 1783.333333333314,
      "v": 80
    },
    {
      "midi": 52,
      "hit": false,
      "t": 288083.3333333331,
      "d": 1783.333333333314,
      "v": 89
    },
    {
      "midi": 65,
      "hit": false,
      "t": 288966.6666666664,
      "d": 300,
      "v": 110
    },
    {
      "midi": 74,
      "hit": false,
      "t": 288966.6666666664,
      "d": 300,
      "v": 120
    },
    {
      "midi": 67,
      "hit": false,
      "t": 289866.6666666664,
      "d": 300,
      "v": 105
    },
    {
      "midi": 76,
      "hit": false,
      "t": 289866.6666666664,
      "d": 300,
      "v": 105
    },
    {
      "midi": 77,
      "hit": false,
      "t": 290449.9999999997,
      "d": 600,
      "v": 96
    },
    {
      "midi": 57,
      "hit": false,
      "t": 290449.9999999997,
      "d": 900,
      "v": 80
    },
    {
      "midi": 62,
      "hit": false,
      "t": 290449.9999999997,
      "d": 900,
      "v": 80
    },
    {
      "midi": 65,
      "hit": false,
      "t": 290449.9999999997,
      "d": 900,
      "v": 105
    },
    {
      "midi": 69,
      "hit": false,
      "t": 290449.9999999997,
      "d": 900,
      "v": 105
    },
    {
      "midi": 50,
      "hit": false,
      "t": 290449.9999999997,
      "d": 1800,
      "v": 86
    },
    {
      "midi": 57,
      "hit": false,
      "t": 291649.9999999997,
      "d": 300,
      "v": 70
    },
    {
      "midi": 60,
      "hit": false,
      "t": 291949.9999999997,
      "d": 300,
      "v": 86
    },
    {
      "midi": 69,
      "hit": false,
      "t": 292249.9999999997,
      "d": 283.33333333331393,
      "v": 105
    },
    {
      "midi": 50,
      "hit": false,
      "t": 292833.333333333,
      "d": 900,
      "v": 80
    },
    {
      "midi": 55,
      "hit": false,
      "t": 292833.333333333,
      "d": 900,
      "v": 66
    },
    {
      "midi": 43,
      "hit": false,
      "t": 292833.333333333,
      "d": 1783.333333333314,
      "v": 65
    },
    {
      "midi": 58,
      "hit": false,
      "t": 292833.333333333,
      "d": 1783.333333333314,
      "v": 109
    },
    {
      "midi": 62,
      "hit": false,
      "t": 292833.333333333,
      "d": 1783.333333333314,
      "v": 100
    },
    {
      "midi": 67,
      "hit": false,
      "t": 292833.333333333,
      "d": 2383.333333333372,
      "v": 89
    },
    {
      "midi": 55,
      "hit": false,
      "t": 294033.333333333,
      "d": 583.3333333333139,
      "v": 66
    },
    {
      "midi": 57,
      "hit": false,
      "t": 294616.66666666634,
      "d": 300,
      "v": 54
    },
    {
      "midi": 58,
      "hit": false,
      "t": 294916.66666666634,
      "d": 300.0000000000582,
      "v": 44
    },
    {
      "midi": 55,
      "hit": false,
      "t": 295216.6666666664,
      "d": 600,
      "v": 80
    },
    {
      "midi": 64,
      "hit": false,
      "t": 295216.6666666664,
      "d": 600,
      "v": 92
    },
    {
      "midi": 60,
      "hit": false,
      "t": 295216.6666666664,
      "d": 900,
      "v": 110
    },
    {
      "midi": 67,
      "hit": false,
      "t": 295216.6666666664,
      "d": 900,
      "v": 83
    },
    {
      "midi": 48,
      "hit": false,
      "t": 295216.6666666664,
      "d": 1783.333333333314,
      "v": 86
    },
    {
      "midi": 62,
      "hit": false,
      "t": 296116.6666666664,
      "d": 583.3333333333139,
      "v": 96
    },
    {
      "midi": 65,
      "hit": false,
      "t": 296116.6666666664,
      "d": 583.3333333333139,
      "v": 105
    },
    {
      "midi": 60,
      "hit": false,
      "t": 296699.9999999997,
      "d": 300,
      "v": 86
    },
    {
      "midi": 64,
      "hit": false,
      "t": 296699.9999999997,
      "d": 300,
      "v": 86
    },
    {
      "midi": 67,
      "hit": false,
      "t": 296699.9999999997,
      "d": 300,
      "v": 74
    },
    {
      "midi": 55,
      "hit": false,
      "t": 296999.9999999997,
      "d": 300,
      "v": 56
    },
    {
      "midi": 64,
      "hit": false,
      "t": 297599.9999999997,
      "d": 600,
      "v": 105
    },
    {
      "midi": 73,
      "hit": false,
      "t": 297599.9999999997,
      "d": 600,
      "v": 121
    },
    {
      "midi": 57,
      "hit": false,
      "t": 297599.9999999997,
      "d": 900,
      "v": 80
    },
    {
      "midi": 45,
      "hit": false,
      "t": 297599.9999999997,
      "d": 1783.333333333314,
      "v": 80
    },
    {
      "midi": 52,
      "hit": false,
      "t": 297599.9999999997,
      "d": 1783.333333333314,
      "v": 89
    },
    {
      "midi": 65,
      "hit": false,
      "t": 298499.9999999997,
      "d": 283.33333333331393,
      "v": 110
    },
    {
      "midi": 74,
      "hit": false,
      "t": 298499.9999999997,
      "d": 283.33333333331393,
      "v": 120
    },
    {
      "midi": 67,
      "hit": false,
      "t": 299383.333333333,
      "d": 300,
      "v": 105
    },
    {
      "midi": 76,
      "hit": false,
      "t": 299383.333333333,
      "d": 300,
      "v": 105
    }
  ]
}