{
  "jsonPath": "Rock/Finnish Metal/SONATA ARCTICA/fullmoon.json",
  "path": "Rock\\Finnish Metal\\SONATA ARCTICA\\FullMoon.mid",
  "name": "FullMoon",
  "difficulty": "Advanced",
  "bpm": 159.00357758049557,
  "notes": [
    {
      "midi": 80,
      "hit": false,
      "t": 7452.662499999999,
      "d": 471.6875000000009,
      "v": 81
    },
    {
      "midi": 82,
      "hit": false,
      "t": 7476.246875,
      "d": 448.10312500000055,
      "v": 86
    },
    {
      "midi": 83,
      "hit": false,
      "t": 7499.83125,
      "d": 424.5187500000002,
      "v": 93
    },
    {
      "midi": 87,
      "hit": false,
      "t": 7547,
      "d": 377.35000000000036,
      "v": 101
    },
    {
      "midi": 68,
      "hit": false,
      "t": 7547,
      "d": 3018.800000000001,
      "v": 91
    },
    {
      "midi": 80,
      "hit": false,
      "t": 7924.35,
      "d": 754.7000000000007,
      "v": 91
    },
    {
      "midi": 82,
      "hit": false,
      "t": 8301.7,
      "d": 377.35000000000036,
      "v": 98
    },
    {
      "midi": 83,
      "hit": false,
      "t": 8301.7,
      "d": 377.35000000000036,
      "v": 98
    },
    {
      "midi": 87,
      "hit": false,
      "t": 8301.7,
      "d": 377.35000000000036,
      "v": 98
    },
    {
      "midi": 80,
      "hit": false,
      "t": 8679.050000000001,
      "d": 754.7000000000007,
      "v": 95
    },
    {
      "midi": 82,
      "hit": false,
      "t": 9056.400000000001,
      "d": 377.35000000000036,
      "v": 100
    },
    {
      "midi": 83,
      "hit": false,
      "t": 9056.400000000001,
      "d": 377.35000000000036,
      "v": 100
    },
    {
      "midi": 87,
      "hit": false,
      "t": 9056.400000000001,
      "d": 377.35000000000036,
      "v": 100
    },
    {
      "midi": 80,
      "hit": false,
      "t": 9433.750000000002,
      "d": 1037.7124999999978,
      "v": 95
    },
    {
      "midi": 82,
      "hit": false,
      "t": 9622.425000000001,
      "d": 188.67499999999927,
      "v": 91
    },
    {
      "midi": 83,
      "hit": false,
      "t": 9811.1,
      "d": 188.67499999999927,
      "v": 93
    },
    {
      "midi": 87,
      "hit": false,
      "t": 9999.775,
      "d": 188.67499999999927,
      "v": 89
    },
    {
      "midi": 83,
      "hit": false,
      "t": 10188.449999999999,
      "d": 377.3500000000022,
      "v": 97
    },
    {
      "midi": 78,
      "hit": false,
      "t": 10471.4625,
      "d": 471.6875000000018,
      "v": 82
    },
    {
      "midi": 80,
      "hit": false,
      "t": 10495.046875,
      "d": 448.10312500000146,
      "v": 87
    },
    {
      "midi": 82,
      "hit": false,
      "t": 10518.63125,
      "d": 424.5187500000011,
      "v": 93
    },
    {
      "midi": 85,
      "hit": false,
      "t": 10565.800000000001,
      "d": 377.35000000000036,
      "v": 100
    },
    {
      "midi": 68,
      "hit": false,
      "t": 10565.800000000001,
      "d": 3018.7999999999993,
      "v": 89
    },
    {
      "midi": 78,
      "hit": false,
      "t": 10943.150000000001,
      "d": 754.7000000000007,
      "v": 90
    },
    {
      "midi": 80,
      "hit": false,
      "t": 11320.500000000002,
      "d": 377.35000000000036,
      "v": 97
    },
    {
      "midi": 82,
      "hit": false,
      "t": 11320.500000000002,
      "d": 377.35000000000036,
      "v": 97
    },
    {
      "midi": 85,
      "hit": false,
      "t": 11320.500000000002,
      "d": 377.35000000000036,
      "v": 97
    },
    {
      "midi": 78,
      "hit": false,
      "t": 11697.850000000002,
      "d": 754.7000000000007,
      "v": 93
    },
    {
      "midi": 80,
      "hit": false,
      "t": 12075.200000000003,
      "d": 377.35000000000036,
      "v": 100
    },
    {
      "midi": 82,
      "hit": false,
      "t": 12075.200000000003,
      "d": 377.35000000000036,
      "v": 100
    },
    {
      "midi": 85,
      "hit": false,
      "t": 12075.200000000003,
      "d": 377.35000000000036,
      "v": 100
    },
    {
      "midi": 78,
      "hit": false,
      "t": 12452.550000000003,
      "d": 1037.712499999996,
      "v": 93
    },
    {
      "midi": 80,
      "hit": false,
      "t": 12641.225000000002,
      "d": 188.67499999999927,
      "v": 87
    },
    {
      "midi": 82,
      "hit": false,
      "t": 12829.900000000001,
      "d": 188.67499999999927,
      "v": 94
    },
    {
      "midi": 85,
      "hit": false,
      "t": 13018.575,
      "d": 188.67499999999927,
      "v": 91
    },
    {
      "midi": 82,
      "hit": false,
      "t": 13207.25,
      "d": 188.67499999999927,
      "v": 94
    },
    {
      "midi": 80,
      "hit": false,
      "t": 13395.925,
      "d": 117.921875,
      "v": 91
    },
    {
      "midi": 75,
      "hit": false,
      "t": 13490.262499999999,
      "d": 471.6875000000018,
      "v": 84
    },
    {
      "midi": 80,
      "hit": false,
      "t": 13513.846875,
      "d": 448.10312500000146,
      "v": 88
    },
    {
      "midi": 82,
      "hit": false,
      "t": 13537.43125,
      "d": 424.5187500000011,
      "v": 94
    },
    {
      "midi": 83,
      "hit": false,
      "t": 13584.6,
      "d": 377.35000000000036,
      "v": 98
    },
    {
      "midi": 68,
      "hit": false,
      "t": 13584.6,
      "d": 2641.4499999999953,
      "v": 89
    },
    {
      "midi": 75,
      "hit": false,
      "t": 13961.95,
      "d": 754.7000000000007,
      "v": 90
    },
    {
      "midi": 80,
      "hit": false,
      "t": 14339.300000000001,
      "d": 377.35000000000036,
      "v": 96
    },
    {
      "midi": 83,
      "hit": false,
      "t": 14339.300000000001,
      "d": 377.35000000000036,
      "v": 96
    },
    {
      "midi": 75,
      "hit": false,
      "t": 14716.650000000001,
      "d": 754.6999999999971,
      "v": 91
    },
    {
      "midi": 80,
      "hit": false,
      "t": 14905.325,
      "d": 188.67499999999927,
      "v": 96
    },
    {
      "midi": 85,
      "hit": false,
      "t": 15094,
      "d": 377.34999999999854,
      "v": 92
    },
    {
      "midi": 83,
      "hit": false,
      "t": 15282.675,
      "d": 188.67499999999927,
      "v": 60
    },
    {
      "midi": 75,
      "hit": false,
      "t": 15471.349999999999,
      "d": 1132.0499999999956,
      "v": 91
    },
    {
      "midi": 80,
      "hit": false,
      "t": 15660.024999999998,
      "d": 188.67499999999927,
      "v": 98
    },
    {
      "midi": 82,
      "hit": false,
      "t": 15848.699999999997,
      "d": 188.67499999999927,
      "v": 90
    },
    {
      "midi": 83,
      "hit": false,
      "t": 16037.374999999996,
      "d": 566.0249999999978,
      "v": 95
    },
    {
      "midi": 68,
      "hit": false,
      "t": 16226.049999999996,
      "d": 377.34999999999854,
      "v": 78
    },
    {
      "midi": 73,
      "hit": false,
      "t": 16509.062499999996,
      "d": 471.68749999999636,
      "v": 80
    },
    {
      "midi": 78,
      "hit": false,
      "t": 16532.646874999995,
      "d": 448.1031249999978,
      "v": 86
    },
    {
      "midi": 80,
      "hit": false,
      "t": 16556.231249999993,
      "d": 424.5187499999993,
      "v": 93
    },
    {
      "midi": 82,
      "hit": false,
      "t": 16603.399999999994,
      "d": 377.34999999999854,
      "v": 100
    },
    {
      "midi": 68,
      "hit": false,
      "t": 16603.399999999994,
      "d": 3018.7999999999884,
      "v": 90
    },
    {
      "midi": 73,
      "hit": false,
      "t": 16980.749999999993,
      "d": 754.6999999999971,
      "v": 87
    },
    {
      "midi": 78,
      "hit": false,
      "t": 17358.09999999999,
      "d": 377.34999999999854,
      "v": 94
    },
    {
      "midi": 80,
      "hit": false,
      "t": 17358.09999999999,
      "d": 377.34999999999854,
      "v": 73
    },
    {
      "midi": 82,
      "hit": false,
      "t": 17358.09999999999,
      "d": 377.34999999999854,
      "v": 94
    },
    {
      "midi": 73,
      "hit": false,
      "t": 17735.44999999999,
      "d": 754.6999999999971,
      "v": 88
    },
    {
      "midi": 78,
      "hit": false,
      "t": 18112.79999999999,
      "d": 377.34999999999854,
      "v": 94
    },
    {
      "midi": 80,
      "hit": false,
      "t": 18112.79999999999,
      "d": 377.34999999999854,
      "v": 75
    },
    {
      "midi": 82,
      "hit": false,
      "t": 18112.79999999999,
      "d": 377.34999999999854,
      "v": 94
    },
    {
      "midi": 73,
      "hit": false,
      "t": 18490.149999999987,
      "d": 1132.0499999999956,
      "v": 94
    },
    {
      "midi": 78,
      "hit": false,
      "t": 18678.824999999986,
      "d": 943.3749999999964,
      "v": 89
    },
    {
      "midi": 82,
      "hit": false,
      "t": 18867.499999999985,
      "d": 660.3624999999993,
      "v": 95
    },
    {
      "midi": 83,
      "hit": false,
      "t": 19056.174999999985,
      "d": 471.6875,
      "v": 87
    },
    {
      "midi": 85,
      "hit": false,
      "t": 19244.849999999984,
      "d": 377.34999999999854,
      "v": 96
    },
    {
      "midi": 80,
      "hit": false,
      "t": 19527.862499999985,
      "d": 471.68749999999636,
      "v": 81
    },
    {
      "midi": 82,
      "hit": false,
      "t": 19551.446874999983,
      "d": 448.1031249999978,
      "v": 86
    },
    {
      "midi": 83,
      "hit": false,
      "t": 19575.03124999998,
      "d": 424.5187499999993,
      "v": 93
    },
    {
      "midi": 87,
      "hit": false,
      "t": 19622.199999999983,
      "d": 377.34999999999854,
      "v": 101
    },
    {
      "midi": 68,
      "hit": false,
      "t": 19622.199999999983,
      "d": 3018.7999999999884,
      "v": 91
    },
    {
      "midi": 80,
      "hit": false,
      "t": 19999.54999999998,
      "d": 943.3749999999964,
      "v": 91
    },
    {
      "midi": 82,
      "hit": false,
      "t": 20188.22499999998,
      "d": 188.67499999999927,
      "v": 82
    },
    {
      "midi": 87,
      "hit": false,
      "t": 20376.89999999998,
      "d": 188.67499999999927,
      "v": 91
    },
    {
      "midi": 83,
      "hit": false,
      "t": 20565.57499999998,
      "d": 188.67499999999927,
      "v": 84
    },
    {
      "midi": 82,
      "hit": false,
      "t": 20754.249999999978,
      "d": 188.67499999999927,
      "v": 95
    },
    {
      "midi": 80,
      "hit": false,
      "t": 20942.924999999977,
      "d": 188.67499999999927,
      "v": 89
    },
    {
      "midi": 90,
      "hit": false,
      "t": 21131.599999999977,
      "d": 188.67499999999927,
      "v": 96
    },
    {
      "midi": 87,
      "hit": false,
      "t": 21320.274999999976,
      "d": 188.67499999999927,
      "v": 89
    },
    {
      "midi": 83,
      "hit": false,
      "t": 21508.949999999975,
      "d": 188.67499999999927,
      "v": 95
    },
    {
      "midi": 82,
      "hit": false,
      "t": 21697.624999999975,
      "d": 188.67499999999927,
      "v": 93
    },
    {
      "midi": 80,
      "hit": false,
      "t": 21886.299999999974,
      "d": 188.67499999999927,
      "v": 97
    },
    {
      "midi": 82,
      "hit": false,
      "t": 22074.974999999973,
      "d": 188.67499999999927,
      "v": 88
    },
    {
      "midi": 83,
      "hit": false,
      "t": 22263.649999999972,
      "d": 188.67499999999927,
      "v": 97
    },
    {
      "midi": 87,
      "hit": false,
      "t": 22452.32499999997,
      "d": 188.67499999999927,
      "v": 94
    },
    {
      "midi": 80,
      "hit": false,
      "t": 22640.99999999997,
      "d": 377.34999999999854,
      "v": 82
    },
    {
      "midi": 82,
      "hit": false,
      "t": 22640.99999999997,
      "d": 377.34999999999854,
      "v": 82
    },
    {
      "midi": 85,
      "hit": false,
      "t": 22640.99999999997,
      "d": 377.34999999999854,
      "v": 82
    },
    {
      "midi": 68,
      "hit": false,
      "t": 22640.99999999997,
      "d": 3018.7999999999884,
      "v": 91
    },
    {
      "midi": 78,
      "hit": false,
      "t": 23018.34999999997,
      "d": 754.6999999999971,
      "v": 74
    },
    {
      "midi": 80,
      "hit": false,
      "t": 23395.699999999968,
      "d": 377.34999999999854,
      "v": 84
    },
    {
      "midi": 82,
      "hit": false,
      "t": 23395.699999999968,
      "d": 377.34999999999854,
      "v": 84
    },
    {
      "midi": 85,
      "hit": false,
      "t": 23395.699999999968,
      "d": 377.34999999999854,
      "v": 84
    },
    {
      "midi": 78,
      "hit": false,
      "t": 23773.049999999967,
      "d": 754.6999999999971,
      "v": 77
    },
    {
      "midi": 80,
      "hit": false,
      "t": 24150.399999999965,
      "d": 377.34999999999854,
      "v": 81
    },
    {
      "midi": 82,
      "hit": false,
      "t": 24150.399999999965,
      "d": 377.34999999999854,
      "v": 81
    },
    {
      "midi": 85,
      "hit": false,
      "t": 24150.399999999965,
      "d": 377.34999999999854,
      "v": 81
    },
    {
      "midi": 78,
      "hit": false,
      "t": 24527.749999999964,
      "d": 188.67499999999927,
      "v": 102
    },
    {
      "midi": 80,
      "hit": false,
      "t": 24716.424999999963,
      "d": 188.67499999999927,
      "v": 90
    },
    {
      "midi": 82,
      "hit": false,
      "t": 24905.099999999962,
      "d": 188.67499999999927,
      "v": 103
    },
    {
      "midi": 85,
      "hit": false,
      "t": 25093.77499999996,
      "d": 188.67499999999927,
      "v": 95
    },
    {
      "midi": 82,
      "hit": false,
      "t": 25282.44999999996,
      "d": 188.67499999999927,
      "v": 107
    },
    {
      "midi": 80,
      "hit": false,
      "t": 25471.12499999996,
      "d": 188.67499999999927,
      "v": 103
    },
    {
      "midi": 80,
      "hit": false,
      "t": 25659.79999999996,
      "d": 377.34999999999854,
      "v": 92
    },
    {
      "midi": 82,
      "hit": false,
      "t": 25659.79999999996,
      "d": 377.34999999999854,
      "v": 92
    },
    {
      "midi": 83,
      "hit": false,
      "t": 25659.79999999996,
      "d": 377.34999999999854,
      "v": 92
    },
    {
      "midi": 68,
      "hit": false,
      "t": 25659.79999999996,
      "d": 3018.7999999999884,
      "v": 91
    },
    {
      "midi": 75,
      "hit": false,
      "t": 26037.149999999958,
      "d": 754.6999999999971,
      "v": 86
    },
    {
      "midi": 80,
      "hit": false,
      "t": 26414.499999999956,
      "d": 377.34999999999854,
      "v": 94
    },
    {
      "midi": 82,
      "hit": false,
      "t": 26414.499999999956,
      "d": 377.34999999999854,
      "v": 94
    },
    {
      "midi": 83,
      "hit": false,
      "t": 26414.499999999956,
      "d": 377.34999999999854,
      "v": 94
    },
    {
      "midi": 75,
      "hit": false,
      "t": 26791.849999999955,
      "d": 754.6999999999971,
      "v": 88
    },
    {
      "midi": 80,
      "hit": false,
      "t": 26980.524999999954,
      "d": 188.67499999999927,
      "v": 79
    },
    {
      "midi": 85,
      "hit": false,
      "t": 27169.199999999953,
      "d": 188.67499999999927,
      "v": 108
    },
    {
      "midi": 83,
      "hit": false,
      "t": 27357.874999999953,
      "d": 188.67499999999927,
      "v": 98
    },
    {
      "midi": 75,
      "hit": false,
      "t": 27546.549999999952,
      "d": 188.67499999999927,
      "v": 90
    },
    {
      "midi": 80,
      "hit": false,
      "t": 27735.22499999995,
      "d": 188.67499999999927,
      "v": 98
    },
    {
      "midi": 82,
      "hit": false,
      "t": 27923.89999999995,
      "d": 188.67499999999927,
      "v": 112
    },
    {
      "midi": 83,
      "hit": false,
      "t": 28112.57499999995,
      "d": 566.0249999999978,
      "v": 104
    },
    {
      "midi": 73,
      "hit": false,
      "t": 28584.26249999995,
      "d": 471.68749999999636,
      "v": 80
    },
    {
      "midi": 78,
      "hit": false,
      "t": 28607.84687499995,
      "d": 448.1031249999978,
      "v": 86
    },
    {
      "midi": 80,
      "hit": false,
      "t": 28631.431249999947,
      "d": 424.5187499999993,
      "v": 93
    },
    {
      "midi": 82,
      "hit": false,
      "t": 28678.599999999948,
      "d": 377.34999999999854,
      "v": 100
    },
    {
      "midi": 68,
      "hit": false,
      "t": 28678.599999999948,
      "d": 3018.7999999999956,
      "v": 90
    },
    {
      "midi": 73,
      "hit": false,
      "t": 29055.949999999946,
      "d": 943.3749999999964,
      "v": 77
    },
    {
      "midi": 82,
      "hit": false,
      "t": 29433.299999999945,
      "d": 754.6999999999971,
      "v": 90
    },
    {
      "midi": 80,
      "hit": false,
      "t": 29621.974999999944,
      "d": 566.0249999999978,
      "v": 81
    },
    {
      "midi": 78,
      "hit": false,
      "t": 29810.649999999943,
      "d": 377.34999999999854,
      "v": 89
    },
    {
      "midi": 73,
      "hit": false,
      "t": 29999.324999999943,
      "d": 188.67499999999927,
      "v": 82
    },
    {
      "midi": 73,
      "hit": false,
      "t": 30187.99999999994,
      "d": 1509.4000000000015,
      "v": 87
    },
    {
      "midi": 78,
      "hit": false,
      "t": 30187.99999999994,
      "d": 1509.4000000000015,
      "v": 87
    },
    {
      "midi": 80,
      "hit": false,
      "t": 30187.99999999994,
      "d": 1509.4000000000015,
      "v": 87
    },
    {
      "midi": 82,
      "hit": false,
      "t": 30187.99999999994,
      "d": 1509.4000000000015,
      "v": 87
    },
    {
      "midi": 68,
      "hit": false,
      "t": 31697.399999999943,
      "d": 754.6999999999971,
      "v": 97
    },
    {
      "midi": 70,
      "hit": false,
      "t": 31697.399999999943,
      "d": 754.6999999999971,
      "v": 97
    },
    {
      "midi": 71,
      "hit": false,
      "t": 31697.399999999943,
      "d": 754.6999999999971,
      "v": 97
    },
    {
      "midi": 63,
      "hit": false,
      "t": 32074.74999999994,
      "d": 754.6999999999971,
      "v": 84
    },
    {
      "midi": 68,
      "hit": false,
      "t": 32452.09999999994,
      "d": 754.6999999999971,
      "v": 97
    },
    {
      "midi": 70,
      "hit": false,
      "t": 32452.09999999994,
      "d": 754.6999999999971,
      "v": 97
    },
    {
      "midi": 71,
      "hit": false,
      "t": 32452.09999999994,
      "d": 754.6999999999971,
      "v": 97
    },
    {
      "midi": 63,
      "hit": false,
      "t": 32829.44999999994,
      "d": 754.6999999999971,
      "v": 84
    },
    {
      "midi": 68,
      "hit": false,
      "t": 33206.79999999994,
      "d": 566.0250000000015,
      "v": 100
    },
    {
      "midi": 70,
      "hit": false,
      "t": 33206.79999999994,
      "d": 566.0250000000015,
      "v": 100
    },
    {
      "midi": 71,
      "hit": false,
      "t": 33206.79999999994,
      "d": 566.0250000000015,
      "v": 100
    },
    {
      "midi": 63,
      "hit": false,
      "t": 33584.149999999936,
      "d": 943.3750000000146,
      "v": 95
    },
    {
      "midi": 68,
      "hit": false,
      "t": 33772.82499999994,
      "d": 188.6750000000029,
      "v": 90
    },
    {
      "midi": 71,
      "hit": false,
      "t": 33961.49999999994,
      "d": 188.6750000000029,
      "v": 102
    },
    {
      "midi": 70,
      "hit": false,
      "t": 34150.174999999945,
      "d": 188.6750000000029,
      "v": 97
    },
    {
      "midi": 68,
      "hit": false,
      "t": 34338.84999999995,
      "d": 377.3500000000058,
      "v": 101
    },
    {
      "midi": 63,
      "hit": false,
      "t": 34527.52499999995,
      "d": 188.6750000000029,
      "v": 97
    },
    {
      "midi": 66,
      "hit": false,
      "t": 34716.19999999995,
      "d": 754.6999999999971,
      "v": 92
    },
    {
      "midi": 68,
      "hit": false,
      "t": 34716.19999999995,
      "d": 754.6999999999971,
      "v": 92
    },
    {
      "midi": 70,
      "hit": false,
      "t": 34716.19999999995,
      "d": 754.6999999999971,
      "v": 92
    },
    {
      "midi": 61,
      "hit": false,
      "t": 35093.54999999995,
      "d": 754.6999999999971,
      "v": 86
    },
    {
      "midi": 66,
      "hit": false,
      "t": 35470.89999999995,
      "d": 754.6999999999971,
      "v": 96
    },
    {
      "midi": 68,
      "hit": false,
      "t": 35470.89999999995,
      "d": 754.6999999999971,
      "v": 96
    },
    {
      "midi": 70,
      "hit": false,
      "t": 35470.89999999995,
      "d": 754.6999999999971,
      "v": 96
    },
    {
      "midi": 61,
      "hit": false,
      "t": 35848.24999999995,
      "d": 754.6999999999971,
      "v": 91
    },
    {
      "midi": 66,
      "hit": false,
      "t": 36225.59999999995,
      "d": 377.34999999999854,
      "v": 100
    },
    {
      "midi": 68,
      "hit": false,
      "t": 36225.59999999995,
      "d": 377.34999999999854,
      "v": 100
    },
    {
      "midi": 70,
      "hit": false,
      "t": 36225.59999999995,
      "d": 377.34999999999854,
      "v": 100
    },
    {
      "midi": 61,
      "hit": false,
      "t": 36602.949999999946,
      "d": 943.3750000000146,
      "v": 95
    },
    {
      "midi": 66,
      "hit": false,
      "t": 36791.62499999995,
      "d": 188.6750000000029,
      "v": 84
    },
    {
      "midi": 70,
      "hit": false,
      "t": 36980.29999999995,
      "d": 188.6750000000029,
      "v": 102
    },
    {
      "midi": 68,
      "hit": false,
      "t": 37168.974999999955,
      "d": 188.6750000000029,
      "v": 91
    },
    {
      "midi": 66,
      "hit": false,
      "t": 37357.64999999996,
      "d": 377.3500000000058,
      "v": 97
    },
    {
      "midi": 61,
      "hit": false,
      "t": 37546.32499999996,
      "d": 188.6750000000029,
      "v": 95
    },
    {
      "midi": 68,
      "hit": false,
      "t": 37734.99999999996,
      "d": 754.6999999999971,
      "v": 98
    },
    {
      "midi": 70,
      "hit": false,
      "t": 37734.99999999996,
      "d": 754.6999999999971,
      "v": 98
    },
    {
      "midi": 71,
      "hit": false,
      "t": 37734.99999999996,
      "d": 754.6999999999971,
      "v": 98
    },
    {
      "midi": 63,
      "hit": false,
      "t": 38112.34999999996,
      "d": 754.6999999999971,
      "v": 91
    },
    {
      "midi": 68,
      "hit": false,
      "t": 38489.69999999996,
      "d": 754.6999999999971,
      "v": 103
    },
    {
      "midi": 70,
      "hit": false,
      "t": 38489.69999999996,
      "d": 754.6999999999971,
      "v": 103
    },
    {
      "midi": 71,
      "hit": false,
      "t": 38489.69999999996,
      "d": 754.6999999999971,
      "v": 103
    },
    {
      "midi": 63,
      "hit": false,
      "t": 38867.04999999996,
      "d": 754.6999999999971,
      "v": 93
    },
    {
      "midi": 68,
      "hit": false,
      "t": 39244.39999999996,
      "d": 377.34999999999854,
      "v": 103
    },
    {
      "midi": 70,
      "hit": false,
      "t": 39244.39999999996,
      "d": 377.34999999999854,
      "v": 103
    },
    {
      "midi": 71,
      "hit": false,
      "t": 39244.39999999996,
      "d": 377.34999999999854,
      "v": 103
    },
    {
      "midi": 63,
      "hit": false,
      "t": 39621.749999999956,
      "d": 943.3750000000146,
      "v": 93
    },
    {
      "midi": 68,
      "hit": false,
      "t": 39810.42499999996,
      "d": 188.6750000000029,
      "v": 93
    },
    {
      "midi": 71,
      "hit": false,
      "t": 39999.09999999996,
      "d": 188.6750000000029,
      "v": 91
    },
    {
      "midi": 70,
      "hit": false,
      "t": 40187.774999999965,
      "d": 188.6750000000029,
      "v": 95
    },
    {
      "midi": 68,
      "hit": false,
      "t": 40376.44999999997,
      "d": 377.3500000000058,
      "v": 97
    },
    {
      "midi": 63,
      "hit": false,
      "t": 40565.12499999997,
      "d": 188.6750000000029,
      "v": 100
    },
    {
      "midi": 73,
      "hit": false,
      "t": 40753.799999999974,
      "d": 566.0250000000087,
      "v": 104
    },
    {
      "midi": 64,
      "hit": false,
      "t": 40942.47499999998,
      "d": 566.0250000000087,
      "v": 102
    },
    {
      "midi": 68,
      "hit": false,
      "t": 41131.14999999998,
      "d": 377.3500000000058,
      "v": 106
    },
    {
      "midi": 73,
      "hit": false,
      "t": 41319.82499999998,
      "d": 188.6750000000029,
      "v": 97
    },
    {
      "midi": 71,
      "hit": false,
      "t": 41508.499999999985,
      "d": 566.0250000000087,
      "v": 97
    },
    {
      "midi": 64,
      "hit": false,
      "t": 41697.17499999999,
      "d": 566.0250000000087,
      "v": 103
    },
    {
      "midi": 68,
      "hit": false,
      "t": 41885.84999999999,
      "d": 377.3500000000058,
      "v": 107
    },
    {
      "midi": 71,
      "hit": false,
      "t": 42074.524999999994,
      "d": 188.6750000000029,
      "v": 100
    },
    {
      "midi": 71,
      "hit": false,
      "t": 42263.2,
      "d": 566.0250000000087,
      "v": 106
    },
    {
      "midi": 63,
      "hit": false,
      "t": 42451.875,
      "d": 566.0250000000087,
      "v": 100
    },
    {
      "midi": 68,
      "hit": false,
      "t": 42640.55,
      "d": 377.3500000000058,
      "v": 104
    },
    {
      "midi": 71,
      "hit": false,
      "t": 42829.225000000006,
      "d": 188.6750000000029,
      "v": 97
    },
    {
      "midi": 70,
      "hit": false,
      "t": 43017.90000000001,
      "d": 566.0250000000087,
      "v": 105
    },
    {
      "midi": 63,
      "hit": false,
      "t": 43206.57500000001,
      "d": 566.0250000000087,
      "v": 95
    },
    {
      "midi": 67,
      "hit": false,
      "t": 43395.250000000015,
      "d": 377.3500000000058,
      "v": 103
    },
    {
      "midi": 70,
      "hit": false,
      "t": 43583.92500000002,
      "d": 188.6750000000029,
      "v": 111
    },
    {
      "midi": 68,
      "hit": false,
      "t": 43772.60000000002,
      "d": 754.6999999999971,
      "v": 109
    },
    {
      "midi": 70,
      "hit": false,
      "t": 43772.60000000002,
      "d": 754.6999999999971,
      "v": 109
    },
    {
      "midi": 71,
      "hit": false,
      "t": 43772.60000000002,
      "d": 754.6999999999971,
      "v": 109
    },
    {
      "midi": 63,
      "hit": false,
      "t": 44149.95000000002,
      "d": 754.6999999999971,
      "v": 84
    },
    {
      "midi": 68,
      "hit": false,
      "t": 44527.30000000002,
      "d": 754.6999999999971,
      "v": 95
    },
    {
      "midi": 70,
      "hit": false,
      "t": 44527.30000000002,
      "d": 754.6999999999971,
      "v": 95
    },
    {
      "midi": 71,
      "hit": false,
      "t": 44527.30000000002,
      "d": 754.6999999999971,
      "v": 95
    },
    {
      "midi": 63,
      "hit": false,
      "t": 44904.650000000016,
      "d": 754.6999999999971,
      "v": 88
    },
    {
      "midi": 68,
      "hit": false,
      "t": 45282.000000000015,
      "d": 754.6999999999971,
      "v": 94
    },
    {
      "midi": 70,
      "hit": false,
      "t": 45282.000000000015,
      "d": 754.6999999999971,
      "v": 94
    },
    {
      "midi": 71,
      "hit": false,
      "t": 45282.000000000015,
      "d": 754.6999999999971,
      "v": 94
    },
    {
      "midi": 63,
      "hit": false,
      "t": 45659.35000000001,
      "d": 754.6999999999971,
      "v": 80
    },
    {
      "midi": 68,
      "hit": false,
      "t": 46036.70000000001,
      "d": 660.3624999999956,
      "v": 91
    },
    {
      "midi": 70,
      "hit": false,
      "t": 46036.70000000001,
      "d": 660.3624999999956,
      "v": 91
    },
    {
      "midi": 71,
      "hit": false,
      "t": 46036.70000000001,
      "d": 660.3624999999956,
      "v": 91
    },
    {
      "midi": 63,
      "hit": false,
      "t": 46414.05000000001,
      "d": 283.0124999999971,
      "v": 74
    },
    {
      "midi": 61,
      "hit": false,
      "t": 46697.06250000001,
      "d": 471.6874999999927,
      "v": 81
    },
    {
      "midi": 66,
      "hit": false,
      "t": 46720.646875000006,
      "d": 825.4531249999927,
      "v": 82
    },
    {
      "midi": 68,
      "hit": false,
      "t": 46744.231250000004,
      "d": 801.8687499999942,
      "v": 89
    },
    {
      "midi": 70,
      "hit": false,
      "t": 46791.4,
      "d": 754.6999999999971,
      "v": 94
    },
    {
      "midi": 61,
      "hit": false,
      "t": 47168.75,
      "d": 754.6999999999971,
      "v": 97
    },
    {
      "midi": 66,
      "hit": false,
      "t": 47546.1,
      "d": 754.6999999999971,
      "v": 76
    },
    {
      "midi": 68,
      "hit": false,
      "t": 47546.1,
      "d": 754.6999999999971,
      "v": 82
    },
    {
      "midi": 70,
      "hit": false,
      "t": 47546.1,
      "d": 754.6999999999971,
      "v": 84
    },
    {
      "midi": 61,
      "hit": false,
      "t": 47923.45,
      "d": 1886.75,
      "v": 89
    },
    {
      "midi": 66,
      "hit": false,
      "t": 48300.799999999996,
      "d": 1509.4000000000015,
      "v": 92
    },
    {
      "midi": 68,
      "hit": false,
      "t": 48300.799999999996,
      "d": 1509.4000000000015,
      "v": 92
    },
    {
      "midi": 70,
      "hit": false,
      "t": 48300.799999999996,
      "d": 1509.4000000000015,
      "v": 92
    },
    {
      "midi": 64,
      "hit": false,
      "t": 49810.2,
      "d": 3018.800000000003,
      "v": 98
    },
    {
      "midi": 66,
      "hit": false,
      "t": 49810.2,
      "d": 3018.800000000003,
      "v": 98
    },
    {
      "midi": 68,
      "hit": false,
      "t": 49810.2,
      "d": 3018.800000000003,
      "v": 98
    },
    {
      "midi": 71,
      "hit": false,
      "t": 49810.2,
      "d": 3018.800000000003,
      "v": 98
    },
    {
      "midi": 63,
      "hit": false,
      "t": 52829,
      "d": 1509.4000000000015,
      "v": 104
    },
    {
      "midi": 66,
      "hit": false,
      "t": 52829,
      "d": 1509.4000000000015,
      "v": 104
    },
    {
      "midi": 71,
      "hit": false,
      "t": 52829,
      "d": 1509.4000000000015,
      "v": 104
    },
    {
      "midi": 63,
      "hit": false,
      "t": 54338.4,
      "d": 1509.4000000000015,
      "v": 104
    },
    {
      "midi": 66,
      "hit": false,
      "t": 54338.4,
      "d": 1509.4000000000015,
      "v": 97
    },
    {
      "midi": 70,
      "hit": false,
      "t": 54338.4,
      "d": 1509.4000000000015,
      "v": 96
    },
    {
      "midi": 64,
      "hit": false,
      "t": 55847.8,
      "d": 1509.4000000000015,
      "v": 98
    },
    {
      "midi": 66,
      "hit": false,
      "t": 55847.8,
      "d": 1509.4000000000015,
      "v": 98
    },
    {
      "midi": 68,
      "hit": false,
      "t": 55847.8,
      "d": 1509.4000000000015,
      "v": 98
    },
    {
      "midi": 71,
      "hit": false,
      "t": 55847.8,
      "d": 1509.4000000000015,
      "v": 98
    },
    {
      "midi": 71,
      "hit": false,
      "t": 57357.200000000004,
      "d": 377.3500000000058,
      "v": 112
    },
    {
      "midi": 63,
      "hit": false,
      "t": 57357.200000000004,
      "d": 1509.4000000000087,
      "v": 112
    },
    {
      "midi": 68,
      "hit": false,
      "t": 57357.200000000004,
      "d": 1509.4000000000087,
      "v": 112
    },
    {
      "midi": 70,
      "hit": false,
      "t": 57545.87500000001,
      "d": 1320.7250000000058,
      "v": 102
    },
    {
      "midi": 71,
      "hit": false,
      "t": 57734.55000000001,
      "d": 1132.050000000003,
      "v": 110
    },
    {
      "midi": 75,
      "hit": false,
      "t": 57923.22500000001,
      "d": 943.375,
      "v": 104
    },
    {
      "midi": 63,
      "hit": false,
      "t": 58866.60000000001,
      "d": 1509.4000000000015,
      "v": 104
    },
    {
      "midi": 66,
      "hit": false,
      "t": 58866.60000000001,
      "d": 1509.4000000000015,
      "v": 104
    },
    {
      "midi": 71,
      "hit": false,
      "t": 58866.60000000001,
      "d": 1509.4000000000015,
      "v": 104
    },
    {
      "midi": 63,
      "hit": false,
      "t": 60376.000000000015,
      "d": 188.6750000000029,
      "v": 104
    },
    {
      "midi": 66,
      "hit": false,
      "t": 60564.67500000002,
      "d": 94.33750000000146,
      "v": 97
    },
    {
      "midi": 68,
      "hit": false,
      "t": 60659.01250000002,
      "d": 188.6750000000029,
      "v": 91
    },
    {
      "midi": 70,
      "hit": false,
      "t": 60753.35000000002,
      "d": 188.6750000000029,
      "v": 96
    },
    {
      "midi": 71,
      "hit": false,
      "t": 60942.02500000002,
      "d": 188.6750000000029,
      "v": 93
    },
    {
      "midi": 70,
      "hit": false,
      "t": 61130.700000000026,
      "d": 188.6750000000029,
      "v": 101
    },
    {
      "midi": 68,
      "hit": false,
      "t": 61319.37500000003,
      "d": 188.6750000000029,
      "v": 96
    },
    {
      "midi": 66,
      "hit": false,
      "t": 61508.05000000003,
      "d": 188.6750000000029,
      "v": 102
    },
    {
      "midi": 68,
      "hit": false,
      "t": 61696.725000000035,
      "d": 188.6750000000029,
      "v": 95
    },
    {
      "midi": 64,
      "hit": false,
      "t": 61885.40000000004,
      "d": 1509.4000000000015,
      "v": 100
    },
    {
      "midi": 66,
      "hit": false,
      "t": 61885.40000000004,
      "d": 1509.4000000000015,
      "v": 100
    },
    {
      "midi": 68,
      "hit": false,
      "t": 61885.40000000004,
      "d": 1509.4000000000015,
      "v": 100
    },
    {
      "midi": 71,
      "hit": false,
      "t": 61885.40000000004,
      "d": 1509.4000000000015,
      "v": 100
    },
    {
      "midi": 71,
      "hit": false,
      "t": 63394.80000000004,
      "d": 377.3500000000058,
      "v": 112
    },
    {
      "midi": 63,
      "hit": false,
      "t": 63394.80000000004,
      "d": 1509.4000000000087,
      "v": 112
    },
    {
      "midi": 68,
      "hit": false,
      "t": 63394.80000000004,
      "d": 1509.4000000000087,
      "v": 112
    },
    {
      "midi": 70,
      "hit": false,
      "t": 63583.47500000004,
      "d": 1320.7250000000058,
      "v": 102
    },
    {
      "midi": 71,
      "hit": false,
      "t": 63772.150000000045,
      "d": 1132.050000000003,
      "v": 110
    },
    {
      "midi": 75,
      "hit": false,
      "t": 63960.82500000005,
      "d": 943.375,
      "v": 104
    },
    {
      "midi": 63,
      "hit": false,
      "t": 64904.20000000005,
      "d": 377.34999999999854,
      "v": 100
    },
    {
      "midi": 67,
      "hit": false,
      "t": 64904.20000000005,
      "d": 377.34999999999854,
      "v": 103
    },
    {
      "midi": 63,
      "hit": false,
      "t": 65281.55000000005,
      "d": 377.3500000000058,
      "v": 121
    },
    {
      "midi": 68,
      "hit": false,
      "t": 65281.55000000005,
      "d": 377.3500000000058,
      "v": 121
    },
    {
      "midi": 67,
      "hit": false,
      "t": 65658.90000000005,
      "d": 377.3500000000058,
      "v": 115
    },
    {
      "midi": 70,
      "hit": false,
      "t": 65658.90000000005,
      "d": 377.3500000000058,
      "v": 115
    },
    {
      "midi": 68,
      "hit": false,
      "t": 66036.25000000006,
      "d": 377.3500000000058,
      "v": 122
    },
    {
      "midi": 71,
      "hit": false,
      "t": 66036.25000000006,
      "d": 377.3500000000058,
      "v": 122
    },
    {
      "midi": 70,
      "hit": false,
      "t": 66413.60000000006,
      "d": 377.3500000000058,
      "v": 108
    },
    {
      "midi": 73,
      "hit": false,
      "t": 66413.60000000006,
      "d": 377.3500000000058,
      "v": 108
    },
    {
      "midi": 71,
      "hit": false,
      "t": 66790.95000000007,
      "d": 377.3500000000058,
      "v": 123
    },
    {
      "midi": 75,
      "hit": false,
      "t": 66790.95000000007,
      "d": 377.3500000000058,
      "v": 123
    },
    {
      "midi": 73,
      "hit": false,
      "t": 67168.30000000008,
      "d": 377.3500000000058,
      "v": 111
    },
    {
      "midi": 76,
      "hit": false,
      "t": 67168.30000000008,
      "d": 377.3500000000058,
      "v": 111
    },
    {
      "midi": 75,
      "hit": false,
      "t": 67545.65000000008,
      "d": 377.3500000000058,
      "v": 123
    },
    {
      "midi": 79,
      "hit": false,
      "t": 67545.65000000008,
      "d": 377.3500000000058,
      "v": 123
    },
    {
      "midi": 75,
      "hit": false,
      "t": 67923.00000000009,
      "d": 377.3500000000058,
      "v": 123
    },
    {
      "midi": 80,
      "hit": false,
      "t": 67923.00000000009,
      "d": 377.3500000000058,
      "v": 120
    },
    {
      "midi": 77,
      "hit": false,
      "t": 68300.3500000001,
      "d": 377.3500000000058,
      "v": 117
    },
    {
      "midi": 82,
      "hit": false,
      "t": 68300.3500000001,
      "d": 377.3500000000058,
      "v": 112
    },
    {
      "midi": 78,
      "hit": false,
      "t": 68677.7000000001,
      "d": 377.3500000000058,
      "v": 123
    },
    {
      "midi": 83,
      "hit": false,
      "t": 68677.7000000001,
      "d": 377.3500000000058,
      "v": 122
    },
    {
      "midi": 85,
      "hit": false,
      "t": 69055.0500000001,
      "d": 188.6750000000029,
      "v": 119
    },
    {
      "midi": 87,
      "hit": false,
      "t": 69243.72500000011,
      "d": 188.6750000000029,
      "v": 109
    },
    {
      "midi": 83,
      "hit": false,
      "t": 69432.40000000011,
      "d": 566.0249999999942,
      "v": 125
    },
    {
      "midi": 88,
      "hit": false,
      "t": 69432.40000000011,
      "d": 566.0249999999942,
      "v": 121
    },
    {
      "midi": 87,
      "hit": false,
      "t": 69998.4250000001,
      "d": 94.33749999999418,
      "v": 80
    },
    {
      "midi": 85,
      "hit": false,
      "t": 70092.7625000001,
      "d": 94.33749999999418,
      "v": 104
    },
    {
      "midi": 83,
      "hit": false,
      "t": 70187.1000000001,
      "d": 377.3500000000058,
      "v": 111
    },
    {
      "midi": 82,
      "hit": false,
      "t": 70564.4500000001,
      "d": 377.3500000000058,
      "v": 108
    },
    {
      "midi": 75,
      "hit": false,
      "t": 70941.8000000001,
      "d": 3018.800000000003,
      "v": 111
    },
    {
      "midi": 80,
      "hit": false,
      "t": 70941.8000000001,
      "d": 3018.800000000003,
      "v": 111
    },
    {
      "midi": 83,
      "hit": false,
      "t": 70941.8000000001,
      "d": 3018.800000000003,
      "v": 111
    },
    {
      "midi": 73,
      "hit": false,
      "t": 73960.60000000011,
      "d": 3018.800000000003,
      "v": 111
    },
    {
      "midi": 78,
      "hit": false,
      "t": 73960.60000000011,
      "d": 3018.800000000003,
      "v": 111
    },
    {
      "midi": 80,
      "hit": false,
      "t": 73960.60000000011,
      "d": 3018.800000000003,
      "v": 111
    },
    {
      "midi": 82,
      "hit": false,
      "t": 73960.60000000011,
      "d": 3018.800000000003,
      "v": 111
    },
    {
      "midi": 71,
      "hit": false,
      "t": 76979.40000000011,
      "d": 3018.8000000000175,
      "v": 111
    },
    {
      "midi": 75,
      "hit": false,
      "t": 76979.40000000011,
      "d": 3018.8000000000175,
      "v": 111
    },
    {
      "midi": 80,
      "hit": false,
      "t": 76979.40000000011,
      "d": 3018.8000000000175,
      "v": 111
    },
    {
      "midi": 68,
      "hit": false,
      "t": 78488.8000000001,
      "d": 377.3500000000058,
      "v": 114
    },
    {
      "midi": 70,
      "hit": false,
      "t": 78866.15000000011,
      "d": 377.3500000000058,
      "v": 104
    },
    {
      "midi": 68,
      "hit": false,
      "t": 79243.50000000012,
      "d": 377.3500000000058,
      "v": 115
    },
    {
      "midi": 66,
      "hit": false,
      "t": 79620.85000000012,
      "d": 377.3500000000058,
      "v": 102
    },
    {
      "midi": 73,
      "hit": false,
      "t": 79998.20000000013,
      "d": 754.6999999999971,
      "v": 124
    },
    {
      "midi": 71,
      "hit": false,
      "t": 80752.90000000013,
      "d": 754.6999999999971,
      "v": 121
    },
    {
      "midi": 71,
      "hit": false,
      "t": 81507.60000000012,
      "d": 754.6999999999971,
      "v": 124
    },
    {
      "midi": 70,
      "hit": false,
      "t": 82262.30000000012,
      "d": 754.6999999999971,
      "v": 122
    },
    {
      "midi": 68,
      "hit": false,
      "t": 83017.00000000012,
      "d": 3018.800000000003,
      "v": 98
    },
    {
      "midi": 71,
      "hit": false,
      "t": 83017.00000000012,
      "d": 3018.800000000003,
      "v": 98
    },
    {
      "midi": 75,
      "hit": false,
      "t": 83017.00000000012,
      "d": 3018.800000000003,
      "v": 98
    },
    {
      "midi": 68,
      "hit": false,
      "t": 86035.80000000012,
      "d": 3018.800000000003,
      "v": 96
    },
    {
      "midi": 73,
      "hit": false,
      "t": 86035.80000000012,
      "d": 3018.800000000003,
      "v": 96
    },
    {
      "midi": 78,
      "hit": false,
      "t": 86035.80000000012,
      "d": 3018.800000000003,
      "v": 96
    },
    {
      "midi": 64,
      "hit": false,
      "t": 89054.60000000012,
      "d": 3018.800000000003,
      "v": 95
    },
    {
      "midi": 66,
      "hit": false,
      "t": 89054.60000000012,
      "d": 3018.800000000003,
      "v": 95
    },
    {
      "midi": 68,
      "hit": false,
      "t": 89054.60000000012,
      "d": 3018.800000000003,
      "v": 95
    },
    {
      "midi": 71,
      "hit": false,
      "t": 89054.60000000012,
      "d": 3018.800000000003,
      "v": 95
    },
    {
      "midi": 63,
      "hit": false,
      "t": 92073.40000000013,
      "d": 1509.3999999999942,
      "v": 96
    },
    {
      "midi": 66,
      "hit": false,
      "t": 92073.40000000013,
      "d": 1509.3999999999942,
      "v": 96
    },
    {
      "midi": 71,
      "hit": false,
      "t": 92073.40000000013,
      "d": 1509.3999999999942,
      "v": 96
    },
    {
      "midi": 66,
      "hit": false,
      "t": 93582.80000000012,
      "d": 754.6999999999971,
      "v": 96
    },
    {
      "midi": 68,
      "hit": false,
      "t": 93582.80000000012,
      "d": 754.6999999999971,
      "v": 96
    },
    {
      "midi": 73,
      "hit": false,
      "t": 93582.80000000012,
      "d": 754.6999999999971,
      "v": 96
    },
    {
      "midi": 66,
      "hit": false,
      "t": 94337.50000000012,
      "d": 754.6999999999971,
      "v": 95
    },
    {
      "midi": 70,
      "hit": false,
      "t": 94337.50000000012,
      "d": 754.6999999999971,
      "v": 95
    },
    {
      "midi": 73,
      "hit": false,
      "t": 94337.50000000012,
      "d": 754.6999999999971,
      "v": 95
    },
    {
      "midi": 68,
      "hit": false,
      "t": 95092.20000000011,
      "d": 3018.800000000003,
      "v": 98
    },
    {
      "midi": 71,
      "hit": false,
      "t": 95092.20000000011,
      "d": 3018.800000000003,
      "v": 98
    },
    {
      "midi": 75,
      "hit": false,
      "t": 95092.20000000011,
      "d": 3018.800000000003,
      "v": 98
    },
    {
      "midi": 68,
      "hit": false,
      "t": 98111.00000000012,
      "d": 3018.800000000003,
      "v": 96
    },
    {
      "midi": 73,
      "hit": false,
      "t": 98111.00000000012,
      "d": 3018.800000000003,
      "v": 96
    },
    {
      "midi": 78,
      "hit": false,
      "t": 98111.00000000012,
      "d": 3018.800000000003,
      "v": 96
    },
    {
      "midi": 64,
      "hit": false,
      "t": 101129.80000000012,
      "d": 3018.800000000003,
      "v": 95
    },
    {
      "midi": 66,
      "hit": false,
      "t": 101129.80000000012,
      "d": 3018.800000000003,
      "v": 95
    },
    {
      "midi": 68,
      "hit": false,
      "t": 101129.80000000012,
      "d": 3018.800000000003,
      "v": 95
    },
    {
      "midi": 71,
      "hit": false,
      "t": 101129.80000000012,
      "d": 3018.800000000003,
      "v": 95
    },
    {
      "midi": 63,
      "hit": false,
      "t": 104148.60000000012,
      "d": 1509.3999999999942,
      "v": 96
    },
    {
      "midi": 66,
      "hit": false,
      "t": 104148.60000000012,
      "d": 1509.3999999999942,
      "v": 96
    },
    {
      "midi": 71,
      "hit": false,
      "t": 104148.60000000012,
      "d": 1509.3999999999942,
      "v": 96
    },
    {
      "midi": 66,
      "hit": false,
      "t": 105658.00000000012,
      "d": 754.6999999999971,
      "v": 96
    },
    {
      "midi": 68,
      "hit": false,
      "t": 105658.00000000012,
      "d": 754.6999999999971,
      "v": 96
    },
    {
      "midi": 73,
      "hit": false,
      "t": 105658.00000000012,
      "d": 754.6999999999971,
      "v": 96
    },
    {
      "midi": 66,
      "hit": false,
      "t": 106412.70000000011,
      "d": 754.6999999999971,
      "v": 95
    },
    {
      "midi": 70,
      "hit": false,
      "t": 106412.70000000011,
      "d": 754.6999999999971,
      "v": 95
    },
    {
      "midi": 73,
      "hit": false,
      "t": 106412.70000000011,
      "d": 754.6999999999971,
      "v": 95
    },
    {
      "midi": 68,
      "hit": false,
      "t": 107167.40000000011,
      "d": 1509.3999999999942,
      "v": 98
    },
    {
      "midi": 71,
      "hit": false,
      "t": 107167.40000000011,
      "d": 1509.3999999999942,
      "v": 98
    },
    {
      "midi": 76,
      "hit": false,
      "t": 107167.40000000011,
      "d": 1509.3999999999942,
      "v": 98
    },
    {
      "midi": 68,
      "hit": false,
      "t": 108676.8000000001,
      "d": 1509.3999999999942,
      "v": 98
    },
    {
      "midi": 71,
      "hit": false,
      "t": 108676.8000000001,
      "d": 1509.3999999999942,
      "v": 98
    },
    {
      "midi": 75,
      "hit": false,
      "t": 108676.8000000001,
      "d": 1509.3999999999942,
      "v": 98
    },
    {
      "midi": 66,
      "hit": false,
      "t": 110186.2000000001,
      "d": 1509.3999999999942,
      "v": 96
    },
    {
      "midi": 71,
      "hit": false,
      "t": 110186.2000000001,
      "d": 1509.3999999999942,
      "v": 96
    },
    {
      "midi": 75,
      "hit": false,
      "t": 110186.2000000001,
      "d": 1509.3999999999942,
      "v": 96
    },
    {
      "midi": 66,
      "hit": false,
      "t": 111695.6000000001,
      "d": 1509.3999999999942,
      "v": 96
    },
    {
      "midi": 70,
      "hit": false,
      "t": 111695.6000000001,
      "d": 1509.3999999999942,
      "v": 96
    },
    {
      "midi": 73,
      "hit": false,
      "t": 111695.6000000001,
      "d": 1509.3999999999942,
      "v": 96
    },
    {
      "midi": 68,
      "hit": false,
      "t": 113205.00000000009,
      "d": 1509.3999999999942,
      "v": 98
    },
    {
      "midi": 71,
      "hit": false,
      "t": 113205.00000000009,
      "d": 1509.3999999999942,
      "v": 98
    },
    {
      "midi": 76,
      "hit": false,
      "t": 113205.00000000009,
      "d": 1509.3999999999942,
      "v": 98
    },
    {
      "midi": 68,
      "hit": false,
      "t": 114714.40000000008,
      "d": 1509.3999999999942,
      "v": 98
    },
    {
      "midi": 71,
      "hit": false,
      "t": 114714.40000000008,
      "d": 1509.3999999999942,
      "v": 98
    },
    {
      "midi": 75,
      "hit": false,
      "t": 114714.40000000008,
      "d": 1509.3999999999942,
      "v": 98
    },
    {
      "midi": 67,
      "hit": false,
      "t": 116223.80000000008,
      "d": 377.3500000000058,
      "v": 121
    },
    {
      "midi": 70,
      "hit": false,
      "t": 116223.80000000008,
      "d": 377.3500000000058,
      "v": 121
    },
    {
      "midi": 68,
      "hit": false,
      "t": 116601.15000000008,
      "d": 377.3500000000058,
      "v": 118
    },
    {
      "midi": 71,
      "hit": false,
      "t": 116601.15000000008,
      "d": 377.3500000000058,
      "v": 118
    },
    {
      "midi": 70,
      "hit": false,
      "t": 116978.50000000009,
      "d": 377.3500000000058,
      "v": 121
    },
    {
      "midi": 73,
      "hit": false,
      "t": 116978.50000000009,
      "d": 377.3500000000058,
      "v": 121
    },
    {
      "midi": 73,
      "hit": false,
      "t": 117355.8500000001,
      "d": 377.3500000000058,
      "v": 119
    },
    {
      "midi": 76,
      "hit": false,
      "t": 117355.8500000001,
      "d": 377.3500000000058,
      "v": 119
    },
    {
      "midi": 71,
      "hit": false,
      "t": 117733.2000000001,
      "d": 377.3500000000058,
      "v": 121
    },
    {
      "midi": 75,
      "hit": false,
      "t": 117733.2000000001,
      "d": 377.3500000000058,
      "v": 121
    },
    {
      "midi": 70,
      "hit": false,
      "t": 118110.5500000001,
      "d": 377.3500000000058,
      "v": 118
    },
    {
      "midi": 73,
      "hit": false,
      "t": 118110.5500000001,
      "d": 377.3500000000058,
      "v": 118
    },
    {
      "midi": 68,
      "hit": false,
      "t": 118487.90000000011,
      "d": 377.3500000000058,
      "v": 120
    },
    {
      "midi": 71,
      "hit": false,
      "t": 118487.90000000011,
      "d": 377.3500000000058,
      "v": 120
    },
    {
      "midi": 67,
      "hit": false,
      "t": 118865.25000000012,
      "d": 377.3500000000058,
      "v": 118
    },
    {
      "midi": 70,
      "hit": false,
      "t": 118865.25000000012,
      "d": 377.3500000000058,
      "v": 118
    },
    {
      "midi": 63,
      "hit": false,
      "t": 119242.60000000012,
      "d": 1132.050000000003,
      "v": 109
    },
    {
      "midi": 68,
      "hit": false,
      "t": 119242.60000000012,
      "d": 1132.050000000003,
      "v": 109
    },
    {
      "midi": 71,
      "hit": false,
      "t": 119242.60000000012,
      "d": 1132.050000000003,
      "v": 109
    },
    {
      "midi": 63,
      "hit": false,
      "t": 120374.65000000013,
      "d": 377.3500000000058,
      "v": 109
    },
    {
      "midi": 68,
      "hit": false,
      "t": 120374.65000000013,
      "d": 377.3500000000058,
      "v": 109
    },
    {
      "midi": 71,
      "hit": false,
      "t": 120374.65000000013,
      "d": 377.3500000000058,
      "v": 109
    },
    {
      "midi": 64,
      "hit": false,
      "t": 120752.00000000013,
      "d": 1509.3999999999942,
      "v": 109
    },
    {
      "midi": 68,
      "hit": false,
      "t": 120752.00000000013,
      "d": 1509.3999999999942,
      "v": 109
    },
    {
      "midi": 71,
      "hit": false,
      "t": 120752.00000000013,
      "d": 1509.3999999999942,
      "v": 109
    },
    {
      "midi": 63,
      "hit": false,
      "t": 122261.40000000013,
      "d": 1509.3999999999942,
      "v": 109
    },
    {
      "midi": 66,
      "hit": false,
      "t": 122261.40000000013,
      "d": 1509.3999999999942,
      "v": 109
    },
    {
      "midi": 71,
      "hit": false,
      "t": 122261.40000000013,
      "d": 1509.3999999999942,
      "v": 109
    },
    {
      "midi": 61,
      "hit": false,
      "t": 123770.80000000012,
      "d": 754.6999999999971,
      "v": 109
    },
    {
      "midi": 66,
      "hit": false,
      "t": 123770.80000000012,
      "d": 754.6999999999971,
      "v": 109
    },
    {
      "midi": 71,
      "hit": false,
      "t": 123770.80000000012,
      "d": 754.6999999999971,
      "v": 109
    },
    {
      "midi": 61,
      "hit": false,
      "t": 124525.50000000012,
      "d": 754.6999999999971,
      "v": 109
    },
    {
      "midi": 66,
      "hit": false,
      "t": 124525.50000000012,
      "d": 754.6999999999971,
      "v": 109
    },
    {
      "midi": 70,
      "hit": false,
      "t": 124525.50000000012,
      "d": 754.6999999999971,
      "v": 109
    },
    {
      "midi": 63,
      "hit": false,
      "t": 125280.20000000011,
      "d": 1509.3999999999942,
      "v": 109
    },
    {
      "midi": 68,
      "hit": false,
      "t": 125280.20000000011,
      "d": 1509.3999999999942,
      "v": 109
    },
    {
      "midi": 71,
      "hit": false,
      "t": 125280.20000000011,
      "d": 1509.3999999999942,
      "v": 109
    },
    {
      "midi": 64,
      "hit": false,
      "t": 126789.60000000011,
      "d": 1509.3999999999942,
      "v": 109
    },
    {
      "midi": 68,
      "hit": false,
      "t": 126789.60000000011,
      "d": 1509.3999999999942,
      "v": 109
    },
    {
      "midi": 71,
      "hit": false,
      "t": 126789.60000000011,
      "d": 1509.3999999999942,
      "v": 109
    },
    {
      "midi": 63,
      "hit": false,
      "t": 128299.0000000001,
      "d": 1509.3999999999942,
      "v": 109
    },
    {
      "midi": 66,
      "hit": false,
      "t": 128299.0000000001,
      "d": 1509.3999999999942,
      "v": 109
    },
    {
      "midi": 71,
      "hit": false,
      "t": 128299.0000000001,
      "d": 1509.3999999999942,
      "v": 109
    },
    {
      "midi": 61,
      "hit": false,
      "t": 129808.4000000001,
      "d": 754.6999999999971,
      "v": 109
    },
    {
      "midi": 66,
      "hit": false,
      "t": 129808.4000000001,
      "d": 754.6999999999971,
      "v": 109
    },
    {
      "midi": 71,
      "hit": false,
      "t": 129808.4000000001,
      "d": 754.6999999999971,
      "v": 109
    },
    {
      "midi": 61,
      "hit": false,
      "t": 130563.1000000001,
      "d": 754.7000000000116,
      "v": 109
    },
    {
      "midi": 66,
      "hit": false,
      "t": 130563.1000000001,
      "d": 754.7000000000116,
      "v": 109
    },
    {
      "midi": 70,
      "hit": false,
      "t": 130563.1000000001,
      "d": 754.7000000000116,
      "v": 109
    },
    {
      "midi": 63,
      "hit": false,
      "t": 131317.8000000001,
      "d": 1132.0499999999884,
      "v": 109
    },
    {
      "midi": 68,
      "hit": false,
      "t": 131317.8000000001,
      "d": 1132.0499999999884,
      "v": 109
    },
    {
      "midi": 71,
      "hit": false,
      "t": 131317.8000000001,
      "d": 1132.0499999999884,
      "v": 109
    },
    {
      "midi": 63,
      "hit": false,
      "t": 132449.8500000001,
      "d": 377.3500000000058,
      "v": 109
    },
    {
      "midi": 68,
      "hit": false,
      "t": 132449.8500000001,
      "d": 377.3500000000058,
      "v": 109
    },
    {
      "midi": 71,
      "hit": false,
      "t": 132449.8500000001,
      "d": 377.3500000000058,
      "v": 109
    },
    {
      "midi": 64,
      "hit": false,
      "t": 132827.2000000001,
      "d": 1509.3999999999942,
      "v": 109
    },
    {
      "midi": 68,
      "hit": false,
      "t": 132827.2000000001,
      "d": 1509.3999999999942,
      "v": 109
    },
    {
      "midi": 71,
      "hit": false,
      "t": 132827.2000000001,
      "d": 1509.3999999999942,
      "v": 109
    },
    {
      "midi": 63,
      "hit": false,
      "t": 134336.6000000001,
      "d": 1509.3999999999942,
      "v": 109
    },
    {
      "midi": 66,
      "hit": false,
      "t": 134336.6000000001,
      "d": 1509.3999999999942,
      "v": 109
    },
    {
      "midi": 71,
      "hit": false,
      "t": 134336.6000000001,
      "d": 1509.3999999999942,
      "v": 109
    },
    {
      "midi": 61,
      "hit": false,
      "t": 135846.0000000001,
      "d": 754.7000000000116,
      "v": 109
    },
    {
      "midi": 66,
      "hit": false,
      "t": 135846.0000000001,
      "d": 754.7000000000116,
      "v": 109
    },
    {
      "midi": 71,
      "hit": false,
      "t": 135846.0000000001,
      "d": 754.7000000000116,
      "v": 109
    },
    {
      "midi": 61,
      "hit": false,
      "t": 136600.7000000001,
      "d": 754.7000000000116,
      "v": 109
    },
    {
      "midi": 66,
      "hit": false,
      "t": 136600.7000000001,
      "d": 754.7000000000116,
      "v": 109
    },
    {
      "midi": 70,
      "hit": false,
      "t": 136600.7000000001,
      "d": 754.7000000000116,
      "v": 109
    },
    {
      "midi": 63,
      "hit": false,
      "t": 137355.4000000001,
      "d": 1509.3999999999942,
      "v": 109
    },
    {
      "midi": 68,
      "hit": false,
      "t": 137355.4000000001,
      "d": 1509.3999999999942,
      "v": 109
    },
    {
      "midi": 71,
      "hit": false,
      "t": 137355.4000000001,
      "d": 1509.3999999999942,
      "v": 109
    },
    {
      "midi": 64,
      "hit": false,
      "t": 138864.8000000001,
      "d": 1509.3999999999942,
      "v": 109
    },
    {
      "midi": 68,
      "hit": false,
      "t": 138864.8000000001,
      "d": 1509.3999999999942,
      "v": 109
    },
    {
      "midi": 71,
      "hit": false,
      "t": 138864.8000000001,
      "d": 1509.3999999999942,
      "v": 109
    },
    {
      "midi": 64,
      "hit": false,
      "t": 140374.2000000001,
      "d": 1509.3999999999942,
      "v": 109
    },
    {
      "midi": 68,
      "hit": false,
      "t": 140374.2000000001,
      "d": 1509.3999999999942,
      "v": 109
    },
    {
      "midi": 73,
      "hit": false,
      "t": 140374.2000000001,
      "d": 1509.3999999999942,
      "v": 109
    },
    {
      "midi": 66,
      "hit": false,
      "t": 141883.6000000001,
      "d": 283.01250000001164,
      "v": 126
    },
    {
      "midi": 71,
      "hit": false,
      "t": 141883.6000000001,
      "d": 283.01250000001164,
      "v": 126
    },
    {
      "midi": 65,
      "hit": false,
      "t": 142166.6125000001,
      "d": 188.67499999998836,
      "v": 123
    },
    {
      "midi": 70,
      "hit": false,
      "t": 142166.6125000001,
      "d": 188.67499999998836,
      "v": 123
    },
    {
      "midi": 61,
      "hit": false,
      "t": 142449.6250000001,
      "d": 94.33749999999418,
      "v": 125
    },
    {
      "midi": 66,
      "hit": false,
      "t": 142449.6250000001,
      "d": 94.33749999999418,
      "v": 125
    },
    {
      "midi": 61,
      "hit": false,
      "t": 142638.30000000008,
      "d": 377.3500000000058,
      "v": 126
    },
    {
      "midi": 66,
      "hit": false,
      "t": 142638.30000000008,
      "d": 377.3500000000058,
      "v": 126
    },
    {
      "midi": 68,
      "hit": false,
      "t": 143393.0000000001,
      "d": 3018.7999999999884,
      "v": 98
    },
    {
      "midi": 71,
      "hit": false,
      "t": 143393.0000000001,
      "d": 3018.7999999999884,
      "v": 98
    },
    {
      "midi": 75,
      "hit": false,
      "t": 143393.0000000001,
      "d": 3018.7999999999884,
      "v": 98
    },
    {
      "midi": 68,
      "hit": false,
      "t": 146411.80000000008,
      "d": 3018.7999999999884,
      "v": 96
    },
    {
      "midi": 73,
      "hit": false,
      "t": 146411.80000000008,
      "d": 3018.7999999999884,
      "v": 96
    },
    {
      "midi": 78,
      "hit": false,
      "t": 146411.80000000008,
      "d": 3018.7999999999884,
      "v": 96
    },
    {
      "midi": 64,
      "hit": false,
      "t": 149430.60000000006,
      "d": 3018.7999999999884,
      "v": 95
    },
    {
      "midi": 66,
      "hit": false,
      "t": 149430.60000000006,
      "d": 3018.7999999999884,
      "v": 95
    },
    {
      "midi": 68,
      "hit": false,
      "t": 149430.60000000006,
      "d": 3018.7999999999884,
      "v": 95
    },
    {
      "midi": 71,
      "hit": false,
      "t": 149430.60000000006,
      "d": 3018.7999999999884,
      "v": 95
    },
    {
      "midi": 63,
      "hit": false,
      "t": 152449.40000000005,
      "d": 1509.3999999999942,
      "v": 96
    },
    {
      "midi": 66,
      "hit": false,
      "t": 152449.40000000005,
      "d": 1509.3999999999942,
      "v": 96
    },
    {
      "midi": 71,
      "hit": false,
      "t": 152449.40000000005,
      "d": 1509.3999999999942,
      "v": 96
    },
    {
      "midi": 66,
      "hit": false,
      "t": 153958.80000000005,
      "d": 754.7000000000116,
      "v": 96
    },
    {
      "midi": 68,
      "hit": false,
      "t": 153958.80000000005,
      "d": 754.7000000000116,
      "v": 96
    },
    {
      "midi": 73,
      "hit": false,
      "t": 153958.80000000005,
      "d": 754.7000000000116,
      "v": 96
    },
    {
      "midi": 66,
      "hit": false,
      "t": 154713.50000000006,
      "d": 754.7000000000116,
      "v": 95
    },
    {
      "midi": 70,
      "hit": false,
      "t": 154713.50000000006,
      "d": 754.7000000000116,
      "v": 95
    },
    {
      "midi": 73,
      "hit": false,
      "t": 154713.50000000006,
      "d": 754.7000000000116,
      "v": 95
    },
    {
      "midi": 68,
      "hit": false,
      "t": 155468.20000000007,
      "d": 3018.7999999999884,
      "v": 98
    },
    {
      "midi": 71,
      "hit": false,
      "t": 155468.20000000007,
      "d": 3018.7999999999884,
      "v": 98
    },
    {
      "midi": 75,
      "hit": false,
      "t": 155468.20000000007,
      "d": 3018.7999999999884,
      "v": 98
    },
    {
      "midi": 68,
      "hit": false,
      "t": 158487.00000000006,
      "d": 3018.7999999999884,
      "v": 96
    },
    {
      "midi": 73,
      "hit": false,
      "t": 158487.00000000006,
      "d": 3018.7999999999884,
      "v": 96
    },
    {
      "midi": 78,
      "hit": false,
      "t": 158487.00000000006,
      "d": 3018.7999999999884,
      "v": 96
    },
    {
      "midi": 64,
      "hit": false,
      "t": 161505.80000000005,
      "d": 3018.7999999999884,
      "v": 95
    },
    {
      "midi": 66,
      "hit": false,
      "t": 161505.80000000005,
      "d": 3018.7999999999884,
      "v": 95
    },
    {
      "midi": 68,
      "hit": false,
      "t": 161505.80000000005,
      "d": 3018.7999999999884,
      "v": 95
    },
    {
      "midi": 71,
      "hit": false,
      "t": 161505.80000000005,
      "d": 3018.7999999999884,
      "v": 95
    },
    {
      "midi": 63,
      "hit": false,
      "t": 164524.60000000003,
      "d": 1509.3999999999942,
      "v": 96
    },
    {
      "midi": 66,
      "hit": false,
      "t": 164524.60000000003,
      "d": 1509.3999999999942,
      "v": 96
    },
    {
      "midi": 71,
      "hit": false,
      "t": 164524.60000000003,
      "d": 1509.3999999999942,
      "v": 96
    },
    {
      "midi": 66,
      "hit": false,
      "t": 166034.00000000003,
      "d": 754.7000000000116,
      "v": 96
    },
    {
      "midi": 68,
      "hit": false,
      "t": 166034.00000000003,
      "d": 754.7000000000116,
      "v": 96
    },
    {
      "midi": 73,
      "hit": false,
      "t": 166034.00000000003,
      "d": 754.7000000000116,
      "v": 96
    },
    {
      "midi": 66,
      "hit": false,
      "t": 166788.70000000004,
      "d": 754.7000000000116,
      "v": 95
    },
    {
      "midi": 70,
      "hit": false,
      "t": 166788.70000000004,
      "d": 754.7000000000116,
      "v": 95
    },
    {
      "midi": 73,
      "hit": false,
      "t": 166788.70000000004,
      "d": 754.7000000000116,
      "v": 95
    },
    {
      "midi": 68,
      "hit": false,
      "t": 167543.40000000005,
      "d": 1509.3999999999942,
      "v": 98
    },
    {
      "midi": 71,
      "hit": false,
      "t": 167543.40000000005,
      "d": 1509.3999999999942,
      "v": 98
    },
    {
      "midi": 76,
      "hit": false,
      "t": 167543.40000000005,
      "d": 1509.3999999999942,
      "v": 98
    },
    {
      "midi": 68,
      "hit": false,
      "t": 169052.80000000005,
      "d": 1509.3999999999942,
      "v": 98
    },
    {
      "midi": 71,
      "hit": false,
      "t": 169052.80000000005,
      "d": 1509.3999999999942,
      "v": 98
    },
    {
      "midi": 75,
      "hit": false,
      "t": 169052.80000000005,
      "d": 1509.3999999999942,
      "v": 98
    },
    {
      "midi": 66,
      "hit": false,
      "t": 170562.20000000004,
      "d": 1509.3999999999942,
      "v": 96
    },
    {
      "midi": 71,
      "hit": false,
      "t": 170562.20000000004,
      "d": 1509.3999999999942,
      "v": 96
    },
    {
      "midi": 75,
      "hit": false,
      "t": 170562.20000000004,
      "d": 1509.3999999999942,
      "v": 96
    },
    {
      "midi": 66,
      "hit": false,
      "t": 172071.60000000003,
      "d": 1509.3999999999942,
      "v": 96
    },
    {
      "midi": 70,
      "hit": false,
      "t": 172071.60000000003,
      "d": 1509.3999999999942,
      "v": 96
    },
    {
      "midi": 73,
      "hit": false,
      "t": 172071.60000000003,
      "d": 1509.3999999999942,
      "v": 96
    },
    {
      "midi": 68,
      "hit": false,
      "t": 173581.00000000003,
      "d": 1509.3999999999942,
      "v": 98
    },
    {
      "midi": 71,
      "hit": false,
      "t": 173581.00000000003,
      "d": 1509.3999999999942,
      "v": 98
    },
    {
      "midi": 76,
      "hit": false,
      "t": 173581.00000000003,
      "d": 1509.3999999999942,
      "v": 98
    },
    {
      "midi": 68,
      "hit": false,
      "t": 175090.40000000002,
      "d": 1509.3999999999942,
      "v": 98
    },
    {
      "midi": 71,
      "hit": false,
      "t": 175090.40000000002,
      "d": 1509.3999999999942,
      "v": 98
    },
    {
      "midi": 75,
      "hit": false,
      "t": 175090.40000000002,
      "d": 1509.3999999999942,
      "v": 98
    },
    {
      "midi": 67,
      "hit": false,
      "t": 176599.80000000002,
      "d": 377.3500000000058,
      "v": 121
    },
    {
      "midi": 70,
      "hit": false,
      "t": 176599.80000000002,
      "d": 377.3500000000058,
      "v": 121
    },
    {
      "midi": 68,
      "hit": false,
      "t": 176977.15000000002,
      "d": 377.3500000000058,
      "v": 118
    },
    {
      "midi": 71,
      "hit": false,
      "t": 176977.15000000002,
      "d": 377.3500000000058,
      "v": 118
    },
    {
      "midi": 70,
      "hit": false,
      "t": 177354.50000000003,
      "d": 377.3500000000058,
      "v": 121
    },
    {
      "midi": 73,
      "hit": false,
      "t": 177354.50000000003,
      "d": 377.3500000000058,
      "v": 121
    },
    {
      "midi": 73,
      "hit": false,
      "t": 177731.85000000003,
      "d": 377.3500000000058,
      "v": 119
    },
    {
      "midi": 76,
      "hit": false,
      "t": 177731.85000000003,
      "d": 377.3500000000058,
      "v": 119
    },
    {
      "midi": 71,
      "hit": false,
      "t": 178109.20000000004,
      "d": 377.3500000000058,
      "v": 121
    },
    {
      "midi": 75,
      "hit": false,
      "t": 178109.20000000004,
      "d": 377.3500000000058,
      "v": 121
    },
    {
      "midi": 70,
      "hit": false,
      "t": 178486.55000000005,
      "d": 377.3500000000058,
      "v": 118
    },
    {
      "midi": 73,
      "hit": false,
      "t": 178486.55000000005,
      "d": 377.3500000000058,
      "v": 118
    },
    {
      "midi": 68,
      "hit": false,
      "t": 178863.90000000005,
      "d": 377.3500000000058,
      "v": 120
    },
    {
      "midi": 71,
      "hit": false,
      "t": 178863.90000000005,
      "d": 377.3500000000058,
      "v": 120
    },
    {
      "midi": 67,
      "hit": false,
      "t": 179241.25000000006,
      "d": 377.3500000000058,
      "v": 118
    },
    {
      "midi": 70,
      "hit": false,
      "t": 179241.25000000006,
      "d": 377.3500000000058,
      "v": 118
    },
    {
      "midi": 63,
      "hit": false,
      "t": 179618.60000000006,
      "d": 1132.0499999999884,
      "v": 109
    },
    {
      "midi": 68,
      "hit": false,
      "t": 179618.60000000006,
      "d": 1132.0499999999884,
      "v": 109
    },
    {
      "midi": 71,
      "hit": false,
      "t": 179618.60000000006,
      "d": 1132.0499999999884,
      "v": 109
    },
    {
      "midi": 63,
      "hit": false,
      "t": 180750.65000000005,
      "d": 377.3500000000058,
      "v": 109
    },
    {
      "midi": 68,
      "hit": false,
      "t": 180750.65000000005,
      "d": 377.3500000000058,
      "v": 109
    },
    {
      "midi": 71,
      "hit": false,
      "t": 180750.65000000005,
      "d": 377.3500000000058,
      "v": 109
    },
    {
      "midi": 64,
      "hit": false,
      "t": 181128.00000000006,
      "d": 1509.3999999999942,
      "v": 109
    },
    {
      "midi": 68,
      "hit": false,
      "t": 181128.00000000006,
      "d": 1509.3999999999942,
      "v": 109
    },
    {
      "midi": 71,
      "hit": false,
      "t": 181128.00000000006,
      "d": 1509.3999999999942,
      "v": 109
    },
    {
      "midi": 63,
      "hit": false,
      "t": 182637.40000000005,
      "d": 1509.3999999999942,
      "v": 109
    },
    {
      "midi": 66,
      "hit": false,
      "t": 182637.40000000005,
      "d": 1509.3999999999942,
      "v": 109
    },
    {
      "midi": 71,
      "hit": false,
      "t": 182637.40000000005,
      "d": 1509.3999999999942,
      "v": 109
    },
    {
      "midi": 61,
      "hit": false,
      "t": 184146.80000000005,
      "d": 754.7000000000116,
      "v": 109
    },
    {
      "midi": 66,
      "hit": false,
      "t": 184146.80000000005,
      "d": 754.7000000000116,
      "v": 109
    },
    {
      "midi": 71,
      "hit": false,
      "t": 184146.80000000005,
      "d": 754.7000000000116,
      "v": 109
    },
    {
      "midi": 61,
      "hit": false,
      "t": 184901.50000000006,
      "d": 754.7000000000116,
      "v": 109
    },
    {
      "midi": 66,
      "hit": false,
      "t": 184901.50000000006,
      "d": 754.7000000000116,
      "v": 109
    },
    {
      "midi": 70,
      "hit": false,
      "t": 184901.50000000006,
      "d": 754.7000000000116,
      "v": 109
    },
    {
      "midi": 63,
      "hit": false,
      "t": 185656.20000000007,
      "d": 1509.3999999999942,
      "v": 109
    },
    {
      "midi": 68,
      "hit": false,
      "t": 185656.20000000007,
      "d": 1509.3999999999942,
      "v": 109
    },
    {
      "midi": 71,
      "hit": false,
      "t": 185656.20000000007,
      "d": 1509.3999999999942,
      "v": 109
    },
    {
      "midi": 64,
      "hit": false,
      "t": 187165.60000000006,
      "d": 1509.3999999999942,
      "v": 109
    },
    {
      "midi": 68,
      "hit": false,
      "t": 187165.60000000006,
      "d": 1509.3999999999942,
      "v": 109
    },
    {
      "midi": 71,
      "hit": false,
      "t": 187165.60000000006,
      "d": 1509.3999999999942,
      "v": 109
    },
    {
      "midi": 63,
      "hit": false,
      "t": 188675.00000000006,
      "d": 1509.3999999999942,
      "v": 109
    },
    {
      "midi": 66,
      "hit": false,
      "t": 188675.00000000006,
      "d": 1509.3999999999942,
      "v": 109
    },
    {
      "midi": 71,
      "hit": false,
      "t": 188675.00000000006,
      "d": 1509.3999999999942,
      "v": 109
    },
    {
      "midi": 61,
      "hit": false,
      "t": 190184.40000000005,
      "d": 754.7000000000116,
      "v": 109
    },
    {
      "midi": 66,
      "hit": false,
      "t": 190184.40000000005,
      "d": 754.7000000000116,
      "v": 109
    },
    {
      "midi": 71,
      "hit": false,
      "t": 190184.40000000005,
      "d": 754.7000000000116,
      "v": 109
    },
    {
      "midi": 61,
      "hit": false,
      "t": 190939.10000000006,
      "d": 754.7000000000116,
      "v": 109
    },
    {
      "midi": 66,
      "hit": false,
      "t": 190939.10000000006,
      "d": 754.7000000000116,
      "v": 109
    },
    {
      "midi": 70,
      "hit": false,
      "t": 190939.10000000006,
      "d": 754.7000000000116,
      "v": 109
    },
    {
      "midi": 63,
      "hit": false,
      "t": 191693.80000000008,
      "d": 1132.0499999999884,
      "v": 109
    },
    {
      "midi": 68,
      "hit": false,
      "t": 191693.80000000008,
      "d": 1132.0499999999884,
      "v": 109
    },
    {
      "midi": 71,
      "hit": false,
      "t": 191693.80000000008,
      "d": 1132.0499999999884,
      "v": 109
    },
    {
      "midi": 63,
      "hit": false,
      "t": 192825.85000000006,
      "d": 377.3500000000058,
      "v": 109
    },
    {
      "midi": 68,
      "hit": false,
      "t": 192825.85000000006,
      "d": 377.3500000000058,
      "v": 109
    },
    {
      "midi": 71,
      "hit": false,
      "t": 192825.85000000006,
      "d": 377.3500000000058,
      "v": 109
    },
    {
      "midi": 64,
      "hit": false,
      "t": 193203.20000000007,
      "d": 1509.3999999999942,
      "v": 109
    },
    {
      "midi": 68,
      "hit": false,
      "t": 193203.20000000007,
      "d": 1509.3999999999942,
      "v": 109
    },
    {
      "midi": 71,
      "hit": false,
      "t": 193203.20000000007,
      "d": 1509.3999999999942,
      "v": 109
    },
    {
      "midi": 63,
      "hit": false,
      "t": 194712.60000000006,
      "d": 1509.3999999999942,
      "v": 109
    },
    {
      "midi": 66,
      "hit": false,
      "t": 194712.60000000006,
      "d": 1509.3999999999942,
      "v": 109
    },
    {
      "midi": 71,
      "hit": false,
      "t": 194712.60000000006,
      "d": 1509.3999999999942,
      "v": 109
    },
    {
      "midi": 61,
      "hit": false,
      "t": 196222.00000000006,
      "d": 754.7000000000116,
      "v": 109
    },
    {
      "midi": 66,
      "hit": false,
      "t": 196222.00000000006,
      "d": 754.7000000000116,
      "v": 109
    },
    {
      "midi": 71,
      "hit": false,
      "t": 196222.00000000006,
      "d": 754.7000000000116,
      "v": 109
    },
    {
      "midi": 61,
      "hit": false,
      "t": 196976.70000000007,
      "d": 754.7000000000116,
      "v": 109
    },
    {
      "midi": 66,
      "hit": false,
      "t": 196976.70000000007,
      "d": 754.7000000000116,
      "v": 109
    },
    {
      "midi": 70,
      "hit": false,
      "t": 196976.70000000007,
      "d": 754.7000000000116,
      "v": 109
    },
    {
      "midi": 63,
      "hit": false,
      "t": 197731.40000000008,
      "d": 1509.3999999999942,
      "v": 109
    },
    {
      "midi": 68,
      "hit": false,
      "t": 197731.40000000008,
      "d": 1509.3999999999942,
      "v": 109
    },
    {
      "midi": 71,
      "hit": false,
      "t": 197731.40000000008,
      "d": 1509.3999999999942,
      "v": 109
    },
    {
      "midi": 64,
      "hit": false,
      "t": 199240.80000000008,
      "d": 1509.3999999999942,
      "v": 109
    },
    {
      "midi": 68,
      "hit": false,
      "t": 199240.80000000008,
      "d": 1509.3999999999942,
      "v": 109
    },
    {
      "midi": 71,
      "hit": false,
      "t": 199240.80000000008,
      "d": 1509.3999999999942,
      "v": 109
    },
    {
      "midi": 64,
      "hit": false,
      "t": 200750.20000000007,
      "d": 1509.3999999999942,
      "v": 109
    },
    {
      "midi": 68,
      "hit": false,
      "t": 200750.20000000007,
      "d": 1509.3999999999942,
      "v": 109
    },
    {
      "midi": 73,
      "hit": false,
      "t": 200750.20000000007,
      "d": 1509.3999999999942,
      "v": 109
    },
    {
      "midi": 66,
      "hit": false,
      "t": 202259.60000000006,
      "d": 251.56666666668025,
      "v": 126
    },
    {
      "midi": 71,
      "hit": false,
      "t": 202259.60000000006,
      "d": 251.56666666668025,
      "v": 126
    },
    {
      "midi": 65,
      "hit": false,
      "t": 202511.16666666674,
      "d": 251.56666666668025,
      "v": 123
    },
    {
      "midi": 70,
      "hit": false,
      "t": 202511.16666666674,
      "d": 251.56666666668025,
      "v": 123
    },
    {
      "midi": 63,
      "hit": false,
      "t": 202762.73333333342,
      "d": 125.78333333332557,
      "v": 125
    },
    {
      "midi": 68,
      "hit": false,
      "t": 202762.73333333342,
      "d": 125.78333333332557,
      "v": 125
    },
    {
      "midi": 62,
      "hit": false,
      "t": 203014.30000000008,
      "d": 251.56666666668025,
      "v": 126
    },
    {
      "midi": 67,
      "hit": false,
      "t": 203014.30000000008,
      "d": 251.56666666668025,
      "v": 126
    },
    {
      "midi": 63,
      "hit": false,
      "t": 252069.80000000008,
      "d": 377.3500000000058,
      "v": 123
    },
    {
      "midi": 68,
      "hit": false,
      "t": 252069.80000000008,
      "d": 377.3500000000058,
      "v": 120
    },
    {
      "midi": 65,
      "hit": false,
      "t": 252447.15000000008,
      "d": 377.3500000000058,
      "v": 117
    },
    {
      "midi": 70,
      "hit": false,
      "t": 252447.15000000008,
      "d": 377.3500000000058,
      "v": 112
    },
    {
      "midi": 66,
      "hit": false,
      "t": 252824.5000000001,
      "d": 377.3500000000058,
      "v": 123
    },
    {
      "midi": 71,
      "hit": false,
      "t": 252824.5000000001,
      "d": 377.3500000000058,
      "v": 122
    },
    {
      "midi": 73,
      "hit": false,
      "t": 253201.8500000001,
      "d": 188.67499999998836,
      "v": 119
    },
    {
      "midi": 75,
      "hit": false,
      "t": 253390.52500000008,
      "d": 188.67499999998836,
      "v": 109
    },
    {
      "midi": 71,
      "hit": false,
      "t": 253579.20000000007,
      "d": 566.0249999999942,
      "v": 125
    },
    {
      "midi": 76,
      "hit": false,
      "t": 253579.20000000007,
      "d": 566.0249999999942,
      "v": 121
    },
    {
      "midi": 75,
      "hit": false,
      "t": 254145.22500000006,
      "d": 94.33749999999418,
      "v": 80
    },
    {
      "midi": 73,
      "hit": false,
      "t": 254239.56250000006,
      "d": 94.33749999999418,
      "v": 104
    },
    {
      "midi": 71,
      "hit": false,
      "t": 254333.90000000005,
      "d": 377.3500000000058,
      "v": 111
    },
    {
      "midi": 70,
      "hit": false,
      "t": 254711.25000000006,
      "d": 377.3500000000058,
      "v": 108
    },
    {
      "midi": 63,
      "hit": false,
      "t": 255465.95000000007,
      "d": 754.7000000000116,
      "v": 109
    },
    {
      "midi": 68,
      "hit": false,
      "t": 255465.95000000007,
      "d": 754.7000000000116,
      "v": 109
    },
    {
      "midi": 71,
      "hit": false,
      "t": 255465.95000000007,
      "d": 754.7000000000116,
      "v": 109
    },
    {
      "midi": 63,
      "hit": false,
      "t": 256220.65000000008,
      "d": 377.3500000000058,
      "v": 109
    },
    {
      "midi": 68,
      "hit": false,
      "t": 256220.65000000008,
      "d": 377.3500000000058,
      "v": 109
    },
    {
      "midi": 71,
      "hit": false,
      "t": 256220.65000000008,
      "d": 377.3500000000058,
      "v": 109
    },
    {
      "midi": 64,
      "hit": false,
      "t": 256598.0000000001,
      "d": 1509.3999999999942,
      "v": 109
    },
    {
      "midi": 68,
      "hit": false,
      "t": 256598.0000000001,
      "d": 1509.3999999999942,
      "v": 109
    },
    {
      "midi": 71,
      "hit": false,
      "t": 256598.0000000001,
      "d": 1509.3999999999942,
      "v": 109
    },
    {
      "midi": 63,
      "hit": false,
      "t": 258107.40000000008,
      "d": 1509.3999999999942,
      "v": 109
    },
    {
      "midi": 66,
      "hit": false,
      "t": 258107.40000000008,
      "d": 1509.3999999999942,
      "v": 109
    },
    {
      "midi": 71,
      "hit": false,
      "t": 258107.40000000008,
      "d": 1509.3999999999942,
      "v": 109
    },
    {
      "midi": 61,
      "hit": false,
      "t": 259616.80000000008,
      "d": 754.7000000000116,
      "v": 109
    },
    {
      "midi": 66,
      "hit": false,
      "t": 259616.80000000008,
      "d": 754.7000000000116,
      "v": 109
    },
    {
      "midi": 71,
      "hit": false,
      "t": 259616.80000000008,
      "d": 754.7000000000116,
      "v": 109
    },
    {
      "midi": 61,
      "hit": false,
      "t": 260371.5000000001,
      "d": 754.7000000000116,
      "v": 109
    },
    {
      "midi": 66,
      "hit": false,
      "t": 260371.5000000001,
      "d": 754.7000000000116,
      "v": 109
    },
    {
      "midi": 70,
      "hit": false,
      "t": 260371.5000000001,
      "d": 754.7000000000116,
      "v": 109
    },
    {
      "midi": 63,
      "hit": false,
      "t": 261126.2000000001,
      "d": 1509.3999999999942,
      "v": 109
    },
    {
      "midi": 68,
      "hit": false,
      "t": 261126.2000000001,
      "d": 1509.3999999999942,
      "v": 109
    },
    {
      "midi": 71,
      "hit": false,
      "t": 261126.2000000001,
      "d": 1509.3999999999942,
      "v": 109
    },
    {
      "midi": 64,
      "hit": false,
      "t": 262635.6000000001,
      "d": 1509.4000000000233,
      "v": 109
    },
    {
      "midi": 68,
      "hit": false,
      "t": 262635.6000000001,
      "d": 1509.4000000000233,
      "v": 109
    },
    {
      "midi": 71,
      "hit": false,
      "t": 262635.6000000001,
      "d": 1509.4000000000233,
      "v": 109
    },
    {
      "midi": 63,
      "hit": false,
      "t": 264145.0000000001,
      "d": 1509.4000000000233,
      "v": 109
    },
    {
      "midi": 66,
      "hit": false,
      "t": 264145.0000000001,
      "d": 1509.4000000000233,
      "v": 109
    },
    {
      "midi": 71,
      "hit": false,
      "t": 264145.0000000001,
      "d": 1509.4000000000233,
      "v": 109
    },
    {
      "midi": 61,
      "hit": false,
      "t": 265654.40000000014,
      "d": 754.7000000000116,
      "v": 109
    },
    {
      "midi": 66,
      "hit": false,
      "t": 265654.40000000014,
      "d": 754.7000000000116,
      "v": 109
    },
    {
      "midi": 71,
      "hit": false,
      "t": 265654.40000000014,
      "d": 754.7000000000116,
      "v": 109
    },
    {
      "midi": 61,
      "hit": false,
      "t": 266409.10000000015,
      "d": 754.7000000000116,
      "v": 109
    },
    {
      "midi": 66,
      "hit": false,
      "t": 266409.10000000015,
      "d": 754.7000000000116,
      "v": 109
    },
    {
      "midi": 70,
      "hit": false,
      "t": 266409.10000000015,
      "d": 754.7000000000116,
      "v": 109
    },
    {
      "midi": 63,
      "hit": false,
      "t": 267163.80000000016,
      "d": 1132.0499999999884,
      "v": 109
    },
    {
      "midi": 68,
      "hit": false,
      "t": 267163.80000000016,
      "d": 1132.0499999999884,
      "v": 109
    },
    {
      "midi": 71,
      "hit": false,
      "t": 267163.80000000016,
      "d": 1132.0499999999884,
      "v": 109
    },
    {
      "midi": 63,
      "hit": false,
      "t": 268295.85000000015,
      "d": 377.3499999999767,
      "v": 109
    },
    {
      "midi": 68,
      "hit": false,
      "t": 268295.85000000015,
      "d": 377.3499999999767,
      "v": 109
    },
    {
      "midi": 71,
      "hit": false,
      "t": 268295.85000000015,
      "d": 377.3499999999767,
      "v": 109
    },
    {
      "midi": 64,
      "hit": false,
      "t": 268673.2000000001,
      "d": 1509.4000000000233,
      "v": 109
    },
    {
      "midi": 68,
      "hit": false,
      "t": 268673.2000000001,
      "d": 1509.4000000000233,
      "v": 109
    },
    {
      "midi": 71,
      "hit": false,
      "t": 268673.2000000001,
      "d": 1509.4000000000233,
      "v": 109
    },
    {
      "midi": 63,
      "hit": false,
      "t": 270182.60000000015,
      "d": 1509.4000000000233,
      "v": 109
    },
    {
      "midi": 66,
      "hit": false,
      "t": 270182.60000000015,
      "d": 1509.4000000000233,
      "v": 109
    },
    {
      "midi": 71,
      "hit": false,
      "t": 270182.60000000015,
      "d": 1509.4000000000233,
      "v": 109
    },
    {
      "midi": 61,
      "hit": false,
      "t": 271692.0000000002,
      "d": 754.7000000000116,
      "v": 109
    },
    {
      "midi": 66,
      "hit": false,
      "t": 271692.0000000002,
      "d": 754.7000000000116,
      "v": 109
    },
    {
      "midi": 71,
      "hit": false,
      "t": 271692.0000000002,
      "d": 754.7000000000116,
      "v": 109
    },
    {
      "midi": 61,
      "hit": false,
      "t": 272446.7000000002,
      "d": 754.7000000000116,
      "v": 109
    },
    {
      "midi": 66,
      "hit": false,
      "t": 272446.7000000002,
      "d": 754.7000000000116,
      "v": 109
    },
    {
      "midi": 70,
      "hit": false,
      "t": 272446.7000000002,
      "d": 754.7000000000116,
      "v": 109
    },
    {
      "midi": 63,
      "hit": false,
      "t": 273201.4000000002,
      "d": 1509.4000000000233,
      "v": 109
    },
    {
      "midi": 68,
      "hit": false,
      "t": 273201.4000000002,
      "d": 1509.4000000000233,
      "v": 109
    },
    {
      "midi": 71,
      "hit": false,
      "t": 273201.4000000002,
      "d": 1509.4000000000233,
      "v": 109
    },
    {
      "midi": 64,
      "hit": false,
      "t": 274710.8000000002,
      "d": 1509.4000000000233,
      "v": 109
    },
    {
      "midi": 68,
      "hit": false,
      "t": 274710.8000000002,
      "d": 1509.4000000000233,
      "v": 109
    },
    {
      "midi": 71,
      "hit": false,
      "t": 274710.8000000002,
      "d": 1509.4000000000233,
      "v": 109
    },
    {
      "midi": 63,
      "hit": false,
      "t": 276220.20000000024,
      "d": 1509.4000000000233,
      "v": 109
    },
    {
      "midi": 66,
      "hit": false,
      "t": 276220.20000000024,
      "d": 1509.4000000000233,
      "v": 109
    },
    {
      "midi": 71,
      "hit": false,
      "t": 276220.20000000024,
      "d": 1509.4000000000233,
      "v": 109
    },
    {
      "midi": 61,
      "hit": false,
      "t": 277729.60000000027,
      "d": 754.7000000000116,
      "v": 109
    },
    {
      "midi": 66,
      "hit": false,
      "t": 277729.60000000027,
      "d": 754.7000000000116,
      "v": 109
    },
    {
      "midi": 71,
      "hit": false,
      "t": 277729.60000000027,
      "d": 754.7000000000116,
      "v": 109
    },
    {
      "midi": 61,
      "hit": false,
      "t": 278484.3000000003,
      "d": 754.7000000000116,
      "v": 109
    },
    {
      "midi": 66,
      "hit": false,
      "t": 278484.3000000003,
      "d": 754.7000000000116,
      "v": 109
    },
    {
      "midi": 70,
      "hit": false,
      "t": 278484.3000000003,
      "d": 754.7000000000116,
      "v": 109
    },
    {
      "midi": 71,
      "hit": false,
      "t": 279239.0000000003,
      "d": 188.67499999998836,
      "v": 105
    },
    {
      "midi": 63,
      "hit": false,
      "t": 279427.6750000003,
      "d": 188.67499999998836,
      "v": 105
    },
    {
      "midi": 68,
      "hit": false,
      "t": 279616.35000000027,
      "d": 188.67499999998836,
      "v": 108
    },
    {
      "midi": 70,
      "hit": false,
      "t": 279805.02500000026,
      "d": 188.67499999998836,
      "v": 105
    },
    {
      "midi": 71,
      "hit": false,
      "t": 279993.70000000024,
      "d": 188.67499999998836,
      "v": 105
    },
    {
      "midi": 63,
      "hit": false,
      "t": 280182.37500000023,
      "d": 188.67499999998836,
      "v": 105
    },
    {
      "midi": 68,
      "hit": false,
      "t": 280371.0500000002,
      "d": 188.67499999998836,
      "v": 108
    },
    {
      "midi": 70,
      "hit": false,
      "t": 280559.7250000002,
      "d": 188.67499999998836,
      "v": 105
    },
    {
      "midi": 71,
      "hit": false,
      "t": 280748.4000000002,
      "d": 188.67499999998836,
      "v": 105
    },
    {
      "midi": 64,
      "hit": false,
      "t": 280937.0750000002,
      "d": 188.67499999998836,
      "v": 105
    },
    {
      "midi": 68,
      "hit": false,
      "t": 281125.7500000002,
      "d": 188.67499999998836,
      "v": 105
    },
    {
      "midi": 70,
      "hit": false,
      "t": 281314.42500000016,
      "d": 188.67499999998836,
      "v": 105
    },
    {
      "midi": 71,
      "hit": false,
      "t": 281503.10000000015,
      "d": 188.67499999998836,
      "v": 105
    },
    {
      "midi": 64,
      "hit": false,
      "t": 281691.77500000014,
      "d": 188.67499999998836,
      "v": 105
    },
    {
      "midi": 68,
      "hit": false,
      "t": 281880.4500000001,
      "d": 188.67499999998836,
      "v": 107
    },
    {
      "midi": 70,
      "hit": false,
      "t": 282069.1250000001,
      "d": 188.67499999998836,
      "v": 105
    },
    {
      "midi": 71,
      "hit": false,
      "t": 282257.8000000001,
      "d": 188.67499999998836,
      "v": 105
    },
    {
      "midi": 66,
      "hit": false,
      "t": 282446.4750000001,
      "d": 188.67499999998836,
      "v": 105
    },
    {
      "midi": 68,
      "hit": false,
      "t": 282635.1500000001,
      "d": 188.67499999998836,
      "v": 110
    },
    {
      "midi": 70,
      "hit": false,
      "t": 282823.82500000007,
      "d": 188.67499999998836,
      "v": 105
    },
    {
      "midi": 71,
      "hit": false,
      "t": 283012.50000000006,
      "d": 188.67499999998836,
      "v": 105
    },
    {
      "midi": 66,
      "hit": false,
      "t": 283201.17500000005,
      "d": 188.67499999998836,
      "v": 105
    },
    {
      "midi": 68,
      "hit": false,
      "t": 283389.85000000003,
      "d": 188.67499999998836,
      "v": 110
    },
    {
      "midi": 70,
      "hit": false,
      "t": 283578.525,
      "d": 188.67499999998836,
      "v": 105
    },
    {
      "midi": 71,
      "hit": false,
      "t": 283767.2,
      "d": 188.67499999998836,
      "v": 105
    },
    {
      "midi": 66,
      "hit": false,
      "t": 283955.875,
      "d": 188.67499999998836,
      "v": 105
    },
    {
      "midi": 68,
      "hit": false,
      "t": 284144.55,
      "d": 188.67499999998836,
      "v": 110
    },
    {
      "midi": 71,
      "hit": false,
      "t": 284333.225,
      "d": 188.67499999998836,
      "v": 106
    },
    {
      "midi": 70,
      "hit": false,
      "t": 284521.89999999997,
      "d": 188.67499999998836,
      "v": 110
    },
    {
      "midi": 66,
      "hit": false,
      "t": 284710.57499999995,
      "d": 188.67499999998836,
      "v": 105
    },
    {
      "midi": 68,
      "hit": false,
      "t": 284899.24999999994,
      "d": 188.67499999998836,
      "v": 110
    },
    {
      "midi": 70,
      "hit": false,
      "t": 285087.92499999993,
      "d": 188.67499999998836,
      "v": 105
    },
    {
      "midi": 71,
      "hit": false,
      "t": 285276.5999999999,
      "d": 188.67499999998836,
      "v": 105
    },
    {
      "midi": 63,
      "hit": false,
      "t": 285465.2749999999,
      "d": 188.67499999998836,
      "v": 105
    },
    {
      "midi": 68,
      "hit": false,
      "t": 285653.9499999999,
      "d": 188.67499999998836,
      "v": 108
    },
    {
      "midi": 70,
      "hit": false,
      "t": 285842.6249999999,
      "d": 188.67499999998836,
      "v": 106
    },
    {
      "midi": 71,
      "hit": false,
      "t": 286031.2999999999,
      "d": 188.67499999998836,
      "v": 105
    },
    {
      "midi": 63,
      "hit": false,
      "t": 286219.97499999986,
      "d": 188.67499999998836,
      "v": 105
    },
    {
      "midi": 68,
      "hit": false,
      "t": 286408.64999999985,
      "d": 188.67499999998836,
      "v": 106
    },
    {
      "midi": 70,
      "hit": false,
      "t": 286597.32499999984,
      "d": 188.67499999998836,
      "v": 106
    },
    {
      "midi": 71,
      "hit": false,
      "t": 286785.9999999998,
      "d": 188.67499999998836,
      "v": 105
    },
    {
      "midi": 64,
      "hit": false,
      "t": 286974.6749999998,
      "d": 188.67499999998836,
      "v": 105
    },
    {
      "midi": 68,
      "hit": false,
      "t": 287163.3499999998,
      "d": 188.67499999998836,
      "v": 106
    },
    {
      "midi": 70,
      "hit": false,
      "t": 287352.0249999998,
      "d": 188.67499999998836,
      "v": 110
    },
    {
      "midi": 71,
      "hit": false,
      "t": 287540.6999999998,
      "d": 188.67499999998836,
      "v": 105
    },
    {
      "midi": 64,
      "hit": false,
      "t": 287729.37499999977,
      "d": 188.67499999998836,
      "v": 105
    },
    {
      "midi": 68,
      "hit": false,
      "t": 287918.04999999976,
      "d": 188.67499999998836,
      "v": 108
    },
    {
      "midi": 70,
      "hit": false,
      "t": 288106.72499999974,
      "d": 188.67499999998836,
      "v": 105
    },
    {
      "midi": 71,
      "hit": false,
      "t": 288295.39999999973,
      "d": 188.67499999998836,
      "v": 105
    },
    {
      "midi": 66,
      "hit": false,
      "t": 288484.0749999997,
      "d": 188.67499999998836,
      "v": 105
    },
    {
      "midi": 68,
      "hit": false,
      "t": 288672.7499999997,
      "d": 188.67499999998836,
      "v": 110
    },
    {
      "midi": 70,
      "hit": false,
      "t": 288861.4249999997,
      "d": 188.67499999998836,
      "v": 106
    },
    {
      "midi": 71,
      "hit": false,
      "t": 289050.0999999997,
      "d": 188.67499999998836,
      "v": 105
    },
    {
      "midi": 66,
      "hit": false,
      "t": 289238.7749999997,
      "d": 188.67499999998836,
      "v": 105
    },
    {
      "midi": 68,
      "hit": false,
      "t": 289427.44999999966,
      "d": 188.67499999998836,
      "v": 110
    },
    {
      "midi": 70,
      "hit": false,
      "t": 289616.12499999965,
      "d": 188.67499999998836,
      "v": 105
    },
    {
      "midi": 71,
      "hit": false,
      "t": 289804.79999999964,
      "d": 188.67499999998836,
      "v": 105
    },
    {
      "midi": 66,
      "hit": false,
      "t": 289993.4749999996,
      "d": 188.67499999998836,
      "v": 105
    },
    {
      "midi": 68,
      "hit": false,
      "t": 290182.1499999996,
      "d": 188.67499999998836,
      "v": 105
    },
    {
      "midi": 71,
      "hit": false,
      "t": 290370.8249999996,
      "d": 188.67499999998836,
      "v": 110
    },
    {
      "midi": 70,
      "hit": false,
      "t": 290559.4999999996,
      "d": 188.67499999998836,
      "v": 108
    },
    {
      "midi": 66,
      "hit": false,
      "t": 290748.1749999996,
      "d": 188.67499999998836,
      "v": 105
    },
    {
      "midi": 68,
      "hit": false,
      "t": 290936.84999999957,
      "d": 188.67499999998836,
      "v": 108
    },
    {
      "midi": 70,
      "hit": false,
      "t": 291125.52499999956,
      "d": 188.67499999998836,
      "v": 105
    },
    {
      "midi": 71,
      "hit": false,
      "t": 291314.19999999955,
      "d": 188.67499999998836,
      "v": 105
    },
    {
      "midi": 63,
      "hit": false,
      "t": 291502.87499999953,
      "d": 188.67499999998836,
      "v": 105
    },
    {
      "midi": 68,
      "hit": false,
      "t": 291691.5499999995,
      "d": 188.67499999998836,
      "v": 105
    },
    {
      "midi": 70,
      "hit": false,
      "t": 291880.2249999995,
      "d": 188.67499999998836,
      "v": 105
    },
    {
      "midi": 71,
      "hit": false,
      "t": 292068.8999999995,
      "d": 188.67499999998836,
      "v": 105
    },
    {
      "midi": 63,
      "hit": false,
      "t": 292257.5749999995,
      "d": 188.67499999998836,
      "v": 105
    },
    {
      "midi": 68,
      "hit": false,
      "t": 292446.2499999995,
      "d": 188.67499999998836,
      "v": 106
    },
    {
      "midi": 70,
      "hit": false,
      "t": 292634.92499999946,
      "d": 188.67499999998836,
      "v": 105
    },
    {
      "midi": 71,
      "hit": false,
      "t": 292823.59999999945,
      "d": 188.67499999998836,
      "v": 105
    },
    {
      "midi": 64,
      "hit": false,
      "t": 293012.27499999944,
      "d": 188.67499999998836,
      "v": 105
    },
    {
      "midi": 68,
      "hit": false,
      "t": 293200.94999999943,
      "d": 188.67499999998836,
      "v": 106
    },
    {
      "midi": 70,
      "hit": false,
      "t": 293389.6249999994,
      "d": 188.67499999998836,
      "v": 105
    },
    {
      "midi": 71,
      "hit": false,
      "t": 293578.2999999994,
      "d": 188.67499999998836,
      "v": 105
    },
    {
      "midi": 64,
      "hit": false,
      "t": 293766.9749999994,
      "d": 188.67499999998836,
      "v": 105
    },
    {
      "midi": 68,
      "hit": false,
      "t": 293955.6499999994,
      "d": 188.67499999998836,
      "v": 106
    },
    {
      "midi": 70,
      "hit": false,
      "t": 294144.3249999994,
      "d": 188.67499999998836,
      "v": 105
    },
    {
      "midi": 71,
      "hit": false,
      "t": 294332.99999999936,
      "d": 188.67499999998836,
      "v": 105
    },
    {
      "midi": 66,
      "hit": false,
      "t": 294521.67499999935,
      "d": 188.67499999998836,
      "v": 105
    },
    {
      "midi": 68,
      "hit": false,
      "t": 294710.34999999934,
      "d": 188.67499999998836,
      "v": 105
    },
    {
      "midi": 70,
      "hit": false,
      "t": 294899.0249999993,
      "d": 188.67499999998836,
      "v": 105
    },
    {
      "midi": 71,
      "hit": false,
      "t": 295087.6999999993,
      "d": 188.67499999998836,
      "v": 105
    },
    {
      "midi": 66,
      "hit": false,
      "t": 295276.3749999993,
      "d": 188.67499999998836,
      "v": 105
    },
    {
      "midi": 68,
      "hit": false,
      "t": 295465.0499999993,
      "d": 188.67499999998836,
      "v": 108
    },
    {
      "midi": 70,
      "hit": false,
      "t": 295653.7249999993,
      "d": 188.67499999998836,
      "v": 105
    },
    {
      "midi": 71,
      "hit": false,
      "t": 295842.39999999927,
      "d": 188.67499999998836,
      "v": 105
    },
    {
      "midi": 66,
      "hit": false,
      "t": 296031.07499999925,
      "d": 188.67499999998836,
      "v": 105
    },
    {
      "midi": 68,
      "hit": false,
      "t": 296219.74999999924,
      "d": 188.67499999998836,
      "v": 108
    },
    {
      "midi": 71,
      "hit": false,
      "t": 296408.42499999923,
      "d": 188.67499999998836,
      "v": 108
    },
    {
      "midi": 70,
      "hit": false,
      "t": 296597.0999999992,
      "d": 188.67499999998836,
      "v": 110
    },
    {
      "midi": 66,
      "hit": false,
      "t": 296785.7749999992,
      "d": 188.67499999998836,
      "v": 105
    },
    {
      "midi": 68,
      "hit": false,
      "t": 296974.4499999992,
      "d": 188.67499999998836,
      "v": 110
    },
    {
      "midi": 70,
      "hit": false,
      "t": 297163.1249999992,
      "d": 188.67499999998836,
      "v": 105
    },
    {
      "midi": 71,
      "hit": false,
      "t": 297351.7999999992,
      "d": 188.67499999998836,
      "v": 105
    },
    {
      "midi": 63,
      "hit": false,
      "t": 297540.47499999916,
      "d": 188.67499999998836,
      "v": 105
    },
    {
      "midi": 68,
      "hit": false,
      "t": 297729.14999999915,
      "d": 188.67499999998836,
      "v": 105
    },
    {
      "midi": 70,
      "hit": false,
      "t": 297917.82499999914,
      "d": 188.67499999998836,
      "v": 105
    },
    {
      "midi": 71,
      "hit": false,
      "t": 298106.4999999991,
      "d": 188.67499999998836,
      "v": 105
    },
    {
      "midi": 63,
      "hit": false,
      "t": 298295.1749999991,
      "d": 188.67499999998836,
      "v": 105
    },
    {
      "midi": 68,
      "hit": false,
      "t": 298483.8499999991,
      "d": 188.67499999998836,
      "v": 106
    },
    {
      "midi": 70,
      "hit": false,
      "t": 298672.5249999991,
      "d": 188.67499999998836,
      "v": 105
    },
    {
      "midi": 71,
      "hit": false,
      "t": 298861.1999999991,
      "d": 188.67499999998836,
      "v": 105
    },
    {
      "midi": 64,
      "hit": false,
      "t": 299049.87499999907,
      "d": 188.67499999998836,
      "v": 105
    },
    {
      "midi": 68,
      "hit": false,
      "t": 299238.54999999906,
      "d": 188.67499999998836,
      "v": 106
    },
    {
      "midi": 70,
      "hit": false,
      "t": 299427.22499999905,
      "d": 188.67499999998836,
      "v": 105
    },
    {
      "midi": 71,
      "hit": false,
      "t": 299615.89999999903,
      "d": 188.67499999998836,
      "v": 105
    },
    {
      "midi": 64,
      "hit": false,
      "t": 299804.574999999,
      "d": 188.67499999998836,
      "v": 105
    },
    {
      "midi": 68,
      "hit": false,
      "t": 299993.249999999,
      "d": 188.67499999998836,
      "v": 105
    },
    {
      "midi": 70,
      "hit": false,
      "t": 300181.924999999,
      "d": 188.67499999998836,
      "v": 105
    },
    {
      "midi": 68,
      "hit": false,
      "t": 300370.599999999,
      "d": 1509.4000000000233,
      "v": 108
    },
    {
      "midi": 73,
      "hit": false,
      "t": 300370.599999999,
      "d": 1509.4000000000233,
      "v": 110
    },
    {
      "midi": 76,
      "hit": false,
      "t": 300370.599999999,
      "d": 1509.4000000000233,
      "v": 110
    },
    {
      "midi": 71,
      "hit": false,
      "t": 301879.999999999,
      "d": 188.67499999998836,
      "v": 105
    },
    {
      "midi": 70,
      "hit": false,
      "t": 302068.674999999,
      "d": 188.67499999998836,
      "v": 110
    },
    {
      "midi": 68,
      "hit": false,
      "t": 302257.349999999,
      "d": 188.67499999998836,
      "v": 108
    },
    {
      "midi": 67,
      "hit": false,
      "t": 302446.024999999,
      "d": 188.67499999998836,
      "v": 110
    },
    {
      "midi": 71,
      "hit": false,
      "t": 302634.69999999896,
      "d": 188.67499999998836,
      "v": 110
    },
    {
      "midi": 70,
      "hit": false,
      "t": 302823.37499999895,
      "d": 188.67499999998836,
      "v": 110
    },
    {
      "midi": 68,
      "hit": false,
      "t": 303012.04999999894,
      "d": 188.67499999998836,
      "v": 110
    },
    {
      "midi": 68,
      "hit": false,
      "t": 303578.0749999989,
      "d": 188.67499999998836,
      "v": 110
    }
  ]
}