{
  "jsonPath": "Soul/Funky Tech House/Richard Grey/one-more-time-chris-moody-remix.json",
  "path": "Soul\\Funky Tech House\\Richard Grey\\One More Time (Chris Moody Remix).mid",
  "name": "One More Time (Chris Moody Remix)",
  "difficulty": "Advanced",
  "bpm": 115.00024916720653,
  "notes": [
    {
      "midi": 38,
      "hit": false,
      "t": 68869.416,
      "d": 239.12991666667222,
      "v": 117
    },
    {
      "midi": 57,
      "hit": false,
      "t": 68869.416,
      "d": 461.9555208333477,
      "v": 117
    },
    {
      "midi": 66,
      "hit": false,
      "t": 69130.285,
      "d": 293.47762499999953,
      "v": 117
    },
    {
      "midi": 50,
      "hit": false,
      "t": 69130.285,
      "d": 516.3032291666605,
      "v": 117
    },
    {
      "midi": 62,
      "hit": false,
      "t": 69260.7195,
      "d": 217.39083333332383,
      "v": 113
    },
    {
      "midi": 38,
      "hit": false,
      "t": 69260.7195,
      "d": 293.477624999985,
      "v": 112
    },
    {
      "midi": 57,
      "hit": false,
      "t": 69391.15400000001,
      "d": 315.2167083333188,
      "v": 117
    },
    {
      "midi": 66,
      "hit": false,
      "t": 69521.5885,
      "d": 619.5638749999925,
      "v": 117
    },
    {
      "midi": 50,
      "hit": false,
      "t": 69652.023,
      "d": 21.739083333333838,
      "v": 117
    },
    {
      "midi": 62,
      "hit": false,
      "t": 69652.023,
      "d": 358.6948749999865,
      "v": 117
    },
    {
      "midi": 57,
      "hit": false,
      "t": 69912.89199999999,
      "d": 114.13018749999173,
      "v": 92
    },
    {
      "midi": 43,
      "hit": false,
      "t": 69912.89199999999,
      "d": 309.7819374999963,
      "v": 117
    },
    {
      "midi": 59,
      "hit": false,
      "t": 70173.76099999998,
      "d": 195.65175000000454,
      "v": 111
    },
    {
      "midi": 55,
      "hit": false,
      "t": 70173.76099999998,
      "d": 249.99945833333186,
      "v": 117
    },
    {
      "midi": 67,
      "hit": false,
      "t": 70173.76099999998,
      "d": 326.086249999993,
      "v": 117
    },
    {
      "midi": 62,
      "hit": false,
      "t": 70304.19549999999,
      "d": 168.47789583331905,
      "v": 117
    },
    {
      "midi": 59,
      "hit": false,
      "t": 70434.62999999998,
      "d": 298.91239583333663,
      "v": 117
    },
    {
      "midi": 43,
      "hit": false,
      "t": 70434.62999999998,
      "d": 407.60781249999127,
      "v": 117
    },
    {
      "midi": 67,
      "hit": false,
      "t": 70565.06449999998,
      "d": 413.04258333332837,
      "v": 117
    },
    {
      "midi": 55,
      "hit": false,
      "t": 70695.49899999998,
      "d": 119.56495833332883,
      "v": 117
    },
    {
      "midi": 62,
      "hit": false,
      "t": 70695.49899999998,
      "d": 195.65174999999,
      "v": 117
    },
    {
      "midi": 59,
      "hit": false,
      "t": 70825.93349999997,
      "d": 124.99972916666593,
      "v": 117
    },
    {
      "midi": 38,
      "hit": false,
      "t": 70956.36799999997,
      "d": 331.52102083334466,
      "v": 117
    },
    {
      "midi": 57,
      "hit": false,
      "t": 71217.23699999998,
      "d": 184.78220833333035,
      "v": 117
    },
    {
      "midi": 66,
      "hit": false,
      "t": 71217.23699999998,
      "d": 288.04285416666244,
      "v": 117
    },
    {
      "midi": 50,
      "hit": false,
      "t": 71217.23699999998,
      "d": 516.3032291666605,
      "v": 117
    },
    {
      "midi": 62,
      "hit": false,
      "t": 71347.67149999998,
      "d": 211.95606249998673,
      "v": 113
    },
    {
      "midi": 38,
      "hit": false,
      "t": 71478.10599999997,
      "d": 81.52156249999825,
      "v": 117
    },
    {
      "midi": 57,
      "hit": false,
      "t": 71478.10599999997,
      "d": 342.3905625000043,
      "v": 117
    },
    {
      "midi": 66,
      "hit": false,
      "t": 71608.54049999997,
      "d": 347.8253333333414,
      "v": 117
    },
    {
      "midi": 50,
      "hit": false,
      "t": 71738.97499999998,
      "d": 27.173854166670935,
      "v": 117
    },
    {
      "midi": 38,
      "hit": false,
      "t": 71999.84399999998,
      "d": 43.478166666667676,
      "v": 117
    },
    {
      "midi": 57,
      "hit": false,
      "t": 71999.84399999998,
      "d": 353.26010416666395,
      "v": 117
    },
    {
      "midi": 50,
      "hit": false,
      "t": 72260.71299999999,
      "d": 16.30431249999674,
      "v": 117
    },
    {
      "midi": 66,
      "hit": false,
      "t": 72260.71299999999,
      "d": 282.60808333332534,
      "v": 117
    },
    {
      "midi": 62,
      "hit": false,
      "t": 72391.14749999998,
      "d": 206.52129166666418,
      "v": 113
    },
    {
      "midi": 38,
      "hit": false,
      "t": 72521.58199999998,
      "d": 43.478166666667676,
      "v": 117
    },
    {
      "midi": 57,
      "hit": false,
      "t": 72521.58199999998,
      "d": 249.9994583333173,
      "v": 117
    },
    {
      "midi": 66,
      "hit": false,
      "t": 72652.01649999997,
      "d": 146.73881249998522,
      "v": 117
    },
    {
      "midi": 62,
      "hit": false,
      "t": 72782.45099999996,
      "d": 146.73881249999977,
      "v": 117
    },
    {
      "midi": 50,
      "hit": false,
      "t": 72782.45099999996,
      "d": 516.303229166675,
      "v": 117
    },
    {
      "midi": 57,
      "hit": false,
      "t": 72912.88549999996,
      "d": 108.69541666666919,
      "v": 117
    },
    {
      "midi": 38,
      "hit": false,
      "t": 73043.31999999996,
      "d": 168.4778958333336,
      "v": 117
    },
    {
      "midi": 50,
      "hit": false,
      "t": 73304.18899999997,
      "d": 21.739083333333838,
      "v": 117
    },
    {
      "midi": 57,
      "hit": false,
      "t": 73304.18899999997,
      "d": 168.4778958333336,
      "v": 117
    },
    {
      "midi": 66,
      "hit": false,
      "t": 73304.18899999997,
      "d": 195.65175000000454,
      "v": 117
    },
    {
      "midi": 62,
      "hit": false,
      "t": 73434.62349999997,
      "d": 331.52102083334466,
      "v": 117
    },
    {
      "midi": 38,
      "hit": false,
      "t": 73565.05799999998,
      "d": 27.173854166670935,
      "v": 117
    },
    {
      "midi": 57,
      "hit": false,
      "t": 73695.49249999998,
      "d": 255.43422916666896,
      "v": 117
    },
    {
      "midi": 66,
      "hit": false,
      "t": 73695.49249999998,
      "d": 532.6075416666718,
      "v": 117
    },
    {
      "midi": 50,
      "hit": false,
      "t": 73825.92699999998,
      "d": 32.60862499999348,
      "v": 117
    },
    {
      "midi": 62,
      "hit": false,
      "t": 73956.36149999998,
      "d": 190.21697916666744,
      "v": 117
    },
    {
      "midi": 57,
      "hit": false,
      "t": 74086.79599999999,
      "d": 141.30404166666267,
      "v": 117
    },
    {
      "midi": 43,
      "hit": false,
      "t": 74086.79599999999,
      "d": 347.82533333332685,
      "v": 117
    },
    {
      "midi": 59,
      "hit": false,
      "t": 74347.66499999998,
      "d": 179.3474375000078,
      "v": 117
    },
    {
      "midi": 67,
      "hit": false,
      "t": 74347.66499999998,
      "d": 277.1733125000028,
      "v": 117
    },
    {
      "midi": 55,
      "hit": false,
      "t": 74347.66499999998,
      "d": 516.303229166675,
      "v": 117
    },
    {
      "midi": 62,
      "hit": false,
      "t": 74478.09949999998,
      "d": 173.9126666666707,
      "v": 117
    },
    {
      "midi": 43,
      "hit": false,
      "t": 74608.53399999999,
      "d": 48.91293750000477,
      "v": 117
    },
    {
      "midi": 59,
      "hit": false,
      "t": 74608.53399999999,
      "d": 288.042854166677,
      "v": 117
    },
    {
      "midi": 67,
      "hit": false,
      "t": 74738.96849999999,
      "d": 385.868729166672,
      "v": 117
    },
    {
      "midi": 55,
      "hit": false,
      "t": 74869.40299999999,
      "d": 21.739083333333838,
      "v": 117
    },
    {
      "midi": 62,
      "hit": false,
      "t": 74869.40299999999,
      "d": 173.9126666666707,
      "v": 116
    },
    {
      "midi": 59,
      "hit": false,
      "t": 74999.8375,
      "d": 124.99972916666593,
      "v": 117
    },
    {
      "midi": 38,
      "hit": false,
      "t": 75130.272,
      "d": 298.91239583333663,
      "v": 117
    },
    {
      "midi": 57,
      "hit": false,
      "t": 75391.141,
      "d": 173.9126666666707,
      "v": 117
    },
    {
      "midi": 66,
      "hit": false,
      "t": 75391.141,
      "d": 201.08652083334164,
      "v": 117
    },
    {
      "midi": 50,
      "hit": false,
      "t": 75391.141,
      "d": 429.34689583333966,
      "v": 117
    },
    {
      "midi": 62,
      "hit": false,
      "t": 75521.5755,
      "d": 277.1733125000028,
      "v": 112
    },
    {
      "midi": 38,
      "hit": false,
      "t": 75652.01000000001,
      "d": 124.99972916666593,
      "v": 117
    },
    {
      "midi": 57,
      "hit": false,
      "t": 75652.01000000001,
      "d": 853.2590208333422,
      "v": 117
    },
    {
      "midi": 38,
      "hit": false,
      "t": 75782.44450000001,
      "d": 16.30431249999674,
      "v": 113
    },
    {
      "midi": 66,
      "hit": false,
      "t": 75782.44450000001,
      "d": 402.1730416666687,
      "v": 117
    },
    {
      "midi": 50,
      "hit": false,
      "t": 75912.87900000002,
      "d": 516.3032291666605,
      "v": 117
    },
    {
      "midi": 38,
      "hit": false,
      "t": 76173.74800000002,
      "d": 70.65202083332406,
      "v": 117
    },
    {
      "midi": 50,
      "hit": false,
      "t": 76434.61700000001,
      "d": 65.21725000000151,
      "v": 117
    },
    {
      "midi": 66,
      "hit": false,
      "t": 76434.61700000001,
      "d": 195.65175000000454,
      "v": 117
    },
    {
      "midi": 62,
      "hit": false,
      "t": 76565.05150000002,
      "d": 201.08652083334164,
      "v": 117
    },
    {
      "midi": 38,
      "hit": false,
      "t": 76695.48600000002,
      "d": 21.739083333333838,
      "v": 117
    },
    {
      "midi": 57,
      "hit": false,
      "t": 76695.48600000002,
      "d": 244.5646875000093,
      "v": 109
    },
    {
      "midi": 66,
      "hit": false,
      "t": 76825.92050000002,
      "d": 173.9126666666707,
      "v": 117
    },
    {
      "midi": 62,
      "hit": false,
      "t": 76956.35500000003,
      "d": 179.3474375000078,
      "v": 117
    },
    {
      "midi": 66,
      "hit": false,
      "t": 77086.78950000003,
      "d": 81.52156249999825,
      "v": 78
    },
    {
      "midi": 57,
      "hit": false,
      "t": 77086.78950000003,
      "d": 130.43450000000303,
      "v": 113
    },
    {
      "midi": 43,
      "hit": false,
      "t": 77217.22400000003,
      "d": 320.65147916667047,
      "v": 117
    },
    {
      "midi": 59,
      "hit": false,
      "t": 77478.09300000004,
      "d": 108.69541666666919,
      "v": 117
    },
    {
      "midi": 55,
      "hit": false,
      "t": 77478.09300000004,
      "d": 239.12991666667222,
      "v": 117
    },
    {
      "midi": 67,
      "hit": false,
      "t": 77478.09300000004,
      "d": 255.43422916666896,
      "v": 117
    },
    {
      "midi": 62,
      "hit": false,
      "t": 77608.52750000004,
      "d": 157.60835416667396,
      "v": 116
    },
    {
      "midi": 59,
      "hit": false,
      "t": 77738.96200000004,
      "d": 288.042854166677,
      "v": 117
    },
    {
      "midi": 43,
      "hit": false,
      "t": 77738.96200000004,
      "d": 331.52102083334466,
      "v": 117
    },
    {
      "midi": 55,
      "hit": false,
      "t": 77869.39650000005,
      "d": 233.69514583333512,
      "v": 117
    },
    {
      "midi": 67,
      "hit": false,
      "t": 77869.39650000005,
      "d": 239.12991666667222,
      "v": 117
    },
    {
      "midi": 62,
      "hit": false,
      "t": 77999.83100000005,
      "d": 157.60835416667396,
      "v": 117
    },
    {
      "midi": 59,
      "hit": false,
      "t": 78130.26550000005,
      "d": 119.56495833334338,
      "v": 117
    },
    {
      "midi": 41,
      "hit": false,
      "t": 78260.70000000006,
      "d": 331.52102083334466,
      "v": 117
    },
    {
      "midi": 57,
      "hit": false,
      "t": 78521.56900000006,
      "d": 114.13018750000629,
      "v": 117
    },
    {
      "midi": 65,
      "hit": false,
      "t": 78521.56900000006,
      "d": 206.52129166666418,
      "v": 117
    },
    {
      "midi": 53,
      "hit": false,
      "t": 78521.56900000006,
      "d": 516.3032291666605,
      "v": 117
    },
    {
      "midi": 60,
      "hit": false,
      "t": 78652.00350000006,
      "d": 239.12991666665766,
      "v": 117
    },
    {
      "midi": 41,
      "hit": false,
      "t": 78782.43800000005,
      "d": 27.173854166670935,
      "v": 117
    },
    {
      "midi": 57,
      "hit": false,
      "t": 78912.87250000006,
      "d": 239.12991666667222,
      "v": 117
    },
    {
      "midi": 65,
      "hit": false,
      "t": 78912.87250000006,
      "d": 309.7819374999963,
      "v": 117
    },
    {
      "midi": 53,
      "hit": false,
      "t": 79043.30700000006,
      "d": 119.56495833332883,
      "v": 117
    },
    {
      "midi": 60,
      "hit": false,
      "t": 79173.74150000005,
      "d": 163.0431249999965,
      "v": 111
    },
    {
      "midi": 57,
      "hit": false,
      "t": 79304.17600000005,
      "d": 81.52156249999825,
      "v": 117
    },
    {
      "midi": 43,
      "hit": false,
      "t": 79304.17600000005,
      "d": 326.086249999993,
      "v": 117
    },
    {
      "midi": 59,
      "hit": false,
      "t": 79565.04500000004,
      "d": 195.65175000000454,
      "v": 117
    },
    {
      "midi": 67,
      "hit": false,
      "t": 79565.04500000004,
      "d": 326.08625000000757,
      "v": 117
    },
    {
      "midi": 55,
      "hit": false,
      "t": 79565.04500000004,
      "d": 516.303229166675,
      "v": 117
    },
    {
      "midi": 62,
      "hit": false,
      "t": 79695.47950000004,
      "d": 195.65175000000454,
      "v": 117
    },
    {
      "midi": 43,
      "hit": false,
      "t": 79825.91400000005,
      "d": 146.73881249999977,
      "v": 117
    },
    {
      "midi": 59,
      "hit": false,
      "t": 79956.34850000005,
      "d": 211.95606250000128,
      "v": 117
    },
    {
      "midi": 67,
      "hit": false,
      "t": 79956.34850000005,
      "d": 451.08597916665894,
      "v": 117
    },
    {
      "midi": 55,
      "hit": false,
      "t": 80086.78300000005,
      "d": 43.478166666667676,
      "v": 117
    },
    {
      "midi": 43,
      "hit": false,
      "t": 80347.65200000005,
      "d": 260.8689999999915,
      "v": 117
    },
    {
      "midi": 59,
      "hit": false,
      "t": 80347.65200000005,
      "d": 396.7382708333316,
      "v": 117
    },
    {
      "midi": 67,
      "hit": false,
      "t": 80608.52100000004,
      "d": 331.52102083334466,
      "v": 117
    },
    {
      "midi": 55,
      "hit": false,
      "t": 80608.52100000004,
      "d": 516.303229166675,
      "v": 117
    },
    {
      "midi": 62,
      "hit": false,
      "t": 80738.95550000004,
      "d": 211.95606250000128,
      "v": 117
    },
    {
      "midi": 43,
      "hit": false,
      "t": 80869.39000000004,
      "d": 27.173854166670935,
      "v": 117
    },
    {
      "midi": 59,
      "hit": false,
      "t": 80999.82450000005,
      "d": 222.82560416666092,
      "v": 111
    },
    {
      "midi": 67,
      "hit": false,
      "t": 80999.82450000005,
      "d": 369.5644166666607,
      "v": 117
    },
    {
      "midi": 55,
      "hit": false,
      "t": 81130.25900000005,
      "d": 81.52156249999825,
      "v": 117
    },
    {
      "midi": 62,
      "hit": false,
      "t": 81130.25900000005,
      "d": 168.47789583331905,
      "v": 117
    },
    {
      "midi": 59,
      "hit": false,
      "t": 81260.69350000004,
      "d": 130.43450000000303,
      "v": 117
    },
    {
      "midi": 50,
      "hit": false,
      "t": 81391.12800000004,
      "d": 217.39083333333838,
      "v": 117
    },
    {
      "midi": 38,
      "hit": false,
      "t": 81391.12800000004,
      "d": 304.34716666667373,
      "v": 117
    },
    {
      "midi": 66,
      "hit": false,
      "t": 81651.99700000005,
      "d": 244.5646875000093,
      "v": 117
    },
    {
      "midi": 50,
      "hit": false,
      "t": 81651.99700000005,
      "d": 516.303229166675,
      "v": 117
    },
    {
      "midi": 62,
      "hit": false,
      "t": 81782.43150000005,
      "d": 190.21697916666744,
      "v": 117
    },
    {
      "midi": 38,
      "hit": false,
      "t": 81912.86600000005,
      "d": 16.30431249999674,
      "v": 117
    },
    {
      "midi": 57,
      "hit": false,
      "t": 81912.86600000005,
      "d": 244.5646875000093,
      "v": 117
    },
    {
      "midi": 66,
      "hit": false,
      "t": 82043.30050000006,
      "d": 402.17304166665417,
      "v": 117
    },
    {
      "midi": 50,
      "hit": false,
      "t": 82173.73500000006,
      "d": 32.60862499999348,
      "v": 117
    },
    {
      "midi": 62,
      "hit": false,
      "t": 82173.73500000006,
      "d": 179.34743749999325,
      "v": 117
    },
    {
      "midi": 57,
      "hit": false,
      "t": 82304.16950000005,
      "d": 152.1735833333223,
      "v": 117
    },
    {
      "midi": 55,
      "hit": false,
      "t": 82434.60400000005,
      "d": 255.4342291666544,
      "v": 117
    },
    {
      "midi": 43,
      "hit": false,
      "t": 82434.60400000005,
      "d": 391.30349999999453,
      "v": 117
    },
    {
      "midi": 59,
      "hit": false,
      "t": 82695.47300000004,
      "d": 179.3474375000078,
      "v": 117
    },
    {
      "midi": 67,
      "hit": false,
      "t": 82695.47300000004,
      "d": 293.47762499999953,
      "v": 117
    },
    {
      "midi": 55,
      "hit": false,
      "t": 82825.90750000004,
      "d": 70.65202083333861,
      "v": 117
    },
    {
      "midi": 62,
      "hit": false,
      "t": 82825.90750000004,
      "d": 195.65174999999,
      "v": 117
    },
    {
      "midi": 43,
      "hit": false,
      "t": 82956.34200000005,
      "d": 331.5210208333301,
      "v": 117
    },
    {
      "midi": 67,
      "hit": false,
      "t": 83086.77650000004,
      "d": 239.12991666667222,
      "v": 117
    },
    {
      "midi": 55,
      "hit": false,
      "t": 83217.21100000004,
      "d": 76.08679166667571,
      "v": 117
    },
    {
      "midi": 62,
      "hit": false,
      "t": 83217.21100000004,
      "d": 173.9126666666707,
      "v": 117
    },
    {
      "midi": 59,
      "hit": false,
      "t": 83347.64550000004,
      "d": 119.56495833332883,
      "v": 117
    },
    {
      "midi": 50,
      "hit": false,
      "t": 83478.08000000003,
      "d": 244.56468749999476,
      "v": 117
    },
    {
      "midi": 38,
      "hit": false,
      "t": 83478.08000000003,
      "d": 315.2167083333188,
      "v": 117
    },
    {
      "midi": 57,
      "hit": false,
      "t": 83738.94900000002,
      "d": 184.7822083333158,
      "v": 117
    },
    {
      "midi": 66,
      "hit": false,
      "t": 83738.94900000002,
      "d": 304.3471666666446,
      "v": 117
    },
    {
      "midi": 50,
      "hit": false,
      "t": 83738.94900000002,
      "d": 516.3032291666459,
      "v": 117
    },
    {
      "midi": 62,
      "hit": false,
      "t": 83869.38350000001,
      "d": 211.95606249998673,
      "v": 117
    },
    {
      "midi": 38,
      "hit": false,
      "t": 83999.818,
      "d": 43.478166666667676,
      "v": 117
    },
    {
      "midi": 57,
      "hit": false,
      "t": 83999.818,
      "d": 282.6080833333399,
      "v": 111
    },
    {
      "midi": 66,
      "hit": false,
      "t": 84130.2525,
      "d": 157.60835416667396,
      "v": 117
    },
    {
      "midi": 50,
      "hit": false,
      "t": 84260.687,
      "d": 5.434770833337097,
      "v": 117
    },
    {
      "midi": 62,
      "hit": false,
      "t": 84260.687,
      "d": 190.21697916666744,
      "v": 117
    },
    {
      "midi": 57,
      "hit": false,
      "t": 84391.12150000001,
      "d": 152.17358333333686,
      "v": 117
    },
    {
      "midi": 38,
      "hit": false,
      "t": 84521.55600000001,
      "d": 201.08652083332709,
      "v": 117
    },
    {
      "midi": 50,
      "hit": false,
      "t": 84782.425,
      "d": 43.478166666667676,
      "v": 117
    },
    {
      "midi": 57,
      "hit": false,
      "t": 84782.425,
      "d": 173.9126666666707,
      "v": 117
    },
    {
      "midi": 66,
      "hit": false,
      "t": 84782.425,
      "d": 173.9126666666707,
      "v": 117
    },
    {
      "midi": 62,
      "hit": false,
      "t": 84912.8595,
      "d": 222.82560416667548,
      "v": 117
    },
    {
      "midi": 38,
      "hit": false,
      "t": 85043.29400000001,
      "d": 266.30377083334315,
      "v": 117
    },
    {
      "midi": 66,
      "hit": false,
      "t": 85173.72850000001,
      "d": 146.73881249999977,
      "v": 117
    },
    {
      "midi": 57,
      "hit": false,
      "t": 85173.72850000001,
      "d": 195.65175000000454,
      "v": 82
    },
    {
      "midi": 50,
      "hit": false,
      "t": 85304.16300000002,
      "d": 103.26064583333209,
      "v": 117
    },
    {
      "midi": 62,
      "hit": false,
      "t": 85304.16300000002,
      "d": 173.9126666666707,
      "v": 117
    },
    {
      "midi": 57,
      "hit": false,
      "t": 85434.59750000002,
      "d": 347.82533333332685,
      "v": 117
    },
    {
      "midi": 45,
      "hit": false,
      "t": 85565.03200000002,
      "d": 38.04339583333058,
      "v": 117
    },
    {
      "midi": 33,
      "hit": false,
      "t": 85565.03200000002,
      "d": 304.3471666666592,
      "v": 117
    },
    {
      "midi": 69,
      "hit": false,
      "t": 85825.90100000001,
      "d": 326.08625000000757,
      "v": 117
    },
    {
      "midi": 45,
      "hit": false,
      "t": 85825.90100000001,
      "d": 516.303229166675,
      "v": 117
    },
    {
      "midi": 57,
      "hit": false,
      "t": 85825.90100000001,
      "d": 646.737729166678,
      "v": 117
    },
    {
      "midi": 64,
      "hit": false,
      "t": 85956.33550000002,
      "d": 173.9126666666707,
      "v": 117
    },
    {
      "midi": 33,
      "hit": false,
      "t": 86086.77000000002,
      "d": 48.91293750000477,
      "v": 117
    },
    {
      "midi": 61,
      "hit": false,
      "t": 86086.77000000002,
      "d": 206.52129166666418,
      "v": 103
    },
    {
      "midi": 69,
      "hit": false,
      "t": 86217.20450000002,
      "d": 211.95606250000128,
      "v": 117
    },
    {
      "midi": 45,
      "hit": false,
      "t": 86347.63900000002,
      "d": 10.869541666659643,
      "v": 117
    },
    {
      "midi": 35,
      "hit": false,
      "t": 86347.63900000002,
      "d": 32.60862499999348,
      "v": 105
    },
    {
      "midi": 64,
      "hit": false,
      "t": 86347.63900000002,
      "d": 135.86927083334012,
      "v": 116
    },
    {
      "midi": 57,
      "hit": false,
      "t": 86478.07350000003,
      "d": 173.9126666666707,
      "v": 117
    },
    {
      "midi": 69,
      "hit": false,
      "t": 86608.50800000003,
      "d": 195.65175000000454,
      "v": 117
    },
    {
      "midi": 33,
      "hit": false,
      "t": 86608.50800000003,
      "d": 255.43422916666896,
      "v": 117
    },
    {
      "midi": 64,
      "hit": false,
      "t": 86738.94250000003,
      "d": 146.73881249999977,
      "v": 117
    },
    {
      "midi": 57,
      "hit": false,
      "t": 86869.37700000004,
      "d": 211.95606250000128,
      "v": 117
    },
    {
      "midi": 45,
      "hit": false,
      "t": 86869.37700000004,
      "d": 510.8684583333379,
      "v": 117
    },
    {
      "midi": 69,
      "hit": false,
      "t": 86999.81150000004,
      "d": 179.3474375000078,
      "v": 117
    },
    {
      "midi": 33,
      "hit": false,
      "t": 87130.24600000004,
      "d": 27.173854166670935,
      "v": 117
    },
    {
      "midi": 64,
      "hit": false,
      "t": 87130.24600000004,
      "d": 146.73881249999977,
      "v": 117
    },
    {
      "midi": 57,
      "hit": false,
      "t": 87260.68050000005,
      "d": 266.30377083331405,
      "v": 117
    },
    {
      "midi": 45,
      "hit": false,
      "t": 87391.11500000003,
      "d": 65.21725000000151,
      "v": 117
    },
    {
      "midi": 67,
      "hit": false,
      "t": 87391.11500000003,
      "d": 103.26064583333209,
      "v": 117
    },
    {
      "midi": 69,
      "hit": false,
      "t": 87391.11500000003,
      "d": 114.13018749999173,
      "v": 117
    },
    {
      "midi": 64,
      "hit": false,
      "t": 87391.11500000003,
      "d": 119.56495833332883,
      "v": 117
    },
    {
      "midi": 64,
      "hit": false,
      "t": 87651.98400000003,
      "d": 168.4778958333336,
      "v": 117
    },
    {
      "midi": 57,
      "hit": false,
      "t": 87651.98400000003,
      "d": 173.9126666666707,
      "v": 117
    },
    {
      "midi": 69,
      "hit": false,
      "t": 87651.98400000003,
      "d": 195.65175000000454,
      "v": 117
    },
    {
      "midi": 45,
      "hit": false,
      "t": 87651.98400000003,
      "d": 211.95606250000128,
      "v": 117
    },
    {
      "midi": 38,
      "hit": false,
      "t": 141912.73600000003,
      "d": 239.12991666665766,
      "v": 117
    },
    {
      "midi": 57,
      "hit": false,
      "t": 141912.73600000003,
      "d": 461.9555208333186,
      "v": 117
    },
    {
      "midi": 66,
      "hit": false,
      "t": 142173.605,
      "d": 293.47762499999953,
      "v": 117
    },
    {
      "midi": 50,
      "hit": false,
      "t": 142173.605,
      "d": 516.3032291666605,
      "v": 117
    },
    {
      "midi": 62,
      "hit": false,
      "t": 142304.0395,
      "d": 217.39083333333838,
      "v": 113
    },
    {
      "midi": 38,
      "hit": false,
      "t": 142304.0395,
      "d": 293.47762499999953,
      "v": 112
    },
    {
      "midi": 57,
      "hit": false,
      "t": 142434.47400000002,
      "d": 315.2167083332897,
      "v": 117
    },
    {
      "midi": 66,
      "hit": false,
      "t": 142564.90850000002,
      "d": 619.5638749999634,
      "v": 117
    },
    {
      "midi": 50,
      "hit": false,
      "t": 142695.343,
      "d": 21.739083333319286,
      "v": 117
    },
    {
      "midi": 62,
      "hit": false,
      "t": 142695.343,
      "d": 358.6948749999865,
      "v": 117
    },
    {
      "midi": 57,
      "hit": false,
      "t": 142956.21199999997,
      "d": 114.13018750000629,
      "v": 92
    },
    {
      "midi": 43,
      "hit": false,
      "t": 142956.21199999997,
      "d": 309.7819374999963,
      "v": 117
    },
    {
      "midi": 59,
      "hit": false,
      "t": 143217.08099999998,
      "d": 195.65174999999,
      "v": 111
    },
    {
      "midi": 55,
      "hit": false,
      "t": 143217.08099999998,
      "d": 249.99945833333186,
      "v": 117
    },
    {
      "midi": 67,
      "hit": false,
      "t": 143217.08099999998,
      "d": 326.0862500000221,
      "v": 117
    },
    {
      "midi": 62,
      "hit": false,
      "t": 143347.51549999998,
      "d": 168.47789583334816,
      "v": 117
    },
    {
      "midi": 59,
      "hit": false,
      "t": 143477.94999999998,
      "d": 298.9123958333512,
      "v": 117
    },
    {
      "midi": 43,
      "hit": false,
      "t": 143477.94999999998,
      "d": 407.6078125000349,
      "v": 117
    },
    {
      "midi": 67,
      "hit": false,
      "t": 143608.3845,
      "d": 413.04258333332837,
      "v": 117
    },
    {
      "midi": 55,
      "hit": false,
      "t": 143738.819,
      "d": 119.56495833335794,
      "v": 117
    },
    {
      "midi": 62,
      "hit": false,
      "t": 143738.819,
      "d": 195.6517500000191,
      "v": 117
    },
    {
      "midi": 59,
      "hit": false,
      "t": 143869.25350000002,
      "d": 124.99972916665138,
      "v": 117
    },
    {
      "midi": 38,
      "hit": false,
      "t": 143999.688,
      "d": 331.52102083331556,
      "v": 117
    },
    {
      "midi": 57,
      "hit": false,
      "t": 144260.55699999997,
      "d": 184.7822083333449,
      "v": 117
    },
    {
      "midi": 66,
      "hit": false,
      "t": 144260.55699999997,
      "d": 288.042854166677,
      "v": 117
    },
    {
      "midi": 50,
      "hit": false,
      "t": 144260.55699999997,
      "d": 516.3032291666896,
      "v": 117
    },
    {
      "midi": 62,
      "hit": false,
      "t": 144390.99149999997,
      "d": 211.95606250001583,
      "v": 113
    },
    {
      "midi": 38,
      "hit": false,
      "t": 144521.42599999998,
      "d": 81.5215625000128,
      "v": 117
    },
    {
      "midi": 57,
      "hit": false,
      "t": 144521.42599999998,
      "d": 342.39056250001886,
      "v": 117
    },
    {
      "midi": 66,
      "hit": false,
      "t": 144651.86049999998,
      "d": 347.8253333333414,
      "v": 117
    },
    {
      "midi": 50,
      "hit": false,
      "t": 144782.29499999998,
      "d": 27.173854166670935,
      "v": 117
    },
    {
      "midi": 38,
      "hit": false,
      "t": 145043.164,
      "d": 43.478166666667676,
      "v": 117
    },
    {
      "midi": 57,
      "hit": false,
      "t": 145043.164,
      "d": 353.26010416666395,
      "v": 117
    },
    {
      "midi": 50,
      "hit": false,
      "t": 145304.033,
      "d": 16.30431249999674,
      "v": 117
    },
    {
      "midi": 66,
      "hit": false,
      "t": 145304.033,
      "d": 282.60808333332534,
      "v": 117
    },
    {
      "midi": 62,
      "hit": false,
      "t": 145434.4675,
      "d": 206.52129166663508,
      "v": 113
    },
    {
      "midi": 38,
      "hit": false,
      "t": 145564.902,
      "d": 43.47816666663857,
      "v": 117
    },
    {
      "midi": 57,
      "hit": false,
      "t": 145564.902,
      "d": 249.99945833330275,
      "v": 117
    },
    {
      "midi": 66,
      "hit": false,
      "t": 145695.33649999998,
      "d": 146.73881249999977,
      "v": 117
    },
    {
      "midi": 62,
      "hit": false,
      "t": 145825.77099999998,
      "d": 146.73881249999977,
      "v": 117
    },
    {
      "midi": 50,
      "hit": false,
      "t": 145825.77099999998,
      "d": 516.3032291666314,
      "v": 117
    },
    {
      "midi": 57,
      "hit": false,
      "t": 145956.20549999998,
      "d": 108.69541666665464,
      "v": 117
    },
    {
      "midi": 38,
      "hit": false,
      "t": 146086.63999999996,
      "d": 168.47789583331905,
      "v": 117
    },
    {
      "midi": 50,
      "hit": false,
      "t": 146347.50899999993,
      "d": 21.739083333319286,
      "v": 117
    },
    {
      "midi": 57,
      "hit": false,
      "t": 146347.50899999993,
      "d": 168.47789583331905,
      "v": 117
    },
    {
      "midi": 66,
      "hit": false,
      "t": 146347.50899999993,
      "d": 195.65174999999,
      "v": 117
    },
    {
      "midi": 62,
      "hit": false,
      "t": 146477.9434999999,
      "d": 331.52102083334466,
      "v": 117
    },
    {
      "midi": 38,
      "hit": false,
      "t": 146608.3779999999,
      "d": 27.173854166670935,
      "v": 117
    },
    {
      "midi": 57,
      "hit": false,
      "t": 146738.8124999999,
      "d": 255.4342291666544,
      "v": 117
    },
    {
      "midi": 66,
      "hit": false,
      "t": 146738.8124999999,
      "d": 532.6075416666572,
      "v": 117
    },
    {
      "midi": 50,
      "hit": false,
      "t": 146869.24699999992,
      "d": 32.60862499999348,
      "v": 117
    },
    {
      "midi": 62,
      "hit": false,
      "t": 146999.6814999999,
      "d": 190.21697916666744,
      "v": 117
    },
    {
      "midi": 57,
      "hit": false,
      "t": 147130.1159999999,
      "d": 141.30404166667722,
      "v": 117
    },
    {
      "midi": 43,
      "hit": false,
      "t": 147130.1159999999,
      "d": 347.8253333333414,
      "v": 117
    },
    {
      "midi": 59,
      "hit": false,
      "t": 147390.9849999999,
      "d": 179.34743749999325,
      "v": 117
    },
    {
      "midi": 67,
      "hit": false,
      "t": 147390.9849999999,
      "d": 277.1733125000028,
      "v": 117
    },
    {
      "midi": 55,
      "hit": false,
      "t": 147390.9849999999,
      "d": 516.3032291666896,
      "v": 117
    },
    {
      "midi": 62,
      "hit": false,
      "t": 147521.4194999999,
      "d": 173.9126666666707,
      "v": 117
    },
    {
      "midi": 43,
      "hit": false,
      "t": 147651.8539999999,
      "d": 48.91293749999022,
      "v": 117
    },
    {
      "midi": 59,
      "hit": false,
      "t": 147651.8539999999,
      "d": 288.0428541666479,
      "v": 117
    },
    {
      "midi": 67,
      "hit": false,
      "t": 147782.2884999999,
      "d": 385.86872916665743,
      "v": 117
    },
    {
      "midi": 55,
      "hit": false,
      "t": 147912.7229999999,
      "d": 21.739083333319286,
      "v": 117
    },
    {
      "midi": 62,
      "hit": false,
      "t": 147912.7229999999,
      "d": 173.9126666666416,
      "v": 116
    },
    {
      "midi": 59,
      "hit": false,
      "t": 148043.15749999988,
      "d": 124.99972916668048,
      "v": 117
    },
    {
      "midi": 38,
      "hit": false,
      "t": 148173.5919999999,
      "d": 298.9123958333512,
      "v": 117
    },
    {
      "midi": 57,
      "hit": false,
      "t": 148434.4609999999,
      "d": 173.9126666666707,
      "v": 117
    },
    {
      "midi": 66,
      "hit": false,
      "t": 148434.4609999999,
      "d": 201.08652083334164,
      "v": 117
    },
    {
      "midi": 50,
      "hit": false,
      "t": 148434.4609999999,
      "d": 429.3468958333251,
      "v": 117
    },
    {
      "midi": 62,
      "hit": false,
      "t": 148564.8954999999,
      "d": 277.1733125000028,
      "v": 112
    },
    {
      "midi": 38,
      "hit": false,
      "t": 148695.3299999999,
      "d": 124.99972916668048,
      "v": 117
    },
    {
      "midi": 57,
      "hit": false,
      "t": 148695.3299999999,
      "d": 853.2590208332986,
      "v": 117
    },
    {
      "midi": 38,
      "hit": false,
      "t": 148825.7644999999,
      "d": 16.30431249999674,
      "v": 113
    },
    {
      "midi": 66,
      "hit": false,
      "t": 148825.7644999999,
      "d": 402.17304166665417,
      "v": 117
    },
    {
      "midi": 50,
      "hit": false,
      "t": 148956.19899999988,
      "d": 516.3032291666896,
      "v": 117
    },
    {
      "midi": 38,
      "hit": false,
      "t": 149217.06799999988,
      "d": 70.65202083333861,
      "v": 117
    },
    {
      "midi": 50,
      "hit": false,
      "t": 149477.9369999999,
      "d": 65.21724999998696,
      "v": 117
    },
    {
      "midi": 66,
      "hit": false,
      "t": 149477.9369999999,
      "d": 195.65174999996088,
      "v": 117
    },
    {
      "midi": 62,
      "hit": false,
      "t": 149608.37149999986,
      "d": 201.08652083328343,
      "v": 117
    },
    {
      "midi": 38,
      "hit": false,
      "t": 149738.80599999984,
      "d": 21.739083333319286,
      "v": 117
    },
    {
      "midi": 57,
      "hit": false,
      "t": 149738.80599999984,
      "d": 244.5646874999802,
      "v": 109
    },
    {
      "midi": 66,
      "hit": false,
      "t": 149869.2404999998,
      "d": 173.9126666666707,
      "v": 117
    },
    {
      "midi": 62,
      "hit": false,
      "t": 149999.6749999998,
      "d": 179.34743749999325,
      "v": 117
    },
    {
      "midi": 66,
      "hit": false,
      "t": 150130.10949999982,
      "d": 81.5215624999837,
      "v": 78
    },
    {
      "midi": 57,
      "hit": false,
      "t": 150130.10949999982,
      "d": 130.43449999997392,
      "v": 113
    },
    {
      "midi": 43,
      "hit": false,
      "t": 150260.5439999998,
      "d": 320.65147916667047,
      "v": 117
    },
    {
      "midi": 59,
      "hit": false,
      "t": 150521.4129999998,
      "d": 108.69541666665464,
      "v": 117
    },
    {
      "midi": 55,
      "hit": false,
      "t": 150521.4129999998,
      "d": 239.12991666662856,
      "v": 117
    },
    {
      "midi": 67,
      "hit": false,
      "t": 150521.4129999998,
      "d": 255.4342291666253,
      "v": 117
    },
    {
      "midi": 62,
      "hit": false,
      "t": 150651.84749999977,
      "d": 157.60835416664486,
      "v": 116
    },
    {
      "midi": 59,
      "hit": false,
      "t": 150782.28199999974,
      "d": 288.042854166677,
      "v": 117
    },
    {
      "midi": 43,
      "hit": false,
      "t": 150782.28199999974,
      "d": 331.52102083334466,
      "v": 117
    },
    {
      "midi": 55,
      "hit": false,
      "t": 150912.71649999975,
      "d": 233.69514583333512,
      "v": 117
    },
    {
      "midi": 67,
      "hit": false,
      "t": 150912.71649999975,
      "d": 239.12991666665766,
      "v": 117
    },
    {
      "midi": 62,
      "hit": false,
      "t": 151043.15099999975,
      "d": 157.60835416664486,
      "v": 117
    },
    {
      "midi": 59,
      "hit": false,
      "t": 151173.58549999972,
      "d": 119.56495833332883,
      "v": 117
    },
    {
      "midi": 41,
      "hit": false,
      "t": 151304.01999999973,
      "d": 331.52102083334466,
      "v": 117
    },
    {
      "midi": 57,
      "hit": false,
      "t": 151564.88899999973,
      "d": 114.13018750000629,
      "v": 117
    },
    {
      "midi": 65,
      "hit": false,
      "t": 151564.88899999973,
      "d": 206.52129166666418,
      "v": 117
    },
    {
      "midi": 53,
      "hit": false,
      "t": 151564.88899999973,
      "d": 516.3032291666896,
      "v": 117
    },
    {
      "midi": 60,
      "hit": false,
      "t": 151695.32349999974,
      "d": 239.12991666668677,
      "v": 117
    },
    {
      "midi": 41,
      "hit": false,
      "t": 151825.75799999974,
      "d": 27.173854166670935,
      "v": 117
    },
    {
      "midi": 57,
      "hit": false,
      "t": 151956.19249999974,
      "d": 239.12991666665766,
      "v": 117
    },
    {
      "midi": 65,
      "hit": false,
      "t": 151956.19249999974,
      "d": 309.7819374999963,
      "v": 117
    },
    {
      "midi": 53,
      "hit": false,
      "t": 152086.62699999975,
      "d": 119.56495833332883,
      "v": 117
    },
    {
      "midi": 60,
      "hit": false,
      "t": 152217.06149999975,
      "d": 163.0431249999965,
      "v": 111
    },
    {
      "midi": 57,
      "hit": false,
      "t": 152347.49599999975,
      "d": 81.5215624999837,
      "v": 117
    },
    {
      "midi": 43,
      "hit": false,
      "t": 152347.49599999975,
      "d": 326.0862499999639,
      "v": 117
    },
    {
      "midi": 59,
      "hit": false,
      "t": 152608.36499999973,
      "d": 195.65174999996088,
      "v": 117
    },
    {
      "midi": 67,
      "hit": false,
      "t": 152608.36499999973,
      "d": 326.0862499999348,
      "v": 117
    },
    {
      "midi": 55,
      "hit": false,
      "t": 152608.36499999973,
      "d": 516.3032291665731,
      "v": 117
    },
    {
      "midi": 62,
      "hit": false,
      "t": 152738.7994999997,
      "d": 195.65174999996088,
      "v": 117
    },
    {
      "midi": 43,
      "hit": false,
      "t": 152869.23399999968,
      "d": 146.73881249997066,
      "v": 117
    },
    {
      "midi": 59,
      "hit": false,
      "t": 152999.66849999965,
      "d": 211.95606249998673,
      "v": 117
    },
    {
      "midi": 67,
      "hit": false,
      "t": 152999.66849999965,
      "d": 451.0859791666444,
      "v": 117
    },
    {
      "midi": 55,
      "hit": false,
      "t": 153130.10299999962,
      "d": 43.478166666667676,
      "v": 117
    },
    {
      "midi": 43,
      "hit": false,
      "t": 153390.97199999963,
      "d": 260.86900000000605,
      "v": 117
    },
    {
      "midi": 59,
      "hit": false,
      "t": 153390.97199999963,
      "d": 396.7382708333316,
      "v": 117
    },
    {
      "midi": 67,
      "hit": false,
      "t": 153651.84099999964,
      "d": 331.52102083334466,
      "v": 117
    },
    {
      "midi": 55,
      "hit": false,
      "t": 153651.84099999964,
      "d": 516.3032291666896,
      "v": 117
    },
    {
      "midi": 62,
      "hit": false,
      "t": 153782.27549999964,
      "d": 211.95606250001583,
      "v": 117
    },
    {
      "midi": 43,
      "hit": false,
      "t": 153912.70999999964,
      "d": 27.173854166670935,
      "v": 117
    },
    {
      "midi": 59,
      "hit": false,
      "t": 154043.14449999965,
      "d": 222.82560416669003,
      "v": 111
    },
    {
      "midi": 67,
      "hit": false,
      "t": 154043.14449999965,
      "d": 369.5644166667189,
      "v": 117
    },
    {
      "midi": 55,
      "hit": false,
      "t": 154173.57899999965,
      "d": 81.5215625000128,
      "v": 117
    },
    {
      "midi": 62,
      "hit": false,
      "t": 154173.57899999965,
      "d": 168.47789583337726,
      "v": 117
    },
    {
      "midi": 59,
      "hit": false,
      "t": 154304.01349999968,
      "d": 130.43450000000303,
      "v": 117
    },
    {
      "midi": 50,
      "hit": false,
      "t": 154434.44799999968,
      "d": 217.39083333333838,
      "v": 117
    },
    {
      "midi": 38,
      "hit": false,
      "t": 154434.44799999968,
      "d": 304.34716666667373,
      "v": 117
    },
    {
      "midi": 66,
      "hit": false,
      "t": 154695.3169999997,
      "d": 244.5646875000093,
      "v": 117
    },
    {
      "midi": 50,
      "hit": false,
      "t": 154695.3169999997,
      "d": 516.3032291666896,
      "v": 117
    },
    {
      "midi": 62,
      "hit": false,
      "t": 154825.7514999997,
      "d": 190.21697916666744,
      "v": 117
    },
    {
      "midi": 38,
      "hit": false,
      "t": 154956.1859999997,
      "d": 16.30431249999674,
      "v": 117
    },
    {
      "midi": 57,
      "hit": false,
      "t": 154956.1859999997,
      "d": 244.5646875000093,
      "v": 117
    },
    {
      "midi": 66,
      "hit": false,
      "t": 155086.6204999997,
      "d": 402.1730416666833,
      "v": 117
    },
    {
      "midi": 50,
      "hit": false,
      "t": 155217.0549999997,
      "d": 32.60862499999348,
      "v": 117
    },
    {
      "midi": 62,
      "hit": false,
      "t": 155217.0549999997,
      "d": 179.34743749999325,
      "v": 117
    },
    {
      "midi": 57,
      "hit": false,
      "t": 155347.4894999997,
      "d": 152.17358333335142,
      "v": 117
    },
    {
      "midi": 55,
      "hit": false,
      "t": 155477.9239999997,
      "d": 255.4342291666835,
      "v": 117
    },
    {
      "midi": 43,
      "hit": false,
      "t": 155477.9239999997,
      "d": 391.3035000000091,
      "v": 117
    },
    {
      "midi": 59,
      "hit": false,
      "t": 155738.7929999997,
      "d": 179.34743749999325,
      "v": 117
    },
    {
      "midi": 67,
      "hit": false,
      "t": 155738.7929999997,
      "d": 293.47762499997043,
      "v": 117
    },
    {
      "midi": 55,
      "hit": false,
      "t": 155869.22749999972,
      "d": 70.6520208333095,
      "v": 117
    },
    {
      "midi": 62,
      "hit": false,
      "t": 155869.22749999972,
      "d": 195.65174999996088,
      "v": 117
    },
    {
      "midi": 43,
      "hit": false,
      "t": 155999.6619999997,
      "d": 331.52102083331556,
      "v": 117
    },
    {
      "midi": 67,
      "hit": false,
      "t": 156130.09649999966,
      "d": 239.12991666665766,
      "v": 117
    },
    {
      "midi": 55,
      "hit": false,
      "t": 156260.53099999967,
      "d": 76.08679166666116,
      "v": 117
    },
    {
      "midi": 62,
      "hit": false,
      "t": 156260.53099999967,
      "d": 173.9126666666416,
      "v": 117
    },
    {
      "midi": 59,
      "hit": false,
      "t": 156390.96549999964,
      "d": 119.56495833332883,
      "v": 117
    },
    {
      "midi": 50,
      "hit": false,
      "t": 156521.39999999964,
      "d": 244.5646875000093,
      "v": 117
    },
    {
      "midi": 38,
      "hit": false,
      "t": 156521.39999999964,
      "d": 315.2167083333479,
      "v": 117
    },
    {
      "midi": 57,
      "hit": false,
      "t": 156782.26899999965,
      "d": 184.7822083333449,
      "v": 117
    },
    {
      "midi": 66,
      "hit": false,
      "t": 156782.26899999965,
      "d": 304.34716666667373,
      "v": 117
    },
    {
      "midi": 50,
      "hit": false,
      "t": 156782.26899999965,
      "d": 516.3032291666896,
      "v": 117
    },
    {
      "midi": 62,
      "hit": false,
      "t": 156912.70349999965,
      "d": 211.95606250001583,
      "v": 117
    },
    {
      "midi": 38,
      "hit": false,
      "t": 157043.13799999966,
      "d": 43.478166666667676,
      "v": 117
    },
    {
      "midi": 57,
      "hit": false,
      "t": 157043.13799999966,
      "d": 282.60808333332534,
      "v": 111
    },
    {
      "midi": 66,
      "hit": false,
      "t": 157173.57249999966,
      "d": 157.60835416664486,
      "v": 117
    },
    {
      "midi": 50,
      "hit": false,
      "t": 157304.00699999966,
      "d": 5.4347708333225455,
      "v": 117
    },
    {
      "midi": 62,
      "hit": false,
      "t": 157304.00699999966,
      "d": 190.21697916663834,
      "v": 117
    },
    {
      "midi": 57,
      "hit": false,
      "t": 157434.44149999964,
      "d": 152.1735833333223,
      "v": 117
    },
    {
      "midi": 38,
      "hit": false,
      "t": 157564.87599999964,
      "d": 201.08652083331253,
      "v": 117
    },
    {
      "midi": 50,
      "hit": false,
      "t": 157825.74499999962,
      "d": 43.478166666667676,
      "v": 117
    },
    {
      "midi": 57,
      "hit": false,
      "t": 157825.74499999962,
      "d": 173.9126666666707,
      "v": 117
    },
    {
      "midi": 66,
      "hit": false,
      "t": 157825.74499999962,
      "d": 173.9126666666707,
      "v": 117
    },
    {
      "midi": 62,
      "hit": false,
      "t": 157956.17949999962,
      "d": 222.82560416666092,
      "v": 117
    },
    {
      "midi": 38,
      "hit": false,
      "t": 158086.61399999962,
      "d": 266.3037708333286,
      "v": 117
    },
    {
      "midi": 66,
      "hit": false,
      "t": 158217.04849999963,
      "d": 146.73881249999977,
      "v": 117
    },
    {
      "midi": 57,
      "hit": false,
      "t": 158217.04849999963,
      "d": 195.65174999999,
      "v": 82
    },
    {
      "midi": 50,
      "hit": false,
      "t": 158347.48299999963,
      "d": 103.26064583333209,
      "v": 117
    },
    {
      "midi": 62,
      "hit": false,
      "t": 158347.48299999963,
      "d": 173.9126666666707,
      "v": 117
    },
    {
      "midi": 57,
      "hit": false,
      "t": 158477.91749999963,
      "d": 347.8253333333414,
      "v": 117
    },
    {
      "midi": 45,
      "hit": false,
      "t": 158608.35199999964,
      "d": 38.04339583334513,
      "v": 117
    },
    {
      "midi": 33,
      "hit": false,
      "t": 158608.35199999964,
      "d": 304.34716666667373,
      "v": 117
    },
    {
      "midi": 69,
      "hit": false,
      "t": 158869.22099999964,
      "d": 326.086249999993,
      "v": 117
    },
    {
      "midi": 45,
      "hit": false,
      "t": 158869.22099999964,
      "d": 516.3032291666314,
      "v": 117
    },
    {
      "midi": 57,
      "hit": false,
      "t": 158869.22099999964,
      "d": 646.7377291666053,
      "v": 117
    },
    {
      "midi": 64,
      "hit": false,
      "t": 158999.65549999964,
      "d": 173.9126666666707,
      "v": 117
    },
    {
      "midi": 33,
      "hit": false,
      "t": 159130.08999999965,
      "d": 48.91293749999022,
      "v": 117
    },
    {
      "midi": 61,
      "hit": false,
      "t": 159130.08999999965,
      "d": 206.52129166663508,
      "v": 103
    },
    {
      "midi": 69,
      "hit": false,
      "t": 159260.52449999962,
      "d": 211.95606249995762,
      "v": 117
    },
    {
      "midi": 45,
      "hit": false,
      "t": 159390.9589999996,
      "d": 10.869541666674195,
      "v": 117
    },
    {
      "midi": 35,
      "hit": false,
      "t": 159390.9589999996,
      "d": 32.60862499999348,
      "v": 105
    },
    {
      "midi": 64,
      "hit": false,
      "t": 159390.9589999996,
      "d": 135.86927083329647,
      "v": 116
    },
    {
      "midi": 57,
      "hit": false,
      "t": 159521.39349999957,
      "d": 173.9126666666707,
      "v": 117
    },
    {
      "midi": 69,
      "hit": false,
      "t": 159651.82799999957,
      "d": 195.65174999999,
      "v": 117
    },
    {
      "midi": 33,
      "hit": false,
      "t": 159651.82799999957,
      "d": 255.4342291666544,
      "v": 117
    },
    {
      "midi": 64,
      "hit": false,
      "t": 159782.26249999958,
      "d": 146.73881249997066,
      "v": 117
    },
    {
      "midi": 57,
      "hit": false,
      "t": 159912.69699999955,
      "d": 211.95606250001583,
      "v": 117
    },
    {
      "midi": 45,
      "hit": false,
      "t": 159912.69699999955,
      "d": 510.8684583333379,
      "v": 117
    },
    {
      "midi": 69,
      "hit": false,
      "t": 160043.13149999955,
      "d": 179.34743749999325,
      "v": 117
    },
    {
      "midi": 33,
      "hit": false,
      "t": 160173.56599999956,
      "d": 27.173854166670935,
      "v": 117
    },
    {
      "midi": 64,
      "hit": false,
      "t": 160173.56599999956,
      "d": 146.73881249999977,
      "v": 117
    },
    {
      "midi": 57,
      "hit": false,
      "t": 160304.00049999956,
      "d": 266.3037708333286,
      "v": 117
    },
    {
      "midi": 45,
      "hit": false,
      "t": 160434.43499999956,
      "d": 65.21724999998696,
      "v": 117
    },
    {
      "midi": 67,
      "hit": false,
      "t": 160434.43499999956,
      "d": 103.26064583333209,
      "v": 117
    },
    {
      "midi": 69,
      "hit": false,
      "t": 160434.43499999956,
      "d": 114.13018750000629,
      "v": 117
    },
    {
      "midi": 64,
      "hit": false,
      "t": 160434.43499999956,
      "d": 119.56495833332883,
      "v": 117
    },
    {
      "midi": 64,
      "hit": false,
      "t": 160695.30399999957,
      "d": 168.47789583331905,
      "v": 117
    },
    {
      "midi": 57,
      "hit": false,
      "t": 160695.30399999957,
      "d": 173.9126666666416,
      "v": 117
    },
    {
      "midi": 69,
      "hit": false,
      "t": 160695.30399999957,
      "d": 195.65174999996088,
      "v": 117
    },
    {
      "midi": 45,
      "hit": false,
      "t": 160695.30399999957,
      "d": 211.95606249995762,
      "v": 117
    }
  ]
}