{
  "jsonPath": "Rock/Folk Rock/Jan  Dean/the-little-old-lady-from-pasadena.json",
  "path": "Rock\\Folk Rock\\Jan  Dean\\The Little Old Lady (From Pasadena).mid",
  "name": "The Little Old Lady (From Pasadena)",
  "difficulty": "Advanced",
  "bpm": 144.0023040368646,
  "notes": [
    {
      "midi": 66,
      "hit": false,
      "t": 2708.29,
      "d": 93.31447916666684,
      "v": 117
    },
    {
      "midi": 63,
      "hit": false,
      "t": 2708.29,
      "d": 99.8247916666669,
      "v": 97
    },
    {
      "midi": 70,
      "hit": false,
      "t": 2708.29,
      "d": 119.35572916666706,
      "v": 102
    },
    {
      "midi": 51,
      "hit": false,
      "t": 2708.29,
      "d": 164.927916666667,
      "v": 127
    },
    {
      "midi": 66,
      "hit": false,
      "t": 3124.9500000000003,
      "d": 82.46395833333327,
      "v": 99
    },
    {
      "midi": 63,
      "hit": false,
      "t": 3124.9500000000003,
      "d": 86.80416666666679,
      "v": 88
    },
    {
      "midi": 70,
      "hit": false,
      "t": 3124.9500000000003,
      "d": 95.48458333333338,
      "v": 90
    },
    {
      "midi": 51,
      "hit": false,
      "t": 3124.9500000000003,
      "d": 164.92791666666653,
      "v": 127
    },
    {
      "midi": 54,
      "hit": false,
      "t": 3333.28,
      "d": 91.14437499999985,
      "v": 127
    },
    {
      "midi": 66,
      "hit": false,
      "t": 3333.28,
      "d": 95.48458333333338,
      "v": 113
    },
    {
      "midi": 61,
      "hit": false,
      "t": 3333.28,
      "d": 104.16499999999996,
      "v": 105
    },
    {
      "midi": 70,
      "hit": false,
      "t": 3333.28,
      "d": 112.84541666666655,
      "v": 105
    },
    {
      "midi": 66,
      "hit": false,
      "t": 3541.61,
      "d": 112.84541666666655,
      "v": 94
    },
    {
      "midi": 70,
      "hit": false,
      "t": 3541.61,
      "d": 121.52583333333314,
      "v": 90
    },
    {
      "midi": 61,
      "hit": false,
      "t": 3541.61,
      "d": 125.86604166666666,
      "v": 90
    },
    {
      "midi": 54,
      "hit": false,
      "t": 3541.61,
      "d": 175.7784375000001,
      "v": 109
    },
    {
      "midi": 61,
      "hit": false,
      "t": 3749.94,
      "d": 279.9434375000001,
      "v": 82
    },
    {
      "midi": 70,
      "hit": false,
      "t": 3749.94,
      "d": 284.2836458333336,
      "v": 90
    },
    {
      "midi": 66,
      "hit": false,
      "t": 3749.94,
      "d": 290.79395833333365,
      "v": 90
    },
    {
      "midi": 53,
      "hit": false,
      "t": 3749.94,
      "d": 345.04656250000016,
      "v": 126
    },
    {
      "midi": 66,
      "hit": false,
      "t": 4166.6,
      "d": 93.31447916666639,
      "v": 105
    },
    {
      "midi": 51,
      "hit": false,
      "t": 4166.6,
      "d": 95.48458333333292,
      "v": 122
    },
    {
      "midi": 61,
      "hit": false,
      "t": 4166.6,
      "d": 95.48458333333292,
      "v": 94
    },
    {
      "midi": 70,
      "hit": false,
      "t": 4166.6,
      "d": 112.8454166666661,
      "v": 92
    },
    {
      "midi": 51,
      "hit": false,
      "t": 4374.929999999999,
      "d": 104.16499999999996,
      "v": 109
    },
    {
      "midi": 61,
      "hit": false,
      "t": 4374.929999999999,
      "d": 104.16499999999996,
      "v": 90
    },
    {
      "midi": 66,
      "hit": false,
      "t": 4374.929999999999,
      "d": 104.16499999999996,
      "v": 97
    },
    {
      "midi": 70,
      "hit": false,
      "t": 4374.929999999999,
      "d": 112.845416666667,
      "v": 90
    },
    {
      "midi": 66,
      "hit": false,
      "t": 4583.259999999999,
      "d": 145.39697916666682,
      "v": 105
    },
    {
      "midi": 61,
      "hit": false,
      "t": 4583.259999999999,
      "d": 184.45885416666715,
      "v": 88
    },
    {
      "midi": 70,
      "hit": false,
      "t": 4583.259999999999,
      "d": 264.75270833333343,
      "v": 99
    },
    {
      "midi": 49,
      "hit": false,
      "t": 4583.259999999999,
      "d": 310.32489583333336,
      "v": 122
    },
    {
      "midi": 62,
      "hit": false,
      "t": 4999.919999999999,
      "d": 112.845416666667,
      "v": 88
    },
    {
      "midi": 70,
      "hit": false,
      "t": 4999.919999999999,
      "d": 112.845416666667,
      "v": 94
    },
    {
      "midi": 65,
      "hit": false,
      "t": 4999.919999999999,
      "d": 115.01552083333354,
      "v": 98
    },
    {
      "midi": 46,
      "hit": false,
      "t": 4999.919999999999,
      "d": 141.05677083333376,
      "v": 127
    },
    {
      "midi": 46,
      "hit": false,
      "t": 5208.25,
      "d": 319.0053125000004,
      "v": 122
    },
    {
      "midi": 62,
      "hit": false,
      "t": 5208.25,
      "d": 325.515625,
      "v": 88
    },
    {
      "midi": 65,
      "hit": false,
      "t": 5208.25,
      "d": 325.515625,
      "v": 105
    },
    {
      "midi": 70,
      "hit": false,
      "t": 5208.25,
      "d": 329.85583333333307,
      "v": 97
    },
    {
      "midi": 63,
      "hit": false,
      "t": 5624.91,
      "d": 314.6651041666664,
      "v": 84
    },
    {
      "midi": 67,
      "hit": false,
      "t": 5624.91,
      "d": 314.6651041666664,
      "v": 98
    },
    {
      "midi": 48,
      "hit": false,
      "t": 5624.91,
      "d": 319.0053124999995,
      "v": 127
    },
    {
      "midi": 72,
      "hit": false,
      "t": 5624.91,
      "d": 319.0053124999995,
      "v": 110
    },
    {
      "midi": 46,
      "hit": false,
      "t": 6041.57,
      "d": 3628.4141666666674,
      "v": 127
    },
    {
      "midi": 65,
      "hit": false,
      "t": 6041.57,
      "d": 3695.6873958333344,
      "v": 110
    },
    {
      "midi": 62,
      "hit": false,
      "t": 6041.57,
      "d": 3708.7080208333336,
      "v": 93
    },
    {
      "midi": 70,
      "hit": false,
      "t": 6041.57,
      "d": 3728.2389583333334,
      "v": 105
    },
    {
      "midi": 67,
      "hit": false,
      "t": 9999.84,
      "d": 290.79395833333365,
      "v": 89
    },
    {
      "midi": 58,
      "hit": false,
      "t": 9999.84,
      "d": 297.30427083333416,
      "v": 86
    },
    {
      "midi": 63,
      "hit": false,
      "t": 9999.84,
      "d": 314.66510416666824,
      "v": 88
    },
    {
      "midi": 51,
      "hit": false,
      "t": 9999.84,
      "d": 453.55177083333547,
      "v": 82
    },
    {
      "midi": 39,
      "hit": false,
      "t": 9999.84,
      "d": 477.42291666666824,
      "v": 86
    },
    {
      "midi": 63,
      "hit": false,
      "t": 10416.500000000002,
      "d": 67.27322916666708,
      "v": 79
    },
    {
      "midi": 67,
      "hit": false,
      "t": 10416.500000000002,
      "d": 73.78354166666759,
      "v": 83
    },
    {
      "midi": 58,
      "hit": false,
      "t": 10416.500000000002,
      "d": 84.63406250000116,
      "v": 72
    },
    {
      "midi": 51,
      "hit": false,
      "t": 10624.830000000004,
      "d": 82.46395833333372,
      "v": 81
    },
    {
      "midi": 39,
      "hit": false,
      "t": 10624.830000000004,
      "d": 110.67531249999956,
      "v": 86
    },
    {
      "midi": 63,
      "hit": false,
      "t": 10833.160000000003,
      "d": 73.78354166666577,
      "v": 79
    },
    {
      "midi": 67,
      "hit": false,
      "t": 10833.160000000003,
      "d": 73.78354166666577,
      "v": 83
    },
    {
      "midi": 58,
      "hit": false,
      "t": 10833.160000000003,
      "d": 88.97427083333241,
      "v": 72
    },
    {
      "midi": 67,
      "hit": false,
      "t": 11041.490000000003,
      "d": 190.96916666666584,
      "v": 86
    },
    {
      "midi": 63,
      "hit": false,
      "t": 11041.490000000003,
      "d": 227.86093749999964,
      "v": 77
    },
    {
      "midi": 58,
      "hit": false,
      "t": 11041.490000000003,
      "d": 243.05166666666628,
      "v": 70
    },
    {
      "midi": 51,
      "hit": false,
      "t": 11249.820000000003,
      "d": 206.15989583333248,
      "v": 73
    },
    {
      "midi": 39,
      "hit": false,
      "t": 11249.820000000003,
      "d": 221.35062499999913,
      "v": 77
    },
    {
      "midi": 58,
      "hit": false,
      "t": 11458.150000000003,
      "d": 492.61364583333307,
      "v": 72
    },
    {
      "midi": 67,
      "hit": false,
      "t": 11458.150000000003,
      "d": 492.61364583333307,
      "v": 80
    },
    {
      "midi": 63,
      "hit": false,
      "t": 11458.150000000003,
      "d": 516.4847916666658,
      "v": 81
    },
    {
      "midi": 51,
      "hit": false,
      "t": 11666.480000000003,
      "d": 410.14968749999935,
      "v": 67
    },
    {
      "midi": 39,
      "hit": false,
      "t": 11666.480000000003,
      "d": 434.02083333333394,
      "v": 75
    },
    {
      "midi": 63,
      "hit": false,
      "t": 12083.140000000003,
      "d": 134.54645833333416,
      "v": 82
    },
    {
      "midi": 58,
      "hit": false,
      "t": 12083.140000000003,
      "d": 158.41760416666693,
      "v": 75
    },
    {
      "midi": 67,
      "hit": false,
      "t": 12083.140000000003,
      "d": 158.41760416666693,
      "v": 88
    },
    {
      "midi": 51,
      "hit": false,
      "t": 12291.470000000003,
      "d": 91.14437499999985,
      "v": 75
    },
    {
      "midi": 39,
      "hit": false,
      "t": 12291.470000000003,
      "d": 108.50520833333394,
      "v": 81
    },
    {
      "midi": 63,
      "hit": false,
      "t": 12499.800000000003,
      "d": 82.46395833333372,
      "v": 79
    },
    {
      "midi": 58,
      "hit": false,
      "t": 12499.800000000003,
      "d": 86.80416666666679,
      "v": 72
    },
    {
      "midi": 67,
      "hit": false,
      "t": 12499.800000000003,
      "d": 88.97427083333423,
      "v": 82
    },
    {
      "midi": 67,
      "hit": false,
      "t": 12708.130000000005,
      "d": 195.30937500000073,
      "v": 88
    },
    {
      "midi": 58,
      "hit": false,
      "t": 12708.130000000005,
      "d": 201.81968750000124,
      "v": 76
    },
    {
      "midi": 63,
      "hit": false,
      "t": 12708.130000000005,
      "d": 208.33000000000175,
      "v": 82
    },
    {
      "midi": 51,
      "hit": false,
      "t": 12916.460000000006,
      "d": 86.80416666666679,
      "v": 90
    },
    {
      "midi": 39,
      "hit": false,
      "t": 12916.460000000006,
      "d": 117.18562500000007,
      "v": 92
    },
    {
      "midi": 67,
      "hit": false,
      "t": 13124.790000000006,
      "d": 69.4433333333327,
      "v": 76
    },
    {
      "midi": 63,
      "hit": false,
      "t": 13124.790000000006,
      "d": 71.61343750000015,
      "v": 73
    },
    {
      "midi": 58,
      "hit": false,
      "t": 13124.790000000006,
      "d": 78.12375000000065,
      "v": 71
    },
    {
      "midi": 67,
      "hit": false,
      "t": 13333.120000000006,
      "d": 295.1341666666667,
      "v": 93
    },
    {
      "midi": 58,
      "hit": false,
      "t": 13333.120000000006,
      "d": 303.81458333333285,
      "v": 86
    },
    {
      "midi": 63,
      "hit": false,
      "t": 13333.120000000006,
      "d": 316.83520833333205,
      "v": 92
    },
    {
      "midi": 51,
      "hit": false,
      "t": 13333.120000000006,
      "d": 425.34041666666417,
      "v": 92
    },
    {
      "midi": 39,
      "hit": false,
      "t": 13333.120000000006,
      "d": 434.0208333333303,
      "v": 90
    },
    {
      "midi": 58,
      "hit": false,
      "t": 13749.780000000004,
      "d": 221.3506249999973,
      "v": 92
    },
    {
      "midi": 67,
      "hit": false,
      "t": 13749.780000000004,
      "d": 240.88156249999702,
      "v": 99
    },
    {
      "midi": 63,
      "hit": false,
      "t": 13749.780000000004,
      "d": 256.07229166666366,
      "v": 102
    },
    {
      "midi": 51,
      "hit": false,
      "t": 13958.110000000002,
      "d": 182.2887499999997,
      "v": 84
    },
    {
      "midi": 39,
      "hit": false,
      "t": 13958.110000000002,
      "d": 208.32999999999993,
      "v": 84
    },
    {
      "midi": 58,
      "hit": false,
      "t": 14166.440000000002,
      "d": 277.77333333333263,
      "v": 84
    },
    {
      "midi": 63,
      "hit": false,
      "t": 14166.440000000002,
      "d": 286.45374999999876,
      "v": 99
    },
    {
      "midi": 67,
      "hit": false,
      "t": 14166.440000000002,
      "d": 301.6444791666654,
      "v": 96
    },
    {
      "midi": 39,
      "hit": false,
      "t": 14374.770000000002,
      "d": 143.22687499999847,
      "v": 79
    },
    {
      "midi": 51,
      "hit": false,
      "t": 14374.770000000002,
      "d": 143.22687499999847,
      "v": 84
    },
    {
      "midi": 67,
      "hit": false,
      "t": 14583.1,
      "d": 158.41760416666693,
      "v": 98
    },
    {
      "midi": 58,
      "hit": false,
      "t": 14583.1,
      "d": 186.62895833333278,
      "v": 90
    },
    {
      "midi": 63,
      "hit": false,
      "t": 14583.1,
      "d": 243.05166666666628,
      "v": 109
    },
    {
      "midi": 68,
      "hit": false,
      "t": 14999.76,
      "d": 52.08250000000044,
      "v": 92
    },
    {
      "midi": 63,
      "hit": false,
      "t": 14999.76,
      "d": 104.16500000000087,
      "v": 94
    },
    {
      "midi": 60,
      "hit": false,
      "t": 14999.76,
      "d": 112.845416666667,
      "v": 92
    },
    {
      "midi": 68,
      "hit": false,
      "t": 15208.09,
      "d": 184.45885416666715,
      "v": 117
    },
    {
      "midi": 60,
      "hit": false,
      "t": 15208.09,
      "d": 199.6495833333338,
      "v": 88
    },
    {
      "midi": 63,
      "hit": false,
      "t": 15208.09,
      "d": 219.1805208333335,
      "v": 99
    },
    {
      "midi": 58,
      "hit": false,
      "t": 15624.75,
      "d": 477.4229166666664,
      "v": 84
    },
    {
      "midi": 67,
      "hit": false,
      "t": 15624.75,
      "d": 477.4229166666664,
      "v": 89
    },
    {
      "midi": 63,
      "hit": false,
      "t": 15624.75,
      "d": 488.2734375,
      "v": 99
    },
    {
      "midi": 51,
      "hit": false,
      "t": 16041.41,
      "d": 78.12375000000065,
      "v": 92
    },
    {
      "midi": 39,
      "hit": false,
      "t": 16041.41,
      "d": 104.16500000000087,
      "v": 97
    },
    {
      "midi": 63,
      "hit": false,
      "t": 16249.740000000002,
      "d": 104.16500000000087,
      "v": 94
    },
    {
      "midi": 58,
      "hit": false,
      "t": 16249.740000000002,
      "d": 119.35572916666752,
      "v": 82
    },
    {
      "midi": 67,
      "hit": false,
      "t": 16249.740000000002,
      "d": 123.69593750000058,
      "v": 88
    },
    {
      "midi": 51,
      "hit": false,
      "t": 16458.070000000003,
      "d": 58.59281249999913,
      "v": 86
    },
    {
      "midi": 39,
      "hit": false,
      "t": 16458.070000000003,
      "d": 71.61343750000015,
      "v": 94
    },
    {
      "midi": 67,
      "hit": false,
      "t": 16666.400000000005,
      "d": 295.1341666666667,
      "v": 85
    },
    {
      "midi": 58,
      "hit": false,
      "t": 16666.400000000005,
      "d": 314.6651041666664,
      "v": 79
    },
    {
      "midi": 63,
      "hit": false,
      "t": 16666.400000000005,
      "d": 321.1754166666651,
      "v": 84
    },
    {
      "midi": 51,
      "hit": false,
      "t": 16666.400000000005,
      "d": 453.55177083333183,
      "v": 97
    },
    {
      "midi": 39,
      "hit": false,
      "t": 16666.400000000005,
      "d": 477.4229166666664,
      "v": 90
    },
    {
      "midi": 67,
      "hit": false,
      "t": 17083.060000000005,
      "d": 164.92791666666744,
      "v": 84
    },
    {
      "midi": 58,
      "hit": false,
      "t": 17083.060000000005,
      "d": 223.5207291666702,
      "v": 69
    },
    {
      "midi": 63,
      "hit": false,
      "t": 17083.060000000005,
      "d": 236.54135416667123,
      "v": 73
    },
    {
      "midi": 51,
      "hit": false,
      "t": 17291.390000000007,
      "d": 410.14968750000116,
      "v": 73
    },
    {
      "midi": 39,
      "hit": false,
      "t": 17291.390000000007,
      "d": 425.340416666666,
      "v": 84
    },
    {
      "midi": 58,
      "hit": false,
      "t": 17499.72000000001,
      "d": 91.14437499999985,
      "v": 67
    },
    {
      "midi": 63,
      "hit": false,
      "t": 17499.72000000001,
      "d": 91.14437499999985,
      "v": 69
    },
    {
      "midi": 67,
      "hit": false,
      "t": 17499.72000000001,
      "d": 97.65468749999854,
      "v": 79
    },
    {
      "midi": 67,
      "hit": false,
      "t": 17708.050000000007,
      "d": 188.7990624999984,
      "v": 87
    },
    {
      "midi": 63,
      "hit": false,
      "t": 17708.050000000007,
      "d": 199.64958333333198,
      "v": 86
    },
    {
      "midi": 58,
      "hit": false,
      "t": 17708.050000000007,
      "d": 208.3299999999981,
      "v": 77
    },
    {
      "midi": 51,
      "hit": false,
      "t": 17916.380000000005,
      "d": 286.4537500000006,
      "v": 90
    },
    {
      "midi": 39,
      "hit": false,
      "t": 17916.380000000005,
      "d": 325.51562500000364,
      "v": 94
    },
    {
      "midi": 67,
      "hit": false,
      "t": 18124.710000000006,
      "d": 78.12374999999884,
      "v": 83
    },
    {
      "midi": 63,
      "hit": false,
      "t": 18124.710000000006,
      "d": 82.46395833333372,
      "v": 84
    },
    {
      "midi": 58,
      "hit": false,
      "t": 18124.710000000006,
      "d": 86.8041666666686,
      "v": 73
    },
    {
      "midi": 63,
      "hit": false,
      "t": 18333.040000000008,
      "d": 251.73208333333605,
      "v": 82
    },
    {
      "midi": 58,
      "hit": false,
      "t": 18333.040000000008,
      "d": 260.4125000000022,
      "v": 76
    },
    {
      "midi": 67,
      "hit": false,
      "t": 18333.040000000008,
      "d": 264.75270833333707,
      "v": 86
    },
    {
      "midi": 51,
      "hit": false,
      "t": 18541.37000000001,
      "d": 197.47947916666817,
      "v": 81
    },
    {
      "midi": 39,
      "hit": false,
      "t": 18541.37000000001,
      "d": 206.1598958333343,
      "v": 86
    },
    {
      "midi": 63,
      "hit": false,
      "t": 18749.70000000001,
      "d": 73.78354166666759,
      "v": 88
    },
    {
      "midi": 58,
      "hit": false,
      "t": 18749.70000000001,
      "d": 84.63406250000116,
      "v": 75
    },
    {
      "midi": 67,
      "hit": false,
      "t": 18749.70000000001,
      "d": 86.8041666666686,
      "v": 85
    },
    {
      "midi": 63,
      "hit": false,
      "t": 18958.030000000013,
      "d": 243.05166666666992,
      "v": 88
    },
    {
      "midi": 58,
      "hit": false,
      "t": 18958.030000000013,
      "d": 260.4125000000022,
      "v": 77
    },
    {
      "midi": 67,
      "hit": false,
      "t": 18958.030000000013,
      "d": 260.4125000000022,
      "v": 88
    },
    {
      "midi": 39,
      "hit": false,
      "t": 19166.360000000015,
      "d": 214.84031250000044,
      "v": 84
    },
    {
      "midi": 51,
      "hit": false,
      "t": 19166.360000000015,
      "d": 214.84031250000044,
      "v": 82
    },
    {
      "midi": 63,
      "hit": false,
      "t": 19374.690000000017,
      "d": 232.2011458333327,
      "v": 90
    },
    {
      "midi": 67,
      "hit": false,
      "t": 19374.690000000017,
      "d": 232.2011458333327,
      "v": 88
    },
    {
      "midi": 58,
      "hit": false,
      "t": 19374.690000000017,
      "d": 238.7114583333314,
      "v": 77
    },
    {
      "midi": 39,
      "hit": false,
      "t": 19583.020000000015,
      "d": 240.88156250000247,
      "v": 92
    },
    {
      "midi": 51,
      "hit": false,
      "t": 19583.020000000015,
      "d": 240.88156250000247,
      "v": 88
    },
    {
      "midi": 63,
      "hit": false,
      "t": 19791.350000000017,
      "d": 104.16500000000087,
      "v": 86
    },
    {
      "midi": 58,
      "hit": false,
      "t": 19791.350000000017,
      "d": 123.69593750000058,
      "v": 77
    },
    {
      "midi": 67,
      "hit": false,
      "t": 19791.350000000017,
      "d": 130.20624999999927,
      "v": 87
    },
    {
      "midi": 58,
      "hit": false,
      "t": 19999.680000000015,
      "d": 279.94343749999825,
      "v": 88
    },
    {
      "midi": 62,
      "hit": false,
      "t": 19999.680000000015,
      "d": 286.45374999999694,
      "v": 99
    },
    {
      "midi": 65,
      "hit": false,
      "t": 19999.680000000015,
      "d": 295.1341666666631,
      "v": 88
    },
    {
      "midi": 53,
      "hit": false,
      "t": 19999.680000000015,
      "d": 442.7012499999946,
      "v": 80
    },
    {
      "midi": 46,
      "hit": false,
      "t": 19999.680000000015,
      "d": 449.2115624999933,
      "v": 88
    },
    {
      "midi": 58,
      "hit": false,
      "t": 20416.34000000001,
      "d": 245.22177083333008,
      "v": 92
    },
    {
      "midi": 65,
      "hit": false,
      "t": 20416.34000000001,
      "d": 249.56197916666497,
      "v": 96
    },
    {
      "midi": 62,
      "hit": false,
      "t": 20416.34000000001,
      "d": 251.7320833333324,
      "v": 107
    },
    {
      "midi": 53,
      "hit": false,
      "t": 20624.67000000001,
      "d": 97.65468750000218,
      "v": 79
    },
    {
      "midi": 46,
      "hit": false,
      "t": 20624.67000000001,
      "d": 130.2062500000029,
      "v": 84
    },
    {
      "midi": 62,
      "hit": false,
      "t": 20833.00000000001,
      "d": 95.48458333333474,
      "v": 105
    },
    {
      "midi": 65,
      "hit": false,
      "t": 20833.00000000001,
      "d": 99.82479166666963,
      "v": 92
    },
    {
      "midi": 58,
      "hit": false,
      "t": 20833.00000000001,
      "d": 104.16500000000451,
      "v": 84
    },
    {
      "midi": 58,
      "hit": false,
      "t": 21041.330000000016,
      "d": 282.11354166666933,
      "v": 86
    },
    {
      "midi": 65,
      "hit": false,
      "t": 21041.330000000016,
      "d": 286.4537500000042,
      "v": 96
    },
    {
      "midi": 62,
      "hit": false,
      "t": 21041.330000000016,
      "d": 295.13416666667035,
      "v": 103
    },
    {
      "midi": 46,
      "hit": false,
      "t": 21249.660000000018,
      "d": 258.24239583333474,
      "v": 102
    },
    {
      "midi": 53,
      "hit": false,
      "t": 21249.660000000018,
      "d": 277.77333333333445,
      "v": 84
    },
    {
      "midi": 62,
      "hit": false,
      "t": 21457.99000000002,
      "d": 88.97427083333241,
      "v": 101
    },
    {
      "midi": 65,
      "hit": false,
      "t": 21457.99000000002,
      "d": 104.16500000000087,
      "v": 91
    },
    {
      "midi": 58,
      "hit": false,
      "t": 21457.99000000002,
      "d": 117.18562500000189,
      "v": 90
    },
    {
      "midi": 53,
      "hit": false,
      "t": 21666.32000000002,
      "d": 78.12374999999884,
      "v": 77
    },
    {
      "midi": 41,
      "hit": false,
      "t": 21666.32000000002,
      "d": 82.46395833333372,
      "v": 88
    },
    {
      "midi": 60,
      "hit": false,
      "t": 21666.32000000002,
      "d": 93.3144791666673,
      "v": 92
    },
    {
      "midi": 57,
      "hit": false,
      "t": 21666.32000000002,
      "d": 104.16500000000087,
      "v": 92
    },
    {
      "midi": 65,
      "hit": false,
      "t": 21666.32000000002,
      "d": 121.52583333333314,
      "v": 91
    },
    {
      "midi": 57,
      "hit": false,
      "t": 21874.65000000002,
      "d": 243.05166666666628,
      "v": 93
    },
    {
      "midi": 60,
      "hit": false,
      "t": 21874.65000000002,
      "d": 243.05166666666628,
      "v": 99
    },
    {
      "midi": 41,
      "hit": false,
      "t": 21874.65000000002,
      "d": 251.7320833333324,
      "v": 99
    },
    {
      "midi": 65,
      "hit": false,
      "t": 21874.65000000002,
      "d": 251.7320833333324,
      "v": 98
    },
    {
      "midi": 53,
      "hit": false,
      "t": 21874.65000000002,
      "d": 260.41249999999854,
      "v": 95
    },
    {
      "midi": 65,
      "hit": false,
      "t": 22291.31000000002,
      "d": 345.0465624999997,
      "v": 98
    },
    {
      "midi": 56,
      "hit": false,
      "t": 22291.31000000002,
      "d": 358.0671875000007,
      "v": 102
    },
    {
      "midi": 62,
      "hit": false,
      "t": 22291.31000000002,
      "d": 358.0671875000007,
      "v": 107
    },
    {
      "midi": 46,
      "hit": false,
      "t": 22291.31000000002,
      "d": 483.9332291666651,
      "v": 99
    },
    {
      "midi": 53,
      "hit": false,
      "t": 22291.31000000002,
      "d": 488.2734375,
      "v": 82
    },
    {
      "midi": 56,
      "hit": false,
      "t": 22707.97000000002,
      "d": 240.88156250000247,
      "v": 94
    },
    {
      "midi": 62,
      "hit": false,
      "t": 22707.97000000002,
      "d": 251.73208333333605,
      "v": 112
    },
    {
      "midi": 65,
      "hit": false,
      "t": 22707.97000000002,
      "d": 251.73208333333605,
      "v": 101
    },
    {
      "midi": 46,
      "hit": false,
      "t": 22916.30000000002,
      "d": 188.79906250000204,
      "v": 105
    },
    {
      "midi": 53,
      "hit": false,
      "t": 22916.30000000002,
      "d": 188.79906250000204,
      "v": 95
    },
    {
      "midi": 67,
      "hit": false,
      "t": 23332.960000000025,
      "d": 258.24239583333474,
      "v": 96
    },
    {
      "midi": 58,
      "hit": false,
      "t": 23332.960000000025,
      "d": 269.0929166666683,
      "v": 99
    },
    {
      "midi": 63,
      "hit": false,
      "t": 23332.960000000025,
      "d": 279.9434375000019,
      "v": 109
    },
    {
      "midi": 51,
      "hit": false,
      "t": 23332.960000000025,
      "d": 399.2991666666676,
      "v": 99
    },
    {
      "midi": 55,
      "hit": false,
      "t": 23332.960000000025,
      "d": 399.2991666666676,
      "v": 105
    },
    {
      "midi": 58,
      "hit": false,
      "t": 23749.620000000024,
      "d": 177.94854166666846,
      "v": 97
    },
    {
      "midi": 63,
      "hit": false,
      "t": 23749.620000000024,
      "d": 232.20114583333634,
      "v": 105
    },
    {
      "midi": 67,
      "hit": false,
      "t": 23749.620000000024,
      "d": 251.73208333333605,
      "v": 99
    },
    {
      "midi": 48,
      "hit": false,
      "t": 23957.950000000026,
      "d": 182.28875000000335,
      "v": 95
    },
    {
      "midi": 55,
      "hit": false,
      "t": 23957.950000000026,
      "d": 184.4588541666708,
      "v": 92
    },
    {
      "midi": 60,
      "hit": false,
      "t": 24166.28000000003,
      "d": 308.15479166666773,
      "v": 103
    },
    {
      "midi": 63,
      "hit": false,
      "t": 24166.28000000003,
      "d": 314.6651041666664,
      "v": 102
    },
    {
      "midi": 67,
      "hit": false,
      "t": 24166.28000000003,
      "d": 319.0053125000013,
      "v": 99
    },
    {
      "midi": 63,
      "hit": false,
      "t": 24582.94000000003,
      "d": 71.61343750000015,
      "v": 109
    },
    {
      "midi": 67,
      "hit": false,
      "t": 24582.94000000003,
      "d": 91.14437499999985,
      "v": 98
    },
    {
      "midi": 60,
      "hit": false,
      "t": 24582.94000000003,
      "d": 95.48458333333474,
      "v": 101
    },
    {
      "midi": 51,
      "hit": false,
      "t": 24999.60000000003,
      "d": 69.4433333333327,
      "v": 63
    },
    {
      "midi": 56,
      "hit": false,
      "t": 24999.60000000003,
      "d": 95.4845833333311,
      "v": 76
    },
    {
      "midi": 60,
      "hit": false,
      "t": 24999.60000000003,
      "d": 108.50520833333212,
      "v": 76
    },
    {
      "midi": 44,
      "hit": false,
      "t": 24999.60000000003,
      "d": 208.3299999999981,
      "v": 127
    },
    {
      "midi": 51,
      "hit": false,
      "t": 25207.93000000003,
      "d": 201.81968749999942,
      "v": 92
    },
    {
      "midi": 56,
      "hit": false,
      "t": 25207.93000000003,
      "d": 201.81968749999942,
      "v": 99
    },
    {
      "midi": 60,
      "hit": false,
      "t": 25207.93000000003,
      "d": 208.3299999999981,
      "v": 91
    },
    {
      "midi": 44,
      "hit": false,
      "t": 25416.260000000028,
      "d": 86.80416666666497,
      "v": 122
    },
    {
      "midi": 60,
      "hit": false,
      "t": 25624.590000000026,
      "d": 301.64447916666904,
      "v": 101
    },
    {
      "midi": 51,
      "hit": false,
      "t": 25624.590000000026,
      "d": 312.4950000000026,
      "v": 105
    },
    {
      "midi": 56,
      "hit": false,
      "t": 25624.590000000026,
      "d": 321.17541666666875,
      "v": 117
    },
    {
      "midi": 44,
      "hit": false,
      "t": 25832.920000000027,
      "d": 138.8866666666654,
      "v": 117
    },
    {
      "midi": 51,
      "hit": false,
      "t": 26041.250000000025,
      "d": 232.2011458333327,
      "v": 92
    },
    {
      "midi": 56,
      "hit": false,
      "t": 26041.250000000025,
      "d": 282.1135416666657,
      "v": 113
    },
    {
      "midi": 60,
      "hit": false,
      "t": 26041.250000000025,
      "d": 486.10333333333256,
      "v": 103
    },
    {
      "midi": 56,
      "hit": false,
      "t": 26666.240000000023,
      "d": 375.428020833333,
      "v": 122
    },
    {
      "midi": 60,
      "hit": false,
      "t": 26666.240000000023,
      "d": 375.428020833333,
      "v": 105
    },
    {
      "midi": 48,
      "hit": false,
      "t": 26666.240000000023,
      "d": 379.7682291666679,
      "v": 103
    },
    {
      "midi": 53,
      "hit": false,
      "t": 26666.240000000023,
      "d": 379.7682291666679,
      "v": 117
    },
    {
      "midi": 41,
      "hit": false,
      "t": 26666.240000000023,
      "d": 407.9795833333337,
      "v": 112
    },
    {
      "midi": 56,
      "hit": false,
      "t": 27499.560000000023,
      "d": 496.95385416666977,
      "v": 122
    },
    {
      "midi": 53,
      "hit": false,
      "t": 27499.560000000023,
      "d": 509.9744791666708,
      "v": 107
    },
    {
      "midi": 61,
      "hit": false,
      "t": 27499.560000000023,
      "d": 509.9744791666708,
      "v": 113
    },
    {
      "midi": 46,
      "hit": false,
      "t": 28332.880000000026,
      "d": 256.0722916666673,
      "v": 117
    },
    {
      "midi": 53,
      "hit": false,
      "t": 28332.880000000026,
      "d": 279.9434375000019,
      "v": 103
    },
    {
      "midi": 58,
      "hit": false,
      "t": 28332.880000000026,
      "d": 286.4537500000006,
      "v": 109
    },
    {
      "midi": 62,
      "hit": false,
      "t": 28332.880000000026,
      "d": 286.4537500000006,
      "v": 98
    },
    {
      "midi": 46,
      "hit": false,
      "t": 28749.540000000026,
      "d": 245.22177083333372,
      "v": 127
    },
    {
      "midi": 53,
      "hit": false,
      "t": 28749.540000000026,
      "d": 266.9228125000009,
      "v": 101
    },
    {
      "midi": 58,
      "hit": false,
      "t": 28749.540000000026,
      "d": 275.603229166667,
      "v": 109
    },
    {
      "midi": 62,
      "hit": false,
      "t": 28749.540000000026,
      "d": 279.9434375000019,
      "v": 99
    },
    {
      "midi": 46,
      "hit": false,
      "t": 29166.20000000003,
      "d": 251.7320833333324,
      "v": 122
    },
    {
      "midi": 53,
      "hit": false,
      "t": 29166.20000000003,
      "d": 275.603229166667,
      "v": 98
    },
    {
      "midi": 58,
      "hit": false,
      "t": 29166.20000000003,
      "d": 286.4537500000006,
      "v": 105
    },
    {
      "midi": 62,
      "hit": false,
      "t": 29166.20000000003,
      "d": 286.4537500000006,
      "v": 96
    },
    {
      "midi": 46,
      "hit": false,
      "t": 29582.86000000003,
      "d": 238.71145833333503,
      "v": 127
    },
    {
      "midi": 53,
      "hit": false,
      "t": 29582.86000000003,
      "d": 249.5619791666686,
      "v": 99
    },
    {
      "midi": 58,
      "hit": false,
      "t": 29582.86000000003,
      "d": 253.9021875000035,
      "v": 109
    },
    {
      "midi": 62,
      "hit": false,
      "t": 29582.86000000003,
      "d": 260.4125000000022,
      "v": 99
    },
    {
      "midi": 58,
      "hit": false,
      "t": 29999.520000000033,
      "d": 75.95364583333503,
      "v": 113
    },
    {
      "midi": 46,
      "hit": false,
      "t": 29999.520000000033,
      "d": 82.46395833333372,
      "v": 127
    },
    {
      "midi": 53,
      "hit": false,
      "t": 29999.520000000033,
      "d": 82.46395833333372,
      "v": 103
    },
    {
      "midi": 62,
      "hit": false,
      "t": 29999.520000000033,
      "d": 106.33510416666832,
      "v": 101
    },
    {
      "midi": 46,
      "hit": false,
      "t": 30207.850000000035,
      "d": 75.95364583333503,
      "v": 127
    },
    {
      "midi": 58,
      "hit": false,
      "t": 30207.850000000035,
      "d": 84.63406250000116,
      "v": 109
    },
    {
      "midi": 53,
      "hit": false,
      "t": 30207.850000000035,
      "d": 86.8041666666686,
      "v": 99
    },
    {
      "midi": 62,
      "hit": false,
      "t": 30207.850000000035,
      "d": 104.16500000000087,
      "v": 98
    },
    {
      "midi": 46,
      "hit": false,
      "t": 30416.180000000037,
      "d": 71.61343750000015,
      "v": 127
    },
    {
      "midi": 58,
      "hit": false,
      "t": 30416.180000000037,
      "d": 78.12374999999884,
      "v": 109
    },
    {
      "midi": 53,
      "hit": false,
      "t": 30416.180000000037,
      "d": 82.46395833333372,
      "v": 98
    },
    {
      "midi": 62,
      "hit": false,
      "t": 30416.180000000037,
      "d": 95.48458333333474,
      "v": 99
    },
    {
      "midi": 58,
      "hit": false,
      "t": 30624.51000000004,
      "d": 857.1911458333343,
      "v": 122
    },
    {
      "midi": 46,
      "hit": false,
      "t": 30624.51000000004,
      "d": 865.8715625000004,
      "v": 127
    },
    {
      "midi": 53,
      "hit": false,
      "t": 30624.51000000004,
      "d": 872.3818749999991,
      "v": 114
    },
    {
      "midi": 62,
      "hit": false,
      "t": 30624.51000000004,
      "d": 894.0829166666663,
      "v": 110
    },
    {
      "midi": 63,
      "hit": false,
      "t": 31666.160000000036,
      "d": 88.97427083333241,
      "v": 109
    },
    {
      "midi": 58,
      "hit": false,
      "t": 31666.160000000036,
      "d": 95.4845833333311,
      "v": 92
    },
    {
      "midi": 67,
      "hit": false,
      "t": 31666.160000000036,
      "d": 110.67531249999956,
      "v": 101
    },
    {
      "midi": 55,
      "hit": false,
      "t": 31874.490000000034,
      "d": 60.76291666666657,
      "v": 95
    },
    {
      "midi": 51,
      "hit": false,
      "t": 31874.490000000034,
      "d": 69.4433333333327,
      "v": 102
    },
    {
      "midi": 63,
      "hit": false,
      "t": 32082.820000000032,
      "d": 58.59281249999913,
      "v": 113
    },
    {
      "midi": 58,
      "hit": false,
      "t": 32082.820000000032,
      "d": 60.76291666666657,
      "v": 94
    },
    {
      "midi": 67,
      "hit": false,
      "t": 32082.820000000032,
      "d": 71.61343750000015,
      "v": 96
    },
    {
      "midi": 55,
      "hit": false,
      "t": 32291.150000000034,
      "d": 47.74229166666555,
      "v": 88
    },
    {
      "midi": 51,
      "hit": false,
      "t": 32291.150000000034,
      "d": 58.59281249999913,
      "v": 99
    },
    {
      "midi": 58,
      "hit": false,
      "t": 32499.480000000032,
      "d": 60.76291666666657,
      "v": 84
    },
    {
      "midi": 63,
      "hit": false,
      "t": 32499.480000000032,
      "d": 60.76291666666657,
      "v": 105
    },
    {
      "midi": 67,
      "hit": false,
      "t": 32499.480000000032,
      "d": 69.4433333333327,
      "v": 88
    },
    {
      "midi": 63,
      "hit": false,
      "t": 32707.81000000003,
      "d": 60.76291666667021,
      "v": 94
    },
    {
      "midi": 58,
      "hit": false,
      "t": 32707.81000000003,
      "d": 73.78354166666759,
      "v": 81
    },
    {
      "midi": 67,
      "hit": false,
      "t": 32707.81000000003,
      "d": 78.12375000000247,
      "v": 91
    },
    {
      "midi": 51,
      "hit": false,
      "t": 32916.140000000036,
      "d": 60.76291666666657,
      "v": 102
    },
    {
      "midi": 55,
      "hit": false,
      "t": 32916.140000000036,
      "d": 60.76291666666657,
      "v": 103
    },
    {
      "midi": 63,
      "hit": false,
      "t": 33124.47000000004,
      "d": 49.91239583333663,
      "v": 105
    },
    {
      "midi": 58,
      "hit": false,
      "t": 33124.47000000004,
      "d": 67.2732291666689,
      "v": 92
    },
    {
      "midi": 67,
      "hit": false,
      "t": 33124.47000000004,
      "d": 71.61343750000378,
      "v": 92
    },
    {
      "midi": 55,
      "hit": false,
      "t": 33332.80000000004,
      "d": 60.76291666666657,
      "v": 75
    },
    {
      "midi": 51,
      "hit": false,
      "t": 33332.80000000004,
      "d": 69.44333333333634,
      "v": 64
    },
    {
      "midi": 63,
      "hit": false,
      "t": 33749.46000000004,
      "d": 43.4020833333343,
      "v": 90
    },
    {
      "midi": 58,
      "hit": false,
      "t": 33749.46000000004,
      "d": 58.59281249999913,
      "v": 84
    },
    {
      "midi": 67,
      "hit": false,
      "t": 33749.46000000004,
      "d": 58.59281249999913,
      "v": 88
    },
    {
      "midi": 58,
      "hit": false,
      "t": 33957.790000000045,
      "d": 401.4692708333314,
      "v": 94
    },
    {
      "midi": 67,
      "hit": false,
      "t": 33957.790000000045,
      "d": 401.4692708333314,
      "v": 99
    },
    {
      "midi": 63,
      "hit": false,
      "t": 33957.790000000045,
      "d": 407.9795833333337,
      "v": 102
    },
    {
      "midi": 55,
      "hit": false,
      "t": 34374.45000000005,
      "d": 56.422708333331684,
      "v": 107
    },
    {
      "midi": 51,
      "hit": false,
      "t": 34374.45000000005,
      "d": 69.44333333332906,
      "v": 109
    },
    {
      "midi": 63,
      "hit": false,
      "t": 34582.78000000004,
      "d": 54.25260416666424,
      "v": 102
    },
    {
      "midi": 58,
      "hit": false,
      "t": 34582.78000000004,
      "d": 78.12374999999884,
      "v": 88
    },
    {
      "midi": 67,
      "hit": false,
      "t": 34582.78000000004,
      "d": 88.97427083332877,
      "v": 93
    },
    {
      "midi": 55,
      "hit": false,
      "t": 34791.11000000004,
      "d": 49.91239583333663,
      "v": 107
    },
    {
      "midi": 51,
      "hit": false,
      "t": 34791.11000000004,
      "d": 80.29385416667355,
      "v": 117
    },
    {
      "midi": 55,
      "hit": false,
      "t": 35207.77000000004,
      "d": 54.25260416666424,
      "v": 105
    },
    {
      "midi": 51,
      "hit": false,
      "t": 35207.77000000004,
      "d": 69.44333333332906,
      "v": 105
    },
    {
      "midi": 63,
      "hit": false,
      "t": 35416.100000000035,
      "d": 56.422708333331684,
      "v": 97
    },
    {
      "midi": 58,
      "hit": false,
      "t": 35416.100000000035,
      "d": 60.76291666666657,
      "v": 88
    },
    {
      "midi": 67,
      "hit": false,
      "t": 35416.100000000035,
      "d": 93.31447916666366,
      "v": 98
    },
    {
      "midi": 55,
      "hit": false,
      "t": 35624.43000000003,
      "d": 54.25260416666424,
      "v": 93
    },
    {
      "midi": 51,
      "hit": false,
      "t": 35624.43000000003,
      "d": 65.10312499999418,
      "v": 99
    },
    {
      "midi": 63,
      "hit": false,
      "t": 35832.760000000024,
      "d": 54.25260416666424,
      "v": 94
    },
    {
      "midi": 58,
      "hit": false,
      "t": 35832.760000000024,
      "d": 65.10312499999418,
      "v": 90
    },
    {
      "midi": 67,
      "hit": false,
      "t": 35832.760000000024,
      "d": 80.293854166659,
      "v": 91
    },
    {
      "midi": 58,
      "hit": false,
      "t": 36041.09000000002,
      "d": 60.76291666666657,
      "v": 90
    },
    {
      "midi": 63,
      "hit": false,
      "t": 36041.09000000002,
      "d": 62.93302083333401,
      "v": 105
    },
    {
      "midi": 67,
      "hit": false,
      "t": 36041.09000000002,
      "d": 69.44333333333634,
      "v": 93
    },
    {
      "midi": 55,
      "hit": false,
      "t": 36249.42000000002,
      "d": 60.76291666666657,
      "v": 112
    },
    {
      "midi": 51,
      "hit": false,
      "t": 36249.42000000002,
      "d": 86.8041666666686,
      "v": 109
    },
    {
      "midi": 58,
      "hit": false,
      "t": 36457.75000000002,
      "d": 34.72166666666453,
      "v": 67
    },
    {
      "midi": 63,
      "hit": false,
      "t": 36666.080000000016,
      "d": 52.0824999999968,
      "v": 109
    },
    {
      "midi": 58,
      "hit": false,
      "t": 36666.080000000016,
      "d": 60.76291666666657,
      "v": 94
    },
    {
      "midi": 67,
      "hit": false,
      "t": 36666.080000000016,
      "d": 73.78354166666395,
      "v": 99
    },
    {
      "midi": 63,
      "hit": false,
      "t": 36874.41000000001,
      "d": 49.91239583333663,
      "v": 109
    },
    {
      "midi": 58,
      "hit": false,
      "t": 36874.41000000001,
      "d": 60.76291666666657,
      "v": 94
    },
    {
      "midi": 67,
      "hit": false,
      "t": 36874.41000000001,
      "d": 73.78354166666395,
      "v": 101
    },
    {
      "midi": 63,
      "hit": false,
      "t": 37291.07000000001,
      "d": 460.0620833333378,
      "v": 117
    },
    {
      "midi": 58,
      "hit": false,
      "t": 37291.07000000001,
      "d": 464.4022916666727,
      "v": 102
    },
    {
      "midi": 67,
      "hit": false,
      "t": 37291.07000000001,
      "d": 494.7837500000096,
      "v": 110
    },
    {
      "midi": 55,
      "hit": false,
      "t": 37707.73000000001,
      "d": 71.61343750000378,
      "v": 99
    },
    {
      "midi": 51,
      "hit": false,
      "t": 37707.73000000001,
      "d": 80.29385416667355,
      "v": 94
    },
    {
      "midi": 58,
      "hit": false,
      "t": 37916.06000000002,
      "d": 84.63406250000116,
      "v": 84
    },
    {
      "midi": 67,
      "hit": false,
      "t": 37916.06000000002,
      "d": 93.31447916667094,
      "v": 92
    },
    {
      "midi": 63,
      "hit": false,
      "t": 37916.06000000002,
      "d": 112.84541666667064,
      "v": 113
    },
    {
      "midi": 63,
      "hit": false,
      "t": 38332.72000000002,
      "d": 93.31447916666366,
      "v": 81
    },
    {
      "midi": 68,
      "hit": false,
      "t": 38332.72000000002,
      "d": 97.65468749999854,
      "v": 84
    },
    {
      "midi": 60,
      "hit": false,
      "t": 38332.72000000002,
      "d": 112.84541666666337,
      "v": 80
    },
    {
      "midi": 63,
      "hit": false,
      "t": 38749.38000000002,
      "d": 65.10312500000146,
      "v": 102
    },
    {
      "midi": 60,
      "hit": false,
      "t": 38749.38000000002,
      "d": 84.63406250000116,
      "v": 91
    },
    {
      "midi": 68,
      "hit": false,
      "t": 38749.38000000002,
      "d": 95.4845833333311,
      "v": 109
    },
    {
      "midi": 44,
      "hit": false,
      "t": 38957.710000000014,
      "d": 82.46395833333372,
      "v": 109
    },
    {
      "midi": 63,
      "hit": false,
      "t": 39166.040000000015,
      "d": 60.76291666666657,
      "v": 97
    },
    {
      "midi": 68,
      "hit": false,
      "t": 39166.040000000015,
      "d": 62.93302083333401,
      "v": 102
    },
    {
      "midi": 60,
      "hit": false,
      "t": 39166.040000000015,
      "d": 73.78354166666395,
      "v": 83
    },
    {
      "midi": 63,
      "hit": false,
      "t": 39374.37000000001,
      "d": 56.422708333331684,
      "v": 105
    },
    {
      "midi": 60,
      "hit": false,
      "t": 39374.37000000001,
      "d": 78.12374999999884,
      "v": 89
    },
    {
      "midi": 68,
      "hit": false,
      "t": 39374.37000000001,
      "d": 78.12374999999884,
      "v": 105
    },
    {
      "midi": 44,
      "hit": false,
      "t": 39582.70000000001,
      "d": 86.8041666666686,
      "v": 122
    },
    {
      "midi": 60,
      "hit": false,
      "t": 39791.03000000001,
      "d": 62.93302083333401,
      "v": 81
    },
    {
      "midi": 68,
      "hit": false,
      "t": 39791.03000000001,
      "d": 62.93302083333401,
      "v": 86
    },
    {
      "midi": 63,
      "hit": false,
      "t": 39791.03000000001,
      "d": 69.44333333333634,
      "v": 94
    },
    {
      "midi": 63,
      "hit": false,
      "t": 39999.360000000015,
      "d": 119.3557291666657,
      "v": 102
    },
    {
      "midi": 68,
      "hit": false,
      "t": 39999.360000000015,
      "d": 141.05677083333285,
      "v": 105
    },
    {
      "midi": 60,
      "hit": false,
      "t": 39999.360000000015,
      "d": 151.9072916666628,
      "v": 89
    },
    {
      "midi": 44,
      "hit": false,
      "t": 40207.69000000001,
      "d": 88.97427083333605,
      "v": 117
    },
    {
      "midi": 68,
      "hit": false,
      "t": 40416.02000000001,
      "d": 56.422708333331684,
      "v": 94
    },
    {
      "midi": 63,
      "hit": false,
      "t": 40416.02000000001,
      "d": 60.76291666666657,
      "v": 102
    },
    {
      "midi": 60,
      "hit": false,
      "t": 40416.02000000001,
      "d": 69.44333333333634,
      "v": 82
    },
    {
      "midi": 63,
      "hit": false,
      "t": 40624.35000000001,
      "d": 503.4641666666721,
      "v": 109
    },
    {
      "midi": 68,
      "hit": false,
      "t": 40624.35000000001,
      "d": 507.804375000007,
      "v": 113
    },
    {
      "midi": 60,
      "hit": false,
      "t": 40624.35000000001,
      "d": 516.4847916666768,
      "v": 96
    },
    {
      "midi": 44,
      "hit": false,
      "t": 41041.01000000002,
      "d": 99.82479166667326,
      "v": 117
    },
    {
      "midi": 68,
      "hit": false,
      "t": 41249.340000000026,
      "d": 121.52583333333314,
      "v": 117
    },
    {
      "midi": 60,
      "hit": false,
      "t": 41249.340000000026,
      "d": 123.69593750000058,
      "v": 95
    },
    {
      "midi": 63,
      "hit": false,
      "t": 41249.340000000026,
      "d": 130.2062500000029,
      "v": 105
    },
    {
      "midi": 58,
      "hit": false,
      "t": 41666.00000000003,
      "d": 145.39697916666773,
      "v": 70
    },
    {
      "midi": 63,
      "hit": false,
      "t": 41666.00000000003,
      "d": 149.73718750000262,
      "v": 70
    },
    {
      "midi": 67,
      "hit": false,
      "t": 41666.00000000003,
      "d": 149.73718750000262,
      "v": 83
    },
    {
      "midi": 51,
      "hit": false,
      "t": 41874.33000000003,
      "d": 71.61343749999651,
      "v": 94
    },
    {
      "midi": 55,
      "hit": false,
      "t": 41874.33000000003,
      "d": 75.9536458333314,
      "v": 96
    },
    {
      "midi": 58,
      "hit": false,
      "t": 42082.660000000025,
      "d": 67.2732291666689,
      "v": 81
    },
    {
      "midi": 63,
      "hit": false,
      "t": 42082.660000000025,
      "d": 71.61343750000378,
      "v": 94
    },
    {
      "midi": 67,
      "hit": false,
      "t": 42082.660000000025,
      "d": 91.14437500000349,
      "v": 89
    },
    {
      "midi": 55,
      "hit": false,
      "t": 42290.99000000003,
      "d": 73.78354166666395,
      "v": 96
    },
    {
      "midi": 51,
      "hit": false,
      "t": 42290.99000000003,
      "d": 78.12374999999884,
      "v": 97
    },
    {
      "midi": 63,
      "hit": false,
      "t": 42499.32000000003,
      "d": 60.76291666666657,
      "v": 92
    },
    {
      "midi": 58,
      "hit": false,
      "t": 42499.32000000003,
      "d": 69.44333333333634,
      "v": 86
    },
    {
      "midi": 67,
      "hit": false,
      "t": 42499.32000000003,
      "d": 78.12375000000611,
      "v": 89
    },
    {
      "midi": 63,
      "hit": false,
      "t": 42707.65000000004,
      "d": 95.4845833333311,
      "v": 86
    },
    {
      "midi": 58,
      "hit": false,
      "t": 42707.65000000004,
      "d": 106.33510416666104,
      "v": 82
    },
    {
      "midi": 67,
      "hit": false,
      "t": 42707.65000000004,
      "d": 121.52583333332586,
      "v": 89
    },
    {
      "midi": 55,
      "hit": false,
      "t": 42915.98000000003,
      "d": 67.2732291666689,
      "v": 110
    },
    {
      "midi": 51,
      "hit": false,
      "t": 42915.98000000003,
      "d": 88.97427083333605,
      "v": 109
    },
    {
      "midi": 63,
      "hit": false,
      "t": 43124.310000000034,
      "d": 54.25260416666424,
      "v": 88
    },
    {
      "midi": 58,
      "hit": false,
      "t": 43124.310000000034,
      "d": 58.59281249999913,
      "v": 77
    },
    {
      "midi": 67,
      "hit": false,
      "t": 43124.310000000034,
      "d": 62.93302083333401,
      "v": 83
    },
    {
      "midi": 58,
      "hit": false,
      "t": 43332.640000000036,
      "d": 112.84541666666337,
      "v": 94
    },
    {
      "midi": 63,
      "hit": false,
      "t": 43332.640000000036,
      "d": 112.84541666666337,
      "v": 109
    },
    {
      "midi": 67,
      "hit": false,
      "t": 43332.640000000036,
      "d": 121.52583333333314,
      "v": 101
    },
    {
      "midi": 55,
      "hit": false,
      "t": 43540.97000000004,
      "d": 62.93302083333401,
      "v": 110
    },
    {
      "midi": 51,
      "hit": false,
      "t": 43540.97000000004,
      "d": 86.8041666666686,
      "v": 109
    },
    {
      "midi": 58,
      "hit": false,
      "t": 43749.30000000004,
      "d": 54.25260416666424,
      "v": 86
    },
    {
      "midi": 63,
      "hit": false,
      "t": 43749.30000000004,
      "d": 54.25260416666424,
      "v": 94
    },
    {
      "midi": 67,
      "hit": false,
      "t": 43749.30000000004,
      "d": 69.44333333332906,
      "v": 92
    },
    {
      "midi": 58,
      "hit": false,
      "t": 43957.630000000034,
      "d": 779.0673958333355,
      "v": 105
    },
    {
      "midi": 63,
      "hit": false,
      "t": 43957.630000000034,
      "d": 787.7478125000052,
      "v": 117
    },
    {
      "midi": 67,
      "hit": false,
      "t": 43957.630000000034,
      "d": 811.6189583333398,
      "v": 110
    },
    {
      "midi": 54,
      "hit": false,
      "t": 44999.28000000004,
      "d": 91.14437500000349,
      "v": 127
    },
    {
      "midi": 66,
      "hit": false,
      "t": 44999.28000000004,
      "d": 95.48458333333838,
      "v": 113
    },
    {
      "midi": 61,
      "hit": false,
      "t": 44999.28000000004,
      "d": 104.16500000000815,
      "v": 105
    },
    {
      "midi": 70,
      "hit": false,
      "t": 44999.28000000004,
      "d": 112.84541666667792,
      "v": 105
    },
    {
      "midi": 66,
      "hit": false,
      "t": 45207.61000000005,
      "d": 112.84541666666337,
      "v": 94
    },
    {
      "midi": 70,
      "hit": false,
      "t": 45207.61000000005,
      "d": 121.52583333333314,
      "v": 90
    },
    {
      "midi": 61,
      "hit": false,
      "t": 45207.61000000005,
      "d": 125.86604166666802,
      "v": 90
    },
    {
      "midi": 54,
      "hit": false,
      "t": 45207.61000000005,
      "d": 175.77843750000466,
      "v": 109
    },
    {
      "midi": 61,
      "hit": false,
      "t": 45415.94000000005,
      "d": 279.94343749999825,
      "v": 82
    },
    {
      "midi": 70,
      "hit": false,
      "t": 45415.94000000005,
      "d": 284.28364583333314,
      "v": 90
    },
    {
      "midi": 66,
      "hit": false,
      "t": 45415.94000000005,
      "d": 290.79395833333547,
      "v": 90
    },
    {
      "midi": 53,
      "hit": false,
      "t": 45415.94000000005,
      "d": 345.0465624999997,
      "v": 126
    },
    {
      "midi": 66,
      "hit": false,
      "t": 45832.60000000005,
      "d": 93.31447916666366,
      "v": 105
    },
    {
      "midi": 51,
      "hit": false,
      "t": 45832.60000000005,
      "d": 95.4845833333311,
      "v": 122
    },
    {
      "midi": 61,
      "hit": false,
      "t": 45832.60000000005,
      "d": 95.4845833333311,
      "v": 94
    },
    {
      "midi": 70,
      "hit": false,
      "t": 45832.60000000005,
      "d": 112.84541666666337,
      "v": 92
    },
    {
      "midi": 51,
      "hit": false,
      "t": 46040.930000000044,
      "d": 104.16500000000087,
      "v": 109
    },
    {
      "midi": 61,
      "hit": false,
      "t": 46040.930000000044,
      "d": 104.16500000000087,
      "v": 90
    },
    {
      "midi": 66,
      "hit": false,
      "t": 46040.930000000044,
      "d": 104.16500000000087,
      "v": 97
    },
    {
      "midi": 70,
      "hit": false,
      "t": 46040.930000000044,
      "d": 112.84541666667064,
      "v": 90
    },
    {
      "midi": 66,
      "hit": false,
      "t": 46249.260000000046,
      "d": 145.39697916666773,
      "v": 105
    },
    {
      "midi": 61,
      "hit": false,
      "t": 46249.260000000046,
      "d": 184.45885416666715,
      "v": 88
    },
    {
      "midi": 70,
      "hit": false,
      "t": 46249.260000000046,
      "d": 264.75270833333343,
      "v": 99
    },
    {
      "midi": 49,
      "hit": false,
      "t": 46249.260000000046,
      "d": 310.3248958333352,
      "v": 122
    },
    {
      "midi": 62,
      "hit": false,
      "t": 46665.92000000005,
      "d": 112.84541666666337,
      "v": 88
    },
    {
      "midi": 70,
      "hit": false,
      "t": 46665.92000000005,
      "d": 112.84541666666337,
      "v": 94
    },
    {
      "midi": 65,
      "hit": false,
      "t": 46665.92000000005,
      "d": 115.01552083333081,
      "v": 98
    },
    {
      "midi": 46,
      "hit": false,
      "t": 46665.92000000005,
      "d": 141.05677083333285,
      "v": 127
    },
    {
      "midi": 46,
      "hit": false,
      "t": 46874.25000000005,
      "d": 319.0053124999977,
      "v": 122
    },
    {
      "midi": 62,
      "hit": false,
      "t": 46874.25000000005,
      "d": 325.515625,
      "v": 88
    },
    {
      "midi": 65,
      "hit": false,
      "t": 46874.25000000005,
      "d": 325.515625,
      "v": 105
    },
    {
      "midi": 70,
      "hit": false,
      "t": 46874.25000000005,
      "d": 329.8558333333349,
      "v": 97
    },
    {
      "midi": 63,
      "hit": false,
      "t": 47290.910000000054,
      "d": 314.66510416667006,
      "v": 84
    },
    {
      "midi": 67,
      "hit": false,
      "t": 47290.910000000054,
      "d": 314.66510416667006,
      "v": 98
    },
    {
      "midi": 48,
      "hit": false,
      "t": 47290.910000000054,
      "d": 319.00531250000495,
      "v": 127
    },
    {
      "midi": 72,
      "hit": false,
      "t": 47290.910000000054,
      "d": 319.00531250000495,
      "v": 110
    },
    {
      "midi": 46,
      "hit": false,
      "t": 47707.57000000006,
      "d": 3628.414166666669,
      "v": 127
    },
    {
      "midi": 65,
      "hit": false,
      "t": 47707.57000000006,
      "d": 3695.687395833338,
      "v": 110
    },
    {
      "midi": 62,
      "hit": false,
      "t": 47707.57000000006,
      "d": 3708.7080208333355,
      "v": 93
    },
    {
      "midi": 70,
      "hit": false,
      "t": 47707.57000000006,
      "d": 3728.238958333335,
      "v": 105
    },
    {
      "midi": 67,
      "hit": false,
      "t": 51665.84000000006,
      "d": 290.79395833333547,
      "v": 89
    },
    {
      "midi": 58,
      "hit": false,
      "t": 51665.84000000006,
      "d": 297.3042708333378,
      "v": 86
    },
    {
      "midi": 63,
      "hit": false,
      "t": 51665.84000000006,
      "d": 314.66510416667006,
      "v": 88
    },
    {
      "midi": 51,
      "hit": false,
      "t": 51665.84000000006,
      "d": 453.55177083333547,
      "v": 82
    },
    {
      "midi": 39,
      "hit": false,
      "t": 51665.84000000006,
      "d": 477.42291666667006,
      "v": 86
    },
    {
      "midi": 63,
      "hit": false,
      "t": 52082.500000000065,
      "d": 67.2732291666689,
      "v": 79
    },
    {
      "midi": 67,
      "hit": false,
      "t": 52082.500000000065,
      "d": 73.78354166667123,
      "v": 83
    },
    {
      "midi": 58,
      "hit": false,
      "t": 52082.500000000065,
      "d": 84.63406250000116,
      "v": 72
    },
    {
      "midi": 51,
      "hit": false,
      "t": 52290.83000000007,
      "d": 82.46395833333372,
      "v": 81
    },
    {
      "midi": 39,
      "hit": false,
      "t": 52290.83000000007,
      "d": 110.6753125000032,
      "v": 86
    },
    {
      "midi": 63,
      "hit": false,
      "t": 52499.16000000007,
      "d": 73.78354166666395,
      "v": 79
    },
    {
      "midi": 67,
      "hit": false,
      "t": 52499.16000000007,
      "d": 73.78354166666395,
      "v": 83
    },
    {
      "midi": 58,
      "hit": false,
      "t": 52499.16000000007,
      "d": 88.97427083332877,
      "v": 72
    },
    {
      "midi": 67,
      "hit": false,
      "t": 52707.49000000006,
      "d": 190.96916666666948,
      "v": 86
    },
    {
      "midi": 63,
      "hit": false,
      "t": 52707.49000000006,
      "d": 227.86093750000146,
      "v": 77
    },
    {
      "midi": 58,
      "hit": false,
      "t": 52707.49000000006,
      "d": 243.05166666666628,
      "v": 70
    },
    {
      "midi": 51,
      "hit": false,
      "t": 52915.820000000065,
      "d": 206.1598958333343,
      "v": 73
    },
    {
      "midi": 39,
      "hit": false,
      "t": 52915.820000000065,
      "d": 221.35062499999913,
      "v": 77
    },
    {
      "midi": 58,
      "hit": false,
      "t": 53124.15000000007,
      "d": 492.6136458333276,
      "v": 72
    },
    {
      "midi": 67,
      "hit": false,
      "t": 53124.15000000007,
      "d": 492.6136458333276,
      "v": 80
    },
    {
      "midi": 63,
      "hit": false,
      "t": 53124.15000000007,
      "d": 516.4847916666622,
      "v": 81
    },
    {
      "midi": 51,
      "hit": false,
      "t": 53332.48000000006,
      "d": 410.14968750000116,
      "v": 67
    },
    {
      "midi": 39,
      "hit": false,
      "t": 53332.48000000006,
      "d": 434.02083333333576,
      "v": 75
    },
    {
      "midi": 63,
      "hit": false,
      "t": 53749.140000000065,
      "d": 134.54645833333052,
      "v": 82
    },
    {
      "midi": 58,
      "hit": false,
      "t": 53749.140000000065,
      "d": 158.41760416666511,
      "v": 75
    },
    {
      "midi": 67,
      "hit": false,
      "t": 53749.140000000065,
      "d": 158.41760416666511,
      "v": 88
    },
    {
      "midi": 51,
      "hit": false,
      "t": 53957.47000000007,
      "d": 91.14437500000349,
      "v": 75
    },
    {
      "midi": 39,
      "hit": false,
      "t": 53957.47000000007,
      "d": 108.50520833333576,
      "v": 81
    },
    {
      "midi": 63,
      "hit": false,
      "t": 54165.80000000007,
      "d": 82.46395833333372,
      "v": 79
    },
    {
      "midi": 58,
      "hit": false,
      "t": 54165.80000000007,
      "d": 86.8041666666686,
      "v": 72
    },
    {
      "midi": 67,
      "hit": false,
      "t": 54165.80000000007,
      "d": 88.97427083333605,
      "v": 82
    },
    {
      "midi": 67,
      "hit": false,
      "t": 54374.13000000007,
      "d": 195.3093749999971,
      "v": 88
    },
    {
      "midi": 58,
      "hit": false,
      "t": 54374.13000000007,
      "d": 201.81968749999942,
      "v": 76
    },
    {
      "midi": 63,
      "hit": false,
      "t": 54374.13000000007,
      "d": 208.33000000000175,
      "v": 82
    },
    {
      "midi": 51,
      "hit": false,
      "t": 54582.46000000007,
      "d": 86.8041666666686,
      "v": 90
    },
    {
      "midi": 39,
      "hit": false,
      "t": 54582.46000000007,
      "d": 117.18562500000553,
      "v": 92
    },
    {
      "midi": 67,
      "hit": false,
      "t": 54790.79000000008,
      "d": 69.44333333333634,
      "v": 76
    },
    {
      "midi": 63,
      "hit": false,
      "t": 54790.79000000008,
      "d": 71.61343750000378,
      "v": 73
    },
    {
      "midi": 58,
      "hit": false,
      "t": 54790.79000000008,
      "d": 78.12375000000611,
      "v": 71
    },
    {
      "midi": 67,
      "hit": false,
      "t": 54999.12000000009,
      "d": 295.1341666666631,
      "v": 93
    },
    {
      "midi": 58,
      "hit": false,
      "t": 54999.12000000009,
      "d": 303.81458333333285,
      "v": 86
    },
    {
      "midi": 63,
      "hit": false,
      "t": 54999.12000000009,
      "d": 316.83520833333023,
      "v": 92
    },
    {
      "midi": 51,
      "hit": false,
      "t": 54999.12000000009,
      "d": 425.340416666666,
      "v": 92
    },
    {
      "midi": 39,
      "hit": false,
      "t": 54999.12000000009,
      "d": 434.02083333333576,
      "v": 90
    },
    {
      "midi": 58,
      "hit": false,
      "t": 55415.780000000086,
      "d": 221.3506250000064,
      "v": 92
    },
    {
      "midi": 67,
      "hit": false,
      "t": 55415.780000000086,
      "d": 240.8815625000061,
      "v": 99
    },
    {
      "midi": 63,
      "hit": false,
      "t": 55415.780000000086,
      "d": 256.07229166667094,
      "v": 102
    },
    {
      "midi": 51,
      "hit": false,
      "t": 55624.110000000095,
      "d": 182.28874999999243,
      "v": 84
    },
    {
      "midi": 39,
      "hit": false,
      "t": 55624.110000000095,
      "d": 208.32999999999447,
      "v": 84
    },
    {
      "midi": 58,
      "hit": false,
      "t": 55832.44000000009,
      "d": 277.7733333333381,
      "v": 84
    },
    {
      "midi": 63,
      "hit": false,
      "t": 55832.44000000009,
      "d": 286.45375000000786,
      "v": 99
    },
    {
      "midi": 67,
      "hit": false,
      "t": 55832.44000000009,
      "d": 301.6444791666727,
      "v": 96
    },
    {
      "midi": 39,
      "hit": false,
      "t": 56040.77000000009,
      "d": 143.22687500000757,
      "v": 79
    },
    {
      "midi": 51,
      "hit": false,
      "t": 56040.77000000009,
      "d": 143.22687500000757,
      "v": 84
    },
    {
      "midi": 67,
      "hit": false,
      "t": 56249.1000000001,
      "d": 158.41760416666511,
      "v": 98
    },
    {
      "midi": 58,
      "hit": false,
      "t": 56249.1000000001,
      "d": 186.6289583333346,
      "v": 90
    },
    {
      "midi": 63,
      "hit": false,
      "t": 56249.1000000001,
      "d": 243.05166666666628,
      "v": 109
    },
    {
      "midi": 68,
      "hit": false,
      "t": 56665.7600000001,
      "d": 52.0824999999968,
      "v": 92
    },
    {
      "midi": 63,
      "hit": false,
      "t": 56665.7600000001,
      "d": 104.1649999999936,
      "v": 94
    },
    {
      "midi": 60,
      "hit": false,
      "t": 56665.7600000001,
      "d": 112.84541666666337,
      "v": 92
    },
    {
      "midi": 68,
      "hit": false,
      "t": 56874.09000000009,
      "d": 184.45885416666715,
      "v": 117
    },
    {
      "midi": 60,
      "hit": false,
      "t": 56874.09000000009,
      "d": 199.64958333333198,
      "v": 88
    },
    {
      "midi": 63,
      "hit": false,
      "t": 56874.09000000009,
      "d": 219.18052083333168,
      "v": 99
    },
    {
      "midi": 58,
      "hit": false,
      "t": 57290.75000000009,
      "d": 477.42291666667006,
      "v": 84
    },
    {
      "midi": 67,
      "hit": false,
      "t": 57290.75000000009,
      "d": 477.42291666667006,
      "v": 89
    },
    {
      "midi": 63,
      "hit": false,
      "t": 57290.75000000009,
      "d": 488.2734375,
      "v": 99
    },
    {
      "midi": 51,
      "hit": false,
      "t": 57707.41000000009,
      "d": 78.12374999999884,
      "v": 92
    },
    {
      "midi": 39,
      "hit": false,
      "t": 57707.41000000009,
      "d": 104.16500000000087,
      "v": 97
    },
    {
      "midi": 82,
      "hit": false,
      "t": 57707.41000000009,
      "d": 594.6085416666683,
      "v": 102
    },
    {
      "midi": 63,
      "hit": false,
      "t": 57915.74000000009,
      "d": 104.16500000000087,
      "v": 94
    },
    {
      "midi": 58,
      "hit": false,
      "t": 57915.74000000009,
      "d": 119.3557291666657,
      "v": 82
    },
    {
      "midi": 67,
      "hit": false,
      "t": 57915.74000000009,
      "d": 123.69593750000058,
      "v": 88
    },
    {
      "midi": 75,
      "hit": false,
      "t": 57915.74000000009,
      "d": 457.89197916667035,
      "v": 113
    },
    {
      "midi": 51,
      "hit": false,
      "t": 58124.070000000094,
      "d": 58.59281249999913,
      "v": 86
    },
    {
      "midi": 39,
      "hit": false,
      "t": 58124.070000000094,
      "d": 71.61343749999651,
      "v": 94
    },
    {
      "midi": 67,
      "hit": false,
      "t": 58332.400000000096,
      "d": 295.13416666667035,
      "v": 85
    },
    {
      "midi": 58,
      "hit": false,
      "t": 58332.400000000096,
      "d": 314.66510416667006,
      "v": 79
    },
    {
      "midi": 63,
      "hit": false,
      "t": 58332.400000000096,
      "d": 321.1754166666724,
      "v": 84
    },
    {
      "midi": 51,
      "hit": false,
      "t": 58332.400000000096,
      "d": 453.55177083333547,
      "v": 97
    },
    {
      "midi": 39,
      "hit": false,
      "t": 58332.400000000096,
      "d": 477.42291666667006,
      "v": 90
    },
    {
      "midi": 70,
      "hit": false,
      "t": 58332.400000000096,
      "d": 1692.6812500000233,
      "v": 105
    },
    {
      "midi": 67,
      "hit": false,
      "t": 58749.0600000001,
      "d": 164.92791666666744,
      "v": 84
    },
    {
      "midi": 58,
      "hit": false,
      "t": 58749.0600000001,
      "d": 223.52072916666657,
      "v": 69
    },
    {
      "midi": 63,
      "hit": false,
      "t": 58749.0600000001,
      "d": 236.54135416666395,
      "v": 73
    },
    {
      "midi": 51,
      "hit": false,
      "t": 58957.3900000001,
      "d": 410.14968750000116,
      "v": 73
    },
    {
      "midi": 39,
      "hit": false,
      "t": 58957.3900000001,
      "d": 425.34041666667326,
      "v": 84
    },
    {
      "midi": 58,
      "hit": false,
      "t": 59165.720000000096,
      "d": 91.14437500000349,
      "v": 67
    },
    {
      "midi": 63,
      "hit": false,
      "t": 59165.720000000096,
      "d": 91.14437500000349,
      "v": 69
    },
    {
      "midi": 67,
      "hit": false,
      "t": 59165.720000000096,
      "d": 97.65468750000582,
      "v": 79
    },
    {
      "midi": 67,
      "hit": false,
      "t": 59374.050000000105,
      "d": 188.79906250000204,
      "v": 87
    },
    {
      "midi": 63,
      "hit": false,
      "t": 59374.050000000105,
      "d": 199.64958333333198,
      "v": 86
    },
    {
      "midi": 58,
      "hit": false,
      "t": 59374.050000000105,
      "d": 208.33000000000175,
      "v": 77
    },
    {
      "midi": 51,
      "hit": false,
      "t": 59582.38000000011,
      "d": 286.4537500000006,
      "v": 90
    },
    {
      "midi": 39,
      "hit": false,
      "t": 59582.38000000011,
      "d": 325.5156250000073,
      "v": 94
    },
    {
      "midi": 67,
      "hit": false,
      "t": 59790.71000000011,
      "d": 78.12374999999884,
      "v": 83
    },
    {
      "midi": 63,
      "hit": false,
      "t": 59790.71000000011,
      "d": 82.46395833333372,
      "v": 84
    },
    {
      "midi": 58,
      "hit": false,
      "t": 59790.71000000011,
      "d": 86.8041666666686,
      "v": 73
    },
    {
      "midi": 63,
      "hit": false,
      "t": 59999.04000000012,
      "d": 251.73208333333605,
      "v": 82
    },
    {
      "midi": 58,
      "hit": false,
      "t": 59999.04000000012,
      "d": 260.4125000000058,
      "v": 76
    },
    {
      "midi": 67,
      "hit": false,
      "t": 59999.04000000012,
      "d": 264.7527083333407,
      "v": 86
    },
    {
      "midi": 51,
      "hit": false,
      "t": 60207.37000000012,
      "d": 197.4794791666718,
      "v": 81
    },
    {
      "midi": 39,
      "hit": false,
      "t": 60207.37000000012,
      "d": 206.15989583334158,
      "v": 86
    },
    {
      "midi": 63,
      "hit": false,
      "t": 60415.70000000013,
      "d": 73.78354166666395,
      "v": 88
    },
    {
      "midi": 58,
      "hit": false,
      "t": 60415.70000000013,
      "d": 84.63406249999389,
      "v": 75
    },
    {
      "midi": 67,
      "hit": false,
      "t": 60415.70000000013,
      "d": 86.80416666666133,
      "v": 85
    },
    {
      "midi": 63,
      "hit": false,
      "t": 60624.03000000012,
      "d": 243.05166666666628,
      "v": 88
    },
    {
      "midi": 58,
      "hit": false,
      "t": 60624.03000000012,
      "d": 260.41249999999854,
      "v": 77
    },
    {
      "midi": 67,
      "hit": false,
      "t": 60624.03000000012,
      "d": 260.41249999999854,
      "v": 88
    },
    {
      "midi": 39,
      "hit": false,
      "t": 60832.360000000124,
      "d": 214.8403124999968,
      "v": 84
    },
    {
      "midi": 51,
      "hit": false,
      "t": 60832.360000000124,
      "d": 214.8403124999968,
      "v": 82
    },
    {
      "midi": 63,
      "hit": false,
      "t": 61040.69000000012,
      "d": 232.20114583333634,
      "v": 90
    },
    {
      "midi": 67,
      "hit": false,
      "t": 61040.69000000012,
      "d": 232.20114583333634,
      "v": 88
    },
    {
      "midi": 58,
      "hit": false,
      "t": 61040.69000000012,
      "d": 238.71145833333867,
      "v": 77
    },
    {
      "midi": 39,
      "hit": false,
      "t": 61249.02000000012,
      "d": 240.88156249999884,
      "v": 92
    },
    {
      "midi": 51,
      "hit": false,
      "t": 61249.02000000012,
      "d": 240.88156249999884,
      "v": 88
    },
    {
      "midi": 63,
      "hit": false,
      "t": 61457.35000000012,
      "d": 104.1649999999936,
      "v": 86
    },
    {
      "midi": 58,
      "hit": false,
      "t": 61457.35000000012,
      "d": 123.6959374999933,
      "v": 77
    },
    {
      "midi": 67,
      "hit": false,
      "t": 61457.35000000012,
      "d": 130.20624999999563,
      "v": 87
    },
    {
      "midi": 58,
      "hit": false,
      "t": 61665.68000000012,
      "d": 279.94343749999825,
      "v": 88
    },
    {
      "midi": 62,
      "hit": false,
      "t": 61665.68000000012,
      "d": 286.4537500000006,
      "v": 99
    },
    {
      "midi": 65,
      "hit": false,
      "t": 61665.68000000012,
      "d": 295.13416666667035,
      "v": 88
    },
    {
      "midi": 53,
      "hit": false,
      "t": 61665.68000000012,
      "d": 442.70125000000553,
      "v": 80
    },
    {
      "midi": 46,
      "hit": false,
      "t": 61665.68000000012,
      "d": 449.21156250000786,
      "v": 88
    },
    {
      "midi": 58,
      "hit": false,
      "t": 62082.34000000012,
      "d": 245.22177083333372,
      "v": 92
    },
    {
      "midi": 65,
      "hit": false,
      "t": 62082.34000000012,
      "d": 249.5619791666686,
      "v": 96
    },
    {
      "midi": 62,
      "hit": false,
      "t": 62082.34000000012,
      "d": 251.73208333333605,
      "v": 107
    },
    {
      "midi": 53,
      "hit": false,
      "t": 62290.67000000012,
      "d": 97.65468749999854,
      "v": 79
    },
    {
      "midi": 46,
      "hit": false,
      "t": 62290.67000000012,
      "d": 130.20624999999563,
      "v": 84
    },
    {
      "midi": 62,
      "hit": false,
      "t": 62499.00000000012,
      "d": 95.4845833333311,
      "v": 105
    },
    {
      "midi": 65,
      "hit": false,
      "t": 62499.00000000012,
      "d": 99.82479166666599,
      "v": 92
    },
    {
      "midi": 58,
      "hit": false,
      "t": 62499.00000000012,
      "d": 104.16500000000087,
      "v": 84
    },
    {
      "midi": 58,
      "hit": false,
      "t": 62707.33000000012,
      "d": 282.1135416666657,
      "v": 86
    },
    {
      "midi": 65,
      "hit": false,
      "t": 62707.33000000012,
      "d": 286.4537500000006,
      "v": 96
    },
    {
      "midi": 62,
      "hit": false,
      "t": 62707.33000000012,
      "d": 295.13416666667035,
      "v": 103
    },
    {
      "midi": 46,
      "hit": false,
      "t": 62915.66000000012,
      "d": 258.2423958333384,
      "v": 102
    },
    {
      "midi": 53,
      "hit": false,
      "t": 62915.66000000012,
      "d": 277.7733333333381,
      "v": 84
    },
    {
      "midi": 62,
      "hit": false,
      "t": 63123.99000000012,
      "d": 88.97427083333605,
      "v": 101
    },
    {
      "midi": 65,
      "hit": false,
      "t": 63123.99000000012,
      "d": 104.16500000000087,
      "v": 91
    },
    {
      "midi": 58,
      "hit": false,
      "t": 63123.99000000012,
      "d": 117.18562499999825,
      "v": 90
    },
    {
      "midi": 53,
      "hit": false,
      "t": 63332.32000000012,
      "d": 78.12374999999884,
      "v": 77
    },
    {
      "midi": 41,
      "hit": false,
      "t": 63332.32000000012,
      "d": 82.46395833333372,
      "v": 88
    },
    {
      "midi": 60,
      "hit": false,
      "t": 63332.32000000012,
      "d": 93.31447916666366,
      "v": 92
    },
    {
      "midi": 57,
      "hit": false,
      "t": 63332.32000000012,
      "d": 104.1649999999936,
      "v": 92
    },
    {
      "midi": 65,
      "hit": false,
      "t": 63332.32000000012,
      "d": 121.52583333332586,
      "v": 91
    },
    {
      "midi": 77,
      "hit": false,
      "t": 63332.32000000012,
      "d": 525.165208333332,
      "v": 120
    },
    {
      "midi": 57,
      "hit": false,
      "t": 63540.65000000012,
      "d": 243.05166666666628,
      "v": 93
    },
    {
      "midi": 60,
      "hit": false,
      "t": 63540.65000000012,
      "d": 243.05166666666628,
      "v": 99
    },
    {
      "midi": 41,
      "hit": false,
      "t": 63540.65000000012,
      "d": 251.73208333333605,
      "v": 99
    },
    {
      "midi": 65,
      "hit": false,
      "t": 63540.65000000012,
      "d": 251.73208333333605,
      "v": 98
    },
    {
      "midi": 53,
      "hit": false,
      "t": 63540.65000000012,
      "d": 260.4125000000058,
      "v": 95
    },
    {
      "midi": 65,
      "hit": false,
      "t": 63957.31000000012,
      "d": 345.0465624999997,
      "v": 98
    },
    {
      "midi": 56,
      "hit": false,
      "t": 63957.31000000012,
      "d": 358.0671874999971,
      "v": 102
    },
    {
      "midi": 62,
      "hit": false,
      "t": 63957.31000000012,
      "d": 358.0671874999971,
      "v": 107
    },
    {
      "midi": 46,
      "hit": false,
      "t": 63957.31000000012,
      "d": 483.9332291666651,
      "v": 99
    },
    {
      "midi": 53,
      "hit": false,
      "t": 63957.31000000012,
      "d": 488.2734375,
      "v": 82
    },
    {
      "midi": 82,
      "hit": false,
      "t": 63957.31000000012,
      "d": 941.8252083333282,
      "v": 127
    },
    {
      "midi": 56,
      "hit": false,
      "t": 64373.97000000012,
      "d": 240.88156249999884,
      "v": 94
    },
    {
      "midi": 62,
      "hit": false,
      "t": 64373.97000000012,
      "d": 251.73208333332877,
      "v": 112
    },
    {
      "midi": 65,
      "hit": false,
      "t": 64373.97000000012,
      "d": 251.73208333332877,
      "v": 101
    },
    {
      "midi": 46,
      "hit": false,
      "t": 64582.30000000012,
      "d": 188.79906249999476,
      "v": 105
    },
    {
      "midi": 53,
      "hit": false,
      "t": 64582.30000000012,
      "d": 188.79906249999476,
      "v": 95
    },
    {
      "midi": 67,
      "hit": false,
      "t": 64998.960000000116,
      "d": 258.2423958333311,
      "v": 96
    },
    {
      "midi": 58,
      "hit": false,
      "t": 64998.960000000116,
      "d": 269.09291666666104,
      "v": 99
    },
    {
      "midi": 63,
      "hit": false,
      "t": 64998.960000000116,
      "d": 279.943437499991,
      "v": 109
    },
    {
      "midi": 51,
      "hit": false,
      "t": 64998.960000000116,
      "d": 399.2991666666567,
      "v": 99
    },
    {
      "midi": 55,
      "hit": false,
      "t": 64998.960000000116,
      "d": 399.2991666666567,
      "v": 105
    },
    {
      "midi": 58,
      "hit": false,
      "t": 65415.620000000104,
      "d": 177.94854166666482,
      "v": 97
    },
    {
      "midi": 63,
      "hit": false,
      "t": 65415.620000000104,
      "d": 232.2011458333218,
      "v": 105
    },
    {
      "midi": 67,
      "hit": false,
      "t": 65415.620000000104,
      "d": 251.73208333332877,
      "v": 99
    },
    {
      "midi": 48,
      "hit": false,
      "t": 65623.9500000001,
      "d": 182.28874999999243,
      "v": 95
    },
    {
      "midi": 55,
      "hit": false,
      "t": 65623.9500000001,
      "d": 184.45885416665988,
      "v": 92
    },
    {
      "midi": 60,
      "hit": false,
      "t": 65832.28000000009,
      "d": 308.15479166666046,
      "v": 103
    },
    {
      "midi": 63,
      "hit": false,
      "t": 65832.28000000009,
      "d": 314.6651041666628,
      "v": 102
    },
    {
      "midi": 67,
      "hit": false,
      "t": 65832.28000000009,
      "d": 319.0053124999977,
      "v": 99
    },
    {
      "midi": 63,
      "hit": false,
      "t": 66248.94000000009,
      "d": 71.61343749999651,
      "v": 109
    },
    {
      "midi": 67,
      "hit": false,
      "t": 66248.94000000009,
      "d": 91.14437500000349,
      "v": 98
    },
    {
      "midi": 60,
      "hit": false,
      "t": 66248.94000000009,
      "d": 95.48458333333838,
      "v": 101
    },
    {
      "midi": 51,
      "hit": false,
      "t": 66665.6000000001,
      "d": 69.44333333332906,
      "v": 63
    },
    {
      "midi": 56,
      "hit": false,
      "t": 66665.6000000001,
      "d": 95.48458333332383,
      "v": 76
    },
    {
      "midi": 60,
      "hit": false,
      "t": 66665.6000000001,
      "d": 108.50520833332848,
      "v": 76
    },
    {
      "midi": 44,
      "hit": false,
      "t": 66665.6000000001,
      "d": 208.33000000000175,
      "v": 127
    },
    {
      "midi": 51,
      "hit": false,
      "t": 66873.9300000001,
      "d": 201.81968749999942,
      "v": 92
    },
    {
      "midi": 56,
      "hit": false,
      "t": 66873.9300000001,
      "d": 201.81968749999942,
      "v": 99
    },
    {
      "midi": 60,
      "hit": false,
      "t": 66873.9300000001,
      "d": 208.33000000000175,
      "v": 91
    },
    {
      "midi": 44,
      "hit": false,
      "t": 67082.2600000001,
      "d": 86.8041666666686,
      "v": 122
    },
    {
      "midi": 60,
      "hit": false,
      "t": 67290.5900000001,
      "d": 301.64447916665813,
      "v": 101
    },
    {
      "midi": 51,
      "hit": false,
      "t": 67290.5900000001,
      "d": 312.49499999999534,
      "v": 105
    },
    {
      "midi": 56,
      "hit": false,
      "t": 67290.5900000001,
      "d": 321.1754166666651,
      "v": 117
    },
    {
      "midi": 44,
      "hit": false,
      "t": 67498.9200000001,
      "d": 138.88666666665813,
      "v": 117
    },
    {
      "midi": 51,
      "hit": false,
      "t": 67707.25000000009,
      "d": 232.20114583332906,
      "v": 92
    },
    {
      "midi": 56,
      "hit": false,
      "t": 67707.25000000009,
      "d": 282.1135416666657,
      "v": 113
    },
    {
      "midi": 60,
      "hit": false,
      "t": 67707.25000000009,
      "d": 486.10333333333256,
      "v": 103
    },
    {
      "midi": 56,
      "hit": false,
      "t": 68332.24000000009,
      "d": 375.42802083333663,
      "v": 122
    },
    {
      "midi": 60,
      "hit": false,
      "t": 68332.24000000009,
      "d": 375.42802083333663,
      "v": 105
    },
    {
      "midi": 48,
      "hit": false,
      "t": 68332.24000000009,
      "d": 379.7682291666715,
      "v": 103
    },
    {
      "midi": 53,
      "hit": false,
      "t": 68332.24000000009,
      "d": 379.7682291666715,
      "v": 117
    },
    {
      "midi": 41,
      "hit": false,
      "t": 68332.24000000009,
      "d": 407.9795833333337,
      "v": 112
    },
    {
      "midi": 56,
      "hit": false,
      "t": 69165.56000000008,
      "d": 496.95385416666977,
      "v": 122
    },
    {
      "midi": 53,
      "hit": false,
      "t": 69165.56000000008,
      "d": 509.9744791666744,
      "v": 107
    },
    {
      "midi": 61,
      "hit": false,
      "t": 69165.56000000008,
      "d": 509.9744791666744,
      "v": 113
    },
    {
      "midi": 46,
      "hit": false,
      "t": 69998.88000000009,
      "d": 256.07229166667094,
      "v": 117
    },
    {
      "midi": 53,
      "hit": false,
      "t": 69998.88000000009,
      "d": 279.94343749999825,
      "v": 103
    },
    {
      "midi": 58,
      "hit": false,
      "t": 69998.88000000009,
      "d": 286.4537500000006,
      "v": 109
    },
    {
      "midi": 62,
      "hit": false,
      "t": 69998.88000000009,
      "d": 286.4537500000006,
      "v": 98
    },
    {
      "midi": 46,
      "hit": false,
      "t": 70415.5400000001,
      "d": 245.22177083333372,
      "v": 127
    },
    {
      "midi": 53,
      "hit": false,
      "t": 70415.5400000001,
      "d": 266.9228124999936,
      "v": 101
    },
    {
      "midi": 58,
      "hit": false,
      "t": 70415.5400000001,
      "d": 275.60322916666337,
      "v": 109
    },
    {
      "midi": 62,
      "hit": false,
      "t": 70415.5400000001,
      "d": 279.94343749999825,
      "v": 99
    },
    {
      "midi": 46,
      "hit": false,
      "t": 70832.2000000001,
      "d": 251.73208333333605,
      "v": 122
    },
    {
      "midi": 53,
      "hit": false,
      "t": 70832.2000000001,
      "d": 275.60322916666337,
      "v": 98
    },
    {
      "midi": 58,
      "hit": false,
      "t": 70832.2000000001,
      "d": 286.4537500000006,
      "v": 105
    },
    {
      "midi": 62,
      "hit": false,
      "t": 70832.2000000001,
      "d": 286.4537500000006,
      "v": 96
    },
    {
      "midi": 46,
      "hit": false,
      "t": 71248.8600000001,
      "d": 238.7114583333314,
      "v": 127
    },
    {
      "midi": 53,
      "hit": false,
      "t": 71248.8600000001,
      "d": 249.5619791666686,
      "v": 99
    },
    {
      "midi": 58,
      "hit": false,
      "t": 71248.8600000001,
      "d": 253.9021875000035,
      "v": 109
    },
    {
      "midi": 62,
      "hit": false,
      "t": 71248.8600000001,
      "d": 260.4125000000058,
      "v": 99
    },
    {
      "midi": 58,
      "hit": false,
      "t": 71665.5200000001,
      "d": 75.9536458333314,
      "v": 113
    },
    {
      "midi": 46,
      "hit": false,
      "t": 71665.5200000001,
      "d": 82.46395833333372,
      "v": 127
    },
    {
      "midi": 53,
      "hit": false,
      "t": 71665.5200000001,
      "d": 82.46395833333372,
      "v": 103
    },
    {
      "midi": 62,
      "hit": false,
      "t": 71665.5200000001,
      "d": 106.33510416666104,
      "v": 101
    },
    {
      "midi": 46,
      "hit": false,
      "t": 71873.8500000001,
      "d": 75.9536458333314,
      "v": 127
    },
    {
      "midi": 58,
      "hit": false,
      "t": 71873.8500000001,
      "d": 84.63406250000116,
      "v": 109
    },
    {
      "midi": 53,
      "hit": false,
      "t": 71873.8500000001,
      "d": 86.8041666666686,
      "v": 99
    },
    {
      "midi": 62,
      "hit": false,
      "t": 71873.8500000001,
      "d": 104.16500000000815,
      "v": 98
    },
    {
      "midi": 46,
      "hit": false,
      "t": 72082.1800000001,
      "d": 71.61343749999651,
      "v": 127
    },
    {
      "midi": 58,
      "hit": false,
      "t": 72082.1800000001,
      "d": 78.12374999999884,
      "v": 109
    },
    {
      "midi": 53,
      "hit": false,
      "t": 72082.1800000001,
      "d": 82.46395833333372,
      "v": 98
    },
    {
      "midi": 62,
      "hit": false,
      "t": 72082.1800000001,
      "d": 95.48458333333838,
      "v": 99
    },
    {
      "midi": 58,
      "hit": false,
      "t": 72290.5100000001,
      "d": 857.1911458333343,
      "v": 122
    },
    {
      "midi": 46,
      "hit": false,
      "t": 72290.5100000001,
      "d": 865.8715625000041,
      "v": 127
    },
    {
      "midi": 53,
      "hit": false,
      "t": 72290.5100000001,
      "d": 872.3818750000064,
      "v": 114
    },
    {
      "midi": 62,
      "hit": false,
      "t": 72290.5100000001,
      "d": 894.0829166666663,
      "v": 110
    },
    {
      "midi": 63,
      "hit": false,
      "t": 73332.16000000009,
      "d": 88.97427083333605,
      "v": 109
    },
    {
      "midi": 58,
      "hit": false,
      "t": 73332.16000000009,
      "d": 95.48458333333838,
      "v": 92
    },
    {
      "midi": 67,
      "hit": false,
      "t": 73332.16000000009,
      "d": 110.67531250001048,
      "v": 101
    },
    {
      "midi": 55,
      "hit": false,
      "t": 73540.4900000001,
      "d": 60.762916666673846,
      "v": 95
    },
    {
      "midi": 51,
      "hit": false,
      "t": 73540.4900000001,
      "d": 69.44333333334362,
      "v": 102
    },
    {
      "midi": 63,
      "hit": false,
      "t": 73748.82000000012,
      "d": 58.5928125000064,
      "v": 113
    },
    {
      "midi": 58,
      "hit": false,
      "t": 73748.82000000012,
      "d": 60.762916666673846,
      "v": 94
    },
    {
      "midi": 67,
      "hit": false,
      "t": 73748.82000000012,
      "d": 71.61343750001106,
      "v": 96
    },
    {
      "midi": 55,
      "hit": false,
      "t": 73957.15000000014,
      "d": 47.74229166666919,
      "v": 88
    },
    {
      "midi": 51,
      "hit": false,
      "t": 73957.15000000014,
      "d": 58.5928125000064,
      "v": 99
    },
    {
      "midi": 58,
      "hit": false,
      "t": 74165.48000000014,
      "d": 60.762916666673846,
      "v": 84
    },
    {
      "midi": 63,
      "hit": false,
      "t": 74165.48000000014,
      "d": 60.762916666673846,
      "v": 105
    },
    {
      "midi": 67,
      "hit": false,
      "t": 74165.48000000014,
      "d": 69.44333333334362,
      "v": 88
    },
    {
      "midi": 63,
      "hit": false,
      "t": 74373.81000000016,
      "d": 60.762916666673846,
      "v": 94
    },
    {
      "midi": 58,
      "hit": false,
      "t": 74373.81000000016,
      "d": 73.7835416666785,
      "v": 81
    },
    {
      "midi": 67,
      "hit": false,
      "t": 74373.81000000016,
      "d": 78.12375000001339,
      "v": 91
    },
    {
      "midi": 51,
      "hit": false,
      "t": 74582.14000000017,
      "d": 60.762916666673846,
      "v": 102
    },
    {
      "midi": 55,
      "hit": false,
      "t": 74582.14000000017,
      "d": 60.762916666673846,
      "v": 103
    },
    {
      "midi": 63,
      "hit": false,
      "t": 74790.47000000018,
      "d": 49.91239583333663,
      "v": 105
    },
    {
      "midi": 58,
      "hit": false,
      "t": 74790.47000000018,
      "d": 67.27322916667617,
      "v": 92
    },
    {
      "midi": 67,
      "hit": false,
      "t": 74790.47000000018,
      "d": 71.61343750001106,
      "v": 92
    },
    {
      "midi": 55,
      "hit": false,
      "t": 74998.80000000019,
      "d": 60.762916666673846,
      "v": 75
    },
    {
      "midi": 51,
      "hit": false,
      "t": 74998.80000000019,
      "d": 69.44333333334362,
      "v": 64
    },
    {
      "midi": 63,
      "hit": false,
      "t": 75415.4600000002,
      "d": 43.4020833333343,
      "v": 90
    },
    {
      "midi": 58,
      "hit": false,
      "t": 75415.4600000002,
      "d": 58.5928125000064,
      "v": 84
    },
    {
      "midi": 67,
      "hit": false,
      "t": 75415.4600000002,
      "d": 58.5928125000064,
      "v": 88
    },
    {
      "midi": 58,
      "hit": false,
      "t": 75623.7900000002,
      "d": 401.4692708333314,
      "v": 94
    },
    {
      "midi": 67,
      "hit": false,
      "t": 75623.7900000002,
      "d": 401.4692708333314,
      "v": 99
    },
    {
      "midi": 63,
      "hit": false,
      "t": 75623.7900000002,
      "d": 407.9795833333337,
      "v": 102
    },
    {
      "midi": 55,
      "hit": false,
      "t": 76040.4500000002,
      "d": 56.42270833333896,
      "v": 107
    },
    {
      "midi": 51,
      "hit": false,
      "t": 76040.4500000002,
      "d": 69.44333333334362,
      "v": 109
    },
    {
      "midi": 63,
      "hit": false,
      "t": 76248.78000000022,
      "d": 54.25260416667152,
      "v": 102
    },
    {
      "midi": 58,
      "hit": false,
      "t": 76248.78000000022,
      "d": 78.12374999999884,
      "v": 88
    },
    {
      "midi": 67,
      "hit": false,
      "t": 76248.78000000022,
      "d": 88.97427083333605,
      "v": 93
    },
    {
      "midi": 55,
      "hit": false,
      "t": 76457.11000000022,
      "d": 49.91239583333663,
      "v": 107
    },
    {
      "midi": 51,
      "hit": false,
      "t": 76457.11000000022,
      "d": 80.29385416666628,
      "v": 117
    },
    {
      "midi": 55,
      "hit": false,
      "t": 76873.77000000022,
      "d": 54.25260416667152,
      "v": 105
    },
    {
      "midi": 51,
      "hit": false,
      "t": 76873.77000000022,
      "d": 69.44333333334362,
      "v": 105
    },
    {
      "midi": 63,
      "hit": false,
      "t": 77082.10000000024,
      "d": 56.42270833333896,
      "v": 97
    },
    {
      "midi": 58,
      "hit": false,
      "t": 77082.10000000024,
      "d": 60.762916666673846,
      "v": 88
    },
    {
      "midi": 67,
      "hit": false,
      "t": 77082.10000000024,
      "d": 93.31447916667094,
      "v": 98
    },
    {
      "midi": 55,
      "hit": false,
      "t": 77290.43000000024,
      "d": 54.25260416667152,
      "v": 93
    },
    {
      "midi": 51,
      "hit": false,
      "t": 77290.43000000024,
      "d": 65.10312500000873,
      "v": 99
    },
    {
      "midi": 63,
      "hit": false,
      "t": 77498.76000000024,
      "d": 54.25260416667152,
      "v": 94
    },
    {
      "midi": 58,
      "hit": false,
      "t": 77498.76000000024,
      "d": 65.10312500000873,
      "v": 90
    },
    {
      "midi": 67,
      "hit": false,
      "t": 77498.76000000024,
      "d": 80.29385416668083,
      "v": 91
    },
    {
      "midi": 58,
      "hit": false,
      "t": 77707.09000000026,
      "d": 60.762916666673846,
      "v": 90
    },
    {
      "midi": 63,
      "hit": false,
      "t": 77707.09000000026,
      "d": 62.93302083334129,
      "v": 105
    },
    {
      "midi": 67,
      "hit": false,
      "t": 77707.09000000026,
      "d": 69.44333333334362,
      "v": 93
    },
    {
      "midi": 55,
      "hit": false,
      "t": 77915.42000000027,
      "d": 60.762916666673846,
      "v": 112
    },
    {
      "midi": 51,
      "hit": false,
      "t": 77915.42000000027,
      "d": 86.8041666666686,
      "v": 109
    },
    {
      "midi": 58,
      "hit": false,
      "t": 78123.75000000028,
      "d": 34.72166666666453,
      "v": 67
    },
    {
      "midi": 63,
      "hit": false,
      "t": 78332.08000000028,
      "d": 52.082500000004075,
      "v": 109
    },
    {
      "midi": 58,
      "hit": false,
      "t": 78332.08000000028,
      "d": 60.762916666673846,
      "v": 94
    },
    {
      "midi": 67,
      "hit": false,
      "t": 78332.08000000028,
      "d": 73.7835416666785,
      "v": 99
    },
    {
      "midi": 63,
      "hit": false,
      "t": 78540.4100000003,
      "d": 49.91239583333663,
      "v": 109
    },
    {
      "midi": 58,
      "hit": false,
      "t": 78540.4100000003,
      "d": 60.762916666673846,
      "v": 94
    },
    {
      "midi": 67,
      "hit": false,
      "t": 78540.4100000003,
      "d": 73.7835416666785,
      "v": 101
    },
    {
      "midi": 63,
      "hit": false,
      "t": 78957.07000000031,
      "d": 460.0620833333378,
      "v": 117
    },
    {
      "midi": 58,
      "hit": false,
      "t": 78957.07000000031,
      "d": 464.4022916666727,
      "v": 102
    },
    {
      "midi": 67,
      "hit": false,
      "t": 78957.07000000031,
      "d": 494.7837500000023,
      "v": 110
    },
    {
      "midi": 55,
      "hit": false,
      "t": 79373.73000000032,
      "d": 71.61343749999651,
      "v": 99
    },
    {
      "midi": 51,
      "hit": false,
      "t": 79373.73000000032,
      "d": 80.29385416666628,
      "v": 94
    },
    {
      "midi": 58,
      "hit": false,
      "t": 79582.06000000032,
      "d": 84.63406250000116,
      "v": 84
    },
    {
      "midi": 67,
      "hit": false,
      "t": 79582.06000000032,
      "d": 93.31447916667094,
      "v": 92
    },
    {
      "midi": 63,
      "hit": false,
      "t": 79582.06000000032,
      "d": 112.84541666667792,
      "v": 113
    },
    {
      "midi": 63,
      "hit": false,
      "t": 79998.72000000034,
      "d": 93.31447916667094,
      "v": 81
    },
    {
      "midi": 68,
      "hit": false,
      "t": 79998.72000000034,
      "d": 97.65468750000582,
      "v": 84
    },
    {
      "midi": 60,
      "hit": false,
      "t": 79998.72000000034,
      "d": 112.84541666667792,
      "v": 80
    },
    {
      "midi": 63,
      "hit": false,
      "t": 80415.38000000035,
      "d": 65.10312499999418,
      "v": 102
    },
    {
      "midi": 60,
      "hit": false,
      "t": 80415.38000000035,
      "d": 84.63406250000116,
      "v": 91
    },
    {
      "midi": 68,
      "hit": false,
      "t": 80415.38000000035,
      "d": 95.48458333333838,
      "v": 109
    },
    {
      "midi": 44,
      "hit": false,
      "t": 80623.71000000036,
      "d": 82.46395833333372,
      "v": 109
    },
    {
      "midi": 63,
      "hit": false,
      "t": 80832.04000000036,
      "d": 60.762916666673846,
      "v": 97
    },
    {
      "midi": 68,
      "hit": false,
      "t": 80832.04000000036,
      "d": 62.93302083334129,
      "v": 102
    },
    {
      "midi": 60,
      "hit": false,
      "t": 80832.04000000036,
      "d": 73.7835416666785,
      "v": 83
    },
    {
      "midi": 63,
      "hit": false,
      "t": 81040.37000000037,
      "d": 56.42270833333896,
      "v": 105
    },
    {
      "midi": 60,
      "hit": false,
      "t": 81040.37000000037,
      "d": 78.12374999999884,
      "v": 89
    },
    {
      "midi": 68,
      "hit": false,
      "t": 81040.37000000037,
      "d": 78.12374999999884,
      "v": 105
    },
    {
      "midi": 44,
      "hit": false,
      "t": 81248.70000000038,
      "d": 86.8041666666686,
      "v": 122
    },
    {
      "midi": 60,
      "hit": false,
      "t": 81457.03000000038,
      "d": 62.93302083332674,
      "v": 81
    },
    {
      "midi": 68,
      "hit": false,
      "t": 81457.03000000038,
      "d": 62.93302083332674,
      "v": 86
    },
    {
      "midi": 63,
      "hit": false,
      "t": 81457.03000000038,
      "d": 69.44333333332906,
      "v": 94
    },
    {
      "midi": 63,
      "hit": false,
      "t": 81665.36000000038,
      "d": 119.3557291666657,
      "v": 102
    },
    {
      "midi": 68,
      "hit": false,
      "t": 81665.36000000038,
      "d": 141.05677083332557,
      "v": 105
    },
    {
      "midi": 60,
      "hit": false,
      "t": 81665.36000000038,
      "d": 151.9072916666628,
      "v": 89
    },
    {
      "midi": 44,
      "hit": false,
      "t": 81873.69000000038,
      "d": 88.97427083333605,
      "v": 117
    },
    {
      "midi": 68,
      "hit": false,
      "t": 82082.02000000038,
      "d": 56.42270833333896,
      "v": 94
    },
    {
      "midi": 63,
      "hit": false,
      "t": 82082.02000000038,
      "d": 60.762916666673846,
      "v": 102
    },
    {
      "midi": 60,
      "hit": false,
      "t": 82082.02000000038,
      "d": 69.44333333334362,
      "v": 82
    },
    {
      "midi": 63,
      "hit": false,
      "t": 82290.3500000004,
      "d": 503.4641666666721,
      "v": 109
    },
    {
      "midi": 68,
      "hit": false,
      "t": 82290.3500000004,
      "d": 507.804375000007,
      "v": 113
    },
    {
      "midi": 60,
      "hit": false,
      "t": 82290.3500000004,
      "d": 516.4847916666768,
      "v": 96
    },
    {
      "midi": 44,
      "hit": false,
      "t": 82707.0100000004,
      "d": 99.82479166667326,
      "v": 117
    },
    {
      "midi": 68,
      "hit": false,
      "t": 82915.3400000004,
      "d": 121.52583333333314,
      "v": 117
    },
    {
      "midi": 60,
      "hit": false,
      "t": 82915.3400000004,
      "d": 123.69593750000058,
      "v": 95
    },
    {
      "midi": 63,
      "hit": false,
      "t": 82915.3400000004,
      "d": 130.2062500000029,
      "v": 105
    },
    {
      "midi": 58,
      "hit": false,
      "t": 83332.00000000041,
      "d": 145.39697916666046,
      "v": 70
    },
    {
      "midi": 63,
      "hit": false,
      "t": 83332.00000000041,
      "d": 149.73718749999534,
      "v": 70
    },
    {
      "midi": 67,
      "hit": false,
      "t": 83332.00000000041,
      "d": 149.73718749999534,
      "v": 83
    },
    {
      "midi": 51,
      "hit": false,
      "t": 83540.33000000041,
      "d": 71.61343749999651,
      "v": 94
    },
    {
      "midi": 55,
      "hit": false,
      "t": 83540.33000000041,
      "d": 75.9536458333314,
      "v": 96
    },
    {
      "midi": 58,
      "hit": false,
      "t": 83748.66000000041,
      "d": 67.27322916666162,
      "v": 81
    },
    {
      "midi": 63,
      "hit": false,
      "t": 83748.66000000041,
      "d": 71.61343749999651,
      "v": 94
    },
    {
      "midi": 67,
      "hit": false,
      "t": 83748.66000000041,
      "d": 91.14437500000349,
      "v": 89
    },
    {
      "midi": 55,
      "hit": false,
      "t": 83956.99000000041,
      "d": 73.78354166666395,
      "v": 96
    },
    {
      "midi": 51,
      "hit": false,
      "t": 83956.99000000041,
      "d": 78.12374999999884,
      "v": 97
    },
    {
      "midi": 63,
      "hit": false,
      "t": 84165.32000000041,
      "d": 60.762916666673846,
      "v": 92
    },
    {
      "midi": 58,
      "hit": false,
      "t": 84165.32000000041,
      "d": 69.44333333334362,
      "v": 86
    },
    {
      "midi": 67,
      "hit": false,
      "t": 84165.32000000041,
      "d": 78.12375000001339,
      "v": 89
    },
    {
      "midi": 63,
      "hit": false,
      "t": 84373.65000000043,
      "d": 95.48458333333838,
      "v": 86
    },
    {
      "midi": 58,
      "hit": false,
      "t": 84373.65000000043,
      "d": 106.33510416667559,
      "v": 82
    },
    {
      "midi": 67,
      "hit": false,
      "t": 84373.65000000043,
      "d": 121.52583333334769,
      "v": 89
    },
    {
      "midi": 55,
      "hit": false,
      "t": 84581.98000000045,
      "d": 67.27322916666162,
      "v": 110
    },
    {
      "midi": 51,
      "hit": false,
      "t": 84581.98000000045,
      "d": 88.9742708333215,
      "v": 109
    },
    {
      "midi": 63,
      "hit": false,
      "t": 84790.31000000043,
      "d": 54.25260416667152,
      "v": 88
    },
    {
      "midi": 58,
      "hit": false,
      "t": 84790.31000000043,
      "d": 58.5928125000064,
      "v": 77
    },
    {
      "midi": 67,
      "hit": false,
      "t": 84790.31000000043,
      "d": 62.93302083334129,
      "v": 83
    },
    {
      "midi": 58,
      "hit": false,
      "t": 84998.64000000044,
      "d": 112.84541666666337,
      "v": 94
    },
    {
      "midi": 63,
      "hit": false,
      "t": 84998.64000000044,
      "d": 112.84541666666337,
      "v": 109
    },
    {
      "midi": 67,
      "hit": false,
      "t": 84998.64000000044,
      "d": 121.52583333333314,
      "v": 101
    },
    {
      "midi": 55,
      "hit": false,
      "t": 85206.97000000044,
      "d": 62.93302083332674,
      "v": 110
    },
    {
      "midi": 51,
      "hit": false,
      "t": 85206.97000000044,
      "d": 86.80416666665406,
      "v": 109
    },
    {
      "midi": 58,
      "hit": false,
      "t": 85415.30000000042,
      "d": 54.25260416667152,
      "v": 86
    },
    {
      "midi": 63,
      "hit": false,
      "t": 85415.30000000042,
      "d": 54.25260416667152,
      "v": 94
    },
    {
      "midi": 67,
      "hit": false,
      "t": 85415.30000000042,
      "d": 69.44333333334362,
      "v": 92
    },
    {
      "midi": 58,
      "hit": false,
      "t": 85623.63000000044,
      "d": 779.0673958333355,
      "v": 105
    },
    {
      "midi": 63,
      "hit": false,
      "t": 85623.63000000044,
      "d": 787.7478125000052,
      "v": 117
    },
    {
      "midi": 67,
      "hit": false,
      "t": 85623.63000000044,
      "d": 811.6189583333326,
      "v": 110
    },
    {
      "midi": 54,
      "hit": false,
      "t": 86665.28000000044,
      "d": 91.14437500000349,
      "v": 127
    },
    {
      "midi": 66,
      "hit": false,
      "t": 86665.28000000044,
      "d": 95.48458333333838,
      "v": 113
    },
    {
      "midi": 61,
      "hit": false,
      "t": 86665.28000000044,
      "d": 104.16500000000815,
      "v": 105
    },
    {
      "midi": 70,
      "hit": false,
      "t": 86665.28000000044,
      "d": 112.84541666667792,
      "v": 105
    },
    {
      "midi": 66,
      "hit": false,
      "t": 86873.61000000045,
      "d": 112.84541666666337,
      "v": 94
    },
    {
      "midi": 70,
      "hit": false,
      "t": 86873.61000000045,
      "d": 121.52583333333314,
      "v": 90
    },
    {
      "midi": 61,
      "hit": false,
      "t": 86873.61000000045,
      "d": 125.86604166666802,
      "v": 90
    },
    {
      "midi": 54,
      "hit": false,
      "t": 86873.61000000045,
      "d": 175.77843750000466,
      "v": 109
    },
    {
      "midi": 61,
      "hit": false,
      "t": 87081.94000000045,
      "d": 279.94343749999825,
      "v": 82
    },
    {
      "midi": 70,
      "hit": false,
      "t": 87081.94000000045,
      "d": 284.28364583333314,
      "v": 90
    },
    {
      "midi": 66,
      "hit": false,
      "t": 87081.94000000045,
      "d": 290.79395833333547,
      "v": 90
    },
    {
      "midi": 53,
      "hit": false,
      "t": 87081.94000000045,
      "d": 345.046562500007,
      "v": 126
    },
    {
      "midi": 66,
      "hit": false,
      "t": 87498.60000000046,
      "d": 93.31447916667094,
      "v": 105
    },
    {
      "midi": 51,
      "hit": false,
      "t": 87498.60000000046,
      "d": 95.48458333333838,
      "v": 122
    },
    {
      "midi": 61,
      "hit": false,
      "t": 87498.60000000046,
      "d": 95.48458333333838,
      "v": 94
    },
    {
      "midi": 70,
      "hit": false,
      "t": 87498.60000000046,
      "d": 112.84541666667792,
      "v": 92
    },
    {
      "midi": 51,
      "hit": false,
      "t": 87706.93000000047,
      "d": 104.1649999999936,
      "v": 109
    },
    {
      "midi": 61,
      "hit": false,
      "t": 87706.93000000047,
      "d": 104.1649999999936,
      "v": 90
    },
    {
      "midi": 66,
      "hit": false,
      "t": 87706.93000000047,
      "d": 104.1649999999936,
      "v": 97
    },
    {
      "midi": 70,
      "hit": false,
      "t": 87706.93000000047,
      "d": 112.84541666666337,
      "v": 90
    },
    {
      "midi": 66,
      "hit": false,
      "t": 87915.26000000047,
      "d": 145.39697916666046,
      "v": 105
    },
    {
      "midi": 61,
      "hit": false,
      "t": 87915.26000000047,
      "d": 184.45885416665988,
      "v": 88
    },
    {
      "midi": 70,
      "hit": false,
      "t": 87915.26000000047,
      "d": 264.75270833332615,
      "v": 99
    },
    {
      "midi": 49,
      "hit": false,
      "t": 87915.26000000047,
      "d": 310.3248958333279,
      "v": 122
    },
    {
      "midi": 62,
      "hit": false,
      "t": 88331.92000000046,
      "d": 112.84541666666337,
      "v": 88
    },
    {
      "midi": 70,
      "hit": false,
      "t": 88331.92000000046,
      "d": 112.84541666666337,
      "v": 94
    },
    {
      "midi": 65,
      "hit": false,
      "t": 88331.92000000046,
      "d": 115.01552083333081,
      "v": 98
    },
    {
      "midi": 46,
      "hit": false,
      "t": 88331.92000000046,
      "d": 141.05677083332557,
      "v": 127
    },
    {
      "midi": 46,
      "hit": false,
      "t": 88540.25000000045,
      "d": 319.0053124999977,
      "v": 122
    },
    {
      "midi": 62,
      "hit": false,
      "t": 88540.25000000045,
      "d": 325.515625,
      "v": 88
    },
    {
      "midi": 65,
      "hit": false,
      "t": 88540.25000000045,
      "d": 325.515625,
      "v": 105
    },
    {
      "midi": 70,
      "hit": false,
      "t": 88540.25000000045,
      "d": 329.8558333333349,
      "v": 97
    },
    {
      "midi": 63,
      "hit": false,
      "t": 88956.91000000045,
      "d": 314.6651041666628,
      "v": 84
    },
    {
      "midi": 67,
      "hit": false,
      "t": 88956.91000000045,
      "d": 314.6651041666628,
      "v": 98
    },
    {
      "midi": 48,
      "hit": false,
      "t": 88956.91000000045,
      "d": 319.0053124999977,
      "v": 127
    },
    {
      "midi": 72,
      "hit": false,
      "t": 88956.91000000045,
      "d": 319.0053124999977,
      "v": 110
    },
    {
      "midi": 46,
      "hit": false,
      "t": 89373.57000000046,
      "d": 2176.614479166674,
      "v": 127
    },
    {
      "midi": 65,
      "hit": false,
      "t": 89373.57000000046,
      "d": 2213.506250000006,
      "v": 110
    },
    {
      "midi": 62,
      "hit": false,
      "t": 89373.57000000046,
      "d": 2222.1866666666756,
      "v": 93
    },
    {
      "midi": 70,
      "hit": false,
      "t": 89373.57000000046,
      "d": 2235.2072916666802,
      "v": 105
    },
    {
      "midi": 61,
      "hit": false,
      "t": 91665.20000000048,
      "d": 1484.3512499999924,
      "v": 107
    },
    {
      "midi": 64,
      "hit": false,
      "t": 91665.20000000048,
      "d": 1484.3512499999924,
      "v": 117
    },
    {
      "midi": 69,
      "hit": false,
      "t": 91665.20000000048,
      "d": 1499.5419791666645,
      "v": 117
    },
    {
      "midi": 68,
      "hit": false,
      "t": 92706.85000000047,
      "d": 134.5464583333378,
      "v": 127
    },
    {
      "midi": 67,
      "hit": false,
      "t": 93123.51000000047,
      "d": 130.2062500000029,
      "v": 123
    },
    {
      "midi": 65,
      "hit": false,
      "t": 93331.84000000048,
      "d": 284.28364583333314,
      "v": 117
    },
    {
      "midi": 67,
      "hit": false,
      "t": 93748.50000000048,
      "d": 230.03104166666162,
      "v": 123
    },
    {
      "midi": 69,
      "hit": false,
      "t": 94165.16000000047,
      "d": 240.88156249999884,
      "v": 127
    },
    {
      "midi": 72,
      "hit": false,
      "t": 94581.82000000047,
      "d": 245.22177083333372,
      "v": 120
    },
    {
      "midi": 75,
      "hit": false,
      "t": 94998.48000000048,
      "d": 203.98979166666686,
      "v": 127
    },
    {
      "midi": 74,
      "hit": false,
      "t": 95415.14000000048,
      "d": 108.50520833332848,
      "v": 120
    },
    {
      "midi": 69,
      "hit": false,
      "t": 95623.47000000048,
      "d": 256.07229166667094,
      "v": 114
    },
    {
      "midi": 72,
      "hit": false,
      "t": 96040.13000000048,
      "d": 1953.09375,
      "v": 127
    },
    {
      "midi": 68,
      "hit": false,
      "t": 99373.41000000048,
      "d": 121.52583333333314,
      "v": 127
    },
    {
      "midi": 67,
      "hit": false,
      "t": 99790.07000000049,
      "d": 171.43822916666977,
      "v": 123
    },
    {
      "midi": 65,
      "hit": false,
      "t": 99998.40000000049,
      "d": 262.58260416667326,
      "v": 123
    },
    {
      "midi": 67,
      "hit": false,
      "t": 100415.06000000049,
      "d": 227.86093749999418,
      "v": 120
    },
    {
      "midi": 69,
      "hit": false,
      "t": 100831.72000000048,
      "d": 266.9228124999936,
      "v": 127
    },
    {
      "midi": 72,
      "hit": false,
      "t": 101248.38000000047,
      "d": 234.3712499999965,
      "v": 120
    },
    {
      "midi": 75,
      "hit": false,
      "t": 101665.04000000047,
      "d": 243.05166666666628,
      "v": 117
    },
    {
      "midi": 74,
      "hit": false,
      "t": 102081.70000000048,
      "d": 130.2062500000029,
      "v": 117
    },
    {
      "midi": 69,
      "hit": false,
      "t": 102290.03000000048,
      "d": 249.5619791666686,
      "v": 114
    },
    {
      "midi": 72,
      "hit": false,
      "t": 102706.69000000048,
      "d": 1909.6916666666657,
      "v": 127
    },
    {
      "midi": 69,
      "hit": false,
      "t": 106664.96000000049,
      "d": 258.2423958333384,
      "v": 96
    },
    {
      "midi": 60,
      "hit": false,
      "t": 106664.96000000049,
      "d": 269.0929166666756,
      "v": 99
    },
    {
      "midi": 65,
      "hit": false,
      "t": 106664.96000000049,
      "d": 279.9434375000128,
      "v": 109
    },
    {
      "midi": 53,
      "hit": false,
      "t": 106664.96000000049,
      "d": 399.2991666666785,
      "v": 99
    },
    {
      "midi": 57,
      "hit": false,
      "t": 106664.96000000049,
      "d": 399.2991666666785,
      "v": 105
    },
    {
      "midi": 60,
      "hit": false,
      "t": 107081.6200000005,
      "d": 177.9485416666721,
      "v": 97
    },
    {
      "midi": 65,
      "hit": false,
      "t": 107081.6200000005,
      "d": 232.20114583332906,
      "v": 105
    },
    {
      "midi": 69,
      "hit": false,
      "t": 107081.6200000005,
      "d": 251.73208333333605,
      "v": 99
    },
    {
      "midi": 50,
      "hit": false,
      "t": 107289.9500000005,
      "d": 182.28874999999243,
      "v": 95
    },
    {
      "midi": 57,
      "hit": false,
      "t": 107289.9500000005,
      "d": 184.45885416665988,
      "v": 92
    },
    {
      "midi": 62,
      "hit": false,
      "t": 107498.2800000005,
      "d": 308.15479166666046,
      "v": 103
    },
    {
      "midi": 65,
      "hit": false,
      "t": 107498.2800000005,
      "d": 314.6651041666628,
      "v": 102
    },
    {
      "midi": 69,
      "hit": false,
      "t": 107498.2800000005,
      "d": 319.0053124999977,
      "v": 99
    },
    {
      "midi": 65,
      "hit": false,
      "t": 107914.9400000005,
      "d": 71.61343749999651,
      "v": 109
    },
    {
      "midi": 69,
      "hit": false,
      "t": 107914.9400000005,
      "d": 91.14437500000349,
      "v": 98
    },
    {
      "midi": 62,
      "hit": false,
      "t": 107914.9400000005,
      "d": 95.48458333333838,
      "v": 101
    },
    {
      "midi": 53,
      "hit": false,
      "t": 108331.6000000005,
      "d": 69.44333333332906,
      "v": 63
    },
    {
      "midi": 58,
      "hit": false,
      "t": 108331.6000000005,
      "d": 95.48458333332383,
      "v": 76
    },
    {
      "midi": 62,
      "hit": false,
      "t": 108331.6000000005,
      "d": 108.50520833332848,
      "v": 76
    },
    {
      "midi": 46,
      "hit": false,
      "t": 108331.6000000005,
      "d": 208.33000000000175,
      "v": 127
    },
    {
      "midi": 53,
      "hit": false,
      "t": 108539.9300000005,
      "d": 201.81968749999942,
      "v": 92
    },
    {
      "midi": 58,
      "hit": false,
      "t": 108539.9300000005,
      "d": 201.81968749999942,
      "v": 99
    },
    {
      "midi": 62,
      "hit": false,
      "t": 108539.9300000005,
      "d": 208.33000000000175,
      "v": 91
    },
    {
      "midi": 46,
      "hit": false,
      "t": 108748.2600000005,
      "d": 86.8041666666686,
      "v": 122
    },
    {
      "midi": 62,
      "hit": false,
      "t": 108956.5900000005,
      "d": 301.64447916665813,
      "v": 101
    },
    {
      "midi": 53,
      "hit": false,
      "t": 108956.5900000005,
      "d": 312.49499999999534,
      "v": 105
    },
    {
      "midi": 58,
      "hit": false,
      "t": 108956.5900000005,
      "d": 321.1754166666651,
      "v": 117
    },
    {
      "midi": 46,
      "hit": false,
      "t": 109164.92000000051,
      "d": 138.88666666665813,
      "v": 117
    },
    {
      "midi": 53,
      "hit": false,
      "t": 109373.2500000005,
      "d": 232.20114583332906,
      "v": 92
    },
    {
      "midi": 58,
      "hit": false,
      "t": 109373.2500000005,
      "d": 282.1135416666657,
      "v": 113
    },
    {
      "midi": 62,
      "hit": false,
      "t": 109373.2500000005,
      "d": 486.10333333333256,
      "v": 103
    },
    {
      "midi": 58,
      "hit": false,
      "t": 109998.2400000005,
      "d": 375.42802083333663,
      "v": 122
    },
    {
      "midi": 62,
      "hit": false,
      "t": 109998.2400000005,
      "d": 375.42802083333663,
      "v": 105
    },
    {
      "midi": 50,
      "hit": false,
      "t": 109998.2400000005,
      "d": 379.7682291666715,
      "v": 103
    },
    {
      "midi": 55,
      "hit": false,
      "t": 109998.2400000005,
      "d": 379.7682291666715,
      "v": 117
    },
    {
      "midi": 43,
      "hit": false,
      "t": 109998.2400000005,
      "d": 407.9795833333337,
      "v": 112
    },
    {
      "midi": 58,
      "hit": false,
      "t": 110831.56000000049,
      "d": 496.95385416666977,
      "v": 122
    },
    {
      "midi": 55,
      "hit": false,
      "t": 110831.56000000049,
      "d": 509.9744791666744,
      "v": 107
    },
    {
      "midi": 63,
      "hit": false,
      "t": 110831.56000000049,
      "d": 509.9744791666744,
      "v": 113
    },
    {
      "midi": 48,
      "hit": false,
      "t": 111664.8800000005,
      "d": 256.07229166667094,
      "v": 117
    },
    {
      "midi": 55,
      "hit": false,
      "t": 111664.8800000005,
      "d": 279.94343749999825,
      "v": 103
    },
    {
      "midi": 60,
      "hit": false,
      "t": 111664.8800000005,
      "d": 286.4537500000006,
      "v": 109
    },
    {
      "midi": 64,
      "hit": false,
      "t": 111664.8800000005,
      "d": 286.4537500000006,
      "v": 98
    },
    {
      "midi": 48,
      "hit": false,
      "t": 112081.5400000005,
      "d": 245.22177083333372,
      "v": 127
    },
    {
      "midi": 55,
      "hit": false,
      "t": 112081.5400000005,
      "d": 266.9228124999936,
      "v": 101
    },
    {
      "midi": 60,
      "hit": false,
      "t": 112081.5400000005,
      "d": 275.60322916666337,
      "v": 109
    },
    {
      "midi": 64,
      "hit": false,
      "t": 112081.5400000005,
      "d": 279.94343749999825,
      "v": 99
    },
    {
      "midi": 48,
      "hit": false,
      "t": 112498.2000000005,
      "d": 251.73208333333605,
      "v": 122
    },
    {
      "midi": 55,
      "hit": false,
      "t": 112498.2000000005,
      "d": 275.60322916666337,
      "v": 98
    },
    {
      "midi": 60,
      "hit": false,
      "t": 112498.2000000005,
      "d": 286.4537500000006,
      "v": 105
    },
    {
      "midi": 64,
      "hit": false,
      "t": 112498.2000000005,
      "d": 286.4537500000006,
      "v": 96
    },
    {
      "midi": 48,
      "hit": false,
      "t": 112914.86000000051,
      "d": 238.7114583333314,
      "v": 127
    },
    {
      "midi": 55,
      "hit": false,
      "t": 112914.86000000051,
      "d": 249.5619791666686,
      "v": 99
    },
    {
      "midi": 60,
      "hit": false,
      "t": 112914.86000000051,
      "d": 253.9021875000035,
      "v": 109
    },
    {
      "midi": 64,
      "hit": false,
      "t": 112914.86000000051,
      "d": 260.4125000000058,
      "v": 99
    },
    {
      "midi": 60,
      "hit": false,
      "t": 113331.52000000051,
      "d": 75.9536458333314,
      "v": 113
    },
    {
      "midi": 48,
      "hit": false,
      "t": 113331.52000000051,
      "d": 82.46395833333372,
      "v": 127
    },
    {
      "midi": 55,
      "hit": false,
      "t": 113331.52000000051,
      "d": 82.46395833333372,
      "v": 103
    },
    {
      "midi": 64,
      "hit": false,
      "t": 113331.52000000051,
      "d": 106.33510416666104,
      "v": 101
    },
    {
      "midi": 48,
      "hit": false,
      "t": 113539.8500000005,
      "d": 75.9536458333314,
      "v": 127
    },
    {
      "midi": 60,
      "hit": false,
      "t": 113539.8500000005,
      "d": 84.63406250000116,
      "v": 109
    },
    {
      "midi": 55,
      "hit": false,
      "t": 113539.8500000005,
      "d": 86.8041666666686,
      "v": 99
    },
    {
      "midi": 64,
      "hit": false,
      "t": 113539.8500000005,
      "d": 104.16500000000815,
      "v": 98
    },
    {
      "midi": 48,
      "hit": false,
      "t": 113748.1800000005,
      "d": 71.61343749999651,
      "v": 127
    },
    {
      "midi": 60,
      "hit": false,
      "t": 113748.1800000005,
      "d": 78.12374999999884,
      "v": 109
    },
    {
      "midi": 55,
      "hit": false,
      "t": 113748.1800000005,
      "d": 82.46395833333372,
      "v": 98
    },
    {
      "midi": 64,
      "hit": false,
      "t": 113748.1800000005,
      "d": 95.48458333333838,
      "v": 99
    },
    {
      "midi": 60,
      "hit": false,
      "t": 113956.5100000005,
      "d": 857.1911458333343,
      "v": 122
    },
    {
      "midi": 48,
      "hit": false,
      "t": 113956.5100000005,
      "d": 865.8715625000041,
      "v": 127
    },
    {
      "midi": 55,
      "hit": false,
      "t": 113956.5100000005,
      "d": 872.3818750000064,
      "v": 114
    },
    {
      "midi": 64,
      "hit": false,
      "t": 113956.5100000005,
      "d": 894.0829166666663,
      "v": 110
    },
    {
      "midi": 65,
      "hit": false,
      "t": 114998.1600000005,
      "d": 88.97427083333605,
      "v": 109
    },
    {
      "midi": 60,
      "hit": false,
      "t": 114998.1600000005,
      "d": 95.48458333333838,
      "v": 92
    },
    {
      "midi": 69,
      "hit": false,
      "t": 114998.1600000005,
      "d": 110.67531250001048,
      "v": 101
    },
    {
      "midi": 57,
      "hit": false,
      "t": 115206.49000000051,
      "d": 60.762916666673846,
      "v": 95
    },
    {
      "midi": 53,
      "hit": false,
      "t": 115206.49000000051,
      "d": 69.44333333334362,
      "v": 102
    },
    {
      "midi": 65,
      "hit": false,
      "t": 115414.82000000053,
      "d": 58.5928125000064,
      "v": 113
    },
    {
      "midi": 60,
      "hit": false,
      "t": 115414.82000000053,
      "d": 60.762916666673846,
      "v": 94
    },
    {
      "midi": 69,
      "hit": false,
      "t": 115414.82000000053,
      "d": 71.61343750001106,
      "v": 96
    },
    {
      "midi": 57,
      "hit": false,
      "t": 115623.15000000055,
      "d": 47.74229166666919,
      "v": 88
    },
    {
      "midi": 53,
      "hit": false,
      "t": 115623.15000000055,
      "d": 58.5928125000064,
      "v": 99
    },
    {
      "midi": 60,
      "hit": false,
      "t": 115831.48000000055,
      "d": 60.762916666673846,
      "v": 84
    },
    {
      "midi": 65,
      "hit": false,
      "t": 115831.48000000055,
      "d": 60.762916666673846,
      "v": 105
    },
    {
      "midi": 69,
      "hit": false,
      "t": 115831.48000000055,
      "d": 69.44333333334362,
      "v": 88
    },
    {
      "midi": 65,
      "hit": false,
      "t": 116039.81000000057,
      "d": 60.762916666673846,
      "v": 94
    },
    {
      "midi": 60,
      "hit": false,
      "t": 116039.81000000057,
      "d": 73.7835416666785,
      "v": 81
    },
    {
      "midi": 69,
      "hit": false,
      "t": 116039.81000000057,
      "d": 78.12375000001339,
      "v": 91
    },
    {
      "midi": 53,
      "hit": false,
      "t": 116248.14000000058,
      "d": 60.762916666673846,
      "v": 102
    },
    {
      "midi": 57,
      "hit": false,
      "t": 116248.14000000058,
      "d": 60.762916666673846,
      "v": 103
    },
    {
      "midi": 65,
      "hit": false,
      "t": 116456.47000000058,
      "d": 49.91239583333663,
      "v": 105
    },
    {
      "midi": 60,
      "hit": false,
      "t": 116456.47000000058,
      "d": 67.27322916667617,
      "v": 92
    },
    {
      "midi": 69,
      "hit": false,
      "t": 116456.47000000058,
      "d": 71.61343750001106,
      "v": 92
    },
    {
      "midi": 57,
      "hit": false,
      "t": 116664.8000000006,
      "d": 60.762916666673846,
      "v": 75
    },
    {
      "midi": 53,
      "hit": false,
      "t": 116664.8000000006,
      "d": 69.44333333334362,
      "v": 64
    },
    {
      "midi": 65,
      "hit": false,
      "t": 117081.4600000006,
      "d": 43.4020833333343,
      "v": 90
    },
    {
      "midi": 60,
      "hit": false,
      "t": 117081.4600000006,
      "d": 58.5928125000064,
      "v": 84
    },
    {
      "midi": 69,
      "hit": false,
      "t": 117081.4600000006,
      "d": 58.5928125000064,
      "v": 88
    },
    {
      "midi": 60,
      "hit": false,
      "t": 117289.7900000006,
      "d": 401.4692708333314,
      "v": 94
    },
    {
      "midi": 69,
      "hit": false,
      "t": 117289.7900000006,
      "d": 401.4692708333314,
      "v": 99
    },
    {
      "midi": 65,
      "hit": false,
      "t": 117289.7900000006,
      "d": 407.9795833333337,
      "v": 102
    },
    {
      "midi": 57,
      "hit": false,
      "t": 117706.45000000061,
      "d": 56.42270833333896,
      "v": 107
    },
    {
      "midi": 53,
      "hit": false,
      "t": 117706.45000000061,
      "d": 69.44333333334362,
      "v": 109
    },
    {
      "midi": 65,
      "hit": false,
      "t": 117914.78000000062,
      "d": 54.25260416667152,
      "v": 102
    },
    {
      "midi": 60,
      "hit": false,
      "t": 117914.78000000062,
      "d": 78.12374999999884,
      "v": 88
    },
    {
      "midi": 69,
      "hit": false,
      "t": 117914.78000000062,
      "d": 88.97427083333605,
      "v": 93
    },
    {
      "midi": 57,
      "hit": false,
      "t": 118123.11000000063,
      "d": 49.91239583333663,
      "v": 107
    },
    {
      "midi": 53,
      "hit": false,
      "t": 118123.11000000063,
      "d": 80.29385416666628,
      "v": 117
    },
    {
      "midi": 57,
      "hit": false,
      "t": 118539.77000000063,
      "d": 54.25260416667152,
      "v": 105
    },
    {
      "midi": 53,
      "hit": false,
      "t": 118539.77000000063,
      "d": 69.44333333334362,
      "v": 105
    },
    {
      "midi": 65,
      "hit": false,
      "t": 118748.10000000065,
      "d": 56.42270833333896,
      "v": 97
    },
    {
      "midi": 60,
      "hit": false,
      "t": 118748.10000000065,
      "d": 60.762916666673846,
      "v": 88
    },
    {
      "midi": 69,
      "hit": false,
      "t": 118748.10000000065,
      "d": 93.31447916667094,
      "v": 98
    },
    {
      "midi": 57,
      "hit": false,
      "t": 118956.43000000065,
      "d": 54.25260416667152,
      "v": 93
    },
    {
      "midi": 53,
      "hit": false,
      "t": 118956.43000000065,
      "d": 65.10312500000873,
      "v": 99
    },
    {
      "midi": 65,
      "hit": false,
      "t": 119164.76000000065,
      "d": 54.25260416667152,
      "v": 94
    },
    {
      "midi": 60,
      "hit": false,
      "t": 119164.76000000065,
      "d": 65.10312500000873,
      "v": 90
    },
    {
      "midi": 69,
      "hit": false,
      "t": 119164.76000000065,
      "d": 80.29385416668083,
      "v": 91
    },
    {
      "midi": 60,
      "hit": false,
      "t": 119373.09000000067,
      "d": 60.762916666673846,
      "v": 90
    },
    {
      "midi": 65,
      "hit": false,
      "t": 119373.09000000067,
      "d": 62.93302083334129,
      "v": 105
    },
    {
      "midi": 69,
      "hit": false,
      "t": 119373.09000000067,
      "d": 69.44333333334362,
      "v": 93
    },
    {
      "midi": 57,
      "hit": false,
      "t": 119581.42000000068,
      "d": 60.762916666673846,
      "v": 112
    },
    {
      "midi": 53,
      "hit": false,
      "t": 119581.42000000068,
      "d": 86.8041666666686,
      "v": 109
    },
    {
      "midi": 60,
      "hit": false,
      "t": 119789.75000000068,
      "d": 34.72166666666453,
      "v": 67
    },
    {
      "midi": 65,
      "hit": false,
      "t": 119998.08000000069,
      "d": 52.082500000004075,
      "v": 109
    },
    {
      "midi": 60,
      "hit": false,
      "t": 119998.08000000069,
      "d": 60.762916666673846,
      "v": 94
    },
    {
      "midi": 69,
      "hit": false,
      "t": 119998.08000000069,
      "d": 73.7835416666785,
      "v": 99
    },
    {
      "midi": 65,
      "hit": false,
      "t": 120206.4100000007,
      "d": 49.91239583333663,
      "v": 109
    },
    {
      "midi": 60,
      "hit": false,
      "t": 120206.4100000007,
      "d": 60.762916666673846,
      "v": 94
    },
    {
      "midi": 69,
      "hit": false,
      "t": 120206.4100000007,
      "d": 73.7835416666785,
      "v": 101
    },
    {
      "midi": 65,
      "hit": false,
      "t": 120623.07000000072,
      "d": 460.0620833333378,
      "v": 117
    },
    {
      "midi": 60,
      "hit": false,
      "t": 120623.07000000072,
      "d": 464.4022916666727,
      "v": 102
    },
    {
      "midi": 69,
      "hit": false,
      "t": 120623.07000000072,
      "d": 494.7837500000023,
      "v": 110
    },
    {
      "midi": 57,
      "hit": false,
      "t": 121039.73000000072,
      "d": 71.61343749999651,
      "v": 99
    },
    {
      "midi": 53,
      "hit": false,
      "t": 121039.73000000072,
      "d": 80.29385416666628,
      "v": 94
    },
    {
      "midi": 60,
      "hit": false,
      "t": 121248.06000000073,
      "d": 84.63406250000116,
      "v": 84
    },
    {
      "midi": 69,
      "hit": false,
      "t": 121248.06000000073,
      "d": 93.31447916667094,
      "v": 92
    },
    {
      "midi": 65,
      "hit": false,
      "t": 121248.06000000073,
      "d": 112.84541666667792,
      "v": 113
    },
    {
      "midi": 65,
      "hit": false,
      "t": 121664.72000000074,
      "d": 93.31447916667094,
      "v": 81
    },
    {
      "midi": 70,
      "hit": false,
      "t": 121664.72000000074,
      "d": 97.65468750000582,
      "v": 84
    },
    {
      "midi": 62,
      "hit": false,
      "t": 121664.72000000074,
      "d": 112.84541666667792,
      "v": 80
    },
    {
      "midi": 65,
      "hit": false,
      "t": 122081.38000000076,
      "d": 65.10312499999418,
      "v": 102
    },
    {
      "midi": 62,
      "hit": false,
      "t": 122081.38000000076,
      "d": 84.63406250000116,
      "v": 91
    },
    {
      "midi": 70,
      "hit": false,
      "t": 122081.38000000076,
      "d": 95.48458333333838,
      "v": 109
    },
    {
      "midi": 46,
      "hit": false,
      "t": 122289.71000000076,
      "d": 82.46395833333372,
      "v": 109
    },
    {
      "midi": 65,
      "hit": false,
      "t": 122498.04000000076,
      "d": 60.762916666673846,
      "v": 97
    },
    {
      "midi": 70,
      "hit": false,
      "t": 122498.04000000076,
      "d": 62.93302083334129,
      "v": 102
    },
    {
      "midi": 62,
      "hit": false,
      "t": 122498.04000000076,
      "d": 73.7835416666785,
      "v": 83
    },
    {
      "midi": 65,
      "hit": false,
      "t": 122706.37000000078,
      "d": 56.42270833333896,
      "v": 105
    },
    {
      "midi": 62,
      "hit": false,
      "t": 122706.37000000078,
      "d": 78.12374999999884,
      "v": 89
    },
    {
      "midi": 70,
      "hit": false,
      "t": 122706.37000000078,
      "d": 78.12374999999884,
      "v": 105
    },
    {
      "midi": 46,
      "hit": false,
      "t": 122914.70000000078,
      "d": 86.8041666666686,
      "v": 122
    },
    {
      "midi": 62,
      "hit": false,
      "t": 123123.03000000078,
      "d": 62.93302083332674,
      "v": 81
    },
    {
      "midi": 70,
      "hit": false,
      "t": 123123.03000000078,
      "d": 62.93302083332674,
      "v": 86
    },
    {
      "midi": 65,
      "hit": false,
      "t": 123123.03000000078,
      "d": 69.44333333332906,
      "v": 94
    },
    {
      "midi": 65,
      "hit": false,
      "t": 123331.36000000079,
      "d": 119.3557291666657,
      "v": 102
    },
    {
      "midi": 70,
      "hit": false,
      "t": 123331.36000000079,
      "d": 141.05677083332557,
      "v": 105
    },
    {
      "midi": 62,
      "hit": false,
      "t": 123331.36000000079,
      "d": 151.9072916666628,
      "v": 89
    },
    {
      "midi": 46,
      "hit": false,
      "t": 123539.69000000079,
      "d": 88.97427083333605,
      "v": 117
    },
    {
      "midi": 70,
      "hit": false,
      "t": 123748.02000000079,
      "d": 56.42270833333896,
      "v": 94
    },
    {
      "midi": 65,
      "hit": false,
      "t": 123748.02000000079,
      "d": 60.762916666673846,
      "v": 102
    },
    {
      "midi": 62,
      "hit": false,
      "t": 123748.02000000079,
      "d": 69.44333333334362,
      "v": 82
    },
    {
      "midi": 65,
      "hit": false,
      "t": 123956.3500000008,
      "d": 503.4641666666721,
      "v": 109
    },
    {
      "midi": 70,
      "hit": false,
      "t": 123956.3500000008,
      "d": 507.804375000007,
      "v": 113
    },
    {
      "midi": 62,
      "hit": false,
      "t": 123956.3500000008,
      "d": 516.4847916666768,
      "v": 96
    },
    {
      "midi": 46,
      "hit": false,
      "t": 124373.01000000081,
      "d": 99.82479166667326,
      "v": 117
    },
    {
      "midi": 70,
      "hit": false,
      "t": 124581.34000000081,
      "d": 121.52583333333314,
      "v": 117
    },
    {
      "midi": 62,
      "hit": false,
      "t": 124581.34000000081,
      "d": 123.69593750000058,
      "v": 95
    },
    {
      "midi": 65,
      "hit": false,
      "t": 124581.34000000081,
      "d": 130.2062500000029,
      "v": 105
    },
    {
      "midi": 60,
      "hit": false,
      "t": 124998.00000000081,
      "d": 145.39697916666046,
      "v": 70
    },
    {
      "midi": 65,
      "hit": false,
      "t": 124998.00000000081,
      "d": 149.73718749999534,
      "v": 70
    },
    {
      "midi": 69,
      "hit": false,
      "t": 124998.00000000081,
      "d": 149.73718749999534,
      "v": 83
    },
    {
      "midi": 53,
      "hit": false,
      "t": 125206.33000000082,
      "d": 71.61343749999651,
      "v": 94
    },
    {
      "midi": 57,
      "hit": false,
      "t": 125206.33000000082,
      "d": 75.9536458333314,
      "v": 96
    },
    {
      "midi": 60,
      "hit": false,
      "t": 125414.66000000082,
      "d": 67.27322916666162,
      "v": 81
    },
    {
      "midi": 65,
      "hit": false,
      "t": 125414.66000000082,
      "d": 71.61343749999651,
      "v": 94
    },
    {
      "midi": 69,
      "hit": false,
      "t": 125414.66000000082,
      "d": 91.14437500000349,
      "v": 89
    },
    {
      "midi": 57,
      "hit": false,
      "t": 125622.99000000082,
      "d": 73.78354166666395,
      "v": 96
    },
    {
      "midi": 53,
      "hit": false,
      "t": 125622.99000000082,
      "d": 78.12374999999884,
      "v": 97
    },
    {
      "midi": 65,
      "hit": false,
      "t": 125831.32000000082,
      "d": 60.762916666673846,
      "v": 92
    },
    {
      "midi": 60,
      "hit": false,
      "t": 125831.32000000082,
      "d": 69.44333333334362,
      "v": 86
    },
    {
      "midi": 69,
      "hit": false,
      "t": 125831.32000000082,
      "d": 78.12375000001339,
      "v": 89
    },
    {
      "midi": 65,
      "hit": false,
      "t": 126039.65000000084,
      "d": 95.48458333333838,
      "v": 86
    },
    {
      "midi": 60,
      "hit": false,
      "t": 126039.65000000084,
      "d": 106.33510416667559,
      "v": 82
    },
    {
      "midi": 69,
      "hit": false,
      "t": 126039.65000000084,
      "d": 121.52583333334769,
      "v": 89
    },
    {
      "midi": 57,
      "hit": false,
      "t": 126247.98000000085,
      "d": 67.27322916666162,
      "v": 110
    },
    {
      "midi": 53,
      "hit": false,
      "t": 126247.98000000085,
      "d": 88.9742708333215,
      "v": 109
    },
    {
      "midi": 65,
      "hit": false,
      "t": 126456.31000000084,
      "d": 54.25260416667152,
      "v": 88
    },
    {
      "midi": 60,
      "hit": false,
      "t": 126456.31000000084,
      "d": 58.5928125000064,
      "v": 77
    },
    {
      "midi": 69,
      "hit": false,
      "t": 126456.31000000084,
      "d": 62.93302083334129,
      "v": 83
    },
    {
      "midi": 60,
      "hit": false,
      "t": 126664.64000000084,
      "d": 112.84541666666337,
      "v": 94
    },
    {
      "midi": 65,
      "hit": false,
      "t": 126664.64000000084,
      "d": 112.84541666666337,
      "v": 109
    },
    {
      "midi": 69,
      "hit": false,
      "t": 126664.64000000084,
      "d": 121.52583333333314,
      "v": 101
    },
    {
      "midi": 57,
      "hit": false,
      "t": 126872.97000000085,
      "d": 62.93302083332674,
      "v": 110
    },
    {
      "midi": 53,
      "hit": false,
      "t": 126872.97000000085,
      "d": 86.80416666665406,
      "v": 109
    },
    {
      "midi": 60,
      "hit": false,
      "t": 127081.30000000083,
      "d": 54.25260416667152,
      "v": 86
    },
    {
      "midi": 65,
      "hit": false,
      "t": 127081.30000000083,
      "d": 54.25260416667152,
      "v": 94
    },
    {
      "midi": 69,
      "hit": false,
      "t": 127081.30000000083,
      "d": 69.44333333334362,
      "v": 92
    },
    {
      "midi": 60,
      "hit": false,
      "t": 127289.63000000085,
      "d": 779.0673958333355,
      "v": 105
    },
    {
      "midi": 65,
      "hit": false,
      "t": 127289.63000000085,
      "d": 787.7478125000052,
      "v": 117
    },
    {
      "midi": 69,
      "hit": false,
      "t": 127289.63000000085,
      "d": 811.6189583333326,
      "v": 110
    },
    {
      "midi": 56,
      "hit": false,
      "t": 128331.28000000084,
      "d": 91.14437500000349,
      "v": 127
    },
    {
      "midi": 68,
      "hit": false,
      "t": 128331.28000000084,
      "d": 95.48458333333838,
      "v": 113
    },
    {
      "midi": 63,
      "hit": false,
      "t": 128331.28000000084,
      "d": 104.16500000000815,
      "v": 105
    },
    {
      "midi": 72,
      "hit": false,
      "t": 128331.28000000084,
      "d": 112.84541666667792,
      "v": 105
    },
    {
      "midi": 68,
      "hit": false,
      "t": 128539.61000000086,
      "d": 112.84541666666337,
      "v": 94
    },
    {
      "midi": 72,
      "hit": false,
      "t": 128539.61000000086,
      "d": 121.52583333333314,
      "v": 90
    },
    {
      "midi": 63,
      "hit": false,
      "t": 128539.61000000086,
      "d": 125.86604166666802,
      "v": 90
    },
    {
      "midi": 56,
      "hit": false,
      "t": 128539.61000000086,
      "d": 175.77843750000466,
      "v": 109
    },
    {
      "midi": 63,
      "hit": false,
      "t": 128747.94000000086,
      "d": 279.94343749999825,
      "v": 82
    },
    {
      "midi": 72,
      "hit": false,
      "t": 128747.94000000086,
      "d": 284.28364583333314,
      "v": 90
    },
    {
      "midi": 68,
      "hit": false,
      "t": 128747.94000000086,
      "d": 290.79395833333547,
      "v": 90
    },
    {
      "midi": 55,
      "hit": false,
      "t": 128747.94000000086,
      "d": 345.046562500007,
      "v": 126
    },
    {
      "midi": 68,
      "hit": false,
      "t": 129164.60000000086,
      "d": 93.31447916667094,
      "v": 105
    },
    {
      "midi": 53,
      "hit": false,
      "t": 129164.60000000086,
      "d": 95.48458333333838,
      "v": 122
    },
    {
      "midi": 63,
      "hit": false,
      "t": 129164.60000000086,
      "d": 95.48458333333838,
      "v": 94
    },
    {
      "midi": 72,
      "hit": false,
      "t": 129164.60000000086,
      "d": 112.84541666667792,
      "v": 92
    },
    {
      "midi": 53,
      "hit": false,
      "t": 129372.93000000088,
      "d": 104.1649999999936,
      "v": 109
    },
    {
      "midi": 63,
      "hit": false,
      "t": 129372.93000000088,
      "d": 104.1649999999936,
      "v": 90
    },
    {
      "midi": 68,
      "hit": false,
      "t": 129372.93000000088,
      "d": 104.1649999999936,
      "v": 97
    },
    {
      "midi": 72,
      "hit": false,
      "t": 129372.93000000088,
      "d": 112.84541666666337,
      "v": 90
    },
    {
      "midi": 68,
      "hit": false,
      "t": 129581.26000000088,
      "d": 145.39697916666046,
      "v": 105
    },
    {
      "midi": 63,
      "hit": false,
      "t": 129581.26000000088,
      "d": 184.45885416665988,
      "v": 88
    },
    {
      "midi": 72,
      "hit": false,
      "t": 129581.26000000088,
      "d": 264.75270833332615,
      "v": 99
    },
    {
      "midi": 51,
      "hit": false,
      "t": 129581.26000000088,
      "d": 310.3248958333279,
      "v": 122
    },
    {
      "midi": 65,
      "hit": false,
      "t": 129997.92000000087,
      "d": 112.84541666666337,
      "v": 88
    },
    {
      "midi": 73,
      "hit": false,
      "t": 129997.92000000087,
      "d": 112.84541666666337,
      "v": 94
    },
    {
      "midi": 68,
      "hit": false,
      "t": 129997.92000000087,
      "d": 115.01552083333081,
      "v": 98
    },
    {
      "midi": 49,
      "hit": false,
      "t": 129997.92000000087,
      "d": 141.05677083332557,
      "v": 127
    },
    {
      "midi": 49,
      "hit": false,
      "t": 130206.25000000086,
      "d": 319.0053124999977,
      "v": 122
    },
    {
      "midi": 65,
      "hit": false,
      "t": 130206.25000000086,
      "d": 325.515625,
      "v": 88
    },
    {
      "midi": 68,
      "hit": false,
      "t": 130206.25000000086,
      "d": 325.515625,
      "v": 105
    },
    {
      "midi": 73,
      "hit": false,
      "t": 130206.25000000086,
      "d": 329.8558333333349,
      "v": 97
    },
    {
      "midi": 66,
      "hit": false,
      "t": 130622.91000000086,
      "d": 314.6651041666628,
      "v": 84
    },
    {
      "midi": 70,
      "hit": false,
      "t": 130622.91000000086,
      "d": 314.6651041666628,
      "v": 98
    },
    {
      "midi": 51,
      "hit": false,
      "t": 130622.91000000086,
      "d": 319.0053124999977,
      "v": 127
    },
    {
      "midi": 75,
      "hit": false,
      "t": 130622.91000000086,
      "d": 319.0053124999977,
      "v": 110
    },
    {
      "midi": 49,
      "hit": false,
      "t": 131039.57000000087,
      "d": 1814.2070833333273,
      "v": 127
    },
    {
      "midi": 68,
      "hit": false,
      "t": 131039.57000000087,
      "d": 1846.758645833339,
      "v": 110
    },
    {
      "midi": 65,
      "hit": false,
      "t": 131039.57000000087,
      "d": 1853.2689583333413,
      "v": 93
    },
    {
      "midi": 73,
      "hit": false,
      "t": 131039.57000000087,
      "d": 1864.1194791666785,
      "v": 105
    },
    {
      "midi": 65,
      "hit": false,
      "t": 133331.20000000088,
      "d": 295.1341666666558,
      "v": 93
    },
    {
      "midi": 56,
      "hit": false,
      "t": 133331.20000000088,
      "d": 303.8145833333256,
      "v": 86
    },
    {
      "midi": 61,
      "hit": false,
      "t": 133331.20000000088,
      "d": 316.83520833333023,
      "v": 92
    },
    {
      "midi": 49,
      "hit": false,
      "t": 133331.20000000088,
      "d": 425.34041666667326,
      "v": 92
    },
    {
      "midi": 37,
      "hit": false,
      "t": 133331.20000000088,
      "d": 434.02083333334303,
      "v": 90
    },
    {
      "midi": 56,
      "hit": false,
      "t": 133747.8600000009,
      "d": 221.35062500002095,
      "v": 92
    },
    {
      "midi": 65,
      "hit": false,
      "t": 133747.8600000009,
      "d": 240.88156250002794,
      "v": 99
    },
    {
      "midi": 61,
      "hit": false,
      "t": 133747.8600000009,
      "d": 256.07229166670004,
      "v": 102
    },
    {
      "midi": 49,
      "hit": false,
      "t": 133956.1900000009,
      "d": 182.28875000000698,
      "v": 84
    },
    {
      "midi": 37,
      "hit": false,
      "t": 133956.1900000009,
      "d": 208.3300000000163,
      "v": 84
    },
    {
      "midi": 56,
      "hit": false,
      "t": 134164.52000000092,
      "d": 277.77333333331626,
      "v": 84
    },
    {
      "midi": 61,
      "hit": false,
      "t": 134164.52000000092,
      "d": 286.45374999998603,
      "v": 99
    },
    {
      "midi": 65,
      "hit": false,
      "t": 134164.52000000092,
      "d": 301.64447916665813,
      "v": 96
    },
    {
      "midi": 37,
      "hit": false,
      "t": 134372.8500000009,
      "d": 143.22687499999302,
      "v": 79
    },
    {
      "midi": 49,
      "hit": false,
      "t": 134372.8500000009,
      "d": 143.22687499999302,
      "v": 84
    },
    {
      "midi": 65,
      "hit": false,
      "t": 134581.1800000009,
      "d": 158.41760416666511,
      "v": 98
    },
    {
      "midi": 56,
      "hit": false,
      "t": 134581.1800000009,
      "d": 186.62895833334187,
      "v": 90
    },
    {
      "midi": 61,
      "hit": false,
      "t": 134581.1800000009,
      "d": 243.05166666666628,
      "v": 109
    },
    {
      "midi": 66,
      "hit": false,
      "t": 134997.8400000009,
      "d": 52.08249999998952,
      "v": 92
    },
    {
      "midi": 61,
      "hit": false,
      "t": 134997.8400000009,
      "d": 104.16499999997905,
      "v": 94
    },
    {
      "midi": 58,
      "hit": false,
      "t": 134997.8400000009,
      "d": 112.84541666664882,
      "v": 92
    },
    {
      "midi": 66,
      "hit": false,
      "t": 135206.1700000009,
      "d": 184.45885416667443,
      "v": 117
    },
    {
      "midi": 58,
      "hit": false,
      "t": 135206.1700000009,
      "d": 199.64958333334653,
      "v": 88
    },
    {
      "midi": 61,
      "hit": false,
      "t": 135206.1700000009,
      "d": 219.1805208333535,
      "v": 99
    },
    {
      "midi": 56,
      "hit": false,
      "t": 135622.83000000092,
      "d": 477.4229166666628,
      "v": 84
    },
    {
      "midi": 65,
      "hit": false,
      "t": 135622.83000000092,
      "d": 477.4229166666628,
      "v": 89
    },
    {
      "midi": 61,
      "hit": false,
      "t": 135622.83000000092,
      "d": 488.2734375,
      "v": 99
    },
    {
      "midi": 49,
      "hit": false,
      "t": 136039.49000000092,
      "d": 78.12374999999884,
      "v": 92
    },
    {
      "midi": 37,
      "hit": false,
      "t": 136039.49000000092,
      "d": 104.16500000000815,
      "v": 97
    },
    {
      "midi": 80,
      "hit": false,
      "t": 136039.49000000092,
      "d": 594.6085416667047,
      "v": 102
    },
    {
      "midi": 61,
      "hit": false,
      "t": 136247.82000000094,
      "d": 104.16500000000815,
      "v": 94
    },
    {
      "midi": 56,
      "hit": false,
      "t": 136247.82000000094,
      "d": 119.35572916668025,
      "v": 82
    },
    {
      "midi": 65,
      "hit": false,
      "t": 136247.82000000094,
      "d": 123.69593750001513,
      "v": 88
    },
    {
      "midi": 73,
      "hit": false,
      "t": 136247.82000000094,
      "d": 416.6600000000326,
      "v": 113
    },
    {
      "midi": 49,
      "hit": false,
      "t": 136456.15000000095,
      "d": 58.59281249999185,
      "v": 86
    },
    {
      "midi": 37,
      "hit": false,
      "t": 136456.15000000095,
      "d": 71.61343749999651,
      "v": 94
    },
    {
      "midi": 56,
      "hit": false,
      "t": 136664.48000000097,
      "d": 279.9434375000128,
      "v": 88
    },
    {
      "midi": 60,
      "hit": false,
      "t": 136664.48000000097,
      "d": 286.45375000001513,
      "v": 99
    },
    {
      "midi": 63,
      "hit": false,
      "t": 136664.48000000097,
      "d": 295.1341666666849,
      "v": 88
    },
    {
      "midi": 51,
      "hit": false,
      "t": 136664.48000000097,
      "d": 442.7012500000419,
      "v": 80
    },
    {
      "midi": 44,
      "hit": false,
      "t": 136664.48000000097,
      "d": 449.21156250004424,
      "v": 88
    },
    {
      "midi": 56,
      "hit": false,
      "t": 137081.140000001,
      "d": 245.22177083336283,
      "v": 92
    },
    {
      "midi": 63,
      "hit": false,
      "t": 137081.140000001,
      "d": 249.5619791666977,
      "v": 96
    },
    {
      "midi": 60,
      "hit": false,
      "t": 137081.140000001,
      "d": 251.73208333336515,
      "v": 107
    },
    {
      "midi": 51,
      "hit": false,
      "t": 137289.47000000102,
      "d": 97.65468750000582,
      "v": 79
    },
    {
      "midi": 44,
      "hit": false,
      "t": 137289.47000000102,
      "d": 130.20625000001746,
      "v": 84
    },
    {
      "midi": 60,
      "hit": false,
      "t": 137497.80000000104,
      "d": 95.48458333333838,
      "v": 105
    },
    {
      "midi": 63,
      "hit": false,
      "t": 137497.80000000104,
      "d": 99.82479166667326,
      "v": 92
    },
    {
      "midi": 56,
      "hit": false,
      "t": 137497.80000000104,
      "d": 104.16500000000815,
      "v": 84
    },
    {
      "midi": 56,
      "hit": false,
      "t": 137706.13000000105,
      "d": 282.11354166665114,
      "v": 86
    },
    {
      "midi": 63,
      "hit": false,
      "t": 137706.13000000105,
      "d": 286.45374999998603,
      "v": 96
    },
    {
      "midi": 60,
      "hit": false,
      "t": 137706.13000000105,
      "d": 295.1341666666558,
      "v": 103
    },
    {
      "midi": 44,
      "hit": false,
      "t": 137914.46000000104,
      "d": 258.2423958333384,
      "v": 102
    },
    {
      "midi": 51,
      "hit": false,
      "t": 137914.46000000104,
      "d": 277.77333333334536,
      "v": 84
    },
    {
      "midi": 60,
      "hit": false,
      "t": 138122.79000000106,
      "d": 88.97427083333605,
      "v": 101
    },
    {
      "midi": 63,
      "hit": false,
      "t": 138122.79000000106,
      "d": 104.16500000000815,
      "v": 91
    },
    {
      "midi": 56,
      "hit": false,
      "t": 138122.79000000106,
      "d": 117.1856250000128,
      "v": 90
    },
    {
      "midi": 51,
      "hit": false,
      "t": 138331.12000000107,
      "d": 78.12374999999884,
      "v": 77
    },
    {
      "midi": 39,
      "hit": false,
      "t": 138331.12000000107,
      "d": 82.46395833333372,
      "v": 88
    },
    {
      "midi": 58,
      "hit": false,
      "t": 138331.12000000107,
      "d": 93.31447916667094,
      "v": 92
    },
    {
      "midi": 55,
      "hit": false,
      "t": 138331.12000000107,
      "d": 104.16500000000815,
      "v": 92
    },
    {
      "midi": 63,
      "hit": false,
      "t": 138331.12000000107,
      "d": 121.52583333334769,
      "v": 91
    },
    {
      "midi": 75,
      "hit": false,
      "t": 138331.12000000107,
      "d": 525.1652083333465,
      "v": 120
    },
    {
      "midi": 55,
      "hit": false,
      "t": 138539.4500000011,
      "d": 243.05166666666628,
      "v": 93
    },
    {
      "midi": 58,
      "hit": false,
      "t": 138539.4500000011,
      "d": 243.05166666666628,
      "v": 99
    },
    {
      "midi": 39,
      "hit": false,
      "t": 138539.4500000011,
      "d": 251.73208333333605,
      "v": 99
    },
    {
      "midi": 63,
      "hit": false,
      "t": 138539.4500000011,
      "d": 251.73208333333605,
      "v": 98
    },
    {
      "midi": 51,
      "hit": false,
      "t": 138539.4500000011,
      "d": 260.4125000000058,
      "v": 95
    },
    {
      "midi": 63,
      "hit": false,
      "t": 138956.1100000011,
      "d": 345.046562500007,
      "v": 98
    },
    {
      "midi": 54,
      "hit": false,
      "t": 138956.1100000011,
      "d": 358.06718750001164,
      "v": 102
    },
    {
      "midi": 60,
      "hit": false,
      "t": 138956.1100000011,
      "d": 358.06718750001164,
      "v": 107
    },
    {
      "midi": 44,
      "hit": false,
      "t": 138956.1100000011,
      "d": 483.9332291666651,
      "v": 99
    },
    {
      "midi": 51,
      "hit": false,
      "t": 138956.1100000011,
      "d": 488.2734375,
      "v": 82
    },
    {
      "midi": 80,
      "hit": false,
      "t": 138956.1100000011,
      "d": 941.82520833335,
      "v": 127
    },
    {
      "midi": 54,
      "hit": false,
      "t": 139372.7700000011,
      "d": 240.88156249999884,
      "v": 94
    },
    {
      "midi": 60,
      "hit": false,
      "t": 139372.7700000011,
      "d": 251.73208333333605,
      "v": 112
    },
    {
      "midi": 63,
      "hit": false,
      "t": 139372.7700000011,
      "d": 251.73208333333605,
      "v": 101
    },
    {
      "midi": 44,
      "hit": false,
      "t": 139581.10000000108,
      "d": 188.79906250003842,
      "v": 105
    },
    {
      "midi": 51,
      "hit": false,
      "t": 139581.10000000108,
      "d": 188.79906250003842,
      "v": 95
    },
    {
      "midi": 65,
      "hit": false,
      "t": 139997.76000000112,
      "d": 295.1341666666558,
      "v": 93
    },
    {
      "midi": 56,
      "hit": false,
      "t": 139997.76000000112,
      "d": 303.8145833333256,
      "v": 86
    },
    {
      "midi": 61,
      "hit": false,
      "t": 139997.76000000112,
      "d": 316.83520833333023,
      "v": 92
    },
    {
      "midi": 49,
      "hit": false,
      "t": 139997.76000000112,
      "d": 425.34041666667326,
      "v": 92
    },
    {
      "midi": 37,
      "hit": false,
      "t": 139997.76000000112,
      "d": 434.02083333334303,
      "v": 90
    },
    {
      "midi": 56,
      "hit": false,
      "t": 140414.42000000112,
      "d": 221.35062500002095,
      "v": 92
    },
    {
      "midi": 65,
      "hit": false,
      "t": 140414.42000000112,
      "d": 240.88156250002794,
      "v": 99
    },
    {
      "midi": 61,
      "hit": false,
      "t": 140414.42000000112,
      "d": 256.07229166670004,
      "v": 102
    },
    {
      "midi": 49,
      "hit": false,
      "t": 140622.75000000114,
      "d": 182.28875000000698,
      "v": 84
    },
    {
      "midi": 37,
      "hit": false,
      "t": 140622.75000000114,
      "d": 208.3300000000163,
      "v": 84
    },
    {
      "midi": 56,
      "hit": false,
      "t": 140831.08000000115,
      "d": 277.77333333331626,
      "v": 84
    },
    {
      "midi": 61,
      "hit": false,
      "t": 140831.08000000115,
      "d": 286.45374999998603,
      "v": 99
    },
    {
      "midi": 65,
      "hit": false,
      "t": 140831.08000000115,
      "d": 301.64447916665813,
      "v": 96
    },
    {
      "midi": 37,
      "hit": false,
      "t": 141039.41000000114,
      "d": 143.22687499999302,
      "v": 79
    },
    {
      "midi": 49,
      "hit": false,
      "t": 141039.41000000114,
      "d": 143.22687499999302,
      "v": 84
    },
    {
      "midi": 65,
      "hit": false,
      "t": 141247.74000000113,
      "d": 158.41760416666511,
      "v": 98
    },
    {
      "midi": 56,
      "hit": false,
      "t": 141247.74000000113,
      "d": 186.62895833334187,
      "v": 90
    },
    {
      "midi": 61,
      "hit": false,
      "t": 141247.74000000113,
      "d": 243.05166666666628,
      "v": 109
    },
    {
      "midi": 66,
      "hit": false,
      "t": 141664.40000000113,
      "d": 52.08249999998952,
      "v": 92
    },
    {
      "midi": 61,
      "hit": false,
      "t": 141664.40000000113,
      "d": 104.16499999997905,
      "v": 94
    },
    {
      "midi": 58,
      "hit": false,
      "t": 141664.40000000113,
      "d": 112.84541666664882,
      "v": 92
    },
    {
      "midi": 66,
      "hit": false,
      "t": 141872.73000000112,
      "d": 184.45885416667443,
      "v": 117
    },
    {
      "midi": 58,
      "hit": false,
      "t": 141872.73000000112,
      "d": 199.64958333334653,
      "v": 88
    },
    {
      "midi": 61,
      "hit": false,
      "t": 141872.73000000112,
      "d": 219.1805208333535,
      "v": 99
    },
    {
      "midi": 56,
      "hit": false,
      "t": 142289.39000000115,
      "d": 477.4229166666628,
      "v": 84
    },
    {
      "midi": 65,
      "hit": false,
      "t": 142289.39000000115,
      "d": 477.4229166666628,
      "v": 89
    },
    {
      "midi": 61,
      "hit": false,
      "t": 142289.39000000115,
      "d": 488.2734375,
      "v": 99
    },
    {
      "midi": 49,
      "hit": false,
      "t": 142706.05000000115,
      "d": 78.12374999999884,
      "v": 92
    },
    {
      "midi": 37,
      "hit": false,
      "t": 142706.05000000115,
      "d": 104.16500000000815,
      "v": 97
    },
    {
      "midi": 80,
      "hit": false,
      "t": 142706.05000000115,
      "d": 594.6085416667047,
      "v": 102
    },
    {
      "midi": 61,
      "hit": false,
      "t": 142914.38000000117,
      "d": 104.16500000000815,
      "v": 94
    },
    {
      "midi": 56,
      "hit": false,
      "t": 142914.38000000117,
      "d": 119.35572916668025,
      "v": 82
    },
    {
      "midi": 65,
      "hit": false,
      "t": 142914.38000000117,
      "d": 123.69593750001513,
      "v": 88
    },
    {
      "midi": 73,
      "hit": false,
      "t": 142914.38000000117,
      "d": 416.6600000000326,
      "v": 113
    },
    {
      "midi": 49,
      "hit": false,
      "t": 143122.71000000119,
      "d": 58.59281249999185,
      "v": 86
    },
    {
      "midi": 37,
      "hit": false,
      "t": 143122.71000000119,
      "d": 71.61343749999651,
      "v": 94
    },
    {
      "midi": 56,
      "hit": false,
      "t": 143331.0400000012,
      "d": 279.9434375000128,
      "v": 88
    },
    {
      "midi": 60,
      "hit": false,
      "t": 143331.0400000012,
      "d": 286.45375000001513,
      "v": 99
    },
    {
      "midi": 63,
      "hit": false,
      "t": 143331.0400000012,
      "d": 295.1341666666849,
      "v": 88
    },
    {
      "midi": 51,
      "hit": false,
      "t": 143331.0400000012,
      "d": 442.7012500000419,
      "v": 80
    },
    {
      "midi": 44,
      "hit": false,
      "t": 143331.0400000012,
      "d": 449.21156250004424,
      "v": 88
    },
    {
      "midi": 56,
      "hit": false,
      "t": 143747.70000000123,
      "d": 245.22177083336283,
      "v": 92
    },
    {
      "midi": 63,
      "hit": false,
      "t": 143747.70000000123,
      "d": 249.5619791666977,
      "v": 96
    },
    {
      "midi": 60,
      "hit": false,
      "t": 143747.70000000123,
      "d": 251.73208333336515,
      "v": 107
    },
    {
      "midi": 51,
      "hit": false,
      "t": 143956.03000000125,
      "d": 97.65468750000582,
      "v": 79
    },
    {
      "midi": 44,
      "hit": false,
      "t": 143956.03000000125,
      "d": 130.20625000001746,
      "v": 84
    },
    {
      "midi": 60,
      "hit": false,
      "t": 144164.36000000127,
      "d": 95.48458333333838,
      "v": 105
    },
    {
      "midi": 63,
      "hit": false,
      "t": 144164.36000000127,
      "d": 99.82479166667326,
      "v": 92
    },
    {
      "midi": 56,
      "hit": false,
      "t": 144164.36000000127,
      "d": 104.16500000000815,
      "v": 84
    },
    {
      "midi": 56,
      "hit": false,
      "t": 144372.69000000128,
      "d": 282.11354166665114,
      "v": 86
    },
    {
      "midi": 63,
      "hit": false,
      "t": 144372.69000000128,
      "d": 286.45374999998603,
      "v": 96
    },
    {
      "midi": 60,
      "hit": false,
      "t": 144372.69000000128,
      "d": 295.1341666666558,
      "v": 103
    },
    {
      "midi": 44,
      "hit": false,
      "t": 144581.02000000127,
      "d": 258.2423958333384,
      "v": 102
    },
    {
      "midi": 51,
      "hit": false,
      "t": 144581.02000000127,
      "d": 277.77333333334536,
      "v": 84
    },
    {
      "midi": 60,
      "hit": false,
      "t": 144789.3500000013,
      "d": 88.97427083333605,
      "v": 101
    },
    {
      "midi": 63,
      "hit": false,
      "t": 144789.3500000013,
      "d": 104.16500000000815,
      "v": 91
    },
    {
      "midi": 56,
      "hit": false,
      "t": 144789.3500000013,
      "d": 117.1856250000128,
      "v": 90
    },
    {
      "midi": 51,
      "hit": false,
      "t": 144997.6800000013,
      "d": 78.12374999999884,
      "v": 77
    },
    {
      "midi": 39,
      "hit": false,
      "t": 144997.6800000013,
      "d": 82.46395833333372,
      "v": 88
    },
    {
      "midi": 58,
      "hit": false,
      "t": 144997.6800000013,
      "d": 93.31447916667094,
      "v": 92
    },
    {
      "midi": 55,
      "hit": false,
      "t": 144997.6800000013,
      "d": 104.16500000000815,
      "v": 92
    },
    {
      "midi": 63,
      "hit": false,
      "t": 144997.6800000013,
      "d": 121.52583333334769,
      "v": 91
    },
    {
      "midi": 75,
      "hit": false,
      "t": 144997.6800000013,
      "d": 525.1652083333465,
      "v": 120
    },
    {
      "midi": 55,
      "hit": false,
      "t": 145206.01000000132,
      "d": 243.05166666666628,
      "v": 93
    },
    {
      "midi": 58,
      "hit": false,
      "t": 145206.01000000132,
      "d": 243.05166666666628,
      "v": 99
    },
    {
      "midi": 39,
      "hit": false,
      "t": 145206.01000000132,
      "d": 251.73208333333605,
      "v": 99
    },
    {
      "midi": 63,
      "hit": false,
      "t": 145206.01000000132,
      "d": 251.73208333333605,
      "v": 98
    },
    {
      "midi": 51,
      "hit": false,
      "t": 145206.01000000132,
      "d": 260.4125000000058,
      "v": 95
    },
    {
      "midi": 63,
      "hit": false,
      "t": 145622.67000000132,
      "d": 345.046562500007,
      "v": 98
    },
    {
      "midi": 54,
      "hit": false,
      "t": 145622.67000000132,
      "d": 358.06718750001164,
      "v": 102
    },
    {
      "midi": 60,
      "hit": false,
      "t": 145622.67000000132,
      "d": 358.06718750001164,
      "v": 107
    },
    {
      "midi": 44,
      "hit": false,
      "t": 145622.67000000132,
      "d": 483.9332291666651,
      "v": 99
    },
    {
      "midi": 51,
      "hit": false,
      "t": 145622.67000000132,
      "d": 488.2734375,
      "v": 82
    },
    {
      "midi": 80,
      "hit": false,
      "t": 145622.67000000132,
      "d": 941.82520833335,
      "v": 127
    },
    {
      "midi": 54,
      "hit": false,
      "t": 146039.33000000133,
      "d": 240.88156249999884,
      "v": 94
    },
    {
      "midi": 60,
      "hit": false,
      "t": 146039.33000000133,
      "d": 251.73208333333605,
      "v": 112
    },
    {
      "midi": 63,
      "hit": false,
      "t": 146039.33000000133,
      "d": 251.73208333333605,
      "v": 101
    },
    {
      "midi": 44,
      "hit": false,
      "t": 146247.6600000013,
      "d": 188.79906250003842,
      "v": 105
    },
    {
      "midi": 51,
      "hit": false,
      "t": 146247.6600000013,
      "d": 188.79906250003842,
      "v": 95
    },
    {
      "midi": 65,
      "hit": false,
      "t": 146664.32000000135,
      "d": 295.1341666666558,
      "v": 93
    },
    {
      "midi": 56,
      "hit": false,
      "t": 146664.32000000135,
      "d": 303.8145833333256,
      "v": 86
    },
    {
      "midi": 61,
      "hit": false,
      "t": 146664.32000000135,
      "d": 316.83520833333023,
      "v": 92
    },
    {
      "midi": 49,
      "hit": false,
      "t": 146664.32000000135,
      "d": 425.34041666667326,
      "v": 92
    },
    {
      "midi": 37,
      "hit": false,
      "t": 146664.32000000135,
      "d": 434.02083333334303,
      "v": 90
    },
    {
      "midi": 56,
      "hit": false,
      "t": 147080.98000000135,
      "d": 221.35062500002095,
      "v": 92
    },
    {
      "midi": 65,
      "hit": false,
      "t": 147080.98000000135,
      "d": 240.88156250002794,
      "v": 99
    },
    {
      "midi": 61,
      "hit": false,
      "t": 147080.98000000135,
      "d": 256.07229166670004,
      "v": 102
    },
    {
      "midi": 49,
      "hit": false,
      "t": 147289.31000000137,
      "d": 182.28875000000698,
      "v": 84
    },
    {
      "midi": 37,
      "hit": false,
      "t": 147289.31000000137,
      "d": 208.3300000000163,
      "v": 84
    },
    {
      "midi": 56,
      "hit": false,
      "t": 147497.64000000138,
      "d": 277.77333333331626,
      "v": 84
    },
    {
      "midi": 61,
      "hit": false,
      "t": 147497.64000000138,
      "d": 286.45374999998603,
      "v": 99
    },
    {
      "midi": 65,
      "hit": false,
      "t": 147497.64000000138,
      "d": 301.64447916665813,
      "v": 96
    },
    {
      "midi": 37,
      "hit": false,
      "t": 147705.97000000137,
      "d": 143.22687499999302,
      "v": 79
    },
    {
      "midi": 49,
      "hit": false,
      "t": 147705.97000000137,
      "d": 143.22687499999302,
      "v": 84
    },
    {
      "midi": 65,
      "hit": false,
      "t": 147914.30000000136,
      "d": 158.41760416666511,
      "v": 98
    },
    {
      "midi": 56,
      "hit": false,
      "t": 147914.30000000136,
      "d": 186.62895833334187,
      "v": 90
    },
    {
      "midi": 61,
      "hit": false,
      "t": 147914.30000000136,
      "d": 243.05166666666628,
      "v": 109
    },
    {
      "midi": 66,
      "hit": false,
      "t": 148330.96000000136,
      "d": 52.08249999998952,
      "v": 92
    },
    {
      "midi": 61,
      "hit": false,
      "t": 148330.96000000136,
      "d": 104.16499999997905,
      "v": 94
    },
    {
      "midi": 58,
      "hit": false,
      "t": 148330.96000000136,
      "d": 112.84541666664882,
      "v": 92
    },
    {
      "midi": 66,
      "hit": false,
      "t": 148539.29000000135,
      "d": 184.45885416667443,
      "v": 117
    },
    {
      "midi": 58,
      "hit": false,
      "t": 148539.29000000135,
      "d": 199.64958333334653,
      "v": 88
    },
    {
      "midi": 61,
      "hit": false,
      "t": 148539.29000000135,
      "d": 219.1805208333535,
      "v": 99
    },
    {
      "midi": 56,
      "hit": false,
      "t": 148955.95000000138,
      "d": 477.4229166666628,
      "v": 84
    },
    {
      "midi": 65,
      "hit": false,
      "t": 148955.95000000138,
      "d": 477.4229166666628,
      "v": 89
    },
    {
      "midi": 61,
      "hit": false,
      "t": 148955.95000000138,
      "d": 488.2734375,
      "v": 99
    },
    {
      "midi": 49,
      "hit": false,
      "t": 149372.61000000138,
      "d": 78.12374999999884,
      "v": 92
    },
    {
      "midi": 37,
      "hit": false,
      "t": 149372.61000000138,
      "d": 104.16500000000815,
      "v": 97
    },
    {
      "midi": 80,
      "hit": false,
      "t": 149372.61000000138,
      "d": 594.6085416667047,
      "v": 102
    },
    {
      "midi": 61,
      "hit": false,
      "t": 149580.9400000014,
      "d": 104.16500000000815,
      "v": 94
    },
    {
      "midi": 56,
      "hit": false,
      "t": 149580.9400000014,
      "d": 119.35572916668025,
      "v": 82
    },
    {
      "midi": 65,
      "hit": false,
      "t": 149580.9400000014,
      "d": 123.69593750001513,
      "v": 88
    },
    {
      "midi": 73,
      "hit": false,
      "t": 149580.9400000014,
      "d": 416.6600000000326,
      "v": 113
    },
    {
      "midi": 49,
      "hit": false,
      "t": 149789.27000000142,
      "d": 58.59281249999185,
      "v": 86
    },
    {
      "midi": 37,
      "hit": false,
      "t": 149789.27000000142,
      "d": 71.61343749999651,
      "v": 94
    },
    {
      "midi": 56,
      "hit": false,
      "t": 149997.60000000143,
      "d": 279.9434375000128,
      "v": 88
    },
    {
      "midi": 60,
      "hit": false,
      "t": 149997.60000000143,
      "d": 286.45375000001513,
      "v": 99
    },
    {
      "midi": 63,
      "hit": false,
      "t": 149997.60000000143,
      "d": 295.1341666666849,
      "v": 88
    },
    {
      "midi": 51,
      "hit": false,
      "t": 149997.60000000143,
      "d": 442.7012500000419,
      "v": 80
    },
    {
      "midi": 44,
      "hit": false,
      "t": 149997.60000000143,
      "d": 449.21156250004424,
      "v": 88
    },
    {
      "midi": 56,
      "hit": false,
      "t": 150414.26000000146,
      "d": 245.22177083336283,
      "v": 92
    },
    {
      "midi": 63,
      "hit": false,
      "t": 150414.26000000146,
      "d": 249.5619791666977,
      "v": 96
    },
    {
      "midi": 60,
      "hit": false,
      "t": 150414.26000000146,
      "d": 251.73208333336515,
      "v": 107
    },
    {
      "midi": 51,
      "hit": false,
      "t": 150622.59000000148,
      "d": 97.65468750000582,
      "v": 79
    },
    {
      "midi": 44,
      "hit": false,
      "t": 150622.59000000148,
      "d": 130.20625000001746,
      "v": 84
    },
    {
      "midi": 60,
      "hit": false,
      "t": 150830.9200000015,
      "d": 95.48458333333838,
      "v": 105
    },
    {
      "midi": 63,
      "hit": false,
      "t": 150830.9200000015,
      "d": 99.82479166667326,
      "v": 92
    },
    {
      "midi": 56,
      "hit": false,
      "t": 150830.9200000015,
      "d": 104.16500000000815,
      "v": 84
    },
    {
      "midi": 56,
      "hit": false,
      "t": 151039.2500000015,
      "d": 282.11354166665114,
      "v": 86
    },
    {
      "midi": 63,
      "hit": false,
      "t": 151039.2500000015,
      "d": 286.45374999998603,
      "v": 96
    },
    {
      "midi": 60,
      "hit": false,
      "t": 151039.2500000015,
      "d": 295.1341666666558,
      "v": 103
    },
    {
      "midi": 44,
      "hit": false,
      "t": 151247.5800000015,
      "d": 258.2423958333384,
      "v": 102
    },
    {
      "midi": 51,
      "hit": false,
      "t": 151247.5800000015,
      "d": 277.77333333334536,
      "v": 84
    },
    {
      "midi": 60,
      "hit": false,
      "t": 151455.91000000152,
      "d": 88.97427083333605,
      "v": 101
    },
    {
      "midi": 63,
      "hit": false,
      "t": 151455.91000000152,
      "d": 104.16500000000815,
      "v": 91
    },
    {
      "midi": 56,
      "hit": false,
      "t": 151455.91000000152,
      "d": 117.1856250000128,
      "v": 90
    },
    {
      "midi": 51,
      "hit": false,
      "t": 151664.24000000153,
      "d": 78.12374999999884,
      "v": 77
    },
    {
      "midi": 39,
      "hit": false,
      "t": 151664.24000000153,
      "d": 82.46395833333372,
      "v": 88
    },
    {
      "midi": 58,
      "hit": false,
      "t": 151664.24000000153,
      "d": 93.31447916667094,
      "v": 92
    },
    {
      "midi": 55,
      "hit": false,
      "t": 151664.24000000153,
      "d": 104.16500000000815,
      "v": 92
    },
    {
      "midi": 63,
      "hit": false,
      "t": 151664.24000000153,
      "d": 121.52583333334769,
      "v": 91
    },
    {
      "midi": 75,
      "hit": false,
      "t": 151664.24000000153,
      "d": 525.1652083333465,
      "v": 120
    },
    {
      "midi": 55,
      "hit": false,
      "t": 151872.57000000155,
      "d": 243.05166666666628,
      "v": 93
    },
    {
      "midi": 58,
      "hit": false,
      "t": 151872.57000000155,
      "d": 243.05166666666628,
      "v": 99
    },
    {
      "midi": 39,
      "hit": false,
      "t": 151872.57000000155,
      "d": 251.73208333333605,
      "v": 99
    },
    {
      "midi": 63,
      "hit": false,
      "t": 151872.57000000155,
      "d": 251.73208333333605,
      "v": 98
    },
    {
      "midi": 51,
      "hit": false,
      "t": 151872.57000000155,
      "d": 260.4125000000058,
      "v": 95
    },
    {
      "midi": 44,
      "hit": false,
      "t": 152289.23000000155,
      "d": 138.88666666665813,
      "v": 99
    },
    {
      "midi": 51,
      "hit": false,
      "t": 152289.23000000155,
      "d": 138.88666666665813,
      "v": 82
    },
    {
      "midi": 54,
      "hit": false,
      "t": 152289.23000000155,
      "d": 138.88666666665813,
      "v": 102
    },
    {
      "midi": 60,
      "hit": false,
      "t": 152289.23000000155,
      "d": 138.88666666665813,
      "v": 107
    },
    {
      "midi": 63,
      "hit": false,
      "t": 152289.23000000155,
      "d": 138.88666666665813,
      "v": 98
    },
    {
      "midi": 80,
      "hit": false,
      "t": 152289.23000000155,
      "d": 138.88666666665813,
      "v": 127
    }
  ]
}