{
  "jsonPath": "Unknown/Unknown/Edvard Hagerup Grieg/ases-death.json",
  "path": "Unknown\\Unknown\\Edvard Hagerup Grieg\\Ases Death.mid",
  "name": "Ases Death",
  "difficulty": "Advanced",
  "bpm": 75,
  "notes": [
    {
      "midi": 50,
      "hit": false,
      "t": 0,
      "d": 800,
      "v": 70
    },
    {
      "midi": 54,
      "hit": false,
      "t": 0,
      "d": 800,
      "v": 70
    },
    {
      "midi": 35,
      "hit": false,
      "t": 0,
      "d": 800,
      "v": 66
    },
    {
      "midi": 47,
      "hit": false,
      "t": 0,
      "d": 800,
      "v": 66
    },
    {
      "midi": 54,
      "hit": false,
      "t": 800,
      "d": 800,
      "v": 80
    },
    {
      "midi": 59,
      "hit": false,
      "t": 800,
      "d": 800,
      "v": 80
    },
    {
      "midi": 38,
      "hit": false,
      "t": 800,
      "d": 800,
      "v": 77
    },
    {
      "midi": 47,
      "hit": false,
      "t": 800,
      "d": 800,
      "v": 77
    },
    {
      "midi": 54,
      "hit": false,
      "t": 1600,
      "d": 1600,
      "v": 84
    },
    {
      "midi": 58,
      "hit": false,
      "t": 1600,
      "d": 1600,
      "v": 84
    },
    {
      "midi": 61,
      "hit": false,
      "t": 1600,
      "d": 1600,
      "v": 84
    },
    {
      "midi": 42,
      "hit": false,
      "t": 1600,
      "d": 1600,
      "v": 76
    },
    {
      "midi": 49,
      "hit": false,
      "t": 1600,
      "d": 1600,
      "v": 76
    },
    {
      "midi": 50,
      "hit": false,
      "t": 3200,
      "d": 800,
      "v": 68
    },
    {
      "midi": 54,
      "hit": false,
      "t": 3200,
      "d": 800,
      "v": 68
    },
    {
      "midi": 35,
      "hit": false,
      "t": 3200,
      "d": 800,
      "v": 75
    },
    {
      "midi": 47,
      "hit": false,
      "t": 3200,
      "d": 800,
      "v": 75
    },
    {
      "midi": 54,
      "hit": false,
      "t": 4000,
      "d": 800,
      "v": 82
    },
    {
      "midi": 59,
      "hit": false,
      "t": 4000,
      "d": 800,
      "v": 82
    },
    {
      "midi": 38,
      "hit": false,
      "t": 4000,
      "d": 800,
      "v": 77
    },
    {
      "midi": 47,
      "hit": false,
      "t": 4000,
      "d": 800,
      "v": 77
    },
    {
      "midi": 54,
      "hit": false,
      "t": 4800,
      "d": 1600,
      "v": 81
    },
    {
      "midi": 58,
      "hit": false,
      "t": 4800,
      "d": 1600,
      "v": 81
    },
    {
      "midi": 61,
      "hit": false,
      "t": 4800,
      "d": 1600,
      "v": 81
    },
    {
      "midi": 42,
      "hit": false,
      "t": 4800,
      "d": 1600,
      "v": 80
    },
    {
      "midi": 49,
      "hit": false,
      "t": 4800,
      "d": 1600,
      "v": 80
    },
    {
      "midi": 50,
      "hit": false,
      "t": 6400,
      "d": 800,
      "v": 70
    },
    {
      "midi": 62,
      "hit": false,
      "t": 6400,
      "d": 800,
      "v": 78
    },
    {
      "midi": 35,
      "hit": false,
      "t": 6400,
      "d": 800,
      "v": 75
    },
    {
      "midi": 47,
      "hit": false,
      "t": 6400,
      "d": 800,
      "v": 75
    },
    {
      "midi": 52,
      "hit": false,
      "t": 7200,
      "d": 400,
      "v": 77
    },
    {
      "midi": 61,
      "hit": false,
      "t": 7200,
      "d": 400,
      "v": 73
    },
    {
      "midi": 37,
      "hit": false,
      "t": 7200,
      "d": 400,
      "v": 73
    },
    {
      "midi": 54,
      "hit": false,
      "t": 7600,
      "d": 400,
      "v": 77
    },
    {
      "midi": 38,
      "hit": false,
      "t": 7600,
      "d": 400,
      "v": 76
    },
    {
      "midi": 55,
      "hit": false,
      "t": 8000,
      "d": 800,
      "v": 77
    },
    {
      "midi": 59,
      "hit": false,
      "t": 8000,
      "d": 800,
      "v": 78
    },
    {
      "midi": 40,
      "hit": false,
      "t": 8000,
      "d": 800,
      "v": 78
    },
    {
      "midi": 47,
      "hit": false,
      "t": 8000,
      "d": 800,
      "v": 76
    },
    {
      "midi": 54,
      "hit": false,
      "t": 8800,
      "d": 400,
      "v": 73
    },
    {
      "midi": 61,
      "hit": false,
      "t": 8800,
      "d": 400,
      "v": 77
    },
    {
      "midi": 38,
      "hit": false,
      "t": 8800,
      "d": 800,
      "v": 73
    },
    {
      "midi": 62,
      "hit": false,
      "t": 9200,
      "d": 400,
      "v": 82
    },
    {
      "midi": 52,
      "hit": false,
      "t": 9600,
      "d": 800,
      "v": 72
    },
    {
      "midi": 64,
      "hit": false,
      "t": 9600,
      "d": 800,
      "v": 82
    },
    {
      "midi": 37,
      "hit": false,
      "t": 9600,
      "d": 800,
      "v": 72
    },
    {
      "midi": 47,
      "hit": false,
      "t": 9600,
      "d": 800,
      "v": 77
    },
    {
      "midi": 54,
      "hit": false,
      "t": 10400,
      "d": 400,
      "v": 79
    },
    {
      "midi": 62,
      "hit": false,
      "t": 10400,
      "d": 400,
      "v": 69
    },
    {
      "midi": 38,
      "hit": false,
      "t": 10400,
      "d": 400,
      "v": 79
    },
    {
      "midi": 56,
      "hit": false,
      "t": 10800,
      "d": 400,
      "v": 78
    },
    {
      "midi": 40,
      "hit": false,
      "t": 10800,
      "d": 400,
      "v": 79
    },
    {
      "midi": 58,
      "hit": false,
      "t": 11200,
      "d": 1200,
      "v": 82
    },
    {
      "midi": 61,
      "hit": false,
      "t": 11200,
      "d": 1200,
      "v": 68
    },
    {
      "midi": 42,
      "hit": false,
      "t": 11200,
      "d": 1200,
      "v": 80
    },
    {
      "midi": 49,
      "hit": false,
      "t": 11200,
      "d": 1200,
      "v": 79
    },
    {
      "midi": 50,
      "hit": false,
      "t": 12800,
      "d": 800,
      "v": 69
    },
    {
      "midi": 54,
      "hit": false,
      "t": 12800,
      "d": 800,
      "v": 69
    },
    {
      "midi": 35,
      "hit": false,
      "t": 12800,
      "d": 800,
      "v": 62
    },
    {
      "midi": 47,
      "hit": false,
      "t": 12800,
      "d": 800,
      "v": 62
    },
    {
      "midi": 54,
      "hit": false,
      "t": 13600,
      "d": 800,
      "v": 80
    },
    {
      "midi": 59,
      "hit": false,
      "t": 13600,
      "d": 800,
      "v": 80
    },
    {
      "midi": 38,
      "hit": false,
      "t": 13600,
      "d": 800,
      "v": 76
    },
    {
      "midi": 47,
      "hit": false,
      "t": 13600,
      "d": 800,
      "v": 76
    },
    {
      "midi": 53,
      "hit": false,
      "t": 14400,
      "d": 1600,
      "v": 84
    },
    {
      "midi": 59,
      "hit": false,
      "t": 14400,
      "d": 1600,
      "v": 84
    },
    {
      "midi": 61,
      "hit": false,
      "t": 14400,
      "d": 1600,
      "v": 84
    },
    {
      "midi": 43,
      "hit": false,
      "t": 14400,
      "d": 1600,
      "v": 75
    },
    {
      "midi": 49,
      "hit": false,
      "t": 14400,
      "d": 1600,
      "v": 75
    },
    {
      "midi": 50,
      "hit": false,
      "t": 16000,
      "d": 800,
      "v": 72
    },
    {
      "midi": 54,
      "hit": false,
      "t": 16000,
      "d": 800,
      "v": 72
    },
    {
      "midi": 35,
      "hit": false,
      "t": 16000,
      "d": 800,
      "v": 78
    },
    {
      "midi": 47,
      "hit": false,
      "t": 16000,
      "d": 800,
      "v": 78
    },
    {
      "midi": 54,
      "hit": false,
      "t": 16800,
      "d": 800,
      "v": 82
    },
    {
      "midi": 59,
      "hit": false,
      "t": 16800,
      "d": 800,
      "v": 82
    },
    {
      "midi": 38,
      "hit": false,
      "t": 16800,
      "d": 800,
      "v": 75
    },
    {
      "midi": 47,
      "hit": false,
      "t": 16800,
      "d": 800,
      "v": 75
    },
    {
      "midi": 53,
      "hit": false,
      "t": 17600,
      "d": 1600,
      "v": 82
    },
    {
      "midi": 59,
      "hit": false,
      "t": 17600,
      "d": 1600,
      "v": 100
    },
    {
      "midi": 61,
      "hit": false,
      "t": 17600,
      "d": 1600,
      "v": 82
    },
    {
      "midi": 43,
      "hit": false,
      "t": 17600,
      "d": 1600,
      "v": 81
    },
    {
      "midi": 49,
      "hit": false,
      "t": 17600,
      "d": 1600,
      "v": 81
    },
    {
      "midi": 52,
      "hit": false,
      "t": 19200,
      "d": 800,
      "v": 69
    },
    {
      "midi": 59,
      "hit": false,
      "t": 19200,
      "d": 800,
      "v": 82
    },
    {
      "midi": 64,
      "hit": false,
      "t": 19200,
      "d": 800,
      "v": 82
    },
    {
      "midi": 37,
      "hit": false,
      "t": 19200,
      "d": 800,
      "v": 69
    },
    {
      "midi": 54,
      "hit": false,
      "t": 20000,
      "d": 400,
      "v": 76
    },
    {
      "midi": 59,
      "hit": false,
      "t": 20000,
      "d": 400,
      "v": 75
    },
    {
      "midi": 62,
      "hit": false,
      "t": 20000,
      "d": 400,
      "v": 75
    },
    {
      "midi": 38,
      "hit": false,
      "t": 20000,
      "d": 400,
      "v": 75
    },
    {
      "midi": 56,
      "hit": false,
      "t": 20400,
      "d": 400,
      "v": 81
    },
    {
      "midi": 40,
      "hit": false,
      "t": 20400,
      "d": 400,
      "v": 83
    },
    {
      "midi": 58,
      "hit": false,
      "t": 20800,
      "d": 800,
      "v": 77
    },
    {
      "midi": 61,
      "hit": false,
      "t": 20800,
      "d": 800,
      "v": 68
    },
    {
      "midi": 42,
      "hit": false,
      "t": 20800,
      "d": 800,
      "v": 82
    },
    {
      "midi": 56,
      "hit": false,
      "t": 21600,
      "d": 400,
      "v": 75
    },
    {
      "midi": 59,
      "hit": false,
      "t": 21600,
      "d": 400,
      "v": 76
    },
    {
      "midi": 62,
      "hit": false,
      "t": 21600,
      "d": 400,
      "v": 76
    },
    {
      "midi": 40,
      "hit": false,
      "t": 21600,
      "d": 800,
      "v": 77
    },
    {
      "midi": 55,
      "hit": false,
      "t": 22000,
      "d": 400,
      "v": 72
    },
    {
      "midi": 61,
      "hit": false,
      "t": 22000,
      "d": 400,
      "v": 80
    },
    {
      "midi": 64,
      "hit": false,
      "t": 22000,
      "d": 400,
      "v": 80
    },
    {
      "midi": 54,
      "hit": false,
      "t": 22400,
      "d": 400,
      "v": 77
    },
    {
      "midi": 58,
      "hit": false,
      "t": 22400,
      "d": 400,
      "v": 69
    },
    {
      "midi": 38,
      "hit": false,
      "t": 22400,
      "d": 400,
      "v": 75
    },
    {
      "midi": 52,
      "hit": false,
      "t": 22800,
      "d": 400,
      "v": 73
    },
    {
      "midi": 37,
      "hit": false,
      "t": 22800,
      "d": 400,
      "v": 76
    },
    {
      "midi": 50,
      "hit": false,
      "t": 23200,
      "d": 1600,
      "v": 79
    },
    {
      "midi": 54,
      "hit": false,
      "t": 23200,
      "d": 1600,
      "v": 79
    },
    {
      "midi": 59,
      "hit": false,
      "t": 23200,
      "d": 1600,
      "v": 77
    },
    {
      "midi": 35,
      "hit": false,
      "t": 23200,
      "d": 1600,
      "v": 81
    },
    {
      "midi": 57,
      "hit": false,
      "t": 25600,
      "d": 800,
      "v": 68
    },
    {
      "midi": 61,
      "hit": false,
      "t": 25600,
      "d": 800,
      "v": 68
    },
    {
      "midi": 42,
      "hit": false,
      "t": 25600,
      "d": 800,
      "v": 72
    },
    {
      "midi": 54,
      "hit": false,
      "t": 25600,
      "d": 800,
      "v": 72
    },
    {
      "midi": 61,
      "hit": false,
      "t": 26400,
      "d": 800,
      "v": 89
    },
    {
      "midi": 66,
      "hit": false,
      "t": 26400,
      "d": 800,
      "v": 89
    },
    {
      "midi": 45,
      "hit": false,
      "t": 26400,
      "d": 800,
      "v": 83
    },
    {
      "midi": 54,
      "hit": false,
      "t": 26400,
      "d": 800,
      "v": 83
    },
    {
      "midi": 61,
      "hit": false,
      "t": 27200,
      "d": 1600,
      "v": 84
    },
    {
      "midi": 65,
      "hit": false,
      "t": 27200,
      "d": 1600,
      "v": 84
    },
    {
      "midi": 68,
      "hit": false,
      "t": 27200,
      "d": 1600,
      "v": 84
    },
    {
      "midi": 49,
      "hit": false,
      "t": 27200,
      "d": 1600,
      "v": 80
    },
    {
      "midi": 56,
      "hit": false,
      "t": 27200,
      "d": 1600,
      "v": 80
    },
    {
      "midi": 57,
      "hit": false,
      "t": 28800,
      "d": 800,
      "v": 63
    },
    {
      "midi": 61,
      "hit": false,
      "t": 28800,
      "d": 800,
      "v": 63
    },
    {
      "midi": 42,
      "hit": false,
      "t": 28800,
      "d": 800,
      "v": 76
    },
    {
      "midi": 54,
      "hit": false,
      "t": 28800,
      "d": 800,
      "v": 76
    },
    {
      "midi": 61,
      "hit": false,
      "t": 29600,
      "d": 800,
      "v": 85
    },
    {
      "midi": 66,
      "hit": false,
      "t": 29600,
      "d": 800,
      "v": 85
    },
    {
      "midi": 45,
      "hit": false,
      "t": 29600,
      "d": 800,
      "v": 72
    },
    {
      "midi": 54,
      "hit": false,
      "t": 29600,
      "d": 800,
      "v": 72
    },
    {
      "midi": 61,
      "hit": false,
      "t": 30400,
      "d": 1600,
      "v": 86
    },
    {
      "midi": 65,
      "hit": false,
      "t": 30400,
      "d": 1600,
      "v": 86
    },
    {
      "midi": 68,
      "hit": false,
      "t": 30400,
      "d": 1600,
      "v": 86
    },
    {
      "midi": 49,
      "hit": false,
      "t": 30400,
      "d": 1600,
      "v": 76
    },
    {
      "midi": 56,
      "hit": false,
      "t": 30400,
      "d": 1600,
      "v": 76
    },
    {
      "midi": 57,
      "hit": false,
      "t": 32000,
      "d": 800,
      "v": 70
    },
    {
      "midi": 69,
      "hit": false,
      "t": 32000,
      "d": 800,
      "v": 81
    },
    {
      "midi": 42,
      "hit": false,
      "t": 32000,
      "d": 800,
      "v": 69
    },
    {
      "midi": 54,
      "hit": false,
      "t": 32000,
      "d": 800,
      "v": 76
    },
    {
      "midi": 59,
      "hit": false,
      "t": 32800,
      "d": 400,
      "v": 74
    },
    {
      "midi": 68,
      "hit": false,
      "t": 32800,
      "d": 400,
      "v": 73
    },
    {
      "midi": 44,
      "hit": false,
      "t": 32800,
      "d": 400,
      "v": 77
    },
    {
      "midi": 61,
      "hit": false,
      "t": 33200,
      "d": 400,
      "v": 84
    },
    {
      "midi": 45,
      "hit": false,
      "t": 33200,
      "d": 400,
      "v": 78
    },
    {
      "midi": 62,
      "hit": false,
      "t": 33600,
      "d": 800,
      "v": 80
    },
    {
      "midi": 66,
      "hit": false,
      "t": 33600,
      "d": 800,
      "v": 72
    },
    {
      "midi": 47,
      "hit": false,
      "t": 33600,
      "d": 800,
      "v": 78
    },
    {
      "midi": 54,
      "hit": false,
      "t": 33600,
      "d": 800,
      "v": 71
    },
    {
      "midi": 61,
      "hit": false,
      "t": 34400,
      "d": 400,
      "v": 69
    },
    {
      "midi": 68,
      "hit": false,
      "t": 34400,
      "d": 400,
      "v": 85
    },
    {
      "midi": 45,
      "hit": false,
      "t": 34400,
      "d": 800,
      "v": 73
    },
    {
      "midi": 69,
      "hit": false,
      "t": 34800,
      "d": 400,
      "v": 77
    },
    {
      "midi": 59,
      "hit": false,
      "t": 35200,
      "d": 800,
      "v": 74
    },
    {
      "midi": 71,
      "hit": false,
      "t": 35200,
      "d": 800,
      "v": 84
    },
    {
      "midi": 44,
      "hit": false,
      "t": 35200,
      "d": 800,
      "v": 73
    },
    {
      "midi": 54,
      "hit": false,
      "t": 35200,
      "d": 800,
      "v": 79
    },
    {
      "midi": 61,
      "hit": false,
      "t": 36000,
      "d": 400,
      "v": 84
    },
    {
      "midi": 69,
      "hit": false,
      "t": 36000,
      "d": 400,
      "v": 72
    },
    {
      "midi": 45,
      "hit": false,
      "t": 36000,
      "d": 400,
      "v": 76
    },
    {
      "midi": 63,
      "hit": false,
      "t": 36400,
      "d": 400,
      "v": 79
    },
    {
      "midi": 47,
      "hit": false,
      "t": 36400,
      "d": 400,
      "v": 79
    },
    {
      "midi": 65,
      "hit": false,
      "t": 36800,
      "d": 1200,
      "v": 81
    },
    {
      "midi": 68,
      "hit": false,
      "t": 36800,
      "d": 1200,
      "v": 72
    },
    {
      "midi": 49,
      "hit": false,
      "t": 36800,
      "d": 1200,
      "v": 77
    },
    {
      "midi": 56,
      "hit": false,
      "t": 36800,
      "d": 1200,
      "v": 81
    },
    {
      "midi": 57,
      "hit": false,
      "t": 38400,
      "d": 800,
      "v": 68
    },
    {
      "midi": 61,
      "hit": false,
      "t": 38400,
      "d": 800,
      "v": 100
    },
    {
      "midi": 42,
      "hit": false,
      "t": 38400,
      "d": 800,
      "v": 70
    },
    {
      "midi": 54,
      "hit": false,
      "t": 38400,
      "d": 800,
      "v": 70
    },
    {
      "midi": 61,
      "hit": false,
      "t": 39200,
      "d": 800,
      "v": 91
    },
    {
      "midi": 66,
      "hit": false,
      "t": 39200,
      "d": 800,
      "v": 91
    },
    {
      "midi": 45,
      "hit": false,
      "t": 39200,
      "d": 800,
      "v": 81
    },
    {
      "midi": 54,
      "hit": false,
      "t": 39200,
      "d": 800,
      "v": 81
    },
    {
      "midi": 60,
      "hit": false,
      "t": 40000,
      "d": 1600,
      "v": 85
    },
    {
      "midi": 66,
      "hit": false,
      "t": 40000,
      "d": 1600,
      "v": 85
    },
    {
      "midi": 68,
      "hit": false,
      "t": 40000,
      "d": 1600,
      "v": 85
    },
    {
      "midi": 50,
      "hit": false,
      "t": 40000,
      "d": 1600,
      "v": 76
    },
    {
      "midi": 56,
      "hit": false,
      "t": 40000,
      "d": 1600,
      "v": 76
    },
    {
      "midi": 57,
      "hit": false,
      "t": 41600,
      "d": 800,
      "v": 60
    },
    {
      "midi": 61,
      "hit": false,
      "t": 41600,
      "d": 800,
      "v": 60
    },
    {
      "midi": 42,
      "hit": false,
      "t": 41600,
      "d": 800,
      "v": 75
    },
    {
      "midi": 54,
      "hit": false,
      "t": 41600,
      "d": 800,
      "v": 75
    },
    {
      "midi": 61,
      "hit": false,
      "t": 42400,
      "d": 800,
      "v": 85
    },
    {
      "midi": 66,
      "hit": false,
      "t": 42400,
      "d": 800,
      "v": 85
    },
    {
      "midi": 45,
      "hit": false,
      "t": 42400,
      "d": 800,
      "v": 77
    },
    {
      "midi": 54,
      "hit": false,
      "t": 42400,
      "d": 800,
      "v": 77
    },
    {
      "midi": 60,
      "hit": false,
      "t": 43200,
      "d": 1600,
      "v": 84
    },
    {
      "midi": 66,
      "hit": false,
      "t": 43200,
      "d": 1600,
      "v": 84
    },
    {
      "midi": 68,
      "hit": false,
      "t": 43200,
      "d": 1600,
      "v": 84
    },
    {
      "midi": 50,
      "hit": false,
      "t": 43200,
      "d": 1600,
      "v": 75
    },
    {
      "midi": 56,
      "hit": false,
      "t": 43200,
      "d": 1600,
      "v": 75
    },
    {
      "midi": 59,
      "hit": false,
      "t": 44800,
      "d": 800,
      "v": 66
    },
    {
      "midi": 66,
      "hit": false,
      "t": 44800,
      "d": 800,
      "v": 80
    },
    {
      "midi": 71,
      "hit": false,
      "t": 44800,
      "d": 800,
      "v": 80
    },
    {
      "midi": 44,
      "hit": false,
      "t": 44800,
      "d": 800,
      "v": 62
    },
    {
      "midi": 61,
      "hit": false,
      "t": 45600,
      "d": 400,
      "v": 79
    },
    {
      "midi": 66,
      "hit": false,
      "t": 45600,
      "d": 400,
      "v": 73
    },
    {
      "midi": 69,
      "hit": false,
      "t": 45600,
      "d": 400,
      "v": 73
    },
    {
      "midi": 45,
      "hit": false,
      "t": 45600,
      "d": 400,
      "v": 76
    },
    {
      "midi": 63,
      "hit": false,
      "t": 46000,
      "d": 400,
      "v": 81
    },
    {
      "midi": 47,
      "hit": false,
      "t": 46000,
      "d": 400,
      "v": 80
    },
    {
      "midi": 65,
      "hit": false,
      "t": 46400,
      "d": 800,
      "v": 86
    },
    {
      "midi": 68,
      "hit": false,
      "t": 46400,
      "d": 800,
      "v": 74
    },
    {
      "midi": 49,
      "hit": false,
      "t": 46400,
      "d": 800,
      "v": 77
    },
    {
      "midi": 63,
      "hit": false,
      "t": 47200,
      "d": 400,
      "v": 83
    },
    {
      "midi": 66,
      "hit": false,
      "t": 47200,
      "d": 400,
      "v": 83
    },
    {
      "midi": 69,
      "hit": false,
      "t": 47200,
      "d": 400,
      "v": 81
    },
    {
      "midi": 47,
      "hit": false,
      "t": 47200,
      "d": 800,
      "v": 71
    },
    {
      "midi": 62,
      "hit": false,
      "t": 47600,
      "d": 400,
      "v": 71
    },
    {
      "midi": 68,
      "hit": false,
      "t": 47600,
      "d": 400,
      "v": 79
    },
    {
      "midi": 71,
      "hit": false,
      "t": 47600,
      "d": 400,
      "v": 79
    },
    {
      "midi": 61,
      "hit": false,
      "t": 48000,
      "d": 400,
      "v": 75
    },
    {
      "midi": 65,
      "hit": false,
      "t": 48000,
      "d": 400,
      "v": 62
    },
    {
      "midi": 45,
      "hit": false,
      "t": 48000,
      "d": 400,
      "v": 73
    },
    {
      "midi": 59,
      "hit": false,
      "t": 48400,
      "d": 400,
      "v": 72
    },
    {
      "midi": 44,
      "hit": false,
      "t": 48400,
      "d": 400,
      "v": 72
    },
    {
      "midi": 57,
      "hit": false,
      "t": 48800,
      "d": 1600,
      "v": 79
    },
    {
      "midi": 61,
      "hit": false,
      "t": 48800,
      "d": 1600,
      "v": 79
    },
    {
      "midi": 66,
      "hit": false,
      "t": 48800,
      "d": 1600,
      "v": 79
    },
    {
      "midi": 42,
      "hit": false,
      "t": 48800,
      "d": 1600,
      "v": 73
    },
    {
      "midi": 59,
      "hit": false,
      "t": 51200,
      "d": 800,
      "v": 67
    },
    {
      "midi": 62,
      "hit": false,
      "t": 51200,
      "d": 800,
      "v": 67
    },
    {
      "midi": 66,
      "hit": false,
      "t": 51200,
      "d": 800,
      "v": 67
    },
    {
      "midi": 35,
      "hit": false,
      "t": 51200,
      "d": 800,
      "v": 72
    },
    {
      "midi": 47,
      "hit": false,
      "t": 51200,
      "d": 800,
      "v": 72
    },
    {
      "midi": 59,
      "hit": false,
      "t": 52000,
      "d": 800,
      "v": 85
    },
    {
      "midi": 66,
      "hit": false,
      "t": 52000,
      "d": 800,
      "v": 85
    },
    {
      "midi": 71,
      "hit": false,
      "t": 52000,
      "d": 800,
      "v": 85
    },
    {
      "midi": 38,
      "hit": false,
      "t": 52000,
      "d": 800,
      "v": 72
    },
    {
      "midi": 50,
      "hit": false,
      "t": 52000,
      "d": 800,
      "v": 72
    },
    {
      "midi": 61,
      "hit": false,
      "t": 52800,
      "d": 1600,
      "v": 85
    },
    {
      "midi": 66,
      "hit": false,
      "t": 52800,
      "d": 1600,
      "v": 85
    },
    {
      "midi": 70,
      "hit": false,
      "t": 52800,
      "d": 1600,
      "v": 85
    },
    {
      "midi": 73,
      "hit": false,
      "t": 52800,
      "d": 1600,
      "v": 85
    },
    {
      "midi": 42,
      "hit": false,
      "t": 52800,
      "d": 1600,
      "v": 73
    },
    {
      "midi": 49,
      "hit": false,
      "t": 52800,
      "d": 1600,
      "v": 73
    },
    {
      "midi": 59,
      "hit": false,
      "t": 54400,
      "d": 800,
      "v": 62
    },
    {
      "midi": 62,
      "hit": false,
      "t": 54400,
      "d": 800,
      "v": 62
    },
    {
      "midi": 66,
      "hit": false,
      "t": 54400,
      "d": 800,
      "v": 62
    },
    {
      "midi": 35,
      "hit": false,
      "t": 54400,
      "d": 800,
      "v": 74
    },
    {
      "midi": 47,
      "hit": false,
      "t": 54400,
      "d": 800,
      "v": 74
    },
    {
      "midi": 59,
      "hit": false,
      "t": 55200,
      "d": 800,
      "v": 85
    },
    {
      "midi": 66,
      "hit": false,
      "t": 55200,
      "d": 800,
      "v": 85
    },
    {
      "midi": 71,
      "hit": false,
      "t": 55200,
      "d": 800,
      "v": 85
    },
    {
      "midi": 38,
      "hit": false,
      "t": 55200,
      "d": 800,
      "v": 77
    },
    {
      "midi": 50,
      "hit": false,
      "t": 55200,
      "d": 800,
      "v": 77
    },
    {
      "midi": 61,
      "hit": false,
      "t": 56000,
      "d": 1600,
      "v": 82
    },
    {
      "midi": 66,
      "hit": false,
      "t": 56000,
      "d": 1600,
      "v": 82
    },
    {
      "midi": 70,
      "hit": false,
      "t": 56000,
      "d": 1600,
      "v": 82
    },
    {
      "midi": 73,
      "hit": false,
      "t": 56000,
      "d": 1600,
      "v": 82
    },
    {
      "midi": 42,
      "hit": false,
      "t": 56000,
      "d": 1600,
      "v": 75
    },
    {
      "midi": 49,
      "hit": false,
      "t": 56000,
      "d": 1600,
      "v": 75
    },
    {
      "midi": 62,
      "hit": false,
      "t": 57600,
      "d": 800,
      "v": 79
    },
    {
      "midi": 74,
      "hit": false,
      "t": 57600,
      "d": 800,
      "v": 79
    },
    {
      "midi": 35,
      "hit": false,
      "t": 57600,
      "d": 800,
      "v": 64
    },
    {
      "midi": 64,
      "hit": false,
      "t": 58400,
      "d": 400,
      "v": 68
    },
    {
      "midi": 73,
      "hit": false,
      "t": 58400,
      "d": 400,
      "v": 75
    },
    {
      "midi": 37,
      "hit": false,
      "t": 58400,
      "d": 400,
      "v": 82
    },
    {
      "midi": 66,
      "hit": false,
      "t": 58800,
      "d": 400,
      "v": 79
    },
    {
      "midi": 38,
      "hit": false,
      "t": 58800,
      "d": 400,
      "v": 82
    },
    {
      "midi": 67,
      "hit": false,
      "t": 59200,
      "d": 800,
      "v": 77
    },
    {
      "midi": 71,
      "hit": false,
      "t": 59200,
      "d": 800,
      "v": 76
    },
    {
      "midi": 40,
      "hit": false,
      "t": 59200,
      "d": 800,
      "v": 77
    },
    {
      "midi": 66,
      "hit": false,
      "t": 60000,
      "d": 400,
      "v": 73
    },
    {
      "midi": 73,
      "hit": false,
      "t": 60000,
      "d": 400,
      "v": 83
    },
    {
      "midi": 38,
      "hit": false,
      "t": 60000,
      "d": 800,
      "v": 73
    },
    {
      "midi": 62,
      "hit": false,
      "t": 60400,
      "d": 400,
      "v": 100
    },
    {
      "midi": 74,
      "hit": false,
      "t": 60400,
      "d": 400,
      "v": 85
    },
    {
      "midi": 64,
      "hit": false,
      "t": 60800,
      "d": 800,
      "v": 82
    },
    {
      "midi": 76,
      "hit": false,
      "t": 60800,
      "d": 800,
      "v": 82
    },
    {
      "midi": 37,
      "hit": false,
      "t": 60800,
      "d": 800,
      "v": 73
    },
    {
      "midi": 62,
      "hit": false,
      "t": 61600,
      "d": 400,
      "v": 76
    },
    {
      "midi": 66,
      "hit": false,
      "t": 61600,
      "d": 400,
      "v": 69
    },
    {
      "midi": 74,
      "hit": false,
      "t": 61600,
      "d": 400,
      "v": 76
    },
    {
      "midi": 38,
      "hit": false,
      "t": 61600,
      "d": 400,
      "v": 66
    },
    {
      "midi": 47,
      "hit": false,
      "t": 61600,
      "d": 400,
      "v": 87
    },
    {
      "midi": 68,
      "hit": false,
      "t": 62000,
      "d": 400,
      "v": 81
    },
    {
      "midi": 40,
      "hit": false,
      "t": 62000,
      "d": 400,
      "v": 76
    },
    {
      "midi": 61,
      "hit": false,
      "t": 62400,
      "d": 1200,
      "v": 76
    },
    {
      "midi": 70,
      "hit": false,
      "t": 62400,
      "d": 1200,
      "v": 83
    },
    {
      "midi": 73,
      "hit": false,
      "t": 62400,
      "d": 1200,
      "v": 76
    },
    {
      "midi": 42,
      "hit": false,
      "t": 62400,
      "d": 1200,
      "v": 83
    },
    {
      "midi": 46,
      "hit": false,
      "t": 62400,
      "d": 1200,
      "v": 83
    },
    {
      "midi": 49,
      "hit": false,
      "t": 62400,
      "d": 1200,
      "v": 83
    },
    {
      "midi": 59,
      "hit": false,
      "t": 64000,
      "d": 800,
      "v": 63
    },
    {
      "midi": 62,
      "hit": false,
      "t": 64000,
      "d": 800,
      "v": 63
    },
    {
      "midi": 66,
      "hit": false,
      "t": 64000,
      "d": 800,
      "v": 63
    },
    {
      "midi": 35,
      "hit": false,
      "t": 64000,
      "d": 800,
      "v": 67
    },
    {
      "midi": 47,
      "hit": false,
      "t": 64000,
      "d": 800,
      "v": 100
    },
    {
      "midi": 59,
      "hit": false,
      "t": 64800,
      "d": 800,
      "v": 88
    },
    {
      "midi": 66,
      "hit": false,
      "t": 64800,
      "d": 800,
      "v": 88
    },
    {
      "midi": 71,
      "hit": false,
      "t": 64800,
      "d": 800,
      "v": 88
    },
    {
      "midi": 38,
      "hit": false,
      "t": 64800,
      "d": 800,
      "v": 85
    },
    {
      "midi": 50,
      "hit": false,
      "t": 64800,
      "d": 800,
      "v": 85
    },
    {
      "midi": 65,
      "hit": false,
      "t": 65600,
      "d": 1600,
      "v": 81
    },
    {
      "midi": 71,
      "hit": false,
      "t": 65600,
      "d": 1600,
      "v": 81
    },
    {
      "midi": 73,
      "hit": false,
      "t": 65600,
      "d": 1600,
      "v": 81
    },
    {
      "midi": 43,
      "hit": false,
      "t": 65600,
      "d": 1600,
      "v": 77
    },
    {
      "midi": 50,
      "hit": false,
      "t": 65600,
      "d": 1600,
      "v": 77
    },
    {
      "midi": 59,
      "hit": false,
      "t": 67200,
      "d": 800,
      "v": 64
    },
    {
      "midi": 62,
      "hit": false,
      "t": 67200,
      "d": 800,
      "v": 64
    },
    {
      "midi": 66,
      "hit": false,
      "t": 67200,
      "d": 800,
      "v": 64
    },
    {
      "midi": 35,
      "hit": false,
      "t": 67200,
      "d": 800,
      "v": 70
    },
    {
      "midi": 47,
      "hit": false,
      "t": 67200,
      "d": 800,
      "v": 70
    },
    {
      "midi": 59,
      "hit": false,
      "t": 68000,
      "d": 800,
      "v": 87
    },
    {
      "midi": 66,
      "hit": false,
      "t": 68000,
      "d": 800,
      "v": 87
    },
    {
      "midi": 71,
      "hit": false,
      "t": 68000,
      "d": 800,
      "v": 87
    },
    {
      "midi": 38,
      "hit": false,
      "t": 68000,
      "d": 800,
      "v": 79
    },
    {
      "midi": 50,
      "hit": false,
      "t": 68000,
      "d": 800,
      "v": 79
    },
    {
      "midi": 65,
      "hit": false,
      "t": 68800,
      "d": 1600,
      "v": 86
    },
    {
      "midi": 71,
      "hit": false,
      "t": 68800,
      "d": 1600,
      "v": 86
    },
    {
      "midi": 73,
      "hit": false,
      "t": 68800,
      "d": 1600,
      "v": 86
    },
    {
      "midi": 43,
      "hit": false,
      "t": 68800,
      "d": 1600,
      "v": 69
    },
    {
      "midi": 49,
      "hit": false,
      "t": 68800,
      "d": 1600,
      "v": 69
    },
    {
      "midi": 64,
      "hit": false,
      "t": 70400,
      "d": 800,
      "v": 87
    },
    {
      "midi": 71,
      "hit": false,
      "t": 70400,
      "d": 800,
      "v": 87
    },
    {
      "midi": 76,
      "hit": false,
      "t": 70400,
      "d": 800,
      "v": 87
    },
    {
      "midi": 37,
      "hit": false,
      "t": 70400,
      "d": 800,
      "v": 76
    },
    {
      "midi": 49,
      "hit": false,
      "t": 70400,
      "d": 800,
      "v": 76
    },
    {
      "midi": 62,
      "hit": false,
      "t": 71200,
      "d": 400,
      "v": 74
    },
    {
      "midi": 66,
      "hit": false,
      "t": 71200,
      "d": 400,
      "v": 70
    },
    {
      "midi": 74,
      "hit": false,
      "t": 71200,
      "d": 400,
      "v": 74
    },
    {
      "midi": 38,
      "hit": false,
      "t": 71200,
      "d": 400,
      "v": 78
    },
    {
      "midi": 50,
      "hit": false,
      "t": 71200,
      "d": 400,
      "v": 78
    },
    {
      "midi": 68,
      "hit": false,
      "t": 71600,
      "d": 400,
      "v": 81
    },
    {
      "midi": 40,
      "hit": false,
      "t": 71600,
      "d": 400,
      "v": 79
    },
    {
      "midi": 52,
      "hit": false,
      "t": 71600,
      "d": 400,
      "v": 79
    },
    {
      "midi": 61,
      "hit": false,
      "t": 72000,
      "d": 800,
      "v": 68
    },
    {
      "midi": 70,
      "hit": false,
      "t": 72000,
      "d": 800,
      "v": 82
    },
    {
      "midi": 73,
      "hit": false,
      "t": 72000,
      "d": 800,
      "v": 68
    },
    {
      "midi": 42,
      "hit": false,
      "t": 72000,
      "d": 800,
      "v": 79
    },
    {
      "midi": 54,
      "hit": false,
      "t": 72000,
      "d": 800,
      "v": 79
    },
    {
      "midi": 68,
      "hit": false,
      "t": 72800,
      "d": 400,
      "v": 82
    },
    {
      "midi": 71,
      "hit": false,
      "t": 72800,
      "d": 400,
      "v": 82
    },
    {
      "midi": 74,
      "hit": false,
      "t": 72800,
      "d": 400,
      "v": 82
    },
    {
      "midi": 40,
      "hit": false,
      "t": 72800,
      "d": 800,
      "v": 73
    },
    {
      "midi": 52,
      "hit": false,
      "t": 72800,
      "d": 800,
      "v": 73
    },
    {
      "midi": 67,
      "hit": false,
      "t": 73200,
      "d": 400,
      "v": 78
    },
    {
      "midi": 73,
      "hit": false,
      "t": 73200,
      "d": 400,
      "v": 78
    },
    {
      "midi": 76,
      "hit": false,
      "t": 73200,
      "d": 400,
      "v": 78
    },
    {
      "midi": 66,
      "hit": false,
      "t": 73600,
      "d": 400,
      "v": 63
    },
    {
      "midi": 70,
      "hit": false,
      "t": 73600,
      "d": 400,
      "v": 63
    },
    {
      "midi": 38,
      "hit": false,
      "t": 73600,
      "d": 400,
      "v": 77
    },
    {
      "midi": 50,
      "hit": false,
      "t": 73600,
      "d": 400,
      "v": 77
    },
    {
      "midi": 64,
      "hit": false,
      "t": 74000,
      "d": 400,
      "v": 64
    },
    {
      "midi": 37,
      "hit": false,
      "t": 74000,
      "d": 400,
      "v": 66
    },
    {
      "midi": 49,
      "hit": false,
      "t": 74000,
      "d": 400,
      "v": 66
    },
    {
      "midi": 62,
      "hit": false,
      "t": 74400,
      "d": 1600,
      "v": 90
    },
    {
      "midi": 66,
      "hit": false,
      "t": 74400,
      "d": 1600,
      "v": 90
    },
    {
      "midi": 71,
      "hit": false,
      "t": 74400,
      "d": 1600,
      "v": 90
    },
    {
      "midi": 35,
      "hit": false,
      "t": 74400,
      "d": 1600,
      "v": 75
    },
    {
      "midi": 47,
      "hit": false,
      "t": 74400,
      "d": 1600,
      "v": 75
    },
    {
      "midi": 71,
      "hit": false,
      "t": 76800,
      "d": 800,
      "v": 70
    },
    {
      "midi": 77,
      "hit": false,
      "t": 76800,
      "d": 800,
      "v": 100
    },
    {
      "midi": 83,
      "hit": false,
      "t": 76800,
      "d": 800,
      "v": 70
    },
    {
      "midi": 67,
      "hit": false,
      "t": 76800,
      "d": 1600,
      "v": 68
    },
    {
      "midi": 73,
      "hit": false,
      "t": 77600,
      "d": 800,
      "v": 73
    },
    {
      "midi": 82,
      "hit": false,
      "t": 77600,
      "d": 800,
      "v": 73
    },
    {
      "midi": 74,
      "hit": false,
      "t": 78400,
      "d": 1600,
      "v": 75
    },
    {
      "midi": 78,
      "hit": false,
      "t": 78400,
      "d": 1600,
      "v": 75
    },
    {
      "midi": 81,
      "hit": false,
      "t": 78400,
      "d": 1600,
      "v": 75
    },
    {
      "midi": 62,
      "hit": false,
      "t": 78400,
      "d": 1600,
      "v": 67
    },
    {
      "midi": 71,
      "hit": false,
      "t": 80000,
      "d": 800,
      "v": 69
    },
    {
      "midi": 77,
      "hit": false,
      "t": 80000,
      "d": 800,
      "v": 100
    },
    {
      "midi": 83,
      "hit": false,
      "t": 80000,
      "d": 800,
      "v": 82
    },
    {
      "midi": 67,
      "hit": false,
      "t": 80000,
      "d": 1600,
      "v": 82
    },
    {
      "midi": 73,
      "hit": false,
      "t": 80800,
      "d": 800,
      "v": 84
    },
    {
      "midi": 82,
      "hit": false,
      "t": 80800,
      "d": 800,
      "v": 75
    },
    {
      "midi": 74,
      "hit": false,
      "t": 81600,
      "d": 1600,
      "v": 75
    },
    {
      "midi": 78,
      "hit": false,
      "t": 81600,
      "d": 1600,
      "v": 75
    },
    {
      "midi": 81,
      "hit": false,
      "t": 81600,
      "d": 1600,
      "v": 75
    },
    {
      "midi": 62,
      "hit": false,
      "t": 81600,
      "d": 1600,
      "v": 69
    },
    {
      "midi": 71,
      "hit": false,
      "t": 83200,
      "d": 800,
      "v": 70
    },
    {
      "midi": 77,
      "hit": false,
      "t": 83200,
      "d": 800,
      "v": 100
    },
    {
      "midi": 83,
      "hit": false,
      "t": 83200,
      "d": 800,
      "v": 80
    },
    {
      "midi": 67,
      "hit": false,
      "t": 83200,
      "d": 1600,
      "v": 85
    },
    {
      "midi": 73,
      "hit": false,
      "t": 84000,
      "d": 800,
      "v": 78
    },
    {
      "midi": 82,
      "hit": false,
      "t": 84000,
      "d": 800,
      "v": 78
    },
    {
      "midi": 74,
      "hit": false,
      "t": 84800,
      "d": 800,
      "v": 77
    },
    {
      "midi": 78,
      "hit": false,
      "t": 84800,
      "d": 800,
      "v": 65
    },
    {
      "midi": 81,
      "hit": false,
      "t": 84800,
      "d": 800,
      "v": 100
    },
    {
      "midi": 62,
      "hit": false,
      "t": 84800,
      "d": 1600,
      "v": 66
    },
    {
      "midi": 73,
      "hit": false,
      "t": 85600,
      "d": 400,
      "v": 71
    },
    {
      "midi": 72,
      "hit": false,
      "t": 86000,
      "d": 400,
      "v": 69
    },
    {
      "midi": 71,
      "hit": false,
      "t": 86400,
      "d": 800,
      "v": 89
    },
    {
      "midi": 77,
      "hit": false,
      "t": 86400,
      "d": 800,
      "v": 89
    },
    {
      "midi": 81,
      "hit": false,
      "t": 86400,
      "d": 800,
      "v": 78
    },
    {
      "midi": 61,
      "hit": false,
      "t": 86400,
      "d": 1600,
      "v": 68
    },
    {
      "midi": 79,
      "hit": false,
      "t": 87200,
      "d": 800,
      "v": 77
    },
    {
      "midi": 70,
      "hit": false,
      "t": 88000,
      "d": 1200,
      "v": 68
    },
    {
      "midi": 73,
      "hit": false,
      "t": 88000,
      "d": 1200,
      "v": 68
    },
    {
      "midi": 78,
      "hit": false,
      "t": 88000,
      "d": 1200,
      "v": 69
    },
    {
      "midi": 66,
      "hit": false,
      "t": 88000,
      "d": 1200,
      "v": 87
    },
    {
      "midi": 64,
      "hit": false,
      "t": 89600,
      "d": 800,
      "v": 68
    },
    {
      "midi": 70,
      "hit": false,
      "t": 89600,
      "d": 800,
      "v": 100
    },
    {
      "midi": 76,
      "hit": false,
      "t": 89600,
      "d": 800,
      "v": 69
    },
    {
      "midi": 60,
      "hit": false,
      "t": 89600,
      "d": 1600,
      "v": 70
    },
    {
      "midi": 66,
      "hit": false,
      "t": 90400,
      "d": 800,
      "v": 82
    },
    {
      "midi": 75,
      "hit": false,
      "t": 90400,
      "d": 800,
      "v": 70
    },
    {
      "midi": 67,
      "hit": false,
      "t": 91200,
      "d": 1600,
      "v": 91
    },
    {
      "midi": 71,
      "hit": false,
      "t": 91200,
      "d": 1600,
      "v": 91
    },
    {
      "midi": 74,
      "hit": false,
      "t": 91200,
      "d": 1600,
      "v": 78
    },
    {
      "midi": 55,
      "hit": false,
      "t": 91200,
      "d": 1600,
      "v": 67
    },
    {
      "midi": 64,
      "hit": false,
      "t": 92800,
      "d": 800,
      "v": 60
    },
    {
      "midi": 70,
      "hit": false,
      "t": 92800,
      "d": 800,
      "v": 100
    },
    {
      "midi": 76,
      "hit": false,
      "t": 92800,
      "d": 800,
      "v": 81
    },
    {
      "midi": 60,
      "hit": false,
      "t": 92800,
      "d": 1600,
      "v": 83
    },
    {
      "midi": 66,
      "hit": false,
      "t": 93600,
      "d": 800,
      "v": 81
    },
    {
      "midi": 75,
      "hit": false,
      "t": 93600,
      "d": 800,
      "v": 81
    },
    {
      "midi": 67,
      "hit": false,
      "t": 94400,
      "d": 1600,
      "v": 88
    },
    {
      "midi": 71,
      "hit": false,
      "t": 94400,
      "d": 1600,
      "v": 88
    },
    {
      "midi": 74,
      "hit": false,
      "t": 94400,
      "d": 1600,
      "v": 76
    },
    {
      "midi": 55,
      "hit": false,
      "t": 94400,
      "d": 1600,
      "v": 72
    },
    {
      "midi": 64,
      "hit": false,
      "t": 96000,
      "d": 800,
      "v": 62
    },
    {
      "midi": 70,
      "hit": false,
      "t": 96000,
      "d": 800,
      "v": 100
    },
    {
      "midi": 76,
      "hit": false,
      "t": 96000,
      "d": 800,
      "v": 80
    },
    {
      "midi": 60,
      "hit": false,
      "t": 96000,
      "d": 1600,
      "v": 86
    },
    {
      "midi": 66,
      "hit": false,
      "t": 96800,
      "d": 800,
      "v": 79
    },
    {
      "midi": 75,
      "hit": false,
      "t": 96800,
      "d": 800,
      "v": 73
    },
    {
      "midi": 67,
      "hit": false,
      "t": 97600,
      "d": 800,
      "v": 81
    },
    {
      "midi": 71,
      "hit": false,
      "t": 97600,
      "d": 800,
      "v": 73
    },
    {
      "midi": 74,
      "hit": false,
      "t": 97600,
      "d": 800,
      "v": 73
    },
    {
      "midi": 55,
      "hit": false,
      "t": 97600,
      "d": 1600,
      "v": 73
    },
    {
      "midi": 66,
      "hit": false,
      "t": 98400,
      "d": 400,
      "v": 74
    },
    {
      "midi": 65,
      "hit": false,
      "t": 98800,
      "d": 400,
      "v": 72
    },
    {
      "midi": 64,
      "hit": false,
      "t": 99200,
      "d": 800,
      "v": 88
    },
    {
      "midi": 70,
      "hit": false,
      "t": 99200,
      "d": 800,
      "v": 88
    },
    {
      "midi": 74,
      "hit": false,
      "t": 99200,
      "d": 800,
      "v": 77
    },
    {
      "midi": 54,
      "hit": false,
      "t": 99200,
      "d": 1600,
      "v": 75
    },
    {
      "midi": 73,
      "hit": false,
      "t": 100000,
      "d": 800,
      "v": 71
    },
    {
      "midi": 62,
      "hit": false,
      "t": 100800,
      "d": 1200,
      "v": 70
    },
    {
      "midi": 66,
      "hit": false,
      "t": 100800,
      "d": 1200,
      "v": 70
    },
    {
      "midi": 71,
      "hit": false,
      "t": 100800,
      "d": 1200,
      "v": 74
    },
    {
      "midi": 59,
      "hit": false,
      "t": 100800,
      "d": 1200,
      "v": 83
    },
    {
      "midi": 59,
      "hit": false,
      "t": 102400,
      "d": 800,
      "v": 71
    },
    {
      "midi": 65,
      "hit": false,
      "t": 102400,
      "d": 800,
      "v": 100
    },
    {
      "midi": 71,
      "hit": false,
      "t": 102400,
      "d": 800,
      "v": 71
    },
    {
      "midi": 43,
      "hit": false,
      "t": 102400,
      "d": 1600,
      "v": 66
    },
    {
      "midi": 55,
      "hit": false,
      "t": 102400,
      "d": 1600,
      "v": 66
    },
    {
      "midi": 61,
      "hit": false,
      "t": 103200,
      "d": 800,
      "v": 79
    },
    {
      "midi": 70,
      "hit": false,
      "t": 103200,
      "d": 800,
      "v": 70
    },
    {
      "midi": 62,
      "hit": false,
      "t": 104000,
      "d": 1600,
      "v": 67
    },
    {
      "midi": 66,
      "hit": false,
      "t": 104000,
      "d": 1600,
      "v": 67
    },
    {
      "midi": 69,
      "hit": false,
      "t": 104000,
      "d": 1600,
      "v": 67
    },
    {
      "midi": 38,
      "hit": false,
      "t": 104000,
      "d": 1600,
      "v": 69
    },
    {
      "midi": 50,
      "hit": false,
      "t": 104000,
      "d": 1600,
      "v": 69
    },
    {
      "midi": 59,
      "hit": false,
      "t": 105600,
      "d": 800,
      "v": 70
    },
    {
      "midi": 65,
      "hit": false,
      "t": 105600,
      "d": 800,
      "v": 100
    },
    {
      "midi": 71,
      "hit": false,
      "t": 105600,
      "d": 800,
      "v": 81
    },
    {
      "midi": 43,
      "hit": false,
      "t": 105600,
      "d": 1600,
      "v": 79
    },
    {
      "midi": 55,
      "hit": false,
      "t": 105600,
      "d": 1600,
      "v": 79
    },
    {
      "midi": 61,
      "hit": false,
      "t": 106400,
      "d": 800,
      "v": 81
    },
    {
      "midi": 70,
      "hit": false,
      "t": 106400,
      "d": 800,
      "v": 79
    },
    {
      "midi": 62,
      "hit": false,
      "t": 107200,
      "d": 1600,
      "v": 77
    },
    {
      "midi": 66,
      "hit": false,
      "t": 107200,
      "d": 1600,
      "v": 72
    },
    {
      "midi": 69,
      "hit": false,
      "t": 107200,
      "d": 1600,
      "v": 72
    },
    {
      "midi": 38,
      "hit": false,
      "t": 107200,
      "d": 1600,
      "v": 74
    },
    {
      "midi": 50,
      "hit": false,
      "t": 107200,
      "d": 1600,
      "v": 74
    },
    {
      "midi": 59,
      "hit": false,
      "t": 108800,
      "d": 800,
      "v": 70
    },
    {
      "midi": 65,
      "hit": false,
      "t": 108800,
      "d": 800,
      "v": 100
    },
    {
      "midi": 71,
      "hit": false,
      "t": 108800,
      "d": 800,
      "v": 79
    },
    {
      "midi": 43,
      "hit": false,
      "t": 108800,
      "d": 1600,
      "v": 80
    },
    {
      "midi": 55,
      "hit": false,
      "t": 108800,
      "d": 1600,
      "v": 80
    },
    {
      "midi": 61,
      "hit": false,
      "t": 109600,
      "d": 800,
      "v": 81
    },
    {
      "midi": 70,
      "hit": false,
      "t": 109600,
      "d": 800,
      "v": 71
    },
    {
      "midi": 62,
      "hit": false,
      "t": 110400,
      "d": 800,
      "v": 77
    },
    {
      "midi": 66,
      "hit": false,
      "t": 110400,
      "d": 800,
      "v": 68
    },
    {
      "midi": 69,
      "hit": false,
      "t": 110400,
      "d": 800,
      "v": 68
    },
    {
      "midi": 38,
      "hit": false,
      "t": 110400,
      "d": 1600,
      "v": 69
    },
    {
      "midi": 50,
      "hit": false,
      "t": 110400,
      "d": 1600,
      "v": 69
    },
    {
      "midi": 61,
      "hit": false,
      "t": 111200,
      "d": 400,
      "v": 75
    },
    {
      "midi": 60,
      "hit": false,
      "t": 111600,
      "d": 400,
      "v": 70
    },
    {
      "midi": 59,
      "hit": false,
      "t": 112000,
      "d": 800,
      "v": 88
    },
    {
      "midi": 65,
      "hit": false,
      "t": 112000,
      "d": 800,
      "v": 88
    },
    {
      "midi": 69,
      "hit": false,
      "t": 112000,
      "d": 800,
      "v": 77
    },
    {
      "midi": 37,
      "hit": false,
      "t": 112000,
      "d": 1600,
      "v": 72
    },
    {
      "midi": 49,
      "hit": false,
      "t": 112000,
      "d": 1600,
      "v": 72
    },
    {
      "midi": 67,
      "hit": false,
      "t": 112800,
      "d": 800,
      "v": 69
    },
    {
      "midi": 58,
      "hit": false,
      "t": 113600,
      "d": 1200,
      "v": 70
    },
    {
      "midi": 61,
      "hit": false,
      "t": 113600,
      "d": 1200,
      "v": 70
    },
    {
      "midi": 66,
      "hit": false,
      "t": 113600,
      "d": 1200,
      "v": 78
    },
    {
      "midi": 42,
      "hit": false,
      "t": 113600,
      "d": 1200,
      "v": 84
    },
    {
      "midi": 54,
      "hit": false,
      "t": 113600,
      "d": 1200,
      "v": 84
    },
    {
      "midi": 52,
      "hit": false,
      "t": 115200,
      "d": 800,
      "v": 65
    },
    {
      "midi": 58,
      "hit": false,
      "t": 115200,
      "d": 800,
      "v": 100
    },
    {
      "midi": 64,
      "hit": false,
      "t": 115200,
      "d": 800,
      "v": 68
    },
    {
      "midi": 36,
      "hit": false,
      "t": 115200,
      "d": 1600,
      "v": 65
    },
    {
      "midi": 48,
      "hit": false,
      "t": 115200,
      "d": 1600,
      "v": 65
    },
    {
      "midi": 54,
      "hit": false,
      "t": 116000,
      "d": 800,
      "v": 82
    },
    {
      "midi": 63,
      "hit": false,
      "t": 116000,
      "d": 800,
      "v": 72
    },
    {
      "midi": 55,
      "hit": false,
      "t": 116800,
      "d": 1600,
      "v": 79
    },
    {
      "midi": 59,
      "hit": false,
      "t": 116800,
      "d": 1600,
      "v": 79
    },
    {
      "midi": 62,
      "hit": false,
      "t": 116800,
      "d": 1600,
      "v": 67
    },
    {
      "midi": 31,
      "hit": false,
      "t": 116800,
      "d": 1600,
      "v": 67
    },
    {
      "midi": 43,
      "hit": false,
      "t": 116800,
      "d": 1600,
      "v": 67
    },
    {
      "midi": 52,
      "hit": false,
      "t": 118400,
      "d": 800,
      "v": 68
    },
    {
      "midi": 58,
      "hit": false,
      "t": 118400,
      "d": 800,
      "v": 100
    },
    {
      "midi": 64,
      "hit": false,
      "t": 118400,
      "d": 800,
      "v": 83
    },
    {
      "midi": 36,
      "hit": false,
      "t": 118400,
      "d": 1600,
      "v": 80
    },
    {
      "midi": 48,
      "hit": false,
      "t": 118400,
      "d": 1600,
      "v": 80
    },
    {
      "midi": 54,
      "hit": false,
      "t": 119200,
      "d": 800,
      "v": 76
    },
    {
      "midi": 63,
      "hit": false,
      "t": 119200,
      "d": 800,
      "v": 75
    },
    {
      "midi": 55,
      "hit": false,
      "t": 120000,
      "d": 1600,
      "v": 79
    },
    {
      "midi": 59,
      "hit": false,
      "t": 120000,
      "d": 1600,
      "v": 79
    },
    {
      "midi": 62,
      "hit": false,
      "t": 120000,
      "d": 1600,
      "v": 76
    },
    {
      "midi": 31,
      "hit": false,
      "t": 120000,
      "d": 1600,
      "v": 73
    },
    {
      "midi": 43,
      "hit": false,
      "t": 120000,
      "d": 1600,
      "v": 73
    },
    {
      "midi": 52,
      "hit": false,
      "t": 121600,
      "d": 800,
      "v": 74
    },
    {
      "midi": 58,
      "hit": false,
      "t": 121600,
      "d": 800,
      "v": 100
    },
    {
      "midi": 64,
      "hit": false,
      "t": 121600,
      "d": 800,
      "v": 82
    },
    {
      "midi": 36,
      "hit": false,
      "t": 121600,
      "d": 1600,
      "v": 80
    },
    {
      "midi": 48,
      "hit": false,
      "t": 121600,
      "d": 1600,
      "v": 80
    },
    {
      "midi": 54,
      "hit": false,
      "t": 122400,
      "d": 800,
      "v": 83
    },
    {
      "midi": 63,
      "hit": false,
      "t": 122400,
      "d": 800,
      "v": 71
    },
    {
      "midi": 55,
      "hit": false,
      "t": 123200,
      "d": 800,
      "v": 80
    },
    {
      "midi": 59,
      "hit": false,
      "t": 123200,
      "d": 800,
      "v": 71
    },
    {
      "midi": 62,
      "hit": false,
      "t": 123200,
      "d": 800,
      "v": 71
    },
    {
      "midi": 31,
      "hit": false,
      "t": 123200,
      "d": 1600,
      "v": 76
    },
    {
      "midi": 43,
      "hit": false,
      "t": 123200,
      "d": 1600,
      "v": 76
    },
    {
      "midi": 54,
      "hit": false,
      "t": 124000,
      "d": 400,
      "v": 73
    },
    {
      "midi": 53,
      "hit": false,
      "t": 124400,
      "d": 400,
      "v": 77
    },
    {
      "midi": 52,
      "hit": false,
      "t": 124800,
      "d": 800,
      "v": 82
    },
    {
      "midi": 58,
      "hit": false,
      "t": 124800,
      "d": 800,
      "v": 82
    },
    {
      "midi": 62,
      "hit": false,
      "t": 124800,
      "d": 800,
      "v": 75
    },
    {
      "midi": 30,
      "hit": false,
      "t": 124800,
      "d": 1600,
      "v": 75
    },
    {
      "midi": 42,
      "hit": false,
      "t": 124800,
      "d": 1600,
      "v": 75
    },
    {
      "midi": 61,
      "hit": false,
      "t": 125600,
      "d": 800,
      "v": 71
    },
    {
      "midi": 50,
      "hit": false,
      "t": 126400,
      "d": 1200,
      "v": 73
    },
    {
      "midi": 54,
      "hit": false,
      "t": 126400,
      "d": 1200,
      "v": 73
    },
    {
      "midi": 59,
      "hit": false,
      "t": 126400,
      "d": 1200,
      "v": 75
    },
    {
      "midi": 35,
      "hit": false,
      "t": 126400,
      "d": 1200,
      "v": 82
    },
    {
      "midi": 47,
      "hit": false,
      "t": 126400,
      "d": 1200,
      "v": 82
    },
    {
      "midi": 52,
      "hit": false,
      "t": 128000,
      "d": 800,
      "v": 72
    },
    {
      "midi": 58,
      "hit": false,
      "t": 128000,
      "d": 800,
      "v": 72
    },
    {
      "midi": 62,
      "hit": false,
      "t": 128000,
      "d": 800,
      "v": 71
    },
    {
      "midi": 30,
      "hit": false,
      "t": 128000,
      "d": 1600,
      "v": 71
    },
    {
      "midi": 42,
      "hit": false,
      "t": 128000,
      "d": 1600,
      "v": 71
    },
    {
      "midi": 61,
      "hit": false,
      "t": 128800,
      "d": 800,
      "v": 64
    },
    {
      "midi": 50,
      "hit": false,
      "t": 129600,
      "d": 1200,
      "v": 100
    },
    {
      "midi": 54,
      "hit": false,
      "t": 129600,
      "d": 1200,
      "v": 67
    },
    {
      "midi": 59,
      "hit": false,
      "t": 129600,
      "d": 1200,
      "v": 73
    },
    {
      "midi": 35,
      "hit": false,
      "t": 129600,
      "d": 1200,
      "v": 79
    },
    {
      "midi": 47,
      "hit": false,
      "t": 129600,
      "d": 1200,
      "v": 79
    },
    {
      "midi": 52,
      "hit": false,
      "t": 131200,
      "d": 1600,
      "v": 68
    },
    {
      "midi": 58,
      "hit": false,
      "t": 131200,
      "d": 1600,
      "v": 68
    },
    {
      "midi": 62,
      "hit": false,
      "t": 131200,
      "d": 1600,
      "v": 66
    },
    {
      "midi": 30,
      "hit": false,
      "t": 131200,
      "d": 3200,
      "v": 66
    },
    {
      "midi": 42,
      "hit": false,
      "t": 131200,
      "d": 3200,
      "v": 66
    },
    {
      "midi": 61,
      "hit": false,
      "t": 132800,
      "d": 1600,
      "v": 72
    },
    {
      "midi": 50,
      "hit": false,
      "t": 134400,
      "d": 1600,
      "v": 69
    },
    {
      "midi": 59,
      "hit": false,
      "t": 134400,
      "d": 1600,
      "v": 72
    },
    {
      "midi": 35,
      "hit": false,
      "t": 134400,
      "d": 1600,
      "v": 65
    },
    {
      "midi": 42,
      "hit": false,
      "t": 134400,
      "d": 1600,
      "v": 69
    },
    {
      "midi": 50,
      "hit": false,
      "t": 137600,
      "d": 1600,
      "v": 69
    },
    {
      "midi": 59,
      "hit": false,
      "t": 137600,
      "d": 1600,
      "v": 67
    },
    {
      "midi": 35,
      "hit": false,
      "t": 137600,
      "d": 1600,
      "v": 68
    },
    {
      "midi": 42,
      "hit": false,
      "t": 137600,
      "d": 1600,
      "v": 68
    },
    {
      "midi": 50,
      "hit": false,
      "t": 140800,
      "d": 3200,
      "v": 64
    },
    {
      "midi": 59,
      "hit": false,
      "t": 140800,
      "d": 3200,
      "v": 64
    },
    {
      "midi": 35,
      "hit": false,
      "t": 140800,
      "d": 3200,
      "v": 64
    },
    {
      "midi": 42,
      "hit": false,
      "t": 140800,
      "d": 3200,
      "v": 64
    }
  ]
}