{
  "jsonPath": "Unknown/Unknown/The Lullaby Orchestra/for-no-one.json",
  "path": "Unknown\\Unknown\\The Lullaby Orchestra\\For No One.mid",
  "name": "For No One",
  "difficulty": "Advanced",
  "bpm": 120,
  "notes": [
    {
      "midi": 47,
      "hit": false,
      "t": 15691.400000000001,
      "d": 7502.450625000001,
      "v": 73
    },
    {
      "midi": 63,
      "hit": false,
      "t": 17587.444166666668,
      "d": 1732.5920833333294,
      "v": 53
    },
    {
      "midi": 54,
      "hit": false,
      "t": 17603.789375,
      "d": 1667.2112499999967,
      "v": 73
    },
    {
      "midi": 59,
      "hit": false,
      "t": 17620.134583333333,
      "d": 1650.8660416666644,
      "v": 52
    },
    {
      "midi": 66,
      "hit": false,
      "t": 17701.860624999998,
      "d": 1438.378333333334,
      "v": 56
    },
    {
      "midi": 51,
      "hit": false,
      "t": 17701.860624999998,
      "d": 1732.592083333333,
      "v": 53
    },
    {
      "midi": 63,
      "hit": false,
      "t": 19565.214374999996,
      "d": 1618.1756249999999,
      "v": 65
    },
    {
      "midi": 59,
      "hit": false,
      "t": 19565.214374999996,
      "d": 1716.2468750000007,
      "v": 59
    },
    {
      "midi": 54,
      "hit": false,
      "t": 19581.55958333333,
      "d": 1748.937291666669,
      "v": 65
    },
    {
      "midi": 66,
      "hit": false,
      "t": 19614.249999999996,
      "d": 1438.378333333334,
      "v": 56
    },
    {
      "midi": 51,
      "hit": false,
      "t": 19663.285624999997,
      "d": 1732.592083333333,
      "v": 53
    },
    {
      "midi": 63,
      "hit": false,
      "t": 21526.639374999995,
      "d": 1667.2112500000003,
      "v": 64
    },
    {
      "midi": 54,
      "hit": false,
      "t": 21526.639374999995,
      "d": 1748.937291666669,
      "v": 64
    },
    {
      "midi": 59,
      "hit": false,
      "t": 21526.639374999995,
      "d": 1912.3893750000025,
      "v": 62
    },
    {
      "midi": 51,
      "hit": false,
      "t": 21575.674999999996,
      "d": 1732.5920833333366,
      "v": 53
    },
    {
      "midi": 66,
      "hit": false,
      "t": 21624.710624999996,
      "d": 1618.1756249999999,
      "v": 56
    },
    {
      "midi": 46,
      "hit": false,
      "t": 23537.100000000002,
      "d": 7404.379375,
      "v": 76
    },
    {
      "midi": 63,
      "hit": false,
      "t": 25482.179791666666,
      "d": 1487.4139583333308,
      "v": 61
    },
    {
      "midi": 54,
      "hit": false,
      "t": 25482.179791666666,
      "d": 1536.4495833333312,
      "v": 66
    },
    {
      "midi": 51,
      "hit": false,
      "t": 25498.524999999998,
      "d": 1732.592083333333,
      "v": 53
    },
    {
      "midi": 66,
      "hit": false,
      "t": 25514.87020833333,
      "d": 1438.378333333334,
      "v": 56
    },
    {
      "midi": 58,
      "hit": false,
      "t": 25514.87020833333,
      "d": 1552.7947916666672,
      "v": 77
    },
    {
      "midi": 63,
      "hit": false,
      "t": 27443.604791666665,
      "d": 1683.556458333329,
      "v": 61
    },
    {
      "midi": 58,
      "hit": false,
      "t": 27459.949999999997,
      "d": 1585.4852083333317,
      "v": 70
    },
    {
      "midi": 66,
      "hit": false,
      "t": 27476.29520833333,
      "d": 1438.378333333334,
      "v": 56
    },
    {
      "midi": 54,
      "hit": false,
      "t": 27476.29520833333,
      "d": 1585.4852083333317,
      "v": 66
    },
    {
      "midi": 51,
      "hit": false,
      "t": 27508.985624999998,
      "d": 1732.5920833333294,
      "v": 53
    },
    {
      "midi": 63,
      "hit": false,
      "t": 29388.68458333333,
      "d": 1945.0797916666634,
      "v": 56
    },
    {
      "midi": 58,
      "hit": false,
      "t": 29405.02979166666,
      "d": 1797.9729166666657,
      "v": 70
    },
    {
      "midi": 54,
      "hit": false,
      "t": 29405.02979166666,
      "d": 1814.318124999998,
      "v": 65
    },
    {
      "midi": 51,
      "hit": false,
      "t": 29421.374999999993,
      "d": 1732.592083333333,
      "v": 53
    },
    {
      "midi": 66,
      "hit": false,
      "t": 29437.720208333325,
      "d": 1438.378333333334,
      "v": 56
    },
    {
      "midi": 44,
      "hit": false,
      "t": 31382.800000000003,
      "d": 7763.973958333336,
      "v": 71
    },
    {
      "midi": 56,
      "hit": false,
      "t": 33295.189374999994,
      "d": 1536.4495833333276,
      "v": 71
    },
    {
      "midi": 63,
      "hit": false,
      "t": 33295.189374999994,
      "d": 1601.830416666664,
      "v": 53
    },
    {
      "midi": 59,
      "hit": false,
      "t": 33311.53458333333,
      "d": 1585.4852083333317,
      "v": 64
    },
    {
      "midi": 68,
      "hit": false,
      "t": 33344.22499999999,
      "d": 1438.378333333334,
      "v": 56
    },
    {
      "midi": 51,
      "hit": false,
      "t": 33344.22499999999,
      "d": 1732.5920833333366,
      "v": 53
    },
    {
      "midi": 63,
      "hit": false,
      "t": 35289.30479166666,
      "d": 1536.4495833333276,
      "v": 49
    },
    {
      "midi": 56,
      "hit": false,
      "t": 35289.30479166666,
      "d": 1552.7947916666599,
      "v": 70
    },
    {
      "midi": 59,
      "hit": false,
      "t": 35289.30479166666,
      "d": 1716.2468749999898,
      "v": 72
    },
    {
      "midi": 68,
      "hit": false,
      "t": 35305.649999999994,
      "d": 1438.3783333333267,
      "v": 56
    },
    {
      "midi": 51,
      "hit": false,
      "t": 35354.68562499999,
      "d": 1732.5920833333294,
      "v": 53
    },
    {
      "midi": 59,
      "hit": false,
      "t": 37250.72979166665,
      "d": 1781.6277083333262,
      "v": 56
    },
    {
      "midi": 56,
      "hit": false,
      "t": 37267.07499999998,
      "d": 1765.282499999994,
      "v": 77
    },
    {
      "midi": 63,
      "hit": false,
      "t": 37283.420208333315,
      "d": 1699.9016666666648,
      "v": 47
    },
    {
      "midi": 68,
      "hit": false,
      "t": 37316.11062499998,
      "d": 1438.378333333334,
      "v": 56
    },
    {
      "midi": 51,
      "hit": false,
      "t": 37316.11062499998,
      "d": 1732.5920833333294,
      "v": 53
    },
    {
      "midi": 42,
      "hit": false,
      "t": 39228.50000000001,
      "d": 7551.486250000002,
      "v": 70
    },
    {
      "midi": 51,
      "hit": false,
      "t": 41140.88937499998,
      "d": 1732.5920833333294,
      "v": 53
    },
    {
      "midi": 63,
      "hit": false,
      "t": 41157.23458333331,
      "d": 1454.7235416666663,
      "v": 54
    },
    {
      "midi": 54,
      "hit": false,
      "t": 41173.57979166664,
      "d": 1422.0331250000017,
      "v": 75
    },
    {
      "midi": 66,
      "hit": false,
      "t": 41189.924999999974,
      "d": 1438.378333333334,
      "v": 56
    },
    {
      "midi": 59,
      "hit": false,
      "t": 41189.924999999974,
      "d": 1536.4495833333349,
      "v": 58
    },
    {
      "midi": 63,
      "hit": false,
      "t": 43135.00479166664,
      "d": 1405.6879166666622,
      "v": 50
    },
    {
      "midi": 54,
      "hit": false,
      "t": 43151.34999999997,
      "d": 1389.34270833333,
      "v": 73
    },
    {
      "midi": 66,
      "hit": false,
      "t": 43151.34999999997,
      "d": 1438.3783333333267,
      "v": 56
    },
    {
      "midi": 59,
      "hit": false,
      "t": 43167.6952083333,
      "d": 1438.3783333333267,
      "v": 48
    },
    {
      "midi": 51,
      "hit": false,
      "t": 43200.385624999966,
      "d": 1732.5920833333294,
      "v": 53
    },
    {
      "midi": 54,
      "hit": false,
      "t": 45080.08458333329,
      "d": 1765.282499999994,
      "v": 69
    },
    {
      "midi": 63,
      "hit": false,
      "t": 45080.08458333329,
      "d": 1863.3537499999948,
      "v": 54
    },
    {
      "midi": 59,
      "hit": false,
      "t": 45096.429791666626,
      "d": 1765.282499999994,
      "v": 53
    },
    {
      "midi": 51,
      "hit": false,
      "t": 45112.77499999996,
      "d": 1732.5920833333294,
      "v": 53
    },
    {
      "midi": 66,
      "hit": false,
      "t": 45161.810624999955,
      "d": 1438.378333333334,
      "v": 56
    },
    {
      "midi": 40,
      "hit": false,
      "t": 47074.20000000001,
      "d": 7535.1410416666695,
      "v": 72
    },
    {
      "midi": 56,
      "hit": false,
      "t": 48986.58937499995,
      "d": 1536.4495833333276,
      "v": 71
    },
    {
      "midi": 63,
      "hit": false,
      "t": 48986.58937499995,
      "d": 1601.830416666664,
      "v": 53
    },
    {
      "midi": 59,
      "hit": false,
      "t": 49002.934583333285,
      "d": 1585.4852083333317,
      "v": 64
    },
    {
      "midi": 68,
      "hit": false,
      "t": 49035.62499999995,
      "d": 1438.378333333334,
      "v": 56
    },
    {
      "midi": 52,
      "hit": false,
      "t": 49035.62499999995,
      "d": 1732.5920833333366,
      "v": 53
    },
    {
      "midi": 63,
      "hit": false,
      "t": 50980.70479166662,
      "d": 1536.4495833333276,
      "v": 49
    },
    {
      "midi": 56,
      "hit": false,
      "t": 50980.70479166662,
      "d": 1552.7947916666599,
      "v": 70
    },
    {
      "midi": 59,
      "hit": false,
      "t": 50980.70479166662,
      "d": 1716.2468749999898,
      "v": 72
    },
    {
      "midi": 68,
      "hit": false,
      "t": 50997.04999999995,
      "d": 1438.3783333333267,
      "v": 56
    },
    {
      "midi": 52,
      "hit": false,
      "t": 51046.08562499995,
      "d": 1732.5920833333294,
      "v": 53
    },
    {
      "midi": 59,
      "hit": false,
      "t": 52942.12979166661,
      "d": 1781.6277083333262,
      "v": 56
    },
    {
      "midi": 56,
      "hit": false,
      "t": 52958.47499999994,
      "d": 1765.282499999994,
      "v": 77
    },
    {
      "midi": 63,
      "hit": false,
      "t": 52974.82020833327,
      "d": 1699.9016666666648,
      "v": 47
    },
    {
      "midi": 68,
      "hit": false,
      "t": 53007.51062499994,
      "d": 1438.378333333334,
      "v": 56
    },
    {
      "midi": 52,
      "hit": false,
      "t": 53007.51062499994,
      "d": 1732.5920833333294,
      "v": 53
    },
    {
      "midi": 45,
      "hit": false,
      "t": 54919.900000000016,
      "d": 7486.105416666665,
      "v": 71
    },
    {
      "midi": 69,
      "hit": false,
      "t": 56832.289374999935,
      "d": 1536.4495833333276,
      "v": 49
    },
    {
      "midi": 61,
      "hit": false,
      "t": 56832.289374999935,
      "d": 1601.830416666664,
      "v": 53
    },
    {
      "midi": 57,
      "hit": false,
      "t": 56848.63458333327,
      "d": 1585.4852083333317,
      "v": 69
    },
    {
      "midi": 64,
      "hit": false,
      "t": 56881.32499999993,
      "d": 1438.378333333334,
      "v": 56
    },
    {
      "midi": 52,
      "hit": false,
      "t": 56881.32499999993,
      "d": 1732.5920833333366,
      "v": 53
    },
    {
      "midi": 61,
      "hit": false,
      "t": 58826.4047916666,
      "d": 1536.4495833333276,
      "v": 49
    },
    {
      "midi": 69,
      "hit": false,
      "t": 58826.4047916666,
      "d": 1552.7947916666599,
      "v": 48
    },
    {
      "midi": 57,
      "hit": false,
      "t": 58826.4047916666,
      "d": 1716.2468749999898,
      "v": 72
    },
    {
      "midi": 64,
      "hit": false,
      "t": 58842.749999999935,
      "d": 1438.3783333333267,
      "v": 56
    },
    {
      "midi": 52,
      "hit": false,
      "t": 58891.78562499993,
      "d": 1732.5920833333294,
      "v": 53
    },
    {
      "midi": 57,
      "hit": false,
      "t": 60787.82979166659,
      "d": 1781.6277083333262,
      "v": 56
    },
    {
      "midi": 69,
      "hit": false,
      "t": 60804.17499999992,
      "d": 1765.282499999994,
      "v": 55
    },
    {
      "midi": 61,
      "hit": false,
      "t": 60820.520208333255,
      "d": 1699.9016666666648,
      "v": 53
    },
    {
      "midi": 64,
      "hit": false,
      "t": 60853.21062499992,
      "d": 1438.378333333334,
      "v": 65
    },
    {
      "midi": 52,
      "hit": false,
      "t": 60853.21062499992,
      "d": 1732.5920833333294,
      "v": 53
    },
    {
      "midi": 47,
      "hit": false,
      "t": 62765.60000000001,
      "d": 7175.5464583333305,
      "v": 72
    },
    {
      "midi": 54,
      "hit": false,
      "t": 64677.98937499992,
      "d": 1667.2112500000076,
      "v": 73
    },
    {
      "midi": 59,
      "hit": false,
      "t": 64694.33458333325,
      "d": 1650.8660416666753,
      "v": 52
    },
    {
      "midi": 63,
      "hit": false,
      "t": 64710.67979166658,
      "d": 1732.5920833333366,
      "v": 53
    },
    {
      "midi": 66,
      "hit": false,
      "t": 64776.06062499992,
      "d": 1438.378333333334,
      "v": 56
    },
    {
      "midi": 51,
      "hit": false,
      "t": 64776.06062499992,
      "d": 1732.5920833333294,
      "v": 53
    },
    {
      "midi": 63,
      "hit": false,
      "t": 66639.41437499992,
      "d": 1618.175625000018,
      "v": 65
    },
    {
      "midi": 59,
      "hit": false,
      "t": 66639.41437499992,
      "d": 1716.2468750000116,
      "v": 59
    },
    {
      "midi": 54,
      "hit": false,
      "t": 66655.75958333326,
      "d": 1748.9372916666762,
      "v": 65
    },
    {
      "midi": 66,
      "hit": false,
      "t": 66688.44999999992,
      "d": 1438.3783333333413,
      "v": 56
    },
    {
      "midi": 51,
      "hit": false,
      "t": 66737.48562499993,
      "d": 1732.5920833333366,
      "v": 53
    },
    {
      "midi": 63,
      "hit": false,
      "t": 68600.83937499994,
      "d": 1667.2112500000076,
      "v": 64
    },
    {
      "midi": 54,
      "hit": false,
      "t": 68600.83937499994,
      "d": 1748.9372916666762,
      "v": 64
    },
    {
      "midi": 59,
      "hit": false,
      "t": 68600.83937499994,
      "d": 1912.3893750000134,
      "v": 62
    },
    {
      "midi": 51,
      "hit": false,
      "t": 68649.87499999994,
      "d": 1732.5920833333366,
      "v": 53
    },
    {
      "midi": 66,
      "hit": false,
      "t": 68698.91062499995,
      "d": 1618.1756250000035,
      "v": 56
    },
    {
      "midi": 42,
      "hit": false,
      "t": 69957.49166666668,
      "d": 555.7370833333262,
      "v": 60
    },
    {
      "midi": 35,
      "hit": false,
      "t": 70611.3,
      "d": 7289.962916666671,
      "v": 66
    },
    {
      "midi": 54,
      "hit": false,
      "t": 72523.68937499996,
      "d": 1667.2112500000076,
      "v": 73
    },
    {
      "midi": 59,
      "hit": false,
      "t": 72540.0345833333,
      "d": 1650.866041666668,
      "v": 52
    },
    {
      "midi": 63,
      "hit": false,
      "t": 72556.37979166664,
      "d": 1732.592083333322,
      "v": 53
    },
    {
      "midi": 66,
      "hit": false,
      "t": 72621.76062499997,
      "d": 1438.3783333333267,
      "v": 56
    },
    {
      "midi": 51,
      "hit": false,
      "t": 72621.76062499997,
      "d": 1732.592083333322,
      "v": 53
    },
    {
      "midi": 63,
      "hit": false,
      "t": 74485.11437499996,
      "d": 1618.175625000018,
      "v": 65
    },
    {
      "midi": 59,
      "hit": false,
      "t": 74485.11437499996,
      "d": 1716.2468750000116,
      "v": 59
    },
    {
      "midi": 54,
      "hit": false,
      "t": 74501.4595833333,
      "d": 1748.9372916666762,
      "v": 65
    },
    {
      "midi": 66,
      "hit": false,
      "t": 74534.14999999997,
      "d": 1438.3783333333413,
      "v": 56
    },
    {
      "midi": 51,
      "hit": false,
      "t": 74583.18562499997,
      "d": 1732.5920833333366,
      "v": 53
    },
    {
      "midi": 63,
      "hit": false,
      "t": 76446.53937499998,
      "d": 1667.2112500000076,
      "v": 64
    },
    {
      "midi": 54,
      "hit": false,
      "t": 76446.53937499998,
      "d": 1748.9372916666762,
      "v": 64
    },
    {
      "midi": 59,
      "hit": false,
      "t": 76446.53937499998,
      "d": 1912.3893750000134,
      "v": 62
    },
    {
      "midi": 51,
      "hit": false,
      "t": 76495.57499999998,
      "d": 1732.5920833333366,
      "v": 53
    },
    {
      "midi": 66,
      "hit": false,
      "t": 76544.61062499999,
      "d": 1618.1756250000035,
      "v": 56
    },
    {
      "midi": 47,
      "hit": false,
      "t": 78457,
      "d": 7502.450624999998,
      "v": 73
    },
    {
      "midi": 63,
      "hit": false,
      "t": 80353.04416666666,
      "d": 1732.5920833333512,
      "v": 53
    },
    {
      "midi": 54,
      "hit": false,
      "t": 80369.389375,
      "d": 1667.2112500000076,
      "v": 73
    },
    {
      "midi": 59,
      "hit": false,
      "t": 80385.73458333334,
      "d": 1650.866041666668,
      "v": 52
    },
    {
      "midi": 66,
      "hit": false,
      "t": 80467.460625,
      "d": 1438.3783333333267,
      "v": 56
    },
    {
      "midi": 51,
      "hit": false,
      "t": 80467.460625,
      "d": 1732.5920833333366,
      "v": 53
    },
    {
      "midi": 63,
      "hit": false,
      "t": 82330.81437500002,
      "d": 1618.175625000018,
      "v": 65
    },
    {
      "midi": 59,
      "hit": false,
      "t": 82330.81437500002,
      "d": 1716.2468750000116,
      "v": 59
    },
    {
      "midi": 54,
      "hit": false,
      "t": 82347.15958333336,
      "d": 1748.9372916666762,
      "v": 65
    },
    {
      "midi": 66,
      "hit": false,
      "t": 82379.85000000002,
      "d": 1438.3783333333413,
      "v": 56
    },
    {
      "midi": 51,
      "hit": false,
      "t": 82428.88562500002,
      "d": 1732.5920833333366,
      "v": 53
    },
    {
      "midi": 63,
      "hit": false,
      "t": 84292.23937500003,
      "d": 1667.2112500000076,
      "v": 64
    },
    {
      "midi": 54,
      "hit": false,
      "t": 84292.23937500003,
      "d": 1748.9372916666762,
      "v": 64
    },
    {
      "midi": 59,
      "hit": false,
      "t": 84292.23937500003,
      "d": 1912.3893750000134,
      "v": 62
    },
    {
      "midi": 51,
      "hit": false,
      "t": 84341.27500000004,
      "d": 1732.5920833333366,
      "v": 53
    },
    {
      "midi": 66,
      "hit": false,
      "t": 84390.31062500004,
      "d": 1618.1756250000035,
      "v": 56
    },
    {
      "midi": 46,
      "hit": false,
      "t": 86302.7,
      "d": 7404.379375000004,
      "v": 76
    },
    {
      "midi": 63,
      "hit": false,
      "t": 88247.77979166672,
      "d": 1487.4139583333454,
      "v": 61
    },
    {
      "midi": 54,
      "hit": false,
      "t": 88247.77979166672,
      "d": 1536.4495833333494,
      "v": 66
    },
    {
      "midi": 51,
      "hit": false,
      "t": 88264.12500000006,
      "d": 1732.5920833333512,
      "v": 53
    },
    {
      "midi": 66,
      "hit": false,
      "t": 88280.4702083334,
      "d": 1438.3783333333267,
      "v": 56
    },
    {
      "midi": 58,
      "hit": false,
      "t": 88280.4702083334,
      "d": 1552.7947916666744,
      "v": 77
    },
    {
      "midi": 63,
      "hit": false,
      "t": 90209.20479166674,
      "d": 1683.556458333347,
      "v": 61
    },
    {
      "midi": 58,
      "hit": false,
      "t": 90225.55000000008,
      "d": 1585.485208333339,
      "v": 70
    },
    {
      "midi": 66,
      "hit": false,
      "t": 90241.89520833342,
      "d": 1438.3783333333267,
      "v": 56
    },
    {
      "midi": 54,
      "hit": false,
      "t": 90241.89520833342,
      "d": 1585.485208333339,
      "v": 66
    },
    {
      "midi": 51,
      "hit": false,
      "t": 90274.58562500008,
      "d": 1732.5920833333366,
      "v": 53
    },
    {
      "midi": 63,
      "hit": false,
      "t": 92154.28458333341,
      "d": 1945.0797916666925,
      "v": 56
    },
    {
      "midi": 58,
      "hit": false,
      "t": 92170.62979166675,
      "d": 1797.9729166666802,
      "v": 70
    },
    {
      "midi": 54,
      "hit": false,
      "t": 92170.62979166675,
      "d": 1814.3181250000198,
      "v": 65
    },
    {
      "midi": 51,
      "hit": false,
      "t": 92186.9750000001,
      "d": 1732.5920833333366,
      "v": 53
    },
    {
      "midi": 66,
      "hit": false,
      "t": 92203.32020833343,
      "d": 1438.3783333333267,
      "v": 56
    },
    {
      "midi": 44,
      "hit": false,
      "t": 94148.4,
      "d": 7763.9739583333285,
      "v": 71
    },
    {
      "midi": 56,
      "hit": false,
      "t": 96060.78937500011,
      "d": 1536.4495833333349,
      "v": 71
    },
    {
      "midi": 63,
      "hit": false,
      "t": 96060.78937500011,
      "d": 1601.830416666664,
      "v": 53
    },
    {
      "midi": 59,
      "hit": false,
      "t": 96077.13458333345,
      "d": 1585.4852083333244,
      "v": 64
    },
    {
      "midi": 68,
      "hit": false,
      "t": 96109.82500000011,
      "d": 1438.3783333333267,
      "v": 56
    },
    {
      "midi": 51,
      "hit": false,
      "t": 96109.82500000011,
      "d": 1732.592083333322,
      "v": 53
    },
    {
      "midi": 63,
      "hit": false,
      "t": 98054.90479166676,
      "d": 1536.4495833333494,
      "v": 49
    },
    {
      "midi": 56,
      "hit": false,
      "t": 98054.90479166676,
      "d": 1552.794791666689,
      "v": 70
    },
    {
      "midi": 59,
      "hit": false,
      "t": 98054.90479166676,
      "d": 1716.2468750000262,
      "v": 72
    },
    {
      "midi": 68,
      "hit": false,
      "t": 98071.2500000001,
      "d": 1438.3783333333413,
      "v": 56
    },
    {
      "midi": 51,
      "hit": false,
      "t": 98120.2856250001,
      "d": 1732.5920833333512,
      "v": 53
    },
    {
      "midi": 59,
      "hit": false,
      "t": 100016.3297916668,
      "d": 1781.6277083333407,
      "v": 56
    },
    {
      "midi": 56,
      "hit": false,
      "t": 100032.67500000013,
      "d": 1765.2825000000012,
      "v": 77
    },
    {
      "midi": 63,
      "hit": false,
      "t": 100049.02020833347,
      "d": 1699.9016666666575,
      "v": 47
    },
    {
      "midi": 68,
      "hit": false,
      "t": 100081.71062500014,
      "d": 1438.3783333333267,
      "v": 56
    },
    {
      "midi": 51,
      "hit": false,
      "t": 100081.71062500014,
      "d": 1732.5920833333366,
      "v": 53
    },
    {
      "midi": 42,
      "hit": false,
      "t": 101994.09999999999,
      "d": 7551.486250000002,
      "v": 70
    },
    {
      "midi": 51,
      "hit": false,
      "t": 103906.48937500014,
      "d": 1732.5920833333512,
      "v": 53
    },
    {
      "midi": 63,
      "hit": false,
      "t": 103922.83458333348,
      "d": 1454.7235416666808,
      "v": 54
    },
    {
      "midi": 54,
      "hit": false,
      "t": 103939.17979166681,
      "d": 1422.0331250000017,
      "v": 75
    },
    {
      "midi": 66,
      "hit": false,
      "t": 103955.52500000015,
      "d": 1438.3783333333413,
      "v": 56
    },
    {
      "midi": 59,
      "hit": false,
      "t": 103955.52500000015,
      "d": 1536.4495833333349,
      "v": 58
    },
    {
      "midi": 63,
      "hit": false,
      "t": 105900.60479166682,
      "d": 1405.6879166666768,
      "v": 50
    },
    {
      "midi": 54,
      "hit": false,
      "t": 105916.95000000016,
      "d": 1389.3427083333372,
      "v": 73
    },
    {
      "midi": 66,
      "hit": false,
      "t": 105916.95000000016,
      "d": 1438.3783333333413,
      "v": 56
    },
    {
      "midi": 59,
      "hit": false,
      "t": 105933.2952083335,
      "d": 1438.3783333333413,
      "v": 48
    },
    {
      "midi": 51,
      "hit": false,
      "t": 105965.98562500016,
      "d": 1732.5920833333366,
      "v": 53
    },
    {
      "midi": 54,
      "hit": false,
      "t": 107845.6845833335,
      "d": 1765.2825000000157,
      "v": 69
    },
    {
      "midi": 63,
      "hit": false,
      "t": 107845.6845833335,
      "d": 1863.3537500000239,
      "v": 54
    },
    {
      "midi": 59,
      "hit": false,
      "t": 107862.02979166684,
      "d": 1765.2825000000157,
      "v": 53
    },
    {
      "midi": 51,
      "hit": false,
      "t": 107878.37500000017,
      "d": 1732.5920833333366,
      "v": 53
    },
    {
      "midi": 66,
      "hit": false,
      "t": 107927.41062500018,
      "d": 1438.3783333333267,
      "v": 56
    },
    {
      "midi": 40,
      "hit": false,
      "t": 109839.79999999999,
      "d": 7535.141041666662,
      "v": 72
    },
    {
      "midi": 56,
      "hit": false,
      "t": 111752.18937500019,
      "d": 1536.4495833333349,
      "v": 71
    },
    {
      "midi": 63,
      "hit": false,
      "t": 111752.18937500019,
      "d": 1601.830416666664,
      "v": 53
    },
    {
      "midi": 59,
      "hit": false,
      "t": 111768.53458333353,
      "d": 1585.4852083333244,
      "v": 64
    },
    {
      "midi": 68,
      "hit": false,
      "t": 111801.2250000002,
      "d": 1438.3783333333267,
      "v": 56
    },
    {
      "midi": 52,
      "hit": false,
      "t": 111801.2250000002,
      "d": 1732.592083333322,
      "v": 53
    },
    {
      "midi": 63,
      "hit": false,
      "t": 113746.30479166684,
      "d": 1536.4495833333494,
      "v": 49
    },
    {
      "midi": 56,
      "hit": false,
      "t": 113746.30479166684,
      "d": 1552.794791666689,
      "v": 70
    },
    {
      "midi": 59,
      "hit": false,
      "t": 113746.30479166684,
      "d": 1716.2468750000262,
      "v": 72
    },
    {
      "midi": 68,
      "hit": false,
      "t": 113762.65000000018,
      "d": 1438.3783333333413,
      "v": 56
    },
    {
      "midi": 52,
      "hit": false,
      "t": 113811.68562500019,
      "d": 1732.5920833333512,
      "v": 53
    },
    {
      "midi": 59,
      "hit": false,
      "t": 115707.72979166688,
      "d": 1781.6277083333407,
      "v": 56
    },
    {
      "midi": 56,
      "hit": false,
      "t": 115724.07500000022,
      "d": 1765.2825000000012,
      "v": 77
    },
    {
      "midi": 63,
      "hit": false,
      "t": 115740.42020833355,
      "d": 1699.9016666666575,
      "v": 47
    },
    {
      "midi": 68,
      "hit": false,
      "t": 115773.11062500022,
      "d": 1438.3783333333267,
      "v": 56
    },
    {
      "midi": 52,
      "hit": false,
      "t": 115773.11062500022,
      "d": 1732.5920833333366,
      "v": 53
    },
    {
      "midi": 45,
      "hit": false,
      "t": 117685.49999999999,
      "d": 7486.105416666673,
      "v": 71
    },
    {
      "midi": 69,
      "hit": false,
      "t": 119597.88937500022,
      "d": 1536.4495833333349,
      "v": 49
    },
    {
      "midi": 61,
      "hit": false,
      "t": 119597.88937500022,
      "d": 1601.830416666664,
      "v": 53
    },
    {
      "midi": 57,
      "hit": false,
      "t": 119614.23458333356,
      "d": 1585.4852083333244,
      "v": 69
    },
    {
      "midi": 64,
      "hit": false,
      "t": 119646.92500000022,
      "d": 1438.3783333333267,
      "v": 56
    },
    {
      "midi": 52,
      "hit": false,
      "t": 119646.92500000022,
      "d": 1732.592083333322,
      "v": 53
    },
    {
      "midi": 61,
      "hit": false,
      "t": 121592.00479166687,
      "d": 1536.4495833333494,
      "v": 49
    },
    {
      "midi": 69,
      "hit": false,
      "t": 121592.00479166687,
      "d": 1552.794791666689,
      "v": 48
    },
    {
      "midi": 57,
      "hit": false,
      "t": 121592.00479166687,
      "d": 1716.2468750000262,
      "v": 72
    },
    {
      "midi": 64,
      "hit": false,
      "t": 121608.35000000021,
      "d": 1438.3783333333413,
      "v": 56
    },
    {
      "midi": 52,
      "hit": false,
      "t": 121657.38562500021,
      "d": 1732.5920833333512,
      "v": 53
    },
    {
      "midi": 57,
      "hit": false,
      "t": 123553.4297916669,
      "d": 1781.6277083333407,
      "v": 56
    },
    {
      "midi": 69,
      "hit": false,
      "t": 123569.77500000024,
      "d": 1765.2825000000012,
      "v": 55
    },
    {
      "midi": 61,
      "hit": false,
      "t": 123586.12020833358,
      "d": 1699.9016666666575,
      "v": 53
    },
    {
      "midi": 64,
      "hit": false,
      "t": 123618.81062500025,
      "d": 1438.3783333333267,
      "v": 65
    },
    {
      "midi": 52,
      "hit": false,
      "t": 123618.81062500025,
      "d": 1732.5920833333366,
      "v": 53
    },
    {
      "midi": 47,
      "hit": false,
      "t": 125531.2,
      "d": 7175.546458333338,
      "v": 72
    },
    {
      "midi": 54,
      "hit": false,
      "t": 127443.58937500024,
      "d": 1667.2112500000076,
      "v": 73
    },
    {
      "midi": 59,
      "hit": false,
      "t": 127459.93458333358,
      "d": 1650.866041666668,
      "v": 52
    },
    {
      "midi": 63,
      "hit": false,
      "t": 127476.27979166692,
      "d": 1732.592083333322,
      "v": 53
    },
    {
      "midi": 66,
      "hit": false,
      "t": 127541.66062500025,
      "d": 1438.3783333333267,
      "v": 56
    },
    {
      "midi": 51,
      "hit": false,
      "t": 127541.66062500025,
      "d": 1732.592083333322,
      "v": 53
    },
    {
      "midi": 63,
      "hit": false,
      "t": 129405.01437500025,
      "d": 1618.175625000018,
      "v": 65
    },
    {
      "midi": 59,
      "hit": false,
      "t": 129405.01437500025,
      "d": 1716.2468750000262,
      "v": 59
    },
    {
      "midi": 54,
      "hit": false,
      "t": 129421.35958333359,
      "d": 1748.9372916666762,
      "v": 65
    },
    {
      "midi": 66,
      "hit": false,
      "t": 129454.05000000025,
      "d": 1438.3783333333413,
      "v": 56
    },
    {
      "midi": 51,
      "hit": false,
      "t": 129503.08562500025,
      "d": 1732.5920833333366,
      "v": 53
    },
    {
      "midi": 63,
      "hit": false,
      "t": 131366.43937500025,
      "d": 1667.211249999993,
      "v": 64
    },
    {
      "midi": 54,
      "hit": false,
      "t": 131366.43937500025,
      "d": 1748.9372916666616,
      "v": 64
    },
    {
      "midi": 59,
      "hit": false,
      "t": 131366.43937500025,
      "d": 1912.3893749999988,
      "v": 62
    },
    {
      "midi": 51,
      "hit": false,
      "t": 131415.47500000024,
      "d": 1732.5920833333512,
      "v": 53
    },
    {
      "midi": 66,
      "hit": false,
      "t": 131464.51062500023,
      "d": 1618.1756250000035,
      "v": 56
    },
    {
      "midi": 42,
      "hit": false,
      "t": 132723.09166666667,
      "d": 555.7370833333407,
      "v": 60
    },
    {
      "midi": 47,
      "hit": false,
      "t": 133376.90000000002,
      "d": 7289.962916666671,
      "v": 66
    },
    {
      "midi": 54,
      "hit": false,
      "t": 135289.28937500025,
      "d": 1667.211249999993,
      "v": 73
    },
    {
      "midi": 59,
      "hit": false,
      "t": 135305.6345833336,
      "d": 1650.8660416666535,
      "v": 52
    },
    {
      "midi": 63,
      "hit": false,
      "t": 135321.97979166693,
      "d": 1732.592083333322,
      "v": 53
    },
    {
      "midi": 66,
      "hit": false,
      "t": 135387.36062500026,
      "d": 1438.3783333333267,
      "v": 56
    },
    {
      "midi": 51,
      "hit": false,
      "t": 135387.36062500026,
      "d": 1732.592083333322,
      "v": 53
    },
    {
      "midi": 63,
      "hit": false,
      "t": 137250.71437500024,
      "d": 1618.1756250000035,
      "v": 65
    },
    {
      "midi": 59,
      "hit": false,
      "t": 137250.71437500024,
      "d": 1716.2468750000116,
      "v": 59
    },
    {
      "midi": 54,
      "hit": false,
      "t": 137267.05958333358,
      "d": 1748.9372916666616,
      "v": 65
    },
    {
      "midi": 66,
      "hit": false,
      "t": 137299.75000000026,
      "d": 1438.3783333333267,
      "v": 56
    },
    {
      "midi": 51,
      "hit": false,
      "t": 137348.78562500025,
      "d": 1732.592083333322,
      "v": 53
    },
    {
      "midi": 63,
      "hit": false,
      "t": 139212.13937500023,
      "d": 1667.211249999993,
      "v": 64
    },
    {
      "midi": 54,
      "hit": false,
      "t": 139212.13937500023,
      "d": 1748.9372916666616,
      "v": 64
    },
    {
      "midi": 59,
      "hit": false,
      "t": 139212.13937500023,
      "d": 1912.3893749999988,
      "v": 62
    },
    {
      "midi": 51,
      "hit": false,
      "t": 139261.17500000022,
      "d": 1732.5920833333512,
      "v": 53
    },
    {
      "midi": 66,
      "hit": false,
      "t": 139310.2106250002,
      "d": 1618.1756250000035,
      "v": 56
    },
    {
      "midi": 64,
      "hit": false,
      "t": 141206.2547916669,
      "d": 1487.4139583333454,
      "v": 55
    },
    {
      "midi": 49,
      "hit": false,
      "t": 141222.60000000003,
      "d": 7486.105416666658,
      "v": 67
    },
    {
      "midi": 61,
      "hit": false,
      "t": 141222.60000000024,
      "d": 1405.6879166666768,
      "v": 67
    },
    {
      "midi": 68,
      "hit": false,
      "t": 141271.63562500023,
      "d": 1405.6879166666768,
      "v": 55
    },
    {
      "midi": 56,
      "hit": false,
      "t": 142530.2166666669,
      "d": 1242.2358333333686,
      "v": 70
    },
    {
      "midi": 68,
      "hit": false,
      "t": 143184.02500000026,
      "d": 1405.6879166667059,
      "v": 55
    },
    {
      "midi": 61,
      "hit": false,
      "t": 143184.02500000026,
      "d": 1552.7947916667035,
      "v": 59
    },
    {
      "midi": 64,
      "hit": false,
      "t": 143200.3702083336,
      "d": 1405.6879166667059,
      "v": 55
    },
    {
      "midi": 56,
      "hit": false,
      "t": 144491.64166666695,
      "d": 1372.9974999999977,
      "v": 81
    },
    {
      "midi": 64,
      "hit": false,
      "t": 145145.4500000003,
      "d": 1405.6879166666477,
      "v": 55
    },
    {
      "midi": 61,
      "hit": false,
      "t": 145145.4500000003,
      "d": 1438.3783333333267,
      "v": 63
    },
    {
      "midi": 68,
      "hit": false,
      "t": 145194.4856250003,
      "d": 1405.6879166666768,
      "v": 55
    },
    {
      "midi": 56,
      "hit": false,
      "t": 146453.06666666694,
      "d": 1193.20020833335,
      "v": 75
    },
    {
      "midi": 61,
      "hit": false,
      "t": 147106.8750000003,
      "d": 1323.9618750000081,
      "v": 60
    },
    {
      "midi": 64,
      "hit": false,
      "t": 147106.8750000003,
      "d": 1405.6879166666768,
      "v": 55
    },
    {
      "midi": 68,
      "hit": false,
      "t": 147106.8750000003,
      "d": 1405.6879166666768,
      "v": 55
    },
    {
      "midi": 56,
      "hit": false,
      "t": 148414.49166666696,
      "d": 1209.5454166666896,
      "v": 78
    },
    {
      "midi": 66,
      "hit": false,
      "t": 149051.95479166697,
      "d": 1405.6879166666768,
      "v": 55
    },
    {
      "midi": 44,
      "hit": false,
      "t": 149068.30000000002,
      "d": 7567.831458333327,
      "v": 68
    },
    {
      "midi": 63,
      "hit": false,
      "t": 149068.3000000003,
      "d": 1340.3070833333477,
      "v": 58
    },
    {
      "midi": 60,
      "hit": false,
      "t": 149084.64520833365,
      "d": 1405.6879166666768,
      "v": 55
    },
    {
      "midi": 56,
      "hit": false,
      "t": 150375.91666666698,
      "d": 1160.509791666671,
      "v": 77
    },
    {
      "midi": 66,
      "hit": false,
      "t": 151013.379791667,
      "d": 1405.6879166666768,
      "v": 55
    },
    {
      "midi": 63,
      "hit": false,
      "t": 151029.72500000033,
      "d": 1323.9618750000081,
      "v": 66
    },
    {
      "midi": 60,
      "hit": false,
      "t": 151029.72500000033,
      "d": 1405.6879166666768,
      "v": 55
    },
    {
      "midi": 56,
      "hit": false,
      "t": 152337.341666667,
      "d": 1225.890625000029,
      "v": 69
    },
    {
      "midi": 63,
      "hit": false,
      "t": 152991.15000000034,
      "d": 1291.2714583333582,
      "v": 66
    },
    {
      "midi": 66,
      "hit": false,
      "t": 152991.15000000034,
      "d": 1405.6879166667059,
      "v": 55
    },
    {
      "midi": 60,
      "hit": false,
      "t": 153007.49520833368,
      "d": 1405.6879166667059,
      "v": 55
    },
    {
      "midi": 56,
      "hit": false,
      "t": 154298.76666666704,
      "d": 1062.438541666692,
      "v": 74
    },
    {
      "midi": 60,
      "hit": false,
      "t": 154936.22979166705,
      "d": 1405.6879166666768,
      "v": 55
    },
    {
      "midi": 63,
      "hit": false,
      "t": 154952.5750000004,
      "d": 1618.1756250000035,
      "v": 66
    },
    {
      "midi": 66,
      "hit": false,
      "t": 154968.92020833373,
      "d": 1405.6879166666768,
      "v": 55
    },
    {
      "midi": 56,
      "hit": false,
      "t": 156260.19166666706,
      "d": 653.8083333333489,
      "v": 76
    },
    {
      "midi": 49,
      "hit": false,
      "t": 156914,
      "d": 5966.001041666663,
      "v": 72
    },
    {
      "midi": 56,
      "hit": false,
      "t": 156963.0356250004,
      "d": 1536.4495833333349,
      "v": 55
    },
    {
      "midi": 61,
      "hit": false,
      "t": 156963.0356250004,
      "d": 1585.4852083333244,
      "v": 49
    },
    {
      "midi": 56,
      "hit": false,
      "t": 158826.38937500038,
      "d": 1536.4495833333349,
      "v": 71
    },
    {
      "midi": 64,
      "hit": false,
      "t": 158826.38937500038,
      "d": 1601.830416666664,
      "v": 53
    },
    {
      "midi": 61,
      "hit": false,
      "t": 158842.73458333372,
      "d": 1585.4852083333244,
      "v": 64
    },
    {
      "midi": 68,
      "hit": false,
      "t": 158875.4250000004,
      "d": 1438.3783333333267,
      "v": 56
    },
    {
      "midi": 52,
      "hit": false,
      "t": 158875.4250000004,
      "d": 1732.592083333322,
      "v": 53
    },
    {
      "midi": 64,
      "hit": false,
      "t": 160820.50479166704,
      "d": 1536.4495833333349,
      "v": 49
    },
    {
      "midi": 56,
      "hit": false,
      "t": 160820.50479166704,
      "d": 1552.7947916666744,
      "v": 70
    },
    {
      "midi": 61,
      "hit": false,
      "t": 160820.50479166704,
      "d": 1716.2468750000116,
      "v": 72
    },
    {
      "midi": 68,
      "hit": false,
      "t": 160836.85000000038,
      "d": 1438.3783333333267,
      "v": 56
    },
    {
      "midi": 52,
      "hit": false,
      "t": 160885.88562500037,
      "d": 1732.5920833333512,
      "v": 53
    },
    {
      "midi": 63,
      "hit": false,
      "t": 162781.92979166706,
      "d": 1781.6277083333407,
      "v": 71
    },
    {
      "midi": 48,
      "hit": false,
      "t": 162798.275,
      "d": 1977.770208333328,
      "v": 61
    },
    {
      "midi": 66,
      "hit": false,
      "t": 162847.3106250004,
      "d": 1716.2468750000116,
      "v": 56
    },
    {
      "midi": 54,
      "hit": false,
      "t": 162847.3106250004,
      "d": 1732.5920833333512,
      "v": 53
    },
    {
      "midi": 52,
      "hit": false,
      "t": 164710.6643750004,
      "d": 1732.592083333322,
      "v": 53
    },
    {
      "midi": 49,
      "hit": false,
      "t": 164759.69999999998,
      "d": 1879.6989583333489,
      "v": 60
    },
    {
      "midi": 56,
      "hit": false,
      "t": 164808.7356250004,
      "d": 1536.4495833333349,
      "v": 55
    },
    {
      "midi": 61,
      "hit": false,
      "t": 164808.7356250004,
      "d": 1585.4852083333244,
      "v": 63
    },
    {
      "midi": 64,
      "hit": false,
      "t": 164808.7356250004,
      "d": 1585.4852083333244,
      "v": 63
    },
    {
      "midi": 54,
      "hit": false,
      "t": 166672.0893750004,
      "d": 1536.449583333364,
      "v": 71
    },
    {
      "midi": 63,
      "hit": false,
      "t": 166672.0893750004,
      "d": 1601.830416666693,
      "v": 53
    },
    {
      "midi": 59,
      "hit": false,
      "t": 166688.43458333373,
      "d": 1585.4852083333535,
      "v": 64
    },
    {
      "midi": 51,
      "hit": false,
      "t": 166721.125,
      "d": 1814.3181249999907,
      "v": 64
    },
    {
      "midi": 51,
      "hit": false,
      "t": 166721.1250000004,
      "d": 1732.5920833333512,
      "v": 53
    },
    {
      "midi": 64,
      "hit": false,
      "t": 168666.20479166709,
      "d": 1536.4495833333349,
      "v": 49
    },
    {
      "midi": 56,
      "hit": false,
      "t": 168666.20479166709,
      "d": 1552.7947916666744,
      "v": 70
    },
    {
      "midi": 61,
      "hit": false,
      "t": 168666.20479166709,
      "d": 1716.2468750000116,
      "v": 72
    },
    {
      "midi": 49,
      "hit": false,
      "t": 168682.55,
      "d": 10722.456666666665,
      "v": 54
    },
    {
      "midi": 68,
      "hit": false,
      "t": 168682.55000000042,
      "d": 1438.3783333333267,
      "v": 56
    },
    {
      "midi": 52,
      "hit": false,
      "t": 168731.5856250004,
      "d": 1732.5920833333512,
      "v": 53
    },
    {
      "midi": 60,
      "hit": false,
      "t": 170627.6297916671,
      "d": 653.8083333333489,
      "v": 71
    },
    {
      "midi": 63,
      "hit": false,
      "t": 170660.32020833378,
      "d": 686.4987499999988,
      "v": 56
    },
    {
      "midi": 56,
      "hit": false,
      "t": 170660.32020833378,
      "d": 1732.592083333322,
      "v": 53
    },
    {
      "midi": 61,
      "hit": false,
      "t": 171248.74770833377,
      "d": 2631.5785416666768,
      "v": 71
    },
    {
      "midi": 64,
      "hit": false,
      "t": 171281.43812500045,
      "d": 2549.852500000008,
      "v": 56
    },
    {
      "midi": 68,
      "hit": false,
      "t": 171330.47375000044,
      "d": 2402.7456250000105,
      "v": 55
    },
    {
      "midi": 68,
      "hit": false,
      "t": 174566.82500000045,
      "d": 1405.6879166666768,
      "v": 55
    },
    {
      "midi": 61,
      "hit": false,
      "t": 174566.82500000045,
      "d": 1552.7947916666744,
      "v": 59
    },
    {
      "midi": 64,
      "hit": false,
      "t": 174583.1702083338,
      "d": 1405.6879166666768,
      "v": 55
    },
    {
      "midi": 56,
      "hit": false,
      "t": 175874.44166666712,
      "d": 1372.9974999999977,
      "v": 81
    },
    {
      "midi": 64,
      "hit": false,
      "t": 176528.25000000047,
      "d": 1405.6879166666477,
      "v": 55
    },
    {
      "midi": 61,
      "hit": false,
      "t": 176528.25000000047,
      "d": 1438.3783333333267,
      "v": 63
    },
    {
      "midi": 68,
      "hit": false,
      "t": 176577.28562500046,
      "d": 1405.6879166666768,
      "v": 55
    },
    {
      "midi": 56,
      "hit": false,
      "t": 177835.8666666671,
      "d": 1193.20020833335,
      "v": 75
    },
    {
      "midi": 61,
      "hit": false,
      "t": 178489.67500000045,
      "d": 1323.9618750000081,
      "v": 60
    },
    {
      "midi": 64,
      "hit": false,
      "t": 178489.67500000045,
      "d": 1405.6879166666768,
      "v": 55
    },
    {
      "midi": 68,
      "hit": false,
      "t": 178489.67500000045,
      "d": 1405.6879166666768,
      "v": 55
    },
    {
      "midi": 56,
      "hit": false,
      "t": 179797.29166666712,
      "d": 1209.5454166666896,
      "v": 78
    },
    {
      "midi": 66,
      "hit": false,
      "t": 180434.75479166713,
      "d": 1405.6879166666768,
      "v": 55
    },
    {
      "midi": 44,
      "hit": false,
      "t": 180451.09999999998,
      "d": 7567.831458333327,
      "v": 68
    },
    {
      "midi": 63,
      "hit": false,
      "t": 180451.10000000047,
      "d": 1340.3070833333477,
      "v": 58
    },
    {
      "midi": 60,
      "hit": false,
      "t": 180467.4452083338,
      "d": 1405.6879166666768,
      "v": 55
    },
    {
      "midi": 56,
      "hit": false,
      "t": 181758.71666666714,
      "d": 1160.509791666671,
      "v": 77
    },
    {
      "midi": 66,
      "hit": false,
      "t": 182396.17979166715,
      "d": 1405.6879166666768,
      "v": 55
    },
    {
      "midi": 63,
      "hit": false,
      "t": 182412.5250000005,
      "d": 1323.9618750000081,
      "v": 66
    },
    {
      "midi": 60,
      "hit": false,
      "t": 182412.5250000005,
      "d": 1405.6879166666768,
      "v": 55
    },
    {
      "midi": 56,
      "hit": false,
      "t": 183720.14166666716,
      "d": 1225.890625000029,
      "v": 69
    },
    {
      "midi": 63,
      "hit": false,
      "t": 184373.9500000005,
      "d": 1291.2714583333582,
      "v": 66
    },
    {
      "midi": 66,
      "hit": false,
      "t": 184373.9500000005,
      "d": 1405.6879166667059,
      "v": 55
    },
    {
      "midi": 60,
      "hit": false,
      "t": 184390.29520833385,
      "d": 1405.6879166667059,
      "v": 55
    },
    {
      "midi": 56,
      "hit": false,
      "t": 185681.5666666672,
      "d": 1062.438541666692,
      "v": 74
    },
    {
      "midi": 60,
      "hit": false,
      "t": 186319.0297916672,
      "d": 1405.6879166666768,
      "v": 55
    },
    {
      "midi": 63,
      "hit": false,
      "t": 186335.37500000055,
      "d": 1618.1756250000035,
      "v": 66
    },
    {
      "midi": 66,
      "hit": false,
      "t": 186351.7202083339,
      "d": 1405.6879166666768,
      "v": 55
    },
    {
      "midi": 56,
      "hit": false,
      "t": 187642.99166666722,
      "d": 653.8083333333489,
      "v": 76
    },
    {
      "midi": 49,
      "hit": false,
      "t": 188296.79999999996,
      "d": 5966.001041666663,
      "v": 72
    },
    {
      "midi": 56,
      "hit": false,
      "t": 188345.83562500056,
      "d": 1536.4495833333349,
      "v": 55
    },
    {
      "midi": 61,
      "hit": false,
      "t": 188345.83562500056,
      "d": 1585.4852083333244,
      "v": 49
    },
    {
      "midi": 56,
      "hit": false,
      "t": 190209.18937500054,
      "d": 1536.4495833333349,
      "v": 71
    },
    {
      "midi": 64,
      "hit": false,
      "t": 190209.18937500054,
      "d": 1601.830416666664,
      "v": 53
    },
    {
      "midi": 61,
      "hit": false,
      "t": 190225.53458333388,
      "d": 1585.4852083333244,
      "v": 64
    },
    {
      "midi": 68,
      "hit": false,
      "t": 190258.22500000056,
      "d": 1438.3783333333267,
      "v": 56
    },
    {
      "midi": 52,
      "hit": false,
      "t": 190258.22500000056,
      "d": 1732.592083333322,
      "v": 53
    },
    {
      "midi": 64,
      "hit": false,
      "t": 192203.3047916672,
      "d": 1536.4495833333349,
      "v": 49
    },
    {
      "midi": 56,
      "hit": false,
      "t": 192203.3047916672,
      "d": 1552.7947916666744,
      "v": 70
    },
    {
      "midi": 61,
      "hit": false,
      "t": 192203.3047916672,
      "d": 1716.2468750000116,
      "v": 72
    },
    {
      "midi": 68,
      "hit": false,
      "t": 192219.65000000055,
      "d": 1438.3783333333267,
      "v": 56
    },
    {
      "midi": 52,
      "hit": false,
      "t": 192268.68562500054,
      "d": 1732.5920833333512,
      "v": 53
    },
    {
      "midi": 63,
      "hit": false,
      "t": 194164.72979166723,
      "d": 1781.6277083333407,
      "v": 71
    },
    {
      "midi": 48,
      "hit": false,
      "t": 194181.07499999995,
      "d": 1977.770208333328,
      "v": 61
    },
    {
      "midi": 66,
      "hit": false,
      "t": 194230.11062500055,
      "d": 1716.2468750000116,
      "v": 56
    },
    {
      "midi": 54,
      "hit": false,
      "t": 194230.11062500055,
      "d": 1732.5920833333512,
      "v": 53
    },
    {
      "midi": 52,
      "hit": false,
      "t": 196093.46437500056,
      "d": 1732.592083333322,
      "v": 53
    },
    {
      "midi": 49,
      "hit": false,
      "t": 196142.49999999994,
      "d": 1879.6989583333489,
      "v": 60
    },
    {
      "midi": 56,
      "hit": false,
      "t": 196191.53562500057,
      "d": 1536.4495833333349,
      "v": 55
    },
    {
      "midi": 61,
      "hit": false,
      "t": 196191.53562500057,
      "d": 1585.4852083333244,
      "v": 63
    },
    {
      "midi": 64,
      "hit": false,
      "t": 196191.53562500057,
      "d": 1585.4852083333244,
      "v": 63
    },
    {
      "midi": 54,
      "hit": false,
      "t": 198054.88937500055,
      "d": 1536.449583333364,
      "v": 71
    },
    {
      "midi": 63,
      "hit": false,
      "t": 198054.88937500055,
      "d": 1601.830416666693,
      "v": 53
    },
    {
      "midi": 59,
      "hit": false,
      "t": 198071.2345833339,
      "d": 1585.4852083333535,
      "v": 64
    },
    {
      "midi": 51,
      "hit": false,
      "t": 198103.92499999996,
      "d": 1814.3181249999907,
      "v": 64
    },
    {
      "midi": 66,
      "hit": false,
      "t": 198103.92500000057,
      "d": 1536.4495833333349,
      "v": 49
    },
    {
      "midi": 51,
      "hit": false,
      "t": 198103.92500000057,
      "d": 1732.5920833333512,
      "v": 53
    },
    {
      "midi": 64,
      "hit": false,
      "t": 200049.00479166725,
      "d": 1536.4495833333349,
      "v": 49
    },
    {
      "midi": 56,
      "hit": false,
      "t": 200049.00479166725,
      "d": 1552.7947916666744,
      "v": 70
    },
    {
      "midi": 61,
      "hit": false,
      "t": 200049.00479166725,
      "d": 1716.2468750000116,
      "v": 72
    },
    {
      "midi": 49,
      "hit": false,
      "t": 200065.34999999995,
      "d": 10722.456666666665,
      "v": 54
    },
    {
      "midi": 68,
      "hit": false,
      "t": 200065.3500000006,
      "d": 1438.3783333333267,
      "v": 56
    },
    {
      "midi": 52,
      "hit": false,
      "t": 200114.38562500058,
      "d": 1732.5920833333512,
      "v": 53
    },
    {
      "midi": 60,
      "hit": false,
      "t": 202010.42979166727,
      "d": 653.8083333333489,
      "v": 71
    },
    {
      "midi": 63,
      "hit": false,
      "t": 202043.12020833394,
      "d": 686.4987499999988,
      "v": 56
    },
    {
      "midi": 56,
      "hit": false,
      "t": 202043.12020833394,
      "d": 1732.592083333322,
      "v": 53
    },
    {
      "midi": 61,
      "hit": false,
      "t": 202631.54770833394,
      "d": 2631.5785416666768,
      "v": 71
    },
    {
      "midi": 64,
      "hit": false,
      "t": 202664.23812500061,
      "d": 2549.852500000008,
      "v": 56
    },
    {
      "midi": 68,
      "hit": false,
      "t": 202713.2737500006,
      "d": 2402.7456250000105,
      "v": 55
    },
    {
      "midi": 56,
      "hit": false,
      "t": 205884.24416666728,
      "d": 1552.7947916667035,
      "v": 54
    },
    {
      "midi": 61,
      "hit": false,
      "t": 205900.58937500062,
      "d": 1569.140000000043,
      "v": 52
    },
    {
      "midi": 64,
      "hit": false,
      "t": 205916.93458333396,
      "d": 1405.6879166666768,
      "v": 60
    },
    {
      "midi": 56,
      "hit": false,
      "t": 207894.70479166732,
      "d": 1454.7235416666663,
      "v": 65
    },
    {
      "midi": 64,
      "hit": false,
      "t": 207894.70479166732,
      "d": 1471.0687500000058,
      "v": 52
    },
    {
      "midi": 61,
      "hit": false,
      "t": 207894.70479166732,
      "d": 1503.759166666685,
      "v": 61
    },
    {
      "midi": 56,
      "hit": false,
      "t": 209872.47500000068,
      "d": 1814.3181250000198,
      "v": 59
    },
    {
      "midi": 61,
      "hit": false,
      "t": 209872.47500000068,
      "d": 1814.3181250000198,
      "v": 58
    },
    {
      "midi": 64,
      "hit": false,
      "t": 209888.82020833401,
      "d": 1879.6989583333489,
      "v": 60
    },
    {
      "midi": 42,
      "hit": false,
      "t": 211833.89999999994,
      "d": 2811.3758333333244,
      "v": 51
    },
    {
      "midi": 59,
      "hit": false,
      "t": 211833.9000000007,
      "d": 3301.732083333336,
      "v": 65
    },
    {
      "midi": 66,
      "hit": false,
      "t": 211850.24520833403,
      "d": 3040.2087499999907,
      "v": 54
    },
    {
      "midi": 54,
      "hit": false,
      "t": 211850.24520833403,
      "d": 3187.3156249999884,
      "v": 59
    },
    {
      "midi": 66,
      "hit": false,
      "t": 215724.05958333402,
      "d": 3759.3979166666977,
      "v": 48
    },
    {
      "midi": 61,
      "hit": false,
      "t": 215740.40479166736,
      "d": 3399.803333333344,
      "v": 62
    },
    {
      "midi": 42,
      "hit": false,
      "t": 215756.7499999999,
      "d": 3301.732083333336,
      "v": 41
    },
    {
      "midi": 54,
      "hit": false,
      "t": 215773.09520833404,
      "d": 3203.660833333328,
      "v": 47
    },
    {
      "midi": 58,
      "hit": false,
      "t": 215789.44041666738,
      "d": 3121.9347916666593,
      "v": 52
    },
    {
      "midi": 47,
      "hit": false,
      "t": 219679.59999999992,
      "d": 7502.450624999998,
      "v": 73
    },
    {
      "midi": 63,
      "hit": false,
      "t": 221575.6441666674,
      "d": 1732.592083333322,
      "v": 53
    },
    {
      "midi": 54,
      "hit": false,
      "t": 221591.98937500073,
      "d": 1667.211249999993,
      "v": 73
    },
    {
      "midi": 59,
      "hit": false,
      "t": 221608.33458333407,
      "d": 1650.8660416666535,
      "v": 52
    },
    {
      "midi": 66,
      "hit": false,
      "t": 221690.06062500074,
      "d": 1438.3783333333267,
      "v": 56
    },
    {
      "midi": 51,
      "hit": false,
      "t": 221690.06062500074,
      "d": 1732.592083333322,
      "v": 53
    },
    {
      "midi": 63,
      "hit": false,
      "t": 223553.41437500072,
      "d": 1618.1756250000035,
      "v": 65
    },
    {
      "midi": 59,
      "hit": false,
      "t": 223553.41437500072,
      "d": 1716.2468750000116,
      "v": 59
    },
    {
      "midi": 54,
      "hit": false,
      "t": 223569.75958333406,
      "d": 1748.9372916666616,
      "v": 65
    },
    {
      "midi": 66,
      "hit": false,
      "t": 223602.45000000074,
      "d": 1438.3783333333267,
      "v": 56
    },
    {
      "midi": 51,
      "hit": false,
      "t": 223651.48562500073,
      "d": 1732.592083333322,
      "v": 53
    },
    {
      "midi": 63,
      "hit": false,
      "t": 225514.8393750007,
      "d": 1667.211249999993,
      "v": 64
    },
    {
      "midi": 54,
      "hit": false,
      "t": 225514.8393750007,
      "d": 1748.9372916666616,
      "v": 64
    },
    {
      "midi": 59,
      "hit": false,
      "t": 225514.8393750007,
      "d": 1912.3893749999988,
      "v": 62
    },
    {
      "midi": 51,
      "hit": false,
      "t": 225563.8750000007,
      "d": 1732.5920833333512,
      "v": 53
    },
    {
      "midi": 66,
      "hit": false,
      "t": 225612.9106250007,
      "d": 1618.1756250000035,
      "v": 56
    },
    {
      "midi": 46,
      "hit": false,
      "t": 227525.29999999993,
      "d": 7404.3793749999895,
      "v": 76
    },
    {
      "midi": 63,
      "hit": false,
      "t": 229470.37979166736,
      "d": 1487.4139583333454,
      "v": 61
    },
    {
      "midi": 54,
      "hit": false,
      "t": 229470.37979166736,
      "d": 1536.4495833333349,
      "v": 66
    },
    {
      "midi": 51,
      "hit": false,
      "t": 229486.7250000007,
      "d": 1732.592083333322,
      "v": 53
    },
    {
      "midi": 66,
      "hit": false,
      "t": 229503.07020833404,
      "d": 1438.3783333333267,
      "v": 56
    },
    {
      "midi": 58,
      "hit": false,
      "t": 229503.07020833404,
      "d": 1552.7947916666453,
      "v": 77
    },
    {
      "midi": 63,
      "hit": false,
      "t": 231431.80479166735,
      "d": 1683.5564583333617,
      "v": 61
    },
    {
      "midi": 58,
      "hit": false,
      "t": 231448.1500000007,
      "d": 1585.4852083333535,
      "v": 70
    },
    {
      "midi": 66,
      "hit": false,
      "t": 231464.49520833403,
      "d": 1438.3783333333558,
      "v": 56
    },
    {
      "midi": 54,
      "hit": false,
      "t": 231464.49520833403,
      "d": 1585.4852083333535,
      "v": 66
    },
    {
      "midi": 51,
      "hit": false,
      "t": 231497.1856250007,
      "d": 1732.5920833333512,
      "v": 53
    },
    {
      "midi": 63,
      "hit": false,
      "t": 233376.88458333406,
      "d": 1945.079791666678,
      "v": 56
    },
    {
      "midi": 58,
      "hit": false,
      "t": 233393.2297916674,
      "d": 1797.9729166666511,
      "v": 70
    },
    {
      "midi": 54,
      "hit": false,
      "t": 233393.2297916674,
      "d": 1814.3181249999907,
      "v": 65
    },
    {
      "midi": 51,
      "hit": false,
      "t": 233409.57500000074,
      "d": 1732.592083333322,
      "v": 53
    },
    {
      "midi": 66,
      "hit": false,
      "t": 233425.92020833408,
      "d": 1438.3783333333267,
      "v": 56
    },
    {
      "midi": 44,
      "hit": false,
      "t": 235370.9999999999,
      "d": 7763.973958333343,
      "v": 71
    },
    {
      "midi": 56,
      "hit": false,
      "t": 237283.38937500073,
      "d": 1536.4495833333349,
      "v": 71
    },
    {
      "midi": 63,
      "hit": false,
      "t": 237283.38937500073,
      "d": 1601.830416666664,
      "v": 53
    },
    {
      "midi": 59,
      "hit": false,
      "t": 237299.73458333407,
      "d": 1585.4852083333244,
      "v": 64
    },
    {
      "midi": 68,
      "hit": false,
      "t": 237332.42500000075,
      "d": 1438.3783333333267,
      "v": 56
    },
    {
      "midi": 51,
      "hit": false,
      "t": 237332.42500000075,
      "d": 1732.592083333322,
      "v": 53
    },
    {
      "midi": 63,
      "hit": false,
      "t": 239277.5047916674,
      "d": 1536.4495833333349,
      "v": 49
    },
    {
      "midi": 56,
      "hit": false,
      "t": 239277.5047916674,
      "d": 1552.7947916666744,
      "v": 70
    },
    {
      "midi": 59,
      "hit": false,
      "t": 239277.5047916674,
      "d": 1716.2468750000116,
      "v": 72
    },
    {
      "midi": 68,
      "hit": false,
      "t": 239293.85000000073,
      "d": 1438.3783333333267,
      "v": 56
    },
    {
      "midi": 51,
      "hit": false,
      "t": 239342.88562500072,
      "d": 1732.5920833333512,
      "v": 53
    },
    {
      "midi": 59,
      "hit": false,
      "t": 241238.9297916674,
      "d": 1781.6277083333407,
      "v": 56
    },
    {
      "midi": 56,
      "hit": false,
      "t": 241255.27500000075,
      "d": 1765.2825000000012,
      "v": 77
    },
    {
      "midi": 63,
      "hit": false,
      "t": 241271.6202083341,
      "d": 1699.901666666672,
      "v": 47
    },
    {
      "midi": 68,
      "hit": false,
      "t": 241304.31062500077,
      "d": 1438.3783333333267,
      "v": 56
    },
    {
      "midi": 51,
      "hit": false,
      "t": 241304.31062500077,
      "d": 1732.592083333322,
      "v": 53
    },
    {
      "midi": 42,
      "hit": false,
      "t": 243216.69999999992,
      "d": 7551.486249999987,
      "v": 70
    },
    {
      "midi": 51,
      "hit": false,
      "t": 245129.08937500077,
      "d": 1732.5920833333803,
      "v": 53
    },
    {
      "midi": 63,
      "hit": false,
      "t": 245145.4345833341,
      "d": 1454.7235416666954,
      "v": 54
    },
    {
      "midi": 54,
      "hit": false,
      "t": 245161.77979166745,
      "d": 1422.0331250000163,
      "v": 75
    },
    {
      "midi": 66,
      "hit": false,
      "t": 245178.1250000008,
      "d": 1438.3783333333558,
      "v": 56
    },
    {
      "midi": 59,
      "hit": false,
      "t": 245178.1250000008,
      "d": 1536.449583333364,
      "v": 58
    },
    {
      "midi": 63,
      "hit": false,
      "t": 247123.2047916675,
      "d": 1405.6879166667059,
      "v": 50
    },
    {
      "midi": 54,
      "hit": false,
      "t": 247139.55000000083,
      "d": 1389.3427083333663,
      "v": 73
    },
    {
      "midi": 66,
      "hit": false,
      "t": 247139.55000000083,
      "d": 1438.3783333333558,
      "v": 56
    },
    {
      "midi": 59,
      "hit": false,
      "t": 247155.89520833417,
      "d": 1438.3783333333558,
      "v": 48
    },
    {
      "midi": 51,
      "hit": false,
      "t": 247188.58562500085,
      "d": 1732.5920833333512,
      "v": 53
    },
    {
      "midi": 54,
      "hit": false,
      "t": 249068.2845833342,
      "d": 1765.2825000000012,
      "v": 69
    },
    {
      "midi": 63,
      "hit": false,
      "t": 249068.2845833342,
      "d": 1863.3537500000093,
      "v": 54
    },
    {
      "midi": 59,
      "hit": false,
      "t": 249084.62979166754,
      "d": 1765.2825000000012,
      "v": 53
    },
    {
      "midi": 51,
      "hit": false,
      "t": 249100.97500000088,
      "d": 1732.592083333322,
      "v": 53
    },
    {
      "midi": 66,
      "hit": false,
      "t": 249150.01062500087,
      "d": 1438.3783333333267,
      "v": 56
    },
    {
      "midi": 40,
      "hit": false,
      "t": 251062.3999999999,
      "d": 7535.141041666677,
      "v": 72
    },
    {
      "midi": 56,
      "hit": false,
      "t": 252974.78937500087,
      "d": 1536.4495833333349,
      "v": 71
    },
    {
      "midi": 63,
      "hit": false,
      "t": 252974.78937500087,
      "d": 1601.830416666664,
      "v": 53
    },
    {
      "midi": 59,
      "hit": false,
      "t": 252991.1345833342,
      "d": 1585.4852083333244,
      "v": 64
    },
    {
      "midi": 68,
      "hit": false,
      "t": 253023.82500000088,
      "d": 1438.3783333333267,
      "v": 56
    },
    {
      "midi": 52,
      "hit": false,
      "t": 253023.82500000088,
      "d": 1732.592083333322,
      "v": 53
    },
    {
      "midi": 63,
      "hit": false,
      "t": 254968.90479166753,
      "d": 1536.4495833333349,
      "v": 49
    },
    {
      "midi": 56,
      "hit": false,
      "t": 254968.90479166753,
      "d": 1552.7947916666744,
      "v": 70
    },
    {
      "midi": 59,
      "hit": false,
      "t": 254968.90479166753,
      "d": 1716.2468750000116,
      "v": 72
    },
    {
      "midi": 68,
      "hit": false,
      "t": 254985.25000000087,
      "d": 1438.3783333333267,
      "v": 56
    },
    {
      "midi": 52,
      "hit": false,
      "t": 255034.28562500086,
      "d": 1732.5920833333512,
      "v": 53
    },
    {
      "midi": 59,
      "hit": false,
      "t": 256930.32979166755,
      "d": 1781.6277083333407,
      "v": 56
    },
    {
      "midi": 56,
      "hit": false,
      "t": 256946.6750000009,
      "d": 1765.2825000000012,
      "v": 77
    },
    {
      "midi": 63,
      "hit": false,
      "t": 256963.02020833423,
      "d": 1699.901666666672,
      "v": 47
    },
    {
      "midi": 68,
      "hit": false,
      "t": 256995.7106250009,
      "d": 1438.3783333333267,
      "v": 56
    },
    {
      "midi": 52,
      "hit": false,
      "t": 256995.7106250009,
      "d": 1732.592083333322,
      "v": 53
    },
    {
      "midi": 45,
      "hit": false,
      "t": 258908.09999999992,
      "d": 7486.105416666658,
      "v": 71
    },
    {
      "midi": 69,
      "hit": false,
      "t": 260820.4893750009,
      "d": 1536.449583333364,
      "v": 49
    },
    {
      "midi": 61,
      "hit": false,
      "t": 260820.4893750009,
      "d": 1601.8304166667222,
      "v": 53
    },
    {
      "midi": 57,
      "hit": false,
      "t": 260836.83458333425,
      "d": 1585.4852083333826,
      "v": 69
    },
    {
      "midi": 64,
      "hit": false,
      "t": 260869.52500000093,
      "d": 1438.3783333333267,
      "v": 56
    },
    {
      "midi": 52,
      "hit": false,
      "t": 260869.52500000093,
      "d": 1732.5920833333803,
      "v": 53
    },
    {
      "midi": 61,
      "hit": false,
      "t": 262814.60479166766,
      "d": 1536.4495833333349,
      "v": 49
    },
    {
      "midi": 69,
      "hit": false,
      "t": 262814.60479166766,
      "d": 1552.7947916666744,
      "v": 48
    },
    {
      "midi": 57,
      "hit": false,
      "t": 262814.60479166766,
      "d": 1716.2468750000116,
      "v": 72
    },
    {
      "midi": 64,
      "hit": false,
      "t": 262830.950000001,
      "d": 1438.3783333333558,
      "v": 56
    },
    {
      "midi": 52,
      "hit": false,
      "t": 262879.985625001,
      "d": 1732.592083333293,
      "v": 53
    },
    {
      "midi": 57,
      "hit": false,
      "t": 264776.02979166765,
      "d": 1781.627708333428,
      "v": 56
    },
    {
      "midi": 69,
      "hit": false,
      "t": 264792.375000001,
      "d": 1765.2825000000885,
      "v": 55
    },
    {
      "midi": 61,
      "hit": false,
      "t": 264808.7202083343,
      "d": 1699.9016666667303,
      "v": 53
    },
    {
      "midi": 64,
      "hit": false,
      "t": 264841.410625001,
      "d": 1438.3783333333558,
      "v": 65
    },
    {
      "midi": 52,
      "hit": false,
      "t": 264841.410625001,
      "d": 1732.5920833334094,
      "v": 53
    },
    {
      "midi": 47,
      "hit": false,
      "t": 266753.79999999993,
      "d": 7175.546458333323,
      "v": 72
    },
    {
      "midi": 54,
      "hit": false,
      "t": 268666.18937500106,
      "d": 1667.2112500000512,
      "v": 73
    },
    {
      "midi": 59,
      "hit": false,
      "t": 268682.5345833344,
      "d": 1650.8660416667117,
      "v": 52
    },
    {
      "midi": 63,
      "hit": false,
      "t": 268698.87979166774,
      "d": 1732.5920833333512,
      "v": 53
    },
    {
      "midi": 66,
      "hit": false,
      "t": 268764.2606250011,
      "d": 1438.3783333333558,
      "v": 56
    },
    {
      "midi": 51,
      "hit": false,
      "t": 268764.2606250011,
      "d": 1732.5920833333512,
      "v": 53
    },
    {
      "midi": 63,
      "hit": false,
      "t": 270627.6143750011,
      "d": 1618.1756250000326,
      "v": 65
    },
    {
      "midi": 59,
      "hit": false,
      "t": 270627.6143750011,
      "d": 1716.2468750000116,
      "v": 59
    },
    {
      "midi": 54,
      "hit": false,
      "t": 270643.95958333445,
      "d": 1748.9372916666907,
      "v": 65
    },
    {
      "midi": 66,
      "hit": false,
      "t": 270676.65000000113,
      "d": 1438.3783333333558,
      "v": 56
    },
    {
      "midi": 51,
      "hit": false,
      "t": 270725.68562500115,
      "d": 1732.5920833333512,
      "v": 53
    },
    {
      "midi": 63,
      "hit": false,
      "t": 272589.03937500116,
      "d": 1667.2112500000512,
      "v": 64
    },
    {
      "midi": 54,
      "hit": false,
      "t": 272589.03937500116,
      "d": 1748.937291666749,
      "v": 64
    },
    {
      "midi": 59,
      "hit": false,
      "t": 272589.03937500116,
      "d": 1912.3893750000861,
      "v": 62
    },
    {
      "midi": 51,
      "hit": false,
      "t": 272638.0750000012,
      "d": 1732.5920833334094,
      "v": 53
    },
    {
      "midi": 66,
      "hit": false,
      "t": 272687.1106250012,
      "d": 1618.1756250000326,
      "v": 56
    },
    {
      "midi": 42,
      "hit": false,
      "t": 273945.6916666666,
      "d": 555.7370833333116,
      "v": 60
    },
    {
      "midi": 35,
      "hit": false,
      "t": 274599.4999999999,
      "d": 7289.962916666642,
      "v": 66
    },
    {
      "midi": 54,
      "hit": false,
      "t": 276511.88937500125,
      "d": 1667.2112500000512,
      "v": 73
    },
    {
      "midi": 59,
      "hit": false,
      "t": 276528.2345833346,
      "d": 1650.8660416667117,
      "v": 52
    },
    {
      "midi": 63,
      "hit": false,
      "t": 276544.57979166793,
      "d": 1732.5920833333512,
      "v": 53
    },
    {
      "midi": 66,
      "hit": false,
      "t": 276609.9606250013,
      "d": 1438.3783333333558,
      "v": 56
    },
    {
      "midi": 51,
      "hit": false,
      "t": 276609.9606250013,
      "d": 1732.5920833333512,
      "v": 53
    },
    {
      "midi": 63,
      "hit": false,
      "t": 278473.3143750013,
      "d": 1618.1756250000326,
      "v": 65
    },
    {
      "midi": 59,
      "hit": false,
      "t": 278473.3143750013,
      "d": 1716.2468750000116,
      "v": 59
    },
    {
      "midi": 54,
      "hit": false,
      "t": 278489.65958333464,
      "d": 1748.9372916666907,
      "v": 65
    },
    {
      "midi": 66,
      "hit": false,
      "t": 278522.3500000013,
      "d": 1438.3783333333558,
      "v": 56
    },
    {
      "midi": 51,
      "hit": false,
      "t": 278571.38562500133,
      "d": 1732.5920833333512,
      "v": 53
    },
    {
      "midi": 63,
      "hit": false,
      "t": 280434.73937500134,
      "d": 1667.2112500000512,
      "v": 64
    },
    {
      "midi": 54,
      "hit": false,
      "t": 280434.73937500134,
      "d": 1748.937291666749,
      "v": 64
    },
    {
      "midi": 59,
      "hit": false,
      "t": 280434.73937500134,
      "d": 1912.3893750000861,
      "v": 62
    },
    {
      "midi": 51,
      "hit": false,
      "t": 280483.77500000136,
      "d": 1732.5920833334094,
      "v": 53
    },
    {
      "midi": 66,
      "hit": false,
      "t": 280532.8106250014,
      "d": 1618.1756250000326,
      "v": 56
    },
    {
      "midi": 47,
      "hit": false,
      "t": 282445.19999999984,
      "d": 7502.450624999998,
      "v": 73
    },
    {
      "midi": 63,
      "hit": false,
      "t": 284341.2441666681,
      "d": 1732.5920833333512,
      "v": 53
    },
    {
      "midi": 54,
      "hit": false,
      "t": 284357.58937500144,
      "d": 1667.211249999993,
      "v": 73
    },
    {
      "midi": 59,
      "hit": false,
      "t": 284373.9345833348,
      "d": 1650.8660416666535,
      "v": 52
    },
    {
      "midi": 66,
      "hit": false,
      "t": 284455.6606250014,
      "d": 1438.3783333333558,
      "v": 56
    },
    {
      "midi": 51,
      "hit": false,
      "t": 284455.6606250014,
      "d": 1732.5920833333512,
      "v": 53
    },
    {
      "midi": 63,
      "hit": false,
      "t": 286319.0143750014,
      "d": 1618.1756250000326,
      "v": 65
    },
    {
      "midi": 59,
      "hit": false,
      "t": 286319.0143750014,
      "d": 1716.2468750000116,
      "v": 59
    },
    {
      "midi": 54,
      "hit": false,
      "t": 286335.35958333476,
      "d": 1748.9372916666907,
      "v": 65
    },
    {
      "midi": 66,
      "hit": false,
      "t": 286368.05000000144,
      "d": 1438.3783333333558,
      "v": 56
    },
    {
      "midi": 51,
      "hit": false,
      "t": 286417.08562500146,
      "d": 1732.5920833333512,
      "v": 53
    },
    {
      "midi": 63,
      "hit": false,
      "t": 288280.4393750015,
      "d": 1667.2112500000512,
      "v": 64
    },
    {
      "midi": 54,
      "hit": false,
      "t": 288280.4393750015,
      "d": 1748.937291666749,
      "v": 64
    },
    {
      "midi": 59,
      "hit": false,
      "t": 288280.4393750015,
      "d": 1912.3893750000861,
      "v": 62
    },
    {
      "midi": 51,
      "hit": false,
      "t": 288329.4750000015,
      "d": 1732.5920833334094,
      "v": 53
    },
    {
      "midi": 66,
      "hit": false,
      "t": 288378.5106250015,
      "d": 1618.1756250000326,
      "v": 56
    },
    {
      "midi": 46,
      "hit": false,
      "t": 290290.89999999985,
      "d": 7404.379375000019,
      "v": 76
    },
    {
      "midi": 63,
      "hit": false,
      "t": 292235.97979166824,
      "d": 1487.4139583333745,
      "v": 61
    },
    {
      "midi": 54,
      "hit": false,
      "t": 292235.97979166824,
      "d": 1536.449583333393,
      "v": 66
    },
    {
      "midi": 51,
      "hit": false,
      "t": 292252.3250000016,
      "d": 1732.5920833334094,
      "v": 53
    },
    {
      "midi": 66,
      "hit": false,
      "t": 292268.6702083349,
      "d": 1438.3783333333558,
      "v": 56
    },
    {
      "midi": 58,
      "hit": false,
      "t": 292268.6702083349,
      "d": 1552.7947916667326,
      "v": 77
    },
    {
      "midi": 63,
      "hit": false,
      "t": 294197.40479166835,
      "d": 1683.5564583333908,
      "v": 61
    },
    {
      "midi": 58,
      "hit": false,
      "t": 294213.7500000017,
      "d": 1585.4852083333535,
      "v": 70
    },
    {
      "midi": 66,
      "hit": false,
      "t": 294230.095208335,
      "d": 1438.3783333333558,
      "v": 56
    },
    {
      "midi": 54,
      "hit": false,
      "t": 294230.095208335,
      "d": 1585.4852083333535,
      "v": 66
    },
    {
      "midi": 51,
      "hit": false,
      "t": 294262.7856250017,
      "d": 1732.5920833333512,
      "v": 53
    },
    {
      "midi": 63,
      "hit": false,
      "t": 296142.48458333506,
      "d": 1945.079791666707,
      "v": 56
    },
    {
      "midi": 58,
      "hit": false,
      "t": 296158.8297916684,
      "d": 1797.9729166667094,
      "v": 70
    },
    {
      "midi": 54,
      "hit": false,
      "t": 296158.8297916684,
      "d": 1814.318125000049,
      "v": 65
    },
    {
      "midi": 51,
      "hit": false,
      "t": 296175.17500000173,
      "d": 1732.5920833333512,
      "v": 53
    },
    {
      "midi": 66,
      "hit": false,
      "t": 296191.5202083351,
      "d": 1438.3783333333558,
      "v": 56
    },
    {
      "midi": 44,
      "hit": false,
      "t": 298136.59999999986,
      "d": 7763.973958333314,
      "v": 71
    },
    {
      "midi": 56,
      "hit": false,
      "t": 300048.98937500175,
      "d": 1536.449583333393,
      "v": 71
    },
    {
      "midi": 63,
      "hit": false,
      "t": 300048.98937500175,
      "d": 1601.8304166667513,
      "v": 53
    },
    {
      "midi": 59,
      "hit": false,
      "t": 300065.3345833351,
      "d": 1585.4852083334117,
      "v": 64
    },
    {
      "midi": 68,
      "hit": false,
      "t": 300098.02500000177,
      "d": 1438.3783333333558,
      "v": 56
    },
    {
      "midi": 51,
      "hit": false,
      "t": 300098.02500000177,
      "d": 1732.5920833334094,
      "v": 53
    },
    {
      "midi": 63,
      "hit": false,
      "t": 302043.10479166853,
      "d": 1536.4495833333349,
      "v": 49
    },
    {
      "midi": 56,
      "hit": false,
      "t": 302043.10479166853,
      "d": 1552.7947916666744,
      "v": 70
    },
    {
      "midi": 59,
      "hit": false,
      "t": 302043.10479166853,
      "d": 1716.2468750000116,
      "v": 72
    },
    {
      "midi": 68,
      "hit": false,
      "t": 302059.4500000019,
      "d": 1438.3783333333558,
      "v": 56
    },
    {
      "midi": 51,
      "hit": false,
      "t": 302108.4856250019,
      "d": 1732.592083333293,
      "v": 53
    },
    {
      "midi": 59,
      "hit": false,
      "t": 304004.5297916685,
      "d": 1781.627708333428,
      "v": 56
    },
    {
      "midi": 56,
      "hit": false,
      "t": 304020.87500000186,
      "d": 1765.2825000000885,
      "v": 77
    },
    {
      "midi": 63,
      "hit": false,
      "t": 304037.2202083352,
      "d": 1699.9016666667303,
      "v": 47
    },
    {
      "midi": 68,
      "hit": false,
      "t": 304069.9106250019,
      "d": 1438.3783333333558,
      "v": 56
    },
    {
      "midi": 51,
      "hit": false,
      "t": 304069.9106250019,
      "d": 1732.5920833334094,
      "v": 53
    },
    {
      "midi": 42,
      "hit": false,
      "t": 305982.2999999998,
      "d": 7551.486250000016,
      "v": 70
    },
    {
      "midi": 51,
      "hit": false,
      "t": 307894.68937500194,
      "d": 1732.5920833333512,
      "v": 53
    },
    {
      "midi": 63,
      "hit": false,
      "t": 307911.0345833353,
      "d": 1454.7235416666954,
      "v": 54
    },
    {
      "midi": 54,
      "hit": false,
      "t": 307927.3797916686,
      "d": 1422.0331250000163,
      "v": 75
    },
    {
      "midi": 66,
      "hit": false,
      "t": 307943.72500000196,
      "d": 1438.3783333333558,
      "v": 56
    },
    {
      "midi": 59,
      "hit": false,
      "t": 307943.72500000196,
      "d": 1536.4495833333349,
      "v": 58
    },
    {
      "midi": 63,
      "hit": false,
      "t": 309888.8047916686,
      "d": 1405.6879166666768,
      "v": 50
    },
    {
      "midi": 54,
      "hit": false,
      "t": 309905.15000000194,
      "d": 1389.3427083333372,
      "v": 73
    },
    {
      "midi": 66,
      "hit": false,
      "t": 309905.15000000194,
      "d": 1438.3783333333558,
      "v": 56
    },
    {
      "midi": 59,
      "hit": false,
      "t": 309921.4952083353,
      "d": 1438.3783333333558,
      "v": 48
    },
    {
      "midi": 51,
      "hit": false,
      "t": 309954.18562500196,
      "d": 1732.5920833333512,
      "v": 53
    },
    {
      "midi": 54,
      "hit": false,
      "t": 311833.8845833353,
      "d": 1765.2825000000303,
      "v": 69
    },
    {
      "midi": 63,
      "hit": false,
      "t": 311833.8845833353,
      "d": 1863.3537500000093,
      "v": 54
    },
    {
      "midi": 59,
      "hit": false,
      "t": 311850.22979166865,
      "d": 1765.2825000000303,
      "v": 53
    },
    {
      "midi": 51,
      "hit": false,
      "t": 311866.575000002,
      "d": 1732.5920833333512,
      "v": 53
    },
    {
      "midi": 66,
      "hit": false,
      "t": 311915.610625002,
      "d": 1438.3783333333558,
      "v": 56
    },
    {
      "midi": 40,
      "hit": false,
      "t": 313827.9999999998,
      "d": 7535.141041666677,
      "v": 72
    },
    {
      "midi": 56,
      "hit": false,
      "t": 315740.389375002,
      "d": 1536.449583333393,
      "v": 71
    },
    {
      "midi": 63,
      "hit": false,
      "t": 315740.389375002,
      "d": 1601.8304166667513,
      "v": 53
    },
    {
      "midi": 59,
      "hit": false,
      "t": 315756.73458333535,
      "d": 1585.4852083334117,
      "v": 64
    },
    {
      "midi": 68,
      "hit": false,
      "t": 315789.425000002,
      "d": 1438.3783333333558,
      "v": 56
    },
    {
      "midi": 52,
      "hit": false,
      "t": 315789.425000002,
      "d": 1732.5920833334094,
      "v": 53
    },
    {
      "midi": 63,
      "hit": false,
      "t": 317734.5047916688,
      "d": 1536.4495833333349,
      "v": 49
    },
    {
      "midi": 56,
      "hit": false,
      "t": 317734.5047916688,
      "d": 1552.7947916666744,
      "v": 70
    },
    {
      "midi": 59,
      "hit": false,
      "t": 317734.5047916688,
      "d": 1716.2468750000116,
      "v": 72
    },
    {
      "midi": 68,
      "hit": false,
      "t": 317750.85000000213,
      "d": 1438.3783333333558,
      "v": 56
    },
    {
      "midi": 52,
      "hit": false,
      "t": 317799.88562500215,
      "d": 1732.592083333293,
      "v": 53
    },
    {
      "midi": 59,
      "hit": false,
      "t": 319695.9297916688,
      "d": 1781.627708333428,
      "v": 56
    },
    {
      "midi": 56,
      "hit": false,
      "t": 319712.2750000021,
      "d": 1765.2825000000885,
      "v": 77
    },
    {
      "midi": 63,
      "hit": false,
      "t": 319728.62020833546,
      "d": 1699.9016666667303,
      "v": 47
    },
    {
      "midi": 68,
      "hit": false,
      "t": 319761.31062500214,
      "d": 1438.3783333333558,
      "v": 56
    },
    {
      "midi": 52,
      "hit": false,
      "t": 319761.31062500214,
      "d": 1732.5920833334094,
      "v": 53
    },
    {
      "midi": 45,
      "hit": false,
      "t": 321673.69999999984,
      "d": 7486.105416666658,
      "v": 71
    },
    {
      "midi": 69,
      "hit": false,
      "t": 323586.0893750022,
      "d": 1536.449583333393,
      "v": 49
    },
    {
      "midi": 61,
      "hit": false,
      "t": 323586.0893750022,
      "d": 1601.8304166667513,
      "v": 53
    },
    {
      "midi": 57,
      "hit": false,
      "t": 323602.43458333553,
      "d": 1585.4852083334117,
      "v": 69
    },
    {
      "midi": 64,
      "hit": false,
      "t": 323635.1250000022,
      "d": 1438.3783333333558,
      "v": 56
    },
    {
      "midi": 52,
      "hit": false,
      "t": 323635.1250000022,
      "d": 1732.5920833334094,
      "v": 53
    },
    {
      "midi": 61,
      "hit": false,
      "t": 325580.204791669,
      "d": 1536.4495833333349,
      "v": 49
    },
    {
      "midi": 69,
      "hit": false,
      "t": 325580.204791669,
      "d": 1552.7947916666744,
      "v": 48
    },
    {
      "midi": 57,
      "hit": false,
      "t": 325580.204791669,
      "d": 1716.2468750000116,
      "v": 72
    },
    {
      "midi": 64,
      "hit": false,
      "t": 325596.5500000023,
      "d": 1438.3783333333558,
      "v": 56
    },
    {
      "midi": 52,
      "hit": false,
      "t": 325645.58562500234,
      "d": 1732.592083333293,
      "v": 53
    },
    {
      "midi": 57,
      "hit": false,
      "t": 327541.62979166897,
      "d": 1781.627708333428,
      "v": 56
    },
    {
      "midi": 69,
      "hit": false,
      "t": 327557.9750000023,
      "d": 1765.2825000000885,
      "v": 55
    },
    {
      "midi": 61,
      "hit": false,
      "t": 327574.32020833564,
      "d": 1699.9016666667303,
      "v": 53
    },
    {
      "midi": 64,
      "hit": false,
      "t": 327607.0106250023,
      "d": 1438.3783333333558,
      "v": 65
    },
    {
      "midi": 52,
      "hit": false,
      "t": 327607.0106250023,
      "d": 1732.5920833334094,
      "v": 53
    },
    {
      "midi": 47,
      "hit": false,
      "t": 329519.39999999985,
      "d": 7175.546458333323,
      "v": 72
    },
    {
      "midi": 54,
      "hit": false,
      "t": 331431.7893750024,
      "d": 1667.2112500000512,
      "v": 73
    },
    {
      "midi": 59,
      "hit": false,
      "t": 331448.1345833357,
      "d": 1650.8660416667117,
      "v": 52
    },
    {
      "midi": 63,
      "hit": false,
      "t": 331464.47979166906,
      "d": 1732.5920833333512,
      "v": 53
    },
    {
      "midi": 66,
      "hit": false,
      "t": 331529.8606250024,
      "d": 1438.3783333333558,
      "v": 56
    },
    {
      "midi": 51,
      "hit": false,
      "t": 331529.8606250024,
      "d": 1732.5920833333512,
      "v": 53
    },
    {
      "midi": 63,
      "hit": false,
      "t": 333393.2143750024,
      "d": 1618.1756250000326,
      "v": 65
    },
    {
      "midi": 59,
      "hit": false,
      "t": 333393.2143750024,
      "d": 1716.2468750000116,
      "v": 59
    },
    {
      "midi": 54,
      "hit": false,
      "t": 333409.55958333577,
      "d": 1748.9372916666907,
      "v": 65
    },
    {
      "midi": 66,
      "hit": false,
      "t": 333442.25000000244,
      "d": 1438.3783333333558,
      "v": 56
    },
    {
      "midi": 51,
      "hit": false,
      "t": 333491.28562500246,
      "d": 1732.5920833333512,
      "v": 53
    },
    {
      "midi": 63,
      "hit": false,
      "t": 335354.6393750025,
      "d": 1667.2112500000512,
      "v": 64
    },
    {
      "midi": 54,
      "hit": false,
      "t": 335354.6393750025,
      "d": 1748.937291666749,
      "v": 64
    },
    {
      "midi": 59,
      "hit": false,
      "t": 335354.6393750025,
      "d": 1912.3893750000861,
      "v": 62
    },
    {
      "midi": 51,
      "hit": false,
      "t": 335403.6750000025,
      "d": 1732.5920833334094,
      "v": 53
    },
    {
      "midi": 66,
      "hit": false,
      "t": 335452.7106250025,
      "d": 1618.1756250000326,
      "v": 56
    },
    {
      "midi": 42,
      "hit": false,
      "t": 336711.2916666665,
      "d": 555.7370833333116,
      "v": 60
    },
    {
      "midi": 47,
      "hit": false,
      "t": 337365.0999999998,
      "d": 7289.962916666642,
      "v": 66
    },
    {
      "midi": 54,
      "hit": false,
      "t": 339277.48937500257,
      "d": 1667.2112500000512,
      "v": 73
    },
    {
      "midi": 59,
      "hit": false,
      "t": 339293.8345833359,
      "d": 1650.8660416667117,
      "v": 52
    },
    {
      "midi": 63,
      "hit": false,
      "t": 339310.17979166924,
      "d": 1732.5920833333512,
      "v": 53
    },
    {
      "midi": 66,
      "hit": false,
      "t": 339375.5606250026,
      "d": 1438.3783333333558,
      "v": 56
    },
    {
      "midi": 51,
      "hit": false,
      "t": 339375.5606250026,
      "d": 1732.5920833333512,
      "v": 53
    },
    {
      "midi": 63,
      "hit": false,
      "t": 341238.9143750026,
      "d": 1618.1756250000326,
      "v": 65
    },
    {
      "midi": 59,
      "hit": false,
      "t": 341238.9143750026,
      "d": 1716.2468750000116,
      "v": 59
    },
    {
      "midi": 54,
      "hit": false,
      "t": 341255.25958333595,
      "d": 1748.9372916666907,
      "v": 65
    },
    {
      "midi": 66,
      "hit": false,
      "t": 341287.95000000263,
      "d": 1438.3783333333558,
      "v": 56
    },
    {
      "midi": 51,
      "hit": false,
      "t": 341336.98562500265,
      "d": 1732.5920833333512,
      "v": 53
    },
    {
      "midi": 63,
      "hit": false,
      "t": 343200.33937500266,
      "d": 1667.2112500000512,
      "v": 64
    },
    {
      "midi": 54,
      "hit": false,
      "t": 343200.33937500266,
      "d": 1748.937291666749,
      "v": 64
    },
    {
      "midi": 59,
      "hit": false,
      "t": 343200.33937500266,
      "d": 1912.3893750000861,
      "v": 62
    },
    {
      "midi": 51,
      "hit": false,
      "t": 343249.3750000027,
      "d": 1732.5920833334094,
      "v": 53
    },
    {
      "midi": 66,
      "hit": false,
      "t": 343298.4106250027,
      "d": 1618.1756250000326,
      "v": 56
    },
    {
      "midi": 64,
      "hit": false,
      "t": 345194.4547916694,
      "d": 1487.4139583333745,
      "v": 55
    },
    {
      "midi": 49,
      "hit": false,
      "t": 345210.79999999976,
      "d": 7486.105416666658,
      "v": 67
    },
    {
      "midi": 61,
      "hit": false,
      "t": 345210.8000000027,
      "d": 1405.6879166666768,
      "v": 67
    },
    {
      "midi": 68,
      "hit": false,
      "t": 345259.83562500274,
      "d": 1405.6879166666768,
      "v": 55
    },
    {
      "midi": 56,
      "hit": false,
      "t": 346518.4166666694,
      "d": 1242.2358333333395,
      "v": 70
    },
    {
      "midi": 68,
      "hit": false,
      "t": 347172.22500000277,
      "d": 1405.6879166666185,
      "v": 55
    },
    {
      "midi": 61,
      "hit": false,
      "t": 347172.22500000277,
      "d": 1552.7947916666162,
      "v": 59
    },
    {
      "midi": 64,
      "hit": false,
      "t": 347188.5702083361,
      "d": 1405.6879166666185,
      "v": 55
    },
    {
      "midi": 56,
      "hit": false,
      "t": 348479.8416666694,
      "d": 1372.9974999999977,
      "v": 81
    },
    {
      "midi": 64,
      "hit": false,
      "t": 349133.6500000027,
      "d": 1405.6879166666768,
      "v": 55
    },
    {
      "midi": 61,
      "hit": false,
      "t": 349133.6500000027,
      "d": 1438.3783333333558,
      "v": 63
    },
    {
      "midi": 68,
      "hit": false,
      "t": 349182.6856250027,
      "d": 1405.6879166666768,
      "v": 55
    },
    {
      "midi": 56,
      "hit": false,
      "t": 350441.2666666694,
      "d": 1193.200208333321,
      "v": 75
    },
    {
      "midi": 61,
      "hit": false,
      "t": 351095.07500000275,
      "d": 1323.961874999979,
      "v": 60
    },
    {
      "midi": 64,
      "hit": false,
      "t": 351095.07500000275,
      "d": 1405.6879166666185,
      "v": 55
    },
    {
      "midi": 68,
      "hit": false,
      "t": 351095.07500000275,
      "d": 1405.6879166666185,
      "v": 55
    },
    {
      "midi": 56,
      "hit": false,
      "t": 352402.6916666694,
      "d": 1209.5454166666023,
      "v": 78
    },
    {
      "midi": 66,
      "hit": false,
      "t": 353040.15479166934,
      "d": 1405.6879166666768,
      "v": 55
    },
    {
      "midi": 44,
      "hit": false,
      "t": 353056.49999999977,
      "d": 7567.831458333356,
      "v": 68
    },
    {
      "midi": 63,
      "hit": false,
      "t": 353056.5000000027,
      "d": 1340.3070833333186,
      "v": 58
    },
    {
      "midi": 60,
      "hit": false,
      "t": 353072.845208336,
      "d": 1405.6879166666768,
      "v": 55
    },
    {
      "midi": 56,
      "hit": false,
      "t": 354364.1166666693,
      "d": 1160.5097916667582,
      "v": 77
    },
    {
      "midi": 66,
      "hit": false,
      "t": 355001.5797916694,
      "d": 1405.687916666735,
      "v": 55
    },
    {
      "midi": 63,
      "hit": false,
      "t": 355017.9250000027,
      "d": 1323.9618750000373,
      "v": 66
    },
    {
      "midi": 60,
      "hit": false,
      "t": 355017.9250000027,
      "d": 1405.687916666735,
      "v": 55
    },
    {
      "midi": 56,
      "hit": false,
      "t": 356325.5416666694,
      "d": 1225.890625,
      "v": 69
    },
    {
      "midi": 63,
      "hit": false,
      "t": 356979.35000000277,
      "d": 1291.2714583333,
      "v": 66
    },
    {
      "midi": 66,
      "hit": false,
      "t": 356979.35000000277,
      "d": 1405.6879166666185,
      "v": 55
    },
    {
      "midi": 60,
      "hit": false,
      "t": 356995.6952083361,
      "d": 1405.6879166666185,
      "v": 55
    },
    {
      "midi": 56,
      "hit": false,
      "t": 358286.9666666694,
      "d": 1062.4385416666628,
      "v": 74
    },
    {
      "midi": 60,
      "hit": false,
      "t": 358924.4297916694,
      "d": 1405.6879166666185,
      "v": 55
    },
    {
      "midi": 63,
      "hit": false,
      "t": 358940.77500000276,
      "d": 1618.1756249999744,
      "v": 66
    },
    {
      "midi": 66,
      "hit": false,
      "t": 358957.1202083361,
      "d": 1405.6879166666185,
      "v": 55
    },
    {
      "midi": 56,
      "hit": false,
      "t": 360248.3916666694,
      "d": 653.8083333333489,
      "v": 76
    },
    {
      "midi": 49,
      "hit": false,
      "t": 360902.1999999998,
      "d": 5966.001041666663,
      "v": 72
    },
    {
      "midi": 56,
      "hit": false,
      "t": 360951.23562500277,
      "d": 1536.4495833333349,
      "v": 55
    },
    {
      "midi": 61,
      "hit": false,
      "t": 360951.23562500277,
      "d": 1585.4852083333535,
      "v": 49
    },
    {
      "midi": 56,
      "hit": false,
      "t": 362814.5893750028,
      "d": 1536.449583333393,
      "v": 71
    },
    {
      "midi": 64,
      "hit": false,
      "t": 362814.5893750028,
      "d": 1601.8304166667513,
      "v": 53
    },
    {
      "midi": 61,
      "hit": false,
      "t": 362830.9345833361,
      "d": 1585.4852083334117,
      "v": 64
    },
    {
      "midi": 68,
      "hit": false,
      "t": 362863.6250000028,
      "d": 1438.3783333333558,
      "v": 56
    },
    {
      "midi": 52,
      "hit": false,
      "t": 362863.6250000028,
      "d": 1732.5920833334094,
      "v": 53
    },
    {
      "midi": 64,
      "hit": false,
      "t": 364808.70479166956,
      "d": 1536.4495833333349,
      "v": 49
    },
    {
      "midi": 56,
      "hit": false,
      "t": 364808.70479166956,
      "d": 1552.7947916666744,
      "v": 70
    },
    {
      "midi": 61,
      "hit": false,
      "t": 364808.70479166956,
      "d": 1716.2468750000116,
      "v": 72
    },
    {
      "midi": 68,
      "hit": false,
      "t": 364825.0500000029,
      "d": 1438.3783333333558,
      "v": 56
    },
    {
      "midi": 52,
      "hit": false,
      "t": 364874.0856250029,
      "d": 1732.592083333293,
      "v": 53
    },
    {
      "midi": 63,
      "hit": false,
      "t": 366770.12979166955,
      "d": 1781.6277083333698,
      "v": 71
    },
    {
      "midi": 48,
      "hit": false,
      "t": 366786.4749999998,
      "d": 1977.770208333328,
      "v": 61
    },
    {
      "midi": 66,
      "hit": false,
      "t": 366835.5106250029,
      "d": 1716.2468750000116,
      "v": 56
    },
    {
      "midi": 54,
      "hit": false,
      "t": 366835.5106250029,
      "d": 1732.5920833333512,
      "v": 53
    },
    {
      "midi": 52,
      "hit": false,
      "t": 368698.8643750029,
      "d": 1732.5920833333512,
      "v": 53
    },
    {
      "midi": 49,
      "hit": false,
      "t": 368747.8999999998,
      "d": 1879.6989583333489,
      "v": 60
    },
    {
      "midi": 56,
      "hit": false,
      "t": 368796.9356250029,
      "d": 1536.4495833333349,
      "v": 55
    },
    {
      "midi": 61,
      "hit": false,
      "t": 368796.9356250029,
      "d": 1585.4852083333535,
      "v": 63
    },
    {
      "midi": 64,
      "hit": false,
      "t": 368796.9356250029,
      "d": 1585.4852083333535,
      "v": 63
    },
    {
      "midi": 54,
      "hit": false,
      "t": 370660.28937500296,
      "d": 1536.4495833333349,
      "v": 71
    },
    {
      "midi": 63,
      "hit": false,
      "t": 370660.28937500296,
      "d": 1601.830416666693,
      "v": 53
    },
    {
      "midi": 59,
      "hit": false,
      "t": 370676.6345833363,
      "d": 1585.4852083333535,
      "v": 64
    },
    {
      "midi": 51,
      "hit": false,
      "t": 370709.3249999998,
      "d": 1814.3181249999907,
      "v": 64
    },
    {
      "midi": 51,
      "hit": false,
      "t": 370709.325000003,
      "d": 1732.5920833333512,
      "v": 53
    },
    {
      "midi": 64,
      "hit": false,
      "t": 372654.4047916697,
      "d": 1536.4495833333349,
      "v": 49
    },
    {
      "midi": 56,
      "hit": false,
      "t": 372654.4047916697,
      "d": 1552.7947916666744,
      "v": 70
    },
    {
      "midi": 61,
      "hit": false,
      "t": 372654.4047916697,
      "d": 1716.2468750000116,
      "v": 72
    },
    {
      "midi": 49,
      "hit": false,
      "t": 372670.74999999977,
      "d": 10722.456666666665,
      "v": 54
    },
    {
      "midi": 68,
      "hit": false,
      "t": 372670.750000003,
      "d": 1438.3783333333558,
      "v": 56
    },
    {
      "midi": 52,
      "hit": false,
      "t": 372719.78562500305,
      "d": 1732.592083333293,
      "v": 53
    },
    {
      "midi": 60,
      "hit": false,
      "t": 374615.8297916697,
      "d": 653.8083333333489,
      "v": 71
    },
    {
      "midi": 63,
      "hit": false,
      "t": 374648.52020833635,
      "d": 686.4987500000279,
      "v": 56
    },
    {
      "midi": 56,
      "hit": false,
      "t": 374648.52020833635,
      "d": 1732.5920833333512,
      "v": 53
    },
    {
      "midi": 61,
      "hit": false,
      "t": 375236.94770833635,
      "d": 2631.5785416666768,
      "v": 71
    },
    {
      "midi": 64,
      "hit": false,
      "t": 375269.638125003,
      "d": 2549.852499999979,
      "v": 56
    },
    {
      "midi": 68,
      "hit": false,
      "t": 375318.67375000304,
      "d": 2402.7456249999814,
      "v": 55
    },
    {
      "midi": 68,
      "hit": false,
      "t": 378555.02500000305,
      "d": 1405.6879166666768,
      "v": 55
    },
    {
      "midi": 61,
      "hit": false,
      "t": 378555.02500000305,
      "d": 1552.7947916666744,
      "v": 59
    },
    {
      "midi": 64,
      "hit": false,
      "t": 378571.3702083364,
      "d": 1405.6879166666768,
      "v": 55
    },
    {
      "midi": 56,
      "hit": false,
      "t": 379862.64166666975,
      "d": 1372.9974999999977,
      "v": 81
    },
    {
      "midi": 64,
      "hit": false,
      "t": 380516.45000000304,
      "d": 1405.6879166666768,
      "v": 55
    },
    {
      "midi": 61,
      "hit": false,
      "t": 380516.45000000304,
      "d": 1438.3783333333558,
      "v": 63
    },
    {
      "midi": 68,
      "hit": false,
      "t": 380565.48562500306,
      "d": 1405.6879166666768,
      "v": 55
    },
    {
      "midi": 56,
      "hit": false,
      "t": 381824.06666666974,
      "d": 1193.200208333321,
      "v": 75
    },
    {
      "midi": 61,
      "hit": false,
      "t": 382477.8750000031,
      "d": 1323.961874999979,
      "v": 60
    },
    {
      "midi": 64,
      "hit": false,
      "t": 382477.8750000031,
      "d": 1405.6879166666185,
      "v": 55
    },
    {
      "midi": 68,
      "hit": false,
      "t": 382477.8750000031,
      "d": 1405.6879166666185,
      "v": 55
    },
    {
      "midi": 56,
      "hit": false,
      "t": 383785.4916666697,
      "d": 1209.5454166666023,
      "v": 78
    },
    {
      "midi": 66,
      "hit": false,
      "t": 384422.9547916697,
      "d": 1405.6879166666768,
      "v": 55
    },
    {
      "midi": 44,
      "hit": false,
      "t": 384439.29999999976,
      "d": 7567.831458333356,
      "v": 68
    },
    {
      "midi": 63,
      "hit": false,
      "t": 384439.300000003,
      "d": 1340.3070833333186,
      "v": 58
    },
    {
      "midi": 60,
      "hit": false,
      "t": 384455.64520833635,
      "d": 1405.6879166666768,
      "v": 55
    },
    {
      "midi": 56,
      "hit": false,
      "t": 385746.91666666965,
      "d": 1160.5097916667582,
      "v": 77
    },
    {
      "midi": 66,
      "hit": false,
      "t": 386384.3797916697,
      "d": 1405.687916666735,
      "v": 55
    },
    {
      "midi": 63,
      "hit": false,
      "t": 386400.72500000306,
      "d": 1323.9618750000373,
      "v": 66
    },
    {
      "midi": 60,
      "hit": false,
      "t": 386400.72500000306,
      "d": 1405.687916666735,
      "v": 55
    },
    {
      "midi": 56,
      "hit": false,
      "t": 387708.34166666976,
      "d": 1225.890625,
      "v": 69
    },
    {
      "midi": 63,
      "hit": false,
      "t": 388362.1500000031,
      "d": 1291.2714583333,
      "v": 66
    },
    {
      "midi": 66,
      "hit": false,
      "t": 388362.1500000031,
      "d": 1405.6879166666185,
      "v": 55
    },
    {
      "midi": 60,
      "hit": false,
      "t": 388378.49520833645,
      "d": 1405.6879166666185,
      "v": 55
    },
    {
      "midi": 56,
      "hit": false,
      "t": 389669.76666666975,
      "d": 1062.4385416666628,
      "v": 74
    },
    {
      "midi": 60,
      "hit": false,
      "t": 390307.22979166976,
      "d": 1405.6879166666185,
      "v": 55
    },
    {
      "midi": 63,
      "hit": false,
      "t": 390323.5750000031,
      "d": 1618.1756249999744,
      "v": 66
    },
    {
      "midi": 66,
      "hit": false,
      "t": 390339.92020833644,
      "d": 1405.6879166666185,
      "v": 55
    },
    {
      "midi": 56,
      "hit": false,
      "t": 391631.19166666974,
      "d": 653.8083333333489,
      "v": 76
    },
    {
      "midi": 49,
      "hit": false,
      "t": 392284.99999999977,
      "d": 5966.001041666663,
      "v": 72
    },
    {
      "midi": 56,
      "hit": false,
      "t": 392334.0356250031,
      "d": 1536.4495833333349,
      "v": 55
    },
    {
      "midi": 61,
      "hit": false,
      "t": 392334.0356250031,
      "d": 1585.4852083333535,
      "v": 49
    },
    {
      "midi": 56,
      "hit": false,
      "t": 394197.3893750031,
      "d": 1536.449583333393,
      "v": 71
    },
    {
      "midi": 64,
      "hit": false,
      "t": 394197.3893750031,
      "d": 1601.8304166667513,
      "v": 53
    },
    {
      "midi": 61,
      "hit": false,
      "t": 394213.73458333645,
      "d": 1585.4852083334117,
      "v": 64
    },
    {
      "midi": 68,
      "hit": false,
      "t": 394246.42500000313,
      "d": 1438.3783333333558,
      "v": 56
    },
    {
      "midi": 52,
      "hit": false,
      "t": 394246.42500000313,
      "d": 1732.5920833334094,
      "v": 53
    },
    {
      "midi": 64,
      "hit": false,
      "t": 396191.5047916699,
      "d": 1536.4495833333349,
      "v": 49
    },
    {
      "midi": 56,
      "hit": false,
      "t": 396191.5047916699,
      "d": 1552.7947916666744,
      "v": 70
    },
    {
      "midi": 61,
      "hit": false,
      "t": 396191.5047916699,
      "d": 1716.2468750000116,
      "v": 72
    },
    {
      "midi": 68,
      "hit": false,
      "t": 396207.85000000324,
      "d": 1438.3783333333558,
      "v": 56
    },
    {
      "midi": 52,
      "hit": false,
      "t": 396256.88562500325,
      "d": 1732.592083333293,
      "v": 53
    },
    {
      "midi": 63,
      "hit": false,
      "t": 398152.9297916699,
      "d": 1781.6277083333698,
      "v": 71
    },
    {
      "midi": 48,
      "hit": false,
      "t": 398169.2749999998,
      "d": 1977.770208333328,
      "v": 61
    },
    {
      "midi": 66,
      "hit": false,
      "t": 398218.31062500324,
      "d": 1716.2468750000116,
      "v": 56
    },
    {
      "midi": 54,
      "hit": false,
      "t": 398218.31062500324,
      "d": 1732.5920833333512,
      "v": 53
    },
    {
      "midi": 52,
      "hit": false,
      "t": 400081.66437500325,
      "d": 1732.5920833333512,
      "v": 53
    },
    {
      "midi": 49,
      "hit": false,
      "t": 400130.6999999998,
      "d": 1879.6989583333489,
      "v": 60
    },
    {
      "midi": 56,
      "hit": false,
      "t": 400179.73562500323,
      "d": 1536.4495833333349,
      "v": 55
    },
    {
      "midi": 61,
      "hit": false,
      "t": 400179.73562500323,
      "d": 1585.4852083333535,
      "v": 63
    },
    {
      "midi": 64,
      "hit": false,
      "t": 400179.73562500323,
      "d": 1585.4852083333535,
      "v": 63
    },
    {
      "midi": 54,
      "hit": false,
      "t": 402043.0893750033,
      "d": 1536.4495833333349,
      "v": 71
    },
    {
      "midi": 63,
      "hit": false,
      "t": 402043.0893750033,
      "d": 1601.830416666693,
      "v": 53
    },
    {
      "midi": 59,
      "hit": false,
      "t": 402059.43458333664,
      "d": 1585.4852083333535,
      "v": 64
    },
    {
      "midi": 51,
      "hit": false,
      "t": 402092.12499999977,
      "d": 1814.3181249999907,
      "v": 64
    },
    {
      "midi": 66,
      "hit": false,
      "t": 402092.1250000033,
      "d": 1536.4495833333349,
      "v": 49
    },
    {
      "midi": 51,
      "hit": false,
      "t": 402092.1250000033,
      "d": 1732.5920833333512,
      "v": 53
    },
    {
      "midi": 64,
      "hit": false,
      "t": 404037.20479167,
      "d": 1536.4495833333349,
      "v": 49
    },
    {
      "midi": 56,
      "hit": false,
      "t": 404037.20479167,
      "d": 1552.7947916666744,
      "v": 70
    },
    {
      "midi": 61,
      "hit": false,
      "t": 404037.20479167,
      "d": 1716.2468750000116,
      "v": 72
    },
    {
      "midi": 49,
      "hit": false,
      "t": 404053.54999999976,
      "d": 10722.456666666665,
      "v": 54
    },
    {
      "midi": 68,
      "hit": false,
      "t": 404053.55000000336,
      "d": 1438.3783333333558,
      "v": 56
    },
    {
      "midi": 52,
      "hit": false,
      "t": 404102.5856250034,
      "d": 1732.592083333293,
      "v": 53
    },
    {
      "midi": 60,
      "hit": false,
      "t": 405998.62979167,
      "d": 653.8083333333489,
      "v": 71
    },
    {
      "midi": 63,
      "hit": false,
      "t": 406031.3202083367,
      "d": 686.4987500000279,
      "v": 56
    },
    {
      "midi": 56,
      "hit": false,
      "t": 406031.3202083367,
      "d": 1732.5920833333512,
      "v": 53
    },
    {
      "midi": 61,
      "hit": false,
      "t": 406619.7477083367,
      "d": 2631.5785416666768,
      "v": 71
    },
    {
      "midi": 64,
      "hit": false,
      "t": 406652.43812500336,
      "d": 2549.852499999979,
      "v": 56
    },
    {
      "midi": 68,
      "hit": false,
      "t": 406701.4737500034,
      "d": 2402.7456249999814,
      "v": 55
    },
    {
      "midi": 56,
      "hit": false,
      "t": 409872.44416667003,
      "d": 1552.7947916666744,
      "v": 54
    },
    {
      "midi": 61,
      "hit": false,
      "t": 409888.78937500337,
      "d": 1569.140000000014,
      "v": 52
    },
    {
      "midi": 64,
      "hit": false,
      "t": 409905.1345833367,
      "d": 1405.6879166666768,
      "v": 60
    },
    {
      "midi": 56,
      "hit": false,
      "t": 411882.90479167004,
      "d": 1454.7235416666954,
      "v": 65
    },
    {
      "midi": 64,
      "hit": false,
      "t": 411882.90479167004,
      "d": 1471.068750000035,
      "v": 52
    },
    {
      "midi": 61,
      "hit": false,
      "t": 411882.90479167004,
      "d": 1503.759166666714,
      "v": 61
    },
    {
      "midi": 56,
      "hit": false,
      "t": 413860.6750000034,
      "d": 1814.3181249999907,
      "v": 59
    },
    {
      "midi": 61,
      "hit": false,
      "t": 413860.6750000034,
      "d": 1814.3181249999907,
      "v": 58
    },
    {
      "midi": 64,
      "hit": false,
      "t": 413877.02020833676,
      "d": 1879.6989583332906,
      "v": 60
    },
    {
      "midi": 42,
      "hit": false,
      "t": 415822.09999999974,
      "d": 2811.3758333333535,
      "v": 51
    },
    {
      "midi": 59,
      "hit": false,
      "t": 415822.1000000034,
      "d": 3301.732083333307,
      "v": 65
    },
    {
      "midi": 66,
      "hit": false,
      "t": 415838.44520833675,
      "d": 3040.2087499999907,
      "v": 54
    },
    {
      "midi": 54,
      "hit": false,
      "t": 415838.44520833675,
      "d": 3187.3156249999884,
      "v": 59
    },
    {
      "midi": 66,
      "hit": false,
      "t": 419712.2595833367,
      "d": 3759.397916666756,
      "v": 48
    },
    {
      "midi": 61,
      "hit": false,
      "t": 419728.60479167005,
      "d": 3399.8033333334024,
      "v": 62
    },
    {
      "midi": 42,
      "hit": false,
      "t": 419744.9499999998,
      "d": 3301.732083333307,
      "v": 41
    },
    {
      "midi": 54,
      "hit": false,
      "t": 419761.2952083367,
      "d": 3203.660833333386,
      "v": 47
    },
    {
      "midi": 58,
      "hit": false,
      "t": 419777.64041667007,
      "d": 3121.9347916666884,
      "v": 52
    },
    {
      "midi": 47,
      "hit": false,
      "t": 423667.79999999976,
      "d": 7502.450624999998,
      "v": 73
    },
    {
      "midi": 63,
      "hit": false,
      "t": 425563.8441666701,
      "d": 1732.5920833333512,
      "v": 53
    },
    {
      "midi": 54,
      "hit": false,
      "t": 425580.18937500345,
      "d": 1667.211249999993,
      "v": 73
    },
    {
      "midi": 59,
      "hit": false,
      "t": 425596.5345833368,
      "d": 1650.8660416666535,
      "v": 52
    },
    {
      "midi": 66,
      "hit": false,
      "t": 425678.26062500343,
      "d": 1438.3783333333558,
      "v": 56
    },
    {
      "midi": 51,
      "hit": false,
      "t": 425678.26062500343,
      "d": 1732.5920833333512,
      "v": 53
    },
    {
      "midi": 63,
      "hit": false,
      "t": 427541.61437500344,
      "d": 1618.1756250000326,
      "v": 65
    },
    {
      "midi": 59,
      "hit": false,
      "t": 427541.61437500344,
      "d": 1716.2468750000116,
      "v": 59
    },
    {
      "midi": 54,
      "hit": false,
      "t": 427557.9595833368,
      "d": 1748.9372916666907,
      "v": 65
    },
    {
      "midi": 66,
      "hit": false,
      "t": 427590.65000000346,
      "d": 1438.3783333333558,
      "v": 56
    },
    {
      "midi": 51,
      "hit": false,
      "t": 427639.6856250035,
      "d": 1732.5920833333512,
      "v": 53
    },
    {
      "midi": 63,
      "hit": false,
      "t": 429503.0393750035,
      "d": 1667.2112500000512,
      "v": 64
    },
    {
      "midi": 54,
      "hit": false,
      "t": 429503.0393750035,
      "d": 1748.937291666749,
      "v": 64
    },
    {
      "midi": 59,
      "hit": false,
      "t": 429503.0393750035,
      "d": 1912.3893750000861,
      "v": 62
    },
    {
      "midi": 51,
      "hit": false,
      "t": 429552.0750000035,
      "d": 1732.5920833334094,
      "v": 53
    },
    {
      "midi": 66,
      "hit": false,
      "t": 429601.1106250035,
      "d": 1618.1756250000326,
      "v": 56
    },
    {
      "midi": 46,
      "hit": false,
      "t": 431513.49999999977,
      "d": 7404.379375000019,
      "v": 76
    },
    {
      "midi": 63,
      "hit": false,
      "t": 433458.57979167026,
      "d": 1487.4139583333745,
      "v": 61
    },
    {
      "midi": 54,
      "hit": false,
      "t": 433458.57979167026,
      "d": 1536.449583333393,
      "v": 66
    },
    {
      "midi": 51,
      "hit": false,
      "t": 433474.9250000036,
      "d": 1732.5920833334094,
      "v": 53
    },
    {
      "midi": 66,
      "hit": false,
      "t": 433491.27020833694,
      "d": 1438.3783333333558,
      "v": 56
    },
    {
      "midi": 58,
      "hit": false,
      "t": 433491.27020833694,
      "d": 1552.7947916667326,
      "v": 77
    },
    {
      "midi": 63,
      "hit": false,
      "t": 435420.00479167036,
      "d": 1683.5564583333908,
      "v": 61
    },
    {
      "midi": 58,
      "hit": false,
      "t": 435436.3500000037,
      "d": 1585.4852083333535,
      "v": 70
    },
    {
      "midi": 66,
      "hit": false,
      "t": 435452.69520833704,
      "d": 1438.3783333333558,
      "v": 56
    },
    {
      "midi": 54,
      "hit": false,
      "t": 435452.69520833704,
      "d": 1585.4852083333535,
      "v": 66
    },
    {
      "midi": 51,
      "hit": false,
      "t": 435485.3856250037,
      "d": 1732.5920833333512,
      "v": 53
    },
    {
      "midi": 63,
      "hit": false,
      "t": 437365.08458333707,
      "d": 1945.079791666707,
      "v": 56
    },
    {
      "midi": 58,
      "hit": false,
      "t": 437381.4297916704,
      "d": 1797.9729166667094,
      "v": 70
    },
    {
      "midi": 54,
      "hit": false,
      "t": 437381.4297916704,
      "d": 1814.318125000049,
      "v": 65
    },
    {
      "midi": 51,
      "hit": false,
      "t": 437397.77500000375,
      "d": 1732.5920833333512,
      "v": 53
    },
    {
      "midi": 66,
      "hit": false,
      "t": 437414.1202083371,
      "d": 1438.3783333333558,
      "v": 56
    },
    {
      "midi": 44,
      "hit": false,
      "t": 439359.1999999998,
      "d": 7763.973958333314,
      "v": 71
    },
    {
      "midi": 56,
      "hit": false,
      "t": 441271.58937500376,
      "d": 1536.449583333393,
      "v": 71
    },
    {
      "midi": 63,
      "hit": false,
      "t": 441271.58937500376,
      "d": 1601.8304166667513,
      "v": 53
    },
    {
      "midi": 59,
      "hit": false,
      "t": 441287.9345833371,
      "d": 1585.4852083334117,
      "v": 64
    },
    {
      "midi": 68,
      "hit": false,
      "t": 441320.6250000038,
      "d": 1438.3783333333558,
      "v": 56
    },
    {
      "midi": 51,
      "hit": false,
      "t": 441320.6250000038,
      "d": 1732.5920833334094,
      "v": 53
    },
    {
      "midi": 63,
      "hit": false,
      "t": 443265.70479167055,
      "d": 1536.4495833333349,
      "v": 49
    },
    {
      "midi": 56,
      "hit": false,
      "t": 443265.70479167055,
      "d": 1552.7947916666744,
      "v": 70
    },
    {
      "midi": 59,
      "hit": false,
      "t": 443265.70479167055,
      "d": 1716.2468750000116,
      "v": 72
    },
    {
      "midi": 68,
      "hit": false,
      "t": 443282.0500000039,
      "d": 1438.3783333333558,
      "v": 56
    },
    {
      "midi": 51,
      "hit": false,
      "t": 443331.0856250039,
      "d": 1732.592083333293,
      "v": 53
    },
    {
      "midi": 59,
      "hit": false,
      "t": 445227.12979167054,
      "d": 1781.627708333428,
      "v": 56
    },
    {
      "midi": 56,
      "hit": false,
      "t": 445243.4750000039,
      "d": 1765.2825000000885,
      "v": 77
    },
    {
      "midi": 63,
      "hit": false,
      "t": 445259.8202083372,
      "d": 1699.9016666667303,
      "v": 47
    },
    {
      "midi": 68,
      "hit": false,
      "t": 445292.5106250039,
      "d": 1438.3783333333558,
      "v": 56
    },
    {
      "midi": 51,
      "hit": false,
      "t": 445292.5106250039,
      "d": 1732.5920833334094,
      "v": 53
    },
    {
      "midi": 42,
      "hit": false,
      "t": 447204.89999999973,
      "d": 7551.486250000016,
      "v": 70
    },
    {
      "midi": 51,
      "hit": false,
      "t": 449117.28937500395,
      "d": 1732.5920833333512,
      "v": 53
    },
    {
      "midi": 63,
      "hit": false,
      "t": 449133.6345833373,
      "d": 1454.7235416666954,
      "v": 54
    },
    {
      "midi": 54,
      "hit": false,
      "t": 449149.97979167063,
      "d": 1422.0331250000163,
      "v": 75
    },
    {
      "midi": 66,
      "hit": false,
      "t": 449166.32500000397,
      "d": 1438.3783333333558,
      "v": 56
    },
    {
      "midi": 59,
      "hit": false,
      "t": 449166.32500000397,
      "d": 1536.4495833333349,
      "v": 58
    },
    {
      "midi": 63,
      "hit": false,
      "t": 451111.4047916706,
      "d": 1405.6879166666768,
      "v": 50
    },
    {
      "midi": 54,
      "hit": false,
      "t": 451127.75000000396,
      "d": 1389.3427083333372,
      "v": 73
    },
    {
      "midi": 66,
      "hit": false,
      "t": 451127.75000000396,
      "d": 1438.3783333333558,
      "v": 56
    },
    {
      "midi": 59,
      "hit": false,
      "t": 451144.0952083373,
      "d": 1438.3783333333558,
      "v": 48
    },
    {
      "midi": 51,
      "hit": false,
      "t": 451176.785625004,
      "d": 1732.5920833333512,
      "v": 53
    },
    {
      "midi": 54,
      "hit": false,
      "t": 453056.4845833373,
      "d": 1765.2825000000303,
      "v": 69
    },
    {
      "midi": 63,
      "hit": false,
      "t": 453056.4845833373,
      "d": 1863.3537500000093,
      "v": 54
    },
    {
      "midi": 59,
      "hit": false,
      "t": 453072.82979167067,
      "d": 1765.2825000000303,
      "v": 53
    },
    {
      "midi": 51,
      "hit": false,
      "t": 453089.175000004,
      "d": 1732.5920833333512,
      "v": 53
    },
    {
      "midi": 66,
      "hit": false,
      "t": 453138.210625004,
      "d": 1438.3783333333558,
      "v": 56
    },
    {
      "midi": 40,
      "hit": false,
      "t": 455050.59999999974,
      "d": 7535.141041666677,
      "v": 72
    },
    {
      "midi": 56,
      "hit": false,
      "t": 456962.989375004,
      "d": 1536.449583333393,
      "v": 71
    },
    {
      "midi": 63,
      "hit": false,
      "t": 456962.989375004,
      "d": 1601.8304166667513,
      "v": 53
    },
    {
      "midi": 59,
      "hit": false,
      "t": 456979.33458333736,
      "d": 1585.4852083334117,
      "v": 64
    },
    {
      "midi": 68,
      "hit": false,
      "t": 457012.02500000404,
      "d": 1438.3783333333558,
      "v": 56
    },
    {
      "midi": 52,
      "hit": false,
      "t": 457012.02500000404,
      "d": 1732.5920833334094,
      "v": 53
    },
    {
      "midi": 63,
      "hit": false,
      "t": 458957.1047916708,
      "d": 1536.4495833333349,
      "v": 49
    },
    {
      "midi": 56,
      "hit": false,
      "t": 458957.1047916708,
      "d": 1552.7947916666744,
      "v": 70
    },
    {
      "midi": 59,
      "hit": false,
      "t": 458957.1047916708,
      "d": 1716.2468750000116,
      "v": 72
    },
    {
      "midi": 68,
      "hit": false,
      "t": 458973.45000000414,
      "d": 1438.3783333333558,
      "v": 56
    },
    {
      "midi": 52,
      "hit": false,
      "t": 459022.48562500416,
      "d": 1732.592083333293,
      "v": 53
    },
    {
      "midi": 59,
      "hit": false,
      "t": 460918.5297916708,
      "d": 1781.627708333428,
      "v": 56
    },
    {
      "midi": 56,
      "hit": false,
      "t": 460934.87500000413,
      "d": 1765.2825000000885,
      "v": 77
    },
    {
      "midi": 63,
      "hit": false,
      "t": 460951.2202083375,
      "d": 1699.9016666667303,
      "v": 47
    },
    {
      "midi": 68,
      "hit": false,
      "t": 460983.91062500415,
      "d": 1438.3783333333558,
      "v": 56
    },
    {
      "midi": 52,
      "hit": false,
      "t": 460983.91062500415,
      "d": 1732.5920833334094,
      "v": 53
    },
    {
      "midi": 45,
      "hit": false,
      "t": 462896.29999999976,
      "d": 7486.105416666658,
      "v": 71
    },
    {
      "midi": 69,
      "hit": false,
      "t": 464808.6893750042,
      "d": 1536.449583333393,
      "v": 49
    },
    {
      "midi": 61,
      "hit": false,
      "t": 464808.6893750042,
      "d": 1601.8304166667513,
      "v": 53
    },
    {
      "midi": 57,
      "hit": false,
      "t": 464825.03458333755,
      "d": 1585.4852083334117,
      "v": 69
    },
    {
      "midi": 64,
      "hit": false,
      "t": 464857.7250000042,
      "d": 1438.3783333333558,
      "v": 56
    },
    {
      "midi": 52,
      "hit": false,
      "t": 464857.7250000042,
      "d": 1732.5920833334094,
      "v": 53
    },
    {
      "midi": 61,
      "hit": false,
      "t": 466802.804791671,
      "d": 1536.4495833333349,
      "v": 49
    },
    {
      "midi": 69,
      "hit": false,
      "t": 466802.804791671,
      "d": 1552.7947916666744,
      "v": 48
    },
    {
      "midi": 57,
      "hit": false,
      "t": 466802.804791671,
      "d": 1716.2468750000116,
      "v": 72
    },
    {
      "midi": 64,
      "hit": false,
      "t": 466819.15000000433,
      "d": 1438.3783333333558,
      "v": 56
    },
    {
      "midi": 52,
      "hit": false,
      "t": 466868.18562500435,
      "d": 1732.592083333293,
      "v": 53
    },
    {
      "midi": 57,
      "hit": false,
      "t": 468764.229791671,
      "d": 1781.627708333428,
      "v": 56
    },
    {
      "midi": 69,
      "hit": false,
      "t": 468780.5750000043,
      "d": 1765.2825000000885,
      "v": 55
    },
    {
      "midi": 61,
      "hit": false,
      "t": 468796.92020833766,
      "d": 1699.9016666667303,
      "v": 53
    },
    {
      "midi": 64,
      "hit": false,
      "t": 468829.61062500434,
      "d": 1438.3783333333558,
      "v": 65
    },
    {
      "midi": 52,
      "hit": false,
      "t": 468829.61062500434,
      "d": 1732.5920833334094,
      "v": 53
    },
    {
      "midi": 47,
      "hit": false,
      "t": 470741.99999999977,
      "d": 7175.546458333323,
      "v": 72
    },
    {
      "midi": 54,
      "hit": false,
      "t": 472654.3893750044,
      "d": 1667.2112500000512,
      "v": 73
    },
    {
      "midi": 59,
      "hit": false,
      "t": 472670.73458333773,
      "d": 1650.8660416667117,
      "v": 52
    },
    {
      "midi": 63,
      "hit": false,
      "t": 472687.0797916711,
      "d": 1732.5920833333512,
      "v": 53
    },
    {
      "midi": 66,
      "hit": false,
      "t": 472752.46062500443,
      "d": 1438.3783333333558,
      "v": 56
    },
    {
      "midi": 51,
      "hit": false,
      "t": 472752.46062500443,
      "d": 1732.5920833333512,
      "v": 53
    },
    {
      "midi": 63,
      "hit": false,
      "t": 474615.81437500444,
      "d": 1618.1756250000326,
      "v": 65
    },
    {
      "midi": 59,
      "hit": false,
      "t": 474615.81437500444,
      "d": 1716.2468750000116,
      "v": 59
    },
    {
      "midi": 54,
      "hit": false,
      "t": 474632.1595833378,
      "d": 1748.9372916666907,
      "v": 65
    },
    {
      "midi": 66,
      "hit": false,
      "t": 474664.85000000446,
      "d": 1438.3783333333558,
      "v": 56
    },
    {
      "midi": 51,
      "hit": false,
      "t": 474713.8856250045,
      "d": 1732.5920833333512,
      "v": 53
    },
    {
      "midi": 63,
      "hit": false,
      "t": 476577.2393750045,
      "d": 1667.2112500000512,
      "v": 64
    },
    {
      "midi": 54,
      "hit": false,
      "t": 476577.2393750045,
      "d": 1748.937291666749,
      "v": 64
    },
    {
      "midi": 59,
      "hit": false,
      "t": 476577.2393750045,
      "d": 1912.3893750000861,
      "v": 62
    },
    {
      "midi": 51,
      "hit": false,
      "t": 476626.2750000045,
      "d": 1732.5920833334094,
      "v": 53
    },
    {
      "midi": 66,
      "hit": false,
      "t": 476675.3106250045,
      "d": 1618.1756250000326,
      "v": 56
    },
    {
      "midi": 42,
      "hit": false,
      "t": 477933.89166666643,
      "d": 555.7370833333116,
      "v": 60
    },
    {
      "midi": 35,
      "hit": false,
      "t": 478587.6999999997,
      "d": 7289.962916666642,
      "v": 66
    },
    {
      "midi": 54,
      "hit": false,
      "t": 480500.0893750046,
      "d": 1667.2112500000512,
      "v": 73
    },
    {
      "midi": 59,
      "hit": false,
      "t": 480516.4345833379,
      "d": 1650.8660416667117,
      "v": 52
    },
    {
      "midi": 63,
      "hit": false,
      "t": 480532.77979167126,
      "d": 1732.5920833333512,
      "v": 53
    },
    {
      "midi": 66,
      "hit": false,
      "t": 480598.1606250046,
      "d": 1438.3783333333558,
      "v": 56
    },
    {
      "midi": 51,
      "hit": false,
      "t": 480598.1606250046,
      "d": 1732.5920833333512,
      "v": 53
    },
    {
      "midi": 63,
      "hit": false,
      "t": 482461.5143750046,
      "d": 1618.1756250000326,
      "v": 65
    },
    {
      "midi": 59,
      "hit": false,
      "t": 482461.5143750046,
      "d": 1716.2468750000116,
      "v": 59
    },
    {
      "midi": 54,
      "hit": false,
      "t": 482477.85958333797,
      "d": 1748.9372916666907,
      "v": 65
    },
    {
      "midi": 66,
      "hit": false,
      "t": 482510.55000000464,
      "d": 1438.3783333333558,
      "v": 56
    },
    {
      "midi": 51,
      "hit": false,
      "t": 482559.58562500466,
      "d": 1732.5920833333512,
      "v": 53
    },
    {
      "midi": 63,
      "hit": false,
      "t": 484422.9393750047,
      "d": 1667.2112500000512,
      "v": 64
    },
    {
      "midi": 54,
      "hit": false,
      "t": 484422.9393750047,
      "d": 1748.937291666749,
      "v": 64
    },
    {
      "midi": 59,
      "hit": false,
      "t": 484422.9393750047,
      "d": 1912.3893750000861,
      "v": 62
    },
    {
      "midi": 51,
      "hit": false,
      "t": 484471.9750000047,
      "d": 1732.5920833334094,
      "v": 53
    },
    {
      "midi": 66,
      "hit": false,
      "t": 484521.0106250047,
      "d": 1618.1756250000326,
      "v": 56
    },
    {
      "midi": 47,
      "hit": false,
      "t": 486433.3999999997,
      "d": 7502.450624999998,
      "v": 73
    },
    {
      "midi": 63,
      "hit": false,
      "t": 488329.4441666714,
      "d": 1732.5920833333512,
      "v": 53
    },
    {
      "midi": 54,
      "hit": false,
      "t": 488345.78937500477,
      "d": 1667.211249999993,
      "v": 73
    },
    {
      "midi": 59,
      "hit": false,
      "t": 488362.1345833381,
      "d": 1650.8660416666535,
      "v": 52
    },
    {
      "midi": 66,
      "hit": false,
      "t": 488443.86062500475,
      "d": 1438.3783333333558,
      "v": 56
    },
    {
      "midi": 51,
      "hit": false,
      "t": 488443.86062500475,
      "d": 1732.5920833333512,
      "v": 53
    },
    {
      "midi": 63,
      "hit": false,
      "t": 490307.21437500475,
      "d": 1618.1756250000326,
      "v": 65
    },
    {
      "midi": 59,
      "hit": false,
      "t": 490307.21437500475,
      "d": 1716.2468750000116,
      "v": 59
    },
    {
      "midi": 54,
      "hit": false,
      "t": 490323.5595833381,
      "d": 1748.9372916666907,
      "v": 65
    },
    {
      "midi": 66,
      "hit": false,
      "t": 490356.2500000048,
      "d": 1438.3783333333558,
      "v": 56
    },
    {
      "midi": 51,
      "hit": false,
      "t": 490405.2856250048,
      "d": 1732.5920833333512,
      "v": 53
    },
    {
      "midi": 63,
      "hit": false,
      "t": 492268.6393750048,
      "d": 1667.2112500000512,
      "v": 64
    },
    {
      "midi": 54,
      "hit": false,
      "t": 492268.6393750048,
      "d": 1748.937291666749,
      "v": 64
    },
    {
      "midi": 59,
      "hit": false,
      "t": 492268.6393750048,
      "d": 1912.3893750000861,
      "v": 62
    },
    {
      "midi": 51,
      "hit": false,
      "t": 492317.6750000048,
      "d": 1732.5920833334094,
      "v": 53
    },
    {
      "midi": 66,
      "hit": false,
      "t": 492366.71062500484,
      "d": 1618.1756250000326,
      "v": 56
    },
    {
      "midi": 46,
      "hit": false,
      "t": 494279.0999999997,
      "d": 7404.379375000019,
      "v": 76
    },
    {
      "midi": 63,
      "hit": false,
      "t": 496224.1797916716,
      "d": 1487.4139583333745,
      "v": 61
    },
    {
      "midi": 54,
      "hit": false,
      "t": 496224.1797916716,
      "d": 1536.449583333393,
      "v": 66
    },
    {
      "midi": 51,
      "hit": false,
      "t": 496240.5250000049,
      "d": 1732.5920833334094,
      "v": 53
    },
    {
      "midi": 66,
      "hit": false,
      "t": 496256.87020833825,
      "d": 1438.3783333333558,
      "v": 56
    },
    {
      "midi": 58,
      "hit": false,
      "t": 496256.87020833825,
      "d": 1552.7947916667326,
      "v": 77
    },
    {
      "midi": 63,
      "hit": false,
      "t": 498185.6047916717,
      "d": 1683.5564583333908,
      "v": 61
    },
    {
      "midi": 58,
      "hit": false,
      "t": 498201.950000005,
      "d": 1585.4852083333535,
      "v": 70
    },
    {
      "midi": 66,
      "hit": false,
      "t": 498218.29520833836,
      "d": 1438.3783333333558,
      "v": 56
    },
    {
      "midi": 54,
      "hit": false,
      "t": 498218.29520833836,
      "d": 1585.4852083333535,
      "v": 66
    },
    {
      "midi": 51,
      "hit": false,
      "t": 498250.98562500504,
      "d": 1732.5920833333512,
      "v": 53
    },
    {
      "midi": 63,
      "hit": false,
      "t": 500130.6845833384,
      "d": 1945.079791666707,
      "v": 56
    },
    {
      "midi": 58,
      "hit": false,
      "t": 500147.0297916717,
      "d": 1797.9729166667094,
      "v": 70
    },
    {
      "midi": 54,
      "hit": false,
      "t": 500147.0297916717,
      "d": 1814.318125000049,
      "v": 65
    },
    {
      "midi": 51,
      "hit": false,
      "t": 500163.37500000506,
      "d": 1732.5920833333512,
      "v": 53
    },
    {
      "midi": 66,
      "hit": false,
      "t": 500179.7202083384,
      "d": 1438.3783333333558,
      "v": 56
    },
    {
      "midi": 44,
      "hit": false,
      "t": 502124.7999999997,
      "d": 7763.973958333314,
      "v": 71
    },
    {
      "midi": 56,
      "hit": false,
      "t": 504037.1893750051,
      "d": 1536.449583333393,
      "v": 71
    },
    {
      "midi": 63,
      "hit": false,
      "t": 504037.1893750051,
      "d": 1601.8304166667513,
      "v": 53
    },
    {
      "midi": 59,
      "hit": false,
      "t": 504053.5345833384,
      "d": 1585.4852083334117,
      "v": 64
    },
    {
      "midi": 68,
      "hit": false,
      "t": 504086.2250000051,
      "d": 1438.3783333333558,
      "v": 56
    },
    {
      "midi": 51,
      "hit": false,
      "t": 504086.2250000051,
      "d": 1732.5920833334094,
      "v": 53
    },
    {
      "midi": 63,
      "hit": false,
      "t": 506031.30479167186,
      "d": 1536.4495833333349,
      "v": 49
    },
    {
      "midi": 56,
      "hit": false,
      "t": 506031.30479167186,
      "d": 1552.7947916666744,
      "v": 70
    },
    {
      "midi": 59,
      "hit": false,
      "t": 506031.30479167186,
      "d": 1716.2468750000116,
      "v": 72
    },
    {
      "midi": 68,
      "hit": false,
      "t": 506047.6500000052,
      "d": 1438.3783333333558,
      "v": 56
    },
    {
      "midi": 51,
      "hit": false,
      "t": 506096.6856250052,
      "d": 1732.592083333293,
      "v": 53
    },
    {
      "midi": 59,
      "hit": false,
      "t": 507992.72979167185,
      "d": 1781.627708333428,
      "v": 56
    },
    {
      "midi": 56,
      "hit": false,
      "t": 508009.0750000052,
      "d": 1765.2825000000885,
      "v": 77
    },
    {
      "midi": 63,
      "hit": false,
      "t": 508025.42020833853,
      "d": 1699.9016666667303,
      "v": 47
    },
    {
      "midi": 68,
      "hit": false,
      "t": 508058.1106250052,
      "d": 1438.3783333333558,
      "v": 56
    },
    {
      "midi": 51,
      "hit": false,
      "t": 508058.1106250052,
      "d": 1732.5920833334094,
      "v": 53
    },
    {
      "midi": 42,
      "hit": false,
      "t": 509970.49999999965,
      "d": 7551.486250000016,
      "v": 70
    },
    {
      "midi": 51,
      "hit": false,
      "t": 511882.88937500527,
      "d": 1732.5920833333512,
      "v": 53
    },
    {
      "midi": 63,
      "hit": false,
      "t": 511899.2345833386,
      "d": 1454.7235416666954,
      "v": 54
    },
    {
      "midi": 54,
      "hit": false,
      "t": 511915.57979167195,
      "d": 1422.0331250000163,
      "v": 75
    },
    {
      "midi": 66,
      "hit": false,
      "t": 511931.9250000053,
      "d": 1438.3783333333558,
      "v": 56
    },
    {
      "midi": 59,
      "hit": false,
      "t": 511931.9250000053,
      "d": 1536.4495833333349,
      "v": 58
    },
    {
      "midi": 63,
      "hit": false,
      "t": 513877.00479167193,
      "d": 1405.6879166666768,
      "v": 50
    },
    {
      "midi": 54,
      "hit": false,
      "t": 513893.3500000053,
      "d": 1389.3427083333372,
      "v": 73
    },
    {
      "midi": 66,
      "hit": false,
      "t": 513893.3500000053,
      "d": 1438.3783333333558,
      "v": 56
    },
    {
      "midi": 59,
      "hit": false,
      "t": 513909.6952083386,
      "d": 1438.3783333333558,
      "v": 48
    },
    {
      "midi": 51,
      "hit": false,
      "t": 513942.3856250053,
      "d": 1732.5920833333512,
      "v": 53
    },
    {
      "midi": 54,
      "hit": false,
      "t": 515822.08458333864,
      "d": 1765.2825000000303,
      "v": 69
    },
    {
      "midi": 63,
      "hit": false,
      "t": 515822.08458333864,
      "d": 1863.3537500000093,
      "v": 54
    },
    {
      "midi": 59,
      "hit": false,
      "t": 515838.429791672,
      "d": 1765.2825000000303,
      "v": 53
    },
    {
      "midi": 51,
      "hit": false,
      "t": 515854.7750000053,
      "d": 1732.5920833333512,
      "v": 53
    },
    {
      "midi": 66,
      "hit": false,
      "t": 515903.81062500534,
      "d": 1438.3783333333558,
      "v": 56
    },
    {
      "midi": 40,
      "hit": false,
      "t": 517816.19999999966,
      "d": 7535.141041666677,
      "v": 72
    },
    {
      "midi": 56,
      "hit": false,
      "t": 519728.58937500534,
      "d": 1536.449583333393,
      "v": 71
    },
    {
      "midi": 63,
      "hit": false,
      "t": 519728.58937500534,
      "d": 1601.8304166667513,
      "v": 53
    },
    {
      "midi": 59,
      "hit": false,
      "t": 519744.9345833387,
      "d": 1585.4852083334117,
      "v": 64
    },
    {
      "midi": 68,
      "hit": false,
      "t": 519777.62500000536,
      "d": 1438.3783333333558,
      "v": 56
    },
    {
      "midi": 52,
      "hit": false,
      "t": 519777.62500000536,
      "d": 1732.5920833334094,
      "v": 53
    },
    {
      "midi": 63,
      "hit": false,
      "t": 521722.7047916721,
      "d": 1536.4495833333349,
      "v": 49
    },
    {
      "midi": 56,
      "hit": false,
      "t": 521722.7047916721,
      "d": 1552.7947916666744,
      "v": 70
    },
    {
      "midi": 59,
      "hit": false,
      "t": 521722.7047916721,
      "d": 1716.2468750000116,
      "v": 72
    },
    {
      "midi": 68,
      "hit": false,
      "t": 521739.05000000546,
      "d": 1438.3783333333558,
      "v": 56
    },
    {
      "midi": 52,
      "hit": false,
      "t": 521788.0856250055,
      "d": 1732.592083333293,
      "v": 53
    },
    {
      "midi": 59,
      "hit": false,
      "t": 523684.1297916721,
      "d": 1781.6277083333116,
      "v": 56
    },
    {
      "midi": 56,
      "hit": false,
      "t": 523700.47500000545,
      "d": 1765.282499999972,
      "v": 77
    },
    {
      "midi": 63,
      "hit": false,
      "t": 523716.8202083388,
      "d": 1699.901666666614,
      "v": 47
    },
    {
      "midi": 68,
      "hit": false,
      "t": 523749.51062500547,
      "d": 1438.3783333332976,
      "v": 56
    },
    {
      "midi": 52,
      "hit": false,
      "t": 523749.51062500547,
      "d": 1732.592083333293,
      "v": 53
    },
    {
      "midi": 45,
      "hit": false,
      "t": 525661.8999999997,
      "d": 7486.105416666716,
      "v": 71
    },
    {
      "midi": 69,
      "hit": false,
      "t": 527574.2893750054,
      "d": 1536.4495833333349,
      "v": 49
    },
    {
      "midi": 61,
      "hit": false,
      "t": 527574.2893750054,
      "d": 1601.830416666693,
      "v": 53
    },
    {
      "midi": 57,
      "hit": false,
      "t": 527590.6345833387,
      "d": 1585.4852083333535,
      "v": 69
    },
    {
      "midi": 64,
      "hit": false,
      "t": 527623.3250000054,
      "d": 1438.3783333332976,
      "v": 56
    },
    {
      "midi": 52,
      "hit": false,
      "t": 527623.3250000054,
      "d": 1732.592083333293,
      "v": 53
    },
    {
      "midi": 61,
      "hit": false,
      "t": 529568.404791672,
      "d": 1536.4495833333349,
      "v": 49
    },
    {
      "midi": 69,
      "hit": false,
      "t": 529568.404791672,
      "d": 1552.7947916666744,
      "v": 48
    },
    {
      "midi": 57,
      "hit": false,
      "t": 529568.404791672,
      "d": 1716.2468749999534,
      "v": 72
    },
    {
      "midi": 64,
      "hit": false,
      "t": 529584.7500000054,
      "d": 1438.3783333332976,
      "v": 56
    },
    {
      "midi": 52,
      "hit": false,
      "t": 529633.7856250054,
      "d": 1732.592083333293,
      "v": 53
    },
    {
      "midi": 57,
      "hit": false,
      "t": 531529.829791672,
      "d": 1781.6277083333116,
      "v": 56
    },
    {
      "midi": 69,
      "hit": false,
      "t": 531546.1750000053,
      "d": 1765.282499999972,
      "v": 55
    },
    {
      "midi": 61,
      "hit": false,
      "t": 531562.5202083386,
      "d": 1699.901666666614,
      "v": 53
    },
    {
      "midi": 64,
      "hit": false,
      "t": 531595.2106250053,
      "d": 1438.3783333332976,
      "v": 65
    },
    {
      "midi": 52,
      "hit": false,
      "t": 531595.2106250053,
      "d": 1732.592083333293,
      "v": 53
    },
    {
      "midi": 47,
      "hit": false,
      "t": 533507.5999999997,
      "d": 7175.546458333381,
      "v": 72
    },
    {
      "midi": 54,
      "hit": false,
      "t": 535419.9893750052,
      "d": 1667.2112500000512,
      "v": 73
    },
    {
      "midi": 59,
      "hit": false,
      "t": 535436.3345833386,
      "d": 1650.8660416667117,
      "v": 52
    },
    {
      "midi": 63,
      "hit": false,
      "t": 535452.6797916719,
      "d": 1732.5920833334094,
      "v": 53
    },
    {
      "midi": 66,
      "hit": false,
      "t": 535518.0606250053,
      "d": 1438.3783333332976,
      "v": 56
    },
    {
      "midi": 51,
      "hit": false,
      "t": 535518.0606250053,
      "d": 1732.5920833334094,
      "v": 53
    },
    {
      "midi": 63,
      "hit": false,
      "t": 537381.4143750054,
      "d": 1618.1756250000326,
      "v": 65
    },
    {
      "midi": 59,
      "hit": false,
      "t": 537381.4143750054,
      "d": 1716.2468750000698,
      "v": 59
    },
    {
      "midi": 54,
      "hit": false,
      "t": 537397.7595833387,
      "d": 1748.937291666749,
      "v": 65
    },
    {
      "midi": 66,
      "hit": false,
      "t": 537430.4500000054,
      "d": 1438.3783333332976,
      "v": 56
    },
    {
      "midi": 51,
      "hit": false,
      "t": 537479.4856250054,
      "d": 1732.5920833334094,
      "v": 53
    },
    {
      "midi": 63,
      "hit": false,
      "t": 539342.8393750056,
      "d": 1667.2112500000512,
      "v": 64
    },
    {
      "midi": 54,
      "hit": false,
      "t": 539342.8393750056,
      "d": 1748.937291666749,
      "v": 64
    },
    {
      "midi": 59,
      "hit": false,
      "t": 539342.8393750056,
      "d": 1912.3893750001444,
      "v": 62
    },
    {
      "midi": 51,
      "hit": false,
      "t": 539391.8750000056,
      "d": 1732.5920833334094,
      "v": 53
    },
    {
      "midi": 66,
      "hit": false,
      "t": 539440.9106250056,
      "d": 1618.1756250000326,
      "v": 56
    },
    {
      "midi": 42,
      "hit": false,
      "t": 540699.4916666665,
      "d": 555.7370833333116,
      "v": 60
    },
    {
      "midi": 47,
      "hit": false,
      "t": 541353.2999999998,
      "d": 7289.962916666642,
      "v": 66
    },
    {
      "midi": 54,
      "hit": false,
      "t": 543265.6893750057,
      "d": 1667.2112500000512,
      "v": 73
    },
    {
      "midi": 59,
      "hit": false,
      "t": 543282.034583339,
      "d": 1650.8660416667117,
      "v": 52
    },
    {
      "midi": 63,
      "hit": false,
      "t": 543298.3797916723,
      "d": 1732.5920833334094,
      "v": 53
    },
    {
      "midi": 66,
      "hit": false,
      "t": 543363.7606250057,
      "d": 1438.3783333332976,
      "v": 56
    },
    {
      "midi": 51,
      "hit": false,
      "t": 543363.7606250057,
      "d": 1732.5920833334094,
      "v": 53
    },
    {
      "midi": 63,
      "hit": false,
      "t": 545227.1143750058,
      "d": 1618.1756250000326,
      "v": 65
    },
    {
      "midi": 59,
      "hit": false,
      "t": 545227.1143750058,
      "d": 1716.2468750000698,
      "v": 59
    },
    {
      "midi": 54,
      "hit": false,
      "t": 545243.4595833392,
      "d": 1748.937291666749,
      "v": 65
    },
    {
      "midi": 66,
      "hit": false,
      "t": 545276.1500000058,
      "d": 1438.3783333332976,
      "v": 56
    },
    {
      "midi": 51,
      "hit": false,
      "t": 545325.1856250059,
      "d": 1732.5920833334094,
      "v": 53
    },
    {
      "midi": 63,
      "hit": false,
      "t": 547188.539375006,
      "d": 1667.2112500000512,
      "v": 64
    },
    {
      "midi": 54,
      "hit": false,
      "t": 547188.539375006,
      "d": 1748.937291666749,
      "v": 64
    },
    {
      "midi": 59,
      "hit": false,
      "t": 547188.539375006,
      "d": 1912.3893750001444,
      "v": 62
    },
    {
      "midi": 51,
      "hit": false,
      "t": 547237.575000006,
      "d": 1732.5920833334094,
      "v": 53
    },
    {
      "midi": 66,
      "hit": false,
      "t": 547286.610625006,
      "d": 1618.1756250000326,
      "v": 56
    },
    {
      "midi": 64,
      "hit": false,
      "t": 549182.6547916728,
      "d": 1487.4139583334327,
      "v": 55
    },
    {
      "midi": 49,
      "hit": false,
      "t": 549198.9999999998,
      "d": 7486.105416666716,
      "v": 67
    },
    {
      "midi": 61,
      "hit": false,
      "t": 549199.0000000062,
      "d": 1405.687916666735,
      "v": 67
    },
    {
      "midi": 68,
      "hit": false,
      "t": 549248.0356250062,
      "d": 1405.687916666735,
      "v": 55
    },
    {
      "midi": 56,
      "hit": false,
      "t": 550506.6166666729,
      "d": 1242.2358333333395,
      "v": 70
    },
    {
      "midi": 68,
      "hit": false,
      "t": 551160.4250000062,
      "d": 1405.687916666735,
      "v": 55
    },
    {
      "midi": 61,
      "hit": false,
      "t": 551160.4250000062,
      "d": 1552.7947916667908,
      "v": 59
    },
    {
      "midi": 64,
      "hit": false,
      "t": 551176.7702083396,
      "d": 1405.687916666735,
      "v": 55
    },
    {
      "midi": 56,
      "hit": false,
      "t": 552468.0416666729,
      "d": 1372.9975000001723,
      "v": 81
    },
    {
      "midi": 64,
      "hit": false,
      "t": 553121.8500000064,
      "d": 1405.687916666735,
      "v": 55
    },
    {
      "midi": 61,
      "hit": false,
      "t": 553121.8500000064,
      "d": 1438.378333333414,
      "v": 63
    },
    {
      "midi": 68,
      "hit": false,
      "t": 553170.8856250064,
      "d": 1405.687916666735,
      "v": 55
    },
    {
      "midi": 56,
      "hit": false,
      "t": 554429.4666666731,
      "d": 1193.200208333321,
      "v": 75
    },
    {
      "midi": 61,
      "hit": false,
      "t": 555083.2750000064,
      "d": 1323.9618749999208,
      "v": 60
    },
    {
      "midi": 64,
      "hit": false,
      "t": 555083.2750000064,
      "d": 1405.6879166666185,
      "v": 55
    },
    {
      "midi": 68,
      "hit": false,
      "t": 555083.2750000064,
      "d": 1405.6879166666185,
      "v": 55
    },
    {
      "midi": 56,
      "hit": false,
      "t": 556390.891666673,
      "d": 1209.5454166666605,
      "v": 78
    },
    {
      "midi": 66,
      "hit": false,
      "t": 557028.354791673,
      "d": 1405.687916666735,
      "v": 55
    },
    {
      "midi": 44,
      "hit": false,
      "t": 557044.6999999998,
      "d": 7567.831458333298,
      "v": 68
    },
    {
      "midi": 63,
      "hit": false,
      "t": 557044.7000000064,
      "d": 1340.3070833333768,
      "v": 58
    },
    {
      "midi": 60,
      "hit": false,
      "t": 557061.0452083397,
      "d": 1405.687916666735,
      "v": 55
    },
    {
      "midi": 56,
      "hit": false,
      "t": 558352.316666673,
      "d": 1160.5097916666418,
      "v": 77
    },
    {
      "midi": 66,
      "hit": false,
      "t": 558989.7797916731,
      "d": 1405.6879166666185,
      "v": 55
    },
    {
      "midi": 63,
      "hit": false,
      "t": 559006.1250000064,
      "d": 1323.9618749999208,
      "v": 66
    },
    {
      "midi": 60,
      "hit": false,
      "t": 559006.1250000064,
      "d": 1405.6879166666185,
      "v": 55
    },
    {
      "midi": 56,
      "hit": false,
      "t": 560313.741666673,
      "d": 1225.890625,
      "v": 69
    },
    {
      "midi": 63,
      "hit": false,
      "t": 560967.5500000063,
      "d": 1291.2714583333582,
      "v": 66
    },
    {
      "midi": 66,
      "hit": false,
      "t": 560967.5500000063,
      "d": 1405.687916666735,
      "v": 55
    },
    {
      "midi": 60,
      "hit": false,
      "t": 560983.8952083397,
      "d": 1405.687916666735,
      "v": 55
    },
    {
      "midi": 56,
      "hit": false,
      "t": 562275.166666673,
      "d": 1062.438541666721,
      "v": 74
    },
    {
      "midi": 60,
      "hit": false,
      "t": 562912.629791673,
      "d": 1405.687916666735,
      "v": 55
    },
    {
      "midi": 63,
      "hit": false,
      "t": 562928.9750000064,
      "d": 1618.1756250000326,
      "v": 66
    },
    {
      "midi": 66,
      "hit": false,
      "t": 562945.3202083397,
      "d": 1405.687916666735,
      "v": 55
    },
    {
      "midi": 56,
      "hit": false,
      "t": 564236.5916666731,
      "d": 653.8083333333489,
      "v": 76
    },
    {
      "midi": 49,
      "hit": false,
      "t": 564890.3999999998,
      "d": 5966.001041666721,
      "v": 72
    },
    {
      "midi": 56,
      "hit": false,
      "t": 564939.4356250064,
      "d": 1536.4495833333349,
      "v": 55
    },
    {
      "midi": 61,
      "hit": false,
      "t": 564939.4356250064,
      "d": 1585.4852083333535,
      "v": 49
    },
    {
      "midi": 56,
      "hit": false,
      "t": 566802.7893750065,
      "d": 1536.4495833333349,
      "v": 71
    },
    {
      "midi": 64,
      "hit": false,
      "t": 566802.7893750065,
      "d": 1601.830416666693,
      "v": 53
    },
    {
      "midi": 61,
      "hit": false,
      "t": 566819.1345833398,
      "d": 1585.4852083333535,
      "v": 64
    },
    {
      "midi": 68,
      "hit": false,
      "t": 566851.8250000065,
      "d": 1438.3783333332976,
      "v": 56
    },
    {
      "midi": 52,
      "hit": false,
      "t": 566851.8250000065,
      "d": 1732.592083333293,
      "v": 53
    },
    {
      "midi": 64,
      "hit": false,
      "t": 568796.9047916731,
      "d": 1536.4495833333349,
      "v": 49
    },
    {
      "midi": 56,
      "hit": false,
      "t": 568796.9047916731,
      "d": 1552.7947916666744,
      "v": 70
    },
    {
      "midi": 61,
      "hit": false,
      "t": 568796.9047916731,
      "d": 1716.2468749999534,
      "v": 72
    },
    {
      "midi": 68,
      "hit": false,
      "t": 568813.2500000064,
      "d": 1438.3783333332976,
      "v": 56
    },
    {
      "midi": 52,
      "hit": false,
      "t": 568862.2856250064,
      "d": 1732.592083333293,
      "v": 53
    },
    {
      "midi": 63,
      "hit": false,
      "t": 570758.329791673,
      "d": 1781.6277083333116,
      "v": 71
    },
    {
      "midi": 48,
      "hit": false,
      "t": 570774.6749999998,
      "d": 1977.770208333386,
      "v": 61
    },
    {
      "midi": 66,
      "hit": false,
      "t": 570823.7106250064,
      "d": 1716.2468749999534,
      "v": 56
    },
    {
      "midi": 54,
      "hit": false,
      "t": 570823.7106250064,
      "d": 1732.592083333293,
      "v": 53
    },
    {
      "midi": 52,
      "hit": false,
      "t": 572687.0643750064,
      "d": 1732.5920833334094,
      "v": 53
    },
    {
      "midi": 49,
      "hit": false,
      "t": 572736.0999999999,
      "d": 1879.6989583333489,
      "v": 60
    },
    {
      "midi": 56,
      "hit": false,
      "t": 572785.1356250064,
      "d": 1536.4495833333349,
      "v": 55
    },
    {
      "midi": 61,
      "hit": false,
      "t": 572785.1356250064,
      "d": 1585.4852083333535,
      "v": 63
    },
    {
      "midi": 64,
      "hit": false,
      "t": 572785.1356250064,
      "d": 1585.4852083333535,
      "v": 63
    },
    {
      "midi": 54,
      "hit": false,
      "t": 574648.4893750064,
      "d": 1536.4495833333349,
      "v": 71
    },
    {
      "midi": 63,
      "hit": false,
      "t": 574648.4893750064,
      "d": 1601.830416666693,
      "v": 53
    },
    {
      "midi": 59,
      "hit": false,
      "t": 574664.8345833397,
      "d": 1585.4852083333535,
      "v": 64
    },
    {
      "midi": 51,
      "hit": false,
      "t": 574697.5249999999,
      "d": 1814.3181249999907,
      "v": 64
    },
    {
      "midi": 51,
      "hit": false,
      "t": 574697.5250000064,
      "d": 1732.592083333293,
      "v": 53
    },
    {
      "midi": 64,
      "hit": false,
      "t": 576642.604791673,
      "d": 1536.4495833333349,
      "v": 49
    },
    {
      "midi": 56,
      "hit": false,
      "t": 576642.604791673,
      "d": 1552.7947916666744,
      "v": 70
    },
    {
      "midi": 61,
      "hit": false,
      "t": 576642.604791673,
      "d": 1716.2468749999534,
      "v": 72
    },
    {
      "midi": 49,
      "hit": false,
      "t": 576658.95,
      "d": 10722.456666666665,
      "v": 54
    },
    {
      "midi": 68,
      "hit": false,
      "t": 576658.9500000064,
      "d": 1438.3783333332976,
      "v": 56
    },
    {
      "midi": 52,
      "hit": false,
      "t": 576707.9856250064,
      "d": 1732.592083333293,
      "v": 53
    },
    {
      "midi": 60,
      "hit": false,
      "t": 578604.029791673,
      "d": 653.8083333333489,
      "v": 71
    },
    {
      "midi": 63,
      "hit": false,
      "t": 578636.7202083396,
      "d": 686.4987500000279,
      "v": 56
    },
    {
      "midi": 56,
      "hit": false,
      "t": 578636.7202083396,
      "d": 1732.5920833334094,
      "v": 53
    },
    {
      "midi": 61,
      "hit": false,
      "t": 579225.1477083396,
      "d": 2631.5785416668514,
      "v": 71
    },
    {
      "midi": 64,
      "hit": false,
      "t": 579257.8381250063,
      "d": 2549.8525000001537,
      "v": 56
    },
    {
      "midi": 68,
      "hit": false,
      "t": 579306.8737500063,
      "d": 2402.745625000098,
      "v": 55
    },
    {
      "midi": 68,
      "hit": false,
      "t": 582543.2250000065,
      "d": 1405.687916666735,
      "v": 55
    },
    {
      "midi": 61,
      "hit": false,
      "t": 582543.2250000065,
      "d": 1552.7947916667908,
      "v": 59
    },
    {
      "midi": 64,
      "hit": false,
      "t": 582559.5702083398,
      "d": 1405.687916666735,
      "v": 55
    },
    {
      "midi": 56,
      "hit": false,
      "t": 583850.8416666732,
      "d": 1372.9975000001723,
      "v": 81
    },
    {
      "midi": 64,
      "hit": false,
      "t": 584504.6500000067,
      "d": 1405.687916666735,
      "v": 55
    },
    {
      "midi": 61,
      "hit": false,
      "t": 584504.6500000067,
      "d": 1438.378333333414,
      "v": 63
    },
    {
      "midi": 68,
      "hit": false,
      "t": 584553.6856250067,
      "d": 1405.687916666735,
      "v": 55
    },
    {
      "midi": 56,
      "hit": false,
      "t": 585812.2666666734,
      "d": 1193.200208333321,
      "v": 75
    },
    {
      "midi": 61,
      "hit": false,
      "t": 586466.0750000067,
      "d": 1323.9618749999208,
      "v": 60
    },
    {
      "midi": 64,
      "hit": false,
      "t": 586466.0750000067,
      "d": 1405.6879166666185,
      "v": 55
    },
    {
      "midi": 68,
      "hit": false,
      "t": 586466.0750000067,
      "d": 1405.6879166666185,
      "v": 55
    },
    {
      "midi": 56,
      "hit": false,
      "t": 587773.6916666733,
      "d": 1209.5454166666605,
      "v": 78
    },
    {
      "midi": 66,
      "hit": false,
      "t": 588411.1547916733,
      "d": 1405.687916666735,
      "v": 55
    },
    {
      "midi": 44,
      "hit": false,
      "t": 588427.5,
      "d": 7567.831458333298,
      "v": 68
    },
    {
      "midi": 63,
      "hit": false,
      "t": 588427.5000000066,
      "d": 1340.3070833333768,
      "v": 58
    },
    {
      "midi": 60,
      "hit": false,
      "t": 588443.84520834,
      "d": 1405.687916666735,
      "v": 55
    },
    {
      "midi": 56,
      "hit": false,
      "t": 589735.1166666733,
      "d": 1160.5097916666418,
      "v": 77
    },
    {
      "midi": 66,
      "hit": false,
      "t": 590372.5797916733,
      "d": 1405.6879166666185,
      "v": 55
    },
    {
      "midi": 63,
      "hit": false,
      "t": 590388.9250000067,
      "d": 1323.9618749999208,
      "v": 66
    },
    {
      "midi": 60,
      "hit": false,
      "t": 590388.9250000067,
      "d": 1405.6879166666185,
      "v": 55
    },
    {
      "midi": 56,
      "hit": false,
      "t": 591696.5416666733,
      "d": 1225.890625,
      "v": 69
    },
    {
      "midi": 63,
      "hit": false,
      "t": 592350.3500000066,
      "d": 1291.2714583333582,
      "v": 66
    },
    {
      "midi": 66,
      "hit": false,
      "t": 592350.3500000066,
      "d": 1405.687916666735,
      "v": 55
    },
    {
      "midi": 60,
      "hit": false,
      "t": 592366.69520834,
      "d": 1405.687916666735,
      "v": 55
    },
    {
      "midi": 56,
      "hit": false,
      "t": 593657.9666666733,
      "d": 1062.438541666721,
      "v": 74
    },
    {
      "midi": 60,
      "hit": false,
      "t": 594295.4297916733,
      "d": 1405.687916666735,
      "v": 55
    },
    {
      "midi": 63,
      "hit": false,
      "t": 594311.7750000067,
      "d": 1618.1756250000326,
      "v": 66
    },
    {
      "midi": 66,
      "hit": false,
      "t": 594328.12020834,
      "d": 1405.687916666735,
      "v": 55
    },
    {
      "midi": 56,
      "hit": false,
      "t": 595619.3916666734,
      "d": 653.8083333333489,
      "v": 76
    },
    {
      "midi": 49,
      "hit": false,
      "t": 596273.2,
      "d": 5966.001041666721,
      "v": 72
    },
    {
      "midi": 56,
      "hit": false,
      "t": 596322.2356250067,
      "d": 1536.4495833333349,
      "v": 55
    },
    {
      "midi": 61,
      "hit": false,
      "t": 596322.2356250067,
      "d": 1585.4852083333535,
      "v": 49
    },
    {
      "midi": 56,
      "hit": false,
      "t": 598185.5893750067,
      "d": 1536.4495833333349,
      "v": 71
    },
    {
      "midi": 64,
      "hit": false,
      "t": 598185.5893750067,
      "d": 1601.830416666693,
      "v": 53
    },
    {
      "midi": 61,
      "hit": false,
      "t": 598201.9345833401,
      "d": 1585.4852083333535,
      "v": 64
    },
    {
      "midi": 68,
      "hit": false,
      "t": 598234.6250000068,
      "d": 1438.3783333332976,
      "v": 56
    },
    {
      "midi": 52,
      "hit": false,
      "t": 598234.6250000068,
      "d": 1732.592083333293,
      "v": 53
    },
    {
      "midi": 64,
      "hit": false,
      "t": 600179.7047916733,
      "d": 1536.4495833333349,
      "v": 49
    },
    {
      "midi": 56,
      "hit": false,
      "t": 600179.7047916733,
      "d": 1552.7947916666744,
      "v": 70
    },
    {
      "midi": 61,
      "hit": false,
      "t": 600179.7047916733,
      "d": 1716.2468749999534,
      "v": 72
    },
    {
      "midi": 68,
      "hit": false,
      "t": 600196.0500000067,
      "d": 1438.3783333332976,
      "v": 56
    },
    {
      "midi": 52,
      "hit": false,
      "t": 600245.0856250067,
      "d": 1732.592083333293,
      "v": 53
    },
    {
      "midi": 63,
      "hit": false,
      "t": 602141.1297916733,
      "d": 1781.6277083333116,
      "v": 71
    },
    {
      "midi": 48,
      "hit": false,
      "t": 602157.475,
      "d": 1977.770208333386,
      "v": 61
    },
    {
      "midi": 66,
      "hit": false,
      "t": 602206.5106250066,
      "d": 1716.2468749999534,
      "v": 56
    },
    {
      "midi": 54,
      "hit": false,
      "t": 602206.5106250066,
      "d": 1732.592083333293,
      "v": 53
    },
    {
      "midi": 52,
      "hit": false,
      "t": 604069.8643750066,
      "d": 1732.5920833334094,
      "v": 53
    },
    {
      "midi": 49,
      "hit": false,
      "t": 604118.9,
      "d": 1879.6989583333489,
      "v": 60
    },
    {
      "midi": 56,
      "hit": false,
      "t": 604167.9356250067,
      "d": 1536.4495833333349,
      "v": 55
    },
    {
      "midi": 61,
      "hit": false,
      "t": 604167.9356250067,
      "d": 1585.4852083333535,
      "v": 63
    },
    {
      "midi": 64,
      "hit": false,
      "t": 604167.9356250067,
      "d": 1585.4852083333535,
      "v": 63
    },
    {
      "midi": 54,
      "hit": false,
      "t": 606031.2893750067,
      "d": 1536.4495833333349,
      "v": 71
    },
    {
      "midi": 63,
      "hit": false,
      "t": 606031.2893750067,
      "d": 1601.830416666693,
      "v": 53
    },
    {
      "midi": 59,
      "hit": false,
      "t": 606047.63458334,
      "d": 1585.4852083333535,
      "v": 64
    },
    {
      "midi": 51,
      "hit": false,
      "t": 606080.3250000001,
      "d": 1814.3181249999907,
      "v": 64
    },
    {
      "midi": 66,
      "hit": false,
      "t": 606080.3250000067,
      "d": 1536.4495833333349,
      "v": 49
    },
    {
      "midi": 51,
      "hit": false,
      "t": 606080.3250000067,
      "d": 1732.592083333293,
      "v": 53
    },
    {
      "midi": 64,
      "hit": false,
      "t": 608025.4047916733,
      "d": 1536.4495833333349,
      "v": 49
    },
    {
      "midi": 56,
      "hit": false,
      "t": 608025.4047916733,
      "d": 1552.7947916666744,
      "v": 70
    },
    {
      "midi": 61,
      "hit": false,
      "t": 608025.4047916733,
      "d": 1716.2468749999534,
      "v": 72
    },
    {
      "midi": 49,
      "hit": false,
      "t": 608041.7500000001,
      "d": 10722.456666666665,
      "v": 54
    },
    {
      "midi": 68,
      "hit": false,
      "t": 608041.7500000066,
      "d": 1438.3783333332976,
      "v": 56
    },
    {
      "midi": 52,
      "hit": false,
      "t": 608090.7856250067,
      "d": 1732.592083333293,
      "v": 53
    },
    {
      "midi": 60,
      "hit": false,
      "t": 609986.8297916732,
      "d": 653.8083333333489,
      "v": 71
    },
    {
      "midi": 63,
      "hit": false,
      "t": 610019.5202083399,
      "d": 686.4987500000279,
      "v": 56
    },
    {
      "midi": 56,
      "hit": false,
      "t": 610019.5202083399,
      "d": 1732.5920833334094,
      "v": 53
    },
    {
      "midi": 61,
      "hit": false,
      "t": 610607.9477083399,
      "d": 2631.5785416668514,
      "v": 71
    },
    {
      "midi": 64,
      "hit": false,
      "t": 610640.6381250066,
      "d": 2549.8525000001537,
      "v": 56
    },
    {
      "midi": 68,
      "hit": false,
      "t": 610689.6737500066,
      "d": 2402.745625000098,
      "v": 55
    },
    {
      "midi": 56,
      "hit": false,
      "t": 613860.6441666734,
      "d": 1552.7947916666744,
      "v": 54
    },
    {
      "midi": 61,
      "hit": false,
      "t": 613876.9893750068,
      "d": 1569.140000000014,
      "v": 52
    },
    {
      "midi": 64,
      "hit": false,
      "t": 613893.3345833401,
      "d": 1405.6879166666185,
      "v": 60
    },
    {
      "midi": 56,
      "hit": false,
      "t": 615871.1047916735,
      "d": 1454.7235416666372,
      "v": 65
    },
    {
      "midi": 64,
      "hit": false,
      "t": 615871.1047916735,
      "d": 1471.0687499999767,
      "v": 52
    },
    {
      "midi": 61,
      "hit": false,
      "t": 615871.1047916735,
      "d": 1503.7591666666558,
      "v": 61
    },
    {
      "midi": 56,
      "hit": false,
      "t": 617848.8750000068,
      "d": 1814.3181249999907,
      "v": 59
    },
    {
      "midi": 61,
      "hit": false,
      "t": 617848.8750000068,
      "d": 1814.3181249999907,
      "v": 58
    },
    {
      "midi": 64,
      "hit": false,
      "t": 617865.2202083401,
      "d": 1879.6989583333489,
      "v": 60
    },
    {
      "midi": 42,
      "hit": false,
      "t": 619810.3000000002,
      "d": 2811.3758333333535,
      "v": 51
    },
    {
      "midi": 59,
      "hit": false,
      "t": 619810.3000000068,
      "d": 3301.7320833334234,
      "v": 65
    },
    {
      "midi": 66,
      "hit": false,
      "t": 619826.6452083401,
      "d": 3040.2087499999907,
      "v": 54
    },
    {
      "midi": 54,
      "hit": false,
      "t": 619826.6452083401,
      "d": 3187.3156250000466,
      "v": 59
    },
    {
      "midi": 66,
      "hit": false,
      "t": 623700.4595833402,
      "d": 3922.850000000093,
      "v": 48
    },
    {
      "midi": 61,
      "hit": false,
      "t": 623716.8047916736,
      "d": 3906.5047916667536,
      "v": 62
    },
    {
      "midi": 42,
      "hit": false,
      "t": 623733.1500000001,
      "d": 3710.362291666679,
      "v": 41
    },
    {
      "midi": 54,
      "hit": false,
      "t": 623749.4952083402,
      "d": 3824.778750000056,
      "v": 47
    },
    {
      "midi": 58,
      "hit": false,
      "t": 623765.8404166736,
      "d": 3922.850000000093,
      "v": 52
    }
  ]
}