{
  "jsonPath": "Unknown/Unknown/Con  Dec_ The Bachelors/unforgettable.json",
  "path": "Unknown\\Unknown\\Con  Dec_ The Bachelors\\Unforgettable.mid",
  "name": "Unforgettable",
  "difficulty": "Advanced",
  "bpm": 82.00003553334874,
  "notes": [
    {
      "midi": 65,
      "hit": false,
      "t": 10.416666666666666,
      "d": 531.2500000000001,
      "v": 89
    },
    {
      "midi": 69,
      "hit": false,
      "t": 20.833333333333332,
      "d": 520.8333333333334,
      "v": 88
    },
    {
      "midi": 64,
      "hit": false,
      "t": 31.25,
      "d": 520.8333333333334,
      "v": 85
    },
    {
      "midi": 72,
      "hit": false,
      "t": 31.25,
      "d": 541.6666666666667,
      "v": 85
    },
    {
      "midi": 67,
      "hit": false,
      "t": 697.9166666666667,
      "d": 260.41666666666663,
      "v": 85
    },
    {
      "midi": 70,
      "hit": false,
      "t": 708.3333333333334,
      "d": 250,
      "v": 84
    },
    {
      "midi": 65,
      "hit": false,
      "t": 708.3333333333334,
      "d": 270.83333333333337,
      "v": 85
    },
    {
      "midi": 74,
      "hit": false,
      "t": 708.3333333333334,
      "d": 281.25,
      "v": 85
    },
    {
      "midi": 67,
      "hit": false,
      "t": 1072.9166666666667,
      "d": 437.5,
      "v": 89
    },
    {
      "midi": 70,
      "hit": false,
      "t": 1072.9166666666667,
      "d": 458.33333333333326,
      "v": 85
    },
    {
      "midi": 74,
      "hit": false,
      "t": 1072.9166666666667,
      "d": 468.75,
      "v": 85
    },
    {
      "midi": 65,
      "hit": false,
      "t": 1083.3333333333335,
      "d": 427.08333333333326,
      "v": 85
    },
    {
      "midi": 67,
      "hit": false,
      "t": 1656.25,
      "d": 281.2500000000002,
      "v": 85
    },
    {
      "midi": 72,
      "hit": false,
      "t": 1666.6666666666667,
      "d": 250,
      "v": 88
    },
    {
      "midi": 76,
      "hit": false,
      "t": 1666.6666666666667,
      "d": 250,
      "v": 85
    },
    {
      "midi": 69,
      "hit": false,
      "t": 1666.6666666666667,
      "d": 260.41666666666674,
      "v": 85
    },
    {
      "midi": 67,
      "hit": false,
      "t": 2072.916666666667,
      "d": 1687.5,
      "v": 85
    },
    {
      "midi": 69,
      "hit": false,
      "t": 2072.916666666667,
      "d": 1687.5,
      "v": 85
    },
    {
      "midi": 76,
      "hit": false,
      "t": 2083.3333333333335,
      "d": 1614.5833333333335,
      "v": 85
    },
    {
      "midi": 72,
      "hit": false,
      "t": 2083.3333333333335,
      "d": 1666.666666666667,
      "v": 89
    },
    {
      "midi": 65,
      "hit": false,
      "t": 4020.8333333333335,
      "d": 510.4166666666665,
      "v": 85
    },
    {
      "midi": 69,
      "hit": false,
      "t": 4020.8333333333335,
      "d": 541.6666666666665,
      "v": 85
    },
    {
      "midi": 70,
      "hit": false,
      "t": 4031.25,
      "d": 520.833333333333,
      "v": 84
    },
    {
      "midi": 74,
      "hit": false,
      "t": 4031.25,
      "d": 531.25,
      "v": 85
    },
    {
      "midi": 69,
      "hit": false,
      "t": 4677.083333333333,
      "d": 281.25,
      "v": 85
    },
    {
      "midi": 72,
      "hit": false,
      "t": 4677.083333333333,
      "d": 281.25,
      "v": 85
    },
    {
      "midi": 67,
      "hit": false,
      "t": 4687.5,
      "d": 270.83333333333303,
      "v": 85
    },
    {
      "midi": 76,
      "hit": false,
      "t": 4687.5,
      "d": 270.83333333333303,
      "v": 85
    },
    {
      "midi": 67,
      "hit": false,
      "t": 5062.5,
      "d": 406.25,
      "v": 85
    },
    {
      "midi": 69,
      "hit": false,
      "t": 5062.5,
      "d": 427.08333333333303,
      "v": 85
    },
    {
      "midi": 72,
      "hit": false,
      "t": 5062.5,
      "d": 447.91666666666606,
      "v": 85
    },
    {
      "midi": 76,
      "hit": false,
      "t": 5072.916666666667,
      "d": 447.91666666666606,
      "v": 85
    },
    {
      "midi": 77,
      "hit": false,
      "t": 5666.666666666666,
      "d": 302.08333333333303,
      "v": 85
    },
    {
      "midi": 69,
      "hit": false,
      "t": 5666.666666666666,
      "d": 312.5,
      "v": 85
    },
    {
      "midi": 74,
      "hit": false,
      "t": 5666.666666666666,
      "d": 312.5,
      "v": 85
    },
    {
      "midi": 70,
      "hit": false,
      "t": 5677.083333333333,
      "d": 270.83333333333303,
      "v": 78
    },
    {
      "midi": 70,
      "hit": false,
      "t": 6072.916666666666,
      "d": 1614.583333333333,
      "v": 84
    },
    {
      "midi": 74,
      "hit": false,
      "t": 6072.916666666666,
      "d": 1625,
      "v": 85
    },
    {
      "midi": 69,
      "hit": false,
      "t": 6072.916666666666,
      "d": 1645.833333333333,
      "v": 85
    },
    {
      "midi": 77,
      "hit": false,
      "t": 6072.916666666666,
      "d": 1645.833333333333,
      "v": 85
    },
    {
      "midi": 67,
      "hit": false,
      "t": 8010.416666666666,
      "d": 500,
      "v": 85
    },
    {
      "midi": 72,
      "hit": false,
      "t": 8020.833333333333,
      "d": 510.41666666666697,
      "v": 85
    },
    {
      "midi": 69,
      "hit": false,
      "t": 8031.25,
      "d": 468.75,
      "v": 89
    },
    {
      "midi": 76,
      "hit": false,
      "t": 8031.25,
      "d": 479.16666666666606,
      "v": 85
    },
    {
      "midi": 69,
      "hit": false,
      "t": 8614.583333333334,
      "d": 239.58333333333394,
      "v": 85
    },
    {
      "midi": 67,
      "hit": false,
      "t": 8614.583333333334,
      "d": 250,
      "v": 85
    },
    {
      "midi": 72,
      "hit": false,
      "t": 8614.583333333334,
      "d": 260.41666666666606,
      "v": 85
    },
    {
      "midi": 77,
      "hit": false,
      "t": 8614.583333333334,
      "d": 260.41666666666606,
      "v": 85
    },
    {
      "midi": 77,
      "hit": false,
      "t": 9000,
      "d": 458.3333333333321,
      "v": 85
    },
    {
      "midi": 67,
      "hit": false,
      "t": 9010.416666666666,
      "d": 468.75,
      "v": 85
    },
    {
      "midi": 69,
      "hit": false,
      "t": 9010.416666666666,
      "d": 520.8333333333339,
      "v": 85
    },
    {
      "midi": 72,
      "hit": false,
      "t": 9010.416666666666,
      "d": 833.3333333333321,
      "v": 85
    },
    {
      "midi": 79,
      "hit": false,
      "t": 9604.166666666666,
      "d": 166.66666666666606,
      "v": 85
    },
    {
      "midi": 69,
      "hit": false,
      "t": 9614.583333333332,
      "d": 218.75,
      "v": 57
    },
    {
      "midi": 68,
      "hit": false,
      "t": 9968.749999999998,
      "d": 510.41666666666606,
      "v": 104
    },
    {
      "midi": 71,
      "hit": false,
      "t": 9968.749999999998,
      "d": 531.25,
      "v": 86
    },
    {
      "midi": 76,
      "hit": false,
      "t": 9979.166666666664,
      "d": 31.25,
      "v": 85
    },
    {
      "midi": 74,
      "hit": false,
      "t": 9979.166666666664,
      "d": 500,
      "v": 85
    },
    {
      "midi": 65,
      "hit": false,
      "t": 9979.166666666664,
      "d": 531.25,
      "v": 85
    },
    {
      "midi": 76,
      "hit": false,
      "t": 10593.749999999998,
      "d": 239.58333333333394,
      "v": 85
    },
    {
      "midi": 68,
      "hit": false,
      "t": 10593.749999999998,
      "d": 250,
      "v": 76
    },
    {
      "midi": 65,
      "hit": false,
      "t": 10593.749999999998,
      "d": 260.41666666666606,
      "v": 85
    },
    {
      "midi": 71,
      "hit": false,
      "t": 10593.749999999998,
      "d": 270.8333333333321,
      "v": 85
    },
    {
      "midi": 71,
      "hit": false,
      "t": 10958.33333333333,
      "d": 593.7499999999982,
      "v": 85
    },
    {
      "midi": 76,
      "hit": false,
      "t": 10968.749999999996,
      "d": 510.41666666666606,
      "v": 85
    },
    {
      "midi": 68,
      "hit": false,
      "t": 10968.749999999996,
      "d": 552.0833333333321,
      "v": 74
    },
    {
      "midi": 65,
      "hit": false,
      "t": 10968.749999999996,
      "d": 562.4999999999982,
      "v": 85
    },
    {
      "midi": 77,
      "hit": false,
      "t": 11614.583333333328,
      "d": 135.41666666666606,
      "v": 85
    },
    {
      "midi": 71,
      "hit": false,
      "t": 11614.583333333328,
      "d": 208.33333333333212,
      "v": 85
    },
    {
      "midi": 68,
      "hit": false,
      "t": 11614.583333333328,
      "d": 218.74999999999818,
      "v": 72
    },
    {
      "midi": 65,
      "hit": false,
      "t": 11614.583333333328,
      "d": 229.16666666666424,
      "v": 85
    },
    {
      "midi": 65,
      "hit": false,
      "t": 11989.583333333327,
      "d": 499.9999999999982,
      "v": 85
    },
    {
      "midi": 70,
      "hit": false,
      "t": 11999.999999999993,
      "d": 479.16666666666606,
      "v": 84
    },
    {
      "midi": 67,
      "hit": false,
      "t": 11999.999999999993,
      "d": 510.41666666666606,
      "v": 88
    },
    {
      "midi": 62,
      "hit": false,
      "t": 11999.999999999993,
      "d": 520.8333333333321,
      "v": 85
    },
    {
      "midi": 72,
      "hit": false,
      "t": 12604.166666666659,
      "d": 281.2499999999982,
      "v": 85
    },
    {
      "midi": 65,
      "hit": false,
      "t": 12604.166666666659,
      "d": 291.66666666666424,
      "v": 85
    },
    {
      "midi": 67,
      "hit": false,
      "t": 12604.166666666659,
      "d": 291.66666666666424,
      "v": 85
    },
    {
      "midi": 62,
      "hit": false,
      "t": 12614.583333333325,
      "d": 281.2499999999982,
      "v": 85
    },
    {
      "midi": 70,
      "hit": false,
      "t": 12624.99999999999,
      "d": 72.91666666666606,
      "v": 67
    },
    {
      "midi": 72,
      "hit": false,
      "t": 12989.583333333323,
      "d": 479.16666666666606,
      "v": 85
    },
    {
      "midi": 62,
      "hit": false,
      "t": 12989.583333333323,
      "d": 531.25,
      "v": 85
    },
    {
      "midi": 65,
      "hit": false,
      "t": 12989.583333333323,
      "d": 541.6666666666661,
      "v": 85
    },
    {
      "midi": 67,
      "hit": false,
      "t": 12989.583333333323,
      "d": 572.9166666666661,
      "v": 85
    },
    {
      "midi": 74,
      "hit": false,
      "t": 13624.999999999989,
      "d": 135.41666666666606,
      "v": 85
    },
    {
      "midi": 65,
      "hit": false,
      "t": 13624.999999999989,
      "d": 177.08333333333212,
      "v": 85
    },
    {
      "midi": 67,
      "hit": false,
      "t": 13624.999999999989,
      "d": 177.08333333333212,
      "v": 85
    },
    {
      "midi": 61,
      "hit": false,
      "t": 13999.999999999987,
      "d": 20.83333333333212,
      "v": 74
    },
    {
      "midi": 67,
      "hit": false,
      "t": 14010.416666666653,
      "d": 499.9999999999982,
      "v": 85
    },
    {
      "midi": 62,
      "hit": false,
      "t": 14020.83333333332,
      "d": 479.16666666666606,
      "v": 88
    },
    {
      "midi": 65,
      "hit": false,
      "t": 14020.83333333332,
      "d": 520.8333333333321,
      "v": 85
    },
    {
      "midi": 58,
      "hit": false,
      "t": 14031.249999999985,
      "d": 500,
      "v": 82
    },
    {
      "midi": 65,
      "hit": false,
      "t": 14624.999999999985,
      "d": 270.83333333333394,
      "v": 85
    },
    {
      "midi": 69,
      "hit": false,
      "t": 14624.999999999985,
      "d": 312.5,
      "v": 85
    },
    {
      "midi": 62,
      "hit": false,
      "t": 14635.416666666652,
      "d": 239.58333333333394,
      "v": 85
    },
    {
      "midi": 58,
      "hit": false,
      "t": 14635.416666666652,
      "d": 270.83333333333394,
      "v": 67
    },
    {
      "midi": 69,
      "hit": false,
      "t": 14999.999999999985,
      "d": 437.5,
      "v": 85
    },
    {
      "midi": 64,
      "hit": false,
      "t": 14999.999999999985,
      "d": 520.8333333333339,
      "v": 103
    },
    {
      "midi": 61,
      "hit": false,
      "t": 15010.416666666652,
      "d": 489.58333333333394,
      "v": 76
    },
    {
      "midi": 58,
      "hit": false,
      "t": 15010.416666666652,
      "d": 510.4166666666679,
      "v": 79
    },
    {
      "midi": 58,
      "hit": false,
      "t": 15614.58333333332,
      "d": 270.83333333333394,
      "v": 68
    },
    {
      "midi": 64,
      "hit": false,
      "t": 15614.58333333332,
      "d": 302.08333333333394,
      "v": 85
    },
    {
      "midi": 70,
      "hit": false,
      "t": 15614.58333333332,
      "d": 302.08333333333394,
      "v": 84
    },
    {
      "midi": 61,
      "hit": false,
      "t": 15635.416666666653,
      "d": 218.75,
      "v": 66
    },
    {
      "midi": 41,
      "hit": false,
      "t": 16041.666666666653,
      "d": 3447.9166666666642,
      "v": 85
    },
    {
      "midi": 53,
      "hit": false,
      "t": 16052.08333333332,
      "d": 3427.0833333333303,
      "v": 85
    },
    {
      "midi": 69,
      "hit": false,
      "t": 16062.499999999985,
      "d": 1635.4166666666642,
      "v": 85
    },
    {
      "midi": 65,
      "hit": false,
      "t": 16062.499999999985,
      "d": 1666.6666666666642,
      "v": 85
    },
    {
      "midi": 60,
      "hit": false,
      "t": 16072.916666666652,
      "d": 1677.0833333333303,
      "v": 85
    },
    {
      "midi": 62,
      "hit": false,
      "t": 16104.166666666652,
      "d": 187.5,
      "v": 85
    },
    {
      "midi": 69,
      "hit": false,
      "t": 17979.16666666665,
      "d": 1500,
      "v": 85
    },
    {
      "midi": 64,
      "hit": false,
      "t": 17979.16666666665,
      "d": 1520.8333333333358,
      "v": 85
    },
    {
      "midi": 65,
      "hit": false,
      "t": 17979.16666666665,
      "d": 1531.2500000000036,
      "v": 85
    },
    {
      "midi": 60,
      "hit": false,
      "t": 17989.583333333318,
      "d": 1510.4166666666679,
      "v": 85
    },
    {
      "midi": 88,
      "hit": false,
      "t": 18874.999999999985,
      "d": 239.58333333333212,
      "v": 89
    },
    {
      "midi": 89,
      "hit": false,
      "t": 19135.41666666665,
      "d": 291.6666666666679,
      "v": 85
    },
    {
      "midi": 88,
      "hit": false,
      "t": 19395.833333333318,
      "d": 239.58333333333576,
      "v": 92
    },
    {
      "midi": 62,
      "hit": false,
      "t": 19614.58333333332,
      "d": 291.66666666666424,
      "v": 95
    },
    {
      "midi": 65,
      "hit": false,
      "t": 19614.58333333332,
      "d": 2145.833333333332,
      "v": 86
    },
    {
      "midi": 60,
      "hit": false,
      "t": 19614.58333333332,
      "d": 2166.6666666666642,
      "v": 85
    },
    {
      "midi": 81,
      "hit": false,
      "t": 19656.249999999985,
      "d": 208.33333333333212,
      "v": 85
    },
    {
      "midi": 69,
      "hit": false,
      "t": 19979.166666666653,
      "d": 1614.5833333333321,
      "v": 85
    },
    {
      "midi": 64,
      "hit": false,
      "t": 19979.166666666653,
      "d": 1802.0833333333321,
      "v": 85
    },
    {
      "midi": 84,
      "hit": false,
      "t": 19999.999999999985,
      "d": 1791.6666666666679,
      "v": 95
    },
    {
      "midi": 60,
      "hit": false,
      "t": 22031.249999999985,
      "d": 875,
      "v": 79
    },
    {
      "midi": 62,
      "hit": false,
      "t": 22031.249999999985,
      "d": 875,
      "v": 85
    },
    {
      "midi": 65,
      "hit": false,
      "t": 22031.249999999985,
      "d": 885.4166666666679,
      "v": 85
    },
    {
      "midi": 62,
      "hit": false,
      "t": 23010.416666666653,
      "d": 729.1666666666679,
      "v": 85
    },
    {
      "midi": 65,
      "hit": false,
      "t": 23010.416666666653,
      "d": 760.4166666666679,
      "v": 85
    },
    {
      "midi": 60,
      "hit": false,
      "t": 23020.83333333332,
      "d": 656.25,
      "v": 85
    },
    {
      "midi": 69,
      "hit": false,
      "t": 23020.83333333332,
      "d": 791.6666666666679,
      "v": 85
    },
    {
      "midi": 53,
      "hit": false,
      "t": 23645.83333333332,
      "d": 364.58333333333576,
      "v": 85
    },
    {
      "midi": 68,
      "hit": false,
      "t": 24031.24999999999,
      "d": 2406.25,
      "v": 85
    },
    {
      "midi": 65,
      "hit": false,
      "t": 24031.24999999999,
      "d": 2437.5,
      "v": 85
    },
    {
      "midi": 71,
      "hit": false,
      "t": 24041.666666666657,
      "d": 2406.25,
      "v": 85
    },
    {
      "midi": 62,
      "hit": false,
      "t": 24041.666666666657,
      "d": 2447.9166666666642,
      "v": 85
    },
    {
      "midi": 56,
      "hit": false,
      "t": 24041.666666666657,
      "d": 2854.1666666666642,
      "v": 67
    },
    {
      "midi": 65,
      "hit": false,
      "t": 26635.416666666653,
      "d": 1250,
      "v": 85
    },
    {
      "midi": 62,
      "hit": false,
      "t": 26635.416666666653,
      "d": 1281.25,
      "v": 85
    },
    {
      "midi": 71,
      "hit": false,
      "t": 26645.83333333332,
      "d": 1208.3333333333321,
      "v": 85
    },
    {
      "midi": 68,
      "hit": false,
      "t": 26645.83333333332,
      "d": 1239.5833333333321,
      "v": 70
    },
    {
      "midi": 62,
      "hit": false,
      "t": 28020.83333333332,
      "d": 1385.4166666666679,
      "v": 85
    },
    {
      "midi": 68,
      "hit": false,
      "t": 28020.83333333332,
      "d": 1427.0833333333358,
      "v": 67
    },
    {
      "midi": 65,
      "hit": false,
      "t": 28031.24999999999,
      "d": 1406.25,
      "v": 85
    },
    {
      "midi": 71,
      "hit": false,
      "t": 28031.24999999999,
      "d": 1406.25,
      "v": 85
    },
    {
      "midi": 88,
      "hit": false,
      "t": 29020.83333333332,
      "d": 250,
      "v": 92
    },
    {
      "midi": 89,
      "hit": false,
      "t": 29333.33333333332,
      "d": 260.4166666666679,
      "v": 85
    },
    {
      "midi": 68,
      "hit": false,
      "t": 29614.58333333332,
      "d": 197.91666666666788,
      "v": 71
    },
    {
      "midi": 71,
      "hit": false,
      "t": 29614.58333333332,
      "d": 218.75,
      "v": 85
    },
    {
      "midi": 65,
      "hit": false,
      "t": 29624.99999999999,
      "d": 218.75,
      "v": 74
    },
    {
      "midi": 74,
      "hit": false,
      "t": 29624.99999999999,
      "d": 229.16666666666788,
      "v": 85
    },
    {
      "midi": 85,
      "hit": false,
      "t": 29666.666666666657,
      "d": 270.8333333333321,
      "v": 79
    },
    {
      "midi": 71,
      "hit": false,
      "t": 29989.58333333332,
      "d": 687.5,
      "v": 85
    },
    {
      "midi": 74,
      "hit": false,
      "t": 29999.99999999999,
      "d": 656.25,
      "v": 84
    },
    {
      "midi": 68,
      "hit": false,
      "t": 29999.99999999999,
      "d": 677.0833333333321,
      "v": 66
    },
    {
      "midi": 65,
      "hit": false,
      "t": 29999.99999999999,
      "d": 708.3333333333321,
      "v": 68
    },
    {
      "midi": 86,
      "hit": false,
      "t": 30010.416666666657,
      "d": 500,
      "v": 85
    },
    {
      "midi": 88,
      "hit": false,
      "t": 30739.58333333332,
      "d": 291.6666666666679,
      "v": 85
    },
    {
      "midi": 68,
      "hit": false,
      "t": 31041.666666666657,
      "d": 916.6666666666715,
      "v": 76
    },
    {
      "midi": 71,
      "hit": false,
      "t": 31052.083333333325,
      "d": 885.4166666666679,
      "v": 85
    },
    {
      "midi": 65,
      "hit": false,
      "t": 31052.083333333325,
      "d": 895.8333333333358,
      "v": 85
    },
    {
      "midi": 62,
      "hit": false,
      "t": 31052.083333333325,
      "d": 927.0833333333358,
      "v": 85
    },
    {
      "midi": 89,
      "hit": false,
      "t": 31427.083333333325,
      "d": 312.5,
      "v": 85
    },
    {
      "midi": 56,
      "hit": false,
      "t": 31677.083333333325,
      "d": 312.50000000000364,
      "v": 77
    },
    {
      "midi": 55,
      "hit": false,
      "t": 32020.83333333333,
      "d": 2937.4999999999927,
      "v": 85
    },
    {
      "midi": 65,
      "hit": false,
      "t": 32041.66666666666,
      "d": 1625.0000000000036,
      "v": 85
    },
    {
      "midi": 67,
      "hit": false,
      "t": 32052.08333333333,
      "d": 1614.5833333333358,
      "v": 85
    },
    {
      "midi": 70,
      "hit": false,
      "t": 32052.08333333333,
      "d": 1625,
      "v": 61
    },
    {
      "midi": 62,
      "hit": false,
      "t": 32052.08333333333,
      "d": 1666.6666666666642,
      "v": 81
    },
    {
      "midi": 89,
      "hit": false,
      "t": 32885.416666666664,
      "d": 218.75,
      "v": 85
    },
    {
      "midi": 91,
      "hit": false,
      "t": 33083.33333333333,
      "d": 187.5,
      "v": 85
    },
    {
      "midi": 89,
      "hit": false,
      "t": 33291.666666666664,
      "d": 166.66666666666424,
      "v": 66
    },
    {
      "midi": 62,
      "hit": false,
      "t": 33989.58333333333,
      "d": 250,
      "v": 85
    },
    {
      "midi": 58,
      "hit": false,
      "t": 33989.58333333333,
      "d": 270.83333333333576,
      "v": 71
    },
    {
      "midi": 65,
      "hit": false,
      "t": 33999.99999999999,
      "d": 218.75,
      "v": 85
    },
    {
      "midi": 69,
      "hit": false,
      "t": 34010.41666666666,
      "d": 208.33333333333576,
      "v": 77
    },
    {
      "midi": 67,
      "hit": false,
      "t": 34031.24999999999,
      "d": 177.08333333333576,
      "v": 60
    },
    {
      "midi": 62,
      "hit": false,
      "t": 34666.666666666664,
      "d": 291.66666666665697,
      "v": 85
    },
    {
      "midi": 58,
      "hit": false,
      "t": 34666.666666666664,
      "d": 385.41666666665697,
      "v": 68
    },
    {
      "midi": 65,
      "hit": false,
      "t": 34677.08333333333,
      "d": 239.58333333332848,
      "v": 85
    },
    {
      "midi": 69,
      "hit": false,
      "t": 34687.49999999999,
      "d": 354.16666666666424,
      "v": 85
    },
    {
      "midi": 55,
      "hit": false,
      "t": 35052.08333333332,
      "d": 281.25,
      "v": 85
    },
    {
      "midi": 62,
      "hit": false,
      "t": 35364.58333333332,
      "d": 166.66666666666424,
      "v": 92
    },
    {
      "midi": 65,
      "hit": false,
      "t": 35364.58333333332,
      "d": 208.33333333332848,
      "v": 89
    },
    {
      "midi": 58,
      "hit": false,
      "t": 35364.58333333332,
      "d": 218.74999999999272,
      "v": 82
    },
    {
      "midi": 67,
      "hit": false,
      "t": 35364.58333333332,
      "d": 229.16666666665697,
      "v": 91
    },
    {
      "midi": 62,
      "hit": false,
      "t": 36052.083333333314,
      "d": 562.5,
      "v": 85
    },
    {
      "midi": 65,
      "hit": false,
      "t": 36052.083333333314,
      "d": 572.9166666666642,
      "v": 85
    },
    {
      "midi": 58,
      "hit": false,
      "t": 36052.083333333314,
      "d": 593.75,
      "v": 76
    },
    {
      "midi": 55,
      "hit": false,
      "t": 36052.083333333314,
      "d": 989.5833333333285,
      "v": 85
    },
    {
      "midi": 69,
      "hit": false,
      "t": 36062.49999999998,
      "d": 562.5,
      "v": 89
    },
    {
      "midi": 65,
      "hit": false,
      "t": 36739.583333333314,
      "d": 1729.166666666657,
      "v": 85
    },
    {
      "midi": 58,
      "hit": false,
      "t": 36749.99999999998,
      "d": 1614.5833333333285,
      "v": 89
    },
    {
      "midi": 62,
      "hit": false,
      "t": 36749.99999999998,
      "d": 1739.5833333333285,
      "v": 85
    },
    {
      "midi": 67,
      "hit": false,
      "t": 36749.99999999998,
      "d": 1739.5833333333285,
      "v": 86
    },
    {
      "midi": 55,
      "hit": false,
      "t": 37979.16666666664,
      "d": 791.6666666666642,
      "v": 96
    },
    {
      "midi": 67,
      "hit": false,
      "t": 38635.41666666664,
      "d": 197.91666666665697,
      "v": 85
    },
    {
      "midi": 62,
      "hit": false,
      "t": 38645.83333333331,
      "d": 135.41666666666424,
      "v": 85
    },
    {
      "midi": 65,
      "hit": false,
      "t": 38645.83333333331,
      "d": 145.83333333332848,
      "v": 85
    },
    {
      "midi": 58,
      "hit": false,
      "t": 38645.83333333331,
      "d": 156.24999999999272,
      "v": 81
    },
    {
      "midi": 50,
      "hit": false,
      "t": 38999.99999999996,
      "d": 343.75,
      "v": 85
    },
    {
      "midi": 58,
      "hit": false,
      "t": 39281.24999999996,
      "d": 270.83333333333576,
      "v": 74
    },
    {
      "midi": 67,
      "hit": false,
      "t": 39281.24999999996,
      "d": 437.5000000000073,
      "v": 85
    },
    {
      "midi": 62,
      "hit": false,
      "t": 39291.66666666663,
      "d": 197.91666666667152,
      "v": 85
    },
    {
      "midi": 65,
      "hit": false,
      "t": 39291.66666666663,
      "d": 281.2500000000073,
      "v": 85
    },
    {
      "midi": 50,
      "hit": false,
      "t": 39593.74999999997,
      "d": 395.83333333333576,
      "v": 85
    },
    {
      "midi": 55,
      "hit": false,
      "t": 39968.74999999997,
      "d": 2916.666666666657,
      "v": 85
    },
    {
      "midi": 69,
      "hit": false,
      "t": 40677.08333333331,
      "d": 1822.916666666657,
      "v": 91
    },
    {
      "midi": 71,
      "hit": false,
      "t": 40687.49999999997,
      "d": 1791.666666666657,
      "v": 89
    },
    {
      "midi": 65,
      "hit": false,
      "t": 40687.49999999997,
      "d": 1812.4999999999927,
      "v": 86
    },
    {
      "midi": 62,
      "hit": false,
      "t": 40687.49999999997,
      "d": 1833.3333333333285,
      "v": 85
    },
    {
      "midi": 89,
      "hit": false,
      "t": 41062.49999999997,
      "d": 239.58333333333576,
      "v": 95
    },
    {
      "midi": 91,
      "hit": false,
      "t": 41624.99999999997,
      "d": 166.66666666666424,
      "v": 88
    },
    {
      "midi": 92,
      "hit": false,
      "t": 42083.3333333333,
      "d": 166.66666666666424,
      "v": 107
    },
    {
      "midi": 93,
      "hit": false,
      "t": 42249.99999999996,
      "d": 281.25,
      "v": 85
    },
    {
      "midi": 65,
      "hit": false,
      "t": 42614.5833333333,
      "d": 333.3333333333285,
      "v": 85
    },
    {
      "midi": 69,
      "hit": false,
      "t": 42614.5833333333,
      "d": 333.3333333333285,
      "v": 85
    },
    {
      "midi": 71,
      "hit": false,
      "t": 42624.99999999996,
      "d": 312.5,
      "v": 85
    },
    {
      "midi": 62,
      "hit": false,
      "t": 42624.99999999996,
      "d": 333.3333333333285,
      "v": 85
    },
    {
      "midi": 88,
      "hit": false,
      "t": 42729.16666666663,
      "d": 218.75,
      "v": 93
    },
    {
      "midi": 55,
      "hit": false,
      "t": 42947.91666666663,
      "d": 489.5833333333285,
      "v": 85
    },
    {
      "midi": 69,
      "hit": false,
      "t": 43302.08333333329,
      "d": 197.91666666666424,
      "v": 85
    },
    {
      "midi": 65,
      "hit": false,
      "t": 43302.08333333329,
      "d": 229.16666666666424,
      "v": 85
    },
    {
      "midi": 71,
      "hit": false,
      "t": 43312.499999999956,
      "d": 250,
      "v": 85
    },
    {
      "midi": 62,
      "hit": false,
      "t": 43312.499999999956,
      "d": 260.41666666666424,
      "v": 85
    },
    {
      "midi": 88,
      "hit": false,
      "t": 43416.66666666662,
      "d": 93.75,
      "v": 85
    },
    {
      "midi": 89,
      "hit": false,
      "t": 43447.91666666662,
      "d": 354.16666666665697,
      "v": 93
    },
    {
      "midi": 71,
      "hit": false,
      "t": 43604.16666666662,
      "d": 218.74999999998545,
      "v": 72
    },
    {
      "midi": 65,
      "hit": false,
      "t": 43614.583333333285,
      "d": 197.91666666665697,
      "v": 85
    },
    {
      "midi": 68,
      "hit": false,
      "t": 43624.99999999995,
      "d": 187.49999999999272,
      "v": 74
    },
    {
      "midi": 62,
      "hit": false,
      "t": 43635.41666666661,
      "d": 187.49999999999272,
      "v": 66
    },
    {
      "midi": 55,
      "hit": false,
      "t": 43937.49999999994,
      "d": 2333.3333333333285,
      "v": 85
    },
    {
      "midi": 71,
      "hit": false,
      "t": 43947.916666666606,
      "d": 1843.75,
      "v": 85
    },
    {
      "midi": 67,
      "hit": false,
      "t": 43947.916666666606,
      "d": 1864.5833333333358,
      "v": 85
    },
    {
      "midi": 65,
      "hit": false,
      "t": 43947.916666666606,
      "d": 1875,
      "v": 85
    },
    {
      "midi": 62,
      "hit": false,
      "t": 43958.33333333327,
      "d": 1885.4166666666715,
      "v": 85
    },
    {
      "midi": 86,
      "hit": false,
      "t": 44072.916666666606,
      "d": 312.5,
      "v": 89
    },
    {
      "midi": 88,
      "hit": false,
      "t": 44697.916666666606,
      "d": 229.16666666666424,
      "v": 85
    },
    {
      "midi": 86,
      "hit": false,
      "t": 45666.666666666606,
      "d": 104.16666666666424,
      "v": 67
    },
    {
      "midi": 84,
      "hit": false,
      "t": 45666.666666666606,
      "d": 208.33333333333576,
      "v": 70
    },
    {
      "midi": 65,
      "hit": false,
      "t": 45979.166666666606,
      "d": 687.5,
      "v": 85
    },
    {
      "midi": 67,
      "hit": false,
      "t": 45989.58333333327,
      "d": 666.6666666666715,
      "v": 85
    },
    {
      "midi": 71,
      "hit": false,
      "t": 45989.58333333327,
      "d": 666.6666666666715,
      "v": 85
    },
    {
      "midi": 62,
      "hit": false,
      "t": 45989.58333333327,
      "d": 687.5,
      "v": 85
    },
    {
      "midi": 83,
      "hit": false,
      "t": 46145.83333333327,
      "d": 302.08333333333576,
      "v": 92
    },
    {
      "midi": 55,
      "hit": false,
      "t": 46635.416666666606,
      "d": 354.16666666666424,
      "v": 91
    },
    {
      "midi": 84,
      "hit": false,
      "t": 46697.916666666606,
      "d": 229.16666666666424,
      "v": 88
    },
    {
      "midi": 67,
      "hit": false,
      "t": 47010.416666666606,
      "d": 822.9166666666642,
      "v": 85
    },
    {
      "midi": 65,
      "hit": false,
      "t": 47010.416666666606,
      "d": 833.3333333333285,
      "v": 85
    },
    {
      "midi": 71,
      "hit": false,
      "t": 47020.83333333327,
      "d": 802.0833333333358,
      "v": 85
    },
    {
      "midi": 62,
      "hit": false,
      "t": 47020.83333333327,
      "d": 854.1666666666642,
      "v": 85
    },
    {
      "midi": 86,
      "hit": false,
      "t": 47104.166666666606,
      "d": 468.75,
      "v": 85
    },
    {
      "midi": 50,
      "hit": false,
      "t": 47677.08333333327,
      "d": 166.66666666666424,
      "v": 66
    },
    {
      "midi": 88,
      "hit": false,
      "t": 47708.33333333327,
      "d": 302.0833333333285,
      "v": 85
    },
    {
      "midi": 58,
      "hit": false,
      "t": 48031.249999999935,
      "d": 2322.9166666666642,
      "v": 74
    },
    {
      "midi": 63,
      "hit": false,
      "t": 48041.6666666666,
      "d": 2437.5,
      "v": 78
    },
    {
      "midi": 67,
      "hit": false,
      "t": 48041.6666666666,
      "d": 2468.75,
      "v": 85
    },
    {
      "midi": 48,
      "hit": false,
      "t": 48052.08333333326,
      "d": 2031.25,
      "v": 85
    },
    {
      "midi": 58,
      "hit": false,
      "t": 50645.83333333326,
      "d": 375,
      "v": 85
    },
    {
      "midi": 63,
      "hit": false,
      "t": 50656.24999999993,
      "d": 239.58333333333576,
      "v": 68
    },
    {
      "midi": 48,
      "hit": false,
      "t": 51010.4166666666,
      "d": 135.41666666666424,
      "v": 89
    },
    {
      "midi": 58,
      "hit": false,
      "t": 51291.6666666666,
      "d": 427.08333333333576,
      "v": 79
    },
    {
      "midi": 63,
      "hit": false,
      "t": 51302.08333333326,
      "d": 208.33333333333576,
      "v": 97
    },
    {
      "midi": 67,
      "hit": false,
      "t": 51302.08333333326,
      "d": 385.4166666666715,
      "v": 85
    },
    {
      "midi": 58,
      "hit": false,
      "t": 51979.1666666666,
      "d": 895.8333333333285,
      "v": 68
    },
    {
      "midi": 60,
      "hit": false,
      "t": 51979.1666666666,
      "d": 906.2499999999927,
      "v": 85
    },
    {
      "midi": 63,
      "hit": false,
      "t": 51989.58333333326,
      "d": 854.1666666666642,
      "v": 74
    },
    {
      "midi": 66,
      "hit": false,
      "t": 51989.58333333326,
      "d": 916.6666666666642,
      "v": 82
    },
    {
      "midi": 39,
      "hit": false,
      "t": 51989.58333333326,
      "d": 1427.0833333333285,
      "v": 74
    },
    {
      "midi": 51,
      "hit": false,
      "t": 51999.99999999993,
      "d": 1437.5,
      "v": 72
    },
    {
      "midi": 58,
      "hit": false,
      "t": 53041.66666666659,
      "d": 1291.6666666666642,
      "v": 67
    },
    {
      "midi": 60,
      "hit": false,
      "t": 53041.66666666659,
      "d": 1395.8333333333358,
      "v": 85
    },
    {
      "midi": 63,
      "hit": false,
      "t": 53052.083333333256,
      "d": 1302.0833333333358,
      "v": 79
    },
    {
      "midi": 66,
      "hit": false,
      "t": 53052.083333333256,
      "d": 1385.4166666666715,
      "v": 68
    },
    {
      "midi": 39,
      "hit": false,
      "t": 53697.91666666659,
      "d": 1520.8333333333212,
      "v": 74
    },
    {
      "midi": 51,
      "hit": false,
      "t": 54052.083333333256,
      "d": 749.9999999999927,
      "v": 79
    },
    {
      "midi": 58,
      "hit": false,
      "t": 54666.66666666659,
      "d": 541.666666666657,
      "v": 81
    },
    {
      "midi": 63,
      "hit": false,
      "t": 54677.083333333256,
      "d": 114.58333333332848,
      "v": 64
    },
    {
      "midi": 66,
      "hit": false,
      "t": 54687.49999999992,
      "d": 72.91666666666424,
      "v": 55
    },
    {
      "midi": 51,
      "hit": false,
      "t": 55020.83333333325,
      "d": 510.41666666665697,
      "v": 84
    },
    {
      "midi": 58,
      "hit": false,
      "t": 55291.66666666658,
      "d": 385.41666666665697,
      "v": 68
    },
    {
      "midi": 60,
      "hit": false,
      "t": 55302.08333333324,
      "d": 374.9999999999927,
      "v": 85
    },
    {
      "midi": 63,
      "hit": false,
      "t": 55302.08333333324,
      "d": 374.9999999999927,
      "v": 76
    },
    {
      "midi": 66,
      "hit": false,
      "t": 55635.41666666657,
      "d": 72.91666666666424,
      "v": 76
    },
    {
      "midi": 51,
      "hit": false,
      "t": 55635.41666666657,
      "d": 114.58333333332848,
      "v": 62
    },
    {
      "midi": 46,
      "hit": false,
      "t": 55989.583333333234,
      "d": 1770.8333333333285,
      "v": 65
    },
    {
      "midi": 62,
      "hit": false,
      "t": 55999.9999999999,
      "d": 739.5833333333285,
      "v": 85
    },
    {
      "midi": 70,
      "hit": false,
      "t": 55999.9999999999,
      "d": 1666.6666666666642,
      "v": 88
    },
    {
      "midi": 65,
      "hit": false,
      "t": 55999.9999999999,
      "d": 1729.1666666666642,
      "v": 97
    },
    {
      "midi": 58,
      "hit": false,
      "t": 56041.66666666656,
      "d": 1187.5,
      "v": 70
    },
    {
      "midi": 62,
      "hit": false,
      "t": 57010.41666666656,
      "d": 927.0833333333285,
      "v": 85
    },
    {
      "midi": 58,
      "hit": false,
      "t": 57624.9999999999,
      "d": 270.8333333333285,
      "v": 70
    },
    {
      "midi": 65,
      "hit": false,
      "t": 58031.24999999989,
      "d": 1249.9999999999854,
      "v": 85
    },
    {
      "midi": 72,
      "hit": false,
      "t": 58041.666666666555,
      "d": 1124.9999999999927,
      "v": 85
    },
    {
      "midi": 62,
      "hit": false,
      "t": 58041.666666666555,
      "d": 1229.166666666657,
      "v": 85
    },
    {
      "midi": 71,
      "hit": false,
      "t": 58052.08333333322,
      "d": 125,
      "v": 85
    },
    {
      "midi": 56,
      "hit": false,
      "t": 58052.08333333322,
      "d": 1927.0833333333212,
      "v": 68
    },
    {
      "midi": 67,
      "hit": false,
      "t": 58062.49999999988,
      "d": 177.08333333333576,
      "v": 85
    },
    {
      "midi": 68,
      "hit": false,
      "t": 58499.99999999988,
      "d": 166.66666666666424,
      "v": 64
    },
    {
      "midi": 68,
      "hit": false,
      "t": 58760.41666666655,
      "d": 395.83333333333576,
      "v": 49
    },
    {
      "midi": 65,
      "hit": false,
      "t": 59645.83333333321,
      "d": 322.91666666666424,
      "v": 92
    },
    {
      "midi": 68,
      "hit": false,
      "t": 59645.83333333321,
      "d": 322.91666666666424,
      "v": 99
    },
    {
      "midi": 72,
      "hit": false,
      "t": 59656.249999999876,
      "d": 239.58333333333576,
      "v": 88
    },
    {
      "midi": 62,
      "hit": false,
      "t": 59656.249999999876,
      "d": 1187.4999999999927,
      "v": 85
    },
    {
      "midi": 65,
      "hit": false,
      "t": 60010.41666666654,
      "d": 1499.9999999999854,
      "v": 85
    },
    {
      "midi": 55,
      "hit": false,
      "t": 60020.833333333205,
      "d": 1864.583333333314,
      "v": 85
    },
    {
      "midi": 71,
      "hit": false,
      "t": 60031.24999999987,
      "d": 1427.0833333333285,
      "v": 85
    },
    {
      "midi": 67,
      "hit": false,
      "t": 60031.24999999987,
      "d": 1468.7499999999927,
      "v": 85
    },
    {
      "midi": 62,
      "hit": false,
      "t": 60979.16666666653,
      "d": 562.4999999999927,
      "v": 85
    },
    {
      "midi": 69,
      "hit": false,
      "t": 61666.666666666526,
      "d": 385.41666666665697,
      "v": 85
    },
    {
      "midi": 65,
      "hit": false,
      "t": 61677.08333333319,
      "d": 416.66666666665697,
      "v": 85
    },
    {
      "midi": 71,
      "hit": false,
      "t": 61687.499999999854,
      "d": 374.9999999999927,
      "v": 85
    },
    {
      "midi": 62,
      "hit": false,
      "t": 61687.499999999854,
      "d": 406.2499999999927,
      "v": 85
    },
    {
      "midi": 55,
      "hit": false,
      "t": 62052.08333333318,
      "d": 489.5833333333285,
      "v": 79
    },
    {
      "midi": 65,
      "hit": false,
      "t": 62333.33333333318,
      "d": 249.99999999999272,
      "v": 85
    },
    {
      "midi": 68,
      "hit": false,
      "t": 62333.33333333318,
      "d": 249.99999999999272,
      "v": 77
    },
    {
      "midi": 71,
      "hit": false,
      "t": 62343.74999999985,
      "d": 229.16666666666424,
      "v": 85
    },
    {
      "midi": 62,
      "hit": false,
      "t": 62354.16666666651,
      "d": 208.33333333333576,
      "v": 76
    },
    {
      "midi": 55,
      "hit": false,
      "t": 62697.91666666651,
      "d": 93.75,
      "v": 61
    },
    {
      "midi": 65,
      "hit": false,
      "t": 63010.41666666651,
      "d": 749.9999999999927,
      "v": 85
    },
    {
      "midi": 71,
      "hit": false,
      "t": 63020.833333333176,
      "d": 718.75,
      "v": 85
    },
    {
      "midi": 67,
      "hit": false,
      "t": 63020.833333333176,
      "d": 729.1666666666642,
      "v": 85
    },
    {
      "midi": 62,
      "hit": false,
      "t": 63020.833333333176,
      "d": 864.5833333333285,
      "v": 85
    },
    {
      "midi": 55,
      "hit": false,
      "t": 63697.91666666651,
      "d": 249.99999999999272,
      "v": 85
    },
    {
      "midi": 48,
      "hit": false,
      "t": 64052.08333333317,
      "d": 3885.4166666666715,
      "v": 85
    },
    {
      "midi": 63,
      "hit": false,
      "t": 64062.49999999983,
      "d": 104.16666666666424,
      "v": 72
    },
    {
      "midi": 67,
      "hit": false,
      "t": 64062.49999999983,
      "d": 3041.666666666679,
      "v": 85
    },
    {
      "midi": 58,
      "hit": false,
      "t": 64104.1666666665,
      "d": 3010.416666666686,
      "v": 72
    },
    {
      "midi": 62,
      "hit": false,
      "t": 64114.58333333316,
      "d": 2468.7500000000073,
      "v": 85
    },
    {
      "midi": 64,
      "hit": false,
      "t": 64197.9166666665,
      "d": 2802.083333333343,
      "v": 85
    },
    {
      "midi": 58,
      "hit": false,
      "t": 67374.99999999985,
      "d": 156.25,
      "v": 72
    },
    {
      "midi": 64,
      "hit": false,
      "t": 67374.99999999985,
      "d": 427.0833333333285,
      "v": 91
    },
    {
      "midi": 67,
      "hit": false,
      "t": 67385.41666666653,
      "d": 166.66666666665697,
      "v": 85
    },
    {
      "midi": 67,
      "hit": false,
      "t": 67645.83333333318,
      "d": 197.91666666665697,
      "v": 85
    },
    {
      "midi": 58,
      "hit": false,
      "t": 67656.24999999985,
      "d": 166.66666666665697,
      "v": 55
    },
    {
      "midi": 62,
      "hit": false,
      "t": 67989.58333333317,
      "d": 1500.0000000000146,
      "v": 85
    },
    {
      "midi": 48,
      "hit": false,
      "t": 67989.58333333317,
      "d": 1947.916666666686,
      "v": 69
    },
    {
      "midi": 64,
      "hit": false,
      "t": 67999.99999999984,
      "d": 1479.1666666666715,
      "v": 85
    },
    {
      "midi": 67,
      "hit": false,
      "t": 67999.99999999984,
      "d": 1479.1666666666715,
      "v": 85
    },
    {
      "midi": 58,
      "hit": false,
      "t": 68010.41666666651,
      "d": 1468.75,
      "v": 74
    },
    {
      "midi": 62,
      "hit": false,
      "t": 69677.08333333318,
      "d": 302.08333333334303,
      "v": 85
    },
    {
      "midi": 58,
      "hit": false,
      "t": 69677.08333333318,
      "d": 343.75000000001455,
      "v": 68
    },
    {
      "midi": 64,
      "hit": false,
      "t": 69677.08333333318,
      "d": 343.75000000001455,
      "v": 85
    },
    {
      "midi": 69,
      "hit": false,
      "t": 69677.08333333318,
      "d": 343.75000000001455,
      "v": 85
    },
    {
      "midi": 48,
      "hit": false,
      "t": 70156.24999999987,
      "d": 552.083333333343,
      "v": 68
    },
    {
      "midi": 58,
      "hit": false,
      "t": 70541.66666666654,
      "d": 239.58333333334303,
      "v": 68
    },
    {
      "midi": 68,
      "hit": false,
      "t": 70541.66666666654,
      "d": 333.33333333334303,
      "v": 72
    },
    {
      "midi": 64,
      "hit": false,
      "t": 70572.91666666654,
      "d": 41.66666666667152,
      "v": 85
    },
    {
      "midi": 62,
      "hit": false,
      "t": 70572.91666666654,
      "d": 177.08333333334303,
      "v": 85
    },
    {
      "midi": 48,
      "hit": false,
      "t": 70989.58333333321,
      "d": 208.33333333332848,
      "v": 81
    },
    {
      "midi": 62,
      "hit": false,
      "t": 71270.83333333321,
      "d": 395.83333333334303,
      "v": 85
    },
    {
      "midi": 58,
      "hit": false,
      "t": 71270.83333333321,
      "d": 447.9166666666715,
      "v": 68
    },
    {
      "midi": 67,
      "hit": false,
      "t": 71270.83333333321,
      "d": 500,
      "v": 85
    },
    {
      "midi": 64,
      "hit": false,
      "t": 71281.24999999988,
      "d": 406.25,
      "v": 85
    },
    {
      "midi": 64,
      "hit": false,
      "t": 73031.24999999988,
      "d": 458.33333333334303,
      "v": 66
    },
    {
      "midi": 62,
      "hit": false,
      "t": 73041.66666666656,
      "d": 375,
      "v": 85
    },
    {
      "midi": 58,
      "hit": false,
      "t": 73041.66666666656,
      "d": 416.6666666666715,
      "v": 66
    },
    {
      "midi": 67,
      "hit": false,
      "t": 73041.66666666656,
      "d": 500,
      "v": 85
    },
    {
      "midi": 36,
      "hit": false,
      "t": 73635.41666666656,
      "d": 604.166666666657,
      "v": 74
    },
    {
      "midi": 48,
      "hit": false,
      "t": 73666.66666666656,
      "d": 489.5833333333285,
      "v": 85
    },
    {
      "midi": 64,
      "hit": false,
      "t": 74031.24999999988,
      "d": 333.3333333333285,
      "v": 68
    },
    {
      "midi": 67,
      "hit": false,
      "t": 74031.24999999988,
      "d": 343.75,
      "v": 85
    },
    {
      "midi": 70,
      "hit": false,
      "t": 74031.24999999988,
      "d": 343.75,
      "v": 69
    },
    {
      "midi": 62,
      "hit": false,
      "t": 74041.66666666656,
      "d": 437.5,
      "v": 85
    },
    {
      "midi": 48,
      "hit": false,
      "t": 74718.74999999988,
      "d": 239.58333333332848,
      "v": 85
    },
    {
      "midi": 62,
      "hit": false,
      "t": 75052.08333333321,
      "d": 833.3333333333285,
      "v": 85
    },
    {
      "midi": 64,
      "hit": false,
      "t": 75052.08333333321,
      "d": 854.166666666657,
      "v": 79
    },
    {
      "midi": 67,
      "hit": false,
      "t": 75052.08333333321,
      "d": 895.8333333333285,
      "v": 85
    },
    {
      "midi": 58,
      "hit": false,
      "t": 75052.08333333321,
      "d": 906.25,
      "v": 78
    },
    {
      "midi": 48,
      "hit": false,
      "t": 75677.08333333321,
      "d": 291.6666666666715,
      "v": 85
    },
    {
      "midi": 37,
      "hit": false,
      "t": 76697.91666666656,
      "d": 770.833333333343,
      "v": 57
    },
    {
      "midi": 49,
      "hit": false,
      "t": 76718.74999999988,
      "d": 2906.2500000000437,
      "v": 64
    },
    {
      "midi": 63,
      "hit": false,
      "t": 76729.16666666656,
      "d": 1135.4166666666715,
      "v": 65
    },
    {
      "midi": 65,
      "hit": false,
      "t": 76739.58333333323,
      "d": 1166.6666666666715,
      "v": 85
    },
    {
      "midi": 59,
      "hit": false,
      "t": 76739.58333333323,
      "d": 1187.5000000000146,
      "v": 81
    },
    {
      "midi": 68,
      "hit": false,
      "t": 76749.9999999999,
      "d": 1166.6666666666715,
      "v": 59
    },
    {
      "midi": 37,
      "hit": false,
      "t": 77739.58333333323,
      "d": 1812.500000000029,
      "v": 93
    },
    {
      "midi": 65,
      "hit": false,
      "t": 78093.74999999991,
      "d": 562.5000000000146,
      "v": 85
    },
    {
      "midi": 63,
      "hit": false,
      "t": 78093.74999999991,
      "d": 833.333333333343,
      "v": 62
    },
    {
      "midi": 68,
      "hit": false,
      "t": 78104.16666666658,
      "d": 500,
      "v": 66
    },
    {
      "midi": 59,
      "hit": false,
      "t": 78104.16666666658,
      "d": 510.4166666666715,
      "v": 85
    },
    {
      "midi": 65,
      "hit": false,
      "t": 78729.1666666666,
      "d": 177.08333333332848,
      "v": 81
    },
    {
      "midi": 70,
      "hit": false,
      "t": 78749.99999999993,
      "d": 93.75,
      "v": 69
    },
    {
      "midi": 68,
      "hit": false,
      "t": 79145.83333333326,
      "d": 708.333333333343,
      "v": 70
    },
    {
      "midi": 63,
      "hit": false,
      "t": 79145.83333333326,
      "d": 718.7500000000146,
      "v": 70
    },
    {
      "midi": 59,
      "hit": false,
      "t": 79145.83333333326,
      "d": 802.0833333333576,
      "v": 85
    },
    {
      "midi": 65,
      "hit": false,
      "t": 79156.24999999993,
      "d": 718.7500000000146,
      "v": 85
    },
    {
      "midi": 65,
      "hit": false,
      "t": 79999.99999999994,
      "d": 2041.666666666686,
      "v": 85
    },
    {
      "midi": 69,
      "hit": false,
      "t": 79999.99999999994,
      "d": 2052.0833333333576,
      "v": 85
    },
    {
      "midi": 41,
      "hit": false,
      "t": 79999.99999999994,
      "d": 6968.750000000044,
      "v": 84
    },
    {
      "midi": 64,
      "hit": false,
      "t": 80010.41666666661,
      "d": 2104.166666666686,
      "v": 85
    },
    {
      "midi": 72,
      "hit": false,
      "t": 80020.83333333328,
      "d": 2010.4166666666715,
      "v": 85
    },
    {
      "midi": 53,
      "hit": false,
      "t": 80031.24999999996,
      "d": 7093.750000000044,
      "v": 85
    },
    {
      "midi": 69,
      "hit": false,
      "t": 82562.49999999997,
      "d": 187.5,
      "v": 82
    },
    {
      "midi": 64,
      "hit": false,
      "t": 82583.3333333333,
      "d": 145.83333333332848,
      "v": 74
    },
    {
      "midi": 60,
      "hit": false,
      "t": 82604.16666666663,
      "d": 135.41666666667152,
      "v": 53
    },
    {
      "midi": 65,
      "hit": false,
      "t": 82614.5833333333,
      "d": 93.75,
      "v": 52
    },
    {
      "midi": 88,
      "hit": false,
      "t": 82874.99999999997,
      "d": 239.58333333332848,
      "v": 89
    },
    {
      "midi": 89,
      "hit": false,
      "t": 83135.41666666663,
      "d": 291.6666666666715,
      "v": 85
    },
    {
      "midi": 65,
      "hit": false,
      "t": 83270.8333333333,
      "d": 156.25,
      "v": 85
    },
    {
      "midi": 64,
      "hit": false,
      "t": 83270.8333333333,
      "d": 166.66666666667152,
      "v": 74
    },
    {
      "midi": 69,
      "hit": false,
      "t": 83270.8333333333,
      "d": 166.66666666667152,
      "v": 85
    },
    {
      "midi": 72,
      "hit": false,
      "t": 83270.8333333333,
      "d": 177.08333333334303,
      "v": 85
    },
    {
      "midi": 88,
      "hit": false,
      "t": 83395.8333333333,
      "d": 239.58333333334303,
      "v": 92
    },
    {
      "midi": 81,
      "hit": false,
      "t": 83656.24999999997,
      "d": 208.33333333332848,
      "v": 85
    },
    {
      "midi": 69,
      "hit": false,
      "t": 83958.3333333333,
      "d": 1895.833333333343,
      "v": 85
    },
    {
      "midi": 64,
      "hit": false,
      "t": 83958.3333333333,
      "d": 1927.083333333343,
      "v": 85
    },
    {
      "midi": 65,
      "hit": false,
      "t": 83968.74999999997,
      "d": 1927.083333333343,
      "v": 85
    },
    {
      "midi": 60,
      "hit": false,
      "t": 83979.16666666664,
      "d": 1958.333333333343,
      "v": 76
    },
    {
      "midi": 84,
      "hit": false,
      "t": 83999.99999999997,
      "d": 1791.6666666666715,
      "v": 95
    },
    {
      "midi": 69,
      "hit": false,
      "t": 86020.83333333331,
      "d": 208.33333333332848,
      "v": 85
    },
    {
      "midi": 65,
      "hit": false,
      "t": 86020.83333333331,
      "d": 218.75,
      "v": 85
    },
    {
      "midi": 64,
      "hit": false,
      "t": 86020.83333333331,
      "d": 229.16666666667152,
      "v": 85
    },
    {
      "midi": 60,
      "hit": false,
      "t": 86020.83333333331,
      "d": 239.58333333334303,
      "v": 79
    },
    {
      "midi": 65,
      "hit": false,
      "t": 87010.41666666666,
      "d": 895.833333333343,
      "v": 85
    },
    {
      "midi": 60,
      "hit": false,
      "t": 87020.83333333333,
      "d": 885.4166666666715,
      "v": 85
    },
    {
      "midi": 64,
      "hit": false,
      "t": 87020.83333333333,
      "d": 885.4166666666715,
      "v": 85
    },
    {
      "midi": 69,
      "hit": false,
      "t": 87031.25,
      "d": 916.6666666666715,
      "v": 85
    },
    {
      "midi": 53,
      "hit": false,
      "t": 87625,
      "d": 135.41666666667152,
      "v": 85
    },
    {
      "midi": 44,
      "hit": false,
      "t": 87968.75,
      "d": 5833.333333333358,
      "v": 70
    },
    {
      "midi": 65,
      "hit": false,
      "t": 88656.25,
      "d": 145.83333333334303,
      "v": 85
    },
    {
      "midi": 68,
      "hit": false,
      "t": 88656.25,
      "d": 156.25000000001455,
      "v": 79
    },
    {
      "midi": 71,
      "hit": false,
      "t": 88656.25,
      "d": 166.66666666668607,
      "v": 85
    },
    {
      "midi": 62,
      "hit": false,
      "t": 88666.66666666667,
      "d": 145.83333333334303,
      "v": 85
    },
    {
      "midi": 56,
      "hit": false,
      "t": 89625.00000000001,
      "d": 3208.333333333343,
      "v": 64
    },
    {
      "midi": 68,
      "hit": false,
      "t": 90593.75000000001,
      "d": 124.99999999998545,
      "v": 64
    },
    {
      "midi": 74,
      "hit": false,
      "t": 90593.75000000001,
      "d": 218.74999999998545,
      "v": 85
    },
    {
      "midi": 65,
      "hit": false,
      "t": 90614.58333333334,
      "d": 83.33333333332848,
      "v": 79
    },
    {
      "midi": 68,
      "hit": false,
      "t": 91625,
      "d": 187.5,
      "v": 74
    },
    {
      "midi": 65,
      "hit": false,
      "t": 91635.41666666667,
      "d": 197.91666666665697,
      "v": 85
    },
    {
      "midi": 71,
      "hit": false,
      "t": 91635.41666666667,
      "d": 197.91666666665697,
      "v": 85
    },
    {
      "midi": 62,
      "hit": false,
      "t": 91635.41666666667,
      "d": 208.33333333332848,
      "v": 85
    },
    {
      "midi": 69,
      "hit": false,
      "t": 92010.41666666667,
      "d": 437.5,
      "v": 74
    },
    {
      "midi": 62,
      "hit": false,
      "t": 92020.83333333334,
      "d": 447.9166666666715,
      "v": 74
    },
    {
      "midi": 68,
      "hit": false,
      "t": 92041.66666666667,
      "d": 375,
      "v": 43
    },
    {
      "midi": 65,
      "hit": false,
      "t": 92052.08333333334,
      "d": 406.25,
      "v": 49
    },
    {
      "midi": 68,
      "hit": false,
      "t": 92635.41666666669,
      "d": 218.75,
      "v": 67
    },
    {
      "midi": 62,
      "hit": false,
      "t": 92635.41666666669,
      "d": 250,
      "v": 85
    },
    {
      "midi": 71,
      "hit": false,
      "t": 92635.41666666669,
      "d": 260.4166666666715,
      "v": 85
    },
    {
      "midi": 65,
      "hit": false,
      "t": 92645.83333333336,
      "d": 229.16666666665697,
      "v": 85
    },
    {
      "midi": 88,
      "hit": false,
      "t": 93020.83333333336,
      "d": 250,
      "v": 92
    },
    {
      "midi": 56,
      "hit": false,
      "t": 93062.50000000003,
      "d": 656.25,
      "v": 52
    },
    {
      "midi": 89,
      "hit": false,
      "t": 93333.33333333336,
      "d": 260.4166666666715,
      "v": 85
    },
    {
      "midi": 72,
      "hit": false,
      "t": 93593.75000000003,
      "d": 239.58333333332848,
      "v": 85
    },
    {
      "midi": 65,
      "hit": false,
      "t": 93604.1666666667,
      "d": 291.66666666665697,
      "v": 68
    },
    {
      "midi": 68,
      "hit": false,
      "t": 93614.58333333337,
      "d": 249.99999999998545,
      "v": 56
    },
    {
      "midi": 62,
      "hit": false,
      "t": 93614.58333333337,
      "d": 302.08333333331393,
      "v": 70
    },
    {
      "midi": 85,
      "hit": false,
      "t": 93666.6666666667,
      "d": 270.83333333331393,
      "v": 79
    },
    {
      "midi": 68,
      "hit": false,
      "t": 94000.00000000001,
      "d": 593.75,
      "v": 59
    },
    {
      "midi": 65,
      "hit": false,
      "t": 94000.00000000001,
      "d": 604.1666666666715,
      "v": 66
    },
    {
      "midi": 86,
      "hit": false,
      "t": 94010.41666666669,
      "d": 500,
      "v": 85
    },
    {
      "midi": 71,
      "hit": false,
      "t": 94010.41666666669,
      "d": 604.1666666666715,
      "v": 81
    },
    {
      "midi": 62,
      "hit": false,
      "t": 94020.83333333336,
      "d": 614.5833333333285,
      "v": 72
    },
    {
      "midi": 56,
      "hit": false,
      "t": 94666.66666666669,
      "d": 322.9166666666715,
      "v": 76
    },
    {
      "midi": 44,
      "hit": false,
      "t": 94677.08333333336,
      "d": 302.0833333333285,
      "v": 77
    },
    {
      "midi": 88,
      "hit": false,
      "t": 94739.58333333336,
      "d": 291.6666666666715,
      "v": 85
    },
    {
      "midi": 65,
      "hit": false,
      "t": 95031.25000000003,
      "d": 864.583333333343,
      "v": 85
    },
    {
      "midi": 68,
      "hit": false,
      "t": 95031.25000000003,
      "d": 906.2500000000146,
      "v": 72
    },
    {
      "midi": 71,
      "hit": false,
      "t": 95041.6666666667,
      "d": 885.4166666666715,
      "v": 85
    },
    {
      "midi": 62,
      "hit": false,
      "t": 95041.6666666667,
      "d": 916.6666666666715,
      "v": 85
    },
    {
      "midi": 89,
      "hit": false,
      "t": 95427.08333333337,
      "d": 312.5,
      "v": 85
    },
    {
      "midi": 56,
      "hit": false,
      "t": 95614.58333333337,
      "d": 239.58333333332848,
      "v": 85
    },
    {
      "midi": 44,
      "hit": false,
      "t": 95614.58333333337,
      "d": 302.0833333333285,
      "v": 79
    },
    {
      "midi": 55,
      "hit": false,
      "t": 95989.58333333337,
      "d": 989.583333333343,
      "v": 85
    },
    {
      "midi": 62,
      "hit": false,
      "t": 96052.08333333337,
      "d": 1437.5000000000146,
      "v": 57
    },
    {
      "midi": 65,
      "hit": false,
      "t": 96062.50000000004,
      "d": 1468.7500000000146,
      "v": 77
    },
    {
      "midi": 67,
      "hit": false,
      "t": 96072.91666666672,
      "d": 1468.7500000000146,
      "v": 85
    },
    {
      "midi": 70,
      "hit": false,
      "t": 96072.91666666672,
      "d": 1572.916666666686,
      "v": 60
    },
    {
      "midi": 89,
      "hit": false,
      "t": 96885.41666666672,
      "d": 218.75,
      "v": 85
    },
    {
      "midi": 91,
      "hit": false,
      "t": 97083.33333333339,
      "d": 187.5,
      "v": 85
    },
    {
      "midi": 43,
      "hit": false,
      "t": 97083.33333333339,
      "d": 2208.3333333333576,
      "v": 50
    },
    {
      "midi": 89,
      "hit": false,
      "t": 97291.66666666672,
      "d": 166.66666666667152,
      "v": 66
    },
    {
      "midi": 55,
      "hit": false,
      "t": 97677.0833333334,
      "d": 1645.833333333343,
      "v": 85
    },
    {
      "midi": 65,
      "hit": false,
      "t": 97989.5833333334,
      "d": 583.3333333333285,
      "v": 85
    },
    {
      "midi": 67,
      "hit": false,
      "t": 98010.41666666673,
      "d": 572.9166666666715,
      "v": 85
    },
    {
      "midi": 70,
      "hit": false,
      "t": 98020.8333333334,
      "d": 812.5000000000146,
      "v": 64
    },
    {
      "midi": 74,
      "hit": false,
      "t": 98052.0833333334,
      "d": 437.5,
      "v": 85
    },
    {
      "midi": 77,
      "hit": false,
      "t": 98687.50000000007,
      "d": 135.41666666667152,
      "v": 85
    },
    {
      "midi": 67,
      "hit": false,
      "t": 99312.50000000007,
      "d": 135.41666666667152,
      "v": 85
    },
    {
      "midi": 70,
      "hit": false,
      "t": 99322.91666666674,
      "d": 104.16666666667152,
      "v": 61
    },
    {
      "midi": 74,
      "hit": false,
      "t": 99322.91666666674,
      "d": 125,
      "v": 85
    },
    {
      "midi": 65,
      "hit": false,
      "t": 99333.33333333342,
      "d": 125,
      "v": 72
    },
    {
      "midi": 70,
      "hit": false,
      "t": 100020.83333333342,
      "d": 1531.25,
      "v": 62
    },
    {
      "midi": 67,
      "hit": false,
      "t": 100031.25000000009,
      "d": 1468.75,
      "v": 85
    },
    {
      "midi": 65,
      "hit": false,
      "t": 100031.25000000009,
      "d": 1625,
      "v": 67
    },
    {
      "midi": 55,
      "hit": false,
      "t": 100052.08333333342,
      "d": 2302.0833333333576,
      "v": 77
    },
    {
      "midi": 65,
      "hit": false,
      "t": 101937.50000000009,
      "d": 697.9166666666861,
      "v": 79
    },
    {
      "midi": 70,
      "hit": false,
      "t": 101947.91666666676,
      "d": 656.2500000000146,
      "v": 60
    },
    {
      "midi": 62,
      "hit": false,
      "t": 101958.33333333343,
      "d": 697.9166666666715,
      "v": 68
    },
    {
      "midi": 67,
      "hit": false,
      "t": 101968.7500000001,
      "d": 645.833333333343,
      "v": 69
    },
    {
      "midi": 55,
      "hit": false,
      "t": 102604.16666666677,
      "d": 531.25,
      "v": 85
    },
    {
      "midi": 70,
      "hit": false,
      "t": 102989.58333333343,
      "d": 781.2500000000146,
      "v": 66
    },
    {
      "midi": 65,
      "hit": false,
      "t": 102989.58333333343,
      "d": 802.083333333343,
      "v": 85
    },
    {
      "midi": 67,
      "hit": false,
      "t": 103000.0000000001,
      "d": 791.6666666666715,
      "v": 85
    },
    {
      "midi": 62,
      "hit": false,
      "t": 103010.41666666677,
      "d": 854.1666666666715,
      "v": 78
    },
    {
      "midi": 50,
      "hit": false,
      "t": 103614.58333333344,
      "d": 385.41666666668607,
      "v": 85
    },
    {
      "midi": 69,
      "hit": false,
      "t": 103968.75000000012,
      "d": 2531.25,
      "v": 85
    },
    {
      "midi": 55,
      "hit": false,
      "t": 103979.16666666679,
      "d": 2864.5833333333285,
      "v": 85
    },
    {
      "midi": 65,
      "hit": false,
      "t": 103989.58333333346,
      "d": 2468.75,
      "v": 85
    },
    {
      "midi": 71,
      "hit": false,
      "t": 103989.58333333346,
      "d": 2489.5833333333285,
      "v": 85
    },
    {
      "midi": 62,
      "hit": false,
      "t": 104000.00000000013,
      "d": 1677.0833333333285,
      "v": 59
    },
    {
      "midi": 43,
      "hit": false,
      "t": 104000.00000000013,
      "d": 3375,
      "v": 85
    },
    {
      "midi": 89,
      "hit": false,
      "t": 105062.50000000013,
      "d": 239.58333333332848,
      "v": 95
    },
    {
      "midi": 91,
      "hit": false,
      "t": 105625.00000000013,
      "d": 166.66666666665697,
      "v": 88
    },
    {
      "midi": 62,
      "hit": false,
      "t": 105729.16666666679,
      "d": 729.1666666666715,
      "v": 74
    },
    {
      "midi": 92,
      "hit": false,
      "t": 106083.33333333346,
      "d": 166.66666666667152,
      "v": 107
    },
    {
      "midi": 93,
      "hit": false,
      "t": 106250.00000000013,
      "d": 281.24999999998545,
      "v": 85
    },
    {
      "midi": 64,
      "hit": false,
      "t": 106593.75000000012,
      "d": 531.25,
      "v": 85
    },
    {
      "midi": 65,
      "hit": false,
      "t": 106593.75000000012,
      "d": 614.5833333333285,
      "v": 85
    },
    {
      "midi": 69,
      "hit": false,
      "t": 106593.75000000012,
      "d": 614.5833333333285,
      "v": 85
    },
    {
      "midi": 71,
      "hit": false,
      "t": 106604.16666666679,
      "d": 1291.666666666686,
      "v": 85
    },
    {
      "midi": 88,
      "hit": false,
      "t": 106729.16666666679,
      "d": 218.75,
      "v": 93
    },
    {
      "midi": 55,
      "hit": false,
      "t": 107062.50000000012,
      "d": 343.75000000001455,
      "v": 85
    },
    {
      "midi": 65,
      "hit": false,
      "t": 107281.25000000012,
      "d": 562.5000000000291,
      "v": 85
    },
    {
      "midi": 69,
      "hit": false,
      "t": 107291.66666666679,
      "d": 572.9166666666861,
      "v": 85
    },
    {
      "midi": 63,
      "hit": false,
      "t": 107302.08333333346,
      "d": 583.333333333343,
      "v": 79
    },
    {
      "midi": 88,
      "hit": false,
      "t": 107416.6666666668,
      "d": 93.75,
      "v": 85
    },
    {
      "midi": 89,
      "hit": false,
      "t": 107447.9166666668,
      "d": 354.1666666666715,
      "v": 93
    },
    {
      "midi": 43,
      "hit": false,
      "t": 107635.4166666668,
      "d": 125,
      "v": 85
    },
    {
      "midi": 65,
      "hit": false,
      "t": 107968.75000000015,
      "d": 1739.5833333333285,
      "v": 85
    },
    {
      "midi": 69,
      "hit": false,
      "t": 107968.75000000015,
      "d": 2416.666666666657,
      "v": 85
    },
    {
      "midi": 62,
      "hit": false,
      "t": 107979.16666666682,
      "d": 895.8333333333285,
      "v": 85
    },
    {
      "midi": 55,
      "hit": false,
      "t": 107979.16666666682,
      "d": 1510.416666666657,
      "v": 85
    },
    {
      "midi": 71,
      "hit": false,
      "t": 107979.16666666682,
      "d": 2072.916666666657,
      "v": 85
    },
    {
      "midi": 86,
      "hit": false,
      "t": 108072.91666666682,
      "d": 312.5,
      "v": 89
    },
    {
      "midi": 88,
      "hit": false,
      "t": 108697.91666666682,
      "d": 229.16666666665697,
      "v": 85
    },
    {
      "midi": 62,
      "hit": false,
      "t": 109104.1666666668,
      "d": 1770.8333333333285,
      "v": 85
    },
    {
      "midi": 86,
      "hit": false,
      "t": 109666.6666666668,
      "d": 104.16666666667152,
      "v": 67
    },
    {
      "midi": 84,
      "hit": false,
      "t": 109666.6666666668,
      "d": 208.33333333334303,
      "v": 70
    },
    {
      "midi": 43,
      "hit": false,
      "t": 109697.9166666668,
      "d": 1427.0833333333285,
      "v": 85
    },
    {
      "midi": 55,
      "hit": false,
      "t": 109697.9166666668,
      "d": 1458.3333333333285,
      "v": 85
    },
    {
      "midi": 65,
      "hit": false,
      "t": 110083.33333333347,
      "d": 822.916666666657,
      "v": 85
    },
    {
      "midi": 83,
      "hit": false,
      "t": 110145.83333333347,
      "d": 302.0833333333285,
      "v": 92
    },
    {
      "midi": 84,
      "hit": false,
      "t": 110697.9166666668,
      "d": 229.16666666665697,
      "v": 88
    },
    {
      "midi": 69,
      "hit": false,
      "t": 111041.66666666679,
      "d": 895.8333333333285,
      "v": 85
    },
    {
      "midi": 62,
      "hit": false,
      "t": 111041.66666666679,
      "d": 1031.2499999999854,
      "v": 85
    },
    {
      "midi": 65,
      "hit": false,
      "t": 111052.08333333346,
      "d": 937.4999999999854,
      "v": 85
    },
    {
      "midi": 71,
      "hit": false,
      "t": 111062.50000000013,
      "d": 874.9999999999854,
      "v": 85
    },
    {
      "midi": 86,
      "hit": false,
      "t": 111104.1666666668,
      "d": 468.75,
      "v": 85
    },
    {
      "midi": 55,
      "hit": false,
      "t": 111687.50000000013,
      "d": 364.58333333331393,
      "v": 85
    },
    {
      "midi": 88,
      "hit": false,
      "t": 111708.33333333346,
      "d": 302.08333333331393,
      "v": 85
    },
    {
      "midi": 43,
      "hit": false,
      "t": 111729.16666666679,
      "d": 93.75,
      "v": 68
    },
    {
      "midi": 48,
      "hit": false,
      "t": 112177.08333333344,
      "d": 2020.8333333333285,
      "v": 85
    },
    {
      "midi": 67,
      "hit": false,
      "t": 112635.41666666677,
      "d": 2062.5,
      "v": 85
    },
    {
      "midi": 58,
      "hit": false,
      "t": 112645.83333333344,
      "d": 1135.4166666666715,
      "v": 85
    },
    {
      "midi": 63,
      "hit": false,
      "t": 112645.83333333344,
      "d": 1312.5,
      "v": 86
    },
    {
      "midi": 58,
      "hit": false,
      "t": 114010.41666666677,
      "d": 1156.25,
      "v": 84
    },
    {
      "midi": 63,
      "hit": false,
      "t": 114625.0000000001,
      "d": 500,
      "v": 88
    },
    {
      "midi": 48,
      "hit": false,
      "t": 114968.7500000001,
      "d": 364.58333333334303,
      "v": 85
    },
    {
      "midi": 58,
      "hit": false,
      "t": 115302.08333333344,
      "d": 270.8333333333285,
      "v": 66
    },
    {
      "midi": 63,
      "hit": false,
      "t": 115312.50000000012,
      "d": 239.58333333332848,
      "v": 72
    },
    {
      "midi": 67,
      "hit": false,
      "t": 115312.50000000012,
      "d": 270.8333333333285,
      "v": 85
    },
    {
      "midi": 60,
      "hit": false,
      "t": 115979.16666666677,
      "d": 1854.166666666657,
      "v": 85
    },
    {
      "midi": 63,
      "hit": false,
      "t": 115979.16666666677,
      "d": 2166.666666666657,
      "v": 88
    },
    {
      "midi": 66,
      "hit": false,
      "t": 115979.16666666677,
      "d": 2406.2499999999854,
      "v": 97
    },
    {
      "midi": 44,
      "hit": false,
      "t": 115989.58333333344,
      "d": 1635.416666666657,
      "v": 70
    },
    {
      "midi": 70,
      "hit": false,
      "t": 115989.58333333344,
      "d": 2624.9999999999854,
      "v": 91
    },
    {
      "midi": 56,
      "hit": false,
      "t": 116000.00000000012,
      "d": 1270.8333333333285,
      "v": 65
    },
    {
      "midi": 56,
      "hit": false,
      "t": 117572.91666666677,
      "d": 1406.2499999999854,
      "v": 71
    },
    {
      "midi": 60,
      "hit": false,
      "t": 117979.16666666676,
      "d": 791.6666666666715,
      "v": 85
    },
    {
      "midi": 44,
      "hit": false,
      "t": 118656.2500000001,
      "d": 395.8333333333285,
      "v": 122
    },
    {
      "midi": 66,
      "hit": false,
      "t": 119041.66666666676,
      "d": 729.1666666666715,
      "v": 122
    },
    {
      "midi": 60,
      "hit": false,
      "t": 119052.08333333343,
      "d": 791.6666666666715,
      "v": 85
    },
    {
      "midi": 63,
      "hit": false,
      "t": 119052.08333333343,
      "d": 791.6666666666715,
      "v": 107
    },
    {
      "midi": 70,
      "hit": false,
      "t": 119052.08333333343,
      "d": 875.0000000000146,
      "v": 99
    },
    {
      "midi": 56,
      "hit": false,
      "t": 119656.2500000001,
      "d": 197.91666666667152,
      "v": 88
    },
    {
      "midi": 46,
      "hit": false,
      "t": 120020.83333333344,
      "d": 1500,
      "v": 85
    },
    {
      "midi": 58,
      "hit": false,
      "t": 120072.91666666677,
      "d": 1385.4166666666715,
      "v": 74
    },
    {
      "midi": 65,
      "hit": false,
      "t": 120666.66666666677,
      "d": 1125,
      "v": 85
    },
    {
      "midi": 70,
      "hit": false,
      "t": 120666.66666666677,
      "d": 1166.6666666666715,
      "v": 74
    },
    {
      "midi": 62,
      "hit": false,
      "t": 120677.08333333344,
      "d": 1125,
      "v": 85
    },
    {
      "midi": 62,
      "hit": false,
      "t": 121979.16666666677,
      "d": 427.08333333334303,
      "v": 85
    },
    {
      "midi": 65,
      "hit": false,
      "t": 121979.16666666677,
      "d": 802.083333333343,
      "v": 85
    },
    {
      "midi": 56,
      "hit": false,
      "t": 121979.16666666677,
      "d": 843.7500000000146,
      "v": 66
    },
    {
      "midi": 68,
      "hit": false,
      "t": 121979.16666666677,
      "d": 1135.4166666666715,
      "v": 74
    },
    {
      "midi": 72,
      "hit": false,
      "t": 121989.58333333344,
      "d": 1312.5,
      "v": 85
    },
    {
      "midi": 44,
      "hit": false,
      "t": 121989.58333333344,
      "d": 1916.6666666666715,
      "v": 74
    },
    {
      "midi": 62,
      "hit": false,
      "t": 122604.16666666679,
      "d": 2208.333333333314,
      "v": 85
    },
    {
      "midi": 65,
      "hit": false,
      "t": 122968.75000000012,
      "d": 1791.666666666657,
      "v": 81
    },
    {
      "midi": 68,
      "hit": false,
      "t": 123552.08333333344,
      "d": 333.33333333334303,
      "v": 68
    },
    {
      "midi": 72,
      "hit": false,
      "t": 123562.50000000012,
      "d": 218.75,
      "v": 85
    },
    {
      "midi": 56,
      "hit": false,
      "t": 123583.33333333344,
      "d": 322.9166666666715,
      "v": 74
    },
    {
      "midi": 55,
      "hit": false,
      "t": 123937.50000000012,
      "d": 1354.166666666657,
      "v": 85
    },
    {
      "midi": 67,
      "hit": false,
      "t": 123958.33333333344,
      "d": 781.25,
      "v": 85
    },
    {
      "midi": 71,
      "hit": false,
      "t": 123989.58333333344,
      "d": 750,
      "v": 79
    },
    {
      "midi": 43,
      "hit": false,
      "t": 123989.58333333344,
      "d": 1322.916666666657,
      "v": 69
    },
    {
      "midi": 65,
      "hit": false,
      "t": 124979.16666666677,
      "d": 1437.5,
      "v": 77
    },
    {
      "midi": 71,
      "hit": false,
      "t": 124979.16666666677,
      "d": 1437.5,
      "v": 85
    },
    {
      "midi": 67,
      "hit": false,
      "t": 124979.16666666677,
      "d": 1447.9166666666715,
      "v": 85
    },
    {
      "midi": 62,
      "hit": false,
      "t": 124989.58333333344,
      "d": 1520.8333333333285,
      "v": 78
    },
    {
      "midi": 43,
      "hit": false,
      "t": 125635.41666666677,
      "d": 2197.9166666666715,
      "v": 62
    },
    {
      "midi": 55,
      "hit": false,
      "t": 126062.5000000001,
      "d": 739.583333333343,
      "v": 85
    },
    {
      "midi": 65,
      "hit": false,
      "t": 126614.58333333344,
      "d": 489.5833333333285,
      "v": 85
    },
    {
      "midi": 62,
      "hit": false,
      "t": 126625.00000000012,
      "d": 510.41666666665697,
      "v": 78
    },
    {
      "midi": 55,
      "hit": false,
      "t": 127010.41666666677,
      "d": 427.08333333334303,
      "v": 85
    },
    {
      "midi": 67,
      "hit": false,
      "t": 127291.66666666677,
      "d": 166.66666666667152,
      "v": 85
    },
    {
      "midi": 65,
      "hit": false,
      "t": 127291.66666666677,
      "d": 197.91666666667152,
      "v": 85
    },
    {
      "midi": 71,
      "hit": false,
      "t": 127302.08333333344,
      "d": 135.41666666667152,
      "v": 85
    },
    {
      "midi": 62,
      "hit": false,
      "t": 127302.08333333344,
      "d": 312.5,
      "v": 85
    },
    {
      "midi": 55,
      "hit": false,
      "t": 127614.58333333344,
      "d": 177.08333333332848,
      "v": 77
    },
    {
      "midi": 63,
      "hit": false,
      "t": 127958.33333333344,
      "d": 52.083333333343035,
      "v": 79
    },
    {
      "midi": 48,
      "hit": false,
      "t": 127979.16666666677,
      "d": 1083.3333333333576,
      "v": 85
    },
    {
      "midi": 62,
      "hit": false,
      "t": 127989.58333333344,
      "d": 2020.8333333333576,
      "v": 85
    },
    {
      "midi": 58,
      "hit": false,
      "t": 127989.58333333344,
      "d": 2145.8333333333576,
      "v": 78
    },
    {
      "midi": 67,
      "hit": false,
      "t": 128000.00000000012,
      "d": 2229.166666666686,
      "v": 85
    },
    {
      "midi": 64,
      "hit": false,
      "t": 128020.83333333346,
      "d": 2125.0000000000146,
      "v": 103
    },
    {
      "midi": 36,
      "hit": false,
      "t": 129031.25000000013,
      "d": 750,
      "v": 81
    },
    {
      "midi": 48,
      "hit": false,
      "t": 129614.58333333346,
      "d": 1187.5000000000146,
      "v": 84
    },
    {
      "midi": 36,
      "hit": false,
      "t": 129968.75000000013,
      "d": 302.08333333334303,
      "v": 85
    },
    {
      "midi": 62,
      "hit": false,
      "t": 130583.33333333347,
      "d": 166.66666666667152,
      "v": 85
    },
    {
      "midi": 64,
      "hit": false,
      "t": 130583.33333333347,
      "d": 187.5,
      "v": 85
    },
    {
      "midi": 67,
      "hit": false,
      "t": 130583.33333333347,
      "d": 291.6666666666715,
      "v": 85
    },
    {
      "midi": 58,
      "hit": false,
      "t": 130593.75000000015,
      "d": 197.91666666665697,
      "v": 74
    },
    {
      "midi": 48,
      "hit": false,
      "t": 130968.75000000015,
      "d": 1062.500000000029,
      "v": 85
    },
    {
      "midi": 67,
      "hit": false,
      "t": 131302.0833333335,
      "d": 489.58333333337214,
      "v": 85
    },
    {
      "midi": 62,
      "hit": false,
      "t": 131322.91666666683,
      "d": 187.5,
      "v": 85
    },
    {
      "midi": 64,
      "hit": false,
      "t": 131322.91666666683,
      "d": 395.83333333334303,
      "v": 85
    },
    {
      "midi": 58,
      "hit": false,
      "t": 131322.91666666683,
      "d": 447.91666666668607,
      "v": 74
    },
    {
      "midi": 67,
      "hit": false,
      "t": 132010.41666666686,
      "d": 2677.083333333285,
      "v": 85
    },
    {
      "midi": 58,
      "hit": false,
      "t": 132020.83333333352,
      "d": 177.08333333331393,
      "v": 65
    },
    {
      "midi": 63,
      "hit": false,
      "t": 132031.25000000017,
      "d": 468.75,
      "v": 85
    },
    {
      "midi": 41,
      "hit": false,
      "t": 132031.25000000017,
      "d": 1750,
      "v": 85
    },
    {
      "midi": 53,
      "hit": false,
      "t": 132041.66666666683,
      "d": 1812.5,
      "v": 85
    },
    {
      "midi": 58,
      "hit": false,
      "t": 132697.91666666683,
      "d": 354.16666666665697,
      "v": 84
    },
    {
      "midi": 63,
      "hit": false,
      "t": 133083.3333333335,
      "d": 1687.5,
      "v": 74
    },
    {
      "midi": 58,
      "hit": false,
      "t": 133635.41666666683,
      "d": 343.75,
      "v": 72
    },
    {
      "midi": 41,
      "hit": false,
      "t": 134020.8333333335,
      "d": 1208.333333333314,
      "v": 85
    },
    {
      "midi": 57,
      "hit": false,
      "t": 134031.25000000015,
      "d": 906.25,
      "v": 85
    },
    {
      "midi": 53,
      "hit": false,
      "t": 134677.0833333335,
      "d": 489.58333333331393,
      "v": 92
    },
    {
      "midi": 63,
      "hit": false,
      "t": 135020.8333333335,
      "d": 843.7499999999709,
      "v": 84
    },
    {
      "midi": 67,
      "hit": false,
      "t": 135031.25000000015,
      "d": 739.5833333333139,
      "v": 85
    },
    {
      "midi": 57,
      "hit": false,
      "t": 135031.25000000015,
      "d": 1729.1666666666279,
      "v": 85
    },
    {
      "midi": 53,
      "hit": false,
      "t": 135604.1666666668,
      "d": 312.5,
      "v": 64
    },
    {
      "midi": 46,
      "hit": false,
      "t": 135989.58333333346,
      "d": 1656.249999999971,
      "v": 82
    },
    {
      "midi": 60,
      "hit": false,
      "t": 136020.83333333346,
      "d": 447.91666666665697,
      "v": 78
    },
    {
      "midi": 62,
      "hit": false,
      "t": 136031.25000000012,
      "d": 489.58333333334303,
      "v": 85
    },
    {
      "midi": 65,
      "hit": false,
      "t": 136041.66666666677,
      "d": 479.16666666668607,
      "v": 74
    },
    {
      "midi": 62,
      "hit": false,
      "t": 136656.25000000012,
      "d": 104.16666666665697,
      "v": 85
    },
    {
      "midi": 65,
      "hit": false,
      "t": 136666.66666666677,
      "d": 83.33333333334303,
      "v": 85
    },
    {
      "midi": 60,
      "hit": false,
      "t": 136666.66666666677,
      "d": 93.75,
      "v": 85
    },
    {
      "midi": 62,
      "hit": false,
      "t": 137635.41666666677,
      "d": 177.08333333331393,
      "v": 85
    },
    {
      "midi": 60,
      "hit": false,
      "t": 137645.83333333343,
      "d": 166.66666666665697,
      "v": 85
    },
    {
      "midi": 65,
      "hit": false,
      "t": 137656.2500000001,
      "d": 166.66666666665697,
      "v": 78
    },
    {
      "midi": 57,
      "hit": false,
      "t": 137656.2500000001,
      "d": 177.08333333331393,
      "v": 72
    },
    {
      "midi": 46,
      "hit": false,
      "t": 138000.00000000006,
      "d": 562.5,
      "v": 64
    },
    {
      "midi": 60,
      "hit": false,
      "t": 138572.91666666672,
      "d": 93.75,
      "v": 85
    },
    {
      "midi": 62,
      "hit": false,
      "t": 138572.91666666672,
      "d": 104.16666666665697,
      "v": 85
    },
    {
      "midi": 57,
      "hit": false,
      "t": 138583.33333333337,
      "d": 104.16666666665697,
      "v": 85
    },
    {
      "midi": 65,
      "hit": false,
      "t": 138583.33333333337,
      "d": 104.16666666665697,
      "v": 85
    },
    {
      "midi": 46,
      "hit": false,
      "t": 138958.33333333337,
      "d": 822.916666666657,
      "v": 66
    },
    {
      "midi": 65,
      "hit": false,
      "t": 139989.58333333337,
      "d": 500,
      "v": 85
    },
    {
      "midi": 66,
      "hit": false,
      "t": 139989.58333333337,
      "d": 812.5,
      "v": 68
    },
    {
      "midi": 61,
      "hit": false,
      "t": 140000.00000000003,
      "d": 354.16666666668607,
      "v": 72
    },
    {
      "midi": 70,
      "hit": false,
      "t": 140000.00000000003,
      "d": 979.166666666657,
      "v": 82
    },
    {
      "midi": 39,
      "hit": false,
      "t": 140000.00000000003,
      "d": 1989.583333333343,
      "v": 68
    },
    {
      "midi": 51,
      "hit": false,
      "t": 140020.83333333337,
      "d": 822.916666666657,
      "v": 64
    },
    {
      "midi": 61,
      "hit": false,
      "t": 140718.75000000003,
      "d": 427.08333333334303,
      "v": 95
    },
    {
      "midi": 51,
      "hit": false,
      "t": 141062.50000000003,
      "d": 833.333333333343,
      "v": 93
    },
    {
      "midi": 66,
      "hit": false,
      "t": 141364.58333333337,
      "d": 187.5,
      "v": 81
    },
    {
      "midi": 61,
      "hit": false,
      "t": 141375.00000000003,
      "d": 62.5,
      "v": 72
    },
    {
      "midi": 70,
      "hit": false,
      "t": 141375.00000000003,
      "d": 1416.666666666657,
      "v": 72
    },
    {
      "midi": 66,
      "hit": false,
      "t": 141645.83333333337,
      "d": 260.41666666665697,
      "v": 46
    },
    {
      "midi": 61,
      "hit": false,
      "t": 141677.08333333337,
      "d": 260.41666666665697,
      "v": 86
    },
    {
      "midi": 66,
      "hit": false,
      "t": 141968.75000000003,
      "d": 854.166666666657,
      "v": 59
    },
    {
      "midi": 60,
      "hit": false,
      "t": 141989.58333333337,
      "d": 854.166666666657,
      "v": 85
    },
    {
      "midi": 44,
      "hit": false,
      "t": 142000.00000000003,
      "d": 1291.666666666657,
      "v": 77
    },
    {
      "midi": 66,
      "hit": false,
      "t": 142958.33333333337,
      "d": 864.5833333333139,
      "v": 91
    },
    {
      "midi": 60,
      "hit": false,
      "t": 142968.75000000003,
      "d": 875,
      "v": 85
    },
    {
      "midi": 70,
      "hit": false,
      "t": 142968.75000000003,
      "d": 875,
      "v": 93
    },
    {
      "midi": 44,
      "hit": false,
      "t": 143604.1666666667,
      "d": 260.41666666668607,
      "v": 89
    },
    {
      "midi": 37,
      "hit": false,
      "t": 144041.66666666672,
      "d": 3447.916666666628,
      "v": 85
    },
    {
      "midi": 49,
      "hit": false,
      "t": 144052.08333333337,
      "d": 3427.083333333314,
      "v": 85
    },
    {
      "midi": 65,
      "hit": false,
      "t": 144062.50000000003,
      "d": 1635.416666666657,
      "v": 85
    },
    {
      "midi": 61,
      "hit": false,
      "t": 144062.50000000003,
      "d": 1666.666666666657,
      "v": 85
    },
    {
      "midi": 56,
      "hit": false,
      "t": 144072.9166666667,
      "d": 1677.083333333343,
      "v": 85
    },
    {
      "midi": 58,
      "hit": false,
      "t": 144104.1666666667,
      "d": 187.5,
      "v": 85
    },
    {
      "midi": 65,
      "hit": false,
      "t": 145979.1666666667,
      "d": 1500,
      "v": 85
    },
    {
      "midi": 60,
      "hit": false,
      "t": 145979.1666666667,
      "d": 1520.833333333314,
      "v": 85
    },
    {
      "midi": 61,
      "hit": false,
      "t": 145979.1666666667,
      "d": 1531.249999999971,
      "v": 85
    },
    {
      "midi": 56,
      "hit": false,
      "t": 145989.58333333334,
      "d": 1510.416666666657,
      "v": 85
    },
    {
      "midi": 58,
      "hit": false,
      "t": 147614.5833333333,
      "d": 291.66666666665697,
      "v": 95
    },
    {
      "midi": 61,
      "hit": false,
      "t": 147614.5833333333,
      "d": 2145.833333333314,
      "v": 86
    },
    {
      "midi": 56,
      "hit": false,
      "t": 147614.5833333333,
      "d": 2166.666666666657,
      "v": 85
    },
    {
      "midi": 65,
      "hit": false,
      "t": 147979.16666666663,
      "d": 1614.583333333343,
      "v": 85
    },
    {
      "midi": 60,
      "hit": false,
      "t": 147979.16666666663,
      "d": 1802.083333333343,
      "v": 85
    },
    {
      "midi": 56,
      "hit": false,
      "t": 150031.24999999997,
      "d": 875,
      "v": 79
    },
    {
      "midi": 58,
      "hit": false,
      "t": 150031.24999999997,
      "d": 875,
      "v": 85
    },
    {
      "midi": 61,
      "hit": false,
      "t": 150031.24999999997,
      "d": 885.416666666657,
      "v": 85
    },
    {
      "midi": 58,
      "hit": false,
      "t": 151010.41666666663,
      "d": 729.166666666657,
      "v": 85
    },
    {
      "midi": 61,
      "hit": false,
      "t": 151010.41666666663,
      "d": 760.416666666657,
      "v": 85
    },
    {
      "midi": 56,
      "hit": false,
      "t": 151020.83333333328,
      "d": 656.25,
      "v": 85
    },
    {
      "midi": 65,
      "hit": false,
      "t": 151020.83333333328,
      "d": 791.666666666657,
      "v": 85
    },
    {
      "midi": 49,
      "hit": false,
      "t": 151645.83333333328,
      "d": 364.58333333331393,
      "v": 85
    },
    {
      "midi": 64,
      "hit": false,
      "t": 152031.24999999994,
      "d": 2406.25,
      "v": 85
    },
    {
      "midi": 61,
      "hit": false,
      "t": 152031.24999999994,
      "d": 2437.5,
      "v": 85
    },
    {
      "midi": 67,
      "hit": false,
      "t": 152041.6666666666,
      "d": 2406.25,
      "v": 85
    },
    {
      "midi": 58,
      "hit": false,
      "t": 152041.6666666666,
      "d": 2447.916666666686,
      "v": 85
    },
    {
      "midi": 52,
      "hit": false,
      "t": 152041.6666666666,
      "d": 2854.166666666686,
      "v": 67
    },
    {
      "midi": 61,
      "hit": false,
      "t": 154635.41666666663,
      "d": 1250,
      "v": 85
    },
    {
      "midi": 58,
      "hit": false,
      "t": 154635.41666666663,
      "d": 1281.25,
      "v": 85
    },
    {
      "midi": 67,
      "hit": false,
      "t": 154645.83333333328,
      "d": 1208.333333333343,
      "v": 85
    },
    {
      "midi": 64,
      "hit": false,
      "t": 154645.83333333328,
      "d": 1239.583333333343,
      "v": 70
    },
    {
      "midi": 58,
      "hit": false,
      "t": 156020.83333333328,
      "d": 1385.416666666657,
      "v": 85
    },
    {
      "midi": 64,
      "hit": false,
      "t": 156020.83333333328,
      "d": 1427.083333333314,
      "v": 67
    },
    {
      "midi": 61,
      "hit": false,
      "t": 156031.24999999994,
      "d": 1406.25,
      "v": 85
    },
    {
      "midi": 67,
      "hit": false,
      "t": 156031.24999999994,
      "d": 1406.25,
      "v": 85
    },
    {
      "midi": 64,
      "hit": false,
      "t": 157614.58333333326,
      "d": 197.91666666665697,
      "v": 71
    },
    {
      "midi": 67,
      "hit": false,
      "t": 157614.58333333326,
      "d": 218.75,
      "v": 85
    },
    {
      "midi": 61,
      "hit": false,
      "t": 157624.9999999999,
      "d": 218.75,
      "v": 74
    },
    {
      "midi": 70,
      "hit": false,
      "t": 157624.9999999999,
      "d": 229.16666666665697,
      "v": 85
    },
    {
      "midi": 67,
      "hit": false,
      "t": 157989.58333333323,
      "d": 687.5,
      "v": 85
    },
    {
      "midi": 70,
      "hit": false,
      "t": 157999.99999999988,
      "d": 656.25,
      "v": 84
    },
    {
      "midi": 64,
      "hit": false,
      "t": 157999.99999999988,
      "d": 677.083333333343,
      "v": 66
    },
    {
      "midi": 61,
      "hit": false,
      "t": 157999.99999999988,
      "d": 708.333333333343,
      "v": 68
    },
    {
      "midi": 64,
      "hit": false,
      "t": 159041.66666666657,
      "d": 916.6666666666279,
      "v": 76
    },
    {
      "midi": 67,
      "hit": false,
      "t": 159052.08333333323,
      "d": 885.416666666657,
      "v": 85
    },
    {
      "midi": 61,
      "hit": false,
      "t": 159052.08333333323,
      "d": 895.8333333333139,
      "v": 85
    },
    {
      "midi": 58,
      "hit": false,
      "t": 159052.08333333323,
      "d": 927.0833333333139,
      "v": 85
    },
    {
      "midi": 52,
      "hit": false,
      "t": 159677.08333333323,
      "d": 312.4999999999709,
      "v": 77
    },
    {
      "midi": 51,
      "hit": false,
      "t": 160020.8333333332,
      "d": 2937.499999999971,
      "v": 85
    },
    {
      "midi": 61,
      "hit": false,
      "t": 160041.66666666654,
      "d": 1625,
      "v": 85
    },
    {
      "midi": 63,
      "hit": false,
      "t": 160052.0833333332,
      "d": 1614.583333333343,
      "v": 85
    },
    {
      "midi": 66,
      "hit": false,
      "t": 160052.0833333332,
      "d": 1625,
      "v": 61
    },
    {
      "midi": 58,
      "hit": false,
      "t": 160052.0833333332,
      "d": 1666.666666666657,
      "v": 81
    },
    {
      "midi": 58,
      "hit": false,
      "t": 161989.5833333332,
      "d": 250,
      "v": 85
    },
    {
      "midi": 54,
      "hit": false,
      "t": 161989.5833333332,
      "d": 270.83333333334303,
      "v": 71
    },
    {
      "midi": 61,
      "hit": false,
      "t": 161999.99999999985,
      "d": 218.75,
      "v": 85
    },
    {
      "midi": 65,
      "hit": false,
      "t": 162010.4166666665,
      "d": 208.33333333334303,
      "v": 77
    },
    {
      "midi": 63,
      "hit": false,
      "t": 162031.24999999985,
      "d": 177.08333333334303,
      "v": 60
    },
    {
      "midi": 58,
      "hit": false,
      "t": 162666.66666666654,
      "d": 291.66666666662786,
      "v": 85
    },
    {
      "midi": 54,
      "hit": false,
      "t": 162666.66666666654,
      "d": 385.41666666662786,
      "v": 68
    },
    {
      "midi": 61,
      "hit": false,
      "t": 162677.0833333332,
      "d": 239.58333333331393,
      "v": 85
    },
    {
      "midi": 65,
      "hit": false,
      "t": 162687.49999999985,
      "d": 354.16666666665697,
      "v": 85
    },
    {
      "midi": 51,
      "hit": false,
      "t": 163052.08333333317,
      "d": 281.25,
      "v": 85
    },
    {
      "midi": 58,
      "hit": false,
      "t": 163364.58333333317,
      "d": 166.66666666665697,
      "v": 92
    },
    {
      "midi": 61,
      "hit": false,
      "t": 163364.58333333317,
      "d": 208.33333333331393,
      "v": 89
    },
    {
      "midi": 54,
      "hit": false,
      "t": 163364.58333333317,
      "d": 218.7499999999709,
      "v": 82
    },
    {
      "midi": 63,
      "hit": false,
      "t": 163364.58333333317,
      "d": 229.16666666662786,
      "v": 91
    },
    {
      "midi": 58,
      "hit": false,
      "t": 164052.08333333314,
      "d": 562.5,
      "v": 85
    },
    {
      "midi": 61,
      "hit": false,
      "t": 164052.08333333314,
      "d": 572.916666666657,
      "v": 85
    },
    {
      "midi": 54,
      "hit": false,
      "t": 164052.08333333314,
      "d": 593.75,
      "v": 76
    },
    {
      "midi": 51,
      "hit": false,
      "t": 164052.08333333314,
      "d": 989.5833333333139,
      "v": 85
    },
    {
      "midi": 65,
      "hit": false,
      "t": 164062.4999999998,
      "d": 562.5,
      "v": 89
    },
    {
      "midi": 61,
      "hit": false,
      "t": 164739.58333333314,
      "d": 1729.1666666666279,
      "v": 85
    },
    {
      "midi": 54,
      "hit": false,
      "t": 164749.9999999998,
      "d": 1614.583333333314,
      "v": 89
    },
    {
      "midi": 58,
      "hit": false,
      "t": 164749.9999999998,
      "d": 1739.583333333314,
      "v": 85
    },
    {
      "midi": 63,
      "hit": false,
      "t": 164749.9999999998,
      "d": 1739.583333333314,
      "v": 86
    },
    {
      "midi": 51,
      "hit": false,
      "t": 165979.16666666645,
      "d": 791.666666666657,
      "v": 96
    },
    {
      "midi": 63,
      "hit": false,
      "t": 166635.41666666645,
      "d": 197.91666666662786,
      "v": 85
    },
    {
      "midi": 58,
      "hit": false,
      "t": 166645.8333333331,
      "d": 135.41666666665697,
      "v": 85
    },
    {
      "midi": 61,
      "hit": false,
      "t": 166645.8333333331,
      "d": 145.83333333331393,
      "v": 85
    },
    {
      "midi": 54,
      "hit": false,
      "t": 166645.8333333331,
      "d": 156.2499999999709,
      "v": 81
    },
    {
      "midi": 46,
      "hit": false,
      "t": 166999.99999999974,
      "d": 343.75,
      "v": 85
    },
    {
      "midi": 54,
      "hit": false,
      "t": 167281.24999999974,
      "d": 270.83333333334303,
      "v": 74
    },
    {
      "midi": 63,
      "hit": false,
      "t": 167281.24999999974,
      "d": 437.5000000000291,
      "v": 85
    },
    {
      "midi": 58,
      "hit": false,
      "t": 167291.6666666664,
      "d": 197.91666666668607,
      "v": 85
    },
    {
      "midi": 61,
      "hit": false,
      "t": 167291.6666666664,
      "d": 281.2500000000291,
      "v": 85
    },
    {
      "midi": 46,
      "hit": false,
      "t": 167593.74999999977,
      "d": 395.83333333334303,
      "v": 85
    },
    {
      "midi": 51,
      "hit": false,
      "t": 167968.74999999977,
      "d": 2916.666666666657,
      "v": 85
    },
    {
      "midi": 65,
      "hit": false,
      "t": 168677.0833333331,
      "d": 1822.916666666657,
      "v": 91
    },
    {
      "midi": 67,
      "hit": false,
      "t": 168687.49999999977,
      "d": 1791.666666666657,
      "v": 89
    },
    {
      "midi": 61,
      "hit": false,
      "t": 168687.49999999977,
      "d": 1812.5,
      "v": 86
    },
    {
      "midi": 58,
      "hit": false,
      "t": 168687.49999999977,
      "d": 1833.333333333343,
      "v": 85
    },
    {
      "midi": 61,
      "hit": false,
      "t": 170614.5833333331,
      "d": 333.33333333331393,
      "v": 85
    },
    {
      "midi": 65,
      "hit": false,
      "t": 170614.5833333331,
      "d": 333.33333333331393,
      "v": 85
    },
    {
      "midi": 67,
      "hit": false,
      "t": 170624.99999999977,
      "d": 312.5,
      "v": 85
    },
    {
      "midi": 58,
      "hit": false,
      "t": 170624.99999999977,
      "d": 333.33333333331393,
      "v": 85
    },
    {
      "midi": 51,
      "hit": false,
      "t": 170947.91666666642,
      "d": 489.58333333331393,
      "v": 85
    },
    {
      "midi": 65,
      "hit": false,
      "t": 171302.08333333308,
      "d": 197.91666666665697,
      "v": 85
    },
    {
      "midi": 61,
      "hit": false,
      "t": 171302.08333333308,
      "d": 229.16666666665697,
      "v": 85
    },
    {
      "midi": 67,
      "hit": false,
      "t": 171312.49999999974,
      "d": 250,
      "v": 85
    },
    {
      "midi": 58,
      "hit": false,
      "t": 171312.49999999974,
      "d": 260.41666666665697,
      "v": 85
    },
    {
      "midi": 67,
      "hit": false,
      "t": 171604.1666666664,
      "d": 218.7499999999709,
      "v": 72
    },
    {
      "midi": 61,
      "hit": false,
      "t": 171614.58333333305,
      "d": 197.91666666665697,
      "v": 85
    },
    {
      "midi": 64,
      "hit": false,
      "t": 171624.9999999997,
      "d": 187.5,
      "v": 74
    },
    {
      "midi": 58,
      "hit": false,
      "t": 171635.41666666637,
      "d": 187.5,
      "v": 66
    },
    {
      "midi": 51,
      "hit": false,
      "t": 171937.4999999997,
      "d": 2333.333333333314,
      "v": 85
    },
    {
      "midi": 67,
      "hit": false,
      "t": 171947.91666666637,
      "d": 1843.75,
      "v": 85
    },
    {
      "midi": 63,
      "hit": false,
      "t": 171947.91666666637,
      "d": 1864.583333333343,
      "v": 85
    },
    {
      "midi": 61,
      "hit": false,
      "t": 171947.91666666637,
      "d": 1875,
      "v": 85
    },
    {
      "midi": 58,
      "hit": false,
      "t": 171958.33333333302,
      "d": 1885.416666666686,
      "v": 85
    },
    {
      "midi": 61,
      "hit": false,
      "t": 173979.16666666637,
      "d": 687.5,
      "v": 85
    },
    {
      "midi": 63,
      "hit": false,
      "t": 173989.58333333302,
      "d": 666.6666666666861,
      "v": 85
    },
    {
      "midi": 67,
      "hit": false,
      "t": 173989.58333333302,
      "d": 666.6666666666861,
      "v": 85
    },
    {
      "midi": 58,
      "hit": false,
      "t": 173989.58333333302,
      "d": 687.5,
      "v": 85
    },
    {
      "midi": 51,
      "hit": false,
      "t": 174635.41666666637,
      "d": 354.16666666665697,
      "v": 91
    },
    {
      "midi": 63,
      "hit": false,
      "t": 175010.41666666637,
      "d": 822.916666666657,
      "v": 85
    },
    {
      "midi": 61,
      "hit": false,
      "t": 175010.41666666637,
      "d": 833.3333333333139,
      "v": 85
    },
    {
      "midi": 67,
      "hit": false,
      "t": 175020.83333333302,
      "d": 802.083333333343,
      "v": 85
    },
    {
      "midi": 58,
      "hit": false,
      "t": 175020.83333333302,
      "d": 854.166666666657,
      "v": 85
    },
    {
      "midi": 46,
      "hit": false,
      "t": 175677.08333333302,
      "d": 166.66666666665697,
      "v": 66
    },
    {
      "midi": 54,
      "hit": false,
      "t": 176031.24999999968,
      "d": 2322.916666666657,
      "v": 74
    },
    {
      "midi": 59,
      "hit": false,
      "t": 176041.66666666634,
      "d": 2437.5,
      "v": 78
    },
    {
      "midi": 63,
      "hit": false,
      "t": 176041.66666666634,
      "d": 2468.75,
      "v": 85
    },
    {
      "midi": 44,
      "hit": false,
      "t": 176052.083333333,
      "d": 2031.25,
      "v": 85
    },
    {
      "midi": 54,
      "hit": false,
      "t": 178645.833333333,
      "d": 375,
      "v": 85
    },
    {
      "midi": 59,
      "hit": false,
      "t": 178656.24999999965,
      "d": 239.58333333334303,
      "v": 68
    },
    {
      "midi": 44,
      "hit": false,
      "t": 179010.41666666634,
      "d": 135.41666666665697,
      "v": 89
    },
    {
      "midi": 54,
      "hit": false,
      "t": 179291.66666666634,
      "d": 427.08333333334303,
      "v": 79
    },
    {
      "midi": 59,
      "hit": false,
      "t": 179302.083333333,
      "d": 208.33333333334303,
      "v": 97
    },
    {
      "midi": 63,
      "hit": false,
      "t": 179302.083333333,
      "d": 385.41666666668607,
      "v": 85
    },
    {
      "midi": 54,
      "hit": false,
      "t": 179979.16666666634,
      "d": 895.8333333333139,
      "v": 68
    },
    {
      "midi": 56,
      "hit": false,
      "t": 179979.16666666634,
      "d": 906.2499999999709,
      "v": 85
    },
    {
      "midi": 59,
      "hit": false,
      "t": 179989.583333333,
      "d": 854.166666666657,
      "v": 74
    },
    {
      "midi": 62,
      "hit": false,
      "t": 179989.583333333,
      "d": 916.666666666657,
      "v": 82
    },
    {
      "midi": 35,
      "hit": false,
      "t": 179989.583333333,
      "d": 1427.083333333314,
      "v": 74
    },
    {
      "midi": 47,
      "hit": false,
      "t": 179999.99999999965,
      "d": 1437.5,
      "v": 72
    },
    {
      "midi": 54,
      "hit": false,
      "t": 181041.6666666663,
      "d": 1291.666666666657,
      "v": 67
    },
    {
      "midi": 56,
      "hit": false,
      "t": 181041.6666666663,
      "d": 1395.833333333343,
      "v": 85
    },
    {
      "midi": 59,
      "hit": false,
      "t": 181052.08333333296,
      "d": 1302.083333333343,
      "v": 79
    },
    {
      "midi": 62,
      "hit": false,
      "t": 181052.08333333296,
      "d": 1385.416666666686,
      "v": 68
    },
    {
      "midi": 35,
      "hit": false,
      "t": 181697.9166666663,
      "d": 1520.8333333332848,
      "v": 74
    },
    {
      "midi": 47,
      "hit": false,
      "t": 182052.08333333296,
      "d": 749.9999999999709,
      "v": 79
    },
    {
      "midi": 54,
      "hit": false,
      "t": 182666.6666666663,
      "d": 541.6666666666279,
      "v": 81
    },
    {
      "midi": 59,
      "hit": false,
      "t": 182677.08333333296,
      "d": 114.58333333331393,
      "v": 64
    },
    {
      "midi": 62,
      "hit": false,
      "t": 182687.49999999962,
      "d": 72.91666666665697,
      "v": 55
    },
    {
      "midi": 47,
      "hit": false,
      "t": 183020.83333333294,
      "d": 510.41666666662786,
      "v": 84
    },
    {
      "midi": 54,
      "hit": false,
      "t": 183291.66666666625,
      "d": 385.41666666662786,
      "v": 68
    },
    {
      "midi": 56,
      "hit": false,
      "t": 183302.0833333329,
      "d": 374.9999999999709,
      "v": 85
    },
    {
      "midi": 59,
      "hit": false,
      "t": 183302.0833333329,
      "d": 374.9999999999709,
      "v": 76
    },
    {
      "midi": 62,
      "hit": false,
      "t": 183635.41666666622,
      "d": 72.91666666665697,
      "v": 76
    },
    {
      "midi": 47,
      "hit": false,
      "t": 183635.41666666622,
      "d": 114.58333333331393,
      "v": 62
    },
    {
      "midi": 42,
      "hit": false,
      "t": 183989.58333333288,
      "d": 1770.833333333314,
      "v": 65
    },
    {
      "midi": 58,
      "hit": false,
      "t": 183999.99999999953,
      "d": 739.5833333333139,
      "v": 85
    },
    {
      "midi": 66,
      "hit": false,
      "t": 183999.99999999953,
      "d": 1666.666666666657,
      "v": 88
    },
    {
      "midi": 61,
      "hit": false,
      "t": 183999.99999999953,
      "d": 1729.166666666657,
      "v": 97
    },
    {
      "midi": 54,
      "hit": false,
      "t": 184041.6666666662,
      "d": 1187.5,
      "v": 70
    },
    {
      "midi": 58,
      "hit": false,
      "t": 185010.4166666662,
      "d": 927.0833333333139,
      "v": 85
    },
    {
      "midi": 54,
      "hit": false,
      "t": 185624.99999999953,
      "d": 270.83333333331393,
      "v": 70
    },
    {
      "midi": 61,
      "hit": false,
      "t": 186031.2499999995,
      "d": 1249.9999999999418,
      "v": 85
    },
    {
      "midi": 68,
      "hit": false,
      "t": 186041.66666666616,
      "d": 1124.999999999971,
      "v": 85
    },
    {
      "midi": 58,
      "hit": false,
      "t": 186041.66666666616,
      "d": 1229.1666666666279,
      "v": 85
    },
    {
      "midi": 67,
      "hit": false,
      "t": 186052.08333333282,
      "d": 125,
      "v": 85
    },
    {
      "midi": 52,
      "hit": false,
      "t": 186052.08333333282,
      "d": 1927.0833333332848,
      "v": 68
    },
    {
      "midi": 63,
      "hit": false,
      "t": 186062.49999999948,
      "d": 177.08333333334303,
      "v": 85
    },
    {
      "midi": 64,
      "hit": false,
      "t": 186499.99999999948,
      "d": 166.66666666665697,
      "v": 64
    },
    {
      "midi": 64,
      "hit": false,
      "t": 186760.41666666613,
      "d": 395.83333333334303,
      "v": 49
    },
    {
      "midi": 61,
      "hit": false,
      "t": 187645.8333333328,
      "d": 322.91666666665697,
      "v": 92
    },
    {
      "midi": 64,
      "hit": false,
      "t": 187645.8333333328,
      "d": 322.91666666665697,
      "v": 99
    },
    {
      "midi": 68,
      "hit": false,
      "t": 187656.24999999945,
      "d": 239.58333333334303,
      "v": 88
    },
    {
      "midi": 58,
      "hit": false,
      "t": 187656.24999999945,
      "d": 1187.499999999971,
      "v": 85
    },
    {
      "midi": 61,
      "hit": false,
      "t": 188010.4166666661,
      "d": 1499.9999999999418,
      "v": 85
    },
    {
      "midi": 51,
      "hit": false,
      "t": 188020.83333333276,
      "d": 1864.5833333332557,
      "v": 85
    },
    {
      "midi": 67,
      "hit": false,
      "t": 188031.24999999942,
      "d": 1427.083333333314,
      "v": 85
    },
    {
      "midi": 63,
      "hit": false,
      "t": 188031.24999999942,
      "d": 1468.749999999971,
      "v": 85
    },
    {
      "midi": 58,
      "hit": false,
      "t": 188979.16666666607,
      "d": 562.4999999999709,
      "v": 85
    },
    {
      "midi": 65,
      "hit": false,
      "t": 189666.66666666605,
      "d": 385.41666666662786,
      "v": 85
    },
    {
      "midi": 61,
      "hit": false,
      "t": 189677.0833333327,
      "d": 416.66666666662786,
      "v": 85
    },
    {
      "midi": 67,
      "hit": false,
      "t": 189687.49999999936,
      "d": 374.9999999999709,
      "v": 85
    },
    {
      "midi": 58,
      "hit": false,
      "t": 189687.49999999936,
      "d": 406.2499999999709,
      "v": 85
    },
    {
      "midi": 51,
      "hit": false,
      "t": 190052.08333333267,
      "d": 489.58333333331393,
      "v": 79
    },
    {
      "midi": 61,
      "hit": false,
      "t": 190333.33333333267,
      "d": 249.9999999999709,
      "v": 85
    },
    {
      "midi": 64,
      "hit": false,
      "t": 190333.33333333267,
      "d": 249.9999999999709,
      "v": 77
    },
    {
      "midi": 67,
      "hit": false,
      "t": 190343.74999999933,
      "d": 229.16666666665697,
      "v": 85
    },
    {
      "midi": 58,
      "hit": false,
      "t": 190354.166666666,
      "d": 208.33333333334303,
      "v": 76
    },
    {
      "midi": 51,
      "hit": false,
      "t": 190697.916666666,
      "d": 93.75,
      "v": 61
    },
    {
      "midi": 61,
      "hit": false,
      "t": 191010.416666666,
      "d": 749.9999999999709,
      "v": 85
    },
    {
      "midi": 67,
      "hit": false,
      "t": 191020.83333333264,
      "d": 718.75,
      "v": 85
    },
    {
      "midi": 63,
      "hit": false,
      "t": 191020.83333333264,
      "d": 729.166666666657,
      "v": 85
    },
    {
      "midi": 58,
      "hit": false,
      "t": 191020.83333333264,
      "d": 864.5833333333139,
      "v": 85
    },
    {
      "midi": 51,
      "hit": false,
      "t": 191697.916666666,
      "d": 249.9999999999709,
      "v": 85
    },
    {
      "midi": 44,
      "hit": false,
      "t": 192052.08333333262,
      "d": 3885.416666666628,
      "v": 85
    },
    {
      "midi": 59,
      "hit": false,
      "t": 192062.49999999927,
      "d": 104.16666666665697,
      "v": 72
    },
    {
      "midi": 63,
      "hit": false,
      "t": 192062.49999999927,
      "d": 3041.666666666628,
      "v": 85
    },
    {
      "midi": 54,
      "hit": false,
      "t": 192104.16666666593,
      "d": 3010.416666666628,
      "v": 72
    },
    {
      "midi": 58,
      "hit": false,
      "t": 192114.5833333326,
      "d": 2468.75,
      "v": 85
    },
    {
      "midi": 60,
      "hit": false,
      "t": 192197.91666666593,
      "d": 2802.083333333314,
      "v": 85
    },
    {
      "midi": 54,
      "hit": false,
      "t": 195374.9999999992,
      "d": 156.25,
      "v": 72
    },
    {
      "midi": 60,
      "hit": false,
      "t": 195374.9999999992,
      "d": 427.08333333334303,
      "v": 91
    },
    {
      "midi": 63,
      "hit": false,
      "t": 195385.41666666587,
      "d": 166.66666666668607,
      "v": 85
    },
    {
      "midi": 63,
      "hit": false,
      "t": 195645.83333333256,
      "d": 197.91666666668607,
      "v": 85
    },
    {
      "midi": 54,
      "hit": false,
      "t": 195656.2499999992,
      "d": 166.66666666668607,
      "v": 55
    },
    {
      "midi": 58,
      "hit": false,
      "t": 195989.5833333326,
      "d": 1499.999999999971,
      "v": 85
    },
    {
      "midi": 44,
      "hit": false,
      "t": 195989.5833333326,
      "d": 1947.9166666666279,
      "v": 69
    },
    {
      "midi": 60,
      "hit": false,
      "t": 195999.99999999924,
      "d": 1479.166666666657,
      "v": 85
    },
    {
      "midi": 63,
      "hit": false,
      "t": 195999.99999999924,
      "d": 1479.166666666657,
      "v": 85
    },
    {
      "midi": 54,
      "hit": false,
      "t": 196010.4166666659,
      "d": 1468.75,
      "v": 74
    },
    {
      "midi": 58,
      "hit": false,
      "t": 197677.08333333256,
      "d": 302.08333333331393,
      "v": 85
    },
    {
      "midi": 54,
      "hit": false,
      "t": 197677.08333333256,
      "d": 343.7499999999709,
      "v": 68
    },
    {
      "midi": 60,
      "hit": false,
      "t": 197677.08333333256,
      "d": 343.7499999999709,
      "v": 85
    },
    {
      "midi": 65,
      "hit": false,
      "t": 197677.08333333256,
      "d": 343.7499999999709,
      "v": 85
    },
    {
      "midi": 44,
      "hit": false,
      "t": 198156.24999999919,
      "d": 552.0833333333139,
      "v": 68
    },
    {
      "midi": 54,
      "hit": false,
      "t": 198541.66666666584,
      "d": 239.58333333331393,
      "v": 68
    },
    {
      "midi": 64,
      "hit": false,
      "t": 198541.66666666584,
      "d": 333.33333333331393,
      "v": 72
    },
    {
      "midi": 60,
      "hit": false,
      "t": 198572.91666666584,
      "d": 41.666666666656965,
      "v": 85
    },
    {
      "midi": 58,
      "hit": false,
      "t": 198572.91666666584,
      "d": 177.08333333331393,
      "v": 85
    },
    {
      "midi": 44,
      "hit": false,
      "t": 198989.5833333325,
      "d": 208.33333333334303,
      "v": 81
    },
    {
      "midi": 58,
      "hit": false,
      "t": 199270.8333333325,
      "d": 395.83333333331393,
      "v": 85
    },
    {
      "midi": 54,
      "hit": false,
      "t": 199270.8333333325,
      "d": 447.91666666665697,
      "v": 68
    },
    {
      "midi": 63,
      "hit": false,
      "t": 199270.8333333325,
      "d": 500,
      "v": 85
    },
    {
      "midi": 60,
      "hit": false,
      "t": 199281.24999999916,
      "d": 406.25,
      "v": 85
    },
    {
      "midi": 59,
      "hit": false,
      "t": 201031.24999999916,
      "d": 458.33333333331393,
      "v": 66
    },
    {
      "midi": 58,
      "hit": false,
      "t": 201041.6666666658,
      "d": 375,
      "v": 85
    },
    {
      "midi": 54,
      "hit": false,
      "t": 201041.6666666658,
      "d": 416.66666666665697,
      "v": 66
    },
    {
      "midi": 63,
      "hit": false,
      "t": 201041.6666666658,
      "d": 500,
      "v": 85
    },
    {
      "midi": 32,
      "hit": false,
      "t": 201635.4166666658,
      "d": 604.1666666666861,
      "v": 74
    },
    {
      "midi": 44,
      "hit": false,
      "t": 201666.6666666658,
      "d": 489.58333333334303,
      "v": 85
    },
    {
      "midi": 59,
      "hit": false,
      "t": 202031.24999999916,
      "d": 333.33333333334303,
      "v": 68
    },
    {
      "midi": 63,
      "hit": false,
      "t": 202031.24999999916,
      "d": 343.75,
      "v": 85
    },
    {
      "midi": 66,
      "hit": false,
      "t": 202031.24999999916,
      "d": 343.75,
      "v": 69
    },
    {
      "midi": 58,
      "hit": false,
      "t": 202041.6666666658,
      "d": 437.5,
      "v": 85
    },
    {
      "midi": 44,
      "hit": false,
      "t": 202718.74999999916,
      "d": 239.58333333334303,
      "v": 85
    },
    {
      "midi": 58,
      "hit": false,
      "t": 203052.0833333325,
      "d": 833.333333333343,
      "v": 85
    },
    {
      "midi": 59,
      "hit": false,
      "t": 203052.0833333325,
      "d": 854.1666666666861,
      "v": 79
    },
    {
      "midi": 63,
      "hit": false,
      "t": 203052.0833333325,
      "d": 895.833333333343,
      "v": 85
    },
    {
      "midi": 54,
      "hit": false,
      "t": 203052.0833333325,
      "d": 906.25,
      "v": 78
    },
    {
      "midi": 44,
      "hit": false,
      "t": 203677.0833333325,
      "d": 291.66666666665697,
      "v": 85
    },
    {
      "midi": 65,
      "hit": false,
      "t": 204031.24999999916,
      "d": 395.83333333331393,
      "v": 96
    },
    {
      "midi": 62,
      "hit": false,
      "t": 204031.24999999916,
      "d": 406.2499999999709,
      "v": 93
    },
    {
      "midi": 43,
      "hit": false,
      "t": 204031.24999999916,
      "d": 656.2499999999709,
      "v": 85
    },
    {
      "midi": 69,
      "hit": false,
      "t": 204041.6666666658,
      "d": 416.66666666665697,
      "v": 89
    },
    {
      "midi": 58,
      "hit": false,
      "t": 204041.6666666658,
      "d": 427.08333333331393,
      "v": 84
    },
    {
      "midi": 58,
      "hit": false,
      "t": 204687.49999999913,
      "d": 156.25,
      "v": 78
    },
    {
      "midi": 62,
      "hit": false,
      "t": 204687.49999999913,
      "d": 166.66666666665697,
      "v": 89
    },
    {
      "midi": 65,
      "hit": false,
      "t": 204687.49999999913,
      "d": 187.5,
      "v": 91
    },
    {
      "midi": 69,
      "hit": false,
      "t": 204697.91666666578,
      "d": 177.08333333334303,
      "v": 85
    },
    {
      "midi": 62,
      "hit": false,
      "t": 205385.41666666578,
      "d": 437.5,
      "v": 107
    },
    {
      "midi": 65,
      "hit": false,
      "t": 205385.41666666578,
      "d": 447.91666666665697,
      "v": 106
    },
    {
      "midi": 58,
      "hit": false,
      "t": 205385.41666666578,
      "d": 458.33333333331393,
      "v": 89
    },
    {
      "midi": 69,
      "hit": false,
      "t": 205395.83333333244,
      "d": 447.91666666665697,
      "v": 93
    },
    {
      "midi": 61,
      "hit": false,
      "t": 205968.7499999991,
      "d": 458.33333333331393,
      "v": 81
    },
    {
      "midi": 68,
      "hit": false,
      "t": 205968.7499999991,
      "d": 468.7499999999709,
      "v": 81
    },
    {
      "midi": 64,
      "hit": false,
      "t": 205968.7499999991,
      "d": 499.9999999999709,
      "v": 88
    },
    {
      "midi": 58,
      "hit": false,
      "t": 205979.16666666575,
      "d": 489.58333333331393,
      "v": 77
    },
    {
      "midi": 61,
      "hit": false,
      "t": 206624.99999999907,
      "d": 322.91666666665697,
      "v": 91
    },
    {
      "midi": 68,
      "hit": false,
      "t": 206624.99999999907,
      "d": 354.16666666665697,
      "v": 93
    },
    {
      "midi": 58,
      "hit": false,
      "t": 206624.99999999907,
      "d": 385.41666666665697,
      "v": 74
    },
    {
      "midi": 64,
      "hit": false,
      "t": 206624.99999999907,
      "d": 395.83333333331393,
      "v": 95
    },
    {
      "midi": 68,
      "hit": false,
      "t": 207260.41666666573,
      "d": 375,
      "v": 93
    },
    {
      "midi": 58,
      "hit": false,
      "t": 207260.41666666573,
      "d": 395.83333333334303,
      "v": 76
    },
    {
      "midi": 64,
      "hit": false,
      "t": 207260.41666666573,
      "d": 479.16666666668607,
      "v": 95
    },
    {
      "midi": 61,
      "hit": false,
      "t": 207270.83333333238,
      "d": 406.2500000000291,
      "v": 85
    },
    {
      "midi": 64,
      "hit": false,
      "t": 207895.8333333324,
      "d": 114.58333333334303,
      "v": 85
    },
    {
      "midi": 57,
      "hit": false,
      "t": 207895.8333333324,
      "d": 1343.75,
      "v": 85
    },
    {
      "midi": 60,
      "hit": false,
      "t": 207906.24999999907,
      "d": 1364.583333333343,
      "v": 85
    },
    {
      "midi": 67,
      "hit": false,
      "t": 207906.24999999907,
      "d": 1385.416666666686,
      "v": 85
    },
    {
      "midi": 41,
      "hit": false,
      "t": 207916.66666666573,
      "d": 88.54166666668607,
      "v": 71
    },
    {
      "midi": 65,
      "hit": false,
      "t": 207999.99999999907,
      "d": 2041.666666666686,
      "v": 85
    },
    {
      "midi": 69,
      "hit": false,
      "t": 207999.99999999907,
      "d": 2052.083333333343,
      "v": 85
    },
    {
      "midi": 64,
      "hit": false,
      "t": 208010.41666666575,
      "d": 2104.166666666657,
      "v": 85
    },
    {
      "midi": 72,
      "hit": false,
      "t": 208020.8333333324,
      "d": 2010.416666666686,
      "v": 85
    },
    {
      "midi": 53,
      "hit": false,
      "t": 208031.24999999907,
      "d": 7093.749999999942,
      "v": 85
    },
    {
      "midi": 69,
      "hit": false,
      "t": 210562.49999999907,
      "d": 187.5,
      "v": 82
    },
    {
      "midi": 64,
      "hit": false,
      "t": 210583.3333333324,
      "d": 145.83333333334303,
      "v": 74
    },
    {
      "midi": 60,
      "hit": false,
      "t": 210604.16666666575,
      "d": 135.41666666665697,
      "v": 53
    },
    {
      "midi": 65,
      "hit": false,
      "t": 210614.5833333324,
      "d": 93.75,
      "v": 52
    },
    {
      "midi": 88,
      "hit": false,
      "t": 210874.99999999907,
      "d": 239.58333333334303,
      "v": 89
    },
    {
      "midi": 89,
      "hit": false,
      "t": 211135.41666666575,
      "d": 291.66666666665697,
      "v": 85
    },
    {
      "midi": 65,
      "hit": false,
      "t": 211270.8333333324,
      "d": 156.25,
      "v": 85
    },
    {
      "midi": 64,
      "hit": false,
      "t": 211270.8333333324,
      "d": 166.66666666665697,
      "v": 74
    },
    {
      "midi": 69,
      "hit": false,
      "t": 211270.8333333324,
      "d": 166.66666666665697,
      "v": 85
    },
    {
      "midi": 72,
      "hit": false,
      "t": 211270.8333333324,
      "d": 177.08333333331393,
      "v": 85
    },
    {
      "midi": 88,
      "hit": false,
      "t": 211395.8333333324,
      "d": 239.58333333331393,
      "v": 92
    },
    {
      "midi": 81,
      "hit": false,
      "t": 211656.24999999907,
      "d": 208.33333333334303,
      "v": 85
    },
    {
      "midi": 69,
      "hit": false,
      "t": 211958.3333333324,
      "d": 1895.833333333314,
      "v": 85
    },
    {
      "midi": 64,
      "hit": false,
      "t": 211958.3333333324,
      "d": 1927.083333333314,
      "v": 85
    },
    {
      "midi": 65,
      "hit": false,
      "t": 211968.74999999907,
      "d": 1927.083333333314,
      "v": 85
    },
    {
      "midi": 60,
      "hit": false,
      "t": 211979.16666666573,
      "d": 1958.333333333314,
      "v": 76
    },
    {
      "midi": 84,
      "hit": false,
      "t": 211999.99999999907,
      "d": 1791.666666666657,
      "v": 95
    },
    {
      "midi": 69,
      "hit": false,
      "t": 214020.83333333238,
      "d": 208.33333333334303,
      "v": 85
    },
    {
      "midi": 65,
      "hit": false,
      "t": 214020.83333333238,
      "d": 218.75,
      "v": 85
    },
    {
      "midi": 64,
      "hit": false,
      "t": 214020.83333333238,
      "d": 229.16666666665697,
      "v": 85
    },
    {
      "midi": 60,
      "hit": false,
      "t": 214020.83333333238,
      "d": 239.58333333331393,
      "v": 79
    },
    {
      "midi": 65,
      "hit": false,
      "t": 215010.4166666657,
      "d": 895.8333333333139,
      "v": 85
    },
    {
      "midi": 60,
      "hit": false,
      "t": 215020.83333333235,
      "d": 885.416666666657,
      "v": 85
    },
    {
      "midi": 64,
      "hit": false,
      "t": 215020.83333333235,
      "d": 885.416666666657,
      "v": 85
    },
    {
      "midi": 69,
      "hit": false,
      "t": 215031.249999999,
      "d": 916.666666666657,
      "v": 85
    },
    {
      "midi": 53,
      "hit": false,
      "t": 215624.999999999,
      "d": 135.41666666665697,
      "v": 85
    },
    {
      "midi": 44,
      "hit": false,
      "t": 215968.749999999,
      "d": 5833.333333333285,
      "v": 70
    },
    {
      "midi": 65,
      "hit": false,
      "t": 216656.249999999,
      "d": 145.83333333331393,
      "v": 85
    },
    {
      "midi": 68,
      "hit": false,
      "t": 216656.249999999,
      "d": 156.2499999999709,
      "v": 79
    },
    {
      "midi": 71,
      "hit": false,
      "t": 216656.249999999,
      "d": 166.66666666662786,
      "v": 85
    },
    {
      "midi": 62,
      "hit": false,
      "t": 216666.66666666567,
      "d": 145.83333333331393,
      "v": 85
    },
    {
      "midi": 56,
      "hit": false,
      "t": 217624.99999999898,
      "d": 3208.333333333314,
      "v": 64
    },
    {
      "midi": 68,
      "hit": false,
      "t": 218593.74999999898,
      "d": 125.0000000000291,
      "v": 64
    },
    {
      "midi": 74,
      "hit": false,
      "t": 218593.74999999898,
      "d": 218.7500000000291,
      "v": 85
    },
    {
      "midi": 65,
      "hit": false,
      "t": 218614.58333333232,
      "d": 83.33333333334303,
      "v": 79
    },
    {
      "midi": 68,
      "hit": false,
      "t": 219624.999999999,
      "d": 187.5,
      "v": 74
    },
    {
      "midi": 65,
      "hit": false,
      "t": 219635.41666666567,
      "d": 197.91666666668607,
      "v": 85
    },
    {
      "midi": 71,
      "hit": false,
      "t": 219635.41666666567,
      "d": 197.91666666668607,
      "v": 85
    },
    {
      "midi": 62,
      "hit": false,
      "t": 219635.41666666567,
      "d": 208.33333333334303,
      "v": 85
    },
    {
      "midi": 69,
      "hit": false,
      "t": 220010.41666666567,
      "d": 437.5,
      "v": 74
    },
    {
      "midi": 62,
      "hit": false,
      "t": 220020.83333333232,
      "d": 447.91666666665697,
      "v": 74
    },
    {
      "midi": 68,
      "hit": false,
      "t": 220041.66666666567,
      "d": 375,
      "v": 43
    },
    {
      "midi": 65,
      "hit": false,
      "t": 220052.08333333232,
      "d": 406.25,
      "v": 49
    },
    {
      "midi": 68,
      "hit": false,
      "t": 220635.41666666564,
      "d": 218.75,
      "v": 67
    },
    {
      "midi": 62,
      "hit": false,
      "t": 220635.41666666564,
      "d": 250,
      "v": 85
    },
    {
      "midi": 71,
      "hit": false,
      "t": 220635.41666666564,
      "d": 260.41666666665697,
      "v": 85
    },
    {
      "midi": 65,
      "hit": false,
      "t": 220645.8333333323,
      "d": 229.16666666668607,
      "v": 85
    },
    {
      "midi": 88,
      "hit": false,
      "t": 221020.8333333323,
      "d": 250,
      "v": 92
    },
    {
      "midi": 56,
      "hit": false,
      "t": 221062.49999999895,
      "d": 656.25,
      "v": 52
    },
    {
      "midi": 89,
      "hit": false,
      "t": 221333.3333333323,
      "d": 260.41666666665697,
      "v": 85
    },
    {
      "midi": 72,
      "hit": false,
      "t": 221593.74999999895,
      "d": 239.58333333334303,
      "v": 85
    },
    {
      "midi": 65,
      "hit": false,
      "t": 221604.1666666656,
      "d": 291.66666666668607,
      "v": 68
    },
    {
      "midi": 68,
      "hit": false,
      "t": 221614.58333333227,
      "d": 250.0000000000291,
      "v": 56
    },
    {
      "midi": 62,
      "hit": false,
      "t": 221614.58333333227,
      "d": 302.08333333337214,
      "v": 70
    },
    {
      "midi": 85,
      "hit": false,
      "t": 221666.6666666656,
      "d": 270.83333333337214,
      "v": 79
    },
    {
      "midi": 68,
      "hit": false,
      "t": 221999.99999999898,
      "d": 593.75,
      "v": 59
    },
    {
      "midi": 65,
      "hit": false,
      "t": 221999.99999999898,
      "d": 604.166666666657,
      "v": 66
    },
    {
      "midi": 86,
      "hit": false,
      "t": 222010.41666666564,
      "d": 500,
      "v": 85
    },
    {
      "midi": 71,
      "hit": false,
      "t": 222010.41666666564,
      "d": 604.166666666657,
      "v": 81
    },
    {
      "midi": 62,
      "hit": false,
      "t": 222020.8333333323,
      "d": 614.583333333343,
      "v": 72
    },
    {
      "midi": 56,
      "hit": false,
      "t": 222666.66666666564,
      "d": 322.91666666665697,
      "v": 76
    },
    {
      "midi": 44,
      "hit": false,
      "t": 222677.0833333323,
      "d": 302.08333333334303,
      "v": 77
    },
    {
      "midi": 88,
      "hit": false,
      "t": 222739.5833333323,
      "d": 291.66666666665697,
      "v": 85
    },
    {
      "midi": 65,
      "hit": false,
      "t": 223031.24999999895,
      "d": 864.5833333333139,
      "v": 85
    },
    {
      "midi": 68,
      "hit": false,
      "t": 223031.24999999895,
      "d": 906.2499999999709,
      "v": 72
    },
    {
      "midi": 71,
      "hit": false,
      "t": 223041.6666666656,
      "d": 885.416666666657,
      "v": 85
    },
    {
      "midi": 62,
      "hit": false,
      "t": 223041.6666666656,
      "d": 916.666666666657,
      "v": 85
    },
    {
      "midi": 89,
      "hit": false,
      "t": 223427.08333333227,
      "d": 312.5,
      "v": 85
    },
    {
      "midi": 56,
      "hit": false,
      "t": 223614.58333333227,
      "d": 239.58333333334303,
      "v": 85
    },
    {
      "midi": 44,
      "hit": false,
      "t": 223614.58333333227,
      "d": 302.08333333334303,
      "v": 79
    },
    {
      "midi": 55,
      "hit": false,
      "t": 223989.58333333227,
      "d": 989.5833333333139,
      "v": 85
    },
    {
      "midi": 62,
      "hit": false,
      "t": 224052.08333333227,
      "d": 1437.499999999971,
      "v": 57
    },
    {
      "midi": 65,
      "hit": false,
      "t": 224062.49999999892,
      "d": 1468.749999999971,
      "v": 77
    },
    {
      "midi": 67,
      "hit": false,
      "t": 224072.91666666558,
      "d": 1468.749999999971,
      "v": 85
    },
    {
      "midi": 70,
      "hit": false,
      "t": 224072.91666666558,
      "d": 1572.9166666666279,
      "v": 60
    },
    {
      "midi": 89,
      "hit": false,
      "t": 224885.41666666558,
      "d": 218.75,
      "v": 85
    },
    {
      "midi": 91,
      "hit": false,
      "t": 225083.33333333224,
      "d": 187.5,
      "v": 85
    },
    {
      "midi": 43,
      "hit": false,
      "t": 225083.33333333224,
      "d": 2208.333333333285,
      "v": 50
    },
    {
      "midi": 89,
      "hit": false,
      "t": 225291.66666666558,
      "d": 166.66666666665697,
      "v": 66
    },
    {
      "midi": 55,
      "hit": false,
      "t": 225677.0833333322,
      "d": 1645.833333333314,
      "v": 85
    },
    {
      "midi": 65,
      "hit": false,
      "t": 225989.5833333322,
      "d": 583.333333333343,
      "v": 85
    },
    {
      "midi": 67,
      "hit": false,
      "t": 226010.41666666555,
      "d": 572.916666666657,
      "v": 85
    },
    {
      "midi": 70,
      "hit": false,
      "t": 226020.8333333322,
      "d": 812.4999999999709,
      "v": 64
    },
    {
      "midi": 74,
      "hit": false,
      "t": 226052.0833333322,
      "d": 437.5,
      "v": 85
    },
    {
      "midi": 77,
      "hit": false,
      "t": 226687.49999999886,
      "d": 135.41666666665697,
      "v": 85
    },
    {
      "midi": 67,
      "hit": false,
      "t": 227312.49999999886,
      "d": 135.41666666665697,
      "v": 85
    },
    {
      "midi": 70,
      "hit": false,
      "t": 227322.91666666552,
      "d": 104.16666666665697,
      "v": 61
    },
    {
      "midi": 74,
      "hit": false,
      "t": 227322.91666666552,
      "d": 125,
      "v": 85
    },
    {
      "midi": 65,
      "hit": false,
      "t": 227333.33333333218,
      "d": 125,
      "v": 72
    },
    {
      "midi": 70,
      "hit": false,
      "t": 228020.83333333218,
      "d": 1531.25,
      "v": 62
    },
    {
      "midi": 67,
      "hit": false,
      "t": 228031.24999999884,
      "d": 1468.75,
      "v": 85
    },
    {
      "midi": 65,
      "hit": false,
      "t": 228031.24999999884,
      "d": 1625,
      "v": 67
    },
    {
      "midi": 55,
      "hit": false,
      "t": 228052.08333333218,
      "d": 2302.083333333285,
      "v": 77
    },
    {
      "midi": 65,
      "hit": false,
      "t": 229937.49999999884,
      "d": 697.9166666666279,
      "v": 79
    },
    {
      "midi": 70,
      "hit": false,
      "t": 229947.9166666655,
      "d": 656.2499999999709,
      "v": 60
    },
    {
      "midi": 62,
      "hit": false,
      "t": 229958.33333333215,
      "d": 697.916666666657,
      "v": 68
    },
    {
      "midi": 67,
      "hit": false,
      "t": 229968.7499999988,
      "d": 645.8333333333139,
      "v": 69
    },
    {
      "midi": 55,
      "hit": false,
      "t": 230604.16666666546,
      "d": 531.25,
      "v": 85
    },
    {
      "midi": 70,
      "hit": false,
      "t": 230989.58333333215,
      "d": 781.2499999999709,
      "v": 66
    },
    {
      "midi": 65,
      "hit": false,
      "t": 230989.58333333215,
      "d": 802.0833333333139,
      "v": 85
    },
    {
      "midi": 67,
      "hit": false,
      "t": 230999.9999999988,
      "d": 791.666666666657,
      "v": 85
    },
    {
      "midi": 62,
      "hit": false,
      "t": 231010.41666666546,
      "d": 854.166666666657,
      "v": 78
    },
    {
      "midi": 50,
      "hit": false,
      "t": 231614.58333333212,
      "d": 385.41666666662786,
      "v": 85
    },
    {
      "midi": 69,
      "hit": false,
      "t": 231968.74999999878,
      "d": 2531.25,
      "v": 85
    },
    {
      "midi": 55,
      "hit": false,
      "t": 231979.16666666543,
      "d": 2864.583333333343,
      "v": 85
    },
    {
      "midi": 65,
      "hit": false,
      "t": 231989.5833333321,
      "d": 2468.75,
      "v": 85
    },
    {
      "midi": 71,
      "hit": false,
      "t": 231989.5833333321,
      "d": 2489.583333333343,
      "v": 85
    },
    {
      "midi": 62,
      "hit": false,
      "t": 231999.99999999875,
      "d": 1677.083333333343,
      "v": 59
    },
    {
      "midi": 43,
      "hit": false,
      "t": 231999.99999999875,
      "d": 3375,
      "v": 85
    },
    {
      "midi": 89,
      "hit": false,
      "t": 233062.49999999875,
      "d": 239.58333333334303,
      "v": 95
    },
    {
      "midi": 91,
      "hit": false,
      "t": 233624.99999999875,
      "d": 166.66666666668607,
      "v": 88
    },
    {
      "midi": 62,
      "hit": false,
      "t": 233729.16666666543,
      "d": 729.166666666657,
      "v": 74
    },
    {
      "midi": 92,
      "hit": false,
      "t": 234083.3333333321,
      "d": 166.66666666665697,
      "v": 107
    },
    {
      "midi": 93,
      "hit": false,
      "t": 234249.99999999875,
      "d": 281.2500000000291,
      "v": 85
    },
    {
      "midi": 64,
      "hit": false,
      "t": 234593.74999999878,
      "d": 531.25,
      "v": 85
    },
    {
      "midi": 65,
      "hit": false,
      "t": 234593.74999999878,
      "d": 614.583333333343,
      "v": 85
    },
    {
      "midi": 69,
      "hit": false,
      "t": 234593.74999999878,
      "d": 614.583333333343,
      "v": 85
    },
    {
      "midi": 71,
      "hit": false,
      "t": 234604.16666666543,
      "d": 1291.6666666666279,
      "v": 85
    },
    {
      "midi": 88,
      "hit": false,
      "t": 234729.16666666543,
      "d": 218.75,
      "v": 93
    },
    {
      "midi": 55,
      "hit": false,
      "t": 235062.49999999878,
      "d": 343.7499999999709,
      "v": 85
    },
    {
      "midi": 65,
      "hit": false,
      "t": 235281.24999999878,
      "d": 562.4999999999418,
      "v": 85
    },
    {
      "midi": 69,
      "hit": false,
      "t": 235291.66666666543,
      "d": 572.9166666666279,
      "v": 85
    },
    {
      "midi": 63,
      "hit": false,
      "t": 235302.0833333321,
      "d": 583.3333333333139,
      "v": 79
    },
    {
      "midi": 88,
      "hit": false,
      "t": 235416.6666666654,
      "d": 93.75,
      "v": 85
    },
    {
      "midi": 89,
      "hit": false,
      "t": 235447.9166666654,
      "d": 354.16666666665697,
      "v": 93
    },
    {
      "midi": 43,
      "hit": false,
      "t": 235635.4166666654,
      "d": 125,
      "v": 85
    },
    {
      "midi": 65,
      "hit": false,
      "t": 235968.74999999872,
      "d": 1739.583333333343,
      "v": 85
    },
    {
      "midi": 69,
      "hit": false,
      "t": 235968.74999999872,
      "d": 2416.666666666686,
      "v": 85
    },
    {
      "midi": 62,
      "hit": false,
      "t": 235979.16666666538,
      "d": 895.833333333343,
      "v": 85
    },
    {
      "midi": 55,
      "hit": false,
      "t": 235979.16666666538,
      "d": 1510.416666666686,
      "v": 85
    },
    {
      "midi": 71,
      "hit": false,
      "t": 235979.16666666538,
      "d": 2072.916666666686,
      "v": 85
    },
    {
      "midi": 86,
      "hit": false,
      "t": 236072.91666666538,
      "d": 312.5,
      "v": 89
    },
    {
      "midi": 88,
      "hit": false,
      "t": 236697.91666666538,
      "d": 229.16666666668607,
      "v": 85
    },
    {
      "midi": 62,
      "hit": false,
      "t": 237104.1666666654,
      "d": 1770.833333333343,
      "v": 85
    },
    {
      "midi": 86,
      "hit": false,
      "t": 237666.6666666654,
      "d": 104.16666666665697,
      "v": 67
    },
    {
      "midi": 84,
      "hit": false,
      "t": 237666.6666666654,
      "d": 208.33333333331393,
      "v": 70
    },
    {
      "midi": 43,
      "hit": false,
      "t": 237697.9166666654,
      "d": 1427.083333333343,
      "v": 85
    },
    {
      "midi": 55,
      "hit": false,
      "t": 237697.9166666654,
      "d": 1458.333333333343,
      "v": 85
    },
    {
      "midi": 65,
      "hit": false,
      "t": 238083.33333333206,
      "d": 822.9166666666861,
      "v": 85
    },
    {
      "midi": 83,
      "hit": false,
      "t": 238145.83333333206,
      "d": 302.08333333334303,
      "v": 92
    },
    {
      "midi": 84,
      "hit": false,
      "t": 238697.9166666654,
      "d": 229.16666666668607,
      "v": 88
    },
    {
      "midi": 69,
      "hit": false,
      "t": 239041.66666666543,
      "d": 895.833333333343,
      "v": 85
    },
    {
      "midi": 62,
      "hit": false,
      "t": 239041.66666666543,
      "d": 1031.250000000029,
      "v": 85
    },
    {
      "midi": 65,
      "hit": false,
      "t": 239052.0833333321,
      "d": 937.5000000000291,
      "v": 85
    },
    {
      "midi": 71,
      "hit": false,
      "t": 239062.49999999875,
      "d": 875.0000000000291,
      "v": 85
    },
    {
      "midi": 86,
      "hit": false,
      "t": 239104.1666666654,
      "d": 468.75,
      "v": 85
    },
    {
      "midi": 55,
      "hit": false,
      "t": 239687.49999999875,
      "d": 364.58333333337214,
      "v": 85
    },
    {
      "midi": 88,
      "hit": false,
      "t": 239708.3333333321,
      "d": 302.08333333337214,
      "v": 85
    },
    {
      "midi": 43,
      "hit": false,
      "t": 239729.16666666543,
      "d": 93.75,
      "v": 68
    },
    {
      "midi": 48,
      "hit": false,
      "t": 240177.08333333212,
      "d": 2020.833333333343,
      "v": 85
    },
    {
      "midi": 67,
      "hit": false,
      "t": 240635.41666666546,
      "d": 2062.5,
      "v": 85
    },
    {
      "midi": 58,
      "hit": false,
      "t": 240645.83333333212,
      "d": 1135.416666666657,
      "v": 85
    },
    {
      "midi": 63,
      "hit": false,
      "t": 240645.83333333212,
      "d": 1312.5,
      "v": 86
    },
    {
      "midi": 58,
      "hit": false,
      "t": 242010.41666666546,
      "d": 1156.25,
      "v": 84
    },
    {
      "midi": 63,
      "hit": false,
      "t": 242624.9999999988,
      "d": 500,
      "v": 88
    },
    {
      "midi": 48,
      "hit": false,
      "t": 242968.7499999988,
      "d": 364.58333333331393,
      "v": 85
    },
    {
      "midi": 58,
      "hit": false,
      "t": 243302.08333333212,
      "d": 270.83333333334303,
      "v": 66
    },
    {
      "midi": 63,
      "hit": false,
      "t": 243312.49999999878,
      "d": 239.58333333334303,
      "v": 72
    },
    {
      "midi": 67,
      "hit": false,
      "t": 243312.49999999878,
      "d": 270.83333333334303,
      "v": 85
    },
    {
      "midi": 60,
      "hit": false,
      "t": 243979.16666666546,
      "d": 1854.166666666686,
      "v": 85
    },
    {
      "midi": 63,
      "hit": false,
      "t": 243979.16666666546,
      "d": 2166.666666666686,
      "v": 88
    },
    {
      "midi": 66,
      "hit": false,
      "t": 243979.16666666546,
      "d": 2406.250000000029,
      "v": 97
    },
    {
      "midi": 44,
      "hit": false,
      "t": 243989.58333333212,
      "d": 1635.416666666686,
      "v": 70
    },
    {
      "midi": 70,
      "hit": false,
      "t": 243989.58333333212,
      "d": 2625.000000000029,
      "v": 91
    },
    {
      "midi": 56,
      "hit": false,
      "t": 243999.99999999878,
      "d": 1270.833333333343,
      "v": 65
    },
    {
      "midi": 56,
      "hit": false,
      "t": 245572.91666666546,
      "d": 1406.250000000029,
      "v": 71
    },
    {
      "midi": 60,
      "hit": false,
      "t": 245979.1666666655,
      "d": 791.666666666657,
      "v": 85
    },
    {
      "midi": 44,
      "hit": false,
      "t": 246656.2499999988,
      "d": 395.83333333334303,
      "v": 122
    },
    {
      "midi": 66,
      "hit": false,
      "t": 247041.6666666655,
      "d": 729.166666666657,
      "v": 122
    },
    {
      "midi": 60,
      "hit": false,
      "t": 247052.08333333215,
      "d": 791.666666666657,
      "v": 85
    },
    {
      "midi": 63,
      "hit": false,
      "t": 247052.08333333215,
      "d": 791.666666666657,
      "v": 107
    },
    {
      "midi": 70,
      "hit": false,
      "t": 247052.08333333215,
      "d": 874.9999999999709,
      "v": 99
    },
    {
      "midi": 56,
      "hit": false,
      "t": 247656.2499999988,
      "d": 197.91666666665697,
      "v": 88
    },
    {
      "midi": 46,
      "hit": false,
      "t": 248020.83333333212,
      "d": 1500,
      "v": 85
    },
    {
      "midi": 58,
      "hit": false,
      "t": 248072.91666666546,
      "d": 1385.416666666657,
      "v": 74
    },
    {
      "midi": 65,
      "hit": false,
      "t": 248666.66666666546,
      "d": 1125,
      "v": 85
    },
    {
      "midi": 70,
      "hit": false,
      "t": 248666.66666666546,
      "d": 1166.666666666657,
      "v": 74
    },
    {
      "midi": 62,
      "hit": false,
      "t": 248677.08333333212,
      "d": 1125,
      "v": 85
    },
    {
      "midi": 62,
      "hit": false,
      "t": 249979.16666666546,
      "d": 427.08333333331393,
      "v": 85
    },
    {
      "midi": 65,
      "hit": false,
      "t": 249979.16666666546,
      "d": 802.0833333333139,
      "v": 85
    },
    {
      "midi": 56,
      "hit": false,
      "t": 249979.16666666546,
      "d": 843.7499999999709,
      "v": 66
    },
    {
      "midi": 68,
      "hit": false,
      "t": 249979.16666666546,
      "d": 1135.416666666657,
      "v": 74
    },
    {
      "midi": 72,
      "hit": false,
      "t": 249989.58333333212,
      "d": 1312.5,
      "v": 85
    },
    {
      "midi": 44,
      "hit": false,
      "t": 249989.58333333212,
      "d": 1916.666666666657,
      "v": 74
    },
    {
      "midi": 62,
      "hit": false,
      "t": 250604.16666666543,
      "d": 2208.333333333372,
      "v": 85
    },
    {
      "midi": 65,
      "hit": false,
      "t": 250968.74999999878,
      "d": 1791.666666666686,
      "v": 81
    },
    {
      "midi": 68,
      "hit": false,
      "t": 251552.08333333212,
      "d": 333.33333333331393,
      "v": 68
    },
    {
      "midi": 72,
      "hit": false,
      "t": 251562.49999999878,
      "d": 218.75,
      "v": 85
    },
    {
      "midi": 56,
      "hit": false,
      "t": 251583.33333333212,
      "d": 322.91666666665697,
      "v": 74
    },
    {
      "midi": 55,
      "hit": false,
      "t": 251937.49999999878,
      "d": 1354.166666666686,
      "v": 85
    },
    {
      "midi": 67,
      "hit": false,
      "t": 251958.33333333212,
      "d": 781.25,
      "v": 85
    },
    {
      "midi": 71,
      "hit": false,
      "t": 251989.58333333212,
      "d": 750,
      "v": 79
    },
    {
      "midi": 43,
      "hit": false,
      "t": 251989.58333333212,
      "d": 1322.916666666686,
      "v": 69
    },
    {
      "midi": 65,
      "hit": false,
      "t": 252979.16666666546,
      "d": 1437.5,
      "v": 77
    },
    {
      "midi": 71,
      "hit": false,
      "t": 252979.16666666546,
      "d": 1437.5,
      "v": 85
    },
    {
      "midi": 67,
      "hit": false,
      "t": 252979.16666666546,
      "d": 1447.916666666657,
      "v": 85
    },
    {
      "midi": 62,
      "hit": false,
      "t": 252989.58333333212,
      "d": 1520.833333333343,
      "v": 78
    },
    {
      "midi": 43,
      "hit": false,
      "t": 253635.41666666546,
      "d": 2197.916666666657,
      "v": 62
    },
    {
      "midi": 55,
      "hit": false,
      "t": 254062.4999999988,
      "d": 739.5833333333139,
      "v": 85
    },
    {
      "midi": 65,
      "hit": false,
      "t": 254614.58333333212,
      "d": 489.58333333334303,
      "v": 85
    },
    {
      "midi": 62,
      "hit": false,
      "t": 254624.99999999878,
      "d": 510.41666666668607,
      "v": 78
    },
    {
      "midi": 55,
      "hit": false,
      "t": 255010.41666666546,
      "d": 427.08333333331393,
      "v": 85
    },
    {
      "midi": 67,
      "hit": false,
      "t": 255291.66666666546,
      "d": 166.66666666665697,
      "v": 85
    },
    {
      "midi": 65,
      "hit": false,
      "t": 255291.66666666546,
      "d": 197.91666666665697,
      "v": 85
    },
    {
      "midi": 71,
      "hit": false,
      "t": 255302.08333333212,
      "d": 135.41666666665697,
      "v": 85
    },
    {
      "midi": 62,
      "hit": false,
      "t": 255302.08333333212,
      "d": 312.5,
      "v": 85
    },
    {
      "midi": 55,
      "hit": false,
      "t": 255614.58333333212,
      "d": 177.08333333334303,
      "v": 77
    },
    {
      "midi": 63,
      "hit": false,
      "t": 255958.33333333212,
      "d": 52.08333333331393,
      "v": 79
    },
    {
      "midi": 48,
      "hit": false,
      "t": 255979.16666666546,
      "d": 1083.3333333332848,
      "v": 85
    },
    {
      "midi": 62,
      "hit": false,
      "t": 255989.58333333212,
      "d": 2020.8333333332848,
      "v": 85
    },
    {
      "midi": 58,
      "hit": false,
      "t": 255989.58333333212,
      "d": 2145.833333333285,
      "v": 78
    },
    {
      "midi": 67,
      "hit": false,
      "t": 255999.99999999878,
      "d": 2229.166666666628,
      "v": 85
    },
    {
      "midi": 64,
      "hit": false,
      "t": 256020.8333333321,
      "d": 2124.999999999971,
      "v": 103
    },
    {
      "midi": 36,
      "hit": false,
      "t": 257031.24999999875,
      "d": 750,
      "v": 81
    },
    {
      "midi": 48,
      "hit": false,
      "t": 257614.5833333321,
      "d": 1187.499999999971,
      "v": 84
    },
    {
      "midi": 36,
      "hit": false,
      "t": 257968.74999999875,
      "d": 302.08333333331393,
      "v": 85
    },
    {
      "midi": 62,
      "hit": false,
      "t": 258583.33333333206,
      "d": 166.66666666665697,
      "v": 85
    },
    {
      "midi": 64,
      "hit": false,
      "t": 258583.33333333206,
      "d": 187.5,
      "v": 85
    },
    {
      "midi": 67,
      "hit": false,
      "t": 258583.33333333206,
      "d": 291.66666666665697,
      "v": 85
    },
    {
      "midi": 58,
      "hit": false,
      "t": 258593.74999999872,
      "d": 197.91666666668607,
      "v": 74
    },
    {
      "midi": 48,
      "hit": false,
      "t": 258968.74999999872,
      "d": 1062.500000000029,
      "v": 85
    },
    {
      "midi": 67,
      "hit": false,
      "t": 259302.08333333206,
      "d": 489.58333333337214,
      "v": 85
    },
    {
      "midi": 62,
      "hit": false,
      "t": 259322.9166666654,
      "d": 187.5,
      "v": 85
    },
    {
      "midi": 64,
      "hit": false,
      "t": 259322.9166666654,
      "d": 395.83333333334303,
      "v": 85
    },
    {
      "midi": 58,
      "hit": false,
      "t": 259322.9166666654,
      "d": 447.91666666668607,
      "v": 74
    },
    {
      "midi": 67,
      "hit": false,
      "t": 260010.41666666543,
      "d": 2677.083333333285,
      "v": 85
    },
    {
      "midi": 58,
      "hit": false,
      "t": 260020.8333333321,
      "d": 177.08333333331393,
      "v": 65
    },
    {
      "midi": 63,
      "hit": false,
      "t": 260031.24999999875,
      "d": 468.75,
      "v": 85
    },
    {
      "midi": 41,
      "hit": false,
      "t": 260031.24999999875,
      "d": 1750,
      "v": 85
    },
    {
      "midi": 53,
      "hit": false,
      "t": 260041.6666666654,
      "d": 1812.5,
      "v": 85
    },
    {
      "midi": 58,
      "hit": false,
      "t": 260697.9166666654,
      "d": 354.16666666665697,
      "v": 84
    },
    {
      "midi": 63,
      "hit": false,
      "t": 261083.33333333206,
      "d": 1687.499999999971,
      "v": 74
    },
    {
      "midi": 58,
      "hit": false,
      "t": 261635.4166666654,
      "d": 343.75,
      "v": 72
    },
    {
      "midi": 41,
      "hit": false,
      "t": 262020.83333333206,
      "d": 1208.333333333343,
      "v": 85
    },
    {
      "midi": 57,
      "hit": false,
      "t": 262031.24999999872,
      "d": 906.25,
      "v": 85
    },
    {
      "midi": 53,
      "hit": false,
      "t": 262677.08333333203,
      "d": 489.58333333337214,
      "v": 92
    },
    {
      "midi": 63,
      "hit": false,
      "t": 263020.83333333203,
      "d": 843.7500000000582,
      "v": 84
    },
    {
      "midi": 66,
      "hit": false,
      "t": 263031.2499999987,
      "d": 739.5833333333721,
      "v": 85
    },
    {
      "midi": 57,
      "hit": false,
      "t": 263031.2499999987,
      "d": 1729.166666666686,
      "v": 85
    },
    {
      "midi": 53,
      "hit": false,
      "t": 263604.1666666654,
      "d": 312.5,
      "v": 64
    },
    {
      "midi": 65,
      "hit": false,
      "t": 276812.4999999987,
      "d": 3437.5000000001164,
      "v": 85
    },
    {
      "midi": 69,
      "hit": false,
      "t": 276822.9166666654,
      "d": 3416.6666666667443,
      "v": 85
    },
    {
      "midi": 62,
      "hit": false,
      "t": 276822.9166666654,
      "d": 3427.0833333334303,
      "v": 85
    },
    {
      "midi": 34,
      "hit": false,
      "t": 276833.3333333321,
      "d": 3406.250000000058,
      "v": 85
    },
    {
      "midi": 72,
      "hit": false,
      "t": 276833.3333333321,
      "d": 3406.250000000058,
      "v": 85
    },
    {
      "midi": 46,
      "hit": false,
      "t": 276843.7499999988,
      "d": 3406.250000000058,
      "v": 72
    },
    {
      "midi": 77,
      "hit": false,
      "t": 277395.8333333321,
      "d": 197.91666666668607,
      "v": 85
    },
    {
      "midi": 77,
      "hit": false,
      "t": 277749.9999999988,
      "d": 302.08333333331393,
      "v": 81
    },
    {
      "midi": 79,
      "hit": false,
      "t": 278062.4999999988,
      "d": 177.08333333331393,
      "v": 85
    },
    {
      "midi": 79,
      "hit": false,
      "t": 278437.4999999988,
      "d": 260.41666666668607,
      "v": 85
    },
    {
      "midi": 84,
      "hit": false,
      "t": 278708.33333333215,
      "d": 343.75,
      "v": 57
    },
    {
      "midi": 81,
      "hit": false,
      "t": 279031.24999999884,
      "d": 1489.583333333314,
      "v": 78
    }
  ]
}