{
  "jsonPath": "Unknown/Unknown/Richard Rogers/blue-moon.json",
  "path": "Unknown\\Unknown\\Richard Rogers\\BLUE MOON.mid",
  "name": "BLUE MOON",
  "difficulty": "Intermediate",
  "bpm": 100,
  "notes": [
    {
      "midi": 67,
      "hit": false,
      "t": 1800,
      "d": 600,
      "v": 69
    },
    {
      "midi": 67,
      "hit": false,
      "t": 2400,
      "d": 1200,
      "v": 77
    },
    {
      "midi": 45,
      "hit": false,
      "t": 3600,
      "d": 1200,
      "v": 76
    },
    {
      "midi": 50,
      "hit": false,
      "t": 4800,
      "d": 300,
      "v": 80
    },
    {
      "midi": 65,
      "hit": false,
      "t": 5100,
      "d": 300,
      "v": 71
    },
    {
      "midi": 67,
      "hit": false,
      "t": 5400,
      "d": 300,
      "v": 78
    },
    {
      "midi": 69,
      "hit": false,
      "t": 5700,
      "d": 300,
      "v": 82
    },
    {
      "midi": 67,
      "hit": false,
      "t": 6000,
      "d": 300,
      "v": 70
    },
    {
      "midi": 67,
      "hit": false,
      "t": 6300,
      "d": 600,
      "v": 76
    },
    {
      "midi": 65,
      "hit": false,
      "t": 6900,
      "d": 300,
      "v": 72
    },
    {
      "midi": 67,
      "hit": false,
      "t": 7200,
      "d": 1200,
      "v": 78
    },
    {
      "midi": 45,
      "hit": false,
      "t": 8400,
      "d": 1200,
      "v": 73
    },
    {
      "midi": 50,
      "hit": false,
      "t": 9600,
      "d": 300,
      "v": 81
    },
    {
      "midi": 62,
      "hit": false,
      "t": 9900,
      "d": 300,
      "v": 66
    },
    {
      "midi": 64,
      "hit": false,
      "t": 10200,
      "d": 300,
      "v": 83
    },
    {
      "midi": 65,
      "hit": false,
      "t": 10500,
      "d": 300,
      "v": 77
    },
    {
      "midi": 64,
      "hit": false,
      "t": 10800,
      "d": 300,
      "v": 74
    },
    {
      "midi": 64,
      "hit": false,
      "t": 11100,
      "d": 600,
      "v": 75
    },
    {
      "midi": 62,
      "hit": false,
      "t": 11700,
      "d": 300,
      "v": 68
    },
    {
      "midi": 64,
      "hit": false,
      "t": 12000,
      "d": 1200,
      "v": 78
    },
    {
      "midi": 45,
      "hit": false,
      "t": 13200,
      "d": 1200,
      "v": 70
    },
    {
      "midi": 50,
      "hit": false,
      "t": 14400,
      "d": 300,
      "v": 80
    },
    {
      "midi": 60,
      "hit": false,
      "t": 14700,
      "d": 300,
      "v": 70
    },
    {
      "midi": 62,
      "hit": false,
      "t": 15000,
      "d": 300,
      "v": 85
    },
    {
      "midi": 64,
      "hit": false,
      "t": 15300,
      "d": 300,
      "v": 83
    },
    {
      "midi": 60,
      "hit": false,
      "t": 15600,
      "d": 300,
      "v": 66
    },
    {
      "midi": 60,
      "hit": false,
      "t": 15900,
      "d": 600,
      "v": 76
    },
    {
      "midi": 57,
      "hit": false,
      "t": 16500,
      "d": 300,
      "v": 75
    },
    {
      "midi": 60,
      "hit": false,
      "t": 16800,
      "d": 1200,
      "v": 85
    },
    {
      "midi": 45,
      "hit": false,
      "t": 18000,
      "d": 1200,
      "v": 77
    },
    {
      "midi": 50,
      "hit": false,
      "t": 19200,
      "d": 1200,
      "v": 79
    },
    {
      "midi": 43,
      "hit": false,
      "t": 20400,
      "d": 600,
      "v": 65
    },
    {
      "midi": 67,
      "hit": false,
      "t": 21000,
      "d": 600,
      "v": 68
    },
    {
      "midi": 67,
      "hit": false,
      "t": 21600,
      "d": 1200,
      "v": 73
    },
    {
      "midi": 45,
      "hit": false,
      "t": 22800,
      "d": 1200,
      "v": 77
    },
    {
      "midi": 50,
      "hit": false,
      "t": 24000,
      "d": 300,
      "v": 81
    },
    {
      "midi": 65,
      "hit": false,
      "t": 24300,
      "d": 300,
      "v": 71
    },
    {
      "midi": 67,
      "hit": false,
      "t": 24600,
      "d": 300,
      "v": 80
    },
    {
      "midi": 69,
      "hit": false,
      "t": 24900,
      "d": 300,
      "v": 84
    },
    {
      "midi": 67,
      "hit": false,
      "t": 25200,
      "d": 300,
      "v": 70
    },
    {
      "midi": 67,
      "hit": false,
      "t": 25500,
      "d": 600,
      "v": 72
    },
    {
      "midi": 65,
      "hit": false,
      "t": 26100,
      "d": 300,
      "v": 73
    },
    {
      "midi": 67,
      "hit": false,
      "t": 26400,
      "d": 600,
      "v": 80
    },
    {
      "midi": 67,
      "hit": false,
      "t": 27000,
      "d": 600,
      "v": 76
    },
    {
      "midi": 45,
      "hit": false,
      "t": 27600,
      "d": 1200,
      "v": 78
    },
    {
      "midi": 50,
      "hit": false,
      "t": 28800,
      "d": 300,
      "v": 75
    },
    {
      "midi": 62,
      "hit": false,
      "t": 29100,
      "d": 300,
      "v": 68
    },
    {
      "midi": 64,
      "hit": false,
      "t": 29400,
      "d": 300,
      "v": 81
    },
    {
      "midi": 65,
      "hit": false,
      "t": 29700,
      "d": 300,
      "v": 77
    },
    {
      "midi": 64,
      "hit": false,
      "t": 30000,
      "d": 300,
      "v": 69
    },
    {
      "midi": 64,
      "hit": false,
      "t": 30300,
      "d": 600,
      "v": 77
    },
    {
      "midi": 62,
      "hit": false,
      "t": 30900,
      "d": 300,
      "v": 77
    },
    {
      "midi": 64,
      "hit": false,
      "t": 31200,
      "d": 600,
      "v": 83
    },
    {
      "midi": 64,
      "hit": false,
      "t": 31800,
      "d": 600,
      "v": 80
    },
    {
      "midi": 45,
      "hit": false,
      "t": 32400,
      "d": 1200,
      "v": 72
    },
    {
      "midi": 50,
      "hit": false,
      "t": 33600,
      "d": 300,
      "v": 74
    },
    {
      "midi": 60,
      "hit": false,
      "t": 33900,
      "d": 300,
      "v": 68
    },
    {
      "midi": 62,
      "hit": false,
      "t": 34200,
      "d": 300,
      "v": 78
    },
    {
      "midi": 64,
      "hit": false,
      "t": 34500,
      "d": 300,
      "v": 80
    },
    {
      "midi": 60,
      "hit": false,
      "t": 34800,
      "d": 300,
      "v": 70
    },
    {
      "midi": 60,
      "hit": false,
      "t": 35100,
      "d": 600,
      "v": 73
    },
    {
      "midi": 57,
      "hit": false,
      "t": 35700,
      "d": 300,
      "v": 74
    },
    {
      "midi": 60,
      "hit": false,
      "t": 36000,
      "d": 600,
      "v": 83
    },
    {
      "midi": 60,
      "hit": false,
      "t": 36600,
      "d": 600,
      "v": 74
    },
    {
      "midi": 48,
      "hit": false,
      "t": 37200,
      "d": 1200,
      "v": 77
    },
    {
      "midi": 50,
      "hit": false,
      "t": 38400,
      "d": 1200,
      "v": 80
    },
    {
      "midi": 52,
      "hit": false,
      "t": 39600,
      "d": 300,
      "v": 77
    },
    {
      "midi": 60,
      "hit": false,
      "t": 39900,
      "d": 300,
      "v": 70
    },
    {
      "midi": 60,
      "hit": false,
      "t": 40200,
      "d": 300,
      "v": 72
    },
    {
      "midi": 60,
      "hit": false,
      "t": 40500,
      "d": 300,
      "v": 76
    },
    {
      "midi": 62,
      "hit": false,
      "t": 40800,
      "d": 300,
      "v": 82
    },
    {
      "midi": 62,
      "hit": false,
      "t": 41100,
      "d": 300,
      "v": 78
    },
    {
      "midi": 62,
      "hit": false,
      "t": 41400,
      "d": 300,
      "v": 74
    },
    {
      "midi": 62,
      "hit": false,
      "t": 41700,
      "d": 300,
      "v": 80
    },
    {
      "midi": 64,
      "hit": false,
      "t": 42000,
      "d": 600,
      "v": 84
    },
    {
      "midi": 64,
      "hit": false,
      "t": 42600,
      "d": 600,
      "v": 82
    },
    {
      "midi": 60,
      "hit": false,
      "t": 43200,
      "d": 600,
      "v": 71
    },
    {
      "midi": 60,
      "hit": false,
      "t": 43800,
      "d": 600,
      "v": 77
    },
    {
      "midi": 55,
      "hit": false,
      "t": 44400,
      "d": 300,
      "v": 77
    },
    {
      "midi": 60,
      "hit": false,
      "t": 44700,
      "d": 300,
      "v": 70
    },
    {
      "midi": 60,
      "hit": false,
      "t": 45000,
      "d": 300,
      "v": 80
    },
    {
      "midi": 60,
      "hit": false,
      "t": 45300,
      "d": 300,
      "v": 78
    },
    {
      "midi": 62,
      "hit": false,
      "t": 45600,
      "d": 300,
      "v": 82
    },
    {
      "midi": 62,
      "hit": false,
      "t": 45900,
      "d": 300,
      "v": 80
    },
    {
      "midi": 62,
      "hit": false,
      "t": 46200,
      "d": 300,
      "v": 77
    },
    {
      "midi": 62,
      "hit": false,
      "t": 46500,
      "d": 300,
      "v": 74
    },
    {
      "midi": 64,
      "hit": false,
      "t": 46800,
      "d": 600,
      "v": 81
    },
    {
      "midi": 64,
      "hit": false,
      "t": 47400,
      "d": 600,
      "v": 75
    },
    {
      "midi": 52,
      "hit": false,
      "t": 48000,
      "d": 1200,
      "v": 72
    },
    {
      "midi": 60,
      "hit": false,
      "t": 48000,
      "d": 1200,
      "v": 70
    },
    {
      "midi": 55,
      "hit": false,
      "t": 49200,
      "d": 300,
      "v": 79
    },
    {
      "midi": 60,
      "hit": false,
      "t": 49500,
      "d": 300,
      "v": 68
    },
    {
      "midi": 60,
      "hit": false,
      "t": 49800,
      "d": 300,
      "v": 75
    },
    {
      "midi": 60,
      "hit": false,
      "t": 50100,
      "d": 300,
      "v": 82
    },
    {
      "midi": 60,
      "hit": false,
      "t": 50400,
      "d": 300,
      "v": 78
    },
    {
      "midi": 60,
      "hit": false,
      "t": 50700,
      "d": 300,
      "v": 73
    },
    {
      "midi": 60,
      "hit": false,
      "t": 51000,
      "d": 300,
      "v": 77
    },
    {
      "midi": 60,
      "hit": false,
      "t": 51300,
      "d": 300,
      "v": 74
    },
    {
      "midi": 62,
      "hit": false,
      "t": 51600,
      "d": 600,
      "v": 82
    },
    {
      "midi": 62,
      "hit": false,
      "t": 52200,
      "d": 600,
      "v": 77
    },
    {
      "midi": 58,
      "hit": false,
      "t": 52800,
      "d": 600,
      "v": 72
    },
    {
      "midi": 58,
      "hit": false,
      "t": 53400,
      "d": 600,
      "v": 76
    },
    {
      "midi": 51,
      "hit": false,
      "t": 54000,
      "d": 300,
      "v": 75
    },
    {
      "midi": 58,
      "hit": false,
      "t": 54300,
      "d": 300,
      "v": 65
    },
    {
      "midi": 58,
      "hit": false,
      "t": 54600,
      "d": 300,
      "v": 75
    },
    {
      "midi": 58,
      "hit": false,
      "t": 54900,
      "d": 300,
      "v": 79
    },
    {
      "midi": 59,
      "hit": false,
      "t": 55200,
      "d": 300,
      "v": 84
    },
    {
      "midi": 59,
      "hit": false,
      "t": 55500,
      "d": 300,
      "v": 75
    },
    {
      "midi": 59,
      "hit": false,
      "t": 55800,
      "d": 300,
      "v": 75
    },
    {
      "midi": 59,
      "hit": false,
      "t": 56100,
      "d": 300,
      "v": 76
    },
    {
      "midi": 62,
      "hit": false,
      "t": 56400,
      "d": 600,
      "v": 79
    },
    {
      "midi": 62,
      "hit": false,
      "t": 57000,
      "d": 600,
      "v": 81
    },
    {
      "midi": 67,
      "hit": false,
      "t": 57600,
      "d": 600,
      "v": 86
    },
    {
      "midi": 53,
      "hit": false,
      "t": 58200,
      "d": 600,
      "v": 75
    },
    {
      "midi": 52,
      "hit": false,
      "t": 58800,
      "d": 600,
      "v": 77
    },
    {
      "midi": 50,
      "hit": false,
      "t": 59400,
      "d": 600,
      "v": 73
    },
    {
      "midi": 67,
      "hit": false,
      "t": 59400,
      "d": 600,
      "v": 84
    },
    {
      "midi": 67,
      "hit": false,
      "t": 60000,
      "d": 1200,
      "v": 78
    },
    {
      "midi": 45,
      "hit": false,
      "t": 61200,
      "d": 1200,
      "v": 74
    },
    {
      "midi": 50,
      "hit": false,
      "t": 62400,
      "d": 300,
      "v": 82
    },
    {
      "midi": 65,
      "hit": false,
      "t": 62700,
      "d": 300,
      "v": 72
    },
    {
      "midi": 67,
      "hit": false,
      "t": 63000,
      "d": 300,
      "v": 75
    },
    {
      "midi": 69,
      "hit": false,
      "t": 63300,
      "d": 300,
      "v": 76
    },
    {
      "midi": 67,
      "hit": false,
      "t": 63600,
      "d": 300,
      "v": 77
    },
    {
      "midi": 67,
      "hit": false,
      "t": 63900,
      "d": 600,
      "v": 74
    },
    {
      "midi": 65,
      "hit": false,
      "t": 64500,
      "d": 300,
      "v": 71
    },
    {
      "midi": 67,
      "hit": false,
      "t": 64800,
      "d": 1200,
      "v": 78
    },
    {
      "midi": 45,
      "hit": false,
      "t": 66000,
      "d": 1200,
      "v": 77
    },
    {
      "midi": 50,
      "hit": false,
      "t": 67200,
      "d": 300,
      "v": 82
    },
    {
      "midi": 62,
      "hit": false,
      "t": 67500,
      "d": 300,
      "v": 66
    },
    {
      "midi": 64,
      "hit": false,
      "t": 67800,
      "d": 300,
      "v": 81
    },
    {
      "midi": 65,
      "hit": false,
      "t": 68100,
      "d": 300,
      "v": 82
    },
    {
      "midi": 64,
      "hit": false,
      "t": 68400,
      "d": 300,
      "v": 72
    },
    {
      "midi": 64,
      "hit": false,
      "t": 68700,
      "d": 600,
      "v": 77
    },
    {
      "midi": 62,
      "hit": false,
      "t": 69300,
      "d": 300,
      "v": 73
    },
    {
      "midi": 64,
      "hit": false,
      "t": 69600,
      "d": 1200,
      "v": 79
    },
    {
      "midi": 45,
      "hit": false,
      "t": 70800,
      "d": 1200,
      "v": 76
    },
    {
      "midi": 50,
      "hit": false,
      "t": 72000,
      "d": 300,
      "v": 82
    },
    {
      "midi": 60,
      "hit": false,
      "t": 72300,
      "d": 300,
      "v": 73
    },
    {
      "midi": 62,
      "hit": false,
      "t": 72600,
      "d": 300,
      "v": 82
    },
    {
      "midi": 64,
      "hit": false,
      "t": 72900,
      "d": 300,
      "v": 78
    },
    {
      "midi": 60,
      "hit": false,
      "t": 73200,
      "d": 300,
      "v": 69
    },
    {
      "midi": 60,
      "hit": false,
      "t": 73500,
      "d": 300,
      "v": 74
    },
    {
      "midi": 60,
      "hit": false,
      "t": 73800,
      "d": 600,
      "v": 77
    },
    {
      "midi": 60,
      "hit": false,
      "t": 74400,
      "d": 600,
      "v": 76
    },
    {
      "midi": 45,
      "hit": false,
      "t": 75000,
      "d": 600,
      "v": 70
    },
    {
      "midi": 43,
      "hit": false,
      "t": 75600,
      "d": 600,
      "v": 73
    },
    {
      "midi": 40,
      "hit": false,
      "t": 76200,
      "d": 600,
      "v": 75
    },
    {
      "midi": 36,
      "hit": false,
      "t": 76800,
      "d": 1200,
      "v": 70
    },
    {
      "midi": 36,
      "hit": false,
      "t": 78000,
      "d": 1200,
      "v": 67
    },
    {
      "midi": 64,
      "hit": false,
      "t": 78000,
      "d": 1200,
      "v": 68
    },
    {
      "midi": 72,
      "hit": false,
      "t": 78000,
      "d": 1200,
      "v": 68
    }
  ]
}