{
  "jsonPath": "Pop/Dance Pop/Britney Spears/born-to-make-you-happy.json",
  "path": "Pop\\Dance Pop\\Britney Spears\\Born To Make You Happy.mid",
  "name": "Born To Make You Happy",
  "difficulty": "Advanced",
  "bpm": 88.00118508262578,
  "notes": [
    {
      "midi": 59,
      "hit": false,
      "t": 2045.427,
      "d": 255.6783750000002,
      "v": 103
    },
    {
      "midi": 61,
      "hit": false,
      "t": 2386.3315000000002,
      "d": 251.41706875,
      "v": 95
    },
    {
      "midi": 59,
      "hit": false,
      "t": 2727.236,
      "d": 1096.576141666666,
      "v": 78
    },
    {
      "midi": 62,
      "hit": false,
      "t": 2727.2360000000003,
      "d": 348.0066770833332,
      "v": 103
    },
    {
      "midi": 62,
      "hit": false,
      "t": 2730.076870833333,
      "d": 1079.5309166666661,
      "v": 96
    },
    {
      "midi": 47,
      "hit": false,
      "t": 2737.179047916666,
      "d": 1200.2679270833328,
      "v": 97
    },
    {
      "midi": 59,
      "hit": false,
      "t": 3231.4905729166667,
      "d": 244.31489166666688,
      "v": 107
    },
    {
      "midi": 61,
      "hit": false,
      "t": 3575.2359437500004,
      "d": 223.00836041666662,
      "v": 101
    },
    {
      "midi": 62,
      "hit": false,
      "t": 3906.1973958333338,
      "d": 944.5895520833337,
      "v": 103
    },
    {
      "midi": 55,
      "hit": false,
      "t": 3920.401749999999,
      "d": 1018.4521937499994,
      "v": 79
    },
    {
      "midi": 59,
      "hit": false,
      "t": 3920.401749999999,
      "d": 1053.963079166666,
      "v": 101
    },
    {
      "midi": 43,
      "hit": false,
      "t": 3920.401749999999,
      "d": 1551.1154749999987,
      "v": 98
    },
    {
      "midi": 62,
      "hit": false,
      "t": 4950.217427083334,
      "d": 369.313208333333,
      "v": 114
    },
    {
      "midi": 59,
      "hit": false,
      "t": 5113.567499999998,
      "d": 1664.750308333334,
      "v": 81
    },
    {
      "midi": 62,
      "hit": false,
      "t": 5447.369822916667,
      "d": 411.92627083333355,
      "v": 108
    },
    {
      "midi": 62,
      "hit": false,
      "t": 5454.471999999998,
      "d": 468.7436875000003,
      "v": 105
    },
    {
      "midi": 38,
      "hit": false,
      "t": 5454.471999999998,
      "d": 1295.437100000001,
      "v": 98
    },
    {
      "midi": 62,
      "hit": false,
      "t": 5958.726572916667,
      "d": 291.1892604166669,
      "v": 106
    },
    {
      "midi": 62,
      "hit": false,
      "t": 5982.873974999999,
      "d": 298.29143750000003,
      "v": 105
    },
    {
      "midi": 61,
      "hit": false,
      "t": 6320.9376041666665,
      "d": 255.67837500000041,
      "v": 114
    },
    {
      "midi": 61,
      "hit": false,
      "t": 6330.880652083332,
      "d": 369.313208333333,
      "v": 108
    },
    {
      "midi": 61,
      "hit": false,
      "t": 6664.682975000001,
      "d": 585.2193916666665,
      "v": 105
    },
    {
      "midi": 45,
      "hit": false,
      "t": 6813.828693749999,
      "d": 1356.5158229166673,
      "v": 103
    },
    {
      "midi": 61,
      "hit": false,
      "t": 6818.089999999999,
      "d": 1011.3500166666672,
      "v": 81
    },
    {
      "midi": 64,
      "hit": false,
      "t": 6818.089999999999,
      "d": 1352.2545166666669,
      "v": 113
    },
    {
      "midi": 59,
      "hit": false,
      "t": 7521.20553125,
      "d": 223.00836041666662,
      "v": 69
    },
    {
      "midi": 61,
      "hit": false,
      "t": 7840.8035,
      "d": 201.70182916666636,
      "v": 106
    },
    {
      "midi": 59,
      "hit": false,
      "t": 8181.708,
      "d": 457.3802041666668,
      "v": 78
    },
    {
      "midi": 62,
      "hit": false,
      "t": 8184.548870833333,
      "d": 838.0568958333324,
      "v": 96
    },
    {
      "midi": 47,
      "hit": false,
      "t": 8191.651047916666,
      "d": 1200.2679270833341,
      "v": 97
    },
    {
      "midi": 59,
      "hit": false,
      "t": 8685.962572916666,
      "d": 251.4170687500009,
      "v": 120
    },
    {
      "midi": 61,
      "hit": false,
      "t": 9029.70794375,
      "d": 248.5761979166673,
      "v": 115
    },
    {
      "midi": 62,
      "hit": false,
      "t": 9370.61244375,
      "d": 1011.3500166666672,
      "v": 98
    },
    {
      "midi": 55,
      "hit": false,
      "t": 9370.61244375,
      "d": 1018.4521937500012,
      "v": 79
    },
    {
      "midi": 59,
      "hit": false,
      "t": 9370.61244375,
      "d": 1053.9630791666677,
      "v": 101
    },
    {
      "midi": 43,
      "hit": false,
      "t": 9370.61244375,
      "d": 1551.1154750000005,
      "v": 98
    },
    {
      "midi": 62,
      "hit": false,
      "t": 10596.448208333335,
      "d": 116.47570416666713,
      "v": 104
    },
    {
      "midi": 61,
      "hit": false,
      "t": 10748.434797916669,
      "d": 92.32830208333326,
      "v": 97
    },
    {
      "midi": 62,
      "hit": false,
      "t": 10908.944000000001,
      "d": 464.4823812499999,
      "v": 117
    },
    {
      "midi": 38,
      "hit": false,
      "t": 10908.944000000001,
      "d": 1295.437100000001,
      "v": 100
    },
    {
      "midi": 59,
      "hit": false,
      "t": 10908.944000000001,
      "d": 1664.7503083333359,
      "v": 81
    },
    {
      "midi": 62,
      "hit": false,
      "t": 11437.345975000002,
      "d": 298.29143750000003,
      "v": 105
    },
    {
      "midi": 61,
      "hit": false,
      "t": 11785.352652083335,
      "d": 305.39361458333406,
      "v": 115
    },
    {
      "midi": 61,
      "hit": false,
      "t": 12102.109750000001,
      "d": 1181.8022666666675,
      "v": 105
    },
    {
      "midi": 45,
      "hit": false,
      "t": 12268.300693750003,
      "d": 1356.5158229166645,
      "v": 103
    },
    {
      "midi": 64,
      "hit": false,
      "t": 12272.562000000004,
      "d": 1352.2545166666641,
      "v": 105
    },
    {
      "midi": 59,
      "hit": false,
      "t": 12975.677531250003,
      "d": 223.00836041666662,
      "v": 93
    },
    {
      "midi": 61,
      "hit": false,
      "t": 13295.275500000002,
      "d": 159.08876666666583,
      "v": 106
    },
    {
      "midi": 59,
      "hit": false,
      "t": 13636.18,
      "d": 457.3802041666677,
      "v": 78
    },
    {
      "midi": 62,
      "hit": false,
      "t": 13639.020870833334,
      "d": 838.0568958333333,
      "v": 104
    },
    {
      "midi": 47,
      "hit": false,
      "t": 13646.123047916668,
      "d": 1200.2679270833341,
      "v": 97
    },
    {
      "midi": 59,
      "hit": false,
      "t": 14140.434572916667,
      "d": 251.4170687500009,
      "v": 120
    },
    {
      "midi": 61,
      "hit": false,
      "t": 14484.179943750001,
      "d": 248.5761979166673,
      "v": 115
    },
    {
      "midi": 62,
      "hit": false,
      "t": 14825.084443750002,
      "d": 1011.3500166666672,
      "v": 98
    },
    {
      "midi": 55,
      "hit": false,
      "t": 14825.084443750002,
      "d": 1018.4521937500012,
      "v": 79
    },
    {
      "midi": 59,
      "hit": false,
      "t": 14825.084443750002,
      "d": 1053.9630791666677,
      "v": 101
    },
    {
      "midi": 43,
      "hit": false,
      "t": 14825.084443750002,
      "d": 1551.1154750000005,
      "v": 98
    },
    {
      "midi": 62,
      "hit": false,
      "t": 16046.658902083336,
      "d": 215.9061833333326,
      "v": 102
    },
    {
      "midi": 62,
      "hit": false,
      "t": 16363.416000000003,
      "d": 464.48238124999807,
      "v": 117
    },
    {
      "midi": 38,
      "hit": false,
      "t": 16363.416000000003,
      "d": 1295.4370999999974,
      "v": 100
    },
    {
      "midi": 66,
      "hit": false,
      "t": 16363.416000000003,
      "d": 1352.2545166666623,
      "v": 102
    },
    {
      "midi": 62,
      "hit": false,
      "t": 16891.817975,
      "d": 298.29143750000003,
      "v": 105
    },
    {
      "midi": 61,
      "hit": false,
      "t": 17239.824652083335,
      "d": 258.5192458333331,
      "v": 115
    },
    {
      "midi": 61,
      "hit": false,
      "t": 17556.58175,
      "d": 1352.2545166666605,
      "v": 105
    },
    {
      "midi": 45,
      "hit": false,
      "t": 17722.772693749997,
      "d": 1356.5158229166627,
      "v": 103
    },
    {
      "midi": 64,
      "hit": false,
      "t": 17727.033999999996,
      "d": 1352.2545166666641,
      "v": 105
    },
    {
      "midi": 47,
      "hit": false,
      "t": 19090.652000000002,
      "d": 1257.085343750001,
      "v": 105
    },
    {
      "midi": 59,
      "hit": false,
      "t": 19438.658677083335,
      "d": 869.3064750000012,
      "v": 101
    },
    {
      "midi": 40,
      "hit": false,
      "t": 20450.008693750002,
      "d": 1214.4722812500004,
      "v": 108
    },
    {
      "midi": 52,
      "hit": false,
      "t": 20798.015370833335,
      "d": 947.4304229166664,
      "v": 103
    },
    {
      "midi": 43,
      "hit": false,
      "t": 21806.52451666667,
      "d": 1200.2679270833323,
      "v": 105
    },
    {
      "midi": 55,
      "hit": false,
      "t": 22161.633370833333,
      "d": 1001.4069687500014,
      "v": 101
    },
    {
      "midi": 62,
      "hit": false,
      "t": 22516.742224999998,
      "d": 322.4388395833339,
      "v": 103
    },
    {
      "midi": 61,
      "hit": false,
      "t": 22847.703677083333,
      "d": 674.7068229166653,
      "v": 99
    },
    {
      "midi": 42,
      "hit": false,
      "t": 23191.449047916667,
      "d": 1207.370104166661,
      "v": 106
    },
    {
      "midi": 54,
      "hit": false,
      "t": 23515.308322916666,
      "d": 355.10885416666497,
      "v": 103
    },
    {
      "midi": 58,
      "hit": false,
      "t": 23859.053693749996,
      "d": 369.313208333333,
      "v": 103
    },
    {
      "midi": 59,
      "hit": false,
      "t": 24225.526031249996,
      "d": 954.5325999999986,
      "v": 95
    },
    {
      "midi": 47,
      "hit": false,
      "t": 24545.123999999996,
      "d": 1257.0853437499973,
      "v": 105
    },
    {
      "midi": 54,
      "hit": false,
      "t": 25208.467339583327,
      "d": 329.5410166666661,
      "v": 84
    },
    {
      "midi": 55,
      "hit": false,
      "t": 25560.73532291666,
      "d": 759.9329479166663,
      "v": 88
    },
    {
      "midi": 40,
      "hit": false,
      "t": 25904.480693749992,
      "d": 1214.4722812500004,
      "v": 108
    },
    {
      "midi": 52,
      "hit": false,
      "t": 26252.487370833325,
      "d": 947.4304229166664,
      "v": 103
    },
    {
      "midi": 43,
      "hit": false,
      "t": 27260.99651666666,
      "d": 1200.2679270833323,
      "v": 105
    },
    {
      "midi": 55,
      "hit": false,
      "t": 27616.105370833324,
      "d": 1001.4069687500014,
      "v": 101
    },
    {
      "midi": 59,
      "hit": false,
      "t": 27954.16899999999,
      "d": 599.4237458333337,
      "v": 99
    },
    {
      "midi": 61,
      "hit": false,
      "t": 28635.977999999992,
      "d": 642.0368083333306,
      "v": 93
    },
    {
      "midi": 42,
      "hit": false,
      "t": 28645.921047916658,
      "d": 1207.3701041666645,
      "v": 106
    },
    {
      "midi": 54,
      "hit": false,
      "t": 28979.723370833322,
      "d": 350.8475479166664,
      "v": 101
    },
    {
      "midi": 58,
      "hit": false,
      "t": 29320.627870833323,
      "d": 596.5828750000001,
      "v": 99
    },
    {
      "midi": 47,
      "hit": false,
      "t": 29999.59599999999,
      "d": 1257.085343750001,
      "v": 105
    },
    {
      "midi": 59,
      "hit": false,
      "t": 30347.602677083323,
      "d": 869.3064750000012,
      "v": 101
    },
    {
      "midi": 40,
      "hit": false,
      "t": 31358.95269374999,
      "d": 1214.4722812500004,
      "v": 108
    },
    {
      "midi": 52,
      "hit": false,
      "t": 31706.959370833323,
      "d": 947.4304229166664,
      "v": 103
    },
    {
      "midi": 43,
      "hit": false,
      "t": 32715.468516666657,
      "d": 1200.2679270833287,
      "v": 105
    },
    {
      "midi": 55,
      "hit": false,
      "t": 33070.57737083332,
      "d": 1001.4069687499941,
      "v": 101
    },
    {
      "midi": 62,
      "hit": false,
      "t": 33425.68622499999,
      "d": 322.43883958333026,
      "v": 103
    },
    {
      "midi": 61,
      "hit": false,
      "t": 33756.64767708332,
      "d": 674.7068229166616,
      "v": 99
    },
    {
      "midi": 42,
      "hit": false,
      "t": 34100.393047916645,
      "d": 1207.3701041666573,
      "v": 106
    },
    {
      "midi": 54,
      "hit": false,
      "t": 34424.25232291665,
      "d": 355.10885416666133,
      "v": 103
    },
    {
      "midi": 58,
      "hit": false,
      "t": 34767.997693749974,
      "d": 369.31320833332575,
      "v": 103
    },
    {
      "midi": 59,
      "hit": false,
      "t": 35134.47003124997,
      "d": 954.5326000000059,
      "v": 95
    },
    {
      "midi": 47,
      "hit": false,
      "t": 35454.06799999997,
      "d": 1257.0853437500118,
      "v": 105
    },
    {
      "midi": 54,
      "hit": false,
      "t": 36117.41133958331,
      "d": 329.54101666666975,
      "v": 84
    },
    {
      "midi": 55,
      "hit": false,
      "t": 36469.67932291665,
      "d": 759.9329479166627,
      "v": 88
    },
    {
      "midi": 40,
      "hit": false,
      "t": 36813.424693749985,
      "d": 1214.4722812499967,
      "v": 108
    },
    {
      "midi": 52,
      "hit": false,
      "t": 37161.431370833314,
      "d": 947.4304229166664,
      "v": 103
    },
    {
      "midi": 43,
      "hit": false,
      "t": 38169.94051666665,
      "d": 1200.2679270833323,
      "v": 105
    },
    {
      "midi": 55,
      "hit": false,
      "t": 38525.049370833316,
      "d": 1001.4069687499941,
      "v": 101
    },
    {
      "midi": 59,
      "hit": false,
      "t": 38863.11299999998,
      "d": 599.42374583333,
      "v": 99
    },
    {
      "midi": 61,
      "hit": false,
      "t": 39544.92199999998,
      "d": 642.0368083333233,
      "v": 93
    },
    {
      "midi": 42,
      "hit": false,
      "t": 39554.86504791664,
      "d": 1207.3701041666645,
      "v": 106
    },
    {
      "midi": 54,
      "hit": false,
      "t": 39888.667370833304,
      "d": 350.8475479166664,
      "v": 101
    },
    {
      "midi": 58,
      "hit": false,
      "t": 40229.5718708333,
      "d": 596.5828750000001,
      "v": 99
    },
    {
      "midi": 62,
      "hit": false,
      "t": 40908.539999999964,
      "d": 2002.8139374999955,
      "v": 88
    },
    {
      "midi": 43,
      "hit": false,
      "t": 40908.539999999964,
      "d": 2403.3767249999873,
      "v": 105
    },
    {
      "midi": 59,
      "hit": false,
      "t": 41256.5466770833,
      "d": 2119.289641666648,
      "v": 92
    },
    {
      "midi": 55,
      "hit": false,
      "t": 42946.86482291663,
      "d": 340.9044999999969,
      "v": 93
    },
    {
      "midi": 54,
      "hit": false,
      "t": 43297.71237083329,
      "d": 279.82577708332974,
      "v": 86
    },
    {
      "midi": 40,
      "hit": false,
      "t": 43624.41251666661,
      "d": 1200.2679270833469,
      "v": 105
    },
    {
      "midi": 52,
      "hit": false,
      "t": 43628.673822916615,
      "d": 997.1456625000064,
      "v": 94
    },
    {
      "midi": 59,
      "hit": false,
      "t": 44672.693854166624,
      "d": 291.18926041667146,
      "v": 88
    },
    {
      "midi": 57,
      "hit": false,
      "t": 45006.496177083296,
      "d": 869.3064749999903,
      "v": 100
    },
    {
      "midi": 45,
      "hit": false,
      "t": 45009.337047916626,
      "d": 1207.3701041666573,
      "v": 106
    },
    {
      "midi": 61,
      "hit": false,
      "t": 45684.04387083329,
      "d": 571.0150374999939,
      "v": 84
    },
    {
      "midi": 47,
      "hit": false,
      "t": 46363.01199999995,
      "d": 1257.0853437500045,
      "v": 105
    },
    {
      "midi": 54,
      "hit": false,
      "t": 47026.355339583286,
      "d": 329.54101666666975,
      "v": 84
    },
    {
      "midi": 55,
      "hit": false,
      "t": 47378.623322916625,
      "d": 759.9329479166627,
      "v": 88
    },
    {
      "midi": 40,
      "hit": false,
      "t": 47722.36869374996,
      "d": 1214.4722812499967,
      "v": 108
    },
    {
      "midi": 52,
      "hit": false,
      "t": 48070.37537083329,
      "d": 947.4304229166664,
      "v": 103
    },
    {
      "midi": 43,
      "hit": false,
      "t": 49078.88451666662,
      "d": 1200.2679270833323,
      "v": 105
    },
    {
      "midi": 55,
      "hit": false,
      "t": 49433.99337083329,
      "d": 1001.4069687499941,
      "v": 101
    },
    {
      "midi": 59,
      "hit": false,
      "t": 49772.05699999996,
      "d": 599.42374583333,
      "v": 99
    },
    {
      "midi": 61,
      "hit": false,
      "t": 50453.86599999995,
      "d": 642.0368083333233,
      "v": 93
    },
    {
      "midi": 42,
      "hit": false,
      "t": 50463.80904791661,
      "d": 1207.3701041666645,
      "v": 106
    },
    {
      "midi": 54,
      "hit": false,
      "t": 50797.61137083328,
      "d": 350.8475479166664,
      "v": 101
    },
    {
      "midi": 58,
      "hit": false,
      "t": 51138.515870833275,
      "d": 596.5828750000001,
      "v": 99
    },
    {
      "midi": 59,
      "hit": false,
      "t": 51789.07529166666,
      "d": 847.999943750001,
      "v": 109
    },
    {
      "midi": 66,
      "hit": false,
      "t": 51789.07529166666,
      "d": 1068.1674333333358,
      "v": 110
    },
    {
      "midi": 62,
      "hit": false,
      "t": 51789.07529166666,
      "d": 1075.269610416668,
      "v": 106
    },
    {
      "midi": 62,
      "hit": false,
      "t": 52328.84075,
      "d": 166.19094374999986,
      "v": 1
    },
    {
      "midi": 66,
      "hit": false,
      "t": 52499.293000000005,
      "d": 1018.4521937500031,
      "v": 1
    },
    {
      "midi": 69,
      "hit": false,
      "t": 52499.293000000005,
      "d": 1018.4521937500031,
      "v": 1
    },
    {
      "midi": 59,
      "hit": false,
      "t": 52715.19918333333,
      "d": 142.043541666666,
      "v": 104
    },
    {
      "midi": 59,
      "hit": false,
      "t": 52992.18408958333,
      "d": 788.3416562499988,
      "v": 109
    },
    {
      "midi": 62,
      "hit": false,
      "t": 52992.18408958333,
      "d": 798.2847041666682,
      "v": 110
    },
    {
      "midi": 55,
      "hit": false,
      "t": 52992.18408958333,
      "d": 809.6481875000027,
      "v": 102
    },
    {
      "midi": 64,
      "hit": false,
      "t": 53522.00650000001,
      "d": 507.0954437499968,
      "v": 1
    },
    {
      "midi": 67,
      "hit": false,
      "t": 53522.00650000001,
      "d": 507.0954437499968,
      "v": 1
    },
    {
      "midi": 62,
      "hit": false,
      "t": 54033.36325000001,
      "d": 336.64319375000196,
      "v": 1
    },
    {
      "midi": 66,
      "hit": false,
      "t": 54033.36325000001,
      "d": 336.64319375000196,
      "v": 1
    },
    {
      "midi": 62,
      "hit": false,
      "t": 54196.713322916665,
      "d": 205.96313541666314,
      "v": 94
    },
    {
      "midi": 66,
      "hit": false,
      "t": 54374.26775000001,
      "d": 336.64319375000196,
      "v": 1
    },
    {
      "midi": 69,
      "hit": false,
      "t": 54374.26775000001,
      "d": 336.64319375000196,
      "v": 1
    },
    {
      "midi": 66,
      "hit": false,
      "t": 54537.61782291666,
      "d": 1107.939624999999,
      "v": 111
    },
    {
      "midi": 62,
      "hit": false,
      "t": 54540.45869374999,
      "d": 1110.7804958333363,
      "v": 110
    },
    {
      "midi": 57,
      "hit": false,
      "t": 54540.45869374999,
      "d": 1122.1439791666708,
      "v": 107
    },
    {
      "midi": 61,
      "hit": false,
      "t": 55911.178870833326,
      "d": 1122.1439791666635,
      "v": 112
    },
    {
      "midi": 64,
      "hit": false,
      "t": 55911.178870833326,
      "d": 1132.087027083333,
      "v": 109
    },
    {
      "midi": 57,
      "hit": false,
      "t": 55911.178870833326,
      "d": 1139.1892041666651,
      "v": 105
    },
    {
      "midi": 59,
      "hit": false,
      "t": 57243.547291666655,
      "d": 847.999943750001,
      "v": 109
    },
    {
      "midi": 66,
      "hit": false,
      "t": 57243.547291666655,
      "d": 1068.1674333333358,
      "v": 110
    },
    {
      "midi": 62,
      "hit": false,
      "t": 57243.547291666655,
      "d": 1075.269610416668,
      "v": 106
    },
    {
      "midi": 62,
      "hit": false,
      "t": 57783.31275000001,
      "d": 166.19094374999986,
      "v": 1
    },
    {
      "midi": 66,
      "hit": false,
      "t": 57953.765000000014,
      "d": 677.5476937499989,
      "v": 1
    },
    {
      "midi": 69,
      "hit": false,
      "t": 57953.765000000014,
      "d": 677.5476937499989,
      "v": 1
    },
    {
      "midi": 59,
      "hit": false,
      "t": 58169.671183333325,
      "d": 142.043541666666,
      "v": 104
    },
    {
      "midi": 59,
      "hit": false,
      "t": 58446.656089583325,
      "d": 788.3416562499988,
      "v": 109
    },
    {
      "midi": 62,
      "hit": false,
      "t": 58446.656089583325,
      "d": 798.2847041666682,
      "v": 110
    },
    {
      "midi": 55,
      "hit": false,
      "t": 58446.656089583325,
      "d": 809.6481875000027,
      "v": 102
    },
    {
      "midi": 67,
      "hit": false,
      "t": 58635.574000000015,
      "d": 336.64319375000196,
      "v": 1
    },
    {
      "midi": 71,
      "hit": false,
      "t": 58635.574000000015,
      "d": 336.64319375000196,
      "v": 1
    },
    {
      "midi": 66,
      "hit": false,
      "t": 58976.47850000002,
      "d": 166.19094374999986,
      "v": 1
    },
    {
      "midi": 69,
      "hit": false,
      "t": 58976.47850000002,
      "d": 166.19094374999986,
      "v": 1
    },
    {
      "midi": 64,
      "hit": false,
      "t": 59146.93075000002,
      "d": 336.64319375000196,
      "v": 1
    },
    {
      "midi": 67,
      "hit": false,
      "t": 59146.93075000002,
      "d": 336.64319375000196,
      "v": 1
    },
    {
      "midi": 62,
      "hit": false,
      "t": 59487.835250000026,
      "d": 677.5476937499989,
      "v": 1
    },
    {
      "midi": 66,
      "hit": false,
      "t": 59487.835250000026,
      "d": 677.5476937499989,
      "v": 1
    },
    {
      "midi": 62,
      "hit": false,
      "t": 59651.18532291666,
      "d": 205.96313541666314,
      "v": 94
    },
    {
      "midi": 66,
      "hit": false,
      "t": 59992.089822916656,
      "d": 1107.939624999999,
      "v": 111
    },
    {
      "midi": 62,
      "hit": false,
      "t": 59994.930693749986,
      "d": 1110.7804958333363,
      "v": 110
    },
    {
      "midi": 57,
      "hit": false,
      "t": 59994.930693749986,
      "d": 1122.1439791666708,
      "v": 107
    },
    {
      "midi": 57,
      "hit": false,
      "t": 61365.65087083332,
      "d": 656.2411625000022,
      "v": 105
    },
    {
      "midi": 61,
      "hit": false,
      "t": 61365.65087083332,
      "d": 1122.1439791666708,
      "v": 112
    },
    {
      "midi": 64,
      "hit": false,
      "t": 61365.65087083332,
      "d": 1132.0870270833402,
      "v": 109
    },
    {
      "midi": 70,
      "hit": false,
      "t": 62040.35769374999,
      "d": 511.3567500000063,
      "v": 81
    },
    {
      "midi": 58,
      "hit": false,
      "t": 62040.35769374999,
      "d": 514.1976208333363,
      "v": 106
    },
    {
      "midi": 59,
      "hit": false,
      "t": 62698.01929166666,
      "d": 847.999943750001,
      "v": 105
    },
    {
      "midi": 66,
      "hit": false,
      "t": 62698.01929166666,
      "d": 869.3064749999976,
      "v": 106
    },
    {
      "midi": 62,
      "hit": false,
      "t": 62698.01929166666,
      "d": 1075.269610416668,
      "v": 102
    },
    {
      "midi": 66,
      "hit": false,
      "t": 63602.83665208332,
      "d": 142.043541666666,
      "v": 104
    },
    {
      "midi": 59,
      "hit": false,
      "t": 63919.59374999999,
      "d": 1267.0283916666667,
      "v": 102
    },
    {
      "midi": 64,
      "hit": false,
      "t": 63919.59374999999,
      "d": 1281.2327458333311,
      "v": 109
    },
    {
      "midi": 67,
      "hit": false,
      "t": 63919.59374999999,
      "d": 1352.2545166666678,
      "v": 110
    },
    {
      "midi": 67,
      "hit": false,
      "t": 65449.402693749995,
      "d": 1103.678318750004,
      "v": 111
    },
    {
      "midi": 62,
      "hit": false,
      "t": 65449.402693749995,
      "d": 1107.9396250000063,
      "v": 110
    },
    {
      "midi": 59,
      "hit": false,
      "t": 65449.402693749995,
      "d": 1122.1439791666708,
      "v": 107
    },
    {
      "midi": 62,
      "hit": false,
      "t": 66135.47300000003,
      "d": 507.09544375000405,
      "v": 1
    },
    {
      "midi": 61,
      "hit": false,
      "t": 66646.82975000003,
      "d": 1359.35669375,
      "v": 1
    },
    {
      "midi": 66,
      "hit": false,
      "t": 66817.28199999999,
      "d": 1132.0870270833257,
      "v": 100
    },
    {
      "midi": 58,
      "hit": false,
      "t": 66817.28199999999,
      "d": 1139.1892041666579,
      "v": 96
    },
    {
      "midi": 61,
      "hit": false,
      "t": 66820.12287083332,
      "d": 1122.1439791666635,
      "v": 103
    },
    {
      "midi": 62,
      "hit": false,
      "t": 68010.44775000004,
      "d": 847.9999437499937,
      "v": 1
    },
    {
      "midi": 59,
      "hit": false,
      "t": 68152.49129166665,
      "d": 847.9999437499937,
      "v": 109
    },
    {
      "midi": 66,
      "hit": false,
      "t": 68152.49129166665,
      "d": 1068.1674333333358,
      "v": 110
    },
    {
      "midi": 62,
      "hit": false,
      "t": 68152.49129166665,
      "d": 1075.269610416668,
      "v": 106
    },
    {
      "midi": 66,
      "hit": false,
      "t": 68862.70900000003,
      "d": 1018.4521937499958,
      "v": 1
    },
    {
      "midi": 69,
      "hit": false,
      "t": 68862.70900000003,
      "d": 1018.4521937499958,
      "v": 1
    },
    {
      "midi": 59,
      "hit": false,
      "t": 69078.61518333331,
      "d": 142.04354166667326,
      "v": 104
    },
    {
      "midi": 62,
      "hit": false,
      "t": 69355.60008958331,
      "d": 1139.1892041666724,
      "v": 110
    },
    {
      "midi": 59,
      "hit": false,
      "t": 69355.60008958331,
      "d": 1167.5979125000013,
      "v": 109
    },
    {
      "midi": 55,
      "hit": false,
      "t": 69355.60008958331,
      "d": 1210.2109749999945,
      "v": 102
    },
    {
      "midi": 64,
      "hit": false,
      "t": 69885.42250000003,
      "d": 507.09544375000405,
      "v": 1
    },
    {
      "midi": 67,
      "hit": false,
      "t": 69885.42250000003,
      "d": 507.09544375000405,
      "v": 1
    },
    {
      "midi": 62,
      "hit": false,
      "t": 70396.77925000004,
      "d": 336.64319375000196,
      "v": 1
    },
    {
      "midi": 66,
      "hit": false,
      "t": 70396.77925000004,
      "d": 336.64319375000196,
      "v": 1
    },
    {
      "midi": 62,
      "hit": false,
      "t": 70560.12932291665,
      "d": 205.96313541666314,
      "v": 94
    },
    {
      "midi": 66,
      "hit": false,
      "t": 70737.68375000004,
      "d": 336.64319375000196,
      "v": 1
    },
    {
      "midi": 69,
      "hit": false,
      "t": 70737.68375000004,
      "d": 336.64319375000196,
      "v": 1
    },
    {
      "midi": 66,
      "hit": false,
      "t": 70901.03382291664,
      "d": 1107.93962499997,
      "v": 111
    },
    {
      "midi": 62,
      "hit": false,
      "t": 70903.87469374997,
      "d": 504.2545729166595,
      "v": 110
    },
    {
      "midi": 57,
      "hit": false,
      "t": 70903.87469374997,
      "d": 1122.1439791666344,
      "v": 107
    },
    {
      "midi": 62,
      "hit": false,
      "t": 71422.33362083329,
      "d": 272.72359999999753,
      "v": 102
    },
    {
      "midi": 61,
      "hit": false,
      "t": 71774.60160416662,
      "d": 198.86095833333093,
      "v": 110
    },
    {
      "midi": 61,
      "hit": false,
      "t": 72108.40392708327,
      "d": 649.1389854166628,
      "v": 107
    },
    {
      "midi": 57,
      "hit": false,
      "t": 72274.59487083327,
      "d": 656.241162499995,
      "v": 105
    },
    {
      "midi": 64,
      "hit": false,
      "t": 72274.59487083327,
      "d": 1132.0870270833257,
      "v": 109
    },
    {
      "midi": 70,
      "hit": false,
      "t": 72949.30169374993,
      "d": 511.35674999999173,
      "v": 81
    },
    {
      "midi": 58,
      "hit": false,
      "t": 72949.30169374993,
      "d": 514.1976208333217,
      "v": 107
    },
    {
      "midi": 59,
      "hit": false,
      "t": 73606.96329166659,
      "d": 2573.8289749999967,
      "v": 105
    },
    {
      "midi": 62,
      "hit": false,
      "t": 73606.96329166659,
      "d": 2573.8289749999967,
      "v": 102
    },
    {
      "midi": 66,
      "hit": false,
      "t": 73606.96329166659,
      "d": 2573.8289749999967,
      "v": 106
    },
    {
      "midi": 47,
      "hit": false,
      "t": 76362.60799999993,
      "d": 1257.0853437500045,
      "v": 105
    },
    {
      "midi": 59,
      "hit": false,
      "t": 76710.61467708327,
      "d": 869.3064750000049,
      "v": 101
    },
    {
      "midi": 40,
      "hit": false,
      "t": 77721.96469374993,
      "d": 1214.4722812500113,
      "v": 108
    },
    {
      "midi": 52,
      "hit": false,
      "t": 78069.97137083327,
      "d": 947.4304229166737,
      "v": 103
    },
    {
      "midi": 43,
      "hit": false,
      "t": 79078.4805166666,
      "d": 1200.2679270833323,
      "v": 105
    },
    {
      "midi": 55,
      "hit": false,
      "t": 79433.58937083327,
      "d": 1001.4069687500014,
      "v": 101
    },
    {
      "midi": 62,
      "hit": false,
      "t": 79788.69822499994,
      "d": 322.43883958333754,
      "v": 103
    },
    {
      "midi": 61,
      "hit": false,
      "t": 80119.65967708327,
      "d": 674.7068229166762,
      "v": 99
    },
    {
      "midi": 42,
      "hit": false,
      "t": 80463.40504791662,
      "d": 1207.3701041666645,
      "v": 106
    },
    {
      "midi": 54,
      "hit": false,
      "t": 80787.26432291661,
      "d": 355.1088541666686,
      "v": 103
    },
    {
      "midi": 58,
      "hit": false,
      "t": 81131.00969374995,
      "d": 369.313208333333,
      "v": 103
    },
    {
      "midi": 59,
      "hit": false,
      "t": 81497.48203124995,
      "d": 954.5325999999914,
      "v": 95
    },
    {
      "midi": 47,
      "hit": false,
      "t": 81817.07999999994,
      "d": 1257.0853437500045,
      "v": 105
    },
    {
      "midi": 54,
      "hit": false,
      "t": 82480.42333958327,
      "d": 329.54101666666975,
      "v": 84
    },
    {
      "midi": 55,
      "hit": false,
      "t": 82832.69132291661,
      "d": 759.9329479166772,
      "v": 88
    },
    {
      "midi": 40,
      "hit": false,
      "t": 83176.43669374994,
      "d": 1214.4722812500113,
      "v": 108
    },
    {
      "midi": 52,
      "hit": false,
      "t": 83524.44337083328,
      "d": 947.4304229166737,
      "v": 103
    },
    {
      "midi": 43,
      "hit": false,
      "t": 84532.95251666661,
      "d": 1200.2679270833323,
      "v": 105
    },
    {
      "midi": 55,
      "hit": false,
      "t": 84888.06137083328,
      "d": 1001.4069687500014,
      "v": 101
    },
    {
      "midi": 59,
      "hit": false,
      "t": 85226.12499999994,
      "d": 599.4237458333373,
      "v": 99
    },
    {
      "midi": 61,
      "hit": false,
      "t": 85907.93399999995,
      "d": 642.0368083333597,
      "v": 93
    },
    {
      "midi": 42,
      "hit": false,
      "t": 85917.87704791663,
      "d": 1207.370104166679,
      "v": 106
    },
    {
      "midi": 54,
      "hit": false,
      "t": 86251.6793708333,
      "d": 350.8475479166664,
      "v": 101
    },
    {
      "midi": 58,
      "hit": false,
      "t": 86592.5838708333,
      "d": 596.5828750000073,
      "v": 99
    },
    {
      "midi": 47,
      "hit": false,
      "t": 87271.55199999998,
      "d": 1257.0853437500045,
      "v": 105
    },
    {
      "midi": 59,
      "hit": false,
      "t": 87619.55867708332,
      "d": 869.3064750000049,
      "v": 101
    },
    {
      "midi": 40,
      "hit": false,
      "t": 88630.90869374998,
      "d": 1214.4722812500113,
      "v": 108
    },
    {
      "midi": 52,
      "hit": false,
      "t": 88978.91537083332,
      "d": 947.4304229166737,
      "v": 103
    },
    {
      "midi": 43,
      "hit": false,
      "t": 89987.42451666665,
      "d": 1200.2679270833323,
      "v": 105
    },
    {
      "midi": 55,
      "hit": false,
      "t": 90342.53337083332,
      "d": 1001.4069687500014,
      "v": 101
    },
    {
      "midi": 62,
      "hit": false,
      "t": 90697.64222499999,
      "d": 322.43883958333754,
      "v": 103
    },
    {
      "midi": 61,
      "hit": false,
      "t": 91028.60367708332,
      "d": 674.7068229166762,
      "v": 99
    },
    {
      "midi": 42,
      "hit": false,
      "t": 91372.34904791666,
      "d": 1207.3701041666645,
      "v": 106
    },
    {
      "midi": 54,
      "hit": false,
      "t": 91696.20832291666,
      "d": 355.1088541666686,
      "v": 103
    },
    {
      "midi": 58,
      "hit": false,
      "t": 92039.95369375,
      "d": 369.313208333333,
      "v": 103
    },
    {
      "midi": 59,
      "hit": false,
      "t": 92406.42603125,
      "d": 954.5325999999914,
      "v": 95
    },
    {
      "midi": 47,
      "hit": false,
      "t": 92726.02399999999,
      "d": 1257.0853437500045,
      "v": 105
    },
    {
      "midi": 54,
      "hit": false,
      "t": 93389.36733958332,
      "d": 329.54101666666975,
      "v": 84
    },
    {
      "midi": 55,
      "hit": false,
      "t": 93741.63532291666,
      "d": 759.9329479166772,
      "v": 88
    },
    {
      "midi": 40,
      "hit": false,
      "t": 94085.38069374999,
      "d": 1214.4722812500113,
      "v": 108
    },
    {
      "midi": 52,
      "hit": false,
      "t": 94433.38737083333,
      "d": 947.4304229166737,
      "v": 103
    },
    {
      "midi": 43,
      "hit": false,
      "t": 95441.89651666666,
      "d": 1200.2679270833323,
      "v": 105
    },
    {
      "midi": 55,
      "hit": false,
      "t": 95797.00537083333,
      "d": 1001.4069687500014,
      "v": 101
    },
    {
      "midi": 59,
      "hit": false,
      "t": 96135.06899999999,
      "d": 599.4237458333373,
      "v": 99
    },
    {
      "midi": 61,
      "hit": false,
      "t": 96816.878,
      "d": 642.0368083333597,
      "v": 93
    },
    {
      "midi": 42,
      "hit": false,
      "t": 96826.82104791667,
      "d": 1207.370104166679,
      "v": 106
    },
    {
      "midi": 54,
      "hit": false,
      "t": 97160.62337083335,
      "d": 350.8475479166664,
      "v": 101
    },
    {
      "midi": 58,
      "hit": false,
      "t": 97501.52787083335,
      "d": 596.5828750000073,
      "v": 99
    },
    {
      "midi": 62,
      "hit": false,
      "t": 98180.49600000003,
      "d": 2002.8139375000028,
      "v": 88
    },
    {
      "midi": 43,
      "hit": false,
      "t": 98180.49600000003,
      "d": 2403.376725000009,
      "v": 105
    },
    {
      "midi": 59,
      "hit": false,
      "t": 98528.50267708336,
      "d": 2119.289641666677,
      "v": 92
    },
    {
      "midi": 55,
      "hit": false,
      "t": 100218.82082291669,
      "d": 340.9045000000042,
      "v": 93
    },
    {
      "midi": 54,
      "hit": false,
      "t": 100569.66837083337,
      "d": 279.82577708332974,
      "v": 86
    },
    {
      "midi": 40,
      "hit": false,
      "t": 100896.3685166667,
      "d": 1200.2679270833323,
      "v": 105
    },
    {
      "midi": 52,
      "hit": false,
      "t": 100900.6298229167,
      "d": 997.1456624999846,
      "v": 94
    },
    {
      "midi": 59,
      "hit": false,
      "t": 101944.6498541667,
      "d": 291.1892604166642,
      "v": 88
    },
    {
      "midi": 57,
      "hit": false,
      "t": 102278.45217708335,
      "d": 869.3064749999903,
      "v": 100
    },
    {
      "midi": 45,
      "hit": false,
      "t": 102281.29304791668,
      "d": 1207.3701041666645,
      "v": 106
    },
    {
      "midi": 61,
      "hit": false,
      "t": 102955.99987083334,
      "d": 571.0150375000085,
      "v": 84
    },
    {
      "midi": 47,
      "hit": false,
      "t": 103634.96800000001,
      "d": 1257.0853437500045,
      "v": 105
    },
    {
      "midi": 54,
      "hit": false,
      "t": 104298.31133958334,
      "d": 329.54101666666975,
      "v": 84
    },
    {
      "midi": 55,
      "hit": false,
      "t": 104650.57932291667,
      "d": 759.9329479166772,
      "v": 88
    },
    {
      "midi": 40,
      "hit": false,
      "t": 104994.32469375001,
      "d": 1214.4722812500113,
      "v": 108
    },
    {
      "midi": 52,
      "hit": false,
      "t": 105342.33137083334,
      "d": 947.4304229166737,
      "v": 103
    },
    {
      "midi": 43,
      "hit": false,
      "t": 106350.84051666668,
      "d": 1200.2679270833323,
      "v": 105
    },
    {
      "midi": 55,
      "hit": false,
      "t": 106705.94937083335,
      "d": 1001.4069687500014,
      "v": 101
    },
    {
      "midi": 59,
      "hit": false,
      "t": 107044.013,
      "d": 599.4237458333373,
      "v": 99
    },
    {
      "midi": 61,
      "hit": false,
      "t": 107725.82200000001,
      "d": 642.0368083333597,
      "v": 93
    },
    {
      "midi": 42,
      "hit": false,
      "t": 107735.76504791669,
      "d": 1207.370104166679,
      "v": 106
    },
    {
      "midi": 54,
      "hit": false,
      "t": 108069.56737083336,
      "d": 350.8475479166664,
      "v": 101
    },
    {
      "midi": 58,
      "hit": false,
      "t": 108410.47187083337,
      "d": 596.5828750000073,
      "v": 99
    },
    {
      "midi": 59,
      "hit": false,
      "t": 109061.03129166659,
      "d": 847.9999437499937,
      "v": 109
    },
    {
      "midi": 66,
      "hit": false,
      "t": 109061.03129166659,
      "d": 1068.1674333333358,
      "v": 110
    },
    {
      "midi": 62,
      "hit": false,
      "t": 109061.03129166659,
      "d": 1075.269610416668,
      "v": 106
    },
    {
      "midi": 62,
      "hit": false,
      "t": 109600.79675000004,
      "d": 166.19094374999986,
      "v": 1
    },
    {
      "midi": 66,
      "hit": false,
      "t": 109771.24900000004,
      "d": 1018.4521937499958,
      "v": 1
    },
    {
      "midi": 69,
      "hit": false,
      "t": 109771.24900000004,
      "d": 1018.4521937499958,
      "v": 1
    },
    {
      "midi": 59,
      "hit": false,
      "t": 109987.15518333325,
      "d": 142.04354166667326,
      "v": 104
    },
    {
      "midi": 59,
      "hit": false,
      "t": 110264.14008958325,
      "d": 788.341656250006,
      "v": 109
    },
    {
      "midi": 62,
      "hit": false,
      "t": 110264.14008958325,
      "d": 798.2847041666682,
      "v": 110
    },
    {
      "midi": 55,
      "hit": false,
      "t": 110264.14008958325,
      "d": 809.6481875000027,
      "v": 102
    },
    {
      "midi": 64,
      "hit": false,
      "t": 110793.96250000004,
      "d": 507.09544375000405,
      "v": 1
    },
    {
      "midi": 67,
      "hit": false,
      "t": 110793.96250000004,
      "d": 507.09544375000405,
      "v": 1
    },
    {
      "midi": 62,
      "hit": false,
      "t": 111305.31925000004,
      "d": 336.64319375000196,
      "v": 1
    },
    {
      "midi": 66,
      "hit": false,
      "t": 111305.31925000004,
      "d": 336.64319375000196,
      "v": 1
    },
    {
      "midi": 62,
      "hit": false,
      "t": 111468.66932291658,
      "d": 205.96313541666314,
      "v": 94
    },
    {
      "midi": 66,
      "hit": false,
      "t": 111646.22375000005,
      "d": 336.64319375000196,
      "v": 1
    },
    {
      "midi": 69,
      "hit": false,
      "t": 111646.22375000005,
      "d": 336.64319375000196,
      "v": 1
    },
    {
      "midi": 66,
      "hit": false,
      "t": 111809.57382291657,
      "d": 1107.939624999999,
      "v": 111
    },
    {
      "midi": 62,
      "hit": false,
      "t": 111812.4146937499,
      "d": 1110.780495833329,
      "v": 110
    },
    {
      "midi": 57,
      "hit": false,
      "t": 111812.4146937499,
      "d": 1122.1439791666635,
      "v": 107
    },
    {
      "midi": 61,
      "hit": false,
      "t": 113183.13487083324,
      "d": 1122.1439791666635,
      "v": 112
    },
    {
      "midi": 64,
      "hit": false,
      "t": 113183.13487083324,
      "d": 1132.0870270833257,
      "v": 109
    },
    {
      "midi": 57,
      "hit": false,
      "t": 113183.13487083324,
      "d": 1139.1892041666579,
      "v": 105
    },
    {
      "midi": 59,
      "hit": false,
      "t": 114515.50329166657,
      "d": 847.9999437499937,
      "v": 109
    },
    {
      "midi": 66,
      "hit": false,
      "t": 114515.50329166657,
      "d": 1068.1674333333358,
      "v": 110
    },
    {
      "midi": 62,
      "hit": false,
      "t": 114515.50329166657,
      "d": 1075.269610416668,
      "v": 106
    },
    {
      "midi": 62,
      "hit": false,
      "t": 115055.26875000005,
      "d": 166.19094374999986,
      "v": 1
    },
    {
      "midi": 66,
      "hit": false,
      "t": 115225.72100000005,
      "d": 677.5476937500061,
      "v": 1
    },
    {
      "midi": 69,
      "hit": false,
      "t": 115225.72100000005,
      "d": 677.5476937500061,
      "v": 1
    },
    {
      "midi": 59,
      "hit": false,
      "t": 115441.62718333323,
      "d": 142.04354166667326,
      "v": 104
    },
    {
      "midi": 59,
      "hit": false,
      "t": 115718.61208958323,
      "d": 788.341656250006,
      "v": 109
    },
    {
      "midi": 62,
      "hit": false,
      "t": 115718.61208958323,
      "d": 798.2847041666682,
      "v": 110
    },
    {
      "midi": 55,
      "hit": false,
      "t": 115718.61208958323,
      "d": 809.6481875000027,
      "v": 102
    },
    {
      "midi": 67,
      "hit": false,
      "t": 115907.53000000006,
      "d": 336.64319375000196,
      "v": 1
    },
    {
      "midi": 71,
      "hit": false,
      "t": 115907.53000000006,
      "d": 336.64319375000196,
      "v": 1
    },
    {
      "midi": 66,
      "hit": false,
      "t": 116248.43450000006,
      "d": 166.19094374999986,
      "v": 1
    },
    {
      "midi": 69,
      "hit": false,
      "t": 116248.43450000006,
      "d": 166.19094374999986,
      "v": 1
    },
    {
      "midi": 64,
      "hit": false,
      "t": 116418.88675000006,
      "d": 336.64319375000196,
      "v": 1
    },
    {
      "midi": 67,
      "hit": false,
      "t": 116418.88675000006,
      "d": 336.64319375000196,
      "v": 1
    },
    {
      "midi": 62,
      "hit": false,
      "t": 116759.79125000007,
      "d": 677.5476937500061,
      "v": 1
    },
    {
      "midi": 66,
      "hit": false,
      "t": 116759.79125000007,
      "d": 677.5476937500061,
      "v": 1
    },
    {
      "midi": 62,
      "hit": false,
      "t": 116923.14132291656,
      "d": 205.96313541666314,
      "v": 94
    },
    {
      "midi": 66,
      "hit": false,
      "t": 117264.04582291655,
      "d": 1107.939624999999,
      "v": 111
    },
    {
      "midi": 62,
      "hit": false,
      "t": 117266.88669374988,
      "d": 1110.780495833329,
      "v": 110
    },
    {
      "midi": 57,
      "hit": false,
      "t": 117266.88669374988,
      "d": 1122.1439791666635,
      "v": 107
    },
    {
      "midi": 57,
      "hit": false,
      "t": 118637.60687083322,
      "d": 656.241162499995,
      "v": 105
    },
    {
      "midi": 61,
      "hit": false,
      "t": 118637.60687083322,
      "d": 1122.1439791666635,
      "v": 112
    },
    {
      "midi": 64,
      "hit": false,
      "t": 118637.60687083322,
      "d": 1132.0870270833257,
      "v": 109
    },
    {
      "midi": 70,
      "hit": false,
      "t": 119312.31369374988,
      "d": 511.35674999999173,
      "v": 81
    },
    {
      "midi": 58,
      "hit": false,
      "t": 119312.31369374988,
      "d": 514.1976208333217,
      "v": 106
    },
    {
      "midi": 59,
      "hit": false,
      "t": 119969.97529166653,
      "d": 847.9999437499937,
      "v": 105
    },
    {
      "midi": 66,
      "hit": false,
      "t": 119969.97529166653,
      "d": 869.3064749999903,
      "v": 106
    },
    {
      "midi": 62,
      "hit": false,
      "t": 119969.97529166653,
      "d": 1075.2696104166534,
      "v": 102
    },
    {
      "midi": 66,
      "hit": false,
      "t": 120874.79265208318,
      "d": 142.04354166667326,
      "v": 104
    },
    {
      "midi": 59,
      "hit": false,
      "t": 121191.54974999985,
      "d": 1267.0283916666667,
      "v": 102
    },
    {
      "midi": 64,
      "hit": false,
      "t": 121191.54974999985,
      "d": 1281.2327458333311,
      "v": 109
    },
    {
      "midi": 67,
      "hit": false,
      "t": 121191.54974999985,
      "d": 1352.2545166666678,
      "v": 110
    },
    {
      "midi": 67,
      "hit": false,
      "t": 122721.35869374985,
      "d": 1103.6783187499968,
      "v": 111
    },
    {
      "midi": 62,
      "hit": false,
      "t": 122721.35869374985,
      "d": 1107.939624999999,
      "v": 110
    },
    {
      "midi": 59,
      "hit": false,
      "t": 122721.35869374985,
      "d": 1122.1439791666635,
      "v": 107
    },
    {
      "midi": 62,
      "hit": false,
      "t": 123407.42900000008,
      "d": 507.09544375000405,
      "v": 1
    },
    {
      "midi": 61,
      "hit": false,
      "t": 123918.78575000008,
      "d": 1359.35669375,
      "v": 1
    },
    {
      "midi": 66,
      "hit": false,
      "t": 124089.23799999984,
      "d": 1132.0870270833257,
      "v": 100
    },
    {
      "midi": 58,
      "hit": false,
      "t": 124089.23799999984,
      "d": 1139.1892041666579,
      "v": 96
    },
    {
      "midi": 61,
      "hit": false,
      "t": 124092.07887083317,
      "d": 1122.1439791666635,
      "v": 103
    },
    {
      "midi": 62,
      "hit": false,
      "t": 125282.40375000008,
      "d": 847.9999437499937,
      "v": 1
    },
    {
      "midi": 59,
      "hit": false,
      "t": 125424.4472916665,
      "d": 847.9999437499937,
      "v": 109
    },
    {
      "midi": 66,
      "hit": false,
      "t": 125424.4472916665,
      "d": 1068.1674333333358,
      "v": 110
    },
    {
      "midi": 62,
      "hit": false,
      "t": 125424.4472916665,
      "d": 1075.269610416668,
      "v": 106
    },
    {
      "midi": 66,
      "hit": false,
      "t": 126134.66500000008,
      "d": 1018.4521937499958,
      "v": 1
    },
    {
      "midi": 69,
      "hit": false,
      "t": 126134.66500000008,
      "d": 1018.4521937499958,
      "v": 1
    },
    {
      "midi": 59,
      "hit": false,
      "t": 126350.57118333316,
      "d": 142.04354166667326,
      "v": 104
    },
    {
      "midi": 62,
      "hit": false,
      "t": 126627.55608958316,
      "d": 1139.1892041666724,
      "v": 110
    },
    {
      "midi": 59,
      "hit": false,
      "t": 126627.55608958316,
      "d": 1167.5979125000013,
      "v": 109
    },
    {
      "midi": 55,
      "hit": false,
      "t": 126627.55608958316,
      "d": 1210.2109749999945,
      "v": 102
    },
    {
      "midi": 64,
      "hit": false,
      "t": 127157.37850000008,
      "d": 507.09544375000405,
      "v": 1
    },
    {
      "midi": 67,
      "hit": false,
      "t": 127157.37850000008,
      "d": 507.09544375000405,
      "v": 1
    },
    {
      "midi": 62,
      "hit": false,
      "t": 127668.73525000009,
      "d": 336.64319375000196,
      "v": 1
    },
    {
      "midi": 66,
      "hit": false,
      "t": 127668.73525000009,
      "d": 336.64319375000196,
      "v": 1
    },
    {
      "midi": 62,
      "hit": false,
      "t": 127832.0853229165,
      "d": 205.96313541666314,
      "v": 94
    },
    {
      "midi": 66,
      "hit": false,
      "t": 128009.63975000009,
      "d": 336.64319375000196,
      "v": 1
    },
    {
      "midi": 69,
      "hit": false,
      "t": 128009.63975000009,
      "d": 336.64319375000196,
      "v": 1
    },
    {
      "midi": 66,
      "hit": false,
      "t": 128172.98982291648,
      "d": 1107.93962499997,
      "v": 111
    },
    {
      "midi": 62,
      "hit": false,
      "t": 128175.83069374981,
      "d": 504.2545729166595,
      "v": 110
    },
    {
      "midi": 57,
      "hit": false,
      "t": 128175.83069374981,
      "d": 1122.1439791666344,
      "v": 107
    },
    {
      "midi": 62,
      "hit": false,
      "t": 128694.28962083314,
      "d": 272.72359999999753,
      "v": 102
    },
    {
      "midi": 61,
      "hit": false,
      "t": 129046.55760416646,
      "d": 198.86095833333093,
      "v": 110
    },
    {
      "midi": 61,
      "hit": false,
      "t": 129380.35992708312,
      "d": 1345.1523395833356,
      "v": 107
    },
    {
      "midi": 64,
      "hit": false,
      "t": 129546.55087083312,
      "d": 1132.0870270833402,
      "v": 109
    },
    {
      "midi": 57,
      "hit": false,
      "t": 129546.55087083312,
      "d": 1178.9613958333357,
      "v": 105
    },
    {
      "midi": 59,
      "hit": false,
      "t": 130878.91929166645,
      "d": 17.04522499999439,
      "v": 105
    },
    {
      "midi": 62,
      "hit": false,
      "t": 130878.91929166645,
      "d": 21.306531249996624,
      "v": 102
    },
    {
      "midi": 66,
      "hit": false,
      "t": 130878.91929166645,
      "d": 2573.828974999982,
      "v": 106
    },
    {
      "midi": 59,
      "hit": false,
      "t": 130907.32799999978,
      "d": 457.38020416666404,
      "v": 78
    },
    {
      "midi": 62,
      "hit": false,
      "t": 130910.1688708331,
      "d": 838.0568958333024,
      "v": 96
    },
    {
      "midi": 47,
      "hit": false,
      "t": 130917.27104791644,
      "d": 1200.2679270833323,
      "v": 97
    },
    {
      "midi": 59,
      "hit": false,
      "t": 131411.58257291644,
      "d": 251.41706874998636,
      "v": 120
    },
    {
      "midi": 61,
      "hit": false,
      "t": 131755.32794374975,
      "d": 248.57619791667094,
      "v": 115
    },
    {
      "midi": 62,
      "hit": false,
      "t": 132096.23244374976,
      "d": 1011.3500166666636,
      "v": 98
    },
    {
      "midi": 55,
      "hit": false,
      "t": 132096.23244374976,
      "d": 1018.4521937500103,
      "v": 79
    },
    {
      "midi": 59,
      "hit": false,
      "t": 132096.23244374976,
      "d": 1053.963079166686,
      "v": 101
    },
    {
      "midi": 43,
      "hit": false,
      "t": 132096.23244374976,
      "d": 1551.1154750000278,
      "v": 98
    },
    {
      "midi": 62,
      "hit": false,
      "t": 133322.0682083331,
      "d": 116.47570416665985,
      "v": 104
    },
    {
      "midi": 61,
      "hit": false,
      "t": 133474.05479791644,
      "d": 92.32830208333326,
      "v": 97
    },
    {
      "midi": 62,
      "hit": false,
      "t": 133634.56399999978,
      "d": 464.4823812500108,
      "v": 117
    },
    {
      "midi": 38,
      "hit": false,
      "t": 133634.56399999978,
      "d": 1295.43710000001,
      "v": 100
    },
    {
      "midi": 59,
      "hit": false,
      "t": 133634.56399999978,
      "d": 1664.7503083333431,
      "v": 81
    },
    {
      "midi": 62,
      "hit": false,
      "t": 134162.9659749998,
      "d": 298.29143750001094,
      "v": 105
    },
    {
      "midi": 61,
      "hit": false,
      "t": 134510.97265208315,
      "d": 305.3936145833286,
      "v": 115
    },
    {
      "midi": 61,
      "hit": false,
      "t": 134827.7297499998,
      "d": 1181.8022666666366,
      "v": 105
    },
    {
      "midi": 45,
      "hit": false,
      "t": 134993.9206937498,
      "d": 1356.5158229166118,
      "v": 103
    },
    {
      "midi": 64,
      "hit": false,
      "t": 134998.1819999998,
      "d": 1352.2545166666096,
      "v": 105
    },
    {
      "midi": 59,
      "hit": false,
      "t": 135701.2975312498,
      "d": 223.00836041665752,
      "v": 93
    },
    {
      "midi": 61,
      "hit": false,
      "t": 136020.89549999975,
      "d": 159.0887666666531,
      "v": 106
    },
    {
      "midi": 59,
      "hit": false,
      "t": 136361.79999999973,
      "d": 457.38020416669315,
      "v": 78
    },
    {
      "midi": 62,
      "hit": false,
      "t": 136364.64087083307,
      "d": 838.056895833317,
      "v": 104
    },
    {
      "midi": 47,
      "hit": false,
      "t": 136371.74304791642,
      "d": 1200.2679270833323,
      "v": 97
    },
    {
      "midi": 59,
      "hit": false,
      "t": 136866.05457291642,
      "d": 251.41706874998636,
      "v": 120
    },
    {
      "midi": 61,
      "hit": false,
      "t": 137209.79994374973,
      "d": 248.57619791667094,
      "v": 115
    },
    {
      "midi": 62,
      "hit": false,
      "t": 137550.70444374974,
      "d": 1011.3500166666636,
      "v": 98
    },
    {
      "midi": 55,
      "hit": false,
      "t": 137550.70444374974,
      "d": 1018.4521937500103,
      "v": 79
    },
    {
      "midi": 59,
      "hit": false,
      "t": 137550.70444374974,
      "d": 1053.963079166686,
      "v": 101
    },
    {
      "midi": 43,
      "hit": false,
      "t": 137550.70444374974,
      "d": 1551.1154750000278,
      "v": 98
    },
    {
      "midi": 62,
      "hit": false,
      "t": 138772.27890208308,
      "d": 215.90618333333987,
      "v": 102
    },
    {
      "midi": 62,
      "hit": false,
      "t": 139089.03599999976,
      "d": 464.4823812500108,
      "v": 117
    },
    {
      "midi": 38,
      "hit": false,
      "t": 139089.03599999976,
      "d": 1295.4371000000392,
      "v": 100
    },
    {
      "midi": 66,
      "hit": false,
      "t": 139089.03599999976,
      "d": 1352.2545166666969,
      "v": 102
    },
    {
      "midi": 62,
      "hit": false,
      "t": 139617.43797499978,
      "d": 298.29143750001094,
      "v": 105
    },
    {
      "midi": 61,
      "hit": false,
      "t": 139965.44465208313,
      "d": 258.5192458333331,
      "v": 115
    },
    {
      "midi": 61,
      "hit": false,
      "t": 140282.2017499998,
      "d": 1352.2545166666678,
      "v": 105
    },
    {
      "midi": 45,
      "hit": false,
      "t": 140448.3926937498,
      "d": 1356.51582291667,
      "v": 103
    },
    {
      "midi": 64,
      "hit": false,
      "t": 140452.6539999998,
      "d": 1352.2545166666678,
      "v": 105
    },
    {
      "midi": 74,
      "hit": false,
      "t": 141141.56517708313,
      "d": 213.06531249999534,
      "v": 99
    },
    {
      "midi": 73,
      "hit": false,
      "t": 141482.46967708314,
      "d": 194.5996520833287,
      "v": 96
    },
    {
      "midi": 59,
      "hit": false,
      "t": 141816.2719999998,
      "d": 2176.1070583333203,
      "v": 100
    },
    {
      "midi": 62,
      "hit": false,
      "t": 141854.62375624978,
      "d": 696.0133541666728,
      "v": 81
    },
    {
      "midi": 57,
      "hit": false,
      "t": 144202.6034999998,
      "d": 840.8977666666615,
      "v": 88
    },
    {
      "midi": 57,
      "hit": false,
      "t": 145246.6235312498,
      "d": 372.15407916667755,
      "v": 88
    },
    {
      "midi": 62,
      "hit": false,
      "t": 145601.73238541646,
      "d": 674.7068229166616,
      "v": 92
    },
    {
      "midi": 64,
      "hit": false,
      "t": 146286.38225624978,
      "d": 329.5410166666843,
      "v": 88
    },
    {
      "midi": 66,
      "hit": false,
      "t": 146603.13935416646,
      "d": 376.4153854166798,
      "v": 77
    },
    {
      "midi": 62,
      "hit": false,
      "t": 146946.8847249998,
      "d": 1022.7134999999835,
      "v": 92
    },
    {
      "midi": 55,
      "hit": false,
      "t": 147270.7439999998,
      "d": 909.0786666666681,
      "v": 88
    },
    {
      "midi": 62,
      "hit": false,
      "t": 148293.45749999981,
      "d": 230.11053750000428,
      "v": 88
    },
    {
      "midi": 55,
      "hit": false,
      "t": 148293.45749999981,
      "d": 1401.9697562500369,
      "v": 88
    },
    {
      "midi": 62,
      "hit": false,
      "t": 148630.10069374982,
      "d": 301.13230833332636,
      "v": 94
    },
    {
      "midi": 61,
      "hit": false,
      "t": 148971.00519374982,
      "d": 322.43883958333754,
      "v": 88
    },
    {
      "midi": 59,
      "hit": false,
      "t": 149316.17099999983,
      "d": 308.2344854166731,
      "v": 94
    },
    {
      "midi": 57,
      "hit": false,
      "t": 149649.9733229165,
      "d": 1124.984850000008,
      "v": 88
    },
    {
      "midi": 54,
      "hit": false,
      "t": 150750.8107708332,
      "d": 333.80232291665743,
      "v": 96
    },
    {
      "midi": 57,
      "hit": false,
      "t": 151098.81744791652,
      "d": 809.6481874999881,
      "v": 99
    },
    {
      "midi": 59,
      "hit": false,
      "t": 152050.50917708318,
      "d": 272.72359999999753,
      "v": 107
    },
    {
      "midi": 71,
      "hit": false,
      "t": 152050.50917708318,
      "d": 301.13230833332636,
      "v": 82
    },
    {
      "midi": 61,
      "hit": false,
      "t": 152391.41367708318,
      "d": 269.882729166653,
      "v": 102
    },
    {
      "midi": 73,
      "hit": false,
      "t": 152391.41367708318,
      "d": 269.882729166653,
      "v": 77
    },
    {
      "midi": 55,
      "hit": false,
      "t": 152725.21599999984,
      "d": 937.487374999997,
      "v": 88
    },
    {
      "midi": 62,
      "hit": false,
      "t": 152732.3181770832,
      "d": 809.6481874999881,
      "v": 105
    },
    {
      "midi": 74,
      "hit": false,
      "t": 152732.3181770832,
      "d": 809.6481874999881,
      "v": 80
    },
    {
      "midi": 62,
      "hit": false,
      "t": 153747.92949999982,
      "d": 589.4806979166751,
      "v": 94
    },
    {
      "midi": 74,
      "hit": false,
      "t": 153747.92949999982,
      "d": 589.4806979166751,
      "v": 69
    },
    {
      "midi": 55,
      "hit": false,
      "t": 153747.92949999982,
      "d": 1529.8089437500166,
      "v": 88
    },
    {
      "midi": 61,
      "hit": false,
      "t": 154475.19243333317,
      "d": 194.5996520833287,
      "v": 102
    },
    {
      "midi": 73,
      "hit": false,
      "t": 154475.19243333317,
      "d": 194.5996520833287,
      "v": 77
    },
    {
      "midi": 62,
      "hit": false,
      "t": 154799.05170833317,
      "d": 208.8040062499931,
      "v": 88
    },
    {
      "midi": 74,
      "hit": false,
      "t": 154799.05170833317,
      "d": 208.8040062499931,
      "v": 63
    },
    {
      "midi": 57,
      "hit": false,
      "t": 155135.69490208317,
      "d": 1065.3265625000058,
      "v": 97
    },
    {
      "midi": 69,
      "hit": false,
      "t": 155135.69490208317,
      "d": 1065.3265625000058,
      "v": 79
    },
    {
      "midi": 54,
      "hit": false,
      "t": 155452.45199999984,
      "d": 919.0217145833303,
      "v": 82
    },
    {
      "midi": 54,
      "hit": false,
      "t": 156475.16549999983,
      "d": 1640.6029062500456,
      "v": 77
    },
    {
      "midi": 57,
      "hit": false,
      "t": 156482.26767708317,
      "d": 482.94804166667745,
      "v": 104
    },
    {
      "midi": 69,
      "hit": false,
      "t": 156482.26767708317,
      "d": 482.94804166667745,
      "v": 79
    },
    {
      "midi": 62,
      "hit": false,
      "t": 157152.71319374986,
      "d": 830.9547187499993,
      "v": 99
    },
    {
      "midi": 74,
      "hit": false,
      "t": 157152.71319374986,
      "d": 830.9547187499993,
      "v": 74
    },
    {
      "midi": 52,
      "hit": false,
      "t": 158179.68799999988,
      "d": 876.4086520833371,
      "v": 88
    },
    {
      "midi": 61,
      "hit": false,
      "t": 158179.68799999988,
      "d": 1093.7352708333347,
      "v": 107
    },
    {
      "midi": 73,
      "hit": false,
      "t": 158179.68799999988,
      "d": 1093.7352708333347,
      "v": 82
    },
    {
      "midi": 52,
      "hit": false,
      "t": 159202.4014999999,
      "d": 1664.750308333314,
      "v": 79
    },
    {
      "midi": 61,
      "hit": false,
      "t": 159884.21049999987,
      "d": 919.0217145833303,
      "v": 103
    },
    {
      "midi": 73,
      "hit": false,
      "t": 159884.21049999987,
      "d": 919.0217145833303,
      "v": 78
    },
    {
      "midi": 54,
      "hit": false,
      "t": 160906.92399999988,
      "d": 830.9547187499993,
      "v": 103
    },
    {
      "midi": 58,
      "hit": false,
      "t": 160914.02617708343,
      "d": 1029.8156770833302,
      "v": 1
    },
    {
      "midi": 62,
      "hit": false,
      "t": 161929.6374999999,
      "d": 163.35007291665534,
      "v": 91
    },
    {
      "midi": 74,
      "hit": false,
      "t": 161929.6374999999,
      "d": 163.35007291665534,
      "v": 66
    },
    {
      "midi": 54,
      "hit": false,
      "t": 161929.6374999999,
      "d": 1330.9479854166566,
      "v": 91
    },
    {
      "midi": 59,
      "hit": false,
      "t": 161946.6827250001,
      "d": 646.2981145833328,
      "v": 1
    },
    {
      "midi": 61,
      "hit": false,
      "t": 162597.24214583344,
      "d": 696.0133541666728,
      "v": 1
    },
    {
      "midi": 57,
      "hit": false,
      "t": 163279.05114583322,
      "d": 301.13230833332636,
      "v": 120
    },
    {
      "midi": 69,
      "hit": false,
      "t": 163281.89201666656,
      "d": 286.92795416666195,
      "v": 115
    },
    {
      "midi": 62,
      "hit": false,
      "t": 163296.09637083346,
      "d": 3061.038322916691,
      "v": 1
    },
    {
      "midi": 67,
      "hit": false,
      "t": 163612.85346875014,
      "d": 1416.1741104166722,
      "v": 1
    },
    {
      "midi": 67,
      "hit": false,
      "t": 163629.89869374988,
      "d": 386.35843333334196,
      "v": 127
    },
    {
      "midi": 59,
      "hit": false,
      "t": 163629.89869374988,
      "d": 390.6197395833442,
      "v": 127
    },
    {
      "midi": 59,
      "hit": false,
      "t": 164141.2554437499,
      "d": 343.7453708333196,
      "v": 121
    },
    {
      "midi": 67,
      "hit": false,
      "t": 164141.2554437499,
      "d": 357.949724999984,
      "v": 110
    },
    {
      "midi": 66,
      "hit": false,
      "t": 164652.61219374987,
      "d": 698.8542250000173,
      "v": 120
    },
    {
      "midi": 57,
      "hit": false,
      "t": 164652.61219374987,
      "d": 713.0585791666817,
      "v": 96
    },
    {
      "midi": 66,
      "hit": false,
      "t": 164986.41451666682,
      "d": 1370.7201770833344,
      "v": 1
    },
    {
      "midi": 74,
      "hit": false,
      "t": 165334.42119374988,
      "d": 507.09544375000405,
      "v": 119
    },
    {
      "midi": 62,
      "hit": false,
      "t": 165334.42119374988,
      "d": 514.1976208333508,
      "v": 119
    },
    {
      "midi": 57,
      "hit": false,
      "t": 166020.4914999999,
      "d": 106.53265624999767,
      "v": 127
    },
    {
      "midi": 69,
      "hit": false,
      "t": 166020.4914999999,
      "d": 106.53265624999767,
      "v": 127
    },
    {
      "midi": 55,
      "hit": false,
      "t": 166172.47808958322,
      "d": 159.0887666666531,
      "v": 125
    },
    {
      "midi": 67,
      "hit": false,
      "t": 166172.47808958322,
      "d": 159.0887666666531,
      "v": 125
    },
    {
      "midi": 54,
      "hit": false,
      "t": 166361.39599999986,
      "d": 336.64319375000196,
      "v": 127
    },
    {
      "midi": 66,
      "hit": false,
      "t": 166361.39599999986,
      "d": 336.64319375000196,
      "v": 127
    },
    {
      "midi": 54,
      "hit": false,
      "t": 166868.49144374987,
      "d": 333.80232291665743,
      "v": 126
    },
    {
      "midi": 66,
      "hit": false,
      "t": 166868.49144374987,
      "d": 333.80232291665743,
      "v": 126
    },
    {
      "midi": 52,
      "hit": false,
      "t": 167377.00732291653,
      "d": 759.9329479166772,
      "v": 122
    },
    {
      "midi": 64,
      "hit": false,
      "t": 167377.00732291653,
      "d": 759.9329479166772,
      "v": 122
    },
    {
      "midi": 45,
      "hit": false,
      "t": 167377.00732291653,
      "d": 1171.8592187499744,
      "v": 109
    },
    {
      "midi": 74,
      "hit": false,
      "t": 168406.82299999986,
      "d": 85.2261249999865,
      "v": 113
    },
    {
      "midi": 62,
      "hit": false,
      "t": 168406.82299999986,
      "d": 113.63483333331533,
      "v": 113
    },
    {
      "midi": 62,
      "hit": false,
      "t": 168577.27524999983,
      "d": 71.02177083332208,
      "v": 116
    },
    {
      "midi": 74,
      "hit": false,
      "t": 168577.27524999983,
      "d": 71.02177083332208,
      "v": 116
    },
    {
      "midi": 61,
      "hit": false,
      "t": 168662.50137499982,
      "d": 88.06699583333102,
      "v": 83
    },
    {
      "midi": 73,
      "hit": false,
      "t": 168662.50137499982,
      "d": 88.06699583333102,
      "v": 83
    },
    {
      "midi": 59,
      "hit": false,
      "t": 168747.7274999998,
      "d": 127.83918750000885,
      "v": 108
    },
    {
      "midi": 71,
      "hit": false,
      "t": 168747.7274999998,
      "d": 127.83918750000885,
      "v": 108
    },
    {
      "midi": 57,
      "hit": false,
      "t": 168918.1797499998,
      "d": 123.57788125000661,
      "v": 114
    },
    {
      "midi": 69,
      "hit": false,
      "t": 168918.1797499998,
      "d": 142.04354166667326,
      "v": 114
    },
    {
      "midi": 71,
      "hit": false,
      "t": 169077.2685166668,
      "d": 1306.80058333333,
      "v": 1
    },
    {
      "midi": 62,
      "hit": false,
      "t": 169077.2685166668,
      "d": 2308.2075520833314,
      "v": 1
    },
    {
      "midi": 71,
      "hit": false,
      "t": 169088.6319999998,
      "d": 272.72359999999753,
      "v": 124
    },
    {
      "midi": 59,
      "hit": false,
      "t": 169088.6319999998,
      "d": 298.29143750001094,
      "v": 124
    },
    {
      "midi": 57,
      "hit": false,
      "t": 169429.5364999998,
      "d": 73.8626416666666,
      "v": 114
    },
    {
      "midi": 69,
      "hit": false,
      "t": 169429.5364999998,
      "d": 73.8626416666666,
      "v": 114
    },
    {
      "midi": 59,
      "hit": false,
      "t": 169599.98874999981,
      "d": 272.72359999999753,
      "v": 120
    },
    {
      "midi": 71,
      "hit": false,
      "t": 169599.98874999981,
      "d": 272.72359999999753,
      "v": 120
    },
    {
      "midi": 61,
      "hit": false,
      "t": 169940.89324999982,
      "d": 85.2261249999865,
      "v": 114
    },
    {
      "midi": 73,
      "hit": false,
      "t": 169940.89324999982,
      "d": 85.2261249999865,
      "v": 114
    },
    {
      "midi": 62,
      "hit": false,
      "t": 170111.3454999998,
      "d": 414.7671416666708,
      "v": 124
    },
    {
      "midi": 74,
      "hit": false,
      "t": 170111.3454999998,
      "d": 414.7671416666708,
      "v": 124
    },
    {
      "midi": 69,
      "hit": false,
      "t": 170412.47780833347,
      "d": 1025.554370833328,
      "v": 1
    },
    {
      "midi": 66,
      "hit": false,
      "t": 170608.49789583313,
      "d": 340.9045000000042,
      "v": 127
    },
    {
      "midi": 78,
      "hit": false,
      "t": 170608.49789583313,
      "d": 340.9045000000042,
      "v": 127
    },
    {
      "midi": 54,
      "hit": false,
      "t": 171158.20640208313,
      "d": 276.98490624999977,
      "v": 114
    },
    {
      "midi": 66,
      "hit": false,
      "t": 171158.20640208313,
      "d": 276.98490624999977,
      "v": 114
    },
    {
      "midi": 52,
      "hit": false,
      "t": 171499.11090208314,
      "d": 276.98490624999977,
      "v": 120
    },
    {
      "midi": 64,
      "hit": false,
      "t": 171499.11090208314,
      "d": 276.98490624999977,
      "v": 120
    },
    {
      "midi": 54,
      "hit": false,
      "t": 171811.6066937498,
      "d": 447.43715625000186,
      "v": 126
    },
    {
      "midi": 66,
      "hit": false,
      "t": 171811.6066937498,
      "d": 475.8458645833307,
      "v": 126
    },
    {
      "midi": 62,
      "hit": false,
      "t": 171811.6066937498,
      "d": 1164.7570416666858,
      "v": 111
    },
    {
      "midi": 55,
      "hit": false,
      "t": 172313.02039583315,
      "d": 426.1306249999907,
      "v": 127
    },
    {
      "midi": 67,
      "hit": false,
      "t": 172313.02039583315,
      "d": 426.1306249999907,
      "v": 127
    },
    {
      "midi": 54,
      "hit": false,
      "t": 172852.7858541665,
      "d": 205.9631354166777,
      "v": 119
    },
    {
      "midi": 66,
      "hit": false,
      "t": 172852.7858541665,
      "d": 205.9631354166777,
      "v": 119
    },
    {
      "midi": 52,
      "hit": false,
      "t": 173179.48599999983,
      "d": 1124.984850000008,
      "v": 126
    },
    {
      "midi": 64,
      "hit": false,
      "t": 173179.48599999983,
      "d": 1153.3935583333368,
      "v": 126
    },
    {
      "midi": 61,
      "hit": false,
      "t": 173189.4290479165,
      "d": 1153.3935583333368,
      "v": 113
    },
    {
      "midi": 59,
      "hit": false,
      "t": 173889.70370833346,
      "d": 305.3936145833286,
      "v": 1
    },
    {
      "midi": 61,
      "hit": false,
      "t": 174195.0973229168,
      "d": 301.13230833332636,
      "v": 1
    },
    {
      "midi": 71,
      "hit": false,
      "t": 174531.7405166668,
      "d": 1306.80058333333,
      "v": 1
    },
    {
      "midi": 62,
      "hit": false,
      "t": 174531.7405166668,
      "d": 2308.2075520833314,
      "v": 1
    },
    {
      "midi": 67,
      "hit": false,
      "t": 174538.84269374982,
      "d": 386.35843333334196,
      "v": 127
    },
    {
      "midi": 59,
      "hit": false,
      "t": 174538.84269374982,
      "d": 471.58455833332846,
      "v": 127
    },
    {
      "midi": 62,
      "hit": false,
      "t": 175057.30162083314,
      "d": 514.1976208333217,
      "v": 105
    },
    {
      "midi": 67,
      "hit": false,
      "t": 175220.6516937498,
      "d": 336.64319375000196,
      "v": 127
    },
    {
      "midi": 57,
      "hit": false,
      "t": 175561.5561937498,
      "d": 514.1976208333217,
      "v": 96
    },
    {
      "midi": 66,
      "hit": false,
      "t": 175561.5561937498,
      "d": 528.4019749999861,
      "v": 120
    },
    {
      "midi": 69,
      "hit": false,
      "t": 175866.94980833345,
      "d": 1025.554370833328,
      "v": 1
    },
    {
      "midi": 69,
      "hit": false,
      "t": 176091.37860416644,
      "d": 901.9764895833214,
      "v": 126
    },
    {
      "midi": 57,
      "hit": false,
      "t": 176101.3216520831,
      "d": 646.2981145833328,
      "v": 117
    },
    {
      "midi": 66,
      "hit": false,
      "t": 176584.26969374978,
      "d": 426.1306249999907,
      "v": 120
    },
    {
      "midi": 50,
      "hit": false,
      "t": 176929.43549999976,
      "d": 106.53265625002678,
      "v": 113
    },
    {
      "midi": 62,
      "hit": false,
      "t": 176939.37854791642,
      "d": 109.3735270833713,
      "v": 113
    },
    {
      "midi": 52,
      "hit": false,
      "t": 177099.8877499998,
      "d": 123.57788125000661,
      "v": 117
    },
    {
      "midi": 64,
      "hit": false,
      "t": 177114.09210416646,
      "d": 123.57788125000661,
      "v": 117
    },
    {
      "midi": 54,
      "hit": false,
      "t": 177266.0786937498,
      "d": 447.43715625000186,
      "v": 126
    },
    {
      "midi": 66,
      "hit": false,
      "t": 177266.0786937498,
      "d": 475.8458645833307,
      "v": 126
    },
    {
      "midi": 55,
      "hit": false,
      "t": 177767.49239583313,
      "d": 426.1306249999907,
      "v": 127
    },
    {
      "midi": 67,
      "hit": false,
      "t": 177767.49239583313,
      "d": 426.1306249999907,
      "v": 127
    },
    {
      "midi": 54,
      "hit": false,
      "t": 178288.7921937498,
      "d": 428.9714958333352,
      "v": 119
    },
    {
      "midi": 66,
      "hit": false,
      "t": 178288.7921937498,
      "d": 428.9714958333352,
      "v": 119
    },
    {
      "midi": 52,
      "hit": false,
      "t": 178804.4102499998,
      "d": 443.1758499999996,
      "v": 126
    },
    {
      "midi": 64,
      "hit": false,
      "t": 178804.4102499998,
      "d": 443.1758499999996,
      "v": 126
    },
    {
      "midi": 50,
      "hit": false,
      "t": 179315.76699999982,
      "d": 255.6783749999886,
      "v": 125
    },
    {
      "midi": 62,
      "hit": false,
      "t": 179325.71004791648,
      "d": 255.6783749999886,
      "v": 125
    },
    {
      "midi": 59,
      "hit": false,
      "t": 179344.17570833344,
      "d": 305.3936145833286,
      "v": 1
    },
    {
      "midi": 61,
      "hit": false,
      "t": 179649.56932291677,
      "d": 301.13230833332636,
      "v": 1
    },
    {
      "midi": 49,
      "hit": false,
      "t": 179656.6714999998,
      "d": 187.49747500001104,
      "v": 117
    },
    {
      "midi": 61,
      "hit": false,
      "t": 179659.51237083314,
      "d": 187.49747500001104,
      "v": 117
    },
    {
      "midi": 50,
      "hit": false,
      "t": 179983.37164583316,
      "d": 911.9195374999836,
      "v": 121
    },
    {
      "midi": 71,
      "hit": false,
      "t": 179986.21251666677,
      "d": 1306.80058333333,
      "v": 1
    },
    {
      "midi": 62,
      "hit": false,
      "t": 179986.21251666677,
      "d": 2308.2075520833314,
      "v": 1
    },
    {
      "midi": 62,
      "hit": false,
      "t": 179993.31469374982,
      "d": 883.5108291666547,
      "v": 121
    },
    {
      "midi": 57,
      "hit": false,
      "t": 180998.9829687498,
      "d": 1146.29138124999,
      "v": 123
    },
    {
      "midi": 69,
      "hit": false,
      "t": 181321.42180833343,
      "d": 1025.554370833328,
      "v": 1
    },
    {
      "midi": 62,
      "hit": false,
      "t": 181364.03487083313,
      "d": 1352.2545166666678,
      "v": 91
    },
    {
      "midi": 66,
      "hit": false,
      "t": 181364.03487083313,
      "d": 1366.4588708333322,
      "v": 127
    },
    {
      "midi": 54,
      "hit": false,
      "t": 183747.52549999979,
      "d": 265.6214229166799,
      "v": 107
    },
    {
      "midi": 66,
      "hit": false,
      "t": 183754.62767708313,
      "d": 265.6214229166799,
      "v": 115
    },
    {
      "midi": 52,
      "hit": false,
      "t": 184088.42999999982,
      "d": 528.4019750000152,
      "v": 115
    },
    {
      "midi": 64,
      "hit": false,
      "t": 184095.53217708317,
      "d": 514.1976208333217,
      "v": 123
    },
    {
      "midi": 57,
      "hit": false,
      "t": 184770.23899999983,
      "d": 589.4806979166751,
      "v": 119
    },
    {
      "midi": 69,
      "hit": false,
      "t": 184770.23899999983,
      "d": 589.4806979166751,
      "v": 119
    },
    {
      "midi": 61,
      "hit": false,
      "t": 185423.6392916665,
      "d": 847.9999437500082,
      "v": 110
    },
    {
      "midi": 68,
      "hit": false,
      "t": 185423.6392916665,
      "d": 1068.1674333333503,
      "v": 111
    },
    {
      "midi": 64,
      "hit": false,
      "t": 185423.6392916665,
      "d": 1075.269610416697,
      "v": 107
    },
    {
      "midi": 64,
      "hit": false,
      "t": 185963.4047500001,
      "d": 166.19094374999986,
      "v": 1
    },
    {
      "midi": 68,
      "hit": false,
      "t": 186133.8570000001,
      "d": 1018.4521937500103,
      "v": 1
    },
    {
      "midi": 71,
      "hit": false,
      "t": 186133.8570000001,
      "d": 1018.4521937500103,
      "v": 1
    },
    {
      "midi": 61,
      "hit": false,
      "t": 186349.76318333318,
      "d": 142.04354166667326,
      "v": 105
    },
    {
      "midi": 61,
      "hit": false,
      "t": 186626.7480895832,
      "d": 788.341656250006,
      "v": 110
    },
    {
      "midi": 64,
      "hit": false,
      "t": 186626.7480895832,
      "d": 798.2847041666682,
      "v": 111
    },
    {
      "midi": 57,
      "hit": false,
      "t": 186626.7480895832,
      "d": 809.6481874999881,
      "v": 103
    },
    {
      "midi": 66,
      "hit": false,
      "t": 187156.57050000012,
      "d": 507.09544375000405,
      "v": 1
    },
    {
      "midi": 69,
      "hit": false,
      "t": 187156.57050000012,
      "d": 507.09544375000405,
      "v": 1
    },
    {
      "midi": 64,
      "hit": false,
      "t": 187667.92725000012,
      "d": 336.64319375000196,
      "v": 1
    },
    {
      "midi": 68,
      "hit": false,
      "t": 187667.92725000012,
      "d": 336.64319375000196,
      "v": 1
    },
    {
      "midi": 64,
      "hit": false,
      "t": 187831.27732291655,
      "d": 205.9631354166777,
      "v": 95
    },
    {
      "midi": 68,
      "hit": false,
      "t": 188008.83175000013,
      "d": 336.64319375000196,
      "v": 1
    },
    {
      "midi": 71,
      "hit": false,
      "t": 188008.83175000013,
      "d": 336.64319375000196,
      "v": 1
    },
    {
      "midi": 68,
      "hit": false,
      "t": 188172.18182291655,
      "d": 1107.939624999999,
      "v": 112
    },
    {
      "midi": 64,
      "hit": false,
      "t": 188175.0226937499,
      "d": 1110.7804958333145,
      "v": 111
    },
    {
      "midi": 59,
      "hit": false,
      "t": 188175.0226937499,
      "d": 1122.1439791666344,
      "v": 108
    },
    {
      "midi": 63,
      "hit": false,
      "t": 189545.7428708332,
      "d": 1122.1439791666635,
      "v": 113
    },
    {
      "midi": 66,
      "hit": false,
      "t": 189545.7428708332,
      "d": 1132.0870270833257,
      "v": 110
    },
    {
      "midi": 59,
      "hit": false,
      "t": 189545.7428708332,
      "d": 1139.1892041666724,
      "v": 106
    },
    {
      "midi": 61,
      "hit": false,
      "t": 190878.11129166654,
      "d": 847.9999437500082,
      "v": 110
    },
    {
      "midi": 68,
      "hit": false,
      "t": 190878.11129166654,
      "d": 1068.1674333333503,
      "v": 111
    },
    {
      "midi": 64,
      "hit": false,
      "t": 190878.11129166654,
      "d": 1075.269610416697,
      "v": 107
    },
    {
      "midi": 64,
      "hit": false,
      "t": 191417.87675000014,
      "d": 166.19094374999986,
      "v": 1
    },
    {
      "midi": 68,
      "hit": false,
      "t": 191588.32900000014,
      "d": 677.5476937500061,
      "v": 1
    },
    {
      "midi": 71,
      "hit": false,
      "t": 191588.32900000014,
      "d": 677.5476937500061,
      "v": 1
    },
    {
      "midi": 61,
      "hit": false,
      "t": 191804.23518333322,
      "d": 142.04354166667326,
      "v": 105
    },
    {
      "midi": 61,
      "hit": false,
      "t": 192081.22008958325,
      "d": 788.341656250006,
      "v": 110
    },
    {
      "midi": 64,
      "hit": false,
      "t": 192081.22008958325,
      "d": 798.2847041666682,
      "v": 111
    },
    {
      "midi": 57,
      "hit": false,
      "t": 192081.22008958325,
      "d": 809.6481874999881,
      "v": 103
    },
    {
      "midi": 69,
      "hit": false,
      "t": 192270.13800000015,
      "d": 336.64319375000196,
      "v": 1
    },
    {
      "midi": 73,
      "hit": false,
      "t": 192270.13800000015,
      "d": 336.64319375000196,
      "v": 1
    },
    {
      "midi": 68,
      "hit": false,
      "t": 192611.04250000016,
      "d": 166.19094374999986,
      "v": 1
    },
    {
      "midi": 71,
      "hit": false,
      "t": 192611.04250000016,
      "d": 166.19094374999986,
      "v": 1
    },
    {
      "midi": 66,
      "hit": false,
      "t": 192781.49475000016,
      "d": 336.64319375000196,
      "v": 1
    },
    {
      "midi": 69,
      "hit": false,
      "t": 192781.49475000016,
      "d": 336.64319375000196,
      "v": 1
    },
    {
      "midi": 64,
      "hit": false,
      "t": 193122.39925000016,
      "d": 677.5476937500061,
      "v": 1
    },
    {
      "midi": 68,
      "hit": false,
      "t": 193122.39925000016,
      "d": 677.5476937500061,
      "v": 1
    },
    {
      "midi": 64,
      "hit": false,
      "t": 193285.74932291658,
      "d": 205.9631354166777,
      "v": 95
    },
    {
      "midi": 68,
      "hit": false,
      "t": 193626.6538229166,
      "d": 1107.939624999999,
      "v": 112
    },
    {
      "midi": 64,
      "hit": false,
      "t": 193629.49469374993,
      "d": 1110.7804958333145,
      "v": 111
    },
    {
      "midi": 59,
      "hit": false,
      "t": 193629.49469374993,
      "d": 1122.1439791666344,
      "v": 108
    },
    {
      "midi": 59,
      "hit": false,
      "t": 195000.21487083324,
      "d": 656.241162499995,
      "v": 106
    },
    {
      "midi": 63,
      "hit": false,
      "t": 195000.21487083324,
      "d": 1122.1439791666635,
      "v": 113
    },
    {
      "midi": 66,
      "hit": false,
      "t": 195000.21487083324,
      "d": 1132.0870270833257,
      "v": 110
    },
    {
      "midi": 72,
      "hit": false,
      "t": 195674.9216937499,
      "d": 511.3567500000063,
      "v": 82
    },
    {
      "midi": 60,
      "hit": false,
      "t": 195674.9216937499,
      "d": 514.1976208333508,
      "v": 107
    },
    {
      "midi": 61,
      "hit": false,
      "t": 196332.58329166658,
      "d": 847.9999437500082,
      "v": 106
    },
    {
      "midi": 68,
      "hit": false,
      "t": 196332.58329166658,
      "d": 869.3064750000194,
      "v": 107
    },
    {
      "midi": 64,
      "hit": false,
      "t": 196332.58329166658,
      "d": 1075.269610416697,
      "v": 103
    },
    {
      "midi": 68,
      "hit": false,
      "t": 197237.40065208328,
      "d": 142.04354166667326,
      "v": 105
    },
    {
      "midi": 61,
      "hit": false,
      "t": 197554.15774999995,
      "d": 1267.0283916666522,
      "v": 103
    },
    {
      "midi": 66,
      "hit": false,
      "t": 197554.15774999995,
      "d": 1281.2327458333166,
      "v": 110
    },
    {
      "midi": 69,
      "hit": false,
      "t": 197554.15774999995,
      "d": 1352.2545166666387,
      "v": 111
    },
    {
      "midi": 69,
      "hit": false,
      "t": 199083.9666937499,
      "d": 1103.6783187499968,
      "v": 112
    },
    {
      "midi": 64,
      "hit": false,
      "t": 199083.9666937499,
      "d": 1107.939624999999,
      "v": 111
    },
    {
      "midi": 61,
      "hit": false,
      "t": 199083.9666937499,
      "d": 1122.1439791666635,
      "v": 108
    },
    {
      "midi": 64,
      "hit": false,
      "t": 199770.03700000016,
      "d": 507.09544375000405,
      "v": 1
    },
    {
      "midi": 63,
      "hit": false,
      "t": 200281.39375000016,
      "d": 1359.3566937500145,
      "v": 1
    },
    {
      "midi": 68,
      "hit": false,
      "t": 200451.8459999999,
      "d": 1132.0870270833548,
      "v": 101
    },
    {
      "midi": 60,
      "hit": false,
      "t": 200451.8459999999,
      "d": 1139.1892041667015,
      "v": 97
    },
    {
      "midi": 63,
      "hit": false,
      "t": 200454.68687083325,
      "d": 1122.1439791666635,
      "v": 104
    },
    {
      "midi": 64,
      "hit": false,
      "t": 201645.01175000018,
      "d": 847.9999437500082,
      "v": 1
    },
    {
      "midi": 61,
      "hit": false,
      "t": 201787.0552916666,
      "d": 847.9999437500082,
      "v": 110
    },
    {
      "midi": 68,
      "hit": false,
      "t": 201787.0552916666,
      "d": 1068.1674333333503,
      "v": 111
    },
    {
      "midi": 64,
      "hit": false,
      "t": 201787.0552916666,
      "d": 1075.269610416697,
      "v": 107
    },
    {
      "midi": 68,
      "hit": false,
      "t": 202497.2730000002,
      "d": 1018.4521937500103,
      "v": 1
    },
    {
      "midi": 71,
      "hit": false,
      "t": 202497.2730000002,
      "d": 1018.4521937500103,
      "v": 1
    },
    {
      "midi": 61,
      "hit": false,
      "t": 202713.17918333327,
      "d": 142.04354166667326,
      "v": 105
    },
    {
      "midi": 64,
      "hit": false,
      "t": 202990.1640895833,
      "d": 1139.1892041666724,
      "v": 111
    },
    {
      "midi": 61,
      "hit": false,
      "t": 202990.1640895833,
      "d": 1167.5979125000013,
      "v": 110
    },
    {
      "midi": 57,
      "hit": false,
      "t": 202990.1640895833,
      "d": 1210.2109749999945,
      "v": 103
    },
    {
      "midi": 66,
      "hit": false,
      "t": 203519.9865000002,
      "d": 507.09544375000405,
      "v": 1
    },
    {
      "midi": 69,
      "hit": false,
      "t": 203519.9865000002,
      "d": 507.09544375000405,
      "v": 1
    },
    {
      "midi": 64,
      "hit": false,
      "t": 204031.3432500002,
      "d": 336.64319375000196,
      "v": 1
    },
    {
      "midi": 68,
      "hit": false,
      "t": 204031.3432500002,
      "d": 336.64319375000196,
      "v": 1
    },
    {
      "midi": 64,
      "hit": false,
      "t": 204194.69332291663,
      "d": 205.96313541664858,
      "v": 95
    },
    {
      "midi": 68,
      "hit": false,
      "t": 204372.2477500002,
      "d": 336.64319375000196,
      "v": 1
    },
    {
      "midi": 71,
      "hit": false,
      "t": 204372.2477500002,
      "d": 336.64319375000196,
      "v": 1
    },
    {
      "midi": 68,
      "hit": false,
      "t": 204535.5978229166,
      "d": 1107.939624999999,
      "v": 112
    },
    {
      "midi": 64,
      "hit": false,
      "t": 204538.43869374995,
      "d": 504.2545729166595,
      "v": 111
    },
    {
      "midi": 59,
      "hit": false,
      "t": 204538.43869374995,
      "d": 1122.1439791666635,
      "v": 108
    },
    {
      "midi": 64,
      "hit": false,
      "t": 205056.89762083328,
      "d": 272.72359999999753,
      "v": 103
    },
    {
      "midi": 63,
      "hit": false,
      "t": 205409.1656041666,
      "d": 198.86095833333093,
      "v": 111
    },
    {
      "midi": 63,
      "hit": false,
      "t": 205742.9679270833,
      "d": 1345.152339583321,
      "v": 108
    },
    {
      "midi": 66,
      "hit": false,
      "t": 205909.1588708333,
      "d": 1132.0870270833257,
      "v": 110
    },
    {
      "midi": 59,
      "hit": false,
      "t": 205909.1588708333,
      "d": 1178.9613958333211,
      "v": 106
    },
    {
      "midi": 61,
      "hit": false,
      "t": 207241.5272916666,
      "d": 17.04522500000894,
      "v": 106
    },
    {
      "midi": 64,
      "hit": false,
      "t": 207241.5272916666,
      "d": 21.306531250011176,
      "v": 103
    },
    {
      "midi": 68,
      "hit": false,
      "t": 207241.5272916666,
      "d": 2573.8289750000404,
      "v": 107
    },
    {
      "midi": 61,
      "hit": false,
      "t": 207269.93599999996,
      "d": 457.38020416669315,
      "v": 79
    },
    {
      "midi": 64,
      "hit": false,
      "t": 207272.7768708333,
      "d": 838.056895833317,
      "v": 97
    },
    {
      "midi": 49,
      "hit": false,
      "t": 207279.87904791665,
      "d": 1200.2679270833323,
      "v": 98
    },
    {
      "midi": 61,
      "hit": false,
      "t": 207774.19057291665,
      "d": 251.41706874998636,
      "v": 121
    },
    {
      "midi": 63,
      "hit": false,
      "t": 208117.93594374997,
      "d": 248.57619791667094,
      "v": 116
    },
    {
      "midi": 64,
      "hit": false,
      "t": 208458.84044374997,
      "d": 1011.3500166666636,
      "v": 99
    },
    {
      "midi": 57,
      "hit": false,
      "t": 208458.84044374997,
      "d": 1018.4521937500103,
      "v": 80
    },
    {
      "midi": 61,
      "hit": false,
      "t": 208458.84044374997,
      "d": 1053.963079166686,
      "v": 102
    },
    {
      "midi": 45,
      "hit": false,
      "t": 208458.84044374997,
      "d": 1551.1154750000278,
      "v": 99
    },
    {
      "midi": 64,
      "hit": false,
      "t": 209684.67620833332,
      "d": 116.47570416665985,
      "v": 105
    },
    {
      "midi": 63,
      "hit": false,
      "t": 209836.66279791665,
      "d": 92.32830208333326,
      "v": 98
    },
    {
      "midi": 64,
      "hit": false,
      "t": 209997.172,
      "d": 464.4823812500108,
      "v": 118
    },
    {
      "midi": 40,
      "hit": false,
      "t": 209997.172,
      "d": 1295.43710000001,
      "v": 101
    },
    {
      "midi": 61,
      "hit": false,
      "t": 209997.172,
      "d": 1664.7503083333431,
      "v": 82
    },
    {
      "midi": 64,
      "hit": false,
      "t": 210525.573975,
      "d": 298.29143750001094,
      "v": 106
    },
    {
      "midi": 63,
      "hit": false,
      "t": 210873.58065208336,
      "d": 305.3936145833286,
      "v": 116
    },
    {
      "midi": 63,
      "hit": false,
      "t": 211190.33775,
      "d": 1181.8022666666366,
      "v": 106
    },
    {
      "midi": 47,
      "hit": false,
      "t": 211356.52869375,
      "d": 1356.5158229166118,
      "v": 104
    },
    {
      "midi": 66,
      "hit": false,
      "t": 211360.79,
      "d": 1352.2545166666096,
      "v": 106
    },
    {
      "midi": 61,
      "hit": false,
      "t": 212063.90553125,
      "d": 223.00836041665752,
      "v": 94
    },
    {
      "midi": 63,
      "hit": false,
      "t": 212383.50349999996,
      "d": 159.0887666666531,
      "v": 107
    },
    {
      "midi": 61,
      "hit": false,
      "t": 212724.40799999994,
      "d": 457.38020416669315,
      "v": 79
    },
    {
      "midi": 64,
      "hit": false,
      "t": 212727.24887083328,
      "d": 838.056895833317,
      "v": 105
    },
    {
      "midi": 49,
      "hit": false,
      "t": 212734.35104791663,
      "d": 1200.2679270833323,
      "v": 98
    },
    {
      "midi": 61,
      "hit": false,
      "t": 213228.66257291663,
      "d": 251.41706874998636,
      "v": 121
    },
    {
      "midi": 63,
      "hit": false,
      "t": 213572.40794374995,
      "d": 248.57619791667094,
      "v": 116
    },
    {
      "midi": 64,
      "hit": false,
      "t": 213913.31244374995,
      "d": 1011.3500166666636,
      "v": 99
    },
    {
      "midi": 57,
      "hit": false,
      "t": 213913.31244374995,
      "d": 1018.4521937500103,
      "v": 80
    },
    {
      "midi": 61,
      "hit": false,
      "t": 213913.31244374995,
      "d": 1053.963079166686,
      "v": 102
    },
    {
      "midi": 45,
      "hit": false,
      "t": 213913.31244374995,
      "d": 1551.1154750000278,
      "v": 99
    },
    {
      "midi": 64,
      "hit": false,
      "t": 215134.8869020833,
      "d": 215.90618333333987,
      "v": 103
    },
    {
      "midi": 64,
      "hit": false,
      "t": 215451.64399999997,
      "d": 464.4823812500108,
      "v": 118
    },
    {
      "midi": 40,
      "hit": false,
      "t": 215451.64399999997,
      "d": 1295.4371000000392,
      "v": 101
    },
    {
      "midi": 68,
      "hit": false,
      "t": 215451.64399999997,
      "d": 1352.2545166666969,
      "v": 103
    },
    {
      "midi": 64,
      "hit": false,
      "t": 215980.045975,
      "d": 298.29143750001094,
      "v": 106
    },
    {
      "midi": 63,
      "hit": false,
      "t": 216328.05265208334,
      "d": 258.5192458333331,
      "v": 116
    },
    {
      "midi": 63,
      "hit": false,
      "t": 216644.80975000001,
      "d": 1352.2545166666678,
      "v": 106
    },
    {
      "midi": 47,
      "hit": false,
      "t": 216811.00069375001,
      "d": 1356.51582291667,
      "v": 104
    },
    {
      "midi": 66,
      "hit": false,
      "t": 216815.26200000002,
      "d": 1352.2545166666678,
      "v": 106
    },
    {
      "midi": 76,
      "hit": false,
      "t": 217504.17317708334,
      "d": 213.06531249999534,
      "v": 100
    },
    {
      "midi": 75,
      "hit": false,
      "t": 217845.07767708335,
      "d": 194.5996520833287,
      "v": 97
    },
    {
      "midi": 61,
      "hit": false,
      "t": 218150.47129166668,
      "d": 847.9999437500082,
      "v": 106
    },
    {
      "midi": 68,
      "hit": false,
      "t": 218150.47129166668,
      "d": 869.3064750000194,
      "v": 107
    },
    {
      "midi": 64,
      "hit": false,
      "t": 218150.47129166668,
      "d": 1075.269610416697,
      "v": 103
    },
    {
      "midi": 68,
      "hit": false,
      "t": 219055.28865208337,
      "d": 142.04354166667326,
      "v": 105
    },
    {
      "midi": 61,
      "hit": false,
      "t": 219372.04575000005,
      "d": 1267.0283916666522,
      "v": 103
    },
    {
      "midi": 66,
      "hit": false,
      "t": 219372.04575000005,
      "d": 1281.2327458333166,
      "v": 110
    },
    {
      "midi": 69,
      "hit": false,
      "t": 219372.04575000005,
      "d": 1352.2545166666387,
      "v": 111
    },
    {
      "midi": 69,
      "hit": false,
      "t": 220901.85469375,
      "d": 1103.6783187499968,
      "v": 112
    },
    {
      "midi": 64,
      "hit": false,
      "t": 220901.85469375,
      "d": 1107.939624999999,
      "v": 111
    },
    {
      "midi": 61,
      "hit": false,
      "t": 220901.85469375,
      "d": 1122.1439791666635,
      "v": 108
    },
    {
      "midi": 64,
      "hit": false,
      "t": 221587.92500000022,
      "d": 507.09544375000405,
      "v": 1
    },
    {
      "midi": 63,
      "hit": false,
      "t": 222099.28175000023,
      "d": 1359.3566937499854,
      "v": 1
    },
    {
      "midi": 68,
      "hit": false,
      "t": 222269.734,
      "d": 1132.0870270833548,
      "v": 101
    },
    {
      "midi": 60,
      "hit": false,
      "t": 222269.734,
      "d": 1139.1892041667015,
      "v": 97
    },
    {
      "midi": 63,
      "hit": false,
      "t": 222272.57487083334,
      "d": 1122.1439791666635,
      "v": 104
    },
    {
      "midi": 64,
      "hit": false,
      "t": 223462.89975000022,
      "d": 847.9999437500082,
      "v": 1
    },
    {
      "midi": 61,
      "hit": false,
      "t": 223604.94329166668,
      "d": 847.9999437500082,
      "v": 110
    },
    {
      "midi": 68,
      "hit": false,
      "t": 223604.94329166668,
      "d": 1068.1674333333503,
      "v": 111
    },
    {
      "midi": 64,
      "hit": false,
      "t": 223604.94329166668,
      "d": 1075.269610416697,
      "v": 107
    },
    {
      "midi": 68,
      "hit": false,
      "t": 224315.16100000023,
      "d": 1018.4521937500103,
      "v": 1
    },
    {
      "midi": 71,
      "hit": false,
      "t": 224315.16100000023,
      "d": 1018.4521937500103,
      "v": 1
    },
    {
      "midi": 61,
      "hit": false,
      "t": 224531.06718333336,
      "d": 142.04354166667326,
      "v": 105
    },
    {
      "midi": 64,
      "hit": false,
      "t": 224808.0520895834,
      "d": 1139.1892041666724,
      "v": 111
    },
    {
      "midi": 61,
      "hit": false,
      "t": 224808.0520895834,
      "d": 1167.5979125000013,
      "v": 110
    },
    {
      "midi": 57,
      "hit": false,
      "t": 224808.0520895834,
      "d": 1210.2109749999945,
      "v": 103
    },
    {
      "midi": 66,
      "hit": false,
      "t": 225337.87450000024,
      "d": 507.09544375000405,
      "v": 1
    },
    {
      "midi": 69,
      "hit": false,
      "t": 225337.87450000024,
      "d": 507.09544375000405,
      "v": 1
    },
    {
      "midi": 64,
      "hit": false,
      "t": 225849.23125000024,
      "d": 336.64319375000196,
      "v": 1
    },
    {
      "midi": 68,
      "hit": false,
      "t": 225849.23125000024,
      "d": 336.64319375000196,
      "v": 1
    },
    {
      "midi": 64,
      "hit": false,
      "t": 226012.58132291673,
      "d": 205.96313541664858,
      "v": 95
    },
    {
      "midi": 68,
      "hit": false,
      "t": 226190.13575000025,
      "d": 336.64319375000196,
      "v": 1
    },
    {
      "midi": 71,
      "hit": false,
      "t": 226190.13575000025,
      "d": 336.64319375000196,
      "v": 1
    },
    {
      "midi": 68,
      "hit": false,
      "t": 226353.4858229167,
      "d": 1107.939624999999,
      "v": 112
    },
    {
      "midi": 64,
      "hit": false,
      "t": 226356.32669375004,
      "d": 504.2545729166595,
      "v": 111
    },
    {
      "midi": 59,
      "hit": false,
      "t": 226356.32669375004,
      "d": 1122.1439791666635,
      "v": 108
    },
    {
      "midi": 64,
      "hit": false,
      "t": 226874.78562083337,
      "d": 272.72359999999753,
      "v": 103
    },
    {
      "midi": 63,
      "hit": false,
      "t": 227227.0536041667,
      "d": 198.86095833333093,
      "v": 111
    },
    {
      "midi": 63,
      "hit": false,
      "t": 227560.85592708338,
      "d": 1345.152339583321,
      "v": 108
    },
    {
      "midi": 59,
      "hit": false,
      "t": 227727.04687083338,
      "d": 656.241162499995,
      "v": 106
    },
    {
      "midi": 66,
      "hit": false,
      "t": 227727.04687083338,
      "d": 1132.0870270833257,
      "v": 110
    },
    {
      "midi": 48,
      "hit": false,
      "t": 228413.11717708336,
      "d": 556.8106833333441,
      "v": 98
    },
    {
      "midi": 60,
      "hit": false,
      "t": 228413.11717708336,
      "d": 563.9128604166908,
      "v": 105
    },
    {
      "midi": 56,
      "hit": false,
      "t": 229073.6196458334,
      "d": 2573.828974999982,
      "v": 80
    },
    {
      "midi": 61,
      "hit": false,
      "t": 229073.6196458334,
      "d": 2573.828974999982,
      "v": 106
    },
    {
      "midi": 64,
      "hit": false,
      "t": 229073.6196458334,
      "d": 2573.828974999982,
      "v": 103
    },
    {
      "midi": 68,
      "hit": false,
      "t": 229073.6196458334,
      "d": 2573.828974999982,
      "v": 107
    },
    {
      "midi": 49,
      "hit": false,
      "t": 229097.7670479167,
      "d": 2573.828974999982,
      "v": 98
    }
  ]
}