{
  "jsonPath": "Pop/Dance Pop/Britney Spears/circus.json",
  "path": "Pop\\Dance Pop\\Britney Spears\\Circus.mid",
  "name": "Circus",
  "difficulty": "Advanced",
  "bpm": 129.0020188815955,
  "notes": [
    {
      "midi": 54,
      "hit": false,
      "t": 81859.18400000001,
      "d": 155.0363333333371,
      "v": 88
    },
    {
      "midi": 61,
      "hit": false,
      "t": 82091.7385,
      "d": 155.0363333333371,
      "v": 88
    },
    {
      "midi": 66,
      "hit": false,
      "t": 82091.7385,
      "d": 155.0363333333371,
      "v": 88
    },
    {
      "midi": 69,
      "hit": false,
      "t": 82091.7385,
      "d": 155.0363333333371,
      "v": 88
    },
    {
      "midi": 54,
      "hit": false,
      "t": 82324.293,
      "d": 155.0363333333371,
      "v": 88
    },
    {
      "midi": 61,
      "hit": false,
      "t": 82440.57025,
      "d": 155.0363333333371,
      "v": 88
    },
    {
      "midi": 66,
      "hit": false,
      "t": 82440.57025,
      "d": 155.0363333333371,
      "v": 88
    },
    {
      "midi": 69,
      "hit": false,
      "t": 82440.57025,
      "d": 155.0363333333371,
      "v": 88
    },
    {
      "midi": 54,
      "hit": false,
      "t": 82673.12475,
      "d": 155.0363333333371,
      "v": 88
    },
    {
      "midi": 61,
      "hit": false,
      "t": 82789.402,
      "d": 155.0363333333371,
      "v": 88
    },
    {
      "midi": 66,
      "hit": false,
      "t": 82789.402,
      "d": 155.0363333333371,
      "v": 88
    },
    {
      "midi": 69,
      "hit": false,
      "t": 82789.402,
      "d": 155.0363333333371,
      "v": 88
    },
    {
      "midi": 54,
      "hit": false,
      "t": 83021.9565,
      "d": 155.0363333333371,
      "v": 88
    },
    {
      "midi": 61,
      "hit": false,
      "t": 83138.23375,
      "d": 155.0363333333371,
      "v": 88
    },
    {
      "midi": 66,
      "hit": false,
      "t": 83138.23375,
      "d": 155.0363333333371,
      "v": 88
    },
    {
      "midi": 69,
      "hit": false,
      "t": 83138.23375,
      "d": 155.0363333333371,
      "v": 88
    },
    {
      "midi": 54,
      "hit": false,
      "t": 83370.78825,
      "d": 155.0363333333371,
      "v": 88
    },
    {
      "midi": 61,
      "hit": false,
      "t": 83487.0655,
      "d": 155.0363333333371,
      "v": 88
    },
    {
      "midi": 66,
      "hit": false,
      "t": 83487.0655,
      "d": 155.0363333333371,
      "v": 88
    },
    {
      "midi": 69,
      "hit": false,
      "t": 83487.0655,
      "d": 155.0363333333371,
      "v": 88
    },
    {
      "midi": 52,
      "hit": false,
      "t": 83719.62,
      "d": 155.0363333333371,
      "v": 88
    },
    {
      "midi": 59,
      "hit": false,
      "t": 83952.1745,
      "d": 155.0363333333371,
      "v": 88
    },
    {
      "midi": 64,
      "hit": false,
      "t": 83952.1745,
      "d": 155.0363333333371,
      "v": 88
    },
    {
      "midi": 69,
      "hit": false,
      "t": 83952.1745,
      "d": 155.0363333333371,
      "v": 88
    },
    {
      "midi": 52,
      "hit": false,
      "t": 84184.72899999999,
      "d": 155.0363333333371,
      "v": 88
    },
    {
      "midi": 59,
      "hit": false,
      "t": 84301.00624999999,
      "d": 155.0363333333371,
      "v": 88
    },
    {
      "midi": 64,
      "hit": false,
      "t": 84301.00624999999,
      "d": 155.0363333333371,
      "v": 88
    },
    {
      "midi": 69,
      "hit": false,
      "t": 84301.00624999999,
      "d": 155.0363333333371,
      "v": 88
    },
    {
      "midi": 52,
      "hit": false,
      "t": 84533.56074999999,
      "d": 155.0363333333371,
      "v": 88
    },
    {
      "midi": 59,
      "hit": false,
      "t": 84649.83799999999,
      "d": 155.0363333333371,
      "v": 88
    },
    {
      "midi": 64,
      "hit": false,
      "t": 84649.83799999999,
      "d": 155.0363333333371,
      "v": 88
    },
    {
      "midi": 69,
      "hit": false,
      "t": 84649.83799999999,
      "d": 155.0363333333371,
      "v": 88
    },
    {
      "midi": 52,
      "hit": false,
      "t": 84882.39249999999,
      "d": 155.0363333333371,
      "v": 88
    },
    {
      "midi": 59,
      "hit": false,
      "t": 84998.66974999999,
      "d": 155.0363333333371,
      "v": 88
    },
    {
      "midi": 64,
      "hit": false,
      "t": 84998.66974999999,
      "d": 155.0363333333371,
      "v": 88
    },
    {
      "midi": 69,
      "hit": false,
      "t": 84998.66974999999,
      "d": 155.0363333333371,
      "v": 88
    },
    {
      "midi": 52,
      "hit": false,
      "t": 85231.22424999998,
      "d": 155.0363333333371,
      "v": 88
    },
    {
      "midi": 59,
      "hit": false,
      "t": 85347.50149999998,
      "d": 155.0363333333371,
      "v": 88
    },
    {
      "midi": 64,
      "hit": false,
      "t": 85347.50149999998,
      "d": 155.0363333333371,
      "v": 88
    },
    {
      "midi": 68,
      "hit": false,
      "t": 85347.50149999998,
      "d": 155.0363333333371,
      "v": 88
    },
    {
      "midi": 50,
      "hit": false,
      "t": 85580.05599999998,
      "d": 155.0363333333371,
      "v": 88
    },
    {
      "midi": 57,
      "hit": false,
      "t": 85812.61049999998,
      "d": 155.0363333333371,
      "v": 88
    },
    {
      "midi": 62,
      "hit": false,
      "t": 85812.61049999998,
      "d": 155.0363333333371,
      "v": 88
    },
    {
      "midi": 66,
      "hit": false,
      "t": 85812.61049999998,
      "d": 155.0363333333371,
      "v": 88
    },
    {
      "midi": 50,
      "hit": false,
      "t": 86045.16499999998,
      "d": 155.0363333333371,
      "v": 88
    },
    {
      "midi": 57,
      "hit": false,
      "t": 86161.44224999998,
      "d": 155.0363333333371,
      "v": 88
    },
    {
      "midi": 62,
      "hit": false,
      "t": 86161.44224999998,
      "d": 155.0363333333371,
      "v": 88
    },
    {
      "midi": 66,
      "hit": false,
      "t": 86161.44224999998,
      "d": 155.0363333333371,
      "v": 88
    },
    {
      "midi": 50,
      "hit": false,
      "t": 86393.99674999998,
      "d": 155.0363333333371,
      "v": 88
    },
    {
      "midi": 57,
      "hit": false,
      "t": 86510.27399999998,
      "d": 155.0363333333371,
      "v": 88
    },
    {
      "midi": 62,
      "hit": false,
      "t": 86510.27399999998,
      "d": 155.0363333333371,
      "v": 88
    },
    {
      "midi": 66,
      "hit": false,
      "t": 86510.27399999998,
      "d": 155.0363333333371,
      "v": 88
    },
    {
      "midi": 50,
      "hit": false,
      "t": 86742.82849999997,
      "d": 155.0363333333371,
      "v": 88
    },
    {
      "midi": 57,
      "hit": false,
      "t": 86859.10574999997,
      "d": 155.0363333333371,
      "v": 88
    },
    {
      "midi": 62,
      "hit": false,
      "t": 86859.10574999997,
      "d": 155.0363333333371,
      "v": 88
    },
    {
      "midi": 66,
      "hit": false,
      "t": 86859.10574999997,
      "d": 155.0363333333371,
      "v": 88
    },
    {
      "midi": 50,
      "hit": false,
      "t": 87091.66024999997,
      "d": 155.0363333333371,
      "v": 88
    },
    {
      "midi": 57,
      "hit": false,
      "t": 87207.93749999997,
      "d": 155.0363333333371,
      "v": 88
    },
    {
      "midi": 62,
      "hit": false,
      "t": 87207.93749999997,
      "d": 155.0363333333371,
      "v": 88
    },
    {
      "midi": 66,
      "hit": false,
      "t": 87207.93749999997,
      "d": 155.0363333333371,
      "v": 88
    },
    {
      "midi": 52,
      "hit": false,
      "t": 87440.49199999997,
      "d": 155.0363333333371,
      "v": 88
    },
    {
      "midi": 57,
      "hit": false,
      "t": 87673.04649999997,
      "d": 155.0363333333371,
      "v": 88
    },
    {
      "midi": 59,
      "hit": false,
      "t": 87673.04649999997,
      "d": 155.0363333333371,
      "v": 88
    },
    {
      "midi": 64,
      "hit": false,
      "t": 87673.04649999997,
      "d": 155.0363333333371,
      "v": 88
    },
    {
      "midi": 52,
      "hit": false,
      "t": 87905.60099999997,
      "d": 155.0363333333371,
      "v": 88
    },
    {
      "midi": 57,
      "hit": false,
      "t": 88021.87824999997,
      "d": 155.0363333333371,
      "v": 88
    },
    {
      "midi": 59,
      "hit": false,
      "t": 88021.87824999997,
      "d": 155.0363333333371,
      "v": 88
    },
    {
      "midi": 64,
      "hit": false,
      "t": 88021.87824999997,
      "d": 155.0363333333371,
      "v": 88
    },
    {
      "midi": 52,
      "hit": false,
      "t": 88370.70999999996,
      "d": 38.75908333333791,
      "v": 88
    },
    {
      "midi": 59,
      "hit": false,
      "t": 88370.70999999996,
      "d": 155.0363333333371,
      "v": 88
    },
    {
      "midi": 64,
      "hit": false,
      "t": 88370.70999999996,
      "d": 155.0363333333371,
      "v": 88
    },
    {
      "midi": 69,
      "hit": false,
      "t": 88370.70999999996,
      "d": 155.0363333333371,
      "v": 88
    },
    {
      "midi": 52,
      "hit": false,
      "t": 88603.26449999996,
      "d": 155.0363333333371,
      "v": 88
    },
    {
      "midi": 59,
      "hit": false,
      "t": 88603.26449999996,
      "d": 155.0363333333371,
      "v": 88
    },
    {
      "midi": 64,
      "hit": false,
      "t": 88603.26449999996,
      "d": 155.0363333333371,
      "v": 88
    },
    {
      "midi": 69,
      "hit": false,
      "t": 88603.26449999996,
      "d": 155.0363333333371,
      "v": 88
    },
    {
      "midi": 52,
      "hit": false,
      "t": 88835.81899999996,
      "d": 155.0363333333371,
      "v": 88
    },
    {
      "midi": 59,
      "hit": false,
      "t": 88835.81899999996,
      "d": 155.0363333333371,
      "v": 88
    },
    {
      "midi": 64,
      "hit": false,
      "t": 88835.81899999996,
      "d": 155.0363333333371,
      "v": 88
    },
    {
      "midi": 68,
      "hit": false,
      "t": 88835.81899999996,
      "d": 155.0363333333371,
      "v": 88
    },
    {
      "midi": 52,
      "hit": false,
      "t": 89068.37349999996,
      "d": 155.0363333333371,
      "v": 88
    },
    {
      "midi": 59,
      "hit": false,
      "t": 89068.37349999996,
      "d": 155.0363333333371,
      "v": 88
    },
    {
      "midi": 64,
      "hit": false,
      "t": 89068.37349999996,
      "d": 155.0363333333371,
      "v": 88
    },
    {
      "midi": 68,
      "hit": false,
      "t": 89068.37349999996,
      "d": 155.0363333333371,
      "v": 88
    },
    {
      "midi": 54,
      "hit": false,
      "t": 89300.92799999996,
      "d": 155.0363333333371,
      "v": 88
    },
    {
      "midi": 61,
      "hit": false,
      "t": 89533.48249999995,
      "d": 155.0363333333371,
      "v": 88
    },
    {
      "midi": 66,
      "hit": false,
      "t": 89533.48249999995,
      "d": 155.0363333333371,
      "v": 88
    },
    {
      "midi": 69,
      "hit": false,
      "t": 89533.48249999995,
      "d": 155.0363333333371,
      "v": 88
    },
    {
      "midi": 54,
      "hit": false,
      "t": 89766.03699999995,
      "d": 155.0363333333371,
      "v": 88
    },
    {
      "midi": 61,
      "hit": false,
      "t": 89882.31424999995,
      "d": 155.0363333333371,
      "v": 88
    },
    {
      "midi": 66,
      "hit": false,
      "t": 89882.31424999995,
      "d": 155.0363333333371,
      "v": 88
    },
    {
      "midi": 69,
      "hit": false,
      "t": 89882.31424999995,
      "d": 155.0363333333371,
      "v": 88
    },
    {
      "midi": 54,
      "hit": false,
      "t": 90114.86874999995,
      "d": 155.0363333333371,
      "v": 88
    },
    {
      "midi": 61,
      "hit": false,
      "t": 90231.14599999995,
      "d": 155.0363333333371,
      "v": 88
    },
    {
      "midi": 66,
      "hit": false,
      "t": 90231.14599999995,
      "d": 155.0363333333371,
      "v": 88
    },
    {
      "midi": 69,
      "hit": false,
      "t": 90231.14599999995,
      "d": 155.0363333333371,
      "v": 88
    },
    {
      "midi": 54,
      "hit": false,
      "t": 90463.70049999995,
      "d": 155.0363333333371,
      "v": 88
    },
    {
      "midi": 61,
      "hit": false,
      "t": 90579.97774999995,
      "d": 155.0363333333371,
      "v": 88
    },
    {
      "midi": 66,
      "hit": false,
      "t": 90579.97774999995,
      "d": 155.0363333333371,
      "v": 88
    },
    {
      "midi": 69,
      "hit": false,
      "t": 90579.97774999995,
      "d": 155.0363333333371,
      "v": 88
    },
    {
      "midi": 54,
      "hit": false,
      "t": 90812.53224999995,
      "d": 155.0363333333371,
      "v": 88
    },
    {
      "midi": 61,
      "hit": false,
      "t": 90928.80949999994,
      "d": 155.0363333333371,
      "v": 88
    },
    {
      "midi": 66,
      "hit": false,
      "t": 90928.80949999994,
      "d": 155.0363333333371,
      "v": 88
    },
    {
      "midi": 69,
      "hit": false,
      "t": 90928.80949999994,
      "d": 155.0363333333371,
      "v": 88
    },
    {
      "midi": 52,
      "hit": false,
      "t": 91161.36399999994,
      "d": 155.0363333333371,
      "v": 88
    },
    {
      "midi": 59,
      "hit": false,
      "t": 91393.91849999994,
      "d": 155.0363333333371,
      "v": 88
    },
    {
      "midi": 64,
      "hit": false,
      "t": 91393.91849999994,
      "d": 155.0363333333371,
      "v": 88
    },
    {
      "midi": 69,
      "hit": false,
      "t": 91393.91849999994,
      "d": 155.0363333333371,
      "v": 88
    },
    {
      "midi": 52,
      "hit": false,
      "t": 91626.47299999994,
      "d": 155.0363333333371,
      "v": 88
    },
    {
      "midi": 59,
      "hit": false,
      "t": 91742.75024999994,
      "d": 155.0363333333371,
      "v": 88
    },
    {
      "midi": 64,
      "hit": false,
      "t": 91742.75024999994,
      "d": 155.0363333333371,
      "v": 88
    },
    {
      "midi": 69,
      "hit": false,
      "t": 91742.75024999994,
      "d": 155.0363333333371,
      "v": 88
    },
    {
      "midi": 52,
      "hit": false,
      "t": 91975.30474999994,
      "d": 155.0363333333371,
      "v": 88
    },
    {
      "midi": 59,
      "hit": false,
      "t": 92091.58199999994,
      "d": 155.0363333333371,
      "v": 88
    },
    {
      "midi": 64,
      "hit": false,
      "t": 92091.58199999994,
      "d": 155.0363333333371,
      "v": 88
    },
    {
      "midi": 69,
      "hit": false,
      "t": 92091.58199999994,
      "d": 155.0363333333371,
      "v": 88
    },
    {
      "midi": 52,
      "hit": false,
      "t": 92324.13649999994,
      "d": 155.0363333333371,
      "v": 88
    },
    {
      "midi": 59,
      "hit": false,
      "t": 92440.41374999993,
      "d": 155.0363333333371,
      "v": 88
    },
    {
      "midi": 64,
      "hit": false,
      "t": 92440.41374999993,
      "d": 155.0363333333371,
      "v": 88
    },
    {
      "midi": 69,
      "hit": false,
      "t": 92440.41374999993,
      "d": 155.0363333333371,
      "v": 88
    },
    {
      "midi": 52,
      "hit": false,
      "t": 92672.96824999993,
      "d": 155.0363333333371,
      "v": 88
    },
    {
      "midi": 59,
      "hit": false,
      "t": 92789.24549999993,
      "d": 155.0363333333371,
      "v": 88
    },
    {
      "midi": 64,
      "hit": false,
      "t": 92789.24549999993,
      "d": 155.0363333333371,
      "v": 88
    },
    {
      "midi": 68,
      "hit": false,
      "t": 92789.24549999993,
      "d": 155.0363333333371,
      "v": 88
    },
    {
      "midi": 50,
      "hit": false,
      "t": 93021.79999999993,
      "d": 155.0363333333371,
      "v": 88
    },
    {
      "midi": 57,
      "hit": false,
      "t": 93254.35449999993,
      "d": 155.0363333333371,
      "v": 88
    },
    {
      "midi": 62,
      "hit": false,
      "t": 93254.35449999993,
      "d": 155.0363333333371,
      "v": 88
    },
    {
      "midi": 66,
      "hit": false,
      "t": 93254.35449999993,
      "d": 155.0363333333371,
      "v": 88
    },
    {
      "midi": 50,
      "hit": false,
      "t": 93486.90899999993,
      "d": 155.0363333333371,
      "v": 88
    },
    {
      "midi": 57,
      "hit": false,
      "t": 93603.18624999993,
      "d": 155.0363333333371,
      "v": 88
    },
    {
      "midi": 62,
      "hit": false,
      "t": 93603.18624999993,
      "d": 155.0363333333371,
      "v": 88
    },
    {
      "midi": 66,
      "hit": false,
      "t": 93603.18624999993,
      "d": 155.0363333333371,
      "v": 88
    },
    {
      "midi": 50,
      "hit": false,
      "t": 93835.74074999992,
      "d": 155.0363333333371,
      "v": 88
    },
    {
      "midi": 57,
      "hit": false,
      "t": 93952.01799999992,
      "d": 155.0363333333371,
      "v": 88
    },
    {
      "midi": 62,
      "hit": false,
      "t": 93952.01799999992,
      "d": 155.0363333333371,
      "v": 88
    },
    {
      "midi": 66,
      "hit": false,
      "t": 93952.01799999992,
      "d": 155.0363333333371,
      "v": 88
    },
    {
      "midi": 50,
      "hit": false,
      "t": 94184.57249999992,
      "d": 155.0363333333371,
      "v": 88
    },
    {
      "midi": 57,
      "hit": false,
      "t": 94300.84974999992,
      "d": 155.0363333333371,
      "v": 88
    },
    {
      "midi": 62,
      "hit": false,
      "t": 94300.84974999992,
      "d": 155.0363333333371,
      "v": 88
    },
    {
      "midi": 66,
      "hit": false,
      "t": 94300.84974999992,
      "d": 155.0363333333371,
      "v": 88
    },
    {
      "midi": 50,
      "hit": false,
      "t": 94533.40424999992,
      "d": 155.0363333333371,
      "v": 88
    },
    {
      "midi": 57,
      "hit": false,
      "t": 94649.68149999992,
      "d": 155.0363333333371,
      "v": 88
    },
    {
      "midi": 62,
      "hit": false,
      "t": 94649.68149999992,
      "d": 155.0363333333371,
      "v": 88
    },
    {
      "midi": 66,
      "hit": false,
      "t": 94649.68149999992,
      "d": 155.0363333333371,
      "v": 88
    },
    {
      "midi": 52,
      "hit": false,
      "t": 94882.23599999992,
      "d": 155.0363333333371,
      "v": 88
    },
    {
      "midi": 57,
      "hit": false,
      "t": 95114.79049999992,
      "d": 155.0363333333371,
      "v": 88
    },
    {
      "midi": 59,
      "hit": false,
      "t": 95114.79049999992,
      "d": 155.0363333333371,
      "v": 88
    },
    {
      "midi": 64,
      "hit": false,
      "t": 95114.79049999992,
      "d": 155.0363333333371,
      "v": 88
    },
    {
      "midi": 52,
      "hit": false,
      "t": 95347.34499999991,
      "d": 155.0363333333371,
      "v": 88
    },
    {
      "midi": 57,
      "hit": false,
      "t": 95463.62224999991,
      "d": 155.0363333333371,
      "v": 88
    },
    {
      "midi": 59,
      "hit": false,
      "t": 95463.62224999991,
      "d": 155.0363333333371,
      "v": 88
    },
    {
      "midi": 64,
      "hit": false,
      "t": 95463.62224999991,
      "d": 155.0363333333371,
      "v": 88
    },
    {
      "midi": 52,
      "hit": false,
      "t": 95812.45399999991,
      "d": 38.75908333333791,
      "v": 88
    },
    {
      "midi": 59,
      "hit": false,
      "t": 95812.45399999991,
      "d": 155.0363333333371,
      "v": 88
    },
    {
      "midi": 64,
      "hit": false,
      "t": 95812.45399999991,
      "d": 155.0363333333371,
      "v": 88
    },
    {
      "midi": 69,
      "hit": false,
      "t": 95812.45399999991,
      "d": 155.0363333333371,
      "v": 88
    },
    {
      "midi": 52,
      "hit": false,
      "t": 96045.00849999991,
      "d": 155.0363333333371,
      "v": 88
    },
    {
      "midi": 59,
      "hit": false,
      "t": 96045.00849999991,
      "d": 155.0363333333371,
      "v": 88
    },
    {
      "midi": 64,
      "hit": false,
      "t": 96045.00849999991,
      "d": 155.0363333333371,
      "v": 88
    },
    {
      "midi": 69,
      "hit": false,
      "t": 96045.00849999991,
      "d": 155.0363333333371,
      "v": 88
    },
    {
      "midi": 52,
      "hit": false,
      "t": 96277.56299999991,
      "d": 155.0363333333371,
      "v": 88
    },
    {
      "midi": 59,
      "hit": false,
      "t": 96277.56299999991,
      "d": 155.0363333333371,
      "v": 88
    },
    {
      "midi": 64,
      "hit": false,
      "t": 96277.56299999991,
      "d": 155.0363333333371,
      "v": 88
    },
    {
      "midi": 68,
      "hit": false,
      "t": 96277.56299999991,
      "d": 155.0363333333371,
      "v": 88
    },
    {
      "midi": 52,
      "hit": false,
      "t": 96510.1174999999,
      "d": 155.0363333333371,
      "v": 88
    },
    {
      "midi": 59,
      "hit": false,
      "t": 96510.1174999999,
      "d": 155.0363333333371,
      "v": 88
    },
    {
      "midi": 64,
      "hit": false,
      "t": 96510.1174999999,
      "d": 155.0363333333371,
      "v": 88
    },
    {
      "midi": 68,
      "hit": false,
      "t": 96510.1174999999,
      "d": 155.0363333333371,
      "v": 88
    },
    {
      "midi": 42,
      "hit": false,
      "t": 96742.6719999999,
      "d": 1375.9474583333358,
      "v": 114
    },
    {
      "midi": 42,
      "hit": false,
      "t": 98254.27624999991,
      "d": 116.27724999999919,
      "v": 90
    },
    {
      "midi": 37,
      "hit": false,
      "t": 98370.5534999999,
      "d": 116.27724999999919,
      "v": 90
    },
    {
      "midi": 42,
      "hit": false,
      "t": 98486.8307499999,
      "d": 116.27724999999919,
      "v": 90
    },
    {
      "midi": 40,
      "hit": false,
      "t": 98603.1079999999,
      "d": 1375.9474583333358,
      "v": 114
    },
    {
      "midi": 40,
      "hit": false,
      "t": 99998.43499999991,
      "d": 116.27724999999919,
      "v": 102
    },
    {
      "midi": 38,
      "hit": false,
      "t": 100463.5439999999,
      "d": 1375.9474583333358,
      "v": 114
    },
    {
      "midi": 35,
      "hit": false,
      "t": 101858.87099999991,
      "d": 116.27724999999919,
      "v": 90
    },
    {
      "midi": 38,
      "hit": false,
      "t": 102091.42549999991,
      "d": 116.27724999999919,
      "v": 102
    },
    {
      "midi": 40,
      "hit": false,
      "t": 102323.97999999991,
      "d": 1375.9474583333358,
      "v": 114
    },
    {
      "midi": 40,
      "hit": false,
      "t": 103719.30699999991,
      "d": 310.07266666665964,
      "v": 90
    },
    {
      "midi": 42,
      "hit": false,
      "t": 104184.41599999991,
      "d": 1375.9474583333358,
      "v": 114
    },
    {
      "midi": 42,
      "hit": false,
      "t": 105696.02024999991,
      "d": 116.27724999999919,
      "v": 90
    },
    {
      "midi": 37,
      "hit": false,
      "t": 105812.29749999991,
      "d": 116.27724999999919,
      "v": 90
    },
    {
      "midi": 42,
      "hit": false,
      "t": 105928.57474999991,
      "d": 116.27724999999919,
      "v": 90
    },
    {
      "midi": 40,
      "hit": false,
      "t": 106044.85199999991,
      "d": 1375.9474583333358,
      "v": 114
    },
    {
      "midi": 40,
      "hit": false,
      "t": 107440.17899999992,
      "d": 116.27724999999919,
      "v": 102
    },
    {
      "midi": 38,
      "hit": false,
      "t": 107905.28799999991,
      "d": 1375.9474583333358,
      "v": 114
    },
    {
      "midi": 35,
      "hit": false,
      "t": 109300.61499999992,
      "d": 116.27724999999919,
      "v": 90
    },
    {
      "midi": 38,
      "hit": false,
      "t": 109533.16949999992,
      "d": 116.27724999999919,
      "v": 102
    },
    {
      "midi": 40,
      "hit": false,
      "t": 109765.72399999991,
      "d": 1375.9474583333358,
      "v": 114
    },
    {
      "midi": 40,
      "hit": false,
      "t": 111161.05099999992,
      "d": 310.07266666665964,
      "v": 90
    },
    {
      "midi": 42,
      "hit": false,
      "t": 111626.15999999992,
      "d": 1375.9474583333358,
      "v": 114
    },
    {
      "midi": 42,
      "hit": false,
      "t": 113137.76424999992,
      "d": 116.27724999999919,
      "v": 90
    },
    {
      "midi": 37,
      "hit": false,
      "t": 113254.04149999992,
      "d": 116.27724999999919,
      "v": 90
    },
    {
      "midi": 42,
      "hit": false,
      "t": 113370.31874999992,
      "d": 116.27724999999919,
      "v": 90
    },
    {
      "midi": 40,
      "hit": false,
      "t": 113486.59599999992,
      "d": 1375.9474583333358,
      "v": 114
    },
    {
      "midi": 40,
      "hit": false,
      "t": 114881.92299999992,
      "d": 116.27724999999919,
      "v": 102
    },
    {
      "midi": 38,
      "hit": false,
      "t": 115347.03199999992,
      "d": 1375.9474583333358,
      "v": 114
    },
    {
      "midi": 35,
      "hit": false,
      "t": 116742.35899999992,
      "d": 116.27724999999919,
      "v": 90
    },
    {
      "midi": 38,
      "hit": false,
      "t": 116974.91349999992,
      "d": 116.27724999999919,
      "v": 102
    },
    {
      "midi": 40,
      "hit": false,
      "t": 117207.46799999992,
      "d": 1375.9474583333358,
      "v": 114
    },
    {
      "midi": 40,
      "hit": false,
      "t": 118602.79499999993,
      "d": 116.27724999999919,
      "v": 90
    },
    {
      "midi": 42,
      "hit": false,
      "t": 119067.90399999992,
      "d": 1375.9474583333358,
      "v": 114
    },
    {
      "midi": 42,
      "hit": false,
      "t": 120579.50824999993,
      "d": 116.27724999999919,
      "v": 90
    },
    {
      "midi": 37,
      "hit": false,
      "t": 120695.78549999993,
      "d": 116.27724999999919,
      "v": 90
    },
    {
      "midi": 42,
      "hit": false,
      "t": 120812.06274999992,
      "d": 116.27724999999919,
      "v": 90
    },
    {
      "midi": 40,
      "hit": false,
      "t": 120928.33999999992,
      "d": 1375.9474583333358,
      "v": 114
    },
    {
      "midi": 40,
      "hit": false,
      "t": 122323.66699999993,
      "d": 310.07266666665964,
      "v": 102
    },
    {
      "midi": 38,
      "hit": false,
      "t": 122788.77599999993,
      "d": 1375.9474583333358,
      "v": 114
    },
    {
      "midi": 35,
      "hit": false,
      "t": 124184.10299999993,
      "d": 116.27724999999919,
      "v": 90
    },
    {
      "midi": 38,
      "hit": false,
      "t": 124416.65749999993,
      "d": 116.27724999999919,
      "v": 102
    },
    {
      "midi": 40,
      "hit": false,
      "t": 124649.21199999993,
      "d": 1375.9474583333358,
      "v": 114
    },
    {
      "midi": 54,
      "hit": false,
      "t": 126509.64799999993,
      "d": 155.0363333333371,
      "v": 88
    },
    {
      "midi": 61,
      "hit": false,
      "t": 126742.20249999993,
      "d": 155.0363333333371,
      "v": 88
    },
    {
      "midi": 66,
      "hit": false,
      "t": 126742.20249999993,
      "d": 155.0363333333371,
      "v": 88
    },
    {
      "midi": 69,
      "hit": false,
      "t": 126742.20249999993,
      "d": 155.0363333333371,
      "v": 88
    },
    {
      "midi": 54,
      "hit": false,
      "t": 126974.75699999993,
      "d": 155.0363333333371,
      "v": 88
    },
    {
      "midi": 61,
      "hit": false,
      "t": 127091.03424999992,
      "d": 155.0363333333371,
      "v": 88
    },
    {
      "midi": 66,
      "hit": false,
      "t": 127091.03424999992,
      "d": 155.0363333333371,
      "v": 88
    },
    {
      "midi": 69,
      "hit": false,
      "t": 127091.03424999992,
      "d": 155.0363333333371,
      "v": 88
    },
    {
      "midi": 54,
      "hit": false,
      "t": 127323.58874999992,
      "d": 155.0363333333371,
      "v": 88
    },
    {
      "midi": 61,
      "hit": false,
      "t": 127439.86599999992,
      "d": 155.0363333333371,
      "v": 88
    },
    {
      "midi": 66,
      "hit": false,
      "t": 127439.86599999992,
      "d": 155.0363333333371,
      "v": 88
    },
    {
      "midi": 69,
      "hit": false,
      "t": 127439.86599999992,
      "d": 155.0363333333371,
      "v": 88
    },
    {
      "midi": 54,
      "hit": false,
      "t": 127672.42049999992,
      "d": 155.0363333333371,
      "v": 88
    },
    {
      "midi": 61,
      "hit": false,
      "t": 127788.69774999992,
      "d": 155.0363333333371,
      "v": 88
    },
    {
      "midi": 66,
      "hit": false,
      "t": 127788.69774999992,
      "d": 155.0363333333371,
      "v": 88
    },
    {
      "midi": 69,
      "hit": false,
      "t": 127788.69774999992,
      "d": 155.0363333333371,
      "v": 88
    },
    {
      "midi": 54,
      "hit": false,
      "t": 128021.25224999992,
      "d": 155.0363333333371,
      "v": 88
    },
    {
      "midi": 61,
      "hit": false,
      "t": 128137.52949999992,
      "d": 155.0363333333371,
      "v": 88
    },
    {
      "midi": 66,
      "hit": false,
      "t": 128137.52949999992,
      "d": 155.0363333333371,
      "v": 88
    },
    {
      "midi": 69,
      "hit": false,
      "t": 128137.52949999992,
      "d": 155.0363333333371,
      "v": 88
    },
    {
      "midi": 52,
      "hit": false,
      "t": 128370.08399999992,
      "d": 155.0363333333371,
      "v": 88
    },
    {
      "midi": 59,
      "hit": false,
      "t": 128602.63849999991,
      "d": 155.0363333333371,
      "v": 88
    },
    {
      "midi": 64,
      "hit": false,
      "t": 128602.63849999991,
      "d": 155.0363333333371,
      "v": 88
    },
    {
      "midi": 69,
      "hit": false,
      "t": 128602.63849999991,
      "d": 155.0363333333371,
      "v": 88
    },
    {
      "midi": 52,
      "hit": false,
      "t": 128835.19299999991,
      "d": 155.0363333333371,
      "v": 88
    },
    {
      "midi": 59,
      "hit": false,
      "t": 128951.47024999991,
      "d": 155.0363333333371,
      "v": 88
    },
    {
      "midi": 64,
      "hit": false,
      "t": 128951.47024999991,
      "d": 155.0363333333371,
      "v": 88
    },
    {
      "midi": 69,
      "hit": false,
      "t": 128951.47024999991,
      "d": 155.0363333333371,
      "v": 88
    },
    {
      "midi": 52,
      "hit": false,
      "t": 129184.02474999991,
      "d": 155.0363333333371,
      "v": 88
    },
    {
      "midi": 59,
      "hit": false,
      "t": 129300.30199999991,
      "d": 155.0363333333371,
      "v": 88
    },
    {
      "midi": 64,
      "hit": false,
      "t": 129300.30199999991,
      "d": 155.0363333333371,
      "v": 88
    },
    {
      "midi": 69,
      "hit": false,
      "t": 129300.30199999991,
      "d": 155.0363333333371,
      "v": 88
    },
    {
      "midi": 52,
      "hit": false,
      "t": 129532.8564999999,
      "d": 155.0363333333371,
      "v": 88
    },
    {
      "midi": 59,
      "hit": false,
      "t": 129649.1337499999,
      "d": 155.0363333333371,
      "v": 88
    },
    {
      "midi": 64,
      "hit": false,
      "t": 129649.1337499999,
      "d": 155.0363333333371,
      "v": 88
    },
    {
      "midi": 69,
      "hit": false,
      "t": 129649.1337499999,
      "d": 155.0363333333371,
      "v": 88
    },
    {
      "midi": 52,
      "hit": false,
      "t": 129881.6882499999,
      "d": 155.0363333333371,
      "v": 88
    },
    {
      "midi": 59,
      "hit": false,
      "t": 129997.9654999999,
      "d": 155.0363333333371,
      "v": 88
    },
    {
      "midi": 64,
      "hit": false,
      "t": 129997.9654999999,
      "d": 155.0363333333371,
      "v": 88
    },
    {
      "midi": 68,
      "hit": false,
      "t": 129997.9654999999,
      "d": 155.0363333333371,
      "v": 88
    },
    {
      "midi": 50,
      "hit": false,
      "t": 130230.5199999999,
      "d": 155.0363333333371,
      "v": 88
    },
    {
      "midi": 57,
      "hit": false,
      "t": 130463.0744999999,
      "d": 155.0363333333371,
      "v": 88
    },
    {
      "midi": 62,
      "hit": false,
      "t": 130463.0744999999,
      "d": 155.0363333333371,
      "v": 88
    },
    {
      "midi": 66,
      "hit": false,
      "t": 130463.0744999999,
      "d": 155.0363333333371,
      "v": 88
    },
    {
      "midi": 50,
      "hit": false,
      "t": 130695.6289999999,
      "d": 155.0363333333371,
      "v": 88
    },
    {
      "midi": 57,
      "hit": false,
      "t": 130811.9062499999,
      "d": 155.0363333333371,
      "v": 88
    },
    {
      "midi": 62,
      "hit": false,
      "t": 130811.9062499999,
      "d": 155.0363333333371,
      "v": 88
    },
    {
      "midi": 66,
      "hit": false,
      "t": 130811.9062499999,
      "d": 155.0363333333371,
      "v": 88
    },
    {
      "midi": 50,
      "hit": false,
      "t": 131044.4607499999,
      "d": 155.0363333333371,
      "v": 88
    },
    {
      "midi": 57,
      "hit": false,
      "t": 131160.7379999999,
      "d": 155.03633333335165,
      "v": 88
    },
    {
      "midi": 62,
      "hit": false,
      "t": 131160.7379999999,
      "d": 155.03633333335165,
      "v": 88
    },
    {
      "midi": 66,
      "hit": false,
      "t": 131160.7379999999,
      "d": 155.03633333335165,
      "v": 88
    },
    {
      "midi": 50,
      "hit": false,
      "t": 131393.29249999992,
      "d": 155.03633333335165,
      "v": 88
    },
    {
      "midi": 57,
      "hit": false,
      "t": 131509.56974999994,
      "d": 155.03633333335165,
      "v": 88
    },
    {
      "midi": 62,
      "hit": false,
      "t": 131509.56974999994,
      "d": 155.03633333335165,
      "v": 88
    },
    {
      "midi": 66,
      "hit": false,
      "t": 131509.56974999994,
      "d": 155.03633333335165,
      "v": 88
    },
    {
      "midi": 50,
      "hit": false,
      "t": 131742.12424999996,
      "d": 155.03633333335165,
      "v": 88
    },
    {
      "midi": 57,
      "hit": false,
      "t": 131858.40149999998,
      "d": 155.03633333335165,
      "v": 88
    },
    {
      "midi": 62,
      "hit": false,
      "t": 131858.40149999998,
      "d": 155.03633333335165,
      "v": 88
    },
    {
      "midi": 66,
      "hit": false,
      "t": 131858.40149999998,
      "d": 155.03633333335165,
      "v": 88
    },
    {
      "midi": 52,
      "hit": false,
      "t": 132090.956,
      "d": 155.03633333332255,
      "v": 88
    },
    {
      "midi": 57,
      "hit": false,
      "t": 132323.5105,
      "d": 155.03633333332255,
      "v": 88
    },
    {
      "midi": 59,
      "hit": false,
      "t": 132323.5105,
      "d": 155.03633333332255,
      "v": 88
    },
    {
      "midi": 64,
      "hit": false,
      "t": 132323.5105,
      "d": 155.03633333332255,
      "v": 88
    },
    {
      "midi": 52,
      "hit": false,
      "t": 132556.065,
      "d": 155.03633333335165,
      "v": 88
    },
    {
      "midi": 57,
      "hit": false,
      "t": 132672.34225000002,
      "d": 155.03633333335165,
      "v": 88
    },
    {
      "midi": 59,
      "hit": false,
      "t": 132672.34225000002,
      "d": 155.03633333335165,
      "v": 88
    },
    {
      "midi": 64,
      "hit": false,
      "t": 132672.34225000002,
      "d": 155.03633333335165,
      "v": 88
    },
    {
      "midi": 52,
      "hit": false,
      "t": 133021.17400000006,
      "d": 38.75908333333791,
      "v": 88
    },
    {
      "midi": 59,
      "hit": false,
      "t": 133021.17400000006,
      "d": 155.03633333335165,
      "v": 88
    },
    {
      "midi": 64,
      "hit": false,
      "t": 133021.17400000006,
      "d": 155.03633333335165,
      "v": 88
    },
    {
      "midi": 69,
      "hit": false,
      "t": 133021.17400000006,
      "d": 155.03633333335165,
      "v": 88
    },
    {
      "midi": 52,
      "hit": false,
      "t": 133253.72850000008,
      "d": 155.03633333332255,
      "v": 88
    },
    {
      "midi": 59,
      "hit": false,
      "t": 133253.72850000008,
      "d": 155.03633333332255,
      "v": 88
    },
    {
      "midi": 64,
      "hit": false,
      "t": 133253.72850000008,
      "d": 155.03633333332255,
      "v": 88
    },
    {
      "midi": 69,
      "hit": false,
      "t": 133253.72850000008,
      "d": 155.03633333332255,
      "v": 88
    },
    {
      "midi": 52,
      "hit": false,
      "t": 133486.28300000008,
      "d": 155.03633333332255,
      "v": 88
    },
    {
      "midi": 59,
      "hit": false,
      "t": 133486.28300000008,
      "d": 155.03633333332255,
      "v": 88
    },
    {
      "midi": 64,
      "hit": false,
      "t": 133486.28300000008,
      "d": 155.03633333332255,
      "v": 88
    },
    {
      "midi": 68,
      "hit": false,
      "t": 133486.28300000008,
      "d": 155.03633333332255,
      "v": 88
    },
    {
      "midi": 52,
      "hit": false,
      "t": 133718.83750000008,
      "d": 155.03633333332255,
      "v": 88
    },
    {
      "midi": 59,
      "hit": false,
      "t": 133718.83750000008,
      "d": 155.03633333332255,
      "v": 88
    },
    {
      "midi": 64,
      "hit": false,
      "t": 133718.83750000008,
      "d": 155.03633333332255,
      "v": 88
    },
    {
      "midi": 68,
      "hit": false,
      "t": 133718.83750000008,
      "d": 155.03633333332255,
      "v": 88
    },
    {
      "midi": 54,
      "hit": false,
      "t": 133951.39200000008,
      "d": 155.03633333332255,
      "v": 88
    },
    {
      "midi": 61,
      "hit": false,
      "t": 134183.94650000008,
      "d": 155.03633333332255,
      "v": 88
    },
    {
      "midi": 66,
      "hit": false,
      "t": 134183.94650000008,
      "d": 155.03633333332255,
      "v": 88
    },
    {
      "midi": 69,
      "hit": false,
      "t": 134183.94650000008,
      "d": 155.03633333332255,
      "v": 88
    },
    {
      "midi": 54,
      "hit": false,
      "t": 134416.50100000008,
      "d": 155.03633333335165,
      "v": 88
    },
    {
      "midi": 61,
      "hit": false,
      "t": 134532.7782500001,
      "d": 155.03633333335165,
      "v": 88
    },
    {
      "midi": 66,
      "hit": false,
      "t": 134532.7782500001,
      "d": 155.03633333335165,
      "v": 88
    },
    {
      "midi": 69,
      "hit": false,
      "t": 134532.7782500001,
      "d": 155.03633333335165,
      "v": 88
    },
    {
      "midi": 54,
      "hit": false,
      "t": 134765.33275000012,
      "d": 155.03633333335165,
      "v": 88
    },
    {
      "midi": 61,
      "hit": false,
      "t": 134881.61000000013,
      "d": 155.03633333335165,
      "v": 88
    },
    {
      "midi": 66,
      "hit": false,
      "t": 134881.61000000013,
      "d": 155.03633333335165,
      "v": 88
    },
    {
      "midi": 69,
      "hit": false,
      "t": 134881.61000000013,
      "d": 155.03633333335165,
      "v": 88
    },
    {
      "midi": 54,
      "hit": false,
      "t": 135114.16450000016,
      "d": 155.03633333335165,
      "v": 88
    },
    {
      "midi": 61,
      "hit": false,
      "t": 135230.44175000017,
      "d": 155.03633333335165,
      "v": 88
    },
    {
      "midi": 66,
      "hit": false,
      "t": 135230.44175000017,
      "d": 155.03633333335165,
      "v": 88
    },
    {
      "midi": 69,
      "hit": false,
      "t": 135230.44175000017,
      "d": 155.03633333335165,
      "v": 88
    },
    {
      "midi": 54,
      "hit": false,
      "t": 135462.9962500002,
      "d": 155.03633333335165,
      "v": 88
    },
    {
      "midi": 61,
      "hit": false,
      "t": 135579.2735000002,
      "d": 155.03633333335165,
      "v": 88
    },
    {
      "midi": 66,
      "hit": false,
      "t": 135579.2735000002,
      "d": 155.03633333335165,
      "v": 88
    },
    {
      "midi": 69,
      "hit": false,
      "t": 135579.2735000002,
      "d": 155.03633333335165,
      "v": 88
    },
    {
      "midi": 52,
      "hit": false,
      "t": 135811.82800000024,
      "d": 155.03633333332255,
      "v": 88
    },
    {
      "midi": 59,
      "hit": false,
      "t": 136044.38250000024,
      "d": 155.03633333332255,
      "v": 88
    },
    {
      "midi": 64,
      "hit": false,
      "t": 136044.38250000024,
      "d": 155.03633333332255,
      "v": 88
    },
    {
      "midi": 69,
      "hit": false,
      "t": 136044.38250000024,
      "d": 155.03633333332255,
      "v": 88
    },
    {
      "midi": 52,
      "hit": false,
      "t": 136276.93700000024,
      "d": 155.03633333335165,
      "v": 88
    },
    {
      "midi": 59,
      "hit": false,
      "t": 136393.21425000025,
      "d": 155.03633333335165,
      "v": 88
    },
    {
      "midi": 64,
      "hit": false,
      "t": 136393.21425000025,
      "d": 155.03633333335165,
      "v": 88
    },
    {
      "midi": 69,
      "hit": false,
      "t": 136393.21425000025,
      "d": 155.03633333335165,
      "v": 88
    },
    {
      "midi": 52,
      "hit": false,
      "t": 136625.76875000028,
      "d": 155.03633333335165,
      "v": 88
    },
    {
      "midi": 59,
      "hit": false,
      "t": 136742.0460000003,
      "d": 155.03633333335165,
      "v": 88
    },
    {
      "midi": 64,
      "hit": false,
      "t": 136742.0460000003,
      "d": 155.03633333335165,
      "v": 88
    },
    {
      "midi": 69,
      "hit": false,
      "t": 136742.0460000003,
      "d": 155.03633333335165,
      "v": 88
    },
    {
      "midi": 52,
      "hit": false,
      "t": 136974.60050000032,
      "d": 155.03633333335165,
      "v": 88
    },
    {
      "midi": 59,
      "hit": false,
      "t": 137090.87775000033,
      "d": 155.03633333335165,
      "v": 88
    },
    {
      "midi": 64,
      "hit": false,
      "t": 137090.87775000033,
      "d": 155.03633333335165,
      "v": 88
    },
    {
      "midi": 69,
      "hit": false,
      "t": 137090.87775000033,
      "d": 155.03633333335165,
      "v": 88
    },
    {
      "midi": 52,
      "hit": false,
      "t": 137323.43225000036,
      "d": 155.03633333335165,
      "v": 88
    },
    {
      "midi": 59,
      "hit": false,
      "t": 137439.70950000038,
      "d": 155.03633333335165,
      "v": 88
    },
    {
      "midi": 64,
      "hit": false,
      "t": 137439.70950000038,
      "d": 155.03633333335165,
      "v": 88
    },
    {
      "midi": 68,
      "hit": false,
      "t": 137439.70950000038,
      "d": 155.03633333335165,
      "v": 88
    },
    {
      "midi": 50,
      "hit": false,
      "t": 137672.2640000004,
      "d": 155.03633333332255,
      "v": 88
    },
    {
      "midi": 57,
      "hit": false,
      "t": 137904.8185000004,
      "d": 155.03633333332255,
      "v": 88
    },
    {
      "midi": 62,
      "hit": false,
      "t": 137904.8185000004,
      "d": 155.03633333332255,
      "v": 88
    },
    {
      "midi": 66,
      "hit": false,
      "t": 137904.8185000004,
      "d": 155.03633333332255,
      "v": 88
    },
    {
      "midi": 50,
      "hit": false,
      "t": 138137.3730000004,
      "d": 155.03633333335165,
      "v": 88
    },
    {
      "midi": 57,
      "hit": false,
      "t": 138253.6502500004,
      "d": 155.03633333335165,
      "v": 88
    },
    {
      "midi": 62,
      "hit": false,
      "t": 138253.6502500004,
      "d": 155.03633333335165,
      "v": 88
    },
    {
      "midi": 66,
      "hit": false,
      "t": 138253.6502500004,
      "d": 155.03633333335165,
      "v": 88
    },
    {
      "midi": 50,
      "hit": false,
      "t": 138486.20475000044,
      "d": 155.03633333335165,
      "v": 88
    },
    {
      "midi": 57,
      "hit": false,
      "t": 138602.48200000045,
      "d": 155.03633333335165,
      "v": 88
    },
    {
      "midi": 62,
      "hit": false,
      "t": 138602.48200000045,
      "d": 155.03633333335165,
      "v": 88
    },
    {
      "midi": 66,
      "hit": false,
      "t": 138602.48200000045,
      "d": 155.03633333335165,
      "v": 88
    },
    {
      "midi": 50,
      "hit": false,
      "t": 138835.03650000048,
      "d": 155.03633333335165,
      "v": 88
    },
    {
      "midi": 57,
      "hit": false,
      "t": 138951.3137500005,
      "d": 155.03633333335165,
      "v": 88
    },
    {
      "midi": 62,
      "hit": false,
      "t": 138951.3137500005,
      "d": 155.03633333335165,
      "v": 88
    },
    {
      "midi": 66,
      "hit": false,
      "t": 138951.3137500005,
      "d": 155.03633333335165,
      "v": 88
    },
    {
      "midi": 50,
      "hit": false,
      "t": 139183.86825000052,
      "d": 155.03633333335165,
      "v": 88
    },
    {
      "midi": 57,
      "hit": false,
      "t": 139300.14550000054,
      "d": 155.03633333335165,
      "v": 88
    },
    {
      "midi": 62,
      "hit": false,
      "t": 139300.14550000054,
      "d": 155.03633333335165,
      "v": 88
    },
    {
      "midi": 66,
      "hit": false,
      "t": 139300.14550000054,
      "d": 155.03633333335165,
      "v": 88
    },
    {
      "midi": 52,
      "hit": false,
      "t": 139532.70000000056,
      "d": 155.03633333332255,
      "v": 88
    },
    {
      "midi": 57,
      "hit": false,
      "t": 139765.25450000056,
      "d": 155.03633333332255,
      "v": 88
    },
    {
      "midi": 59,
      "hit": false,
      "t": 139765.25450000056,
      "d": 155.03633333332255,
      "v": 88
    },
    {
      "midi": 64,
      "hit": false,
      "t": 139765.25450000056,
      "d": 155.03633333332255,
      "v": 88
    },
    {
      "midi": 52,
      "hit": false,
      "t": 139997.80900000056,
      "d": 155.03633333335165,
      "v": 88
    },
    {
      "midi": 57,
      "hit": false,
      "t": 140114.08625000058,
      "d": 155.03633333335165,
      "v": 88
    },
    {
      "midi": 59,
      "hit": false,
      "t": 140114.08625000058,
      "d": 155.03633333335165,
      "v": 88
    },
    {
      "midi": 64,
      "hit": false,
      "t": 140114.08625000058,
      "d": 155.03633333335165,
      "v": 88
    },
    {
      "midi": 52,
      "hit": false,
      "t": 140462.91800000062,
      "d": 38.75908333333791,
      "v": 88
    },
    {
      "midi": 59,
      "hit": false,
      "t": 140462.91800000062,
      "d": 155.03633333335165,
      "v": 88
    },
    {
      "midi": 64,
      "hit": false,
      "t": 140462.91800000062,
      "d": 155.03633333335165,
      "v": 88
    },
    {
      "midi": 69,
      "hit": false,
      "t": 140462.91800000062,
      "d": 155.03633333335165,
      "v": 88
    },
    {
      "midi": 52,
      "hit": false,
      "t": 140695.47250000064,
      "d": 155.03633333332255,
      "v": 88
    },
    {
      "midi": 59,
      "hit": false,
      "t": 140695.47250000064,
      "d": 155.03633333332255,
      "v": 88
    },
    {
      "midi": 64,
      "hit": false,
      "t": 140695.47250000064,
      "d": 155.03633333332255,
      "v": 88
    },
    {
      "midi": 69,
      "hit": false,
      "t": 140695.47250000064,
      "d": 155.03633333332255,
      "v": 88
    },
    {
      "midi": 52,
      "hit": false,
      "t": 140928.02700000064,
      "d": 155.03633333332255,
      "v": 88
    },
    {
      "midi": 59,
      "hit": false,
      "t": 140928.02700000064,
      "d": 155.03633333332255,
      "v": 88
    },
    {
      "midi": 64,
      "hit": false,
      "t": 140928.02700000064,
      "d": 155.03633333332255,
      "v": 88
    },
    {
      "midi": 68,
      "hit": false,
      "t": 140928.02700000064,
      "d": 155.03633333332255,
      "v": 88
    },
    {
      "midi": 52,
      "hit": false,
      "t": 141160.58150000064,
      "d": 155.03633333332255,
      "v": 88
    },
    {
      "midi": 59,
      "hit": false,
      "t": 141160.58150000064,
      "d": 155.03633333332255,
      "v": 88
    },
    {
      "midi": 64,
      "hit": false,
      "t": 141160.58150000064,
      "d": 155.03633333332255,
      "v": 88
    },
    {
      "midi": 68,
      "hit": false,
      "t": 141160.58150000064,
      "d": 155.03633333332255,
      "v": 88
    },
    {
      "midi": 54,
      "hit": false,
      "t": 141393.13600000064,
      "d": 155.03633333332255,
      "v": 88
    },
    {
      "midi": 61,
      "hit": false,
      "t": 141625.69050000064,
      "d": 155.03633333332255,
      "v": 88
    },
    {
      "midi": 66,
      "hit": false,
      "t": 141625.69050000064,
      "d": 155.03633333332255,
      "v": 88
    },
    {
      "midi": 69,
      "hit": false,
      "t": 141625.69050000064,
      "d": 155.03633333332255,
      "v": 88
    },
    {
      "midi": 54,
      "hit": false,
      "t": 141858.24500000064,
      "d": 155.03633333335165,
      "v": 88
    },
    {
      "midi": 61,
      "hit": false,
      "t": 141974.52225000065,
      "d": 155.03633333335165,
      "v": 88
    },
    {
      "midi": 66,
      "hit": false,
      "t": 141974.52225000065,
      "d": 155.03633333335165,
      "v": 88
    },
    {
      "midi": 69,
      "hit": false,
      "t": 141974.52225000065,
      "d": 155.03633333335165,
      "v": 88
    },
    {
      "midi": 54,
      "hit": false,
      "t": 142207.07675000068,
      "d": 155.03633333335165,
      "v": 88
    },
    {
      "midi": 61,
      "hit": false,
      "t": 142323.3540000007,
      "d": 155.03633333335165,
      "v": 88
    },
    {
      "midi": 66,
      "hit": false,
      "t": 142323.3540000007,
      "d": 155.03633333335165,
      "v": 88
    },
    {
      "midi": 69,
      "hit": false,
      "t": 142323.3540000007,
      "d": 155.03633333335165,
      "v": 88
    },
    {
      "midi": 54,
      "hit": false,
      "t": 142555.90850000072,
      "d": 155.03633333335165,
      "v": 88
    },
    {
      "midi": 61,
      "hit": false,
      "t": 142672.18575000073,
      "d": 155.03633333335165,
      "v": 88
    },
    {
      "midi": 66,
      "hit": false,
      "t": 142672.18575000073,
      "d": 155.03633333335165,
      "v": 88
    },
    {
      "midi": 69,
      "hit": false,
      "t": 142672.18575000073,
      "d": 155.03633333335165,
      "v": 88
    },
    {
      "midi": 54,
      "hit": false,
      "t": 142904.74025000076,
      "d": 155.03633333335165,
      "v": 88
    },
    {
      "midi": 61,
      "hit": false,
      "t": 143021.01750000077,
      "d": 155.03633333335165,
      "v": 88
    },
    {
      "midi": 66,
      "hit": false,
      "t": 143021.01750000077,
      "d": 155.03633333335165,
      "v": 88
    },
    {
      "midi": 69,
      "hit": false,
      "t": 143021.01750000077,
      "d": 155.03633333335165,
      "v": 88
    },
    {
      "midi": 52,
      "hit": false,
      "t": 143253.5720000008,
      "d": 155.03633333332255,
      "v": 88
    },
    {
      "midi": 59,
      "hit": false,
      "t": 143486.1265000008,
      "d": 155.03633333332255,
      "v": 88
    },
    {
      "midi": 64,
      "hit": false,
      "t": 143486.1265000008,
      "d": 155.03633333332255,
      "v": 88
    },
    {
      "midi": 69,
      "hit": false,
      "t": 143486.1265000008,
      "d": 155.03633333332255,
      "v": 88
    },
    {
      "midi": 52,
      "hit": false,
      "t": 143718.6810000008,
      "d": 155.03633333335165,
      "v": 88
    },
    {
      "midi": 59,
      "hit": false,
      "t": 143834.9582500008,
      "d": 155.03633333335165,
      "v": 88
    },
    {
      "midi": 64,
      "hit": false,
      "t": 143834.9582500008,
      "d": 155.03633333335165,
      "v": 88
    },
    {
      "midi": 69,
      "hit": false,
      "t": 143834.9582500008,
      "d": 155.03633333335165,
      "v": 88
    },
    {
      "midi": 52,
      "hit": false,
      "t": 144067.51275000084,
      "d": 155.03633333335165,
      "v": 88
    },
    {
      "midi": 59,
      "hit": false,
      "t": 144183.79000000085,
      "d": 155.03633333335165,
      "v": 88
    },
    {
      "midi": 64,
      "hit": false,
      "t": 144183.79000000085,
      "d": 155.03633333335165,
      "v": 88
    },
    {
      "midi": 69,
      "hit": false,
      "t": 144183.79000000085,
      "d": 155.03633333335165,
      "v": 88
    },
    {
      "midi": 52,
      "hit": false,
      "t": 144416.34450000088,
      "d": 155.03633333335165,
      "v": 88
    },
    {
      "midi": 59,
      "hit": false,
      "t": 144532.6217500009,
      "d": 155.03633333335165,
      "v": 88
    },
    {
      "midi": 64,
      "hit": false,
      "t": 144532.6217500009,
      "d": 155.03633333335165,
      "v": 88
    },
    {
      "midi": 69,
      "hit": false,
      "t": 144532.6217500009,
      "d": 155.03633333335165,
      "v": 88
    },
    {
      "midi": 52,
      "hit": false,
      "t": 144765.17625000092,
      "d": 155.03633333335165,
      "v": 88
    },
    {
      "midi": 59,
      "hit": false,
      "t": 144881.45350000093,
      "d": 155.03633333335165,
      "v": 88
    },
    {
      "midi": 64,
      "hit": false,
      "t": 144881.45350000093,
      "d": 155.03633333335165,
      "v": 88
    },
    {
      "midi": 68,
      "hit": false,
      "t": 144881.45350000093,
      "d": 155.03633333335165,
      "v": 88
    },
    {
      "midi": 50,
      "hit": false,
      "t": 145114.00800000096,
      "d": 155.03633333332255,
      "v": 88
    },
    {
      "midi": 57,
      "hit": false,
      "t": 145346.56250000096,
      "d": 155.03633333332255,
      "v": 88
    },
    {
      "midi": 62,
      "hit": false,
      "t": 145346.56250000096,
      "d": 155.03633333332255,
      "v": 88
    },
    {
      "midi": 66,
      "hit": false,
      "t": 145346.56250000096,
      "d": 155.03633333332255,
      "v": 88
    },
    {
      "midi": 50,
      "hit": false,
      "t": 145579.11700000096,
      "d": 155.03633333335165,
      "v": 88
    },
    {
      "midi": 57,
      "hit": false,
      "t": 145695.39425000097,
      "d": 155.03633333335165,
      "v": 88
    },
    {
      "midi": 62,
      "hit": false,
      "t": 145695.39425000097,
      "d": 155.03633333335165,
      "v": 88
    },
    {
      "midi": 66,
      "hit": false,
      "t": 145695.39425000097,
      "d": 155.03633333335165,
      "v": 88
    },
    {
      "midi": 50,
      "hit": false,
      "t": 145927.948750001,
      "d": 155.03633333335165,
      "v": 88
    },
    {
      "midi": 57,
      "hit": false,
      "t": 146044.226000001,
      "d": 155.03633333335165,
      "v": 88
    },
    {
      "midi": 62,
      "hit": false,
      "t": 146044.226000001,
      "d": 155.03633333335165,
      "v": 88
    },
    {
      "midi": 66,
      "hit": false,
      "t": 146044.226000001,
      "d": 155.03633333335165,
      "v": 88
    },
    {
      "midi": 50,
      "hit": false,
      "t": 146276.78050000104,
      "d": 155.03633333335165,
      "v": 88
    },
    {
      "midi": 57,
      "hit": false,
      "t": 146393.05775000105,
      "d": 155.03633333335165,
      "v": 88
    },
    {
      "midi": 62,
      "hit": false,
      "t": 146393.05775000105,
      "d": 155.03633333335165,
      "v": 88
    },
    {
      "midi": 66,
      "hit": false,
      "t": 146393.05775000105,
      "d": 155.03633333335165,
      "v": 88
    },
    {
      "midi": 50,
      "hit": false,
      "t": 146625.61225000108,
      "d": 155.03633333335165,
      "v": 88
    },
    {
      "midi": 57,
      "hit": false,
      "t": 146741.8895000011,
      "d": 155.03633333335165,
      "v": 88
    },
    {
      "midi": 62,
      "hit": false,
      "t": 146741.8895000011,
      "d": 155.03633333335165,
      "v": 88
    },
    {
      "midi": 66,
      "hit": false,
      "t": 146741.8895000011,
      "d": 155.03633333335165,
      "v": 88
    },
    {
      "midi": 52,
      "hit": false,
      "t": 146974.44400000112,
      "d": 155.03633333332255,
      "v": 88
    },
    {
      "midi": 57,
      "hit": false,
      "t": 147206.99850000112,
      "d": 155.03633333332255,
      "v": 88
    },
    {
      "midi": 59,
      "hit": false,
      "t": 147206.99850000112,
      "d": 155.03633333332255,
      "v": 88
    },
    {
      "midi": 64,
      "hit": false,
      "t": 147206.99850000112,
      "d": 155.03633333332255,
      "v": 88
    },
    {
      "midi": 52,
      "hit": false,
      "t": 147439.55300000112,
      "d": 155.03633333335165,
      "v": 88
    },
    {
      "midi": 57,
      "hit": false,
      "t": 147555.83025000113,
      "d": 155.03633333335165,
      "v": 88
    },
    {
      "midi": 59,
      "hit": false,
      "t": 147555.83025000113,
      "d": 155.03633333335165,
      "v": 88
    },
    {
      "midi": 64,
      "hit": false,
      "t": 147555.83025000113,
      "d": 155.03633333335165,
      "v": 88
    },
    {
      "midi": 52,
      "hit": false,
      "t": 147904.66200000118,
      "d": 38.75908333333791,
      "v": 88
    },
    {
      "midi": 59,
      "hit": false,
      "t": 147904.66200000118,
      "d": 155.03633333335165,
      "v": 88
    },
    {
      "midi": 64,
      "hit": false,
      "t": 147904.66200000118,
      "d": 155.03633333335165,
      "v": 88
    },
    {
      "midi": 69,
      "hit": false,
      "t": 147904.66200000118,
      "d": 155.03633333335165,
      "v": 88
    },
    {
      "midi": 52,
      "hit": false,
      "t": 148137.2165000012,
      "d": 155.03633333332255,
      "v": 88
    },
    {
      "midi": 59,
      "hit": false,
      "t": 148137.2165000012,
      "d": 155.03633333332255,
      "v": 88
    },
    {
      "midi": 64,
      "hit": false,
      "t": 148137.2165000012,
      "d": 155.03633333332255,
      "v": 88
    },
    {
      "midi": 69,
      "hit": false,
      "t": 148137.2165000012,
      "d": 155.03633333332255,
      "v": 88
    },
    {
      "midi": 52,
      "hit": false,
      "t": 148369.7710000012,
      "d": 155.03633333332255,
      "v": 88
    },
    {
      "midi": 59,
      "hit": false,
      "t": 148369.7710000012,
      "d": 155.03633333332255,
      "v": 88
    },
    {
      "midi": 64,
      "hit": false,
      "t": 148369.7710000012,
      "d": 155.03633333332255,
      "v": 88
    },
    {
      "midi": 68,
      "hit": false,
      "t": 148369.7710000012,
      "d": 155.03633333332255,
      "v": 88
    },
    {
      "midi": 52,
      "hit": false,
      "t": 148602.3255000012,
      "d": 155.03633333332255,
      "v": 88
    },
    {
      "midi": 59,
      "hit": false,
      "t": 148602.3255000012,
      "d": 155.03633333332255,
      "v": 88
    },
    {
      "midi": 64,
      "hit": false,
      "t": 148602.3255000012,
      "d": 155.03633333332255,
      "v": 88
    },
    {
      "midi": 68,
      "hit": false,
      "t": 148602.3255000012,
      "d": 155.03633333332255,
      "v": 88
    },
    {
      "midi": 54,
      "hit": false,
      "t": 148834.8800000012,
      "d": 155.03633333332255,
      "v": 88
    },
    {
      "midi": 61,
      "hit": false,
      "t": 149067.4345000012,
      "d": 155.03633333332255,
      "v": 88
    },
    {
      "midi": 66,
      "hit": false,
      "t": 149067.4345000012,
      "d": 155.03633333332255,
      "v": 88
    },
    {
      "midi": 69,
      "hit": false,
      "t": 149067.4345000012,
      "d": 155.03633333332255,
      "v": 88
    },
    {
      "midi": 54,
      "hit": false,
      "t": 149299.9890000012,
      "d": 155.03633333335165,
      "v": 88
    },
    {
      "midi": 61,
      "hit": false,
      "t": 149416.2662500012,
      "d": 155.03633333335165,
      "v": 88
    },
    {
      "midi": 66,
      "hit": false,
      "t": 149416.2662500012,
      "d": 155.03633333335165,
      "v": 88
    },
    {
      "midi": 69,
      "hit": false,
      "t": 149416.2662500012,
      "d": 155.03633333335165,
      "v": 88
    },
    {
      "midi": 54,
      "hit": false,
      "t": 149648.82075000124,
      "d": 155.03633333335165,
      "v": 88
    },
    {
      "midi": 61,
      "hit": false,
      "t": 149765.09800000125,
      "d": 155.03633333335165,
      "v": 88
    },
    {
      "midi": 66,
      "hit": false,
      "t": 149765.09800000125,
      "d": 155.03633333335165,
      "v": 88
    },
    {
      "midi": 69,
      "hit": false,
      "t": 149765.09800000125,
      "d": 155.03633333335165,
      "v": 88
    },
    {
      "midi": 54,
      "hit": false,
      "t": 149997.65250000128,
      "d": 155.03633333335165,
      "v": 88
    },
    {
      "midi": 61,
      "hit": false,
      "t": 150113.9297500013,
      "d": 155.03633333335165,
      "v": 88
    },
    {
      "midi": 66,
      "hit": false,
      "t": 150113.9297500013,
      "d": 155.03633333335165,
      "v": 88
    },
    {
      "midi": 69,
      "hit": false,
      "t": 150113.9297500013,
      "d": 155.03633333335165,
      "v": 88
    },
    {
      "midi": 54,
      "hit": false,
      "t": 150346.48425000132,
      "d": 155.03633333335165,
      "v": 88
    },
    {
      "midi": 61,
      "hit": false,
      "t": 150462.76150000133,
      "d": 155.03633333335165,
      "v": 88
    },
    {
      "midi": 66,
      "hit": false,
      "t": 150462.76150000133,
      "d": 155.03633333335165,
      "v": 88
    },
    {
      "midi": 69,
      "hit": false,
      "t": 150462.76150000133,
      "d": 155.03633333335165,
      "v": 88
    },
    {
      "midi": 52,
      "hit": false,
      "t": 150695.31600000136,
      "d": 155.03633333332255,
      "v": 88
    },
    {
      "midi": 59,
      "hit": false,
      "t": 150927.87050000136,
      "d": 155.03633333332255,
      "v": 88
    },
    {
      "midi": 64,
      "hit": false,
      "t": 150927.87050000136,
      "d": 155.03633333332255,
      "v": 88
    },
    {
      "midi": 69,
      "hit": false,
      "t": 150927.87050000136,
      "d": 155.03633333332255,
      "v": 88
    },
    {
      "midi": 52,
      "hit": false,
      "t": 151160.42500000136,
      "d": 155.03633333335165,
      "v": 88
    },
    {
      "midi": 59,
      "hit": false,
      "t": 151276.70225000137,
      "d": 155.03633333335165,
      "v": 88
    },
    {
      "midi": 64,
      "hit": false,
      "t": 151276.70225000137,
      "d": 155.03633333335165,
      "v": 88
    },
    {
      "midi": 69,
      "hit": false,
      "t": 151276.70225000137,
      "d": 155.03633333335165,
      "v": 88
    },
    {
      "midi": 52,
      "hit": false,
      "t": 151509.2567500014,
      "d": 155.03633333335165,
      "v": 88
    },
    {
      "midi": 59,
      "hit": false,
      "t": 151625.5340000014,
      "d": 155.03633333335165,
      "v": 88
    },
    {
      "midi": 64,
      "hit": false,
      "t": 151625.5340000014,
      "d": 155.03633333335165,
      "v": 88
    },
    {
      "midi": 69,
      "hit": false,
      "t": 151625.5340000014,
      "d": 155.03633333335165,
      "v": 88
    },
    {
      "midi": 52,
      "hit": false,
      "t": 151858.08850000144,
      "d": 155.03633333335165,
      "v": 88
    },
    {
      "midi": 59,
      "hit": false,
      "t": 151974.36575000145,
      "d": 155.03633333335165,
      "v": 88
    },
    {
      "midi": 64,
      "hit": false,
      "t": 151974.36575000145,
      "d": 155.03633333335165,
      "v": 88
    },
    {
      "midi": 69,
      "hit": false,
      "t": 151974.36575000145,
      "d": 155.03633333335165,
      "v": 88
    },
    {
      "midi": 52,
      "hit": false,
      "t": 152206.92025000148,
      "d": 155.03633333335165,
      "v": 88
    },
    {
      "midi": 59,
      "hit": false,
      "t": 152323.1975000015,
      "d": 155.03633333335165,
      "v": 88
    },
    {
      "midi": 64,
      "hit": false,
      "t": 152323.1975000015,
      "d": 155.03633333335165,
      "v": 88
    },
    {
      "midi": 68,
      "hit": false,
      "t": 152323.1975000015,
      "d": 155.03633333335165,
      "v": 88
    },
    {
      "midi": 50,
      "hit": false,
      "t": 152555.75200000152,
      "d": 155.03633333332255,
      "v": 88
    },
    {
      "midi": 57,
      "hit": false,
      "t": 152788.30650000152,
      "d": 155.03633333332255,
      "v": 88
    },
    {
      "midi": 62,
      "hit": false,
      "t": 152788.30650000152,
      "d": 155.03633333332255,
      "v": 88
    },
    {
      "midi": 66,
      "hit": false,
      "t": 152788.30650000152,
      "d": 155.03633333332255,
      "v": 88
    },
    {
      "midi": 50,
      "hit": false,
      "t": 153020.86100000152,
      "d": 155.03633333335165,
      "v": 88
    },
    {
      "midi": 57,
      "hit": false,
      "t": 153137.13825000153,
      "d": 155.03633333335165,
      "v": 88
    },
    {
      "midi": 62,
      "hit": false,
      "t": 153137.13825000153,
      "d": 155.03633333335165,
      "v": 88
    },
    {
      "midi": 66,
      "hit": false,
      "t": 153137.13825000153,
      "d": 155.03633333335165,
      "v": 88
    },
    {
      "midi": 50,
      "hit": false,
      "t": 153369.69275000156,
      "d": 155.03633333335165,
      "v": 88
    },
    {
      "midi": 57,
      "hit": false,
      "t": 153485.97000000157,
      "d": 155.03633333335165,
      "v": 88
    },
    {
      "midi": 62,
      "hit": false,
      "t": 153485.97000000157,
      "d": 155.03633333335165,
      "v": 88
    },
    {
      "midi": 66,
      "hit": false,
      "t": 153485.97000000157,
      "d": 155.03633333335165,
      "v": 88
    },
    {
      "midi": 50,
      "hit": false,
      "t": 153718.5245000016,
      "d": 155.03633333335165,
      "v": 88
    },
    {
      "midi": 57,
      "hit": false,
      "t": 153834.8017500016,
      "d": 155.03633333335165,
      "v": 88
    },
    {
      "midi": 62,
      "hit": false,
      "t": 153834.8017500016,
      "d": 155.03633333335165,
      "v": 88
    },
    {
      "midi": 66,
      "hit": false,
      "t": 153834.8017500016,
      "d": 155.03633333335165,
      "v": 88
    },
    {
      "midi": 50,
      "hit": false,
      "t": 154067.35625000164,
      "d": 155.03633333335165,
      "v": 88
    },
    {
      "midi": 57,
      "hit": false,
      "t": 154183.63350000166,
      "d": 155.03633333335165,
      "v": 88
    },
    {
      "midi": 62,
      "hit": false,
      "t": 154183.63350000166,
      "d": 155.03633333335165,
      "v": 88
    },
    {
      "midi": 66,
      "hit": false,
      "t": 154183.63350000166,
      "d": 155.03633333335165,
      "v": 88
    },
    {
      "midi": 52,
      "hit": false,
      "t": 154416.18800000168,
      "d": 155.03633333332255,
      "v": 88
    },
    {
      "midi": 57,
      "hit": false,
      "t": 154648.74250000168,
      "d": 155.03633333332255,
      "v": 88
    },
    {
      "midi": 59,
      "hit": false,
      "t": 154648.74250000168,
      "d": 155.03633333332255,
      "v": 88
    },
    {
      "midi": 64,
      "hit": false,
      "t": 154648.74250000168,
      "d": 155.03633333332255,
      "v": 88
    },
    {
      "midi": 52,
      "hit": false,
      "t": 154881.29700000168,
      "d": 155.03633333335165,
      "v": 88
    },
    {
      "midi": 57,
      "hit": false,
      "t": 154997.5742500017,
      "d": 155.03633333335165,
      "v": 88
    },
    {
      "midi": 59,
      "hit": false,
      "t": 154997.5742500017,
      "d": 155.03633333335165,
      "v": 88
    },
    {
      "midi": 64,
      "hit": false,
      "t": 154997.5742500017,
      "d": 155.03633333335165,
      "v": 88
    },
    {
      "midi": 52,
      "hit": false,
      "t": 155346.40600000173,
      "d": 38.75908333333791,
      "v": 88
    },
    {
      "midi": 59,
      "hit": false,
      "t": 155346.40600000173,
      "d": 155.03633333335165,
      "v": 88
    },
    {
      "midi": 64,
      "hit": false,
      "t": 155346.40600000173,
      "d": 155.03633333335165,
      "v": 88
    },
    {
      "midi": 69,
      "hit": false,
      "t": 155346.40600000173,
      "d": 155.03633333335165,
      "v": 88
    },
    {
      "midi": 52,
      "hit": false,
      "t": 155578.96050000176,
      "d": 155.03633333332255,
      "v": 88
    },
    {
      "midi": 59,
      "hit": false,
      "t": 155578.96050000176,
      "d": 155.03633333332255,
      "v": 88
    },
    {
      "midi": 64,
      "hit": false,
      "t": 155578.96050000176,
      "d": 155.03633333332255,
      "v": 88
    },
    {
      "midi": 69,
      "hit": false,
      "t": 155578.96050000176,
      "d": 155.03633333332255,
      "v": 88
    },
    {
      "midi": 52,
      "hit": false,
      "t": 155811.51500000176,
      "d": 155.03633333332255,
      "v": 88
    },
    {
      "midi": 59,
      "hit": false,
      "t": 155811.51500000176,
      "d": 155.03633333332255,
      "v": 88
    },
    {
      "midi": 64,
      "hit": false,
      "t": 155811.51500000176,
      "d": 155.03633333332255,
      "v": 88
    },
    {
      "midi": 68,
      "hit": false,
      "t": 155811.51500000176,
      "d": 155.03633333332255,
      "v": 88
    },
    {
      "midi": 52,
      "hit": false,
      "t": 156044.06950000176,
      "d": 155.03633333332255,
      "v": 88
    },
    {
      "midi": 59,
      "hit": false,
      "t": 156044.06950000176,
      "d": 155.03633333332255,
      "v": 88
    },
    {
      "midi": 64,
      "hit": false,
      "t": 156044.06950000176,
      "d": 155.03633333332255,
      "v": 88
    },
    {
      "midi": 68,
      "hit": false,
      "t": 156044.06950000176,
      "d": 155.03633333332255,
      "v": 88
    },
    {
      "midi": 54,
      "hit": false,
      "t": 193485.34400000176,
      "d": 155.03633333332255,
      "v": 94
    },
    {
      "midi": 61,
      "hit": false,
      "t": 193717.89850000176,
      "d": 155.03633333332255,
      "v": 94
    },
    {
      "midi": 66,
      "hit": false,
      "t": 193717.89850000176,
      "d": 155.03633333332255,
      "v": 94
    },
    {
      "midi": 69,
      "hit": false,
      "t": 193717.89850000176,
      "d": 155.03633333332255,
      "v": 94
    },
    {
      "midi": 54,
      "hit": false,
      "t": 193950.45300000175,
      "d": 155.03633333335165,
      "v": 94
    },
    {
      "midi": 61,
      "hit": false,
      "t": 194066.73025000177,
      "d": 155.03633333335165,
      "v": 94
    },
    {
      "midi": 66,
      "hit": false,
      "t": 194066.73025000177,
      "d": 155.03633333335165,
      "v": 94
    },
    {
      "midi": 69,
      "hit": false,
      "t": 194066.73025000177,
      "d": 155.03633333335165,
      "v": 94
    },
    {
      "midi": 54,
      "hit": false,
      "t": 194299.2847500018,
      "d": 155.03633333335165,
      "v": 94
    },
    {
      "midi": 61,
      "hit": false,
      "t": 194415.5620000018,
      "d": 155.03633333335165,
      "v": 94
    },
    {
      "midi": 66,
      "hit": false,
      "t": 194415.5620000018,
      "d": 155.03633333335165,
      "v": 94
    },
    {
      "midi": 69,
      "hit": false,
      "t": 194415.5620000018,
      "d": 155.03633333335165,
      "v": 94
    },
    {
      "midi": 54,
      "hit": false,
      "t": 194648.11650000184,
      "d": 155.03633333335165,
      "v": 94
    },
    {
      "midi": 61,
      "hit": false,
      "t": 194764.39375000185,
      "d": 155.03633333335165,
      "v": 94
    },
    {
      "midi": 66,
      "hit": false,
      "t": 194764.39375000185,
      "d": 155.03633333335165,
      "v": 94
    },
    {
      "midi": 69,
      "hit": false,
      "t": 194764.39375000185,
      "d": 155.03633333335165,
      "v": 94
    },
    {
      "midi": 54,
      "hit": false,
      "t": 194996.94825000188,
      "d": 155.03633333335165,
      "v": 94
    },
    {
      "midi": 61,
      "hit": false,
      "t": 195113.2255000019,
      "d": 155.03633333335165,
      "v": 94
    },
    {
      "midi": 66,
      "hit": false,
      "t": 195113.2255000019,
      "d": 155.03633333335165,
      "v": 94
    },
    {
      "midi": 69,
      "hit": false,
      "t": 195113.2255000019,
      "d": 155.03633333335165,
      "v": 94
    },
    {
      "midi": 52,
      "hit": false,
      "t": 195345.78000000192,
      "d": 155.03633333332255,
      "v": 94
    },
    {
      "midi": 59,
      "hit": false,
      "t": 195578.33450000192,
      "d": 155.03633333332255,
      "v": 94
    },
    {
      "midi": 64,
      "hit": false,
      "t": 195578.33450000192,
      "d": 155.03633333332255,
      "v": 94
    },
    {
      "midi": 69,
      "hit": false,
      "t": 195578.33450000192,
      "d": 155.03633333332255,
      "v": 94
    },
    {
      "midi": 52,
      "hit": false,
      "t": 195810.88900000192,
      "d": 155.03633333335165,
      "v": 94
    },
    {
      "midi": 59,
      "hit": false,
      "t": 195927.16625000193,
      "d": 155.03633333335165,
      "v": 94
    },
    {
      "midi": 64,
      "hit": false,
      "t": 195927.16625000193,
      "d": 155.03633333335165,
      "v": 94
    },
    {
      "midi": 69,
      "hit": false,
      "t": 195927.16625000193,
      "d": 155.03633333335165,
      "v": 94
    },
    {
      "midi": 52,
      "hit": false,
      "t": 196159.72075000196,
      "d": 155.03633333335165,
      "v": 94
    },
    {
      "midi": 59,
      "hit": false,
      "t": 196275.99800000197,
      "d": 155.03633333335165,
      "v": 94
    },
    {
      "midi": 64,
      "hit": false,
      "t": 196275.99800000197,
      "d": 155.03633333335165,
      "v": 94
    },
    {
      "midi": 69,
      "hit": false,
      "t": 196275.99800000197,
      "d": 155.03633333335165,
      "v": 94
    },
    {
      "midi": 52,
      "hit": false,
      "t": 196508.552500002,
      "d": 155.03633333335165,
      "v": 94
    },
    {
      "midi": 59,
      "hit": false,
      "t": 196624.829750002,
      "d": 155.03633333335165,
      "v": 94
    },
    {
      "midi": 64,
      "hit": false,
      "t": 196624.829750002,
      "d": 155.03633333335165,
      "v": 94
    },
    {
      "midi": 69,
      "hit": false,
      "t": 196624.829750002,
      "d": 155.03633333335165,
      "v": 94
    },
    {
      "midi": 52,
      "hit": false,
      "t": 196857.38425000204,
      "d": 155.03633333335165,
      "v": 94
    },
    {
      "midi": 59,
      "hit": false,
      "t": 196973.66150000205,
      "d": 155.03633333335165,
      "v": 94
    },
    {
      "midi": 64,
      "hit": false,
      "t": 196973.66150000205,
      "d": 155.03633333335165,
      "v": 94
    },
    {
      "midi": 68,
      "hit": false,
      "t": 196973.66150000205,
      "d": 155.03633333335165,
      "v": 94
    },
    {
      "midi": 50,
      "hit": false,
      "t": 197206.21600000208,
      "d": 155.03633333332255,
      "v": 94
    },
    {
      "midi": 57,
      "hit": false,
      "t": 197438.77050000208,
      "d": 155.03633333332255,
      "v": 94
    },
    {
      "midi": 62,
      "hit": false,
      "t": 197438.77050000208,
      "d": 155.03633333332255,
      "v": 94
    },
    {
      "midi": 66,
      "hit": false,
      "t": 197438.77050000208,
      "d": 155.03633333332255,
      "v": 94
    },
    {
      "midi": 50,
      "hit": false,
      "t": 197671.32500000208,
      "d": 155.03633333335165,
      "v": 94
    },
    {
      "midi": 57,
      "hit": false,
      "t": 197787.6022500021,
      "d": 155.03633333335165,
      "v": 94
    },
    {
      "midi": 62,
      "hit": false,
      "t": 197787.6022500021,
      "d": 155.03633333335165,
      "v": 94
    },
    {
      "midi": 66,
      "hit": false,
      "t": 197787.6022500021,
      "d": 155.03633333335165,
      "v": 94
    },
    {
      "midi": 50,
      "hit": false,
      "t": 198020.15675000212,
      "d": 155.03633333335165,
      "v": 94
    },
    {
      "midi": 57,
      "hit": false,
      "t": 198136.43400000213,
      "d": 155.03633333335165,
      "v": 94
    },
    {
      "midi": 62,
      "hit": false,
      "t": 198136.43400000213,
      "d": 155.03633333335165,
      "v": 94
    },
    {
      "midi": 66,
      "hit": false,
      "t": 198136.43400000213,
      "d": 155.03633333335165,
      "v": 94
    },
    {
      "midi": 50,
      "hit": false,
      "t": 198368.98850000216,
      "d": 155.03633333335165,
      "v": 94
    },
    {
      "midi": 57,
      "hit": false,
      "t": 198485.26575000217,
      "d": 155.03633333335165,
      "v": 94
    },
    {
      "midi": 62,
      "hit": false,
      "t": 198485.26575000217,
      "d": 155.03633333335165,
      "v": 94
    },
    {
      "midi": 66,
      "hit": false,
      "t": 198485.26575000217,
      "d": 155.03633333335165,
      "v": 94
    },
    {
      "midi": 50,
      "hit": false,
      "t": 198717.8202500022,
      "d": 155.03633333335165,
      "v": 94
    },
    {
      "midi": 57,
      "hit": false,
      "t": 198834.09750000222,
      "d": 155.03633333335165,
      "v": 94
    },
    {
      "midi": 62,
      "hit": false,
      "t": 198834.09750000222,
      "d": 155.03633333335165,
      "v": 94
    },
    {
      "midi": 66,
      "hit": false,
      "t": 198834.09750000222,
      "d": 155.03633333335165,
      "v": 94
    },
    {
      "midi": 52,
      "hit": false,
      "t": 199066.65200000224,
      "d": 155.03633333332255,
      "v": 94
    },
    {
      "midi": 57,
      "hit": false,
      "t": 199299.20650000224,
      "d": 155.03633333332255,
      "v": 94
    },
    {
      "midi": 59,
      "hit": false,
      "t": 199299.20650000224,
      "d": 155.03633333332255,
      "v": 94
    },
    {
      "midi": 64,
      "hit": false,
      "t": 199299.20650000224,
      "d": 155.03633333332255,
      "v": 94
    },
    {
      "midi": 52,
      "hit": false,
      "t": 199531.76100000224,
      "d": 155.03633333335165,
      "v": 94
    },
    {
      "midi": 57,
      "hit": false,
      "t": 199648.03825000225,
      "d": 155.03633333335165,
      "v": 94
    },
    {
      "midi": 59,
      "hit": false,
      "t": 199648.03825000225,
      "d": 155.03633333335165,
      "v": 94
    },
    {
      "midi": 64,
      "hit": false,
      "t": 199648.03825000225,
      "d": 155.03633333335165,
      "v": 94
    },
    {
      "midi": 52,
      "hit": false,
      "t": 199996.8700000023,
      "d": 38.75908333333791,
      "v": 94
    },
    {
      "midi": 59,
      "hit": false,
      "t": 199996.8700000023,
      "d": 155.03633333335165,
      "v": 94
    },
    {
      "midi": 64,
      "hit": false,
      "t": 199996.8700000023,
      "d": 155.03633333335165,
      "v": 94
    },
    {
      "midi": 69,
      "hit": false,
      "t": 199996.8700000023,
      "d": 155.03633333335165,
      "v": 94
    },
    {
      "midi": 52,
      "hit": false,
      "t": 200229.42450000232,
      "d": 155.03633333332255,
      "v": 94
    },
    {
      "midi": 59,
      "hit": false,
      "t": 200229.42450000232,
      "d": 155.03633333332255,
      "v": 94
    },
    {
      "midi": 64,
      "hit": false,
      "t": 200229.42450000232,
      "d": 155.03633333332255,
      "v": 94
    },
    {
      "midi": 69,
      "hit": false,
      "t": 200229.42450000232,
      "d": 155.03633333332255,
      "v": 94
    },
    {
      "midi": 52,
      "hit": false,
      "t": 200461.97900000232,
      "d": 155.03633333332255,
      "v": 94
    },
    {
      "midi": 59,
      "hit": false,
      "t": 200461.97900000232,
      "d": 155.03633333332255,
      "v": 94
    },
    {
      "midi": 64,
      "hit": false,
      "t": 200461.97900000232,
      "d": 155.03633333332255,
      "v": 94
    },
    {
      "midi": 68,
      "hit": false,
      "t": 200461.97900000232,
      "d": 155.03633333332255,
      "v": 94
    },
    {
      "midi": 52,
      "hit": false,
      "t": 200694.53350000232,
      "d": 155.03633333332255,
      "v": 94
    },
    {
      "midi": 59,
      "hit": false,
      "t": 200694.53350000232,
      "d": 155.03633333332255,
      "v": 94
    },
    {
      "midi": 64,
      "hit": false,
      "t": 200694.53350000232,
      "d": 155.03633333332255,
      "v": 94
    },
    {
      "midi": 68,
      "hit": false,
      "t": 200694.53350000232,
      "d": 155.03633333332255,
      "v": 94
    },
    {
      "midi": 54,
      "hit": false,
      "t": 200927.08800000232,
      "d": 155.03633333332255,
      "v": 94
    },
    {
      "midi": 61,
      "hit": false,
      "t": 201159.64250000232,
      "d": 155.03633333332255,
      "v": 94
    },
    {
      "midi": 66,
      "hit": false,
      "t": 201159.64250000232,
      "d": 155.03633333332255,
      "v": 94
    },
    {
      "midi": 69,
      "hit": false,
      "t": 201159.64250000232,
      "d": 155.03633333332255,
      "v": 94
    },
    {
      "midi": 54,
      "hit": false,
      "t": 201392.1970000023,
      "d": 155.03633333335165,
      "v": 94
    },
    {
      "midi": 61,
      "hit": false,
      "t": 201508.47425000233,
      "d": 155.03633333335165,
      "v": 94
    },
    {
      "midi": 66,
      "hit": false,
      "t": 201508.47425000233,
      "d": 155.03633333335165,
      "v": 94
    },
    {
      "midi": 69,
      "hit": false,
      "t": 201508.47425000233,
      "d": 155.03633333335165,
      "v": 94
    },
    {
      "midi": 54,
      "hit": false,
      "t": 201741.02875000236,
      "d": 155.03633333335165,
      "v": 94
    },
    {
      "midi": 61,
      "hit": false,
      "t": 201857.30600000237,
      "d": 155.03633333335165,
      "v": 94
    },
    {
      "midi": 66,
      "hit": false,
      "t": 201857.30600000237,
      "d": 155.03633333335165,
      "v": 94
    },
    {
      "midi": 69,
      "hit": false,
      "t": 201857.30600000237,
      "d": 155.03633333335165,
      "v": 94
    },
    {
      "midi": 54,
      "hit": false,
      "t": 202089.8605000024,
      "d": 155.03633333335165,
      "v": 94
    },
    {
      "midi": 61,
      "hit": false,
      "t": 202206.1377500024,
      "d": 155.03633333335165,
      "v": 94
    },
    {
      "midi": 66,
      "hit": false,
      "t": 202206.1377500024,
      "d": 155.03633333335165,
      "v": 94
    },
    {
      "midi": 69,
      "hit": false,
      "t": 202206.1377500024,
      "d": 155.03633333335165,
      "v": 94
    },
    {
      "midi": 54,
      "hit": false,
      "t": 202438.69225000244,
      "d": 155.03633333335165,
      "v": 94
    },
    {
      "midi": 61,
      "hit": false,
      "t": 202554.96950000245,
      "d": 155.03633333335165,
      "v": 94
    },
    {
      "midi": 66,
      "hit": false,
      "t": 202554.96950000245,
      "d": 155.03633333335165,
      "v": 94
    },
    {
      "midi": 69,
      "hit": false,
      "t": 202554.96950000245,
      "d": 155.03633333335165,
      "v": 94
    },
    {
      "midi": 52,
      "hit": false,
      "t": 202787.52400000248,
      "d": 155.03633333332255,
      "v": 94
    },
    {
      "midi": 59,
      "hit": false,
      "t": 203020.07850000248,
      "d": 155.03633333332255,
      "v": 94
    },
    {
      "midi": 64,
      "hit": false,
      "t": 203020.07850000248,
      "d": 155.03633333332255,
      "v": 94
    },
    {
      "midi": 69,
      "hit": false,
      "t": 203020.07850000248,
      "d": 155.03633333332255,
      "v": 94
    },
    {
      "midi": 52,
      "hit": false,
      "t": 203252.63300000248,
      "d": 155.03633333335165,
      "v": 94
    },
    {
      "midi": 59,
      "hit": false,
      "t": 203368.9102500025,
      "d": 155.03633333335165,
      "v": 94
    },
    {
      "midi": 64,
      "hit": false,
      "t": 203368.9102500025,
      "d": 155.03633333335165,
      "v": 94
    },
    {
      "midi": 69,
      "hit": false,
      "t": 203368.9102500025,
      "d": 155.03633333335165,
      "v": 94
    },
    {
      "midi": 52,
      "hit": false,
      "t": 203601.46475000252,
      "d": 155.03633333335165,
      "v": 94
    },
    {
      "midi": 59,
      "hit": false,
      "t": 203717.74200000253,
      "d": 155.03633333335165,
      "v": 94
    },
    {
      "midi": 64,
      "hit": false,
      "t": 203717.74200000253,
      "d": 155.03633333335165,
      "v": 94
    },
    {
      "midi": 69,
      "hit": false,
      "t": 203717.74200000253,
      "d": 155.03633333335165,
      "v": 94
    },
    {
      "midi": 52,
      "hit": false,
      "t": 203950.29650000256,
      "d": 155.03633333335165,
      "v": 94
    },
    {
      "midi": 59,
      "hit": false,
      "t": 204066.57375000257,
      "d": 155.03633333335165,
      "v": 94
    },
    {
      "midi": 64,
      "hit": false,
      "t": 204066.57375000257,
      "d": 155.03633333335165,
      "v": 94
    },
    {
      "midi": 69,
      "hit": false,
      "t": 204066.57375000257,
      "d": 155.03633333335165,
      "v": 94
    },
    {
      "midi": 52,
      "hit": false,
      "t": 204299.1282500026,
      "d": 155.03633333335165,
      "v": 94
    },
    {
      "midi": 59,
      "hit": false,
      "t": 204415.4055000026,
      "d": 155.03633333335165,
      "v": 94
    },
    {
      "midi": 64,
      "hit": false,
      "t": 204415.4055000026,
      "d": 155.03633333335165,
      "v": 94
    },
    {
      "midi": 68,
      "hit": false,
      "t": 204415.4055000026,
      "d": 155.03633333335165,
      "v": 94
    },
    {
      "midi": 50,
      "hit": false,
      "t": 204647.96000000264,
      "d": 155.03633333332255,
      "v": 94
    },
    {
      "midi": 57,
      "hit": false,
      "t": 204880.51450000264,
      "d": 155.03633333332255,
      "v": 94
    },
    {
      "midi": 62,
      "hit": false,
      "t": 204880.51450000264,
      "d": 155.03633333332255,
      "v": 94
    },
    {
      "midi": 66,
      "hit": false,
      "t": 204880.51450000264,
      "d": 155.03633333332255,
      "v": 94
    },
    {
      "midi": 50,
      "hit": false,
      "t": 205113.06900000264,
      "d": 155.03633333335165,
      "v": 94
    },
    {
      "midi": 57,
      "hit": false,
      "t": 205229.34625000265,
      "d": 155.03633333335165,
      "v": 94
    },
    {
      "midi": 62,
      "hit": false,
      "t": 205229.34625000265,
      "d": 155.03633333335165,
      "v": 94
    },
    {
      "midi": 66,
      "hit": false,
      "t": 205229.34625000265,
      "d": 155.03633333335165,
      "v": 94
    },
    {
      "midi": 50,
      "hit": false,
      "t": 205461.90075000268,
      "d": 155.03633333335165,
      "v": 94
    },
    {
      "midi": 57,
      "hit": false,
      "t": 205578.1780000027,
      "d": 155.03633333335165,
      "v": 94
    },
    {
      "midi": 62,
      "hit": false,
      "t": 205578.1780000027,
      "d": 155.03633333335165,
      "v": 94
    },
    {
      "midi": 66,
      "hit": false,
      "t": 205578.1780000027,
      "d": 155.03633333335165,
      "v": 94
    },
    {
      "midi": 50,
      "hit": false,
      "t": 205810.73250000272,
      "d": 155.03633333335165,
      "v": 94
    },
    {
      "midi": 57,
      "hit": false,
      "t": 205927.00975000273,
      "d": 155.03633333335165,
      "v": 94
    },
    {
      "midi": 62,
      "hit": false,
      "t": 205927.00975000273,
      "d": 155.03633333335165,
      "v": 94
    },
    {
      "midi": 66,
      "hit": false,
      "t": 205927.00975000273,
      "d": 155.03633333335165,
      "v": 94
    },
    {
      "midi": 50,
      "hit": false,
      "t": 206159.56425000276,
      "d": 155.03633333335165,
      "v": 94
    },
    {
      "midi": 57,
      "hit": false,
      "t": 206275.84150000277,
      "d": 155.03633333335165,
      "v": 94
    },
    {
      "midi": 62,
      "hit": false,
      "t": 206275.84150000277,
      "d": 155.03633333335165,
      "v": 94
    },
    {
      "midi": 66,
      "hit": false,
      "t": 206275.84150000277,
      "d": 155.03633333335165,
      "v": 94
    },
    {
      "midi": 52,
      "hit": false,
      "t": 206508.3960000028,
      "d": 155.03633333332255,
      "v": 94
    },
    {
      "midi": 57,
      "hit": false,
      "t": 206740.9505000028,
      "d": 155.03633333332255,
      "v": 94
    },
    {
      "midi": 59,
      "hit": false,
      "t": 206740.9505000028,
      "d": 155.03633333332255,
      "v": 94
    },
    {
      "midi": 64,
      "hit": false,
      "t": 206740.9505000028,
      "d": 155.03633333332255,
      "v": 94
    },
    {
      "midi": 52,
      "hit": false,
      "t": 206973.5050000028,
      "d": 155.03633333335165,
      "v": 94
    },
    {
      "midi": 57,
      "hit": false,
      "t": 207089.7822500028,
      "d": 155.03633333335165,
      "v": 94
    },
    {
      "midi": 59,
      "hit": false,
      "t": 207089.7822500028,
      "d": 155.03633333335165,
      "v": 94
    },
    {
      "midi": 64,
      "hit": false,
      "t": 207089.7822500028,
      "d": 155.03633333335165,
      "v": 94
    },
    {
      "midi": 52,
      "hit": false,
      "t": 207438.61400000285,
      "d": 38.75908333333791,
      "v": 94
    },
    {
      "midi": 59,
      "hit": false,
      "t": 207438.61400000285,
      "d": 155.03633333335165,
      "v": 94
    },
    {
      "midi": 64,
      "hit": false,
      "t": 207438.61400000285,
      "d": 155.03633333335165,
      "v": 94
    },
    {
      "midi": 69,
      "hit": false,
      "t": 207438.61400000285,
      "d": 155.03633333335165,
      "v": 94
    },
    {
      "midi": 52,
      "hit": false,
      "t": 207671.16850000288,
      "d": 155.03633333332255,
      "v": 94
    },
    {
      "midi": 59,
      "hit": false,
      "t": 207671.16850000288,
      "d": 155.03633333332255,
      "v": 94
    },
    {
      "midi": 64,
      "hit": false,
      "t": 207671.16850000288,
      "d": 155.03633333332255,
      "v": 94
    },
    {
      "midi": 69,
      "hit": false,
      "t": 207671.16850000288,
      "d": 155.03633333332255,
      "v": 94
    },
    {
      "midi": 52,
      "hit": false,
      "t": 207903.72300000288,
      "d": 155.03633333332255,
      "v": 94
    },
    {
      "midi": 59,
      "hit": false,
      "t": 207903.72300000288,
      "d": 155.03633333332255,
      "v": 94
    },
    {
      "midi": 64,
      "hit": false,
      "t": 207903.72300000288,
      "d": 155.03633333332255,
      "v": 94
    },
    {
      "midi": 68,
      "hit": false,
      "t": 207903.72300000288,
      "d": 155.03633333332255,
      "v": 94
    },
    {
      "midi": 52,
      "hit": false,
      "t": 208136.27750000288,
      "d": 155.03633333332255,
      "v": 94
    },
    {
      "midi": 59,
      "hit": false,
      "t": 208136.27750000288,
      "d": 155.03633333332255,
      "v": 94
    },
    {
      "midi": 64,
      "hit": false,
      "t": 208136.27750000288,
      "d": 155.03633333332255,
      "v": 94
    },
    {
      "midi": 68,
      "hit": false,
      "t": 208136.27750000288,
      "d": 155.03633333332255,
      "v": 94
    },
    {
      "midi": 54,
      "hit": false,
      "t": 208368.83200000288,
      "d": 155.03633333332255,
      "v": 88
    },
    {
      "midi": 61,
      "hit": false,
      "t": 208601.38650000287,
      "d": 155.03633333332255,
      "v": 88
    },
    {
      "midi": 66,
      "hit": false,
      "t": 208601.38650000287,
      "d": 155.03633333332255,
      "v": 88
    },
    {
      "midi": 69,
      "hit": false,
      "t": 208601.38650000287,
      "d": 155.03633333332255,
      "v": 88
    },
    {
      "midi": 54,
      "hit": false,
      "t": 208833.94100000287,
      "d": 155.03633333335165,
      "v": 88
    },
    {
      "midi": 61,
      "hit": false,
      "t": 208950.2182500029,
      "d": 155.03633333335165,
      "v": 88
    },
    {
      "midi": 66,
      "hit": false,
      "t": 208950.2182500029,
      "d": 155.03633333335165,
      "v": 88
    },
    {
      "midi": 69,
      "hit": false,
      "t": 208950.2182500029,
      "d": 155.03633333335165,
      "v": 88
    },
    {
      "midi": 54,
      "hit": false,
      "t": 209182.7727500029,
      "d": 155.03633333335165,
      "v": 88
    },
    {
      "midi": 61,
      "hit": false,
      "t": 209299.05000000293,
      "d": 155.03633333335165,
      "v": 88
    },
    {
      "midi": 66,
      "hit": false,
      "t": 209299.05000000293,
      "d": 155.03633333335165,
      "v": 88
    },
    {
      "midi": 69,
      "hit": false,
      "t": 209299.05000000293,
      "d": 155.03633333335165,
      "v": 88
    },
    {
      "midi": 54,
      "hit": false,
      "t": 209531.60450000296,
      "d": 155.03633333335165,
      "v": 88
    },
    {
      "midi": 61,
      "hit": false,
      "t": 209647.88175000297,
      "d": 155.03633333335165,
      "v": 88
    },
    {
      "midi": 66,
      "hit": false,
      "t": 209647.88175000297,
      "d": 155.03633333335165,
      "v": 88
    },
    {
      "midi": 69,
      "hit": false,
      "t": 209647.88175000297,
      "d": 155.03633333335165,
      "v": 88
    },
    {
      "midi": 54,
      "hit": false,
      "t": 209880.436250003,
      "d": 155.03633333335165,
      "v": 88
    },
    {
      "midi": 61,
      "hit": false,
      "t": 209996.713500003,
      "d": 155.03633333335165,
      "v": 88
    },
    {
      "midi": 66,
      "hit": false,
      "t": 209996.713500003,
      "d": 155.03633333335165,
      "v": 88
    },
    {
      "midi": 69,
      "hit": false,
      "t": 209996.713500003,
      "d": 155.03633333335165,
      "v": 88
    },
    {
      "midi": 52,
      "hit": false,
      "t": 210229.26800000304,
      "d": 155.03633333332255,
      "v": 88
    },
    {
      "midi": 59,
      "hit": false,
      "t": 210461.82250000304,
      "d": 155.03633333332255,
      "v": 88
    },
    {
      "midi": 64,
      "hit": false,
      "t": 210461.82250000304,
      "d": 155.03633333332255,
      "v": 88
    },
    {
      "midi": 69,
      "hit": false,
      "t": 210461.82250000304,
      "d": 155.03633333332255,
      "v": 88
    },
    {
      "midi": 52,
      "hit": false,
      "t": 210694.37700000303,
      "d": 155.03633333335165,
      "v": 88
    },
    {
      "midi": 59,
      "hit": false,
      "t": 210810.65425000305,
      "d": 155.03633333335165,
      "v": 88
    },
    {
      "midi": 64,
      "hit": false,
      "t": 210810.65425000305,
      "d": 155.03633333335165,
      "v": 88
    },
    {
      "midi": 69,
      "hit": false,
      "t": 210810.65425000305,
      "d": 155.03633333335165,
      "v": 88
    },
    {
      "midi": 52,
      "hit": false,
      "t": 211043.20875000308,
      "d": 155.03633333335165,
      "v": 88
    },
    {
      "midi": 59,
      "hit": false,
      "t": 211159.4860000031,
      "d": 155.03633333335165,
      "v": 88
    },
    {
      "midi": 64,
      "hit": false,
      "t": 211159.4860000031,
      "d": 155.03633333335165,
      "v": 88
    },
    {
      "midi": 69,
      "hit": false,
      "t": 211159.4860000031,
      "d": 155.03633333335165,
      "v": 88
    },
    {
      "midi": 52,
      "hit": false,
      "t": 211392.04050000312,
      "d": 155.03633333335165,
      "v": 88
    },
    {
      "midi": 59,
      "hit": false,
      "t": 211508.31775000313,
      "d": 155.03633333335165,
      "v": 88
    },
    {
      "midi": 64,
      "hit": false,
      "t": 211508.31775000313,
      "d": 155.03633333335165,
      "v": 88
    },
    {
      "midi": 69,
      "hit": false,
      "t": 211508.31775000313,
      "d": 155.03633333335165,
      "v": 88
    },
    {
      "midi": 52,
      "hit": false,
      "t": 211740.87225000316,
      "d": 155.03633333335165,
      "v": 88
    },
    {
      "midi": 59,
      "hit": false,
      "t": 211857.14950000317,
      "d": 155.03633333335165,
      "v": 88
    },
    {
      "midi": 64,
      "hit": false,
      "t": 211857.14950000317,
      "d": 155.03633333335165,
      "v": 88
    },
    {
      "midi": 68,
      "hit": false,
      "t": 211857.14950000317,
      "d": 155.03633333335165,
      "v": 88
    },
    {
      "midi": 50,
      "hit": false,
      "t": 212089.7040000032,
      "d": 155.03633333332255,
      "v": 88
    },
    {
      "midi": 57,
      "hit": false,
      "t": 212322.2585000032,
      "d": 155.03633333332255,
      "v": 88
    },
    {
      "midi": 62,
      "hit": false,
      "t": 212322.2585000032,
      "d": 155.03633333332255,
      "v": 88
    },
    {
      "midi": 66,
      "hit": false,
      "t": 212322.2585000032,
      "d": 155.03633333332255,
      "v": 88
    },
    {
      "midi": 50,
      "hit": false,
      "t": 212554.8130000032,
      "d": 155.03633333335165,
      "v": 88
    },
    {
      "midi": 57,
      "hit": false,
      "t": 212671.0902500032,
      "d": 155.03633333335165,
      "v": 88
    },
    {
      "midi": 62,
      "hit": false,
      "t": 212671.0902500032,
      "d": 155.03633333335165,
      "v": 88
    },
    {
      "midi": 66,
      "hit": false,
      "t": 212671.0902500032,
      "d": 155.03633333335165,
      "v": 88
    },
    {
      "midi": 50,
      "hit": false,
      "t": 212903.64475000324,
      "d": 155.03633333335165,
      "v": 88
    },
    {
      "midi": 57,
      "hit": false,
      "t": 213019.92200000325,
      "d": 155.03633333335165,
      "v": 88
    },
    {
      "midi": 62,
      "hit": false,
      "t": 213019.92200000325,
      "d": 155.03633333335165,
      "v": 88
    },
    {
      "midi": 66,
      "hit": false,
      "t": 213019.92200000325,
      "d": 155.03633333335165,
      "v": 88
    },
    {
      "midi": 50,
      "hit": false,
      "t": 213252.47650000328,
      "d": 155.03633333335165,
      "v": 88
    },
    {
      "midi": 57,
      "hit": false,
      "t": 213368.7537500033,
      "d": 155.03633333335165,
      "v": 88
    },
    {
      "midi": 62,
      "hit": false,
      "t": 213368.7537500033,
      "d": 155.03633333335165,
      "v": 88
    },
    {
      "midi": 66,
      "hit": false,
      "t": 213368.7537500033,
      "d": 155.03633333335165,
      "v": 88
    },
    {
      "midi": 50,
      "hit": false,
      "t": 213601.30825000332,
      "d": 155.03633333335165,
      "v": 88
    },
    {
      "midi": 57,
      "hit": false,
      "t": 213717.58550000333,
      "d": 155.03633333335165,
      "v": 88
    },
    {
      "midi": 62,
      "hit": false,
      "t": 213717.58550000333,
      "d": 155.03633333335165,
      "v": 88
    },
    {
      "midi": 66,
      "hit": false,
      "t": 213717.58550000333,
      "d": 155.03633333335165,
      "v": 88
    },
    {
      "midi": 52,
      "hit": false,
      "t": 213950.14000000336,
      "d": 155.03633333332255,
      "v": 88
    },
    {
      "midi": 57,
      "hit": false,
      "t": 214182.69450000336,
      "d": 155.03633333332255,
      "v": 88
    },
    {
      "midi": 59,
      "hit": false,
      "t": 214182.69450000336,
      "d": 155.03633333332255,
      "v": 88
    },
    {
      "midi": 64,
      "hit": false,
      "t": 214182.69450000336,
      "d": 155.03633333332255,
      "v": 88
    },
    {
      "midi": 52,
      "hit": false,
      "t": 214415.24900000336,
      "d": 155.03633333335165,
      "v": 88
    },
    {
      "midi": 57,
      "hit": false,
      "t": 214531.52625000337,
      "d": 155.03633333335165,
      "v": 88
    },
    {
      "midi": 59,
      "hit": false,
      "t": 214531.52625000337,
      "d": 155.03633333335165,
      "v": 88
    },
    {
      "midi": 64,
      "hit": false,
      "t": 214531.52625000337,
      "d": 155.03633333335165,
      "v": 88
    },
    {
      "midi": 52,
      "hit": false,
      "t": 214880.3580000034,
      "d": 38.75908333333791,
      "v": 88
    },
    {
      "midi": 59,
      "hit": false,
      "t": 214880.3580000034,
      "d": 155.03633333335165,
      "v": 88
    },
    {
      "midi": 64,
      "hit": false,
      "t": 214880.3580000034,
      "d": 155.03633333335165,
      "v": 88
    },
    {
      "midi": 69,
      "hit": false,
      "t": 214880.3580000034,
      "d": 155.03633333335165,
      "v": 88
    },
    {
      "midi": 52,
      "hit": false,
      "t": 215112.91250000344,
      "d": 155.03633333332255,
      "v": 88
    },
    {
      "midi": 59,
      "hit": false,
      "t": 215112.91250000344,
      "d": 155.03633333332255,
      "v": 88
    },
    {
      "midi": 64,
      "hit": false,
      "t": 215112.91250000344,
      "d": 155.03633333332255,
      "v": 88
    },
    {
      "midi": 69,
      "hit": false,
      "t": 215112.91250000344,
      "d": 155.03633333332255,
      "v": 88
    },
    {
      "midi": 52,
      "hit": false,
      "t": 215345.46700000344,
      "d": 155.03633333332255,
      "v": 88
    },
    {
      "midi": 59,
      "hit": false,
      "t": 215345.46700000344,
      "d": 155.03633333332255,
      "v": 88
    },
    {
      "midi": 64,
      "hit": false,
      "t": 215345.46700000344,
      "d": 155.03633333332255,
      "v": 88
    },
    {
      "midi": 68,
      "hit": false,
      "t": 215345.46700000344,
      "d": 155.03633333332255,
      "v": 88
    },
    {
      "midi": 52,
      "hit": false,
      "t": 215578.02150000344,
      "d": 155.03633333332255,
      "v": 88
    },
    {
      "midi": 59,
      "hit": false,
      "t": 215578.02150000344,
      "d": 155.03633333332255,
      "v": 88
    },
    {
      "midi": 64,
      "hit": false,
      "t": 215578.02150000344,
      "d": 155.03633333332255,
      "v": 88
    },
    {
      "midi": 68,
      "hit": false,
      "t": 215578.02150000344,
      "d": 155.03633333332255,
      "v": 88
    },
    {
      "midi": 54,
      "hit": false,
      "t": 215810.57600000344,
      "d": 155.03633333332255,
      "v": 88
    },
    {
      "midi": 61,
      "hit": false,
      "t": 216043.13050000343,
      "d": 155.03633333332255,
      "v": 88
    },
    {
      "midi": 66,
      "hit": false,
      "t": 216043.13050000343,
      "d": 155.03633333332255,
      "v": 88
    },
    {
      "midi": 69,
      "hit": false,
      "t": 216043.13050000343,
      "d": 155.03633333332255,
      "v": 88
    },
    {
      "midi": 54,
      "hit": false,
      "t": 216275.68500000343,
      "d": 155.03633333335165,
      "v": 88
    },
    {
      "midi": 61,
      "hit": false,
      "t": 216391.96225000345,
      "d": 155.03633333335165,
      "v": 88
    },
    {
      "midi": 66,
      "hit": false,
      "t": 216391.96225000345,
      "d": 155.03633333335165,
      "v": 88
    },
    {
      "midi": 69,
      "hit": false,
      "t": 216391.96225000345,
      "d": 155.03633333335165,
      "v": 88
    },
    {
      "midi": 54,
      "hit": false,
      "t": 216624.51675000347,
      "d": 155.03633333335165,
      "v": 88
    },
    {
      "midi": 61,
      "hit": false,
      "t": 216740.7940000035,
      "d": 155.03633333335165,
      "v": 88
    },
    {
      "midi": 66,
      "hit": false,
      "t": 216740.7940000035,
      "d": 155.03633333335165,
      "v": 88
    },
    {
      "midi": 69,
      "hit": false,
      "t": 216740.7940000035,
      "d": 155.03633333335165,
      "v": 88
    },
    {
      "midi": 54,
      "hit": false,
      "t": 216973.3485000035,
      "d": 155.03633333335165,
      "v": 88
    },
    {
      "midi": 61,
      "hit": false,
      "t": 217089.62575000353,
      "d": 155.03633333335165,
      "v": 88
    },
    {
      "midi": 66,
      "hit": false,
      "t": 217089.62575000353,
      "d": 155.03633333335165,
      "v": 88
    },
    {
      "midi": 69,
      "hit": false,
      "t": 217089.62575000353,
      "d": 155.03633333335165,
      "v": 88
    },
    {
      "midi": 54,
      "hit": false,
      "t": 217322.18025000356,
      "d": 155.03633333335165,
      "v": 88
    },
    {
      "midi": 61,
      "hit": false,
      "t": 217438.45750000357,
      "d": 155.03633333335165,
      "v": 88
    },
    {
      "midi": 66,
      "hit": false,
      "t": 217438.45750000357,
      "d": 155.03633333335165,
      "v": 88
    },
    {
      "midi": 69,
      "hit": false,
      "t": 217438.45750000357,
      "d": 155.03633333335165,
      "v": 88
    },
    {
      "midi": 52,
      "hit": false,
      "t": 217671.0120000036,
      "d": 155.03633333332255,
      "v": 88
    },
    {
      "midi": 59,
      "hit": false,
      "t": 217903.5665000036,
      "d": 155.03633333332255,
      "v": 88
    },
    {
      "midi": 64,
      "hit": false,
      "t": 217903.5665000036,
      "d": 155.03633333332255,
      "v": 88
    },
    {
      "midi": 69,
      "hit": false,
      "t": 217903.5665000036,
      "d": 155.03633333332255,
      "v": 88
    },
    {
      "midi": 52,
      "hit": false,
      "t": 218136.1210000036,
      "d": 155.03633333335165,
      "v": 88
    },
    {
      "midi": 59,
      "hit": false,
      "t": 218252.3982500036,
      "d": 155.03633333335165,
      "v": 88
    },
    {
      "midi": 64,
      "hit": false,
      "t": 218252.3982500036,
      "d": 155.03633333335165,
      "v": 88
    },
    {
      "midi": 69,
      "hit": false,
      "t": 218252.3982500036,
      "d": 155.03633333335165,
      "v": 88
    },
    {
      "midi": 52,
      "hit": false,
      "t": 218484.95275000363,
      "d": 155.03633333335165,
      "v": 88
    },
    {
      "midi": 59,
      "hit": false,
      "t": 218601.23000000365,
      "d": 155.03633333335165,
      "v": 88
    },
    {
      "midi": 64,
      "hit": false,
      "t": 218601.23000000365,
      "d": 155.03633333335165,
      "v": 88
    },
    {
      "midi": 69,
      "hit": false,
      "t": 218601.23000000365,
      "d": 155.03633333335165,
      "v": 88
    },
    {
      "midi": 52,
      "hit": false,
      "t": 218833.78450000368,
      "d": 155.03633333335165,
      "v": 88
    },
    {
      "midi": 59,
      "hit": false,
      "t": 218950.0617500037,
      "d": 155.03633333335165,
      "v": 88
    },
    {
      "midi": 64,
      "hit": false,
      "t": 218950.0617500037,
      "d": 155.03633333335165,
      "v": 88
    },
    {
      "midi": 69,
      "hit": false,
      "t": 218950.0617500037,
      "d": 155.03633333335165,
      "v": 88
    },
    {
      "midi": 52,
      "hit": false,
      "t": 219182.61625000372,
      "d": 155.03633333335165,
      "v": 88
    },
    {
      "midi": 59,
      "hit": false,
      "t": 219298.89350000373,
      "d": 155.03633333335165,
      "v": 88
    },
    {
      "midi": 64,
      "hit": false,
      "t": 219298.89350000373,
      "d": 155.03633333335165,
      "v": 88
    },
    {
      "midi": 68,
      "hit": false,
      "t": 219298.89350000373,
      "d": 155.03633333335165,
      "v": 88
    },
    {
      "midi": 50,
      "hit": false,
      "t": 219531.44800000376,
      "d": 155.03633333332255,
      "v": 88
    },
    {
      "midi": 57,
      "hit": false,
      "t": 219764.00250000376,
      "d": 155.03633333332255,
      "v": 88
    },
    {
      "midi": 62,
      "hit": false,
      "t": 219764.00250000376,
      "d": 155.03633333332255,
      "v": 88
    },
    {
      "midi": 66,
      "hit": false,
      "t": 219764.00250000376,
      "d": 155.03633333332255,
      "v": 88
    },
    {
      "midi": 50,
      "hit": false,
      "t": 219996.55700000376,
      "d": 155.03633333335165,
      "v": 88
    },
    {
      "midi": 57,
      "hit": false,
      "t": 220112.83425000377,
      "d": 155.03633333335165,
      "v": 88
    },
    {
      "midi": 62,
      "hit": false,
      "t": 220112.83425000377,
      "d": 155.03633333335165,
      "v": 88
    },
    {
      "midi": 66,
      "hit": false,
      "t": 220112.83425000377,
      "d": 155.03633333335165,
      "v": 88
    },
    {
      "midi": 50,
      "hit": false,
      "t": 220345.3887500038,
      "d": 155.03633333335165,
      "v": 88
    },
    {
      "midi": 57,
      "hit": false,
      "t": 220461.6660000038,
      "d": 155.03633333335165,
      "v": 88
    },
    {
      "midi": 62,
      "hit": false,
      "t": 220461.6660000038,
      "d": 155.03633333335165,
      "v": 88
    },
    {
      "midi": 66,
      "hit": false,
      "t": 220461.6660000038,
      "d": 155.03633333335165,
      "v": 88
    },
    {
      "midi": 50,
      "hit": false,
      "t": 220694.22050000384,
      "d": 155.03633333335165,
      "v": 88
    },
    {
      "midi": 57,
      "hit": false,
      "t": 220810.49775000385,
      "d": 155.03633333335165,
      "v": 88
    },
    {
      "midi": 62,
      "hit": false,
      "t": 220810.49775000385,
      "d": 155.03633333335165,
      "v": 88
    },
    {
      "midi": 66,
      "hit": false,
      "t": 220810.49775000385,
      "d": 155.03633333335165,
      "v": 88
    },
    {
      "midi": 50,
      "hit": false,
      "t": 221043.05225000388,
      "d": 155.03633333335165,
      "v": 88
    },
    {
      "midi": 57,
      "hit": false,
      "t": 221159.3295000039,
      "d": 155.03633333335165,
      "v": 88
    },
    {
      "midi": 62,
      "hit": false,
      "t": 221159.3295000039,
      "d": 155.03633333335165,
      "v": 88
    },
    {
      "midi": 66,
      "hit": false,
      "t": 221159.3295000039,
      "d": 155.03633333335165,
      "v": 88
    },
    {
      "midi": 52,
      "hit": false,
      "t": 221391.88400000392,
      "d": 155.03633333332255,
      "v": 88
    },
    {
      "midi": 57,
      "hit": false,
      "t": 221624.43850000392,
      "d": 155.03633333332255,
      "v": 88
    },
    {
      "midi": 59,
      "hit": false,
      "t": 221624.43850000392,
      "d": 155.03633333332255,
      "v": 88
    },
    {
      "midi": 64,
      "hit": false,
      "t": 221624.43850000392,
      "d": 155.03633333332255,
      "v": 88
    },
    {
      "midi": 52,
      "hit": false,
      "t": 221856.99300000392,
      "d": 155.03633333335165,
      "v": 88
    },
    {
      "midi": 57,
      "hit": false,
      "t": 221973.27025000393,
      "d": 155.03633333335165,
      "v": 88
    },
    {
      "midi": 59,
      "hit": false,
      "t": 221973.27025000393,
      "d": 155.03633333335165,
      "v": 88
    },
    {
      "midi": 64,
      "hit": false,
      "t": 221973.27025000393,
      "d": 155.03633333335165,
      "v": 88
    },
    {
      "midi": 52,
      "hit": false,
      "t": 222322.10200000397,
      "d": 38.75908333333791,
      "v": 88
    },
    {
      "midi": 59,
      "hit": false,
      "t": 222322.10200000397,
      "d": 155.03633333335165,
      "v": 88
    },
    {
      "midi": 64,
      "hit": false,
      "t": 222322.10200000397,
      "d": 155.03633333335165,
      "v": 88
    },
    {
      "midi": 69,
      "hit": false,
      "t": 222322.10200000397,
      "d": 155.03633333335165,
      "v": 88
    },
    {
      "midi": 52,
      "hit": false,
      "t": 222554.656500004,
      "d": 155.03633333332255,
      "v": 88
    },
    {
      "midi": 59,
      "hit": false,
      "t": 222554.656500004,
      "d": 155.03633333332255,
      "v": 88
    },
    {
      "midi": 64,
      "hit": false,
      "t": 222554.656500004,
      "d": 155.03633333332255,
      "v": 88
    },
    {
      "midi": 69,
      "hit": false,
      "t": 222554.656500004,
      "d": 155.03633333332255,
      "v": 88
    },
    {
      "midi": 52,
      "hit": false,
      "t": 222787.211000004,
      "d": 155.03633333332255,
      "v": 88
    },
    {
      "midi": 59,
      "hit": false,
      "t": 222787.211000004,
      "d": 155.03633333332255,
      "v": 88
    },
    {
      "midi": 64,
      "hit": false,
      "t": 222787.211000004,
      "d": 155.03633333332255,
      "v": 88
    },
    {
      "midi": 68,
      "hit": false,
      "t": 222787.211000004,
      "d": 155.03633333332255,
      "v": 88
    },
    {
      "midi": 52,
      "hit": false,
      "t": 223019.765500004,
      "d": 155.03633333332255,
      "v": 88
    },
    {
      "midi": 59,
      "hit": false,
      "t": 223019.765500004,
      "d": 155.03633333332255,
      "v": 88
    },
    {
      "midi": 64,
      "hit": false,
      "t": 223019.765500004,
      "d": 155.03633333332255,
      "v": 88
    },
    {
      "midi": 68,
      "hit": false,
      "t": 223019.765500004,
      "d": 155.03633333332255,
      "v": 88
    },
    {
      "midi": 54,
      "hit": false,
      "t": 223252.320000004,
      "d": 155.03633333332255,
      "v": 88
    },
    {
      "midi": 61,
      "hit": false,
      "t": 223484.874500004,
      "d": 155.03633333332255,
      "v": 88
    },
    {
      "midi": 66,
      "hit": false,
      "t": 223484.874500004,
      "d": 155.03633333332255,
      "v": 88
    },
    {
      "midi": 69,
      "hit": false,
      "t": 223484.874500004,
      "d": 155.03633333332255,
      "v": 88
    },
    {
      "midi": 54,
      "hit": false,
      "t": 223717.429000004,
      "d": 155.03633333335165,
      "v": 88
    },
    {
      "midi": 61,
      "hit": false,
      "t": 223833.706250004,
      "d": 155.03633333335165,
      "v": 88
    },
    {
      "midi": 66,
      "hit": false,
      "t": 223833.706250004,
      "d": 155.03633333335165,
      "v": 88
    },
    {
      "midi": 69,
      "hit": false,
      "t": 223833.706250004,
      "d": 155.03633333335165,
      "v": 88
    },
    {
      "midi": 54,
      "hit": false,
      "t": 224066.26075000403,
      "d": 155.03633333335165,
      "v": 88
    },
    {
      "midi": 61,
      "hit": false,
      "t": 224182.53800000405,
      "d": 155.03633333335165,
      "v": 88
    },
    {
      "midi": 66,
      "hit": false,
      "t": 224182.53800000405,
      "d": 155.03633333335165,
      "v": 88
    },
    {
      "midi": 69,
      "hit": false,
      "t": 224182.53800000405,
      "d": 155.03633333335165,
      "v": 88
    },
    {
      "midi": 54,
      "hit": false,
      "t": 224415.09250000407,
      "d": 155.03633333335165,
      "v": 88
    },
    {
      "midi": 61,
      "hit": false,
      "t": 224531.3697500041,
      "d": 155.03633333335165,
      "v": 88
    },
    {
      "midi": 66,
      "hit": false,
      "t": 224531.3697500041,
      "d": 155.03633333335165,
      "v": 88
    },
    {
      "midi": 69,
      "hit": false,
      "t": 224531.3697500041,
      "d": 155.03633333335165,
      "v": 88
    },
    {
      "midi": 54,
      "hit": false,
      "t": 224763.92425000411,
      "d": 155.03633333335165,
      "v": 88
    },
    {
      "midi": 61,
      "hit": false,
      "t": 224880.20150000413,
      "d": 155.03633333335165,
      "v": 88
    },
    {
      "midi": 66,
      "hit": false,
      "t": 224880.20150000413,
      "d": 155.03633333335165,
      "v": 88
    },
    {
      "midi": 69,
      "hit": false,
      "t": 224880.20150000413,
      "d": 155.03633333335165,
      "v": 88
    },
    {
      "midi": 52,
      "hit": false,
      "t": 225112.75600000416,
      "d": 155.03633333332255,
      "v": 88
    },
    {
      "midi": 59,
      "hit": false,
      "t": 225345.31050000415,
      "d": 155.03633333332255,
      "v": 88
    },
    {
      "midi": 64,
      "hit": false,
      "t": 225345.31050000415,
      "d": 155.03633333332255,
      "v": 88
    },
    {
      "midi": 69,
      "hit": false,
      "t": 225345.31050000415,
      "d": 155.03633333332255,
      "v": 88
    },
    {
      "midi": 52,
      "hit": false,
      "t": 225577.86500000415,
      "d": 155.03633333335165,
      "v": 88
    },
    {
      "midi": 59,
      "hit": false,
      "t": 225694.14225000417,
      "d": 155.03633333335165,
      "v": 88
    },
    {
      "midi": 64,
      "hit": false,
      "t": 225694.14225000417,
      "d": 155.03633333335165,
      "v": 88
    },
    {
      "midi": 69,
      "hit": false,
      "t": 225694.14225000417,
      "d": 155.03633333335165,
      "v": 88
    },
    {
      "midi": 52,
      "hit": false,
      "t": 225926.6967500042,
      "d": 155.03633333335165,
      "v": 88
    },
    {
      "midi": 59,
      "hit": false,
      "t": 226042.9740000042,
      "d": 155.03633333335165,
      "v": 88
    },
    {
      "midi": 64,
      "hit": false,
      "t": 226042.9740000042,
      "d": 155.03633333335165,
      "v": 88
    },
    {
      "midi": 69,
      "hit": false,
      "t": 226042.9740000042,
      "d": 155.03633333335165,
      "v": 88
    },
    {
      "midi": 52,
      "hit": false,
      "t": 226275.52850000423,
      "d": 155.03633333335165,
      "v": 88
    },
    {
      "midi": 59,
      "hit": false,
      "t": 226391.80575000425,
      "d": 155.03633333335165,
      "v": 88
    },
    {
      "midi": 64,
      "hit": false,
      "t": 226391.80575000425,
      "d": 155.03633333335165,
      "v": 88
    },
    {
      "midi": 69,
      "hit": false,
      "t": 226391.80575000425,
      "d": 155.03633333335165,
      "v": 88
    },
    {
      "midi": 52,
      "hit": false,
      "t": 226624.36025000428,
      "d": 155.03633333335165,
      "v": 88
    },
    {
      "midi": 59,
      "hit": false,
      "t": 226740.6375000043,
      "d": 155.03633333335165,
      "v": 88
    },
    {
      "midi": 64,
      "hit": false,
      "t": 226740.6375000043,
      "d": 155.03633333335165,
      "v": 88
    },
    {
      "midi": 68,
      "hit": false,
      "t": 226740.6375000043,
      "d": 155.03633333335165,
      "v": 88
    },
    {
      "midi": 50,
      "hit": false,
      "t": 226973.19200000432,
      "d": 155.03633333332255,
      "v": 88
    },
    {
      "midi": 57,
      "hit": false,
      "t": 227205.74650000432,
      "d": 155.03633333332255,
      "v": 88
    },
    {
      "midi": 62,
      "hit": false,
      "t": 227205.74650000432,
      "d": 155.03633333332255,
      "v": 88
    },
    {
      "midi": 66,
      "hit": false,
      "t": 227205.74650000432,
      "d": 155.03633333332255,
      "v": 88
    },
    {
      "midi": 50,
      "hit": false,
      "t": 227438.3010000043,
      "d": 155.03633333335165,
      "v": 88
    },
    {
      "midi": 57,
      "hit": false,
      "t": 227554.57825000433,
      "d": 155.03633333335165,
      "v": 88
    },
    {
      "midi": 62,
      "hit": false,
      "t": 227554.57825000433,
      "d": 155.03633333335165,
      "v": 88
    },
    {
      "midi": 66,
      "hit": false,
      "t": 227554.57825000433,
      "d": 155.03633333335165,
      "v": 88
    },
    {
      "midi": 50,
      "hit": false,
      "t": 227787.13275000436,
      "d": 155.03633333335165,
      "v": 88
    },
    {
      "midi": 57,
      "hit": false,
      "t": 227903.41000000437,
      "d": 155.03633333335165,
      "v": 88
    },
    {
      "midi": 62,
      "hit": false,
      "t": 227903.41000000437,
      "d": 155.03633333335165,
      "v": 88
    },
    {
      "midi": 66,
      "hit": false,
      "t": 227903.41000000437,
      "d": 155.03633333335165,
      "v": 88
    },
    {
      "midi": 50,
      "hit": false,
      "t": 228135.9645000044,
      "d": 155.03633333335165,
      "v": 88
    },
    {
      "midi": 57,
      "hit": false,
      "t": 228252.2417500044,
      "d": 155.03633333335165,
      "v": 88
    },
    {
      "midi": 62,
      "hit": false,
      "t": 228252.2417500044,
      "d": 155.03633333335165,
      "v": 88
    },
    {
      "midi": 66,
      "hit": false,
      "t": 228252.2417500044,
      "d": 155.03633333335165,
      "v": 88
    },
    {
      "midi": 50,
      "hit": false,
      "t": 228484.79625000444,
      "d": 155.03633333335165,
      "v": 88
    },
    {
      "midi": 57,
      "hit": false,
      "t": 228601.07350000445,
      "d": 155.03633333335165,
      "v": 88
    },
    {
      "midi": 62,
      "hit": false,
      "t": 228601.07350000445,
      "d": 155.03633333335165,
      "v": 88
    },
    {
      "midi": 66,
      "hit": false,
      "t": 228601.07350000445,
      "d": 155.03633333335165,
      "v": 88
    },
    {
      "midi": 52,
      "hit": false,
      "t": 228833.62800000448,
      "d": 155.03633333332255,
      "v": 88
    },
    {
      "midi": 57,
      "hit": false,
      "t": 229066.18250000448,
      "d": 155.03633333332255,
      "v": 88
    },
    {
      "midi": 59,
      "hit": false,
      "t": 229066.18250000448,
      "d": 155.03633333332255,
      "v": 88
    },
    {
      "midi": 64,
      "hit": false,
      "t": 229066.18250000448,
      "d": 155.03633333332255,
      "v": 88
    },
    {
      "midi": 52,
      "hit": false,
      "t": 229298.73700000448,
      "d": 155.03633333335165,
      "v": 88
    },
    {
      "midi": 57,
      "hit": false,
      "t": 229415.0142500045,
      "d": 155.03633333335165,
      "v": 88
    },
    {
      "midi": 59,
      "hit": false,
      "t": 229415.0142500045,
      "d": 155.03633333335165,
      "v": 88
    },
    {
      "midi": 64,
      "hit": false,
      "t": 229415.0142500045,
      "d": 155.03633333335165,
      "v": 88
    },
    {
      "midi": 52,
      "hit": false,
      "t": 229763.84600000453,
      "d": 38.75908333333791,
      "v": 88
    },
    {
      "midi": 59,
      "hit": false,
      "t": 229763.84600000453,
      "d": 155.03633333335165,
      "v": 88
    },
    {
      "midi": 64,
      "hit": false,
      "t": 229763.84600000453,
      "d": 155.03633333335165,
      "v": 88
    },
    {
      "midi": 69,
      "hit": false,
      "t": 229763.84600000453,
      "d": 155.03633333335165,
      "v": 88
    },
    {
      "midi": 52,
      "hit": false,
      "t": 229996.40050000456,
      "d": 155.03633333332255,
      "v": 88
    },
    {
      "midi": 59,
      "hit": false,
      "t": 229996.40050000456,
      "d": 155.03633333332255,
      "v": 88
    },
    {
      "midi": 64,
      "hit": false,
      "t": 229996.40050000456,
      "d": 155.03633333332255,
      "v": 88
    },
    {
      "midi": 69,
      "hit": false,
      "t": 229996.40050000456,
      "d": 155.03633333332255,
      "v": 88
    },
    {
      "midi": 52,
      "hit": false,
      "t": 230228.95500000456,
      "d": 155.03633333332255,
      "v": 88
    },
    {
      "midi": 59,
      "hit": false,
      "t": 230228.95500000456,
      "d": 155.03633333332255,
      "v": 88
    },
    {
      "midi": 64,
      "hit": false,
      "t": 230228.95500000456,
      "d": 155.03633333332255,
      "v": 88
    },
    {
      "midi": 68,
      "hit": false,
      "t": 230228.95500000456,
      "d": 155.03633333332255,
      "v": 88
    },
    {
      "midi": 52,
      "hit": false,
      "t": 230461.50950000455,
      "d": 155.03633333332255,
      "v": 88
    },
    {
      "midi": 59,
      "hit": false,
      "t": 230461.50950000455,
      "d": 155.03633333332255,
      "v": 88
    },
    {
      "midi": 64,
      "hit": false,
      "t": 230461.50950000455,
      "d": 155.03633333332255,
      "v": 88
    },
    {
      "midi": 68,
      "hit": false,
      "t": 230461.50950000455,
      "d": 155.03633333332255,
      "v": 88
    },
    {
      "midi": 54,
      "hit": false,
      "t": 230694.06400000455,
      "d": 155.03633333332255,
      "v": 88
    },
    {
      "midi": 61,
      "hit": false,
      "t": 230926.61850000455,
      "d": 155.03633333332255,
      "v": 88
    },
    {
      "midi": 66,
      "hit": false,
      "t": 230926.61850000455,
      "d": 155.03633333332255,
      "v": 88
    },
    {
      "midi": 69,
      "hit": false,
      "t": 230926.61850000455,
      "d": 155.03633333332255,
      "v": 88
    },
    {
      "midi": 54,
      "hit": false,
      "t": 231159.17300000455,
      "d": 155.03633333335165,
      "v": 88
    },
    {
      "midi": 61,
      "hit": false,
      "t": 231275.45025000456,
      "d": 155.03633333335165,
      "v": 88
    },
    {
      "midi": 66,
      "hit": false,
      "t": 231275.45025000456,
      "d": 155.03633333335165,
      "v": 88
    },
    {
      "midi": 69,
      "hit": false,
      "t": 231275.45025000456,
      "d": 155.03633333335165,
      "v": 88
    },
    {
      "midi": 54,
      "hit": false,
      "t": 231508.0047500046,
      "d": 155.03633333335165,
      "v": 88
    },
    {
      "midi": 61,
      "hit": false,
      "t": 231624.2820000046,
      "d": 155.03633333335165,
      "v": 88
    },
    {
      "midi": 66,
      "hit": false,
      "t": 231624.2820000046,
      "d": 155.03633333335165,
      "v": 88
    },
    {
      "midi": 69,
      "hit": false,
      "t": 231624.2820000046,
      "d": 155.03633333335165,
      "v": 88
    },
    {
      "midi": 54,
      "hit": false,
      "t": 231856.83650000463,
      "d": 155.03633333335165,
      "v": 88
    },
    {
      "midi": 61,
      "hit": false,
      "t": 231973.11375000465,
      "d": 155.03633333335165,
      "v": 88
    },
    {
      "midi": 66,
      "hit": false,
      "t": 231973.11375000465,
      "d": 155.03633333335165,
      "v": 88
    },
    {
      "midi": 69,
      "hit": false,
      "t": 231973.11375000465,
      "d": 155.03633333335165,
      "v": 88
    },
    {
      "midi": 54,
      "hit": false,
      "t": 232205.66825000467,
      "d": 155.03633333335165,
      "v": 88
    },
    {
      "midi": 61,
      "hit": false,
      "t": 232321.9455000047,
      "d": 155.03633333335165,
      "v": 88
    },
    {
      "midi": 66,
      "hit": false,
      "t": 232321.9455000047,
      "d": 155.03633333335165,
      "v": 88
    },
    {
      "midi": 69,
      "hit": false,
      "t": 232321.9455000047,
      "d": 155.03633333335165,
      "v": 88
    },
    {
      "midi": 52,
      "hit": false,
      "t": 232554.50000000471,
      "d": 155.03633333332255,
      "v": 88
    },
    {
      "midi": 59,
      "hit": false,
      "t": 232787.0545000047,
      "d": 155.03633333332255,
      "v": 88
    },
    {
      "midi": 64,
      "hit": false,
      "t": 232787.0545000047,
      "d": 155.03633333332255,
      "v": 88
    },
    {
      "midi": 69,
      "hit": false,
      "t": 232787.0545000047,
      "d": 155.03633333332255,
      "v": 88
    },
    {
      "midi": 52,
      "hit": false,
      "t": 233019.6090000047,
      "d": 155.03633333335165,
      "v": 88
    },
    {
      "midi": 59,
      "hit": false,
      "t": 233135.88625000473,
      "d": 155.03633333335165,
      "v": 88
    },
    {
      "midi": 64,
      "hit": false,
      "t": 233135.88625000473,
      "d": 155.03633333335165,
      "v": 88
    },
    {
      "midi": 69,
      "hit": false,
      "t": 233135.88625000473,
      "d": 155.03633333335165,
      "v": 88
    },
    {
      "midi": 52,
      "hit": false,
      "t": 233368.44075000475,
      "d": 155.03633333335165,
      "v": 88
    },
    {
      "midi": 59,
      "hit": false,
      "t": 233484.71800000477,
      "d": 155.03633333335165,
      "v": 88
    },
    {
      "midi": 64,
      "hit": false,
      "t": 233484.71800000477,
      "d": 155.03633333335165,
      "v": 88
    },
    {
      "midi": 69,
      "hit": false,
      "t": 233484.71800000477,
      "d": 155.03633333335165,
      "v": 88
    },
    {
      "midi": 52,
      "hit": false,
      "t": 233717.2725000048,
      "d": 155.03633333335165,
      "v": 88
    },
    {
      "midi": 59,
      "hit": false,
      "t": 233833.5497500048,
      "d": 155.03633333335165,
      "v": 88
    },
    {
      "midi": 64,
      "hit": false,
      "t": 233833.5497500048,
      "d": 155.03633333335165,
      "v": 88
    },
    {
      "midi": 69,
      "hit": false,
      "t": 233833.5497500048,
      "d": 155.03633333335165,
      "v": 88
    },
    {
      "midi": 52,
      "hit": false,
      "t": 234066.10425000484,
      "d": 155.03633333335165,
      "v": 88
    },
    {
      "midi": 59,
      "hit": false,
      "t": 234182.38150000485,
      "d": 155.03633333335165,
      "v": 88
    },
    {
      "midi": 64,
      "hit": false,
      "t": 234182.38150000485,
      "d": 155.03633333335165,
      "v": 88
    },
    {
      "midi": 68,
      "hit": false,
      "t": 234182.38150000485,
      "d": 155.03633333335165,
      "v": 88
    },
    {
      "midi": 50,
      "hit": false,
      "t": 234414.93600000488,
      "d": 155.03633333332255,
      "v": 88
    },
    {
      "midi": 57,
      "hit": false,
      "t": 234647.49050000487,
      "d": 155.03633333332255,
      "v": 88
    },
    {
      "midi": 62,
      "hit": false,
      "t": 234647.49050000487,
      "d": 155.03633333332255,
      "v": 88
    },
    {
      "midi": 66,
      "hit": false,
      "t": 234647.49050000487,
      "d": 155.03633333332255,
      "v": 88
    },
    {
      "midi": 50,
      "hit": false,
      "t": 234880.04500000487,
      "d": 155.03633333335165,
      "v": 88
    },
    {
      "midi": 57,
      "hit": false,
      "t": 234996.3222500049,
      "d": 155.03633333335165,
      "v": 88
    },
    {
      "midi": 62,
      "hit": false,
      "t": 234996.3222500049,
      "d": 155.03633333335165,
      "v": 88
    },
    {
      "midi": 66,
      "hit": false,
      "t": 234996.3222500049,
      "d": 155.03633333335165,
      "v": 88
    },
    {
      "midi": 50,
      "hit": false,
      "t": 235228.8767500049,
      "d": 155.03633333335165,
      "v": 88
    },
    {
      "midi": 57,
      "hit": false,
      "t": 235345.15400000493,
      "d": 155.03633333335165,
      "v": 88
    },
    {
      "midi": 62,
      "hit": false,
      "t": 235345.15400000493,
      "d": 155.03633333335165,
      "v": 88
    },
    {
      "midi": 66,
      "hit": false,
      "t": 235345.15400000493,
      "d": 155.03633333335165,
      "v": 88
    },
    {
      "midi": 50,
      "hit": false,
      "t": 235577.70850000496,
      "d": 155.03633333335165,
      "v": 88
    },
    {
      "midi": 57,
      "hit": false,
      "t": 235693.98575000497,
      "d": 155.03633333335165,
      "v": 88
    },
    {
      "midi": 62,
      "hit": false,
      "t": 235693.98575000497,
      "d": 155.03633333335165,
      "v": 88
    },
    {
      "midi": 66,
      "hit": false,
      "t": 235693.98575000497,
      "d": 155.03633333335165,
      "v": 88
    },
    {
      "midi": 50,
      "hit": false,
      "t": 235926.540250005,
      "d": 155.03633333335165,
      "v": 88
    },
    {
      "midi": 57,
      "hit": false,
      "t": 236042.817500005,
      "d": 155.03633333335165,
      "v": 88
    },
    {
      "midi": 62,
      "hit": false,
      "t": 236042.817500005,
      "d": 155.03633333335165,
      "v": 88
    },
    {
      "midi": 66,
      "hit": false,
      "t": 236042.817500005,
      "d": 155.03633333335165,
      "v": 88
    },
    {
      "midi": 52,
      "hit": false,
      "t": 236275.37200000504,
      "d": 155.03633333332255,
      "v": 88
    },
    {
      "midi": 57,
      "hit": false,
      "t": 236507.92650000504,
      "d": 155.03633333332255,
      "v": 88
    },
    {
      "midi": 59,
      "hit": false,
      "t": 236507.92650000504,
      "d": 155.03633333332255,
      "v": 88
    },
    {
      "midi": 64,
      "hit": false,
      "t": 236507.92650000504,
      "d": 155.03633333332255,
      "v": 88
    },
    {
      "midi": 52,
      "hit": false,
      "t": 236740.48100000503,
      "d": 155.03633333335165,
      "v": 88
    },
    {
      "midi": 57,
      "hit": false,
      "t": 236856.75825000505,
      "d": 155.03633333335165,
      "v": 88
    },
    {
      "midi": 59,
      "hit": false,
      "t": 236856.75825000505,
      "d": 155.03633333335165,
      "v": 88
    },
    {
      "midi": 64,
      "hit": false,
      "t": 236856.75825000505,
      "d": 155.03633333335165,
      "v": 88
    },
    {
      "midi": 52,
      "hit": false,
      "t": 237205.5900000051,
      "d": 38.75908333333791,
      "v": 88
    },
    {
      "midi": 59,
      "hit": false,
      "t": 237205.5900000051,
      "d": 155.03633333335165,
      "v": 88
    },
    {
      "midi": 64,
      "hit": false,
      "t": 237205.5900000051,
      "d": 155.03633333335165,
      "v": 88
    },
    {
      "midi": 69,
      "hit": false,
      "t": 237205.5900000051,
      "d": 155.03633333335165,
      "v": 88
    },
    {
      "midi": 52,
      "hit": false,
      "t": 237438.14450000512,
      "d": 155.03633333332255,
      "v": 88
    },
    {
      "midi": 59,
      "hit": false,
      "t": 237438.14450000512,
      "d": 155.03633333332255,
      "v": 88
    },
    {
      "midi": 64,
      "hit": false,
      "t": 237438.14450000512,
      "d": 155.03633333332255,
      "v": 88
    },
    {
      "midi": 69,
      "hit": false,
      "t": 237438.14450000512,
      "d": 155.03633333332255,
      "v": 88
    },
    {
      "midi": 52,
      "hit": false,
      "t": 237670.69900000512,
      "d": 155.03633333332255,
      "v": 88
    },
    {
      "midi": 59,
      "hit": false,
      "t": 237670.69900000512,
      "d": 155.03633333332255,
      "v": 88
    },
    {
      "midi": 64,
      "hit": false,
      "t": 237670.69900000512,
      "d": 155.03633333332255,
      "v": 88
    },
    {
      "midi": 68,
      "hit": false,
      "t": 237670.69900000512,
      "d": 155.03633333332255,
      "v": 88
    },
    {
      "midi": 52,
      "hit": false,
      "t": 237903.2535000051,
      "d": 155.03633333332255,
      "v": 88
    },
    {
      "midi": 59,
      "hit": false,
      "t": 237903.2535000051,
      "d": 155.03633333332255,
      "v": 88
    },
    {
      "midi": 64,
      "hit": false,
      "t": 237903.2535000051,
      "d": 155.03633333332255,
      "v": 88
    },
    {
      "midi": 68,
      "hit": false,
      "t": 237903.2535000051,
      "d": 155.03633333332255,
      "v": 88
    },
    {
      "midi": 42,
      "hit": false,
      "t": 238135.8080000051,
      "d": 1375.9474583333358,
      "v": 96
    },
    {
      "midi": 42,
      "hit": false,
      "t": 239531.1350000051,
      "d": 58.13862499999232,
      "v": 96
    },
    {
      "midi": 49,
      "hit": false,
      "t": 239647.4122500051,
      "d": 58.13862499999232,
      "v": 96
    },
    {
      "midi": 45,
      "hit": false,
      "t": 239763.68950000507,
      "d": 58.13862499999232,
      "v": 96
    },
    {
      "midi": 49,
      "hit": false,
      "t": 239879.96675000506,
      "d": 58.13862499999232,
      "v": 96
    },
    {
      "midi": 40,
      "hit": false,
      "t": 239996.24400000504,
      "d": 1375.9474583333358,
      "v": 96
    },
    {
      "midi": 40,
      "hit": false,
      "t": 241391.57100000503,
      "d": 58.13862499999232,
      "v": 96
    },
    {
      "midi": 49,
      "hit": false,
      "t": 241507.84825000502,
      "d": 58.13862499999232,
      "v": 96
    },
    {
      "midi": 45,
      "hit": false,
      "t": 241624.125500005,
      "d": 58.13862499999232,
      "v": 96
    },
    {
      "midi": 49,
      "hit": false,
      "t": 241740.40275000499,
      "d": 58.13862499999232,
      "v": 96
    },
    {
      "midi": 38,
      "hit": false,
      "t": 241856.68000000497,
      "d": 1375.9474583333358,
      "v": 96
    },
    {
      "midi": 38,
      "hit": false,
      "t": 243252.00700000496,
      "d": 58.13862499999232,
      "v": 96
    },
    {
      "midi": 45,
      "hit": false,
      "t": 243368.28425000494,
      "d": 58.13862499999232,
      "v": 96
    },
    {
      "midi": 42,
      "hit": false,
      "t": 243484.56150000493,
      "d": 58.13862499999232,
      "v": 96
    },
    {
      "midi": 45,
      "hit": false,
      "t": 243600.8387500049,
      "d": 58.13862499999232,
      "v": 96
    },
    {
      "midi": 40,
      "hit": false,
      "t": 243717.1160000049,
      "d": 1375.9474583333358,
      "v": 96
    },
    {
      "midi": 42,
      "hit": false,
      "t": 245577.55200000491,
      "d": 1375.9474583333358,
      "v": 96
    },
    {
      "midi": 42,
      "hit": false,
      "t": 246972.8790000049,
      "d": 58.13862499999232,
      "v": 96
    },
    {
      "midi": 49,
      "hit": false,
      "t": 247089.1562500049,
      "d": 58.13862499999232,
      "v": 96
    },
    {
      "midi": 45,
      "hit": false,
      "t": 247205.43350000487,
      "d": 58.13862499999232,
      "v": 96
    },
    {
      "midi": 49,
      "hit": false,
      "t": 247321.71075000486,
      "d": 58.13862499999232,
      "v": 96
    },
    {
      "midi": 40,
      "hit": false,
      "t": 247437.98800000484,
      "d": 1375.9474583333358,
      "v": 96
    },
    {
      "midi": 40,
      "hit": false,
      "t": 248833.31500000483,
      "d": 58.13862499999232,
      "v": 96
    },
    {
      "midi": 49,
      "hit": false,
      "t": 248949.59225000482,
      "d": 58.13862499999232,
      "v": 96
    },
    {
      "midi": 45,
      "hit": false,
      "t": 249065.8695000048,
      "d": 58.13862499999232,
      "v": 96
    },
    {
      "midi": 49,
      "hit": false,
      "t": 249182.1467500048,
      "d": 58.13862499999232,
      "v": 96
    },
    {
      "midi": 38,
      "hit": false,
      "t": 249298.42400000477,
      "d": 1375.9474583333358,
      "v": 96
    },
    {
      "midi": 38,
      "hit": false,
      "t": 250693.75100000476,
      "d": 58.13862499999232,
      "v": 96
    },
    {
      "midi": 45,
      "hit": false,
      "t": 250810.02825000475,
      "d": 58.13862499999232,
      "v": 96
    },
    {
      "midi": 42,
      "hit": false,
      "t": 250926.30550000473,
      "d": 58.13862499999232,
      "v": 96
    },
    {
      "midi": 45,
      "hit": false,
      "t": 251042.58275000472,
      "d": 58.13862499999232,
      "v": 96
    },
    {
      "midi": 40,
      "hit": false,
      "t": 251158.8600000047,
      "d": 1375.9474583333358,
      "v": 96
    },
    {
      "midi": 42,
      "hit": false,
      "t": 253019.29600000472,
      "d": 1375.9474583333358,
      "v": 96
    },
    {
      "midi": 42,
      "hit": false,
      "t": 254414.6230000047,
      "d": 58.13862499999232,
      "v": 96
    },
    {
      "midi": 49,
      "hit": false,
      "t": 254530.9002500047,
      "d": 58.13862499999232,
      "v": 96
    },
    {
      "midi": 45,
      "hit": false,
      "t": 254647.17750000468,
      "d": 58.13862499999232,
      "v": 96
    },
    {
      "midi": 49,
      "hit": false,
      "t": 254763.45475000466,
      "d": 58.13862499999232,
      "v": 96
    },
    {
      "midi": 40,
      "hit": false,
      "t": 254879.73200000465,
      "d": 1375.9474583333358,
      "v": 96
    },
    {
      "midi": 40,
      "hit": false,
      "t": 256275.05900000464,
      "d": 58.13862499999232,
      "v": 96
    },
    {
      "midi": 49,
      "hit": false,
      "t": 256391.33625000462,
      "d": 58.13862499999232,
      "v": 96
    },
    {
      "midi": 45,
      "hit": false,
      "t": 256507.6135000046,
      "d": 58.13862499999232,
      "v": 96
    },
    {
      "midi": 49,
      "hit": false,
      "t": 256623.8907500046,
      "d": 58.13862499999232,
      "v": 96
    },
    {
      "midi": 38,
      "hit": false,
      "t": 256740.16800000457,
      "d": 1375.9474583333358,
      "v": 96
    },
    {
      "midi": 38,
      "hit": false,
      "t": 258135.49500000456,
      "d": 58.13862499999232,
      "v": 96
    },
    {
      "midi": 45,
      "hit": false,
      "t": 258251.77225000455,
      "d": 58.13862499999232,
      "v": 96
    },
    {
      "midi": 42,
      "hit": false,
      "t": 258368.04950000453,
      "d": 58.13862499999232,
      "v": 96
    },
    {
      "midi": 45,
      "hit": false,
      "t": 258484.32675000452,
      "d": 58.13862499999232,
      "v": 96
    },
    {
      "midi": 40,
      "hit": false,
      "t": 258600.6040000045,
      "d": 1375.9474583333358,
      "v": 96
    },
    {
      "midi": 42,
      "hit": false,
      "t": 260461.04000000452,
      "d": 1375.9474583333358,
      "v": 96
    },
    {
      "midi": 42,
      "hit": false,
      "t": 261856.3670000045,
      "d": 58.13862499999232,
      "v": 96
    },
    {
      "midi": 49,
      "hit": false,
      "t": 261972.6442500045,
      "d": 58.13862499999232,
      "v": 96
    },
    {
      "midi": 45,
      "hit": false,
      "t": 262088.92150000448,
      "d": 58.13862500002142,
      "v": 96
    },
    {
      "midi": 49,
      "hit": false,
      "t": 262205.1987500045,
      "d": 58.13862500002142,
      "v": 96
    },
    {
      "midi": 40,
      "hit": false,
      "t": 262321.47600000456,
      "d": 1375.9474583333358,
      "v": 96
    },
    {
      "midi": 40,
      "hit": false,
      "t": 263716.80300000455,
      "d": 58.13862500002142,
      "v": 96
    },
    {
      "midi": 49,
      "hit": false,
      "t": 263833.0802500046,
      "d": 58.13862500002142,
      "v": 96
    },
    {
      "midi": 45,
      "hit": false,
      "t": 263949.35750000464,
      "d": 58.13862500002142,
      "v": 96
    },
    {
      "midi": 49,
      "hit": false,
      "t": 264065.6347500047,
      "d": 58.13862500002142,
      "v": 96
    },
    {
      "midi": 38,
      "hit": false,
      "t": 264181.9120000047,
      "d": 1375.9474583333358,
      "v": 96
    },
    {
      "midi": 38,
      "hit": false,
      "t": 265577.2390000047,
      "d": 58.13862500002142,
      "v": 96
    },
    {
      "midi": 45,
      "hit": false,
      "t": 265693.51625000476,
      "d": 58.13862500002142,
      "v": 96
    },
    {
      "midi": 42,
      "hit": false,
      "t": 265809.7935000048,
      "d": 58.13862500002142,
      "v": 96
    },
    {
      "midi": 45,
      "hit": false,
      "t": 265926.07075000484,
      "d": 58.13862500002142,
      "v": 96
    },
    {
      "midi": 40,
      "hit": false,
      "t": 266042.3480000049,
      "d": 1375.9474583333358,
      "v": 96
    },
    {
      "midi": 54,
      "hit": false,
      "t": 267902.7840000049,
      "d": 155.03633333335165,
      "v": 88
    },
    {
      "midi": 61,
      "hit": false,
      "t": 268135.3385000049,
      "d": 155.03633333335165,
      "v": 88
    },
    {
      "midi": 66,
      "hit": false,
      "t": 268135.3385000049,
      "d": 155.03633333335165,
      "v": 88
    },
    {
      "midi": 69,
      "hit": false,
      "t": 268135.3385000049,
      "d": 155.03633333335165,
      "v": 88
    },
    {
      "midi": 54,
      "hit": false,
      "t": 268367.89300000493,
      "d": 155.03633333329344,
      "v": 88
    },
    {
      "midi": 61,
      "hit": false,
      "t": 268484.1702500049,
      "d": 155.03633333329344,
      "v": 88
    },
    {
      "midi": 66,
      "hit": false,
      "t": 268484.1702500049,
      "d": 155.03633333329344,
      "v": 88
    },
    {
      "midi": 69,
      "hit": false,
      "t": 268484.1702500049,
      "d": 155.03633333329344,
      "v": 88
    },
    {
      "midi": 54,
      "hit": false,
      "t": 268716.7247500049,
      "d": 155.03633333329344,
      "v": 88
    },
    {
      "midi": 61,
      "hit": false,
      "t": 268833.00200000487,
      "d": 155.03633333329344,
      "v": 88
    },
    {
      "midi": 66,
      "hit": false,
      "t": 268833.00200000487,
      "d": 155.03633333329344,
      "v": 88
    },
    {
      "midi": 69,
      "hit": false,
      "t": 268833.00200000487,
      "d": 155.03633333329344,
      "v": 88
    },
    {
      "midi": 54,
      "hit": false,
      "t": 269065.55650000484,
      "d": 155.03633333329344,
      "v": 88
    },
    {
      "midi": 61,
      "hit": false,
      "t": 269181.8337500048,
      "d": 155.03633333329344,
      "v": 88
    },
    {
      "midi": 66,
      "hit": false,
      "t": 269181.8337500048,
      "d": 155.03633333329344,
      "v": 88
    },
    {
      "midi": 69,
      "hit": false,
      "t": 269181.8337500048,
      "d": 155.03633333329344,
      "v": 88
    },
    {
      "midi": 54,
      "hit": false,
      "t": 269414.3882500048,
      "d": 155.03633333329344,
      "v": 88
    },
    {
      "midi": 61,
      "hit": false,
      "t": 269530.6655000048,
      "d": 155.03633333329344,
      "v": 88
    },
    {
      "midi": 66,
      "hit": false,
      "t": 269530.6655000048,
      "d": 155.03633333329344,
      "v": 88
    },
    {
      "midi": 69,
      "hit": false,
      "t": 269530.6655000048,
      "d": 155.03633333329344,
      "v": 88
    },
    {
      "midi": 52,
      "hit": false,
      "t": 269763.22000000475,
      "d": 155.03633333335165,
      "v": 88
    },
    {
      "midi": 59,
      "hit": false,
      "t": 269995.7745000048,
      "d": 155.03633333335165,
      "v": 88
    },
    {
      "midi": 64,
      "hit": false,
      "t": 269995.7745000048,
      "d": 155.03633333335165,
      "v": 88
    },
    {
      "midi": 69,
      "hit": false,
      "t": 269995.7745000048,
      "d": 155.03633333335165,
      "v": 88
    },
    {
      "midi": 52,
      "hit": false,
      "t": 270228.3290000048,
      "d": 155.03633333329344,
      "v": 88
    },
    {
      "midi": 59,
      "hit": false,
      "t": 270344.6062500048,
      "d": 155.03633333329344,
      "v": 88
    },
    {
      "midi": 64,
      "hit": false,
      "t": 270344.6062500048,
      "d": 155.03633333329344,
      "v": 88
    },
    {
      "midi": 69,
      "hit": false,
      "t": 270344.6062500048,
      "d": 155.03633333329344,
      "v": 88
    },
    {
      "midi": 52,
      "hit": false,
      "t": 270577.16075000475,
      "d": 155.03633333329344,
      "v": 88
    },
    {
      "midi": 59,
      "hit": false,
      "t": 270693.43800000474,
      "d": 155.03633333329344,
      "v": 88
    },
    {
      "midi": 64,
      "hit": false,
      "t": 270693.43800000474,
      "d": 155.03633333329344,
      "v": 88
    },
    {
      "midi": 69,
      "hit": false,
      "t": 270693.43800000474,
      "d": 155.03633333329344,
      "v": 88
    },
    {
      "midi": 52,
      "hit": false,
      "t": 270925.9925000047,
      "d": 155.03633333329344,
      "v": 88
    },
    {
      "midi": 59,
      "hit": false,
      "t": 271042.2697500047,
      "d": 155.03633333329344,
      "v": 88
    },
    {
      "midi": 64,
      "hit": false,
      "t": 271042.2697500047,
      "d": 155.03633333329344,
      "v": 88
    },
    {
      "midi": 69,
      "hit": false,
      "t": 271042.2697500047,
      "d": 155.03633333329344,
      "v": 88
    },
    {
      "midi": 52,
      "hit": false,
      "t": 271274.82425000466,
      "d": 155.03633333329344,
      "v": 88
    },
    {
      "midi": 59,
      "hit": false,
      "t": 271391.10150000465,
      "d": 155.03633333329344,
      "v": 88
    },
    {
      "midi": 64,
      "hit": false,
      "t": 271391.10150000465,
      "d": 155.03633333329344,
      "v": 88
    },
    {
      "midi": 68,
      "hit": false,
      "t": 271391.10150000465,
      "d": 155.03633333329344,
      "v": 88
    },
    {
      "midi": 50,
      "hit": false,
      "t": 271623.6560000046,
      "d": 155.03633333335165,
      "v": 88
    },
    {
      "midi": 57,
      "hit": false,
      "t": 271856.21050000464,
      "d": 155.03633333335165,
      "v": 88
    },
    {
      "midi": 62,
      "hit": false,
      "t": 271856.21050000464,
      "d": 155.03633333335165,
      "v": 88
    },
    {
      "midi": 66,
      "hit": false,
      "t": 271856.21050000464,
      "d": 155.03633333335165,
      "v": 88
    },
    {
      "midi": 50,
      "hit": false,
      "t": 272088.76500000467,
      "d": 155.03633333329344,
      "v": 88
    },
    {
      "midi": 57,
      "hit": false,
      "t": 272205.04225000466,
      "d": 155.03633333329344,
      "v": 88
    },
    {
      "midi": 62,
      "hit": false,
      "t": 272205.04225000466,
      "d": 155.03633333329344,
      "v": 88
    },
    {
      "midi": 66,
      "hit": false,
      "t": 272205.04225000466,
      "d": 155.03633333329344,
      "v": 88
    },
    {
      "midi": 50,
      "hit": false,
      "t": 272437.5967500046,
      "d": 155.03633333329344,
      "v": 88
    },
    {
      "midi": 57,
      "hit": false,
      "t": 272553.8740000046,
      "d": 155.03633333329344,
      "v": 88
    },
    {
      "midi": 62,
      "hit": false,
      "t": 272553.8740000046,
      "d": 155.03633333329344,
      "v": 88
    },
    {
      "midi": 66,
      "hit": false,
      "t": 272553.8740000046,
      "d": 155.03633333329344,
      "v": 88
    },
    {
      "midi": 50,
      "hit": false,
      "t": 272786.4285000046,
      "d": 155.03633333329344,
      "v": 88
    },
    {
      "midi": 57,
      "hit": false,
      "t": 272902.70575000456,
      "d": 155.03633333329344,
      "v": 88
    },
    {
      "midi": 62,
      "hit": false,
      "t": 272902.70575000456,
      "d": 155.03633333329344,
      "v": 88
    },
    {
      "midi": 66,
      "hit": false,
      "t": 272902.70575000456,
      "d": 155.03633333329344,
      "v": 88
    },
    {
      "midi": 50,
      "hit": false,
      "t": 273135.26025000453,
      "d": 155.03633333329344,
      "v": 88
    },
    {
      "midi": 57,
      "hit": false,
      "t": 273251.5375000045,
      "d": 155.03633333329344,
      "v": 88
    },
    {
      "midi": 62,
      "hit": false,
      "t": 273251.5375000045,
      "d": 155.03633333329344,
      "v": 88
    },
    {
      "midi": 66,
      "hit": false,
      "t": 273251.5375000045,
      "d": 155.03633333329344,
      "v": 88
    },
    {
      "midi": 52,
      "hit": false,
      "t": 273484.0920000045,
      "d": 155.03633333335165,
      "v": 88
    },
    {
      "midi": 57,
      "hit": false,
      "t": 273716.6465000045,
      "d": 155.03633333335165,
      "v": 88
    },
    {
      "midi": 59,
      "hit": false,
      "t": 273716.6465000045,
      "d": 155.03633333335165,
      "v": 88
    },
    {
      "midi": 64,
      "hit": false,
      "t": 273716.6465000045,
      "d": 155.03633333335165,
      "v": 88
    },
    {
      "midi": 52,
      "hit": false,
      "t": 273949.20100000454,
      "d": 155.03633333329344,
      "v": 88
    },
    {
      "midi": 57,
      "hit": false,
      "t": 274065.4782500045,
      "d": 155.03633333329344,
      "v": 88
    },
    {
      "midi": 59,
      "hit": false,
      "t": 274065.4782500045,
      "d": 155.03633333329344,
      "v": 88
    },
    {
      "midi": 64,
      "hit": false,
      "t": 274065.4782500045,
      "d": 155.03633333329344,
      "v": 88
    },
    {
      "midi": 52,
      "hit": false,
      "t": 274414.3100000045,
      "d": 38.75908333330881,
      "v": 88
    },
    {
      "midi": 59,
      "hit": false,
      "t": 274414.3100000045,
      "d": 155.03633333329344,
      "v": 88
    },
    {
      "midi": 64,
      "hit": false,
      "t": 274414.3100000045,
      "d": 155.03633333329344,
      "v": 88
    },
    {
      "midi": 69,
      "hit": false,
      "t": 274414.3100000045,
      "d": 155.03633333329344,
      "v": 88
    },
    {
      "midi": 52,
      "hit": false,
      "t": 274646.86450000445,
      "d": 155.03633333335165,
      "v": 88
    },
    {
      "midi": 59,
      "hit": false,
      "t": 274646.86450000445,
      "d": 155.03633333335165,
      "v": 88
    },
    {
      "midi": 64,
      "hit": false,
      "t": 274646.86450000445,
      "d": 155.03633333335165,
      "v": 88
    },
    {
      "midi": 69,
      "hit": false,
      "t": 274646.86450000445,
      "d": 155.03633333335165,
      "v": 88
    },
    {
      "midi": 52,
      "hit": false,
      "t": 274879.4190000045,
      "d": 155.03633333335165,
      "v": 88
    },
    {
      "midi": 59,
      "hit": false,
      "t": 274879.4190000045,
      "d": 155.03633333335165,
      "v": 88
    },
    {
      "midi": 64,
      "hit": false,
      "t": 274879.4190000045,
      "d": 155.03633333335165,
      "v": 88
    },
    {
      "midi": 68,
      "hit": false,
      "t": 274879.4190000045,
      "d": 155.03633333335165,
      "v": 88
    },
    {
      "midi": 52,
      "hit": false,
      "t": 275111.9735000045,
      "d": 155.03633333335165,
      "v": 88
    },
    {
      "midi": 59,
      "hit": false,
      "t": 275111.9735000045,
      "d": 155.03633333335165,
      "v": 88
    },
    {
      "midi": 64,
      "hit": false,
      "t": 275111.9735000045,
      "d": 155.03633333335165,
      "v": 88
    },
    {
      "midi": 68,
      "hit": false,
      "t": 275111.9735000045,
      "d": 155.03633333335165,
      "v": 88
    },
    {
      "midi": 54,
      "hit": false,
      "t": 275344.52800000453,
      "d": 155.03633333335165,
      "v": 88
    },
    {
      "midi": 61,
      "hit": false,
      "t": 275577.08250000456,
      "d": 155.03633333335165,
      "v": 88
    },
    {
      "midi": 66,
      "hit": false,
      "t": 275577.08250000456,
      "d": 155.03633333335165,
      "v": 88
    },
    {
      "midi": 69,
      "hit": false,
      "t": 275577.08250000456,
      "d": 155.03633333335165,
      "v": 88
    },
    {
      "midi": 54,
      "hit": false,
      "t": 275809.6370000046,
      "d": 155.03633333329344,
      "v": 88
    },
    {
      "midi": 61,
      "hit": false,
      "t": 275925.9142500046,
      "d": 155.03633333329344,
      "v": 88
    },
    {
      "midi": 66,
      "hit": false,
      "t": 275925.9142500046,
      "d": 155.03633333329344,
      "v": 88
    },
    {
      "midi": 69,
      "hit": false,
      "t": 275925.9142500046,
      "d": 155.03633333329344,
      "v": 88
    },
    {
      "midi": 54,
      "hit": false,
      "t": 276158.46875000454,
      "d": 155.03633333329344,
      "v": 88
    },
    {
      "midi": 61,
      "hit": false,
      "t": 276274.7460000045,
      "d": 155.03633333329344,
      "v": 88
    },
    {
      "midi": 66,
      "hit": false,
      "t": 276274.7460000045,
      "d": 155.03633333329344,
      "v": 88
    },
    {
      "midi": 69,
      "hit": false,
      "t": 276274.7460000045,
      "d": 155.03633333329344,
      "v": 88
    },
    {
      "midi": 54,
      "hit": false,
      "t": 276507.3005000045,
      "d": 155.03633333329344,
      "v": 88
    },
    {
      "midi": 61,
      "hit": false,
      "t": 276623.5777500045,
      "d": 155.03633333329344,
      "v": 88
    },
    {
      "midi": 66,
      "hit": false,
      "t": 276623.5777500045,
      "d": 155.03633333329344,
      "v": 88
    },
    {
      "midi": 69,
      "hit": false,
      "t": 276623.5777500045,
      "d": 155.03633333329344,
      "v": 88
    },
    {
      "midi": 54,
      "hit": false,
      "t": 276856.13225000445,
      "d": 155.03633333329344,
      "v": 88
    },
    {
      "midi": 61,
      "hit": false,
      "t": 276972.40950000443,
      "d": 155.03633333329344,
      "v": 88
    },
    {
      "midi": 66,
      "hit": false,
      "t": 276972.40950000443,
      "d": 155.03633333329344,
      "v": 88
    },
    {
      "midi": 69,
      "hit": false,
      "t": 276972.40950000443,
      "d": 155.03633333329344,
      "v": 88
    },
    {
      "midi": 52,
      "hit": false,
      "t": 277204.9640000044,
      "d": 155.03633333335165,
      "v": 88
    },
    {
      "midi": 59,
      "hit": false,
      "t": 277437.51850000443,
      "d": 155.03633333335165,
      "v": 88
    },
    {
      "midi": 64,
      "hit": false,
      "t": 277437.51850000443,
      "d": 155.03633333335165,
      "v": 88
    },
    {
      "midi": 69,
      "hit": false,
      "t": 277437.51850000443,
      "d": 155.03633333335165,
      "v": 88
    },
    {
      "midi": 52,
      "hit": false,
      "t": 277670.07300000446,
      "d": 155.03633333329344,
      "v": 88
    },
    {
      "midi": 59,
      "hit": false,
      "t": 277786.35025000444,
      "d": 155.03633333329344,
      "v": 88
    },
    {
      "midi": 64,
      "hit": false,
      "t": 277786.35025000444,
      "d": 155.03633333329344,
      "v": 88
    },
    {
      "midi": 69,
      "hit": false,
      "t": 277786.35025000444,
      "d": 155.03633333329344,
      "v": 88
    },
    {
      "midi": 52,
      "hit": false,
      "t": 278018.9047500044,
      "d": 155.03633333329344,
      "v": 88
    },
    {
      "midi": 59,
      "hit": false,
      "t": 278135.1820000044,
      "d": 155.03633333329344,
      "v": 88
    },
    {
      "midi": 64,
      "hit": false,
      "t": 278135.1820000044,
      "d": 155.03633333329344,
      "v": 88
    },
    {
      "midi": 69,
      "hit": false,
      "t": 278135.1820000044,
      "d": 155.03633333329344,
      "v": 88
    },
    {
      "midi": 52,
      "hit": false,
      "t": 278367.73650000436,
      "d": 155.03633333329344,
      "v": 88
    },
    {
      "midi": 59,
      "hit": false,
      "t": 278484.01375000435,
      "d": 155.03633333329344,
      "v": 88
    },
    {
      "midi": 64,
      "hit": false,
      "t": 278484.01375000435,
      "d": 155.03633333329344,
      "v": 88
    },
    {
      "midi": 69,
      "hit": false,
      "t": 278484.01375000435,
      "d": 155.03633333329344,
      "v": 88
    },
    {
      "midi": 52,
      "hit": false,
      "t": 278716.5682500043,
      "d": 155.03633333329344,
      "v": 88
    },
    {
      "midi": 59,
      "hit": false,
      "t": 278832.8455000043,
      "d": 155.03633333329344,
      "v": 88
    },
    {
      "midi": 64,
      "hit": false,
      "t": 278832.8455000043,
      "d": 155.03633333329344,
      "v": 88
    },
    {
      "midi": 68,
      "hit": false,
      "t": 278832.8455000043,
      "d": 155.03633333329344,
      "v": 88
    },
    {
      "midi": 50,
      "hit": false,
      "t": 279065.4000000043,
      "d": 155.03633333335165,
      "v": 88
    },
    {
      "midi": 57,
      "hit": false,
      "t": 279297.9545000043,
      "d": 155.03633333335165,
      "v": 88
    },
    {
      "midi": 62,
      "hit": false,
      "t": 279297.9545000043,
      "d": 155.03633333335165,
      "v": 88
    },
    {
      "midi": 66,
      "hit": false,
      "t": 279297.9545000043,
      "d": 155.03633333335165,
      "v": 88
    },
    {
      "midi": 50,
      "hit": false,
      "t": 279530.5090000043,
      "d": 155.03633333329344,
      "v": 88
    },
    {
      "midi": 57,
      "hit": false,
      "t": 279646.7862500043,
      "d": 155.03633333329344,
      "v": 88
    },
    {
      "midi": 62,
      "hit": false,
      "t": 279646.7862500043,
      "d": 155.03633333329344,
      "v": 88
    },
    {
      "midi": 66,
      "hit": false,
      "t": 279646.7862500043,
      "d": 155.03633333329344,
      "v": 88
    },
    {
      "midi": 50,
      "hit": false,
      "t": 279879.3407500043,
      "d": 155.03633333329344,
      "v": 88
    },
    {
      "midi": 57,
      "hit": false,
      "t": 279995.61800000427,
      "d": 155.03633333329344,
      "v": 88
    },
    {
      "midi": 62,
      "hit": false,
      "t": 279995.61800000427,
      "d": 155.03633333329344,
      "v": 88
    },
    {
      "midi": 66,
      "hit": false,
      "t": 279995.61800000427,
      "d": 155.03633333329344,
      "v": 88
    },
    {
      "midi": 50,
      "hit": false,
      "t": 280228.17250000424,
      "d": 155.03633333329344,
      "v": 88
    },
    {
      "midi": 57,
      "hit": false,
      "t": 280344.4497500042,
      "d": 155.03633333329344,
      "v": 88
    },
    {
      "midi": 62,
      "hit": false,
      "t": 280344.4497500042,
      "d": 155.03633333329344,
      "v": 88
    },
    {
      "midi": 66,
      "hit": false,
      "t": 280344.4497500042,
      "d": 155.03633333329344,
      "v": 88
    },
    {
      "midi": 50,
      "hit": false,
      "t": 280577.0042500042,
      "d": 155.03633333329344,
      "v": 88
    },
    {
      "midi": 57,
      "hit": false,
      "t": 280693.2815000042,
      "d": 155.03633333329344,
      "v": 88
    },
    {
      "midi": 62,
      "hit": false,
      "t": 280693.2815000042,
      "d": 155.03633333329344,
      "v": 88
    },
    {
      "midi": 66,
      "hit": false,
      "t": 280693.2815000042,
      "d": 155.03633333329344,
      "v": 88
    },
    {
      "midi": 52,
      "hit": false,
      "t": 280925.83600000414,
      "d": 155.03633333335165,
      "v": 88
    },
    {
      "midi": 57,
      "hit": false,
      "t": 281158.39050000417,
      "d": 155.03633333335165,
      "v": 88
    },
    {
      "midi": 59,
      "hit": false,
      "t": 281158.39050000417,
      "d": 155.03633333335165,
      "v": 88
    },
    {
      "midi": 64,
      "hit": false,
      "t": 281158.39050000417,
      "d": 155.03633333335165,
      "v": 88
    },
    {
      "midi": 52,
      "hit": false,
      "t": 281390.9450000042,
      "d": 155.03633333329344,
      "v": 88
    },
    {
      "midi": 57,
      "hit": false,
      "t": 281507.2222500042,
      "d": 155.03633333329344,
      "v": 88
    },
    {
      "midi": 59,
      "hit": false,
      "t": 281507.2222500042,
      "d": 155.03633333329344,
      "v": 88
    },
    {
      "midi": 64,
      "hit": false,
      "t": 281507.2222500042,
      "d": 155.03633333329344,
      "v": 88
    },
    {
      "midi": 52,
      "hit": false,
      "t": 281856.05400000414,
      "d": 38.75908333330881,
      "v": 88
    },
    {
      "midi": 59,
      "hit": false,
      "t": 281856.05400000414,
      "d": 155.03633333329344,
      "v": 88
    },
    {
      "midi": 64,
      "hit": false,
      "t": 281856.05400000414,
      "d": 155.03633333329344,
      "v": 88
    },
    {
      "midi": 69,
      "hit": false,
      "t": 281856.05400000414,
      "d": 155.03633333329344,
      "v": 88
    },
    {
      "midi": 52,
      "hit": false,
      "t": 282088.6085000041,
      "d": 155.03633333335165,
      "v": 88
    },
    {
      "midi": 59,
      "hit": false,
      "t": 282088.6085000041,
      "d": 155.03633333335165,
      "v": 88
    },
    {
      "midi": 64,
      "hit": false,
      "t": 282088.6085000041,
      "d": 155.03633333335165,
      "v": 88
    },
    {
      "midi": 69,
      "hit": false,
      "t": 282088.6085000041,
      "d": 155.03633333335165,
      "v": 88
    },
    {
      "midi": 52,
      "hit": false,
      "t": 282321.16300000413,
      "d": 155.03633333335165,
      "v": 88
    },
    {
      "midi": 59,
      "hit": false,
      "t": 282321.16300000413,
      "d": 155.03633333335165,
      "v": 88
    },
    {
      "midi": 64,
      "hit": false,
      "t": 282321.16300000413,
      "d": 155.03633333335165,
      "v": 88
    },
    {
      "midi": 68,
      "hit": false,
      "t": 282321.16300000413,
      "d": 155.03633333335165,
      "v": 88
    },
    {
      "midi": 52,
      "hit": false,
      "t": 282553.71750000416,
      "d": 155.03633333335165,
      "v": 88
    },
    {
      "midi": 59,
      "hit": false,
      "t": 282553.71750000416,
      "d": 155.03633333335165,
      "v": 88
    },
    {
      "midi": 64,
      "hit": false,
      "t": 282553.71750000416,
      "d": 155.03633333335165,
      "v": 88
    },
    {
      "midi": 68,
      "hit": false,
      "t": 282553.71750000416,
      "d": 155.03633333335165,
      "v": 88
    },
    {
      "midi": 54,
      "hit": false,
      "t": 282786.2720000042,
      "d": 155.03633333335165,
      "v": 88
    },
    {
      "midi": 61,
      "hit": false,
      "t": 283018.8265000042,
      "d": 155.03633333335165,
      "v": 88
    },
    {
      "midi": 66,
      "hit": false,
      "t": 283018.8265000042,
      "d": 155.03633333335165,
      "v": 88
    },
    {
      "midi": 69,
      "hit": false,
      "t": 283018.8265000042,
      "d": 155.03633333335165,
      "v": 88
    },
    {
      "midi": 54,
      "hit": false,
      "t": 283251.38100000424,
      "d": 155.03633333329344,
      "v": 88
    },
    {
      "midi": 61,
      "hit": false,
      "t": 283367.6582500042,
      "d": 155.03633333329344,
      "v": 88
    },
    {
      "midi": 66,
      "hit": false,
      "t": 283367.6582500042,
      "d": 155.03633333329344,
      "v": 88
    },
    {
      "midi": 69,
      "hit": false,
      "t": 283367.6582500042,
      "d": 155.03633333329344,
      "v": 88
    },
    {
      "midi": 54,
      "hit": false,
      "t": 283600.2127500042,
      "d": 155.03633333329344,
      "v": 88
    },
    {
      "midi": 61,
      "hit": false,
      "t": 283716.4900000042,
      "d": 155.03633333329344,
      "v": 88
    },
    {
      "midi": 66,
      "hit": false,
      "t": 283716.4900000042,
      "d": 155.03633333329344,
      "v": 88
    },
    {
      "midi": 69,
      "hit": false,
      "t": 283716.4900000042,
      "d": 155.03633333329344,
      "v": 88
    },
    {
      "midi": 54,
      "hit": false,
      "t": 283949.04450000415,
      "d": 155.03633333329344,
      "v": 88
    },
    {
      "midi": 61,
      "hit": false,
      "t": 284065.32175000414,
      "d": 155.03633333329344,
      "v": 88
    },
    {
      "midi": 66,
      "hit": false,
      "t": 284065.32175000414,
      "d": 155.03633333329344,
      "v": 88
    },
    {
      "midi": 69,
      "hit": false,
      "t": 284065.32175000414,
      "d": 155.03633333329344,
      "v": 88
    },
    {
      "midi": 54,
      "hit": false,
      "t": 284297.8762500041,
      "d": 155.03633333329344,
      "v": 88
    },
    {
      "midi": 61,
      "hit": false,
      "t": 284414.1535000041,
      "d": 155.03633333329344,
      "v": 88
    },
    {
      "midi": 66,
      "hit": false,
      "t": 284414.1535000041,
      "d": 155.03633333329344,
      "v": 88
    },
    {
      "midi": 69,
      "hit": false,
      "t": 284414.1535000041,
      "d": 155.03633333329344,
      "v": 88
    },
    {
      "midi": 52,
      "hit": false,
      "t": 284646.70800000406,
      "d": 155.03633333335165,
      "v": 88
    },
    {
      "midi": 59,
      "hit": false,
      "t": 284879.2625000041,
      "d": 155.03633333335165,
      "v": 88
    },
    {
      "midi": 64,
      "hit": false,
      "t": 284879.2625000041,
      "d": 155.03633333335165,
      "v": 88
    },
    {
      "midi": 69,
      "hit": false,
      "t": 284879.2625000041,
      "d": 155.03633333335165,
      "v": 88
    },
    {
      "midi": 52,
      "hit": false,
      "t": 285111.8170000041,
      "d": 155.03633333329344,
      "v": 88
    },
    {
      "midi": 59,
      "hit": false,
      "t": 285228.0942500041,
      "d": 155.03633333329344,
      "v": 88
    },
    {
      "midi": 64,
      "hit": false,
      "t": 285228.0942500041,
      "d": 155.03633333329344,
      "v": 88
    },
    {
      "midi": 69,
      "hit": false,
      "t": 285228.0942500041,
      "d": 155.03633333329344,
      "v": 88
    },
    {
      "midi": 52,
      "hit": false,
      "t": 285460.64875000407,
      "d": 155.03633333329344,
      "v": 88
    },
    {
      "midi": 59,
      "hit": false,
      "t": 285576.92600000405,
      "d": 155.03633333329344,
      "v": 88
    },
    {
      "midi": 64,
      "hit": false,
      "t": 285576.92600000405,
      "d": 155.03633333329344,
      "v": 88
    },
    {
      "midi": 69,
      "hit": false,
      "t": 285576.92600000405,
      "d": 155.03633333329344,
      "v": 88
    },
    {
      "midi": 52,
      "hit": false,
      "t": 285809.480500004,
      "d": 155.03633333329344,
      "v": 88
    },
    {
      "midi": 59,
      "hit": false,
      "t": 285925.757750004,
      "d": 155.03633333329344,
      "v": 88
    },
    {
      "midi": 64,
      "hit": false,
      "t": 285925.757750004,
      "d": 155.03633333329344,
      "v": 88
    },
    {
      "midi": 69,
      "hit": false,
      "t": 285925.757750004,
      "d": 155.03633333329344,
      "v": 88
    },
    {
      "midi": 52,
      "hit": false,
      "t": 286158.312250004,
      "d": 155.03633333329344,
      "v": 88
    },
    {
      "midi": 59,
      "hit": false,
      "t": 286274.58950000396,
      "d": 155.03633333329344,
      "v": 88
    },
    {
      "midi": 64,
      "hit": false,
      "t": 286274.58950000396,
      "d": 155.03633333329344,
      "v": 88
    },
    {
      "midi": 68,
      "hit": false,
      "t": 286274.58950000396,
      "d": 155.03633333329344,
      "v": 88
    },
    {
      "midi": 50,
      "hit": false,
      "t": 286507.14400000393,
      "d": 155.03633333335165,
      "v": 88
    },
    {
      "midi": 57,
      "hit": false,
      "t": 286739.69850000396,
      "d": 155.03633333335165,
      "v": 88
    },
    {
      "midi": 62,
      "hit": false,
      "t": 286739.69850000396,
      "d": 155.03633333335165,
      "v": 88
    },
    {
      "midi": 66,
      "hit": false,
      "t": 286739.69850000396,
      "d": 155.03633333335165,
      "v": 88
    },
    {
      "midi": 50,
      "hit": false,
      "t": 286972.253000004,
      "d": 155.03633333329344,
      "v": 88
    },
    {
      "midi": 57,
      "hit": false,
      "t": 287088.53025000397,
      "d": 155.03633333329344,
      "v": 88
    },
    {
      "midi": 62,
      "hit": false,
      "t": 287088.53025000397,
      "d": 155.03633333329344,
      "v": 88
    },
    {
      "midi": 66,
      "hit": false,
      "t": 287088.53025000397,
      "d": 155.03633333329344,
      "v": 88
    },
    {
      "midi": 50,
      "hit": false,
      "t": 287321.08475000394,
      "d": 155.03633333329344,
      "v": 88
    },
    {
      "midi": 57,
      "hit": false,
      "t": 287437.3620000039,
      "d": 155.03633333329344,
      "v": 88
    },
    {
      "midi": 62,
      "hit": false,
      "t": 287437.3620000039,
      "d": 155.03633333329344,
      "v": 88
    },
    {
      "midi": 66,
      "hit": false,
      "t": 287437.3620000039,
      "d": 155.03633333329344,
      "v": 88
    },
    {
      "midi": 50,
      "hit": false,
      "t": 287669.9165000039,
      "d": 155.03633333329344,
      "v": 88
    },
    {
      "midi": 57,
      "hit": false,
      "t": 287786.1937500039,
      "d": 155.03633333329344,
      "v": 88
    },
    {
      "midi": 62,
      "hit": false,
      "t": 287786.1937500039,
      "d": 155.03633333329344,
      "v": 88
    },
    {
      "midi": 66,
      "hit": false,
      "t": 287786.1937500039,
      "d": 155.03633333329344,
      "v": 88
    },
    {
      "midi": 50,
      "hit": false,
      "t": 288018.74825000385,
      "d": 155.03633333329344,
      "v": 88
    },
    {
      "midi": 57,
      "hit": false,
      "t": 288135.02550000383,
      "d": 155.03633333329344,
      "v": 88
    },
    {
      "midi": 62,
      "hit": false,
      "t": 288135.02550000383,
      "d": 155.03633333329344,
      "v": 88
    },
    {
      "midi": 66,
      "hit": false,
      "t": 288135.02550000383,
      "d": 155.03633333329344,
      "v": 88
    },
    {
      "midi": 52,
      "hit": false,
      "t": 288367.5800000038,
      "d": 155.03633333335165,
      "v": 88
    },
    {
      "midi": 57,
      "hit": false,
      "t": 288600.1345000038,
      "d": 155.03633333335165,
      "v": 88
    },
    {
      "midi": 59,
      "hit": false,
      "t": 288600.1345000038,
      "d": 155.03633333335165,
      "v": 88
    },
    {
      "midi": 64,
      "hit": false,
      "t": 288600.1345000038,
      "d": 155.03633333335165,
      "v": 88
    },
    {
      "midi": 52,
      "hit": false,
      "t": 288832.68900000385,
      "d": 155.03633333329344,
      "v": 88
    },
    {
      "midi": 57,
      "hit": false,
      "t": 288948.96625000384,
      "d": 155.03633333329344,
      "v": 88
    },
    {
      "midi": 59,
      "hit": false,
      "t": 288948.96625000384,
      "d": 155.03633333329344,
      "v": 88
    },
    {
      "midi": 64,
      "hit": false,
      "t": 288948.96625000384,
      "d": 155.03633333329344,
      "v": 88
    },
    {
      "midi": 52,
      "hit": false,
      "t": 289297.7980000038,
      "d": 38.75908333330881,
      "v": 88
    },
    {
      "midi": 59,
      "hit": false,
      "t": 289297.7980000038,
      "d": 155.03633333329344,
      "v": 88
    },
    {
      "midi": 64,
      "hit": false,
      "t": 289297.7980000038,
      "d": 155.03633333329344,
      "v": 88
    },
    {
      "midi": 69,
      "hit": false,
      "t": 289297.7980000038,
      "d": 155.03633333329344,
      "v": 88
    },
    {
      "midi": 52,
      "hit": false,
      "t": 289530.35250000376,
      "d": 155.03633333335165,
      "v": 88
    },
    {
      "midi": 59,
      "hit": false,
      "t": 289530.35250000376,
      "d": 155.03633333335165,
      "v": 88
    },
    {
      "midi": 64,
      "hit": false,
      "t": 289530.35250000376,
      "d": 155.03633333335165,
      "v": 88
    },
    {
      "midi": 69,
      "hit": false,
      "t": 289530.35250000376,
      "d": 155.03633333335165,
      "v": 88
    },
    {
      "midi": 52,
      "hit": false,
      "t": 289762.9070000038,
      "d": 155.03633333335165,
      "v": 88
    },
    {
      "midi": 59,
      "hit": false,
      "t": 289762.9070000038,
      "d": 155.03633333335165,
      "v": 88
    },
    {
      "midi": 64,
      "hit": false,
      "t": 289762.9070000038,
      "d": 155.03633333335165,
      "v": 88
    },
    {
      "midi": 68,
      "hit": false,
      "t": 289762.9070000038,
      "d": 155.03633333335165,
      "v": 88
    },
    {
      "midi": 52,
      "hit": false,
      "t": 289995.4615000038,
      "d": 155.03633333335165,
      "v": 88
    },
    {
      "midi": 59,
      "hit": false,
      "t": 289995.4615000038,
      "d": 155.03633333335165,
      "v": 88
    },
    {
      "midi": 64,
      "hit": false,
      "t": 289995.4615000038,
      "d": 155.03633333335165,
      "v": 88
    },
    {
      "midi": 68,
      "hit": false,
      "t": 289995.4615000038,
      "d": 155.03633333335165,
      "v": 88
    },
    {
      "midi": 54,
      "hit": false,
      "t": 290228.01600000384,
      "d": 155.03633333335165,
      "v": 88
    },
    {
      "midi": 61,
      "hit": false,
      "t": 290460.5705000039,
      "d": 155.03633333335165,
      "v": 88
    },
    {
      "midi": 66,
      "hit": false,
      "t": 290460.5705000039,
      "d": 155.03633333335165,
      "v": 88
    },
    {
      "midi": 69,
      "hit": false,
      "t": 290460.5705000039,
      "d": 155.03633333335165,
      "v": 88
    },
    {
      "midi": 54,
      "hit": false,
      "t": 290693.1250000039,
      "d": 155.03633333329344,
      "v": 88
    },
    {
      "midi": 61,
      "hit": false,
      "t": 290809.4022500039,
      "d": 155.03633333329344,
      "v": 88
    },
    {
      "midi": 66,
      "hit": false,
      "t": 290809.4022500039,
      "d": 155.03633333329344,
      "v": 88
    },
    {
      "midi": 69,
      "hit": false,
      "t": 290809.4022500039,
      "d": 155.03633333329344,
      "v": 88
    },
    {
      "midi": 54,
      "hit": false,
      "t": 291041.95675000385,
      "d": 155.03633333329344,
      "v": 88
    },
    {
      "midi": 61,
      "hit": false,
      "t": 291158.23400000384,
      "d": 155.03633333329344,
      "v": 88
    },
    {
      "midi": 66,
      "hit": false,
      "t": 291158.23400000384,
      "d": 155.03633333329344,
      "v": 88
    },
    {
      "midi": 69,
      "hit": false,
      "t": 291158.23400000384,
      "d": 155.03633333329344,
      "v": 88
    },
    {
      "midi": 54,
      "hit": false,
      "t": 291390.7885000038,
      "d": 155.03633333329344,
      "v": 88
    },
    {
      "midi": 61,
      "hit": false,
      "t": 291507.0657500038,
      "d": 155.03633333329344,
      "v": 88
    },
    {
      "midi": 66,
      "hit": false,
      "t": 291507.0657500038,
      "d": 155.03633333329344,
      "v": 88
    },
    {
      "midi": 69,
      "hit": false,
      "t": 291507.0657500038,
      "d": 155.03633333329344,
      "v": 88
    },
    {
      "midi": 54,
      "hit": false,
      "t": 291739.62025000376,
      "d": 155.03633333329344,
      "v": 88
    },
    {
      "midi": 61,
      "hit": false,
      "t": 291855.89750000375,
      "d": 155.03633333329344,
      "v": 88
    },
    {
      "midi": 66,
      "hit": false,
      "t": 291855.89750000375,
      "d": 155.03633333329344,
      "v": 88
    },
    {
      "midi": 69,
      "hit": false,
      "t": 291855.89750000375,
      "d": 155.03633333329344,
      "v": 88
    },
    {
      "midi": 52,
      "hit": false,
      "t": 292088.4520000037,
      "d": 155.03633333335165,
      "v": 88
    },
    {
      "midi": 59,
      "hit": false,
      "t": 292321.00650000374,
      "d": 155.03633333335165,
      "v": 88
    },
    {
      "midi": 64,
      "hit": false,
      "t": 292321.00650000374,
      "d": 155.03633333335165,
      "v": 88
    },
    {
      "midi": 69,
      "hit": false,
      "t": 292321.00650000374,
      "d": 155.03633333335165,
      "v": 88
    },
    {
      "midi": 52,
      "hit": false,
      "t": 292553.56100000377,
      "d": 155.03633333329344,
      "v": 88
    },
    {
      "midi": 59,
      "hit": false,
      "t": 292669.83825000376,
      "d": 155.03633333329344,
      "v": 88
    },
    {
      "midi": 64,
      "hit": false,
      "t": 292669.83825000376,
      "d": 155.03633333329344,
      "v": 88
    },
    {
      "midi": 69,
      "hit": false,
      "t": 292669.83825000376,
      "d": 155.03633333329344,
      "v": 88
    },
    {
      "midi": 52,
      "hit": false,
      "t": 292902.3927500037,
      "d": 155.03633333329344,
      "v": 88
    },
    {
      "midi": 59,
      "hit": false,
      "t": 293018.6700000037,
      "d": 155.03633333329344,
      "v": 88
    },
    {
      "midi": 64,
      "hit": false,
      "t": 293018.6700000037,
      "d": 155.03633333329344,
      "v": 88
    },
    {
      "midi": 69,
      "hit": false,
      "t": 293018.6700000037,
      "d": 155.03633333329344,
      "v": 88
    },
    {
      "midi": 52,
      "hit": false,
      "t": 293251.2245000037,
      "d": 155.03633333329344,
      "v": 88
    },
    {
      "midi": 59,
      "hit": false,
      "t": 293367.50175000366,
      "d": 155.03633333329344,
      "v": 88
    },
    {
      "midi": 64,
      "hit": false,
      "t": 293367.50175000366,
      "d": 155.03633333329344,
      "v": 88
    },
    {
      "midi": 69,
      "hit": false,
      "t": 293367.50175000366,
      "d": 155.03633333329344,
      "v": 88
    },
    {
      "midi": 52,
      "hit": false,
      "t": 293600.05625000363,
      "d": 155.03633333329344,
      "v": 88
    },
    {
      "midi": 59,
      "hit": false,
      "t": 293716.3335000036,
      "d": 155.03633333329344,
      "v": 88
    },
    {
      "midi": 64,
      "hit": false,
      "t": 293716.3335000036,
      "d": 155.03633333329344,
      "v": 88
    },
    {
      "midi": 68,
      "hit": false,
      "t": 293716.3335000036,
      "d": 155.03633333329344,
      "v": 88
    },
    {
      "midi": 50,
      "hit": false,
      "t": 293948.8880000036,
      "d": 155.03633333335165,
      "v": 88
    },
    {
      "midi": 57,
      "hit": false,
      "t": 294181.4425000036,
      "d": 155.03633333335165,
      "v": 88
    },
    {
      "midi": 62,
      "hit": false,
      "t": 294181.4425000036,
      "d": 155.03633333335165,
      "v": 88
    },
    {
      "midi": 66,
      "hit": false,
      "t": 294181.4425000036,
      "d": 155.03633333335165,
      "v": 88
    },
    {
      "midi": 50,
      "hit": false,
      "t": 294413.99700000364,
      "d": 155.03633333329344,
      "v": 88
    },
    {
      "midi": 57,
      "hit": false,
      "t": 294530.2742500036,
      "d": 155.03633333329344,
      "v": 88
    },
    {
      "midi": 62,
      "hit": false,
      "t": 294530.2742500036,
      "d": 155.03633333329344,
      "v": 88
    },
    {
      "midi": 66,
      "hit": false,
      "t": 294530.2742500036,
      "d": 155.03633333329344,
      "v": 88
    },
    {
      "midi": 50,
      "hit": false,
      "t": 294762.8287500036,
      "d": 155.03633333329344,
      "v": 88
    },
    {
      "midi": 57,
      "hit": false,
      "t": 294879.1060000036,
      "d": 155.03633333329344,
      "v": 88
    },
    {
      "midi": 62,
      "hit": false,
      "t": 294879.1060000036,
      "d": 155.03633333329344,
      "v": 88
    },
    {
      "midi": 66,
      "hit": false,
      "t": 294879.1060000036,
      "d": 155.03633333329344,
      "v": 88
    },
    {
      "midi": 50,
      "hit": false,
      "t": 295111.66050000355,
      "d": 155.03633333329344,
      "v": 88
    },
    {
      "midi": 57,
      "hit": false,
      "t": 295227.93775000353,
      "d": 155.03633333329344,
      "v": 88
    },
    {
      "midi": 62,
      "hit": false,
      "t": 295227.93775000353,
      "d": 155.03633333329344,
      "v": 88
    },
    {
      "midi": 66,
      "hit": false,
      "t": 295227.93775000353,
      "d": 155.03633333329344,
      "v": 88
    },
    {
      "midi": 50,
      "hit": false,
      "t": 295460.4922500035,
      "d": 155.03633333329344,
      "v": 88
    },
    {
      "midi": 57,
      "hit": false,
      "t": 295576.7695000035,
      "d": 155.03633333329344,
      "v": 88
    },
    {
      "midi": 62,
      "hit": false,
      "t": 295576.7695000035,
      "d": 155.03633333329344,
      "v": 88
    },
    {
      "midi": 66,
      "hit": false,
      "t": 295576.7695000035,
      "d": 155.03633333329344,
      "v": 88
    },
    {
      "midi": 52,
      "hit": false,
      "t": 295809.32400000346,
      "d": 155.03633333335165,
      "v": 88
    },
    {
      "midi": 57,
      "hit": false,
      "t": 296041.8785000035,
      "d": 155.03633333335165,
      "v": 88
    },
    {
      "midi": 59,
      "hit": false,
      "t": 296041.8785000035,
      "d": 155.03633333335165,
      "v": 88
    },
    {
      "midi": 64,
      "hit": false,
      "t": 296041.8785000035,
      "d": 155.03633333335165,
      "v": 88
    },
    {
      "midi": 52,
      "hit": false,
      "t": 296274.4330000035,
      "d": 155.03633333329344,
      "v": 88
    },
    {
      "midi": 57,
      "hit": false,
      "t": 296390.7102500035,
      "d": 155.03633333329344,
      "v": 88
    },
    {
      "midi": 59,
      "hit": false,
      "t": 296390.7102500035,
      "d": 155.03633333329344,
      "v": 88
    },
    {
      "midi": 64,
      "hit": false,
      "t": 296390.7102500035,
      "d": 155.03633333329344,
      "v": 88
    },
    {
      "midi": 52,
      "hit": false,
      "t": 296739.54200000345,
      "d": 38.75908333330881,
      "v": 88
    },
    {
      "midi": 59,
      "hit": false,
      "t": 296739.54200000345,
      "d": 155.03633333329344,
      "v": 88
    },
    {
      "midi": 64,
      "hit": false,
      "t": 296739.54200000345,
      "d": 155.03633333329344,
      "v": 88
    },
    {
      "midi": 69,
      "hit": false,
      "t": 296739.54200000345,
      "d": 155.03633333329344,
      "v": 88
    },
    {
      "midi": 52,
      "hit": false,
      "t": 296972.0965000034,
      "d": 155.03633333335165,
      "v": 88
    },
    {
      "midi": 59,
      "hit": false,
      "t": 296972.0965000034,
      "d": 155.03633333335165,
      "v": 88
    },
    {
      "midi": 64,
      "hit": false,
      "t": 296972.0965000034,
      "d": 155.03633333335165,
      "v": 88
    },
    {
      "midi": 69,
      "hit": false,
      "t": 296972.0965000034,
      "d": 155.03633333335165,
      "v": 88
    },
    {
      "midi": 52,
      "hit": false,
      "t": 297204.65100000345,
      "d": 155.03633333335165,
      "v": 88
    },
    {
      "midi": 59,
      "hit": false,
      "t": 297204.65100000345,
      "d": 155.03633333335165,
      "v": 88
    },
    {
      "midi": 64,
      "hit": false,
      "t": 297204.65100000345,
      "d": 155.03633333335165,
      "v": 88
    },
    {
      "midi": 68,
      "hit": false,
      "t": 297204.65100000345,
      "d": 155.03633333335165,
      "v": 88
    },
    {
      "midi": 52,
      "hit": false,
      "t": 297437.2055000035,
      "d": 155.03633333335165,
      "v": 88
    },
    {
      "midi": 59,
      "hit": false,
      "t": 297437.2055000035,
      "d": 155.03633333335165,
      "v": 88
    },
    {
      "midi": 64,
      "hit": false,
      "t": 297437.2055000035,
      "d": 155.03633333335165,
      "v": 88
    },
    {
      "midi": 68,
      "hit": false,
      "t": 297437.2055000035,
      "d": 155.03633333335165,
      "v": 88
    },
    {
      "midi": 54,
      "hit": false,
      "t": 297669.7600000035,
      "d": 155.03633333335165,
      "v": 88
    },
    {
      "midi": 61,
      "hit": false,
      "t": 297902.31450000353,
      "d": 155.03633333335165,
      "v": 88
    },
    {
      "midi": 66,
      "hit": false,
      "t": 297902.31450000353,
      "d": 155.03633333335165,
      "v": 88
    },
    {
      "midi": 69,
      "hit": false,
      "t": 297902.31450000353,
      "d": 155.03633333335165,
      "v": 88
    },
    {
      "midi": 54,
      "hit": false,
      "t": 298134.86900000356,
      "d": 155.03633333329344,
      "v": 88
    },
    {
      "midi": 61,
      "hit": false,
      "t": 298251.14625000354,
      "d": 155.03633333329344,
      "v": 88
    },
    {
      "midi": 66,
      "hit": false,
      "t": 298251.14625000354,
      "d": 155.03633333329344,
      "v": 88
    },
    {
      "midi": 69,
      "hit": false,
      "t": 298251.14625000354,
      "d": 155.03633333329344,
      "v": 88
    },
    {
      "midi": 54,
      "hit": false,
      "t": 298483.7007500035,
      "d": 155.03633333329344,
      "v": 88
    },
    {
      "midi": 61,
      "hit": false,
      "t": 298599.9780000035,
      "d": 155.03633333329344,
      "v": 88
    },
    {
      "midi": 66,
      "hit": false,
      "t": 298599.9780000035,
      "d": 155.03633333329344,
      "v": 88
    },
    {
      "midi": 69,
      "hit": false,
      "t": 298599.9780000035,
      "d": 155.03633333329344,
      "v": 88
    },
    {
      "midi": 54,
      "hit": false,
      "t": 298832.53250000346,
      "d": 155.03633333329344,
      "v": 88
    },
    {
      "midi": 61,
      "hit": false,
      "t": 298948.80975000345,
      "d": 155.03633333329344,
      "v": 88
    },
    {
      "midi": 66,
      "hit": false,
      "t": 298948.80975000345,
      "d": 155.03633333329344,
      "v": 88
    },
    {
      "midi": 69,
      "hit": false,
      "t": 298948.80975000345,
      "d": 155.03633333329344,
      "v": 88
    },
    {
      "midi": 54,
      "hit": false,
      "t": 299181.3642500034,
      "d": 155.03633333329344,
      "v": 88
    },
    {
      "midi": 61,
      "hit": false,
      "t": 299297.6415000034,
      "d": 155.03633333329344,
      "v": 88
    },
    {
      "midi": 66,
      "hit": false,
      "t": 299297.6415000034,
      "d": 155.03633333329344,
      "v": 88
    },
    {
      "midi": 69,
      "hit": false,
      "t": 299297.6415000034,
      "d": 155.03633333329344,
      "v": 88
    },
    {
      "midi": 52,
      "hit": false,
      "t": 299530.1960000034,
      "d": 155.03633333335165,
      "v": 88
    },
    {
      "midi": 59,
      "hit": false,
      "t": 299762.7505000034,
      "d": 155.03633333335165,
      "v": 88
    },
    {
      "midi": 64,
      "hit": false,
      "t": 299762.7505000034,
      "d": 155.03633333335165,
      "v": 88
    },
    {
      "midi": 69,
      "hit": false,
      "t": 299762.7505000034,
      "d": 155.03633333335165,
      "v": 88
    },
    {
      "midi": 52,
      "hit": false,
      "t": 299995.3050000034,
      "d": 155.03633333329344,
      "v": 88
    },
    {
      "midi": 59,
      "hit": false,
      "t": 300111.5822500034,
      "d": 155.03633333329344,
      "v": 88
    },
    {
      "midi": 64,
      "hit": false,
      "t": 300111.5822500034,
      "d": 155.03633333329344,
      "v": 88
    },
    {
      "midi": 69,
      "hit": false,
      "t": 300111.5822500034,
      "d": 155.03633333329344,
      "v": 88
    },
    {
      "midi": 52,
      "hit": false,
      "t": 300344.1367500034,
      "d": 155.03633333329344,
      "v": 88
    },
    {
      "midi": 59,
      "hit": false,
      "t": 300460.41400000337,
      "d": 155.03633333329344,
      "v": 88
    },
    {
      "midi": 64,
      "hit": false,
      "t": 300460.41400000337,
      "d": 155.03633333329344,
      "v": 88
    },
    {
      "midi": 69,
      "hit": false,
      "t": 300460.41400000337,
      "d": 155.03633333329344,
      "v": 88
    },
    {
      "midi": 52,
      "hit": false,
      "t": 300692.96850000334,
      "d": 155.03633333329344,
      "v": 88
    },
    {
      "midi": 59,
      "hit": false,
      "t": 300809.2457500033,
      "d": 155.03633333329344,
      "v": 88
    },
    {
      "midi": 64,
      "hit": false,
      "t": 300809.2457500033,
      "d": 155.03633333329344,
      "v": 88
    },
    {
      "midi": 69,
      "hit": false,
      "t": 300809.2457500033,
      "d": 155.03633333329344,
      "v": 88
    },
    {
      "midi": 52,
      "hit": false,
      "t": 301041.8002500033,
      "d": 155.03633333329344,
      "v": 88
    },
    {
      "midi": 59,
      "hit": false,
      "t": 301158.0775000033,
      "d": 155.03633333329344,
      "v": 88
    },
    {
      "midi": 64,
      "hit": false,
      "t": 301158.0775000033,
      "d": 155.03633333329344,
      "v": 88
    },
    {
      "midi": 68,
      "hit": false,
      "t": 301158.0775000033,
      "d": 155.03633333329344,
      "v": 88
    },
    {
      "midi": 50,
      "hit": false,
      "t": 301390.63200000324,
      "d": 155.03633333335165,
      "v": 88
    },
    {
      "midi": 57,
      "hit": false,
      "t": 301623.18650000327,
      "d": 155.03633333335165,
      "v": 88
    },
    {
      "midi": 62,
      "hit": false,
      "t": 301623.18650000327,
      "d": 155.03633333335165,
      "v": 88
    },
    {
      "midi": 66,
      "hit": false,
      "t": 301623.18650000327,
      "d": 155.03633333335165,
      "v": 88
    },
    {
      "midi": 50,
      "hit": false,
      "t": 301855.7410000033,
      "d": 155.03633333329344,
      "v": 88
    },
    {
      "midi": 57,
      "hit": false,
      "t": 301972.0182500033,
      "d": 155.03633333329344,
      "v": 88
    },
    {
      "midi": 62,
      "hit": false,
      "t": 301972.0182500033,
      "d": 155.03633333329344,
      "v": 88
    },
    {
      "midi": 66,
      "hit": false,
      "t": 301972.0182500033,
      "d": 155.03633333329344,
      "v": 88
    },
    {
      "midi": 50,
      "hit": false,
      "t": 302204.57275000325,
      "d": 155.03633333329344,
      "v": 88
    },
    {
      "midi": 57,
      "hit": false,
      "t": 302320.85000000324,
      "d": 155.03633333329344,
      "v": 88
    },
    {
      "midi": 62,
      "hit": false,
      "t": 302320.85000000324,
      "d": 155.03633333329344,
      "v": 88
    },
    {
      "midi": 66,
      "hit": false,
      "t": 302320.85000000324,
      "d": 155.03633333329344,
      "v": 88
    },
    {
      "midi": 50,
      "hit": false,
      "t": 302553.4045000032,
      "d": 155.03633333329344,
      "v": 88
    },
    {
      "midi": 57,
      "hit": false,
      "t": 302669.6817500032,
      "d": 155.03633333329344,
      "v": 88
    },
    {
      "midi": 62,
      "hit": false,
      "t": 302669.6817500032,
      "d": 155.03633333329344,
      "v": 88
    },
    {
      "midi": 66,
      "hit": false,
      "t": 302669.6817500032,
      "d": 155.03633333329344,
      "v": 88
    },
    {
      "midi": 50,
      "hit": false,
      "t": 302902.23625000316,
      "d": 155.03633333329344,
      "v": 88
    },
    {
      "midi": 57,
      "hit": false,
      "t": 303018.51350000314,
      "d": 155.03633333329344,
      "v": 88
    },
    {
      "midi": 62,
      "hit": false,
      "t": 303018.51350000314,
      "d": 155.03633333329344,
      "v": 88
    },
    {
      "midi": 66,
      "hit": false,
      "t": 303018.51350000314,
      "d": 155.03633333329344,
      "v": 88
    },
    {
      "midi": 52,
      "hit": false,
      "t": 303251.0680000031,
      "d": 155.03633333335165,
      "v": 88
    },
    {
      "midi": 57,
      "hit": false,
      "t": 303483.62250000314,
      "d": 155.03633333335165,
      "v": 88
    },
    {
      "midi": 59,
      "hit": false,
      "t": 303483.62250000314,
      "d": 155.03633333335165,
      "v": 88
    },
    {
      "midi": 64,
      "hit": false,
      "t": 303483.62250000314,
      "d": 155.03633333335165,
      "v": 88
    },
    {
      "midi": 52,
      "hit": false,
      "t": 303716.17700000317,
      "d": 155.03633333329344,
      "v": 88
    },
    {
      "midi": 57,
      "hit": false,
      "t": 303832.45425000315,
      "d": 155.03633333329344,
      "v": 88
    },
    {
      "midi": 59,
      "hit": false,
      "t": 303832.45425000315,
      "d": 155.03633333329344,
      "v": 88
    },
    {
      "midi": 64,
      "hit": false,
      "t": 303832.45425000315,
      "d": 155.03633333329344,
      "v": 88
    },
    {
      "midi": 52,
      "hit": false,
      "t": 304181.2860000031,
      "d": 38.75908333330881,
      "v": 88
    },
    {
      "midi": 59,
      "hit": false,
      "t": 304181.2860000031,
      "d": 155.03633333329344,
      "v": 88
    },
    {
      "midi": 64,
      "hit": false,
      "t": 304181.2860000031,
      "d": 155.03633333329344,
      "v": 88
    },
    {
      "midi": 69,
      "hit": false,
      "t": 304181.2860000031,
      "d": 155.03633333329344,
      "v": 88
    },
    {
      "midi": 52,
      "hit": false,
      "t": 304413.8405000031,
      "d": 155.03633333335165,
      "v": 88
    },
    {
      "midi": 59,
      "hit": false,
      "t": 304413.8405000031,
      "d": 155.03633333335165,
      "v": 88
    },
    {
      "midi": 64,
      "hit": false,
      "t": 304413.8405000031,
      "d": 155.03633333335165,
      "v": 88
    },
    {
      "midi": 69,
      "hit": false,
      "t": 304413.8405000031,
      "d": 155.03633333335165,
      "v": 88
    },
    {
      "midi": 52,
      "hit": false,
      "t": 304646.3950000031,
      "d": 155.03633333335165,
      "v": 88
    },
    {
      "midi": 59,
      "hit": false,
      "t": 304646.3950000031,
      "d": 155.03633333335165,
      "v": 88
    },
    {
      "midi": 64,
      "hit": false,
      "t": 304646.3950000031,
      "d": 155.03633333335165,
      "v": 88
    },
    {
      "midi": 68,
      "hit": false,
      "t": 304646.3950000031,
      "d": 155.03633333335165,
      "v": 88
    },
    {
      "midi": 52,
      "hit": false,
      "t": 304878.94950000313,
      "d": 155.03633333335165,
      "v": 88
    },
    {
      "midi": 59,
      "hit": false,
      "t": 304878.94950000313,
      "d": 155.03633333335165,
      "v": 88
    },
    {
      "midi": 64,
      "hit": false,
      "t": 304878.94950000313,
      "d": 155.03633333335165,
      "v": 88
    },
    {
      "midi": 68,
      "hit": false,
      "t": 304878.94950000313,
      "d": 155.03633333335165,
      "v": 88
    },
    {
      "midi": 54,
      "hit": false,
      "t": 305111.50400000316,
      "d": 155.03633333335165,
      "v": 88
    },
    {
      "midi": 61,
      "hit": false,
      "t": 305344.0585000032,
      "d": 155.03633333335165,
      "v": 88
    },
    {
      "midi": 66,
      "hit": false,
      "t": 305344.0585000032,
      "d": 155.03633333335165,
      "v": 88
    },
    {
      "midi": 69,
      "hit": false,
      "t": 305344.0585000032,
      "d": 155.03633333335165,
      "v": 88
    },
    {
      "midi": 54,
      "hit": false,
      "t": 305576.6130000032,
      "d": 155.03633333329344,
      "v": 88
    },
    {
      "midi": 61,
      "hit": false,
      "t": 305692.8902500032,
      "d": 155.03633333329344,
      "v": 88
    },
    {
      "midi": 66,
      "hit": false,
      "t": 305692.8902500032,
      "d": 155.03633333329344,
      "v": 88
    },
    {
      "midi": 69,
      "hit": false,
      "t": 305692.8902500032,
      "d": 155.03633333329344,
      "v": 88
    },
    {
      "midi": 54,
      "hit": false,
      "t": 305925.44475000317,
      "d": 155.03633333329344,
      "v": 88
    },
    {
      "midi": 61,
      "hit": false,
      "t": 306041.72200000315,
      "d": 155.03633333329344,
      "v": 88
    },
    {
      "midi": 66,
      "hit": false,
      "t": 306041.72200000315,
      "d": 155.03633333329344,
      "v": 88
    },
    {
      "midi": 69,
      "hit": false,
      "t": 306041.72200000315,
      "d": 155.03633333329344,
      "v": 88
    },
    {
      "midi": 54,
      "hit": false,
      "t": 306274.2765000031,
      "d": 155.03633333329344,
      "v": 88
    },
    {
      "midi": 61,
      "hit": false,
      "t": 306390.5537500031,
      "d": 155.03633333329344,
      "v": 88
    },
    {
      "midi": 66,
      "hit": false,
      "t": 306390.5537500031,
      "d": 155.03633333329344,
      "v": 88
    },
    {
      "midi": 69,
      "hit": false,
      "t": 306390.5537500031,
      "d": 155.03633333329344,
      "v": 88
    },
    {
      "midi": 54,
      "hit": false,
      "t": 306623.1082500031,
      "d": 155.03633333329344,
      "v": 88
    },
    {
      "midi": 61,
      "hit": false,
      "t": 306739.38550000306,
      "d": 155.03633333329344,
      "v": 88
    },
    {
      "midi": 66,
      "hit": false,
      "t": 306739.38550000306,
      "d": 155.03633333329344,
      "v": 88
    },
    {
      "midi": 69,
      "hit": false,
      "t": 306739.38550000306,
      "d": 155.03633333329344,
      "v": 88
    },
    {
      "midi": 52,
      "hit": false,
      "t": 306971.94000000303,
      "d": 155.03633333335165,
      "v": 88
    },
    {
      "midi": 59,
      "hit": false,
      "t": 307204.49450000306,
      "d": 155.03633333335165,
      "v": 88
    },
    {
      "midi": 64,
      "hit": false,
      "t": 307204.49450000306,
      "d": 155.03633333335165,
      "v": 88
    },
    {
      "midi": 69,
      "hit": false,
      "t": 307204.49450000306,
      "d": 155.03633333335165,
      "v": 88
    },
    {
      "midi": 52,
      "hit": false,
      "t": 307437.0490000031,
      "d": 155.03633333329344,
      "v": 88
    },
    {
      "midi": 59,
      "hit": false,
      "t": 307553.32625000307,
      "d": 155.03633333329344,
      "v": 88
    },
    {
      "midi": 64,
      "hit": false,
      "t": 307553.32625000307,
      "d": 155.03633333329344,
      "v": 88
    },
    {
      "midi": 69,
      "hit": false,
      "t": 307553.32625000307,
      "d": 155.03633333329344,
      "v": 88
    },
    {
      "midi": 52,
      "hit": false,
      "t": 307785.88075000304,
      "d": 155.03633333329344,
      "v": 88
    },
    {
      "midi": 59,
      "hit": false,
      "t": 307902.158000003,
      "d": 155.03633333329344,
      "v": 88
    },
    {
      "midi": 64,
      "hit": false,
      "t": 307902.158000003,
      "d": 155.03633333329344,
      "v": 88
    },
    {
      "midi": 69,
      "hit": false,
      "t": 307902.158000003,
      "d": 155.03633333329344,
      "v": 88
    },
    {
      "midi": 52,
      "hit": false,
      "t": 308134.712500003,
      "d": 155.03633333329344,
      "v": 88
    },
    {
      "midi": 59,
      "hit": false,
      "t": 308250.989750003,
      "d": 155.03633333329344,
      "v": 88
    },
    {
      "midi": 64,
      "hit": false,
      "t": 308250.989750003,
      "d": 155.03633333329344,
      "v": 88
    },
    {
      "midi": 69,
      "hit": false,
      "t": 308250.989750003,
      "d": 155.03633333329344,
      "v": 88
    },
    {
      "midi": 52,
      "hit": false,
      "t": 308483.54425000295,
      "d": 155.03633333329344,
      "v": 88
    },
    {
      "midi": 59,
      "hit": false,
      "t": 308599.82150000293,
      "d": 155.03633333329344,
      "v": 88
    },
    {
      "midi": 64,
      "hit": false,
      "t": 308599.82150000293,
      "d": 155.03633333329344,
      "v": 88
    },
    {
      "midi": 68,
      "hit": false,
      "t": 308599.82150000293,
      "d": 155.03633333329344,
      "v": 88
    },
    {
      "midi": 50,
      "hit": false,
      "t": 308832.3760000029,
      "d": 155.03633333335165,
      "v": 88
    },
    {
      "midi": 57,
      "hit": false,
      "t": 309064.9305000029,
      "d": 155.03633333335165,
      "v": 88
    },
    {
      "midi": 62,
      "hit": false,
      "t": 309064.9305000029,
      "d": 155.03633333335165,
      "v": 88
    },
    {
      "midi": 66,
      "hit": false,
      "t": 309064.9305000029,
      "d": 155.03633333335165,
      "v": 88
    },
    {
      "midi": 50,
      "hit": false,
      "t": 309297.48500000295,
      "d": 155.03633333329344,
      "v": 88
    },
    {
      "midi": 57,
      "hit": false,
      "t": 309413.76225000294,
      "d": 155.03633333329344,
      "v": 88
    },
    {
      "midi": 62,
      "hit": false,
      "t": 309413.76225000294,
      "d": 155.03633333329344,
      "v": 88
    },
    {
      "midi": 66,
      "hit": false,
      "t": 309413.76225000294,
      "d": 155.03633333329344,
      "v": 88
    },
    {
      "midi": 50,
      "hit": false,
      "t": 309646.3167500029,
      "d": 155.03633333329344,
      "v": 88
    },
    {
      "midi": 57,
      "hit": false,
      "t": 309762.5940000029,
      "d": 155.03633333329344,
      "v": 88
    },
    {
      "midi": 62,
      "hit": false,
      "t": 309762.5940000029,
      "d": 155.03633333329344,
      "v": 88
    },
    {
      "midi": 66,
      "hit": false,
      "t": 309762.5940000029,
      "d": 155.03633333329344,
      "v": 88
    },
    {
      "midi": 50,
      "hit": false,
      "t": 309995.14850000286,
      "d": 155.03633333329344,
      "v": 88
    },
    {
      "midi": 57,
      "hit": false,
      "t": 310111.42575000285,
      "d": 155.03633333329344,
      "v": 88
    },
    {
      "midi": 62,
      "hit": false,
      "t": 310111.42575000285,
      "d": 155.03633333329344,
      "v": 88
    },
    {
      "midi": 66,
      "hit": false,
      "t": 310111.42575000285,
      "d": 155.03633333329344,
      "v": 88
    },
    {
      "midi": 50,
      "hit": false,
      "t": 310343.9802500028,
      "d": 155.03633333329344,
      "v": 88
    },
    {
      "midi": 57,
      "hit": false,
      "t": 310460.2575000028,
      "d": 155.03633333329344,
      "v": 88
    },
    {
      "midi": 62,
      "hit": false,
      "t": 310460.2575000028,
      "d": 155.03633333329344,
      "v": 88
    },
    {
      "midi": 66,
      "hit": false,
      "t": 310460.2575000028,
      "d": 155.03633333329344,
      "v": 88
    },
    {
      "midi": 52,
      "hit": false,
      "t": 310692.81200000277,
      "d": 155.03633333335165,
      "v": 88
    },
    {
      "midi": 57,
      "hit": false,
      "t": 310925.3665000028,
      "d": 155.03633333335165,
      "v": 88
    },
    {
      "midi": 59,
      "hit": false,
      "t": 310925.3665000028,
      "d": 155.03633333335165,
      "v": 88
    },
    {
      "midi": 64,
      "hit": false,
      "t": 310925.3665000028,
      "d": 155.03633333335165,
      "v": 88
    },
    {
      "midi": 52,
      "hit": false,
      "t": 311157.9210000028,
      "d": 155.03633333329344,
      "v": 88
    },
    {
      "midi": 57,
      "hit": false,
      "t": 311274.1982500028,
      "d": 155.03633333329344,
      "v": 88
    },
    {
      "midi": 59,
      "hit": false,
      "t": 311274.1982500028,
      "d": 155.03633333329344,
      "v": 88
    },
    {
      "midi": 64,
      "hit": false,
      "t": 311274.1982500028,
      "d": 155.03633333329344,
      "v": 88
    },
    {
      "midi": 52,
      "hit": false,
      "t": 311623.03000000276,
      "d": 38.75908333330881,
      "v": 88
    },
    {
      "midi": 59,
      "hit": false,
      "t": 311623.03000000276,
      "d": 155.03633333329344,
      "v": 88
    },
    {
      "midi": 64,
      "hit": false,
      "t": 311623.03000000276,
      "d": 155.03633333329344,
      "v": 88
    },
    {
      "midi": 69,
      "hit": false,
      "t": 311623.03000000276,
      "d": 155.03633333329344,
      "v": 88
    },
    {
      "midi": 52,
      "hit": false,
      "t": 311855.58450000273,
      "d": 155.03633333335165,
      "v": 88
    },
    {
      "midi": 59,
      "hit": false,
      "t": 311855.58450000273,
      "d": 155.03633333335165,
      "v": 88
    },
    {
      "midi": 64,
      "hit": false,
      "t": 311855.58450000273,
      "d": 155.03633333335165,
      "v": 88
    },
    {
      "midi": 69,
      "hit": false,
      "t": 311855.58450000273,
      "d": 155.03633333335165,
      "v": 88
    },
    {
      "midi": 52,
      "hit": false,
      "t": 312088.13900000276,
      "d": 155.03633333335165,
      "v": 88
    },
    {
      "midi": 59,
      "hit": false,
      "t": 312088.13900000276,
      "d": 155.03633333335165,
      "v": 88
    },
    {
      "midi": 64,
      "hit": false,
      "t": 312088.13900000276,
      "d": 155.03633333335165,
      "v": 88
    },
    {
      "midi": 68,
      "hit": false,
      "t": 312088.13900000276,
      "d": 155.03633333335165,
      "v": 88
    },
    {
      "midi": 52,
      "hit": false,
      "t": 312320.6935000028,
      "d": 155.03633333335165,
      "v": 88
    },
    {
      "midi": 59,
      "hit": false,
      "t": 312320.6935000028,
      "d": 155.03633333335165,
      "v": 88
    },
    {
      "midi": 64,
      "hit": false,
      "t": 312320.6935000028,
      "d": 155.03633333335165,
      "v": 88
    },
    {
      "midi": 68,
      "hit": false,
      "t": 312320.6935000028,
      "d": 155.03633333335165,
      "v": 88
    },
    {
      "midi": 54,
      "hit": false,
      "t": 312553.2480000028,
      "d": 717.0430416666786,
      "v": 64
    },
    {
      "midi": 42,
      "hit": false,
      "t": 312553.2480000028,
      "d": 755.8021249999874,
      "v": 64
    }
  ]
}