{
  "jsonPath": "Pop/Dance Pop/Britney Spears/dont-let-me-be-the-last-to-know.json",
  "path": "Pop\\Dance Pop\\Britney Spears\\Dont Let Me Be The Last To Know.mid",
  "name": "Dont Let Me Be The Last To Know",
  "difficulty": "Advanced",
  "bpm": 120,
  "notes": [
    {
      "midi": 40,
      "hit": false,
      "t": 4406.25,
      "d": 421.875,
      "v": 127
    },
    {
      "midi": 47,
      "hit": false,
      "t": 4406.25,
      "d": 3223.958333333334,
      "v": 97
    },
    {
      "midi": 64,
      "hit": false,
      "t": 4416.666666666667,
      "d": 3442.708333333334,
      "v": 81
    },
    {
      "midi": 68,
      "hit": false,
      "t": 4421.875,
      "d": 6880.208333333334,
      "v": 81
    },
    {
      "midi": 54,
      "hit": false,
      "t": 4838.541666666667,
      "d": 421.875,
      "v": 126
    },
    {
      "midi": 56,
      "hit": false,
      "t": 5270.833333333334,
      "d": 2578.125,
      "v": 125
    },
    {
      "midi": 59,
      "hit": false,
      "t": 5697.916666666667,
      "d": 2796.875000000001,
      "v": 84
    },
    {
      "midi": 48,
      "hit": false,
      "t": 11322.916666666668,
      "d": 1713.541666666666,
      "v": 123
    },
    {
      "midi": 54,
      "hit": false,
      "t": 11744.791666666668,
      "d": 1291.666666666666,
      "v": 124
    },
    {
      "midi": 57,
      "hit": false,
      "t": 12177.083333333334,
      "d": 854.1666666666661,
      "v": 124
    },
    {
      "midi": 63,
      "hit": false,
      "t": 13041.666666666668,
      "d": 1494.791666666666,
      "v": 83
    },
    {
      "midi": 59,
      "hit": false,
      "t": 13041.666666666668,
      "d": 1604.166666666666,
      "v": 83
    },
    {
      "midi": 47,
      "hit": false,
      "t": 13041.666666666668,
      "d": 1609.375,
      "v": 83
    },
    {
      "midi": 54,
      "hit": false,
      "t": 13041.666666666668,
      "d": 1609.375,
      "v": 83
    },
    {
      "midi": 51,
      "hit": false,
      "t": 13041.666666666668,
      "d": 1614.583333333334,
      "v": 83
    },
    {
      "midi": 66,
      "hit": false,
      "t": 13041.666666666668,
      "d": 1614.583333333334,
      "v": 83
    },
    {
      "midi": 40,
      "hit": false,
      "t": 18218.75,
      "d": 421.875,
      "v": 100
    },
    {
      "midi": 54,
      "hit": false,
      "t": 18651.041666666668,
      "d": 421.875,
      "v": 100
    },
    {
      "midi": 56,
      "hit": false,
      "t": 19078.125,
      "d": 2473.958333333332,
      "v": 100
    },
    {
      "midi": 48,
      "hit": false,
      "t": 21666.666666666664,
      "d": 427.0833333333321,
      "v": 100
    },
    {
      "midi": 54,
      "hit": false,
      "t": 22104.166666666664,
      "d": 427.0833333333321,
      "v": 100
    },
    {
      "midi": 57,
      "hit": false,
      "t": 22531.249999999996,
      "d": 2041.6666666666679,
      "v": 100
    },
    {
      "midi": 51,
      "hit": false,
      "t": 25119.791666666664,
      "d": 427.0833333333321,
      "v": 100
    },
    {
      "midi": 56,
      "hit": false,
      "t": 25557.291666666664,
      "d": 427.0833333333321,
      "v": 100
    },
    {
      "midi": 59,
      "hit": false,
      "t": 25984.374999999996,
      "d": 2151.041666666668,
      "v": 100
    },
    {
      "midi": 52,
      "hit": false,
      "t": 28572.916666666664,
      "d": 421.875,
      "v": 100
    },
    {
      "midi": 57,
      "hit": false,
      "t": 29010.416666666664,
      "d": 416.6666666666679,
      "v": 100
    },
    {
      "midi": 59,
      "hit": false,
      "t": 29437.5,
      "d": 1932.2916666666679,
      "v": 100
    },
    {
      "midi": 52,
      "hit": false,
      "t": 32026.041666666668,
      "d": 421.875,
      "v": 100
    },
    {
      "midi": 57,
      "hit": false,
      "t": 32463.541666666668,
      "d": 416.6666666666679,
      "v": 100
    },
    {
      "midi": 59,
      "hit": false,
      "t": 32890.625,
      "d": 1932.2916666666642,
      "v": 100
    },
    {
      "midi": 59,
      "hit": false,
      "t": 35479.166666666664,
      "d": 208.33333333333576,
      "v": 100
    },
    {
      "midi": 63,
      "hit": false,
      "t": 35692.708333333336,
      "d": 208.33333333333576,
      "v": 100
    },
    {
      "midi": 59,
      "hit": false,
      "t": 35911.458333333336,
      "d": 2588.5416666666642,
      "v": 100
    },
    {
      "midi": 64,
      "hit": false,
      "t": 35911.458333333336,
      "d": 2687.5,
      "v": 100
    },
    {
      "midi": 40,
      "hit": false,
      "t": 38927.083333333336,
      "d": 427.08333333333576,
      "v": 100
    },
    {
      "midi": 54,
      "hit": false,
      "t": 39364.583333333336,
      "d": 421.875,
      "v": 100
    },
    {
      "midi": 56,
      "hit": false,
      "t": 39791.66666666667,
      "d": 2479.1666666666642,
      "v": 100
    },
    {
      "midi": 48,
      "hit": false,
      "t": 42385.41666666667,
      "d": 421.875,
      "v": 100
    },
    {
      "midi": 54,
      "hit": false,
      "t": 42817.708333333336,
      "d": 421.875,
      "v": 100
    },
    {
      "midi": 57,
      "hit": false,
      "t": 43244.79166666667,
      "d": 2046.875,
      "v": 100
    },
    {
      "midi": 51,
      "hit": false,
      "t": 45838.54166666667,
      "d": 421.875,
      "v": 100
    },
    {
      "midi": 56,
      "hit": false,
      "t": 46270.833333333336,
      "d": 427.08333333333576,
      "v": 100
    },
    {
      "midi": 59,
      "hit": false,
      "t": 46697.91666666667,
      "d": 2151.0416666666642,
      "v": 100
    },
    {
      "midi": 52,
      "hit": false,
      "t": 49286.458333333336,
      "d": 427.08333333333576,
      "v": 100
    },
    {
      "midi": 57,
      "hit": false,
      "t": 49723.958333333336,
      "d": 421.875,
      "v": 100
    },
    {
      "midi": 59,
      "hit": false,
      "t": 50151.04166666667,
      "d": 1937.5,
      "v": 100
    },
    {
      "midi": 52,
      "hit": false,
      "t": 52739.583333333336,
      "d": 427.08333333333576,
      "v": 100
    },
    {
      "midi": 57,
      "hit": false,
      "t": 53177.083333333336,
      "d": 427.08333333333576,
      "v": 100
    },
    {
      "midi": 59,
      "hit": false,
      "t": 53609.37500000001,
      "d": 1927.0833333333358,
      "v": 100
    },
    {
      "midi": 59,
      "hit": false,
      "t": 56197.91666666668,
      "d": 2796.875,
      "v": 87
    },
    {
      "midi": 63,
      "hit": false,
      "t": 56197.91666666668,
      "d": 2901.0416666666642,
      "v": 87
    },
    {
      "midi": 66,
      "hit": false,
      "t": 56197.91666666668,
      "d": 3010.4166666666642,
      "v": 87
    },
    {
      "midi": 54,
      "hit": false,
      "t": 56197.91666666668,
      "d": 3119.7916666666642,
      "v": 87
    },
    {
      "midi": 59,
      "hit": false,
      "t": 61369.79166666668,
      "d": 432.29166666666424,
      "v": 105
    },
    {
      "midi": 68,
      "hit": false,
      "t": 61380.20833333334,
      "d": 416.66666666666424,
      "v": 105
    },
    {
      "midi": 71,
      "hit": false,
      "t": 61380.20833333334,
      "d": 416.66666666666424,
      "v": 105
    },
    {
      "midi": 64,
      "hit": false,
      "t": 61380.20833333334,
      "d": 427.08333333333576,
      "v": 105
    },
    {
      "midi": 59,
      "hit": false,
      "t": 61807.29166666668,
      "d": 421.875,
      "v": 103
    },
    {
      "midi": 64,
      "hit": false,
      "t": 61812.500000000015,
      "d": 416.66666666666424,
      "v": 103
    },
    {
      "midi": 68,
      "hit": false,
      "t": 61812.500000000015,
      "d": 416.66666666666424,
      "v": 103
    },
    {
      "midi": 71,
      "hit": false,
      "t": 61812.500000000015,
      "d": 416.66666666666424,
      "v": 103
    },
    {
      "midi": 59,
      "hit": false,
      "t": 63098.95833333334,
      "d": 432.29166666666424,
      "v": 105
    },
    {
      "midi": 71,
      "hit": false,
      "t": 63098.95833333334,
      "d": 432.29166666666424,
      "v": 105
    },
    {
      "midi": 64,
      "hit": false,
      "t": 63109.37500000001,
      "d": 421.875,
      "v": 105
    },
    {
      "midi": 68,
      "hit": false,
      "t": 63109.37500000001,
      "d": 421.875,
      "v": 105
    },
    {
      "midi": 59,
      "hit": false,
      "t": 63536.45833333334,
      "d": 421.8750000000073,
      "v": 103
    },
    {
      "midi": 68,
      "hit": false,
      "t": 63536.45833333334,
      "d": 421.8750000000073,
      "v": 103
    },
    {
      "midi": 71,
      "hit": false,
      "t": 63536.45833333334,
      "d": 421.8750000000073,
      "v": 103
    },
    {
      "midi": 64,
      "hit": false,
      "t": 63541.66666666668,
      "d": 411.45833333333576,
      "v": 103
    },
    {
      "midi": 54,
      "hit": false,
      "t": 64828.125000000015,
      "d": 421.875,
      "v": 103
    },
    {
      "midi": 57,
      "hit": false,
      "t": 64828.125000000015,
      "d": 421.875,
      "v": 100
    },
    {
      "midi": 61,
      "hit": false,
      "t": 64828.125000000015,
      "d": 432.2916666666715,
      "v": 100
    },
    {
      "midi": 69,
      "hit": false,
      "t": 64833.33333333335,
      "d": 416.66666666666424,
      "v": 100
    },
    {
      "midi": 66,
      "hit": false,
      "t": 64833.33333333335,
      "d": 421.875,
      "v": 100
    },
    {
      "midi": 54,
      "hit": false,
      "t": 65260.416666666686,
      "d": 427.0833333333285,
      "v": 103
    },
    {
      "midi": 57,
      "hit": false,
      "t": 65260.416666666686,
      "d": 427.0833333333285,
      "v": 103
    },
    {
      "midi": 61,
      "hit": false,
      "t": 65265.62500000002,
      "d": 416.66666666666424,
      "v": 103
    },
    {
      "midi": 66,
      "hit": false,
      "t": 65265.62500000002,
      "d": 416.66666666666424,
      "v": 103
    },
    {
      "midi": 69,
      "hit": false,
      "t": 65265.62500000002,
      "d": 421.8749999999927,
      "v": 103
    },
    {
      "midi": 54,
      "hit": false,
      "t": 66552.08333333334,
      "d": 421.875,
      "v": 103
    },
    {
      "midi": 57,
      "hit": false,
      "t": 66552.08333333334,
      "d": 427.0833333333285,
      "v": 103
    },
    {
      "midi": 61,
      "hit": false,
      "t": 66562.50000000001,
      "d": 416.66666666665697,
      "v": 103
    },
    {
      "midi": 66,
      "hit": false,
      "t": 66562.50000000001,
      "d": 416.66666666665697,
      "v": 103
    },
    {
      "midi": 69,
      "hit": false,
      "t": 66562.50000000001,
      "d": 416.66666666665697,
      "v": 103
    },
    {
      "midi": 54,
      "hit": false,
      "t": 66984.375,
      "d": 421.875,
      "v": 103
    },
    {
      "midi": 57,
      "hit": false,
      "t": 66989.58333333333,
      "d": 416.6666666666715,
      "v": 103
    },
    {
      "midi": 69,
      "hit": false,
      "t": 66989.58333333333,
      "d": 416.6666666666715,
      "v": 103
    },
    {
      "midi": 61,
      "hit": false,
      "t": 66989.58333333333,
      "d": 421.875,
      "v": 103
    },
    {
      "midi": 66,
      "hit": false,
      "t": 66989.58333333333,
      "d": 421.875,
      "v": 103
    },
    {
      "midi": 52,
      "hit": false,
      "t": 68281.25,
      "d": 427.0833333333285,
      "v": 103
    },
    {
      "midi": 57,
      "hit": false,
      "t": 68281.25,
      "d": 427.0833333333285,
      "v": 103
    },
    {
      "midi": 64,
      "hit": false,
      "t": 68281.25,
      "d": 427.0833333333285,
      "v": 103
    },
    {
      "midi": 61,
      "hit": false,
      "t": 68281.25,
      "d": 432.29166666665697,
      "v": 103
    },
    {
      "midi": 69,
      "hit": false,
      "t": 68286.45833333333,
      "d": 421.875,
      "v": 103
    },
    {
      "midi": 57,
      "hit": false,
      "t": 68718.74999999999,
      "d": 411.4583333333285,
      "v": 103
    },
    {
      "midi": 64,
      "hit": false,
      "t": 68718.74999999999,
      "d": 416.66666666665697,
      "v": 103
    },
    {
      "midi": 69,
      "hit": false,
      "t": 68718.74999999999,
      "d": 416.66666666665697,
      "v": 103
    },
    {
      "midi": 52,
      "hit": false,
      "t": 68718.74999999999,
      "d": 421.87499999998545,
      "v": 103
    },
    {
      "midi": 61,
      "hit": false,
      "t": 68718.74999999999,
      "d": 421.87499999998545,
      "v": 103
    },
    {
      "midi": 52,
      "hit": false,
      "t": 70005.2083333333,
      "d": 421.875,
      "v": 103
    },
    {
      "midi": 61,
      "hit": false,
      "t": 70010.41666666663,
      "d": 421.875,
      "v": 103
    },
    {
      "midi": 69,
      "hit": false,
      "t": 70010.41666666663,
      "d": 421.875,
      "v": 103
    },
    {
      "midi": 57,
      "hit": false,
      "t": 70010.41666666663,
      "d": 427.0833333333285,
      "v": 103
    },
    {
      "midi": 64,
      "hit": false,
      "t": 70010.41666666663,
      "d": 427.0833333333285,
      "v": 103
    },
    {
      "midi": 57,
      "hit": false,
      "t": 70442.70833333328,
      "d": 421.875,
      "v": 103
    },
    {
      "midi": 61,
      "hit": false,
      "t": 70442.70833333328,
      "d": 421.875,
      "v": 103
    },
    {
      "midi": 64,
      "hit": false,
      "t": 70442.70833333328,
      "d": 421.875,
      "v": 103
    },
    {
      "midi": 52,
      "hit": false,
      "t": 70442.70833333328,
      "d": 427.0833333333285,
      "v": 103
    },
    {
      "midi": 69,
      "hit": false,
      "t": 70447.91666666661,
      "d": 416.6666666666715,
      "v": 103
    },
    {
      "midi": 59,
      "hit": false,
      "t": 71734.37499999994,
      "d": 421.875,
      "v": 102
    },
    {
      "midi": 68,
      "hit": false,
      "t": 71734.37499999994,
      "d": 421.875,
      "v": 102
    },
    {
      "midi": 51,
      "hit": false,
      "t": 71734.37499999994,
      "d": 427.0833333333285,
      "v": 102
    },
    {
      "midi": 56,
      "hit": false,
      "t": 71734.37499999994,
      "d": 427.0833333333285,
      "v": 102
    },
    {
      "midi": 63,
      "hit": false,
      "t": 71739.58333333327,
      "d": 421.875,
      "v": 102
    },
    {
      "midi": 59,
      "hit": false,
      "t": 72166.6666666666,
      "d": 421.875,
      "v": 102
    },
    {
      "midi": 68,
      "hit": false,
      "t": 72166.6666666666,
      "d": 421.875,
      "v": 102
    },
    {
      "midi": 51,
      "hit": false,
      "t": 72166.6666666666,
      "d": 427.0833333333285,
      "v": 102
    },
    {
      "midi": 56,
      "hit": false,
      "t": 72166.6666666666,
      "d": 427.0833333333285,
      "v": 102
    },
    {
      "midi": 63,
      "hit": false,
      "t": 72166.6666666666,
      "d": 427.0833333333285,
      "v": 102
    },
    {
      "midi": 68,
      "hit": false,
      "t": 73458.33333333326,
      "d": 421.875,
      "v": 102
    },
    {
      "midi": 49,
      "hit": false,
      "t": 73458.33333333326,
      "d": 427.0833333333285,
      "v": 102
    },
    {
      "midi": 61,
      "hit": false,
      "t": 73458.33333333326,
      "d": 427.0833333333285,
      "v": 102
    },
    {
      "midi": 56,
      "hit": false,
      "t": 73458.33333333326,
      "d": 432.29166666665697,
      "v": 102
    },
    {
      "midi": 64,
      "hit": false,
      "t": 73473.95833333326,
      "d": 416.66666666665697,
      "v": 102
    },
    {
      "midi": 68,
      "hit": false,
      "t": 73895.83333333324,
      "d": 416.6666666666715,
      "v": 102
    },
    {
      "midi": 49,
      "hit": false,
      "t": 73895.83333333324,
      "d": 421.875,
      "v": 102
    },
    {
      "midi": 56,
      "hit": false,
      "t": 73895.83333333324,
      "d": 421.875,
      "v": 102
    },
    {
      "midi": 61,
      "hit": false,
      "t": 73895.83333333324,
      "d": 421.875,
      "v": 102
    },
    {
      "midi": 64,
      "hit": false,
      "t": 73895.83333333324,
      "d": 421.875,
      "v": 102
    },
    {
      "midi": 69,
      "hit": false,
      "t": 75187.49999999991,
      "d": 421.875,
      "v": 102
    },
    {
      "midi": 52,
      "hit": false,
      "t": 75187.49999999991,
      "d": 427.0833333333285,
      "v": 102
    },
    {
      "midi": 61,
      "hit": false,
      "t": 75187.49999999991,
      "d": 427.0833333333285,
      "v": 102
    },
    {
      "midi": 64,
      "hit": false,
      "t": 75187.49999999991,
      "d": 427.0833333333285,
      "v": 102
    },
    {
      "midi": 57,
      "hit": false,
      "t": 75192.70833333324,
      "d": 416.6666666666715,
      "v": 102
    },
    {
      "midi": 57,
      "hit": false,
      "t": 75619.79166666657,
      "d": 421.875,
      "v": 102
    },
    {
      "midi": 61,
      "hit": false,
      "t": 75619.79166666657,
      "d": 421.875,
      "v": 102
    },
    {
      "midi": 69,
      "hit": false,
      "t": 75619.79166666657,
      "d": 421.875,
      "v": 102
    },
    {
      "midi": 64,
      "hit": false,
      "t": 75619.79166666657,
      "d": 427.0833333333285,
      "v": 102
    },
    {
      "midi": 52,
      "hit": false,
      "t": 75624.9999999999,
      "d": 421.875,
      "v": 102
    },
    {
      "midi": 69,
      "hit": false,
      "t": 76906.2499999999,
      "d": 432.2916666666715,
      "v": 102
    },
    {
      "midi": 61,
      "hit": false,
      "t": 76916.66666666657,
      "d": 421.875,
      "v": 102
    },
    {
      "midi": 52,
      "hit": false,
      "t": 76916.66666666657,
      "d": 427.0833333333285,
      "v": 102
    },
    {
      "midi": 57,
      "hit": false,
      "t": 76916.66666666657,
      "d": 427.0833333333285,
      "v": 102
    },
    {
      "midi": 64,
      "hit": false,
      "t": 76916.66666666657,
      "d": 427.0833333333285,
      "v": 102
    },
    {
      "midi": 57,
      "hit": false,
      "t": 77348.95833333323,
      "d": 416.6666666666715,
      "v": 102
    },
    {
      "midi": 61,
      "hit": false,
      "t": 77348.95833333323,
      "d": 416.6666666666715,
      "v": 102
    },
    {
      "midi": 69,
      "hit": false,
      "t": 77348.95833333323,
      "d": 416.6666666666715,
      "v": 102
    },
    {
      "midi": 52,
      "hit": false,
      "t": 77348.95833333323,
      "d": 421.875,
      "v": 102
    },
    {
      "midi": 64,
      "hit": false,
      "t": 77348.95833333323,
      "d": 421.875,
      "v": 102
    },
    {
      "midi": 49,
      "hit": false,
      "t": 78635.41666666656,
      "d": 421.875,
      "v": 102
    },
    {
      "midi": 64,
      "hit": false,
      "t": 78635.41666666656,
      "d": 421.875,
      "v": 102
    },
    {
      "midi": 54,
      "hit": false,
      "t": 78635.41666666656,
      "d": 427.0833333333285,
      "v": 102
    },
    {
      "midi": 57,
      "hit": false,
      "t": 78651.04166666656,
      "d": 416.66666666665697,
      "v": 102
    },
    {
      "midi": 61,
      "hit": false,
      "t": 78651.04166666656,
      "d": 416.66666666665697,
      "v": 102
    },
    {
      "midi": 61,
      "hit": false,
      "t": 79072.91666666654,
      "d": 416.6666666666715,
      "v": 102
    },
    {
      "midi": 49,
      "hit": false,
      "t": 79072.91666666654,
      "d": 421.875,
      "v": 102
    },
    {
      "midi": 57,
      "hit": false,
      "t": 79072.91666666654,
      "d": 421.875,
      "v": 102
    },
    {
      "midi": 54,
      "hit": false,
      "t": 79072.91666666654,
      "d": 427.0833333333285,
      "v": 102
    },
    {
      "midi": 64,
      "hit": false,
      "t": 79072.91666666654,
      "d": 427.0833333333285,
      "v": 102
    },
    {
      "midi": 49,
      "hit": false,
      "t": 80359.37499999987,
      "d": 432.2916666666715,
      "v": 102
    },
    {
      "midi": 54,
      "hit": false,
      "t": 80369.79166666654,
      "d": 421.875,
      "v": 102
    },
    {
      "midi": 61,
      "hit": false,
      "t": 80369.79166666654,
      "d": 421.875,
      "v": 102
    },
    {
      "midi": 64,
      "hit": false,
      "t": 80369.79166666654,
      "d": 421.875,
      "v": 102
    },
    {
      "midi": 57,
      "hit": false,
      "t": 80369.79166666654,
      "d": 427.0833333333285,
      "v": 102
    },
    {
      "midi": 49,
      "hit": false,
      "t": 80796.87499999987,
      "d": 421.875,
      "v": 102
    },
    {
      "midi": 54,
      "hit": false,
      "t": 80796.87499999987,
      "d": 427.0833333333285,
      "v": 102
    },
    {
      "midi": 57,
      "hit": false,
      "t": 80802.0833333332,
      "d": 416.6666666666715,
      "v": 102
    },
    {
      "midi": 61,
      "hit": false,
      "t": 80802.0833333332,
      "d": 416.6666666666715,
      "v": 102
    },
    {
      "midi": 64,
      "hit": false,
      "t": 80802.0833333332,
      "d": 421.875,
      "v": 102
    },
    {
      "midi": 66,
      "hit": false,
      "t": 82088.54166666653,
      "d": 421.875,
      "v": 102
    },
    {
      "midi": 63,
      "hit": false,
      "t": 82088.54166666653,
      "d": 427.0833333333285,
      "v": 102
    },
    {
      "midi": 59,
      "hit": false,
      "t": 82093.74999999985,
      "d": 421.875,
      "v": 102
    },
    {
      "midi": 51,
      "hit": false,
      "t": 82093.74999999985,
      "d": 427.0833333333285,
      "v": 102
    },
    {
      "midi": 54,
      "hit": false,
      "t": 82093.74999999985,
      "d": 427.0833333333285,
      "v": 102
    },
    {
      "midi": 66,
      "hit": false,
      "t": 82526.04166666651,
      "d": 416.66666666665697,
      "v": 102
    },
    {
      "midi": 54,
      "hit": false,
      "t": 82526.04166666651,
      "d": 421.87499999998545,
      "v": 102
    },
    {
      "midi": 59,
      "hit": false,
      "t": 82526.04166666651,
      "d": 421.87499999998545,
      "v": 102
    },
    {
      "midi": 51,
      "hit": false,
      "t": 82526.04166666651,
      "d": 427.08333333331393,
      "v": 102
    },
    {
      "midi": 63,
      "hit": false,
      "t": 82531.24999999984,
      "d": 421.87499999998545,
      "v": 102
    },
    {
      "midi": 54,
      "hit": false,
      "t": 83817.70833333315,
      "d": 421.875,
      "v": 102
    },
    {
      "midi": 66,
      "hit": false,
      "t": 83817.70833333315,
      "d": 421.875,
      "v": 102
    },
    {
      "midi": 51,
      "hit": false,
      "t": 83817.70833333315,
      "d": 427.0833333333285,
      "v": 102
    },
    {
      "midi": 63,
      "hit": false,
      "t": 83817.70833333315,
      "d": 427.0833333333285,
      "v": 102
    },
    {
      "midi": 59,
      "hit": false,
      "t": 83822.91666666648,
      "d": 421.875,
      "v": 102
    },
    {
      "midi": 66,
      "hit": false,
      "t": 84249.99999999981,
      "d": 421.875,
      "v": 102
    },
    {
      "midi": 51,
      "hit": false,
      "t": 84249.99999999981,
      "d": 427.0833333333285,
      "v": 102
    },
    {
      "midi": 63,
      "hit": false,
      "t": 84249.99999999981,
      "d": 427.0833333333285,
      "v": 102
    },
    {
      "midi": 54,
      "hit": false,
      "t": 84255.20833333314,
      "d": 421.875,
      "v": 102
    },
    {
      "midi": 59,
      "hit": false,
      "t": 84255.20833333314,
      "d": 421.875,
      "v": 102
    },
    {
      "midi": 51,
      "hit": false,
      "t": 85541.66666666647,
      "d": 1072.9166666666715,
      "v": 102
    },
    {
      "midi": 66,
      "hit": false,
      "t": 85541.66666666647,
      "d": 1286.4583333333285,
      "v": 102
    },
    {
      "midi": 54,
      "hit": false,
      "t": 85552.08333333314,
      "d": 1057.2916666666715,
      "v": 102
    },
    {
      "midi": 63,
      "hit": false,
      "t": 85557.29166666647,
      "d": 947.9166666666715,
      "v": 102
    },
    {
      "midi": 59,
      "hit": false,
      "t": 85557.29166666647,
      "d": 1062.5,
      "v": 102
    },
    {
      "midi": 40,
      "hit": false,
      "t": 90729.16666666647,
      "d": 416.6666666666715,
      "v": 125
    },
    {
      "midi": 47,
      "hit": false,
      "t": 90729.16666666647,
      "d": 2140.6250000000146,
      "v": 125
    },
    {
      "midi": 68,
      "hit": false,
      "t": 90729.16666666647,
      "d": 6890.625000000015,
      "v": 125
    },
    {
      "midi": 64,
      "hit": false,
      "t": 90729.16666666647,
      "d": 6901.041666666686,
      "v": 125
    },
    {
      "midi": 54,
      "hit": false,
      "t": 91156.24999999981,
      "d": 421.875,
      "v": 125
    },
    {
      "midi": 56,
      "hit": false,
      "t": 91588.54166666648,
      "d": 2468.75,
      "v": 126
    },
    {
      "midi": 59,
      "hit": false,
      "t": 92010.41666666648,
      "d": 2692.7083333333285,
      "v": 94
    },
    {
      "midi": 64,
      "hit": false,
      "t": 97635.41666666648,
      "d": 1604.166666666657,
      "v": 99
    },
    {
      "midi": 48,
      "hit": false,
      "t": 97635.41666666648,
      "d": 1713.541666666657,
      "v": 99
    },
    {
      "midi": 54,
      "hit": false,
      "t": 98062.49999999981,
      "d": 1291.666666666657,
      "v": 99
    },
    {
      "midi": 57,
      "hit": false,
      "t": 98499.99999999981,
      "d": 843.75,
      "v": 99
    },
    {
      "midi": 63,
      "hit": false,
      "t": 99354.16666666647,
      "d": 1500,
      "v": 101
    },
    {
      "midi": 59,
      "hit": false,
      "t": 99354.16666666647,
      "d": 1614.5833333333285,
      "v": 101
    },
    {
      "midi": 66,
      "hit": false,
      "t": 99354.16666666647,
      "d": 1614.5833333333285,
      "v": 101
    },
    {
      "midi": 51,
      "hit": false,
      "t": 99359.3749999998,
      "d": 1604.1666666666715,
      "v": 101
    },
    {
      "midi": 54,
      "hit": false,
      "t": 99359.3749999998,
      "d": 1604.1666666666715,
      "v": 101
    },
    {
      "midi": 47,
      "hit": false,
      "t": 99359.3749999998,
      "d": 1609.375,
      "v": 101
    },
    {
      "midi": 40,
      "hit": false,
      "t": 104526.04166666647,
      "d": 427.0833333333285,
      "v": 100
    },
    {
      "midi": 54,
      "hit": false,
      "t": 104968.7499999998,
      "d": 421.875,
      "v": 100
    },
    {
      "midi": 56,
      "hit": false,
      "t": 105395.83333333312,
      "d": 2473.9583333333285,
      "v": 100
    },
    {
      "midi": 48,
      "hit": false,
      "t": 107984.37499999978,
      "d": 421.875,
      "v": 100
    },
    {
      "midi": 54,
      "hit": false,
      "t": 108416.66666666645,
      "d": 427.0833333333285,
      "v": 100
    },
    {
      "midi": 57,
      "hit": false,
      "t": 108848.95833333311,
      "d": 2041.6666666666715,
      "v": 100
    },
    {
      "midi": 51,
      "hit": false,
      "t": 111437.49999999978,
      "d": 421.875,
      "v": 100
    },
    {
      "midi": 56,
      "hit": false,
      "t": 111869.79166666645,
      "d": 427.0833333333285,
      "v": 100
    },
    {
      "midi": 59,
      "hit": false,
      "t": 112296.87499999978,
      "d": 2151.0416666666715,
      "v": 100
    },
    {
      "midi": 52,
      "hit": false,
      "t": 114890.62499999978,
      "d": 421.875,
      "v": 100
    },
    {
      "midi": 57,
      "hit": false,
      "t": 115328.12499999978,
      "d": 416.6666666666715,
      "v": 100
    },
    {
      "midi": 59,
      "hit": false,
      "t": 115755.20833333312,
      "d": 1932.2916666666715,
      "v": 100
    },
    {
      "midi": 52,
      "hit": false,
      "t": 118343.7499999998,
      "d": 421.875,
      "v": 100
    },
    {
      "midi": 57,
      "hit": false,
      "t": 118776.04166666647,
      "d": 421.875,
      "v": 100
    },
    {
      "midi": 59,
      "hit": false,
      "t": 119203.1249999998,
      "d": 1937.5,
      "v": 100
    },
    {
      "midi": 59,
      "hit": false,
      "t": 121796.8749999998,
      "d": 3010.4166666666715,
      "v": 84
    },
    {
      "midi": 63,
      "hit": false,
      "t": 121796.8749999998,
      "d": 3015.625,
      "v": 84
    },
    {
      "midi": 54,
      "hit": false,
      "t": 121796.8749999998,
      "d": 3020.8333333333285,
      "v": 84
    },
    {
      "midi": 66,
      "hit": false,
      "t": 121796.8749999998,
      "d": 3020.8333333333285,
      "v": 84
    },
    {
      "midi": 59,
      "hit": false,
      "t": 126973.95833333312,
      "d": 421.875,
      "v": 105
    },
    {
      "midi": 71,
      "hit": false,
      "t": 126973.95833333312,
      "d": 432.29166666665697,
      "v": 105
    },
    {
      "midi": 64,
      "hit": false,
      "t": 126984.3749999998,
      "d": 416.66666666665697,
      "v": 105
    },
    {
      "midi": 68,
      "hit": false,
      "t": 126984.3749999998,
      "d": 421.87499999998545,
      "v": 105
    },
    {
      "midi": 59,
      "hit": false,
      "t": 127411.45833333311,
      "d": 416.66666666665697,
      "v": 103
    },
    {
      "midi": 68,
      "hit": false,
      "t": 127411.45833333311,
      "d": 416.66666666665697,
      "v": 103
    },
    {
      "midi": 71,
      "hit": false,
      "t": 127411.45833333311,
      "d": 421.87499999998545,
      "v": 103
    },
    {
      "midi": 64,
      "hit": false,
      "t": 127416.66666666644,
      "d": 416.66666666665697,
      "v": 103
    },
    {
      "midi": 71,
      "hit": false,
      "t": 128697.91666666642,
      "d": 427.08333333334303,
      "v": 105
    },
    {
      "midi": 59,
      "hit": false,
      "t": 128697.91666666642,
      "d": 432.2916666666715,
      "v": 105
    },
    {
      "midi": 68,
      "hit": false,
      "t": 128708.3333333331,
      "d": 416.6666666666715,
      "v": 105
    },
    {
      "midi": 64,
      "hit": false,
      "t": 128708.3333333331,
      "d": 421.875,
      "v": 105
    },
    {
      "midi": 71,
      "hit": false,
      "t": 129135.41666666642,
      "d": 416.66666666665697,
      "v": 103
    },
    {
      "midi": 59,
      "hit": false,
      "t": 129135.41666666642,
      "d": 421.87499999998545,
      "v": 103
    },
    {
      "midi": 68,
      "hit": false,
      "t": 129135.41666666642,
      "d": 427.08333333331393,
      "v": 103
    },
    {
      "midi": 64,
      "hit": false,
      "t": 129140.62499999975,
      "d": 416.66666666665697,
      "v": 103
    },
    {
      "midi": 54,
      "hit": false,
      "t": 130432.29166666641,
      "d": 421.875,
      "v": 103
    },
    {
      "midi": 69,
      "hit": false,
      "t": 130432.29166666641,
      "d": 421.875,
      "v": 100
    },
    {
      "midi": 57,
      "hit": false,
      "t": 130432.29166666641,
      "d": 427.0833333333285,
      "v": 100
    },
    {
      "midi": 61,
      "hit": false,
      "t": 130432.29166666641,
      "d": 427.0833333333285,
      "v": 100
    },
    {
      "midi": 66,
      "hit": false,
      "t": 130432.29166666641,
      "d": 427.0833333333285,
      "v": 100
    },
    {
      "midi": 54,
      "hit": false,
      "t": 130864.58333333307,
      "d": 421.87499999998545,
      "v": 103
    },
    {
      "midi": 57,
      "hit": false,
      "t": 130864.58333333307,
      "d": 421.87499999998545,
      "v": 103
    },
    {
      "midi": 66,
      "hit": false,
      "t": 130864.58333333307,
      "d": 427.0833333333285,
      "v": 103
    },
    {
      "midi": 69,
      "hit": false,
      "t": 130864.58333333307,
      "d": 427.0833333333285,
      "v": 103
    },
    {
      "midi": 61,
      "hit": false,
      "t": 130869.7916666664,
      "d": 421.875,
      "v": 103
    },
    {
      "midi": 54,
      "hit": false,
      "t": 132151.0416666664,
      "d": 427.08333333331393,
      "v": 103
    },
    {
      "midi": 57,
      "hit": false,
      "t": 132151.0416666664,
      "d": 427.08333333331393,
      "v": 103
    },
    {
      "midi": 69,
      "hit": false,
      "t": 132161.45833333305,
      "d": 416.66666666665697,
      "v": 103
    },
    {
      "midi": 61,
      "hit": false,
      "t": 132161.45833333305,
      "d": 421.875,
      "v": 103
    },
    {
      "midi": 66,
      "hit": false,
      "t": 132161.45833333305,
      "d": 421.875,
      "v": 103
    },
    {
      "midi": 54,
      "hit": false,
      "t": 132588.5416666664,
      "d": 416.66666666668607,
      "v": 103
    },
    {
      "midi": 57,
      "hit": false,
      "t": 132588.5416666664,
      "d": 421.8750000000291,
      "v": 103
    },
    {
      "midi": 66,
      "hit": false,
      "t": 132588.5416666664,
      "d": 421.8750000000291,
      "v": 103
    },
    {
      "midi": 61,
      "hit": false,
      "t": 132588.5416666664,
      "d": 427.08333333337214,
      "v": 103
    },
    {
      "midi": 69,
      "hit": false,
      "t": 132593.74999999974,
      "d": 416.66666666668607,
      "v": 103
    },
    {
      "midi": 52,
      "hit": false,
      "t": 133885.41666666642,
      "d": 421.8750000000291,
      "v": 103
    },
    {
      "midi": 57,
      "hit": false,
      "t": 133885.41666666642,
      "d": 421.8750000000291,
      "v": 103
    },
    {
      "midi": 64,
      "hit": false,
      "t": 133885.41666666642,
      "d": 421.8750000000291,
      "v": 103
    },
    {
      "midi": 61,
      "hit": false,
      "t": 133885.41666666642,
      "d": 427.08333333337214,
      "v": 103
    },
    {
      "midi": 69,
      "hit": false,
      "t": 133890.62499999977,
      "d": 411.45833333334303,
      "v": 103
    },
    {
      "midi": 52,
      "hit": false,
      "t": 134317.70833333314,
      "d": 416.66666666665697,
      "v": 103
    },
    {
      "midi": 57,
      "hit": false,
      "t": 134317.70833333314,
      "d": 416.66666666665697,
      "v": 103
    },
    {
      "midi": 69,
      "hit": false,
      "t": 134317.70833333314,
      "d": 416.66666666665697,
      "v": 103
    },
    {
      "midi": 61,
      "hit": false,
      "t": 134317.70833333314,
      "d": 421.875,
      "v": 103
    },
    {
      "midi": 64,
      "hit": false,
      "t": 134317.70833333314,
      "d": 421.875,
      "v": 103
    },
    {
      "midi": 52,
      "hit": false,
      "t": 135609.3749999998,
      "d": 421.875,
      "v": 103
    },
    {
      "midi": 57,
      "hit": false,
      "t": 135609.3749999998,
      "d": 421.875,
      "v": 103
    },
    {
      "midi": 61,
      "hit": false,
      "t": 135609.3749999998,
      "d": 421.875,
      "v": 103
    },
    {
      "midi": 69,
      "hit": false,
      "t": 135609.3749999998,
      "d": 421.875,
      "v": 103
    },
    {
      "midi": 64,
      "hit": false,
      "t": 135609.3749999998,
      "d": 427.08333333334303,
      "v": 103
    },
    {
      "midi": 52,
      "hit": false,
      "t": 136041.66666666648,
      "d": 421.875,
      "v": 103
    },
    {
      "midi": 57,
      "hit": false,
      "t": 136041.66666666648,
      "d": 421.875,
      "v": 103
    },
    {
      "midi": 69,
      "hit": false,
      "t": 136041.66666666648,
      "d": 421.875,
      "v": 103
    },
    {
      "midi": 61,
      "hit": false,
      "t": 136041.66666666648,
      "d": 427.08333333334303,
      "v": 103
    },
    {
      "midi": 64,
      "hit": false,
      "t": 136041.66666666648,
      "d": 427.08333333334303,
      "v": 103
    },
    {
      "midi": 68,
      "hit": false,
      "t": 137333.33333333317,
      "d": 421.875,
      "v": 102
    },
    {
      "midi": 51,
      "hit": false,
      "t": 137333.33333333317,
      "d": 427.08333333334303,
      "v": 102
    },
    {
      "midi": 63,
      "hit": false,
      "t": 137338.5416666665,
      "d": 416.66666666665697,
      "v": 102
    },
    {
      "midi": 56,
      "hit": false,
      "t": 137338.5416666665,
      "d": 427.08333333334303,
      "v": 102
    },
    {
      "midi": 59,
      "hit": false,
      "t": 137338.5416666665,
      "d": 427.08333333334303,
      "v": 102
    },
    {
      "midi": 68,
      "hit": false,
      "t": 137765.62499999985,
      "d": 427.08333333334303,
      "v": 102
    },
    {
      "midi": 51,
      "hit": false,
      "t": 137770.8333333332,
      "d": 421.875,
      "v": 102
    },
    {
      "midi": 56,
      "hit": false,
      "t": 137770.8333333332,
      "d": 421.875,
      "v": 102
    },
    {
      "midi": 59,
      "hit": false,
      "t": 137770.8333333332,
      "d": 421.875,
      "v": 102
    },
    {
      "midi": 63,
      "hit": false,
      "t": 137770.8333333332,
      "d": 421.875,
      "v": 102
    },
    {
      "midi": 68,
      "hit": false,
      "t": 139057.29166666654,
      "d": 427.08333333334303,
      "v": 102
    },
    {
      "midi": 49,
      "hit": false,
      "t": 139062.49999999988,
      "d": 421.875,
      "v": 102
    },
    {
      "midi": 56,
      "hit": false,
      "t": 139062.49999999988,
      "d": 421.875,
      "v": 102
    },
    {
      "midi": 61,
      "hit": false,
      "t": 139062.49999999988,
      "d": 421.875,
      "v": 102
    },
    {
      "midi": 64,
      "hit": false,
      "t": 139062.49999999988,
      "d": 427.08333333334303,
      "v": 102
    },
    {
      "midi": 68,
      "hit": false,
      "t": 139489.58333333323,
      "d": 421.875,
      "v": 102
    },
    {
      "midi": 61,
      "hit": false,
      "t": 139494.79166666657,
      "d": 416.66666666665697,
      "v": 102
    },
    {
      "midi": 56,
      "hit": false,
      "t": 139494.79166666657,
      "d": 421.875,
      "v": 102
    },
    {
      "midi": 64,
      "hit": false,
      "t": 139494.79166666657,
      "d": 421.875,
      "v": 102
    },
    {
      "midi": 49,
      "hit": false,
      "t": 139494.79166666657,
      "d": 427.08333333334303,
      "v": 102
    },
    {
      "midi": 69,
      "hit": false,
      "t": 140786.45833333326,
      "d": 421.875,
      "v": 102
    },
    {
      "midi": 57,
      "hit": false,
      "t": 140791.6666666666,
      "d": 416.66666666665697,
      "v": 102
    },
    {
      "midi": 52,
      "hit": false,
      "t": 140791.6666666666,
      "d": 421.875,
      "v": 102
    },
    {
      "midi": 61,
      "hit": false,
      "t": 140791.6666666666,
      "d": 427.08333333334303,
      "v": 102
    },
    {
      "midi": 64,
      "hit": false,
      "t": 140791.6666666666,
      "d": 427.08333333334303,
      "v": 102
    },
    {
      "midi": 69,
      "hit": false,
      "t": 141223.95833333328,
      "d": 416.66666666665697,
      "v": 102
    },
    {
      "midi": 57,
      "hit": false,
      "t": 141223.95833333328,
      "d": 421.875,
      "v": 102
    },
    {
      "midi": 61,
      "hit": false,
      "t": 141223.95833333328,
      "d": 421.875,
      "v": 102
    },
    {
      "midi": 64,
      "hit": false,
      "t": 141223.95833333328,
      "d": 421.875,
      "v": 102
    },
    {
      "midi": 52,
      "hit": false,
      "t": 141223.95833333328,
      "d": 427.08333333334303,
      "v": 102
    },
    {
      "midi": 52,
      "hit": false,
      "t": 142510.41666666663,
      "d": 427.08333333334303,
      "v": 102
    },
    {
      "midi": 64,
      "hit": false,
      "t": 142510.41666666663,
      "d": 427.08333333334303,
      "v": 102
    },
    {
      "midi": 69,
      "hit": false,
      "t": 142510.41666666663,
      "d": 427.08333333334303,
      "v": 102
    },
    {
      "midi": 61,
      "hit": false,
      "t": 142526.04166666663,
      "d": 411.45833333334303,
      "v": 102
    },
    {
      "midi": 57,
      "hit": false,
      "t": 142526.04166666663,
      "d": 421.875,
      "v": 102
    },
    {
      "midi": 52,
      "hit": false,
      "t": 142947.91666666663,
      "d": 421.875,
      "v": 102
    },
    {
      "midi": 69,
      "hit": false,
      "t": 142947.91666666663,
      "d": 421.875,
      "v": 102
    },
    {
      "midi": 57,
      "hit": false,
      "t": 142953.12499999997,
      "d": 416.66666666665697,
      "v": 102
    },
    {
      "midi": 61,
      "hit": false,
      "t": 142953.12499999997,
      "d": 416.66666666665697,
      "v": 102
    },
    {
      "midi": 64,
      "hit": false,
      "t": 142953.12499999997,
      "d": 416.66666666665697,
      "v": 102
    },
    {
      "midi": 49,
      "hit": false,
      "t": 144234.37499999997,
      "d": 427.08333333334303,
      "v": 102
    },
    {
      "midi": 54,
      "hit": false,
      "t": 144234.37499999997,
      "d": 432.29166666668607,
      "v": 102
    },
    {
      "midi": 64,
      "hit": false,
      "t": 144244.79166666663,
      "d": 416.66666666668607,
      "v": 102
    },
    {
      "midi": 61,
      "hit": false,
      "t": 144244.79166666663,
      "d": 421.8750000000291,
      "v": 102
    },
    {
      "midi": 57,
      "hit": false,
      "t": 144249.99999999997,
      "d": 416.66666666668607,
      "v": 102
    },
    {
      "midi": 49,
      "hit": false,
      "t": 144671.875,
      "d": 421.875,
      "v": 102
    },
    {
      "midi": 54,
      "hit": false,
      "t": 144671.875,
      "d": 427.08333333334303,
      "v": 102
    },
    {
      "midi": 57,
      "hit": false,
      "t": 144671.875,
      "d": 427.08333333334303,
      "v": 102
    },
    {
      "midi": 61,
      "hit": false,
      "t": 144677.08333333334,
      "d": 421.875,
      "v": 102
    },
    {
      "midi": 64,
      "hit": false,
      "t": 144677.08333333334,
      "d": 421.875,
      "v": 102
    },
    {
      "midi": 49,
      "hit": false,
      "t": 145963.5416666667,
      "d": 427.08333333334303,
      "v": 102
    },
    {
      "midi": 54,
      "hit": false,
      "t": 145963.5416666667,
      "d": 432.29166666668607,
      "v": 102
    },
    {
      "midi": 61,
      "hit": false,
      "t": 145973.95833333334,
      "d": 416.66666666668607,
      "v": 102
    },
    {
      "midi": 64,
      "hit": false,
      "t": 145973.95833333334,
      "d": 416.66666666668607,
      "v": 102
    },
    {
      "midi": 57,
      "hit": false,
      "t": 145979.1666666667,
      "d": 416.66666666668607,
      "v": 102
    },
    {
      "midi": 49,
      "hit": false,
      "t": 146401.04166666672,
      "d": 416.66666666668607,
      "v": 102
    },
    {
      "midi": 54,
      "hit": false,
      "t": 146401.04166666672,
      "d": 421.8750000000291,
      "v": 102
    },
    {
      "midi": 57,
      "hit": false,
      "t": 146401.04166666672,
      "d": 421.8750000000291,
      "v": 102
    },
    {
      "midi": 61,
      "hit": false,
      "t": 146401.04166666672,
      "d": 421.8750000000291,
      "v": 102
    },
    {
      "midi": 64,
      "hit": false,
      "t": 146406.25000000006,
      "d": 416.66666666668607,
      "v": 102
    },
    {
      "midi": 66,
      "hit": false,
      "t": 147687.5000000001,
      "d": 432.29166666668607,
      "v": 102
    },
    {
      "midi": 59,
      "hit": false,
      "t": 147692.70833333343,
      "d": 421.875,
      "v": 102
    },
    {
      "midi": 63,
      "hit": false,
      "t": 147692.70833333343,
      "d": 421.875,
      "v": 102
    },
    {
      "midi": 51,
      "hit": false,
      "t": 147692.70833333343,
      "d": 432.29166666668607,
      "v": 102
    },
    {
      "midi": 54,
      "hit": false,
      "t": 147692.70833333343,
      "d": 432.29166666668607,
      "v": 102
    },
    {
      "midi": 51,
      "hit": false,
      "t": 148125.00000000012,
      "d": 421.875,
      "v": 102
    },
    {
      "midi": 66,
      "hit": false,
      "t": 148125.00000000012,
      "d": 427.08333333334303,
      "v": 102
    },
    {
      "midi": 54,
      "hit": false,
      "t": 148130.20833333346,
      "d": 416.66666666665697,
      "v": 102
    },
    {
      "midi": 59,
      "hit": false,
      "t": 148130.20833333346,
      "d": 421.875,
      "v": 102
    },
    {
      "midi": 63,
      "hit": false,
      "t": 148130.20833333346,
      "d": 421.875,
      "v": 102
    },
    {
      "midi": 66,
      "hit": false,
      "t": 149416.6666666668,
      "d": 427.08333333337214,
      "v": 102
    },
    {
      "midi": 51,
      "hit": false,
      "t": 149421.87500000015,
      "d": 427.08333333337214,
      "v": 102
    },
    {
      "midi": 63,
      "hit": false,
      "t": 149421.87500000015,
      "d": 427.08333333337214,
      "v": 102
    },
    {
      "midi": 54,
      "hit": false,
      "t": 149427.0833333335,
      "d": 411.45833333334303,
      "v": 102
    },
    {
      "midi": 59,
      "hit": false,
      "t": 149427.0833333335,
      "d": 421.8750000000291,
      "v": 102
    },
    {
      "midi": 63,
      "hit": false,
      "t": 149854.16666666686,
      "d": 416.66666666665697,
      "v": 102
    },
    {
      "midi": 51,
      "hit": false,
      "t": 149854.16666666686,
      "d": 421.875,
      "v": 102
    },
    {
      "midi": 54,
      "hit": false,
      "t": 149854.16666666686,
      "d": 421.875,
      "v": 102
    },
    {
      "midi": 66,
      "hit": false,
      "t": 149854.16666666686,
      "d": 421.875,
      "v": 102
    },
    {
      "midi": 59,
      "hit": false,
      "t": 149854.16666666686,
      "d": 427.08333333334303,
      "v": 102
    },
    {
      "midi": 54,
      "hit": false,
      "t": 151145.83333333355,
      "d": 1067.708333333343,
      "v": 102
    },
    {
      "midi": 51,
      "hit": false,
      "t": 151145.83333333355,
      "d": 1072.916666666686,
      "v": 102
    },
    {
      "midi": 59,
      "hit": false,
      "t": 151145.83333333355,
      "d": 1078.125000000029,
      "v": 102
    },
    {
      "midi": 66,
      "hit": false,
      "t": 151145.83333333355,
      "d": 1281.250000000029,
      "v": 102
    },
    {
      "midi": 63,
      "hit": false,
      "t": 151151.0416666669,
      "d": 953.125,
      "v": 102
    },
    {
      "midi": 58,
      "hit": false,
      "t": 152869.79166666692,
      "d": 427.08333333334303,
      "v": 105
    },
    {
      "midi": 54,
      "hit": false,
      "t": 152869.79166666692,
      "d": 432.29166666668607,
      "v": 105
    },
    {
      "midi": 66,
      "hit": false,
      "t": 152869.79166666692,
      "d": 432.29166666668607,
      "v": 105
    },
    {
      "midi": 61,
      "hit": false,
      "t": 152885.41666666692,
      "d": 416.66666666668607,
      "v": 105
    },
    {
      "midi": 54,
      "hit": false,
      "t": 153302.0833333336,
      "d": 427.08333333334303,
      "v": 103
    },
    {
      "midi": 58,
      "hit": false,
      "t": 153307.29166666695,
      "d": 416.66666666665697,
      "v": 103
    },
    {
      "midi": 61,
      "hit": false,
      "t": 153307.29166666695,
      "d": 416.66666666665697,
      "v": 103
    },
    {
      "midi": 66,
      "hit": false,
      "t": 153307.29166666695,
      "d": 421.875,
      "v": 103
    },
    {
      "midi": 66,
      "hit": false,
      "t": 154593.7500000003,
      "d": 427.08333333334303,
      "v": 105
    },
    {
      "midi": 61,
      "hit": false,
      "t": 154593.7500000003,
      "d": 432.29166666668607,
      "v": 105
    },
    {
      "midi": 58,
      "hit": false,
      "t": 154609.3750000003,
      "d": 416.66666666668607,
      "v": 105
    },
    {
      "midi": 54,
      "hit": false,
      "t": 154609.3750000003,
      "d": 421.8750000000291,
      "v": 105
    },
    {
      "midi": 66,
      "hit": false,
      "t": 155036.45833333366,
      "d": 411.45833333334303,
      "v": 103
    },
    {
      "midi": 58,
      "hit": false,
      "t": 155036.45833333366,
      "d": 416.66666666668607,
      "v": 103
    },
    {
      "midi": 61,
      "hit": false,
      "t": 155036.45833333366,
      "d": 416.66666666668607,
      "v": 103
    },
    {
      "midi": 54,
      "hit": false,
      "t": 155036.45833333366,
      "d": 520.833333333343,
      "v": 103
    },
    {
      "midi": 56,
      "hit": false,
      "t": 156322.916666667,
      "d": 427.08333333334303,
      "v": 100
    },
    {
      "midi": 68,
      "hit": false,
      "t": 156328.12500000035,
      "d": 416.66666666665697,
      "v": 100
    },
    {
      "midi": 59,
      "hit": false,
      "t": 156328.12500000035,
      "d": 421.875,
      "v": 100
    },
    {
      "midi": 63,
      "hit": false,
      "t": 156328.12500000035,
      "d": 421.875,
      "v": 100
    },
    {
      "midi": 56,
      "hit": false,
      "t": 156755.2083333337,
      "d": 421.875,
      "v": 103
    },
    {
      "midi": 59,
      "hit": false,
      "t": 156755.2083333337,
      "d": 421.875,
      "v": 103
    },
    {
      "midi": 63,
      "hit": false,
      "t": 156755.2083333337,
      "d": 427.08333333334303,
      "v": 103
    },
    {
      "midi": 68,
      "hit": false,
      "t": 156755.2083333337,
      "d": 427.08333333334303,
      "v": 103
    },
    {
      "midi": 56,
      "hit": false,
      "t": 158046.87500000038,
      "d": 427.08333333334303,
      "v": 100
    },
    {
      "midi": 59,
      "hit": false,
      "t": 158046.87500000038,
      "d": 432.29166666668607,
      "v": 100
    },
    {
      "midi": 63,
      "hit": false,
      "t": 158046.87500000038,
      "d": 432.29166666668607,
      "v": 100
    },
    {
      "midi": 68,
      "hit": false,
      "t": 158062.50000000038,
      "d": 416.66666666668607,
      "v": 100
    },
    {
      "midi": 68,
      "hit": false,
      "t": 158484.3750000004,
      "d": 416.66666666665697,
      "v": 100
    },
    {
      "midi": 59,
      "hit": false,
      "t": 158484.3750000004,
      "d": 421.875,
      "v": 100
    },
    {
      "midi": 63,
      "hit": false,
      "t": 158484.3750000004,
      "d": 421.875,
      "v": 100
    },
    {
      "midi": 56,
      "hit": false,
      "t": 158484.3750000004,
      "d": 427.08333333334303,
      "v": 100
    },
    {
      "midi": 66,
      "hit": false,
      "t": 159776.0416666671,
      "d": 421.875,
      "v": 100
    },
    {
      "midi": 54,
      "hit": false,
      "t": 159776.0416666671,
      "d": 427.08333333334303,
      "v": 100
    },
    {
      "midi": 59,
      "hit": false,
      "t": 159776.0416666671,
      "d": 427.08333333334303,
      "v": 100
    },
    {
      "midi": 63,
      "hit": false,
      "t": 159776.0416666671,
      "d": 427.08333333334303,
      "v": 100
    },
    {
      "midi": 54,
      "hit": false,
      "t": 160208.33333333378,
      "d": 421.875,
      "v": 100
    },
    {
      "midi": 59,
      "hit": false,
      "t": 160208.33333333378,
      "d": 421.875,
      "v": 100
    },
    {
      "midi": 66,
      "hit": false,
      "t": 160208.33333333378,
      "d": 421.875,
      "v": 100
    },
    {
      "midi": 63,
      "hit": false,
      "t": 160208.33333333378,
      "d": 427.08333333334303,
      "v": 100
    },
    {
      "midi": 54,
      "hit": false,
      "t": 161500.00000000047,
      "d": 427.08333333334303,
      "v": 100
    },
    {
      "midi": 59,
      "hit": false,
      "t": 161500.00000000047,
      "d": 427.08333333334303,
      "v": 100
    },
    {
      "midi": 63,
      "hit": false,
      "t": 161515.62500000047,
      "d": 411.45833333334303,
      "v": 100
    },
    {
      "midi": 66,
      "hit": false,
      "t": 161515.62500000047,
      "d": 411.45833333334303,
      "v": 100
    },
    {
      "midi": 54,
      "hit": false,
      "t": 161937.50000000047,
      "d": 416.66666666665697,
      "v": 100
    },
    {
      "midi": 66,
      "hit": false,
      "t": 161937.50000000047,
      "d": 416.66666666665697,
      "v": 100
    },
    {
      "midi": 59,
      "hit": false,
      "t": 161937.50000000047,
      "d": 421.875,
      "v": 100
    },
    {
      "midi": 63,
      "hit": false,
      "t": 161937.50000000047,
      "d": 421.875,
      "v": 100
    },
    {
      "midi": 66,
      "hit": false,
      "t": 163229.16666666712,
      "d": 421.875,
      "v": 100
    },
    {
      "midi": 54,
      "hit": false,
      "t": 163234.37500000047,
      "d": 421.875,
      "v": 100
    },
    {
      "midi": 58,
      "hit": false,
      "t": 163234.37500000047,
      "d": 421.875,
      "v": 100
    },
    {
      "midi": 61,
      "hit": false,
      "t": 163234.37500000047,
      "d": 421.875,
      "v": 100
    },
    {
      "midi": 54,
      "hit": false,
      "t": 163661.4583333338,
      "d": 421.875,
      "v": 100
    },
    {
      "midi": 58,
      "hit": false,
      "t": 163661.4583333338,
      "d": 421.875,
      "v": 100
    },
    {
      "midi": 61,
      "hit": false,
      "t": 163661.4583333338,
      "d": 427.08333333334303,
      "v": 100
    },
    {
      "midi": 66,
      "hit": false,
      "t": 163661.4583333338,
      "d": 427.08333333334303,
      "v": 100
    },
    {
      "midi": 54,
      "hit": false,
      "t": 164953.1250000005,
      "d": 427.08333333334303,
      "v": 100
    },
    {
      "midi": 61,
      "hit": false,
      "t": 164958.33333333384,
      "d": 421.875,
      "v": 100
    },
    {
      "midi": 58,
      "hit": false,
      "t": 164958.33333333384,
      "d": 427.08333333334303,
      "v": 100
    },
    {
      "midi": 66,
      "hit": false,
      "t": 164958.33333333384,
      "d": 427.08333333334303,
      "v": 100
    },
    {
      "midi": 54,
      "hit": false,
      "t": 165390.62500000052,
      "d": 416.66666666665697,
      "v": 100
    },
    {
      "midi": 66,
      "hit": false,
      "t": 165390.62500000052,
      "d": 416.66666666665697,
      "v": 100
    },
    {
      "midi": 58,
      "hit": false,
      "t": 165390.62500000052,
      "d": 421.875,
      "v": 100
    },
    {
      "midi": 61,
      "hit": false,
      "t": 165390.62500000052,
      "d": 421.875,
      "v": 100
    },
    {
      "midi": 54,
      "hit": false,
      "t": 166677.08333333387,
      "d": 437.5000000000291,
      "v": 100
    },
    {
      "midi": 58,
      "hit": false,
      "t": 166682.2916666672,
      "d": 427.08333333334303,
      "v": 100
    },
    {
      "midi": 61,
      "hit": false,
      "t": 166687.50000000055,
      "d": 416.66666666665697,
      "v": 100
    },
    {
      "midi": 66,
      "hit": false,
      "t": 166687.50000000055,
      "d": 416.66666666665697,
      "v": 100
    },
    {
      "midi": 54,
      "hit": false,
      "t": 167114.5833333339,
      "d": 421.875,
      "v": 100
    },
    {
      "midi": 58,
      "hit": false,
      "t": 167119.79166666724,
      "d": 416.66666666665697,
      "v": 100
    },
    {
      "midi": 61,
      "hit": false,
      "t": 167119.79166666724,
      "d": 416.66666666665697,
      "v": 100
    },
    {
      "midi": 66,
      "hit": false,
      "t": 167119.79166666724,
      "d": 416.66666666665697,
      "v": 100
    },
    {
      "midi": 54,
      "hit": false,
      "t": 168406.25000000055,
      "d": 427.08333333331393,
      "v": 100
    },
    {
      "midi": 58,
      "hit": false,
      "t": 168416.6666666672,
      "d": 416.66666666665697,
      "v": 100
    },
    {
      "midi": 66,
      "hit": false,
      "t": 168416.6666666672,
      "d": 416.66666666665697,
      "v": 100
    },
    {
      "midi": 61,
      "hit": false,
      "t": 168416.6666666672,
      "d": 421.875,
      "v": 100
    },
    {
      "midi": 54,
      "hit": false,
      "t": 168843.75000000055,
      "d": 416.66666666668607,
      "v": 100
    },
    {
      "midi": 61,
      "hit": false,
      "t": 168848.9583333339,
      "d": 411.45833333334303,
      "v": 100
    },
    {
      "midi": 66,
      "hit": false,
      "t": 168848.9583333339,
      "d": 411.45833333334303,
      "v": 100
    },
    {
      "midi": 58,
      "hit": false,
      "t": 168848.9583333339,
      "d": 416.66666666668607,
      "v": 100
    },
    {
      "midi": 56,
      "hit": false,
      "t": 170135.41666666724,
      "d": 427.08333333334303,
      "v": 100
    },
    {
      "midi": 63,
      "hit": false,
      "t": 170140.62500000058,
      "d": 416.66666666665697,
      "v": 100
    },
    {
      "midi": 68,
      "hit": false,
      "t": 170140.62500000058,
      "d": 416.66666666665697,
      "v": 100
    },
    {
      "midi": 59,
      "hit": false,
      "t": 170140.62500000058,
      "d": 421.875,
      "v": 100
    },
    {
      "midi": 56,
      "hit": false,
      "t": 170567.70833333393,
      "d": 421.875,
      "v": 103
    },
    {
      "midi": 59,
      "hit": false,
      "t": 170572.91666666727,
      "d": 421.875,
      "v": 103
    },
    {
      "midi": 63,
      "hit": false,
      "t": 170572.91666666727,
      "d": 421.875,
      "v": 103
    },
    {
      "midi": 68,
      "hit": false,
      "t": 170572.91666666727,
      "d": 421.875,
      "v": 103
    },
    {
      "midi": 63,
      "hit": false,
      "t": 171864.58333333393,
      "d": 416.66666666665697,
      "v": 100
    },
    {
      "midi": 56,
      "hit": false,
      "t": 171864.58333333393,
      "d": 421.875,
      "v": 100
    },
    {
      "midi": 59,
      "hit": false,
      "t": 171864.58333333393,
      "d": 427.08333333334303,
      "v": 100
    },
    {
      "midi": 68,
      "hit": false,
      "t": 171864.58333333393,
      "d": 427.08333333334303,
      "v": 100
    },
    {
      "midi": 56,
      "hit": false,
      "t": 172302.08333333393,
      "d": 411.45833333334303,
      "v": 100
    },
    {
      "midi": 59,
      "hit": false,
      "t": 172302.08333333393,
      "d": 416.66666666668607,
      "v": 100
    },
    {
      "midi": 63,
      "hit": false,
      "t": 172302.08333333393,
      "d": 416.66666666668607,
      "v": 100
    },
    {
      "midi": 68,
      "hit": false,
      "t": 172302.08333333393,
      "d": 416.66666666668607,
      "v": 100
    },
    {
      "midi": 66,
      "hit": false,
      "t": 173583.33333333395,
      "d": 427.08333333334303,
      "v": 100
    },
    {
      "midi": 54,
      "hit": false,
      "t": 173583.33333333395,
      "d": 432.29166666668607,
      "v": 100
    },
    {
      "midi": 63,
      "hit": false,
      "t": 173588.5416666673,
      "d": 421.875,
      "v": 100
    },
    {
      "midi": 59,
      "hit": false,
      "t": 173588.5416666673,
      "d": 427.08333333334303,
      "v": 100
    },
    {
      "midi": 54,
      "hit": false,
      "t": 174020.83333333398,
      "d": 416.66666666665697,
      "v": 100
    },
    {
      "midi": 66,
      "hit": false,
      "t": 174020.83333333398,
      "d": 416.66666666665697,
      "v": 100
    },
    {
      "midi": 59,
      "hit": false,
      "t": 174020.83333333398,
      "d": 421.875,
      "v": 100
    },
    {
      "midi": 63,
      "hit": false,
      "t": 174020.83333333398,
      "d": 421.875,
      "v": 100
    },
    {
      "midi": 54,
      "hit": false,
      "t": 175312.50000000064,
      "d": 421.875,
      "v": 100
    },
    {
      "midi": 59,
      "hit": false,
      "t": 175312.50000000064,
      "d": 432.29166666665697,
      "v": 100
    },
    {
      "midi": 63,
      "hit": false,
      "t": 175312.50000000064,
      "d": 432.29166666665697,
      "v": 100
    },
    {
      "midi": 66,
      "hit": false,
      "t": 175312.50000000064,
      "d": 432.29166666665697,
      "v": 100
    },
    {
      "midi": 54,
      "hit": false,
      "t": 175750.00000000064,
      "d": 416.66666666665697,
      "v": 100
    },
    {
      "midi": 59,
      "hit": false,
      "t": 175750.00000000064,
      "d": 421.875,
      "v": 100
    },
    {
      "midi": 63,
      "hit": false,
      "t": 175750.00000000064,
      "d": 421.875,
      "v": 100
    },
    {
      "midi": 66,
      "hit": false,
      "t": 175750.00000000064,
      "d": 427.08333333334303,
      "v": 100
    },
    {
      "midi": 63,
      "hit": false,
      "t": 177041.66666666733,
      "d": 421.875,
      "v": 100
    },
    {
      "midi": 54,
      "hit": false,
      "t": 177041.66666666733,
      "d": 427.08333333334303,
      "v": 100
    },
    {
      "midi": 58,
      "hit": false,
      "t": 177041.66666666733,
      "d": 427.08333333334303,
      "v": 100
    },
    {
      "midi": 66,
      "hit": false,
      "t": 177041.66666666733,
      "d": 427.08333333334303,
      "v": 100
    },
    {
      "midi": 54,
      "hit": false,
      "t": 177473.958333334,
      "d": 421.875,
      "v": 100
    },
    {
      "midi": 63,
      "hit": false,
      "t": 177473.958333334,
      "d": 421.875,
      "v": 100
    },
    {
      "midi": 58,
      "hit": false,
      "t": 177473.958333334,
      "d": 427.08333333334303,
      "v": 100
    },
    {
      "midi": 66,
      "hit": false,
      "t": 177473.958333334,
      "d": 427.08333333334303,
      "v": 100
    },
    {
      "midi": 54,
      "hit": false,
      "t": 178760.41666666736,
      "d": 427.08333333334303,
      "v": 100
    },
    {
      "midi": 58,
      "hit": false,
      "t": 178760.41666666736,
      "d": 432.29166666668607,
      "v": 100
    },
    {
      "midi": 63,
      "hit": false,
      "t": 178760.41666666736,
      "d": 432.29166666668607,
      "v": 100
    },
    {
      "midi": 66,
      "hit": false,
      "t": 178776.04166666736,
      "d": 416.66666666668607,
      "v": 100
    },
    {
      "midi": 54,
      "hit": false,
      "t": 179197.91666666738,
      "d": 421.875,
      "v": 100
    },
    {
      "midi": 63,
      "hit": false,
      "t": 179197.91666666738,
      "d": 421.875,
      "v": 100
    },
    {
      "midi": 66,
      "hit": false,
      "t": 179197.91666666738,
      "d": 421.875,
      "v": 100
    },
    {
      "midi": 58,
      "hit": false,
      "t": 179197.91666666738,
      "d": 427.08333333334303,
      "v": 100
    },
    {
      "midi": 59,
      "hit": false,
      "t": 180494.79166666738,
      "d": 416.66666666665697,
      "v": 100
    },
    {
      "midi": 63,
      "hit": false,
      "t": 180494.79166666738,
      "d": 421.875,
      "v": 100
    },
    {
      "midi": 54,
      "hit": false,
      "t": 180494.79166666738,
      "d": 432.29166666665697,
      "v": 100
    },
    {
      "midi": 66,
      "hit": false,
      "t": 180494.79166666738,
      "d": 432.29166666665697,
      "v": 100
    },
    {
      "midi": 54,
      "hit": false,
      "t": 180927.08333333404,
      "d": 421.875,
      "v": 100
    },
    {
      "midi": 63,
      "hit": false,
      "t": 180932.29166666738,
      "d": 416.66666666665697,
      "v": 100
    },
    {
      "midi": 59,
      "hit": false,
      "t": 180932.29166666738,
      "d": 421.875,
      "v": 100
    },
    {
      "midi": 66,
      "hit": false,
      "t": 180932.29166666738,
      "d": 421.875,
      "v": 100
    },
    {
      "midi": 54,
      "hit": false,
      "t": 182213.54166666738,
      "d": 432.29166666665697,
      "v": 100
    },
    {
      "midi": 63,
      "hit": false,
      "t": 182223.95833333404,
      "d": 416.66666666665697,
      "v": 100
    },
    {
      "midi": 66,
      "hit": false,
      "t": 182223.95833333404,
      "d": 416.66666666665697,
      "v": 100
    },
    {
      "midi": 59,
      "hit": false,
      "t": 182223.95833333404,
      "d": 421.875,
      "v": 100
    },
    {
      "midi": 54,
      "hit": false,
      "t": 182651.04166666738,
      "d": 421.875,
      "v": 100
    },
    {
      "midi": 63,
      "hit": false,
      "t": 182651.04166666738,
      "d": 421.875,
      "v": 100
    },
    {
      "midi": 66,
      "hit": false,
      "t": 182651.04166666738,
      "d": 421.875,
      "v": 100
    },
    {
      "midi": 59,
      "hit": false,
      "t": 182651.04166666738,
      "d": 427.08333333334303,
      "v": 100
    },
    {
      "midi": 56,
      "hit": false,
      "t": 183947.91666666738,
      "d": 421.875,
      "v": 100
    },
    {
      "midi": 63,
      "hit": false,
      "t": 183947.91666666738,
      "d": 421.875,
      "v": 100
    },
    {
      "midi": 68,
      "hit": false,
      "t": 183947.91666666738,
      "d": 421.875,
      "v": 100
    },
    {
      "midi": 59,
      "hit": false,
      "t": 183947.91666666738,
      "d": 427.08333333334303,
      "v": 100
    },
    {
      "midi": 63,
      "hit": false,
      "t": 184380.20833333407,
      "d": 416.66666666665697,
      "v": 100
    },
    {
      "midi": 56,
      "hit": false,
      "t": 184380.20833333407,
      "d": 421.875,
      "v": 100
    },
    {
      "midi": 59,
      "hit": false,
      "t": 184380.20833333407,
      "d": 421.875,
      "v": 100
    },
    {
      "midi": 68,
      "hit": false,
      "t": 184380.20833333407,
      "d": 427.08333333334303,
      "v": 100
    },
    {
      "midi": 68,
      "hit": false,
      "t": 185666.6666666674,
      "d": 427.08333333334303,
      "v": 100
    },
    {
      "midi": 56,
      "hit": false,
      "t": 185671.87500000076,
      "d": 421.875,
      "v": 100
    },
    {
      "midi": 59,
      "hit": false,
      "t": 185671.87500000076,
      "d": 427.08333333334303,
      "v": 100
    },
    {
      "midi": 63,
      "hit": false,
      "t": 185671.87500000076,
      "d": 427.08333333334303,
      "v": 100
    },
    {
      "midi": 63,
      "hit": false,
      "t": 186104.16666666744,
      "d": 421.875,
      "v": 100
    },
    {
      "midi": 68,
      "hit": false,
      "t": 186104.16666666744,
      "d": 421.875,
      "v": 100
    },
    {
      "midi": 56,
      "hit": false,
      "t": 186104.16666666744,
      "d": 427.08333333334303,
      "v": 100
    },
    {
      "midi": 59,
      "hit": false,
      "t": 186104.16666666744,
      "d": 427.08333333334303,
      "v": 100
    },
    {
      "midi": 65,
      "hit": false,
      "t": 187395.83333333413,
      "d": 427.08333333334303,
      "v": 100
    },
    {
      "midi": 49,
      "hit": false,
      "t": 187395.83333333413,
      "d": 437.5000000000291,
      "v": 100
    },
    {
      "midi": 61,
      "hit": false,
      "t": 187401.04166666747,
      "d": 421.875,
      "v": 100
    },
    {
      "midi": 53,
      "hit": false,
      "t": 187401.04166666747,
      "d": 427.08333333334303,
      "v": 100
    },
    {
      "midi": 56,
      "hit": false,
      "t": 187401.04166666747,
      "d": 427.08333333334303,
      "v": 100
    },
    {
      "midi": 49,
      "hit": false,
      "t": 187838.5416666675,
      "d": 953.125,
      "v": 100
    },
    {
      "midi": 61,
      "hit": false,
      "t": 187838.5416666675,
      "d": 958.333333333343,
      "v": 100
    },
    {
      "midi": 53,
      "hit": false,
      "t": 187838.5416666675,
      "d": 1062.5,
      "v": 100
    },
    {
      "midi": 65,
      "hit": false,
      "t": 187838.5416666675,
      "d": 1171.875,
      "v": 100
    },
    {
      "midi": 56,
      "hit": false,
      "t": 187838.5416666675,
      "d": 1177.083333333343,
      "v": 100
    },
    {
      "midi": 49,
      "hit": false,
      "t": 189119.7916666675,
      "d": 427.08333333331393,
      "v": 100
    },
    {
      "midi": 65,
      "hit": false,
      "t": 189119.7916666675,
      "d": 437.5,
      "v": 100
    },
    {
      "midi": 56,
      "hit": false,
      "t": 189130.20833333416,
      "d": 416.66666666665697,
      "v": 100
    },
    {
      "midi": 61,
      "hit": false,
      "t": 189130.20833333416,
      "d": 421.875,
      "v": 100
    },
    {
      "midi": 53,
      "hit": false,
      "t": 189130.20833333416,
      "d": 432.29166666668607,
      "v": 100
    },
    {
      "midi": 49,
      "hit": false,
      "t": 189567.7083333342,
      "d": 953.125,
      "v": 100
    },
    {
      "midi": 61,
      "hit": false,
      "t": 189567.7083333342,
      "d": 953.125,
      "v": 100
    },
    {
      "midi": 53,
      "hit": false,
      "t": 189567.7083333342,
      "d": 1057.291666666657,
      "v": 100
    },
    {
      "midi": 65,
      "hit": false,
      "t": 189567.7083333342,
      "d": 1171.875,
      "v": 100
    },
    {
      "midi": 56,
      "hit": false,
      "t": 189598.9583333342,
      "d": 1140.625,
      "v": 100
    },
    {
      "midi": 49,
      "hit": false,
      "t": 190848.9583333342,
      "d": 427.08333333334303,
      "v": 100
    },
    {
      "midi": 56,
      "hit": false,
      "t": 190848.9583333342,
      "d": 427.08333333334303,
      "v": 100
    },
    {
      "midi": 61,
      "hit": false,
      "t": 190848.9583333342,
      "d": 432.29166666668607,
      "v": 100
    },
    {
      "midi": 53,
      "hit": false,
      "t": 190848.9583333342,
      "d": 437.5000000000291,
      "v": 100
    },
    {
      "midi": 65,
      "hit": false,
      "t": 190848.9583333342,
      "d": 437.5000000000291,
      "v": 100
    },
    {
      "midi": 49,
      "hit": false,
      "t": 191291.66666666756,
      "d": 953.125,
      "v": 100
    },
    {
      "midi": 61,
      "hit": false,
      "t": 191291.66666666756,
      "d": 958.333333333343,
      "v": 100
    },
    {
      "midi": 53,
      "hit": false,
      "t": 191291.66666666756,
      "d": 1057.291666666686,
      "v": 100
    },
    {
      "midi": 56,
      "hit": false,
      "t": 191291.66666666756,
      "d": 1166.666666666686,
      "v": 100
    },
    {
      "midi": 65,
      "hit": false,
      "t": 191291.66666666756,
      "d": 1166.666666666686,
      "v": 100
    },
    {
      "midi": 52,
      "hit": false,
      "t": 197750.0000000009,
      "d": 432.29166666668607,
      "v": 100
    },
    {
      "midi": 59,
      "hit": false,
      "t": 197760.41666666756,
      "d": 416.66666666668607,
      "v": 100
    },
    {
      "midi": 56,
      "hit": false,
      "t": 197760.41666666756,
      "d": 427.08333333337214,
      "v": 100
    },
    {
      "midi": 64,
      "hit": false,
      "t": 197765.6250000009,
      "d": 416.66666666668607,
      "v": 100
    },
    {
      "midi": 52,
      "hit": false,
      "t": 198192.70833333427,
      "d": 416.66666666665697,
      "v": 100
    },
    {
      "midi": 56,
      "hit": false,
      "t": 198192.70833333427,
      "d": 416.66666666665697,
      "v": 100
    },
    {
      "midi": 59,
      "hit": false,
      "t": 198192.70833333427,
      "d": 416.66666666665697,
      "v": 100
    },
    {
      "midi": 64,
      "hit": false,
      "t": 198192.70833333427,
      "d": 421.875,
      "v": 100
    },
    {
      "midi": 56,
      "hit": false,
      "t": 199479.16666666762,
      "d": 421.875,
      "v": 100
    },
    {
      "midi": 59,
      "hit": false,
      "t": 199479.16666666762,
      "d": 427.08333333334303,
      "v": 100
    },
    {
      "midi": 52,
      "hit": false,
      "t": 199479.16666666762,
      "d": 432.29166666668607,
      "v": 100
    },
    {
      "midi": 64,
      "hit": false,
      "t": 199494.79166666762,
      "d": 416.66666666668607,
      "v": 100
    },
    {
      "midi": 59,
      "hit": false,
      "t": 199916.66666666765,
      "d": 416.66666666665697,
      "v": 100
    },
    {
      "midi": 52,
      "hit": false,
      "t": 199916.66666666765,
      "d": 421.875,
      "v": 100
    },
    {
      "midi": 56,
      "hit": false,
      "t": 199916.66666666765,
      "d": 421.875,
      "v": 100
    },
    {
      "midi": 64,
      "hit": false,
      "t": 199916.66666666765,
      "d": 421.875,
      "v": 100
    },
    {
      "midi": 61,
      "hit": false,
      "t": 201213.54166666765,
      "d": 416.66666666665697,
      "v": 100
    },
    {
      "midi": 54,
      "hit": false,
      "t": 201213.54166666765,
      "d": 421.875,
      "v": 100
    },
    {
      "midi": 57,
      "hit": false,
      "t": 201213.54166666765,
      "d": 421.875,
      "v": 100
    },
    {
      "midi": 66,
      "hit": false,
      "t": 201213.54166666765,
      "d": 421.875,
      "v": 100
    },
    {
      "midi": 57,
      "hit": false,
      "t": 201645.8333333343,
      "d": 416.66666666665697,
      "v": 103
    },
    {
      "midi": 61,
      "hit": false,
      "t": 201645.8333333343,
      "d": 416.66666666665697,
      "v": 103
    },
    {
      "midi": 54,
      "hit": false,
      "t": 201645.8333333343,
      "d": 421.875,
      "v": 103
    },
    {
      "midi": 66,
      "hit": false,
      "t": 201645.8333333343,
      "d": 421.875,
      "v": 103
    },
    {
      "midi": 54,
      "hit": false,
      "t": 202942.7083333343,
      "d": 416.66666666665697,
      "v": 100
    },
    {
      "midi": 57,
      "hit": false,
      "t": 202942.7083333343,
      "d": 416.66666666665697,
      "v": 100
    },
    {
      "midi": 61,
      "hit": false,
      "t": 202942.7083333343,
      "d": 421.875,
      "v": 100
    },
    {
      "midi": 66,
      "hit": false,
      "t": 202942.7083333343,
      "d": 421.875,
      "v": 100
    },
    {
      "midi": 57,
      "hit": false,
      "t": 203369.79166666765,
      "d": 421.8750000000291,
      "v": 100
    },
    {
      "midi": 61,
      "hit": false,
      "t": 203369.79166666765,
      "d": 421.8750000000291,
      "v": 100
    },
    {
      "midi": 54,
      "hit": false,
      "t": 203375.000000001,
      "d": 411.45833333334303,
      "v": 100
    },
    {
      "midi": 66,
      "hit": false,
      "t": 203375.000000001,
      "d": 421.8750000000291,
      "v": 100
    },
    {
      "midi": 52,
      "hit": false,
      "t": 204661.45833333436,
      "d": 427.08333333334303,
      "v": 100
    },
    {
      "midi": 57,
      "hit": false,
      "t": 204666.6666666677,
      "d": 416.66666666665697,
      "v": 100
    },
    {
      "midi": 61,
      "hit": false,
      "t": 204666.6666666677,
      "d": 416.66666666665697,
      "v": 100
    },
    {
      "midi": 64,
      "hit": false,
      "t": 204666.6666666677,
      "d": 421.875,
      "v": 100
    },
    {
      "midi": 52,
      "hit": false,
      "t": 205093.75000000105,
      "d": 421.875,
      "v": 100
    },
    {
      "midi": 61,
      "hit": false,
      "t": 205093.75000000105,
      "d": 421.875,
      "v": 100
    },
    {
      "midi": 57,
      "hit": false,
      "t": 205093.75000000105,
      "d": 427.08333333334303,
      "v": 100
    },
    {
      "midi": 64,
      "hit": false,
      "t": 205098.9583333344,
      "d": 421.875,
      "v": 100
    },
    {
      "midi": 52,
      "hit": false,
      "t": 206390.62500000105,
      "d": 421.875,
      "v": 100
    },
    {
      "midi": 57,
      "hit": false,
      "t": 206390.62500000105,
      "d": 421.875,
      "v": 100
    },
    {
      "midi": 61,
      "hit": false,
      "t": 206390.62500000105,
      "d": 421.875,
      "v": 100
    },
    {
      "midi": 64,
      "hit": false,
      "t": 206390.62500000105,
      "d": 421.875,
      "v": 100
    },
    {
      "midi": 52,
      "hit": false,
      "t": 206817.7083333344,
      "d": 421.875,
      "v": 100
    },
    {
      "midi": 57,
      "hit": false,
      "t": 206817.7083333344,
      "d": 421.875,
      "v": 100
    },
    {
      "midi": 61,
      "hit": false,
      "t": 206817.7083333344,
      "d": 427.08333333334303,
      "v": 100
    },
    {
      "midi": 64,
      "hit": false,
      "t": 206822.91666666773,
      "d": 421.875,
      "v": 100
    },
    {
      "midi": 52,
      "hit": false,
      "t": 208114.5833333344,
      "d": 421.875,
      "v": 100
    },
    {
      "midi": 56,
      "hit": false,
      "t": 208114.5833333344,
      "d": 427.08333333334303,
      "v": 100
    },
    {
      "midi": 61,
      "hit": false,
      "t": 208114.5833333344,
      "d": 427.08333333334303,
      "v": 100
    },
    {
      "midi": 64,
      "hit": false,
      "t": 208114.5833333344,
      "d": 427.08333333334303,
      "v": 100
    },
    {
      "midi": 56,
      "hit": false,
      "t": 208546.87500000108,
      "d": 421.875,
      "v": 100
    },
    {
      "midi": 61,
      "hit": false,
      "t": 208546.87500000108,
      "d": 421.875,
      "v": 100
    },
    {
      "midi": 52,
      "hit": false,
      "t": 208546.87500000108,
      "d": 427.08333333334303,
      "v": 100
    },
    {
      "midi": 64,
      "hit": false,
      "t": 208546.87500000108,
      "d": 427.08333333334303,
      "v": 100
    },
    {
      "midi": 52,
      "hit": false,
      "t": 209838.54166666776,
      "d": 427.08333333334303,
      "v": 100
    },
    {
      "midi": 56,
      "hit": false,
      "t": 209838.54166666776,
      "d": 427.08333333334303,
      "v": 100
    },
    {
      "midi": 64,
      "hit": false,
      "t": 209843.7500000011,
      "d": 416.66666666665697,
      "v": 100
    },
    {
      "midi": 61,
      "hit": false,
      "t": 209843.7500000011,
      "d": 421.875,
      "v": 100
    },
    {
      "midi": 52,
      "hit": false,
      "t": 210270.83333333445,
      "d": 421.875,
      "v": 100
    },
    {
      "midi": 61,
      "hit": false,
      "t": 210270.83333333445,
      "d": 421.875,
      "v": 100
    },
    {
      "midi": 56,
      "hit": false,
      "t": 210270.83333333445,
      "d": 427.08333333334303,
      "v": 100
    },
    {
      "midi": 64,
      "hit": false,
      "t": 210276.0416666678,
      "d": 416.66666666665697,
      "v": 100
    },
    {
      "midi": 52,
      "hit": false,
      "t": 211567.70833333445,
      "d": 421.875,
      "v": 100
    },
    {
      "midi": 57,
      "hit": false,
      "t": 211567.70833333445,
      "d": 421.875,
      "v": 100
    },
    {
      "midi": 61,
      "hit": false,
      "t": 211567.70833333445,
      "d": 427.08333333334303,
      "v": 100
    },
    {
      "midi": 64,
      "hit": false,
      "t": 211567.70833333445,
      "d": 432.29166666668607,
      "v": 100
    },
    {
      "midi": 52,
      "hit": false,
      "t": 212000.00000000114,
      "d": 421.875,
      "v": 100
    },
    {
      "midi": 57,
      "hit": false,
      "t": 212000.00000000114,
      "d": 427.08333333334303,
      "v": 100
    },
    {
      "midi": 61,
      "hit": false,
      "t": 212000.00000000114,
      "d": 427.08333333334303,
      "v": 100
    },
    {
      "midi": 64,
      "hit": false,
      "t": 212005.20833333448,
      "d": 416.66666666665697,
      "v": 100
    },
    {
      "midi": 52,
      "hit": false,
      "t": 213286.45833333448,
      "d": 427.08333333331393,
      "v": 100
    },
    {
      "midi": 57,
      "hit": false,
      "t": 213296.87500000114,
      "d": 421.875,
      "v": 100
    },
    {
      "midi": 61,
      "hit": false,
      "t": 213296.87500000114,
      "d": 421.875,
      "v": 100
    },
    {
      "midi": 64,
      "hit": false,
      "t": 213296.87500000114,
      "d": 427.08333333334303,
      "v": 100
    },
    {
      "midi": 52,
      "hit": false,
      "t": 213723.95833333448,
      "d": 421.875,
      "v": 100
    },
    {
      "midi": 61,
      "hit": false,
      "t": 213729.16666666782,
      "d": 416.66666666665697,
      "v": 100
    },
    {
      "midi": 57,
      "hit": false,
      "t": 213729.16666666782,
      "d": 421.875,
      "v": 100
    },
    {
      "midi": 64,
      "hit": false,
      "t": 213729.16666666782,
      "d": 421.875,
      "v": 100
    },
    {
      "midi": 61,
      "hit": false,
      "t": 215020.83333333448,
      "d": 421.875,
      "v": 100
    },
    {
      "midi": 66,
      "hit": false,
      "t": 215020.83333333448,
      "d": 427.08333333334303,
      "v": 100
    },
    {
      "midi": 57,
      "hit": false,
      "t": 215020.83333333448,
      "d": 432.29166666668607,
      "v": 100
    },
    {
      "midi": 54,
      "hit": false,
      "t": 215026.04166666782,
      "d": 421.875,
      "v": 100
    },
    {
      "midi": 54,
      "hit": false,
      "t": 215453.12500000116,
      "d": 427.08333333337214,
      "v": 100
    },
    {
      "midi": 61,
      "hit": false,
      "t": 215458.3333333345,
      "d": 411.45833333334303,
      "v": 100
    },
    {
      "midi": 57,
      "hit": false,
      "t": 215458.3333333345,
      "d": 416.66666666668607,
      "v": 100
    },
    {
      "midi": 66,
      "hit": false,
      "t": 215458.3333333345,
      "d": 416.66666666668607,
      "v": 100
    },
    {
      "midi": 66,
      "hit": false,
      "t": 216744.79166666788,
      "d": 421.875,
      "v": 100
    },
    {
      "midi": 54,
      "hit": false,
      "t": 216744.79166666788,
      "d": 427.08333333334303,
      "v": 100
    },
    {
      "midi": 57,
      "hit": false,
      "t": 216744.79166666788,
      "d": 427.08333333334303,
      "v": 100
    },
    {
      "midi": 61,
      "hit": false,
      "t": 216744.79166666788,
      "d": 427.08333333334303,
      "v": 100
    },
    {
      "midi": 57,
      "hit": false,
      "t": 217177.08333333457,
      "d": 421.875,
      "v": 100
    },
    {
      "midi": 61,
      "hit": false,
      "t": 217177.08333333457,
      "d": 421.875,
      "v": 100
    },
    {
      "midi": 66,
      "hit": false,
      "t": 217177.08333333457,
      "d": 421.875,
      "v": 100
    },
    {
      "midi": 54,
      "hit": false,
      "t": 217177.08333333457,
      "d": 427.08333333334303,
      "v": 100
    },
    {
      "midi": 63,
      "hit": false,
      "t": 218468.75000000125,
      "d": 859.375,
      "v": 100
    },
    {
      "midi": 59,
      "hit": false,
      "t": 218468.75000000125,
      "d": 864.583333333343,
      "v": 100
    },
    {
      "midi": 71,
      "hit": false,
      "t": 218484.37500000125,
      "d": 838.541666666657,
      "v": 100
    },
    {
      "midi": 66,
      "hit": false,
      "t": 218484.37500000125,
      "d": 859.375,
      "v": 100
    }
  ]
}