{
  "jsonPath": "Unknown/Unknown/George Weiss, Hugo Peretti And Luigi Creatore/cant-help-falling-in-love-with-you.json",
  "path": "Unknown\\Unknown\\George Weiss, Hugo Peretti And Luigi Creatore\\Cant Help Falling In Love With You.mid",
  "name": "Cant Help Falling In Love With You",
  "difficulty": "Advanced",
  "bpm": 110.00011000011,
  "notes": [
    {
      "midi": 69,
      "hit": false,
      "t": 0,
      "d": 1636.362,
      "v": 87
    },
    {
      "midi": 72,
      "hit": false,
      "t": 0,
      "d": 1636.362,
      "v": 95
    },
    {
      "midi": 53,
      "hit": false,
      "t": 272.72700000000003,
      "d": 272.72700000000003,
      "v": 87
    },
    {
      "midi": 57,
      "hit": false,
      "t": 545.4540000000001,
      "d": 272.727,
      "v": 92
    },
    {
      "midi": 60,
      "hit": false,
      "t": 818.181,
      "d": 272.7270000000001,
      "v": 84
    },
    {
      "midi": 57,
      "hit": false,
      "t": 1090.9080000000001,
      "d": 272.7270000000001,
      "v": 82
    },
    {
      "midi": 53,
      "hit": false,
      "t": 1363.6350000000002,
      "d": 545.4540000000002,
      "v": 82
    },
    {
      "midi": 65,
      "hit": false,
      "t": 1636.362,
      "d": 1636.362,
      "v": 84
    },
    {
      "midi": 74,
      "hit": false,
      "t": 1636.362,
      "d": 1636.362,
      "v": 97
    },
    {
      "midi": 50,
      "hit": false,
      "t": 1909.0890000000004,
      "d": 272.72699999999986,
      "v": 95
    },
    {
      "midi": 53,
      "hit": false,
      "t": 2181.8160000000003,
      "d": 272.72699999999986,
      "v": 82
    },
    {
      "midi": 57,
      "hit": false,
      "t": 2454.543,
      "d": 272.72699999999986,
      "v": 87
    },
    {
      "midi": 53,
      "hit": false,
      "t": 2727.27,
      "d": 272.72699999999986,
      "v": 82
    },
    {
      "midi": 50,
      "hit": false,
      "t": 2999.997,
      "d": 272.72699999999986,
      "v": 82
    },
    {
      "midi": 67,
      "hit": false,
      "t": 3272.724,
      "d": 1636.362,
      "v": 82
    },
    {
      "midi": 70,
      "hit": false,
      "t": 3272.724,
      "d": 1636.362,
      "v": 81
    },
    {
      "midi": 55,
      "hit": false,
      "t": 3545.4509999999996,
      "d": 272.72699999999986,
      "v": 89
    },
    {
      "midi": 58,
      "hit": false,
      "t": 3818.1779999999994,
      "d": 272.72699999999986,
      "v": 72
    },
    {
      "midi": 62,
      "hit": false,
      "t": 4090.9049999999993,
      "d": 272.7270000000003,
      "v": 95
    },
    {
      "midi": 58,
      "hit": false,
      "t": 4363.632,
      "d": 272.72699999999986,
      "v": 88
    },
    {
      "midi": 55,
      "hit": false,
      "t": 4636.3589999999995,
      "d": 545.4539999999997,
      "v": 84
    },
    {
      "midi": 64,
      "hit": false,
      "t": 4909.086,
      "d": 1636.362,
      "v": 84
    },
    {
      "midi": 72,
      "hit": false,
      "t": 4909.086,
      "d": 1636.362,
      "v": 97
    },
    {
      "midi": 58,
      "hit": false,
      "t": 5181.812999999999,
      "d": 272.72699999999986,
      "v": 92
    },
    {
      "midi": 55,
      "hit": false,
      "t": 5454.539999999999,
      "d": 272.72699999999986,
      "v": 101
    },
    {
      "midi": 48,
      "hit": false,
      "t": 5727.266999999999,
      "d": 818.1809999999996,
      "v": 74
    },
    {
      "midi": 65,
      "hit": false,
      "t": 6545.448,
      "d": 1636.362,
      "v": 127
    },
    {
      "midi": 53,
      "hit": false,
      "t": 6818.174999999998,
      "d": 272.72699999999986,
      "v": 71
    },
    {
      "midi": 57,
      "hit": false,
      "t": 7090.901999999998,
      "d": 272.72699999999986,
      "v": 89
    },
    {
      "midi": 60,
      "hit": false,
      "t": 7363.628999999998,
      "d": 272.72699999999986,
      "v": 80
    },
    {
      "midi": 57,
      "hit": false,
      "t": 7636.355999999998,
      "d": 272.72699999999986,
      "v": 82
    },
    {
      "midi": 53,
      "hit": false,
      "t": 7909.082999999998,
      "d": 545.4540000000006,
      "v": 78
    },
    {
      "midi": 69,
      "hit": false,
      "t": 8181.81,
      "d": 1636.362,
      "v": 101
    },
    {
      "midi": 72,
      "hit": false,
      "t": 8181.81,
      "d": 1636.362,
      "v": 92
    },
    {
      "midi": 57,
      "hit": false,
      "t": 8454.536999999998,
      "d": 272.72700000000077,
      "v": 80
    },
    {
      "midi": 60,
      "hit": false,
      "t": 8727.264,
      "d": 272.72700000000077,
      "v": 87
    },
    {
      "midi": 64,
      "hit": false,
      "t": 8999.991,
      "d": 272.72700000000077,
      "v": 97
    },
    {
      "midi": 60,
      "hit": false,
      "t": 9272.718,
      "d": 272.72700000000077,
      "v": 76
    },
    {
      "midi": 57,
      "hit": false,
      "t": 9545.445000000002,
      "d": 272.72700000000077,
      "v": 84
    },
    {
      "midi": 65,
      "hit": false,
      "t": 9818.172,
      "d": 2181.8160000000007,
      "v": 89
    },
    {
      "midi": 50,
      "hit": false,
      "t": 10090.899000000003,
      "d": 272.72700000000077,
      "v": 87
    },
    {
      "midi": 52,
      "hit": false,
      "t": 10363.626000000004,
      "d": 272.72700000000077,
      "v": 87
    },
    {
      "midi": 53,
      "hit": false,
      "t": 10636.353000000005,
      "d": 272.72700000000077,
      "v": 82
    },
    {
      "midi": 55,
      "hit": false,
      "t": 10909.080000000005,
      "d": 272.72700000000077,
      "v": 87
    },
    {
      "midi": 57,
      "hit": false,
      "t": 11181.807000000006,
      "d": 272.72700000000077,
      "v": 80
    },
    {
      "midi": 50,
      "hit": false,
      "t": 11454.534000000007,
      "d": 818.1810000000005,
      "v": 82
    },
    {
      "midi": 57,
      "hit": false,
      "t": 12272.715000000007,
      "d": 818.1810000000005,
      "v": 97
    },
    {
      "midi": 67,
      "hit": false,
      "t": 12545.442000000001,
      "d": 272.72700000000077,
      "v": 89
    },
    {
      "midi": 69,
      "hit": false,
      "t": 12818.169000000002,
      "d": 272.72700000000077,
      "v": 95
    },
    {
      "midi": 62,
      "hit": false,
      "t": 13090.896000000002,
      "d": 1636.3619999999992,
      "v": 82
    },
    {
      "midi": 70,
      "hit": false,
      "t": 13090.896000000002,
      "d": 1636.3619999999992,
      "v": 80
    },
    {
      "midi": 53,
      "hit": false,
      "t": 13363.623000000009,
      "d": 272.72700000000077,
      "v": 82
    },
    {
      "midi": 58,
      "hit": false,
      "t": 13636.35000000001,
      "d": 272.72700000000077,
      "v": 69
    },
    {
      "midi": 62,
      "hit": false,
      "t": 13909.07700000001,
      "d": 272.72700000000077,
      "v": 97
    },
    {
      "midi": 58,
      "hit": false,
      "t": 14181.804000000011,
      "d": 272.72700000000077,
      "v": 74
    },
    {
      "midi": 53,
      "hit": false,
      "t": 14454.531000000012,
      "d": 545.4539999999997,
      "v": 84
    },
    {
      "midi": 65,
      "hit": false,
      "t": 14727.258000000002,
      "d": 1636.362000000001,
      "v": 78
    },
    {
      "midi": 69,
      "hit": false,
      "t": 14727.258000000002,
      "d": 1636.362000000001,
      "v": 76
    },
    {
      "midi": 53,
      "hit": false,
      "t": 14999.985000000011,
      "d": 272.72700000000077,
      "v": 69
    },
    {
      "midi": 57,
      "hit": false,
      "t": 15272.712000000012,
      "d": 272.72700000000077,
      "v": 92
    },
    {
      "midi": 60,
      "hit": false,
      "t": 15545.439000000013,
      "d": 272.72700000000077,
      "v": 89
    },
    {
      "midi": 57,
      "hit": false,
      "t": 15818.166000000014,
      "d": 272.72700000000077,
      "v": 71
    },
    {
      "midi": 53,
      "hit": false,
      "t": 16090.893000000015,
      "d": 272.72700000000077,
      "v": 87
    },
    {
      "midi": 64,
      "hit": false,
      "t": 16363.620000000003,
      "d": 3272.7239999999983,
      "v": 78
    },
    {
      "midi": 67,
      "hit": false,
      "t": 16363.620000000003,
      "d": 3272.7239999999983,
      "v": 92
    },
    {
      "midi": 48,
      "hit": false,
      "t": 16636.347000000016,
      "d": 272.72699999999895,
      "v": 89
    },
    {
      "midi": 52,
      "hit": false,
      "t": 16909.074000000015,
      "d": 272.72699999999895,
      "v": 97
    },
    {
      "midi": 55,
      "hit": false,
      "t": 17181.801000000014,
      "d": 272.72699999999895,
      "v": 84
    },
    {
      "midi": 52,
      "hit": false,
      "t": 17454.528000000013,
      "d": 272.72699999999895,
      "v": 80
    },
    {
      "midi": 55,
      "hit": false,
      "t": 17727.255000000012,
      "d": 272.72699999999895,
      "v": 61
    },
    {
      "midi": 58,
      "hit": false,
      "t": 17999.98200000001,
      "d": 272.72699999999895,
      "v": 59
    },
    {
      "midi": 55,
      "hit": false,
      "t": 18272.70900000001,
      "d": 272.72699999999895,
      "v": 92
    },
    {
      "midi": 52,
      "hit": false,
      "t": 18545.43600000001,
      "d": 272.72699999999895,
      "v": 80
    },
    {
      "midi": 48,
      "hit": false,
      "t": 18818.163000000008,
      "d": 818.1810000000005,
      "v": 92
    },
    {
      "midi": 60,
      "hit": false,
      "t": 19363.617000000002,
      "d": 272.72699999999895,
      "v": 71
    },
    {
      "midi": 58,
      "hit": false,
      "t": 19636.344,
      "d": 1636.362000000001,
      "v": 81
    },
    {
      "midi": 62,
      "hit": false,
      "t": 19636.344,
      "d": 1636.362000000001,
      "v": 108
    },
    {
      "midi": 46,
      "hit": false,
      "t": 19909.071000000007,
      "d": 272.72699999999895,
      "v": 74
    },
    {
      "midi": 48,
      "hit": false,
      "t": 20181.798000000006,
      "d": 272.72699999999895,
      "v": 97
    },
    {
      "midi": 50,
      "hit": false,
      "t": 20454.525000000005,
      "d": 272.72699999999895,
      "v": 92
    },
    {
      "midi": 52,
      "hit": false,
      "t": 20727.252000000004,
      "d": 272.72699999999895,
      "v": 80
    },
    {
      "midi": 53,
      "hit": false,
      "t": 20999.979000000003,
      "d": 545.4540000000015,
      "v": 87
    },
    {
      "midi": 60,
      "hit": false,
      "t": 21272.706000000002,
      "d": 1636.362000000001,
      "v": 78
    },
    {
      "midi": 64,
      "hit": false,
      "t": 21272.706000000002,
      "d": 1636.362000000001,
      "v": 97
    },
    {
      "midi": 48,
      "hit": false,
      "t": 21545.433000000005,
      "d": 272.72699999999895,
      "v": 92
    },
    {
      "midi": 50,
      "hit": false,
      "t": 21818.160000000003,
      "d": 272.72699999999895,
      "v": 72
    },
    {
      "midi": 52,
      "hit": false,
      "t": 22090.887000000002,
      "d": 272.72699999999895,
      "v": 84
    },
    {
      "midi": 53,
      "hit": false,
      "t": 22363.614,
      "d": 272.72699999999895,
      "v": 76
    },
    {
      "midi": 55,
      "hit": false,
      "t": 22636.341,
      "d": 272.72699999999895,
      "v": 92
    },
    {
      "midi": 62,
      "hit": false,
      "t": 22909.068000000003,
      "d": 1636.362000000001,
      "v": 95
    },
    {
      "midi": 65,
      "hit": false,
      "t": 22909.068000000003,
      "d": 1636.362000000001,
      "v": 80
    },
    {
      "midi": 50,
      "hit": false,
      "t": 23181.795,
      "d": 272.72699999999895,
      "v": 87
    },
    {
      "midi": 52,
      "hit": false,
      "t": 23454.521999999997,
      "d": 272.72699999999895,
      "v": 87
    },
    {
      "midi": 53,
      "hit": false,
      "t": 23727.248999999996,
      "d": 272.72699999999895,
      "v": 87
    },
    {
      "midi": 55,
      "hit": false,
      "t": 23999.975999999995,
      "d": 272.72699999999895,
      "v": 89
    },
    {
      "midi": 57,
      "hit": false,
      "t": 24272.702999999994,
      "d": 272.72699999999895,
      "v": 89
    },
    {
      "midi": 55,
      "hit": false,
      "t": 24545.429999999993,
      "d": 1636.362000000001,
      "v": 101
    },
    {
      "midi": 58,
      "hit": false,
      "t": 24545.429999999993,
      "d": 1636.362000000001,
      "v": 77
    },
    {
      "midi": 62,
      "hit": false,
      "t": 24545.430000000004,
      "d": 545.4540000000015,
      "v": 89
    },
    {
      "midi": 67,
      "hit": false,
      "t": 24545.430000000004,
      "d": 545.4540000000015,
      "v": 97
    },
    {
      "midi": 69,
      "hit": false,
      "t": 25090.884000000005,
      "d": 545.4540000000015,
      "v": 95
    },
    {
      "midi": 70,
      "hit": false,
      "t": 25636.338000000007,
      "d": 545.4540000000015,
      "v": 72
    },
    {
      "midi": 65,
      "hit": false,
      "t": 26181.79200000001,
      "d": 1636.362000000001,
      "v": 97
    },
    {
      "midi": 69,
      "hit": false,
      "t": 26181.79200000001,
      "d": 1636.362000000001,
      "v": 108
    },
    {
      "midi": 48,
      "hit": false,
      "t": 26454.518999999993,
      "d": 272.72699999999895,
      "v": 89
    },
    {
      "midi": 53,
      "hit": false,
      "t": 26727.245999999992,
      "d": 272.72699999999895,
      "v": 84
    },
    {
      "midi": 57,
      "hit": false,
      "t": 26999.97299999999,
      "d": 272.72699999999895,
      "v": 80
    },
    {
      "midi": 53,
      "hit": false,
      "t": 27272.69999999999,
      "d": 272.72699999999895,
      "v": 78
    },
    {
      "midi": 48,
      "hit": false,
      "t": 27545.42699999999,
      "d": 545.4540000000015,
      "v": 72
    },
    {
      "midi": 64,
      "hit": false,
      "t": 27818.15400000001,
      "d": 1636.362000000001,
      "v": 57
    },
    {
      "midi": 67,
      "hit": false,
      "t": 27818.15400000001,
      "d": 1636.362000000001,
      "v": 87
    },
    {
      "midi": 48,
      "hit": false,
      "t": 28090.88099999999,
      "d": 272.72699999999895,
      "v": 80
    },
    {
      "midi": 55,
      "hit": false,
      "t": 28363.60799999999,
      "d": 272.72699999999895,
      "v": 97
    },
    {
      "midi": 58,
      "hit": false,
      "t": 28636.33499999999,
      "d": 272.72699999999895,
      "v": 81
    },
    {
      "midi": 55,
      "hit": false,
      "t": 28909.061999999987,
      "d": 272.72699999999895,
      "v": 95
    },
    {
      "midi": 48,
      "hit": false,
      "t": 29181.788999999986,
      "d": 272.72699999999895,
      "v": 78
    },
    {
      "midi": 65,
      "hit": false,
      "t": 29454.51600000001,
      "d": 3272.724000000002,
      "v": 97
    },
    {
      "midi": 53,
      "hit": false,
      "t": 29727.242999999984,
      "d": 272.72699999999895,
      "v": 82
    },
    {
      "midi": 57,
      "hit": false,
      "t": 29999.969999999983,
      "d": 272.72699999999895,
      "v": 92
    },
    {
      "midi": 60,
      "hit": false,
      "t": 30272.696999999982,
      "d": 272.72699999999895,
      "v": 72
    },
    {
      "midi": 57,
      "hit": false,
      "t": 30545.42399999998,
      "d": 272.72699999999895,
      "v": 71
    },
    {
      "midi": 60,
      "hit": false,
      "t": 30818.15099999998,
      "d": 272.72699999999895,
      "v": 76
    },
    {
      "midi": 62,
      "hit": false,
      "t": 31090.87799999998,
      "d": 272.72699999999895,
      "v": 95
    },
    {
      "midi": 60,
      "hit": false,
      "t": 31363.604999999978,
      "d": 272.72699999999895,
      "v": 72
    },
    {
      "midi": 57,
      "hit": false,
      "t": 31636.331999999977,
      "d": 272.72699999999895,
      "v": 80
    },
    {
      "midi": 53,
      "hit": false,
      "t": 31909.058999999976,
      "d": 818.1810000000005,
      "v": 78
    },
    {
      "midi": 57,
      "hit": false,
      "t": 32727.239999999976,
      "d": 1636.362000000001,
      "v": 80
    },
    {
      "midi": 60,
      "hit": false,
      "t": 32727.239999999976,
      "d": 1636.362000000001,
      "v": 80
    },
    {
      "midi": 64,
      "hit": false,
      "t": 32727.240000000013,
      "d": 545.4539999999979,
      "v": 92
    },
    {
      "midi": 69,
      "hit": false,
      "t": 33272.69400000001,
      "d": 272.72699999999895,
      "v": 101
    },
    {
      "midi": 72,
      "hit": false,
      "t": 33545.42100000001,
      "d": 545.4539999999979,
      "v": 104
    },
    {
      "midi": 76,
      "hit": false,
      "t": 34090.87500000001,
      "d": 272.72699999999895,
      "v": 80
    },
    {
      "midi": 54,
      "hit": false,
      "t": 34363.60199999998,
      "d": 272.72699999999895,
      "v": 81
    },
    {
      "midi": 69,
      "hit": false,
      "t": 34363.602000000006,
      "d": 818.1809999999969,
      "v": 95
    },
    {
      "midi": 74,
      "hit": false,
      "t": 34363.602000000006,
      "d": 818.1809999999969,
      "v": 87
    },
    {
      "midi": 57,
      "hit": false,
      "t": 34636.328999999976,
      "d": 272.72699999999895,
      "v": 101
    },
    {
      "midi": 62,
      "hit": false,
      "t": 34909.055999999975,
      "d": 272.72699999999895,
      "v": 101
    },
    {
      "midi": 56,
      "hit": false,
      "t": 35181.782999999974,
      "d": 272.72699999999895,
      "v": 69
    },
    {
      "midi": 71,
      "hit": false,
      "t": 35181.783,
      "d": 818.1809999999969,
      "v": 87
    },
    {
      "midi": 59,
      "hit": false,
      "t": 35454.50999999997,
      "d": 272.72699999999895,
      "v": 95
    },
    {
      "midi": 62,
      "hit": false,
      "t": 35727.23699999997,
      "d": 272.72699999999895,
      "v": 97
    },
    {
      "midi": 57,
      "hit": false,
      "t": 35999.96399999997,
      "d": 1636.362000000001,
      "v": 80
    },
    {
      "midi": 60,
      "hit": false,
      "t": 35999.96399999997,
      "d": 1636.362000000001,
      "v": 95
    },
    {
      "midi": 64,
      "hit": false,
      "t": 35999.964,
      "d": 545.4539999999979,
      "v": 92
    },
    {
      "midi": 69,
      "hit": false,
      "t": 36545.418,
      "d": 272.72699999999895,
      "v": 95
    },
    {
      "midi": 72,
      "hit": false,
      "t": 36818.145,
      "d": 545.4539999999979,
      "v": 95
    },
    {
      "midi": 76,
      "hit": false,
      "t": 37363.598999999995,
      "d": 272.72699999999895,
      "v": 97
    },
    {
      "midi": 54,
      "hit": false,
      "t": 37636.32599999997,
      "d": 272.72699999999895,
      "v": 74
    },
    {
      "midi": 69,
      "hit": false,
      "t": 37636.325999999994,
      "d": 818.1809999999969,
      "v": 89
    },
    {
      "midi": 74,
      "hit": false,
      "t": 37636.325999999994,
      "d": 818.1809999999969,
      "v": 97
    },
    {
      "midi": 57,
      "hit": false,
      "t": 37909.05299999997,
      "d": 272.72699999999895,
      "v": 92
    },
    {
      "midi": 62,
      "hit": false,
      "t": 38181.77999999997,
      "d": 272.72699999999895,
      "v": 92
    },
    {
      "midi": 56,
      "hit": false,
      "t": 38454.50699999997,
      "d": 272.72699999999895,
      "v": 63
    },
    {
      "midi": 71,
      "hit": false,
      "t": 38454.50699999999,
      "d": 818.1809999999969,
      "v": 89
    },
    {
      "midi": 59,
      "hit": false,
      "t": 38727.23399999997,
      "d": 272.72699999999895,
      "v": 97
    },
    {
      "midi": 62,
      "hit": false,
      "t": 38999.96099999997,
      "d": 272.72699999999895,
      "v": 87
    },
    {
      "midi": 57,
      "hit": false,
      "t": 39272.687999999966,
      "d": 1636.362000000001,
      "v": 95
    },
    {
      "midi": 60,
      "hit": false,
      "t": 39272.687999999966,
      "d": 1636.362000000001,
      "v": 78
    },
    {
      "midi": 64,
      "hit": false,
      "t": 39272.68799999999,
      "d": 545.4539999999979,
      "v": 92
    },
    {
      "midi": 69,
      "hit": false,
      "t": 39818.141999999985,
      "d": 272.72699999999895,
      "v": 101
    },
    {
      "midi": 72,
      "hit": false,
      "t": 40090.868999999984,
      "d": 545.4539999999979,
      "v": 101
    },
    {
      "midi": 76,
      "hit": false,
      "t": 40636.32299999998,
      "d": 272.72699999999895,
      "v": 97
    },
    {
      "midi": 54,
      "hit": false,
      "t": 40909.04999999997,
      "d": 272.72699999999895,
      "v": 72
    },
    {
      "midi": 69,
      "hit": false,
      "t": 40909.04999999998,
      "d": 818.1809999999969,
      "v": 78
    },
    {
      "midi": 74,
      "hit": false,
      "t": 40909.04999999998,
      "d": 818.1809999999969,
      "v": 89
    },
    {
      "midi": 57,
      "hit": false,
      "t": 41181.776999999965,
      "d": 272.72699999999895,
      "v": 76
    },
    {
      "midi": 62,
      "hit": false,
      "t": 41454.503999999964,
      "d": 272.72699999999895,
      "v": 108
    },
    {
      "midi": 56,
      "hit": false,
      "t": 41727.23099999996,
      "d": 272.72699999999895,
      "v": 65
    },
    {
      "midi": 71,
      "hit": false,
      "t": 41727.23099999998,
      "d": 818.1809999999969,
      "v": 89
    },
    {
      "midi": 59,
      "hit": false,
      "t": 41999.95799999996,
      "d": 272.72699999999895,
      "v": 89
    },
    {
      "midi": 62,
      "hit": false,
      "t": 42272.68499999996,
      "d": 272.72699999999895,
      "v": 82
    },
    {
      "midi": 57,
      "hit": false,
      "t": 42545.41199999996,
      "d": 1636.362000000001,
      "v": 74
    },
    {
      "midi": 60,
      "hit": false,
      "t": 42545.41199999996,
      "d": 1636.362000000001,
      "v": 74
    },
    {
      "midi": 64,
      "hit": false,
      "t": 42545.411999999975,
      "d": 818.1809999999969,
      "v": 80
    },
    {
      "midi": 67,
      "hit": false,
      "t": 42545.411999999975,
      "d": 818.1809999999969,
      "v": 61
    },
    {
      "midi": 72,
      "hit": false,
      "t": 42545.411999999975,
      "d": 818.1809999999969,
      "v": 82
    },
    {
      "midi": 72,
      "hit": false,
      "t": 43363.59299999997,
      "d": 818.1809999999969,
      "v": 80
    },
    {
      "midi": 54,
      "hit": false,
      "t": 44181.77399999996,
      "d": 1636.362000000001,
      "v": 66
    },
    {
      "midi": 57,
      "hit": false,
      "t": 44181.77399999996,
      "d": 1636.362000000001,
      "v": 101
    },
    {
      "midi": 62,
      "hit": false,
      "t": 44181.77399999997,
      "d": 545.4539999999979,
      "v": 97
    },
    {
      "midi": 69,
      "hit": false,
      "t": 44727.22799999997,
      "d": 272.72699999999895,
      "v": 89
    },
    {
      "midi": 72,
      "hit": false,
      "t": 44999.954999999965,
      "d": 545.4539999999979,
      "v": 80
    },
    {
      "midi": 69,
      "hit": false,
      "t": 45545.40899999996,
      "d": 272.72699999999895,
      "v": 92
    },
    {
      "midi": 62,
      "hit": false,
      "t": 45818.13599999996,
      "d": 818.1809999999969,
      "v": 97
    },
    {
      "midi": 70,
      "hit": false,
      "t": 45818.13599999996,
      "d": 818.1809999999969,
      "v": 61
    },
    {
      "midi": 55,
      "hit": false,
      "t": 45818.13599999996,
      "d": 1636.362000000001,
      "v": 97
    },
    {
      "midi": 58,
      "hit": false,
      "t": 45818.13599999996,
      "d": 1636.362000000001,
      "v": 77
    },
    {
      "midi": 65,
      "hit": false,
      "t": 46636.31699999996,
      "d": 818.1809999999969,
      "v": 101
    },
    {
      "midi": 64,
      "hit": false,
      "t": 47454.497999999956,
      "d": 1636.362000000001,
      "v": 84
    },
    {
      "midi": 52,
      "hit": false,
      "t": 47727.22499999996,
      "d": 272.72699999999895,
      "v": 95
    },
    {
      "midi": 50,
      "hit": false,
      "t": 47999.95199999996,
      "d": 272.72699999999895,
      "v": 84
    },
    {
      "midi": 48,
      "hit": false,
      "t": 48272.67899999996,
      "d": 818.1809999999969,
      "v": 97
    },
    {
      "midi": 65,
      "hit": false,
      "t": 49090.85999999996,
      "d": 1636.362000000001,
      "v": 92
    },
    {
      "midi": 53,
      "hit": false,
      "t": 49363.586999999956,
      "d": 272.72699999999895,
      "v": 84
    },
    {
      "midi": 57,
      "hit": false,
      "t": 49636.313999999955,
      "d": 272.72699999999895,
      "v": 82
    },
    {
      "midi": 60,
      "hit": false,
      "t": 49909.040999999954,
      "d": 272.72699999999895,
      "v": 87
    },
    {
      "midi": 57,
      "hit": false,
      "t": 50181.76799999995,
      "d": 272.72699999999895,
      "v": 78
    },
    {
      "midi": 53,
      "hit": false,
      "t": 50454.49499999995,
      "d": 545.4539999999979,
      "v": 84
    },
    {
      "midi": 69,
      "hit": false,
      "t": 50727.22199999996,
      "d": 1636.362000000001,
      "v": 78
    },
    {
      "midi": 72,
      "hit": false,
      "t": 50727.22199999996,
      "d": 1636.362000000001,
      "v": 82
    },
    {
      "midi": 57,
      "hit": false,
      "t": 50999.94899999995,
      "d": 272.72699999999895,
      "v": 92
    },
    {
      "midi": 60,
      "hit": false,
      "t": 51272.67599999995,
      "d": 272.72699999999895,
      "v": 84
    },
    {
      "midi": 64,
      "hit": false,
      "t": 51545.40299999995,
      "d": 272.72699999999895,
      "v": 95
    },
    {
      "midi": 60,
      "hit": false,
      "t": 51818.12999999995,
      "d": 272.72699999999895,
      "v": 76
    },
    {
      "midi": 57,
      "hit": false,
      "t": 52090.856999999945,
      "d": 272.72699999999895,
      "v": 84
    },
    {
      "midi": 65,
      "hit": false,
      "t": 52363.58399999996,
      "d": 2181.815999999999,
      "v": 87
    },
    {
      "midi": 50,
      "hit": false,
      "t": 52636.31099999994,
      "d": 272.72699999999895,
      "v": 80
    },
    {
      "midi": 52,
      "hit": false,
      "t": 52909.03799999994,
      "d": 272.72699999999895,
      "v": 87
    },
    {
      "midi": 53,
      "hit": false,
      "t": 53181.76499999994,
      "d": 272.72699999999895,
      "v": 69
    },
    {
      "midi": 55,
      "hit": false,
      "t": 53454.49199999994,
      "d": 272.72699999999895,
      "v": 82
    },
    {
      "midi": 57,
      "hit": false,
      "t": 53727.21899999994,
      "d": 272.72699999999895,
      "v": 74
    },
    {
      "midi": 50,
      "hit": false,
      "t": 53999.94599999994,
      "d": 818.1809999999969,
      "v": 84
    },
    {
      "midi": 57,
      "hit": false,
      "t": 54818.126999999935,
      "d": 818.1809999999969,
      "v": 92
    },
    {
      "midi": 67,
      "hit": false,
      "t": 55090.853999999956,
      "d": 272.72699999999895,
      "v": 101
    },
    {
      "midi": 69,
      "hit": false,
      "t": 55363.580999999955,
      "d": 272.72699999999895,
      "v": 92
    },
    {
      "midi": 62,
      "hit": false,
      "t": 55636.30799999995,
      "d": 1636.362000000001,
      "v": 87
    },
    {
      "midi": 70,
      "hit": false,
      "t": 55636.30799999995,
      "d": 1636.362000000001,
      "v": 72
    },
    {
      "midi": 53,
      "hit": false,
      "t": 55909.03499999993,
      "d": 272.72699999999895,
      "v": 84
    },
    {
      "midi": 58,
      "hit": false,
      "t": 56181.76199999993,
      "d": 272.72699999999895,
      "v": 77
    },
    {
      "midi": 62,
      "hit": false,
      "t": 56454.48899999993,
      "d": 272.72699999999895,
      "v": 95
    },
    {
      "midi": 58,
      "hit": false,
      "t": 56727.21599999993,
      "d": 272.72699999999895,
      "v": 96
    },
    {
      "midi": 53,
      "hit": false,
      "t": 56999.94299999993,
      "d": 545.4539999999979,
      "v": 84
    },
    {
      "midi": 65,
      "hit": false,
      "t": 57272.669999999955,
      "d": 1636.362000000001,
      "v": 82
    },
    {
      "midi": 69,
      "hit": false,
      "t": 57272.669999999955,
      "d": 1636.362000000001,
      "v": 87
    },
    {
      "midi": 53,
      "hit": false,
      "t": 57545.396999999924,
      "d": 272.72699999999895,
      "v": 82
    },
    {
      "midi": 57,
      "hit": false,
      "t": 57818.12399999992,
      "d": 272.72699999999895,
      "v": 92
    },
    {
      "midi": 60,
      "hit": false,
      "t": 58090.85099999992,
      "d": 272.72699999999895,
      "v": 84
    },
    {
      "midi": 57,
      "hit": false,
      "t": 58363.57799999992,
      "d": 272.72699999999895,
      "v": 84
    },
    {
      "midi": 53,
      "hit": false,
      "t": 58636.30499999992,
      "d": 272.72699999999895,
      "v": 84
    },
    {
      "midi": 64,
      "hit": false,
      "t": 58909.031999999956,
      "d": 3272.724000000002,
      "v": 87
    },
    {
      "midi": 67,
      "hit": false,
      "t": 58909.031999999956,
      "d": 3272.724000000002,
      "v": 101
    },
    {
      "midi": 48,
      "hit": false,
      "t": 59181.75899999992,
      "d": 272.72699999999895,
      "v": 84
    },
    {
      "midi": 52,
      "hit": false,
      "t": 59454.48599999992,
      "d": 272.72699999999895,
      "v": 89
    },
    {
      "midi": 55,
      "hit": false,
      "t": 59727.212999999916,
      "d": 272.72699999999895,
      "v": 95
    },
    {
      "midi": 52,
      "hit": false,
      "t": 59999.939999999915,
      "d": 272.72699999999895,
      "v": 82
    },
    {
      "midi": 55,
      "hit": false,
      "t": 60272.666999999914,
      "d": 272.72699999999895,
      "v": 95
    },
    {
      "midi": 58,
      "hit": false,
      "t": 60545.39399999991,
      "d": 272.72699999999895,
      "v": 77
    },
    {
      "midi": 55,
      "hit": false,
      "t": 60818.12099999991,
      "d": 272.72699999999895,
      "v": 95
    },
    {
      "midi": 52,
      "hit": false,
      "t": 61090.84799999991,
      "d": 272.72699999999895,
      "v": 97
    },
    {
      "midi": 48,
      "hit": false,
      "t": 61363.57499999991,
      "d": 818.1809999999969,
      "v": 89
    },
    {
      "midi": 60,
      "hit": false,
      "t": 61909.02899999996,
      "d": 272.72699999999895,
      "v": 89
    },
    {
      "midi": 58,
      "hit": false,
      "t": 62181.75599999996,
      "d": 1636.362000000001,
      "v": 72
    },
    {
      "midi": 62,
      "hit": false,
      "t": 62181.75599999996,
      "d": 1636.362000000001,
      "v": 89
    },
    {
      "midi": 46,
      "hit": false,
      "t": 62454.482999999906,
      "d": 272.72699999999895,
      "v": 81
    },
    {
      "midi": 48,
      "hit": false,
      "t": 62727.209999999905,
      "d": 272.72699999999895,
      "v": 82
    },
    {
      "midi": 50,
      "hit": false,
      "t": 62999.9369999999,
      "d": 272.72699999999895,
      "v": 89
    },
    {
      "midi": 52,
      "hit": false,
      "t": 63272.6639999999,
      "d": 272.72699999999895,
      "v": 87
    },
    {
      "midi": 53,
      "hit": false,
      "t": 63545.3909999999,
      "d": 545.4539999999979,
      "v": 78
    },
    {
      "midi": 60,
      "hit": false,
      "t": 63818.11799999996,
      "d": 1636.362000000001,
      "v": 89
    },
    {
      "midi": 64,
      "hit": false,
      "t": 63818.11799999996,
      "d": 1636.362000000001,
      "v": 104
    },
    {
      "midi": 48,
      "hit": false,
      "t": 64090.8449999999,
      "d": 272.72699999999895,
      "v": 84
    },
    {
      "midi": 50,
      "hit": false,
      "t": 64363.5719999999,
      "d": 272.72699999999895,
      "v": 78
    },
    {
      "midi": 52,
      "hit": false,
      "t": 64636.2989999999,
      "d": 272.72699999999895,
      "v": 92
    },
    {
      "midi": 53,
      "hit": false,
      "t": 64909.025999999896,
      "d": 272.72699999999895,
      "v": 72
    },
    {
      "midi": 55,
      "hit": false,
      "t": 65181.752999999895,
      "d": 272.72699999999895,
      "v": 92
    },
    {
      "midi": 62,
      "hit": false,
      "t": 65454.47999999996,
      "d": 1636.362000000001,
      "v": 97
    },
    {
      "midi": 65,
      "hit": false,
      "t": 65454.47999999996,
      "d": 1636.362000000001,
      "v": 92
    },
    {
      "midi": 50,
      "hit": false,
      "t": 65727.2069999999,
      "d": 272.72699999999895,
      "v": 87
    },
    {
      "midi": 52,
      "hit": false,
      "t": 65999.93399999989,
      "d": 272.72699999999895,
      "v": 78
    },
    {
      "midi": 53,
      "hit": false,
      "t": 66272.66099999989,
      "d": 272.72699999999895,
      "v": 87
    },
    {
      "midi": 55,
      "hit": false,
      "t": 66545.38799999989,
      "d": 272.72699999999895,
      "v": 82
    },
    {
      "midi": 57,
      "hit": false,
      "t": 66818.11499999989,
      "d": 272.72699999999895,
      "v": 82
    },
    {
      "midi": 55,
      "hit": false,
      "t": 67090.84199999989,
      "d": 1636.3619999999937,
      "v": 97
    },
    {
      "midi": 58,
      "hit": false,
      "t": 67090.84199999989,
      "d": 1636.3619999999937,
      "v": 96
    },
    {
      "midi": 62,
      "hit": false,
      "t": 67090.84199999996,
      "d": 545.4539999999979,
      "v": 92
    },
    {
      "midi": 67,
      "hit": false,
      "t": 67090.84199999996,
      "d": 545.4539999999979,
      "v": 97
    },
    {
      "midi": 69,
      "hit": false,
      "t": 67636.29599999996,
      "d": 545.4539999999979,
      "v": 97
    },
    {
      "midi": 70,
      "hit": false,
      "t": 68181.74999999996,
      "d": 545.4539999999979,
      "v": 72
    },
    {
      "midi": 65,
      "hit": false,
      "t": 68727.20399999995,
      "d": 1636.3619999999937,
      "v": 80
    },
    {
      "midi": 69,
      "hit": false,
      "t": 68727.20399999995,
      "d": 1636.3619999999937,
      "v": 80
    },
    {
      "midi": 48,
      "hit": false,
      "t": 68999.93099999988,
      "d": 272.72699999999895,
      "v": 92
    },
    {
      "midi": 53,
      "hit": false,
      "t": 69272.65799999988,
      "d": 272.72699999999895,
      "v": 95
    },
    {
      "midi": 57,
      "hit": false,
      "t": 69545.38499999988,
      "d": 272.72699999999895,
      "v": 87
    },
    {
      "midi": 53,
      "hit": false,
      "t": 69818.11199999988,
      "d": 272.72699999999895,
      "v": 87
    },
    {
      "midi": 48,
      "hit": false,
      "t": 70090.83899999988,
      "d": 545.4539999999979,
      "v": 84
    },
    {
      "midi": 64,
      "hit": false,
      "t": 70363.56599999995,
      "d": 1636.3619999999937,
      "v": 82
    },
    {
      "midi": 67,
      "hit": false,
      "t": 70363.56599999995,
      "d": 1636.3619999999937,
      "v": 97
    },
    {
      "midi": 48,
      "hit": false,
      "t": 70636.29299999987,
      "d": 272.72699999999895,
      "v": 89
    },
    {
      "midi": 55,
      "hit": false,
      "t": 70909.01999999987,
      "d": 272.72699999999895,
      "v": 95
    },
    {
      "midi": 58,
      "hit": false,
      "t": 71181.74699999987,
      "d": 272.72699999999895,
      "v": 84
    },
    {
      "midi": 55,
      "hit": false,
      "t": 71454.47399999987,
      "d": 272.72699999999895,
      "v": 97
    },
    {
      "midi": 48,
      "hit": false,
      "t": 71727.20099999987,
      "d": 272.72699999999895,
      "v": 82
    },
    {
      "midi": 65,
      "hit": false,
      "t": 71999.92799999994,
      "d": 1636.3619999999937,
      "v": 108
    },
    {
      "midi": 53,
      "hit": false,
      "t": 72272.65499999987,
      "d": 272.72699999999895,
      "v": 82
    },
    {
      "midi": 57,
      "hit": false,
      "t": 72545.38199999987,
      "d": 272.72699999999895,
      "v": 95
    },
    {
      "midi": 60,
      "hit": false,
      "t": 72818.10899999987,
      "d": 272.72699999999895,
      "v": 87
    },
    {
      "midi": 57,
      "hit": false,
      "t": 73090.83599999986,
      "d": 272.72699999999895,
      "v": 67
    },
    {
      "midi": 53,
      "hit": false,
      "t": 73363.56299999986,
      "d": 272.72699999999895,
      "v": 76
    },
    {
      "midi": 60,
      "hit": false,
      "t": 73636.28999999986,
      "d": 1636.3619999999937,
      "v": 66
    },
    {
      "midi": 69,
      "hit": false,
      "t": 73636.28999999994,
      "d": 1636.3619999999937,
      "v": 84
    },
    {
      "midi": 77,
      "hit": false,
      "t": 73636.28999999994,
      "d": 1636.3619999999937,
      "v": 72
    }
  ]
}