{
  "jsonPath": "Unknown/Unknown/Sli/its-good-to-be-a-lover.json",
  "path": "Unknown\\Unknown\\Sli\\Its Good To Be A Lover.mid",
  "name": "Its Good To Be A Lover",
  "difficulty": "Advanced",
  "bpm": 75,
  "notes": [
    {
      "midi": 43,
      "hit": false,
      "t": 6600,
      "d": 2933.333333333332,
      "v": 68
    },
    {
      "midi": 59,
      "hit": false,
      "t": 6800,
      "d": 2686.666666666666,
      "v": 74
    },
    {
      "midi": 62,
      "hit": false,
      "t": 7000,
      "d": 2426.666666666666,
      "v": 45
    },
    {
      "midi": 67,
      "hit": false,
      "t": 7000,
      "d": 2426.666666666666,
      "v": 71
    },
    {
      "midi": 71,
      "hit": false,
      "t": 7000,
      "d": 2446.666666666666,
      "v": 71
    },
    {
      "midi": 57,
      "hit": false,
      "t": 9599.999999999998,
      "d": 1133.333333333334,
      "v": 76
    },
    {
      "midi": 64,
      "hit": false,
      "t": 9999.999999999998,
      "d": 733.3333333333339,
      "v": 68
    },
    {
      "midi": 66,
      "hit": false,
      "t": 10399.999999999998,
      "d": 333.33333333333394,
      "v": 85
    },
    {
      "midi": 55,
      "hit": false,
      "t": 10813.333333333332,
      "d": 1726.666666666666,
      "v": 72
    },
    {
      "midi": 59,
      "hit": false,
      "t": 10813.333333333332,
      "d": 1726.666666666666,
      "v": 72
    },
    {
      "midi": 63,
      "hit": false,
      "t": 12419.999999999998,
      "d": 120,
      "v": 66
    },
    {
      "midi": 67,
      "hit": false,
      "t": 12626.666666666664,
      "d": 173.33333333333394,
      "v": 70
    },
    {
      "midi": 40,
      "hit": false,
      "t": 12999.999999999998,
      "d": 2933.333333333332,
      "v": 68
    },
    {
      "midi": 52,
      "hit": false,
      "t": 13199.999999999998,
      "d": 2686.666666666666,
      "v": 74
    },
    {
      "midi": 55,
      "hit": false,
      "t": 13399.999999999998,
      "d": 2426.666666666666,
      "v": 45
    },
    {
      "midi": 62,
      "hit": false,
      "t": 13399.999999999998,
      "d": 2426.666666666666,
      "v": 71
    },
    {
      "midi": 64,
      "hit": false,
      "t": 13399.999999999998,
      "d": 2446.666666666666,
      "v": 71
    },
    {
      "midi": 45,
      "hit": false,
      "t": 16199.999999999996,
      "d": 933.3333333333321,
      "v": 74
    },
    {
      "midi": 52,
      "hit": false,
      "t": 16399.999999999996,
      "d": 733.3333333333321,
      "v": 74
    },
    {
      "midi": 55,
      "hit": false,
      "t": 16599.999999999996,
      "d": 533.3333333333321,
      "v": 39
    },
    {
      "midi": 60,
      "hit": false,
      "t": 16599.999999999996,
      "d": 533.3333333333321,
      "v": 65
    },
    {
      "midi": 64,
      "hit": false,
      "t": 16599.999999999996,
      "d": 533.3333333333321,
      "v": 63
    },
    {
      "midi": 50,
      "hit": false,
      "t": 17799.999999999996,
      "d": 1400,
      "v": 74
    },
    {
      "midi": 60,
      "hit": false,
      "t": 17999.999999999996,
      "d": 1200,
      "v": 85
    },
    {
      "midi": 64,
      "hit": false,
      "t": 18199.999999999996,
      "d": 1000,
      "v": 65
    },
    {
      "midi": 67,
      "hit": false,
      "t": 18199.999999999996,
      "d": 1000,
      "v": 87
    },
    {
      "midi": 72,
      "hit": false,
      "t": 18199.999999999996,
      "d": 1000,
      "v": 63
    },
    {
      "midi": 55,
      "hit": false,
      "t": 19226.666666666664,
      "d": 1820,
      "v": 74
    },
    {
      "midi": 59,
      "hit": false,
      "t": 19226.666666666664,
      "d": 1820,
      "v": 74
    },
    {
      "midi": 62,
      "hit": false,
      "t": 19226.666666666664,
      "d": 1820,
      "v": 74
    },
    {
      "midi": 43,
      "hit": false,
      "t": 21219.999999999996,
      "d": 453.3333333333321,
      "v": 78
    },
    {
      "midi": 55,
      "hit": false,
      "t": 21613.33333333333,
      "d": 560,
      "v": 74
    },
    {
      "midi": 59,
      "hit": false,
      "t": 21613.33333333333,
      "d": 560,
      "v": 74
    },
    {
      "midi": 62,
      "hit": false,
      "t": 21613.33333333333,
      "d": 560,
      "v": 74
    },
    {
      "midi": 54,
      "hit": false,
      "t": 22599.999999999996,
      "d": 933.3333333333321,
      "v": 74
    },
    {
      "midi": 57,
      "hit": false,
      "t": 22799.999999999996,
      "d": 733.3333333333321,
      "v": 74
    },
    {
      "midi": 64,
      "hit": false,
      "t": 22999.999999999996,
      "d": 533.3333333333321,
      "v": 39
    },
    {
      "midi": 66,
      "hit": false,
      "t": 22999.999999999996,
      "d": 533.3333333333321,
      "v": 65
    },
    {
      "midi": 69,
      "hit": false,
      "t": 22999.999999999996,
      "d": 533.3333333333321,
      "v": 63
    },
    {
      "midi": 47,
      "hit": false,
      "t": 24199.999999999996,
      "d": 1400,
      "v": 74
    },
    {
      "midi": 59,
      "hit": false,
      "t": 24399.999999999996,
      "d": 1200,
      "v": 85
    },
    {
      "midi": 63,
      "hit": false,
      "t": 24599.999999999996,
      "d": 1000,
      "v": 65
    },
    {
      "midi": 67,
      "hit": false,
      "t": 24599.999999999996,
      "d": 1000,
      "v": 87
    },
    {
      "midi": 71,
      "hit": false,
      "t": 24599.999999999996,
      "d": 1000,
      "v": 63
    },
    {
      "midi": 67,
      "hit": false,
      "t": 25599.999999999996,
      "d": 2533.3333333333358,
      "v": 72
    },
    {
      "midi": 59,
      "hit": false,
      "t": 25599.999999999996,
      "d": 2626.666666666668,
      "v": 72
    },
    {
      "midi": 62,
      "hit": false,
      "t": 25599.999999999996,
      "d": 2626.666666666668,
      "v": 72
    },
    {
      "midi": 64,
      "hit": false,
      "t": 28026.666666666664,
      "d": 200,
      "v": 61
    },
    {
      "midi": 60,
      "hit": false,
      "t": 28413.333333333332,
      "d": 1320,
      "v": 72
    },
    {
      "midi": 64,
      "hit": false,
      "t": 28413.333333333332,
      "d": 1320,
      "v": 72
    },
    {
      "midi": 67,
      "hit": false,
      "t": 28413.333333333332,
      "d": 1520,
      "v": 72
    },
    {
      "midi": 69,
      "hit": false,
      "t": 28413.333333333332,
      "d": 1520,
      "v": 72
    },
    {
      "midi": 50,
      "hit": false,
      "t": 30000,
      "d": 1986.6666666666679,
      "v": 71
    },
    {
      "midi": 55,
      "hit": false,
      "t": 30000,
      "d": 1986.6666666666679,
      "v": 15
    },
    {
      "midi": 60,
      "hit": false,
      "t": 30000,
      "d": 1986.6666666666679,
      "v": 26
    },
    {
      "midi": 64,
      "hit": false,
      "t": 30000,
      "d": 1986.6666666666679,
      "v": 63
    },
    {
      "midi": 67,
      "hit": false,
      "t": 30000,
      "d": 1986.6666666666679,
      "v": 58
    },
    {
      "midi": 55,
      "hit": false,
      "t": 32053.333333333336,
      "d": 2880,
      "v": 78
    },
    {
      "midi": 59,
      "hit": false,
      "t": 32053.333333333336,
      "d": 2880,
      "v": 78
    },
    {
      "midi": 62,
      "hit": false,
      "t": 32053.333333333336,
      "d": 2880,
      "v": 78
    },
    {
      "midi": 54,
      "hit": false,
      "t": 35400,
      "d": 2933.3333333333285,
      "v": 68
    },
    {
      "midi": 57,
      "hit": false,
      "t": 35600,
      "d": 2686.6666666666642,
      "v": 74
    },
    {
      "midi": 62,
      "hit": false,
      "t": 35800,
      "d": 2426.6666666666642,
      "v": 45
    },
    {
      "midi": 66,
      "hit": false,
      "t": 35800,
      "d": 2426.6666666666642,
      "v": 71
    },
    {
      "midi": 69,
      "hit": false,
      "t": 35800,
      "d": 2446.6666666666642,
      "v": 71
    },
    {
      "midi": 40,
      "hit": false,
      "t": 38599.99999999999,
      "d": 1400,
      "v": 74
    },
    {
      "midi": 59,
      "hit": false,
      "t": 38799.99999999999,
      "d": 1200,
      "v": 85
    },
    {
      "midi": 64,
      "hit": false,
      "t": 38999.99999999999,
      "d": 1000,
      "v": 65
    },
    {
      "midi": 67,
      "hit": false,
      "t": 38999.99999999999,
      "d": 1000,
      "v": 87
    },
    {
      "midi": 71,
      "hit": false,
      "t": 38999.99999999999,
      "d": 1000,
      "v": 63
    },
    {
      "midi": 60,
      "hit": false,
      "t": 40013.33333333333,
      "d": 1340,
      "v": 72
    },
    {
      "midi": 64,
      "hit": false,
      "t": 40013.33333333333,
      "d": 1340,
      "v": 72
    },
    {
      "midi": 69,
      "hit": false,
      "t": 40013.33333333333,
      "d": 1340,
      "v": 72
    },
    {
      "midi": 65,
      "hit": false,
      "t": 41219.99999999999,
      "d": 133.33333333333576,
      "v": 66
    },
    {
      "midi": 69,
      "hit": false,
      "t": 41426.666666666664,
      "d": 173.33333333333576,
      "v": 70
    },
    {
      "midi": 48,
      "hit": false,
      "t": 41600,
      "d": 1600,
      "v": 71
    },
    {
      "midi": 55,
      "hit": false,
      "t": 41600,
      "d": 1600,
      "v": 15
    },
    {
      "midi": 59,
      "hit": false,
      "t": 41600,
      "d": 1600,
      "v": 26
    },
    {
      "midi": 64,
      "hit": false,
      "t": 41600,
      "d": 1600,
      "v": 63
    },
    {
      "midi": 67,
      "hit": false,
      "t": 41600,
      "d": 1600,
      "v": 58
    },
    {
      "midi": 59,
      "hit": false,
      "t": 43226.666666666664,
      "d": 773.3333333333358,
      "v": 80
    },
    {
      "midi": 62,
      "hit": false,
      "t": 43226.666666666664,
      "d": 773.3333333333358,
      "v": 80
    },
    {
      "midi": 64,
      "hit": false,
      "t": 43226.666666666664,
      "d": 773.3333333333358,
      "v": 80
    },
    {
      "midi": 67,
      "hit": false,
      "t": 43226.666666666664,
      "d": 773.3333333333358,
      "v": 80
    },
    {
      "midi": 50,
      "hit": false,
      "t": 44000,
      "d": 800,
      "v": 71
    },
    {
      "midi": 55,
      "hit": false,
      "t": 44000,
      "d": 800,
      "v": 15
    },
    {
      "midi": 60,
      "hit": false,
      "t": 44000,
      "d": 800,
      "v": 26
    },
    {
      "midi": 64,
      "hit": false,
      "t": 44000,
      "d": 800,
      "v": 63
    },
    {
      "midi": 67,
      "hit": false,
      "t": 44000,
      "d": 800,
      "v": 58
    },
    {
      "midi": 43,
      "hit": false,
      "t": 45000,
      "d": 2933.3333333333285,
      "v": 68
    },
    {
      "midi": 59,
      "hit": false,
      "t": 45200,
      "d": 2686.6666666666642,
      "v": 74
    },
    {
      "midi": 62,
      "hit": false,
      "t": 45400,
      "d": 2426.6666666666642,
      "v": 45
    },
    {
      "midi": 67,
      "hit": false,
      "t": 45400,
      "d": 2426.6666666666642,
      "v": 71
    },
    {
      "midi": 71,
      "hit": false,
      "t": 45400,
      "d": 2446.6666666666642,
      "v": 71
    },
    {
      "midi": 54,
      "hit": false,
      "t": 48199.99999999999,
      "d": 2933.3333333333285,
      "v": 68
    },
    {
      "midi": 57,
      "hit": false,
      "t": 48399.99999999999,
      "d": 2686.6666666666642,
      "v": 74
    },
    {
      "midi": 62,
      "hit": false,
      "t": 48599.99999999999,
      "d": 2426.6666666666642,
      "v": 45
    },
    {
      "midi": 66,
      "hit": false,
      "t": 48599.99999999999,
      "d": 2426.6666666666642,
      "v": 71
    },
    {
      "midi": 69,
      "hit": false,
      "t": 48599.99999999999,
      "d": 2446.6666666666642,
      "v": 71
    },
    {
      "midi": 40,
      "hit": false,
      "t": 51199.999999999985,
      "d": 1600,
      "v": 71
    },
    {
      "midi": 55,
      "hit": false,
      "t": 51199.999999999985,
      "d": 1600,
      "v": 15
    },
    {
      "midi": 59,
      "hit": false,
      "t": 51199.999999999985,
      "d": 1600,
      "v": 26
    },
    {
      "midi": 64,
      "hit": false,
      "t": 51199.999999999985,
      "d": 1600,
      "v": 63
    },
    {
      "midi": 67,
      "hit": false,
      "t": 51199.999999999985,
      "d": 1600,
      "v": 58
    },
    {
      "midi": 50,
      "hit": false,
      "t": 52799.999999999985,
      "d": 1600,
      "v": 71
    },
    {
      "midi": 57,
      "hit": false,
      "t": 52799.999999999985,
      "d": 1600,
      "v": 15
    },
    {
      "midi": 60,
      "hit": false,
      "t": 52799.999999999985,
      "d": 1600,
      "v": 26
    },
    {
      "midi": 65,
      "hit": false,
      "t": 52799.999999999985,
      "d": 1600,
      "v": 63
    },
    {
      "midi": 69,
      "hit": false,
      "t": 52799.999999999985,
      "d": 1600,
      "v": 58
    },
    {
      "midi": 59,
      "hit": false,
      "t": 54419.999999999985,
      "d": 1193.3333333333285,
      "v": 82
    },
    {
      "midi": 62,
      "hit": false,
      "t": 54419.999999999985,
      "d": 1193.3333333333285,
      "v": 82
    },
    {
      "midi": 64,
      "hit": false,
      "t": 54419.999999999985,
      "d": 1193.3333333333285,
      "v": 82
    },
    {
      "midi": 67,
      "hit": false,
      "t": 54419.999999999985,
      "d": 1193.3333333333285,
      "v": 82
    },
    {
      "midi": 48,
      "hit": false,
      "t": 55586.66666666665,
      "d": 1946.666666666657,
      "v": 63
    },
    {
      "midi": 60,
      "hit": false,
      "t": 56013.333333333314,
      "d": 1533.3333333333285,
      "v": 66
    },
    {
      "midi": 64,
      "hit": false,
      "t": 56399.99999999998,
      "d": 1119.9999999999927,
      "v": 68
    },
    {
      "midi": 67,
      "hit": false,
      "t": 56826.66666666664,
      "d": 680,
      "v": 82
    },
    {
      "midi": 71,
      "hit": false,
      "t": 57186.66666666664,
      "d": 320,
      "v": 59
    },
    {
      "midi": 62,
      "hit": false,
      "t": 57599.99999999998,
      "d": 2086.6666666666642,
      "v": 63
    },
    {
      "midi": 67,
      "hit": false,
      "t": 57599.99999999998,
      "d": 2293.3333333333358,
      "v": 77
    },
    {
      "midi": 71,
      "hit": false,
      "t": 57599.99999999998,
      "d": 2573.3333333333358,
      "v": 81
    },
    {
      "midi": 43,
      "hit": false,
      "t": 57599.99999999998,
      "d": 3039.9999999999927,
      "v": 77
    },
    {
      "midi": 59,
      "hit": false,
      "t": 59399.99999999998,
      "d": 1186.6666666666642,
      "v": 77
    },
    {
      "midi": 62,
      "hit": false,
      "t": 59799.99999999998,
      "d": 819.9999999999927,
      "v": 90
    },
    {
      "midi": 67,
      "hit": false,
      "t": 60199.99999999998,
      "d": 413.3333333333285,
      "v": 60
    },
    {
      "midi": 71,
      "hit": false,
      "t": 60399.99999999998,
      "d": 213.33333333332848,
      "v": 81
    },
    {
      "midi": 57,
      "hit": false,
      "t": 60799.99999999997,
      "d": 520,
      "v": 68
    },
    {
      "midi": 64,
      "hit": false,
      "t": 60799.99999999997,
      "d": 520,
      "v": 68
    },
    {
      "midi": 66,
      "hit": false,
      "t": 60799.99999999997,
      "d": 520,
      "v": 68
    },
    {
      "midi": 54,
      "hit": false,
      "t": 61199.99999999997,
      "d": 780,
      "v": 78
    },
    {
      "midi": 57,
      "hit": false,
      "t": 61599.99999999997,
      "d": 333.33333333333576,
      "v": 80
    },
    {
      "midi": 64,
      "hit": false,
      "t": 61599.99999999997,
      "d": 333.33333333333576,
      "v": 80
    },
    {
      "midi": 66,
      "hit": false,
      "t": 61599.99999999997,
      "d": 333.33333333333576,
      "v": 80
    },
    {
      "midi": 47,
      "hit": false,
      "t": 62599.99999999997,
      "d": 1400,
      "v": 74
    },
    {
      "midi": 55,
      "hit": false,
      "t": 62799.99999999997,
      "d": 1200,
      "v": 74
    },
    {
      "midi": 59,
      "hit": false,
      "t": 62999.99999999997,
      "d": 1000,
      "v": 39
    },
    {
      "midi": 63,
      "hit": false,
      "t": 62999.99999999997,
      "d": 1000,
      "v": 65
    },
    {
      "midi": 67,
      "hit": false,
      "t": 62999.99999999997,
      "d": 1000,
      "v": 63
    },
    {
      "midi": 59,
      "hit": false,
      "t": 64019.99999999997,
      "d": 2306.6666666666715,
      "v": 87
    },
    {
      "midi": 62,
      "hit": false,
      "t": 64019.99999999997,
      "d": 2306.6666666666715,
      "v": 87
    },
    {
      "midi": 64,
      "hit": false,
      "t": 64019.99999999997,
      "d": 2306.6666666666715,
      "v": 87
    },
    {
      "midi": 67,
      "hit": false,
      "t": 64019.99999999997,
      "d": 2306.6666666666715,
      "v": 87
    },
    {
      "midi": 71,
      "hit": false,
      "t": 66019.99999999997,
      "d": 480,
      "v": 68
    },
    {
      "midi": 67,
      "hit": false,
      "t": 66419.99999999997,
      "d": 466.66666666665697,
      "v": 64
    },
    {
      "midi": 64,
      "hit": false,
      "t": 66833.3333333333,
      "d": 346.66666666665697,
      "v": 91
    },
    {
      "midi": 45,
      "hit": false,
      "t": 67399.99999999996,
      "d": 933.3333333333285,
      "v": 74
    },
    {
      "midi": 55,
      "hit": false,
      "t": 67599.99999999996,
      "d": 733.3333333333285,
      "v": 85
    },
    {
      "midi": 60,
      "hit": false,
      "t": 67799.99999999996,
      "d": 533.3333333333285,
      "v": 65
    },
    {
      "midi": 64,
      "hit": false,
      "t": 67799.99999999996,
      "d": 533.3333333333285,
      "v": 87
    },
    {
      "midi": 67,
      "hit": false,
      "t": 67799.99999999996,
      "d": 533.3333333333285,
      "v": 63
    },
    {
      "midi": 55,
      "hit": false,
      "t": 68399.99999999996,
      "d": 1986.6666666666715,
      "v": 80
    },
    {
      "midi": 60,
      "hit": false,
      "t": 68399.99999999996,
      "d": 1986.6666666666715,
      "v": 80
    },
    {
      "midi": 64,
      "hit": false,
      "t": 68399.99999999996,
      "d": 1986.6666666666715,
      "v": 80
    },
    {
      "midi": 55,
      "hit": false,
      "t": 70419.99999999996,
      "d": 1193.333333333343,
      "v": 82
    },
    {
      "midi": 59,
      "hit": false,
      "t": 70419.99999999996,
      "d": 1193.333333333343,
      "v": 82
    },
    {
      "midi": 62,
      "hit": false,
      "t": 70419.99999999996,
      "d": 1193.333333333343,
      "v": 82
    },
    {
      "midi": 43,
      "hit": false,
      "t": 71586.66666666663,
      "d": 1946.666666666686,
      "v": 63
    },
    {
      "midi": 55,
      "hit": false,
      "t": 72013.3333333333,
      "d": 1533.333333333343,
      "v": 66
    },
    {
      "midi": 59,
      "hit": false,
      "t": 72399.99999999997,
      "d": 1120.0000000000146,
      "v": 68
    },
    {
      "midi": 62,
      "hit": false,
      "t": 72826.66666666664,
      "d": 680,
      "v": 82
    },
    {
      "midi": 67,
      "hit": false,
      "t": 73186.66666666664,
      "d": 320,
      "v": 59
    },
    {
      "midi": 54,
      "hit": false,
      "t": 73799.99999999997,
      "d": 933.3333333333285,
      "v": 74
    },
    {
      "midi": 64,
      "hit": false,
      "t": 73999.99999999997,
      "d": 733.3333333333285,
      "v": 85
    },
    {
      "midi": 66,
      "hit": false,
      "t": 74199.99999999997,
      "d": 533.3333333333285,
      "v": 65
    },
    {
      "midi": 69,
      "hit": false,
      "t": 74199.99999999997,
      "d": 533.3333333333285,
      "v": 87
    },
    {
      "midi": 76,
      "hit": false,
      "t": 74199.99999999997,
      "d": 533.3333333333285,
      "v": 63
    },
    {
      "midi": 47,
      "hit": false,
      "t": 75399.99999999997,
      "d": 1400,
      "v": 74
    },
    {
      "midi": 55,
      "hit": false,
      "t": 75599.99999999997,
      "d": 1200,
      "v": 74
    },
    {
      "midi": 59,
      "hit": false,
      "t": 75799.99999999997,
      "d": 1000,
      "v": 39
    },
    {
      "midi": 63,
      "hit": false,
      "t": 75799.99999999997,
      "d": 1000,
      "v": 65
    },
    {
      "midi": 67,
      "hit": false,
      "t": 75799.99999999997,
      "d": 1000,
      "v": 63
    },
    {
      "midi": 55,
      "hit": false,
      "t": 76799.99999999997,
      "d": 2060,
      "v": 48
    },
    {
      "midi": 62,
      "hit": false,
      "t": 76799.99999999997,
      "d": 2206.6666666666715,
      "v": 60
    },
    {
      "midi": 64,
      "hit": false,
      "t": 76799.99999999997,
      "d": 2220,
      "v": 65
    },
    {
      "midi": 40,
      "hit": false,
      "t": 76799.99999999997,
      "d": 2733.3333333333285,
      "v": 71
    },
    {
      "midi": 52,
      "hit": false,
      "t": 78599.99999999997,
      "d": 933.3333333333285,
      "v": 94
    },
    {
      "midi": 55,
      "hit": false,
      "t": 79006.66666666664,
      "d": 526.666666666657,
      "v": 85
    },
    {
      "midi": 64,
      "hit": false,
      "t": 79599.99999999997,
      "d": 133.33333333332848,
      "v": 80
    },
    {
      "midi": 60,
      "hit": false,
      "t": 79599.99999999997,
      "d": 1533.3333333333285,
      "v": 80
    },
    {
      "midi": 67,
      "hit": false,
      "t": 79599.99999999997,
      "d": 1533.3333333333285,
      "v": 80
    },
    {
      "midi": 69,
      "hit": false,
      "t": 79599.99999999997,
      "d": 1533.3333333333285,
      "v": 80
    },
    {
      "midi": 55,
      "hit": false,
      "t": 81213.3333333333,
      "d": 1726.6666666666715,
      "v": 72
    },
    {
      "midi": 60,
      "hit": false,
      "t": 81213.3333333333,
      "d": 1726.6666666666715,
      "v": 72
    },
    {
      "midi": 64,
      "hit": false,
      "t": 82819.99999999997,
      "d": 120,
      "v": 66
    },
    {
      "midi": 67,
      "hit": false,
      "t": 83026.66666666664,
      "d": 173.33333333332848,
      "v": 70
    },
    {
      "midi": 59,
      "hit": false,
      "t": 83199.99999999997,
      "d": 2626.6666666666715,
      "v": 72
    },
    {
      "midi": 62,
      "hit": false,
      "t": 83199.99999999997,
      "d": 2626.6666666666715,
      "v": 72
    },
    {
      "midi": 55,
      "hit": false,
      "t": 85626.66666666664,
      "d": 200,
      "v": 61
    },
    {
      "midi": 59,
      "hit": false,
      "t": 85833.33333333331,
      "d": 280,
      "v": 74
    },
    {
      "midi": 62,
      "hit": false,
      "t": 86033.33333333331,
      "d": 260,
      "v": 68
    },
    {
      "midi": 67,
      "hit": false,
      "t": 86239.99999999999,
      "d": 146.66666666665697,
      "v": 68
    },
    {
      "midi": 54,
      "hit": false,
      "t": 86399.99999999997,
      "d": 2626.6666666666715,
      "v": 72
    },
    {
      "midi": 57,
      "hit": false,
      "t": 86399.99999999997,
      "d": 2626.6666666666715,
      "v": 72
    },
    {
      "midi": 62,
      "hit": false,
      "t": 88826.66666666664,
      "d": 200,
      "v": 61
    },
    {
      "midi": 66,
      "hit": false,
      "t": 89033.33333333331,
      "d": 280,
      "v": 74
    },
    {
      "midi": 69,
      "hit": false,
      "t": 89233.33333333331,
      "d": 260,
      "v": 68
    },
    {
      "midi": 74,
      "hit": false,
      "t": 89439.99999999999,
      "d": 146.66666666665697,
      "v": 68
    },
    {
      "midi": 55,
      "hit": false,
      "t": 89599.99999999997,
      "d": 520,
      "v": 68
    },
    {
      "midi": 59,
      "hit": false,
      "t": 89599.99999999997,
      "d": 520,
      "v": 68
    },
    {
      "midi": 64,
      "hit": false,
      "t": 89599.99999999997,
      "d": 520,
      "v": 68
    },
    {
      "midi": 52,
      "hit": false,
      "t": 89999.99999999997,
      "d": 780,
      "v": 78
    },
    {
      "midi": 55,
      "hit": false,
      "t": 90399.99999999997,
      "d": 446.6666666666715,
      "v": 80
    },
    {
      "midi": 59,
      "hit": false,
      "t": 90399.99999999997,
      "d": 446.6666666666715,
      "v": 80
    },
    {
      "midi": 64,
      "hit": false,
      "t": 90399.99999999997,
      "d": 446.6666666666715,
      "v": 80
    },
    {
      "midi": 60,
      "hit": false,
      "t": 91199.99999999997,
      "d": 1600,
      "v": 80
    },
    {
      "midi": 64,
      "hit": false,
      "t": 91199.99999999997,
      "d": 1600,
      "v": 80
    },
    {
      "midi": 65,
      "hit": false,
      "t": 91199.99999999997,
      "d": 1600,
      "v": 80
    },
    {
      "midi": 69,
      "hit": false,
      "t": 91199.99999999997,
      "d": 1600,
      "v": 80
    },
    {
      "midi": 59,
      "hit": false,
      "t": 92813.3333333333,
      "d": 1340,
      "v": 72
    },
    {
      "midi": 62,
      "hit": false,
      "t": 92813.3333333333,
      "d": 1340,
      "v": 72
    },
    {
      "midi": 67,
      "hit": false,
      "t": 92813.3333333333,
      "d": 1340,
      "v": 72
    },
    {
      "midi": 64,
      "hit": false,
      "t": 94019.99999999997,
      "d": 133.33333333332848,
      "v": 66
    },
    {
      "midi": 67,
      "hit": false,
      "t": 94226.66666666663,
      "d": 173.33333333332848,
      "v": 70
    },
    {
      "midi": 59,
      "hit": false,
      "t": 94426.66666666663,
      "d": 773.3333333333285,
      "v": 80
    },
    {
      "midi": 62,
      "hit": false,
      "t": 94426.66666666663,
      "d": 773.3333333333285,
      "v": 80
    },
    {
      "midi": 64,
      "hit": false,
      "t": 94426.66666666663,
      "d": 773.3333333333285,
      "v": 80
    },
    {
      "midi": 67,
      "hit": false,
      "t": 94426.66666666663,
      "d": 773.3333333333285,
      "v": 80
    },
    {
      "midi": 50,
      "hit": false,
      "t": 95199.99999999996,
      "d": 800,
      "v": 71
    },
    {
      "midi": 55,
      "hit": false,
      "t": 95199.99999999996,
      "d": 800,
      "v": 15
    },
    {
      "midi": 60,
      "hit": false,
      "t": 95199.99999999996,
      "d": 800,
      "v": 26
    },
    {
      "midi": 64,
      "hit": false,
      "t": 95199.99999999996,
      "d": 800,
      "v": 63
    },
    {
      "midi": 67,
      "hit": false,
      "t": 95199.99999999996,
      "d": 800,
      "v": 58
    },
    {
      "midi": 62,
      "hit": false,
      "t": 95999.99999999996,
      "d": 2060,
      "v": 48
    },
    {
      "midi": 67,
      "hit": false,
      "t": 95999.99999999996,
      "d": 2206.6666666666715,
      "v": 60
    },
    {
      "midi": 71,
      "hit": false,
      "t": 95999.99999999996,
      "d": 2220,
      "v": 65
    },
    {
      "midi": 43,
      "hit": false,
      "t": 95999.99999999996,
      "d": 3200,
      "v": 71
    },
    {
      "midi": 59,
      "hit": false,
      "t": 97799.99999999996,
      "d": 1400,
      "v": 94
    },
    {
      "midi": 62,
      "hit": false,
      "t": 98206.66666666663,
      "d": 993.3333333333285,
      "v": 85
    },
    {
      "midi": 67,
      "hit": false,
      "t": 98599.99999999996,
      "d": 600,
      "v": 68
    },
    {
      "midi": 71,
      "hit": false,
      "t": 98799.99999999996,
      "d": 400,
      "v": 74
    },
    {
      "midi": 57,
      "hit": false,
      "t": 99226.66666666663,
      "d": 1820,
      "v": 74
    },
    {
      "midi": 62,
      "hit": false,
      "t": 99226.66666666663,
      "d": 1820,
      "v": 74
    },
    {
      "midi": 66,
      "hit": false,
      "t": 99226.66666666663,
      "d": 1820,
      "v": 74
    },
    {
      "midi": 54,
      "hit": false,
      "t": 101219.99999999996,
      "d": 453.3333333333285,
      "v": 78
    },
    {
      "midi": 57,
      "hit": false,
      "t": 101613.33333333328,
      "d": 560,
      "v": 74
    },
    {
      "midi": 62,
      "hit": false,
      "t": 101613.33333333328,
      "d": 560,
      "v": 74
    },
    {
      "midi": 66,
      "hit": false,
      "t": 101613.33333333328,
      "d": 560,
      "v": 74
    },
    {
      "midi": 40,
      "hit": false,
      "t": 102399.99999999996,
      "d": 1600,
      "v": 71
    },
    {
      "midi": 55,
      "hit": false,
      "t": 102399.99999999996,
      "d": 1600,
      "v": 15
    },
    {
      "midi": 59,
      "hit": false,
      "t": 102399.99999999996,
      "d": 1600,
      "v": 26
    },
    {
      "midi": 64,
      "hit": false,
      "t": 102399.99999999996,
      "d": 1600,
      "v": 63
    },
    {
      "midi": 67,
      "hit": false,
      "t": 102399.99999999996,
      "d": 1600,
      "v": 58
    },
    {
      "midi": 50,
      "hit": false,
      "t": 104199.99999999996,
      "d": 1400,
      "v": 74
    },
    {
      "midi": 57,
      "hit": false,
      "t": 104399.99999999996,
      "d": 1200,
      "v": 74
    },
    {
      "midi": 60,
      "hit": false,
      "t": 104599.99999999996,
      "d": 1000,
      "v": 39
    },
    {
      "midi": 65,
      "hit": false,
      "t": 104599.99999999996,
      "d": 1000,
      "v": 65
    },
    {
      "midi": 69,
      "hit": false,
      "t": 104599.99999999996,
      "d": 1000,
      "v": 63
    },
    {
      "midi": 59,
      "hit": false,
      "t": 105599.99999999996,
      "d": 2626.6666666666715,
      "v": 72
    },
    {
      "midi": 62,
      "hit": false,
      "t": 105599.99999999996,
      "d": 2626.6666666666715,
      "v": 72
    },
    {
      "midi": 64,
      "hit": false,
      "t": 105599.99999999996,
      "d": 2626.6666666666715,
      "v": 72
    },
    {
      "midi": 67,
      "hit": false,
      "t": 105599.99999999996,
      "d": 2626.6666666666715,
      "v": 72
    },
    {
      "midi": 60,
      "hit": false,
      "t": 108026.66666666663,
      "d": 253.33333333334303,
      "v": 61
    },
    {
      "midi": 64,
      "hit": false,
      "t": 108233.3333333333,
      "d": 280,
      "v": 74
    },
    {
      "midi": 67,
      "hit": false,
      "t": 108433.3333333333,
      "d": 260,
      "v": 68
    },
    {
      "midi": 74,
      "hit": false,
      "t": 108639.99999999997,
      "d": 146.66666666665697,
      "v": 68
    },
    {
      "midi": 64,
      "hit": false,
      "t": 108799.99999999996,
      "d": 2060,
      "v": 48
    },
    {
      "midi": 69,
      "hit": false,
      "t": 108799.99999999996,
      "d": 2206.6666666666715,
      "v": 60
    },
    {
      "midi": 73,
      "hit": false,
      "t": 108799.99999999996,
      "d": 2220,
      "v": 65
    },
    {
      "midi": 45,
      "hit": false,
      "t": 108799.99999999996,
      "d": 3200,
      "v": 71
    },
    {
      "midi": 69,
      "hit": false,
      "t": 108800,
      "d": 3200,
      "v": 32
    },
    {
      "midi": 73,
      "hit": false,
      "t": 108800,
      "d": 3200,
      "v": 28
    },
    {
      "midi": 61,
      "hit": false,
      "t": 110599.99999999996,
      "d": 1400,
      "v": 94
    },
    {
      "midi": 64,
      "hit": false,
      "t": 111006.66666666663,
      "d": 993.3333333333285,
      "v": 85
    },
    {
      "midi": 69,
      "hit": false,
      "t": 111399.99999999996,
      "d": 600,
      "v": 68
    },
    {
      "midi": 73,
      "hit": false,
      "t": 111599.99999999996,
      "d": 400,
      "v": 74
    },
    {
      "midi": 68,
      "hit": false,
      "t": 112000,
      "d": 1133.3333333333285,
      "v": 33
    },
    {
      "midi": 78,
      "hit": false,
      "t": 112000,
      "d": 1133.3333333333285,
      "v": 28
    },
    {
      "midi": 68,
      "hit": false,
      "t": 112013.33333333328,
      "d": 920,
      "v": 72
    },
    {
      "midi": 59,
      "hit": false,
      "t": 112013.33333333328,
      "d": 1120,
      "v": 72
    },
    {
      "midi": 66,
      "hit": false,
      "t": 112013.33333333328,
      "d": 1120,
      "v": 72
    },
    {
      "midi": 57,
      "hit": false,
      "t": 113199.99999999996,
      "d": 1753.333333333343,
      "v": 76
    },
    {
      "midi": 57,
      "hit": false,
      "t": 113200,
      "d": 1986.6666666666715,
      "v": 26
    },
    {
      "midi": 65,
      "hit": false,
      "t": 113200,
      "d": 1986.6666666666715,
      "v": 35
    },
    {
      "midi": 61,
      "hit": false,
      "t": 113999.99999999996,
      "d": 793.3333333333285,
      "v": 68
    },
    {
      "midi": 65,
      "hit": false,
      "t": 114399.99999999996,
      "d": 526.6666666666715,
      "v": 85
    },
    {
      "midi": 69,
      "hit": false,
      "t": 114799.99999999996,
      "d": 226.66666666667152,
      "v": 87
    },
    {
      "midi": 69,
      "hit": false,
      "t": 115199.99999999996,
      "d": 220,
      "v": 63
    },
    {
      "midi": 73,
      "hit": false,
      "t": 115199.99999999996,
      "d": 220,
      "v": 81
    },
    {
      "midi": 64,
      "hit": false,
      "t": 115199.99999999996,
      "d": 226.66666666667152,
      "v": 75
    },
    {
      "midi": 54,
      "hit": false,
      "t": 115199.99999999996,
      "d": 3199.9999999999854,
      "v": 65
    },
    {
      "midi": 64,
      "hit": false,
      "t": 115200,
      "d": 3200,
      "v": 32
    },
    {
      "midi": 66,
      "hit": false,
      "t": 115200,
      "d": 3200,
      "v": 28
    },
    {
      "midi": 61,
      "hit": false,
      "t": 115419.99999999996,
      "d": 2979.9999999999854,
      "v": 68
    },
    {
      "midi": 64,
      "hit": false,
      "t": 115599.99999999996,
      "d": 113.33333333332848,
      "v": 20
    },
    {
      "midi": 69,
      "hit": false,
      "t": 115599.99999999996,
      "d": 113.33333333332848,
      "v": 37
    },
    {
      "midi": 73,
      "hit": false,
      "t": 115599.99999999996,
      "d": 120,
      "v": 58
    },
    {
      "midi": 64,
      "hit": false,
      "t": 115799.99999999996,
      "d": 93.33333333332848,
      "v": 63
    },
    {
      "midi": 68,
      "hit": false,
      "t": 115799.99999999996,
      "d": 113.33333333332848,
      "v": 87
    },
    {
      "midi": 71,
      "hit": false,
      "t": 115799.99999999996,
      "d": 146.66666666665697,
      "v": 84
    },
    {
      "midi": 64,
      "hit": false,
      "t": 116199.99999999994,
      "d": 2200,
      "v": 59
    },
    {
      "midi": 69,
      "hit": false,
      "t": 116199.99999999994,
      "d": 2200,
      "v": 66
    },
    {
      "midi": 73,
      "hit": false,
      "t": 116199.99999999994,
      "d": 2200,
      "v": 71
    },
    {
      "midi": 47,
      "hit": false,
      "t": 118399.99999999994,
      "d": 1133.3333333333285,
      "v": 71
    },
    {
      "midi": 54,
      "hit": false,
      "t": 118399.99999999994,
      "d": 1133.3333333333285,
      "v": 15
    },
    {
      "midi": 57,
      "hit": false,
      "t": 118399.99999999994,
      "d": 1133.3333333333285,
      "v": 26
    },
    {
      "midi": 62,
      "hit": false,
      "t": 118399.99999999994,
      "d": 1133.3333333333285,
      "v": 63
    },
    {
      "midi": 66,
      "hit": false,
      "t": 118399.99999999994,
      "d": 1133.3333333333285,
      "v": 58
    },
    {
      "midi": 57,
      "hit": false,
      "t": 118400,
      "d": 1133.3333333333285,
      "v": 26
    },
    {
      "midi": 62,
      "hit": false,
      "t": 118400,
      "d": 1133.3333333333285,
      "v": 35
    },
    {
      "midi": 57,
      "hit": false,
      "t": 119599.99999999994,
      "d": 906.6666666666715,
      "v": 68
    },
    {
      "midi": 62,
      "hit": false,
      "t": 119599.99999999994,
      "d": 906.6666666666715,
      "v": 68
    },
    {
      "midi": 66,
      "hit": false,
      "t": 119599.99999999994,
      "d": 906.6666666666715,
      "v": 68
    },
    {
      "midi": 57,
      "hit": false,
      "t": 119600,
      "d": 1986.6666666666715,
      "v": 26
    },
    {
      "midi": 66,
      "hit": false,
      "t": 119600,
      "d": 1986.6666666666715,
      "v": 35
    },
    {
      "midi": 52,
      "hit": false,
      "t": 120399.99999999994,
      "d": 780,
      "v": 78
    },
    {
      "midi": 57,
      "hit": false,
      "t": 120799.99999999994,
      "d": 446.6666666666715,
      "v": 80
    },
    {
      "midi": 62,
      "hit": false,
      "t": 120799.99999999994,
      "d": 446.6666666666715,
      "v": 80
    },
    {
      "midi": 66,
      "hit": false,
      "t": 120799.99999999994,
      "d": 446.6666666666715,
      "v": 80
    },
    {
      "midi": 69,
      "hit": false,
      "t": 121600,
      "d": 3200,
      "v": 32
    },
    {
      "midi": 73,
      "hit": false,
      "t": 121600,
      "d": 3200,
      "v": 28
    },
    {
      "midi": 57,
      "hit": false,
      "t": 121626.66666666661,
      "d": 1820,
      "v": 74
    },
    {
      "midi": 61,
      "hit": false,
      "t": 121626.66666666661,
      "d": 1820,
      "v": 74
    },
    {
      "midi": 64,
      "hit": false,
      "t": 121626.66666666661,
      "d": 1820,
      "v": 74
    },
    {
      "midi": 45,
      "hit": false,
      "t": 123619.99999999994,
      "d": 453.3333333333285,
      "v": 78
    },
    {
      "midi": 57,
      "hit": false,
      "t": 124013.33333333327,
      "d": 560,
      "v": 74
    },
    {
      "midi": 61,
      "hit": false,
      "t": 124013.33333333327,
      "d": 560,
      "v": 74
    },
    {
      "midi": 64,
      "hit": false,
      "t": 124013.33333333327,
      "d": 560,
      "v": 74
    },
    {
      "midi": 59,
      "hit": false,
      "t": 124799.99999999994,
      "d": 520,
      "v": 68
    },
    {
      "midi": 66,
      "hit": false,
      "t": 124799.99999999994,
      "d": 520,
      "v": 68
    },
    {
      "midi": 68,
      "hit": false,
      "t": 124799.99999999994,
      "d": 520,
      "v": 68
    },
    {
      "midi": 59,
      "hit": false,
      "t": 124800,
      "d": 1133.3333333333285,
      "v": 26
    },
    {
      "midi": 68,
      "hit": false,
      "t": 124800,
      "d": 1133.3333333333285,
      "v": 35
    },
    {
      "midi": 56,
      "hit": false,
      "t": 125199.99999999994,
      "d": 780,
      "v": 78
    },
    {
      "midi": 59,
      "hit": false,
      "t": 125599.99999999994,
      "d": 333.3333333333285,
      "v": 80
    },
    {
      "midi": 66,
      "hit": false,
      "t": 125599.99999999994,
      "d": 333.3333333333285,
      "v": 80
    },
    {
      "midi": 68,
      "hit": false,
      "t": 125599.99999999994,
      "d": 333.3333333333285,
      "v": 80
    },
    {
      "midi": 61,
      "hit": false,
      "t": 126000,
      "d": 1986.6666666666715,
      "v": 39
    },
    {
      "midi": 65,
      "hit": false,
      "t": 126000,
      "d": 1986.6666666666715,
      "v": 21
    },
    {
      "midi": 49,
      "hit": false,
      "t": 126599.99999999994,
      "d": 1400,
      "v": 74
    },
    {
      "midi": 57,
      "hit": false,
      "t": 126799.99999999994,
      "d": 1200,
      "v": 74
    },
    {
      "midi": 61,
      "hit": false,
      "t": 126999.99999999994,
      "d": 1000,
      "v": 39
    },
    {
      "midi": 65,
      "hit": false,
      "t": 126999.99999999994,
      "d": 1000,
      "v": 65
    },
    {
      "midi": 69,
      "hit": false,
      "t": 126999.99999999994,
      "d": 1000,
      "v": 63
    },
    {
      "midi": 57,
      "hit": false,
      "t": 128000,
      "d": 2733.3333333333285,
      "v": 38
    },
    {
      "midi": 64,
      "hit": false,
      "t": 128000,
      "d": 2733.3333333333285,
      "v": 22
    },
    {
      "midi": 61,
      "hit": false,
      "t": 128019.99999999994,
      "d": 1193.333333333343,
      "v": 82
    },
    {
      "midi": 64,
      "hit": false,
      "t": 128019.99999999994,
      "d": 1193.333333333343,
      "v": 82
    },
    {
      "midi": 66,
      "hit": false,
      "t": 128019.99999999994,
      "d": 1193.333333333343,
      "v": 82
    },
    {
      "midi": 69,
      "hit": false,
      "t": 128019.99999999994,
      "d": 1193.333333333343,
      "v": 82
    },
    {
      "midi": 54,
      "hit": false,
      "t": 129186.66666666661,
      "d": 1546.666666666686,
      "v": 63
    },
    {
      "midi": 66,
      "hit": false,
      "t": 129613.33333333328,
      "d": 1120.0000000000146,
      "v": 66
    },
    {
      "midi": 69,
      "hit": false,
      "t": 129999.99999999996,
      "d": 733.333333333343,
      "v": 68
    },
    {
      "midi": 73,
      "hit": false,
      "t": 130426.66666666663,
      "d": 306.6666666666715,
      "v": 82
    },
    {
      "midi": 62,
      "hit": false,
      "t": 130799.99999999997,
      "d": 906.666666666657,
      "v": 68
    },
    {
      "midi": 66,
      "hit": false,
      "t": 130799.99999999997,
      "d": 906.666666666657,
      "v": 68
    },
    {
      "midi": 69,
      "hit": false,
      "t": 130799.99999999997,
      "d": 906.666666666657,
      "v": 68
    },
    {
      "midi": 71,
      "hit": false,
      "t": 130799.99999999997,
      "d": 906.666666666657,
      "v": 68
    },
    {
      "midi": 57,
      "hit": false,
      "t": 130800,
      "d": 1533.333333333343,
      "v": 26
    },
    {
      "midi": 62,
      "hit": false,
      "t": 130800,
      "d": 1533.333333333343,
      "v": 35
    },
    {
      "midi": 47,
      "hit": false,
      "t": 131599.99999999997,
      "d": 780,
      "v": 78
    },
    {
      "midi": 62,
      "hit": false,
      "t": 131999.99999999997,
      "d": 333.33333333334303,
      "v": 80
    },
    {
      "midi": 66,
      "hit": false,
      "t": 131999.99999999997,
      "d": 333.33333333334303,
      "v": 80
    },
    {
      "midi": 69,
      "hit": false,
      "t": 131999.99999999997,
      "d": 333.33333333334303,
      "v": 80
    },
    {
      "midi": 71,
      "hit": false,
      "t": 131999.99999999997,
      "d": 333.33333333334303,
      "v": 80
    },
    {
      "midi": 57,
      "hit": false,
      "t": 132399.99999999997,
      "d": 1986.666666666657,
      "v": 80
    },
    {
      "midi": 62,
      "hit": false,
      "t": 132399.99999999997,
      "d": 1986.666666666657,
      "v": 80
    },
    {
      "midi": 66,
      "hit": false,
      "t": 132399.99999999997,
      "d": 1986.666666666657,
      "v": 80
    },
    {
      "midi": 57,
      "hit": false,
      "t": 132400,
      "d": 1986.666666666657,
      "v": 26
    },
    {
      "midi": 66,
      "hit": false,
      "t": 132400,
      "d": 1986.666666666657,
      "v": 35
    },
    {
      "midi": 45,
      "hit": false,
      "t": 134399.99999999997,
      "d": 1306.666666666657,
      "v": 54
    },
    {
      "midi": 61,
      "hit": false,
      "t": 134399.99999999997,
      "d": 1600,
      "v": 57
    },
    {
      "midi": 64,
      "hit": false,
      "t": 134399.99999999997,
      "d": 1633.333333333343,
      "v": 56
    },
    {
      "midi": 57,
      "hit": false,
      "t": 134399.99999999997,
      "d": 1660,
      "v": 61
    },
    {
      "midi": 61,
      "hit": false,
      "t": 134400,
      "d": 1660,
      "v": 30
    },
    {
      "midi": 73,
      "hit": false,
      "t": 134400,
      "d": 3200,
      "v": 29
    },
    {
      "midi": 45,
      "hit": false,
      "t": 135999.99999999997,
      "d": 1306.666666666657,
      "v": 52
    },
    {
      "midi": 64,
      "hit": false,
      "t": 136000,
      "d": 1600,
      "v": 32
    },
    {
      "midi": 57,
      "hit": false,
      "t": 136399.99999999997,
      "d": 1086.666666666657,
      "v": 76
    },
    {
      "midi": 61,
      "hit": false,
      "t": 137199.99999999997,
      "d": 253.33333333331393,
      "v": 87
    },
    {
      "midi": 59,
      "hit": false,
      "t": 137600,
      "d": 3200,
      "v": 38
    },
    {
      "midi": 68,
      "hit": false,
      "t": 137600,
      "d": 3200,
      "v": 22
    },
    {
      "midi": 59,
      "hit": false,
      "t": 137619.99999999997,
      "d": 1193.333333333314,
      "v": 82
    },
    {
      "midi": 64,
      "hit": false,
      "t": 137619.99999999997,
      "d": 1193.333333333314,
      "v": 82
    },
    {
      "midi": 68,
      "hit": false,
      "t": 137619.99999999997,
      "d": 1193.333333333314,
      "v": 82
    },
    {
      "midi": 56,
      "hit": false,
      "t": 138786.66666666663,
      "d": 1946.6666666666279,
      "v": 63
    },
    {
      "midi": 64,
      "hit": false,
      "t": 139213.33333333328,
      "d": 1533.333333333314,
      "v": 66
    },
    {
      "midi": 68,
      "hit": false,
      "t": 139599.99999999994,
      "d": 1119.999999999971,
      "v": 68
    },
    {
      "midi": 71,
      "hit": false,
      "t": 140026.6666666666,
      "d": 680,
      "v": 82
    },
    {
      "midi": 76,
      "hit": false,
      "t": 140386.6666666666,
      "d": 320,
      "v": 59
    },
    {
      "midi": 66,
      "hit": false,
      "t": 140800,
      "d": 1600,
      "v": 33
    },
    {
      "midi": 73,
      "hit": false,
      "t": 140800,
      "d": 1600,
      "v": 28
    },
    {
      "midi": 57,
      "hit": false,
      "t": 140813.33333333326,
      "d": 1340,
      "v": 72
    },
    {
      "midi": 61,
      "hit": false,
      "t": 140813.33333333326,
      "d": 1340,
      "v": 72
    },
    {
      "midi": 66,
      "hit": false,
      "t": 140813.33333333326,
      "d": 1340,
      "v": 72
    },
    {
      "midi": 69,
      "hit": false,
      "t": 142019.9999999999,
      "d": 220.0000000000291,
      "v": 66
    },
    {
      "midi": 73,
      "hit": false,
      "t": 142226.6666666666,
      "d": 173.33333333334303,
      "v": 70
    },
    {
      "midi": 62,
      "hit": false,
      "t": 142399.99999999994,
      "d": 1366.666666666657,
      "v": 76
    },
    {
      "midi": 69,
      "hit": false,
      "t": 142400,
      "d": 1600,
      "v": 33
    },
    {
      "midi": 74,
      "hit": false,
      "t": 142400,
      "d": 1600,
      "v": 28
    },
    {
      "midi": 66,
      "hit": false,
      "t": 142799.99999999994,
      "d": 806.666666666657,
      "v": 68
    },
    {
      "midi": 67,
      "hit": false,
      "t": 143199.99999999994,
      "d": 540,
      "v": 85
    },
    {
      "midi": 71,
      "hit": false,
      "t": 143599.99999999994,
      "d": 166.66666666665697,
      "v": 87
    },
    {
      "midi": 50,
      "hit": false,
      "t": 143999.99999999994,
      "d": 1600,
      "v": 71
    },
    {
      "midi": 57,
      "hit": false,
      "t": 143999.99999999994,
      "d": 1600,
      "v": 15
    },
    {
      "midi": 61,
      "hit": false,
      "t": 143999.99999999994,
      "d": 1600,
      "v": 26
    },
    {
      "midi": 66,
      "hit": false,
      "t": 143999.99999999994,
      "d": 1600,
      "v": 63
    },
    {
      "midi": 69,
      "hit": false,
      "t": 143999.99999999994,
      "d": 1600,
      "v": 58
    },
    {
      "midi": 61,
      "hit": false,
      "t": 144000,
      "d": 1600,
      "v": 26
    },
    {
      "midi": 66,
      "hit": false,
      "t": 144000,
      "d": 1600,
      "v": 35
    },
    {
      "midi": 61,
      "hit": false,
      "t": 145600,
      "d": 800,
      "v": 26
    },
    {
      "midi": 66,
      "hit": false,
      "t": 145600,
      "d": 800,
      "v": 35
    },
    {
      "midi": 61,
      "hit": false,
      "t": 145626.6666666666,
      "d": 773.333333333343,
      "v": 80
    },
    {
      "midi": 64,
      "hit": false,
      "t": 145626.6666666666,
      "d": 773.333333333343,
      "v": 80
    },
    {
      "midi": 66,
      "hit": false,
      "t": 145626.6666666666,
      "d": 773.333333333343,
      "v": 80
    },
    {
      "midi": 69,
      "hit": false,
      "t": 145626.6666666666,
      "d": 773.333333333343,
      "v": 80
    },
    {
      "midi": 57,
      "hit": false,
      "t": 146400,
      "d": 800,
      "v": 26
    },
    {
      "midi": 66,
      "hit": false,
      "t": 146400,
      "d": 800,
      "v": 35
    },
    {
      "midi": 57,
      "hit": false,
      "t": 146426.6666666666,
      "d": 773.333333333343,
      "v": 80
    },
    {
      "midi": 62,
      "hit": false,
      "t": 146426.6666666666,
      "d": 773.333333333343,
      "v": 80
    },
    {
      "midi": 66,
      "hit": false,
      "t": 146426.6666666666,
      "d": 773.333333333343,
      "v": 80
    },
    {
      "midi": 69,
      "hit": false,
      "t": 147200,
      "d": 3200,
      "v": 32
    },
    {
      "midi": 73,
      "hit": false,
      "t": 147200,
      "d": 3200,
      "v": 28
    },
    {
      "midi": 57,
      "hit": false,
      "t": 147226.6666666666,
      "d": 1820,
      "v": 74
    },
    {
      "midi": 61,
      "hit": false,
      "t": 147226.6666666666,
      "d": 1820,
      "v": 74
    },
    {
      "midi": 64,
      "hit": false,
      "t": 147226.6666666666,
      "d": 1820,
      "v": 74
    },
    {
      "midi": 45,
      "hit": false,
      "t": 149219.99999999994,
      "d": 453.33333333334303,
      "v": 78
    },
    {
      "midi": 57,
      "hit": false,
      "t": 149613.33333333328,
      "d": 560,
      "v": 74
    },
    {
      "midi": 61,
      "hit": false,
      "t": 149613.33333333328,
      "d": 560,
      "v": 74
    },
    {
      "midi": 64,
      "hit": false,
      "t": 149613.33333333328,
      "d": 560,
      "v": 74
    },
    {
      "midi": 71,
      "hit": false,
      "t": 150399.99999999994,
      "d": 986.6666666666861,
      "v": 55
    },
    {
      "midi": 68,
      "hit": false,
      "t": 150399.99999999994,
      "d": 1026.666666666686,
      "v": 58
    },
    {
      "midi": 64,
      "hit": false,
      "t": 150399.99999999994,
      "d": 1073.333333333343,
      "v": 53
    },
    {
      "midi": 68,
      "hit": false,
      "t": 150400,
      "d": 3200,
      "v": 32
    },
    {
      "midi": 71,
      "hit": false,
      "t": 150400,
      "d": 3200,
      "v": 28
    },
    {
      "midi": 44,
      "hit": false,
      "t": 150433.33333333328,
      "d": 2773.333333333343,
      "v": 33
    },
    {
      "midi": 71,
      "hit": false,
      "t": 151759.99999999994,
      "d": 626.6666666666861,
      "v": 58
    },
    {
      "midi": 68,
      "hit": false,
      "t": 151799.99999999994,
      "d": 593.333333333343,
      "v": 61
    },
    {
      "midi": 64,
      "hit": false,
      "t": 151873.33333333328,
      "d": 420,
      "v": 85
    },
    {
      "midi": 64,
      "hit": false,
      "t": 152393.33333333328,
      "d": 413.33333333334303,
      "v": 91
    },
    {
      "midi": 68,
      "hit": false,
      "t": 152806.66666666663,
      "d": 426.66666666668607,
      "v": 70
    },
    {
      "midi": 71,
      "hit": false,
      "t": 153219.99999999997,
      "d": 173.33333333334303,
      "v": 68
    },
    {
      "midi": 57,
      "hit": false,
      "t": 153600,
      "d": 1600,
      "v": 26
    },
    {
      "midi": 66,
      "hit": false,
      "t": 153600,
      "d": 1600,
      "v": 35
    },
    {
      "midi": 42,
      "hit": false,
      "t": 153799.99999999997,
      "d": 1400,
      "v": 74
    },
    {
      "midi": 57,
      "hit": false,
      "t": 153999.99999999997,
      "d": 1200,
      "v": 74
    },
    {
      "midi": 61,
      "hit": false,
      "t": 154199.99999999997,
      "d": 1000,
      "v": 39
    },
    {
      "midi": 66,
      "hit": false,
      "t": 154199.99999999997,
      "d": 1000,
      "v": 65
    },
    {
      "midi": 69,
      "hit": false,
      "t": 154199.99999999997,
      "d": 1000,
      "v": 63
    },
    {
      "midi": 62,
      "hit": false,
      "t": 155200,
      "d": 1600,
      "v": 26
    },
    {
      "midi": 69,
      "hit": false,
      "t": 155200,
      "d": 1600,
      "v": 35
    },
    {
      "midi": 52,
      "hit": false,
      "t": 155399.99999999997,
      "d": 1400,
      "v": 74
    },
    {
      "midi": 59,
      "hit": false,
      "t": 155599.99999999997,
      "d": 1200,
      "v": 74
    },
    {
      "midi": 62,
      "hit": false,
      "t": 155799.99999999997,
      "d": 1000,
      "v": 39
    },
    {
      "midi": 67,
      "hit": false,
      "t": 155799.99999999997,
      "d": 1000,
      "v": 65
    },
    {
      "midi": 71,
      "hit": false,
      "t": 155799.99999999997,
      "d": 1000,
      "v": 63
    },
    {
      "midi": 61,
      "hit": false,
      "t": 156799.99999999997,
      "d": 2060,
      "v": 48
    },
    {
      "midi": 66,
      "hit": false,
      "t": 156799.99999999997,
      "d": 2206.666666666657,
      "v": 60
    },
    {
      "midi": 69,
      "hit": false,
      "t": 156799.99999999997,
      "d": 2220,
      "v": 65
    },
    {
      "midi": 50,
      "hit": false,
      "t": 156799.99999999997,
      "d": 3200,
      "v": 71
    },
    {
      "midi": 66,
      "hit": false,
      "t": 156800,
      "d": 3200,
      "v": 32
    },
    {
      "midi": 69,
      "hit": false,
      "t": 156800,
      "d": 3200,
      "v": 28
    },
    {
      "midi": 57,
      "hit": false,
      "t": 158599.99999999997,
      "d": 1400,
      "v": 94
    },
    {
      "midi": 61,
      "hit": false,
      "t": 159006.66666666663,
      "d": 993.333333333343,
      "v": 85
    },
    {
      "midi": 66,
      "hit": false,
      "t": 159399.99999999997,
      "d": 600,
      "v": 68
    },
    {
      "midi": 69,
      "hit": false,
      "t": 159599.99999999997,
      "d": 400,
      "v": 74
    },
    {
      "midi": 61,
      "hit": false,
      "t": 160000,
      "d": 1660,
      "v": 30
    },
    {
      "midi": 73,
      "hit": false,
      "t": 160000,
      "d": 3200,
      "v": 29
    },
    {
      "midi": 57,
      "hit": false,
      "t": 160026.66666666663,
      "d": 1820,
      "v": 74
    },
    {
      "midi": 61,
      "hit": false,
      "t": 160026.66666666663,
      "d": 1820,
      "v": 74
    },
    {
      "midi": 64,
      "hit": false,
      "t": 160026.66666666663,
      "d": 1820,
      "v": 74
    },
    {
      "midi": 64,
      "hit": false,
      "t": 161600,
      "d": 1600,
      "v": 32
    },
    {
      "midi": 45,
      "hit": false,
      "t": 162019.99999999997,
      "d": 453.33333333334303,
      "v": 78
    },
    {
      "midi": 57,
      "hit": false,
      "t": 162413.3333333333,
      "d": 560,
      "v": 74
    },
    {
      "midi": 61,
      "hit": false,
      "t": 162413.3333333333,
      "d": 560,
      "v": 74
    },
    {
      "midi": 64,
      "hit": false,
      "t": 162413.3333333333,
      "d": 560,
      "v": 74
    },
    {
      "midi": 64,
      "hit": false,
      "t": 163199.99999999997,
      "d": 2060,
      "v": 48
    },
    {
      "midi": 68,
      "hit": false,
      "t": 163199.99999999997,
      "d": 2206.666666666657,
      "v": 60
    },
    {
      "midi": 71,
      "hit": false,
      "t": 163199.99999999997,
      "d": 2220,
      "v": 65
    },
    {
      "midi": 56,
      "hit": false,
      "t": 163199.99999999997,
      "d": 3200,
      "v": 71
    },
    {
      "midi": 59,
      "hit": false,
      "t": 163200,
      "d": 3200,
      "v": 38
    },
    {
      "midi": 68,
      "hit": false,
      "t": 163200,
      "d": 3200,
      "v": 22
    },
    {
      "midi": 59,
      "hit": false,
      "t": 164999.99999999997,
      "d": 1400,
      "v": 94
    },
    {
      "midi": 64,
      "hit": false,
      "t": 165406.66666666663,
      "d": 993.333333333343,
      "v": 85
    },
    {
      "midi": 68,
      "hit": false,
      "t": 165799.99999999997,
      "d": 600,
      "v": 68
    },
    {
      "midi": 71,
      "hit": false,
      "t": 165999.99999999997,
      "d": 400,
      "v": 74
    },
    {
      "midi": 66,
      "hit": false,
      "t": 166400,
      "d": 1600,
      "v": 33
    },
    {
      "midi": 73,
      "hit": false,
      "t": 166400,
      "d": 1600,
      "v": 28
    },
    {
      "midi": 42,
      "hit": false,
      "t": 166599.99999999997,
      "d": 1400,
      "v": 74
    },
    {
      "midi": 57,
      "hit": false,
      "t": 166799.99999999997,
      "d": 1200,
      "v": 74
    },
    {
      "midi": 61,
      "hit": false,
      "t": 166999.99999999997,
      "d": 1000,
      "v": 39
    },
    {
      "midi": 66,
      "hit": false,
      "t": 166999.99999999997,
      "d": 1000,
      "v": 65
    },
    {
      "midi": 69,
      "hit": false,
      "t": 166999.99999999997,
      "d": 1000,
      "v": 63
    },
    {
      "midi": 62,
      "hit": false,
      "t": 167999.99999999997,
      "d": 1366.666666666657,
      "v": 76
    },
    {
      "midi": 69,
      "hit": false,
      "t": 168000,
      "d": 1600,
      "v": 33
    },
    {
      "midi": 74,
      "hit": false,
      "t": 168000,
      "d": 1600,
      "v": 28
    },
    {
      "midi": 66,
      "hit": false,
      "t": 168399.99999999997,
      "d": 806.666666666657,
      "v": 68
    },
    {
      "midi": 67,
      "hit": false,
      "t": 168799.99999999997,
      "d": 540,
      "v": 85
    },
    {
      "midi": 71,
      "hit": false,
      "t": 169199.99999999997,
      "d": 166.66666666665697,
      "v": 87
    },
    {
      "midi": 50,
      "hit": false,
      "t": 169599.99999999997,
      "d": 1600,
      "v": 71
    },
    {
      "midi": 57,
      "hit": false,
      "t": 169599.99999999997,
      "d": 1600,
      "v": 15
    },
    {
      "midi": 61,
      "hit": false,
      "t": 169599.99999999997,
      "d": 1600,
      "v": 26
    },
    {
      "midi": 66,
      "hit": false,
      "t": 169599.99999999997,
      "d": 1600,
      "v": 63
    },
    {
      "midi": 69,
      "hit": false,
      "t": 169599.99999999997,
      "d": 1600,
      "v": 58
    },
    {
      "midi": 61,
      "hit": false,
      "t": 169600,
      "d": 1600,
      "v": 26
    },
    {
      "midi": 66,
      "hit": false,
      "t": 169600,
      "d": 1600,
      "v": 35
    },
    {
      "midi": 61,
      "hit": false,
      "t": 171200,
      "d": 800,
      "v": 26
    },
    {
      "midi": 66,
      "hit": false,
      "t": 171200,
      "d": 800,
      "v": 35
    },
    {
      "midi": 61,
      "hit": false,
      "t": 171226.66666666663,
      "d": 773.333333333343,
      "v": 80
    },
    {
      "midi": 64,
      "hit": false,
      "t": 171226.66666666663,
      "d": 773.333333333343,
      "v": 80
    },
    {
      "midi": 66,
      "hit": false,
      "t": 171226.66666666663,
      "d": 773.333333333343,
      "v": 80
    },
    {
      "midi": 69,
      "hit": false,
      "t": 171226.66666666663,
      "d": 773.333333333343,
      "v": 80
    },
    {
      "midi": 52,
      "hit": false,
      "t": 171999.99999999997,
      "d": 800,
      "v": 71
    },
    {
      "midi": 57,
      "hit": false,
      "t": 171999.99999999997,
      "d": 800,
      "v": 15
    },
    {
      "midi": 62,
      "hit": false,
      "t": 171999.99999999997,
      "d": 800,
      "v": 26
    },
    {
      "midi": 66,
      "hit": false,
      "t": 171999.99999999997,
      "d": 800,
      "v": 63
    },
    {
      "midi": 69,
      "hit": false,
      "t": 171999.99999999997,
      "d": 800,
      "v": 58
    },
    {
      "midi": 57,
      "hit": false,
      "t": 172000,
      "d": 800,
      "v": 26
    },
    {
      "midi": 66,
      "hit": false,
      "t": 172000,
      "d": 800,
      "v": 35
    },
    {
      "midi": 64,
      "hit": false,
      "t": 172799.99999999997,
      "d": 2086.666666666657,
      "v": 63
    },
    {
      "midi": 69,
      "hit": false,
      "t": 172799.99999999997,
      "d": 2293.333333333343,
      "v": 77
    },
    {
      "midi": 73,
      "hit": false,
      "t": 172799.99999999997,
      "d": 2573.333333333343,
      "v": 81
    },
    {
      "midi": 45,
      "hit": false,
      "t": 172799.99999999997,
      "d": 3039.999999999971,
      "v": 77
    },
    {
      "midi": 69,
      "hit": false,
      "t": 172800,
      "d": 3200,
      "v": 32
    },
    {
      "midi": 73,
      "hit": false,
      "t": 172800,
      "d": 3200,
      "v": 28
    },
    {
      "midi": 61,
      "hit": false,
      "t": 174599.99999999997,
      "d": 1186.666666666657,
      "v": 77
    },
    {
      "midi": 64,
      "hit": false,
      "t": 174999.99999999997,
      "d": 819.9999999999709,
      "v": 90
    },
    {
      "midi": 69,
      "hit": false,
      "t": 175399.99999999997,
      "d": 413.33333333331393,
      "v": 60
    },
    {
      "midi": 73,
      "hit": false,
      "t": 175599.99999999997,
      "d": 213.33333333331393,
      "v": 81
    },
    {
      "midi": 56,
      "hit": false,
      "t": 175999.99999999994,
      "d": 1306.666666666657,
      "v": 54
    },
    {
      "midi": 68,
      "hit": false,
      "t": 175999.99999999994,
      "d": 1600,
      "v": 57
    },
    {
      "midi": 71,
      "hit": false,
      "t": 175999.99999999994,
      "d": 1633.333333333343,
      "v": 56
    },
    {
      "midi": 64,
      "hit": false,
      "t": 175999.99999999994,
      "d": 1660,
      "v": 61
    },
    {
      "midi": 68,
      "hit": false,
      "t": 176000,
      "d": 3200,
      "v": 32
    },
    {
      "midi": 71,
      "hit": false,
      "t": 176000,
      "d": 3200,
      "v": 28
    },
    {
      "midi": 44,
      "hit": false,
      "t": 177199.99999999994,
      "d": 1706.666666666657,
      "v": 49
    },
    {
      "midi": 56,
      "hit": false,
      "t": 177599.99999999994,
      "d": 1526.666666666657,
      "v": 52
    },
    {
      "midi": 64,
      "hit": false,
      "t": 177999.99999999994,
      "d": 1086.666666666657,
      "v": 76
    },
    {
      "midi": 68,
      "hit": false,
      "t": 178799.99999999994,
      "d": 253.33333333331393,
      "v": 87
    },
    {
      "midi": 57,
      "hit": false,
      "t": 179200,
      "d": 1600,
      "v": 26
    },
    {
      "midi": 66,
      "hit": false,
      "t": 179200,
      "d": 1600,
      "v": 35
    },
    {
      "midi": 42,
      "hit": false,
      "t": 179399.99999999994,
      "d": 1400,
      "v": 74
    },
    {
      "midi": 57,
      "hit": false,
      "t": 179599.99999999994,
      "d": 1200,
      "v": 74
    },
    {
      "midi": 61,
      "hit": false,
      "t": 179799.99999999994,
      "d": 1000,
      "v": 39
    },
    {
      "midi": 66,
      "hit": false,
      "t": 179799.99999999994,
      "d": 1000,
      "v": 65
    },
    {
      "midi": 69,
      "hit": false,
      "t": 179799.99999999994,
      "d": 1000,
      "v": 63
    },
    {
      "midi": 52,
      "hit": false,
      "t": 180799.99999999994,
      "d": 1600,
      "v": 71
    },
    {
      "midi": 59,
      "hit": false,
      "t": 180799.99999999994,
      "d": 1600,
      "v": 15
    },
    {
      "midi": 62,
      "hit": false,
      "t": 180799.99999999994,
      "d": 1600,
      "v": 26
    },
    {
      "midi": 67,
      "hit": false,
      "t": 180799.99999999994,
      "d": 1600,
      "v": 63
    },
    {
      "midi": 71,
      "hit": false,
      "t": 180799.99999999994,
      "d": 1600,
      "v": 58
    },
    {
      "midi": 62,
      "hit": false,
      "t": 180800,
      "d": 1600,
      "v": 26
    },
    {
      "midi": 69,
      "hit": false,
      "t": 180800,
      "d": 1600,
      "v": 35
    },
    {
      "midi": 66,
      "hit": false,
      "t": 182400,
      "d": 3200,
      "v": 32
    },
    {
      "midi": 69,
      "hit": false,
      "t": 182400,
      "d": 3200,
      "v": 28
    },
    {
      "midi": 61,
      "hit": false,
      "t": 182419.99999999994,
      "d": 1193.333333333314,
      "v": 82
    },
    {
      "midi": 64,
      "hit": false,
      "t": 182419.99999999994,
      "d": 1193.333333333314,
      "v": 82
    },
    {
      "midi": 66,
      "hit": false,
      "t": 182419.99999999994,
      "d": 1193.333333333314,
      "v": 82
    },
    {
      "midi": 69,
      "hit": false,
      "t": 182419.99999999994,
      "d": 1193.333333333314,
      "v": 82
    },
    {
      "midi": 50,
      "hit": false,
      "t": 183586.6666666666,
      "d": 1946.6666666666279,
      "v": 63
    },
    {
      "midi": 62,
      "hit": false,
      "t": 184013.33333333326,
      "d": 1533.333333333314,
      "v": 66
    },
    {
      "midi": 66,
      "hit": false,
      "t": 184399.9999999999,
      "d": 1119.999999999971,
      "v": 68
    },
    {
      "midi": 69,
      "hit": false,
      "t": 184826.66666666657,
      "d": 680,
      "v": 82
    },
    {
      "midi": 73,
      "hit": false,
      "t": 185186.66666666657,
      "d": 320,
      "v": 59
    },
    {
      "midi": 61,
      "hit": false,
      "t": 185600,
      "d": 1660,
      "v": 30
    },
    {
      "midi": 73,
      "hit": false,
      "t": 185600,
      "d": 3200,
      "v": 29
    },
    {
      "midi": 45,
      "hit": false,
      "t": 185799.9999999999,
      "d": 2933.333333333314,
      "v": 68
    },
    {
      "midi": 61,
      "hit": false,
      "t": 185999.9999999999,
      "d": 2686.666666666657,
      "v": 74
    },
    {
      "midi": 64,
      "hit": false,
      "t": 186199.9999999999,
      "d": 2426.666666666657,
      "v": 45
    },
    {
      "midi": 69,
      "hit": false,
      "t": 186199.9999999999,
      "d": 2426.666666666657,
      "v": 71
    },
    {
      "midi": 73,
      "hit": false,
      "t": 186199.9999999999,
      "d": 2446.666666666657,
      "v": 71
    },
    {
      "midi": 64,
      "hit": false,
      "t": 187200,
      "d": 1600,
      "v": 32
    },
    {
      "midi": 59,
      "hit": false,
      "t": 188799.99999999988,
      "d": 2626.666666666657,
      "v": 72
    },
    {
      "midi": 68,
      "hit": false,
      "t": 188799.99999999988,
      "d": 2626.666666666657,
      "v": 72
    },
    {
      "midi": 59,
      "hit": false,
      "t": 188800,
      "d": 3200,
      "v": 38
    },
    {
      "midi": 68,
      "hit": false,
      "t": 188800,
      "d": 3200,
      "v": 22
    },
    {
      "midi": 64,
      "hit": false,
      "t": 191226.66666666654,
      "d": 200,
      "v": 61
    },
    {
      "midi": 68,
      "hit": false,
      "t": 191433.3333333332,
      "d": 280,
      "v": 74
    },
    {
      "midi": 71,
      "hit": false,
      "t": 191633.3333333332,
      "d": 260,
      "v": 68
    },
    {
      "midi": 76,
      "hit": false,
      "t": 191839.99999999985,
      "d": 146.66666666668607,
      "v": 68
    },
    {
      "midi": 42,
      "hit": false,
      "t": 191999.99999999988,
      "d": 1600,
      "v": 71
    },
    {
      "midi": 57,
      "hit": false,
      "t": 191999.99999999988,
      "d": 1600,
      "v": 15
    },
    {
      "midi": 61,
      "hit": false,
      "t": 191999.99999999988,
      "d": 1600,
      "v": 26
    },
    {
      "midi": 66,
      "hit": false,
      "t": 191999.99999999988,
      "d": 1600,
      "v": 63
    },
    {
      "midi": 69,
      "hit": false,
      "t": 191999.99999999988,
      "d": 1600,
      "v": 58
    },
    {
      "midi": 66,
      "hit": false,
      "t": 192000,
      "d": 1600,
      "v": 33
    },
    {
      "midi": 73,
      "hit": false,
      "t": 192000,
      "d": 1600,
      "v": 28
    },
    {
      "midi": 69,
      "hit": false,
      "t": 193600,
      "d": 1600,
      "v": 33
    },
    {
      "midi": 74,
      "hit": false,
      "t": 193600,
      "d": 1600,
      "v": 28
    },
    {
      "midi": 52,
      "hit": false,
      "t": 193799.99999999988,
      "d": 1400,
      "v": 74
    },
    {
      "midi": 59,
      "hit": false,
      "t": 193999.99999999988,
      "d": 1200,
      "v": 74
    },
    {
      "midi": 62,
      "hit": false,
      "t": 194199.99999999988,
      "d": 1000,
      "v": 39
    },
    {
      "midi": 67,
      "hit": false,
      "t": 194199.99999999988,
      "d": 1000,
      "v": 65
    },
    {
      "midi": 71,
      "hit": false,
      "t": 194199.99999999988,
      "d": 1000,
      "v": 63
    },
    {
      "midi": 61,
      "hit": false,
      "t": 195200,
      "d": 1600,
      "v": 26
    },
    {
      "midi": 66,
      "hit": false,
      "t": 195200,
      "d": 1600,
      "v": 35
    },
    {
      "midi": 50,
      "hit": false,
      "t": 195399.99999999988,
      "d": 1400,
      "v": 74
    },
    {
      "midi": 61,
      "hit": false,
      "t": 195599.99999999988,
      "d": 1200,
      "v": 85
    },
    {
      "midi": 66,
      "hit": false,
      "t": 195799.99999999988,
      "d": 1000,
      "v": 65
    },
    {
      "midi": 69,
      "hit": false,
      "t": 195799.99999999988,
      "d": 1000,
      "v": 87
    },
    {
      "midi": 73,
      "hit": false,
      "t": 195799.99999999988,
      "d": 1000,
      "v": 63
    },
    {
      "midi": 50,
      "hit": false,
      "t": 196799.99999999988,
      "d": 800,
      "v": 71
    },
    {
      "midi": 57,
      "hit": false,
      "t": 196799.99999999988,
      "d": 800,
      "v": 15
    },
    {
      "midi": 61,
      "hit": false,
      "t": 196799.99999999988,
      "d": 800,
      "v": 26
    },
    {
      "midi": 66,
      "hit": false,
      "t": 196799.99999999988,
      "d": 800,
      "v": 63
    },
    {
      "midi": 69,
      "hit": false,
      "t": 196799.99999999988,
      "d": 800,
      "v": 58
    },
    {
      "midi": 61,
      "hit": false,
      "t": 196800,
      "d": 800,
      "v": 26
    },
    {
      "midi": 66,
      "hit": false,
      "t": 196800,
      "d": 800,
      "v": 35
    },
    {
      "midi": 52,
      "hit": false,
      "t": 197599.99999999988,
      "d": 800,
      "v": 71
    },
    {
      "midi": 57,
      "hit": false,
      "t": 197599.99999999988,
      "d": 800,
      "v": 15
    },
    {
      "midi": 62,
      "hit": false,
      "t": 197599.99999999988,
      "d": 800,
      "v": 26
    },
    {
      "midi": 66,
      "hit": false,
      "t": 197599.99999999988,
      "d": 800,
      "v": 63
    },
    {
      "midi": 69,
      "hit": false,
      "t": 197599.99999999988,
      "d": 800,
      "v": 58
    },
    {
      "midi": 57,
      "hit": false,
      "t": 197600,
      "d": 800,
      "v": 26
    },
    {
      "midi": 66,
      "hit": false,
      "t": 197600,
      "d": 800,
      "v": 35
    },
    {
      "midi": 69,
      "hit": false,
      "t": 198400,
      "d": 3200,
      "v": 32
    },
    {
      "midi": 73,
      "hit": false,
      "t": 198400,
      "d": 3200,
      "v": 28
    },
    {
      "midi": 57,
      "hit": false,
      "t": 198453.33333333323,
      "d": 2880,
      "v": 78
    },
    {
      "midi": 61,
      "hit": false,
      "t": 198453.33333333323,
      "d": 2880,
      "v": 78
    },
    {
      "midi": 64,
      "hit": false,
      "t": 198453.33333333323,
      "d": 2880,
      "v": 78
    },
    {
      "midi": 68,
      "hit": false,
      "t": 201600,
      "d": 3200,
      "v": 32
    },
    {
      "midi": 71,
      "hit": false,
      "t": 201600,
      "d": 3200,
      "v": 28
    },
    {
      "midi": 59,
      "hit": false,
      "t": 201653.33333333323,
      "d": 2880,
      "v": 78
    },
    {
      "midi": 64,
      "hit": false,
      "t": 201653.33333333323,
      "d": 2880,
      "v": 78
    },
    {
      "midi": 68,
      "hit": false,
      "t": 201653.33333333323,
      "d": 2880,
      "v": 78
    },
    {
      "midi": 57,
      "hit": false,
      "t": 204799.99999999988,
      "d": 1600,
      "v": 80
    },
    {
      "midi": 61,
      "hit": false,
      "t": 204799.99999999988,
      "d": 1600,
      "v": 80
    },
    {
      "midi": 66,
      "hit": false,
      "t": 204799.99999999988,
      "d": 1600,
      "v": 80
    },
    {
      "midi": 57,
      "hit": false,
      "t": 204800,
      "d": 1600,
      "v": 26
    },
    {
      "midi": 66,
      "hit": false,
      "t": 204800,
      "d": 1600,
      "v": 35
    },
    {
      "midi": 62,
      "hit": false,
      "t": 206400,
      "d": 1600,
      "v": 26
    },
    {
      "midi": 69,
      "hit": false,
      "t": 206400,
      "d": 1600,
      "v": 35
    },
    {
      "midi": 62,
      "hit": false,
      "t": 206413.33333333323,
      "d": 1340,
      "v": 72
    },
    {
      "midi": 66,
      "hit": false,
      "t": 206413.33333333323,
      "d": 1340,
      "v": 72
    },
    {
      "midi": 71,
      "hit": false,
      "t": 206413.33333333323,
      "d": 1340,
      "v": 72
    },
    {
      "midi": 67,
      "hit": false,
      "t": 207619.99999999988,
      "d": 133.33333333334303,
      "v": 66
    },
    {
      "midi": 71,
      "hit": false,
      "t": 207826.66666666657,
      "d": 173.33333333334303,
      "v": 70
    },
    {
      "midi": 66,
      "hit": false,
      "t": 208000,
      "d": 3200,
      "v": 32
    },
    {
      "midi": 69,
      "hit": false,
      "t": 208000,
      "d": 3200,
      "v": 28
    },
    {
      "midi": 50,
      "hit": false,
      "t": 208199.9999999999,
      "d": 1400,
      "v": 74
    },
    {
      "midi": 57,
      "hit": false,
      "t": 208399.9999999999,
      "d": 1200,
      "v": 74
    },
    {
      "midi": 61,
      "hit": false,
      "t": 208599.9999999999,
      "d": 1000,
      "v": 39
    },
    {
      "midi": 66,
      "hit": false,
      "t": 208599.9999999999,
      "d": 1000,
      "v": 65
    },
    {
      "midi": 69,
      "hit": false,
      "t": 208599.9999999999,
      "d": 1000,
      "v": 63
    },
    {
      "midi": 61,
      "hit": false,
      "t": 209626.66666666657,
      "d": 773.333333333343,
      "v": 80
    },
    {
      "midi": 64,
      "hit": false,
      "t": 209626.66666666657,
      "d": 773.333333333343,
      "v": 80
    },
    {
      "midi": 66,
      "hit": false,
      "t": 209626.66666666657,
      "d": 773.333333333343,
      "v": 80
    },
    {
      "midi": 69,
      "hit": false,
      "t": 209626.66666666657,
      "d": 773.333333333343,
      "v": 80
    },
    {
      "midi": 57,
      "hit": false,
      "t": 210426.66666666657,
      "d": 773.333333333343,
      "v": 80
    },
    {
      "midi": 62,
      "hit": false,
      "t": 210426.66666666657,
      "d": 773.333333333343,
      "v": 80
    },
    {
      "midi": 66,
      "hit": false,
      "t": 210426.66666666657,
      "d": 773.333333333343,
      "v": 80
    },
    {
      "midi": 61,
      "hit": false,
      "t": 211199.9999999999,
      "d": 4246.666666666657,
      "v": 82
    },
    {
      "midi": 69,
      "hit": false,
      "t": 211199.9999999999,
      "d": 4246.666666666657,
      "v": 82
    },
    {
      "midi": 76,
      "hit": false,
      "t": 211199.9999999999,
      "d": 4246.666666666657,
      "v": 82
    },
    {
      "midi": 61,
      "hit": false,
      "t": 211400,
      "d": 4293.333333333343,
      "v": 15
    },
    {
      "midi": 69,
      "hit": false,
      "t": 211400,
      "d": 4300,
      "v": 52
    },
    {
      "midi": 45,
      "hit": false,
      "t": 215599.9999999999,
      "d": 426.66666666665697,
      "v": 59
    },
    {
      "midi": 61,
      "hit": false,
      "t": 215999.9999999999,
      "d": 793.3333333333139,
      "v": 68
    },
    {
      "midi": 69,
      "hit": false,
      "t": 215999.9999999999,
      "d": 793.3333333333139,
      "v": 68
    },
    {
      "midi": 76,
      "hit": false,
      "t": 215999.9999999999,
      "d": 793.3333333333139,
      "v": 68
    },
    {
      "midi": 61,
      "hit": false,
      "t": 216000,
      "d": 840,
      "v": 33
    },
    {
      "midi": 69,
      "hit": false,
      "t": 216000,
      "d": 840,
      "v": 42
    }
  ]
}