{
  "jsonPath": "Rock/Country Rock/Nicolette Larson/you-send-me.json",
  "path": "Rock\\Country Rock\\Nicolette Larson\\You Send Me.mid",
  "name": "You Send Me",
  "difficulty": "Advanced",
  "bpm": 90.00009000009,
  "notes": [
    {
      "midi": 55,
      "hit": false,
      "t": 5333.3279999999995,
      "d": 944.4435000000003,
      "v": 70
    },
    {
      "midi": 64,
      "hit": false,
      "t": 5333.3279999999995,
      "d": 944.4435000000003,
      "v": 70
    },
    {
      "midi": 62,
      "hit": false,
      "t": 6222.215999999999,
      "d": 55.55550000000039,
      "v": 47
    },
    {
      "midi": 64,
      "hit": false,
      "t": 6444.438,
      "d": 159.7220625,
      "v": 70
    },
    {
      "midi": 60,
      "hit": false,
      "t": 6666.66,
      "d": 944.4435000000003,
      "v": 70
    },
    {
      "midi": 64,
      "hit": false,
      "t": 6666.66,
      "d": 944.4435000000003,
      "v": 70
    },
    {
      "midi": 67,
      "hit": false,
      "t": 6666.66,
      "d": 944.4435000000003,
      "v": 70
    },
    {
      "midi": 69,
      "hit": false,
      "t": 6666.66,
      "d": 944.4435000000003,
      "v": 70
    },
    {
      "midi": 55,
      "hit": false,
      "t": 7555.548,
      "d": 152.77762500000063,
      "v": 47
    },
    {
      "midi": 60,
      "hit": false,
      "t": 7777.77,
      "d": 159.7220625,
      "v": 70
    },
    {
      "midi": 62,
      "hit": false,
      "t": 7999.992,
      "d": 944.4435000000012,
      "v": 70
    },
    {
      "midi": 65,
      "hit": false,
      "t": 7999.992,
      "d": 944.4435000000012,
      "v": 70
    },
    {
      "midi": 69,
      "hit": false,
      "t": 7999.992,
      "d": 944.4435000000012,
      "v": 70
    },
    {
      "midi": 60,
      "hit": false,
      "t": 8888.880000000001,
      "d": 55.55550000000039,
      "v": 47
    },
    {
      "midi": 65,
      "hit": false,
      "t": 9111.102,
      "d": 159.72206249999908,
      "v": 70
    },
    {
      "midi": 59,
      "hit": false,
      "t": 9777.768,
      "d": 277.77750000000015,
      "v": 60
    },
    {
      "midi": 65,
      "hit": false,
      "t": 9999.99,
      "d": 444.4439999999995,
      "v": 87
    },
    {
      "midi": 69,
      "hit": false,
      "t": 10444.434,
      "d": 83.33324999999968,
      "v": 78
    },
    {
      "midi": 59,
      "hit": false,
      "t": 10666.655999999999,
      "d": 1333.3320000000003,
      "v": 76
    },
    {
      "midi": 62,
      "hit": false,
      "t": 10666.655999999999,
      "d": 1333.3320000000003,
      "v": 76
    },
    {
      "midi": 64,
      "hit": false,
      "t": 10666.655999999999,
      "d": 1333.3320000000003,
      "v": 76
    },
    {
      "midi": 67,
      "hit": false,
      "t": 10666.655999999999,
      "d": 1333.3320000000003,
      "v": 76
    },
    {
      "midi": 60,
      "hit": false,
      "t": 12444.431999999999,
      "d": 277.77750000000015,
      "v": 60
    },
    {
      "midi": 67,
      "hit": false,
      "t": 12666.653999999999,
      "d": 444.4439999999995,
      "v": 87
    },
    {
      "midi": 69,
      "hit": false,
      "t": 13111.097999999998,
      "d": 83.33324999999968,
      "v": 78
    },
    {
      "midi": 60,
      "hit": false,
      "t": 13777.763999999997,
      "d": 277.77750000000015,
      "v": 60
    },
    {
      "midi": 65,
      "hit": false,
      "t": 13999.985999999997,
      "d": 444.4439999999995,
      "v": 87
    },
    {
      "midi": 69,
      "hit": false,
      "t": 14444.429999999997,
      "d": 83.33324999999968,
      "v": 78
    },
    {
      "midi": 59,
      "hit": false,
      "t": 14666.651999999996,
      "d": 1333.3320000000003,
      "v": 76
    },
    {
      "midi": 62,
      "hit": false,
      "t": 14666.651999999996,
      "d": 1333.3320000000003,
      "v": 76
    },
    {
      "midi": 65,
      "hit": false,
      "t": 14666.651999999996,
      "d": 1333.3320000000003,
      "v": 76
    },
    {
      "midi": 69,
      "hit": false,
      "t": 14666.651999999996,
      "d": 1333.3320000000003,
      "v": 76
    },
    {
      "midi": 62,
      "hit": false,
      "t": 16444.427999999996,
      "d": 277.77750000000015,
      "v": 60
    },
    {
      "midi": 64,
      "hit": false,
      "t": 16666.649999999998,
      "d": 444.4439999999995,
      "v": 87
    },
    {
      "midi": 67,
      "hit": false,
      "t": 17111.093999999997,
      "d": 83.33324999999968,
      "v": 78
    },
    {
      "midi": 60,
      "hit": false,
      "t": 17333.315999999995,
      "d": 944.4434999999976,
      "v": 70
    },
    {
      "midi": 64,
      "hit": false,
      "t": 17333.315999999995,
      "d": 944.4434999999976,
      "v": 70
    },
    {
      "midi": 67,
      "hit": false,
      "t": 17333.315999999995,
      "d": 944.4434999999976,
      "v": 70
    },
    {
      "midi": 69,
      "hit": false,
      "t": 17333.315999999995,
      "d": 944.4434999999976,
      "v": 70
    },
    {
      "midi": 55,
      "hit": false,
      "t": 18222.203999999994,
      "d": 152.7776249999988,
      "v": 47
    },
    {
      "midi": 60,
      "hit": false,
      "t": 18444.425999999992,
      "d": 159.7220625000009,
      "v": 70
    },
    {
      "midi": 60,
      "hit": false,
      "t": 18666.647999999994,
      "d": 1333.3319999999985,
      "v": 76
    },
    {
      "midi": 62,
      "hit": false,
      "t": 18666.647999999994,
      "d": 1333.3319999999985,
      "v": 76
    },
    {
      "midi": 65,
      "hit": false,
      "t": 18666.647999999994,
      "d": 1333.3319999999985,
      "v": 76
    },
    {
      "midi": 69,
      "hit": false,
      "t": 18666.647999999994,
      "d": 1333.3319999999985,
      "v": 76
    },
    {
      "midi": 59,
      "hit": false,
      "t": 19999.979999999992,
      "d": 1333.3319999999985,
      "v": 76
    },
    {
      "midi": 62,
      "hit": false,
      "t": 19999.979999999992,
      "d": 1333.3319999999985,
      "v": 76
    },
    {
      "midi": 65,
      "hit": false,
      "t": 19999.979999999992,
      "d": 1333.3319999999985,
      "v": 76
    },
    {
      "midi": 69,
      "hit": false,
      "t": 19999.979999999992,
      "d": 1333.3319999999985,
      "v": 76
    },
    {
      "midi": 60,
      "hit": false,
      "t": 21333.31199999999,
      "d": 944.4434999999976,
      "v": 70
    },
    {
      "midi": 64,
      "hit": false,
      "t": 21333.31199999999,
      "d": 944.4434999999976,
      "v": 70
    },
    {
      "midi": 67,
      "hit": false,
      "t": 21333.31199999999,
      "d": 944.4434999999976,
      "v": 70
    },
    {
      "midi": 57,
      "hit": false,
      "t": 22222.19999999999,
      "d": 55.555499999998574,
      "v": 47
    },
    {
      "midi": 64,
      "hit": false,
      "t": 22444.421999999988,
      "d": 159.7220625000009,
      "v": 70
    },
    {
      "midi": 60,
      "hit": false,
      "t": 23111.08799999999,
      "d": 277.77750000000015,
      "v": 60
    },
    {
      "midi": 67,
      "hit": false,
      "t": 23333.30999999999,
      "d": 444.4439999999995,
      "v": 87
    },
    {
      "midi": 69,
      "hit": false,
      "t": 23777.75399999999,
      "d": 83.33324999999968,
      "v": 78
    },
    {
      "midi": 60,
      "hit": false,
      "t": 24444.41999999999,
      "d": 277.77750000000015,
      "v": 60
    },
    {
      "midi": 65,
      "hit": false,
      "t": 24666.641999999993,
      "d": 444.4439999999995,
      "v": 87
    },
    {
      "midi": 69,
      "hit": false,
      "t": 25111.085999999992,
      "d": 83.33324999999968,
      "v": 78
    },
    {
      "midi": 59,
      "hit": false,
      "t": 25333.30799999999,
      "d": 944.4434999999976,
      "v": 70
    },
    {
      "midi": 62,
      "hit": false,
      "t": 25333.30799999999,
      "d": 944.4434999999976,
      "v": 70
    },
    {
      "midi": 65,
      "hit": false,
      "t": 25333.30799999999,
      "d": 944.4434999999976,
      "v": 70
    },
    {
      "midi": 69,
      "hit": false,
      "t": 25333.30799999999,
      "d": 944.4434999999976,
      "v": 70
    },
    {
      "midi": 53,
      "hit": false,
      "t": 26222.19599999999,
      "d": 152.7776249999988,
      "v": 47
    },
    {
      "midi": 59,
      "hit": false,
      "t": 26444.417999999987,
      "d": 159.7220625000009,
      "v": 70
    },
    {
      "midi": 62,
      "hit": false,
      "t": 27111.083999999988,
      "d": 277.77750000000015,
      "v": 60
    },
    {
      "midi": 64,
      "hit": false,
      "t": 27333.30599999999,
      "d": 444.4439999999995,
      "v": 87
    },
    {
      "midi": 67,
      "hit": false,
      "t": 27777.74999999999,
      "d": 83.33324999999968,
      "v": 78
    },
    {
      "midi": 60,
      "hit": false,
      "t": 28444.41599999999,
      "d": 277.77750000000015,
      "v": 60
    },
    {
      "midi": 67,
      "hit": false,
      "t": 28666.63799999999,
      "d": 444.4439999999995,
      "v": 87
    },
    {
      "midi": 69,
      "hit": false,
      "t": 29111.08199999999,
      "d": 83.33324999999968,
      "v": 78
    },
    {
      "midi": 60,
      "hit": false,
      "t": 29333.30399999999,
      "d": 361.1107499999998,
      "v": 72
    },
    {
      "midi": 62,
      "hit": false,
      "t": 29333.30399999999,
      "d": 361.1107499999998,
      "v": 72
    },
    {
      "midi": 65,
      "hit": false,
      "t": 29333.30399999999,
      "d": 361.1107499999998,
      "v": 72
    },
    {
      "midi": 69,
      "hit": false,
      "t": 29333.30399999999,
      "d": 361.1107499999998,
      "v": 72
    },
    {
      "midi": 50,
      "hit": false,
      "t": 29777.74799999999,
      "d": 229.16643750000003,
      "v": 57
    },
    {
      "midi": 60,
      "hit": false,
      "t": 29999.96999999999,
      "d": 243.05531249999694,
      "v": 80
    },
    {
      "midi": 62,
      "hit": false,
      "t": 29999.96999999999,
      "d": 243.05531249999694,
      "v": 80
    },
    {
      "midi": 65,
      "hit": false,
      "t": 29999.96999999999,
      "d": 243.05531249999694,
      "v": 80
    },
    {
      "midi": 69,
      "hit": false,
      "t": 29999.96999999999,
      "d": 243.05531249999694,
      "v": 80
    },
    {
      "midi": 59,
      "hit": false,
      "t": 30666.635999999988,
      "d": 944.4434999999976,
      "v": 70
    },
    {
      "midi": 62,
      "hit": false,
      "t": 30666.635999999988,
      "d": 944.4434999999976,
      "v": 70
    },
    {
      "midi": 65,
      "hit": false,
      "t": 30666.635999999988,
      "d": 944.4434999999976,
      "v": 70
    },
    {
      "midi": 69,
      "hit": false,
      "t": 30666.635999999988,
      "d": 944.4434999999976,
      "v": 70
    },
    {
      "midi": 53,
      "hit": false,
      "t": 31555.523999999987,
      "d": 152.7776249999988,
      "v": 47
    },
    {
      "midi": 59,
      "hit": false,
      "t": 31777.745999999985,
      "d": 159.7220625000009,
      "v": 70
    },
    {
      "midi": 59,
      "hit": false,
      "t": 31999.967999999986,
      "d": 361.1107499999998,
      "v": 72
    },
    {
      "midi": 62,
      "hit": false,
      "t": 31999.967999999986,
      "d": 361.1107499999998,
      "v": 72
    },
    {
      "midi": 64,
      "hit": false,
      "t": 31999.967999999986,
      "d": 361.1107499999998,
      "v": 72
    },
    {
      "midi": 67,
      "hit": false,
      "t": 31999.967999999986,
      "d": 361.1107499999998,
      "v": 72
    },
    {
      "midi": 48,
      "hit": false,
      "t": 32444.411999999986,
      "d": 229.16643750000003,
      "v": 57
    },
    {
      "midi": 59,
      "hit": false,
      "t": 32666.633999999987,
      "d": 243.05531249999694,
      "v": 80
    },
    {
      "midi": 62,
      "hit": false,
      "t": 32666.633999999987,
      "d": 243.05531249999694,
      "v": 80
    },
    {
      "midi": 64,
      "hit": false,
      "t": 32666.633999999987,
      "d": 243.05531249999694,
      "v": 80
    },
    {
      "midi": 67,
      "hit": false,
      "t": 32666.633999999987,
      "d": 243.05531249999694,
      "v": 80
    },
    {
      "midi": 60,
      "hit": false,
      "t": 33333.29999999998,
      "d": 1333.3320000000022,
      "v": 76
    },
    {
      "midi": 64,
      "hit": false,
      "t": 33333.29999999998,
      "d": 1333.3320000000022,
      "v": 76
    },
    {
      "midi": 67,
      "hit": false,
      "t": 33333.29999999998,
      "d": 1333.3320000000022,
      "v": 76
    },
    {
      "midi": 69,
      "hit": false,
      "t": 33333.29999999998,
      "d": 1333.3320000000022,
      "v": 76
    },
    {
      "midi": 60,
      "hit": false,
      "t": 35111.07599999999,
      "d": 277.7775000000038,
      "v": 60
    },
    {
      "midi": 65,
      "hit": false,
      "t": 35333.29799999999,
      "d": 444.44400000000314,
      "v": 87
    },
    {
      "midi": 69,
      "hit": false,
      "t": 35777.74199999999,
      "d": 83.33325000000332,
      "v": 78
    },
    {
      "midi": 59,
      "hit": false,
      "t": 36444.407999999996,
      "d": 277.7775000000038,
      "v": 60
    },
    {
      "midi": 65,
      "hit": false,
      "t": 36666.63,
      "d": 444.44400000000314,
      "v": 87
    },
    {
      "midi": 69,
      "hit": false,
      "t": 37111.074,
      "d": 83.33325000000332,
      "v": 78
    },
    {
      "midi": 55,
      "hit": false,
      "t": 37333.296,
      "d": 944.4435000000012,
      "v": 70
    },
    {
      "midi": 64,
      "hit": false,
      "t": 37333.296,
      "d": 944.4435000000012,
      "v": 70
    },
    {
      "midi": 62,
      "hit": false,
      "t": 38222.184,
      "d": 55.55550000000221,
      "v": 47
    },
    {
      "midi": 64,
      "hit": false,
      "t": 38444.406,
      "d": 159.72206249999726,
      "v": 70
    },
    {
      "midi": 60,
      "hit": false,
      "t": 38666.628,
      "d": 1333.3320000000022,
      "v": 76
    },
    {
      "midi": 64,
      "hit": false,
      "t": 38666.628,
      "d": 1333.3320000000022,
      "v": 76
    },
    {
      "midi": 67,
      "hit": false,
      "t": 38666.628,
      "d": 1333.3320000000022,
      "v": 76
    },
    {
      "midi": 69,
      "hit": false,
      "t": 38666.628,
      "d": 1333.3320000000022,
      "v": 76
    },
    {
      "midi": 60,
      "hit": false,
      "t": 39999.96,
      "d": 1333.3320000000022,
      "v": 76
    },
    {
      "midi": 62,
      "hit": false,
      "t": 39999.96,
      "d": 1333.3320000000022,
      "v": 76
    },
    {
      "midi": 65,
      "hit": false,
      "t": 39999.96,
      "d": 1333.3320000000022,
      "v": 76
    },
    {
      "midi": 69,
      "hit": false,
      "t": 39999.96,
      "d": 1333.3320000000022,
      "v": 76
    },
    {
      "midi": 59,
      "hit": false,
      "t": 41333.292,
      "d": 944.4435000000012,
      "v": 70
    },
    {
      "midi": 62,
      "hit": false,
      "t": 41333.292,
      "d": 944.4435000000012,
      "v": 70
    },
    {
      "midi": 65,
      "hit": false,
      "t": 41333.292,
      "d": 944.4435000000012,
      "v": 70
    },
    {
      "midi": 69,
      "hit": false,
      "t": 41333.292,
      "d": 944.4435000000012,
      "v": 70
    },
    {
      "midi": 53,
      "hit": false,
      "t": 42222.18,
      "d": 152.77762500000244,
      "v": 47
    },
    {
      "midi": 59,
      "hit": false,
      "t": 42444.402,
      "d": 159.72206249999726,
      "v": 70
    },
    {
      "midi": 60,
      "hit": false,
      "t": 42666.623999999996,
      "d": 944.4435000000012,
      "v": 70
    },
    {
      "midi": 64,
      "hit": false,
      "t": 42666.623999999996,
      "d": 944.4435000000012,
      "v": 70
    },
    {
      "midi": 67,
      "hit": false,
      "t": 42666.623999999996,
      "d": 944.4435000000012,
      "v": 70
    },
    {
      "midi": 57,
      "hit": false,
      "t": 43555.511999999995,
      "d": 55.55550000000221,
      "v": 47
    },
    {
      "midi": 64,
      "hit": false,
      "t": 43777.734,
      "d": 159.72206249999726,
      "v": 70
    },
    {
      "midi": 57,
      "hit": false,
      "t": 43999.95599999999,
      "d": 944.4435000000012,
      "v": 70
    },
    {
      "midi": 60,
      "hit": false,
      "t": 43999.95599999999,
      "d": 944.4435000000012,
      "v": 70
    },
    {
      "midi": 65,
      "hit": false,
      "t": 44888.84399999999,
      "d": 55.55550000000221,
      "v": 47
    },
    {
      "midi": 69,
      "hit": false,
      "t": 45111.06599999999,
      "d": 159.72206249999726,
      "v": 70
    },
    {
      "midi": 57,
      "hit": false,
      "t": 45777.73199999999,
      "d": 277.7775000000038,
      "v": 60
    },
    {
      "midi": 64,
      "hit": false,
      "t": 45999.95399999999,
      "d": 444.44400000000314,
      "v": 87
    },
    {
      "midi": 67,
      "hit": false,
      "t": 46444.397999999994,
      "d": 83.33325000000332,
      "v": 78
    },
    {
      "midi": 60,
      "hit": false,
      "t": 46666.619999999995,
      "d": 1333.3320000000022,
      "v": 76
    },
    {
      "midi": 64,
      "hit": false,
      "t": 46666.619999999995,
      "d": 1333.3320000000022,
      "v": 76
    },
    {
      "midi": 67,
      "hit": false,
      "t": 46666.619999999995,
      "d": 1333.3320000000022,
      "v": 76
    },
    {
      "midi": 69,
      "hit": false,
      "t": 46666.619999999995,
      "d": 1333.3320000000022,
      "v": 76
    },
    {
      "midi": 60,
      "hit": false,
      "t": 47999.952,
      "d": 361.1107499999998,
      "v": 72
    },
    {
      "midi": 62,
      "hit": false,
      "t": 47999.952,
      "d": 361.1107499999998,
      "v": 72
    },
    {
      "midi": 65,
      "hit": false,
      "t": 47999.952,
      "d": 361.1107499999998,
      "v": 72
    },
    {
      "midi": 69,
      "hit": false,
      "t": 47999.952,
      "d": 361.1107499999998,
      "v": 72
    },
    {
      "midi": 50,
      "hit": false,
      "t": 48444.396,
      "d": 229.16643750000367,
      "v": 57
    },
    {
      "midi": 60,
      "hit": false,
      "t": 48666.618,
      "d": 243.05531250000058,
      "v": 80
    },
    {
      "midi": 62,
      "hit": false,
      "t": 48666.618,
      "d": 243.05531250000058,
      "v": 80
    },
    {
      "midi": 65,
      "hit": false,
      "t": 48666.618,
      "d": 243.05531250000058,
      "v": 80
    },
    {
      "midi": 69,
      "hit": false,
      "t": 48666.618,
      "d": 243.05531250000058,
      "v": 80
    },
    {
      "midi": 59,
      "hit": false,
      "t": 49333.284,
      "d": 361.1107499999998,
      "v": 72
    },
    {
      "midi": 62,
      "hit": false,
      "t": 49333.284,
      "d": 361.1107499999998,
      "v": 72
    },
    {
      "midi": 65,
      "hit": false,
      "t": 49333.284,
      "d": 361.1107499999998,
      "v": 72
    },
    {
      "midi": 69,
      "hit": false,
      "t": 49333.284,
      "d": 361.1107499999998,
      "v": 72
    },
    {
      "midi": 43,
      "hit": false,
      "t": 49777.728,
      "d": 229.16643750000367,
      "v": 57
    },
    {
      "midi": 59,
      "hit": false,
      "t": 49999.950000000004,
      "d": 243.05531250000058,
      "v": 80
    },
    {
      "midi": 62,
      "hit": false,
      "t": 49999.950000000004,
      "d": 243.05531250000058,
      "v": 80
    },
    {
      "midi": 65,
      "hit": false,
      "t": 49999.950000000004,
      "d": 243.05531250000058,
      "v": 80
    },
    {
      "midi": 69,
      "hit": false,
      "t": 49999.950000000004,
      "d": 243.05531250000058,
      "v": 80
    },
    {
      "midi": 59,
      "hit": false,
      "t": 50666.616,
      "d": 361.1107499999998,
      "v": 72
    },
    {
      "midi": 62,
      "hit": false,
      "t": 50666.616,
      "d": 361.1107499999998,
      "v": 72
    },
    {
      "midi": 64,
      "hit": false,
      "t": 50666.616,
      "d": 361.1107499999998,
      "v": 72
    },
    {
      "midi": 67,
      "hit": false,
      "t": 50666.616,
      "d": 361.1107499999998,
      "v": 72
    },
    {
      "midi": 48,
      "hit": false,
      "t": 51111.060000000005,
      "d": 229.16643750000367,
      "v": 57
    },
    {
      "midi": 59,
      "hit": false,
      "t": 51333.28200000001,
      "d": 243.05531250000058,
      "v": 80
    },
    {
      "midi": 62,
      "hit": false,
      "t": 51333.28200000001,
      "d": 243.05531250000058,
      "v": 80
    },
    {
      "midi": 64,
      "hit": false,
      "t": 51333.28200000001,
      "d": 243.05531250000058,
      "v": 80
    },
    {
      "midi": 67,
      "hit": false,
      "t": 51333.28200000001,
      "d": 243.05531250000058,
      "v": 80
    },
    {
      "midi": 60,
      "hit": false,
      "t": 51999.948000000004,
      "d": 1333.3320000000022,
      "v": 76
    },
    {
      "midi": 64,
      "hit": false,
      "t": 51999.948000000004,
      "d": 1333.3320000000022,
      "v": 76
    },
    {
      "midi": 67,
      "hit": false,
      "t": 51999.948000000004,
      "d": 1333.3320000000022,
      "v": 76
    },
    {
      "midi": 69,
      "hit": false,
      "t": 51999.948000000004,
      "d": 1333.3320000000022,
      "v": 76
    },
    {
      "midi": 60,
      "hit": false,
      "t": 53777.72400000001,
      "d": 277.7775000000038,
      "v": 60
    },
    {
      "midi": 65,
      "hit": false,
      "t": 53999.94600000001,
      "d": 444.44400000000314,
      "v": 87
    },
    {
      "midi": 69,
      "hit": false,
      "t": 54444.390000000014,
      "d": 83.33325000000332,
      "v": 78
    },
    {
      "midi": 59,
      "hit": false,
      "t": 54666.612000000016,
      "d": 361.1107499999998,
      "v": 72
    },
    {
      "midi": 62,
      "hit": false,
      "t": 54666.612000000016,
      "d": 361.1107499999998,
      "v": 72
    },
    {
      "midi": 65,
      "hit": false,
      "t": 54666.612000000016,
      "d": 361.1107499999998,
      "v": 72
    },
    {
      "midi": 69,
      "hit": false,
      "t": 54666.612000000016,
      "d": 361.1107499999998,
      "v": 72
    },
    {
      "midi": 43,
      "hit": false,
      "t": 55111.05600000002,
      "d": 229.16643750000367,
      "v": 57
    },
    {
      "midi": 59,
      "hit": false,
      "t": 55333.27800000002,
      "d": 243.05531250000058,
      "v": 80
    },
    {
      "midi": 62,
      "hit": false,
      "t": 55333.27800000002,
      "d": 243.05531250000058,
      "v": 80
    },
    {
      "midi": 65,
      "hit": false,
      "t": 55333.27800000002,
      "d": 243.05531250000058,
      "v": 80
    },
    {
      "midi": 69,
      "hit": false,
      "t": 55333.27800000002,
      "d": 243.05531250000058,
      "v": 80
    },
    {
      "midi": 62,
      "hit": false,
      "t": 55999.94400000002,
      "d": 944.4435000000012,
      "v": 70
    },
    {
      "midi": 64,
      "hit": false,
      "t": 55999.94400000002,
      "d": 944.4435000000012,
      "v": 70
    },
    {
      "midi": 67,
      "hit": false,
      "t": 55999.94400000002,
      "d": 944.4435000000012,
      "v": 70
    },
    {
      "midi": 59,
      "hit": false,
      "t": 56888.83200000002,
      "d": 55.55550000000221,
      "v": 47
    },
    {
      "midi": 64,
      "hit": false,
      "t": 57111.05400000002,
      "d": 159.72206249999726,
      "v": 70
    },
    {
      "midi": 60,
      "hit": false,
      "t": 57333.27600000001,
      "d": 1333.3320000000022,
      "v": 76
    },
    {
      "midi": 64,
      "hit": false,
      "t": 57333.27600000001,
      "d": 1333.3320000000022,
      "v": 76
    },
    {
      "midi": 67,
      "hit": false,
      "t": 57333.27600000001,
      "d": 1333.3320000000022,
      "v": 76
    },
    {
      "midi": 69,
      "hit": false,
      "t": 57333.27600000001,
      "d": 1333.3320000000022,
      "v": 76
    },
    {
      "midi": 60,
      "hit": false,
      "t": 58666.608000000015,
      "d": 361.1107499999998,
      "v": 72
    },
    {
      "midi": 62,
      "hit": false,
      "t": 58666.608000000015,
      "d": 361.1107499999998,
      "v": 72
    },
    {
      "midi": 65,
      "hit": false,
      "t": 58666.608000000015,
      "d": 361.1107499999998,
      "v": 72
    },
    {
      "midi": 69,
      "hit": false,
      "t": 58666.608000000015,
      "d": 361.1107499999998,
      "v": 72
    },
    {
      "midi": 50,
      "hit": false,
      "t": 59111.05200000002,
      "d": 229.16643750000367,
      "v": 57
    },
    {
      "midi": 60,
      "hit": false,
      "t": 59333.27400000002,
      "d": 243.05531250000058,
      "v": 80
    },
    {
      "midi": 62,
      "hit": false,
      "t": 59333.27400000002,
      "d": 243.05531250000058,
      "v": 80
    },
    {
      "midi": 65,
      "hit": false,
      "t": 59333.27400000002,
      "d": 243.05531250000058,
      "v": 80
    },
    {
      "midi": 69,
      "hit": false,
      "t": 59333.27400000002,
      "d": 243.05531250000058,
      "v": 80
    },
    {
      "midi": 59,
      "hit": false,
      "t": 59999.94000000002,
      "d": 1333.3320000000022,
      "v": 76
    },
    {
      "midi": 64,
      "hit": false,
      "t": 59999.94000000002,
      "d": 1333.3320000000022,
      "v": 76
    },
    {
      "midi": 65,
      "hit": false,
      "t": 59999.94000000002,
      "d": 1333.3320000000022,
      "v": 76
    },
    {
      "midi": 69,
      "hit": false,
      "t": 59999.94000000002,
      "d": 1333.3320000000022,
      "v": 76
    },
    {
      "midi": 55,
      "hit": false,
      "t": 61333.27200000002,
      "d": 361.1107499999998,
      "v": 72
    },
    {
      "midi": 60,
      "hit": false,
      "t": 61333.27200000002,
      "d": 361.1107499999998,
      "v": 72
    },
    {
      "midi": 64,
      "hit": false,
      "t": 61333.27200000002,
      "d": 361.1107499999998,
      "v": 72
    },
    {
      "midi": 48,
      "hit": false,
      "t": 61777.71600000002,
      "d": 222.22200000000157,
      "v": 57
    },
    {
      "midi": 56,
      "hit": false,
      "t": 61999.938000000024,
      "d": 361.1107499999998,
      "v": 72
    },
    {
      "midi": 58,
      "hit": false,
      "t": 61999.938000000024,
      "d": 361.1107499999998,
      "v": 72
    },
    {
      "midi": 62,
      "hit": false,
      "t": 61999.938000000024,
      "d": 361.1107499999998,
      "v": 72
    },
    {
      "midi": 65,
      "hit": false,
      "t": 61999.938000000024,
      "d": 361.1107499999998,
      "v": 72
    },
    {
      "midi": 46,
      "hit": false,
      "t": 62444.38200000003,
      "d": 222.22200000000157,
      "v": 57
    },
    {
      "midi": 61,
      "hit": false,
      "t": 62666.60400000003,
      "d": 361.1107499999998,
      "v": 72
    },
    {
      "midi": 64,
      "hit": false,
      "t": 62666.60400000003,
      "d": 361.1107499999998,
      "v": 72
    },
    {
      "midi": 67,
      "hit": false,
      "t": 62666.60400000003,
      "d": 361.1107499999998,
      "v": 72
    },
    {
      "midi": 71,
      "hit": false,
      "t": 62666.60400000003,
      "d": 361.1107499999998,
      "v": 72
    },
    {
      "midi": 45,
      "hit": false,
      "t": 63111.04800000003,
      "d": 229.16643750000367,
      "v": 57
    },
    {
      "midi": 61,
      "hit": false,
      "t": 63333.27000000003,
      "d": 243.05531250000058,
      "v": 80
    },
    {
      "midi": 64,
      "hit": false,
      "t": 63333.27000000003,
      "d": 243.05531250000058,
      "v": 80
    },
    {
      "midi": 67,
      "hit": false,
      "t": 63333.27000000003,
      "d": 243.05531250000058,
      "v": 80
    },
    {
      "midi": 71,
      "hit": false,
      "t": 63333.27000000003,
      "d": 243.05531250000058,
      "v": 80
    },
    {
      "midi": 57,
      "hit": false,
      "t": 63999.93600000003,
      "d": 361.1107499999998,
      "v": 72
    },
    {
      "midi": 60,
      "hit": false,
      "t": 63999.93600000003,
      "d": 361.1107499999998,
      "v": 72
    },
    {
      "midi": 62,
      "hit": false,
      "t": 63999.93600000003,
      "d": 361.1107499999998,
      "v": 72
    },
    {
      "midi": 66,
      "hit": false,
      "t": 63999.93600000003,
      "d": 361.1107499999998,
      "v": 72
    },
    {
      "midi": 50,
      "hit": false,
      "t": 64444.380000000034,
      "d": 222.22200000000157,
      "v": 57
    },
    {
      "midi": 58,
      "hit": false,
      "t": 64666.602000000035,
      "d": 361.1107499999998,
      "v": 72
    },
    {
      "midi": 61,
      "hit": false,
      "t": 64666.602000000035,
      "d": 361.1107499999998,
      "v": 72
    },
    {
      "midi": 63,
      "hit": false,
      "t": 64666.602000000035,
      "d": 361.1107499999998,
      "v": 72
    },
    {
      "midi": 67,
      "hit": false,
      "t": 64666.602000000035,
      "d": 361.1107499999998,
      "v": 72
    },
    {
      "midi": 51,
      "hit": false,
      "t": 65111.04600000004,
      "d": 222.22200000000157,
      "v": 57
    },
    {
      "midi": 62,
      "hit": false,
      "t": 65333.26800000004,
      "d": 944.4435000000085,
      "v": 70
    },
    {
      "midi": 66,
      "hit": false,
      "t": 65333.26800000004,
      "d": 944.4435000000085,
      "v": 70
    },
    {
      "midi": 69,
      "hit": false,
      "t": 65333.26800000004,
      "d": 944.4435000000085,
      "v": 70
    },
    {
      "midi": 60,
      "hit": false,
      "t": 66222.15600000005,
      "d": 55.55550000000221,
      "v": 47
    },
    {
      "midi": 66,
      "hit": false,
      "t": 66444.37800000006,
      "d": 159.72206250000454,
      "v": 70
    },
    {
      "midi": 60,
      "hit": false,
      "t": 66666.60000000006,
      "d": 1333.3319999999949,
      "v": 76
    },
    {
      "midi": 62,
      "hit": false,
      "t": 66666.60000000006,
      "d": 1333.3319999999949,
      "v": 76
    },
    {
      "midi": 65,
      "hit": false,
      "t": 66666.60000000006,
      "d": 1333.3319999999949,
      "v": 76
    },
    {
      "midi": 69,
      "hit": false,
      "t": 66666.60000000006,
      "d": 1333.3319999999949,
      "v": 76
    },
    {
      "midi": 59,
      "hit": false,
      "t": 68444.37600000006,
      "d": 277.7774999999965,
      "v": 60
    },
    {
      "midi": 65,
      "hit": false,
      "t": 68666.59800000006,
      "d": 444.44400000000314,
      "v": 87
    },
    {
      "midi": 69,
      "hit": false,
      "t": 69111.04200000006,
      "d": 83.33324999999604,
      "v": 78
    },
    {
      "midi": 55,
      "hit": false,
      "t": 69333.26400000005,
      "d": 361.1107500000071,
      "v": 72
    },
    {
      "midi": 62,
      "hit": false,
      "t": 69333.26400000005,
      "d": 361.1107500000071,
      "v": 72
    },
    {
      "midi": 64,
      "hit": false,
      "t": 69333.26400000005,
      "d": 361.1107500000071,
      "v": 72
    },
    {
      "midi": 48,
      "hit": false,
      "t": 69777.70800000006,
      "d": 229.1664374999964,
      "v": 57
    },
    {
      "midi": 55,
      "hit": false,
      "t": 69999.93000000005,
      "d": 243.05531250000058,
      "v": 80
    },
    {
      "midi": 62,
      "hit": false,
      "t": 69999.93000000005,
      "d": 243.05531250000058,
      "v": 80
    },
    {
      "midi": 64,
      "hit": false,
      "t": 69999.93000000005,
      "d": 243.05531250000058,
      "v": 80
    },
    {
      "midi": 60,
      "hit": false,
      "t": 70666.59600000005,
      "d": 944.4435000000085,
      "v": 70
    },
    {
      "midi": 64,
      "hit": false,
      "t": 70666.59600000005,
      "d": 944.4435000000085,
      "v": 70
    },
    {
      "midi": 67,
      "hit": false,
      "t": 70666.59600000005,
      "d": 944.4435000000085,
      "v": 70
    },
    {
      "midi": 69,
      "hit": false,
      "t": 70666.59600000005,
      "d": 944.4435000000085,
      "v": 70
    },
    {
      "midi": 55,
      "hit": false,
      "t": 71555.48400000005,
      "d": 152.77762500000244,
      "v": 47
    },
    {
      "midi": 60,
      "hit": false,
      "t": 71777.70600000006,
      "d": 159.72206250000454,
      "v": 70
    },
    {
      "midi": 60,
      "hit": false,
      "t": 71999.92800000007,
      "d": 361.1107500000071,
      "v": 72
    },
    {
      "midi": 62,
      "hit": false,
      "t": 71999.92800000007,
      "d": 361.1107500000071,
      "v": 72
    },
    {
      "midi": 65,
      "hit": false,
      "t": 71999.92800000007,
      "d": 361.1107500000071,
      "v": 72
    },
    {
      "midi": 69,
      "hit": false,
      "t": 71999.92800000007,
      "d": 361.1107500000071,
      "v": 72
    },
    {
      "midi": 50,
      "hit": false,
      "t": 72444.37200000008,
      "d": 229.1664374999964,
      "v": 57
    },
    {
      "midi": 60,
      "hit": false,
      "t": 72666.59400000007,
      "d": 243.05531250000058,
      "v": 80
    },
    {
      "midi": 62,
      "hit": false,
      "t": 72666.59400000007,
      "d": 243.05531250000058,
      "v": 80
    },
    {
      "midi": 65,
      "hit": false,
      "t": 72666.59400000007,
      "d": 243.05531250000058,
      "v": 80
    },
    {
      "midi": 69,
      "hit": false,
      "t": 72666.59400000007,
      "d": 243.05531250000058,
      "v": 80
    },
    {
      "midi": 59,
      "hit": false,
      "t": 73333.26000000007,
      "d": 944.4435000000085,
      "v": 70
    },
    {
      "midi": 62,
      "hit": false,
      "t": 73333.26000000007,
      "d": 944.4435000000085,
      "v": 70
    },
    {
      "midi": 65,
      "hit": false,
      "t": 73333.26000000007,
      "d": 944.4435000000085,
      "v": 70
    },
    {
      "midi": 69,
      "hit": false,
      "t": 73333.26000000007,
      "d": 944.4435000000085,
      "v": 70
    },
    {
      "midi": 53,
      "hit": false,
      "t": 74222.14800000007,
      "d": 152.77762500000244,
      "v": 47
    },
    {
      "midi": 59,
      "hit": false,
      "t": 74444.37000000008,
      "d": 159.72206250000454,
      "v": 70
    },
    {
      "midi": 59,
      "hit": false,
      "t": 74666.59200000009,
      "d": 361.1107500000071,
      "v": 72
    },
    {
      "midi": 62,
      "hit": false,
      "t": 74666.59200000009,
      "d": 361.1107500000071,
      "v": 72
    },
    {
      "midi": 64,
      "hit": false,
      "t": 74666.59200000009,
      "d": 361.1107500000071,
      "v": 72
    },
    {
      "midi": 67,
      "hit": false,
      "t": 74666.59200000009,
      "d": 361.1107500000071,
      "v": 72
    },
    {
      "midi": 48,
      "hit": false,
      "t": 75111.0360000001,
      "d": 229.1664374999964,
      "v": 57
    },
    {
      "midi": 59,
      "hit": false,
      "t": 75333.25800000009,
      "d": 243.05531250000058,
      "v": 80
    },
    {
      "midi": 62,
      "hit": false,
      "t": 75333.25800000009,
      "d": 243.05531250000058,
      "v": 80
    },
    {
      "midi": 64,
      "hit": false,
      "t": 75333.25800000009,
      "d": 243.05531250000058,
      "v": 80
    },
    {
      "midi": 67,
      "hit": false,
      "t": 75333.25800000009,
      "d": 243.05531250000058,
      "v": 80
    },
    {
      "midi": 60,
      "hit": false,
      "t": 75999.92400000009,
      "d": 361.1107500000071,
      "v": 72
    },
    {
      "midi": 64,
      "hit": false,
      "t": 75999.92400000009,
      "d": 361.1107500000071,
      "v": 72
    },
    {
      "midi": 67,
      "hit": false,
      "t": 75999.92400000009,
      "d": 361.1107500000071,
      "v": 72
    },
    {
      "midi": 69,
      "hit": false,
      "t": 75999.92400000009,
      "d": 361.1107500000071,
      "v": 72
    },
    {
      "midi": 45,
      "hit": false,
      "t": 76444.36800000009,
      "d": 229.1664374999964,
      "v": 57
    },
    {
      "midi": 60,
      "hit": false,
      "t": 76666.59000000008,
      "d": 243.05531250000058,
      "v": 80
    },
    {
      "midi": 64,
      "hit": false,
      "t": 76666.59000000008,
      "d": 243.05531250000058,
      "v": 80
    },
    {
      "midi": 67,
      "hit": false,
      "t": 76666.59000000008,
      "d": 243.05531250000058,
      "v": 80
    },
    {
      "midi": 69,
      "hit": false,
      "t": 76666.59000000008,
      "d": 243.05531250000058,
      "v": 80
    },
    {
      "midi": 60,
      "hit": false,
      "t": 77333.25600000008,
      "d": 1333.3319999999949,
      "v": 76
    },
    {
      "midi": 62,
      "hit": false,
      "t": 77333.25600000008,
      "d": 1333.3319999999949,
      "v": 76
    },
    {
      "midi": 65,
      "hit": false,
      "t": 77333.25600000008,
      "d": 1333.3319999999949,
      "v": 76
    },
    {
      "midi": 69,
      "hit": false,
      "t": 77333.25600000008,
      "d": 1333.3319999999949,
      "v": 76
    },
    {
      "midi": 59,
      "hit": false,
      "t": 78666.58800000008,
      "d": 944.4435000000085,
      "v": 70
    },
    {
      "midi": 62,
      "hit": false,
      "t": 78666.58800000008,
      "d": 944.4435000000085,
      "v": 70
    },
    {
      "midi": 65,
      "hit": false,
      "t": 78666.58800000008,
      "d": 944.4435000000085,
      "v": 70
    },
    {
      "midi": 69,
      "hit": false,
      "t": 78666.58800000008,
      "d": 944.4435000000085,
      "v": 70
    },
    {
      "midi": 53,
      "hit": false,
      "t": 79555.47600000008,
      "d": 152.77762500000244,
      "v": 47
    },
    {
      "midi": 59,
      "hit": false,
      "t": 79777.69800000009,
      "d": 159.72206250000454,
      "v": 70
    },
    {
      "midi": 59,
      "hit": false,
      "t": 79999.9200000001,
      "d": 361.1107500000071,
      "v": 72
    },
    {
      "midi": 62,
      "hit": false,
      "t": 79999.9200000001,
      "d": 361.1107500000071,
      "v": 72
    },
    {
      "midi": 64,
      "hit": false,
      "t": 79999.9200000001,
      "d": 361.1107500000071,
      "v": 72
    },
    {
      "midi": 67,
      "hit": false,
      "t": 79999.9200000001,
      "d": 361.1107500000071,
      "v": 72
    },
    {
      "midi": 48,
      "hit": false,
      "t": 80444.3640000001,
      "d": 229.1664374999964,
      "v": 57
    },
    {
      "midi": 59,
      "hit": false,
      "t": 80666.5860000001,
      "d": 243.05531250000058,
      "v": 80
    },
    {
      "midi": 62,
      "hit": false,
      "t": 80666.5860000001,
      "d": 243.05531250000058,
      "v": 80
    },
    {
      "midi": 64,
      "hit": false,
      "t": 80666.5860000001,
      "d": 243.05531250000058,
      "v": 80
    },
    {
      "midi": 67,
      "hit": false,
      "t": 80666.5860000001,
      "d": 243.05531250000058,
      "v": 80
    },
    {
      "midi": 60,
      "hit": false,
      "t": 81777.6960000001,
      "d": 277.7774999999965,
      "v": 60
    },
    {
      "midi": 67,
      "hit": false,
      "t": 81999.91800000009,
      "d": 444.44400000000314,
      "v": 87
    },
    {
      "midi": 69,
      "hit": false,
      "t": 82444.3620000001,
      "d": 83.33324999999604,
      "v": 78
    },
    {
      "midi": 60,
      "hit": false,
      "t": 82666.58400000009,
      "d": 361.1107500000071,
      "v": 72
    },
    {
      "midi": 62,
      "hit": false,
      "t": 82666.58400000009,
      "d": 361.1107500000071,
      "v": 72
    },
    {
      "midi": 65,
      "hit": false,
      "t": 82666.58400000009,
      "d": 361.1107500000071,
      "v": 72
    },
    {
      "midi": 69,
      "hit": false,
      "t": 82666.58400000009,
      "d": 361.1107500000071,
      "v": 72
    },
    {
      "midi": 50,
      "hit": false,
      "t": 83111.0280000001,
      "d": 229.1664374999964,
      "v": 57
    },
    {
      "midi": 60,
      "hit": false,
      "t": 83333.25000000009,
      "d": 243.05531250000058,
      "v": 80
    },
    {
      "midi": 62,
      "hit": false,
      "t": 83333.25000000009,
      "d": 243.05531250000058,
      "v": 80
    },
    {
      "midi": 65,
      "hit": false,
      "t": 83333.25000000009,
      "d": 243.05531250000058,
      "v": 80
    },
    {
      "midi": 69,
      "hit": false,
      "t": 83333.25000000009,
      "d": 243.05531250000058,
      "v": 80
    },
    {
      "midi": 59,
      "hit": false,
      "t": 84444.36000000009,
      "d": 277.7774999999965,
      "v": 60
    },
    {
      "midi": 65,
      "hit": false,
      "t": 84666.58200000008,
      "d": 444.44400000000314,
      "v": 87
    },
    {
      "midi": 69,
      "hit": false,
      "t": 85111.02600000009,
      "d": 83.33324999999604,
      "v": 78
    },
    {
      "midi": 60,
      "hit": false,
      "t": 85333.24800000008,
      "d": 944.4435000000085,
      "v": 70
    },
    {
      "midi": 64,
      "hit": false,
      "t": 85333.24800000008,
      "d": 944.4435000000085,
      "v": 70
    },
    {
      "midi": 67,
      "hit": false,
      "t": 85333.24800000008,
      "d": 944.4435000000085,
      "v": 70
    },
    {
      "midi": 57,
      "hit": false,
      "t": 86222.13600000009,
      "d": 55.55550000000221,
      "v": 47
    },
    {
      "midi": 64,
      "hit": false,
      "t": 86444.3580000001,
      "d": 159.72206250000454,
      "v": 70
    },
    {
      "midi": 60,
      "hit": false,
      "t": 86666.5800000001,
      "d": 944.4435000000085,
      "v": 70
    },
    {
      "midi": 65,
      "hit": false,
      "t": 86666.5800000001,
      "d": 944.4435000000085,
      "v": 70
    },
    {
      "midi": 69,
      "hit": false,
      "t": 86666.5800000001,
      "d": 944.4435000000085,
      "v": 70
    },
    {
      "midi": 62,
      "hit": false,
      "t": 87555.46800000011,
      "d": 55.55550000000221,
      "v": 47
    },
    {
      "midi": 69,
      "hit": false,
      "t": 87777.69000000012,
      "d": 159.72206250000454,
      "v": 70
    },
    {
      "midi": 59,
      "hit": false,
      "t": 87999.91200000013,
      "d": 361.1107500000071,
      "v": 72
    },
    {
      "midi": 62,
      "hit": false,
      "t": 87999.91200000013,
      "d": 361.1107500000071,
      "v": 72
    },
    {
      "midi": 64,
      "hit": false,
      "t": 87999.91200000013,
      "d": 361.1107500000071,
      "v": 72
    },
    {
      "midi": 67,
      "hit": false,
      "t": 87999.91200000013,
      "d": 361.1107500000071,
      "v": 72
    },
    {
      "midi": 48,
      "hit": false,
      "t": 88444.35600000013,
      "d": 229.1664374999964,
      "v": 57
    },
    {
      "midi": 59,
      "hit": false,
      "t": 88666.57800000013,
      "d": 243.05531250000058,
      "v": 80
    },
    {
      "midi": 62,
      "hit": false,
      "t": 88666.57800000013,
      "d": 243.05531250000058,
      "v": 80
    },
    {
      "midi": 64,
      "hit": false,
      "t": 88666.57800000013,
      "d": 243.05531250000058,
      "v": 80
    },
    {
      "midi": 67,
      "hit": false,
      "t": 88666.57800000013,
      "d": 243.05531250000058,
      "v": 80
    },
    {
      "midi": 59,
      "hit": false,
      "t": 89333.24400000012,
      "d": 1333.3319999999949,
      "v": 76
    },
    {
      "midi": 62,
      "hit": false,
      "t": 89333.24400000012,
      "d": 1333.3319999999949,
      "v": 76
    },
    {
      "midi": 65,
      "hit": false,
      "t": 89333.24400000012,
      "d": 1333.3319999999949,
      "v": 76
    },
    {
      "midi": 69,
      "hit": false,
      "t": 89333.24400000012,
      "d": 1333.3319999999949,
      "v": 76
    },
    {
      "midi": 55,
      "hit": false,
      "t": 90666.57600000012,
      "d": 1333.3319999999949,
      "v": 76
    },
    {
      "midi": 62,
      "hit": false,
      "t": 90666.57600000012,
      "d": 1333.3319999999949,
      "v": 76
    },
    {
      "midi": 64,
      "hit": false,
      "t": 90666.57600000012,
      "d": 1333.3319999999949,
      "v": 76
    },
    {
      "midi": 60,
      "hit": false,
      "t": 91999.90800000011,
      "d": 944.4435000000085,
      "v": 70
    },
    {
      "midi": 64,
      "hit": false,
      "t": 91999.90800000011,
      "d": 944.4435000000085,
      "v": 70
    },
    {
      "midi": 67,
      "hit": false,
      "t": 91999.90800000011,
      "d": 944.4435000000085,
      "v": 70
    },
    {
      "midi": 69,
      "hit": false,
      "t": 91999.90800000011,
      "d": 944.4435000000085,
      "v": 70
    },
    {
      "midi": 55,
      "hit": false,
      "t": 92888.79600000012,
      "d": 152.77762500000244,
      "v": 47
    },
    {
      "midi": 60,
      "hit": false,
      "t": 93111.01800000013,
      "d": 159.72206250000454,
      "v": 70
    },
    {
      "midi": 60,
      "hit": false,
      "t": 93777.68400000012,
      "d": 277.7774999999965,
      "v": 60
    },
    {
      "midi": 65,
      "hit": false,
      "t": 93999.90600000012,
      "d": 444.44400000000314,
      "v": 87
    },
    {
      "midi": 69,
      "hit": false,
      "t": 94444.35000000012,
      "d": 83.33324999999604,
      "v": 78
    },
    {
      "midi": 59,
      "hit": false,
      "t": 94666.57200000012,
      "d": 1333.3319999999949,
      "v": 76
    },
    {
      "midi": 62,
      "hit": false,
      "t": 94666.57200000012,
      "d": 1333.3319999999949,
      "v": 76
    },
    {
      "midi": 65,
      "hit": false,
      "t": 94666.57200000012,
      "d": 1333.3319999999949,
      "v": 76
    },
    {
      "midi": 69,
      "hit": false,
      "t": 94666.57200000012,
      "d": 1333.3319999999949,
      "v": 76
    },
    {
      "midi": 59,
      "hit": false,
      "t": 95999.90400000011,
      "d": 1333.3319999999949,
      "v": 76
    },
    {
      "midi": 62,
      "hit": false,
      "t": 95999.90400000011,
      "d": 1333.3319999999949,
      "v": 76
    },
    {
      "midi": 64,
      "hit": false,
      "t": 95999.90400000011,
      "d": 1333.3319999999949,
      "v": 76
    },
    {
      "midi": 67,
      "hit": false,
      "t": 95999.90400000011,
      "d": 1333.3319999999949,
      "v": 76
    },
    {
      "midi": 60,
      "hit": false,
      "t": 97333.2360000001,
      "d": 361.1107500000071,
      "v": 72
    },
    {
      "midi": 64,
      "hit": false,
      "t": 97333.2360000001,
      "d": 361.1107500000071,
      "v": 72
    },
    {
      "midi": 67,
      "hit": false,
      "t": 97333.2360000001,
      "d": 361.1107500000071,
      "v": 72
    },
    {
      "midi": 69,
      "hit": false,
      "t": 97333.2360000001,
      "d": 361.1107500000071,
      "v": 72
    },
    {
      "midi": 45,
      "hit": false,
      "t": 97777.68000000011,
      "d": 229.1664374999964,
      "v": 57
    },
    {
      "midi": 60,
      "hit": false,
      "t": 97999.9020000001,
      "d": 243.05531250000058,
      "v": 80
    },
    {
      "midi": 64,
      "hit": false,
      "t": 97999.9020000001,
      "d": 243.05531250000058,
      "v": 80
    },
    {
      "midi": 67,
      "hit": false,
      "t": 97999.9020000001,
      "d": 243.05531250000058,
      "v": 80
    },
    {
      "midi": 69,
      "hit": false,
      "t": 97999.9020000001,
      "d": 243.05531250000058,
      "v": 80
    },
    {
      "midi": 62,
      "hit": false,
      "t": 98666.5680000001,
      "d": 944.4435000000085,
      "v": 70
    },
    {
      "midi": 65,
      "hit": false,
      "t": 98666.5680000001,
      "d": 944.4435000000085,
      "v": 70
    },
    {
      "midi": 69,
      "hit": false,
      "t": 98666.5680000001,
      "d": 944.4435000000085,
      "v": 70
    },
    {
      "midi": 60,
      "hit": false,
      "t": 99555.45600000011,
      "d": 55.55550000000221,
      "v": 47
    },
    {
      "midi": 65,
      "hit": false,
      "t": 99777.67800000012,
      "d": 159.72206250000454,
      "v": 70
    },
    {
      "midi": 59,
      "hit": false,
      "t": 99999.90000000013,
      "d": 1333.3319999999949,
      "v": 76
    },
    {
      "midi": 62,
      "hit": false,
      "t": 99999.90000000013,
      "d": 1333.3319999999949,
      "v": 76
    },
    {
      "midi": 65,
      "hit": false,
      "t": 99999.90000000013,
      "d": 1333.3319999999949,
      "v": 76
    },
    {
      "midi": 69,
      "hit": false,
      "t": 99999.90000000013,
      "d": 1333.3319999999949,
      "v": 76
    },
    {
      "midi": 62,
      "hit": false,
      "t": 101777.67600000012,
      "d": 277.7774999999965,
      "v": 60
    },
    {
      "midi": 64,
      "hit": false,
      "t": 101999.89800000012,
      "d": 444.44400000000314,
      "v": 87
    },
    {
      "midi": 67,
      "hit": false,
      "t": 102444.34200000012,
      "d": 83.33324999999604,
      "v": 78
    },
    {
      "midi": 60,
      "hit": false,
      "t": 102666.56400000011,
      "d": 1333.3319999999949,
      "v": 76
    },
    {
      "midi": 64,
      "hit": false,
      "t": 102666.56400000011,
      "d": 1333.3319999999949,
      "v": 76
    },
    {
      "midi": 67,
      "hit": false,
      "t": 102666.56400000011,
      "d": 1333.3319999999949,
      "v": 76
    },
    {
      "midi": 69,
      "hit": false,
      "t": 102666.56400000011,
      "d": 1333.3319999999949,
      "v": 76
    },
    {
      "midi": 60,
      "hit": false,
      "t": 103999.89600000011,
      "d": 361.1107500000071,
      "v": 72
    },
    {
      "midi": 62,
      "hit": false,
      "t": 103999.89600000011,
      "d": 361.1107500000071,
      "v": 72
    },
    {
      "midi": 65,
      "hit": false,
      "t": 103999.89600000011,
      "d": 361.1107500000071,
      "v": 72
    },
    {
      "midi": 69,
      "hit": false,
      "t": 103999.89600000011,
      "d": 361.1107500000071,
      "v": 72
    },
    {
      "midi": 50,
      "hit": false,
      "t": 104444.34000000011,
      "d": 229.1664374999964,
      "v": 57
    },
    {
      "midi": 60,
      "hit": false,
      "t": 104666.5620000001,
      "d": 243.05531250000058,
      "v": 80
    },
    {
      "midi": 62,
      "hit": false,
      "t": 104666.5620000001,
      "d": 243.05531250000058,
      "v": 80
    },
    {
      "midi": 65,
      "hit": false,
      "t": 104666.5620000001,
      "d": 243.05531250000058,
      "v": 80
    },
    {
      "midi": 69,
      "hit": false,
      "t": 104666.5620000001,
      "d": 243.05531250000058,
      "v": 80
    },
    {
      "midi": 59,
      "hit": false,
      "t": 105333.2280000001,
      "d": 944.4435000000085,
      "v": 70
    },
    {
      "midi": 62,
      "hit": false,
      "t": 105333.2280000001,
      "d": 944.4435000000085,
      "v": 70
    },
    {
      "midi": 65,
      "hit": false,
      "t": 105333.2280000001,
      "d": 944.4435000000085,
      "v": 70
    },
    {
      "midi": 69,
      "hit": false,
      "t": 105333.2280000001,
      "d": 944.4435000000085,
      "v": 70
    },
    {
      "midi": 53,
      "hit": false,
      "t": 106222.11600000011,
      "d": 152.77762500000244,
      "v": 47
    },
    {
      "midi": 59,
      "hit": false,
      "t": 106444.33800000012,
      "d": 159.72206250000454,
      "v": 70
    },
    {
      "midi": 57,
      "hit": false,
      "t": 106666.56000000013,
      "d": 361.1107500000071,
      "v": 72
    },
    {
      "midi": 60,
      "hit": false,
      "t": 106666.56000000013,
      "d": 361.1107500000071,
      "v": 72
    },
    {
      "midi": 64,
      "hit": false,
      "t": 106666.56000000013,
      "d": 361.1107500000071,
      "v": 72
    },
    {
      "midi": 67,
      "hit": false,
      "t": 106666.56000000013,
      "d": 361.1107500000071,
      "v": 72
    },
    {
      "midi": 48,
      "hit": false,
      "t": 107111.00400000013,
      "d": 229.1664374999964,
      "v": 57
    },
    {
      "midi": 57,
      "hit": false,
      "t": 107333.22600000013,
      "d": 243.05531250000058,
      "v": 80
    },
    {
      "midi": 60,
      "hit": false,
      "t": 107333.22600000013,
      "d": 243.05531250000058,
      "v": 80
    },
    {
      "midi": 64,
      "hit": false,
      "t": 107333.22600000013,
      "d": 243.05531250000058,
      "v": 80
    },
    {
      "midi": 67,
      "hit": false,
      "t": 107333.22600000013,
      "d": 243.05531250000058,
      "v": 80
    },
    {
      "midi": 60,
      "hit": false,
      "t": 107999.89200000012,
      "d": 361.1107500000071,
      "v": 72
    },
    {
      "midi": 64,
      "hit": false,
      "t": 107999.89200000012,
      "d": 361.1107500000071,
      "v": 72
    },
    {
      "midi": 67,
      "hit": false,
      "t": 107999.89200000012,
      "d": 361.1107500000071,
      "v": 72
    },
    {
      "midi": 69,
      "hit": false,
      "t": 107999.89200000012,
      "d": 361.1107500000071,
      "v": 72
    },
    {
      "midi": 45,
      "hit": false,
      "t": 108444.33600000013,
      "d": 229.1664374999964,
      "v": 57
    },
    {
      "midi": 60,
      "hit": false,
      "t": 108666.55800000012,
      "d": 243.05531250000058,
      "v": 80
    },
    {
      "midi": 64,
      "hit": false,
      "t": 108666.55800000012,
      "d": 243.05531250000058,
      "v": 80
    },
    {
      "midi": 67,
      "hit": false,
      "t": 108666.55800000012,
      "d": 243.05531250000058,
      "v": 80
    },
    {
      "midi": 69,
      "hit": false,
      "t": 108666.55800000012,
      "d": 243.05531250000058,
      "v": 80
    },
    {
      "midi": 62,
      "hit": false,
      "t": 109333.22400000012,
      "d": 944.4435000000085,
      "v": 70
    },
    {
      "midi": 65,
      "hit": false,
      "t": 109333.22400000012,
      "d": 944.4435000000085,
      "v": 70
    },
    {
      "midi": 69,
      "hit": false,
      "t": 109333.22400000012,
      "d": 944.4435000000085,
      "v": 70
    },
    {
      "midi": 60,
      "hit": false,
      "t": 110222.11200000012,
      "d": 55.55550000000221,
      "v": 47
    },
    {
      "midi": 65,
      "hit": false,
      "t": 110444.33400000013,
      "d": 159.72206250000454,
      "v": 70
    },
    {
      "midi": 59,
      "hit": false,
      "t": 111111.00000000013,
      "d": 277.7774999999965,
      "v": 60
    },
    {
      "midi": 65,
      "hit": false,
      "t": 111333.22200000013,
      "d": 444.44400000000314,
      "v": 87
    },
    {
      "midi": 69,
      "hit": false,
      "t": 111777.66600000013,
      "d": 83.33324999999604,
      "v": 78
    },
    {
      "midi": 55,
      "hit": false,
      "t": 111999.88800000012,
      "d": 944.4435000000085,
      "v": 70
    },
    {
      "midi": 64,
      "hit": false,
      "t": 111999.88800000012,
      "d": 944.4435000000085,
      "v": 70
    },
    {
      "midi": 62,
      "hit": false,
      "t": 112888.77600000013,
      "d": 55.55550000000221,
      "v": 47
    },
    {
      "midi": 64,
      "hit": false,
      "t": 113110.99800000014,
      "d": 159.72206250000454,
      "v": 70
    },
    {
      "midi": 60,
      "hit": false,
      "t": 113333.22000000015,
      "d": 944.4435000000085,
      "v": 70
    },
    {
      "midi": 64,
      "hit": false,
      "t": 113333.22000000015,
      "d": 944.4435000000085,
      "v": 70
    },
    {
      "midi": 67,
      "hit": false,
      "t": 113333.22000000015,
      "d": 944.4435000000085,
      "v": 70
    },
    {
      "midi": 69,
      "hit": false,
      "t": 113333.22000000015,
      "d": 944.4435000000085,
      "v": 70
    },
    {
      "midi": 55,
      "hit": false,
      "t": 114222.10800000015,
      "d": 152.77762500000244,
      "v": 47
    },
    {
      "midi": 60,
      "hit": false,
      "t": 114444.33000000016,
      "d": 159.72206250000454,
      "v": 70
    },
    {
      "midi": 60,
      "hit": false,
      "t": 114666.55200000017,
      "d": 1333.3319999999949,
      "v": 76
    },
    {
      "midi": 62,
      "hit": false,
      "t": 114666.55200000017,
      "d": 1333.3319999999949,
      "v": 76
    },
    {
      "midi": 65,
      "hit": false,
      "t": 114666.55200000017,
      "d": 1333.3319999999949,
      "v": 76
    },
    {
      "midi": 69,
      "hit": false,
      "t": 114666.55200000017,
      "d": 1333.3319999999949,
      "v": 76
    },
    {
      "midi": 59,
      "hit": false,
      "t": 115999.88400000017,
      "d": 1333.3319999999949,
      "v": 76
    },
    {
      "midi": 62,
      "hit": false,
      "t": 115999.88400000017,
      "d": 1333.3319999999949,
      "v": 76
    },
    {
      "midi": 65,
      "hit": false,
      "t": 115999.88400000017,
      "d": 1333.3319999999949,
      "v": 76
    },
    {
      "midi": 69,
      "hit": false,
      "t": 115999.88400000017,
      "d": 1333.3319999999949,
      "v": 76
    },
    {
      "midi": 62,
      "hit": false,
      "t": 117333.21600000016,
      "d": 944.4435000000085,
      "v": 70
    },
    {
      "midi": 64,
      "hit": false,
      "t": 117333.21600000016,
      "d": 944.4435000000085,
      "v": 70
    },
    {
      "midi": 67,
      "hit": false,
      "t": 117333.21600000016,
      "d": 944.4435000000085,
      "v": 70
    },
    {
      "midi": 59,
      "hit": false,
      "t": 118222.10400000017,
      "d": 55.55550000000221,
      "v": 47
    },
    {
      "midi": 64,
      "hit": false,
      "t": 118444.32600000018,
      "d": 159.72206250000454,
      "v": 70
    },
    {
      "midi": 60,
      "hit": false,
      "t": 118666.54800000018,
      "d": 1333.3319999999949,
      "v": 76
    },
    {
      "midi": 64,
      "hit": false,
      "t": 118666.54800000018,
      "d": 1333.3319999999949,
      "v": 76
    },
    {
      "midi": 67,
      "hit": false,
      "t": 118666.54800000018,
      "d": 1333.3319999999949,
      "v": 76
    },
    {
      "midi": 69,
      "hit": false,
      "t": 118666.54800000018,
      "d": 1333.3319999999949,
      "v": 76
    },
    {
      "midi": 60,
      "hit": false,
      "t": 120444.32400000018,
      "d": 277.7774999999965,
      "v": 60
    },
    {
      "midi": 65,
      "hit": false,
      "t": 120666.54600000018,
      "d": 444.44400000000314,
      "v": 87
    },
    {
      "midi": 69,
      "hit": false,
      "t": 121110.99000000018,
      "d": 83.33324999999604,
      "v": 78
    },
    {
      "midi": 59,
      "hit": false,
      "t": 121333.21200000017,
      "d": 361.1107500000071,
      "v": 72
    },
    {
      "midi": 62,
      "hit": false,
      "t": 121333.21200000017,
      "d": 361.1107500000071,
      "v": 72
    },
    {
      "midi": 65,
      "hit": false,
      "t": 121333.21200000017,
      "d": 361.1107500000071,
      "v": 72
    },
    {
      "midi": 69,
      "hit": false,
      "t": 121333.21200000017,
      "d": 361.1107500000071,
      "v": 72
    },
    {
      "midi": 43,
      "hit": false,
      "t": 121777.65600000018,
      "d": 229.1664374999964,
      "v": 57
    },
    {
      "midi": 59,
      "hit": false,
      "t": 121999.87800000017,
      "d": 243.05531250000058,
      "v": 80
    },
    {
      "midi": 62,
      "hit": false,
      "t": 121999.87800000017,
      "d": 243.05531250000058,
      "v": 80
    },
    {
      "midi": 65,
      "hit": false,
      "t": 121999.87800000017,
      "d": 243.05531250000058,
      "v": 80
    },
    {
      "midi": 69,
      "hit": false,
      "t": 121999.87800000017,
      "d": 243.05531250000058,
      "v": 80
    },
    {
      "midi": 55,
      "hit": false,
      "t": 122666.54400000017,
      "d": 361.1107500000071,
      "v": 72
    },
    {
      "midi": 62,
      "hit": false,
      "t": 122666.54400000017,
      "d": 361.1107500000071,
      "v": 72
    },
    {
      "midi": 64,
      "hit": false,
      "t": 122666.54400000017,
      "d": 361.1107500000071,
      "v": 72
    },
    {
      "midi": 48,
      "hit": false,
      "t": 123110.98800000017,
      "d": 229.1664374999964,
      "v": 57
    },
    {
      "midi": 55,
      "hit": false,
      "t": 123333.21000000017,
      "d": 243.05531250000058,
      "v": 80
    },
    {
      "midi": 62,
      "hit": false,
      "t": 123333.21000000017,
      "d": 243.05531250000058,
      "v": 80
    },
    {
      "midi": 64,
      "hit": false,
      "t": 123333.21000000017,
      "d": 243.05531250000058,
      "v": 80
    },
    {
      "midi": 60,
      "hit": false,
      "t": 124444.32000000017,
      "d": 277.7774999999965,
      "v": 60
    },
    {
      "midi": 67,
      "hit": false,
      "t": 124666.54200000016,
      "d": 444.44400000000314,
      "v": 87
    },
    {
      "midi": 69,
      "hit": false,
      "t": 125110.98600000016,
      "d": 83.33324999999604,
      "v": 78
    },
    {
      "midi": 60,
      "hit": false,
      "t": 125333.20800000016,
      "d": 361.1107500000071,
      "v": 72
    },
    {
      "midi": 62,
      "hit": false,
      "t": 125333.20800000016,
      "d": 361.1107500000071,
      "v": 72
    },
    {
      "midi": 65,
      "hit": false,
      "t": 125333.20800000016,
      "d": 361.1107500000071,
      "v": 72
    },
    {
      "midi": 69,
      "hit": false,
      "t": 125333.20800000016,
      "d": 361.1107500000071,
      "v": 72
    },
    {
      "midi": 50,
      "hit": false,
      "t": 125777.65200000016,
      "d": 229.1664374999964,
      "v": 57
    },
    {
      "midi": 60,
      "hit": false,
      "t": 125999.87400000016,
      "d": 243.05531250000058,
      "v": 80
    },
    {
      "midi": 62,
      "hit": false,
      "t": 125999.87400000016,
      "d": 243.05531250000058,
      "v": 80
    },
    {
      "midi": 65,
      "hit": false,
      "t": 125999.87400000016,
      "d": 243.05531250000058,
      "v": 80
    },
    {
      "midi": 69,
      "hit": false,
      "t": 125999.87400000016,
      "d": 243.05531250000058,
      "v": 80
    },
    {
      "midi": 59,
      "hit": false,
      "t": 126666.54000000015,
      "d": 361.1107500000071,
      "v": 72
    },
    {
      "midi": 62,
      "hit": false,
      "t": 126666.54000000015,
      "d": 361.1107500000071,
      "v": 72
    },
    {
      "midi": 65,
      "hit": false,
      "t": 126666.54000000015,
      "d": 361.1107500000071,
      "v": 72
    },
    {
      "midi": 69,
      "hit": false,
      "t": 126666.54000000015,
      "d": 361.1107500000071,
      "v": 72
    },
    {
      "midi": 43,
      "hit": false,
      "t": 127110.98400000016,
      "d": 229.1664374999964,
      "v": 57
    },
    {
      "midi": 59,
      "hit": false,
      "t": 127333.20600000015,
      "d": 243.05531250000058,
      "v": 80
    },
    {
      "midi": 62,
      "hit": false,
      "t": 127333.20600000015,
      "d": 243.05531250000058,
      "v": 80
    },
    {
      "midi": 65,
      "hit": false,
      "t": 127333.20600000015,
      "d": 243.05531250000058,
      "v": 80
    },
    {
      "midi": 69,
      "hit": false,
      "t": 127333.20600000015,
      "d": 243.05531250000058,
      "v": 80
    },
    {
      "midi": 60,
      "hit": false,
      "t": 127999.87200000015,
      "d": 944.4435000000085,
      "v": 70
    },
    {
      "midi": 64,
      "hit": false,
      "t": 127999.87200000015,
      "d": 944.4435000000085,
      "v": 70
    },
    {
      "midi": 67,
      "hit": false,
      "t": 127999.87200000015,
      "d": 944.4435000000085,
      "v": 70
    },
    {
      "midi": 57,
      "hit": false,
      "t": 128888.76000000015,
      "d": 55.55550000000221,
      "v": 47
    },
    {
      "midi": 64,
      "hit": false,
      "t": 129110.98200000016,
      "d": 159.72206250000454,
      "v": 70
    },
    {
      "midi": 57,
      "hit": false,
      "t": 129333.20400000017,
      "d": 944.4435000000085,
      "v": 70
    },
    {
      "midi": 60,
      "hit": false,
      "t": 129333.20400000017,
      "d": 944.4435000000085,
      "v": 70
    },
    {
      "midi": 65,
      "hit": false,
      "t": 130222.09200000018,
      "d": 55.55550000000221,
      "v": 47
    },
    {
      "midi": 69,
      "hit": false,
      "t": 130444.31400000019,
      "d": 159.72206250000454,
      "v": 70
    },
    {
      "midi": 57,
      "hit": false,
      "t": 130666.5360000002,
      "d": 361.1107500000071,
      "v": 72
    },
    {
      "midi": 60,
      "hit": false,
      "t": 130666.5360000002,
      "d": 361.1107500000071,
      "v": 72
    },
    {
      "midi": 64,
      "hit": false,
      "t": 130666.5360000002,
      "d": 361.1107500000071,
      "v": 72
    },
    {
      "midi": 67,
      "hit": false,
      "t": 130666.5360000002,
      "d": 361.1107500000071,
      "v": 72
    },
    {
      "midi": 48,
      "hit": false,
      "t": 131110.9800000002,
      "d": 229.16643750001094,
      "v": 57
    },
    {
      "midi": 57,
      "hit": false,
      "t": 131333.20200000022,
      "d": 243.05531250001513,
      "v": 80
    },
    {
      "midi": 60,
      "hit": false,
      "t": 131333.20200000022,
      "d": 243.05531250001513,
      "v": 80
    },
    {
      "midi": 64,
      "hit": false,
      "t": 131333.20200000022,
      "d": 243.05531250001513,
      "v": 80
    },
    {
      "midi": 67,
      "hit": false,
      "t": 131333.20200000022,
      "d": 243.05531250001513,
      "v": 80
    },
    {
      "midi": 60,
      "hit": false,
      "t": 131999.86800000025,
      "d": 1333.3319999999949,
      "v": 76
    },
    {
      "midi": 64,
      "hit": false,
      "t": 131999.86800000025,
      "d": 1333.3319999999949,
      "v": 76
    },
    {
      "midi": 67,
      "hit": false,
      "t": 131999.86800000025,
      "d": 1333.3319999999949,
      "v": 76
    },
    {
      "midi": 69,
      "hit": false,
      "t": 131999.86800000025,
      "d": 1333.3319999999949,
      "v": 76
    },
    {
      "midi": 60,
      "hit": false,
      "t": 133333.20000000024,
      "d": 1333.3319999999949,
      "v": 76
    },
    {
      "midi": 62,
      "hit": false,
      "t": 133333.20000000024,
      "d": 1333.3319999999949,
      "v": 76
    },
    {
      "midi": 65,
      "hit": false,
      "t": 133333.20000000024,
      "d": 1333.3319999999949,
      "v": 76
    },
    {
      "midi": 69,
      "hit": false,
      "t": 133333.20000000024,
      "d": 1333.3319999999949,
      "v": 76
    },
    {
      "midi": 59,
      "hit": false,
      "t": 134666.53200000024,
      "d": 1333.3319999999949,
      "v": 76
    },
    {
      "midi": 62,
      "hit": false,
      "t": 134666.53200000024,
      "d": 1333.3319999999949,
      "v": 76
    },
    {
      "midi": 65,
      "hit": false,
      "t": 134666.53200000024,
      "d": 1333.3319999999949,
      "v": 76
    },
    {
      "midi": 69,
      "hit": false,
      "t": 134666.53200000024,
      "d": 1333.3319999999949,
      "v": 76
    },
    {
      "midi": 59,
      "hit": false,
      "t": 136444.30800000022,
      "d": 277.7774999999965,
      "v": 60
    },
    {
      "midi": 64,
      "hit": false,
      "t": 136666.53000000023,
      "d": 444.4439999999886,
      "v": 87
    },
    {
      "midi": 67,
      "hit": false,
      "t": 137110.97400000022,
      "d": 83.33324999999604,
      "v": 78
    },
    {
      "midi": 60,
      "hit": false,
      "t": 137777.64000000022,
      "d": 277.7774999999965,
      "v": 60
    },
    {
      "midi": 67,
      "hit": false,
      "t": 137999.86200000023,
      "d": 444.4439999999886,
      "v": 87
    },
    {
      "midi": 69,
      "hit": false,
      "t": 138444.30600000022,
      "d": 83.33324999999604,
      "v": 78
    },
    {
      "midi": 60,
      "hit": false,
      "t": 138666.52800000022,
      "d": 1333.3319999999949,
      "v": 76
    },
    {
      "midi": 62,
      "hit": false,
      "t": 138666.52800000022,
      "d": 1333.3319999999949,
      "v": 76
    },
    {
      "midi": 65,
      "hit": false,
      "t": 138666.52800000022,
      "d": 1333.3319999999949,
      "v": 76
    },
    {
      "midi": 69,
      "hit": false,
      "t": 138666.52800000022,
      "d": 1333.3319999999949,
      "v": 76
    },
    {
      "midi": 59,
      "hit": false,
      "t": 139999.86000000022,
      "d": 944.443499999994,
      "v": 70
    },
    {
      "midi": 62,
      "hit": false,
      "t": 139999.86000000022,
      "d": 944.443499999994,
      "v": 70
    },
    {
      "midi": 65,
      "hit": false,
      "t": 139999.86000000022,
      "d": 944.443499999994,
      "v": 70
    },
    {
      "midi": 69,
      "hit": false,
      "t": 139999.86000000022,
      "d": 944.443499999994,
      "v": 70
    },
    {
      "midi": 53,
      "hit": false,
      "t": 140888.74800000023,
      "d": 152.7776249999879,
      "v": 47
    },
    {
      "midi": 59,
      "hit": false,
      "t": 141110.9700000002,
      "d": 159.72206249999,
      "v": 70
    },
    {
      "midi": 59,
      "hit": false,
      "t": 141333.19200000018,
      "d": 361.11074999999255,
      "v": 72
    },
    {
      "midi": 62,
      "hit": false,
      "t": 141333.19200000018,
      "d": 361.11074999999255,
      "v": 72
    },
    {
      "midi": 64,
      "hit": false,
      "t": 141333.19200000018,
      "d": 361.11074999999255,
      "v": 72
    },
    {
      "midi": 67,
      "hit": false,
      "t": 141333.19200000018,
      "d": 361.11074999999255,
      "v": 72
    },
    {
      "midi": 48,
      "hit": false,
      "t": 141777.63600000017,
      "d": 229.16643750001094,
      "v": 57
    },
    {
      "midi": 59,
      "hit": false,
      "t": 141999.85800000018,
      "d": 243.05531250001513,
      "v": 80
    },
    {
      "midi": 62,
      "hit": false,
      "t": 141999.85800000018,
      "d": 243.05531250001513,
      "v": 80
    },
    {
      "midi": 64,
      "hit": false,
      "t": 141999.85800000018,
      "d": 243.05531250001513,
      "v": 80
    },
    {
      "midi": 67,
      "hit": false,
      "t": 141999.85800000018,
      "d": 243.05531250001513,
      "v": 80
    },
    {
      "midi": 60,
      "hit": false,
      "t": 142666.5240000002,
      "d": 944.443499999994,
      "v": 70
    },
    {
      "midi": 64,
      "hit": false,
      "t": 142666.5240000002,
      "d": 944.443499999994,
      "v": 70
    },
    {
      "midi": 67,
      "hit": false,
      "t": 142666.5240000002,
      "d": 944.443499999994,
      "v": 70
    },
    {
      "midi": 69,
      "hit": false,
      "t": 142666.5240000002,
      "d": 944.443499999994,
      "v": 70
    },
    {
      "midi": 55,
      "hit": false,
      "t": 143555.41200000021,
      "d": 152.7776249999879,
      "v": 47
    },
    {
      "midi": 60,
      "hit": false,
      "t": 143777.6340000002,
      "d": 159.72206249999,
      "v": 70
    },
    {
      "midi": 60,
      "hit": false,
      "t": 144444.3000000002,
      "d": 277.7774999999965,
      "v": 60
    },
    {
      "midi": 65,
      "hit": false,
      "t": 144666.5220000002,
      "d": 444.4439999999886,
      "v": 87
    },
    {
      "midi": 69,
      "hit": false,
      "t": 145110.9660000002,
      "d": 83.33324999999604,
      "v": 78
    },
    {
      "midi": 59,
      "hit": false,
      "t": 145333.1880000002,
      "d": 1333.3319999999949,
      "v": 76
    },
    {
      "midi": 64,
      "hit": false,
      "t": 145333.1880000002,
      "d": 1333.3319999999949,
      "v": 76
    },
    {
      "midi": 65,
      "hit": false,
      "t": 145333.1880000002,
      "d": 1333.3319999999949,
      "v": 76
    },
    {
      "midi": 69,
      "hit": false,
      "t": 145333.1880000002,
      "d": 1333.3319999999949,
      "v": 76
    },
    {
      "midi": 55,
      "hit": false,
      "t": 146666.5200000002,
      "d": 361.11074999999255,
      "v": 72
    },
    {
      "midi": 60,
      "hit": false,
      "t": 146666.5200000002,
      "d": 361.11074999999255,
      "v": 72
    },
    {
      "midi": 64,
      "hit": false,
      "t": 146666.5200000002,
      "d": 361.11074999999255,
      "v": 72
    },
    {
      "midi": 48,
      "hit": false,
      "t": 147110.96400000018,
      "d": 222.22200000000885,
      "v": 57
    },
    {
      "midi": 62,
      "hit": false,
      "t": 147333.1860000002,
      "d": 361.11074999999255,
      "v": 72
    },
    {
      "midi": 65,
      "hit": false,
      "t": 147333.1860000002,
      "d": 361.11074999999255,
      "v": 72
    },
    {
      "midi": 68,
      "hit": false,
      "t": 147333.1860000002,
      "d": 361.11074999999255,
      "v": 72
    },
    {
      "midi": 70,
      "hit": false,
      "t": 147333.1860000002,
      "d": 361.11074999999255,
      "v": 72
    },
    {
      "midi": 46,
      "hit": false,
      "t": 147777.63000000018,
      "d": 222.22200000000885,
      "v": 57
    },
    {
      "midi": 61,
      "hit": false,
      "t": 147999.8520000002,
      "d": 1333.3319999999949,
      "v": 76
    },
    {
      "midi": 64,
      "hit": false,
      "t": 147999.8520000002,
      "d": 1333.3319999999949,
      "v": 76
    },
    {
      "midi": 67,
      "hit": false,
      "t": 147999.8520000002,
      "d": 1333.3319999999949,
      "v": 76
    },
    {
      "midi": 71,
      "hit": false,
      "t": 147999.8520000002,
      "d": 1333.3319999999949,
      "v": 76
    },
    {
      "midi": 60,
      "hit": false,
      "t": 149333.18400000018,
      "d": 361.11074999999255,
      "v": 72
    },
    {
      "midi": 62,
      "hit": false,
      "t": 149333.18400000018,
      "d": 361.11074999999255,
      "v": 72
    },
    {
      "midi": 66,
      "hit": false,
      "t": 149333.18400000018,
      "d": 361.11074999999255,
      "v": 72
    },
    {
      "midi": 69,
      "hit": false,
      "t": 149333.18400000018,
      "d": 361.11074999999255,
      "v": 72
    },
    {
      "midi": 50,
      "hit": false,
      "t": 149777.62800000017,
      "d": 222.22200000000885,
      "v": 57
    },
    {
      "midi": 58,
      "hit": false,
      "t": 149999.85000000018,
      "d": 361.11074999999255,
      "v": 72
    },
    {
      "midi": 61,
      "hit": false,
      "t": 149999.85000000018,
      "d": 361.11074999999255,
      "v": 72
    },
    {
      "midi": 63,
      "hit": false,
      "t": 149999.85000000018,
      "d": 361.11074999999255,
      "v": 72
    },
    {
      "midi": 67,
      "hit": false,
      "t": 149999.85000000018,
      "d": 361.11074999999255,
      "v": 72
    },
    {
      "midi": 51,
      "hit": false,
      "t": 150444.29400000017,
      "d": 222.22200000000885,
      "v": 57
    },
    {
      "midi": 60,
      "hit": false,
      "t": 150666.51600000018,
      "d": 361.11074999999255,
      "v": 72
    },
    {
      "midi": 62,
      "hit": false,
      "t": 150666.51600000018,
      "d": 361.11074999999255,
      "v": 72
    },
    {
      "midi": 66,
      "hit": false,
      "t": 150666.51600000018,
      "d": 361.11074999999255,
      "v": 72
    },
    {
      "midi": 69,
      "hit": false,
      "t": 150666.51600000018,
      "d": 361.11074999999255,
      "v": 72
    },
    {
      "midi": 50,
      "hit": false,
      "t": 151110.96000000017,
      "d": 229.16643750001094,
      "v": 57
    },
    {
      "midi": 60,
      "hit": false,
      "t": 151333.18200000018,
      "d": 243.05531250001513,
      "v": 80
    },
    {
      "midi": 62,
      "hit": false,
      "t": 151333.18200000018,
      "d": 243.05531250001513,
      "v": 80
    },
    {
      "midi": 66,
      "hit": false,
      "t": 151333.18200000018,
      "d": 243.05531250001513,
      "v": 80
    },
    {
      "midi": 69,
      "hit": false,
      "t": 151333.18200000018,
      "d": 243.05531250001513,
      "v": 80
    },
    {
      "midi": 60,
      "hit": false,
      "t": 151999.8480000002,
      "d": 1333.3319999999949,
      "v": 76
    },
    {
      "midi": 62,
      "hit": false,
      "t": 151999.8480000002,
      "d": 1333.3319999999949,
      "v": 76
    },
    {
      "midi": 65,
      "hit": false,
      "t": 151999.8480000002,
      "d": 1333.3319999999949,
      "v": 76
    },
    {
      "midi": 69,
      "hit": false,
      "t": 151999.8480000002,
      "d": 1333.3319999999949,
      "v": 76
    },
    {
      "midi": 59,
      "hit": false,
      "t": 153333.1800000002,
      "d": 944.443499999994,
      "v": 70
    },
    {
      "midi": 62,
      "hit": false,
      "t": 153333.1800000002,
      "d": 944.443499999994,
      "v": 70
    },
    {
      "midi": 65,
      "hit": false,
      "t": 153333.1800000002,
      "d": 944.443499999994,
      "v": 70
    },
    {
      "midi": 69,
      "hit": false,
      "t": 153333.1800000002,
      "d": 944.443499999994,
      "v": 70
    },
    {
      "midi": 53,
      "hit": false,
      "t": 154222.0680000002,
      "d": 152.7776249999879,
      "v": 47
    },
    {
      "midi": 59,
      "hit": false,
      "t": 154444.29000000018,
      "d": 159.72206249999,
      "v": 70
    },
    {
      "midi": 55,
      "hit": false,
      "t": 154666.51200000016,
      "d": 1333.3319999999949,
      "v": 76
    },
    {
      "midi": 62,
      "hit": false,
      "t": 154666.51200000016,
      "d": 1333.3319999999949,
      "v": 76
    },
    {
      "midi": 64,
      "hit": false,
      "t": 154666.51200000016,
      "d": 1333.3319999999949,
      "v": 76
    },
    {
      "midi": 60,
      "hit": false,
      "t": 155999.84400000016,
      "d": 944.443499999994,
      "v": 70
    },
    {
      "midi": 64,
      "hit": false,
      "t": 155999.84400000016,
      "d": 944.443499999994,
      "v": 70
    },
    {
      "midi": 67,
      "hit": false,
      "t": 155999.84400000016,
      "d": 944.443499999994,
      "v": 70
    },
    {
      "midi": 69,
      "hit": false,
      "t": 155999.84400000016,
      "d": 944.443499999994,
      "v": 70
    },
    {
      "midi": 55,
      "hit": false,
      "t": 156888.73200000016,
      "d": 152.7776249999879,
      "v": 47
    },
    {
      "midi": 60,
      "hit": false,
      "t": 157110.95400000014,
      "d": 159.72206249999,
      "v": 70
    },
    {
      "midi": 60,
      "hit": false,
      "t": 157333.17600000012,
      "d": 1333.3319999999949,
      "v": 76
    },
    {
      "midi": 62,
      "hit": false,
      "t": 157333.17600000012,
      "d": 1333.3319999999949,
      "v": 76
    },
    {
      "midi": 65,
      "hit": false,
      "t": 157333.17600000012,
      "d": 1333.3319999999949,
      "v": 76
    },
    {
      "midi": 69,
      "hit": false,
      "t": 157333.17600000012,
      "d": 1333.3319999999949,
      "v": 76
    },
    {
      "midi": 59,
      "hit": false,
      "t": 158666.50800000012,
      "d": 1333.3319999999949,
      "v": 76
    },
    {
      "midi": 62,
      "hit": false,
      "t": 158666.50800000012,
      "d": 1333.3319999999949,
      "v": 76
    },
    {
      "midi": 65,
      "hit": false,
      "t": 158666.50800000012,
      "d": 1333.3319999999949,
      "v": 76
    },
    {
      "midi": 69,
      "hit": false,
      "t": 158666.50800000012,
      "d": 1333.3319999999949,
      "v": 76
    },
    {
      "midi": 62,
      "hit": false,
      "t": 159999.8400000001,
      "d": 944.443499999994,
      "v": 70
    },
    {
      "midi": 64,
      "hit": false,
      "t": 159999.8400000001,
      "d": 944.443499999994,
      "v": 70
    },
    {
      "midi": 67,
      "hit": false,
      "t": 159999.8400000001,
      "d": 944.443499999994,
      "v": 70
    },
    {
      "midi": 59,
      "hit": false,
      "t": 160888.72800000012,
      "d": 55.55549999998766,
      "v": 47
    },
    {
      "midi": 64,
      "hit": false,
      "t": 161110.9500000001,
      "d": 159.72206249999,
      "v": 70
    },
    {
      "midi": 60,
      "hit": false,
      "t": 161333.17200000008,
      "d": 944.443499999994,
      "v": 70
    },
    {
      "midi": 64,
      "hit": false,
      "t": 161333.17200000008,
      "d": 944.443499999994,
      "v": 70
    },
    {
      "midi": 67,
      "hit": false,
      "t": 161333.17200000008,
      "d": 944.443499999994,
      "v": 70
    },
    {
      "midi": 69,
      "hit": false,
      "t": 161333.17200000008,
      "d": 944.443499999994,
      "v": 70
    },
    {
      "midi": 55,
      "hit": false,
      "t": 162222.06000000008,
      "d": 152.7776249999879,
      "v": 47
    },
    {
      "midi": 60,
      "hit": false,
      "t": 162444.28200000006,
      "d": 159.72206249999,
      "v": 70
    },
    {
      "midi": 60,
      "hit": false,
      "t": 162666.50400000004,
      "d": 1333.3319999999949,
      "v": 76
    },
    {
      "midi": 62,
      "hit": false,
      "t": 162666.50400000004,
      "d": 1333.3319999999949,
      "v": 76
    },
    {
      "midi": 65,
      "hit": false,
      "t": 162666.50400000004,
      "d": 1333.3319999999949,
      "v": 76
    },
    {
      "midi": 69,
      "hit": false,
      "t": 162666.50400000004,
      "d": 1333.3319999999949,
      "v": 76
    },
    {
      "midi": 59,
      "hit": false,
      "t": 164444.28000000003,
      "d": 277.7774999999965,
      "v": 60
    },
    {
      "midi": 65,
      "hit": false,
      "t": 164666.50200000004,
      "d": 444.4439999999886,
      "v": 87
    },
    {
      "midi": 69,
      "hit": false,
      "t": 165110.94600000003,
      "d": 83.33324999999604,
      "v": 78
    },
    {
      "midi": 62,
      "hit": false,
      "t": 165333.16800000003,
      "d": 944.443499999994,
      "v": 70
    },
    {
      "midi": 64,
      "hit": false,
      "t": 165333.16800000003,
      "d": 944.443499999994,
      "v": 70
    },
    {
      "midi": 67,
      "hit": false,
      "t": 165333.16800000003,
      "d": 944.443499999994,
      "v": 70
    },
    {
      "midi": 59,
      "hit": false,
      "t": 166222.05600000004,
      "d": 55.55549999998766,
      "v": 47
    },
    {
      "midi": 64,
      "hit": false,
      "t": 166444.27800000002,
      "d": 159.72206249999,
      "v": 70
    },
    {
      "midi": 60,
      "hit": false,
      "t": 166666.5,
      "d": 1333.3319999999949,
      "v": 76
    },
    {
      "midi": 64,
      "hit": false,
      "t": 166666.5,
      "d": 1333.3319999999949,
      "v": 76
    },
    {
      "midi": 67,
      "hit": false,
      "t": 166666.5,
      "d": 1333.3319999999949,
      "v": 76
    },
    {
      "midi": 69,
      "hit": false,
      "t": 166666.5,
      "d": 1333.3319999999949,
      "v": 76
    },
    {
      "midi": 60,
      "hit": false,
      "t": 167999.832,
      "d": 1333.3319999999949,
      "v": 76
    },
    {
      "midi": 62,
      "hit": false,
      "t": 167999.832,
      "d": 1333.3319999999949,
      "v": 76
    },
    {
      "midi": 65,
      "hit": false,
      "t": 167999.832,
      "d": 1333.3319999999949,
      "v": 76
    },
    {
      "midi": 69,
      "hit": false,
      "t": 167999.832,
      "d": 1333.3319999999949,
      "v": 76
    },
    {
      "midi": 59,
      "hit": false,
      "t": 169777.60799999998,
      "d": 277.7774999999965,
      "v": 60
    },
    {
      "midi": 65,
      "hit": false,
      "t": 169999.83,
      "d": 444.4439999999886,
      "v": 87
    },
    {
      "midi": 69,
      "hit": false,
      "t": 170444.27399999998,
      "d": 83.33324999999604,
      "v": 78
    },
    {
      "midi": 57,
      "hit": false,
      "t": 170666.49599999998,
      "d": 361.11074999999255,
      "v": 72
    },
    {
      "midi": 60,
      "hit": false,
      "t": 170666.49599999998,
      "d": 361.11074999999255,
      "v": 72
    },
    {
      "midi": 64,
      "hit": false,
      "t": 170666.49599999998,
      "d": 361.11074999999255,
      "v": 72
    },
    {
      "midi": 67,
      "hit": false,
      "t": 170666.49599999998,
      "d": 361.11074999999255,
      "v": 72
    },
    {
      "midi": 48,
      "hit": false,
      "t": 171110.93999999997,
      "d": 229.16643750001094,
      "v": 57
    },
    {
      "midi": 57,
      "hit": false,
      "t": 171333.16199999998,
      "d": 243.05531250001513,
      "v": 80
    },
    {
      "midi": 60,
      "hit": false,
      "t": 171333.16199999998,
      "d": 243.05531250001513,
      "v": 80
    },
    {
      "midi": 64,
      "hit": false,
      "t": 171333.16199999998,
      "d": 243.05531250001513,
      "v": 80
    },
    {
      "midi": 67,
      "hit": false,
      "t": 171333.16199999998,
      "d": 243.05531250001513,
      "v": 80
    },
    {
      "midi": 60,
      "hit": false,
      "t": 171999.828,
      "d": 944.443499999994,
      "v": 70
    },
    {
      "midi": 65,
      "hit": false,
      "t": 171999.828,
      "d": 944.443499999994,
      "v": 70
    },
    {
      "midi": 69,
      "hit": false,
      "t": 171999.828,
      "d": 944.443499999994,
      "v": 70
    },
    {
      "midi": 62,
      "hit": false,
      "t": 172888.71600000001,
      "d": 55.55549999998766,
      "v": 47
    },
    {
      "midi": 69,
      "hit": false,
      "t": 173110.938,
      "d": 159.72206249999,
      "v": 70
    },
    {
      "midi": 59,
      "hit": false,
      "t": 173777.604,
      "d": 277.7774999999965,
      "v": 60
    },
    {
      "midi": 64,
      "hit": false,
      "t": 173999.826,
      "d": 444.4439999999886,
      "v": 87
    },
    {
      "midi": 67,
      "hit": false,
      "t": 174444.27,
      "d": 83.33324999999604,
      "v": 78
    },
    {
      "midi": 59,
      "hit": false,
      "t": 175110.936,
      "d": 277.7774999999965,
      "v": 60
    },
    {
      "midi": 65,
      "hit": false,
      "t": 175333.158,
      "d": 444.4439999999886,
      "v": 87
    },
    {
      "midi": 69,
      "hit": false,
      "t": 175777.60199999998,
      "d": 83.33324999999604,
      "v": 78
    },
    {
      "midi": 55,
      "hit": false,
      "t": 175999.824,
      "d": 361.11074999999255,
      "v": 72
    },
    {
      "midi": 62,
      "hit": false,
      "t": 175999.824,
      "d": 361.11074999999255,
      "v": 72
    },
    {
      "midi": 64,
      "hit": false,
      "t": 175999.824,
      "d": 361.11074999999255,
      "v": 72
    },
    {
      "midi": 48,
      "hit": false,
      "t": 176444.26799999998,
      "d": 229.16643750001094,
      "v": 57
    },
    {
      "midi": 55,
      "hit": false,
      "t": 176666.49,
      "d": 243.05531250001513,
      "v": 80
    },
    {
      "midi": 62,
      "hit": false,
      "t": 176666.49,
      "d": 243.05531250001513,
      "v": 80
    },
    {
      "midi": 64,
      "hit": false,
      "t": 176666.49,
      "d": 243.05531250001513,
      "v": 80
    },
    {
      "midi": 60,
      "hit": false,
      "t": 177777.6,
      "d": 277.7774999999965,
      "v": 60
    },
    {
      "midi": 67,
      "hit": false,
      "t": 177999.82200000001,
      "d": 444.4439999999886,
      "v": 87
    },
    {
      "midi": 69,
      "hit": false,
      "t": 178444.266,
      "d": 83.33324999999604,
      "v": 78
    },
    {
      "midi": 60,
      "hit": false,
      "t": 178666.488,
      "d": 1333.3319999999949,
      "v": 76
    },
    {
      "midi": 62,
      "hit": false,
      "t": 178666.488,
      "d": 1333.3319999999949,
      "v": 76
    },
    {
      "midi": 65,
      "hit": false,
      "t": 178666.488,
      "d": 1333.3319999999949,
      "v": 76
    },
    {
      "midi": 69,
      "hit": false,
      "t": 178666.488,
      "d": 1333.3319999999949,
      "v": 76
    },
    {
      "midi": 59,
      "hit": false,
      "t": 180444.264,
      "d": 277.7774999999965,
      "v": 60
    },
    {
      "midi": 65,
      "hit": false,
      "t": 180666.486,
      "d": 444.4439999999886,
      "v": 87
    },
    {
      "midi": 69,
      "hit": false,
      "t": 181110.93,
      "d": 83.33324999999604,
      "v": 78
    },
    {
      "midi": 62,
      "hit": false,
      "t": 181333.152,
      "d": 944.443499999994,
      "v": 70
    },
    {
      "midi": 64,
      "hit": false,
      "t": 181333.152,
      "d": 944.443499999994,
      "v": 70
    },
    {
      "midi": 67,
      "hit": false,
      "t": 181333.152,
      "d": 944.443499999994,
      "v": 70
    },
    {
      "midi": 59,
      "hit": false,
      "t": 182222.04,
      "d": 55.55549999998766,
      "v": 47
    },
    {
      "midi": 64,
      "hit": false,
      "t": 182444.262,
      "d": 159.72206249999,
      "v": 70
    },
    {
      "midi": 60,
      "hit": false,
      "t": 183110.92799999999,
      "d": 277.7774999999965,
      "v": 60
    },
    {
      "midi": 67,
      "hit": false,
      "t": 183333.15,
      "d": 444.4439999999886,
      "v": 87
    },
    {
      "midi": 69,
      "hit": false,
      "t": 183777.59399999998,
      "d": 83.33324999999604,
      "v": 78
    },
    {
      "midi": 60,
      "hit": false,
      "t": 183999.816,
      "d": 361.11074999999255,
      "v": 72
    },
    {
      "midi": 62,
      "hit": false,
      "t": 183999.816,
      "d": 361.11074999999255,
      "v": 72
    },
    {
      "midi": 65,
      "hit": false,
      "t": 183999.816,
      "d": 361.11074999999255,
      "v": 72
    },
    {
      "midi": 69,
      "hit": false,
      "t": 183999.816,
      "d": 361.11074999999255,
      "v": 72
    },
    {
      "midi": 50,
      "hit": false,
      "t": 184444.25999999998,
      "d": 229.16643750001094,
      "v": 57
    },
    {
      "midi": 60,
      "hit": false,
      "t": 184666.482,
      "d": 243.05531250001513,
      "v": 80
    },
    {
      "midi": 62,
      "hit": false,
      "t": 184666.482,
      "d": 243.05531250001513,
      "v": 80
    },
    {
      "midi": 65,
      "hit": false,
      "t": 184666.482,
      "d": 243.05531250001513,
      "v": 80
    },
    {
      "midi": 69,
      "hit": false,
      "t": 184666.482,
      "d": 243.05531250001513,
      "v": 80
    },
    {
      "midi": 59,
      "hit": false,
      "t": 185777.592,
      "d": 277.7774999999965,
      "v": 60
    },
    {
      "midi": 65,
      "hit": false,
      "t": 185999.814,
      "d": 444.4439999999886,
      "v": 87
    },
    {
      "midi": 69,
      "hit": false,
      "t": 186444.258,
      "d": 83.33324999999604,
      "v": 78
    },
    {
      "midi": 62,
      "hit": false,
      "t": 187110.924,
      "d": 277.7774999999965,
      "v": 60
    },
    {
      "midi": 64,
      "hit": false,
      "t": 187333.146,
      "d": 444.4439999999886,
      "v": 87
    },
    {
      "midi": 67,
      "hit": false,
      "t": 187777.59,
      "d": 83.33324999999604,
      "v": 78
    },
    {
      "midi": 60,
      "hit": false,
      "t": 187999.812,
      "d": 361.11074999999255,
      "v": 72
    },
    {
      "midi": 64,
      "hit": false,
      "t": 187999.812,
      "d": 361.11074999999255,
      "v": 72
    },
    {
      "midi": 67,
      "hit": false,
      "t": 187999.812,
      "d": 361.11074999999255,
      "v": 72
    },
    {
      "midi": 69,
      "hit": false,
      "t": 187999.812,
      "d": 361.11074999999255,
      "v": 72
    },
    {
      "midi": 45,
      "hit": false,
      "t": 188444.256,
      "d": 229.16643750001094,
      "v": 57
    },
    {
      "midi": 60,
      "hit": false,
      "t": 188666.478,
      "d": 243.05531250001513,
      "v": 80
    },
    {
      "midi": 64,
      "hit": false,
      "t": 188666.478,
      "d": 243.05531250001513,
      "v": 80
    },
    {
      "midi": 67,
      "hit": false,
      "t": 188666.478,
      "d": 243.05531250001513,
      "v": 80
    },
    {
      "midi": 69,
      "hit": false,
      "t": 188666.478,
      "d": 243.05531250001513,
      "v": 80
    },
    {
      "midi": 60,
      "hit": false,
      "t": 189777.58800000002,
      "d": 277.7774999999965,
      "v": 60
    },
    {
      "midi": 65,
      "hit": false,
      "t": 189999.81000000003,
      "d": 444.4439999999886,
      "v": 87
    },
    {
      "midi": 69,
      "hit": false,
      "t": 190444.25400000002,
      "d": 83.33324999999604,
      "v": 78
    },
    {
      "midi": 59,
      "hit": false,
      "t": 190666.47600000002,
      "d": 944.443499999994,
      "v": 70
    },
    {
      "midi": 62,
      "hit": false,
      "t": 190666.47600000002,
      "d": 944.443499999994,
      "v": 70
    },
    {
      "midi": 65,
      "hit": false,
      "t": 190666.47600000002,
      "d": 944.443499999994,
      "v": 70
    },
    {
      "midi": 69,
      "hit": false,
      "t": 190666.47600000002,
      "d": 944.443499999994,
      "v": 70
    },
    {
      "midi": 53,
      "hit": false,
      "t": 191555.36400000003,
      "d": 152.7776249999879,
      "v": 47
    },
    {
      "midi": 59,
      "hit": false,
      "t": 191777.586,
      "d": 159.72206249999,
      "v": 70
    },
    {
      "midi": 57,
      "hit": false,
      "t": 191999.808,
      "d": 361.11074999999255,
      "v": 72
    },
    {
      "midi": 60,
      "hit": false,
      "t": 191999.808,
      "d": 361.11074999999255,
      "v": 72
    },
    {
      "midi": 64,
      "hit": false,
      "t": 191999.808,
      "d": 361.11074999999255,
      "v": 72
    },
    {
      "midi": 67,
      "hit": false,
      "t": 191999.808,
      "d": 361.11074999999255,
      "v": 72
    },
    {
      "midi": 48,
      "hit": false,
      "t": 192444.25199999998,
      "d": 229.16643750001094,
      "v": 57
    },
    {
      "midi": 57,
      "hit": false,
      "t": 192666.474,
      "d": 243.05531250001513,
      "v": 80
    },
    {
      "midi": 60,
      "hit": false,
      "t": 192666.474,
      "d": 243.05531250001513,
      "v": 80
    },
    {
      "midi": 64,
      "hit": false,
      "t": 192666.474,
      "d": 243.05531250001513,
      "v": 80
    },
    {
      "midi": 67,
      "hit": false,
      "t": 192666.474,
      "d": 243.05531250001513,
      "v": 80
    },
    {
      "midi": 60,
      "hit": false,
      "t": 193333.14,
      "d": 361.11074999999255,
      "v": 72
    },
    {
      "midi": 64,
      "hit": false,
      "t": 193333.14,
      "d": 361.11074999999255,
      "v": 72
    },
    {
      "midi": 67,
      "hit": false,
      "t": 193333.14,
      "d": 361.11074999999255,
      "v": 72
    },
    {
      "midi": 69,
      "hit": false,
      "t": 193333.14,
      "d": 361.11074999999255,
      "v": 72
    },
    {
      "midi": 45,
      "hit": false,
      "t": 193777.584,
      "d": 229.16643750001094,
      "v": 57
    },
    {
      "midi": 60,
      "hit": false,
      "t": 193999.806,
      "d": 243.05531250001513,
      "v": 80
    },
    {
      "midi": 64,
      "hit": false,
      "t": 193999.806,
      "d": 243.05531250001513,
      "v": 80
    },
    {
      "midi": 67,
      "hit": false,
      "t": 193999.806,
      "d": 243.05531250001513,
      "v": 80
    },
    {
      "midi": 69,
      "hit": false,
      "t": 193999.806,
      "d": 243.05531250001513,
      "v": 80
    },
    {
      "midi": 60,
      "hit": false,
      "t": 194666.47200000004,
      "d": 1333.3319999999949,
      "v": 76
    },
    {
      "midi": 62,
      "hit": false,
      "t": 194666.47200000004,
      "d": 1333.3319999999949,
      "v": 76
    },
    {
      "midi": 65,
      "hit": false,
      "t": 194666.47200000004,
      "d": 1333.3319999999949,
      "v": 76
    },
    {
      "midi": 69,
      "hit": false,
      "t": 194666.47200000004,
      "d": 1333.3319999999949,
      "v": 76
    },
    {
      "midi": 59,
      "hit": false,
      "t": 195999.80400000003,
      "d": 1333.3319999999949,
      "v": 76
    },
    {
      "midi": 62,
      "hit": false,
      "t": 195999.80400000003,
      "d": 1333.3319999999949,
      "v": 76
    },
    {
      "midi": 65,
      "hit": false,
      "t": 195999.80400000003,
      "d": 1333.3319999999949,
      "v": 76
    },
    {
      "midi": 69,
      "hit": false,
      "t": 195999.80400000003,
      "d": 1333.3319999999949,
      "v": 76
    },
    {
      "midi": 55,
      "hit": false,
      "t": 197333.13600000003,
      "d": 1333.3319999999949,
      "v": 76
    },
    {
      "midi": 62,
      "hit": false,
      "t": 197333.13600000003,
      "d": 1333.3319999999949,
      "v": 76
    },
    {
      "midi": 64,
      "hit": false,
      "t": 197333.13600000003,
      "d": 1333.3319999999949,
      "v": 76
    },
    {
      "midi": 60,
      "hit": false,
      "t": 198666.46800000002,
      "d": 944.443499999994,
      "v": 70
    },
    {
      "midi": 64,
      "hit": false,
      "t": 198666.46800000002,
      "d": 944.443499999994,
      "v": 70
    },
    {
      "midi": 67,
      "hit": false,
      "t": 198666.46800000002,
      "d": 944.443499999994,
      "v": 70
    },
    {
      "midi": 69,
      "hit": false,
      "t": 198666.46800000002,
      "d": 944.443499999994,
      "v": 70
    },
    {
      "midi": 55,
      "hit": false,
      "t": 199555.35600000003,
      "d": 152.7776249999879,
      "v": 47
    },
    {
      "midi": 60,
      "hit": false,
      "t": 199777.578,
      "d": 159.72206249999,
      "v": 70
    },
    {
      "midi": 60,
      "hit": false,
      "t": 199999.8,
      "d": 1333.3319999999949,
      "v": 76
    },
    {
      "midi": 62,
      "hit": false,
      "t": 199999.8,
      "d": 1333.3319999999949,
      "v": 76
    },
    {
      "midi": 65,
      "hit": false,
      "t": 199999.8,
      "d": 1333.3319999999949,
      "v": 76
    },
    {
      "midi": 69,
      "hit": false,
      "t": 199999.8,
      "d": 1333.3319999999949,
      "v": 76
    },
    {
      "midi": 59,
      "hit": false,
      "t": 201777.57599999997,
      "d": 277.7774999999965,
      "v": 60
    },
    {
      "midi": 65,
      "hit": false,
      "t": 201999.79799999998,
      "d": 444.4439999999886,
      "v": 87
    },
    {
      "midi": 69,
      "hit": false,
      "t": 202444.24199999997,
      "d": 83.33324999999604,
      "v": 78
    },
    {
      "midi": 59,
      "hit": false,
      "t": 202666.46399999998,
      "d": 361.11074999999255,
      "v": 72
    },
    {
      "midi": 62,
      "hit": false,
      "t": 202666.46399999998,
      "d": 361.11074999999255,
      "v": 72
    },
    {
      "midi": 64,
      "hit": false,
      "t": 202666.46399999998,
      "d": 361.11074999999255,
      "v": 72
    },
    {
      "midi": 67,
      "hit": false,
      "t": 202666.46399999998,
      "d": 361.11074999999255,
      "v": 72
    },
    {
      "midi": 48,
      "hit": false,
      "t": 203110.90799999997,
      "d": 229.16643750001094,
      "v": 57
    },
    {
      "midi": 59,
      "hit": false,
      "t": 203333.12999999998,
      "d": 243.05531250001513,
      "v": 80
    },
    {
      "midi": 62,
      "hit": false,
      "t": 203333.12999999998,
      "d": 243.05531250001513,
      "v": 80
    },
    {
      "midi": 64,
      "hit": false,
      "t": 203333.12999999998,
      "d": 243.05531250001513,
      "v": 80
    },
    {
      "midi": 67,
      "hit": false,
      "t": 203333.12999999998,
      "d": 243.05531250001513,
      "v": 80
    },
    {
      "midi": 60,
      "hit": false,
      "t": 203999.796,
      "d": 361.11074999999255,
      "v": 72
    },
    {
      "midi": 64,
      "hit": false,
      "t": 203999.796,
      "d": 361.11074999999255,
      "v": 72
    },
    {
      "midi": 67,
      "hit": false,
      "t": 203999.796,
      "d": 361.11074999999255,
      "v": 72
    },
    {
      "midi": 69,
      "hit": false,
      "t": 203999.796,
      "d": 361.11074999999255,
      "v": 72
    },
    {
      "midi": 45,
      "hit": false,
      "t": 204444.24,
      "d": 229.16643750001094,
      "v": 57
    },
    {
      "midi": 60,
      "hit": false,
      "t": 204666.462,
      "d": 243.05531250001513,
      "v": 80
    },
    {
      "midi": 64,
      "hit": false,
      "t": 204666.462,
      "d": 243.05531250001513,
      "v": 80
    },
    {
      "midi": 67,
      "hit": false,
      "t": 204666.462,
      "d": 243.05531250001513,
      "v": 80
    },
    {
      "midi": 69,
      "hit": false,
      "t": 204666.462,
      "d": 243.05531250001513,
      "v": 80
    },
    {
      "midi": 60,
      "hit": false,
      "t": 205333.12800000003,
      "d": 1333.3319999999949,
      "v": 76
    },
    {
      "midi": 62,
      "hit": false,
      "t": 205333.12800000003,
      "d": 1333.3319999999949,
      "v": 76
    },
    {
      "midi": 65,
      "hit": false,
      "t": 205333.12800000003,
      "d": 1333.3319999999949,
      "v": 76
    },
    {
      "midi": 69,
      "hit": false,
      "t": 205333.12800000003,
      "d": 1333.3319999999949,
      "v": 76
    },
    {
      "midi": 59,
      "hit": false,
      "t": 207110.904,
      "d": 277.7774999999965,
      "v": 60
    },
    {
      "midi": 65,
      "hit": false,
      "t": 207333.12600000002,
      "d": 444.4439999999886,
      "v": 87
    },
    {
      "midi": 69,
      "hit": false,
      "t": 207777.57,
      "d": 83.33324999999604,
      "v": 78
    },
    {
      "midi": 55,
      "hit": false,
      "t": 207999.79200000002,
      "d": 361.11074999999255,
      "v": 72
    },
    {
      "midi": 62,
      "hit": false,
      "t": 207999.79200000002,
      "d": 361.11074999999255,
      "v": 72
    },
    {
      "midi": 64,
      "hit": false,
      "t": 207999.79200000002,
      "d": 361.11074999999255,
      "v": 72
    },
    {
      "midi": 48,
      "hit": false,
      "t": 208444.236,
      "d": 229.16643750001094,
      "v": 57
    },
    {
      "midi": 55,
      "hit": false,
      "t": 208666.458,
      "d": 243.05531250001513,
      "v": 80
    },
    {
      "midi": 62,
      "hit": false,
      "t": 208666.458,
      "d": 243.05531250001513,
      "v": 80
    },
    {
      "midi": 64,
      "hit": false,
      "t": 208666.458,
      "d": 243.05531250001513,
      "v": 80
    },
    {
      "midi": 60,
      "hit": false,
      "t": 209333.12400000004,
      "d": 361.11074999999255,
      "v": 72
    },
    {
      "midi": 64,
      "hit": false,
      "t": 209333.12400000004,
      "d": 361.11074999999255,
      "v": 72
    },
    {
      "midi": 67,
      "hit": false,
      "t": 209333.12400000004,
      "d": 361.11074999999255,
      "v": 72
    },
    {
      "midi": 69,
      "hit": false,
      "t": 209333.12400000004,
      "d": 361.11074999999255,
      "v": 72
    },
    {
      "midi": 45,
      "hit": false,
      "t": 209777.56800000003,
      "d": 229.16643750001094,
      "v": 57
    },
    {
      "midi": 60,
      "hit": false,
      "t": 209999.79000000004,
      "d": 243.05531250001513,
      "v": 80
    },
    {
      "midi": 64,
      "hit": false,
      "t": 209999.79000000004,
      "d": 243.05531250001513,
      "v": 80
    },
    {
      "midi": 67,
      "hit": false,
      "t": 209999.79000000004,
      "d": 243.05531250001513,
      "v": 80
    },
    {
      "midi": 69,
      "hit": false,
      "t": 209999.79000000004,
      "d": 243.05531250001513,
      "v": 80
    },
    {
      "midi": 60,
      "hit": false,
      "t": 211110.90000000005,
      "d": 277.7774999999965,
      "v": 60
    },
    {
      "midi": 65,
      "hit": false,
      "t": 211333.12200000006,
      "d": 444.4439999999886,
      "v": 87
    },
    {
      "midi": 69,
      "hit": false,
      "t": 211777.56600000005,
      "d": 83.33324999999604,
      "v": 78
    },
    {
      "midi": 59,
      "hit": false,
      "t": 211999.78800000006,
      "d": 1333.3319999999949,
      "v": 76
    },
    {
      "midi": 62,
      "hit": false,
      "t": 211999.78800000006,
      "d": 1333.3319999999949,
      "v": 76
    },
    {
      "midi": 65,
      "hit": false,
      "t": 211999.78800000006,
      "d": 1333.3319999999949,
      "v": 76
    },
    {
      "midi": 69,
      "hit": false,
      "t": 211999.78800000006,
      "d": 1333.3319999999949,
      "v": 76
    },
    {
      "midi": 57,
      "hit": false,
      "t": 213777.56400000004,
      "d": 277.7774999999965,
      "v": 60
    },
    {
      "midi": 64,
      "hit": false,
      "t": 213999.78600000005,
      "d": 444.4439999999886,
      "v": 87
    },
    {
      "midi": 67,
      "hit": false,
      "t": 214444.23000000004,
      "d": 83.33324999999604,
      "v": 78
    },
    {
      "midi": 57,
      "hit": false,
      "t": 214666.45200000005,
      "d": 944.443499999994,
      "v": 70
    },
    {
      "midi": 60,
      "hit": false,
      "t": 214666.45200000005,
      "d": 944.443499999994,
      "v": 70
    },
    {
      "midi": 65,
      "hit": false,
      "t": 215555.34000000005,
      "d": 55.55549999998766,
      "v": 47
    },
    {
      "midi": 69,
      "hit": false,
      "t": 215777.56200000003,
      "d": 159.72206249999,
      "v": 70
    },
    {
      "midi": 60,
      "hit": false,
      "t": 215999.784,
      "d": 944.443499999994,
      "v": 70
    },
    {
      "midi": 64,
      "hit": false,
      "t": 215999.784,
      "d": 944.443499999994,
      "v": 70
    },
    {
      "midi": 67,
      "hit": false,
      "t": 215999.784,
      "d": 944.443499999994,
      "v": 70
    },
    {
      "midi": 57,
      "hit": false,
      "t": 216888.67200000002,
      "d": 55.55549999998766,
      "v": 47
    },
    {
      "midi": 64,
      "hit": false,
      "t": 217110.894,
      "d": 159.72206249999,
      "v": 70
    },
    {
      "midi": 60,
      "hit": false,
      "t": 217333.11599999998,
      "d": 361.11074999999255,
      "v": 72
    },
    {
      "midi": 64,
      "hit": false,
      "t": 217333.11599999998,
      "d": 361.11074999999255,
      "v": 72
    },
    {
      "midi": 67,
      "hit": false,
      "t": 217333.11599999998,
      "d": 361.11074999999255,
      "v": 72
    },
    {
      "midi": 69,
      "hit": false,
      "t": 217333.11599999998,
      "d": 361.11074999999255,
      "v": 72
    },
    {
      "midi": 45,
      "hit": false,
      "t": 217777.55999999997,
      "d": 229.16643750001094,
      "v": 57
    },
    {
      "midi": 60,
      "hit": false,
      "t": 217999.78199999998,
      "d": 243.05531250001513,
      "v": 80
    },
    {
      "midi": 64,
      "hit": false,
      "t": 217999.78199999998,
      "d": 243.05531250001513,
      "v": 80
    },
    {
      "midi": 67,
      "hit": false,
      "t": 217999.78199999998,
      "d": 243.05531250001513,
      "v": 80
    },
    {
      "midi": 69,
      "hit": false,
      "t": 217999.78199999998,
      "d": 243.05531250001513,
      "v": 80
    },
    {
      "midi": 60,
      "hit": false,
      "t": 218666.448,
      "d": 361.11074999999255,
      "v": 72
    },
    {
      "midi": 62,
      "hit": false,
      "t": 218666.448,
      "d": 361.11074999999255,
      "v": 72
    },
    {
      "midi": 65,
      "hit": false,
      "t": 218666.448,
      "d": 361.11074999999255,
      "v": 72
    },
    {
      "midi": 69,
      "hit": false,
      "t": 218666.448,
      "d": 361.11074999999255,
      "v": 72
    },
    {
      "midi": 50,
      "hit": false,
      "t": 219110.892,
      "d": 229.16643750001094,
      "v": 57
    },
    {
      "midi": 60,
      "hit": false,
      "t": 219333.114,
      "d": 243.05531250001513,
      "v": 80
    },
    {
      "midi": 62,
      "hit": false,
      "t": 219333.114,
      "d": 243.05531250001513,
      "v": 80
    },
    {
      "midi": 65,
      "hit": false,
      "t": 219333.114,
      "d": 243.05531250001513,
      "v": 80
    },
    {
      "midi": 69,
      "hit": false,
      "t": 219333.114,
      "d": 243.05531250001513,
      "v": 80
    },
    {
      "midi": 59,
      "hit": false,
      "t": 219999.78000000003,
      "d": 1333.3319999999949,
      "v": 76
    },
    {
      "midi": 62,
      "hit": false,
      "t": 219999.78000000003,
      "d": 1333.3319999999949,
      "v": 76
    },
    {
      "midi": 65,
      "hit": false,
      "t": 219999.78000000003,
      "d": 1333.3319999999949,
      "v": 76
    },
    {
      "midi": 69,
      "hit": false,
      "t": 219999.78000000003,
      "d": 1333.3319999999949,
      "v": 76
    },
    {
      "midi": 62,
      "hit": false,
      "t": 221333.11200000002,
      "d": 944.443499999994,
      "v": 70
    },
    {
      "midi": 64,
      "hit": false,
      "t": 221333.11200000002,
      "d": 944.443499999994,
      "v": 70
    },
    {
      "midi": 67,
      "hit": false,
      "t": 221333.11200000002,
      "d": 944.443499999994,
      "v": 70
    },
    {
      "midi": 59,
      "hit": false,
      "t": 222222.00000000003,
      "d": 55.55549999998766,
      "v": 47
    },
    {
      "midi": 64,
      "hit": false,
      "t": 222444.222,
      "d": 159.72206249999,
      "v": 70
    },
    {
      "midi": 60,
      "hit": false,
      "t": 223110.888,
      "d": 277.7774999999965,
      "v": 60
    },
    {
      "midi": 67,
      "hit": false,
      "t": 223333.11000000002,
      "d": 444.4439999999886,
      "v": 87
    },
    {
      "midi": 69,
      "hit": false,
      "t": 223777.554,
      "d": 83.33324999999604,
      "v": 78
    },
    {
      "midi": 60,
      "hit": false,
      "t": 223999.776,
      "d": 1333.3319999999949,
      "v": 76
    },
    {
      "midi": 62,
      "hit": false,
      "t": 223999.776,
      "d": 1333.3319999999949,
      "v": 76
    },
    {
      "midi": 65,
      "hit": false,
      "t": 223999.776,
      "d": 1333.3319999999949,
      "v": 76
    },
    {
      "midi": 69,
      "hit": false,
      "t": 223999.776,
      "d": 1333.3319999999949,
      "v": 76
    },
    {
      "midi": 59,
      "hit": false,
      "t": 225333.108,
      "d": 944.443499999994,
      "v": 70
    },
    {
      "midi": 62,
      "hit": false,
      "t": 225333.108,
      "d": 944.443499999994,
      "v": 70
    },
    {
      "midi": 65,
      "hit": false,
      "t": 225333.108,
      "d": 944.443499999994,
      "v": 70
    },
    {
      "midi": 69,
      "hit": false,
      "t": 225333.108,
      "d": 944.443499999994,
      "v": 70
    },
    {
      "midi": 53,
      "hit": false,
      "t": 226221.996,
      "d": 152.7776249999879,
      "v": 47
    },
    {
      "midi": 59,
      "hit": false,
      "t": 226444.218,
      "d": 159.72206249999,
      "v": 70
    },
    {
      "midi": 59,
      "hit": false,
      "t": 226666.43999999997,
      "d": 1333.3319999999949,
      "v": 76
    },
    {
      "midi": 62,
      "hit": false,
      "t": 226666.43999999997,
      "d": 1333.3319999999949,
      "v": 76
    },
    {
      "midi": 64,
      "hit": false,
      "t": 226666.43999999997,
      "d": 1333.3319999999949,
      "v": 76
    },
    {
      "midi": 67,
      "hit": false,
      "t": 226666.43999999997,
      "d": 1333.3319999999949,
      "v": 76
    },
    {
      "midi": 60,
      "hit": false,
      "t": 227999.77199999997,
      "d": 1333.3319999999949,
      "v": 76
    },
    {
      "midi": 64,
      "hit": false,
      "t": 227999.77199999997,
      "d": 1333.3319999999949,
      "v": 76
    },
    {
      "midi": 67,
      "hit": false,
      "t": 227999.77199999997,
      "d": 1333.3319999999949,
      "v": 76
    },
    {
      "midi": 69,
      "hit": false,
      "t": 227999.77199999997,
      "d": 1333.3319999999949,
      "v": 76
    },
    {
      "midi": 60,
      "hit": false,
      "t": 229777.54799999995,
      "d": 277.7774999999965,
      "v": 60
    },
    {
      "midi": 65,
      "hit": false,
      "t": 229999.76999999996,
      "d": 444.4439999999886,
      "v": 87
    },
    {
      "midi": 69,
      "hit": false,
      "t": 230444.21399999995,
      "d": 83.33324999999604,
      "v": 78
    },
    {
      "midi": 59,
      "hit": false,
      "t": 230666.43599999996,
      "d": 1333.3319999999949,
      "v": 76
    },
    {
      "midi": 64,
      "hit": false,
      "t": 230666.43599999996,
      "d": 1333.3319999999949,
      "v": 76
    },
    {
      "midi": 65,
      "hit": false,
      "t": 230666.43599999996,
      "d": 1333.3319999999949,
      "v": 76
    },
    {
      "midi": 69,
      "hit": false,
      "t": 230666.43599999996,
      "d": 1333.3319999999949,
      "v": 76
    },
    {
      "midi": 55,
      "hit": false,
      "t": 231999.76799999995,
      "d": 361.11074999999255,
      "v": 72
    },
    {
      "midi": 60,
      "hit": false,
      "t": 231999.76799999995,
      "d": 361.11074999999255,
      "v": 72
    },
    {
      "midi": 64,
      "hit": false,
      "t": 231999.76799999995,
      "d": 361.11074999999255,
      "v": 72
    },
    {
      "midi": 48,
      "hit": false,
      "t": 232444.21199999994,
      "d": 222.22200000000885,
      "v": 57
    },
    {
      "midi": 62,
      "hit": false,
      "t": 232666.43399999995,
      "d": 361.11074999999255,
      "v": 72
    },
    {
      "midi": 65,
      "hit": false,
      "t": 232666.43399999995,
      "d": 361.11074999999255,
      "v": 72
    },
    {
      "midi": 68,
      "hit": false,
      "t": 232666.43399999995,
      "d": 361.11074999999255,
      "v": 72
    },
    {
      "midi": 70,
      "hit": false,
      "t": 232666.43399999995,
      "d": 361.11074999999255,
      "v": 72
    },
    {
      "midi": 46,
      "hit": false,
      "t": 233110.87799999994,
      "d": 222.22200000000885,
      "v": 57
    },
    {
      "midi": 61,
      "hit": false,
      "t": 233333.09999999995,
      "d": 1333.3319999999949,
      "v": 76
    },
    {
      "midi": 64,
      "hit": false,
      "t": 233333.09999999995,
      "d": 1333.3319999999949,
      "v": 76
    },
    {
      "midi": 67,
      "hit": false,
      "t": 233333.09999999995,
      "d": 1333.3319999999949,
      "v": 76
    },
    {
      "midi": 71,
      "hit": false,
      "t": 233333.09999999995,
      "d": 1333.3319999999949,
      "v": 76
    },
    {
      "midi": 60,
      "hit": false,
      "t": 234666.43199999994,
      "d": 361.11074999999255,
      "v": 72
    },
    {
      "midi": 62,
      "hit": false,
      "t": 234666.43199999994,
      "d": 361.11074999999255,
      "v": 72
    },
    {
      "midi": 66,
      "hit": false,
      "t": 234666.43199999994,
      "d": 361.11074999999255,
      "v": 72
    },
    {
      "midi": 69,
      "hit": false,
      "t": 234666.43199999994,
      "d": 361.11074999999255,
      "v": 72
    },
    {
      "midi": 50,
      "hit": false,
      "t": 235110.87599999993,
      "d": 222.22200000000885,
      "v": 57
    },
    {
      "midi": 58,
      "hit": false,
      "t": 235333.09799999994,
      "d": 361.11074999999255,
      "v": 72
    },
    {
      "midi": 61,
      "hit": false,
      "t": 235333.09799999994,
      "d": 361.11074999999255,
      "v": 72
    },
    {
      "midi": 63,
      "hit": false,
      "t": 235333.09799999994,
      "d": 361.11074999999255,
      "v": 72
    },
    {
      "midi": 67,
      "hit": false,
      "t": 235333.09799999994,
      "d": 361.11074999999255,
      "v": 72
    },
    {
      "midi": 51,
      "hit": false,
      "t": 235777.54199999993,
      "d": 222.22200000000885,
      "v": 57
    },
    {
      "midi": 62,
      "hit": false,
      "t": 235999.76399999994,
      "d": 944.443499999994,
      "v": 70
    },
    {
      "midi": 66,
      "hit": false,
      "t": 235999.76399999994,
      "d": 944.443499999994,
      "v": 70
    },
    {
      "midi": 69,
      "hit": false,
      "t": 235999.76399999994,
      "d": 944.443499999994,
      "v": 70
    },
    {
      "midi": 60,
      "hit": false,
      "t": 236888.65199999994,
      "d": 55.55549999998766,
      "v": 47
    },
    {
      "midi": 66,
      "hit": false,
      "t": 237110.87399999992,
      "d": 159.72206249999,
      "v": 70
    },
    {
      "midi": 62,
      "hit": false,
      "t": 237333.0959999999,
      "d": 944.443499999994,
      "v": 70
    },
    {
      "midi": 65,
      "hit": false,
      "t": 237333.0959999999,
      "d": 944.443499999994,
      "v": 70
    },
    {
      "midi": 69,
      "hit": false,
      "t": 237333.0959999999,
      "d": 944.443499999994,
      "v": 70
    },
    {
      "midi": 60,
      "hit": false,
      "t": 238221.9839999999,
      "d": 55.55549999998766,
      "v": 47
    },
    {
      "midi": 65,
      "hit": false,
      "t": 238444.2059999999,
      "d": 159.72206249999,
      "v": 70
    },
    {
      "midi": 59,
      "hit": false,
      "t": 238666.42799999987,
      "d": 361.11074999999255,
      "v": 72
    },
    {
      "midi": 62,
      "hit": false,
      "t": 238666.42799999987,
      "d": 361.11074999999255,
      "v": 72
    },
    {
      "midi": 65,
      "hit": false,
      "t": 238666.42799999987,
      "d": 361.11074999999255,
      "v": 72
    },
    {
      "midi": 69,
      "hit": false,
      "t": 238666.42799999987,
      "d": 361.11074999999255,
      "v": 72
    },
    {
      "midi": 43,
      "hit": false,
      "t": 239110.87199999986,
      "d": 229.16643750001094,
      "v": 57
    },
    {
      "midi": 59,
      "hit": false,
      "t": 239333.09399999987,
      "d": 243.05531250001513,
      "v": 80
    },
    {
      "midi": 62,
      "hit": false,
      "t": 239333.09399999987,
      "d": 243.05531250001513,
      "v": 80
    },
    {
      "midi": 65,
      "hit": false,
      "t": 239333.09399999987,
      "d": 243.05531250001513,
      "v": 80
    },
    {
      "midi": 69,
      "hit": false,
      "t": 239333.09399999987,
      "d": 243.05531250001513,
      "v": 80
    },
    {
      "midi": 55,
      "hit": false,
      "t": 239999.7599999999,
      "d": 361.11074999999255,
      "v": 72
    },
    {
      "midi": 62,
      "hit": false,
      "t": 239999.7599999999,
      "d": 361.11074999999255,
      "v": 72
    },
    {
      "midi": 64,
      "hit": false,
      "t": 239999.7599999999,
      "d": 361.11074999999255,
      "v": 72
    },
    {
      "midi": 48,
      "hit": false,
      "t": 240444.20399999988,
      "d": 229.16643750001094,
      "v": 57
    },
    {
      "midi": 55,
      "hit": false,
      "t": 240666.4259999999,
      "d": 243.05531250001513,
      "v": 80
    },
    {
      "midi": 62,
      "hit": false,
      "t": 240666.4259999999,
      "d": 243.05531250001513,
      "v": 80
    },
    {
      "midi": 64,
      "hit": false,
      "t": 240666.4259999999,
      "d": 243.05531250001513,
      "v": 80
    },
    {
      "midi": 60,
      "hit": false,
      "t": 241333.09199999992,
      "d": 944.443499999994,
      "v": 70
    },
    {
      "midi": 64,
      "hit": false,
      "t": 241333.09199999992,
      "d": 944.443499999994,
      "v": 70
    },
    {
      "midi": 67,
      "hit": false,
      "t": 241333.09199999992,
      "d": 944.443499999994,
      "v": 70
    },
    {
      "midi": 69,
      "hit": false,
      "t": 241333.09199999992,
      "d": 944.443499999994,
      "v": 70
    },
    {
      "midi": 55,
      "hit": false,
      "t": 242221.97999999992,
      "d": 152.7776249999879,
      "v": 47
    },
    {
      "midi": 60,
      "hit": false,
      "t": 242444.2019999999,
      "d": 159.72206249999,
      "v": 70
    },
    {
      "midi": 62,
      "hit": false,
      "t": 242666.42399999988,
      "d": 944.443499999994,
      "v": 70
    },
    {
      "midi": 65,
      "hit": false,
      "t": 242666.42399999988,
      "d": 944.443499999994,
      "v": 70
    },
    {
      "midi": 69,
      "hit": false,
      "t": 242666.42399999988,
      "d": 944.443499999994,
      "v": 70
    },
    {
      "midi": 60,
      "hit": false,
      "t": 243555.3119999999,
      "d": 55.55549999998766,
      "v": 47
    },
    {
      "midi": 65,
      "hit": false,
      "t": 243777.53399999987,
      "d": 159.72206249999,
      "v": 70
    },
    {
      "midi": 59,
      "hit": false,
      "t": 243999.75599999985,
      "d": 944.443499999994,
      "v": 70
    },
    {
      "midi": 62,
      "hit": false,
      "t": 243999.75599999985,
      "d": 944.443499999994,
      "v": 70
    },
    {
      "midi": 65,
      "hit": false,
      "t": 243999.75599999985,
      "d": 944.443499999994,
      "v": 70
    },
    {
      "midi": 69,
      "hit": false,
      "t": 243999.75599999985,
      "d": 944.443499999994,
      "v": 70
    },
    {
      "midi": 53,
      "hit": false,
      "t": 244888.64399999985,
      "d": 152.7776249999879,
      "v": 47
    },
    {
      "midi": 59,
      "hit": false,
      "t": 245110.86599999983,
      "d": 159.72206249999,
      "v": 70
    },
    {
      "midi": 59,
      "hit": false,
      "t": 245777.53199999983,
      "d": 277.7774999999965,
      "v": 60
    },
    {
      "midi": 64,
      "hit": false,
      "t": 245999.75399999984,
      "d": 444.4439999999886,
      "v": 87
    },
    {
      "midi": 67,
      "hit": false,
      "t": 246444.19799999983,
      "d": 83.33324999999604,
      "v": 78
    },
    {
      "midi": 60,
      "hit": false,
      "t": 246666.41999999984,
      "d": 1333.3319999999949,
      "v": 76
    },
    {
      "midi": 64,
      "hit": false,
      "t": 246666.41999999984,
      "d": 1333.3319999999949,
      "v": 76
    },
    {
      "midi": 67,
      "hit": false,
      "t": 246666.41999999984,
      "d": 1333.3319999999949,
      "v": 76
    },
    {
      "midi": 69,
      "hit": false,
      "t": 246666.41999999984,
      "d": 1333.3319999999949,
      "v": 76
    },
    {
      "midi": 62,
      "hit": false,
      "t": 247999.75199999983,
      "d": 944.443499999994,
      "v": 70
    },
    {
      "midi": 65,
      "hit": false,
      "t": 247999.75199999983,
      "d": 944.443499999994,
      "v": 70
    },
    {
      "midi": 69,
      "hit": false,
      "t": 247999.75199999983,
      "d": 944.443499999994,
      "v": 70
    },
    {
      "midi": 60,
      "hit": false,
      "t": 248888.63999999984,
      "d": 55.55549999998766,
      "v": 47
    },
    {
      "midi": 65,
      "hit": false,
      "t": 249110.86199999982,
      "d": 159.72206249999,
      "v": 70
    },
    {
      "midi": 59,
      "hit": false,
      "t": 249333.0839999998,
      "d": 361.11074999999255,
      "v": 72
    },
    {
      "midi": 62,
      "hit": false,
      "t": 249333.0839999998,
      "d": 361.11074999999255,
      "v": 72
    },
    {
      "midi": 65,
      "hit": false,
      "t": 249333.0839999998,
      "d": 361.11074999999255,
      "v": 72
    },
    {
      "midi": 69,
      "hit": false,
      "t": 249333.0839999998,
      "d": 361.11074999999255,
      "v": 72
    },
    {
      "midi": 43,
      "hit": false,
      "t": 249777.5279999998,
      "d": 229.16643750001094,
      "v": 57
    },
    {
      "midi": 59,
      "hit": false,
      "t": 249999.7499999998,
      "d": 243.05531250001513,
      "v": 80
    },
    {
      "midi": 62,
      "hit": false,
      "t": 249999.7499999998,
      "d": 243.05531250001513,
      "v": 80
    },
    {
      "midi": 65,
      "hit": false,
      "t": 249999.7499999998,
      "d": 243.05531250001513,
      "v": 80
    },
    {
      "midi": 69,
      "hit": false,
      "t": 249999.7499999998,
      "d": 243.05531250001513,
      "v": 80
    },
    {
      "midi": 62,
      "hit": false,
      "t": 250666.41599999982,
      "d": 944.443499999994,
      "v": 70
    },
    {
      "midi": 64,
      "hit": false,
      "t": 250666.41599999982,
      "d": 944.443499999994,
      "v": 70
    },
    {
      "midi": 67,
      "hit": false,
      "t": 250666.41599999982,
      "d": 944.443499999994,
      "v": 70
    },
    {
      "midi": 59,
      "hit": false,
      "t": 251555.30399999983,
      "d": 55.55549999998766,
      "v": 47
    },
    {
      "midi": 64,
      "hit": false,
      "t": 251777.5259999998,
      "d": 159.72206249999,
      "v": 70
    },
    {
      "midi": 60,
      "hit": false,
      "t": 251999.7479999998,
      "d": 944.443499999994,
      "v": 70
    },
    {
      "midi": 64,
      "hit": false,
      "t": 251999.7479999998,
      "d": 944.443499999994,
      "v": 70
    },
    {
      "midi": 67,
      "hit": false,
      "t": 251999.7479999998,
      "d": 944.443499999994,
      "v": 70
    },
    {
      "midi": 69,
      "hit": false,
      "t": 251999.7479999998,
      "d": 944.443499999994,
      "v": 70
    },
    {
      "midi": 55,
      "hit": false,
      "t": 252888.6359999998,
      "d": 152.7776249999879,
      "v": 47
    },
    {
      "midi": 60,
      "hit": false,
      "t": 253110.85799999977,
      "d": 159.72206249999,
      "v": 70
    },
    {
      "midi": 60,
      "hit": false,
      "t": 253333.07999999975,
      "d": 1333.3319999999949,
      "v": 76
    },
    {
      "midi": 62,
      "hit": false,
      "t": 253333.07999999975,
      "d": 1333.3319999999949,
      "v": 76
    },
    {
      "midi": 65,
      "hit": false,
      "t": 253333.07999999975,
      "d": 1333.3319999999949,
      "v": 76
    },
    {
      "midi": 69,
      "hit": false,
      "t": 253333.07999999975,
      "d": 1333.3319999999949,
      "v": 76
    },
    {
      "midi": 59,
      "hit": false,
      "t": 255110.85599999974,
      "d": 277.7774999999965,
      "v": 60
    },
    {
      "midi": 65,
      "hit": false,
      "t": 255333.07799999975,
      "d": 444.4439999999886,
      "v": 87
    },
    {
      "midi": 69,
      "hit": false,
      "t": 255777.52199999974,
      "d": 83.33324999999604,
      "v": 78
    },
    {
      "midi": 57,
      "hit": false,
      "t": 255999.74399999974,
      "d": 1333.3319999999949,
      "v": 76
    },
    {
      "midi": 60,
      "hit": false,
      "t": 255999.74399999974,
      "d": 1333.3319999999949,
      "v": 76
    },
    {
      "midi": 64,
      "hit": false,
      "t": 255999.74399999974,
      "d": 1333.3319999999949,
      "v": 76
    },
    {
      "midi": 67,
      "hit": false,
      "t": 255999.74399999974,
      "d": 1333.3319999999949,
      "v": 76
    },
    {
      "midi": 60,
      "hit": false,
      "t": 257333.07599999974,
      "d": 944.443499999994,
      "v": 70
    },
    {
      "midi": 65,
      "hit": false,
      "t": 257333.07599999974,
      "d": 944.443499999994,
      "v": 70
    },
    {
      "midi": 69,
      "hit": false,
      "t": 257333.07599999974,
      "d": 944.443499999994,
      "v": 70
    },
    {
      "midi": 62,
      "hit": false,
      "t": 258221.96399999975,
      "d": 55.55549999998766,
      "v": 47
    },
    {
      "midi": 69,
      "hit": false,
      "t": 258444.18599999973,
      "d": 159.72206249999,
      "v": 70
    },
    {
      "midi": 59,
      "hit": false,
      "t": 259110.85199999972,
      "d": 277.7774999999965,
      "v": 60
    },
    {
      "midi": 64,
      "hit": false,
      "t": 259333.07399999973,
      "d": 444.4439999999886,
      "v": 87
    },
    {
      "midi": 67,
      "hit": false,
      "t": 259777.51799999972,
      "d": 83.33324999999604,
      "v": 78
    },
    {
      "midi": 59,
      "hit": false,
      "t": 259999.73999999973,
      "d": 361.11074999999255,
      "v": 72
    },
    {
      "midi": 62,
      "hit": false,
      "t": 259999.73999999973,
      "d": 361.11074999999255,
      "v": 72
    },
    {
      "midi": 65,
      "hit": false,
      "t": 259999.73999999973,
      "d": 361.11074999999255,
      "v": 72
    },
    {
      "midi": 69,
      "hit": false,
      "t": 259999.73999999973,
      "d": 361.11074999999255,
      "v": 72
    },
    {
      "midi": 43,
      "hit": false,
      "t": 260444.18399999972,
      "d": 229.16643750001094,
      "v": 57
    },
    {
      "midi": 59,
      "hit": false,
      "t": 260666.40599999973,
      "d": 243.05531250001513,
      "v": 80
    },
    {
      "midi": 62,
      "hit": false,
      "t": 260666.40599999973,
      "d": 243.05531250001513,
      "v": 80
    },
    {
      "midi": 65,
      "hit": false,
      "t": 260666.40599999973,
      "d": 243.05531250001513,
      "v": 80
    },
    {
      "midi": 69,
      "hit": false,
      "t": 260666.40599999973,
      "d": 243.05531250001513,
      "v": 80
    },
    {
      "midi": 55,
      "hit": false,
      "t": 261333.07199999975,
      "d": 2555.5530000000144,
      "v": 85
    },
    {
      "midi": 62,
      "hit": false,
      "t": 261333.07199999975,
      "d": 2555.5530000000144,
      "v": 85
    },
    {
      "midi": 64,
      "hit": false,
      "t": 261333.07199999975,
      "d": 2555.5530000000144,
      "v": 85
    },
    {
      "midi": 55,
      "hit": false,
      "t": 263999.73599999974,
      "d": 187.49981250002747,
      "v": 80
    },
    {
      "midi": 62,
      "hit": false,
      "t": 263999.73599999974,
      "d": 187.49981250002747,
      "v": 80
    },
    {
      "midi": 64,
      "hit": false,
      "t": 263999.73599999974,
      "d": 187.49981250002747,
      "v": 80
    },
    {
      "midi": 36,
      "hit": false,
      "t": 264444.17999999976,
      "d": 111.11099999997532,
      "v": 64
    },
    {
      "midi": 43,
      "hit": false,
      "t": 264666.4019999997,
      "d": 173.61093750002328,
      "v": 78
    },
    {
      "midi": 55,
      "hit": false,
      "t": 265333.06799999974,
      "d": 319.44412499998,
      "v": 100
    },
    {
      "midi": 62,
      "hit": false,
      "t": 265333.06799999974,
      "d": 319.44412499998,
      "v": 100
    },
    {
      "midi": 64,
      "hit": false,
      "t": 265333.06799999974,
      "d": 319.44412499998,
      "v": 100
    },
    {
      "midi": 48,
      "hit": false,
      "t": 265333.06799999974,
      "d": 347.22187499998836,
      "v": 82
    }
  ]
}