{
  "jsonPath": "Classical/Classical/Richard Wagner/pilgrims-chorus.json",
  "path": "Classical\\Classical\\Richard Wagner\\Pilgrims Chorus.mid",
  "name": "Pilgrims Chorus",
  "difficulty": "Advanced",
  "bpm": 100,
  "notes": [
    {
      "midi": 67,
      "hit": false,
      "t": 1200,
      "d": 600,
      "v": 67
    },
    {
      "midi": 72,
      "hit": false,
      "t": 1800,
      "d": 1200,
      "v": 86
    },
    {
      "midi": 60,
      "hit": false,
      "t": 1800,
      "d": 1800,
      "v": 68
    },
    {
      "midi": 64,
      "hit": false,
      "t": 1800,
      "d": 1800,
      "v": 68
    },
    {
      "midi": 67,
      "hit": false,
      "t": 3000,
      "d": 600,
      "v": 64
    },
    {
      "midi": 64,
      "hit": false,
      "t": 3600,
      "d": 1200,
      "v": 69
    },
    {
      "midi": 57,
      "hit": false,
      "t": 3600,
      "d": 1800,
      "v": 72
    },
    {
      "midi": 60,
      "hit": false,
      "t": 3600,
      "d": 1800,
      "v": 72
    },
    {
      "midi": 64,
      "hit": false,
      "t": 4800,
      "d": 200,
      "v": 100
    },
    {
      "midi": 65,
      "hit": false,
      "t": 5000,
      "d": 200,
      "v": 100
    },
    {
      "midi": 67,
      "hit": false,
      "t": 5200,
      "d": 200,
      "v": 100
    },
    {
      "midi": 67,
      "hit": false,
      "t": 5400,
      "d": 600,
      "v": 80
    },
    {
      "midi": 52,
      "hit": false,
      "t": 5400,
      "d": 600,
      "v": 72
    },
    {
      "midi": 60,
      "hit": false,
      "t": 5400,
      "d": 600,
      "v": 76
    },
    {
      "midi": 69,
      "hit": false,
      "t": 6000,
      "d": 600,
      "v": 81
    },
    {
      "midi": 53,
      "hit": false,
      "t": 6000,
      "d": 600,
      "v": 79
    },
    {
      "midi": 60,
      "hit": false,
      "t": 6000,
      "d": 600,
      "v": 76
    },
    {
      "midi": 67,
      "hit": false,
      "t": 6600,
      "d": 600,
      "v": 71
    },
    {
      "midi": 52,
      "hit": false,
      "t": 6600,
      "d": 600,
      "v": 74
    },
    {
      "midi": 60,
      "hit": false,
      "t": 6600,
      "d": 600,
      "v": 76
    },
    {
      "midi": 67,
      "hit": false,
      "t": 7200,
      "d": 600,
      "v": 77
    },
    {
      "midi": 50,
      "hit": false,
      "t": 7200,
      "d": 1800,
      "v": 75
    },
    {
      "midi": 57,
      "hit": false,
      "t": 7200,
      "d": 1800,
      "v": 75
    },
    {
      "midi": 65,
      "hit": false,
      "t": 7800,
      "d": 600,
      "v": 68
    },
    {
      "midi": 69,
      "hit": false,
      "t": 8400,
      "d": 600,
      "v": 86
    },
    {
      "midi": 74,
      "hit": false,
      "t": 9000,
      "d": 1200,
      "v": 91
    },
    {
      "midi": 62,
      "hit": false,
      "t": 9000,
      "d": 1200,
      "v": 96
    },
    {
      "midi": 66,
      "hit": false,
      "t": 9000,
      "d": 1200,
      "v": 96
    },
    {
      "midi": 72,
      "hit": false,
      "t": 10200,
      "d": 600,
      "v": 75
    },
    {
      "midi": 50,
      "hit": false,
      "t": 10200,
      "d": 600,
      "v": 70
    },
    {
      "midi": 71,
      "hit": false,
      "t": 10800,
      "d": 1200,
      "v": 72
    },
    {
      "midi": 53,
      "hit": false,
      "t": 10800,
      "d": 1200,
      "v": 86
    },
    {
      "midi": 62,
      "hit": false,
      "t": 10800,
      "d": 1200,
      "v": 86
    },
    {
      "midi": 67,
      "hit": false,
      "t": 12000,
      "d": 200,
      "v": 100
    },
    {
      "midi": 59,
      "hit": false,
      "t": 12000,
      "d": 200,
      "v": 100
    },
    {
      "midi": 69,
      "hit": false,
      "t": 12200,
      "d": 200,
      "v": 100
    },
    {
      "midi": 60,
      "hit": false,
      "t": 12200,
      "d": 200,
      "v": 100
    },
    {
      "midi": 71,
      "hit": false,
      "t": 12400,
      "d": 200,
      "v": 100
    },
    {
      "midi": 62,
      "hit": false,
      "t": 12400,
      "d": 200,
      "v": 100
    },
    {
      "midi": 72,
      "hit": false,
      "t": 12600,
      "d": 600,
      "v": 86
    },
    {
      "midi": 60,
      "hit": false,
      "t": 12600,
      "d": 1200,
      "v": 83
    },
    {
      "midi": 64,
      "hit": false,
      "t": 12600,
      "d": 1200,
      "v": 83
    },
    {
      "midi": 69,
      "hit": false,
      "t": 13200,
      "d": 600,
      "v": 71
    },
    {
      "midi": 67,
      "hit": false,
      "t": 13800,
      "d": 450,
      "v": 66
    },
    {
      "midi": 52,
      "hit": false,
      "t": 13800,
      "d": 600,
      "v": 73
    },
    {
      "midi": 60,
      "hit": false,
      "t": 13800,
      "d": 600,
      "v": 73
    },
    {
      "midi": 64,
      "hit": false,
      "t": 14250,
      "d": 150,
      "v": 71
    },
    {
      "midi": 64,
      "hit": false,
      "t": 14400,
      "d": 600,
      "v": 78
    },
    {
      "midi": 55,
      "hit": false,
      "t": 14400,
      "d": 1800,
      "v": 73
    },
    {
      "midi": 59,
      "hit": false,
      "t": 14400,
      "d": 1800,
      "v": 73
    },
    {
      "midi": 62,
      "hit": false,
      "t": 15000,
      "d": 600,
      "v": 73
    },
    {
      "midi": 67,
      "hit": false,
      "t": 15600,
      "d": 450,
      "v": 87
    },
    {
      "midi": 69,
      "hit": false,
      "t": 16050,
      "d": 150,
      "v": 89
    },
    {
      "midi": 69,
      "hit": false,
      "t": 16200,
      "d": 600,
      "v": 78
    },
    {
      "midi": 62,
      "hit": false,
      "t": 16200,
      "d": 1200,
      "v": 93
    },
    {
      "midi": 65,
      "hit": false,
      "t": 16200,
      "d": 1200,
      "v": 93
    },
    {
      "midi": 67,
      "hit": false,
      "t": 16800,
      "d": 600,
      "v": 71
    },
    {
      "midi": 69,
      "hit": false,
      "t": 17400,
      "d": 600,
      "v": 80
    },
    {
      "midi": 60,
      "hit": false,
      "t": 17400,
      "d": 600,
      "v": 72
    },
    {
      "midi": 64,
      "hit": false,
      "t": 17400,
      "d": 600,
      "v": 72
    },
    {
      "midi": 69,
      "hit": false,
      "t": 18000,
      "d": 1200,
      "v": 75
    },
    {
      "midi": 62,
      "hit": false,
      "t": 18000,
      "d": 1200,
      "v": 77
    },
    {
      "midi": 65,
      "hit": false,
      "t": 18000,
      "d": 1200,
      "v": 77
    },
    {
      "midi": 67,
      "hit": false,
      "t": 19200,
      "d": 450,
      "v": 75
    },
    {
      "midi": 64,
      "hit": false,
      "t": 19200,
      "d": 600,
      "v": 78
    },
    {
      "midi": 69,
      "hit": false,
      "t": 19650,
      "d": 150,
      "v": 79
    },
    {
      "midi": 69,
      "hit": false,
      "t": 19800,
      "d": 600,
      "v": 74
    },
    {
      "midi": 62,
      "hit": false,
      "t": 19800,
      "d": 1200,
      "v": 80
    },
    {
      "midi": 65,
      "hit": false,
      "t": 19800,
      "d": 1200,
      "v": 80
    },
    {
      "midi": 67,
      "hit": false,
      "t": 20400,
      "d": 600,
      "v": 75
    },
    {
      "midi": 69,
      "hit": false,
      "t": 21000,
      "d": 600,
      "v": 79
    },
    {
      "midi": 60,
      "hit": false,
      "t": 21000,
      "d": 600,
      "v": 75
    },
    {
      "midi": 64,
      "hit": false,
      "t": 21000,
      "d": 600,
      "v": 75
    },
    {
      "midi": 69,
      "hit": false,
      "t": 21600,
      "d": 1200,
      "v": 77
    },
    {
      "midi": 59,
      "hit": false,
      "t": 21600,
      "d": 1800,
      "v": 78
    },
    {
      "midi": 63,
      "hit": false,
      "t": 21600,
      "d": 1800,
      "v": 78
    },
    {
      "midi": 69,
      "hit": false,
      "t": 22800,
      "d": 600,
      "v": 74
    },
    {
      "midi": 67,
      "hit": false,
      "t": 23400,
      "d": 1200,
      "v": 69
    },
    {
      "midi": 60,
      "hit": false,
      "t": 23400,
      "d": 600,
      "v": 75
    },
    {
      "midi": 64,
      "hit": false,
      "t": 23400,
      "d": 600,
      "v": 75
    },
    {
      "midi": 62,
      "hit": false,
      "t": 24000,
      "d": 1200,
      "v": 80
    },
    {
      "midi": 65,
      "hit": false,
      "t": 24000,
      "d": 1200,
      "v": 80
    },
    {
      "midi": 67,
      "hit": false,
      "t": 24600,
      "d": 200,
      "v": 100
    },
    {
      "midi": 69,
      "hit": false,
      "t": 24800,
      "d": 200,
      "v": 100
    },
    {
      "midi": 71,
      "hit": false,
      "t": 25000,
      "d": 200,
      "v": 100
    },
    {
      "midi": 72,
      "hit": false,
      "t": 25200,
      "d": 600,
      "v": 86
    },
    {
      "midi": 57,
      "hit": false,
      "t": 25200,
      "d": 600,
      "v": 74
    },
    {
      "midi": 64,
      "hit": false,
      "t": 25200,
      "d": 600,
      "v": 74
    },
    {
      "midi": 71,
      "hit": false,
      "t": 25800,
      "d": 600,
      "v": 75
    },
    {
      "midi": 59,
      "hit": false,
      "t": 25800,
      "d": 600,
      "v": 73
    },
    {
      "midi": 62,
      "hit": false,
      "t": 25800,
      "d": 600,
      "v": 73
    },
    {
      "midi": 69,
      "hit": false,
      "t": 26400,
      "d": 600,
      "v": 73
    },
    {
      "midi": 60,
      "hit": false,
      "t": 26400,
      "d": 600,
      "v": 77
    },
    {
      "midi": 64,
      "hit": false,
      "t": 26400,
      "d": 600,
      "v": 77
    },
    {
      "midi": 67,
      "hit": false,
      "t": 27000,
      "d": 600,
      "v": 72
    },
    {
      "midi": 50,
      "hit": false,
      "t": 27000,
      "d": 600,
      "v": 70
    },
    {
      "midi": 59,
      "hit": false,
      "t": 27000,
      "d": 600,
      "v": 73
    },
    {
      "midi": 69,
      "hit": false,
      "t": 27600,
      "d": 900,
      "v": 87
    },
    {
      "midi": 50,
      "hit": false,
      "t": 27600,
      "d": 1200,
      "v": 70
    },
    {
      "midi": 60,
      "hit": false,
      "t": 27600,
      "d": 1200,
      "v": 78
    },
    {
      "midi": 67,
      "hit": false,
      "t": 28500,
      "d": 300,
      "v": 74
    },
    {
      "midi": 67,
      "hit": false,
      "t": 28800,
      "d": 600,
      "v": 77
    },
    {
      "midi": 55,
      "hit": false,
      "t": 28800,
      "d": 1800,
      "v": 77
    },
    {
      "midi": 59,
      "hit": false,
      "t": 28800,
      "d": 1800,
      "v": 77
    },
    {
      "midi": 67,
      "hit": false,
      "t": 30000,
      "d": 600,
      "v": 70
    },
    {
      "midi": 67,
      "hit": false,
      "t": 30600,
      "d": 1200,
      "v": 77
    },
    {
      "midi": 60,
      "hit": false,
      "t": 30600,
      "d": 600,
      "v": 83
    },
    {
      "midi": 63,
      "hit": false,
      "t": 30600,
      "d": 600,
      "v": 83
    },
    {
      "midi": 58,
      "hit": false,
      "t": 31200,
      "d": 600,
      "v": 74
    },
    {
      "midi": 62,
      "hit": false,
      "t": 31200,
      "d": 600,
      "v": 66
    },
    {
      "midi": 66,
      "hit": false,
      "t": 31800,
      "d": 450,
      "v": 72
    },
    {
      "midi": 57,
      "hit": false,
      "t": 31800,
      "d": 600,
      "v": 74
    },
    {
      "midi": 62,
      "hit": false,
      "t": 31800,
      "d": 600,
      "v": 66
    },
    {
      "midi": 65,
      "hit": false,
      "t": 32250,
      "d": 150,
      "v": 72
    },
    {
      "midi": 65,
      "hit": false,
      "t": 32400,
      "d": 600,
      "v": 75
    },
    {
      "midi": 58,
      "hit": false,
      "t": 32400,
      "d": 1200,
      "v": 74
    },
    {
      "midi": 62,
      "hit": false,
      "t": 32400,
      "d": 1200,
      "v": 74
    },
    {
      "midi": 58,
      "hit": false,
      "t": 33600,
      "d": 450,
      "v": 67
    },
    {
      "midi": 70,
      "hit": false,
      "t": 34050,
      "d": 150,
      "v": 93
    },
    {
      "midi": 70,
      "hit": false,
      "t": 34200,
      "d": 1200,
      "v": 79
    },
    {
      "midi": 63,
      "hit": false,
      "t": 34200,
      "d": 600,
      "v": 95
    },
    {
      "midi": 66,
      "hit": false,
      "t": 34200,
      "d": 600,
      "v": 95
    },
    {
      "midi": 61,
      "hit": false,
      "t": 34800,
      "d": 600,
      "v": 77
    },
    {
      "midi": 65,
      "hit": false,
      "t": 34800,
      "d": 600,
      "v": 74
    },
    {
      "midi": 69,
      "hit": false,
      "t": 35400,
      "d": 450,
      "v": 72
    },
    {
      "midi": 60,
      "hit": false,
      "t": 35400,
      "d": 600,
      "v": 76
    },
    {
      "midi": 65,
      "hit": false,
      "t": 35400,
      "d": 600,
      "v": 74
    },
    {
      "midi": 68,
      "hit": false,
      "t": 35850,
      "d": 150,
      "v": 71
    },
    {
      "midi": 68,
      "hit": false,
      "t": 36000,
      "d": 600,
      "v": 75
    },
    {
      "midi": 61,
      "hit": false,
      "t": 36000,
      "d": 1200,
      "v": 74
    },
    {
      "midi": 65,
      "hit": false,
      "t": 36000,
      "d": 1200,
      "v": 74
    },
    {
      "midi": 61,
      "hit": false,
      "t": 37200,
      "d": 450,
      "v": 67
    },
    {
      "midi": 73,
      "hit": false,
      "t": 37650,
      "d": 150,
      "v": 98
    },
    {
      "midi": 73,
      "hit": false,
      "t": 37800,
      "d": 1200,
      "v": 84
    },
    {
      "midi": 66,
      "hit": false,
      "t": 37800,
      "d": 600,
      "v": 95
    },
    {
      "midi": 69,
      "hit": false,
      "t": 37800,
      "d": 600,
      "v": 95
    },
    {
      "midi": 64,
      "hit": false,
      "t": 38400,
      "d": 600,
      "v": 78
    },
    {
      "midi": 68,
      "hit": false,
      "t": 38400,
      "d": 600,
      "v": 66
    },
    {
      "midi": 72,
      "hit": false,
      "t": 39000,
      "d": 450,
      "v": 79
    },
    {
      "midi": 63,
      "hit": false,
      "t": 39000,
      "d": 600,
      "v": 73
    },
    {
      "midi": 68,
      "hit": false,
      "t": 39000,
      "d": 600,
      "v": 66
    },
    {
      "midi": 71,
      "hit": false,
      "t": 39450,
      "d": 150,
      "v": 76
    },
    {
      "midi": 71,
      "hit": false,
      "t": 39600,
      "d": 1200,
      "v": 77
    },
    {
      "midi": 62,
      "hit": false,
      "t": 39600,
      "d": 600,
      "v": 73
    },
    {
      "midi": 67,
      "hit": false,
      "t": 39600,
      "d": 600,
      "v": 73
    },
    {
      "midi": 61,
      "hit": false,
      "t": 40200,
      "d": 600,
      "v": 70
    },
    {
      "midi": 65,
      "hit": false,
      "t": 40200,
      "d": 600,
      "v": 70
    },
    {
      "midi": 72,
      "hit": false,
      "t": 40800,
      "d": 600,
      "v": 77
    },
    {
      "midi": 60,
      "hit": false,
      "t": 40800,
      "d": 600,
      "v": 73
    },
    {
      "midi": 64,
      "hit": false,
      "t": 40800,
      "d": 600,
      "v": 73
    },
    {
      "midi": 70,
      "hit": false,
      "t": 41400,
      "d": 600,
      "v": 74
    },
    {
      "midi": 65,
      "hit": false,
      "t": 41400,
      "d": 1200,
      "v": 83
    },
    {
      "midi": 68,
      "hit": false,
      "t": 42000,
      "d": 600,
      "v": 71
    },
    {
      "midi": 63,
      "hit": false,
      "t": 42600,
      "d": 300,
      "v": 74
    },
    {
      "midi": 56,
      "hit": false,
      "t": 42600,
      "d": 600,
      "v": 71
    },
    {
      "midi": 60,
      "hit": false,
      "t": 42600,
      "d": 600,
      "v": 71
    },
    {
      "midi": 65,
      "hit": false,
      "t": 42900,
      "d": 300,
      "v": 82
    },
    {
      "midi": 67,
      "hit": false,
      "t": 43200,
      "d": 600,
      "v": 85
    },
    {
      "midi": 55,
      "hit": false,
      "t": 43200,
      "d": 1200,
      "v": 75
    },
    {
      "midi": 59,
      "hit": false,
      "t": 43200,
      "d": 1200,
      "v": 75
    },
    {
      "midi": 55,
      "hit": false,
      "t": 44400,
      "d": 450,
      "v": 65
    },
    {
      "midi": 67,
      "hit": false,
      "t": 44850,
      "d": 150,
      "v": 96
    },
    {
      "midi": 67,
      "hit": false,
      "t": 45000,
      "d": 1200,
      "v": 80
    },
    {
      "midi": 60,
      "hit": false,
      "t": 45000,
      "d": 600,
      "v": 76
    },
    {
      "midi": 63,
      "hit": false,
      "t": 45000,
      "d": 600,
      "v": 76
    },
    {
      "midi": 58,
      "hit": false,
      "t": 45600,
      "d": 600,
      "v": 73
    },
    {
      "midi": 62,
      "hit": false,
      "t": 45600,
      "d": 600,
      "v": 67
    },
    {
      "midi": 66,
      "hit": false,
      "t": 46200,
      "d": 450,
      "v": 75
    },
    {
      "midi": 57,
      "hit": false,
      "t": 46200,
      "d": 600,
      "v": 74
    },
    {
      "midi": 62,
      "hit": false,
      "t": 46200,
      "d": 600,
      "v": 67
    },
    {
      "midi": 65,
      "hit": false,
      "t": 46650,
      "d": 150,
      "v": 71
    },
    {
      "midi": 65,
      "hit": false,
      "t": 46800,
      "d": 600,
      "v": 75
    },
    {
      "midi": 58,
      "hit": false,
      "t": 46800,
      "d": 1200,
      "v": 74
    },
    {
      "midi": 62,
      "hit": false,
      "t": 46800,
      "d": 1200,
      "v": 74
    },
    {
      "midi": 58,
      "hit": false,
      "t": 48000,
      "d": 450,
      "v": 71
    },
    {
      "midi": 70,
      "hit": false,
      "t": 48450,
      "d": 150,
      "v": 93
    },
    {
      "midi": 70,
      "hit": false,
      "t": 48600,
      "d": 1200,
      "v": 83
    },
    {
      "midi": 63,
      "hit": false,
      "t": 48600,
      "d": 600,
      "v": 97
    },
    {
      "midi": 66,
      "hit": false,
      "t": 48600,
      "d": 600,
      "v": 97
    },
    {
      "midi": 61,
      "hit": false,
      "t": 49200,
      "d": 600,
      "v": 77
    },
    {
      "midi": 65,
      "hit": false,
      "t": 49200,
      "d": 600,
      "v": 65
    },
    {
      "midi": 69,
      "hit": false,
      "t": 49800,
      "d": 450,
      "v": 72
    },
    {
      "midi": 60,
      "hit": false,
      "t": 49800,
      "d": 600,
      "v": 74
    },
    {
      "midi": 65,
      "hit": false,
      "t": 49800,
      "d": 600,
      "v": 65
    },
    {
      "midi": 68,
      "hit": false,
      "t": 50250,
      "d": 150,
      "v": 70
    },
    {
      "midi": 68,
      "hit": false,
      "t": 50400,
      "d": 600,
      "v": 74
    },
    {
      "midi": 61,
      "hit": false,
      "t": 50400,
      "d": 1200,
      "v": 79
    },
    {
      "midi": 65,
      "hit": false,
      "t": 50400,
      "d": 1200,
      "v": 79
    },
    {
      "midi": 61,
      "hit": false,
      "t": 51600,
      "d": 450,
      "v": 69
    },
    {
      "midi": 73,
      "hit": false,
      "t": 52050,
      "d": 150,
      "v": 93
    },
    {
      "midi": 73,
      "hit": false,
      "t": 52200,
      "d": 1200,
      "v": 85
    },
    {
      "midi": 66,
      "hit": false,
      "t": 52200,
      "d": 600,
      "v": 93
    },
    {
      "midi": 69,
      "hit": false,
      "t": 52200,
      "d": 600,
      "v": 93
    },
    {
      "midi": 64,
      "hit": false,
      "t": 52800,
      "d": 600,
      "v": 75
    },
    {
      "midi": 68,
      "hit": false,
      "t": 52800,
      "d": 600,
      "v": 73
    },
    {
      "midi": 72,
      "hit": false,
      "t": 53400,
      "d": 450,
      "v": 72
    },
    {
      "midi": 63,
      "hit": false,
      "t": 53400,
      "d": 600,
      "v": 75
    },
    {
      "midi": 68,
      "hit": false,
      "t": 53400,
      "d": 600,
      "v": 73
    },
    {
      "midi": 71,
      "hit": false,
      "t": 53850,
      "d": 150,
      "v": 70
    },
    {
      "midi": 71,
      "hit": false,
      "t": 54000,
      "d": 1200,
      "v": 74
    },
    {
      "midi": 62,
      "hit": false,
      "t": 54000,
      "d": 600,
      "v": 75
    },
    {
      "midi": 67,
      "hit": false,
      "t": 54000,
      "d": 600,
      "v": 75
    },
    {
      "midi": 61,
      "hit": false,
      "t": 54600,
      "d": 600,
      "v": 73
    },
    {
      "midi": 65,
      "hit": false,
      "t": 54600,
      "d": 600,
      "v": 73
    },
    {
      "midi": 72,
      "hit": false,
      "t": 55200,
      "d": 600,
      "v": 78
    },
    {
      "midi": 60,
      "hit": false,
      "t": 55200,
      "d": 600,
      "v": 68
    },
    {
      "midi": 64,
      "hit": false,
      "t": 55200,
      "d": 600,
      "v": 68
    },
    {
      "midi": 71,
      "hit": false,
      "t": 55800,
      "d": 600,
      "v": 71
    },
    {
      "midi": 60,
      "hit": false,
      "t": 55800,
      "d": 1200,
      "v": 83
    },
    {
      "midi": 65,
      "hit": false,
      "t": 55800,
      "d": 1200,
      "v": 83
    },
    {
      "midi": 69,
      "hit": false,
      "t": 56400,
      "d": 600,
      "v": 71
    },
    {
      "midi": 67,
      "hit": false,
      "t": 57000,
      "d": 300,
      "v": 70
    },
    {
      "midi": 57,
      "hit": false,
      "t": 57000,
      "d": 600,
      "v": 71
    },
    {
      "midi": 60,
      "hit": false,
      "t": 57000,
      "d": 600,
      "v": 71
    },
    {
      "midi": 65,
      "hit": false,
      "t": 57300,
      "d": 300,
      "v": 75
    },
    {
      "midi": 64,
      "hit": false,
      "t": 57600,
      "d": 600,
      "v": 73
    },
    {
      "midi": 55,
      "hit": false,
      "t": 57600,
      "d": 1200,
      "v": 75
    },
    {
      "midi": 59,
      "hit": false,
      "t": 57600,
      "d": 1200,
      "v": 75
    },
    {
      "midi": 62,
      "hit": false,
      "t": 58200,
      "d": 600,
      "v": 70
    },
    {
      "midi": 79,
      "hit": false,
      "t": 58800,
      "d": 600,
      "v": 68
    },
    {
      "midi": 55,
      "hit": false,
      "t": 58800,
      "d": 600,
      "v": 91
    },
    {
      "midi": 65,
      "hit": false,
      "t": 58800,
      "d": 600,
      "v": 91
    },
    {
      "midi": 84,
      "hit": false,
      "t": 59400,
      "d": 1200,
      "v": 83
    },
    {
      "midi": 60,
      "hit": false,
      "t": 59400,
      "d": 1800,
      "v": 80
    },
    {
      "midi": 64,
      "hit": false,
      "t": 59400,
      "d": 1800,
      "v": 80
    },
    {
      "midi": 79,
      "hit": false,
      "t": 60600,
      "d": 600,
      "v": 68
    },
    {
      "midi": 76,
      "hit": false,
      "t": 61200,
      "d": 1200,
      "v": 69
    },
    {
      "midi": 57,
      "hit": false,
      "t": 61200,
      "d": 1800,
      "v": 76
    },
    {
      "midi": 60,
      "hit": false,
      "t": 61200,
      "d": 1800,
      "v": 76
    },
    {
      "midi": 76,
      "hit": false,
      "t": 62400,
      "d": 200,
      "v": 100
    },
    {
      "midi": 77,
      "hit": false,
      "t": 62600,
      "d": 200,
      "v": 100
    },
    {
      "midi": 79,
      "hit": false,
      "t": 62800,
      "d": 200,
      "v": 100
    },
    {
      "midi": 79,
      "hit": false,
      "t": 63000,
      "d": 600,
      "v": 82
    },
    {
      "midi": 52,
      "hit": false,
      "t": 63000,
      "d": 600,
      "v": 68
    },
    {
      "midi": 60,
      "hit": false,
      "t": 63000,
      "d": 600,
      "v": 77
    },
    {
      "midi": 81,
      "hit": false,
      "t": 63600,
      "d": 600,
      "v": 84
    },
    {
      "midi": 53,
      "hit": false,
      "t": 63600,
      "d": 600,
      "v": 78
    },
    {
      "midi": 60,
      "hit": false,
      "t": 63600,
      "d": 600,
      "v": 77
    },
    {
      "midi": 79,
      "hit": false,
      "t": 64200,
      "d": 600,
      "v": 70
    },
    {
      "midi": 52,
      "hit": false,
      "t": 64200,
      "d": 600,
      "v": 70
    },
    {
      "midi": 60,
      "hit": false,
      "t": 64200,
      "d": 600,
      "v": 77
    },
    {
      "midi": 79,
      "hit": false,
      "t": 64800,
      "d": 600,
      "v": 77
    },
    {
      "midi": 50,
      "hit": false,
      "t": 64800,
      "d": 1800,
      "v": 74
    },
    {
      "midi": 57,
      "hit": false,
      "t": 64800,
      "d": 1800,
      "v": 74
    },
    {
      "midi": 77,
      "hit": false,
      "t": 65400,
      "d": 600,
      "v": 71
    },
    {
      "midi": 81,
      "hit": false,
      "t": 66000,
      "d": 600,
      "v": 81
    },
    {
      "midi": 86,
      "hit": false,
      "t": 66600,
      "d": 1200,
      "v": 89
    },
    {
      "midi": 62,
      "hit": false,
      "t": 66600,
      "d": 1200,
      "v": 96
    },
    {
      "midi": 66,
      "hit": false,
      "t": 66600,
      "d": 1200,
      "v": 96
    },
    {
      "midi": 84,
      "hit": false,
      "t": 67800,
      "d": 600,
      "v": 73
    },
    {
      "midi": 50,
      "hit": false,
      "t": 67800,
      "d": 600,
      "v": 67
    },
    {
      "midi": 83,
      "hit": false,
      "t": 68400,
      "d": 1200,
      "v": 73
    },
    {
      "midi": 53,
      "hit": false,
      "t": 68400,
      "d": 1200,
      "v": 83
    },
    {
      "midi": 62,
      "hit": false,
      "t": 68400,
      "d": 1200,
      "v": 83
    },
    {
      "midi": 79,
      "hit": false,
      "t": 69600,
      "d": 200,
      "v": 100
    },
    {
      "midi": 59,
      "hit": false,
      "t": 69600,
      "d": 200,
      "v": 100
    },
    {
      "midi": 81,
      "hit": false,
      "t": 69800,
      "d": 200,
      "v": 100
    },
    {
      "midi": 60,
      "hit": false,
      "t": 69800,
      "d": 200,
      "v": 100
    },
    {
      "midi": 83,
      "hit": false,
      "t": 70000,
      "d": 200,
      "v": 100
    },
    {
      "midi": 62,
      "hit": false,
      "t": 70000,
      "d": 200,
      "v": 100
    },
    {
      "midi": 84,
      "hit": false,
      "t": 70200,
      "d": 600,
      "v": 82
    },
    {
      "midi": 60,
      "hit": false,
      "t": 70200,
      "d": 1200,
      "v": 82
    },
    {
      "midi": 64,
      "hit": false,
      "t": 70200,
      "d": 1200,
      "v": 82
    },
    {
      "midi": 81,
      "hit": false,
      "t": 70800,
      "d": 600,
      "v": 67
    },
    {
      "midi": 79,
      "hit": false,
      "t": 71400,
      "d": 450,
      "v": 70
    },
    {
      "midi": 52,
      "hit": false,
      "t": 71400,
      "d": 600,
      "v": 74
    },
    {
      "midi": 60,
      "hit": false,
      "t": 71400,
      "d": 600,
      "v": 74
    },
    {
      "midi": 76,
      "hit": false,
      "t": 71850,
      "d": 150,
      "v": 70
    },
    {
      "midi": 76,
      "hit": false,
      "t": 72000,
      "d": 600,
      "v": 76
    },
    {
      "midi": 55,
      "hit": false,
      "t": 72000,
      "d": 1800,
      "v": 77
    },
    {
      "midi": 59,
      "hit": false,
      "t": 72000,
      "d": 1800,
      "v": 77
    },
    {
      "midi": 74,
      "hit": false,
      "t": 72600,
      "d": 600,
      "v": 70
    },
    {
      "midi": 79,
      "hit": false,
      "t": 73200,
      "d": 450,
      "v": 83
    },
    {
      "midi": 81,
      "hit": false,
      "t": 73650,
      "d": 150,
      "v": 83
    },
    {
      "midi": 81,
      "hit": false,
      "t": 73800,
      "d": 600,
      "v": 77
    },
    {
      "midi": 62,
      "hit": false,
      "t": 73800,
      "d": 1200,
      "v": 90
    },
    {
      "midi": 65,
      "hit": false,
      "t": 73800,
      "d": 1200,
      "v": 90
    },
    {
      "midi": 79,
      "hit": false,
      "t": 74400,
      "d": 600,
      "v": 68
    },
    {
      "midi": 81,
      "hit": false,
      "t": 75000,
      "d": 600,
      "v": 84
    },
    {
      "midi": 60,
      "hit": false,
      "t": 75000,
      "d": 600,
      "v": 76
    },
    {
      "midi": 64,
      "hit": false,
      "t": 75000,
      "d": 600,
      "v": 76
    },
    {
      "midi": 81,
      "hit": false,
      "t": 75600,
      "d": 1200,
      "v": 78
    },
    {
      "midi": 62,
      "hit": false,
      "t": 75600,
      "d": 1200,
      "v": 82
    },
    {
      "midi": 65,
      "hit": false,
      "t": 75600,
      "d": 1200,
      "v": 82
    },
    {
      "midi": 79,
      "hit": false,
      "t": 76800,
      "d": 450,
      "v": 72
    },
    {
      "midi": 64,
      "hit": false,
      "t": 76800,
      "d": 600,
      "v": 79
    },
    {
      "midi": 81,
      "hit": false,
      "t": 77250,
      "d": 150,
      "v": 83
    },
    {
      "midi": 81,
      "hit": false,
      "t": 77400,
      "d": 600,
      "v": 79
    },
    {
      "midi": 62,
      "hit": false,
      "t": 77400,
      "d": 1200,
      "v": 82
    },
    {
      "midi": 65,
      "hit": false,
      "t": 77400,
      "d": 1200,
      "v": 82
    },
    {
      "midi": 79,
      "hit": false,
      "t": 78000,
      "d": 600,
      "v": 73
    },
    {
      "midi": 81,
      "hit": false,
      "t": 78600,
      "d": 600,
      "v": 81
    },
    {
      "midi": 60,
      "hit": false,
      "t": 78600,
      "d": 600,
      "v": 74
    },
    {
      "midi": 64,
      "hit": false,
      "t": 78600,
      "d": 600,
      "v": 74
    },
    {
      "midi": 81,
      "hit": false,
      "t": 79200,
      "d": 1200,
      "v": 76
    },
    {
      "midi": 59,
      "hit": false,
      "t": 79200,
      "d": 1800,
      "v": 76
    },
    {
      "midi": 63,
      "hit": false,
      "t": 79200,
      "d": 1800,
      "v": 76
    },
    {
      "midi": 81,
      "hit": false,
      "t": 80400,
      "d": 600,
      "v": 77
    },
    {
      "midi": 79,
      "hit": false,
      "t": 81000,
      "d": 1200,
      "v": 74
    },
    {
      "midi": 60,
      "hit": false,
      "t": 81000,
      "d": 600,
      "v": 83
    },
    {
      "midi": 64,
      "hit": false,
      "t": 81000,
      "d": 600,
      "v": 83
    },
    {
      "midi": 62,
      "hit": false,
      "t": 81600,
      "d": 1200,
      "v": 78
    },
    {
      "midi": 65,
      "hit": false,
      "t": 81600,
      "d": 1200,
      "v": 78
    },
    {
      "midi": 79,
      "hit": false,
      "t": 82200,
      "d": 200,
      "v": 100
    },
    {
      "midi": 81,
      "hit": false,
      "t": 82400,
      "d": 200,
      "v": 100
    },
    {
      "midi": 83,
      "hit": false,
      "t": 82600,
      "d": 200,
      "v": 100
    },
    {
      "midi": 84,
      "hit": false,
      "t": 82800,
      "d": 600,
      "v": 80
    },
    {
      "midi": 57,
      "hit": false,
      "t": 82800,
      "d": 600,
      "v": 73
    },
    {
      "midi": 64,
      "hit": false,
      "t": 82800,
      "d": 600,
      "v": 73
    },
    {
      "midi": 83,
      "hit": false,
      "t": 83400,
      "d": 600,
      "v": 72
    },
    {
      "midi": 55,
      "hit": false,
      "t": 83400,
      "d": 600,
      "v": 69
    },
    {
      "midi": 64,
      "hit": false,
      "t": 83400,
      "d": 600,
      "v": 73
    },
    {
      "midi": 81,
      "hit": false,
      "t": 84000,
      "d": 600,
      "v": 68
    },
    {
      "midi": 53,
      "hit": false,
      "t": 84000,
      "d": 600,
      "v": 69
    },
    {
      "midi": 60,
      "hit": false,
      "t": 84000,
      "d": 600,
      "v": 69
    },
    {
      "midi": 79,
      "hit": false,
      "t": 84600,
      "d": 600,
      "v": 72
    },
    {
      "midi": 52,
      "hit": false,
      "t": 84600,
      "d": 600,
      "v": 73
    },
    {
      "midi": 60,
      "hit": false,
      "t": 84600,
      "d": 600,
      "v": 72
    },
    {
      "midi": 77,
      "hit": false,
      "t": 85200,
      "d": 600,
      "v": 70
    },
    {
      "midi": 53,
      "hit": false,
      "t": 85200,
      "d": 600,
      "v": 81
    },
    {
      "midi": 60,
      "hit": false,
      "t": 85200,
      "d": 600,
      "v": 72
    },
    {
      "midi": 76,
      "hit": false,
      "t": 85800,
      "d": 600,
      "v": 69
    },
    {
      "midi": 54,
      "hit": false,
      "t": 85800,
      "d": 600,
      "v": 83
    },
    {
      "midi": 60,
      "hit": false,
      "t": 85800,
      "d": 600,
      "v": 72
    },
    {
      "midi": 74,
      "hit": false,
      "t": 86400,
      "d": 1200,
      "v": 69
    },
    {
      "midi": 55,
      "hit": false,
      "t": 86400,
      "d": 600,
      "v": 76
    },
    {
      "midi": 60,
      "hit": false,
      "t": 86400,
      "d": 600,
      "v": 73
    },
    {
      "midi": 55,
      "hit": false,
      "t": 87000,
      "d": 300,
      "v": 76
    },
    {
      "midi": 59,
      "hit": false,
      "t": 87000,
      "d": 300,
      "v": 75
    },
    {
      "midi": 55,
      "hit": false,
      "t": 87300,
      "d": 300,
      "v": 76
    },
    {
      "midi": 57,
      "hit": false,
      "t": 87300,
      "d": 300,
      "v": 73
    },
    {
      "midi": 74,
      "hit": false,
      "t": 87600,
      "d": 600,
      "v": 79
    },
    {
      "midi": 55,
      "hit": false,
      "t": 87600,
      "d": 600,
      "v": 79
    },
    {
      "midi": 59,
      "hit": false,
      "t": 87600,
      "d": 600,
      "v": 77
    },
    {
      "midi": 72,
      "hit": false,
      "t": 88200,
      "d": 1800,
      "v": 71
    },
    {
      "midi": 60,
      "hit": false,
      "t": 88200,
      "d": 1800,
      "v": 87
    },
    {
      "midi": 64,
      "hit": false,
      "t": 88200,
      "d": 1800,
      "v": 87
    }
  ]
}