{
  "jsonPath": "Unknown/Unknown/John Travolta  Olivia Newton-John/we-go-together.json",
  "path": "Unknown\\Unknown\\John Travolta  Olivia Newton-John\\We Go Together.mid",
  "name": "We Go Together",
  "difficulty": "Advanced",
  "bpm": 207.99966720053249,
  "notes": [
    {
      "midi": 44,
      "hit": false,
      "t": 0,
      "d": 432.693,
      "v": 100
    },
    {
      "midi": 63,
      "hit": false,
      "t": 288.462,
      "d": 144.231,
      "v": 100
    },
    {
      "midi": 68,
      "hit": false,
      "t": 288.462,
      "d": 144.231,
      "v": 100
    },
    {
      "midi": 72,
      "hit": false,
      "t": 288.462,
      "d": 144.231,
      "v": 100
    },
    {
      "midi": 63,
      "hit": false,
      "t": 432.693,
      "d": 144.231,
      "v": 100
    },
    {
      "midi": 68,
      "hit": false,
      "t": 432.693,
      "d": 144.231,
      "v": 100
    },
    {
      "midi": 72,
      "hit": false,
      "t": 432.693,
      "d": 144.231,
      "v": 100
    },
    {
      "midi": 48,
      "hit": false,
      "t": 432.693,
      "d": 432.693,
      "v": 100
    },
    {
      "midi": 51,
      "hit": false,
      "t": 865.386,
      "d": 288.462,
      "v": 100
    },
    {
      "midi": 63,
      "hit": false,
      "t": 865.386,
      "d": 288.462,
      "v": 100
    },
    {
      "midi": 67,
      "hit": false,
      "t": 865.386,
      "d": 288.462,
      "v": 100
    },
    {
      "midi": 70,
      "hit": false,
      "t": 865.386,
      "d": 288.462,
      "v": 100
    },
    {
      "midi": 41,
      "hit": false,
      "t": 1153.848,
      "d": 432.693,
      "v": 100
    },
    {
      "midi": 60,
      "hit": false,
      "t": 1442.31,
      "d": 144.231,
      "v": 100
    },
    {
      "midi": 65,
      "hit": false,
      "t": 1442.31,
      "d": 144.231,
      "v": 100
    },
    {
      "midi": 68,
      "hit": false,
      "t": 1442.31,
      "d": 144.231,
      "v": 100
    },
    {
      "midi": 60,
      "hit": false,
      "t": 1586.541,
      "d": 144.231,
      "v": 100
    },
    {
      "midi": 65,
      "hit": false,
      "t": 1586.541,
      "d": 144.231,
      "v": 100
    },
    {
      "midi": 68,
      "hit": false,
      "t": 1586.541,
      "d": 144.231,
      "v": 100
    },
    {
      "midi": 44,
      "hit": false,
      "t": 1586.541,
      "d": 432.693,
      "v": 100
    },
    {
      "midi": 48,
      "hit": false,
      "t": 2019.234,
      "d": 288.462,
      "v": 100
    },
    {
      "midi": 58,
      "hit": false,
      "t": 2019.234,
      "d": 288.462,
      "v": 100
    },
    {
      "midi": 63,
      "hit": false,
      "t": 2019.234,
      "d": 288.462,
      "v": 100
    },
    {
      "midi": 67,
      "hit": false,
      "t": 2019.234,
      "d": 288.462,
      "v": 100
    },
    {
      "midi": 37,
      "hit": false,
      "t": 2307.696,
      "d": 432.6930000000002,
      "v": 100
    },
    {
      "midi": 56,
      "hit": false,
      "t": 2596.158,
      "d": 144.23100000000022,
      "v": 100
    },
    {
      "midi": 61,
      "hit": false,
      "t": 2596.158,
      "d": 144.23100000000022,
      "v": 100
    },
    {
      "midi": 65,
      "hit": false,
      "t": 2596.158,
      "d": 144.23100000000022,
      "v": 100
    },
    {
      "midi": 56,
      "hit": false,
      "t": 2740.389,
      "d": 144.23099999999977,
      "v": 100
    },
    {
      "midi": 61,
      "hit": false,
      "t": 2740.389,
      "d": 144.23099999999977,
      "v": 100
    },
    {
      "midi": 65,
      "hit": false,
      "t": 2740.389,
      "d": 144.23099999999977,
      "v": 100
    },
    {
      "midi": 41,
      "hit": false,
      "t": 2740.389,
      "d": 432.69299999999976,
      "v": 100
    },
    {
      "midi": 44,
      "hit": false,
      "t": 3173.082,
      "d": 288.462,
      "v": 100
    },
    {
      "midi": 61,
      "hit": false,
      "t": 3173.082,
      "d": 288.462,
      "v": 100
    },
    {
      "midi": 65,
      "hit": false,
      "t": 3173.082,
      "d": 288.462,
      "v": 100
    },
    {
      "midi": 68,
      "hit": false,
      "t": 3173.082,
      "d": 288.462,
      "v": 100
    },
    {
      "midi": 39,
      "hit": false,
      "t": 3461.544,
      "d": 432.6930000000002,
      "v": 100
    },
    {
      "midi": 58,
      "hit": false,
      "t": 3461.544,
      "d": 432.6930000000002,
      "v": 100
    },
    {
      "midi": 63,
      "hit": false,
      "t": 3461.544,
      "d": 432.6930000000002,
      "v": 100
    },
    {
      "midi": 67,
      "hit": false,
      "t": 3461.544,
      "d": 432.6930000000002,
      "v": 100
    },
    {
      "midi": 41,
      "hit": false,
      "t": 3894.237,
      "d": 432.6930000000002,
      "v": 100
    },
    {
      "midi": 75,
      "hit": false,
      "t": 3894.237,
      "d": 718.75115,
      "v": 100
    },
    {
      "midi": 87,
      "hit": false,
      "t": 3894.237,
      "d": 718.75115,
      "v": 100
    },
    {
      "midi": 39,
      "hit": false,
      "t": 4326.93,
      "d": 288.46199999999953,
      "v": 100
    },
    {
      "midi": 46,
      "hit": false,
      "t": 4615.392,
      "d": 432.6929999999993,
      "v": 100
    },
    {
      "midi": 65,
      "hit": false,
      "t": 4903.853999999999,
      "d": 144.23099999999977,
      "v": 100
    },
    {
      "midi": 70,
      "hit": false,
      "t": 4903.853999999999,
      "d": 144.23099999999977,
      "v": 100
    },
    {
      "midi": 74,
      "hit": false,
      "t": 4903.853999999999,
      "d": 144.23099999999977,
      "v": 100
    },
    {
      "midi": 65,
      "hit": false,
      "t": 5048.084999999999,
      "d": 144.23099999999977,
      "v": 100
    },
    {
      "midi": 70,
      "hit": false,
      "t": 5048.084999999999,
      "d": 144.23099999999977,
      "v": 100
    },
    {
      "midi": 74,
      "hit": false,
      "t": 5048.084999999999,
      "d": 144.23099999999977,
      "v": 100
    },
    {
      "midi": 50,
      "hit": false,
      "t": 5048.084999999999,
      "d": 432.6929999999993,
      "v": 100
    },
    {
      "midi": 53,
      "hit": false,
      "t": 5480.777999999998,
      "d": 288.46199999999953,
      "v": 100
    },
    {
      "midi": 65,
      "hit": false,
      "t": 5480.777999999998,
      "d": 288.46199999999953,
      "v": 100
    },
    {
      "midi": 69,
      "hit": false,
      "t": 5480.777999999998,
      "d": 288.46199999999953,
      "v": 100
    },
    {
      "midi": 72,
      "hit": false,
      "t": 5480.777999999998,
      "d": 288.46199999999953,
      "v": 100
    },
    {
      "midi": 43,
      "hit": false,
      "t": 5769.239999999998,
      "d": 432.6929999999993,
      "v": 100
    },
    {
      "midi": 62,
      "hit": false,
      "t": 6057.7019999999975,
      "d": 144.23099999999977,
      "v": 100
    },
    {
      "midi": 67,
      "hit": false,
      "t": 6057.7019999999975,
      "d": 144.23099999999977,
      "v": 100
    },
    {
      "midi": 70,
      "hit": false,
      "t": 6057.7019999999975,
      "d": 144.23099999999977,
      "v": 100
    },
    {
      "midi": 62,
      "hit": false,
      "t": 6201.932999999997,
      "d": 144.23099999999977,
      "v": 100
    },
    {
      "midi": 67,
      "hit": false,
      "t": 6201.932999999997,
      "d": 144.23099999999977,
      "v": 100
    },
    {
      "midi": 70,
      "hit": false,
      "t": 6201.932999999997,
      "d": 144.23099999999977,
      "v": 100
    },
    {
      "midi": 46,
      "hit": false,
      "t": 6201.932999999997,
      "d": 432.6929999999993,
      "v": 100
    },
    {
      "midi": 50,
      "hit": false,
      "t": 6634.625999999997,
      "d": 288.46199999999953,
      "v": 100
    },
    {
      "midi": 60,
      "hit": false,
      "t": 6634.625999999997,
      "d": 288.46199999999953,
      "v": 100
    },
    {
      "midi": 65,
      "hit": false,
      "t": 6634.625999999997,
      "d": 288.46199999999953,
      "v": 100
    },
    {
      "midi": 69,
      "hit": false,
      "t": 6634.625999999997,
      "d": 288.46199999999953,
      "v": 100
    },
    {
      "midi": 39,
      "hit": false,
      "t": 6923.087999999996,
      "d": 432.6929999999993,
      "v": 100
    },
    {
      "midi": 58,
      "hit": false,
      "t": 7211.549999999996,
      "d": 144.23099999999977,
      "v": 100
    },
    {
      "midi": 63,
      "hit": false,
      "t": 7211.549999999996,
      "d": 144.23099999999977,
      "v": 100
    },
    {
      "midi": 67,
      "hit": false,
      "t": 7211.549999999996,
      "d": 144.23099999999977,
      "v": 100
    },
    {
      "midi": 58,
      "hit": false,
      "t": 7355.780999999995,
      "d": 144.23099999999977,
      "v": 100
    },
    {
      "midi": 63,
      "hit": false,
      "t": 7355.780999999995,
      "d": 144.23099999999977,
      "v": 100
    },
    {
      "midi": 67,
      "hit": false,
      "t": 7355.780999999995,
      "d": 144.23099999999977,
      "v": 100
    },
    {
      "midi": 43,
      "hit": false,
      "t": 7355.780999999995,
      "d": 432.6929999999993,
      "v": 100
    },
    {
      "midi": 46,
      "hit": false,
      "t": 7788.473999999995,
      "d": 288.46199999999953,
      "v": 100
    },
    {
      "midi": 63,
      "hit": false,
      "t": 7788.473999999995,
      "d": 288.46199999999953,
      "v": 100
    },
    {
      "midi": 67,
      "hit": false,
      "t": 7788.473999999995,
      "d": 288.46199999999953,
      "v": 100
    },
    {
      "midi": 70,
      "hit": false,
      "t": 7788.473999999995,
      "d": 288.46199999999953,
      "v": 100
    },
    {
      "midi": 60,
      "hit": false,
      "t": 8076.935999999994,
      "d": 288.46199999999953,
      "v": 100
    },
    {
      "midi": 65,
      "hit": false,
      "t": 8076.935999999994,
      "d": 288.46199999999953,
      "v": 100
    },
    {
      "midi": 69,
      "hit": false,
      "t": 8076.935999999994,
      "d": 288.46199999999953,
      "v": 100
    },
    {
      "midi": 41,
      "hit": false,
      "t": 8076.935999999994,
      "d": 432.6929999999993,
      "v": 100
    },
    {
      "midi": 110,
      "hit": false,
      "t": 8365.397999999994,
      "d": 36.05774999999994,
      "v": 100
    },
    {
      "midi": 108,
      "hit": false,
      "t": 8401.455749999994,
      "d": 36.05774999999994,
      "v": 100
    },
    {
      "midi": 106,
      "hit": false,
      "t": 8437.513499999994,
      "d": 36.05774999999994,
      "v": 100
    },
    {
      "midi": 105,
      "hit": false,
      "t": 8473.571249999994,
      "d": 36.05774999999994,
      "v": 100
    },
    {
      "midi": 105,
      "hit": false,
      "t": 8509.628999999994,
      "d": 36.05774999999994,
      "v": 100
    },
    {
      "midi": 43,
      "hit": false,
      "t": 8509.628999999994,
      "d": 432.6929999999993,
      "v": 100
    },
    {
      "midi": 101,
      "hit": false,
      "t": 8545.686749999993,
      "d": 36.05774999999994,
      "v": 100
    },
    {
      "midi": 99,
      "hit": false,
      "t": 8581.744499999993,
      "d": 36.05774999999994,
      "v": 100
    },
    {
      "midi": 98,
      "hit": false,
      "t": 8617.802249999993,
      "d": 36.05774999999994,
      "v": 100
    },
    {
      "midi": 96,
      "hit": false,
      "t": 8653.859999999993,
      "d": 36.05774999999994,
      "v": 100
    },
    {
      "midi": 94,
      "hit": false,
      "t": 8689.917749999993,
      "d": 36.05774999999994,
      "v": 100
    },
    {
      "midi": 93,
      "hit": false,
      "t": 8725.975499999993,
      "d": 36.05774999999994,
      "v": 100
    },
    {
      "midi": 93,
      "hit": false,
      "t": 8762.033249999993,
      "d": 36.05774999999994,
      "v": 100
    },
    {
      "midi": 89,
      "hit": false,
      "t": 8798.090999999993,
      "d": 36.05774999999994,
      "v": 100
    },
    {
      "midi": 87,
      "hit": false,
      "t": 8834.148749999993,
      "d": 36.05774999999994,
      "v": 100
    },
    {
      "midi": 86,
      "hit": false,
      "t": 8870.206499999993,
      "d": 36.05774999999994,
      "v": 100
    },
    {
      "midi": 84,
      "hit": false,
      "t": 8906.264249999993,
      "d": 36.05774999999994,
      "v": 100
    },
    {
      "midi": 82,
      "hit": false,
      "t": 8942.321999999993,
      "d": 36.05774999999994,
      "v": 100
    },
    {
      "midi": 41,
      "hit": false,
      "t": 8942.321999999993,
      "d": 288.46199999999953,
      "v": 100
    },
    {
      "midi": 81,
      "hit": false,
      "t": 8978.379749999993,
      "d": 36.05774999999994,
      "v": 100
    },
    {
      "midi": 81,
      "hit": false,
      "t": 9014.437499999993,
      "d": 36.05774999999994,
      "v": 100
    },
    {
      "midi": 77,
      "hit": false,
      "t": 9050.495249999993,
      "d": 36.05774999999994,
      "v": 100
    },
    {
      "midi": 75,
      "hit": false,
      "t": 9086.552999999993,
      "d": 36.05774999999994,
      "v": 100
    },
    {
      "midi": 74,
      "hit": false,
      "t": 9122.610749999993,
      "d": 36.05774999999994,
      "v": 100
    },
    {
      "midi": 72,
      "hit": false,
      "t": 9158.668499999992,
      "d": 36.05774999999994,
      "v": 100
    },
    {
      "midi": 70,
      "hit": false,
      "t": 9194.726249999992,
      "d": 36.05774999999994,
      "v": 100
    },
    {
      "midi": 69,
      "hit": false,
      "t": 9230.783999999992,
      "d": 36.05774999999994,
      "v": 100
    },
    {
      "midi": 34,
      "hit": false,
      "t": 9230.783999999992,
      "d": 432.6929999999993,
      "v": 100
    },
    {
      "midi": 53,
      "hit": false,
      "t": 9519.245999999992,
      "d": 144.23099999999977,
      "v": 100
    },
    {
      "midi": 58,
      "hit": false,
      "t": 9519.245999999992,
      "d": 144.23099999999977,
      "v": 100
    },
    {
      "midi": 62,
      "hit": false,
      "t": 9519.245999999992,
      "d": 144.23099999999977,
      "v": 100
    },
    {
      "midi": 53,
      "hit": false,
      "t": 9663.476999999992,
      "d": 144.23099999999977,
      "v": 100
    },
    {
      "midi": 58,
      "hit": false,
      "t": 9663.476999999992,
      "d": 144.23099999999977,
      "v": 100
    },
    {
      "midi": 62,
      "hit": false,
      "t": 9663.476999999992,
      "d": 144.23099999999977,
      "v": 100
    },
    {
      "midi": 38,
      "hit": false,
      "t": 9663.476999999992,
      "d": 432.6929999999993,
      "v": 100
    },
    {
      "midi": 41,
      "hit": false,
      "t": 10096.169999999991,
      "d": 288.46199999999953,
      "v": 100
    },
    {
      "midi": 53,
      "hit": false,
      "t": 10096.169999999991,
      "d": 288.46199999999953,
      "v": 100
    },
    {
      "midi": 58,
      "hit": false,
      "t": 10096.169999999991,
      "d": 288.46199999999953,
      "v": 100
    },
    {
      "midi": 62,
      "hit": false,
      "t": 10096.169999999991,
      "d": 288.46199999999953,
      "v": 100
    },
    {
      "midi": 31,
      "hit": false,
      "t": 10384.63199999999,
      "d": 432.6929999999993,
      "v": 100
    },
    {
      "midi": 55,
      "hit": false,
      "t": 10673.09399999999,
      "d": 144.23099999999977,
      "v": 100
    },
    {
      "midi": 58,
      "hit": false,
      "t": 10673.09399999999,
      "d": 144.23099999999977,
      "v": 100
    },
    {
      "midi": 62,
      "hit": false,
      "t": 10673.09399999999,
      "d": 144.23099999999977,
      "v": 100
    },
    {
      "midi": 55,
      "hit": false,
      "t": 10817.32499999999,
      "d": 144.23099999999977,
      "v": 100
    },
    {
      "midi": 58,
      "hit": false,
      "t": 10817.32499999999,
      "d": 144.23099999999977,
      "v": 100
    },
    {
      "midi": 62,
      "hit": false,
      "t": 10817.32499999999,
      "d": 144.23099999999977,
      "v": 100
    },
    {
      "midi": 34,
      "hit": false,
      "t": 10817.32499999999,
      "d": 432.6929999999993,
      "v": 100
    },
    {
      "midi": 38,
      "hit": false,
      "t": 11250.01799999999,
      "d": 288.46199999999953,
      "v": 100
    },
    {
      "midi": 55,
      "hit": false,
      "t": 11250.01799999999,
      "d": 288.46199999999953,
      "v": 100
    },
    {
      "midi": 58,
      "hit": false,
      "t": 11250.01799999999,
      "d": 288.46199999999953,
      "v": 100
    },
    {
      "midi": 62,
      "hit": false,
      "t": 11250.01799999999,
      "d": 288.46199999999953,
      "v": 100
    },
    {
      "midi": 39,
      "hit": false,
      "t": 11538.479999999989,
      "d": 432.6929999999993,
      "v": 100
    },
    {
      "midi": 55,
      "hit": false,
      "t": 11826.941999999988,
      "d": 144.23099999999977,
      "v": 100
    },
    {
      "midi": 58,
      "hit": false,
      "t": 11826.941999999988,
      "d": 144.23099999999977,
      "v": 100
    },
    {
      "midi": 63,
      "hit": false,
      "t": 11826.941999999988,
      "d": 144.23099999999977,
      "v": 100
    },
    {
      "midi": 55,
      "hit": false,
      "t": 11971.172999999988,
      "d": 144.23099999999977,
      "v": 100
    },
    {
      "midi": 58,
      "hit": false,
      "t": 11971.172999999988,
      "d": 144.23099999999977,
      "v": 100
    },
    {
      "midi": 63,
      "hit": false,
      "t": 11971.172999999988,
      "d": 144.23099999999977,
      "v": 100
    },
    {
      "midi": 43,
      "hit": false,
      "t": 11971.172999999988,
      "d": 432.6929999999993,
      "v": 100
    },
    {
      "midi": 46,
      "hit": false,
      "t": 12403.865999999987,
      "d": 288.46199999999953,
      "v": 100
    },
    {
      "midi": 55,
      "hit": false,
      "t": 12403.865999999987,
      "d": 288.46199999999953,
      "v": 100
    },
    {
      "midi": 58,
      "hit": false,
      "t": 12403.865999999987,
      "d": 288.46199999999953,
      "v": 100
    },
    {
      "midi": 63,
      "hit": false,
      "t": 12403.865999999987,
      "d": 288.46199999999953,
      "v": 100
    },
    {
      "midi": 41,
      "hit": false,
      "t": 12692.327999999987,
      "d": 432.6929999999993,
      "v": 100
    },
    {
      "midi": 57,
      "hit": false,
      "t": 12980.789999999986,
      "d": 144.23099999999977,
      "v": 100
    },
    {
      "midi": 60,
      "hit": false,
      "t": 12980.789999999986,
      "d": 144.23099999999977,
      "v": 100
    },
    {
      "midi": 65,
      "hit": false,
      "t": 12980.789999999986,
      "d": 144.23099999999977,
      "v": 100
    },
    {
      "midi": 57,
      "hit": false,
      "t": 13125.020999999986,
      "d": 144.23099999999977,
      "v": 100
    },
    {
      "midi": 60,
      "hit": false,
      "t": 13125.020999999986,
      "d": 144.23099999999977,
      "v": 100
    },
    {
      "midi": 65,
      "hit": false,
      "t": 13125.020999999986,
      "d": 144.23099999999977,
      "v": 100
    },
    {
      "midi": 43,
      "hit": false,
      "t": 13125.020999999986,
      "d": 432.6929999999993,
      "v": 100
    },
    {
      "midi": 41,
      "hit": false,
      "t": 13557.713999999985,
      "d": 288.46199999999953,
      "v": 100
    },
    {
      "midi": 57,
      "hit": false,
      "t": 13557.713999999985,
      "d": 288.46199999999953,
      "v": 100
    },
    {
      "midi": 60,
      "hit": false,
      "t": 13557.713999999985,
      "d": 288.46199999999953,
      "v": 100
    },
    {
      "midi": 65,
      "hit": false,
      "t": 13557.713999999985,
      "d": 288.46199999999953,
      "v": 100
    },
    {
      "midi": 34,
      "hit": false,
      "t": 13846.175999999985,
      "d": 432.6929999999993,
      "v": 100
    },
    {
      "midi": 53,
      "hit": false,
      "t": 14134.637999999984,
      "d": 144.23099999999977,
      "v": 100
    },
    {
      "midi": 58,
      "hit": false,
      "t": 14134.637999999984,
      "d": 144.23099999999977,
      "v": 100
    },
    {
      "midi": 62,
      "hit": false,
      "t": 14134.637999999984,
      "d": 144.23099999999977,
      "v": 100
    },
    {
      "midi": 53,
      "hit": false,
      "t": 14278.868999999984,
      "d": 144.23099999999977,
      "v": 100
    },
    {
      "midi": 58,
      "hit": false,
      "t": 14278.868999999984,
      "d": 144.23099999999977,
      "v": 100
    },
    {
      "midi": 62,
      "hit": false,
      "t": 14278.868999999984,
      "d": 144.23099999999977,
      "v": 100
    },
    {
      "midi": 38,
      "hit": false,
      "t": 14278.868999999984,
      "d": 432.6929999999993,
      "v": 100
    },
    {
      "midi": 41,
      "hit": false,
      "t": 14711.561999999984,
      "d": 288.46199999999953,
      "v": 100
    },
    {
      "midi": 53,
      "hit": false,
      "t": 14711.561999999984,
      "d": 288.46199999999953,
      "v": 100
    },
    {
      "midi": 58,
      "hit": false,
      "t": 14711.561999999984,
      "d": 288.46199999999953,
      "v": 100
    },
    {
      "midi": 62,
      "hit": false,
      "t": 14711.561999999984,
      "d": 288.46199999999953,
      "v": 100
    },
    {
      "midi": 31,
      "hit": false,
      "t": 15000.023999999983,
      "d": 432.6929999999993,
      "v": 100
    },
    {
      "midi": 55,
      "hit": false,
      "t": 15288.485999999983,
      "d": 144.23099999999977,
      "v": 100
    },
    {
      "midi": 58,
      "hit": false,
      "t": 15288.485999999983,
      "d": 144.23099999999977,
      "v": 100
    },
    {
      "midi": 62,
      "hit": false,
      "t": 15288.485999999983,
      "d": 144.23099999999977,
      "v": 100
    },
    {
      "midi": 55,
      "hit": false,
      "t": 15432.716999999982,
      "d": 144.23099999999977,
      "v": 100
    },
    {
      "midi": 58,
      "hit": false,
      "t": 15432.716999999982,
      "d": 144.23099999999977,
      "v": 100
    },
    {
      "midi": 62,
      "hit": false,
      "t": 15432.716999999982,
      "d": 144.23099999999977,
      "v": 100
    },
    {
      "midi": 34,
      "hit": false,
      "t": 15432.716999999982,
      "d": 432.6929999999993,
      "v": 100
    },
    {
      "midi": 38,
      "hit": false,
      "t": 15865.409999999982,
      "d": 288.46199999999953,
      "v": 100
    },
    {
      "midi": 55,
      "hit": false,
      "t": 15865.409999999982,
      "d": 288.46199999999953,
      "v": 100
    },
    {
      "midi": 58,
      "hit": false,
      "t": 15865.409999999982,
      "d": 288.46199999999953,
      "v": 100
    },
    {
      "midi": 62,
      "hit": false,
      "t": 15865.409999999982,
      "d": 288.46199999999953,
      "v": 100
    },
    {
      "midi": 39,
      "hit": false,
      "t": 16153.871999999981,
      "d": 432.6929999999993,
      "v": 100
    },
    {
      "midi": 55,
      "hit": false,
      "t": 16442.33399999998,
      "d": 144.23099999999977,
      "v": 100
    },
    {
      "midi": 58,
      "hit": false,
      "t": 16442.33399999998,
      "d": 144.23099999999977,
      "v": 100
    },
    {
      "midi": 63,
      "hit": false,
      "t": 16442.33399999998,
      "d": 144.23099999999977,
      "v": 100
    },
    {
      "midi": 55,
      "hit": false,
      "t": 16586.56499999998,
      "d": 144.23099999999977,
      "v": 100
    },
    {
      "midi": 58,
      "hit": false,
      "t": 16586.56499999998,
      "d": 144.23099999999977,
      "v": 100
    },
    {
      "midi": 63,
      "hit": false,
      "t": 16586.56499999998,
      "d": 144.23099999999977,
      "v": 100
    },
    {
      "midi": 43,
      "hit": false,
      "t": 16586.56499999998,
      "d": 432.6929999999993,
      "v": 100
    },
    {
      "midi": 46,
      "hit": false,
      "t": 17019.25799999998,
      "d": 288.46199999999953,
      "v": 100
    },
    {
      "midi": 55,
      "hit": false,
      "t": 17019.25799999998,
      "d": 288.46199999999953,
      "v": 100
    },
    {
      "midi": 58,
      "hit": false,
      "t": 17019.25799999998,
      "d": 288.46199999999953,
      "v": 100
    },
    {
      "midi": 63,
      "hit": false,
      "t": 17019.25799999998,
      "d": 288.46199999999953,
      "v": 100
    },
    {
      "midi": 41,
      "hit": false,
      "t": 17307.71999999998,
      "d": 432.6929999999993,
      "v": 100
    },
    {
      "midi": 57,
      "hit": false,
      "t": 17596.18199999998,
      "d": 144.23099999999977,
      "v": 100
    },
    {
      "midi": 60,
      "hit": false,
      "t": 17596.18199999998,
      "d": 144.23099999999977,
      "v": 100
    },
    {
      "midi": 65,
      "hit": false,
      "t": 17596.18199999998,
      "d": 144.23099999999977,
      "v": 100
    },
    {
      "midi": 57,
      "hit": false,
      "t": 17740.41299999998,
      "d": 144.23099999999977,
      "v": 100
    },
    {
      "midi": 60,
      "hit": false,
      "t": 17740.41299999998,
      "d": 144.23099999999977,
      "v": 100
    },
    {
      "midi": 65,
      "hit": false,
      "t": 17740.41299999998,
      "d": 144.23099999999977,
      "v": 100
    },
    {
      "midi": 43,
      "hit": false,
      "t": 17740.41299999998,
      "d": 432.6929999999993,
      "v": 100
    },
    {
      "midi": 41,
      "hit": false,
      "t": 18173.105999999978,
      "d": 288.46199999999953,
      "v": 100
    },
    {
      "midi": 57,
      "hit": false,
      "t": 18173.105999999978,
      "d": 288.46199999999953,
      "v": 100
    },
    {
      "midi": 60,
      "hit": false,
      "t": 18173.105999999978,
      "d": 288.46199999999953,
      "v": 100
    },
    {
      "midi": 65,
      "hit": false,
      "t": 18173.105999999978,
      "d": 288.46199999999953,
      "v": 100
    },
    {
      "midi": 34,
      "hit": false,
      "t": 18461.567999999977,
      "d": 432.6929999999993,
      "v": 100
    },
    {
      "midi": 53,
      "hit": false,
      "t": 18750.029999999977,
      "d": 144.23099999999977,
      "v": 100
    },
    {
      "midi": 58,
      "hit": false,
      "t": 18750.029999999977,
      "d": 144.23099999999977,
      "v": 100
    },
    {
      "midi": 62,
      "hit": false,
      "t": 18750.029999999977,
      "d": 144.23099999999977,
      "v": 100
    },
    {
      "midi": 53,
      "hit": false,
      "t": 18894.260999999977,
      "d": 144.23099999999977,
      "v": 100
    },
    {
      "midi": 58,
      "hit": false,
      "t": 18894.260999999977,
      "d": 144.23099999999977,
      "v": 100
    },
    {
      "midi": 62,
      "hit": false,
      "t": 18894.260999999977,
      "d": 144.23099999999977,
      "v": 100
    },
    {
      "midi": 38,
      "hit": false,
      "t": 18894.260999999977,
      "d": 432.6929999999993,
      "v": 100
    },
    {
      "midi": 41,
      "hit": false,
      "t": 19326.953999999976,
      "d": 288.46199999999953,
      "v": 100
    },
    {
      "midi": 53,
      "hit": false,
      "t": 19326.953999999976,
      "d": 288.46199999999953,
      "v": 100
    },
    {
      "midi": 58,
      "hit": false,
      "t": 19326.953999999976,
      "d": 288.46199999999953,
      "v": 100
    },
    {
      "midi": 62,
      "hit": false,
      "t": 19326.953999999976,
      "d": 288.46199999999953,
      "v": 100
    },
    {
      "midi": 31,
      "hit": false,
      "t": 19615.415999999976,
      "d": 432.6929999999993,
      "v": 100
    },
    {
      "midi": 55,
      "hit": false,
      "t": 19903.877999999975,
      "d": 144.23099999999977,
      "v": 100
    },
    {
      "midi": 58,
      "hit": false,
      "t": 19903.877999999975,
      "d": 144.23099999999977,
      "v": 100
    },
    {
      "midi": 62,
      "hit": false,
      "t": 19903.877999999975,
      "d": 144.23099999999977,
      "v": 100
    },
    {
      "midi": 55,
      "hit": false,
      "t": 20048.108999999975,
      "d": 144.23099999999977,
      "v": 100
    },
    {
      "midi": 58,
      "hit": false,
      "t": 20048.108999999975,
      "d": 144.23099999999977,
      "v": 100
    },
    {
      "midi": 62,
      "hit": false,
      "t": 20048.108999999975,
      "d": 144.23099999999977,
      "v": 100
    },
    {
      "midi": 34,
      "hit": false,
      "t": 20048.108999999975,
      "d": 432.6929999999993,
      "v": 100
    },
    {
      "midi": 38,
      "hit": false,
      "t": 20480.801999999974,
      "d": 288.46199999999953,
      "v": 100
    },
    {
      "midi": 55,
      "hit": false,
      "t": 20480.801999999974,
      "d": 288.46199999999953,
      "v": 100
    },
    {
      "midi": 58,
      "hit": false,
      "t": 20480.801999999974,
      "d": 288.46199999999953,
      "v": 100
    },
    {
      "midi": 62,
      "hit": false,
      "t": 20480.801999999974,
      "d": 288.46199999999953,
      "v": 100
    },
    {
      "midi": 39,
      "hit": false,
      "t": 20769.263999999974,
      "d": 432.6929999999993,
      "v": 100
    },
    {
      "midi": 55,
      "hit": false,
      "t": 21057.725999999973,
      "d": 144.23099999999977,
      "v": 100
    },
    {
      "midi": 58,
      "hit": false,
      "t": 21057.725999999973,
      "d": 144.23099999999977,
      "v": 100
    },
    {
      "midi": 63,
      "hit": false,
      "t": 21057.725999999973,
      "d": 144.23099999999977,
      "v": 100
    },
    {
      "midi": 55,
      "hit": false,
      "t": 21201.956999999973,
      "d": 144.23099999999977,
      "v": 100
    },
    {
      "midi": 58,
      "hit": false,
      "t": 21201.956999999973,
      "d": 144.23099999999977,
      "v": 100
    },
    {
      "midi": 63,
      "hit": false,
      "t": 21201.956999999973,
      "d": 144.23099999999977,
      "v": 100
    },
    {
      "midi": 43,
      "hit": false,
      "t": 21201.956999999973,
      "d": 432.6929999999993,
      "v": 100
    },
    {
      "midi": 46,
      "hit": false,
      "t": 21634.649999999972,
      "d": 288.46199999999953,
      "v": 100
    },
    {
      "midi": 55,
      "hit": false,
      "t": 21634.649999999972,
      "d": 288.46199999999953,
      "v": 100
    },
    {
      "midi": 58,
      "hit": false,
      "t": 21634.649999999972,
      "d": 288.46199999999953,
      "v": 100
    },
    {
      "midi": 63,
      "hit": false,
      "t": 21634.649999999972,
      "d": 288.46199999999953,
      "v": 100
    },
    {
      "midi": 41,
      "hit": false,
      "t": 21923.111999999972,
      "d": 432.6929999999993,
      "v": 100
    },
    {
      "midi": 57,
      "hit": false,
      "t": 22211.57399999997,
      "d": 144.23099999999977,
      "v": 100
    },
    {
      "midi": 60,
      "hit": false,
      "t": 22211.57399999997,
      "d": 144.23099999999977,
      "v": 100
    },
    {
      "midi": 65,
      "hit": false,
      "t": 22211.57399999997,
      "d": 144.23099999999977,
      "v": 100
    },
    {
      "midi": 57,
      "hit": false,
      "t": 22355.80499999997,
      "d": 144.23099999999977,
      "v": 100
    },
    {
      "midi": 60,
      "hit": false,
      "t": 22355.80499999997,
      "d": 144.23099999999977,
      "v": 100
    },
    {
      "midi": 65,
      "hit": false,
      "t": 22355.80499999997,
      "d": 144.23099999999977,
      "v": 100
    },
    {
      "midi": 43,
      "hit": false,
      "t": 22355.80499999997,
      "d": 432.6929999999993,
      "v": 100
    },
    {
      "midi": 41,
      "hit": false,
      "t": 22788.49799999997,
      "d": 288.46199999999953,
      "v": 100
    },
    {
      "midi": 57,
      "hit": false,
      "t": 22788.49799999997,
      "d": 288.46199999999953,
      "v": 100
    },
    {
      "midi": 60,
      "hit": false,
      "t": 22788.49799999997,
      "d": 288.46199999999953,
      "v": 100
    },
    {
      "midi": 65,
      "hit": false,
      "t": 22788.49799999997,
      "d": 288.46199999999953,
      "v": 100
    },
    {
      "midi": 34,
      "hit": false,
      "t": 23076.95999999997,
      "d": 432.6929999999993,
      "v": 100
    },
    {
      "midi": 53,
      "hit": false,
      "t": 23365.42199999997,
      "d": 144.23099999999977,
      "v": 100
    },
    {
      "midi": 58,
      "hit": false,
      "t": 23365.42199999997,
      "d": 144.23099999999977,
      "v": 100
    },
    {
      "midi": 62,
      "hit": false,
      "t": 23365.42199999997,
      "d": 144.23099999999977,
      "v": 100
    },
    {
      "midi": 53,
      "hit": false,
      "t": 23509.65299999997,
      "d": 144.23099999999977,
      "v": 100
    },
    {
      "midi": 58,
      "hit": false,
      "t": 23509.65299999997,
      "d": 144.23099999999977,
      "v": 100
    },
    {
      "midi": 62,
      "hit": false,
      "t": 23509.65299999997,
      "d": 144.23099999999977,
      "v": 100
    },
    {
      "midi": 38,
      "hit": false,
      "t": 23509.65299999997,
      "d": 432.6929999999993,
      "v": 100
    },
    {
      "midi": 41,
      "hit": false,
      "t": 23942.34599999997,
      "d": 288.46199999999953,
      "v": 100
    },
    {
      "midi": 53,
      "hit": false,
      "t": 23942.34599999997,
      "d": 288.46199999999953,
      "v": 100
    },
    {
      "midi": 58,
      "hit": false,
      "t": 23942.34599999997,
      "d": 288.46199999999953,
      "v": 100
    },
    {
      "midi": 62,
      "hit": false,
      "t": 23942.34599999997,
      "d": 288.46199999999953,
      "v": 100
    },
    {
      "midi": 31,
      "hit": false,
      "t": 24230.807999999968,
      "d": 432.6929999999993,
      "v": 100
    },
    {
      "midi": 55,
      "hit": false,
      "t": 24519.269999999968,
      "d": 144.23099999999977,
      "v": 100
    },
    {
      "midi": 58,
      "hit": false,
      "t": 24519.269999999968,
      "d": 144.23099999999977,
      "v": 100
    },
    {
      "midi": 62,
      "hit": false,
      "t": 24519.269999999968,
      "d": 144.23099999999977,
      "v": 100
    },
    {
      "midi": 55,
      "hit": false,
      "t": 24663.500999999967,
      "d": 144.23099999999977,
      "v": 100
    },
    {
      "midi": 58,
      "hit": false,
      "t": 24663.500999999967,
      "d": 144.23099999999977,
      "v": 100
    },
    {
      "midi": 62,
      "hit": false,
      "t": 24663.500999999967,
      "d": 144.23099999999977,
      "v": 100
    },
    {
      "midi": 34,
      "hit": false,
      "t": 24663.500999999967,
      "d": 432.6929999999993,
      "v": 100
    },
    {
      "midi": 38,
      "hit": false,
      "t": 25096.193999999967,
      "d": 288.46199999999953,
      "v": 100
    },
    {
      "midi": 55,
      "hit": false,
      "t": 25096.193999999967,
      "d": 288.46199999999953,
      "v": 100
    },
    {
      "midi": 58,
      "hit": false,
      "t": 25096.193999999967,
      "d": 288.46199999999953,
      "v": 100
    },
    {
      "midi": 62,
      "hit": false,
      "t": 25096.193999999967,
      "d": 288.46199999999953,
      "v": 100
    },
    {
      "midi": 39,
      "hit": false,
      "t": 25384.655999999966,
      "d": 432.6929999999993,
      "v": 100
    },
    {
      "midi": 55,
      "hit": false,
      "t": 25673.117999999966,
      "d": 144.23099999999977,
      "v": 100
    },
    {
      "midi": 58,
      "hit": false,
      "t": 25673.117999999966,
      "d": 144.23099999999977,
      "v": 100
    },
    {
      "midi": 63,
      "hit": false,
      "t": 25673.117999999966,
      "d": 144.23099999999977,
      "v": 100
    },
    {
      "midi": 55,
      "hit": false,
      "t": 25817.348999999966,
      "d": 144.23099999999977,
      "v": 100
    },
    {
      "midi": 58,
      "hit": false,
      "t": 25817.348999999966,
      "d": 144.23099999999977,
      "v": 100
    },
    {
      "midi": 63,
      "hit": false,
      "t": 25817.348999999966,
      "d": 144.23099999999977,
      "v": 100
    },
    {
      "midi": 43,
      "hit": false,
      "t": 25817.348999999966,
      "d": 432.6929999999993,
      "v": 100
    },
    {
      "midi": 46,
      "hit": false,
      "t": 26250.041999999965,
      "d": 288.46199999999953,
      "v": 100
    },
    {
      "midi": 55,
      "hit": false,
      "t": 26250.041999999965,
      "d": 288.46199999999953,
      "v": 100
    },
    {
      "midi": 58,
      "hit": false,
      "t": 26250.041999999965,
      "d": 288.46199999999953,
      "v": 100
    },
    {
      "midi": 63,
      "hit": false,
      "t": 26250.041999999965,
      "d": 288.46199999999953,
      "v": 100
    },
    {
      "midi": 101,
      "hit": false,
      "t": 26538.503999999964,
      "d": 36.05774999999994,
      "v": 100
    },
    {
      "midi": 41,
      "hit": false,
      "t": 26538.503999999964,
      "d": 288.46199999999953,
      "v": 100
    },
    {
      "midi": 100,
      "hit": false,
      "t": 26574.561749999964,
      "d": 36.05774999999994,
      "v": 100
    },
    {
      "midi": 98,
      "hit": false,
      "t": 26610.619499999964,
      "d": 36.05774999999994,
      "v": 100
    },
    {
      "midi": 96,
      "hit": false,
      "t": 26646.677249999964,
      "d": 36.05774999999994,
      "v": 100
    },
    {
      "midi": 95,
      "hit": false,
      "t": 26682.734999999964,
      "d": 36.05774999999994,
      "v": 100
    },
    {
      "midi": 93,
      "hit": false,
      "t": 26718.792749999964,
      "d": 36.05774999999994,
      "v": 100
    },
    {
      "midi": 91,
      "hit": false,
      "t": 26754.850499999964,
      "d": 36.05774999999994,
      "v": 100
    },
    {
      "midi": 89,
      "hit": false,
      "t": 26790.908249999964,
      "d": 36.05774999999994,
      "v": 100
    },
    {
      "midi": 88,
      "hit": false,
      "t": 26826.965999999964,
      "d": 36.05774999999994,
      "v": 100
    },
    {
      "midi": 39,
      "hit": false,
      "t": 26826.965999999964,
      "d": 288.46199999999953,
      "v": 100
    },
    {
      "midi": 86,
      "hit": false,
      "t": 26863.023749999964,
      "d": 36.05774999999994,
      "v": 100
    },
    {
      "midi": 84,
      "hit": false,
      "t": 26899.081499999964,
      "d": 36.05774999999994,
      "v": 100
    },
    {
      "midi": 83,
      "hit": false,
      "t": 26935.139249999964,
      "d": 36.05774999999994,
      "v": 100
    },
    {
      "midi": 81,
      "hit": false,
      "t": 26971.196999999964,
      "d": 36.05774999999994,
      "v": 100
    },
    {
      "midi": 79,
      "hit": false,
      "t": 27007.254749999964,
      "d": 36.05774999999994,
      "v": 100
    },
    {
      "midi": 77,
      "hit": false,
      "t": 27043.312499999964,
      "d": 36.05774999999994,
      "v": 100
    },
    {
      "midi": 76,
      "hit": false,
      "t": 27079.370249999964,
      "d": 36.05774999999994,
      "v": 100
    },
    {
      "midi": 74,
      "hit": false,
      "t": 27115.427999999964,
      "d": 36.05774999999994,
      "v": 100
    },
    {
      "midi": 38,
      "hit": false,
      "t": 27115.427999999964,
      "d": 288.46199999999953,
      "v": 100
    },
    {
      "midi": 72,
      "hit": false,
      "t": 27151.485749999963,
      "d": 36.05774999999994,
      "v": 100
    },
    {
      "midi": 71,
      "hit": false,
      "t": 27187.543499999963,
      "d": 36.05774999999994,
      "v": 100
    },
    {
      "midi": 69,
      "hit": false,
      "t": 27223.601249999963,
      "d": 36.05774999999994,
      "v": 100
    },
    {
      "midi": 67,
      "hit": false,
      "t": 27259.658999999963,
      "d": 36.05774999999994,
      "v": 100
    },
    {
      "midi": 65,
      "hit": false,
      "t": 27295.716749999963,
      "d": 36.05774999999994,
      "v": 100
    },
    {
      "midi": 64,
      "hit": false,
      "t": 27331.774499999963,
      "d": 36.05774999999994,
      "v": 100
    },
    {
      "midi": 62,
      "hit": false,
      "t": 27367.832249999963,
      "d": 36.05774999999994,
      "v": 100
    },
    {
      "midi": 60,
      "hit": false,
      "t": 27403.889999999963,
      "d": 36.05774999999994,
      "v": 100
    },
    {
      "midi": 36,
      "hit": false,
      "t": 27403.889999999963,
      "d": 288.46199999999953,
      "v": 100
    },
    {
      "midi": 59,
      "hit": false,
      "t": 27439.947749999963,
      "d": 36.05774999999994,
      "v": 100
    },
    {
      "midi": 57,
      "hit": false,
      "t": 27476.005499999963,
      "d": 36.05774999999994,
      "v": 100
    },
    {
      "midi": 55,
      "hit": false,
      "t": 27512.063249999963,
      "d": 36.05774999999994,
      "v": 100
    },
    {
      "midi": 53,
      "hit": false,
      "t": 27548.120999999963,
      "d": 36.05774999999994,
      "v": 100
    },
    {
      "midi": 52,
      "hit": false,
      "t": 27584.178749999963,
      "d": 36.05774999999994,
      "v": 100
    },
    {
      "midi": 50,
      "hit": false,
      "t": 27620.236499999963,
      "d": 36.05774999999994,
      "v": 100
    },
    {
      "midi": 48,
      "hit": false,
      "t": 27656.294249999963,
      "d": 36.05774999999994,
      "v": 100
    },
    {
      "midi": 46,
      "hit": false,
      "t": 27692.351999999963,
      "d": 36.05774999999994,
      "v": 100
    },
    {
      "midi": 34,
      "hit": false,
      "t": 27692.351999999963,
      "d": 432.6929999999993,
      "v": 100
    },
    {
      "midi": 53,
      "hit": false,
      "t": 27980.813999999962,
      "d": 144.23099999999977,
      "v": 100
    },
    {
      "midi": 58,
      "hit": false,
      "t": 27980.813999999962,
      "d": 144.23099999999977,
      "v": 100
    },
    {
      "midi": 62,
      "hit": false,
      "t": 27980.813999999962,
      "d": 144.23099999999977,
      "v": 100
    },
    {
      "midi": 53,
      "hit": false,
      "t": 28125.044999999962,
      "d": 144.23099999999977,
      "v": 100
    },
    {
      "midi": 58,
      "hit": false,
      "t": 28125.044999999962,
      "d": 144.23099999999977,
      "v": 100
    },
    {
      "midi": 62,
      "hit": false,
      "t": 28125.044999999962,
      "d": 144.23099999999977,
      "v": 100
    },
    {
      "midi": 38,
      "hit": false,
      "t": 28125.044999999962,
      "d": 432.6929999999993,
      "v": 100
    },
    {
      "midi": 53,
      "hit": false,
      "t": 28413.50699999996,
      "d": 144.23099999999977,
      "v": 100
    },
    {
      "midi": 41,
      "hit": false,
      "t": 28557.73799999996,
      "d": 288.46199999999953,
      "v": 100
    },
    {
      "midi": 58,
      "hit": false,
      "t": 28557.73799999996,
      "d": 288.46199999999953,
      "v": 100
    },
    {
      "midi": 62,
      "hit": false,
      "t": 28557.73799999996,
      "d": 288.46199999999953,
      "v": 100
    },
    {
      "midi": 31,
      "hit": false,
      "t": 28846.19999999996,
      "d": 432.6929999999993,
      "v": 100
    },
    {
      "midi": 55,
      "hit": false,
      "t": 29134.66199999996,
      "d": 144.23099999999977,
      "v": 100
    },
    {
      "midi": 58,
      "hit": false,
      "t": 29134.66199999996,
      "d": 144.23099999999977,
      "v": 100
    },
    {
      "midi": 62,
      "hit": false,
      "t": 29134.66199999996,
      "d": 144.23099999999977,
      "v": 100
    },
    {
      "midi": 55,
      "hit": false,
      "t": 29278.89299999996,
      "d": 144.23099999999977,
      "v": 100
    },
    {
      "midi": 58,
      "hit": false,
      "t": 29278.89299999996,
      "d": 144.23099999999977,
      "v": 100
    },
    {
      "midi": 62,
      "hit": false,
      "t": 29278.89299999996,
      "d": 144.23099999999977,
      "v": 100
    },
    {
      "midi": 34,
      "hit": false,
      "t": 29278.89299999996,
      "d": 432.6929999999993,
      "v": 100
    },
    {
      "midi": 55,
      "hit": false,
      "t": 29567.35499999996,
      "d": 144.23099999999977,
      "v": 100
    },
    {
      "midi": 38,
      "hit": false,
      "t": 29711.58599999996,
      "d": 288.46199999999953,
      "v": 100
    },
    {
      "midi": 58,
      "hit": false,
      "t": 29711.58599999996,
      "d": 288.46199999999953,
      "v": 100
    },
    {
      "midi": 62,
      "hit": false,
      "t": 29711.58599999996,
      "d": 288.46199999999953,
      "v": 100
    },
    {
      "midi": 39,
      "hit": false,
      "t": 30000.04799999996,
      "d": 432.6929999999993,
      "v": 100
    },
    {
      "midi": 55,
      "hit": false,
      "t": 30288.50999999996,
      "d": 144.23099999999977,
      "v": 100
    },
    {
      "midi": 58,
      "hit": false,
      "t": 30288.50999999996,
      "d": 144.23099999999977,
      "v": 100
    },
    {
      "midi": 63,
      "hit": false,
      "t": 30288.50999999996,
      "d": 144.23099999999977,
      "v": 100
    },
    {
      "midi": 55,
      "hit": false,
      "t": 30432.740999999958,
      "d": 144.23099999999977,
      "v": 100
    },
    {
      "midi": 58,
      "hit": false,
      "t": 30432.740999999958,
      "d": 144.23099999999977,
      "v": 100
    },
    {
      "midi": 63,
      "hit": false,
      "t": 30432.740999999958,
      "d": 144.23099999999977,
      "v": 100
    },
    {
      "midi": 43,
      "hit": false,
      "t": 30432.740999999958,
      "d": 432.6929999999993,
      "v": 100
    },
    {
      "midi": 55,
      "hit": false,
      "t": 30721.202999999958,
      "d": 144.23099999999977,
      "v": 100
    },
    {
      "midi": 46,
      "hit": false,
      "t": 30865.433999999957,
      "d": 288.46199999999953,
      "v": 100
    },
    {
      "midi": 58,
      "hit": false,
      "t": 30865.433999999957,
      "d": 288.46199999999953,
      "v": 100
    },
    {
      "midi": 63,
      "hit": false,
      "t": 30865.433999999957,
      "d": 288.46199999999953,
      "v": 100
    },
    {
      "midi": 41,
      "hit": false,
      "t": 31153.895999999957,
      "d": 432.6929999999993,
      "v": 100
    },
    {
      "midi": 57,
      "hit": false,
      "t": 31442.357999999957,
      "d": 144.23099999999977,
      "v": 100
    },
    {
      "midi": 60,
      "hit": false,
      "t": 31442.357999999957,
      "d": 144.23099999999977,
      "v": 100
    },
    {
      "midi": 65,
      "hit": false,
      "t": 31442.357999999957,
      "d": 144.23099999999977,
      "v": 100
    },
    {
      "midi": 57,
      "hit": false,
      "t": 31586.588999999956,
      "d": 144.23099999999977,
      "v": 100
    },
    {
      "midi": 60,
      "hit": false,
      "t": 31586.588999999956,
      "d": 144.23099999999977,
      "v": 100
    },
    {
      "midi": 65,
      "hit": false,
      "t": 31586.588999999956,
      "d": 144.23099999999977,
      "v": 100
    },
    {
      "midi": 43,
      "hit": false,
      "t": 31586.588999999956,
      "d": 432.6929999999993,
      "v": 100
    },
    {
      "midi": 57,
      "hit": false,
      "t": 31875.050999999956,
      "d": 144.23099999999977,
      "v": 100
    },
    {
      "midi": 41,
      "hit": false,
      "t": 32019.281999999956,
      "d": 288.46199999999953,
      "v": 100
    },
    {
      "midi": 60,
      "hit": false,
      "t": 32019.281999999956,
      "d": 288.46199999999953,
      "v": 100
    },
    {
      "midi": 65,
      "hit": false,
      "t": 32019.281999999956,
      "d": 288.46199999999953,
      "v": 100
    },
    {
      "midi": 34,
      "hit": false,
      "t": 32307.743999999955,
      "d": 432.6929999999993,
      "v": 100
    },
    {
      "midi": 53,
      "hit": false,
      "t": 32596.205999999955,
      "d": 144.23099999999977,
      "v": 100
    },
    {
      "midi": 58,
      "hit": false,
      "t": 32596.205999999955,
      "d": 144.23099999999977,
      "v": 100
    },
    {
      "midi": 62,
      "hit": false,
      "t": 32596.205999999955,
      "d": 144.23099999999977,
      "v": 100
    },
    {
      "midi": 53,
      "hit": false,
      "t": 32740.436999999954,
      "d": 144.23099999999977,
      "v": 100
    },
    {
      "midi": 58,
      "hit": false,
      "t": 32740.436999999954,
      "d": 144.23099999999977,
      "v": 100
    },
    {
      "midi": 62,
      "hit": false,
      "t": 32740.436999999954,
      "d": 144.23099999999977,
      "v": 100
    },
    {
      "midi": 38,
      "hit": false,
      "t": 32740.436999999954,
      "d": 432.6929999999993,
      "v": 100
    },
    {
      "midi": 53,
      "hit": false,
      "t": 33028.898999999954,
      "d": 144.23099999999977,
      "v": 100
    },
    {
      "midi": 41,
      "hit": false,
      "t": 33173.129999999954,
      "d": 288.46199999999953,
      "v": 100
    },
    {
      "midi": 58,
      "hit": false,
      "t": 33173.129999999954,
      "d": 288.46199999999953,
      "v": 100
    },
    {
      "midi": 62,
      "hit": false,
      "t": 33173.129999999954,
      "d": 288.46199999999953,
      "v": 100
    },
    {
      "midi": 31,
      "hit": false,
      "t": 33461.59199999995,
      "d": 432.6929999999993,
      "v": 100
    },
    {
      "midi": 55,
      "hit": false,
      "t": 33750.05399999995,
      "d": 144.23099999999977,
      "v": 100
    },
    {
      "midi": 58,
      "hit": false,
      "t": 33750.05399999995,
      "d": 144.23099999999977,
      "v": 100
    },
    {
      "midi": 62,
      "hit": false,
      "t": 33750.05399999995,
      "d": 144.23099999999977,
      "v": 100
    },
    {
      "midi": 55,
      "hit": false,
      "t": 33894.28499999995,
      "d": 144.23099999999977,
      "v": 100
    },
    {
      "midi": 58,
      "hit": false,
      "t": 33894.28499999995,
      "d": 144.23099999999977,
      "v": 100
    },
    {
      "midi": 62,
      "hit": false,
      "t": 33894.28499999995,
      "d": 144.23099999999977,
      "v": 100
    },
    {
      "midi": 34,
      "hit": false,
      "t": 33894.28499999995,
      "d": 432.6929999999993,
      "v": 100
    },
    {
      "midi": 55,
      "hit": false,
      "t": 34182.74699999995,
      "d": 144.23099999999977,
      "v": 100
    },
    {
      "midi": 38,
      "hit": false,
      "t": 34326.97799999995,
      "d": 288.46199999999953,
      "v": 100
    },
    {
      "midi": 58,
      "hit": false,
      "t": 34326.97799999995,
      "d": 288.46199999999953,
      "v": 100
    },
    {
      "midi": 62,
      "hit": false,
      "t": 34326.97799999995,
      "d": 288.46199999999953,
      "v": 100
    },
    {
      "midi": 39,
      "hit": false,
      "t": 34615.43999999995,
      "d": 432.6929999999993,
      "v": 100
    },
    {
      "midi": 55,
      "hit": false,
      "t": 34903.90199999995,
      "d": 144.23099999999977,
      "v": 100
    },
    {
      "midi": 58,
      "hit": false,
      "t": 34903.90199999995,
      "d": 144.23099999999977,
      "v": 100
    },
    {
      "midi": 63,
      "hit": false,
      "t": 34903.90199999995,
      "d": 144.23099999999977,
      "v": 100
    },
    {
      "midi": 55,
      "hit": false,
      "t": 35048.13299999995,
      "d": 144.23099999999977,
      "v": 100
    },
    {
      "midi": 58,
      "hit": false,
      "t": 35048.13299999995,
      "d": 144.23099999999977,
      "v": 100
    },
    {
      "midi": 63,
      "hit": false,
      "t": 35048.13299999995,
      "d": 144.23099999999977,
      "v": 100
    },
    {
      "midi": 43,
      "hit": false,
      "t": 35048.13299999995,
      "d": 432.6929999999993,
      "v": 100
    },
    {
      "midi": 55,
      "hit": false,
      "t": 35336.59499999995,
      "d": 144.23099999999977,
      "v": 100
    },
    {
      "midi": 46,
      "hit": false,
      "t": 35480.82599999995,
      "d": 288.46199999999953,
      "v": 100
    },
    {
      "midi": 58,
      "hit": false,
      "t": 35480.82599999995,
      "d": 288.46199999999953,
      "v": 100
    },
    {
      "midi": 63,
      "hit": false,
      "t": 35480.82599999995,
      "d": 288.46199999999953,
      "v": 100
    },
    {
      "midi": 41,
      "hit": false,
      "t": 35769.28799999995,
      "d": 432.6929999999993,
      "v": 100
    },
    {
      "midi": 57,
      "hit": false,
      "t": 36057.74999999995,
      "d": 144.23099999999977,
      "v": 100
    },
    {
      "midi": 60,
      "hit": false,
      "t": 36057.74999999995,
      "d": 144.23099999999977,
      "v": 100
    },
    {
      "midi": 65,
      "hit": false,
      "t": 36057.74999999995,
      "d": 144.23099999999977,
      "v": 100
    },
    {
      "midi": 57,
      "hit": false,
      "t": 36201.98099999995,
      "d": 144.23099999999977,
      "v": 100
    },
    {
      "midi": 60,
      "hit": false,
      "t": 36201.98099999995,
      "d": 144.23099999999977,
      "v": 100
    },
    {
      "midi": 65,
      "hit": false,
      "t": 36201.98099999995,
      "d": 144.23099999999977,
      "v": 100
    },
    {
      "midi": 43,
      "hit": false,
      "t": 36201.98099999995,
      "d": 432.6929999999993,
      "v": 100
    },
    {
      "midi": 57,
      "hit": false,
      "t": 36490.44299999995,
      "d": 144.23099999999977,
      "v": 100
    },
    {
      "midi": 41,
      "hit": false,
      "t": 36634.67399999995,
      "d": 288.46199999999953,
      "v": 100
    },
    {
      "midi": 60,
      "hit": false,
      "t": 36634.67399999995,
      "d": 288.46199999999953,
      "v": 100
    },
    {
      "midi": 65,
      "hit": false,
      "t": 36634.67399999995,
      "d": 288.46199999999953,
      "v": 100
    },
    {
      "midi": 34,
      "hit": false,
      "t": 36923.13599999995,
      "d": 432.6929999999993,
      "v": 100
    },
    {
      "midi": 53,
      "hit": false,
      "t": 37211.59799999995,
      "d": 144.23099999999977,
      "v": 100
    },
    {
      "midi": 58,
      "hit": false,
      "t": 37211.59799999995,
      "d": 144.23099999999977,
      "v": 100
    },
    {
      "midi": 62,
      "hit": false,
      "t": 37211.59799999995,
      "d": 144.23099999999977,
      "v": 100
    },
    {
      "midi": 53,
      "hit": false,
      "t": 37355.82899999995,
      "d": 144.23099999999977,
      "v": 100
    },
    {
      "midi": 58,
      "hit": false,
      "t": 37355.82899999995,
      "d": 144.23099999999977,
      "v": 100
    },
    {
      "midi": 62,
      "hit": false,
      "t": 37355.82899999995,
      "d": 144.23099999999977,
      "v": 100
    },
    {
      "midi": 38,
      "hit": false,
      "t": 37355.82899999995,
      "d": 432.6929999999993,
      "v": 100
    },
    {
      "midi": 53,
      "hit": false,
      "t": 37644.29099999995,
      "d": 144.23099999999977,
      "v": 100
    },
    {
      "midi": 41,
      "hit": false,
      "t": 37788.521999999946,
      "d": 288.46199999999953,
      "v": 100
    },
    {
      "midi": 58,
      "hit": false,
      "t": 37788.521999999946,
      "d": 288.46199999999953,
      "v": 100
    },
    {
      "midi": 62,
      "hit": false,
      "t": 37788.521999999946,
      "d": 288.46199999999953,
      "v": 100
    },
    {
      "midi": 31,
      "hit": false,
      "t": 38076.983999999946,
      "d": 432.6929999999993,
      "v": 100
    },
    {
      "midi": 55,
      "hit": false,
      "t": 38365.445999999945,
      "d": 144.23099999999977,
      "v": 100
    },
    {
      "midi": 58,
      "hit": false,
      "t": 38365.445999999945,
      "d": 144.23099999999977,
      "v": 100
    },
    {
      "midi": 62,
      "hit": false,
      "t": 38365.445999999945,
      "d": 144.23099999999977,
      "v": 100
    },
    {
      "midi": 55,
      "hit": false,
      "t": 38509.676999999945,
      "d": 144.23099999999977,
      "v": 100
    },
    {
      "midi": 58,
      "hit": false,
      "t": 38509.676999999945,
      "d": 144.23099999999977,
      "v": 100
    },
    {
      "midi": 62,
      "hit": false,
      "t": 38509.676999999945,
      "d": 144.23099999999977,
      "v": 100
    },
    {
      "midi": 34,
      "hit": false,
      "t": 38509.676999999945,
      "d": 432.6929999999993,
      "v": 100
    },
    {
      "midi": 55,
      "hit": false,
      "t": 38798.138999999945,
      "d": 144.23099999999977,
      "v": 100
    },
    {
      "midi": 38,
      "hit": false,
      "t": 38942.369999999944,
      "d": 288.46199999999953,
      "v": 100
    },
    {
      "midi": 58,
      "hit": false,
      "t": 38942.369999999944,
      "d": 288.46199999999953,
      "v": 100
    },
    {
      "midi": 62,
      "hit": false,
      "t": 38942.369999999944,
      "d": 288.46199999999953,
      "v": 100
    },
    {
      "midi": 39,
      "hit": false,
      "t": 39230.831999999944,
      "d": 432.6929999999993,
      "v": 100
    },
    {
      "midi": 55,
      "hit": false,
      "t": 39519.29399999994,
      "d": 144.23099999999977,
      "v": 100
    },
    {
      "midi": 58,
      "hit": false,
      "t": 39519.29399999994,
      "d": 144.23099999999977,
      "v": 100
    },
    {
      "midi": 63,
      "hit": false,
      "t": 39519.29399999994,
      "d": 144.23099999999977,
      "v": 100
    },
    {
      "midi": 55,
      "hit": false,
      "t": 39663.52499999994,
      "d": 144.23099999999977,
      "v": 100
    },
    {
      "midi": 58,
      "hit": false,
      "t": 39663.52499999994,
      "d": 144.23099999999977,
      "v": 100
    },
    {
      "midi": 63,
      "hit": false,
      "t": 39663.52499999994,
      "d": 144.23099999999977,
      "v": 100
    },
    {
      "midi": 43,
      "hit": false,
      "t": 39663.52499999994,
      "d": 432.6929999999993,
      "v": 100
    },
    {
      "midi": 55,
      "hit": false,
      "t": 39951.98699999994,
      "d": 144.23099999999977,
      "v": 100
    },
    {
      "midi": 46,
      "hit": false,
      "t": 40096.21799999994,
      "d": 288.46199999999953,
      "v": 100
    },
    {
      "midi": 58,
      "hit": false,
      "t": 40096.21799999994,
      "d": 288.46199999999953,
      "v": 100
    },
    {
      "midi": 63,
      "hit": false,
      "t": 40096.21799999994,
      "d": 288.46199999999953,
      "v": 100
    },
    {
      "midi": 41,
      "hit": false,
      "t": 40384.67999999994,
      "d": 432.6929999999993,
      "v": 100
    },
    {
      "midi": 57,
      "hit": false,
      "t": 40673.14199999994,
      "d": 144.23099999999977,
      "v": 100
    },
    {
      "midi": 60,
      "hit": false,
      "t": 40673.14199999994,
      "d": 144.23099999999977,
      "v": 100
    },
    {
      "midi": 65,
      "hit": false,
      "t": 40673.14199999994,
      "d": 144.23099999999977,
      "v": 100
    },
    {
      "midi": 57,
      "hit": false,
      "t": 40817.37299999994,
      "d": 144.23099999999977,
      "v": 100
    },
    {
      "midi": 60,
      "hit": false,
      "t": 40817.37299999994,
      "d": 144.23099999999977,
      "v": 100
    },
    {
      "midi": 65,
      "hit": false,
      "t": 40817.37299999994,
      "d": 144.23099999999977,
      "v": 100
    },
    {
      "midi": 43,
      "hit": false,
      "t": 40817.37299999994,
      "d": 432.6929999999993,
      "v": 100
    },
    {
      "midi": 57,
      "hit": false,
      "t": 41105.83499999994,
      "d": 144.23099999999977,
      "v": 100
    },
    {
      "midi": 41,
      "hit": false,
      "t": 41250.06599999994,
      "d": 288.46199999999953,
      "v": 100
    },
    {
      "midi": 60,
      "hit": false,
      "t": 41250.06599999994,
      "d": 288.46199999999953,
      "v": 100
    },
    {
      "midi": 65,
      "hit": false,
      "t": 41250.06599999994,
      "d": 288.46199999999953,
      "v": 100
    },
    {
      "midi": 34,
      "hit": false,
      "t": 41538.52799999994,
      "d": 432.6929999999993,
      "v": 100
    },
    {
      "midi": 62,
      "hit": false,
      "t": 41826.98999999994,
      "d": 144.23099999999977,
      "v": 100
    },
    {
      "midi": 65,
      "hit": false,
      "t": 41826.98999999994,
      "d": 144.23099999999977,
      "v": 100
    },
    {
      "midi": 70,
      "hit": false,
      "t": 41826.98999999994,
      "d": 144.23099999999977,
      "v": 100
    },
    {
      "midi": 62,
      "hit": false,
      "t": 41971.22099999994,
      "d": 144.23099999999977,
      "v": 100
    },
    {
      "midi": 65,
      "hit": false,
      "t": 41971.22099999994,
      "d": 144.23099999999977,
      "v": 100
    },
    {
      "midi": 70,
      "hit": false,
      "t": 41971.22099999994,
      "d": 144.23099999999977,
      "v": 100
    },
    {
      "midi": 38,
      "hit": false,
      "t": 41971.22099999994,
      "d": 432.6929999999993,
      "v": 100
    },
    {
      "midi": 62,
      "hit": false,
      "t": 42259.68299999994,
      "d": 144.23099999999977,
      "v": 100
    },
    {
      "midi": 41,
      "hit": false,
      "t": 42403.91399999994,
      "d": 288.46199999999953,
      "v": 100
    },
    {
      "midi": 65,
      "hit": false,
      "t": 42403.91399999994,
      "d": 288.46199999999953,
      "v": 100
    },
    {
      "midi": 70,
      "hit": false,
      "t": 42403.91399999994,
      "d": 288.46199999999953,
      "v": 100
    },
    {
      "midi": 51,
      "hit": false,
      "t": 42692.37599999994,
      "d": 432.6929999999993,
      "v": 115
    },
    {
      "midi": 63,
      "hit": false,
      "t": 42692.37599999994,
      "d": 432.6929999999993,
      "v": 115
    },
    {
      "midi": 67,
      "hit": false,
      "t": 42692.37599999994,
      "d": 432.6929999999993,
      "v": 115
    },
    {
      "midi": 72,
      "hit": false,
      "t": 42692.37599999994,
      "d": 432.6929999999993,
      "v": 115
    },
    {
      "midi": 39,
      "hit": false,
      "t": 43125.06899999994,
      "d": 432.6929999999993,
      "v": 115
    },
    {
      "midi": 63,
      "hit": false,
      "t": 43125.06899999994,
      "d": 432.6929999999993,
      "v": 115
    },
    {
      "midi": 67,
      "hit": false,
      "t": 43125.06899999994,
      "d": 432.6929999999993,
      "v": 115
    },
    {
      "midi": 72,
      "hit": false,
      "t": 43125.06899999994,
      "d": 432.6929999999993,
      "v": 115
    },
    {
      "midi": 51,
      "hit": false,
      "t": 43557.76199999994,
      "d": 288.46199999999953,
      "v": 115
    },
    {
      "midi": 63,
      "hit": false,
      "t": 43557.76199999994,
      "d": 288.46199999999953,
      "v": 115
    },
    {
      "midi": 67,
      "hit": false,
      "t": 43557.76199999994,
      "d": 288.46199999999953,
      "v": 115
    },
    {
      "midi": 72,
      "hit": false,
      "t": 43557.76199999994,
      "d": 288.46199999999953,
      "v": 115
    },
    {
      "midi": 46,
      "hit": false,
      "t": 43846.22399999994,
      "d": 432.6929999999993,
      "v": 100
    },
    {
      "midi": 72,
      "hit": false,
      "t": 43846.22399999994,
      "d": 432.6929999999993,
      "v": 100
    },
    {
      "midi": 62,
      "hit": false,
      "t": 43846.22399999994,
      "d": 2305.292149999994,
      "v": 100
    },
    {
      "midi": 65,
      "hit": false,
      "t": 43846.22399999994,
      "d": 2305.292149999994,
      "v": 100
    },
    {
      "midi": 50,
      "hit": false,
      "t": 44278.916999999936,
      "d": 432.6929999999993,
      "v": 100
    },
    {
      "midi": 70,
      "hit": false,
      "t": 44278.916999999936,
      "d": 1872.5991499999946,
      "v": 100
    },
    {
      "midi": 53,
      "hit": false,
      "t": 44711.609999999935,
      "d": 288.46199999999953,
      "v": 100
    },
    {
      "midi": 34,
      "hit": false,
      "t": 45000.071999999935,
      "d": 432.6929999999993,
      "v": 100
    },
    {
      "midi": 36,
      "hit": false,
      "t": 45432.764999999934,
      "d": 432.6929999999993,
      "v": 100
    },
    {
      "midi": 38,
      "hit": false,
      "t": 45865.45799999993,
      "d": 288.46199999999953,
      "v": 100
    },
    {
      "midi": 39,
      "hit": false,
      "t": 46153.91999999993,
      "d": 72.11549999999988,
      "v": 100
    },
    {
      "midi": 67,
      "hit": false,
      "t": 46153.91999999993,
      "d": 144.23099999999977,
      "v": 100
    },
    {
      "midi": 70,
      "hit": false,
      "t": 46153.91999999993,
      "d": 144.23099999999977,
      "v": 100
    },
    {
      "midi": 75,
      "hit": false,
      "t": 46153.91999999993,
      "d": 144.23099999999977,
      "v": 100
    },
    {
      "midi": 67,
      "hit": false,
      "t": 46298.15099999993,
      "d": 144.23099999999977,
      "v": 100
    },
    {
      "midi": 70,
      "hit": false,
      "t": 46298.15099999993,
      "d": 144.23099999999977,
      "v": 100
    },
    {
      "midi": 75,
      "hit": false,
      "t": 46298.15099999993,
      "d": 144.23099999999977,
      "v": 100
    },
    {
      "midi": 67,
      "hit": false,
      "t": 46442.38199999993,
      "d": 144.23099999999977,
      "v": 100
    },
    {
      "midi": 70,
      "hit": false,
      "t": 46442.38199999993,
      "d": 144.23099999999977,
      "v": 100
    },
    {
      "midi": 75,
      "hit": false,
      "t": 46442.38199999993,
      "d": 144.23099999999977,
      "v": 100
    },
    {
      "midi": 67,
      "hit": false,
      "t": 46586.61299999993,
      "d": 144.23099999999977,
      "v": 100
    },
    {
      "midi": 70,
      "hit": false,
      "t": 46586.61299999993,
      "d": 144.23099999999977,
      "v": 100
    },
    {
      "midi": 75,
      "hit": false,
      "t": 46586.61299999993,
      "d": 144.23099999999977,
      "v": 100
    },
    {
      "midi": 43,
      "hit": false,
      "t": 46730.84399999993,
      "d": 72.11549999999988,
      "v": 100
    },
    {
      "midi": 67,
      "hit": false,
      "t": 46730.84399999993,
      "d": 144.23099999999977,
      "v": 100
    },
    {
      "midi": 70,
      "hit": false,
      "t": 46730.84399999993,
      "d": 144.23099999999977,
      "v": 100
    },
    {
      "midi": 75,
      "hit": false,
      "t": 46730.84399999993,
      "d": 144.23099999999977,
      "v": 100
    },
    {
      "midi": 67,
      "hit": false,
      "t": 46875.07499999993,
      "d": 144.23099999999977,
      "v": 100
    },
    {
      "midi": 70,
      "hit": false,
      "t": 46875.07499999993,
      "d": 144.23099999999977,
      "v": 100
    },
    {
      "midi": 75,
      "hit": false,
      "t": 46875.07499999993,
      "d": 144.23099999999977,
      "v": 100
    },
    {
      "midi": 67,
      "hit": false,
      "t": 47019.30599999993,
      "d": 144.23099999999977,
      "v": 100
    },
    {
      "midi": 70,
      "hit": false,
      "t": 47019.30599999993,
      "d": 144.23099999999977,
      "v": 100
    },
    {
      "midi": 75,
      "hit": false,
      "t": 47019.30599999993,
      "d": 144.23099999999977,
      "v": 100
    },
    {
      "midi": 67,
      "hit": false,
      "t": 47163.53699999993,
      "d": 144.23099999999977,
      "v": 100
    },
    {
      "midi": 70,
      "hit": false,
      "t": 47163.53699999993,
      "d": 144.23099999999977,
      "v": 100
    },
    {
      "midi": 75,
      "hit": false,
      "t": 47163.53699999993,
      "d": 144.23099999999977,
      "v": 100
    },
    {
      "midi": 46,
      "hit": false,
      "t": 47307.76799999993,
      "d": 72.11549999999988,
      "v": 100
    },
    {
      "midi": 67,
      "hit": false,
      "t": 47307.76799999993,
      "d": 144.23099999999977,
      "v": 100
    },
    {
      "midi": 70,
      "hit": false,
      "t": 47307.76799999993,
      "d": 144.23099999999977,
      "v": 100
    },
    {
      "midi": 75,
      "hit": false,
      "t": 47307.76799999993,
      "d": 144.23099999999977,
      "v": 100
    },
    {
      "midi": 67,
      "hit": false,
      "t": 47451.99899999993,
      "d": 144.23099999999977,
      "v": 100
    },
    {
      "midi": 70,
      "hit": false,
      "t": 47451.99899999993,
      "d": 144.23099999999977,
      "v": 100
    },
    {
      "midi": 75,
      "hit": false,
      "t": 47451.99899999993,
      "d": 144.23099999999977,
      "v": 100
    },
    {
      "midi": 67,
      "hit": false,
      "t": 47596.22999999993,
      "d": 144.23099999999977,
      "v": 100
    },
    {
      "midi": 70,
      "hit": false,
      "t": 47596.22999999993,
      "d": 144.23099999999977,
      "v": 100
    },
    {
      "midi": 75,
      "hit": false,
      "t": 47596.22999999993,
      "d": 144.23099999999977,
      "v": 100
    },
    {
      "midi": 67,
      "hit": false,
      "t": 47740.46099999993,
      "d": 144.23099999999977,
      "v": 100
    },
    {
      "midi": 70,
      "hit": false,
      "t": 47740.46099999993,
      "d": 144.23099999999977,
      "v": 100
    },
    {
      "midi": 75,
      "hit": false,
      "t": 47740.46099999993,
      "d": 144.23099999999977,
      "v": 100
    },
    {
      "midi": 67,
      "hit": false,
      "t": 47884.69199999993,
      "d": 144.23099999999977,
      "v": 100
    },
    {
      "midi": 70,
      "hit": false,
      "t": 47884.69199999993,
      "d": 144.23099999999977,
      "v": 100
    },
    {
      "midi": 75,
      "hit": false,
      "t": 47884.69199999993,
      "d": 144.23099999999977,
      "v": 100
    },
    {
      "midi": 67,
      "hit": false,
      "t": 48028.92299999993,
      "d": 144.23099999999977,
      "v": 100
    },
    {
      "midi": 70,
      "hit": false,
      "t": 48028.92299999993,
      "d": 144.23099999999977,
      "v": 100
    },
    {
      "midi": 75,
      "hit": false,
      "t": 48028.92299999993,
      "d": 144.23099999999977,
      "v": 100
    },
    {
      "midi": 67,
      "hit": false,
      "t": 48173.15399999993,
      "d": 144.23099999999977,
      "v": 100
    },
    {
      "midi": 70,
      "hit": false,
      "t": 48173.15399999993,
      "d": 144.23099999999977,
      "v": 100
    },
    {
      "midi": 75,
      "hit": false,
      "t": 48173.15399999993,
      "d": 144.23099999999977,
      "v": 100
    },
    {
      "midi": 43,
      "hit": false,
      "t": 48173.15399999993,
      "d": 288.46199999999953,
      "v": 100
    },
    {
      "midi": 67,
      "hit": false,
      "t": 48317.38499999993,
      "d": 144.23099999999977,
      "v": 100
    },
    {
      "midi": 70,
      "hit": false,
      "t": 48317.38499999993,
      "d": 144.23099999999977,
      "v": 100
    },
    {
      "midi": 75,
      "hit": false,
      "t": 48317.38499999993,
      "d": 144.23099999999977,
      "v": 100
    },
    {
      "midi": 39,
      "hit": false,
      "t": 48461.61599999993,
      "d": 72.11549999999988,
      "v": 100
    },
    {
      "midi": 67,
      "hit": false,
      "t": 48461.61599999993,
      "d": 144.23099999999977,
      "v": 100
    },
    {
      "midi": 70,
      "hit": false,
      "t": 48461.61599999993,
      "d": 144.23099999999977,
      "v": 100
    },
    {
      "midi": 75,
      "hit": false,
      "t": 48461.61599999993,
      "d": 144.23099999999977,
      "v": 100
    },
    {
      "midi": 67,
      "hit": false,
      "t": 48605.84699999993,
      "d": 144.23099999999977,
      "v": 100
    },
    {
      "midi": 70,
      "hit": false,
      "t": 48605.84699999993,
      "d": 144.23099999999977,
      "v": 100
    },
    {
      "midi": 75,
      "hit": false,
      "t": 48605.84699999993,
      "d": 144.23099999999977,
      "v": 100
    },
    {
      "midi": 67,
      "hit": false,
      "t": 48750.07799999993,
      "d": 144.23099999999977,
      "v": 100
    },
    {
      "midi": 70,
      "hit": false,
      "t": 48750.07799999993,
      "d": 144.23099999999977,
      "v": 100
    },
    {
      "midi": 75,
      "hit": false,
      "t": 48750.07799999993,
      "d": 144.23099999999977,
      "v": 100
    },
    {
      "midi": 67,
      "hit": false,
      "t": 48894.30899999993,
      "d": 144.23099999999977,
      "v": 100
    },
    {
      "midi": 70,
      "hit": false,
      "t": 48894.30899999993,
      "d": 144.23099999999977,
      "v": 100
    },
    {
      "midi": 75,
      "hit": false,
      "t": 48894.30899999993,
      "d": 144.23099999999977,
      "v": 100
    },
    {
      "midi": 43,
      "hit": false,
      "t": 49038.53999999993,
      "d": 72.11549999999988,
      "v": 100
    },
    {
      "midi": 67,
      "hit": false,
      "t": 49038.53999999993,
      "d": 144.23099999999977,
      "v": 100
    },
    {
      "midi": 70,
      "hit": false,
      "t": 49038.53999999993,
      "d": 144.23099999999977,
      "v": 100
    },
    {
      "midi": 75,
      "hit": false,
      "t": 49038.53999999993,
      "d": 144.23099999999977,
      "v": 100
    },
    {
      "midi": 67,
      "hit": false,
      "t": 49182.77099999993,
      "d": 144.23099999999977,
      "v": 100
    },
    {
      "midi": 70,
      "hit": false,
      "t": 49182.77099999993,
      "d": 144.23099999999977,
      "v": 100
    },
    {
      "midi": 75,
      "hit": false,
      "t": 49182.77099999993,
      "d": 144.23099999999977,
      "v": 100
    },
    {
      "midi": 67,
      "hit": false,
      "t": 49327.00199999993,
      "d": 144.23099999999977,
      "v": 100
    },
    {
      "midi": 70,
      "hit": false,
      "t": 49327.00199999993,
      "d": 144.23099999999977,
      "v": 100
    },
    {
      "midi": 75,
      "hit": false,
      "t": 49327.00199999993,
      "d": 144.23099999999977,
      "v": 100
    },
    {
      "midi": 67,
      "hit": false,
      "t": 49471.23299999993,
      "d": 144.23099999999977,
      "v": 100
    },
    {
      "midi": 70,
      "hit": false,
      "t": 49471.23299999993,
      "d": 144.23099999999977,
      "v": 100
    },
    {
      "midi": 75,
      "hit": false,
      "t": 49471.23299999993,
      "d": 144.23099999999977,
      "v": 100
    },
    {
      "midi": 46,
      "hit": false,
      "t": 49615.46399999993,
      "d": 72.11549999999988,
      "v": 100
    },
    {
      "midi": 67,
      "hit": false,
      "t": 49615.46399999993,
      "d": 144.23099999999977,
      "v": 100
    },
    {
      "midi": 70,
      "hit": false,
      "t": 49615.46399999993,
      "d": 144.23099999999977,
      "v": 100
    },
    {
      "midi": 75,
      "hit": false,
      "t": 49615.46399999993,
      "d": 144.23099999999977,
      "v": 100
    },
    {
      "midi": 67,
      "hit": false,
      "t": 49759.69499999993,
      "d": 144.23099999999977,
      "v": 100
    },
    {
      "midi": 70,
      "hit": false,
      "t": 49759.69499999993,
      "d": 144.23099999999977,
      "v": 100
    },
    {
      "midi": 75,
      "hit": false,
      "t": 49759.69499999993,
      "d": 144.23099999999977,
      "v": 100
    },
    {
      "midi": 67,
      "hit": false,
      "t": 49903.92599999993,
      "d": 144.23099999999977,
      "v": 100
    },
    {
      "midi": 70,
      "hit": false,
      "t": 49903.92599999993,
      "d": 144.23099999999977,
      "v": 100
    },
    {
      "midi": 75,
      "hit": false,
      "t": 49903.92599999993,
      "d": 144.23099999999977,
      "v": 100
    },
    {
      "midi": 67,
      "hit": false,
      "t": 50048.15699999993,
      "d": 144.23099999999977,
      "v": 100
    },
    {
      "midi": 70,
      "hit": false,
      "t": 50048.15699999993,
      "d": 144.23099999999977,
      "v": 100
    },
    {
      "midi": 75,
      "hit": false,
      "t": 50048.15699999993,
      "d": 144.23099999999977,
      "v": 100
    },
    {
      "midi": 67,
      "hit": false,
      "t": 50192.387999999926,
      "d": 144.23099999999977,
      "v": 100
    },
    {
      "midi": 70,
      "hit": false,
      "t": 50192.387999999926,
      "d": 144.23099999999977,
      "v": 100
    },
    {
      "midi": 75,
      "hit": false,
      "t": 50192.387999999926,
      "d": 144.23099999999977,
      "v": 100
    },
    {
      "midi": 67,
      "hit": false,
      "t": 50336.618999999926,
      "d": 144.23099999999977,
      "v": 100
    },
    {
      "midi": 70,
      "hit": false,
      "t": 50336.618999999926,
      "d": 144.23099999999977,
      "v": 100
    },
    {
      "midi": 75,
      "hit": false,
      "t": 50336.618999999926,
      "d": 144.23099999999977,
      "v": 100
    },
    {
      "midi": 67,
      "hit": false,
      "t": 50480.849999999926,
      "d": 144.23099999999977,
      "v": 100
    },
    {
      "midi": 70,
      "hit": false,
      "t": 50480.849999999926,
      "d": 144.23099999999977,
      "v": 100
    },
    {
      "midi": 75,
      "hit": false,
      "t": 50480.849999999926,
      "d": 144.23099999999977,
      "v": 100
    },
    {
      "midi": 43,
      "hit": false,
      "t": 50480.849999999926,
      "d": 288.46199999999953,
      "v": 100
    },
    {
      "midi": 67,
      "hit": false,
      "t": 50625.080999999926,
      "d": 144.23099999999977,
      "v": 100
    },
    {
      "midi": 70,
      "hit": false,
      "t": 50625.080999999926,
      "d": 144.23099999999977,
      "v": 100
    },
    {
      "midi": 75,
      "hit": false,
      "t": 50625.080999999926,
      "d": 144.23099999999977,
      "v": 100
    },
    {
      "midi": 34,
      "hit": false,
      "t": 50769.311999999925,
      "d": 72.11549999999988,
      "v": 100
    },
    {
      "midi": 65,
      "hit": false,
      "t": 50769.311999999925,
      "d": 144.23099999999977,
      "v": 100
    },
    {
      "midi": 70,
      "hit": false,
      "t": 50769.311999999925,
      "d": 144.23099999999977,
      "v": 100
    },
    {
      "midi": 74,
      "hit": false,
      "t": 50769.311999999925,
      "d": 144.23099999999977,
      "v": 100
    },
    {
      "midi": 65,
      "hit": false,
      "t": 50913.542999999925,
      "d": 144.23099999999977,
      "v": 100
    },
    {
      "midi": 70,
      "hit": false,
      "t": 50913.542999999925,
      "d": 144.23099999999977,
      "v": 100
    },
    {
      "midi": 74,
      "hit": false,
      "t": 50913.542999999925,
      "d": 144.23099999999977,
      "v": 100
    },
    {
      "midi": 65,
      "hit": false,
      "t": 51057.773999999925,
      "d": 144.23099999999977,
      "v": 100
    },
    {
      "midi": 70,
      "hit": false,
      "t": 51057.773999999925,
      "d": 144.23099999999977,
      "v": 100
    },
    {
      "midi": 74,
      "hit": false,
      "t": 51057.773999999925,
      "d": 144.23099999999977,
      "v": 100
    },
    {
      "midi": 65,
      "hit": false,
      "t": 51202.004999999925,
      "d": 144.23099999999977,
      "v": 100
    },
    {
      "midi": 70,
      "hit": false,
      "t": 51202.004999999925,
      "d": 144.23099999999977,
      "v": 100
    },
    {
      "midi": 74,
      "hit": false,
      "t": 51202.004999999925,
      "d": 144.23099999999977,
      "v": 100
    },
    {
      "midi": 38,
      "hit": false,
      "t": 51346.235999999924,
      "d": 72.11549999999988,
      "v": 100
    },
    {
      "midi": 65,
      "hit": false,
      "t": 51346.235999999924,
      "d": 144.23099999999977,
      "v": 100
    },
    {
      "midi": 70,
      "hit": false,
      "t": 51346.235999999924,
      "d": 144.23099999999977,
      "v": 100
    },
    {
      "midi": 74,
      "hit": false,
      "t": 51346.235999999924,
      "d": 144.23099999999977,
      "v": 100
    },
    {
      "midi": 65,
      "hit": false,
      "t": 51490.466999999924,
      "d": 144.23099999999977,
      "v": 100
    },
    {
      "midi": 70,
      "hit": false,
      "t": 51490.466999999924,
      "d": 144.23099999999977,
      "v": 100
    },
    {
      "midi": 74,
      "hit": false,
      "t": 51490.466999999924,
      "d": 144.23099999999977,
      "v": 100
    },
    {
      "midi": 65,
      "hit": false,
      "t": 51634.697999999924,
      "d": 144.23099999999977,
      "v": 100
    },
    {
      "midi": 70,
      "hit": false,
      "t": 51634.697999999924,
      "d": 144.23099999999977,
      "v": 100
    },
    {
      "midi": 74,
      "hit": false,
      "t": 51634.697999999924,
      "d": 144.23099999999977,
      "v": 100
    },
    {
      "midi": 65,
      "hit": false,
      "t": 51778.928999999924,
      "d": 144.23099999999977,
      "v": 100
    },
    {
      "midi": 70,
      "hit": false,
      "t": 51778.928999999924,
      "d": 144.23099999999977,
      "v": 100
    },
    {
      "midi": 74,
      "hit": false,
      "t": 51778.928999999924,
      "d": 144.23099999999977,
      "v": 100
    },
    {
      "midi": 41,
      "hit": false,
      "t": 51923.15999999992,
      "d": 72.11549999999988,
      "v": 100
    },
    {
      "midi": 65,
      "hit": false,
      "t": 51923.15999999992,
      "d": 144.23099999999977,
      "v": 100
    },
    {
      "midi": 70,
      "hit": false,
      "t": 51923.15999999992,
      "d": 144.23099999999977,
      "v": 100
    },
    {
      "midi": 74,
      "hit": false,
      "t": 51923.15999999992,
      "d": 144.23099999999977,
      "v": 100
    },
    {
      "midi": 65,
      "hit": false,
      "t": 52067.39099999992,
      "d": 144.23099999999977,
      "v": 100
    },
    {
      "midi": 70,
      "hit": false,
      "t": 52067.39099999992,
      "d": 144.23099999999977,
      "v": 100
    },
    {
      "midi": 74,
      "hit": false,
      "t": 52067.39099999992,
      "d": 144.23099999999977,
      "v": 100
    },
    {
      "midi": 65,
      "hit": false,
      "t": 52211.62199999992,
      "d": 144.23099999999977,
      "v": 100
    },
    {
      "midi": 70,
      "hit": false,
      "t": 52211.62199999992,
      "d": 144.23099999999977,
      "v": 100
    },
    {
      "midi": 74,
      "hit": false,
      "t": 52211.62199999992,
      "d": 144.23099999999977,
      "v": 100
    },
    {
      "midi": 65,
      "hit": false,
      "t": 52355.85299999992,
      "d": 144.23099999999977,
      "v": 100
    },
    {
      "midi": 70,
      "hit": false,
      "t": 52355.85299999992,
      "d": 144.23099999999977,
      "v": 100
    },
    {
      "midi": 74,
      "hit": false,
      "t": 52355.85299999992,
      "d": 144.23099999999977,
      "v": 100
    },
    {
      "midi": 65,
      "hit": false,
      "t": 52500.08399999992,
      "d": 144.23099999999977,
      "v": 100
    },
    {
      "midi": 70,
      "hit": false,
      "t": 52500.08399999992,
      "d": 144.23099999999977,
      "v": 100
    },
    {
      "midi": 74,
      "hit": false,
      "t": 52500.08399999992,
      "d": 144.23099999999977,
      "v": 100
    },
    {
      "midi": 65,
      "hit": false,
      "t": 52644.31499999992,
      "d": 144.23099999999977,
      "v": 100
    },
    {
      "midi": 70,
      "hit": false,
      "t": 52644.31499999992,
      "d": 144.23099999999977,
      "v": 100
    },
    {
      "midi": 74,
      "hit": false,
      "t": 52644.31499999992,
      "d": 144.23099999999977,
      "v": 100
    },
    {
      "midi": 65,
      "hit": false,
      "t": 52788.54599999992,
      "d": 144.23099999999977,
      "v": 100
    },
    {
      "midi": 70,
      "hit": false,
      "t": 52788.54599999992,
      "d": 144.23099999999977,
      "v": 100
    },
    {
      "midi": 74,
      "hit": false,
      "t": 52788.54599999992,
      "d": 144.23099999999977,
      "v": 100
    },
    {
      "midi": 38,
      "hit": false,
      "t": 52788.54599999992,
      "d": 288.46199999999953,
      "v": 100
    },
    {
      "midi": 65,
      "hit": false,
      "t": 52932.77699999992,
      "d": 144.23099999999977,
      "v": 100
    },
    {
      "midi": 70,
      "hit": false,
      "t": 52932.77699999992,
      "d": 144.23099999999977,
      "v": 100
    },
    {
      "midi": 74,
      "hit": false,
      "t": 52932.77699999992,
      "d": 144.23099999999977,
      "v": 100
    },
    {
      "midi": 34,
      "hit": false,
      "t": 53077.00799999992,
      "d": 72.11549999999988,
      "v": 100
    },
    {
      "midi": 65,
      "hit": false,
      "t": 53077.00799999992,
      "d": 144.23099999999977,
      "v": 100
    },
    {
      "midi": 70,
      "hit": false,
      "t": 53077.00799999992,
      "d": 144.23099999999977,
      "v": 100
    },
    {
      "midi": 74,
      "hit": false,
      "t": 53077.00799999992,
      "d": 144.23099999999977,
      "v": 100
    },
    {
      "midi": 65,
      "hit": false,
      "t": 53221.23899999992,
      "d": 144.23099999999977,
      "v": 100
    },
    {
      "midi": 70,
      "hit": false,
      "t": 53221.23899999992,
      "d": 144.23099999999977,
      "v": 100
    },
    {
      "midi": 74,
      "hit": false,
      "t": 53221.23899999992,
      "d": 144.23099999999977,
      "v": 100
    },
    {
      "midi": 65,
      "hit": false,
      "t": 53365.46999999992,
      "d": 144.23099999999977,
      "v": 100
    },
    {
      "midi": 70,
      "hit": false,
      "t": 53365.46999999992,
      "d": 144.23099999999977,
      "v": 100
    },
    {
      "midi": 74,
      "hit": false,
      "t": 53365.46999999992,
      "d": 144.23099999999977,
      "v": 100
    },
    {
      "midi": 65,
      "hit": false,
      "t": 53509.70099999992,
      "d": 144.23099999999977,
      "v": 100
    },
    {
      "midi": 70,
      "hit": false,
      "t": 53509.70099999992,
      "d": 144.23099999999977,
      "v": 100
    },
    {
      "midi": 74,
      "hit": false,
      "t": 53509.70099999992,
      "d": 144.23099999999977,
      "v": 100
    },
    {
      "midi": 38,
      "hit": false,
      "t": 53653.93199999992,
      "d": 72.11549999999988,
      "v": 100
    },
    {
      "midi": 65,
      "hit": false,
      "t": 53653.93199999992,
      "d": 144.23099999999977,
      "v": 100
    },
    {
      "midi": 70,
      "hit": false,
      "t": 53653.93199999992,
      "d": 144.23099999999977,
      "v": 100
    },
    {
      "midi": 74,
      "hit": false,
      "t": 53653.93199999992,
      "d": 144.23099999999977,
      "v": 100
    },
    {
      "midi": 65,
      "hit": false,
      "t": 53798.16299999992,
      "d": 144.23099999999977,
      "v": 100
    },
    {
      "midi": 70,
      "hit": false,
      "t": 53798.16299999992,
      "d": 144.23099999999977,
      "v": 100
    },
    {
      "midi": 74,
      "hit": false,
      "t": 53798.16299999992,
      "d": 144.23099999999977,
      "v": 100
    },
    {
      "midi": 65,
      "hit": false,
      "t": 53942.39399999992,
      "d": 144.23099999999977,
      "v": 100
    },
    {
      "midi": 70,
      "hit": false,
      "t": 53942.39399999992,
      "d": 144.23099999999977,
      "v": 100
    },
    {
      "midi": 74,
      "hit": false,
      "t": 53942.39399999992,
      "d": 144.23099999999977,
      "v": 100
    },
    {
      "midi": 65,
      "hit": false,
      "t": 54086.62499999992,
      "d": 144.23099999999977,
      "v": 100
    },
    {
      "midi": 70,
      "hit": false,
      "t": 54086.62499999992,
      "d": 144.23099999999977,
      "v": 100
    },
    {
      "midi": 74,
      "hit": false,
      "t": 54086.62499999992,
      "d": 144.23099999999977,
      "v": 100
    },
    {
      "midi": 41,
      "hit": false,
      "t": 54230.85599999992,
      "d": 72.11549999999988,
      "v": 100
    },
    {
      "midi": 65,
      "hit": false,
      "t": 54230.85599999992,
      "d": 144.23099999999977,
      "v": 100
    },
    {
      "midi": 70,
      "hit": false,
      "t": 54230.85599999992,
      "d": 144.23099999999977,
      "v": 100
    },
    {
      "midi": 74,
      "hit": false,
      "t": 54230.85599999992,
      "d": 144.23099999999977,
      "v": 100
    },
    {
      "midi": 65,
      "hit": false,
      "t": 54375.08699999992,
      "d": 144.23099999999977,
      "v": 100
    },
    {
      "midi": 70,
      "hit": false,
      "t": 54375.08699999992,
      "d": 144.23099999999977,
      "v": 100
    },
    {
      "midi": 74,
      "hit": false,
      "t": 54375.08699999992,
      "d": 144.23099999999977,
      "v": 100
    },
    {
      "midi": 65,
      "hit": false,
      "t": 54519.31799999992,
      "d": 144.23099999999977,
      "v": 100
    },
    {
      "midi": 70,
      "hit": false,
      "t": 54519.31799999992,
      "d": 144.23099999999977,
      "v": 100
    },
    {
      "midi": 74,
      "hit": false,
      "t": 54519.31799999992,
      "d": 144.23099999999977,
      "v": 100
    },
    {
      "midi": 65,
      "hit": false,
      "t": 54663.54899999992,
      "d": 144.23099999999977,
      "v": 100
    },
    {
      "midi": 70,
      "hit": false,
      "t": 54663.54899999992,
      "d": 144.23099999999977,
      "v": 100
    },
    {
      "midi": 74,
      "hit": false,
      "t": 54663.54899999992,
      "d": 144.23099999999977,
      "v": 100
    },
    {
      "midi": 65,
      "hit": false,
      "t": 54807.77999999992,
      "d": 144.23099999999977,
      "v": 100
    },
    {
      "midi": 70,
      "hit": false,
      "t": 54807.77999999992,
      "d": 144.23099999999977,
      "v": 100
    },
    {
      "midi": 74,
      "hit": false,
      "t": 54807.77999999992,
      "d": 144.23099999999977,
      "v": 100
    },
    {
      "midi": 65,
      "hit": false,
      "t": 54952.01099999992,
      "d": 144.23099999999977,
      "v": 100
    },
    {
      "midi": 70,
      "hit": false,
      "t": 54952.01099999992,
      "d": 144.23099999999977,
      "v": 100
    },
    {
      "midi": 74,
      "hit": false,
      "t": 54952.01099999992,
      "d": 144.23099999999977,
      "v": 100
    },
    {
      "midi": 65,
      "hit": false,
      "t": 55096.24199999992,
      "d": 144.23099999999977,
      "v": 100
    },
    {
      "midi": 70,
      "hit": false,
      "t": 55096.24199999992,
      "d": 144.23099999999977,
      "v": 100
    },
    {
      "midi": 74,
      "hit": false,
      "t": 55096.24199999992,
      "d": 144.23099999999977,
      "v": 100
    },
    {
      "midi": 38,
      "hit": false,
      "t": 55096.24199999992,
      "d": 288.46199999999953,
      "v": 100
    },
    {
      "midi": 65,
      "hit": false,
      "t": 55240.47299999992,
      "d": 144.23099999999977,
      "v": 100
    },
    {
      "midi": 70,
      "hit": false,
      "t": 55240.47299999992,
      "d": 144.23099999999977,
      "v": 100
    },
    {
      "midi": 74,
      "hit": false,
      "t": 55240.47299999992,
      "d": 144.23099999999977,
      "v": 100
    },
    {
      "midi": 39,
      "hit": false,
      "t": 55384.70399999992,
      "d": 72.11549999999988,
      "v": 100
    },
    {
      "midi": 67,
      "hit": false,
      "t": 55384.70399999992,
      "d": 144.23099999999977,
      "v": 100
    },
    {
      "midi": 70,
      "hit": false,
      "t": 55384.70399999992,
      "d": 144.23099999999977,
      "v": 100
    },
    {
      "midi": 75,
      "hit": false,
      "t": 55384.70399999992,
      "d": 144.23099999999977,
      "v": 100
    },
    {
      "midi": 67,
      "hit": false,
      "t": 55528.93499999992,
      "d": 144.23099999999977,
      "v": 100
    },
    {
      "midi": 70,
      "hit": false,
      "t": 55528.93499999992,
      "d": 144.23099999999977,
      "v": 100
    },
    {
      "midi": 75,
      "hit": false,
      "t": 55528.93499999992,
      "d": 144.23099999999977,
      "v": 100
    },
    {
      "midi": 67,
      "hit": false,
      "t": 55673.16599999992,
      "d": 144.23099999999977,
      "v": 100
    },
    {
      "midi": 70,
      "hit": false,
      "t": 55673.16599999992,
      "d": 144.23099999999977,
      "v": 100
    },
    {
      "midi": 75,
      "hit": false,
      "t": 55673.16599999992,
      "d": 144.23099999999977,
      "v": 100
    },
    {
      "midi": 67,
      "hit": false,
      "t": 55817.39699999992,
      "d": 144.23099999999977,
      "v": 100
    },
    {
      "midi": 70,
      "hit": false,
      "t": 55817.39699999992,
      "d": 144.23099999999977,
      "v": 100
    },
    {
      "midi": 75,
      "hit": false,
      "t": 55817.39699999992,
      "d": 144.23099999999977,
      "v": 100
    },
    {
      "midi": 43,
      "hit": false,
      "t": 55961.62799999992,
      "d": 72.11549999999988,
      "v": 100
    },
    {
      "midi": 67,
      "hit": false,
      "t": 55961.62799999992,
      "d": 144.23099999999977,
      "v": 100
    },
    {
      "midi": 70,
      "hit": false,
      "t": 55961.62799999992,
      "d": 144.23099999999977,
      "v": 100
    },
    {
      "midi": 75,
      "hit": false,
      "t": 55961.62799999992,
      "d": 144.23099999999977,
      "v": 100
    },
    {
      "midi": 67,
      "hit": false,
      "t": 56105.85899999992,
      "d": 144.23099999999977,
      "v": 100
    },
    {
      "midi": 70,
      "hit": false,
      "t": 56105.85899999992,
      "d": 144.23099999999977,
      "v": 100
    },
    {
      "midi": 75,
      "hit": false,
      "t": 56105.85899999992,
      "d": 144.23099999999977,
      "v": 100
    },
    {
      "midi": 67,
      "hit": false,
      "t": 56250.08999999992,
      "d": 144.23099999999977,
      "v": 100
    },
    {
      "midi": 70,
      "hit": false,
      "t": 56250.08999999992,
      "d": 144.23099999999977,
      "v": 100
    },
    {
      "midi": 75,
      "hit": false,
      "t": 56250.08999999992,
      "d": 144.23099999999977,
      "v": 100
    },
    {
      "midi": 67,
      "hit": false,
      "t": 56394.320999999916,
      "d": 144.23099999999977,
      "v": 100
    },
    {
      "midi": 70,
      "hit": false,
      "t": 56394.320999999916,
      "d": 144.23099999999977,
      "v": 100
    },
    {
      "midi": 75,
      "hit": false,
      "t": 56394.320999999916,
      "d": 144.23099999999977,
      "v": 100
    },
    {
      "midi": 46,
      "hit": false,
      "t": 56538.551999999916,
      "d": 72.11549999999988,
      "v": 100
    },
    {
      "midi": 67,
      "hit": false,
      "t": 56538.551999999916,
      "d": 144.23099999999977,
      "v": 100
    },
    {
      "midi": 70,
      "hit": false,
      "t": 56538.551999999916,
      "d": 144.23099999999977,
      "v": 100
    },
    {
      "midi": 75,
      "hit": false,
      "t": 56538.551999999916,
      "d": 144.23099999999977,
      "v": 100
    },
    {
      "midi": 67,
      "hit": false,
      "t": 56682.782999999916,
      "d": 144.23099999999977,
      "v": 100
    },
    {
      "midi": 70,
      "hit": false,
      "t": 56682.782999999916,
      "d": 144.23099999999977,
      "v": 100
    },
    {
      "midi": 75,
      "hit": false,
      "t": 56682.782999999916,
      "d": 144.23099999999977,
      "v": 100
    },
    {
      "midi": 67,
      "hit": false,
      "t": 56827.013999999916,
      "d": 144.23099999999977,
      "v": 100
    },
    {
      "midi": 70,
      "hit": false,
      "t": 56827.013999999916,
      "d": 144.23099999999977,
      "v": 100
    },
    {
      "midi": 75,
      "hit": false,
      "t": 56827.013999999916,
      "d": 144.23099999999977,
      "v": 100
    },
    {
      "midi": 67,
      "hit": false,
      "t": 56971.244999999915,
      "d": 144.23099999999977,
      "v": 100
    },
    {
      "midi": 70,
      "hit": false,
      "t": 56971.244999999915,
      "d": 144.23099999999977,
      "v": 100
    },
    {
      "midi": 75,
      "hit": false,
      "t": 56971.244999999915,
      "d": 144.23099999999977,
      "v": 100
    },
    {
      "midi": 67,
      "hit": false,
      "t": 57115.475999999915,
      "d": 144.23099999999977,
      "v": 100
    },
    {
      "midi": 70,
      "hit": false,
      "t": 57115.475999999915,
      "d": 144.23099999999977,
      "v": 100
    },
    {
      "midi": 75,
      "hit": false,
      "t": 57115.475999999915,
      "d": 144.23099999999977,
      "v": 100
    },
    {
      "midi": 67,
      "hit": false,
      "t": 57259.706999999915,
      "d": 144.23099999999977,
      "v": 100
    },
    {
      "midi": 70,
      "hit": false,
      "t": 57259.706999999915,
      "d": 144.23099999999977,
      "v": 100
    },
    {
      "midi": 75,
      "hit": false,
      "t": 57259.706999999915,
      "d": 144.23099999999977,
      "v": 100
    },
    {
      "midi": 67,
      "hit": false,
      "t": 57403.937999999915,
      "d": 144.23099999999977,
      "v": 100
    },
    {
      "midi": 70,
      "hit": false,
      "t": 57403.937999999915,
      "d": 144.23099999999977,
      "v": 100
    },
    {
      "midi": 75,
      "hit": false,
      "t": 57403.937999999915,
      "d": 144.23099999999977,
      "v": 100
    },
    {
      "midi": 43,
      "hit": false,
      "t": 57403.937999999915,
      "d": 288.46199999999953,
      "v": 100
    },
    {
      "midi": 67,
      "hit": false,
      "t": 57548.168999999914,
      "d": 144.23099999999977,
      "v": 100
    },
    {
      "midi": 70,
      "hit": false,
      "t": 57548.168999999914,
      "d": 144.23099999999977,
      "v": 100
    },
    {
      "midi": 75,
      "hit": false,
      "t": 57548.168999999914,
      "d": 144.23099999999977,
      "v": 100
    },
    {
      "midi": 39,
      "hit": false,
      "t": 57692.399999999914,
      "d": 72.11549999999988,
      "v": 100
    },
    {
      "midi": 67,
      "hit": false,
      "t": 57692.399999999914,
      "d": 144.23099999999977,
      "v": 100
    },
    {
      "midi": 70,
      "hit": false,
      "t": 57692.399999999914,
      "d": 144.23099999999977,
      "v": 100
    },
    {
      "midi": 75,
      "hit": false,
      "t": 57692.399999999914,
      "d": 144.23099999999977,
      "v": 100
    },
    {
      "midi": 67,
      "hit": false,
      "t": 57836.630999999914,
      "d": 144.23099999999977,
      "v": 100
    },
    {
      "midi": 70,
      "hit": false,
      "t": 57836.630999999914,
      "d": 144.23099999999977,
      "v": 100
    },
    {
      "midi": 75,
      "hit": false,
      "t": 57836.630999999914,
      "d": 144.23099999999977,
      "v": 100
    },
    {
      "midi": 67,
      "hit": false,
      "t": 57980.861999999914,
      "d": 144.23099999999977,
      "v": 100
    },
    {
      "midi": 70,
      "hit": false,
      "t": 57980.861999999914,
      "d": 144.23099999999977,
      "v": 100
    },
    {
      "midi": 75,
      "hit": false,
      "t": 57980.861999999914,
      "d": 144.23099999999977,
      "v": 100
    },
    {
      "midi": 67,
      "hit": false,
      "t": 58125.09299999991,
      "d": 144.23099999999977,
      "v": 100
    },
    {
      "midi": 70,
      "hit": false,
      "t": 58125.09299999991,
      "d": 144.23099999999977,
      "v": 100
    },
    {
      "midi": 75,
      "hit": false,
      "t": 58125.09299999991,
      "d": 144.23099999999977,
      "v": 100
    },
    {
      "midi": 43,
      "hit": false,
      "t": 58269.32399999991,
      "d": 72.11549999999988,
      "v": 100
    },
    {
      "midi": 67,
      "hit": false,
      "t": 58269.32399999991,
      "d": 144.23099999999977,
      "v": 100
    },
    {
      "midi": 70,
      "hit": false,
      "t": 58269.32399999991,
      "d": 144.23099999999977,
      "v": 100
    },
    {
      "midi": 75,
      "hit": false,
      "t": 58269.32399999991,
      "d": 144.23099999999977,
      "v": 100
    },
    {
      "midi": 67,
      "hit": false,
      "t": 58413.55499999991,
      "d": 144.23099999999977,
      "v": 100
    },
    {
      "midi": 70,
      "hit": false,
      "t": 58413.55499999991,
      "d": 144.23099999999977,
      "v": 100
    },
    {
      "midi": 75,
      "hit": false,
      "t": 58413.55499999991,
      "d": 144.23099999999977,
      "v": 100
    },
    {
      "midi": 67,
      "hit": false,
      "t": 58557.78599999991,
      "d": 144.23099999999977,
      "v": 100
    },
    {
      "midi": 70,
      "hit": false,
      "t": 58557.78599999991,
      "d": 144.23099999999977,
      "v": 100
    },
    {
      "midi": 75,
      "hit": false,
      "t": 58557.78599999991,
      "d": 144.23099999999977,
      "v": 100
    },
    {
      "midi": 67,
      "hit": false,
      "t": 58702.01699999991,
      "d": 144.23099999999977,
      "v": 100
    },
    {
      "midi": 70,
      "hit": false,
      "t": 58702.01699999991,
      "d": 144.23099999999977,
      "v": 100
    },
    {
      "midi": 75,
      "hit": false,
      "t": 58702.01699999991,
      "d": 144.23099999999977,
      "v": 100
    },
    {
      "midi": 46,
      "hit": false,
      "t": 58846.24799999991,
      "d": 72.11549999999988,
      "v": 100
    },
    {
      "midi": 67,
      "hit": false,
      "t": 58846.24799999991,
      "d": 144.23099999999977,
      "v": 100
    },
    {
      "midi": 70,
      "hit": false,
      "t": 58846.24799999991,
      "d": 144.23099999999977,
      "v": 100
    },
    {
      "midi": 75,
      "hit": false,
      "t": 58846.24799999991,
      "d": 144.23099999999977,
      "v": 100
    },
    {
      "midi": 67,
      "hit": false,
      "t": 58990.47899999991,
      "d": 144.23099999999977,
      "v": 100
    },
    {
      "midi": 70,
      "hit": false,
      "t": 58990.47899999991,
      "d": 144.23099999999977,
      "v": 100
    },
    {
      "midi": 75,
      "hit": false,
      "t": 58990.47899999991,
      "d": 144.23099999999977,
      "v": 100
    },
    {
      "midi": 67,
      "hit": false,
      "t": 59134.70999999991,
      "d": 144.23099999999977,
      "v": 100
    },
    {
      "midi": 70,
      "hit": false,
      "t": 59134.70999999991,
      "d": 144.23099999999977,
      "v": 100
    },
    {
      "midi": 75,
      "hit": false,
      "t": 59134.70999999991,
      "d": 144.23099999999977,
      "v": 100
    },
    {
      "midi": 67,
      "hit": false,
      "t": 59278.94099999991,
      "d": 144.23099999999977,
      "v": 100
    },
    {
      "midi": 70,
      "hit": false,
      "t": 59278.94099999991,
      "d": 144.23099999999977,
      "v": 100
    },
    {
      "midi": 75,
      "hit": false,
      "t": 59278.94099999991,
      "d": 144.23099999999977,
      "v": 100
    },
    {
      "midi": 67,
      "hit": false,
      "t": 59423.17199999991,
      "d": 144.23099999999977,
      "v": 100
    },
    {
      "midi": 70,
      "hit": false,
      "t": 59423.17199999991,
      "d": 144.23099999999977,
      "v": 100
    },
    {
      "midi": 75,
      "hit": false,
      "t": 59423.17199999991,
      "d": 144.23099999999977,
      "v": 100
    },
    {
      "midi": 67,
      "hit": false,
      "t": 59567.40299999991,
      "d": 144.23099999999977,
      "v": 100
    },
    {
      "midi": 70,
      "hit": false,
      "t": 59567.40299999991,
      "d": 144.23099999999977,
      "v": 100
    },
    {
      "midi": 75,
      "hit": false,
      "t": 59567.40299999991,
      "d": 144.23099999999977,
      "v": 100
    },
    {
      "midi": 67,
      "hit": false,
      "t": 59711.63399999991,
      "d": 144.23099999999977,
      "v": 100
    },
    {
      "midi": 70,
      "hit": false,
      "t": 59711.63399999991,
      "d": 144.23099999999977,
      "v": 100
    },
    {
      "midi": 75,
      "hit": false,
      "t": 59711.63399999991,
      "d": 144.23099999999977,
      "v": 100
    },
    {
      "midi": 43,
      "hit": false,
      "t": 59711.63399999991,
      "d": 288.46199999999953,
      "v": 100
    },
    {
      "midi": 67,
      "hit": false,
      "t": 59855.86499999991,
      "d": 144.23099999999977,
      "v": 100
    },
    {
      "midi": 70,
      "hit": false,
      "t": 59855.86499999991,
      "d": 144.23099999999977,
      "v": 100
    },
    {
      "midi": 75,
      "hit": false,
      "t": 59855.86499999991,
      "d": 144.23099999999977,
      "v": 100
    },
    {
      "midi": 36,
      "hit": false,
      "t": 60000.09599999991,
      "d": 72.11549999999988,
      "v": 100
    },
    {
      "midi": 67,
      "hit": false,
      "t": 60000.09599999991,
      "d": 144.23099999999977,
      "v": 100
    },
    {
      "midi": 72,
      "hit": false,
      "t": 60000.09599999991,
      "d": 144.23099999999977,
      "v": 100
    },
    {
      "midi": 76,
      "hit": false,
      "t": 60000.09599999991,
      "d": 144.23099999999977,
      "v": 100
    },
    {
      "midi": 67,
      "hit": false,
      "t": 60144.32699999991,
      "d": 144.23099999999977,
      "v": 100
    },
    {
      "midi": 72,
      "hit": false,
      "t": 60144.32699999991,
      "d": 144.23099999999977,
      "v": 100
    },
    {
      "midi": 76,
      "hit": false,
      "t": 60144.32699999991,
      "d": 144.23099999999977,
      "v": 100
    },
    {
      "midi": 67,
      "hit": false,
      "t": 60288.55799999991,
      "d": 144.23099999999977,
      "v": 100
    },
    {
      "midi": 72,
      "hit": false,
      "t": 60288.55799999991,
      "d": 144.23099999999977,
      "v": 100
    },
    {
      "midi": 76,
      "hit": false,
      "t": 60288.55799999991,
      "d": 144.23099999999977,
      "v": 100
    },
    {
      "midi": 67,
      "hit": false,
      "t": 60432.78899999991,
      "d": 144.23099999999977,
      "v": 100
    },
    {
      "midi": 72,
      "hit": false,
      "t": 60432.78899999991,
      "d": 144.23099999999977,
      "v": 100
    },
    {
      "midi": 76,
      "hit": false,
      "t": 60432.78899999991,
      "d": 144.23099999999977,
      "v": 100
    },
    {
      "midi": 40,
      "hit": false,
      "t": 60577.01999999991,
      "d": 72.11549999999988,
      "v": 100
    },
    {
      "midi": 67,
      "hit": false,
      "t": 60577.01999999991,
      "d": 144.23099999999977,
      "v": 100
    },
    {
      "midi": 72,
      "hit": false,
      "t": 60577.01999999991,
      "d": 144.23099999999977,
      "v": 100
    },
    {
      "midi": 76,
      "hit": false,
      "t": 60577.01999999991,
      "d": 144.23099999999977,
      "v": 100
    },
    {
      "midi": 67,
      "hit": false,
      "t": 60721.25099999991,
      "d": 144.23099999999977,
      "v": 100
    },
    {
      "midi": 72,
      "hit": false,
      "t": 60721.25099999991,
      "d": 144.23099999999977,
      "v": 100
    },
    {
      "midi": 76,
      "hit": false,
      "t": 60721.25099999991,
      "d": 144.23099999999977,
      "v": 100
    },
    {
      "midi": 67,
      "hit": false,
      "t": 60865.48199999991,
      "d": 144.23099999999977,
      "v": 100
    },
    {
      "midi": 72,
      "hit": false,
      "t": 60865.48199999991,
      "d": 144.23099999999977,
      "v": 100
    },
    {
      "midi": 76,
      "hit": false,
      "t": 60865.48199999991,
      "d": 144.23099999999977,
      "v": 100
    },
    {
      "midi": 67,
      "hit": false,
      "t": 61009.71299999991,
      "d": 144.23099999999977,
      "v": 100
    },
    {
      "midi": 72,
      "hit": false,
      "t": 61009.71299999991,
      "d": 144.23099999999977,
      "v": 100
    },
    {
      "midi": 76,
      "hit": false,
      "t": 61009.71299999991,
      "d": 144.23099999999977,
      "v": 100
    },
    {
      "midi": 43,
      "hit": false,
      "t": 61153.94399999991,
      "d": 72.11549999999988,
      "v": 100
    },
    {
      "midi": 67,
      "hit": false,
      "t": 61153.94399999991,
      "d": 144.23099999999977,
      "v": 100
    },
    {
      "midi": 72,
      "hit": false,
      "t": 61153.94399999991,
      "d": 144.23099999999977,
      "v": 100
    },
    {
      "midi": 76,
      "hit": false,
      "t": 61153.94399999991,
      "d": 144.23099999999977,
      "v": 100
    },
    {
      "midi": 67,
      "hit": false,
      "t": 61298.17499999991,
      "d": 144.23099999999977,
      "v": 100
    },
    {
      "midi": 72,
      "hit": false,
      "t": 61298.17499999991,
      "d": 144.23099999999977,
      "v": 100
    },
    {
      "midi": 76,
      "hit": false,
      "t": 61298.17499999991,
      "d": 144.23099999999977,
      "v": 100
    },
    {
      "midi": 67,
      "hit": false,
      "t": 61442.40599999991,
      "d": 144.23099999999977,
      "v": 100
    },
    {
      "midi": 72,
      "hit": false,
      "t": 61442.40599999991,
      "d": 144.23099999999977,
      "v": 100
    },
    {
      "midi": 76,
      "hit": false,
      "t": 61442.40599999991,
      "d": 144.23099999999977,
      "v": 100
    },
    {
      "midi": 67,
      "hit": false,
      "t": 61586.63699999991,
      "d": 144.23099999999977,
      "v": 100
    },
    {
      "midi": 72,
      "hit": false,
      "t": 61586.63699999991,
      "d": 144.23099999999977,
      "v": 100
    },
    {
      "midi": 76,
      "hit": false,
      "t": 61586.63699999991,
      "d": 144.23099999999977,
      "v": 100
    },
    {
      "midi": 67,
      "hit": false,
      "t": 61730.86799999991,
      "d": 144.23099999999977,
      "v": 100
    },
    {
      "midi": 72,
      "hit": false,
      "t": 61730.86799999991,
      "d": 144.23099999999977,
      "v": 100
    },
    {
      "midi": 76,
      "hit": false,
      "t": 61730.86799999991,
      "d": 144.23099999999977,
      "v": 100
    },
    {
      "midi": 67,
      "hit": false,
      "t": 61875.09899999991,
      "d": 144.23099999999977,
      "v": 100
    },
    {
      "midi": 72,
      "hit": false,
      "t": 61875.09899999991,
      "d": 144.23099999999977,
      "v": 100
    },
    {
      "midi": 76,
      "hit": false,
      "t": 61875.09899999991,
      "d": 144.23099999999977,
      "v": 100
    },
    {
      "midi": 67,
      "hit": false,
      "t": 62019.32999999991,
      "d": 144.23099999999977,
      "v": 100
    },
    {
      "midi": 72,
      "hit": false,
      "t": 62019.32999999991,
      "d": 144.23099999999977,
      "v": 100
    },
    {
      "midi": 76,
      "hit": false,
      "t": 62019.32999999991,
      "d": 144.23099999999977,
      "v": 100
    },
    {
      "midi": 40,
      "hit": false,
      "t": 62019.32999999991,
      "d": 288.46199999999953,
      "v": 100
    },
    {
      "midi": 67,
      "hit": false,
      "t": 62163.56099999991,
      "d": 144.23099999999977,
      "v": 100
    },
    {
      "midi": 72,
      "hit": false,
      "t": 62163.56099999991,
      "d": 144.23099999999977,
      "v": 100
    },
    {
      "midi": 76,
      "hit": false,
      "t": 62163.56099999991,
      "d": 144.23099999999977,
      "v": 100
    },
    {
      "midi": 29,
      "hit": false,
      "t": 62307.79199999991,
      "d": 288.46199999999953,
      "v": 110
    },
    {
      "midi": 41,
      "hit": false,
      "t": 62307.79199999991,
      "d": 288.46199999999953,
      "v": 110
    },
    {
      "midi": 65,
      "hit": false,
      "t": 62307.79199999991,
      "d": 288.46199999999953,
      "v": 110
    },
    {
      "midi": 77,
      "hit": false,
      "t": 62307.79199999991,
      "d": 288.46199999999953,
      "v": 110
    },
    {
      "midi": 46,
      "hit": false,
      "t": 64615.4879999999,
      "d": 288.46199999999953,
      "v": 100
    },
    {
      "midi": 58,
      "hit": false,
      "t": 64615.4879999999,
      "d": 288.46199999999953,
      "v": 100
    },
    {
      "midi": 41,
      "hit": false,
      "t": 64903.9499999999,
      "d": 144.23099999999977,
      "v": 100
    },
    {
      "midi": 53,
      "hit": false,
      "t": 64903.9499999999,
      "d": 144.23099999999977,
      "v": 100
    },
    {
      "midi": 46,
      "hit": false,
      "t": 65048.1809999999,
      "d": 286.0581499999971,
      "v": 100
    },
    {
      "midi": 58,
      "hit": false,
      "t": 65048.1809999999,
      "d": 286.0581499999971,
      "v": 100
    },
    {
      "midi": 46,
      "hit": false,
      "t": 65336.6429999999,
      "d": 144.23099999999977,
      "v": 100
    },
    {
      "midi": 58,
      "hit": false,
      "t": 65336.6429999999,
      "d": 144.23099999999977,
      "v": 100
    },
    {
      "midi": 45,
      "hit": false,
      "t": 65480.8739999999,
      "d": 288.4620000000068,
      "v": 100
    },
    {
      "midi": 57,
      "hit": false,
      "t": 65480.8739999999,
      "d": 288.4620000000068,
      "v": 100
    },
    {
      "midi": 43,
      "hit": false,
      "t": 65769.33599999991,
      "d": 288.46199999999953,
      "v": 100
    },
    {
      "midi": 55,
      "hit": false,
      "t": 65769.33599999991,
      "d": 288.46199999999953,
      "v": 100
    },
    {
      "midi": 38,
      "hit": false,
      "t": 66057.79799999991,
      "d": 144.23099999999977,
      "v": 100
    },
    {
      "midi": 50,
      "hit": false,
      "t": 66057.79799999991,
      "d": 144.23099999999977,
      "v": 100
    },
    {
      "midi": 43,
      "hit": false,
      "t": 66202.02899999991,
      "d": 286.0581499999971,
      "v": 100
    },
    {
      "midi": 55,
      "hit": false,
      "t": 66202.02899999991,
      "d": 286.0581499999971,
      "v": 100
    },
    {
      "midi": 43,
      "hit": false,
      "t": 66490.4909999999,
      "d": 144.23099999999977,
      "v": 100
    },
    {
      "midi": 55,
      "hit": false,
      "t": 66490.4909999999,
      "d": 144.23099999999977,
      "v": 100
    },
    {
      "midi": 45,
      "hit": false,
      "t": 66634.7219999999,
      "d": 288.46199999999953,
      "v": 100
    },
    {
      "midi": 57,
      "hit": false,
      "t": 66634.7219999999,
      "d": 288.46199999999953,
      "v": 100
    },
    {
      "midi": 46,
      "hit": false,
      "t": 66923.1839999999,
      "d": 288.46199999999953,
      "v": 100
    },
    {
      "midi": 58,
      "hit": false,
      "t": 66923.1839999999,
      "d": 288.46199999999953,
      "v": 100
    },
    {
      "midi": 41,
      "hit": false,
      "t": 67211.6459999999,
      "d": 144.23099999999977,
      "v": 100
    },
    {
      "midi": 53,
      "hit": false,
      "t": 67211.6459999999,
      "d": 144.23099999999977,
      "v": 100
    },
    {
      "midi": 46,
      "hit": false,
      "t": 67355.8769999999,
      "d": 286.0581499999971,
      "v": 100
    },
    {
      "midi": 58,
      "hit": false,
      "t": 67355.8769999999,
      "d": 286.0581499999971,
      "v": 100
    },
    {
      "midi": 46,
      "hit": false,
      "t": 67644.3389999999,
      "d": 144.23099999999977,
      "v": 100
    },
    {
      "midi": 58,
      "hit": false,
      "t": 67644.3389999999,
      "d": 144.23099999999977,
      "v": 100
    },
    {
      "midi": 45,
      "hit": false,
      "t": 67788.5699999999,
      "d": 288.46199999999953,
      "v": 100
    },
    {
      "midi": 57,
      "hit": false,
      "t": 67788.5699999999,
      "d": 288.46199999999953,
      "v": 100
    },
    {
      "midi": 43,
      "hit": false,
      "t": 68077.0319999999,
      "d": 288.46199999999953,
      "v": 100
    },
    {
      "midi": 55,
      "hit": false,
      "t": 68077.0319999999,
      "d": 288.46199999999953,
      "v": 100
    },
    {
      "midi": 38,
      "hit": false,
      "t": 68365.4939999999,
      "d": 144.23099999999977,
      "v": 100
    },
    {
      "midi": 50,
      "hit": false,
      "t": 68365.4939999999,
      "d": 144.23099999999977,
      "v": 100
    },
    {
      "midi": 43,
      "hit": false,
      "t": 68509.7249999999,
      "d": 286.0581499999971,
      "v": 100
    },
    {
      "midi": 55,
      "hit": false,
      "t": 68509.7249999999,
      "d": 286.0581499999971,
      "v": 100
    },
    {
      "midi": 43,
      "hit": false,
      "t": 68798.1869999999,
      "d": 144.23099999999977,
      "v": 100
    },
    {
      "midi": 55,
      "hit": false,
      "t": 68798.1869999999,
      "d": 144.23099999999977,
      "v": 100
    },
    {
      "midi": 45,
      "hit": false,
      "t": 68942.4179999999,
      "d": 288.46199999999953,
      "v": 100
    },
    {
      "midi": 57,
      "hit": false,
      "t": 68942.4179999999,
      "d": 288.46199999999953,
      "v": 100
    },
    {
      "midi": 46,
      "hit": false,
      "t": 69230.8799999999,
      "d": 288.46199999999953,
      "v": 100
    },
    {
      "midi": 58,
      "hit": false,
      "t": 69230.8799999999,
      "d": 288.46199999999953,
      "v": 100
    },
    {
      "midi": 41,
      "hit": false,
      "t": 69519.3419999999,
      "d": 144.23099999999977,
      "v": 100
    },
    {
      "midi": 53,
      "hit": false,
      "t": 69519.3419999999,
      "d": 144.23099999999977,
      "v": 100
    },
    {
      "midi": 46,
      "hit": false,
      "t": 69663.5729999999,
      "d": 286.0581499999971,
      "v": 100
    },
    {
      "midi": 58,
      "hit": false,
      "t": 69663.5729999999,
      "d": 286.0581499999971,
      "v": 100
    },
    {
      "midi": 46,
      "hit": false,
      "t": 69952.0349999999,
      "d": 144.23099999999977,
      "v": 100
    },
    {
      "midi": 58,
      "hit": false,
      "t": 69952.0349999999,
      "d": 144.23099999999977,
      "v": 100
    },
    {
      "midi": 45,
      "hit": false,
      "t": 70096.2659999999,
      "d": 288.46199999999953,
      "v": 100
    },
    {
      "midi": 57,
      "hit": false,
      "t": 70096.2659999999,
      "d": 288.46199999999953,
      "v": 100
    },
    {
      "midi": 43,
      "hit": false,
      "t": 70384.7279999999,
      "d": 288.46199999999953,
      "v": 100
    },
    {
      "midi": 55,
      "hit": false,
      "t": 70384.7279999999,
      "d": 288.46199999999953,
      "v": 100
    },
    {
      "midi": 38,
      "hit": false,
      "t": 70673.1899999999,
      "d": 144.23099999999977,
      "v": 100
    },
    {
      "midi": 50,
      "hit": false,
      "t": 70673.1899999999,
      "d": 144.23099999999977,
      "v": 100
    },
    {
      "midi": 43,
      "hit": false,
      "t": 70817.4209999999,
      "d": 286.0581499999971,
      "v": 100
    },
    {
      "midi": 55,
      "hit": false,
      "t": 70817.4209999999,
      "d": 286.0581499999971,
      "v": 100
    },
    {
      "midi": 43,
      "hit": false,
      "t": 71105.8829999999,
      "d": 144.23099999999977,
      "v": 100
    },
    {
      "midi": 55,
      "hit": false,
      "t": 71105.8829999999,
      "d": 144.23099999999977,
      "v": 100
    },
    {
      "midi": 45,
      "hit": false,
      "t": 71250.1139999999,
      "d": 288.46199999999953,
      "v": 100
    },
    {
      "midi": 57,
      "hit": false,
      "t": 71250.1139999999,
      "d": 288.46199999999953,
      "v": 100
    },
    {
      "midi": 46,
      "hit": false,
      "t": 71538.5759999999,
      "d": 288.46199999999953,
      "v": 100
    },
    {
      "midi": 58,
      "hit": false,
      "t": 71538.5759999999,
      "d": 288.46199999999953,
      "v": 100
    },
    {
      "midi": 41,
      "hit": false,
      "t": 71827.0379999999,
      "d": 144.23099999999977,
      "v": 100
    },
    {
      "midi": 53,
      "hit": false,
      "t": 71827.0379999999,
      "d": 144.23099999999977,
      "v": 100
    },
    {
      "midi": 46,
      "hit": false,
      "t": 71971.2689999999,
      "d": 286.0581499999971,
      "v": 100
    },
    {
      "midi": 58,
      "hit": false,
      "t": 71971.2689999999,
      "d": 286.0581499999971,
      "v": 100
    },
    {
      "midi": 46,
      "hit": false,
      "t": 72259.7309999999,
      "d": 144.23099999999977,
      "v": 100
    },
    {
      "midi": 58,
      "hit": false,
      "t": 72259.7309999999,
      "d": 144.23099999999977,
      "v": 100
    },
    {
      "midi": 45,
      "hit": false,
      "t": 72403.9619999999,
      "d": 288.46199999999953,
      "v": 100
    },
    {
      "midi": 57,
      "hit": false,
      "t": 72403.9619999999,
      "d": 288.46199999999953,
      "v": 100
    },
    {
      "midi": 43,
      "hit": false,
      "t": 72692.4239999999,
      "d": 288.46199999999953,
      "v": 100
    },
    {
      "midi": 55,
      "hit": false,
      "t": 72692.4239999999,
      "d": 288.46199999999953,
      "v": 100
    },
    {
      "midi": 38,
      "hit": false,
      "t": 72980.8859999999,
      "d": 144.23099999999977,
      "v": 100
    },
    {
      "midi": 50,
      "hit": false,
      "t": 72980.8859999999,
      "d": 144.23099999999977,
      "v": 100
    },
    {
      "midi": 43,
      "hit": false,
      "t": 73125.1169999999,
      "d": 286.0581499999971,
      "v": 100
    },
    {
      "midi": 55,
      "hit": false,
      "t": 73125.1169999999,
      "d": 286.0581499999971,
      "v": 100
    },
    {
      "midi": 43,
      "hit": false,
      "t": 73413.5789999999,
      "d": 144.23099999999977,
      "v": 100
    },
    {
      "midi": 55,
      "hit": false,
      "t": 73413.5789999999,
      "d": 144.23099999999977,
      "v": 100
    },
    {
      "midi": 45,
      "hit": false,
      "t": 73557.8099999999,
      "d": 288.46199999999953,
      "v": 100
    },
    {
      "midi": 57,
      "hit": false,
      "t": 73557.8099999999,
      "d": 288.46199999999953,
      "v": 100
    },
    {
      "midi": 46,
      "hit": false,
      "t": 73846.2719999999,
      "d": 288.46199999999953,
      "v": 100
    },
    {
      "midi": 58,
      "hit": false,
      "t": 73846.2719999999,
      "d": 288.46199999999953,
      "v": 100
    },
    {
      "midi": 41,
      "hit": false,
      "t": 74134.7339999999,
      "d": 144.23099999999977,
      "v": 100
    },
    {
      "midi": 53,
      "hit": false,
      "t": 74134.7339999999,
      "d": 144.23099999999977,
      "v": 100
    },
    {
      "midi": 46,
      "hit": false,
      "t": 74278.9649999999,
      "d": 286.0581499999971,
      "v": 100
    },
    {
      "midi": 58,
      "hit": false,
      "t": 74278.9649999999,
      "d": 286.0581499999971,
      "v": 100
    },
    {
      "midi": 46,
      "hit": false,
      "t": 74567.4269999999,
      "d": 144.23099999999977,
      "v": 100
    },
    {
      "midi": 58,
      "hit": false,
      "t": 74567.4269999999,
      "d": 144.23099999999977,
      "v": 100
    },
    {
      "midi": 45,
      "hit": false,
      "t": 74711.6579999999,
      "d": 288.46199999999953,
      "v": 100
    },
    {
      "midi": 57,
      "hit": false,
      "t": 74711.6579999999,
      "d": 288.46199999999953,
      "v": 100
    },
    {
      "midi": 43,
      "hit": false,
      "t": 75000.1199999999,
      "d": 288.46199999999953,
      "v": 100
    },
    {
      "midi": 55,
      "hit": false,
      "t": 75000.1199999999,
      "d": 288.46199999999953,
      "v": 100
    },
    {
      "midi": 38,
      "hit": false,
      "t": 75288.5819999999,
      "d": 144.23099999999977,
      "v": 100
    },
    {
      "midi": 50,
      "hit": false,
      "t": 75288.5819999999,
      "d": 144.23099999999977,
      "v": 100
    },
    {
      "midi": 43,
      "hit": false,
      "t": 75432.8129999999,
      "d": 286.0581499999971,
      "v": 100
    },
    {
      "midi": 55,
      "hit": false,
      "t": 75432.8129999999,
      "d": 286.0581499999971,
      "v": 100
    },
    {
      "midi": 43,
      "hit": false,
      "t": 75721.27499999989,
      "d": 144.23099999999977,
      "v": 100
    },
    {
      "midi": 55,
      "hit": false,
      "t": 75721.27499999989,
      "d": 144.23099999999977,
      "v": 100
    },
    {
      "midi": 45,
      "hit": false,
      "t": 75865.50599999989,
      "d": 288.46199999999953,
      "v": 100
    },
    {
      "midi": 57,
      "hit": false,
      "t": 75865.50599999989,
      "d": 288.46199999999953,
      "v": 100
    },
    {
      "midi": 46,
      "hit": false,
      "t": 76153.96799999989,
      "d": 288.46199999999953,
      "v": 100
    },
    {
      "midi": 58,
      "hit": false,
      "t": 76153.96799999989,
      "d": 288.46199999999953,
      "v": 100
    },
    {
      "midi": 41,
      "hit": false,
      "t": 76442.42999999989,
      "d": 144.23099999999977,
      "v": 100
    },
    {
      "midi": 53,
      "hit": false,
      "t": 76442.42999999989,
      "d": 144.23099999999977,
      "v": 100
    },
    {
      "midi": 46,
      "hit": false,
      "t": 76586.66099999989,
      "d": 286.0581499999971,
      "v": 100
    },
    {
      "midi": 58,
      "hit": false,
      "t": 76586.66099999989,
      "d": 286.0581499999971,
      "v": 100
    },
    {
      "midi": 46,
      "hit": false,
      "t": 76875.12299999989,
      "d": 144.23099999999977,
      "v": 100
    },
    {
      "midi": 58,
      "hit": false,
      "t": 76875.12299999989,
      "d": 144.23099999999977,
      "v": 100
    },
    {
      "midi": 45,
      "hit": false,
      "t": 77019.35399999989,
      "d": 288.46199999999953,
      "v": 100
    },
    {
      "midi": 57,
      "hit": false,
      "t": 77019.35399999989,
      "d": 288.46199999999953,
      "v": 100
    },
    {
      "midi": 43,
      "hit": false,
      "t": 77307.81599999989,
      "d": 288.46199999999953,
      "v": 100
    },
    {
      "midi": 55,
      "hit": false,
      "t": 77307.81599999989,
      "d": 288.46199999999953,
      "v": 100
    },
    {
      "midi": 38,
      "hit": false,
      "t": 77596.27799999989,
      "d": 144.23099999999977,
      "v": 100
    },
    {
      "midi": 50,
      "hit": false,
      "t": 77596.27799999989,
      "d": 144.23099999999977,
      "v": 100
    },
    {
      "midi": 43,
      "hit": false,
      "t": 77740.50899999989,
      "d": 286.0581499999971,
      "v": 100
    },
    {
      "midi": 55,
      "hit": false,
      "t": 77740.50899999989,
      "d": 286.0581499999971,
      "v": 100
    },
    {
      "midi": 43,
      "hit": false,
      "t": 78028.97099999989,
      "d": 144.23099999999977,
      "v": 100
    },
    {
      "midi": 55,
      "hit": false,
      "t": 78028.97099999989,
      "d": 144.23099999999977,
      "v": 100
    },
    {
      "midi": 45,
      "hit": false,
      "t": 78173.20199999989,
      "d": 288.46199999999953,
      "v": 100
    },
    {
      "midi": 57,
      "hit": false,
      "t": 78173.20199999989,
      "d": 288.46199999999953,
      "v": 100
    },
    {
      "midi": 46,
      "hit": false,
      "t": 78461.66399999989,
      "d": 288.46199999999953,
      "v": 100
    },
    {
      "midi": 58,
      "hit": false,
      "t": 78461.66399999989,
      "d": 288.46199999999953,
      "v": 100
    },
    {
      "midi": 41,
      "hit": false,
      "t": 78750.12599999989,
      "d": 144.23099999999977,
      "v": 100
    },
    {
      "midi": 53,
      "hit": false,
      "t": 78750.12599999989,
      "d": 144.23099999999977,
      "v": 100
    },
    {
      "midi": 46,
      "hit": false,
      "t": 78894.35699999989,
      "d": 286.0581499999971,
      "v": 100
    },
    {
      "midi": 58,
      "hit": false,
      "t": 78894.35699999989,
      "d": 286.0581499999971,
      "v": 100
    },
    {
      "midi": 46,
      "hit": false,
      "t": 79182.81899999989,
      "d": 144.23099999999977,
      "v": 100
    },
    {
      "midi": 58,
      "hit": false,
      "t": 79182.81899999989,
      "d": 144.23099999999977,
      "v": 100
    },
    {
      "midi": 45,
      "hit": false,
      "t": 79327.04999999989,
      "d": 288.46199999999953,
      "v": 100
    },
    {
      "midi": 57,
      "hit": false,
      "t": 79327.04999999989,
      "d": 288.46199999999953,
      "v": 100
    },
    {
      "midi": 43,
      "hit": false,
      "t": 79615.51199999989,
      "d": 288.46199999999953,
      "v": 100
    },
    {
      "midi": 55,
      "hit": false,
      "t": 79615.51199999989,
      "d": 288.46199999999953,
      "v": 100
    },
    {
      "midi": 38,
      "hit": false,
      "t": 79903.97399999989,
      "d": 144.23099999999977,
      "v": 100
    },
    {
      "midi": 50,
      "hit": false,
      "t": 79903.97399999989,
      "d": 144.23099999999977,
      "v": 100
    },
    {
      "midi": 43,
      "hit": false,
      "t": 80048.20499999989,
      "d": 286.0581499999971,
      "v": 100
    },
    {
      "midi": 55,
      "hit": false,
      "t": 80048.20499999989,
      "d": 286.0581499999971,
      "v": 100
    },
    {
      "midi": 43,
      "hit": false,
      "t": 80336.66699999988,
      "d": 144.23099999999977,
      "v": 100
    },
    {
      "midi": 55,
      "hit": false,
      "t": 80336.66699999988,
      "d": 144.23099999999977,
      "v": 100
    },
    {
      "midi": 45,
      "hit": false,
      "t": 80480.89799999988,
      "d": 288.46199999999953,
      "v": 100
    },
    {
      "midi": 57,
      "hit": false,
      "t": 80480.89799999988,
      "d": 288.46199999999953,
      "v": 100
    },
    {
      "midi": 46,
      "hit": false,
      "t": 80769.35999999988,
      "d": 288.46199999999953,
      "v": 100
    },
    {
      "midi": 58,
      "hit": false,
      "t": 80769.35999999988,
      "d": 288.46199999999953,
      "v": 100
    },
    {
      "midi": 41,
      "hit": false,
      "t": 81057.82199999988,
      "d": 144.23099999999977,
      "v": 100
    },
    {
      "midi": 53,
      "hit": false,
      "t": 81057.82199999988,
      "d": 144.23099999999977,
      "v": 100
    },
    {
      "midi": 46,
      "hit": false,
      "t": 81202.05299999988,
      "d": 286.0581499999971,
      "v": 100
    },
    {
      "midi": 58,
      "hit": false,
      "t": 81202.05299999988,
      "d": 286.0581499999971,
      "v": 100
    },
    {
      "midi": 46,
      "hit": false,
      "t": 81490.51499999988,
      "d": 144.23099999999977,
      "v": 100
    },
    {
      "midi": 58,
      "hit": false,
      "t": 81490.51499999988,
      "d": 144.23099999999977,
      "v": 100
    },
    {
      "midi": 45,
      "hit": false,
      "t": 81634.74599999988,
      "d": 288.46199999999953,
      "v": 100
    },
    {
      "midi": 57,
      "hit": false,
      "t": 81634.74599999988,
      "d": 288.46199999999953,
      "v": 100
    },
    {
      "midi": 43,
      "hit": false,
      "t": 81923.20799999988,
      "d": 288.46199999999953,
      "v": 100
    },
    {
      "midi": 55,
      "hit": false,
      "t": 81923.20799999988,
      "d": 288.46199999999953,
      "v": 100
    },
    {
      "midi": 38,
      "hit": false,
      "t": 82211.66999999988,
      "d": 144.23099999999977,
      "v": 100
    },
    {
      "midi": 50,
      "hit": false,
      "t": 82211.66999999988,
      "d": 144.23099999999977,
      "v": 100
    },
    {
      "midi": 43,
      "hit": false,
      "t": 82355.90099999988,
      "d": 286.0581499999971,
      "v": 100
    },
    {
      "midi": 55,
      "hit": false,
      "t": 82355.90099999988,
      "d": 286.0581499999971,
      "v": 100
    },
    {
      "midi": 43,
      "hit": false,
      "t": 82644.36299999988,
      "d": 144.23099999999977,
      "v": 100
    },
    {
      "midi": 55,
      "hit": false,
      "t": 82644.36299999988,
      "d": 144.23099999999977,
      "v": 100
    },
    {
      "midi": 45,
      "hit": false,
      "t": 82788.59399999988,
      "d": 288.46199999999953,
      "v": 100
    },
    {
      "midi": 57,
      "hit": false,
      "t": 82788.59399999988,
      "d": 288.46199999999953,
      "v": 100
    },
    {
      "midi": 46,
      "hit": false,
      "t": 83077.05599999988,
      "d": 288.46199999999953,
      "v": 100
    },
    {
      "midi": 58,
      "hit": false,
      "t": 83077.05599999988,
      "d": 288.46199999999953,
      "v": 100
    },
    {
      "midi": 41,
      "hit": false,
      "t": 83365.51799999988,
      "d": 144.23099999999977,
      "v": 100
    },
    {
      "midi": 53,
      "hit": false,
      "t": 83365.51799999988,
      "d": 144.23099999999977,
      "v": 100
    },
    {
      "midi": 46,
      "hit": false,
      "t": 83509.74899999988,
      "d": 286.0581499999971,
      "v": 100
    },
    {
      "midi": 58,
      "hit": false,
      "t": 83509.74899999988,
      "d": 286.0581499999971,
      "v": 100
    },
    {
      "midi": 46,
      "hit": false,
      "t": 83798.21099999988,
      "d": 144.23099999999977,
      "v": 100
    },
    {
      "midi": 58,
      "hit": false,
      "t": 83798.21099999988,
      "d": 144.23099999999977,
      "v": 100
    },
    {
      "midi": 45,
      "hit": false,
      "t": 83942.44199999988,
      "d": 288.46199999999953,
      "v": 100
    },
    {
      "midi": 57,
      "hit": false,
      "t": 83942.44199999988,
      "d": 288.46199999999953,
      "v": 100
    },
    {
      "midi": 43,
      "hit": false,
      "t": 84230.90399999988,
      "d": 288.46199999999953,
      "v": 100
    },
    {
      "midi": 55,
      "hit": false,
      "t": 84230.90399999988,
      "d": 288.46199999999953,
      "v": 100
    },
    {
      "midi": 38,
      "hit": false,
      "t": 84519.36599999988,
      "d": 144.23099999999977,
      "v": 100
    },
    {
      "midi": 50,
      "hit": false,
      "t": 84519.36599999988,
      "d": 144.23099999999977,
      "v": 100
    },
    {
      "midi": 43,
      "hit": false,
      "t": 84663.59699999988,
      "d": 286.0581499999971,
      "v": 100
    },
    {
      "midi": 55,
      "hit": false,
      "t": 84663.59699999988,
      "d": 286.0581499999971,
      "v": 100
    },
    {
      "midi": 43,
      "hit": false,
      "t": 84952.05899999988,
      "d": 144.23099999999977,
      "v": 100
    },
    {
      "midi": 55,
      "hit": false,
      "t": 84952.05899999988,
      "d": 144.23099999999977,
      "v": 100
    },
    {
      "midi": 45,
      "hit": false,
      "t": 85096.28999999988,
      "d": 288.46199999999953,
      "v": 100
    },
    {
      "midi": 57,
      "hit": false,
      "t": 85096.28999999988,
      "d": 288.46199999999953,
      "v": 100
    },
    {
      "midi": 46,
      "hit": false,
      "t": 85384.75199999988,
      "d": 288.46199999999953,
      "v": 100
    },
    {
      "midi": 58,
      "hit": false,
      "t": 85384.75199999988,
      "d": 288.46199999999953,
      "v": 100
    },
    {
      "midi": 41,
      "hit": false,
      "t": 85673.21399999988,
      "d": 144.23099999999977,
      "v": 100
    },
    {
      "midi": 53,
      "hit": false,
      "t": 85673.21399999988,
      "d": 144.23099999999977,
      "v": 100
    },
    {
      "midi": 46,
      "hit": false,
      "t": 85817.44499999988,
      "d": 286.0581499999971,
      "v": 100
    },
    {
      "midi": 58,
      "hit": false,
      "t": 85817.44499999988,
      "d": 286.0581499999971,
      "v": 100
    },
    {
      "midi": 46,
      "hit": false,
      "t": 86105.90699999988,
      "d": 144.23099999999977,
      "v": 100
    },
    {
      "midi": 58,
      "hit": false,
      "t": 86105.90699999988,
      "d": 144.23099999999977,
      "v": 100
    },
    {
      "midi": 45,
      "hit": false,
      "t": 86250.13799999988,
      "d": 288.46199999999953,
      "v": 100
    },
    {
      "midi": 57,
      "hit": false,
      "t": 86250.13799999988,
      "d": 288.46199999999953,
      "v": 100
    },
    {
      "midi": 43,
      "hit": false,
      "t": 86538.59999999987,
      "d": 288.46199999999953,
      "v": 100
    },
    {
      "midi": 55,
      "hit": false,
      "t": 86538.59999999987,
      "d": 288.46199999999953,
      "v": 100
    },
    {
      "midi": 38,
      "hit": false,
      "t": 86827.06199999987,
      "d": 144.23099999999977,
      "v": 100
    },
    {
      "midi": 50,
      "hit": false,
      "t": 86827.06199999987,
      "d": 144.23099999999977,
      "v": 100
    },
    {
      "midi": 43,
      "hit": false,
      "t": 86971.29299999987,
      "d": 286.0581499999971,
      "v": 100
    },
    {
      "midi": 55,
      "hit": false,
      "t": 86971.29299999987,
      "d": 286.0581499999971,
      "v": 100
    },
    {
      "midi": 43,
      "hit": false,
      "t": 87259.75499999987,
      "d": 144.23099999999977,
      "v": 100
    },
    {
      "midi": 55,
      "hit": false,
      "t": 87259.75499999987,
      "d": 144.23099999999977,
      "v": 100
    },
    {
      "midi": 45,
      "hit": false,
      "t": 87403.98599999987,
      "d": 288.46199999999953,
      "v": 100
    },
    {
      "midi": 57,
      "hit": false,
      "t": 87403.98599999987,
      "d": 288.46199999999953,
      "v": 100
    },
    {
      "midi": 46,
      "hit": false,
      "t": 87692.44799999987,
      "d": 288.46199999999953,
      "v": 100
    },
    {
      "midi": 58,
      "hit": false,
      "t": 87692.44799999987,
      "d": 288.46199999999953,
      "v": 100
    },
    {
      "midi": 41,
      "hit": false,
      "t": 87980.90999999987,
      "d": 144.23099999999977,
      "v": 100
    },
    {
      "midi": 53,
      "hit": false,
      "t": 87980.90999999987,
      "d": 144.23099999999977,
      "v": 100
    },
    {
      "midi": 46,
      "hit": false,
      "t": 88125.14099999987,
      "d": 286.0581499999971,
      "v": 100
    },
    {
      "midi": 58,
      "hit": false,
      "t": 88125.14099999987,
      "d": 286.0581499999971,
      "v": 100
    },
    {
      "midi": 46,
      "hit": false,
      "t": 88413.60299999987,
      "d": 144.23099999999977,
      "v": 100
    },
    {
      "midi": 58,
      "hit": false,
      "t": 88413.60299999987,
      "d": 144.23099999999977,
      "v": 100
    },
    {
      "midi": 45,
      "hit": false,
      "t": 88557.83399999987,
      "d": 288.46199999999953,
      "v": 100
    },
    {
      "midi": 57,
      "hit": false,
      "t": 88557.83399999987,
      "d": 288.46199999999953,
      "v": 100
    },
    {
      "midi": 43,
      "hit": false,
      "t": 88846.29599999987,
      "d": 288.46199999999953,
      "v": 100
    },
    {
      "midi": 55,
      "hit": false,
      "t": 88846.29599999987,
      "d": 288.46199999999953,
      "v": 100
    },
    {
      "midi": 38,
      "hit": false,
      "t": 89134.75799999987,
      "d": 144.23099999999977,
      "v": 100
    },
    {
      "midi": 50,
      "hit": false,
      "t": 89134.75799999987,
      "d": 144.23099999999977,
      "v": 100
    },
    {
      "midi": 43,
      "hit": false,
      "t": 89278.98899999987,
      "d": 286.0581499999971,
      "v": 100
    },
    {
      "midi": 55,
      "hit": false,
      "t": 89278.98899999987,
      "d": 286.0581499999971,
      "v": 100
    },
    {
      "midi": 43,
      "hit": false,
      "t": 89567.45099999987,
      "d": 144.23099999999977,
      "v": 100
    },
    {
      "midi": 55,
      "hit": false,
      "t": 89567.45099999987,
      "d": 144.23099999999977,
      "v": 100
    },
    {
      "midi": 45,
      "hit": false,
      "t": 89711.68199999987,
      "d": 288.46199999999953,
      "v": 100
    },
    {
      "midi": 57,
      "hit": false,
      "t": 89711.68199999987,
      "d": 288.46199999999953,
      "v": 100
    },
    {
      "midi": 46,
      "hit": false,
      "t": 90000.14399999987,
      "d": 288.46199999999953,
      "v": 100
    },
    {
      "midi": 58,
      "hit": false,
      "t": 90000.14399999987,
      "d": 288.46199999999953,
      "v": 100
    },
    {
      "midi": 41,
      "hit": false,
      "t": 90288.60599999987,
      "d": 144.23099999999977,
      "v": 100
    },
    {
      "midi": 53,
      "hit": false,
      "t": 90288.60599999987,
      "d": 144.23099999999977,
      "v": 100
    },
    {
      "midi": 46,
      "hit": false,
      "t": 90432.83699999987,
      "d": 286.0581499999971,
      "v": 100
    },
    {
      "midi": 58,
      "hit": false,
      "t": 90432.83699999987,
      "d": 286.0581499999971,
      "v": 100
    },
    {
      "midi": 46,
      "hit": false,
      "t": 90721.29899999987,
      "d": 144.23099999999977,
      "v": 100
    },
    {
      "midi": 58,
      "hit": false,
      "t": 90721.29899999987,
      "d": 144.23099999999977,
      "v": 100
    },
    {
      "midi": 45,
      "hit": false,
      "t": 90865.52999999987,
      "d": 288.46199999999953,
      "v": 100
    },
    {
      "midi": 57,
      "hit": false,
      "t": 90865.52999999987,
      "d": 288.46199999999953,
      "v": 100
    },
    {
      "midi": 43,
      "hit": false,
      "t": 91153.99199999987,
      "d": 288.46199999999953,
      "v": 100
    },
    {
      "midi": 55,
      "hit": false,
      "t": 91153.99199999987,
      "d": 288.46199999999953,
      "v": 100
    },
    {
      "midi": 38,
      "hit": false,
      "t": 91442.45399999987,
      "d": 144.23099999999977,
      "v": 100
    },
    {
      "midi": 50,
      "hit": false,
      "t": 91442.45399999987,
      "d": 144.23099999999977,
      "v": 100
    },
    {
      "midi": 43,
      "hit": false,
      "t": 91586.68499999987,
      "d": 286.0581499999971,
      "v": 100
    },
    {
      "midi": 55,
      "hit": false,
      "t": 91586.68499999987,
      "d": 286.0581499999971,
      "v": 100
    },
    {
      "midi": 43,
      "hit": false,
      "t": 91875.14699999987,
      "d": 144.23099999999977,
      "v": 100
    },
    {
      "midi": 55,
      "hit": false,
      "t": 91875.14699999987,
      "d": 144.23099999999977,
      "v": 100
    },
    {
      "midi": 45,
      "hit": false,
      "t": 92019.37799999987,
      "d": 288.46199999999953,
      "v": 100
    },
    {
      "midi": 57,
      "hit": false,
      "t": 92019.37799999987,
      "d": 288.46199999999953,
      "v": 100
    },
    {
      "midi": 41,
      "hit": false,
      "t": 92307.83999999987,
      "d": 288.46199999999953,
      "v": 127
    },
    {
      "midi": 53,
      "hit": false,
      "t": 92307.83999999987,
      "d": 288.46199999999953,
      "v": 127
    },
    {
      "midi": 101,
      "hit": false,
      "t": 93750.14999999986,
      "d": 36.05775000000722,
      "v": 100
    },
    {
      "midi": 41,
      "hit": false,
      "t": 93750.14999999986,
      "d": 288.46200000005774,
      "v": 100
    },
    {
      "midi": 100,
      "hit": false,
      "t": 93786.20774999987,
      "d": 36.05775000000722,
      "v": 100
    },
    {
      "midi": 98,
      "hit": false,
      "t": 93822.26549999988,
      "d": 36.05775000000722,
      "v": 100
    },
    {
      "midi": 96,
      "hit": false,
      "t": 93858.32324999988,
      "d": 36.05775000000722,
      "v": 100
    },
    {
      "midi": 95,
      "hit": false,
      "t": 93894.38099999989,
      "d": 36.05775000000722,
      "v": 100
    },
    {
      "midi": 93,
      "hit": false,
      "t": 93930.4387499999,
      "d": 36.05775000000722,
      "v": 100
    },
    {
      "midi": 91,
      "hit": false,
      "t": 93966.4964999999,
      "d": 36.05775000000722,
      "v": 100
    },
    {
      "midi": 89,
      "hit": false,
      "t": 94002.55424999991,
      "d": 36.05775000000722,
      "v": 100
    },
    {
      "midi": 88,
      "hit": false,
      "t": 94038.61199999992,
      "d": 36.05775000000722,
      "v": 100
    },
    {
      "midi": 43,
      "hit": false,
      "t": 94038.61199999992,
      "d": 288.46200000005774,
      "v": 100
    },
    {
      "midi": 86,
      "hit": false,
      "t": 94074.66974999993,
      "d": 36.05775000000722,
      "v": 100
    },
    {
      "midi": 84,
      "hit": false,
      "t": 94110.72749999994,
      "d": 36.05775000000722,
      "v": 100
    },
    {
      "midi": 83,
      "hit": false,
      "t": 94146.78524999994,
      "d": 36.05775000000722,
      "v": 100
    },
    {
      "midi": 81,
      "hit": false,
      "t": 94182.84299999995,
      "d": 36.05775000000722,
      "v": 100
    },
    {
      "midi": 79,
      "hit": false,
      "t": 94218.90074999996,
      "d": 36.05775000000722,
      "v": 100
    },
    {
      "midi": 77,
      "hit": false,
      "t": 94254.95849999996,
      "d": 36.05775000000722,
      "v": 100
    },
    {
      "midi": 76,
      "hit": false,
      "t": 94291.01624999997,
      "d": 36.05775000000722,
      "v": 100
    },
    {
      "midi": 74,
      "hit": false,
      "t": 94327.07399999998,
      "d": 36.05775000000722,
      "v": 100
    },
    {
      "midi": 45,
      "hit": false,
      "t": 94327.07399999998,
      "d": 288.46200000005774,
      "v": 100
    },
    {
      "midi": 72,
      "hit": false,
      "t": 94363.13174999999,
      "d": 36.05775000000722,
      "v": 100
    },
    {
      "midi": 71,
      "hit": false,
      "t": 94399.1895,
      "d": 36.05775000000722,
      "v": 100
    },
    {
      "midi": 69,
      "hit": false,
      "t": 94435.24725,
      "d": 36.05775000000722,
      "v": 100
    },
    {
      "midi": 67,
      "hit": false,
      "t": 94471.30500000001,
      "d": 36.05775000000722,
      "v": 100
    },
    {
      "midi": 65,
      "hit": false,
      "t": 94507.36275000001,
      "d": 36.05775000000722,
      "v": 100
    },
    {
      "midi": 64,
      "hit": false,
      "t": 94543.42050000002,
      "d": 36.05775000000722,
      "v": 100
    },
    {
      "midi": 62,
      "hit": false,
      "t": 94579.47825000003,
      "d": 36.05775000000722,
      "v": 100
    },
    {
      "midi": 60,
      "hit": false,
      "t": 94615.53600000004,
      "d": 33.653900000004796,
      "v": 100
    },
    {
      "midi": 53,
      "hit": false,
      "t": 94615.53600000004,
      "d": 288.46199999999953,
      "v": 100
    },
    {
      "midi": 58,
      "hit": false,
      "t": 94615.53600000004,
      "d": 288.46199999999953,
      "v": 100
    },
    {
      "midi": 62,
      "hit": false,
      "t": 94615.53600000004,
      "d": 288.46199999999953,
      "v": 100
    },
    {
      "midi": 34,
      "hit": false,
      "t": 94615.53600000004,
      "d": 432.6929999999993,
      "v": 100
    },
    {
      "midi": 53,
      "hit": false,
      "t": 94903.99800000004,
      "d": 144.23099999999977,
      "v": 100
    },
    {
      "midi": 58,
      "hit": false,
      "t": 94903.99800000004,
      "d": 144.23099999999977,
      "v": 100
    },
    {
      "midi": 62,
      "hit": false,
      "t": 94903.99800000004,
      "d": 144.23099999999977,
      "v": 100
    },
    {
      "midi": 53,
      "hit": false,
      "t": 95048.22900000004,
      "d": 286.0581499999971,
      "v": 100
    },
    {
      "midi": 58,
      "hit": false,
      "t": 95048.22900000004,
      "d": 286.0581499999971,
      "v": 100
    },
    {
      "midi": 62,
      "hit": false,
      "t": 95048.22900000004,
      "d": 286.0581499999971,
      "v": 100
    },
    {
      "midi": 38,
      "hit": false,
      "t": 95048.22900000004,
      "d": 432.6929999999993,
      "v": 100
    },
    {
      "midi": 53,
      "hit": false,
      "t": 95336.69100000004,
      "d": 432.6929999999993,
      "v": 100
    },
    {
      "midi": 58,
      "hit": false,
      "t": 95336.69100000004,
      "d": 432.6929999999993,
      "v": 100
    },
    {
      "midi": 62,
      "hit": false,
      "t": 95336.69100000004,
      "d": 432.6929999999993,
      "v": 100
    },
    {
      "midi": 41,
      "hit": false,
      "t": 95480.92200000004,
      "d": 288.46199999999953,
      "v": 100
    },
    {
      "midi": 55,
      "hit": false,
      "t": 95769.38400000003,
      "d": 288.46199999999953,
      "v": 100
    },
    {
      "midi": 58,
      "hit": false,
      "t": 95769.38400000003,
      "d": 288.46199999999953,
      "v": 100
    },
    {
      "midi": 62,
      "hit": false,
      "t": 95769.38400000003,
      "d": 288.46199999999953,
      "v": 100
    },
    {
      "midi": 31,
      "hit": false,
      "t": 95769.38400000003,
      "d": 432.6929999999993,
      "v": 100
    },
    {
      "midi": 55,
      "hit": false,
      "t": 96057.84600000003,
      "d": 144.23099999999977,
      "v": 100
    },
    {
      "midi": 58,
      "hit": false,
      "t": 96057.84600000003,
      "d": 144.23099999999977,
      "v": 100
    },
    {
      "midi": 62,
      "hit": false,
      "t": 96057.84600000003,
      "d": 144.23099999999977,
      "v": 100
    },
    {
      "midi": 55,
      "hit": false,
      "t": 96202.07700000003,
      "d": 286.0581499999971,
      "v": 100
    },
    {
      "midi": 58,
      "hit": false,
      "t": 96202.07700000003,
      "d": 286.0581499999971,
      "v": 100
    },
    {
      "midi": 62,
      "hit": false,
      "t": 96202.07700000003,
      "d": 286.0581499999971,
      "v": 100
    },
    {
      "midi": 34,
      "hit": false,
      "t": 96202.07700000003,
      "d": 432.6929999999993,
      "v": 100
    },
    {
      "midi": 55,
      "hit": false,
      "t": 96490.53900000003,
      "d": 430.2891499999969,
      "v": 100
    },
    {
      "midi": 58,
      "hit": false,
      "t": 96490.53900000003,
      "d": 430.2891499999969,
      "v": 100
    },
    {
      "midi": 62,
      "hit": false,
      "t": 96490.53900000003,
      "d": 432.6929999999993,
      "v": 100
    },
    {
      "midi": 38,
      "hit": false,
      "t": 96634.77000000003,
      "d": 288.46199999999953,
      "v": 100
    },
    {
      "midi": 55,
      "hit": false,
      "t": 96923.23200000003,
      "d": 288.46199999999953,
      "v": 100
    },
    {
      "midi": 58,
      "hit": false,
      "t": 96923.23200000003,
      "d": 288.46199999999953,
      "v": 100
    },
    {
      "midi": 63,
      "hit": false,
      "t": 96923.23200000003,
      "d": 288.46199999999953,
      "v": 100
    },
    {
      "midi": 39,
      "hit": false,
      "t": 96923.23200000003,
      "d": 432.6929999999993,
      "v": 100
    },
    {
      "midi": 55,
      "hit": false,
      "t": 97211.69400000003,
      "d": 144.23099999999977,
      "v": 100
    },
    {
      "midi": 58,
      "hit": false,
      "t": 97211.69400000003,
      "d": 144.23099999999977,
      "v": 100
    },
    {
      "midi": 63,
      "hit": false,
      "t": 97211.69400000003,
      "d": 144.23099999999977,
      "v": 100
    },
    {
      "midi": 55,
      "hit": false,
      "t": 97355.92500000003,
      "d": 286.0581499999971,
      "v": 100
    },
    {
      "midi": 58,
      "hit": false,
      "t": 97355.92500000003,
      "d": 286.0581499999971,
      "v": 100
    },
    {
      "midi": 63,
      "hit": false,
      "t": 97355.92500000003,
      "d": 286.0581499999971,
      "v": 100
    },
    {
      "midi": 43,
      "hit": false,
      "t": 97355.92500000003,
      "d": 432.6929999999993,
      "v": 100
    },
    {
      "midi": 55,
      "hit": false,
      "t": 97644.38700000003,
      "d": 432.6929999999993,
      "v": 100
    },
    {
      "midi": 58,
      "hit": false,
      "t": 97644.38700000003,
      "d": 432.6929999999993,
      "v": 100
    },
    {
      "midi": 63,
      "hit": false,
      "t": 97644.38700000003,
      "d": 432.6929999999993,
      "v": 100
    },
    {
      "midi": 46,
      "hit": false,
      "t": 97788.61800000003,
      "d": 288.46199999999953,
      "v": 100
    },
    {
      "midi": 57,
      "hit": false,
      "t": 98077.08000000003,
      "d": 288.46199999999953,
      "v": 100
    },
    {
      "midi": 60,
      "hit": false,
      "t": 98077.08000000003,
      "d": 288.46199999999953,
      "v": 100
    },
    {
      "midi": 65,
      "hit": false,
      "t": 98077.08000000003,
      "d": 288.46199999999953,
      "v": 100
    },
    {
      "midi": 41,
      "hit": false,
      "t": 98077.08000000003,
      "d": 432.6929999999993,
      "v": 100
    },
    {
      "midi": 57,
      "hit": false,
      "t": 98365.54200000003,
      "d": 144.23099999999977,
      "v": 100
    },
    {
      "midi": 60,
      "hit": false,
      "t": 98365.54200000003,
      "d": 144.23099999999977,
      "v": 100
    },
    {
      "midi": 65,
      "hit": false,
      "t": 98365.54200000003,
      "d": 144.23099999999977,
      "v": 100
    },
    {
      "midi": 57,
      "hit": false,
      "t": 98509.77300000003,
      "d": 286.0581499999971,
      "v": 100
    },
    {
      "midi": 60,
      "hit": false,
      "t": 98509.77300000003,
      "d": 286.0581499999971,
      "v": 100
    },
    {
      "midi": 65,
      "hit": false,
      "t": 98509.77300000003,
      "d": 286.0581499999971,
      "v": 100
    },
    {
      "midi": 31,
      "hit": false,
      "t": 98509.77300000003,
      "d": 432.6929999999993,
      "v": 100
    },
    {
      "midi": 57,
      "hit": false,
      "t": 98798.23500000003,
      "d": 432.6929999999993,
      "v": 100
    },
    {
      "midi": 60,
      "hit": false,
      "t": 98798.23500000003,
      "d": 432.6929999999993,
      "v": 100
    },
    {
      "midi": 65,
      "hit": false,
      "t": 98798.23500000003,
      "d": 432.6929999999993,
      "v": 100
    },
    {
      "midi": 33,
      "hit": false,
      "t": 98942.46600000003,
      "d": 288.46199999999953,
      "v": 100
    },
    {
      "midi": 53,
      "hit": false,
      "t": 99230.92800000003,
      "d": 288.46199999999953,
      "v": 100
    },
    {
      "midi": 58,
      "hit": false,
      "t": 99230.92800000003,
      "d": 288.46199999999953,
      "v": 100
    },
    {
      "midi": 62,
      "hit": false,
      "t": 99230.92800000003,
      "d": 288.46199999999953,
      "v": 100
    },
    {
      "midi": 34,
      "hit": false,
      "t": 99230.92800000003,
      "d": 432.6929999999993,
      "v": 100
    },
    {
      "midi": 53,
      "hit": false,
      "t": 99519.39000000003,
      "d": 144.23099999999977,
      "v": 100
    },
    {
      "midi": 58,
      "hit": false,
      "t": 99519.39000000003,
      "d": 144.23099999999977,
      "v": 100
    },
    {
      "midi": 62,
      "hit": false,
      "t": 99519.39000000003,
      "d": 144.23099999999977,
      "v": 100
    },
    {
      "midi": 53,
      "hit": false,
      "t": 99663.62100000003,
      "d": 286.0581499999971,
      "v": 100
    },
    {
      "midi": 58,
      "hit": false,
      "t": 99663.62100000003,
      "d": 286.0581499999971,
      "v": 100
    },
    {
      "midi": 62,
      "hit": false,
      "t": 99663.62100000003,
      "d": 286.0581499999971,
      "v": 100
    },
    {
      "midi": 38,
      "hit": false,
      "t": 99663.62100000003,
      "d": 432.6929999999993,
      "v": 100
    },
    {
      "midi": 53,
      "hit": false,
      "t": 99952.08300000003,
      "d": 432.6929999999993,
      "v": 100
    },
    {
      "midi": 58,
      "hit": false,
      "t": 99952.08300000003,
      "d": 432.6929999999993,
      "v": 100
    },
    {
      "midi": 62,
      "hit": false,
      "t": 99952.08300000003,
      "d": 432.6929999999993,
      "v": 100
    },
    {
      "midi": 41,
      "hit": false,
      "t": 100096.31400000003,
      "d": 288.46199999999953,
      "v": 100
    },
    {
      "midi": 55,
      "hit": false,
      "t": 100384.77600000003,
      "d": 288.46199999999953,
      "v": 100
    },
    {
      "midi": 58,
      "hit": false,
      "t": 100384.77600000003,
      "d": 288.46199999999953,
      "v": 100
    },
    {
      "midi": 62,
      "hit": false,
      "t": 100384.77600000003,
      "d": 288.46199999999953,
      "v": 100
    },
    {
      "midi": 31,
      "hit": false,
      "t": 100384.77600000003,
      "d": 432.6929999999993,
      "v": 100
    },
    {
      "midi": 55,
      "hit": false,
      "t": 100673.23800000003,
      "d": 144.23099999999977,
      "v": 100
    },
    {
      "midi": 58,
      "hit": false,
      "t": 100673.23800000003,
      "d": 144.23099999999977,
      "v": 100
    },
    {
      "midi": 62,
      "hit": false,
      "t": 100673.23800000003,
      "d": 144.23099999999977,
      "v": 100
    },
    {
      "midi": 55,
      "hit": false,
      "t": 100817.46900000003,
      "d": 286.0581499999971,
      "v": 100
    },
    {
      "midi": 58,
      "hit": false,
      "t": 100817.46900000003,
      "d": 286.0581499999971,
      "v": 100
    },
    {
      "midi": 62,
      "hit": false,
      "t": 100817.46900000003,
      "d": 286.0581499999971,
      "v": 100
    },
    {
      "midi": 34,
      "hit": false,
      "t": 100817.46900000003,
      "d": 432.6929999999993,
      "v": 100
    },
    {
      "midi": 55,
      "hit": false,
      "t": 101105.93100000003,
      "d": 430.2891499999969,
      "v": 100
    },
    {
      "midi": 58,
      "hit": false,
      "t": 101105.93100000003,
      "d": 430.2891499999969,
      "v": 100
    },
    {
      "midi": 62,
      "hit": false,
      "t": 101105.93100000003,
      "d": 432.6929999999993,
      "v": 100
    },
    {
      "midi": 38,
      "hit": false,
      "t": 101250.16200000003,
      "d": 288.46199999999953,
      "v": 100
    },
    {
      "midi": 55,
      "hit": false,
      "t": 101538.62400000003,
      "d": 288.46199999999953,
      "v": 100
    },
    {
      "midi": 58,
      "hit": false,
      "t": 101538.62400000003,
      "d": 288.46199999999953,
      "v": 100
    },
    {
      "midi": 63,
      "hit": false,
      "t": 101538.62400000003,
      "d": 288.46199999999953,
      "v": 100
    },
    {
      "midi": 39,
      "hit": false,
      "t": 101538.62400000003,
      "d": 432.6929999999993,
      "v": 100
    },
    {
      "midi": 55,
      "hit": false,
      "t": 101827.08600000002,
      "d": 144.23099999999977,
      "v": 100
    },
    {
      "midi": 58,
      "hit": false,
      "t": 101827.08600000002,
      "d": 144.23099999999977,
      "v": 100
    },
    {
      "midi": 63,
      "hit": false,
      "t": 101827.08600000002,
      "d": 144.23099999999977,
      "v": 100
    },
    {
      "midi": 55,
      "hit": false,
      "t": 101971.31700000002,
      "d": 286.0581499999971,
      "v": 100
    },
    {
      "midi": 58,
      "hit": false,
      "t": 101971.31700000002,
      "d": 286.0581499999971,
      "v": 100
    },
    {
      "midi": 63,
      "hit": false,
      "t": 101971.31700000002,
      "d": 286.0581499999971,
      "v": 100
    },
    {
      "midi": 43,
      "hit": false,
      "t": 101971.31700000002,
      "d": 432.6929999999993,
      "v": 100
    },
    {
      "midi": 55,
      "hit": false,
      "t": 102259.77900000002,
      "d": 432.6929999999993,
      "v": 100
    },
    {
      "midi": 58,
      "hit": false,
      "t": 102259.77900000002,
      "d": 432.6929999999993,
      "v": 100
    },
    {
      "midi": 63,
      "hit": false,
      "t": 102259.77900000002,
      "d": 432.6929999999993,
      "v": 100
    },
    {
      "midi": 46,
      "hit": false,
      "t": 102404.01000000002,
      "d": 288.46199999999953,
      "v": 100
    },
    {
      "midi": 57,
      "hit": false,
      "t": 102692.47200000002,
      "d": 288.46199999999953,
      "v": 100
    },
    {
      "midi": 60,
      "hit": false,
      "t": 102692.47200000002,
      "d": 288.46199999999953,
      "v": 100
    },
    {
      "midi": 65,
      "hit": false,
      "t": 102692.47200000002,
      "d": 288.46199999999953,
      "v": 100
    },
    {
      "midi": 41,
      "hit": false,
      "t": 102692.47200000002,
      "d": 432.6929999999993,
      "v": 100
    },
    {
      "midi": 57,
      "hit": false,
      "t": 102980.93400000002,
      "d": 144.23099999999977,
      "v": 100
    },
    {
      "midi": 60,
      "hit": false,
      "t": 102980.93400000002,
      "d": 144.23099999999977,
      "v": 100
    },
    {
      "midi": 65,
      "hit": false,
      "t": 102980.93400000002,
      "d": 144.23099999999977,
      "v": 100
    },
    {
      "midi": 57,
      "hit": false,
      "t": 103125.16500000002,
      "d": 286.0581499999971,
      "v": 100
    },
    {
      "midi": 60,
      "hit": false,
      "t": 103125.16500000002,
      "d": 286.0581499999971,
      "v": 100
    },
    {
      "midi": 65,
      "hit": false,
      "t": 103125.16500000002,
      "d": 286.0581499999971,
      "v": 100
    },
    {
      "midi": 31,
      "hit": false,
      "t": 103125.16500000002,
      "d": 432.6929999999993,
      "v": 100
    },
    {
      "midi": 57,
      "hit": false,
      "t": 103413.62700000002,
      "d": 432.6929999999993,
      "v": 100
    },
    {
      "midi": 60,
      "hit": false,
      "t": 103413.62700000002,
      "d": 432.6929999999993,
      "v": 100
    },
    {
      "midi": 65,
      "hit": false,
      "t": 103413.62700000002,
      "d": 432.6929999999993,
      "v": 100
    },
    {
      "midi": 33,
      "hit": false,
      "t": 103557.85800000002,
      "d": 288.46199999999953,
      "v": 100
    },
    {
      "midi": 53,
      "hit": false,
      "t": 103846.32000000002,
      "d": 288.46199999999953,
      "v": 100
    },
    {
      "midi": 58,
      "hit": false,
      "t": 103846.32000000002,
      "d": 288.46199999999953,
      "v": 100
    },
    {
      "midi": 62,
      "hit": false,
      "t": 103846.32000000002,
      "d": 288.46199999999953,
      "v": 100
    },
    {
      "midi": 34,
      "hit": false,
      "t": 103846.32000000002,
      "d": 432.6929999999993,
      "v": 100
    },
    {
      "midi": 53,
      "hit": false,
      "t": 104134.78200000002,
      "d": 144.23099999999977,
      "v": 100
    },
    {
      "midi": 58,
      "hit": false,
      "t": 104134.78200000002,
      "d": 144.23099999999977,
      "v": 100
    },
    {
      "midi": 62,
      "hit": false,
      "t": 104134.78200000002,
      "d": 144.23099999999977,
      "v": 100
    },
    {
      "midi": 53,
      "hit": false,
      "t": 104279.01300000002,
      "d": 286.0581499999971,
      "v": 100
    },
    {
      "midi": 58,
      "hit": false,
      "t": 104279.01300000002,
      "d": 286.0581499999971,
      "v": 100
    },
    {
      "midi": 62,
      "hit": false,
      "t": 104279.01300000002,
      "d": 286.0581499999971,
      "v": 100
    },
    {
      "midi": 38,
      "hit": false,
      "t": 104279.01300000002,
      "d": 432.6929999999993,
      "v": 100
    },
    {
      "midi": 53,
      "hit": false,
      "t": 104567.47500000002,
      "d": 432.6929999999993,
      "v": 100
    },
    {
      "midi": 58,
      "hit": false,
      "t": 104567.47500000002,
      "d": 432.6929999999993,
      "v": 100
    },
    {
      "midi": 62,
      "hit": false,
      "t": 104567.47500000002,
      "d": 432.6929999999993,
      "v": 100
    },
    {
      "midi": 41,
      "hit": false,
      "t": 104711.70600000002,
      "d": 288.46199999999953,
      "v": 100
    },
    {
      "midi": 55,
      "hit": false,
      "t": 105000.16800000002,
      "d": 288.46199999999953,
      "v": 100
    },
    {
      "midi": 58,
      "hit": false,
      "t": 105000.16800000002,
      "d": 288.46199999999953,
      "v": 100
    },
    {
      "midi": 62,
      "hit": false,
      "t": 105000.16800000002,
      "d": 288.46199999999953,
      "v": 100
    },
    {
      "midi": 31,
      "hit": false,
      "t": 105000.16800000002,
      "d": 432.6929999999993,
      "v": 100
    },
    {
      "midi": 55,
      "hit": false,
      "t": 105288.63000000002,
      "d": 144.23099999999977,
      "v": 100
    },
    {
      "midi": 58,
      "hit": false,
      "t": 105288.63000000002,
      "d": 144.23099999999977,
      "v": 100
    },
    {
      "midi": 62,
      "hit": false,
      "t": 105288.63000000002,
      "d": 144.23099999999977,
      "v": 100
    },
    {
      "midi": 55,
      "hit": false,
      "t": 105432.86100000002,
      "d": 286.0581499999971,
      "v": 100
    },
    {
      "midi": 58,
      "hit": false,
      "t": 105432.86100000002,
      "d": 286.0581499999971,
      "v": 100
    },
    {
      "midi": 62,
      "hit": false,
      "t": 105432.86100000002,
      "d": 286.0581499999971,
      "v": 100
    },
    {
      "midi": 34,
      "hit": false,
      "t": 105432.86100000002,
      "d": 432.6929999999993,
      "v": 100
    },
    {
      "midi": 55,
      "hit": false,
      "t": 105721.32300000002,
      "d": 430.2891499999969,
      "v": 100
    },
    {
      "midi": 58,
      "hit": false,
      "t": 105721.32300000002,
      "d": 430.2891499999969,
      "v": 100
    },
    {
      "midi": 62,
      "hit": false,
      "t": 105721.32300000002,
      "d": 432.6929999999993,
      "v": 100
    },
    {
      "midi": 38,
      "hit": false,
      "t": 105865.55400000002,
      "d": 288.46199999999953,
      "v": 100
    },
    {
      "midi": 55,
      "hit": false,
      "t": 106154.01600000002,
      "d": 288.46199999999953,
      "v": 100
    },
    {
      "midi": 58,
      "hit": false,
      "t": 106154.01600000002,
      "d": 288.46199999999953,
      "v": 100
    },
    {
      "midi": 63,
      "hit": false,
      "t": 106154.01600000002,
      "d": 288.46199999999953,
      "v": 100
    },
    {
      "midi": 39,
      "hit": false,
      "t": 106154.01600000002,
      "d": 432.6929999999993,
      "v": 100
    },
    {
      "midi": 55,
      "hit": false,
      "t": 106442.47800000002,
      "d": 144.23099999999977,
      "v": 100
    },
    {
      "midi": 58,
      "hit": false,
      "t": 106442.47800000002,
      "d": 144.23099999999977,
      "v": 100
    },
    {
      "midi": 63,
      "hit": false,
      "t": 106442.47800000002,
      "d": 144.23099999999977,
      "v": 100
    },
    {
      "midi": 55,
      "hit": false,
      "t": 106586.70900000002,
      "d": 286.0581499999971,
      "v": 100
    },
    {
      "midi": 58,
      "hit": false,
      "t": 106586.70900000002,
      "d": 286.0581499999971,
      "v": 100
    },
    {
      "midi": 63,
      "hit": false,
      "t": 106586.70900000002,
      "d": 286.0581499999971,
      "v": 100
    },
    {
      "midi": 43,
      "hit": false,
      "t": 106586.70900000002,
      "d": 432.6929999999993,
      "v": 100
    },
    {
      "midi": 55,
      "hit": false,
      "t": 106875.17100000002,
      "d": 432.6929999999993,
      "v": 100
    },
    {
      "midi": 58,
      "hit": false,
      "t": 106875.17100000002,
      "d": 432.6929999999993,
      "v": 100
    },
    {
      "midi": 63,
      "hit": false,
      "t": 106875.17100000002,
      "d": 432.6929999999993,
      "v": 100
    },
    {
      "midi": 46,
      "hit": false,
      "t": 107019.40200000002,
      "d": 288.46199999999953,
      "v": 100
    },
    {
      "midi": 57,
      "hit": false,
      "t": 107307.86400000002,
      "d": 288.46199999999953,
      "v": 100
    },
    {
      "midi": 60,
      "hit": false,
      "t": 107307.86400000002,
      "d": 288.46199999999953,
      "v": 100
    },
    {
      "midi": 65,
      "hit": false,
      "t": 107307.86400000002,
      "d": 288.46199999999953,
      "v": 100
    },
    {
      "midi": 41,
      "hit": false,
      "t": 107307.86400000002,
      "d": 432.6929999999993,
      "v": 100
    },
    {
      "midi": 57,
      "hit": false,
      "t": 107596.32600000002,
      "d": 144.23099999999977,
      "v": 100
    },
    {
      "midi": 60,
      "hit": false,
      "t": 107596.32600000002,
      "d": 144.23099999999977,
      "v": 100
    },
    {
      "midi": 65,
      "hit": false,
      "t": 107596.32600000002,
      "d": 144.23099999999977,
      "v": 100
    },
    {
      "midi": 57,
      "hit": false,
      "t": 107740.55700000002,
      "d": 286.0581499999971,
      "v": 100
    },
    {
      "midi": 60,
      "hit": false,
      "t": 107740.55700000002,
      "d": 286.0581499999971,
      "v": 100
    },
    {
      "midi": 65,
      "hit": false,
      "t": 107740.55700000002,
      "d": 286.0581499999971,
      "v": 100
    },
    {
      "midi": 31,
      "hit": false,
      "t": 107740.55700000002,
      "d": 432.6929999999993,
      "v": 100
    },
    {
      "midi": 57,
      "hit": false,
      "t": 108029.01900000001,
      "d": 432.6929999999993,
      "v": 100
    },
    {
      "midi": 60,
      "hit": false,
      "t": 108029.01900000001,
      "d": 432.6929999999993,
      "v": 100
    },
    {
      "midi": 65,
      "hit": false,
      "t": 108029.01900000001,
      "d": 432.6929999999993,
      "v": 100
    },
    {
      "midi": 33,
      "hit": false,
      "t": 108173.25000000001,
      "d": 288.46199999999953,
      "v": 100
    },
    {
      "midi": 53,
      "hit": false,
      "t": 108461.71200000001,
      "d": 288.46199999999953,
      "v": 100
    },
    {
      "midi": 58,
      "hit": false,
      "t": 108461.71200000001,
      "d": 288.46199999999953,
      "v": 100
    },
    {
      "midi": 62,
      "hit": false,
      "t": 108461.71200000001,
      "d": 288.46199999999953,
      "v": 100
    },
    {
      "midi": 34,
      "hit": false,
      "t": 108461.71200000001,
      "d": 432.6929999999993,
      "v": 100
    },
    {
      "midi": 53,
      "hit": false,
      "t": 108750.17400000001,
      "d": 144.23099999999977,
      "v": 100
    },
    {
      "midi": 58,
      "hit": false,
      "t": 108750.17400000001,
      "d": 144.23099999999977,
      "v": 100
    },
    {
      "midi": 62,
      "hit": false,
      "t": 108750.17400000001,
      "d": 144.23099999999977,
      "v": 100
    },
    {
      "midi": 53,
      "hit": false,
      "t": 108894.40500000001,
      "d": 286.0581499999971,
      "v": 100
    },
    {
      "midi": 58,
      "hit": false,
      "t": 108894.40500000001,
      "d": 286.0581499999971,
      "v": 100
    },
    {
      "midi": 62,
      "hit": false,
      "t": 108894.40500000001,
      "d": 286.0581499999971,
      "v": 100
    },
    {
      "midi": 38,
      "hit": false,
      "t": 108894.40500000001,
      "d": 432.6929999999993,
      "v": 100
    },
    {
      "midi": 53,
      "hit": false,
      "t": 109182.86700000001,
      "d": 432.6929999999993,
      "v": 100
    },
    {
      "midi": 58,
      "hit": false,
      "t": 109182.86700000001,
      "d": 432.6929999999993,
      "v": 100
    },
    {
      "midi": 62,
      "hit": false,
      "t": 109182.86700000001,
      "d": 432.6929999999993,
      "v": 100
    },
    {
      "midi": 41,
      "hit": false,
      "t": 109327.09800000001,
      "d": 288.46199999999953,
      "v": 100
    },
    {
      "midi": 55,
      "hit": false,
      "t": 109615.56000000001,
      "d": 288.46199999999953,
      "v": 100
    },
    {
      "midi": 58,
      "hit": false,
      "t": 109615.56000000001,
      "d": 288.46199999999953,
      "v": 100
    },
    {
      "midi": 62,
      "hit": false,
      "t": 109615.56000000001,
      "d": 288.46199999999953,
      "v": 100
    },
    {
      "midi": 31,
      "hit": false,
      "t": 109615.56000000001,
      "d": 432.6929999999993,
      "v": 100
    },
    {
      "midi": 55,
      "hit": false,
      "t": 109904.02200000001,
      "d": 144.23099999999977,
      "v": 100
    },
    {
      "midi": 58,
      "hit": false,
      "t": 109904.02200000001,
      "d": 144.23099999999977,
      "v": 100
    },
    {
      "midi": 62,
      "hit": false,
      "t": 109904.02200000001,
      "d": 144.23099999999977,
      "v": 100
    },
    {
      "midi": 55,
      "hit": false,
      "t": 110048.25300000001,
      "d": 286.0581499999971,
      "v": 100
    },
    {
      "midi": 58,
      "hit": false,
      "t": 110048.25300000001,
      "d": 286.0581499999971,
      "v": 100
    },
    {
      "midi": 62,
      "hit": false,
      "t": 110048.25300000001,
      "d": 286.0581499999971,
      "v": 100
    },
    {
      "midi": 34,
      "hit": false,
      "t": 110048.25300000001,
      "d": 432.6929999999993,
      "v": 100
    },
    {
      "midi": 55,
      "hit": false,
      "t": 110336.71500000001,
      "d": 432.6929999999993,
      "v": 100
    },
    {
      "midi": 58,
      "hit": false,
      "t": 110336.71500000001,
      "d": 432.6929999999993,
      "v": 100
    },
    {
      "midi": 62,
      "hit": false,
      "t": 110336.71500000001,
      "d": 432.6929999999993,
      "v": 100
    },
    {
      "midi": 38,
      "hit": false,
      "t": 110480.94600000001,
      "d": 288.46199999999953,
      "v": 100
    },
    {
      "midi": 55,
      "hit": false,
      "t": 110769.40800000001,
      "d": 288.46199999999953,
      "v": 100
    },
    {
      "midi": 58,
      "hit": false,
      "t": 110769.40800000001,
      "d": 288.46199999999953,
      "v": 100
    },
    {
      "midi": 63,
      "hit": false,
      "t": 110769.40800000001,
      "d": 288.46199999999953,
      "v": 100
    },
    {
      "midi": 39,
      "hit": false,
      "t": 110769.40800000001,
      "d": 432.6929999999993,
      "v": 100
    },
    {
      "midi": 55,
      "hit": false,
      "t": 111057.87000000001,
      "d": 144.23099999999977,
      "v": 100
    },
    {
      "midi": 58,
      "hit": false,
      "t": 111057.87000000001,
      "d": 144.23099999999977,
      "v": 100
    },
    {
      "midi": 63,
      "hit": false,
      "t": 111057.87000000001,
      "d": 144.23099999999977,
      "v": 100
    },
    {
      "midi": 55,
      "hit": false,
      "t": 111202.10100000001,
      "d": 286.0581499999971,
      "v": 100
    },
    {
      "midi": 58,
      "hit": false,
      "t": 111202.10100000001,
      "d": 286.0581499999971,
      "v": 100
    },
    {
      "midi": 63,
      "hit": false,
      "t": 111202.10100000001,
      "d": 286.0581499999971,
      "v": 100
    },
    {
      "midi": 43,
      "hit": false,
      "t": 111202.10100000001,
      "d": 432.6929999999993,
      "v": 100
    },
    {
      "midi": 55,
      "hit": false,
      "t": 111490.56300000001,
      "d": 430.2891499999969,
      "v": 100
    },
    {
      "midi": 58,
      "hit": false,
      "t": 111490.56300000001,
      "d": 430.2891499999969,
      "v": 100
    },
    {
      "midi": 63,
      "hit": false,
      "t": 111490.56300000001,
      "d": 430.2891499999969,
      "v": 100
    },
    {
      "midi": 46,
      "hit": false,
      "t": 111634.79400000001,
      "d": 288.46199999999953,
      "v": 100
    },
    {
      "midi": 101,
      "hit": false,
      "t": 111923.25600000001,
      "d": 36.05775000000722,
      "v": 100
    },
    {
      "midi": 41,
      "hit": false,
      "t": 111923.25600000001,
      "d": 432.6930000000866,
      "v": 100
    },
    {
      "midi": 100,
      "hit": false,
      "t": 111959.31375000002,
      "d": 36.05775000000722,
      "v": 100
    },
    {
      "midi": 98,
      "hit": false,
      "t": 111995.37150000002,
      "d": 36.05775000000722,
      "v": 100
    },
    {
      "midi": 96,
      "hit": false,
      "t": 112031.42925000003,
      "d": 36.05775000000722,
      "v": 100
    },
    {
      "midi": 95,
      "hit": false,
      "t": 112067.48700000004,
      "d": 36.05775000000722,
      "v": 100
    },
    {
      "midi": 93,
      "hit": false,
      "t": 112103.54475000004,
      "d": 36.05775000000722,
      "v": 100
    },
    {
      "midi": 91,
      "hit": false,
      "t": 112139.60250000005,
      "d": 36.05775000000722,
      "v": 100
    },
    {
      "midi": 89,
      "hit": false,
      "t": 112175.66025000006,
      "d": 36.05775000000722,
      "v": 100
    },
    {
      "midi": 88,
      "hit": false,
      "t": 112211.71800000007,
      "d": 36.05775000000722,
      "v": 100
    },
    {
      "midi": 86,
      "hit": false,
      "t": 112247.77575000007,
      "d": 36.05775000000722,
      "v": 100
    },
    {
      "midi": 84,
      "hit": false,
      "t": 112283.83350000008,
      "d": 36.05775000000722,
      "v": 100
    },
    {
      "midi": 83,
      "hit": false,
      "t": 112319.89125000009,
      "d": 36.05775000000722,
      "v": 100
    },
    {
      "midi": 81,
      "hit": false,
      "t": 112355.9490000001,
      "d": 36.05775000000722,
      "v": 100
    },
    {
      "midi": 31,
      "hit": false,
      "t": 112355.9490000001,
      "d": 432.6930000000866,
      "v": 100
    },
    {
      "midi": 79,
      "hit": false,
      "t": 112392.0067500001,
      "d": 36.05775000000722,
      "v": 100
    },
    {
      "midi": 77,
      "hit": false,
      "t": 112428.06450000011,
      "d": 36.05775000000722,
      "v": 100
    },
    {
      "midi": 76,
      "hit": false,
      "t": 112464.12225000012,
      "d": 36.05775000000722,
      "v": 100
    },
    {
      "midi": 74,
      "hit": false,
      "t": 112500.18000000012,
      "d": 36.05775000000722,
      "v": 100
    },
    {
      "midi": 72,
      "hit": false,
      "t": 112536.23775000013,
      "d": 36.05775000000722,
      "v": 100
    },
    {
      "midi": 71,
      "hit": false,
      "t": 112572.29550000014,
      "d": 36.05775000000722,
      "v": 100
    },
    {
      "midi": 69,
      "hit": false,
      "t": 112608.35325000015,
      "d": 36.05775000000722,
      "v": 100
    },
    {
      "midi": 67,
      "hit": false,
      "t": 112644.41100000015,
      "d": 36.05775000000722,
      "v": 100
    },
    {
      "midi": 65,
      "hit": false,
      "t": 112680.46875000016,
      "d": 36.05775000000722,
      "v": 100
    },
    {
      "midi": 64,
      "hit": false,
      "t": 112716.52650000017,
      "d": 36.05775000000722,
      "v": 100
    },
    {
      "midi": 62,
      "hit": false,
      "t": 112752.58425000017,
      "d": 36.05775000000722,
      "v": 100
    },
    {
      "midi": 60,
      "hit": false,
      "t": 112788.64200000018,
      "d": 36.05775000000722,
      "v": 100
    },
    {
      "midi": 33,
      "hit": false,
      "t": 112788.64200000018,
      "d": 288.46200000005774,
      "v": 100
    },
    {
      "midi": 59,
      "hit": false,
      "t": 112824.69975000019,
      "d": 36.05775000000722,
      "v": 100
    },
    {
      "midi": 57,
      "hit": false,
      "t": 112860.7575000002,
      "d": 36.05775000000722,
      "v": 100
    },
    {
      "midi": 55,
      "hit": false,
      "t": 112896.8152500002,
      "d": 36.05775000000722,
      "v": 100
    },
    {
      "midi": 53,
      "hit": false,
      "t": 112932.87300000021,
      "d": 36.05775000000722,
      "v": 100
    },
    {
      "midi": 52,
      "hit": false,
      "t": 112968.93075000022,
      "d": 36.05775000000722,
      "v": 100
    },
    {
      "midi": 50,
      "hit": false,
      "t": 113004.98850000023,
      "d": 36.05775000000722,
      "v": 100
    },
    {
      "midi": 48,
      "hit": false,
      "t": 113041.04625000023,
      "d": 36.05775000000722,
      "v": 100
    },
    {
      "midi": 47,
      "hit": false,
      "t": 113077.10400000024,
      "d": 36.05775000000722,
      "v": 100
    },
    {
      "midi": 53,
      "hit": false,
      "t": 113077.10400000024,
      "d": 288.4620000000141,
      "v": 100
    },
    {
      "midi": 58,
      "hit": false,
      "t": 113077.10400000024,
      "d": 288.4620000000141,
      "v": 100
    },
    {
      "midi": 62,
      "hit": false,
      "t": 113077.10400000024,
      "d": 288.4620000000141,
      "v": 100
    },
    {
      "midi": 34,
      "hit": false,
      "t": 113077.10400000024,
      "d": 432.69300000001385,
      "v": 100
    },
    {
      "midi": 53,
      "hit": false,
      "t": 113365.56600000025,
      "d": 144.23099999999977,
      "v": 100
    },
    {
      "midi": 57,
      "hit": false,
      "t": 113365.56600000025,
      "d": 144.23099999999977,
      "v": 100
    },
    {
      "midi": 62,
      "hit": false,
      "t": 113365.56600000025,
      "d": 144.23099999999977,
      "v": 100
    },
    {
      "midi": 53,
      "hit": false,
      "t": 113509.79700000025,
      "d": 286.0581499999971,
      "v": 100
    },
    {
      "midi": 57,
      "hit": false,
      "t": 113509.79700000025,
      "d": 286.0581499999971,
      "v": 100
    },
    {
      "midi": 62,
      "hit": false,
      "t": 113509.79700000025,
      "d": 286.0581499999971,
      "v": 100
    },
    {
      "midi": 38,
      "hit": false,
      "t": 113509.79700000025,
      "d": 432.6929999999993,
      "v": 100
    },
    {
      "midi": 53,
      "hit": false,
      "t": 113798.25900000025,
      "d": 432.6929999999993,
      "v": 100
    },
    {
      "midi": 57,
      "hit": false,
      "t": 113798.25900000025,
      "d": 432.6929999999993,
      "v": 100
    },
    {
      "midi": 62,
      "hit": false,
      "t": 113798.25900000025,
      "d": 432.6929999999993,
      "v": 100
    },
    {
      "midi": 41,
      "hit": false,
      "t": 113942.49000000025,
      "d": 288.46199999999953,
      "v": 100
    },
    {
      "midi": 55,
      "hit": false,
      "t": 114230.95200000025,
      "d": 288.46199999999953,
      "v": 100
    },
    {
      "midi": 58,
      "hit": false,
      "t": 114230.95200000025,
      "d": 288.46199999999953,
      "v": 100
    },
    {
      "midi": 62,
      "hit": false,
      "t": 114230.95200000025,
      "d": 288.46199999999953,
      "v": 100
    },
    {
      "midi": 31,
      "hit": false,
      "t": 114230.95200000025,
      "d": 432.6929999999993,
      "v": 100
    },
    {
      "midi": 55,
      "hit": false,
      "t": 114519.41400000025,
      "d": 144.23099999999977,
      "v": 100
    },
    {
      "midi": 58,
      "hit": false,
      "t": 114519.41400000025,
      "d": 144.23099999999977,
      "v": 100
    },
    {
      "midi": 62,
      "hit": false,
      "t": 114519.41400000025,
      "d": 144.23099999999977,
      "v": 100
    },
    {
      "midi": 55,
      "hit": false,
      "t": 114663.64500000025,
      "d": 286.0581499999971,
      "v": 100
    },
    {
      "midi": 58,
      "hit": false,
      "t": 114663.64500000025,
      "d": 286.0581499999971,
      "v": 100
    },
    {
      "midi": 62,
      "hit": false,
      "t": 114663.64500000025,
      "d": 286.0581499999971,
      "v": 100
    },
    {
      "midi": 34,
      "hit": false,
      "t": 114663.64500000025,
      "d": 432.6929999999993,
      "v": 100
    },
    {
      "midi": 55,
      "hit": false,
      "t": 114952.10700000025,
      "d": 432.6929999999993,
      "v": 100
    },
    {
      "midi": 58,
      "hit": false,
      "t": 114952.10700000025,
      "d": 432.6929999999993,
      "v": 100
    },
    {
      "midi": 62,
      "hit": false,
      "t": 114952.10700000025,
      "d": 432.6929999999993,
      "v": 100
    },
    {
      "midi": 38,
      "hit": false,
      "t": 115096.33800000025,
      "d": 288.46199999999953,
      "v": 100
    },
    {
      "midi": 55,
      "hit": false,
      "t": 115384.80000000025,
      "d": 288.46199999999953,
      "v": 100
    },
    {
      "midi": 58,
      "hit": false,
      "t": 115384.80000000025,
      "d": 288.46199999999953,
      "v": 100
    },
    {
      "midi": 63,
      "hit": false,
      "t": 115384.80000000025,
      "d": 288.46199999999953,
      "v": 100
    },
    {
      "midi": 39,
      "hit": false,
      "t": 115384.80000000025,
      "d": 432.6929999999993,
      "v": 100
    },
    {
      "midi": 55,
      "hit": false,
      "t": 115673.26200000025,
      "d": 144.23099999999977,
      "v": 100
    },
    {
      "midi": 58,
      "hit": false,
      "t": 115673.26200000025,
      "d": 144.23099999999977,
      "v": 100
    },
    {
      "midi": 63,
      "hit": false,
      "t": 115673.26200000025,
      "d": 144.23099999999977,
      "v": 100
    },
    {
      "midi": 55,
      "hit": false,
      "t": 115817.49300000025,
      "d": 286.0581499999971,
      "v": 100
    },
    {
      "midi": 58,
      "hit": false,
      "t": 115817.49300000025,
      "d": 286.0581499999971,
      "v": 100
    },
    {
      "midi": 63,
      "hit": false,
      "t": 115817.49300000025,
      "d": 286.0581499999971,
      "v": 100
    },
    {
      "midi": 43,
      "hit": false,
      "t": 115817.49300000025,
      "d": 432.6929999999993,
      "v": 100
    },
    {
      "midi": 46,
      "hit": false,
      "t": 116250.18600000025,
      "d": 288.46199999999953,
      "v": 100
    },
    {
      "midi": 57,
      "hit": false,
      "t": 116538.64800000025,
      "d": 288.46199999999953,
      "v": 100
    },
    {
      "midi": 60,
      "hit": false,
      "t": 116538.64800000025,
      "d": 288.46199999999953,
      "v": 100
    },
    {
      "midi": 65,
      "hit": false,
      "t": 116538.64800000025,
      "d": 288.46199999999953,
      "v": 100
    },
    {
      "midi": 41,
      "hit": false,
      "t": 116538.64800000025,
      "d": 432.6929999999993,
      "v": 100
    },
    {
      "midi": 57,
      "hit": false,
      "t": 116827.11000000025,
      "d": 144.23099999999977,
      "v": 100
    },
    {
      "midi": 60,
      "hit": false,
      "t": 116827.11000000025,
      "d": 144.23099999999977,
      "v": 100
    },
    {
      "midi": 65,
      "hit": false,
      "t": 116827.11000000025,
      "d": 144.23099999999977,
      "v": 100
    },
    {
      "midi": 57,
      "hit": false,
      "t": 116971.34100000025,
      "d": 286.0581499999971,
      "v": 100
    },
    {
      "midi": 60,
      "hit": false,
      "t": 116971.34100000025,
      "d": 286.0581499999971,
      "v": 100
    },
    {
      "midi": 65,
      "hit": false,
      "t": 116971.34100000025,
      "d": 286.0581499999971,
      "v": 100
    },
    {
      "midi": 31,
      "hit": false,
      "t": 116971.34100000025,
      "d": 432.6929999999993,
      "v": 100
    },
    {
      "midi": 57,
      "hit": false,
      "t": 117259.80300000025,
      "d": 432.6929999999993,
      "v": 100
    },
    {
      "midi": 60,
      "hit": false,
      "t": 117259.80300000025,
      "d": 432.6929999999993,
      "v": 100
    },
    {
      "midi": 65,
      "hit": false,
      "t": 117259.80300000025,
      "d": 432.6929999999993,
      "v": 100
    },
    {
      "midi": 33,
      "hit": false,
      "t": 117404.03400000025,
      "d": 288.46199999999953,
      "v": 100
    },
    {
      "midi": 53,
      "hit": false,
      "t": 117692.49600000025,
      "d": 288.46199999999953,
      "v": 100
    },
    {
      "midi": 58,
      "hit": false,
      "t": 117692.49600000025,
      "d": 288.46199999999953,
      "v": 100
    },
    {
      "midi": 62,
      "hit": false,
      "t": 117692.49600000025,
      "d": 288.46199999999953,
      "v": 100
    },
    {
      "midi": 34,
      "hit": false,
      "t": 117692.49600000025,
      "d": 432.6929999999993,
      "v": 100
    },
    {
      "midi": 53,
      "hit": false,
      "t": 117980.95800000025,
      "d": 144.23099999999977,
      "v": 100
    },
    {
      "midi": 57,
      "hit": false,
      "t": 117980.95800000025,
      "d": 144.23099999999977,
      "v": 100
    },
    {
      "midi": 62,
      "hit": false,
      "t": 117980.95800000025,
      "d": 144.23099999999977,
      "v": 100
    },
    {
      "midi": 53,
      "hit": false,
      "t": 118125.18900000025,
      "d": 286.0581499999971,
      "v": 100
    },
    {
      "midi": 57,
      "hit": false,
      "t": 118125.18900000025,
      "d": 286.0581499999971,
      "v": 100
    },
    {
      "midi": 62,
      "hit": false,
      "t": 118125.18900000025,
      "d": 286.0581499999971,
      "v": 100
    },
    {
      "midi": 38,
      "hit": false,
      "t": 118125.18900000025,
      "d": 432.6929999999993,
      "v": 100
    },
    {
      "midi": 53,
      "hit": false,
      "t": 118413.65100000025,
      "d": 432.6929999999993,
      "v": 100
    },
    {
      "midi": 57,
      "hit": false,
      "t": 118413.65100000025,
      "d": 432.6929999999993,
      "v": 100
    },
    {
      "midi": 62,
      "hit": false,
      "t": 118413.65100000025,
      "d": 432.6929999999993,
      "v": 100
    },
    {
      "midi": 41,
      "hit": false,
      "t": 118557.88200000025,
      "d": 288.46199999999953,
      "v": 100
    },
    {
      "midi": 55,
      "hit": false,
      "t": 118846.34400000024,
      "d": 288.46199999999953,
      "v": 100
    },
    {
      "midi": 58,
      "hit": false,
      "t": 118846.34400000024,
      "d": 288.46199999999953,
      "v": 100
    },
    {
      "midi": 62,
      "hit": false,
      "t": 118846.34400000024,
      "d": 288.46199999999953,
      "v": 100
    },
    {
      "midi": 31,
      "hit": false,
      "t": 118846.34400000024,
      "d": 432.6929999999993,
      "v": 100
    },
    {
      "midi": 55,
      "hit": false,
      "t": 119134.80600000024,
      "d": 144.23099999999977,
      "v": 100
    },
    {
      "midi": 58,
      "hit": false,
      "t": 119134.80600000024,
      "d": 144.23099999999977,
      "v": 100
    },
    {
      "midi": 62,
      "hit": false,
      "t": 119134.80600000024,
      "d": 144.23099999999977,
      "v": 100
    },
    {
      "midi": 55,
      "hit": false,
      "t": 119279.03700000024,
      "d": 286.0581499999971,
      "v": 100
    },
    {
      "midi": 58,
      "hit": false,
      "t": 119279.03700000024,
      "d": 286.0581499999971,
      "v": 100
    },
    {
      "midi": 62,
      "hit": false,
      "t": 119279.03700000024,
      "d": 286.0581499999971,
      "v": 100
    },
    {
      "midi": 34,
      "hit": false,
      "t": 119279.03700000024,
      "d": 432.6929999999993,
      "v": 100
    },
    {
      "midi": 55,
      "hit": false,
      "t": 119567.49900000024,
      "d": 432.6929999999993,
      "v": 100
    },
    {
      "midi": 58,
      "hit": false,
      "t": 119567.49900000024,
      "d": 432.6929999999993,
      "v": 100
    },
    {
      "midi": 62,
      "hit": false,
      "t": 119567.49900000024,
      "d": 432.6929999999993,
      "v": 100
    },
    {
      "midi": 38,
      "hit": false,
      "t": 119711.73000000024,
      "d": 288.46199999999953,
      "v": 100
    },
    {
      "midi": 55,
      "hit": false,
      "t": 120000.19200000024,
      "d": 288.46199999999953,
      "v": 100
    },
    {
      "midi": 58,
      "hit": false,
      "t": 120000.19200000024,
      "d": 288.46199999999953,
      "v": 100
    },
    {
      "midi": 63,
      "hit": false,
      "t": 120000.19200000024,
      "d": 288.46199999999953,
      "v": 100
    },
    {
      "midi": 39,
      "hit": false,
      "t": 120000.19200000024,
      "d": 432.6929999999993,
      "v": 100
    },
    {
      "midi": 55,
      "hit": false,
      "t": 120288.65400000024,
      "d": 144.23099999999977,
      "v": 100
    },
    {
      "midi": 58,
      "hit": false,
      "t": 120288.65400000024,
      "d": 144.23099999999977,
      "v": 100
    },
    {
      "midi": 63,
      "hit": false,
      "t": 120288.65400000024,
      "d": 144.23099999999977,
      "v": 100
    },
    {
      "midi": 55,
      "hit": false,
      "t": 120432.88500000024,
      "d": 286.0581499999971,
      "v": 100
    },
    {
      "midi": 58,
      "hit": false,
      "t": 120432.88500000024,
      "d": 286.0581499999971,
      "v": 100
    },
    {
      "midi": 63,
      "hit": false,
      "t": 120432.88500000024,
      "d": 286.0581499999971,
      "v": 100
    },
    {
      "midi": 43,
      "hit": false,
      "t": 120432.88500000024,
      "d": 432.6929999999993,
      "v": 100
    },
    {
      "midi": 46,
      "hit": false,
      "t": 120865.57800000024,
      "d": 288.46199999999953,
      "v": 100
    },
    {
      "midi": 57,
      "hit": false,
      "t": 121154.04000000024,
      "d": 288.46199999999953,
      "v": 100
    },
    {
      "midi": 60,
      "hit": false,
      "t": 121154.04000000024,
      "d": 288.46199999999953,
      "v": 100
    },
    {
      "midi": 65,
      "hit": false,
      "t": 121154.04000000024,
      "d": 288.46199999999953,
      "v": 100
    },
    {
      "midi": 41,
      "hit": false,
      "t": 121154.04000000024,
      "d": 432.6929999999993,
      "v": 100
    },
    {
      "midi": 57,
      "hit": false,
      "t": 121442.50200000024,
      "d": 144.23099999999977,
      "v": 100
    },
    {
      "midi": 60,
      "hit": false,
      "t": 121442.50200000024,
      "d": 144.23099999999977,
      "v": 100
    },
    {
      "midi": 65,
      "hit": false,
      "t": 121442.50200000024,
      "d": 144.23099999999977,
      "v": 100
    },
    {
      "midi": 57,
      "hit": false,
      "t": 121586.73300000024,
      "d": 286.0581499999971,
      "v": 100
    },
    {
      "midi": 60,
      "hit": false,
      "t": 121586.73300000024,
      "d": 286.0581499999971,
      "v": 100
    },
    {
      "midi": 65,
      "hit": false,
      "t": 121586.73300000024,
      "d": 286.0581499999971,
      "v": 100
    },
    {
      "midi": 31,
      "hit": false,
      "t": 121586.73300000024,
      "d": 432.6929999999993,
      "v": 100
    },
    {
      "midi": 57,
      "hit": false,
      "t": 121875.19500000024,
      "d": 432.6929999999993,
      "v": 100
    },
    {
      "midi": 60,
      "hit": false,
      "t": 121875.19500000024,
      "d": 432.6929999999993,
      "v": 100
    },
    {
      "midi": 65,
      "hit": false,
      "t": 121875.19500000024,
      "d": 432.6929999999993,
      "v": 100
    },
    {
      "midi": 33,
      "hit": false,
      "t": 122019.42600000024,
      "d": 288.46199999999953,
      "v": 100
    },
    {
      "midi": 53,
      "hit": false,
      "t": 122307.88800000024,
      "d": 288.46199999999953,
      "v": 100
    },
    {
      "midi": 58,
      "hit": false,
      "t": 122307.88800000024,
      "d": 288.46199999999953,
      "v": 100
    },
    {
      "midi": 62,
      "hit": false,
      "t": 122307.88800000024,
      "d": 288.46199999999953,
      "v": 100
    },
    {
      "midi": 34,
      "hit": false,
      "t": 122307.88800000024,
      "d": 432.6929999999993,
      "v": 100
    },
    {
      "midi": 53,
      "hit": false,
      "t": 122596.35000000024,
      "d": 144.23099999999977,
      "v": 100
    },
    {
      "midi": 57,
      "hit": false,
      "t": 122596.35000000024,
      "d": 144.23099999999977,
      "v": 100
    },
    {
      "midi": 62,
      "hit": false,
      "t": 122596.35000000024,
      "d": 144.23099999999977,
      "v": 100
    },
    {
      "midi": 53,
      "hit": false,
      "t": 122740.58100000024,
      "d": 286.0581499999971,
      "v": 100
    },
    {
      "midi": 57,
      "hit": false,
      "t": 122740.58100000024,
      "d": 286.0581499999971,
      "v": 100
    },
    {
      "midi": 62,
      "hit": false,
      "t": 122740.58100000024,
      "d": 286.0581499999971,
      "v": 100
    },
    {
      "midi": 38,
      "hit": false,
      "t": 122740.58100000024,
      "d": 432.6929999999993,
      "v": 100
    },
    {
      "midi": 53,
      "hit": false,
      "t": 123029.04300000024,
      "d": 432.6929999999993,
      "v": 100
    },
    {
      "midi": 57,
      "hit": false,
      "t": 123029.04300000024,
      "d": 432.6929999999993,
      "v": 100
    },
    {
      "midi": 62,
      "hit": false,
      "t": 123029.04300000024,
      "d": 432.6929999999993,
      "v": 100
    },
    {
      "midi": 41,
      "hit": false,
      "t": 123173.27400000024,
      "d": 288.46199999999953,
      "v": 100
    },
    {
      "midi": 55,
      "hit": false,
      "t": 123461.73600000024,
      "d": 288.46199999999953,
      "v": 100
    },
    {
      "midi": 58,
      "hit": false,
      "t": 123461.73600000024,
      "d": 288.46199999999953,
      "v": 100
    },
    {
      "midi": 62,
      "hit": false,
      "t": 123461.73600000024,
      "d": 288.46199999999953,
      "v": 100
    },
    {
      "midi": 31,
      "hit": false,
      "t": 123461.73600000024,
      "d": 432.6929999999993,
      "v": 100
    },
    {
      "midi": 55,
      "hit": false,
      "t": 123750.19800000024,
      "d": 144.23099999999977,
      "v": 100
    },
    {
      "midi": 58,
      "hit": false,
      "t": 123750.19800000024,
      "d": 144.23099999999977,
      "v": 100
    },
    {
      "midi": 62,
      "hit": false,
      "t": 123750.19800000024,
      "d": 144.23099999999977,
      "v": 100
    },
    {
      "midi": 55,
      "hit": false,
      "t": 123894.42900000024,
      "d": 286.0581499999971,
      "v": 100
    },
    {
      "midi": 58,
      "hit": false,
      "t": 123894.42900000024,
      "d": 286.0581499999971,
      "v": 100
    },
    {
      "midi": 62,
      "hit": false,
      "t": 123894.42900000024,
      "d": 286.0581499999971,
      "v": 100
    },
    {
      "midi": 34,
      "hit": false,
      "t": 123894.42900000024,
      "d": 432.6929999999993,
      "v": 100
    },
    {
      "midi": 55,
      "hit": false,
      "t": 124182.89100000024,
      "d": 432.6929999999993,
      "v": 100
    },
    {
      "midi": 58,
      "hit": false,
      "t": 124182.89100000024,
      "d": 432.6929999999993,
      "v": 100
    },
    {
      "midi": 62,
      "hit": false,
      "t": 124182.89100000024,
      "d": 432.6929999999993,
      "v": 100
    },
    {
      "midi": 38,
      "hit": false,
      "t": 124327.12200000024,
      "d": 288.46199999999953,
      "v": 100
    },
    {
      "midi": 55,
      "hit": false,
      "t": 124615.58400000024,
      "d": 288.46199999999953,
      "v": 100
    },
    {
      "midi": 58,
      "hit": false,
      "t": 124615.58400000024,
      "d": 288.46199999999953,
      "v": 100
    },
    {
      "midi": 63,
      "hit": false,
      "t": 124615.58400000024,
      "d": 288.46199999999953,
      "v": 100
    },
    {
      "midi": 39,
      "hit": false,
      "t": 124615.58400000024,
      "d": 432.6929999999993,
      "v": 100
    },
    {
      "midi": 55,
      "hit": false,
      "t": 124904.04600000023,
      "d": 144.23099999999977,
      "v": 100
    },
    {
      "midi": 58,
      "hit": false,
      "t": 124904.04600000023,
      "d": 144.23099999999977,
      "v": 100
    },
    {
      "midi": 63,
      "hit": false,
      "t": 124904.04600000023,
      "d": 144.23099999999977,
      "v": 100
    },
    {
      "midi": 55,
      "hit": false,
      "t": 125048.27700000023,
      "d": 286.0581499999971,
      "v": 100
    },
    {
      "midi": 58,
      "hit": false,
      "t": 125048.27700000023,
      "d": 286.0581499999971,
      "v": 100
    },
    {
      "midi": 63,
      "hit": false,
      "t": 125048.27700000023,
      "d": 286.0581499999971,
      "v": 100
    },
    {
      "midi": 43,
      "hit": false,
      "t": 125048.27700000023,
      "d": 432.6929999999993,
      "v": 100
    },
    {
      "midi": 46,
      "hit": false,
      "t": 125480.97000000023,
      "d": 288.46199999999953,
      "v": 100
    },
    {
      "midi": 57,
      "hit": false,
      "t": 125769.43200000023,
      "d": 288.46199999999953,
      "v": 100
    },
    {
      "midi": 60,
      "hit": false,
      "t": 125769.43200000023,
      "d": 288.46199999999953,
      "v": 100
    },
    {
      "midi": 65,
      "hit": false,
      "t": 125769.43200000023,
      "d": 288.46199999999953,
      "v": 100
    },
    {
      "midi": 41,
      "hit": false,
      "t": 125769.43200000023,
      "d": 432.6929999999993,
      "v": 100
    },
    {
      "midi": 57,
      "hit": false,
      "t": 126057.89400000023,
      "d": 144.23099999999977,
      "v": 100
    },
    {
      "midi": 60,
      "hit": false,
      "t": 126057.89400000023,
      "d": 144.23099999999977,
      "v": 100
    },
    {
      "midi": 65,
      "hit": false,
      "t": 126057.89400000023,
      "d": 144.23099999999977,
      "v": 100
    },
    {
      "midi": 57,
      "hit": false,
      "t": 126202.12500000023,
      "d": 286.0581499999971,
      "v": 100
    },
    {
      "midi": 60,
      "hit": false,
      "t": 126202.12500000023,
      "d": 286.0581499999971,
      "v": 100
    },
    {
      "midi": 65,
      "hit": false,
      "t": 126202.12500000023,
      "d": 286.0581499999971,
      "v": 100
    },
    {
      "midi": 31,
      "hit": false,
      "t": 126202.12500000023,
      "d": 432.6929999999993,
      "v": 100
    },
    {
      "midi": 57,
      "hit": false,
      "t": 126490.58700000023,
      "d": 432.6929999999993,
      "v": 100
    },
    {
      "midi": 60,
      "hit": false,
      "t": 126490.58700000023,
      "d": 432.6929999999993,
      "v": 100
    },
    {
      "midi": 65,
      "hit": false,
      "t": 126490.58700000023,
      "d": 432.6929999999993,
      "v": 100
    },
    {
      "midi": 33,
      "hit": false,
      "t": 126634.81800000023,
      "d": 288.46199999999953,
      "v": 100
    },
    {
      "midi": 53,
      "hit": false,
      "t": 126923.28000000023,
      "d": 288.46199999999953,
      "v": 100
    },
    {
      "midi": 58,
      "hit": false,
      "t": 126923.28000000023,
      "d": 288.46199999999953,
      "v": 100
    },
    {
      "midi": 62,
      "hit": false,
      "t": 126923.28000000023,
      "d": 288.46199999999953,
      "v": 100
    },
    {
      "midi": 34,
      "hit": false,
      "t": 126923.28000000023,
      "d": 432.6929999999993,
      "v": 100
    },
    {
      "midi": 53,
      "hit": false,
      "t": 127211.74200000023,
      "d": 144.23099999999977,
      "v": 100
    },
    {
      "midi": 57,
      "hit": false,
      "t": 127211.74200000023,
      "d": 144.23099999999977,
      "v": 100
    },
    {
      "midi": 62,
      "hit": false,
      "t": 127211.74200000023,
      "d": 144.23099999999977,
      "v": 100
    },
    {
      "midi": 53,
      "hit": false,
      "t": 127355.97300000023,
      "d": 286.0581499999971,
      "v": 100
    },
    {
      "midi": 57,
      "hit": false,
      "t": 127355.97300000023,
      "d": 286.0581499999971,
      "v": 100
    },
    {
      "midi": 62,
      "hit": false,
      "t": 127355.97300000023,
      "d": 286.0581499999971,
      "v": 100
    },
    {
      "midi": 38,
      "hit": false,
      "t": 127355.97300000023,
      "d": 432.6929999999993,
      "v": 100
    },
    {
      "midi": 53,
      "hit": false,
      "t": 127644.43500000023,
      "d": 432.6929999999993,
      "v": 100
    },
    {
      "midi": 57,
      "hit": false,
      "t": 127644.43500000023,
      "d": 432.6929999999993,
      "v": 100
    },
    {
      "midi": 62,
      "hit": false,
      "t": 127644.43500000023,
      "d": 432.6929999999993,
      "v": 100
    },
    {
      "midi": 41,
      "hit": false,
      "t": 127788.66600000023,
      "d": 288.46199999999953,
      "v": 100
    },
    {
      "midi": 55,
      "hit": false,
      "t": 128077.12800000023,
      "d": 288.46199999999953,
      "v": 100
    },
    {
      "midi": 58,
      "hit": false,
      "t": 128077.12800000023,
      "d": 288.46199999999953,
      "v": 100
    },
    {
      "midi": 62,
      "hit": false,
      "t": 128077.12800000023,
      "d": 288.46199999999953,
      "v": 100
    },
    {
      "midi": 31,
      "hit": false,
      "t": 128077.12800000023,
      "d": 432.6929999999993,
      "v": 100
    },
    {
      "midi": 55,
      "hit": false,
      "t": 128365.59000000023,
      "d": 144.23099999999977,
      "v": 100
    },
    {
      "midi": 58,
      "hit": false,
      "t": 128365.59000000023,
      "d": 144.23099999999977,
      "v": 100
    },
    {
      "midi": 62,
      "hit": false,
      "t": 128365.59000000023,
      "d": 144.23099999999977,
      "v": 100
    },
    {
      "midi": 55,
      "hit": false,
      "t": 128509.82100000023,
      "d": 286.0581499999971,
      "v": 100
    },
    {
      "midi": 58,
      "hit": false,
      "t": 128509.82100000023,
      "d": 286.0581499999971,
      "v": 100
    },
    {
      "midi": 62,
      "hit": false,
      "t": 128509.82100000023,
      "d": 286.0581499999971,
      "v": 100
    },
    {
      "midi": 34,
      "hit": false,
      "t": 128509.82100000023,
      "d": 432.6929999999993,
      "v": 100
    },
    {
      "midi": 55,
      "hit": false,
      "t": 128798.28300000023,
      "d": 432.6929999999993,
      "v": 100
    },
    {
      "midi": 58,
      "hit": false,
      "t": 128798.28300000023,
      "d": 432.6929999999993,
      "v": 100
    },
    {
      "midi": 62,
      "hit": false,
      "t": 128798.28300000023,
      "d": 432.6929999999993,
      "v": 100
    },
    {
      "midi": 38,
      "hit": false,
      "t": 128942.51400000023,
      "d": 288.46199999999953,
      "v": 100
    },
    {
      "midi": 55,
      "hit": false,
      "t": 129230.97600000023,
      "d": 288.46199999999953,
      "v": 100
    },
    {
      "midi": 58,
      "hit": false,
      "t": 129230.97600000023,
      "d": 288.46199999999953,
      "v": 100
    },
    {
      "midi": 63,
      "hit": false,
      "t": 129230.97600000023,
      "d": 288.46199999999953,
      "v": 100
    },
    {
      "midi": 39,
      "hit": false,
      "t": 129230.97600000023,
      "d": 432.6929999999993,
      "v": 100
    },
    {
      "midi": 55,
      "hit": false,
      "t": 129519.43800000023,
      "d": 144.23099999999977,
      "v": 100
    },
    {
      "midi": 58,
      "hit": false,
      "t": 129519.43800000023,
      "d": 144.23099999999977,
      "v": 100
    },
    {
      "midi": 63,
      "hit": false,
      "t": 129519.43800000023,
      "d": 144.23099999999977,
      "v": 100
    },
    {
      "midi": 55,
      "hit": false,
      "t": 129663.66900000023,
      "d": 286.0581499999971,
      "v": 100
    },
    {
      "midi": 58,
      "hit": false,
      "t": 129663.66900000023,
      "d": 286.0581499999971,
      "v": 100
    },
    {
      "midi": 63,
      "hit": false,
      "t": 129663.66900000023,
      "d": 286.0581499999971,
      "v": 100
    },
    {
      "midi": 43,
      "hit": false,
      "t": 129663.66900000023,
      "d": 432.6929999999993,
      "v": 100
    },
    {
      "midi": 46,
      "hit": false,
      "t": 130096.36200000023,
      "d": 288.46199999999953,
      "v": 100
    },
    {
      "midi": 57,
      "hit": false,
      "t": 130384.82400000023,
      "d": 288.46199999999953,
      "v": 100
    },
    {
      "midi": 60,
      "hit": false,
      "t": 130384.82400000023,
      "d": 288.46199999999953,
      "v": 100
    },
    {
      "midi": 65,
      "hit": false,
      "t": 130384.82400000023,
      "d": 288.46199999999953,
      "v": 100
    },
    {
      "midi": 41,
      "hit": false,
      "t": 130384.82400000023,
      "d": 432.6929999999993,
      "v": 100
    },
    {
      "midi": 57,
      "hit": false,
      "t": 130673.28600000023,
      "d": 144.23099999999977,
      "v": 100
    },
    {
      "midi": 60,
      "hit": false,
      "t": 130673.28600000023,
      "d": 144.23099999999977,
      "v": 100
    },
    {
      "midi": 65,
      "hit": false,
      "t": 130673.28600000023,
      "d": 144.23099999999977,
      "v": 100
    },
    {
      "midi": 57,
      "hit": false,
      "t": 130817.51700000023,
      "d": 286.0581499999971,
      "v": 100
    },
    {
      "midi": 60,
      "hit": false,
      "t": 130817.51700000023,
      "d": 286.0581499999971,
      "v": 100
    },
    {
      "midi": 65,
      "hit": false,
      "t": 130817.51700000023,
      "d": 286.0581499999971,
      "v": 100
    },
    {
      "midi": 31,
      "hit": false,
      "t": 130817.51700000023,
      "d": 432.6929999999993,
      "v": 100
    },
    {
      "midi": 57,
      "hit": false,
      "t": 131105.97900000022,
      "d": 432.6929999999993,
      "v": 100
    },
    {
      "midi": 60,
      "hit": false,
      "t": 131105.97900000022,
      "d": 432.6929999999993,
      "v": 100
    },
    {
      "midi": 65,
      "hit": false,
      "t": 131105.97900000022,
      "d": 432.6929999999993,
      "v": 100
    },
    {
      "midi": 33,
      "hit": false,
      "t": 131250.21000000022,
      "d": 288.46199999999953,
      "v": 100
    },
    {
      "midi": 53,
      "hit": false,
      "t": 131538.67200000022,
      "d": 288.46199999999953,
      "v": 100
    },
    {
      "midi": 58,
      "hit": false,
      "t": 131538.67200000022,
      "d": 288.46199999999953,
      "v": 100
    },
    {
      "midi": 62,
      "hit": false,
      "t": 131538.67200000022,
      "d": 288.46199999999953,
      "v": 100
    },
    {
      "midi": 34,
      "hit": false,
      "t": 131538.67200000022,
      "d": 432.6929999999993,
      "v": 100
    },
    {
      "midi": 53,
      "hit": false,
      "t": 131827.13400000022,
      "d": 144.23099999999977,
      "v": 100
    },
    {
      "midi": 57,
      "hit": false,
      "t": 131827.13400000022,
      "d": 144.23099999999977,
      "v": 100
    },
    {
      "midi": 62,
      "hit": false,
      "t": 131827.13400000022,
      "d": 144.23099999999977,
      "v": 100
    },
    {
      "midi": 53,
      "hit": false,
      "t": 131971.36500000022,
      "d": 286.0581499999971,
      "v": 100
    },
    {
      "midi": 57,
      "hit": false,
      "t": 131971.36500000022,
      "d": 286.0581499999971,
      "v": 100
    },
    {
      "midi": 62,
      "hit": false,
      "t": 131971.36500000022,
      "d": 286.0581499999971,
      "v": 100
    },
    {
      "midi": 38,
      "hit": false,
      "t": 131971.36500000022,
      "d": 432.6929999999993,
      "v": 100
    },
    {
      "midi": 53,
      "hit": false,
      "t": 132259.82700000022,
      "d": 432.6929999999993,
      "v": 100
    },
    {
      "midi": 57,
      "hit": false,
      "t": 132259.82700000022,
      "d": 432.6929999999993,
      "v": 100
    },
    {
      "midi": 62,
      "hit": false,
      "t": 132259.82700000022,
      "d": 432.6929999999993,
      "v": 100
    },
    {
      "midi": 41,
      "hit": false,
      "t": 132404.05800000022,
      "d": 288.46199999999953,
      "v": 100
    },
    {
      "midi": 55,
      "hit": false,
      "t": 132692.52000000022,
      "d": 288.46199999999953,
      "v": 100
    },
    {
      "midi": 58,
      "hit": false,
      "t": 132692.52000000022,
      "d": 288.46199999999953,
      "v": 100
    },
    {
      "midi": 62,
      "hit": false,
      "t": 132692.52000000022,
      "d": 288.46199999999953,
      "v": 100
    },
    {
      "midi": 31,
      "hit": false,
      "t": 132692.52000000022,
      "d": 432.6929999999993,
      "v": 100
    },
    {
      "midi": 55,
      "hit": false,
      "t": 132980.98200000022,
      "d": 144.23099999999977,
      "v": 100
    },
    {
      "midi": 58,
      "hit": false,
      "t": 132980.98200000022,
      "d": 144.23099999999977,
      "v": 100
    },
    {
      "midi": 62,
      "hit": false,
      "t": 132980.98200000022,
      "d": 144.23099999999977,
      "v": 100
    },
    {
      "midi": 55,
      "hit": false,
      "t": 133125.21300000022,
      "d": 286.0581499999971,
      "v": 100
    },
    {
      "midi": 58,
      "hit": false,
      "t": 133125.21300000022,
      "d": 286.0581499999971,
      "v": 100
    },
    {
      "midi": 62,
      "hit": false,
      "t": 133125.21300000022,
      "d": 286.0581499999971,
      "v": 100
    },
    {
      "midi": 34,
      "hit": false,
      "t": 133125.21300000022,
      "d": 432.6929999999993,
      "v": 100
    },
    {
      "midi": 55,
      "hit": false,
      "t": 133413.67500000022,
      "d": 432.6929999999993,
      "v": 100
    },
    {
      "midi": 58,
      "hit": false,
      "t": 133413.67500000022,
      "d": 432.6929999999993,
      "v": 100
    },
    {
      "midi": 62,
      "hit": false,
      "t": 133413.67500000022,
      "d": 432.6929999999993,
      "v": 100
    },
    {
      "midi": 38,
      "hit": false,
      "t": 133557.90600000022,
      "d": 288.46199999999953,
      "v": 100
    },
    {
      "midi": 55,
      "hit": false,
      "t": 133846.36800000022,
      "d": 288.46199999999953,
      "v": 100
    },
    {
      "midi": 58,
      "hit": false,
      "t": 133846.36800000022,
      "d": 288.46199999999953,
      "v": 100
    },
    {
      "midi": 63,
      "hit": false,
      "t": 133846.36800000022,
      "d": 288.46199999999953,
      "v": 100
    },
    {
      "midi": 39,
      "hit": false,
      "t": 133846.36800000022,
      "d": 432.6929999999993,
      "v": 100
    },
    {
      "midi": 55,
      "hit": false,
      "t": 134134.83000000022,
      "d": 144.23099999999977,
      "v": 100
    },
    {
      "midi": 58,
      "hit": false,
      "t": 134134.83000000022,
      "d": 144.23099999999977,
      "v": 100
    },
    {
      "midi": 63,
      "hit": false,
      "t": 134134.83000000022,
      "d": 144.23099999999977,
      "v": 100
    },
    {
      "midi": 55,
      "hit": false,
      "t": 134279.06100000022,
      "d": 286.0581499999971,
      "v": 100
    },
    {
      "midi": 58,
      "hit": false,
      "t": 134279.06100000022,
      "d": 286.0581499999971,
      "v": 100
    },
    {
      "midi": 63,
      "hit": false,
      "t": 134279.06100000022,
      "d": 286.0581499999971,
      "v": 100
    },
    {
      "midi": 43,
      "hit": false,
      "t": 134279.06100000022,
      "d": 432.6929999999993,
      "v": 100
    },
    {
      "midi": 46,
      "hit": false,
      "t": 134711.75400000022,
      "d": 288.46199999999953,
      "v": 100
    },
    {
      "midi": 57,
      "hit": false,
      "t": 135000.21600000022,
      "d": 288.46199999999953,
      "v": 100
    },
    {
      "midi": 60,
      "hit": false,
      "t": 135000.21600000022,
      "d": 288.46199999999953,
      "v": 100
    },
    {
      "midi": 65,
      "hit": false,
      "t": 135000.21600000022,
      "d": 288.46199999999953,
      "v": 100
    },
    {
      "midi": 41,
      "hit": false,
      "t": 135000.21600000022,
      "d": 432.6929999999993,
      "v": 100
    },
    {
      "midi": 57,
      "hit": false,
      "t": 135288.67800000022,
      "d": 144.23099999999977,
      "v": 100
    },
    {
      "midi": 60,
      "hit": false,
      "t": 135288.67800000022,
      "d": 144.23099999999977,
      "v": 100
    },
    {
      "midi": 65,
      "hit": false,
      "t": 135288.67800000022,
      "d": 144.23099999999977,
      "v": 100
    },
    {
      "midi": 57,
      "hit": false,
      "t": 135432.90900000022,
      "d": 286.0581499999971,
      "v": 100
    },
    {
      "midi": 60,
      "hit": false,
      "t": 135432.90900000022,
      "d": 286.0581499999971,
      "v": 100
    },
    {
      "midi": 65,
      "hit": false,
      "t": 135432.90900000022,
      "d": 286.0581499999971,
      "v": 100
    },
    {
      "midi": 43,
      "hit": false,
      "t": 135432.90900000022,
      "d": 432.6930000000284,
      "v": 100
    },
    {
      "midi": 57,
      "hit": false,
      "t": 135721.37100000022,
      "d": 432.6930000000284,
      "v": 100
    },
    {
      "midi": 60,
      "hit": false,
      "t": 135721.37100000022,
      "d": 432.6930000000284,
      "v": 100
    },
    {
      "midi": 65,
      "hit": false,
      "t": 135721.37100000022,
      "d": 432.6930000000284,
      "v": 100
    },
    {
      "midi": 45,
      "hit": false,
      "t": 135865.60200000025,
      "d": 288.46199999999953,
      "v": 100
    },
    {
      "midi": 34,
      "hit": false,
      "t": 136154.06400000025,
      "d": 288.46199999999953,
      "v": 127
    },
    {
      "midi": 46,
      "hit": false,
      "t": 136154.06400000025,
      "d": 288.46199999999953,
      "v": 127
    },
    {
      "midi": 58,
      "hit": false,
      "t": 136154.06400000025,
      "d": 288.46199999999953,
      "v": 127
    },
    {
      "midi": 70,
      "hit": false,
      "t": 136154.06400000025,
      "d": 288.46199999999953,
      "v": 127
    }
  ]
}