{
  "jsonPath": "World/German Pop/Maya Saban/wer-steht-hier-vor-mir.json",
  "path": "World\\German Pop\\Maya Saban\\Wer Steht Hier Vor Mir.mid",
  "name": "Wer Steht Hier Vor Mir",
  "difficulty": "Advanced",
  "bpm": 68.0000725334107,
  "notes": [
    {
      "midi": 52,
      "hit": false,
      "t": 882.352,
      "d": 652.5728333333333,
      "v": 71
    },
    {
      "midi": 55,
      "hit": false,
      "t": 882.352,
      "d": 652.5728333333333,
      "v": 75
    },
    {
      "midi": 60,
      "hit": false,
      "t": 882.352,
      "d": 652.5728333333333,
      "v": 71
    },
    {
      "midi": 48,
      "hit": false,
      "t": 919.1166666666667,
      "d": 321.6908333333332,
      "v": 67
    },
    {
      "midi": 36,
      "hit": false,
      "t": 919.1166666666667,
      "d": 762.8668333333331,
      "v": 95
    },
    {
      "midi": 36,
      "hit": false,
      "t": 1764.7039999999997,
      "d": 101.10283333333336,
      "v": 67
    },
    {
      "midi": 74,
      "hit": false,
      "t": 1764.7039999999997,
      "d": 248.16150000000016,
      "v": 107
    },
    {
      "midi": 79,
      "hit": false,
      "t": 1764.7039999999997,
      "d": 330.88200000000006,
      "v": 107
    },
    {
      "midi": 76,
      "hit": false,
      "t": 2058.8213333333333,
      "d": 211.39683333333323,
      "v": 107
    },
    {
      "midi": 36,
      "hit": false,
      "t": 2058.8213333333333,
      "d": 1939.3361666666665,
      "v": 67
    },
    {
      "midi": 72,
      "hit": false,
      "t": 2352.9386666666664,
      "d": 101.10283333333336,
      "v": 107
    },
    {
      "midi": 48,
      "hit": false,
      "t": 2352.9386666666664,
      "d": 211.39683333333323,
      "v": 75
    },
    {
      "midi": 50,
      "hit": false,
      "t": 2647.0559999999996,
      "d": 248.16150000000016,
      "v": 83
    },
    {
      "midi": 55,
      "hit": false,
      "t": 2950.3644999999997,
      "d": 762.8668333333335,
      "v": 79
    },
    {
      "midi": 52,
      "hit": false,
      "t": 3235.2906666666663,
      "d": 514.7053333333333,
      "v": 95
    },
    {
      "midi": 43,
      "hit": false,
      "t": 3520.216833333333,
      "d": 404.41133333333346,
      "v": 75
    },
    {
      "midi": 48,
      "hit": false,
      "t": 3823.525333333333,
      "d": 183.82333333333327,
      "v": 83
    },
    {
      "midi": 45,
      "hit": false,
      "t": 4117.642666666667,
      "d": 64.33816666666644,
      "v": 39
    },
    {
      "midi": 45,
      "hit": false,
      "t": 4420.951166666667,
      "d": 606.6169999999993,
      "v": 71
    },
    {
      "midi": 52,
      "hit": false,
      "t": 4420.951166666667,
      "d": 680.1463333333322,
      "v": 75
    },
    {
      "midi": 57,
      "hit": false,
      "t": 4420.951166666667,
      "d": 680.1463333333322,
      "v": 67
    },
    {
      "midi": 33,
      "hit": false,
      "t": 4420.951166666667,
      "d": 827.204999999999,
      "v": 87
    },
    {
      "midi": 60,
      "hit": false,
      "t": 4430.142333333333,
      "d": 680.1463333333322,
      "v": 75
    },
    {
      "midi": 48,
      "hit": false,
      "t": 4430.142333333333,
      "d": 827.204999999999,
      "v": 75
    },
    {
      "midi": 33,
      "hit": false,
      "t": 5284.920833333333,
      "d": 1948.5273333333344,
      "v": 47
    },
    {
      "midi": 74,
      "hit": false,
      "t": 5294.111999999999,
      "d": 294.1173333333336,
      "v": 107
    },
    {
      "midi": 79,
      "hit": false,
      "t": 5294.111999999999,
      "d": 294.1173333333336,
      "v": 107
    },
    {
      "midi": 76,
      "hit": false,
      "t": 5597.420499999999,
      "d": 202.20566666666673,
      "v": 107
    },
    {
      "midi": 40,
      "hit": false,
      "t": 5882.346666666666,
      "d": 836.3961666666673,
      "v": 55
    },
    {
      "midi": 72,
      "hit": false,
      "t": 5891.537833333333,
      "d": 101.10283333333336,
      "v": 107
    },
    {
      "midi": 47,
      "hit": false,
      "t": 6176.464,
      "d": 284.9261666666671,
      "v": 75
    },
    {
      "midi": 52,
      "hit": false,
      "t": 6470.5813333333335,
      "d": 358.45550000000003,
      "v": 71
    },
    {
      "midi": 48,
      "hit": false,
      "t": 6773.889833333334,
      "d": 238.97033333333366,
      "v": 71
    },
    {
      "midi": 40,
      "hit": false,
      "t": 7058.816000000001,
      "d": 284.9261666666662,
      "v": 59
    },
    {
      "midi": 33,
      "hit": false,
      "t": 7352.933333333333,
      "d": 101.10283333333336,
      "v": 71
    },
    {
      "midi": 45,
      "hit": false,
      "t": 7647.050666666667,
      "d": 137.8675000000003,
      "v": 47
    },
    {
      "midi": 38,
      "hit": false,
      "t": 7931.976833333334,
      "d": 3051.467333333336,
      "v": 79
    },
    {
      "midi": 57,
      "hit": false,
      "t": 7941.168000000001,
      "d": 689.3375000000005,
      "v": 75
    },
    {
      "midi": 53,
      "hit": false,
      "t": 7941.168000000001,
      "d": 726.1021666666666,
      "v": 75
    },
    {
      "midi": 81,
      "hit": false,
      "t": 8823.52,
      "d": 211.39683333333414,
      "v": 107
    },
    {
      "midi": 74,
      "hit": false,
      "t": 8823.52,
      "d": 248.16150000000016,
      "v": 107
    },
    {
      "midi": 45,
      "hit": false,
      "t": 8823.52,
      "d": 542.2788333333338,
      "v": 63
    },
    {
      "midi": 50,
      "hit": false,
      "t": 9117.637333333334,
      "d": 174.6321666666663,
      "v": 63
    },
    {
      "midi": 76,
      "hit": false,
      "t": 9117.637333333334,
      "d": 220.58799999999974,
      "v": 107
    },
    {
      "midi": 45,
      "hit": false,
      "t": 9411.754666666668,
      "d": 505.51416666666773,
      "v": 63
    },
    {
      "midi": 72,
      "hit": false,
      "t": 9420.945833333335,
      "d": 128.67633333333288,
      "v": 107
    },
    {
      "midi": 53,
      "hit": false,
      "t": 9705.872000000001,
      "d": 615.8081666666676,
      "v": 59
    },
    {
      "midi": 57,
      "hit": false,
      "t": 9705.872000000001,
      "d": 1176.4693333333344,
      "v": 75
    },
    {
      "midi": 45,
      "hit": false,
      "t": 9999.989333333335,
      "d": 367.64666666666744,
      "v": 63
    },
    {
      "midi": 45,
      "hit": false,
      "t": 10588.224000000002,
      "d": 367.64666666666744,
      "v": 43
    },
    {
      "midi": 50,
      "hit": false,
      "t": 10891.532500000003,
      "d": 91.91166666666686,
      "v": 75
    },
    {
      "midi": 38,
      "hit": false,
      "t": 11176.45866666667,
      "d": 64.33816666666644,
      "v": 71
    },
    {
      "midi": 67,
      "hit": false,
      "t": 11470.576000000003,
      "d": 110.29399999999987,
      "v": 107
    },
    {
      "midi": 53,
      "hit": false,
      "t": 11470.576000000003,
      "d": 1020.2194999999992,
      "v": 75
    },
    {
      "midi": 43,
      "hit": false,
      "t": 11479.76716666667,
      "d": 459.5583333333325,
      "v": 71
    },
    {
      "midi": 45,
      "hit": false,
      "t": 11479.76716666667,
      "d": 790.4403333333321,
      "v": 71
    },
    {
      "midi": 48,
      "hit": false,
      "t": 11479.76716666667,
      "d": 909.9254999999994,
      "v": 79
    },
    {
      "midi": 31,
      "hit": false,
      "t": 11479.76716666667,
      "d": 1020.2194999999992,
      "v": 75
    },
    {
      "midi": 55,
      "hit": false,
      "t": 11516.531833333336,
      "d": 1047.7929999999997,
      "v": 71
    },
    {
      "midi": 65,
      "hit": false,
      "t": 12058.81066666667,
      "d": 101.10283333333246,
      "v": 107
    },
    {
      "midi": 60,
      "hit": false,
      "t": 12656.236500000003,
      "d": 101.10283333333246,
      "v": 107
    },
    {
      "midi": 57,
      "hit": false,
      "t": 12941.162666666669,
      "d": 137.8675000000003,
      "v": 107
    },
    {
      "midi": 50,
      "hit": false,
      "t": 13235.280000000002,
      "d": 468.7494999999999,
      "v": 75
    },
    {
      "midi": 31,
      "hit": false,
      "t": 13235.280000000002,
      "d": 514.7053333333333,
      "v": 71
    },
    {
      "midi": 43,
      "hit": false,
      "t": 13244.47116666667,
      "d": 496.3229999999985,
      "v": 71
    },
    {
      "midi": 47,
      "hit": false,
      "t": 13244.47116666667,
      "d": 505.5141666666659,
      "v": 71
    },
    {
      "midi": 55,
      "hit": false,
      "t": 13281.235833333336,
      "d": 64.33816666666644,
      "v": 107
    },
    {
      "midi": 60,
      "hit": false,
      "t": 13786.75,
      "d": 257.35266666666575,
      "v": 78
    },
    {
      "midi": 60,
      "hit": false,
      "t": 14117.632,
      "d": 284.9261666666662,
      "v": 78
    },
    {
      "midi": 62,
      "hit": false,
      "t": 14430.131666666666,
      "d": 229.77916666666715,
      "v": 78
    },
    {
      "midi": 60,
      "hit": false,
      "t": 14687.484333333334,
      "d": 257.35266666666575,
      "v": 82
    },
    {
      "midi": 64,
      "hit": false,
      "t": 14981.601666666666,
      "d": 119.48516666666728,
      "v": 59
    },
    {
      "midi": 48,
      "hit": false,
      "t": 15009.175166666668,
      "d": 3069.849666666665,
      "v": 75
    },
    {
      "midi": 62,
      "hit": false,
      "t": 15137.851499999999,
      "d": 137.8675000000003,
      "v": 69
    },
    {
      "midi": 55,
      "hit": false,
      "t": 15284.910166666668,
      "d": 2647.055999999997,
      "v": 63
    },
    {
      "midi": 64,
      "hit": false,
      "t": 15294.101333333332,
      "d": 1801.4686666666676,
      "v": 93
    },
    {
      "midi": 60,
      "hit": false,
      "t": 15588.218666666668,
      "d": 101.10283333333246,
      "v": 71
    },
    {
      "midi": 62,
      "hit": false,
      "t": 15882.336,
      "d": 358.45550000000003,
      "v": 87
    },
    {
      "midi": 67,
      "hit": false,
      "t": 15882.336,
      "d": 2711.394166666665,
      "v": 71
    },
    {
      "midi": 64,
      "hit": false,
      "t": 16167.262166666666,
      "d": 2463.232666666665,
      "v": 63
    },
    {
      "midi": 60,
      "hit": false,
      "t": 16470.570666666667,
      "d": 2086.394833333332,
      "v": 71
    },
    {
      "midi": 60,
      "hit": false,
      "t": 17334.540333333334,
      "d": 248.16149999999834,
      "v": 88
    },
    {
      "midi": 60,
      "hit": false,
      "t": 17656.231166666665,
      "d": 202.2056666666649,
      "v": 78
    },
    {
      "midi": 62,
      "hit": false,
      "t": 17895.201499999996,
      "d": 257.35266666666575,
      "v": 78
    },
    {
      "midi": 60,
      "hit": false,
      "t": 18180.12766666666,
      "d": 275.7350000000006,
      "v": 69
    },
    {
      "midi": 57,
      "hit": false,
      "t": 18511.00966666666,
      "d": 395.22016666666605,
      "v": 56
    },
    {
      "midi": 45,
      "hit": false,
      "t": 18520.200833333332,
      "d": 2867.643999999993,
      "v": 83
    },
    {
      "midi": 52,
      "hit": false,
      "t": 18823.509333333328,
      "d": 2564.3354999999974,
      "v": 71
    },
    {
      "midi": 57,
      "hit": false,
      "t": 18988.950333333327,
      "d": 1608.4541666666664,
      "v": 64
    },
    {
      "midi": 57,
      "hit": false,
      "t": 19117.62666666666,
      "d": 2389.703333333331,
      "v": 67
    },
    {
      "midi": 62,
      "hit": false,
      "t": 19411.74399999999,
      "d": 358.45550000000003,
      "v": 79
    },
    {
      "midi": 67,
      "hit": false,
      "t": 19411.74399999999,
      "d": 2490.8061666666654,
      "v": 71
    },
    {
      "midi": 64,
      "hit": false,
      "t": 19705.861333333323,
      "d": 2306.9828333333353,
      "v": 63
    },
    {
      "midi": 60,
      "hit": false,
      "t": 19999.97866666666,
      "d": 1755.5128333333305,
      "v": 71
    },
    {
      "midi": 62,
      "hit": false,
      "t": 20891.521833333325,
      "d": 238.97033333333457,
      "v": 82
    },
    {
      "midi": 62,
      "hit": false,
      "t": 21194.830333333328,
      "d": 202.2056666666649,
      "v": 83
    },
    {
      "midi": 64,
      "hit": false,
      "t": 21442.991833333326,
      "d": 238.97033333333457,
      "v": 95
    },
    {
      "midi": 62,
      "hit": false,
      "t": 21709.53566666666,
      "d": 303.3084999999992,
      "v": 88
    },
    {
      "midi": 65,
      "hit": false,
      "t": 22031.226499999993,
      "d": 349.2643333333326,
      "v": 86
    },
    {
      "midi": 50,
      "hit": false,
      "t": 22058.799999999992,
      "d": 3308.8200000000033,
      "v": 79
    },
    {
      "midi": 57,
      "hit": false,
      "t": 22352.917333333324,
      "d": 431.9848333333357,
      "v": 63
    },
    {
      "midi": 65,
      "hit": false,
      "t": 22472.402499999993,
      "d": 1801.4686666666676,
      "v": 65
    },
    {
      "midi": 62,
      "hit": false,
      "t": 22637.84349999999,
      "d": 36.76466666666602,
      "v": 67
    },
    {
      "midi": 62,
      "hit": false,
      "t": 22950.34316666666,
      "d": 284.926166666668,
      "v": 75
    },
    {
      "midi": 57,
      "hit": false,
      "t": 22950.34316666666,
      "d": 1672.7923333333347,
      "v": 15
    },
    {
      "midi": 69,
      "hit": false,
      "t": 22950.34316666666,
      "d": 2527.5708333333387,
      "v": 71
    },
    {
      "midi": 64,
      "hit": false,
      "t": 23235.269333333326,
      "d": 2270.2181666666693,
      "v": 63
    },
    {
      "midi": 60,
      "hit": false,
      "t": 23529.386666666658,
      "d": 2049.6301666666695,
      "v": 67
    },
    {
      "midi": 65,
      "hit": false,
      "t": 24411.73866666666,
      "d": 229.77916666666715,
      "v": 76
    },
    {
      "midi": 57,
      "hit": false,
      "t": 24705.855999999992,
      "d": 64.33816666666826,
      "v": 35
    },
    {
      "midi": 65,
      "hit": false,
      "t": 24751.81183333333,
      "d": 257.35266666666575,
      "v": 106
    },
    {
      "midi": 57,
      "hit": false,
      "t": 24999.973333333328,
      "d": 101.10283333333427,
      "v": 27
    },
    {
      "midi": 64,
      "hit": false,
      "t": 25045.92916666666,
      "d": 202.2056666666649,
      "v": 86
    },
    {
      "midi": 60,
      "hit": false,
      "t": 25294.09066666666,
      "d": 211.39683333333232,
      "v": 88
    },
    {
      "midi": 55,
      "hit": false,
      "t": 25294.090666666663,
      "d": 2086.394833333332,
      "v": 63
    },
    {
      "midi": 62,
      "hit": false,
      "t": 25560.634499999993,
      "d": 386.02899999999863,
      "v": 71
    },
    {
      "midi": 43,
      "hit": false,
      "t": 25588.207999999995,
      "d": 2637.8648333333367,
      "v": 83
    },
    {
      "midi": 57,
      "hit": false,
      "t": 25882.325333333327,
      "d": 615.8081666666658,
      "v": 63
    },
    {
      "midi": 62,
      "hit": false,
      "t": 26020.192833333324,
      "d": 1746.3216666666667,
      "v": 74
    },
    {
      "midi": 60,
      "hit": false,
      "t": 26167.251499999995,
      "d": 441.1759999999995,
      "v": 71
    },
    {
      "midi": 65,
      "hit": false,
      "t": 26470.559999999994,
      "d": 542.2788333333338,
      "v": 75
    },
    {
      "midi": 57,
      "hit": false,
      "t": 26755.486166666662,
      "d": 1176.4693333333344,
      "v": 31
    },
    {
      "midi": 60,
      "hit": false,
      "t": 27058.79466666666,
      "d": 983.4548333333369,
      "v": 71
    },
    {
      "midi": 67,
      "hit": false,
      "t": 27058.79466666666,
      "d": 1645.2188333333397,
      "v": 71
    },
    {
      "midi": 55,
      "hit": false,
      "t": 27941.146666666664,
      "d": 799.6315000000031,
      "v": 67
    },
    {
      "midi": 64,
      "hit": false,
      "t": 27959.52899999999,
      "d": 229.77916666666715,
      "v": 88
    },
    {
      "midi": 57,
      "hit": false,
      "t": 28235.264,
      "d": 367.64666666666744,
      "v": 51
    },
    {
      "midi": 64,
      "hit": false,
      "t": 28272.028666666658,
      "d": 220.58799999999974,
      "v": 83
    },
    {
      "midi": 65,
      "hit": false,
      "t": 28520.190166666656,
      "d": 248.16149999999834,
      "v": 86
    },
    {
      "midi": 60,
      "hit": false,
      "t": 28529.381333333335,
      "d": 321.6908333333304,
      "v": 51
    },
    {
      "midi": 64,
      "hit": false,
      "t": 28805.11633333332,
      "d": 303.3084999999992,
      "v": 80
    },
    {
      "midi": 57,
      "hit": false,
      "t": 28823.498666666666,
      "d": 174.6321666666663,
      "v": 63
    },
    {
      "midi": 67,
      "hit": false,
      "t": 29117.615999999987,
      "d": 321.690833333334,
      "v": 86
    },
    {
      "midi": 59,
      "hit": false,
      "t": 29126.807166666666,
      "d": 680.146333333334,
      "v": 71
    },
    {
      "midi": 62,
      "hit": false,
      "t": 29126.807166666666,
      "d": 726.1021666666675,
      "v": 83
    },
    {
      "midi": 67,
      "hit": false,
      "t": 29126.807166666666,
      "d": 790.4403333333357,
      "v": 75
    },
    {
      "midi": 52,
      "hit": false,
      "t": 29126.807166666666,
      "d": 2812.4969999999994,
      "v": 75
    },
    {
      "midi": 67,
      "hit": false,
      "t": 29531.218499999988,
      "d": 1773.8951666666653,
      "v": 52
    },
    {
      "midi": 55,
      "hit": false,
      "t": 29705.850666666665,
      "d": 147.0586666666677,
      "v": 31
    },
    {
      "midi": 62,
      "hit": false,
      "t": 29999.968,
      "d": 284.926166666668,
      "v": 71
    },
    {
      "midi": 55,
      "hit": false,
      "t": 29999.968,
      "d": 1130.5134999999973,
      "v": 59
    },
    {
      "midi": 67,
      "hit": false,
      "t": 30284.89416666667,
      "d": 2720.5853333333325,
      "v": 95
    },
    {
      "midi": 59,
      "hit": false,
      "t": 30588.202666666668,
      "d": 909.9254999999976,
      "v": 75
    },
    {
      "midi": 62,
      "hit": false,
      "t": 30882.32,
      "d": 579.0434999999998,
      "v": 75
    },
    {
      "midi": 55,
      "hit": false,
      "t": 31176.43733333333,
      "d": 1020.2194999999992,
      "v": 55
    },
    {
      "midi": 64,
      "hit": false,
      "t": 31360.260666666654,
      "d": 156.24983333333512,
      "v": 70
    },
    {
      "midi": 65,
      "hit": false,
      "t": 31553.275166666655,
      "d": 165.4409999999989,
      "v": 102
    },
    {
      "midi": 67,
      "hit": false,
      "t": 31764.671999999988,
      "d": 404.41133333333346,
      "v": 102
    },
    {
      "midi": 62,
      "hit": false,
      "t": 31764.672,
      "d": 946.6901666666672,
      "v": 71
    },
    {
      "midi": 59,
      "hit": false,
      "t": 32058.78933333333,
      "d": 542.2788333333338,
      "v": 43
    },
    {
      "midi": 65,
      "hit": false,
      "t": 32205.847999999987,
      "d": 193.01450000000114,
      "v": 65
    },
    {
      "midi": 64,
      "hit": false,
      "t": 32426.435999999987,
      "d": 193.01450000000114,
      "v": 93
    },
    {
      "midi": 45,
      "hit": false,
      "t": 32656.215166666665,
      "d": 3216.9083333333438,
      "v": 75
    },
    {
      "midi": 60,
      "hit": false,
      "t": 32683.788666666656,
      "d": 2270.2181666666693,
      "v": 88
    },
    {
      "midi": 52,
      "hit": false,
      "t": 32941.14133333333,
      "d": 2748.158833333342,
      "v": 63
    },
    {
      "midi": 57,
      "hit": false,
      "t": 33235.25866666667,
      "d": 1020.2195000000065,
      "v": 63
    },
    {
      "midi": 59,
      "hit": false,
      "t": 33529.376000000004,
      "d": 836.3961666666728,
      "v": 71
    },
    {
      "midi": 60,
      "hit": false,
      "t": 33823.49333333334,
      "d": 836.3961666666728,
      "v": 67
    },
    {
      "midi": 67,
      "hit": false,
      "t": 34117.610666666675,
      "d": 1764.703999999998,
      "v": 75
    },
    {
      "midi": 57,
      "hit": false,
      "t": 34411.72800000001,
      "d": 1102.9400000000023,
      "v": 31
    },
    {
      "midi": 59,
      "hit": false,
      "t": 34705.845333333345,
      "d": 762.8668333333335,
      "v": 63
    },
    {
      "midi": 64,
      "hit": false,
      "t": 35294.08000000001,
      "d": 505.51416666666773,
      "v": 63
    },
    {
      "midi": 65,
      "hit": false,
      "t": 35303.27116666666,
      "d": 257.35266666666575,
      "v": 110
    },
    {
      "midi": 67,
      "hit": false,
      "t": 35588.19733333332,
      "d": 248.16150000000198,
      "v": 106
    },
    {
      "midi": 57,
      "hit": false,
      "t": 35588.197333333344,
      "d": 101.10283333333064,
      "v": 15
    },
    {
      "midi": 59,
      "hit": false,
      "t": 35588.197333333344,
      "d": 174.63216666666267,
      "v": 35
    },
    {
      "midi": 65,
      "hit": false,
      "t": 35882.31466666666,
      "d": 266.5438333333368,
      "v": 93
    },
    {
      "midi": 57,
      "hit": false,
      "t": 35882.31466666667,
      "d": 248.16150000000198,
      "v": 55
    },
    {
      "midi": 53,
      "hit": false,
      "t": 36176.43200000001,
      "d": 330.8819999999978,
      "v": 83
    },
    {
      "midi": 65,
      "hit": false,
      "t": 36176.43200000001,
      "d": 762.8668333333335,
      "v": 71
    },
    {
      "midi": 69,
      "hit": false,
      "t": 36176.43200000001,
      "d": 799.6315000000031,
      "v": 67
    },
    {
      "midi": 69,
      "hit": false,
      "t": 36185.623166666664,
      "d": 2398.894500000002,
      "v": 102
    },
    {
      "midi": 53,
      "hit": false,
      "t": 37058.784000000014,
      "d": 726.1021666666711,
      "v": 75
    },
    {
      "midi": 67,
      "hit": false,
      "t": 37352.90133333335,
      "d": 431.9848333333357,
      "v": 67
    },
    {
      "midi": 69,
      "hit": false,
      "t": 37352.90133333335,
      "d": 624.9993333333332,
      "v": 63
    },
    {
      "midi": 72,
      "hit": false,
      "t": 37352.90133333335,
      "d": 652.5728333333318,
      "v": 59
    },
    {
      "midi": 65,
      "hit": false,
      "t": 37647.018666666685,
      "d": 441.1759999999995,
      "v": 71
    },
    {
      "midi": 53,
      "hit": false,
      "t": 38520.17950000002,
      "d": 477.94066666666913,
      "v": 55
    },
    {
      "midi": 65,
      "hit": false,
      "t": 38823.48800000002,
      "d": 615.8081666666694,
      "v": 71
    },
    {
      "midi": 69,
      "hit": false,
      "t": 38851.0615,
      "d": 248.16150000000198,
      "v": 102
    },
    {
      "midi": 71,
      "hit": false,
      "t": 39126.796500000004,
      "d": 238.97033333333093,
      "v": 95
    },
    {
      "midi": 72,
      "hit": false,
      "t": 39393.34033333333,
      "d": 275.7350000000006,
      "v": 102
    },
    {
      "midi": 55,
      "hit": false,
      "t": 39420.913833333354,
      "d": 1783.0863333333327,
      "v": 67
    },
    {
      "midi": 71,
      "hit": false,
      "t": 39715.03116666667,
      "d": 514.7053333333315,
      "v": 106
    },
    {
      "midi": 57,
      "hit": false,
      "t": 39715.03116666669,
      "d": 91.91166666666686,
      "v": 63
    },
    {
      "midi": 60,
      "hit": false,
      "t": 39715.03116666669,
      "d": 312.49966666666296,
      "v": 67
    },
    {
      "midi": 65,
      "hit": false,
      "t": 39715.03116666669,
      "d": 422.79366666666465,
      "v": 71
    },
    {
      "midi": 43,
      "hit": false,
      "t": 39715.03116666669,
      "d": 1461.3954999999987,
      "v": 83
    },
    {
      "midi": 57,
      "hit": false,
      "t": 39999.957333333354,
      "d": 505.51416666666773,
      "v": 63
    },
    {
      "midi": 60,
      "hit": false,
      "t": 40284.88350000002,
      "d": 450.3671666666705,
      "v": 71
    },
    {
      "midi": 69,
      "hit": false,
      "t": 40312.457,
      "d": 533.0876666666663,
      "v": 88
    },
    {
      "midi": 65,
      "hit": false,
      "t": 40588.192000000025,
      "d": 505.51416666666046,
      "v": 79
    },
    {
      "midi": 67,
      "hit": false,
      "t": 40882.30933333334,
      "d": 689.3375000000015,
      "v": 69
    },
    {
      "midi": 57,
      "hit": false,
      "t": 40882.30933333335,
      "d": 294.1173333333354,
      "v": 71
    },
    {
      "midi": 67,
      "hit": false,
      "t": 41185.61783333335,
      "d": 312.49966666667024,
      "v": 79
    },
    {
      "midi": 60,
      "hit": false,
      "t": 42104.734500000006,
      "d": 248.16150000000198,
      "v": 69
    },
    {
      "midi": 60,
      "hit": false,
      "t": 42435.61650000001,
      "d": 248.16150000000198,
      "v": 74
    },
    {
      "midi": 62,
      "hit": false,
      "t": 42711.35150000001,
      "d": 238.97033333333093,
      "v": 70
    },
    {
      "midi": 60,
      "hit": false,
      "t": 42987.08650000001,
      "d": 238.97033333333093,
      "v": 69
    },
    {
      "midi": 48,
      "hit": false,
      "t": 43235.24800000002,
      "d": 1764.703999999998,
      "v": 87
    },
    {
      "midi": 64,
      "hit": false,
      "t": 43262.82150000001,
      "d": 147.05866666666407,
      "v": 62
    },
    {
      "midi": 62,
      "hit": false,
      "t": 43419.07133333334,
      "d": 137.8675000000003,
      "v": 59
    },
    {
      "midi": 55,
      "hit": false,
      "t": 43520.17416666669,
      "d": 1397.0573333333232,
      "v": 63
    },
    {
      "midi": 64,
      "hit": false,
      "t": 43547.74766666668,
      "d": 1957.7184999999954,
      "v": 56
    },
    {
      "midi": 60,
      "hit": false,
      "t": 43823.48266666669,
      "d": 101.10283333333064,
      "v": 63
    },
    {
      "midi": 62,
      "hit": false,
      "t": 44117.60000000002,
      "d": 395.22016666666605,
      "v": 83
    },
    {
      "midi": 67,
      "hit": false,
      "t": 44117.60000000002,
      "d": 2693.0118333333303,
      "v": 75
    },
    {
      "midi": 64,
      "hit": false,
      "t": 44411.717333333356,
      "d": 2389.703333333331,
      "v": 59
    },
    {
      "midi": 60,
      "hit": false,
      "t": 44705.834666666684,
      "d": 2022.056666666671,
      "v": 75
    },
    {
      "midi": 60,
      "hit": false,
      "t": 45569.80433333334,
      "d": 147.05866666666407,
      "v": 55
    },
    {
      "midi": 62,
      "hit": false,
      "t": 45744.4365,
      "d": 156.24983333333512,
      "v": 74
    },
    {
      "midi": 64,
      "hit": false,
      "t": 45937.45100000001,
      "d": 220.58800000000338,
      "v": 95
    },
    {
      "midi": 62,
      "hit": false,
      "t": 46203.994833333345,
      "d": 174.63216666666995,
      "v": 45
    },
    {
      "midi": 60,
      "hit": false,
      "t": 46442.96516666668,
      "d": 248.16150000000198,
      "v": 70
    },
    {
      "midi": 57,
      "hit": false,
      "t": 46737.08250000002,
      "d": 367.64666666666744,
      "v": 64
    },
    {
      "midi": 45,
      "hit": false,
      "t": 46773.84716666669,
      "d": 2628.673666666662,
      "v": 79
    },
    {
      "midi": 52,
      "hit": false,
      "t": 47058.77333333335,
      "d": 2343.7474999999977,
      "v": 67
    },
    {
      "midi": 57,
      "hit": false,
      "t": 47159.87616666668,
      "d": 1571.6895000000004,
      "v": 76
    },
    {
      "midi": 57,
      "hit": false,
      "t": 47352.89066666669,
      "d": 1351.101499999997,
      "v": 59
    },
    {
      "midi": 62,
      "hit": false,
      "t": 47647.00800000002,
      "d": 321.69083333332674,
      "v": 75
    },
    {
      "midi": 67,
      "hit": false,
      "t": 47656.19916666669,
      "d": 2086.394833333332,
      "v": 75
    },
    {
      "midi": 64,
      "hit": false,
      "t": 47941.12533333335,
      "d": 1829.0421666666662,
      "v": 71
    },
    {
      "midi": 60,
      "hit": false,
      "t": 48235.24266666669,
      "d": 1681.9834999999948,
      "v": 71
    },
    {
      "midi": 62,
      "hit": false,
      "t": 49126.78583333335,
      "d": 211.39683333333232,
      "v": 76
    },
    {
      "midi": 62,
      "hit": false,
      "t": 49420.903166666685,
      "d": 229.77916666666715,
      "v": 88
    },
    {
      "midi": 64,
      "hit": false,
      "t": 49696.638166666686,
      "d": 238.97033333333093,
      "v": 88
    },
    {
      "midi": 62,
      "hit": false,
      "t": 49972.373166666686,
      "d": 257.35266666666575,
      "v": 71
    },
    {
      "midi": 65,
      "hit": false,
      "t": 50257.29933333335,
      "d": 165.4409999999989,
      "v": 64
    },
    {
      "midi": 50,
      "hit": false,
      "t": 50303.255166666684,
      "d": 3143.3789999999935,
      "v": 79
    },
    {
      "midi": 64,
      "hit": false,
      "t": 50450.31383333335,
      "d": 165.4409999999989,
      "v": 47
    },
    {
      "midi": 57,
      "hit": false,
      "t": 50588.181333333356,
      "d": 1424.6308333333363,
      "v": 55
    },
    {
      "midi": 65,
      "hit": false,
      "t": 50643.328333333346,
      "d": 1838.23333333333,
      "v": 78
    },
    {
      "midi": 62,
      "hit": false,
      "t": 50882.29866666669,
      "d": 110.29400000000169,
      "v": 71
    },
    {
      "midi": 64,
      "hit": false,
      "t": 51176.41600000003,
      "d": 395.22016666666605,
      "v": 87
    },
    {
      "midi": 69,
      "hit": false,
      "t": 51176.41600000003,
      "d": 2426.467999999986,
      "v": 75
    },
    {
      "midi": 65,
      "hit": false,
      "t": 51470.53333333336,
      "d": 1360.2926666666608,
      "v": 63
    },
    {
      "midi": 60,
      "hit": false,
      "t": 51764.65066666669,
      "d": 735.2933333333349,
      "v": 71
    },
    {
      "midi": 57,
      "hit": false,
      "t": 52637.811500000025,
      "d": 707.7198333333217,
      "v": 43
    },
    {
      "midi": 65,
      "hit": false,
      "t": 52647.002666666674,
      "d": 202.20566666666855,
      "v": 93
    },
    {
      "midi": 60,
      "hit": false,
      "t": 52950.31116666669,
      "d": 284.92616666666436,
      "v": 63
    },
    {
      "midi": 65,
      "hit": false,
      "t": 52968.69350000001,
      "d": 211.39683333333232,
      "v": 102
    },
    {
      "midi": 64,
      "hit": false,
      "t": 53226.046166666674,
      "d": 229.77916666666715,
      "v": 86
    },
    {
      "midi": 65,
      "hit": false,
      "t": 53244.428500000016,
      "d": 358.4554999999964,
      "v": 63
    },
    {
      "midi": 60,
      "hit": false,
      "t": 53492.59000000001,
      "d": 312.49966666667024,
      "v": 86
    },
    {
      "midi": 60,
      "hit": false,
      "t": 53529.35466666668,
      "d": 248.16150000000198,
      "v": 55
    },
    {
      "midi": 55,
      "hit": false,
      "t": 53823.472000000016,
      "d": 2858.4528333333365,
      "v": 79
    },
    {
      "midi": 62,
      "hit": false,
      "t": 53823.472000000016,
      "d": 386.02900000000227,
      "v": 93
    },
    {
      "midi": 57,
      "hit": false,
      "t": 54117.58933333335,
      "d": 615.8081666666694,
      "v": 71
    },
    {
      "midi": 62,
      "hit": false,
      "t": 54273.83916666669,
      "d": 1810.6598333333313,
      "v": 86
    },
    {
      "midi": 60,
      "hit": false,
      "t": 54402.515500000016,
      "d": 477.94066666666913,
      "v": 71
    },
    {
      "midi": 65,
      "hit": false,
      "t": 54715.015166666686,
      "d": 615.8081666666694,
      "v": 75
    },
    {
      "midi": 57,
      "hit": false,
      "t": 54999.94133333335,
      "d": 431.9848333333357,
      "v": 59
    },
    {
      "midi": 67,
      "hit": false,
      "t": 55294.058666666686,
      "d": 873.1608333333352,
      "v": 75
    },
    {
      "midi": 57,
      "hit": false,
      "t": 55882.29333333336,
      "d": 321.69083333332674,
      "v": 63
    },
    {
      "midi": 60,
      "hit": false,
      "t": 56176.410666666685,
      "d": 579.0434999999998,
      "v": 59
    },
    {
      "midi": 64,
      "hit": false,
      "t": 56213.175333333355,
      "d": 193.0144999999975,
      "v": 93
    },
    {
      "midi": 64,
      "hit": false,
      "t": 56479.719166666684,
      "d": 248.16150000000198,
      "v": 83
    },
    {
      "midi": 65,
      "hit": false,
      "t": 56746.26300000002,
      "d": 248.16150000000198,
      "v": 88
    },
    {
      "midi": 65,
      "hit": false,
      "t": 56764.64533333335,
      "d": 505.51416666666773,
      "v": 71
    },
    {
      "midi": 64,
      "hit": false,
      "t": 57049.57150000002,
      "d": 257.35266666666575,
      "v": 86
    },
    {
      "midi": 67,
      "hit": false,
      "t": 57343.688833333355,
      "d": 376.8378333333312,
      "v": 102
    },
    {
      "midi": 64,
      "hit": false,
      "t": 57352.88000000002,
      "d": 799.6314999999959,
      "v": 71
    },
    {
      "midi": 67,
      "hit": false,
      "t": 57362.07116666668,
      "d": 827.2050000000017,
      "v": 67
    },
    {
      "midi": 52,
      "hit": false,
      "t": 57362.07116666668,
      "d": 3143.379000000001,
      "v": 71
    },
    {
      "midi": 67,
      "hit": false,
      "t": 57803.24716666669,
      "d": 1470.5866666666698,
      "v": 102
    },
    {
      "midi": 59,
      "hit": false,
      "t": 58235.23200000002,
      "d": 1314.3368333333347,
      "v": 71
    },
    {
      "midi": 64,
      "hit": false,
      "t": 59117.58400000002,
      "d": 882.351999999999,
      "v": 63
    },
    {
      "midi": 64,
      "hit": false,
      "t": 59420.89250000002,
      "d": 229.77916666666715,
      "v": 86
    },
    {
      "midi": 65,
      "hit": false,
      "t": 59696.627500000024,
      "d": 248.16150000000198,
      "v": 65
    },
    {
      "midi": 59,
      "hit": false,
      "t": 59705.81866666669,
      "d": 101.10283333333064,
      "v": 15
    },
    {
      "midi": 67,
      "hit": false,
      "t": 59981.553666666696,
      "d": 376.8378333333312,
      "v": 98
    },
    {
      "midi": 71,
      "hit": false,
      "t": 59999.936000000016,
      "d": 579.0434999999998,
      "v": 71
    },
    {
      "midi": 64,
      "hit": false,
      "t": 60294.05333333335,
      "d": 294.11733333332813,
      "v": 63
    },
    {
      "midi": 65,
      "hit": false,
      "t": 60404.34733333336,
      "d": 193.0144999999975,
      "v": 69
    },
    {
      "midi": 67,
      "hit": false,
      "t": 60588.17066666668,
      "d": 174.63216666666995,
      "v": 55
    },
    {
      "midi": 64,
      "hit": false,
      "t": 60624.93533333336,
      "d": 211.39683333333232,
      "v": 83
    },
    {
      "midi": 60,
      "hit": false,
      "t": 60873.09683333336,
      "d": 1865.8068333333358,
      "v": 90
    },
    {
      "midi": 64,
      "hit": false,
      "t": 60882.288000000015,
      "d": 505.51416666666773,
      "v": 63
    },
    {
      "midi": 67,
      "hit": false,
      "t": 60891.47916666668,
      "d": 349.2643333333326,
      "v": 63
    },
    {
      "midi": 72,
      "hit": false,
      "t": 60891.47916666668,
      "d": 386.02900000000227,
      "v": 71
    },
    {
      "midi": 45,
      "hit": false,
      "t": 60891.47916666668,
      "d": 1351.1015000000116,
      "v": 75
    },
    {
      "midi": 52,
      "hit": false,
      "t": 61185.596500000014,
      "d": 946.6901666666745,
      "v": 47
    },
    {
      "midi": 57,
      "hit": false,
      "t": 61470.522666666686,
      "d": 248.16150000000198,
      "v": 51
    },
    {
      "midi": 59,
      "hit": false,
      "t": 61764.64000000002,
      "d": 36.764666666669655,
      "v": 15
    },
    {
      "midi": 59,
      "hit": false,
      "t": 62058.75733333336,
      "d": 441.1759999999995,
      "v": 67
    },
    {
      "midi": 60,
      "hit": false,
      "t": 62058.75733333336,
      "d": 441.1759999999995,
      "v": 71
    },
    {
      "midi": 67,
      "hit": false,
      "t": 62058.75733333336,
      "d": 1314.3368333333274,
      "v": 71
    },
    {
      "midi": 45,
      "hit": false,
      "t": 62362.065833333356,
      "d": 1415.4396666666653,
      "v": 71
    },
    {
      "midi": 64,
      "hit": false,
      "t": 62646.99200000002,
      "d": 505.51416666666046,
      "v": 63
    },
    {
      "midi": 60,
      "hit": false,
      "t": 62656.183166666684,
      "d": 643.381666666668,
      "v": 67
    },
    {
      "midi": 65,
      "hit": false,
      "t": 63189.27083333336,
      "d": 193.0144999999975,
      "v": 82
    },
    {
      "midi": 52,
      "hit": false,
      "t": 63235.226666666684,
      "d": 624.9993333333332,
      "v": 59
    },
    {
      "midi": 65,
      "hit": false,
      "t": 63501.77050000002,
      "d": 238.97033333333093,
      "v": 86
    },
    {
      "midi": 60,
      "hit": false,
      "t": 63529.34400000002,
      "d": 248.16150000000198,
      "v": 59
    },
    {
      "midi": 64,
      "hit": false,
      "t": 63529.34400000002,
      "d": 248.16150000000198,
      "v": 51
    },
    {
      "midi": 67,
      "hit": false,
      "t": 63529.34400000002,
      "d": 294.1173333333354,
      "v": 63
    },
    {
      "midi": 67,
      "hit": false,
      "t": 63786.696666666685,
      "d": 275.7350000000006,
      "v": 93
    },
    {
      "midi": 45,
      "hit": false,
      "t": 63832.65250000002,
      "d": 312.49966666667024,
      "v": 55
    },
    {
      "midi": 65,
      "hit": false,
      "t": 64090.005166666684,
      "d": 284.92616666666436,
      "v": 88
    },
    {
      "midi": 53,
      "hit": false,
      "t": 64126.769833333354,
      "d": 459.5583333333343,
      "v": 63
    },
    {
      "midi": 69,
      "hit": false,
      "t": 64393.31366666668,
      "d": 422.79366666666465,
      "v": 98
    },
    {
      "midi": 65,
      "hit": false,
      "t": 64411.69600000002,
      "d": 395.2201666666733,
      "v": 75
    },
    {
      "midi": 60,
      "hit": false,
      "t": 64420.88716666668,
      "d": 349.2643333333399,
      "v": 55
    },
    {
      "midi": 69,
      "hit": false,
      "t": 64420.88716666668,
      "d": 533.0876666666736,
      "v": 67
    },
    {
      "midi": 41,
      "hit": false,
      "t": 64420.88716666668,
      "d": 863.9696666666714,
      "v": 71
    },
    {
      "midi": 69,
      "hit": false,
      "t": 64898.82783333335,
      "d": 1672.7923333333383,
      "v": 80
    },
    {
      "midi": 53,
      "hit": false,
      "t": 64999.93066666669,
      "d": 468.7494999999981,
      "v": 71
    },
    {
      "midi": 65,
      "hit": false,
      "t": 65303.23916666669,
      "d": 284.92616666666436,
      "v": 71
    },
    {
      "midi": 72,
      "hit": false,
      "t": 65588.16533333335,
      "d": 514.705333333317,
      "v": 71
    },
    {
      "midi": 67,
      "hit": false,
      "t": 65882.28266666668,
      "d": 174.63216666666267,
      "v": 71
    },
    {
      "midi": 69,
      "hit": false,
      "t": 66176.40000000001,
      "d": 579.0435000000143,
      "v": 67
    },
    {
      "midi": 53,
      "hit": false,
      "t": 66176.40000000001,
      "d": 1277.572166666694,
      "v": 35
    },
    {
      "midi": 72,
      "hit": false,
      "t": 66176.40000000001,
      "d": 1351.1015000000189,
      "v": 51
    },
    {
      "midi": 67,
      "hit": false,
      "t": 66185.59116666668,
      "d": 128.67633333333652,
      "v": 75
    },
    {
      "midi": 67,
      "hit": false,
      "t": 66470.51733333335,
      "d": 101.10283333333791,
      "v": 31
    },
    {
      "midi": 69,
      "hit": false,
      "t": 66773.82583333335,
      "d": 220.58800000000338,
      "v": 98
    },
    {
      "midi": 60,
      "hit": false,
      "t": 67058.75200000002,
      "d": 321.6908333333413,
      "v": 71
    },
    {
      "midi": 65,
      "hit": false,
      "t": 67067.9431666667,
      "d": 91.91166666666686,
      "v": 71
    },
    {
      "midi": 69,
      "hit": false,
      "t": 67095.51666666669,
      "d": 193.01450000000477,
      "v": 95
    },
    {
      "midi": 65,
      "hit": false,
      "t": 67352.86933333336,
      "d": 147.05866666666407,
      "v": 75
    },
    {
      "midi": 71,
      "hit": false,
      "t": 67352.86933333336,
      "d": 211.39683333333232,
      "v": 90
    },
    {
      "midi": 72,
      "hit": false,
      "t": 67628.60433333337,
      "d": 257.35266666667303,
      "v": 98
    },
    {
      "midi": 55,
      "hit": false,
      "t": 67646.9866666667,
      "d": 726.1021666666493,
      "v": 71
    },
    {
      "midi": 43,
      "hit": false,
      "t": 67950.29516666669,
      "d": 1341.9103333333187,
      "v": 95
    },
    {
      "midi": 71,
      "hit": false,
      "t": 67950.2951666667,
      "d": 110.29399999999441,
      "v": 90
    },
    {
      "midi": 69,
      "hit": false,
      "t": 68097.35383333337,
      "d": 110.29399999999441,
      "v": 88
    },
    {
      "midi": 57,
      "hit": false,
      "t": 68235.22133333335,
      "d": 395.2201666666515,
      "v": 79
    },
    {
      "midi": 67,
      "hit": false,
      "t": 68244.41250000003,
      "d": 1847.4244999999937,
      "v": 102
    },
    {
      "midi": 55,
      "hit": false,
      "t": 68520.1475,
      "d": 404.4113333333371,
      "v": 75
    },
    {
      "midi": 60,
      "hit": false,
      "t": 68823.456,
      "d": 441.17600000000675,
      "v": 83
    },
    {
      "midi": 55,
      "hit": false,
      "t": 69117.57333333335,
      "d": 505.51416666666046,
      "v": 63
    },
    {
      "midi": 65,
      "hit": false,
      "t": 69411.69066666668,
      "d": 551.4700000000012,
      "v": 79
    },
    {
      "midi": 43,
      "hit": false,
      "t": 69705.808,
      "d": 1314.3368333333347,
      "v": 75
    },
    {
      "midi": 67,
      "hit": false,
      "t": 69999.92533333335,
      "d": 101.10283333333791,
      "v": 75
    },
    {
      "midi": 67,
      "hit": false,
      "t": 70275.66033333336,
      "d": 248.16150000000198,
      "v": 93
    },
    {
      "midi": 55,
      "hit": false,
      "t": 70284.85150000002,
      "d": 772.05799999999,
      "v": 79
    },
    {
      "midi": 69,
      "hit": false,
      "t": 70588.16000000002,
      "d": 248.16150000000198,
      "v": 79
    },
    {
      "midi": 67,
      "hit": false,
      "t": 70606.54233333336,
      "d": 229.77916666665988,
      "v": 93
    },
    {
      "midi": 71,
      "hit": false,
      "t": 70882.27733333335,
      "d": 284.9261666666571,
      "v": 71
    },
    {
      "midi": 67,
      "hit": false,
      "t": 70937.42433333336,
      "d": 128.67633333333652,
      "v": 88
    },
    {
      "midi": 43,
      "hit": false,
      "t": 71176.39466666667,
      "d": 101.10283333333791,
      "v": 47
    },
    {
      "midi": 72,
      "hit": false,
      "t": 71176.39466666667,
      "d": 174.63216666667722,
      "v": 71
    },
    {
      "midi": 67,
      "hit": false,
      "t": 71176.39466666669,
      "d": 248.16150000000198,
      "v": 82
    },
    {
      "midi": 53,
      "hit": false,
      "t": 71479.70316666667,
      "d": 386.02900000000955,
      "v": 43
    },
    {
      "midi": 69,
      "hit": false,
      "t": 71479.70316666667,
      "d": 827.2050000000163,
      "v": 71
    },
    {
      "midi": 65,
      "hit": false,
      "t": 71479.70316666667,
      "d": 873.1608333333425,
      "v": 71
    },
    {
      "midi": 72,
      "hit": false,
      "t": 71479.70316666667,
      "d": 1047.7930000000197,
      "v": 71
    },
    {
      "midi": 41,
      "hit": false,
      "t": 71488.89433333334,
      "d": 312.49966666667024,
      "v": 87
    },
    {
      "midi": 69,
      "hit": false,
      "t": 71507.27666666669,
      "d": 735.2933333333349,
      "v": 95
    },
    {
      "midi": 69,
      "hit": false,
      "t": 72352.86400000002,
      "d": 1369.4838333333319,
      "v": 102
    },
    {
      "midi": 53,
      "hit": false,
      "t": 72362.05516666669,
      "d": 459.5583333333343,
      "v": 75
    },
    {
      "midi": 65,
      "hit": false,
      "t": 72646.98133333336,
      "d": 220.58799999998882,
      "v": 67
    },
    {
      "midi": 72,
      "hit": false,
      "t": 72941.09866666669,
      "d": 248.16150000000198,
      "v": 67
    },
    {
      "midi": 62,
      "hit": false,
      "t": 73244.40716666669,
      "d": 569.8523333333433,
      "v": 75
    },
    {
      "midi": 71,
      "hit": false,
      "t": 73244.40716666669,
      "d": 716.9110000000073,
      "v": 71
    },
    {
      "midi": 67,
      "hit": false,
      "t": 73244.40716666669,
      "d": 836.3961666666728,
      "v": 67
    },
    {
      "midi": 74,
      "hit": false,
      "t": 73244.40716666669,
      "d": 863.9696666666714,
      "v": 75
    },
    {
      "midi": 55,
      "hit": false,
      "t": 73244.40716666669,
      "d": 1452.2043333333422,
      "v": 71
    },
    {
      "midi": 53,
      "hit": false,
      "t": 73244.40716666669,
      "d": 1498.160166666683,
      "v": 55
    },
    {
      "midi": 59,
      "hit": false,
      "t": 73281.17183333336,
      "d": 459.5583333333343,
      "v": 71
    },
    {
      "midi": 69,
      "hit": false,
      "t": 73832.64183333334,
      "d": 284.92616666667163,
      "v": 90
    },
    {
      "midi": 59,
      "hit": false,
      "t": 74117.56800000003,
      "d": 477.94066666666185,
      "v": 63
    },
    {
      "midi": 69,
      "hit": false,
      "t": 74237.05316666668,
      "d": 266.54383333332953,
      "v": 80
    },
    {
      "midi": 62,
      "hit": false,
      "t": 74411.68533333336,
      "d": 358.45550000001094,
      "v": 67
    },
    {
      "midi": 67,
      "hit": false,
      "t": 74604.69983333335,
      "d": 340.07316666666884,
      "v": 102
    },
    {
      "midi": 59,
      "hit": false,
      "t": 74705.8026666667,
      "d": 652.5728333333245,
      "v": 51
    },
    {
      "midi": 62,
      "hit": false,
      "t": 75009.1111666667,
      "d": 358.4554999999964,
      "v": 75
    },
    {
      "midi": 71,
      "hit": false,
      "t": 75009.1111666667,
      "d": 643.381666666668,
      "v": 63
    },
    {
      "midi": 64,
      "hit": false,
      "t": 75009.1111666667,
      "d": 680.1463333333377,
      "v": 63
    },
    {
      "midi": 67,
      "hit": false,
      "t": 75009.1111666667,
      "d": 680.1463333333377,
      "v": 63
    },
    {
      "midi": 74,
      "hit": false,
      "t": 75009.1111666667,
      "d": 790.4403333333321,
      "v": 75
    },
    {
      "midi": 55,
      "hit": false,
      "t": 75009.1111666667,
      "d": 1121.3223333333299,
      "v": 55
    },
    {
      "midi": 52,
      "hit": false,
      "t": 75009.1111666667,
      "d": 1240.8074999999808,
      "v": 63
    },
    {
      "midi": 65,
      "hit": false,
      "t": 75211.31683333335,
      "d": 211.39683333333232,
      "v": 83
    },
    {
      "midi": 67,
      "hit": false,
      "t": 75459.47833333335,
      "d": 202.20566666666127,
      "v": 90
    },
    {
      "midi": 59,
      "hit": false,
      "t": 75588.1546666667,
      "d": 542.2788333333301,
      "v": 71
    },
    {
      "midi": 67,
      "hit": false,
      "t": 75735.21333333335,
      "d": 1452.2043333333277,
      "v": 80
    },
    {
      "midi": 64,
      "hit": false,
      "t": 75882.27200000003,
      "d": 321.69083333332674,
      "v": 67
    },
    {
      "midi": 71,
      "hit": false,
      "t": 76185.58050000003,
      "d": 422.7936666666501,
      "v": 75
    },
    {
      "midi": 64,
      "hit": false,
      "t": 76479.69783333334,
      "d": 202.20566666667582,
      "v": 59
    },
    {
      "midi": 45,
      "hit": false,
      "t": 76764.62400000001,
      "d": 1424.6308333333436,
      "v": 79
    },
    {
      "midi": 64,
      "hit": false,
      "t": 76773.81516666668,
      "d": 680.1463333333377,
      "v": 71
    },
    {
      "midi": 72,
      "hit": false,
      "t": 76773.81516666668,
      "d": 983.4548333333369,
      "v": 75
    },
    {
      "midi": 67,
      "hit": false,
      "t": 77325.28516666667,
      "d": 220.58800000000338,
      "v": 93
    },
    {
      "midi": 52,
      "hit": false,
      "t": 77352.85866666668,
      "d": 845.5873333333438,
      "v": 71
    },
    {
      "midi": 67,
      "hit": false,
      "t": 77637.78483333334,
      "d": 238.97033333333093,
      "v": 106
    },
    {
      "midi": 57,
      "hit": false,
      "t": 77656.16716666668,
      "d": 349.2643333333399,
      "v": 67
    },
    {
      "midi": 64,
      "hit": false,
      "t": 77931.90216666668,
      "d": 266.5438333333441,
      "v": 63
    },
    {
      "midi": 65,
      "hit": false,
      "t": 77950.28450000001,
      "d": 211.39683333333232,
      "v": 78
    },
    {
      "midi": 64,
      "hit": false,
      "t": 78226.01950000001,
      "d": 220.58800000000338,
      "v": 83
    },
    {
      "midi": 57,
      "hit": false,
      "t": 78235.2106666667,
      "d": 147.05866666666407,
      "v": 39
    },
    {
      "midi": 72,
      "hit": false,
      "t": 78244.40183333337,
      "d": 202.20566666666127,
      "v": 39
    },
    {
      "midi": 65,
      "hit": false,
      "t": 78501.75450000001,
      "d": 376.8378333333385,
      "v": 102
    },
    {
      "midi": 62,
      "hit": false,
      "t": 78538.5191666667,
      "d": 689.3375000000087,
      "v": 71
    },
    {
      "midi": 65,
      "hit": false,
      "t": 78538.5191666667,
      "d": 790.4403333333466,
      "v": 71
    },
    {
      "midi": 50,
      "hit": false,
      "t": 78538.5191666667,
      "d": 1268.381000000023,
      "v": 83
    },
    {
      "midi": 72,
      "hit": false,
      "t": 78538.5191666667,
      "d": 1268.381000000023,
      "v": 63
    },
    {
      "midi": 65,
      "hit": false,
      "t": 78970.50400000002,
      "d": 1746.3216666666704,
      "v": 86
    },
    {
      "midi": 57,
      "hit": false,
      "t": 79117.56266666671,
      "d": 873.1608333333425,
      "v": 71
    },
    {
      "midi": 60,
      "hit": false,
      "t": 79411.68000000004,
      "d": 284.92616666667163,
      "v": 71
    },
    {
      "midi": 62,
      "hit": false,
      "t": 79705.79733333338,
      "d": 395.2201666666806,
      "v": 75
    },
    {
      "midi": 50,
      "hit": false,
      "t": 79999.91466666672,
      "d": 137.86750000000757,
      "v": 71
    },
    {
      "midi": 43,
      "hit": false,
      "t": 80303.22316666674,
      "d": 238.97033333333093,
      "v": 79
    },
    {
      "midi": 62,
      "hit": false,
      "t": 80303.22316666674,
      "d": 321.69083333332674,
      "v": 63
    },
    {
      "midi": 67,
      "hit": false,
      "t": 80303.22316666674,
      "d": 431.98483333332115,
      "v": 71
    },
    {
      "midi": 71,
      "hit": false,
      "t": 80303.22316666674,
      "d": 496.3229999999894,
      "v": 63
    },
    {
      "midi": 55,
      "hit": false,
      "t": 80588.1493333334,
      "d": 101.10283333333791,
      "v": 63
    },
    {
      "midi": 65,
      "hit": false,
      "t": 80863.88433333335,
      "d": 193.01450000000477,
      "v": 102
    },
    {
      "midi": 55,
      "hit": false,
      "t": 80882.26666666672,
      "d": 689.3375000000087,
      "v": 75
    },
    {
      "midi": 62,
      "hit": false,
      "t": 81167.19283333339,
      "d": 367.64666666666744,
      "v": 75
    },
    {
      "midi": 65,
      "hit": false,
      "t": 81176.38400000002,
      "d": 229.77916666665988,
      "v": 95
    },
    {
      "midi": 69,
      "hit": false,
      "t": 81176.38400000006,
      "d": 294.11733333332813,
      "v": 71
    },
    {
      "midi": 74,
      "hit": false,
      "t": 81176.38400000006,
      "d": 505.514166666675,
      "v": 75
    },
    {
      "midi": 64,
      "hit": false,
      "t": 81479.69250000002,
      "d": 257.35266666667303,
      "v": 82
    },
    {
      "midi": 59,
      "hit": false,
      "t": 81479.69250000006,
      "d": 165.44100000000617,
      "v": 51
    },
    {
      "midi": 71,
      "hit": false,
      "t": 81479.69250000006,
      "d": 284.92616666667163,
      "v": 63
    },
    {
      "midi": 55,
      "hit": false,
      "t": 81773.8098333334,
      "d": 55.146999999997206,
      "v": 63
    },
    {
      "midi": 67,
      "hit": false,
      "t": 81773.8098333334,
      "d": 91.91166666666686,
      "v": 51
    },
    {
      "midi": 62,
      "hit": false,
      "t": 81783.00100000002,
      "d": 248.16150000000198,
      "v": 82
    },
    {
      "midi": 72,
      "hit": false,
      "t": 82058.73600000008,
      "d": 211.39683333333232,
      "v": 75
    },
    {
      "midi": 67,
      "hit": false,
      "t": 82067.92716666675,
      "d": 211.39683333333232,
      "v": 75
    },
    {
      "midi": 48,
      "hit": false,
      "t": 82067.92716666675,
      "d": 1056.9841666666762,
      "v": 75
    },
    {
      "midi": 64,
      "hit": false,
      "t": 82086.30950000002,
      "d": 560.6611666666722,
      "v": 110
    },
    {
      "midi": 55,
      "hit": false,
      "t": 82352.85333333342,
      "d": 395.2201666666806,
      "v": 75
    },
    {
      "midi": 60,
      "hit": false,
      "t": 82637.77950000009,
      "d": 82.72050000001036,
      "v": 51
    },
    {
      "midi": 67,
      "hit": false,
      "t": 82646.97066666676,
      "d": 505.51416666666046,
      "v": 75
    },
    {
      "midi": 62,
      "hit": false,
      "t": 82646.97066666676,
      "d": 542.2788333333301,
      "v": 75
    },
    {
      "midi": 65,
      "hit": false,
      "t": 82702.11766666669,
      "d": 468.74950000000536,
      "v": 83
    },
    {
      "midi": 55,
      "hit": false,
      "t": 82950.27916666676,
      "d": 431.98483333332115,
      "v": 75
    },
    {
      "midi": 67,
      "hit": false,
      "t": 83216.82300000002,
      "d": 266.54383333332953,
      "v": 71
    },
    {
      "midi": 67,
      "hit": false,
      "t": 83235.20533333342,
      "d": 211.39683333333232,
      "v": 67
    },
    {
      "midi": 48,
      "hit": false,
      "t": 83244.39650000009,
      "d": 18.38233333332755,
      "v": 27
    },
    {
      "midi": 64,
      "hit": false,
      "t": 83244.39650000009,
      "d": 211.39683333333232,
      "v": 71
    },
    {
      "midi": 60,
      "hit": false,
      "t": 83244.39650000009,
      "d": 321.6908333333413,
      "v": 71
    },
    {
      "midi": 69,
      "hit": false,
      "t": 83501.74916666668,
      "d": 266.54383333332953,
      "v": 73
    },
    {
      "midi": 48,
      "hit": false,
      "t": 83529.32266666676,
      "d": 73.52933333333931,
      "v": 75
    },
    {
      "midi": 70,
      "hit": false,
      "t": 83814.24883333333,
      "d": 367.64666666666744,
      "v": 55
    },
    {
      "midi": 48,
      "hit": false,
      "t": 83823.4400000001,
      "d": 321.69083333332674,
      "v": 55
    },
    {
      "midi": 36,
      "hit": false,
      "t": 83832.63116666678,
      "d": 202.20566666666127,
      "v": 83
    },
    {
      "midi": 65,
      "hit": false,
      "t": 83832.63116666678,
      "d": 422.7936666666501,
      "v": 75
    },
    {
      "midi": 69,
      "hit": false,
      "t": 83832.63116666678,
      "d": 459.55833333331975,
      "v": 75
    },
    {
      "midi": 58,
      "hit": false,
      "t": 83832.63116666678,
      "d": 652.5728333333245,
      "v": 75
    },
    {
      "midi": 62,
      "hit": false,
      "t": 83832.63116666678,
      "d": 680.1463333333231,
      "v": 83
    },
    {
      "midi": 67,
      "hit": false,
      "t": 84411.67466666666,
      "d": 266.54383333332953,
      "v": 76
    },
    {
      "midi": 55,
      "hit": false,
      "t": 84420.86583333343,
      "d": 349.26433333332534,
      "v": 79
    },
    {
      "midi": 58,
      "hit": false,
      "t": 84714.98316666676,
      "d": 165.44100000000617,
      "v": 71
    },
    {
      "midi": 62,
      "hit": false,
      "t": 84714.98316666676,
      "d": 284.92616666667163,
      "v": 75
    },
    {
      "midi": 64,
      "hit": false,
      "t": 84714.98316666676,
      "d": 312.49966666667024,
      "v": 75
    },
    {
      "midi": 67,
      "hit": false,
      "t": 84714.98316666676,
      "d": 349.2643333333399,
      "v": 83
    },
    {
      "midi": 48,
      "hit": false,
      "t": 84714.98316666676,
      "d": 395.22016666666605,
      "v": 83
    },
    {
      "midi": 67,
      "hit": false,
      "t": 84751.74783333333,
      "d": 229.77916666665988,
      "v": 88
    },
    {
      "midi": 55,
      "hit": false,
      "t": 84999.90933333343,
      "d": 257.3526666666585,
      "v": 75
    },
    {
      "midi": 65,
      "hit": false,
      "t": 85045.86516666666,
      "d": 202.20566666666127,
      "v": 78
    },
    {
      "midi": 48,
      "hit": false,
      "t": 85294.02666666676,
      "d": 137.86749999999302,
      "v": 75
    },
    {
      "midi": 67,
      "hit": false,
      "t": 85303.21783333331,
      "d": 211.39683333333232,
      "v": 95
    },
    {
      "midi": 69,
      "hit": false,
      "t": 85569.76166666664,
      "d": 349.2643333333399,
      "v": 110
    },
    {
      "midi": 53,
      "hit": false,
      "t": 85597.33516666674,
      "d": 422.7936666666792,
      "v": 55
    },
    {
      "midi": 65,
      "hit": false,
      "t": 85597.33516666674,
      "d": 753.6756666666915,
      "v": 71
    },
    {
      "midi": 41,
      "hit": false,
      "t": 85606.52633333342,
      "d": 193.01450000000477,
      "v": 87
    },
    {
      "midi": 72,
      "hit": false,
      "t": 85606.52633333342,
      "d": 634.1905000000115,
      "v": 75
    },
    {
      "midi": 69,
      "hit": false,
      "t": 85606.52633333342,
      "d": 670.9551666666812,
      "v": 71
    },
    {
      "midi": 69,
      "hit": false,
      "t": 86001.74649999998,
      "d": 1608.4541666666628,
      "v": 93
    },
    {
      "midi": 53,
      "hit": false,
      "t": 86176.37866666676,
      "d": 762.8668333333335,
      "v": 75
    },
    {
      "midi": 65,
      "hit": false,
      "t": 86470.4960000001,
      "d": 137.86749999999302,
      "v": 67
    },
    {
      "midi": 57,
      "hit": false,
      "t": 86470.4960000001,
      "d": 431.98483333332115,
      "v": 71
    },
    {
      "midi": 65,
      "hit": false,
      "t": 86755.42216666676,
      "d": 294.11733333332813,
      "v": 27
    },
    {
      "midi": 69,
      "hit": false,
      "t": 86764.61333333343,
      "d": 358.4554999999964,
      "v": 75
    },
    {
      "midi": 72,
      "hit": false,
      "t": 87058.73066666676,
      "d": 147.05866666666407,
      "v": 75
    },
    {
      "midi": 59,
      "hit": false,
      "t": 87352.84800000009,
      "d": 514.7053333333461,
      "v": 75
    },
    {
      "midi": 71,
      "hit": false,
      "t": 87362.03916666676,
      "d": 569.8523333333433,
      "v": 63
    },
    {
      "midi": 62,
      "hit": false,
      "t": 87362.03916666676,
      "d": 643.3816666666826,
      "v": 71
    },
    {
      "midi": 67,
      "hit": false,
      "t": 87362.03916666676,
      "d": 974.2636666666804,
      "v": 71
    },
    {
      "midi": 74,
      "hit": false,
      "t": 87362.03916666676,
      "d": 1268.381000000023,
      "v": 79
    },
    {
      "midi": 47,
      "hit": false,
      "t": 87362.03916666676,
      "d": 1387.8661666666885,
      "v": 79
    },
    {
      "midi": 69,
      "hit": false,
      "t": 87830.78866666665,
      "d": 156.24983333333512,
      "v": 88
    },
    {
      "midi": 71,
      "hit": false,
      "t": 88051.37666666665,
      "d": 128.67633333333652,
      "v": 98
    },
    {
      "midi": 59,
      "hit": false,
      "t": 88235.2000000001,
      "d": 358.45550000001094,
      "v": 71
    },
    {
      "midi": 72,
      "hit": false,
      "t": 88281.15583333332,
      "d": 358.4554999999964,
      "v": 114
    },
    {
      "midi": 62,
      "hit": false,
      "t": 88529.31733333344,
      "d": 468.74950000000536,
      "v": 87
    },
    {
      "midi": 71,
      "hit": false,
      "t": 88731.52299999999,
      "d": 147.05866666666407,
      "v": 83
    },
    {
      "midi": 59,
      "hit": false,
      "t": 88823.43466666678,
      "d": 147.05866666666407,
      "v": 67
    },
    {
      "midi": 69,
      "hit": false,
      "t": 88906.15516666665,
      "d": 183.82333333333372,
      "v": 95
    },
    {
      "midi": 62,
      "hit": false,
      "t": 89117.55200000011,
      "d": 367.64666666666744,
      "v": 71
    },
    {
      "midi": 71,
      "hit": false,
      "t": 89117.55200000011,
      "d": 624.9993333333405,
      "v": 63
    },
    {
      "midi": 67,
      "hit": false,
      "t": 89117.55200000011,
      "d": 799.6315000000031,
      "v": 75
    },
    {
      "midi": 67,
      "hit": false,
      "t": 89135.93433333331,
      "d": 312.49966666667024,
      "v": 95
    },
    {
      "midi": 74,
      "hit": false,
      "t": 89154.31666666678,
      "d": 726.1021666666638,
      "v": 71
    },
    {
      "midi": 52,
      "hit": false,
      "t": 89154.31666666678,
      "d": 1314.33683333332,
      "v": 71
    },
    {
      "midi": 55,
      "hit": false,
      "t": 89402.47816666678,
      "d": 955.8813333333237,
      "v": 67
    },
    {
      "midi": 67,
      "hit": false,
      "t": 89521.96333333332,
      "d": 1636.0276666666614,
      "v": 83
    },
    {
      "midi": 59,
      "hit": false,
      "t": 89705.78666666678,
      "d": 624.9993333333259,
      "v": 75
    },
    {
      "midi": 64,
      "hit": false,
      "t": 89999.90400000011,
      "d": 330.8819999999978,
      "v": 75
    },
    {
      "midi": 71,
      "hit": false,
      "t": 90294.02133333344,
      "d": 505.51416666666046,
      "v": 71
    },
    {
      "midi": 74,
      "hit": false,
      "t": 90588.13866666677,
      "d": 137.86749999999302,
      "v": 75
    },
    {
      "midi": 45,
      "hit": false,
      "t": 90882.2560000001,
      "d": 1249.998666666681,
      "v": 79
    },
    {
      "midi": 64,
      "hit": false,
      "t": 90891.44716666677,
      "d": 569.8523333333433,
      "v": 71
    },
    {
      "midi": 72,
      "hit": false,
      "t": 90891.44716666677,
      "d": 1011.0283333333355,
      "v": 75
    },
    {
      "midi": 52,
      "hit": false,
      "t": 91176.37333333344,
      "d": 983.4548333333369,
      "v": 63
    },
    {
      "midi": 67,
      "hit": false,
      "t": 91249.90266666665,
      "d": 165.44100000000617,
      "v": 73
    },
    {
      "midi": 57,
      "hit": false,
      "t": 91470.49066666678,
      "d": 836.3961666666582,
      "v": 67
    },
    {
      "midi": 67,
      "hit": false,
      "t": 91498.06416666665,
      "d": 174.63216666666267,
      "v": 86
    },
    {
      "midi": 67,
      "hit": false,
      "t": 91764.60799999998,
      "d": 229.77916666665988,
      "v": 102
    },
    {
      "midi": 60,
      "hit": false,
      "t": 91764.60800000011,
      "d": 689.3374999999942,
      "v": 75
    },
    {
      "midi": 67,
      "hit": false,
      "t": 92058.72533333344,
      "d": 551.4700000000012,
      "v": 71
    },
    {
      "midi": 65,
      "hit": false,
      "t": 92077.10766666663,
      "d": 238.97033333333093,
      "v": 95
    },
    {
      "midi": 64,
      "hit": false,
      "t": 92352.84266666663,
      "d": 238.97033333333093,
      "v": 93
    },
    {
      "midi": 72,
      "hit": false,
      "t": 92352.84266666677,
      "d": 1020.2195000000065,
      "v": 71
    },
    {
      "midi": 65,
      "hit": false,
      "t": 92628.57766666664,
      "d": 431.9848333333357,
      "v": 98
    },
    {
      "midi": 60,
      "hit": false,
      "t": 92656.15116666676,
      "d": 422.79366666666465,
      "v": 67
    },
    {
      "midi": 65,
      "hit": false,
      "t": 92656.15116666676,
      "d": 569.8523333333287,
      "v": 71
    },
    {
      "midi": 69,
      "hit": false,
      "t": 92656.15116666676,
      "d": 579.0434999999998,
      "v": 63
    },
    {
      "midi": 50,
      "hit": false,
      "t": 92656.15116666676,
      "d": 2812.497000000003,
      "v": 79
    },
    {
      "midi": 53,
      "hit": false,
      "t": 92941.07733333344,
      "d": 2647.055999999997,
      "v": 71
    },
    {
      "midi": 65,
      "hit": false,
      "t": 93152.47416666664,
      "d": 1378.675000000003,
      "v": 90
    },
    {
      "midi": 57,
      "hit": false,
      "t": 93244.38583333344,
      "d": 1461.3954999999987,
      "v": 63
    },
    {
      "midi": 60,
      "hit": false,
      "t": 93520.12083333344,
      "d": 965.0725000000093,
      "v": 63
    },
    {
      "midi": 76,
      "hit": false,
      "t": 94117.54666666676,
      "d": 257.35266666667303,
      "v": 75
    },
    {
      "midi": 77,
      "hit": false,
      "t": 94411.6640000001,
      "d": 248.16150000000198,
      "v": 67
    },
    {
      "midi": 65,
      "hit": false,
      "t": 94687.39899999998,
      "d": 211.39683333333232,
      "v": 83
    },
    {
      "midi": 69,
      "hit": false,
      "t": 94705.78133333343,
      "d": 101.10283333333791,
      "v": 63
    },
    {
      "midi": 65,
      "hit": false,
      "t": 94981.5163333333,
      "d": 156.24983333333512,
      "v": 74
    },
    {
      "midi": 57,
      "hit": false,
      "t": 94999.89866666678,
      "d": 735.2933333333203,
      "v": 67
    },
    {
      "midi": 65,
      "hit": false,
      "t": 95266.44249999998,
      "d": 229.77916666665988,
      "v": 95
    },
    {
      "midi": 65,
      "hit": false,
      "t": 95294.0160000001,
      "d": 358.4554999999964,
      "v": 71
    },
    {
      "midi": 64,
      "hit": false,
      "t": 95569.75099999997,
      "d": 229.77916666665988,
      "v": 80
    },
    {
      "midi": 50,
      "hit": false,
      "t": 95588.13333333343,
      "d": 64.33816666666826,
      "v": 35
    },
    {
      "midi": 69,
      "hit": false,
      "t": 95588.13333333343,
      "d": 367.64666666666744,
      "v": 63
    },
    {
      "midi": 65,
      "hit": false,
      "t": 95863.8683333333,
      "d": 238.97033333333093,
      "v": 95
    },
    {
      "midi": 50,
      "hit": false,
      "t": 95882.25066666676,
      "d": 137.86750000000757,
      "v": 71
    },
    {
      "midi": 55,
      "hit": false,
      "t": 95891.44183333343,
      "d": 533.0876666666591,
      "v": 71
    },
    {
      "midi": 67,
      "hit": false,
      "t": 96157.98566666663,
      "d": 689.3374999999942,
      "v": 102
    },
    {
      "midi": 43,
      "hit": false,
      "t": 96176.3680000001,
      "d": 248.16149999998743,
      "v": 75
    },
    {
      "midi": 69,
      "hit": false,
      "t": 96470.48533333342,
      "d": 431.98483333332115,
      "v": 67
    },
    {
      "midi": 72,
      "hit": false,
      "t": 96764.60266666675,
      "d": 330.8819999999978,
      "v": 63
    },
    {
      "midi": 65,
      "hit": false,
      "t": 96847.32316666663,
      "d": 514.7053333333315,
      "v": 48
    },
    {
      "midi": 77,
      "hit": false,
      "t": 97058.72000000007,
      "d": 358.45550000001094,
      "v": 63
    },
    {
      "midi": 69,
      "hit": false,
      "t": 97352.83733333342,
      "d": 248.16150000000198,
      "v": 63
    },
    {
      "midi": 64,
      "hit": false,
      "t": 97398.79316666663,
      "d": 487.1318333333329,
      "v": 36
    },
    {
      "midi": 79,
      "hit": false,
      "t": 97637.76350000009,
      "d": 183.82333333333372,
      "v": 71
    },
    {
      "midi": 62,
      "hit": false,
      "t": 97968.64549999996,
      "d": 119.48516666666546,
      "v": 23
    },
    {
      "midi": 60,
      "hit": false,
      "t": 98483.35083333329,
      "d": 238.97033333333093,
      "v": 54
    },
    {
      "midi": 60,
      "hit": false,
      "t": 98832.61516666661,
      "d": 266.54383333332953,
      "v": 83
    },
    {
      "midi": 62,
      "hit": false,
      "t": 99126.73249999994,
      "d": 238.97033333333093,
      "v": 82
    },
    {
      "midi": 60,
      "hit": false,
      "t": 99402.46749999994,
      "d": 257.35266666667303,
      "v": 98
    },
    {
      "midi": 64,
      "hit": false,
      "t": 99687.39366666661,
      "d": 147.05866666666407,
      "v": 74
    },
    {
      "midi": 48,
      "hit": false,
      "t": 99705.77600000009,
      "d": 2968.746833333338,
      "v": 75
    },
    {
      "midi": 62,
      "hit": false,
      "t": 99862.02583333327,
      "d": 91.91166666666686,
      "v": 73
    },
    {
      "midi": 64,
      "hit": false,
      "t": 99990.70216666661,
      "d": 1985.2920000000013,
      "v": 88
    },
    {
      "midi": 55,
      "hit": false,
      "t": 99999.89333333343,
      "d": 2463.232666666663,
      "v": 67
    },
    {
      "midi": 60,
      "hit": false,
      "t": 100294.01066666676,
      "d": 137.86749999999302,
      "v": 63
    },
    {
      "midi": 62,
      "hit": false,
      "t": 100588.12800000008,
      "d": 404.4113333333371,
      "v": 75
    },
    {
      "midi": 74,
      "hit": false,
      "t": 100597.31916666676,
      "d": 284.92616666667163,
      "v": 83
    },
    {
      "midi": 79,
      "hit": false,
      "t": 100597.31916666676,
      "d": 312.49966666667024,
      "v": 83
    },
    {
      "midi": 67,
      "hit": false,
      "t": 100597.31916666676,
      "d": 2674.6294999999955,
      "v": 75
    },
    {
      "midi": 64,
      "hit": false,
      "t": 100882.24533333343,
      "d": 2389.703333333324,
      "v": 63
    },
    {
      "midi": 76,
      "hit": false,
      "t": 100891.4365000001,
      "d": 238.97033333331638,
      "v": 83
    },
    {
      "midi": 60,
      "hit": false,
      "t": 101176.36266666674,
      "d": 1976.1008333333448,
      "v": 71
    },
    {
      "midi": 72,
      "hit": false,
      "t": 101185.55383333341,
      "d": 165.44100000000617,
      "v": 83
    },
    {
      "midi": 60,
      "hit": false,
      "t": 102113.8616666666,
      "d": 110.29399999999441,
      "v": 82
    },
    {
      "midi": 62,
      "hit": false,
      "t": 102270.11149999993,
      "d": 165.44100000000617,
      "v": 93
    },
    {
      "midi": 64,
      "hit": false,
      "t": 102472.3171666666,
      "d": 229.77916666665988,
      "v": 102
    },
    {
      "midi": 62,
      "hit": false,
      "t": 102738.86099999993,
      "d": 183.82333333333372,
      "v": 76
    },
    {
      "midi": 60,
      "hit": false,
      "t": 102968.64016666659,
      "d": 174.63216666666267,
      "v": 78
    },
    {
      "midi": 57,
      "hit": false,
      "t": 103198.41933333325,
      "d": 358.4554999999964,
      "v": 78
    },
    {
      "midi": 45,
      "hit": false,
      "t": 103235.18400000008,
      "d": 2931.9821666666685,
      "v": 83
    },
    {
      "midi": 52,
      "hit": false,
      "t": 103520.11016666675,
      "d": 2656.247166666668,
      "v": 67
    },
    {
      "midi": 57,
      "hit": false,
      "t": 103612.02183333325,
      "d": 1397.0573333333305,
      "v": 80
    },
    {
      "midi": 57,
      "hit": false,
      "t": 103814.22750000008,
      "d": 2398.8945000000094,
      "v": 63
    },
    {
      "midi": 62,
      "hit": false,
      "t": 104117.53600000008,
      "d": 367.646666666682,
      "v": 79
    },
    {
      "midi": 67,
      "hit": false,
      "t": 104117.53600000008,
      "d": 2463.2326666666777,
      "v": 75
    },
    {
      "midi": 74,
      "hit": false,
      "t": 104126.72716666675,
      "d": 238.97033333333093,
      "v": 83
    },
    {
      "midi": 79,
      "hit": false,
      "t": 104126.72716666675,
      "d": 386.02900000000955,
      "v": 83
    },
    {
      "midi": 64,
      "hit": false,
      "t": 104402.46216666675,
      "d": 2325.36516666667,
      "v": 55
    },
    {
      "midi": 76,
      "hit": false,
      "t": 104411.65333333342,
      "d": 248.16150000000198,
      "v": 83
    },
    {
      "midi": 72,
      "hit": false,
      "t": 104714.96183333342,
      "d": 238.97033333333093,
      "v": 83
    },
    {
      "midi": 60,
      "hit": false,
      "t": 104714.96183333342,
      "d": 1672.792333333331,
      "v": 63
    },
    {
      "midi": 62,
      "hit": false,
      "t": 105882.2399999999,
      "d": 248.16150000000198,
      "v": 95
    },
    {
      "midi": 64,
      "hit": false,
      "t": 106157.9749999999,
      "d": 266.54383333332953,
      "v": 88
    },
    {
      "midi": 62,
      "hit": false,
      "t": 106452.09233333323,
      "d": 275.7350000000006,
      "v": 83
    },
    {
      "midi": 65,
      "hit": false,
      "t": 106746.20966666656,
      "d": 147.05866666666407,
      "v": 73
    },
    {
      "midi": 50,
      "hit": false,
      "t": 106773.78316666675,
      "d": 3106.6143333333603,
      "v": 83
    },
    {
      "midi": 64,
      "hit": false,
      "t": 106920.84183333322,
      "d": 128.67633333333652,
      "v": 78
    },
    {
      "midi": 57,
      "hit": false,
      "t": 107058.7093333334,
      "d": 2601.1001666667,
      "v": 67
    },
    {
      "midi": 65,
      "hit": false,
      "t": 107077.09166666656,
      "d": 1792.2774999999965,
      "v": 73
    },
    {
      "midi": 62,
      "hit": false,
      "t": 107352.82666666673,
      "d": 101.10283333333791,
      "v": 63
    },
    {
      "midi": 64,
      "hit": false,
      "t": 107646.94400000008,
      "d": 358.45550000001094,
      "v": 75
    },
    {
      "midi": 69,
      "hit": false,
      "t": 107646.94400000008,
      "d": 2564.33550000003,
      "v": 75
    },
    {
      "midi": 81,
      "hit": false,
      "t": 107656.13516666675,
      "d": 238.97033333333093,
      "v": 83
    },
    {
      "midi": 74,
      "hit": false,
      "t": 107656.13516666675,
      "d": 248.16150000000198,
      "v": 83
    },
    {
      "midi": 76,
      "hit": false,
      "t": 107941.06133333342,
      "d": 284.92616666667163,
      "v": 83
    },
    {
      "midi": 65,
      "hit": false,
      "t": 107941.06133333342,
      "d": 2233.453500000018,
      "v": 55
    },
    {
      "midi": 60,
      "hit": false,
      "t": 108235.17866666676,
      "d": 2095.5859999999957,
      "v": 63
    },
    {
      "midi": 72,
      "hit": false,
      "t": 108244.36983333343,
      "d": 211.39683333333232,
      "v": 83
    },
    {
      "midi": 62,
      "hit": false,
      "t": 109025.61899999989,
      "d": 128.67633333333652,
      "v": 62
    },
    {
      "midi": 64,
      "hit": false,
      "t": 109191.0599999999,
      "d": 137.86749999999302,
      "v": 93
    },
    {
      "midi": 65,
      "hit": false,
      "t": 109384.07449999989,
      "d": 284.92616666667163,
      "v": 106
    },
    {
      "midi": 64,
      "hit": false,
      "t": 109687.38299999989,
      "d": 257.35266666667303,
      "v": 95
    },
    {
      "midi": 60,
      "hit": false,
      "t": 109981.50033333323,
      "d": 238.97033333333093,
      "v": 76
    },
    {
      "midi": 55,
      "hit": false,
      "t": 109999.88266666677,
      "d": 1874.9979999999632,
      "v": 35
    },
    {
      "midi": 62,
      "hit": false,
      "t": 110266.42649999988,
      "d": 386.028999999995,
      "v": 66
    },
    {
      "midi": 79,
      "hit": false,
      "t": 110303.19116666676,
      "d": 165.44099999999162,
      "v": 83
    },
    {
      "midi": 43,
      "hit": false,
      "t": 110303.19116666676,
      "d": 2996.3203333333076,
      "v": 71
    },
    {
      "midi": 57,
      "hit": false,
      "t": 110588.11733333342,
      "d": 624.9993333333114,
      "v": 55
    },
    {
      "midi": 62,
      "hit": false,
      "t": 110716.79366666655,
      "d": 1773.895166666669,
      "v": 86
    },
    {
      "midi": 77,
      "hit": false,
      "t": 110882.23466666674,
      "d": 174.63216666666267,
      "v": 83
    },
    {
      "midi": 60,
      "hit": false,
      "t": 110882.23466666674,
      "d": 431.98483333332115,
      "v": 71
    },
    {
      "midi": 65,
      "hit": false,
      "t": 111167.1608333334,
      "d": 551.4700000000012,
      "v": 75
    },
    {
      "midi": 57,
      "hit": false,
      "t": 111470.4693333334,
      "d": 652.5728333333391,
      "v": 27
    },
    {
      "midi": 72,
      "hit": false,
      "t": 111479.66050000007,
      "d": 202.20566666666127,
      "v": 83
    },
    {
      "midi": 69,
      "hit": false,
      "t": 111773.7778333334,
      "d": 202.20566666667582,
      "v": 83
    },
    {
      "midi": 55,
      "hit": false,
      "t": 112058.70400000007,
      "d": 211.39683333333232,
      "v": 67
    },
    {
      "midi": 67,
      "hit": false,
      "t": 112067.89516666674,
      "d": 165.44099999999162,
      "v": 83
    },
    {
      "midi": 55,
      "hit": false,
      "t": 112352.8213333334,
      "d": 64.33816666666826,
      "v": 39
    },
    {
      "midi": 55,
      "hit": false,
      "t": 112637.74750000007,
      "d": 772.05799999999,
      "v": 75
    },
    {
      "midi": 64,
      "hit": false,
      "t": 112646.93866666655,
      "d": 229.77916666665988,
      "v": 93
    },
    {
      "midi": 64,
      "hit": false,
      "t": 112959.43833333321,
      "d": 229.77916666665988,
      "v": 90
    },
    {
      "midi": 65,
      "hit": false,
      "t": 113225.98216666654,
      "d": 238.97033333333093,
      "v": 90
    },
    {
      "midi": 65,
      "hit": false,
      "t": 113235.1733333334,
      "d": 284.9261666666571,
      "v": 71
    },
    {
      "midi": 64,
      "hit": false,
      "t": 113510.9083333332,
      "d": 257.35266666667303,
      "v": 95
    },
    {
      "midi": 67,
      "hit": false,
      "t": 113805.02566666654,
      "d": 340.07316666666884,
      "v": 93
    },
    {
      "midi": 64,
      "hit": false,
      "t": 113832.59916666673,
      "d": 569.8523333333287,
      "v": 71
    },
    {
      "midi": 52,
      "hit": false,
      "t": 113832.59916666673,
      "d": 2886.026333333357,
      "v": 75
    },
    {
      "midi": 59,
      "hit": false,
      "t": 113869.3638333334,
      "d": 349.26433333332534,
      "v": 75
    },
    {
      "midi": 62,
      "hit": false,
      "t": 113869.3638333334,
      "d": 496.3229999999894,
      "v": 75
    },
    {
      "midi": 67,
      "hit": false,
      "t": 113869.3638333334,
      "d": 579.0434999999998,
      "v": 75
    },
    {
      "midi": 67,
      "hit": false,
      "t": 114227.8193333332,
      "d": 1773.895166666669,
      "v": 93
    },
    {
      "midi": 55,
      "hit": false,
      "t": 114411.64266666672,
      "d": 395.2201666666806,
      "v": 51
    },
    {
      "midi": 59,
      "hit": false,
      "t": 114705.76000000007,
      "d": 1534.9248333333526,
      "v": 63
    },
    {
      "midi": 62,
      "hit": false,
      "t": 114999.87733333341,
      "d": 395.22016666666605,
      "v": 63
    },
    {
      "midi": 64,
      "hit": false,
      "t": 115293.99466666674,
      "d": 248.16150000000198,
      "v": 75
    },
    {
      "midi": 71,
      "hit": false,
      "t": 115597.30316666674,
      "d": 569.8523333333433,
      "v": 71
    },
    {
      "midi": 64,
      "hit": false,
      "t": 115882.22933333341,
      "d": 248.16150000000198,
      "v": 55
    },
    {
      "midi": 64,
      "hit": false,
      "t": 116093.62616666654,
      "d": 174.63216666666267,
      "v": 86
    },
    {
      "midi": 74,
      "hit": false,
      "t": 116176.34666666675,
      "d": 799.6314999999886,
      "v": 75
    },
    {
      "midi": 65,
      "hit": false,
      "t": 116295.8318333332,
      "d": 137.86749999999302,
      "v": 95
    },
    {
      "midi": 59,
      "hit": false,
      "t": 116470.46400000008,
      "d": 358.4554999999964,
      "v": 55
    },
    {
      "midi": 67,
      "hit": false,
      "t": 116525.61099999986,
      "d": 220.58800000000338,
      "v": 106
    },
    {
      "midi": 64,
      "hit": false,
      "t": 116764.58133333341,
      "d": 588.2346666666563,
      "v": 43
    },
    {
      "midi": 65,
      "hit": false,
      "t": 116792.15483333319,
      "d": 211.39683333333232,
      "v": 93
    },
    {
      "midi": 64,
      "hit": false,
      "t": 117049.50749999985,
      "d": 248.16150000000198,
      "v": 76
    },
    {
      "midi": 57,
      "hit": false,
      "t": 117058.69866666674,
      "d": 579.0434999999852,
      "v": 63
    },
    {
      "midi": 60,
      "hit": false,
      "t": 117343.62483333318,
      "d": 2288.6005000000005,
      "v": 86
    },
    {
      "midi": 72,
      "hit": false,
      "t": 117362.00716666674,
      "d": 284.9261666666571,
      "v": 75
    },
    {
      "midi": 64,
      "hit": false,
      "t": 117362.00716666674,
      "d": 395.2201666666515,
      "v": 39
    },
    {
      "midi": 45,
      "hit": false,
      "t": 117362.00716666674,
      "d": 1681.9834999999584,
      "v": 83
    },
    {
      "midi": 52,
      "hit": false,
      "t": 117646.93333333339,
      "d": 1351.1014999999752,
      "v": 59
    },
    {
      "midi": 57,
      "hit": false,
      "t": 117931.85950000005,
      "d": 1038.6018333333195,
      "v": 67
    },
    {
      "midi": 59,
      "hit": false,
      "t": 118235.16800000005,
      "d": 1470.5866666666552,
      "v": 75
    },
    {
      "midi": 60,
      "hit": false,
      "t": 118529.28533333338,
      "d": 1213.2339999999967,
      "v": 71
    },
    {
      "midi": 67,
      "hit": false,
      "t": 118823.4026666667,
      "d": 1029.410666666663,
      "v": 75
    },
    {
      "midi": 45,
      "hit": false,
      "t": 119117.52000000003,
      "d": 1056.9841666666762,
      "v": 71
    },
    {
      "midi": 52,
      "hit": false,
      "t": 119714.94583333338,
      "d": 652.5728333333536,
      "v": 67
    },
    {
      "midi": 57,
      "hit": false,
      "t": 119999.87200000003,
      "d": 211.39683333334688,
      "v": 59
    },
    {
      "midi": 65,
      "hit": false,
      "t": 120009.06316666651,
      "d": 211.39683333333232,
      "v": 102
    },
    {
      "midi": 59,
      "hit": false,
      "t": 120009.0631666667,
      "d": 211.39683333334688,
      "v": 39
    },
    {
      "midi": 60,
      "hit": false,
      "t": 120009.0631666667,
      "d": 321.69083333335584,
      "v": 63
    },
    {
      "midi": 67,
      "hit": false,
      "t": 120009.0631666667,
      "d": 422.79366666669375,
      "v": 63
    },
    {
      "midi": 67,
      "hit": false,
      "t": 120257.22466666652,
      "d": 266.54383333332953,
      "v": 90
    },
    {
      "midi": 45,
      "hit": false,
      "t": 120293.98933333339,
      "d": 358.45550000001094,
      "v": 51
    },
    {
      "midi": 65,
      "hit": false,
      "t": 120569.72433333317,
      "d": 266.54383333332953,
      "v": 98
    },
    {
      "midi": 53,
      "hit": false,
      "t": 120588.10666666673,
      "d": 1911.7626666666474,
      "v": 75
    },
    {
      "midi": 69,
      "hit": false,
      "t": 120863.8416666665,
      "d": 386.028999999995,
      "v": 102
    },
    {
      "midi": 41,
      "hit": false,
      "t": 120882.22400000007,
      "d": 1387.8661666666449,
      "v": 99
    },
    {
      "midi": 65,
      "hit": false,
      "t": 121176.3413333334,
      "d": 358.4554999999964,
      "v": 87
    },
    {
      "midi": 69,
      "hit": false,
      "t": 121314.20883333316,
      "d": 1819.850999999995,
      "v": 88
    },
    {
      "midi": 67,
      "hit": false,
      "t": 121470.45866666673,
      "d": 321.69083333332674,
      "v": 87
    },
    {
      "midi": 69,
      "hit": false,
      "t": 121764.57600000006,
      "d": 330.8819999999978,
      "v": 95
    },
    {
      "midi": 72,
      "hit": false,
      "t": 122058.69333333339,
      "d": 330.8819999999978,
      "v": 83
    },
    {
      "midi": 50,
      "hit": false,
      "t": 122362.00183333339,
      "d": 55.146999999997206,
      "v": 35
    },
    {
      "midi": 67,
      "hit": false,
      "t": 122362.00183333339,
      "d": 165.44099999999162,
      "v": 67
    },
    {
      "midi": 43,
      "hit": false,
      "t": 122646.92800000004,
      "d": 1167.2781666666706,
      "v": 79
    },
    {
      "midi": 50,
      "hit": false,
      "t": 122656.11916666671,
      "d": 1121.3223333333299,
      "v": 75
    },
    {
      "midi": 74,
      "hit": false,
      "t": 122656.11916666671,
      "d": 1231.6163333333388,
      "v": 83
    },
    {
      "midi": 67,
      "hit": false,
      "t": 122656.11916666671,
      "d": 1268.3810000000085,
      "v": 75
    },
    {
      "midi": 69,
      "hit": false,
      "t": 122656.11916666671,
      "d": 1314.3368333333347,
      "v": 79
    },
    {
      "midi": 71,
      "hit": false,
      "t": 122656.11916666671,
      "d": 1341.9103333333333,
      "v": 75
    },
    {
      "midi": 55,
      "hit": false,
      "t": 122656.11916666671,
      "d": 1351.1015000000043,
      "v": 71
    },
    {
      "midi": 71,
      "hit": false,
      "t": 123262.7361666665,
      "d": 220.58800000000338,
      "v": 110
    },
    {
      "midi": 71,
      "hit": false,
      "t": 123602.80933333316,
      "d": 238.97033333333093,
      "v": 110
    },
    {
      "midi": 72,
      "hit": false,
      "t": 123906.11783333316,
      "d": 202.20566666666127,
      "v": 102
    },
    {
      "midi": 74,
      "hit": false,
      "t": 124163.47049999982,
      "d": 257.35266666667303,
      "v": 106
    },
    {
      "midi": 67,
      "hit": false,
      "t": 124411.63200000006,
      "d": 284.92616666667163,
      "v": 71
    },
    {
      "midi": 72,
      "hit": false,
      "t": 124411.63200000006,
      "d": 330.88200000001234,
      "v": 75
    },
    {
      "midi": 48,
      "hit": false,
      "t": 124411.63200000006,
      "d": 1056.9841666666616,
      "v": 83
    },
    {
      "midi": 64,
      "hit": false,
      "t": 124420.82316666673,
      "d": 202.20566666666127,
      "v": 63
    },
    {
      "midi": 72,
      "hit": false,
      "t": 124466.77899999982,
      "d": 1810.6598333333386,
      "v": 114
    },
    {
      "midi": 55,
      "hit": false,
      "t": 124705.7493333334,
      "d": 698.5286666666507,
      "v": 71
    },
    {
      "midi": 60,
      "hit": false,
      "t": 125009.0578333334,
      "d": 312.4996666666557,
      "v": 71
    },
    {
      "midi": 74,
      "hit": false,
      "t": 125009.0578333334,
      "d": 395.2201666666515,
      "v": 71
    },
    {
      "midi": 76,
      "hit": false,
      "t": 125303.17516666673,
      "d": 101.10283333332336,
      "v": 71
    },
    {
      "midi": 79,
      "hit": false,
      "t": 125303.17516666673,
      "d": 542.2788333333301,
      "v": 75
    },
    {
      "midi": 76,
      "hit": false,
      "t": 125588.10133333338,
      "d": 220.58800000000338,
      "v": 63
    },
    {
      "midi": 72,
      "hit": false,
      "t": 125597.29250000005,
      "d": 128.67633333333652,
      "v": 67
    },
    {
      "midi": 48,
      "hit": false,
      "t": 125597.29250000005,
      "d": 238.97033333333093,
      "v": 71
    },
    {
      "midi": 79,
      "hit": false,
      "t": 125882.21866666673,
      "d": 174.63216666667722,
      "v": 83
    },
    {
      "midi": 55,
      "hit": false,
      "t": 125882.21866666673,
      "d": 1020.2195000000065,
      "v": 79
    },
    {
      "midi": 69,
      "hit": false,
      "t": 126176.33600000007,
      "d": 101.10283333333791,
      "v": 83
    },
    {
      "midi": 77,
      "hit": false,
      "t": 126176.33600000007,
      "d": 211.39683333333232,
      "v": 83
    },
    {
      "midi": 43,
      "hit": false,
      "t": 126176.33600000007,
      "d": 1461.3954999999987,
      "v": 71
    },
    {
      "midi": 69,
      "hit": false,
      "t": 126773.7618333334,
      "d": 137.86750000000757,
      "v": 83
    },
    {
      "midi": 72,
      "hit": false,
      "t": 126773.7618333334,
      "d": 238.97033333334548,
      "v": 79
    },
    {
      "midi": 65,
      "hit": false,
      "t": 127058.68800000007,
      "d": 248.16150000000198,
      "v": 75
    },
    {
      "midi": 55,
      "hit": false,
      "t": 127352.8053333334,
      "d": 27.573499999998603,
      "v": 15
    },
    {
      "midi": 55,
      "hit": false,
      "t": 127656.1138333334,
      "d": 137.86749999999302,
      "v": 63
    },
    {
      "midi": 64,
      "hit": false,
      "t": 127656.1138333334,
      "d": 137.86749999999302,
      "v": 71
    },
    {
      "midi": 62,
      "hit": false,
      "t": 127941.04000000005,
      "d": 321.6908333333413,
      "v": 83
    },
    {
      "midi": 64,
      "hit": false,
      "t": 127950.23116666672,
      "d": 312.49966666667024,
      "v": 75
    },
    {
      "midi": 67,
      "hit": false,
      "t": 127950.23116666672,
      "d": 349.2643333333399,
      "v": 83
    },
    {
      "midi": 55,
      "hit": false,
      "t": 127950.23116666672,
      "d": 395.22016666666605,
      "v": 67
    },
    {
      "midi": 48,
      "hit": false,
      "t": 127950.23116666672,
      "d": 2849.2616666666872,
      "v": 75
    },
    {
      "midi": 60,
      "hit": false,
      "t": 128520.08350000005,
      "d": 487.1318333333329,
      "v": 71
    },
    {
      "midi": 55,
      "hit": false,
      "t": 128529.27466666672,
      "d": 1056.9841666666762,
      "v": 55
    },
    {
      "midi": 79,
      "hit": false,
      "t": 128823.39200000005,
      "d": 2637.864833333355,
      "v": 75
    },
    {
      "midi": 74,
      "hit": false,
      "t": 128832.58316666672,
      "d": 422.79366666666465,
      "v": 75
    },
    {
      "midi": 76,
      "hit": false,
      "t": 129126.70050000005,
      "d": 680.1463333333522,
      "v": 51
    },
    {
      "midi": 72,
      "hit": false,
      "t": 129420.81783333339,
      "d": 579.0435000000143,
      "v": 71
    },
    {
      "midi": 55,
      "hit": false,
      "t": 129705.74400000006,
      "d": 137.86750000000757,
      "v": 39
    },
    {
      "midi": 60,
      "hit": false,
      "t": 129705.74400000006,
      "d": 211.39683333334688,
      "v": 75
    },
    {
      "midi": 55,
      "hit": false,
      "t": 130284.78750000008,
      "d": 661.7639999999956,
      "v": 75
    },
    {
      "midi": 67,
      "hit": false,
      "t": 130597.28716666675,
      "d": 496.3229999999894,
      "v": 51
    },
    {
      "midi": 72,
      "hit": false,
      "t": 130597.28716666675,
      "d": 615.8081666666403,
      "v": 63
    },
    {
      "midi": 48,
      "hit": false,
      "t": 130882.2133333334,
      "d": 284.92616666667163,
      "v": 79
    },
    {
      "midi": 57,
      "hit": false,
      "t": 131176.33066666673,
      "d": 431.98483333332115,
      "v": 71
    },
    {
      "midi": 45,
      "hit": false,
      "t": 131470.44800000006,
      "d": 284.92616666667163,
      "v": 87
    },
    {
      "midi": 57,
      "hit": false,
      "t": 131764.5653333334,
      "d": 101.10283333333791,
      "v": 75
    },
    {
      "midi": 64,
      "hit": false,
      "t": 132058.68266666672,
      "d": 698.5286666666507,
      "v": 71
    },
    {
      "midi": 74,
      "hit": false,
      "t": 132352.80000000005,
      "d": 367.64666666666744,
      "v": 75
    },
    {
      "midi": 57,
      "hit": false,
      "t": 132352.80000000005,
      "d": 468.74949999997625,
      "v": 75
    },
    {
      "midi": 79,
      "hit": false,
      "t": 132352.80000000005,
      "d": 2784.9235000000044,
      "v": 75
    },
    {
      "midi": 76,
      "hit": false,
      "t": 132646.91733333337,
      "d": 294.11733333332813,
      "v": 71
    },
    {
      "midi": 72,
      "hit": false,
      "t": 132941.0346666667,
      "d": 873.1608333333279,
      "v": 75
    },
    {
      "midi": 45,
      "hit": false,
      "t": 133235.15200000003,
      "d": 1249.998666666681,
      "v": 75
    },
    {
      "midi": 57,
      "hit": false,
      "t": 133814.19550000003,
      "d": 487.13183333334746,
      "v": 71
    },
    {
      "midi": 69,
      "hit": false,
      "t": 134117.50400000004,
      "d": 762.8668333333335,
      "v": 71
    },
    {
      "midi": 72,
      "hit": false,
      "t": 134117.50400000004,
      "d": 845.5873333333293,
      "v": 71
    },
    {
      "midi": 57,
      "hit": false,
      "t": 134411.62133333337,
      "d": 183.82333333333372,
      "v": 63
    },
    {
      "midi": 57,
      "hit": false,
      "t": 134714.9298333334,
      "d": 349.26433333332534,
      "v": 71
    },
    {
      "midi": 50,
      "hit": false,
      "t": 135009.0471666667,
      "d": 873.1608333333279,
      "v": 75
    },
    {
      "midi": 62,
      "hit": false,
      "t": 135018.23833333337,
      "d": 863.9696666666714,
      "v": 75
    },
    {
      "midi": 69,
      "hit": false,
      "t": 135018.23833333337,
      "d": 863.9696666666714,
      "v": 75
    },
    {
      "midi": 74,
      "hit": false,
      "t": 135018.23833333337,
      "d": 863.9696666666714,
      "v": 75
    },
    {
      "midi": 77,
      "hit": false,
      "t": 135018.23833333337,
      "d": 863.9696666666714,
      "v": 75
    },
    {
      "midi": 48,
      "hit": false,
      "t": 135891.3991666667,
      "d": 873.1608333333279,
      "v": 75
    },
    {
      "midi": 60,
      "hit": false,
      "t": 135891.3991666667,
      "d": 873.1608333333279,
      "v": 75
    },
    {
      "midi": 69,
      "hit": false,
      "t": 135891.3991666667,
      "d": 873.1608333333279,
      "v": 75
    },
    {
      "midi": 72,
      "hit": false,
      "t": 135891.3991666667,
      "d": 873.1608333333279,
      "v": 75
    },
    {
      "midi": 76,
      "hit": false,
      "t": 135891.3991666667,
      "d": 873.1608333333279,
      "v": 75
    },
    {
      "midi": 46,
      "hit": false,
      "t": 136773.75116666668,
      "d": 873.1608333333279,
      "v": 75
    },
    {
      "midi": 58,
      "hit": false,
      "t": 136773.75116666668,
      "d": 873.1608333333279,
      "v": 75
    },
    {
      "midi": 65,
      "hit": false,
      "t": 136773.75116666668,
      "d": 873.1608333333279,
      "v": 75
    },
    {
      "midi": 70,
      "hit": false,
      "t": 136782.94233333334,
      "d": 863.9696666666714,
      "v": 75
    },
    {
      "midi": 74,
      "hit": false,
      "t": 136782.94233333334,
      "d": 863.9696666666714,
      "v": 75
    },
    {
      "midi": 45,
      "hit": false,
      "t": 137656.10316666667,
      "d": 873.1608333333279,
      "v": 75
    },
    {
      "midi": 57,
      "hit": false,
      "t": 137656.10316666667,
      "d": 873.1608333333279,
      "v": 75
    },
    {
      "midi": 65,
      "hit": false,
      "t": 137656.10316666667,
      "d": 873.1608333333279,
      "v": 75
    },
    {
      "midi": 69,
      "hit": false,
      "t": 137656.10316666667,
      "d": 873.1608333333279,
      "v": 75
    },
    {
      "midi": 72,
      "hit": false,
      "t": 137656.10316666667,
      "d": 873.1608333333279,
      "v": 75
    },
    {
      "midi": 55,
      "hit": false,
      "t": 138538.45516666665,
      "d": 753.675666666677,
      "v": 75
    },
    {
      "midi": 67,
      "hit": false,
      "t": 138538.45516666665,
      "d": 863.9696666666714,
      "v": 75
    },
    {
      "midi": 69,
      "hit": false,
      "t": 139117.49866666665,
      "d": 431.98483333332115,
      "v": 75
    },
    {
      "midi": 72,
      "hit": false,
      "t": 139411.61599999998,
      "d": 358.45549999998184,
      "v": 75
    },
    {
      "midi": 62,
      "hit": false,
      "t": 139705.7333333333,
      "d": 64.3381666666537,
      "v": 35
    },
    {
      "midi": 69,
      "hit": false,
      "t": 139705.7333333333,
      "d": 257.3526666666439,
      "v": 63
    },
    {
      "midi": 79,
      "hit": false,
      "t": 139999.8506666666,
      "d": 983.4548333333805,
      "v": 75
    },
    {
      "midi": 55,
      "hit": false,
      "t": 139999.8506666666,
      "d": 1645.2188333334052,
      "v": 67
    },
    {
      "midi": 62,
      "hit": false,
      "t": 140284.77683333328,
      "d": 477.94066666669096,
      "v": 75
    },
    {
      "midi": 67,
      "hit": false,
      "t": 140588.0853333333,
      "d": 147.05866666667862,
      "v": 67
    },
    {
      "midi": 69,
      "hit": false,
      "t": 140882.20266666665,
      "d": 248.16150000001653,
      "v": 59
    },
    {
      "midi": 62,
      "hit": false,
      "t": 141176.32,
      "d": 542.2788333333447,
      "v": 75
    },
    {
      "midi": 67,
      "hit": false,
      "t": 141470.43733333334,
      "d": 257.35266666667303,
      "v": 75
    },
    {
      "midi": 72,
      "hit": false,
      "t": 141470.43733333334,
      "d": 284.92616666667163,
      "v": 67
    },
    {
      "midi": 69,
      "hit": false,
      "t": 141764.55466666666,
      "d": 36.7646666666551,
      "v": 15
    },
    {
      "midi": 55,
      "hit": false,
      "t": 141764.55466666666,
      "d": 73.5293333333102,
      "v": 75
    },
    {
      "midi": 71,
      "hit": false,
      "t": 142058.67199999996,
      "d": 762.8668333333335,
      "v": 75
    },
    {
      "midi": 79,
      "hit": false,
      "t": 142058.67199999996,
      "d": 1204.0428333333402,
      "v": 75
    },
    {
      "midi": 52,
      "hit": false,
      "t": 142058.67199999996,
      "d": 2821.6881666666013,
      "v": 83
    },
    {
      "midi": 74,
      "hit": false,
      "t": 142067.86316666662,
      "d": 542.2788333333447,
      "v": 71
    },
    {
      "midi": 59,
      "hit": false,
      "t": 142352.7893333333,
      "d": 772.0580000000191,
      "v": 63
    },
    {
      "midi": 64,
      "hit": false,
      "t": 142637.71549999996,
      "d": 404.41133333335165,
      "v": 63
    },
    {
      "midi": 67,
      "hit": false,
      "t": 142941.02399999998,
      "d": 542.2788333333156,
      "v": 75
    },
    {
      "midi": 74,
      "hit": false,
      "t": 143235.1413333333,
      "d": 367.64666666663834,
      "v": 75
    },
    {
      "midi": 79,
      "hit": false,
      "t": 143538.4498333333,
      "d": 1930.1449999999604,
      "v": 83
    },
    {
      "midi": 59,
      "hit": false,
      "t": 143823.37599999993,
      "d": 358.45549999998184,
      "v": 67
    },
    {
      "midi": 71,
      "hit": false,
      "t": 144117.49333333326,
      "d": 468.74949999997625,
      "v": 75
    },
    {
      "midi": 59,
      "hit": false,
      "t": 144402.4194999999,
      "d": 661.7639999999956,
      "v": 63
    },
    {
      "midi": 67,
      "hit": false,
      "t": 144411.61066666656,
      "d": 101.10283333333791,
      "v": 43
    },
    {
      "midi": 67,
      "hit": false,
      "t": 144714.91916666657,
      "d": 395.22016666666605,
      "v": 63
    },
    {
      "midi": 74,
      "hit": false,
      "t": 144714.91916666657,
      "d": 790.4403333333321,
      "v": 75
    },
    {
      "midi": 52,
      "hit": false,
      "t": 144999.84533333324,
      "d": 284.92616666667163,
      "v": 75
    },
    {
      "midi": 67,
      "hit": false,
      "t": 145293.96266666657,
      "d": 257.3526666666439,
      "v": 71
    },
    {
      "midi": 57,
      "hit": false,
      "t": 145293.96266666657,
      "d": 698.5286666666216,
      "v": 71
    },
    {
      "midi": 67,
      "hit": false,
      "t": 145588.07999999987,
      "d": 321.69083333332674,
      "v": 71
    },
    {
      "midi": 72,
      "hit": false,
      "t": 145588.07999999987,
      "d": 395.22016666666605,
      "v": 79
    },
    {
      "midi": 45,
      "hit": false,
      "t": 145597.27116666653,
      "d": 284.92616666667163,
      "v": 83
    },
    {
      "midi": 76,
      "hit": false,
      "t": 145597.27116666653,
      "d": 395.22016666666605,
      "v": 71
    },
    {
      "midi": 79,
      "hit": false,
      "t": 145597.27116666653,
      "d": 459.55833333331975,
      "v": 71
    },
    {
      "midi": 57,
      "hit": false,
      "t": 146176.31466666653,
      "d": 2454.041499999934,
      "v": 71
    },
    {
      "midi": 76,
      "hit": false,
      "t": 146470.43199999986,
      "d": 174.63216666664812,
      "v": 47
    },
    {
      "midi": 64,
      "hit": false,
      "t": 146479.6231666665,
      "d": 643.3816666666244,
      "v": 71
    },
    {
      "midi": 86,
      "hit": false,
      "t": 146764.54933333318,
      "d": 220.58799999998882,
      "v": 75
    },
    {
      "midi": 83,
      "hit": false,
      "t": 146764.54933333318,
      "d": 284.92616666664253,
      "v": 71
    },
    {
      "midi": 76,
      "hit": false,
      "t": 147058.66666666648,
      "d": 101.10283333330881,
      "v": 67
    },
    {
      "midi": 79,
      "hit": false,
      "t": 147352.78399999978,
      "d": 147.05866666667862,
      "v": 71
    },
    {
      "midi": 84,
      "hit": false,
      "t": 147352.78399999978,
      "d": 147.05866666667862,
      "v": 67
    },
    {
      "midi": 64,
      "hit": false,
      "t": 147646.90133333314,
      "d": 468.74950000000536,
      "v": 71
    },
    {
      "midi": 71,
      "hit": false,
      "t": 147941.01866666647,
      "d": 211.39683333333232,
      "v": 63
    },
    {
      "midi": 64,
      "hit": false,
      "t": 148235.1359999998,
      "d": 431.98483333332115,
      "v": 67
    },
    {
      "midi": 79,
      "hit": false,
      "t": 148529.25333333312,
      "d": 321.69083333332674,
      "v": 67
    },
    {
      "midi": 72,
      "hit": false,
      "t": 148529.25333333312,
      "d": 395.22016666666605,
      "v": 71
    },
    {
      "midi": 76,
      "hit": false,
      "t": 148832.5618333331,
      "d": 238.97033333333093,
      "v": 71
    },
    {
      "midi": 41,
      "hit": false,
      "t": 149126.67916666644,
      "d": 275.73500000001513,
      "v": 95
    },
    {
      "midi": 72,
      "hit": false,
      "t": 149126.67916666644,
      "d": 275.73500000001513,
      "v": 79
    },
    {
      "midi": 77,
      "hit": false,
      "t": 149126.67916666644,
      "d": 349.26433333332534,
      "v": 75
    },
    {
      "midi": 53,
      "hit": false,
      "t": 149411.6053333331,
      "d": 101.10283333330881,
      "v": 51
    },
    {
      "midi": 69,
      "hit": false,
      "t": 149411.6053333331,
      "d": 174.63216666664812,
      "v": 51
    },
    {
      "midi": 53,
      "hit": false,
      "t": 149705.72266666644,
      "d": 2527.5708333333023,
      "v": 75
    },
    {
      "midi": 60,
      "hit": false,
      "t": 149999.83999999976,
      "d": 64.3381666666537,
      "v": 35
    },
    {
      "midi": 67,
      "hit": false,
      "t": 149999.83999999976,
      "d": 174.63216666664812,
      "v": 71
    },
    {
      "midi": 72,
      "hit": false,
      "t": 149999.83999999976,
      "d": 174.63216666664812,
      "v": 71
    },
    {
      "midi": 60,
      "hit": false,
      "t": 150293.9573333331,
      "d": 431.98483333332115,
      "v": 71
    },
    {
      "midi": 79,
      "hit": false,
      "t": 150588.07466666642,
      "d": 294.11733333332813,
      "v": 71
    },
    {
      "midi": 77,
      "hit": false,
      "t": 150882.19199999975,
      "d": 248.16149999998743,
      "v": 71
    },
    {
      "midi": 72,
      "hit": false,
      "t": 151167.1181666664,
      "d": 193.01449999999022,
      "v": 71
    },
    {
      "midi": 60,
      "hit": false,
      "t": 151176.30933333305,
      "d": 248.16149999998743,
      "v": 67
    },
    {
      "midi": 69,
      "hit": false,
      "t": 151470.42666666638,
      "d": 147.05866666667862,
      "v": 71
    },
    {
      "midi": 60,
      "hit": false,
      "t": 151773.7351666664,
      "d": 386.02900000000955,
      "v": 75
    },
    {
      "midi": 67,
      "hit": false,
      "t": 152058.66133333306,
      "d": 174.63216666667722,
      "v": 47
    },
    {
      "midi": 69,
      "hit": false,
      "t": 152646.89599999975,
      "d": 330.88199999995413,
      "v": 71
    },
    {
      "midi": 67,
      "hit": false,
      "t": 152656.0871666664,
      "d": 91.91166666665231,
      "v": 47
    },
    {
      "midi": 55,
      "hit": false,
      "t": 152656.0871666664,
      "d": 202.20566666664672,
      "v": 83
    },
    {
      "midi": 72,
      "hit": false,
      "t": 152656.0871666664,
      "d": 321.69083333329763,
      "v": 75
    },
    {
      "midi": 77,
      "hit": false,
      "t": 152656.0871666664,
      "d": 349.26433333329624,
      "v": 75
    },
    {
      "midi": 55,
      "hit": false,
      "t": 152941.01333333305,
      "d": 101.10283333330881,
      "v": 63
    },
    {
      "midi": 67,
      "hit": false,
      "t": 152941.01333333305,
      "d": 101.10283333330881,
      "v": 43
    },
    {
      "midi": 55,
      "hit": false,
      "t": 153235.13066666634,
      "d": 468.74950000000536,
      "v": 83
    },
    {
      "midi": 69,
      "hit": false,
      "t": 153520.05683333302,
      "d": 882.3520000000135,
      "v": 87
    },
    {
      "midi": 72,
      "hit": false,
      "t": 154117.48266666636,
      "d": 294.11733333332813,
      "v": 79
    },
    {
      "midi": 71,
      "hit": false,
      "t": 154420.79116666634,
      "d": 1746.3216666666267,
      "v": 75
    },
    {
      "midi": 67,
      "hit": false,
      "t": 154981.45233333315,
      "d": 220.58799999998882,
      "v": 82
    },
    {
      "midi": 75,
      "hit": false,
      "t": 155284.760833333,
      "d": 45.9558333333116,
      "v": 99
    },
    {
      "midi": 74,
      "hit": false,
      "t": 155293.95199999967,
      "d": 36.7646666666551,
      "v": 63
    },
    {
      "midi": 79,
      "hit": false,
      "t": 155293.95199999967,
      "d": 845.5873333333002,
      "v": 75
    },
    {
      "midi": 67,
      "hit": false,
      "t": 155303.14316666647,
      "d": 229.77916666667443,
      "v": 114
    },
    {
      "midi": 76,
      "hit": false,
      "t": 155339.90783333298,
      "d": 165.44099999999162,
      "v": 79
    },
    {
      "midi": 67,
      "hit": false,
      "t": 155578.8781666665,
      "d": 220.58799999998882,
      "v": 90
    },
    {
      "midi": 74,
      "hit": false,
      "t": 155588.06933333297,
      "d": 211.39683333333232,
      "v": 91
    },
    {
      "midi": 72,
      "hit": false,
      "t": 155845.42199999964,
      "d": 294.11733333332813,
      "v": 91
    },
    {
      "midi": 67,
      "hit": false,
      "t": 155872.99549999982,
      "d": 220.58799999998882,
      "v": 102
    },
    {
      "midi": 53,
      "hit": false,
      "t": 155882.1866666663,
      "d": 579.0434999999998,
      "v": 87
    },
    {
      "midi": 69,
      "hit": false,
      "t": 156148.7304999998,
      "d": 395.22016666666605,
      "v": 102
    },
    {
      "midi": 41,
      "hit": false,
      "t": 156185.4951666663,
      "d": 202.20566666664672,
      "v": 95
    },
    {
      "midi": 69,
      "hit": false,
      "t": 156185.4951666663,
      "d": 716.9109999999928,
      "v": 71
    },
    {
      "midi": 72,
      "hit": false,
      "t": 156185.4951666663,
      "d": 716.9109999999928,
      "v": 75
    },
    {
      "midi": 77,
      "hit": false,
      "t": 156185.4951666663,
      "d": 716.9109999999928,
      "v": 75
    },
    {
      "midi": 69,
      "hit": false,
      "t": 156617.4799999998,
      "d": 1746.3216666666558,
      "v": 88
    },
    {
      "midi": 53,
      "hit": false,
      "t": 156764.5386666663,
      "d": 698.5286666666507,
      "v": 75
    },
    {
      "midi": 60,
      "hit": false,
      "t": 157067.8471666663,
      "d": 459.55833333331975,
      "v": 71
    },
    {
      "midi": 72,
      "hit": false,
      "t": 157352.77333333297,
      "d": 257.3526666666439,
      "v": 71
    },
    {
      "midi": 69,
      "hit": false,
      "t": 157361.96449999962,
      "d": 248.16149999998743,
      "v": 55
    },
    {
      "midi": 77,
      "hit": false,
      "t": 157361.96449999962,
      "d": 248.16149999998743,
      "v": 55
    },
    {
      "midi": 53,
      "hit": false,
      "t": 157637.6994999996,
      "d": 183.82333333333372,
      "v": 67
    },
    {
      "midi": 74,
      "hit": false,
      "t": 157941.00799999962,
      "d": 689.3374999999942,
      "v": 75
    },
    {
      "midi": 67,
      "hit": false,
      "t": 157941.00799999962,
      "d": 726.1021666666493,
      "v": 67
    },
    {
      "midi": 71,
      "hit": false,
      "t": 157941.00799999962,
      "d": 799.6314999999886,
      "v": 75
    },
    {
      "midi": 53,
      "hit": false,
      "t": 157941.00799999962,
      "d": 1424.630833333329,
      "v": 75
    },
    {
      "midi": 79,
      "hit": false,
      "t": 157950.19916666628,
      "d": 1341.9103333333333,
      "v": 71
    },
    {
      "midi": 59,
      "hit": false,
      "t": 158520.05149999962,
      "d": 928.3078333333251,
      "v": 75
    },
    {
      "midi": 69,
      "hit": false,
      "t": 158529.24266666645,
      "d": 202.20566666667582,
      "v": 102
    },
    {
      "midi": 62,
      "hit": false,
      "t": 158823.3599999996,
      "d": 624.9993333333405,
      "v": 75
    },
    {
      "midi": 69,
      "hit": false,
      "t": 158915.27166666646,
      "d": 266.54383333332953,
      "v": 93
    },
    {
      "midi": 67,
      "hit": false,
      "t": 159117.47733333294,
      "d": 505.51416666668956,
      "v": 71
    },
    {
      "midi": 67,
      "hit": false,
      "t": 159236.9624999998,
      "d": 193.01449999999022,
      "v": 98
    },
    {
      "midi": 74,
      "hit": false,
      "t": 159411.5946666663,
      "d": 248.16149999998743,
      "v": 75
    },
    {
      "midi": 65,
      "hit": false,
      "t": 159475.93283333312,
      "d": 147.05866666667862,
      "v": 95
    },
    {
      "midi": 67,
      "hit": false,
      "t": 159678.1384999998,
      "d": 367.64666666666744,
      "v": 106
    },
    {
      "midi": 74,
      "hit": false,
      "t": 159714.90316666628,
      "d": 496.32300000000396,
      "v": 71
    },
    {
      "midi": 67,
      "hit": false,
      "t": 159714.90316666628,
      "d": 606.6169999999984,
      "v": 71
    },
    {
      "midi": 52,
      "hit": false,
      "t": 159714.90316666628,
      "d": 1268.380999999994,
      "v": 95
    },
    {
      "midi": 79,
      "hit": false,
      "t": 159714.90316666628,
      "d": 2702.2029999999504,
      "v": 71
    },
    {
      "midi": 59,
      "hit": false,
      "t": 159999.82933333295,
      "d": 762.8668333333044,
      "v": 67
    },
    {
      "midi": 67,
      "hit": false,
      "t": 160119.3144999998,
      "d": 1819.850999999995,
      "v": 102
    },
    {
      "midi": 62,
      "hit": false,
      "t": 160293.94666666628,
      "d": 431.98483333332115,
      "v": 71
    },
    {
      "midi": 67,
      "hit": false,
      "t": 160588.0639999996,
      "d": 1351.1014999999607,
      "v": 75
    },
    {
      "midi": 59,
      "hit": false,
      "t": 160882.18133333293,
      "d": 211.39683333333232,
      "v": 63
    },
    {
      "midi": 71,
      "hit": false,
      "t": 160882.18133333293,
      "d": 358.45549999998184,
      "v": 71
    },
    {
      "midi": 52,
      "hit": false,
      "t": 161176.29866666626,
      "d": 137.86749999999302,
      "v": 71
    },
    {
      "midi": 74,
      "hit": false,
      "t": 161185.48983333292,
      "d": 321.69083333332674,
      "v": 75
    },
    {
      "midi": 57,
      "hit": false,
      "t": 161470.4159999996,
      "d": 36.7646666666551,
      "v": 15
    },
    {
      "midi": 72,
      "hit": false,
      "t": 161470.4159999996,
      "d": 799.6314999999886,
      "v": 79
    },
    {
      "midi": 45,
      "hit": false,
      "t": 161479.60716666625,
      "d": 248.16149999998743,
      "v": 87
    },
    {
      "midi": 57,
      "hit": false,
      "t": 161755.34216666623,
      "d": 110.29399999999441,
      "v": 51
    },
    {
      "midi": 67,
      "hit": false,
      "t": 162049.4594999998,
      "d": 165.44099999999162,
      "v": 93
    },
    {
      "midi": 57,
      "hit": false,
      "t": 162058.65066666625,
      "d": 762.8668333332753,
      "v": 75
    },
    {
      "midi": 67,
      "hit": false,
      "t": 162343.57683333312,
      "d": 238.97033333333093,
      "v": 110
    },
    {
      "midi": 60,
      "hit": false,
      "t": 162361.95916666623,
      "d": 386.02899999998044,
      "v": 67
    },
    {
      "midi": 67,
      "hit": false,
      "t": 162361.95916666623,
      "d": 569.8523333332851,
      "v": 75
    },
    {
      "midi": 65,
      "hit": false,
      "t": 162628.5029999998,
      "d": 266.54383333332953,
      "v": 93
    },
    {
      "midi": 72,
      "hit": false,
      "t": 162646.8853333329,
      "d": 514.7053333332587,
      "v": 71
    },
    {
      "midi": 64,
      "hit": false,
      "t": 162656.07649999956,
      "d": 101.10283333330881,
      "v": 71
    },
    {
      "midi": 64,
      "hit": false,
      "t": 162904.23799999978,
      "d": 284.92616666667163,
      "v": 90
    },
    {
      "midi": 79,
      "hit": false,
      "t": 162941.00266666617,
      "d": 137.86749999999302,
      "v": 71
    },
    {
      "midi": 65,
      "hit": false,
      "t": 163207.5464999998,
      "d": 376.83783333332394,
      "v": 102
    },
    {
      "midi": 69,
      "hit": false,
      "t": 163235.1199999995,
      "d": 468.74950000000536,
      "v": 71
    },
    {
      "midi": 50,
      "hit": false,
      "t": 163235.1199999995,
      "d": 1314.3368333333347,
      "v": 87
    },
    {
      "midi": 77,
      "hit": false,
      "t": 163244.31116666616,
      "d": 1562.4983333333512,
      "v": 75
    },
    {
      "midi": 57,
      "hit": false,
      "t": 163529.23733333283,
      "d": 762.8668333333335,
      "v": 63
    },
    {
      "midi": 65,
      "hit": false,
      "t": 163657.91366666646,
      "d": 1718.7481666666572,
      "v": 83
    },
    {
      "midi": 62,
      "hit": false,
      "t": 163823.3546666662,
      "d": 431.98483333332115,
      "v": 59
    },
    {
      "midi": 65,
      "hit": false,
      "t": 164117.4719999995,
      "d": 726.1021666666493,
      "v": 83
    },
    {
      "midi": 57,
      "hit": false,
      "t": 164402.39816666616,
      "d": 330.88200000001234,
      "v": 67
    },
    {
      "midi": 72,
      "hit": false,
      "t": 164705.70666666617,
      "d": 174.63216666664812,
      "v": 75
    },
    {
      "midi": 50,
      "hit": false,
      "t": 164705.70666666617,
      "d": 183.82333333330462,
      "v": 71
    },
    {
      "midi": 55,
      "hit": false,
      "t": 165009.01516666613,
      "d": 91.91166666665231,
      "v": 55
    },
    {
      "midi": 67,
      "hit": false,
      "t": 165009.01516666613,
      "d": 753.675666666677,
      "v": 71
    },
    {
      "midi": 71,
      "hit": false,
      "t": 165009.01516666613,
      "d": 753.675666666677,
      "v": 75
    },
    {
      "midi": 43,
      "hit": false,
      "t": 165045.77983333278,
      "d": 202.20566666667582,
      "v": 95
    },
    {
      "midi": 55,
      "hit": false,
      "t": 165293.9413333328,
      "d": 101.10283333333791,
      "v": 55
    },
    {
      "midi": 65,
      "hit": false,
      "t": 165523.7204999998,
      "d": 174.63216666667722,
      "v": 95
    },
    {
      "midi": 55,
      "hit": false,
      "t": 165588.05866666613,
      "d": 689.3375000000233,
      "v": 75
    },
    {
      "midi": 65,
      "hit": false,
      "t": 165872.98483333315,
      "d": 238.97033333333093,
      "v": 110
    },
    {
      "midi": 69,
      "hit": false,
      "t": 165882.17599999948,
      "d": 404.41133333332255,
      "v": 71
    },
    {
      "midi": 71,
      "hit": false,
      "t": 166167.10216666615,
      "d": 340.07316666663974,
      "v": 71
    },
    {
      "midi": 62,
      "hit": false,
      "t": 166176.2933333328,
      "d": 248.16149999998743,
      "v": 75
    },
    {
      "midi": 64,
      "hit": false,
      "t": 166185.48449999982,
      "d": 220.58799999998882,
      "v": 98
    },
    {
      "midi": 62,
      "hit": false,
      "t": 166461.2194999998,
      "d": 248.16149999998743,
      "v": 88
    },
    {
      "midi": 74,
      "hit": false,
      "t": 166479.6018333328,
      "d": 91.91166666665231,
      "v": 75
    },
    {
      "midi": 55,
      "hit": false,
      "t": 166479.6018333328,
      "d": 137.86749999999302,
      "v": 75
    },
    {
      "midi": 72,
      "hit": false,
      "t": 166764.52799999944,
      "d": 211.39683333333232,
      "v": 75
    },
    {
      "midi": 76,
      "hit": false,
      "t": 166764.52799999944,
      "d": 248.16149999998743,
      "v": 79
    },
    {
      "midi": 64,
      "hit": false,
      "t": 166792.1014999998,
      "d": 468.74950000000536,
      "v": 102
    },
    {
      "midi": 48,
      "hit": false,
      "t": 166801.2926666661,
      "d": 1240.8074999999371,
      "v": 75
    },
    {
      "midi": 60,
      "hit": false,
      "t": 167049.45416666608,
      "d": 36.7646666666551,
      "v": 59
    },
    {
      "midi": 74,
      "hit": false,
      "t": 167352.76266666607,
      "d": 395.22016666666605,
      "v": 75
    },
    {
      "midi": 77,
      "hit": false,
      "t": 167352.76266666607,
      "d": 505.51416666666046,
      "v": 75
    },
    {
      "midi": 65,
      "hit": false,
      "t": 167361.95383333313,
      "d": 477.94066666666185,
      "v": 102
    },
    {
      "midi": 60,
      "hit": false,
      "t": 167637.68883333274,
      "d": 340.07316666663974,
      "v": 75
    },
    {
      "midi": 76,
      "hit": false,
      "t": 167940.99733333272,
      "d": 174.63216666664812,
      "v": 75
    },
    {
      "midi": 79,
      "hit": false,
      "t": 167950.18849999938,
      "d": 174.63216666664812,
      "v": 71
    },
    {
      "midi": 67,
      "hit": false,
      "t": 167950.1884999998,
      "d": 1001.8371666666644,
      "v": 93
    },
    {
      "midi": 48,
      "hit": false,
      "t": 168244.3058333327,
      "d": 128.67633333333652,
      "v": 87
    },
    {
      "midi": 70,
      "hit": false,
      "t": 168529.23199999938,
      "d": 431.98483333335025,
      "v": 75
    },
    {
      "midi": 60,
      "hit": false,
      "t": 168538.42316666603,
      "d": 349.26433333335444,
      "v": 71
    },
    {
      "midi": 74,
      "hit": false,
      "t": 168538.42316666603,
      "d": 496.32300000003306,
      "v": 75
    },
    {
      "midi": 48,
      "hit": false,
      "t": 168538.42316666603,
      "d": 533.0876666666882,
      "v": 55
    },
    {
      "midi": 77,
      "hit": false,
      "t": 168538.42316666603,
      "d": 569.8523333333433,
      "v": 71
    },
    {
      "midi": 81,
      "hit": false,
      "t": 168538.42316666603,
      "d": 615.8081666666549,
      "v": 75
    },
    {
      "midi": 55,
      "hit": false,
      "t": 168814.15816666605,
      "d": 147.05866666667862,
      "v": 55
    },
    {
      "midi": 60,
      "hit": false,
      "t": 169117.46666666603,
      "d": 64.3381666666537,
      "v": 67
    },
    {
      "midi": 70,
      "hit": false,
      "t": 169117.46666666603,
      "d": 101.10283333330881,
      "v": 71
    },
    {
      "midi": 67,
      "hit": false,
      "t": 169145.04016666644,
      "d": 211.39683333333232,
      "v": 98
    },
    {
      "midi": 70,
      "hit": false,
      "t": 169420.77516666602,
      "d": 349.26433333332534,
      "v": 75
    },
    {
      "midi": 52,
      "hit": false,
      "t": 169420.77516666602,
      "d": 422.79366666666465,
      "v": 83
    },
    {
      "midi": 74,
      "hit": false,
      "t": 169420.77516666602,
      "d": 422.79366666666465,
      "v": 83
    },
    {
      "midi": 67,
      "hit": false,
      "t": 169439.15749999977,
      "d": 238.97033333333093,
      "v": 106
    },
    {
      "midi": 79,
      "hit": false,
      "t": 169448.34866666602,
      "d": 431.98483333332115,
      "v": 79
    },
    {
      "midi": 64,
      "hit": false,
      "t": 169705.7013333327,
      "d": 220.58799999998882,
      "v": 71
    },
    {
      "midi": 65,
      "hit": false,
      "t": 169733.2748333331,
      "d": 193.01449999999022,
      "v": 88
    },
    {
      "midi": 77,
      "hit": false,
      "t": 169999.81866666602,
      "d": 137.86749999999302,
      "v": 71
    },
    {
      "midi": 67,
      "hit": false,
      "t": 170009.00983333308,
      "d": 211.39683333333232,
      "v": 110
    },
    {
      "midi": 77,
      "hit": false,
      "t": 170293.93599999935,
      "d": 652.5728333333391,
      "v": 71
    },
    {
      "midi": 53,
      "hit": false,
      "t": 170293.93599999935,
      "d": 1240.8074999999953,
      "v": 87
    },
    {
      "midi": 69,
      "hit": false,
      "t": 170293.93599999975,
      "d": 312.49966666667024,
      "v": 110
    },
    {
      "midi": 81,
      "hit": false,
      "t": 170303.127166666,
      "d": 790.4403333333612,
      "v": 75
    },
    {
      "midi": 60,
      "hit": false,
      "t": 170597.24449999936,
      "d": 533.0876666666591,
      "v": 63
    },
    {
      "midi": 69,
      "hit": false,
      "t": 170689.15616666642,
      "d": 1783.08633333334,
      "v": 102
    },
    {
      "midi": 65,
      "hit": false,
      "t": 170882.17066666603,
      "d": 211.39683333333232,
      "v": 63
    },
    {
      "midi": 72,
      "hit": false,
      "t": 171176.28799999936,
      "d": 431.98483333332115,
      "v": 71
    },
    {
      "midi": 60,
      "hit": false,
      "t": 171470.4053333327,
      "d": 248.16149999998743,
      "v": 63
    },
    {
      "midi": 77,
      "hit": false,
      "t": 171470.4053333327,
      "d": 404.41133333329344,
      "v": 75
    },
    {
      "midi": 81,
      "hit": false,
      "t": 171755.33149999933,
      "d": 147.05866666664951,
      "v": 71
    },
    {
      "midi": 53,
      "hit": false,
      "t": 171764.522666666,
      "d": 101.10283333333791,
      "v": 75
    },
    {
      "midi": 59,
      "hit": false,
      "t": 171764.522666666,
      "d": 137.86749999999302,
      "v": 23
    },
    {
      "midi": 74,
      "hit": false,
      "t": 172067.83116666597,
      "d": 312.49966666667024,
      "v": 79
    },
    {
      "midi": 71,
      "hit": false,
      "t": 172067.83116666597,
      "d": 459.55833333334886,
      "v": 63
    },
    {
      "midi": 79,
      "hit": false,
      "t": 172067.83116666597,
      "d": 652.5728333333391,
      "v": 71
    },
    {
      "midi": 47,
      "hit": false,
      "t": 172067.83116666597,
      "d": 1204.0428333333111,
      "v": 83
    },
    {
      "midi": 59,
      "hit": false,
      "t": 172352.75733333264,
      "d": 248.16150000001653,
      "v": 59
    },
    {
      "midi": 59,
      "hit": false,
      "t": 172637.68349999932,
      "d": 404.41133333332255,
      "v": 63
    },
    {
      "midi": 69,
      "hit": false,
      "t": 172637.68349999975,
      "d": 110.29399999999441,
      "v": 88
    },
    {
      "midi": 71,
      "hit": false,
      "t": 172821.5068333331,
      "d": 137.86749999999302,
      "v": 114
    },
    {
      "midi": 67,
      "hit": false,
      "t": 172950.183166666,
      "d": 680.1463333332795,
      "v": 75
    },
    {
      "midi": 72,
      "hit": false,
      "t": 173032.90366666642,
      "d": 330.88200000001234,
      "v": 110
    },
    {
      "midi": 59,
      "hit": false,
      "t": 173235.10933333263,
      "d": 147.05866666664951,
      "v": 59
    },
    {
      "midi": 74,
      "hit": false,
      "t": 173235.10933333263,
      "d": 395.22016666663694,
      "v": 79
    },
    {
      "midi": 71,
      "hit": false,
      "t": 173437.31499999977,
      "d": 137.86749999999302,
      "v": 82
    },
    {
      "midi": 59,
      "hit": false,
      "t": 173520.03549999927,
      "d": 367.64666666663834,
      "v": 71
    },
    {
      "midi": 69,
      "hit": false,
      "t": 173611.94716666642,
      "d": 165.44099999999162,
      "v": 88
    },
    {
      "midi": 52,
      "hit": false,
      "t": 173823.34399999926,
      "d": 1176.4693333333416,
      "v": 87
    },
    {
      "midi": 67,
      "hit": false,
      "t": 173823.34399999926,
      "d": 2270.2181666666875,
      "v": 71
    },
    {
      "midi": 74,
      "hit": false,
      "t": 173832.5351666659,
      "d": 615.808166666684,
      "v": 75
    },
    {
      "midi": 71,
      "hit": false,
      "t": 173832.5351666659,
      "d": 1084.5576666666893,
      "v": 67
    },
    {
      "midi": 79,
      "hit": false,
      "t": 173832.5351666659,
      "d": 3327.202333333378,
      "v": 71
    },
    {
      "midi": 67,
      "hit": false,
      "t": 173832.5351666664,
      "d": 367.64666666666744,
      "v": 102
    },
    {
      "midi": 59,
      "hit": false,
      "t": 174117.46133333258,
      "d": 505.51416666668956,
      "v": 67
    },
    {
      "midi": 67,
      "hit": false,
      "t": 174292.09349999973,
      "d": 1709.5570000000007,
      "v": 80
    },
    {
      "midi": 62,
      "hit": false,
      "t": 174402.38749999925,
      "d": 257.35266666667303,
      "v": 63
    },
    {
      "midi": 59,
      "hit": false,
      "t": 174705.69599999927,
      "d": 358.45549999998184,
      "v": 75
    },
    {
      "midi": 52,
      "hit": false,
      "t": 175009.00449999925,
      "d": 202.20566666667582,
      "v": 51
    },
    {
      "midi": 74,
      "hit": false,
      "t": 175009.00449999925,
      "d": 533.0876666666591,
      "v": 55
    },
    {
      "midi": 71,
      "hit": false,
      "t": 175293.93066666592,
      "d": 137.86749999999302,
      "v": 71
    },
    {
      "midi": 57,
      "hit": false,
      "t": 175293.93066666592,
      "d": 248.16149999998743,
      "v": 39
    },
    {
      "midi": 45,
      "hit": false,
      "t": 175588.04799999925,
      "d": 248.16150000001653,
      "v": 83
    },
    {
      "midi": 72,
      "hit": false,
      "t": 175588.04799999925,
      "d": 946.6901666666963,
      "v": 75
    },
    {
      "midi": 57,
      "hit": false,
      "t": 175882.1653333326,
      "d": 101.10283333333791,
      "v": 55
    },
    {
      "midi": 67,
      "hit": false,
      "t": 176111.94449999972,
      "d": 174.63216666667722,
      "v": 88
    },
    {
      "midi": 64,
      "hit": false,
      "t": 176176.28266666594,
      "d": 799.6315000000177,
      "v": 71
    },
    {
      "midi": 67,
      "hit": false,
      "t": 176442.82649999973,
      "d": 294.11733333332813,
      "v": 102
    },
    {
      "midi": 67,
      "hit": false,
      "t": 176479.59116666595,
      "d": 358.45550000001094,
      "v": 75
    },
    {
      "midi": 65,
      "hit": false,
      "t": 176746.13499999972,
      "d": 238.97033333333093,
      "v": 65
    },
    {
      "midi": 71,
      "hit": false,
      "t": 176764.51733333262,
      "d": 220.58799999998882,
      "v": 75
    },
    {
      "midi": 64,
      "hit": false,
      "t": 177012.67883333305,
      "d": 202.20566666667582,
      "v": 82
    },
    {
      "midi": 72,
      "hit": false,
      "t": 177058.63466666595,
      "d": 211.39683333333232,
      "v": 63
    },
    {
      "midi": 65,
      "hit": false,
      "t": 177315.98733333306,
      "d": 303.30850000001374,
      "v": 106
    },
    {
      "midi": 72,
      "hit": false,
      "t": 177361.94316666594,
      "d": 680.1463333333377,
      "v": 75
    },
    {
      "midi": 77,
      "hit": false,
      "t": 177361.94316666594,
      "d": 753.675666666677,
      "v": 75
    },
    {
      "midi": 50,
      "hit": false,
      "t": 177361.94316666594,
      "d": 2849.261666666658,
      "v": 79
    },
    {
      "midi": 57,
      "hit": false,
      "t": 177646.8693333326,
      "d": 689.3375000000233,
      "v": 71
    },
    {
      "midi": 65,
      "hit": false,
      "t": 177784.73683333307,
      "d": 1470.5866666666698,
      "v": 106
    },
    {
      "midi": 69,
      "hit": false,
      "t": 177940.98666666594,
      "d": 174.63216666667722,
      "v": 51
    },
    {
      "midi": 62,
      "hit": false,
      "t": 177940.98666666594,
      "d": 404.41133333335165,
      "v": 71
    },
    {
      "midi": 76,
      "hit": false,
      "t": 178235.1039999993,
      "d": 431.98483333332115,
      "v": 79
    },
    {
      "midi": 69,
      "hit": false,
      "t": 178520.03016666597,
      "d": 220.58799999998882,
      "v": 39
    },
    {
      "midi": 62,
      "hit": false,
      "t": 178529.22133333262,
      "d": 211.39683333333232,
      "v": 63
    },
    {
      "midi": 57,
      "hit": false,
      "t": 178823.33866666595,
      "d": 358.45549999998184,
      "v": 67
    },
    {
      "midi": 72,
      "hit": false,
      "t": 179117.45599999928,
      "d": 873.1608333333279,
      "v": 75
    },
    {
      "midi": 57,
      "hit": false,
      "t": 179402.38216666592,
      "d": 404.41133333335165,
      "v": 51
    },
    {
      "midi": 65,
      "hit": false,
      "t": 179411.57333333307,
      "d": 174.63216666667722,
      "v": 95
    },
    {
      "midi": 65,
      "hit": false,
      "t": 179696.49949999974,
      "d": 174.63216666667722,
      "v": 90
    },
    {
      "midi": 62,
      "hit": false,
      "t": 179705.69066666593,
      "d": 248.16150000001653,
      "v": 67
    },
    {
      "midi": 69,
      "hit": false,
      "t": 179999.80799999926,
      "d": 762.8668333333335,
      "v": 79
    },
    {
      "midi": 65,
      "hit": false,
      "t": 179999.80799999976,
      "d": 238.97033333333093,
      "v": 93
    },
    {
      "midi": 50,
      "hit": false,
      "t": 180293.9253333326,
      "d": 257.35266666667303,
      "v": 75
    },
    {
      "midi": 64,
      "hit": false,
      "t": 180312.30766666643,
      "d": 220.58799999998882,
      "v": 82
    },
    {
      "midi": 55,
      "hit": false,
      "t": 180588.04266666592,
      "d": 1056.9841666666616,
      "v": 75
    },
    {
      "midi": 65,
      "hit": false,
      "t": 180588.0426666664,
      "d": 220.58799999998882,
      "v": 90
    },
    {
      "midi": 67,
      "hit": false,
      "t": 180854.58649999974,
      "d": 1801.468666666653,
      "v": 93
    },
    {
      "midi": 67,
      "hit": false,
      "t": 180882.15999999928,
      "d": 137.86749999999302,
      "v": 79
    },
    {
      "midi": 43,
      "hit": false,
      "t": 180882.15999999928,
      "d": 615.8081666666549,
      "v": 87
    },
    {
      "midi": 69,
      "hit": false,
      "t": 181176.2773333326,
      "d": 358.45549999998184,
      "v": 67
    },
    {
      "midi": 72,
      "hit": false,
      "t": 181470.39466666593,
      "d": 284.92616666664253,
      "v": 71
    },
    {
      "midi": 77,
      "hit": false,
      "t": 181764.51199999923,
      "d": 284.92616666667163,
      "v": 71
    },
    {
      "midi": 69,
      "hit": false,
      "t": 182058.62933333256,
      "d": 174.63216666667722,
      "v": 47
    },
    {
      "midi": 79,
      "hit": false,
      "t": 182352.74666666592,
      "d": 64.3381666666537,
      "v": 63
    },
    {
      "midi": 60,
      "hit": false,
      "t": 183244.28983333305,
      "d": 202.20566666667582,
      "v": 56
    },
    {
      "midi": 60,
      "hit": false,
      "t": 183556.78949999972,
      "d": 238.97033333333093,
      "v": 78
    },
    {
      "midi": 62,
      "hit": false,
      "t": 183841.7156666664,
      "d": 229.77916666667443,
      "v": 66
    },
    {
      "midi": 60,
      "hit": false,
      "t": 184126.64183333307,
      "d": 248.16149999998743,
      "v": 61
    },
    {
      "midi": 48,
      "hit": false,
      "t": 184411.5679999992,
      "d": 2601.1001666666125,
      "v": 79
    },
    {
      "midi": 64,
      "hit": false,
      "t": 184420.7591666664,
      "d": 128.67633333333652,
      "v": 46
    },
    {
      "midi": 62,
      "hit": false,
      "t": 184577.00899999973,
      "d": 137.86749999999302,
      "v": 68
    },
    {
      "midi": 55,
      "hit": false,
      "t": 184705.68533333254,
      "d": 1314.3368333332764,
      "v": 75
    },
    {
      "midi": 64,
      "hit": false,
      "t": 184714.87649999972,
      "d": 1553.3071666666656,
      "v": 59
    },
    {
      "midi": 60,
      "hit": false,
      "t": 184999.80266666587,
      "d": 64.3381666666537,
      "v": 75
    },
    {
      "midi": 62,
      "hit": false,
      "t": 185284.7288333325,
      "d": 367.64666666663834,
      "v": 75
    },
    {
      "midi": 67,
      "hit": false,
      "t": 185293.91999999917,
      "d": 2683.8206666666374,
      "v": 71
    },
    {
      "midi": 64,
      "hit": false,
      "t": 185588.0373333325,
      "d": 2454.041499999963,
      "v": 51
    },
    {
      "midi": 60,
      "hit": false,
      "t": 185882.15466666583,
      "d": 1130.513500000001,
      "v": 75
    },
    {
      "midi": 55,
      "hit": false,
      "t": 186176.27199999915,
      "d": 27.573499999998603,
      "v": 15
    },
    {
      "midi": 60,
      "hit": false,
      "t": 186571.4921666664,
      "d": 156.24983333333512,
      "v": 59
    },
    {
      "midi": 62,
      "hit": false,
      "t": 186764.5066666664,
      "d": 202.20566666667582,
      "v": 66
    },
    {
      "midi": 64,
      "hit": false,
      "t": 187021.85933333306,
      "d": 376.83783333332394,
      "v": 93
    },
    {
      "midi": 55,
      "hit": false,
      "t": 187058.62399999917,
      "d": 404.41133333332255,
      "v": 75
    },
    {
      "midi": 60,
      "hit": false,
      "t": 187352.7413333325,
      "d": 652.57283333331,
      "v": 39
    },
    {
      "midi": 62,
      "hit": false,
      "t": 187499.79999999973,
      "d": 193.01449999999022,
      "v": 52
    },
    {
      "midi": 52,
      "hit": false,
      "t": 187646.85866666582,
      "d": 330.88199999998324,
      "v": 51
    },
    {
      "midi": 60,
      "hit": false,
      "t": 187729.57916666637,
      "d": 211.39683333333232,
      "v": 82
    },
    {
      "midi": 45,
      "hit": false,
      "t": 187940.97599999915,
      "d": 3042.2761666666192,
      "v": 87
    },
    {
      "midi": 57,
      "hit": false,
      "t": 187986.93183333304,
      "d": 349.26433333332534,
      "v": 70
    },
    {
      "midi": 52,
      "hit": false,
      "t": 188235.09333333245,
      "d": 1764.704000000027,
      "v": 75
    },
    {
      "midi": 57,
      "hit": false,
      "t": 188418.91666666637,
      "d": 1783.08633333334,
      "v": 69
    },
    {
      "midi": 57,
      "hit": false,
      "t": 188520.01949999912,
      "d": 1066.1753333333472,
      "v": 71
    },
    {
      "midi": 62,
      "hit": false,
      "t": 188823.32799999914,
      "d": 395.22016666666605,
      "v": 75
    },
    {
      "midi": 67,
      "hit": false,
      "t": 188823.32799999914,
      "d": 2647.0559999999823,
      "v": 75
    },
    {
      "midi": 64,
      "hit": false,
      "t": 189117.44533333246,
      "d": 2352.938666666654,
      "v": 63
    },
    {
      "midi": 60,
      "hit": false,
      "t": 189411.5626666658,
      "d": 1902.571499999991,
      "v": 75
    },
    {
      "midi": 57,
      "hit": false,
      "t": 190588.03199999913,
      "d": 211.39683333333232,
      "v": 39
    },
    {
      "midi": 62,
      "hit": false,
      "t": 190606.41433333303,
      "d": 248.16149999998743,
      "v": 93
    },
    {
      "midi": 52,
      "hit": false,
      "t": 190882.14933333246,
      "d": 64.3381666666537,
      "v": 35
    },
    {
      "midi": 64,
      "hit": false,
      "t": 190891.34049999967,
      "d": 229.77916666667443,
      "v": 83
    },
    {
      "midi": 62,
      "hit": false,
      "t": 191157.884333333,
      "d": 257.35266666667303,
      "v": 80
    },
    {
      "midi": 65,
      "hit": false,
      "t": 191452.00166666633,
      "d": 137.86749999999302,
      "v": 80
    },
    {
      "midi": 50,
      "hit": false,
      "t": 191470.38399999912,
      "d": 1718.748166666628,
      "v": 87
    },
    {
      "midi": 64,
      "hit": false,
      "t": 191626.63383333298,
      "d": 128.67633333333652,
      "v": 74
    },
    {
      "midi": 57,
      "hit": false,
      "t": 191755.3101666658,
      "d": 367.64666666666744,
      "v": 71
    },
    {
      "midi": 65,
      "hit": false,
      "t": 191773.69249999966,
      "d": 1966.9096666666737,
      "v": 71
    },
    {
      "midi": 62,
      "hit": false,
      "t": 192058.6186666658,
      "d": 101.10283333330881,
      "v": 71
    },
    {
      "midi": 64,
      "hit": false,
      "t": 192352.7359999991,
      "d": 358.45549999998184,
      "v": 75
    },
    {
      "midi": 69,
      "hit": false,
      "t": 192352.7359999991,
      "d": 2454.041499999963,
      "v": 71
    },
    {
      "midi": 65,
      "hit": false,
      "t": 192646.85333333243,
      "d": 2196.68883333329,
      "v": 67
    },
    {
      "midi": 60,
      "hit": false,
      "t": 192940.97066666576,
      "d": 1829.0421666666516,
      "v": 75
    },
    {
      "midi": 65,
      "hit": false,
      "t": 193814.13149999967,
      "d": 174.63216666667722,
      "v": 74
    },
    {
      "midi": 57,
      "hit": false,
      "t": 194117.43999999907,
      "d": 542.2788333333447,
      "v": 75
    },
    {
      "midi": 65,
      "hit": false,
      "t": 194126.63116666634,
      "d": 220.58799999998882,
      "v": 102
    },
    {
      "midi": 64,
      "hit": false,
      "t": 194393.17499999967,
      "d": 229.77916666667443,
      "v": 78
    },
    {
      "midi": 50,
      "hit": false,
      "t": 194402.36616666574,
      "d": 110.29399999999441,
      "v": 35
    },
    {
      "midi": 60,
      "hit": false,
      "t": 194668.90999999968,
      "d": 284.92616666667163,
      "v": 71
    },
    {
      "midi": 50,
      "hit": false,
      "t": 194705.67466666576,
      "d": 248.16149999995832,
      "v": 71
    },
    {
      "midi": 62,
      "hit": false,
      "t": 194990.600833333,
      "d": 358.45550000001094,
      "v": 76
    },
    {
      "midi": 55,
      "hit": false,
      "t": 195008.9831666657,
      "d": 1608.4541666666337,
      "v": 83
    },
    {
      "midi": 43,
      "hit": false,
      "t": 195293.90933333235,
      "d": 2748.15883333332,
      "v": 83
    },
    {
      "midi": 62,
      "hit": false,
      "t": 195431.77683333302,
      "d": 1709.5570000000007,
      "v": 74
    },
    {
      "midi": 57,
      "hit": false,
      "t": 195588.02666666568,
      "d": 909.925499999983,
      "v": 71
    },
    {
      "midi": 60,
      "hit": false,
      "t": 195882.143999999,
      "d": 1718.7481666666572,
      "v": 75
    },
    {
      "midi": 65,
      "hit": false,
      "t": 196176.26133333234,
      "d": 1130.513500000001,
      "v": 75
    },
    {
      "midi": 67,
      "hit": false,
      "t": 196470.37866666567,
      "d": 1351.1014999999898,
      "v": 79
    },
    {
      "midi": 64,
      "hit": false,
      "t": 197361.921833333,
      "d": 128.67633333333652,
      "v": 83
    },
    {
      "midi": 55,
      "hit": false,
      "t": 197637.65683333232,
      "d": 597.4258333333419,
      "v": 75
    },
    {
      "midi": 64,
      "hit": false,
      "t": 197665.23033333302,
      "d": 248.16149999998743,
      "v": 98
    },
    {
      "midi": 65,
      "hit": false,
      "t": 197940.96533333234,
      "d": 542.2788333333156,
      "v": 75
    },
    {
      "midi": 65,
      "hit": false,
      "t": 197959.34766666635,
      "d": 183.82333333333372,
      "v": 93
    },
    {
      "midi": 64,
      "hit": false,
      "t": 198216.70033333302,
      "d": 266.54383333332953,
      "v": 83
    },
    {
      "midi": 67,
      "hit": false,
      "t": 198510.81766666635,
      "d": 312.49966666667024,
      "v": 78
    },
    {
      "midi": 67,
      "hit": false,
      "t": 198529.19999999896,
      "d": 395.22016666666605,
      "v": 75
    },
    {
      "midi": 52,
      "hit": false,
      "t": 198529.19999999896,
      "d": 3152.5701666666428,
      "v": 83
    },
    {
      "midi": 64,
      "hit": false,
      "t": 198538.39116666562,
      "d": 312.49966666667024,
      "v": 71
    },
    {
      "midi": 59,
      "hit": false,
      "t": 198823.3173333323,
      "d": 799.6314999999886,
      "v": 63
    },
    {
      "midi": 67,
      "hit": false,
      "t": 198924.42016666636,
      "d": 1571.6895000000077,
      "v": 69
    },
    {
      "midi": 62,
      "hit": false,
      "t": 199117.43466666562,
      "d": 431.98483333332115,
      "v": 67
    },
    {
      "midi": 64,
      "hit": false,
      "t": 199411.55199999895,
      "d": 358.45549999998184,
      "v": 71
    },
    {
      "midi": 71,
      "hit": false,
      "t": 199705.66933333228,
      "d": 358.45549999998184,
      "v": 71
    },
    {
      "midi": 74,
      "hit": false,
      "t": 199999.7866666656,
      "d": 1608.4541666666628,
      "v": 79
    },
    {
      "midi": 59,
      "hit": false,
      "t": 200293.90399999893,
      "d": 441.17600000000675,
      "v": 63
    },
    {
      "midi": 64,
      "hit": false,
      "t": 200560.44783333302,
      "d": 257.35266666667303,
      "v": 71
    },
    {
      "midi": 64,
      "hit": false,
      "t": 200588.02133333226,
      "d": 919.1166666666686,
      "v": 51
    },
    {
      "midi": 65,
      "hit": false,
      "t": 200863.75633333303,
      "d": 238.97033333333093,
      "v": 98
    },
    {
      "midi": 59,
      "hit": false,
      "t": 200882.13866666562,
      "d": 624.9993333333114,
      "v": 63
    },
    {
      "midi": 67,
      "hit": false,
      "t": 201167.06483333302,
      "d": 294.11733333332813,
      "v": 98
    },
    {
      "midi": 67,
      "hit": false,
      "t": 201176.25599999895,
      "d": 431.98483333332115,
      "v": 63
    },
    {
      "midi": 71,
      "hit": false,
      "t": 201470.37333333227,
      "d": 321.69083333332674,
      "v": 63
    },
    {
      "midi": 65,
      "hit": false,
      "t": 201470.373333333,
      "d": 229.77916666667443,
      "v": 93
    },
    {
      "midi": 64,
      "hit": false,
      "t": 201755.29949999967,
      "d": 248.16149999998743,
      "v": 90
    },
    {
      "midi": 64,
      "hit": false,
      "t": 201773.68183333226,
      "d": 128.67633333333652,
      "v": 51
    },
    {
      "midi": 57,
      "hit": false,
      "t": 201773.68183333226,
      "d": 459.55833333331975,
      "v": 75
    },
    {
      "midi": 60,
      "hit": false,
      "t": 202058.60799999966,
      "d": 2095.5860000000102,
      "v": 86
    },
    {
      "midi": 64,
      "hit": false,
      "t": 202067.7991666656,
      "d": 312.49966666664113,
      "v": 55
    },
    {
      "midi": 72,
      "hit": false,
      "t": 202067.7991666656,
      "d": 459.55833333331975,
      "v": 71
    },
    {
      "midi": 45,
      "hit": false,
      "t": 202067.7991666656,
      "d": 1930.1449999999313,
      "v": 79
    },
    {
      "midi": 52,
      "hit": false,
      "t": 202352.72533333223,
      "d": 477.94066666666185,
      "v": 63
    },
    {
      "midi": 57,
      "hit": false,
      "t": 202637.6514999989,
      "d": 257.3526666666439,
      "v": 71
    },
    {
      "midi": 52,
      "hit": false,
      "t": 202931.7688333322,
      "d": 330.88200000001234,
      "v": 63
    },
    {
      "midi": 72,
      "hit": false,
      "t": 203244.26849999887,
      "d": 165.44100000002072,
      "v": 71
    },
    {
      "midi": 71,
      "hit": false,
      "t": 203244.26849999887,
      "d": 202.20566666667582,
      "v": 63
    },
    {
      "midi": 76,
      "hit": false,
      "t": 203244.26849999887,
      "d": 202.20566666667582,
      "v": 75
    },
    {
      "midi": 52,
      "hit": false,
      "t": 203529.19466666554,
      "d": 579.0434999999707,
      "v": 67
    },
    {
      "midi": 71,
      "hit": false,
      "t": 203823.31199999887,
      "d": 36.7646666666551,
      "v": 35
    },
    {
      "midi": 67,
      "hit": false,
      "t": 203823.31199999887,
      "d": 137.86749999999302,
      "v": 67
    },
    {
      "midi": 45,
      "hit": false,
      "t": 204117.42933333217,
      "d": 652.5728333333391,
      "v": 15
    },
    {
      "midi": 65,
      "hit": false,
      "t": 204393.164333333,
      "d": 174.63216666667722,
      "v": 64
    },
    {
      "midi": 52,
      "hit": false,
      "t": 204402.35549999884,
      "d": 735.2933333333058,
      "v": 71
    },
    {
      "midi": 65,
      "hit": false,
      "t": 204696.472833333,
      "d": 202.20566666667582,
      "v": 90
    },
    {
      "midi": 60,
      "hit": false,
      "t": 204705.66399999885,
      "d": 101.10283333330881,
      "v": 59
    },
    {
      "midi": 67,
      "hit": false,
      "t": 204963.01666666634,
      "d": 229.77916666667443,
      "v": 76
    },
    {
      "midi": 45,
      "hit": false,
      "t": 204999.78133333215,
      "d": 257.35266666667303,
      "v": 55
    },
    {
      "midi": 65,
      "hit": false,
      "t": 205266.32516666636,
      "d": 248.16149999998743,
      "v": 69
    },
    {
      "midi": 60,
      "hit": false,
      "t": 205293.89866666548,
      "d": 284.92616666667163,
      "v": 59
    },
    {
      "midi": 69,
      "hit": false,
      "t": 205588.01599999968,
      "d": 101.10283333333791,
      "v": 80
    },
    {
      "midi": 53,
      "hit": false,
      "t": 205597.20716666547,
      "d": 275.73499999998603,
      "v": 67
    },
    {
      "midi": 67,
      "hit": false,
      "t": 205735.07466666636,
      "d": 82.72049999999581,
      "v": 95
    },
    {
      "midi": 69,
      "hit": false,
      "t": 205845.36866666636,
      "d": 1645.218833333347,
      "v": 102
    },
    {
      "midi": 69,
      "hit": false,
      "t": 205882.1333333321,
      "d": 284.92616666667163,
      "v": 67
    },
    {
      "midi": 65,
      "hit": false,
      "t": 205882.1333333321,
      "d": 294.11733333332813,
      "v": 67
    },
    {
      "midi": 67,
      "hit": false,
      "t": 206185.4418333321,
      "d": 284.92616666667163,
      "v": 67
    },
    {
      "midi": 71,
      "hit": false,
      "t": 206185.4418333321,
      "d": 284.92616666667163,
      "v": 67
    },
    {
      "midi": 69,
      "hit": false,
      "t": 206479.55916666542,
      "d": 275.73499999998603,
      "v": 67
    },
    {
      "midi": 72,
      "hit": false,
      "t": 206479.55916666542,
      "d": 275.73499999998603,
      "v": 67
    },
    {
      "midi": 71,
      "hit": false,
      "t": 206773.67649999875,
      "d": 275.73499999998603,
      "v": 67
    },
    {
      "midi": 74,
      "hit": false,
      "t": 206773.67649999875,
      "d": 284.92616666664253,
      "v": 67
    },
    {
      "midi": 72,
      "hit": false,
      "t": 207058.6026666654,
      "d": 294.11733333332813,
      "v": 67
    },
    {
      "midi": 76,
      "hit": false,
      "t": 207067.79383333205,
      "d": 284.92616666667163,
      "v": 67
    },
    {
      "midi": 55,
      "hit": false,
      "t": 207361.91116666538,
      "d": 1351.1014999999898,
      "v": 67
    },
    {
      "midi": 77,
      "hit": false,
      "t": 207361.91116666538,
      "d": 1415.4396666666435,
      "v": 71
    },
    {
      "midi": 69,
      "hit": false,
      "t": 207361.91116666538,
      "d": 1452.2043333332986,
      "v": 63
    },
    {
      "midi": 43,
      "hit": false,
      "t": 207398.67583333203,
      "d": 1121.3223333333444,
      "v": 95
    },
    {
      "midi": 72,
      "hit": false,
      "t": 207398.67583333203,
      "d": 1341.9103333333333,
      "v": 75
    },
    {
      "midi": 79,
      "hit": false,
      "t": 207398.67583333203,
      "d": 1424.6308333333,
      "v": 71
    },
    {
      "midi": 71,
      "hit": false,
      "t": 207986.9104999997,
      "d": 220.58799999998882,
      "v": 106
    },
    {
      "midi": 71,
      "hit": false,
      "t": 208317.7924999997,
      "d": 238.97033333333093,
      "v": 102
    },
    {
      "midi": 72,
      "hit": false,
      "t": 208602.71866666636,
      "d": 174.63216666667722,
      "v": 106
    },
    {
      "midi": 74,
      "hit": false,
      "t": 208850.88016666638,
      "d": 211.39683333333232,
      "v": 110
    },
    {
      "midi": 72,
      "hit": false,
      "t": 209108.23283333305,
      "d": 3566.17266666668,
      "v": 110
    },
    {
      "midi": 48,
      "hit": false,
      "t": 209117.42399999866,
      "d": 3042.27616666659,
      "v": 95
    },
    {
      "midi": 55,
      "hit": false,
      "t": 209411.541333332,
      "d": 2821.6881666666013,
      "v": 75
    },
    {
      "midi": 60,
      "hit": false,
      "t": 209705.65866666532,
      "d": 2564.3354999999283,
      "v": 83
    },
    {
      "midi": 86,
      "hit": false,
      "t": 209999.77599999864,
      "d": 294.11733333329903,
      "v": 83
    },
    {
      "midi": 74,
      "hit": false,
      "t": 209999.77599999864,
      "d": 395.22016666660784,
      "v": 95
    },
    {
      "midi": 79,
      "hit": false,
      "t": 209999.77599999864,
      "d": 2821.6881666666013,
      "v": 83
    },
    {
      "midi": 91,
      "hit": false,
      "t": 210036.5406666653,
      "d": 248.16149999998743,
      "v": 83
    },
    {
      "midi": 88,
      "hit": false,
      "t": 210303.0844999986,
      "d": 202.20566666664672,
      "v": 83
    },
    {
      "midi": 76,
      "hit": false,
      "t": 210303.0844999986,
      "d": 349.26433333329624,
      "v": 55
    },
    {
      "midi": 72,
      "hit": false,
      "t": 210588.01066666524,
      "d": 2196.688833333348,
      "v": 87
    },
    {
      "midi": 84,
      "hit": false,
      "t": 210597.2018333319,
      "d": 128.67633333333652,
      "v": 83
    },
    {
      "midi": 45,
      "hit": false,
      "t": 212656.02316666525,
      "d": 1204.0428333333111,
      "v": 87
    },
    {
      "midi": 52,
      "hit": false,
      "t": 212940.94933333193,
      "d": 919.1166666666395,
      "v": 75
    },
    {
      "midi": 57,
      "hit": false,
      "t": 213235.06666666525,
      "d": 762.8668333333044,
      "v": 75
    },
    {
      "midi": 74,
      "hit": false,
      "t": 213529.18399999858,
      "d": 358.45549999998184,
      "v": 95
    },
    {
      "midi": 79,
      "hit": false,
      "t": 213529.18399999858,
      "d": 2637.8648333332676,
      "v": 83
    },
    {
      "midi": 86,
      "hit": false,
      "t": 213538.37516666524,
      "d": 238.97033333333093,
      "v": 83
    },
    {
      "midi": 91,
      "hit": false,
      "t": 213538.37516666524,
      "d": 238.97033333333093,
      "v": 83
    },
    {
      "midi": 88,
      "hit": false,
      "t": 213823.3013333319,
      "d": 183.82333333330462,
      "v": 83
    },
    {
      "midi": 76,
      "hit": false,
      "t": 213823.3013333319,
      "d": 294.11733333329903,
      "v": 71
    },
    {
      "midi": 84,
      "hit": false,
      "t": 214126.60983333187,
      "d": 91.91166666665231,
      "v": 83
    },
    {
      "midi": 72,
      "hit": false,
      "t": 214126.60983333187,
      "d": 2049.6301666666404,
      "v": 95
    },
    {
      "midi": 53,
      "hit": false,
      "t": 216176.2399999985,
      "d": 3042.276166666561,
      "v": 95
    },
    {
      "midi": 60,
      "hit": false,
      "t": 216470.3573333318,
      "d": 2858.4528333332564,
      "v": 75
    },
    {
      "midi": 65,
      "hit": false,
      "t": 216764.47466666513,
      "d": 2527.570833333273,
      "v": 83
    },
    {
      "midi": 74,
      "hit": false,
      "t": 217058.59199999846,
      "d": 395.22016666663694,
      "v": 95
    },
    {
      "midi": 79,
      "hit": false,
      "t": 217058.59199999846,
      "d": 2821.688166666572,
      "v": 83
    },
    {
      "midi": 93,
      "hit": false,
      "t": 217067.78316666512,
      "d": 312.49966666667024,
      "v": 83
    },
    {
      "midi": 86,
      "hit": false,
      "t": 217067.78316666512,
      "d": 349.26433333332534,
      "v": 83
    },
    {
      "midi": 88,
      "hit": false,
      "t": 217352.7093333318,
      "d": 211.39683333330322,
      "v": 83
    },
    {
      "midi": 76,
      "hit": false,
      "t": 217352.7093333318,
      "d": 367.64666666660924,
      "v": 55
    },
    {
      "midi": 72,
      "hit": false,
      "t": 217646.8266666651,
      "d": 2196.68883333329,
      "v": 87
    },
    {
      "midi": 84,
      "hit": false,
      "t": 217656.01783333175,
      "d": 128.6763333333074,
      "v": 83
    },
    {
      "midi": 56,
      "hit": false,
      "t": 219705.6479999984,
      "d": 799.6314999999886,
      "v": 75
    },
    {
      "midi": 60,
      "hit": false,
      "t": 219705.6479999984,
      "d": 799.6314999999886,
      "v": 71
    },
    {
      "midi": 96,
      "hit": false,
      "t": 219714.83916666504,
      "d": 137.86749999999302,
      "v": 83
    },
    {
      "midi": 77,
      "hit": false,
      "t": 219714.83916666504,
      "d": 284.92616666667163,
      "v": 79
    },
    {
      "midi": 49,
      "hit": false,
      "t": 219714.83916666504,
      "d": 3069.849666666647,
      "v": 75
    },
    {
      "midi": 72,
      "hit": false,
      "t": 219999.7653333317,
      "d": 248.16149999998743,
      "v": 59
    },
    {
      "midi": 84,
      "hit": false,
      "t": 220293.88266666504,
      "d": 137.86749999999302,
      "v": 75
    },
    {
      "midi": 89,
      "hit": false,
      "t": 220293.88266666504,
      "d": 183.82333333333372,
      "v": 83
    },
    {
      "midi": 56,
      "hit": false,
      "t": 220587.99999999837,
      "d": 1139.7046666666865,
      "v": 27
    },
    {
      "midi": 60,
      "hit": false,
      "t": 220587.99999999837,
      "d": 1249.998666666681,
      "v": 63
    },
    {
      "midi": 84,
      "hit": false,
      "t": 220882.1173333317,
      "d": 211.39683333333232,
      "v": 83
    },
    {
      "midi": 77,
      "hit": false,
      "t": 220882.1173333317,
      "d": 321.69083333332674,
      "v": 75
    },
    {
      "midi": 65,
      "hit": false,
      "t": 221176.23466666503,
      "d": 174.63216666667722,
      "v": 75
    },
    {
      "midi": 72,
      "hit": false,
      "t": 221470.35199999838,
      "d": 211.39683333333232,
      "v": 87
    },
    {
      "midi": 77,
      "hit": false,
      "t": 221479.54316666504,
      "d": 312.49966666667024,
      "v": 83
    },
    {
      "midi": 65,
      "hit": false,
      "t": 221755.27816666506,
      "d": 82.72049999999581,
      "v": 43
    },
    {
      "midi": 65,
      "hit": false,
      "t": 222049.39549999838,
      "d": 303.30849999998463,
      "v": 79
    },
    {
      "midi": 72,
      "hit": false,
      "t": 222058.58666666504,
      "d": 294.11733333332813,
      "v": 83
    },
    {
      "midi": 56,
      "hit": false,
      "t": 222361.89516666502,
      "d": 459.55833333331975,
      "v": 67
    },
    {
      "midi": 60,
      "hit": false,
      "t": 222646.8213333317,
      "d": 183.82333333330462,
      "v": 83
    },
    {
      "midi": 49,
      "hit": false,
      "t": 222931.74749999834,
      "d": 183.82333333333372,
      "v": 75
    },
    {
      "midi": 74,
      "hit": false,
      "t": 223235.05599999835,
      "d": 64.3381666666537,
      "v": 83
    },
    {
      "midi": 76,
      "hit": false,
      "t": 223235.05599999835,
      "d": 64.3381666666537,
      "v": 83
    },
    {
      "midi": 79,
      "hit": false,
      "t": 223235.05599999835,
      "d": 137.86749999999302,
      "v": 83
    },
    {
      "midi": 48,
      "hit": false,
      "t": 223244.247166665,
      "d": 422.79366666666465,
      "v": 71
    },
    {
      "midi": 62,
      "hit": false,
      "t": 223244.247166665,
      "d": 431.98483333332115,
      "v": 75
    },
    {
      "midi": 64,
      "hit": false,
      "t": 223244.247166665,
      "d": 431.98483333332115,
      "v": 79
    },
    {
      "midi": 67,
      "hit": false,
      "t": 223244.247166665,
      "d": 431.98483333332115,
      "v": 87
    },
    {
      "midi": 55,
      "hit": false,
      "t": 223244.247166665,
      "d": 459.55833333331975,
      "v": 83
    }
  ]
}