{
  "jsonPath": "Pop/Europop/Secret Service/flash-in-the-night.json",
  "path": "Pop\\Europop\\Secret Service\\Flash In The Night.mid",
  "name": "Flash In The Night",
  "difficulty": "Advanced",
  "bpm": 128,
  "notes": [
    {
      "midi": 68,
      "hit": false,
      "t": 6562.5,
      "d": 261.23046875,
      "v": 110
    },
    {
      "midi": 80,
      "hit": false,
      "t": 6567.3828125,
      "d": 239.2578125,
      "v": 127
    },
    {
      "midi": 76,
      "hit": false,
      "t": 6567.3828125,
      "d": 395.5078125,
      "v": 127
    },
    {
      "midi": 59,
      "hit": false,
      "t": 6567.3828125,
      "d": 405.2734375,
      "v": 127
    },
    {
      "midi": 68,
      "hit": false,
      "t": 6569.82421875,
      "d": 239.2578125,
      "v": 127
    },
    {
      "midi": 64,
      "hit": false,
      "t": 6569.82421875,
      "d": 395.5078125,
      "v": 127
    },
    {
      "midi": 81,
      "hit": false,
      "t": 6794.43359375,
      "d": 122.0703125,
      "v": 127
    },
    {
      "midi": 69,
      "hit": false,
      "t": 6796.875,
      "d": 200.1953125,
      "v": 119
    },
    {
      "midi": 69,
      "hit": false,
      "t": 6796.875,
      "d": 122.0703125,
      "v": 127
    },
    {
      "midi": 83,
      "hit": false,
      "t": 7028.80859375,
      "d": 80.56640625,
      "v": 127
    },
    {
      "midi": 71,
      "hit": false,
      "t": 7031.25,
      "d": 139.16015625,
      "v": 113
    },
    {
      "midi": 71,
      "hit": false,
      "t": 7031.25,
      "d": 80.56640625,
      "v": 127
    },
    {
      "midi": 59,
      "hit": false,
      "t": 7045.8984375,
      "d": 68.359375,
      "v": 127
    },
    {
      "midi": 76,
      "hit": false,
      "t": 7045.8984375,
      "d": 68.359375,
      "v": 127
    },
    {
      "midi": 64,
      "hit": false,
      "t": 7048.33984375,
      "d": 68.359375,
      "v": 127
    },
    {
      "midi": 71,
      "hit": false,
      "t": 7265.625,
      "d": 231.93359375,
      "v": 127
    },
    {
      "midi": 76,
      "hit": false,
      "t": 7280.2734375,
      "d": 976.5625,
      "v": 127
    },
    {
      "midi": 59,
      "hit": false,
      "t": 7280.2734375,
      "d": 986.328125,
      "v": 127
    },
    {
      "midi": 83,
      "hit": false,
      "t": 7282.71484375,
      "d": 964.35546875,
      "v": 127
    },
    {
      "midi": 64,
      "hit": false,
      "t": 7282.71484375,
      "d": 976.5625,
      "v": 127
    },
    {
      "midi": 71,
      "hit": false,
      "t": 7285.15625,
      "d": 964.35546875,
      "v": 127
    },
    {
      "midi": 28,
      "hit": false,
      "t": 7500,
      "d": 234.375,
      "v": 127
    },
    {
      "midi": 59,
      "hit": false,
      "t": 7500,
      "d": 1633.30078125,
      "v": 100
    },
    {
      "midi": 68,
      "hit": false,
      "t": 7500,
      "d": 1650.390625,
      "v": 116
    },
    {
      "midi": 64,
      "hit": false,
      "t": 7500,
      "d": 1691.89453125,
      "v": 102
    },
    {
      "midi": 52,
      "hit": false,
      "t": 7500,
      "d": 70.80078125,
      "v": 127
    },
    {
      "midi": 52,
      "hit": false,
      "t": 7500,
      "d": 70.80078125,
      "v": 127
    },
    {
      "midi": 40,
      "hit": false,
      "t": 7734.375,
      "d": 234.375,
      "v": 127
    },
    {
      "midi": 52,
      "hit": false,
      "t": 7734.375,
      "d": 43.9453125,
      "v": 98
    },
    {
      "midi": 52,
      "hit": false,
      "t": 7734.375,
      "d": 43.9453125,
      "v": 116
    },
    {
      "midi": 52,
      "hit": false,
      "t": 7851.5625,
      "d": 78.125,
      "v": 116
    },
    {
      "midi": 52,
      "hit": false,
      "t": 7851.5625,
      "d": 78.125,
      "v": 127
    },
    {
      "midi": 28,
      "hit": false,
      "t": 7968.75,
      "d": 234.375,
      "v": 127
    },
    {
      "midi": 52,
      "hit": false,
      "t": 7968.75,
      "d": 56.15234375,
      "v": 122
    },
    {
      "midi": 52,
      "hit": false,
      "t": 7968.75,
      "d": 56.15234375,
      "v": 127
    },
    {
      "midi": 40,
      "hit": false,
      "t": 8203.125,
      "d": 234.375,
      "v": 127
    },
    {
      "midi": 52,
      "hit": false,
      "t": 8203.125,
      "d": 41.50390625,
      "v": 113
    },
    {
      "midi": 52,
      "hit": false,
      "t": 8203.125,
      "d": 41.50390625,
      "v": 127
    },
    {
      "midi": 52,
      "hit": false,
      "t": 8320.3125,
      "d": 80.56640625,
      "v": 110
    },
    {
      "midi": 52,
      "hit": false,
      "t": 8320.3125,
      "d": 80.56640625,
      "v": 127
    },
    {
      "midi": 59,
      "hit": false,
      "t": 8417.96875,
      "d": 444.3359375,
      "v": 127
    },
    {
      "midi": 76,
      "hit": false,
      "t": 8420.41015625,
      "d": 439.453125,
      "v": 127
    },
    {
      "midi": 64,
      "hit": false,
      "t": 8422.8515625,
      "d": 439.453125,
      "v": 127
    },
    {
      "midi": 80,
      "hit": false,
      "t": 8427.734375,
      "d": 297.8515625,
      "v": 127
    },
    {
      "midi": 68,
      "hit": false,
      "t": 8430.17578125,
      "d": 297.8515625,
      "v": 127
    },
    {
      "midi": 28,
      "hit": false,
      "t": 8437.5,
      "d": 234.375,
      "v": 127
    },
    {
      "midi": 52,
      "hit": false,
      "t": 8437.5,
      "d": 48.828125,
      "v": 127
    },
    {
      "midi": 52,
      "hit": false,
      "t": 8437.5,
      "d": 48.828125,
      "v": 127
    },
    {
      "midi": 81,
      "hit": false,
      "t": 8654.78515625,
      "d": 158.69140625,
      "v": 127
    },
    {
      "midi": 69,
      "hit": false,
      "t": 8657.2265625,
      "d": 158.69140625,
      "v": 127
    },
    {
      "midi": 40,
      "hit": false,
      "t": 8671.875,
      "d": 234.375,
      "v": 127
    },
    {
      "midi": 52,
      "hit": false,
      "t": 8671.875,
      "d": 34.1796875,
      "v": 113
    },
    {
      "midi": 52,
      "hit": false,
      "t": 8671.875,
      "d": 34.1796875,
      "v": 127
    },
    {
      "midi": 52,
      "hit": false,
      "t": 8789.0625,
      "d": 65.91796875,
      "v": 127
    },
    {
      "midi": 52,
      "hit": false,
      "t": 8789.0625,
      "d": 65.91796875,
      "v": 127
    },
    {
      "midi": 76,
      "hit": false,
      "t": 8889.16015625,
      "d": 102.5390625,
      "v": 127
    },
    {
      "midi": 64,
      "hit": false,
      "t": 8891.6015625,
      "d": 102.5390625,
      "v": 127
    },
    {
      "midi": 59,
      "hit": false,
      "t": 8898.92578125,
      "d": 100.09765625,
      "v": 127
    },
    {
      "midi": 83,
      "hit": false,
      "t": 8898.92578125,
      "d": 102.5390625,
      "v": 127
    },
    {
      "midi": 71,
      "hit": false,
      "t": 8901.3671875,
      "d": 102.5390625,
      "v": 127
    },
    {
      "midi": 28,
      "hit": false,
      "t": 8906.25,
      "d": 234.375,
      "v": 127
    },
    {
      "midi": 52,
      "hit": false,
      "t": 8906.25,
      "d": 36.62109375,
      "v": 116
    },
    {
      "midi": 52,
      "hit": false,
      "t": 8906.25,
      "d": 36.62109375,
      "v": 127
    },
    {
      "midi": 40,
      "hit": false,
      "t": 9140.625,
      "d": 234.375,
      "v": 127
    },
    {
      "midi": 52,
      "hit": false,
      "t": 9140.625,
      "d": 31.73828125,
      "v": 113
    },
    {
      "midi": 52,
      "hit": false,
      "t": 9140.625,
      "d": 31.73828125,
      "v": 127
    },
    {
      "midi": 59,
      "hit": false,
      "t": 9145.5078125,
      "d": 217.28515625,
      "v": 127
    },
    {
      "midi": 76,
      "hit": false,
      "t": 9145.5078125,
      "d": 217.28515625,
      "v": 127
    },
    {
      "midi": 64,
      "hit": false,
      "t": 9147.94921875,
      "d": 217.28515625,
      "v": 127
    },
    {
      "midi": 83,
      "hit": false,
      "t": 9150.390625,
      "d": 205.078125,
      "v": 127
    },
    {
      "midi": 71,
      "hit": false,
      "t": 9152.83203125,
      "d": 205.078125,
      "v": 127
    },
    {
      "midi": 52,
      "hit": false,
      "t": 9257.8125,
      "d": 80.56640625,
      "v": 119
    },
    {
      "midi": 52,
      "hit": false,
      "t": 9257.8125,
      "d": 80.56640625,
      "v": 127
    },
    {
      "midi": 30,
      "hit": false,
      "t": 9375,
      "d": 234.375,
      "v": 127
    },
    {
      "midi": 61,
      "hit": false,
      "t": 9375,
      "d": 1684.5703125,
      "v": 95
    },
    {
      "midi": 69,
      "hit": false,
      "t": 9375,
      "d": 1691.89453125,
      "v": 122
    },
    {
      "midi": 64,
      "hit": false,
      "t": 9375,
      "d": 1770.01953125,
      "v": 64
    },
    {
      "midi": 54,
      "hit": false,
      "t": 9375,
      "d": 53.7109375,
      "v": 127
    },
    {
      "midi": 54,
      "hit": false,
      "t": 9375,
      "d": 53.7109375,
      "v": 127
    },
    {
      "midi": 76,
      "hit": false,
      "t": 9606.93359375,
      "d": 607.91015625,
      "v": 127
    },
    {
      "midi": 42,
      "hit": false,
      "t": 9609.375,
      "d": 234.375,
      "v": 127
    },
    {
      "midi": 54,
      "hit": false,
      "t": 9609.375,
      "d": 36.62109375,
      "v": 119
    },
    {
      "midi": 54,
      "hit": false,
      "t": 9609.375,
      "d": 36.62109375,
      "v": 127
    },
    {
      "midi": 81,
      "hit": false,
      "t": 9609.375,
      "d": 568.84765625,
      "v": 127
    },
    {
      "midi": 64,
      "hit": false,
      "t": 9609.375,
      "d": 607.91015625,
      "v": 127
    },
    {
      "midi": 73,
      "hit": false,
      "t": 9611.81640625,
      "d": 468.75,
      "v": 127
    },
    {
      "midi": 69,
      "hit": false,
      "t": 9611.81640625,
      "d": 568.84765625,
      "v": 127
    },
    {
      "midi": 61,
      "hit": false,
      "t": 9614.2578125,
      "d": 468.75,
      "v": 127
    },
    {
      "midi": 54,
      "hit": false,
      "t": 9726.5625,
      "d": 68.359375,
      "v": 113
    },
    {
      "midi": 54,
      "hit": false,
      "t": 9726.5625,
      "d": 68.359375,
      "v": 127
    },
    {
      "midi": 30,
      "hit": false,
      "t": 9843.75,
      "d": 234.375,
      "v": 127
    },
    {
      "midi": 54,
      "hit": false,
      "t": 9843.75,
      "d": 51.26953125,
      "v": 116
    },
    {
      "midi": 54,
      "hit": false,
      "t": 9843.75,
      "d": 51.26953125,
      "v": 127
    },
    {
      "midi": 42,
      "hit": false,
      "t": 10078.125,
      "d": 234.375,
      "v": 127
    },
    {
      "midi": 54,
      "hit": false,
      "t": 10078.125,
      "d": 29.296875,
      "v": 110
    },
    {
      "midi": 54,
      "hit": false,
      "t": 10078.125,
      "d": 29.296875,
      "v": 127
    },
    {
      "midi": 54,
      "hit": false,
      "t": 10195.3125,
      "d": 78.125,
      "v": 110
    },
    {
      "midi": 54,
      "hit": false,
      "t": 10195.3125,
      "d": 78.125,
      "v": 127
    },
    {
      "midi": 73,
      "hit": false,
      "t": 10310.05859375,
      "d": 573.73046875,
      "v": 127
    },
    {
      "midi": 30,
      "hit": false,
      "t": 10312.5,
      "d": 234.375,
      "v": 127
    },
    {
      "midi": 54,
      "hit": false,
      "t": 10312.5,
      "d": 43.9453125,
      "v": 113
    },
    {
      "midi": 54,
      "hit": false,
      "t": 10312.5,
      "d": 43.9453125,
      "v": 127
    },
    {
      "midi": 61,
      "hit": false,
      "t": 10312.5,
      "d": 573.73046875,
      "v": 127
    },
    {
      "midi": 76,
      "hit": false,
      "t": 10314.94140625,
      "d": 444.3359375,
      "v": 127
    },
    {
      "midi": 78,
      "hit": false,
      "t": 10317.3828125,
      "d": 256.34765625,
      "v": 127
    },
    {
      "midi": 64,
      "hit": false,
      "t": 10317.3828125,
      "d": 444.3359375,
      "v": 127
    },
    {
      "midi": 66,
      "hit": false,
      "t": 10319.82421875,
      "d": 256.34765625,
      "v": 127
    },
    {
      "midi": 42,
      "hit": false,
      "t": 10546.875,
      "d": 234.375,
      "v": 127
    },
    {
      "midi": 54,
      "hit": false,
      "t": 10546.875,
      "d": 24.4140625,
      "v": 107
    },
    {
      "midi": 54,
      "hit": false,
      "t": 10546.875,
      "d": 24.4140625,
      "v": 125
    },
    {
      "midi": 80,
      "hit": false,
      "t": 10554.19921875,
      "d": 151.3671875,
      "v": 127
    },
    {
      "midi": 68,
      "hit": false,
      "t": 10556.640625,
      "d": 151.3671875,
      "v": 127
    },
    {
      "midi": 54,
      "hit": false,
      "t": 10664.0625,
      "d": 73.2421875,
      "v": 107
    },
    {
      "midi": 54,
      "hit": false,
      "t": 10664.0625,
      "d": 73.2421875,
      "v": 125
    },
    {
      "midi": 76,
      "hit": false,
      "t": 10773.92578125,
      "d": 100.09765625,
      "v": 125
    },
    {
      "midi": 64,
      "hit": false,
      "t": 10776.3671875,
      "d": 100.09765625,
      "v": 125
    },
    {
      "midi": 30,
      "hit": false,
      "t": 10781.25,
      "d": 234.375,
      "v": 127
    },
    {
      "midi": 54,
      "hit": false,
      "t": 10781.25,
      "d": 53.7109375,
      "v": 119
    },
    {
      "midi": 54,
      "hit": false,
      "t": 10781.25,
      "d": 53.7109375,
      "v": 127
    },
    {
      "midi": 81,
      "hit": false,
      "t": 10781.25,
      "d": 95.21484375,
      "v": 127
    },
    {
      "midi": 69,
      "hit": false,
      "t": 10783.69140625,
      "d": 95.21484375,
      "v": 127
    },
    {
      "midi": 76,
      "hit": false,
      "t": 11000.9765625,
      "d": 793.45703125,
      "v": 127
    },
    {
      "midi": 64,
      "hit": false,
      "t": 11003.41796875,
      "d": 793.45703125,
      "v": 127
    },
    {
      "midi": 73,
      "hit": false,
      "t": 11005.859375,
      "d": 795.8984375,
      "v": 127
    },
    {
      "midi": 61,
      "hit": false,
      "t": 11008.30078125,
      "d": 795.8984375,
      "v": 127
    },
    {
      "midi": 42,
      "hit": false,
      "t": 11015.625,
      "d": 234.375,
      "v": 127
    },
    {
      "midi": 54,
      "hit": false,
      "t": 11015.625,
      "d": 41.50390625,
      "v": 116
    },
    {
      "midi": 54,
      "hit": false,
      "t": 11015.625,
      "d": 41.50390625,
      "v": 127
    },
    {
      "midi": 81,
      "hit": false,
      "t": 11015.625,
      "d": 764.16015625,
      "v": 127
    },
    {
      "midi": 69,
      "hit": false,
      "t": 11018.06640625,
      "d": 764.16015625,
      "v": 127
    },
    {
      "midi": 23,
      "hit": false,
      "t": 11250,
      "d": 234.375,
      "v": 127
    },
    {
      "midi": 66,
      "hit": false,
      "t": 11250,
      "d": 1655.2734375,
      "v": 122
    },
    {
      "midi": 59,
      "hit": false,
      "t": 11250,
      "d": 1716.30859375,
      "v": 100
    },
    {
      "midi": 64,
      "hit": false,
      "t": 11250,
      "d": 1733.3984375,
      "v": 70
    },
    {
      "midi": 47,
      "hit": false,
      "t": 11250,
      "d": 63.4765625,
      "v": 127
    },
    {
      "midi": 47,
      "hit": false,
      "t": 11250,
      "d": 63.4765625,
      "v": 127
    },
    {
      "midi": 35,
      "hit": false,
      "t": 11484.375,
      "d": 234.375,
      "v": 127
    },
    {
      "midi": 47,
      "hit": false,
      "t": 11484.375,
      "d": 41.50390625,
      "v": 113
    },
    {
      "midi": 47,
      "hit": false,
      "t": 11484.375,
      "d": 41.50390625,
      "v": 127
    },
    {
      "midi": 47,
      "hit": false,
      "t": 11601.5625,
      "d": 73.2421875,
      "v": 122
    },
    {
      "midi": 47,
      "hit": false,
      "t": 11601.5625,
      "d": 73.2421875,
      "v": 127
    },
    {
      "midi": 23,
      "hit": false,
      "t": 11718.75,
      "d": 234.375,
      "v": 127
    },
    {
      "midi": 47,
      "hit": false,
      "t": 11718.75,
      "d": 53.7109375,
      "v": 122
    },
    {
      "midi": 47,
      "hit": false,
      "t": 11718.75,
      "d": 53.7109375,
      "v": 127
    },
    {
      "midi": 35,
      "hit": false,
      "t": 11953.125,
      "d": 234.375,
      "v": 127
    },
    {
      "midi": 47,
      "hit": false,
      "t": 11953.125,
      "d": 46.38671875,
      "v": 110
    },
    {
      "midi": 47,
      "hit": false,
      "t": 11953.125,
      "d": 46.38671875,
      "v": 127
    },
    {
      "midi": 76,
      "hit": false,
      "t": 11953.125,
      "d": 839.84375,
      "v": 127
    },
    {
      "midi": 64,
      "hit": false,
      "t": 11955.56640625,
      "d": 839.84375,
      "v": 127
    },
    {
      "midi": 73,
      "hit": false,
      "t": 11958.0078125,
      "d": 817.87109375,
      "v": 127
    },
    {
      "midi": 61,
      "hit": false,
      "t": 11960.44921875,
      "d": 817.87109375,
      "v": 127
    },
    {
      "midi": 81,
      "hit": false,
      "t": 11962.890625,
      "d": 473.6328125,
      "v": 127
    },
    {
      "midi": 69,
      "hit": false,
      "t": 11965.33203125,
      "d": 473.6328125,
      "v": 127
    },
    {
      "midi": 47,
      "hit": false,
      "t": 12070.3125,
      "d": 90.33203125,
      "v": 119
    },
    {
      "midi": 47,
      "hit": false,
      "t": 12070.3125,
      "d": 90.33203125,
      "v": 127
    },
    {
      "midi": 23,
      "hit": false,
      "t": 12187.5,
      "d": 234.375,
      "v": 127
    },
    {
      "midi": 47,
      "hit": false,
      "t": 12187.5,
      "d": 51.26953125,
      "v": 113
    },
    {
      "midi": 47,
      "hit": false,
      "t": 12187.5,
      "d": 51.26953125,
      "v": 127
    },
    {
      "midi": 80,
      "hit": false,
      "t": 12414.55078125,
      "d": 253.90625,
      "v": 127
    },
    {
      "midi": 68,
      "hit": false,
      "t": 12416.9921875,
      "d": 253.90625,
      "v": 127
    },
    {
      "midi": 35,
      "hit": false,
      "t": 12421.875,
      "d": 234.375,
      "v": 127
    },
    {
      "midi": 47,
      "hit": false,
      "t": 12421.875,
      "d": 41.50390625,
      "v": 113
    },
    {
      "midi": 47,
      "hit": false,
      "t": 12421.875,
      "d": 41.50390625,
      "v": 127
    },
    {
      "midi": 47,
      "hit": false,
      "t": 12539.0625,
      "d": 73.2421875,
      "v": 122
    },
    {
      "midi": 47,
      "hit": false,
      "t": 12539.0625,
      "d": 73.2421875,
      "v": 127
    },
    {
      "midi": 23,
      "hit": false,
      "t": 12656.25,
      "d": 234.375,
      "v": 127
    },
    {
      "midi": 47,
      "hit": false,
      "t": 12656.25,
      "d": 51.26953125,
      "v": 119
    },
    {
      "midi": 47,
      "hit": false,
      "t": 12656.25,
      "d": 51.26953125,
      "v": 127
    },
    {
      "midi": 78,
      "hit": false,
      "t": 12658.69140625,
      "d": 117.1875,
      "v": 127
    },
    {
      "midi": 66,
      "hit": false,
      "t": 12661.1328125,
      "d": 117.1875,
      "v": 127
    },
    {
      "midi": 35,
      "hit": false,
      "t": 12890.625,
      "d": 234.375,
      "v": 127
    },
    {
      "midi": 47,
      "hit": false,
      "t": 12890.625,
      "d": 41.50390625,
      "v": 107
    },
    {
      "midi": 47,
      "hit": false,
      "t": 12890.625,
      "d": 41.50390625,
      "v": 125
    },
    {
      "midi": 76,
      "hit": false,
      "t": 12890.625,
      "d": 1030.2734375,
      "v": 127
    },
    {
      "midi": 64,
      "hit": false,
      "t": 12893.06640625,
      "d": 1030.2734375,
      "v": 127
    },
    {
      "midi": 59,
      "hit": false,
      "t": 12895.5078125,
      "d": 1032.71484375,
      "v": 127
    },
    {
      "midi": 80,
      "hit": false,
      "t": 12897.94921875,
      "d": 1032.71484375,
      "v": 127
    },
    {
      "midi": 68,
      "hit": false,
      "t": 12900.390625,
      "d": 1032.71484375,
      "v": 127
    },
    {
      "midi": 47,
      "hit": false,
      "t": 13007.8125,
      "d": 83.0078125,
      "v": 116
    },
    {
      "midi": 47,
      "hit": false,
      "t": 13007.8125,
      "d": 83.0078125,
      "v": 127
    },
    {
      "midi": 28,
      "hit": false,
      "t": 13125,
      "d": 234.375,
      "v": 127
    },
    {
      "midi": 68,
      "hit": false,
      "t": 13125,
      "d": 1672.36328125,
      "v": 122
    },
    {
      "midi": 59,
      "hit": false,
      "t": 13125,
      "d": 1730.95703125,
      "v": 98
    },
    {
      "midi": 64,
      "hit": false,
      "t": 13125,
      "d": 1743.1640625,
      "v": 98
    },
    {
      "midi": 52,
      "hit": false,
      "t": 13125,
      "d": 63.4765625,
      "v": 122
    },
    {
      "midi": 52,
      "hit": false,
      "t": 13125,
      "d": 63.4765625,
      "v": 127
    },
    {
      "midi": 40,
      "hit": false,
      "t": 13359.375,
      "d": 234.375,
      "v": 125
    },
    {
      "midi": 52,
      "hit": false,
      "t": 13359.375,
      "d": 41.50390625,
      "v": 110
    },
    {
      "midi": 52,
      "hit": false,
      "t": 13359.375,
      "d": 41.50390625,
      "v": 127
    },
    {
      "midi": 52,
      "hit": false,
      "t": 13476.5625,
      "d": 78.125,
      "v": 113
    },
    {
      "midi": 52,
      "hit": false,
      "t": 13476.5625,
      "d": 78.125,
      "v": 127
    },
    {
      "midi": 28,
      "hit": false,
      "t": 13593.75,
      "d": 234.375,
      "v": 127
    },
    {
      "midi": 52,
      "hit": false,
      "t": 13593.75,
      "d": 61.03515625,
      "v": 113
    },
    {
      "midi": 52,
      "hit": false,
      "t": 13593.75,
      "d": 61.03515625,
      "v": 127
    },
    {
      "midi": 40,
      "hit": false,
      "t": 13828.125,
      "d": 234.375,
      "v": 127
    },
    {
      "midi": 52,
      "hit": false,
      "t": 13828.125,
      "d": 39.0625,
      "v": 107
    },
    {
      "midi": 52,
      "hit": false,
      "t": 13828.125,
      "d": 39.0625,
      "v": 125
    },
    {
      "midi": 52,
      "hit": false,
      "t": 13945.3125,
      "d": 87.890625,
      "v": 110
    },
    {
      "midi": 52,
      "hit": false,
      "t": 13945.3125,
      "d": 87.890625,
      "v": 127
    },
    {
      "midi": 59,
      "hit": false,
      "t": 14057.6171875,
      "d": 588.37890625,
      "v": 127
    },
    {
      "midi": 76,
      "hit": false,
      "t": 14060.05859375,
      "d": 581.0546875,
      "v": 127
    },
    {
      "midi": 28,
      "hit": false,
      "t": 14062.5,
      "d": 234.375,
      "v": 127
    },
    {
      "midi": 52,
      "hit": false,
      "t": 14062.5,
      "d": 43.9453125,
      "v": 119
    },
    {
      "midi": 52,
      "hit": false,
      "t": 14062.5,
      "d": 43.9453125,
      "v": 127
    },
    {
      "midi": 64,
      "hit": false,
      "t": 14062.5,
      "d": 581.0546875,
      "v": 127
    },
    {
      "midi": 80,
      "hit": false,
      "t": 14064.94140625,
      "d": 253.90625,
      "v": 127
    },
    {
      "midi": 68,
      "hit": false,
      "t": 14067.3828125,
      "d": 253.90625,
      "v": 127
    },
    {
      "midi": 40,
      "hit": false,
      "t": 14296.875,
      "d": 234.375,
      "v": 127
    },
    {
      "midi": 52,
      "hit": false,
      "t": 14296.875,
      "d": 39.0625,
      "v": 113
    },
    {
      "midi": 52,
      "hit": false,
      "t": 14296.875,
      "d": 39.0625,
      "v": 127
    },
    {
      "midi": 81,
      "hit": false,
      "t": 14304.19921875,
      "d": 168.45703125,
      "v": 127
    },
    {
      "midi": 69,
      "hit": false,
      "t": 14306.640625,
      "d": 168.45703125,
      "v": 127
    },
    {
      "midi": 52,
      "hit": false,
      "t": 14414.0625,
      "d": 87.890625,
      "v": 110
    },
    {
      "midi": 52,
      "hit": false,
      "t": 14414.0625,
      "d": 87.890625,
      "v": 127
    },
    {
      "midi": 83,
      "hit": false,
      "t": 14516.6015625,
      "d": 109.86328125,
      "v": 127
    },
    {
      "midi": 71,
      "hit": false,
      "t": 14519.04296875,
      "d": 109.86328125,
      "v": 127
    },
    {
      "midi": 28,
      "hit": false,
      "t": 14531.25,
      "d": 234.375,
      "v": 127
    },
    {
      "midi": 52,
      "hit": false,
      "t": 14531.25,
      "d": 41.50390625,
      "v": 110
    },
    {
      "midi": 52,
      "hit": false,
      "t": 14531.25,
      "d": 41.50390625,
      "v": 127
    },
    {
      "midi": 40,
      "hit": false,
      "t": 14765.625,
      "d": 234.375,
      "v": 127
    },
    {
      "midi": 52,
      "hit": false,
      "t": 14765.625,
      "d": 36.62109375,
      "v": 110
    },
    {
      "midi": 52,
      "hit": false,
      "t": 14765.625,
      "d": 36.62109375,
      "v": 127
    },
    {
      "midi": 59,
      "hit": false,
      "t": 14777.83203125,
      "d": 1035.15625,
      "v": 127
    },
    {
      "midi": 83,
      "hit": false,
      "t": 14780.2734375,
      "d": 1005.859375,
      "v": 127
    },
    {
      "midi": 76,
      "hit": false,
      "t": 14780.2734375,
      "d": 1020.5078125,
      "v": 127
    },
    {
      "midi": 71,
      "hit": false,
      "t": 14782.71484375,
      "d": 1005.859375,
      "v": 127
    },
    {
      "midi": 64,
      "hit": false,
      "t": 14782.71484375,
      "d": 1020.5078125,
      "v": 127
    },
    {
      "midi": 52,
      "hit": false,
      "t": 14882.8125,
      "d": 78.125,
      "v": 110
    },
    {
      "midi": 52,
      "hit": false,
      "t": 14882.8125,
      "d": 78.125,
      "v": 127
    },
    {
      "midi": 28,
      "hit": false,
      "t": 15000,
      "d": 234.375,
      "v": 127
    },
    {
      "midi": 68,
      "hit": false,
      "t": 15000,
      "d": 1672.36328125,
      "v": 119
    },
    {
      "midi": 59,
      "hit": false,
      "t": 15000,
      "d": 1684.5703125,
      "v": 68
    },
    {
      "midi": 64,
      "hit": false,
      "t": 15000,
      "d": 1738.28125,
      "v": 98
    },
    {
      "midi": 52,
      "hit": false,
      "t": 15000,
      "d": 58.59375,
      "v": 119
    },
    {
      "midi": 52,
      "hit": false,
      "t": 15000,
      "d": 58.59375,
      "v": 127
    },
    {
      "midi": 40,
      "hit": false,
      "t": 15234.375,
      "d": 234.375,
      "v": 127
    },
    {
      "midi": 52,
      "hit": false,
      "t": 15234.375,
      "d": 41.50390625,
      "v": 116
    },
    {
      "midi": 52,
      "hit": false,
      "t": 15234.375,
      "d": 41.50390625,
      "v": 127
    },
    {
      "midi": 52,
      "hit": false,
      "t": 15351.5625,
      "d": 85.44921875,
      "v": 122
    },
    {
      "midi": 52,
      "hit": false,
      "t": 15351.5625,
      "d": 85.44921875,
      "v": 127
    },
    {
      "midi": 28,
      "hit": false,
      "t": 15468.75,
      "d": 234.375,
      "v": 127
    },
    {
      "midi": 52,
      "hit": false,
      "t": 15468.75,
      "d": 46.38671875,
      "v": 113
    },
    {
      "midi": 52,
      "hit": false,
      "t": 15468.75,
      "d": 46.38671875,
      "v": 127
    },
    {
      "midi": 40,
      "hit": false,
      "t": 15703.125,
      "d": 234.375,
      "v": 127
    },
    {
      "midi": 52,
      "hit": false,
      "t": 15703.125,
      "d": 53.7109375,
      "v": 116
    },
    {
      "midi": 52,
      "hit": false,
      "t": 15703.125,
      "d": 53.7109375,
      "v": 127
    },
    {
      "midi": 52,
      "hit": false,
      "t": 15820.3125,
      "d": 83.0078125,
      "v": 110
    },
    {
      "midi": 52,
      "hit": false,
      "t": 15820.3125,
      "d": 83.0078125,
      "v": 127
    },
    {
      "midi": 28,
      "hit": false,
      "t": 15937.5,
      "d": 234.375,
      "v": 127
    },
    {
      "midi": 52,
      "hit": false,
      "t": 15937.5,
      "d": 58.59375,
      "v": 113
    },
    {
      "midi": 52,
      "hit": false,
      "t": 15937.5,
      "d": 58.59375,
      "v": 127
    },
    {
      "midi": 76,
      "hit": false,
      "t": 15949.70703125,
      "d": 561.5234375,
      "v": 127
    },
    {
      "midi": 59,
      "hit": false,
      "t": 15949.70703125,
      "d": 566.40625,
      "v": 127
    },
    {
      "midi": 64,
      "hit": false,
      "t": 15952.1484375,
      "d": 561.5234375,
      "v": 127
    },
    {
      "midi": 80,
      "hit": false,
      "t": 15957.03125,
      "d": 256.34765625,
      "v": 127
    },
    {
      "midi": 68,
      "hit": false,
      "t": 15959.47265625,
      "d": 256.34765625,
      "v": 127
    },
    {
      "midi": 40,
      "hit": false,
      "t": 16171.875,
      "d": 234.375,
      "v": 127
    },
    {
      "midi": 52,
      "hit": false,
      "t": 16171.875,
      "d": 58.59375,
      "v": 113
    },
    {
      "midi": 52,
      "hit": false,
      "t": 16171.875,
      "d": 58.59375,
      "v": 127
    },
    {
      "midi": 81,
      "hit": false,
      "t": 16181.640625,
      "d": 168.45703125,
      "v": 127
    },
    {
      "midi": 69,
      "hit": false,
      "t": 16184.08203125,
      "d": 168.45703125,
      "v": 127
    },
    {
      "midi": 52,
      "hit": false,
      "t": 16289.0625,
      "d": 75.68359375,
      "v": 110
    },
    {
      "midi": 52,
      "hit": false,
      "t": 16289.0625,
      "d": 75.68359375,
      "v": 127
    },
    {
      "midi": 83,
      "hit": false,
      "t": 16389.16015625,
      "d": 97.65625,
      "v": 127
    },
    {
      "midi": 71,
      "hit": false,
      "t": 16391.6015625,
      "d": 97.65625,
      "v": 127
    },
    {
      "midi": 28,
      "hit": false,
      "t": 16406.25,
      "d": 234.375,
      "v": 127
    },
    {
      "midi": 52,
      "hit": false,
      "t": 16406.25,
      "d": 51.26953125,
      "v": 122
    },
    {
      "midi": 52,
      "hit": false,
      "t": 16406.25,
      "d": 51.26953125,
      "v": 127
    },
    {
      "midi": 40,
      "hit": false,
      "t": 16640.625,
      "d": 234.375,
      "v": 127
    },
    {
      "midi": 52,
      "hit": false,
      "t": 16640.625,
      "d": 61.03515625,
      "v": 110
    },
    {
      "midi": 52,
      "hit": false,
      "t": 16640.625,
      "d": 61.03515625,
      "v": 127
    },
    {
      "midi": 83,
      "hit": false,
      "t": 16652.83203125,
      "d": 227.05078125,
      "v": 127
    },
    {
      "midi": 71,
      "hit": false,
      "t": 16655.2734375,
      "d": 227.05078125,
      "v": 127
    },
    {
      "midi": 76,
      "hit": false,
      "t": 16660.15625,
      "d": 229.4921875,
      "v": 127
    },
    {
      "midi": 59,
      "hit": false,
      "t": 16662.59765625,
      "d": 214.84375,
      "v": 127
    },
    {
      "midi": 64,
      "hit": false,
      "t": 16662.59765625,
      "d": 229.4921875,
      "v": 127
    },
    {
      "midi": 52,
      "hit": false,
      "t": 16757.8125,
      "d": 83.0078125,
      "v": 113
    },
    {
      "midi": 52,
      "hit": false,
      "t": 16757.8125,
      "d": 83.0078125,
      "v": 127
    },
    {
      "midi": 30,
      "hit": false,
      "t": 16875,
      "d": 234.375,
      "v": 127
    },
    {
      "midi": 61,
      "hit": false,
      "t": 16875,
      "d": 1672.36328125,
      "v": 100
    },
    {
      "midi": 69,
      "hit": false,
      "t": 16875,
      "d": 1679.6875,
      "v": 127
    },
    {
      "midi": 64,
      "hit": false,
      "t": 16875,
      "d": 1779.78515625,
      "v": 64
    },
    {
      "midi": 54,
      "hit": false,
      "t": 16875,
      "d": 53.7109375,
      "v": 122
    },
    {
      "midi": 54,
      "hit": false,
      "t": 16875,
      "d": 53.7109375,
      "v": 127
    },
    {
      "midi": 42,
      "hit": false,
      "t": 17109.375,
      "d": 234.375,
      "v": 127
    },
    {
      "midi": 54,
      "hit": false,
      "t": 17109.375,
      "d": 31.73828125,
      "v": 113
    },
    {
      "midi": 54,
      "hit": false,
      "t": 17109.375,
      "d": 31.73828125,
      "v": 127
    },
    {
      "midi": 76,
      "hit": false,
      "t": 17131.34765625,
      "d": 539.55078125,
      "v": 127
    },
    {
      "midi": 73,
      "hit": false,
      "t": 17133.7890625,
      "d": 537.109375,
      "v": 127
    },
    {
      "midi": 64,
      "hit": false,
      "t": 17133.7890625,
      "d": 539.55078125,
      "v": 127
    },
    {
      "midi": 61,
      "hit": false,
      "t": 17136.23046875,
      "d": 537.109375,
      "v": 127
    },
    {
      "midi": 81,
      "hit": false,
      "t": 17138.671875,
      "d": 480.95703125,
      "v": 127
    },
    {
      "midi": 69,
      "hit": false,
      "t": 17141.11328125,
      "d": 480.95703125,
      "v": 127
    },
    {
      "midi": 54,
      "hit": false,
      "t": 17226.5625,
      "d": 63.4765625,
      "v": 107
    },
    {
      "midi": 54,
      "hit": false,
      "t": 17226.5625,
      "d": 63.4765625,
      "v": 125
    },
    {
      "midi": 30,
      "hit": false,
      "t": 17343.75,
      "d": 234.375,
      "v": 127
    },
    {
      "midi": 54,
      "hit": false,
      "t": 17343.75,
      "d": 43.9453125,
      "v": 122
    },
    {
      "midi": 54,
      "hit": false,
      "t": 17343.75,
      "d": 43.9453125,
      "v": 127
    },
    {
      "midi": 42,
      "hit": false,
      "t": 17578.125,
      "d": 234.375,
      "v": 127
    },
    {
      "midi": 54,
      "hit": false,
      "t": 17578.125,
      "d": 39.0625,
      "v": 110
    },
    {
      "midi": 54,
      "hit": false,
      "t": 17578.125,
      "d": 39.0625,
      "v": 127
    },
    {
      "midi": 54,
      "hit": false,
      "t": 17695.3125,
      "d": 78.125,
      "v": 107
    },
    {
      "midi": 54,
      "hit": false,
      "t": 17695.3125,
      "d": 78.125,
      "v": 125
    },
    {
      "midi": 76,
      "hit": false,
      "t": 17807.6171875,
      "d": 610.3515625,
      "v": 127
    },
    {
      "midi": 73,
      "hit": false,
      "t": 17810.05859375,
      "d": 603.02734375,
      "v": 127
    },
    {
      "midi": 64,
      "hit": false,
      "t": 17810.05859375,
      "d": 610.3515625,
      "v": 127
    },
    {
      "midi": 30,
      "hit": false,
      "t": 17812.5,
      "d": 234.375,
      "v": 127
    },
    {
      "midi": 54,
      "hit": false,
      "t": 17812.5,
      "d": 48.828125,
      "v": 119
    },
    {
      "midi": 54,
      "hit": false,
      "t": 17812.5,
      "d": 48.828125,
      "v": 127
    },
    {
      "midi": 78,
      "hit": false,
      "t": 17812.5,
      "d": 261.23046875,
      "v": 127
    },
    {
      "midi": 61,
      "hit": false,
      "t": 17812.5,
      "d": 603.02734375,
      "v": 127
    },
    {
      "midi": 66,
      "hit": false,
      "t": 17814.94140625,
      "d": 261.23046875,
      "v": 127
    },
    {
      "midi": 42,
      "hit": false,
      "t": 18046.875,
      "d": 234.375,
      "v": 127
    },
    {
      "midi": 54,
      "hit": false,
      "t": 18046.875,
      "d": 24.4140625,
      "v": 107
    },
    {
      "midi": 54,
      "hit": false,
      "t": 18046.875,
      "d": 24.4140625,
      "v": 125
    },
    {
      "midi": 80,
      "hit": false,
      "t": 18046.875,
      "d": 156.25,
      "v": 127
    },
    {
      "midi": 68,
      "hit": false,
      "t": 18049.31640625,
      "d": 156.25,
      "v": 127
    },
    {
      "midi": 54,
      "hit": false,
      "t": 18164.0625,
      "d": 73.2421875,
      "v": 107
    },
    {
      "midi": 54,
      "hit": false,
      "t": 18164.0625,
      "d": 73.2421875,
      "v": 125
    },
    {
      "midi": 81,
      "hit": false,
      "t": 18273.92578125,
      "d": 104.98046875,
      "v": 127
    },
    {
      "midi": 69,
      "hit": false,
      "t": 18276.3671875,
      "d": 104.98046875,
      "v": 127
    },
    {
      "midi": 30,
      "hit": false,
      "t": 18281.25,
      "d": 234.375,
      "v": 127
    },
    {
      "midi": 54,
      "hit": false,
      "t": 18281.25,
      "d": 58.59375,
      "v": 119
    },
    {
      "midi": 54,
      "hit": false,
      "t": 18281.25,
      "d": 58.59375,
      "v": 127
    },
    {
      "midi": 42,
      "hit": false,
      "t": 18515.625,
      "d": 234.375,
      "v": 127
    },
    {
      "midi": 54,
      "hit": false,
      "t": 18515.625,
      "d": 51.26953125,
      "v": 119
    },
    {
      "midi": 54,
      "hit": false,
      "t": 18515.625,
      "d": 51.26953125,
      "v": 127
    },
    {
      "midi": 76,
      "hit": false,
      "t": 18522.94921875,
      "d": 517.578125,
      "v": 127
    },
    {
      "midi": 73,
      "hit": false,
      "t": 18525.390625,
      "d": 505.37109375,
      "v": 127
    },
    {
      "midi": 64,
      "hit": false,
      "t": 18525.390625,
      "d": 517.578125,
      "v": 127
    },
    {
      "midi": 61,
      "hit": false,
      "t": 18527.83203125,
      "d": 505.37109375,
      "v": 127
    },
    {
      "midi": 81,
      "hit": false,
      "t": 18532.71484375,
      "d": 471.19140625,
      "v": 127
    },
    {
      "midi": 69,
      "hit": false,
      "t": 18535.15625,
      "d": 471.19140625,
      "v": 127
    },
    {
      "midi": 23,
      "hit": false,
      "t": 18750,
      "d": 234.375,
      "v": 127
    },
    {
      "midi": 59,
      "hit": false,
      "t": 18750,
      "d": 1406.25,
      "v": 98
    },
    {
      "midi": 64,
      "hit": false,
      "t": 18750,
      "d": 1406.25,
      "v": 64
    },
    {
      "midi": 66,
      "hit": false,
      "t": 18750,
      "d": 1711.42578125,
      "v": 122
    },
    {
      "midi": 47,
      "hit": false,
      "t": 18750,
      "d": 53.7109375,
      "v": 127
    },
    {
      "midi": 47,
      "hit": false,
      "t": 18750,
      "d": 53.7109375,
      "v": 127
    },
    {
      "midi": 35,
      "hit": false,
      "t": 18984.375,
      "d": 234.375,
      "v": 127
    },
    {
      "midi": 47,
      "hit": false,
      "t": 18984.375,
      "d": 39.0625,
      "v": 116
    },
    {
      "midi": 47,
      "hit": false,
      "t": 18984.375,
      "d": 39.0625,
      "v": 127
    },
    {
      "midi": 47,
      "hit": false,
      "t": 19101.5625,
      "d": 78.125,
      "v": 113
    },
    {
      "midi": 47,
      "hit": false,
      "t": 19101.5625,
      "d": 78.125,
      "v": 127
    },
    {
      "midi": 76,
      "hit": false,
      "t": 19201.66015625,
      "d": 288.0859375,
      "v": 127
    },
    {
      "midi": 64,
      "hit": false,
      "t": 19204.1015625,
      "d": 288.0859375,
      "v": 127
    },
    {
      "midi": 73,
      "hit": false,
      "t": 19204.1015625,
      "d": 290.52734375,
      "v": 127
    },
    {
      "midi": 61,
      "hit": false,
      "t": 19206.54296875,
      "d": 290.52734375,
      "v": 127
    },
    {
      "midi": 23,
      "hit": false,
      "t": 19218.75,
      "d": 234.375,
      "v": 127
    },
    {
      "midi": 47,
      "hit": false,
      "t": 19218.75,
      "d": 39.0625,
      "v": 119
    },
    {
      "midi": 47,
      "hit": false,
      "t": 19218.75,
      "d": 39.0625,
      "v": 127
    },
    {
      "midi": 80,
      "hit": false,
      "t": 19221.19140625,
      "d": 270.99609375,
      "v": 127
    },
    {
      "midi": 68,
      "hit": false,
      "t": 19223.6328125,
      "d": 270.99609375,
      "v": 127
    },
    {
      "midi": 35,
      "hit": false,
      "t": 19453.125,
      "d": 234.375,
      "v": 127
    },
    {
      "midi": 47,
      "hit": false,
      "t": 19453.125,
      "d": 46.38671875,
      "v": 119
    },
    {
      "midi": 47,
      "hit": false,
      "t": 19453.125,
      "d": 46.38671875,
      "v": 127
    },
    {
      "midi": 47,
      "hit": false,
      "t": 19570.3125,
      "d": 85.44921875,
      "v": 122
    },
    {
      "midi": 47,
      "hit": false,
      "t": 19570.3125,
      "d": 85.44921875,
      "v": 127
    },
    {
      "midi": 73,
      "hit": false,
      "t": 19682.6171875,
      "d": 551.7578125,
      "v": 127
    },
    {
      "midi": 76,
      "hit": false,
      "t": 19682.6171875,
      "d": 603.02734375,
      "v": 127
    },
    {
      "midi": 81,
      "hit": false,
      "t": 19685.05859375,
      "d": 263.671875,
      "v": 127
    },
    {
      "midi": 61,
      "hit": false,
      "t": 19685.05859375,
      "d": 551.7578125,
      "v": 127
    },
    {
      "midi": 64,
      "hit": false,
      "t": 19685.05859375,
      "d": 603.02734375,
      "v": 127
    },
    {
      "midi": 23,
      "hit": false,
      "t": 19687.5,
      "d": 234.375,
      "v": 127
    },
    {
      "midi": 47,
      "hit": false,
      "t": 19687.5,
      "d": 56.15234375,
      "v": 119
    },
    {
      "midi": 47,
      "hit": false,
      "t": 19687.5,
      "d": 56.15234375,
      "v": 127
    },
    {
      "midi": 69,
      "hit": false,
      "t": 19687.5,
      "d": 263.671875,
      "v": 127
    },
    {
      "midi": 35,
      "hit": false,
      "t": 19921.875,
      "d": 234.375,
      "v": 127
    },
    {
      "midi": 47,
      "hit": false,
      "t": 19921.875,
      "d": 41.50390625,
      "v": 113
    },
    {
      "midi": 47,
      "hit": false,
      "t": 19921.875,
      "d": 41.50390625,
      "v": 127
    },
    {
      "midi": 80,
      "hit": false,
      "t": 19934.08203125,
      "d": 261.23046875,
      "v": 127
    },
    {
      "midi": 68,
      "hit": false,
      "t": 19936.5234375,
      "d": 261.23046875,
      "v": 127
    },
    {
      "midi": 47,
      "hit": false,
      "t": 20039.0625,
      "d": 85.44921875,
      "v": 116
    },
    {
      "midi": 47,
      "hit": false,
      "t": 20039.0625,
      "d": 85.44921875,
      "v": 127
    },
    {
      "midi": 23,
      "hit": false,
      "t": 20156.25,
      "d": 234.375,
      "v": 127
    },
    {
      "midi": 47,
      "hit": false,
      "t": 20156.25,
      "d": 46.38671875,
      "v": 113
    },
    {
      "midi": 47,
      "hit": false,
      "t": 20156.25,
      "d": 46.38671875,
      "v": 127
    },
    {
      "midi": 78,
      "hit": false,
      "t": 20166.015625,
      "d": 126.953125,
      "v": 127
    },
    {
      "midi": 66,
      "hit": false,
      "t": 20168.45703125,
      "d": 126.953125,
      "v": 127
    },
    {
      "midi": 35,
      "hit": false,
      "t": 20390.625,
      "d": 234.375,
      "v": 127
    },
    {
      "midi": 59,
      "hit": false,
      "t": 20390.625,
      "d": 1843.26171875,
      "v": 102
    },
    {
      "midi": 68,
      "hit": false,
      "t": 20390.625,
      "d": 1850.5859375,
      "v": 119
    },
    {
      "midi": 64,
      "hit": false,
      "t": 20390.625,
      "d": 1853.02734375,
      "v": 102
    },
    {
      "midi": 47,
      "hit": false,
      "t": 20390.625,
      "d": 39.0625,
      "v": 107
    },
    {
      "midi": 47,
      "hit": false,
      "t": 20390.625,
      "d": 39.0625,
      "v": 125
    },
    {
      "midi": 76,
      "hit": false,
      "t": 20410.15625,
      "d": 1662.59765625,
      "v": 127
    },
    {
      "midi": 64,
      "hit": false,
      "t": 20412.59765625,
      "d": 1662.59765625,
      "v": 127
    },
    {
      "midi": 59,
      "hit": false,
      "t": 20412.59765625,
      "d": 1672.36328125,
      "v": 127
    },
    {
      "midi": 47,
      "hit": false,
      "t": 20507.8125,
      "d": 73.2421875,
      "v": 113
    },
    {
      "midi": 47,
      "hit": false,
      "t": 20507.8125,
      "d": 73.2421875,
      "v": 127
    },
    {
      "midi": 28,
      "hit": false,
      "t": 20625,
      "d": 234.375,
      "v": 127
    },
    {
      "midi": 52,
      "hit": false,
      "t": 20625,
      "d": 58.59375,
      "v": 113
    },
    {
      "midi": 52,
      "hit": false,
      "t": 20625,
      "d": 58.59375,
      "v": 127
    },
    {
      "midi": 40,
      "hit": false,
      "t": 20859.375,
      "d": 234.375,
      "v": 127
    },
    {
      "midi": 52,
      "hit": false,
      "t": 20859.375,
      "d": 39.0625,
      "v": 105
    },
    {
      "midi": 52,
      "hit": false,
      "t": 20859.375,
      "d": 39.0625,
      "v": 123
    },
    {
      "midi": 52,
      "hit": false,
      "t": 20976.5625,
      "d": 65.91796875,
      "v": 110
    },
    {
      "midi": 52,
      "hit": false,
      "t": 20976.5625,
      "d": 65.91796875,
      "v": 127
    },
    {
      "midi": 28,
      "hit": false,
      "t": 21093.75,
      "d": 234.375,
      "v": 127
    },
    {
      "midi": 52,
      "hit": false,
      "t": 21093.75,
      "d": 56.15234375,
      "v": 119
    },
    {
      "midi": 52,
      "hit": false,
      "t": 21093.75,
      "d": 56.15234375,
      "v": 127
    },
    {
      "midi": 56,
      "hit": false,
      "t": 21093.75,
      "d": 83.0078125,
      "v": 127
    },
    {
      "midi": 40,
      "hit": false,
      "t": 21328.125,
      "d": 234.375,
      "v": 127
    },
    {
      "midi": 52,
      "hit": false,
      "t": 21328.125,
      "d": 51.26953125,
      "v": 113
    },
    {
      "midi": 52,
      "hit": false,
      "t": 21328.125,
      "d": 51.26953125,
      "v": 127
    },
    {
      "midi": 56,
      "hit": false,
      "t": 21328.125,
      "d": 87.890625,
      "v": 127
    },
    {
      "midi": 52,
      "hit": false,
      "t": 21445.3125,
      "d": 73.2421875,
      "v": 110
    },
    {
      "midi": 52,
      "hit": false,
      "t": 21445.3125,
      "d": 73.2421875,
      "v": 127
    },
    {
      "midi": 28,
      "hit": false,
      "t": 21562.5,
      "d": 234.375,
      "v": 127
    },
    {
      "midi": 52,
      "hit": false,
      "t": 21562.5,
      "d": 43.9453125,
      "v": 127
    },
    {
      "midi": 52,
      "hit": false,
      "t": 21562.5,
      "d": 43.9453125,
      "v": 127
    },
    {
      "midi": 56,
      "hit": false,
      "t": 21562.5,
      "d": 187.98828125,
      "v": 127
    },
    {
      "midi": 40,
      "hit": false,
      "t": 21796.875,
      "d": 234.375,
      "v": 127
    },
    {
      "midi": 52,
      "hit": false,
      "t": 21796.875,
      "d": 46.38671875,
      "v": 113
    },
    {
      "midi": 52,
      "hit": false,
      "t": 21796.875,
      "d": 46.38671875,
      "v": 127
    },
    {
      "midi": 57,
      "hit": false,
      "t": 21796.875,
      "d": 170.8984375,
      "v": 127
    },
    {
      "midi": 52,
      "hit": false,
      "t": 21914.0625,
      "d": 83.0078125,
      "v": 110
    },
    {
      "midi": 52,
      "hit": false,
      "t": 21914.0625,
      "d": 83.0078125,
      "v": 127
    },
    {
      "midi": 28,
      "hit": false,
      "t": 22031.25,
      "d": 234.375,
      "v": 127
    },
    {
      "midi": 52,
      "hit": false,
      "t": 22031.25,
      "d": 46.38671875,
      "v": 107
    },
    {
      "midi": 52,
      "hit": false,
      "t": 22031.25,
      "d": 46.38671875,
      "v": 125
    },
    {
      "midi": 59,
      "hit": false,
      "t": 22031.25,
      "d": 129.39453125,
      "v": 122
    },
    {
      "midi": 40,
      "hit": false,
      "t": 22265.625,
      "d": 234.375,
      "v": 127
    },
    {
      "midi": 52,
      "hit": false,
      "t": 22265.625,
      "d": 41.50390625,
      "v": 116
    },
    {
      "midi": 52,
      "hit": false,
      "t": 22265.625,
      "d": 41.50390625,
      "v": 127
    },
    {
      "midi": 59,
      "hit": false,
      "t": 22265.625,
      "d": 288.0859375,
      "v": 127
    },
    {
      "midi": 52,
      "hit": false,
      "t": 22382.8125,
      "d": 63.4765625,
      "v": 127
    },
    {
      "midi": 52,
      "hit": false,
      "t": 22382.8125,
      "d": 63.4765625,
      "v": 127
    },
    {
      "midi": 35,
      "hit": false,
      "t": 22500,
      "d": 117.1875,
      "v": 116
    },
    {
      "midi": 47,
      "hit": false,
      "t": 22500,
      "d": 3723.14453125,
      "v": 119
    },
    {
      "midi": 47,
      "hit": false,
      "t": 22500,
      "d": 117.1875,
      "v": 116
    },
    {
      "midi": 47,
      "hit": false,
      "t": 22500,
      "d": 117.1875,
      "v": 127
    },
    {
      "midi": 35,
      "hit": false,
      "t": 22734.375,
      "d": 117.1875,
      "v": 102
    },
    {
      "midi": 66,
      "hit": false,
      "t": 22734.375,
      "d": 56.15234375,
      "v": 105
    },
    {
      "midi": 63,
      "hit": false,
      "t": 22734.375,
      "d": 70.80078125,
      "v": 110
    },
    {
      "midi": 59,
      "hit": false,
      "t": 22734.375,
      "d": 90.33203125,
      "v": 93
    },
    {
      "midi": 47,
      "hit": false,
      "t": 22734.375,
      "d": 253.90625,
      "v": 127
    },
    {
      "midi": 47,
      "hit": false,
      "t": 22734.375,
      "d": 253.90625,
      "v": 127
    },
    {
      "midi": 35,
      "hit": false,
      "t": 22968.75,
      "d": 117.1875,
      "v": 116
    },
    {
      "midi": 51,
      "hit": false,
      "t": 22968.75,
      "d": 205.078125,
      "v": 116
    },
    {
      "midi": 51,
      "hit": false,
      "t": 22968.75,
      "d": 205.078125,
      "v": 127
    },
    {
      "midi": 35,
      "hit": false,
      "t": 23203.125,
      "d": 117.1875,
      "v": 110
    },
    {
      "midi": 63,
      "hit": false,
      "t": 23203.125,
      "d": 39.0625,
      "v": 105
    },
    {
      "midi": 66,
      "hit": false,
      "t": 23203.125,
      "d": 48.828125,
      "v": 113
    },
    {
      "midi": 59,
      "hit": false,
      "t": 23203.125,
      "d": 51.26953125,
      "v": 100
    },
    {
      "midi": 47,
      "hit": false,
      "t": 23203.125,
      "d": 239.2578125,
      "v": 113
    },
    {
      "midi": 47,
      "hit": false,
      "t": 23203.125,
      "d": 239.2578125,
      "v": 127
    },
    {
      "midi": 35,
      "hit": false,
      "t": 23437.5,
      "d": 117.1875,
      "v": 116
    },
    {
      "midi": 54,
      "hit": false,
      "t": 23437.5,
      "d": 231.93359375,
      "v": 122
    },
    {
      "midi": 54,
      "hit": false,
      "t": 23437.5,
      "d": 231.93359375,
      "v": 127
    },
    {
      "midi": 35,
      "hit": false,
      "t": 23671.875,
      "d": 117.1875,
      "v": 107
    },
    {
      "midi": 63,
      "hit": false,
      "t": 23671.875,
      "d": 56.15234375,
      "v": 116
    },
    {
      "midi": 66,
      "hit": false,
      "t": 23671.875,
      "d": 56.15234375,
      "v": 116
    },
    {
      "midi": 59,
      "hit": false,
      "t": 23671.875,
      "d": 58.59375,
      "v": 102
    },
    {
      "midi": 47,
      "hit": false,
      "t": 23671.875,
      "d": 219.7265625,
      "v": 110
    },
    {
      "midi": 47,
      "hit": false,
      "t": 23671.875,
      "d": 219.7265625,
      "v": 127
    },
    {
      "midi": 35,
      "hit": false,
      "t": 23906.25,
      "d": 117.1875,
      "v": 116
    },
    {
      "midi": 52,
      "hit": false,
      "t": 23906.25,
      "d": 263.671875,
      "v": 122
    },
    {
      "midi": 52,
      "hit": false,
      "t": 23906.25,
      "d": 263.671875,
      "v": 127
    },
    {
      "midi": 35,
      "hit": false,
      "t": 24140.625,
      "d": 117.1875,
      "v": 110
    },
    {
      "midi": 63,
      "hit": false,
      "t": 24140.625,
      "d": 51.26953125,
      "v": 107
    },
    {
      "midi": 66,
      "hit": false,
      "t": 24140.625,
      "d": 53.7109375,
      "v": 110
    },
    {
      "midi": 59,
      "hit": false,
      "t": 24140.625,
      "d": 68.359375,
      "v": 100
    },
    {
      "midi": 51,
      "hit": false,
      "t": 24140.625,
      "d": 251.46484375,
      "v": 102
    },
    {
      "midi": 51,
      "hit": false,
      "t": 24140.625,
      "d": 251.46484375,
      "v": 120
    },
    {
      "midi": 35,
      "hit": false,
      "t": 24375,
      "d": 117.1875,
      "v": 113
    },
    {
      "midi": 47,
      "hit": false,
      "t": 24375,
      "d": 117.1875,
      "v": 116
    },
    {
      "midi": 47,
      "hit": false,
      "t": 24375,
      "d": 117.1875,
      "v": 127
    },
    {
      "midi": 35,
      "hit": false,
      "t": 24609.375,
      "d": 117.1875,
      "v": 107
    },
    {
      "midi": 66,
      "hit": false,
      "t": 24609.375,
      "d": 58.59375,
      "v": 113
    },
    {
      "midi": 63,
      "hit": false,
      "t": 24609.375,
      "d": 63.4765625,
      "v": 113
    },
    {
      "midi": 59,
      "hit": false,
      "t": 24609.375,
      "d": 70.80078125,
      "v": 105
    },
    {
      "midi": 47,
      "hit": false,
      "t": 24609.375,
      "d": 117.1875,
      "v": 113
    },
    {
      "midi": 47,
      "hit": false,
      "t": 24609.375,
      "d": 117.1875,
      "v": 127
    },
    {
      "midi": 35,
      "hit": false,
      "t": 24843.75,
      "d": 117.1875,
      "v": 110
    },
    {
      "midi": 47,
      "hit": false,
      "t": 24843.75,
      "d": 117.1875,
      "v": 105
    },
    {
      "midi": 47,
      "hit": false,
      "t": 24843.75,
      "d": 117.1875,
      "v": 123
    },
    {
      "midi": 47,
      "hit": false,
      "t": 24843.75,
      "d": 80.56640625,
      "v": 127
    },
    {
      "midi": 35,
      "hit": false,
      "t": 25078.125,
      "d": 117.1875,
      "v": 110
    },
    {
      "midi": 63,
      "hit": false,
      "t": 25078.125,
      "d": 48.828125,
      "v": 110
    },
    {
      "midi": 66,
      "hit": false,
      "t": 25078.125,
      "d": 53.7109375,
      "v": 113
    },
    {
      "midi": 59,
      "hit": false,
      "t": 25078.125,
      "d": 73.2421875,
      "v": 102
    },
    {
      "midi": 47,
      "hit": false,
      "t": 25078.125,
      "d": 117.1875,
      "v": 110
    },
    {
      "midi": 47,
      "hit": false,
      "t": 25078.125,
      "d": 117.1875,
      "v": 127
    },
    {
      "midi": 47,
      "hit": false,
      "t": 25078.125,
      "d": 200.1953125,
      "v": 127
    },
    {
      "midi": 35,
      "hit": false,
      "t": 25312.5,
      "d": 117.1875,
      "v": 113
    },
    {
      "midi": 47,
      "hit": false,
      "t": 25312.5,
      "d": 117.1875,
      "v": 110
    },
    {
      "midi": 47,
      "hit": false,
      "t": 25312.5,
      "d": 117.1875,
      "v": 127
    },
    {
      "midi": 57,
      "hit": false,
      "t": 25312.5,
      "d": 148.92578125,
      "v": 127
    },
    {
      "midi": 35,
      "hit": false,
      "t": 25546.875,
      "d": 117.1875,
      "v": 107
    },
    {
      "midi": 66,
      "hit": false,
      "t": 25546.875,
      "d": 56.15234375,
      "v": 110
    },
    {
      "midi": 63,
      "hit": false,
      "t": 25546.875,
      "d": 61.03515625,
      "v": 110
    },
    {
      "midi": 59,
      "hit": false,
      "t": 25546.875,
      "d": 78.125,
      "v": 105
    },
    {
      "midi": 47,
      "hit": false,
      "t": 25546.875,
      "d": 117.1875,
      "v": 113
    },
    {
      "midi": 47,
      "hit": false,
      "t": 25546.875,
      "d": 117.1875,
      "v": 127
    },
    {
      "midi": 57,
      "hit": false,
      "t": 25546.875,
      "d": 236.81640625,
      "v": 127
    },
    {
      "midi": 35,
      "hit": false,
      "t": 25781.25,
      "d": 117.1875,
      "v": 107
    },
    {
      "midi": 47,
      "hit": false,
      "t": 25781.25,
      "d": 117.1875,
      "v": 113
    },
    {
      "midi": 47,
      "hit": false,
      "t": 25781.25,
      "d": 117.1875,
      "v": 127
    },
    {
      "midi": 56,
      "hit": false,
      "t": 25781.25,
      "d": 234.375,
      "v": 122
    },
    {
      "midi": 35,
      "hit": false,
      "t": 26015.625,
      "d": 117.1875,
      "v": 116
    },
    {
      "midi": 63,
      "hit": false,
      "t": 26015.625,
      "d": 51.26953125,
      "v": 105
    },
    {
      "midi": 66,
      "hit": false,
      "t": 26015.625,
      "d": 53.7109375,
      "v": 105
    },
    {
      "midi": 59,
      "hit": false,
      "t": 26015.625,
      "d": 65.91796875,
      "v": 100
    },
    {
      "midi": 47,
      "hit": false,
      "t": 26015.625,
      "d": 117.1875,
      "v": 105
    },
    {
      "midi": 47,
      "hit": false,
      "t": 26015.625,
      "d": 117.1875,
      "v": 123
    },
    {
      "midi": 56,
      "hit": false,
      "t": 26015.625,
      "d": 241.69921875,
      "v": 127
    },
    {
      "midi": 28,
      "hit": false,
      "t": 26250,
      "d": 117.1875,
      "v": 127
    },
    {
      "midi": 52,
      "hit": false,
      "t": 26250,
      "d": 3703.61328125,
      "v": 127
    },
    {
      "midi": 52,
      "hit": false,
      "t": 26250,
      "d": 117.1875,
      "v": 113
    },
    {
      "midi": 52,
      "hit": false,
      "t": 26250,
      "d": 117.1875,
      "v": 127
    },
    {
      "midi": 28,
      "hit": false,
      "t": 26484.375,
      "d": 117.1875,
      "v": 119
    },
    {
      "midi": 64,
      "hit": false,
      "t": 26484.375,
      "d": 78.125,
      "v": 64
    },
    {
      "midi": 68,
      "hit": false,
      "t": 26484.375,
      "d": 92.7734375,
      "v": 95
    },
    {
      "midi": 71,
      "hit": false,
      "t": 26484.375,
      "d": 107.421875,
      "v": 89
    },
    {
      "midi": 52,
      "hit": false,
      "t": 26484.375,
      "d": 258.7890625,
      "v": 116
    },
    {
      "midi": 52,
      "hit": false,
      "t": 26484.375,
      "d": 258.7890625,
      "v": 127
    },
    {
      "midi": 28,
      "hit": false,
      "t": 26718.75,
      "d": 117.1875,
      "v": 105
    },
    {
      "midi": 56,
      "hit": false,
      "t": 26718.75,
      "d": 173.33984375,
      "v": 119
    },
    {
      "midi": 56,
      "hit": false,
      "t": 26718.75,
      "d": 173.33984375,
      "v": 127
    },
    {
      "midi": 28,
      "hit": false,
      "t": 26953.125,
      "d": 117.1875,
      "v": 107
    },
    {
      "midi": 68,
      "hit": false,
      "t": 26953.125,
      "d": 65.91796875,
      "v": 95
    },
    {
      "midi": 71,
      "hit": false,
      "t": 26953.125,
      "d": 65.91796875,
      "v": 100
    },
    {
      "midi": 64,
      "hit": false,
      "t": 26953.125,
      "d": 78.125,
      "v": 110
    },
    {
      "midi": 52,
      "hit": false,
      "t": 26953.125,
      "d": 219.7265625,
      "v": 107
    },
    {
      "midi": 52,
      "hit": false,
      "t": 26953.125,
      "d": 219.7265625,
      "v": 125
    },
    {
      "midi": 28,
      "hit": false,
      "t": 27187.5,
      "d": 117.1875,
      "v": 110
    },
    {
      "midi": 59,
      "hit": false,
      "t": 27187.5,
      "d": 288.0859375,
      "v": 119
    },
    {
      "midi": 59,
      "hit": false,
      "t": 27187.5,
      "d": 288.0859375,
      "v": 127
    },
    {
      "midi": 28,
      "hit": false,
      "t": 27421.875,
      "d": 117.1875,
      "v": 107
    },
    {
      "midi": 64,
      "hit": false,
      "t": 27421.875,
      "d": 63.4765625,
      "v": 105
    },
    {
      "midi": 68,
      "hit": false,
      "t": 27421.875,
      "d": 68.359375,
      "v": 100
    },
    {
      "midi": 71,
      "hit": false,
      "t": 27421.875,
      "d": 75.68359375,
      "v": 100
    },
    {
      "midi": 52,
      "hit": false,
      "t": 27421.875,
      "d": 224.609375,
      "v": 107
    },
    {
      "midi": 52,
      "hit": false,
      "t": 27421.875,
      "d": 224.609375,
      "v": 125
    },
    {
      "midi": 28,
      "hit": false,
      "t": 27656.25,
      "d": 117.1875,
      "v": 102
    },
    {
      "midi": 57,
      "hit": false,
      "t": 27656.25,
      "d": 290.52734375,
      "v": 105
    },
    {
      "midi": 57,
      "hit": false,
      "t": 27656.25,
      "d": 290.52734375,
      "v": 123
    },
    {
      "midi": 28,
      "hit": false,
      "t": 27890.625,
      "d": 117.1875,
      "v": 102
    },
    {
      "midi": 64,
      "hit": false,
      "t": 27890.625,
      "d": 70.80078125,
      "v": 107
    },
    {
      "midi": 68,
      "hit": false,
      "t": 27890.625,
      "d": 70.80078125,
      "v": 93
    },
    {
      "midi": 71,
      "hit": false,
      "t": 27890.625,
      "d": 70.80078125,
      "v": 100
    },
    {
      "midi": 56,
      "hit": false,
      "t": 27890.625,
      "d": 214.84375,
      "v": 105
    },
    {
      "midi": 56,
      "hit": false,
      "t": 27890.625,
      "d": 214.84375,
      "v": 123
    },
    {
      "midi": 28,
      "hit": false,
      "t": 28125,
      "d": 117.1875,
      "v": 105
    },
    {
      "midi": 52,
      "hit": false,
      "t": 28125,
      "d": 117.1875,
      "v": 113
    },
    {
      "midi": 52,
      "hit": false,
      "t": 28125,
      "d": 117.1875,
      "v": 127
    },
    {
      "midi": 28,
      "hit": false,
      "t": 28359.375,
      "d": 117.1875,
      "v": 105
    },
    {
      "midi": 68,
      "hit": false,
      "t": 28359.375,
      "d": 58.59375,
      "v": 93
    },
    {
      "midi": 71,
      "hit": false,
      "t": 28359.375,
      "d": 68.359375,
      "v": 102
    },
    {
      "midi": 64,
      "hit": false,
      "t": 28359.375,
      "d": 73.2421875,
      "v": 113
    },
    {
      "midi": 52,
      "hit": false,
      "t": 28359.375,
      "d": 117.1875,
      "v": 105
    },
    {
      "midi": 52,
      "hit": false,
      "t": 28359.375,
      "d": 117.1875,
      "v": 123
    },
    {
      "midi": 28,
      "hit": false,
      "t": 28593.75,
      "d": 117.1875,
      "v": 107
    },
    {
      "midi": 52,
      "hit": false,
      "t": 28593.75,
      "d": 117.1875,
      "v": 110
    },
    {
      "midi": 52,
      "hit": false,
      "t": 28593.75,
      "d": 117.1875,
      "v": 127
    },
    {
      "midi": 56,
      "hit": false,
      "t": 28593.75,
      "d": 90.33203125,
      "v": 127
    },
    {
      "midi": 28,
      "hit": false,
      "t": 28828.125,
      "d": 117.1875,
      "v": 105
    },
    {
      "midi": 71,
      "hit": false,
      "t": 28828.125,
      "d": 58.59375,
      "v": 100
    },
    {
      "midi": 68,
      "hit": false,
      "t": 28828.125,
      "d": 65.91796875,
      "v": 100
    },
    {
      "midi": 64,
      "hit": false,
      "t": 28828.125,
      "d": 70.80078125,
      "v": 110
    },
    {
      "midi": 52,
      "hit": false,
      "t": 28828.125,
      "d": 117.1875,
      "v": 95
    },
    {
      "midi": 52,
      "hit": false,
      "t": 28828.125,
      "d": 117.1875,
      "v": 113
    },
    {
      "midi": 56,
      "hit": false,
      "t": 28828.125,
      "d": 100.09765625,
      "v": 127
    },
    {
      "midi": 28,
      "hit": false,
      "t": 29062.5,
      "d": 117.1875,
      "v": 107
    },
    {
      "midi": 52,
      "hit": false,
      "t": 29062.5,
      "d": 117.1875,
      "v": 98
    },
    {
      "midi": 52,
      "hit": false,
      "t": 29062.5,
      "d": 117.1875,
      "v": 116
    },
    {
      "midi": 56,
      "hit": false,
      "t": 29062.5,
      "d": 185.546875,
      "v": 127
    },
    {
      "midi": 28,
      "hit": false,
      "t": 29296.875,
      "d": 117.1875,
      "v": 107
    },
    {
      "midi": 64,
      "hit": false,
      "t": 29296.875,
      "d": 63.4765625,
      "v": 113
    },
    {
      "midi": 68,
      "hit": false,
      "t": 29296.875,
      "d": 65.91796875,
      "v": 98
    },
    {
      "midi": 71,
      "hit": false,
      "t": 29296.875,
      "d": 65.91796875,
      "v": 102
    },
    {
      "midi": 52,
      "hit": false,
      "t": 29296.875,
      "d": 117.1875,
      "v": 102
    },
    {
      "midi": 52,
      "hit": false,
      "t": 29296.875,
      "d": 117.1875,
      "v": 120
    },
    {
      "midi": 57,
      "hit": false,
      "t": 29296.875,
      "d": 129.39453125,
      "v": 127
    },
    {
      "midi": 28,
      "hit": false,
      "t": 29531.25,
      "d": 117.1875,
      "v": 102
    },
    {
      "midi": 52,
      "hit": false,
      "t": 29531.25,
      "d": 117.1875,
      "v": 110
    },
    {
      "midi": 52,
      "hit": false,
      "t": 29531.25,
      "d": 117.1875,
      "v": 127
    },
    {
      "midi": 57,
      "hit": false,
      "t": 29531.25,
      "d": 83.0078125,
      "v": 127
    },
    {
      "midi": 28,
      "hit": false,
      "t": 29765.625,
      "d": 117.1875,
      "v": 113
    },
    {
      "midi": 64,
      "hit": false,
      "t": 29765.625,
      "d": 56.15234375,
      "v": 110
    },
    {
      "midi": 68,
      "hit": false,
      "t": 29765.625,
      "d": 56.15234375,
      "v": 105
    },
    {
      "midi": 71,
      "hit": false,
      "t": 29765.625,
      "d": 61.03515625,
      "v": 110
    },
    {
      "midi": 52,
      "hit": false,
      "t": 29765.625,
      "d": 117.1875,
      "v": 107
    },
    {
      "midi": 52,
      "hit": false,
      "t": 29765.625,
      "d": 117.1875,
      "v": 125
    },
    {
      "midi": 59,
      "hit": false,
      "t": 29765.625,
      "d": 375.9765625,
      "v": 127
    },
    {
      "midi": 35,
      "hit": false,
      "t": 30000,
      "d": 117.1875,
      "v": 116
    },
    {
      "midi": 47,
      "hit": false,
      "t": 30000,
      "d": 3723.14453125,
      "v": 119
    },
    {
      "midi": 47,
      "hit": false,
      "t": 30000,
      "d": 117.1875,
      "v": 116
    },
    {
      "midi": 47,
      "hit": false,
      "t": 30000,
      "d": 117.1875,
      "v": 127
    },
    {
      "midi": 35,
      "hit": false,
      "t": 30234.375,
      "d": 117.1875,
      "v": 102
    },
    {
      "midi": 66,
      "hit": false,
      "t": 30234.375,
      "d": 56.15234375,
      "v": 105
    },
    {
      "midi": 63,
      "hit": false,
      "t": 30234.375,
      "d": 70.80078125,
      "v": 110
    },
    {
      "midi": 59,
      "hit": false,
      "t": 30234.375,
      "d": 90.33203125,
      "v": 93
    },
    {
      "midi": 47,
      "hit": false,
      "t": 30234.375,
      "d": 253.90625,
      "v": 127
    },
    {
      "midi": 47,
      "hit": false,
      "t": 30234.375,
      "d": 253.90625,
      "v": 127
    },
    {
      "midi": 59,
      "hit": false,
      "t": 30234.375,
      "d": 90.33203125,
      "v": 122
    },
    {
      "midi": 35,
      "hit": false,
      "t": 30468.75,
      "d": 117.1875,
      "v": 116
    },
    {
      "midi": 51,
      "hit": false,
      "t": 30468.75,
      "d": 205.078125,
      "v": 116
    },
    {
      "midi": 51,
      "hit": false,
      "t": 30468.75,
      "d": 205.078125,
      "v": 127
    },
    {
      "midi": 59,
      "hit": false,
      "t": 30468.75,
      "d": 97.65625,
      "v": 127
    },
    {
      "midi": 35,
      "hit": false,
      "t": 30703.125,
      "d": 117.1875,
      "v": 110
    },
    {
      "midi": 63,
      "hit": false,
      "t": 30703.125,
      "d": 39.0625,
      "v": 105
    },
    {
      "midi": 66,
      "hit": false,
      "t": 30703.125,
      "d": 48.828125,
      "v": 113
    },
    {
      "midi": 59,
      "hit": false,
      "t": 30703.125,
      "d": 51.26953125,
      "v": 100
    },
    {
      "midi": 47,
      "hit": false,
      "t": 30703.125,
      "d": 239.2578125,
      "v": 113
    },
    {
      "midi": 47,
      "hit": false,
      "t": 30703.125,
      "d": 239.2578125,
      "v": 127
    },
    {
      "midi": 59,
      "hit": false,
      "t": 30703.125,
      "d": 329.58984375,
      "v": 127
    },
    {
      "midi": 35,
      "hit": false,
      "t": 30937.5,
      "d": 117.1875,
      "v": 116
    },
    {
      "midi": 54,
      "hit": false,
      "t": 30937.5,
      "d": 231.93359375,
      "v": 122
    },
    {
      "midi": 54,
      "hit": false,
      "t": 30937.5,
      "d": 231.93359375,
      "v": 127
    },
    {
      "midi": 35,
      "hit": false,
      "t": 31171.875,
      "d": 117.1875,
      "v": 107
    },
    {
      "midi": 63,
      "hit": false,
      "t": 31171.875,
      "d": 56.15234375,
      "v": 116
    },
    {
      "midi": 66,
      "hit": false,
      "t": 31171.875,
      "d": 56.15234375,
      "v": 116
    },
    {
      "midi": 59,
      "hit": false,
      "t": 31171.875,
      "d": 58.59375,
      "v": 102
    },
    {
      "midi": 47,
      "hit": false,
      "t": 31171.875,
      "d": 219.7265625,
      "v": 110
    },
    {
      "midi": 47,
      "hit": false,
      "t": 31171.875,
      "d": 219.7265625,
      "v": 127
    },
    {
      "midi": 59,
      "hit": false,
      "t": 31171.875,
      "d": 83.0078125,
      "v": 122
    },
    {
      "midi": 35,
      "hit": false,
      "t": 31406.25,
      "d": 117.1875,
      "v": 116
    },
    {
      "midi": 52,
      "hit": false,
      "t": 31406.25,
      "d": 263.671875,
      "v": 122
    },
    {
      "midi": 52,
      "hit": false,
      "t": 31406.25,
      "d": 263.671875,
      "v": 127
    },
    {
      "midi": 59,
      "hit": false,
      "t": 31406.25,
      "d": 92.7734375,
      "v": 127
    },
    {
      "midi": 35,
      "hit": false,
      "t": 31640.625,
      "d": 117.1875,
      "v": 110
    },
    {
      "midi": 63,
      "hit": false,
      "t": 31640.625,
      "d": 51.26953125,
      "v": 107
    },
    {
      "midi": 66,
      "hit": false,
      "t": 31640.625,
      "d": 53.7109375,
      "v": 110
    },
    {
      "midi": 59,
      "hit": false,
      "t": 31640.625,
      "d": 68.359375,
      "v": 100
    },
    {
      "midi": 51,
      "hit": false,
      "t": 31640.625,
      "d": 251.46484375,
      "v": 102
    },
    {
      "midi": 51,
      "hit": false,
      "t": 31640.625,
      "d": 251.46484375,
      "v": 120
    },
    {
      "midi": 59,
      "hit": false,
      "t": 31640.625,
      "d": 332.03125,
      "v": 127
    },
    {
      "midi": 35,
      "hit": false,
      "t": 31875,
      "d": 117.1875,
      "v": 113
    },
    {
      "midi": 47,
      "hit": false,
      "t": 31875,
      "d": 117.1875,
      "v": 116
    },
    {
      "midi": 47,
      "hit": false,
      "t": 31875,
      "d": 117.1875,
      "v": 127
    },
    {
      "midi": 35,
      "hit": false,
      "t": 32109.375,
      "d": 117.1875,
      "v": 107
    },
    {
      "midi": 66,
      "hit": false,
      "t": 32109.375,
      "d": 58.59375,
      "v": 113
    },
    {
      "midi": 63,
      "hit": false,
      "t": 32109.375,
      "d": 63.4765625,
      "v": 113
    },
    {
      "midi": 59,
      "hit": false,
      "t": 32109.375,
      "d": 70.80078125,
      "v": 105
    },
    {
      "midi": 47,
      "hit": false,
      "t": 32109.375,
      "d": 117.1875,
      "v": 113
    },
    {
      "midi": 47,
      "hit": false,
      "t": 32109.375,
      "d": 117.1875,
      "v": 127
    },
    {
      "midi": 59,
      "hit": false,
      "t": 32109.375,
      "d": 85.44921875,
      "v": 107
    },
    {
      "midi": 35,
      "hit": false,
      "t": 32343.75,
      "d": 117.1875,
      "v": 110
    },
    {
      "midi": 47,
      "hit": false,
      "t": 32343.75,
      "d": 117.1875,
      "v": 105
    },
    {
      "midi": 47,
      "hit": false,
      "t": 32343.75,
      "d": 117.1875,
      "v": 123
    },
    {
      "midi": 59,
      "hit": false,
      "t": 32343.75,
      "d": 95.21484375,
      "v": 122
    },
    {
      "midi": 35,
      "hit": false,
      "t": 32578.125,
      "d": 117.1875,
      "v": 110
    },
    {
      "midi": 63,
      "hit": false,
      "t": 32578.125,
      "d": 48.828125,
      "v": 110
    },
    {
      "midi": 66,
      "hit": false,
      "t": 32578.125,
      "d": 53.7109375,
      "v": 113
    },
    {
      "midi": 59,
      "hit": false,
      "t": 32578.125,
      "d": 73.2421875,
      "v": 102
    },
    {
      "midi": 47,
      "hit": false,
      "t": 32578.125,
      "d": 117.1875,
      "v": 110
    },
    {
      "midi": 47,
      "hit": false,
      "t": 32578.125,
      "d": 117.1875,
      "v": 127
    },
    {
      "midi": 59,
      "hit": false,
      "t": 32578.125,
      "d": 397.94921875,
      "v": 127
    },
    {
      "midi": 35,
      "hit": false,
      "t": 32812.5,
      "d": 117.1875,
      "v": 113
    },
    {
      "midi": 47,
      "hit": false,
      "t": 32812.5,
      "d": 117.1875,
      "v": 110
    },
    {
      "midi": 47,
      "hit": false,
      "t": 32812.5,
      "d": 117.1875,
      "v": 127
    },
    {
      "midi": 35,
      "hit": false,
      "t": 33046.875,
      "d": 117.1875,
      "v": 107
    },
    {
      "midi": 66,
      "hit": false,
      "t": 33046.875,
      "d": 56.15234375,
      "v": 110
    },
    {
      "midi": 63,
      "hit": false,
      "t": 33046.875,
      "d": 61.03515625,
      "v": 110
    },
    {
      "midi": 59,
      "hit": false,
      "t": 33046.875,
      "d": 78.125,
      "v": 105
    },
    {
      "midi": 47,
      "hit": false,
      "t": 33046.875,
      "d": 117.1875,
      "v": 113
    },
    {
      "midi": 47,
      "hit": false,
      "t": 33046.875,
      "d": 117.1875,
      "v": 127
    },
    {
      "midi": 57,
      "hit": false,
      "t": 33046.875,
      "d": 131.8359375,
      "v": 127
    },
    {
      "midi": 35,
      "hit": false,
      "t": 33281.25,
      "d": 117.1875,
      "v": 107
    },
    {
      "midi": 47,
      "hit": false,
      "t": 33281.25,
      "d": 117.1875,
      "v": 113
    },
    {
      "midi": 47,
      "hit": false,
      "t": 33281.25,
      "d": 117.1875,
      "v": 127
    },
    {
      "midi": 57,
      "hit": false,
      "t": 33281.25,
      "d": 92.7734375,
      "v": 127
    },
    {
      "midi": 35,
      "hit": false,
      "t": 33515.625,
      "d": 117.1875,
      "v": 116
    },
    {
      "midi": 63,
      "hit": false,
      "t": 33515.625,
      "d": 51.26953125,
      "v": 105
    },
    {
      "midi": 66,
      "hit": false,
      "t": 33515.625,
      "d": 53.7109375,
      "v": 105
    },
    {
      "midi": 59,
      "hit": false,
      "t": 33515.625,
      "d": 65.91796875,
      "v": 100
    },
    {
      "midi": 47,
      "hit": false,
      "t": 33515.625,
      "d": 117.1875,
      "v": 105
    },
    {
      "midi": 47,
      "hit": false,
      "t": 33515.625,
      "d": 117.1875,
      "v": 123
    },
    {
      "midi": 57,
      "hit": false,
      "t": 33515.625,
      "d": 219.7265625,
      "v": 127
    },
    {
      "midi": 28,
      "hit": false,
      "t": 33750,
      "d": 117.1875,
      "v": 127
    },
    {
      "midi": 52,
      "hit": false,
      "t": 33750,
      "d": 3703.61328125,
      "v": 127
    },
    {
      "midi": 52,
      "hit": false,
      "t": 33750,
      "d": 117.1875,
      "v": 113
    },
    {
      "midi": 52,
      "hit": false,
      "t": 33750,
      "d": 117.1875,
      "v": 127
    },
    {
      "midi": 56,
      "hit": false,
      "t": 33750,
      "d": 217.28515625,
      "v": 127
    },
    {
      "midi": 28,
      "hit": false,
      "t": 33984.375,
      "d": 117.1875,
      "v": 119
    },
    {
      "midi": 64,
      "hit": false,
      "t": 33984.375,
      "d": 78.125,
      "v": 64
    },
    {
      "midi": 68,
      "hit": false,
      "t": 33984.375,
      "d": 92.7734375,
      "v": 95
    },
    {
      "midi": 71,
      "hit": false,
      "t": 33984.375,
      "d": 107.421875,
      "v": 89
    },
    {
      "midi": 52,
      "hit": false,
      "t": 33984.375,
      "d": 258.7890625,
      "v": 116
    },
    {
      "midi": 52,
      "hit": false,
      "t": 33984.375,
      "d": 258.7890625,
      "v": 127
    },
    {
      "midi": 28,
      "hit": false,
      "t": 34218.75,
      "d": 117.1875,
      "v": 105
    },
    {
      "midi": 56,
      "hit": false,
      "t": 34218.75,
      "d": 173.33984375,
      "v": 119
    },
    {
      "midi": 56,
      "hit": false,
      "t": 34218.75,
      "d": 173.33984375,
      "v": 127
    },
    {
      "midi": 28,
      "hit": false,
      "t": 34453.125,
      "d": 117.1875,
      "v": 107
    },
    {
      "midi": 68,
      "hit": false,
      "t": 34453.125,
      "d": 65.91796875,
      "v": 95
    },
    {
      "midi": 71,
      "hit": false,
      "t": 34453.125,
      "d": 65.91796875,
      "v": 100
    },
    {
      "midi": 64,
      "hit": false,
      "t": 34453.125,
      "d": 78.125,
      "v": 110
    },
    {
      "midi": 52,
      "hit": false,
      "t": 34453.125,
      "d": 219.7265625,
      "v": 107
    },
    {
      "midi": 52,
      "hit": false,
      "t": 34453.125,
      "d": 219.7265625,
      "v": 125
    },
    {
      "midi": 28,
      "hit": false,
      "t": 34687.5,
      "d": 117.1875,
      "v": 110
    },
    {
      "midi": 59,
      "hit": false,
      "t": 34687.5,
      "d": 288.0859375,
      "v": 119
    },
    {
      "midi": 59,
      "hit": false,
      "t": 34687.5,
      "d": 288.0859375,
      "v": 127
    },
    {
      "midi": 28,
      "hit": false,
      "t": 34921.875,
      "d": 117.1875,
      "v": 107
    },
    {
      "midi": 64,
      "hit": false,
      "t": 34921.875,
      "d": 63.4765625,
      "v": 105
    },
    {
      "midi": 68,
      "hit": false,
      "t": 34921.875,
      "d": 68.359375,
      "v": 100
    },
    {
      "midi": 71,
      "hit": false,
      "t": 34921.875,
      "d": 75.68359375,
      "v": 100
    },
    {
      "midi": 52,
      "hit": false,
      "t": 34921.875,
      "d": 224.609375,
      "v": 107
    },
    {
      "midi": 52,
      "hit": false,
      "t": 34921.875,
      "d": 224.609375,
      "v": 125
    },
    {
      "midi": 28,
      "hit": false,
      "t": 35156.25,
      "d": 117.1875,
      "v": 102
    },
    {
      "midi": 57,
      "hit": false,
      "t": 35156.25,
      "d": 290.52734375,
      "v": 105
    },
    {
      "midi": 57,
      "hit": false,
      "t": 35156.25,
      "d": 290.52734375,
      "v": 123
    },
    {
      "midi": 28,
      "hit": false,
      "t": 35390.625,
      "d": 117.1875,
      "v": 102
    },
    {
      "midi": 64,
      "hit": false,
      "t": 35390.625,
      "d": 70.80078125,
      "v": 107
    },
    {
      "midi": 68,
      "hit": false,
      "t": 35390.625,
      "d": 70.80078125,
      "v": 93
    },
    {
      "midi": 71,
      "hit": false,
      "t": 35390.625,
      "d": 70.80078125,
      "v": 100
    },
    {
      "midi": 56,
      "hit": false,
      "t": 35390.625,
      "d": 214.84375,
      "v": 105
    },
    {
      "midi": 56,
      "hit": false,
      "t": 35390.625,
      "d": 214.84375,
      "v": 123
    },
    {
      "midi": 28,
      "hit": false,
      "t": 35625,
      "d": 117.1875,
      "v": 105
    },
    {
      "midi": 52,
      "hit": false,
      "t": 35625,
      "d": 117.1875,
      "v": 113
    },
    {
      "midi": 52,
      "hit": false,
      "t": 35625,
      "d": 117.1875,
      "v": 127
    },
    {
      "midi": 28,
      "hit": false,
      "t": 35859.375,
      "d": 117.1875,
      "v": 105
    },
    {
      "midi": 68,
      "hit": false,
      "t": 35859.375,
      "d": 58.59375,
      "v": 93
    },
    {
      "midi": 71,
      "hit": false,
      "t": 35859.375,
      "d": 68.359375,
      "v": 102
    },
    {
      "midi": 64,
      "hit": false,
      "t": 35859.375,
      "d": 73.2421875,
      "v": 113
    },
    {
      "midi": 52,
      "hit": false,
      "t": 35859.375,
      "d": 117.1875,
      "v": 105
    },
    {
      "midi": 52,
      "hit": false,
      "t": 35859.375,
      "d": 117.1875,
      "v": 123
    },
    {
      "midi": 28,
      "hit": false,
      "t": 36093.75,
      "d": 117.1875,
      "v": 107
    },
    {
      "midi": 52,
      "hit": false,
      "t": 36093.75,
      "d": 117.1875,
      "v": 110
    },
    {
      "midi": 52,
      "hit": false,
      "t": 36093.75,
      "d": 117.1875,
      "v": 127
    },
    {
      "midi": 56,
      "hit": false,
      "t": 36093.75,
      "d": 65.91796875,
      "v": 127
    },
    {
      "midi": 59,
      "hit": false,
      "t": 36093.75,
      "d": 83.0078125,
      "v": 127
    },
    {
      "midi": 28,
      "hit": false,
      "t": 36328.125,
      "d": 117.1875,
      "v": 105
    },
    {
      "midi": 71,
      "hit": false,
      "t": 36328.125,
      "d": 58.59375,
      "v": 100
    },
    {
      "midi": 68,
      "hit": false,
      "t": 36328.125,
      "d": 65.91796875,
      "v": 100
    },
    {
      "midi": 64,
      "hit": false,
      "t": 36328.125,
      "d": 70.80078125,
      "v": 110
    },
    {
      "midi": 52,
      "hit": false,
      "t": 36328.125,
      "d": 117.1875,
      "v": 95
    },
    {
      "midi": 52,
      "hit": false,
      "t": 36328.125,
      "d": 117.1875,
      "v": 113
    },
    {
      "midi": 56,
      "hit": false,
      "t": 36328.125,
      "d": 68.359375,
      "v": 127
    },
    {
      "midi": 59,
      "hit": false,
      "t": 36328.125,
      "d": 80.56640625,
      "v": 127
    },
    {
      "midi": 28,
      "hit": false,
      "t": 36562.5,
      "d": 117.1875,
      "v": 107
    },
    {
      "midi": 52,
      "hit": false,
      "t": 36562.5,
      "d": 117.1875,
      "v": 98
    },
    {
      "midi": 52,
      "hit": false,
      "t": 36562.5,
      "d": 117.1875,
      "v": 116
    },
    {
      "midi": 56,
      "hit": false,
      "t": 36562.5,
      "d": 173.33984375,
      "v": 127
    },
    {
      "midi": 59,
      "hit": false,
      "t": 36562.5,
      "d": 205.078125,
      "v": 127
    },
    {
      "midi": 28,
      "hit": false,
      "t": 36796.875,
      "d": 117.1875,
      "v": 107
    },
    {
      "midi": 64,
      "hit": false,
      "t": 36796.875,
      "d": 63.4765625,
      "v": 113
    },
    {
      "midi": 68,
      "hit": false,
      "t": 36796.875,
      "d": 65.91796875,
      "v": 98
    },
    {
      "midi": 71,
      "hit": false,
      "t": 36796.875,
      "d": 65.91796875,
      "v": 102
    },
    {
      "midi": 52,
      "hit": false,
      "t": 36796.875,
      "d": 117.1875,
      "v": 102
    },
    {
      "midi": 52,
      "hit": false,
      "t": 36796.875,
      "d": 117.1875,
      "v": 120
    },
    {
      "midi": 61,
      "hit": false,
      "t": 36796.875,
      "d": 168.45703125,
      "v": 127
    },
    {
      "midi": 57,
      "hit": false,
      "t": 36796.875,
      "d": 197.75390625,
      "v": 127
    },
    {
      "midi": 28,
      "hit": false,
      "t": 37031.25,
      "d": 117.1875,
      "v": 102
    },
    {
      "midi": 52,
      "hit": false,
      "t": 37031.25,
      "d": 117.1875,
      "v": 110
    },
    {
      "midi": 52,
      "hit": false,
      "t": 37031.25,
      "d": 117.1875,
      "v": 127
    },
    {
      "midi": 59,
      "hit": false,
      "t": 37031.25,
      "d": 129.39453125,
      "v": 122
    },
    {
      "midi": 63,
      "hit": false,
      "t": 37031.25,
      "d": 129.39453125,
      "v": 120
    },
    {
      "midi": 28,
      "hit": false,
      "t": 37265.625,
      "d": 117.1875,
      "v": 113
    },
    {
      "midi": 64,
      "hit": false,
      "t": 37265.625,
      "d": 56.15234375,
      "v": 110
    },
    {
      "midi": 68,
      "hit": false,
      "t": 37265.625,
      "d": 56.15234375,
      "v": 105
    },
    {
      "midi": 71,
      "hit": false,
      "t": 37265.625,
      "d": 61.03515625,
      "v": 110
    },
    {
      "midi": 52,
      "hit": false,
      "t": 37265.625,
      "d": 117.1875,
      "v": 107
    },
    {
      "midi": 52,
      "hit": false,
      "t": 37265.625,
      "d": 117.1875,
      "v": 125
    },
    {
      "midi": 64,
      "hit": false,
      "t": 37265.625,
      "d": 117.1875,
      "v": 122
    },
    {
      "midi": 61,
      "hit": false,
      "t": 37265.625,
      "d": 134.27734375,
      "v": 127
    },
    {
      "midi": 59,
      "hit": false,
      "t": 37382.8125,
      "d": 117.1875,
      "v": 122
    },
    {
      "midi": 63,
      "hit": false,
      "t": 37382.8125,
      "d": 183.10546875,
      "v": 127
    },
    {
      "midi": 33,
      "hit": false,
      "t": 37500,
      "d": 117.1875,
      "v": 127
    },
    {
      "midi": 64,
      "hit": false,
      "t": 37500,
      "d": 3708.49609375,
      "v": 110
    },
    {
      "midi": 57,
      "hit": false,
      "t": 37500,
      "d": 70.80078125,
      "v": 110
    },
    {
      "midi": 57,
      "hit": false,
      "t": 37500,
      "d": 70.80078125,
      "v": 127
    },
    {
      "midi": 64,
      "hit": false,
      "t": 37500,
      "d": 205.078125,
      "v": 127
    },
    {
      "midi": 61,
      "hit": false,
      "t": 37500,
      "d": 270.99609375,
      "v": 127
    },
    {
      "midi": 33,
      "hit": false,
      "t": 37734.375,
      "d": 117.1875,
      "v": 127
    },
    {
      "midi": 73,
      "hit": false,
      "t": 37734.375,
      "d": 83.0078125,
      "v": 100
    },
    {
      "midi": 76,
      "hit": false,
      "t": 37734.375,
      "d": 87.890625,
      "v": 89
    },
    {
      "midi": 69,
      "hit": false,
      "t": 37734.375,
      "d": 90.33203125,
      "v": 87
    },
    {
      "midi": 57,
      "hit": false,
      "t": 37734.375,
      "d": 212.40234375,
      "v": 113
    },
    {
      "midi": 57,
      "hit": false,
      "t": 37734.375,
      "d": 212.40234375,
      "v": 127
    },
    {
      "midi": 33,
      "hit": false,
      "t": 37968.75,
      "d": 117.1875,
      "v": 127
    },
    {
      "midi": 61,
      "hit": false,
      "t": 37968.75,
      "d": 185.546875,
      "v": 110
    },
    {
      "midi": 61,
      "hit": false,
      "t": 37968.75,
      "d": 185.546875,
      "v": 127
    },
    {
      "midi": 33,
      "hit": false,
      "t": 38203.125,
      "d": 117.1875,
      "v": 127
    },
    {
      "midi": 73,
      "hit": false,
      "t": 38203.125,
      "d": 58.59375,
      "v": 110
    },
    {
      "midi": 76,
      "hit": false,
      "t": 38203.125,
      "d": 65.91796875,
      "v": 107
    },
    {
      "midi": 69,
      "hit": false,
      "t": 38203.125,
      "d": 70.80078125,
      "v": 105
    },
    {
      "midi": 57,
      "hit": false,
      "t": 38203.125,
      "d": 209.9609375,
      "v": 107
    },
    {
      "midi": 57,
      "hit": false,
      "t": 38203.125,
      "d": 209.9609375,
      "v": 125
    },
    {
      "midi": 33,
      "hit": false,
      "t": 38437.5,
      "d": 117.1875,
      "v": 127
    },
    {
      "midi": 64,
      "hit": false,
      "t": 38437.5,
      "d": 244.140625,
      "v": 119
    },
    {
      "midi": 64,
      "hit": false,
      "t": 38437.5,
      "d": 244.140625,
      "v": 127
    },
    {
      "midi": 33,
      "hit": false,
      "t": 38671.875,
      "d": 117.1875,
      "v": 127
    },
    {
      "midi": 73,
      "hit": false,
      "t": 38671.875,
      "d": 56.15234375,
      "v": 102
    },
    {
      "midi": 69,
      "hit": false,
      "t": 38671.875,
      "d": 68.359375,
      "v": 105
    },
    {
      "midi": 76,
      "hit": false,
      "t": 38671.875,
      "d": 68.359375,
      "v": 100
    },
    {
      "midi": 57,
      "hit": false,
      "t": 38671.875,
      "d": 214.84375,
      "v": 102
    },
    {
      "midi": 57,
      "hit": false,
      "t": 38671.875,
      "d": 214.84375,
      "v": 120
    },
    {
      "midi": 33,
      "hit": false,
      "t": 38906.25,
      "d": 117.1875,
      "v": 127
    },
    {
      "midi": 62,
      "hit": false,
      "t": 38906.25,
      "d": 263.671875,
      "v": 116
    },
    {
      "midi": 62,
      "hit": false,
      "t": 38906.25,
      "d": 263.671875,
      "v": 127
    },
    {
      "midi": 33,
      "hit": false,
      "t": 39140.625,
      "d": 117.1875,
      "v": 127
    },
    {
      "midi": 73,
      "hit": false,
      "t": 39140.625,
      "d": 56.15234375,
      "v": 105
    },
    {
      "midi": 69,
      "hit": false,
      "t": 39140.625,
      "d": 65.91796875,
      "v": 102
    },
    {
      "midi": 76,
      "hit": false,
      "t": 39140.625,
      "d": 73.2421875,
      "v": 102
    },
    {
      "midi": 61,
      "hit": false,
      "t": 39140.625,
      "d": 197.75390625,
      "v": 102
    },
    {
      "midi": 61,
      "hit": false,
      "t": 39140.625,
      "d": 197.75390625,
      "v": 120
    },
    {
      "midi": 33,
      "hit": false,
      "t": 39375,
      "d": 117.1875,
      "v": 127
    },
    {
      "midi": 57,
      "hit": false,
      "t": 39375,
      "d": 100.09765625,
      "v": 107
    },
    {
      "midi": 57,
      "hit": false,
      "t": 39375,
      "d": 100.09765625,
      "v": 125
    },
    {
      "midi": 33,
      "hit": false,
      "t": 39609.375,
      "d": 117.1875,
      "v": 127
    },
    {
      "midi": 69,
      "hit": false,
      "t": 39609.375,
      "d": 61.03515625,
      "v": 100
    },
    {
      "midi": 73,
      "hit": false,
      "t": 39609.375,
      "d": 61.03515625,
      "v": 105
    },
    {
      "midi": 76,
      "hit": false,
      "t": 39609.375,
      "d": 61.03515625,
      "v": 98
    },
    {
      "midi": 57,
      "hit": false,
      "t": 39609.375,
      "d": 200.1953125,
      "v": 105
    },
    {
      "midi": 57,
      "hit": false,
      "t": 39609.375,
      "d": 200.1953125,
      "v": 123
    },
    {
      "midi": 33,
      "hit": false,
      "t": 39843.75,
      "d": 117.1875,
      "v": 127
    },
    {
      "midi": 61,
      "hit": false,
      "t": 39843.75,
      "d": 205.078125,
      "v": 116
    },
    {
      "midi": 61,
      "hit": false,
      "t": 39843.75,
      "d": 205.078125,
      "v": 127
    },
    {
      "midi": 64,
      "hit": false,
      "t": 39843.75,
      "d": 97.65625,
      "v": 127
    },
    {
      "midi": 33,
      "hit": false,
      "t": 40078.125,
      "d": 117.1875,
      "v": 127
    },
    {
      "midi": 73,
      "hit": false,
      "t": 40078.125,
      "d": 53.7109375,
      "v": 105
    },
    {
      "midi": 69,
      "hit": false,
      "t": 40078.125,
      "d": 70.80078125,
      "v": 107
    },
    {
      "midi": 76,
      "hit": false,
      "t": 40078.125,
      "d": 70.80078125,
      "v": 100
    },
    {
      "midi": 57,
      "hit": false,
      "t": 40078.125,
      "d": 207.51953125,
      "v": 110
    },
    {
      "midi": 57,
      "hit": false,
      "t": 40078.125,
      "d": 207.51953125,
      "v": 127
    },
    {
      "midi": 64,
      "hit": false,
      "t": 40078.125,
      "d": 85.44921875,
      "v": 127
    },
    {
      "midi": 33,
      "hit": false,
      "t": 40312.5,
      "d": 117.1875,
      "v": 127
    },
    {
      "midi": 64,
      "hit": false,
      "t": 40312.5,
      "d": 166.015625,
      "v": 107
    },
    {
      "midi": 64,
      "hit": false,
      "t": 40312.5,
      "d": 166.015625,
      "v": 125
    },
    {
      "midi": 64,
      "hit": false,
      "t": 40312.5,
      "d": 449.21875,
      "v": 127
    },
    {
      "midi": 33,
      "hit": false,
      "t": 40546.875,
      "d": 117.1875,
      "v": 127
    },
    {
      "midi": 69,
      "hit": false,
      "t": 40546.875,
      "d": 61.03515625,
      "v": 100
    },
    {
      "midi": 73,
      "hit": false,
      "t": 40546.875,
      "d": 65.91796875,
      "v": 105
    },
    {
      "midi": 76,
      "hit": false,
      "t": 40546.875,
      "d": 80.56640625,
      "v": 100
    },
    {
      "midi": 57,
      "hit": false,
      "t": 40546.875,
      "d": 200.1953125,
      "v": 105
    },
    {
      "midi": 57,
      "hit": false,
      "t": 40546.875,
      "d": 200.1953125,
      "v": 123
    },
    {
      "midi": 33,
      "hit": false,
      "t": 40781.25,
      "d": 117.1875,
      "v": 127
    },
    {
      "midi": 61,
      "hit": false,
      "t": 40781.25,
      "d": 239.2578125,
      "v": 127
    },
    {
      "midi": 33,
      "hit": false,
      "t": 41015.625,
      "d": 117.1875,
      "v": 127
    },
    {
      "midi": 73,
      "hit": false,
      "t": 41015.625,
      "d": 61.03515625,
      "v": 105
    },
    {
      "midi": 76,
      "hit": false,
      "t": 41015.625,
      "d": 73.2421875,
      "v": 100
    },
    {
      "midi": 69,
      "hit": false,
      "t": 41015.625,
      "d": 78.125,
      "v": 105
    },
    {
      "midi": 61,
      "hit": false,
      "t": 41015.625,
      "d": 46.38671875,
      "v": 107
    },
    {
      "midi": 61,
      "hit": false,
      "t": 41015.625,
      "d": 46.38671875,
      "v": 125
    },
    {
      "midi": 28,
      "hit": false,
      "t": 41250,
      "d": 117.1875,
      "v": 127
    },
    {
      "midi": 59,
      "hit": false,
      "t": 41250,
      "d": 3752.44140625,
      "v": 107
    },
    {
      "midi": 52,
      "hit": false,
      "t": 41250,
      "d": 85.44921875,
      "v": 113
    },
    {
      "midi": 52,
      "hit": false,
      "t": 41250,
      "d": 85.44921875,
      "v": 127
    },
    {
      "midi": 61,
      "hit": false,
      "t": 41250,
      "d": 395.5078125,
      "v": 127
    },
    {
      "midi": 28,
      "hit": false,
      "t": 41484.375,
      "d": 117.1875,
      "v": 127
    },
    {
      "midi": 64,
      "hit": false,
      "t": 41484.375,
      "d": 100.09765625,
      "v": 100
    },
    {
      "midi": 68,
      "hit": false,
      "t": 41484.375,
      "d": 100.09765625,
      "v": 98
    },
    {
      "midi": 71,
      "hit": false,
      "t": 41484.375,
      "d": 114.74609375,
      "v": 95
    },
    {
      "midi": 52,
      "hit": false,
      "t": 41484.375,
      "d": 246.58203125,
      "v": 113
    },
    {
      "midi": 52,
      "hit": false,
      "t": 41484.375,
      "d": 246.58203125,
      "v": 127
    },
    {
      "midi": 28,
      "hit": false,
      "t": 41718.75,
      "d": 117.1875,
      "v": 127
    },
    {
      "midi": 56,
      "hit": false,
      "t": 41718.75,
      "d": 197.75390625,
      "v": 119
    },
    {
      "midi": 56,
      "hit": false,
      "t": 41718.75,
      "d": 197.75390625,
      "v": 127
    },
    {
      "midi": 59,
      "hit": false,
      "t": 41718.75,
      "d": 83.0078125,
      "v": 127
    },
    {
      "midi": 28,
      "hit": false,
      "t": 41953.125,
      "d": 117.1875,
      "v": 127
    },
    {
      "midi": 64,
      "hit": false,
      "t": 41953.125,
      "d": 85.44921875,
      "v": 105
    },
    {
      "midi": 71,
      "hit": false,
      "t": 41953.125,
      "d": 107.421875,
      "v": 100
    },
    {
      "midi": 68,
      "hit": false,
      "t": 41953.125,
      "d": 112.3046875,
      "v": 100
    },
    {
      "midi": 52,
      "hit": false,
      "t": 41953.125,
      "d": 205.078125,
      "v": 105
    },
    {
      "midi": 52,
      "hit": false,
      "t": 41953.125,
      "d": 205.078125,
      "v": 123
    },
    {
      "midi": 59,
      "hit": false,
      "t": 41953.125,
      "d": 275.87890625,
      "v": 127
    },
    {
      "midi": 28,
      "hit": false,
      "t": 42187.5,
      "d": 117.1875,
      "v": 127
    },
    {
      "midi": 59,
      "hit": false,
      "t": 42187.5,
      "d": 229.4921875,
      "v": 122
    },
    {
      "midi": 59,
      "hit": false,
      "t": 42187.5,
      "d": 229.4921875,
      "v": 127
    },
    {
      "midi": 28,
      "hit": false,
      "t": 42421.875,
      "d": 117.1875,
      "v": 127
    },
    {
      "midi": 68,
      "hit": false,
      "t": 42421.875,
      "d": 78.125,
      "v": 100
    },
    {
      "midi": 64,
      "hit": false,
      "t": 42421.875,
      "d": 85.44921875,
      "v": 107
    },
    {
      "midi": 71,
      "hit": false,
      "t": 42421.875,
      "d": 90.33203125,
      "v": 100
    },
    {
      "midi": 52,
      "hit": false,
      "t": 42421.875,
      "d": 185.546875,
      "v": 102
    },
    {
      "midi": 52,
      "hit": false,
      "t": 42421.875,
      "d": 185.546875,
      "v": 120
    },
    {
      "midi": 28,
      "hit": false,
      "t": 42656.25,
      "d": 117.1875,
      "v": 127
    },
    {
      "midi": 57,
      "hit": false,
      "t": 42656.25,
      "d": 273.4375,
      "v": 110
    },
    {
      "midi": 57,
      "hit": false,
      "t": 42656.25,
      "d": 273.4375,
      "v": 127
    },
    {
      "midi": 28,
      "hit": false,
      "t": 42890.625,
      "d": 117.1875,
      "v": 127
    },
    {
      "midi": 64,
      "hit": false,
      "t": 42890.625,
      "d": 68.359375,
      "v": 100
    },
    {
      "midi": 68,
      "hit": false,
      "t": 42890.625,
      "d": 75.68359375,
      "v": 98
    },
    {
      "midi": 71,
      "hit": false,
      "t": 42890.625,
      "d": 78.125,
      "v": 98
    },
    {
      "midi": 56,
      "hit": false,
      "t": 42890.625,
      "d": 168.45703125,
      "v": 102
    },
    {
      "midi": 56,
      "hit": false,
      "t": 42890.625,
      "d": 168.45703125,
      "v": 120
    },
    {
      "midi": 28,
      "hit": false,
      "t": 43125,
      "d": 117.1875,
      "v": 127
    },
    {
      "midi": 52,
      "hit": false,
      "t": 43125,
      "d": 100.09765625,
      "v": 110
    },
    {
      "midi": 52,
      "hit": false,
      "t": 43125,
      "d": 100.09765625,
      "v": 127
    },
    {
      "midi": 28,
      "hit": false,
      "t": 43359.375,
      "d": 117.1875,
      "v": 127
    },
    {
      "midi": 64,
      "hit": false,
      "t": 43359.375,
      "d": 97.65625,
      "v": 102
    },
    {
      "midi": 71,
      "hit": false,
      "t": 43359.375,
      "d": 100.09765625,
      "v": 102
    },
    {
      "midi": 68,
      "hit": false,
      "t": 43359.375,
      "d": 117.1875,
      "v": 107
    },
    {
      "midi": 52,
      "hit": false,
      "t": 43359.375,
      "d": 236.81640625,
      "v": 107
    },
    {
      "midi": 52,
      "hit": false,
      "t": 43359.375,
      "d": 236.81640625,
      "v": 125
    },
    {
      "midi": 28,
      "hit": false,
      "t": 43593.75,
      "d": 117.1875,
      "v": 127
    },
    {
      "midi": 56,
      "hit": false,
      "t": 43593.75,
      "d": 178.22265625,
      "v": 102
    },
    {
      "midi": 56,
      "hit": false,
      "t": 43593.75,
      "d": 178.22265625,
      "v": 120
    },
    {
      "midi": 28,
      "hit": false,
      "t": 43828.125,
      "d": 117.1875,
      "v": 127
    },
    {
      "midi": 64,
      "hit": false,
      "t": 43828.125,
      "d": 85.44921875,
      "v": 102
    },
    {
      "midi": 68,
      "hit": false,
      "t": 43828.125,
      "d": 85.44921875,
      "v": 100
    },
    {
      "midi": 71,
      "hit": false,
      "t": 43828.125,
      "d": 90.33203125,
      "v": 98
    },
    {
      "midi": 52,
      "hit": false,
      "t": 43828.125,
      "d": 239.2578125,
      "v": 105
    },
    {
      "midi": 52,
      "hit": false,
      "t": 43828.125,
      "d": 239.2578125,
      "v": 123
    },
    {
      "midi": 28,
      "hit": false,
      "t": 44062.5,
      "d": 117.1875,
      "v": 127
    },
    {
      "midi": 59,
      "hit": false,
      "t": 44062.5,
      "d": 217.28515625,
      "v": 110
    },
    {
      "midi": 59,
      "hit": false,
      "t": 44062.5,
      "d": 217.28515625,
      "v": 127
    },
    {
      "midi": 28,
      "hit": false,
      "t": 44296.875,
      "d": 117.1875,
      "v": 127
    },
    {
      "midi": 64,
      "hit": false,
      "t": 44296.875,
      "d": 95.21484375,
      "v": 102
    },
    {
      "midi": 68,
      "hit": false,
      "t": 44296.875,
      "d": 107.421875,
      "v": 102
    },
    {
      "midi": 71,
      "hit": false,
      "t": 44296.875,
      "d": 112.3046875,
      "v": 100
    },
    {
      "midi": 52,
      "hit": false,
      "t": 44296.875,
      "d": 212.40234375,
      "v": 102
    },
    {
      "midi": 52,
      "hit": false,
      "t": 44296.875,
      "d": 212.40234375,
      "v": 120
    },
    {
      "midi": 28,
      "hit": false,
      "t": 44531.25,
      "d": 117.1875,
      "v": 127
    },
    {
      "midi": 57,
      "hit": false,
      "t": 44531.25,
      "d": 283.203125,
      "v": 113
    },
    {
      "midi": 57,
      "hit": false,
      "t": 44531.25,
      "d": 283.203125,
      "v": 127
    },
    {
      "midi": 28,
      "hit": false,
      "t": 44765.625,
      "d": 117.1875,
      "v": 127
    },
    {
      "midi": 64,
      "hit": false,
      "t": 44765.625,
      "d": 78.125,
      "v": 102
    },
    {
      "midi": 71,
      "hit": false,
      "t": 44765.625,
      "d": 95.21484375,
      "v": 102
    },
    {
      "midi": 68,
      "hit": false,
      "t": 44765.625,
      "d": 122.0703125,
      "v": 107
    },
    {
      "midi": 56,
      "hit": false,
      "t": 44765.625,
      "d": 161.1328125,
      "v": 105
    },
    {
      "midi": 56,
      "hit": false,
      "t": 44765.625,
      "d": 161.1328125,
      "v": 123
    },
    {
      "midi": 57,
      "hit": false,
      "t": 44765.625,
      "d": 117.1875,
      "v": 127
    },
    {
      "midi": 30,
      "hit": false,
      "t": 45000,
      "d": 117.1875,
      "v": 127
    },
    {
      "midi": 61,
      "hit": false,
      "t": 45000,
      "d": 1799.31640625,
      "v": 105
    },
    {
      "midi": 54,
      "hit": false,
      "t": 45000,
      "d": 104.98046875,
      "v": 107
    },
    {
      "midi": 54,
      "hit": false,
      "t": 45000,
      "d": 104.98046875,
      "v": 125
    },
    {
      "midi": 57,
      "hit": false,
      "t": 45000,
      "d": 117.1875,
      "v": 127
    },
    {
      "midi": 30,
      "hit": false,
      "t": 45234.375,
      "d": 117.1875,
      "v": 127
    },
    {
      "midi": 73,
      "hit": false,
      "t": 45234.375,
      "d": 124.51171875,
      "v": 78
    },
    {
      "midi": 66,
      "hit": false,
      "t": 45234.375,
      "d": 129.39453125,
      "v": 89
    },
    {
      "midi": 69,
      "hit": false,
      "t": 45234.375,
      "d": 151.3671875,
      "v": 105
    },
    {
      "midi": 54,
      "hit": false,
      "t": 45234.375,
      "d": 227.05078125,
      "v": 110
    },
    {
      "midi": 54,
      "hit": false,
      "t": 45234.375,
      "d": 227.05078125,
      "v": 127
    },
    {
      "midi": 57,
      "hit": false,
      "t": 45234.375,
      "d": 117.1875,
      "v": 127
    },
    {
      "midi": 30,
      "hit": false,
      "t": 45468.75,
      "d": 117.1875,
      "v": 127
    },
    {
      "midi": 57,
      "hit": false,
      "t": 45468.75,
      "d": 229.4921875,
      "v": 110
    },
    {
      "midi": 57,
      "hit": false,
      "t": 45468.75,
      "d": 229.4921875,
      "v": 127
    },
    {
      "midi": 57,
      "hit": false,
      "t": 45468.75,
      "d": 117.1875,
      "v": 127
    },
    {
      "midi": 30,
      "hit": false,
      "t": 45703.125,
      "d": 117.1875,
      "v": 127
    },
    {
      "midi": 69,
      "hit": false,
      "t": 45703.125,
      "d": 85.44921875,
      "v": 98
    },
    {
      "midi": 66,
      "hit": false,
      "t": 45703.125,
      "d": 104.98046875,
      "v": 98
    },
    {
      "midi": 73,
      "hit": false,
      "t": 45703.125,
      "d": 134.27734375,
      "v": 102
    },
    {
      "midi": 54,
      "hit": false,
      "t": 45703.125,
      "d": 217.28515625,
      "v": 107
    },
    {
      "midi": 54,
      "hit": false,
      "t": 45703.125,
      "d": 217.28515625,
      "v": 125
    },
    {
      "midi": 57,
      "hit": false,
      "t": 45703.125,
      "d": 468.75,
      "v": 127
    },
    {
      "midi": 30,
      "hit": false,
      "t": 45937.5,
      "d": 117.1875,
      "v": 127
    },
    {
      "midi": 61,
      "hit": false,
      "t": 45937.5,
      "d": 236.81640625,
      "v": 110
    },
    {
      "midi": 61,
      "hit": false,
      "t": 45937.5,
      "d": 236.81640625,
      "v": 127
    },
    {
      "midi": 30,
      "hit": false,
      "t": 46171.875,
      "d": 117.1875,
      "v": 127
    },
    {
      "midi": 66,
      "hit": false,
      "t": 46171.875,
      "d": 95.21484375,
      "v": 102
    },
    {
      "midi": 69,
      "hit": false,
      "t": 46171.875,
      "d": 97.65625,
      "v": 110
    },
    {
      "midi": 73,
      "hit": false,
      "t": 46171.875,
      "d": 122.0703125,
      "v": 102
    },
    {
      "midi": 54,
      "hit": false,
      "t": 46171.875,
      "d": 212.40234375,
      "v": 107
    },
    {
      "midi": 54,
      "hit": false,
      "t": 46171.875,
      "d": 212.40234375,
      "v": 125
    },
    {
      "midi": 57,
      "hit": false,
      "t": 46171.875,
      "d": 468.75,
      "v": 127
    },
    {
      "midi": 30,
      "hit": false,
      "t": 46406.25,
      "d": 117.1875,
      "v": 127
    },
    {
      "midi": 57,
      "hit": false,
      "t": 46406.25,
      "d": 212.40234375,
      "v": 113
    },
    {
      "midi": 57,
      "hit": false,
      "t": 46406.25,
      "d": 212.40234375,
      "v": 127
    },
    {
      "midi": 30,
      "hit": false,
      "t": 46640.625,
      "d": 117.1875,
      "v": 127
    },
    {
      "midi": 69,
      "hit": false,
      "t": 46640.625,
      "d": 70.80078125,
      "v": 110
    },
    {
      "midi": 66,
      "hit": false,
      "t": 46640.625,
      "d": 78.125,
      "v": 100
    },
    {
      "midi": 73,
      "hit": false,
      "t": 46640.625,
      "d": 92.7734375,
      "v": 110
    },
    {
      "midi": 56,
      "hit": false,
      "t": 46640.625,
      "d": 122.0703125,
      "v": 110
    },
    {
      "midi": 56,
      "hit": false,
      "t": 46640.625,
      "d": 122.0703125,
      "v": 127
    },
    {
      "midi": 57,
      "hit": false,
      "t": 46640.625,
      "d": 117.1875,
      "v": 127
    },
    {
      "midi": 33,
      "hit": false,
      "t": 46875,
      "d": 117.1875,
      "v": 127
    },
    {
      "midi": 64,
      "hit": false,
      "t": 46875,
      "d": 1904.296875,
      "v": 113
    },
    {
      "midi": 57,
      "hit": false,
      "t": 46875,
      "d": 122.0703125,
      "v": 110
    },
    {
      "midi": 57,
      "hit": false,
      "t": 46875,
      "d": 122.0703125,
      "v": 127
    },
    {
      "midi": 57,
      "hit": false,
      "t": 46875,
      "d": 117.1875,
      "v": 127
    },
    {
      "midi": 33,
      "hit": false,
      "t": 47109.375,
      "d": 117.1875,
      "v": 127
    },
    {
      "midi": 69,
      "hit": false,
      "t": 47109.375,
      "d": 92.7734375,
      "v": 98
    },
    {
      "midi": 73,
      "hit": false,
      "t": 47109.375,
      "d": 92.7734375,
      "v": 110
    },
    {
      "midi": 76,
      "hit": false,
      "t": 47109.375,
      "d": 107.421875,
      "v": 95
    },
    {
      "midi": 57,
      "hit": false,
      "t": 47109.375,
      "d": 236.81640625,
      "v": 100
    },
    {
      "midi": 57,
      "hit": false,
      "t": 47109.375,
      "d": 236.81640625,
      "v": 118
    },
    {
      "midi": 57,
      "hit": false,
      "t": 47109.375,
      "d": 117.1875,
      "v": 127
    },
    {
      "midi": 33,
      "hit": false,
      "t": 47343.75,
      "d": 117.1875,
      "v": 127
    },
    {
      "midi": 61,
      "hit": false,
      "t": 47343.75,
      "d": 124.51171875,
      "v": 110
    },
    {
      "midi": 61,
      "hit": false,
      "t": 47343.75,
      "d": 124.51171875,
      "v": 127
    },
    {
      "midi": 57,
      "hit": false,
      "t": 47343.75,
      "d": 117.1875,
      "v": 127
    },
    {
      "midi": 33,
      "hit": false,
      "t": 47578.125,
      "d": 117.1875,
      "v": 127
    },
    {
      "midi": 69,
      "hit": false,
      "t": 47578.125,
      "d": 80.56640625,
      "v": 100
    },
    {
      "midi": 73,
      "hit": false,
      "t": 47578.125,
      "d": 80.56640625,
      "v": 110
    },
    {
      "midi": 76,
      "hit": false,
      "t": 47578.125,
      "d": 92.7734375,
      "v": 100
    },
    {
      "midi": 57,
      "hit": false,
      "t": 47578.125,
      "d": 234.375,
      "v": 107
    },
    {
      "midi": 57,
      "hit": false,
      "t": 47578.125,
      "d": 234.375,
      "v": 125
    },
    {
      "midi": 59,
      "hit": false,
      "t": 47578.125,
      "d": 703.125,
      "v": 127
    },
    {
      "midi": 33,
      "hit": false,
      "t": 47812.5,
      "d": 117.1875,
      "v": 127
    },
    {
      "midi": 64,
      "hit": false,
      "t": 47812.5,
      "d": 229.4921875,
      "v": 107
    },
    {
      "midi": 64,
      "hit": false,
      "t": 47812.5,
      "d": 229.4921875,
      "v": 125
    },
    {
      "midi": 33,
      "hit": false,
      "t": 48046.875,
      "d": 117.1875,
      "v": 127
    },
    {
      "midi": 69,
      "hit": false,
      "t": 48046.875,
      "d": 70.80078125,
      "v": 100
    },
    {
      "midi": 73,
      "hit": false,
      "t": 48046.875,
      "d": 75.68359375,
      "v": 110
    },
    {
      "midi": 76,
      "hit": false,
      "t": 48046.875,
      "d": 75.68359375,
      "v": 100
    },
    {
      "midi": 57,
      "hit": false,
      "t": 48046.875,
      "d": 263.671875,
      "v": 105
    },
    {
      "midi": 57,
      "hit": false,
      "t": 48046.875,
      "d": 263.671875,
      "v": 123
    },
    {
      "midi": 33,
      "hit": false,
      "t": 48281.25,
      "d": 117.1875,
      "v": 127
    },
    {
      "midi": 62,
      "hit": false,
      "t": 48281.25,
      "d": 256.34765625,
      "v": 110
    },
    {
      "midi": 62,
      "hit": false,
      "t": 48281.25,
      "d": 256.34765625,
      "v": 127
    },
    {
      "midi": 61,
      "hit": false,
      "t": 48281.25,
      "d": 317.3828125,
      "v": 127
    },
    {
      "midi": 33,
      "hit": false,
      "t": 48515.625,
      "d": 117.1875,
      "v": 127
    },
    {
      "midi": 69,
      "hit": false,
      "t": 48515.625,
      "d": 78.125,
      "v": 102
    },
    {
      "midi": 76,
      "hit": false,
      "t": 48515.625,
      "d": 83.0078125,
      "v": 102
    },
    {
      "midi": 73,
      "hit": false,
      "t": 48515.625,
      "d": 87.890625,
      "v": 116
    },
    {
      "midi": 61,
      "hit": false,
      "t": 48515.625,
      "d": 153.80859375,
      "v": 105
    },
    {
      "midi": 61,
      "hit": false,
      "t": 48515.625,
      "d": 153.80859375,
      "v": 123
    },
    {
      "midi": 35,
      "hit": false,
      "t": 48750,
      "d": 117.1875,
      "v": 127
    },
    {
      "midi": 66,
      "hit": false,
      "t": 48750,
      "d": 1877.44140625,
      "v": 116
    },
    {
      "midi": 59,
      "hit": false,
      "t": 48750,
      "d": 73.2421875,
      "v": 110
    },
    {
      "midi": 59,
      "hit": false,
      "t": 48750,
      "d": 73.2421875,
      "v": 127
    },
    {
      "midi": 61,
      "hit": false,
      "t": 48750,
      "d": 258.7890625,
      "v": 127
    },
    {
      "midi": 35,
      "hit": false,
      "t": 48984.375,
      "d": 117.1875,
      "v": 127
    },
    {
      "midi": 75,
      "hit": false,
      "t": 48984.375,
      "d": 58.59375,
      "v": 107
    },
    {
      "midi": 78,
      "hit": false,
      "t": 48984.375,
      "d": 58.59375,
      "v": 107
    },
    {
      "midi": 71,
      "hit": false,
      "t": 48984.375,
      "d": 102.5390625,
      "v": 102
    },
    {
      "midi": 59,
      "hit": false,
      "t": 48984.375,
      "d": 231.93359375,
      "v": 113
    },
    {
      "midi": 59,
      "hit": false,
      "t": 48984.375,
      "d": 231.93359375,
      "v": 127
    },
    {
      "midi": 59,
      "hit": false,
      "t": 48984.375,
      "d": 258.7890625,
      "v": 127
    },
    {
      "midi": 35,
      "hit": false,
      "t": 49218.75,
      "d": 117.1875,
      "v": 127
    },
    {
      "midi": 63,
      "hit": false,
      "t": 49218.75,
      "d": 205.078125,
      "v": 122
    },
    {
      "midi": 63,
      "hit": false,
      "t": 49218.75,
      "d": 205.078125,
      "v": 127
    },
    {
      "midi": 35,
      "hit": false,
      "t": 49453.125,
      "d": 117.1875,
      "v": 127
    },
    {
      "midi": 78,
      "hit": false,
      "t": 49453.125,
      "d": 70.80078125,
      "v": 110
    },
    {
      "midi": 75,
      "hit": false,
      "t": 49453.125,
      "d": 78.125,
      "v": 122
    },
    {
      "midi": 71,
      "hit": false,
      "t": 49453.125,
      "d": 109.86328125,
      "v": 107
    },
    {
      "midi": 59,
      "hit": false,
      "t": 49453.125,
      "d": 231.93359375,
      "v": 107
    },
    {
      "midi": 59,
      "hit": false,
      "t": 49453.125,
      "d": 231.93359375,
      "v": 125
    },
    {
      "midi": 59,
      "hit": false,
      "t": 49453.125,
      "d": 1193.84765625,
      "v": 127
    },
    {
      "midi": 35,
      "hit": false,
      "t": 49687.5,
      "d": 117.1875,
      "v": 127
    },
    {
      "midi": 66,
      "hit": false,
      "t": 49687.5,
      "d": 241.69921875,
      "v": 119
    },
    {
      "midi": 66,
      "hit": false,
      "t": 49687.5,
      "d": 241.69921875,
      "v": 127
    },
    {
      "midi": 35,
      "hit": false,
      "t": 49921.875,
      "d": 117.1875,
      "v": 127
    },
    {
      "midi": 78,
      "hit": false,
      "t": 49921.875,
      "d": 43.9453125,
      "v": 105
    },
    {
      "midi": 75,
      "hit": false,
      "t": 49921.875,
      "d": 48.828125,
      "v": 116
    },
    {
      "midi": 71,
      "hit": false,
      "t": 49921.875,
      "d": 85.44921875,
      "v": 113
    },
    {
      "midi": 59,
      "hit": false,
      "t": 49921.875,
      "d": 217.28515625,
      "v": 107
    },
    {
      "midi": 59,
      "hit": false,
      "t": 49921.875,
      "d": 217.28515625,
      "v": 125
    },
    {
      "midi": 35,
      "hit": false,
      "t": 50156.25,
      "d": 117.1875,
      "v": 127
    },
    {
      "midi": 64,
      "hit": false,
      "t": 50156.25,
      "d": 266.11328125,
      "v": 113
    },
    {
      "midi": 64,
      "hit": false,
      "t": 50156.25,
      "d": 266.11328125,
      "v": 127
    },
    {
      "midi": 35,
      "hit": false,
      "t": 50390.625,
      "d": 117.1875,
      "v": 127
    },
    {
      "midi": 78,
      "hit": false,
      "t": 50390.625,
      "d": 46.38671875,
      "v": 113
    },
    {
      "midi": 75,
      "hit": false,
      "t": 50390.625,
      "d": 56.15234375,
      "v": 127
    },
    {
      "midi": 71,
      "hit": false,
      "t": 50390.625,
      "d": 73.2421875,
      "v": 110
    },
    {
      "midi": 63,
      "hit": false,
      "t": 50390.625,
      "d": 224.609375,
      "v": 107
    },
    {
      "midi": 63,
      "hit": false,
      "t": 50390.625,
      "d": 224.609375,
      "v": 125
    },
    {
      "midi": 35,
      "hit": false,
      "t": 50625,
      "d": 117.1875,
      "v": 127
    },
    {
      "midi": 71,
      "hit": false,
      "t": 50625,
      "d": 1867.67578125,
      "v": 107
    },
    {
      "midi": 59,
      "hit": false,
      "t": 50625,
      "d": 97.65625,
      "v": 113
    },
    {
      "midi": 59,
      "hit": false,
      "t": 50625,
      "d": 97.65625,
      "v": 127
    },
    {
      "midi": 35,
      "hit": false,
      "t": 50859.375,
      "d": 117.1875,
      "v": 127
    },
    {
      "midi": 78,
      "hit": false,
      "t": 50859.375,
      "d": 43.9453125,
      "v": 107
    },
    {
      "midi": 75,
      "hit": false,
      "t": 50859.375,
      "d": 56.15234375,
      "v": 122
    },
    {
      "midi": 71,
      "hit": false,
      "t": 50859.375,
      "d": 92.7734375,
      "v": 105
    },
    {
      "midi": 59,
      "hit": false,
      "t": 50859.375,
      "d": 192.87109375,
      "v": 110
    },
    {
      "midi": 59,
      "hit": false,
      "t": 50859.375,
      "d": 192.87109375,
      "v": 127
    },
    {
      "midi": 35,
      "hit": false,
      "t": 51093.75,
      "d": 117.1875,
      "v": 127
    },
    {
      "midi": 63,
      "hit": false,
      "t": 51093.75,
      "d": 200.1953125,
      "v": 119
    },
    {
      "midi": 63,
      "hit": false,
      "t": 51093.75,
      "d": 200.1953125,
      "v": 127
    },
    {
      "midi": 35,
      "hit": false,
      "t": 51328.125,
      "d": 117.1875,
      "v": 127
    },
    {
      "midi": 78,
      "hit": false,
      "t": 51328.125,
      "d": 43.9453125,
      "v": 107
    },
    {
      "midi": 75,
      "hit": false,
      "t": 51328.125,
      "d": 53.7109375,
      "v": 127
    },
    {
      "midi": 71,
      "hit": false,
      "t": 51328.125,
      "d": 78.125,
      "v": 107
    },
    {
      "midi": 59,
      "hit": false,
      "t": 51328.125,
      "d": 168.45703125,
      "v": 105
    },
    {
      "midi": 59,
      "hit": false,
      "t": 51328.125,
      "d": 168.45703125,
      "v": 123
    },
    {
      "midi": 35,
      "hit": false,
      "t": 51562.5,
      "d": 117.1875,
      "v": 127
    },
    {
      "midi": 66,
      "hit": false,
      "t": 51562.5,
      "d": 227.05078125,
      "v": 110
    },
    {
      "midi": 66,
      "hit": false,
      "t": 51562.5,
      "d": 227.05078125,
      "v": 127
    },
    {
      "midi": 59,
      "hit": false,
      "t": 51562.5,
      "d": 229.4921875,
      "v": 122
    },
    {
      "midi": 56,
      "hit": false,
      "t": 51562.5,
      "d": 251.46484375,
      "v": 125
    },
    {
      "midi": 35,
      "hit": false,
      "t": 51796.875,
      "d": 117.1875,
      "v": 127
    },
    {
      "midi": 78,
      "hit": false,
      "t": 51796.875,
      "d": 34.1796875,
      "v": 102
    },
    {
      "midi": 75,
      "hit": false,
      "t": 51796.875,
      "d": 43.9453125,
      "v": 122
    },
    {
      "midi": 71,
      "hit": false,
      "t": 51796.875,
      "d": 68.359375,
      "v": 110
    },
    {
      "midi": 59,
      "hit": false,
      "t": 51796.875,
      "d": 195.3125,
      "v": 105
    },
    {
      "midi": 59,
      "hit": false,
      "t": 51796.875,
      "d": 195.3125,
      "v": 123
    },
    {
      "midi": 57,
      "hit": false,
      "t": 51796.875,
      "d": 222.16796875,
      "v": 120
    },
    {
      "midi": 64,
      "hit": false,
      "t": 51796.875,
      "d": 273.4375,
      "v": 107
    },
    {
      "midi": 35,
      "hit": false,
      "t": 52031.25,
      "d": 117.1875,
      "v": 127
    },
    {
      "midi": 64,
      "hit": false,
      "t": 52031.25,
      "d": 280.76171875,
      "v": 107
    },
    {
      "midi": 64,
      "hit": false,
      "t": 52031.25,
      "d": 280.76171875,
      "v": 125
    },
    {
      "midi": 66,
      "hit": false,
      "t": 52031.25,
      "d": 156.25,
      "v": 110
    },
    {
      "midi": 59,
      "hit": false,
      "t": 52031.25,
      "d": 207.51953125,
      "v": 122
    },
    {
      "midi": 35,
      "hit": false,
      "t": 52265.625,
      "d": 117.1875,
      "v": 127
    },
    {
      "midi": 78,
      "hit": false,
      "t": 52265.625,
      "d": 39.0625,
      "v": 110
    },
    {
      "midi": 75,
      "hit": false,
      "t": 52265.625,
      "d": 48.828125,
      "v": 127
    },
    {
      "midi": 71,
      "hit": false,
      "t": 52265.625,
      "d": 65.91796875,
      "v": 107
    },
    {
      "midi": 63,
      "hit": false,
      "t": 52265.625,
      "d": 161.1328125,
      "v": 107
    },
    {
      "midi": 63,
      "hit": false,
      "t": 52265.625,
      "d": 161.1328125,
      "v": 125
    },
    {
      "midi": 64,
      "hit": false,
      "t": 52265.625,
      "d": 852.05078125,
      "v": 127
    },
    {
      "midi": 68,
      "hit": false,
      "t": 52265.625,
      "d": 1169.43359375,
      "v": 107
    },
    {
      "midi": 28,
      "hit": false,
      "t": 52500,
      "d": 234.375,
      "v": 127
    },
    {
      "midi": 76,
      "hit": false,
      "t": 52500,
      "d": 5307.6171875,
      "v": 57
    },
    {
      "midi": 71,
      "hit": false,
      "t": 52500,
      "d": 5371.09375,
      "v": 55
    },
    {
      "midi": 52,
      "hit": false,
      "t": 52500,
      "d": 58.59375,
      "v": 113
    },
    {
      "midi": 52,
      "hit": false,
      "t": 52500,
      "d": 58.59375,
      "v": 127
    },
    {
      "midi": 64,
      "hit": false,
      "t": 52517.08984375,
      "d": 5449.21875,
      "v": 100
    },
    {
      "midi": 71,
      "hit": false,
      "t": 52521.97265625,
      "d": 5373.53515625,
      "v": 93
    },
    {
      "midi": 68,
      "hit": false,
      "t": 52524.4140625,
      "d": 5437.01171875,
      "v": 100
    },
    {
      "midi": 68,
      "hit": false,
      "t": 52617.1875,
      "d": 5361.328125,
      "v": 55
    },
    {
      "midi": 40,
      "hit": false,
      "t": 52734.375,
      "d": 234.375,
      "v": 127
    },
    {
      "midi": 52,
      "hit": false,
      "t": 52734.375,
      "d": 53.7109375,
      "v": 102
    },
    {
      "midi": 52,
      "hit": false,
      "t": 52734.375,
      "d": 53.7109375,
      "v": 120
    },
    {
      "midi": 76,
      "hit": false,
      "t": 52734.375,
      "d": 39.0625,
      "v": 127
    },
    {
      "midi": 71,
      "hit": false,
      "t": 52734.375,
      "d": 34.1796875,
      "v": 119
    },
    {
      "midi": 52,
      "hit": false,
      "t": 52851.5625,
      "d": 70.80078125,
      "v": 105
    },
    {
      "midi": 52,
      "hit": false,
      "t": 52851.5625,
      "d": 70.80078125,
      "v": 123
    },
    {
      "midi": 76,
      "hit": false,
      "t": 52851.5625,
      "d": 41.50390625,
      "v": 127
    },
    {
      "midi": 71,
      "hit": false,
      "t": 52851.5625,
      "d": 61.03515625,
      "v": 105
    },
    {
      "midi": 28,
      "hit": false,
      "t": 52968.75,
      "d": 234.375,
      "v": 127
    },
    {
      "midi": 52,
      "hit": false,
      "t": 52968.75,
      "d": 58.59375,
      "v": 113
    },
    {
      "midi": 52,
      "hit": false,
      "t": 52968.75,
      "d": 58.59375,
      "v": 127
    },
    {
      "midi": 76,
      "hit": false,
      "t": 52968.75,
      "d": 41.50390625,
      "v": 127
    },
    {
      "midi": 73,
      "hit": false,
      "t": 52968.75,
      "d": 26.85546875,
      "v": 113
    },
    {
      "midi": 76,
      "hit": false,
      "t": 53085.9375,
      "d": 61.03515625,
      "v": 127
    },
    {
      "midi": 73,
      "hit": false,
      "t": 53085.9375,
      "d": 51.26953125,
      "v": 110
    },
    {
      "midi": 40,
      "hit": false,
      "t": 53203.125,
      "d": 234.375,
      "v": 127
    },
    {
      "midi": 52,
      "hit": false,
      "t": 53203.125,
      "d": 53.7109375,
      "v": 102
    },
    {
      "midi": 52,
      "hit": false,
      "t": 53203.125,
      "d": 53.7109375,
      "v": 120
    },
    {
      "midi": 76,
      "hit": false,
      "t": 53203.125,
      "d": 61.03515625,
      "v": 127
    },
    {
      "midi": 72,
      "hit": false,
      "t": 53203.125,
      "d": 24.4140625,
      "v": 107
    },
    {
      "midi": 71,
      "hit": false,
      "t": 53203.125,
      "d": 36.62109375,
      "v": 107
    },
    {
      "midi": 52,
      "hit": false,
      "t": 53320.3125,
      "d": 46.38671875,
      "v": 105
    },
    {
      "midi": 52,
      "hit": false,
      "t": 53320.3125,
      "d": 46.38671875,
      "v": 123
    },
    {
      "midi": 71,
      "hit": false,
      "t": 53320.3125,
      "d": 78.125,
      "v": 107
    },
    {
      "midi": 28,
      "hit": false,
      "t": 53437.5,
      "d": 234.375,
      "v": 127
    },
    {
      "midi": 52,
      "hit": false,
      "t": 53437.5,
      "d": 58.59375,
      "v": 116
    },
    {
      "midi": 52,
      "hit": false,
      "t": 53437.5,
      "d": 58.59375,
      "v": 127
    },
    {
      "midi": 59,
      "hit": false,
      "t": 53437.5,
      "d": 229.4921875,
      "v": 107
    },
    {
      "midi": 56,
      "hit": false,
      "t": 53437.5,
      "d": 275.87890625,
      "v": 120
    },
    {
      "midi": 40,
      "hit": false,
      "t": 53671.875,
      "d": 234.375,
      "v": 127
    },
    {
      "midi": 52,
      "hit": false,
      "t": 53671.875,
      "d": 51.26953125,
      "v": 105
    },
    {
      "midi": 52,
      "hit": false,
      "t": 53671.875,
      "d": 51.26953125,
      "v": 123
    },
    {
      "midi": 76,
      "hit": false,
      "t": 53671.875,
      "d": 41.50390625,
      "v": 127
    },
    {
      "midi": 71,
      "hit": false,
      "t": 53671.875,
      "d": 48.828125,
      "v": 127
    },
    {
      "midi": 57,
      "hit": false,
      "t": 53671.875,
      "d": 229.4921875,
      "v": 107
    },
    {
      "midi": 64,
      "hit": false,
      "t": 53671.875,
      "d": 268.5546875,
      "v": 102
    },
    {
      "midi": 52,
      "hit": false,
      "t": 53789.0625,
      "d": 63.4765625,
      "v": 110
    },
    {
      "midi": 52,
      "hit": false,
      "t": 53789.0625,
      "d": 63.4765625,
      "v": 127
    },
    {
      "midi": 76,
      "hit": false,
      "t": 53789.0625,
      "d": 39.0625,
      "v": 127
    },
    {
      "midi": 71,
      "hit": false,
      "t": 53789.0625,
      "d": 63.4765625,
      "v": 110
    },
    {
      "midi": 28,
      "hit": false,
      "t": 53906.25,
      "d": 234.375,
      "v": 127
    },
    {
      "midi": 52,
      "hit": false,
      "t": 53906.25,
      "d": 48.828125,
      "v": 110
    },
    {
      "midi": 52,
      "hit": false,
      "t": 53906.25,
      "d": 48.828125,
      "v": 127
    },
    {
      "midi": 76,
      "hit": false,
      "t": 53906.25,
      "d": 31.73828125,
      "v": 127
    },
    {
      "midi": 73,
      "hit": false,
      "t": 53906.25,
      "d": 36.62109375,
      "v": 116
    },
    {
      "midi": 66,
      "hit": false,
      "t": 53906.25,
      "d": 129.39453125,
      "v": 110
    },
    {
      "midi": 59,
      "hit": false,
      "t": 53906.25,
      "d": 249.0234375,
      "v": 100
    },
    {
      "midi": 76,
      "hit": false,
      "t": 54023.4375,
      "d": 46.38671875,
      "v": 127
    },
    {
      "midi": 73,
      "hit": false,
      "t": 54023.4375,
      "d": 39.0625,
      "v": 105
    },
    {
      "midi": 40,
      "hit": false,
      "t": 54140.625,
      "d": 234.375,
      "v": 127
    },
    {
      "midi": 52,
      "hit": false,
      "t": 54140.625,
      "d": 53.7109375,
      "v": 100
    },
    {
      "midi": 52,
      "hit": false,
      "t": 54140.625,
      "d": 53.7109375,
      "v": 118
    },
    {
      "midi": 76,
      "hit": false,
      "t": 54140.625,
      "d": 65.91796875,
      "v": 127
    },
    {
      "midi": 71,
      "hit": false,
      "t": 54140.625,
      "d": 46.38671875,
      "v": 122
    },
    {
      "midi": 64,
      "hit": false,
      "t": 54140.625,
      "d": 632.32421875,
      "v": 127
    },
    {
      "midi": 68,
      "hit": false,
      "t": 54140.625,
      "d": 1135.25390625,
      "v": 105
    },
    {
      "midi": 52,
      "hit": false,
      "t": 54257.8125,
      "d": 68.359375,
      "v": 110
    },
    {
      "midi": 52,
      "hit": false,
      "t": 54257.8125,
      "d": 68.359375,
      "v": 127
    },
    {
      "midi": 71,
      "hit": false,
      "t": 54257.8125,
      "d": 85.44921875,
      "v": 107
    },
    {
      "midi": 28,
      "hit": false,
      "t": 54375,
      "d": 234.375,
      "v": 127
    },
    {
      "midi": 52,
      "hit": false,
      "t": 54375,
      "d": 53.7109375,
      "v": 116
    },
    {
      "midi": 52,
      "hit": false,
      "t": 54375,
      "d": 53.7109375,
      "v": 127
    },
    {
      "midi": 40,
      "hit": false,
      "t": 54609.375,
      "d": 234.375,
      "v": 127
    },
    {
      "midi": 52,
      "hit": false,
      "t": 54609.375,
      "d": 46.38671875,
      "v": 102
    },
    {
      "midi": 52,
      "hit": false,
      "t": 54609.375,
      "d": 46.38671875,
      "v": 120
    },
    {
      "midi": 76,
      "hit": false,
      "t": 54609.375,
      "d": 41.50390625,
      "v": 127
    },
    {
      "midi": 71,
      "hit": false,
      "t": 54609.375,
      "d": 34.1796875,
      "v": 119
    },
    {
      "midi": 52,
      "hit": false,
      "t": 54726.5625,
      "d": 78.125,
      "v": 105
    },
    {
      "midi": 52,
      "hit": false,
      "t": 54726.5625,
      "d": 78.125,
      "v": 123
    },
    {
      "midi": 76,
      "hit": false,
      "t": 54726.5625,
      "d": 43.9453125,
      "v": 127
    },
    {
      "midi": 71,
      "hit": false,
      "t": 54726.5625,
      "d": 61.03515625,
      "v": 105
    },
    {
      "midi": 28,
      "hit": false,
      "t": 54843.75,
      "d": 234.375,
      "v": 127
    },
    {
      "midi": 52,
      "hit": false,
      "t": 54843.75,
      "d": 61.03515625,
      "v": 113
    },
    {
      "midi": 52,
      "hit": false,
      "t": 54843.75,
      "d": 61.03515625,
      "v": 127
    },
    {
      "midi": 76,
      "hit": false,
      "t": 54843.75,
      "d": 43.9453125,
      "v": 127
    },
    {
      "midi": 73,
      "hit": false,
      "t": 54843.75,
      "d": 26.85546875,
      "v": 113
    },
    {
      "midi": 76,
      "hit": false,
      "t": 54960.9375,
      "d": 68.359375,
      "v": 127
    },
    {
      "midi": 73,
      "hit": false,
      "t": 54960.9375,
      "d": 51.26953125,
      "v": 110
    },
    {
      "midi": 40,
      "hit": false,
      "t": 55078.125,
      "d": 234.375,
      "v": 127
    },
    {
      "midi": 52,
      "hit": false,
      "t": 55078.125,
      "d": 61.03515625,
      "v": 107
    },
    {
      "midi": 52,
      "hit": false,
      "t": 55078.125,
      "d": 61.03515625,
      "v": 125
    },
    {
      "midi": 76,
      "hit": false,
      "t": 55078.125,
      "d": 68.359375,
      "v": 127
    },
    {
      "midi": 72,
      "hit": false,
      "t": 55078.125,
      "d": 24.4140625,
      "v": 107
    },
    {
      "midi": 71,
      "hit": false,
      "t": 55078.125,
      "d": 36.62109375,
      "v": 107
    },
    {
      "midi": 52,
      "hit": false,
      "t": 55195.3125,
      "d": 70.80078125,
      "v": 102
    },
    {
      "midi": 52,
      "hit": false,
      "t": 55195.3125,
      "d": 70.80078125,
      "v": 120
    },
    {
      "midi": 71,
      "hit": false,
      "t": 55195.3125,
      "d": 78.125,
      "v": 107
    },
    {
      "midi": 28,
      "hit": false,
      "t": 55312.5,
      "d": 234.375,
      "v": 127
    },
    {
      "midi": 52,
      "hit": false,
      "t": 55312.5,
      "d": 56.15234375,
      "v": 113
    },
    {
      "midi": 52,
      "hit": false,
      "t": 55312.5,
      "d": 56.15234375,
      "v": 127
    },
    {
      "midi": 59,
      "hit": false,
      "t": 55312.5,
      "d": 234.375,
      "v": 110
    },
    {
      "midi": 56,
      "hit": false,
      "t": 55312.5,
      "d": 256.34765625,
      "v": 122
    },
    {
      "midi": 40,
      "hit": false,
      "t": 55546.875,
      "d": 234.375,
      "v": 127
    },
    {
      "midi": 52,
      "hit": false,
      "t": 55546.875,
      "d": 56.15234375,
      "v": 102
    },
    {
      "midi": 52,
      "hit": false,
      "t": 55546.875,
      "d": 56.15234375,
      "v": 120
    },
    {
      "midi": 76,
      "hit": false,
      "t": 55546.875,
      "d": 36.62109375,
      "v": 127
    },
    {
      "midi": 71,
      "hit": false,
      "t": 55546.875,
      "d": 48.828125,
      "v": 127
    },
    {
      "midi": 57,
      "hit": false,
      "t": 55546.875,
      "d": 234.375,
      "v": 118
    },
    {
      "midi": 64,
      "hit": false,
      "t": 55546.875,
      "d": 317.3828125,
      "v": 102
    },
    {
      "midi": 52,
      "hit": false,
      "t": 55664.0625,
      "d": 43.9453125,
      "v": 110
    },
    {
      "midi": 52,
      "hit": false,
      "t": 55664.0625,
      "d": 43.9453125,
      "v": 127
    },
    {
      "midi": 76,
      "hit": false,
      "t": 55664.0625,
      "d": 39.0625,
      "v": 127
    },
    {
      "midi": 71,
      "hit": false,
      "t": 55664.0625,
      "d": 63.4765625,
      "v": 110
    },
    {
      "midi": 28,
      "hit": false,
      "t": 55781.25,
      "d": 234.375,
      "v": 127
    },
    {
      "midi": 52,
      "hit": false,
      "t": 55781.25,
      "d": 53.7109375,
      "v": 113
    },
    {
      "midi": 52,
      "hit": false,
      "t": 55781.25,
      "d": 53.7109375,
      "v": 127
    },
    {
      "midi": 76,
      "hit": false,
      "t": 55781.25,
      "d": 39.0625,
      "v": 127
    },
    {
      "midi": 73,
      "hit": false,
      "t": 55781.25,
      "d": 36.62109375,
      "v": 116
    },
    {
      "midi": 66,
      "hit": false,
      "t": 55781.25,
      "d": 205.078125,
      "v": 105
    },
    {
      "midi": 59,
      "hit": false,
      "t": 55781.25,
      "d": 290.52734375,
      "v": 88
    },
    {
      "midi": 76,
      "hit": false,
      "t": 55898.4375,
      "d": 63.4765625,
      "v": 127
    },
    {
      "midi": 73,
      "hit": false,
      "t": 55898.4375,
      "d": 39.0625,
      "v": 105
    },
    {
      "midi": 40,
      "hit": false,
      "t": 56015.625,
      "d": 234.375,
      "v": 127
    },
    {
      "midi": 52,
      "hit": false,
      "t": 56015.625,
      "d": 56.15234375,
      "v": 105
    },
    {
      "midi": 52,
      "hit": false,
      "t": 56015.625,
      "d": 56.15234375,
      "v": 123
    },
    {
      "midi": 76,
      "hit": false,
      "t": 56015.625,
      "d": 75.68359375,
      "v": 127
    },
    {
      "midi": 71,
      "hit": false,
      "t": 56015.625,
      "d": 46.38671875,
      "v": 122
    },
    {
      "midi": 64,
      "hit": false,
      "t": 56015.625,
      "d": 317.3828125,
      "v": 127
    },
    {
      "midi": 68,
      "hit": false,
      "t": 56015.625,
      "d": 354.00390625,
      "v": 102
    },
    {
      "midi": 52,
      "hit": false,
      "t": 56132.8125,
      "d": 39.0625,
      "v": 110
    },
    {
      "midi": 52,
      "hit": false,
      "t": 56132.8125,
      "d": 39.0625,
      "v": 127
    },
    {
      "midi": 71,
      "hit": false,
      "t": 56132.8125,
      "d": 85.44921875,
      "v": 107
    },
    {
      "midi": 28,
      "hit": false,
      "t": 56250,
      "d": 234.375,
      "v": 127
    },
    {
      "midi": 52,
      "hit": false,
      "t": 56250,
      "d": 58.59375,
      "v": 110
    },
    {
      "midi": 52,
      "hit": false,
      "t": 56250,
      "d": 58.59375,
      "v": 127
    },
    {
      "midi": 40,
      "hit": false,
      "t": 56484.375,
      "d": 234.375,
      "v": 127
    },
    {
      "midi": 52,
      "hit": false,
      "t": 56484.375,
      "d": 53.7109375,
      "v": 105
    },
    {
      "midi": 52,
      "hit": false,
      "t": 56484.375,
      "d": 53.7109375,
      "v": 123
    },
    {
      "midi": 76,
      "hit": false,
      "t": 56484.375,
      "d": 46.38671875,
      "v": 127
    },
    {
      "midi": 71,
      "hit": false,
      "t": 56484.375,
      "d": 34.1796875,
      "v": 119
    },
    {
      "midi": 64,
      "hit": false,
      "t": 56484.375,
      "d": 78.125,
      "v": 125
    },
    {
      "midi": 68,
      "hit": false,
      "t": 56484.375,
      "d": 122.0703125,
      "v": 105
    },
    {
      "midi": 52,
      "hit": false,
      "t": 56601.5625,
      "d": 87.890625,
      "v": 107
    },
    {
      "midi": 52,
      "hit": false,
      "t": 56601.5625,
      "d": 87.890625,
      "v": 125
    },
    {
      "midi": 76,
      "hit": false,
      "t": 56601.5625,
      "d": 41.50390625,
      "v": 127
    },
    {
      "midi": 71,
      "hit": false,
      "t": 56601.5625,
      "d": 61.03515625,
      "v": 105
    },
    {
      "midi": 28,
      "hit": false,
      "t": 56718.75,
      "d": 234.375,
      "v": 127
    },
    {
      "midi": 52,
      "hit": false,
      "t": 56718.75,
      "d": 61.03515625,
      "v": 107
    },
    {
      "midi": 52,
      "hit": false,
      "t": 56718.75,
      "d": 61.03515625,
      "v": 125
    },
    {
      "midi": 76,
      "hit": false,
      "t": 56718.75,
      "d": 48.828125,
      "v": 127
    },
    {
      "midi": 73,
      "hit": false,
      "t": 56718.75,
      "d": 26.85546875,
      "v": 113
    },
    {
      "midi": 68,
      "hit": false,
      "t": 56718.75,
      "d": 90.33203125,
      "v": 102
    },
    {
      "midi": 64,
      "hit": false,
      "t": 56718.75,
      "d": 97.65625,
      "v": 127
    },
    {
      "midi": 76,
      "hit": false,
      "t": 56835.9375,
      "d": 70.80078125,
      "v": 127
    },
    {
      "midi": 73,
      "hit": false,
      "t": 56835.9375,
      "d": 51.26953125,
      "v": 110
    },
    {
      "midi": 40,
      "hit": false,
      "t": 56953.125,
      "d": 234.375,
      "v": 127
    },
    {
      "midi": 52,
      "hit": false,
      "t": 56953.125,
      "d": 56.15234375,
      "v": 105
    },
    {
      "midi": 52,
      "hit": false,
      "t": 56953.125,
      "d": 56.15234375,
      "v": 123
    },
    {
      "midi": 76,
      "hit": false,
      "t": 56953.125,
      "d": 78.125,
      "v": 127
    },
    {
      "midi": 72,
      "hit": false,
      "t": 56953.125,
      "d": 24.4140625,
      "v": 107
    },
    {
      "midi": 71,
      "hit": false,
      "t": 56953.125,
      "d": 36.62109375,
      "v": 107
    },
    {
      "midi": 68,
      "hit": false,
      "t": 56953.125,
      "d": 451.66015625,
      "v": 105
    },
    {
      "midi": 64,
      "hit": false,
      "t": 56953.125,
      "d": 476.07421875,
      "v": 127
    },
    {
      "midi": 52,
      "hit": false,
      "t": 57070.3125,
      "d": 48.828125,
      "v": 110
    },
    {
      "midi": 52,
      "hit": false,
      "t": 57070.3125,
      "d": 48.828125,
      "v": 127
    },
    {
      "midi": 71,
      "hit": false,
      "t": 57070.3125,
      "d": 78.125,
      "v": 107
    },
    {
      "midi": 28,
      "hit": false,
      "t": 57187.5,
      "d": 234.375,
      "v": 127
    },
    {
      "midi": 52,
      "hit": false,
      "t": 57187.5,
      "d": 58.59375,
      "v": 113
    },
    {
      "midi": 52,
      "hit": false,
      "t": 57187.5,
      "d": 58.59375,
      "v": 127
    },
    {
      "midi": 40,
      "hit": false,
      "t": 57421.875,
      "d": 234.375,
      "v": 127
    },
    {
      "midi": 52,
      "hit": false,
      "t": 57421.875,
      "d": 58.59375,
      "v": 105
    },
    {
      "midi": 52,
      "hit": false,
      "t": 57421.875,
      "d": 58.59375,
      "v": 123
    },
    {
      "midi": 76,
      "hit": false,
      "t": 57421.875,
      "d": 43.9453125,
      "v": 127
    },
    {
      "midi": 71,
      "hit": false,
      "t": 57421.875,
      "d": 48.828125,
      "v": 127
    },
    {
      "midi": 66,
      "hit": false,
      "t": 57421.875,
      "d": 190.4296875,
      "v": 110
    },
    {
      "midi": 63,
      "hit": false,
      "t": 57421.875,
      "d": 212.40234375,
      "v": 125
    },
    {
      "midi": 52,
      "hit": false,
      "t": 57539.0625,
      "d": 41.50390625,
      "v": 113
    },
    {
      "midi": 52,
      "hit": false,
      "t": 57539.0625,
      "d": 41.50390625,
      "v": 127
    },
    {
      "midi": 76,
      "hit": false,
      "t": 57539.0625,
      "d": 36.62109375,
      "v": 127
    },
    {
      "midi": 71,
      "hit": false,
      "t": 57539.0625,
      "d": 63.4765625,
      "v": 110
    },
    {
      "midi": 28,
      "hit": false,
      "t": 57656.25,
      "d": 234.375,
      "v": 127
    },
    {
      "midi": 52,
      "hit": false,
      "t": 57656.25,
      "d": 61.03515625,
      "v": 116
    },
    {
      "midi": 52,
      "hit": false,
      "t": 57656.25,
      "d": 61.03515625,
      "v": 127
    },
    {
      "midi": 76,
      "hit": false,
      "t": 57656.25,
      "d": 51.26953125,
      "v": 127
    },
    {
      "midi": 73,
      "hit": false,
      "t": 57656.25,
      "d": 36.62109375,
      "v": 116
    },
    {
      "midi": 64,
      "hit": false,
      "t": 57656.25,
      "d": 200.1953125,
      "v": 89
    },
    {
      "midi": 59,
      "hit": false,
      "t": 57656.25,
      "d": 212.40234375,
      "v": 127
    },
    {
      "midi": 76,
      "hit": false,
      "t": 57773.4375,
      "d": 43.9453125,
      "v": 127
    },
    {
      "midi": 73,
      "hit": false,
      "t": 57773.4375,
      "d": 39.0625,
      "v": 105
    },
    {
      "midi": 40,
      "hit": false,
      "t": 57890.625,
      "d": 234.375,
      "v": 127
    },
    {
      "midi": 52,
      "hit": false,
      "t": 57890.625,
      "d": 53.7109375,
      "v": 107
    },
    {
      "midi": 52,
      "hit": false,
      "t": 57890.625,
      "d": 53.7109375,
      "v": 125
    },
    {
      "midi": 76,
      "hit": false,
      "t": 57890.625,
      "d": 95.21484375,
      "v": 127
    },
    {
      "midi": 71,
      "hit": false,
      "t": 57890.625,
      "d": 46.38671875,
      "v": 122
    },
    {
      "midi": 57,
      "hit": false,
      "t": 57890.625,
      "d": 964.35546875,
      "v": 127
    },
    {
      "midi": 66,
      "hit": false,
      "t": 57890.625,
      "d": 1125.48828125,
      "v": 113
    },
    {
      "midi": 52,
      "hit": false,
      "t": 58007.8125,
      "d": 68.359375,
      "v": 107
    },
    {
      "midi": 52,
      "hit": false,
      "t": 58007.8125,
      "d": 68.359375,
      "v": 125
    },
    {
      "midi": 71,
      "hit": false,
      "t": 58007.8125,
      "d": 85.44921875,
      "v": 107
    },
    {
      "midi": 35,
      "hit": false,
      "t": 58125,
      "d": 234.375,
      "v": 127
    },
    {
      "midi": 78,
      "hit": false,
      "t": 58125,
      "d": 7236.328125,
      "v": 50
    },
    {
      "midi": 75,
      "hit": false,
      "t": 58125,
      "d": 7268.06640625,
      "v": 57
    },
    {
      "midi": 71,
      "hit": false,
      "t": 58125,
      "d": 7275.390625,
      "v": 43
    },
    {
      "midi": 47,
      "hit": false,
      "t": 58125,
      "d": 43.9453125,
      "v": 116
    },
    {
      "midi": 47,
      "hit": false,
      "t": 58125,
      "d": 43.9453125,
      "v": 127
    },
    {
      "midi": 63,
      "hit": false,
      "t": 58127.44140625,
      "d": 7292.48046875,
      "v": 110
    },
    {
      "midi": 66,
      "hit": false,
      "t": 58129.8828125,
      "d": 7299.8046875,
      "v": 100
    },
    {
      "midi": 59,
      "hit": false,
      "t": 58139.6484375,
      "d": 7236.328125,
      "v": 78
    },
    {
      "midi": 47,
      "hit": false,
      "t": 58359.375,
      "d": 234.375,
      "v": 127
    },
    {
      "midi": 47,
      "hit": false,
      "t": 58359.375,
      "d": 34.1796875,
      "v": 102
    },
    {
      "midi": 47,
      "hit": false,
      "t": 58359.375,
      "d": 34.1796875,
      "v": 120
    },
    {
      "midi": 71,
      "hit": false,
      "t": 58359.375,
      "d": 43.9453125,
      "v": 127
    },
    {
      "midi": 71,
      "hit": false,
      "t": 58359.375,
      "d": 34.1796875,
      "v": 119
    },
    {
      "midi": 47,
      "hit": false,
      "t": 58476.5625,
      "d": 78.125,
      "v": 107
    },
    {
      "midi": 47,
      "hit": false,
      "t": 58476.5625,
      "d": 78.125,
      "v": 125
    },
    {
      "midi": 71,
      "hit": false,
      "t": 58476.5625,
      "d": 48.828125,
      "v": 127
    },
    {
      "midi": 71,
      "hit": false,
      "t": 58476.5625,
      "d": 61.03515625,
      "v": 105
    },
    {
      "midi": 35,
      "hit": false,
      "t": 58593.75,
      "d": 234.375,
      "v": 127
    },
    {
      "midi": 47,
      "hit": false,
      "t": 58593.75,
      "d": 46.38671875,
      "v": 107
    },
    {
      "midi": 47,
      "hit": false,
      "t": 58593.75,
      "d": 46.38671875,
      "v": 125
    },
    {
      "midi": 71,
      "hit": false,
      "t": 58593.75,
      "d": 53.7109375,
      "v": 127
    },
    {
      "midi": 73,
      "hit": false,
      "t": 58593.75,
      "d": 26.85546875,
      "v": 113
    },
    {
      "midi": 71,
      "hit": false,
      "t": 58710.9375,
      "d": 63.4765625,
      "v": 127
    },
    {
      "midi": 73,
      "hit": false,
      "t": 58710.9375,
      "d": 51.26953125,
      "v": 110
    },
    {
      "midi": 47,
      "hit": false,
      "t": 58828.125,
      "d": 234.375,
      "v": 127
    },
    {
      "midi": 47,
      "hit": false,
      "t": 58828.125,
      "d": 51.26953125,
      "v": 110
    },
    {
      "midi": 47,
      "hit": false,
      "t": 58828.125,
      "d": 51.26953125,
      "v": 127
    },
    {
      "midi": 71,
      "hit": false,
      "t": 58828.125,
      "d": 73.2421875,
      "v": 127
    },
    {
      "midi": 72,
      "hit": false,
      "t": 58828.125,
      "d": 24.4140625,
      "v": 107
    },
    {
      "midi": 71,
      "hit": false,
      "t": 58828.125,
      "d": 36.62109375,
      "v": 107
    },
    {
      "midi": 47,
      "hit": false,
      "t": 58945.3125,
      "d": 56.15234375,
      "v": 107
    },
    {
      "midi": 47,
      "hit": false,
      "t": 58945.3125,
      "d": 56.15234375,
      "v": 125
    },
    {
      "midi": 71,
      "hit": false,
      "t": 58945.3125,
      "d": 78.125,
      "v": 107
    },
    {
      "midi": 35,
      "hit": false,
      "t": 59062.5,
      "d": 234.375,
      "v": 127
    },
    {
      "midi": 47,
      "hit": false,
      "t": 59062.5,
      "d": 48.828125,
      "v": 110
    },
    {
      "midi": 47,
      "hit": false,
      "t": 59062.5,
      "d": 48.828125,
      "v": 127
    },
    {
      "midi": 59,
      "hit": false,
      "t": 59062.5,
      "d": 241.69921875,
      "v": 116
    },
    {
      "midi": 54,
      "hit": false,
      "t": 59062.5,
      "d": 280.76171875,
      "v": 127
    },
    {
      "midi": 47,
      "hit": false,
      "t": 59296.875,
      "d": 234.375,
      "v": 127
    },
    {
      "midi": 47,
      "hit": false,
      "t": 59296.875,
      "d": 51.26953125,
      "v": 107
    },
    {
      "midi": 47,
      "hit": false,
      "t": 59296.875,
      "d": 51.26953125,
      "v": 125
    },
    {
      "midi": 71,
      "hit": false,
      "t": 59296.875,
      "d": 43.9453125,
      "v": 127
    },
    {
      "midi": 71,
      "hit": false,
      "t": 59296.875,
      "d": 48.828125,
      "v": 127
    },
    {
      "midi": 63,
      "hit": false,
      "t": 59296.875,
      "d": 183.10546875,
      "v": 110
    },
    {
      "midi": 56,
      "hit": false,
      "t": 59296.875,
      "d": 283.203125,
      "v": 125
    },
    {
      "midi": 47,
      "hit": false,
      "t": 59414.0625,
      "d": 46.38671875,
      "v": 110
    },
    {
      "midi": 47,
      "hit": false,
      "t": 59414.0625,
      "d": 46.38671875,
      "v": 127
    },
    {
      "midi": 71,
      "hit": false,
      "t": 59414.0625,
      "d": 39.0625,
      "v": 127
    },
    {
      "midi": 71,
      "hit": false,
      "t": 59414.0625,
      "d": 63.4765625,
      "v": 110
    },
    {
      "midi": 35,
      "hit": false,
      "t": 59531.25,
      "d": 234.375,
      "v": 127
    },
    {
      "midi": 47,
      "hit": false,
      "t": 59531.25,
      "d": 53.7109375,
      "v": 119
    },
    {
      "midi": 47,
      "hit": false,
      "t": 59531.25,
      "d": 53.7109375,
      "v": 127
    },
    {
      "midi": 71,
      "hit": false,
      "t": 59531.25,
      "d": 48.828125,
      "v": 127
    },
    {
      "midi": 73,
      "hit": false,
      "t": 59531.25,
      "d": 36.62109375,
      "v": 116
    },
    {
      "midi": 57,
      "hit": false,
      "t": 59531.25,
      "d": 224.609375,
      "v": 110
    },
    {
      "midi": 64,
      "hit": false,
      "t": 59531.25,
      "d": 224.609375,
      "v": 98
    },
    {
      "midi": 71,
      "hit": false,
      "t": 59648.4375,
      "d": 65.91796875,
      "v": 127
    },
    {
      "midi": 73,
      "hit": false,
      "t": 59648.4375,
      "d": 39.0625,
      "v": 105
    },
    {
      "midi": 47,
      "hit": false,
      "t": 59765.625,
      "d": 234.375,
      "v": 127
    },
    {
      "midi": 47,
      "hit": false,
      "t": 59765.625,
      "d": 51.26953125,
      "v": 107
    },
    {
      "midi": 47,
      "hit": false,
      "t": 59765.625,
      "d": 51.26953125,
      "v": 125
    },
    {
      "midi": 71,
      "hit": false,
      "t": 59765.625,
      "d": 80.56640625,
      "v": 127
    },
    {
      "midi": 71,
      "hit": false,
      "t": 59765.625,
      "d": 46.38671875,
      "v": 122
    },
    {
      "midi": 63,
      "hit": false,
      "t": 59765.625,
      "d": 947.265625,
      "v": 127
    },
    {
      "midi": 66,
      "hit": false,
      "t": 59765.625,
      "d": 1162.109375,
      "v": 116
    },
    {
      "midi": 47,
      "hit": false,
      "t": 59882.8125,
      "d": 61.03515625,
      "v": 102
    },
    {
      "midi": 47,
      "hit": false,
      "t": 59882.8125,
      "d": 61.03515625,
      "v": 120
    },
    {
      "midi": 71,
      "hit": false,
      "t": 59882.8125,
      "d": 85.44921875,
      "v": 107
    },
    {
      "midi": 35,
      "hit": false,
      "t": 60000,
      "d": 234.375,
      "v": 127
    },
    {
      "midi": 47,
      "hit": false,
      "t": 60000,
      "d": 53.7109375,
      "v": 119
    },
    {
      "midi": 47,
      "hit": false,
      "t": 60000,
      "d": 53.7109375,
      "v": 127
    },
    {
      "midi": 47,
      "hit": false,
      "t": 60234.375,
      "d": 234.375,
      "v": 127
    },
    {
      "midi": 47,
      "hit": false,
      "t": 60234.375,
      "d": 46.38671875,
      "v": 105
    },
    {
      "midi": 47,
      "hit": false,
      "t": 60234.375,
      "d": 46.38671875,
      "v": 123
    },
    {
      "midi": 71,
      "hit": false,
      "t": 60234.375,
      "d": 48.828125,
      "v": 127
    },
    {
      "midi": 71,
      "hit": false,
      "t": 60234.375,
      "d": 34.1796875,
      "v": 119
    },
    {
      "midi": 47,
      "hit": false,
      "t": 60351.5625,
      "d": 70.80078125,
      "v": 105
    },
    {
      "midi": 47,
      "hit": false,
      "t": 60351.5625,
      "d": 70.80078125,
      "v": 123
    },
    {
      "midi": 71,
      "hit": false,
      "t": 60351.5625,
      "d": 48.828125,
      "v": 127
    },
    {
      "midi": 71,
      "hit": false,
      "t": 60351.5625,
      "d": 61.03515625,
      "v": 105
    },
    {
      "midi": 35,
      "hit": false,
      "t": 60468.75,
      "d": 234.375,
      "v": 127
    },
    {
      "midi": 47,
      "hit": false,
      "t": 60468.75,
      "d": 46.38671875,
      "v": 113
    },
    {
      "midi": 47,
      "hit": false,
      "t": 60468.75,
      "d": 46.38671875,
      "v": 127
    },
    {
      "midi": 71,
      "hit": false,
      "t": 60468.75,
      "d": 46.38671875,
      "v": 127
    },
    {
      "midi": 73,
      "hit": false,
      "t": 60468.75,
      "d": 26.85546875,
      "v": 113
    },
    {
      "midi": 71,
      "hit": false,
      "t": 60585.9375,
      "d": 75.68359375,
      "v": 127
    },
    {
      "midi": 73,
      "hit": false,
      "t": 60585.9375,
      "d": 51.26953125,
      "v": 110
    },
    {
      "midi": 47,
      "hit": false,
      "t": 60703.125,
      "d": 234.375,
      "v": 127
    },
    {
      "midi": 47,
      "hit": false,
      "t": 60703.125,
      "d": 53.7109375,
      "v": 107
    },
    {
      "midi": 47,
      "hit": false,
      "t": 60703.125,
      "d": 53.7109375,
      "v": 125
    },
    {
      "midi": 71,
      "hit": false,
      "t": 60703.125,
      "d": 80.56640625,
      "v": 127
    },
    {
      "midi": 72,
      "hit": false,
      "t": 60703.125,
      "d": 24.4140625,
      "v": 107
    },
    {
      "midi": 71,
      "hit": false,
      "t": 60703.125,
      "d": 36.62109375,
      "v": 107
    },
    {
      "midi": 47,
      "hit": false,
      "t": 60820.3125,
      "d": 58.59375,
      "v": 107
    },
    {
      "midi": 47,
      "hit": false,
      "t": 60820.3125,
      "d": 58.59375,
      "v": 125
    },
    {
      "midi": 71,
      "hit": false,
      "t": 60820.3125,
      "d": 78.125,
      "v": 107
    },
    {
      "midi": 35,
      "hit": false,
      "t": 60937.5,
      "d": 234.375,
      "v": 127
    },
    {
      "midi": 47,
      "hit": false,
      "t": 60937.5,
      "d": 48.828125,
      "v": 113
    },
    {
      "midi": 47,
      "hit": false,
      "t": 60937.5,
      "d": 48.828125,
      "v": 127
    },
    {
      "midi": 59,
      "hit": false,
      "t": 60937.5,
      "d": 239.2578125,
      "v": 116
    },
    {
      "midi": 54,
      "hit": false,
      "t": 60937.5,
      "d": 270.99609375,
      "v": 127
    },
    {
      "midi": 47,
      "hit": false,
      "t": 61171.875,
      "d": 234.375,
      "v": 127
    },
    {
      "midi": 47,
      "hit": false,
      "t": 61171.875,
      "d": 51.26953125,
      "v": 102
    },
    {
      "midi": 47,
      "hit": false,
      "t": 61171.875,
      "d": 51.26953125,
      "v": 120
    },
    {
      "midi": 71,
      "hit": false,
      "t": 61171.875,
      "d": 53.7109375,
      "v": 127
    },
    {
      "midi": 71,
      "hit": false,
      "t": 61171.875,
      "d": 48.828125,
      "v": 127
    },
    {
      "midi": 63,
      "hit": false,
      "t": 61171.875,
      "d": 205.078125,
      "v": 107
    },
    {
      "midi": 56,
      "hit": false,
      "t": 61171.875,
      "d": 222.16796875,
      "v": 122
    },
    {
      "midi": 47,
      "hit": false,
      "t": 61289.0625,
      "d": 75.68359375,
      "v": 105
    },
    {
      "midi": 47,
      "hit": false,
      "t": 61289.0625,
      "d": 75.68359375,
      "v": 123
    },
    {
      "midi": 71,
      "hit": false,
      "t": 61289.0625,
      "d": 61.03515625,
      "v": 127
    },
    {
      "midi": 71,
      "hit": false,
      "t": 61289.0625,
      "d": 63.4765625,
      "v": 110
    },
    {
      "midi": 35,
      "hit": false,
      "t": 61406.25,
      "d": 234.375,
      "v": 127
    },
    {
      "midi": 47,
      "hit": false,
      "t": 61406.25,
      "d": 61.03515625,
      "v": 116
    },
    {
      "midi": 47,
      "hit": false,
      "t": 61406.25,
      "d": 61.03515625,
      "v": 127
    },
    {
      "midi": 71,
      "hit": false,
      "t": 61406.25,
      "d": 48.828125,
      "v": 127
    },
    {
      "midi": 73,
      "hit": false,
      "t": 61406.25,
      "d": 36.62109375,
      "v": 116
    },
    {
      "midi": 64,
      "hit": false,
      "t": 61406.25,
      "d": 275.87890625,
      "v": 85
    },
    {
      "midi": 57,
      "hit": false,
      "t": 61406.25,
      "d": 290.52734375,
      "v": 115
    },
    {
      "midi": 71,
      "hit": false,
      "t": 61523.4375,
      "d": 75.68359375,
      "v": 127
    },
    {
      "midi": 73,
      "hit": false,
      "t": 61523.4375,
      "d": 39.0625,
      "v": 105
    },
    {
      "midi": 47,
      "hit": false,
      "t": 61640.625,
      "d": 234.375,
      "v": 127
    },
    {
      "midi": 47,
      "hit": false,
      "t": 61640.625,
      "d": 51.26953125,
      "v": 105
    },
    {
      "midi": 47,
      "hit": false,
      "t": 61640.625,
      "d": 51.26953125,
      "v": 123
    },
    {
      "midi": 71,
      "hit": false,
      "t": 61640.625,
      "d": 80.56640625,
      "v": 127
    },
    {
      "midi": 71,
      "hit": false,
      "t": 61640.625,
      "d": 46.38671875,
      "v": 122
    },
    {
      "midi": 63,
      "hit": false,
      "t": 61640.625,
      "d": 1083.984375,
      "v": 127
    },
    {
      "midi": 66,
      "hit": false,
      "t": 61640.625,
      "d": 1118.1640625,
      "v": 113
    },
    {
      "midi": 47,
      "hit": false,
      "t": 61757.8125,
      "d": 70.80078125,
      "v": 110
    },
    {
      "midi": 47,
      "hit": false,
      "t": 61757.8125,
      "d": 70.80078125,
      "v": 127
    },
    {
      "midi": 71,
      "hit": false,
      "t": 61757.8125,
      "d": 85.44921875,
      "v": 107
    },
    {
      "midi": 35,
      "hit": false,
      "t": 61875,
      "d": 234.375,
      "v": 127
    },
    {
      "midi": 47,
      "hit": false,
      "t": 61875,
      "d": 61.03515625,
      "v": 113
    },
    {
      "midi": 47,
      "hit": false,
      "t": 61875,
      "d": 61.03515625,
      "v": 127
    },
    {
      "midi": 47,
      "hit": false,
      "t": 62109.375,
      "d": 234.375,
      "v": 127
    },
    {
      "midi": 47,
      "hit": false,
      "t": 62109.375,
      "d": 51.26953125,
      "v": 105
    },
    {
      "midi": 47,
      "hit": false,
      "t": 62109.375,
      "d": 51.26953125,
      "v": 123
    },
    {
      "midi": 71,
      "hit": false,
      "t": 62109.375,
      "d": 51.26953125,
      "v": 127
    },
    {
      "midi": 71,
      "hit": false,
      "t": 62109.375,
      "d": 34.1796875,
      "v": 119
    },
    {
      "midi": 47,
      "hit": false,
      "t": 62226.5625,
      "d": 46.38671875,
      "v": 119
    },
    {
      "midi": 47,
      "hit": false,
      "t": 62226.5625,
      "d": 46.38671875,
      "v": 127
    },
    {
      "midi": 71,
      "hit": false,
      "t": 62226.5625,
      "d": 70.80078125,
      "v": 127
    },
    {
      "midi": 71,
      "hit": false,
      "t": 62226.5625,
      "d": 61.03515625,
      "v": 105
    },
    {
      "midi": 35,
      "hit": false,
      "t": 62343.75,
      "d": 234.375,
      "v": 127
    },
    {
      "midi": 47,
      "hit": false,
      "t": 62343.75,
      "d": 56.15234375,
      "v": 116
    },
    {
      "midi": 47,
      "hit": false,
      "t": 62343.75,
      "d": 56.15234375,
      "v": 127
    },
    {
      "midi": 71,
      "hit": false,
      "t": 62343.75,
      "d": 56.15234375,
      "v": 127
    },
    {
      "midi": 73,
      "hit": false,
      "t": 62343.75,
      "d": 26.85546875,
      "v": 113
    },
    {
      "midi": 71,
      "hit": false,
      "t": 62460.9375,
      "d": 78.125,
      "v": 127
    },
    {
      "midi": 73,
      "hit": false,
      "t": 62460.9375,
      "d": 51.26953125,
      "v": 110
    },
    {
      "midi": 47,
      "hit": false,
      "t": 62578.125,
      "d": 234.375,
      "v": 127
    },
    {
      "midi": 47,
      "hit": false,
      "t": 62578.125,
      "d": 51.26953125,
      "v": 105
    },
    {
      "midi": 47,
      "hit": false,
      "t": 62578.125,
      "d": 51.26953125,
      "v": 123
    },
    {
      "midi": 71,
      "hit": false,
      "t": 62578.125,
      "d": 73.2421875,
      "v": 127
    },
    {
      "midi": 72,
      "hit": false,
      "t": 62578.125,
      "d": 24.4140625,
      "v": 107
    },
    {
      "midi": 71,
      "hit": false,
      "t": 62578.125,
      "d": 36.62109375,
      "v": 107
    },
    {
      "midi": 47,
      "hit": false,
      "t": 62695.3125,
      "d": 51.26953125,
      "v": 107
    },
    {
      "midi": 47,
      "hit": false,
      "t": 62695.3125,
      "d": 51.26953125,
      "v": 125
    },
    {
      "midi": 71,
      "hit": false,
      "t": 62695.3125,
      "d": 78.125,
      "v": 107
    },
    {
      "midi": 35,
      "hit": false,
      "t": 62812.5,
      "d": 234.375,
      "v": 127
    },
    {
      "midi": 47,
      "hit": false,
      "t": 62812.5,
      "d": 58.59375,
      "v": 116
    },
    {
      "midi": 47,
      "hit": false,
      "t": 62812.5,
      "d": 58.59375,
      "v": 127
    },
    {
      "midi": 59,
      "hit": false,
      "t": 62812.5,
      "d": 251.46484375,
      "v": 107
    },
    {
      "midi": 54,
      "hit": false,
      "t": 62812.5,
      "d": 278.3203125,
      "v": 122
    },
    {
      "midi": 47,
      "hit": false,
      "t": 63046.875,
      "d": 234.375,
      "v": 127
    },
    {
      "midi": 47,
      "hit": false,
      "t": 63046.875,
      "d": 53.7109375,
      "v": 105
    },
    {
      "midi": 47,
      "hit": false,
      "t": 63046.875,
      "d": 53.7109375,
      "v": 123
    },
    {
      "midi": 71,
      "hit": false,
      "t": 63046.875,
      "d": 43.9453125,
      "v": 127
    },
    {
      "midi": 71,
      "hit": false,
      "t": 63046.875,
      "d": 48.828125,
      "v": 127
    },
    {
      "midi": 63,
      "hit": false,
      "t": 63046.875,
      "d": 178.22265625,
      "v": 107
    },
    {
      "midi": 56,
      "hit": false,
      "t": 63046.875,
      "d": 244.140625,
      "v": 127
    },
    {
      "midi": 47,
      "hit": false,
      "t": 63164.0625,
      "d": 78.125,
      "v": 113
    },
    {
      "midi": 47,
      "hit": false,
      "t": 63164.0625,
      "d": 78.125,
      "v": 127
    },
    {
      "midi": 71,
      "hit": false,
      "t": 63164.0625,
      "d": 61.03515625,
      "v": 127
    },
    {
      "midi": 71,
      "hit": false,
      "t": 63164.0625,
      "d": 63.4765625,
      "v": 110
    },
    {
      "midi": 35,
      "hit": false,
      "t": 63281.25,
      "d": 234.375,
      "v": 127
    },
    {
      "midi": 47,
      "hit": false,
      "t": 63281.25,
      "d": 63.4765625,
      "v": 113
    },
    {
      "midi": 47,
      "hit": false,
      "t": 63281.25,
      "d": 63.4765625,
      "v": 127
    },
    {
      "midi": 71,
      "hit": false,
      "t": 63281.25,
      "d": 53.7109375,
      "v": 127
    },
    {
      "midi": 73,
      "hit": false,
      "t": 63281.25,
      "d": 36.62109375,
      "v": 116
    },
    {
      "midi": 57,
      "hit": false,
      "t": 63281.25,
      "d": 229.4921875,
      "v": 109
    },
    {
      "midi": 64,
      "hit": false,
      "t": 63281.25,
      "d": 280.76171875,
      "v": 82
    },
    {
      "midi": 71,
      "hit": false,
      "t": 63398.4375,
      "d": 73.2421875,
      "v": 127
    },
    {
      "midi": 73,
      "hit": false,
      "t": 63398.4375,
      "d": 39.0625,
      "v": 105
    },
    {
      "midi": 47,
      "hit": false,
      "t": 63515.625,
      "d": 234.375,
      "v": 127
    },
    {
      "midi": 47,
      "hit": false,
      "t": 63515.625,
      "d": 51.26953125,
      "v": 105
    },
    {
      "midi": 47,
      "hit": false,
      "t": 63515.625,
      "d": 51.26953125,
      "v": 123
    },
    {
      "midi": 71,
      "hit": false,
      "t": 63515.625,
      "d": 87.890625,
      "v": 127
    },
    {
      "midi": 71,
      "hit": false,
      "t": 63515.625,
      "d": 46.38671875,
      "v": 122
    },
    {
      "midi": 63,
      "hit": false,
      "t": 63515.625,
      "d": 317.3828125,
      "v": 127
    },
    {
      "midi": 66,
      "hit": false,
      "t": 63515.625,
      "d": 339.35546875,
      "v": 107
    },
    {
      "midi": 47,
      "hit": false,
      "t": 63632.8125,
      "d": 48.828125,
      "v": 110
    },
    {
      "midi": 47,
      "hit": false,
      "t": 63632.8125,
      "d": 48.828125,
      "v": 127
    },
    {
      "midi": 71,
      "hit": false,
      "t": 63632.8125,
      "d": 85.44921875,
      "v": 107
    },
    {
      "midi": 35,
      "hit": false,
      "t": 63750,
      "d": 234.375,
      "v": 127
    },
    {
      "midi": 47,
      "hit": false,
      "t": 63750,
      "d": 58.59375,
      "v": 113
    },
    {
      "midi": 47,
      "hit": false,
      "t": 63750,
      "d": 58.59375,
      "v": 127
    },
    {
      "midi": 47,
      "hit": false,
      "t": 63984.375,
      "d": 234.375,
      "v": 127
    },
    {
      "midi": 47,
      "hit": false,
      "t": 63984.375,
      "d": 56.15234375,
      "v": 102
    },
    {
      "midi": 47,
      "hit": false,
      "t": 63984.375,
      "d": 56.15234375,
      "v": 120
    },
    {
      "midi": 71,
      "hit": false,
      "t": 63984.375,
      "d": 51.26953125,
      "v": 127
    },
    {
      "midi": 71,
      "hit": false,
      "t": 63984.375,
      "d": 34.1796875,
      "v": 119
    },
    {
      "midi": 63,
      "hit": false,
      "t": 63984.375,
      "d": 90.33203125,
      "v": 127
    },
    {
      "midi": 66,
      "hit": false,
      "t": 63984.375,
      "d": 100.09765625,
      "v": 102
    },
    {
      "midi": 47,
      "hit": false,
      "t": 64101.5625,
      "d": 39.0625,
      "v": 116
    },
    {
      "midi": 47,
      "hit": false,
      "t": 64101.5625,
      "d": 39.0625,
      "v": 127
    },
    {
      "midi": 71,
      "hit": false,
      "t": 64101.5625,
      "d": 63.4765625,
      "v": 127
    },
    {
      "midi": 71,
      "hit": false,
      "t": 64101.5625,
      "d": 61.03515625,
      "v": 105
    },
    {
      "midi": 35,
      "hit": false,
      "t": 64218.75,
      "d": 234.375,
      "v": 127
    },
    {
      "midi": 47,
      "hit": false,
      "t": 64218.75,
      "d": 61.03515625,
      "v": 116
    },
    {
      "midi": 47,
      "hit": false,
      "t": 64218.75,
      "d": 61.03515625,
      "v": 127
    },
    {
      "midi": 71,
      "hit": false,
      "t": 64218.75,
      "d": 53.7109375,
      "v": 127
    },
    {
      "midi": 73,
      "hit": false,
      "t": 64218.75,
      "d": 26.85546875,
      "v": 113
    },
    {
      "midi": 66,
      "hit": false,
      "t": 64218.75,
      "d": 73.2421875,
      "v": 98
    },
    {
      "midi": 63,
      "hit": false,
      "t": 64218.75,
      "d": 95.21484375,
      "v": 127
    },
    {
      "midi": 71,
      "hit": false,
      "t": 64335.9375,
      "d": 61.03515625,
      "v": 127
    },
    {
      "midi": 73,
      "hit": false,
      "t": 64335.9375,
      "d": 51.26953125,
      "v": 110
    },
    {
      "midi": 47,
      "hit": false,
      "t": 64453.125,
      "d": 234.375,
      "v": 127
    },
    {
      "midi": 47,
      "hit": false,
      "t": 64453.125,
      "d": 63.4765625,
      "v": 102
    },
    {
      "midi": 47,
      "hit": false,
      "t": 64453.125,
      "d": 63.4765625,
      "v": 120
    },
    {
      "midi": 71,
      "hit": false,
      "t": 64453.125,
      "d": 75.68359375,
      "v": 127
    },
    {
      "midi": 72,
      "hit": false,
      "t": 64453.125,
      "d": 24.4140625,
      "v": 107
    },
    {
      "midi": 71,
      "hit": false,
      "t": 64453.125,
      "d": 36.62109375,
      "v": 107
    },
    {
      "midi": 66,
      "hit": false,
      "t": 64453.125,
      "d": 390.625,
      "v": 113
    },
    {
      "midi": 63,
      "hit": false,
      "t": 64453.125,
      "d": 444.3359375,
      "v": 127
    },
    {
      "midi": 47,
      "hit": false,
      "t": 64570.3125,
      "d": 36.62109375,
      "v": 113
    },
    {
      "midi": 47,
      "hit": false,
      "t": 64570.3125,
      "d": 36.62109375,
      "v": 127
    },
    {
      "midi": 71,
      "hit": false,
      "t": 64570.3125,
      "d": 78.125,
      "v": 107
    },
    {
      "midi": 35,
      "hit": false,
      "t": 64687.5,
      "d": 234.375,
      "v": 127
    },
    {
      "midi": 47,
      "hit": false,
      "t": 64687.5,
      "d": 58.59375,
      "v": 110
    },
    {
      "midi": 47,
      "hit": false,
      "t": 64687.5,
      "d": 58.59375,
      "v": 127
    },
    {
      "midi": 47,
      "hit": false,
      "t": 64921.875,
      "d": 234.375,
      "v": 127
    },
    {
      "midi": 47,
      "hit": false,
      "t": 64921.875,
      "d": 61.03515625,
      "v": 113
    },
    {
      "midi": 47,
      "hit": false,
      "t": 64921.875,
      "d": 61.03515625,
      "v": 127
    },
    {
      "midi": 71,
      "hit": false,
      "t": 64921.875,
      "d": 39.0625,
      "v": 127
    },
    {
      "midi": 71,
      "hit": false,
      "t": 64921.875,
      "d": 48.828125,
      "v": 127
    },
    {
      "midi": 61,
      "hit": false,
      "t": 64921.875,
      "d": 227.05078125,
      "v": 127
    },
    {
      "midi": 64,
      "hit": false,
      "t": 64921.875,
      "d": 258.7890625,
      "v": 105
    },
    {
      "midi": 47,
      "hit": false,
      "t": 65039.0625,
      "d": 56.15234375,
      "v": 113
    },
    {
      "midi": 47,
      "hit": false,
      "t": 65039.0625,
      "d": 56.15234375,
      "v": 127
    },
    {
      "midi": 71,
      "hit": false,
      "t": 65039.0625,
      "d": 51.26953125,
      "v": 127
    },
    {
      "midi": 71,
      "hit": false,
      "t": 65039.0625,
      "d": 63.4765625,
      "v": 110
    },
    {
      "midi": 35,
      "hit": false,
      "t": 65156.25,
      "d": 234.375,
      "v": 127
    },
    {
      "midi": 47,
      "hit": false,
      "t": 65156.25,
      "d": 65.91796875,
      "v": 119
    },
    {
      "midi": 47,
      "hit": false,
      "t": 65156.25,
      "d": 65.91796875,
      "v": 127
    },
    {
      "midi": 71,
      "hit": false,
      "t": 65156.25,
      "d": 51.26953125,
      "v": 127
    },
    {
      "midi": 73,
      "hit": false,
      "t": 65156.25,
      "d": 36.62109375,
      "v": 116
    },
    {
      "midi": 63,
      "hit": false,
      "t": 65156.25,
      "d": 104.98046875,
      "v": 110
    },
    {
      "midi": 57,
      "hit": false,
      "t": 65156.25,
      "d": 292.96875,
      "v": 102
    },
    {
      "midi": 71,
      "hit": false,
      "t": 65273.4375,
      "d": 78.125,
      "v": 127
    },
    {
      "midi": 73,
      "hit": false,
      "t": 65273.4375,
      "d": 39.0625,
      "v": 105
    },
    {
      "midi": 47,
      "hit": false,
      "t": 65390.625,
      "d": 234.375,
      "v": 127
    },
    {
      "midi": 47,
      "hit": false,
      "t": 65390.625,
      "d": 56.15234375,
      "v": 107
    },
    {
      "midi": 47,
      "hit": false,
      "t": 65390.625,
      "d": 56.15234375,
      "v": 125
    },
    {
      "midi": 71,
      "hit": false,
      "t": 65390.625,
      "d": 83.0078125,
      "v": 127
    },
    {
      "midi": 71,
      "hit": false,
      "t": 65390.625,
      "d": 46.38671875,
      "v": 122
    },
    {
      "midi": 56,
      "hit": false,
      "t": 65390.625,
      "d": 944.82421875,
      "v": 127
    },
    {
      "midi": 64,
      "hit": false,
      "t": 65390.625,
      "d": 1083.984375,
      "v": 105
    },
    {
      "midi": 47,
      "hit": false,
      "t": 65507.8125,
      "d": 56.15234375,
      "v": 113
    },
    {
      "midi": 47,
      "hit": false,
      "t": 65507.8125,
      "d": 56.15234375,
      "v": 127
    },
    {
      "midi": 71,
      "hit": false,
      "t": 65507.8125,
      "d": 85.44921875,
      "v": 107
    },
    {
      "midi": 28,
      "hit": false,
      "t": 65625,
      "d": 234.375,
      "v": 127
    },
    {
      "midi": 68,
      "hit": false,
      "t": 65625,
      "d": 1875,
      "v": 48
    },
    {
      "midi": 71,
      "hit": false,
      "t": 65625,
      "d": 1875,
      "v": 22
    },
    {
      "midi": 76,
      "hit": false,
      "t": 65625,
      "d": 1875,
      "v": 48
    },
    {
      "midi": 52,
      "hit": false,
      "t": 65625,
      "d": 61.03515625,
      "v": 107
    },
    {
      "midi": 52,
      "hit": false,
      "t": 65625,
      "d": 61.03515625,
      "v": 125
    },
    {
      "midi": 68,
      "hit": false,
      "t": 65637.20703125,
      "d": 1862.79296875,
      "v": 105
    },
    {
      "midi": 71,
      "hit": false,
      "t": 65642.08984375,
      "d": 1857.91015625,
      "v": 82
    },
    {
      "midi": 64,
      "hit": false,
      "t": 65646.97265625,
      "d": 1853.02734375,
      "v": 89
    },
    {
      "midi": 40,
      "hit": false,
      "t": 65859.375,
      "d": 234.375,
      "v": 127
    },
    {
      "midi": 52,
      "hit": false,
      "t": 65859.375,
      "d": 51.26953125,
      "v": 102
    },
    {
      "midi": 52,
      "hit": false,
      "t": 65859.375,
      "d": 51.26953125,
      "v": 120
    },
    {
      "midi": 76,
      "hit": false,
      "t": 65859.375,
      "d": 43.9453125,
      "v": 127
    },
    {
      "midi": 71,
      "hit": false,
      "t": 65859.375,
      "d": 34.1796875,
      "v": 119
    },
    {
      "midi": 52,
      "hit": false,
      "t": 65976.5625,
      "d": 61.03515625,
      "v": 105
    },
    {
      "midi": 52,
      "hit": false,
      "t": 65976.5625,
      "d": 61.03515625,
      "v": 123
    },
    {
      "midi": 76,
      "hit": false,
      "t": 65976.5625,
      "d": 53.7109375,
      "v": 127
    },
    {
      "midi": 71,
      "hit": false,
      "t": 65976.5625,
      "d": 61.03515625,
      "v": 105
    },
    {
      "midi": 28,
      "hit": false,
      "t": 66093.75,
      "d": 234.375,
      "v": 127
    },
    {
      "midi": 52,
      "hit": false,
      "t": 66093.75,
      "d": 51.26953125,
      "v": 110
    },
    {
      "midi": 52,
      "hit": false,
      "t": 66093.75,
      "d": 51.26953125,
      "v": 127
    },
    {
      "midi": 76,
      "hit": false,
      "t": 66093.75,
      "d": 51.26953125,
      "v": 127
    },
    {
      "midi": 73,
      "hit": false,
      "t": 66093.75,
      "d": 26.85546875,
      "v": 113
    },
    {
      "midi": 76,
      "hit": false,
      "t": 66210.9375,
      "d": 63.4765625,
      "v": 127
    },
    {
      "midi": 73,
      "hit": false,
      "t": 66210.9375,
      "d": 51.26953125,
      "v": 110
    },
    {
      "midi": 40,
      "hit": false,
      "t": 66328.125,
      "d": 234.375,
      "v": 127
    },
    {
      "midi": 52,
      "hit": false,
      "t": 66328.125,
      "d": 53.7109375,
      "v": 102
    },
    {
      "midi": 52,
      "hit": false,
      "t": 66328.125,
      "d": 53.7109375,
      "v": 120
    },
    {
      "midi": 76,
      "hit": false,
      "t": 66328.125,
      "d": 102.5390625,
      "v": 127
    },
    {
      "midi": 72,
      "hit": false,
      "t": 66328.125,
      "d": 24.4140625,
      "v": 107
    },
    {
      "midi": 71,
      "hit": false,
      "t": 66328.125,
      "d": 36.62109375,
      "v": 107
    },
    {
      "midi": 52,
      "hit": false,
      "t": 66445.3125,
      "d": 70.80078125,
      "v": 107
    },
    {
      "midi": 52,
      "hit": false,
      "t": 66445.3125,
      "d": 70.80078125,
      "v": 125
    },
    {
      "midi": 71,
      "hit": false,
      "t": 66445.3125,
      "d": 78.125,
      "v": 107
    },
    {
      "midi": 28,
      "hit": false,
      "t": 66562.5,
      "d": 234.375,
      "v": 127
    },
    {
      "midi": 52,
      "hit": false,
      "t": 66562.5,
      "d": 56.15234375,
      "v": 116
    },
    {
      "midi": 52,
      "hit": false,
      "t": 66562.5,
      "d": 56.15234375,
      "v": 127
    },
    {
      "midi": 59,
      "hit": false,
      "t": 66562.5,
      "d": 246.58203125,
      "v": 102
    },
    {
      "midi": 56,
      "hit": false,
      "t": 66562.5,
      "d": 273.4375,
      "v": 127
    },
    {
      "midi": 40,
      "hit": false,
      "t": 66796.875,
      "d": 234.375,
      "v": 127
    },
    {
      "midi": 52,
      "hit": false,
      "t": 66796.875,
      "d": 51.26953125,
      "v": 107
    },
    {
      "midi": 52,
      "hit": false,
      "t": 66796.875,
      "d": 51.26953125,
      "v": 125
    },
    {
      "midi": 76,
      "hit": false,
      "t": 66796.875,
      "d": 51.26953125,
      "v": 127
    },
    {
      "midi": 71,
      "hit": false,
      "t": 66796.875,
      "d": 48.828125,
      "v": 127
    },
    {
      "midi": 64,
      "hit": false,
      "t": 66796.875,
      "d": 197.75390625,
      "v": 100
    },
    {
      "midi": 57,
      "hit": false,
      "t": 66801.7578125,
      "d": 234.375,
      "v": 109
    },
    {
      "midi": 52,
      "hit": false,
      "t": 66914.0625,
      "d": 78.125,
      "v": 107
    },
    {
      "midi": 52,
      "hit": false,
      "t": 66914.0625,
      "d": 78.125,
      "v": 125
    },
    {
      "midi": 76,
      "hit": false,
      "t": 66914.0625,
      "d": 61.03515625,
      "v": 127
    },
    {
      "midi": 71,
      "hit": false,
      "t": 66914.0625,
      "d": 63.4765625,
      "v": 110
    },
    {
      "midi": 28,
      "hit": false,
      "t": 67031.25,
      "d": 234.375,
      "v": 127
    },
    {
      "midi": 52,
      "hit": false,
      "t": 67031.25,
      "d": 56.15234375,
      "v": 113
    },
    {
      "midi": 52,
      "hit": false,
      "t": 67031.25,
      "d": 56.15234375,
      "v": 127
    },
    {
      "midi": 76,
      "hit": false,
      "t": 67031.25,
      "d": 53.7109375,
      "v": 127
    },
    {
      "midi": 73,
      "hit": false,
      "t": 67031.25,
      "d": 36.62109375,
      "v": 116
    },
    {
      "midi": 59,
      "hit": false,
      "t": 67031.25,
      "d": 222.16796875,
      "v": 118
    },
    {
      "midi": 66,
      "hit": false,
      "t": 67031.25,
      "d": 229.4921875,
      "v": 76
    },
    {
      "midi": 76,
      "hit": false,
      "t": 67148.4375,
      "d": 65.91796875,
      "v": 127
    },
    {
      "midi": 73,
      "hit": false,
      "t": 67148.4375,
      "d": 39.0625,
      "v": 105
    },
    {
      "midi": 40,
      "hit": false,
      "t": 67265.625,
      "d": 234.375,
      "v": 127
    },
    {
      "midi": 52,
      "hit": false,
      "t": 67265.625,
      "d": 58.59375,
      "v": 105
    },
    {
      "midi": 52,
      "hit": false,
      "t": 67265.625,
      "d": 58.59375,
      "v": 123
    },
    {
      "midi": 76,
      "hit": false,
      "t": 67265.625,
      "d": 80.56640625,
      "v": 127
    },
    {
      "midi": 71,
      "hit": false,
      "t": 67265.625,
      "d": 46.38671875,
      "v": 122
    },
    {
      "midi": 64,
      "hit": false,
      "t": 67265.625,
      "d": 993.65234375,
      "v": 127
    },
    {
      "midi": 68,
      "hit": false,
      "t": 67265.625,
      "d": 1223.14453125,
      "v": 93
    },
    {
      "midi": 52,
      "hit": false,
      "t": 67382.8125,
      "d": 65.91796875,
      "v": 102
    },
    {
      "midi": 52,
      "hit": false,
      "t": 67382.8125,
      "d": 65.91796875,
      "v": 120
    },
    {
      "midi": 71,
      "hit": false,
      "t": 67382.8125,
      "d": 85.44921875,
      "v": 107
    },
    {
      "midi": 28,
      "hit": false,
      "t": 67500,
      "d": 234.375,
      "v": 127
    },
    {
      "midi": 68,
      "hit": false,
      "t": 67500,
      "d": 5507.8125,
      "v": 105
    },
    {
      "midi": 68,
      "hit": false,
      "t": 67500,
      "d": 5390.625,
      "v": 48
    },
    {
      "midi": 71,
      "hit": false,
      "t": 67500,
      "d": 5390.625,
      "v": 22
    },
    {
      "midi": 76,
      "hit": false,
      "t": 67500,
      "d": 5507.8125,
      "v": 48
    },
    {
      "midi": 52,
      "hit": false,
      "t": 67500,
      "d": 53.7109375,
      "v": 110
    },
    {
      "midi": 52,
      "hit": false,
      "t": 67500,
      "d": 53.7109375,
      "v": 127
    },
    {
      "midi": 71,
      "hit": false,
      "t": 67504.8828125,
      "d": 5502.9296875,
      "v": 82
    },
    {
      "midi": 64,
      "hit": false,
      "t": 67509.765625,
      "d": 5498.046875,
      "v": 89
    },
    {
      "midi": 40,
      "hit": false,
      "t": 67734.375,
      "d": 234.375,
      "v": 127
    },
    {
      "midi": 52,
      "hit": false,
      "t": 67734.375,
      "d": 51.26953125,
      "v": 100
    },
    {
      "midi": 52,
      "hit": false,
      "t": 67734.375,
      "d": 51.26953125,
      "v": 118
    },
    {
      "midi": 76,
      "hit": false,
      "t": 67734.375,
      "d": 43.9453125,
      "v": 127
    },
    {
      "midi": 71,
      "hit": false,
      "t": 67734.375,
      "d": 34.1796875,
      "v": 119
    },
    {
      "midi": 52,
      "hit": false,
      "t": 67851.5625,
      "d": 68.359375,
      "v": 105
    },
    {
      "midi": 52,
      "hit": false,
      "t": 67851.5625,
      "d": 68.359375,
      "v": 123
    },
    {
      "midi": 76,
      "hit": false,
      "t": 67851.5625,
      "d": 70.80078125,
      "v": 127
    },
    {
      "midi": 71,
      "hit": false,
      "t": 67851.5625,
      "d": 61.03515625,
      "v": 105
    },
    {
      "midi": 28,
      "hit": false,
      "t": 67968.75,
      "d": 234.375,
      "v": 127
    },
    {
      "midi": 52,
      "hit": false,
      "t": 67968.75,
      "d": 56.15234375,
      "v": 113
    },
    {
      "midi": 52,
      "hit": false,
      "t": 67968.75,
      "d": 56.15234375,
      "v": 127
    },
    {
      "midi": 76,
      "hit": false,
      "t": 67968.75,
      "d": 61.03515625,
      "v": 127
    },
    {
      "midi": 73,
      "hit": false,
      "t": 67968.75,
      "d": 26.85546875,
      "v": 113
    },
    {
      "midi": 76,
      "hit": false,
      "t": 68085.9375,
      "d": 70.80078125,
      "v": 127
    },
    {
      "midi": 73,
      "hit": false,
      "t": 68085.9375,
      "d": 51.26953125,
      "v": 110
    },
    {
      "midi": 40,
      "hit": false,
      "t": 68203.125,
      "d": 234.375,
      "v": 127
    },
    {
      "midi": 52,
      "hit": false,
      "t": 68203.125,
      "d": 53.7109375,
      "v": 105
    },
    {
      "midi": 52,
      "hit": false,
      "t": 68203.125,
      "d": 53.7109375,
      "v": 123
    },
    {
      "midi": 76,
      "hit": false,
      "t": 68203.125,
      "d": 87.890625,
      "v": 127
    },
    {
      "midi": 72,
      "hit": false,
      "t": 68203.125,
      "d": 24.4140625,
      "v": 107
    },
    {
      "midi": 71,
      "hit": false,
      "t": 68203.125,
      "d": 36.62109375,
      "v": 107
    },
    {
      "midi": 52,
      "hit": false,
      "t": 68320.3125,
      "d": 68.359375,
      "v": 107
    },
    {
      "midi": 52,
      "hit": false,
      "t": 68320.3125,
      "d": 68.359375,
      "v": 125
    },
    {
      "midi": 71,
      "hit": false,
      "t": 68320.3125,
      "d": 78.125,
      "v": 107
    },
    {
      "midi": 28,
      "hit": false,
      "t": 68437.5,
      "d": 234.375,
      "v": 127
    },
    {
      "midi": 52,
      "hit": false,
      "t": 68437.5,
      "d": 56.15234375,
      "v": 113
    },
    {
      "midi": 52,
      "hit": false,
      "t": 68437.5,
      "d": 56.15234375,
      "v": 127
    },
    {
      "midi": 59,
      "hit": false,
      "t": 68437.5,
      "d": 187.98828125,
      "v": 107
    },
    {
      "midi": 56,
      "hit": false,
      "t": 68437.5,
      "d": 258.7890625,
      "v": 127
    },
    {
      "midi": 40,
      "hit": false,
      "t": 68671.875,
      "d": 234.375,
      "v": 127
    },
    {
      "midi": 52,
      "hit": false,
      "t": 68671.875,
      "d": 51.26953125,
      "v": 107
    },
    {
      "midi": 52,
      "hit": false,
      "t": 68671.875,
      "d": 51.26953125,
      "v": 125
    },
    {
      "midi": 76,
      "hit": false,
      "t": 68671.875,
      "d": 51.26953125,
      "v": 127
    },
    {
      "midi": 71,
      "hit": false,
      "t": 68671.875,
      "d": 48.828125,
      "v": 127
    },
    {
      "midi": 57,
      "hit": false,
      "t": 68671.875,
      "d": 229.4921875,
      "v": 109
    },
    {
      "midi": 64,
      "hit": false,
      "t": 68671.875,
      "d": 310.05859375,
      "v": 98
    },
    {
      "midi": 52,
      "hit": false,
      "t": 68789.0625,
      "d": 75.68359375,
      "v": 107
    },
    {
      "midi": 52,
      "hit": false,
      "t": 68789.0625,
      "d": 75.68359375,
      "v": 125
    },
    {
      "midi": 76,
      "hit": false,
      "t": 68789.0625,
      "d": 63.4765625,
      "v": 127
    },
    {
      "midi": 71,
      "hit": false,
      "t": 68789.0625,
      "d": 63.4765625,
      "v": 110
    },
    {
      "midi": 28,
      "hit": false,
      "t": 68906.25,
      "d": 234.375,
      "v": 127
    },
    {
      "midi": 52,
      "hit": false,
      "t": 68906.25,
      "d": 51.26953125,
      "v": 110
    },
    {
      "midi": 52,
      "hit": false,
      "t": 68906.25,
      "d": 51.26953125,
      "v": 127
    },
    {
      "midi": 76,
      "hit": false,
      "t": 68906.25,
      "d": 43.9453125,
      "v": 127
    },
    {
      "midi": 73,
      "hit": false,
      "t": 68906.25,
      "d": 36.62109375,
      "v": 116
    },
    {
      "midi": 59,
      "hit": false,
      "t": 68906.25,
      "d": 249.0234375,
      "v": 102
    },
    {
      "midi": 66,
      "hit": false,
      "t": 68906.25,
      "d": 258.7890625,
      "v": 107
    },
    {
      "midi": 76,
      "hit": false,
      "t": 69023.4375,
      "d": 73.2421875,
      "v": 127
    },
    {
      "midi": 73,
      "hit": false,
      "t": 69023.4375,
      "d": 39.0625,
      "v": 105
    },
    {
      "midi": 40,
      "hit": false,
      "t": 69140.625,
      "d": 234.375,
      "v": 127
    },
    {
      "midi": 52,
      "hit": false,
      "t": 69140.625,
      "d": 56.15234375,
      "v": 110
    },
    {
      "midi": 52,
      "hit": false,
      "t": 69140.625,
      "d": 56.15234375,
      "v": 127
    },
    {
      "midi": 76,
      "hit": false,
      "t": 69140.625,
      "d": 83.0078125,
      "v": 127
    },
    {
      "midi": 71,
      "hit": false,
      "t": 69140.625,
      "d": 46.38671875,
      "v": 122
    },
    {
      "midi": 64,
      "hit": false,
      "t": 69140.625,
      "d": 1052.24609375,
      "v": 127
    },
    {
      "midi": 68,
      "hit": false,
      "t": 69140.625,
      "d": 1247.55859375,
      "v": 100
    },
    {
      "midi": 52,
      "hit": false,
      "t": 69257.8125,
      "d": 58.59375,
      "v": 107
    },
    {
      "midi": 52,
      "hit": false,
      "t": 69257.8125,
      "d": 58.59375,
      "v": 125
    },
    {
      "midi": 71,
      "hit": false,
      "t": 69257.8125,
      "d": 85.44921875,
      "v": 107
    },
    {
      "midi": 28,
      "hit": false,
      "t": 69375,
      "d": 234.375,
      "v": 127
    },
    {
      "midi": 52,
      "hit": false,
      "t": 69375,
      "d": 53.7109375,
      "v": 116
    },
    {
      "midi": 52,
      "hit": false,
      "t": 69375,
      "d": 53.7109375,
      "v": 127
    },
    {
      "midi": 40,
      "hit": false,
      "t": 69609.375,
      "d": 234.375,
      "v": 127
    },
    {
      "midi": 52,
      "hit": false,
      "t": 69609.375,
      "d": 48.828125,
      "v": 105
    },
    {
      "midi": 52,
      "hit": false,
      "t": 69609.375,
      "d": 48.828125,
      "v": 123
    },
    {
      "midi": 76,
      "hit": false,
      "t": 69609.375,
      "d": 48.828125,
      "v": 127
    },
    {
      "midi": 71,
      "hit": false,
      "t": 69609.375,
      "d": 34.1796875,
      "v": 119
    },
    {
      "midi": 52,
      "hit": false,
      "t": 69726.5625,
      "d": 80.56640625,
      "v": 110
    },
    {
      "midi": 52,
      "hit": false,
      "t": 69726.5625,
      "d": 80.56640625,
      "v": 127
    },
    {
      "midi": 76,
      "hit": false,
      "t": 69726.5625,
      "d": 63.4765625,
      "v": 127
    },
    {
      "midi": 71,
      "hit": false,
      "t": 69726.5625,
      "d": 61.03515625,
      "v": 105
    },
    {
      "midi": 28,
      "hit": false,
      "t": 69843.75,
      "d": 234.375,
      "v": 127
    },
    {
      "midi": 52,
      "hit": false,
      "t": 69843.75,
      "d": 58.59375,
      "v": 113
    },
    {
      "midi": 52,
      "hit": false,
      "t": 69843.75,
      "d": 58.59375,
      "v": 127
    },
    {
      "midi": 76,
      "hit": false,
      "t": 69843.75,
      "d": 48.828125,
      "v": 127
    },
    {
      "midi": 73,
      "hit": false,
      "t": 69843.75,
      "d": 26.85546875,
      "v": 113
    },
    {
      "midi": 76,
      "hit": false,
      "t": 69960.9375,
      "d": 65.91796875,
      "v": 127
    },
    {
      "midi": 73,
      "hit": false,
      "t": 69960.9375,
      "d": 51.26953125,
      "v": 110
    },
    {
      "midi": 40,
      "hit": false,
      "t": 70078.125,
      "d": 234.375,
      "v": 127
    },
    {
      "midi": 52,
      "hit": false,
      "t": 70078.125,
      "d": 53.7109375,
      "v": 105
    },
    {
      "midi": 52,
      "hit": false,
      "t": 70078.125,
      "d": 53.7109375,
      "v": 123
    },
    {
      "midi": 76,
      "hit": false,
      "t": 70078.125,
      "d": 83.0078125,
      "v": 127
    },
    {
      "midi": 72,
      "hit": false,
      "t": 70078.125,
      "d": 24.4140625,
      "v": 107
    },
    {
      "midi": 71,
      "hit": false,
      "t": 70078.125,
      "d": 36.62109375,
      "v": 107
    },
    {
      "midi": 52,
      "hit": false,
      "t": 70195.3125,
      "d": 85.44921875,
      "v": 107
    },
    {
      "midi": 52,
      "hit": false,
      "t": 70195.3125,
      "d": 85.44921875,
      "v": 125
    },
    {
      "midi": 71,
      "hit": false,
      "t": 70195.3125,
      "d": 78.125,
      "v": 107
    },
    {
      "midi": 28,
      "hit": false,
      "t": 70312.5,
      "d": 234.375,
      "v": 127
    },
    {
      "midi": 52,
      "hit": false,
      "t": 70312.5,
      "d": 56.15234375,
      "v": 113
    },
    {
      "midi": 52,
      "hit": false,
      "t": 70312.5,
      "d": 56.15234375,
      "v": 127
    },
    {
      "midi": 59,
      "hit": false,
      "t": 70312.5,
      "d": 190.4296875,
      "v": 110
    },
    {
      "midi": 56,
      "hit": false,
      "t": 70312.5,
      "d": 280.76171875,
      "v": 125
    },
    {
      "midi": 40,
      "hit": false,
      "t": 70546.875,
      "d": 234.375,
      "v": 127
    },
    {
      "midi": 52,
      "hit": false,
      "t": 70546.875,
      "d": 56.15234375,
      "v": 105
    },
    {
      "midi": 52,
      "hit": false,
      "t": 70546.875,
      "d": 56.15234375,
      "v": 123
    },
    {
      "midi": 76,
      "hit": false,
      "t": 70546.875,
      "d": 51.26953125,
      "v": 127
    },
    {
      "midi": 71,
      "hit": false,
      "t": 70546.875,
      "d": 48.828125,
      "v": 127
    },
    {
      "midi": 57,
      "hit": false,
      "t": 70546.875,
      "d": 212.40234375,
      "v": 107
    },
    {
      "midi": 64,
      "hit": false,
      "t": 70546.875,
      "d": 290.52734375,
      "v": 100
    },
    {
      "midi": 52,
      "hit": false,
      "t": 70664.0625,
      "d": 51.26953125,
      "v": 105
    },
    {
      "midi": 52,
      "hit": false,
      "t": 70664.0625,
      "d": 51.26953125,
      "v": 123
    },
    {
      "midi": 76,
      "hit": false,
      "t": 70664.0625,
      "d": 51.26953125,
      "v": 127
    },
    {
      "midi": 71,
      "hit": false,
      "t": 70664.0625,
      "d": 63.4765625,
      "v": 110
    },
    {
      "midi": 28,
      "hit": false,
      "t": 70781.25,
      "d": 234.375,
      "v": 127
    },
    {
      "midi": 52,
      "hit": false,
      "t": 70781.25,
      "d": 53.7109375,
      "v": 116
    },
    {
      "midi": 52,
      "hit": false,
      "t": 70781.25,
      "d": 53.7109375,
      "v": 127
    },
    {
      "midi": 76,
      "hit": false,
      "t": 70781.25,
      "d": 46.38671875,
      "v": 127
    },
    {
      "midi": 73,
      "hit": false,
      "t": 70781.25,
      "d": 36.62109375,
      "v": 116
    },
    {
      "midi": 59,
      "hit": false,
      "t": 70781.25,
      "d": 217.28515625,
      "v": 115
    },
    {
      "midi": 66,
      "hit": false,
      "t": 70781.25,
      "d": 268.5546875,
      "v": 100
    },
    {
      "midi": 76,
      "hit": false,
      "t": 70898.4375,
      "d": 73.2421875,
      "v": 127
    },
    {
      "midi": 73,
      "hit": false,
      "t": 70898.4375,
      "d": 39.0625,
      "v": 105
    },
    {
      "midi": 40,
      "hit": false,
      "t": 71015.625,
      "d": 234.375,
      "v": 127
    },
    {
      "midi": 52,
      "hit": false,
      "t": 71015.625,
      "d": 48.828125,
      "v": 98
    },
    {
      "midi": 52,
      "hit": false,
      "t": 71015.625,
      "d": 48.828125,
      "v": 116
    },
    {
      "midi": 76,
      "hit": false,
      "t": 71015.625,
      "d": 80.56640625,
      "v": 127
    },
    {
      "midi": 71,
      "hit": false,
      "t": 71015.625,
      "d": 46.38671875,
      "v": 122
    },
    {
      "midi": 64,
      "hit": false,
      "t": 71015.625,
      "d": 349.12109375,
      "v": 127
    },
    {
      "midi": 68,
      "hit": false,
      "t": 71015.625,
      "d": 349.12109375,
      "v": 105
    },
    {
      "midi": 52,
      "hit": false,
      "t": 71132.8125,
      "d": 78.125,
      "v": 107
    },
    {
      "midi": 52,
      "hit": false,
      "t": 71132.8125,
      "d": 78.125,
      "v": 125
    },
    {
      "midi": 71,
      "hit": false,
      "t": 71132.8125,
      "d": 85.44921875,
      "v": 107
    },
    {
      "midi": 28,
      "hit": false,
      "t": 71250,
      "d": 234.375,
      "v": 127
    },
    {
      "midi": 52,
      "hit": false,
      "t": 71250,
      "d": 51.26953125,
      "v": 116
    },
    {
      "midi": 52,
      "hit": false,
      "t": 71250,
      "d": 51.26953125,
      "v": 127
    },
    {
      "midi": 40,
      "hit": false,
      "t": 71484.375,
      "d": 234.375,
      "v": 127
    },
    {
      "midi": 52,
      "hit": false,
      "t": 71484.375,
      "d": 56.15234375,
      "v": 107
    },
    {
      "midi": 52,
      "hit": false,
      "t": 71484.375,
      "d": 56.15234375,
      "v": 125
    },
    {
      "midi": 76,
      "hit": false,
      "t": 71484.375,
      "d": 56.15234375,
      "v": 127
    },
    {
      "midi": 71,
      "hit": false,
      "t": 71484.375,
      "d": 34.1796875,
      "v": 119
    },
    {
      "midi": 64,
      "hit": false,
      "t": 71484.375,
      "d": 75.68359375,
      "v": 127
    },
    {
      "midi": 68,
      "hit": false,
      "t": 71484.375,
      "d": 107.421875,
      "v": 102
    },
    {
      "midi": 52,
      "hit": false,
      "t": 71601.5625,
      "d": 61.03515625,
      "v": 110
    },
    {
      "midi": 52,
      "hit": false,
      "t": 71601.5625,
      "d": 61.03515625,
      "v": 127
    },
    {
      "midi": 76,
      "hit": false,
      "t": 71601.5625,
      "d": 63.4765625,
      "v": 127
    },
    {
      "midi": 71,
      "hit": false,
      "t": 71601.5625,
      "d": 61.03515625,
      "v": 105
    },
    {
      "midi": 28,
      "hit": false,
      "t": 71718.75,
      "d": 234.375,
      "v": 127
    },
    {
      "midi": 52,
      "hit": false,
      "t": 71718.75,
      "d": 61.03515625,
      "v": 113
    },
    {
      "midi": 52,
      "hit": false,
      "t": 71718.75,
      "d": 61.03515625,
      "v": 127
    },
    {
      "midi": 76,
      "hit": false,
      "t": 71718.75,
      "d": 48.828125,
      "v": 127
    },
    {
      "midi": 73,
      "hit": false,
      "t": 71718.75,
      "d": 26.85546875,
      "v": 113
    },
    {
      "midi": 64,
      "hit": false,
      "t": 71718.75,
      "d": 80.56640625,
      "v": 127
    },
    {
      "midi": 68,
      "hit": false,
      "t": 71718.75,
      "d": 87.890625,
      "v": 100
    },
    {
      "midi": 76,
      "hit": false,
      "t": 71835.9375,
      "d": 53.7109375,
      "v": 127
    },
    {
      "midi": 73,
      "hit": false,
      "t": 71835.9375,
      "d": 51.26953125,
      "v": 110
    },
    {
      "midi": 40,
      "hit": false,
      "t": 71953.125,
      "d": 234.375,
      "v": 127
    },
    {
      "midi": 52,
      "hit": false,
      "t": 71953.125,
      "d": 58.59375,
      "v": 107
    },
    {
      "midi": 52,
      "hit": false,
      "t": 71953.125,
      "d": 58.59375,
      "v": 125
    },
    {
      "midi": 76,
      "hit": false,
      "t": 71953.125,
      "d": 87.890625,
      "v": 127
    },
    {
      "midi": 72,
      "hit": false,
      "t": 71953.125,
      "d": 24.4140625,
      "v": 107
    },
    {
      "midi": 71,
      "hit": false,
      "t": 71953.125,
      "d": 36.62109375,
      "v": 107
    },
    {
      "midi": 64,
      "hit": false,
      "t": 71953.125,
      "d": 466.30859375,
      "v": 127
    },
    {
      "midi": 68,
      "hit": false,
      "t": 71953.125,
      "d": 473.6328125,
      "v": 102
    },
    {
      "midi": 52,
      "hit": false,
      "t": 72070.3125,
      "d": 85.44921875,
      "v": 110
    },
    {
      "midi": 52,
      "hit": false,
      "t": 72070.3125,
      "d": 85.44921875,
      "v": 127
    },
    {
      "midi": 71,
      "hit": false,
      "t": 72070.3125,
      "d": 78.125,
      "v": 107
    },
    {
      "midi": 28,
      "hit": false,
      "t": 72187.5,
      "d": 234.375,
      "v": 127
    },
    {
      "midi": 52,
      "hit": false,
      "t": 72187.5,
      "d": 56.15234375,
      "v": 107
    },
    {
      "midi": 52,
      "hit": false,
      "t": 72187.5,
      "d": 56.15234375,
      "v": 125
    },
    {
      "midi": 40,
      "hit": false,
      "t": 72421.875,
      "d": 234.375,
      "v": 127
    },
    {
      "midi": 52,
      "hit": false,
      "t": 72421.875,
      "d": 56.15234375,
      "v": 102
    },
    {
      "midi": 52,
      "hit": false,
      "t": 72421.875,
      "d": 56.15234375,
      "v": 120
    },
    {
      "midi": 76,
      "hit": false,
      "t": 72421.875,
      "d": 48.828125,
      "v": 127
    },
    {
      "midi": 71,
      "hit": false,
      "t": 72421.875,
      "d": 48.828125,
      "v": 127
    },
    {
      "midi": 66,
      "hit": false,
      "t": 72421.875,
      "d": 180.6640625,
      "v": 110
    },
    {
      "midi": 63,
      "hit": false,
      "t": 72421.875,
      "d": 202.63671875,
      "v": 127
    },
    {
      "midi": 52,
      "hit": false,
      "t": 72539.0625,
      "d": 61.03515625,
      "v": 110
    },
    {
      "midi": 52,
      "hit": false,
      "t": 72539.0625,
      "d": 61.03515625,
      "v": 127
    },
    {
      "midi": 76,
      "hit": false,
      "t": 72539.0625,
      "d": 58.59375,
      "v": 127
    },
    {
      "midi": 71,
      "hit": false,
      "t": 72539.0625,
      "d": 63.4765625,
      "v": 110
    },
    {
      "midi": 28,
      "hit": false,
      "t": 72656.25,
      "d": 234.375,
      "v": 127
    },
    {
      "midi": 52,
      "hit": false,
      "t": 72656.25,
      "d": 56.15234375,
      "v": 102
    },
    {
      "midi": 52,
      "hit": false,
      "t": 72656.25,
      "d": 56.15234375,
      "v": 120
    },
    {
      "midi": 76,
      "hit": false,
      "t": 72656.25,
      "d": 65.91796875,
      "v": 127
    },
    {
      "midi": 73,
      "hit": false,
      "t": 72656.25,
      "d": 36.62109375,
      "v": 116
    },
    {
      "midi": 59,
      "hit": false,
      "t": 72656.25,
      "d": 187.98828125,
      "v": 98
    },
    {
      "midi": 64,
      "hit": false,
      "t": 72656.25,
      "d": 197.75390625,
      "v": 100
    },
    {
      "midi": 76,
      "hit": false,
      "t": 72773.4375,
      "d": 78.125,
      "v": 127
    },
    {
      "midi": 73,
      "hit": false,
      "t": 72773.4375,
      "d": 39.0625,
      "v": 105
    },
    {
      "midi": 40,
      "hit": false,
      "t": 72890.625,
      "d": 234.375,
      "v": 127
    },
    {
      "midi": 52,
      "hit": false,
      "t": 72890.625,
      "d": 51.26953125,
      "v": 105
    },
    {
      "midi": 52,
      "hit": false,
      "t": 72890.625,
      "d": 51.26953125,
      "v": 123
    },
    {
      "midi": 76,
      "hit": false,
      "t": 72890.625,
      "d": 117.1875,
      "v": 127
    },
    {
      "midi": 71,
      "hit": false,
      "t": 72890.625,
      "d": 46.38671875,
      "v": 122
    },
    {
      "midi": 57,
      "hit": false,
      "t": 72890.625,
      "d": 942.3828125,
      "v": 127
    },
    {
      "midi": 66,
      "hit": false,
      "t": 72890.625,
      "d": 1120.60546875,
      "v": 116
    },
    {
      "midi": 52,
      "hit": false,
      "t": 73007.8125,
      "d": 58.59375,
      "v": 107
    },
    {
      "midi": 52,
      "hit": false,
      "t": 73007.8125,
      "d": 58.59375,
      "v": 125
    },
    {
      "midi": 71,
      "hit": false,
      "t": 73007.8125,
      "d": 85.44921875,
      "v": 107
    },
    {
      "midi": 35,
      "hit": false,
      "t": 73125,
      "d": 234.375,
      "v": 127
    },
    {
      "midi": 78,
      "hit": false,
      "t": 73125,
      "d": 5402.83203125,
      "v": 39
    },
    {
      "midi": 75,
      "hit": false,
      "t": 73125,
      "d": 5432.12890625,
      "v": 55
    },
    {
      "midi": 71,
      "hit": false,
      "t": 73125,
      "d": 5434.5703125,
      "v": 37
    },
    {
      "midi": 47,
      "hit": false,
      "t": 73125,
      "d": 48.828125,
      "v": 116
    },
    {
      "midi": 47,
      "hit": false,
      "t": 73125,
      "d": 48.828125,
      "v": 127
    },
    {
      "midi": 59,
      "hit": false,
      "t": 73144.53125,
      "d": 5395.5078125,
      "v": 100
    },
    {
      "midi": 63,
      "hit": false,
      "t": 73146.97265625,
      "d": 5424.8046875,
      "v": 107
    },
    {
      "midi": 66,
      "hit": false,
      "t": 73151.85546875,
      "d": 5383.30078125,
      "v": 102
    },
    {
      "midi": 47,
      "hit": false,
      "t": 73359.375,
      "d": 234.375,
      "v": 127
    },
    {
      "midi": 47,
      "hit": false,
      "t": 73359.375,
      "d": 39.0625,
      "v": 100
    },
    {
      "midi": 47,
      "hit": false,
      "t": 73359.375,
      "d": 39.0625,
      "v": 118
    },
    {
      "midi": 71,
      "hit": false,
      "t": 73359.375,
      "d": 48.828125,
      "v": 127
    },
    {
      "midi": 71,
      "hit": false,
      "t": 73359.375,
      "d": 34.1796875,
      "v": 119
    },
    {
      "midi": 47,
      "hit": false,
      "t": 73476.5625,
      "d": 61.03515625,
      "v": 107
    },
    {
      "midi": 47,
      "hit": false,
      "t": 73476.5625,
      "d": 61.03515625,
      "v": 125
    },
    {
      "midi": 71,
      "hit": false,
      "t": 73476.5625,
      "d": 70.80078125,
      "v": 127
    },
    {
      "midi": 71,
      "hit": false,
      "t": 73476.5625,
      "d": 61.03515625,
      "v": 105
    },
    {
      "midi": 35,
      "hit": false,
      "t": 73593.75,
      "d": 234.375,
      "v": 127
    },
    {
      "midi": 47,
      "hit": false,
      "t": 73593.75,
      "d": 48.828125,
      "v": 116
    },
    {
      "midi": 47,
      "hit": false,
      "t": 73593.75,
      "d": 48.828125,
      "v": 127
    },
    {
      "midi": 71,
      "hit": false,
      "t": 73593.75,
      "d": 48.828125,
      "v": 127
    },
    {
      "midi": 73,
      "hit": false,
      "t": 73593.75,
      "d": 26.85546875,
      "v": 113
    },
    {
      "midi": 71,
      "hit": false,
      "t": 73710.9375,
      "d": 70.80078125,
      "v": 127
    },
    {
      "midi": 73,
      "hit": false,
      "t": 73710.9375,
      "d": 51.26953125,
      "v": 110
    },
    {
      "midi": 47,
      "hit": false,
      "t": 73828.125,
      "d": 234.375,
      "v": 127
    },
    {
      "midi": 47,
      "hit": false,
      "t": 73828.125,
      "d": 48.828125,
      "v": 105
    },
    {
      "midi": 47,
      "hit": false,
      "t": 73828.125,
      "d": 48.828125,
      "v": 123
    },
    {
      "midi": 71,
      "hit": false,
      "t": 73828.125,
      "d": 70.80078125,
      "v": 127
    },
    {
      "midi": 72,
      "hit": false,
      "t": 73828.125,
      "d": 24.4140625,
      "v": 107
    },
    {
      "midi": 71,
      "hit": false,
      "t": 73828.125,
      "d": 36.62109375,
      "v": 107
    },
    {
      "midi": 47,
      "hit": false,
      "t": 73945.3125,
      "d": 39.0625,
      "v": 107
    },
    {
      "midi": 47,
      "hit": false,
      "t": 73945.3125,
      "d": 39.0625,
      "v": 125
    },
    {
      "midi": 71,
      "hit": false,
      "t": 73945.3125,
      "d": 78.125,
      "v": 107
    },
    {
      "midi": 35,
      "hit": false,
      "t": 74062.5,
      "d": 234.375,
      "v": 127
    },
    {
      "midi": 47,
      "hit": false,
      "t": 74062.5,
      "d": 46.38671875,
      "v": 113
    },
    {
      "midi": 47,
      "hit": false,
      "t": 74062.5,
      "d": 46.38671875,
      "v": 127
    },
    {
      "midi": 59,
      "hit": false,
      "t": 74062.5,
      "d": 236.81640625,
      "v": 107
    },
    {
      "midi": 54,
      "hit": false,
      "t": 74062.5,
      "d": 266.11328125,
      "v": 127
    },
    {
      "midi": 47,
      "hit": false,
      "t": 74296.875,
      "d": 234.375,
      "v": 127
    },
    {
      "midi": 47,
      "hit": false,
      "t": 74296.875,
      "d": 48.828125,
      "v": 105
    },
    {
      "midi": 47,
      "hit": false,
      "t": 74296.875,
      "d": 48.828125,
      "v": 123
    },
    {
      "midi": 71,
      "hit": false,
      "t": 74296.875,
      "d": 48.828125,
      "v": 127
    },
    {
      "midi": 71,
      "hit": false,
      "t": 74296.875,
      "d": 48.828125,
      "v": 127
    },
    {
      "midi": 63,
      "hit": false,
      "t": 74296.875,
      "d": 173.33984375,
      "v": 107
    },
    {
      "midi": 56,
      "hit": false,
      "t": 74296.875,
      "d": 234.375,
      "v": 127
    },
    {
      "midi": 47,
      "hit": false,
      "t": 74414.0625,
      "d": 43.9453125,
      "v": 116
    },
    {
      "midi": 47,
      "hit": false,
      "t": 74414.0625,
      "d": 43.9453125,
      "v": 127
    },
    {
      "midi": 71,
      "hit": false,
      "t": 74414.0625,
      "d": 65.91796875,
      "v": 127
    },
    {
      "midi": 71,
      "hit": false,
      "t": 74414.0625,
      "d": 63.4765625,
      "v": 110
    },
    {
      "midi": 35,
      "hit": false,
      "t": 74531.25,
      "d": 234.375,
      "v": 127
    },
    {
      "midi": 47,
      "hit": false,
      "t": 74531.25,
      "d": 51.26953125,
      "v": 116
    },
    {
      "midi": 47,
      "hit": false,
      "t": 74531.25,
      "d": 51.26953125,
      "v": 127
    },
    {
      "midi": 71,
      "hit": false,
      "t": 74531.25,
      "d": 56.15234375,
      "v": 127
    },
    {
      "midi": 73,
      "hit": false,
      "t": 74531.25,
      "d": 36.62109375,
      "v": 116
    },
    {
      "midi": 57,
      "hit": false,
      "t": 74531.25,
      "d": 200.1953125,
      "v": 105
    },
    {
      "midi": 64,
      "hit": false,
      "t": 74531.25,
      "d": 285.64453125,
      "v": 82
    },
    {
      "midi": 71,
      "hit": false,
      "t": 74648.4375,
      "d": 68.359375,
      "v": 127
    },
    {
      "midi": 73,
      "hit": false,
      "t": 74648.4375,
      "d": 39.0625,
      "v": 105
    },
    {
      "midi": 47,
      "hit": false,
      "t": 74765.625,
      "d": 234.375,
      "v": 127
    },
    {
      "midi": 47,
      "hit": false,
      "t": 74765.625,
      "d": 53.7109375,
      "v": 105
    },
    {
      "midi": 47,
      "hit": false,
      "t": 74765.625,
      "d": 53.7109375,
      "v": 123
    },
    {
      "midi": 71,
      "hit": false,
      "t": 74765.625,
      "d": 87.890625,
      "v": 127
    },
    {
      "midi": 71,
      "hit": false,
      "t": 74765.625,
      "d": 46.38671875,
      "v": 122
    },
    {
      "midi": 63,
      "hit": false,
      "t": 74765.625,
      "d": 986.328125,
      "v": 127
    },
    {
      "midi": 66,
      "hit": false,
      "t": 74765.625,
      "d": 1154.78515625,
      "v": 110
    },
    {
      "midi": 47,
      "hit": false,
      "t": 74882.8125,
      "d": 65.91796875,
      "v": 105
    },
    {
      "midi": 47,
      "hit": false,
      "t": 74882.8125,
      "d": 65.91796875,
      "v": 123
    },
    {
      "midi": 71,
      "hit": false,
      "t": 74882.8125,
      "d": 85.44921875,
      "v": 107
    },
    {
      "midi": 35,
      "hit": false,
      "t": 75000,
      "d": 234.375,
      "v": 127
    },
    {
      "midi": 47,
      "hit": false,
      "t": 75000,
      "d": 48.828125,
      "v": 110
    },
    {
      "midi": 47,
      "hit": false,
      "t": 75000,
      "d": 48.828125,
      "v": 127
    },
    {
      "midi": 47,
      "hit": false,
      "t": 75234.375,
      "d": 234.375,
      "v": 127
    },
    {
      "midi": 47,
      "hit": false,
      "t": 75234.375,
      "d": 53.7109375,
      "v": 105
    },
    {
      "midi": 47,
      "hit": false,
      "t": 75234.375,
      "d": 53.7109375,
      "v": 123
    },
    {
      "midi": 71,
      "hit": false,
      "t": 75234.375,
      "d": 56.15234375,
      "v": 127
    },
    {
      "midi": 71,
      "hit": false,
      "t": 75234.375,
      "d": 34.1796875,
      "v": 119
    },
    {
      "midi": 47,
      "hit": false,
      "t": 75351.5625,
      "d": 48.828125,
      "v": 116
    },
    {
      "midi": 47,
      "hit": false,
      "t": 75351.5625,
      "d": 48.828125,
      "v": 127
    },
    {
      "midi": 71,
      "hit": false,
      "t": 75351.5625,
      "d": 70.80078125,
      "v": 127
    },
    {
      "midi": 71,
      "hit": false,
      "t": 75351.5625,
      "d": 61.03515625,
      "v": 105
    },
    {
      "midi": 35,
      "hit": false,
      "t": 75468.75,
      "d": 234.375,
      "v": 127
    },
    {
      "midi": 47,
      "hit": false,
      "t": 75468.75,
      "d": 53.7109375,
      "v": 113
    },
    {
      "midi": 47,
      "hit": false,
      "t": 75468.75,
      "d": 53.7109375,
      "v": 127
    },
    {
      "midi": 71,
      "hit": false,
      "t": 75468.75,
      "d": 58.59375,
      "v": 127
    },
    {
      "midi": 73,
      "hit": false,
      "t": 75468.75,
      "d": 26.85546875,
      "v": 113
    },
    {
      "midi": 71,
      "hit": false,
      "t": 75585.9375,
      "d": 78.125,
      "v": 127
    },
    {
      "midi": 73,
      "hit": false,
      "t": 75585.9375,
      "d": 51.26953125,
      "v": 110
    },
    {
      "midi": 47,
      "hit": false,
      "t": 75703.125,
      "d": 234.375,
      "v": 127
    },
    {
      "midi": 47,
      "hit": false,
      "t": 75703.125,
      "d": 58.59375,
      "v": 105
    },
    {
      "midi": 47,
      "hit": false,
      "t": 75703.125,
      "d": 58.59375,
      "v": 123
    },
    {
      "midi": 71,
      "hit": false,
      "t": 75703.125,
      "d": 80.56640625,
      "v": 127
    },
    {
      "midi": 72,
      "hit": false,
      "t": 75703.125,
      "d": 24.4140625,
      "v": 107
    },
    {
      "midi": 71,
      "hit": false,
      "t": 75703.125,
      "d": 36.62109375,
      "v": 107
    },
    {
      "midi": 47,
      "hit": false,
      "t": 75820.3125,
      "d": 85.44921875,
      "v": 110
    },
    {
      "midi": 47,
      "hit": false,
      "t": 75820.3125,
      "d": 85.44921875,
      "v": 127
    },
    {
      "midi": 71,
      "hit": false,
      "t": 75820.3125,
      "d": 78.125,
      "v": 107
    },
    {
      "midi": 35,
      "hit": false,
      "t": 75937.5,
      "d": 234.375,
      "v": 127
    },
    {
      "midi": 47,
      "hit": false,
      "t": 75937.5,
      "d": 53.7109375,
      "v": 116
    },
    {
      "midi": 47,
      "hit": false,
      "t": 75937.5,
      "d": 53.7109375,
      "v": 127
    },
    {
      "midi": 59,
      "hit": false,
      "t": 75937.5,
      "d": 253.90625,
      "v": 102
    },
    {
      "midi": 54,
      "hit": false,
      "t": 75937.5,
      "d": 307.6171875,
      "v": 127
    },
    {
      "midi": 47,
      "hit": false,
      "t": 76171.875,
      "d": 234.375,
      "v": 127
    },
    {
      "midi": 47,
      "hit": false,
      "t": 76171.875,
      "d": 53.7109375,
      "v": 110
    },
    {
      "midi": 47,
      "hit": false,
      "t": 76171.875,
      "d": 53.7109375,
      "v": 127
    },
    {
      "midi": 71,
      "hit": false,
      "t": 76171.875,
      "d": 56.15234375,
      "v": 127
    },
    {
      "midi": 71,
      "hit": false,
      "t": 76171.875,
      "d": 48.828125,
      "v": 127
    },
    {
      "midi": 63,
      "hit": false,
      "t": 76171.875,
      "d": 200.1953125,
      "v": 110
    },
    {
      "midi": 56,
      "hit": false,
      "t": 76171.875,
      "d": 310.05859375,
      "v": 127
    },
    {
      "midi": 47,
      "hit": false,
      "t": 76289.0625,
      "d": 51.26953125,
      "v": 110
    },
    {
      "midi": 47,
      "hit": false,
      "t": 76289.0625,
      "d": 51.26953125,
      "v": 127
    },
    {
      "midi": 71,
      "hit": false,
      "t": 76289.0625,
      "d": 70.80078125,
      "v": 127
    },
    {
      "midi": 71,
      "hit": false,
      "t": 76289.0625,
      "d": 63.4765625,
      "v": 110
    },
    {
      "midi": 35,
      "hit": false,
      "t": 76406.25,
      "d": 234.375,
      "v": 127
    },
    {
      "midi": 47,
      "hit": false,
      "t": 76406.25,
      "d": 51.26953125,
      "v": 116
    },
    {
      "midi": 47,
      "hit": false,
      "t": 76406.25,
      "d": 51.26953125,
      "v": 127
    },
    {
      "midi": 71,
      "hit": false,
      "t": 76406.25,
      "d": 63.4765625,
      "v": 127
    },
    {
      "midi": 73,
      "hit": false,
      "t": 76406.25,
      "d": 36.62109375,
      "v": 116
    },
    {
      "midi": 57,
      "hit": false,
      "t": 76406.25,
      "d": 234.375,
      "v": 98
    },
    {
      "midi": 64,
      "hit": false,
      "t": 76406.25,
      "d": 258.7890625,
      "v": 76
    },
    {
      "midi": 71,
      "hit": false,
      "t": 76523.4375,
      "d": 65.91796875,
      "v": 127
    },
    {
      "midi": 73,
      "hit": false,
      "t": 76523.4375,
      "d": 39.0625,
      "v": 105
    },
    {
      "midi": 47,
      "hit": false,
      "t": 76640.625,
      "d": 234.375,
      "v": 127
    },
    {
      "midi": 47,
      "hit": false,
      "t": 76640.625,
      "d": 53.7109375,
      "v": 105
    },
    {
      "midi": 47,
      "hit": false,
      "t": 76640.625,
      "d": 53.7109375,
      "v": 123
    },
    {
      "midi": 71,
      "hit": false,
      "t": 76640.625,
      "d": 85.44921875,
      "v": 127
    },
    {
      "midi": 71,
      "hit": false,
      "t": 76640.625,
      "d": 46.38671875,
      "v": 122
    },
    {
      "midi": 63,
      "hit": false,
      "t": 76640.625,
      "d": 883.7890625,
      "v": 127
    },
    {
      "midi": 66,
      "hit": false,
      "t": 76640.625,
      "d": 1169.43359375,
      "v": 110
    },
    {
      "midi": 47,
      "hit": false,
      "t": 76757.8125,
      "d": 70.80078125,
      "v": 107
    },
    {
      "midi": 47,
      "hit": false,
      "t": 76757.8125,
      "d": 70.80078125,
      "v": 125
    },
    {
      "midi": 71,
      "hit": false,
      "t": 76757.8125,
      "d": 85.44921875,
      "v": 107
    },
    {
      "midi": 35,
      "hit": false,
      "t": 76875,
      "d": 234.375,
      "v": 127
    },
    {
      "midi": 47,
      "hit": false,
      "t": 76875,
      "d": 51.26953125,
      "v": 113
    },
    {
      "midi": 47,
      "hit": false,
      "t": 76875,
      "d": 51.26953125,
      "v": 127
    },
    {
      "midi": 47,
      "hit": false,
      "t": 77109.375,
      "d": 234.375,
      "v": 127
    },
    {
      "midi": 47,
      "hit": false,
      "t": 77109.375,
      "d": 48.828125,
      "v": 102
    },
    {
      "midi": 47,
      "hit": false,
      "t": 77109.375,
      "d": 48.828125,
      "v": 120
    },
    {
      "midi": 71,
      "hit": false,
      "t": 77109.375,
      "d": 41.50390625,
      "v": 127
    },
    {
      "midi": 71,
      "hit": false,
      "t": 77109.375,
      "d": 34.1796875,
      "v": 119
    },
    {
      "midi": 47,
      "hit": false,
      "t": 77226.5625,
      "d": 63.4765625,
      "v": 105
    },
    {
      "midi": 47,
      "hit": false,
      "t": 77226.5625,
      "d": 63.4765625,
      "v": 123
    },
    {
      "midi": 71,
      "hit": false,
      "t": 77226.5625,
      "d": 70.80078125,
      "v": 127
    },
    {
      "midi": 71,
      "hit": false,
      "t": 77226.5625,
      "d": 61.03515625,
      "v": 105
    },
    {
      "midi": 35,
      "hit": false,
      "t": 77343.75,
      "d": 234.375,
      "v": 127
    },
    {
      "midi": 47,
      "hit": false,
      "t": 77343.75,
      "d": 61.03515625,
      "v": 116
    },
    {
      "midi": 47,
      "hit": false,
      "t": 77343.75,
      "d": 61.03515625,
      "v": 127
    },
    {
      "midi": 71,
      "hit": false,
      "t": 77343.75,
      "d": 51.26953125,
      "v": 127
    },
    {
      "midi": 73,
      "hit": false,
      "t": 77343.75,
      "d": 26.85546875,
      "v": 113
    },
    {
      "midi": 71,
      "hit": false,
      "t": 77460.9375,
      "d": 87.890625,
      "v": 127
    },
    {
      "midi": 73,
      "hit": false,
      "t": 77460.9375,
      "d": 51.26953125,
      "v": 110
    },
    {
      "midi": 47,
      "hit": false,
      "t": 77578.125,
      "d": 234.375,
      "v": 127
    },
    {
      "midi": 47,
      "hit": false,
      "t": 77578.125,
      "d": 53.7109375,
      "v": 100
    },
    {
      "midi": 47,
      "hit": false,
      "t": 77578.125,
      "d": 53.7109375,
      "v": 118
    },
    {
      "midi": 71,
      "hit": false,
      "t": 77578.125,
      "d": 90.33203125,
      "v": 127
    },
    {
      "midi": 72,
      "hit": false,
      "t": 77578.125,
      "d": 24.4140625,
      "v": 107
    },
    {
      "midi": 71,
      "hit": false,
      "t": 77578.125,
      "d": 36.62109375,
      "v": 107
    },
    {
      "midi": 47,
      "hit": false,
      "t": 77695.3125,
      "d": 58.59375,
      "v": 119
    },
    {
      "midi": 47,
      "hit": false,
      "t": 77695.3125,
      "d": 58.59375,
      "v": 127
    },
    {
      "midi": 71,
      "hit": false,
      "t": 77695.3125,
      "d": 78.125,
      "v": 107
    },
    {
      "midi": 35,
      "hit": false,
      "t": 77812.5,
      "d": 234.375,
      "v": 127
    },
    {
      "midi": 47,
      "hit": false,
      "t": 77812.5,
      "d": 53.7109375,
      "v": 116
    },
    {
      "midi": 47,
      "hit": false,
      "t": 77812.5,
      "d": 53.7109375,
      "v": 127
    },
    {
      "midi": 59,
      "hit": false,
      "t": 77812.5,
      "d": 202.63671875,
      "v": 110
    },
    {
      "midi": 54,
      "hit": false,
      "t": 77812.5,
      "d": 334.47265625,
      "v": 125
    },
    {
      "midi": 47,
      "hit": false,
      "t": 78046.875,
      "d": 234.375,
      "v": 127
    },
    {
      "midi": 47,
      "hit": false,
      "t": 78046.875,
      "d": 58.59375,
      "v": 107
    },
    {
      "midi": 47,
      "hit": false,
      "t": 78046.875,
      "d": 58.59375,
      "v": 125
    },
    {
      "midi": 71,
      "hit": false,
      "t": 78046.875,
      "d": 58.59375,
      "v": 127
    },
    {
      "midi": 71,
      "hit": false,
      "t": 78046.875,
      "d": 48.828125,
      "v": 127
    },
    {
      "midi": 56,
      "hit": false,
      "t": 78046.875,
      "d": 183.10546875,
      "v": 127
    },
    {
      "midi": 63,
      "hit": false,
      "t": 78046.875,
      "d": 205.078125,
      "v": 105
    },
    {
      "midi": 47,
      "hit": false,
      "t": 78164.0625,
      "d": 61.03515625,
      "v": 110
    },
    {
      "midi": 47,
      "hit": false,
      "t": 78164.0625,
      "d": 61.03515625,
      "v": 127
    },
    {
      "midi": 71,
      "hit": false,
      "t": 78164.0625,
      "d": 65.91796875,
      "v": 127
    },
    {
      "midi": 71,
      "hit": false,
      "t": 78164.0625,
      "d": 63.4765625,
      "v": 110
    },
    {
      "midi": 35,
      "hit": false,
      "t": 78281.25,
      "d": 234.375,
      "v": 127
    },
    {
      "midi": 47,
      "hit": false,
      "t": 78281.25,
      "d": 56.15234375,
      "v": 116
    },
    {
      "midi": 47,
      "hit": false,
      "t": 78281.25,
      "d": 56.15234375,
      "v": 127
    },
    {
      "midi": 71,
      "hit": false,
      "t": 78281.25,
      "d": 51.26953125,
      "v": 127
    },
    {
      "midi": 73,
      "hit": false,
      "t": 78281.25,
      "d": 36.62109375,
      "v": 116
    },
    {
      "midi": 57,
      "hit": false,
      "t": 78281.25,
      "d": 92.7734375,
      "v": 127
    },
    {
      "midi": 64,
      "hit": false,
      "t": 78281.25,
      "d": 187.98828125,
      "v": 80
    },
    {
      "midi": 71,
      "hit": false,
      "t": 78398.4375,
      "d": 70.80078125,
      "v": 127
    },
    {
      "midi": 73,
      "hit": false,
      "t": 78398.4375,
      "d": 39.0625,
      "v": 105
    },
    {
      "midi": 47,
      "hit": false,
      "t": 78515.625,
      "d": 234.375,
      "v": 127
    },
    {
      "midi": 47,
      "hit": false,
      "t": 78515.625,
      "d": 53.7109375,
      "v": 102
    },
    {
      "midi": 47,
      "hit": false,
      "t": 78515.625,
      "d": 53.7109375,
      "v": 120
    },
    {
      "midi": 71,
      "hit": false,
      "t": 78515.625,
      "d": 83.0078125,
      "v": 127
    },
    {
      "midi": 71,
      "hit": false,
      "t": 78515.625,
      "d": 46.38671875,
      "v": 122
    },
    {
      "midi": 57,
      "hit": false,
      "t": 78515.625,
      "d": 327.1484375,
      "v": 127
    },
    {
      "midi": 66,
      "hit": false,
      "t": 78515.625,
      "d": 373.53515625,
      "v": 110
    },
    {
      "midi": 47,
      "hit": false,
      "t": 78632.8125,
      "d": 46.38671875,
      "v": 110
    },
    {
      "midi": 47,
      "hit": false,
      "t": 78632.8125,
      "d": 46.38671875,
      "v": 127
    },
    {
      "midi": 71,
      "hit": false,
      "t": 78632.8125,
      "d": 85.44921875,
      "v": 107
    },
    {
      "midi": 33,
      "hit": false,
      "t": 78750,
      "d": 234.375,
      "v": 127
    },
    {
      "midi": 69,
      "hit": false,
      "t": 78750,
      "d": 771.484375,
      "v": 55
    },
    {
      "midi": 73,
      "hit": false,
      "t": 78750,
      "d": 798.33984375,
      "v": 60
    },
    {
      "midi": 76,
      "hit": false,
      "t": 78750,
      "d": 800.78125,
      "v": 48
    },
    {
      "midi": 45,
      "hit": false,
      "t": 78750,
      "d": 53.7109375,
      "v": 119
    },
    {
      "midi": 45,
      "hit": false,
      "t": 78750,
      "d": 53.7109375,
      "v": 127
    },
    {
      "midi": 57,
      "hit": false,
      "t": 78771.97265625,
      "d": 805.6640625,
      "v": 105
    },
    {
      "midi": 61,
      "hit": false,
      "t": 78774.4140625,
      "d": 854.4921875,
      "v": 107
    },
    {
      "midi": 64,
      "hit": false,
      "t": 78781.73828125,
      "d": 812.98828125,
      "v": 113
    },
    {
      "midi": 45,
      "hit": false,
      "t": 78984.375,
      "d": 234.375,
      "v": 127
    },
    {
      "midi": 45,
      "hit": false,
      "t": 78984.375,
      "d": 41.50390625,
      "v": 102
    },
    {
      "midi": 45,
      "hit": false,
      "t": 78984.375,
      "d": 41.50390625,
      "v": 120
    },
    {
      "midi": 69,
      "hit": false,
      "t": 78984.375,
      "d": 39.0625,
      "v": 127
    },
    {
      "midi": 71,
      "hit": false,
      "t": 78984.375,
      "d": 34.1796875,
      "v": 119
    },
    {
      "midi": 57,
      "hit": false,
      "t": 78984.375,
      "d": 85.44921875,
      "v": 127
    },
    {
      "midi": 66,
      "hit": false,
      "t": 78984.375,
      "d": 102.5390625,
      "v": 107
    },
    {
      "midi": 45,
      "hit": false,
      "t": 79101.5625,
      "d": 48.828125,
      "v": 110
    },
    {
      "midi": 45,
      "hit": false,
      "t": 79101.5625,
      "d": 48.828125,
      "v": 127
    },
    {
      "midi": 69,
      "hit": false,
      "t": 79101.5625,
      "d": 51.26953125,
      "v": 127
    },
    {
      "midi": 71,
      "hit": false,
      "t": 79101.5625,
      "d": 61.03515625,
      "v": 105
    },
    {
      "midi": 33,
      "hit": false,
      "t": 79218.75,
      "d": 234.375,
      "v": 127
    },
    {
      "midi": 45,
      "hit": false,
      "t": 79218.75,
      "d": 48.828125,
      "v": 110
    },
    {
      "midi": 45,
      "hit": false,
      "t": 79218.75,
      "d": 48.828125,
      "v": 127
    },
    {
      "midi": 69,
      "hit": false,
      "t": 79218.75,
      "d": 65.91796875,
      "v": 127
    },
    {
      "midi": 73,
      "hit": false,
      "t": 79218.75,
      "d": 26.85546875,
      "v": 113
    },
    {
      "midi": 57,
      "hit": false,
      "t": 79218.75,
      "d": 83.0078125,
      "v": 127
    },
    {
      "midi": 66,
      "hit": false,
      "t": 79218.75,
      "d": 92.7734375,
      "v": 110
    },
    {
      "midi": 69,
      "hit": false,
      "t": 79335.9375,
      "d": 63.4765625,
      "v": 127
    },
    {
      "midi": 73,
      "hit": false,
      "t": 79335.9375,
      "d": 51.26953125,
      "v": 110
    },
    {
      "midi": 45,
      "hit": false,
      "t": 79453.125,
      "d": 234.375,
      "v": 127
    },
    {
      "midi": 45,
      "hit": false,
      "t": 79453.125,
      "d": 36.62109375,
      "v": 105
    },
    {
      "midi": 45,
      "hit": false,
      "t": 79453.125,
      "d": 36.62109375,
      "v": 123
    },
    {
      "midi": 69,
      "hit": false,
      "t": 79453.125,
      "d": 95.21484375,
      "v": 127
    },
    {
      "midi": 72,
      "hit": false,
      "t": 79453.125,
      "d": 24.4140625,
      "v": 107
    },
    {
      "midi": 71,
      "hit": false,
      "t": 79453.125,
      "d": 36.62109375,
      "v": 107
    },
    {
      "midi": 66,
      "hit": false,
      "t": 79453.125,
      "d": 400.390625,
      "v": 113
    },
    {
      "midi": 57,
      "hit": false,
      "t": 79453.125,
      "d": 424.8046875,
      "v": 127
    },
    {
      "midi": 45,
      "hit": false,
      "t": 79570.3125,
      "d": 29.296875,
      "v": 105
    },
    {
      "midi": 45,
      "hit": false,
      "t": 79570.3125,
      "d": 29.296875,
      "v": 123
    },
    {
      "midi": 71,
      "hit": false,
      "t": 79570.3125,
      "d": 78.125,
      "v": 107
    },
    {
      "midi": 35,
      "hit": false,
      "t": 79687.5,
      "d": 234.375,
      "v": 127
    },
    {
      "midi": 78,
      "hit": false,
      "t": 79687.5,
      "d": 778.80859375,
      "v": 57
    },
    {
      "midi": 75,
      "hit": false,
      "t": 79687.5,
      "d": 800.78125,
      "v": 57
    },
    {
      "midi": 71,
      "hit": false,
      "t": 79687.5,
      "d": 805.6640625,
      "v": 35
    },
    {
      "midi": 47,
      "hit": false,
      "t": 79687.5,
      "d": 53.7109375,
      "v": 116
    },
    {
      "midi": 47,
      "hit": false,
      "t": 79687.5,
      "d": 53.7109375,
      "v": 127
    },
    {
      "midi": 59,
      "hit": false,
      "t": 79729.00390625,
      "d": 773.92578125,
      "v": 113
    },
    {
      "midi": 63,
      "hit": false,
      "t": 79733.88671875,
      "d": 822.75390625,
      "v": 113
    },
    {
      "midi": 66,
      "hit": false,
      "t": 79736.328125,
      "d": 798.33984375,
      "v": 113
    },
    {
      "midi": 47,
      "hit": false,
      "t": 79921.875,
      "d": 234.375,
      "v": 127
    },
    {
      "midi": 47,
      "hit": false,
      "t": 79921.875,
      "d": 43.9453125,
      "v": 98
    },
    {
      "midi": 47,
      "hit": false,
      "t": 79921.875,
      "d": 43.9453125,
      "v": 116
    },
    {
      "midi": 71,
      "hit": false,
      "t": 79921.875,
      "d": 46.38671875,
      "v": 127
    },
    {
      "midi": 71,
      "hit": false,
      "t": 79921.875,
      "d": 48.828125,
      "v": 127
    },
    {
      "midi": 64,
      "hit": false,
      "t": 79921.875,
      "d": 236.81640625,
      "v": 100
    },
    {
      "midi": 56,
      "hit": false,
      "t": 79921.875,
      "d": 280.76171875,
      "v": 120
    },
    {
      "midi": 47,
      "hit": false,
      "t": 80039.0625,
      "d": 56.15234375,
      "v": 116
    },
    {
      "midi": 47,
      "hit": false,
      "t": 80039.0625,
      "d": 56.15234375,
      "v": 127
    },
    {
      "midi": 71,
      "hit": false,
      "t": 80039.0625,
      "d": 65.91796875,
      "v": 127
    },
    {
      "midi": 71,
      "hit": false,
      "t": 80039.0625,
      "d": 63.4765625,
      "v": 110
    },
    {
      "midi": 35,
      "hit": false,
      "t": 80156.25,
      "d": 234.375,
      "v": 127
    },
    {
      "midi": 47,
      "hit": false,
      "t": 80156.25,
      "d": 43.9453125,
      "v": 113
    },
    {
      "midi": 47,
      "hit": false,
      "t": 80156.25,
      "d": 43.9453125,
      "v": 127
    },
    {
      "midi": 71,
      "hit": false,
      "t": 80156.25,
      "d": 53.7109375,
      "v": 127
    },
    {
      "midi": 73,
      "hit": false,
      "t": 80156.25,
      "d": 36.62109375,
      "v": 116
    },
    {
      "midi": 63,
      "hit": false,
      "t": 80156.25,
      "d": 144.04296875,
      "v": 110
    },
    {
      "midi": 54,
      "hit": false,
      "t": 80156.25,
      "d": 185.546875,
      "v": 127
    },
    {
      "midi": 71,
      "hit": false,
      "t": 80273.4375,
      "d": 78.125,
      "v": 127
    },
    {
      "midi": 73,
      "hit": false,
      "t": 80273.4375,
      "d": 39.0625,
      "v": 105
    },
    {
      "midi": 47,
      "hit": false,
      "t": 80390.625,
      "d": 234.375,
      "v": 127
    },
    {
      "midi": 47,
      "hit": false,
      "t": 80390.625,
      "d": 53.7109375,
      "v": 110
    },
    {
      "midi": 47,
      "hit": false,
      "t": 80390.625,
      "d": 53.7109375,
      "v": 127
    },
    {
      "midi": 71,
      "hit": false,
      "t": 80390.625,
      "d": 97.65625,
      "v": 127
    },
    {
      "midi": 71,
      "hit": false,
      "t": 80390.625,
      "d": 46.38671875,
      "v": 122
    },
    {
      "midi": 52,
      "hit": false,
      "t": 80390.625,
      "d": 1074.21875,
      "v": 127
    },
    {
      "midi": 64,
      "hit": false,
      "t": 80390.625,
      "d": 1140.13671875,
      "v": 110
    },
    {
      "midi": 47,
      "hit": false,
      "t": 80507.8125,
      "d": 46.38671875,
      "v": 105
    },
    {
      "midi": 47,
      "hit": false,
      "t": 80507.8125,
      "d": 46.38671875,
      "v": 123
    },
    {
      "midi": 71,
      "hit": false,
      "t": 80507.8125,
      "d": 85.44921875,
      "v": 107
    },
    {
      "midi": 28,
      "hit": false,
      "t": 80625,
      "d": 234.375,
      "v": 127
    },
    {
      "midi": 68,
      "hit": false,
      "t": 80625,
      "d": 1811.5234375,
      "v": 52
    },
    {
      "midi": 76,
      "hit": false,
      "t": 80625,
      "d": 1831.0546875,
      "v": 50
    },
    {
      "midi": 71,
      "hit": false,
      "t": 80625,
      "d": 1833.49609375,
      "v": 45
    },
    {
      "midi": 52,
      "hit": false,
      "t": 80625,
      "d": 53.7109375,
      "v": 119
    },
    {
      "midi": 52,
      "hit": false,
      "t": 80625,
      "d": 53.7109375,
      "v": 127
    },
    {
      "midi": 64,
      "hit": false,
      "t": 80678.7109375,
      "d": 1779.78515625,
      "v": 113
    },
    {
      "midi": 71,
      "hit": false,
      "t": 80686.03515625,
      "d": 1767.578125,
      "v": 113
    },
    {
      "midi": 68,
      "hit": false,
      "t": 80690.91796875,
      "d": 1765.13671875,
      "v": 113
    },
    {
      "midi": 40,
      "hit": false,
      "t": 80859.375,
      "d": 234.375,
      "v": 127
    },
    {
      "midi": 52,
      "hit": false,
      "t": 80859.375,
      "d": 46.38671875,
      "v": 116
    },
    {
      "midi": 52,
      "hit": false,
      "t": 80859.375,
      "d": 46.38671875,
      "v": 127
    },
    {
      "midi": 76,
      "hit": false,
      "t": 80859.375,
      "d": 51.26953125,
      "v": 127
    },
    {
      "midi": 71,
      "hit": false,
      "t": 80859.375,
      "d": 34.1796875,
      "v": 119
    },
    {
      "midi": 52,
      "hit": false,
      "t": 80976.5625,
      "d": 85.44921875,
      "v": 119
    },
    {
      "midi": 52,
      "hit": false,
      "t": 80976.5625,
      "d": 85.44921875,
      "v": 127
    },
    {
      "midi": 76,
      "hit": false,
      "t": 80976.5625,
      "d": 63.4765625,
      "v": 127
    },
    {
      "midi": 71,
      "hit": false,
      "t": 80976.5625,
      "d": 61.03515625,
      "v": 105
    },
    {
      "midi": 28,
      "hit": false,
      "t": 81093.75,
      "d": 234.375,
      "v": 127
    },
    {
      "midi": 52,
      "hit": false,
      "t": 81093.75,
      "d": 51.26953125,
      "v": 116
    },
    {
      "midi": 52,
      "hit": false,
      "t": 81093.75,
      "d": 51.26953125,
      "v": 127
    },
    {
      "midi": 76,
      "hit": false,
      "t": 81093.75,
      "d": 53.7109375,
      "v": 127
    },
    {
      "midi": 73,
      "hit": false,
      "t": 81093.75,
      "d": 26.85546875,
      "v": 113
    },
    {
      "midi": 76,
      "hit": false,
      "t": 81210.9375,
      "d": 73.2421875,
      "v": 127
    },
    {
      "midi": 73,
      "hit": false,
      "t": 81210.9375,
      "d": 51.26953125,
      "v": 110
    },
    {
      "midi": 40,
      "hit": false,
      "t": 81328.125,
      "d": 234.375,
      "v": 127
    },
    {
      "midi": 52,
      "hit": false,
      "t": 81328.125,
      "d": 43.9453125,
      "v": 105
    },
    {
      "midi": 52,
      "hit": false,
      "t": 81328.125,
      "d": 43.9453125,
      "v": 123
    },
    {
      "midi": 76,
      "hit": false,
      "t": 81328.125,
      "d": 75.68359375,
      "v": 127
    },
    {
      "midi": 72,
      "hit": false,
      "t": 81328.125,
      "d": 24.4140625,
      "v": 107
    },
    {
      "midi": 71,
      "hit": false,
      "t": 81328.125,
      "d": 36.62109375,
      "v": 107
    },
    {
      "midi": 52,
      "hit": false,
      "t": 81445.3125,
      "d": 46.38671875,
      "v": 110
    },
    {
      "midi": 52,
      "hit": false,
      "t": 81445.3125,
      "d": 46.38671875,
      "v": 127
    },
    {
      "midi": 71,
      "hit": false,
      "t": 81445.3125,
      "d": 78.125,
      "v": 107
    },
    {
      "midi": 59,
      "hit": false,
      "t": 81552.734375,
      "d": 588.37890625,
      "v": 127
    },
    {
      "midi": 76,
      "hit": false,
      "t": 81555.17578125,
      "d": 581.0546875,
      "v": 127
    },
    {
      "midi": 64,
      "hit": false,
      "t": 81557.6171875,
      "d": 581.0546875,
      "v": 127
    },
    {
      "midi": 80,
      "hit": false,
      "t": 81560.05859375,
      "d": 253.90625,
      "v": 127
    },
    {
      "midi": 28,
      "hit": false,
      "t": 81562.5,
      "d": 234.375,
      "v": 127
    },
    {
      "midi": 52,
      "hit": false,
      "t": 81562.5,
      "d": 43.9453125,
      "v": 113
    },
    {
      "midi": 52,
      "hit": false,
      "t": 81562.5,
      "d": 43.9453125,
      "v": 127
    },
    {
      "midi": 68,
      "hit": false,
      "t": 81562.5,
      "d": 253.90625,
      "v": 127
    },
    {
      "midi": 40,
      "hit": false,
      "t": 81796.875,
      "d": 234.375,
      "v": 127
    },
    {
      "midi": 52,
      "hit": false,
      "t": 81796.875,
      "d": 43.9453125,
      "v": 105
    },
    {
      "midi": 52,
      "hit": false,
      "t": 81796.875,
      "d": 43.9453125,
      "v": 123
    },
    {
      "midi": 76,
      "hit": false,
      "t": 81796.875,
      "d": 43.9453125,
      "v": 127
    },
    {
      "midi": 71,
      "hit": false,
      "t": 81796.875,
      "d": 48.828125,
      "v": 127
    },
    {
      "midi": 81,
      "hit": false,
      "t": 81799.31640625,
      "d": 168.45703125,
      "v": 127
    },
    {
      "midi": 69,
      "hit": false,
      "t": 81801.7578125,
      "d": 168.45703125,
      "v": 127
    },
    {
      "midi": 52,
      "hit": false,
      "t": 81914.0625,
      "d": 75.68359375,
      "v": 113
    },
    {
      "midi": 52,
      "hit": false,
      "t": 81914.0625,
      "d": 75.68359375,
      "v": 127
    },
    {
      "midi": 76,
      "hit": false,
      "t": 81914.0625,
      "d": 61.03515625,
      "v": 127
    },
    {
      "midi": 71,
      "hit": false,
      "t": 81914.0625,
      "d": 63.4765625,
      "v": 110
    },
    {
      "midi": 83,
      "hit": false,
      "t": 82011.71875,
      "d": 109.86328125,
      "v": 127
    },
    {
      "midi": 71,
      "hit": false,
      "t": 82014.16015625,
      "d": 109.86328125,
      "v": 127
    },
    {
      "midi": 28,
      "hit": false,
      "t": 82031.25,
      "d": 234.375,
      "v": 127
    },
    {
      "midi": 52,
      "hit": false,
      "t": 82031.25,
      "d": 51.26953125,
      "v": 110
    },
    {
      "midi": 52,
      "hit": false,
      "t": 82031.25,
      "d": 51.26953125,
      "v": 127
    },
    {
      "midi": 76,
      "hit": false,
      "t": 82031.25,
      "d": 61.03515625,
      "v": 127
    },
    {
      "midi": 73,
      "hit": false,
      "t": 82031.25,
      "d": 36.62109375,
      "v": 116
    },
    {
      "midi": 76,
      "hit": false,
      "t": 82148.4375,
      "d": 70.80078125,
      "v": 127
    },
    {
      "midi": 73,
      "hit": false,
      "t": 82148.4375,
      "d": 39.0625,
      "v": 105
    },
    {
      "midi": 40,
      "hit": false,
      "t": 82265.625,
      "d": 234.375,
      "v": 127
    },
    {
      "midi": 52,
      "hit": false,
      "t": 82265.625,
      "d": 56.15234375,
      "v": 113
    },
    {
      "midi": 52,
      "hit": false,
      "t": 82265.625,
      "d": 56.15234375,
      "v": 127
    },
    {
      "midi": 76,
      "hit": false,
      "t": 82265.625,
      "d": 97.65625,
      "v": 127
    },
    {
      "midi": 71,
      "hit": false,
      "t": 82265.625,
      "d": 46.38671875,
      "v": 122
    },
    {
      "midi": 59,
      "hit": false,
      "t": 82272.94921875,
      "d": 1035.15625,
      "v": 127
    },
    {
      "midi": 83,
      "hit": false,
      "t": 82275.390625,
      "d": 1005.859375,
      "v": 127
    },
    {
      "midi": 76,
      "hit": false,
      "t": 82275.390625,
      "d": 1020.5078125,
      "v": 127
    },
    {
      "midi": 71,
      "hit": false,
      "t": 82277.83203125,
      "d": 1005.859375,
      "v": 127
    },
    {
      "midi": 64,
      "hit": false,
      "t": 82277.83203125,
      "d": 1020.5078125,
      "v": 127
    },
    {
      "midi": 52,
      "hit": false,
      "t": 82382.8125,
      "d": 61.03515625,
      "v": 113
    },
    {
      "midi": 52,
      "hit": false,
      "t": 82382.8125,
      "d": 61.03515625,
      "v": 127
    },
    {
      "midi": 71,
      "hit": false,
      "t": 82382.8125,
      "d": 85.44921875,
      "v": 107
    },
    {
      "midi": 28,
      "hit": false,
      "t": 82500,
      "d": 234.375,
      "v": 127
    },
    {
      "midi": 68,
      "hit": false,
      "t": 82500,
      "d": 1672.36328125,
      "v": 119
    },
    {
      "midi": 59,
      "hit": false,
      "t": 82500,
      "d": 1684.5703125,
      "v": 68
    },
    {
      "midi": 64,
      "hit": false,
      "t": 82500,
      "d": 1738.28125,
      "v": 98
    },
    {
      "midi": 52,
      "hit": false,
      "t": 82500,
      "d": 58.59375,
      "v": 119
    },
    {
      "midi": 52,
      "hit": false,
      "t": 82500,
      "d": 58.59375,
      "v": 127
    },
    {
      "midi": 40,
      "hit": false,
      "t": 82734.375,
      "d": 234.375,
      "v": 127
    },
    {
      "midi": 52,
      "hit": false,
      "t": 82734.375,
      "d": 41.50390625,
      "v": 116
    },
    {
      "midi": 52,
      "hit": false,
      "t": 82734.375,
      "d": 41.50390625,
      "v": 127
    },
    {
      "midi": 52,
      "hit": false,
      "t": 82851.5625,
      "d": 85.44921875,
      "v": 122
    },
    {
      "midi": 52,
      "hit": false,
      "t": 82851.5625,
      "d": 85.44921875,
      "v": 127
    },
    {
      "midi": 28,
      "hit": false,
      "t": 82968.75,
      "d": 234.375,
      "v": 127
    },
    {
      "midi": 52,
      "hit": false,
      "t": 82968.75,
      "d": 46.38671875,
      "v": 113
    },
    {
      "midi": 52,
      "hit": false,
      "t": 82968.75,
      "d": 46.38671875,
      "v": 127
    },
    {
      "midi": 40,
      "hit": false,
      "t": 83203.125,
      "d": 234.375,
      "v": 127
    },
    {
      "midi": 52,
      "hit": false,
      "t": 83203.125,
      "d": 53.7109375,
      "v": 116
    },
    {
      "midi": 52,
      "hit": false,
      "t": 83203.125,
      "d": 53.7109375,
      "v": 127
    },
    {
      "midi": 52,
      "hit": false,
      "t": 83320.3125,
      "d": 83.0078125,
      "v": 110
    },
    {
      "midi": 52,
      "hit": false,
      "t": 83320.3125,
      "d": 83.0078125,
      "v": 127
    },
    {
      "midi": 28,
      "hit": false,
      "t": 83437.5,
      "d": 234.375,
      "v": 127
    },
    {
      "midi": 52,
      "hit": false,
      "t": 83437.5,
      "d": 58.59375,
      "v": 113
    },
    {
      "midi": 52,
      "hit": false,
      "t": 83437.5,
      "d": 58.59375,
      "v": 127
    },
    {
      "midi": 76,
      "hit": false,
      "t": 83444.82421875,
      "d": 561.5234375,
      "v": 127
    },
    {
      "midi": 59,
      "hit": false,
      "t": 83444.82421875,
      "d": 566.40625,
      "v": 127
    },
    {
      "midi": 64,
      "hit": false,
      "t": 83447.265625,
      "d": 561.5234375,
      "v": 127
    },
    {
      "midi": 80,
      "hit": false,
      "t": 83452.1484375,
      "d": 256.34765625,
      "v": 127
    },
    {
      "midi": 68,
      "hit": false,
      "t": 83454.58984375,
      "d": 256.34765625,
      "v": 127
    },
    {
      "midi": 40,
      "hit": false,
      "t": 83671.875,
      "d": 234.375,
      "v": 127
    },
    {
      "midi": 52,
      "hit": false,
      "t": 83671.875,
      "d": 58.59375,
      "v": 113
    },
    {
      "midi": 52,
      "hit": false,
      "t": 83671.875,
      "d": 58.59375,
      "v": 127
    },
    {
      "midi": 81,
      "hit": false,
      "t": 83676.7578125,
      "d": 168.45703125,
      "v": 127
    },
    {
      "midi": 69,
      "hit": false,
      "t": 83679.19921875,
      "d": 168.45703125,
      "v": 127
    },
    {
      "midi": 52,
      "hit": false,
      "t": 83789.0625,
      "d": 75.68359375,
      "v": 110
    },
    {
      "midi": 52,
      "hit": false,
      "t": 83789.0625,
      "d": 75.68359375,
      "v": 127
    },
    {
      "midi": 83,
      "hit": false,
      "t": 83884.27734375,
      "d": 97.65625,
      "v": 127
    },
    {
      "midi": 71,
      "hit": false,
      "t": 83886.71875,
      "d": 97.65625,
      "v": 127
    },
    {
      "midi": 28,
      "hit": false,
      "t": 83906.25,
      "d": 234.375,
      "v": 127
    },
    {
      "midi": 52,
      "hit": false,
      "t": 83906.25,
      "d": 51.26953125,
      "v": 122
    },
    {
      "midi": 52,
      "hit": false,
      "t": 83906.25,
      "d": 51.26953125,
      "v": 127
    },
    {
      "midi": 40,
      "hit": false,
      "t": 84140.625,
      "d": 234.375,
      "v": 127
    },
    {
      "midi": 52,
      "hit": false,
      "t": 84140.625,
      "d": 61.03515625,
      "v": 110
    },
    {
      "midi": 52,
      "hit": false,
      "t": 84140.625,
      "d": 61.03515625,
      "v": 127
    },
    {
      "midi": 83,
      "hit": false,
      "t": 84147.94921875,
      "d": 227.05078125,
      "v": 127
    },
    {
      "midi": 71,
      "hit": false,
      "t": 84150.390625,
      "d": 227.05078125,
      "v": 127
    },
    {
      "midi": 76,
      "hit": false,
      "t": 84155.2734375,
      "d": 229.4921875,
      "v": 127
    },
    {
      "midi": 59,
      "hit": false,
      "t": 84157.71484375,
      "d": 214.84375,
      "v": 127
    },
    {
      "midi": 64,
      "hit": false,
      "t": 84157.71484375,
      "d": 229.4921875,
      "v": 127
    },
    {
      "midi": 52,
      "hit": false,
      "t": 84257.8125,
      "d": 83.0078125,
      "v": 113
    },
    {
      "midi": 52,
      "hit": false,
      "t": 84257.8125,
      "d": 83.0078125,
      "v": 127
    },
    {
      "midi": 30,
      "hit": false,
      "t": 84375,
      "d": 234.375,
      "v": 127
    },
    {
      "midi": 61,
      "hit": false,
      "t": 84375,
      "d": 1672.36328125,
      "v": 100
    },
    {
      "midi": 69,
      "hit": false,
      "t": 84375,
      "d": 1679.6875,
      "v": 127
    },
    {
      "midi": 64,
      "hit": false,
      "t": 84375,
      "d": 1779.78515625,
      "v": 64
    },
    {
      "midi": 54,
      "hit": false,
      "t": 84375,
      "d": 53.7109375,
      "v": 122
    },
    {
      "midi": 54,
      "hit": false,
      "t": 84375,
      "d": 53.7109375,
      "v": 127
    },
    {
      "midi": 42,
      "hit": false,
      "t": 84609.375,
      "d": 234.375,
      "v": 127
    },
    {
      "midi": 54,
      "hit": false,
      "t": 84609.375,
      "d": 31.73828125,
      "v": 113
    },
    {
      "midi": 54,
      "hit": false,
      "t": 84609.375,
      "d": 31.73828125,
      "v": 127
    },
    {
      "midi": 76,
      "hit": false,
      "t": 84626.46484375,
      "d": 539.55078125,
      "v": 127
    },
    {
      "midi": 73,
      "hit": false,
      "t": 84628.90625,
      "d": 537.109375,
      "v": 127
    },
    {
      "midi": 64,
      "hit": false,
      "t": 84628.90625,
      "d": 539.55078125,
      "v": 127
    },
    {
      "midi": 61,
      "hit": false,
      "t": 84631.34765625,
      "d": 537.109375,
      "v": 127
    },
    {
      "midi": 81,
      "hit": false,
      "t": 84633.7890625,
      "d": 480.95703125,
      "v": 127
    },
    {
      "midi": 69,
      "hit": false,
      "t": 84636.23046875,
      "d": 480.95703125,
      "v": 127
    },
    {
      "midi": 54,
      "hit": false,
      "t": 84726.5625,
      "d": 63.4765625,
      "v": 107
    },
    {
      "midi": 54,
      "hit": false,
      "t": 84726.5625,
      "d": 63.4765625,
      "v": 125
    },
    {
      "midi": 30,
      "hit": false,
      "t": 84843.75,
      "d": 234.375,
      "v": 127
    },
    {
      "midi": 54,
      "hit": false,
      "t": 84843.75,
      "d": 43.9453125,
      "v": 122
    },
    {
      "midi": 54,
      "hit": false,
      "t": 84843.75,
      "d": 43.9453125,
      "v": 127
    },
    {
      "midi": 42,
      "hit": false,
      "t": 85078.125,
      "d": 234.375,
      "v": 127
    },
    {
      "midi": 54,
      "hit": false,
      "t": 85078.125,
      "d": 39.0625,
      "v": 110
    },
    {
      "midi": 54,
      "hit": false,
      "t": 85078.125,
      "d": 39.0625,
      "v": 127
    },
    {
      "midi": 54,
      "hit": false,
      "t": 85195.3125,
      "d": 78.125,
      "v": 107
    },
    {
      "midi": 54,
      "hit": false,
      "t": 85195.3125,
      "d": 78.125,
      "v": 125
    },
    {
      "midi": 76,
      "hit": false,
      "t": 85302.734375,
      "d": 610.3515625,
      "v": 127
    },
    {
      "midi": 73,
      "hit": false,
      "t": 85305.17578125,
      "d": 603.02734375,
      "v": 127
    },
    {
      "midi": 64,
      "hit": false,
      "t": 85305.17578125,
      "d": 610.3515625,
      "v": 127
    },
    {
      "midi": 78,
      "hit": false,
      "t": 85307.6171875,
      "d": 261.23046875,
      "v": 127
    },
    {
      "midi": 61,
      "hit": false,
      "t": 85307.6171875,
      "d": 603.02734375,
      "v": 127
    },
    {
      "midi": 66,
      "hit": false,
      "t": 85310.05859375,
      "d": 261.23046875,
      "v": 127
    },
    {
      "midi": 30,
      "hit": false,
      "t": 85312.5,
      "d": 234.375,
      "v": 127
    },
    {
      "midi": 54,
      "hit": false,
      "t": 85312.5,
      "d": 48.828125,
      "v": 119
    },
    {
      "midi": 54,
      "hit": false,
      "t": 85312.5,
      "d": 48.828125,
      "v": 127
    },
    {
      "midi": 80,
      "hit": false,
      "t": 85541.9921875,
      "d": 156.25,
      "v": 127
    },
    {
      "midi": 68,
      "hit": false,
      "t": 85544.43359375,
      "d": 156.25,
      "v": 127
    },
    {
      "midi": 42,
      "hit": false,
      "t": 85546.875,
      "d": 234.375,
      "v": 127
    },
    {
      "midi": 54,
      "hit": false,
      "t": 85546.875,
      "d": 24.4140625,
      "v": 107
    },
    {
      "midi": 54,
      "hit": false,
      "t": 85546.875,
      "d": 24.4140625,
      "v": 125
    },
    {
      "midi": 54,
      "hit": false,
      "t": 85664.0625,
      "d": 73.2421875,
      "v": 107
    },
    {
      "midi": 54,
      "hit": false,
      "t": 85664.0625,
      "d": 73.2421875,
      "v": 125
    },
    {
      "midi": 81,
      "hit": false,
      "t": 85769.04296875,
      "d": 104.98046875,
      "v": 127
    },
    {
      "midi": 69,
      "hit": false,
      "t": 85771.484375,
      "d": 104.98046875,
      "v": 127
    },
    {
      "midi": 30,
      "hit": false,
      "t": 85781.25,
      "d": 234.375,
      "v": 127
    },
    {
      "midi": 54,
      "hit": false,
      "t": 85781.25,
      "d": 58.59375,
      "v": 119
    },
    {
      "midi": 54,
      "hit": false,
      "t": 85781.25,
      "d": 58.59375,
      "v": 127
    },
    {
      "midi": 42,
      "hit": false,
      "t": 86015.625,
      "d": 234.375,
      "v": 127
    },
    {
      "midi": 54,
      "hit": false,
      "t": 86015.625,
      "d": 51.26953125,
      "v": 119
    },
    {
      "midi": 54,
      "hit": false,
      "t": 86015.625,
      "d": 51.26953125,
      "v": 127
    },
    {
      "midi": 76,
      "hit": false,
      "t": 86018.06640625,
      "d": 517.578125,
      "v": 127
    },
    {
      "midi": 73,
      "hit": false,
      "t": 86020.5078125,
      "d": 505.37109375,
      "v": 127
    },
    {
      "midi": 64,
      "hit": false,
      "t": 86020.5078125,
      "d": 517.578125,
      "v": 127
    },
    {
      "midi": 61,
      "hit": false,
      "t": 86022.94921875,
      "d": 505.37109375,
      "v": 127
    },
    {
      "midi": 81,
      "hit": false,
      "t": 86027.83203125,
      "d": 471.19140625,
      "v": 127
    },
    {
      "midi": 69,
      "hit": false,
      "t": 86030.2734375,
      "d": 471.19140625,
      "v": 127
    },
    {
      "midi": 23,
      "hit": false,
      "t": 86250,
      "d": 234.375,
      "v": 127
    },
    {
      "midi": 59,
      "hit": false,
      "t": 86250,
      "d": 1406.25,
      "v": 98
    },
    {
      "midi": 64,
      "hit": false,
      "t": 86250,
      "d": 1406.25,
      "v": 64
    },
    {
      "midi": 66,
      "hit": false,
      "t": 86250,
      "d": 1711.42578125,
      "v": 122
    },
    {
      "midi": 47,
      "hit": false,
      "t": 86250,
      "d": 53.7109375,
      "v": 127
    },
    {
      "midi": 47,
      "hit": false,
      "t": 86250,
      "d": 53.7109375,
      "v": 127
    },
    {
      "midi": 35,
      "hit": false,
      "t": 86484.375,
      "d": 234.375,
      "v": 127
    },
    {
      "midi": 47,
      "hit": false,
      "t": 86484.375,
      "d": 39.0625,
      "v": 116
    },
    {
      "midi": 47,
      "hit": false,
      "t": 86484.375,
      "d": 39.0625,
      "v": 127
    },
    {
      "midi": 47,
      "hit": false,
      "t": 86601.5625,
      "d": 78.125,
      "v": 113
    },
    {
      "midi": 47,
      "hit": false,
      "t": 86601.5625,
      "d": 78.125,
      "v": 127
    },
    {
      "midi": 76,
      "hit": false,
      "t": 86696.77734375,
      "d": 288.0859375,
      "v": 127
    },
    {
      "midi": 64,
      "hit": false,
      "t": 86699.21875,
      "d": 288.0859375,
      "v": 127
    },
    {
      "midi": 73,
      "hit": false,
      "t": 86699.21875,
      "d": 290.52734375,
      "v": 127
    },
    {
      "midi": 61,
      "hit": false,
      "t": 86701.66015625,
      "d": 290.52734375,
      "v": 127
    },
    {
      "midi": 80,
      "hit": false,
      "t": 86716.30859375,
      "d": 270.99609375,
      "v": 127
    },
    {
      "midi": 23,
      "hit": false,
      "t": 86718.75,
      "d": 234.375,
      "v": 127
    },
    {
      "midi": 47,
      "hit": false,
      "t": 86718.75,
      "d": 39.0625,
      "v": 119
    },
    {
      "midi": 47,
      "hit": false,
      "t": 86718.75,
      "d": 39.0625,
      "v": 127
    },
    {
      "midi": 68,
      "hit": false,
      "t": 86718.75,
      "d": 270.99609375,
      "v": 127
    },
    {
      "midi": 35,
      "hit": false,
      "t": 86953.125,
      "d": 234.375,
      "v": 127
    },
    {
      "midi": 47,
      "hit": false,
      "t": 86953.125,
      "d": 46.38671875,
      "v": 119
    },
    {
      "midi": 47,
      "hit": false,
      "t": 86953.125,
      "d": 46.38671875,
      "v": 127
    },
    {
      "midi": 47,
      "hit": false,
      "t": 87070.3125,
      "d": 85.44921875,
      "v": 122
    },
    {
      "midi": 47,
      "hit": false,
      "t": 87070.3125,
      "d": 85.44921875,
      "v": 127
    },
    {
      "midi": 73,
      "hit": false,
      "t": 87177.734375,
      "d": 551.7578125,
      "v": 127
    },
    {
      "midi": 76,
      "hit": false,
      "t": 87177.734375,
      "d": 603.02734375,
      "v": 127
    },
    {
      "midi": 81,
      "hit": false,
      "t": 87180.17578125,
      "d": 263.671875,
      "v": 127
    },
    {
      "midi": 61,
      "hit": false,
      "t": 87180.17578125,
      "d": 551.7578125,
      "v": 127
    },
    {
      "midi": 64,
      "hit": false,
      "t": 87180.17578125,
      "d": 603.02734375,
      "v": 127
    },
    {
      "midi": 69,
      "hit": false,
      "t": 87182.6171875,
      "d": 263.671875,
      "v": 127
    },
    {
      "midi": 23,
      "hit": false,
      "t": 87187.5,
      "d": 234.375,
      "v": 127
    },
    {
      "midi": 47,
      "hit": false,
      "t": 87187.5,
      "d": 56.15234375,
      "v": 119
    },
    {
      "midi": 47,
      "hit": false,
      "t": 87187.5,
      "d": 56.15234375,
      "v": 127
    },
    {
      "midi": 35,
      "hit": false,
      "t": 87421.875,
      "d": 234.375,
      "v": 127
    },
    {
      "midi": 47,
      "hit": false,
      "t": 87421.875,
      "d": 41.50390625,
      "v": 113
    },
    {
      "midi": 47,
      "hit": false,
      "t": 87421.875,
      "d": 41.50390625,
      "v": 127
    },
    {
      "midi": 80,
      "hit": false,
      "t": 87429.19921875,
      "d": 261.23046875,
      "v": 127
    },
    {
      "midi": 68,
      "hit": false,
      "t": 87431.640625,
      "d": 261.23046875,
      "v": 127
    },
    {
      "midi": 47,
      "hit": false,
      "t": 87539.0625,
      "d": 85.44921875,
      "v": 116
    },
    {
      "midi": 47,
      "hit": false,
      "t": 87539.0625,
      "d": 85.44921875,
      "v": 127
    },
    {
      "midi": 23,
      "hit": false,
      "t": 87656.25,
      "d": 234.375,
      "v": 127
    },
    {
      "midi": 47,
      "hit": false,
      "t": 87656.25,
      "d": 46.38671875,
      "v": 113
    },
    {
      "midi": 47,
      "hit": false,
      "t": 87656.25,
      "d": 46.38671875,
      "v": 127
    },
    {
      "midi": 78,
      "hit": false,
      "t": 87661.1328125,
      "d": 126.953125,
      "v": 127
    },
    {
      "midi": 66,
      "hit": false,
      "t": 87663.57421875,
      "d": 126.953125,
      "v": 127
    },
    {
      "midi": 35,
      "hit": false,
      "t": 87890.625,
      "d": 234.375,
      "v": 127
    },
    {
      "midi": 59,
      "hit": false,
      "t": 87890.625,
      "d": 1843.26171875,
      "v": 102
    },
    {
      "midi": 68,
      "hit": false,
      "t": 87890.625,
      "d": 1850.5859375,
      "v": 119
    },
    {
      "midi": 64,
      "hit": false,
      "t": 87890.625,
      "d": 1853.02734375,
      "v": 102
    },
    {
      "midi": 47,
      "hit": false,
      "t": 87890.625,
      "d": 39.0625,
      "v": 107
    },
    {
      "midi": 47,
      "hit": false,
      "t": 87890.625,
      "d": 39.0625,
      "v": 125
    },
    {
      "midi": 76,
      "hit": false,
      "t": 87905.2734375,
      "d": 1662.59765625,
      "v": 127
    },
    {
      "midi": 64,
      "hit": false,
      "t": 87907.71484375,
      "d": 1662.59765625,
      "v": 127
    },
    {
      "midi": 59,
      "hit": false,
      "t": 87907.71484375,
      "d": 1672.36328125,
      "v": 127
    },
    {
      "midi": 47,
      "hit": false,
      "t": 88007.8125,
      "d": 73.2421875,
      "v": 113
    },
    {
      "midi": 47,
      "hit": false,
      "t": 88007.8125,
      "d": 73.2421875,
      "v": 127
    },
    {
      "midi": 28,
      "hit": false,
      "t": 88125,
      "d": 234.375,
      "v": 127
    },
    {
      "midi": 52,
      "hit": false,
      "t": 88125,
      "d": 58.59375,
      "v": 113
    },
    {
      "midi": 52,
      "hit": false,
      "t": 88125,
      "d": 58.59375,
      "v": 127
    },
    {
      "midi": 40,
      "hit": false,
      "t": 88359.375,
      "d": 234.375,
      "v": 127
    },
    {
      "midi": 52,
      "hit": false,
      "t": 88359.375,
      "d": 39.0625,
      "v": 105
    },
    {
      "midi": 52,
      "hit": false,
      "t": 88359.375,
      "d": 39.0625,
      "v": 123
    },
    {
      "midi": 52,
      "hit": false,
      "t": 88476.5625,
      "d": 65.91796875,
      "v": 110
    },
    {
      "midi": 52,
      "hit": false,
      "t": 88476.5625,
      "d": 65.91796875,
      "v": 127
    },
    {
      "midi": 28,
      "hit": false,
      "t": 88593.75,
      "d": 234.375,
      "v": 127
    },
    {
      "midi": 52,
      "hit": false,
      "t": 88593.75,
      "d": 56.15234375,
      "v": 119
    },
    {
      "midi": 52,
      "hit": false,
      "t": 88593.75,
      "d": 56.15234375,
      "v": 127
    },
    {
      "midi": 56,
      "hit": false,
      "t": 88593.75,
      "d": 83.0078125,
      "v": 127
    },
    {
      "midi": 40,
      "hit": false,
      "t": 88828.125,
      "d": 234.375,
      "v": 127
    },
    {
      "midi": 52,
      "hit": false,
      "t": 88828.125,
      "d": 51.26953125,
      "v": 113
    },
    {
      "midi": 52,
      "hit": false,
      "t": 88828.125,
      "d": 51.26953125,
      "v": 127
    },
    {
      "midi": 56,
      "hit": false,
      "t": 88828.125,
      "d": 87.890625,
      "v": 127
    },
    {
      "midi": 52,
      "hit": false,
      "t": 88945.3125,
      "d": 73.2421875,
      "v": 110
    },
    {
      "midi": 52,
      "hit": false,
      "t": 88945.3125,
      "d": 73.2421875,
      "v": 127
    },
    {
      "midi": 28,
      "hit": false,
      "t": 89062.5,
      "d": 234.375,
      "v": 127
    },
    {
      "midi": 52,
      "hit": false,
      "t": 89062.5,
      "d": 43.9453125,
      "v": 127
    },
    {
      "midi": 52,
      "hit": false,
      "t": 89062.5,
      "d": 43.9453125,
      "v": 127
    },
    {
      "midi": 56,
      "hit": false,
      "t": 89062.5,
      "d": 187.98828125,
      "v": 127
    },
    {
      "midi": 40,
      "hit": false,
      "t": 89296.875,
      "d": 234.375,
      "v": 127
    },
    {
      "midi": 52,
      "hit": false,
      "t": 89296.875,
      "d": 46.38671875,
      "v": 113
    },
    {
      "midi": 52,
      "hit": false,
      "t": 89296.875,
      "d": 46.38671875,
      "v": 127
    },
    {
      "midi": 57,
      "hit": false,
      "t": 89296.875,
      "d": 170.8984375,
      "v": 127
    },
    {
      "midi": 52,
      "hit": false,
      "t": 89414.0625,
      "d": 83.0078125,
      "v": 110
    },
    {
      "midi": 52,
      "hit": false,
      "t": 89414.0625,
      "d": 83.0078125,
      "v": 127
    },
    {
      "midi": 28,
      "hit": false,
      "t": 89531.25,
      "d": 234.375,
      "v": 127
    },
    {
      "midi": 52,
      "hit": false,
      "t": 89531.25,
      "d": 46.38671875,
      "v": 107
    },
    {
      "midi": 52,
      "hit": false,
      "t": 89531.25,
      "d": 46.38671875,
      "v": 125
    },
    {
      "midi": 59,
      "hit": false,
      "t": 89531.25,
      "d": 129.39453125,
      "v": 122
    },
    {
      "midi": 40,
      "hit": false,
      "t": 89765.625,
      "d": 234.375,
      "v": 127
    },
    {
      "midi": 52,
      "hit": false,
      "t": 89765.625,
      "d": 41.50390625,
      "v": 116
    },
    {
      "midi": 52,
      "hit": false,
      "t": 89765.625,
      "d": 41.50390625,
      "v": 127
    },
    {
      "midi": 59,
      "hit": false,
      "t": 89765.625,
      "d": 288.0859375,
      "v": 127
    },
    {
      "midi": 52,
      "hit": false,
      "t": 89882.8125,
      "d": 63.4765625,
      "v": 127
    },
    {
      "midi": 52,
      "hit": false,
      "t": 89882.8125,
      "d": 63.4765625,
      "v": 127
    },
    {
      "midi": 35,
      "hit": false,
      "t": 90000,
      "d": 117.1875,
      "v": 116
    },
    {
      "midi": 47,
      "hit": false,
      "t": 90000,
      "d": 3723.14453125,
      "v": 119
    },
    {
      "midi": 47,
      "hit": false,
      "t": 90000,
      "d": 117.1875,
      "v": 116
    },
    {
      "midi": 47,
      "hit": false,
      "t": 90000,
      "d": 117.1875,
      "v": 127
    },
    {
      "midi": 35,
      "hit": false,
      "t": 90234.375,
      "d": 117.1875,
      "v": 102
    },
    {
      "midi": 66,
      "hit": false,
      "t": 90234.375,
      "d": 56.15234375,
      "v": 105
    },
    {
      "midi": 63,
      "hit": false,
      "t": 90234.375,
      "d": 70.80078125,
      "v": 110
    },
    {
      "midi": 59,
      "hit": false,
      "t": 90234.375,
      "d": 90.33203125,
      "v": 93
    },
    {
      "midi": 47,
      "hit": false,
      "t": 90234.375,
      "d": 253.90625,
      "v": 127
    },
    {
      "midi": 47,
      "hit": false,
      "t": 90234.375,
      "d": 253.90625,
      "v": 127
    },
    {
      "midi": 35,
      "hit": false,
      "t": 90468.75,
      "d": 117.1875,
      "v": 116
    },
    {
      "midi": 51,
      "hit": false,
      "t": 90468.75,
      "d": 205.078125,
      "v": 116
    },
    {
      "midi": 51,
      "hit": false,
      "t": 90468.75,
      "d": 205.078125,
      "v": 127
    },
    {
      "midi": 35,
      "hit": false,
      "t": 90703.125,
      "d": 117.1875,
      "v": 110
    },
    {
      "midi": 63,
      "hit": false,
      "t": 90703.125,
      "d": 39.0625,
      "v": 105
    },
    {
      "midi": 66,
      "hit": false,
      "t": 90703.125,
      "d": 48.828125,
      "v": 113
    },
    {
      "midi": 59,
      "hit": false,
      "t": 90703.125,
      "d": 51.26953125,
      "v": 100
    },
    {
      "midi": 47,
      "hit": false,
      "t": 90703.125,
      "d": 239.2578125,
      "v": 113
    },
    {
      "midi": 47,
      "hit": false,
      "t": 90703.125,
      "d": 239.2578125,
      "v": 127
    },
    {
      "midi": 35,
      "hit": false,
      "t": 90937.5,
      "d": 117.1875,
      "v": 116
    },
    {
      "midi": 54,
      "hit": false,
      "t": 90937.5,
      "d": 231.93359375,
      "v": 122
    },
    {
      "midi": 54,
      "hit": false,
      "t": 90937.5,
      "d": 231.93359375,
      "v": 127
    },
    {
      "midi": 35,
      "hit": false,
      "t": 91171.875,
      "d": 117.1875,
      "v": 107
    },
    {
      "midi": 63,
      "hit": false,
      "t": 91171.875,
      "d": 56.15234375,
      "v": 116
    },
    {
      "midi": 66,
      "hit": false,
      "t": 91171.875,
      "d": 56.15234375,
      "v": 116
    },
    {
      "midi": 59,
      "hit": false,
      "t": 91171.875,
      "d": 58.59375,
      "v": 102
    },
    {
      "midi": 47,
      "hit": false,
      "t": 91171.875,
      "d": 219.7265625,
      "v": 110
    },
    {
      "midi": 47,
      "hit": false,
      "t": 91171.875,
      "d": 219.7265625,
      "v": 127
    },
    {
      "midi": 35,
      "hit": false,
      "t": 91406.25,
      "d": 117.1875,
      "v": 116
    },
    {
      "midi": 52,
      "hit": false,
      "t": 91406.25,
      "d": 263.671875,
      "v": 122
    },
    {
      "midi": 52,
      "hit": false,
      "t": 91406.25,
      "d": 263.671875,
      "v": 127
    },
    {
      "midi": 35,
      "hit": false,
      "t": 91640.625,
      "d": 117.1875,
      "v": 110
    },
    {
      "midi": 63,
      "hit": false,
      "t": 91640.625,
      "d": 51.26953125,
      "v": 107
    },
    {
      "midi": 66,
      "hit": false,
      "t": 91640.625,
      "d": 53.7109375,
      "v": 110
    },
    {
      "midi": 59,
      "hit": false,
      "t": 91640.625,
      "d": 68.359375,
      "v": 100
    },
    {
      "midi": 51,
      "hit": false,
      "t": 91640.625,
      "d": 251.46484375,
      "v": 102
    },
    {
      "midi": 51,
      "hit": false,
      "t": 91640.625,
      "d": 251.46484375,
      "v": 120
    },
    {
      "midi": 35,
      "hit": false,
      "t": 91875,
      "d": 117.1875,
      "v": 113
    },
    {
      "midi": 47,
      "hit": false,
      "t": 91875,
      "d": 117.1875,
      "v": 116
    },
    {
      "midi": 47,
      "hit": false,
      "t": 91875,
      "d": 117.1875,
      "v": 127
    },
    {
      "midi": 35,
      "hit": false,
      "t": 92109.375,
      "d": 117.1875,
      "v": 107
    },
    {
      "midi": 66,
      "hit": false,
      "t": 92109.375,
      "d": 58.59375,
      "v": 113
    },
    {
      "midi": 63,
      "hit": false,
      "t": 92109.375,
      "d": 63.4765625,
      "v": 113
    },
    {
      "midi": 59,
      "hit": false,
      "t": 92109.375,
      "d": 70.80078125,
      "v": 105
    },
    {
      "midi": 47,
      "hit": false,
      "t": 92109.375,
      "d": 117.1875,
      "v": 113
    },
    {
      "midi": 47,
      "hit": false,
      "t": 92109.375,
      "d": 117.1875,
      "v": 127
    },
    {
      "midi": 35,
      "hit": false,
      "t": 92343.75,
      "d": 117.1875,
      "v": 110
    },
    {
      "midi": 47,
      "hit": false,
      "t": 92343.75,
      "d": 117.1875,
      "v": 105
    },
    {
      "midi": 47,
      "hit": false,
      "t": 92343.75,
      "d": 117.1875,
      "v": 123
    },
    {
      "midi": 47,
      "hit": false,
      "t": 92343.75,
      "d": 80.56640625,
      "v": 127
    },
    {
      "midi": 35,
      "hit": false,
      "t": 92578.125,
      "d": 117.1875,
      "v": 110
    },
    {
      "midi": 63,
      "hit": false,
      "t": 92578.125,
      "d": 48.828125,
      "v": 110
    },
    {
      "midi": 66,
      "hit": false,
      "t": 92578.125,
      "d": 53.7109375,
      "v": 113
    },
    {
      "midi": 59,
      "hit": false,
      "t": 92578.125,
      "d": 73.2421875,
      "v": 102
    },
    {
      "midi": 47,
      "hit": false,
      "t": 92578.125,
      "d": 117.1875,
      "v": 110
    },
    {
      "midi": 47,
      "hit": false,
      "t": 92578.125,
      "d": 117.1875,
      "v": 127
    },
    {
      "midi": 47,
      "hit": false,
      "t": 92578.125,
      "d": 200.1953125,
      "v": 127
    },
    {
      "midi": 35,
      "hit": false,
      "t": 92812.5,
      "d": 117.1875,
      "v": 113
    },
    {
      "midi": 47,
      "hit": false,
      "t": 92812.5,
      "d": 117.1875,
      "v": 110
    },
    {
      "midi": 47,
      "hit": false,
      "t": 92812.5,
      "d": 117.1875,
      "v": 127
    },
    {
      "midi": 57,
      "hit": false,
      "t": 92812.5,
      "d": 148.92578125,
      "v": 127
    },
    {
      "midi": 35,
      "hit": false,
      "t": 93046.875,
      "d": 117.1875,
      "v": 107
    },
    {
      "midi": 66,
      "hit": false,
      "t": 93046.875,
      "d": 56.15234375,
      "v": 110
    },
    {
      "midi": 63,
      "hit": false,
      "t": 93046.875,
      "d": 61.03515625,
      "v": 110
    },
    {
      "midi": 59,
      "hit": false,
      "t": 93046.875,
      "d": 78.125,
      "v": 105
    },
    {
      "midi": 47,
      "hit": false,
      "t": 93046.875,
      "d": 117.1875,
      "v": 113
    },
    {
      "midi": 47,
      "hit": false,
      "t": 93046.875,
      "d": 117.1875,
      "v": 127
    },
    {
      "midi": 57,
      "hit": false,
      "t": 93046.875,
      "d": 236.81640625,
      "v": 127
    },
    {
      "midi": 35,
      "hit": false,
      "t": 93281.25,
      "d": 117.1875,
      "v": 107
    },
    {
      "midi": 47,
      "hit": false,
      "t": 93281.25,
      "d": 117.1875,
      "v": 113
    },
    {
      "midi": 47,
      "hit": false,
      "t": 93281.25,
      "d": 117.1875,
      "v": 127
    },
    {
      "midi": 56,
      "hit": false,
      "t": 93281.25,
      "d": 234.375,
      "v": 122
    },
    {
      "midi": 35,
      "hit": false,
      "t": 93515.625,
      "d": 117.1875,
      "v": 116
    },
    {
      "midi": 63,
      "hit": false,
      "t": 93515.625,
      "d": 51.26953125,
      "v": 105
    },
    {
      "midi": 66,
      "hit": false,
      "t": 93515.625,
      "d": 53.7109375,
      "v": 105
    },
    {
      "midi": 59,
      "hit": false,
      "t": 93515.625,
      "d": 65.91796875,
      "v": 100
    },
    {
      "midi": 47,
      "hit": false,
      "t": 93515.625,
      "d": 117.1875,
      "v": 105
    },
    {
      "midi": 47,
      "hit": false,
      "t": 93515.625,
      "d": 117.1875,
      "v": 123
    },
    {
      "midi": 56,
      "hit": false,
      "t": 93515.625,
      "d": 241.69921875,
      "v": 127
    },
    {
      "midi": 28,
      "hit": false,
      "t": 93750,
      "d": 117.1875,
      "v": 127
    },
    {
      "midi": 52,
      "hit": false,
      "t": 93750,
      "d": 3703.61328125,
      "v": 127
    },
    {
      "midi": 52,
      "hit": false,
      "t": 93750,
      "d": 117.1875,
      "v": 113
    },
    {
      "midi": 52,
      "hit": false,
      "t": 93750,
      "d": 117.1875,
      "v": 127
    },
    {
      "midi": 28,
      "hit": false,
      "t": 93984.375,
      "d": 117.1875,
      "v": 119
    },
    {
      "midi": 64,
      "hit": false,
      "t": 93984.375,
      "d": 78.125,
      "v": 64
    },
    {
      "midi": 68,
      "hit": false,
      "t": 93984.375,
      "d": 92.7734375,
      "v": 95
    },
    {
      "midi": 71,
      "hit": false,
      "t": 93984.375,
      "d": 107.421875,
      "v": 89
    },
    {
      "midi": 52,
      "hit": false,
      "t": 93984.375,
      "d": 258.7890625,
      "v": 116
    },
    {
      "midi": 52,
      "hit": false,
      "t": 93984.375,
      "d": 258.7890625,
      "v": 127
    },
    {
      "midi": 28,
      "hit": false,
      "t": 94218.75,
      "d": 117.1875,
      "v": 105
    },
    {
      "midi": 56,
      "hit": false,
      "t": 94218.75,
      "d": 173.33984375,
      "v": 119
    },
    {
      "midi": 56,
      "hit": false,
      "t": 94218.75,
      "d": 173.33984375,
      "v": 127
    },
    {
      "midi": 28,
      "hit": false,
      "t": 94453.125,
      "d": 117.1875,
      "v": 107
    },
    {
      "midi": 68,
      "hit": false,
      "t": 94453.125,
      "d": 65.91796875,
      "v": 95
    },
    {
      "midi": 71,
      "hit": false,
      "t": 94453.125,
      "d": 65.91796875,
      "v": 100
    },
    {
      "midi": 64,
      "hit": false,
      "t": 94453.125,
      "d": 78.125,
      "v": 110
    },
    {
      "midi": 52,
      "hit": false,
      "t": 94453.125,
      "d": 219.7265625,
      "v": 107
    },
    {
      "midi": 52,
      "hit": false,
      "t": 94453.125,
      "d": 219.7265625,
      "v": 125
    },
    {
      "midi": 28,
      "hit": false,
      "t": 94687.5,
      "d": 117.1875,
      "v": 110
    },
    {
      "midi": 59,
      "hit": false,
      "t": 94687.5,
      "d": 288.0859375,
      "v": 119
    },
    {
      "midi": 59,
      "hit": false,
      "t": 94687.5,
      "d": 288.0859375,
      "v": 127
    },
    {
      "midi": 28,
      "hit": false,
      "t": 94921.875,
      "d": 117.1875,
      "v": 107
    },
    {
      "midi": 64,
      "hit": false,
      "t": 94921.875,
      "d": 63.4765625,
      "v": 105
    },
    {
      "midi": 68,
      "hit": false,
      "t": 94921.875,
      "d": 68.359375,
      "v": 100
    },
    {
      "midi": 71,
      "hit": false,
      "t": 94921.875,
      "d": 75.68359375,
      "v": 100
    },
    {
      "midi": 52,
      "hit": false,
      "t": 94921.875,
      "d": 224.609375,
      "v": 107
    },
    {
      "midi": 52,
      "hit": false,
      "t": 94921.875,
      "d": 224.609375,
      "v": 125
    },
    {
      "midi": 28,
      "hit": false,
      "t": 95156.25,
      "d": 117.1875,
      "v": 102
    },
    {
      "midi": 57,
      "hit": false,
      "t": 95156.25,
      "d": 290.52734375,
      "v": 105
    },
    {
      "midi": 57,
      "hit": false,
      "t": 95156.25,
      "d": 290.52734375,
      "v": 123
    },
    {
      "midi": 28,
      "hit": false,
      "t": 95390.625,
      "d": 117.1875,
      "v": 102
    },
    {
      "midi": 64,
      "hit": false,
      "t": 95390.625,
      "d": 70.80078125,
      "v": 107
    },
    {
      "midi": 68,
      "hit": false,
      "t": 95390.625,
      "d": 70.80078125,
      "v": 93
    },
    {
      "midi": 71,
      "hit": false,
      "t": 95390.625,
      "d": 70.80078125,
      "v": 100
    },
    {
      "midi": 56,
      "hit": false,
      "t": 95390.625,
      "d": 214.84375,
      "v": 105
    },
    {
      "midi": 56,
      "hit": false,
      "t": 95390.625,
      "d": 214.84375,
      "v": 123
    },
    {
      "midi": 28,
      "hit": false,
      "t": 95625,
      "d": 117.1875,
      "v": 105
    },
    {
      "midi": 52,
      "hit": false,
      "t": 95625,
      "d": 117.1875,
      "v": 113
    },
    {
      "midi": 52,
      "hit": false,
      "t": 95625,
      "d": 117.1875,
      "v": 127
    },
    {
      "midi": 28,
      "hit": false,
      "t": 95859.375,
      "d": 117.1875,
      "v": 105
    },
    {
      "midi": 68,
      "hit": false,
      "t": 95859.375,
      "d": 58.59375,
      "v": 93
    },
    {
      "midi": 71,
      "hit": false,
      "t": 95859.375,
      "d": 68.359375,
      "v": 102
    },
    {
      "midi": 64,
      "hit": false,
      "t": 95859.375,
      "d": 73.2421875,
      "v": 113
    },
    {
      "midi": 52,
      "hit": false,
      "t": 95859.375,
      "d": 117.1875,
      "v": 105
    },
    {
      "midi": 52,
      "hit": false,
      "t": 95859.375,
      "d": 117.1875,
      "v": 123
    },
    {
      "midi": 28,
      "hit": false,
      "t": 96093.75,
      "d": 117.1875,
      "v": 107
    },
    {
      "midi": 52,
      "hit": false,
      "t": 96093.75,
      "d": 117.1875,
      "v": 110
    },
    {
      "midi": 52,
      "hit": false,
      "t": 96093.75,
      "d": 117.1875,
      "v": 127
    },
    {
      "midi": 56,
      "hit": false,
      "t": 96093.75,
      "d": 90.33203125,
      "v": 127
    },
    {
      "midi": 28,
      "hit": false,
      "t": 96328.125,
      "d": 117.1875,
      "v": 105
    },
    {
      "midi": 71,
      "hit": false,
      "t": 96328.125,
      "d": 58.59375,
      "v": 100
    },
    {
      "midi": 68,
      "hit": false,
      "t": 96328.125,
      "d": 65.91796875,
      "v": 100
    },
    {
      "midi": 64,
      "hit": false,
      "t": 96328.125,
      "d": 70.80078125,
      "v": 110
    },
    {
      "midi": 52,
      "hit": false,
      "t": 96328.125,
      "d": 117.1875,
      "v": 95
    },
    {
      "midi": 52,
      "hit": false,
      "t": 96328.125,
      "d": 117.1875,
      "v": 113
    },
    {
      "midi": 56,
      "hit": false,
      "t": 96328.125,
      "d": 100.09765625,
      "v": 127
    },
    {
      "midi": 28,
      "hit": false,
      "t": 96562.5,
      "d": 117.1875,
      "v": 107
    },
    {
      "midi": 52,
      "hit": false,
      "t": 96562.5,
      "d": 117.1875,
      "v": 98
    },
    {
      "midi": 52,
      "hit": false,
      "t": 96562.5,
      "d": 117.1875,
      "v": 116
    },
    {
      "midi": 56,
      "hit": false,
      "t": 96562.5,
      "d": 185.546875,
      "v": 127
    },
    {
      "midi": 28,
      "hit": false,
      "t": 96796.875,
      "d": 117.1875,
      "v": 107
    },
    {
      "midi": 64,
      "hit": false,
      "t": 96796.875,
      "d": 63.4765625,
      "v": 113
    },
    {
      "midi": 68,
      "hit": false,
      "t": 96796.875,
      "d": 65.91796875,
      "v": 98
    },
    {
      "midi": 71,
      "hit": false,
      "t": 96796.875,
      "d": 65.91796875,
      "v": 102
    },
    {
      "midi": 52,
      "hit": false,
      "t": 96796.875,
      "d": 117.1875,
      "v": 102
    },
    {
      "midi": 52,
      "hit": false,
      "t": 96796.875,
      "d": 117.1875,
      "v": 120
    },
    {
      "midi": 57,
      "hit": false,
      "t": 96796.875,
      "d": 129.39453125,
      "v": 127
    },
    {
      "midi": 28,
      "hit": false,
      "t": 97031.25,
      "d": 117.1875,
      "v": 102
    },
    {
      "midi": 52,
      "hit": false,
      "t": 97031.25,
      "d": 117.1875,
      "v": 110
    },
    {
      "midi": 52,
      "hit": false,
      "t": 97031.25,
      "d": 117.1875,
      "v": 127
    },
    {
      "midi": 57,
      "hit": false,
      "t": 97031.25,
      "d": 83.0078125,
      "v": 127
    },
    {
      "midi": 28,
      "hit": false,
      "t": 97265.625,
      "d": 117.1875,
      "v": 113
    },
    {
      "midi": 64,
      "hit": false,
      "t": 97265.625,
      "d": 56.15234375,
      "v": 110
    },
    {
      "midi": 68,
      "hit": false,
      "t": 97265.625,
      "d": 56.15234375,
      "v": 105
    },
    {
      "midi": 71,
      "hit": false,
      "t": 97265.625,
      "d": 61.03515625,
      "v": 110
    },
    {
      "midi": 52,
      "hit": false,
      "t": 97265.625,
      "d": 117.1875,
      "v": 107
    },
    {
      "midi": 52,
      "hit": false,
      "t": 97265.625,
      "d": 117.1875,
      "v": 125
    },
    {
      "midi": 59,
      "hit": false,
      "t": 97265.625,
      "d": 375.9765625,
      "v": 127
    },
    {
      "midi": 35,
      "hit": false,
      "t": 97500,
      "d": 117.1875,
      "v": 116
    },
    {
      "midi": 47,
      "hit": false,
      "t": 97500,
      "d": 3723.14453125,
      "v": 119
    },
    {
      "midi": 47,
      "hit": false,
      "t": 97500,
      "d": 117.1875,
      "v": 116
    },
    {
      "midi": 47,
      "hit": false,
      "t": 97500,
      "d": 117.1875,
      "v": 127
    },
    {
      "midi": 35,
      "hit": false,
      "t": 97734.375,
      "d": 117.1875,
      "v": 102
    },
    {
      "midi": 66,
      "hit": false,
      "t": 97734.375,
      "d": 56.15234375,
      "v": 105
    },
    {
      "midi": 63,
      "hit": false,
      "t": 97734.375,
      "d": 70.80078125,
      "v": 110
    },
    {
      "midi": 59,
      "hit": false,
      "t": 97734.375,
      "d": 90.33203125,
      "v": 93
    },
    {
      "midi": 47,
      "hit": false,
      "t": 97734.375,
      "d": 253.90625,
      "v": 127
    },
    {
      "midi": 47,
      "hit": false,
      "t": 97734.375,
      "d": 253.90625,
      "v": 127
    },
    {
      "midi": 59,
      "hit": false,
      "t": 97734.375,
      "d": 90.33203125,
      "v": 122
    },
    {
      "midi": 35,
      "hit": false,
      "t": 97968.75,
      "d": 117.1875,
      "v": 116
    },
    {
      "midi": 51,
      "hit": false,
      "t": 97968.75,
      "d": 205.078125,
      "v": 116
    },
    {
      "midi": 51,
      "hit": false,
      "t": 97968.75,
      "d": 205.078125,
      "v": 127
    },
    {
      "midi": 59,
      "hit": false,
      "t": 97968.75,
      "d": 97.65625,
      "v": 127
    },
    {
      "midi": 35,
      "hit": false,
      "t": 98203.125,
      "d": 117.1875,
      "v": 110
    },
    {
      "midi": 63,
      "hit": false,
      "t": 98203.125,
      "d": 39.0625,
      "v": 105
    },
    {
      "midi": 66,
      "hit": false,
      "t": 98203.125,
      "d": 48.828125,
      "v": 113
    },
    {
      "midi": 59,
      "hit": false,
      "t": 98203.125,
      "d": 51.26953125,
      "v": 100
    },
    {
      "midi": 47,
      "hit": false,
      "t": 98203.125,
      "d": 239.2578125,
      "v": 113
    },
    {
      "midi": 47,
      "hit": false,
      "t": 98203.125,
      "d": 239.2578125,
      "v": 127
    },
    {
      "midi": 59,
      "hit": false,
      "t": 98203.125,
      "d": 329.58984375,
      "v": 127
    },
    {
      "midi": 35,
      "hit": false,
      "t": 98437.5,
      "d": 117.1875,
      "v": 116
    },
    {
      "midi": 54,
      "hit": false,
      "t": 98437.5,
      "d": 231.93359375,
      "v": 122
    },
    {
      "midi": 54,
      "hit": false,
      "t": 98437.5,
      "d": 231.93359375,
      "v": 127
    },
    {
      "midi": 35,
      "hit": false,
      "t": 98671.875,
      "d": 117.1875,
      "v": 107
    },
    {
      "midi": 63,
      "hit": false,
      "t": 98671.875,
      "d": 56.15234375,
      "v": 116
    },
    {
      "midi": 66,
      "hit": false,
      "t": 98671.875,
      "d": 56.15234375,
      "v": 116
    },
    {
      "midi": 59,
      "hit": false,
      "t": 98671.875,
      "d": 58.59375,
      "v": 102
    },
    {
      "midi": 47,
      "hit": false,
      "t": 98671.875,
      "d": 219.7265625,
      "v": 110
    },
    {
      "midi": 47,
      "hit": false,
      "t": 98671.875,
      "d": 219.7265625,
      "v": 127
    },
    {
      "midi": 59,
      "hit": false,
      "t": 98671.875,
      "d": 83.0078125,
      "v": 122
    },
    {
      "midi": 35,
      "hit": false,
      "t": 98906.25,
      "d": 117.1875,
      "v": 116
    },
    {
      "midi": 52,
      "hit": false,
      "t": 98906.25,
      "d": 263.671875,
      "v": 122
    },
    {
      "midi": 52,
      "hit": false,
      "t": 98906.25,
      "d": 263.671875,
      "v": 127
    },
    {
      "midi": 59,
      "hit": false,
      "t": 98906.25,
      "d": 92.7734375,
      "v": 127
    },
    {
      "midi": 35,
      "hit": false,
      "t": 99140.625,
      "d": 117.1875,
      "v": 110
    },
    {
      "midi": 63,
      "hit": false,
      "t": 99140.625,
      "d": 51.26953125,
      "v": 107
    },
    {
      "midi": 66,
      "hit": false,
      "t": 99140.625,
      "d": 53.7109375,
      "v": 110
    },
    {
      "midi": 59,
      "hit": false,
      "t": 99140.625,
      "d": 68.359375,
      "v": 100
    },
    {
      "midi": 51,
      "hit": false,
      "t": 99140.625,
      "d": 251.46484375,
      "v": 102
    },
    {
      "midi": 51,
      "hit": false,
      "t": 99140.625,
      "d": 251.46484375,
      "v": 120
    },
    {
      "midi": 59,
      "hit": false,
      "t": 99140.625,
      "d": 332.03125,
      "v": 127
    },
    {
      "midi": 35,
      "hit": false,
      "t": 99375,
      "d": 117.1875,
      "v": 113
    },
    {
      "midi": 47,
      "hit": false,
      "t": 99375,
      "d": 117.1875,
      "v": 116
    },
    {
      "midi": 47,
      "hit": false,
      "t": 99375,
      "d": 117.1875,
      "v": 127
    },
    {
      "midi": 35,
      "hit": false,
      "t": 99609.375,
      "d": 117.1875,
      "v": 107
    },
    {
      "midi": 66,
      "hit": false,
      "t": 99609.375,
      "d": 58.59375,
      "v": 113
    },
    {
      "midi": 63,
      "hit": false,
      "t": 99609.375,
      "d": 63.4765625,
      "v": 113
    },
    {
      "midi": 59,
      "hit": false,
      "t": 99609.375,
      "d": 70.80078125,
      "v": 105
    },
    {
      "midi": 47,
      "hit": false,
      "t": 99609.375,
      "d": 117.1875,
      "v": 113
    },
    {
      "midi": 47,
      "hit": false,
      "t": 99609.375,
      "d": 117.1875,
      "v": 127
    },
    {
      "midi": 59,
      "hit": false,
      "t": 99609.375,
      "d": 85.44921875,
      "v": 107
    },
    {
      "midi": 35,
      "hit": false,
      "t": 99843.75,
      "d": 117.1875,
      "v": 110
    },
    {
      "midi": 47,
      "hit": false,
      "t": 99843.75,
      "d": 117.1875,
      "v": 105
    },
    {
      "midi": 47,
      "hit": false,
      "t": 99843.75,
      "d": 117.1875,
      "v": 123
    },
    {
      "midi": 59,
      "hit": false,
      "t": 99843.75,
      "d": 95.21484375,
      "v": 122
    },
    {
      "midi": 35,
      "hit": false,
      "t": 100078.125,
      "d": 117.1875,
      "v": 110
    },
    {
      "midi": 63,
      "hit": false,
      "t": 100078.125,
      "d": 48.828125,
      "v": 110
    },
    {
      "midi": 66,
      "hit": false,
      "t": 100078.125,
      "d": 53.7109375,
      "v": 113
    },
    {
      "midi": 59,
      "hit": false,
      "t": 100078.125,
      "d": 73.2421875,
      "v": 102
    },
    {
      "midi": 47,
      "hit": false,
      "t": 100078.125,
      "d": 117.1875,
      "v": 110
    },
    {
      "midi": 47,
      "hit": false,
      "t": 100078.125,
      "d": 117.1875,
      "v": 127
    },
    {
      "midi": 59,
      "hit": false,
      "t": 100078.125,
      "d": 397.94921875,
      "v": 127
    },
    {
      "midi": 35,
      "hit": false,
      "t": 100312.5,
      "d": 117.1875,
      "v": 113
    },
    {
      "midi": 47,
      "hit": false,
      "t": 100312.5,
      "d": 117.1875,
      "v": 110
    },
    {
      "midi": 47,
      "hit": false,
      "t": 100312.5,
      "d": 117.1875,
      "v": 127
    },
    {
      "midi": 35,
      "hit": false,
      "t": 100546.875,
      "d": 117.1875,
      "v": 107
    },
    {
      "midi": 66,
      "hit": false,
      "t": 100546.875,
      "d": 56.15234375,
      "v": 110
    },
    {
      "midi": 63,
      "hit": false,
      "t": 100546.875,
      "d": 61.03515625,
      "v": 110
    },
    {
      "midi": 59,
      "hit": false,
      "t": 100546.875,
      "d": 78.125,
      "v": 105
    },
    {
      "midi": 47,
      "hit": false,
      "t": 100546.875,
      "d": 117.1875,
      "v": 113
    },
    {
      "midi": 47,
      "hit": false,
      "t": 100546.875,
      "d": 117.1875,
      "v": 127
    },
    {
      "midi": 57,
      "hit": false,
      "t": 100546.875,
      "d": 131.8359375,
      "v": 127
    },
    {
      "midi": 35,
      "hit": false,
      "t": 100781.25,
      "d": 117.1875,
      "v": 107
    },
    {
      "midi": 47,
      "hit": false,
      "t": 100781.25,
      "d": 117.1875,
      "v": 113
    },
    {
      "midi": 47,
      "hit": false,
      "t": 100781.25,
      "d": 117.1875,
      "v": 127
    },
    {
      "midi": 57,
      "hit": false,
      "t": 100781.25,
      "d": 92.7734375,
      "v": 127
    },
    {
      "midi": 35,
      "hit": false,
      "t": 101015.625,
      "d": 117.1875,
      "v": 116
    },
    {
      "midi": 63,
      "hit": false,
      "t": 101015.625,
      "d": 51.26953125,
      "v": 105
    },
    {
      "midi": 66,
      "hit": false,
      "t": 101015.625,
      "d": 53.7109375,
      "v": 105
    },
    {
      "midi": 59,
      "hit": false,
      "t": 101015.625,
      "d": 65.91796875,
      "v": 100
    },
    {
      "midi": 47,
      "hit": false,
      "t": 101015.625,
      "d": 117.1875,
      "v": 105
    },
    {
      "midi": 47,
      "hit": false,
      "t": 101015.625,
      "d": 117.1875,
      "v": 123
    },
    {
      "midi": 57,
      "hit": false,
      "t": 101015.625,
      "d": 219.7265625,
      "v": 127
    },
    {
      "midi": 28,
      "hit": false,
      "t": 101250,
      "d": 117.1875,
      "v": 127
    },
    {
      "midi": 52,
      "hit": false,
      "t": 101250,
      "d": 3703.61328125,
      "v": 127
    },
    {
      "midi": 52,
      "hit": false,
      "t": 101250,
      "d": 117.1875,
      "v": 113
    },
    {
      "midi": 52,
      "hit": false,
      "t": 101250,
      "d": 117.1875,
      "v": 127
    },
    {
      "midi": 56,
      "hit": false,
      "t": 101250,
      "d": 217.28515625,
      "v": 127
    },
    {
      "midi": 28,
      "hit": false,
      "t": 101484.375,
      "d": 117.1875,
      "v": 119
    },
    {
      "midi": 64,
      "hit": false,
      "t": 101484.375,
      "d": 78.125,
      "v": 64
    },
    {
      "midi": 68,
      "hit": false,
      "t": 101484.375,
      "d": 92.7734375,
      "v": 95
    },
    {
      "midi": 71,
      "hit": false,
      "t": 101484.375,
      "d": 107.421875,
      "v": 89
    },
    {
      "midi": 52,
      "hit": false,
      "t": 101484.375,
      "d": 258.7890625,
      "v": 116
    },
    {
      "midi": 52,
      "hit": false,
      "t": 101484.375,
      "d": 258.7890625,
      "v": 127
    },
    {
      "midi": 28,
      "hit": false,
      "t": 101718.75,
      "d": 117.1875,
      "v": 105
    },
    {
      "midi": 56,
      "hit": false,
      "t": 101718.75,
      "d": 173.33984375,
      "v": 119
    },
    {
      "midi": 56,
      "hit": false,
      "t": 101718.75,
      "d": 173.33984375,
      "v": 127
    },
    {
      "midi": 28,
      "hit": false,
      "t": 101953.125,
      "d": 117.1875,
      "v": 107
    },
    {
      "midi": 68,
      "hit": false,
      "t": 101953.125,
      "d": 65.91796875,
      "v": 95
    },
    {
      "midi": 71,
      "hit": false,
      "t": 101953.125,
      "d": 65.91796875,
      "v": 100
    },
    {
      "midi": 64,
      "hit": false,
      "t": 101953.125,
      "d": 78.125,
      "v": 110
    },
    {
      "midi": 52,
      "hit": false,
      "t": 101953.125,
      "d": 219.7265625,
      "v": 107
    },
    {
      "midi": 52,
      "hit": false,
      "t": 101953.125,
      "d": 219.7265625,
      "v": 125
    },
    {
      "midi": 28,
      "hit": false,
      "t": 102187.5,
      "d": 117.1875,
      "v": 110
    },
    {
      "midi": 59,
      "hit": false,
      "t": 102187.5,
      "d": 288.0859375,
      "v": 119
    },
    {
      "midi": 59,
      "hit": false,
      "t": 102187.5,
      "d": 288.0859375,
      "v": 127
    },
    {
      "midi": 28,
      "hit": false,
      "t": 102421.875,
      "d": 117.1875,
      "v": 107
    },
    {
      "midi": 64,
      "hit": false,
      "t": 102421.875,
      "d": 63.4765625,
      "v": 105
    },
    {
      "midi": 68,
      "hit": false,
      "t": 102421.875,
      "d": 68.359375,
      "v": 100
    },
    {
      "midi": 71,
      "hit": false,
      "t": 102421.875,
      "d": 75.68359375,
      "v": 100
    },
    {
      "midi": 52,
      "hit": false,
      "t": 102421.875,
      "d": 224.609375,
      "v": 107
    },
    {
      "midi": 52,
      "hit": false,
      "t": 102421.875,
      "d": 224.609375,
      "v": 125
    },
    {
      "midi": 28,
      "hit": false,
      "t": 102656.25,
      "d": 117.1875,
      "v": 102
    },
    {
      "midi": 57,
      "hit": false,
      "t": 102656.25,
      "d": 290.52734375,
      "v": 105
    },
    {
      "midi": 57,
      "hit": false,
      "t": 102656.25,
      "d": 290.52734375,
      "v": 123
    },
    {
      "midi": 28,
      "hit": false,
      "t": 102890.625,
      "d": 117.1875,
      "v": 102
    },
    {
      "midi": 64,
      "hit": false,
      "t": 102890.625,
      "d": 70.80078125,
      "v": 107
    },
    {
      "midi": 68,
      "hit": false,
      "t": 102890.625,
      "d": 70.80078125,
      "v": 93
    },
    {
      "midi": 71,
      "hit": false,
      "t": 102890.625,
      "d": 70.80078125,
      "v": 100
    },
    {
      "midi": 56,
      "hit": false,
      "t": 102890.625,
      "d": 214.84375,
      "v": 105
    },
    {
      "midi": 56,
      "hit": false,
      "t": 102890.625,
      "d": 214.84375,
      "v": 123
    },
    {
      "midi": 28,
      "hit": false,
      "t": 103125,
      "d": 117.1875,
      "v": 105
    },
    {
      "midi": 52,
      "hit": false,
      "t": 103125,
      "d": 117.1875,
      "v": 113
    },
    {
      "midi": 52,
      "hit": false,
      "t": 103125,
      "d": 117.1875,
      "v": 127
    },
    {
      "midi": 28,
      "hit": false,
      "t": 103359.375,
      "d": 117.1875,
      "v": 105
    },
    {
      "midi": 68,
      "hit": false,
      "t": 103359.375,
      "d": 58.59375,
      "v": 93
    },
    {
      "midi": 71,
      "hit": false,
      "t": 103359.375,
      "d": 68.359375,
      "v": 102
    },
    {
      "midi": 64,
      "hit": false,
      "t": 103359.375,
      "d": 73.2421875,
      "v": 113
    },
    {
      "midi": 52,
      "hit": false,
      "t": 103359.375,
      "d": 117.1875,
      "v": 105
    },
    {
      "midi": 52,
      "hit": false,
      "t": 103359.375,
      "d": 117.1875,
      "v": 123
    },
    {
      "midi": 28,
      "hit": false,
      "t": 103593.75,
      "d": 117.1875,
      "v": 107
    },
    {
      "midi": 52,
      "hit": false,
      "t": 103593.75,
      "d": 117.1875,
      "v": 110
    },
    {
      "midi": 52,
      "hit": false,
      "t": 103593.75,
      "d": 117.1875,
      "v": 127
    },
    {
      "midi": 56,
      "hit": false,
      "t": 103593.75,
      "d": 65.91796875,
      "v": 127
    },
    {
      "midi": 59,
      "hit": false,
      "t": 103593.75,
      "d": 83.0078125,
      "v": 127
    },
    {
      "midi": 28,
      "hit": false,
      "t": 103828.125,
      "d": 117.1875,
      "v": 105
    },
    {
      "midi": 71,
      "hit": false,
      "t": 103828.125,
      "d": 58.59375,
      "v": 100
    },
    {
      "midi": 68,
      "hit": false,
      "t": 103828.125,
      "d": 65.91796875,
      "v": 100
    },
    {
      "midi": 64,
      "hit": false,
      "t": 103828.125,
      "d": 70.80078125,
      "v": 110
    },
    {
      "midi": 52,
      "hit": false,
      "t": 103828.125,
      "d": 117.1875,
      "v": 95
    },
    {
      "midi": 52,
      "hit": false,
      "t": 103828.125,
      "d": 117.1875,
      "v": 113
    },
    {
      "midi": 56,
      "hit": false,
      "t": 103828.125,
      "d": 68.359375,
      "v": 127
    },
    {
      "midi": 59,
      "hit": false,
      "t": 103828.125,
      "d": 80.56640625,
      "v": 127
    },
    {
      "midi": 28,
      "hit": false,
      "t": 104062.5,
      "d": 117.1875,
      "v": 107
    },
    {
      "midi": 52,
      "hit": false,
      "t": 104062.5,
      "d": 117.1875,
      "v": 98
    },
    {
      "midi": 52,
      "hit": false,
      "t": 104062.5,
      "d": 117.1875,
      "v": 116
    },
    {
      "midi": 56,
      "hit": false,
      "t": 104062.5,
      "d": 173.33984375,
      "v": 127
    },
    {
      "midi": 59,
      "hit": false,
      "t": 104062.5,
      "d": 205.078125,
      "v": 127
    },
    {
      "midi": 28,
      "hit": false,
      "t": 104296.875,
      "d": 117.1875,
      "v": 107
    },
    {
      "midi": 64,
      "hit": false,
      "t": 104296.875,
      "d": 63.4765625,
      "v": 113
    },
    {
      "midi": 68,
      "hit": false,
      "t": 104296.875,
      "d": 65.91796875,
      "v": 98
    },
    {
      "midi": 71,
      "hit": false,
      "t": 104296.875,
      "d": 65.91796875,
      "v": 102
    },
    {
      "midi": 52,
      "hit": false,
      "t": 104296.875,
      "d": 117.1875,
      "v": 102
    },
    {
      "midi": 52,
      "hit": false,
      "t": 104296.875,
      "d": 117.1875,
      "v": 120
    },
    {
      "midi": 61,
      "hit": false,
      "t": 104296.875,
      "d": 168.45703125,
      "v": 127
    },
    {
      "midi": 57,
      "hit": false,
      "t": 104296.875,
      "d": 197.75390625,
      "v": 127
    },
    {
      "midi": 28,
      "hit": false,
      "t": 104531.25,
      "d": 117.1875,
      "v": 102
    },
    {
      "midi": 52,
      "hit": false,
      "t": 104531.25,
      "d": 117.1875,
      "v": 110
    },
    {
      "midi": 52,
      "hit": false,
      "t": 104531.25,
      "d": 117.1875,
      "v": 127
    },
    {
      "midi": 59,
      "hit": false,
      "t": 104531.25,
      "d": 129.39453125,
      "v": 122
    },
    {
      "midi": 63,
      "hit": false,
      "t": 104531.25,
      "d": 129.39453125,
      "v": 120
    },
    {
      "midi": 28,
      "hit": false,
      "t": 104765.625,
      "d": 117.1875,
      "v": 113
    },
    {
      "midi": 64,
      "hit": false,
      "t": 104765.625,
      "d": 56.15234375,
      "v": 110
    },
    {
      "midi": 68,
      "hit": false,
      "t": 104765.625,
      "d": 56.15234375,
      "v": 105
    },
    {
      "midi": 71,
      "hit": false,
      "t": 104765.625,
      "d": 61.03515625,
      "v": 110
    },
    {
      "midi": 52,
      "hit": false,
      "t": 104765.625,
      "d": 117.1875,
      "v": 107
    },
    {
      "midi": 52,
      "hit": false,
      "t": 104765.625,
      "d": 117.1875,
      "v": 125
    },
    {
      "midi": 64,
      "hit": false,
      "t": 104765.625,
      "d": 117.1875,
      "v": 122
    },
    {
      "midi": 61,
      "hit": false,
      "t": 104765.625,
      "d": 134.27734375,
      "v": 127
    },
    {
      "midi": 59,
      "hit": false,
      "t": 104882.8125,
      "d": 117.1875,
      "v": 122
    },
    {
      "midi": 63,
      "hit": false,
      "t": 104882.8125,
      "d": 183.10546875,
      "v": 127
    },
    {
      "midi": 33,
      "hit": false,
      "t": 105000,
      "d": 117.1875,
      "v": 127
    },
    {
      "midi": 64,
      "hit": false,
      "t": 105000,
      "d": 3708.49609375,
      "v": 110
    },
    {
      "midi": 57,
      "hit": false,
      "t": 105000,
      "d": 70.80078125,
      "v": 110
    },
    {
      "midi": 57,
      "hit": false,
      "t": 105000,
      "d": 70.80078125,
      "v": 127
    },
    {
      "midi": 64,
      "hit": false,
      "t": 105000,
      "d": 205.078125,
      "v": 127
    },
    {
      "midi": 61,
      "hit": false,
      "t": 105000,
      "d": 270.99609375,
      "v": 127
    },
    {
      "midi": 33,
      "hit": false,
      "t": 105234.375,
      "d": 117.1875,
      "v": 127
    },
    {
      "midi": 73,
      "hit": false,
      "t": 105234.375,
      "d": 83.0078125,
      "v": 100
    },
    {
      "midi": 76,
      "hit": false,
      "t": 105234.375,
      "d": 87.890625,
      "v": 89
    },
    {
      "midi": 69,
      "hit": false,
      "t": 105234.375,
      "d": 90.33203125,
      "v": 87
    },
    {
      "midi": 57,
      "hit": false,
      "t": 105234.375,
      "d": 212.40234375,
      "v": 113
    },
    {
      "midi": 57,
      "hit": false,
      "t": 105234.375,
      "d": 212.40234375,
      "v": 127
    },
    {
      "midi": 33,
      "hit": false,
      "t": 105468.75,
      "d": 117.1875,
      "v": 127
    },
    {
      "midi": 61,
      "hit": false,
      "t": 105468.75,
      "d": 185.546875,
      "v": 110
    },
    {
      "midi": 61,
      "hit": false,
      "t": 105468.75,
      "d": 185.546875,
      "v": 127
    },
    {
      "midi": 33,
      "hit": false,
      "t": 105703.125,
      "d": 117.1875,
      "v": 127
    },
    {
      "midi": 73,
      "hit": false,
      "t": 105703.125,
      "d": 58.59375,
      "v": 110
    },
    {
      "midi": 76,
      "hit": false,
      "t": 105703.125,
      "d": 65.91796875,
      "v": 107
    },
    {
      "midi": 69,
      "hit": false,
      "t": 105703.125,
      "d": 70.80078125,
      "v": 105
    },
    {
      "midi": 57,
      "hit": false,
      "t": 105703.125,
      "d": 209.9609375,
      "v": 107
    },
    {
      "midi": 57,
      "hit": false,
      "t": 105703.125,
      "d": 209.9609375,
      "v": 125
    },
    {
      "midi": 33,
      "hit": false,
      "t": 105937.5,
      "d": 117.1875,
      "v": 127
    },
    {
      "midi": 64,
      "hit": false,
      "t": 105937.5,
      "d": 244.140625,
      "v": 119
    },
    {
      "midi": 64,
      "hit": false,
      "t": 105937.5,
      "d": 244.140625,
      "v": 127
    },
    {
      "midi": 33,
      "hit": false,
      "t": 106171.875,
      "d": 117.1875,
      "v": 127
    },
    {
      "midi": 73,
      "hit": false,
      "t": 106171.875,
      "d": 56.15234375,
      "v": 102
    },
    {
      "midi": 69,
      "hit": false,
      "t": 106171.875,
      "d": 68.359375,
      "v": 105
    },
    {
      "midi": 76,
      "hit": false,
      "t": 106171.875,
      "d": 68.359375,
      "v": 100
    },
    {
      "midi": 57,
      "hit": false,
      "t": 106171.875,
      "d": 214.84375,
      "v": 102
    },
    {
      "midi": 57,
      "hit": false,
      "t": 106171.875,
      "d": 214.84375,
      "v": 120
    },
    {
      "midi": 33,
      "hit": false,
      "t": 106406.25,
      "d": 117.1875,
      "v": 127
    },
    {
      "midi": 62,
      "hit": false,
      "t": 106406.25,
      "d": 263.671875,
      "v": 116
    },
    {
      "midi": 62,
      "hit": false,
      "t": 106406.25,
      "d": 263.671875,
      "v": 127
    },
    {
      "midi": 33,
      "hit": false,
      "t": 106640.625,
      "d": 117.1875,
      "v": 127
    },
    {
      "midi": 73,
      "hit": false,
      "t": 106640.625,
      "d": 56.15234375,
      "v": 105
    },
    {
      "midi": 69,
      "hit": false,
      "t": 106640.625,
      "d": 65.91796875,
      "v": 102
    },
    {
      "midi": 76,
      "hit": false,
      "t": 106640.625,
      "d": 73.2421875,
      "v": 102
    },
    {
      "midi": 61,
      "hit": false,
      "t": 106640.625,
      "d": 197.75390625,
      "v": 102
    },
    {
      "midi": 61,
      "hit": false,
      "t": 106640.625,
      "d": 197.75390625,
      "v": 120
    },
    {
      "midi": 33,
      "hit": false,
      "t": 106875,
      "d": 117.1875,
      "v": 127
    },
    {
      "midi": 57,
      "hit": false,
      "t": 106875,
      "d": 100.09765625,
      "v": 107
    },
    {
      "midi": 57,
      "hit": false,
      "t": 106875,
      "d": 100.09765625,
      "v": 125
    },
    {
      "midi": 33,
      "hit": false,
      "t": 107109.375,
      "d": 117.1875,
      "v": 127
    },
    {
      "midi": 69,
      "hit": false,
      "t": 107109.375,
      "d": 61.03515625,
      "v": 100
    },
    {
      "midi": 73,
      "hit": false,
      "t": 107109.375,
      "d": 61.03515625,
      "v": 105
    },
    {
      "midi": 76,
      "hit": false,
      "t": 107109.375,
      "d": 61.03515625,
      "v": 98
    },
    {
      "midi": 57,
      "hit": false,
      "t": 107109.375,
      "d": 200.1953125,
      "v": 105
    },
    {
      "midi": 57,
      "hit": false,
      "t": 107109.375,
      "d": 200.1953125,
      "v": 123
    },
    {
      "midi": 33,
      "hit": false,
      "t": 107343.75,
      "d": 117.1875,
      "v": 127
    },
    {
      "midi": 61,
      "hit": false,
      "t": 107343.75,
      "d": 205.078125,
      "v": 116
    },
    {
      "midi": 61,
      "hit": false,
      "t": 107343.75,
      "d": 205.078125,
      "v": 127
    },
    {
      "midi": 64,
      "hit": false,
      "t": 107343.75,
      "d": 97.65625,
      "v": 127
    },
    {
      "midi": 33,
      "hit": false,
      "t": 107578.125,
      "d": 117.1875,
      "v": 127
    },
    {
      "midi": 73,
      "hit": false,
      "t": 107578.125,
      "d": 53.7109375,
      "v": 105
    },
    {
      "midi": 69,
      "hit": false,
      "t": 107578.125,
      "d": 70.80078125,
      "v": 107
    },
    {
      "midi": 76,
      "hit": false,
      "t": 107578.125,
      "d": 70.80078125,
      "v": 100
    },
    {
      "midi": 57,
      "hit": false,
      "t": 107578.125,
      "d": 207.51953125,
      "v": 110
    },
    {
      "midi": 57,
      "hit": false,
      "t": 107578.125,
      "d": 207.51953125,
      "v": 127
    },
    {
      "midi": 64,
      "hit": false,
      "t": 107578.125,
      "d": 85.44921875,
      "v": 127
    },
    {
      "midi": 33,
      "hit": false,
      "t": 107812.5,
      "d": 117.1875,
      "v": 127
    },
    {
      "midi": 64,
      "hit": false,
      "t": 107812.5,
      "d": 166.015625,
      "v": 107
    },
    {
      "midi": 64,
      "hit": false,
      "t": 107812.5,
      "d": 166.015625,
      "v": 125
    },
    {
      "midi": 64,
      "hit": false,
      "t": 107812.5,
      "d": 449.21875,
      "v": 127
    },
    {
      "midi": 33,
      "hit": false,
      "t": 108046.875,
      "d": 117.1875,
      "v": 127
    },
    {
      "midi": 69,
      "hit": false,
      "t": 108046.875,
      "d": 61.03515625,
      "v": 100
    },
    {
      "midi": 73,
      "hit": false,
      "t": 108046.875,
      "d": 65.91796875,
      "v": 105
    },
    {
      "midi": 76,
      "hit": false,
      "t": 108046.875,
      "d": 80.56640625,
      "v": 100
    },
    {
      "midi": 57,
      "hit": false,
      "t": 108046.875,
      "d": 200.1953125,
      "v": 105
    },
    {
      "midi": 57,
      "hit": false,
      "t": 108046.875,
      "d": 200.1953125,
      "v": 123
    },
    {
      "midi": 33,
      "hit": false,
      "t": 108281.25,
      "d": 117.1875,
      "v": 127
    },
    {
      "midi": 61,
      "hit": false,
      "t": 108281.25,
      "d": 239.2578125,
      "v": 127
    },
    {
      "midi": 33,
      "hit": false,
      "t": 108515.625,
      "d": 117.1875,
      "v": 127
    },
    {
      "midi": 73,
      "hit": false,
      "t": 108515.625,
      "d": 61.03515625,
      "v": 105
    },
    {
      "midi": 76,
      "hit": false,
      "t": 108515.625,
      "d": 73.2421875,
      "v": 100
    },
    {
      "midi": 69,
      "hit": false,
      "t": 108515.625,
      "d": 78.125,
      "v": 105
    },
    {
      "midi": 61,
      "hit": false,
      "t": 108515.625,
      "d": 46.38671875,
      "v": 107
    },
    {
      "midi": 61,
      "hit": false,
      "t": 108515.625,
      "d": 46.38671875,
      "v": 125
    },
    {
      "midi": 28,
      "hit": false,
      "t": 108750,
      "d": 117.1875,
      "v": 127
    },
    {
      "midi": 59,
      "hit": false,
      "t": 108750,
      "d": 3752.44140625,
      "v": 107
    },
    {
      "midi": 52,
      "hit": false,
      "t": 108750,
      "d": 85.44921875,
      "v": 113
    },
    {
      "midi": 52,
      "hit": false,
      "t": 108750,
      "d": 85.44921875,
      "v": 127
    },
    {
      "midi": 61,
      "hit": false,
      "t": 108750,
      "d": 395.5078125,
      "v": 127
    },
    {
      "midi": 28,
      "hit": false,
      "t": 108984.375,
      "d": 117.1875,
      "v": 127
    },
    {
      "midi": 64,
      "hit": false,
      "t": 108984.375,
      "d": 100.09765625,
      "v": 100
    },
    {
      "midi": 68,
      "hit": false,
      "t": 108984.375,
      "d": 100.09765625,
      "v": 98
    },
    {
      "midi": 71,
      "hit": false,
      "t": 108984.375,
      "d": 114.74609375,
      "v": 95
    },
    {
      "midi": 52,
      "hit": false,
      "t": 108984.375,
      "d": 246.58203125,
      "v": 113
    },
    {
      "midi": 52,
      "hit": false,
      "t": 108984.375,
      "d": 246.58203125,
      "v": 127
    },
    {
      "midi": 28,
      "hit": false,
      "t": 109218.75,
      "d": 117.1875,
      "v": 127
    },
    {
      "midi": 56,
      "hit": false,
      "t": 109218.75,
      "d": 197.75390625,
      "v": 119
    },
    {
      "midi": 56,
      "hit": false,
      "t": 109218.75,
      "d": 197.75390625,
      "v": 127
    },
    {
      "midi": 59,
      "hit": false,
      "t": 109218.75,
      "d": 83.0078125,
      "v": 127
    },
    {
      "midi": 28,
      "hit": false,
      "t": 109453.125,
      "d": 117.1875,
      "v": 127
    },
    {
      "midi": 64,
      "hit": false,
      "t": 109453.125,
      "d": 85.44921875,
      "v": 105
    },
    {
      "midi": 71,
      "hit": false,
      "t": 109453.125,
      "d": 107.421875,
      "v": 100
    },
    {
      "midi": 68,
      "hit": false,
      "t": 109453.125,
      "d": 112.3046875,
      "v": 100
    },
    {
      "midi": 52,
      "hit": false,
      "t": 109453.125,
      "d": 205.078125,
      "v": 105
    },
    {
      "midi": 52,
      "hit": false,
      "t": 109453.125,
      "d": 205.078125,
      "v": 123
    },
    {
      "midi": 59,
      "hit": false,
      "t": 109453.125,
      "d": 275.87890625,
      "v": 127
    },
    {
      "midi": 28,
      "hit": false,
      "t": 109687.5,
      "d": 117.1875,
      "v": 127
    },
    {
      "midi": 59,
      "hit": false,
      "t": 109687.5,
      "d": 229.4921875,
      "v": 122
    },
    {
      "midi": 59,
      "hit": false,
      "t": 109687.5,
      "d": 229.4921875,
      "v": 127
    },
    {
      "midi": 28,
      "hit": false,
      "t": 109921.875,
      "d": 117.1875,
      "v": 127
    },
    {
      "midi": 68,
      "hit": false,
      "t": 109921.875,
      "d": 78.125,
      "v": 100
    },
    {
      "midi": 64,
      "hit": false,
      "t": 109921.875,
      "d": 85.44921875,
      "v": 107
    },
    {
      "midi": 71,
      "hit": false,
      "t": 109921.875,
      "d": 90.33203125,
      "v": 100
    },
    {
      "midi": 52,
      "hit": false,
      "t": 109921.875,
      "d": 185.546875,
      "v": 102
    },
    {
      "midi": 52,
      "hit": false,
      "t": 109921.875,
      "d": 185.546875,
      "v": 120
    },
    {
      "midi": 28,
      "hit": false,
      "t": 110156.25,
      "d": 117.1875,
      "v": 127
    },
    {
      "midi": 57,
      "hit": false,
      "t": 110156.25,
      "d": 273.4375,
      "v": 110
    },
    {
      "midi": 57,
      "hit": false,
      "t": 110156.25,
      "d": 273.4375,
      "v": 127
    },
    {
      "midi": 28,
      "hit": false,
      "t": 110390.625,
      "d": 117.1875,
      "v": 127
    },
    {
      "midi": 64,
      "hit": false,
      "t": 110390.625,
      "d": 68.359375,
      "v": 100
    },
    {
      "midi": 68,
      "hit": false,
      "t": 110390.625,
      "d": 75.68359375,
      "v": 98
    },
    {
      "midi": 71,
      "hit": false,
      "t": 110390.625,
      "d": 78.125,
      "v": 98
    },
    {
      "midi": 56,
      "hit": false,
      "t": 110390.625,
      "d": 168.45703125,
      "v": 102
    },
    {
      "midi": 56,
      "hit": false,
      "t": 110390.625,
      "d": 168.45703125,
      "v": 120
    },
    {
      "midi": 28,
      "hit": false,
      "t": 110625,
      "d": 117.1875,
      "v": 127
    },
    {
      "midi": 52,
      "hit": false,
      "t": 110625,
      "d": 100.09765625,
      "v": 110
    },
    {
      "midi": 52,
      "hit": false,
      "t": 110625,
      "d": 100.09765625,
      "v": 127
    },
    {
      "midi": 28,
      "hit": false,
      "t": 110859.375,
      "d": 117.1875,
      "v": 127
    },
    {
      "midi": 64,
      "hit": false,
      "t": 110859.375,
      "d": 97.65625,
      "v": 102
    },
    {
      "midi": 71,
      "hit": false,
      "t": 110859.375,
      "d": 100.09765625,
      "v": 102
    },
    {
      "midi": 68,
      "hit": false,
      "t": 110859.375,
      "d": 117.1875,
      "v": 107
    },
    {
      "midi": 52,
      "hit": false,
      "t": 110859.375,
      "d": 236.81640625,
      "v": 107
    },
    {
      "midi": 52,
      "hit": false,
      "t": 110859.375,
      "d": 236.81640625,
      "v": 125
    },
    {
      "midi": 28,
      "hit": false,
      "t": 111093.75,
      "d": 117.1875,
      "v": 127
    },
    {
      "midi": 56,
      "hit": false,
      "t": 111093.75,
      "d": 178.22265625,
      "v": 102
    },
    {
      "midi": 56,
      "hit": false,
      "t": 111093.75,
      "d": 178.22265625,
      "v": 120
    },
    {
      "midi": 28,
      "hit": false,
      "t": 111328.125,
      "d": 117.1875,
      "v": 127
    },
    {
      "midi": 64,
      "hit": false,
      "t": 111328.125,
      "d": 85.44921875,
      "v": 102
    },
    {
      "midi": 68,
      "hit": false,
      "t": 111328.125,
      "d": 85.44921875,
      "v": 100
    },
    {
      "midi": 71,
      "hit": false,
      "t": 111328.125,
      "d": 90.33203125,
      "v": 98
    },
    {
      "midi": 52,
      "hit": false,
      "t": 111328.125,
      "d": 239.2578125,
      "v": 105
    },
    {
      "midi": 52,
      "hit": false,
      "t": 111328.125,
      "d": 239.2578125,
      "v": 123
    },
    {
      "midi": 28,
      "hit": false,
      "t": 111562.5,
      "d": 117.1875,
      "v": 127
    },
    {
      "midi": 59,
      "hit": false,
      "t": 111562.5,
      "d": 217.28515625,
      "v": 110
    },
    {
      "midi": 59,
      "hit": false,
      "t": 111562.5,
      "d": 217.28515625,
      "v": 127
    },
    {
      "midi": 28,
      "hit": false,
      "t": 111796.875,
      "d": 117.1875,
      "v": 127
    },
    {
      "midi": 64,
      "hit": false,
      "t": 111796.875,
      "d": 95.21484375,
      "v": 102
    },
    {
      "midi": 68,
      "hit": false,
      "t": 111796.875,
      "d": 107.421875,
      "v": 102
    },
    {
      "midi": 71,
      "hit": false,
      "t": 111796.875,
      "d": 112.3046875,
      "v": 100
    },
    {
      "midi": 52,
      "hit": false,
      "t": 111796.875,
      "d": 212.40234375,
      "v": 102
    },
    {
      "midi": 52,
      "hit": false,
      "t": 111796.875,
      "d": 212.40234375,
      "v": 120
    },
    {
      "midi": 28,
      "hit": false,
      "t": 112031.25,
      "d": 117.1875,
      "v": 127
    },
    {
      "midi": 57,
      "hit": false,
      "t": 112031.25,
      "d": 283.203125,
      "v": 113
    },
    {
      "midi": 57,
      "hit": false,
      "t": 112031.25,
      "d": 283.203125,
      "v": 127
    },
    {
      "midi": 28,
      "hit": false,
      "t": 112265.625,
      "d": 117.1875,
      "v": 127
    },
    {
      "midi": 64,
      "hit": false,
      "t": 112265.625,
      "d": 78.125,
      "v": 102
    },
    {
      "midi": 71,
      "hit": false,
      "t": 112265.625,
      "d": 95.21484375,
      "v": 102
    },
    {
      "midi": 68,
      "hit": false,
      "t": 112265.625,
      "d": 122.0703125,
      "v": 107
    },
    {
      "midi": 56,
      "hit": false,
      "t": 112265.625,
      "d": 161.1328125,
      "v": 105
    },
    {
      "midi": 56,
      "hit": false,
      "t": 112265.625,
      "d": 161.1328125,
      "v": 123
    },
    {
      "midi": 57,
      "hit": false,
      "t": 112265.625,
      "d": 117.1875,
      "v": 127
    },
    {
      "midi": 30,
      "hit": false,
      "t": 112500,
      "d": 117.1875,
      "v": 127
    },
    {
      "midi": 61,
      "hit": false,
      "t": 112500,
      "d": 1799.31640625,
      "v": 105
    },
    {
      "midi": 54,
      "hit": false,
      "t": 112500,
      "d": 104.98046875,
      "v": 107
    },
    {
      "midi": 54,
      "hit": false,
      "t": 112500,
      "d": 104.98046875,
      "v": 125
    },
    {
      "midi": 57,
      "hit": false,
      "t": 112500,
      "d": 117.1875,
      "v": 127
    },
    {
      "midi": 30,
      "hit": false,
      "t": 112734.375,
      "d": 117.1875,
      "v": 127
    },
    {
      "midi": 73,
      "hit": false,
      "t": 112734.375,
      "d": 124.51171875,
      "v": 78
    },
    {
      "midi": 66,
      "hit": false,
      "t": 112734.375,
      "d": 129.39453125,
      "v": 89
    },
    {
      "midi": 69,
      "hit": false,
      "t": 112734.375,
      "d": 151.3671875,
      "v": 105
    },
    {
      "midi": 54,
      "hit": false,
      "t": 112734.375,
      "d": 227.05078125,
      "v": 110
    },
    {
      "midi": 54,
      "hit": false,
      "t": 112734.375,
      "d": 227.05078125,
      "v": 127
    },
    {
      "midi": 57,
      "hit": false,
      "t": 112734.375,
      "d": 117.1875,
      "v": 127
    },
    {
      "midi": 30,
      "hit": false,
      "t": 112968.75,
      "d": 117.1875,
      "v": 127
    },
    {
      "midi": 57,
      "hit": false,
      "t": 112968.75,
      "d": 229.4921875,
      "v": 110
    },
    {
      "midi": 57,
      "hit": false,
      "t": 112968.75,
      "d": 229.4921875,
      "v": 127
    },
    {
      "midi": 57,
      "hit": false,
      "t": 112968.75,
      "d": 117.1875,
      "v": 127
    },
    {
      "midi": 30,
      "hit": false,
      "t": 113203.125,
      "d": 117.1875,
      "v": 127
    },
    {
      "midi": 69,
      "hit": false,
      "t": 113203.125,
      "d": 85.44921875,
      "v": 98
    },
    {
      "midi": 66,
      "hit": false,
      "t": 113203.125,
      "d": 104.98046875,
      "v": 98
    },
    {
      "midi": 73,
      "hit": false,
      "t": 113203.125,
      "d": 134.27734375,
      "v": 102
    },
    {
      "midi": 54,
      "hit": false,
      "t": 113203.125,
      "d": 217.28515625,
      "v": 107
    },
    {
      "midi": 54,
      "hit": false,
      "t": 113203.125,
      "d": 217.28515625,
      "v": 125
    },
    {
      "midi": 57,
      "hit": false,
      "t": 113203.125,
      "d": 468.75,
      "v": 127
    },
    {
      "midi": 30,
      "hit": false,
      "t": 113437.5,
      "d": 117.1875,
      "v": 127
    },
    {
      "midi": 61,
      "hit": false,
      "t": 113437.5,
      "d": 236.81640625,
      "v": 110
    },
    {
      "midi": 61,
      "hit": false,
      "t": 113437.5,
      "d": 236.81640625,
      "v": 127
    },
    {
      "midi": 30,
      "hit": false,
      "t": 113671.875,
      "d": 117.1875,
      "v": 127
    },
    {
      "midi": 66,
      "hit": false,
      "t": 113671.875,
      "d": 95.21484375,
      "v": 102
    },
    {
      "midi": 69,
      "hit": false,
      "t": 113671.875,
      "d": 97.65625,
      "v": 110
    },
    {
      "midi": 73,
      "hit": false,
      "t": 113671.875,
      "d": 122.0703125,
      "v": 102
    },
    {
      "midi": 54,
      "hit": false,
      "t": 113671.875,
      "d": 212.40234375,
      "v": 107
    },
    {
      "midi": 54,
      "hit": false,
      "t": 113671.875,
      "d": 212.40234375,
      "v": 125
    },
    {
      "midi": 57,
      "hit": false,
      "t": 113671.875,
      "d": 468.75,
      "v": 127
    },
    {
      "midi": 30,
      "hit": false,
      "t": 113906.25,
      "d": 117.1875,
      "v": 127
    },
    {
      "midi": 57,
      "hit": false,
      "t": 113906.25,
      "d": 212.40234375,
      "v": 113
    },
    {
      "midi": 57,
      "hit": false,
      "t": 113906.25,
      "d": 212.40234375,
      "v": 127
    },
    {
      "midi": 30,
      "hit": false,
      "t": 114140.625,
      "d": 117.1875,
      "v": 127
    },
    {
      "midi": 69,
      "hit": false,
      "t": 114140.625,
      "d": 70.80078125,
      "v": 110
    },
    {
      "midi": 66,
      "hit": false,
      "t": 114140.625,
      "d": 78.125,
      "v": 100
    },
    {
      "midi": 73,
      "hit": false,
      "t": 114140.625,
      "d": 92.7734375,
      "v": 110
    },
    {
      "midi": 56,
      "hit": false,
      "t": 114140.625,
      "d": 122.0703125,
      "v": 110
    },
    {
      "midi": 56,
      "hit": false,
      "t": 114140.625,
      "d": 122.0703125,
      "v": 127
    },
    {
      "midi": 57,
      "hit": false,
      "t": 114140.625,
      "d": 117.1875,
      "v": 127
    },
    {
      "midi": 33,
      "hit": false,
      "t": 114375,
      "d": 117.1875,
      "v": 127
    },
    {
      "midi": 64,
      "hit": false,
      "t": 114375,
      "d": 1904.296875,
      "v": 113
    },
    {
      "midi": 57,
      "hit": false,
      "t": 114375,
      "d": 122.0703125,
      "v": 110
    },
    {
      "midi": 57,
      "hit": false,
      "t": 114375,
      "d": 122.0703125,
      "v": 127
    },
    {
      "midi": 57,
      "hit": false,
      "t": 114375,
      "d": 117.1875,
      "v": 127
    },
    {
      "midi": 33,
      "hit": false,
      "t": 114609.375,
      "d": 117.1875,
      "v": 127
    },
    {
      "midi": 69,
      "hit": false,
      "t": 114609.375,
      "d": 92.7734375,
      "v": 98
    },
    {
      "midi": 73,
      "hit": false,
      "t": 114609.375,
      "d": 92.7734375,
      "v": 110
    },
    {
      "midi": 76,
      "hit": false,
      "t": 114609.375,
      "d": 107.421875,
      "v": 95
    },
    {
      "midi": 57,
      "hit": false,
      "t": 114609.375,
      "d": 236.81640625,
      "v": 100
    },
    {
      "midi": 57,
      "hit": false,
      "t": 114609.375,
      "d": 236.81640625,
      "v": 118
    },
    {
      "midi": 57,
      "hit": false,
      "t": 114609.375,
      "d": 117.1875,
      "v": 127
    },
    {
      "midi": 33,
      "hit": false,
      "t": 114843.75,
      "d": 117.1875,
      "v": 127
    },
    {
      "midi": 61,
      "hit": false,
      "t": 114843.75,
      "d": 124.51171875,
      "v": 110
    },
    {
      "midi": 61,
      "hit": false,
      "t": 114843.75,
      "d": 124.51171875,
      "v": 127
    },
    {
      "midi": 57,
      "hit": false,
      "t": 114843.75,
      "d": 117.1875,
      "v": 127
    },
    {
      "midi": 33,
      "hit": false,
      "t": 115078.125,
      "d": 117.1875,
      "v": 127
    },
    {
      "midi": 69,
      "hit": false,
      "t": 115078.125,
      "d": 80.56640625,
      "v": 100
    },
    {
      "midi": 73,
      "hit": false,
      "t": 115078.125,
      "d": 80.56640625,
      "v": 110
    },
    {
      "midi": 76,
      "hit": false,
      "t": 115078.125,
      "d": 92.7734375,
      "v": 100
    },
    {
      "midi": 57,
      "hit": false,
      "t": 115078.125,
      "d": 234.375,
      "v": 107
    },
    {
      "midi": 57,
      "hit": false,
      "t": 115078.125,
      "d": 234.375,
      "v": 125
    },
    {
      "midi": 59,
      "hit": false,
      "t": 115078.125,
      "d": 703.125,
      "v": 127
    },
    {
      "midi": 33,
      "hit": false,
      "t": 115312.5,
      "d": 117.1875,
      "v": 127
    },
    {
      "midi": 64,
      "hit": false,
      "t": 115312.5,
      "d": 229.4921875,
      "v": 107
    },
    {
      "midi": 64,
      "hit": false,
      "t": 115312.5,
      "d": 229.4921875,
      "v": 125
    },
    {
      "midi": 33,
      "hit": false,
      "t": 115546.875,
      "d": 117.1875,
      "v": 127
    },
    {
      "midi": 69,
      "hit": false,
      "t": 115546.875,
      "d": 70.80078125,
      "v": 100
    },
    {
      "midi": 73,
      "hit": false,
      "t": 115546.875,
      "d": 75.68359375,
      "v": 110
    },
    {
      "midi": 76,
      "hit": false,
      "t": 115546.875,
      "d": 75.68359375,
      "v": 100
    },
    {
      "midi": 57,
      "hit": false,
      "t": 115546.875,
      "d": 263.671875,
      "v": 105
    },
    {
      "midi": 57,
      "hit": false,
      "t": 115546.875,
      "d": 263.671875,
      "v": 123
    },
    {
      "midi": 33,
      "hit": false,
      "t": 115781.25,
      "d": 117.1875,
      "v": 127
    },
    {
      "midi": 62,
      "hit": false,
      "t": 115781.25,
      "d": 256.34765625,
      "v": 110
    },
    {
      "midi": 62,
      "hit": false,
      "t": 115781.25,
      "d": 256.34765625,
      "v": 127
    },
    {
      "midi": 61,
      "hit": false,
      "t": 115781.25,
      "d": 317.3828125,
      "v": 127
    },
    {
      "midi": 33,
      "hit": false,
      "t": 116015.625,
      "d": 117.1875,
      "v": 127
    },
    {
      "midi": 69,
      "hit": false,
      "t": 116015.625,
      "d": 78.125,
      "v": 102
    },
    {
      "midi": 76,
      "hit": false,
      "t": 116015.625,
      "d": 83.0078125,
      "v": 102
    },
    {
      "midi": 73,
      "hit": false,
      "t": 116015.625,
      "d": 87.890625,
      "v": 116
    },
    {
      "midi": 61,
      "hit": false,
      "t": 116015.625,
      "d": 153.80859375,
      "v": 105
    },
    {
      "midi": 61,
      "hit": false,
      "t": 116015.625,
      "d": 153.80859375,
      "v": 123
    },
    {
      "midi": 35,
      "hit": false,
      "t": 116250,
      "d": 117.1875,
      "v": 127
    },
    {
      "midi": 66,
      "hit": false,
      "t": 116250,
      "d": 1877.44140625,
      "v": 116
    },
    {
      "midi": 59,
      "hit": false,
      "t": 116250,
      "d": 73.2421875,
      "v": 110
    },
    {
      "midi": 59,
      "hit": false,
      "t": 116250,
      "d": 73.2421875,
      "v": 127
    },
    {
      "midi": 61,
      "hit": false,
      "t": 116250,
      "d": 258.7890625,
      "v": 127
    },
    {
      "midi": 35,
      "hit": false,
      "t": 116484.375,
      "d": 117.1875,
      "v": 127
    },
    {
      "midi": 75,
      "hit": false,
      "t": 116484.375,
      "d": 58.59375,
      "v": 107
    },
    {
      "midi": 78,
      "hit": false,
      "t": 116484.375,
      "d": 58.59375,
      "v": 107
    },
    {
      "midi": 71,
      "hit": false,
      "t": 116484.375,
      "d": 102.5390625,
      "v": 102
    },
    {
      "midi": 59,
      "hit": false,
      "t": 116484.375,
      "d": 231.93359375,
      "v": 113
    },
    {
      "midi": 59,
      "hit": false,
      "t": 116484.375,
      "d": 231.93359375,
      "v": 127
    },
    {
      "midi": 59,
      "hit": false,
      "t": 116484.375,
      "d": 258.7890625,
      "v": 127
    },
    {
      "midi": 35,
      "hit": false,
      "t": 116718.75,
      "d": 117.1875,
      "v": 127
    },
    {
      "midi": 63,
      "hit": false,
      "t": 116718.75,
      "d": 205.078125,
      "v": 122
    },
    {
      "midi": 63,
      "hit": false,
      "t": 116718.75,
      "d": 205.078125,
      "v": 127
    },
    {
      "midi": 35,
      "hit": false,
      "t": 116953.125,
      "d": 117.1875,
      "v": 127
    },
    {
      "midi": 78,
      "hit": false,
      "t": 116953.125,
      "d": 70.80078125,
      "v": 110
    },
    {
      "midi": 75,
      "hit": false,
      "t": 116953.125,
      "d": 78.125,
      "v": 122
    },
    {
      "midi": 71,
      "hit": false,
      "t": 116953.125,
      "d": 109.86328125,
      "v": 107
    },
    {
      "midi": 59,
      "hit": false,
      "t": 116953.125,
      "d": 231.93359375,
      "v": 107
    },
    {
      "midi": 59,
      "hit": false,
      "t": 116953.125,
      "d": 231.93359375,
      "v": 125
    },
    {
      "midi": 59,
      "hit": false,
      "t": 116953.125,
      "d": 1193.84765625,
      "v": 127
    },
    {
      "midi": 35,
      "hit": false,
      "t": 117187.5,
      "d": 117.1875,
      "v": 127
    },
    {
      "midi": 66,
      "hit": false,
      "t": 117187.5,
      "d": 241.69921875,
      "v": 119
    },
    {
      "midi": 66,
      "hit": false,
      "t": 117187.5,
      "d": 241.69921875,
      "v": 127
    },
    {
      "midi": 35,
      "hit": false,
      "t": 117421.875,
      "d": 117.1875,
      "v": 127
    },
    {
      "midi": 78,
      "hit": false,
      "t": 117421.875,
      "d": 43.9453125,
      "v": 105
    },
    {
      "midi": 75,
      "hit": false,
      "t": 117421.875,
      "d": 48.828125,
      "v": 116
    },
    {
      "midi": 71,
      "hit": false,
      "t": 117421.875,
      "d": 85.44921875,
      "v": 113
    },
    {
      "midi": 59,
      "hit": false,
      "t": 117421.875,
      "d": 217.28515625,
      "v": 107
    },
    {
      "midi": 59,
      "hit": false,
      "t": 117421.875,
      "d": 217.28515625,
      "v": 125
    },
    {
      "midi": 35,
      "hit": false,
      "t": 117656.25,
      "d": 117.1875,
      "v": 127
    },
    {
      "midi": 64,
      "hit": false,
      "t": 117656.25,
      "d": 266.11328125,
      "v": 113
    },
    {
      "midi": 64,
      "hit": false,
      "t": 117656.25,
      "d": 266.11328125,
      "v": 127
    },
    {
      "midi": 35,
      "hit": false,
      "t": 117890.625,
      "d": 117.1875,
      "v": 127
    },
    {
      "midi": 78,
      "hit": false,
      "t": 117890.625,
      "d": 46.38671875,
      "v": 113
    },
    {
      "midi": 75,
      "hit": false,
      "t": 117890.625,
      "d": 56.15234375,
      "v": 127
    },
    {
      "midi": 71,
      "hit": false,
      "t": 117890.625,
      "d": 73.2421875,
      "v": 110
    },
    {
      "midi": 63,
      "hit": false,
      "t": 117890.625,
      "d": 224.609375,
      "v": 107
    },
    {
      "midi": 63,
      "hit": false,
      "t": 117890.625,
      "d": 224.609375,
      "v": 125
    },
    {
      "midi": 35,
      "hit": false,
      "t": 118125,
      "d": 117.1875,
      "v": 127
    },
    {
      "midi": 71,
      "hit": false,
      "t": 118125,
      "d": 1867.67578125,
      "v": 107
    },
    {
      "midi": 59,
      "hit": false,
      "t": 118125,
      "d": 97.65625,
      "v": 113
    },
    {
      "midi": 59,
      "hit": false,
      "t": 118125,
      "d": 97.65625,
      "v": 127
    },
    {
      "midi": 35,
      "hit": false,
      "t": 118359.375,
      "d": 117.1875,
      "v": 127
    },
    {
      "midi": 78,
      "hit": false,
      "t": 118359.375,
      "d": 43.9453125,
      "v": 107
    },
    {
      "midi": 75,
      "hit": false,
      "t": 118359.375,
      "d": 56.15234375,
      "v": 122
    },
    {
      "midi": 71,
      "hit": false,
      "t": 118359.375,
      "d": 92.7734375,
      "v": 105
    },
    {
      "midi": 59,
      "hit": false,
      "t": 118359.375,
      "d": 192.87109375,
      "v": 110
    },
    {
      "midi": 59,
      "hit": false,
      "t": 118359.375,
      "d": 192.87109375,
      "v": 127
    },
    {
      "midi": 35,
      "hit": false,
      "t": 118593.75,
      "d": 117.1875,
      "v": 127
    },
    {
      "midi": 63,
      "hit": false,
      "t": 118593.75,
      "d": 200.1953125,
      "v": 119
    },
    {
      "midi": 63,
      "hit": false,
      "t": 118593.75,
      "d": 200.1953125,
      "v": 127
    },
    {
      "midi": 35,
      "hit": false,
      "t": 118828.125,
      "d": 117.1875,
      "v": 127
    },
    {
      "midi": 78,
      "hit": false,
      "t": 118828.125,
      "d": 43.9453125,
      "v": 107
    },
    {
      "midi": 75,
      "hit": false,
      "t": 118828.125,
      "d": 53.7109375,
      "v": 127
    },
    {
      "midi": 71,
      "hit": false,
      "t": 118828.125,
      "d": 78.125,
      "v": 107
    },
    {
      "midi": 59,
      "hit": false,
      "t": 118828.125,
      "d": 168.45703125,
      "v": 105
    },
    {
      "midi": 59,
      "hit": false,
      "t": 118828.125,
      "d": 168.45703125,
      "v": 123
    },
    {
      "midi": 35,
      "hit": false,
      "t": 119062.5,
      "d": 117.1875,
      "v": 127
    },
    {
      "midi": 66,
      "hit": false,
      "t": 119062.5,
      "d": 227.05078125,
      "v": 110
    },
    {
      "midi": 66,
      "hit": false,
      "t": 119062.5,
      "d": 227.05078125,
      "v": 127
    },
    {
      "midi": 59,
      "hit": false,
      "t": 119062.5,
      "d": 229.4921875,
      "v": 122
    },
    {
      "midi": 56,
      "hit": false,
      "t": 119062.5,
      "d": 251.46484375,
      "v": 125
    },
    {
      "midi": 35,
      "hit": false,
      "t": 119296.875,
      "d": 117.1875,
      "v": 127
    },
    {
      "midi": 78,
      "hit": false,
      "t": 119296.875,
      "d": 34.1796875,
      "v": 102
    },
    {
      "midi": 75,
      "hit": false,
      "t": 119296.875,
      "d": 43.9453125,
      "v": 122
    },
    {
      "midi": 71,
      "hit": false,
      "t": 119296.875,
      "d": 68.359375,
      "v": 110
    },
    {
      "midi": 59,
      "hit": false,
      "t": 119296.875,
      "d": 195.3125,
      "v": 105
    },
    {
      "midi": 59,
      "hit": false,
      "t": 119296.875,
      "d": 195.3125,
      "v": 123
    },
    {
      "midi": 57,
      "hit": false,
      "t": 119296.875,
      "d": 222.16796875,
      "v": 120
    },
    {
      "midi": 64,
      "hit": false,
      "t": 119296.875,
      "d": 273.4375,
      "v": 107
    },
    {
      "midi": 35,
      "hit": false,
      "t": 119531.25,
      "d": 117.1875,
      "v": 127
    },
    {
      "midi": 64,
      "hit": false,
      "t": 119531.25,
      "d": 280.76171875,
      "v": 107
    },
    {
      "midi": 64,
      "hit": false,
      "t": 119531.25,
      "d": 280.76171875,
      "v": 125
    },
    {
      "midi": 66,
      "hit": false,
      "t": 119531.25,
      "d": 156.25,
      "v": 110
    },
    {
      "midi": 59,
      "hit": false,
      "t": 119531.25,
      "d": 207.51953125,
      "v": 122
    },
    {
      "midi": 35,
      "hit": false,
      "t": 119765.625,
      "d": 117.1875,
      "v": 127
    },
    {
      "midi": 78,
      "hit": false,
      "t": 119765.625,
      "d": 39.0625,
      "v": 110
    },
    {
      "midi": 75,
      "hit": false,
      "t": 119765.625,
      "d": 48.828125,
      "v": 127
    },
    {
      "midi": 71,
      "hit": false,
      "t": 119765.625,
      "d": 65.91796875,
      "v": 107
    },
    {
      "midi": 63,
      "hit": false,
      "t": 119765.625,
      "d": 161.1328125,
      "v": 107
    },
    {
      "midi": 63,
      "hit": false,
      "t": 119765.625,
      "d": 161.1328125,
      "v": 125
    },
    {
      "midi": 64,
      "hit": false,
      "t": 119765.625,
      "d": 852.05078125,
      "v": 127
    },
    {
      "midi": 68,
      "hit": false,
      "t": 119765.625,
      "d": 1169.43359375,
      "v": 107
    },
    {
      "midi": 28,
      "hit": false,
      "t": 120000,
      "d": 234.375,
      "v": 127
    },
    {
      "midi": 76,
      "hit": false,
      "t": 120000,
      "d": 5307.6171875,
      "v": 57
    },
    {
      "midi": 71,
      "hit": false,
      "t": 120000,
      "d": 5371.09375,
      "v": 55
    },
    {
      "midi": 52,
      "hit": false,
      "t": 120000,
      "d": 58.59375,
      "v": 113
    },
    {
      "midi": 52,
      "hit": false,
      "t": 120000,
      "d": 58.59375,
      "v": 127
    },
    {
      "midi": 64,
      "hit": false,
      "t": 120017.08984375,
      "d": 5449.21875,
      "v": 100
    },
    {
      "midi": 71,
      "hit": false,
      "t": 120021.97265625,
      "d": 5373.53515625,
      "v": 93
    },
    {
      "midi": 68,
      "hit": false,
      "t": 120024.4140625,
      "d": 5437.01171875,
      "v": 100
    },
    {
      "midi": 68,
      "hit": false,
      "t": 120117.1875,
      "d": 5361.328125,
      "v": 55
    },
    {
      "midi": 40,
      "hit": false,
      "t": 120234.375,
      "d": 234.375,
      "v": 127
    },
    {
      "midi": 52,
      "hit": false,
      "t": 120234.375,
      "d": 53.7109375,
      "v": 102
    },
    {
      "midi": 52,
      "hit": false,
      "t": 120234.375,
      "d": 53.7109375,
      "v": 120
    },
    {
      "midi": 76,
      "hit": false,
      "t": 120234.375,
      "d": 39.0625,
      "v": 127
    },
    {
      "midi": 71,
      "hit": false,
      "t": 120234.375,
      "d": 34.1796875,
      "v": 119
    },
    {
      "midi": 52,
      "hit": false,
      "t": 120351.5625,
      "d": 70.80078125,
      "v": 105
    },
    {
      "midi": 52,
      "hit": false,
      "t": 120351.5625,
      "d": 70.80078125,
      "v": 123
    },
    {
      "midi": 76,
      "hit": false,
      "t": 120351.5625,
      "d": 41.50390625,
      "v": 127
    },
    {
      "midi": 71,
      "hit": false,
      "t": 120351.5625,
      "d": 61.03515625,
      "v": 105
    },
    {
      "midi": 28,
      "hit": false,
      "t": 120468.75,
      "d": 234.375,
      "v": 127
    },
    {
      "midi": 52,
      "hit": false,
      "t": 120468.75,
      "d": 58.59375,
      "v": 113
    },
    {
      "midi": 52,
      "hit": false,
      "t": 120468.75,
      "d": 58.59375,
      "v": 127
    },
    {
      "midi": 76,
      "hit": false,
      "t": 120468.75,
      "d": 41.50390625,
      "v": 127
    },
    {
      "midi": 73,
      "hit": false,
      "t": 120468.75,
      "d": 26.85546875,
      "v": 113
    },
    {
      "midi": 76,
      "hit": false,
      "t": 120585.9375,
      "d": 61.03515625,
      "v": 127
    },
    {
      "midi": 73,
      "hit": false,
      "t": 120585.9375,
      "d": 51.26953125,
      "v": 110
    },
    {
      "midi": 40,
      "hit": false,
      "t": 120703.125,
      "d": 234.375,
      "v": 127
    },
    {
      "midi": 52,
      "hit": false,
      "t": 120703.125,
      "d": 53.7109375,
      "v": 102
    },
    {
      "midi": 52,
      "hit": false,
      "t": 120703.125,
      "d": 53.7109375,
      "v": 120
    },
    {
      "midi": 76,
      "hit": false,
      "t": 120703.125,
      "d": 61.03515625,
      "v": 127
    },
    {
      "midi": 72,
      "hit": false,
      "t": 120703.125,
      "d": 24.4140625,
      "v": 107
    },
    {
      "midi": 71,
      "hit": false,
      "t": 120703.125,
      "d": 36.62109375,
      "v": 107
    },
    {
      "midi": 52,
      "hit": false,
      "t": 120820.3125,
      "d": 46.38671875,
      "v": 105
    },
    {
      "midi": 52,
      "hit": false,
      "t": 120820.3125,
      "d": 46.38671875,
      "v": 123
    },
    {
      "midi": 71,
      "hit": false,
      "t": 120820.3125,
      "d": 78.125,
      "v": 107
    },
    {
      "midi": 28,
      "hit": false,
      "t": 120937.5,
      "d": 234.375,
      "v": 127
    },
    {
      "midi": 52,
      "hit": false,
      "t": 120937.5,
      "d": 58.59375,
      "v": 116
    },
    {
      "midi": 52,
      "hit": false,
      "t": 120937.5,
      "d": 58.59375,
      "v": 127
    },
    {
      "midi": 59,
      "hit": false,
      "t": 120937.5,
      "d": 229.4921875,
      "v": 107
    },
    {
      "midi": 56,
      "hit": false,
      "t": 120937.5,
      "d": 275.87890625,
      "v": 120
    },
    {
      "midi": 40,
      "hit": false,
      "t": 121171.875,
      "d": 234.375,
      "v": 127
    },
    {
      "midi": 52,
      "hit": false,
      "t": 121171.875,
      "d": 51.26953125,
      "v": 105
    },
    {
      "midi": 52,
      "hit": false,
      "t": 121171.875,
      "d": 51.26953125,
      "v": 123
    },
    {
      "midi": 76,
      "hit": false,
      "t": 121171.875,
      "d": 41.50390625,
      "v": 127
    },
    {
      "midi": 71,
      "hit": false,
      "t": 121171.875,
      "d": 48.828125,
      "v": 127
    },
    {
      "midi": 57,
      "hit": false,
      "t": 121171.875,
      "d": 229.4921875,
      "v": 107
    },
    {
      "midi": 64,
      "hit": false,
      "t": 121171.875,
      "d": 268.5546875,
      "v": 102
    },
    {
      "midi": 52,
      "hit": false,
      "t": 121289.0625,
      "d": 63.4765625,
      "v": 110
    },
    {
      "midi": 52,
      "hit": false,
      "t": 121289.0625,
      "d": 63.4765625,
      "v": 127
    },
    {
      "midi": 76,
      "hit": false,
      "t": 121289.0625,
      "d": 39.0625,
      "v": 127
    },
    {
      "midi": 71,
      "hit": false,
      "t": 121289.0625,
      "d": 63.4765625,
      "v": 110
    },
    {
      "midi": 28,
      "hit": false,
      "t": 121406.25,
      "d": 234.375,
      "v": 127
    },
    {
      "midi": 52,
      "hit": false,
      "t": 121406.25,
      "d": 48.828125,
      "v": 110
    },
    {
      "midi": 52,
      "hit": false,
      "t": 121406.25,
      "d": 48.828125,
      "v": 127
    },
    {
      "midi": 76,
      "hit": false,
      "t": 121406.25,
      "d": 31.73828125,
      "v": 127
    },
    {
      "midi": 73,
      "hit": false,
      "t": 121406.25,
      "d": 36.62109375,
      "v": 116
    },
    {
      "midi": 66,
      "hit": false,
      "t": 121406.25,
      "d": 129.39453125,
      "v": 110
    },
    {
      "midi": 59,
      "hit": false,
      "t": 121406.25,
      "d": 249.0234375,
      "v": 100
    },
    {
      "midi": 76,
      "hit": false,
      "t": 121523.4375,
      "d": 46.38671875,
      "v": 127
    },
    {
      "midi": 73,
      "hit": false,
      "t": 121523.4375,
      "d": 39.0625,
      "v": 105
    },
    {
      "midi": 40,
      "hit": false,
      "t": 121640.625,
      "d": 234.375,
      "v": 127
    },
    {
      "midi": 52,
      "hit": false,
      "t": 121640.625,
      "d": 53.7109375,
      "v": 100
    },
    {
      "midi": 52,
      "hit": false,
      "t": 121640.625,
      "d": 53.7109375,
      "v": 118
    },
    {
      "midi": 76,
      "hit": false,
      "t": 121640.625,
      "d": 65.91796875,
      "v": 127
    },
    {
      "midi": 71,
      "hit": false,
      "t": 121640.625,
      "d": 46.38671875,
      "v": 122
    },
    {
      "midi": 64,
      "hit": false,
      "t": 121640.625,
      "d": 632.32421875,
      "v": 127
    },
    {
      "midi": 68,
      "hit": false,
      "t": 121640.625,
      "d": 1135.25390625,
      "v": 105
    },
    {
      "midi": 52,
      "hit": false,
      "t": 121757.8125,
      "d": 68.359375,
      "v": 110
    },
    {
      "midi": 52,
      "hit": false,
      "t": 121757.8125,
      "d": 68.359375,
      "v": 127
    },
    {
      "midi": 71,
      "hit": false,
      "t": 121757.8125,
      "d": 85.44921875,
      "v": 107
    },
    {
      "midi": 28,
      "hit": false,
      "t": 121875,
      "d": 234.375,
      "v": 127
    },
    {
      "midi": 52,
      "hit": false,
      "t": 121875,
      "d": 53.7109375,
      "v": 116
    },
    {
      "midi": 52,
      "hit": false,
      "t": 121875,
      "d": 53.7109375,
      "v": 127
    },
    {
      "midi": 40,
      "hit": false,
      "t": 122109.375,
      "d": 234.375,
      "v": 127
    },
    {
      "midi": 52,
      "hit": false,
      "t": 122109.375,
      "d": 46.38671875,
      "v": 102
    },
    {
      "midi": 52,
      "hit": false,
      "t": 122109.375,
      "d": 46.38671875,
      "v": 120
    },
    {
      "midi": 76,
      "hit": false,
      "t": 122109.375,
      "d": 41.50390625,
      "v": 127
    },
    {
      "midi": 71,
      "hit": false,
      "t": 122109.375,
      "d": 34.1796875,
      "v": 119
    },
    {
      "midi": 52,
      "hit": false,
      "t": 122226.5625,
      "d": 78.125,
      "v": 105
    },
    {
      "midi": 52,
      "hit": false,
      "t": 122226.5625,
      "d": 78.125,
      "v": 123
    },
    {
      "midi": 76,
      "hit": false,
      "t": 122226.5625,
      "d": 43.9453125,
      "v": 127
    },
    {
      "midi": 71,
      "hit": false,
      "t": 122226.5625,
      "d": 61.03515625,
      "v": 105
    },
    {
      "midi": 28,
      "hit": false,
      "t": 122343.75,
      "d": 234.375,
      "v": 127
    },
    {
      "midi": 52,
      "hit": false,
      "t": 122343.75,
      "d": 61.03515625,
      "v": 113
    },
    {
      "midi": 52,
      "hit": false,
      "t": 122343.75,
      "d": 61.03515625,
      "v": 127
    },
    {
      "midi": 76,
      "hit": false,
      "t": 122343.75,
      "d": 43.9453125,
      "v": 127
    },
    {
      "midi": 73,
      "hit": false,
      "t": 122343.75,
      "d": 26.85546875,
      "v": 113
    },
    {
      "midi": 76,
      "hit": false,
      "t": 122460.9375,
      "d": 68.359375,
      "v": 127
    },
    {
      "midi": 73,
      "hit": false,
      "t": 122460.9375,
      "d": 51.26953125,
      "v": 110
    },
    {
      "midi": 40,
      "hit": false,
      "t": 122578.125,
      "d": 234.375,
      "v": 127
    },
    {
      "midi": 52,
      "hit": false,
      "t": 122578.125,
      "d": 61.03515625,
      "v": 107
    },
    {
      "midi": 52,
      "hit": false,
      "t": 122578.125,
      "d": 61.03515625,
      "v": 125
    },
    {
      "midi": 76,
      "hit": false,
      "t": 122578.125,
      "d": 68.359375,
      "v": 127
    },
    {
      "midi": 72,
      "hit": false,
      "t": 122578.125,
      "d": 24.4140625,
      "v": 107
    },
    {
      "midi": 71,
      "hit": false,
      "t": 122578.125,
      "d": 36.62109375,
      "v": 107
    },
    {
      "midi": 52,
      "hit": false,
      "t": 122695.3125,
      "d": 70.80078125,
      "v": 102
    },
    {
      "midi": 52,
      "hit": false,
      "t": 122695.3125,
      "d": 70.80078125,
      "v": 120
    },
    {
      "midi": 71,
      "hit": false,
      "t": 122695.3125,
      "d": 78.125,
      "v": 107
    },
    {
      "midi": 28,
      "hit": false,
      "t": 122812.5,
      "d": 234.375,
      "v": 127
    },
    {
      "midi": 52,
      "hit": false,
      "t": 122812.5,
      "d": 56.15234375,
      "v": 113
    },
    {
      "midi": 52,
      "hit": false,
      "t": 122812.5,
      "d": 56.15234375,
      "v": 127
    },
    {
      "midi": 59,
      "hit": false,
      "t": 122812.5,
      "d": 234.375,
      "v": 110
    },
    {
      "midi": 56,
      "hit": false,
      "t": 122812.5,
      "d": 256.34765625,
      "v": 122
    },
    {
      "midi": 40,
      "hit": false,
      "t": 123046.875,
      "d": 234.375,
      "v": 127
    },
    {
      "midi": 52,
      "hit": false,
      "t": 123046.875,
      "d": 56.15234375,
      "v": 102
    },
    {
      "midi": 52,
      "hit": false,
      "t": 123046.875,
      "d": 56.15234375,
      "v": 120
    },
    {
      "midi": 76,
      "hit": false,
      "t": 123046.875,
      "d": 36.62109375,
      "v": 127
    },
    {
      "midi": 71,
      "hit": false,
      "t": 123046.875,
      "d": 48.828125,
      "v": 127
    },
    {
      "midi": 57,
      "hit": false,
      "t": 123046.875,
      "d": 234.375,
      "v": 118
    },
    {
      "midi": 64,
      "hit": false,
      "t": 123046.875,
      "d": 317.3828125,
      "v": 102
    },
    {
      "midi": 52,
      "hit": false,
      "t": 123164.0625,
      "d": 43.9453125,
      "v": 110
    },
    {
      "midi": 52,
      "hit": false,
      "t": 123164.0625,
      "d": 43.9453125,
      "v": 127
    },
    {
      "midi": 76,
      "hit": false,
      "t": 123164.0625,
      "d": 39.0625,
      "v": 127
    },
    {
      "midi": 71,
      "hit": false,
      "t": 123164.0625,
      "d": 63.4765625,
      "v": 110
    },
    {
      "midi": 28,
      "hit": false,
      "t": 123281.25,
      "d": 234.375,
      "v": 127
    },
    {
      "midi": 52,
      "hit": false,
      "t": 123281.25,
      "d": 53.7109375,
      "v": 113
    },
    {
      "midi": 52,
      "hit": false,
      "t": 123281.25,
      "d": 53.7109375,
      "v": 127
    },
    {
      "midi": 76,
      "hit": false,
      "t": 123281.25,
      "d": 39.0625,
      "v": 127
    },
    {
      "midi": 73,
      "hit": false,
      "t": 123281.25,
      "d": 36.62109375,
      "v": 116
    },
    {
      "midi": 66,
      "hit": false,
      "t": 123281.25,
      "d": 205.078125,
      "v": 105
    },
    {
      "midi": 59,
      "hit": false,
      "t": 123281.25,
      "d": 290.52734375,
      "v": 88
    },
    {
      "midi": 76,
      "hit": false,
      "t": 123398.4375,
      "d": 63.4765625,
      "v": 127
    },
    {
      "midi": 73,
      "hit": false,
      "t": 123398.4375,
      "d": 39.0625,
      "v": 105
    },
    {
      "midi": 40,
      "hit": false,
      "t": 123515.625,
      "d": 234.375,
      "v": 127
    },
    {
      "midi": 52,
      "hit": false,
      "t": 123515.625,
      "d": 56.15234375,
      "v": 105
    },
    {
      "midi": 52,
      "hit": false,
      "t": 123515.625,
      "d": 56.15234375,
      "v": 123
    },
    {
      "midi": 76,
      "hit": false,
      "t": 123515.625,
      "d": 75.68359375,
      "v": 127
    },
    {
      "midi": 71,
      "hit": false,
      "t": 123515.625,
      "d": 46.38671875,
      "v": 122
    },
    {
      "midi": 64,
      "hit": false,
      "t": 123515.625,
      "d": 317.3828125,
      "v": 127
    },
    {
      "midi": 68,
      "hit": false,
      "t": 123515.625,
      "d": 354.00390625,
      "v": 102
    },
    {
      "midi": 52,
      "hit": false,
      "t": 123632.8125,
      "d": 39.0625,
      "v": 110
    },
    {
      "midi": 52,
      "hit": false,
      "t": 123632.8125,
      "d": 39.0625,
      "v": 127
    },
    {
      "midi": 71,
      "hit": false,
      "t": 123632.8125,
      "d": 85.44921875,
      "v": 107
    },
    {
      "midi": 28,
      "hit": false,
      "t": 123750,
      "d": 234.375,
      "v": 127
    },
    {
      "midi": 52,
      "hit": false,
      "t": 123750,
      "d": 58.59375,
      "v": 110
    },
    {
      "midi": 52,
      "hit": false,
      "t": 123750,
      "d": 58.59375,
      "v": 127
    },
    {
      "midi": 40,
      "hit": false,
      "t": 123984.375,
      "d": 234.375,
      "v": 127
    },
    {
      "midi": 52,
      "hit": false,
      "t": 123984.375,
      "d": 53.7109375,
      "v": 105
    },
    {
      "midi": 52,
      "hit": false,
      "t": 123984.375,
      "d": 53.7109375,
      "v": 123
    },
    {
      "midi": 76,
      "hit": false,
      "t": 123984.375,
      "d": 46.38671875,
      "v": 127
    },
    {
      "midi": 71,
      "hit": false,
      "t": 123984.375,
      "d": 34.1796875,
      "v": 119
    },
    {
      "midi": 64,
      "hit": false,
      "t": 123984.375,
      "d": 78.125,
      "v": 125
    },
    {
      "midi": 68,
      "hit": false,
      "t": 123984.375,
      "d": 122.0703125,
      "v": 105
    },
    {
      "midi": 52,
      "hit": false,
      "t": 124101.5625,
      "d": 87.890625,
      "v": 107
    },
    {
      "midi": 52,
      "hit": false,
      "t": 124101.5625,
      "d": 87.890625,
      "v": 125
    },
    {
      "midi": 76,
      "hit": false,
      "t": 124101.5625,
      "d": 41.50390625,
      "v": 127
    },
    {
      "midi": 71,
      "hit": false,
      "t": 124101.5625,
      "d": 61.03515625,
      "v": 105
    },
    {
      "midi": 28,
      "hit": false,
      "t": 124218.75,
      "d": 234.375,
      "v": 127
    },
    {
      "midi": 52,
      "hit": false,
      "t": 124218.75,
      "d": 61.03515625,
      "v": 107
    },
    {
      "midi": 52,
      "hit": false,
      "t": 124218.75,
      "d": 61.03515625,
      "v": 125
    },
    {
      "midi": 76,
      "hit": false,
      "t": 124218.75,
      "d": 48.828125,
      "v": 127
    },
    {
      "midi": 73,
      "hit": false,
      "t": 124218.75,
      "d": 26.85546875,
      "v": 113
    },
    {
      "midi": 68,
      "hit": false,
      "t": 124218.75,
      "d": 90.33203125,
      "v": 102
    },
    {
      "midi": 64,
      "hit": false,
      "t": 124218.75,
      "d": 97.65625,
      "v": 127
    },
    {
      "midi": 76,
      "hit": false,
      "t": 124335.9375,
      "d": 70.80078125,
      "v": 127
    },
    {
      "midi": 73,
      "hit": false,
      "t": 124335.9375,
      "d": 51.26953125,
      "v": 110
    },
    {
      "midi": 40,
      "hit": false,
      "t": 124453.125,
      "d": 234.375,
      "v": 127
    },
    {
      "midi": 52,
      "hit": false,
      "t": 124453.125,
      "d": 56.15234375,
      "v": 105
    },
    {
      "midi": 52,
      "hit": false,
      "t": 124453.125,
      "d": 56.15234375,
      "v": 123
    },
    {
      "midi": 76,
      "hit": false,
      "t": 124453.125,
      "d": 78.125,
      "v": 127
    },
    {
      "midi": 72,
      "hit": false,
      "t": 124453.125,
      "d": 24.4140625,
      "v": 107
    },
    {
      "midi": 71,
      "hit": false,
      "t": 124453.125,
      "d": 36.62109375,
      "v": 107
    },
    {
      "midi": 68,
      "hit": false,
      "t": 124453.125,
      "d": 451.66015625,
      "v": 105
    },
    {
      "midi": 64,
      "hit": false,
      "t": 124453.125,
      "d": 476.07421875,
      "v": 127
    },
    {
      "midi": 52,
      "hit": false,
      "t": 124570.3125,
      "d": 48.828125,
      "v": 110
    },
    {
      "midi": 52,
      "hit": false,
      "t": 124570.3125,
      "d": 48.828125,
      "v": 127
    },
    {
      "midi": 71,
      "hit": false,
      "t": 124570.3125,
      "d": 78.125,
      "v": 107
    },
    {
      "midi": 28,
      "hit": false,
      "t": 124687.5,
      "d": 234.375,
      "v": 127
    },
    {
      "midi": 52,
      "hit": false,
      "t": 124687.5,
      "d": 58.59375,
      "v": 113
    },
    {
      "midi": 52,
      "hit": false,
      "t": 124687.5,
      "d": 58.59375,
      "v": 127
    },
    {
      "midi": 40,
      "hit": false,
      "t": 124921.875,
      "d": 234.375,
      "v": 127
    },
    {
      "midi": 52,
      "hit": false,
      "t": 124921.875,
      "d": 58.59375,
      "v": 105
    },
    {
      "midi": 52,
      "hit": false,
      "t": 124921.875,
      "d": 58.59375,
      "v": 123
    },
    {
      "midi": 76,
      "hit": false,
      "t": 124921.875,
      "d": 43.9453125,
      "v": 127
    },
    {
      "midi": 71,
      "hit": false,
      "t": 124921.875,
      "d": 48.828125,
      "v": 127
    },
    {
      "midi": 66,
      "hit": false,
      "t": 124921.875,
      "d": 190.4296875,
      "v": 110
    },
    {
      "midi": 63,
      "hit": false,
      "t": 124921.875,
      "d": 212.40234375,
      "v": 125
    },
    {
      "midi": 52,
      "hit": false,
      "t": 125039.0625,
      "d": 41.50390625,
      "v": 113
    },
    {
      "midi": 52,
      "hit": false,
      "t": 125039.0625,
      "d": 41.50390625,
      "v": 127
    },
    {
      "midi": 76,
      "hit": false,
      "t": 125039.0625,
      "d": 36.62109375,
      "v": 127
    },
    {
      "midi": 71,
      "hit": false,
      "t": 125039.0625,
      "d": 63.4765625,
      "v": 110
    },
    {
      "midi": 28,
      "hit": false,
      "t": 125156.25,
      "d": 234.375,
      "v": 127
    },
    {
      "midi": 52,
      "hit": false,
      "t": 125156.25,
      "d": 61.03515625,
      "v": 116
    },
    {
      "midi": 52,
      "hit": false,
      "t": 125156.25,
      "d": 61.03515625,
      "v": 127
    },
    {
      "midi": 76,
      "hit": false,
      "t": 125156.25,
      "d": 51.26953125,
      "v": 127
    },
    {
      "midi": 73,
      "hit": false,
      "t": 125156.25,
      "d": 36.62109375,
      "v": 116
    },
    {
      "midi": 64,
      "hit": false,
      "t": 125156.25,
      "d": 200.1953125,
      "v": 89
    },
    {
      "midi": 59,
      "hit": false,
      "t": 125156.25,
      "d": 212.40234375,
      "v": 127
    },
    {
      "midi": 76,
      "hit": false,
      "t": 125273.4375,
      "d": 43.9453125,
      "v": 127
    },
    {
      "midi": 73,
      "hit": false,
      "t": 125273.4375,
      "d": 39.0625,
      "v": 105
    },
    {
      "midi": 40,
      "hit": false,
      "t": 125390.625,
      "d": 234.375,
      "v": 127
    },
    {
      "midi": 52,
      "hit": false,
      "t": 125390.625,
      "d": 53.7109375,
      "v": 107
    },
    {
      "midi": 52,
      "hit": false,
      "t": 125390.625,
      "d": 53.7109375,
      "v": 125
    },
    {
      "midi": 76,
      "hit": false,
      "t": 125390.625,
      "d": 95.21484375,
      "v": 127
    },
    {
      "midi": 71,
      "hit": false,
      "t": 125390.625,
      "d": 46.38671875,
      "v": 122
    },
    {
      "midi": 57,
      "hit": false,
      "t": 125390.625,
      "d": 964.35546875,
      "v": 127
    },
    {
      "midi": 66,
      "hit": false,
      "t": 125390.625,
      "d": 1125.48828125,
      "v": 113
    },
    {
      "midi": 52,
      "hit": false,
      "t": 125507.8125,
      "d": 68.359375,
      "v": 107
    },
    {
      "midi": 52,
      "hit": false,
      "t": 125507.8125,
      "d": 68.359375,
      "v": 125
    },
    {
      "midi": 71,
      "hit": false,
      "t": 125507.8125,
      "d": 85.44921875,
      "v": 107
    },
    {
      "midi": 35,
      "hit": false,
      "t": 125625,
      "d": 234.375,
      "v": 127
    },
    {
      "midi": 78,
      "hit": false,
      "t": 125625,
      "d": 7236.328125,
      "v": 50
    },
    {
      "midi": 75,
      "hit": false,
      "t": 125625,
      "d": 7268.06640625,
      "v": 57
    },
    {
      "midi": 71,
      "hit": false,
      "t": 125625,
      "d": 7275.390625,
      "v": 43
    },
    {
      "midi": 47,
      "hit": false,
      "t": 125625,
      "d": 43.9453125,
      "v": 116
    },
    {
      "midi": 47,
      "hit": false,
      "t": 125625,
      "d": 43.9453125,
      "v": 127
    },
    {
      "midi": 63,
      "hit": false,
      "t": 125627.44140625,
      "d": 7292.48046875,
      "v": 110
    },
    {
      "midi": 66,
      "hit": false,
      "t": 125629.8828125,
      "d": 7299.8046875,
      "v": 100
    },
    {
      "midi": 59,
      "hit": false,
      "t": 125639.6484375,
      "d": 7236.328125,
      "v": 78
    },
    {
      "midi": 47,
      "hit": false,
      "t": 125859.375,
      "d": 234.375,
      "v": 127
    },
    {
      "midi": 47,
      "hit": false,
      "t": 125859.375,
      "d": 34.1796875,
      "v": 102
    },
    {
      "midi": 47,
      "hit": false,
      "t": 125859.375,
      "d": 34.1796875,
      "v": 120
    },
    {
      "midi": 71,
      "hit": false,
      "t": 125859.375,
      "d": 43.9453125,
      "v": 127
    },
    {
      "midi": 71,
      "hit": false,
      "t": 125859.375,
      "d": 34.1796875,
      "v": 119
    },
    {
      "midi": 47,
      "hit": false,
      "t": 125976.5625,
      "d": 78.125,
      "v": 107
    },
    {
      "midi": 47,
      "hit": false,
      "t": 125976.5625,
      "d": 78.125,
      "v": 125
    },
    {
      "midi": 71,
      "hit": false,
      "t": 125976.5625,
      "d": 48.828125,
      "v": 127
    },
    {
      "midi": 71,
      "hit": false,
      "t": 125976.5625,
      "d": 61.03515625,
      "v": 105
    },
    {
      "midi": 35,
      "hit": false,
      "t": 126093.75,
      "d": 234.375,
      "v": 127
    },
    {
      "midi": 47,
      "hit": false,
      "t": 126093.75,
      "d": 46.38671875,
      "v": 107
    },
    {
      "midi": 47,
      "hit": false,
      "t": 126093.75,
      "d": 46.38671875,
      "v": 125
    },
    {
      "midi": 71,
      "hit": false,
      "t": 126093.75,
      "d": 53.7109375,
      "v": 127
    },
    {
      "midi": 73,
      "hit": false,
      "t": 126093.75,
      "d": 26.85546875,
      "v": 113
    },
    {
      "midi": 71,
      "hit": false,
      "t": 126210.9375,
      "d": 63.4765625,
      "v": 127
    },
    {
      "midi": 73,
      "hit": false,
      "t": 126210.9375,
      "d": 51.26953125,
      "v": 110
    },
    {
      "midi": 47,
      "hit": false,
      "t": 126328.125,
      "d": 234.375,
      "v": 127
    },
    {
      "midi": 47,
      "hit": false,
      "t": 126328.125,
      "d": 51.26953125,
      "v": 110
    },
    {
      "midi": 47,
      "hit": false,
      "t": 126328.125,
      "d": 51.26953125,
      "v": 127
    },
    {
      "midi": 71,
      "hit": false,
      "t": 126328.125,
      "d": 73.2421875,
      "v": 127
    },
    {
      "midi": 72,
      "hit": false,
      "t": 126328.125,
      "d": 24.4140625,
      "v": 107
    },
    {
      "midi": 71,
      "hit": false,
      "t": 126328.125,
      "d": 36.62109375,
      "v": 107
    },
    {
      "midi": 47,
      "hit": false,
      "t": 126445.3125,
      "d": 56.15234375,
      "v": 107
    },
    {
      "midi": 47,
      "hit": false,
      "t": 126445.3125,
      "d": 56.15234375,
      "v": 125
    },
    {
      "midi": 71,
      "hit": false,
      "t": 126445.3125,
      "d": 78.125,
      "v": 107
    },
    {
      "midi": 35,
      "hit": false,
      "t": 126562.5,
      "d": 234.375,
      "v": 127
    },
    {
      "midi": 47,
      "hit": false,
      "t": 126562.5,
      "d": 48.828125,
      "v": 110
    },
    {
      "midi": 47,
      "hit": false,
      "t": 126562.5,
      "d": 48.828125,
      "v": 127
    },
    {
      "midi": 59,
      "hit": false,
      "t": 126562.5,
      "d": 241.69921875,
      "v": 116
    },
    {
      "midi": 54,
      "hit": false,
      "t": 126562.5,
      "d": 280.76171875,
      "v": 127
    },
    {
      "midi": 47,
      "hit": false,
      "t": 126796.875,
      "d": 234.375,
      "v": 127
    },
    {
      "midi": 47,
      "hit": false,
      "t": 126796.875,
      "d": 51.26953125,
      "v": 107
    },
    {
      "midi": 47,
      "hit": false,
      "t": 126796.875,
      "d": 51.26953125,
      "v": 125
    },
    {
      "midi": 71,
      "hit": false,
      "t": 126796.875,
      "d": 43.9453125,
      "v": 127
    },
    {
      "midi": 71,
      "hit": false,
      "t": 126796.875,
      "d": 48.828125,
      "v": 127
    },
    {
      "midi": 63,
      "hit": false,
      "t": 126796.875,
      "d": 183.10546875,
      "v": 110
    },
    {
      "midi": 56,
      "hit": false,
      "t": 126796.875,
      "d": 283.203125,
      "v": 125
    },
    {
      "midi": 47,
      "hit": false,
      "t": 126914.0625,
      "d": 46.38671875,
      "v": 110
    },
    {
      "midi": 47,
      "hit": false,
      "t": 126914.0625,
      "d": 46.38671875,
      "v": 127
    },
    {
      "midi": 71,
      "hit": false,
      "t": 126914.0625,
      "d": 39.0625,
      "v": 127
    },
    {
      "midi": 71,
      "hit": false,
      "t": 126914.0625,
      "d": 63.4765625,
      "v": 110
    },
    {
      "midi": 35,
      "hit": false,
      "t": 127031.25,
      "d": 234.375,
      "v": 127
    },
    {
      "midi": 47,
      "hit": false,
      "t": 127031.25,
      "d": 53.7109375,
      "v": 119
    },
    {
      "midi": 47,
      "hit": false,
      "t": 127031.25,
      "d": 53.7109375,
      "v": 127
    },
    {
      "midi": 71,
      "hit": false,
      "t": 127031.25,
      "d": 48.828125,
      "v": 127
    },
    {
      "midi": 73,
      "hit": false,
      "t": 127031.25,
      "d": 36.62109375,
      "v": 116
    },
    {
      "midi": 57,
      "hit": false,
      "t": 127031.25,
      "d": 224.609375,
      "v": 110
    },
    {
      "midi": 64,
      "hit": false,
      "t": 127031.25,
      "d": 224.609375,
      "v": 98
    },
    {
      "midi": 71,
      "hit": false,
      "t": 127148.4375,
      "d": 65.91796875,
      "v": 127
    },
    {
      "midi": 73,
      "hit": false,
      "t": 127148.4375,
      "d": 39.0625,
      "v": 105
    },
    {
      "midi": 47,
      "hit": false,
      "t": 127265.625,
      "d": 234.375,
      "v": 127
    },
    {
      "midi": 47,
      "hit": false,
      "t": 127265.625,
      "d": 51.26953125,
      "v": 107
    },
    {
      "midi": 47,
      "hit": false,
      "t": 127265.625,
      "d": 51.26953125,
      "v": 125
    },
    {
      "midi": 71,
      "hit": false,
      "t": 127265.625,
      "d": 80.56640625,
      "v": 127
    },
    {
      "midi": 71,
      "hit": false,
      "t": 127265.625,
      "d": 46.38671875,
      "v": 122
    },
    {
      "midi": 63,
      "hit": false,
      "t": 127265.625,
      "d": 947.265625,
      "v": 127
    },
    {
      "midi": 66,
      "hit": false,
      "t": 127265.625,
      "d": 1162.109375,
      "v": 116
    },
    {
      "midi": 47,
      "hit": false,
      "t": 127382.8125,
      "d": 61.03515625,
      "v": 102
    },
    {
      "midi": 47,
      "hit": false,
      "t": 127382.8125,
      "d": 61.03515625,
      "v": 120
    },
    {
      "midi": 71,
      "hit": false,
      "t": 127382.8125,
      "d": 85.44921875,
      "v": 107
    },
    {
      "midi": 35,
      "hit": false,
      "t": 127500,
      "d": 234.375,
      "v": 127
    },
    {
      "midi": 47,
      "hit": false,
      "t": 127500,
      "d": 53.7109375,
      "v": 119
    },
    {
      "midi": 47,
      "hit": false,
      "t": 127500,
      "d": 53.7109375,
      "v": 127
    },
    {
      "midi": 47,
      "hit": false,
      "t": 127734.375,
      "d": 234.375,
      "v": 127
    },
    {
      "midi": 47,
      "hit": false,
      "t": 127734.375,
      "d": 46.38671875,
      "v": 105
    },
    {
      "midi": 47,
      "hit": false,
      "t": 127734.375,
      "d": 46.38671875,
      "v": 123
    },
    {
      "midi": 71,
      "hit": false,
      "t": 127734.375,
      "d": 48.828125,
      "v": 127
    },
    {
      "midi": 71,
      "hit": false,
      "t": 127734.375,
      "d": 34.1796875,
      "v": 119
    },
    {
      "midi": 47,
      "hit": false,
      "t": 127851.5625,
      "d": 70.80078125,
      "v": 105
    },
    {
      "midi": 47,
      "hit": false,
      "t": 127851.5625,
      "d": 70.80078125,
      "v": 123
    },
    {
      "midi": 71,
      "hit": false,
      "t": 127851.5625,
      "d": 48.828125,
      "v": 127
    },
    {
      "midi": 71,
      "hit": false,
      "t": 127851.5625,
      "d": 61.03515625,
      "v": 105
    },
    {
      "midi": 35,
      "hit": false,
      "t": 127968.75,
      "d": 234.375,
      "v": 127
    },
    {
      "midi": 47,
      "hit": false,
      "t": 127968.75,
      "d": 46.38671875,
      "v": 113
    },
    {
      "midi": 47,
      "hit": false,
      "t": 127968.75,
      "d": 46.38671875,
      "v": 127
    },
    {
      "midi": 71,
      "hit": false,
      "t": 127968.75,
      "d": 46.38671875,
      "v": 127
    },
    {
      "midi": 73,
      "hit": false,
      "t": 127968.75,
      "d": 26.85546875,
      "v": 113
    },
    {
      "midi": 71,
      "hit": false,
      "t": 128085.9375,
      "d": 75.68359375,
      "v": 127
    },
    {
      "midi": 73,
      "hit": false,
      "t": 128085.9375,
      "d": 51.26953125,
      "v": 110
    },
    {
      "midi": 47,
      "hit": false,
      "t": 128203.125,
      "d": 234.375,
      "v": 127
    },
    {
      "midi": 47,
      "hit": false,
      "t": 128203.125,
      "d": 53.7109375,
      "v": 107
    },
    {
      "midi": 47,
      "hit": false,
      "t": 128203.125,
      "d": 53.7109375,
      "v": 125
    },
    {
      "midi": 71,
      "hit": false,
      "t": 128203.125,
      "d": 80.56640625,
      "v": 127
    },
    {
      "midi": 72,
      "hit": false,
      "t": 128203.125,
      "d": 24.4140625,
      "v": 107
    },
    {
      "midi": 71,
      "hit": false,
      "t": 128203.125,
      "d": 36.62109375,
      "v": 107
    },
    {
      "midi": 47,
      "hit": false,
      "t": 128320.3125,
      "d": 58.59375,
      "v": 107
    },
    {
      "midi": 47,
      "hit": false,
      "t": 128320.3125,
      "d": 58.59375,
      "v": 125
    },
    {
      "midi": 71,
      "hit": false,
      "t": 128320.3125,
      "d": 78.125,
      "v": 107
    },
    {
      "midi": 35,
      "hit": false,
      "t": 128437.5,
      "d": 234.375,
      "v": 127
    },
    {
      "midi": 47,
      "hit": false,
      "t": 128437.5,
      "d": 48.828125,
      "v": 113
    },
    {
      "midi": 47,
      "hit": false,
      "t": 128437.5,
      "d": 48.828125,
      "v": 127
    },
    {
      "midi": 59,
      "hit": false,
      "t": 128437.5,
      "d": 239.2578125,
      "v": 116
    },
    {
      "midi": 54,
      "hit": false,
      "t": 128437.5,
      "d": 270.99609375,
      "v": 127
    },
    {
      "midi": 47,
      "hit": false,
      "t": 128671.875,
      "d": 234.375,
      "v": 127
    },
    {
      "midi": 47,
      "hit": false,
      "t": 128671.875,
      "d": 51.26953125,
      "v": 102
    },
    {
      "midi": 47,
      "hit": false,
      "t": 128671.875,
      "d": 51.26953125,
      "v": 120
    },
    {
      "midi": 71,
      "hit": false,
      "t": 128671.875,
      "d": 53.7109375,
      "v": 127
    },
    {
      "midi": 71,
      "hit": false,
      "t": 128671.875,
      "d": 48.828125,
      "v": 127
    },
    {
      "midi": 63,
      "hit": false,
      "t": 128671.875,
      "d": 205.078125,
      "v": 107
    },
    {
      "midi": 56,
      "hit": false,
      "t": 128671.875,
      "d": 222.16796875,
      "v": 122
    },
    {
      "midi": 47,
      "hit": false,
      "t": 128789.0625,
      "d": 75.68359375,
      "v": 105
    },
    {
      "midi": 47,
      "hit": false,
      "t": 128789.0625,
      "d": 75.68359375,
      "v": 123
    },
    {
      "midi": 71,
      "hit": false,
      "t": 128789.0625,
      "d": 61.03515625,
      "v": 127
    },
    {
      "midi": 71,
      "hit": false,
      "t": 128789.0625,
      "d": 63.4765625,
      "v": 110
    },
    {
      "midi": 35,
      "hit": false,
      "t": 128906.25,
      "d": 234.375,
      "v": 127
    },
    {
      "midi": 47,
      "hit": false,
      "t": 128906.25,
      "d": 61.03515625,
      "v": 116
    },
    {
      "midi": 47,
      "hit": false,
      "t": 128906.25,
      "d": 61.03515625,
      "v": 127
    },
    {
      "midi": 71,
      "hit": false,
      "t": 128906.25,
      "d": 48.828125,
      "v": 127
    },
    {
      "midi": 73,
      "hit": false,
      "t": 128906.25,
      "d": 36.62109375,
      "v": 116
    },
    {
      "midi": 64,
      "hit": false,
      "t": 128906.25,
      "d": 275.87890625,
      "v": 85
    },
    {
      "midi": 57,
      "hit": false,
      "t": 128906.25,
      "d": 290.52734375,
      "v": 115
    },
    {
      "midi": 71,
      "hit": false,
      "t": 129023.4375,
      "d": 75.68359375,
      "v": 127
    },
    {
      "midi": 73,
      "hit": false,
      "t": 129023.4375,
      "d": 39.0625,
      "v": 105
    },
    {
      "midi": 47,
      "hit": false,
      "t": 129140.625,
      "d": 234.375,
      "v": 127
    },
    {
      "midi": 47,
      "hit": false,
      "t": 129140.625,
      "d": 51.26953125,
      "v": 105
    },
    {
      "midi": 47,
      "hit": false,
      "t": 129140.625,
      "d": 51.26953125,
      "v": 123
    },
    {
      "midi": 71,
      "hit": false,
      "t": 129140.625,
      "d": 80.56640625,
      "v": 127
    },
    {
      "midi": 71,
      "hit": false,
      "t": 129140.625,
      "d": 46.38671875,
      "v": 122
    },
    {
      "midi": 63,
      "hit": false,
      "t": 129140.625,
      "d": 1083.984375,
      "v": 127
    },
    {
      "midi": 66,
      "hit": false,
      "t": 129140.625,
      "d": 1118.1640625,
      "v": 113
    },
    {
      "midi": 47,
      "hit": false,
      "t": 129257.8125,
      "d": 70.80078125,
      "v": 110
    },
    {
      "midi": 47,
      "hit": false,
      "t": 129257.8125,
      "d": 70.80078125,
      "v": 127
    },
    {
      "midi": 71,
      "hit": false,
      "t": 129257.8125,
      "d": 85.44921875,
      "v": 107
    },
    {
      "midi": 35,
      "hit": false,
      "t": 129375,
      "d": 234.375,
      "v": 127
    },
    {
      "midi": 47,
      "hit": false,
      "t": 129375,
      "d": 61.03515625,
      "v": 113
    },
    {
      "midi": 47,
      "hit": false,
      "t": 129375,
      "d": 61.03515625,
      "v": 127
    },
    {
      "midi": 47,
      "hit": false,
      "t": 129609.375,
      "d": 234.375,
      "v": 127
    },
    {
      "midi": 47,
      "hit": false,
      "t": 129609.375,
      "d": 51.26953125,
      "v": 105
    },
    {
      "midi": 47,
      "hit": false,
      "t": 129609.375,
      "d": 51.26953125,
      "v": 123
    },
    {
      "midi": 71,
      "hit": false,
      "t": 129609.375,
      "d": 51.26953125,
      "v": 127
    },
    {
      "midi": 71,
      "hit": false,
      "t": 129609.375,
      "d": 34.1796875,
      "v": 119
    },
    {
      "midi": 47,
      "hit": false,
      "t": 129726.5625,
      "d": 46.38671875,
      "v": 119
    },
    {
      "midi": 47,
      "hit": false,
      "t": 129726.5625,
      "d": 46.38671875,
      "v": 127
    },
    {
      "midi": 71,
      "hit": false,
      "t": 129726.5625,
      "d": 70.80078125,
      "v": 127
    },
    {
      "midi": 71,
      "hit": false,
      "t": 129726.5625,
      "d": 61.03515625,
      "v": 105
    },
    {
      "midi": 35,
      "hit": false,
      "t": 129843.75,
      "d": 234.375,
      "v": 127
    },
    {
      "midi": 47,
      "hit": false,
      "t": 129843.75,
      "d": 56.15234375,
      "v": 116
    },
    {
      "midi": 47,
      "hit": false,
      "t": 129843.75,
      "d": 56.15234375,
      "v": 127
    },
    {
      "midi": 71,
      "hit": false,
      "t": 129843.75,
      "d": 56.15234375,
      "v": 127
    },
    {
      "midi": 73,
      "hit": false,
      "t": 129843.75,
      "d": 26.85546875,
      "v": 113
    },
    {
      "midi": 71,
      "hit": false,
      "t": 129960.9375,
      "d": 78.125,
      "v": 127
    },
    {
      "midi": 73,
      "hit": false,
      "t": 129960.9375,
      "d": 51.26953125,
      "v": 110
    },
    {
      "midi": 47,
      "hit": false,
      "t": 130078.125,
      "d": 234.375,
      "v": 127
    },
    {
      "midi": 47,
      "hit": false,
      "t": 130078.125,
      "d": 51.26953125,
      "v": 105
    },
    {
      "midi": 47,
      "hit": false,
      "t": 130078.125,
      "d": 51.26953125,
      "v": 123
    },
    {
      "midi": 71,
      "hit": false,
      "t": 130078.125,
      "d": 73.2421875,
      "v": 127
    },
    {
      "midi": 72,
      "hit": false,
      "t": 130078.125,
      "d": 24.4140625,
      "v": 107
    },
    {
      "midi": 71,
      "hit": false,
      "t": 130078.125,
      "d": 36.62109375,
      "v": 107
    },
    {
      "midi": 47,
      "hit": false,
      "t": 130195.3125,
      "d": 51.26953125,
      "v": 107
    },
    {
      "midi": 47,
      "hit": false,
      "t": 130195.3125,
      "d": 51.26953125,
      "v": 125
    },
    {
      "midi": 71,
      "hit": false,
      "t": 130195.3125,
      "d": 78.125,
      "v": 107
    },
    {
      "midi": 35,
      "hit": false,
      "t": 130312.5,
      "d": 234.375,
      "v": 127
    },
    {
      "midi": 47,
      "hit": false,
      "t": 130312.5,
      "d": 58.59375,
      "v": 116
    },
    {
      "midi": 47,
      "hit": false,
      "t": 130312.5,
      "d": 58.59375,
      "v": 127
    },
    {
      "midi": 59,
      "hit": false,
      "t": 130312.5,
      "d": 251.46484375,
      "v": 107
    },
    {
      "midi": 54,
      "hit": false,
      "t": 130312.5,
      "d": 278.3203125,
      "v": 122
    },
    {
      "midi": 47,
      "hit": false,
      "t": 130546.875,
      "d": 234.375,
      "v": 127
    },
    {
      "midi": 47,
      "hit": false,
      "t": 130546.875,
      "d": 53.7109375,
      "v": 105
    },
    {
      "midi": 47,
      "hit": false,
      "t": 130546.875,
      "d": 53.7109375,
      "v": 123
    },
    {
      "midi": 71,
      "hit": false,
      "t": 130546.875,
      "d": 43.9453125,
      "v": 127
    },
    {
      "midi": 71,
      "hit": false,
      "t": 130546.875,
      "d": 48.828125,
      "v": 127
    },
    {
      "midi": 63,
      "hit": false,
      "t": 130546.875,
      "d": 178.22265625,
      "v": 107
    },
    {
      "midi": 56,
      "hit": false,
      "t": 130546.875,
      "d": 244.140625,
      "v": 127
    },
    {
      "midi": 47,
      "hit": false,
      "t": 130664.0625,
      "d": 78.125,
      "v": 113
    },
    {
      "midi": 47,
      "hit": false,
      "t": 130664.0625,
      "d": 78.125,
      "v": 127
    },
    {
      "midi": 71,
      "hit": false,
      "t": 130664.0625,
      "d": 61.03515625,
      "v": 127
    },
    {
      "midi": 71,
      "hit": false,
      "t": 130664.0625,
      "d": 63.4765625,
      "v": 110
    },
    {
      "midi": 35,
      "hit": false,
      "t": 130781.25,
      "d": 234.375,
      "v": 127
    },
    {
      "midi": 47,
      "hit": false,
      "t": 130781.25,
      "d": 63.4765625,
      "v": 113
    },
    {
      "midi": 47,
      "hit": false,
      "t": 130781.25,
      "d": 63.4765625,
      "v": 127
    },
    {
      "midi": 71,
      "hit": false,
      "t": 130781.25,
      "d": 53.7109375,
      "v": 127
    },
    {
      "midi": 73,
      "hit": false,
      "t": 130781.25,
      "d": 36.62109375,
      "v": 116
    },
    {
      "midi": 57,
      "hit": false,
      "t": 130781.25,
      "d": 229.4921875,
      "v": 109
    },
    {
      "midi": 64,
      "hit": false,
      "t": 130781.25,
      "d": 280.76171875,
      "v": 82
    },
    {
      "midi": 71,
      "hit": false,
      "t": 130898.4375,
      "d": 73.2421875,
      "v": 127
    },
    {
      "midi": 73,
      "hit": false,
      "t": 130898.4375,
      "d": 39.0625,
      "v": 105
    },
    {
      "midi": 47,
      "hit": false,
      "t": 131015.625,
      "d": 234.375,
      "v": 127
    },
    {
      "midi": 47,
      "hit": false,
      "t": 131015.625,
      "d": 51.26953125,
      "v": 105
    },
    {
      "midi": 47,
      "hit": false,
      "t": 131015.625,
      "d": 51.26953125,
      "v": 123
    },
    {
      "midi": 71,
      "hit": false,
      "t": 131015.625,
      "d": 87.890625,
      "v": 127
    },
    {
      "midi": 71,
      "hit": false,
      "t": 131015.625,
      "d": 46.38671875,
      "v": 122
    },
    {
      "midi": 63,
      "hit": false,
      "t": 131015.625,
      "d": 317.3828125,
      "v": 127
    },
    {
      "midi": 66,
      "hit": false,
      "t": 131015.625,
      "d": 339.35546875,
      "v": 107
    },
    {
      "midi": 47,
      "hit": false,
      "t": 131132.8125,
      "d": 48.828125,
      "v": 110
    },
    {
      "midi": 47,
      "hit": false,
      "t": 131132.8125,
      "d": 48.828125,
      "v": 127
    },
    {
      "midi": 71,
      "hit": false,
      "t": 131132.8125,
      "d": 85.44921875,
      "v": 107
    },
    {
      "midi": 35,
      "hit": false,
      "t": 131250,
      "d": 234.375,
      "v": 127
    },
    {
      "midi": 47,
      "hit": false,
      "t": 131250,
      "d": 58.59375,
      "v": 113
    },
    {
      "midi": 47,
      "hit": false,
      "t": 131250,
      "d": 58.59375,
      "v": 127
    },
    {
      "midi": 47,
      "hit": false,
      "t": 131484.375,
      "d": 234.375,
      "v": 127
    },
    {
      "midi": 47,
      "hit": false,
      "t": 131484.375,
      "d": 56.15234375,
      "v": 102
    },
    {
      "midi": 47,
      "hit": false,
      "t": 131484.375,
      "d": 56.15234375,
      "v": 120
    },
    {
      "midi": 71,
      "hit": false,
      "t": 131484.375,
      "d": 51.26953125,
      "v": 127
    },
    {
      "midi": 71,
      "hit": false,
      "t": 131484.375,
      "d": 34.1796875,
      "v": 119
    },
    {
      "midi": 63,
      "hit": false,
      "t": 131484.375,
      "d": 90.33203125,
      "v": 127
    },
    {
      "midi": 66,
      "hit": false,
      "t": 131484.375,
      "d": 100.09765625,
      "v": 102
    },
    {
      "midi": 47,
      "hit": false,
      "t": 131601.5625,
      "d": 39.0625,
      "v": 116
    },
    {
      "midi": 47,
      "hit": false,
      "t": 131601.5625,
      "d": 39.0625,
      "v": 127
    },
    {
      "midi": 71,
      "hit": false,
      "t": 131601.5625,
      "d": 63.4765625,
      "v": 127
    },
    {
      "midi": 71,
      "hit": false,
      "t": 131601.5625,
      "d": 61.03515625,
      "v": 105
    },
    {
      "midi": 35,
      "hit": false,
      "t": 131718.75,
      "d": 234.375,
      "v": 127
    },
    {
      "midi": 47,
      "hit": false,
      "t": 131718.75,
      "d": 61.03515625,
      "v": 116
    },
    {
      "midi": 47,
      "hit": false,
      "t": 131718.75,
      "d": 61.03515625,
      "v": 127
    },
    {
      "midi": 71,
      "hit": false,
      "t": 131718.75,
      "d": 53.7109375,
      "v": 127
    },
    {
      "midi": 73,
      "hit": false,
      "t": 131718.75,
      "d": 26.85546875,
      "v": 113
    },
    {
      "midi": 66,
      "hit": false,
      "t": 131718.75,
      "d": 73.2421875,
      "v": 98
    },
    {
      "midi": 63,
      "hit": false,
      "t": 131718.75,
      "d": 95.21484375,
      "v": 127
    },
    {
      "midi": 71,
      "hit": false,
      "t": 131835.9375,
      "d": 61.03515625,
      "v": 127
    },
    {
      "midi": 73,
      "hit": false,
      "t": 131835.9375,
      "d": 51.26953125,
      "v": 110
    },
    {
      "midi": 47,
      "hit": false,
      "t": 131953.125,
      "d": 234.375,
      "v": 127
    },
    {
      "midi": 47,
      "hit": false,
      "t": 131953.125,
      "d": 63.4765625,
      "v": 102
    },
    {
      "midi": 47,
      "hit": false,
      "t": 131953.125,
      "d": 63.4765625,
      "v": 120
    },
    {
      "midi": 71,
      "hit": false,
      "t": 131953.125,
      "d": 75.68359375,
      "v": 127
    },
    {
      "midi": 72,
      "hit": false,
      "t": 131953.125,
      "d": 24.4140625,
      "v": 107
    },
    {
      "midi": 71,
      "hit": false,
      "t": 131953.125,
      "d": 36.62109375,
      "v": 107
    },
    {
      "midi": 66,
      "hit": false,
      "t": 131953.125,
      "d": 390.625,
      "v": 113
    },
    {
      "midi": 63,
      "hit": false,
      "t": 131953.125,
      "d": 444.3359375,
      "v": 127
    },
    {
      "midi": 47,
      "hit": false,
      "t": 132070.3125,
      "d": 36.62109375,
      "v": 113
    },
    {
      "midi": 47,
      "hit": false,
      "t": 132070.3125,
      "d": 36.62109375,
      "v": 127
    },
    {
      "midi": 71,
      "hit": false,
      "t": 132070.3125,
      "d": 78.125,
      "v": 107
    },
    {
      "midi": 35,
      "hit": false,
      "t": 132187.5,
      "d": 234.375,
      "v": 127
    },
    {
      "midi": 47,
      "hit": false,
      "t": 132187.5,
      "d": 58.59375,
      "v": 110
    },
    {
      "midi": 47,
      "hit": false,
      "t": 132187.5,
      "d": 58.59375,
      "v": 127
    },
    {
      "midi": 47,
      "hit": false,
      "t": 132421.875,
      "d": 234.375,
      "v": 127
    },
    {
      "midi": 47,
      "hit": false,
      "t": 132421.875,
      "d": 61.03515625,
      "v": 113
    },
    {
      "midi": 47,
      "hit": false,
      "t": 132421.875,
      "d": 61.03515625,
      "v": 127
    },
    {
      "midi": 71,
      "hit": false,
      "t": 132421.875,
      "d": 39.0625,
      "v": 127
    },
    {
      "midi": 71,
      "hit": false,
      "t": 132421.875,
      "d": 48.828125,
      "v": 127
    },
    {
      "midi": 61,
      "hit": false,
      "t": 132421.875,
      "d": 227.05078125,
      "v": 127
    },
    {
      "midi": 64,
      "hit": false,
      "t": 132421.875,
      "d": 258.7890625,
      "v": 105
    },
    {
      "midi": 47,
      "hit": false,
      "t": 132539.0625,
      "d": 56.15234375,
      "v": 113
    },
    {
      "midi": 47,
      "hit": false,
      "t": 132539.0625,
      "d": 56.15234375,
      "v": 127
    },
    {
      "midi": 71,
      "hit": false,
      "t": 132539.0625,
      "d": 51.26953125,
      "v": 127
    },
    {
      "midi": 71,
      "hit": false,
      "t": 132539.0625,
      "d": 63.4765625,
      "v": 110
    },
    {
      "midi": 35,
      "hit": false,
      "t": 132656.25,
      "d": 234.375,
      "v": 127
    },
    {
      "midi": 47,
      "hit": false,
      "t": 132656.25,
      "d": 65.91796875,
      "v": 119
    },
    {
      "midi": 47,
      "hit": false,
      "t": 132656.25,
      "d": 65.91796875,
      "v": 127
    },
    {
      "midi": 71,
      "hit": false,
      "t": 132656.25,
      "d": 51.26953125,
      "v": 127
    },
    {
      "midi": 73,
      "hit": false,
      "t": 132656.25,
      "d": 36.62109375,
      "v": 116
    },
    {
      "midi": 63,
      "hit": false,
      "t": 132656.25,
      "d": 104.98046875,
      "v": 110
    },
    {
      "midi": 57,
      "hit": false,
      "t": 132656.25,
      "d": 292.96875,
      "v": 102
    },
    {
      "midi": 71,
      "hit": false,
      "t": 132773.4375,
      "d": 78.125,
      "v": 127
    },
    {
      "midi": 73,
      "hit": false,
      "t": 132773.4375,
      "d": 39.0625,
      "v": 105
    },
    {
      "midi": 47,
      "hit": false,
      "t": 132890.625,
      "d": 234.375,
      "v": 127
    },
    {
      "midi": 47,
      "hit": false,
      "t": 132890.625,
      "d": 56.15234375,
      "v": 107
    },
    {
      "midi": 47,
      "hit": false,
      "t": 132890.625,
      "d": 56.15234375,
      "v": 125
    },
    {
      "midi": 71,
      "hit": false,
      "t": 132890.625,
      "d": 83.0078125,
      "v": 127
    },
    {
      "midi": 71,
      "hit": false,
      "t": 132890.625,
      "d": 46.38671875,
      "v": 122
    },
    {
      "midi": 56,
      "hit": false,
      "t": 132890.625,
      "d": 944.82421875,
      "v": 127
    },
    {
      "midi": 64,
      "hit": false,
      "t": 132890.625,
      "d": 1083.984375,
      "v": 105
    },
    {
      "midi": 47,
      "hit": false,
      "t": 133007.8125,
      "d": 56.15234375,
      "v": 113
    },
    {
      "midi": 47,
      "hit": false,
      "t": 133007.8125,
      "d": 56.15234375,
      "v": 127
    },
    {
      "midi": 71,
      "hit": false,
      "t": 133007.8125,
      "d": 85.44921875,
      "v": 107
    },
    {
      "midi": 28,
      "hit": false,
      "t": 133125,
      "d": 234.375,
      "v": 127
    },
    {
      "midi": 68,
      "hit": false,
      "t": 133125,
      "d": 1875,
      "v": 48
    },
    {
      "midi": 71,
      "hit": false,
      "t": 133125,
      "d": 1875,
      "v": 22
    },
    {
      "midi": 76,
      "hit": false,
      "t": 133125,
      "d": 1875,
      "v": 48
    },
    {
      "midi": 52,
      "hit": false,
      "t": 133125,
      "d": 61.03515625,
      "v": 107
    },
    {
      "midi": 52,
      "hit": false,
      "t": 133125,
      "d": 61.03515625,
      "v": 125
    },
    {
      "midi": 68,
      "hit": false,
      "t": 133137.20703125,
      "d": 1862.79296875,
      "v": 105
    },
    {
      "midi": 71,
      "hit": false,
      "t": 133142.08984375,
      "d": 1857.91015625,
      "v": 82
    },
    {
      "midi": 64,
      "hit": false,
      "t": 133146.97265625,
      "d": 1853.02734375,
      "v": 89
    },
    {
      "midi": 40,
      "hit": false,
      "t": 133359.375,
      "d": 234.375,
      "v": 127
    },
    {
      "midi": 52,
      "hit": false,
      "t": 133359.375,
      "d": 51.26953125,
      "v": 102
    },
    {
      "midi": 52,
      "hit": false,
      "t": 133359.375,
      "d": 51.26953125,
      "v": 120
    },
    {
      "midi": 76,
      "hit": false,
      "t": 133359.375,
      "d": 43.9453125,
      "v": 127
    },
    {
      "midi": 71,
      "hit": false,
      "t": 133359.375,
      "d": 34.1796875,
      "v": 119
    },
    {
      "midi": 52,
      "hit": false,
      "t": 133476.5625,
      "d": 61.03515625,
      "v": 105
    },
    {
      "midi": 52,
      "hit": false,
      "t": 133476.5625,
      "d": 61.03515625,
      "v": 123
    },
    {
      "midi": 76,
      "hit": false,
      "t": 133476.5625,
      "d": 53.7109375,
      "v": 127
    },
    {
      "midi": 71,
      "hit": false,
      "t": 133476.5625,
      "d": 61.03515625,
      "v": 105
    },
    {
      "midi": 28,
      "hit": false,
      "t": 133593.75,
      "d": 234.375,
      "v": 127
    },
    {
      "midi": 52,
      "hit": false,
      "t": 133593.75,
      "d": 51.26953125,
      "v": 110
    },
    {
      "midi": 52,
      "hit": false,
      "t": 133593.75,
      "d": 51.26953125,
      "v": 127
    },
    {
      "midi": 76,
      "hit": false,
      "t": 133593.75,
      "d": 51.26953125,
      "v": 127
    },
    {
      "midi": 73,
      "hit": false,
      "t": 133593.75,
      "d": 26.85546875,
      "v": 113
    },
    {
      "midi": 76,
      "hit": false,
      "t": 133710.9375,
      "d": 63.4765625,
      "v": 127
    },
    {
      "midi": 73,
      "hit": false,
      "t": 133710.9375,
      "d": 51.26953125,
      "v": 110
    },
    {
      "midi": 40,
      "hit": false,
      "t": 133828.125,
      "d": 234.375,
      "v": 127
    },
    {
      "midi": 52,
      "hit": false,
      "t": 133828.125,
      "d": 53.7109375,
      "v": 102
    },
    {
      "midi": 52,
      "hit": false,
      "t": 133828.125,
      "d": 53.7109375,
      "v": 120
    },
    {
      "midi": 76,
      "hit": false,
      "t": 133828.125,
      "d": 102.5390625,
      "v": 127
    },
    {
      "midi": 72,
      "hit": false,
      "t": 133828.125,
      "d": 24.4140625,
      "v": 107
    },
    {
      "midi": 71,
      "hit": false,
      "t": 133828.125,
      "d": 36.62109375,
      "v": 107
    },
    {
      "midi": 52,
      "hit": false,
      "t": 133945.3125,
      "d": 70.80078125,
      "v": 107
    },
    {
      "midi": 52,
      "hit": false,
      "t": 133945.3125,
      "d": 70.80078125,
      "v": 125
    },
    {
      "midi": 71,
      "hit": false,
      "t": 133945.3125,
      "d": 78.125,
      "v": 107
    },
    {
      "midi": 28,
      "hit": false,
      "t": 134062.5,
      "d": 234.375,
      "v": 127
    },
    {
      "midi": 52,
      "hit": false,
      "t": 134062.5,
      "d": 56.15234375,
      "v": 116
    },
    {
      "midi": 52,
      "hit": false,
      "t": 134062.5,
      "d": 56.15234375,
      "v": 127
    },
    {
      "midi": 59,
      "hit": false,
      "t": 134062.5,
      "d": 246.58203125,
      "v": 102
    },
    {
      "midi": 56,
      "hit": false,
      "t": 134062.5,
      "d": 273.4375,
      "v": 127
    },
    {
      "midi": 40,
      "hit": false,
      "t": 134296.875,
      "d": 234.375,
      "v": 127
    },
    {
      "midi": 52,
      "hit": false,
      "t": 134296.875,
      "d": 51.26953125,
      "v": 107
    },
    {
      "midi": 52,
      "hit": false,
      "t": 134296.875,
      "d": 51.26953125,
      "v": 125
    },
    {
      "midi": 76,
      "hit": false,
      "t": 134296.875,
      "d": 51.26953125,
      "v": 127
    },
    {
      "midi": 71,
      "hit": false,
      "t": 134296.875,
      "d": 48.828125,
      "v": 127
    },
    {
      "midi": 64,
      "hit": false,
      "t": 134296.875,
      "d": 197.75390625,
      "v": 100
    },
    {
      "midi": 57,
      "hit": false,
      "t": 134301.7578125,
      "d": 234.375,
      "v": 109
    },
    {
      "midi": 52,
      "hit": false,
      "t": 134414.0625,
      "d": 78.125,
      "v": 107
    },
    {
      "midi": 52,
      "hit": false,
      "t": 134414.0625,
      "d": 78.125,
      "v": 125
    },
    {
      "midi": 76,
      "hit": false,
      "t": 134414.0625,
      "d": 61.03515625,
      "v": 127
    },
    {
      "midi": 71,
      "hit": false,
      "t": 134414.0625,
      "d": 63.4765625,
      "v": 110
    },
    {
      "midi": 28,
      "hit": false,
      "t": 134531.25,
      "d": 234.375,
      "v": 127
    },
    {
      "midi": 52,
      "hit": false,
      "t": 134531.25,
      "d": 56.15234375,
      "v": 113
    },
    {
      "midi": 52,
      "hit": false,
      "t": 134531.25,
      "d": 56.15234375,
      "v": 127
    },
    {
      "midi": 76,
      "hit": false,
      "t": 134531.25,
      "d": 53.7109375,
      "v": 127
    },
    {
      "midi": 73,
      "hit": false,
      "t": 134531.25,
      "d": 36.62109375,
      "v": 116
    },
    {
      "midi": 59,
      "hit": false,
      "t": 134531.25,
      "d": 222.16796875,
      "v": 118
    },
    {
      "midi": 66,
      "hit": false,
      "t": 134531.25,
      "d": 229.4921875,
      "v": 76
    },
    {
      "midi": 76,
      "hit": false,
      "t": 134648.4375,
      "d": 65.91796875,
      "v": 127
    },
    {
      "midi": 73,
      "hit": false,
      "t": 134648.4375,
      "d": 39.0625,
      "v": 105
    },
    {
      "midi": 40,
      "hit": false,
      "t": 134765.625,
      "d": 234.375,
      "v": 127
    },
    {
      "midi": 52,
      "hit": false,
      "t": 134765.625,
      "d": 58.59375,
      "v": 105
    },
    {
      "midi": 52,
      "hit": false,
      "t": 134765.625,
      "d": 58.59375,
      "v": 123
    },
    {
      "midi": 76,
      "hit": false,
      "t": 134765.625,
      "d": 80.56640625,
      "v": 127
    },
    {
      "midi": 71,
      "hit": false,
      "t": 134765.625,
      "d": 46.38671875,
      "v": 122
    },
    {
      "midi": 64,
      "hit": false,
      "t": 134765.625,
      "d": 993.65234375,
      "v": 127
    },
    {
      "midi": 68,
      "hit": false,
      "t": 134765.625,
      "d": 1223.14453125,
      "v": 93
    },
    {
      "midi": 52,
      "hit": false,
      "t": 134882.8125,
      "d": 65.91796875,
      "v": 102
    },
    {
      "midi": 52,
      "hit": false,
      "t": 134882.8125,
      "d": 65.91796875,
      "v": 120
    },
    {
      "midi": 71,
      "hit": false,
      "t": 134882.8125,
      "d": 85.44921875,
      "v": 107
    },
    {
      "midi": 28,
      "hit": false,
      "t": 135000,
      "d": 234.375,
      "v": 127
    },
    {
      "midi": 68,
      "hit": false,
      "t": 135000,
      "d": 5507.8125,
      "v": 105
    },
    {
      "midi": 68,
      "hit": false,
      "t": 135000,
      "d": 5390.625,
      "v": 48
    },
    {
      "midi": 71,
      "hit": false,
      "t": 135000,
      "d": 5390.625,
      "v": 22
    },
    {
      "midi": 76,
      "hit": false,
      "t": 135000,
      "d": 5507.8125,
      "v": 48
    },
    {
      "midi": 52,
      "hit": false,
      "t": 135000,
      "d": 53.7109375,
      "v": 110
    },
    {
      "midi": 52,
      "hit": false,
      "t": 135000,
      "d": 53.7109375,
      "v": 127
    },
    {
      "midi": 71,
      "hit": false,
      "t": 135004.8828125,
      "d": 5502.9296875,
      "v": 82
    },
    {
      "midi": 64,
      "hit": false,
      "t": 135009.765625,
      "d": 5498.046875,
      "v": 89
    },
    {
      "midi": 40,
      "hit": false,
      "t": 135234.375,
      "d": 234.375,
      "v": 127
    },
    {
      "midi": 52,
      "hit": false,
      "t": 135234.375,
      "d": 51.26953125,
      "v": 100
    },
    {
      "midi": 52,
      "hit": false,
      "t": 135234.375,
      "d": 51.26953125,
      "v": 118
    },
    {
      "midi": 76,
      "hit": false,
      "t": 135234.375,
      "d": 43.9453125,
      "v": 127
    },
    {
      "midi": 71,
      "hit": false,
      "t": 135234.375,
      "d": 34.1796875,
      "v": 119
    },
    {
      "midi": 52,
      "hit": false,
      "t": 135351.5625,
      "d": 68.359375,
      "v": 105
    },
    {
      "midi": 52,
      "hit": false,
      "t": 135351.5625,
      "d": 68.359375,
      "v": 123
    },
    {
      "midi": 76,
      "hit": false,
      "t": 135351.5625,
      "d": 70.80078125,
      "v": 127
    },
    {
      "midi": 71,
      "hit": false,
      "t": 135351.5625,
      "d": 61.03515625,
      "v": 105
    },
    {
      "midi": 28,
      "hit": false,
      "t": 135468.75,
      "d": 234.375,
      "v": 127
    },
    {
      "midi": 52,
      "hit": false,
      "t": 135468.75,
      "d": 56.15234375,
      "v": 113
    },
    {
      "midi": 52,
      "hit": false,
      "t": 135468.75,
      "d": 56.15234375,
      "v": 127
    },
    {
      "midi": 76,
      "hit": false,
      "t": 135468.75,
      "d": 61.03515625,
      "v": 127
    },
    {
      "midi": 73,
      "hit": false,
      "t": 135468.75,
      "d": 26.85546875,
      "v": 113
    },
    {
      "midi": 76,
      "hit": false,
      "t": 135585.9375,
      "d": 70.80078125,
      "v": 127
    },
    {
      "midi": 73,
      "hit": false,
      "t": 135585.9375,
      "d": 51.26953125,
      "v": 110
    },
    {
      "midi": 40,
      "hit": false,
      "t": 135703.125,
      "d": 234.375,
      "v": 127
    },
    {
      "midi": 52,
      "hit": false,
      "t": 135703.125,
      "d": 53.7109375,
      "v": 105
    },
    {
      "midi": 52,
      "hit": false,
      "t": 135703.125,
      "d": 53.7109375,
      "v": 123
    },
    {
      "midi": 76,
      "hit": false,
      "t": 135703.125,
      "d": 87.890625,
      "v": 127
    },
    {
      "midi": 72,
      "hit": false,
      "t": 135703.125,
      "d": 24.4140625,
      "v": 107
    },
    {
      "midi": 71,
      "hit": false,
      "t": 135703.125,
      "d": 36.62109375,
      "v": 107
    },
    {
      "midi": 52,
      "hit": false,
      "t": 135820.3125,
      "d": 68.359375,
      "v": 107
    },
    {
      "midi": 52,
      "hit": false,
      "t": 135820.3125,
      "d": 68.359375,
      "v": 125
    },
    {
      "midi": 71,
      "hit": false,
      "t": 135820.3125,
      "d": 78.125,
      "v": 107
    },
    {
      "midi": 28,
      "hit": false,
      "t": 135937.5,
      "d": 234.375,
      "v": 127
    },
    {
      "midi": 52,
      "hit": false,
      "t": 135937.5,
      "d": 56.15234375,
      "v": 113
    },
    {
      "midi": 52,
      "hit": false,
      "t": 135937.5,
      "d": 56.15234375,
      "v": 127
    },
    {
      "midi": 59,
      "hit": false,
      "t": 135937.5,
      "d": 187.98828125,
      "v": 107
    },
    {
      "midi": 56,
      "hit": false,
      "t": 135937.5,
      "d": 258.7890625,
      "v": 127
    },
    {
      "midi": 40,
      "hit": false,
      "t": 136171.875,
      "d": 234.375,
      "v": 127
    },
    {
      "midi": 52,
      "hit": false,
      "t": 136171.875,
      "d": 51.26953125,
      "v": 107
    },
    {
      "midi": 52,
      "hit": false,
      "t": 136171.875,
      "d": 51.26953125,
      "v": 125
    },
    {
      "midi": 76,
      "hit": false,
      "t": 136171.875,
      "d": 51.26953125,
      "v": 127
    },
    {
      "midi": 71,
      "hit": false,
      "t": 136171.875,
      "d": 48.828125,
      "v": 127
    },
    {
      "midi": 57,
      "hit": false,
      "t": 136171.875,
      "d": 229.4921875,
      "v": 109
    },
    {
      "midi": 64,
      "hit": false,
      "t": 136171.875,
      "d": 310.05859375,
      "v": 98
    },
    {
      "midi": 52,
      "hit": false,
      "t": 136289.0625,
      "d": 75.68359375,
      "v": 107
    },
    {
      "midi": 52,
      "hit": false,
      "t": 136289.0625,
      "d": 75.68359375,
      "v": 125
    },
    {
      "midi": 76,
      "hit": false,
      "t": 136289.0625,
      "d": 63.4765625,
      "v": 127
    },
    {
      "midi": 71,
      "hit": false,
      "t": 136289.0625,
      "d": 63.4765625,
      "v": 110
    },
    {
      "midi": 28,
      "hit": false,
      "t": 136406.25,
      "d": 234.375,
      "v": 127
    },
    {
      "midi": 52,
      "hit": false,
      "t": 136406.25,
      "d": 51.26953125,
      "v": 110
    },
    {
      "midi": 52,
      "hit": false,
      "t": 136406.25,
      "d": 51.26953125,
      "v": 127
    },
    {
      "midi": 76,
      "hit": false,
      "t": 136406.25,
      "d": 43.9453125,
      "v": 127
    },
    {
      "midi": 73,
      "hit": false,
      "t": 136406.25,
      "d": 36.62109375,
      "v": 116
    },
    {
      "midi": 59,
      "hit": false,
      "t": 136406.25,
      "d": 249.0234375,
      "v": 102
    },
    {
      "midi": 66,
      "hit": false,
      "t": 136406.25,
      "d": 258.7890625,
      "v": 107
    },
    {
      "midi": 76,
      "hit": false,
      "t": 136523.4375,
      "d": 73.2421875,
      "v": 127
    },
    {
      "midi": 73,
      "hit": false,
      "t": 136523.4375,
      "d": 39.0625,
      "v": 105
    },
    {
      "midi": 40,
      "hit": false,
      "t": 136640.625,
      "d": 234.375,
      "v": 127
    },
    {
      "midi": 52,
      "hit": false,
      "t": 136640.625,
      "d": 56.15234375,
      "v": 110
    },
    {
      "midi": 52,
      "hit": false,
      "t": 136640.625,
      "d": 56.15234375,
      "v": 127
    },
    {
      "midi": 76,
      "hit": false,
      "t": 136640.625,
      "d": 83.0078125,
      "v": 127
    },
    {
      "midi": 71,
      "hit": false,
      "t": 136640.625,
      "d": 46.38671875,
      "v": 122
    },
    {
      "midi": 64,
      "hit": false,
      "t": 136640.625,
      "d": 1052.24609375,
      "v": 127
    },
    {
      "midi": 68,
      "hit": false,
      "t": 136640.625,
      "d": 1247.55859375,
      "v": 100
    },
    {
      "midi": 52,
      "hit": false,
      "t": 136757.8125,
      "d": 58.59375,
      "v": 107
    },
    {
      "midi": 52,
      "hit": false,
      "t": 136757.8125,
      "d": 58.59375,
      "v": 125
    },
    {
      "midi": 71,
      "hit": false,
      "t": 136757.8125,
      "d": 85.44921875,
      "v": 107
    },
    {
      "midi": 28,
      "hit": false,
      "t": 136875,
      "d": 234.375,
      "v": 127
    },
    {
      "midi": 52,
      "hit": false,
      "t": 136875,
      "d": 53.7109375,
      "v": 116
    },
    {
      "midi": 52,
      "hit": false,
      "t": 136875,
      "d": 53.7109375,
      "v": 127
    },
    {
      "midi": 40,
      "hit": false,
      "t": 137109.375,
      "d": 234.375,
      "v": 127
    },
    {
      "midi": 52,
      "hit": false,
      "t": 137109.375,
      "d": 48.828125,
      "v": 105
    },
    {
      "midi": 52,
      "hit": false,
      "t": 137109.375,
      "d": 48.828125,
      "v": 123
    },
    {
      "midi": 76,
      "hit": false,
      "t": 137109.375,
      "d": 48.828125,
      "v": 127
    },
    {
      "midi": 71,
      "hit": false,
      "t": 137109.375,
      "d": 34.1796875,
      "v": 119
    },
    {
      "midi": 52,
      "hit": false,
      "t": 137226.5625,
      "d": 80.56640625,
      "v": 110
    },
    {
      "midi": 52,
      "hit": false,
      "t": 137226.5625,
      "d": 80.56640625,
      "v": 127
    },
    {
      "midi": 76,
      "hit": false,
      "t": 137226.5625,
      "d": 63.4765625,
      "v": 127
    },
    {
      "midi": 71,
      "hit": false,
      "t": 137226.5625,
      "d": 61.03515625,
      "v": 105
    },
    {
      "midi": 28,
      "hit": false,
      "t": 137343.75,
      "d": 234.375,
      "v": 127
    },
    {
      "midi": 52,
      "hit": false,
      "t": 137343.75,
      "d": 58.59375,
      "v": 113
    },
    {
      "midi": 52,
      "hit": false,
      "t": 137343.75,
      "d": 58.59375,
      "v": 127
    },
    {
      "midi": 76,
      "hit": false,
      "t": 137343.75,
      "d": 48.828125,
      "v": 127
    },
    {
      "midi": 73,
      "hit": false,
      "t": 137343.75,
      "d": 26.85546875,
      "v": 113
    },
    {
      "midi": 76,
      "hit": false,
      "t": 137460.9375,
      "d": 65.91796875,
      "v": 127
    },
    {
      "midi": 73,
      "hit": false,
      "t": 137460.9375,
      "d": 51.26953125,
      "v": 110
    },
    {
      "midi": 40,
      "hit": false,
      "t": 137578.125,
      "d": 234.375,
      "v": 127
    },
    {
      "midi": 52,
      "hit": false,
      "t": 137578.125,
      "d": 53.7109375,
      "v": 105
    },
    {
      "midi": 52,
      "hit": false,
      "t": 137578.125,
      "d": 53.7109375,
      "v": 123
    },
    {
      "midi": 76,
      "hit": false,
      "t": 137578.125,
      "d": 83.0078125,
      "v": 127
    },
    {
      "midi": 72,
      "hit": false,
      "t": 137578.125,
      "d": 24.4140625,
      "v": 107
    },
    {
      "midi": 71,
      "hit": false,
      "t": 137578.125,
      "d": 36.62109375,
      "v": 107
    },
    {
      "midi": 52,
      "hit": false,
      "t": 137695.3125,
      "d": 85.44921875,
      "v": 107
    },
    {
      "midi": 52,
      "hit": false,
      "t": 137695.3125,
      "d": 85.44921875,
      "v": 125
    },
    {
      "midi": 71,
      "hit": false,
      "t": 137695.3125,
      "d": 78.125,
      "v": 107
    },
    {
      "midi": 28,
      "hit": false,
      "t": 137812.5,
      "d": 234.375,
      "v": 127
    },
    {
      "midi": 52,
      "hit": false,
      "t": 137812.5,
      "d": 56.15234375,
      "v": 113
    },
    {
      "midi": 52,
      "hit": false,
      "t": 137812.5,
      "d": 56.15234375,
      "v": 127
    },
    {
      "midi": 59,
      "hit": false,
      "t": 137812.5,
      "d": 190.4296875,
      "v": 110
    },
    {
      "midi": 56,
      "hit": false,
      "t": 137812.5,
      "d": 280.76171875,
      "v": 125
    },
    {
      "midi": 40,
      "hit": false,
      "t": 138046.875,
      "d": 234.375,
      "v": 127
    },
    {
      "midi": 52,
      "hit": false,
      "t": 138046.875,
      "d": 56.15234375,
      "v": 105
    },
    {
      "midi": 52,
      "hit": false,
      "t": 138046.875,
      "d": 56.15234375,
      "v": 123
    },
    {
      "midi": 76,
      "hit": false,
      "t": 138046.875,
      "d": 51.26953125,
      "v": 127
    },
    {
      "midi": 71,
      "hit": false,
      "t": 138046.875,
      "d": 48.828125,
      "v": 127
    },
    {
      "midi": 57,
      "hit": false,
      "t": 138046.875,
      "d": 212.40234375,
      "v": 107
    },
    {
      "midi": 64,
      "hit": false,
      "t": 138046.875,
      "d": 290.52734375,
      "v": 100
    },
    {
      "midi": 52,
      "hit": false,
      "t": 138164.0625,
      "d": 51.26953125,
      "v": 105
    },
    {
      "midi": 52,
      "hit": false,
      "t": 138164.0625,
      "d": 51.26953125,
      "v": 123
    },
    {
      "midi": 76,
      "hit": false,
      "t": 138164.0625,
      "d": 51.26953125,
      "v": 127
    },
    {
      "midi": 71,
      "hit": false,
      "t": 138164.0625,
      "d": 63.4765625,
      "v": 110
    },
    {
      "midi": 28,
      "hit": false,
      "t": 138281.25,
      "d": 234.375,
      "v": 127
    },
    {
      "midi": 52,
      "hit": false,
      "t": 138281.25,
      "d": 53.7109375,
      "v": 116
    },
    {
      "midi": 52,
      "hit": false,
      "t": 138281.25,
      "d": 53.7109375,
      "v": 127
    },
    {
      "midi": 76,
      "hit": false,
      "t": 138281.25,
      "d": 46.38671875,
      "v": 127
    },
    {
      "midi": 73,
      "hit": false,
      "t": 138281.25,
      "d": 36.62109375,
      "v": 116
    },
    {
      "midi": 59,
      "hit": false,
      "t": 138281.25,
      "d": 217.28515625,
      "v": 115
    },
    {
      "midi": 66,
      "hit": false,
      "t": 138281.25,
      "d": 268.5546875,
      "v": 100
    },
    {
      "midi": 76,
      "hit": false,
      "t": 138398.4375,
      "d": 73.2421875,
      "v": 127
    },
    {
      "midi": 73,
      "hit": false,
      "t": 138398.4375,
      "d": 39.0625,
      "v": 105
    },
    {
      "midi": 40,
      "hit": false,
      "t": 138515.625,
      "d": 234.375,
      "v": 127
    },
    {
      "midi": 52,
      "hit": false,
      "t": 138515.625,
      "d": 48.828125,
      "v": 98
    },
    {
      "midi": 52,
      "hit": false,
      "t": 138515.625,
      "d": 48.828125,
      "v": 116
    },
    {
      "midi": 76,
      "hit": false,
      "t": 138515.625,
      "d": 80.56640625,
      "v": 127
    },
    {
      "midi": 71,
      "hit": false,
      "t": 138515.625,
      "d": 46.38671875,
      "v": 122
    },
    {
      "midi": 64,
      "hit": false,
      "t": 138515.625,
      "d": 349.12109375,
      "v": 127
    },
    {
      "midi": 68,
      "hit": false,
      "t": 138515.625,
      "d": 349.12109375,
      "v": 105
    },
    {
      "midi": 52,
      "hit": false,
      "t": 138632.8125,
      "d": 78.125,
      "v": 107
    },
    {
      "midi": 52,
      "hit": false,
      "t": 138632.8125,
      "d": 78.125,
      "v": 125
    },
    {
      "midi": 71,
      "hit": false,
      "t": 138632.8125,
      "d": 85.44921875,
      "v": 107
    },
    {
      "midi": 28,
      "hit": false,
      "t": 138750,
      "d": 234.375,
      "v": 127
    },
    {
      "midi": 52,
      "hit": false,
      "t": 138750,
      "d": 51.26953125,
      "v": 116
    },
    {
      "midi": 52,
      "hit": false,
      "t": 138750,
      "d": 51.26953125,
      "v": 127
    },
    {
      "midi": 40,
      "hit": false,
      "t": 138984.375,
      "d": 234.375,
      "v": 127
    },
    {
      "midi": 52,
      "hit": false,
      "t": 138984.375,
      "d": 56.15234375,
      "v": 107
    },
    {
      "midi": 52,
      "hit": false,
      "t": 138984.375,
      "d": 56.15234375,
      "v": 125
    },
    {
      "midi": 76,
      "hit": false,
      "t": 138984.375,
      "d": 56.15234375,
      "v": 127
    },
    {
      "midi": 71,
      "hit": false,
      "t": 138984.375,
      "d": 34.1796875,
      "v": 119
    },
    {
      "midi": 64,
      "hit": false,
      "t": 138984.375,
      "d": 75.68359375,
      "v": 127
    },
    {
      "midi": 68,
      "hit": false,
      "t": 138984.375,
      "d": 107.421875,
      "v": 102
    },
    {
      "midi": 52,
      "hit": false,
      "t": 139101.5625,
      "d": 61.03515625,
      "v": 110
    },
    {
      "midi": 52,
      "hit": false,
      "t": 139101.5625,
      "d": 61.03515625,
      "v": 127
    },
    {
      "midi": 76,
      "hit": false,
      "t": 139101.5625,
      "d": 63.4765625,
      "v": 127
    },
    {
      "midi": 71,
      "hit": false,
      "t": 139101.5625,
      "d": 61.03515625,
      "v": 105
    },
    {
      "midi": 28,
      "hit": false,
      "t": 139218.75,
      "d": 234.375,
      "v": 127
    },
    {
      "midi": 52,
      "hit": false,
      "t": 139218.75,
      "d": 61.03515625,
      "v": 113
    },
    {
      "midi": 52,
      "hit": false,
      "t": 139218.75,
      "d": 61.03515625,
      "v": 127
    },
    {
      "midi": 76,
      "hit": false,
      "t": 139218.75,
      "d": 48.828125,
      "v": 127
    },
    {
      "midi": 73,
      "hit": false,
      "t": 139218.75,
      "d": 26.85546875,
      "v": 113
    },
    {
      "midi": 64,
      "hit": false,
      "t": 139218.75,
      "d": 80.56640625,
      "v": 127
    },
    {
      "midi": 68,
      "hit": false,
      "t": 139218.75,
      "d": 87.890625,
      "v": 100
    },
    {
      "midi": 76,
      "hit": false,
      "t": 139335.9375,
      "d": 53.7109375,
      "v": 127
    },
    {
      "midi": 73,
      "hit": false,
      "t": 139335.9375,
      "d": 51.26953125,
      "v": 110
    },
    {
      "midi": 40,
      "hit": false,
      "t": 139453.125,
      "d": 234.375,
      "v": 127
    },
    {
      "midi": 52,
      "hit": false,
      "t": 139453.125,
      "d": 58.59375,
      "v": 107
    },
    {
      "midi": 52,
      "hit": false,
      "t": 139453.125,
      "d": 58.59375,
      "v": 125
    },
    {
      "midi": 76,
      "hit": false,
      "t": 139453.125,
      "d": 87.890625,
      "v": 127
    },
    {
      "midi": 72,
      "hit": false,
      "t": 139453.125,
      "d": 24.4140625,
      "v": 107
    },
    {
      "midi": 71,
      "hit": false,
      "t": 139453.125,
      "d": 36.62109375,
      "v": 107
    },
    {
      "midi": 64,
      "hit": false,
      "t": 139453.125,
      "d": 466.30859375,
      "v": 127
    },
    {
      "midi": 68,
      "hit": false,
      "t": 139453.125,
      "d": 473.6328125,
      "v": 102
    },
    {
      "midi": 52,
      "hit": false,
      "t": 139570.3125,
      "d": 85.44921875,
      "v": 110
    },
    {
      "midi": 52,
      "hit": false,
      "t": 139570.3125,
      "d": 85.44921875,
      "v": 127
    },
    {
      "midi": 71,
      "hit": false,
      "t": 139570.3125,
      "d": 78.125,
      "v": 107
    },
    {
      "midi": 28,
      "hit": false,
      "t": 139687.5,
      "d": 234.375,
      "v": 127
    },
    {
      "midi": 52,
      "hit": false,
      "t": 139687.5,
      "d": 56.15234375,
      "v": 107
    },
    {
      "midi": 52,
      "hit": false,
      "t": 139687.5,
      "d": 56.15234375,
      "v": 125
    },
    {
      "midi": 40,
      "hit": false,
      "t": 139921.875,
      "d": 234.375,
      "v": 127
    },
    {
      "midi": 52,
      "hit": false,
      "t": 139921.875,
      "d": 56.15234375,
      "v": 102
    },
    {
      "midi": 52,
      "hit": false,
      "t": 139921.875,
      "d": 56.15234375,
      "v": 120
    },
    {
      "midi": 76,
      "hit": false,
      "t": 139921.875,
      "d": 48.828125,
      "v": 127
    },
    {
      "midi": 71,
      "hit": false,
      "t": 139921.875,
      "d": 48.828125,
      "v": 127
    },
    {
      "midi": 66,
      "hit": false,
      "t": 139921.875,
      "d": 180.6640625,
      "v": 110
    },
    {
      "midi": 63,
      "hit": false,
      "t": 139921.875,
      "d": 202.63671875,
      "v": 127
    },
    {
      "midi": 52,
      "hit": false,
      "t": 140039.0625,
      "d": 61.03515625,
      "v": 110
    },
    {
      "midi": 52,
      "hit": false,
      "t": 140039.0625,
      "d": 61.03515625,
      "v": 127
    },
    {
      "midi": 76,
      "hit": false,
      "t": 140039.0625,
      "d": 58.59375,
      "v": 127
    },
    {
      "midi": 71,
      "hit": false,
      "t": 140039.0625,
      "d": 63.4765625,
      "v": 110
    },
    {
      "midi": 28,
      "hit": false,
      "t": 140156.25,
      "d": 234.375,
      "v": 127
    },
    {
      "midi": 52,
      "hit": false,
      "t": 140156.25,
      "d": 56.15234375,
      "v": 102
    },
    {
      "midi": 52,
      "hit": false,
      "t": 140156.25,
      "d": 56.15234375,
      "v": 120
    },
    {
      "midi": 76,
      "hit": false,
      "t": 140156.25,
      "d": 65.91796875,
      "v": 127
    },
    {
      "midi": 73,
      "hit": false,
      "t": 140156.25,
      "d": 36.62109375,
      "v": 116
    },
    {
      "midi": 59,
      "hit": false,
      "t": 140156.25,
      "d": 187.98828125,
      "v": 98
    },
    {
      "midi": 64,
      "hit": false,
      "t": 140156.25,
      "d": 197.75390625,
      "v": 100
    },
    {
      "midi": 76,
      "hit": false,
      "t": 140273.4375,
      "d": 78.125,
      "v": 127
    },
    {
      "midi": 73,
      "hit": false,
      "t": 140273.4375,
      "d": 39.0625,
      "v": 105
    },
    {
      "midi": 40,
      "hit": false,
      "t": 140390.625,
      "d": 234.375,
      "v": 127
    },
    {
      "midi": 52,
      "hit": false,
      "t": 140390.625,
      "d": 51.26953125,
      "v": 105
    },
    {
      "midi": 52,
      "hit": false,
      "t": 140390.625,
      "d": 51.26953125,
      "v": 123
    },
    {
      "midi": 76,
      "hit": false,
      "t": 140390.625,
      "d": 117.1875,
      "v": 127
    },
    {
      "midi": 71,
      "hit": false,
      "t": 140390.625,
      "d": 46.38671875,
      "v": 122
    },
    {
      "midi": 57,
      "hit": false,
      "t": 140390.625,
      "d": 942.3828125,
      "v": 127
    },
    {
      "midi": 66,
      "hit": false,
      "t": 140390.625,
      "d": 1120.60546875,
      "v": 116
    },
    {
      "midi": 52,
      "hit": false,
      "t": 140507.8125,
      "d": 58.59375,
      "v": 107
    },
    {
      "midi": 52,
      "hit": false,
      "t": 140507.8125,
      "d": 58.59375,
      "v": 125
    },
    {
      "midi": 71,
      "hit": false,
      "t": 140507.8125,
      "d": 85.44921875,
      "v": 107
    },
    {
      "midi": 35,
      "hit": false,
      "t": 140625,
      "d": 234.375,
      "v": 127
    },
    {
      "midi": 78,
      "hit": false,
      "t": 140625,
      "d": 5402.83203125,
      "v": 39
    },
    {
      "midi": 75,
      "hit": false,
      "t": 140625,
      "d": 5432.12890625,
      "v": 55
    },
    {
      "midi": 71,
      "hit": false,
      "t": 140625,
      "d": 5434.5703125,
      "v": 37
    },
    {
      "midi": 47,
      "hit": false,
      "t": 140625,
      "d": 48.828125,
      "v": 116
    },
    {
      "midi": 47,
      "hit": false,
      "t": 140625,
      "d": 48.828125,
      "v": 127
    },
    {
      "midi": 59,
      "hit": false,
      "t": 140644.53125,
      "d": 5395.5078125,
      "v": 100
    },
    {
      "midi": 63,
      "hit": false,
      "t": 140646.97265625,
      "d": 5424.8046875,
      "v": 107
    },
    {
      "midi": 66,
      "hit": false,
      "t": 140651.85546875,
      "d": 5383.30078125,
      "v": 102
    },
    {
      "midi": 47,
      "hit": false,
      "t": 140859.375,
      "d": 234.375,
      "v": 127
    },
    {
      "midi": 47,
      "hit": false,
      "t": 140859.375,
      "d": 39.0625,
      "v": 100
    },
    {
      "midi": 47,
      "hit": false,
      "t": 140859.375,
      "d": 39.0625,
      "v": 118
    },
    {
      "midi": 71,
      "hit": false,
      "t": 140859.375,
      "d": 48.828125,
      "v": 127
    },
    {
      "midi": 71,
      "hit": false,
      "t": 140859.375,
      "d": 34.1796875,
      "v": 119
    },
    {
      "midi": 47,
      "hit": false,
      "t": 140976.5625,
      "d": 61.03515625,
      "v": 107
    },
    {
      "midi": 47,
      "hit": false,
      "t": 140976.5625,
      "d": 61.03515625,
      "v": 125
    },
    {
      "midi": 71,
      "hit": false,
      "t": 140976.5625,
      "d": 70.80078125,
      "v": 127
    },
    {
      "midi": 71,
      "hit": false,
      "t": 140976.5625,
      "d": 61.03515625,
      "v": 105
    },
    {
      "midi": 35,
      "hit": false,
      "t": 141093.75,
      "d": 234.375,
      "v": 127
    },
    {
      "midi": 47,
      "hit": false,
      "t": 141093.75,
      "d": 48.828125,
      "v": 116
    },
    {
      "midi": 47,
      "hit": false,
      "t": 141093.75,
      "d": 48.828125,
      "v": 127
    },
    {
      "midi": 71,
      "hit": false,
      "t": 141093.75,
      "d": 48.828125,
      "v": 127
    },
    {
      "midi": 73,
      "hit": false,
      "t": 141093.75,
      "d": 26.85546875,
      "v": 113
    },
    {
      "midi": 71,
      "hit": false,
      "t": 141210.9375,
      "d": 70.80078125,
      "v": 127
    },
    {
      "midi": 73,
      "hit": false,
      "t": 141210.9375,
      "d": 51.26953125,
      "v": 110
    },
    {
      "midi": 47,
      "hit": false,
      "t": 141328.125,
      "d": 234.375,
      "v": 127
    },
    {
      "midi": 47,
      "hit": false,
      "t": 141328.125,
      "d": 48.828125,
      "v": 105
    },
    {
      "midi": 47,
      "hit": false,
      "t": 141328.125,
      "d": 48.828125,
      "v": 123
    },
    {
      "midi": 71,
      "hit": false,
      "t": 141328.125,
      "d": 70.80078125,
      "v": 127
    },
    {
      "midi": 72,
      "hit": false,
      "t": 141328.125,
      "d": 24.4140625,
      "v": 107
    },
    {
      "midi": 71,
      "hit": false,
      "t": 141328.125,
      "d": 36.62109375,
      "v": 107
    },
    {
      "midi": 47,
      "hit": false,
      "t": 141445.3125,
      "d": 39.0625,
      "v": 107
    },
    {
      "midi": 47,
      "hit": false,
      "t": 141445.3125,
      "d": 39.0625,
      "v": 125
    },
    {
      "midi": 71,
      "hit": false,
      "t": 141445.3125,
      "d": 78.125,
      "v": 107
    },
    {
      "midi": 35,
      "hit": false,
      "t": 141562.5,
      "d": 234.375,
      "v": 127
    },
    {
      "midi": 47,
      "hit": false,
      "t": 141562.5,
      "d": 46.38671875,
      "v": 113
    },
    {
      "midi": 47,
      "hit": false,
      "t": 141562.5,
      "d": 46.38671875,
      "v": 127
    },
    {
      "midi": 59,
      "hit": false,
      "t": 141562.5,
      "d": 236.81640625,
      "v": 107
    },
    {
      "midi": 54,
      "hit": false,
      "t": 141562.5,
      "d": 266.11328125,
      "v": 127
    },
    {
      "midi": 47,
      "hit": false,
      "t": 141796.875,
      "d": 234.375,
      "v": 127
    },
    {
      "midi": 47,
      "hit": false,
      "t": 141796.875,
      "d": 48.828125,
      "v": 105
    },
    {
      "midi": 47,
      "hit": false,
      "t": 141796.875,
      "d": 48.828125,
      "v": 123
    },
    {
      "midi": 71,
      "hit": false,
      "t": 141796.875,
      "d": 48.828125,
      "v": 127
    },
    {
      "midi": 71,
      "hit": false,
      "t": 141796.875,
      "d": 48.828125,
      "v": 127
    },
    {
      "midi": 63,
      "hit": false,
      "t": 141796.875,
      "d": 173.33984375,
      "v": 107
    },
    {
      "midi": 56,
      "hit": false,
      "t": 141796.875,
      "d": 234.375,
      "v": 127
    },
    {
      "midi": 47,
      "hit": false,
      "t": 141914.0625,
      "d": 43.9453125,
      "v": 116
    },
    {
      "midi": 47,
      "hit": false,
      "t": 141914.0625,
      "d": 43.9453125,
      "v": 127
    },
    {
      "midi": 71,
      "hit": false,
      "t": 141914.0625,
      "d": 65.91796875,
      "v": 127
    },
    {
      "midi": 71,
      "hit": false,
      "t": 141914.0625,
      "d": 63.4765625,
      "v": 110
    },
    {
      "midi": 35,
      "hit": false,
      "t": 142031.25,
      "d": 234.375,
      "v": 127
    },
    {
      "midi": 47,
      "hit": false,
      "t": 142031.25,
      "d": 51.26953125,
      "v": 116
    },
    {
      "midi": 47,
      "hit": false,
      "t": 142031.25,
      "d": 51.26953125,
      "v": 127
    },
    {
      "midi": 71,
      "hit": false,
      "t": 142031.25,
      "d": 56.15234375,
      "v": 127
    },
    {
      "midi": 73,
      "hit": false,
      "t": 142031.25,
      "d": 36.62109375,
      "v": 116
    },
    {
      "midi": 57,
      "hit": false,
      "t": 142031.25,
      "d": 200.1953125,
      "v": 105
    },
    {
      "midi": 64,
      "hit": false,
      "t": 142031.25,
      "d": 285.64453125,
      "v": 82
    },
    {
      "midi": 71,
      "hit": false,
      "t": 142148.4375,
      "d": 68.359375,
      "v": 127
    },
    {
      "midi": 73,
      "hit": false,
      "t": 142148.4375,
      "d": 39.0625,
      "v": 105
    },
    {
      "midi": 47,
      "hit": false,
      "t": 142265.625,
      "d": 234.375,
      "v": 127
    },
    {
      "midi": 47,
      "hit": false,
      "t": 142265.625,
      "d": 53.7109375,
      "v": 105
    },
    {
      "midi": 47,
      "hit": false,
      "t": 142265.625,
      "d": 53.7109375,
      "v": 123
    },
    {
      "midi": 71,
      "hit": false,
      "t": 142265.625,
      "d": 87.890625,
      "v": 127
    },
    {
      "midi": 71,
      "hit": false,
      "t": 142265.625,
      "d": 46.38671875,
      "v": 122
    },
    {
      "midi": 63,
      "hit": false,
      "t": 142265.625,
      "d": 986.328125,
      "v": 127
    },
    {
      "midi": 66,
      "hit": false,
      "t": 142265.625,
      "d": 1154.78515625,
      "v": 110
    },
    {
      "midi": 47,
      "hit": false,
      "t": 142382.8125,
      "d": 65.91796875,
      "v": 105
    },
    {
      "midi": 47,
      "hit": false,
      "t": 142382.8125,
      "d": 65.91796875,
      "v": 123
    },
    {
      "midi": 71,
      "hit": false,
      "t": 142382.8125,
      "d": 85.44921875,
      "v": 107
    },
    {
      "midi": 35,
      "hit": false,
      "t": 142500,
      "d": 234.375,
      "v": 127
    },
    {
      "midi": 47,
      "hit": false,
      "t": 142500,
      "d": 48.828125,
      "v": 110
    },
    {
      "midi": 47,
      "hit": false,
      "t": 142500,
      "d": 48.828125,
      "v": 127
    },
    {
      "midi": 47,
      "hit": false,
      "t": 142734.375,
      "d": 234.375,
      "v": 127
    },
    {
      "midi": 47,
      "hit": false,
      "t": 142734.375,
      "d": 53.7109375,
      "v": 105
    },
    {
      "midi": 47,
      "hit": false,
      "t": 142734.375,
      "d": 53.7109375,
      "v": 123
    },
    {
      "midi": 71,
      "hit": false,
      "t": 142734.375,
      "d": 56.15234375,
      "v": 127
    },
    {
      "midi": 71,
      "hit": false,
      "t": 142734.375,
      "d": 34.1796875,
      "v": 119
    },
    {
      "midi": 47,
      "hit": false,
      "t": 142851.5625,
      "d": 48.828125,
      "v": 116
    },
    {
      "midi": 47,
      "hit": false,
      "t": 142851.5625,
      "d": 48.828125,
      "v": 127
    },
    {
      "midi": 71,
      "hit": false,
      "t": 142851.5625,
      "d": 70.80078125,
      "v": 127
    },
    {
      "midi": 71,
      "hit": false,
      "t": 142851.5625,
      "d": 61.03515625,
      "v": 105
    },
    {
      "midi": 35,
      "hit": false,
      "t": 142968.75,
      "d": 234.375,
      "v": 127
    },
    {
      "midi": 47,
      "hit": false,
      "t": 142968.75,
      "d": 53.7109375,
      "v": 113
    },
    {
      "midi": 47,
      "hit": false,
      "t": 142968.75,
      "d": 53.7109375,
      "v": 127
    },
    {
      "midi": 71,
      "hit": false,
      "t": 142968.75,
      "d": 58.59375,
      "v": 127
    },
    {
      "midi": 73,
      "hit": false,
      "t": 142968.75,
      "d": 26.85546875,
      "v": 113
    },
    {
      "midi": 71,
      "hit": false,
      "t": 143085.9375,
      "d": 78.125,
      "v": 127
    },
    {
      "midi": 73,
      "hit": false,
      "t": 143085.9375,
      "d": 51.26953125,
      "v": 110
    },
    {
      "midi": 47,
      "hit": false,
      "t": 143203.125,
      "d": 234.375,
      "v": 127
    },
    {
      "midi": 47,
      "hit": false,
      "t": 143203.125,
      "d": 58.59375,
      "v": 105
    },
    {
      "midi": 47,
      "hit": false,
      "t": 143203.125,
      "d": 58.59375,
      "v": 123
    },
    {
      "midi": 71,
      "hit": false,
      "t": 143203.125,
      "d": 80.56640625,
      "v": 127
    },
    {
      "midi": 72,
      "hit": false,
      "t": 143203.125,
      "d": 24.4140625,
      "v": 107
    },
    {
      "midi": 71,
      "hit": false,
      "t": 143203.125,
      "d": 36.62109375,
      "v": 107
    },
    {
      "midi": 47,
      "hit": false,
      "t": 143320.3125,
      "d": 85.44921875,
      "v": 110
    },
    {
      "midi": 47,
      "hit": false,
      "t": 143320.3125,
      "d": 85.44921875,
      "v": 127
    },
    {
      "midi": 71,
      "hit": false,
      "t": 143320.3125,
      "d": 78.125,
      "v": 107
    },
    {
      "midi": 35,
      "hit": false,
      "t": 143437.5,
      "d": 234.375,
      "v": 127
    },
    {
      "midi": 47,
      "hit": false,
      "t": 143437.5,
      "d": 53.7109375,
      "v": 116
    },
    {
      "midi": 47,
      "hit": false,
      "t": 143437.5,
      "d": 53.7109375,
      "v": 127
    },
    {
      "midi": 59,
      "hit": false,
      "t": 143437.5,
      "d": 253.90625,
      "v": 102
    },
    {
      "midi": 54,
      "hit": false,
      "t": 143437.5,
      "d": 307.6171875,
      "v": 127
    },
    {
      "midi": 47,
      "hit": false,
      "t": 143671.875,
      "d": 234.375,
      "v": 127
    },
    {
      "midi": 47,
      "hit": false,
      "t": 143671.875,
      "d": 53.7109375,
      "v": 110
    },
    {
      "midi": 47,
      "hit": false,
      "t": 143671.875,
      "d": 53.7109375,
      "v": 127
    },
    {
      "midi": 71,
      "hit": false,
      "t": 143671.875,
      "d": 56.15234375,
      "v": 127
    },
    {
      "midi": 71,
      "hit": false,
      "t": 143671.875,
      "d": 48.828125,
      "v": 127
    },
    {
      "midi": 63,
      "hit": false,
      "t": 143671.875,
      "d": 200.1953125,
      "v": 110
    },
    {
      "midi": 56,
      "hit": false,
      "t": 143671.875,
      "d": 310.05859375,
      "v": 127
    },
    {
      "midi": 47,
      "hit": false,
      "t": 143789.0625,
      "d": 51.26953125,
      "v": 110
    },
    {
      "midi": 47,
      "hit": false,
      "t": 143789.0625,
      "d": 51.26953125,
      "v": 127
    },
    {
      "midi": 71,
      "hit": false,
      "t": 143789.0625,
      "d": 70.80078125,
      "v": 127
    },
    {
      "midi": 71,
      "hit": false,
      "t": 143789.0625,
      "d": 63.4765625,
      "v": 110
    },
    {
      "midi": 35,
      "hit": false,
      "t": 143906.25,
      "d": 234.375,
      "v": 127
    },
    {
      "midi": 47,
      "hit": false,
      "t": 143906.25,
      "d": 51.26953125,
      "v": 116
    },
    {
      "midi": 47,
      "hit": false,
      "t": 143906.25,
      "d": 51.26953125,
      "v": 127
    },
    {
      "midi": 71,
      "hit": false,
      "t": 143906.25,
      "d": 63.4765625,
      "v": 127
    },
    {
      "midi": 73,
      "hit": false,
      "t": 143906.25,
      "d": 36.62109375,
      "v": 116
    },
    {
      "midi": 57,
      "hit": false,
      "t": 143906.25,
      "d": 234.375,
      "v": 98
    },
    {
      "midi": 64,
      "hit": false,
      "t": 143906.25,
      "d": 258.7890625,
      "v": 76
    },
    {
      "midi": 71,
      "hit": false,
      "t": 144023.4375,
      "d": 65.91796875,
      "v": 127
    },
    {
      "midi": 73,
      "hit": false,
      "t": 144023.4375,
      "d": 39.0625,
      "v": 105
    },
    {
      "midi": 47,
      "hit": false,
      "t": 144140.625,
      "d": 234.375,
      "v": 127
    },
    {
      "midi": 47,
      "hit": false,
      "t": 144140.625,
      "d": 53.7109375,
      "v": 105
    },
    {
      "midi": 47,
      "hit": false,
      "t": 144140.625,
      "d": 53.7109375,
      "v": 123
    },
    {
      "midi": 71,
      "hit": false,
      "t": 144140.625,
      "d": 85.44921875,
      "v": 127
    },
    {
      "midi": 71,
      "hit": false,
      "t": 144140.625,
      "d": 46.38671875,
      "v": 122
    },
    {
      "midi": 63,
      "hit": false,
      "t": 144140.625,
      "d": 883.7890625,
      "v": 127
    },
    {
      "midi": 66,
      "hit": false,
      "t": 144140.625,
      "d": 1169.43359375,
      "v": 110
    },
    {
      "midi": 47,
      "hit": false,
      "t": 144257.8125,
      "d": 70.80078125,
      "v": 107
    },
    {
      "midi": 47,
      "hit": false,
      "t": 144257.8125,
      "d": 70.80078125,
      "v": 125
    },
    {
      "midi": 71,
      "hit": false,
      "t": 144257.8125,
      "d": 85.44921875,
      "v": 107
    },
    {
      "midi": 35,
      "hit": false,
      "t": 144375,
      "d": 234.375,
      "v": 127
    },
    {
      "midi": 47,
      "hit": false,
      "t": 144375,
      "d": 51.26953125,
      "v": 113
    },
    {
      "midi": 47,
      "hit": false,
      "t": 144375,
      "d": 51.26953125,
      "v": 127
    },
    {
      "midi": 47,
      "hit": false,
      "t": 144609.375,
      "d": 234.375,
      "v": 127
    },
    {
      "midi": 47,
      "hit": false,
      "t": 144609.375,
      "d": 48.828125,
      "v": 102
    },
    {
      "midi": 47,
      "hit": false,
      "t": 144609.375,
      "d": 48.828125,
      "v": 120
    },
    {
      "midi": 71,
      "hit": false,
      "t": 144609.375,
      "d": 41.50390625,
      "v": 127
    },
    {
      "midi": 71,
      "hit": false,
      "t": 144609.375,
      "d": 34.1796875,
      "v": 119
    },
    {
      "midi": 47,
      "hit": false,
      "t": 144726.5625,
      "d": 63.4765625,
      "v": 105
    },
    {
      "midi": 47,
      "hit": false,
      "t": 144726.5625,
      "d": 63.4765625,
      "v": 123
    },
    {
      "midi": 71,
      "hit": false,
      "t": 144726.5625,
      "d": 70.80078125,
      "v": 127
    },
    {
      "midi": 71,
      "hit": false,
      "t": 144726.5625,
      "d": 61.03515625,
      "v": 105
    },
    {
      "midi": 35,
      "hit": false,
      "t": 144843.75,
      "d": 234.375,
      "v": 127
    },
    {
      "midi": 47,
      "hit": false,
      "t": 144843.75,
      "d": 61.03515625,
      "v": 116
    },
    {
      "midi": 47,
      "hit": false,
      "t": 144843.75,
      "d": 61.03515625,
      "v": 127
    },
    {
      "midi": 71,
      "hit": false,
      "t": 144843.75,
      "d": 51.26953125,
      "v": 127
    },
    {
      "midi": 73,
      "hit": false,
      "t": 144843.75,
      "d": 26.85546875,
      "v": 113
    },
    {
      "midi": 71,
      "hit": false,
      "t": 144960.9375,
      "d": 87.890625,
      "v": 127
    },
    {
      "midi": 73,
      "hit": false,
      "t": 144960.9375,
      "d": 51.26953125,
      "v": 110
    },
    {
      "midi": 47,
      "hit": false,
      "t": 145078.125,
      "d": 234.375,
      "v": 127
    },
    {
      "midi": 47,
      "hit": false,
      "t": 145078.125,
      "d": 53.7109375,
      "v": 100
    },
    {
      "midi": 47,
      "hit": false,
      "t": 145078.125,
      "d": 53.7109375,
      "v": 118
    },
    {
      "midi": 71,
      "hit": false,
      "t": 145078.125,
      "d": 90.33203125,
      "v": 127
    },
    {
      "midi": 72,
      "hit": false,
      "t": 145078.125,
      "d": 24.4140625,
      "v": 107
    },
    {
      "midi": 71,
      "hit": false,
      "t": 145078.125,
      "d": 36.62109375,
      "v": 107
    },
    {
      "midi": 47,
      "hit": false,
      "t": 145195.3125,
      "d": 58.59375,
      "v": 119
    },
    {
      "midi": 47,
      "hit": false,
      "t": 145195.3125,
      "d": 58.59375,
      "v": 127
    },
    {
      "midi": 71,
      "hit": false,
      "t": 145195.3125,
      "d": 78.125,
      "v": 107
    },
    {
      "midi": 35,
      "hit": false,
      "t": 145312.5,
      "d": 234.375,
      "v": 127
    },
    {
      "midi": 47,
      "hit": false,
      "t": 145312.5,
      "d": 53.7109375,
      "v": 116
    },
    {
      "midi": 47,
      "hit": false,
      "t": 145312.5,
      "d": 53.7109375,
      "v": 127
    },
    {
      "midi": 59,
      "hit": false,
      "t": 145312.5,
      "d": 202.63671875,
      "v": 110
    },
    {
      "midi": 54,
      "hit": false,
      "t": 145312.5,
      "d": 334.47265625,
      "v": 125
    },
    {
      "midi": 47,
      "hit": false,
      "t": 145546.875,
      "d": 234.375,
      "v": 127
    },
    {
      "midi": 47,
      "hit": false,
      "t": 145546.875,
      "d": 58.59375,
      "v": 107
    },
    {
      "midi": 47,
      "hit": false,
      "t": 145546.875,
      "d": 58.59375,
      "v": 125
    },
    {
      "midi": 71,
      "hit": false,
      "t": 145546.875,
      "d": 58.59375,
      "v": 127
    },
    {
      "midi": 71,
      "hit": false,
      "t": 145546.875,
      "d": 48.828125,
      "v": 127
    },
    {
      "midi": 56,
      "hit": false,
      "t": 145546.875,
      "d": 183.10546875,
      "v": 127
    },
    {
      "midi": 63,
      "hit": false,
      "t": 145546.875,
      "d": 205.078125,
      "v": 105
    },
    {
      "midi": 47,
      "hit": false,
      "t": 145664.0625,
      "d": 61.03515625,
      "v": 110
    },
    {
      "midi": 47,
      "hit": false,
      "t": 145664.0625,
      "d": 61.03515625,
      "v": 127
    },
    {
      "midi": 71,
      "hit": false,
      "t": 145664.0625,
      "d": 65.91796875,
      "v": 127
    },
    {
      "midi": 71,
      "hit": false,
      "t": 145664.0625,
      "d": 63.4765625,
      "v": 110
    },
    {
      "midi": 35,
      "hit": false,
      "t": 145781.25,
      "d": 234.375,
      "v": 127
    },
    {
      "midi": 47,
      "hit": false,
      "t": 145781.25,
      "d": 56.15234375,
      "v": 116
    },
    {
      "midi": 47,
      "hit": false,
      "t": 145781.25,
      "d": 56.15234375,
      "v": 127
    },
    {
      "midi": 71,
      "hit": false,
      "t": 145781.25,
      "d": 51.26953125,
      "v": 127
    },
    {
      "midi": 73,
      "hit": false,
      "t": 145781.25,
      "d": 36.62109375,
      "v": 116
    },
    {
      "midi": 57,
      "hit": false,
      "t": 145781.25,
      "d": 92.7734375,
      "v": 127
    },
    {
      "midi": 64,
      "hit": false,
      "t": 145781.25,
      "d": 187.98828125,
      "v": 80
    },
    {
      "midi": 71,
      "hit": false,
      "t": 145898.4375,
      "d": 70.80078125,
      "v": 127
    },
    {
      "midi": 73,
      "hit": false,
      "t": 145898.4375,
      "d": 39.0625,
      "v": 105
    },
    {
      "midi": 47,
      "hit": false,
      "t": 146015.625,
      "d": 234.375,
      "v": 127
    },
    {
      "midi": 47,
      "hit": false,
      "t": 146015.625,
      "d": 53.7109375,
      "v": 102
    },
    {
      "midi": 47,
      "hit": false,
      "t": 146015.625,
      "d": 53.7109375,
      "v": 120
    },
    {
      "midi": 71,
      "hit": false,
      "t": 146015.625,
      "d": 83.0078125,
      "v": 127
    },
    {
      "midi": 71,
      "hit": false,
      "t": 146015.625,
      "d": 46.38671875,
      "v": 122
    },
    {
      "midi": 57,
      "hit": false,
      "t": 146015.625,
      "d": 327.1484375,
      "v": 127
    },
    {
      "midi": 66,
      "hit": false,
      "t": 146015.625,
      "d": 373.53515625,
      "v": 110
    },
    {
      "midi": 47,
      "hit": false,
      "t": 146132.8125,
      "d": 46.38671875,
      "v": 110
    },
    {
      "midi": 47,
      "hit": false,
      "t": 146132.8125,
      "d": 46.38671875,
      "v": 127
    },
    {
      "midi": 71,
      "hit": false,
      "t": 146132.8125,
      "d": 85.44921875,
      "v": 107
    },
    {
      "midi": 33,
      "hit": false,
      "t": 146250,
      "d": 234.375,
      "v": 127
    },
    {
      "midi": 69,
      "hit": false,
      "t": 146250,
      "d": 771.484375,
      "v": 55
    },
    {
      "midi": 73,
      "hit": false,
      "t": 146250,
      "d": 798.33984375,
      "v": 60
    },
    {
      "midi": 76,
      "hit": false,
      "t": 146250,
      "d": 800.78125,
      "v": 48
    },
    {
      "midi": 45,
      "hit": false,
      "t": 146250,
      "d": 53.7109375,
      "v": 119
    },
    {
      "midi": 45,
      "hit": false,
      "t": 146250,
      "d": 53.7109375,
      "v": 127
    },
    {
      "midi": 57,
      "hit": false,
      "t": 146271.97265625,
      "d": 805.6640625,
      "v": 105
    },
    {
      "midi": 61,
      "hit": false,
      "t": 146274.4140625,
      "d": 854.4921875,
      "v": 107
    },
    {
      "midi": 64,
      "hit": false,
      "t": 146281.73828125,
      "d": 812.98828125,
      "v": 113
    },
    {
      "midi": 45,
      "hit": false,
      "t": 146484.375,
      "d": 234.375,
      "v": 127
    },
    {
      "midi": 45,
      "hit": false,
      "t": 146484.375,
      "d": 41.50390625,
      "v": 102
    },
    {
      "midi": 45,
      "hit": false,
      "t": 146484.375,
      "d": 41.50390625,
      "v": 120
    },
    {
      "midi": 69,
      "hit": false,
      "t": 146484.375,
      "d": 39.0625,
      "v": 127
    },
    {
      "midi": 71,
      "hit": false,
      "t": 146484.375,
      "d": 34.1796875,
      "v": 119
    },
    {
      "midi": 57,
      "hit": false,
      "t": 146484.375,
      "d": 85.44921875,
      "v": 127
    },
    {
      "midi": 66,
      "hit": false,
      "t": 146484.375,
      "d": 102.5390625,
      "v": 107
    },
    {
      "midi": 45,
      "hit": false,
      "t": 146601.5625,
      "d": 48.828125,
      "v": 110
    },
    {
      "midi": 45,
      "hit": false,
      "t": 146601.5625,
      "d": 48.828125,
      "v": 127
    },
    {
      "midi": 69,
      "hit": false,
      "t": 146601.5625,
      "d": 51.26953125,
      "v": 127
    },
    {
      "midi": 71,
      "hit": false,
      "t": 146601.5625,
      "d": 61.03515625,
      "v": 105
    },
    {
      "midi": 33,
      "hit": false,
      "t": 146718.75,
      "d": 234.375,
      "v": 127
    },
    {
      "midi": 45,
      "hit": false,
      "t": 146718.75,
      "d": 48.828125,
      "v": 110
    },
    {
      "midi": 45,
      "hit": false,
      "t": 146718.75,
      "d": 48.828125,
      "v": 127
    },
    {
      "midi": 69,
      "hit": false,
      "t": 146718.75,
      "d": 65.91796875,
      "v": 127
    },
    {
      "midi": 73,
      "hit": false,
      "t": 146718.75,
      "d": 26.85546875,
      "v": 113
    },
    {
      "midi": 57,
      "hit": false,
      "t": 146718.75,
      "d": 83.0078125,
      "v": 127
    },
    {
      "midi": 66,
      "hit": false,
      "t": 146718.75,
      "d": 92.7734375,
      "v": 110
    },
    {
      "midi": 69,
      "hit": false,
      "t": 146835.9375,
      "d": 63.4765625,
      "v": 127
    },
    {
      "midi": 73,
      "hit": false,
      "t": 146835.9375,
      "d": 51.26953125,
      "v": 110
    },
    {
      "midi": 45,
      "hit": false,
      "t": 146953.125,
      "d": 234.375,
      "v": 127
    },
    {
      "midi": 45,
      "hit": false,
      "t": 146953.125,
      "d": 36.62109375,
      "v": 105
    },
    {
      "midi": 45,
      "hit": false,
      "t": 146953.125,
      "d": 36.62109375,
      "v": 123
    },
    {
      "midi": 69,
      "hit": false,
      "t": 146953.125,
      "d": 95.21484375,
      "v": 127
    },
    {
      "midi": 72,
      "hit": false,
      "t": 146953.125,
      "d": 24.4140625,
      "v": 107
    },
    {
      "midi": 71,
      "hit": false,
      "t": 146953.125,
      "d": 36.62109375,
      "v": 107
    },
    {
      "midi": 66,
      "hit": false,
      "t": 146953.125,
      "d": 400.390625,
      "v": 113
    },
    {
      "midi": 57,
      "hit": false,
      "t": 146953.125,
      "d": 424.8046875,
      "v": 127
    },
    {
      "midi": 45,
      "hit": false,
      "t": 147070.3125,
      "d": 29.296875,
      "v": 105
    },
    {
      "midi": 45,
      "hit": false,
      "t": 147070.3125,
      "d": 29.296875,
      "v": 123
    },
    {
      "midi": 71,
      "hit": false,
      "t": 147070.3125,
      "d": 78.125,
      "v": 107
    },
    {
      "midi": 35,
      "hit": false,
      "t": 147187.5,
      "d": 234.375,
      "v": 127
    },
    {
      "midi": 78,
      "hit": false,
      "t": 147187.5,
      "d": 778.80859375,
      "v": 57
    },
    {
      "midi": 75,
      "hit": false,
      "t": 147187.5,
      "d": 800.78125,
      "v": 57
    },
    {
      "midi": 71,
      "hit": false,
      "t": 147187.5,
      "d": 805.6640625,
      "v": 35
    },
    {
      "midi": 47,
      "hit": false,
      "t": 147187.5,
      "d": 53.7109375,
      "v": 116
    },
    {
      "midi": 47,
      "hit": false,
      "t": 147187.5,
      "d": 53.7109375,
      "v": 127
    },
    {
      "midi": 59,
      "hit": false,
      "t": 147229.00390625,
      "d": 773.92578125,
      "v": 113
    },
    {
      "midi": 63,
      "hit": false,
      "t": 147233.88671875,
      "d": 822.75390625,
      "v": 113
    },
    {
      "midi": 66,
      "hit": false,
      "t": 147236.328125,
      "d": 798.33984375,
      "v": 113
    },
    {
      "midi": 47,
      "hit": false,
      "t": 147421.875,
      "d": 234.375,
      "v": 127
    },
    {
      "midi": 47,
      "hit": false,
      "t": 147421.875,
      "d": 43.9453125,
      "v": 98
    },
    {
      "midi": 47,
      "hit": false,
      "t": 147421.875,
      "d": 43.9453125,
      "v": 116
    },
    {
      "midi": 71,
      "hit": false,
      "t": 147421.875,
      "d": 46.38671875,
      "v": 127
    },
    {
      "midi": 71,
      "hit": false,
      "t": 147421.875,
      "d": 48.828125,
      "v": 127
    },
    {
      "midi": 64,
      "hit": false,
      "t": 147421.875,
      "d": 236.81640625,
      "v": 100
    },
    {
      "midi": 56,
      "hit": false,
      "t": 147421.875,
      "d": 280.76171875,
      "v": 120
    },
    {
      "midi": 47,
      "hit": false,
      "t": 147539.0625,
      "d": 56.15234375,
      "v": 116
    },
    {
      "midi": 47,
      "hit": false,
      "t": 147539.0625,
      "d": 56.15234375,
      "v": 127
    },
    {
      "midi": 71,
      "hit": false,
      "t": 147539.0625,
      "d": 65.91796875,
      "v": 127
    },
    {
      "midi": 71,
      "hit": false,
      "t": 147539.0625,
      "d": 63.4765625,
      "v": 110
    },
    {
      "midi": 35,
      "hit": false,
      "t": 147656.25,
      "d": 234.375,
      "v": 127
    },
    {
      "midi": 47,
      "hit": false,
      "t": 147656.25,
      "d": 43.9453125,
      "v": 113
    },
    {
      "midi": 47,
      "hit": false,
      "t": 147656.25,
      "d": 43.9453125,
      "v": 127
    },
    {
      "midi": 71,
      "hit": false,
      "t": 147656.25,
      "d": 53.7109375,
      "v": 127
    },
    {
      "midi": 73,
      "hit": false,
      "t": 147656.25,
      "d": 36.62109375,
      "v": 116
    },
    {
      "midi": 63,
      "hit": false,
      "t": 147656.25,
      "d": 144.04296875,
      "v": 110
    },
    {
      "midi": 54,
      "hit": false,
      "t": 147656.25,
      "d": 185.546875,
      "v": 127
    },
    {
      "midi": 71,
      "hit": false,
      "t": 147773.4375,
      "d": 78.125,
      "v": 127
    },
    {
      "midi": 73,
      "hit": false,
      "t": 147773.4375,
      "d": 39.0625,
      "v": 105
    },
    {
      "midi": 47,
      "hit": false,
      "t": 147890.625,
      "d": 234.375,
      "v": 127
    },
    {
      "midi": 47,
      "hit": false,
      "t": 147890.625,
      "d": 53.7109375,
      "v": 110
    },
    {
      "midi": 47,
      "hit": false,
      "t": 147890.625,
      "d": 53.7109375,
      "v": 127
    },
    {
      "midi": 71,
      "hit": false,
      "t": 147890.625,
      "d": 97.65625,
      "v": 127
    },
    {
      "midi": 71,
      "hit": false,
      "t": 147890.625,
      "d": 46.38671875,
      "v": 122
    },
    {
      "midi": 52,
      "hit": false,
      "t": 147890.625,
      "d": 1074.21875,
      "v": 127
    },
    {
      "midi": 64,
      "hit": false,
      "t": 147890.625,
      "d": 1140.13671875,
      "v": 110
    },
    {
      "midi": 47,
      "hit": false,
      "t": 148007.8125,
      "d": 46.38671875,
      "v": 105
    },
    {
      "midi": 47,
      "hit": false,
      "t": 148007.8125,
      "d": 46.38671875,
      "v": 123
    },
    {
      "midi": 71,
      "hit": false,
      "t": 148007.8125,
      "d": 85.44921875,
      "v": 107
    },
    {
      "midi": 28,
      "hit": false,
      "t": 148125,
      "d": 234.375,
      "v": 127
    },
    {
      "midi": 68,
      "hit": false,
      "t": 148125,
      "d": 1640.625,
      "v": 52
    },
    {
      "midi": 71,
      "hit": false,
      "t": 148125,
      "d": 1640.625,
      "v": 45
    },
    {
      "midi": 76,
      "hit": false,
      "t": 148125,
      "d": 1640.625,
      "v": 50
    },
    {
      "midi": 52,
      "hit": false,
      "t": 148125,
      "d": 53.7109375,
      "v": 119
    },
    {
      "midi": 52,
      "hit": false,
      "t": 148125,
      "d": 53.7109375,
      "v": 127
    },
    {
      "midi": 64,
      "hit": false,
      "t": 148178.7109375,
      "d": 1586.9140625,
      "v": 113
    },
    {
      "midi": 71,
      "hit": false,
      "t": 148186.03515625,
      "d": 1579.58984375,
      "v": 113
    },
    {
      "midi": 68,
      "hit": false,
      "t": 148190.91796875,
      "d": 1574.70703125,
      "v": 113
    },
    {
      "midi": 40,
      "hit": false,
      "t": 148359.375,
      "d": 234.375,
      "v": 127
    },
    {
      "midi": 52,
      "hit": false,
      "t": 148359.375,
      "d": 46.38671875,
      "v": 116
    },
    {
      "midi": 52,
      "hit": false,
      "t": 148359.375,
      "d": 46.38671875,
      "v": 127
    },
    {
      "midi": 76,
      "hit": false,
      "t": 148359.375,
      "d": 51.26953125,
      "v": 127
    },
    {
      "midi": 71,
      "hit": false,
      "t": 148359.375,
      "d": 34.1796875,
      "v": 119
    },
    {
      "midi": 52,
      "hit": false,
      "t": 148476.5625,
      "d": 85.44921875,
      "v": 119
    },
    {
      "midi": 52,
      "hit": false,
      "t": 148476.5625,
      "d": 85.44921875,
      "v": 127
    },
    {
      "midi": 76,
      "hit": false,
      "t": 148476.5625,
      "d": 63.4765625,
      "v": 127
    },
    {
      "midi": 71,
      "hit": false,
      "t": 148476.5625,
      "d": 61.03515625,
      "v": 105
    },
    {
      "midi": 28,
      "hit": false,
      "t": 148593.75,
      "d": 234.375,
      "v": 127
    },
    {
      "midi": 52,
      "hit": false,
      "t": 148593.75,
      "d": 51.26953125,
      "v": 116
    },
    {
      "midi": 52,
      "hit": false,
      "t": 148593.75,
      "d": 51.26953125,
      "v": 127
    },
    {
      "midi": 76,
      "hit": false,
      "t": 148593.75,
      "d": 53.7109375,
      "v": 127
    },
    {
      "midi": 73,
      "hit": false,
      "t": 148593.75,
      "d": 26.85546875,
      "v": 113
    },
    {
      "midi": 76,
      "hit": false,
      "t": 148710.9375,
      "d": 73.2421875,
      "v": 127
    },
    {
      "midi": 73,
      "hit": false,
      "t": 148710.9375,
      "d": 51.26953125,
      "v": 110
    },
    {
      "midi": 40,
      "hit": false,
      "t": 148828.125,
      "d": 234.375,
      "v": 127
    },
    {
      "midi": 52,
      "hit": false,
      "t": 148828.125,
      "d": 43.9453125,
      "v": 105
    },
    {
      "midi": 52,
      "hit": false,
      "t": 148828.125,
      "d": 43.9453125,
      "v": 123
    },
    {
      "midi": 76,
      "hit": false,
      "t": 148828.125,
      "d": 75.68359375,
      "v": 127
    },
    {
      "midi": 72,
      "hit": false,
      "t": 148828.125,
      "d": 24.4140625,
      "v": 107
    },
    {
      "midi": 71,
      "hit": false,
      "t": 148828.125,
      "d": 36.62109375,
      "v": 107
    },
    {
      "midi": 52,
      "hit": false,
      "t": 148945.3125,
      "d": 46.38671875,
      "v": 110
    },
    {
      "midi": 52,
      "hit": false,
      "t": 148945.3125,
      "d": 46.38671875,
      "v": 127
    },
    {
      "midi": 71,
      "hit": false,
      "t": 148945.3125,
      "d": 78.125,
      "v": 107
    },
    {
      "midi": 28,
      "hit": false,
      "t": 149062.5,
      "d": 234.375,
      "v": 127
    },
    {
      "midi": 52,
      "hit": false,
      "t": 149062.5,
      "d": 43.9453125,
      "v": 113
    },
    {
      "midi": 52,
      "hit": false,
      "t": 149062.5,
      "d": 43.9453125,
      "v": 127
    },
    {
      "midi": 40,
      "hit": false,
      "t": 149296.875,
      "d": 234.375,
      "v": 127
    },
    {
      "midi": 52,
      "hit": false,
      "t": 149296.875,
      "d": 43.9453125,
      "v": 105
    },
    {
      "midi": 52,
      "hit": false,
      "t": 149296.875,
      "d": 43.9453125,
      "v": 123
    },
    {
      "midi": 76,
      "hit": false,
      "t": 149296.875,
      "d": 43.9453125,
      "v": 127
    },
    {
      "midi": 71,
      "hit": false,
      "t": 149296.875,
      "d": 48.828125,
      "v": 127
    },
    {
      "midi": 52,
      "hit": false,
      "t": 149414.0625,
      "d": 75.68359375,
      "v": 113
    },
    {
      "midi": 52,
      "hit": false,
      "t": 149414.0625,
      "d": 75.68359375,
      "v": 127
    },
    {
      "midi": 76,
      "hit": false,
      "t": 149414.0625,
      "d": 61.03515625,
      "v": 127
    },
    {
      "midi": 71,
      "hit": false,
      "t": 149414.0625,
      "d": 63.4765625,
      "v": 110
    },
    {
      "midi": 28,
      "hit": false,
      "t": 149531.25,
      "d": 234.375,
      "v": 127
    },
    {
      "midi": 52,
      "hit": false,
      "t": 149531.25,
      "d": 51.26953125,
      "v": 110
    },
    {
      "midi": 52,
      "hit": false,
      "t": 149531.25,
      "d": 51.26953125,
      "v": 127
    },
    {
      "midi": 76,
      "hit": false,
      "t": 149531.25,
      "d": 61.03515625,
      "v": 127
    },
    {
      "midi": 73,
      "hit": false,
      "t": 149531.25,
      "d": 36.62109375,
      "v": 116
    },
    {
      "midi": 76,
      "hit": false,
      "t": 149648.4375,
      "d": 70.80078125,
      "v": 127
    },
    {
      "midi": 73,
      "hit": false,
      "t": 149648.4375,
      "d": 39.0625,
      "v": 105
    },
    {
      "midi": 37,
      "hit": false,
      "t": 149765.625,
      "d": 234.375,
      "v": 127
    },
    {
      "midi": 49,
      "hit": false,
      "t": 149765.625,
      "d": 46.38671875,
      "v": 116
    },
    {
      "midi": 49,
      "hit": false,
      "t": 149765.625,
      "d": 46.38671875,
      "v": 127
    },
    {
      "midi": 76,
      "hit": false,
      "t": 149765.625,
      "d": 97.65625,
      "v": 127
    },
    {
      "midi": 71,
      "hit": false,
      "t": 149765.625,
      "d": 46.38671875,
      "v": 122
    },
    {
      "midi": 78,
      "hit": false,
      "t": 149765.625,
      "d": 786.1328125,
      "v": 122
    },
    {
      "midi": 73,
      "hit": false,
      "t": 149765.625,
      "d": 805.6640625,
      "v": 105
    },
    {
      "midi": 80,
      "hit": false,
      "t": 149765.625,
      "d": 815.4296875,
      "v": 122
    },
    {
      "midi": 49,
      "hit": false,
      "t": 149882.8125,
      "d": 85.44921875,
      "v": 119
    },
    {
      "midi": 49,
      "hit": false,
      "t": 149882.8125,
      "d": 85.44921875,
      "v": 127
    },
    {
      "midi": 71,
      "hit": false,
      "t": 149882.8125,
      "d": 85.44921875,
      "v": 107
    },
    {
      "midi": 25,
      "hit": false,
      "t": 150000,
      "d": 234.375,
      "v": 127
    },
    {
      "midi": 49,
      "hit": false,
      "t": 150000,
      "d": 51.26953125,
      "v": 116
    },
    {
      "midi": 49,
      "hit": false,
      "t": 150000,
      "d": 51.26953125,
      "v": 127
    },
    {
      "midi": 37,
      "hit": false,
      "t": 150234.375,
      "d": 234.375,
      "v": 127
    },
    {
      "midi": 49,
      "hit": false,
      "t": 150234.375,
      "d": 43.9453125,
      "v": 105
    },
    {
      "midi": 49,
      "hit": false,
      "t": 150234.375,
      "d": 43.9453125,
      "v": 123
    },
    {
      "midi": 49,
      "hit": false,
      "t": 150351.5625,
      "d": 46.38671875,
      "v": 110
    },
    {
      "midi": 49,
      "hit": false,
      "t": 150351.5625,
      "d": 46.38671875,
      "v": 127
    },
    {
      "midi": 25,
      "hit": false,
      "t": 150468.75,
      "d": 234.375,
      "v": 127
    },
    {
      "midi": 49,
      "hit": false,
      "t": 150468.75,
      "d": 43.9453125,
      "v": 113
    },
    {
      "midi": 49,
      "hit": false,
      "t": 150468.75,
      "d": 43.9453125,
      "v": 127
    },
    {
      "midi": 37,
      "hit": false,
      "t": 150703.125,
      "d": 234.375,
      "v": 127
    },
    {
      "midi": 49,
      "hit": false,
      "t": 150703.125,
      "d": 43.9453125,
      "v": 105
    },
    {
      "midi": 49,
      "hit": false,
      "t": 150703.125,
      "d": 43.9453125,
      "v": 123
    },
    {
      "midi": 77,
      "hit": false,
      "t": 150703.125,
      "d": 1008.30078125,
      "v": 110
    },
    {
      "midi": 80,
      "hit": false,
      "t": 150703.125,
      "d": 1010.7421875,
      "v": 100
    },
    {
      "midi": 73,
      "hit": false,
      "t": 150703.125,
      "d": 1020.5078125,
      "v": 100
    },
    {
      "midi": 49,
      "hit": false,
      "t": 150820.3125,
      "d": 75.68359375,
      "v": 113
    },
    {
      "midi": 49,
      "hit": false,
      "t": 150820.3125,
      "d": 75.68359375,
      "v": 127
    },
    {
      "midi": 25,
      "hit": false,
      "t": 150937.5,
      "d": 234.375,
      "v": 127
    },
    {
      "midi": 49,
      "hit": false,
      "t": 150937.5,
      "d": 51.26953125,
      "v": 110
    },
    {
      "midi": 49,
      "hit": false,
      "t": 150937.5,
      "d": 51.26953125,
      "v": 127
    },
    {
      "midi": 37,
      "hit": false,
      "t": 151171.875,
      "d": 234.375,
      "v": 127
    },
    {
      "midi": 49,
      "hit": false,
      "t": 151171.875,
      "d": 43.9453125,
      "v": 105
    },
    {
      "midi": 49,
      "hit": false,
      "t": 151171.875,
      "d": 43.9453125,
      "v": 123
    },
    {
      "midi": 49,
      "hit": false,
      "t": 151289.0625,
      "d": 46.38671875,
      "v": 110
    },
    {
      "midi": 49,
      "hit": false,
      "t": 151289.0625,
      "d": 46.38671875,
      "v": 127
    },
    {
      "midi": 25,
      "hit": false,
      "t": 151406.25,
      "d": 234.375,
      "v": 127
    },
    {
      "midi": 49,
      "hit": false,
      "t": 151406.25,
      "d": 43.9453125,
      "v": 127
    },
    {
      "midi": 37,
      "hit": false,
      "t": 151640.625,
      "d": 234.375,
      "v": 127
    },
    {
      "midi": 49,
      "hit": false,
      "t": 151640.625,
      "d": 43.9453125,
      "v": 123
    },
    {
      "midi": 49,
      "hit": false,
      "t": 151757.8125,
      "d": 75.68359375,
      "v": 127
    },
    {
      "midi": 30,
      "hit": false,
      "t": 151875,
      "d": 234.375,
      "v": 127
    },
    {
      "midi": 66,
      "hit": false,
      "t": 151875,
      "d": 3454.58984375,
      "v": 75
    },
    {
      "midi": 58,
      "hit": false,
      "t": 151875,
      "d": 3503.41796875,
      "v": 112
    },
    {
      "midi": 61,
      "hit": false,
      "t": 151875,
      "d": 3503.41796875,
      "v": 109
    },
    {
      "midi": 66,
      "hit": false,
      "t": 151875,
      "d": 3454.58984375,
      "v": 55
    },
    {
      "midi": 58,
      "hit": false,
      "t": 151875,
      "d": 3503.41796875,
      "v": 92
    },
    {
      "midi": 61,
      "hit": false,
      "t": 151875,
      "d": 3503.41796875,
      "v": 89
    },
    {
      "midi": 58,
      "hit": false,
      "t": 151875,
      "d": 295.41015625,
      "v": 127
    },
    {
      "midi": 54,
      "hit": false,
      "t": 151875,
      "d": 48.828125,
      "v": 127
    },
    {
      "midi": 42,
      "hit": false,
      "t": 152109.375,
      "d": 234.375,
      "v": 127
    },
    {
      "midi": 61,
      "hit": false,
      "t": 152109.375,
      "d": 175.78125,
      "v": 127
    },
    {
      "midi": 54,
      "hit": false,
      "t": 152109.375,
      "d": 29.296875,
      "v": 120
    },
    {
      "midi": 54,
      "hit": false,
      "t": 152226.5625,
      "d": 63.4765625,
      "v": 127
    },
    {
      "midi": 30,
      "hit": false,
      "t": 152343.75,
      "d": 234.375,
      "v": 122
    },
    {
      "midi": 65,
      "hit": false,
      "t": 152343.75,
      "d": 268.5546875,
      "v": 127
    },
    {
      "midi": 54,
      "hit": false,
      "t": 152343.75,
      "d": 51.26953125,
      "v": 127
    },
    {
      "midi": 42,
      "hit": false,
      "t": 152578.125,
      "d": 234.375,
      "v": 122
    },
    {
      "midi": 66,
      "hit": false,
      "t": 152578.125,
      "d": 412.59765625,
      "v": 127
    },
    {
      "midi": 54,
      "hit": false,
      "t": 152578.125,
      "d": 31.73828125,
      "v": 125
    },
    {
      "midi": 54,
      "hit": false,
      "t": 152695.3125,
      "d": 78.125,
      "v": 127
    },
    {
      "midi": 30,
      "hit": false,
      "t": 152812.5,
      "d": 234.375,
      "v": 122
    },
    {
      "midi": 54,
      "hit": false,
      "t": 152812.5,
      "d": 58.59375,
      "v": 127
    },
    {
      "midi": 42,
      "hit": false,
      "t": 153046.875,
      "d": 234.375,
      "v": 122
    },
    {
      "midi": 65,
      "hit": false,
      "t": 153046.875,
      "d": 217.28515625,
      "v": 127
    },
    {
      "midi": 54,
      "hit": false,
      "t": 153046.875,
      "d": 34.1796875,
      "v": 118
    },
    {
      "midi": 54,
      "hit": false,
      "t": 153164.0625,
      "d": 80.56640625,
      "v": 127
    },
    {
      "midi": 30,
      "hit": false,
      "t": 153281.25,
      "d": 234.375,
      "v": 125
    },
    {
      "midi": 66,
      "hit": false,
      "t": 153281.25,
      "d": 156.25,
      "v": 127
    },
    {
      "midi": 54,
      "hit": false,
      "t": 153281.25,
      "d": 58.59375,
      "v": 127
    },
    {
      "midi": 42,
      "hit": false,
      "t": 153515.625,
      "d": 234.375,
      "v": 122
    },
    {
      "midi": 68,
      "hit": false,
      "t": 153515.625,
      "d": 478.515625,
      "v": 127
    },
    {
      "midi": 54,
      "hit": false,
      "t": 153515.625,
      "d": 36.62109375,
      "v": 120
    },
    {
      "midi": 54,
      "hit": false,
      "t": 153632.8125,
      "d": 34.1796875,
      "v": 123
    },
    {
      "midi": 30,
      "hit": false,
      "t": 153750,
      "d": 234.375,
      "v": 125
    },
    {
      "midi": 54,
      "hit": false,
      "t": 153750,
      "d": 53.7109375,
      "v": 127
    },
    {
      "midi": 42,
      "hit": false,
      "t": 153984.375,
      "d": 234.375,
      "v": 119
    },
    {
      "midi": 66,
      "hit": false,
      "t": 153984.375,
      "d": 200.1953125,
      "v": 127
    },
    {
      "midi": 54,
      "hit": false,
      "t": 153984.375,
      "d": 36.62109375,
      "v": 120
    },
    {
      "midi": 54,
      "hit": false,
      "t": 154101.5625,
      "d": 56.15234375,
      "v": 127
    },
    {
      "midi": 30,
      "hit": false,
      "t": 154218.75,
      "d": 234.375,
      "v": 119
    },
    {
      "midi": 65,
      "hit": false,
      "t": 154218.75,
      "d": 275.87890625,
      "v": 127
    },
    {
      "midi": 54,
      "hit": false,
      "t": 154218.75,
      "d": 53.7109375,
      "v": 127
    },
    {
      "midi": 42,
      "hit": false,
      "t": 154453.125,
      "d": 234.375,
      "v": 122
    },
    {
      "midi": 66,
      "hit": false,
      "t": 154453.125,
      "d": 703.125,
      "v": 127
    },
    {
      "midi": 54,
      "hit": false,
      "t": 154453.125,
      "d": 36.62109375,
      "v": 120
    },
    {
      "midi": 54,
      "hit": false,
      "t": 154570.3125,
      "d": 29.296875,
      "v": 125
    },
    {
      "midi": 30,
      "hit": false,
      "t": 154687.5,
      "d": 234.375,
      "v": 122
    },
    {
      "midi": 54,
      "hit": false,
      "t": 154687.5,
      "d": 46.38671875,
      "v": 127
    },
    {
      "midi": 42,
      "hit": false,
      "t": 154921.875,
      "d": 234.375,
      "v": 119
    },
    {
      "midi": 54,
      "hit": false,
      "t": 154921.875,
      "d": 26.85546875,
      "v": 111
    },
    {
      "midi": 54,
      "hit": false,
      "t": 155039.0625,
      "d": 24.4140625,
      "v": 120
    },
    {
      "midi": 30,
      "hit": false,
      "t": 155156.25,
      "d": 234.375,
      "v": 125
    },
    {
      "midi": 54,
      "hit": false,
      "t": 155156.25,
      "d": 39.0625,
      "v": 127
    },
    {
      "midi": 42,
      "hit": false,
      "t": 155390.625,
      "d": 234.375,
      "v": 127
    },
    {
      "midi": 54,
      "hit": false,
      "t": 155390.625,
      "d": 39.0625,
      "v": 125
    },
    {
      "midi": 54,
      "hit": false,
      "t": 155507.8125,
      "d": 56.15234375,
      "v": 125
    },
    {
      "midi": 35,
      "hit": false,
      "t": 155625,
      "d": 234.375,
      "v": 110
    },
    {
      "midi": 59,
      "hit": false,
      "t": 155625,
      "d": 2565.91796875,
      "v": 59
    },
    {
      "midi": 66,
      "hit": false,
      "t": 155625,
      "d": 2629.39453125,
      "v": 89
    },
    {
      "midi": 63,
      "hit": false,
      "t": 155625,
      "d": 2634.27734375,
      "v": 114
    },
    {
      "midi": 59,
      "hit": false,
      "t": 155625,
      "d": 2565.91796875,
      "v": 39
    },
    {
      "midi": 66,
      "hit": false,
      "t": 155625,
      "d": 2629.39453125,
      "v": 69
    },
    {
      "midi": 63,
      "hit": false,
      "t": 155625,
      "d": 2634.27734375,
      "v": 94
    },
    {
      "midi": 59,
      "hit": false,
      "t": 155625,
      "d": 261.23046875,
      "v": 127
    },
    {
      "midi": 59,
      "hit": false,
      "t": 155625,
      "d": 56.15234375,
      "v": 127
    },
    {
      "midi": 47,
      "hit": false,
      "t": 155859.375,
      "d": 234.375,
      "v": 127
    },
    {
      "midi": 61,
      "hit": false,
      "t": 155859.375,
      "d": 244.140625,
      "v": 127
    },
    {
      "midi": 59,
      "hit": false,
      "t": 155859.375,
      "d": 41.50390625,
      "v": 125
    },
    {
      "midi": 59,
      "hit": false,
      "t": 155976.5625,
      "d": 58.59375,
      "v": 125
    },
    {
      "midi": 35,
      "hit": false,
      "t": 156093.75,
      "d": 234.375,
      "v": 119
    },
    {
      "midi": 63,
      "hit": false,
      "t": 156093.75,
      "d": 200.1953125,
      "v": 127
    },
    {
      "midi": 59,
      "hit": false,
      "t": 156093.75,
      "d": 51.26953125,
      "v": 127
    },
    {
      "midi": 47,
      "hit": false,
      "t": 156328.125,
      "d": 234.375,
      "v": 127
    },
    {
      "midi": 66,
      "hit": false,
      "t": 156328.125,
      "d": 397.94921875,
      "v": 127
    },
    {
      "midi": 59,
      "hit": false,
      "t": 156328.125,
      "d": 43.9453125,
      "v": 127
    },
    {
      "midi": 59,
      "hit": false,
      "t": 156445.3125,
      "d": 75.68359375,
      "v": 127
    },
    {
      "midi": 35,
      "hit": false,
      "t": 156562.5,
      "d": 234.375,
      "v": 122
    },
    {
      "midi": 59,
      "hit": false,
      "t": 156562.5,
      "d": 53.7109375,
      "v": 127
    },
    {
      "midi": 47,
      "hit": false,
      "t": 156796.875,
      "d": 234.375,
      "v": 127
    },
    {
      "midi": 68,
      "hit": false,
      "t": 156796.875,
      "d": 227.05078125,
      "v": 127
    },
    {
      "midi": 59,
      "hit": false,
      "t": 156796.875,
      "d": 39.0625,
      "v": 125
    },
    {
      "midi": 59,
      "hit": false,
      "t": 156914.0625,
      "d": 56.15234375,
      "v": 123
    },
    {
      "midi": 35,
      "hit": false,
      "t": 157031.25,
      "d": 234.375,
      "v": 122
    },
    {
      "midi": 70,
      "hit": false,
      "t": 157031.25,
      "d": 144.04296875,
      "v": 127
    },
    {
      "midi": 59,
      "hit": false,
      "t": 157031.25,
      "d": 56.15234375,
      "v": 127
    },
    {
      "midi": 47,
      "hit": false,
      "t": 157265.625,
      "d": 234.375,
      "v": 127
    },
    {
      "midi": 71,
      "hit": false,
      "t": 157265.625,
      "d": 388.18359375,
      "v": 127
    },
    {
      "midi": 59,
      "hit": false,
      "t": 157265.625,
      "d": 36.62109375,
      "v": 127
    },
    {
      "midi": 59,
      "hit": false,
      "t": 157382.8125,
      "d": 70.80078125,
      "v": 127
    },
    {
      "midi": 35,
      "hit": false,
      "t": 157500,
      "d": 234.375,
      "v": 127
    },
    {
      "midi": 59,
      "hit": false,
      "t": 157500,
      "d": 46.38671875,
      "v": 127
    },
    {
      "midi": 47,
      "hit": false,
      "t": 157734.375,
      "d": 234.375,
      "v": 122
    },
    {
      "midi": 70,
      "hit": false,
      "t": 157734.375,
      "d": 202.63671875,
      "v": 127
    },
    {
      "midi": 59,
      "hit": false,
      "t": 157734.375,
      "d": 48.828125,
      "v": 127
    },
    {
      "midi": 59,
      "hit": false,
      "t": 157851.5625,
      "d": 53.7109375,
      "v": 127
    },
    {
      "midi": 35,
      "hit": false,
      "t": 157968.75,
      "d": 234.375,
      "v": 122
    },
    {
      "midi": 68,
      "hit": false,
      "t": 157968.75,
      "d": 144.04296875,
      "v": 127
    },
    {
      "midi": 59,
      "hit": false,
      "t": 157968.75,
      "d": 39.0625,
      "v": 127
    },
    {
      "midi": 47,
      "hit": false,
      "t": 158203.125,
      "d": 234.375,
      "v": 127
    },
    {
      "midi": 66,
      "hit": false,
      "t": 158203.125,
      "d": 395.5078125,
      "v": 127
    },
    {
      "midi": 59,
      "hit": false,
      "t": 158203.125,
      "d": 36.62109375,
      "v": 125
    },
    {
      "midi": 59,
      "hit": false,
      "t": 158320.3125,
      "d": 73.2421875,
      "v": 127
    },
    {
      "midi": 37,
      "hit": false,
      "t": 158437.5,
      "d": 234.375,
      "v": 119
    },
    {
      "midi": 61,
      "hit": false,
      "t": 158437.5,
      "d": 795.8984375,
      "v": 92
    },
    {
      "midi": 65,
      "hit": false,
      "t": 158437.5,
      "d": 805.6640625,
      "v": 107
    },
    {
      "midi": 68,
      "hit": false,
      "t": 158437.5,
      "d": 805.6640625,
      "v": 70
    },
    {
      "midi": 61,
      "hit": false,
      "t": 158437.5,
      "d": 795.8984375,
      "v": 72
    },
    {
      "midi": 65,
      "hit": false,
      "t": 158437.5,
      "d": 805.6640625,
      "v": 87
    },
    {
      "midi": 68,
      "hit": false,
      "t": 158437.5,
      "d": 805.6640625,
      "v": 50
    },
    {
      "midi": 56,
      "hit": false,
      "t": 158437.5,
      "d": 51.26953125,
      "v": 127
    },
    {
      "midi": 49,
      "hit": false,
      "t": 158671.875,
      "d": 234.375,
      "v": 125
    },
    {
      "midi": 68,
      "hit": false,
      "t": 158671.875,
      "d": 280.76171875,
      "v": 127
    },
    {
      "midi": 56,
      "hit": false,
      "t": 158671.875,
      "d": 43.9453125,
      "v": 123
    },
    {
      "midi": 56,
      "hit": false,
      "t": 158789.0625,
      "d": 65.91796875,
      "v": 125
    },
    {
      "midi": 37,
      "hit": false,
      "t": 158906.25,
      "d": 234.375,
      "v": 125
    },
    {
      "midi": 70,
      "hit": false,
      "t": 158906.25,
      "d": 263.671875,
      "v": 127
    },
    {
      "midi": 56,
      "hit": false,
      "t": 158906.25,
      "d": 48.828125,
      "v": 127
    },
    {
      "midi": 49,
      "hit": false,
      "t": 159140.625,
      "d": 234.375,
      "v": 125
    },
    {
      "midi": 56,
      "hit": false,
      "t": 159140.625,
      "d": 29.296875,
      "v": 120
    },
    {
      "midi": 56,
      "hit": false,
      "t": 159257.8125,
      "d": 58.59375,
      "v": 127
    },
    {
      "midi": 58,
      "hit": false,
      "t": 159367.67578125,
      "d": 312.5,
      "v": 127
    },
    {
      "midi": 30,
      "hit": false,
      "t": 159375,
      "d": 234.375,
      "v": 119
    },
    {
      "midi": 66,
      "hit": false,
      "t": 159375,
      "d": 3498.53515625,
      "v": 109
    },
    {
      "midi": 58,
      "hit": false,
      "t": 159375,
      "d": 3532.71484375,
      "v": 100
    },
    {
      "midi": 61,
      "hit": false,
      "t": 159375,
      "d": 3537.59765625,
      "v": 107
    },
    {
      "midi": 66,
      "hit": false,
      "t": 159375,
      "d": 3498.53515625,
      "v": 89
    },
    {
      "midi": 58,
      "hit": false,
      "t": 159375,
      "d": 3532.71484375,
      "v": 80
    },
    {
      "midi": 61,
      "hit": false,
      "t": 159375,
      "d": 3537.59765625,
      "v": 87
    },
    {
      "midi": 61,
      "hit": false,
      "t": 159375,
      "d": 239.2578125,
      "v": 127
    },
    {
      "midi": 54,
      "hit": false,
      "t": 159375,
      "d": 61.03515625,
      "v": 127
    },
    {
      "midi": 42,
      "hit": false,
      "t": 159609.375,
      "d": 234.375,
      "v": 122
    },
    {
      "midi": 54,
      "hit": false,
      "t": 159609.375,
      "d": 36.62109375,
      "v": 118
    },
    {
      "midi": 61,
      "hit": false,
      "t": 159614.2578125,
      "d": 249.0234375,
      "v": 127
    },
    {
      "midi": 54,
      "hit": false,
      "t": 159726.5625,
      "d": 53.7109375,
      "v": 127
    },
    {
      "midi": 65,
      "hit": false,
      "t": 159826.66015625,
      "d": 87.890625,
      "v": 127
    },
    {
      "midi": 30,
      "hit": false,
      "t": 159843.75,
      "d": 234.375,
      "v": 122
    },
    {
      "midi": 68,
      "hit": false,
      "t": 159843.75,
      "d": 268.5546875,
      "v": 127
    },
    {
      "midi": 54,
      "hit": false,
      "t": 159843.75,
      "d": 56.15234375,
      "v": 127
    },
    {
      "midi": 42,
      "hit": false,
      "t": 160078.125,
      "d": 234.375,
      "v": 122
    },
    {
      "midi": 70,
      "hit": false,
      "t": 160078.125,
      "d": 498.046875,
      "v": 127
    },
    {
      "midi": 54,
      "hit": false,
      "t": 160078.125,
      "d": 36.62109375,
      "v": 127
    },
    {
      "midi": 66,
      "hit": false,
      "t": 160095.21484375,
      "d": 422.36328125,
      "v": 127
    },
    {
      "midi": 54,
      "hit": false,
      "t": 160195.3125,
      "d": 31.73828125,
      "v": 125
    },
    {
      "midi": 30,
      "hit": false,
      "t": 160312.5,
      "d": 234.375,
      "v": 114
    },
    {
      "midi": 54,
      "hit": false,
      "t": 160312.5,
      "d": 51.26953125,
      "v": 127
    },
    {
      "midi": 42,
      "hit": false,
      "t": 160546.875,
      "d": 234.375,
      "v": 119
    },
    {
      "midi": 68,
      "hit": false,
      "t": 160546.875,
      "d": 251.46484375,
      "v": 127
    },
    {
      "midi": 54,
      "hit": false,
      "t": 160546.875,
      "d": 26.85546875,
      "v": 120
    },
    {
      "midi": 65,
      "hit": false,
      "t": 160563.96484375,
      "d": 314.94140625,
      "v": 127
    },
    {
      "midi": 54,
      "hit": false,
      "t": 160664.0625,
      "d": 21.97265625,
      "v": 125
    },
    {
      "midi": 30,
      "hit": false,
      "t": 160781.25,
      "d": 234.375,
      "v": 122
    },
    {
      "midi": 70,
      "hit": false,
      "t": 160781.25,
      "d": 236.81640625,
      "v": 127
    },
    {
      "midi": 54,
      "hit": false,
      "t": 160781.25,
      "d": 51.26953125,
      "v": 127
    },
    {
      "midi": 66,
      "hit": false,
      "t": 160793.45703125,
      "d": 185.546875,
      "v": 127
    },
    {
      "midi": 42,
      "hit": false,
      "t": 161015.625,
      "d": 234.375,
      "v": 119
    },
    {
      "midi": 71,
      "hit": false,
      "t": 161015.625,
      "d": 368.65234375,
      "v": 127
    },
    {
      "midi": 54,
      "hit": false,
      "t": 161015.625,
      "d": 48.828125,
      "v": 127
    },
    {
      "midi": 68,
      "hit": false,
      "t": 161022.94921875,
      "d": 407.71484375,
      "v": 127
    },
    {
      "midi": 54,
      "hit": false,
      "t": 161132.8125,
      "d": 61.03515625,
      "v": 125
    },
    {
      "midi": 30,
      "hit": false,
      "t": 161250,
      "d": 234.375,
      "v": 119
    },
    {
      "midi": 54,
      "hit": false,
      "t": 161250,
      "d": 56.15234375,
      "v": 127
    },
    {
      "midi": 70,
      "hit": false,
      "t": 161474.609375,
      "d": 195.3125,
      "v": 127
    },
    {
      "midi": 42,
      "hit": false,
      "t": 161484.375,
      "d": 234.375,
      "v": 122
    },
    {
      "midi": 73,
      "hit": false,
      "t": 161484.375,
      "d": 207.51953125,
      "v": 127
    },
    {
      "midi": 54,
      "hit": false,
      "t": 161484.375,
      "d": 36.62109375,
      "v": 127
    },
    {
      "midi": 54,
      "hit": false,
      "t": 161601.5625,
      "d": 41.50390625,
      "v": 123
    },
    {
      "midi": 68,
      "hit": false,
      "t": 161704.1015625,
      "d": 222.16796875,
      "v": 127
    },
    {
      "midi": 30,
      "hit": false,
      "t": 161718.75,
      "d": 234.375,
      "v": 119
    },
    {
      "midi": 71,
      "hit": false,
      "t": 161718.75,
      "d": 234.375,
      "v": 127
    },
    {
      "midi": 54,
      "hit": false,
      "t": 161718.75,
      "d": 56.15234375,
      "v": 127
    },
    {
      "midi": 66,
      "hit": false,
      "t": 161945.80078125,
      "d": 500.48828125,
      "v": 127
    },
    {
      "midi": 42,
      "hit": false,
      "t": 161953.125,
      "d": 234.375,
      "v": 117
    },
    {
      "midi": 70,
      "hit": false,
      "t": 161953.125,
      "d": 412.59765625,
      "v": 127
    },
    {
      "midi": 54,
      "hit": false,
      "t": 161953.125,
      "d": 39.0625,
      "v": 127
    },
    {
      "midi": 54,
      "hit": false,
      "t": 162070.3125,
      "d": 34.1796875,
      "v": 127
    },
    {
      "midi": 30,
      "hit": false,
      "t": 162187.5,
      "d": 234.375,
      "v": 119
    },
    {
      "midi": 54,
      "hit": false,
      "t": 162187.5,
      "d": 43.9453125,
      "v": 125
    },
    {
      "midi": 42,
      "hit": false,
      "t": 162421.875,
      "d": 234.375,
      "v": 125
    },
    {
      "midi": 68,
      "hit": false,
      "t": 162421.875,
      "d": 209.9609375,
      "v": 127
    },
    {
      "midi": 71,
      "hit": false,
      "t": 162421.875,
      "d": 246.58203125,
      "v": 127
    },
    {
      "midi": 54,
      "hit": false,
      "t": 162421.875,
      "d": 41.50390625,
      "v": 127
    },
    {
      "midi": 54,
      "hit": false,
      "t": 162539.0625,
      "d": 24.4140625,
      "v": 116
    },
    {
      "midi": 30,
      "hit": false,
      "t": 162656.25,
      "d": 234.375,
      "v": 122
    },
    {
      "midi": 73,
      "hit": false,
      "t": 162656.25,
      "d": 170.8984375,
      "v": 127
    },
    {
      "midi": 54,
      "hit": false,
      "t": 162656.25,
      "d": 53.7109375,
      "v": 127
    },
    {
      "midi": 70,
      "hit": false,
      "t": 162658.69140625,
      "d": 219.7265625,
      "v": 127
    },
    {
      "midi": 42,
      "hit": false,
      "t": 162890.625,
      "d": 234.375,
      "v": 122
    },
    {
      "midi": 75,
      "hit": false,
      "t": 162890.625,
      "d": 429.6875,
      "v": 127
    },
    {
      "midi": 54,
      "hit": false,
      "t": 162890.625,
      "d": 31.73828125,
      "v": 125
    },
    {
      "midi": 71,
      "hit": false,
      "t": 162917.48046875,
      "d": 473.6328125,
      "v": 127
    },
    {
      "midi": 54,
      "hit": false,
      "t": 163007.8125,
      "d": 29.296875,
      "v": 120
    },
    {
      "midi": 35,
      "hit": false,
      "t": 163125,
      "d": 234.375,
      "v": 125
    },
    {
      "midi": 59,
      "hit": false,
      "t": 163125,
      "d": 2548.828125,
      "v": 52
    },
    {
      "midi": 66,
      "hit": false,
      "t": 163125,
      "d": 2622.0703125,
      "v": 96
    },
    {
      "midi": 63,
      "hit": false,
      "t": 163125,
      "d": 2639.16015625,
      "v": 112
    },
    {
      "midi": 59,
      "hit": false,
      "t": 163125,
      "d": 2548.828125,
      "v": 32
    },
    {
      "midi": 66,
      "hit": false,
      "t": 163125,
      "d": 2622.0703125,
      "v": 76
    },
    {
      "midi": 63,
      "hit": false,
      "t": 163125,
      "d": 2639.16015625,
      "v": 92
    },
    {
      "midi": 59,
      "hit": false,
      "t": 163125,
      "d": 53.7109375,
      "v": 127
    },
    {
      "midi": 47,
      "hit": false,
      "t": 163359.375,
      "d": 234.375,
      "v": 119
    },
    {
      "midi": 73,
      "hit": false,
      "t": 163359.375,
      "d": 183.10546875,
      "v": 127
    },
    {
      "midi": 59,
      "hit": false,
      "t": 163359.375,
      "d": 36.62109375,
      "v": 123
    },
    {
      "midi": 70,
      "hit": false,
      "t": 163364.2578125,
      "d": 236.81640625,
      "v": 127
    },
    {
      "midi": 59,
      "hit": false,
      "t": 163476.5625,
      "d": 61.03515625,
      "v": 123
    },
    {
      "midi": 35,
      "hit": false,
      "t": 163593.75,
      "d": 234.375,
      "v": 125
    },
    {
      "midi": 71,
      "hit": false,
      "t": 163593.75,
      "d": 151.3671875,
      "v": 127
    },
    {
      "midi": 59,
      "hit": false,
      "t": 163593.75,
      "d": 53.7109375,
      "v": 127
    },
    {
      "midi": 68,
      "hit": false,
      "t": 163603.515625,
      "d": 129.39453125,
      "v": 127
    },
    {
      "midi": 66,
      "hit": false,
      "t": 163823.2421875,
      "d": 393.06640625,
      "v": 127
    },
    {
      "midi": 47,
      "hit": false,
      "t": 163828.125,
      "d": 234.375,
      "v": 122
    },
    {
      "midi": 70,
      "hit": false,
      "t": 163828.125,
      "d": 468.75,
      "v": 127
    },
    {
      "midi": 59,
      "hit": false,
      "t": 163828.125,
      "d": 56.15234375,
      "v": 127
    },
    {
      "midi": 59,
      "hit": false,
      "t": 163945.3125,
      "d": 75.68359375,
      "v": 127
    },
    {
      "midi": 35,
      "hit": false,
      "t": 164062.5,
      "d": 234.375,
      "v": 122
    },
    {
      "midi": 59,
      "hit": false,
      "t": 164062.5,
      "d": 53.7109375,
      "v": 127
    },
    {
      "midi": 68,
      "hit": false,
      "t": 164272.4609375,
      "d": 212.40234375,
      "v": 127
    },
    {
      "midi": 47,
      "hit": false,
      "t": 164296.875,
      "d": 234.375,
      "v": 122
    },
    {
      "midi": 71,
      "hit": false,
      "t": 164296.875,
      "d": 246.58203125,
      "v": 127
    },
    {
      "midi": 59,
      "hit": false,
      "t": 164296.875,
      "d": 46.38671875,
      "v": 127
    },
    {
      "midi": 59,
      "hit": false,
      "t": 164414.0625,
      "d": 75.68359375,
      "v": 127
    },
    {
      "midi": 70,
      "hit": false,
      "t": 164519.04296875,
      "d": 139.16015625,
      "v": 127
    },
    {
      "midi": 35,
      "hit": false,
      "t": 164531.25,
      "d": 234.375,
      "v": 122
    },
    {
      "midi": 73,
      "hit": false,
      "t": 164531.25,
      "d": 234.375,
      "v": 127
    },
    {
      "midi": 59,
      "hit": false,
      "t": 164531.25,
      "d": 58.59375,
      "v": 127
    },
    {
      "midi": 47,
      "hit": false,
      "t": 164765.625,
      "d": 234.375,
      "v": 127
    },
    {
      "midi": 75,
      "hit": false,
      "t": 164765.625,
      "d": 415.0390625,
      "v": 127
    },
    {
      "midi": 59,
      "hit": false,
      "t": 164765.625,
      "d": 58.59375,
      "v": 127
    },
    {
      "midi": 71,
      "hit": false,
      "t": 164775.390625,
      "d": 412.59765625,
      "v": 127
    },
    {
      "midi": 59,
      "hit": false,
      "t": 164882.8125,
      "d": 56.15234375,
      "v": 127
    },
    {
      "midi": 35,
      "hit": false,
      "t": 165000,
      "d": 234.375,
      "v": 125
    },
    {
      "midi": 59,
      "hit": false,
      "t": 165000,
      "d": 56.15234375,
      "v": 127
    },
    {
      "midi": 47,
      "hit": false,
      "t": 165234.375,
      "d": 234.375,
      "v": 125
    },
    {
      "midi": 73,
      "hit": false,
      "t": 165234.375,
      "d": 178.22265625,
      "v": 127
    },
    {
      "midi": 59,
      "hit": false,
      "t": 165234.375,
      "d": 43.9453125,
      "v": 127
    },
    {
      "midi": 70,
      "hit": false,
      "t": 165236.81640625,
      "d": 200.1953125,
      "v": 127
    },
    {
      "midi": 59,
      "hit": false,
      "t": 165351.5625,
      "d": 61.03515625,
      "v": 123
    },
    {
      "midi": 35,
      "hit": false,
      "t": 165468.75,
      "d": 234.375,
      "v": 125
    },
    {
      "midi": 75,
      "hit": false,
      "t": 165468.75,
      "d": 124.51171875,
      "v": 127
    },
    {
      "midi": 59,
      "hit": false,
      "t": 165468.75,
      "d": 53.7109375,
      "v": 127
    },
    {
      "midi": 71,
      "hit": false,
      "t": 165476.07421875,
      "d": 253.90625,
      "v": 127
    },
    {
      "midi": 73,
      "hit": false,
      "t": 165700.68359375,
      "d": 930.17578125,
      "v": 127
    },
    {
      "midi": 47,
      "hit": false,
      "t": 165703.125,
      "d": 234.375,
      "v": 127
    },
    {
      "midi": 77,
      "hit": false,
      "t": 165703.125,
      "d": 710.44921875,
      "v": 127
    },
    {
      "midi": 59,
      "hit": false,
      "t": 165703.125,
      "d": 43.9453125,
      "v": 127
    },
    {
      "midi": 59,
      "hit": false,
      "t": 165820.3125,
      "d": 65.91796875,
      "v": 120
    },
    {
      "midi": 37,
      "hit": false,
      "t": 165937.5,
      "d": 234.375,
      "v": 127
    },
    {
      "midi": 68,
      "hit": false,
      "t": 165937.5,
      "d": 908.203125,
      "v": 89
    },
    {
      "midi": 61,
      "hit": false,
      "t": 165937.5,
      "d": 913.0859375,
      "v": 105
    },
    {
      "midi": 65,
      "hit": false,
      "t": 165937.5,
      "d": 917.96875,
      "v": 109
    },
    {
      "midi": 68,
      "hit": false,
      "t": 165937.5,
      "d": 908.203125,
      "v": 69
    },
    {
      "midi": 61,
      "hit": false,
      "t": 165937.5,
      "d": 913.0859375,
      "v": 85
    },
    {
      "midi": 65,
      "hit": false,
      "t": 165937.5,
      "d": 917.96875,
      "v": 89
    },
    {
      "midi": 61,
      "hit": false,
      "t": 165937.5,
      "d": 51.26953125,
      "v": 127
    },
    {
      "midi": 61,
      "hit": false,
      "t": 165937.5,
      "d": 229.4921875,
      "v": 122
    },
    {
      "midi": 58,
      "hit": false,
      "t": 165937.5,
      "d": 251.46484375,
      "v": 125
    },
    {
      "midi": 49,
      "hit": false,
      "t": 166171.875,
      "d": 234.375,
      "v": 127
    },
    {
      "midi": 61,
      "hit": false,
      "t": 166171.875,
      "d": 29.296875,
      "v": 127
    },
    {
      "midi": 59,
      "hit": false,
      "t": 166171.875,
      "d": 222.16796875,
      "v": 120
    },
    {
      "midi": 66,
      "hit": false,
      "t": 166171.875,
      "d": 273.4375,
      "v": 107
    },
    {
      "midi": 61,
      "hit": false,
      "t": 166289.0625,
      "d": 65.91796875,
      "v": 127
    },
    {
      "midi": 37,
      "hit": false,
      "t": 166406.25,
      "d": 234.375,
      "v": 127
    },
    {
      "midi": 61,
      "hit": false,
      "t": 166406.25,
      "d": 53.7109375,
      "v": 127
    },
    {
      "midi": 68,
      "hit": false,
      "t": 166406.25,
      "d": 156.25,
      "v": 110
    },
    {
      "midi": 61,
      "hit": false,
      "t": 166406.25,
      "d": 207.51953125,
      "v": 122
    },
    {
      "midi": 49,
      "hit": false,
      "t": 166640.625,
      "d": 234.375,
      "v": 127
    },
    {
      "midi": 61,
      "hit": false,
      "t": 166640.625,
      "d": 41.50390625,
      "v": 127
    },
    {
      "midi": 66,
      "hit": false,
      "t": 166640.625,
      "d": 852.05078125,
      "v": 127
    },
    {
      "midi": 70,
      "hit": false,
      "t": 166640.625,
      "d": 1169.43359375,
      "v": 107
    },
    {
      "midi": 30,
      "hit": false,
      "t": 166875,
      "d": 234.375,
      "v": 127
    },
    {
      "midi": 78,
      "hit": false,
      "t": 166875,
      "d": 5307.6171875,
      "v": 57
    },
    {
      "midi": 73,
      "hit": false,
      "t": 166875,
      "d": 5371.09375,
      "v": 55
    },
    {
      "midi": 54,
      "hit": false,
      "t": 166875,
      "d": 58.59375,
      "v": 127
    },
    {
      "midi": 66,
      "hit": false,
      "t": 166892.08984375,
      "d": 5449.21875,
      "v": 100
    },
    {
      "midi": 73,
      "hit": false,
      "t": 166896.97265625,
      "d": 5373.53515625,
      "v": 93
    },
    {
      "midi": 70,
      "hit": false,
      "t": 166899.4140625,
      "d": 5437.01171875,
      "v": 100
    },
    {
      "midi": 54,
      "hit": false,
      "t": 166901.85546875,
      "d": 58.59375,
      "v": 113
    },
    {
      "midi": 70,
      "hit": false,
      "t": 166992.1875,
      "d": 5361.328125,
      "v": 55
    },
    {
      "midi": 42,
      "hit": false,
      "t": 167109.375,
      "d": 234.375,
      "v": 127
    },
    {
      "midi": 54,
      "hit": false,
      "t": 167109.375,
      "d": 53.7109375,
      "v": 102
    },
    {
      "midi": 54,
      "hit": false,
      "t": 167109.375,
      "d": 53.7109375,
      "v": 120
    },
    {
      "midi": 78,
      "hit": false,
      "t": 167109.375,
      "d": 39.0625,
      "v": 127
    },
    {
      "midi": 73,
      "hit": false,
      "t": 167109.375,
      "d": 34.1796875,
      "v": 119
    },
    {
      "midi": 54,
      "hit": false,
      "t": 167226.5625,
      "d": 70.80078125,
      "v": 105
    },
    {
      "midi": 54,
      "hit": false,
      "t": 167226.5625,
      "d": 70.80078125,
      "v": 123
    },
    {
      "midi": 78,
      "hit": false,
      "t": 167226.5625,
      "d": 41.50390625,
      "v": 127
    },
    {
      "midi": 73,
      "hit": false,
      "t": 167226.5625,
      "d": 61.03515625,
      "v": 105
    },
    {
      "midi": 30,
      "hit": false,
      "t": 167343.75,
      "d": 234.375,
      "v": 127
    },
    {
      "midi": 54,
      "hit": false,
      "t": 167343.75,
      "d": 58.59375,
      "v": 113
    },
    {
      "midi": 54,
      "hit": false,
      "t": 167343.75,
      "d": 58.59375,
      "v": 127
    },
    {
      "midi": 78,
      "hit": false,
      "t": 167343.75,
      "d": 41.50390625,
      "v": 127
    },
    {
      "midi": 75,
      "hit": false,
      "t": 167343.75,
      "d": 26.85546875,
      "v": 113
    },
    {
      "midi": 78,
      "hit": false,
      "t": 167460.9375,
      "d": 61.03515625,
      "v": 127
    },
    {
      "midi": 75,
      "hit": false,
      "t": 167460.9375,
      "d": 51.26953125,
      "v": 110
    },
    {
      "midi": 42,
      "hit": false,
      "t": 167578.125,
      "d": 234.375,
      "v": 127
    },
    {
      "midi": 54,
      "hit": false,
      "t": 167578.125,
      "d": 53.7109375,
      "v": 102
    },
    {
      "midi": 54,
      "hit": false,
      "t": 167578.125,
      "d": 53.7109375,
      "v": 120
    },
    {
      "midi": 78,
      "hit": false,
      "t": 167578.125,
      "d": 61.03515625,
      "v": 127
    },
    {
      "midi": 74,
      "hit": false,
      "t": 167578.125,
      "d": 24.4140625,
      "v": 107
    },
    {
      "midi": 73,
      "hit": false,
      "t": 167578.125,
      "d": 36.62109375,
      "v": 107
    },
    {
      "midi": 54,
      "hit": false,
      "t": 167695.3125,
      "d": 46.38671875,
      "v": 105
    },
    {
      "midi": 54,
      "hit": false,
      "t": 167695.3125,
      "d": 46.38671875,
      "v": 123
    },
    {
      "midi": 73,
      "hit": false,
      "t": 167695.3125,
      "d": 78.125,
      "v": 107
    },
    {
      "midi": 30,
      "hit": false,
      "t": 167812.5,
      "d": 234.375,
      "v": 127
    },
    {
      "midi": 54,
      "hit": false,
      "t": 167812.5,
      "d": 58.59375,
      "v": 116
    },
    {
      "midi": 54,
      "hit": false,
      "t": 167812.5,
      "d": 58.59375,
      "v": 127
    },
    {
      "midi": 61,
      "hit": false,
      "t": 167812.5,
      "d": 229.4921875,
      "v": 107
    },
    {
      "midi": 58,
      "hit": false,
      "t": 167812.5,
      "d": 275.87890625,
      "v": 120
    },
    {
      "midi": 42,
      "hit": false,
      "t": 168046.875,
      "d": 234.375,
      "v": 127
    },
    {
      "midi": 54,
      "hit": false,
      "t": 168046.875,
      "d": 51.26953125,
      "v": 105
    },
    {
      "midi": 54,
      "hit": false,
      "t": 168046.875,
      "d": 51.26953125,
      "v": 123
    },
    {
      "midi": 78,
      "hit": false,
      "t": 168046.875,
      "d": 41.50390625,
      "v": 127
    },
    {
      "midi": 73,
      "hit": false,
      "t": 168046.875,
      "d": 48.828125,
      "v": 127
    },
    {
      "midi": 59,
      "hit": false,
      "t": 168046.875,
      "d": 229.4921875,
      "v": 107
    },
    {
      "midi": 66,
      "hit": false,
      "t": 168046.875,
      "d": 268.5546875,
      "v": 102
    },
    {
      "midi": 54,
      "hit": false,
      "t": 168164.0625,
      "d": 63.4765625,
      "v": 110
    },
    {
      "midi": 54,
      "hit": false,
      "t": 168164.0625,
      "d": 63.4765625,
      "v": 127
    },
    {
      "midi": 78,
      "hit": false,
      "t": 168164.0625,
      "d": 39.0625,
      "v": 127
    },
    {
      "midi": 73,
      "hit": false,
      "t": 168164.0625,
      "d": 63.4765625,
      "v": 110
    },
    {
      "midi": 30,
      "hit": false,
      "t": 168281.25,
      "d": 234.375,
      "v": 127
    },
    {
      "midi": 54,
      "hit": false,
      "t": 168281.25,
      "d": 48.828125,
      "v": 110
    },
    {
      "midi": 54,
      "hit": false,
      "t": 168281.25,
      "d": 48.828125,
      "v": 127
    },
    {
      "midi": 78,
      "hit": false,
      "t": 168281.25,
      "d": 31.73828125,
      "v": 127
    },
    {
      "midi": 75,
      "hit": false,
      "t": 168281.25,
      "d": 36.62109375,
      "v": 116
    },
    {
      "midi": 68,
      "hit": false,
      "t": 168281.25,
      "d": 234.375,
      "v": 110
    },
    {
      "midi": 61,
      "hit": false,
      "t": 168281.25,
      "d": 249.0234375,
      "v": 100
    },
    {
      "midi": 78,
      "hit": false,
      "t": 168398.4375,
      "d": 46.38671875,
      "v": 127
    },
    {
      "midi": 75,
      "hit": false,
      "t": 168398.4375,
      "d": 39.0625,
      "v": 105
    },
    {
      "midi": 42,
      "hit": false,
      "t": 168515.625,
      "d": 234.375,
      "v": 127
    },
    {
      "midi": 54,
      "hit": false,
      "t": 168515.625,
      "d": 53.7109375,
      "v": 100
    },
    {
      "midi": 54,
      "hit": false,
      "t": 168515.625,
      "d": 53.7109375,
      "v": 118
    },
    {
      "midi": 78,
      "hit": false,
      "t": 168515.625,
      "d": 65.91796875,
      "v": 127
    },
    {
      "midi": 73,
      "hit": false,
      "t": 168515.625,
      "d": 46.38671875,
      "v": 122
    },
    {
      "midi": 66,
      "hit": false,
      "t": 168515.625,
      "d": 632.32421875,
      "v": 127
    },
    {
      "midi": 70,
      "hit": false,
      "t": 168515.625,
      "d": 1135.25390625,
      "v": 105
    },
    {
      "midi": 54,
      "hit": false,
      "t": 168632.8125,
      "d": 68.359375,
      "v": 110
    },
    {
      "midi": 54,
      "hit": false,
      "t": 168632.8125,
      "d": 68.359375,
      "v": 127
    },
    {
      "midi": 73,
      "hit": false,
      "t": 168632.8125,
      "d": 85.44921875,
      "v": 107
    },
    {
      "midi": 30,
      "hit": false,
      "t": 168750,
      "d": 234.375,
      "v": 127
    },
    {
      "midi": 54,
      "hit": false,
      "t": 168750,
      "d": 53.7109375,
      "v": 116
    },
    {
      "midi": 54,
      "hit": false,
      "t": 168750,
      "d": 53.7109375,
      "v": 127
    },
    {
      "midi": 42,
      "hit": false,
      "t": 168984.375,
      "d": 234.375,
      "v": 127
    },
    {
      "midi": 54,
      "hit": false,
      "t": 168984.375,
      "d": 46.38671875,
      "v": 102
    },
    {
      "midi": 54,
      "hit": false,
      "t": 168984.375,
      "d": 46.38671875,
      "v": 120
    },
    {
      "midi": 78,
      "hit": false,
      "t": 168984.375,
      "d": 41.50390625,
      "v": 127
    },
    {
      "midi": 73,
      "hit": false,
      "t": 168984.375,
      "d": 34.1796875,
      "v": 119
    },
    {
      "midi": 54,
      "hit": false,
      "t": 169101.5625,
      "d": 78.125,
      "v": 105
    },
    {
      "midi": 54,
      "hit": false,
      "t": 169101.5625,
      "d": 78.125,
      "v": 123
    },
    {
      "midi": 78,
      "hit": false,
      "t": 169101.5625,
      "d": 43.9453125,
      "v": 127
    },
    {
      "midi": 73,
      "hit": false,
      "t": 169101.5625,
      "d": 61.03515625,
      "v": 105
    },
    {
      "midi": 30,
      "hit": false,
      "t": 169218.75,
      "d": 234.375,
      "v": 127
    },
    {
      "midi": 54,
      "hit": false,
      "t": 169218.75,
      "d": 61.03515625,
      "v": 113
    },
    {
      "midi": 54,
      "hit": false,
      "t": 169218.75,
      "d": 61.03515625,
      "v": 127
    },
    {
      "midi": 78,
      "hit": false,
      "t": 169218.75,
      "d": 43.9453125,
      "v": 127
    },
    {
      "midi": 75,
      "hit": false,
      "t": 169218.75,
      "d": 26.85546875,
      "v": 113
    },
    {
      "midi": 78,
      "hit": false,
      "t": 169335.9375,
      "d": 68.359375,
      "v": 127
    },
    {
      "midi": 75,
      "hit": false,
      "t": 169335.9375,
      "d": 51.26953125,
      "v": 110
    },
    {
      "midi": 42,
      "hit": false,
      "t": 169453.125,
      "d": 234.375,
      "v": 127
    },
    {
      "midi": 54,
      "hit": false,
      "t": 169453.125,
      "d": 61.03515625,
      "v": 107
    },
    {
      "midi": 54,
      "hit": false,
      "t": 169453.125,
      "d": 61.03515625,
      "v": 125
    },
    {
      "midi": 78,
      "hit": false,
      "t": 169453.125,
      "d": 68.359375,
      "v": 127
    },
    {
      "midi": 74,
      "hit": false,
      "t": 169453.125,
      "d": 24.4140625,
      "v": 107
    },
    {
      "midi": 73,
      "hit": false,
      "t": 169453.125,
      "d": 36.62109375,
      "v": 107
    },
    {
      "midi": 54,
      "hit": false,
      "t": 169570.3125,
      "d": 70.80078125,
      "v": 102
    },
    {
      "midi": 54,
      "hit": false,
      "t": 169570.3125,
      "d": 70.80078125,
      "v": 120
    },
    {
      "midi": 73,
      "hit": false,
      "t": 169570.3125,
      "d": 78.125,
      "v": 107
    },
    {
      "midi": 30,
      "hit": false,
      "t": 169687.5,
      "d": 234.375,
      "v": 127
    },
    {
      "midi": 54,
      "hit": false,
      "t": 169687.5,
      "d": 56.15234375,
      "v": 113
    },
    {
      "midi": 54,
      "hit": false,
      "t": 169687.5,
      "d": 56.15234375,
      "v": 127
    },
    {
      "midi": 61,
      "hit": false,
      "t": 169687.5,
      "d": 234.375,
      "v": 110
    },
    {
      "midi": 58,
      "hit": false,
      "t": 169687.5,
      "d": 256.34765625,
      "v": 122
    },
    {
      "midi": 42,
      "hit": false,
      "t": 169921.875,
      "d": 234.375,
      "v": 127
    },
    {
      "midi": 54,
      "hit": false,
      "t": 169921.875,
      "d": 56.15234375,
      "v": 102
    },
    {
      "midi": 54,
      "hit": false,
      "t": 169921.875,
      "d": 56.15234375,
      "v": 120
    },
    {
      "midi": 78,
      "hit": false,
      "t": 169921.875,
      "d": 36.62109375,
      "v": 127
    },
    {
      "midi": 73,
      "hit": false,
      "t": 169921.875,
      "d": 48.828125,
      "v": 127
    },
    {
      "midi": 59,
      "hit": false,
      "t": 169921.875,
      "d": 234.375,
      "v": 118
    },
    {
      "midi": 66,
      "hit": false,
      "t": 169921.875,
      "d": 317.3828125,
      "v": 102
    },
    {
      "midi": 54,
      "hit": false,
      "t": 170039.0625,
      "d": 43.9453125,
      "v": 110
    },
    {
      "midi": 54,
      "hit": false,
      "t": 170039.0625,
      "d": 43.9453125,
      "v": 127
    },
    {
      "midi": 78,
      "hit": false,
      "t": 170039.0625,
      "d": 39.0625,
      "v": 127
    },
    {
      "midi": 73,
      "hit": false,
      "t": 170039.0625,
      "d": 63.4765625,
      "v": 110
    },
    {
      "midi": 30,
      "hit": false,
      "t": 170156.25,
      "d": 234.375,
      "v": 127
    },
    {
      "midi": 54,
      "hit": false,
      "t": 170156.25,
      "d": 53.7109375,
      "v": 113
    },
    {
      "midi": 54,
      "hit": false,
      "t": 170156.25,
      "d": 53.7109375,
      "v": 127
    },
    {
      "midi": 78,
      "hit": false,
      "t": 170156.25,
      "d": 39.0625,
      "v": 127
    },
    {
      "midi": 75,
      "hit": false,
      "t": 170156.25,
      "d": 36.62109375,
      "v": 116
    },
    {
      "midi": 68,
      "hit": false,
      "t": 170156.25,
      "d": 234.375,
      "v": 105
    },
    {
      "midi": 61,
      "hit": false,
      "t": 170156.25,
      "d": 290.52734375,
      "v": 88
    },
    {
      "midi": 78,
      "hit": false,
      "t": 170273.4375,
      "d": 63.4765625,
      "v": 127
    },
    {
      "midi": 75,
      "hit": false,
      "t": 170273.4375,
      "d": 39.0625,
      "v": 105
    },
    {
      "midi": 42,
      "hit": false,
      "t": 170390.625,
      "d": 234.375,
      "v": 127
    },
    {
      "midi": 54,
      "hit": false,
      "t": 170390.625,
      "d": 56.15234375,
      "v": 105
    },
    {
      "midi": 54,
      "hit": false,
      "t": 170390.625,
      "d": 56.15234375,
      "v": 123
    },
    {
      "midi": 78,
      "hit": false,
      "t": 170390.625,
      "d": 75.68359375,
      "v": 127
    },
    {
      "midi": 73,
      "hit": false,
      "t": 170390.625,
      "d": 46.38671875,
      "v": 122
    },
    {
      "midi": 66,
      "hit": false,
      "t": 170390.625,
      "d": 317.3828125,
      "v": 127
    },
    {
      "midi": 70,
      "hit": false,
      "t": 170390.625,
      "d": 354.00390625,
      "v": 102
    },
    {
      "midi": 54,
      "hit": false,
      "t": 170507.8125,
      "d": 39.0625,
      "v": 110
    },
    {
      "midi": 54,
      "hit": false,
      "t": 170507.8125,
      "d": 39.0625,
      "v": 127
    },
    {
      "midi": 73,
      "hit": false,
      "t": 170507.8125,
      "d": 85.44921875,
      "v": 107
    },
    {
      "midi": 30,
      "hit": false,
      "t": 170625,
      "d": 234.375,
      "v": 127
    },
    {
      "midi": 54,
      "hit": false,
      "t": 170625,
      "d": 58.59375,
      "v": 110
    },
    {
      "midi": 54,
      "hit": false,
      "t": 170625,
      "d": 58.59375,
      "v": 127
    },
    {
      "midi": 42,
      "hit": false,
      "t": 170859.375,
      "d": 234.375,
      "v": 127
    },
    {
      "midi": 54,
      "hit": false,
      "t": 170859.375,
      "d": 53.7109375,
      "v": 105
    },
    {
      "midi": 54,
      "hit": false,
      "t": 170859.375,
      "d": 53.7109375,
      "v": 123
    },
    {
      "midi": 78,
      "hit": false,
      "t": 170859.375,
      "d": 46.38671875,
      "v": 127
    },
    {
      "midi": 73,
      "hit": false,
      "t": 170859.375,
      "d": 34.1796875,
      "v": 119
    },
    {
      "midi": 66,
      "hit": false,
      "t": 170859.375,
      "d": 78.125,
      "v": 125
    },
    {
      "midi": 70,
      "hit": false,
      "t": 170859.375,
      "d": 122.0703125,
      "v": 105
    },
    {
      "midi": 54,
      "hit": false,
      "t": 170976.5625,
      "d": 87.890625,
      "v": 107
    },
    {
      "midi": 54,
      "hit": false,
      "t": 170976.5625,
      "d": 87.890625,
      "v": 125
    },
    {
      "midi": 78,
      "hit": false,
      "t": 170976.5625,
      "d": 41.50390625,
      "v": 127
    },
    {
      "midi": 73,
      "hit": false,
      "t": 170976.5625,
      "d": 61.03515625,
      "v": 105
    },
    {
      "midi": 30,
      "hit": false,
      "t": 171093.75,
      "d": 234.375,
      "v": 127
    },
    {
      "midi": 54,
      "hit": false,
      "t": 171093.75,
      "d": 61.03515625,
      "v": 107
    },
    {
      "midi": 54,
      "hit": false,
      "t": 171093.75,
      "d": 61.03515625,
      "v": 125
    },
    {
      "midi": 78,
      "hit": false,
      "t": 171093.75,
      "d": 48.828125,
      "v": 127
    },
    {
      "midi": 75,
      "hit": false,
      "t": 171093.75,
      "d": 26.85546875,
      "v": 113
    },
    {
      "midi": 70,
      "hit": false,
      "t": 171093.75,
      "d": 90.33203125,
      "v": 102
    },
    {
      "midi": 66,
      "hit": false,
      "t": 171093.75,
      "d": 97.65625,
      "v": 127
    },
    {
      "midi": 78,
      "hit": false,
      "t": 171210.9375,
      "d": 70.80078125,
      "v": 127
    },
    {
      "midi": 75,
      "hit": false,
      "t": 171210.9375,
      "d": 51.26953125,
      "v": 110
    },
    {
      "midi": 42,
      "hit": false,
      "t": 171328.125,
      "d": 234.375,
      "v": 127
    },
    {
      "midi": 54,
      "hit": false,
      "t": 171328.125,
      "d": 56.15234375,
      "v": 105
    },
    {
      "midi": 54,
      "hit": false,
      "t": 171328.125,
      "d": 56.15234375,
      "v": 123
    },
    {
      "midi": 78,
      "hit": false,
      "t": 171328.125,
      "d": 78.125,
      "v": 127
    },
    {
      "midi": 74,
      "hit": false,
      "t": 171328.125,
      "d": 24.4140625,
      "v": 107
    },
    {
      "midi": 73,
      "hit": false,
      "t": 171328.125,
      "d": 36.62109375,
      "v": 107
    },
    {
      "midi": 70,
      "hit": false,
      "t": 171328.125,
      "d": 451.66015625,
      "v": 105
    },
    {
      "midi": 66,
      "hit": false,
      "t": 171328.125,
      "d": 476.07421875,
      "v": 127
    },
    {
      "midi": 54,
      "hit": false,
      "t": 171445.3125,
      "d": 48.828125,
      "v": 110
    },
    {
      "midi": 54,
      "hit": false,
      "t": 171445.3125,
      "d": 48.828125,
      "v": 127
    },
    {
      "midi": 73,
      "hit": false,
      "t": 171445.3125,
      "d": 78.125,
      "v": 107
    },
    {
      "midi": 30,
      "hit": false,
      "t": 171562.5,
      "d": 234.375,
      "v": 127
    },
    {
      "midi": 54,
      "hit": false,
      "t": 171562.5,
      "d": 58.59375,
      "v": 113
    },
    {
      "midi": 54,
      "hit": false,
      "t": 171562.5,
      "d": 58.59375,
      "v": 127
    },
    {
      "midi": 42,
      "hit": false,
      "t": 171796.875,
      "d": 234.375,
      "v": 127
    },
    {
      "midi": 54,
      "hit": false,
      "t": 171796.875,
      "d": 58.59375,
      "v": 105
    },
    {
      "midi": 54,
      "hit": false,
      "t": 171796.875,
      "d": 58.59375,
      "v": 123
    },
    {
      "midi": 78,
      "hit": false,
      "t": 171796.875,
      "d": 43.9453125,
      "v": 127
    },
    {
      "midi": 73,
      "hit": false,
      "t": 171796.875,
      "d": 48.828125,
      "v": 127
    },
    {
      "midi": 68,
      "hit": false,
      "t": 171796.875,
      "d": 190.4296875,
      "v": 110
    },
    {
      "midi": 65,
      "hit": false,
      "t": 171796.875,
      "d": 212.40234375,
      "v": 125
    },
    {
      "midi": 54,
      "hit": false,
      "t": 171914.0625,
      "d": 41.50390625,
      "v": 113
    },
    {
      "midi": 54,
      "hit": false,
      "t": 171914.0625,
      "d": 41.50390625,
      "v": 127
    },
    {
      "midi": 78,
      "hit": false,
      "t": 171914.0625,
      "d": 36.62109375,
      "v": 127
    },
    {
      "midi": 73,
      "hit": false,
      "t": 171914.0625,
      "d": 63.4765625,
      "v": 110
    },
    {
      "midi": 30,
      "hit": false,
      "t": 172031.25,
      "d": 234.375,
      "v": 127
    },
    {
      "midi": 54,
      "hit": false,
      "t": 172031.25,
      "d": 61.03515625,
      "v": 116
    },
    {
      "midi": 54,
      "hit": false,
      "t": 172031.25,
      "d": 61.03515625,
      "v": 127
    },
    {
      "midi": 78,
      "hit": false,
      "t": 172031.25,
      "d": 51.26953125,
      "v": 127
    },
    {
      "midi": 75,
      "hit": false,
      "t": 172031.25,
      "d": 36.62109375,
      "v": 116
    },
    {
      "midi": 66,
      "hit": false,
      "t": 172031.25,
      "d": 200.1953125,
      "v": 89
    },
    {
      "midi": 61,
      "hit": false,
      "t": 172031.25,
      "d": 212.40234375,
      "v": 127
    },
    {
      "midi": 78,
      "hit": false,
      "t": 172148.4375,
      "d": 43.9453125,
      "v": 127
    },
    {
      "midi": 75,
      "hit": false,
      "t": 172148.4375,
      "d": 39.0625,
      "v": 105
    },
    {
      "midi": 42,
      "hit": false,
      "t": 172265.625,
      "d": 234.375,
      "v": 127
    },
    {
      "midi": 54,
      "hit": false,
      "t": 172265.625,
      "d": 53.7109375,
      "v": 107
    },
    {
      "midi": 54,
      "hit": false,
      "t": 172265.625,
      "d": 53.7109375,
      "v": 125
    },
    {
      "midi": 78,
      "hit": false,
      "t": 172265.625,
      "d": 95.21484375,
      "v": 127
    },
    {
      "midi": 73,
      "hit": false,
      "t": 172265.625,
      "d": 46.38671875,
      "v": 122
    },
    {
      "midi": 59,
      "hit": false,
      "t": 172265.625,
      "d": 964.35546875,
      "v": 127
    },
    {
      "midi": 68,
      "hit": false,
      "t": 172265.625,
      "d": 1125.48828125,
      "v": 113
    },
    {
      "midi": 54,
      "hit": false,
      "t": 172382.8125,
      "d": 68.359375,
      "v": 107
    },
    {
      "midi": 54,
      "hit": false,
      "t": 172382.8125,
      "d": 68.359375,
      "v": 125
    },
    {
      "midi": 73,
      "hit": false,
      "t": 172382.8125,
      "d": 85.44921875,
      "v": 107
    },
    {
      "midi": 37,
      "hit": false,
      "t": 172500,
      "d": 234.375,
      "v": 127
    },
    {
      "midi": 80,
      "hit": false,
      "t": 172500,
      "d": 7236.328125,
      "v": 50
    },
    {
      "midi": 77,
      "hit": false,
      "t": 172500,
      "d": 7268.06640625,
      "v": 57
    },
    {
      "midi": 73,
      "hit": false,
      "t": 172500,
      "d": 7275.390625,
      "v": 43
    },
    {
      "midi": 49,
      "hit": false,
      "t": 172500,
      "d": 43.9453125,
      "v": 116
    },
    {
      "midi": 49,
      "hit": false,
      "t": 172500,
      "d": 43.9453125,
      "v": 127
    },
    {
      "midi": 65,
      "hit": false,
      "t": 172502.44140625,
      "d": 7292.48046875,
      "v": 110
    },
    {
      "midi": 68,
      "hit": false,
      "t": 172504.8828125,
      "d": 7299.8046875,
      "v": 100
    },
    {
      "midi": 61,
      "hit": false,
      "t": 172514.6484375,
      "d": 7236.328125,
      "v": 78
    },
    {
      "midi": 49,
      "hit": false,
      "t": 172734.375,
      "d": 234.375,
      "v": 127
    },
    {
      "midi": 49,
      "hit": false,
      "t": 172734.375,
      "d": 34.1796875,
      "v": 102
    },
    {
      "midi": 49,
      "hit": false,
      "t": 172734.375,
      "d": 34.1796875,
      "v": 120
    },
    {
      "midi": 73,
      "hit": false,
      "t": 172734.375,
      "d": 43.9453125,
      "v": 127
    },
    {
      "midi": 73,
      "hit": false,
      "t": 172734.375,
      "d": 34.1796875,
      "v": 119
    },
    {
      "midi": 49,
      "hit": false,
      "t": 172851.5625,
      "d": 78.125,
      "v": 107
    },
    {
      "midi": 49,
      "hit": false,
      "t": 172851.5625,
      "d": 78.125,
      "v": 125
    },
    {
      "midi": 73,
      "hit": false,
      "t": 172851.5625,
      "d": 48.828125,
      "v": 127
    },
    {
      "midi": 73,
      "hit": false,
      "t": 172851.5625,
      "d": 61.03515625,
      "v": 105
    },
    {
      "midi": 37,
      "hit": false,
      "t": 172968.75,
      "d": 234.375,
      "v": 127
    },
    {
      "midi": 49,
      "hit": false,
      "t": 172968.75,
      "d": 46.38671875,
      "v": 107
    },
    {
      "midi": 49,
      "hit": false,
      "t": 172968.75,
      "d": 46.38671875,
      "v": 125
    },
    {
      "midi": 73,
      "hit": false,
      "t": 172968.75,
      "d": 53.7109375,
      "v": 127
    },
    {
      "midi": 75,
      "hit": false,
      "t": 172968.75,
      "d": 26.85546875,
      "v": 113
    },
    {
      "midi": 73,
      "hit": false,
      "t": 173085.9375,
      "d": 63.4765625,
      "v": 127
    },
    {
      "midi": 75,
      "hit": false,
      "t": 173085.9375,
      "d": 51.26953125,
      "v": 110
    },
    {
      "midi": 49,
      "hit": false,
      "t": 173203.125,
      "d": 234.375,
      "v": 127
    },
    {
      "midi": 49,
      "hit": false,
      "t": 173203.125,
      "d": 51.26953125,
      "v": 110
    },
    {
      "midi": 49,
      "hit": false,
      "t": 173203.125,
      "d": 51.26953125,
      "v": 127
    },
    {
      "midi": 73,
      "hit": false,
      "t": 173203.125,
      "d": 73.2421875,
      "v": 127
    },
    {
      "midi": 74,
      "hit": false,
      "t": 173203.125,
      "d": 24.4140625,
      "v": 107
    },
    {
      "midi": 73,
      "hit": false,
      "t": 173203.125,
      "d": 36.62109375,
      "v": 107
    },
    {
      "midi": 49,
      "hit": false,
      "t": 173320.3125,
      "d": 56.15234375,
      "v": 107
    },
    {
      "midi": 49,
      "hit": false,
      "t": 173320.3125,
      "d": 56.15234375,
      "v": 125
    },
    {
      "midi": 73,
      "hit": false,
      "t": 173320.3125,
      "d": 78.125,
      "v": 107
    },
    {
      "midi": 37,
      "hit": false,
      "t": 173437.5,
      "d": 234.375,
      "v": 127
    },
    {
      "midi": 49,
      "hit": false,
      "t": 173437.5,
      "d": 48.828125,
      "v": 110
    },
    {
      "midi": 49,
      "hit": false,
      "t": 173437.5,
      "d": 48.828125,
      "v": 127
    },
    {
      "midi": 61,
      "hit": false,
      "t": 173437.5,
      "d": 241.69921875,
      "v": 116
    },
    {
      "midi": 56,
      "hit": false,
      "t": 173437.5,
      "d": 280.76171875,
      "v": 127
    },
    {
      "midi": 49,
      "hit": false,
      "t": 173671.875,
      "d": 234.375,
      "v": 127
    },
    {
      "midi": 49,
      "hit": false,
      "t": 173671.875,
      "d": 51.26953125,
      "v": 107
    },
    {
      "midi": 49,
      "hit": false,
      "t": 173671.875,
      "d": 51.26953125,
      "v": 125
    },
    {
      "midi": 73,
      "hit": false,
      "t": 173671.875,
      "d": 43.9453125,
      "v": 127
    },
    {
      "midi": 73,
      "hit": false,
      "t": 173671.875,
      "d": 48.828125,
      "v": 127
    },
    {
      "midi": 65,
      "hit": false,
      "t": 173671.875,
      "d": 183.10546875,
      "v": 110
    },
    {
      "midi": 58,
      "hit": false,
      "t": 173671.875,
      "d": 283.203125,
      "v": 125
    },
    {
      "midi": 49,
      "hit": false,
      "t": 173789.0625,
      "d": 46.38671875,
      "v": 110
    },
    {
      "midi": 49,
      "hit": false,
      "t": 173789.0625,
      "d": 46.38671875,
      "v": 127
    },
    {
      "midi": 73,
      "hit": false,
      "t": 173789.0625,
      "d": 39.0625,
      "v": 127
    },
    {
      "midi": 73,
      "hit": false,
      "t": 173789.0625,
      "d": 63.4765625,
      "v": 110
    },
    {
      "midi": 37,
      "hit": false,
      "t": 173906.25,
      "d": 234.375,
      "v": 127
    },
    {
      "midi": 49,
      "hit": false,
      "t": 173906.25,
      "d": 53.7109375,
      "v": 119
    },
    {
      "midi": 49,
      "hit": false,
      "t": 173906.25,
      "d": 53.7109375,
      "v": 127
    },
    {
      "midi": 73,
      "hit": false,
      "t": 173906.25,
      "d": 48.828125,
      "v": 127
    },
    {
      "midi": 75,
      "hit": false,
      "t": 173906.25,
      "d": 36.62109375,
      "v": 116
    },
    {
      "midi": 59,
      "hit": false,
      "t": 173906.25,
      "d": 224.609375,
      "v": 110
    },
    {
      "midi": 66,
      "hit": false,
      "t": 173906.25,
      "d": 224.609375,
      "v": 98
    },
    {
      "midi": 73,
      "hit": false,
      "t": 174023.4375,
      "d": 65.91796875,
      "v": 127
    },
    {
      "midi": 75,
      "hit": false,
      "t": 174023.4375,
      "d": 39.0625,
      "v": 105
    },
    {
      "midi": 49,
      "hit": false,
      "t": 174140.625,
      "d": 234.375,
      "v": 127
    },
    {
      "midi": 49,
      "hit": false,
      "t": 174140.625,
      "d": 51.26953125,
      "v": 107
    },
    {
      "midi": 49,
      "hit": false,
      "t": 174140.625,
      "d": 51.26953125,
      "v": 125
    },
    {
      "midi": 73,
      "hit": false,
      "t": 174140.625,
      "d": 80.56640625,
      "v": 127
    },
    {
      "midi": 73,
      "hit": false,
      "t": 174140.625,
      "d": 46.38671875,
      "v": 122
    },
    {
      "midi": 65,
      "hit": false,
      "t": 174140.625,
      "d": 947.265625,
      "v": 127
    },
    {
      "midi": 68,
      "hit": false,
      "t": 174140.625,
      "d": 1162.109375,
      "v": 116
    },
    {
      "midi": 49,
      "hit": false,
      "t": 174257.8125,
      "d": 61.03515625,
      "v": 102
    },
    {
      "midi": 49,
      "hit": false,
      "t": 174257.8125,
      "d": 61.03515625,
      "v": 120
    },
    {
      "midi": 73,
      "hit": false,
      "t": 174257.8125,
      "d": 85.44921875,
      "v": 107
    },
    {
      "midi": 37,
      "hit": false,
      "t": 174375,
      "d": 234.375,
      "v": 127
    },
    {
      "midi": 49,
      "hit": false,
      "t": 174375,
      "d": 53.7109375,
      "v": 119
    },
    {
      "midi": 49,
      "hit": false,
      "t": 174375,
      "d": 53.7109375,
      "v": 127
    },
    {
      "midi": 49,
      "hit": false,
      "t": 174609.375,
      "d": 234.375,
      "v": 127
    },
    {
      "midi": 49,
      "hit": false,
      "t": 174609.375,
      "d": 46.38671875,
      "v": 105
    },
    {
      "midi": 49,
      "hit": false,
      "t": 174609.375,
      "d": 46.38671875,
      "v": 123
    },
    {
      "midi": 73,
      "hit": false,
      "t": 174609.375,
      "d": 48.828125,
      "v": 127
    },
    {
      "midi": 73,
      "hit": false,
      "t": 174609.375,
      "d": 34.1796875,
      "v": 119
    },
    {
      "midi": 49,
      "hit": false,
      "t": 174726.5625,
      "d": 70.80078125,
      "v": 105
    },
    {
      "midi": 49,
      "hit": false,
      "t": 174726.5625,
      "d": 70.80078125,
      "v": 123
    },
    {
      "midi": 73,
      "hit": false,
      "t": 174726.5625,
      "d": 48.828125,
      "v": 127
    },
    {
      "midi": 73,
      "hit": false,
      "t": 174726.5625,
      "d": 61.03515625,
      "v": 105
    },
    {
      "midi": 37,
      "hit": false,
      "t": 174843.75,
      "d": 234.375,
      "v": 127
    },
    {
      "midi": 49,
      "hit": false,
      "t": 174843.75,
      "d": 46.38671875,
      "v": 113
    },
    {
      "midi": 49,
      "hit": false,
      "t": 174843.75,
      "d": 46.38671875,
      "v": 127
    },
    {
      "midi": 73,
      "hit": false,
      "t": 174843.75,
      "d": 46.38671875,
      "v": 127
    },
    {
      "midi": 75,
      "hit": false,
      "t": 174843.75,
      "d": 26.85546875,
      "v": 113
    },
    {
      "midi": 73,
      "hit": false,
      "t": 174960.9375,
      "d": 75.68359375,
      "v": 127
    },
    {
      "midi": 75,
      "hit": false,
      "t": 174960.9375,
      "d": 51.26953125,
      "v": 110
    },
    {
      "midi": 49,
      "hit": false,
      "t": 175078.125,
      "d": 234.375,
      "v": 127
    },
    {
      "midi": 49,
      "hit": false,
      "t": 175078.125,
      "d": 53.7109375,
      "v": 107
    },
    {
      "midi": 49,
      "hit": false,
      "t": 175078.125,
      "d": 53.7109375,
      "v": 125
    },
    {
      "midi": 73,
      "hit": false,
      "t": 175078.125,
      "d": 80.56640625,
      "v": 127
    },
    {
      "midi": 74,
      "hit": false,
      "t": 175078.125,
      "d": 24.4140625,
      "v": 107
    },
    {
      "midi": 73,
      "hit": false,
      "t": 175078.125,
      "d": 36.62109375,
      "v": 107
    },
    {
      "midi": 49,
      "hit": false,
      "t": 175195.3125,
      "d": 58.59375,
      "v": 107
    },
    {
      "midi": 49,
      "hit": false,
      "t": 175195.3125,
      "d": 58.59375,
      "v": 125
    },
    {
      "midi": 73,
      "hit": false,
      "t": 175195.3125,
      "d": 78.125,
      "v": 107
    },
    {
      "midi": 37,
      "hit": false,
      "t": 175312.5,
      "d": 234.375,
      "v": 127
    },
    {
      "midi": 49,
      "hit": false,
      "t": 175312.5,
      "d": 48.828125,
      "v": 113
    },
    {
      "midi": 49,
      "hit": false,
      "t": 175312.5,
      "d": 48.828125,
      "v": 127
    },
    {
      "midi": 61,
      "hit": false,
      "t": 175312.5,
      "d": 239.2578125,
      "v": 116
    },
    {
      "midi": 56,
      "hit": false,
      "t": 175312.5,
      "d": 270.99609375,
      "v": 127
    },
    {
      "midi": 49,
      "hit": false,
      "t": 175546.875,
      "d": 234.375,
      "v": 127
    },
    {
      "midi": 49,
      "hit": false,
      "t": 175546.875,
      "d": 51.26953125,
      "v": 102
    },
    {
      "midi": 49,
      "hit": false,
      "t": 175546.875,
      "d": 51.26953125,
      "v": 120
    },
    {
      "midi": 73,
      "hit": false,
      "t": 175546.875,
      "d": 53.7109375,
      "v": 127
    },
    {
      "midi": 73,
      "hit": false,
      "t": 175546.875,
      "d": 48.828125,
      "v": 127
    },
    {
      "midi": 65,
      "hit": false,
      "t": 175546.875,
      "d": 205.078125,
      "v": 107
    },
    {
      "midi": 58,
      "hit": false,
      "t": 175546.875,
      "d": 222.16796875,
      "v": 122
    },
    {
      "midi": 49,
      "hit": false,
      "t": 175664.0625,
      "d": 75.68359375,
      "v": 105
    },
    {
      "midi": 49,
      "hit": false,
      "t": 175664.0625,
      "d": 75.68359375,
      "v": 123
    },
    {
      "midi": 73,
      "hit": false,
      "t": 175664.0625,
      "d": 61.03515625,
      "v": 127
    },
    {
      "midi": 73,
      "hit": false,
      "t": 175664.0625,
      "d": 63.4765625,
      "v": 110
    },
    {
      "midi": 37,
      "hit": false,
      "t": 175781.25,
      "d": 234.375,
      "v": 127
    },
    {
      "midi": 49,
      "hit": false,
      "t": 175781.25,
      "d": 61.03515625,
      "v": 116
    },
    {
      "midi": 49,
      "hit": false,
      "t": 175781.25,
      "d": 61.03515625,
      "v": 127
    },
    {
      "midi": 73,
      "hit": false,
      "t": 175781.25,
      "d": 48.828125,
      "v": 127
    },
    {
      "midi": 75,
      "hit": false,
      "t": 175781.25,
      "d": 36.62109375,
      "v": 116
    },
    {
      "midi": 66,
      "hit": false,
      "t": 175781.25,
      "d": 275.87890625,
      "v": 85
    },
    {
      "midi": 59,
      "hit": false,
      "t": 175781.25,
      "d": 290.52734375,
      "v": 115
    },
    {
      "midi": 73,
      "hit": false,
      "t": 175898.4375,
      "d": 75.68359375,
      "v": 127
    },
    {
      "midi": 75,
      "hit": false,
      "t": 175898.4375,
      "d": 39.0625,
      "v": 105
    },
    {
      "midi": 49,
      "hit": false,
      "t": 176015.625,
      "d": 234.375,
      "v": 127
    },
    {
      "midi": 49,
      "hit": false,
      "t": 176015.625,
      "d": 51.26953125,
      "v": 105
    },
    {
      "midi": 49,
      "hit": false,
      "t": 176015.625,
      "d": 51.26953125,
      "v": 123
    },
    {
      "midi": 73,
      "hit": false,
      "t": 176015.625,
      "d": 80.56640625,
      "v": 127
    },
    {
      "midi": 73,
      "hit": false,
      "t": 176015.625,
      "d": 46.38671875,
      "v": 122
    },
    {
      "midi": 65,
      "hit": false,
      "t": 176015.625,
      "d": 1083.984375,
      "v": 127
    },
    {
      "midi": 68,
      "hit": false,
      "t": 176015.625,
      "d": 1118.1640625,
      "v": 113
    },
    {
      "midi": 49,
      "hit": false,
      "t": 176132.8125,
      "d": 70.80078125,
      "v": 110
    },
    {
      "midi": 49,
      "hit": false,
      "t": 176132.8125,
      "d": 70.80078125,
      "v": 127
    },
    {
      "midi": 73,
      "hit": false,
      "t": 176132.8125,
      "d": 85.44921875,
      "v": 107
    },
    {
      "midi": 37,
      "hit": false,
      "t": 176250,
      "d": 234.375,
      "v": 127
    },
    {
      "midi": 49,
      "hit": false,
      "t": 176250,
      "d": 61.03515625,
      "v": 113
    },
    {
      "midi": 49,
      "hit": false,
      "t": 176250,
      "d": 61.03515625,
      "v": 127
    },
    {
      "midi": 49,
      "hit": false,
      "t": 176484.375,
      "d": 234.375,
      "v": 127
    },
    {
      "midi": 49,
      "hit": false,
      "t": 176484.375,
      "d": 51.26953125,
      "v": 105
    },
    {
      "midi": 49,
      "hit": false,
      "t": 176484.375,
      "d": 51.26953125,
      "v": 123
    },
    {
      "midi": 73,
      "hit": false,
      "t": 176484.375,
      "d": 51.26953125,
      "v": 127
    },
    {
      "midi": 73,
      "hit": false,
      "t": 176484.375,
      "d": 34.1796875,
      "v": 119
    },
    {
      "midi": 49,
      "hit": false,
      "t": 176601.5625,
      "d": 46.38671875,
      "v": 119
    },
    {
      "midi": 49,
      "hit": false,
      "t": 176601.5625,
      "d": 46.38671875,
      "v": 127
    },
    {
      "midi": 73,
      "hit": false,
      "t": 176601.5625,
      "d": 70.80078125,
      "v": 127
    },
    {
      "midi": 73,
      "hit": false,
      "t": 176601.5625,
      "d": 61.03515625,
      "v": 105
    },
    {
      "midi": 37,
      "hit": false,
      "t": 176718.75,
      "d": 234.375,
      "v": 127
    },
    {
      "midi": 49,
      "hit": false,
      "t": 176718.75,
      "d": 56.15234375,
      "v": 116
    },
    {
      "midi": 49,
      "hit": false,
      "t": 176718.75,
      "d": 56.15234375,
      "v": 127
    },
    {
      "midi": 73,
      "hit": false,
      "t": 176718.75,
      "d": 56.15234375,
      "v": 127
    },
    {
      "midi": 75,
      "hit": false,
      "t": 176718.75,
      "d": 26.85546875,
      "v": 113
    },
    {
      "midi": 73,
      "hit": false,
      "t": 176835.9375,
      "d": 78.125,
      "v": 127
    },
    {
      "midi": 75,
      "hit": false,
      "t": 176835.9375,
      "d": 51.26953125,
      "v": 110
    },
    {
      "midi": 49,
      "hit": false,
      "t": 176953.125,
      "d": 234.375,
      "v": 127
    },
    {
      "midi": 49,
      "hit": false,
      "t": 176953.125,
      "d": 51.26953125,
      "v": 105
    },
    {
      "midi": 49,
      "hit": false,
      "t": 176953.125,
      "d": 51.26953125,
      "v": 123
    },
    {
      "midi": 73,
      "hit": false,
      "t": 176953.125,
      "d": 73.2421875,
      "v": 127
    },
    {
      "midi": 74,
      "hit": false,
      "t": 176953.125,
      "d": 24.4140625,
      "v": 107
    },
    {
      "midi": 73,
      "hit": false,
      "t": 176953.125,
      "d": 36.62109375,
      "v": 107
    },
    {
      "midi": 49,
      "hit": false,
      "t": 177070.3125,
      "d": 51.26953125,
      "v": 107
    },
    {
      "midi": 49,
      "hit": false,
      "t": 177070.3125,
      "d": 51.26953125,
      "v": 125
    },
    {
      "midi": 73,
      "hit": false,
      "t": 177070.3125,
      "d": 78.125,
      "v": 107
    },
    {
      "midi": 37,
      "hit": false,
      "t": 177187.5,
      "d": 234.375,
      "v": 127
    },
    {
      "midi": 49,
      "hit": false,
      "t": 177187.5,
      "d": 58.59375,
      "v": 116
    },
    {
      "midi": 49,
      "hit": false,
      "t": 177187.5,
      "d": 58.59375,
      "v": 127
    },
    {
      "midi": 61,
      "hit": false,
      "t": 177187.5,
      "d": 251.46484375,
      "v": 107
    },
    {
      "midi": 56,
      "hit": false,
      "t": 177187.5,
      "d": 278.3203125,
      "v": 122
    },
    {
      "midi": 49,
      "hit": false,
      "t": 177421.875,
      "d": 234.375,
      "v": 127
    },
    {
      "midi": 49,
      "hit": false,
      "t": 177421.875,
      "d": 53.7109375,
      "v": 105
    },
    {
      "midi": 49,
      "hit": false,
      "t": 177421.875,
      "d": 53.7109375,
      "v": 123
    },
    {
      "midi": 73,
      "hit": false,
      "t": 177421.875,
      "d": 43.9453125,
      "v": 127
    },
    {
      "midi": 73,
      "hit": false,
      "t": 177421.875,
      "d": 48.828125,
      "v": 127
    },
    {
      "midi": 65,
      "hit": false,
      "t": 177421.875,
      "d": 178.22265625,
      "v": 107
    },
    {
      "midi": 58,
      "hit": false,
      "t": 177421.875,
      "d": 244.140625,
      "v": 127
    },
    {
      "midi": 49,
      "hit": false,
      "t": 177539.0625,
      "d": 78.125,
      "v": 113
    },
    {
      "midi": 49,
      "hit": false,
      "t": 177539.0625,
      "d": 78.125,
      "v": 127
    },
    {
      "midi": 73,
      "hit": false,
      "t": 177539.0625,
      "d": 61.03515625,
      "v": 127
    },
    {
      "midi": 73,
      "hit": false,
      "t": 177539.0625,
      "d": 63.4765625,
      "v": 110
    },
    {
      "midi": 37,
      "hit": false,
      "t": 177656.25,
      "d": 234.375,
      "v": 127
    },
    {
      "midi": 49,
      "hit": false,
      "t": 177656.25,
      "d": 63.4765625,
      "v": 113
    },
    {
      "midi": 49,
      "hit": false,
      "t": 177656.25,
      "d": 63.4765625,
      "v": 127
    },
    {
      "midi": 73,
      "hit": false,
      "t": 177656.25,
      "d": 53.7109375,
      "v": 127
    },
    {
      "midi": 75,
      "hit": false,
      "t": 177656.25,
      "d": 36.62109375,
      "v": 116
    },
    {
      "midi": 59,
      "hit": false,
      "t": 177656.25,
      "d": 229.4921875,
      "v": 109
    },
    {
      "midi": 66,
      "hit": false,
      "t": 177656.25,
      "d": 280.76171875,
      "v": 82
    },
    {
      "midi": 73,
      "hit": false,
      "t": 177773.4375,
      "d": 73.2421875,
      "v": 127
    },
    {
      "midi": 75,
      "hit": false,
      "t": 177773.4375,
      "d": 39.0625,
      "v": 105
    },
    {
      "midi": 49,
      "hit": false,
      "t": 177890.625,
      "d": 234.375,
      "v": 127
    },
    {
      "midi": 49,
      "hit": false,
      "t": 177890.625,
      "d": 51.26953125,
      "v": 105
    },
    {
      "midi": 49,
      "hit": false,
      "t": 177890.625,
      "d": 51.26953125,
      "v": 123
    },
    {
      "midi": 73,
      "hit": false,
      "t": 177890.625,
      "d": 87.890625,
      "v": 127
    },
    {
      "midi": 73,
      "hit": false,
      "t": 177890.625,
      "d": 46.38671875,
      "v": 122
    },
    {
      "midi": 65,
      "hit": false,
      "t": 177890.625,
      "d": 317.3828125,
      "v": 127
    },
    {
      "midi": 68,
      "hit": false,
      "t": 177890.625,
      "d": 339.35546875,
      "v": 107
    },
    {
      "midi": 49,
      "hit": false,
      "t": 178007.8125,
      "d": 48.828125,
      "v": 110
    },
    {
      "midi": 49,
      "hit": false,
      "t": 178007.8125,
      "d": 48.828125,
      "v": 127
    },
    {
      "midi": 73,
      "hit": false,
      "t": 178007.8125,
      "d": 85.44921875,
      "v": 107
    },
    {
      "midi": 37,
      "hit": false,
      "t": 178125,
      "d": 234.375,
      "v": 127
    },
    {
      "midi": 49,
      "hit": false,
      "t": 178125,
      "d": 58.59375,
      "v": 113
    },
    {
      "midi": 49,
      "hit": false,
      "t": 178125,
      "d": 58.59375,
      "v": 127
    },
    {
      "midi": 49,
      "hit": false,
      "t": 178359.375,
      "d": 234.375,
      "v": 127
    },
    {
      "midi": 49,
      "hit": false,
      "t": 178359.375,
      "d": 56.15234375,
      "v": 102
    },
    {
      "midi": 49,
      "hit": false,
      "t": 178359.375,
      "d": 56.15234375,
      "v": 120
    },
    {
      "midi": 73,
      "hit": false,
      "t": 178359.375,
      "d": 51.26953125,
      "v": 127
    },
    {
      "midi": 73,
      "hit": false,
      "t": 178359.375,
      "d": 34.1796875,
      "v": 119
    },
    {
      "midi": 65,
      "hit": false,
      "t": 178359.375,
      "d": 90.33203125,
      "v": 127
    },
    {
      "midi": 68,
      "hit": false,
      "t": 178359.375,
      "d": 100.09765625,
      "v": 102
    },
    {
      "midi": 49,
      "hit": false,
      "t": 178476.5625,
      "d": 39.0625,
      "v": 116
    },
    {
      "midi": 49,
      "hit": false,
      "t": 178476.5625,
      "d": 39.0625,
      "v": 127
    },
    {
      "midi": 73,
      "hit": false,
      "t": 178476.5625,
      "d": 63.4765625,
      "v": 127
    },
    {
      "midi": 73,
      "hit": false,
      "t": 178476.5625,
      "d": 61.03515625,
      "v": 105
    },
    {
      "midi": 37,
      "hit": false,
      "t": 178593.75,
      "d": 234.375,
      "v": 127
    },
    {
      "midi": 49,
      "hit": false,
      "t": 178593.75,
      "d": 61.03515625,
      "v": 116
    },
    {
      "midi": 49,
      "hit": false,
      "t": 178593.75,
      "d": 61.03515625,
      "v": 127
    },
    {
      "midi": 73,
      "hit": false,
      "t": 178593.75,
      "d": 53.7109375,
      "v": 127
    },
    {
      "midi": 75,
      "hit": false,
      "t": 178593.75,
      "d": 26.85546875,
      "v": 113
    },
    {
      "midi": 68,
      "hit": false,
      "t": 178593.75,
      "d": 73.2421875,
      "v": 98
    },
    {
      "midi": 65,
      "hit": false,
      "t": 178593.75,
      "d": 95.21484375,
      "v": 127
    },
    {
      "midi": 73,
      "hit": false,
      "t": 178710.9375,
      "d": 61.03515625,
      "v": 127
    },
    {
      "midi": 75,
      "hit": false,
      "t": 178710.9375,
      "d": 51.26953125,
      "v": 110
    },
    {
      "midi": 49,
      "hit": false,
      "t": 178828.125,
      "d": 234.375,
      "v": 127
    },
    {
      "midi": 49,
      "hit": false,
      "t": 178828.125,
      "d": 63.4765625,
      "v": 102
    },
    {
      "midi": 49,
      "hit": false,
      "t": 178828.125,
      "d": 63.4765625,
      "v": 120
    },
    {
      "midi": 73,
      "hit": false,
      "t": 178828.125,
      "d": 75.68359375,
      "v": 127
    },
    {
      "midi": 74,
      "hit": false,
      "t": 178828.125,
      "d": 24.4140625,
      "v": 107
    },
    {
      "midi": 73,
      "hit": false,
      "t": 178828.125,
      "d": 36.62109375,
      "v": 107
    },
    {
      "midi": 68,
      "hit": false,
      "t": 178828.125,
      "d": 390.625,
      "v": 113
    },
    {
      "midi": 65,
      "hit": false,
      "t": 178828.125,
      "d": 444.3359375,
      "v": 127
    },
    {
      "midi": 49,
      "hit": false,
      "t": 178945.3125,
      "d": 36.62109375,
      "v": 113
    },
    {
      "midi": 49,
      "hit": false,
      "t": 178945.3125,
      "d": 36.62109375,
      "v": 127
    },
    {
      "midi": 73,
      "hit": false,
      "t": 178945.3125,
      "d": 78.125,
      "v": 107
    },
    {
      "midi": 37,
      "hit": false,
      "t": 179062.5,
      "d": 234.375,
      "v": 127
    },
    {
      "midi": 49,
      "hit": false,
      "t": 179062.5,
      "d": 58.59375,
      "v": 110
    },
    {
      "midi": 49,
      "hit": false,
      "t": 179062.5,
      "d": 58.59375,
      "v": 127
    },
    {
      "midi": 49,
      "hit": false,
      "t": 179296.875,
      "d": 234.375,
      "v": 127
    },
    {
      "midi": 49,
      "hit": false,
      "t": 179296.875,
      "d": 61.03515625,
      "v": 113
    },
    {
      "midi": 49,
      "hit": false,
      "t": 179296.875,
      "d": 61.03515625,
      "v": 127
    },
    {
      "midi": 73,
      "hit": false,
      "t": 179296.875,
      "d": 39.0625,
      "v": 127
    },
    {
      "midi": 73,
      "hit": false,
      "t": 179296.875,
      "d": 48.828125,
      "v": 127
    },
    {
      "midi": 63,
      "hit": false,
      "t": 179296.875,
      "d": 227.05078125,
      "v": 127
    },
    {
      "midi": 66,
      "hit": false,
      "t": 179296.875,
      "d": 258.7890625,
      "v": 105
    },
    {
      "midi": 49,
      "hit": false,
      "t": 179414.0625,
      "d": 56.15234375,
      "v": 113
    },
    {
      "midi": 49,
      "hit": false,
      "t": 179414.0625,
      "d": 56.15234375,
      "v": 127
    },
    {
      "midi": 73,
      "hit": false,
      "t": 179414.0625,
      "d": 51.26953125,
      "v": 127
    },
    {
      "midi": 73,
      "hit": false,
      "t": 179414.0625,
      "d": 63.4765625,
      "v": 110
    },
    {
      "midi": 37,
      "hit": false,
      "t": 179531.25,
      "d": 234.375,
      "v": 127
    },
    {
      "midi": 49,
      "hit": false,
      "t": 179531.25,
      "d": 65.91796875,
      "v": 119
    },
    {
      "midi": 49,
      "hit": false,
      "t": 179531.25,
      "d": 65.91796875,
      "v": 127
    },
    {
      "midi": 73,
      "hit": false,
      "t": 179531.25,
      "d": 51.26953125,
      "v": 127
    },
    {
      "midi": 75,
      "hit": false,
      "t": 179531.25,
      "d": 36.62109375,
      "v": 116
    },
    {
      "midi": 65,
      "hit": false,
      "t": 179531.25,
      "d": 234.375,
      "v": 110
    },
    {
      "midi": 59,
      "hit": false,
      "t": 179531.25,
      "d": 292.96875,
      "v": 102
    },
    {
      "midi": 73,
      "hit": false,
      "t": 179648.4375,
      "d": 78.125,
      "v": 127
    },
    {
      "midi": 75,
      "hit": false,
      "t": 179648.4375,
      "d": 39.0625,
      "v": 105
    },
    {
      "midi": 49,
      "hit": false,
      "t": 179765.625,
      "d": 234.375,
      "v": 127
    },
    {
      "midi": 49,
      "hit": false,
      "t": 179765.625,
      "d": 56.15234375,
      "v": 107
    },
    {
      "midi": 49,
      "hit": false,
      "t": 179765.625,
      "d": 56.15234375,
      "v": 125
    },
    {
      "midi": 73,
      "hit": false,
      "t": 179765.625,
      "d": 83.0078125,
      "v": 127
    },
    {
      "midi": 73,
      "hit": false,
      "t": 179765.625,
      "d": 46.38671875,
      "v": 122
    },
    {
      "midi": 58,
      "hit": false,
      "t": 179765.625,
      "d": 944.82421875,
      "v": 127
    },
    {
      "midi": 66,
      "hit": false,
      "t": 179765.625,
      "d": 1083.984375,
      "v": 105
    },
    {
      "midi": 49,
      "hit": false,
      "t": 179882.8125,
      "d": 56.15234375,
      "v": 113
    },
    {
      "midi": 49,
      "hit": false,
      "t": 179882.8125,
      "d": 56.15234375,
      "v": 127
    },
    {
      "midi": 73,
      "hit": false,
      "t": 179882.8125,
      "d": 85.44921875,
      "v": 107
    },
    {
      "midi": 30,
      "hit": false,
      "t": 180000,
      "d": 234.375,
      "v": 127
    },
    {
      "midi": 70,
      "hit": false,
      "t": 180000,
      "d": 1875,
      "v": 48
    },
    {
      "midi": 73,
      "hit": false,
      "t": 180000,
      "d": 1875,
      "v": 22
    },
    {
      "midi": 78,
      "hit": false,
      "t": 180000,
      "d": 1875,
      "v": 48
    },
    {
      "midi": 54,
      "hit": false,
      "t": 180000,
      "d": 61.03515625,
      "v": 107
    },
    {
      "midi": 54,
      "hit": false,
      "t": 180000,
      "d": 61.03515625,
      "v": 125
    },
    {
      "midi": 70,
      "hit": false,
      "t": 180012.20703125,
      "d": 1862.79296875,
      "v": 105
    },
    {
      "midi": 73,
      "hit": false,
      "t": 180017.08984375,
      "d": 1857.91015625,
      "v": 82
    },
    {
      "midi": 66,
      "hit": false,
      "t": 180021.97265625,
      "d": 1853.02734375,
      "v": 89
    },
    {
      "midi": 42,
      "hit": false,
      "t": 180234.375,
      "d": 234.375,
      "v": 127
    },
    {
      "midi": 54,
      "hit": false,
      "t": 180234.375,
      "d": 51.26953125,
      "v": 102
    },
    {
      "midi": 54,
      "hit": false,
      "t": 180234.375,
      "d": 51.26953125,
      "v": 120
    },
    {
      "midi": 78,
      "hit": false,
      "t": 180234.375,
      "d": 43.9453125,
      "v": 127
    },
    {
      "midi": 73,
      "hit": false,
      "t": 180234.375,
      "d": 34.1796875,
      "v": 119
    },
    {
      "midi": 54,
      "hit": false,
      "t": 180351.5625,
      "d": 61.03515625,
      "v": 105
    },
    {
      "midi": 54,
      "hit": false,
      "t": 180351.5625,
      "d": 61.03515625,
      "v": 123
    },
    {
      "midi": 78,
      "hit": false,
      "t": 180351.5625,
      "d": 53.7109375,
      "v": 127
    },
    {
      "midi": 73,
      "hit": false,
      "t": 180351.5625,
      "d": 61.03515625,
      "v": 105
    },
    {
      "midi": 30,
      "hit": false,
      "t": 180468.75,
      "d": 234.375,
      "v": 127
    },
    {
      "midi": 54,
      "hit": false,
      "t": 180468.75,
      "d": 51.26953125,
      "v": 110
    },
    {
      "midi": 54,
      "hit": false,
      "t": 180468.75,
      "d": 51.26953125,
      "v": 127
    },
    {
      "midi": 78,
      "hit": false,
      "t": 180468.75,
      "d": 51.26953125,
      "v": 127
    },
    {
      "midi": 75,
      "hit": false,
      "t": 180468.75,
      "d": 26.85546875,
      "v": 113
    },
    {
      "midi": 78,
      "hit": false,
      "t": 180585.9375,
      "d": 63.4765625,
      "v": 127
    },
    {
      "midi": 75,
      "hit": false,
      "t": 180585.9375,
      "d": 51.26953125,
      "v": 110
    },
    {
      "midi": 42,
      "hit": false,
      "t": 180703.125,
      "d": 234.375,
      "v": 127
    },
    {
      "midi": 54,
      "hit": false,
      "t": 180703.125,
      "d": 53.7109375,
      "v": 102
    },
    {
      "midi": 54,
      "hit": false,
      "t": 180703.125,
      "d": 53.7109375,
      "v": 120
    },
    {
      "midi": 78,
      "hit": false,
      "t": 180703.125,
      "d": 102.5390625,
      "v": 127
    },
    {
      "midi": 74,
      "hit": false,
      "t": 180703.125,
      "d": 24.4140625,
      "v": 107
    },
    {
      "midi": 73,
      "hit": false,
      "t": 180703.125,
      "d": 36.62109375,
      "v": 107
    },
    {
      "midi": 54,
      "hit": false,
      "t": 180820.3125,
      "d": 70.80078125,
      "v": 107
    },
    {
      "midi": 54,
      "hit": false,
      "t": 180820.3125,
      "d": 70.80078125,
      "v": 125
    },
    {
      "midi": 73,
      "hit": false,
      "t": 180820.3125,
      "d": 78.125,
      "v": 107
    },
    {
      "midi": 30,
      "hit": false,
      "t": 180937.5,
      "d": 234.375,
      "v": 127
    },
    {
      "midi": 54,
      "hit": false,
      "t": 180937.5,
      "d": 56.15234375,
      "v": 116
    },
    {
      "midi": 54,
      "hit": false,
      "t": 180937.5,
      "d": 56.15234375,
      "v": 127
    },
    {
      "midi": 61,
      "hit": false,
      "t": 180937.5,
      "d": 246.58203125,
      "v": 102
    },
    {
      "midi": 58,
      "hit": false,
      "t": 180937.5,
      "d": 273.4375,
      "v": 127
    },
    {
      "midi": 42,
      "hit": false,
      "t": 181171.875,
      "d": 234.375,
      "v": 127
    },
    {
      "midi": 54,
      "hit": false,
      "t": 181171.875,
      "d": 51.26953125,
      "v": 107
    },
    {
      "midi": 54,
      "hit": false,
      "t": 181171.875,
      "d": 51.26953125,
      "v": 125
    },
    {
      "midi": 78,
      "hit": false,
      "t": 181171.875,
      "d": 51.26953125,
      "v": 127
    },
    {
      "midi": 73,
      "hit": false,
      "t": 181171.875,
      "d": 48.828125,
      "v": 127
    },
    {
      "midi": 66,
      "hit": false,
      "t": 181171.875,
      "d": 197.75390625,
      "v": 100
    },
    {
      "midi": 59,
      "hit": false,
      "t": 181176.7578125,
      "d": 234.375,
      "v": 109
    },
    {
      "midi": 54,
      "hit": false,
      "t": 181289.0625,
      "d": 78.125,
      "v": 107
    },
    {
      "midi": 54,
      "hit": false,
      "t": 181289.0625,
      "d": 78.125,
      "v": 125
    },
    {
      "midi": 78,
      "hit": false,
      "t": 181289.0625,
      "d": 61.03515625,
      "v": 127
    },
    {
      "midi": 73,
      "hit": false,
      "t": 181289.0625,
      "d": 63.4765625,
      "v": 110
    },
    {
      "midi": 30,
      "hit": false,
      "t": 181406.25,
      "d": 234.375,
      "v": 127
    },
    {
      "midi": 54,
      "hit": false,
      "t": 181406.25,
      "d": 56.15234375,
      "v": 113
    },
    {
      "midi": 54,
      "hit": false,
      "t": 181406.25,
      "d": 56.15234375,
      "v": 127
    },
    {
      "midi": 78,
      "hit": false,
      "t": 181406.25,
      "d": 53.7109375,
      "v": 127
    },
    {
      "midi": 75,
      "hit": false,
      "t": 181406.25,
      "d": 36.62109375,
      "v": 116
    },
    {
      "midi": 61,
      "hit": false,
      "t": 181406.25,
      "d": 222.16796875,
      "v": 118
    },
    {
      "midi": 68,
      "hit": false,
      "t": 181406.25,
      "d": 229.4921875,
      "v": 76
    },
    {
      "midi": 78,
      "hit": false,
      "t": 181523.4375,
      "d": 65.91796875,
      "v": 127
    },
    {
      "midi": 75,
      "hit": false,
      "t": 181523.4375,
      "d": 39.0625,
      "v": 105
    },
    {
      "midi": 42,
      "hit": false,
      "t": 181640.625,
      "d": 234.375,
      "v": 127
    },
    {
      "midi": 54,
      "hit": false,
      "t": 181640.625,
      "d": 58.59375,
      "v": 105
    },
    {
      "midi": 54,
      "hit": false,
      "t": 181640.625,
      "d": 58.59375,
      "v": 123
    },
    {
      "midi": 78,
      "hit": false,
      "t": 181640.625,
      "d": 80.56640625,
      "v": 127
    },
    {
      "midi": 73,
      "hit": false,
      "t": 181640.625,
      "d": 46.38671875,
      "v": 122
    },
    {
      "midi": 66,
      "hit": false,
      "t": 181640.625,
      "d": 993.65234375,
      "v": 127
    },
    {
      "midi": 70,
      "hit": false,
      "t": 181640.625,
      "d": 1223.14453125,
      "v": 93
    },
    {
      "midi": 54,
      "hit": false,
      "t": 181757.8125,
      "d": 65.91796875,
      "v": 102
    },
    {
      "midi": 54,
      "hit": false,
      "t": 181757.8125,
      "d": 65.91796875,
      "v": 120
    },
    {
      "midi": 73,
      "hit": false,
      "t": 181757.8125,
      "d": 85.44921875,
      "v": 107
    },
    {
      "midi": 30,
      "hit": false,
      "t": 181875,
      "d": 234.375,
      "v": 127
    },
    {
      "midi": 70,
      "hit": false,
      "t": 181875,
      "d": 5507.8125,
      "v": 105
    },
    {
      "midi": 70,
      "hit": false,
      "t": 181875,
      "d": 5390.625,
      "v": 48
    },
    {
      "midi": 73,
      "hit": false,
      "t": 181875,
      "d": 5390.625,
      "v": 22
    },
    {
      "midi": 78,
      "hit": false,
      "t": 181875,
      "d": 5507.8125,
      "v": 48
    },
    {
      "midi": 54,
      "hit": false,
      "t": 181875,
      "d": 53.7109375,
      "v": 110
    },
    {
      "midi": 54,
      "hit": false,
      "t": 181875,
      "d": 53.7109375,
      "v": 127
    },
    {
      "midi": 73,
      "hit": false,
      "t": 181879.8828125,
      "d": 5502.9296875,
      "v": 82
    },
    {
      "midi": 66,
      "hit": false,
      "t": 181884.765625,
      "d": 5498.046875,
      "v": 89
    },
    {
      "midi": 42,
      "hit": false,
      "t": 182109.375,
      "d": 234.375,
      "v": 127
    },
    {
      "midi": 54,
      "hit": false,
      "t": 182109.375,
      "d": 51.26953125,
      "v": 100
    },
    {
      "midi": 54,
      "hit": false,
      "t": 182109.375,
      "d": 51.26953125,
      "v": 118
    },
    {
      "midi": 78,
      "hit": false,
      "t": 182109.375,
      "d": 43.9453125,
      "v": 127
    },
    {
      "midi": 73,
      "hit": false,
      "t": 182109.375,
      "d": 34.1796875,
      "v": 119
    },
    {
      "midi": 54,
      "hit": false,
      "t": 182226.5625,
      "d": 68.359375,
      "v": 105
    },
    {
      "midi": 54,
      "hit": false,
      "t": 182226.5625,
      "d": 68.359375,
      "v": 123
    },
    {
      "midi": 78,
      "hit": false,
      "t": 182226.5625,
      "d": 70.80078125,
      "v": 127
    },
    {
      "midi": 73,
      "hit": false,
      "t": 182226.5625,
      "d": 61.03515625,
      "v": 105
    },
    {
      "midi": 30,
      "hit": false,
      "t": 182343.75,
      "d": 234.375,
      "v": 127
    },
    {
      "midi": 54,
      "hit": false,
      "t": 182343.75,
      "d": 56.15234375,
      "v": 113
    },
    {
      "midi": 54,
      "hit": false,
      "t": 182343.75,
      "d": 56.15234375,
      "v": 127
    },
    {
      "midi": 78,
      "hit": false,
      "t": 182343.75,
      "d": 61.03515625,
      "v": 127
    },
    {
      "midi": 75,
      "hit": false,
      "t": 182343.75,
      "d": 26.85546875,
      "v": 113
    },
    {
      "midi": 78,
      "hit": false,
      "t": 182460.9375,
      "d": 70.80078125,
      "v": 127
    },
    {
      "midi": 75,
      "hit": false,
      "t": 182460.9375,
      "d": 51.26953125,
      "v": 110
    },
    {
      "midi": 42,
      "hit": false,
      "t": 182578.125,
      "d": 234.375,
      "v": 127
    },
    {
      "midi": 54,
      "hit": false,
      "t": 182578.125,
      "d": 53.7109375,
      "v": 105
    },
    {
      "midi": 54,
      "hit": false,
      "t": 182578.125,
      "d": 53.7109375,
      "v": 123
    },
    {
      "midi": 78,
      "hit": false,
      "t": 182578.125,
      "d": 87.890625,
      "v": 127
    },
    {
      "midi": 74,
      "hit": false,
      "t": 182578.125,
      "d": 24.4140625,
      "v": 107
    },
    {
      "midi": 73,
      "hit": false,
      "t": 182578.125,
      "d": 36.62109375,
      "v": 107
    },
    {
      "midi": 54,
      "hit": false,
      "t": 182695.3125,
      "d": 68.359375,
      "v": 107
    },
    {
      "midi": 54,
      "hit": false,
      "t": 182695.3125,
      "d": 68.359375,
      "v": 125
    },
    {
      "midi": 73,
      "hit": false,
      "t": 182695.3125,
      "d": 78.125,
      "v": 107
    },
    {
      "midi": 30,
      "hit": false,
      "t": 182812.5,
      "d": 234.375,
      "v": 127
    },
    {
      "midi": 54,
      "hit": false,
      "t": 182812.5,
      "d": 56.15234375,
      "v": 113
    },
    {
      "midi": 54,
      "hit": false,
      "t": 182812.5,
      "d": 56.15234375,
      "v": 127
    },
    {
      "midi": 61,
      "hit": false,
      "t": 182812.5,
      "d": 187.98828125,
      "v": 107
    },
    {
      "midi": 58,
      "hit": false,
      "t": 182812.5,
      "d": 258.7890625,
      "v": 127
    },
    {
      "midi": 42,
      "hit": false,
      "t": 183046.875,
      "d": 234.375,
      "v": 127
    },
    {
      "midi": 54,
      "hit": false,
      "t": 183046.875,
      "d": 51.26953125,
      "v": 107
    },
    {
      "midi": 54,
      "hit": false,
      "t": 183046.875,
      "d": 51.26953125,
      "v": 125
    },
    {
      "midi": 78,
      "hit": false,
      "t": 183046.875,
      "d": 51.26953125,
      "v": 127
    },
    {
      "midi": 73,
      "hit": false,
      "t": 183046.875,
      "d": 48.828125,
      "v": 127
    },
    {
      "midi": 59,
      "hit": false,
      "t": 183046.875,
      "d": 229.4921875,
      "v": 109
    },
    {
      "midi": 66,
      "hit": false,
      "t": 183046.875,
      "d": 310.05859375,
      "v": 98
    },
    {
      "midi": 54,
      "hit": false,
      "t": 183164.0625,
      "d": 75.68359375,
      "v": 107
    },
    {
      "midi": 54,
      "hit": false,
      "t": 183164.0625,
      "d": 75.68359375,
      "v": 125
    },
    {
      "midi": 78,
      "hit": false,
      "t": 183164.0625,
      "d": 63.4765625,
      "v": 127
    },
    {
      "midi": 73,
      "hit": false,
      "t": 183164.0625,
      "d": 63.4765625,
      "v": 110
    },
    {
      "midi": 30,
      "hit": false,
      "t": 183281.25,
      "d": 234.375,
      "v": 127
    },
    {
      "midi": 54,
      "hit": false,
      "t": 183281.25,
      "d": 51.26953125,
      "v": 110
    },
    {
      "midi": 54,
      "hit": false,
      "t": 183281.25,
      "d": 51.26953125,
      "v": 127
    },
    {
      "midi": 78,
      "hit": false,
      "t": 183281.25,
      "d": 43.9453125,
      "v": 127
    },
    {
      "midi": 75,
      "hit": false,
      "t": 183281.25,
      "d": 36.62109375,
      "v": 116
    },
    {
      "midi": 61,
      "hit": false,
      "t": 183281.25,
      "d": 249.0234375,
      "v": 102
    },
    {
      "midi": 68,
      "hit": false,
      "t": 183281.25,
      "d": 258.7890625,
      "v": 107
    },
    {
      "midi": 78,
      "hit": false,
      "t": 183398.4375,
      "d": 73.2421875,
      "v": 127
    },
    {
      "midi": 75,
      "hit": false,
      "t": 183398.4375,
      "d": 39.0625,
      "v": 105
    },
    {
      "midi": 42,
      "hit": false,
      "t": 183515.625,
      "d": 234.375,
      "v": 127
    },
    {
      "midi": 54,
      "hit": false,
      "t": 183515.625,
      "d": 56.15234375,
      "v": 110
    },
    {
      "midi": 54,
      "hit": false,
      "t": 183515.625,
      "d": 56.15234375,
      "v": 127
    },
    {
      "midi": 78,
      "hit": false,
      "t": 183515.625,
      "d": 83.0078125,
      "v": 127
    },
    {
      "midi": 73,
      "hit": false,
      "t": 183515.625,
      "d": 46.38671875,
      "v": 122
    },
    {
      "midi": 66,
      "hit": false,
      "t": 183515.625,
      "d": 1052.24609375,
      "v": 127
    },
    {
      "midi": 70,
      "hit": false,
      "t": 183515.625,
      "d": 1247.55859375,
      "v": 100
    },
    {
      "midi": 54,
      "hit": false,
      "t": 183632.8125,
      "d": 58.59375,
      "v": 107
    },
    {
      "midi": 54,
      "hit": false,
      "t": 183632.8125,
      "d": 58.59375,
      "v": 125
    },
    {
      "midi": 73,
      "hit": false,
      "t": 183632.8125,
      "d": 85.44921875,
      "v": 107
    },
    {
      "midi": 30,
      "hit": false,
      "t": 183750,
      "d": 234.375,
      "v": 127
    },
    {
      "midi": 54,
      "hit": false,
      "t": 183750,
      "d": 53.7109375,
      "v": 116
    },
    {
      "midi": 54,
      "hit": false,
      "t": 183750,
      "d": 53.7109375,
      "v": 127
    },
    {
      "midi": 42,
      "hit": false,
      "t": 183984.375,
      "d": 234.375,
      "v": 127
    },
    {
      "midi": 54,
      "hit": false,
      "t": 183984.375,
      "d": 48.828125,
      "v": 105
    },
    {
      "midi": 54,
      "hit": false,
      "t": 183984.375,
      "d": 48.828125,
      "v": 123
    },
    {
      "midi": 78,
      "hit": false,
      "t": 183984.375,
      "d": 48.828125,
      "v": 127
    },
    {
      "midi": 73,
      "hit": false,
      "t": 183984.375,
      "d": 34.1796875,
      "v": 119
    },
    {
      "midi": 54,
      "hit": false,
      "t": 184101.5625,
      "d": 80.56640625,
      "v": 110
    },
    {
      "midi": 54,
      "hit": false,
      "t": 184101.5625,
      "d": 80.56640625,
      "v": 127
    },
    {
      "midi": 78,
      "hit": false,
      "t": 184101.5625,
      "d": 63.4765625,
      "v": 127
    },
    {
      "midi": 73,
      "hit": false,
      "t": 184101.5625,
      "d": 61.03515625,
      "v": 105
    },
    {
      "midi": 30,
      "hit": false,
      "t": 184218.75,
      "d": 234.375,
      "v": 127
    },
    {
      "midi": 54,
      "hit": false,
      "t": 184218.75,
      "d": 58.59375,
      "v": 113
    },
    {
      "midi": 54,
      "hit": false,
      "t": 184218.75,
      "d": 58.59375,
      "v": 127
    },
    {
      "midi": 78,
      "hit": false,
      "t": 184218.75,
      "d": 48.828125,
      "v": 127
    },
    {
      "midi": 75,
      "hit": false,
      "t": 184218.75,
      "d": 26.85546875,
      "v": 113
    },
    {
      "midi": 78,
      "hit": false,
      "t": 184335.9375,
      "d": 65.91796875,
      "v": 127
    },
    {
      "midi": 75,
      "hit": false,
      "t": 184335.9375,
      "d": 51.26953125,
      "v": 110
    },
    {
      "midi": 42,
      "hit": false,
      "t": 184453.125,
      "d": 234.375,
      "v": 127
    },
    {
      "midi": 54,
      "hit": false,
      "t": 184453.125,
      "d": 53.7109375,
      "v": 105
    },
    {
      "midi": 54,
      "hit": false,
      "t": 184453.125,
      "d": 53.7109375,
      "v": 123
    },
    {
      "midi": 78,
      "hit": false,
      "t": 184453.125,
      "d": 83.0078125,
      "v": 127
    },
    {
      "midi": 74,
      "hit": false,
      "t": 184453.125,
      "d": 24.4140625,
      "v": 107
    },
    {
      "midi": 73,
      "hit": false,
      "t": 184453.125,
      "d": 36.62109375,
      "v": 107
    },
    {
      "midi": 54,
      "hit": false,
      "t": 184570.3125,
      "d": 85.44921875,
      "v": 107
    },
    {
      "midi": 54,
      "hit": false,
      "t": 184570.3125,
      "d": 85.44921875,
      "v": 125
    },
    {
      "midi": 73,
      "hit": false,
      "t": 184570.3125,
      "d": 78.125,
      "v": 107
    },
    {
      "midi": 30,
      "hit": false,
      "t": 184687.5,
      "d": 234.375,
      "v": 127
    },
    {
      "midi": 54,
      "hit": false,
      "t": 184687.5,
      "d": 56.15234375,
      "v": 113
    },
    {
      "midi": 54,
      "hit": false,
      "t": 184687.5,
      "d": 56.15234375,
      "v": 127
    },
    {
      "midi": 61,
      "hit": false,
      "t": 184687.5,
      "d": 190.4296875,
      "v": 110
    },
    {
      "midi": 58,
      "hit": false,
      "t": 184687.5,
      "d": 280.76171875,
      "v": 125
    },
    {
      "midi": 42,
      "hit": false,
      "t": 184921.875,
      "d": 234.375,
      "v": 127
    },
    {
      "midi": 54,
      "hit": false,
      "t": 184921.875,
      "d": 56.15234375,
      "v": 105
    },
    {
      "midi": 54,
      "hit": false,
      "t": 184921.875,
      "d": 56.15234375,
      "v": 123
    },
    {
      "midi": 78,
      "hit": false,
      "t": 184921.875,
      "d": 51.26953125,
      "v": 127
    },
    {
      "midi": 73,
      "hit": false,
      "t": 184921.875,
      "d": 48.828125,
      "v": 127
    },
    {
      "midi": 59,
      "hit": false,
      "t": 184921.875,
      "d": 212.40234375,
      "v": 107
    },
    {
      "midi": 66,
      "hit": false,
      "t": 184921.875,
      "d": 290.52734375,
      "v": 100
    },
    {
      "midi": 54,
      "hit": false,
      "t": 185039.0625,
      "d": 51.26953125,
      "v": 105
    },
    {
      "midi": 54,
      "hit": false,
      "t": 185039.0625,
      "d": 51.26953125,
      "v": 123
    },
    {
      "midi": 78,
      "hit": false,
      "t": 185039.0625,
      "d": 51.26953125,
      "v": 127
    },
    {
      "midi": 73,
      "hit": false,
      "t": 185039.0625,
      "d": 63.4765625,
      "v": 110
    },
    {
      "midi": 30,
      "hit": false,
      "t": 185156.25,
      "d": 234.375,
      "v": 127
    },
    {
      "midi": 54,
      "hit": false,
      "t": 185156.25,
      "d": 53.7109375,
      "v": 116
    },
    {
      "midi": 54,
      "hit": false,
      "t": 185156.25,
      "d": 53.7109375,
      "v": 127
    },
    {
      "midi": 78,
      "hit": false,
      "t": 185156.25,
      "d": 46.38671875,
      "v": 127
    },
    {
      "midi": 75,
      "hit": false,
      "t": 185156.25,
      "d": 36.62109375,
      "v": 116
    },
    {
      "midi": 61,
      "hit": false,
      "t": 185156.25,
      "d": 217.28515625,
      "v": 115
    },
    {
      "midi": 68,
      "hit": false,
      "t": 185156.25,
      "d": 268.5546875,
      "v": 100
    },
    {
      "midi": 78,
      "hit": false,
      "t": 185273.4375,
      "d": 73.2421875,
      "v": 127
    },
    {
      "midi": 75,
      "hit": false,
      "t": 185273.4375,
      "d": 39.0625,
      "v": 105
    },
    {
      "midi": 42,
      "hit": false,
      "t": 185390.625,
      "d": 234.375,
      "v": 127
    },
    {
      "midi": 54,
      "hit": false,
      "t": 185390.625,
      "d": 48.828125,
      "v": 98
    },
    {
      "midi": 54,
      "hit": false,
      "t": 185390.625,
      "d": 48.828125,
      "v": 116
    },
    {
      "midi": 78,
      "hit": false,
      "t": 185390.625,
      "d": 80.56640625,
      "v": 127
    },
    {
      "midi": 73,
      "hit": false,
      "t": 185390.625,
      "d": 46.38671875,
      "v": 122
    },
    {
      "midi": 66,
      "hit": false,
      "t": 185390.625,
      "d": 349.12109375,
      "v": 127
    },
    {
      "midi": 70,
      "hit": false,
      "t": 185390.625,
      "d": 349.12109375,
      "v": 105
    },
    {
      "midi": 54,
      "hit": false,
      "t": 185507.8125,
      "d": 78.125,
      "v": 107
    },
    {
      "midi": 54,
      "hit": false,
      "t": 185507.8125,
      "d": 78.125,
      "v": 125
    },
    {
      "midi": 73,
      "hit": false,
      "t": 185507.8125,
      "d": 85.44921875,
      "v": 107
    },
    {
      "midi": 30,
      "hit": false,
      "t": 185625,
      "d": 234.375,
      "v": 127
    },
    {
      "midi": 54,
      "hit": false,
      "t": 185625,
      "d": 51.26953125,
      "v": 116
    },
    {
      "midi": 54,
      "hit": false,
      "t": 185625,
      "d": 51.26953125,
      "v": 127
    },
    {
      "midi": 42,
      "hit": false,
      "t": 185859.375,
      "d": 234.375,
      "v": 127
    },
    {
      "midi": 54,
      "hit": false,
      "t": 185859.375,
      "d": 56.15234375,
      "v": 107
    },
    {
      "midi": 54,
      "hit": false,
      "t": 185859.375,
      "d": 56.15234375,
      "v": 125
    },
    {
      "midi": 78,
      "hit": false,
      "t": 185859.375,
      "d": 56.15234375,
      "v": 127
    },
    {
      "midi": 73,
      "hit": false,
      "t": 185859.375,
      "d": 34.1796875,
      "v": 119
    },
    {
      "midi": 66,
      "hit": false,
      "t": 185859.375,
      "d": 75.68359375,
      "v": 127
    },
    {
      "midi": 70,
      "hit": false,
      "t": 185859.375,
      "d": 107.421875,
      "v": 102
    },
    {
      "midi": 54,
      "hit": false,
      "t": 185976.5625,
      "d": 61.03515625,
      "v": 110
    },
    {
      "midi": 54,
      "hit": false,
      "t": 185976.5625,
      "d": 61.03515625,
      "v": 127
    },
    {
      "midi": 78,
      "hit": false,
      "t": 185976.5625,
      "d": 63.4765625,
      "v": 127
    },
    {
      "midi": 73,
      "hit": false,
      "t": 185976.5625,
      "d": 61.03515625,
      "v": 105
    },
    {
      "midi": 30,
      "hit": false,
      "t": 186093.75,
      "d": 234.375,
      "v": 127
    },
    {
      "midi": 54,
      "hit": false,
      "t": 186093.75,
      "d": 61.03515625,
      "v": 113
    },
    {
      "midi": 54,
      "hit": false,
      "t": 186093.75,
      "d": 61.03515625,
      "v": 127
    },
    {
      "midi": 78,
      "hit": false,
      "t": 186093.75,
      "d": 48.828125,
      "v": 127
    },
    {
      "midi": 75,
      "hit": false,
      "t": 186093.75,
      "d": 26.85546875,
      "v": 113
    },
    {
      "midi": 66,
      "hit": false,
      "t": 186093.75,
      "d": 80.56640625,
      "v": 127
    },
    {
      "midi": 70,
      "hit": false,
      "t": 186093.75,
      "d": 87.890625,
      "v": 100
    },
    {
      "midi": 78,
      "hit": false,
      "t": 186210.9375,
      "d": 53.7109375,
      "v": 127
    },
    {
      "midi": 75,
      "hit": false,
      "t": 186210.9375,
      "d": 51.26953125,
      "v": 110
    },
    {
      "midi": 42,
      "hit": false,
      "t": 186328.125,
      "d": 234.375,
      "v": 127
    },
    {
      "midi": 54,
      "hit": false,
      "t": 186328.125,
      "d": 58.59375,
      "v": 107
    },
    {
      "midi": 54,
      "hit": false,
      "t": 186328.125,
      "d": 58.59375,
      "v": 125
    },
    {
      "midi": 78,
      "hit": false,
      "t": 186328.125,
      "d": 87.890625,
      "v": 127
    },
    {
      "midi": 74,
      "hit": false,
      "t": 186328.125,
      "d": 24.4140625,
      "v": 107
    },
    {
      "midi": 73,
      "hit": false,
      "t": 186328.125,
      "d": 36.62109375,
      "v": 107
    },
    {
      "midi": 66,
      "hit": false,
      "t": 186328.125,
      "d": 466.30859375,
      "v": 127
    },
    {
      "midi": 70,
      "hit": false,
      "t": 186328.125,
      "d": 473.6328125,
      "v": 102
    },
    {
      "midi": 54,
      "hit": false,
      "t": 186445.3125,
      "d": 85.44921875,
      "v": 110
    },
    {
      "midi": 54,
      "hit": false,
      "t": 186445.3125,
      "d": 85.44921875,
      "v": 127
    },
    {
      "midi": 73,
      "hit": false,
      "t": 186445.3125,
      "d": 78.125,
      "v": 107
    },
    {
      "midi": 30,
      "hit": false,
      "t": 186562.5,
      "d": 234.375,
      "v": 127
    },
    {
      "midi": 54,
      "hit": false,
      "t": 186562.5,
      "d": 56.15234375,
      "v": 107
    },
    {
      "midi": 54,
      "hit": false,
      "t": 186562.5,
      "d": 56.15234375,
      "v": 125
    },
    {
      "midi": 42,
      "hit": false,
      "t": 186796.875,
      "d": 234.375,
      "v": 127
    },
    {
      "midi": 54,
      "hit": false,
      "t": 186796.875,
      "d": 56.15234375,
      "v": 102
    },
    {
      "midi": 54,
      "hit": false,
      "t": 186796.875,
      "d": 56.15234375,
      "v": 120
    },
    {
      "midi": 78,
      "hit": false,
      "t": 186796.875,
      "d": 48.828125,
      "v": 127
    },
    {
      "midi": 73,
      "hit": false,
      "t": 186796.875,
      "d": 48.828125,
      "v": 127
    },
    {
      "midi": 68,
      "hit": false,
      "t": 186796.875,
      "d": 180.6640625,
      "v": 110
    },
    {
      "midi": 65,
      "hit": false,
      "t": 186796.875,
      "d": 202.63671875,
      "v": 127
    },
    {
      "midi": 54,
      "hit": false,
      "t": 186914.0625,
      "d": 61.03515625,
      "v": 110
    },
    {
      "midi": 54,
      "hit": false,
      "t": 186914.0625,
      "d": 61.03515625,
      "v": 127
    },
    {
      "midi": 78,
      "hit": false,
      "t": 186914.0625,
      "d": 58.59375,
      "v": 127
    },
    {
      "midi": 73,
      "hit": false,
      "t": 186914.0625,
      "d": 63.4765625,
      "v": 110
    },
    {
      "midi": 30,
      "hit": false,
      "t": 187031.25,
      "d": 234.375,
      "v": 127
    },
    {
      "midi": 54,
      "hit": false,
      "t": 187031.25,
      "d": 56.15234375,
      "v": 102
    },
    {
      "midi": 54,
      "hit": false,
      "t": 187031.25,
      "d": 56.15234375,
      "v": 120
    },
    {
      "midi": 78,
      "hit": false,
      "t": 187031.25,
      "d": 65.91796875,
      "v": 127
    },
    {
      "midi": 75,
      "hit": false,
      "t": 187031.25,
      "d": 36.62109375,
      "v": 116
    },
    {
      "midi": 61,
      "hit": false,
      "t": 187031.25,
      "d": 187.98828125,
      "v": 98
    },
    {
      "midi": 66,
      "hit": false,
      "t": 187031.25,
      "d": 197.75390625,
      "v": 100
    },
    {
      "midi": 78,
      "hit": false,
      "t": 187148.4375,
      "d": 78.125,
      "v": 127
    },
    {
      "midi": 75,
      "hit": false,
      "t": 187148.4375,
      "d": 39.0625,
      "v": 105
    },
    {
      "midi": 42,
      "hit": false,
      "t": 187265.625,
      "d": 234.375,
      "v": 127
    },
    {
      "midi": 54,
      "hit": false,
      "t": 187265.625,
      "d": 51.26953125,
      "v": 105
    },
    {
      "midi": 54,
      "hit": false,
      "t": 187265.625,
      "d": 51.26953125,
      "v": 123
    },
    {
      "midi": 78,
      "hit": false,
      "t": 187265.625,
      "d": 117.1875,
      "v": 127
    },
    {
      "midi": 73,
      "hit": false,
      "t": 187265.625,
      "d": 46.38671875,
      "v": 122
    },
    {
      "midi": 59,
      "hit": false,
      "t": 187265.625,
      "d": 942.3828125,
      "v": 127
    },
    {
      "midi": 68,
      "hit": false,
      "t": 187265.625,
      "d": 1120.60546875,
      "v": 116
    },
    {
      "midi": 54,
      "hit": false,
      "t": 187382.8125,
      "d": 58.59375,
      "v": 107
    },
    {
      "midi": 54,
      "hit": false,
      "t": 187382.8125,
      "d": 58.59375,
      "v": 125
    },
    {
      "midi": 73,
      "hit": false,
      "t": 187382.8125,
      "d": 85.44921875,
      "v": 107
    },
    {
      "midi": 37,
      "hit": false,
      "t": 187500,
      "d": 234.375,
      "v": 127
    },
    {
      "midi": 80,
      "hit": false,
      "t": 187500,
      "d": 5402.83203125,
      "v": 39
    },
    {
      "midi": 77,
      "hit": false,
      "t": 187500,
      "d": 5432.12890625,
      "v": 55
    },
    {
      "midi": 73,
      "hit": false,
      "t": 187500,
      "d": 5434.5703125,
      "v": 37
    },
    {
      "midi": 49,
      "hit": false,
      "t": 187500,
      "d": 48.828125,
      "v": 116
    },
    {
      "midi": 49,
      "hit": false,
      "t": 187500,
      "d": 48.828125,
      "v": 127
    },
    {
      "midi": 61,
      "hit": false,
      "t": 187519.53125,
      "d": 5395.5078125,
      "v": 100
    },
    {
      "midi": 65,
      "hit": false,
      "t": 187521.97265625,
      "d": 5424.8046875,
      "v": 107
    },
    {
      "midi": 68,
      "hit": false,
      "t": 187526.85546875,
      "d": 5383.30078125,
      "v": 102
    },
    {
      "midi": 49,
      "hit": false,
      "t": 187734.375,
      "d": 234.375,
      "v": 127
    },
    {
      "midi": 49,
      "hit": false,
      "t": 187734.375,
      "d": 39.0625,
      "v": 100
    },
    {
      "midi": 49,
      "hit": false,
      "t": 187734.375,
      "d": 39.0625,
      "v": 118
    },
    {
      "midi": 73,
      "hit": false,
      "t": 187734.375,
      "d": 48.828125,
      "v": 127
    },
    {
      "midi": 73,
      "hit": false,
      "t": 187734.375,
      "d": 34.1796875,
      "v": 119
    },
    {
      "midi": 49,
      "hit": false,
      "t": 187851.5625,
      "d": 61.03515625,
      "v": 107
    },
    {
      "midi": 49,
      "hit": false,
      "t": 187851.5625,
      "d": 61.03515625,
      "v": 125
    },
    {
      "midi": 73,
      "hit": false,
      "t": 187851.5625,
      "d": 70.80078125,
      "v": 127
    },
    {
      "midi": 73,
      "hit": false,
      "t": 187851.5625,
      "d": 61.03515625,
      "v": 105
    },
    {
      "midi": 37,
      "hit": false,
      "t": 187968.75,
      "d": 234.375,
      "v": 127
    },
    {
      "midi": 49,
      "hit": false,
      "t": 187968.75,
      "d": 48.828125,
      "v": 116
    },
    {
      "midi": 49,
      "hit": false,
      "t": 187968.75,
      "d": 48.828125,
      "v": 127
    },
    {
      "midi": 73,
      "hit": false,
      "t": 187968.75,
      "d": 48.828125,
      "v": 127
    },
    {
      "midi": 75,
      "hit": false,
      "t": 187968.75,
      "d": 26.85546875,
      "v": 113
    },
    {
      "midi": 73,
      "hit": false,
      "t": 188085.9375,
      "d": 70.80078125,
      "v": 127
    },
    {
      "midi": 75,
      "hit": false,
      "t": 188085.9375,
      "d": 51.26953125,
      "v": 110
    },
    {
      "midi": 49,
      "hit": false,
      "t": 188203.125,
      "d": 234.375,
      "v": 127
    },
    {
      "midi": 49,
      "hit": false,
      "t": 188203.125,
      "d": 48.828125,
      "v": 105
    },
    {
      "midi": 49,
      "hit": false,
      "t": 188203.125,
      "d": 48.828125,
      "v": 123
    },
    {
      "midi": 73,
      "hit": false,
      "t": 188203.125,
      "d": 70.80078125,
      "v": 127
    },
    {
      "midi": 74,
      "hit": false,
      "t": 188203.125,
      "d": 24.4140625,
      "v": 107
    },
    {
      "midi": 73,
      "hit": false,
      "t": 188203.125,
      "d": 36.62109375,
      "v": 107
    },
    {
      "midi": 49,
      "hit": false,
      "t": 188320.3125,
      "d": 39.0625,
      "v": 107
    },
    {
      "midi": 49,
      "hit": false,
      "t": 188320.3125,
      "d": 39.0625,
      "v": 125
    },
    {
      "midi": 73,
      "hit": false,
      "t": 188320.3125,
      "d": 78.125,
      "v": 107
    },
    {
      "midi": 37,
      "hit": false,
      "t": 188437.5,
      "d": 234.375,
      "v": 127
    },
    {
      "midi": 49,
      "hit": false,
      "t": 188437.5,
      "d": 46.38671875,
      "v": 113
    },
    {
      "midi": 49,
      "hit": false,
      "t": 188437.5,
      "d": 46.38671875,
      "v": 127
    },
    {
      "midi": 61,
      "hit": false,
      "t": 188437.5,
      "d": 236.81640625,
      "v": 107
    },
    {
      "midi": 56,
      "hit": false,
      "t": 188437.5,
      "d": 266.11328125,
      "v": 127
    },
    {
      "midi": 49,
      "hit": false,
      "t": 188671.875,
      "d": 234.375,
      "v": 127
    },
    {
      "midi": 49,
      "hit": false,
      "t": 188671.875,
      "d": 48.828125,
      "v": 105
    },
    {
      "midi": 49,
      "hit": false,
      "t": 188671.875,
      "d": 48.828125,
      "v": 123
    },
    {
      "midi": 73,
      "hit": false,
      "t": 188671.875,
      "d": 48.828125,
      "v": 127
    },
    {
      "midi": 73,
      "hit": false,
      "t": 188671.875,
      "d": 48.828125,
      "v": 127
    },
    {
      "midi": 65,
      "hit": false,
      "t": 188671.875,
      "d": 173.33984375,
      "v": 107
    },
    {
      "midi": 58,
      "hit": false,
      "t": 188671.875,
      "d": 234.375,
      "v": 127
    },
    {
      "midi": 49,
      "hit": false,
      "t": 188789.0625,
      "d": 43.9453125,
      "v": 116
    },
    {
      "midi": 49,
      "hit": false,
      "t": 188789.0625,
      "d": 43.9453125,
      "v": 127
    },
    {
      "midi": 73,
      "hit": false,
      "t": 188789.0625,
      "d": 65.91796875,
      "v": 127
    },
    {
      "midi": 73,
      "hit": false,
      "t": 188789.0625,
      "d": 63.4765625,
      "v": 110
    },
    {
      "midi": 37,
      "hit": false,
      "t": 188906.25,
      "d": 234.375,
      "v": 127
    },
    {
      "midi": 49,
      "hit": false,
      "t": 188906.25,
      "d": 51.26953125,
      "v": 116
    },
    {
      "midi": 49,
      "hit": false,
      "t": 188906.25,
      "d": 51.26953125,
      "v": 127
    },
    {
      "midi": 73,
      "hit": false,
      "t": 188906.25,
      "d": 56.15234375,
      "v": 127
    },
    {
      "midi": 75,
      "hit": false,
      "t": 188906.25,
      "d": 36.62109375,
      "v": 116
    },
    {
      "midi": 59,
      "hit": false,
      "t": 188906.25,
      "d": 200.1953125,
      "v": 105
    },
    {
      "midi": 66,
      "hit": false,
      "t": 188906.25,
      "d": 285.64453125,
      "v": 82
    },
    {
      "midi": 73,
      "hit": false,
      "t": 189023.4375,
      "d": 68.359375,
      "v": 127
    },
    {
      "midi": 75,
      "hit": false,
      "t": 189023.4375,
      "d": 39.0625,
      "v": 105
    },
    {
      "midi": 49,
      "hit": false,
      "t": 189140.625,
      "d": 234.375,
      "v": 127
    },
    {
      "midi": 49,
      "hit": false,
      "t": 189140.625,
      "d": 53.7109375,
      "v": 105
    },
    {
      "midi": 49,
      "hit": false,
      "t": 189140.625,
      "d": 53.7109375,
      "v": 123
    },
    {
      "midi": 73,
      "hit": false,
      "t": 189140.625,
      "d": 87.890625,
      "v": 127
    },
    {
      "midi": 73,
      "hit": false,
      "t": 189140.625,
      "d": 46.38671875,
      "v": 122
    },
    {
      "midi": 65,
      "hit": false,
      "t": 189140.625,
      "d": 986.328125,
      "v": 127
    },
    {
      "midi": 68,
      "hit": false,
      "t": 189140.625,
      "d": 1154.78515625,
      "v": 110
    },
    {
      "midi": 49,
      "hit": false,
      "t": 189257.8125,
      "d": 65.91796875,
      "v": 105
    },
    {
      "midi": 49,
      "hit": false,
      "t": 189257.8125,
      "d": 65.91796875,
      "v": 123
    },
    {
      "midi": 73,
      "hit": false,
      "t": 189257.8125,
      "d": 85.44921875,
      "v": 107
    },
    {
      "midi": 37,
      "hit": false,
      "t": 189375,
      "d": 234.375,
      "v": 127
    },
    {
      "midi": 49,
      "hit": false,
      "t": 189375,
      "d": 48.828125,
      "v": 110
    },
    {
      "midi": 49,
      "hit": false,
      "t": 189375,
      "d": 48.828125,
      "v": 127
    },
    {
      "midi": 49,
      "hit": false,
      "t": 189609.375,
      "d": 234.375,
      "v": 127
    },
    {
      "midi": 49,
      "hit": false,
      "t": 189609.375,
      "d": 53.7109375,
      "v": 105
    },
    {
      "midi": 49,
      "hit": false,
      "t": 189609.375,
      "d": 53.7109375,
      "v": 123
    },
    {
      "midi": 73,
      "hit": false,
      "t": 189609.375,
      "d": 56.15234375,
      "v": 127
    },
    {
      "midi": 73,
      "hit": false,
      "t": 189609.375,
      "d": 34.1796875,
      "v": 119
    },
    {
      "midi": 49,
      "hit": false,
      "t": 189726.5625,
      "d": 48.828125,
      "v": 116
    },
    {
      "midi": 49,
      "hit": false,
      "t": 189726.5625,
      "d": 48.828125,
      "v": 127
    },
    {
      "midi": 73,
      "hit": false,
      "t": 189726.5625,
      "d": 70.80078125,
      "v": 127
    },
    {
      "midi": 73,
      "hit": false,
      "t": 189726.5625,
      "d": 61.03515625,
      "v": 105
    },
    {
      "midi": 37,
      "hit": false,
      "t": 189843.75,
      "d": 234.375,
      "v": 127
    },
    {
      "midi": 49,
      "hit": false,
      "t": 189843.75,
      "d": 53.7109375,
      "v": 113
    },
    {
      "midi": 49,
      "hit": false,
      "t": 189843.75,
      "d": 53.7109375,
      "v": 127
    },
    {
      "midi": 73,
      "hit": false,
      "t": 189843.75,
      "d": 58.59375,
      "v": 127
    },
    {
      "midi": 75,
      "hit": false,
      "t": 189843.75,
      "d": 26.85546875,
      "v": 113
    },
    {
      "midi": 73,
      "hit": false,
      "t": 189960.9375,
      "d": 78.125,
      "v": 127
    },
    {
      "midi": 75,
      "hit": false,
      "t": 189960.9375,
      "d": 51.26953125,
      "v": 110
    },
    {
      "midi": 49,
      "hit": false,
      "t": 190078.125,
      "d": 234.375,
      "v": 127
    },
    {
      "midi": 49,
      "hit": false,
      "t": 190078.125,
      "d": 58.59375,
      "v": 105
    },
    {
      "midi": 49,
      "hit": false,
      "t": 190078.125,
      "d": 58.59375,
      "v": 123
    },
    {
      "midi": 73,
      "hit": false,
      "t": 190078.125,
      "d": 80.56640625,
      "v": 127
    },
    {
      "midi": 74,
      "hit": false,
      "t": 190078.125,
      "d": 24.4140625,
      "v": 107
    },
    {
      "midi": 73,
      "hit": false,
      "t": 190078.125,
      "d": 36.62109375,
      "v": 107
    },
    {
      "midi": 49,
      "hit": false,
      "t": 190195.3125,
      "d": 85.44921875,
      "v": 110
    },
    {
      "midi": 49,
      "hit": false,
      "t": 190195.3125,
      "d": 85.44921875,
      "v": 127
    },
    {
      "midi": 73,
      "hit": false,
      "t": 190195.3125,
      "d": 78.125,
      "v": 107
    },
    {
      "midi": 37,
      "hit": false,
      "t": 190312.5,
      "d": 234.375,
      "v": 127
    },
    {
      "midi": 49,
      "hit": false,
      "t": 190312.5,
      "d": 53.7109375,
      "v": 116
    },
    {
      "midi": 49,
      "hit": false,
      "t": 190312.5,
      "d": 53.7109375,
      "v": 127
    },
    {
      "midi": 61,
      "hit": false,
      "t": 190312.5,
      "d": 253.90625,
      "v": 102
    },
    {
      "midi": 56,
      "hit": false,
      "t": 190312.5,
      "d": 307.6171875,
      "v": 127
    },
    {
      "midi": 49,
      "hit": false,
      "t": 190546.875,
      "d": 234.375,
      "v": 127
    },
    {
      "midi": 49,
      "hit": false,
      "t": 190546.875,
      "d": 53.7109375,
      "v": 110
    },
    {
      "midi": 49,
      "hit": false,
      "t": 190546.875,
      "d": 53.7109375,
      "v": 127
    },
    {
      "midi": 73,
      "hit": false,
      "t": 190546.875,
      "d": 56.15234375,
      "v": 127
    },
    {
      "midi": 73,
      "hit": false,
      "t": 190546.875,
      "d": 48.828125,
      "v": 127
    },
    {
      "midi": 65,
      "hit": false,
      "t": 190546.875,
      "d": 200.1953125,
      "v": 110
    },
    {
      "midi": 58,
      "hit": false,
      "t": 190546.875,
      "d": 310.05859375,
      "v": 127
    },
    {
      "midi": 49,
      "hit": false,
      "t": 190664.0625,
      "d": 51.26953125,
      "v": 110
    },
    {
      "midi": 49,
      "hit": false,
      "t": 190664.0625,
      "d": 51.26953125,
      "v": 127
    },
    {
      "midi": 73,
      "hit": false,
      "t": 190664.0625,
      "d": 70.80078125,
      "v": 127
    },
    {
      "midi": 73,
      "hit": false,
      "t": 190664.0625,
      "d": 63.4765625,
      "v": 110
    },
    {
      "midi": 37,
      "hit": false,
      "t": 190781.25,
      "d": 234.375,
      "v": 127
    },
    {
      "midi": 49,
      "hit": false,
      "t": 190781.25,
      "d": 51.26953125,
      "v": 116
    },
    {
      "midi": 49,
      "hit": false,
      "t": 190781.25,
      "d": 51.26953125,
      "v": 127
    },
    {
      "midi": 73,
      "hit": false,
      "t": 190781.25,
      "d": 63.4765625,
      "v": 127
    },
    {
      "midi": 75,
      "hit": false,
      "t": 190781.25,
      "d": 36.62109375,
      "v": 116
    },
    {
      "midi": 59,
      "hit": false,
      "t": 190781.25,
      "d": 234.375,
      "v": 98
    },
    {
      "midi": 66,
      "hit": false,
      "t": 190781.25,
      "d": 258.7890625,
      "v": 76
    },
    {
      "midi": 73,
      "hit": false,
      "t": 190898.4375,
      "d": 65.91796875,
      "v": 127
    },
    {
      "midi": 75,
      "hit": false,
      "t": 190898.4375,
      "d": 39.0625,
      "v": 105
    },
    {
      "midi": 49,
      "hit": false,
      "t": 191015.625,
      "d": 234.375,
      "v": 127
    },
    {
      "midi": 49,
      "hit": false,
      "t": 191015.625,
      "d": 53.7109375,
      "v": 105
    },
    {
      "midi": 49,
      "hit": false,
      "t": 191015.625,
      "d": 53.7109375,
      "v": 123
    },
    {
      "midi": 73,
      "hit": false,
      "t": 191015.625,
      "d": 85.44921875,
      "v": 127
    },
    {
      "midi": 73,
      "hit": false,
      "t": 191015.625,
      "d": 46.38671875,
      "v": 122
    },
    {
      "midi": 65,
      "hit": false,
      "t": 191015.625,
      "d": 883.7890625,
      "v": 127
    },
    {
      "midi": 68,
      "hit": false,
      "t": 191015.625,
      "d": 1169.43359375,
      "v": 110
    },
    {
      "midi": 49,
      "hit": false,
      "t": 191132.8125,
      "d": 70.80078125,
      "v": 107
    },
    {
      "midi": 49,
      "hit": false,
      "t": 191132.8125,
      "d": 70.80078125,
      "v": 125
    },
    {
      "midi": 73,
      "hit": false,
      "t": 191132.8125,
      "d": 85.44921875,
      "v": 107
    },
    {
      "midi": 37,
      "hit": false,
      "t": 191250,
      "d": 234.375,
      "v": 127
    },
    {
      "midi": 49,
      "hit": false,
      "t": 191250,
      "d": 51.26953125,
      "v": 113
    },
    {
      "midi": 49,
      "hit": false,
      "t": 191250,
      "d": 51.26953125,
      "v": 127
    },
    {
      "midi": 49,
      "hit": false,
      "t": 191484.375,
      "d": 234.375,
      "v": 127
    },
    {
      "midi": 49,
      "hit": false,
      "t": 191484.375,
      "d": 48.828125,
      "v": 102
    },
    {
      "midi": 49,
      "hit": false,
      "t": 191484.375,
      "d": 48.828125,
      "v": 120
    },
    {
      "midi": 73,
      "hit": false,
      "t": 191484.375,
      "d": 41.50390625,
      "v": 127
    },
    {
      "midi": 73,
      "hit": false,
      "t": 191484.375,
      "d": 34.1796875,
      "v": 119
    },
    {
      "midi": 49,
      "hit": false,
      "t": 191601.5625,
      "d": 63.4765625,
      "v": 105
    },
    {
      "midi": 49,
      "hit": false,
      "t": 191601.5625,
      "d": 63.4765625,
      "v": 123
    },
    {
      "midi": 73,
      "hit": false,
      "t": 191601.5625,
      "d": 70.80078125,
      "v": 127
    },
    {
      "midi": 73,
      "hit": false,
      "t": 191601.5625,
      "d": 61.03515625,
      "v": 105
    },
    {
      "midi": 37,
      "hit": false,
      "t": 191718.75,
      "d": 234.375,
      "v": 127
    },
    {
      "midi": 49,
      "hit": false,
      "t": 191718.75,
      "d": 61.03515625,
      "v": 116
    },
    {
      "midi": 49,
      "hit": false,
      "t": 191718.75,
      "d": 61.03515625,
      "v": 127
    },
    {
      "midi": 73,
      "hit": false,
      "t": 191718.75,
      "d": 51.26953125,
      "v": 127
    },
    {
      "midi": 75,
      "hit": false,
      "t": 191718.75,
      "d": 26.85546875,
      "v": 113
    },
    {
      "midi": 73,
      "hit": false,
      "t": 191835.9375,
      "d": 87.890625,
      "v": 127
    },
    {
      "midi": 75,
      "hit": false,
      "t": 191835.9375,
      "d": 51.26953125,
      "v": 110
    },
    {
      "midi": 49,
      "hit": false,
      "t": 191953.125,
      "d": 234.375,
      "v": 127
    },
    {
      "midi": 49,
      "hit": false,
      "t": 191953.125,
      "d": 53.7109375,
      "v": 100
    },
    {
      "midi": 49,
      "hit": false,
      "t": 191953.125,
      "d": 53.7109375,
      "v": 118
    },
    {
      "midi": 73,
      "hit": false,
      "t": 191953.125,
      "d": 90.33203125,
      "v": 127
    },
    {
      "midi": 74,
      "hit": false,
      "t": 191953.125,
      "d": 24.4140625,
      "v": 107
    },
    {
      "midi": 73,
      "hit": false,
      "t": 191953.125,
      "d": 36.62109375,
      "v": 107
    },
    {
      "midi": 49,
      "hit": false,
      "t": 192070.3125,
      "d": 58.59375,
      "v": 119
    },
    {
      "midi": 49,
      "hit": false,
      "t": 192070.3125,
      "d": 58.59375,
      "v": 127
    },
    {
      "midi": 73,
      "hit": false,
      "t": 192070.3125,
      "d": 78.125,
      "v": 107
    },
    {
      "midi": 37,
      "hit": false,
      "t": 192187.5,
      "d": 234.375,
      "v": 127
    },
    {
      "midi": 49,
      "hit": false,
      "t": 192187.5,
      "d": 53.7109375,
      "v": 116
    },
    {
      "midi": 49,
      "hit": false,
      "t": 192187.5,
      "d": 53.7109375,
      "v": 127
    },
    {
      "midi": 61,
      "hit": false,
      "t": 192187.5,
      "d": 202.63671875,
      "v": 110
    },
    {
      "midi": 56,
      "hit": false,
      "t": 192187.5,
      "d": 334.47265625,
      "v": 125
    },
    {
      "midi": 49,
      "hit": false,
      "t": 192421.875,
      "d": 234.375,
      "v": 127
    },
    {
      "midi": 49,
      "hit": false,
      "t": 192421.875,
      "d": 58.59375,
      "v": 107
    },
    {
      "midi": 49,
      "hit": false,
      "t": 192421.875,
      "d": 58.59375,
      "v": 125
    },
    {
      "midi": 73,
      "hit": false,
      "t": 192421.875,
      "d": 58.59375,
      "v": 127
    },
    {
      "midi": 73,
      "hit": false,
      "t": 192421.875,
      "d": 48.828125,
      "v": 127
    },
    {
      "midi": 58,
      "hit": false,
      "t": 192421.875,
      "d": 183.10546875,
      "v": 127
    },
    {
      "midi": 65,
      "hit": false,
      "t": 192421.875,
      "d": 205.078125,
      "v": 105
    },
    {
      "midi": 49,
      "hit": false,
      "t": 192539.0625,
      "d": 61.03515625,
      "v": 110
    },
    {
      "midi": 49,
      "hit": false,
      "t": 192539.0625,
      "d": 61.03515625,
      "v": 127
    },
    {
      "midi": 73,
      "hit": false,
      "t": 192539.0625,
      "d": 65.91796875,
      "v": 127
    },
    {
      "midi": 73,
      "hit": false,
      "t": 192539.0625,
      "d": 63.4765625,
      "v": 110
    },
    {
      "midi": 37,
      "hit": false,
      "t": 192656.25,
      "d": 234.375,
      "v": 127
    },
    {
      "midi": 49,
      "hit": false,
      "t": 192656.25,
      "d": 56.15234375,
      "v": 116
    },
    {
      "midi": 49,
      "hit": false,
      "t": 192656.25,
      "d": 56.15234375,
      "v": 127
    },
    {
      "midi": 73,
      "hit": false,
      "t": 192656.25,
      "d": 51.26953125,
      "v": 127
    },
    {
      "midi": 75,
      "hit": false,
      "t": 192656.25,
      "d": 36.62109375,
      "v": 116
    },
    {
      "midi": 66,
      "hit": false,
      "t": 192656.25,
      "d": 187.98828125,
      "v": 80
    },
    {
      "midi": 59,
      "hit": false,
      "t": 192656.25,
      "d": 234.375,
      "v": 127
    },
    {
      "midi": 73,
      "hit": false,
      "t": 192773.4375,
      "d": 70.80078125,
      "v": 127
    },
    {
      "midi": 75,
      "hit": false,
      "t": 192773.4375,
      "d": 39.0625,
      "v": 105
    },
    {
      "midi": 49,
      "hit": false,
      "t": 192890.625,
      "d": 234.375,
      "v": 127
    },
    {
      "midi": 49,
      "hit": false,
      "t": 192890.625,
      "d": 53.7109375,
      "v": 102
    },
    {
      "midi": 49,
      "hit": false,
      "t": 192890.625,
      "d": 53.7109375,
      "v": 120
    },
    {
      "midi": 73,
      "hit": false,
      "t": 192890.625,
      "d": 83.0078125,
      "v": 127
    },
    {
      "midi": 73,
      "hit": false,
      "t": 192890.625,
      "d": 46.38671875,
      "v": 122
    },
    {
      "midi": 59,
      "hit": false,
      "t": 192890.625,
      "d": 327.1484375,
      "v": 127
    },
    {
      "midi": 68,
      "hit": false,
      "t": 192890.625,
      "d": 373.53515625,
      "v": 110
    },
    {
      "midi": 49,
      "hit": false,
      "t": 193007.8125,
      "d": 46.38671875,
      "v": 110
    },
    {
      "midi": 49,
      "hit": false,
      "t": 193007.8125,
      "d": 46.38671875,
      "v": 127
    },
    {
      "midi": 73,
      "hit": false,
      "t": 193007.8125,
      "d": 85.44921875,
      "v": 107
    },
    {
      "midi": 35,
      "hit": false,
      "t": 193125,
      "d": 234.375,
      "v": 127
    },
    {
      "midi": 71,
      "hit": false,
      "t": 193125,
      "d": 771.484375,
      "v": 55
    },
    {
      "midi": 75,
      "hit": false,
      "t": 193125,
      "d": 798.33984375,
      "v": 60
    },
    {
      "midi": 78,
      "hit": false,
      "t": 193125,
      "d": 800.78125,
      "v": 48
    },
    {
      "midi": 47,
      "hit": false,
      "t": 193125,
      "d": 53.7109375,
      "v": 119
    },
    {
      "midi": 47,
      "hit": false,
      "t": 193125,
      "d": 53.7109375,
      "v": 127
    },
    {
      "midi": 59,
      "hit": false,
      "t": 193146.97265625,
      "d": 805.6640625,
      "v": 105
    },
    {
      "midi": 63,
      "hit": false,
      "t": 193149.4140625,
      "d": 854.4921875,
      "v": 107
    },
    {
      "midi": 66,
      "hit": false,
      "t": 193156.73828125,
      "d": 812.98828125,
      "v": 113
    },
    {
      "midi": 47,
      "hit": false,
      "t": 193359.375,
      "d": 234.375,
      "v": 127
    },
    {
      "midi": 47,
      "hit": false,
      "t": 193359.375,
      "d": 41.50390625,
      "v": 102
    },
    {
      "midi": 47,
      "hit": false,
      "t": 193359.375,
      "d": 41.50390625,
      "v": 120
    },
    {
      "midi": 71,
      "hit": false,
      "t": 193359.375,
      "d": 39.0625,
      "v": 127
    },
    {
      "midi": 73,
      "hit": false,
      "t": 193359.375,
      "d": 34.1796875,
      "v": 119
    },
    {
      "midi": 59,
      "hit": false,
      "t": 193359.375,
      "d": 85.44921875,
      "v": 127
    },
    {
      "midi": 68,
      "hit": false,
      "t": 193359.375,
      "d": 102.5390625,
      "v": 107
    },
    {
      "midi": 47,
      "hit": false,
      "t": 193476.5625,
      "d": 48.828125,
      "v": 110
    },
    {
      "midi": 47,
      "hit": false,
      "t": 193476.5625,
      "d": 48.828125,
      "v": 127
    },
    {
      "midi": 71,
      "hit": false,
      "t": 193476.5625,
      "d": 51.26953125,
      "v": 127
    },
    {
      "midi": 73,
      "hit": false,
      "t": 193476.5625,
      "d": 61.03515625,
      "v": 105
    },
    {
      "midi": 35,
      "hit": false,
      "t": 193593.75,
      "d": 234.375,
      "v": 127
    },
    {
      "midi": 47,
      "hit": false,
      "t": 193593.75,
      "d": 48.828125,
      "v": 110
    },
    {
      "midi": 47,
      "hit": false,
      "t": 193593.75,
      "d": 48.828125,
      "v": 127
    },
    {
      "midi": 71,
      "hit": false,
      "t": 193593.75,
      "d": 65.91796875,
      "v": 127
    },
    {
      "midi": 75,
      "hit": false,
      "t": 193593.75,
      "d": 26.85546875,
      "v": 113
    },
    {
      "midi": 59,
      "hit": false,
      "t": 193593.75,
      "d": 83.0078125,
      "v": 127
    },
    {
      "midi": 68,
      "hit": false,
      "t": 193593.75,
      "d": 92.7734375,
      "v": 110
    },
    {
      "midi": 71,
      "hit": false,
      "t": 193710.9375,
      "d": 63.4765625,
      "v": 127
    },
    {
      "midi": 75,
      "hit": false,
      "t": 193710.9375,
      "d": 51.26953125,
      "v": 110
    },
    {
      "midi": 47,
      "hit": false,
      "t": 193828.125,
      "d": 234.375,
      "v": 127
    },
    {
      "midi": 47,
      "hit": false,
      "t": 193828.125,
      "d": 36.62109375,
      "v": 105
    },
    {
      "midi": 47,
      "hit": false,
      "t": 193828.125,
      "d": 36.62109375,
      "v": 123
    },
    {
      "midi": 71,
      "hit": false,
      "t": 193828.125,
      "d": 95.21484375,
      "v": 127
    },
    {
      "midi": 74,
      "hit": false,
      "t": 193828.125,
      "d": 24.4140625,
      "v": 107
    },
    {
      "midi": 73,
      "hit": false,
      "t": 193828.125,
      "d": 36.62109375,
      "v": 107
    },
    {
      "midi": 68,
      "hit": false,
      "t": 193828.125,
      "d": 400.390625,
      "v": 113
    },
    {
      "midi": 59,
      "hit": false,
      "t": 193828.125,
      "d": 424.8046875,
      "v": 127
    },
    {
      "midi": 47,
      "hit": false,
      "t": 193945.3125,
      "d": 29.296875,
      "v": 105
    },
    {
      "midi": 47,
      "hit": false,
      "t": 193945.3125,
      "d": 29.296875,
      "v": 123
    },
    {
      "midi": 73,
      "hit": false,
      "t": 193945.3125,
      "d": 78.125,
      "v": 107
    },
    {
      "midi": 37,
      "hit": false,
      "t": 194062.5,
      "d": 234.375,
      "v": 127
    },
    {
      "midi": 80,
      "hit": false,
      "t": 194062.5,
      "d": 778.80859375,
      "v": 57
    },
    {
      "midi": 77,
      "hit": false,
      "t": 194062.5,
      "d": 800.78125,
      "v": 57
    },
    {
      "midi": 73,
      "hit": false,
      "t": 194062.5,
      "d": 805.6640625,
      "v": 35
    },
    {
      "midi": 49,
      "hit": false,
      "t": 194062.5,
      "d": 53.7109375,
      "v": 116
    },
    {
      "midi": 49,
      "hit": false,
      "t": 194062.5,
      "d": 53.7109375,
      "v": 127
    },
    {
      "midi": 61,
      "hit": false,
      "t": 194104.00390625,
      "d": 773.92578125,
      "v": 113
    },
    {
      "midi": 65,
      "hit": false,
      "t": 194108.88671875,
      "d": 822.75390625,
      "v": 113
    },
    {
      "midi": 68,
      "hit": false,
      "t": 194111.328125,
      "d": 798.33984375,
      "v": 113
    },
    {
      "midi": 49,
      "hit": false,
      "t": 194296.875,
      "d": 234.375,
      "v": 127
    },
    {
      "midi": 49,
      "hit": false,
      "t": 194296.875,
      "d": 43.9453125,
      "v": 98
    },
    {
      "midi": 49,
      "hit": false,
      "t": 194296.875,
      "d": 43.9453125,
      "v": 116
    },
    {
      "midi": 73,
      "hit": false,
      "t": 194296.875,
      "d": 46.38671875,
      "v": 127
    },
    {
      "midi": 73,
      "hit": false,
      "t": 194296.875,
      "d": 48.828125,
      "v": 127
    },
    {
      "midi": 66,
      "hit": false,
      "t": 194296.875,
      "d": 236.81640625,
      "v": 100
    },
    {
      "midi": 58,
      "hit": false,
      "t": 194296.875,
      "d": 280.76171875,
      "v": 120
    },
    {
      "midi": 49,
      "hit": false,
      "t": 194414.0625,
      "d": 56.15234375,
      "v": 116
    },
    {
      "midi": 49,
      "hit": false,
      "t": 194414.0625,
      "d": 56.15234375,
      "v": 127
    },
    {
      "midi": 73,
      "hit": false,
      "t": 194414.0625,
      "d": 65.91796875,
      "v": 127
    },
    {
      "midi": 73,
      "hit": false,
      "t": 194414.0625,
      "d": 63.4765625,
      "v": 110
    },
    {
      "midi": 37,
      "hit": false,
      "t": 194531.25,
      "d": 234.375,
      "v": 127
    },
    {
      "midi": 49,
      "hit": false,
      "t": 194531.25,
      "d": 43.9453125,
      "v": 113
    },
    {
      "midi": 49,
      "hit": false,
      "t": 194531.25,
      "d": 43.9453125,
      "v": 127
    },
    {
      "midi": 73,
      "hit": false,
      "t": 194531.25,
      "d": 53.7109375,
      "v": 127
    },
    {
      "midi": 75,
      "hit": false,
      "t": 194531.25,
      "d": 36.62109375,
      "v": 116
    },
    {
      "midi": 65,
      "hit": false,
      "t": 194531.25,
      "d": 144.04296875,
      "v": 110
    },
    {
      "midi": 56,
      "hit": false,
      "t": 194531.25,
      "d": 185.546875,
      "v": 127
    },
    {
      "midi": 73,
      "hit": false,
      "t": 194648.4375,
      "d": 78.125,
      "v": 127
    },
    {
      "midi": 75,
      "hit": false,
      "t": 194648.4375,
      "d": 39.0625,
      "v": 105
    },
    {
      "midi": 49,
      "hit": false,
      "t": 194765.625,
      "d": 234.375,
      "v": 127
    },
    {
      "midi": 49,
      "hit": false,
      "t": 194765.625,
      "d": 53.7109375,
      "v": 110
    },
    {
      "midi": 49,
      "hit": false,
      "t": 194765.625,
      "d": 53.7109375,
      "v": 127
    },
    {
      "midi": 73,
      "hit": false,
      "t": 194765.625,
      "d": 97.65625,
      "v": 127
    },
    {
      "midi": 73,
      "hit": false,
      "t": 194765.625,
      "d": 46.38671875,
      "v": 122
    },
    {
      "midi": 54,
      "hit": false,
      "t": 194765.625,
      "d": 1074.21875,
      "v": 127
    },
    {
      "midi": 66,
      "hit": false,
      "t": 194765.625,
      "d": 1140.13671875,
      "v": 110
    },
    {
      "midi": 49,
      "hit": false,
      "t": 194882.8125,
      "d": 46.38671875,
      "v": 105
    },
    {
      "midi": 49,
      "hit": false,
      "t": 194882.8125,
      "d": 46.38671875,
      "v": 123
    },
    {
      "midi": 73,
      "hit": false,
      "t": 194882.8125,
      "d": 85.44921875,
      "v": 107
    },
    {
      "midi": 30,
      "hit": false,
      "t": 195000,
      "d": 234.375,
      "v": 127
    },
    {
      "midi": 70,
      "hit": false,
      "t": 195000,
      "d": 1811.5234375,
      "v": 52
    },
    {
      "midi": 78,
      "hit": false,
      "t": 195000,
      "d": 1831.0546875,
      "v": 50
    },
    {
      "midi": 73,
      "hit": false,
      "t": 195000,
      "d": 1833.49609375,
      "v": 45
    },
    {
      "midi": 54,
      "hit": false,
      "t": 195000,
      "d": 53.7109375,
      "v": 119
    },
    {
      "midi": 54,
      "hit": false,
      "t": 195000,
      "d": 53.7109375,
      "v": 127
    },
    {
      "midi": 66,
      "hit": false,
      "t": 195053.7109375,
      "d": 1779.78515625,
      "v": 113
    },
    {
      "midi": 73,
      "hit": false,
      "t": 195061.03515625,
      "d": 1767.578125,
      "v": 113
    },
    {
      "midi": 70,
      "hit": false,
      "t": 195065.91796875,
      "d": 1765.13671875,
      "v": 113
    },
    {
      "midi": 42,
      "hit": false,
      "t": 195234.375,
      "d": 234.375,
      "v": 127
    },
    {
      "midi": 54,
      "hit": false,
      "t": 195234.375,
      "d": 46.38671875,
      "v": 116
    },
    {
      "midi": 54,
      "hit": false,
      "t": 195234.375,
      "d": 46.38671875,
      "v": 127
    },
    {
      "midi": 78,
      "hit": false,
      "t": 195234.375,
      "d": 51.26953125,
      "v": 127
    },
    {
      "midi": 73,
      "hit": false,
      "t": 195234.375,
      "d": 34.1796875,
      "v": 119
    },
    {
      "midi": 54,
      "hit": false,
      "t": 195351.5625,
      "d": 85.44921875,
      "v": 119
    },
    {
      "midi": 54,
      "hit": false,
      "t": 195351.5625,
      "d": 85.44921875,
      "v": 127
    },
    {
      "midi": 78,
      "hit": false,
      "t": 195351.5625,
      "d": 63.4765625,
      "v": 127
    },
    {
      "midi": 73,
      "hit": false,
      "t": 195351.5625,
      "d": 61.03515625,
      "v": 105
    },
    {
      "midi": 30,
      "hit": false,
      "t": 195468.75,
      "d": 234.375,
      "v": 127
    },
    {
      "midi": 54,
      "hit": false,
      "t": 195468.75,
      "d": 51.26953125,
      "v": 116
    },
    {
      "midi": 54,
      "hit": false,
      "t": 195468.75,
      "d": 51.26953125,
      "v": 127
    },
    {
      "midi": 78,
      "hit": false,
      "t": 195468.75,
      "d": 53.7109375,
      "v": 127
    },
    {
      "midi": 75,
      "hit": false,
      "t": 195468.75,
      "d": 26.85546875,
      "v": 113
    },
    {
      "midi": 78,
      "hit": false,
      "t": 195585.9375,
      "d": 73.2421875,
      "v": 127
    },
    {
      "midi": 75,
      "hit": false,
      "t": 195585.9375,
      "d": 51.26953125,
      "v": 110
    },
    {
      "midi": 42,
      "hit": false,
      "t": 195703.125,
      "d": 234.375,
      "v": 127
    },
    {
      "midi": 54,
      "hit": false,
      "t": 195703.125,
      "d": 43.9453125,
      "v": 105
    },
    {
      "midi": 54,
      "hit": false,
      "t": 195703.125,
      "d": 43.9453125,
      "v": 123
    },
    {
      "midi": 78,
      "hit": false,
      "t": 195703.125,
      "d": 75.68359375,
      "v": 127
    },
    {
      "midi": 74,
      "hit": false,
      "t": 195703.125,
      "d": 24.4140625,
      "v": 107
    },
    {
      "midi": 73,
      "hit": false,
      "t": 195703.125,
      "d": 36.62109375,
      "v": 107
    },
    {
      "midi": 54,
      "hit": false,
      "t": 195820.3125,
      "d": 46.38671875,
      "v": 110
    },
    {
      "midi": 54,
      "hit": false,
      "t": 195820.3125,
      "d": 46.38671875,
      "v": 127
    },
    {
      "midi": 73,
      "hit": false,
      "t": 195820.3125,
      "d": 78.125,
      "v": 107
    },
    {
      "midi": 30,
      "hit": false,
      "t": 195937.5,
      "d": 234.375,
      "v": 127
    },
    {
      "midi": 54,
      "hit": false,
      "t": 195937.5,
      "d": 43.9453125,
      "v": 113
    },
    {
      "midi": 54,
      "hit": false,
      "t": 195937.5,
      "d": 43.9453125,
      "v": 127
    },
    {
      "midi": 61,
      "hit": false,
      "t": 195937.5,
      "d": 229.4921875,
      "v": 122
    },
    {
      "midi": 58,
      "hit": false,
      "t": 195937.5,
      "d": 251.46484375,
      "v": 125
    },
    {
      "midi": 42,
      "hit": false,
      "t": 196171.875,
      "d": 234.375,
      "v": 127
    },
    {
      "midi": 54,
      "hit": false,
      "t": 196171.875,
      "d": 43.9453125,
      "v": 105
    },
    {
      "midi": 54,
      "hit": false,
      "t": 196171.875,
      "d": 43.9453125,
      "v": 123
    },
    {
      "midi": 78,
      "hit": false,
      "t": 196171.875,
      "d": 43.9453125,
      "v": 127
    },
    {
      "midi": 73,
      "hit": false,
      "t": 196171.875,
      "d": 48.828125,
      "v": 127
    },
    {
      "midi": 59,
      "hit": false,
      "t": 196171.875,
      "d": 222.16796875,
      "v": 120
    },
    {
      "midi": 66,
      "hit": false,
      "t": 196171.875,
      "d": 273.4375,
      "v": 107
    },
    {
      "midi": 54,
      "hit": false,
      "t": 196289.0625,
      "d": 75.68359375,
      "v": 113
    },
    {
      "midi": 54,
      "hit": false,
      "t": 196289.0625,
      "d": 75.68359375,
      "v": 127
    },
    {
      "midi": 78,
      "hit": false,
      "t": 196289.0625,
      "d": 61.03515625,
      "v": 127
    },
    {
      "midi": 73,
      "hit": false,
      "t": 196289.0625,
      "d": 63.4765625,
      "v": 110
    },
    {
      "midi": 30,
      "hit": false,
      "t": 196406.25,
      "d": 234.375,
      "v": 127
    },
    {
      "midi": 54,
      "hit": false,
      "t": 196406.25,
      "d": 51.26953125,
      "v": 110
    },
    {
      "midi": 54,
      "hit": false,
      "t": 196406.25,
      "d": 51.26953125,
      "v": 127
    },
    {
      "midi": 78,
      "hit": false,
      "t": 196406.25,
      "d": 61.03515625,
      "v": 127
    },
    {
      "midi": 75,
      "hit": false,
      "t": 196406.25,
      "d": 36.62109375,
      "v": 116
    },
    {
      "midi": 68,
      "hit": false,
      "t": 196406.25,
      "d": 156.25,
      "v": 110
    },
    {
      "midi": 61,
      "hit": false,
      "t": 196406.25,
      "d": 207.51953125,
      "v": 122
    },
    {
      "midi": 78,
      "hit": false,
      "t": 196523.4375,
      "d": 70.80078125,
      "v": 127
    },
    {
      "midi": 75,
      "hit": false,
      "t": 196523.4375,
      "d": 39.0625,
      "v": 105
    },
    {
      "midi": 42,
      "hit": false,
      "t": 196640.625,
      "d": 234.375,
      "v": 127
    },
    {
      "midi": 54,
      "hit": false,
      "t": 196640.625,
      "d": 56.15234375,
      "v": 113
    },
    {
      "midi": 54,
      "hit": false,
      "t": 196640.625,
      "d": 56.15234375,
      "v": 127
    },
    {
      "midi": 78,
      "hit": false,
      "t": 196640.625,
      "d": 97.65625,
      "v": 127
    },
    {
      "midi": 73,
      "hit": false,
      "t": 196640.625,
      "d": 46.38671875,
      "v": 122
    },
    {
      "midi": 66,
      "hit": false,
      "t": 196640.625,
      "d": 852.05078125,
      "v": 127
    },
    {
      "midi": 70,
      "hit": false,
      "t": 196640.625,
      "d": 1169.43359375,
      "v": 107
    },
    {
      "midi": 54,
      "hit": false,
      "t": 196757.8125,
      "d": 61.03515625,
      "v": 113
    },
    {
      "midi": 54,
      "hit": false,
      "t": 196757.8125,
      "d": 61.03515625,
      "v": 127
    },
    {
      "midi": 73,
      "hit": false,
      "t": 196757.8125,
      "d": 85.44921875,
      "v": 107
    },
    {
      "midi": 30,
      "hit": false,
      "t": 196875,
      "d": 234.375,
      "v": 127
    },
    {
      "midi": 78,
      "hit": false,
      "t": 196875,
      "d": 5307.6171875,
      "v": 57
    },
    {
      "midi": 73,
      "hit": false,
      "t": 196875,
      "d": 5371.09375,
      "v": 55
    },
    {
      "midi": 54,
      "hit": false,
      "t": 196875,
      "d": 58.59375,
      "v": 113
    },
    {
      "midi": 54,
      "hit": false,
      "t": 196875,
      "d": 58.59375,
      "v": 127
    },
    {
      "midi": 66,
      "hit": false,
      "t": 196892.08984375,
      "d": 5449.21875,
      "v": 100
    },
    {
      "midi": 73,
      "hit": false,
      "t": 196896.97265625,
      "d": 5373.53515625,
      "v": 93
    },
    {
      "midi": 70,
      "hit": false,
      "t": 196899.4140625,
      "d": 5437.01171875,
      "v": 100
    },
    {
      "midi": 70,
      "hit": false,
      "t": 196992.1875,
      "d": 5361.328125,
      "v": 55
    },
    {
      "midi": 42,
      "hit": false,
      "t": 197109.375,
      "d": 234.375,
      "v": 127
    },
    {
      "midi": 54,
      "hit": false,
      "t": 197109.375,
      "d": 53.7109375,
      "v": 102
    },
    {
      "midi": 54,
      "hit": false,
      "t": 197109.375,
      "d": 53.7109375,
      "v": 120
    },
    {
      "midi": 78,
      "hit": false,
      "t": 197109.375,
      "d": 39.0625,
      "v": 127
    },
    {
      "midi": 73,
      "hit": false,
      "t": 197109.375,
      "d": 34.1796875,
      "v": 119
    },
    {
      "midi": 54,
      "hit": false,
      "t": 197226.5625,
      "d": 70.80078125,
      "v": 105
    },
    {
      "midi": 54,
      "hit": false,
      "t": 197226.5625,
      "d": 70.80078125,
      "v": 123
    },
    {
      "midi": 78,
      "hit": false,
      "t": 197226.5625,
      "d": 41.50390625,
      "v": 127
    },
    {
      "midi": 73,
      "hit": false,
      "t": 197226.5625,
      "d": 61.03515625,
      "v": 105
    },
    {
      "midi": 30,
      "hit": false,
      "t": 197343.75,
      "d": 234.375,
      "v": 127
    },
    {
      "midi": 54,
      "hit": false,
      "t": 197343.75,
      "d": 58.59375,
      "v": 113
    },
    {
      "midi": 54,
      "hit": false,
      "t": 197343.75,
      "d": 58.59375,
      "v": 127
    },
    {
      "midi": 78,
      "hit": false,
      "t": 197343.75,
      "d": 41.50390625,
      "v": 127
    },
    {
      "midi": 75,
      "hit": false,
      "t": 197343.75,
      "d": 26.85546875,
      "v": 113
    },
    {
      "midi": 78,
      "hit": false,
      "t": 197460.9375,
      "d": 61.03515625,
      "v": 127
    },
    {
      "midi": 75,
      "hit": false,
      "t": 197460.9375,
      "d": 51.26953125,
      "v": 110
    },
    {
      "midi": 42,
      "hit": false,
      "t": 197578.125,
      "d": 234.375,
      "v": 127
    },
    {
      "midi": 54,
      "hit": false,
      "t": 197578.125,
      "d": 53.7109375,
      "v": 102
    },
    {
      "midi": 54,
      "hit": false,
      "t": 197578.125,
      "d": 53.7109375,
      "v": 120
    },
    {
      "midi": 78,
      "hit": false,
      "t": 197578.125,
      "d": 61.03515625,
      "v": 127
    },
    {
      "midi": 74,
      "hit": false,
      "t": 197578.125,
      "d": 24.4140625,
      "v": 107
    },
    {
      "midi": 73,
      "hit": false,
      "t": 197578.125,
      "d": 36.62109375,
      "v": 107
    },
    {
      "midi": 54,
      "hit": false,
      "t": 197695.3125,
      "d": 46.38671875,
      "v": 105
    },
    {
      "midi": 54,
      "hit": false,
      "t": 197695.3125,
      "d": 46.38671875,
      "v": 123
    },
    {
      "midi": 73,
      "hit": false,
      "t": 197695.3125,
      "d": 78.125,
      "v": 107
    },
    {
      "midi": 30,
      "hit": false,
      "t": 197812.5,
      "d": 234.375,
      "v": 127
    },
    {
      "midi": 54,
      "hit": false,
      "t": 197812.5,
      "d": 58.59375,
      "v": 116
    },
    {
      "midi": 54,
      "hit": false,
      "t": 197812.5,
      "d": 58.59375,
      "v": 127
    },
    {
      "midi": 61,
      "hit": false,
      "t": 197812.5,
      "d": 229.4921875,
      "v": 107
    },
    {
      "midi": 58,
      "hit": false,
      "t": 197812.5,
      "d": 275.87890625,
      "v": 120
    },
    {
      "midi": 42,
      "hit": false,
      "t": 198046.875,
      "d": 234.375,
      "v": 127
    },
    {
      "midi": 54,
      "hit": false,
      "t": 198046.875,
      "d": 51.26953125,
      "v": 105
    },
    {
      "midi": 54,
      "hit": false,
      "t": 198046.875,
      "d": 51.26953125,
      "v": 123
    },
    {
      "midi": 78,
      "hit": false,
      "t": 198046.875,
      "d": 41.50390625,
      "v": 127
    },
    {
      "midi": 73,
      "hit": false,
      "t": 198046.875,
      "d": 48.828125,
      "v": 127
    },
    {
      "midi": 59,
      "hit": false,
      "t": 198046.875,
      "d": 229.4921875,
      "v": 107
    },
    {
      "midi": 66,
      "hit": false,
      "t": 198046.875,
      "d": 268.5546875,
      "v": 102
    },
    {
      "midi": 54,
      "hit": false,
      "t": 198164.0625,
      "d": 63.4765625,
      "v": 110
    },
    {
      "midi": 54,
      "hit": false,
      "t": 198164.0625,
      "d": 63.4765625,
      "v": 127
    },
    {
      "midi": 78,
      "hit": false,
      "t": 198164.0625,
      "d": 39.0625,
      "v": 127
    },
    {
      "midi": 73,
      "hit": false,
      "t": 198164.0625,
      "d": 63.4765625,
      "v": 110
    },
    {
      "midi": 30,
      "hit": false,
      "t": 198281.25,
      "d": 234.375,
      "v": 127
    },
    {
      "midi": 54,
      "hit": false,
      "t": 198281.25,
      "d": 48.828125,
      "v": 110
    },
    {
      "midi": 54,
      "hit": false,
      "t": 198281.25,
      "d": 48.828125,
      "v": 127
    },
    {
      "midi": 78,
      "hit": false,
      "t": 198281.25,
      "d": 31.73828125,
      "v": 127
    },
    {
      "midi": 75,
      "hit": false,
      "t": 198281.25,
      "d": 36.62109375,
      "v": 116
    },
    {
      "midi": 68,
      "hit": false,
      "t": 198281.25,
      "d": 234.375,
      "v": 110
    },
    {
      "midi": 61,
      "hit": false,
      "t": 198281.25,
      "d": 249.0234375,
      "v": 100
    },
    {
      "midi": 78,
      "hit": false,
      "t": 198398.4375,
      "d": 46.38671875,
      "v": 127
    },
    {
      "midi": 75,
      "hit": false,
      "t": 198398.4375,
      "d": 39.0625,
      "v": 105
    },
    {
      "midi": 42,
      "hit": false,
      "t": 198515.625,
      "d": 234.375,
      "v": 127
    },
    {
      "midi": 54,
      "hit": false,
      "t": 198515.625,
      "d": 53.7109375,
      "v": 100
    },
    {
      "midi": 54,
      "hit": false,
      "t": 198515.625,
      "d": 53.7109375,
      "v": 118
    },
    {
      "midi": 78,
      "hit": false,
      "t": 198515.625,
      "d": 65.91796875,
      "v": 127
    },
    {
      "midi": 73,
      "hit": false,
      "t": 198515.625,
      "d": 46.38671875,
      "v": 122
    },
    {
      "midi": 66,
      "hit": false,
      "t": 198515.625,
      "d": 632.32421875,
      "v": 127
    },
    {
      "midi": 70,
      "hit": false,
      "t": 198515.625,
      "d": 1135.25390625,
      "v": 105
    },
    {
      "midi": 54,
      "hit": false,
      "t": 198632.8125,
      "d": 68.359375,
      "v": 110
    },
    {
      "midi": 54,
      "hit": false,
      "t": 198632.8125,
      "d": 68.359375,
      "v": 127
    },
    {
      "midi": 73,
      "hit": false,
      "t": 198632.8125,
      "d": 85.44921875,
      "v": 107
    },
    {
      "midi": 30,
      "hit": false,
      "t": 198750,
      "d": 234.375,
      "v": 127
    },
    {
      "midi": 54,
      "hit": false,
      "t": 198750,
      "d": 53.7109375,
      "v": 116
    },
    {
      "midi": 54,
      "hit": false,
      "t": 198750,
      "d": 53.7109375,
      "v": 127
    },
    {
      "midi": 42,
      "hit": false,
      "t": 198984.375,
      "d": 234.375,
      "v": 127
    },
    {
      "midi": 54,
      "hit": false,
      "t": 198984.375,
      "d": 46.38671875,
      "v": 102
    },
    {
      "midi": 54,
      "hit": false,
      "t": 198984.375,
      "d": 46.38671875,
      "v": 120
    },
    {
      "midi": 78,
      "hit": false,
      "t": 198984.375,
      "d": 41.50390625,
      "v": 127
    },
    {
      "midi": 73,
      "hit": false,
      "t": 198984.375,
      "d": 34.1796875,
      "v": 119
    },
    {
      "midi": 54,
      "hit": false,
      "t": 199101.5625,
      "d": 78.125,
      "v": 105
    },
    {
      "midi": 54,
      "hit": false,
      "t": 199101.5625,
      "d": 78.125,
      "v": 123
    },
    {
      "midi": 78,
      "hit": false,
      "t": 199101.5625,
      "d": 43.9453125,
      "v": 127
    },
    {
      "midi": 73,
      "hit": false,
      "t": 199101.5625,
      "d": 61.03515625,
      "v": 105
    },
    {
      "midi": 30,
      "hit": false,
      "t": 199218.75,
      "d": 234.375,
      "v": 127
    },
    {
      "midi": 54,
      "hit": false,
      "t": 199218.75,
      "d": 61.03515625,
      "v": 113
    },
    {
      "midi": 54,
      "hit": false,
      "t": 199218.75,
      "d": 61.03515625,
      "v": 127
    },
    {
      "midi": 78,
      "hit": false,
      "t": 199218.75,
      "d": 43.9453125,
      "v": 127
    },
    {
      "midi": 75,
      "hit": false,
      "t": 199218.75,
      "d": 26.85546875,
      "v": 113
    },
    {
      "midi": 78,
      "hit": false,
      "t": 199335.9375,
      "d": 68.359375,
      "v": 127
    },
    {
      "midi": 75,
      "hit": false,
      "t": 199335.9375,
      "d": 51.26953125,
      "v": 110
    },
    {
      "midi": 42,
      "hit": false,
      "t": 199453.125,
      "d": 234.375,
      "v": 127
    },
    {
      "midi": 54,
      "hit": false,
      "t": 199453.125,
      "d": 61.03515625,
      "v": 107
    },
    {
      "midi": 54,
      "hit": false,
      "t": 199453.125,
      "d": 61.03515625,
      "v": 125
    },
    {
      "midi": 78,
      "hit": false,
      "t": 199453.125,
      "d": 68.359375,
      "v": 127
    },
    {
      "midi": 74,
      "hit": false,
      "t": 199453.125,
      "d": 24.4140625,
      "v": 107
    },
    {
      "midi": 73,
      "hit": false,
      "t": 199453.125,
      "d": 36.62109375,
      "v": 107
    },
    {
      "midi": 54,
      "hit": false,
      "t": 199570.3125,
      "d": 70.80078125,
      "v": 102
    },
    {
      "midi": 54,
      "hit": false,
      "t": 199570.3125,
      "d": 70.80078125,
      "v": 120
    },
    {
      "midi": 73,
      "hit": false,
      "t": 199570.3125,
      "d": 78.125,
      "v": 107
    },
    {
      "midi": 30,
      "hit": false,
      "t": 199687.5,
      "d": 234.375,
      "v": 127
    },
    {
      "midi": 54,
      "hit": false,
      "t": 199687.5,
      "d": 56.15234375,
      "v": 113
    },
    {
      "midi": 54,
      "hit": false,
      "t": 199687.5,
      "d": 56.15234375,
      "v": 127
    },
    {
      "midi": 61,
      "hit": false,
      "t": 199687.5,
      "d": 234.375,
      "v": 110
    },
    {
      "midi": 58,
      "hit": false,
      "t": 199687.5,
      "d": 256.34765625,
      "v": 122
    },
    {
      "midi": 42,
      "hit": false,
      "t": 199921.875,
      "d": 234.375,
      "v": 127
    },
    {
      "midi": 54,
      "hit": false,
      "t": 199921.875,
      "d": 56.15234375,
      "v": 102
    },
    {
      "midi": 54,
      "hit": false,
      "t": 199921.875,
      "d": 56.15234375,
      "v": 120
    },
    {
      "midi": 78,
      "hit": false,
      "t": 199921.875,
      "d": 36.62109375,
      "v": 127
    },
    {
      "midi": 73,
      "hit": false,
      "t": 199921.875,
      "d": 48.828125,
      "v": 127
    },
    {
      "midi": 59,
      "hit": false,
      "t": 199921.875,
      "d": 234.375,
      "v": 118
    },
    {
      "midi": 66,
      "hit": false,
      "t": 199921.875,
      "d": 317.3828125,
      "v": 102
    },
    {
      "midi": 54,
      "hit": false,
      "t": 200039.0625,
      "d": 43.9453125,
      "v": 110
    },
    {
      "midi": 54,
      "hit": false,
      "t": 200039.0625,
      "d": 43.9453125,
      "v": 127
    },
    {
      "midi": 78,
      "hit": false,
      "t": 200039.0625,
      "d": 39.0625,
      "v": 127
    },
    {
      "midi": 73,
      "hit": false,
      "t": 200039.0625,
      "d": 63.4765625,
      "v": 110
    },
    {
      "midi": 30,
      "hit": false,
      "t": 200156.25,
      "d": 234.375,
      "v": 127
    },
    {
      "midi": 54,
      "hit": false,
      "t": 200156.25,
      "d": 53.7109375,
      "v": 113
    },
    {
      "midi": 54,
      "hit": false,
      "t": 200156.25,
      "d": 53.7109375,
      "v": 127
    },
    {
      "midi": 78,
      "hit": false,
      "t": 200156.25,
      "d": 39.0625,
      "v": 127
    },
    {
      "midi": 75,
      "hit": false,
      "t": 200156.25,
      "d": 36.62109375,
      "v": 116
    },
    {
      "midi": 68,
      "hit": false,
      "t": 200156.25,
      "d": 234.375,
      "v": 105
    },
    {
      "midi": 61,
      "hit": false,
      "t": 200156.25,
      "d": 290.52734375,
      "v": 88
    },
    {
      "midi": 78,
      "hit": false,
      "t": 200273.4375,
      "d": 63.4765625,
      "v": 127
    },
    {
      "midi": 75,
      "hit": false,
      "t": 200273.4375,
      "d": 39.0625,
      "v": 105
    },
    {
      "midi": 42,
      "hit": false,
      "t": 200390.625,
      "d": 234.375,
      "v": 127
    },
    {
      "midi": 54,
      "hit": false,
      "t": 200390.625,
      "d": 56.15234375,
      "v": 105
    },
    {
      "midi": 54,
      "hit": false,
      "t": 200390.625,
      "d": 56.15234375,
      "v": 123
    },
    {
      "midi": 78,
      "hit": false,
      "t": 200390.625,
      "d": 75.68359375,
      "v": 127
    },
    {
      "midi": 73,
      "hit": false,
      "t": 200390.625,
      "d": 46.38671875,
      "v": 122
    },
    {
      "midi": 66,
      "hit": false,
      "t": 200390.625,
      "d": 317.3828125,
      "v": 127
    },
    {
      "midi": 70,
      "hit": false,
      "t": 200390.625,
      "d": 354.00390625,
      "v": 102
    },
    {
      "midi": 54,
      "hit": false,
      "t": 200507.8125,
      "d": 39.0625,
      "v": 110
    },
    {
      "midi": 54,
      "hit": false,
      "t": 200507.8125,
      "d": 39.0625,
      "v": 127
    },
    {
      "midi": 73,
      "hit": false,
      "t": 200507.8125,
      "d": 85.44921875,
      "v": 107
    },
    {
      "midi": 30,
      "hit": false,
      "t": 200625,
      "d": 234.375,
      "v": 127
    },
    {
      "midi": 54,
      "hit": false,
      "t": 200625,
      "d": 58.59375,
      "v": 110
    },
    {
      "midi": 54,
      "hit": false,
      "t": 200625,
      "d": 58.59375,
      "v": 127
    },
    {
      "midi": 42,
      "hit": false,
      "t": 200859.375,
      "d": 234.375,
      "v": 127
    },
    {
      "midi": 54,
      "hit": false,
      "t": 200859.375,
      "d": 53.7109375,
      "v": 105
    },
    {
      "midi": 54,
      "hit": false,
      "t": 200859.375,
      "d": 53.7109375,
      "v": 123
    },
    {
      "midi": 78,
      "hit": false,
      "t": 200859.375,
      "d": 46.38671875,
      "v": 127
    },
    {
      "midi": 73,
      "hit": false,
      "t": 200859.375,
      "d": 34.1796875,
      "v": 119
    },
    {
      "midi": 66,
      "hit": false,
      "t": 200859.375,
      "d": 78.125,
      "v": 125
    },
    {
      "midi": 70,
      "hit": false,
      "t": 200859.375,
      "d": 122.0703125,
      "v": 105
    },
    {
      "midi": 54,
      "hit": false,
      "t": 200976.5625,
      "d": 87.890625,
      "v": 107
    },
    {
      "midi": 54,
      "hit": false,
      "t": 200976.5625,
      "d": 87.890625,
      "v": 125
    },
    {
      "midi": 78,
      "hit": false,
      "t": 200976.5625,
      "d": 41.50390625,
      "v": 127
    },
    {
      "midi": 73,
      "hit": false,
      "t": 200976.5625,
      "d": 61.03515625,
      "v": 105
    },
    {
      "midi": 30,
      "hit": false,
      "t": 201093.75,
      "d": 234.375,
      "v": 127
    },
    {
      "midi": 54,
      "hit": false,
      "t": 201093.75,
      "d": 61.03515625,
      "v": 107
    },
    {
      "midi": 54,
      "hit": false,
      "t": 201093.75,
      "d": 61.03515625,
      "v": 125
    },
    {
      "midi": 78,
      "hit": false,
      "t": 201093.75,
      "d": 48.828125,
      "v": 127
    },
    {
      "midi": 75,
      "hit": false,
      "t": 201093.75,
      "d": 26.85546875,
      "v": 113
    },
    {
      "midi": 70,
      "hit": false,
      "t": 201093.75,
      "d": 90.33203125,
      "v": 102
    },
    {
      "midi": 66,
      "hit": false,
      "t": 201093.75,
      "d": 97.65625,
      "v": 127
    },
    {
      "midi": 78,
      "hit": false,
      "t": 201210.9375,
      "d": 70.80078125,
      "v": 127
    },
    {
      "midi": 75,
      "hit": false,
      "t": 201210.9375,
      "d": 51.26953125,
      "v": 110
    },
    {
      "midi": 42,
      "hit": false,
      "t": 201328.125,
      "d": 234.375,
      "v": 127
    },
    {
      "midi": 54,
      "hit": false,
      "t": 201328.125,
      "d": 56.15234375,
      "v": 105
    },
    {
      "midi": 54,
      "hit": false,
      "t": 201328.125,
      "d": 56.15234375,
      "v": 123
    },
    {
      "midi": 78,
      "hit": false,
      "t": 201328.125,
      "d": 78.125,
      "v": 127
    },
    {
      "midi": 74,
      "hit": false,
      "t": 201328.125,
      "d": 24.4140625,
      "v": 107
    },
    {
      "midi": 73,
      "hit": false,
      "t": 201328.125,
      "d": 36.62109375,
      "v": 107
    },
    {
      "midi": 70,
      "hit": false,
      "t": 201328.125,
      "d": 451.66015625,
      "v": 105
    },
    {
      "midi": 66,
      "hit": false,
      "t": 201328.125,
      "d": 476.07421875,
      "v": 127
    },
    {
      "midi": 54,
      "hit": false,
      "t": 201445.3125,
      "d": 48.828125,
      "v": 110
    },
    {
      "midi": 54,
      "hit": false,
      "t": 201445.3125,
      "d": 48.828125,
      "v": 127
    },
    {
      "midi": 73,
      "hit": false,
      "t": 201445.3125,
      "d": 78.125,
      "v": 107
    },
    {
      "midi": 30,
      "hit": false,
      "t": 201562.5,
      "d": 234.375,
      "v": 127
    },
    {
      "midi": 54,
      "hit": false,
      "t": 201562.5,
      "d": 58.59375,
      "v": 113
    },
    {
      "midi": 54,
      "hit": false,
      "t": 201562.5,
      "d": 58.59375,
      "v": 127
    },
    {
      "midi": 42,
      "hit": false,
      "t": 201796.875,
      "d": 234.375,
      "v": 127
    },
    {
      "midi": 54,
      "hit": false,
      "t": 201796.875,
      "d": 58.59375,
      "v": 105
    },
    {
      "midi": 54,
      "hit": false,
      "t": 201796.875,
      "d": 58.59375,
      "v": 123
    },
    {
      "midi": 78,
      "hit": false,
      "t": 201796.875,
      "d": 43.9453125,
      "v": 127
    },
    {
      "midi": 73,
      "hit": false,
      "t": 201796.875,
      "d": 48.828125,
      "v": 127
    },
    {
      "midi": 68,
      "hit": false,
      "t": 201796.875,
      "d": 190.4296875,
      "v": 110
    },
    {
      "midi": 65,
      "hit": false,
      "t": 201796.875,
      "d": 212.40234375,
      "v": 125
    },
    {
      "midi": 54,
      "hit": false,
      "t": 201914.0625,
      "d": 41.50390625,
      "v": 113
    },
    {
      "midi": 54,
      "hit": false,
      "t": 201914.0625,
      "d": 41.50390625,
      "v": 127
    },
    {
      "midi": 78,
      "hit": false,
      "t": 201914.0625,
      "d": 36.62109375,
      "v": 127
    },
    {
      "midi": 73,
      "hit": false,
      "t": 201914.0625,
      "d": 63.4765625,
      "v": 110
    },
    {
      "midi": 30,
      "hit": false,
      "t": 202031.25,
      "d": 234.375,
      "v": 127
    },
    {
      "midi": 54,
      "hit": false,
      "t": 202031.25,
      "d": 61.03515625,
      "v": 116
    },
    {
      "midi": 54,
      "hit": false,
      "t": 202031.25,
      "d": 61.03515625,
      "v": 127
    },
    {
      "midi": 78,
      "hit": false,
      "t": 202031.25,
      "d": 51.26953125,
      "v": 127
    },
    {
      "midi": 75,
      "hit": false,
      "t": 202031.25,
      "d": 36.62109375,
      "v": 116
    },
    {
      "midi": 66,
      "hit": false,
      "t": 202031.25,
      "d": 200.1953125,
      "v": 89
    },
    {
      "midi": 61,
      "hit": false,
      "t": 202031.25,
      "d": 212.40234375,
      "v": 127
    },
    {
      "midi": 78,
      "hit": false,
      "t": 202148.4375,
      "d": 43.9453125,
      "v": 127
    },
    {
      "midi": 75,
      "hit": false,
      "t": 202148.4375,
      "d": 39.0625,
      "v": 105
    },
    {
      "midi": 42,
      "hit": false,
      "t": 202265.625,
      "d": 234.375,
      "v": 127
    },
    {
      "midi": 54,
      "hit": false,
      "t": 202265.625,
      "d": 53.7109375,
      "v": 107
    },
    {
      "midi": 54,
      "hit": false,
      "t": 202265.625,
      "d": 53.7109375,
      "v": 125
    },
    {
      "midi": 78,
      "hit": false,
      "t": 202265.625,
      "d": 95.21484375,
      "v": 127
    },
    {
      "midi": 73,
      "hit": false,
      "t": 202265.625,
      "d": 46.38671875,
      "v": 122
    },
    {
      "midi": 59,
      "hit": false,
      "t": 202265.625,
      "d": 964.35546875,
      "v": 127
    },
    {
      "midi": 68,
      "hit": false,
      "t": 202265.625,
      "d": 1125.48828125,
      "v": 113
    },
    {
      "midi": 54,
      "hit": false,
      "t": 202382.8125,
      "d": 68.359375,
      "v": 107
    },
    {
      "midi": 54,
      "hit": false,
      "t": 202382.8125,
      "d": 68.359375,
      "v": 125
    },
    {
      "midi": 73,
      "hit": false,
      "t": 202382.8125,
      "d": 85.44921875,
      "v": 107
    },
    {
      "midi": 37,
      "hit": false,
      "t": 202500,
      "d": 234.375,
      "v": 127
    },
    {
      "midi": 80,
      "hit": false,
      "t": 202500,
      "d": 7236.328125,
      "v": 50
    },
    {
      "midi": 77,
      "hit": false,
      "t": 202500,
      "d": 7268.06640625,
      "v": 57
    },
    {
      "midi": 73,
      "hit": false,
      "t": 202500,
      "d": 7275.390625,
      "v": 43
    },
    {
      "midi": 49,
      "hit": false,
      "t": 202500,
      "d": 43.9453125,
      "v": 116
    },
    {
      "midi": 49,
      "hit": false,
      "t": 202500,
      "d": 43.9453125,
      "v": 127
    },
    {
      "midi": 65,
      "hit": false,
      "t": 202502.44140625,
      "d": 7292.48046875,
      "v": 110
    },
    {
      "midi": 68,
      "hit": false,
      "t": 202504.8828125,
      "d": 7299.8046875,
      "v": 100
    },
    {
      "midi": 61,
      "hit": false,
      "t": 202514.6484375,
      "d": 7236.328125,
      "v": 78
    },
    {
      "midi": 49,
      "hit": false,
      "t": 202734.375,
      "d": 234.375,
      "v": 127
    },
    {
      "midi": 49,
      "hit": false,
      "t": 202734.375,
      "d": 34.1796875,
      "v": 102
    },
    {
      "midi": 49,
      "hit": false,
      "t": 202734.375,
      "d": 34.1796875,
      "v": 120
    },
    {
      "midi": 73,
      "hit": false,
      "t": 202734.375,
      "d": 43.9453125,
      "v": 127
    },
    {
      "midi": 73,
      "hit": false,
      "t": 202734.375,
      "d": 34.1796875,
      "v": 119
    },
    {
      "midi": 49,
      "hit": false,
      "t": 202851.5625,
      "d": 78.125,
      "v": 107
    },
    {
      "midi": 49,
      "hit": false,
      "t": 202851.5625,
      "d": 78.125,
      "v": 125
    },
    {
      "midi": 73,
      "hit": false,
      "t": 202851.5625,
      "d": 48.828125,
      "v": 127
    },
    {
      "midi": 73,
      "hit": false,
      "t": 202851.5625,
      "d": 61.03515625,
      "v": 105
    },
    {
      "midi": 37,
      "hit": false,
      "t": 202968.75,
      "d": 234.375,
      "v": 127
    },
    {
      "midi": 49,
      "hit": false,
      "t": 202968.75,
      "d": 46.38671875,
      "v": 107
    },
    {
      "midi": 49,
      "hit": false,
      "t": 202968.75,
      "d": 46.38671875,
      "v": 125
    },
    {
      "midi": 73,
      "hit": false,
      "t": 202968.75,
      "d": 53.7109375,
      "v": 127
    },
    {
      "midi": 75,
      "hit": false,
      "t": 202968.75,
      "d": 26.85546875,
      "v": 113
    },
    {
      "midi": 73,
      "hit": false,
      "t": 203085.9375,
      "d": 63.4765625,
      "v": 127
    },
    {
      "midi": 75,
      "hit": false,
      "t": 203085.9375,
      "d": 51.26953125,
      "v": 110
    },
    {
      "midi": 49,
      "hit": false,
      "t": 203203.125,
      "d": 234.375,
      "v": 127
    },
    {
      "midi": 49,
      "hit": false,
      "t": 203203.125,
      "d": 51.26953125,
      "v": 110
    },
    {
      "midi": 49,
      "hit": false,
      "t": 203203.125,
      "d": 51.26953125,
      "v": 127
    },
    {
      "midi": 73,
      "hit": false,
      "t": 203203.125,
      "d": 73.2421875,
      "v": 127
    },
    {
      "midi": 74,
      "hit": false,
      "t": 203203.125,
      "d": 24.4140625,
      "v": 107
    },
    {
      "midi": 73,
      "hit": false,
      "t": 203203.125,
      "d": 36.62109375,
      "v": 107
    },
    {
      "midi": 49,
      "hit": false,
      "t": 203320.3125,
      "d": 56.15234375,
      "v": 107
    },
    {
      "midi": 49,
      "hit": false,
      "t": 203320.3125,
      "d": 56.15234375,
      "v": 125
    },
    {
      "midi": 73,
      "hit": false,
      "t": 203320.3125,
      "d": 78.125,
      "v": 107
    },
    {
      "midi": 37,
      "hit": false,
      "t": 203437.5,
      "d": 234.375,
      "v": 127
    },
    {
      "midi": 49,
      "hit": false,
      "t": 203437.5,
      "d": 48.828125,
      "v": 110
    },
    {
      "midi": 49,
      "hit": false,
      "t": 203437.5,
      "d": 48.828125,
      "v": 127
    },
    {
      "midi": 61,
      "hit": false,
      "t": 203437.5,
      "d": 241.69921875,
      "v": 116
    },
    {
      "midi": 56,
      "hit": false,
      "t": 203437.5,
      "d": 280.76171875,
      "v": 127
    },
    {
      "midi": 49,
      "hit": false,
      "t": 203671.875,
      "d": 234.375,
      "v": 127
    },
    {
      "midi": 49,
      "hit": false,
      "t": 203671.875,
      "d": 51.26953125,
      "v": 107
    },
    {
      "midi": 49,
      "hit": false,
      "t": 203671.875,
      "d": 51.26953125,
      "v": 125
    },
    {
      "midi": 73,
      "hit": false,
      "t": 203671.875,
      "d": 43.9453125,
      "v": 127
    },
    {
      "midi": 73,
      "hit": false,
      "t": 203671.875,
      "d": 48.828125,
      "v": 127
    },
    {
      "midi": 65,
      "hit": false,
      "t": 203671.875,
      "d": 183.10546875,
      "v": 110
    },
    {
      "midi": 58,
      "hit": false,
      "t": 203671.875,
      "d": 283.203125,
      "v": 125
    },
    {
      "midi": 49,
      "hit": false,
      "t": 203789.0625,
      "d": 46.38671875,
      "v": 110
    },
    {
      "midi": 49,
      "hit": false,
      "t": 203789.0625,
      "d": 46.38671875,
      "v": 127
    },
    {
      "midi": 73,
      "hit": false,
      "t": 203789.0625,
      "d": 39.0625,
      "v": 127
    },
    {
      "midi": 73,
      "hit": false,
      "t": 203789.0625,
      "d": 63.4765625,
      "v": 110
    },
    {
      "midi": 37,
      "hit": false,
      "t": 203906.25,
      "d": 234.375,
      "v": 127
    },
    {
      "midi": 49,
      "hit": false,
      "t": 203906.25,
      "d": 53.7109375,
      "v": 119
    },
    {
      "midi": 49,
      "hit": false,
      "t": 203906.25,
      "d": 53.7109375,
      "v": 127
    },
    {
      "midi": 73,
      "hit": false,
      "t": 203906.25,
      "d": 48.828125,
      "v": 127
    },
    {
      "midi": 75,
      "hit": false,
      "t": 203906.25,
      "d": 36.62109375,
      "v": 116
    },
    {
      "midi": 59,
      "hit": false,
      "t": 203906.25,
      "d": 224.609375,
      "v": 110
    },
    {
      "midi": 66,
      "hit": false,
      "t": 203906.25,
      "d": 224.609375,
      "v": 98
    },
    {
      "midi": 73,
      "hit": false,
      "t": 204023.4375,
      "d": 65.91796875,
      "v": 127
    },
    {
      "midi": 75,
      "hit": false,
      "t": 204023.4375,
      "d": 39.0625,
      "v": 105
    },
    {
      "midi": 49,
      "hit": false,
      "t": 204140.625,
      "d": 234.375,
      "v": 127
    },
    {
      "midi": 49,
      "hit": false,
      "t": 204140.625,
      "d": 51.26953125,
      "v": 107
    },
    {
      "midi": 49,
      "hit": false,
      "t": 204140.625,
      "d": 51.26953125,
      "v": 125
    },
    {
      "midi": 73,
      "hit": false,
      "t": 204140.625,
      "d": 80.56640625,
      "v": 127
    },
    {
      "midi": 73,
      "hit": false,
      "t": 204140.625,
      "d": 46.38671875,
      "v": 122
    },
    {
      "midi": 65,
      "hit": false,
      "t": 204140.625,
      "d": 947.265625,
      "v": 127
    },
    {
      "midi": 68,
      "hit": false,
      "t": 204140.625,
      "d": 1162.109375,
      "v": 116
    },
    {
      "midi": 49,
      "hit": false,
      "t": 204257.8125,
      "d": 61.03515625,
      "v": 102
    },
    {
      "midi": 49,
      "hit": false,
      "t": 204257.8125,
      "d": 61.03515625,
      "v": 120
    },
    {
      "midi": 73,
      "hit": false,
      "t": 204257.8125,
      "d": 85.44921875,
      "v": 107
    },
    {
      "midi": 37,
      "hit": false,
      "t": 204375,
      "d": 234.375,
      "v": 127
    },
    {
      "midi": 49,
      "hit": false,
      "t": 204375,
      "d": 53.7109375,
      "v": 119
    },
    {
      "midi": 49,
      "hit": false,
      "t": 204375,
      "d": 53.7109375,
      "v": 127
    },
    {
      "midi": 49,
      "hit": false,
      "t": 204609.375,
      "d": 234.375,
      "v": 127
    },
    {
      "midi": 49,
      "hit": false,
      "t": 204609.375,
      "d": 46.38671875,
      "v": 105
    },
    {
      "midi": 49,
      "hit": false,
      "t": 204609.375,
      "d": 46.38671875,
      "v": 123
    },
    {
      "midi": 73,
      "hit": false,
      "t": 204609.375,
      "d": 48.828125,
      "v": 127
    },
    {
      "midi": 73,
      "hit": false,
      "t": 204609.375,
      "d": 34.1796875,
      "v": 119
    },
    {
      "midi": 49,
      "hit": false,
      "t": 204726.5625,
      "d": 70.80078125,
      "v": 105
    },
    {
      "midi": 49,
      "hit": false,
      "t": 204726.5625,
      "d": 70.80078125,
      "v": 123
    },
    {
      "midi": 73,
      "hit": false,
      "t": 204726.5625,
      "d": 48.828125,
      "v": 127
    },
    {
      "midi": 73,
      "hit": false,
      "t": 204726.5625,
      "d": 61.03515625,
      "v": 105
    },
    {
      "midi": 37,
      "hit": false,
      "t": 204843.75,
      "d": 234.375,
      "v": 127
    },
    {
      "midi": 49,
      "hit": false,
      "t": 204843.75,
      "d": 46.38671875,
      "v": 113
    },
    {
      "midi": 49,
      "hit": false,
      "t": 204843.75,
      "d": 46.38671875,
      "v": 127
    },
    {
      "midi": 73,
      "hit": false,
      "t": 204843.75,
      "d": 46.38671875,
      "v": 127
    },
    {
      "midi": 75,
      "hit": false,
      "t": 204843.75,
      "d": 26.85546875,
      "v": 113
    },
    {
      "midi": 73,
      "hit": false,
      "t": 204960.9375,
      "d": 75.68359375,
      "v": 127
    },
    {
      "midi": 75,
      "hit": false,
      "t": 204960.9375,
      "d": 51.26953125,
      "v": 110
    },
    {
      "midi": 49,
      "hit": false,
      "t": 205078.125,
      "d": 234.375,
      "v": 127
    },
    {
      "midi": 49,
      "hit": false,
      "t": 205078.125,
      "d": 53.7109375,
      "v": 107
    },
    {
      "midi": 49,
      "hit": false,
      "t": 205078.125,
      "d": 53.7109375,
      "v": 125
    },
    {
      "midi": 73,
      "hit": false,
      "t": 205078.125,
      "d": 80.56640625,
      "v": 127
    },
    {
      "midi": 74,
      "hit": false,
      "t": 205078.125,
      "d": 24.4140625,
      "v": 107
    },
    {
      "midi": 73,
      "hit": false,
      "t": 205078.125,
      "d": 36.62109375,
      "v": 107
    },
    {
      "midi": 49,
      "hit": false,
      "t": 205195.3125,
      "d": 58.59375,
      "v": 107
    },
    {
      "midi": 49,
      "hit": false,
      "t": 205195.3125,
      "d": 58.59375,
      "v": 125
    },
    {
      "midi": 73,
      "hit": false,
      "t": 205195.3125,
      "d": 78.125,
      "v": 107
    },
    {
      "midi": 37,
      "hit": false,
      "t": 205312.5,
      "d": 234.375,
      "v": 127
    },
    {
      "midi": 49,
      "hit": false,
      "t": 205312.5,
      "d": 48.828125,
      "v": 113
    },
    {
      "midi": 49,
      "hit": false,
      "t": 205312.5,
      "d": 48.828125,
      "v": 127
    },
    {
      "midi": 61,
      "hit": false,
      "t": 205312.5,
      "d": 239.2578125,
      "v": 116
    },
    {
      "midi": 56,
      "hit": false,
      "t": 205312.5,
      "d": 270.99609375,
      "v": 127
    },
    {
      "midi": 49,
      "hit": false,
      "t": 205546.875,
      "d": 234.375,
      "v": 127
    },
    {
      "midi": 49,
      "hit": false,
      "t": 205546.875,
      "d": 51.26953125,
      "v": 102
    },
    {
      "midi": 49,
      "hit": false,
      "t": 205546.875,
      "d": 51.26953125,
      "v": 120
    },
    {
      "midi": 73,
      "hit": false,
      "t": 205546.875,
      "d": 53.7109375,
      "v": 127
    },
    {
      "midi": 73,
      "hit": false,
      "t": 205546.875,
      "d": 48.828125,
      "v": 127
    },
    {
      "midi": 65,
      "hit": false,
      "t": 205546.875,
      "d": 205.078125,
      "v": 107
    },
    {
      "midi": 58,
      "hit": false,
      "t": 205546.875,
      "d": 222.16796875,
      "v": 122
    },
    {
      "midi": 49,
      "hit": false,
      "t": 205664.0625,
      "d": 75.68359375,
      "v": 105
    },
    {
      "midi": 49,
      "hit": false,
      "t": 205664.0625,
      "d": 75.68359375,
      "v": 123
    },
    {
      "midi": 73,
      "hit": false,
      "t": 205664.0625,
      "d": 61.03515625,
      "v": 127
    },
    {
      "midi": 73,
      "hit": false,
      "t": 205664.0625,
      "d": 63.4765625,
      "v": 110
    },
    {
      "midi": 37,
      "hit": false,
      "t": 205781.25,
      "d": 234.375,
      "v": 127
    },
    {
      "midi": 49,
      "hit": false,
      "t": 205781.25,
      "d": 61.03515625,
      "v": 116
    },
    {
      "midi": 49,
      "hit": false,
      "t": 205781.25,
      "d": 61.03515625,
      "v": 127
    },
    {
      "midi": 73,
      "hit": false,
      "t": 205781.25,
      "d": 48.828125,
      "v": 127
    },
    {
      "midi": 75,
      "hit": false,
      "t": 205781.25,
      "d": 36.62109375,
      "v": 116
    },
    {
      "midi": 66,
      "hit": false,
      "t": 205781.25,
      "d": 275.87890625,
      "v": 85
    },
    {
      "midi": 59,
      "hit": false,
      "t": 205781.25,
      "d": 290.52734375,
      "v": 115
    },
    {
      "midi": 73,
      "hit": false,
      "t": 205898.4375,
      "d": 75.68359375,
      "v": 127
    },
    {
      "midi": 75,
      "hit": false,
      "t": 205898.4375,
      "d": 39.0625,
      "v": 105
    },
    {
      "midi": 49,
      "hit": false,
      "t": 206015.625,
      "d": 234.375,
      "v": 127
    },
    {
      "midi": 49,
      "hit": false,
      "t": 206015.625,
      "d": 51.26953125,
      "v": 105
    },
    {
      "midi": 49,
      "hit": false,
      "t": 206015.625,
      "d": 51.26953125,
      "v": 123
    },
    {
      "midi": 73,
      "hit": false,
      "t": 206015.625,
      "d": 80.56640625,
      "v": 127
    },
    {
      "midi": 73,
      "hit": false,
      "t": 206015.625,
      "d": 46.38671875,
      "v": 122
    },
    {
      "midi": 65,
      "hit": false,
      "t": 206015.625,
      "d": 1083.984375,
      "v": 127
    },
    {
      "midi": 68,
      "hit": false,
      "t": 206015.625,
      "d": 1118.1640625,
      "v": 113
    },
    {
      "midi": 49,
      "hit": false,
      "t": 206132.8125,
      "d": 70.80078125,
      "v": 110
    },
    {
      "midi": 49,
      "hit": false,
      "t": 206132.8125,
      "d": 70.80078125,
      "v": 127
    },
    {
      "midi": 73,
      "hit": false,
      "t": 206132.8125,
      "d": 85.44921875,
      "v": 107
    },
    {
      "midi": 37,
      "hit": false,
      "t": 206250,
      "d": 234.375,
      "v": 127
    },
    {
      "midi": 49,
      "hit": false,
      "t": 206250,
      "d": 61.03515625,
      "v": 113
    },
    {
      "midi": 49,
      "hit": false,
      "t": 206250,
      "d": 61.03515625,
      "v": 127
    },
    {
      "midi": 49,
      "hit": false,
      "t": 206484.375,
      "d": 234.375,
      "v": 127
    },
    {
      "midi": 49,
      "hit": false,
      "t": 206484.375,
      "d": 51.26953125,
      "v": 105
    },
    {
      "midi": 49,
      "hit": false,
      "t": 206484.375,
      "d": 51.26953125,
      "v": 123
    },
    {
      "midi": 73,
      "hit": false,
      "t": 206484.375,
      "d": 51.26953125,
      "v": 127
    },
    {
      "midi": 73,
      "hit": false,
      "t": 206484.375,
      "d": 34.1796875,
      "v": 119
    },
    {
      "midi": 49,
      "hit": false,
      "t": 206601.5625,
      "d": 46.38671875,
      "v": 119
    },
    {
      "midi": 49,
      "hit": false,
      "t": 206601.5625,
      "d": 46.38671875,
      "v": 127
    },
    {
      "midi": 73,
      "hit": false,
      "t": 206601.5625,
      "d": 70.80078125,
      "v": 127
    },
    {
      "midi": 73,
      "hit": false,
      "t": 206601.5625,
      "d": 61.03515625,
      "v": 105
    },
    {
      "midi": 37,
      "hit": false,
      "t": 206718.75,
      "d": 234.375,
      "v": 127
    },
    {
      "midi": 49,
      "hit": false,
      "t": 206718.75,
      "d": 56.15234375,
      "v": 116
    },
    {
      "midi": 49,
      "hit": false,
      "t": 206718.75,
      "d": 56.15234375,
      "v": 127
    },
    {
      "midi": 73,
      "hit": false,
      "t": 206718.75,
      "d": 56.15234375,
      "v": 127
    },
    {
      "midi": 75,
      "hit": false,
      "t": 206718.75,
      "d": 26.85546875,
      "v": 113
    },
    {
      "midi": 73,
      "hit": false,
      "t": 206835.9375,
      "d": 78.125,
      "v": 127
    },
    {
      "midi": 75,
      "hit": false,
      "t": 206835.9375,
      "d": 51.26953125,
      "v": 110
    },
    {
      "midi": 49,
      "hit": false,
      "t": 206953.125,
      "d": 234.375,
      "v": 127
    },
    {
      "midi": 49,
      "hit": false,
      "t": 206953.125,
      "d": 51.26953125,
      "v": 105
    },
    {
      "midi": 49,
      "hit": false,
      "t": 206953.125,
      "d": 51.26953125,
      "v": 123
    },
    {
      "midi": 73,
      "hit": false,
      "t": 206953.125,
      "d": 73.2421875,
      "v": 127
    },
    {
      "midi": 74,
      "hit": false,
      "t": 206953.125,
      "d": 24.4140625,
      "v": 107
    },
    {
      "midi": 73,
      "hit": false,
      "t": 206953.125,
      "d": 36.62109375,
      "v": 107
    },
    {
      "midi": 49,
      "hit": false,
      "t": 207070.3125,
      "d": 51.26953125,
      "v": 107
    },
    {
      "midi": 49,
      "hit": false,
      "t": 207070.3125,
      "d": 51.26953125,
      "v": 125
    },
    {
      "midi": 73,
      "hit": false,
      "t": 207070.3125,
      "d": 78.125,
      "v": 107
    },
    {
      "midi": 37,
      "hit": false,
      "t": 207187.5,
      "d": 234.375,
      "v": 127
    },
    {
      "midi": 49,
      "hit": false,
      "t": 207187.5,
      "d": 58.59375,
      "v": 116
    },
    {
      "midi": 49,
      "hit": false,
      "t": 207187.5,
      "d": 58.59375,
      "v": 127
    },
    {
      "midi": 61,
      "hit": false,
      "t": 207187.5,
      "d": 251.46484375,
      "v": 107
    },
    {
      "midi": 56,
      "hit": false,
      "t": 207187.5,
      "d": 278.3203125,
      "v": 122
    },
    {
      "midi": 49,
      "hit": false,
      "t": 207421.875,
      "d": 234.375,
      "v": 127
    },
    {
      "midi": 49,
      "hit": false,
      "t": 207421.875,
      "d": 53.7109375,
      "v": 105
    },
    {
      "midi": 49,
      "hit": false,
      "t": 207421.875,
      "d": 53.7109375,
      "v": 123
    },
    {
      "midi": 73,
      "hit": false,
      "t": 207421.875,
      "d": 43.9453125,
      "v": 127
    },
    {
      "midi": 73,
      "hit": false,
      "t": 207421.875,
      "d": 48.828125,
      "v": 127
    },
    {
      "midi": 65,
      "hit": false,
      "t": 207421.875,
      "d": 178.22265625,
      "v": 107
    },
    {
      "midi": 58,
      "hit": false,
      "t": 207421.875,
      "d": 244.140625,
      "v": 127
    },
    {
      "midi": 49,
      "hit": false,
      "t": 207539.0625,
      "d": 78.125,
      "v": 113
    },
    {
      "midi": 49,
      "hit": false,
      "t": 207539.0625,
      "d": 78.125,
      "v": 127
    },
    {
      "midi": 73,
      "hit": false,
      "t": 207539.0625,
      "d": 61.03515625,
      "v": 127
    },
    {
      "midi": 73,
      "hit": false,
      "t": 207539.0625,
      "d": 63.4765625,
      "v": 110
    },
    {
      "midi": 37,
      "hit": false,
      "t": 207656.25,
      "d": 234.375,
      "v": 127
    },
    {
      "midi": 49,
      "hit": false,
      "t": 207656.25,
      "d": 63.4765625,
      "v": 113
    },
    {
      "midi": 49,
      "hit": false,
      "t": 207656.25,
      "d": 63.4765625,
      "v": 127
    },
    {
      "midi": 73,
      "hit": false,
      "t": 207656.25,
      "d": 53.7109375,
      "v": 127
    },
    {
      "midi": 75,
      "hit": false,
      "t": 207656.25,
      "d": 36.62109375,
      "v": 116
    },
    {
      "midi": 59,
      "hit": false,
      "t": 207656.25,
      "d": 229.4921875,
      "v": 109
    },
    {
      "midi": 66,
      "hit": false,
      "t": 207656.25,
      "d": 280.76171875,
      "v": 82
    },
    {
      "midi": 73,
      "hit": false,
      "t": 207773.4375,
      "d": 73.2421875,
      "v": 127
    },
    {
      "midi": 75,
      "hit": false,
      "t": 207773.4375,
      "d": 39.0625,
      "v": 105
    },
    {
      "midi": 49,
      "hit": false,
      "t": 207890.625,
      "d": 234.375,
      "v": 127
    },
    {
      "midi": 49,
      "hit": false,
      "t": 207890.625,
      "d": 51.26953125,
      "v": 105
    },
    {
      "midi": 49,
      "hit": false,
      "t": 207890.625,
      "d": 51.26953125,
      "v": 123
    },
    {
      "midi": 73,
      "hit": false,
      "t": 207890.625,
      "d": 87.890625,
      "v": 127
    },
    {
      "midi": 73,
      "hit": false,
      "t": 207890.625,
      "d": 46.38671875,
      "v": 122
    },
    {
      "midi": 65,
      "hit": false,
      "t": 207890.625,
      "d": 317.3828125,
      "v": 127
    },
    {
      "midi": 68,
      "hit": false,
      "t": 207890.625,
      "d": 339.35546875,
      "v": 107
    },
    {
      "midi": 49,
      "hit": false,
      "t": 208007.8125,
      "d": 48.828125,
      "v": 110
    },
    {
      "midi": 49,
      "hit": false,
      "t": 208007.8125,
      "d": 48.828125,
      "v": 127
    },
    {
      "midi": 73,
      "hit": false,
      "t": 208007.8125,
      "d": 85.44921875,
      "v": 107
    },
    {
      "midi": 37,
      "hit": false,
      "t": 208125,
      "d": 234.375,
      "v": 127
    },
    {
      "midi": 49,
      "hit": false,
      "t": 208125,
      "d": 58.59375,
      "v": 113
    },
    {
      "midi": 49,
      "hit": false,
      "t": 208125,
      "d": 58.59375,
      "v": 127
    },
    {
      "midi": 49,
      "hit": false,
      "t": 208359.375,
      "d": 234.375,
      "v": 127
    },
    {
      "midi": 49,
      "hit": false,
      "t": 208359.375,
      "d": 56.15234375,
      "v": 102
    },
    {
      "midi": 49,
      "hit": false,
      "t": 208359.375,
      "d": 56.15234375,
      "v": 120
    },
    {
      "midi": 73,
      "hit": false,
      "t": 208359.375,
      "d": 51.26953125,
      "v": 127
    },
    {
      "midi": 73,
      "hit": false,
      "t": 208359.375,
      "d": 34.1796875,
      "v": 119
    },
    {
      "midi": 65,
      "hit": false,
      "t": 208359.375,
      "d": 90.33203125,
      "v": 127
    },
    {
      "midi": 68,
      "hit": false,
      "t": 208359.375,
      "d": 100.09765625,
      "v": 102
    },
    {
      "midi": 49,
      "hit": false,
      "t": 208476.5625,
      "d": 39.0625,
      "v": 116
    },
    {
      "midi": 49,
      "hit": false,
      "t": 208476.5625,
      "d": 39.0625,
      "v": 127
    },
    {
      "midi": 73,
      "hit": false,
      "t": 208476.5625,
      "d": 63.4765625,
      "v": 127
    },
    {
      "midi": 73,
      "hit": false,
      "t": 208476.5625,
      "d": 61.03515625,
      "v": 105
    },
    {
      "midi": 37,
      "hit": false,
      "t": 208593.75,
      "d": 234.375,
      "v": 127
    },
    {
      "midi": 49,
      "hit": false,
      "t": 208593.75,
      "d": 61.03515625,
      "v": 116
    },
    {
      "midi": 49,
      "hit": false,
      "t": 208593.75,
      "d": 61.03515625,
      "v": 127
    },
    {
      "midi": 73,
      "hit": false,
      "t": 208593.75,
      "d": 53.7109375,
      "v": 127
    },
    {
      "midi": 75,
      "hit": false,
      "t": 208593.75,
      "d": 26.85546875,
      "v": 113
    },
    {
      "midi": 68,
      "hit": false,
      "t": 208593.75,
      "d": 73.2421875,
      "v": 98
    },
    {
      "midi": 65,
      "hit": false,
      "t": 208593.75,
      "d": 95.21484375,
      "v": 127
    },
    {
      "midi": 73,
      "hit": false,
      "t": 208710.9375,
      "d": 61.03515625,
      "v": 127
    },
    {
      "midi": 75,
      "hit": false,
      "t": 208710.9375,
      "d": 51.26953125,
      "v": 110
    },
    {
      "midi": 49,
      "hit": false,
      "t": 208828.125,
      "d": 234.375,
      "v": 127
    },
    {
      "midi": 49,
      "hit": false,
      "t": 208828.125,
      "d": 63.4765625,
      "v": 102
    },
    {
      "midi": 49,
      "hit": false,
      "t": 208828.125,
      "d": 63.4765625,
      "v": 120
    },
    {
      "midi": 73,
      "hit": false,
      "t": 208828.125,
      "d": 75.68359375,
      "v": 127
    },
    {
      "midi": 74,
      "hit": false,
      "t": 208828.125,
      "d": 24.4140625,
      "v": 107
    },
    {
      "midi": 73,
      "hit": false,
      "t": 208828.125,
      "d": 36.62109375,
      "v": 107
    },
    {
      "midi": 68,
      "hit": false,
      "t": 208828.125,
      "d": 390.625,
      "v": 113
    },
    {
      "midi": 65,
      "hit": false,
      "t": 208828.125,
      "d": 444.3359375,
      "v": 127
    },
    {
      "midi": 49,
      "hit": false,
      "t": 208945.3125,
      "d": 36.62109375,
      "v": 113
    },
    {
      "midi": 49,
      "hit": false,
      "t": 208945.3125,
      "d": 36.62109375,
      "v": 127
    },
    {
      "midi": 73,
      "hit": false,
      "t": 208945.3125,
      "d": 78.125,
      "v": 107
    },
    {
      "midi": 37,
      "hit": false,
      "t": 209062.5,
      "d": 234.375,
      "v": 127
    },
    {
      "midi": 49,
      "hit": false,
      "t": 209062.5,
      "d": 58.59375,
      "v": 110
    },
    {
      "midi": 49,
      "hit": false,
      "t": 209062.5,
      "d": 58.59375,
      "v": 127
    },
    {
      "midi": 49,
      "hit": false,
      "t": 209296.875,
      "d": 234.375,
      "v": 127
    },
    {
      "midi": 49,
      "hit": false,
      "t": 209296.875,
      "d": 61.03515625,
      "v": 113
    },
    {
      "midi": 49,
      "hit": false,
      "t": 209296.875,
      "d": 61.03515625,
      "v": 127
    },
    {
      "midi": 73,
      "hit": false,
      "t": 209296.875,
      "d": 39.0625,
      "v": 127
    },
    {
      "midi": 73,
      "hit": false,
      "t": 209296.875,
      "d": 48.828125,
      "v": 127
    },
    {
      "midi": 63,
      "hit": false,
      "t": 209296.875,
      "d": 227.05078125,
      "v": 127
    },
    {
      "midi": 66,
      "hit": false,
      "t": 209296.875,
      "d": 258.7890625,
      "v": 105
    },
    {
      "midi": 49,
      "hit": false,
      "t": 209414.0625,
      "d": 56.15234375,
      "v": 113
    },
    {
      "midi": 49,
      "hit": false,
      "t": 209414.0625,
      "d": 56.15234375,
      "v": 127
    },
    {
      "midi": 73,
      "hit": false,
      "t": 209414.0625,
      "d": 51.26953125,
      "v": 127
    },
    {
      "midi": 73,
      "hit": false,
      "t": 209414.0625,
      "d": 63.4765625,
      "v": 110
    },
    {
      "midi": 37,
      "hit": false,
      "t": 209531.25,
      "d": 234.375,
      "v": 127
    },
    {
      "midi": 49,
      "hit": false,
      "t": 209531.25,
      "d": 65.91796875,
      "v": 119
    },
    {
      "midi": 49,
      "hit": false,
      "t": 209531.25,
      "d": 65.91796875,
      "v": 127
    },
    {
      "midi": 73,
      "hit": false,
      "t": 209531.25,
      "d": 51.26953125,
      "v": 127
    },
    {
      "midi": 75,
      "hit": false,
      "t": 209531.25,
      "d": 36.62109375,
      "v": 116
    },
    {
      "midi": 65,
      "hit": false,
      "t": 209531.25,
      "d": 234.375,
      "v": 110
    },
    {
      "midi": 59,
      "hit": false,
      "t": 209531.25,
      "d": 292.96875,
      "v": 102
    },
    {
      "midi": 73,
      "hit": false,
      "t": 209648.4375,
      "d": 78.125,
      "v": 127
    },
    {
      "midi": 75,
      "hit": false,
      "t": 209648.4375,
      "d": 39.0625,
      "v": 105
    },
    {
      "midi": 49,
      "hit": false,
      "t": 209765.625,
      "d": 234.375,
      "v": 127
    },
    {
      "midi": 49,
      "hit": false,
      "t": 209765.625,
      "d": 56.15234375,
      "v": 107
    },
    {
      "midi": 49,
      "hit": false,
      "t": 209765.625,
      "d": 56.15234375,
      "v": 125
    },
    {
      "midi": 73,
      "hit": false,
      "t": 209765.625,
      "d": 83.0078125,
      "v": 127
    },
    {
      "midi": 73,
      "hit": false,
      "t": 209765.625,
      "d": 46.38671875,
      "v": 122
    },
    {
      "midi": 58,
      "hit": false,
      "t": 209765.625,
      "d": 944.82421875,
      "v": 127
    },
    {
      "midi": 66,
      "hit": false,
      "t": 209765.625,
      "d": 1083.984375,
      "v": 105
    },
    {
      "midi": 49,
      "hit": false,
      "t": 209882.8125,
      "d": 56.15234375,
      "v": 113
    },
    {
      "midi": 49,
      "hit": false,
      "t": 209882.8125,
      "d": 56.15234375,
      "v": 127
    },
    {
      "midi": 73,
      "hit": false,
      "t": 209882.8125,
      "d": 85.44921875,
      "v": 107
    },
    {
      "midi": 30,
      "hit": false,
      "t": 210000,
      "d": 234.375,
      "v": 127
    },
    {
      "midi": 70,
      "hit": false,
      "t": 210000,
      "d": 1875,
      "v": 48
    },
    {
      "midi": 73,
      "hit": false,
      "t": 210000,
      "d": 1875,
      "v": 22
    },
    {
      "midi": 78,
      "hit": false,
      "t": 210000,
      "d": 1875,
      "v": 48
    },
    {
      "midi": 54,
      "hit": false,
      "t": 210000,
      "d": 61.03515625,
      "v": 107
    },
    {
      "midi": 54,
      "hit": false,
      "t": 210000,
      "d": 61.03515625,
      "v": 125
    },
    {
      "midi": 70,
      "hit": false,
      "t": 210012.20703125,
      "d": 1862.79296875,
      "v": 105
    },
    {
      "midi": 73,
      "hit": false,
      "t": 210017.08984375,
      "d": 1857.91015625,
      "v": 82
    },
    {
      "midi": 66,
      "hit": false,
      "t": 210021.97265625,
      "d": 1853.02734375,
      "v": 89
    },
    {
      "midi": 42,
      "hit": false,
      "t": 210234.375,
      "d": 234.375,
      "v": 127
    },
    {
      "midi": 54,
      "hit": false,
      "t": 210234.375,
      "d": 51.26953125,
      "v": 102
    },
    {
      "midi": 54,
      "hit": false,
      "t": 210234.375,
      "d": 51.26953125,
      "v": 120
    },
    {
      "midi": 78,
      "hit": false,
      "t": 210234.375,
      "d": 43.9453125,
      "v": 127
    },
    {
      "midi": 73,
      "hit": false,
      "t": 210234.375,
      "d": 34.1796875,
      "v": 119
    },
    {
      "midi": 54,
      "hit": false,
      "t": 210351.5625,
      "d": 61.03515625,
      "v": 105
    },
    {
      "midi": 54,
      "hit": false,
      "t": 210351.5625,
      "d": 61.03515625,
      "v": 123
    },
    {
      "midi": 78,
      "hit": false,
      "t": 210351.5625,
      "d": 53.7109375,
      "v": 127
    },
    {
      "midi": 73,
      "hit": false,
      "t": 210351.5625,
      "d": 61.03515625,
      "v": 105
    },
    {
      "midi": 30,
      "hit": false,
      "t": 210468.75,
      "d": 234.375,
      "v": 127
    },
    {
      "midi": 54,
      "hit": false,
      "t": 210468.75,
      "d": 51.26953125,
      "v": 110
    },
    {
      "midi": 54,
      "hit": false,
      "t": 210468.75,
      "d": 51.26953125,
      "v": 127
    },
    {
      "midi": 78,
      "hit": false,
      "t": 210468.75,
      "d": 51.26953125,
      "v": 127
    },
    {
      "midi": 75,
      "hit": false,
      "t": 210468.75,
      "d": 26.85546875,
      "v": 113
    },
    {
      "midi": 78,
      "hit": false,
      "t": 210585.9375,
      "d": 63.4765625,
      "v": 127
    },
    {
      "midi": 75,
      "hit": false,
      "t": 210585.9375,
      "d": 51.26953125,
      "v": 110
    },
    {
      "midi": 42,
      "hit": false,
      "t": 210703.125,
      "d": 234.375,
      "v": 127
    },
    {
      "midi": 54,
      "hit": false,
      "t": 210703.125,
      "d": 53.7109375,
      "v": 102
    },
    {
      "midi": 54,
      "hit": false,
      "t": 210703.125,
      "d": 53.7109375,
      "v": 120
    },
    {
      "midi": 78,
      "hit": false,
      "t": 210703.125,
      "d": 102.5390625,
      "v": 127
    },
    {
      "midi": 74,
      "hit": false,
      "t": 210703.125,
      "d": 24.4140625,
      "v": 107
    },
    {
      "midi": 73,
      "hit": false,
      "t": 210703.125,
      "d": 36.62109375,
      "v": 107
    },
    {
      "midi": 54,
      "hit": false,
      "t": 210820.3125,
      "d": 70.80078125,
      "v": 107
    },
    {
      "midi": 54,
      "hit": false,
      "t": 210820.3125,
      "d": 70.80078125,
      "v": 125
    },
    {
      "midi": 73,
      "hit": false,
      "t": 210820.3125,
      "d": 78.125,
      "v": 107
    },
    {
      "midi": 30,
      "hit": false,
      "t": 210937.5,
      "d": 234.375,
      "v": 127
    },
    {
      "midi": 54,
      "hit": false,
      "t": 210937.5,
      "d": 56.15234375,
      "v": 116
    },
    {
      "midi": 54,
      "hit": false,
      "t": 210937.5,
      "d": 56.15234375,
      "v": 127
    },
    {
      "midi": 61,
      "hit": false,
      "t": 210937.5,
      "d": 246.58203125,
      "v": 102
    },
    {
      "midi": 58,
      "hit": false,
      "t": 210937.5,
      "d": 273.4375,
      "v": 127
    },
    {
      "midi": 42,
      "hit": false,
      "t": 211171.875,
      "d": 234.375,
      "v": 127
    },
    {
      "midi": 54,
      "hit": false,
      "t": 211171.875,
      "d": 51.26953125,
      "v": 107
    },
    {
      "midi": 54,
      "hit": false,
      "t": 211171.875,
      "d": 51.26953125,
      "v": 125
    },
    {
      "midi": 78,
      "hit": false,
      "t": 211171.875,
      "d": 51.26953125,
      "v": 127
    },
    {
      "midi": 73,
      "hit": false,
      "t": 211171.875,
      "d": 48.828125,
      "v": 127
    },
    {
      "midi": 66,
      "hit": false,
      "t": 211171.875,
      "d": 197.75390625,
      "v": 100
    },
    {
      "midi": 59,
      "hit": false,
      "t": 211176.7578125,
      "d": 234.375,
      "v": 109
    },
    {
      "midi": 54,
      "hit": false,
      "t": 211289.0625,
      "d": 78.125,
      "v": 107
    },
    {
      "midi": 54,
      "hit": false,
      "t": 211289.0625,
      "d": 78.125,
      "v": 125
    },
    {
      "midi": 78,
      "hit": false,
      "t": 211289.0625,
      "d": 61.03515625,
      "v": 127
    },
    {
      "midi": 73,
      "hit": false,
      "t": 211289.0625,
      "d": 63.4765625,
      "v": 110
    },
    {
      "midi": 30,
      "hit": false,
      "t": 211406.25,
      "d": 234.375,
      "v": 127
    },
    {
      "midi": 54,
      "hit": false,
      "t": 211406.25,
      "d": 56.15234375,
      "v": 113
    },
    {
      "midi": 54,
      "hit": false,
      "t": 211406.25,
      "d": 56.15234375,
      "v": 127
    },
    {
      "midi": 78,
      "hit": false,
      "t": 211406.25,
      "d": 53.7109375,
      "v": 127
    },
    {
      "midi": 75,
      "hit": false,
      "t": 211406.25,
      "d": 36.62109375,
      "v": 116
    },
    {
      "midi": 61,
      "hit": false,
      "t": 211406.25,
      "d": 222.16796875,
      "v": 118
    },
    {
      "midi": 68,
      "hit": false,
      "t": 211406.25,
      "d": 229.4921875,
      "v": 76
    },
    {
      "midi": 78,
      "hit": false,
      "t": 211523.4375,
      "d": 65.91796875,
      "v": 127
    },
    {
      "midi": 75,
      "hit": false,
      "t": 211523.4375,
      "d": 39.0625,
      "v": 105
    },
    {
      "midi": 42,
      "hit": false,
      "t": 211640.625,
      "d": 234.375,
      "v": 127
    },
    {
      "midi": 54,
      "hit": false,
      "t": 211640.625,
      "d": 58.59375,
      "v": 105
    },
    {
      "midi": 54,
      "hit": false,
      "t": 211640.625,
      "d": 58.59375,
      "v": 123
    },
    {
      "midi": 78,
      "hit": false,
      "t": 211640.625,
      "d": 80.56640625,
      "v": 127
    },
    {
      "midi": 73,
      "hit": false,
      "t": 211640.625,
      "d": 46.38671875,
      "v": 122
    },
    {
      "midi": 66,
      "hit": false,
      "t": 211640.625,
      "d": 993.65234375,
      "v": 127
    },
    {
      "midi": 70,
      "hit": false,
      "t": 211640.625,
      "d": 1223.14453125,
      "v": 93
    },
    {
      "midi": 54,
      "hit": false,
      "t": 211757.8125,
      "d": 65.91796875,
      "v": 102
    },
    {
      "midi": 54,
      "hit": false,
      "t": 211757.8125,
      "d": 65.91796875,
      "v": 120
    },
    {
      "midi": 73,
      "hit": false,
      "t": 211757.8125,
      "d": 85.44921875,
      "v": 107
    },
    {
      "midi": 30,
      "hit": false,
      "t": 211875,
      "d": 234.375,
      "v": 127
    },
    {
      "midi": 70,
      "hit": false,
      "t": 211875,
      "d": 5507.8125,
      "v": 105
    },
    {
      "midi": 70,
      "hit": false,
      "t": 211875,
      "d": 5390.625,
      "v": 48
    },
    {
      "midi": 73,
      "hit": false,
      "t": 211875,
      "d": 5390.625,
      "v": 22
    },
    {
      "midi": 78,
      "hit": false,
      "t": 211875,
      "d": 5507.8125,
      "v": 48
    },
    {
      "midi": 54,
      "hit": false,
      "t": 211875,
      "d": 53.7109375,
      "v": 110
    },
    {
      "midi": 54,
      "hit": false,
      "t": 211875,
      "d": 53.7109375,
      "v": 127
    },
    {
      "midi": 73,
      "hit": false,
      "t": 211879.8828125,
      "d": 5502.9296875,
      "v": 82
    },
    {
      "midi": 66,
      "hit": false,
      "t": 211884.765625,
      "d": 5498.046875,
      "v": 89
    },
    {
      "midi": 42,
      "hit": false,
      "t": 212109.375,
      "d": 234.375,
      "v": 127
    },
    {
      "midi": 54,
      "hit": false,
      "t": 212109.375,
      "d": 51.26953125,
      "v": 100
    },
    {
      "midi": 54,
      "hit": false,
      "t": 212109.375,
      "d": 51.26953125,
      "v": 118
    },
    {
      "midi": 78,
      "hit": false,
      "t": 212109.375,
      "d": 43.9453125,
      "v": 127
    },
    {
      "midi": 73,
      "hit": false,
      "t": 212109.375,
      "d": 34.1796875,
      "v": 119
    },
    {
      "midi": 54,
      "hit": false,
      "t": 212226.5625,
      "d": 68.359375,
      "v": 105
    },
    {
      "midi": 54,
      "hit": false,
      "t": 212226.5625,
      "d": 68.359375,
      "v": 123
    },
    {
      "midi": 78,
      "hit": false,
      "t": 212226.5625,
      "d": 70.80078125,
      "v": 127
    },
    {
      "midi": 73,
      "hit": false,
      "t": 212226.5625,
      "d": 61.03515625,
      "v": 105
    },
    {
      "midi": 30,
      "hit": false,
      "t": 212343.75,
      "d": 234.375,
      "v": 127
    },
    {
      "midi": 54,
      "hit": false,
      "t": 212343.75,
      "d": 56.15234375,
      "v": 113
    },
    {
      "midi": 54,
      "hit": false,
      "t": 212343.75,
      "d": 56.15234375,
      "v": 127
    },
    {
      "midi": 78,
      "hit": false,
      "t": 212343.75,
      "d": 61.03515625,
      "v": 127
    },
    {
      "midi": 75,
      "hit": false,
      "t": 212343.75,
      "d": 26.85546875,
      "v": 113
    },
    {
      "midi": 78,
      "hit": false,
      "t": 212460.9375,
      "d": 70.80078125,
      "v": 127
    },
    {
      "midi": 75,
      "hit": false,
      "t": 212460.9375,
      "d": 51.26953125,
      "v": 110
    },
    {
      "midi": 42,
      "hit": false,
      "t": 212578.125,
      "d": 234.375,
      "v": 127
    },
    {
      "midi": 54,
      "hit": false,
      "t": 212578.125,
      "d": 53.7109375,
      "v": 105
    },
    {
      "midi": 54,
      "hit": false,
      "t": 212578.125,
      "d": 53.7109375,
      "v": 123
    },
    {
      "midi": 78,
      "hit": false,
      "t": 212578.125,
      "d": 87.890625,
      "v": 127
    },
    {
      "midi": 74,
      "hit": false,
      "t": 212578.125,
      "d": 24.4140625,
      "v": 107
    },
    {
      "midi": 73,
      "hit": false,
      "t": 212578.125,
      "d": 36.62109375,
      "v": 107
    },
    {
      "midi": 54,
      "hit": false,
      "t": 212695.3125,
      "d": 68.359375,
      "v": 107
    },
    {
      "midi": 54,
      "hit": false,
      "t": 212695.3125,
      "d": 68.359375,
      "v": 125
    },
    {
      "midi": 73,
      "hit": false,
      "t": 212695.3125,
      "d": 78.125,
      "v": 107
    },
    {
      "midi": 30,
      "hit": false,
      "t": 212812.5,
      "d": 234.375,
      "v": 127
    },
    {
      "midi": 54,
      "hit": false,
      "t": 212812.5,
      "d": 56.15234375,
      "v": 113
    },
    {
      "midi": 54,
      "hit": false,
      "t": 212812.5,
      "d": 56.15234375,
      "v": 127
    },
    {
      "midi": 61,
      "hit": false,
      "t": 212812.5,
      "d": 187.98828125,
      "v": 107
    },
    {
      "midi": 58,
      "hit": false,
      "t": 212812.5,
      "d": 258.7890625,
      "v": 127
    },
    {
      "midi": 42,
      "hit": false,
      "t": 213046.875,
      "d": 234.375,
      "v": 127
    },
    {
      "midi": 54,
      "hit": false,
      "t": 213046.875,
      "d": 51.26953125,
      "v": 107
    },
    {
      "midi": 54,
      "hit": false,
      "t": 213046.875,
      "d": 51.26953125,
      "v": 125
    },
    {
      "midi": 78,
      "hit": false,
      "t": 213046.875,
      "d": 51.26953125,
      "v": 127
    },
    {
      "midi": 73,
      "hit": false,
      "t": 213046.875,
      "d": 48.828125,
      "v": 127
    },
    {
      "midi": 59,
      "hit": false,
      "t": 213046.875,
      "d": 229.4921875,
      "v": 109
    },
    {
      "midi": 66,
      "hit": false,
      "t": 213046.875,
      "d": 310.05859375,
      "v": 98
    },
    {
      "midi": 54,
      "hit": false,
      "t": 213164.0625,
      "d": 75.68359375,
      "v": 107
    },
    {
      "midi": 54,
      "hit": false,
      "t": 213164.0625,
      "d": 75.68359375,
      "v": 125
    },
    {
      "midi": 78,
      "hit": false,
      "t": 213164.0625,
      "d": 63.4765625,
      "v": 127
    },
    {
      "midi": 73,
      "hit": false,
      "t": 213164.0625,
      "d": 63.4765625,
      "v": 110
    },
    {
      "midi": 30,
      "hit": false,
      "t": 213281.25,
      "d": 234.375,
      "v": 127
    },
    {
      "midi": 54,
      "hit": false,
      "t": 213281.25,
      "d": 51.26953125,
      "v": 110
    },
    {
      "midi": 54,
      "hit": false,
      "t": 213281.25,
      "d": 51.26953125,
      "v": 127
    },
    {
      "midi": 78,
      "hit": false,
      "t": 213281.25,
      "d": 43.9453125,
      "v": 127
    },
    {
      "midi": 75,
      "hit": false,
      "t": 213281.25,
      "d": 36.62109375,
      "v": 116
    },
    {
      "midi": 61,
      "hit": false,
      "t": 213281.25,
      "d": 249.0234375,
      "v": 102
    },
    {
      "midi": 68,
      "hit": false,
      "t": 213281.25,
      "d": 258.7890625,
      "v": 107
    },
    {
      "midi": 78,
      "hit": false,
      "t": 213398.4375,
      "d": 73.2421875,
      "v": 127
    },
    {
      "midi": 75,
      "hit": false,
      "t": 213398.4375,
      "d": 39.0625,
      "v": 105
    },
    {
      "midi": 42,
      "hit": false,
      "t": 213515.625,
      "d": 234.375,
      "v": 127
    },
    {
      "midi": 54,
      "hit": false,
      "t": 213515.625,
      "d": 56.15234375,
      "v": 110
    },
    {
      "midi": 54,
      "hit": false,
      "t": 213515.625,
      "d": 56.15234375,
      "v": 127
    },
    {
      "midi": 78,
      "hit": false,
      "t": 213515.625,
      "d": 83.0078125,
      "v": 127
    },
    {
      "midi": 73,
      "hit": false,
      "t": 213515.625,
      "d": 46.38671875,
      "v": 122
    },
    {
      "midi": 66,
      "hit": false,
      "t": 213515.625,
      "d": 1052.24609375,
      "v": 127
    },
    {
      "midi": 70,
      "hit": false,
      "t": 213515.625,
      "d": 1247.55859375,
      "v": 100
    },
    {
      "midi": 54,
      "hit": false,
      "t": 213632.8125,
      "d": 58.59375,
      "v": 107
    },
    {
      "midi": 54,
      "hit": false,
      "t": 213632.8125,
      "d": 58.59375,
      "v": 125
    },
    {
      "midi": 73,
      "hit": false,
      "t": 213632.8125,
      "d": 85.44921875,
      "v": 107
    },
    {
      "midi": 30,
      "hit": false,
      "t": 213750,
      "d": 234.375,
      "v": 127
    },
    {
      "midi": 54,
      "hit": false,
      "t": 213750,
      "d": 53.7109375,
      "v": 116
    },
    {
      "midi": 54,
      "hit": false,
      "t": 213750,
      "d": 53.7109375,
      "v": 127
    },
    {
      "midi": 42,
      "hit": false,
      "t": 213984.375,
      "d": 234.375,
      "v": 127
    },
    {
      "midi": 54,
      "hit": false,
      "t": 213984.375,
      "d": 48.828125,
      "v": 105
    },
    {
      "midi": 54,
      "hit": false,
      "t": 213984.375,
      "d": 48.828125,
      "v": 123
    },
    {
      "midi": 78,
      "hit": false,
      "t": 213984.375,
      "d": 48.828125,
      "v": 127
    },
    {
      "midi": 73,
      "hit": false,
      "t": 213984.375,
      "d": 34.1796875,
      "v": 119
    },
    {
      "midi": 54,
      "hit": false,
      "t": 214101.5625,
      "d": 80.56640625,
      "v": 110
    },
    {
      "midi": 54,
      "hit": false,
      "t": 214101.5625,
      "d": 80.56640625,
      "v": 127
    },
    {
      "midi": 78,
      "hit": false,
      "t": 214101.5625,
      "d": 63.4765625,
      "v": 127
    },
    {
      "midi": 73,
      "hit": false,
      "t": 214101.5625,
      "d": 61.03515625,
      "v": 105
    },
    {
      "midi": 30,
      "hit": false,
      "t": 214218.75,
      "d": 234.375,
      "v": 127
    },
    {
      "midi": 54,
      "hit": false,
      "t": 214218.75,
      "d": 58.59375,
      "v": 113
    },
    {
      "midi": 54,
      "hit": false,
      "t": 214218.75,
      "d": 58.59375,
      "v": 127
    },
    {
      "midi": 78,
      "hit": false,
      "t": 214218.75,
      "d": 48.828125,
      "v": 127
    },
    {
      "midi": 75,
      "hit": false,
      "t": 214218.75,
      "d": 26.85546875,
      "v": 113
    },
    {
      "midi": 78,
      "hit": false,
      "t": 214335.9375,
      "d": 65.91796875,
      "v": 127
    },
    {
      "midi": 75,
      "hit": false,
      "t": 214335.9375,
      "d": 51.26953125,
      "v": 110
    },
    {
      "midi": 42,
      "hit": false,
      "t": 214453.125,
      "d": 234.375,
      "v": 127
    },
    {
      "midi": 54,
      "hit": false,
      "t": 214453.125,
      "d": 53.7109375,
      "v": 105
    },
    {
      "midi": 54,
      "hit": false,
      "t": 214453.125,
      "d": 53.7109375,
      "v": 123
    },
    {
      "midi": 78,
      "hit": false,
      "t": 214453.125,
      "d": 83.0078125,
      "v": 127
    },
    {
      "midi": 74,
      "hit": false,
      "t": 214453.125,
      "d": 24.4140625,
      "v": 107
    },
    {
      "midi": 73,
      "hit": false,
      "t": 214453.125,
      "d": 36.62109375,
      "v": 107
    },
    {
      "midi": 54,
      "hit": false,
      "t": 214570.3125,
      "d": 85.44921875,
      "v": 107
    },
    {
      "midi": 54,
      "hit": false,
      "t": 214570.3125,
      "d": 85.44921875,
      "v": 125
    },
    {
      "midi": 73,
      "hit": false,
      "t": 214570.3125,
      "d": 78.125,
      "v": 107
    },
    {
      "midi": 30,
      "hit": false,
      "t": 214687.5,
      "d": 234.375,
      "v": 127
    },
    {
      "midi": 54,
      "hit": false,
      "t": 214687.5,
      "d": 56.15234375,
      "v": 113
    },
    {
      "midi": 54,
      "hit": false,
      "t": 214687.5,
      "d": 56.15234375,
      "v": 127
    },
    {
      "midi": 61,
      "hit": false,
      "t": 214687.5,
      "d": 190.4296875,
      "v": 110
    },
    {
      "midi": 58,
      "hit": false,
      "t": 214687.5,
      "d": 280.76171875,
      "v": 125
    },
    {
      "midi": 42,
      "hit": false,
      "t": 214921.875,
      "d": 234.375,
      "v": 127
    },
    {
      "midi": 54,
      "hit": false,
      "t": 214921.875,
      "d": 56.15234375,
      "v": 105
    },
    {
      "midi": 54,
      "hit": false,
      "t": 214921.875,
      "d": 56.15234375,
      "v": 123
    },
    {
      "midi": 78,
      "hit": false,
      "t": 214921.875,
      "d": 51.26953125,
      "v": 127
    },
    {
      "midi": 73,
      "hit": false,
      "t": 214921.875,
      "d": 48.828125,
      "v": 127
    },
    {
      "midi": 59,
      "hit": false,
      "t": 214921.875,
      "d": 212.40234375,
      "v": 107
    },
    {
      "midi": 66,
      "hit": false,
      "t": 214921.875,
      "d": 290.52734375,
      "v": 100
    },
    {
      "midi": 54,
      "hit": false,
      "t": 215039.0625,
      "d": 51.26953125,
      "v": 105
    },
    {
      "midi": 54,
      "hit": false,
      "t": 215039.0625,
      "d": 51.26953125,
      "v": 123
    },
    {
      "midi": 78,
      "hit": false,
      "t": 215039.0625,
      "d": 51.26953125,
      "v": 127
    },
    {
      "midi": 73,
      "hit": false,
      "t": 215039.0625,
      "d": 63.4765625,
      "v": 110
    },
    {
      "midi": 30,
      "hit": false,
      "t": 215156.25,
      "d": 234.375,
      "v": 127
    },
    {
      "midi": 54,
      "hit": false,
      "t": 215156.25,
      "d": 53.7109375,
      "v": 116
    },
    {
      "midi": 54,
      "hit": false,
      "t": 215156.25,
      "d": 53.7109375,
      "v": 127
    },
    {
      "midi": 78,
      "hit": false,
      "t": 215156.25,
      "d": 46.38671875,
      "v": 127
    },
    {
      "midi": 75,
      "hit": false,
      "t": 215156.25,
      "d": 36.62109375,
      "v": 116
    },
    {
      "midi": 61,
      "hit": false,
      "t": 215156.25,
      "d": 217.28515625,
      "v": 115
    },
    {
      "midi": 68,
      "hit": false,
      "t": 215156.25,
      "d": 268.5546875,
      "v": 100
    },
    {
      "midi": 78,
      "hit": false,
      "t": 215273.4375,
      "d": 73.2421875,
      "v": 127
    },
    {
      "midi": 75,
      "hit": false,
      "t": 215273.4375,
      "d": 39.0625,
      "v": 105
    },
    {
      "midi": 42,
      "hit": false,
      "t": 215390.625,
      "d": 234.375,
      "v": 127
    },
    {
      "midi": 54,
      "hit": false,
      "t": 215390.625,
      "d": 48.828125,
      "v": 98
    },
    {
      "midi": 54,
      "hit": false,
      "t": 215390.625,
      "d": 48.828125,
      "v": 116
    },
    {
      "midi": 78,
      "hit": false,
      "t": 215390.625,
      "d": 80.56640625,
      "v": 127
    },
    {
      "midi": 73,
      "hit": false,
      "t": 215390.625,
      "d": 46.38671875,
      "v": 122
    },
    {
      "midi": 66,
      "hit": false,
      "t": 215390.625,
      "d": 349.12109375,
      "v": 127
    },
    {
      "midi": 70,
      "hit": false,
      "t": 215390.625,
      "d": 349.12109375,
      "v": 105
    },
    {
      "midi": 54,
      "hit": false,
      "t": 215507.8125,
      "d": 78.125,
      "v": 107
    },
    {
      "midi": 54,
      "hit": false,
      "t": 215507.8125,
      "d": 78.125,
      "v": 125
    },
    {
      "midi": 73,
      "hit": false,
      "t": 215507.8125,
      "d": 85.44921875,
      "v": 107
    },
    {
      "midi": 30,
      "hit": false,
      "t": 215625,
      "d": 234.375,
      "v": 127
    },
    {
      "midi": 54,
      "hit": false,
      "t": 215625,
      "d": 51.26953125,
      "v": 116
    },
    {
      "midi": 54,
      "hit": false,
      "t": 215625,
      "d": 51.26953125,
      "v": 127
    },
    {
      "midi": 42,
      "hit": false,
      "t": 215859.375,
      "d": 234.375,
      "v": 127
    },
    {
      "midi": 54,
      "hit": false,
      "t": 215859.375,
      "d": 56.15234375,
      "v": 107
    },
    {
      "midi": 54,
      "hit": false,
      "t": 215859.375,
      "d": 56.15234375,
      "v": 125
    },
    {
      "midi": 78,
      "hit": false,
      "t": 215859.375,
      "d": 56.15234375,
      "v": 127
    },
    {
      "midi": 73,
      "hit": false,
      "t": 215859.375,
      "d": 34.1796875,
      "v": 119
    },
    {
      "midi": 66,
      "hit": false,
      "t": 215859.375,
      "d": 75.68359375,
      "v": 127
    },
    {
      "midi": 70,
      "hit": false,
      "t": 215859.375,
      "d": 107.421875,
      "v": 102
    },
    {
      "midi": 54,
      "hit": false,
      "t": 215976.5625,
      "d": 61.03515625,
      "v": 110
    },
    {
      "midi": 54,
      "hit": false,
      "t": 215976.5625,
      "d": 61.03515625,
      "v": 127
    },
    {
      "midi": 78,
      "hit": false,
      "t": 215976.5625,
      "d": 63.4765625,
      "v": 127
    },
    {
      "midi": 73,
      "hit": false,
      "t": 215976.5625,
      "d": 61.03515625,
      "v": 105
    },
    {
      "midi": 30,
      "hit": false,
      "t": 216093.75,
      "d": 234.375,
      "v": 127
    },
    {
      "midi": 54,
      "hit": false,
      "t": 216093.75,
      "d": 61.03515625,
      "v": 113
    },
    {
      "midi": 54,
      "hit": false,
      "t": 216093.75,
      "d": 61.03515625,
      "v": 127
    },
    {
      "midi": 78,
      "hit": false,
      "t": 216093.75,
      "d": 48.828125,
      "v": 127
    },
    {
      "midi": 75,
      "hit": false,
      "t": 216093.75,
      "d": 26.85546875,
      "v": 113
    },
    {
      "midi": 66,
      "hit": false,
      "t": 216093.75,
      "d": 80.56640625,
      "v": 127
    },
    {
      "midi": 70,
      "hit": false,
      "t": 216093.75,
      "d": 87.890625,
      "v": 100
    },
    {
      "midi": 78,
      "hit": false,
      "t": 216210.9375,
      "d": 53.7109375,
      "v": 127
    },
    {
      "midi": 75,
      "hit": false,
      "t": 216210.9375,
      "d": 51.26953125,
      "v": 110
    },
    {
      "midi": 42,
      "hit": false,
      "t": 216328.125,
      "d": 234.375,
      "v": 127
    },
    {
      "midi": 54,
      "hit": false,
      "t": 216328.125,
      "d": 58.59375,
      "v": 107
    },
    {
      "midi": 54,
      "hit": false,
      "t": 216328.125,
      "d": 58.59375,
      "v": 125
    },
    {
      "midi": 78,
      "hit": false,
      "t": 216328.125,
      "d": 87.890625,
      "v": 127
    },
    {
      "midi": 74,
      "hit": false,
      "t": 216328.125,
      "d": 24.4140625,
      "v": 107
    },
    {
      "midi": 73,
      "hit": false,
      "t": 216328.125,
      "d": 36.62109375,
      "v": 107
    },
    {
      "midi": 66,
      "hit": false,
      "t": 216328.125,
      "d": 466.30859375,
      "v": 127
    },
    {
      "midi": 70,
      "hit": false,
      "t": 216328.125,
      "d": 473.6328125,
      "v": 102
    },
    {
      "midi": 54,
      "hit": false,
      "t": 216445.3125,
      "d": 85.44921875,
      "v": 110
    },
    {
      "midi": 54,
      "hit": false,
      "t": 216445.3125,
      "d": 85.44921875,
      "v": 127
    },
    {
      "midi": 73,
      "hit": false,
      "t": 216445.3125,
      "d": 78.125,
      "v": 107
    },
    {
      "midi": 30,
      "hit": false,
      "t": 216562.5,
      "d": 234.375,
      "v": 127
    },
    {
      "midi": 54,
      "hit": false,
      "t": 216562.5,
      "d": 56.15234375,
      "v": 107
    },
    {
      "midi": 54,
      "hit": false,
      "t": 216562.5,
      "d": 56.15234375,
      "v": 125
    },
    {
      "midi": 42,
      "hit": false,
      "t": 216796.875,
      "d": 234.375,
      "v": 127
    },
    {
      "midi": 54,
      "hit": false,
      "t": 216796.875,
      "d": 56.15234375,
      "v": 102
    },
    {
      "midi": 54,
      "hit": false,
      "t": 216796.875,
      "d": 56.15234375,
      "v": 120
    },
    {
      "midi": 78,
      "hit": false,
      "t": 216796.875,
      "d": 48.828125,
      "v": 127
    },
    {
      "midi": 73,
      "hit": false,
      "t": 216796.875,
      "d": 48.828125,
      "v": 127
    },
    {
      "midi": 68,
      "hit": false,
      "t": 216796.875,
      "d": 180.6640625,
      "v": 110
    },
    {
      "midi": 65,
      "hit": false,
      "t": 216796.875,
      "d": 202.63671875,
      "v": 127
    },
    {
      "midi": 54,
      "hit": false,
      "t": 216914.0625,
      "d": 61.03515625,
      "v": 110
    },
    {
      "midi": 54,
      "hit": false,
      "t": 216914.0625,
      "d": 61.03515625,
      "v": 127
    },
    {
      "midi": 78,
      "hit": false,
      "t": 216914.0625,
      "d": 58.59375,
      "v": 127
    },
    {
      "midi": 73,
      "hit": false,
      "t": 216914.0625,
      "d": 63.4765625,
      "v": 110
    },
    {
      "midi": 30,
      "hit": false,
      "t": 217031.25,
      "d": 234.375,
      "v": 127
    },
    {
      "midi": 54,
      "hit": false,
      "t": 217031.25,
      "d": 56.15234375,
      "v": 102
    },
    {
      "midi": 54,
      "hit": false,
      "t": 217031.25,
      "d": 56.15234375,
      "v": 120
    },
    {
      "midi": 78,
      "hit": false,
      "t": 217031.25,
      "d": 65.91796875,
      "v": 127
    },
    {
      "midi": 75,
      "hit": false,
      "t": 217031.25,
      "d": 36.62109375,
      "v": 116
    },
    {
      "midi": 61,
      "hit": false,
      "t": 217031.25,
      "d": 187.98828125,
      "v": 98
    },
    {
      "midi": 66,
      "hit": false,
      "t": 217031.25,
      "d": 197.75390625,
      "v": 100
    },
    {
      "midi": 78,
      "hit": false,
      "t": 217148.4375,
      "d": 78.125,
      "v": 127
    },
    {
      "midi": 75,
      "hit": false,
      "t": 217148.4375,
      "d": 39.0625,
      "v": 105
    },
    {
      "midi": 42,
      "hit": false,
      "t": 217265.625,
      "d": 234.375,
      "v": 127
    },
    {
      "midi": 54,
      "hit": false,
      "t": 217265.625,
      "d": 51.26953125,
      "v": 105
    },
    {
      "midi": 54,
      "hit": false,
      "t": 217265.625,
      "d": 51.26953125,
      "v": 123
    },
    {
      "midi": 78,
      "hit": false,
      "t": 217265.625,
      "d": 117.1875,
      "v": 127
    },
    {
      "midi": 73,
      "hit": false,
      "t": 217265.625,
      "d": 46.38671875,
      "v": 122
    },
    {
      "midi": 59,
      "hit": false,
      "t": 217265.625,
      "d": 942.3828125,
      "v": 127
    },
    {
      "midi": 68,
      "hit": false,
      "t": 217265.625,
      "d": 1120.60546875,
      "v": 116
    },
    {
      "midi": 54,
      "hit": false,
      "t": 217382.8125,
      "d": 58.59375,
      "v": 107
    },
    {
      "midi": 54,
      "hit": false,
      "t": 217382.8125,
      "d": 58.59375,
      "v": 125
    },
    {
      "midi": 73,
      "hit": false,
      "t": 217382.8125,
      "d": 85.44921875,
      "v": 107
    },
    {
      "midi": 37,
      "hit": false,
      "t": 217500,
      "d": 234.375,
      "v": 127
    },
    {
      "midi": 80,
      "hit": false,
      "t": 217500,
      "d": 5402.83203125,
      "v": 39
    },
    {
      "midi": 77,
      "hit": false,
      "t": 217500,
      "d": 5432.12890625,
      "v": 55
    },
    {
      "midi": 73,
      "hit": false,
      "t": 217500,
      "d": 5434.5703125,
      "v": 37
    },
    {
      "midi": 49,
      "hit": false,
      "t": 217500,
      "d": 48.828125,
      "v": 116
    },
    {
      "midi": 49,
      "hit": false,
      "t": 217500,
      "d": 48.828125,
      "v": 127
    },
    {
      "midi": 61,
      "hit": false,
      "t": 217519.53125,
      "d": 5395.5078125,
      "v": 100
    },
    {
      "midi": 65,
      "hit": false,
      "t": 217521.97265625,
      "d": 5424.8046875,
      "v": 107
    },
    {
      "midi": 68,
      "hit": false,
      "t": 217526.85546875,
      "d": 5383.30078125,
      "v": 102
    },
    {
      "midi": 49,
      "hit": false,
      "t": 217734.375,
      "d": 234.375,
      "v": 127
    },
    {
      "midi": 49,
      "hit": false,
      "t": 217734.375,
      "d": 39.0625,
      "v": 100
    },
    {
      "midi": 49,
      "hit": false,
      "t": 217734.375,
      "d": 39.0625,
      "v": 118
    },
    {
      "midi": 73,
      "hit": false,
      "t": 217734.375,
      "d": 48.828125,
      "v": 127
    },
    {
      "midi": 73,
      "hit": false,
      "t": 217734.375,
      "d": 34.1796875,
      "v": 119
    },
    {
      "midi": 49,
      "hit": false,
      "t": 217851.5625,
      "d": 61.03515625,
      "v": 107
    },
    {
      "midi": 49,
      "hit": false,
      "t": 217851.5625,
      "d": 61.03515625,
      "v": 125
    },
    {
      "midi": 73,
      "hit": false,
      "t": 217851.5625,
      "d": 70.80078125,
      "v": 127
    },
    {
      "midi": 73,
      "hit": false,
      "t": 217851.5625,
      "d": 61.03515625,
      "v": 105
    },
    {
      "midi": 37,
      "hit": false,
      "t": 217968.75,
      "d": 234.375,
      "v": 127
    },
    {
      "midi": 49,
      "hit": false,
      "t": 217968.75,
      "d": 48.828125,
      "v": 116
    },
    {
      "midi": 49,
      "hit": false,
      "t": 217968.75,
      "d": 48.828125,
      "v": 127
    },
    {
      "midi": 73,
      "hit": false,
      "t": 217968.75,
      "d": 48.828125,
      "v": 127
    },
    {
      "midi": 75,
      "hit": false,
      "t": 217968.75,
      "d": 26.85546875,
      "v": 113
    },
    {
      "midi": 73,
      "hit": false,
      "t": 218085.9375,
      "d": 70.80078125,
      "v": 127
    },
    {
      "midi": 75,
      "hit": false,
      "t": 218085.9375,
      "d": 51.26953125,
      "v": 110
    },
    {
      "midi": 49,
      "hit": false,
      "t": 218203.125,
      "d": 234.375,
      "v": 127
    },
    {
      "midi": 49,
      "hit": false,
      "t": 218203.125,
      "d": 48.828125,
      "v": 105
    },
    {
      "midi": 49,
      "hit": false,
      "t": 218203.125,
      "d": 48.828125,
      "v": 123
    },
    {
      "midi": 73,
      "hit": false,
      "t": 218203.125,
      "d": 70.80078125,
      "v": 127
    },
    {
      "midi": 74,
      "hit": false,
      "t": 218203.125,
      "d": 24.4140625,
      "v": 107
    },
    {
      "midi": 73,
      "hit": false,
      "t": 218203.125,
      "d": 36.62109375,
      "v": 107
    },
    {
      "midi": 49,
      "hit": false,
      "t": 218320.3125,
      "d": 39.0625,
      "v": 107
    },
    {
      "midi": 49,
      "hit": false,
      "t": 218320.3125,
      "d": 39.0625,
      "v": 125
    },
    {
      "midi": 73,
      "hit": false,
      "t": 218320.3125,
      "d": 78.125,
      "v": 107
    },
    {
      "midi": 37,
      "hit": false,
      "t": 218437.5,
      "d": 234.375,
      "v": 127
    },
    {
      "midi": 49,
      "hit": false,
      "t": 218437.5,
      "d": 46.38671875,
      "v": 113
    },
    {
      "midi": 49,
      "hit": false,
      "t": 218437.5,
      "d": 46.38671875,
      "v": 127
    },
    {
      "midi": 61,
      "hit": false,
      "t": 218437.5,
      "d": 236.81640625,
      "v": 107
    },
    {
      "midi": 56,
      "hit": false,
      "t": 218437.5,
      "d": 266.11328125,
      "v": 127
    },
    {
      "midi": 49,
      "hit": false,
      "t": 218671.875,
      "d": 234.375,
      "v": 127
    },
    {
      "midi": 49,
      "hit": false,
      "t": 218671.875,
      "d": 48.828125,
      "v": 105
    },
    {
      "midi": 49,
      "hit": false,
      "t": 218671.875,
      "d": 48.828125,
      "v": 123
    },
    {
      "midi": 73,
      "hit": false,
      "t": 218671.875,
      "d": 48.828125,
      "v": 127
    },
    {
      "midi": 73,
      "hit": false,
      "t": 218671.875,
      "d": 48.828125,
      "v": 127
    },
    {
      "midi": 65,
      "hit": false,
      "t": 218671.875,
      "d": 173.33984375,
      "v": 107
    },
    {
      "midi": 58,
      "hit": false,
      "t": 218671.875,
      "d": 234.375,
      "v": 127
    },
    {
      "midi": 49,
      "hit": false,
      "t": 218789.0625,
      "d": 43.9453125,
      "v": 116
    },
    {
      "midi": 49,
      "hit": false,
      "t": 218789.0625,
      "d": 43.9453125,
      "v": 127
    },
    {
      "midi": 73,
      "hit": false,
      "t": 218789.0625,
      "d": 65.91796875,
      "v": 127
    },
    {
      "midi": 73,
      "hit": false,
      "t": 218789.0625,
      "d": 63.4765625,
      "v": 110
    },
    {
      "midi": 37,
      "hit": false,
      "t": 218906.25,
      "d": 234.375,
      "v": 127
    },
    {
      "midi": 49,
      "hit": false,
      "t": 218906.25,
      "d": 51.26953125,
      "v": 116
    },
    {
      "midi": 49,
      "hit": false,
      "t": 218906.25,
      "d": 51.26953125,
      "v": 127
    },
    {
      "midi": 73,
      "hit": false,
      "t": 218906.25,
      "d": 56.15234375,
      "v": 127
    },
    {
      "midi": 75,
      "hit": false,
      "t": 218906.25,
      "d": 36.62109375,
      "v": 116
    },
    {
      "midi": 59,
      "hit": false,
      "t": 218906.25,
      "d": 200.1953125,
      "v": 105
    },
    {
      "midi": 66,
      "hit": false,
      "t": 218906.25,
      "d": 285.64453125,
      "v": 82
    },
    {
      "midi": 73,
      "hit": false,
      "t": 219023.4375,
      "d": 68.359375,
      "v": 127
    },
    {
      "midi": 75,
      "hit": false,
      "t": 219023.4375,
      "d": 39.0625,
      "v": 105
    },
    {
      "midi": 49,
      "hit": false,
      "t": 219140.625,
      "d": 234.375,
      "v": 127
    },
    {
      "midi": 49,
      "hit": false,
      "t": 219140.625,
      "d": 53.7109375,
      "v": 105
    },
    {
      "midi": 49,
      "hit": false,
      "t": 219140.625,
      "d": 53.7109375,
      "v": 123
    },
    {
      "midi": 73,
      "hit": false,
      "t": 219140.625,
      "d": 87.890625,
      "v": 127
    },
    {
      "midi": 73,
      "hit": false,
      "t": 219140.625,
      "d": 46.38671875,
      "v": 122
    },
    {
      "midi": 65,
      "hit": false,
      "t": 219140.625,
      "d": 986.328125,
      "v": 127
    },
    {
      "midi": 68,
      "hit": false,
      "t": 219140.625,
      "d": 1154.78515625,
      "v": 110
    },
    {
      "midi": 49,
      "hit": false,
      "t": 219257.8125,
      "d": 65.91796875,
      "v": 105
    },
    {
      "midi": 49,
      "hit": false,
      "t": 219257.8125,
      "d": 65.91796875,
      "v": 123
    },
    {
      "midi": 73,
      "hit": false,
      "t": 219257.8125,
      "d": 85.44921875,
      "v": 107
    },
    {
      "midi": 37,
      "hit": false,
      "t": 219375,
      "d": 234.375,
      "v": 127
    },
    {
      "midi": 49,
      "hit": false,
      "t": 219375,
      "d": 48.828125,
      "v": 110
    },
    {
      "midi": 49,
      "hit": false,
      "t": 219375,
      "d": 48.828125,
      "v": 127
    },
    {
      "midi": 49,
      "hit": false,
      "t": 219609.375,
      "d": 234.375,
      "v": 127
    },
    {
      "midi": 49,
      "hit": false,
      "t": 219609.375,
      "d": 53.7109375,
      "v": 105
    },
    {
      "midi": 49,
      "hit": false,
      "t": 219609.375,
      "d": 53.7109375,
      "v": 123
    },
    {
      "midi": 73,
      "hit": false,
      "t": 219609.375,
      "d": 56.15234375,
      "v": 127
    },
    {
      "midi": 73,
      "hit": false,
      "t": 219609.375,
      "d": 34.1796875,
      "v": 119
    },
    {
      "midi": 49,
      "hit": false,
      "t": 219726.5625,
      "d": 48.828125,
      "v": 116
    },
    {
      "midi": 49,
      "hit": false,
      "t": 219726.5625,
      "d": 48.828125,
      "v": 127
    },
    {
      "midi": 73,
      "hit": false,
      "t": 219726.5625,
      "d": 70.80078125,
      "v": 127
    },
    {
      "midi": 73,
      "hit": false,
      "t": 219726.5625,
      "d": 61.03515625,
      "v": 105
    },
    {
      "midi": 37,
      "hit": false,
      "t": 219843.75,
      "d": 234.375,
      "v": 127
    },
    {
      "midi": 49,
      "hit": false,
      "t": 219843.75,
      "d": 53.7109375,
      "v": 113
    },
    {
      "midi": 49,
      "hit": false,
      "t": 219843.75,
      "d": 53.7109375,
      "v": 127
    },
    {
      "midi": 73,
      "hit": false,
      "t": 219843.75,
      "d": 58.59375,
      "v": 127
    },
    {
      "midi": 75,
      "hit": false,
      "t": 219843.75,
      "d": 26.85546875,
      "v": 113
    },
    {
      "midi": 73,
      "hit": false,
      "t": 219960.9375,
      "d": 78.125,
      "v": 127
    },
    {
      "midi": 75,
      "hit": false,
      "t": 219960.9375,
      "d": 51.26953125,
      "v": 110
    },
    {
      "midi": 49,
      "hit": false,
      "t": 220078.125,
      "d": 234.375,
      "v": 127
    },
    {
      "midi": 49,
      "hit": false,
      "t": 220078.125,
      "d": 58.59375,
      "v": 105
    },
    {
      "midi": 49,
      "hit": false,
      "t": 220078.125,
      "d": 58.59375,
      "v": 123
    },
    {
      "midi": 73,
      "hit": false,
      "t": 220078.125,
      "d": 80.56640625,
      "v": 127
    },
    {
      "midi": 74,
      "hit": false,
      "t": 220078.125,
      "d": 24.4140625,
      "v": 107
    },
    {
      "midi": 73,
      "hit": false,
      "t": 220078.125,
      "d": 36.62109375,
      "v": 107
    },
    {
      "midi": 49,
      "hit": false,
      "t": 220195.3125,
      "d": 85.44921875,
      "v": 110
    },
    {
      "midi": 49,
      "hit": false,
      "t": 220195.3125,
      "d": 85.44921875,
      "v": 127
    },
    {
      "midi": 73,
      "hit": false,
      "t": 220195.3125,
      "d": 78.125,
      "v": 107
    },
    {
      "midi": 37,
      "hit": false,
      "t": 220312.5,
      "d": 234.375,
      "v": 127
    },
    {
      "midi": 49,
      "hit": false,
      "t": 220312.5,
      "d": 53.7109375,
      "v": 116
    },
    {
      "midi": 49,
      "hit": false,
      "t": 220312.5,
      "d": 53.7109375,
      "v": 127
    },
    {
      "midi": 61,
      "hit": false,
      "t": 220312.5,
      "d": 253.90625,
      "v": 102
    },
    {
      "midi": 56,
      "hit": false,
      "t": 220312.5,
      "d": 307.6171875,
      "v": 127
    },
    {
      "midi": 49,
      "hit": false,
      "t": 220546.875,
      "d": 234.375,
      "v": 127
    },
    {
      "midi": 49,
      "hit": false,
      "t": 220546.875,
      "d": 53.7109375,
      "v": 110
    },
    {
      "midi": 49,
      "hit": false,
      "t": 220546.875,
      "d": 53.7109375,
      "v": 127
    },
    {
      "midi": 73,
      "hit": false,
      "t": 220546.875,
      "d": 56.15234375,
      "v": 127
    },
    {
      "midi": 73,
      "hit": false,
      "t": 220546.875,
      "d": 48.828125,
      "v": 127
    },
    {
      "midi": 65,
      "hit": false,
      "t": 220546.875,
      "d": 200.1953125,
      "v": 110
    },
    {
      "midi": 58,
      "hit": false,
      "t": 220546.875,
      "d": 310.05859375,
      "v": 127
    },
    {
      "midi": 49,
      "hit": false,
      "t": 220664.0625,
      "d": 51.26953125,
      "v": 110
    },
    {
      "midi": 49,
      "hit": false,
      "t": 220664.0625,
      "d": 51.26953125,
      "v": 127
    },
    {
      "midi": 73,
      "hit": false,
      "t": 220664.0625,
      "d": 70.80078125,
      "v": 127
    },
    {
      "midi": 73,
      "hit": false,
      "t": 220664.0625,
      "d": 63.4765625,
      "v": 110
    },
    {
      "midi": 37,
      "hit": false,
      "t": 220781.25,
      "d": 234.375,
      "v": 127
    },
    {
      "midi": 49,
      "hit": false,
      "t": 220781.25,
      "d": 51.26953125,
      "v": 116
    },
    {
      "midi": 49,
      "hit": false,
      "t": 220781.25,
      "d": 51.26953125,
      "v": 127
    },
    {
      "midi": 73,
      "hit": false,
      "t": 220781.25,
      "d": 63.4765625,
      "v": 127
    },
    {
      "midi": 75,
      "hit": false,
      "t": 220781.25,
      "d": 36.62109375,
      "v": 116
    },
    {
      "midi": 59,
      "hit": false,
      "t": 220781.25,
      "d": 234.375,
      "v": 98
    },
    {
      "midi": 66,
      "hit": false,
      "t": 220781.25,
      "d": 258.7890625,
      "v": 76
    },
    {
      "midi": 73,
      "hit": false,
      "t": 220898.4375,
      "d": 65.91796875,
      "v": 127
    },
    {
      "midi": 75,
      "hit": false,
      "t": 220898.4375,
      "d": 39.0625,
      "v": 105
    },
    {
      "midi": 49,
      "hit": false,
      "t": 221015.625,
      "d": 234.375,
      "v": 127
    },
    {
      "midi": 49,
      "hit": false,
      "t": 221015.625,
      "d": 53.7109375,
      "v": 105
    },
    {
      "midi": 49,
      "hit": false,
      "t": 221015.625,
      "d": 53.7109375,
      "v": 123
    },
    {
      "midi": 73,
      "hit": false,
      "t": 221015.625,
      "d": 85.44921875,
      "v": 127
    },
    {
      "midi": 73,
      "hit": false,
      "t": 221015.625,
      "d": 46.38671875,
      "v": 122
    },
    {
      "midi": 65,
      "hit": false,
      "t": 221015.625,
      "d": 883.7890625,
      "v": 127
    },
    {
      "midi": 68,
      "hit": false,
      "t": 221015.625,
      "d": 1169.43359375,
      "v": 110
    },
    {
      "midi": 49,
      "hit": false,
      "t": 221132.8125,
      "d": 70.80078125,
      "v": 107
    },
    {
      "midi": 49,
      "hit": false,
      "t": 221132.8125,
      "d": 70.80078125,
      "v": 125
    },
    {
      "midi": 73,
      "hit": false,
      "t": 221132.8125,
      "d": 85.44921875,
      "v": 107
    },
    {
      "midi": 37,
      "hit": false,
      "t": 221250,
      "d": 234.375,
      "v": 127
    },
    {
      "midi": 49,
      "hit": false,
      "t": 221250,
      "d": 51.26953125,
      "v": 113
    },
    {
      "midi": 49,
      "hit": false,
      "t": 221250,
      "d": 51.26953125,
      "v": 127
    },
    {
      "midi": 49,
      "hit": false,
      "t": 221484.375,
      "d": 234.375,
      "v": 127
    },
    {
      "midi": 49,
      "hit": false,
      "t": 221484.375,
      "d": 48.828125,
      "v": 102
    },
    {
      "midi": 49,
      "hit": false,
      "t": 221484.375,
      "d": 48.828125,
      "v": 120
    },
    {
      "midi": 73,
      "hit": false,
      "t": 221484.375,
      "d": 41.50390625,
      "v": 127
    },
    {
      "midi": 73,
      "hit": false,
      "t": 221484.375,
      "d": 34.1796875,
      "v": 119
    },
    {
      "midi": 49,
      "hit": false,
      "t": 221601.5625,
      "d": 63.4765625,
      "v": 105
    },
    {
      "midi": 49,
      "hit": false,
      "t": 221601.5625,
      "d": 63.4765625,
      "v": 123
    },
    {
      "midi": 73,
      "hit": false,
      "t": 221601.5625,
      "d": 70.80078125,
      "v": 127
    },
    {
      "midi": 73,
      "hit": false,
      "t": 221601.5625,
      "d": 61.03515625,
      "v": 105
    },
    {
      "midi": 37,
      "hit": false,
      "t": 221718.75,
      "d": 234.375,
      "v": 127
    },
    {
      "midi": 49,
      "hit": false,
      "t": 221718.75,
      "d": 61.03515625,
      "v": 116
    },
    {
      "midi": 49,
      "hit": false,
      "t": 221718.75,
      "d": 61.03515625,
      "v": 127
    },
    {
      "midi": 73,
      "hit": false,
      "t": 221718.75,
      "d": 51.26953125,
      "v": 127
    },
    {
      "midi": 75,
      "hit": false,
      "t": 221718.75,
      "d": 26.85546875,
      "v": 113
    },
    {
      "midi": 73,
      "hit": false,
      "t": 221835.9375,
      "d": 87.890625,
      "v": 127
    },
    {
      "midi": 75,
      "hit": false,
      "t": 221835.9375,
      "d": 51.26953125,
      "v": 110
    },
    {
      "midi": 49,
      "hit": false,
      "t": 221953.125,
      "d": 234.375,
      "v": 127
    },
    {
      "midi": 49,
      "hit": false,
      "t": 221953.125,
      "d": 53.7109375,
      "v": 100
    },
    {
      "midi": 49,
      "hit": false,
      "t": 221953.125,
      "d": 53.7109375,
      "v": 118
    },
    {
      "midi": 73,
      "hit": false,
      "t": 221953.125,
      "d": 90.33203125,
      "v": 127
    },
    {
      "midi": 74,
      "hit": false,
      "t": 221953.125,
      "d": 24.4140625,
      "v": 107
    },
    {
      "midi": 73,
      "hit": false,
      "t": 221953.125,
      "d": 36.62109375,
      "v": 107
    },
    {
      "midi": 49,
      "hit": false,
      "t": 222070.3125,
      "d": 58.59375,
      "v": 119
    },
    {
      "midi": 49,
      "hit": false,
      "t": 222070.3125,
      "d": 58.59375,
      "v": 127
    },
    {
      "midi": 73,
      "hit": false,
      "t": 222070.3125,
      "d": 78.125,
      "v": 107
    },
    {
      "midi": 37,
      "hit": false,
      "t": 222187.5,
      "d": 234.375,
      "v": 127
    },
    {
      "midi": 49,
      "hit": false,
      "t": 222187.5,
      "d": 53.7109375,
      "v": 116
    },
    {
      "midi": 49,
      "hit": false,
      "t": 222187.5,
      "d": 53.7109375,
      "v": 127
    },
    {
      "midi": 61,
      "hit": false,
      "t": 222187.5,
      "d": 202.63671875,
      "v": 110
    },
    {
      "midi": 56,
      "hit": false,
      "t": 222187.5,
      "d": 334.47265625,
      "v": 125
    },
    {
      "midi": 49,
      "hit": false,
      "t": 222421.875,
      "d": 234.375,
      "v": 127
    },
    {
      "midi": 49,
      "hit": false,
      "t": 222421.875,
      "d": 58.59375,
      "v": 107
    },
    {
      "midi": 49,
      "hit": false,
      "t": 222421.875,
      "d": 58.59375,
      "v": 125
    },
    {
      "midi": 73,
      "hit": false,
      "t": 222421.875,
      "d": 58.59375,
      "v": 127
    },
    {
      "midi": 73,
      "hit": false,
      "t": 222421.875,
      "d": 48.828125,
      "v": 127
    },
    {
      "midi": 58,
      "hit": false,
      "t": 222421.875,
      "d": 183.10546875,
      "v": 127
    },
    {
      "midi": 65,
      "hit": false,
      "t": 222421.875,
      "d": 205.078125,
      "v": 105
    },
    {
      "midi": 49,
      "hit": false,
      "t": 222539.0625,
      "d": 61.03515625,
      "v": 110
    },
    {
      "midi": 49,
      "hit": false,
      "t": 222539.0625,
      "d": 61.03515625,
      "v": 127
    },
    {
      "midi": 73,
      "hit": false,
      "t": 222539.0625,
      "d": 65.91796875,
      "v": 127
    },
    {
      "midi": 73,
      "hit": false,
      "t": 222539.0625,
      "d": 63.4765625,
      "v": 110
    },
    {
      "midi": 37,
      "hit": false,
      "t": 222656.25,
      "d": 234.375,
      "v": 127
    },
    {
      "midi": 49,
      "hit": false,
      "t": 222656.25,
      "d": 56.15234375,
      "v": 116
    },
    {
      "midi": 49,
      "hit": false,
      "t": 222656.25,
      "d": 56.15234375,
      "v": 127
    },
    {
      "midi": 73,
      "hit": false,
      "t": 222656.25,
      "d": 51.26953125,
      "v": 127
    },
    {
      "midi": 75,
      "hit": false,
      "t": 222656.25,
      "d": 36.62109375,
      "v": 116
    },
    {
      "midi": 66,
      "hit": false,
      "t": 222656.25,
      "d": 187.98828125,
      "v": 80
    },
    {
      "midi": 59,
      "hit": false,
      "t": 222656.25,
      "d": 234.375,
      "v": 127
    },
    {
      "midi": 73,
      "hit": false,
      "t": 222773.4375,
      "d": 70.80078125,
      "v": 127
    },
    {
      "midi": 75,
      "hit": false,
      "t": 222773.4375,
      "d": 39.0625,
      "v": 105
    },
    {
      "midi": 49,
      "hit": false,
      "t": 222890.625,
      "d": 234.375,
      "v": 127
    },
    {
      "midi": 49,
      "hit": false,
      "t": 222890.625,
      "d": 53.7109375,
      "v": 102
    },
    {
      "midi": 49,
      "hit": false,
      "t": 222890.625,
      "d": 53.7109375,
      "v": 120
    },
    {
      "midi": 73,
      "hit": false,
      "t": 222890.625,
      "d": 83.0078125,
      "v": 127
    },
    {
      "midi": 73,
      "hit": false,
      "t": 222890.625,
      "d": 46.38671875,
      "v": 122
    },
    {
      "midi": 59,
      "hit": false,
      "t": 222890.625,
      "d": 327.1484375,
      "v": 127
    },
    {
      "midi": 68,
      "hit": false,
      "t": 222890.625,
      "d": 373.53515625,
      "v": 110
    },
    {
      "midi": 49,
      "hit": false,
      "t": 223007.8125,
      "d": 46.38671875,
      "v": 110
    },
    {
      "midi": 49,
      "hit": false,
      "t": 223007.8125,
      "d": 46.38671875,
      "v": 127
    },
    {
      "midi": 73,
      "hit": false,
      "t": 223007.8125,
      "d": 85.44921875,
      "v": 107
    },
    {
      "midi": 35,
      "hit": false,
      "t": 223125,
      "d": 234.375,
      "v": 127
    },
    {
      "midi": 71,
      "hit": false,
      "t": 223125,
      "d": 771.484375,
      "v": 55
    },
    {
      "midi": 75,
      "hit": false,
      "t": 223125,
      "d": 798.33984375,
      "v": 60
    },
    {
      "midi": 78,
      "hit": false,
      "t": 223125,
      "d": 800.78125,
      "v": 48
    },
    {
      "midi": 47,
      "hit": false,
      "t": 223125,
      "d": 53.7109375,
      "v": 119
    },
    {
      "midi": 47,
      "hit": false,
      "t": 223125,
      "d": 53.7109375,
      "v": 127
    },
    {
      "midi": 59,
      "hit": false,
      "t": 223146.97265625,
      "d": 805.6640625,
      "v": 105
    },
    {
      "midi": 63,
      "hit": false,
      "t": 223149.4140625,
      "d": 854.4921875,
      "v": 107
    },
    {
      "midi": 66,
      "hit": false,
      "t": 223156.73828125,
      "d": 812.98828125,
      "v": 113
    },
    {
      "midi": 47,
      "hit": false,
      "t": 223359.375,
      "d": 234.375,
      "v": 127
    },
    {
      "midi": 47,
      "hit": false,
      "t": 223359.375,
      "d": 41.50390625,
      "v": 102
    },
    {
      "midi": 47,
      "hit": false,
      "t": 223359.375,
      "d": 41.50390625,
      "v": 120
    },
    {
      "midi": 71,
      "hit": false,
      "t": 223359.375,
      "d": 39.0625,
      "v": 127
    },
    {
      "midi": 73,
      "hit": false,
      "t": 223359.375,
      "d": 34.1796875,
      "v": 119
    },
    {
      "midi": 59,
      "hit": false,
      "t": 223359.375,
      "d": 85.44921875,
      "v": 127
    },
    {
      "midi": 68,
      "hit": false,
      "t": 223359.375,
      "d": 102.5390625,
      "v": 107
    },
    {
      "midi": 47,
      "hit": false,
      "t": 223476.5625,
      "d": 48.828125,
      "v": 110
    },
    {
      "midi": 47,
      "hit": false,
      "t": 223476.5625,
      "d": 48.828125,
      "v": 127
    },
    {
      "midi": 71,
      "hit": false,
      "t": 223476.5625,
      "d": 51.26953125,
      "v": 127
    },
    {
      "midi": 73,
      "hit": false,
      "t": 223476.5625,
      "d": 61.03515625,
      "v": 105
    },
    {
      "midi": 35,
      "hit": false,
      "t": 223593.75,
      "d": 234.375,
      "v": 127
    },
    {
      "midi": 47,
      "hit": false,
      "t": 223593.75,
      "d": 48.828125,
      "v": 110
    },
    {
      "midi": 47,
      "hit": false,
      "t": 223593.75,
      "d": 48.828125,
      "v": 127
    },
    {
      "midi": 71,
      "hit": false,
      "t": 223593.75,
      "d": 65.91796875,
      "v": 127
    },
    {
      "midi": 75,
      "hit": false,
      "t": 223593.75,
      "d": 26.85546875,
      "v": 113
    },
    {
      "midi": 59,
      "hit": false,
      "t": 223593.75,
      "d": 83.0078125,
      "v": 127
    },
    {
      "midi": 68,
      "hit": false,
      "t": 223593.75,
      "d": 92.7734375,
      "v": 110
    },
    {
      "midi": 71,
      "hit": false,
      "t": 223710.9375,
      "d": 63.4765625,
      "v": 127
    },
    {
      "midi": 75,
      "hit": false,
      "t": 223710.9375,
      "d": 51.26953125,
      "v": 110
    },
    {
      "midi": 47,
      "hit": false,
      "t": 223828.125,
      "d": 234.375,
      "v": 127
    },
    {
      "midi": 47,
      "hit": false,
      "t": 223828.125,
      "d": 36.62109375,
      "v": 105
    },
    {
      "midi": 47,
      "hit": false,
      "t": 223828.125,
      "d": 36.62109375,
      "v": 123
    },
    {
      "midi": 71,
      "hit": false,
      "t": 223828.125,
      "d": 95.21484375,
      "v": 127
    },
    {
      "midi": 74,
      "hit": false,
      "t": 223828.125,
      "d": 24.4140625,
      "v": 107
    },
    {
      "midi": 73,
      "hit": false,
      "t": 223828.125,
      "d": 36.62109375,
      "v": 107
    },
    {
      "midi": 68,
      "hit": false,
      "t": 223828.125,
      "d": 400.390625,
      "v": 113
    },
    {
      "midi": 59,
      "hit": false,
      "t": 223828.125,
      "d": 424.8046875,
      "v": 127
    },
    {
      "midi": 47,
      "hit": false,
      "t": 223945.3125,
      "d": 29.296875,
      "v": 105
    },
    {
      "midi": 47,
      "hit": false,
      "t": 223945.3125,
      "d": 29.296875,
      "v": 123
    },
    {
      "midi": 73,
      "hit": false,
      "t": 223945.3125,
      "d": 78.125,
      "v": 107
    },
    {
      "midi": 37,
      "hit": false,
      "t": 224062.5,
      "d": 234.375,
      "v": 127
    },
    {
      "midi": 73,
      "hit": false,
      "t": 224062.5,
      "d": 468.75,
      "v": 35
    },
    {
      "midi": 77,
      "hit": false,
      "t": 224062.5,
      "d": 468.75,
      "v": 57
    },
    {
      "midi": 80,
      "hit": false,
      "t": 224062.5,
      "d": 468.75,
      "v": 57
    },
    {
      "midi": 49,
      "hit": false,
      "t": 224062.5,
      "d": 53.7109375,
      "v": 116
    },
    {
      "midi": 49,
      "hit": false,
      "t": 224062.5,
      "d": 53.7109375,
      "v": 127
    },
    {
      "midi": 61,
      "hit": false,
      "t": 224104.00390625,
      "d": 427.24609375,
      "v": 113
    },
    {
      "midi": 65,
      "hit": false,
      "t": 224108.88671875,
      "d": 422.36328125,
      "v": 113
    },
    {
      "midi": 68,
      "hit": false,
      "t": 224111.328125,
      "d": 419.921875,
      "v": 113
    },
    {
      "midi": 49,
      "hit": false,
      "t": 224296.875,
      "d": 234.375,
      "v": 127
    },
    {
      "midi": 49,
      "hit": false,
      "t": 224296.875,
      "d": 43.9453125,
      "v": 98
    },
    {
      "midi": 49,
      "hit": false,
      "t": 224296.875,
      "d": 43.9453125,
      "v": 116
    },
    {
      "midi": 73,
      "hit": false,
      "t": 224296.875,
      "d": 46.38671875,
      "v": 127
    },
    {
      "midi": 73,
      "hit": false,
      "t": 224296.875,
      "d": 48.828125,
      "v": 127
    },
    {
      "midi": 66,
      "hit": false,
      "t": 224296.875,
      "d": 236.81640625,
      "v": 100
    },
    {
      "midi": 58,
      "hit": false,
      "t": 224296.875,
      "d": 280.76171875,
      "v": 120
    },
    {
      "midi": 49,
      "hit": false,
      "t": 224414.0625,
      "d": 56.15234375,
      "v": 116
    },
    {
      "midi": 49,
      "hit": false,
      "t": 224414.0625,
      "d": 56.15234375,
      "v": 127
    },
    {
      "midi": 73,
      "hit": false,
      "t": 224414.0625,
      "d": 65.91796875,
      "v": 127
    },
    {
      "midi": 73,
      "hit": false,
      "t": 224414.0625,
      "d": 63.4765625,
      "v": 110
    },
    {
      "midi": 37,
      "hit": false,
      "t": 224531.25,
      "d": 234.375,
      "v": 127
    },
    {
      "midi": 49,
      "hit": false,
      "t": 224531.25,
      "d": 43.9453125,
      "v": 113
    },
    {
      "midi": 49,
      "hit": false,
      "t": 224531.25,
      "d": 43.9453125,
      "v": 127
    },
    {
      "midi": 73,
      "hit": false,
      "t": 224531.25,
      "d": 53.7109375,
      "v": 127
    },
    {
      "midi": 75,
      "hit": false,
      "t": 224531.25,
      "d": 36.62109375,
      "v": 116
    },
    {
      "midi": 65,
      "hit": false,
      "t": 224531.25,
      "d": 144.04296875,
      "v": 110
    },
    {
      "midi": 56,
      "hit": false,
      "t": 224531.25,
      "d": 185.546875,
      "v": 127
    },
    {
      "midi": 73,
      "hit": false,
      "t": 224648.4375,
      "d": 78.125,
      "v": 127
    },
    {
      "midi": 75,
      "hit": false,
      "t": 224648.4375,
      "d": 39.0625,
      "v": 105
    },
    {
      "midi": 30,
      "hit": false,
      "t": 224765.625,
      "d": 1171.875,
      "v": 127
    },
    {
      "midi": 66,
      "hit": false,
      "t": 224765.625,
      "d": 1171.875,
      "v": 113
    },
    {
      "midi": 70,
      "hit": false,
      "t": 224765.625,
      "d": 1171.875,
      "v": 52
    },
    {
      "midi": 73,
      "hit": false,
      "t": 224765.625,
      "d": 1171.875,
      "v": 45
    },
    {
      "midi": 78,
      "hit": false,
      "t": 224765.625,
      "d": 1171.875,
      "v": 50
    },
    {
      "midi": 54,
      "hit": false,
      "t": 224765.625,
      "d": 1171.875,
      "v": 110
    },
    {
      "midi": 54,
      "hit": false,
      "t": 224765.625,
      "d": 1171.875,
      "v": 127
    },
    {
      "midi": 73,
      "hit": false,
      "t": 224765.625,
      "d": 97.65625,
      "v": 127
    },
    {
      "midi": 73,
      "hit": false,
      "t": 224765.625,
      "d": 46.38671875,
      "v": 122
    },
    {
      "midi": 54,
      "hit": false,
      "t": 224765.625,
      "d": 1074.21875,
      "v": 127
    },
    {
      "midi": 66,
      "hit": false,
      "t": 224765.625,
      "d": 1140.13671875,
      "v": 110
    },
    {
      "midi": 73,
      "hit": false,
      "t": 224772.94921875,
      "d": 1164.55078125,
      "v": 113
    },
    {
      "midi": 70,
      "hit": false,
      "t": 224777.83203125,
      "d": 1159.66796875,
      "v": 113
    }
  ]
}