{
  "jsonPath": "World/Japanese Psychedelic/Nagisa Ni Te/secrets.json",
  "path": "World\\Japanese Psychedelic\\Nagisa Ni Te\\Secrets.mid",
  "name": "Secrets",
  "difficulty": "Advanced",
  "bpm": 120,
  "notes": [
    {
      "midi": 57,
      "hit": false,
      "t": 5649.999999999999,
      "d": 66.66666666666697,
      "v": 77
    },
    {
      "midi": 64,
      "hit": false,
      "t": 5649.999999999999,
      "d": 66.66666666666697,
      "v": 88
    },
    {
      "midi": 60,
      "hit": false,
      "t": 5649.999999999999,
      "d": 83.33333333333394,
      "v": 83
    },
    {
      "midi": 57,
      "hit": false,
      "t": 5983.333333333333,
      "d": 200,
      "v": 91
    },
    {
      "midi": 60,
      "hit": false,
      "t": 5983.333333333333,
      "d": 200,
      "v": 94
    },
    {
      "midi": 64,
      "hit": false,
      "t": 5983.333333333333,
      "d": 200,
      "v": 97
    },
    {
      "midi": 55,
      "hit": false,
      "t": 8316.666666666666,
      "d": 50,
      "v": 63
    },
    {
      "midi": 59,
      "hit": false,
      "t": 8316.666666666666,
      "d": 50,
      "v": 67
    },
    {
      "midi": 62,
      "hit": false,
      "t": 8316.666666666666,
      "d": 66.66666666666606,
      "v": 83
    },
    {
      "midi": 55,
      "hit": false,
      "t": 8649.999999999998,
      "d": 233.33333333333394,
      "v": 81
    },
    {
      "midi": 59,
      "hit": false,
      "t": 8649.999999999998,
      "d": 233.33333333333394,
      "v": 97
    },
    {
      "midi": 62,
      "hit": false,
      "t": 8649.999999999998,
      "d": 250,
      "v": 97
    },
    {
      "midi": 55,
      "hit": false,
      "t": 8966.666666666664,
      "d": 83.33333333333394,
      "v": 71
    },
    {
      "midi": 59,
      "hit": false,
      "t": 8966.666666666664,
      "d": 83.33333333333394,
      "v": 77
    },
    {
      "midi": 62,
      "hit": false,
      "t": 8966.666666666664,
      "d": 83.33333333333394,
      "v": 86
    },
    {
      "midi": 64,
      "hit": false,
      "t": 10966.666666666664,
      "d": 66.66666666666606,
      "v": 94
    },
    {
      "midi": 60,
      "hit": false,
      "t": 10966.666666666664,
      "d": 83.33333333333212,
      "v": 88
    },
    {
      "midi": 57,
      "hit": false,
      "t": 10966.666666666664,
      "d": 99.99999999999818,
      "v": 91
    },
    {
      "midi": 60,
      "hit": false,
      "t": 11299.999999999996,
      "d": 133.33333333333394,
      "v": 86
    },
    {
      "midi": 64,
      "hit": false,
      "t": 11299.999999999996,
      "d": 133.33333333333394,
      "v": 86
    },
    {
      "midi": 57,
      "hit": false,
      "t": 11299.999999999996,
      "d": 150,
      "v": 81
    },
    {
      "midi": 59,
      "hit": false,
      "t": 13633.33333333333,
      "d": 50,
      "v": 75
    },
    {
      "midi": 55,
      "hit": false,
      "t": 13633.33333333333,
      "d": 66.66666666666606,
      "v": 67
    },
    {
      "midi": 62,
      "hit": false,
      "t": 13633.33333333333,
      "d": 66.66666666666606,
      "v": 81
    },
    {
      "midi": 55,
      "hit": false,
      "t": 13966.666666666662,
      "d": 100,
      "v": 77
    },
    {
      "midi": 59,
      "hit": false,
      "t": 13966.666666666662,
      "d": 100,
      "v": 88
    },
    {
      "midi": 62,
      "hit": false,
      "t": 13966.666666666662,
      "d": 100,
      "v": 88
    },
    {
      "midi": 55,
      "hit": false,
      "t": 14299.999999999996,
      "d": 133.33333333333394,
      "v": 77
    },
    {
      "midi": 59,
      "hit": false,
      "t": 14299.999999999996,
      "d": 133.33333333333394,
      "v": 81
    },
    {
      "midi": 62,
      "hit": false,
      "t": 14299.999999999996,
      "d": 133.33333333333394,
      "v": 91
    },
    {
      "midi": 57,
      "hit": false,
      "t": 16283.33333333333,
      "d": 66.66666666666606,
      "v": 67
    },
    {
      "midi": 60,
      "hit": false,
      "t": 16283.33333333333,
      "d": 66.66666666666606,
      "v": 73
    },
    {
      "midi": 64,
      "hit": false,
      "t": 16283.33333333333,
      "d": 66.66666666666606,
      "v": 66
    },
    {
      "midi": 57,
      "hit": false,
      "t": 16616.666666666664,
      "d": 150,
      "v": 88
    },
    {
      "midi": 60,
      "hit": false,
      "t": 16616.666666666664,
      "d": 150,
      "v": 94
    },
    {
      "midi": 64,
      "hit": false,
      "t": 16616.666666666664,
      "d": 150,
      "v": 94
    },
    {
      "midi": 60,
      "hit": false,
      "t": 18283.333333333332,
      "d": 50,
      "v": 81
    },
    {
      "midi": 64,
      "hit": false,
      "t": 18283.333333333332,
      "d": 66.66666666666788,
      "v": 71
    },
    {
      "midi": 57,
      "hit": false,
      "t": 18283.333333333332,
      "d": 83.33333333333576,
      "v": 79
    },
    {
      "midi": 55,
      "hit": false,
      "t": 18950,
      "d": 83.33333333333212,
      "v": 61
    },
    {
      "midi": 59,
      "hit": false,
      "t": 18950,
      "d": 83.33333333333212,
      "v": 68
    },
    {
      "midi": 62,
      "hit": false,
      "t": 18950,
      "d": 83.33333333333212,
      "v": 75
    },
    {
      "midi": 55,
      "hit": false,
      "t": 19283.333333333332,
      "d": 83.33333333333212,
      "v": 73
    },
    {
      "midi": 59,
      "hit": false,
      "t": 19283.333333333332,
      "d": 83.33333333333212,
      "v": 79
    },
    {
      "midi": 62,
      "hit": false,
      "t": 19283.333333333332,
      "d": 100,
      "v": 86
    },
    {
      "midi": 55,
      "hit": false,
      "t": 19616.666666666664,
      "d": 150,
      "v": 83
    },
    {
      "midi": 59,
      "hit": false,
      "t": 19616.666666666664,
      "d": 150,
      "v": 88
    },
    {
      "midi": 62,
      "hit": false,
      "t": 19616.666666666664,
      "d": 150,
      "v": 94
    },
    {
      "midi": 60,
      "hit": false,
      "t": 21599.999999999996,
      "d": 66.66666666666788,
      "v": 64
    },
    {
      "midi": 64,
      "hit": false,
      "t": 21599.999999999996,
      "d": 66.66666666666788,
      "v": 59
    },
    {
      "midi": 57,
      "hit": false,
      "t": 21599.999999999996,
      "d": 83.33333333333576,
      "v": 62
    },
    {
      "midi": 57,
      "hit": false,
      "t": 21933.333333333332,
      "d": 116.66666666666788,
      "v": 81
    },
    {
      "midi": 64,
      "hit": false,
      "t": 21933.333333333332,
      "d": 116.66666666666788,
      "v": 86
    },
    {
      "midi": 60,
      "hit": false,
      "t": 21933.333333333332,
      "d": 133.33333333333576,
      "v": 86
    },
    {
      "midi": 55,
      "hit": false,
      "t": 24266.666666666668,
      "d": 50,
      "v": 59
    },
    {
      "midi": 59,
      "hit": false,
      "t": 24266.666666666668,
      "d": 50,
      "v": 59
    },
    {
      "midi": 62,
      "hit": false,
      "t": 24266.666666666668,
      "d": 66.66666666666788,
      "v": 71
    },
    {
      "midi": 55,
      "hit": false,
      "t": 24600.000000000004,
      "d": 116.66666666666788,
      "v": 75
    },
    {
      "midi": 59,
      "hit": false,
      "t": 24600.000000000004,
      "d": 116.66666666666788,
      "v": 81
    },
    {
      "midi": 62,
      "hit": false,
      "t": 24600.000000000004,
      "d": 116.66666666666788,
      "v": 86
    },
    {
      "midi": 55,
      "hit": false,
      "t": 24933.33333333334,
      "d": 133.33333333333212,
      "v": 86
    },
    {
      "midi": 59,
      "hit": false,
      "t": 24933.33333333334,
      "d": 133.33333333333212,
      "v": 94
    },
    {
      "midi": 62,
      "hit": false,
      "t": 24933.33333333334,
      "d": 150,
      "v": 94
    },
    {
      "midi": 57,
      "hit": false,
      "t": 26916.66666666667,
      "d": 100,
      "v": 67
    },
    {
      "midi": 53,
      "hit": false,
      "t": 26916.66666666667,
      "d": 116.66666666666788,
      "v": 67
    },
    {
      "midi": 62,
      "hit": false,
      "t": 26916.66666666667,
      "d": 116.66666666666788,
      "v": 66
    },
    {
      "midi": 53,
      "hit": false,
      "t": 27250.000000000007,
      "d": 116.66666666666788,
      "v": 58
    },
    {
      "midi": 57,
      "hit": false,
      "t": 27250.000000000007,
      "d": 116.66666666666788,
      "v": 70
    },
    {
      "midi": 62,
      "hit": false,
      "t": 27250.000000000007,
      "d": 116.66666666666788,
      "v": 68
    },
    {
      "midi": 57,
      "hit": false,
      "t": 29583.333333333343,
      "d": 50,
      "v": 71
    },
    {
      "midi": 60,
      "hit": false,
      "t": 29583.333333333343,
      "d": 100,
      "v": 86
    },
    {
      "midi": 57,
      "hit": false,
      "t": 29916.666666666675,
      "d": 100,
      "v": 91
    },
    {
      "midi": 60,
      "hit": false,
      "t": 29916.666666666675,
      "d": 116.66666666666788,
      "v": 88
    },
    {
      "midi": 57,
      "hit": false,
      "t": 30250.00000000001,
      "d": 83.33333333333212,
      "v": 88
    },
    {
      "midi": 60,
      "hit": false,
      "t": 30250.00000000001,
      "d": 100,
      "v": 88
    },
    {
      "midi": 53,
      "hit": false,
      "t": 32583.333333333343,
      "d": 100,
      "v": 60
    },
    {
      "midi": 57,
      "hit": false,
      "t": 32583.333333333343,
      "d": 100,
      "v": 67
    },
    {
      "midi": 62,
      "hit": false,
      "t": 32583.333333333343,
      "d": 116.66666666666788,
      "v": 54
    },
    {
      "midi": 52,
      "hit": false,
      "t": 33900.000000000015,
      "d": 133.33333333333576,
      "v": 67
    },
    {
      "midi": 59,
      "hit": false,
      "t": 33900.000000000015,
      "d": 150,
      "v": 79
    },
    {
      "midi": 52,
      "hit": false,
      "t": 34566.66666666668,
      "d": 266.66666666666424,
      "v": 54
    },
    {
      "midi": 57,
      "hit": false,
      "t": 34566.66666666668,
      "d": 266.66666666666424,
      "v": 75
    },
    {
      "midi": 60,
      "hit": false,
      "t": 34566.66666666668,
      "d": 283.3333333333285,
      "v": 67
    },
    {
      "midi": 57,
      "hit": false,
      "t": 37233.333333333336,
      "d": 2066.666666666657,
      "v": 108
    },
    {
      "midi": 52,
      "hit": false,
      "t": 37566.66666666667,
      "d": 83.33333333333576,
      "v": 57
    },
    {
      "midi": 57,
      "hit": false,
      "t": 37566.66666666667,
      "d": 83.33333333333576,
      "v": 67
    },
    {
      "midi": 60,
      "hit": false,
      "t": 37566.66666666667,
      "d": 83.33333333333576,
      "v": 71
    },
    {
      "midi": 64,
      "hit": false,
      "t": 37566.66666666667,
      "d": 316.66666666666424,
      "v": 104
    },
    {
      "midi": 69,
      "hit": false,
      "t": 37900,
      "d": 316.66666666666424,
      "v": 117
    },
    {
      "midi": 52,
      "hit": false,
      "t": 37900.00000000001,
      "d": 116.66666666666424,
      "v": 56
    },
    {
      "midi": 57,
      "hit": false,
      "t": 37900.00000000001,
      "d": 116.66666666666424,
      "v": 79
    },
    {
      "midi": 60,
      "hit": false,
      "t": 37900.00000000001,
      "d": 133.33333333332848,
      "v": 88
    },
    {
      "midi": 72,
      "hit": false,
      "t": 38233.33333333333,
      "d": 333.33333333333576,
      "v": 94
    },
    {
      "midi": 71,
      "hit": false,
      "t": 38566.666666666664,
      "d": 300,
      "v": 113
    },
    {
      "midi": 64,
      "hit": false,
      "t": 38883.33333333333,
      "d": 350,
      "v": 81
    },
    {
      "midi": 69,
      "hit": false,
      "t": 39216.666666666664,
      "d": 299.9999999999927,
      "v": 94
    },
    {
      "midi": 64,
      "hit": false,
      "t": 39549.99999999999,
      "d": 350,
      "v": 86
    },
    {
      "midi": 57,
      "hit": false,
      "t": 39883.33333333333,
      "d": 2333.3333333333358,
      "v": 94
    },
    {
      "midi": 64,
      "hit": false,
      "t": 40216.66666666666,
      "d": 333.33333333333576,
      "v": 81
    },
    {
      "midi": 52,
      "hit": false,
      "t": 40216.66666666667,
      "d": 66.66666666666424,
      "v": 48
    },
    {
      "midi": 57,
      "hit": false,
      "t": 40216.66666666667,
      "d": 66.66666666666424,
      "v": 55
    },
    {
      "midi": 60,
      "hit": false,
      "t": 40216.66666666667,
      "d": 66.66666666666424,
      "v": 55
    },
    {
      "midi": 69,
      "hit": false,
      "t": 40549.99999999999,
      "d": 300,
      "v": 91
    },
    {
      "midi": 52,
      "hit": false,
      "t": 40550,
      "d": 150,
      "v": 71
    },
    {
      "midi": 57,
      "hit": false,
      "t": 40550,
      "d": 150,
      "v": 77
    },
    {
      "midi": 60,
      "hit": false,
      "t": 40550,
      "d": 166.66666666666424,
      "v": 88
    },
    {
      "midi": 60,
      "hit": false,
      "t": 40883.33333333333,
      "d": 116.66666666666424,
      "v": 86
    },
    {
      "midi": 52,
      "hit": false,
      "t": 40883.33333333333,
      "d": 133.33333333332848,
      "v": 66
    },
    {
      "midi": 57,
      "hit": false,
      "t": 40883.33333333333,
      "d": 133.33333333332848,
      "v": 79
    },
    {
      "midi": 72,
      "hit": false,
      "t": 40883.33333333333,
      "d": 366.6666666666715,
      "v": 101
    },
    {
      "midi": 71,
      "hit": false,
      "t": 41216.666666666664,
      "d": 316.6666666666715,
      "v": 113
    },
    {
      "midi": 67,
      "hit": false,
      "t": 41550,
      "d": 316.66666666666424,
      "v": 66
    },
    {
      "midi": 69,
      "hit": false,
      "t": 41883.33333333333,
      "d": 300,
      "v": 94
    },
    {
      "midi": 64,
      "hit": false,
      "t": 42216.666666666664,
      "d": 383.33333333333576,
      "v": 91
    },
    {
      "midi": 57,
      "hit": false,
      "t": 42550,
      "d": 2200,
      "v": 97
    },
    {
      "midi": 52,
      "hit": false,
      "t": 42883.33333333332,
      "d": 83.33333333333576,
      "v": 54
    },
    {
      "midi": 57,
      "hit": false,
      "t": 42883.33333333332,
      "d": 83.33333333333576,
      "v": 75
    },
    {
      "midi": 60,
      "hit": false,
      "t": 42883.33333333332,
      "d": 83.33333333333576,
      "v": 71
    },
    {
      "midi": 64,
      "hit": false,
      "t": 42883.333333333336,
      "d": 333.33333333333576,
      "v": 81
    },
    {
      "midi": 57,
      "hit": false,
      "t": 43216.66666666666,
      "d": 116.66666666666424,
      "v": 91
    },
    {
      "midi": 52,
      "hit": false,
      "t": 43216.66666666666,
      "d": 133.33333333332848,
      "v": 83
    },
    {
      "midi": 60,
      "hit": false,
      "t": 43216.66666666666,
      "d": 133.33333333332848,
      "v": 94
    },
    {
      "midi": 69,
      "hit": false,
      "t": 43216.66666666667,
      "d": 283.33333333333576,
      "v": 88
    },
    {
      "midi": 72,
      "hit": false,
      "t": 43550.00000000001,
      "d": 333.33333333333576,
      "v": 86
    },
    {
      "midi": 71,
      "hit": false,
      "t": 43883.33333333334,
      "d": 316.66666666666424,
      "v": 108
    },
    {
      "midi": 64,
      "hit": false,
      "t": 44216.66666666667,
      "d": 366.66666666666424,
      "v": 75
    },
    {
      "midi": 69,
      "hit": false,
      "t": 44533.333333333336,
      "d": 316.66666666666424,
      "v": 104
    },
    {
      "midi": 64,
      "hit": false,
      "t": 44866.666666666664,
      "d": 150,
      "v": 88
    },
    {
      "midi": 67,
      "hit": false,
      "t": 45200,
      "d": 650,
      "v": 101
    },
    {
      "midi": 55,
      "hit": false,
      "t": 45200,
      "d": 2333.333333333343,
      "v": 104
    },
    {
      "midi": 55,
      "hit": false,
      "t": 45533.33333333332,
      "d": 66.66666666666424,
      "v": 54
    },
    {
      "midi": 59,
      "hit": false,
      "t": 45533.33333333332,
      "d": 66.66666666666424,
      "v": 59
    },
    {
      "midi": 62,
      "hit": false,
      "t": 45533.33333333332,
      "d": 66.66666666666424,
      "v": 64
    },
    {
      "midi": 62,
      "hit": false,
      "t": 45533.333333333336,
      "d": 1733.3333333333358,
      "v": 88
    },
    {
      "midi": 59,
      "hit": false,
      "t": 45866.66666666665,
      "d": 83.33333333333576,
      "v": 81
    },
    {
      "midi": 55,
      "hit": false,
      "t": 45866.66666666665,
      "d": 100,
      "v": 77
    },
    {
      "midi": 62,
      "hit": false,
      "t": 45866.66666666665,
      "d": 116.66666666666424,
      "v": 86
    },
    {
      "midi": 71,
      "hit": false,
      "t": 45866.666666666664,
      "d": 350,
      "v": 97
    },
    {
      "midi": 59,
      "hit": false,
      "t": 46199.99999999998,
      "d": 116.66666666666424,
      "v": 86
    },
    {
      "midi": 55,
      "hit": false,
      "t": 46199.99999999998,
      "d": 133.33333333332848,
      "v": 83
    },
    {
      "midi": 62,
      "hit": false,
      "t": 46199.99999999998,
      "d": 149.99999999999272,
      "v": 91
    },
    {
      "midi": 74,
      "hit": false,
      "t": 46200,
      "d": 333.3333333333285,
      "v": 91
    },
    {
      "midi": 79,
      "hit": false,
      "t": 46533.33333333333,
      "d": 700.0000000000073,
      "v": 86
    },
    {
      "midi": 67,
      "hit": false,
      "t": 46866.666666666664,
      "d": 633.333333333343,
      "v": 57
    },
    {
      "midi": 74,
      "hit": false,
      "t": 47200,
      "d": 350.0000000000073,
      "v": 88
    },
    {
      "midi": 62,
      "hit": false,
      "t": 47533.33333333334,
      "d": 316.66666666666424,
      "v": 81
    },
    {
      "midi": 71,
      "hit": false,
      "t": 47533.33333333334,
      "d": 633.3333333333285,
      "v": 77
    },
    {
      "midi": 55,
      "hit": false,
      "t": 47866.66666666667,
      "d": 2333.3333333333503,
      "v": 79
    },
    {
      "midi": 55,
      "hit": false,
      "t": 48199.99999999997,
      "d": 66.66666666666424,
      "v": 60
    },
    {
      "midi": 59,
      "hit": false,
      "t": 48199.99999999997,
      "d": 66.66666666666424,
      "v": 66
    },
    {
      "midi": 62,
      "hit": false,
      "t": 48199.99999999997,
      "d": 83.33333333332848,
      "v": 68
    },
    {
      "midi": 67,
      "hit": false,
      "t": 48200.00000000001,
      "d": 1083.333333333343,
      "v": 56
    },
    {
      "midi": 62,
      "hit": false,
      "t": 48200.00000000001,
      "d": 1666.6666666666788,
      "v": 91
    },
    {
      "midi": 55,
      "hit": false,
      "t": 48533.3333333333,
      "d": 166.66666666666424,
      "v": 73
    },
    {
      "midi": 59,
      "hit": false,
      "t": 48533.3333333333,
      "d": 166.66666666666424,
      "v": 86
    },
    {
      "midi": 62,
      "hit": false,
      "t": 48533.3333333333,
      "d": 166.66666666666424,
      "v": 86
    },
    {
      "midi": 74,
      "hit": false,
      "t": 48533.33333333334,
      "d": 283.33333333333576,
      "v": 88
    },
    {
      "midi": 71,
      "hit": false,
      "t": 48866.66666666668,
      "d": 383.33333333333576,
      "v": 52
    },
    {
      "midi": 79,
      "hit": false,
      "t": 49200.000000000015,
      "d": 266.6666666666715,
      "v": 59
    },
    {
      "midi": 74,
      "hit": false,
      "t": 49533.33333333335,
      "d": 333.33333333333576,
      "v": 77
    },
    {
      "midi": 71,
      "hit": false,
      "t": 49866.666666666686,
      "d": 1333.3333333333358,
      "v": 94
    },
    {
      "midi": 62,
      "hit": false,
      "t": 50200.00000000002,
      "d": 316.66666666666424,
      "v": 88
    },
    {
      "midi": 55,
      "hit": false,
      "t": 50516.666666666686,
      "d": 2283.3333333333285,
      "v": 101
    },
    {
      "midi": 55,
      "hit": false,
      "t": 50849.99999999996,
      "d": 66.66666666666424,
      "v": 53
    },
    {
      "midi": 59,
      "hit": false,
      "t": 50849.99999999996,
      "d": 66.66666666666424,
      "v": 59
    },
    {
      "midi": 62,
      "hit": false,
      "t": 50849.99999999996,
      "d": 66.66666666666424,
      "v": 62
    },
    {
      "midi": 62,
      "hit": false,
      "t": 50850.00000000002,
      "d": 400,
      "v": 83
    },
    {
      "midi": 59,
      "hit": false,
      "t": 51183.33333333329,
      "d": 166.66666666666424,
      "v": 91
    },
    {
      "midi": 55,
      "hit": false,
      "t": 51183.33333333329,
      "d": 183.33333333332848,
      "v": 86
    },
    {
      "midi": 62,
      "hit": false,
      "t": 51183.33333333329,
      "d": 183.33333333332848,
      "v": 94
    },
    {
      "midi": 67,
      "hit": false,
      "t": 51183.33333333336,
      "d": 683.3333333333285,
      "v": 83
    },
    {
      "midi": 55,
      "hit": false,
      "t": 51516.66666666662,
      "d": 116.66666666666424,
      "v": 62
    },
    {
      "midi": 59,
      "hit": false,
      "t": 51516.66666666662,
      "d": 116.66666666666424,
      "v": 70
    },
    {
      "midi": 62,
      "hit": false,
      "t": 51516.66666666662,
      "d": 116.66666666666424,
      "v": 81
    },
    {
      "midi": 62,
      "hit": false,
      "t": 51516.666666666686,
      "d": 500,
      "v": 79
    },
    {
      "midi": 71,
      "hit": false,
      "t": 51850.00000000002,
      "d": 649.9999999999927,
      "v": 101
    },
    {
      "midi": 62,
      "hit": false,
      "t": 52183.33333333335,
      "d": 366.66666666666424,
      "v": 71
    },
    {
      "midi": 67,
      "hit": false,
      "t": 52516.66666666668,
      "d": 916.6666666666715,
      "v": 83
    },
    {
      "midi": 62,
      "hit": false,
      "t": 52850.000000000015,
      "d": 366.6666666666715,
      "v": 81
    },
    {
      "midi": 55,
      "hit": false,
      "t": 53183.33333333335,
      "d": 2283.3333333333358,
      "v": 104
    },
    {
      "midi": 55,
      "hit": false,
      "t": 53516.66666666662,
      "d": 66.66666666666424,
      "v": 55
    },
    {
      "midi": 59,
      "hit": false,
      "t": 53516.66666666662,
      "d": 83.33333333332848,
      "v": 66
    },
    {
      "midi": 62,
      "hit": false,
      "t": 53516.66666666662,
      "d": 83.33333333332848,
      "v": 70
    },
    {
      "midi": 62,
      "hit": false,
      "t": 53516.666666666686,
      "d": 1150,
      "v": 75
    },
    {
      "midi": 59,
      "hit": false,
      "t": 53849.99999999995,
      "d": 133.33333333333576,
      "v": 91
    },
    {
      "midi": 55,
      "hit": false,
      "t": 53849.99999999995,
      "d": 150,
      "v": 79
    },
    {
      "midi": 62,
      "hit": false,
      "t": 53849.99999999995,
      "d": 150,
      "v": 94
    },
    {
      "midi": 67,
      "hit": false,
      "t": 53850.00000000002,
      "d": 616.6666666666642,
      "v": 79
    },
    {
      "midi": 71,
      "hit": false,
      "t": 54516.666666666686,
      "d": 316.66666666666424,
      "v": 91
    },
    {
      "midi": 72,
      "hit": false,
      "t": 54850.000000000015,
      "d": 366.6666666666715,
      "v": 83
    },
    {
      "midi": 71,
      "hit": false,
      "t": 55183.33333333335,
      "d": 333.33333333333576,
      "v": 104
    },
    {
      "midi": 62,
      "hit": false,
      "t": 55516.666666666686,
      "d": 316.66666666666424,
      "v": 86
    },
    {
      "midi": 67,
      "hit": false,
      "t": 55516.666666666686,
      "d": 316.66666666666424,
      "v": 77
    },
    {
      "midi": 69,
      "hit": false,
      "t": 55850.000000000015,
      "d": 300,
      "v": 83
    },
    {
      "midi": 57,
      "hit": false,
      "t": 55850.000000000015,
      "d": 1249.9999999999927,
      "v": 97
    },
    {
      "midi": 57,
      "hit": false,
      "t": 56183.333333333285,
      "d": 66.66666666666424,
      "v": 59
    },
    {
      "midi": 60,
      "hit": false,
      "t": 56183.333333333285,
      "d": 66.66666666666424,
      "v": 64
    },
    {
      "midi": 64,
      "hit": false,
      "t": 56183.333333333285,
      "d": 66.66666666666424,
      "v": 54
    },
    {
      "midi": 64,
      "hit": false,
      "t": 56183.33333333335,
      "d": 866.666666666657,
      "v": 88
    },
    {
      "midi": 57,
      "hit": false,
      "t": 56499.99999999995,
      "d": 150,
      "v": 83
    },
    {
      "midi": 60,
      "hit": false,
      "t": 56499.99999999995,
      "d": 150,
      "v": 88
    },
    {
      "midi": 64,
      "hit": false,
      "t": 56499.99999999995,
      "d": 150,
      "v": 91
    },
    {
      "midi": 69,
      "hit": false,
      "t": 56500.000000000015,
      "d": 316.66666666666424,
      "v": 66
    },
    {
      "midi": 57,
      "hit": false,
      "t": 56833.333333333285,
      "d": 116.66666666666424,
      "v": 68
    },
    {
      "midi": 60,
      "hit": false,
      "t": 56833.333333333285,
      "d": 116.66666666666424,
      "v": 64
    },
    {
      "midi": 64,
      "hit": false,
      "t": 56833.333333333285,
      "d": 133.33333333332848,
      "v": 70
    },
    {
      "midi": 72,
      "hit": false,
      "t": 56833.33333333334,
      "d": 383.3333333333285,
      "v": 127
    },
    {
      "midi": 71,
      "hit": false,
      "t": 57166.66666666667,
      "d": 683.3333333333285,
      "v": 127
    },
    {
      "midi": 67,
      "hit": false,
      "t": 57833.333333333336,
      "d": 583.3333333333285,
      "v": 122
    },
    {
      "midi": 57,
      "hit": false,
      "t": 58500,
      "d": 950.0000000000073,
      "v": 94
    },
    {
      "midi": 60,
      "hit": false,
      "t": 58833.33333333328,
      "d": 66.66666666666424,
      "v": 79
    },
    {
      "midi": 57,
      "hit": false,
      "t": 58833.33333333328,
      "d": 83.33333333332848,
      "v": 75
    },
    {
      "midi": 64,
      "hit": false,
      "t": 58833.33333333328,
      "d": 83.33333333332848,
      "v": 81
    },
    {
      "midi": 64,
      "hit": false,
      "t": 58833.333333333336,
      "d": 633.3333333333358,
      "v": 71
    },
    {
      "midi": 57,
      "hit": false,
      "t": 59166.666666666606,
      "d": 116.66666666666424,
      "v": 88
    },
    {
      "midi": 60,
      "hit": false,
      "t": 59166.666666666606,
      "d": 116.66666666666424,
      "v": 91
    },
    {
      "midi": 64,
      "hit": false,
      "t": 59166.666666666606,
      "d": 133.33333333332848,
      "v": 94
    },
    {
      "midi": 69,
      "hit": false,
      "t": 59166.66666666667,
      "d": 283.33333333333576,
      "v": 70
    },
    {
      "midi": 72,
      "hit": false,
      "t": 59500.00000000001,
      "d": 366.6666666666715,
      "v": 77
    },
    {
      "midi": 71,
      "hit": false,
      "t": 59833.33333333334,
      "d": 316.6666666666715,
      "v": 104
    },
    {
      "midi": 64,
      "hit": false,
      "t": 60166.66666666668,
      "d": 333.33333333333576,
      "v": 79
    },
    {
      "midi": 67,
      "hit": false,
      "t": 60500.000000000015,
      "d": 333.33333333333576,
      "v": 81
    },
    {
      "midi": 64,
      "hit": false,
      "t": 60833.33333333335,
      "d": 333.33333333333576,
      "v": 68
    },
    {
      "midi": 57,
      "hit": false,
      "t": 61166.666666666686,
      "d": 2416.6666666666642,
      "v": 101
    },
    {
      "midi": 57,
      "hit": false,
      "t": 61499.999999999935,
      "d": 50,
      "v": 56
    },
    {
      "midi": 60,
      "hit": false,
      "t": 61499.999999999935,
      "d": 50,
      "v": 59
    },
    {
      "midi": 64,
      "hit": false,
      "t": 61499.999999999935,
      "d": 66.66666666666424,
      "v": 70
    },
    {
      "midi": 64,
      "hit": false,
      "t": 61500.00000000002,
      "d": 300,
      "v": 79
    },
    {
      "midi": 60,
      "hit": false,
      "t": 61833.33333333326,
      "d": 83.33333333333576,
      "v": 97
    },
    {
      "midi": 57,
      "hit": false,
      "t": 61833.33333333326,
      "d": 116.66666666667152,
      "v": 91
    },
    {
      "midi": 64,
      "hit": false,
      "t": 61833.33333333326,
      "d": 116.66666666667152,
      "v": 97
    },
    {
      "midi": 69,
      "hit": false,
      "t": 61833.33333333336,
      "d": 283.33333333333576,
      "v": 83
    },
    {
      "midi": 57,
      "hit": false,
      "t": 62166.6666666666,
      "d": 83.33333333333576,
      "v": 86
    },
    {
      "midi": 60,
      "hit": false,
      "t": 62166.6666666666,
      "d": 83.33333333333576,
      "v": 94
    },
    {
      "midi": 64,
      "hit": false,
      "t": 62166.6666666666,
      "d": 100,
      "v": 94
    },
    {
      "midi": 72,
      "hit": false,
      "t": 62166.66666666669,
      "d": 383.3333333333285,
      "v": 86
    },
    {
      "midi": 71,
      "hit": false,
      "t": 62483.33333333336,
      "d": 650,
      "v": 101
    },
    {
      "midi": 69,
      "hit": false,
      "t": 63150.00000000002,
      "d": 316.66666666666424,
      "v": 86
    },
    {
      "midi": 64,
      "hit": false,
      "t": 63483.33333333335,
      "d": 466.6666666666715,
      "v": 79
    },
    {
      "midi": 57,
      "hit": false,
      "t": 63816.666666666686,
      "d": 1450,
      "v": 104
    },
    {
      "midi": 57,
      "hit": false,
      "t": 64149.999999999935,
      "d": 83.33333333333576,
      "v": 60
    },
    {
      "midi": 60,
      "hit": false,
      "t": 64149.999999999935,
      "d": 83.33333333333576,
      "v": 66
    },
    {
      "midi": 64,
      "hit": false,
      "t": 64149.999999999935,
      "d": 100,
      "v": 75
    },
    {
      "midi": 64,
      "hit": false,
      "t": 64150.00000000002,
      "d": 650,
      "v": 79
    },
    {
      "midi": 57,
      "hit": false,
      "t": 64483.33333333327,
      "d": 133.33333333333576,
      "v": 81
    },
    {
      "midi": 60,
      "hit": false,
      "t": 64483.33333333327,
      "d": 133.33333333333576,
      "v": 91
    },
    {
      "midi": 64,
      "hit": false,
      "t": 64483.33333333327,
      "d": 133.33333333333576,
      "v": 91
    },
    {
      "midi": 67,
      "hit": false,
      "t": 64483.33333333336,
      "d": 1366.6666666666715,
      "v": 83
    },
    {
      "midi": 72,
      "hit": false,
      "t": 65150.00000000002,
      "d": 616.6666666666642,
      "v": 108
    },
    {
      "midi": 57,
      "hit": false,
      "t": 65483.33333333335,
      "d": 350.0000000000073,
      "v": 70
    },
    {
      "midi": 64,
      "hit": false,
      "t": 65483.33333333335,
      "d": 966.6666666666788,
      "v": 61
    },
    {
      "midi": 71,
      "hit": false,
      "t": 65816.66666666669,
      "d": 650.0000000000146,
      "v": 122
    },
    {
      "midi": 57,
      "hit": false,
      "t": 66150.00000000003,
      "d": 100,
      "v": 77
    },
    {
      "midi": 67,
      "hit": false,
      "t": 66483.33333333337,
      "d": 333.3333333333285,
      "v": 86
    },
    {
      "midi": 55,
      "hit": false,
      "t": 66483.33333333337,
      "d": 2283.3333333333285,
      "v": 77
    },
    {
      "midi": 59,
      "hit": false,
      "t": 66816.6666666666,
      "d": 66.66666666667152,
      "v": 70
    },
    {
      "midi": 55,
      "hit": false,
      "t": 66816.6666666666,
      "d": 83.33333333334303,
      "v": 61
    },
    {
      "midi": 62,
      "hit": false,
      "t": 66816.6666666666,
      "d": 83.33333333334303,
      "v": 71
    },
    {
      "midi": 62,
      "hit": false,
      "t": 66816.6666666667,
      "d": 983.3333333333285,
      "v": 83
    },
    {
      "midi": 59,
      "hit": false,
      "t": 67149.99999999994,
      "d": 100,
      "v": 81
    },
    {
      "midi": 55,
      "hit": false,
      "t": 67149.99999999994,
      "d": 116.66666666667152,
      "v": 73
    },
    {
      "midi": 62,
      "hit": false,
      "t": 67149.99999999994,
      "d": 116.66666666667152,
      "v": 86
    },
    {
      "midi": 67,
      "hit": false,
      "t": 67150.00000000003,
      "d": 250,
      "v": 68
    },
    {
      "midi": 55,
      "hit": false,
      "t": 67483.33333333328,
      "d": 83.33333333332848,
      "v": 91
    },
    {
      "midi": 59,
      "hit": false,
      "t": 67483.33333333328,
      "d": 83.33333333332848,
      "v": 97
    },
    {
      "midi": 62,
      "hit": false,
      "t": 67483.33333333328,
      "d": 100,
      "v": 97
    },
    {
      "midi": 71,
      "hit": false,
      "t": 67483.33333333336,
      "d": 383.33333333334303,
      "v": 73
    },
    {
      "midi": 69,
      "hit": false,
      "t": 67816.6666666667,
      "d": 700,
      "v": 83
    },
    {
      "midi": 62,
      "hit": false,
      "t": 68150.00000000003,
      "d": 366.6666666666715,
      "v": 58
    },
    {
      "midi": 67,
      "hit": false,
      "t": 68466.6666666667,
      "d": 750,
      "v": 81
    },
    {
      "midi": 62,
      "hit": false,
      "t": 68800.00000000003,
      "d": 400,
      "v": 71
    },
    {
      "midi": 55,
      "hit": false,
      "t": 69133.33333333336,
      "d": 2333.333333333343,
      "v": 97
    },
    {
      "midi": 55,
      "hit": false,
      "t": 69466.66666666661,
      "d": 66.66666666667152,
      "v": 59
    },
    {
      "midi": 59,
      "hit": false,
      "t": 69466.66666666661,
      "d": 83.33333333334303,
      "v": 64
    },
    {
      "midi": 62,
      "hit": false,
      "t": 69466.66666666661,
      "d": 83.33333333334303,
      "v": 75
    },
    {
      "midi": 62,
      "hit": false,
      "t": 69466.6666666667,
      "d": 1266.6666666666715,
      "v": 79
    },
    {
      "midi": 55,
      "hit": false,
      "t": 69799.99999999996,
      "d": 133.33333333332848,
      "v": 83
    },
    {
      "midi": 59,
      "hit": false,
      "t": 69799.99999999996,
      "d": 133.33333333332848,
      "v": 91
    },
    {
      "midi": 62,
      "hit": false,
      "t": 69799.99999999996,
      "d": 133.33333333332848,
      "v": 91
    },
    {
      "midi": 67,
      "hit": false,
      "t": 69800.00000000003,
      "d": 333.3333333333285,
      "v": 58
    },
    {
      "midi": 71,
      "hit": false,
      "t": 70133.33333333336,
      "d": 316.6666666666715,
      "v": 86
    },
    {
      "midi": 67,
      "hit": false,
      "t": 70466.6666666667,
      "d": 416.6666666666715,
      "v": 70
    },
    {
      "midi": 62,
      "hit": false,
      "t": 70800.00000000004,
      "d": 200,
      "v": 47
    },
    {
      "midi": 67,
      "hit": false,
      "t": 71133.33333333337,
      "d": 350,
      "v": 86
    },
    {
      "midi": 62,
      "hit": false,
      "t": 71466.6666666667,
      "d": 366.6666666666715,
      "v": 81
    },
    {
      "midi": 55,
      "hit": false,
      "t": 71800.00000000004,
      "d": 2300,
      "v": 104
    },
    {
      "midi": 55,
      "hit": false,
      "t": 72133.33333333328,
      "d": 50,
      "v": 52
    },
    {
      "midi": 59,
      "hit": false,
      "t": 72133.33333333328,
      "d": 66.66666666667152,
      "v": 60
    },
    {
      "midi": 62,
      "hit": false,
      "t": 72133.33333333328,
      "d": 66.66666666667152,
      "v": 62
    },
    {
      "midi": 62,
      "hit": false,
      "t": 72133.33333333337,
      "d": 1666.6666666666715,
      "v": 75
    },
    {
      "midi": 59,
      "hit": false,
      "t": 72466.66666666663,
      "d": 83.33333333332848,
      "v": 91
    },
    {
      "midi": 55,
      "hit": false,
      "t": 72466.66666666663,
      "d": 100,
      "v": 83
    },
    {
      "midi": 62,
      "hit": false,
      "t": 72466.66666666663,
      "d": 100,
      "v": 91
    },
    {
      "midi": 67,
      "hit": false,
      "t": 72466.6666666667,
      "d": 316.6666666666715,
      "v": 73
    },
    {
      "midi": 59,
      "hit": false,
      "t": 72799.99999999996,
      "d": 83.33333333332848,
      "v": 88
    },
    {
      "midi": 55,
      "hit": false,
      "t": 72799.99999999996,
      "d": 100,
      "v": 81
    },
    {
      "midi": 62,
      "hit": false,
      "t": 72799.99999999996,
      "d": 100,
      "v": 91
    },
    {
      "midi": 74,
      "hit": false,
      "t": 72800.00000000004,
      "d": 333.3333333333285,
      "v": 73
    },
    {
      "midi": 71,
      "hit": false,
      "t": 73133.33333333337,
      "d": 616.6666666666715,
      "v": 83
    },
    {
      "midi": 67,
      "hit": false,
      "t": 73800.00000000004,
      "d": 316.6666666666715,
      "v": 73
    },
    {
      "midi": 62,
      "hit": false,
      "t": 74133.33333333339,
      "d": 350,
      "v": 79
    },
    {
      "midi": 55,
      "hit": false,
      "t": 74450.00000000006,
      "d": 2183.333333333314,
      "v": 101
    },
    {
      "midi": 55,
      "hit": false,
      "t": 74783.33333333328,
      "d": 66.66666666667152,
      "v": 58
    },
    {
      "midi": 59,
      "hit": false,
      "t": 74783.33333333328,
      "d": 66.66666666667152,
      "v": 63
    },
    {
      "midi": 62,
      "hit": false,
      "t": 74783.33333333328,
      "d": 66.66666666667152,
      "v": 70
    },
    {
      "midi": 62,
      "hit": false,
      "t": 74783.33333333339,
      "d": 1049.9999999999854,
      "v": 79
    },
    {
      "midi": 59,
      "hit": false,
      "t": 75116.66666666663,
      "d": 116.66666666667152,
      "v": 91
    },
    {
      "midi": 55,
      "hit": false,
      "t": 75116.66666666663,
      "d": 133.33333333334303,
      "v": 83
    },
    {
      "midi": 62,
      "hit": false,
      "t": 75116.66666666663,
      "d": 150.00000000001455,
      "v": 97
    },
    {
      "midi": 67,
      "hit": false,
      "t": 75116.66666666672,
      "d": 333.3333333333285,
      "v": 75
    },
    {
      "midi": 71,
      "hit": false,
      "t": 75450.00000000004,
      "d": 350,
      "v": 86
    },
    {
      "midi": 67,
      "hit": false,
      "t": 75783.33333333337,
      "d": 316.6666666666715,
      "v": 81
    },
    {
      "midi": 62,
      "hit": false,
      "t": 76116.66666666672,
      "d": 366.66666666665697,
      "v": 67
    },
    {
      "midi": 67,
      "hit": false,
      "t": 76450.00000000004,
      "d": 699.9999999999854,
      "v": 91
    },
    {
      "midi": 55,
      "hit": false,
      "t": 76783.33333333337,
      "d": 100,
      "v": 94
    },
    {
      "midi": 62,
      "hit": false,
      "t": 76783.33333333337,
      "d": 233.33333333332848,
      "v": 81
    },
    {
      "midi": 69,
      "hit": false,
      "t": 77116.6666666667,
      "d": 450,
      "v": 97
    },
    {
      "midi": 57,
      "hit": false,
      "t": 77116.6666666667,
      "d": 666.6666666666715,
      "v": 81
    },
    {
      "midi": 64,
      "hit": false,
      "t": 77116.6666666667,
      "d": 666.6666666666715,
      "v": 86
    },
    {
      "midi": 57,
      "hit": false,
      "t": 77783.33333333331,
      "d": 133.33333333332848,
      "v": 88
    },
    {
      "midi": 60,
      "hit": false,
      "t": 77783.33333333331,
      "d": 133.33333333332848,
      "v": 94
    },
    {
      "midi": 76,
      "hit": false,
      "t": 77783.33333333337,
      "d": 266.6666666666715,
      "v": 122
    },
    {
      "midi": 72,
      "hit": false,
      "t": 77783.33333333337,
      "d": 383.33333333334303,
      "v": 108
    },
    {
      "midi": 59,
      "hit": false,
      "t": 78116.66666666664,
      "d": 150,
      "v": 91
    },
    {
      "midi": 71,
      "hit": false,
      "t": 78116.66666666672,
      "d": 400,
      "v": 97
    },
    {
      "midi": 74,
      "hit": false,
      "t": 78116.66666666672,
      "d": 666.6666666666715,
      "v": 101
    },
    {
      "midi": 57,
      "hit": false,
      "t": 78783.33333333331,
      "d": 883.3333333333285,
      "v": 91
    },
    {
      "midi": 67,
      "hit": false,
      "t": 78783.33333333339,
      "d": 833.3333333333285,
      "v": 86
    },
    {
      "midi": 71,
      "hit": false,
      "t": 78783.33333333339,
      "d": 900,
      "v": 97
    },
    {
      "midi": 59,
      "hit": false,
      "t": 79783.33333333331,
      "d": 266.6666666666715,
      "v": 88
    },
    {
      "midi": 67,
      "hit": false,
      "t": 79783.33333333339,
      "d": 233.33333333332848,
      "v": 104
    },
    {
      "midi": 71,
      "hit": false,
      "t": 79783.33333333339,
      "d": 250,
      "v": 104
    },
    {
      "midi": 57,
      "hit": false,
      "t": 79783.33333333339,
      "d": 316.6666666666715,
      "v": 83
    },
    {
      "midi": 62,
      "hit": false,
      "t": 80116.66666666666,
      "d": 500,
      "v": 83
    },
    {
      "midi": 64,
      "hit": false,
      "t": 80116.66666666673,
      "d": 50,
      "v": 88
    },
    {
      "midi": 67,
      "hit": false,
      "t": 80116.66666666673,
      "d": 250,
      "v": 104
    },
    {
      "midi": 71,
      "hit": false,
      "t": 80116.66666666673,
      "d": 283.3333333333285,
      "v": 104
    },
    {
      "midi": 74,
      "hit": false,
      "t": 80116.66666666673,
      "d": 300,
      "v": 104
    },
    {
      "midi": 57,
      "hit": false,
      "t": 80766.66666666666,
      "d": 983.3333333333285,
      "v": 83
    },
    {
      "midi": 60,
      "hit": false,
      "t": 80766.66666666666,
      "d": 983.3333333333285,
      "v": 81
    },
    {
      "midi": 64,
      "hit": false,
      "t": 80766.66666666666,
      "d": 1016.666666666657,
      "v": 86
    },
    {
      "midi": 64,
      "hit": false,
      "t": 80766.66666666673,
      "d": 1316.6666666666715,
      "v": 86
    },
    {
      "midi": 57,
      "hit": false,
      "t": 80766.66666666673,
      "d": 1416.6666666666715,
      "v": 88
    },
    {
      "midi": 69,
      "hit": false,
      "t": 80766.66666666673,
      "d": 1566.6666666666715,
      "v": 91
    },
    {
      "midi": 72,
      "hit": false,
      "t": 80766.66666666673,
      "d": 1616.6666666666715,
      "v": 104
    },
    {
      "midi": 76,
      "hit": false,
      "t": 80766.66666666673,
      "d": 1633.333333333343,
      "v": 104
    },
    {
      "midi": 57,
      "hit": false,
      "t": 82433.33333333331,
      "d": 2466.6666666666715,
      "v": 83
    },
    {
      "midi": 65,
      "hit": false,
      "t": 82433.3333333334,
      "d": 2049.999999999971,
      "v": 101
    },
    {
      "midi": 60,
      "hit": false,
      "t": 82516.66666666664,
      "d": 2383.333333333343,
      "v": 83
    },
    {
      "midi": 65,
      "hit": false,
      "t": 82633.33333333331,
      "d": 2300,
      "v": 108
    },
    {
      "midi": 72,
      "hit": false,
      "t": 82766.66666666673,
      "d": 1283.333333333314,
      "v": 56
    },
    {
      "midi": 79,
      "hit": false,
      "t": 83100.00000000006,
      "d": 366.66666666665697,
      "v": 113
    },
    {
      "midi": 77,
      "hit": false,
      "t": 83433.33333333339,
      "d": 2316.666666666657,
      "v": 94
    },
    {
      "midi": 69,
      "hit": false,
      "t": 84100.00000000004,
      "d": 366.66666666665697,
      "v": 49
    },
    {
      "midi": 72,
      "hit": false,
      "t": 84433.33333333337,
      "d": 716.6666666666715,
      "v": 68
    },
    {
      "midi": 65,
      "hit": false,
      "t": 84766.6666666667,
      "d": 316.6666666666715,
      "v": 59
    },
    {
      "midi": 69,
      "hit": false,
      "t": 84766.6666666667,
      "d": 416.6666666666715,
      "v": 63
    },
    {
      "midi": 57,
      "hit": false,
      "t": 85083.33333333331,
      "d": 2416.6666666666715,
      "v": 91
    },
    {
      "midi": 62,
      "hit": false,
      "t": 85100.00000000004,
      "d": 2316.666666666686,
      "v": 94
    },
    {
      "midi": 62,
      "hit": false,
      "t": 85216.66666666664,
      "d": 2416.6666666666715,
      "v": 83
    },
    {
      "midi": 65,
      "hit": false,
      "t": 85316.66666666664,
      "d": 2166.6666666666715,
      "v": 101
    },
    {
      "midi": 65,
      "hit": false,
      "t": 85433.33333333337,
      "d": 383.33333333334303,
      "v": 86
    },
    {
      "midi": 72,
      "hit": false,
      "t": 85766.66666666672,
      "d": 400,
      "v": 97
    },
    {
      "midi": 65,
      "hit": false,
      "t": 86083.33333333339,
      "d": 383.3333333333285,
      "v": 70
    },
    {
      "midi": 71,
      "hit": false,
      "t": 86416.66666666672,
      "d": 650,
      "v": 104
    },
    {
      "midi": 65,
      "hit": false,
      "t": 86750.00000000004,
      "d": 733.3333333333576,
      "v": 81
    },
    {
      "midi": 72,
      "hit": false,
      "t": 87083.33333333339,
      "d": 316.6666666666715,
      "v": 101
    },
    {
      "midi": 69,
      "hit": false,
      "t": 87416.66666666673,
      "d": 2366.666666666657,
      "v": 97
    },
    {
      "midi": 57,
      "hit": false,
      "t": 87749.99999999999,
      "d": 2283.333333333343,
      "v": 97
    },
    {
      "midi": 60,
      "hit": false,
      "t": 87849.99999999999,
      "d": 2050,
      "v": 101
    },
    {
      "midi": 65,
      "hit": false,
      "t": 87949.99999999999,
      "d": 1966.6666666666715,
      "v": 101
    },
    {
      "midi": 72,
      "hit": false,
      "t": 88083.3333333334,
      "d": 1316.666666666657,
      "v": 94
    },
    {
      "midi": 53,
      "hit": false,
      "t": 88083.3333333334,
      "d": 1616.666666666657,
      "v": 55
    },
    {
      "midi": 79,
      "hit": false,
      "t": 88416.66666666673,
      "d": 350,
      "v": 113
    },
    {
      "midi": 65,
      "hit": false,
      "t": 88416.66666666673,
      "d": 783.3333333333285,
      "v": 77
    },
    {
      "midi": 77,
      "hit": false,
      "t": 88750.00000000006,
      "d": 1816.666666666657,
      "v": 94
    },
    {
      "midi": 65,
      "hit": false,
      "t": 89416.66666666673,
      "d": 699.9999999999854,
      "v": 62
    },
    {
      "midi": 72,
      "hit": false,
      "t": 89750.00000000006,
      "d": 716.666666666657,
      "v": 88
    },
    {
      "midi": 69,
      "hit": false,
      "t": 90083.33333333339,
      "d": 966.666666666657,
      "v": 77
    },
    {
      "midi": 53,
      "hit": false,
      "t": 90416.66666666666,
      "d": 2366.666666666657,
      "v": 91
    },
    {
      "midi": 62,
      "hit": false,
      "t": 90416.66666666672,
      "d": 2133.333333333314,
      "v": 101
    },
    {
      "midi": 57,
      "hit": false,
      "t": 90499.99999999999,
      "d": 2200,
      "v": 91
    },
    {
      "midi": 62,
      "hit": false,
      "t": 90599.99999999999,
      "d": 2350,
      "v": 113
    },
    {
      "midi": 65,
      "hit": false,
      "t": 90750.00000000004,
      "d": 333.3333333333285,
      "v": 91
    },
    {
      "midi": 72,
      "hit": false,
      "t": 91083.33333333337,
      "d": 700,
      "v": 108
    },
    {
      "midi": 71,
      "hit": false,
      "t": 91750.00000000004,
      "d": 683.3333333333139,
      "v": 101
    },
    {
      "midi": 65,
      "hit": false,
      "t": 92066.6666666667,
      "d": 366.66666666665697,
      "v": 73
    },
    {
      "midi": 72,
      "hit": false,
      "t": 92400.00000000003,
      "d": 350,
      "v": 113
    },
    {
      "midi": 71,
      "hit": false,
      "t": 92733.33333333336,
      "d": 350.00000000001455,
      "v": 108
    },
    {
      "midi": 57,
      "hit": false,
      "t": 93049.99999999999,
      "d": 3566.666666666657,
      "v": 101
    },
    {
      "midi": 69,
      "hit": false,
      "t": 93066.6666666667,
      "d": 550,
      "v": 108
    },
    {
      "midi": 60,
      "hit": false,
      "t": 93183.33333333331,
      "d": 3433.3333333333285,
      "v": 83
    },
    {
      "midi": 64,
      "hit": false,
      "t": 93216.66666666664,
      "d": 3400,
      "v": 101
    },
    {
      "midi": 71,
      "hit": false,
      "t": 93733.33333333337,
      "d": 500,
      "v": 117
    },
    {
      "midi": 72,
      "hit": false,
      "t": 94400.00000000004,
      "d": 383.3333333333285,
      "v": 104
    },
    {
      "midi": 74,
      "hit": false,
      "t": 95066.6666666667,
      "d": 366.66666666665697,
      "v": 70
    },
    {
      "midi": 64,
      "hit": false,
      "t": 95400.00000000003,
      "d": 366.66666666665697,
      "v": 70
    },
    {
      "midi": 76,
      "hit": false,
      "t": 95400.00000000003,
      "d": 366.66666666665697,
      "v": 70
    },
    {
      "midi": 69,
      "hit": false,
      "t": 95733.33333333336,
      "d": 200,
      "v": 73
    },
    {
      "midi": 57,
      "hit": false,
      "t": 95733.33333333336,
      "d": 1999.9999999999854,
      "v": 79
    },
    {
      "midi": 64,
      "hit": false,
      "t": 96066.66666666669,
      "d": 999.9999999999854,
      "v": 61
    },
    {
      "midi": 69,
      "hit": false,
      "t": 96400.00000000001,
      "d": 1033.3333333333285,
      "v": 59
    },
    {
      "midi": 57,
      "hit": false,
      "t": 96733.33333333331,
      "d": 150,
      "v": 70
    },
    {
      "midi": 60,
      "hit": false,
      "t": 96733.33333333331,
      "d": 150,
      "v": 81
    },
    {
      "midi": 64,
      "hit": false,
      "t": 96733.33333333331,
      "d": 166.66666666667152,
      "v": 70
    },
    {
      "midi": 72,
      "hit": false,
      "t": 96733.33333333334,
      "d": 400,
      "v": 64
    },
    {
      "midi": 76,
      "hit": false,
      "t": 97066.66666666667,
      "d": 666.6666666666715,
      "v": 68
    },
    {
      "midi": 64,
      "hit": false,
      "t": 97400.00000000001,
      "d": 650,
      "v": 63
    },
    {
      "midi": 57,
      "hit": false,
      "t": 97733.33333333331,
      "d": 133.33333333332848,
      "v": 81
    },
    {
      "midi": 60,
      "hit": false,
      "t": 97733.33333333331,
      "d": 133.33333333332848,
      "v": 83
    },
    {
      "midi": 64,
      "hit": false,
      "t": 97733.33333333331,
      "d": 150,
      "v": 77
    },
    {
      "midi": 72,
      "hit": false,
      "t": 97733.33333333334,
      "d": 350,
      "v": 91
    },
    {
      "midi": 57,
      "hit": false,
      "t": 98050.00000000001,
      "d": 183.33333333332848,
      "v": 83
    },
    {
      "midi": 69,
      "hit": false,
      "t": 98050.00000000001,
      "d": 350,
      "v": 63
    },
    {
      "midi": 57,
      "hit": false,
      "t": 98366.66666666664,
      "d": 2183.333333333314,
      "v": 88
    },
    {
      "midi": 81,
      "hit": false,
      "t": 98383.33333333334,
      "d": 366.6666666666715,
      "v": 108
    },
    {
      "midi": 65,
      "hit": false,
      "t": 98383.33333333334,
      "d": 1433.3333333333285,
      "v": 97
    },
    {
      "midi": 60,
      "hit": false,
      "t": 98449.99999999997,
      "d": 2066.666666666657,
      "v": 91
    },
    {
      "midi": 65,
      "hit": false,
      "t": 98533.3333333333,
      "d": 1983.3333333333285,
      "v": 108
    },
    {
      "midi": 72,
      "hit": false,
      "t": 98716.66666666669,
      "d": 1866.666666666657,
      "v": 73
    },
    {
      "midi": 79,
      "hit": false,
      "t": 99050.00000000001,
      "d": 366.66666666665697,
      "v": 94
    },
    {
      "midi": 69,
      "hit": false,
      "t": 99050.00000000001,
      "d": 1666.666666666657,
      "v": 70
    },
    {
      "midi": 77,
      "hit": false,
      "t": 99383.33333333334,
      "d": 1366.666666666657,
      "v": 94
    },
    {
      "midi": 65,
      "hit": false,
      "t": 100716.66666666667,
      "d": 350,
      "v": 91
    },
    {
      "midi": 69,
      "hit": false,
      "t": 100883.33333333333,
      "d": 400.00000000001455,
      "v": 81
    },
    {
      "midi": 74,
      "hit": false,
      "t": 101050,
      "d": 733.333333333343,
      "v": 97
    },
    {
      "midi": 62,
      "hit": false,
      "t": 101050,
      "d": 2383.3333333333285,
      "v": 101
    },
    {
      "midi": 53,
      "hit": false,
      "t": 101066.66666666663,
      "d": 2083.3333333333285,
      "v": 101
    },
    {
      "midi": 57,
      "hit": false,
      "t": 101166.66666666663,
      "d": 2016.666666666657,
      "v": 101
    },
    {
      "midi": 62,
      "hit": false,
      "t": 101299.99999999996,
      "d": 1883.3333333333285,
      "v": 108
    },
    {
      "midi": 65,
      "hit": false,
      "t": 101383.33333333334,
      "d": 416.6666666666715,
      "v": 86
    },
    {
      "midi": 72,
      "hit": false,
      "t": 101716.66666666667,
      "d": 666.6666666666715,
      "v": 91
    },
    {
      "midi": 65,
      "hit": false,
      "t": 102050.00000000001,
      "d": 333.3333333333285,
      "v": 68
    },
    {
      "midi": 71,
      "hit": false,
      "t": 102383.33333333334,
      "d": 666.666666666657,
      "v": 97
    },
    {
      "midi": 65,
      "hit": false,
      "t": 102716.66666666667,
      "d": 333.3333333333285,
      "v": 70
    },
    {
      "midi": 72,
      "hit": false,
      "t": 103050,
      "d": 666.6666666666715,
      "v": 88
    },
    {
      "midi": 65,
      "hit": false,
      "t": 103383.33333333333,
      "d": 166.66666666667152,
      "v": 75
    },
    {
      "midi": 57,
      "hit": false,
      "t": 103699.99999999996,
      "d": 2133.3333333333285,
      "v": 88
    },
    {
      "midi": 60,
      "hit": false,
      "t": 103716.66666666667,
      "d": 2066.6666666666424,
      "v": 94
    },
    {
      "midi": 60,
      "hit": false,
      "t": 103783.33333333328,
      "d": 2000,
      "v": 94
    },
    {
      "midi": 65,
      "hit": false,
      "t": 103883.33333333328,
      "d": 1900,
      "v": 108
    },
    {
      "midi": 72,
      "hit": false,
      "t": 104033.33333333334,
      "d": 1366.6666666666424,
      "v": 86
    },
    {
      "midi": 69,
      "hit": false,
      "t": 104033.33333333334,
      "d": 1849.999999999971,
      "v": 79
    },
    {
      "midi": 79,
      "hit": false,
      "t": 104366.66666666667,
      "d": 366.66666666665697,
      "v": 104
    },
    {
      "midi": 77,
      "hit": false,
      "t": 104700,
      "d": 1616.6666666666424,
      "v": 97
    },
    {
      "midi": 65,
      "hit": false,
      "t": 105366.66666666666,
      "d": 749.9999999999854,
      "v": 79
    },
    {
      "midi": 72,
      "hit": false,
      "t": 105699.99999999999,
      "d": 549.9999999999854,
      "v": 68
    },
    {
      "midi": 60,
      "hit": false,
      "t": 106033.33333333331,
      "d": 133.33333333332848,
      "v": 68
    },
    {
      "midi": 69,
      "hit": false,
      "t": 106199.99999999997,
      "d": 416.6666666666715,
      "v": 73
    },
    {
      "midi": 53,
      "hit": false,
      "t": 106349.99999999996,
      "d": 2216.666666666657,
      "v": 88
    },
    {
      "midi": 74,
      "hit": false,
      "t": 106366.66666666664,
      "d": 683.3333333333285,
      "v": 83
    },
    {
      "midi": 62,
      "hit": false,
      "t": 106366.66666666664,
      "d": 2383.3333333333285,
      "v": 97
    },
    {
      "midi": 57,
      "hit": false,
      "t": 106483.33333333328,
      "d": 2166.666666666657,
      "v": 77
    },
    {
      "midi": 62,
      "hit": false,
      "t": 106566.66666666661,
      "d": 2383.3333333333285,
      "v": 108
    },
    {
      "midi": 65,
      "hit": false,
      "t": 106699.99999999997,
      "d": 416.6666666666715,
      "v": 73
    },
    {
      "midi": 72,
      "hit": false,
      "t": 107033.3333333333,
      "d": 700,
      "v": 88
    },
    {
      "midi": 65,
      "hit": false,
      "t": 107366.66666666664,
      "d": 366.66666666665697,
      "v": 79
    },
    {
      "midi": 71,
      "hit": false,
      "t": 107699.99999999997,
      "d": 683.3333333333285,
      "v": 91
    },
    {
      "midi": 65,
      "hit": false,
      "t": 108033.3333333333,
      "d": 400,
      "v": 75
    },
    {
      "midi": 72,
      "hit": false,
      "t": 108366.66666666663,
      "d": 333.33333333334303,
      "v": 94
    },
    {
      "midi": 69,
      "hit": false,
      "t": 108699.99999999997,
      "d": 250,
      "v": 83
    },
    {
      "midi": 57,
      "hit": false,
      "t": 109033.33333333327,
      "d": 4083.333333333343,
      "v": 88
    },
    {
      "midi": 69,
      "hit": false,
      "t": 109033.3333333333,
      "d": 716.666666666657,
      "v": 108
    },
    {
      "midi": 60,
      "hit": false,
      "t": 109133.33333333327,
      "d": 3966.6666666666715,
      "v": 79
    },
    {
      "midi": 64,
      "hit": false,
      "t": 109199.99999999994,
      "d": 3916.6666666666715,
      "v": 101
    },
    {
      "midi": 64,
      "hit": false,
      "t": 109366.66666666663,
      "d": 366.66666666665697,
      "v": 67
    },
    {
      "midi": 71,
      "hit": false,
      "t": 109699.99999999996,
      "d": 683.3333333333285,
      "v": 94
    },
    {
      "midi": 64,
      "hit": false,
      "t": 110016.66666666663,
      "d": 416.66666666665697,
      "v": 70
    },
    {
      "midi": 72,
      "hit": false,
      "t": 110349.99999999996,
      "d": 700,
      "v": 113
    },
    {
      "midi": 64,
      "hit": false,
      "t": 110683.33333333328,
      "d": 350,
      "v": 75
    },
    {
      "midi": 74,
      "hit": false,
      "t": 111016.66666666661,
      "d": 316.6666666666715,
      "v": 113
    },
    {
      "midi": 64,
      "hit": false,
      "t": 111349.99999999996,
      "d": 316.6666666666715,
      "v": 81
    },
    {
      "midi": 76,
      "hit": false,
      "t": 111683.3333333333,
      "d": 316.6666666666715,
      "v": 113
    },
    {
      "midi": 64,
      "hit": false,
      "t": 112016.66666666664,
      "d": 250,
      "v": 79
    },
    {
      "midi": 77,
      "hit": false,
      "t": 112349.99999999997,
      "d": 533.3333333333285,
      "v": 104
    },
    {
      "midi": 69,
      "hit": false,
      "t": 112683.3333333333,
      "d": 283.3333333333285,
      "v": 101
    },
    {
      "midi": 79,
      "hit": false,
      "t": 113016.66666666663,
      "d": 316.6666666666715,
      "v": 113
    },
    {
      "midi": 67,
      "hit": false,
      "t": 113349.99999999997,
      "d": 583.3333333333285,
      "v": 79
    },
    {
      "midi": 81,
      "hit": false,
      "t": 113683.3333333333,
      "d": 566.6666666666715,
      "v": 122
    },
    {
      "midi": 72,
      "hit": false,
      "t": 114349.99999999997,
      "d": 250,
      "v": 94
    },
    {
      "midi": 81,
      "hit": false,
      "t": 114349.99999999997,
      "d": 600,
      "v": 101
    },
    {
      "midi": 57,
      "hit": false,
      "t": 114349.99999999997,
      "d": 2016.6666666666715,
      "v": 101
    },
    {
      "midi": 60,
      "hit": false,
      "t": 114683.33333333328,
      "d": 66.66666666667152,
      "v": 70
    },
    {
      "midi": 64,
      "hit": false,
      "t": 114683.33333333328,
      "d": 66.66666666667152,
      "v": 81
    },
    {
      "midi": 57,
      "hit": false,
      "t": 114683.33333333328,
      "d": 83.33333333334303,
      "v": 70
    },
    {
      "midi": 64,
      "hit": false,
      "t": 114683.3333333333,
      "d": 950,
      "v": 101
    },
    {
      "midi": 60,
      "hit": false,
      "t": 115016.66666666663,
      "d": 100,
      "v": 97
    },
    {
      "midi": 64,
      "hit": false,
      "t": 115016.66666666663,
      "d": 116.66666666667152,
      "v": 97
    },
    {
      "midi": 57,
      "hit": false,
      "t": 115016.66666666663,
      "d": 133.33333333334303,
      "v": 91
    },
    {
      "midi": 69,
      "hit": false,
      "t": 115016.66666666664,
      "d": 333.3333333333285,
      "v": 75
    },
    {
      "midi": 72,
      "hit": false,
      "t": 115349.99999999997,
      "d": 383.3333333333285,
      "v": 97
    },
    {
      "midi": 71,
      "hit": false,
      "t": 115683.3333333333,
      "d": 633.333333333343,
      "v": 113
    },
    {
      "midi": 64,
      "hit": false,
      "t": 115999.99999999997,
      "d": 300,
      "v": 54
    },
    {
      "midi": 67,
      "hit": false,
      "t": 116333.33333333331,
      "d": 333.3333333333285,
      "v": 94
    },
    {
      "midi": 64,
      "hit": false,
      "t": 116666.66666666664,
      "d": 316.6666666666715,
      "v": 77
    },
    {
      "midi": 69,
      "hit": false,
      "t": 116999.99999999999,
      "d": 316.6666666666715,
      "v": 88
    },
    {
      "midi": 57,
      "hit": false,
      "t": 116999.99999999999,
      "d": 2050,
      "v": 88
    },
    {
      "midi": 60,
      "hit": false,
      "t": 117333.3333333333,
      "d": 66.66666666667152,
      "v": 68
    },
    {
      "midi": 64,
      "hit": false,
      "t": 117333.3333333333,
      "d": 66.66666666667152,
      "v": 75
    },
    {
      "midi": 57,
      "hit": false,
      "t": 117333.3333333333,
      "d": 83.33333333334303,
      "v": 63
    },
    {
      "midi": 64,
      "hit": false,
      "t": 117333.33333333333,
      "d": 883.3333333333285,
      "v": 77
    },
    {
      "midi": 57,
      "hit": false,
      "t": 117666.66666666664,
      "d": 133.33333333332848,
      "v": 86
    },
    {
      "midi": 60,
      "hit": false,
      "t": 117666.66666666664,
      "d": 133.33333333332848,
      "v": 97
    },
    {
      "midi": 64,
      "hit": false,
      "t": 117666.66666666664,
      "d": 133.33333333332848,
      "v": 94
    },
    {
      "midi": 69,
      "hit": false,
      "t": 117666.66666666666,
      "d": 283.3333333333285,
      "v": 73
    },
    {
      "midi": 57,
      "hit": false,
      "t": 117999.99999999997,
      "d": 116.66666666667152,
      "v": 86
    },
    {
      "midi": 60,
      "hit": false,
      "t": 117999.99999999997,
      "d": 116.66666666667152,
      "v": 91
    },
    {
      "midi": 64,
      "hit": false,
      "t": 117999.99999999997,
      "d": 116.66666666667152,
      "v": 91
    },
    {
      "midi": 72,
      "hit": false,
      "t": 117999.99999999999,
      "d": 366.6666666666715,
      "v": 101
    },
    {
      "midi": 71,
      "hit": false,
      "t": 118333.33333333333,
      "d": 666.666666666657,
      "v": 104
    },
    {
      "midi": 64,
      "hit": false,
      "t": 118666.66666666666,
      "d": 333.3333333333285,
      "v": 57
    },
    {
      "midi": 67,
      "hit": false,
      "t": 118999.99999999999,
      "d": 316.6666666666715,
      "v": 88
    },
    {
      "midi": 64,
      "hit": false,
      "t": 119333.33333333333,
      "d": 333.3333333333285,
      "v": 73
    },
    {
      "midi": 69,
      "hit": false,
      "t": 119666.66666666666,
      "d": 333.3333333333285,
      "v": 91
    },
    {
      "midi": 57,
      "hit": false,
      "t": 119666.66666666666,
      "d": 1983.333333333314,
      "v": 88
    },
    {
      "midi": 57,
      "hit": false,
      "t": 119999.99999999997,
      "d": 83.33333333332848,
      "v": 67
    },
    {
      "midi": 60,
      "hit": false,
      "t": 119999.99999999997,
      "d": 83.33333333332848,
      "v": 66
    },
    {
      "midi": 64,
      "hit": false,
      "t": 119999.99999999997,
      "d": 83.33333333332848,
      "v": 79
    },
    {
      "midi": 64,
      "hit": false,
      "t": 119999.99999999999,
      "d": 1050,
      "v": 68
    },
    {
      "midi": 60,
      "hit": false,
      "t": 120333.3333333333,
      "d": 116.66666666667152,
      "v": 108
    },
    {
      "midi": 57,
      "hit": false,
      "t": 120333.3333333333,
      "d": 150,
      "v": 104
    },
    {
      "midi": 64,
      "hit": false,
      "t": 120333.3333333333,
      "d": 150,
      "v": 108
    },
    {
      "midi": 69,
      "hit": false,
      "t": 120333.33333333331,
      "d": 266.6666666666715,
      "v": 75
    },
    {
      "midi": 72,
      "hit": false,
      "t": 120666.66666666666,
      "d": 366.66666666665697,
      "v": 86
    },
    {
      "midi": 71,
      "hit": false,
      "t": 120999.99999999999,
      "d": 649.9999999999854,
      "v": 101
    },
    {
      "midi": 64,
      "hit": false,
      "t": 121333.33333333331,
      "d": 283.3333333333285,
      "v": 73
    },
    {
      "midi": 69,
      "hit": false,
      "t": 121666.66666666664,
      "d": 450,
      "v": 91
    },
    {
      "midi": 67,
      "hit": false,
      "t": 122316.66666666664,
      "d": 633.3333333333285,
      "v": 86
    },
    {
      "midi": 55,
      "hit": false,
      "t": 122316.66666666664,
      "d": 2316.666666666657,
      "v": 88
    },
    {
      "midi": 55,
      "hit": false,
      "t": 122649.99999999997,
      "d": 66.66666666667152,
      "v": 62
    },
    {
      "midi": 59,
      "hit": false,
      "t": 122649.99999999997,
      "d": 66.66666666667152,
      "v": 66
    },
    {
      "midi": 62,
      "hit": false,
      "t": 122649.99999999997,
      "d": 66.66666666667152,
      "v": 68
    },
    {
      "midi": 62,
      "hit": false,
      "t": 122649.99999999997,
      "d": 1316.666666666657,
      "v": 94
    },
    {
      "midi": 67,
      "hit": false,
      "t": 122983.3333333333,
      "d": 333.3333333333285,
      "v": 67
    },
    {
      "midi": 55,
      "hit": false,
      "t": 122983.33333333331,
      "d": 166.66666666667152,
      "v": 91
    },
    {
      "midi": 59,
      "hit": false,
      "t": 122983.33333333331,
      "d": 166.66666666667152,
      "v": 97
    },
    {
      "midi": 62,
      "hit": false,
      "t": 122983.33333333331,
      "d": 166.66666666667152,
      "v": 97
    },
    {
      "midi": 71,
      "hit": false,
      "t": 123316.66666666663,
      "d": 2316.6666666666715,
      "v": 91
    },
    {
      "midi": 55,
      "hit": false,
      "t": 123316.66666666666,
      "d": 116.66666666667152,
      "v": 75
    },
    {
      "midi": 59,
      "hit": false,
      "t": 123316.66666666666,
      "d": 116.66666666667152,
      "v": 83
    },
    {
      "midi": 62,
      "hit": false,
      "t": 123316.66666666666,
      "d": 116.66666666667152,
      "v": 88
    },
    {
      "midi": 67,
      "hit": false,
      "t": 123983.3333333333,
      "d": 300,
      "v": 81
    },
    {
      "midi": 62,
      "hit": false,
      "t": 124316.66666666663,
      "d": 116.66666666667152,
      "v": 83
    },
    {
      "midi": 62,
      "hit": false,
      "t": 124649.99999999997,
      "d": 333.3333333333285,
      "v": 66
    },
    {
      "midi": 55,
      "hit": false,
      "t": 124983.3333333333,
      "d": 1683.333333333343,
      "v": 91
    },
    {
      "midi": 62,
      "hit": false,
      "t": 125316.66666666663,
      "d": 1333.333333333343,
      "v": 81
    },
    {
      "midi": 55,
      "hit": false,
      "t": 125316.66666666666,
      "d": 66.66666666667152,
      "v": 70
    },
    {
      "midi": 59,
      "hit": false,
      "t": 125316.66666666666,
      "d": 66.66666666667152,
      "v": 73
    },
    {
      "midi": 62,
      "hit": false,
      "t": 125316.66666666666,
      "d": 83.33333333334303,
      "v": 79
    },
    {
      "midi": 67,
      "hit": false,
      "t": 125649.99999999997,
      "d": 433.3333333333285,
      "v": 71
    },
    {
      "midi": 55,
      "hit": false,
      "t": 125650,
      "d": 133.33333333332848,
      "v": 83
    },
    {
      "midi": 59,
      "hit": false,
      "t": 125650,
      "d": 133.33333333332848,
      "v": 94
    },
    {
      "midi": 62,
      "hit": false,
      "t": 125650,
      "d": 133.33333333332848,
      "v": 91
    },
    {
      "midi": 71,
      "hit": false,
      "t": 125983.3333333333,
      "d": 1300,
      "v": 86
    },
    {
      "midi": 67,
      "hit": false,
      "t": 126649.99999999997,
      "d": 300,
      "v": 73
    },
    {
      "midi": 62,
      "hit": false,
      "t": 126983.3333333333,
      "d": 283.3333333333285,
      "v": 81
    },
    {
      "midi": 55,
      "hit": false,
      "t": 127649.99999999997,
      "d": 2149.9999999999854,
      "v": 113
    },
    {
      "midi": 62,
      "hit": false,
      "t": 127966.66666666664,
      "d": 733.3333333333285,
      "v": 91
    },
    {
      "midi": 55,
      "hit": false,
      "t": 127966.66666666666,
      "d": 66.66666666667152,
      "v": 59
    },
    {
      "midi": 59,
      "hit": false,
      "t": 127966.66666666666,
      "d": 66.66666666667152,
      "v": 64
    },
    {
      "midi": 62,
      "hit": false,
      "t": 127966.66666666666,
      "d": 83.33333333334303,
      "v": 79
    },
    {
      "midi": 67,
      "hit": false,
      "t": 128299.99999999997,
      "d": 1066.666666666657,
      "v": 77
    },
    {
      "midi": 59,
      "hit": false,
      "t": 128300,
      "d": 116.66666666667152,
      "v": 94
    },
    {
      "midi": 55,
      "hit": false,
      "t": 128300,
      "d": 133.33333333334303,
      "v": 83
    },
    {
      "midi": 62,
      "hit": false,
      "t": 128300,
      "d": 133.33333333334303,
      "v": 91
    },
    {
      "midi": 71,
      "hit": false,
      "t": 128633.3333333333,
      "d": 1016.666666666657,
      "v": 97
    },
    {
      "midi": 59,
      "hit": false,
      "t": 128633.33333333334,
      "d": 116.66666666667152,
      "v": 91
    },
    {
      "midi": 55,
      "hit": false,
      "t": 128633.33333333334,
      "d": 133.33333333334303,
      "v": 75
    },
    {
      "midi": 62,
      "hit": false,
      "t": 128633.33333333334,
      "d": 133.33333333334303,
      "v": 91
    },
    {
      "midi": 62,
      "hit": false,
      "t": 128983.3333333333,
      "d": 616.666666666657,
      "v": 81
    },
    {
      "midi": 67,
      "hit": false,
      "t": 129616.66666666663,
      "d": 333.3333333333285,
      "v": 101
    },
    {
      "midi": 62,
      "hit": false,
      "t": 129949.99999999996,
      "d": 316.6666666666715,
      "v": 81
    },
    {
      "midi": 55,
      "hit": false,
      "t": 130283.3333333333,
      "d": 1916.6666666666715,
      "v": 97
    },
    {
      "midi": 62,
      "hit": false,
      "t": 130616.66666666663,
      "d": 700,
      "v": 79
    },
    {
      "midi": 59,
      "hit": false,
      "t": 130633.33333333336,
      "d": 50,
      "v": 73
    },
    {
      "midi": 55,
      "hit": false,
      "t": 130633.33333333336,
      "d": 83.33333333332848,
      "v": 71
    },
    {
      "midi": 62,
      "hit": false,
      "t": 130633.33333333336,
      "d": 83.33333333332848,
      "v": 86
    },
    {
      "midi": 67,
      "hit": false,
      "t": 130949.99999999996,
      "d": 316.6666666666715,
      "v": 67
    },
    {
      "midi": 62,
      "hit": false,
      "t": 130966.66666666669,
      "d": 166.66666666665697,
      "v": 101
    },
    {
      "midi": 55,
      "hit": false,
      "t": 130966.66666666669,
      "d": 183.33333333331393,
      "v": 94
    },
    {
      "midi": 59,
      "hit": false,
      "t": 130966.66666666669,
      "d": 183.33333333331393,
      "v": 101
    },
    {
      "midi": 71,
      "hit": false,
      "t": 131283.33333333328,
      "d": 666.6666666666861,
      "v": 101
    },
    {
      "midi": 67,
      "hit": false,
      "t": 131949.99999999997,
      "d": 316.66666666665697,
      "v": 91
    },
    {
      "midi": 62,
      "hit": false,
      "t": 132283.33333333328,
      "d": 566.666666666657,
      "v": 91
    },
    {
      "midi": 55,
      "hit": false,
      "t": 132599.99999999994,
      "d": 166.66666666665697,
      "v": 97
    },
    {
      "midi": 57,
      "hit": false,
      "t": 132933.33333333328,
      "d": 2049.999999999971,
      "v": 104
    },
    {
      "midi": 64,
      "hit": false,
      "t": 133266.66666666663,
      "d": 1033.333333333314,
      "v": 64
    },
    {
      "midi": 64,
      "hit": false,
      "t": 133300,
      "d": 50,
      "v": 73
    },
    {
      "midi": 60,
      "hit": false,
      "t": 133300,
      "d": 66.66666666665697,
      "v": 60
    },
    {
      "midi": 57,
      "hit": false,
      "t": 133300,
      "d": 83.33333333331393,
      "v": 59
    },
    {
      "midi": 69,
      "hit": false,
      "t": 133616.66666666663,
      "d": 316.66666666665697,
      "v": 63
    },
    {
      "midi": 64,
      "hit": false,
      "t": 133616.66666666666,
      "d": 83.33333333334303,
      "v": 75
    },
    {
      "midi": 57,
      "hit": false,
      "t": 133616.66666666666,
      "d": 100,
      "v": 58
    },
    {
      "midi": 60,
      "hit": false,
      "t": 133616.66666666666,
      "d": 100,
      "v": 71
    },
    {
      "midi": 72,
      "hit": false,
      "t": 133949.99999999994,
      "d": 383.33333333334303,
      "v": 91
    },
    {
      "midi": 60,
      "hit": false,
      "t": 133950,
      "d": 183.33333333334303,
      "v": 97
    },
    {
      "midi": 64,
      "hit": false,
      "t": 133950,
      "d": 183.33333333334303,
      "v": 97
    },
    {
      "midi": 57,
      "hit": false,
      "t": 133950,
      "d": 200,
      "v": 91
    },
    {
      "midi": 71,
      "hit": false,
      "t": 134283.33333333328,
      "d": 683.3333333333139,
      "v": 104
    },
    {
      "midi": 64,
      "hit": false,
      "t": 134549.99999999994,
      "d": 366.66666666665697,
      "v": 63
    },
    {
      "midi": 69,
      "hit": false,
      "t": 134949.99999999994,
      "d": 316.66666666665697,
      "v": 101
    },
    {
      "midi": 64,
      "hit": false,
      "t": 135283.33333333326,
      "d": 333.33333333334303,
      "v": 81
    },
    {
      "midi": 57,
      "hit": false,
      "t": 135616.6666666666,
      "d": 2083.333333333343,
      "v": 101
    },
    {
      "midi": 64,
      "hit": false,
      "t": 135949.99999999994,
      "d": 466.66666666668607,
      "v": 75
    },
    {
      "midi": 64,
      "hit": false,
      "t": 135950,
      "d": 66.66666666665697,
      "v": 77
    },
    {
      "midi": 57,
      "hit": false,
      "t": 135950,
      "d": 83.33333333331393,
      "v": 68
    },
    {
      "midi": 60,
      "hit": false,
      "t": 135950,
      "d": 83.33333333331393,
      "v": 67
    },
    {
      "midi": 69,
      "hit": false,
      "t": 136283.33333333328,
      "d": 550,
      "v": 79
    },
    {
      "midi": 60,
      "hit": false,
      "t": 136283.3333333333,
      "d": 183.33333333334303,
      "v": 97
    },
    {
      "midi": 57,
      "hit": false,
      "t": 136283.3333333333,
      "d": 200,
      "v": 91
    },
    {
      "midi": 64,
      "hit": false,
      "t": 136283.3333333333,
      "d": 200,
      "v": 97
    },
    {
      "midi": 64,
      "hit": false,
      "t": 136616.66666666663,
      "d": 416.66666666665697,
      "v": 61
    },
    {
      "midi": 71,
      "hit": false,
      "t": 136949.99999999994,
      "d": 666.6666666666861,
      "v": 94
    },
    {
      "midi": 64,
      "hit": false,
      "t": 137283.33333333328,
      "d": 350,
      "v": 64
    },
    {
      "midi": 72,
      "hit": false,
      "t": 137616.66666666663,
      "d": 1266.666666666657,
      "v": 94
    },
    {
      "midi": 64,
      "hit": false,
      "t": 137949.99999999994,
      "d": 300,
      "v": 73
    },
    {
      "midi": 57,
      "hit": false,
      "t": 138283.33333333328,
      "d": 2050.000000000029,
      "v": 97
    },
    {
      "midi": 64,
      "hit": false,
      "t": 138616.66666666663,
      "d": 983.3333333333139,
      "v": 75
    },
    {
      "midi": 60,
      "hit": false,
      "t": 138616.66666666666,
      "d": 66.66666666665697,
      "v": 58
    },
    {
      "midi": 64,
      "hit": false,
      "t": 138616.66666666666,
      "d": 66.66666666665697,
      "v": 68
    },
    {
      "midi": 57,
      "hit": false,
      "t": 138616.66666666666,
      "d": 83.33333333331393,
      "v": 57
    },
    {
      "midi": 69,
      "hit": false,
      "t": 138949.99999999994,
      "d": 283.33333333334303,
      "v": 61
    },
    {
      "midi": 57,
      "hit": false,
      "t": 138949.99999999997,
      "d": 233.33333333334303,
      "v": 91
    },
    {
      "midi": 60,
      "hit": false,
      "t": 138949.99999999997,
      "d": 233.33333333334303,
      "v": 94
    },
    {
      "midi": 64,
      "hit": false,
      "t": 138949.99999999997,
      "d": 233.33333333334303,
      "v": 97
    },
    {
      "midi": 72,
      "hit": false,
      "t": 139283.33333333328,
      "d": 350,
      "v": 81
    },
    {
      "midi": 60,
      "hit": false,
      "t": 139283.3333333333,
      "d": 83.33333333334303,
      "v": 71
    },
    {
      "midi": 57,
      "hit": false,
      "t": 139283.3333333333,
      "d": 100,
      "v": 63
    },
    {
      "midi": 64,
      "hit": false,
      "t": 139283.3333333333,
      "d": 116.66666666665697,
      "v": 81
    },
    {
      "midi": 71,
      "hit": false,
      "t": 139599.99999999994,
      "d": 700.0000000000291,
      "v": 101
    },
    {
      "midi": 64,
      "hit": false,
      "t": 139933.33333333328,
      "d": 416.66666666668607,
      "v": 57
    },
    {
      "midi": 69,
      "hit": false,
      "t": 140266.66666666663,
      "d": 316.66666666668607,
      "v": 91
    },
    {
      "midi": 64,
      "hit": false,
      "t": 140599.99999999997,
      "d": 300,
      "v": 83
    },
    {
      "midi": 57,
      "hit": false,
      "t": 140933.3333333333,
      "d": 2100.000000000029,
      "v": 101
    },
    {
      "midi": 60,
      "hit": false,
      "t": 141266.66666666663,
      "d": 66.66666666665697,
      "v": 61
    },
    {
      "midi": 64,
      "hit": false,
      "t": 141266.66666666663,
      "d": 66.66666666665697,
      "v": 70
    },
    {
      "midi": 57,
      "hit": false,
      "t": 141266.66666666663,
      "d": 83.33333333331393,
      "v": 62
    },
    {
      "midi": 64,
      "hit": false,
      "t": 141266.66666666666,
      "d": 366.66666666668607,
      "v": 79
    },
    {
      "midi": 60,
      "hit": false,
      "t": 141599.99999999994,
      "d": 200,
      "v": 88
    },
    {
      "midi": 57,
      "hit": false,
      "t": 141599.99999999994,
      "d": 216.66666666665697,
      "v": 83
    },
    {
      "midi": 64,
      "hit": false,
      "t": 141599.99999999994,
      "d": 216.66666666665697,
      "v": 94
    },
    {
      "midi": 69,
      "hit": false,
      "t": 141600,
      "d": 633.333333333343,
      "v": 88
    },
    {
      "midi": 64,
      "hit": false,
      "t": 141933.33333333334,
      "d": 400,
      "v": 63
    },
    {
      "midi": 71,
      "hit": false,
      "t": 142266.6666666667,
      "d": 700,
      "v": 94
    },
    {
      "midi": 64,
      "hit": false,
      "t": 142600,
      "d": 383.33333333334303,
      "v": 63
    },
    {
      "midi": 72,
      "hit": false,
      "t": 142933.33333333334,
      "d": 683.3333333333139,
      "v": 94
    },
    {
      "midi": 57,
      "hit": false,
      "t": 143266.6666666667,
      "d": 100,
      "v": 88
    },
    {
      "midi": 64,
      "hit": false,
      "t": 143266.6666666667,
      "d": 316.66666666665697,
      "v": 73
    },
    {
      "midi": 71,
      "hit": false,
      "t": 143600,
      "d": 633.3333333333139,
      "v": 91
    },
    {
      "midi": 55,
      "hit": false,
      "t": 143600,
      "d": 1666.666666666657,
      "v": 101
    },
    {
      "midi": 55,
      "hit": false,
      "t": 143933.33333333326,
      "d": 83.33333333334303,
      "v": 62
    },
    {
      "midi": 59,
      "hit": false,
      "t": 143933.33333333326,
      "d": 83.33333333334303,
      "v": 66
    },
    {
      "midi": 62,
      "hit": false,
      "t": 143933.33333333326,
      "d": 83.33333333334303,
      "v": 70
    },
    {
      "midi": 62,
      "hit": false,
      "t": 143933.3333333333,
      "d": 1250,
      "v": 86
    },
    {
      "midi": 59,
      "hit": false,
      "t": 144266.6666666666,
      "d": 200,
      "v": 97
    },
    {
      "midi": 55,
      "hit": false,
      "t": 144266.6666666666,
      "d": 216.66666666665697,
      "v": 94
    },
    {
      "midi": 62,
      "hit": false,
      "t": 144266.6666666666,
      "d": 216.66666666665697,
      "v": 97
    },
    {
      "midi": 67,
      "hit": false,
      "t": 144266.66666666666,
      "d": 316.66666666665697,
      "v": 75
    },
    {
      "midi": 59,
      "hit": false,
      "t": 144599.9999999999,
      "d": 83.33333333334303,
      "v": 77
    },
    {
      "midi": 62,
      "hit": false,
      "t": 144599.9999999999,
      "d": 83.33333333334303,
      "v": 86
    },
    {
      "midi": 55,
      "hit": false,
      "t": 144599.9999999999,
      "d": 100,
      "v": 68
    },
    {
      "midi": 71,
      "hit": false,
      "t": 144599.99999999997,
      "d": 666.6666666666861,
      "v": 83
    },
    {
      "midi": 67,
      "hit": false,
      "t": 145266.66666666666,
      "d": 300,
      "v": 97
    },
    {
      "midi": 62,
      "hit": false,
      "t": 145583.3333333333,
      "d": 333.33333333334303,
      "v": 86
    },
    {
      "midi": 55,
      "hit": false,
      "t": 146250,
      "d": 2300.000000000029,
      "v": 101
    },
    {
      "midi": 55,
      "hit": false,
      "t": 146583.33333333326,
      "d": 83.33333333334303,
      "v": 57
    },
    {
      "midi": 59,
      "hit": false,
      "t": 146583.33333333326,
      "d": 83.33333333334303,
      "v": 60
    },
    {
      "midi": 62,
      "hit": false,
      "t": 146583.33333333326,
      "d": 83.33333333334303,
      "v": 68
    },
    {
      "midi": 62,
      "hit": false,
      "t": 146583.33333333334,
      "d": 1033.333333333343,
      "v": 81
    },
    {
      "midi": 59,
      "hit": false,
      "t": 146916.6666666666,
      "d": 166.66666666665697,
      "v": 88
    },
    {
      "midi": 55,
      "hit": false,
      "t": 146916.6666666666,
      "d": 183.33333333331393,
      "v": 86
    },
    {
      "midi": 62,
      "hit": false,
      "t": 146916.6666666666,
      "d": 183.33333333331393,
      "v": 94
    },
    {
      "midi": 67,
      "hit": false,
      "t": 146916.6666666667,
      "d": 316.66666666665697,
      "v": 67
    },
    {
      "midi": 71,
      "hit": false,
      "t": 147250,
      "d": 2333.333333333372,
      "v": 86
    },
    {
      "midi": 67,
      "hit": false,
      "t": 147583.33333333334,
      "d": 333.33333333334303,
      "v": 67
    },
    {
      "midi": 67,
      "hit": false,
      "t": 148250.00000000003,
      "d": 316.66666666665697,
      "v": 75
    },
    {
      "midi": 62,
      "hit": false,
      "t": 148583.33333333334,
      "d": 333.33333333334303,
      "v": 71
    },
    {
      "midi": 55,
      "hit": false,
      "t": 148916.6666666667,
      "d": 2333.3333333334012,
      "v": 101
    },
    {
      "midi": 55,
      "hit": false,
      "t": 149249.9999999999,
      "d": 66.66666666665697,
      "v": 51
    },
    {
      "midi": 59,
      "hit": false,
      "t": 149249.9999999999,
      "d": 66.66666666665697,
      "v": 54
    },
    {
      "midi": 62,
      "hit": false,
      "t": 149249.9999999999,
      "d": 66.66666666665697,
      "v": 58
    },
    {
      "midi": 62,
      "hit": false,
      "t": 149250.00000000003,
      "d": 366.66666666668607,
      "v": 75
    },
    {
      "midi": 55,
      "hit": false,
      "t": 149583.33333333323,
      "d": 200,
      "v": 88
    },
    {
      "midi": 59,
      "hit": false,
      "t": 149583.33333333323,
      "d": 200,
      "v": 94
    },
    {
      "midi": 62,
      "hit": false,
      "t": 149583.33333333323,
      "d": 200,
      "v": 97
    },
    {
      "midi": 67,
      "hit": false,
      "t": 149583.33333333337,
      "d": 666.6666666666861,
      "v": 77
    },
    {
      "midi": 59,
      "hit": false,
      "t": 149916.66666666657,
      "d": 100,
      "v": 75
    },
    {
      "midi": 62,
      "hit": false,
      "t": 149916.66666666657,
      "d": 100,
      "v": 79
    },
    {
      "midi": 55,
      "hit": false,
      "t": 149916.66666666657,
      "d": 116.66666666665697,
      "v": 63
    },
    {
      "midi": 62,
      "hit": false,
      "t": 149916.66666666672,
      "d": 333.33333333334303,
      "v": 68
    },
    {
      "midi": 71,
      "hit": false,
      "t": 150250.00000000006,
      "d": 666.6666666666861,
      "v": 101
    },
    {
      "midi": 62,
      "hit": false,
      "t": 150583.3333333334,
      "d": 333.33333333334303,
      "v": 73
    },
    {
      "midi": 67,
      "hit": false,
      "t": 150916.66666666674,
      "d": 933.333333333343,
      "v": 77
    },
    {
      "midi": 62,
      "hit": false,
      "t": 151250.0000000001,
      "d": 350,
      "v": 73
    },
    {
      "midi": 55,
      "hit": false,
      "t": 151566.66666666674,
      "d": 1050.000000000029,
      "v": 88
    },
    {
      "midi": 55,
      "hit": false,
      "t": 151899.99999999988,
      "d": 83.33333333334303,
      "v": 60
    },
    {
      "midi": 59,
      "hit": false,
      "t": 151899.99999999988,
      "d": 83.33333333334303,
      "v": 68
    },
    {
      "midi": 62,
      "hit": false,
      "t": 151899.99999999988,
      "d": 83.33333333334303,
      "v": 71
    },
    {
      "midi": 62,
      "hit": false,
      "t": 151900.0000000001,
      "d": 1066.666666666686,
      "v": 79
    },
    {
      "midi": 62,
      "hit": false,
      "t": 152233.33333333323,
      "d": 166.66666666665697,
      "v": 91
    },
    {
      "midi": 55,
      "hit": false,
      "t": 152233.33333333323,
      "d": 183.33333333331393,
      "v": 83
    },
    {
      "midi": 59,
      "hit": false,
      "t": 152233.33333333323,
      "d": 183.33333333331393,
      "v": 91
    },
    {
      "midi": 67,
      "hit": false,
      "t": 152233.33333333343,
      "d": 366.66666666668607,
      "v": 70
    },
    {
      "midi": 71,
      "hit": false,
      "t": 152566.66666666677,
      "d": 666.666666666657,
      "v": 104
    },
    {
      "midi": 55,
      "hit": false,
      "t": 152900.00000000012,
      "d": 716.666666666657,
      "v": 68
    },
    {
      "midi": 67,
      "hit": false,
      "t": 153233.33333333343,
      "d": 300,
      "v": 86
    },
    {
      "midi": 62,
      "hit": false,
      "t": 153566.66666666677,
      "d": 616.6666666666861,
      "v": 91
    },
    {
      "midi": 55,
      "hit": false,
      "t": 153900.00000000012,
      "d": 133.33333333334303,
      "v": 101
    },
    {
      "midi": 57,
      "hit": false,
      "t": 154233.33333333346,
      "d": 2266.666666666628,
      "v": 101
    },
    {
      "midi": 57,
      "hit": false,
      "t": 154566.66666666654,
      "d": 66.66666666665697,
      "v": 56
    },
    {
      "midi": 60,
      "hit": false,
      "t": 154566.66666666654,
      "d": 66.66666666665697,
      "v": 59
    },
    {
      "midi": 64,
      "hit": false,
      "t": 154566.66666666654,
      "d": 66.66666666665697,
      "v": 61
    },
    {
      "midi": 64,
      "hit": false,
      "t": 154566.6666666668,
      "d": 983.3333333333139,
      "v": 83
    },
    {
      "midi": 57,
      "hit": false,
      "t": 154899.99999999985,
      "d": 200,
      "v": 86
    },
    {
      "midi": 60,
      "hit": false,
      "t": 154899.99999999985,
      "d": 200,
      "v": 91
    },
    {
      "midi": 64,
      "hit": false,
      "t": 154899.99999999985,
      "d": 200,
      "v": 91
    },
    {
      "midi": 69,
      "hit": false,
      "t": 154900.00000000015,
      "d": 316.66666666665697,
      "v": 94
    },
    {
      "midi": 60,
      "hit": false,
      "t": 155233.3333333332,
      "d": 150,
      "v": 81
    },
    {
      "midi": 64,
      "hit": false,
      "t": 155233.3333333332,
      "d": 150,
      "v": 88
    },
    {
      "midi": 57,
      "hit": false,
      "t": 155233.3333333332,
      "d": 166.66666666665697,
      "v": 71
    },
    {
      "midi": 72,
      "hit": false,
      "t": 155233.33333333346,
      "d": 349.9999999999709,
      "v": 101
    },
    {
      "midi": 71,
      "hit": false,
      "t": 155566.66666666677,
      "d": 716.666666666657,
      "v": 117
    },
    {
      "midi": 64,
      "hit": false,
      "t": 155900.0000000001,
      "d": 333.33333333334303,
      "v": 64
    },
    {
      "midi": 69,
      "hit": false,
      "t": 156233.33333333343,
      "d": 3183.333333333343,
      "v": 101
    },
    {
      "midi": 64,
      "hit": false,
      "t": 156566.66666666674,
      "d": 333.33333333334303,
      "v": 79
    },
    {
      "midi": 57,
      "hit": false,
      "t": 156900.0000000001,
      "d": 2316.666666666686,
      "v": 104
    },
    {
      "midi": 60,
      "hit": false,
      "t": 157233.3333333332,
      "d": 66.66666666665697,
      "v": 61
    },
    {
      "midi": 57,
      "hit": false,
      "t": 157233.3333333332,
      "d": 100,
      "v": 63
    },
    {
      "midi": 64,
      "hit": false,
      "t": 157233.3333333332,
      "d": 100,
      "v": 73
    },
    {
      "midi": 60,
      "hit": false,
      "t": 157549.99999999985,
      "d": 150,
      "v": 94
    },
    {
      "midi": 57,
      "hit": false,
      "t": 157549.99999999985,
      "d": 166.66666666665697,
      "v": 83
    },
    {
      "midi": 64,
      "hit": false,
      "t": 157549.99999999985,
      "d": 166.66666666665697,
      "v": 94
    },
    {
      "midi": 81,
      "hit": false,
      "t": 157883.33333333343,
      "d": 1616.666666666686,
      "v": 79
    },
    {
      "midi": 57,
      "hit": false,
      "t": 159550.00000000012,
      "d": 2350.000000000058,
      "v": 97
    },
    {
      "midi": 60,
      "hit": false,
      "t": 159883.33333333317,
      "d": 66.66666666665697,
      "v": 71
    },
    {
      "midi": 57,
      "hit": false,
      "t": 159883.33333333317,
      "d": 100,
      "v": 73
    },
    {
      "midi": 64,
      "hit": false,
      "t": 159883.33333333346,
      "d": 700.0000000000291,
      "v": 67
    },
    {
      "midi": 53,
      "hit": false,
      "t": 160216.6666666665,
      "d": 83.33333333334303,
      "v": 55
    },
    {
      "midi": 52,
      "hit": false,
      "t": 160216.6666666665,
      "d": 116.66666666668607,
      "v": 59
    },
    {
      "midi": 57,
      "hit": false,
      "t": 160216.6666666665,
      "d": 150.0000000000291,
      "v": 79
    },
    {
      "midi": 60,
      "hit": false,
      "t": 160216.6666666665,
      "d": 150.0000000000291,
      "v": 83
    },
    {
      "midi": 69,
      "hit": false,
      "t": 160216.6666666668,
      "d": 750.0000000000291,
      "v": 79
    },
    {
      "midi": 72,
      "hit": false,
      "t": 160550.00000000015,
      "d": 900.0000000000291,
      "v": 104
    },
    {
      "midi": 64,
      "hit": false,
      "t": 160883.3333333335,
      "d": 1316.666666666686,
      "v": 79
    },
    {
      "midi": 84,
      "hit": false,
      "t": 161216.66666666683,
      "d": 300,
      "v": 122
    },
    {
      "midi": 69,
      "hit": false,
      "t": 161550.00000000017,
      "d": 566.666666666657,
      "v": 77
    },
    {
      "midi": 83,
      "hit": false,
      "t": 161883.33333333352,
      "d": 349.9999999999709,
      "v": 117
    },
    {
      "midi": 84,
      "hit": false,
      "t": 162216.66666666683,
      "d": 966.666666666657,
      "v": 108
    },
    {
      "midi": 57,
      "hit": false,
      "t": 162216.66666666683,
      "d": 1716.6666666666279,
      "v": 94
    },
    {
      "midi": 60,
      "hit": false,
      "t": 162549.99999999988,
      "d": 66.66666666665697,
      "v": 58
    },
    {
      "midi": 64,
      "hit": false,
      "t": 162549.99999999988,
      "d": 66.66666666665697,
      "v": 68
    },
    {
      "midi": 57,
      "hit": false,
      "t": 162549.99999999988,
      "d": 83.33333333331393,
      "v": 58
    },
    {
      "midi": 64,
      "hit": false,
      "t": 162550.00000000015,
      "d": 966.6666666666861,
      "v": 79
    },
    {
      "midi": 64,
      "hit": false,
      "t": 162883.3333333332,
      "d": 150,
      "v": 86
    },
    {
      "midi": 57,
      "hit": false,
      "t": 162883.3333333332,
      "d": 166.66666666665697,
      "v": 77
    },
    {
      "midi": 60,
      "hit": false,
      "t": 162883.3333333332,
      "d": 166.66666666665697,
      "v": 83
    },
    {
      "midi": 69,
      "hit": false,
      "t": 162883.3333333335,
      "d": 333.33333333334303,
      "v": 68
    },
    {
      "midi": 57,
      "hit": false,
      "t": 163216.6666666665,
      "d": 116.66666666665697,
      "v": 75
    },
    {
      "midi": 60,
      "hit": false,
      "t": 163216.6666666665,
      "d": 116.66666666665697,
      "v": 83
    },
    {
      "midi": 64,
      "hit": false,
      "t": 163216.6666666665,
      "d": 116.66666666665697,
      "v": 88
    },
    {
      "midi": 72,
      "hit": false,
      "t": 163216.66666666683,
      "d": 1016.6666666666279,
      "v": 94
    },
    {
      "midi": 69,
      "hit": false,
      "t": 163533.3333333335,
      "d": 316.66666666665697,
      "v": 75
    },
    {
      "midi": 64,
      "hit": false,
      "t": 163866.6666666668,
      "d": 366.66666666665697,
      "v": 77
    },
    {
      "midi": 71,
      "hit": false,
      "t": 164200.00000000012,
      "d": 666.6666666666861,
      "v": 88
    },
    {
      "midi": 64,
      "hit": false,
      "t": 164533.33333333346,
      "d": 366.66666666668607,
      "v": 81
    },
    {
      "midi": 57,
      "hit": false,
      "t": 164866.6666666668,
      "d": 2333.333333333372,
      "v": 97
    },
    {
      "midi": 57,
      "hit": false,
      "t": 165199.99999999983,
      "d": 50,
      "v": 49
    },
    {
      "midi": 60,
      "hit": false,
      "t": 165199.99999999983,
      "d": 66.66666666665697,
      "v": 57
    },
    {
      "midi": 64,
      "hit": false,
      "t": 165200.00000000015,
      "d": 2283.333333333372,
      "v": 77
    },
    {
      "midi": 60,
      "hit": false,
      "t": 165533.33333333314,
      "d": 150,
      "v": 88
    },
    {
      "midi": 57,
      "hit": false,
      "t": 165533.33333333314,
      "d": 166.66666666665697,
      "v": 83
    },
    {
      "midi": 64,
      "hit": false,
      "t": 165533.33333333314,
      "d": 183.33333333331393,
      "v": 94
    },
    {
      "midi": 69,
      "hit": false,
      "t": 165533.3333333335,
      "d": 1100.000000000029,
      "v": 68
    },
    {
      "midi": 72,
      "hit": false,
      "t": 165866.66666666683,
      "d": 366.66666666668607,
      "v": 83
    },
    {
      "midi": 76,
      "hit": false,
      "t": 166200.00000000017,
      "d": 266.66666666668607,
      "v": 81
    },
    {
      "midi": 86,
      "hit": false,
      "t": 166533.33333333352,
      "d": 516.666666666657,
      "v": 113
    },
    {
      "midi": 84,
      "hit": false,
      "t": 167200.00000000017,
      "d": 383.33333333334303,
      "v": 113
    },
    {
      "midi": 83,
      "hit": false,
      "t": 167533.33333333352,
      "d": 250,
      "v": 94
    },
    {
      "midi": 55,
      "hit": false,
      "t": 167533.33333333352,
      "d": 2350,
      "v": 68
    },
    {
      "midi": 55,
      "hit": false,
      "t": 167866.66666666645,
      "d": 83.33333333334303,
      "v": 53
    },
    {
      "midi": 59,
      "hit": false,
      "t": 167866.66666666645,
      "d": 83.33333333334303,
      "v": 60
    },
    {
      "midi": 62,
      "hit": false,
      "t": 167866.66666666645,
      "d": 83.33333333334303,
      "v": 64
    },
    {
      "midi": 83,
      "hit": false,
      "t": 167866.66666666686,
      "d": 983.333333333343,
      "v": 108
    },
    {
      "midi": 55,
      "hit": false,
      "t": 168199.9999999998,
      "d": 166.66666666665697,
      "v": 73
    },
    {
      "midi": 59,
      "hit": false,
      "t": 168199.9999999998,
      "d": 166.66666666665697,
      "v": 79
    },
    {
      "midi": 62,
      "hit": false,
      "t": 168199.9999999998,
      "d": 166.66666666665697,
      "v": 91
    },
    {
      "midi": 67,
      "hit": false,
      "t": 168200.0000000002,
      "d": 716.666666666657,
      "v": 77
    },
    {
      "midi": 55,
      "hit": false,
      "t": 168533.3333333331,
      "d": 100,
      "v": 75
    },
    {
      "midi": 59,
      "hit": false,
      "t": 168533.3333333331,
      "d": 100,
      "v": 79
    },
    {
      "midi": 62,
      "hit": false,
      "t": 168533.3333333331,
      "d": 116.66666666665697,
      "v": 86
    },
    {
      "midi": 62,
      "hit": false,
      "t": 168533.33333333355,
      "d": 966.6666666666279,
      "v": 94
    },
    {
      "midi": 74,
      "hit": false,
      "t": 168866.66666666686,
      "d": 2299.999999999971,
      "v": 97
    },
    {
      "midi": 67,
      "hit": false,
      "t": 169183.33333333352,
      "d": 716.666666666657,
      "v": 63
    },
    {
      "midi": 71,
      "hit": false,
      "t": 169516.66666666683,
      "d": 1283.333333333343,
      "v": 75
    },
    {
      "midi": 62,
      "hit": false,
      "t": 169850.00000000017,
      "d": 350,
      "v": 94
    },
    {
      "midi": 55,
      "hit": false,
      "t": 170183.33333333352,
      "d": 2299.999999999971,
      "v": 75
    },
    {
      "midi": 55,
      "hit": false,
      "t": 170516.66666666642,
      "d": 66.66666666665697,
      "v": 53
    },
    {
      "midi": 59,
      "hit": false,
      "t": 170516.66666666642,
      "d": 66.66666666665697,
      "v": 53
    },
    {
      "midi": 62,
      "hit": false,
      "t": 170516.66666666642,
      "d": 100,
      "v": 59
    },
    {
      "midi": 62,
      "hit": false,
      "t": 170516.66666666683,
      "d": 2333.333333333314,
      "v": 97
    },
    {
      "midi": 55,
      "hit": false,
      "t": 170849.99999999977,
      "d": 166.66666666665697,
      "v": 67
    },
    {
      "midi": 59,
      "hit": false,
      "t": 170849.99999999977,
      "d": 166.66666666665697,
      "v": 75
    },
    {
      "midi": 62,
      "hit": false,
      "t": 170849.99999999977,
      "d": 183.33333333331393,
      "v": 86
    },
    {
      "midi": 67,
      "hit": false,
      "t": 170850.00000000017,
      "d": 1166.666666666657,
      "v": 67
    },
    {
      "midi": 71,
      "hit": false,
      "t": 171183.3333333335,
      "d": 2716.666666666686,
      "v": 81
    },
    {
      "midi": 74,
      "hit": false,
      "t": 171516.66666666683,
      "d": 666.666666666657,
      "v": 91
    },
    {
      "midi": 83,
      "hit": false,
      "t": 171850.00000000017,
      "d": 683.3333333333139,
      "v": 117
    },
    {
      "midi": 67,
      "hit": false,
      "t": 172183.3333333335,
      "d": 516.666666666657,
      "v": 53
    },
    {
      "midi": 81,
      "hit": false,
      "t": 172516.66666666683,
      "d": 366.66666666665697,
      "v": 117
    },
    {
      "midi": 83,
      "hit": false,
      "t": 172850.00000000015,
      "d": 633.333333333343,
      "v": 108
    },
    {
      "midi": 55,
      "hit": false,
      "t": 172850.00000000015,
      "d": 2266.666666666715,
      "v": 71
    },
    {
      "midi": 59,
      "hit": false,
      "t": 173183.33333333308,
      "d": 66.66666666665697,
      "v": 54
    },
    {
      "midi": 62,
      "hit": false,
      "t": 173183.33333333308,
      "d": 66.66666666665697,
      "v": 58
    },
    {
      "midi": 55,
      "hit": false,
      "t": 173183.33333333308,
      "d": 83.33333333331393,
      "v": 54
    },
    {
      "midi": 62,
      "hit": false,
      "t": 173183.3333333335,
      "d": 683.333333333343,
      "v": 63
    },
    {
      "midi": 59,
      "hit": false,
      "t": 173516.6666666664,
      "d": 133.33333333334303,
      "v": 75
    },
    {
      "midi": 55,
      "hit": false,
      "t": 173516.6666666664,
      "d": 150,
      "v": 70
    },
    {
      "midi": 62,
      "hit": false,
      "t": 173516.6666666664,
      "d": 166.66666666665697,
      "v": 83
    },
    {
      "midi": 67,
      "hit": false,
      "t": 173516.66666666683,
      "d": 1100.000000000029,
      "v": 58
    },
    {
      "midi": 55,
      "hit": false,
      "t": 173849.9999999997,
      "d": 100,
      "v": 68
    },
    {
      "midi": 59,
      "hit": false,
      "t": 173849.9999999997,
      "d": 100,
      "v": 70
    },
    {
      "midi": 62,
      "hit": false,
      "t": 173849.9999999997,
      "d": 100,
      "v": 75
    },
    {
      "midi": 74,
      "hit": false,
      "t": 173850.00000000017,
      "d": 2666.666666666715,
      "v": 91
    },
    {
      "midi": 62,
      "hit": false,
      "t": 174183.33333333352,
      "d": 1350.000000000029,
      "v": 91
    },
    {
      "midi": 71,
      "hit": false,
      "t": 174516.66666666686,
      "d": 1266.666666666686,
      "v": 88
    },
    {
      "midi": 67,
      "hit": false,
      "t": 175166.66666666686,
      "d": 566.6666666666861,
      "v": 75
    },
    {
      "midi": 55,
      "hit": false,
      "t": 175500.0000000002,
      "d": 1983.3333333333721,
      "v": 77
    },
    {
      "midi": 59,
      "hit": false,
      "t": 175833.33333333305,
      "d": 66.66666666665697,
      "v": 54
    },
    {
      "midi": 62,
      "hit": false,
      "t": 175833.33333333305,
      "d": 66.66666666665697,
      "v": 57
    },
    {
      "midi": 55,
      "hit": false,
      "t": 175833.33333333305,
      "d": 83.33333333331393,
      "v": 57
    },
    {
      "midi": 59,
      "hit": false,
      "t": 176166.66666666637,
      "d": 150,
      "v": 73
    },
    {
      "midi": 62,
      "hit": false,
      "t": 176166.66666666637,
      "d": 150,
      "v": 86
    },
    {
      "midi": 55,
      "hit": false,
      "t": 176166.66666666637,
      "d": 166.66666666665697,
      "v": 77
    },
    {
      "midi": 67,
      "hit": false,
      "t": 176166.6666666669,
      "d": 750,
      "v": 60
    },
    {
      "midi": 71,
      "hit": false,
      "t": 176500.00000000023,
      "d": 1733.333333333343,
      "v": 88
    },
    {
      "midi": 67,
      "hit": false,
      "t": 177166.6666666669,
      "d": 283.33333333334303,
      "v": 66
    },
    {
      "midi": 62,
      "hit": false,
      "t": 177500.00000000023,
      "d": 666.6666666666861,
      "v": 91
    },
    {
      "midi": 55,
      "hit": false,
      "t": 177833.33333333358,
      "d": 200,
      "v": 81
    },
    {
      "midi": 69,
      "hit": false,
      "t": 178166.66666666692,
      "d": 1016.6666666666279,
      "v": 94
    },
    {
      "midi": 57,
      "hit": false,
      "t": 178166.66666666692,
      "d": 1449.999999999971,
      "v": 86
    },
    {
      "midi": 57,
      "hit": false,
      "t": 178499.99999999968,
      "d": 66.66666666665697,
      "v": 51
    },
    {
      "midi": 60,
      "hit": false,
      "t": 178499.99999999968,
      "d": 66.66666666665697,
      "v": 58
    },
    {
      "midi": 64,
      "hit": false,
      "t": 178499.99999999968,
      "d": 66.66666666665697,
      "v": 64
    },
    {
      "midi": 64,
      "hit": false,
      "t": 178500.00000000023,
      "d": 1666.666666666657,
      "v": 75
    },
    {
      "midi": 60,
      "hit": false,
      "t": 178833.333333333,
      "d": 183.33333333334303,
      "v": 91
    },
    {
      "midi": 57,
      "hit": false,
      "t": 178833.333333333,
      "d": 200,
      "v": 83
    },
    {
      "midi": 64,
      "hit": false,
      "t": 178833.333333333,
      "d": 200,
      "v": 94
    },
    {
      "midi": 60,
      "hit": false,
      "t": 179166.66666666634,
      "d": 83.33333333334303,
      "v": 77
    },
    {
      "midi": 64,
      "hit": false,
      "t": 179166.66666666634,
      "d": 100,
      "v": 81
    },
    {
      "midi": 57,
      "hit": false,
      "t": 179166.66666666634,
      "d": 116.66666666665697,
      "v": 66
    },
    {
      "midi": 72,
      "hit": false,
      "t": 179166.6666666669,
      "d": 366.66666666665697,
      "v": 101
    },
    {
      "midi": 71,
      "hit": false,
      "t": 179500.0000000002,
      "d": 1366.666666666686,
      "v": 91
    },
    {
      "midi": 57,
      "hit": false,
      "t": 179833.33333333355,
      "d": 633.333333333343,
      "v": 64
    },
    {
      "midi": 67,
      "hit": false,
      "t": 180166.6666666669,
      "d": 683.333333333343,
      "v": 86
    },
    {
      "midi": 64,
      "hit": false,
      "t": 180500.00000000023,
      "d": 333.33333333334303,
      "v": 58
    },
    {
      "midi": 69,
      "hit": false,
      "t": 180833.33333333358,
      "d": 633.333333333343,
      "v": 86
    },
    {
      "midi": 57,
      "hit": false,
      "t": 180833.33333333358,
      "d": 2083.333333333343,
      "v": 75
    },
    {
      "midi": 57,
      "hit": false,
      "t": 181149.99999999965,
      "d": 83.33333333334303,
      "v": 57
    },
    {
      "midi": 60,
      "hit": false,
      "t": 181149.99999999965,
      "d": 83.33333333334303,
      "v": 63
    },
    {
      "midi": 64,
      "hit": false,
      "t": 181149.99999999965,
      "d": 83.33333333334303,
      "v": 70
    },
    {
      "midi": 60,
      "hit": false,
      "t": 181150.00000000023,
      "d": 283.33333333334303,
      "v": 71
    },
    {
      "midi": 64,
      "hit": false,
      "t": 181483.333333333,
      "d": 150,
      "v": 88
    },
    {
      "midi": 57,
      "hit": false,
      "t": 181483.333333333,
      "d": 166.66666666665697,
      "v": 81
    },
    {
      "midi": 60,
      "hit": false,
      "t": 181483.333333333,
      "d": 166.66666666665697,
      "v": 83
    },
    {
      "midi": 64,
      "hit": false,
      "t": 181483.33333333358,
      "d": 883.333333333343,
      "v": 79
    },
    {
      "midi": 72,
      "hit": false,
      "t": 181816.66666666692,
      "d": 1016.666666666657,
      "v": 101
    },
    {
      "midi": 64,
      "hit": false,
      "t": 182483.33333333358,
      "d": 400,
      "v": 70
    },
    {
      "midi": 69,
      "hit": false,
      "t": 182816.66666666692,
      "d": 933.333333333343,
      "v": 101
    },
    {
      "midi": 64,
      "hit": false,
      "t": 183150.00000000026,
      "d": 450,
      "v": 79
    },
    {
      "midi": 57,
      "hit": false,
      "t": 183483.3333333336,
      "d": 2383.333333333343,
      "v": 97
    },
    {
      "midi": 64,
      "hit": false,
      "t": 183816.6666666663,
      "d": 66.66666666665697,
      "v": 59
    },
    {
      "midi": 57,
      "hit": false,
      "t": 183816.6666666663,
      "d": 83.33333333331393,
      "v": 52
    },
    {
      "midi": 60,
      "hit": false,
      "t": 183816.6666666663,
      "d": 83.33333333331393,
      "v": 55
    },
    {
      "midi": 64,
      "hit": false,
      "t": 183816.66666666692,
      "d": 1050.000000000029,
      "v": 47
    },
    {
      "midi": 60,
      "hit": false,
      "t": 184149.99999999962,
      "d": 150,
      "v": 75
    },
    {
      "midi": 57,
      "hit": false,
      "t": 184149.99999999962,
      "d": 166.66666666665697,
      "v": 70
    },
    {
      "midi": 64,
      "hit": false,
      "t": 184149.99999999962,
      "d": 200,
      "v": 81
    },
    {
      "midi": 69,
      "hit": false,
      "t": 184150.00000000026,
      "d": 300,
      "v": 94
    },
    {
      "midi": 57,
      "hit": false,
      "t": 184483.33333333296,
      "d": 83.33333333334303,
      "v": 70
    },
    {
      "midi": 60,
      "hit": false,
      "t": 184483.33333333296,
      "d": 83.33333333334303,
      "v": 71
    },
    {
      "midi": 64,
      "hit": false,
      "t": 184483.33333333296,
      "d": 100,
      "v": 79
    },
    {
      "midi": 72,
      "hit": false,
      "t": 184483.3333333336,
      "d": 383.33333333334303,
      "v": 108
    },
    {
      "midi": 71,
      "hit": false,
      "t": 184816.66666666695,
      "d": 666.6666666666861,
      "v": 97
    },
    {
      "midi": 64,
      "hit": false,
      "t": 185150.0000000003,
      "d": 400,
      "v": 63
    },
    {
      "midi": 67,
      "hit": false,
      "t": 185483.33333333363,
      "d": 383.33333333331393,
      "v": 94
    },
    {
      "midi": 64,
      "hit": false,
      "t": 185816.66666666695,
      "d": 350,
      "v": 73
    },
    {
      "midi": 69,
      "hit": false,
      "t": 186150.0000000003,
      "d": 250,
      "v": 75
    },
    {
      "midi": 57,
      "hit": false,
      "t": 186150.0000000003,
      "d": 1999.999999999971,
      "v": 94
    },
    {
      "midi": 57,
      "hit": false,
      "t": 186483.33333333296,
      "d": 83.33333333334303,
      "v": 57
    },
    {
      "midi": 60,
      "hit": false,
      "t": 186483.33333333296,
      "d": 83.33333333334303,
      "v": 57
    },
    {
      "midi": 64,
      "hit": false,
      "t": 186483.33333333296,
      "d": 83.33333333334303,
      "v": 59
    },
    {
      "midi": 64,
      "hit": false,
      "t": 186483.33333333363,
      "d": 716.666666666657,
      "v": 83
    },
    {
      "midi": 60,
      "hit": false,
      "t": 186816.6666666663,
      "d": 150,
      "v": 77
    },
    {
      "midi": 57,
      "hit": false,
      "t": 186816.6666666663,
      "d": 166.66666666665697,
      "v": 75
    },
    {
      "midi": 64,
      "hit": false,
      "t": 186816.6666666663,
      "d": 166.66666666665697,
      "v": 88
    },
    {
      "midi": 69,
      "hit": false,
      "t": 186816.66666666698,
      "d": 300,
      "v": 77
    },
    {
      "midi": 72,
      "hit": false,
      "t": 187133.33333333363,
      "d": 733.3333333333139,
      "v": 108
    },
    {
      "midi": 69,
      "hit": false,
      "t": 187800.0000000003,
      "d": 333.33333333331393,
      "v": 91
    },
    {
      "midi": 64,
      "hit": false,
      "t": 188133.3333333336,
      "d": 683.3333333332848,
      "v": 91
    },
    {
      "midi": 57,
      "hit": false,
      "t": 188466.66666666692,
      "d": 116.66666666665697,
      "v": 79
    },
    {
      "midi": 71,
      "hit": false,
      "t": 188800.00000000023,
      "d": 700,
      "v": 86
    },
    {
      "midi": 55,
      "hit": false,
      "t": 188800.00000000023,
      "d": 2349.999999999971,
      "v": 88
    },
    {
      "midi": 62,
      "hit": false,
      "t": 189133.33333333296,
      "d": 50,
      "v": 57
    },
    {
      "midi": 55,
      "hit": false,
      "t": 189133.33333333296,
      "d": 66.66666666665697,
      "v": 51
    },
    {
      "midi": 59,
      "hit": false,
      "t": 189133.33333333296,
      "d": 66.66666666665697,
      "v": 55
    },
    {
      "midi": 62,
      "hit": false,
      "t": 189133.33333333355,
      "d": 1266.666666666686,
      "v": 83
    },
    {
      "midi": 55,
      "hit": false,
      "t": 189466.66666666628,
      "d": 200,
      "v": 77
    },
    {
      "midi": 59,
      "hit": false,
      "t": 189466.66666666628,
      "d": 200,
      "v": 83
    },
    {
      "midi": 62,
      "hit": false,
      "t": 189466.66666666628,
      "d": 200,
      "v": 91
    },
    {
      "midi": 67,
      "hit": false,
      "t": 189466.6666666669,
      "d": 816.6666666666861,
      "v": 75
    },
    {
      "midi": 59,
      "hit": false,
      "t": 189799.99999999962,
      "d": 66.66666666665697,
      "v": 75
    },
    {
      "midi": 55,
      "hit": false,
      "t": 189799.99999999962,
      "d": 83.33333333331393,
      "v": 68
    },
    {
      "midi": 62,
      "hit": false,
      "t": 189799.99999999962,
      "d": 83.33333333331393,
      "v": 86
    },
    {
      "midi": 71,
      "hit": false,
      "t": 189800.00000000023,
      "d": 1016.666666666657,
      "v": 79
    },
    {
      "midi": 62,
      "hit": false,
      "t": 190466.6666666669,
      "d": 366.66666666665697,
      "v": 58
    },
    {
      "midi": 67,
      "hit": false,
      "t": 190800.00000000023,
      "d": 966.6666666666279,
      "v": 94
    },
    {
      "midi": 62,
      "hit": false,
      "t": 191133.33333333355,
      "d": 349.9999999999709,
      "v": 83
    },
    {
      "midi": 55,
      "hit": false,
      "t": 191466.66666666686,
      "d": 2300.000000000029,
      "v": 97
    },
    {
      "midi": 55,
      "hit": false,
      "t": 191799.9999999996,
      "d": 50,
      "v": 55
    },
    {
      "midi": 59,
      "hit": false,
      "t": 191799.9999999996,
      "d": 66.66666666665697,
      "v": 60
    },
    {
      "midi": 62,
      "hit": false,
      "t": 191799.9999999996,
      "d": 66.66666666665697,
      "v": 67
    },
    {
      "midi": 62,
      "hit": false,
      "t": 191800.0000000002,
      "d": 1066.666666666686,
      "v": 88
    },
    {
      "midi": 59,
      "hit": false,
      "t": 192133.3333333329,
      "d": 100,
      "v": 94
    },
    {
      "midi": 55,
      "hit": false,
      "t": 192133.3333333329,
      "d": 116.66666666665697,
      "v": 86
    },
    {
      "midi": 62,
      "hit": false,
      "t": 192133.3333333329,
      "d": 116.66666666665697,
      "v": 94
    },
    {
      "midi": 67,
      "hit": false,
      "t": 192133.33333333355,
      "d": 950,
      "v": 62
    },
    {
      "midi": 71,
      "hit": false,
      "t": 192466.6666666669,
      "d": 2283.333333333343,
      "v": 79
    },
    {
      "midi": 62,
      "hit": false,
      "t": 193116.6666666669,
      "d": 333.33333333334303,
      "v": 73
    },
    {
      "midi": 67,
      "hit": false,
      "t": 193450.00000000023,
      "d": 983.333333333343,
      "v": 81
    },
    {
      "midi": 62,
      "hit": false,
      "t": 193783.33333333355,
      "d": 366.66666666668607,
      "v": 81
    },
    {
      "midi": 55,
      "hit": false,
      "t": 194116.6666666669,
      "d": 2400.000000000029,
      "v": 101
    },
    {
      "midi": 55,
      "hit": false,
      "t": 194449.99999999956,
      "d": 66.66666666665697,
      "v": 48
    },
    {
      "midi": 62,
      "hit": false,
      "t": 194449.99999999956,
      "d": 66.66666666665697,
      "v": 57
    },
    {
      "midi": 59,
      "hit": false,
      "t": 194449.99999999956,
      "d": 83.33333333331393,
      "v": 56
    },
    {
      "midi": 62,
      "hit": false,
      "t": 194450.00000000023,
      "d": 1333.333333333343,
      "v": 83
    },
    {
      "midi": 62,
      "hit": false,
      "t": 194783.33333333288,
      "d": 183.33333333334303,
      "v": 88
    },
    {
      "midi": 55,
      "hit": false,
      "t": 194783.33333333288,
      "d": 200,
      "v": 77
    },
    {
      "midi": 59,
      "hit": false,
      "t": 194783.33333333288,
      "d": 200,
      "v": 79
    },
    {
      "midi": 67,
      "hit": false,
      "t": 194783.33333333358,
      "d": 400,
      "v": 75
    },
    {
      "midi": 59,
      "hit": false,
      "t": 195116.66666666622,
      "d": 100,
      "v": 71
    },
    {
      "midi": 55,
      "hit": false,
      "t": 195116.66666666622,
      "d": 116.66666666665697,
      "v": 70
    },
    {
      "midi": 62,
      "hit": false,
      "t": 195116.66666666622,
      "d": 116.66666666665697,
      "v": 83
    },
    {
      "midi": 71,
      "hit": false,
      "t": 195116.66666666692,
      "d": 2350,
      "v": 97
    },
    {
      "midi": 67,
      "hit": false,
      "t": 195783.33333333358,
      "d": 1300,
      "v": 86
    },
    {
      "midi": 62,
      "hit": false,
      "t": 196116.66666666692,
      "d": 666.666666666657,
      "v": 83
    },
    {
      "midi": 55,
      "hit": false,
      "t": 196783.33333333358,
      "d": 2350.000000000029,
      "v": 77
    },
    {
      "midi": 59,
      "hit": false,
      "t": 197116.66666666622,
      "d": 50,
      "v": 52
    },
    {
      "midi": 62,
      "hit": false,
      "t": 197116.66666666622,
      "d": 50,
      "v": 56
    },
    {
      "midi": 62,
      "hit": false,
      "t": 197116.66666666692,
      "d": 783.3333333333139,
      "v": 86
    },
    {
      "midi": 62,
      "hit": false,
      "t": 197449.99999999956,
      "d": 150,
      "v": 88
    },
    {
      "midi": 55,
      "hit": false,
      "t": 197449.99999999956,
      "d": 166.66666666665697,
      "v": 77
    },
    {
      "midi": 59,
      "hit": false,
      "t": 197449.99999999956,
      "d": 166.66666666665697,
      "v": 86
    },
    {
      "midi": 67,
      "hit": false,
      "t": 197450.00000000026,
      "d": 633.3333333333139,
      "v": 66
    },
    {
      "midi": 71,
      "hit": false,
      "t": 197783.33333333358,
      "d": 1983.3333333333721,
      "v": 81
    },
    {
      "midi": 62,
      "hit": false,
      "t": 198116.66666666692,
      "d": 733.333333333343,
      "v": 67
    },
    {
      "midi": 67,
      "hit": false,
      "t": 198450.00000000026,
      "d": 1016.6666666666861,
      "v": 86
    },
    {
      "midi": 62,
      "hit": false,
      "t": 199100.00000000026,
      "d": 316.66666666668607,
      "v": 91
    },
    {
      "midi": 57,
      "hit": false,
      "t": 199433.3333333336,
      "d": 2366.666666666657,
      "v": 97
    },
    {
      "midi": 57,
      "hit": false,
      "t": 199766.66666666622,
      "d": 66.66666666665697,
      "v": 48
    },
    {
      "midi": 60,
      "hit": false,
      "t": 199766.66666666622,
      "d": 66.66666666665697,
      "v": 53
    },
    {
      "midi": 64,
      "hit": false,
      "t": 199766.66666666622,
      "d": 66.66666666665697,
      "v": 55
    },
    {
      "midi": 60,
      "hit": false,
      "t": 199766.66666666695,
      "d": 350,
      "v": 94
    },
    {
      "midi": 57,
      "hit": false,
      "t": 200099.99999999953,
      "d": 166.66666666665697,
      "v": 70
    },
    {
      "midi": 64,
      "hit": false,
      "t": 200099.99999999953,
      "d": 166.66666666665697,
      "v": 81
    },
    {
      "midi": 60,
      "hit": false,
      "t": 200099.99999999953,
      "d": 183.33333333331393,
      "v": 77
    },
    {
      "midi": 64,
      "hit": false,
      "t": 200100.0000000003,
      "d": 1333.333333333314,
      "v": 91
    },
    {
      "midi": 60,
      "hit": false,
      "t": 200433.33333333285,
      "d": 100,
      "v": 71
    },
    {
      "midi": 57,
      "hit": false,
      "t": 200433.33333333285,
      "d": 116.66666666665697,
      "v": 66
    },
    {
      "midi": 64,
      "hit": false,
      "t": 200433.33333333285,
      "d": 116.66666666665697,
      "v": 81
    },
    {
      "midi": 69,
      "hit": false,
      "t": 200433.3333333336,
      "d": 700,
      "v": 79
    },
    {
      "midi": 72,
      "hit": false,
      "t": 201100.00000000026,
      "d": 900,
      "v": 86
    },
    {
      "midi": 81,
      "hit": false,
      "t": 201100.00000000026,
      "d": 933.333333333343,
      "v": 97
    },
    {
      "midi": 69,
      "hit": false,
      "t": 201433.3333333336,
      "d": 483.33333333331393,
      "v": 57
    },
    {
      "midi": 69,
      "hit": false,
      "t": 202100.00000000026,
      "d": 1250,
      "v": 88
    },
    {
      "midi": 72,
      "hit": false,
      "t": 202100.00000000026,
      "d": 1250,
      "v": 86
    },
    {
      "midi": 76,
      "hit": false,
      "t": 202100.00000000026,
      "d": 1250,
      "v": 104
    },
    {
      "midi": 81,
      "hit": false,
      "t": 202100.00000000026,
      "d": 1250,
      "v": 88
    },
    {
      "midi": 64,
      "hit": false,
      "t": 202100.00000000026,
      "d": 1316.666666666657,
      "v": 77
    },
    {
      "midi": 57,
      "hit": false,
      "t": 202100.00000000026,
      "d": 1383.333333333314,
      "v": 71
    },
    {
      "midi": 57,
      "hit": false,
      "t": 202433.33333333285,
      "d": 116.66666666665697,
      "v": 59
    },
    {
      "midi": 60,
      "hit": false,
      "t": 202433.33333333285,
      "d": 116.66666666665697,
      "v": 59
    },
    {
      "midi": 64,
      "hit": false,
      "t": 202433.33333333285,
      "d": 116.66666666665697,
      "v": 68
    },
    {
      "midi": 57,
      "hit": false,
      "t": 203099.9999999995,
      "d": 916.666666666657,
      "v": 60
    },
    {
      "midi": 60,
      "hit": false,
      "t": 203099.9999999995,
      "d": 916.666666666657,
      "v": 70
    },
    {
      "midi": 64,
      "hit": false,
      "t": 203099.9999999995,
      "d": 950,
      "v": 71
    },
    {
      "midi": 57,
      "hit": false,
      "t": 204766.66666666616,
      "d": 2449.999999999971,
      "v": 83
    },
    {
      "midi": 65,
      "hit": false,
      "t": 204766.66666666692,
      "d": 2033.3333333333721,
      "v": 101
    },
    {
      "midi": 60,
      "hit": false,
      "t": 204833.33333333282,
      "d": 2383.333333333314,
      "v": 83
    },
    {
      "midi": 65,
      "hit": false,
      "t": 204949.99999999948,
      "d": 2300,
      "v": 108
    },
    {
      "midi": 72,
      "hit": false,
      "t": 205083.33333333358,
      "d": 1300.000000000029,
      "v": 56
    },
    {
      "midi": 79,
      "hit": false,
      "t": 205416.66666666692,
      "d": 366.66666666668607,
      "v": 113
    },
    {
      "midi": 77,
      "hit": false,
      "t": 205750.00000000026,
      "d": 2316.666666666686,
      "v": 94
    },
    {
      "midi": 69,
      "hit": false,
      "t": 206416.66666666695,
      "d": 366.66666666668607,
      "v": 49
    },
    {
      "midi": 72,
      "hit": false,
      "t": 206750.0000000003,
      "d": 716.666666666657,
      "v": 68
    },
    {
      "midi": 65,
      "hit": false,
      "t": 207083.33333333363,
      "d": 316.66666666665697,
      "v": 59
    },
    {
      "midi": 69,
      "hit": false,
      "t": 207083.33333333363,
      "d": 433.33333333331393,
      "v": 63
    },
    {
      "midi": 57,
      "hit": false,
      "t": 207399.99999999948,
      "d": 2416.666666666686,
      "v": 91
    },
    {
      "midi": 62,
      "hit": false,
      "t": 207416.66666666695,
      "d": 2333.333333333372,
      "v": 94
    },
    {
      "midi": 62,
      "hit": false,
      "t": 207533.33333333282,
      "d": 2416.666666666686,
      "v": 83
    },
    {
      "midi": 65,
      "hit": false,
      "t": 207633.33333333282,
      "d": 2183.333333333343,
      "v": 101
    },
    {
      "midi": 65,
      "hit": false,
      "t": 207750.0000000003,
      "d": 383.33333333331393,
      "v": 86
    },
    {
      "midi": 72,
      "hit": false,
      "t": 208083.3333333336,
      "d": 416.66666666668607,
      "v": 97
    },
    {
      "midi": 65,
      "hit": false,
      "t": 208416.66666666695,
      "d": 366.66666666668607,
      "v": 70
    },
    {
      "midi": 71,
      "hit": false,
      "t": 208750.0000000003,
      "d": 633.333333333343,
      "v": 104
    },
    {
      "midi": 65,
      "hit": false,
      "t": 209083.33333333363,
      "d": 716.6666666666861,
      "v": 81
    },
    {
      "midi": 72,
      "hit": false,
      "t": 209416.66666666698,
      "d": 300,
      "v": 101
    },
    {
      "midi": 69,
      "hit": false,
      "t": 209750.00000000032,
      "d": 2350,
      "v": 97
    },
    {
      "midi": 57,
      "hit": false,
      "t": 210083.33333333285,
      "d": 2283.333333333343,
      "v": 97
    },
    {
      "midi": 60,
      "hit": false,
      "t": 210166.6666666662,
      "d": 2050,
      "v": 101
    },
    {
      "midi": 65,
      "hit": false,
      "t": 210266.6666666662,
      "d": 1966.666666666657,
      "v": 101
    },
    {
      "midi": 72,
      "hit": false,
      "t": 210416.66666666698,
      "d": 1300,
      "v": 94
    },
    {
      "midi": 53,
      "hit": false,
      "t": 210416.66666666698,
      "d": 1616.666666666657,
      "v": 55
    },
    {
      "midi": 79,
      "hit": false,
      "t": 210733.33333333363,
      "d": 350,
      "v": 113
    },
    {
      "midi": 65,
      "hit": false,
      "t": 210733.33333333363,
      "d": 800,
      "v": 77
    },
    {
      "midi": 77,
      "hit": false,
      "t": 211066.66666666698,
      "d": 1816.666666666686,
      "v": 94
    },
    {
      "midi": 65,
      "hit": false,
      "t": 211733.33333333363,
      "d": 716.6666666666861,
      "v": 62
    },
    {
      "midi": 72,
      "hit": false,
      "t": 212066.66666666698,
      "d": 716.6666666666861,
      "v": 88
    },
    {
      "midi": 69,
      "hit": false,
      "t": 212400.00000000032,
      "d": 966.6666666666861,
      "v": 77
    },
    {
      "midi": 62,
      "hit": false,
      "t": 212733.33333333366,
      "d": 2150.000000000029,
      "v": 101
    },
    {
      "midi": 53,
      "hit": false,
      "t": 212749.99999999953,
      "d": 2366.666666666686,
      "v": 91
    },
    {
      "midi": 57,
      "hit": false,
      "t": 212833.33333333288,
      "d": 2200,
      "v": 91
    },
    {
      "midi": 62,
      "hit": false,
      "t": 212933.33333333288,
      "d": 2333.333333333343,
      "v": 113
    },
    {
      "midi": 65,
      "hit": false,
      "t": 213066.666666667,
      "d": 350,
      "v": 91
    },
    {
      "midi": 72,
      "hit": false,
      "t": 213400.00000000035,
      "d": 700,
      "v": 108
    },
    {
      "midi": 71,
      "hit": false,
      "t": 214066.666666667,
      "d": 683.333333333343,
      "v": 101
    },
    {
      "midi": 65,
      "hit": false,
      "t": 214400.00000000035,
      "d": 350,
      "v": 73
    },
    {
      "midi": 72,
      "hit": false,
      "t": 214733.3333333337,
      "d": 333.33333333334303,
      "v": 113
    },
    {
      "midi": 71,
      "hit": false,
      "t": 215066.66666666704,
      "d": 333.33333333334303,
      "v": 108
    },
    {
      "midi": 57,
      "hit": false,
      "t": 215366.66666666622,
      "d": 3566.666666666686,
      "v": 101
    },
    {
      "midi": 69,
      "hit": false,
      "t": 215400.00000000038,
      "d": 533.333333333343,
      "v": 108
    },
    {
      "midi": 60,
      "hit": false,
      "t": 215499.99999999956,
      "d": 3433.333333333343,
      "v": 83
    },
    {
      "midi": 64,
      "hit": false,
      "t": 215533.3333333329,
      "d": 3400,
      "v": 101
    },
    {
      "midi": 71,
      "hit": false,
      "t": 216066.66666666706,
      "d": 500,
      "v": 117
    },
    {
      "midi": 72,
      "hit": false,
      "t": 216716.66666666706,
      "d": 400,
      "v": 104
    },
    {
      "midi": 74,
      "hit": false,
      "t": 217383.33333333372,
      "d": 366.66666666668607,
      "v": 70
    },
    {
      "midi": 64,
      "hit": false,
      "t": 217716.66666666706,
      "d": 366.66666666668607,
      "v": 70
    },
    {
      "midi": 76,
      "hit": false,
      "t": 217716.66666666706,
      "d": 366.66666666668607,
      "v": 70
    },
    {
      "midi": 69,
      "hit": false,
      "t": 218050.0000000004,
      "d": 216.66666666668607,
      "v": 73
    },
    {
      "midi": 57,
      "hit": false,
      "t": 218050.0000000004,
      "d": 2016.666666666686,
      "v": 79
    },
    {
      "midi": 64,
      "hit": false,
      "t": 218383.33333333375,
      "d": 1016.6666666666861,
      "v": 61
    },
    {
      "midi": 69,
      "hit": false,
      "t": 218716.6666666671,
      "d": 1033.333333333343,
      "v": 59
    },
    {
      "midi": 72,
      "hit": false,
      "t": 219050.00000000044,
      "d": 400,
      "v": 64
    },
    {
      "midi": 60,
      "hit": false,
      "t": 219066.66666666625,
      "d": 133.33333333334303,
      "v": 81
    },
    {
      "midi": 57,
      "hit": false,
      "t": 219066.66666666625,
      "d": 150,
      "v": 70
    },
    {
      "midi": 64,
      "hit": false,
      "t": 219066.66666666625,
      "d": 166.66666666665697,
      "v": 70
    },
    {
      "midi": 76,
      "hit": false,
      "t": 219383.33333333378,
      "d": 666.666666666657,
      "v": 68
    },
    {
      "midi": 64,
      "hit": false,
      "t": 219716.6666666671,
      "d": 666.666666666657,
      "v": 63
    },
    {
      "midi": 57,
      "hit": false,
      "t": 220049.99999999956,
      "d": 133.33333333334303,
      "v": 81
    },
    {
      "midi": 60,
      "hit": false,
      "t": 220049.99999999956,
      "d": 133.33333333334303,
      "v": 83
    },
    {
      "midi": 64,
      "hit": false,
      "t": 220049.99999999956,
      "d": 150,
      "v": 77
    },
    {
      "midi": 72,
      "hit": false,
      "t": 220050.00000000044,
      "d": 366.66666666665697,
      "v": 91
    },
    {
      "midi": 57,
      "hit": false,
      "t": 220383.33333333375,
      "d": 183.33333333334303,
      "v": 83
    },
    {
      "midi": 69,
      "hit": false,
      "t": 220383.33333333375,
      "d": 333.33333333334303,
      "v": 63
    },
    {
      "midi": 57,
      "hit": false,
      "t": 220683.3333333329,
      "d": 2183.333333333343,
      "v": 88
    },
    {
      "midi": 81,
      "hit": false,
      "t": 220716.6666666671,
      "d": 350,
      "v": 108
    },
    {
      "midi": 65,
      "hit": false,
      "t": 220716.6666666671,
      "d": 1416.666666666657,
      "v": 97
    },
    {
      "midi": 60,
      "hit": false,
      "t": 220783.3333333329,
      "d": 2050,
      "v": 91
    },
    {
      "midi": 65,
      "hit": false,
      "t": 220866.66666666625,
      "d": 1966.666666666657,
      "v": 108
    },
    {
      "midi": 72,
      "hit": false,
      "t": 221050.00000000044,
      "d": 1866.666666666657,
      "v": 73
    },
    {
      "midi": 79,
      "hit": false,
      "t": 221383.33333333375,
      "d": 350,
      "v": 94
    },
    {
      "midi": 69,
      "hit": false,
      "t": 221383.33333333375,
      "d": 1650,
      "v": 70
    },
    {
      "midi": 77,
      "hit": false,
      "t": 221716.6666666671,
      "d": 1350,
      "v": 94
    },
    {
      "midi": 65,
      "hit": false,
      "t": 223033.33333333375,
      "d": 350,
      "v": 91
    },
    {
      "midi": 69,
      "hit": false,
      "t": 223200.00000000044,
      "d": 399.9999999999709,
      "v": 81
    },
    {
      "midi": 74,
      "hit": false,
      "t": 223366.6666666671,
      "d": 733.3333333333139,
      "v": 97
    },
    {
      "midi": 62,
      "hit": false,
      "t": 223366.6666666671,
      "d": 2383.333333333285,
      "v": 101
    },
    {
      "midi": 53,
      "hit": false,
      "t": 223383.3333333329,
      "d": 2083.333333333314,
      "v": 101
    },
    {
      "midi": 57,
      "hit": false,
      "t": 223499.99999999956,
      "d": 2000,
      "v": 101
    },
    {
      "midi": 62,
      "hit": false,
      "t": 223616.66666666622,
      "d": 1883.333333333343,
      "v": 108
    },
    {
      "midi": 65,
      "hit": false,
      "t": 223700.0000000004,
      "d": 416.66666666665697,
      "v": 86
    },
    {
      "midi": 72,
      "hit": false,
      "t": 224033.33333333375,
      "d": 683.3333333333139,
      "v": 91
    },
    {
      "midi": 65,
      "hit": false,
      "t": 224366.66666666706,
      "d": 333.33333333334303,
      "v": 68
    },
    {
      "midi": 71,
      "hit": false,
      "t": 224700.0000000004,
      "d": 683.3333333333139,
      "v": 97
    },
    {
      "midi": 65,
      "hit": false,
      "t": 225033.33333333372,
      "d": 333.33333333334303,
      "v": 70
    },
    {
      "midi": 72,
      "hit": false,
      "t": 225366.66666666706,
      "d": 683.3333333333139,
      "v": 88
    },
    {
      "midi": 65,
      "hit": false,
      "t": 225700.00000000038,
      "d": 183.33333333334303,
      "v": 75
    },
    {
      "midi": 57,
      "hit": false,
      "t": 226016.66666666622,
      "d": 2133.333333333343,
      "v": 88
    },
    {
      "midi": 60,
      "hit": false,
      "t": 226033.33333333372,
      "d": 2083.333333333314,
      "v": 94
    },
    {
      "midi": 60,
      "hit": false,
      "t": 226099.99999999956,
      "d": 2000,
      "v": 94
    },
    {
      "midi": 65,
      "hit": false,
      "t": 226199.99999999956,
      "d": 1916.666666666657,
      "v": 108
    },
    {
      "midi": 72,
      "hit": false,
      "t": 226366.66666666704,
      "d": 1350,
      "v": 86
    },
    {
      "midi": 69,
      "hit": false,
      "t": 226366.66666666704,
      "d": 1833.333333333343,
      "v": 79
    },
    {
      "midi": 79,
      "hit": false,
      "t": 226700.00000000038,
      "d": 350,
      "v": 104
    },
    {
      "midi": 77,
      "hit": false,
      "t": 227033.33333333372,
      "d": 1616.666666666657,
      "v": 97
    },
    {
      "midi": 65,
      "hit": false,
      "t": 227700.00000000038,
      "d": 750,
      "v": 79
    },
    {
      "midi": 72,
      "hit": false,
      "t": 228033.3333333337,
      "d": 550.0000000000291,
      "v": 68
    },
    {
      "midi": 60,
      "hit": false,
      "t": 228366.66666666704,
      "d": 133.33333333334303,
      "v": 68
    },
    {
      "midi": 69,
      "hit": false,
      "t": 228533.33333333372,
      "d": 400,
      "v": 73
    },
    {
      "midi": 53,
      "hit": false,
      "t": 228666.66666666622,
      "d": 2216.666666666686,
      "v": 88
    },
    {
      "midi": 74,
      "hit": false,
      "t": 228683.33333333372,
      "d": 683.333333333343,
      "v": 83
    },
    {
      "midi": 62,
      "hit": false,
      "t": 228683.33333333372,
      "d": 2383.333333333372,
      "v": 97
    },
    {
      "midi": 57,
      "hit": false,
      "t": 228799.99999999956,
      "d": 2166.666666666686,
      "v": 77
    },
    {
      "midi": 62,
      "hit": false,
      "t": 228899.99999999956,
      "d": 2383.333333333343,
      "v": 108
    },
    {
      "midi": 65,
      "hit": false,
      "t": 229016.66666666706,
      "d": 416.66666666665697,
      "v": 73
    },
    {
      "midi": 72,
      "hit": false,
      "t": 229350.0000000004,
      "d": 716.666666666657,
      "v": 88
    },
    {
      "midi": 65,
      "hit": false,
      "t": 229683.33333333372,
      "d": 366.66666666668607,
      "v": 79
    },
    {
      "midi": 71,
      "hit": false,
      "t": 230016.66666666706,
      "d": 700.0000000000291,
      "v": 91
    },
    {
      "midi": 65,
      "hit": false,
      "t": 230350.0000000004,
      "d": 400.0000000000291,
      "v": 75
    },
    {
      "midi": 72,
      "hit": false,
      "t": 230683.33333333375,
      "d": 333.33333333334303,
      "v": 94
    },
    {
      "midi": 69,
      "hit": false,
      "t": 231016.6666666671,
      "d": 250,
      "v": 83
    },
    {
      "midi": 69,
      "hit": false,
      "t": 231350.00000000044,
      "d": 716.6666666666861,
      "v": 127
    },
    {
      "midi": 57,
      "hit": false,
      "t": 231366.66666666625,
      "d": 4066.666666666657,
      "v": 88
    },
    {
      "midi": 60,
      "hit": false,
      "t": 231466.66666666625,
      "d": 3950,
      "v": 79
    },
    {
      "midi": 64,
      "hit": false,
      "t": 231533.3333333329,
      "d": 3916.666666666657,
      "v": 101
    },
    {
      "midi": 64,
      "hit": false,
      "t": 231683.33333333378,
      "d": 366.66666666668607,
      "v": 80
    },
    {
      "midi": 71,
      "hit": false,
      "t": 232016.66666666712,
      "d": 683.333333333343,
      "v": 112
    },
    {
      "midi": 64,
      "hit": false,
      "t": 232350.00000000047,
      "d": 416.66666666665697,
      "v": 84
    },
    {
      "midi": 72,
      "hit": false,
      "t": 232683.3333333338,
      "d": 683.3333333333139,
      "v": 127
    },
    {
      "midi": 64,
      "hit": false,
      "t": 233016.66666666712,
      "d": 333.33333333334303,
      "v": 90
    },
    {
      "midi": 74,
      "hit": false,
      "t": 233350.00000000047,
      "d": 316.66666666665697,
      "v": 127
    },
    {
      "midi": 64,
      "hit": false,
      "t": 233683.33333333378,
      "d": 300,
      "v": 97
    },
    {
      "midi": 76,
      "hit": false,
      "t": 234016.66666666712,
      "d": 316.66666666665697,
      "v": 127
    },
    {
      "midi": 64,
      "hit": false,
      "t": 234350.00000000044,
      "d": 233.33333333334303,
      "v": 94
    },
    {
      "midi": 77,
      "hit": false,
      "t": 234666.66666666712,
      "d": 550,
      "v": 124
    },
    {
      "midi": 69,
      "hit": false,
      "t": 235000.00000000047,
      "d": 283.33333333331393,
      "v": 121
    },
    {
      "midi": 79,
      "hit": false,
      "t": 235333.33333333378,
      "d": 316.66666666665697,
      "v": 127
    },
    {
      "midi": 67,
      "hit": false,
      "t": 235666.6666666671,
      "d": 583.333333333343,
      "v": 94
    },
    {
      "midi": 81,
      "hit": false,
      "t": 236000.00000000044,
      "d": 566.666666666657,
      "v": 127
    },
    {
      "midi": 72,
      "hit": false,
      "t": 236666.6666666671,
      "d": 266.66666666665697,
      "v": 94
    },
    {
      "midi": 81,
      "hit": false,
      "t": 236666.6666666671,
      "d": 616.666666666657,
      "v": 101
    },
    {
      "midi": 57,
      "hit": false,
      "t": 236666.6666666671,
      "d": 2016.666666666686,
      "v": 101
    },
    {
      "midi": 60,
      "hit": false,
      "t": 236999.99999999956,
      "d": 66.66666666665697,
      "v": 70
    },
    {
      "midi": 64,
      "hit": false,
      "t": 236999.99999999956,
      "d": 66.66666666665697,
      "v": 81
    },
    {
      "midi": 57,
      "hit": false,
      "t": 236999.99999999956,
      "d": 100,
      "v": 70
    },
    {
      "midi": 64,
      "hit": false,
      "t": 237000.0000000004,
      "d": 950.0000000000291,
      "v": 101
    },
    {
      "midi": 60,
      "hit": false,
      "t": 237333.3333333329,
      "d": 116.66666666665697,
      "v": 97
    },
    {
      "midi": 64,
      "hit": false,
      "t": 237333.3333333329,
      "d": 116.66666666665697,
      "v": 97
    },
    {
      "midi": 57,
      "hit": false,
      "t": 237333.3333333329,
      "d": 133.33333333331393,
      "v": 91
    },
    {
      "midi": 69,
      "hit": false,
      "t": 237333.33333333375,
      "d": 333.33333333334303,
      "v": 75
    },
    {
      "midi": 72,
      "hit": false,
      "t": 237666.6666666671,
      "d": 383.33333333334303,
      "v": 97
    },
    {
      "midi": 71,
      "hit": false,
      "t": 238000.00000000044,
      "d": 650.0000000000291,
      "v": 113
    },
    {
      "midi": 64,
      "hit": false,
      "t": 238333.33333333378,
      "d": 283.33333333334303,
      "v": 54
    },
    {
      "midi": 67,
      "hit": false,
      "t": 238666.66666666712,
      "d": 333.33333333331393,
      "v": 94
    },
    {
      "midi": 64,
      "hit": false,
      "t": 239000.00000000044,
      "d": 300,
      "v": 77
    },
    {
      "midi": 69,
      "hit": false,
      "t": 239333.33333333378,
      "d": 300,
      "v": 88
    },
    {
      "midi": 57,
      "hit": false,
      "t": 239333.33333333378,
      "d": 2050,
      "v": 88
    },
    {
      "midi": 60,
      "hit": false,
      "t": 239666.66666666622,
      "d": 66.66666666665697,
      "v": 68
    },
    {
      "midi": 64,
      "hit": false,
      "t": 239666.66666666622,
      "d": 66.66666666665697,
      "v": 75
    },
    {
      "midi": 57,
      "hit": false,
      "t": 239666.66666666622,
      "d": 83.33333333331393,
      "v": 63
    },
    {
      "midi": 64,
      "hit": false,
      "t": 239666.66666666712,
      "d": 883.3333333333139,
      "v": 77
    },
    {
      "midi": 57,
      "hit": false,
      "t": 239999.99999999953,
      "d": 133.33333333334303,
      "v": 86
    },
    {
      "midi": 60,
      "hit": false,
      "t": 239999.99999999953,
      "d": 133.33333333334303,
      "v": 97
    },
    {
      "midi": 64,
      "hit": false,
      "t": 239999.99999999953,
      "d": 133.33333333334303,
      "v": 94
    },
    {
      "midi": 69,
      "hit": false,
      "t": 240000.00000000047,
      "d": 266.66666666665697,
      "v": 73
    },
    {
      "midi": 57,
      "hit": false,
      "t": 240333.33333333288,
      "d": 100,
      "v": 86
    },
    {
      "midi": 60,
      "hit": false,
      "t": 240333.33333333288,
      "d": 100,
      "v": 91
    },
    {
      "midi": 64,
      "hit": false,
      "t": 240333.33333333288,
      "d": 116.66666666665697,
      "v": 91
    },
    {
      "midi": 72,
      "hit": false,
      "t": 240333.33333333378,
      "d": 350,
      "v": 101
    },
    {
      "midi": 71,
      "hit": false,
      "t": 240650.00000000044,
      "d": 666.6666666666861,
      "v": 104
    },
    {
      "midi": 64,
      "hit": false,
      "t": 240983.33333333378,
      "d": 333.33333333334303,
      "v": 57
    },
    {
      "midi": 67,
      "hit": false,
      "t": 241316.66666666712,
      "d": 316.66666666665697,
      "v": 88
    },
    {
      "midi": 64,
      "hit": false,
      "t": 241650.00000000044,
      "d": 333.33333333334303,
      "v": 73
    },
    {
      "midi": 69,
      "hit": false,
      "t": 241983.33333333378,
      "d": 333.33333333334303,
      "v": 91
    },
    {
      "midi": 57,
      "hit": false,
      "t": 241983.33333333378,
      "d": 1983.3333333334012,
      "v": 88
    },
    {
      "midi": 60,
      "hit": false,
      "t": 242316.6666666662,
      "d": 83.33333333334303,
      "v": 66
    },
    {
      "midi": 57,
      "hit": false,
      "t": 242316.6666666662,
      "d": 100,
      "v": 67
    },
    {
      "midi": 64,
      "hit": false,
      "t": 242316.6666666662,
      "d": 100,
      "v": 79
    },
    {
      "midi": 64,
      "hit": false,
      "t": 242316.66666666712,
      "d": 1050.000000000029,
      "v": 68
    },
    {
      "midi": 60,
      "hit": false,
      "t": 242649.99999999953,
      "d": 116.66666666665697,
      "v": 108
    },
    {
      "midi": 57,
      "hit": false,
      "t": 242649.99999999953,
      "d": 150,
      "v": 104
    },
    {
      "midi": 64,
      "hit": false,
      "t": 242649.99999999953,
      "d": 150,
      "v": 108
    },
    {
      "midi": 69,
      "hit": false,
      "t": 242650.00000000047,
      "d": 283.33333333334303,
      "v": 75
    },
    {
      "midi": 72,
      "hit": false,
      "t": 242983.3333333338,
      "d": 366.66666666668607,
      "v": 86
    },
    {
      "midi": 71,
      "hit": false,
      "t": 243316.66666666715,
      "d": 650.0000000000291,
      "v": 101
    },
    {
      "midi": 64,
      "hit": false,
      "t": 243650.0000000005,
      "d": 283.33333333334303,
      "v": 73
    },
    {
      "midi": 69,
      "hit": false,
      "t": 243983.33333333384,
      "d": 450,
      "v": 91
    },
    {
      "midi": 67,
      "hit": false,
      "t": 244650.0000000005,
      "d": 616.6666666666861,
      "v": 86
    },
    {
      "midi": 55,
      "hit": false,
      "t": 244650.0000000005,
      "d": 2300.000000000029,
      "v": 88
    },
    {
      "midi": 59,
      "hit": false,
      "t": 244983.33333333288,
      "d": 50,
      "v": 66
    },
    {
      "midi": 62,
      "hit": false,
      "t": 244983.33333333288,
      "d": 50,
      "v": 68
    },
    {
      "midi": 55,
      "hit": false,
      "t": 244983.33333333288,
      "d": 66.66666666665697,
      "v": 62
    },
    {
      "midi": 62,
      "hit": false,
      "t": 244983.33333333384,
      "d": 1316.666666666686,
      "v": 94
    },
    {
      "midi": 55,
      "hit": false,
      "t": 245316.6666666662,
      "d": 166.66666666665697,
      "v": 91
    },
    {
      "midi": 59,
      "hit": false,
      "t": 245316.6666666662,
      "d": 166.66666666665697,
      "v": 97
    },
    {
      "midi": 62,
      "hit": false,
      "t": 245316.6666666662,
      "d": 166.66666666665697,
      "v": 97
    },
    {
      "midi": 67,
      "hit": false,
      "t": 245316.66666666718,
      "d": 333.33333333334303,
      "v": 67
    },
    {
      "midi": 55,
      "hit": false,
      "t": 245649.9999999995,
      "d": 100,
      "v": 75
    },
    {
      "midi": 59,
      "hit": false,
      "t": 245649.9999999995,
      "d": 100,
      "v": 83
    },
    {
      "midi": 62,
      "hit": false,
      "t": 245649.9999999995,
      "d": 100,
      "v": 88
    },
    {
      "midi": 71,
      "hit": false,
      "t": 245650.00000000052,
      "d": 2300,
      "v": 91
    },
    {
      "midi": 67,
      "hit": false,
      "t": 246316.66666666718,
      "d": 300,
      "v": 81
    },
    {
      "midi": 62,
      "hit": false,
      "t": 246633.33333333384,
      "d": 133.33333333334303,
      "v": 83
    },
    {
      "midi": 62,
      "hit": false,
      "t": 246966.66666666718,
      "d": 333.33333333334303,
      "v": 66
    },
    {
      "midi": 55,
      "hit": false,
      "t": 247300.00000000052,
      "d": 1700,
      "v": 91
    },
    {
      "midi": 55,
      "hit": false,
      "t": 247633.33333333285,
      "d": 66.66666666665697,
      "v": 70
    },
    {
      "midi": 59,
      "hit": false,
      "t": 247633.33333333285,
      "d": 66.66666666665697,
      "v": 73
    },
    {
      "midi": 62,
      "hit": false,
      "t": 247633.33333333285,
      "d": 83.33333333331393,
      "v": 79
    },
    {
      "midi": 62,
      "hit": false,
      "t": 247633.33333333387,
      "d": 1333.333333333314,
      "v": 81
    },
    {
      "midi": 55,
      "hit": false,
      "t": 247966.66666666616,
      "d": 150,
      "v": 83
    },
    {
      "midi": 59,
      "hit": false,
      "t": 247966.66666666616,
      "d": 150,
      "v": 94
    },
    {
      "midi": 62,
      "hit": false,
      "t": 247966.66666666616,
      "d": 150,
      "v": 91
    },
    {
      "midi": 67,
      "hit": false,
      "t": 247966.66666666718,
      "d": 450,
      "v": 71
    },
    {
      "midi": 71,
      "hit": false,
      "t": 248300.00000000052,
      "d": 1300,
      "v": 86
    },
    {
      "midi": 67,
      "hit": false,
      "t": 248966.66666666718,
      "d": 300,
      "v": 73
    },
    {
      "midi": 62,
      "hit": false,
      "t": 249300.00000000052,
      "d": 283.33333333334303,
      "v": 81
    },
    {
      "midi": 55,
      "hit": false,
      "t": 249983.33333333387,
      "d": 2133.333333333343,
      "v": 113
    },
    {
      "midi": 55,
      "hit": false,
      "t": 250299.9999999995,
      "d": 66.66666666665697,
      "v": 59
    },
    {
      "midi": 59,
      "hit": false,
      "t": 250299.9999999995,
      "d": 66.66666666665697,
      "v": 64
    },
    {
      "midi": 62,
      "hit": false,
      "t": 250299.9999999995,
      "d": 83.33333333331393,
      "v": 79
    },
    {
      "midi": 62,
      "hit": false,
      "t": 250300.00000000052,
      "d": 733.333333333343,
      "v": 91
    },
    {
      "midi": 59,
      "hit": false,
      "t": 250633.33333333282,
      "d": 100,
      "v": 94
    },
    {
      "midi": 55,
      "hit": false,
      "t": 250633.33333333282,
      "d": 116.66666666665697,
      "v": 83
    },
    {
      "midi": 62,
      "hit": false,
      "t": 250633.33333333282,
      "d": 116.66666666665697,
      "v": 91
    },
    {
      "midi": 67,
      "hit": false,
      "t": 250633.33333333387,
      "d": 1050,
      "v": 77
    },
    {
      "midi": 59,
      "hit": false,
      "t": 250966.66666666613,
      "d": 100,
      "v": 91
    },
    {
      "midi": 55,
      "hit": false,
      "t": 250966.66666666613,
      "d": 116.66666666665697,
      "v": 75
    },
    {
      "midi": 62,
      "hit": false,
      "t": 250966.66666666613,
      "d": 116.66666666665697,
      "v": 91
    },
    {
      "midi": 71,
      "hit": false,
      "t": 250966.6666666672,
      "d": 1000,
      "v": 97
    },
    {
      "midi": 62,
      "hit": false,
      "t": 251300.00000000052,
      "d": 616.6666666666861,
      "v": 81
    },
    {
      "midi": 67,
      "hit": false,
      "t": 251950.00000000055,
      "d": 316.66666666665697,
      "v": 101
    },
    {
      "midi": 62,
      "hit": false,
      "t": 252266.6666666672,
      "d": 316.66666666665697,
      "v": 81
    },
    {
      "midi": 55,
      "hit": false,
      "t": 252600.00000000052,
      "d": 1933.333333333343,
      "v": 97
    },
    {
      "midi": 62,
      "hit": false,
      "t": 252933.33333333387,
      "d": 700,
      "v": 79
    },
    {
      "midi": 59,
      "hit": false,
      "t": 252949.99999999945,
      "d": 66.66666666665697,
      "v": 73
    },
    {
      "midi": 55,
      "hit": false,
      "t": 252949.99999999945,
      "d": 83.33333333331393,
      "v": 71
    },
    {
      "midi": 62,
      "hit": false,
      "t": 252949.99999999945,
      "d": 83.33333333331393,
      "v": 86
    },
    {
      "midi": 67,
      "hit": false,
      "t": 253266.6666666672,
      "d": 316.66666666665697,
      "v": 67
    },
    {
      "midi": 62,
      "hit": false,
      "t": 253283.33333333276,
      "d": 166.66666666665697,
      "v": 101
    },
    {
      "midi": 55,
      "hit": false,
      "t": 253283.33333333276,
      "d": 183.33333333331393,
      "v": 94
    },
    {
      "midi": 59,
      "hit": false,
      "t": 253283.33333333276,
      "d": 183.33333333331393,
      "v": 101
    },
    {
      "midi": 71,
      "hit": false,
      "t": 253600.00000000052,
      "d": 683.333333333343,
      "v": 101
    },
    {
      "midi": 67,
      "hit": false,
      "t": 254266.6666666672,
      "d": 316.66666666665697,
      "v": 91
    },
    {
      "midi": 62,
      "hit": false,
      "t": 254600.00000000052,
      "d": 566.666666666657,
      "v": 91
    },
    {
      "midi": 55,
      "hit": false,
      "t": 254916.66666666718,
      "d": 166.66666666665697,
      "v": 97
    },
    {
      "midi": 57,
      "hit": false,
      "t": 255250.00000000052,
      "d": 2050,
      "v": 104
    },
    {
      "midi": 64,
      "hit": false,
      "t": 255583.33333333387,
      "d": 1033.333333333314,
      "v": 64
    },
    {
      "midi": 64,
      "hit": false,
      "t": 255616.66666666607,
      "d": 50,
      "v": 73
    },
    {
      "midi": 60,
      "hit": false,
      "t": 255616.66666666607,
      "d": 66.66666666665697,
      "v": 60
    },
    {
      "midi": 57,
      "hit": false,
      "t": 255616.66666666607,
      "d": 83.33333333331393,
      "v": 59
    },
    {
      "midi": 64,
      "hit": false,
      "t": 255949.9999999994,
      "d": 83.33333333334303,
      "v": 75
    },
    {
      "midi": 57,
      "hit": false,
      "t": 255949.9999999994,
      "d": 100,
      "v": 58
    },
    {
      "midi": 60,
      "hit": false,
      "t": 255949.9999999994,
      "d": 100,
      "v": 71
    },
    {
      "midi": 69,
      "hit": false,
      "t": 255950.00000000052,
      "d": 316.66666666665697,
      "v": 63
    },
    {
      "midi": 60,
      "hit": false,
      "t": 256283.33333333273,
      "d": 166.66666666665697,
      "v": 97
    },
    {
      "midi": 64,
      "hit": false,
      "t": 256283.33333333273,
      "d": 166.66666666665697,
      "v": 97
    },
    {
      "midi": 57,
      "hit": false,
      "t": 256283.33333333273,
      "d": 183.33333333331393,
      "v": 91
    },
    {
      "midi": 72,
      "hit": false,
      "t": 256283.33333333384,
      "d": 366.66666666668607,
      "v": 91
    },
    {
      "midi": 71,
      "hit": false,
      "t": 256616.66666666718,
      "d": 666.6666666666861,
      "v": 104
    },
    {
      "midi": 64,
      "hit": false,
      "t": 256866.66666666718,
      "d": 383.33333333334303,
      "v": 63
    },
    {
      "midi": 69,
      "hit": false,
      "t": 257283.33333333387,
      "d": 316.66666666665697,
      "v": 101
    },
    {
      "midi": 64,
      "hit": false,
      "t": 257616.66666666718,
      "d": 333.33333333334303,
      "v": 81
    },
    {
      "midi": 57,
      "hit": false,
      "t": 257950.00000000052,
      "d": 2066.666666666715,
      "v": 101
    },
    {
      "midi": 64,
      "hit": false,
      "t": 258266.66666666605,
      "d": 66.66666666665697,
      "v": 77
    },
    {
      "midi": 57,
      "hit": false,
      "t": 258266.66666666605,
      "d": 83.33333333331393,
      "v": 68
    },
    {
      "midi": 60,
      "hit": false,
      "t": 258266.66666666605,
      "d": 83.33333333331393,
      "v": 67
    },
    {
      "midi": 64,
      "hit": false,
      "t": 258266.66666666718,
      "d": 483.33333333334303,
      "v": 75
    },
    {
      "midi": 60,
      "hit": false,
      "t": 258599.99999999936,
      "d": 183.33333333334303,
      "v": 97
    },
    {
      "midi": 57,
      "hit": false,
      "t": 258599.99999999936,
      "d": 200,
      "v": 91
    },
    {
      "midi": 64,
      "hit": false,
      "t": 258599.99999999936,
      "d": 200,
      "v": 97
    },
    {
      "midi": 69,
      "hit": false,
      "t": 258600.00000000052,
      "d": 566.6666666666861,
      "v": 79
    },
    {
      "midi": 64,
      "hit": false,
      "t": 258933.33333333387,
      "d": 416.66666666668607,
      "v": 61
    },
    {
      "midi": 71,
      "hit": false,
      "t": 259266.6666666672,
      "d": 666.6666666666861,
      "v": 94
    },
    {
      "midi": 64,
      "hit": false,
      "t": 259600.00000000055,
      "d": 366.66666666668607,
      "v": 64
    },
    {
      "midi": 72,
      "hit": false,
      "t": 259933.3333333339,
      "d": 1283.3333333333721,
      "v": 94
    },
    {
      "midi": 64,
      "hit": false,
      "t": 260266.66666666724,
      "d": 300,
      "v": 73
    },
    {
      "midi": 57,
      "hit": false,
      "t": 260600.00000000058,
      "d": 2050.000000000058,
      "v": 97
    },
    {
      "midi": 60,
      "hit": false,
      "t": 260933.3333333327,
      "d": 66.66666666665697,
      "v": 58
    },
    {
      "midi": 64,
      "hit": false,
      "t": 260933.3333333327,
      "d": 66.66666666665697,
      "v": 68
    },
    {
      "midi": 57,
      "hit": false,
      "t": 260933.3333333327,
      "d": 83.33333333331393,
      "v": 57
    },
    {
      "midi": 64,
      "hit": false,
      "t": 260933.33333333393,
      "d": 1000.0000000000291,
      "v": 75
    },
    {
      "midi": 57,
      "hit": false,
      "t": 261266.66666666602,
      "d": 233.33333333334303,
      "v": 91
    },
    {
      "midi": 60,
      "hit": false,
      "t": 261266.66666666602,
      "d": 233.33333333334303,
      "v": 94
    },
    {
      "midi": 64,
      "hit": false,
      "t": 261266.66666666602,
      "d": 233.33333333334303,
      "v": 97
    },
    {
      "midi": 69,
      "hit": false,
      "t": 261266.66666666727,
      "d": 283.33333333334303,
      "v": 61
    },
    {
      "midi": 60,
      "hit": false,
      "t": 261599.99999999936,
      "d": 100,
      "v": 71
    },
    {
      "midi": 57,
      "hit": false,
      "t": 261599.99999999936,
      "d": 116.66666666665697,
      "v": 63
    },
    {
      "midi": 64,
      "hit": false,
      "t": 261599.99999999936,
      "d": 116.66666666665697,
      "v": 81
    },
    {
      "midi": 72,
      "hit": false,
      "t": 261600.0000000006,
      "d": 366.66666666668607,
      "v": 81
    },
    {
      "midi": 71,
      "hit": false,
      "t": 261933.33333333395,
      "d": 683.3333333333721,
      "v": 101
    },
    {
      "midi": 64,
      "hit": false,
      "t": 262266.6666666673,
      "d": 416.66666666662786,
      "v": 57
    },
    {
      "midi": 69,
      "hit": false,
      "t": 262600.00000000064,
      "d": 300,
      "v": 91
    },
    {
      "midi": 64,
      "hit": false,
      "t": 262933.33333333395,
      "d": 283.33333333331393,
      "v": 83
    },
    {
      "midi": 57,
      "hit": false,
      "t": 263266.66666666727,
      "d": 2083.333333333314,
      "v": 101
    },
    {
      "midi": 64,
      "hit": false,
      "t": 263599.99999999936,
      "d": 50,
      "v": 70
    },
    {
      "midi": 60,
      "hit": false,
      "t": 263599.99999999936,
      "d": 66.66666666668607,
      "v": 61
    },
    {
      "midi": 57,
      "hit": false,
      "t": 263599.99999999936,
      "d": 83.33333333337214,
      "v": 62
    },
    {
      "midi": 64,
      "hit": false,
      "t": 263600.0000000006,
      "d": 350,
      "v": 79
    },
    {
      "midi": 60,
      "hit": false,
      "t": 263933.33333333273,
      "d": 200,
      "v": 88
    },
    {
      "midi": 57,
      "hit": false,
      "t": 263933.33333333273,
      "d": 216.66666666668607,
      "v": 83
    },
    {
      "midi": 64,
      "hit": false,
      "t": 263933.33333333273,
      "d": 216.66666666668607,
      "v": 94
    },
    {
      "midi": 69,
      "hit": false,
      "t": 263933.3333333339,
      "d": 633.3333333333721,
      "v": 88
    },
    {
      "midi": 64,
      "hit": false,
      "t": 264250.0000000006,
      "d": 400.0000000000582,
      "v": 63
    },
    {
      "midi": 71,
      "hit": false,
      "t": 264583.33333333395,
      "d": 700,
      "v": 94
    },
    {
      "midi": 64,
      "hit": false,
      "t": 264916.6666666673,
      "d": 399.9999999999418,
      "v": 63
    },
    {
      "midi": 72,
      "hit": false,
      "t": 265250.00000000064,
      "d": 699.9999999999418,
      "v": 94
    },
    {
      "midi": 57,
      "hit": false,
      "t": 265583.3333333339,
      "d": 100,
      "v": 88
    },
    {
      "midi": 64,
      "hit": false,
      "t": 265583.3333333339,
      "d": 316.66666666668607,
      "v": 73
    },
    {
      "midi": 71,
      "hit": false,
      "t": 265916.66666666727,
      "d": 633.3333333333139,
      "v": 91
    },
    {
      "midi": 55,
      "hit": false,
      "t": 265916.66666666727,
      "d": 1666.666666666686,
      "v": 101
    },
    {
      "midi": 59,
      "hit": false,
      "t": 266249.9999999994,
      "d": 83.33333333331393,
      "v": 66
    },
    {
      "midi": 62,
      "hit": false,
      "t": 266249.9999999994,
      "d": 83.33333333331393,
      "v": 70
    },
    {
      "midi": 55,
      "hit": false,
      "t": 266249.9999999994,
      "d": 100,
      "v": 62
    },
    {
      "midi": 62,
      "hit": false,
      "t": 266250.0000000006,
      "d": 1266.666666666686,
      "v": 86
    },
    {
      "midi": 59,
      "hit": false,
      "t": 266583.33333333273,
      "d": 200,
      "v": 97
    },
    {
      "midi": 55,
      "hit": false,
      "t": 266583.33333333273,
      "d": 216.66666666668607,
      "v": 94
    },
    {
      "midi": 62,
      "hit": false,
      "t": 266583.33333333273,
      "d": 216.66666666668607,
      "v": 97
    },
    {
      "midi": 67,
      "hit": false,
      "t": 266583.3333333339,
      "d": 316.66666666668607,
      "v": 75
    },
    {
      "midi": 59,
      "hit": false,
      "t": 266916.6666666661,
      "d": 100,
      "v": 77
    },
    {
      "midi": 62,
      "hit": false,
      "t": 266916.6666666661,
      "d": 100,
      "v": 86
    },
    {
      "midi": 55,
      "hit": false,
      "t": 266916.6666666661,
      "d": 116.66666666668607,
      "v": 68
    },
    {
      "midi": 71,
      "hit": false,
      "t": 266916.66666666727,
      "d": 666.6666666666861,
      "v": 83
    },
    {
      "midi": 67,
      "hit": false,
      "t": 267583.33333333395,
      "d": 316.66666666668607,
      "v": 97
    },
    {
      "midi": 62,
      "hit": false,
      "t": 267916.6666666673,
      "d": 333.33333333331393,
      "v": 86
    },
    {
      "midi": 55,
      "hit": false,
      "t": 268583.33333333395,
      "d": 2299.999999999942,
      "v": 101
    },
    {
      "midi": 55,
      "hit": false,
      "t": 268916.6666666661,
      "d": 83.33333333331393,
      "v": 57
    },
    {
      "midi": 59,
      "hit": false,
      "t": 268916.6666666661,
      "d": 83.33333333331393,
      "v": 60
    },
    {
      "midi": 62,
      "hit": false,
      "t": 268916.6666666661,
      "d": 83.33333333331393,
      "v": 68
    },
    {
      "midi": 62,
      "hit": false,
      "t": 268916.66666666727,
      "d": 1033.333333333314,
      "v": 81
    },
    {
      "midi": 55,
      "hit": false,
      "t": 269249.9999999994,
      "d": 166.66666666668607,
      "v": 86
    },
    {
      "midi": 59,
      "hit": false,
      "t": 269249.9999999994,
      "d": 166.66666666668607,
      "v": 88
    },
    {
      "midi": 62,
      "hit": false,
      "t": 269249.9999999994,
      "d": 166.66666666668607,
      "v": 94
    },
    {
      "midi": 67,
      "hit": false,
      "t": 269250.0000000006,
      "d": 316.66666666668607,
      "v": 67
    },
    {
      "midi": 71,
      "hit": false,
      "t": 269583.33333333395,
      "d": 2316.6666666665697,
      "v": 86
    },
    {
      "midi": 67,
      "hit": false,
      "t": 269916.66666666727,
      "d": 316.66666666662786,
      "v": 67
    },
    {
      "midi": 67,
      "hit": false,
      "t": 270566.6666666672,
      "d": 316.66666666668607,
      "v": 75
    },
    {
      "midi": 62,
      "hit": false,
      "t": 270900.0000000006,
      "d": 333.33333333331393,
      "v": 71
    },
    {
      "midi": 55,
      "hit": false,
      "t": 271233.3333333339,
      "d": 2333.333333333314,
      "v": 101
    },
    {
      "midi": 55,
      "hit": false,
      "t": 271566.6666666661,
      "d": 66.66666666668607,
      "v": 51
    },
    {
      "midi": 59,
      "hit": false,
      "t": 271566.6666666661,
      "d": 66.66666666668607,
      "v": 54
    },
    {
      "midi": 62,
      "hit": false,
      "t": 271566.6666666661,
      "d": 66.66666666668607,
      "v": 58
    },
    {
      "midi": 62,
      "hit": false,
      "t": 271566.6666666672,
      "d": 383.33333333331393,
      "v": 75
    },
    {
      "midi": 55,
      "hit": false,
      "t": 271899.9999999995,
      "d": 200,
      "v": 88
    },
    {
      "midi": 59,
      "hit": false,
      "t": 271899.9999999995,
      "d": 200,
      "v": 94
    },
    {
      "midi": 62,
      "hit": false,
      "t": 271899.9999999995,
      "d": 200,
      "v": 97
    },
    {
      "midi": 67,
      "hit": false,
      "t": 271900.0000000005,
      "d": 683.3333333333139,
      "v": 77
    },
    {
      "midi": 55,
      "hit": false,
      "t": 272233.3333333328,
      "d": 116.66666666668607,
      "v": 63
    },
    {
      "midi": 59,
      "hit": false,
      "t": 272233.3333333328,
      "d": 116.66666666668607,
      "v": 75
    },
    {
      "midi": 62,
      "hit": false,
      "t": 272233.3333333328,
      "d": 116.66666666668607,
      "v": 79
    },
    {
      "midi": 62,
      "hit": false,
      "t": 272233.33333333384,
      "d": 350,
      "v": 68
    },
    {
      "midi": 71,
      "hit": false,
      "t": 272566.66666666715,
      "d": 683.3333333333721,
      "v": 101
    },
    {
      "midi": 62,
      "hit": false,
      "t": 272900.0000000005,
      "d": 333.33333333331393,
      "v": 73
    },
    {
      "midi": 67,
      "hit": false,
      "t": 273233.33333333384,
      "d": 933.3333333333139,
      "v": 77
    },
    {
      "midi": 62,
      "hit": false,
      "t": 273566.6666666672,
      "d": 366.66666666662786,
      "v": 73
    },
    {
      "midi": 55,
      "hit": false,
      "t": 273900.0000000005,
      "d": 1033.333333333314,
      "v": 88
    },
    {
      "midi": 55,
      "hit": false,
      "t": 274233.3333333328,
      "d": 83.33333333331393,
      "v": 60
    },
    {
      "midi": 59,
      "hit": false,
      "t": 274233.3333333328,
      "d": 83.33333333331393,
      "v": 68
    },
    {
      "midi": 62,
      "hit": false,
      "t": 274233.3333333328,
      "d": 83.33333333331393,
      "v": 71
    },
    {
      "midi": 62,
      "hit": false,
      "t": 274233.33333333384,
      "d": 1050,
      "v": 79
    },
    {
      "midi": 55,
      "hit": false,
      "t": 274566.6666666661,
      "d": 166.66666666668607,
      "v": 83
    },
    {
      "midi": 59,
      "hit": false,
      "t": 274566.6666666661,
      "d": 166.66666666668607,
      "v": 91
    },
    {
      "midi": 62,
      "hit": false,
      "t": 274566.6666666661,
      "d": 166.66666666668607,
      "v": 91
    },
    {
      "midi": 67,
      "hit": false,
      "t": 274566.66666666715,
      "d": 350,
      "v": 70
    },
    {
      "midi": 71,
      "hit": false,
      "t": 274900.00000000047,
      "d": 666.6666666666861,
      "v": 104
    },
    {
      "midi": 55,
      "hit": false,
      "t": 275233.33333333384,
      "d": 716.6666666666279,
      "v": 68
    },
    {
      "midi": 67,
      "hit": false,
      "t": 275566.66666666715,
      "d": 300,
      "v": 86
    },
    {
      "midi": 62,
      "hit": false,
      "t": 275900.00000000047,
      "d": 616.6666666666861,
      "v": 91
    },
    {
      "midi": 55,
      "hit": false,
      "t": 276216.66666666715,
      "d": 150,
      "v": 101
    },
    {
      "midi": 57,
      "hit": false,
      "t": 276550.00000000047,
      "d": 2333.333333333314,
      "v": 113
    },
    {
      "midi": 57,
      "hit": false,
      "t": 276883.3333333328,
      "d": 100,
      "v": 64
    },
    {
      "midi": 64,
      "hit": false,
      "t": 276883.3333333328,
      "d": 100,
      "v": 83
    },
    {
      "midi": 60,
      "hit": false,
      "t": 276883.3333333328,
      "d": 116.66666666668607,
      "v": 73
    },
    {
      "midi": 64,
      "hit": false,
      "t": 276883.3333333338,
      "d": 1750,
      "v": 88
    },
    {
      "midi": 60,
      "hit": false,
      "t": 277216.66666666616,
      "d": 166.66666666668607,
      "v": 88
    },
    {
      "midi": 64,
      "hit": false,
      "t": 277216.66666666616,
      "d": 166.66666666668607,
      "v": 91
    },
    {
      "midi": 57,
      "hit": false,
      "t": 277216.66666666616,
      "d": 183.33333333337214,
      "v": 83
    },
    {
      "midi": 69,
      "hit": false,
      "t": 277216.6666666671,
      "d": 2066.666666666686,
      "v": 67
    },
    {
      "midi": 72,
      "hit": false,
      "t": 277550.0000000004,
      "d": 600,
      "v": 91
    },
    {
      "midi": 76,
      "hit": false,
      "t": 278216.6666666671,
      "d": 1666.666666666686,
      "v": 108
    },
    {
      "midi": 64,
      "hit": false,
      "t": 278883.3333333338,
      "d": 333.33333333331393,
      "v": 63
    },
    {
      "midi": 57,
      "hit": false,
      "t": 279216.6666666671,
      "d": 2333.333333333314,
      "v": 108
    },
    {
      "midi": 64,
      "hit": false,
      "t": 279549.99999999953,
      "d": 50,
      "v": 62
    },
    {
      "midi": 57,
      "hit": false,
      "t": 279549.99999999953,
      "d": 66.66666666668607,
      "v": 54
    },
    {
      "midi": 60,
      "hit": false,
      "t": 279549.99999999953,
      "d": 83.33333333337214,
      "v": 57
    },
    {
      "midi": 64,
      "hit": false,
      "t": 279550.00000000047,
      "d": 1399.9999999999418,
      "v": 77
    },
    {
      "midi": 57,
      "hit": false,
      "t": 279883.3333333329,
      "d": 166.66666666668607,
      "v": 91
    },
    {
      "midi": 60,
      "hit": false,
      "t": 279883.3333333329,
      "d": 166.66666666668607,
      "v": 97
    },
    {
      "midi": 64,
      "hit": false,
      "t": 279883.3333333329,
      "d": 166.66666666668607,
      "v": 94
    },
    {
      "midi": 69,
      "hit": false,
      "t": 279883.3333333338,
      "d": 766.6666666666279,
      "v": 79
    },
    {
      "midi": 57,
      "hit": false,
      "t": 280216.6666666663,
      "d": 100,
      "v": 67
    },
    {
      "midi": 64,
      "hit": false,
      "t": 280216.6666666663,
      "d": 100,
      "v": 81
    },
    {
      "midi": 60,
      "hit": false,
      "t": 280216.6666666663,
      "d": 116.66666666668607,
      "v": 75
    },
    {
      "midi": 72,
      "hit": false,
      "t": 280216.6666666671,
      "d": 1666.666666666686,
      "v": 86
    },
    {
      "midi": 69,
      "hit": false,
      "t": 280883.3333333337,
      "d": 983.3333333333721,
      "v": 73
    },
    {
      "midi": 64,
      "hit": false,
      "t": 281550.0000000004,
      "d": 316.66666666668607,
      "v": 79
    },
    {
      "midi": 57,
      "hit": false,
      "t": 281883.3333333338,
      "d": 2050,
      "v": 104
    },
    {
      "midi": 57,
      "hit": false,
      "t": 282199.99999999965,
      "d": 66.66666666668607,
      "v": 62
    },
    {
      "midi": 64,
      "hit": false,
      "t": 282199.99999999965,
      "d": 66.66666666668607,
      "v": 68
    },
    {
      "midi": 60,
      "hit": false,
      "t": 282199.99999999965,
      "d": 83.33333333337214,
      "v": 67
    },
    {
      "midi": 64,
      "hit": false,
      "t": 282200.00000000047,
      "d": 1366.6666666666279,
      "v": 81
    },
    {
      "midi": 60,
      "hit": false,
      "t": 282533.333333333,
      "d": 166.66666666668607,
      "v": 101
    },
    {
      "midi": 64,
      "hit": false,
      "t": 282533.333333333,
      "d": 166.66666666668607,
      "v": 97
    },
    {
      "midi": 57,
      "hit": false,
      "t": 282533.333333333,
      "d": 183.33333333337214,
      "v": 91
    },
    {
      "midi": 69,
      "hit": false,
      "t": 282533.3333333338,
      "d": 2033.3333333333721,
      "v": 62
    },
    {
      "midi": 72,
      "hit": false,
      "t": 282866.6666666671,
      "d": 666.6666666666861,
      "v": 83
    },
    {
      "midi": 76,
      "hit": false,
      "t": 283533.3333333338,
      "d": 683.3333333333721,
      "v": 97
    },
    {
      "midi": 64,
      "hit": false,
      "t": 283866.6666666671,
      "d": 650.0000000000582,
      "v": 77
    },
    {
      "midi": 57,
      "hit": false,
      "t": 284199.9999999997,
      "d": 50,
      "v": 68
    },
    {
      "midi": 60,
      "hit": false,
      "t": 284199.9999999997,
      "d": 50,
      "v": 71
    },
    {
      "midi": 64,
      "hit": false,
      "t": 284199.9999999997,
      "d": 66.66666666668607,
      "v": 81
    },
    {
      "midi": 72,
      "hit": false,
      "t": 284200.00000000047,
      "d": 950,
      "v": 79
    },
    {
      "midi": 57,
      "hit": false,
      "t": 284533.33333333384,
      "d": 2266.666666666628,
      "v": 108
    },
    {
      "midi": 57,
      "hit": false,
      "t": 284866.6666666664,
      "d": 83.33333333331393,
      "v": 57
    },
    {
      "midi": 64,
      "hit": false,
      "t": 284866.6666666664,
      "d": 83.33333333331393,
      "v": 66
    },
    {
      "midi": 60,
      "hit": false,
      "t": 284866.6666666664,
      "d": 100,
      "v": 61
    },
    {
      "midi": 64,
      "hit": false,
      "t": 284866.66666666715,
      "d": 783.3333333333139,
      "v": 83
    },
    {
      "midi": 64,
      "hit": false,
      "t": 285199.9999999997,
      "d": 150,
      "v": 91
    },
    {
      "midi": 57,
      "hit": false,
      "t": 285199.9999999997,
      "d": 166.66666666668607,
      "v": 86
    },
    {
      "midi": 60,
      "hit": false,
      "t": 285199.9999999997,
      "d": 166.66666666668607,
      "v": 94
    },
    {
      "midi": 69,
      "hit": false,
      "t": 285200.00000000047,
      "d": 950,
      "v": 71
    },
    {
      "midi": 60,
      "hit": false,
      "t": 285533.3333333331,
      "d": 100,
      "v": 88
    },
    {
      "midi": 57,
      "hit": false,
      "t": 285533.3333333331,
      "d": 116.66666666668607,
      "v": 75
    },
    {
      "midi": 64,
      "hit": false,
      "t": 285533.3333333331,
      "d": 116.66666666668607,
      "v": 88
    },
    {
      "midi": 72,
      "hit": false,
      "t": 285533.3333333338,
      "d": 1300,
      "v": 88
    },
    {
      "midi": 64,
      "hit": false,
      "t": 286200.00000000047,
      "d": 999.9999999999418,
      "v": 61
    },
    {
      "midi": 69,
      "hit": false,
      "t": 286533.3333333338,
      "d": 633.3333333333139,
      "v": 77
    },
    {
      "midi": 76,
      "hit": false,
      "t": 286866.6666666671,
      "d": 983.3333333333139,
      "v": 94
    },
    {
      "midi": 57,
      "hit": false,
      "t": 287200.0000000004,
      "d": 2366.666666666686,
      "v": 94
    },
    {
      "midi": 57,
      "hit": false,
      "t": 287533.3333333331,
      "d": 66.66666666668607,
      "v": 62
    },
    {
      "midi": 60,
      "hit": false,
      "t": 287533.3333333331,
      "d": 83.33333333337214,
      "v": 61
    },
    {
      "midi": 64,
      "hit": false,
      "t": 287533.3333333331,
      "d": 83.33333333337214,
      "v": 73
    },
    {
      "midi": 64,
      "hit": false,
      "t": 287533.3333333337,
      "d": 1733.3333333333721,
      "v": 79
    },
    {
      "midi": 57,
      "hit": false,
      "t": 287866.66666666645,
      "d": 150,
      "v": 88
    },
    {
      "midi": 60,
      "hit": false,
      "t": 287866.66666666645,
      "d": 150,
      "v": 94
    },
    {
      "midi": 64,
      "hit": false,
      "t": 287866.66666666645,
      "d": 150,
      "v": 97
    },
    {
      "midi": 69,
      "hit": false,
      "t": 287866.6666666671,
      "d": 533.3333333333721,
      "v": 66
    },
    {
      "midi": 72,
      "hit": false,
      "t": 288183.3333333338,
      "d": 1000,
      "v": 97
    },
    {
      "midi": 57,
      "hit": false,
      "t": 288849.99999999977,
      "d": 66.66666666668607,
      "v": 54
    },
    {
      "midi": 60,
      "hit": false,
      "t": 288849.99999999977,
      "d": 66.66666666668607,
      "v": 58
    },
    {
      "midi": 64,
      "hit": false,
      "t": 288849.99999999977,
      "d": 66.66666666668607,
      "v": 57
    },
    {
      "midi": 69,
      "hit": false,
      "t": 288850.00000000047,
      "d": 699.9999999999418,
      "v": 62
    },
    {
      "midi": 76,
      "hit": false,
      "t": 289183.3333333338,
      "d": 366.66666666662786,
      "v": 97
    },
    {
      "midi": 60,
      "hit": false,
      "t": 289516.66666666645,
      "d": 133.33333333331393,
      "v": 83
    },
    {
      "midi": 57,
      "hit": false,
      "t": 289516.66666666645,
      "d": 150,
      "v": 81
    },
    {
      "midi": 64,
      "hit": false,
      "t": 289516.66666666645,
      "d": 150,
      "v": 88
    },
    {
      "midi": 64,
      "hit": false,
      "t": 289516.6666666671,
      "d": 333.33333333331393,
      "v": 68
    },
    {
      "midi": 72,
      "hit": false,
      "t": 289516.6666666671,
      "d": 333.33333333331393,
      "v": 77
    },
    {
      "midi": 57,
      "hit": false,
      "t": 289850.0000000004,
      "d": 2366.666666666628,
      "v": 83
    },
    {
      "midi": 69,
      "hit": false,
      "t": 289850.0000000004,
      "d": 2533.333333333314,
      "v": 86
    },
    {
      "midi": 60,
      "hit": false,
      "t": 290183.33333333314,
      "d": 50,
      "v": 63
    },
    {
      "midi": 57,
      "hit": false,
      "t": 290183.33333333314,
      "d": 66.66666666668607,
      "v": 59
    },
    {
      "midi": 64,
      "hit": false,
      "t": 290183.33333333314,
      "d": 66.66666666668607,
      "v": 70
    },
    {
      "midi": 64,
      "hit": false,
      "t": 290183.3333333337,
      "d": 2000,
      "v": 73
    },
    {
      "midi": 57,
      "hit": false,
      "t": 290516.6666666665,
      "d": 200,
      "v": 83
    },
    {
      "midi": 60,
      "hit": false,
      "t": 290516.6666666665,
      "d": 200,
      "v": 88
    },
    {
      "midi": 64,
      "hit": false,
      "t": 290516.6666666665,
      "d": 216.66666666668607,
      "v": 97
    },
    {
      "midi": 72,
      "hit": false,
      "t": 290516.66666666704,
      "d": 350,
      "v": 70
    },
    {
      "midi": 57,
      "hit": false,
      "t": 290849.9999999999,
      "d": 66.66666666668607,
      "v": 86
    },
    {
      "midi": 60,
      "hit": false,
      "t": 290849.9999999999,
      "d": 83.33333333337214,
      "v": 94
    },
    {
      "midi": 64,
      "hit": false,
      "t": 290849.9999999999,
      "d": 100.00000000005821,
      "v": 97
    },
    {
      "midi": 76,
      "hit": false,
      "t": 290850.00000000035,
      "d": 633.3333333333721,
      "v": 97
    },
    {
      "midi": 72,
      "hit": false,
      "t": 291516.66666666704,
      "d": 866.6666666666861,
      "v": 86
    },
    {
      "midi": 81,
      "hit": false,
      "t": 291850.00000000035,
      "d": 316.66666666668607,
      "v": 75
    },
    {
      "midi": 76,
      "hit": false,
      "t": 292183.3333333337,
      "d": 216.66666666668607,
      "v": 81
    },
    {
      "midi": 57,
      "hit": false,
      "t": 292516.6666666671,
      "d": 2049.999999999942,
      "v": 104
    },
    {
      "midi": 57,
      "hit": false,
      "t": 292849.99999999994,
      "d": 66.66666666668607,
      "v": 60
    },
    {
      "midi": 64,
      "hit": false,
      "t": 292849.99999999994,
      "d": 66.66666666668607,
      "v": 66
    },
    {
      "midi": 60,
      "hit": false,
      "t": 292849.99999999994,
      "d": 83.33333333337214,
      "v": 65
    },
    {
      "midi": 64,
      "hit": false,
      "t": 292850.0000000004,
      "d": 1349.9999999999418,
      "v": 79
    },
    {
      "midi": 57,
      "hit": false,
      "t": 293183.3333333333,
      "d": 166.66666666668607,
      "v": 86
    },
    {
      "midi": 60,
      "hit": false,
      "t": 293183.3333333333,
      "d": 166.66666666668607,
      "v": 95
    },
    {
      "midi": 64,
      "hit": false,
      "t": 293183.3333333333,
      "d": 166.66666666668607,
      "v": 92
    },
    {
      "midi": 69,
      "hit": false,
      "t": 293183.3333333337,
      "d": 2016.666666666686,
      "v": 58
    },
    {
      "midi": 72,
      "hit": false,
      "t": 293516.66666666704,
      "d": 650,
      "v": 77
    },
    {
      "midi": 76,
      "hit": false,
      "t": 294166.66666666704,
      "d": 683.3333333333721,
      "v": 85
    },
    {
      "midi": 64,
      "hit": false,
      "t": 294500.00000000035,
      "d": 650.0000000000582,
      "v": 65
    },
    {
      "midi": 57,
      "hit": false,
      "t": 294833.3333333333,
      "d": 66.66666666668607,
      "v": 56
    },
    {
      "midi": 60,
      "hit": false,
      "t": 294833.3333333333,
      "d": 66.66666666668607,
      "v": 58
    },
    {
      "midi": 64,
      "hit": false,
      "t": 294833.3333333333,
      "d": 66.66666666668607,
      "v": 67
    },
    {
      "midi": 72,
      "hit": false,
      "t": 294833.3333333337,
      "d": 950,
      "v": 65
    },
    {
      "midi": 57,
      "hit": false,
      "t": 295166.6666666671,
      "d": 2283.3333333332557,
      "v": 86
    },
    {
      "midi": 57,
      "hit": false,
      "t": 295500,
      "d": 83.33333333331393,
      "v": 44
    },
    {
      "midi": 64,
      "hit": false,
      "t": 295500,
      "d": 83.33333333331393,
      "v": 51
    },
    {
      "midi": 60,
      "hit": false,
      "t": 295500,
      "d": 100,
      "v": 47
    },
    {
      "midi": 64,
      "hit": false,
      "t": 295500.0000000004,
      "d": 783.3333333333139,
      "v": 64
    },
    {
      "midi": 64,
      "hit": false,
      "t": 295833.3333333333,
      "d": 150,
      "v": 68
    },
    {
      "midi": 57,
      "hit": false,
      "t": 295833.3333333333,
      "d": 166.66666666668607,
      "v": 64
    },
    {
      "midi": 60,
      "hit": false,
      "t": 295833.3333333333,
      "d": 166.66666666668607,
      "v": 70
    },
    {
      "midi": 69,
      "hit": false,
      "t": 295833.3333333337,
      "d": 950,
      "v": 53
    },
    {
      "midi": 60,
      "hit": false,
      "t": 296166.6666666667,
      "d": 100,
      "v": 64
    },
    {
      "midi": 57,
      "hit": false,
      "t": 296166.6666666667,
      "d": 116.66666666668607,
      "v": 54
    },
    {
      "midi": 64,
      "hit": false,
      "t": 296166.6666666667,
      "d": 116.66666666668607,
      "v": 64
    },
    {
      "midi": 72,
      "hit": false,
      "t": 296166.66666666704,
      "d": 1300,
      "v": 64
    },
    {
      "midi": 64,
      "hit": false,
      "t": 296833.3333333337,
      "d": 999.9999999999418,
      "v": 41
    },
    {
      "midi": 69,
      "hit": false,
      "t": 297166.66666666704,
      "d": 633.3333333333139,
      "v": 50
    },
    {
      "midi": 76,
      "hit": false,
      "t": 297500.00000000035,
      "d": 983.3333333333139,
      "v": 59
    },
    {
      "midi": 57,
      "hit": false,
      "t": 297833.33333333366,
      "d": 2366.666666666686,
      "v": 56
    },
    {
      "midi": 57,
      "hit": false,
      "t": 298166.6666666667,
      "d": 66.66666666668607,
      "v": 35
    },
    {
      "midi": 60,
      "hit": false,
      "t": 298166.6666666667,
      "d": 83.33333333337214,
      "v": 35
    },
    {
      "midi": 64,
      "hit": false,
      "t": 298166.6666666667,
      "d": 83.33333333337214,
      "v": 42
    },
    {
      "midi": 64,
      "hit": false,
      "t": 298166.666666667,
      "d": 1733.3333333333721,
      "v": 45
    },
    {
      "midi": 57,
      "hit": false,
      "t": 298500.00000000006,
      "d": 166.66666666668607,
      "v": 30
    },
    {
      "midi": 60,
      "hit": false,
      "t": 298500.00000000006,
      "d": 166.66666666668607,
      "v": 30
    },
    {
      "midi": 64,
      "hit": false,
      "t": 298500.00000000006,
      "d": 166.66666666668607,
      "v": 30
    },
    {
      "midi": 69,
      "hit": false,
      "t": 298500.00000000035,
      "d": 533.3333333333139,
      "v": 40
    },
    {
      "midi": 72,
      "hit": false,
      "t": 298833.33333333366,
      "d": 983.3333333333721,
      "v": 35
    },
    {
      "midi": 57,
      "hit": false,
      "t": 299500.00000000006,
      "d": 50,
      "v": 24
    },
    {
      "midi": 64,
      "hit": false,
      "t": 299500.00000000006,
      "d": 50,
      "v": 23
    },
    {
      "midi": 60,
      "hit": false,
      "t": 299500.00000000006,
      "d": 66.66666666668607,
      "v": 27
    },
    {
      "midi": 69,
      "hit": false,
      "t": 299500.00000000035,
      "d": 683.3333333333139,
      "v": 32
    },
    {
      "midi": 76,
      "hit": false,
      "t": 299816.66666666704,
      "d": 366.66666666662786,
      "v": 28
    },
    {
      "midi": 60,
      "hit": false,
      "t": 300150.00000000006,
      "d": 133.33333333331393,
      "v": 17
    },
    {
      "midi": 57,
      "hit": false,
      "t": 300150.00000000006,
      "d": 150,
      "v": 20
    },
    {
      "midi": 64,
      "hit": false,
      "t": 300150.00000000006,
      "d": 150,
      "v": 20
    },
    {
      "midi": 64,
      "hit": false,
      "t": 300150.00000000035,
      "d": 333.33333333331393,
      "v": 26
    },
    {
      "midi": 72,
      "hit": false,
      "t": 300150.00000000035,
      "d": 333.33333333331393,
      "v": 23
    },
    {
      "midi": 57,
      "hit": false,
      "t": 300483.33333333366,
      "d": 2366.666666666686,
      "v": 20
    },
    {
      "midi": 69,
      "hit": false,
      "t": 300483.33333333366,
      "d": 2533.333333333372,
      "v": 18
    },
    {
      "midi": 57,
      "hit": false,
      "t": 300816.66666666674,
      "d": 66.66666666668607,
      "v": 17
    },
    {
      "midi": 60,
      "hit": false,
      "t": 300816.66666666674,
      "d": 66.66666666668607,
      "v": 23
    },
    {
      "midi": 64,
      "hit": false,
      "t": 300816.66666666674,
      "d": 66.66666666668607,
      "v": 17
    },
    {
      "midi": 64,
      "hit": false,
      "t": 300816.666666667,
      "d": 2016.666666666686,
      "v": 16
    },
    {
      "midi": 57,
      "hit": false,
      "t": 301150.0000000001,
      "d": 200,
      "v": 12
    },
    {
      "midi": 60,
      "hit": false,
      "t": 301150.0000000001,
      "d": 200,
      "v": 12
    },
    {
      "midi": 64,
      "hit": false,
      "t": 301150.0000000001,
      "d": 233.33333333331393,
      "v": 12
    },
    {
      "midi": 72,
      "hit": false,
      "t": 301150.0000000003,
      "d": 350,
      "v": 14
    },
    {
      "midi": 57,
      "hit": false,
      "t": 301483.33333333343,
      "d": 66.66666666668607,
      "v": 2
    },
    {
      "midi": 60,
      "hit": false,
      "t": 301483.33333333343,
      "d": 83.33333333337214,
      "v": 6
    },
    {
      "midi": 64,
      "hit": false,
      "t": 301483.33333333343,
      "d": 100.00000000005821,
      "v": 6
    },
    {
      "midi": 76,
      "hit": false,
      "t": 301483.3333333336,
      "d": 633.3333333333721,
      "v": 12
    },
    {
      "midi": 72,
      "hit": false,
      "t": 302150.0000000003,
      "d": 866.6666666667443,
      "v": 10
    },
    {
      "midi": 81,
      "hit": false,
      "t": 302483.3333333336,
      "d": 316.66666666668607,
      "v": 8
    },
    {
      "midi": 76,
      "hit": false,
      "t": 302816.666666667,
      "d": 216.66666666674428,
      "v": 5
    },
    {
      "midi": 57,
      "hit": false,
      "t": 303150.0000000004,
      "d": 2050,
      "v": 3
    }
  ]
}