{
  "jsonPath": "Classical/Classical Piano/Van Cliburn/intermezzo-in-c-op-119no-3.json",
  "path": "Classical\\Classical Piano\\Van Cliburn\\Intermezzo in C_ Op 119No 3.mid",
  "name": "Intermezzo in C_ Op 119No 3",
  "difficulty": "Advanced",
  "bpm": 120,
  "notes": [
    {
      "midi": 76,
      "hit": false,
      "t": 3171.8749999999995,
      "d": 65.10416666666652,
      "v": 59
    },
    {
      "midi": 64,
      "hit": false,
      "t": 3174.479166666666,
      "d": 54.6875,
      "v": 48
    },
    {
      "midi": 36,
      "hit": false,
      "t": 3174.479166666666,
      "d": 57.291666666666515,
      "v": 34
    },
    {
      "midi": 72,
      "hit": false,
      "t": 3192.7083333333326,
      "d": 72.91666666666697,
      "v": 39
    },
    {
      "midi": 48,
      "hit": false,
      "t": 3403.645833333333,
      "d": 62.500000000000455,
      "v": 49
    },
    {
      "midi": 76,
      "hit": false,
      "t": 3416.6666666666665,
      "d": 57.29166666666697,
      "v": 53
    },
    {
      "midi": 67,
      "hit": false,
      "t": 3421.875,
      "d": 52.083333333333485,
      "v": 53
    },
    {
      "midi": 72,
      "hit": false,
      "t": 3427.0833333333335,
      "d": 72.91666666666652,
      "v": 34
    },
    {
      "midi": 52,
      "hit": false,
      "t": 3630.2083333333335,
      "d": 41.66666666666697,
      "v": 66
    },
    {
      "midi": 76,
      "hit": false,
      "t": 3640.625,
      "d": 54.687500000000455,
      "v": 59
    },
    {
      "midi": 69,
      "hit": false,
      "t": 3645.8333333333335,
      "d": 52.083333333333485,
      "v": 55
    },
    {
      "midi": 72,
      "hit": false,
      "t": 3651.041666666667,
      "d": 67.70833333333348,
      "v": 25
    },
    {
      "midi": 60,
      "hit": false,
      "t": 3911.458333333334,
      "d": 187.5,
      "v": 53
    },
    {
      "midi": 67,
      "hit": false,
      "t": 3916.6666666666674,
      "d": 369.7916666666665,
      "v": 64
    },
    {
      "midi": 76,
      "hit": false,
      "t": 3924.4791666666674,
      "d": 304.68749999999955,
      "v": 65
    },
    {
      "midi": 72,
      "hit": false,
      "t": 3932.2916666666674,
      "d": 330.7291666666665,
      "v": 53
    },
    {
      "midi": 52,
      "hit": false,
      "t": 4213.541666666667,
      "d": 52.08333333333394,
      "v": 39
    },
    {
      "midi": 48,
      "hit": false,
      "t": 4427.083333333334,
      "d": 70.3125,
      "v": 55
    },
    {
      "midi": 64,
      "hit": false,
      "t": 4437.500000000001,
      "d": 52.08333333333303,
      "v": 70
    },
    {
      "midi": 76,
      "hit": false,
      "t": 4653.645833333334,
      "d": 111.97916666666788,
      "v": 92
    },
    {
      "midi": 67,
      "hit": false,
      "t": 4656.250000000001,
      "d": 98.95833333333394,
      "v": 87
    },
    {
      "midi": 72,
      "hit": false,
      "t": 4666.666666666668,
      "d": 62.5,
      "v": 76
    },
    {
      "midi": 36,
      "hit": false,
      "t": 4669.270833333335,
      "d": 111.97916666666697,
      "v": 63
    },
    {
      "midi": 69,
      "hit": false,
      "t": 4864.583333333335,
      "d": 83.33333333333303,
      "v": 90
    },
    {
      "midi": 76,
      "hit": false,
      "t": 4864.583333333335,
      "d": 104.16666666666606,
      "v": 71
    },
    {
      "midi": 48,
      "hit": false,
      "t": 4885.416666666668,
      "d": 57.29166666666697,
      "v": 69
    },
    {
      "midi": 72,
      "hit": false,
      "t": 4888.020833333335,
      "d": 52.08333333333303,
      "v": 72
    },
    {
      "midi": 76,
      "hit": false,
      "t": 5065.104166666668,
      "d": 85.93750000000091,
      "v": 78
    },
    {
      "midi": 67,
      "hit": false,
      "t": 5065.104166666668,
      "d": 106.77083333333394,
      "v": 90
    },
    {
      "midi": 72,
      "hit": false,
      "t": 5078.125000000001,
      "d": 52.08333333333394,
      "v": 70
    },
    {
      "midi": 52,
      "hit": false,
      "t": 5088.541666666668,
      "d": 59.89583333333394,
      "v": 73
    },
    {
      "midi": 64,
      "hit": false,
      "t": 5276.041666666669,
      "d": 80.72916666666697,
      "v": 92
    },
    {
      "midi": 76,
      "hit": false,
      "t": 5286.458333333336,
      "d": 98.95833333333394,
      "v": 66
    },
    {
      "midi": 60,
      "hit": false,
      "t": 5291.666666666669,
      "d": 67.70833333333394,
      "v": 71
    },
    {
      "midi": 72,
      "hit": false,
      "t": 5299.479166666669,
      "d": 54.6875,
      "v": 67
    },
    {
      "midi": 76,
      "hit": false,
      "t": 5468.750000000003,
      "d": 104.16666666666697,
      "v": 82
    },
    {
      "midi": 67,
      "hit": false,
      "t": 5479.16666666667,
      "d": 49.47916666666697,
      "v": 91
    },
    {
      "midi": 72,
      "hit": false,
      "t": 5489.583333333337,
      "d": 62.5,
      "v": 71
    },
    {
      "midi": 52,
      "hit": false,
      "t": 5492.187500000004,
      "d": 39.0625,
      "v": 73
    },
    {
      "midi": 69,
      "hit": false,
      "t": 5682.29166666667,
      "d": 78.125,
      "v": 91
    },
    {
      "midi": 72,
      "hit": false,
      "t": 5687.500000000003,
      "d": 57.29166666666697,
      "v": 75
    },
    {
      "midi": 76,
      "hit": false,
      "t": 5690.10416666667,
      "d": 59.89583333333303,
      "v": 75
    },
    {
      "midi": 48,
      "hit": false,
      "t": 5705.72916666667,
      "d": 54.6875,
      "v": 62
    },
    {
      "midi": 76,
      "hit": false,
      "t": 5924.47916666667,
      "d": 304.6874999999991,
      "v": 78
    },
    {
      "midi": 40,
      "hit": false,
      "t": 5929.687500000003,
      "d": 177.08333333333303,
      "v": 55
    },
    {
      "midi": 67,
      "hit": false,
      "t": 5932.29166666667,
      "d": 359.3749999999991,
      "v": 71
    },
    {
      "midi": 71,
      "hit": false,
      "t": 5960.937500000003,
      "d": 221.35416666666606,
      "v": 50
    },
    {
      "midi": 52,
      "hit": false,
      "t": 6182.291666666669,
      "d": 67.70833333333303,
      "v": 54
    },
    {
      "midi": 64,
      "hit": false,
      "t": 6361.979166666669,
      "d": 44.27083333333303,
      "v": 63
    },
    {
      "midi": 55,
      "hit": false,
      "t": 6382.812500000002,
      "d": 52.08333333333303,
      "v": 67
    },
    {
      "midi": 76,
      "hit": false,
      "t": 6583.333333333335,
      "d": 135.41666666666697,
      "v": 91
    },
    {
      "midi": 67,
      "hit": false,
      "t": 6585.937500000002,
      "d": 44.27083333333303,
      "v": 86
    },
    {
      "midi": 64,
      "hit": false,
      "t": 6598.958333333335,
      "d": 49.47916666666697,
      "v": 70
    },
    {
      "midi": 71,
      "hit": false,
      "t": 6604.166666666668,
      "d": 41.66666666666697,
      "v": 62
    },
    {
      "midi": 69,
      "hit": false,
      "t": 6791.666666666669,
      "d": 33.85416666666697,
      "v": 98
    },
    {
      "midi": 55,
      "hit": false,
      "t": 6799.479166666669,
      "d": 57.29166666666697,
      "v": 71
    },
    {
      "midi": 71,
      "hit": false,
      "t": 6984.375000000003,
      "d": 57.29166666666697,
      "v": 88
    },
    {
      "midi": 79,
      "hit": false,
      "t": 6984.375000000003,
      "d": 91.14583333333394,
      "v": 98
    },
    {
      "midi": 76,
      "hit": false,
      "t": 6986.97916666667,
      "d": 44.27083333333303,
      "v": 95
    },
    {
      "midi": 52,
      "hit": false,
      "t": 6992.187500000003,
      "d": 39.0625,
      "v": 80
    },
    {
      "midi": 33,
      "hit": false,
      "t": 7208.333333333337,
      "d": 203.1249999999991,
      "v": 87
    },
    {
      "midi": 72,
      "hit": false,
      "t": 7213.54166666667,
      "d": 380.20833333333303,
      "v": 98
    },
    {
      "midi": 79,
      "hit": false,
      "t": 7218.750000000003,
      "d": 263.02083333333394,
      "v": 99
    },
    {
      "midi": 76,
      "hit": false,
      "t": 7223.958333333336,
      "d": 213.54166666666697,
      "v": 84
    },
    {
      "midi": 45,
      "hit": false,
      "t": 7447.91666666667,
      "d": 62.5,
      "v": 70
    },
    {
      "midi": 79,
      "hit": false,
      "t": 7656.250000000003,
      "d": 52.08333333333212,
      "v": 91
    },
    {
      "midi": 71,
      "hit": false,
      "t": 7661.458333333336,
      "d": 49.47916666666606,
      "v": 75
    },
    {
      "midi": 76,
      "hit": false,
      "t": 7674.479166666669,
      "d": 44.27083333333303,
      "v": 78
    },
    {
      "midi": 48,
      "hit": false,
      "t": 7679.687500000002,
      "d": 49.47916666666697,
      "v": 78
    },
    {
      "midi": 69,
      "hit": false,
      "t": 7856.770833333335,
      "d": 75.52083333333303,
      "v": 98
    },
    {
      "midi": 76,
      "hit": false,
      "t": 7867.187500000002,
      "d": 75.52083333333303,
      "v": 86
    },
    {
      "midi": 77,
      "hit": false,
      "t": 7867.187500000002,
      "d": 106.77083333333303,
      "v": 89
    },
    {
      "midi": 41,
      "hit": false,
      "t": 7880.208333333335,
      "d": 148.4375,
      "v": 73
    },
    {
      "midi": 71,
      "hit": false,
      "t": 8049.479166666668,
      "d": 49.47916666666697,
      "v": 77
    },
    {
      "midi": 77,
      "hit": false,
      "t": 8049.479166666668,
      "d": 98.95833333333394,
      "v": 98
    },
    {
      "midi": 76,
      "hit": false,
      "t": 8052.083333333335,
      "d": 72.91666666666697,
      "v": 91
    },
    {
      "midi": 53,
      "hit": false,
      "t": 8067.708333333335,
      "d": 78.125,
      "v": 71
    },
    {
      "midi": 72,
      "hit": false,
      "t": 8252.604166666668,
      "d": 57.29166666666606,
      "v": 100
    },
    {
      "midi": 77,
      "hit": false,
      "t": 8252.604166666668,
      "d": 80.72916666666606,
      "v": 87
    },
    {
      "midi": 57,
      "hit": false,
      "t": 8263.020833333334,
      "d": 39.0625,
      "v": 69
    },
    {
      "midi": 76,
      "hit": false,
      "t": 8263.020833333334,
      "d": 41.66666666666606,
      "v": 86
    },
    {
      "midi": 71,
      "hit": false,
      "t": 8479.166666666668,
      "d": 388.0208333333321,
      "v": 88
    },
    {
      "midi": 74,
      "hit": false,
      "t": 8481.770833333334,
      "d": 247.39583333333394,
      "v": 85
    },
    {
      "midi": 77,
      "hit": false,
      "t": 8486.979166666668,
      "d": 260.41666666666606,
      "v": 100
    },
    {
      "midi": 38,
      "hit": false,
      "t": 8492.187500000002,
      "d": 179.6875,
      "v": 73
    },
    {
      "midi": 50,
      "hit": false,
      "t": 8731.770833333334,
      "d": 70.3125,
      "v": 55
    },
    {
      "midi": 77,
      "hit": false,
      "t": 8940.104166666666,
      "d": 59.89583333333394,
      "v": 65
    },
    {
      "midi": 74,
      "hit": false,
      "t": 8945.3125,
      "d": 46.875,
      "v": 69
    },
    {
      "midi": 69,
      "hit": false,
      "t": 8945.3125,
      "d": 49.47916666666606,
      "v": 72
    },
    {
      "midi": 53,
      "hit": false,
      "t": 8953.125,
      "d": 52.08333333333394,
      "v": 56
    },
    {
      "midi": 67,
      "hit": false,
      "t": 9161.458333333334,
      "d": 67.70833333333394,
      "v": 80
    },
    {
      "midi": 76,
      "hit": false,
      "t": 9166.666666666668,
      "d": 111.97916666666606,
      "v": 83
    },
    {
      "midi": 74,
      "hit": false,
      "t": 9171.875000000002,
      "d": 59.89583333333212,
      "v": 68
    },
    {
      "midi": 40,
      "hit": false,
      "t": 9171.875000000002,
      "d": 132.81249999999818,
      "v": 59
    },
    {
      "midi": 76,
      "hit": false,
      "t": 9361.979166666668,
      "d": 44.27083333333394,
      "v": 85
    },
    {
      "midi": 69,
      "hit": false,
      "t": 9361.979166666668,
      "d": 49.47916666666788,
      "v": 77
    },
    {
      "midi": 74,
      "hit": false,
      "t": 9367.187500000002,
      "d": 49.47916666666788,
      "v": 61
    },
    {
      "midi": 52,
      "hit": false,
      "t": 9375.000000000002,
      "d": 75.52083333333394,
      "v": 58
    },
    {
      "midi": 71,
      "hit": false,
      "t": 9567.708333333336,
      "d": 39.06250000000182,
      "v": 67
    },
    {
      "midi": 76,
      "hit": false,
      "t": 9572.91666666667,
      "d": 44.27083333333394,
      "v": 80
    },
    {
      "midi": 74,
      "hit": false,
      "t": 9585.937500000004,
      "d": 41.66666666666606,
      "v": 62
    },
    {
      "midi": 55,
      "hit": false,
      "t": 9591.145833333338,
      "d": 39.06249999999818,
      "v": 69
    },
    {
      "midi": 69,
      "hit": false,
      "t": 9770.833333333336,
      "d": 390.6249999999982,
      "v": 79
    },
    {
      "midi": 36,
      "hit": false,
      "t": 9778.645833333336,
      "d": 179.68749999999818,
      "v": 63
    },
    {
      "midi": 76,
      "hit": false,
      "t": 9781.250000000002,
      "d": 255.20833333333212,
      "v": 90
    },
    {
      "midi": 72,
      "hit": false,
      "t": 9791.666666666668,
      "d": 229.16666666666606,
      "v": 64
    },
    {
      "midi": 48,
      "hit": false,
      "t": 10010.416666666668,
      "d": 132.8125,
      "v": 64
    },
    {
      "midi": 52,
      "hit": false,
      "t": 10197.916666666668,
      "d": 93.75000000000182,
      "v": 65
    },
    {
      "midi": 72,
      "hit": false,
      "t": 10210.937500000002,
      "d": 67.70833333333576,
      "v": 73
    },
    {
      "midi": 67,
      "hit": false,
      "t": 10216.145833333336,
      "d": 49.47916666666788,
      "v": 67
    },
    {
      "midi": 76,
      "hit": false,
      "t": 10229.16666666667,
      "d": 52.08333333333394,
      "v": 46
    },
    {
      "midi": 69,
      "hit": false,
      "t": 10460.937500000002,
      "d": 507.8124999999982,
      "v": 61
    },
    {
      "midi": 48,
      "hit": false,
      "t": 10468.750000000002,
      "d": 278.64583333333394,
      "v": 46
    },
    {
      "midi": 75,
      "hit": false,
      "t": 10468.750000000002,
      "d": 335.9375,
      "v": 54
    },
    {
      "midi": 72,
      "hit": false,
      "t": 10479.166666666668,
      "d": 250.00000000000182,
      "v": 37
    },
    {
      "midi": 51,
      "hit": false,
      "t": 10718.750000000002,
      "d": 122.39583333333394,
      "v": 43
    },
    {
      "midi": 75,
      "hit": false,
      "t": 10934.895833333336,
      "d": 127.60416666666606,
      "v": 45
    },
    {
      "midi": 57,
      "hit": false,
      "t": 10960.937500000002,
      "d": 44.27083333333212,
      "v": 56
    },
    {
      "midi": 67,
      "hit": false,
      "t": 10963.541666666668,
      "d": 145.83333333333394,
      "v": 58
    },
    {
      "midi": 72,
      "hit": false,
      "t": 10966.145833333334,
      "d": 59.89583333333394,
      "v": 45
    },
    {
      "midi": 66,
      "hit": false,
      "t": 11197.916666666668,
      "d": 221.35416666666788,
      "v": 47
    },
    {
      "midi": 38,
      "hit": false,
      "t": 11205.729166666668,
      "d": 187.5,
      "v": 39
    },
    {
      "midi": 74,
      "hit": false,
      "t": 11205.729166666668,
      "d": 330.7291666666697,
      "v": 62
    },
    {
      "midi": 72,
      "hit": false,
      "t": 11210.937500000002,
      "d": 312.5000000000018,
      "v": 47
    },
    {
      "midi": 67,
      "hit": false,
      "t": 11406.250000000002,
      "d": 135.4166666666697,
      "v": 73
    },
    {
      "midi": 50,
      "hit": false,
      "t": 11432.29166666667,
      "d": 59.89583333333394,
      "v": 66
    },
    {
      "midi": 69,
      "hit": false,
      "t": 11627.604166666672,
      "d": 236.97916666666788,
      "v": 68
    },
    {
      "midi": 54,
      "hit": false,
      "t": 11632.812500000005,
      "d": 91.14583333333394,
      "v": 57
    },
    {
      "midi": 62,
      "hit": false,
      "t": 11854.166666666673,
      "d": 236.97916666666424,
      "v": 54
    },
    {
      "midi": 50,
      "hit": false,
      "t": 11856.77083333334,
      "d": 255.20833333333212,
      "v": 51
    },
    {
      "midi": 72,
      "hit": false,
      "t": 11861.979166666673,
      "d": 242.18749999999818,
      "v": 61
    },
    {
      "midi": 74,
      "hit": false,
      "t": 11867.187500000005,
      "d": 289.0625,
      "v": 82
    },
    {
      "midi": 57,
      "hit": false,
      "t": 11869.791666666672,
      "d": 203.125,
      "v": 55
    },
    {
      "midi": 55,
      "hit": false,
      "t": 12117.187500000005,
      "d": 62.5,
      "v": 68
    },
    {
      "midi": 67,
      "hit": false,
      "t": 12320.312500000005,
      "d": 62.5,
      "v": 82
    },
    {
      "midi": 74,
      "hit": false,
      "t": 12325.52083333334,
      "d": 75.52083333333212,
      "v": 94
    },
    {
      "midi": 59,
      "hit": false,
      "t": 12333.33333333334,
      "d": 39.0625,
      "v": 56
    },
    {
      "midi": 71,
      "hit": false,
      "t": 12335.937500000005,
      "d": 39.0625,
      "v": 62
    },
    {
      "midi": 77,
      "hit": false,
      "t": 12557.291666666672,
      "d": 330.72916666666606,
      "v": 96
    },
    {
      "midi": 71,
      "hit": false,
      "t": 12562.500000000005,
      "d": 419.2708333333321,
      "v": 66
    },
    {
      "midi": 74,
      "hit": false,
      "t": 12570.312500000005,
      "d": 231.77083333333212,
      "v": 82
    },
    {
      "midi": 38,
      "hit": false,
      "t": 12572.916666666672,
      "d": 182.29166666666606,
      "v": 65
    },
    {
      "midi": 50,
      "hit": false,
      "t": 12799.479166666672,
      "d": 122.39583333333212,
      "v": 56
    },
    {
      "midi": 53,
      "hit": false,
      "t": 13020.833333333338,
      "d": 44.27083333333212,
      "v": 65
    },
    {
      "midi": 74,
      "hit": false,
      "t": 13028.645833333338,
      "d": 117.18749999999818,
      "v": 85
    },
    {
      "midi": 77,
      "hit": false,
      "t": 13031.250000000004,
      "d": 72.91666666666606,
      "v": 69
    },
    {
      "midi": 69,
      "hit": false,
      "t": 13031.250000000004,
      "d": 91.14583333333212,
      "v": 84
    },
    {
      "midi": 33,
      "hit": false,
      "t": 13294.270833333336,
      "d": 223.95833333333212,
      "v": 65
    },
    {
      "midi": 72,
      "hit": false,
      "t": 13296.875000000002,
      "d": 442.70833333333394,
      "v": 91
    },
    {
      "midi": 78,
      "hit": false,
      "t": 13299.479166666668,
      "d": 281.25,
      "v": 69
    },
    {
      "midi": 75,
      "hit": false,
      "t": 13307.291666666668,
      "d": 263.02083333333394,
      "v": 57
    },
    {
      "midi": 45,
      "hit": false,
      "t": 13580.729166666668,
      "d": 75.52083333333394,
      "v": 54
    },
    {
      "midi": 69,
      "hit": false,
      "t": 13778.645833333336,
      "d": 41.66666666666606,
      "v": 79
    },
    {
      "midi": 78,
      "hit": false,
      "t": 13781.250000000002,
      "d": 57.29166666666606,
      "v": 56
    },
    {
      "midi": 75,
      "hit": false,
      "t": 13786.458333333336,
      "d": 44.27083333333212,
      "v": 68
    },
    {
      "midi": 48,
      "hit": false,
      "t": 13804.687500000002,
      "d": 49.47916666666606,
      "v": 57
    },
    {
      "midi": 68,
      "hit": false,
      "t": 13989.583333333334,
      "d": 122.39583333333394,
      "v": 83
    },
    {
      "midi": 76,
      "hit": false,
      "t": 13997.395833333334,
      "d": 101.5625,
      "v": 88
    },
    {
      "midi": 40,
      "hit": false,
      "t": 14015.625,
      "d": 140.62500000000182,
      "v": 56
    },
    {
      "midi": 74,
      "hit": false,
      "t": 14020.833333333334,
      "d": 54.6875,
      "v": 63
    },
    {
      "midi": 76,
      "hit": false,
      "t": 14200.520833333334,
      "d": 72.91666666666606,
      "v": 76
    },
    {
      "midi": 69,
      "hit": false,
      "t": 14205.729166666668,
      "d": 52.08333333333212,
      "v": 86
    },
    {
      "midi": 74,
      "hit": false,
      "t": 14208.333333333334,
      "d": 46.875,
      "v": 78
    },
    {
      "midi": 52,
      "hit": false,
      "t": 14216.145833333334,
      "d": 70.3125,
      "v": 74
    },
    {
      "midi": 71,
      "hit": false,
      "t": 14416.666666666668,
      "d": 52.08333333333212,
      "v": 77
    },
    {
      "midi": 56,
      "hit": false,
      "t": 14419.270833333334,
      "d": 72.91666666666424,
      "v": 69
    },
    {
      "midi": 74,
      "hit": false,
      "t": 14421.875,
      "d": 57.29166666666606,
      "v": 80
    },
    {
      "midi": 76,
      "hit": false,
      "t": 14421.875,
      "d": 59.89583333333212,
      "v": 89
    },
    {
      "midi": 76,
      "hit": false,
      "t": 14651.041666666666,
      "d": 312.49999999999636,
      "v": 89
    },
    {
      "midi": 59,
      "hit": false,
      "t": 14653.645833333332,
      "d": 210.93749999999818,
      "v": 65
    },
    {
      "midi": 64,
      "hit": false,
      "t": 14656.249999999998,
      "d": 338.54166666666424,
      "v": 92
    },
    {
      "midi": 74,
      "hit": false,
      "t": 14666.666666666664,
      "d": 374.9999999999982,
      "v": 79
    },
    {
      "midi": 52,
      "hit": false,
      "t": 14669.27083333333,
      "d": 268.22916666666606,
      "v": 72
    },
    {
      "midi": 57,
      "hit": false,
      "t": 14906.249999999996,
      "d": 114.58333333333212,
      "v": 72
    },
    {
      "midi": 69,
      "hit": false,
      "t": 15109.374999999996,
      "d": 52.08333333333212,
      "v": 88
    },
    {
      "midi": 76,
      "hit": false,
      "t": 15124.999999999996,
      "d": 41.66666666666606,
      "v": 97
    },
    {
      "midi": 60,
      "hit": false,
      "t": 15124.999999999996,
      "d": 44.27083333333212,
      "v": 70
    },
    {
      "midi": 72,
      "hit": false,
      "t": 15143.229166666662,
      "d": 65.10416666666606,
      "v": 67
    },
    {
      "midi": 68,
      "hit": false,
      "t": 15354.166666666662,
      "d": 96.35416666666788,
      "v": 90
    },
    {
      "midi": 76,
      "hit": false,
      "t": 15356.770833333328,
      "d": 122.39583333333576,
      "v": 95
    },
    {
      "midi": 40,
      "hit": false,
      "t": 15361.979166666662,
      "d": 140.62500000000182,
      "v": 65
    },
    {
      "midi": 74,
      "hit": false,
      "t": 15367.187499999996,
      "d": 59.89583333333394,
      "v": 82
    },
    {
      "midi": 76,
      "hit": false,
      "t": 15572.916666666664,
      "d": 72.91666666666788,
      "v": 74
    },
    {
      "midi": 69,
      "hit": false,
      "t": 15580.729166666664,
      "d": 52.08333333333394,
      "v": 85
    },
    {
      "midi": 74,
      "hit": false,
      "t": 15585.937499999998,
      "d": 49.47916666666606,
      "v": 64
    },
    {
      "midi": 52,
      "hit": false,
      "t": 15588.541666666664,
      "d": 52.08333333333394,
      "v": 73
    },
    {
      "midi": 56,
      "hit": false,
      "t": 15802.083333333332,
      "d": 88.54166666666606,
      "v": 57
    },
    {
      "midi": 71,
      "hit": false,
      "t": 15815.104166666666,
      "d": 44.27083333333394,
      "v": 53
    },
    {
      "midi": 76,
      "hit": false,
      "t": 15815.104166666666,
      "d": 46.875,
      "v": 81
    },
    {
      "midi": 74,
      "hit": false,
      "t": 15822.916666666666,
      "d": 49.47916666666606,
      "v": 52
    },
    {
      "midi": 59,
      "hit": false,
      "t": 16083.333333333332,
      "d": 265.6250000000018,
      "v": 38
    },
    {
      "midi": 76,
      "hit": false,
      "t": 16088.541666666666,
      "d": 468.75000000000546,
      "v": 73
    },
    {
      "midi": 64,
      "hit": false,
      "t": 16093.75,
      "d": 492.18750000000364,
      "v": 62
    },
    {
      "midi": 52,
      "hit": false,
      "t": 16098.958333333334,
      "d": 505.20833333333394,
      "v": 29
    },
    {
      "midi": 74,
      "hit": false,
      "t": 16117.1875,
      "d": 528.6458333333358,
      "v": 55
    },
    {
      "midi": 57,
      "hit": false,
      "t": 16388.020833333336,
      "d": 143.22916666666788,
      "v": 54
    },
    {
      "midi": 76,
      "hit": false,
      "t": 16671.875000000004,
      "d": 67.70833333333212,
      "v": 57
    },
    {
      "midi": 61,
      "hit": false,
      "t": 16679.687500000004,
      "d": 49.47916666666424,
      "v": 51
    },
    {
      "midi": 73,
      "hit": false,
      "t": 16684.895833333336,
      "d": 117.1875,
      "v": 55
    },
    {
      "midi": 69,
      "hit": false,
      "t": 16700.520833333336,
      "d": 54.6875,
      "v": 40
    },
    {
      "midi": 68,
      "hit": false,
      "t": 16966.145833333336,
      "d": 62.5,
      "v": 62
    },
    {
      "midi": 40,
      "hit": false,
      "t": 16973.958333333336,
      "d": 41.66666666666788,
      "v": 65
    },
    {
      "midi": 76,
      "hit": false,
      "t": 16973.958333333336,
      "d": 72.91666666666788,
      "v": 75
    },
    {
      "midi": 74,
      "hit": false,
      "t": 16997.395833333336,
      "d": 52.08333333333576,
      "v": 48
    },
    {
      "midi": 74,
      "hit": false,
      "t": 17192.70833333334,
      "d": 59.89583333333576,
      "v": 51
    },
    {
      "midi": 69,
      "hit": false,
      "t": 17200.52083333334,
      "d": 49.47916666666788,
      "v": 70
    },
    {
      "midi": 76,
      "hit": false,
      "t": 17203.125000000007,
      "d": 46.875,
      "v": 65
    },
    {
      "midi": 52,
      "hit": false,
      "t": 17208.33333333334,
      "d": 54.68750000000364,
      "v": 65
    },
    {
      "midi": 56,
      "hit": false,
      "t": 17210.937500000007,
      "d": 62.50000000000364,
      "v": 50
    },
    {
      "midi": 76,
      "hit": false,
      "t": 17416.66666666668,
      "d": 75.52083333333576,
      "v": 85
    },
    {
      "midi": 71,
      "hit": false,
      "t": 17432.29166666668,
      "d": 41.66666666666788,
      "v": 58
    },
    {
      "midi": 74,
      "hit": false,
      "t": 17432.29166666668,
      "d": 46.875,
      "v": 67
    },
    {
      "midi": 62,
      "hit": false,
      "t": 17434.895833333347,
      "d": 54.6875,
      "v": 54
    },
    {
      "midi": 56,
      "hit": false,
      "t": 17445.312500000015,
      "d": 46.875,
      "v": 56
    },
    {
      "midi": 45,
      "hit": false,
      "t": 17661.458333333347,
      "d": 54.6875,
      "v": 63
    },
    {
      "midi": 64,
      "hit": false,
      "t": 17661.458333333347,
      "d": 156.25,
      "v": 75
    },
    {
      "midi": 76,
      "hit": false,
      "t": 17677.083333333347,
      "d": 145.83333333333212,
      "v": 72
    },
    {
      "midi": 74,
      "hit": false,
      "t": 17697.91666666668,
      "d": 145.83333333333212,
      "v": 42
    },
    {
      "midi": 57,
      "hit": false,
      "t": 17885.41666666668,
      "d": 46.875,
      "v": 77
    },
    {
      "midi": 52,
      "hit": false,
      "t": 17898.43750000001,
      "d": 57.29166666666788,
      "v": 80
    },
    {
      "midi": 65,
      "hit": false,
      "t": 18109.37500000001,
      "d": 145.83333333333212,
      "v": 86
    },
    {
      "midi": 76,
      "hit": false,
      "t": 18114.583333333343,
      "d": 442.7083333333321,
      "v": 95
    },
    {
      "midi": 74,
      "hit": false,
      "t": 18114.583333333343,
      "d": 445.3125,
      "v": 81
    },
    {
      "midi": 57,
      "hit": false,
      "t": 18122.395833333343,
      "d": 39.0625,
      "v": 72
    },
    {
      "midi": 62,
      "hit": false,
      "t": 18122.395833333343,
      "d": 44.27083333333212,
      "v": 73
    },
    {
      "midi": 69,
      "hit": false,
      "t": 18127.604166666675,
      "d": 442.70833333333576,
      "v": 74
    },
    {
      "midi": 64,
      "hit": false,
      "t": 18398.43750000001,
      "d": 177.08333333333212,
      "v": 81
    },
    {
      "midi": 45,
      "hit": false,
      "t": 18406.25000000001,
      "d": 59.89583333333212,
      "v": 60
    },
    {
      "midi": 57,
      "hit": false,
      "t": 18645.833333333343,
      "d": 44.27083333333212,
      "v": 74
    },
    {
      "midi": 52,
      "hit": false,
      "t": 18645.833333333343,
      "d": 59.89583333333212,
      "v": 59
    },
    {
      "midi": 76,
      "hit": false,
      "t": 18872.395833333343,
      "d": 596.3541666666679,
      "v": 75
    },
    {
      "midi": 65,
      "hit": false,
      "t": 18877.604166666675,
      "d": 153.64583333333576,
      "v": 67
    },
    {
      "midi": 73,
      "hit": false,
      "t": 18880.208333333343,
      "d": 520.8333333333321,
      "v": 57
    },
    {
      "midi": 61,
      "hit": false,
      "t": 18895.833333333343,
      "d": 59.89583333333212,
      "v": 56
    },
    {
      "midi": 57,
      "hit": false,
      "t": 18901.041666666675,
      "d": 57.29166666666788,
      "v": 41
    },
    {
      "midi": 69,
      "hit": false,
      "t": 18903.645833333343,
      "d": 562.5,
      "v": 57
    },
    {
      "midi": 64,
      "hit": false,
      "t": 19223.958333333343,
      "d": 369.7916666666679,
      "v": 45
    },
    {
      "midi": 45,
      "hit": false,
      "t": 19229.166666666675,
      "d": 104.16666666666788,
      "v": 49
    },
    {
      "midi": 57,
      "hit": false,
      "t": 19588.54166666668,
      "d": 44.27083333333212,
      "v": 40
    },
    {
      "midi": 52,
      "hit": false,
      "t": 19588.54166666668,
      "d": 59.89583333333212,
      "v": 40
    },
    {
      "midi": 66,
      "hit": false,
      "t": 19906.25000000001,
      "d": 179.6875,
      "v": 38
    },
    {
      "midi": 76,
      "hit": false,
      "t": 19906.25000000001,
      "d": 554.6875,
      "v": 44
    },
    {
      "midi": 57,
      "hit": false,
      "t": 19927.083333333343,
      "d": 65.10416666666788,
      "v": 32
    },
    {
      "midi": 72,
      "hit": false,
      "t": 19929.68750000001,
      "d": 268.2291666666679,
      "v": 38
    },
    {
      "midi": 60,
      "hit": false,
      "t": 19932.29166666668,
      "d": 67.70833333333212,
      "v": 30
    },
    {
      "midi": 64,
      "hit": false,
      "t": 20375.00000000001,
      "d": 148.4375,
      "v": 45
    },
    {
      "midi": 36,
      "hit": false,
      "t": 20401.04166666668,
      "d": 151.04166666666424,
      "v": 35
    },
    {
      "midi": 67,
      "hit": false,
      "t": 20638.020833333343,
      "d": 65.10416666666788,
      "v": 60
    },
    {
      "midi": 48,
      "hit": false,
      "t": 20645.833333333343,
      "d": 59.89583333333576,
      "v": 51
    },
    {
      "midi": 72,
      "hit": false,
      "t": 20648.43750000001,
      "d": 62.5,
      "v": 49
    },
    {
      "midi": 76,
      "hit": false,
      "t": 20656.25000000001,
      "d": 59.89583333333212,
      "v": 28
    },
    {
      "midi": 76,
      "hit": false,
      "t": 20854.166666666675,
      "d": 62.49999999999636,
      "v": 56
    },
    {
      "midi": 69,
      "hit": false,
      "t": 20854.166666666675,
      "d": 67.70833333332848,
      "v": 73
    },
    {
      "midi": 52,
      "hit": false,
      "t": 20875.000000000007,
      "d": 52.08333333332848,
      "v": 57
    },
    {
      "midi": 72,
      "hit": false,
      "t": 20880.20833333334,
      "d": 62.49999999999636,
      "v": 34
    },
    {
      "midi": 76,
      "hit": false,
      "t": 21080.729166666668,
      "d": 229.16666666666788,
      "v": 80
    },
    {
      "midi": 67,
      "hit": false,
      "t": 21083.333333333336,
      "d": 234.375,
      "v": 74
    },
    {
      "midi": 60,
      "hit": false,
      "t": 21088.541666666668,
      "d": 72.91666666666788,
      "v": 62
    },
    {
      "midi": 72,
      "hit": false,
      "t": 21098.958333333336,
      "d": 281.25,
      "v": 36
    },
    {
      "midi": 52,
      "hit": false,
      "t": 21309.895833333336,
      "d": 39.0625,
      "v": 68
    },
    {
      "midi": 48,
      "hit": false,
      "t": 21505.208333333336,
      "d": 85.93750000000364,
      "v": 69
    },
    {
      "midi": 64,
      "hit": false,
      "t": 21507.812500000004,
      "d": 49.47916666666788,
      "v": 83
    },
    {
      "midi": 76,
      "hit": false,
      "t": 21705.72916666667,
      "d": 67.70833333333212,
      "v": 91
    },
    {
      "midi": 67,
      "hit": false,
      "t": 21710.937500000004,
      "d": 70.3125,
      "v": 87
    },
    {
      "midi": 72,
      "hit": false,
      "t": 21718.750000000004,
      "d": 59.89583333333212,
      "v": 75
    },
    {
      "midi": 36,
      "hit": false,
      "t": 21718.750000000004,
      "d": 143.22916666666424,
      "v": 63
    },
    {
      "midi": 69,
      "hit": false,
      "t": 21911.458333333336,
      "d": 62.5,
      "v": 91
    },
    {
      "midi": 72,
      "hit": false,
      "t": 21919.270833333336,
      "d": 59.89583333333212,
      "v": 63
    },
    {
      "midi": 76,
      "hit": false,
      "t": 21919.270833333336,
      "d": 62.5,
      "v": 78
    },
    {
      "midi": 48,
      "hit": false,
      "t": 21919.270833333336,
      "d": 65.10416666666788,
      "v": 64
    },
    {
      "midi": 67,
      "hit": false,
      "t": 22104.16666666667,
      "d": 91.14583333333576,
      "v": 90
    },
    {
      "midi": 76,
      "hit": false,
      "t": 22114.58333333334,
      "d": 52.08333333333212,
      "v": 76
    },
    {
      "midi": 72,
      "hit": false,
      "t": 22114.58333333334,
      "d": 54.6875,
      "v": 65
    },
    {
      "midi": 52,
      "hit": false,
      "t": 22119.79166666667,
      "d": 46.875,
      "v": 71
    },
    {
      "midi": 60,
      "hit": false,
      "t": 22304.687500000007,
      "d": 54.68749999999636,
      "v": 80
    },
    {
      "midi": 64,
      "hit": false,
      "t": 22309.89583333334,
      "d": 49.47916666666424,
      "v": 75
    },
    {
      "midi": 76,
      "hit": false,
      "t": 22315.10416666667,
      "d": 65.10416666666424,
      "v": 83
    },
    {
      "midi": 72,
      "hit": false,
      "t": 22315.10416666667,
      "d": 75.52083333333212,
      "v": 76
    },
    {
      "midi": 67,
      "hit": false,
      "t": 22497.395833333336,
      "d": 44.2708333333394,
      "v": 96
    },
    {
      "midi": 72,
      "hit": false,
      "t": 22500.000000000004,
      "d": 65.10416666667516,
      "v": 74
    },
    {
      "midi": 76,
      "hit": false,
      "t": 22502.60416666667,
      "d": 52.0833333333394,
      "v": 85
    },
    {
      "midi": 52,
      "hit": false,
      "t": 22505.20833333334,
      "d": 39.06250000000364,
      "v": 81
    },
    {
      "midi": 72,
      "hit": false,
      "t": 22682.29166666668,
      "d": 98.95833333332848,
      "v": 87
    },
    {
      "midi": 69,
      "hit": false,
      "t": 22687.50000000001,
      "d": 88.54166666666424,
      "v": 98
    },
    {
      "midi": 76,
      "hit": false,
      "t": 22700.520833333343,
      "d": 49.47916666666424,
      "v": 97
    },
    {
      "midi": 48,
      "hit": false,
      "t": 22705.729166666675,
      "d": 96.35416666666424,
      "v": 72
    },
    {
      "midi": 67,
      "hit": false,
      "t": 22903.64583333334,
      "d": 291.6666666666679,
      "v": 88
    },
    {
      "midi": 76,
      "hit": false,
      "t": 22906.250000000007,
      "d": 250,
      "v": 101
    },
    {
      "midi": 40,
      "hit": false,
      "t": 22911.45833333334,
      "d": 156.25,
      "v": 61
    },
    {
      "midi": 71,
      "hit": false,
      "t": 22911.45833333334,
      "d": 283.8541666666679,
      "v": 64
    },
    {
      "midi": 52,
      "hit": false,
      "t": 23125.000000000007,
      "d": 54.6875,
      "v": 74
    },
    {
      "midi": 55,
      "hit": false,
      "t": 23320.312500000007,
      "d": 54.6875,
      "v": 76
    },
    {
      "midi": 64,
      "hit": false,
      "t": 23330.729166666675,
      "d": 75.52083333333212,
      "v": 90
    },
    {
      "midi": 67,
      "hit": false,
      "t": 23536.45833333334,
      "d": 36.45833333333212,
      "v": 95
    },
    {
      "midi": 64,
      "hit": false,
      "t": 23536.45833333334,
      "d": 54.6875,
      "v": 77
    },
    {
      "midi": 76,
      "hit": false,
      "t": 23536.45833333334,
      "d": 101.5625,
      "v": 99
    },
    {
      "midi": 71,
      "hit": false,
      "t": 23552.08333333334,
      "d": 36.45833333333212,
      "v": 78
    },
    {
      "midi": 55,
      "hit": false,
      "t": 23734.375000000007,
      "d": 52.08333333333212,
      "v": 78
    },
    {
      "midi": 69,
      "hit": false,
      "t": 23734.375000000007,
      "d": 52.08333333333212,
      "v": 100
    },
    {
      "midi": 71,
      "hit": false,
      "t": 23919.27083333334,
      "d": 44.27083333333576,
      "v": 86
    },
    {
      "midi": 79,
      "hit": false,
      "t": 23921.875000000007,
      "d": 101.5625,
      "v": 99
    },
    {
      "midi": 76,
      "hit": false,
      "t": 23940.104166666675,
      "d": 39.0625,
      "v": 82
    },
    {
      "midi": 52,
      "hit": false,
      "t": 23940.104166666675,
      "d": 44.27083333333212,
      "v": 67
    },
    {
      "midi": 72,
      "hit": false,
      "t": 24153.64583333334,
      "d": 252.60416666666788,
      "v": 102
    },
    {
      "midi": 76,
      "hit": false,
      "t": 24156.250000000007,
      "d": 265.625,
      "v": 91
    },
    {
      "midi": 79,
      "hit": false,
      "t": 24156.250000000007,
      "d": 283.8541666666679,
      "v": 101
    },
    {
      "midi": 33,
      "hit": false,
      "t": 24166.666666666675,
      "d": 119.79166666666424,
      "v": 81
    },
    {
      "midi": 45,
      "hit": false,
      "t": 24416.666666666675,
      "d": 62.5,
      "v": 70
    },
    {
      "midi": 79,
      "hit": false,
      "t": 24604.166666666675,
      "d": 75.52083333333576,
      "v": 95
    },
    {
      "midi": 71,
      "hit": false,
      "t": 24611.979166666675,
      "d": 104.16666666666788,
      "v": 82
    },
    {
      "midi": 76,
      "hit": false,
      "t": 24619.791666666675,
      "d": 41.66666666666788,
      "v": 89
    },
    {
      "midi": 48,
      "hit": false,
      "t": 24635.416666666675,
      "d": 52.08333333333576,
      "v": 79
    },
    {
      "midi": 69,
      "hit": false,
      "t": 24815.104166666675,
      "d": 101.56250000000364,
      "v": 100
    },
    {
      "midi": 77,
      "hit": false,
      "t": 24817.708333333343,
      "d": 101.56250000000364,
      "v": 100
    },
    {
      "midi": 76,
      "hit": false,
      "t": 24830.72916666668,
      "d": 54.6875,
      "v": 87
    },
    {
      "midi": 41,
      "hit": false,
      "t": 24830.72916666668,
      "d": 182.29166666666788,
      "v": 76
    },
    {
      "midi": 77,
      "hit": false,
      "t": 25013.020833333347,
      "d": 85.9375,
      "v": 87
    },
    {
      "midi": 71,
      "hit": false,
      "t": 25018.22916666668,
      "d": 54.6875,
      "v": 90
    },
    {
      "midi": 76,
      "hit": false,
      "t": 25020.833333333347,
      "d": 62.5,
      "v": 95
    },
    {
      "midi": 53,
      "hit": false,
      "t": 25036.458333333347,
      "d": 114.58333333333212,
      "v": 86
    },
    {
      "midi": 77,
      "hit": false,
      "t": 25200.520833333347,
      "d": 91.14583333333576,
      "v": 88
    },
    {
      "midi": 72,
      "hit": false,
      "t": 25210.937500000015,
      "d": 44.27083333333576,
      "v": 105
    },
    {
      "midi": 76,
      "hit": false,
      "t": 25213.541666666682,
      "d": 49.47916666666788,
      "v": 95
    },
    {
      "midi": 57,
      "hit": false,
      "t": 25218.750000000015,
      "d": 33.85416666666788,
      "v": 83
    },
    {
      "midi": 77,
      "hit": false,
      "t": 25416.666666666682,
      "d": 190.10416666666788,
      "v": 98
    },
    {
      "midi": 71,
      "hit": false,
      "t": 25416.666666666682,
      "d": 432.2916666666715,
      "v": 91
    },
    {
      "midi": 74,
      "hit": false,
      "t": 25419.27083333335,
      "d": 197.91666666666788,
      "v": 99
    },
    {
      "midi": 38,
      "hit": false,
      "t": 25434.89583333335,
      "d": 88.54166666666788,
      "v": 77
    },
    {
      "midi": 50,
      "hit": false,
      "t": 25638.02083333335,
      "d": 119.79166666666788,
      "v": 66
    },
    {
      "midi": 77,
      "hit": false,
      "t": 25822.916666666686,
      "d": 80.72916666666788,
      "v": 95
    },
    {
      "midi": 69,
      "hit": false,
      "t": 25830.729166666686,
      "d": 67.70833333333576,
      "v": 96
    },
    {
      "midi": 53,
      "hit": false,
      "t": 25838.541666666686,
      "d": 36.45833333333576,
      "v": 80
    },
    {
      "midi": 74,
      "hit": false,
      "t": 25841.145833333354,
      "d": 39.0625,
      "v": 87
    },
    {
      "midi": 67,
      "hit": false,
      "t": 26031.250000000022,
      "d": 67.70833333333576,
      "v": 97
    },
    {
      "midi": 76,
      "hit": false,
      "t": 26041.66666666669,
      "d": 109.375,
      "v": 99
    },
    {
      "midi": 40,
      "hit": false,
      "t": 26041.66666666669,
      "d": 143.22916666666788,
      "v": 75
    },
    {
      "midi": 74,
      "hit": false,
      "t": 26049.47916666669,
      "d": 44.27083333333576,
      "v": 87
    },
    {
      "midi": 76,
      "hit": false,
      "t": 26218.750000000025,
      "d": 111.97916666666424,
      "v": 98
    },
    {
      "midi": 69,
      "hit": false,
      "t": 26223.958333333358,
      "d": 57.29166666666424,
      "v": 100
    },
    {
      "midi": 74,
      "hit": false,
      "t": 26231.770833333358,
      "d": 44.27083333333212,
      "v": 93
    },
    {
      "midi": 52,
      "hit": false,
      "t": 26236.97916666669,
      "d": 78.125,
      "v": 85
    },
    {
      "midi": 76,
      "hit": false,
      "t": 26411.458333333358,
      "d": 93.74999999999636,
      "v": 95
    },
    {
      "midi": 71,
      "hit": false,
      "t": 26416.66666666669,
      "d": 49.47916666666424,
      "v": 86
    },
    {
      "midi": 74,
      "hit": false,
      "t": 26429.687500000022,
      "d": 39.0625,
      "v": 91
    },
    {
      "midi": 55,
      "hit": false,
      "t": 26442.708333333354,
      "d": 33.85416666666788,
      "v": 83
    },
    {
      "midi": 76,
      "hit": false,
      "t": 26640.625000000022,
      "d": 270.83333333333576,
      "v": 91
    },
    {
      "midi": 72,
      "hit": false,
      "t": 26648.437500000022,
      "d": 291.6666666666679,
      "v": 83
    },
    {
      "midi": 69,
      "hit": false,
      "t": 26651.04166666669,
      "d": 242.1875,
      "v": 85
    },
    {
      "midi": 36,
      "hit": false,
      "t": 26656.250000000022,
      "d": 96.35416666666788,
      "v": 61
    },
    {
      "midi": 48,
      "hit": false,
      "t": 26893.22916666669,
      "d": 59.89583333333212,
      "v": 69
    },
    {
      "midi": 76,
      "hit": false,
      "t": 27065.10416666669,
      "d": 91.14583333333576,
      "v": 85
    },
    {
      "midi": 72,
      "hit": false,
      "t": 27075.520833333358,
      "d": 85.9375,
      "v": 49
    },
    {
      "midi": 67,
      "hit": false,
      "t": 27085.937500000025,
      "d": 65.10416666666788,
      "v": 81
    },
    {
      "midi": 52,
      "hit": false,
      "t": 27093.750000000025,
      "d": 49.47916666666788,
      "v": 57
    },
    {
      "midi": 75,
      "hit": false,
      "t": 27304.687500000022,
      "d": 333.3333333333321,
      "v": 69
    },
    {
      "midi": 69,
      "hit": false,
      "t": 27307.29166666669,
      "d": 507.8125,
      "v": 75
    },
    {
      "midi": 72,
      "hit": false,
      "t": 27317.708333333358,
      "d": 276.04166666666424,
      "v": 50
    },
    {
      "midi": 48,
      "hit": false,
      "t": 27341.145833333358,
      "d": 265.62499999999636,
      "v": 50
    },
    {
      "midi": 51,
      "hit": false,
      "t": 27572.91666666669,
      "d": 111.97916666666424,
      "v": 55
    },
    {
      "midi": 75,
      "hit": false,
      "t": 27773.437500000022,
      "d": 70.31250000000364,
      "v": 60
    },
    {
      "midi": 67,
      "hit": false,
      "t": 27776.04166666669,
      "d": 49.47916666666788,
      "v": 81
    },
    {
      "midi": 72,
      "hit": false,
      "t": 27778.645833333358,
      "d": 49.47916666666788,
      "v": 77
    },
    {
      "midi": 57,
      "hit": false,
      "t": 27791.66666666669,
      "d": 41.66666666666788,
      "v": 67
    },
    {
      "midi": 74,
      "hit": false,
      "t": 27997.395833333358,
      "d": 119.79166666666788,
      "v": 88
    },
    {
      "midi": 66,
      "hit": false,
      "t": 27997.395833333358,
      "d": 143.22916666666788,
      "v": 84
    },
    {
      "midi": 38,
      "hit": false,
      "t": 28002.60416666669,
      "d": 158.85416666666788,
      "v": 64
    },
    {
      "midi": 72,
      "hit": false,
      "t": 28005.208333333358,
      "d": 70.3125,
      "v": 76
    },
    {
      "midi": 74,
      "hit": false,
      "t": 28195.312500000022,
      "d": 109.37500000000364,
      "v": 88
    },
    {
      "midi": 67,
      "hit": false,
      "t": 28203.125000000022,
      "d": 70.31250000000364,
      "v": 90
    },
    {
      "midi": 50,
      "hit": false,
      "t": 28213.54166666669,
      "d": 65.10416666666788,
      "v": 78
    },
    {
      "midi": 72,
      "hit": false,
      "t": 28216.145833333358,
      "d": 46.875,
      "v": 72
    },
    {
      "midi": 54,
      "hit": false,
      "t": 28380.208333333358,
      "d": 80.72916666666788,
      "v": 70
    },
    {
      "midi": 74,
      "hit": false,
      "t": 28406.250000000025,
      "d": 59.89583333333212,
      "v": 76
    },
    {
      "midi": 69,
      "hit": false,
      "t": 28406.250000000025,
      "d": 62.5,
      "v": 87
    },
    {
      "midi": 72,
      "hit": false,
      "t": 28421.875000000025,
      "d": 44.27083333333212,
      "v": 89
    },
    {
      "midi": 57,
      "hit": false,
      "t": 28588.541666666693,
      "d": 192.70833333333576,
      "v": 61
    },
    {
      "midi": 50,
      "hit": false,
      "t": 28588.541666666693,
      "d": 356.7708333333394,
      "v": 62
    },
    {
      "midi": 62,
      "hit": false,
      "t": 28619.791666666693,
      "d": 250.00000000000364,
      "v": 87
    },
    {
      "midi": 72,
      "hit": false,
      "t": 28630.20833333336,
      "d": 385.4166666666715,
      "v": 87
    },
    {
      "midi": 74,
      "hit": false,
      "t": 28640.62500000003,
      "d": 239.58333333333576,
      "v": 75
    },
    {
      "midi": 55,
      "hit": false,
      "t": 28822.916666666697,
      "d": 104.16666666666788,
      "v": 82
    },
    {
      "midi": 74,
      "hit": false,
      "t": 29041.6666666667,
      "d": 93.75000000000364,
      "v": 96
    },
    {
      "midi": 71,
      "hit": false,
      "t": 29049.4791666667,
      "d": 39.0625,
      "v": 77
    },
    {
      "midi": 59,
      "hit": false,
      "t": 29049.4791666667,
      "d": 41.66666666666788,
      "v": 54
    },
    {
      "midi": 67,
      "hit": false,
      "t": 29052.08333333337,
      "d": 41.66666666666788,
      "v": 83
    },
    {
      "midi": 77,
      "hit": false,
      "t": 29244.791666666704,
      "d": 263.02083333333576,
      "v": 100
    },
    {
      "midi": 71,
      "hit": false,
      "t": 29244.791666666704,
      "d": 346.3541666666715,
      "v": 91
    },
    {
      "midi": 38,
      "hit": false,
      "t": 29257.812500000036,
      "d": 164.0625,
      "v": 83
    },
    {
      "midi": 74,
      "hit": false,
      "t": 29270.83333333337,
      "d": 187.50000000000364,
      "v": 54
    },
    {
      "midi": 50,
      "hit": false,
      "t": 29460.93750000004,
      "d": 111.97916666666788,
      "v": 90
    },
    {
      "midi": 53,
      "hit": false,
      "t": 29669.270833333376,
      "d": 39.0625,
      "v": 79
    },
    {
      "midi": 77,
      "hit": false,
      "t": 29669.270833333376,
      "d": 109.375,
      "v": 95
    },
    {
      "midi": 74,
      "hit": false,
      "t": 29671.875000000044,
      "d": 182.29166666666424,
      "v": 91
    },
    {
      "midi": 69,
      "hit": false,
      "t": 29677.083333333376,
      "d": 114.58333333333212,
      "v": 98
    },
    {
      "midi": 72,
      "hit": false,
      "t": 29898.437500000044,
      "d": 489.58333333334303,
      "v": 99
    },
    {
      "midi": 33,
      "hit": false,
      "t": 29901.04166666671,
      "d": 203.12500000000364,
      "v": 74
    },
    {
      "midi": 78,
      "hit": false,
      "t": 29903.64583333338,
      "d": 281.25000000000364,
      "v": 88
    },
    {
      "midi": 75,
      "hit": false,
      "t": 29906.250000000047,
      "d": 218.75,
      "v": 78
    },
    {
      "midi": 45,
      "hit": false,
      "t": 30151.041666666715,
      "d": 67.70833333333576,
      "v": 79
    },
    {
      "midi": 78,
      "hit": false,
      "t": 30354.16666666672,
      "d": 72.91666666666788,
      "v": 83
    },
    {
      "midi": 69,
      "hit": false,
      "t": 30361.97916666672,
      "d": 85.9375,
      "v": 97
    },
    {
      "midi": 75,
      "hit": false,
      "t": 30372.395833333387,
      "d": 44.27083333333212,
      "v": 80
    },
    {
      "midi": 48,
      "hit": false,
      "t": 30382.812500000055,
      "d": 44.27083333333212,
      "v": 73
    },
    {
      "midi": 68,
      "hit": false,
      "t": 30570.31250000005,
      "d": 148.4375,
      "v": 97
    },
    {
      "midi": 76,
      "hit": false,
      "t": 30580.729166666715,
      "d": 104.16666666666788,
      "v": 98
    },
    {
      "midi": 74,
      "hit": false,
      "t": 30591.145833333383,
      "d": 54.6875,
      "v": 84
    },
    {
      "midi": 40,
      "hit": false,
      "t": 30611.979166666715,
      "d": 143.22916666666788,
      "v": 54
    },
    {
      "midi": 76,
      "hit": false,
      "t": 30773.43750000005,
      "d": 91.14583333333212,
      "v": 90
    },
    {
      "midi": 69,
      "hit": false,
      "t": 30776.04166666672,
      "d": 72.91666666666424,
      "v": 100
    },
    {
      "midi": 74,
      "hit": false,
      "t": 30786.458333333383,
      "d": 44.27083333333212,
      "v": 80
    },
    {
      "midi": 52,
      "hit": false,
      "t": 30786.458333333383,
      "d": 125,
      "v": 84
    },
    {
      "midi": 56,
      "hit": false,
      "t": 30966.145833333383,
      "d": 153.64583333333576,
      "v": 80
    },
    {
      "midi": 71,
      "hit": false,
      "t": 30979.166666666715,
      "d": 75.52083333333576,
      "v": 86
    },
    {
      "midi": 76,
      "hit": false,
      "t": 30979.166666666715,
      "d": 83.33333333333576,
      "v": 88
    },
    {
      "midi": 74,
      "hit": false,
      "t": 30981.770833333383,
      "d": 49.47916666666788,
      "v": 94
    },
    {
      "midi": 59,
      "hit": false,
      "t": 31156.25000000005,
      "d": 223.95833333333212,
      "v": 70
    },
    {
      "midi": 52,
      "hit": false,
      "t": 31156.25000000005,
      "d": 351.5625,
      "v": 71
    },
    {
      "midi": 64,
      "hit": false,
      "t": 31208.333333333383,
      "d": 302.08333333333576,
      "v": 99
    },
    {
      "midi": 76,
      "hit": false,
      "t": 31218.75000000005,
      "d": 278.6458333333321,
      "v": 95
    },
    {
      "midi": 74,
      "hit": false,
      "t": 31231.770833333383,
      "d": 325.52083333333576,
      "v": 87
    },
    {
      "midi": 57,
      "hit": false,
      "t": 31403.645833333383,
      "d": 132.81250000000364,
      "v": 92
    },
    {
      "midi": 69,
      "hit": false,
      "t": 31619.79166666672,
      "d": 57.29166666666424,
      "v": 97
    },
    {
      "midi": 60,
      "hit": false,
      "t": 31622.395833333387,
      "d": 39.06249999999636,
      "v": 84
    },
    {
      "midi": 76,
      "hit": false,
      "t": 31627.60416666672,
      "d": 62.49999999999636,
      "v": 88
    },
    {
      "midi": 72,
      "hit": false,
      "t": 31632.81250000005,
      "d": 166.66666666666424,
      "v": 88
    },
    {
      "midi": 68,
      "hit": false,
      "t": 31841.145833333383,
      "d": 122.39583333333212,
      "v": 101
    },
    {
      "midi": 40,
      "hit": false,
      "t": 31841.145833333383,
      "d": 171.875,
      "v": 78
    },
    {
      "midi": 74,
      "hit": false,
      "t": 31854.166666666715,
      "d": 119.79166666666788,
      "v": 98
    },
    {
      "midi": 76,
      "hit": false,
      "t": 31854.166666666715,
      "d": 119.79166666666788,
      "v": 98
    },
    {
      "midi": 52,
      "hit": false,
      "t": 32049.47916666672,
      "d": 122.39583333333576,
      "v": 86
    },
    {
      "midi": 76,
      "hit": false,
      "t": 32057.29166666672,
      "d": 114.58333333333576,
      "v": 92
    },
    {
      "midi": 74,
      "hit": false,
      "t": 32059.895833333387,
      "d": 57.29166666666788,
      "v": 80
    },
    {
      "midi": 69,
      "hit": false,
      "t": 32062.500000000055,
      "d": 52.08333333333212,
      "v": 95
    },
    {
      "midi": 56,
      "hit": false,
      "t": 32247.395833333387,
      "d": 171.87500000000364,
      "v": 69
    },
    {
      "midi": 76,
      "hit": false,
      "t": 32276.04166666672,
      "d": 117.18750000000364,
      "v": 81
    },
    {
      "midi": 71,
      "hit": false,
      "t": 32286.458333333387,
      "d": 57.29166666666788,
      "v": 72
    },
    {
      "midi": 74,
      "hit": false,
      "t": 32294.270833333387,
      "d": 49.47916666666788,
      "v": 75
    },
    {
      "midi": 59,
      "hit": false,
      "t": 32500.000000000055,
      "d": 229.16666666666424,
      "v": 58
    },
    {
      "midi": 52,
      "hit": false,
      "t": 32520.833333333387,
      "d": 419.27083333333576,
      "v": 46
    },
    {
      "midi": 64,
      "hit": false,
      "t": 32541.66666666672,
      "d": 403.6458333333394,
      "v": 78
    },
    {
      "midi": 76,
      "hit": false,
      "t": 32557.29166666672,
      "d": 354.1666666666679,
      "v": 64
    },
    {
      "midi": 74,
      "hit": false,
      "t": 32565.10416666672,
      "d": 437.50000000000364,
      "v": 51
    },
    {
      "midi": 57,
      "hit": false,
      "t": 32781.25000000005,
      "d": 143.22916666667152,
      "v": 62
    },
    {
      "midi": 61,
      "hit": false,
      "t": 33031.25000000006,
      "d": 41.66666666667152,
      "v": 59
    },
    {
      "midi": 73,
      "hit": false,
      "t": 33044.270833333394,
      "d": 75.52083333332848,
      "v": 55
    },
    {
      "midi": 69,
      "hit": false,
      "t": 33049.47916666673,
      "d": 59.89583333332848,
      "v": 67
    },
    {
      "midi": 76,
      "hit": false,
      "t": 33052.083333333394,
      "d": 54.6875,
      "v": 62
    },
    {
      "midi": 68,
      "hit": false,
      "t": 33299.47916666672,
      "d": 80.72916666667152,
      "v": 79
    },
    {
      "midi": 40,
      "hit": false,
      "t": 33307.29166666672,
      "d": 36.45833333333576,
      "v": 80
    },
    {
      "midi": 76,
      "hit": false,
      "t": 33307.29166666672,
      "d": 70.31250000000728,
      "v": 81
    },
    {
      "midi": 74,
      "hit": false,
      "t": 33315.10416666672,
      "d": 41.66666666667152,
      "v": 84
    },
    {
      "midi": 76,
      "hit": false,
      "t": 33515.62500000006,
      "d": 54.6875,
      "v": 88
    },
    {
      "midi": 69,
      "hit": false,
      "t": 33518.22916666672,
      "d": 52.08333333333576,
      "v": 91
    },
    {
      "midi": 56,
      "hit": false,
      "t": 33523.43750000006,
      "d": 59.89583333333576,
      "v": 70
    },
    {
      "midi": 74,
      "hit": false,
      "t": 33526.04166666672,
      "d": 36.45833333333576,
      "v": 91
    },
    {
      "midi": 52,
      "hit": false,
      "t": 33531.25000000006,
      "d": 44.27083333333576,
      "v": 74
    },
    {
      "midi": 76,
      "hit": false,
      "t": 33729.16666666673,
      "d": 101.5625,
      "v": 100
    },
    {
      "midi": 62,
      "hit": false,
      "t": 33731.770833333394,
      "d": 39.0625,
      "v": 84
    },
    {
      "midi": 71,
      "hit": false,
      "t": 33731.770833333394,
      "d": 41.66666666666424,
      "v": 79
    },
    {
      "midi": 74,
      "hit": false,
      "t": 33739.583333333394,
      "d": 46.875,
      "v": 88
    },
    {
      "midi": 56,
      "hit": false,
      "t": 33744.79166666673,
      "d": 41.66666666666424,
      "v": 75
    },
    {
      "midi": 45,
      "hit": false,
      "t": 33937.500000000065,
      "d": 44.27083333333576,
      "v": 93
    },
    {
      "midi": 64,
      "hit": false,
      "t": 33953.125000000065,
      "d": 171.875,
      "v": 97
    },
    {
      "midi": 74,
      "hit": false,
      "t": 33953.125000000065,
      "d": 190.10416666666424,
      "v": 88
    },
    {
      "midi": 76,
      "hit": false,
      "t": 33953.125000000065,
      "d": 200.52083333332848,
      "v": 86
    },
    {
      "midi": 52,
      "hit": false,
      "t": 34153.645833333394,
      "d": 59.89583333333576,
      "v": 91
    },
    {
      "midi": 57,
      "hit": false,
      "t": 34161.458333333394,
      "d": 91.14583333333576,
      "v": 91
    },
    {
      "midi": 65,
      "hit": false,
      "t": 34388.020833333394,
      "d": 161.45833333333576,
      "v": 101
    },
    {
      "midi": 73,
      "hit": false,
      "t": 34388.020833333394,
      "d": 453.125,
      "v": 89
    },
    {
      "midi": 76,
      "hit": false,
      "t": 34390.62500000006,
      "d": 390.625,
      "v": 106
    },
    {
      "midi": 61,
      "hit": false,
      "t": 34395.833333333394,
      "d": 101.5625,
      "v": 92
    },
    {
      "midi": 69,
      "hit": false,
      "t": 34401.04166666673,
      "d": 458.33333333333576,
      "v": 93
    },
    {
      "midi": 57,
      "hit": false,
      "t": 34434.895833333394,
      "d": 39.0625,
      "v": 76
    },
    {
      "midi": 45,
      "hit": false,
      "t": 34661.458333333394,
      "d": 85.9375,
      "v": 87
    },
    {
      "midi": 64,
      "hit": false,
      "t": 34666.66666666673,
      "d": 187.5,
      "v": 94
    },
    {
      "midi": 57,
      "hit": false,
      "t": 34880.2083333334,
      "d": 104.16666666667152,
      "v": 99
    },
    {
      "midi": 52,
      "hit": false,
      "t": 34901.04166666674,
      "d": 46.875,
      "v": 84
    },
    {
      "midi": 65,
      "hit": false,
      "t": 35125.00000000007,
      "d": 145.83333333332848,
      "v": 100
    },
    {
      "midi": 60,
      "hit": false,
      "t": 35127.60416666674,
      "d": 33.85416666666424,
      "v": 90
    },
    {
      "midi": 76,
      "hit": false,
      "t": 35127.60416666674,
      "d": 533.854166666657,
      "v": 105
    },
    {
      "midi": 69,
      "hit": false,
      "t": 35130.2083333334,
      "d": 489.5833333333212,
      "v": 94
    },
    {
      "midi": 72,
      "hit": false,
      "t": 35130.2083333334,
      "d": 526.041666666657,
      "v": 98
    },
    {
      "midi": 57,
      "hit": false,
      "t": 35148.437500000065,
      "d": 36.45833333333576,
      "v": 70
    },
    {
      "midi": 64,
      "hit": false,
      "t": 35382.812500000065,
      "d": 236.97916666665697,
      "v": 101
    },
    {
      "midi": 40,
      "hit": false,
      "t": 35393.22916666673,
      "d": 26.04166666666424,
      "v": 92
    },
    {
      "midi": 57,
      "hit": false,
      "t": 35627.60416666672,
      "d": 104.16666666667152,
      "v": 98
    },
    {
      "midi": 60,
      "hit": false,
      "t": 35627.60416666672,
      "d": 106.77083333333576,
      "v": 99
    },
    {
      "midi": 52,
      "hit": false,
      "t": 35640.62500000006,
      "d": 78.125,
      "v": 84
    },
    {
      "midi": 68,
      "hit": false,
      "t": 35856.770833333394,
      "d": 109.375,
      "v": 99
    },
    {
      "midi": 76,
      "hit": false,
      "t": 35859.37500000006,
      "d": 88.54166666667152,
      "v": 116
    },
    {
      "midi": 64,
      "hit": false,
      "t": 35864.583333333394,
      "d": 72.91666666667152,
      "v": 105
    },
    {
      "midi": 71,
      "hit": false,
      "t": 35867.18750000006,
      "d": 36.45833333333576,
      "v": 88
    },
    {
      "midi": 59,
      "hit": false,
      "t": 35875.00000000006,
      "d": 31.25,
      "v": 83
    },
    {
      "midi": 56,
      "hit": false,
      "t": 35882.81250000006,
      "d": 36.45833333333576,
      "v": 90
    },
    {
      "midi": 52,
      "hit": false,
      "t": 35895.833333333394,
      "d": 36.45833333333576,
      "v": 74
    },
    {
      "midi": 57,
      "hit": false,
      "t": 36208.333333333394,
      "d": 88.54166666667152,
      "v": 102
    },
    {
      "midi": 45,
      "hit": false,
      "t": 36218.75000000006,
      "d": 39.062500000007276,
      "v": 97
    },
    {
      "midi": 33,
      "hit": false,
      "t": 36223.958333333394,
      "d": 28.64583333333576,
      "v": 88
    },
    {
      "midi": 49,
      "hit": false,
      "t": 36442.7083333334,
      "d": 52.08333333333576,
      "v": 84
    },
    {
      "midi": 61,
      "hit": false,
      "t": 36442.7083333334,
      "d": 80.72916666667152,
      "v": 81
    },
    {
      "midi": 37,
      "hit": false,
      "t": 36447.91666666674,
      "d": 44.27083333333576,
      "v": 79
    },
    {
      "midi": 62,
      "hit": false,
      "t": 36684.89583333341,
      "d": 62.5,
      "v": 72
    },
    {
      "midi": 50,
      "hit": false,
      "t": 36690.104166666744,
      "d": 41.66666666666424,
      "v": 78
    },
    {
      "midi": 38,
      "hit": false,
      "t": 36697.916666666744,
      "d": 41.66666666666424,
      "v": 68
    },
    {
      "midi": 61,
      "hit": false,
      "t": 36997.39583333341,
      "d": 408.85416666666424,
      "v": 63
    },
    {
      "midi": 49,
      "hit": false,
      "t": 37013.02083333341,
      "d": 242.1875,
      "v": 47
    },
    {
      "midi": 37,
      "hit": false,
      "t": 37041.666666666744,
      "d": 260.41666666666424,
      "v": 29
    },
    {
      "midi": 57,
      "hit": false,
      "t": 37541.66666666674,
      "d": 44.27083333332848,
      "v": 65
    },
    {
      "midi": 45,
      "hit": false,
      "t": 37559.8958333334,
      "d": 59.89583333333576,
      "v": 48
    },
    {
      "midi": 33,
      "hit": false,
      "t": 37591.1458333334,
      "d": 70.3125,
      "v": 28
    },
    {
      "midi": 81,
      "hit": false,
      "t": 37927.0833333334,
      "d": 122.39583333332848,
      "v": 75
    },
    {
      "midi": 73,
      "hit": false,
      "t": 37927.0833333334,
      "d": 148.43749999999272,
      "v": 68
    },
    {
      "midi": 30,
      "hit": false,
      "t": 37929.687500000065,
      "d": 101.5625,
      "v": 65
    },
    {
      "midi": 78,
      "hit": false,
      "t": 37937.500000000065,
      "d": 104.16666666666424,
      "v": 49
    },
    {
      "midi": 42,
      "hit": false,
      "t": 38138.020833333394,
      "d": 59.89583333333576,
      "v": 33
    },
    {
      "midi": 81,
      "hit": false,
      "t": 38143.22916666673,
      "d": 85.9375,
      "v": 69
    },
    {
      "midi": 78,
      "hit": false,
      "t": 38153.645833333394,
      "d": 62.5,
      "v": 61
    },
    {
      "midi": 74,
      "hit": false,
      "t": 38161.458333333394,
      "d": 46.875,
      "v": 80
    },
    {
      "midi": 81,
      "hit": false,
      "t": 38361.97916666673,
      "d": 88.54166666666424,
      "v": 90
    },
    {
      "midi": 78,
      "hit": false,
      "t": 38367.187500000065,
      "d": 54.6875,
      "v": 76
    },
    {
      "midi": 73,
      "hit": false,
      "t": 38367.187500000065,
      "d": 65.10416666666424,
      "v": 84
    },
    {
      "midi": 45,
      "hit": false,
      "t": 38375.000000000065,
      "d": 49.47916666666424,
      "v": 72
    },
    {
      "midi": 42,
      "hit": false,
      "t": 38572.91666666672,
      "d": 127.60416666665697,
      "v": 62
    },
    {
      "midi": 78,
      "hit": false,
      "t": 38575.52083333339,
      "d": 132.81249999999272,
      "v": 78
    },
    {
      "midi": 69,
      "hit": false,
      "t": 38578.12500000005,
      "d": 104.16666666666424,
      "v": 99
    },
    {
      "midi": 81,
      "hit": false,
      "t": 38578.12500000005,
      "d": 122.39583333332848,
      "v": 83
    },
    {
      "midi": 54,
      "hit": false,
      "t": 38773.437500000044,
      "d": 80.72916666667152,
      "v": 62
    },
    {
      "midi": 81,
      "hit": false,
      "t": 38781.250000000044,
      "d": 93.75,
      "v": 94
    },
    {
      "midi": 78,
      "hit": false,
      "t": 38781.250000000044,
      "d": 111.97916666666424,
      "v": 82
    },
    {
      "midi": 73,
      "hit": false,
      "t": 38786.45833333338,
      "d": 70.3125,
      "v": 95
    },
    {
      "midi": 81,
      "hit": false,
      "t": 38984.375000000044,
      "d": 93.75000000000728,
      "v": 87
    },
    {
      "midi": 78,
      "hit": false,
      "t": 38986.97916666671,
      "d": 85.93750000000728,
      "v": 75
    },
    {
      "midi": 74,
      "hit": false,
      "t": 38994.79166666671,
      "d": 46.875000000007276,
      "v": 100
    },
    {
      "midi": 57,
      "hit": false,
      "t": 39000.000000000044,
      "d": 36.45833333333576,
      "v": 78
    },
    {
      "midi": 54,
      "hit": false,
      "t": 39234.37500000005,
      "d": 330.72916666665697,
      "v": 68
    },
    {
      "midi": 73,
      "hit": false,
      "t": 39244.791666666715,
      "d": 361.97916666665697,
      "v": 77
    },
    {
      "midi": 81,
      "hit": false,
      "t": 39247.39583333338,
      "d": 330.72916666665697,
      "v": 93
    },
    {
      "midi": 78,
      "hit": false,
      "t": 39255.20833333338,
      "d": 312.4999999999927,
      "v": 65
    },
    {
      "midi": 66,
      "hit": false,
      "t": 39468.750000000044,
      "d": 49.47916666666424,
      "v": 65
    },
    {
      "midi": 61,
      "hit": false,
      "t": 39677.08333333337,
      "d": 39.0625,
      "v": 76
    },
    {
      "midi": 69,
      "hit": false,
      "t": 39690.10416666671,
      "d": 44.27083333332848,
      "v": 83
    },
    {
      "midi": 37,
      "hit": false,
      "t": 39916.6666666667,
      "d": 39.0625,
      "v": 84
    },
    {
      "midi": 68,
      "hit": false,
      "t": 39932.2916666667,
      "d": 247.39583333332848,
      "v": 86
    },
    {
      "midi": 80,
      "hit": false,
      "t": 39932.2916666667,
      "d": 276.04166666665697,
      "v": 90
    },
    {
      "midi": 78,
      "hit": false,
      "t": 39934.895833333365,
      "d": 221.35416666666424,
      "v": 82
    },
    {
      "midi": 73,
      "hit": false,
      "t": 39950.520833333365,
      "d": 197.91666666666424,
      "v": 69
    },
    {
      "midi": 56,
      "hit": false,
      "t": 40190.10416666669,
      "d": 54.6875,
      "v": 81
    },
    {
      "midi": 61,
      "hit": false,
      "t": 40200.52083333336,
      "d": 46.875,
      "v": 70
    },
    {
      "midi": 80,
      "hit": false,
      "t": 40437.50000000002,
      "d": 479.1666666666497,
      "v": 103
    },
    {
      "midi": 77,
      "hit": false,
      "t": 40440.104166666686,
      "d": 471.3541666666497,
      "v": 103
    },
    {
      "midi": 69,
      "hit": false,
      "t": 40442.70833333335,
      "d": 122.3958333333212,
      "v": 107
    },
    {
      "midi": 73,
      "hit": false,
      "t": 40442.70833333335,
      "d": 416.6666666666497,
      "v": 92
    },
    {
      "midi": 61,
      "hit": false,
      "t": 40458.33333333335,
      "d": 54.687499999992724,
      "v": 96
    },
    {
      "midi": 65,
      "hit": false,
      "t": 40460.937500000015,
      "d": 33.85416666666424,
      "v": 99
    },
    {
      "midi": 49,
      "hit": false,
      "t": 40690.10416666667,
      "d": 54.6875,
      "v": 99
    },
    {
      "midi": 68,
      "hit": false,
      "t": 40692.708333333336,
      "d": 213.54166666666424,
      "v": 105
    },
    {
      "midi": 61,
      "hit": false,
      "t": 40921.87500000001,
      "d": 70.31249999999272,
      "v": 88
    },
    {
      "midi": 56,
      "hit": false,
      "t": 40924.47916666667,
      "d": 65.10416666666424,
      "v": 82
    },
    {
      "midi": 80,
      "hit": false,
      "t": 41156.25,
      "d": 554.6874999999927,
      "v": 106
    },
    {
      "midi": 69,
      "hit": false,
      "t": 41161.458333333336,
      "d": 130.20833333333576,
      "v": 104
    },
    {
      "midi": 76,
      "hit": false,
      "t": 41161.458333333336,
      "d": 442.70833333333576,
      "v": 104
    },
    {
      "midi": 73,
      "hit": false,
      "t": 41161.458333333336,
      "d": 466.14583333333576,
      "v": 91
    },
    {
      "midi": 64,
      "hit": false,
      "t": 41166.66666666667,
      "d": 33.85416666666424,
      "v": 104
    },
    {
      "midi": 61,
      "hit": false,
      "t": 41174.47916666667,
      "d": 39.0625,
      "v": 92
    },
    {
      "midi": 68,
      "hit": false,
      "t": 41411.458333333336,
      "d": 226.5625,
      "v": 105
    },
    {
      "midi": 44,
      "hit": false,
      "t": 41416.66666666667,
      "d": 28.64583333333576,
      "v": 95
    },
    {
      "midi": 64,
      "hit": false,
      "t": 41640.625,
      "d": 41.66666666666424,
      "v": 100
    },
    {
      "midi": 61,
      "hit": false,
      "t": 41640.625,
      "d": 83.33333333332848,
      "v": 89
    },
    {
      "midi": 56,
      "hit": false,
      "t": 41643.229166666664,
      "d": 49.47916666666424,
      "v": 83
    },
    {
      "midi": 75,
      "hit": false,
      "t": 41843.74999999999,
      "d": 111.97916666666424,
      "v": 99
    },
    {
      "midi": 68,
      "hit": false,
      "t": 41843.74999999999,
      "d": 117.1875,
      "v": 113
    },
    {
      "midi": 63,
      "hit": false,
      "t": 41848.95833333333,
      "d": 39.0625,
      "v": 101
    },
    {
      "midi": 80,
      "hit": false,
      "t": 41848.95833333333,
      "d": 49.47916666666424,
      "v": 106
    },
    {
      "midi": 72,
      "hit": false,
      "t": 41848.95833333333,
      "d": 70.3125,
      "v": 104
    },
    {
      "midi": 60,
      "hit": false,
      "t": 41856.77083333333,
      "d": 39.0625,
      "v": 92
    },
    {
      "midi": 56,
      "hit": false,
      "t": 41859.37499999999,
      "d": 78.125,
      "v": 87
    },
    {
      "midi": 61,
      "hit": false,
      "t": 42088.541666666664,
      "d": 109.37499999999272,
      "v": 110
    },
    {
      "midi": 49,
      "hit": false,
      "t": 42091.14583333333,
      "d": 41.66666666666424,
      "v": 100
    },
    {
      "midi": 37,
      "hit": false,
      "t": 42093.74999999999,
      "d": 33.85416666666424,
      "v": 97
    },
    {
      "midi": 65,
      "hit": false,
      "t": 42309.89583333332,
      "d": 83.33333333332848,
      "v": 102
    },
    {
      "midi": 53,
      "hit": false,
      "t": 42320.312499999985,
      "d": 36.45833333332848,
      "v": 93
    },
    {
      "midi": 41,
      "hit": false,
      "t": 42322.91666666665,
      "d": 31.25,
      "v": 92
    },
    {
      "midi": 42,
      "hit": false,
      "t": 42541.66666666665,
      "d": 41.66666666666424,
      "v": 73
    },
    {
      "midi": 54,
      "hit": false,
      "t": 42541.66666666665,
      "d": 41.66666666666424,
      "v": 75
    },
    {
      "midi": 66,
      "hit": false,
      "t": 42541.66666666665,
      "d": 75.52083333332848,
      "v": 95
    },
    {
      "midi": 65,
      "hit": false,
      "t": 42841.145833333314,
      "d": 403.6458333333285,
      "v": 82
    },
    {
      "midi": 53,
      "hit": false,
      "t": 42856.770833333314,
      "d": 197.91666666666424,
      "v": 51
    },
    {
      "midi": 41,
      "hit": false,
      "t": 42874.99999999998,
      "d": 281.25,
      "v": 45
    },
    {
      "midi": 61,
      "hit": false,
      "t": 43395.83333333331,
      "d": 62.5,
      "v": 62
    },
    {
      "midi": 49,
      "hit": false,
      "t": 43398.43749999997,
      "d": 70.3125,
      "v": 52
    },
    {
      "midi": 37,
      "hit": false,
      "t": 43411.45833333331,
      "d": 130.20833333332848,
      "v": 42
    },
    {
      "midi": 73,
      "hit": false,
      "t": 43729.166666666635,
      "d": 80.72916666666424,
      "v": 72
    },
    {
      "midi": 34,
      "hit": false,
      "t": 43739.5833333333,
      "d": 166.66666666667152,
      "v": 65
    },
    {
      "midi": 65,
      "hit": false,
      "t": 43747.3958333333,
      "d": 57.29166666666424,
      "v": 63
    },
    {
      "midi": 70,
      "hit": false,
      "t": 43757.81249999996,
      "d": 72.91666666667152,
      "v": 55
    },
    {
      "midi": 46,
      "hit": false,
      "t": 43947.91666666664,
      "d": 96.35416666667152,
      "v": 69
    },
    {
      "midi": 66,
      "hit": false,
      "t": 43966.14583333331,
      "d": 52.08333333333576,
      "v": 67
    },
    {
      "midi": 70,
      "hit": false,
      "t": 43966.14583333331,
      "d": 65.10416666667152,
      "v": 65
    },
    {
      "midi": 73,
      "hit": false,
      "t": 43973.95833333331,
      "d": 52.08333333333576,
      "v": 64
    },
    {
      "midi": 49,
      "hit": false,
      "t": 44151.04166666664,
      "d": 484.37500000001455,
      "v": 67
    },
    {
      "midi": 65,
      "hit": false,
      "t": 44166.66666666664,
      "d": 65.10416666667152,
      "v": 81
    },
    {
      "midi": 73,
      "hit": false,
      "t": 44171.87499999998,
      "d": 67.70833333333576,
      "v": 72
    },
    {
      "midi": 70,
      "hit": false,
      "t": 44177.083333333314,
      "d": 67.70833333333576,
      "v": 74
    },
    {
      "midi": 61,
      "hit": false,
      "t": 44385.41666666665,
      "d": 54.6875,
      "v": 74
    },
    {
      "midi": 58,
      "hit": false,
      "t": 44395.833333333314,
      "d": 72.91666666667152,
      "v": 71
    },
    {
      "midi": 70,
      "hit": false,
      "t": 44401.04166666665,
      "d": 67.70833333333576,
      "v": 56
    },
    {
      "midi": 73,
      "hit": false,
      "t": 44401.04166666665,
      "d": 67.70833333333576,
      "v": 61
    },
    {
      "midi": 73,
      "hit": false,
      "t": 44591.14583333332,
      "d": 75.52083333333576,
      "v": 67
    },
    {
      "midi": 65,
      "hit": false,
      "t": 44598.95833333332,
      "d": 44.27083333333576,
      "v": 76
    },
    {
      "midi": 46,
      "hit": false,
      "t": 44604.16666666666,
      "d": 80.72916666666424,
      "v": 71
    },
    {
      "midi": 70,
      "hit": false,
      "t": 44606.77083333332,
      "d": 70.3125,
      "v": 49
    },
    {
      "midi": 66,
      "hit": false,
      "t": 44802.08333333332,
      "d": 41.66666666667152,
      "v": 79
    },
    {
      "midi": 42,
      "hit": false,
      "t": 44807.29166666666,
      "d": 46.875,
      "v": 59
    },
    {
      "midi": 73,
      "hit": false,
      "t": 44815.10416666666,
      "d": 46.875,
      "v": 69
    },
    {
      "midi": 70,
      "hit": false,
      "t": 44828.12499999999,
      "d": 67.70833333332848,
      "v": 52
    },
    {
      "midi": 68,
      "hit": false,
      "t": 44999.999999999985,
      "d": 78.125,
      "v": 90
    },
    {
      "midi": 77,
      "hit": false,
      "t": 45007.812499999985,
      "d": 83.33333333333576,
      "v": 90
    },
    {
      "midi": 37,
      "hit": false,
      "t": 45018.22916666665,
      "d": 127.60416666667152,
      "v": 74
    },
    {
      "midi": 73,
      "hit": false,
      "t": 45026.04166666665,
      "d": 44.27083333333576,
      "v": 75
    },
    {
      "midi": 77,
      "hit": false,
      "t": 45197.91666666666,
      "d": 54.6875,
      "v": 83
    },
    {
      "midi": 70,
      "hit": false,
      "t": 45205.72916666666,
      "d": 70.3125,
      "v": 94
    },
    {
      "midi": 49,
      "hit": false,
      "t": 45205.72916666666,
      "d": 80.72916666666424,
      "v": 72
    },
    {
      "midi": 73,
      "hit": false,
      "t": 45216.14583333332,
      "d": 46.875,
      "v": 75
    },
    {
      "midi": 68,
      "hit": false,
      "t": 45403.64583333332,
      "d": 75.52083333332848,
      "v": 90
    },
    {
      "midi": 77,
      "hit": false,
      "t": 45406.249999999985,
      "d": 91.14583333332848,
      "v": 98
    },
    {
      "midi": 53,
      "hit": false,
      "t": 45406.249999999985,
      "d": 518.2291666666715,
      "v": 91
    },
    {
      "midi": 73,
      "hit": false,
      "t": 45416.66666666665,
      "d": 46.875,
      "v": 81
    },
    {
      "midi": 65,
      "hit": false,
      "t": 45614.583333333314,
      "d": 52.08333333333576,
      "v": 100
    },
    {
      "midi": 73,
      "hit": false,
      "t": 45622.395833333314,
      "d": 75.52083333333576,
      "v": 78
    },
    {
      "midi": 77,
      "hit": false,
      "t": 45627.60416666665,
      "d": 52.08333333333576,
      "v": 66
    },
    {
      "midi": 61,
      "hit": false,
      "t": 45630.208333333314,
      "d": 117.18750000000728,
      "v": 83
    },
    {
      "midi": 68,
      "hit": false,
      "t": 45820.31249999999,
      "d": 78.12499999999272,
      "v": 88
    },
    {
      "midi": 77,
      "hit": false,
      "t": 45822.91666666666,
      "d": 88.54166666666424,
      "v": 94
    },
    {
      "midi": 73,
      "hit": false,
      "t": 45848.95833333332,
      "d": 49.47916666666424,
      "v": 61
    },
    {
      "midi": 49,
      "hit": false,
      "t": 45848.95833333332,
      "d": 135.41666666666424,
      "v": 69
    },
    {
      "midi": 77,
      "hit": false,
      "t": 46013.02083333332,
      "d": 101.56250000000728,
      "v": 94
    },
    {
      "midi": 70,
      "hit": false,
      "t": 46026.04166666666,
      "d": 44.27083333333576,
      "v": 92
    },
    {
      "midi": 46,
      "hit": false,
      "t": 46041.66666666666,
      "d": 41.66666666667152,
      "v": 91
    },
    {
      "midi": 73,
      "hit": false,
      "t": 46041.66666666666,
      "d": 46.875000000007276,
      "v": 62
    },
    {
      "midi": 77,
      "hit": false,
      "t": 46213.541666666664,
      "d": 114.58333333334303,
      "v": 88
    },
    {
      "midi": 80,
      "hit": false,
      "t": 46218.75,
      "d": 109.37500000000728,
      "v": 99
    },
    {
      "midi": 72,
      "hit": false,
      "t": 46223.958333333336,
      "d": 80.72916666667152,
      "v": 95
    },
    {
      "midi": 41,
      "hit": false,
      "t": 46229.16666666667,
      "d": 143.22916666667152,
      "v": 96
    },
    {
      "midi": 80,
      "hit": false,
      "t": 46406.25000000001,
      "d": 101.56250000000728,
      "v": 87
    },
    {
      "midi": 77,
      "hit": false,
      "t": 46411.45833333334,
      "d": 114.58333333334303,
      "v": 84
    },
    {
      "midi": 73,
      "hit": false,
      "t": 46416.66666666668,
      "d": 104.16666666667152,
      "v": 88
    },
    {
      "midi": 53,
      "hit": false,
      "t": 46421.875000000015,
      "d": 130.20833333333576,
      "v": 83
    },
    {
      "midi": 80,
      "hit": false,
      "t": 46609.375000000015,
      "d": 96.35416666666424,
      "v": 88
    },
    {
      "midi": 77,
      "hit": false,
      "t": 46609.375000000015,
      "d": 109.375,
      "v": 85
    },
    {
      "midi": 72,
      "hit": false,
      "t": 46609.375000000015,
      "d": 156.25,
      "v": 104
    },
    {
      "midi": 56,
      "hit": false,
      "t": 46609.375000000015,
      "d": 432.29166666665697,
      "v": 92
    },
    {
      "midi": 77,
      "hit": false,
      "t": 46807.29166666668,
      "d": 143.22916666666424,
      "v": 91
    },
    {
      "midi": 65,
      "hit": false,
      "t": 46815.10416666668,
      "d": 117.1875,
      "v": 105
    },
    {
      "midi": 80,
      "hit": false,
      "t": 46817.70833333334,
      "d": 117.1875,
      "v": 95
    },
    {
      "midi": 68,
      "hit": false,
      "t": 46817.70833333334,
      "d": 122.39583333333576,
      "v": 106
    },
    {
      "midi": 53,
      "hit": false,
      "t": 47013.02083333334,
      "d": 44.27083333332848,
      "v": 90
    },
    {
      "midi": 77,
      "hit": false,
      "t": 47020.83333333334,
      "d": 117.18749999999272,
      "v": 98
    },
    {
      "midi": 80,
      "hit": false,
      "t": 47023.43750000001,
      "d": 93.74999999999272,
      "v": 83
    },
    {
      "midi": 72,
      "hit": false,
      "t": 47026.04166666667,
      "d": 41.66666666666424,
      "v": 97
    },
    {
      "midi": 77,
      "hit": false,
      "t": 47208.333333333336,
      "d": 62.49999999998545,
      "v": 98
    },
    {
      "midi": 49,
      "hit": false,
      "t": 47210.9375,
      "d": 54.687499999992724,
      "v": 88
    },
    {
      "midi": 80,
      "hit": false,
      "t": 47210.9375,
      "d": 111.97916666665697,
      "v": 84
    },
    {
      "midi": 73,
      "hit": false,
      "t": 47213.541666666664,
      "d": 54.687499999992724,
      "v": 101
    },
    {
      "midi": 75,
      "hit": false,
      "t": 47447.91666666666,
      "d": 218.74999999999272,
      "v": 113
    },
    {
      "midi": 84,
      "hit": false,
      "t": 47450.52083333332,
      "d": 260.41666666666424,
      "v": 117
    },
    {
      "midi": 44,
      "hit": false,
      "t": 47453.124999999985,
      "d": 70.3125,
      "v": 94
    },
    {
      "midi": 80,
      "hit": false,
      "t": 47455.72916666665,
      "d": 250,
      "v": 100
    },
    {
      "midi": 56,
      "hit": false,
      "t": 47656.249999999985,
      "d": 96.35416666666424,
      "v": 87
    },
    {
      "midi": 51,
      "hit": false,
      "t": 47666.66666666665,
      "d": 52.08333333333576,
      "v": 81
    },
    {
      "midi": 80,
      "hit": false,
      "t": 47877.60416666665,
      "d": 33.85416666666424,
      "v": 93
    },
    {
      "midi": 72,
      "hit": false,
      "t": 47880.208333333314,
      "d": 31.25,
      "v": 102
    },
    {
      "midi": 84,
      "hit": false,
      "t": 47880.208333333314,
      "d": 31.25,
      "v": 94
    },
    {
      "midi": 56,
      "hit": false,
      "t": 47885.41666666665,
      "d": 36.45833333332848,
      "v": 76
    },
    {
      "midi": 60,
      "hit": false,
      "t": 47901.04166666665,
      "d": 67.70833333332848,
      "v": 43
    },
    {
      "midi": 63,
      "hit": false,
      "t": 48177.08333333331,
      "d": 187.5,
      "v": 114
    },
    {
      "midi": 72,
      "hit": false,
      "t": 48182.29166666664,
      "d": 177.08333333332848,
      "v": 115
    },
    {
      "midi": 32,
      "hit": false,
      "t": 48184.89583333331,
      "d": 70.3125,
      "v": 92
    },
    {
      "midi": 68,
      "hit": false,
      "t": 48184.89583333331,
      "d": 158.85416666666424,
      "v": 104
    },
    {
      "midi": 47,
      "hit": false,
      "t": 48401.04166666664,
      "d": 54.6875,
      "v": 54
    },
    {
      "midi": 51,
      "hit": false,
      "t": 48411.45833333331,
      "d": 57.29166666667152,
      "v": 54
    },
    {
      "midi": 60,
      "hit": false,
      "t": 48593.74999999998,
      "d": 36.45833333333576,
      "v": 100
    },
    {
      "midi": 56,
      "hit": false,
      "t": 48593.74999999998,
      "d": 93.75,
      "v": 93
    },
    {
      "midi": 72,
      "hit": false,
      "t": 48598.958333333314,
      "d": 96.35416666666424,
      "v": 113
    },
    {
      "midi": 68,
      "hit": false,
      "t": 48604.16666666665,
      "d": 41.66666666666424,
      "v": 95
    },
    {
      "midi": 51,
      "hit": false,
      "t": 48606.770833333314,
      "d": 41.66666666666424,
      "v": 81
    },
    {
      "midi": 46,
      "hit": false,
      "t": 48791.66666666664,
      "d": 70.3125,
      "v": 51
    },
    {
      "midi": 84,
      "hit": false,
      "t": 48859.37499999998,
      "d": 216.1458333333212,
      "v": 123
    },
    {
      "midi": 80,
      "hit": false,
      "t": 48861.97916666664,
      "d": 93.74999999999272,
      "v": 111
    },
    {
      "midi": 77,
      "hit": false,
      "t": 48864.58333333331,
      "d": 330.72916666665697,
      "v": 121
    },
    {
      "midi": 41,
      "hit": false,
      "t": 48874.99999999997,
      "d": 93.75,
      "v": 105
    },
    {
      "midi": 56,
      "hit": false,
      "t": 49078.12499999996,
      "d": 88.54166666666424,
      "v": 103
    },
    {
      "midi": 53,
      "hit": false,
      "t": 49080.72916666663,
      "d": 70.3125,
      "v": 100
    },
    {
      "midi": 60,
      "hit": false,
      "t": 49291.66666666663,
      "d": 33.85416666666424,
      "v": 98
    },
    {
      "midi": 80,
      "hit": false,
      "t": 49291.66666666663,
      "d": 33.85416666666424,
      "v": 90
    },
    {
      "midi": 72,
      "hit": false,
      "t": 49291.66666666663,
      "d": 44.27083333332848,
      "v": 113
    },
    {
      "midi": 56,
      "hit": false,
      "t": 49299.47916666663,
      "d": 36.45833333332848,
      "v": 84
    },
    {
      "midi": 84,
      "hit": false,
      "t": 49315.10416666663,
      "d": 54.687499999992724,
      "v": 45
    },
    {
      "midi": 29,
      "hit": false,
      "t": 49604.16666666662,
      "d": 62.5,
      "v": 106
    },
    {
      "midi": 72,
      "hit": false,
      "t": 49604.16666666662,
      "d": 192.70833333333576,
      "v": 115
    },
    {
      "midi": 68,
      "hit": false,
      "t": 49609.374999999956,
      "d": 182.29166666666424,
      "v": 99
    },
    {
      "midi": 65,
      "hit": false,
      "t": 49611.97916666662,
      "d": 325.52083333333576,
      "v": 100
    },
    {
      "midi": 53,
      "hit": false,
      "t": 49815.10416666662,
      "d": 171.875,
      "v": 103
    },
    {
      "midi": 48,
      "hit": false,
      "t": 49830.72916666662,
      "d": 109.375,
      "v": 93
    },
    {
      "midi": 60,
      "hit": false,
      "t": 50028.645833333285,
      "d": 26.041666666671517,
      "v": 105
    },
    {
      "midi": 72,
      "hit": false,
      "t": 50031.24999999995,
      "d": 78.12500000001455,
      "v": 113
    },
    {
      "midi": 68,
      "hit": false,
      "t": 50036.458333333285,
      "d": 39.062500000007276,
      "v": 92
    },
    {
      "midi": 56,
      "hit": false,
      "t": 50041.66666666662,
      "d": 46.875000000007276,
      "v": 97
    },
    {
      "midi": 54,
      "hit": false,
      "t": 50200.5208333333,
      "d": 72.91666666666424,
      "v": 33
    },
    {
      "midi": 91,
      "hit": false,
      "t": 50385.41666666663,
      "d": 276.04166666666424,
      "v": 117
    },
    {
      "midi": 79,
      "hit": false,
      "t": 50388.02083333329,
      "d": 330.72916666666424,
      "v": 116
    },
    {
      "midi": 55,
      "hit": false,
      "t": 50388.02083333329,
      "d": 369.79166666666424,
      "v": 115
    },
    {
      "midi": 67,
      "hit": false,
      "t": 50643.22916666663,
      "d": 75.52083333332848,
      "v": 106
    },
    {
      "midi": 88,
      "hit": false,
      "t": 50854.16666666662,
      "d": 83.33333333333576,
      "v": 111
    },
    {
      "midi": 76,
      "hit": false,
      "t": 50859.374999999956,
      "d": 91.14583333333576,
      "v": 110
    },
    {
      "midi": 64,
      "hit": false,
      "t": 50867.187499999956,
      "d": 44.27083333333576,
      "v": 105
    },
    {
      "midi": 52,
      "hit": false,
      "t": 50872.39583333329,
      "d": 80.72916666666424,
      "v": 101
    },
    {
      "midi": 84,
      "hit": false,
      "t": 51085.937499999956,
      "d": 236.97916666667152,
      "v": 115
    },
    {
      "midi": 72,
      "hit": false,
      "t": 51085.937499999956,
      "d": 257.8125000000073,
      "v": 115
    },
    {
      "midi": 48,
      "hit": false,
      "t": 51085.937499999956,
      "d": 268.2291666666715,
      "v": 108
    },
    {
      "midi": 60,
      "hit": false,
      "t": 51307.29166666663,
      "d": 80.72916666666424,
      "v": 102
    },
    {
      "midi": 68,
      "hit": false,
      "t": 51499.999999999956,
      "d": 98.95833333333576,
      "v": 106
    },
    {
      "midi": 80,
      "hit": false,
      "t": 51502.60416666662,
      "d": 106.77083333333576,
      "v": 105
    },
    {
      "midi": 56,
      "hit": false,
      "t": 51510.41666666662,
      "d": 101.5625,
      "v": 97
    },
    {
      "midi": 44,
      "hit": false,
      "t": 51523.437499999956,
      "d": 101.5625,
      "v": 92
    },
    {
      "midi": 73,
      "hit": false,
      "t": 51684.89583333329,
      "d": 65.10416666666424,
      "v": 37
    },
    {
      "midi": 77,
      "hit": false,
      "t": 51729.16666666663,
      "d": 203.12499999999272,
      "v": 112
    },
    {
      "midi": 65,
      "hit": false,
      "t": 51729.16666666663,
      "d": 221.35416666665697,
      "v": 112
    },
    {
      "midi": 41,
      "hit": false,
      "t": 51731.77083333329,
      "d": 257.8124999999927,
      "v": 106
    },
    {
      "midi": 53,
      "hit": false,
      "t": 51942.708333333285,
      "d": 72.91666666666424,
      "v": 98
    },
    {
      "midi": 61,
      "hit": false,
      "t": 52135.41666666661,
      "d": 83.33333333333576,
      "v": 104
    },
    {
      "midi": 73,
      "hit": false,
      "t": 52138.02083333328,
      "d": 101.56250000000728,
      "v": 100
    },
    {
      "midi": 49,
      "hit": false,
      "t": 52151.04166666661,
      "d": 52.08333333333576,
      "v": 97
    },
    {
      "midi": 37,
      "hit": false,
      "t": 52156.24999999995,
      "d": 44.27083333333576,
      "v": 92
    },
    {
      "midi": 58,
      "hit": false,
      "t": 52369.79166666662,
      "d": 223.95833333333576,
      "v": 113
    },
    {
      "midi": 34,
      "hit": false,
      "t": 52369.79166666662,
      "d": 354.16666666666424,
      "v": 106
    },
    {
      "midi": 70,
      "hit": false,
      "t": 52374.999999999956,
      "d": 166.66666666666424,
      "v": 108
    },
    {
      "midi": 46,
      "hit": false,
      "t": 52570.312499999956,
      "d": 111.97916666666424,
      "v": 102
    },
    {
      "midi": 67,
      "hit": false,
      "t": 52749.99999999995,
      "d": 41.66666666667152,
      "v": 104
    },
    {
      "midi": 55,
      "hit": false,
      "t": 52749.99999999995,
      "d": 98.95833333334303,
      "v": 102
    },
    {
      "midi": 43,
      "hit": false,
      "t": 52763.020833333285,
      "d": 33.85416666667152,
      "v": 93
    },
    {
      "midi": 31,
      "hit": false,
      "t": 52763.020833333285,
      "d": 62.500000000007276,
      "v": 98
    },
    {
      "midi": 24,
      "hit": false,
      "t": 52968.749999999956,
      "d": 23.437500000007276,
      "v": 107
    },
    {
      "midi": 36,
      "hit": false,
      "t": 52973.95833333329,
      "d": 36.45833333333576,
      "v": 100
    },
    {
      "midi": 60,
      "hit": false,
      "t": 52981.77083333329,
      "d": 109.375,
      "v": 81
    },
    {
      "midi": 48,
      "hit": false,
      "t": 52986.97916666663,
      "d": 33.85416666666424,
      "v": 92
    },
    {
      "midi": 60,
      "hit": false,
      "t": 53161.45833333329,
      "d": 294.27083333333576,
      "v": 90
    },
    {
      "midi": 48,
      "hit": false,
      "t": 53187.499999999956,
      "d": 203.125,
      "v": 89
    },
    {
      "midi": 61,
      "hit": false,
      "t": 53398.437499999956,
      "d": 1645.8333333333285,
      "v": 86
    },
    {
      "midi": 49,
      "hit": false,
      "t": 53411.45833333329,
      "d": 596.3541666666715,
      "v": 65
    },
    {
      "midi": 53,
      "hit": false,
      "t": 53632.81249999996,
      "d": 182.29166666666424,
      "v": 67
    },
    {
      "midi": 56,
      "hit": false,
      "t": 53820.31249999996,
      "d": 304.6875,
      "v": 68
    },
    {
      "midi": 53,
      "hit": false,
      "t": 54044.2708333333,
      "d": 903.6458333333212,
      "v": 69
    },
    {
      "midi": 49,
      "hit": false,
      "t": 54236.97916666663,
      "d": 174.47916666666424,
      "v": 75
    },
    {
      "midi": 48,
      "hit": false,
      "t": 54450.52083333329,
      "d": 190.10416666666424,
      "v": 72
    },
    {
      "midi": 46,
      "hit": false,
      "t": 54648.437499999956,
      "d": 195.3125,
      "v": 75
    },
    {
      "midi": 44,
      "hit": false,
      "t": 54843.749999999956,
      "d": 109.375,
      "v": 61
    },
    {
      "midi": 41,
      "hit": false,
      "t": 55041.66666666662,
      "d": 119.79166666666424,
      "v": 71
    },
    {
      "midi": 37,
      "hit": false,
      "t": 55244.79166666662,
      "d": 161.45833333333576,
      "v": 72
    },
    {
      "midi": 60,
      "hit": false,
      "t": 55484.374999999956,
      "d": 158.85416666666424,
      "v": 80
    },
    {
      "midi": 36,
      "hit": false,
      "t": 55499.999999999956,
      "d": 455.72916666665697,
      "v": 64
    },
    {
      "midi": 68,
      "hit": false,
      "t": 55502.60416666662,
      "d": 179.6875,
      "v": 51
    },
    {
      "midi": 72,
      "hit": false,
      "t": 55507.812499999956,
      "d": 158.85416666666424,
      "v": 61
    },
    {
      "midi": 72,
      "hit": false,
      "t": 55770.833333333285,
      "d": 151.04166666666424,
      "v": 71
    },
    {
      "midi": 68,
      "hit": false,
      "t": 55773.43749999995,
      "d": 143.22916666666424,
      "v": 52
    },
    {
      "midi": 63,
      "hit": false,
      "t": 55776.04166666661,
      "d": 208.33333333332848,
      "v": 80
    },
    {
      "midi": 44,
      "hit": false,
      "t": 55781.24999999995,
      "d": 208.33333333332848,
      "v": 57
    },
    {
      "midi": 72,
      "hit": false,
      "t": 56023.43749999994,
      "d": 1867.1875000000146,
      "v": 67
    },
    {
      "midi": 48,
      "hit": false,
      "t": 56026.041666666606,
      "d": 41.66666666667152,
      "v": 73
    },
    {
      "midi": 68,
      "hit": false,
      "t": 56031.24999999994,
      "d": 1919.2708333333503,
      "v": 44
    },
    {
      "midi": 65,
      "hit": false,
      "t": 56036.45833333328,
      "d": 1927.0833333333503,
      "v": 80
    },
    {
      "midi": 56,
      "hit": false,
      "t": 56223.95833333328,
      "d": 195.3125,
      "v": 77
    },
    {
      "midi": 60,
      "hit": false,
      "t": 56445.31249999994,
      "d": 166.66666666666424,
      "v": 72
    },
    {
      "midi": 56,
      "hit": false,
      "t": 56666.666666666606,
      "d": 125,
      "v": 62
    },
    {
      "midi": 53,
      "hit": false,
      "t": 56869.791666666606,
      "d": 203.125,
      "v": 62
    },
    {
      "midi": 51,
      "hit": false,
      "t": 57075.52083333327,
      "d": 223.95833333333576,
      "v": 57
    },
    {
      "midi": 49,
      "hit": false,
      "t": 57304.68749999994,
      "d": 182.29166666667152,
      "v": 51
    },
    {
      "midi": 48,
      "hit": false,
      "t": 57546.87499999995,
      "d": 231.77083333333576,
      "v": 49
    },
    {
      "midi": 44,
      "hit": false,
      "t": 57791.66666666662,
      "d": 263.02083333334303,
      "v": 44
    },
    {
      "midi": 41,
      "hit": false,
      "t": 58098.9583333333,
      "d": 270.8333333333285,
      "v": 31
    },
    {
      "midi": 76,
      "hit": false,
      "t": 58442.70833333329,
      "d": 338.5416666666715,
      "v": 50
    },
    {
      "midi": 64,
      "hit": false,
      "t": 58447.91666666663,
      "d": 333.33333333333576,
      "v": 49
    },
    {
      "midi": 72,
      "hit": false,
      "t": 58460.93749999996,
      "d": 307.29166666666424,
      "v": 25
    },
    {
      "midi": 36,
      "hit": false,
      "t": 58473.9583333333,
      "d": 166.66666666666424,
      "v": 41
    },
    {
      "midi": 48,
      "hit": false,
      "t": 58729.16666666663,
      "d": 78.125,
      "v": 38
    },
    {
      "midi": 67,
      "hit": false,
      "t": 58963.54166666663,
      "d": 164.06249999999272,
      "v": 64
    },
    {
      "midi": 76,
      "hit": false,
      "t": 58973.95833333329,
      "d": 239.58333333332848,
      "v": 57
    },
    {
      "midi": 52,
      "hit": false,
      "t": 58992.187499999956,
      "d": 125,
      "v": 32
    },
    {
      "midi": 72,
      "hit": false,
      "t": 58994.79166666662,
      "d": 166.66666666666424,
      "v": 42
    },
    {
      "midi": 48,
      "hit": false,
      "t": 59020.833333333285,
      "d": 83.33333333333576,
      "v": 29
    },
    {
      "midi": 60,
      "hit": false,
      "t": 59190.10416666662,
      "d": 91.14583333333576,
      "v": 59
    },
    {
      "midi": 69,
      "hit": false,
      "t": 59367.187499999956,
      "d": 299.4791666666715,
      "v": 80
    },
    {
      "midi": 76,
      "hit": false,
      "t": 59380.20833333329,
      "d": 184.89583333333576,
      "v": 79
    },
    {
      "midi": 52,
      "hit": false,
      "t": 59401.04166666663,
      "d": 49.47916666666424,
      "v": 64
    },
    {
      "midi": 72,
      "hit": false,
      "t": 59416.66666666663,
      "d": 70.3125,
      "v": 48
    },
    {
      "midi": 48,
      "hit": false,
      "t": 59585.93749999996,
      "d": 117.1875,
      "v": 74
    },
    {
      "midi": 76,
      "hit": false,
      "t": 59781.24999999996,
      "d": 229.1666666666788,
      "v": 84
    },
    {
      "midi": 67,
      "hit": false,
      "t": 59786.4583333333,
      "d": 437.5,
      "v": 84
    },
    {
      "midi": 72,
      "hit": false,
      "t": 59796.87499999997,
      "d": 250,
      "v": 74
    },
    {
      "midi": 36,
      "hit": false,
      "t": 59804.68749999997,
      "d": 177.08333333333576,
      "v": 68
    },
    {
      "midi": 48,
      "hit": false,
      "t": 60020.83333333331,
      "d": 106.77083333332848,
      "v": 88
    },
    {
      "midi": 64,
      "hit": false,
      "t": 60216.1458333333,
      "d": 312.5,
      "v": 87
    },
    {
      "midi": 76,
      "hit": false,
      "t": 60218.74999999996,
      "d": 158.85416666666424,
      "v": 72
    },
    {
      "midi": 52,
      "hit": false,
      "t": 60223.9583333333,
      "d": 91.14583333332848,
      "v": 74
    },
    {
      "midi": 72,
      "hit": false,
      "t": 60242.18749999996,
      "d": 169.27083333332848,
      "v": 63
    },
    {
      "midi": 60,
      "hit": false,
      "t": 60432.29166666663,
      "d": 91.14583333333576,
      "v": 69
    },
    {
      "midi": 69,
      "hit": false,
      "t": 60632.81249999996,
      "d": 111.97916666666424,
      "v": 84
    },
    {
      "midi": 72,
      "hit": false,
      "t": 60638.0208333333,
      "d": 119.79166666666424,
      "v": 69
    },
    {
      "midi": 76,
      "hit": false,
      "t": 60653.6458333333,
      "d": 161.45833333332848,
      "v": 68
    },
    {
      "midi": 52,
      "hit": false,
      "t": 60656.24999999996,
      "d": 39.0625,
      "v": 66
    },
    {
      "midi": 48,
      "hit": false,
      "t": 60906.24999999996,
      "d": 78.125,
      "v": 25
    },
    {
      "midi": 40,
      "hit": false,
      "t": 61104.16666666663,
      "d": 192.70833333333576,
      "v": 59
    },
    {
      "midi": 76,
      "hit": false,
      "t": 61104.16666666663,
      "d": 273.4375,
      "v": 71
    },
    {
      "midi": 67,
      "hit": false,
      "t": 61104.16666666663,
      "d": 325.52083333333576,
      "v": 58
    },
    {
      "midi": 71,
      "hit": false,
      "t": 61124.99999999996,
      "d": 309.89583333333576,
      "v": 39
    },
    {
      "midi": 52,
      "hit": false,
      "t": 61343.74999999996,
      "d": 62.5,
      "v": 59
    },
    {
      "midi": 64,
      "hit": false,
      "t": 61544.2708333333,
      "d": 49.47916666666424,
      "v": 68
    },
    {
      "midi": 55,
      "hit": false,
      "t": 61552.0833333333,
      "d": 62.5,
      "v": 57
    },
    {
      "midi": 76,
      "hit": false,
      "t": 61742.18749999996,
      "d": 98.95833333332848,
      "v": 94
    },
    {
      "midi": 67,
      "hit": false,
      "t": 61744.79166666663,
      "d": 36.45833333333576,
      "v": 90
    },
    {
      "midi": 71,
      "hit": false,
      "t": 61747.39583333329,
      "d": 44.27083333333576,
      "v": 83
    },
    {
      "midi": 59,
      "hit": false,
      "t": 61752.60416666663,
      "d": 85.9375,
      "v": 69
    },
    {
      "midi": 52,
      "hit": false,
      "t": 61768.22916666663,
      "d": 49.47916666666424,
      "v": 72
    },
    {
      "midi": 67,
      "hit": false,
      "t": 61945.312499999956,
      "d": 106.77083333333576,
      "v": 103
    },
    {
      "midi": 79,
      "hit": false,
      "t": 62143.22916666663,
      "d": 98.95833333332848,
      "v": 105
    },
    {
      "midi": 71,
      "hit": false,
      "t": 62145.83333333329,
      "d": 31.25,
      "v": 88
    },
    {
      "midi": 76,
      "hit": false,
      "t": 62153.64583333329,
      "d": 39.0625,
      "v": 94
    },
    {
      "midi": 71,
      "hit": false,
      "t": 62338.54166666662,
      "d": 117.18749999999272,
      "v": 100
    },
    {
      "midi": 31,
      "hit": false,
      "t": 62341.145833333285,
      "d": 28.645833333328483,
      "v": 98
    },
    {
      "midi": 43,
      "hit": false,
      "t": 62343.74999999995,
      "d": 33.85416666666424,
      "v": 96
    },
    {
      "midi": 83,
      "hit": false,
      "t": 62546.87499999995,
      "d": 109.37499999999272,
      "v": 91
    },
    {
      "midi": 76,
      "hit": false,
      "t": 62549.47916666661,
      "d": 39.0625,
      "v": 106
    },
    {
      "midi": 79,
      "hit": false,
      "t": 62557.29166666661,
      "d": 33.85416666666424,
      "v": 94
    },
    {
      "midi": 76,
      "hit": false,
      "t": 62736.979166666606,
      "d": 96.35416666667152,
      "v": 111
    },
    {
      "midi": 43,
      "hit": false,
      "t": 62757.81249999994,
      "d": 91.14583333333576,
      "v": 99
    },
    {
      "midi": 50,
      "hit": false,
      "t": 62804.68749999994,
      "d": 122.39583333333576,
      "v": 100
    },
    {
      "midi": 53,
      "hit": false,
      "t": 62848.95833333328,
      "d": 111.97916666667152,
      "v": 94
    },
    {
      "midi": 59,
      "hit": false,
      "t": 62932.29166666661,
      "d": 36.45833333333576,
      "v": 97
    },
    {
      "midi": 79,
      "hit": false,
      "t": 63026.04166666661,
      "d": 158.85416666667152,
      "v": 99
    },
    {
      "midi": 77,
      "hit": false,
      "t": 63093.74999999995,
      "d": 164.06250000000728,
      "v": 64
    },
    {
      "midi": 74,
      "hit": false,
      "t": 63190.10416666662,
      "d": 132.81250000000728,
      "v": 89
    },
    {
      "midi": 71,
      "hit": false,
      "t": 63294.27083333329,
      "d": 54.6875,
      "v": 66
    },
    {
      "midi": 67,
      "hit": false,
      "t": 63361.97916666663,
      "d": 83.33333333333576,
      "v": 97
    },
    {
      "midi": 65,
      "hit": false,
      "t": 63486.97916666663,
      "d": 117.1875,
      "v": 91
    },
    {
      "midi": 62,
      "hit": false,
      "t": 63588.54166666663,
      "d": 130.20833333333576,
      "v": 101
    },
    {
      "midi": 64,
      "hit": false,
      "t": 64059.89583333329,
      "d": 96.35416666666424,
      "v": 67
    },
    {
      "midi": 72,
      "hit": false,
      "t": 64067.70833333329,
      "d": 111.97916666666424,
      "v": 49
    },
    {
      "midi": 76,
      "hit": false,
      "t": 64070.312499999956,
      "d": 85.9375,
      "v": 68
    },
    {
      "midi": 36,
      "hit": false,
      "t": 64072.91666666662,
      "d": 122.39583333333576,
      "v": 51
    },
    {
      "midi": 76,
      "hit": false,
      "t": 64281.249999999956,
      "d": 62.5,
      "v": 69
    },
    {
      "midi": 48,
      "hit": false,
      "t": 64286.45833333329,
      "d": 49.47916666666424,
      "v": 58
    },
    {
      "midi": 67,
      "hit": false,
      "t": 64286.45833333329,
      "d": 49.47916666666424,
      "v": 70
    },
    {
      "midi": 72,
      "hit": false,
      "t": 64294.27083333329,
      "d": 59.89583333332848,
      "v": 48
    },
    {
      "midi": 76,
      "hit": false,
      "t": 64458.333333333285,
      "d": 96.35416666667152,
      "v": 72
    },
    {
      "midi": 48,
      "hit": false,
      "t": 64460.93749999995,
      "d": 200.52083333334303,
      "v": 29
    },
    {
      "midi": 72,
      "hit": false,
      "t": 64468.74999999995,
      "d": 62.5,
      "v": 50
    },
    {
      "midi": 69,
      "hit": false,
      "t": 64468.74999999995,
      "d": 75.52083333333576,
      "v": 86
    },
    {
      "midi": 52,
      "hit": false,
      "t": 64473.958333333285,
      "d": 75.52083333333576,
      "v": 75
    },
    {
      "midi": 76,
      "hit": false,
      "t": 64671.874999999956,
      "d": 223.95833333333576,
      "v": 71
    },
    {
      "midi": 72,
      "hit": false,
      "t": 64679.687499999956,
      "d": 309.89583333333576,
      "v": 66
    },
    {
      "midi": 67,
      "hit": false,
      "t": 64679.687499999956,
      "d": 322.9166666666715,
      "v": 82
    },
    {
      "midi": 60,
      "hit": false,
      "t": 64684.89583333329,
      "d": 125,
      "v": 74
    },
    {
      "midi": 52,
      "hit": false,
      "t": 64895.83333333329,
      "d": 36.45833333333576,
      "v": 75
    },
    {
      "midi": 48,
      "hit": false,
      "t": 65065.10416666663,
      "d": 44.27083333333576,
      "v": 87
    },
    {
      "midi": 64,
      "hit": false,
      "t": 65080.72916666663,
      "d": 41.66666666667152,
      "v": 87
    },
    {
      "midi": 76,
      "hit": false,
      "t": 65270.8333333333,
      "d": 117.18750000000728,
      "v": 98
    },
    {
      "midi": 34,
      "hit": false,
      "t": 65276.041666666635,
      "d": 140.625,
      "v": 103
    },
    {
      "midi": 67,
      "hit": false,
      "t": 65281.24999999997,
      "d": 98.95833333333576,
      "v": 94
    },
    {
      "midi": 72,
      "hit": false,
      "t": 65281.24999999997,
      "d": 125,
      "v": 94
    },
    {
      "midi": 46,
      "hit": false,
      "t": 65440.104166666635,
      "d": 59.89583333332848,
      "v": 94
    },
    {
      "midi": 76,
      "hit": false,
      "t": 65473.9583333333,
      "d": 101.5625,
      "v": 88
    },
    {
      "midi": 72,
      "hit": false,
      "t": 65479.166666666635,
      "d": 70.31249999999272,
      "v": 97
    },
    {
      "midi": 69,
      "hit": false,
      "t": 65481.7708333333,
      "d": 85.9375,
      "v": 96
    },
    {
      "midi": 72,
      "hit": false,
      "t": 65666.66666666663,
      "d": 111.97916666667152,
      "v": 98
    },
    {
      "midi": 48,
      "hit": false,
      "t": 65666.66666666663,
      "d": 177.08333333334303,
      "v": 86
    },
    {
      "midi": 67,
      "hit": false,
      "t": 65669.2708333333,
      "d": 85.9375,
      "v": 103
    },
    {
      "midi": 76,
      "hit": false,
      "t": 65669.2708333333,
      "d": 106.77083333332848,
      "v": 92
    },
    {
      "midi": 72,
      "hit": false,
      "t": 65854.16666666664,
      "d": 127.60416666668607,
      "v": 91
    },
    {
      "midi": 76,
      "hit": false,
      "t": 65864.58333333331,
      "d": 114.58333333334303,
      "v": 83
    },
    {
      "midi": 64,
      "hit": false,
      "t": 65869.79166666664,
      "d": 59.895833333343035,
      "v": 101
    },
    {
      "midi": 60,
      "hit": false,
      "t": 65872.39583333331,
      "d": 59.895833333343035,
      "v": 88
    },
    {
      "midi": 48,
      "hit": false,
      "t": 66031.25,
      "d": 44.270833333343035,
      "v": 86
    },
    {
      "midi": 76,
      "hit": false,
      "t": 66049.47916666667,
      "d": 98.95833333332848,
      "v": 100
    },
    {
      "midi": 72,
      "hit": false,
      "t": 66052.08333333334,
      "d": 70.3125,
      "v": 104
    },
    {
      "midi": 67,
      "hit": false,
      "t": 66054.68750000001,
      "d": 72.91666666665697,
      "v": 100
    },
    {
      "midi": 46,
      "hit": false,
      "t": 66223.95833333333,
      "d": 78.125,
      "v": 88
    },
    {
      "midi": 69,
      "hit": false,
      "t": 66236.97916666666,
      "d": 88.54166666667152,
      "v": 105
    },
    {
      "midi": 76,
      "hit": false,
      "t": 66239.58333333333,
      "d": 96.35416666667152,
      "v": 97
    },
    {
      "midi": 72,
      "hit": false,
      "t": 66247.39583333333,
      "d": 39.0625,
      "v": 98
    },
    {
      "midi": 76,
      "hit": false,
      "t": 66458.33333333333,
      "d": 226.56250000001455,
      "v": 106
    },
    {
      "midi": 73,
      "hit": false,
      "t": 66466.14583333333,
      "d": 242.18750000001455,
      "v": 94
    },
    {
      "midi": 67,
      "hit": false,
      "t": 66466.14583333333,
      "d": 294.27083333334303,
      "v": 108
    },
    {
      "midi": 33,
      "hit": false,
      "t": 66468.75,
      "d": 135.41666666667152,
      "v": 100
    },
    {
      "midi": 70,
      "hit": false,
      "t": 66489.58333333333,
      "d": 70.3125,
      "v": 63
    },
    {
      "midi": 45,
      "hit": false,
      "t": 66638.02083333334,
      "d": 140.625,
      "v": 88
    },
    {
      "midi": 64,
      "hit": false,
      "t": 66838.54166666667,
      "d": 96.35416666665697,
      "v": 97
    },
    {
      "midi": 49,
      "hit": false,
      "t": 66843.75,
      "d": 114.58333333332848,
      "v": 76
    },
    {
      "midi": 67,
      "hit": false,
      "t": 67036.45833333333,
      "d": 57.29166666664241,
      "v": 99
    },
    {
      "midi": 73,
      "hit": false,
      "t": 67041.66666666666,
      "d": 109.37499999998545,
      "v": 89
    },
    {
      "midi": 76,
      "hit": false,
      "t": 67046.87499999999,
      "d": 119.79166666665697,
      "v": 103
    },
    {
      "midi": 57,
      "hit": false,
      "t": 67059.89583333331,
      "d": 143.22916666665697,
      "v": 96
    },
    {
      "midi": 45,
      "hit": false,
      "t": 67065.10416666664,
      "d": 226.5625,
      "v": 84
    },
    {
      "midi": 52,
      "hit": false,
      "t": 67078.12499999997,
      "d": 166.66666666667152,
      "v": 78
    },
    {
      "midi": 67,
      "hit": false,
      "t": 67236.97916666664,
      "d": 106.77083333332848,
      "v": 112
    },
    {
      "midi": 79,
      "hit": false,
      "t": 67437.49999999997,
      "d": 88.54166666665697,
      "v": 105
    },
    {
      "midi": 73,
      "hit": false,
      "t": 67442.7083333333,
      "d": 36.45833333332848,
      "v": 97
    },
    {
      "midi": 76,
      "hit": false,
      "t": 67442.7083333333,
      "d": 44.27083333332848,
      "v": 104
    },
    {
      "midi": 73,
      "hit": false,
      "t": 67630.2083333333,
      "d": 127.60416666667152,
      "v": 105
    },
    {
      "midi": 29,
      "hit": false,
      "t": 67640.62499999997,
      "d": 70.3125,
      "v": 108
    },
    {
      "midi": 85,
      "hit": false,
      "t": 67825.5208333333,
      "d": 104.16666666665697,
      "v": 105
    },
    {
      "midi": 79,
      "hit": false,
      "t": 67838.54166666663,
      "d": 67.70833333332848,
      "v": 93
    },
    {
      "midi": 76,
      "hit": false,
      "t": 67841.1458333333,
      "d": 44.27083333332848,
      "v": 89
    },
    {
      "midi": 76,
      "hit": false,
      "t": 68031.24999999996,
      "d": 93.75,
      "v": 115
    },
    {
      "midi": 53,
      "hit": false,
      "t": 68127.60416666663,
      "d": 177.08333333332848,
      "v": 87
    },
    {
      "midi": 57,
      "hit": false,
      "t": 68190.10416666663,
      "d": 169.27083333332848,
      "v": 97
    },
    {
      "midi": 81,
      "hit": false,
      "t": 68249.99999999996,
      "d": 143.22916666667152,
      "v": 103
    },
    {
      "midi": 62,
      "hit": false,
      "t": 68270.83333333328,
      "d": 111.97916666667152,
      "v": 85
    },
    {
      "midi": 65,
      "hit": false,
      "t": 68333.33333333328,
      "d": 72.91666666668607,
      "v": 95
    },
    {
      "midi": 77,
      "hit": false,
      "t": 68343.74999999996,
      "d": 104.16666666668607,
      "v": 97
    },
    {
      "midi": 74,
      "hit": false,
      "t": 68421.87499999997,
      "d": 46.875,
      "v": 90
    },
    {
      "midi": 69,
      "hit": false,
      "t": 68489.5833333333,
      "d": 41.66666666667152,
      "v": 100
    },
    {
      "midi": 65,
      "hit": false,
      "t": 68604.16666666664,
      "d": 72.91666666667152,
      "v": 97
    },
    {
      "midi": 62,
      "hit": false,
      "t": 68705.72916666664,
      "d": 148.4375,
      "v": 97
    },
    {
      "midi": 67,
      "hit": false,
      "t": 69093.74999999997,
      "d": 1031.2500000000146,
      "v": 62
    },
    {
      "midi": 59,
      "hit": false,
      "t": 69119.79166666664,
      "d": 221.35416666667152,
      "v": 31
    },
    {
      "midi": 31,
      "hit": false,
      "t": 69130.20833333331,
      "d": 171.875,
      "v": 41
    },
    {
      "midi": 65,
      "hit": false,
      "t": 69135.41666666664,
      "d": 684.8958333333576,
      "v": 36
    },
    {
      "midi": 60,
      "hit": false,
      "t": 69364.58333333331,
      "d": 223.95833333334303,
      "v": 54
    },
    {
      "midi": 43,
      "hit": false,
      "t": 69398.43749999999,
      "d": 85.9375,
      "v": 40
    },
    {
      "midi": 62,
      "hit": false,
      "t": 69593.74999999999,
      "d": 260.4166666666715,
      "v": 54
    },
    {
      "midi": 47,
      "hit": false,
      "t": 69604.16666666666,
      "d": 119.79166666667152,
      "v": 47
    },
    {
      "midi": 50,
      "hit": false,
      "t": 69825.52083333333,
      "d": 205.72916666665697,
      "v": 47
    },
    {
      "midi": 43,
      "hit": false,
      "t": 69833.33333333333,
      "d": 260.41666666665697,
      "v": 38
    },
    {
      "midi": 55,
      "hit": false,
      "t": 69841.14583333333,
      "d": 294.2708333333285,
      "v": 64
    },
    {
      "midi": 48,
      "hit": false,
      "t": 70041.66666666666,
      "d": 78.125,
      "v": 63
    },
    {
      "midi": 52,
      "hit": false,
      "t": 70231.77083333333,
      "d": 49.47916666667152,
      "v": 59
    },
    {
      "midi": 60,
      "hit": false,
      "t": 70234.375,
      "d": 44.27083333332848,
      "v": 79
    },
    {
      "midi": 64,
      "hit": false,
      "t": 70242.1875,
      "d": 36.45833333332848,
      "v": 85
    },
    {
      "midi": 65,
      "hit": false,
      "t": 70468.75,
      "d": 442.7083333333285,
      "v": 87
    },
    {
      "midi": 74,
      "hit": false,
      "t": 70468.75,
      "d": 486.97916666665697,
      "v": 99
    },
    {
      "midi": 68,
      "hit": false,
      "t": 70473.95833333333,
      "d": 244.79166666665697,
      "v": 76
    },
    {
      "midi": 29,
      "hit": false,
      "t": 70486.97916666666,
      "d": 166.66666666665697,
      "v": 69
    },
    {
      "midi": 41,
      "hit": false,
      "t": 70669.27083333331,
      "d": 135.41666666667152,
      "v": 79
    },
    {
      "midi": 72,
      "hit": false,
      "t": 70854.16666666666,
      "d": 343.75,
      "v": 100
    },
    {
      "midi": 44,
      "hit": false,
      "t": 70864.58333333333,
      "d": 145.83333333332848,
      "v": 72
    },
    {
      "midi": 42,
      "hit": false,
      "t": 71124.99999999999,
      "d": 257.81250000001455,
      "v": 69
    },
    {
      "midi": 76,
      "hit": false,
      "t": 71140.62499999999,
      "d": 429.68750000001455,
      "v": 93
    },
    {
      "midi": 64,
      "hit": false,
      "t": 71153.64583333331,
      "d": 382.81250000001455,
      "v": 57
    },
    {
      "midi": 69,
      "hit": false,
      "t": 71166.66666666666,
      "d": 382.8125,
      "v": 61
    },
    {
      "midi": 54,
      "hit": false,
      "t": 71372.39583333333,
      "d": 119.79166666667152,
      "v": 69
    },
    {
      "midi": 57,
      "hit": false,
      "t": 71559.89583333333,
      "d": 39.0625,
      "v": 70
    },
    {
      "midi": 72,
      "hit": false,
      "t": 71575.52083333333,
      "d": 263.0208333333285,
      "v": 89
    },
    {
      "midi": 67,
      "hit": false,
      "t": 71794.27083333333,
      "d": 166.66666666665697,
      "v": 74
    },
    {
      "midi": 71,
      "hit": false,
      "t": 71807.29166666666,
      "d": 260.41666666665697,
      "v": 81
    },
    {
      "midi": 65,
      "hit": false,
      "t": 71807.29166666666,
      "d": 382.81249999998545,
      "v": 63
    },
    {
      "midi": 31,
      "hit": false,
      "t": 71812.49999999999,
      "d": 210.9375,
      "v": 69
    },
    {
      "midi": 72,
      "hit": false,
      "t": 72023.43749999999,
      "d": 132.81249999998545,
      "v": 92
    },
    {
      "midi": 43,
      "hit": false,
      "t": 72031.24999999999,
      "d": 80.72916666665697,
      "v": 67
    },
    {
      "midi": 74,
      "hit": false,
      "t": 72239.58333333331,
      "d": 33.85416666667152,
      "v": 89
    },
    {
      "midi": 47,
      "hit": false,
      "t": 72239.58333333331,
      "d": 130.20833333334303,
      "v": 51
    },
    {
      "midi": 50,
      "hit": false,
      "t": 72484.37499999999,
      "d": 169.27083333334303,
      "v": 47
    },
    {
      "midi": 43,
      "hit": false,
      "t": 72494.79166666666,
      "d": 541.6666666666715,
      "v": 49
    },
    {
      "midi": 67,
      "hit": false,
      "t": 72520.83333333333,
      "d": 606.7708333333285,
      "v": 80
    },
    {
      "midi": 55,
      "hit": false,
      "t": 72531.25,
      "d": 468.75,
      "v": 63
    },
    {
      "midi": 65,
      "hit": false,
      "t": 72536.45833333333,
      "d": 328.125,
      "v": 73
    },
    {
      "midi": 48,
      "hit": false,
      "t": 72786.45833333333,
      "d": 171.875,
      "v": 60
    },
    {
      "midi": 52,
      "hit": false,
      "t": 73036.45833333333,
      "d": 46.875,
      "v": 57
    },
    {
      "midi": 64,
      "hit": false,
      "t": 73044.27083333333,
      "d": 44.27083333332848,
      "v": 76
    },
    {
      "midi": 60,
      "hit": false,
      "t": 73049.47916666666,
      "d": 49.47916666667152,
      "v": 66
    },
    {
      "midi": 74,
      "hit": false,
      "t": 73338.54166666666,
      "d": 497.3958333333285,
      "v": 95
    },
    {
      "midi": 68,
      "hit": false,
      "t": 73343.74999999999,
      "d": 351.56249999998545,
      "v": 73
    },
    {
      "midi": 65,
      "hit": false,
      "t": 73348.95833333331,
      "d": 453.125,
      "v": 79
    },
    {
      "midi": 29,
      "hit": false,
      "t": 73354.16666666664,
      "d": 182.29166666665697,
      "v": 76
    },
    {
      "midi": 41,
      "hit": false,
      "t": 73549.47916666663,
      "d": 127.60416666667152,
      "v": 79
    },
    {
      "midi": 44,
      "hit": false,
      "t": 73744.79166666664,
      "d": 104.16666666667152,
      "v": 73
    },
    {
      "midi": 72,
      "hit": false,
      "t": 73747.39583333331,
      "d": 289.06249999998545,
      "v": 98
    },
    {
      "midi": 42,
      "hit": false,
      "t": 73979.16666666664,
      "d": 223.95833333332848,
      "v": 84
    },
    {
      "midi": 76,
      "hit": false,
      "t": 73984.37499999997,
      "d": 523.4375000000146,
      "v": 105
    },
    {
      "midi": 64,
      "hit": false,
      "t": 73997.3958333333,
      "d": 325.52083333334303,
      "v": 78
    },
    {
      "midi": 69,
      "hit": false,
      "t": 73997.3958333333,
      "d": 328.12500000001455,
      "v": 77
    },
    {
      "midi": 54,
      "hit": false,
      "t": 74192.7083333333,
      "d": 111.97916666667152,
      "v": 81
    },
    {
      "midi": 57,
      "hit": false,
      "t": 74403.64583333331,
      "d": 39.0625,
      "v": 89
    },
    {
      "midi": 72,
      "hit": false,
      "t": 74411.45833333331,
      "d": 140.625,
      "v": 104
    },
    {
      "midi": 76,
      "hit": false,
      "t": 74661.45833333331,
      "d": 513.0208333333285,
      "v": 109
    },
    {
      "midi": 70,
      "hit": false,
      "t": 74666.66666666664,
      "d": 369.79166666665697,
      "v": 97
    },
    {
      "midi": 31,
      "hit": false,
      "t": 74671.87499999997,
      "d": 239.58333333332848,
      "v": 101
    },
    {
      "midi": 67,
      "hit": false,
      "t": 74674.47916666664,
      "d": 411.4583333333285,
      "v": 89
    },
    {
      "midi": 43,
      "hit": false,
      "t": 74919.2708333333,
      "d": 169.27083333334303,
      "v": 85
    },
    {
      "midi": 74,
      "hit": false,
      "t": 75111.97916666664,
      "d": 312.5,
      "v": 106
    },
    {
      "midi": 46,
      "hit": false,
      "t": 75119.79166666664,
      "d": 182.29166666667152,
      "v": 98
    },
    {
      "midi": 77,
      "hit": false,
      "t": 75356.77083333331,
      "d": 481.77083333331393,
      "v": 108
    },
    {
      "midi": 65,
      "hit": false,
      "t": 75361.97916666664,
      "d": 317.7083333333285,
      "v": 94
    },
    {
      "midi": 71,
      "hit": false,
      "t": 75367.18749999997,
      "d": 325.5208333333285,
      "v": 81
    },
    {
      "midi": 44,
      "hit": false,
      "t": 75369.79166666664,
      "d": 247.39583333332848,
      "v": 91
    },
    {
      "midi": 56,
      "hit": false,
      "t": 75598.9583333333,
      "d": 98.95833333332848,
      "v": 92
    },
    {
      "midi": 75,
      "hit": false,
      "t": 75786.4583333333,
      "d": 296.875,
      "v": 99
    },
    {
      "midi": 59,
      "hit": false,
      "t": 75791.66666666663,
      "d": 31.25,
      "v": 76
    },
    {
      "midi": 33,
      "hit": false,
      "t": 76041.66666666663,
      "d": 221.35416666667152,
      "v": 100
    },
    {
      "midi": 72,
      "hit": false,
      "t": 76049.47916666663,
      "d": 294.27083333334303,
      "v": 103
    },
    {
      "midi": 69,
      "hit": false,
      "t": 76052.0833333333,
      "d": 471.3541666666715,
      "v": 100
    },
    {
      "midi": 77,
      "hit": false,
      "t": 76052.0833333333,
      "d": 476.5625,
      "v": 108
    },
    {
      "midi": 45,
      "hit": false,
      "t": 76260.41666666663,
      "d": 109.37500000001455,
      "v": 99
    },
    {
      "midi": 48,
      "hit": false,
      "t": 76458.33333333331,
      "d": 104.16666666665697,
      "v": 87
    },
    {
      "midi": 76,
      "hit": false,
      "t": 76463.54166666664,
      "d": 291.6666666666424,
      "v": 110
    },
    {
      "midi": 46,
      "hit": false,
      "t": 76677.0833333333,
      "d": 221.3541666666424,
      "v": 113
    },
    {
      "midi": 79,
      "hit": false,
      "t": 76682.29166666663,
      "d": 421.8749999999709,
      "v": 109
    },
    {
      "midi": 73,
      "hit": false,
      "t": 76687.49999999996,
      "d": 377.6041666666424,
      "v": 88
    },
    {
      "midi": 67,
      "hit": false,
      "t": 76690.10416666663,
      "d": 361.9791666666424,
      "v": 92
    },
    {
      "midi": 58,
      "hit": false,
      "t": 76893.22916666661,
      "d": 119.79166666665697,
      "v": 101
    },
    {
      "midi": 61,
      "hit": false,
      "t": 77088.5416666666,
      "d": 36.458333333343035,
      "v": 90
    },
    {
      "midi": 76,
      "hit": false,
      "t": 77106.77083333327,
      "d": 273.43749999998545,
      "v": 108
    },
    {
      "midi": 47,
      "hit": false,
      "t": 77354.1666666666,
      "d": 88.54166666665697,
      "v": 94
    },
    {
      "midi": 79,
      "hit": false,
      "t": 77354.1666666666,
      "d": 302.08333333331393,
      "v": 110
    },
    {
      "midi": 67,
      "hit": false,
      "t": 77367.18749999993,
      "d": 182.29166666665697,
      "v": 100
    },
    {
      "midi": 74,
      "hit": false,
      "t": 77367.18749999993,
      "d": 236.97916666665697,
      "v": 92
    },
    {
      "midi": 62,
      "hit": false,
      "t": 77585.93749999991,
      "d": 111.97916666667152,
      "v": 85
    },
    {
      "midi": 55,
      "hit": false,
      "t": 77585.93749999991,
      "d": 145.83333333334303,
      "v": 87
    },
    {
      "midi": 77,
      "hit": false,
      "t": 77588.54166666658,
      "d": 83.33333333332848,
      "v": 106
    },
    {
      "midi": 50,
      "hit": false,
      "t": 77781.24999999991,
      "d": 104.16666666665697,
      "v": 101
    },
    {
      "midi": 83,
      "hit": false,
      "t": 77781.24999999991,
      "d": 263.0208333333285,
      "v": 107
    },
    {
      "midi": 77,
      "hit": false,
      "t": 77786.45833333324,
      "d": 221.35416666667152,
      "v": 91
    },
    {
      "midi": 71,
      "hit": false,
      "t": 77791.66666666657,
      "d": 156.25,
      "v": 90
    },
    {
      "midi": 81,
      "hit": false,
      "t": 77981.77083333324,
      "d": 83.33333333332848,
      "v": 107
    },
    {
      "midi": 65,
      "hit": false,
      "t": 77984.37499999991,
      "d": 106.77083333332848,
      "v": 94
    },
    {
      "midi": 59,
      "hit": false,
      "t": 77989.58333333324,
      "d": 140.625,
      "v": 73
    },
    {
      "midi": 81,
      "hit": false,
      "t": 78166.66666666657,
      "d": 203.12500000001455,
      "v": 93
    },
    {
      "midi": 86,
      "hit": false,
      "t": 78166.66666666657,
      "d": 281.25000000001455,
      "v": 117
    },
    {
      "midi": 53,
      "hit": false,
      "t": 78174.47916666657,
      "d": 96.35416666667152,
      "v": 100
    },
    {
      "midi": 74,
      "hit": false,
      "t": 78177.08333333324,
      "d": 153.64583333334303,
      "v": 108
    },
    {
      "midi": 69,
      "hit": false,
      "t": 78377.60416666658,
      "d": 39.0625,
      "v": 92
    },
    {
      "midi": 84,
      "hit": false,
      "t": 78377.60416666658,
      "d": 91.14583333332848,
      "v": 113
    },
    {
      "midi": 62,
      "hit": false,
      "t": 78380.20833333326,
      "d": 36.45833333332848,
      "v": 87
    },
    {
      "midi": 89,
      "hit": false,
      "t": 78565.10416666658,
      "d": 502.6041666666715,
      "v": 119
    },
    {
      "midi": 83,
      "hit": false,
      "t": 78567.70833333326,
      "d": 252.60416666667152,
      "v": 103
    },
    {
      "midi": 77,
      "hit": false,
      "t": 78572.91666666658,
      "d": 601.5625,
      "v": 111
    },
    {
      "midi": 67,
      "hit": false,
      "t": 78575.52083333326,
      "d": 973.9583333333285,
      "v": 105
    },
    {
      "midi": 55,
      "hit": false,
      "t": 78583.33333333326,
      "d": 843.75,
      "v": 100
    },
    {
      "midi": 84,
      "hit": false,
      "t": 78773.43749999993,
      "d": 291.66666666665697,
      "v": 110
    },
    {
      "midi": 57,
      "hit": false,
      "t": 78781.24999999993,
      "d": 200.52083333332848,
      "v": 94
    },
    {
      "midi": 86,
      "hit": false,
      "t": 78986.97916666658,
      "d": 140.625,
      "v": 106
    },
    {
      "midi": 59,
      "hit": false,
      "t": 78989.58333333326,
      "d": 148.4375,
      "v": 82
    },
    {
      "midi": 79,
      "hit": false,
      "t": 79195.31249999991,
      "d": 114.58333333334303,
      "v": 110
    },
    {
      "midi": 62,
      "hit": false,
      "t": 79197.91666666658,
      "d": 151.04166666667152,
      "v": 92
    },
    {
      "midi": 60,
      "hit": false,
      "t": 79403.64583333326,
      "d": 236.97916666665697,
      "v": 99
    },
    {
      "midi": 88,
      "hit": false,
      "t": 79585.93749999991,
      "d": 143.22916666667152,
      "v": 111
    },
    {
      "midi": 76,
      "hit": false,
      "t": 79588.54166666658,
      "d": 101.5625,
      "v": 110
    },
    {
      "midi": 84,
      "hit": false,
      "t": 79588.54166666658,
      "d": 145.83333333332848,
      "v": 106
    },
    {
      "midi": 64,
      "hit": false,
      "t": 79604.16666666658,
      "d": 96.35416666667152,
      "v": 97
    },
    {
      "midi": 89,
      "hit": false,
      "t": 79848.95833333324,
      "d": 575.520833333343,
      "v": 119
    },
    {
      "midi": 77,
      "hit": false,
      "t": 79854.16666666657,
      "d": 807.2916666667006,
      "v": 114
    },
    {
      "midi": 83,
      "hit": false,
      "t": 79859.3749999999,
      "d": 302.08333333334303,
      "v": 95
    },
    {
      "midi": 67,
      "hit": false,
      "t": 79861.97916666657,
      "d": 908.8541666667152,
      "v": 103
    },
    {
      "midi": 55,
      "hit": false,
      "t": 79867.1874999999,
      "d": 919.2708333333867,
      "v": 97
    },
    {
      "midi": 84,
      "hit": false,
      "t": 80117.1874999999,
      "d": 268.22916666668607,
      "v": 100
    },
    {
      "midi": 57,
      "hit": false,
      "t": 80127.60416666657,
      "d": 187.50000000001455,
      "v": 83
    },
    {
      "midi": 86,
      "hit": false,
      "t": 80333.33333333326,
      "d": 140.625,
      "v": 100
    },
    {
      "midi": 59,
      "hit": false,
      "t": 80348.95833333326,
      "d": 143.22916666667152,
      "v": 69
    },
    {
      "midi": 62,
      "hit": false,
      "t": 80546.87499999993,
      "d": 151.04166666668607,
      "v": 79
    },
    {
      "midi": 79,
      "hit": false,
      "t": 80549.4791666666,
      "d": 122.39583333334303,
      "v": 100
    },
    {
      "midi": 60,
      "hit": false,
      "t": 80768.22916666661,
      "d": 132.8125,
      "v": 91
    },
    {
      "midi": 88,
      "hit": false,
      "t": 80966.14583333328,
      "d": 216.14583333332848,
      "v": 103
    },
    {
      "midi": 76,
      "hit": false,
      "t": 80968.74999999996,
      "d": 192.70833333332848,
      "v": 100
    },
    {
      "midi": 84,
      "hit": false,
      "t": 80968.74999999996,
      "d": 374.9999999999709,
      "v": 99
    },
    {
      "midi": 64,
      "hit": false,
      "t": 80973.95833333328,
      "d": 31.25,
      "v": 95
    },
    {
      "midi": 89,
      "hit": false,
      "t": 81281.24999999994,
      "d": 789.0624999999854,
      "v": 113
    },
    {
      "midi": 43,
      "hit": false,
      "t": 81286.45833333327,
      "d": 307.29166666665697,
      "v": 96
    },
    {
      "midi": 77,
      "hit": false,
      "t": 81286.45833333327,
      "d": 976.5624999999854,
      "v": 106
    },
    {
      "midi": 83,
      "hit": false,
      "t": 81291.6666666666,
      "d": 330.72916666665697,
      "v": 92
    },
    {
      "midi": 84,
      "hit": false,
      "t": 81593.74999999993,
      "d": 294.2708333333285,
      "v": 95
    },
    {
      "midi": 55,
      "hit": false,
      "t": 81598.95833333326,
      "d": 177.08333333332848,
      "v": 87
    },
    {
      "midi": 86,
      "hit": false,
      "t": 81841.14583333326,
      "d": 328.125,
      "v": 95
    },
    {
      "midi": 59,
      "hit": false,
      "t": 81843.74999999993,
      "d": 231.77083333332848,
      "v": 64
    },
    {
      "midi": 81,
      "hit": false,
      "t": 82080.72916666658,
      "d": 307.2916666666715,
      "v": 95
    },
    {
      "midi": 65,
      "hit": false,
      "t": 82093.74999999991,
      "d": 174.47916666667152,
      "v": 80
    },
    {
      "midi": 55,
      "hit": false,
      "t": 82104.16666666658,
      "d": 1598.9583333333285,
      "v": 75
    },
    {
      "midi": 83,
      "hit": false,
      "t": 82309.89583333326,
      "d": 231.77083333334303,
      "v": 88
    },
    {
      "midi": 62,
      "hit": false,
      "t": 82317.70833333326,
      "d": 67.70833333332848,
      "v": 76
    },
    {
      "midi": 88,
      "hit": false,
      "t": 82507.81249999993,
      "d": 473.95833333334303,
      "v": 109
    },
    {
      "midi": 76,
      "hit": false,
      "t": 82510.4166666666,
      "d": 531.25,
      "v": 105
    },
    {
      "midi": 84,
      "hit": false,
      "t": 82515.62499999993,
      "d": 276.04166666668607,
      "v": 92
    },
    {
      "midi": 67,
      "hit": false,
      "t": 82523.43749999993,
      "d": 315.10416666668607,
      "v": 76
    },
    {
      "midi": 79,
      "hit": false,
      "t": 82731.77083333327,
      "d": 289.0625,
      "v": 89
    },
    {
      "midi": 64,
      "hit": false,
      "t": 82765.62499999994,
      "d": 166.66666666667152,
      "v": 69
    },
    {
      "midi": 81,
      "hit": false,
      "t": 82953.12499999994,
      "d": 263.02083333331393,
      "v": 89
    },
    {
      "midi": 60,
      "hit": false,
      "t": 82960.93749999994,
      "d": 124.99999999998545,
      "v": 70
    },
    {
      "midi": 86,
      "hit": false,
      "t": 83161.45833333326,
      "d": 458.3333333333285,
      "v": 98
    },
    {
      "midi": 74,
      "hit": false,
      "t": 83169.27083333326,
      "d": 468.75,
      "v": 84
    },
    {
      "midi": 83,
      "hit": false,
      "t": 83174.47916666658,
      "d": 372.3958333333285,
      "v": 69
    },
    {
      "midi": 65,
      "hit": false,
      "t": 83177.08333333326,
      "d": 278.6458333333285,
      "v": 69
    },
    {
      "midi": 62,
      "hit": false,
      "t": 83416.66666666658,
      "d": 187.5,
      "v": 67
    },
    {
      "midi": 77,
      "hit": false,
      "t": 83416.66666666658,
      "d": 375,
      "v": 78
    },
    {
      "midi": 79,
      "hit": false,
      "t": 83669.27083333326,
      "d": 309.89583333331393,
      "v": 63
    },
    {
      "midi": 59,
      "hit": false,
      "t": 83682.29166666658,
      "d": 184.89583333332848,
      "v": 43
    },
    {
      "midi": 72,
      "hit": false,
      "t": 83919.27083333324,
      "d": 809.8958333333139,
      "v": 69
    },
    {
      "midi": 84,
      "hit": false,
      "t": 83919.27083333324,
      "d": 841.1458333333139,
      "v": 87
    },
    {
      "midi": 81,
      "hit": false,
      "t": 83932.29166666657,
      "d": 690.104166666657,
      "v": 67
    },
    {
      "midi": 64,
      "hit": false,
      "t": 83955.72916666657,
      "d": 437.5,
      "v": 38
    },
    {
      "midi": 55,
      "hit": false,
      "t": 83955.72916666657,
      "d": 981.7708333333139,
      "v": 39
    },
    {
      "midi": 60,
      "hit": false,
      "t": 84182.29166666657,
      "d": 239.58333333332848,
      "v": 55
    },
    {
      "midi": 76,
      "hit": false,
      "t": 84213.54166666657,
      "d": 567.7083333333139,
      "v": 80
    },
    {
      "midi": 57,
      "hit": false,
      "t": 84406.2499999999,
      "d": 223.95833333332848,
      "v": 61
    },
    {
      "midi": 64,
      "hit": false,
      "t": 84643.22916666656,
      "d": 247.39583333332848,
      "v": 73
    },
    {
      "midi": 60,
      "hit": false,
      "t": 84856.77083333321,
      "d": 187.5,
      "v": 70
    },
    {
      "midi": 57,
      "hit": false,
      "t": 85078.12499999988,
      "d": 182.29166666667152,
      "v": 60
    },
    {
      "midi": 84,
      "hit": false,
      "t": 85291.66666666656,
      "d": 802.0833333333576,
      "v": 97
    },
    {
      "midi": 66,
      "hit": false,
      "t": 85294.27083333323,
      "d": 385.4166666666715,
      "v": 56
    },
    {
      "midi": 72,
      "hit": false,
      "t": 85302.08333333323,
      "d": 744.7916666666861,
      "v": 73
    },
    {
      "midi": 81,
      "hit": false,
      "t": 85304.6874999999,
      "d": 835.9375000000146,
      "v": 72
    },
    {
      "midi": 55,
      "hit": false,
      "t": 85317.70833333323,
      "d": 1164.062500000029,
      "v": 68
    },
    {
      "midi": 60,
      "hit": false,
      "t": 85552.08333333323,
      "d": 223.95833333334303,
      "v": 57
    },
    {
      "midi": 57,
      "hit": false,
      "t": 85786.45833333324,
      "d": 210.9375,
      "v": 48
    },
    {
      "midi": 66,
      "hit": false,
      "t": 85989.58333333324,
      "d": 208.33333333334303,
      "v": 46
    },
    {
      "midi": 60,
      "hit": false,
      "t": 86247.39583333326,
      "d": 226.5625,
      "v": 63
    },
    {
      "midi": 57,
      "hit": false,
      "t": 86507.81249999993,
      "d": 270.8333333333285,
      "v": 57
    },
    {
      "midi": 88,
      "hit": false,
      "t": 86861.97916666658,
      "d": 934.895833333343,
      "v": 74
    },
    {
      "midi": 76,
      "hit": false,
      "t": 86872.39583333326,
      "d": 872.395833333343,
      "v": 52
    },
    {
      "midi": 67,
      "hit": false,
      "t": 86877.60416666658,
      "d": 309.8958333333285,
      "v": 37
    },
    {
      "midi": 84,
      "hit": false,
      "t": 86877.60416666658,
      "d": 903.645833333343,
      "v": 50
    },
    {
      "midi": 55,
      "hit": false,
      "t": 86901.04166666658,
      "d": 401.0416666666715,
      "v": 31
    },
    {
      "midi": 79,
      "hit": false,
      "t": 87205.72916666658,
      "d": 539.0625000000146,
      "v": 66
    },
    {
      "midi": 64,
      "hit": false,
      "t": 87236.97916666658,
      "d": 169.27083333334303,
      "v": 41
    },
    {
      "midi": 60,
      "hit": false,
      "t": 87468.74999999993,
      "d": 49.47916666667152,
      "v": 59
    },
    {
      "midi": 55,
      "hit": false,
      "t": 87674.4791666666,
      "d": 119.79166666665697,
      "v": 67
    },
    {
      "midi": 52,
      "hit": false,
      "t": 87890.62499999993,
      "d": 161.45833333332848,
      "v": 63
    },
    {
      "midi": 48,
      "hit": false,
      "t": 88078.12499999993,
      "d": 54.6875,
      "v": 69
    },
    {
      "midi": 43,
      "hit": false,
      "t": 88218.74999999993,
      "d": 72.91666666667152,
      "v": 53
    },
    {
      "midi": 91,
      "hit": false,
      "t": 88229.1666666666,
      "d": 161.45833333334303,
      "v": 65
    },
    {
      "midi": 52,
      "hit": false,
      "t": 88388.02083333327,
      "d": 65.10416666667152,
      "v": 33
    },
    {
      "midi": 88,
      "hit": false,
      "t": 88390.62499999994,
      "d": 161.45833333334303,
      "v": 74
    },
    {
      "midi": 60,
      "hit": false,
      "t": 88453.12499999994,
      "d": 49.47916666667152,
      "v": 68
    },
    {
      "midi": 84,
      "hit": false,
      "t": 88557.29166666661,
      "d": 171.875,
      "v": 72
    },
    {
      "midi": 81,
      "hit": false,
      "t": 88687.49999999994,
      "d": 52.083333333343035,
      "v": 83
    },
    {
      "midi": 79,
      "hit": false,
      "t": 88830.72916666661,
      "d": 80.72916666667152,
      "v": 69
    },
    {
      "midi": 76,
      "hit": false,
      "t": 88963.54166666661,
      "d": 106.77083333332848,
      "v": 62
    },
    {
      "midi": 72,
      "hit": false,
      "t": 89072.91666666661,
      "d": 65.10416666667152,
      "v": 66
    },
    {
      "midi": 69,
      "hit": false,
      "t": 89161.45833333328,
      "d": 49.47916666667152,
      "v": 83
    },
    {
      "midi": 67,
      "hit": false,
      "t": 89281.24999999996,
      "d": 104.16666666667152,
      "v": 89
    },
    {
      "midi": 64,
      "hit": false,
      "t": 89374.99999999996,
      "d": 80.72916666667152,
      "v": 78
    },
    {
      "midi": 60,
      "hit": false,
      "t": 89473.9583333333,
      "d": 132.8125,
      "v": 73
    },
    {
      "midi": 57,
      "hit": false,
      "t": 89578.12499999997,
      "d": 93.75,
      "v": 81
    },
    {
      "midi": 55,
      "hit": false,
      "t": 89645.8333333333,
      "d": 122.39583333334303,
      "v": 83
    },
    {
      "midi": 52,
      "hit": false,
      "t": 89749.99999999997,
      "d": 119.79166666667152,
      "v": 84
    },
    {
      "midi": 48,
      "hit": false,
      "t": 89835.93749999997,
      "d": 67.70833333334303,
      "v": 90
    },
    {
      "midi": 43,
      "hit": false,
      "t": 89950.52083333331,
      "d": 135.41666666665697,
      "v": 93
    },
    {
      "midi": 50,
      "hit": false,
      "t": 90057.29166666664,
      "d": 145.83333333332848,
      "v": 96
    },
    {
      "midi": 53,
      "hit": false,
      "t": 90166.66666666664,
      "d": 88.54166666665697,
      "v": 70
    },
    {
      "midi": 59,
      "hit": false,
      "t": 90234.37499999997,
      "d": 44.27083333332848,
      "v": 54
    },
    {
      "midi": 57,
      "hit": false,
      "t": 90341.1458333333,
      "d": 122.39583333334303,
      "v": 83
    },
    {
      "midi": 62,
      "hit": false,
      "t": 90429.68749999997,
      "d": 119.79166666667152,
      "v": 79
    },
    {
      "midi": 65,
      "hit": false,
      "t": 90520.83333333331,
      "d": 145.83333333332848,
      "v": 79
    },
    {
      "midi": 69,
      "hit": false,
      "t": 90598.95833333331,
      "d": 39.0625,
      "v": 83
    },
    {
      "midi": 67,
      "hit": false,
      "t": 90716.14583333331,
      "d": 330.7291666666424,
      "v": 87
    },
    {
      "midi": 71,
      "hit": false,
      "t": 90791.66666666664,
      "d": 177.08333333332848,
      "v": 75
    },
    {
      "midi": 74,
      "hit": false,
      "t": 90882.81249999997,
      "d": 91.14583333332848,
      "v": 71
    },
    {
      "midi": 79,
      "hit": false,
      "t": 90934.8958333333,
      "d": 33.85416666667152,
      "v": 91
    },
    {
      "midi": 77,
      "hit": false,
      "t": 91075.52083333328,
      "d": 52.08333333332848,
      "v": 51
    },
    {
      "midi": 83,
      "hit": false,
      "t": 91132.81249999994,
      "d": 46.875,
      "v": 55
    },
    {
      "midi": 89,
      "hit": false,
      "t": 91210.93749999994,
      "d": 33.85416666667152,
      "v": 77
    },
    {
      "midi": 43,
      "hit": false,
      "t": 91796.87499999994,
      "d": 476.56249999998545,
      "v": 42
    },
    {
      "midi": 50,
      "hit": false,
      "t": 91854.16666666661,
      "d": 221.35416666665697,
      "v": 44
    },
    {
      "midi": 59,
      "hit": false,
      "t": 91898.43749999994,
      "d": 80.72916666665697,
      "v": 37
    },
    {
      "midi": 55,
      "hit": false,
      "t": 91927.08333333327,
      "d": 138.02083333332848,
      "v": 30
    },
    {
      "midi": 65,
      "hit": false,
      "t": 91973.95833333327,
      "d": 268.22916666665697,
      "v": 61
    },
    {
      "midi": 71,
      "hit": false,
      "t": 92062.49999999993,
      "d": 166.66666666667152,
      "v": 62
    },
    {
      "midi": 60,
      "hit": false,
      "t": 92820.31249999993,
      "d": 85.9375,
      "v": 90
    },
    {
      "midi": 52,
      "hit": false,
      "t": 92838.5416666666,
      "d": 41.66666666667152,
      "v": 68
    },
    {
      "midi": 55,
      "hit": false,
      "t": 92838.5416666666,
      "d": 46.875,
      "v": 66
    },
    {
      "midi": 36,
      "hit": false,
      "t": 92838.5416666666,
      "d": 197.91666666665697,
      "v": 56
    },
    {
      "midi": 52,
      "hit": false,
      "t": 93052.08333333326,
      "d": 41.66666666667152,
      "v": 76
    },
    {
      "midi": 64,
      "hit": false,
      "t": 93223.95833333326,
      "d": 70.3125,
      "v": 79
    },
    {
      "midi": 55,
      "hit": false,
      "t": 93229.16666666658,
      "d": 41.66666666667152,
      "v": 74
    },
    {
      "midi": 60,
      "hit": false,
      "t": 93236.97916666658,
      "d": 54.6875,
      "v": 67
    },
    {
      "midi": 24,
      "hit": false,
      "t": 93427.08333333326,
      "d": 119.79166666665697,
      "v": 74
    },
    {
      "midi": 55,
      "hit": false,
      "t": 93458.33333333326,
      "d": 52.08333333332848,
      "v": 56
    },
    {
      "midi": 57,
      "hit": false,
      "t": 93624.99999999991,
      "d": 36.458333333343035,
      "v": 89
    },
    {
      "midi": 60,
      "hit": false,
      "t": 93635.41666666658,
      "d": 44.270833333343035,
      "v": 68
    },
    {
      "midi": 64,
      "hit": false,
      "t": 93645.83333333326,
      "d": 57.29166666667152,
      "v": 65
    },
    {
      "midi": 57,
      "hit": false,
      "t": 93817.70833333326,
      "d": 36.45833333332848,
      "v": 80
    },
    {
      "midi": 72,
      "hit": false,
      "t": 94007.81249999991,
      "d": 59.895833333343035,
      "v": 98
    },
    {
      "midi": 67,
      "hit": false,
      "t": 94010.41666666658,
      "d": 44.27083333332848,
      "v": 88
    },
    {
      "midi": 55,
      "hit": false,
      "t": 94013.02083333326,
      "d": 143.22916666667152,
      "v": 68
    },
    {
      "midi": 64,
      "hit": false,
      "t": 94018.22916666658,
      "d": 39.0625,
      "v": 84
    },
    {
      "midi": 52,
      "hit": false,
      "t": 94023.43749999991,
      "d": 177.08333333334303,
      "v": 57
    },
    {
      "midi": 48,
      "hit": false,
      "t": 94023.43749999991,
      "d": 195.31250000001455,
      "v": 59
    },
    {
      "midi": 64,
      "hit": false,
      "t": 94218.74999999993,
      "d": 41.66666666667152,
      "v": 78
    },
    {
      "midi": 67,
      "hit": false,
      "t": 94411.45833333327,
      "d": 39.0625,
      "v": 82
    },
    {
      "midi": 76,
      "hit": false,
      "t": 94411.45833333327,
      "d": 98.95833333332848,
      "v": 76
    },
    {
      "midi": 72,
      "hit": false,
      "t": 94421.87499999994,
      "d": 52.08333333332848,
      "v": 67
    },
    {
      "midi": 36,
      "hit": false,
      "t": 94609.37499999993,
      "d": 75.52083333332848,
      "v": 59
    },
    {
      "midi": 67,
      "hit": false,
      "t": 94632.81249999993,
      "d": 44.27083333332848,
      "v": 71
    },
    {
      "midi": 76,
      "hit": false,
      "t": 94820.31249999993,
      "d": 52.083333333343035,
      "v": 57
    },
    {
      "midi": 72,
      "hit": false,
      "t": 94828.12499999993,
      "d": 57.29166666667152,
      "v": 55
    },
    {
      "midi": 69,
      "hit": false,
      "t": 94830.7291666666,
      "d": 54.6875,
      "v": 50
    },
    {
      "midi": 69,
      "hit": false,
      "t": 94984.37499999993,
      "d": 46.875,
      "v": 50
    },
    {
      "midi": 84,
      "hit": false,
      "t": 95184.89583333326,
      "d": 39.06249999998545,
      "v": 84
    },
    {
      "midi": 79,
      "hit": false,
      "t": 95195.31249999993,
      "d": 46.87499999998545,
      "v": 61
    },
    {
      "midi": 76,
      "hit": false,
      "t": 95200.52083333326,
      "d": 46.87499999998545,
      "v": 61
    },
    {
      "midi": 67,
      "hit": false,
      "t": 95205.72916666658,
      "d": 114.58333333332848,
      "v": 56
    },
    {
      "midi": 60,
      "hit": false,
      "t": 95210.93749999991,
      "d": 182.29166666665697,
      "v": 46
    },
    {
      "midi": 64,
      "hit": false,
      "t": 95223.95833333324,
      "d": 132.8125,
      "v": 43
    },
    {
      "midi": 76,
      "hit": false,
      "t": 95416.66666666657,
      "d": 54.6875,
      "v": 55
    },
    {
      "midi": 88,
      "hit": false,
      "t": 95575.52083333324,
      "d": 98.95833333334303,
      "v": 72
    },
    {
      "midi": 79,
      "hit": false,
      "t": 95593.74999999991,
      "d": 54.6875,
      "v": 55
    },
    {
      "midi": 84,
      "hit": false,
      "t": 95593.74999999991,
      "d": 54.6875,
      "v": 60
    },
    {
      "midi": 79,
      "hit": false,
      "t": 95781.24999999991,
      "d": 44.27083333332848,
      "v": 50
    },
    {
      "midi": 48,
      "hit": false,
      "t": 95786.45833333324,
      "d": 70.3125,
      "v": 50
    },
    {
      "midi": 88,
      "hit": false,
      "t": 95968.74999999991,
      "d": 62.49999999998545,
      "v": 29
    },
    {
      "midi": 84,
      "hit": false,
      "t": 95976.56249999991,
      "d": 44.27083333332848,
      "v": 64
    },
    {
      "midi": 81,
      "hit": false,
      "t": 95981.77083333324,
      "d": 44.27083333332848,
      "v": 64
    },
    {
      "midi": 81,
      "hit": false,
      "t": 96148.4374999999,
      "d": 41.66666666667152,
      "v": 66
    },
    {
      "midi": 72,
      "hit": false,
      "t": 96315.10416666657,
      "d": 91.14583333334303,
      "v": 31
    },
    {
      "midi": 76,
      "hit": false,
      "t": 96380.20833333324,
      "d": 184.89583333332848,
      "v": 45
    },
    {
      "midi": 88,
      "hit": false,
      "t": 96434.89583333324,
      "d": 54.6875,
      "v": 24
    },
    {
      "midi": 79,
      "hit": false,
      "t": 96434.89583333324,
      "d": 156.24999999998545,
      "v": 31
    },
    {
      "midi": 84,
      "hit": false,
      "t": 96536.45833333324,
      "d": 46.87499999998545,
      "v": 41
    },
    {
      "midi": 96,
      "hit": false,
      "t": 96570.3124999999,
      "d": 65.10416666667152,
      "v": 31
    },
    {
      "midi": 100,
      "hit": false,
      "t": 96609.3749999999,
      "d": 62.5,
      "v": 33
    },
    {
      "midi": 48,
      "hit": false,
      "t": 97257.8124999999,
      "d": 46.875,
      "v": 57
    },
    {
      "midi": 55,
      "hit": false,
      "t": 97299.47916666657,
      "d": 44.27083333332848,
      "v": 75
    },
    {
      "midi": 72,
      "hit": false,
      "t": 97343.7499999999,
      "d": 78.125,
      "v": 113
    },
    {
      "midi": 84,
      "hit": false,
      "t": 97343.7499999999,
      "d": 104.16666666667152,
      "v": 115
    },
    {
      "midi": 79,
      "hit": false,
      "t": 97343.7499999999,
      "d": 130.20833333334303,
      "v": 111
    },
    {
      "midi": 64,
      "hit": false,
      "t": 97354.16666666657,
      "d": 31.25,
      "v": 111
    },
    {
      "midi": 52,
      "hit": false,
      "t": 98236.97916666658,
      "d": 2195.3125,
      "v": 105
    },
    {
      "midi": 60,
      "hit": false,
      "t": 98236.97916666658,
      "d": 2210.9375,
      "v": 104
    },
    {
      "midi": 48,
      "hit": false,
      "t": 98239.58333333326,
      "d": 2156.25,
      "v": 102
    },
    {
      "midi": 55,
      "hit": false,
      "t": 98239.58333333326,
      "d": 2182.291666666657,
      "v": 103
    },
    {
      "midi": 43,
      "hit": false,
      "t": 98249.99999999993,
      "d": 2166.666666666657,
      "v": 92
    },
    {
      "midi": 36,
      "hit": false,
      "t": 98255.20833333326,
      "d": 2208.3333333333285,
      "v": 100
    }
  ]
}