{
  "jsonPath": "Classical/Classical Piano/Van Cliburn/intermezzo-in-b-flat-minor-op-117no-2.json",
  "path": "Classical\\Classical Piano\\Van Cliburn\\Intermezzo in B-Flat Minor_ Op 117No 2.mid",
  "name": "Intermezzo in B-Flat Minor_ Op 117No 2",
  "difficulty": "Advanced",
  "bpm": 120,
  "notes": [
    {
      "midi": 73,
      "hit": false,
      "t": 2000,
      "d": 395.83333333333303,
      "v": 21
    },
    {
      "midi": 72,
      "hit": false,
      "t": 2333.3333333333335,
      "d": 374.99999999999955,
      "v": 29
    },
    {
      "midi": 39,
      "hit": false,
      "t": 2351.5625,
      "d": 427.08333333333303,
      "v": 15
    },
    {
      "midi": 66,
      "hit": false,
      "t": 2614.583333333333,
      "d": 335.9375,
      "v": 17
    },
    {
      "midi": 60,
      "hit": false,
      "t": 2822.9166666666665,
      "d": 96.35416666666652,
      "v": 38
    },
    {
      "midi": 72,
      "hit": false,
      "t": 2986.9791666666665,
      "d": 226.5625,
      "v": 48
    },
    {
      "midi": 70,
      "hit": false,
      "t": 3210.9375,
      "d": 1234.374999999999,
      "v": 44
    },
    {
      "midi": 37,
      "hit": false,
      "t": 3229.1666666666665,
      "d": 218.75,
      "v": 31
    },
    {
      "midi": 65,
      "hit": false,
      "t": 3440.1041666666665,
      "d": 130.20833333333348,
      "v": 29
    },
    {
      "midi": 58,
      "hit": false,
      "t": 3617.1875,
      "d": 67.70833333333348,
      "v": 27
    },
    {
      "midi": 52,
      "hit": false,
      "t": 3817.7083333333335,
      "d": 106.77083333333348,
      "v": 45
    },
    {
      "midi": 53,
      "hit": false,
      "t": 4015.6250000000005,
      "d": 416.6666666666656,
      "v": 63
    },
    {
      "midi": 58,
      "hit": false,
      "t": 4179.6875,
      "d": 252.60416666666606,
      "v": 27
    },
    {
      "midi": 65,
      "hit": false,
      "t": 4419.270833333333,
      "d": 151.04166666666606,
      "v": 35
    },
    {
      "midi": 70,
      "hit": false,
      "t": 4640.624999999999,
      "d": 341.14583333333303,
      "v": 72
    },
    {
      "midi": 39,
      "hit": false,
      "t": 4906.249999999999,
      "d": 523.4374999999982,
      "v": 21
    },
    {
      "midi": 72,
      "hit": false,
      "t": 4906.249999999999,
      "d": 539.0624999999982,
      "v": 66
    },
    {
      "midi": 66,
      "hit": false,
      "t": 5127.604166666665,
      "d": 265.6249999999991,
      "v": 39
    },
    {
      "midi": 60,
      "hit": false,
      "t": 5325.520833333331,
      "d": 59.89583333333303,
      "v": 55
    },
    {
      "midi": 72,
      "hit": false,
      "t": 5526.041666666664,
      "d": 265.6250000000009,
      "v": 63
    },
    {
      "midi": 77,
      "hit": false,
      "t": 5747.395833333331,
      "d": 1161.458333333333,
      "v": 67
    },
    {
      "midi": 37,
      "hit": false,
      "t": 5749.999999999998,
      "d": 244.79166666666697,
      "v": 23
    },
    {
      "midi": 70,
      "hit": false,
      "t": 5950.520833333332,
      "d": 273.4374999999991,
      "v": 46
    },
    {
      "midi": 65,
      "hit": false,
      "t": 6210.937499999998,
      "d": 119.79166666666606,
      "v": 41
    },
    {
      "midi": 57,
      "hit": false,
      "t": 6421.874999999997,
      "d": 135.41666666666697,
      "v": 39
    },
    {
      "midi": 58,
      "hit": false,
      "t": 6614.583333333331,
      "d": 270.83333333333303,
      "v": 47
    },
    {
      "midi": 65,
      "hit": false,
      "t": 6822.916666666664,
      "d": 101.5625,
      "v": 57
    },
    {
      "midi": 70,
      "hit": false,
      "t": 7010.416666666664,
      "d": 46.875,
      "v": 63
    },
    {
      "midi": 77,
      "hit": false,
      "t": 7197.916666666664,
      "d": 356.77083333333303,
      "v": 91
    },
    {
      "midi": 80,
      "hit": false,
      "t": 7468.749999999997,
      "d": 453.125,
      "v": 84
    },
    {
      "midi": 34,
      "hit": false,
      "t": 7492.187499999997,
      "d": 411.45833333333303,
      "v": 39
    },
    {
      "midi": 73,
      "hit": false,
      "t": 7796.874999999997,
      "d": 210.9375,
      "v": 37
    },
    {
      "midi": 68,
      "hit": false,
      "t": 8031.249999999997,
      "d": 83.33333333333303,
      "v": 41
    },
    {
      "midi": 80,
      "hit": false,
      "t": 8273.437499999996,
      "d": 260.41666666666606,
      "v": 66
    },
    {
      "midi": 78,
      "hit": false,
      "t": 8510.416666666662,
      "d": 1322.9166666666679,
      "v": 52
    },
    {
      "midi": 39,
      "hit": false,
      "t": 8513.020833333328,
      "d": 250,
      "v": 28
    },
    {
      "midi": 73,
      "hit": false,
      "t": 8729.166666666662,
      "d": 98.95833333333212,
      "v": 30
    },
    {
      "midi": 66,
      "hit": false,
      "t": 8903.645833333328,
      "d": 93.75,
      "v": 25
    },
    {
      "midi": 57,
      "hit": false,
      "t": 9106.770833333328,
      "d": 98.95833333333394,
      "v": 31
    },
    {
      "midi": 58,
      "hit": false,
      "t": 9320.312499999996,
      "d": 635.4166666666661,
      "v": 26
    },
    {
      "midi": 61,
      "hit": false,
      "t": 9536.45833333333,
      "d": 361.97916666666606,
      "v": 35
    },
    {
      "midi": 70,
      "hit": false,
      "t": 9778.64583333333,
      "d": 70.3125,
      "v": 26
    },
    {
      "midi": 73,
      "hit": false,
      "t": 10020.833333333328,
      "d": 390.625,
      "v": 37
    },
    {
      "midi": 78,
      "hit": false,
      "t": 10341.145833333328,
      "d": 481.7708333333321,
      "v": 38
    },
    {
      "midi": 32,
      "hit": false,
      "t": 10361.979166666662,
      "d": 575.5208333333303,
      "v": 14
    },
    {
      "midi": 72,
      "hit": false,
      "t": 10656.249999999995,
      "d": 158.85416666666606,
      "v": 15
    },
    {
      "midi": 66,
      "hit": false,
      "t": 10888.020833333327,
      "d": 122.39583333333212,
      "v": 14
    },
    {
      "midi": 78,
      "hit": false,
      "t": 11158.854166666659,
      "d": 270.83333333333394,
      "v": 25
    },
    {
      "midi": 77,
      "hit": false,
      "t": 11473.958333333327,
      "d": 1328.1249999999964,
      "v": 25
    },
    {
      "midi": 37,
      "hit": false,
      "t": 11494.791666666659,
      "d": 307.29166666666606,
      "v": 12
    },
    {
      "midi": 72,
      "hit": false,
      "t": 11773.43749999999,
      "d": 309.89583333333394,
      "v": 21
    },
    {
      "midi": 65,
      "hit": false,
      "t": 12010.416666666659,
      "d": 114.58333333333212,
      "v": 20
    },
    {
      "midi": 55,
      "hit": false,
      "t": 12234.37499999999,
      "d": 78.125,
      "v": 33
    },
    {
      "midi": 56,
      "hit": false,
      "t": 12429.68749999999,
      "d": 664.0624999999982,
      "v": 36
    },
    {
      "midi": 60,
      "hit": false,
      "t": 12674.479166666657,
      "d": 320.3124999999982,
      "v": 34
    },
    {
      "midi": 68,
      "hit": false,
      "t": 12906.249999999989,
      "d": 62.5,
      "v": 52
    },
    {
      "midi": 72,
      "hit": false,
      "t": 13148.437499999989,
      "d": 466.14583333333394,
      "v": 66
    },
    {
      "midi": 77,
      "hit": false,
      "t": 13460.937499999989,
      "d": 398.4375,
      "v": 80
    },
    {
      "midi": 30,
      "hit": false,
      "t": 13463.541666666655,
      "d": 388.02083333333394,
      "v": 53
    },
    {
      "midi": 70,
      "hit": false,
      "t": 13708.333333333323,
      "d": 317.7083333333321,
      "v": 51
    },
    {
      "midi": 65,
      "hit": false,
      "t": 13916.666666666655,
      "d": 140.625,
      "v": 55
    },
    {
      "midi": 77,
      "hit": false,
      "t": 14114.583333333321,
      "d": 291.66666666666606,
      "v": 78
    },
    {
      "midi": 75,
      "hit": false,
      "t": 14335.937499999987,
      "d": 565.1041666666679,
      "v": 73
    },
    {
      "midi": 36,
      "hit": false,
      "t": 14343.749999999987,
      "d": 552.0833333333339,
      "v": 52
    },
    {
      "midi": 70,
      "hit": false,
      "t": 14572.916666666653,
      "d": 229.16666666666788,
      "v": 39
    },
    {
      "midi": 63,
      "hit": false,
      "t": 14802.083333333321,
      "d": 104.16666666666788,
      "v": 50
    },
    {
      "midi": 73,
      "hit": false,
      "t": 15036.458333333323,
      "d": 208.33333333333394,
      "v": 49
    },
    {
      "midi": 72,
      "hit": false,
      "t": 15221.354166666657,
      "d": 1312.5000000000036,
      "v": 59
    },
    {
      "midi": 39,
      "hit": false,
      "t": 15239.583333333323,
      "d": 239.58333333333394,
      "v": 26
    },
    {
      "midi": 66,
      "hit": false,
      "t": 15411.458333333323,
      "d": 304.6875000000018,
      "v": 35
    },
    {
      "midi": 60,
      "hit": false,
      "t": 15609.37499999999,
      "d": 98.95833333333394,
      "v": 42
    },
    {
      "midi": 53,
      "hit": false,
      "t": 15804.68749999999,
      "d": 182.29166666666606,
      "v": 61
    },
    {
      "midi": 54,
      "hit": false,
      "t": 16010.416666666657,
      "d": 390.625,
      "v": 63
    },
    {
      "midi": 58,
      "hit": false,
      "t": 16221.354166666657,
      "d": 236.97916666666788,
      "v": 48
    },
    {
      "midi": 66,
      "hit": false,
      "t": 16468.749999999993,
      "d": 88.54166666666788,
      "v": 55
    },
    {
      "midi": 77,
      "hit": false,
      "t": 16721.35416666666,
      "d": 398.4375,
      "v": 87
    },
    {
      "midi": 75,
      "hit": false,
      "t": 17046.874999999993,
      "d": 726.5625,
      "v": 73
    },
    {
      "midi": 29,
      "hit": false,
      "t": 17072.91666666666,
      "d": 1268.2291666666679,
      "v": 40
    },
    {
      "midi": 69,
      "hit": false,
      "t": 17377.60416666666,
      "d": 278.6458333333321,
      "v": 44
    },
    {
      "midi": 63,
      "hit": false,
      "t": 17635.41666666666,
      "d": 119.79166666666424,
      "v": 51
    },
    {
      "midi": 73,
      "hit": false,
      "t": 17869.79166666666,
      "d": 283.8541666666679,
      "v": 56
    },
    {
      "midi": 72,
      "hit": false,
      "t": 18122.39583333333,
      "d": 1411.4583333333285,
      "v": 50
    },
    {
      "midi": 41,
      "hit": false,
      "t": 18153.64583333333,
      "d": 283.85416666666424,
      "v": 28
    },
    {
      "midi": 69,
      "hit": false,
      "t": 18369.79166666666,
      "d": 278.6458333333321,
      "v": 25
    },
    {
      "midi": 63,
      "hit": false,
      "t": 18583.333333333325,
      "d": 101.5625,
      "v": 32
    },
    {
      "midi": 52,
      "hit": false,
      "t": 18833.333333333325,
      "d": 281.25,
      "v": 41
    },
    {
      "midi": 53,
      "hit": false,
      "t": 19083.333333333325,
      "d": 343.75,
      "v": 61
    },
    {
      "midi": 57,
      "hit": false,
      "t": 19296.874999999993,
      "d": 281.24999999999636,
      "v": 46
    },
    {
      "midi": 65,
      "hit": false,
      "t": 19541.666666666657,
      "d": 453.125,
      "v": 62
    },
    {
      "midi": 78,
      "hit": false,
      "t": 19812.49999999999,
      "d": 375,
      "v": 88
    },
    {
      "midi": 77,
      "hit": false,
      "t": 20171.87499999999,
      "d": 1072.9166666666642,
      "v": 88
    },
    {
      "midi": 72,
      "hit": false,
      "t": 20442.70833333332,
      "d": 169.27083333333212,
      "v": 41
    },
    {
      "midi": 69,
      "hit": false,
      "t": 20635.416666666653,
      "d": 177.08333333333212,
      "v": 31
    },
    {
      "midi": 65,
      "hit": false,
      "t": 20854.166666666653,
      "d": 104.16666666666788,
      "v": 27
    },
    {
      "midi": 76,
      "hit": false,
      "t": 21041.666666666653,
      "d": 1046.875,
      "v": 80
    },
    {
      "midi": 72,
      "hit": false,
      "t": 21299.479166666653,
      "d": 127.60416666666788,
      "v": 25
    },
    {
      "midi": 69,
      "hit": false,
      "t": 21489.58333333332,
      "d": 375,
      "v": 33
    },
    {
      "midi": 65,
      "hit": false,
      "t": 21718.74999999999,
      "d": 213.54166666666424,
      "v": 21
    },
    {
      "midi": 75,
      "hit": false,
      "t": 21885.416666666653,
      "d": 731.7708333333321,
      "v": 74
    },
    {
      "midi": 72,
      "hit": false,
      "t": 22114.58333333332,
      "d": 471.35416666666424,
      "v": 32
    },
    {
      "midi": 69,
      "hit": false,
      "t": 22322.916666666653,
      "d": 187.5,
      "v": 32
    },
    {
      "midi": 65,
      "hit": false,
      "t": 22565.104166666653,
      "d": 98.95833333333212,
      "v": 15
    },
    {
      "midi": 73,
      "hit": false,
      "t": 22765.624999999985,
      "d": 4179.687500000007,
      "v": 66
    },
    {
      "midi": 69,
      "hit": false,
      "t": 23041.666666666653,
      "d": 3929.6875000000073,
      "v": 32
    },
    {
      "midi": 66,
      "hit": false,
      "t": 23255.208333333318,
      "d": 3460.9375000000073,
      "v": 26
    },
    {
      "midi": 61,
      "hit": false,
      "t": 23458.333333333318,
      "d": 3351.5625000000073,
      "v": 44
    },
    {
      "midi": 57,
      "hit": false,
      "t": 23677.083333333318,
      "d": 166.66666666666788,
      "v": 36
    },
    {
      "midi": 54,
      "hit": false,
      "t": 23901.041666666653,
      "d": 148.4375,
      "v": 41
    },
    {
      "midi": 49,
      "hit": false,
      "t": 24101.562499999985,
      "d": 52.08333333333212,
      "v": 48
    },
    {
      "midi": 45,
      "hit": false,
      "t": 24296.874999999985,
      "d": 174.47916666666788,
      "v": 55
    },
    {
      "midi": 42,
      "hit": false,
      "t": 24513.02083333332,
      "d": 153.64583333333212,
      "v": 48
    },
    {
      "midi": 37,
      "hit": false,
      "t": 24734.374999999985,
      "d": 57.29166666666788,
      "v": 34
    },
    {
      "midi": 33,
      "hit": false,
      "t": 24942.70833333332,
      "d": 158.85416666666788,
      "v": 37
    },
    {
      "midi": 30,
      "hit": false,
      "t": 25145.83333333332,
      "d": 281.25,
      "v": 46
    },
    {
      "midi": 27,
      "hit": false,
      "t": 25442.70833333332,
      "d": 296.875,
      "v": 44
    },
    {
      "midi": 39,
      "hit": false,
      "t": 25770.83333333332,
      "d": 151.04166666666788,
      "v": 28
    },
    {
      "midi": 42,
      "hit": false,
      "t": 26041.666666666657,
      "d": 130.20833333333212,
      "v": 23
    },
    {
      "midi": 45,
      "hit": false,
      "t": 26260.416666666657,
      "d": 182.29166666666788,
      "v": 23
    },
    {
      "midi": 51,
      "hit": false,
      "t": 26507.812499999993,
      "d": 210.9375,
      "v": 29
    },
    {
      "midi": 54,
      "hit": false,
      "t": 26796.874999999993,
      "d": 190.10416666666788,
      "v": 21
    },
    {
      "midi": 57,
      "hit": false,
      "t": 27124.999999999993,
      "d": 190.10416666666788,
      "v": 35
    },
    {
      "midi": 73,
      "hit": false,
      "t": 27432.29166666666,
      "d": 432.2916666666679,
      "v": 42
    },
    {
      "midi": 72,
      "hit": false,
      "t": 27817.70833333333,
      "d": 411.4583333333321,
      "v": 49
    },
    {
      "midi": 39,
      "hit": false,
      "t": 27833.33333333333,
      "d": 513.0208333333321,
      "v": 19
    },
    {
      "midi": 66,
      "hit": false,
      "t": 28138.02083333333,
      "d": 330.72916666666424,
      "v": 21
    },
    {
      "midi": 60,
      "hit": false,
      "t": 28390.624999999993,
      "d": 130.20833333333212,
      "v": 28
    },
    {
      "midi": 72,
      "hit": false,
      "t": 28609.374999999993,
      "d": 229.16666666666424,
      "v": 42
    },
    {
      "midi": 70,
      "hit": false,
      "t": 28833.333333333325,
      "d": 697.9166666666679,
      "v": 41
    },
    {
      "midi": 37,
      "hit": false,
      "t": 28848.958333333325,
      "d": 252.60416666666788,
      "v": 23
    },
    {
      "midi": 65,
      "hit": false,
      "t": 29085.937499999993,
      "d": 242.1875,
      "v": 28
    },
    {
      "midi": 58,
      "hit": false,
      "t": 29283.85416666666,
      "d": 106.77083333333212,
      "v": 26
    },
    {
      "midi": 52,
      "hit": false,
      "t": 29510.41666666666,
      "d": 158.85416666666424,
      "v": 48
    },
    {
      "midi": 53,
      "hit": false,
      "t": 29721.354166666657,
      "d": 236.97916666666788,
      "v": 74
    },
    {
      "midi": 58,
      "hit": false,
      "t": 29916.666666666657,
      "d": 130.20833333333576,
      "v": 38
    },
    {
      "midi": 65,
      "hit": false,
      "t": 30124.999999999993,
      "d": 104.16666666666788,
      "v": 59
    },
    {
      "midi": 70,
      "hit": false,
      "t": 30294.27083333333,
      "d": 330.7291666666679,
      "v": 72
    },
    {
      "midi": 72,
      "hit": false,
      "t": 30531.249999999996,
      "d": 460.9375,
      "v": 79
    },
    {
      "midi": 39,
      "hit": false,
      "t": 30546.874999999996,
      "d": 343.75,
      "v": 47
    },
    {
      "midi": 66,
      "hit": false,
      "t": 30734.374999999996,
      "d": 244.79166666666424,
      "v": 51
    },
    {
      "midi": 60,
      "hit": false,
      "t": 30934.89583333333,
      "d": 54.6875,
      "v": 66
    },
    {
      "midi": 72,
      "hit": false,
      "t": 31109.374999999996,
      "d": 265.625,
      "v": 80
    },
    {
      "midi": 37,
      "hit": false,
      "t": 31322.916666666664,
      "d": 236.97916666666788,
      "v": 39
    },
    {
      "midi": 77,
      "hit": false,
      "t": 31325.520833333332,
      "d": 1208.3333333333358,
      "v": 75
    },
    {
      "midi": 72,
      "hit": false,
      "t": 31541.666666666664,
      "d": 203.12500000000364,
      "v": 61
    },
    {
      "midi": 65,
      "hit": false,
      "t": 31736.979166666668,
      "d": 127.60416666666788,
      "v": 59
    },
    {
      "midi": 57,
      "hit": false,
      "t": 31934.895833333336,
      "d": 145.83333333333212,
      "v": 41
    },
    {
      "midi": 58,
      "hit": false,
      "t": 32153.645833333336,
      "d": 567.7083333333321,
      "v": 35
    },
    {
      "midi": 65,
      "hit": false,
      "t": 32341.145833333336,
      "d": 244.79166666666424,
      "v": 51
    },
    {
      "midi": 70,
      "hit": false,
      "t": 32557.291666666668,
      "d": 98.95833333333212,
      "v": 66
    },
    {
      "midi": 77,
      "hit": false,
      "t": 32791.66666666667,
      "d": 403.6458333333285,
      "v": 92
    },
    {
      "midi": 82,
      "hit": false,
      "t": 33091.145833333336,
      "d": 473.9583333333285,
      "v": 76
    },
    {
      "midi": 36,
      "hit": false,
      "t": 33125,
      "d": 403.6458333333285,
      "v": 44
    },
    {
      "midi": 76,
      "hit": false,
      "t": 33390.625,
      "d": 273.4374999999927,
      "v": 45
    },
    {
      "midi": 70,
      "hit": false,
      "t": 33630.20833333333,
      "d": 143.22916666666424,
      "v": 46
    },
    {
      "midi": 82,
      "hit": false,
      "t": 33838.54166666666,
      "d": 140.625,
      "v": 76
    },
    {
      "midi": 81,
      "hit": false,
      "t": 34057.29166666666,
      "d": 1148.4375,
      "v": 79
    },
    {
      "midi": 41,
      "hit": false,
      "t": 34075.52083333332,
      "d": 226.5625,
      "v": 42
    },
    {
      "midi": 75,
      "hit": false,
      "t": 34265.624999999985,
      "d": 223.95833333334303,
      "v": 41
    },
    {
      "midi": 69,
      "hit": false,
      "t": 34460.93749999999,
      "d": 111.97916666667152,
      "v": 41
    },
    {
      "midi": 59,
      "hit": false,
      "t": 34677.08333333333,
      "d": 218.75,
      "v": 45
    },
    {
      "midi": 60,
      "hit": false,
      "t": 34901.041666666664,
      "d": 255.20833333332848,
      "v": 49
    },
    {
      "midi": 63,
      "hit": false,
      "t": 35104.166666666664,
      "d": 122.39583333332848,
      "v": 52
    },
    {
      "midi": 72,
      "hit": false,
      "t": 35325.52083333333,
      "d": 65.10416666666424,
      "v": 57
    },
    {
      "midi": 77,
      "hit": false,
      "t": 35557.29166666666,
      "d": 380.20833333333576,
      "v": 87
    },
    {
      "midi": 80,
      "hit": false,
      "t": 35854.16666666666,
      "d": 440.1041666666715,
      "v": 81
    },
    {
      "midi": 34,
      "hit": false,
      "t": 35869.79166666666,
      "d": 380.20833333333576,
      "v": 42
    },
    {
      "midi": 74,
      "hit": false,
      "t": 36145.83333333333,
      "d": 221.35416666666424,
      "v": 46
    },
    {
      "midi": 68,
      "hit": false,
      "t": 36374.99999999999,
      "d": 104.16666666666424,
      "v": 40
    },
    {
      "midi": 80,
      "hit": false,
      "t": 36591.14583333332,
      "d": 242.1875,
      "v": 68
    },
    {
      "midi": 39,
      "hit": false,
      "t": 36796.874999999985,
      "d": 244.79166666667152,
      "v": 28
    },
    {
      "midi": 79,
      "hit": false,
      "t": 36802.08333333332,
      "d": 1083.3333333333358,
      "v": 70
    },
    {
      "midi": 73,
      "hit": false,
      "t": 37020.83333333332,
      "d": 98.95833333333576,
      "v": 36
    },
    {
      "midi": 67,
      "hit": false,
      "t": 37231.77083333332,
      "d": 109.375,
      "v": 25
    },
    {
      "midi": 57,
      "hit": false,
      "t": 37458.33333333332,
      "d": 98.95833333333576,
      "v": 19
    },
    {
      "midi": 58,
      "hit": false,
      "t": 37664.06249999999,
      "d": 656.25,
      "v": 19
    },
    {
      "midi": 61,
      "hit": false,
      "t": 37890.62499999999,
      "d": 377.60416666666424,
      "v": 38
    },
    {
      "midi": 70,
      "hit": false,
      "t": 38124.99999999999,
      "d": 62.5,
      "v": 27
    },
    {
      "midi": 75,
      "hit": false,
      "t": 38374.99999999999,
      "d": 382.8125,
      "v": 51
    },
    {
      "midi": 32,
      "hit": false,
      "t": 38669.27083333333,
      "d": 427.08333333333576,
      "v": 38
    },
    {
      "midi": 78,
      "hit": false,
      "t": 38677.08333333333,
      "d": 403.64583333333576,
      "v": 54
    },
    {
      "midi": 72,
      "hit": false,
      "t": 38953.12499999999,
      "d": 119.79166666667152,
      "v": 31
    },
    {
      "midi": 66,
      "hit": false,
      "t": 39125,
      "d": 127.60416666666424,
      "v": 32
    },
    {
      "midi": 78,
      "hit": false,
      "t": 39304.6875,
      "d": 226.5625,
      "v": 62
    },
    {
      "midi": 77,
      "hit": false,
      "t": 39510.416666666664,
      "d": 528.6458333333285,
      "v": 69
    },
    {
      "midi": 37,
      "hit": false,
      "t": 39510.416666666664,
      "d": 1010.4166666666642,
      "v": 35
    },
    {
      "midi": 71,
      "hit": false,
      "t": 39760.416666666664,
      "d": 239.58333333332848,
      "v": 44
    },
    {
      "midi": 65,
      "hit": false,
      "t": 39966.14583333333,
      "d": 85.9375,
      "v": 36
    },
    {
      "midi": 75,
      "hit": false,
      "t": 40145.83333333333,
      "d": 197.91666666666424,
      "v": 58
    },
    {
      "midi": 73,
      "hit": false,
      "t": 40320.31249999999,
      "d": 1125.0000000000073,
      "v": 61
    },
    {
      "midi": 49,
      "hit": false,
      "t": 40328.12499999999,
      "d": 283.8541666666715,
      "v": 34
    },
    {
      "midi": 71,
      "hit": false,
      "t": 40533.854166666664,
      "d": 197.91666666667152,
      "v": 47
    },
    {
      "midi": 65,
      "hit": false,
      "t": 40726.5625,
      "d": 91.14583333333576,
      "v": 43
    },
    {
      "midi": 55,
      "hit": false,
      "t": 40953.125,
      "d": 179.6875,
      "v": 27
    },
    {
      "midi": 56,
      "hit": false,
      "t": 41122.395833333336,
      "d": 408.85416666666424,
      "v": 45
    },
    {
      "midi": 59,
      "hit": false,
      "t": 41333.333333333336,
      "d": 213.54166666666424,
      "v": 54
    },
    {
      "midi": 68,
      "hit": false,
      "t": 41541.666666666664,
      "d": 54.6875,
      "v": 67
    },
    {
      "midi": 76,
      "hit": false,
      "t": 41802.08333333333,
      "d": 369.79166666666424,
      "v": 84
    },
    {
      "midi": 77,
      "hit": false,
      "t": 42109.37499999999,
      "d": 432.29166666666424,
      "v": 83
    },
    {
      "midi": 36,
      "hit": false,
      "t": 42130.20833333333,
      "d": 330.72916666666424,
      "v": 35
    },
    {
      "midi": 68,
      "hit": false,
      "t": 42385.41666666666,
      "d": 338.54166666666424,
      "v": 29
    },
    {
      "midi": 65,
      "hit": false,
      "t": 42619.79166666666,
      "d": 132.8125,
      "v": 40
    },
    {
      "midi": 73,
      "hit": false,
      "t": 42812.49999999999,
      "d": 268.2291666666715,
      "v": 56
    },
    {
      "midi": 72,
      "hit": false,
      "t": 43020.83333333333,
      "d": 1252.6041666666715,
      "v": 59
    },
    {
      "midi": 48,
      "hit": false,
      "t": 43057.291666666664,
      "d": 247.39583333333576,
      "v": 21
    },
    {
      "midi": 68,
      "hit": false,
      "t": 43231.770833333336,
      "d": 260.41666666666424,
      "v": 31
    },
    {
      "midi": 65,
      "hit": false,
      "t": 43434.895833333336,
      "d": 101.5625,
      "v": 25
    },
    {
      "midi": 52,
      "hit": false,
      "t": 43593.75,
      "d": 226.5625,
      "v": 24
    },
    {
      "midi": 53,
      "hit": false,
      "t": 43828.125,
      "d": 265.625,
      "v": 65
    },
    {
      "midi": 56,
      "hit": false,
      "t": 44031.25,
      "d": 156.25,
      "v": 45
    },
    {
      "midi": 65,
      "hit": false,
      "t": 44255.208333333336,
      "d": 208.33333333332848,
      "v": 52
    },
    {
      "midi": 72,
      "hit": false,
      "t": 44466.14583333333,
      "d": 388.0208333333285,
      "v": 94
    },
    {
      "midi": 73,
      "hit": false,
      "t": 44757.81249999999,
      "d": 929.6875,
      "v": 80
    },
    {
      "midi": 67,
      "hit": false,
      "t": 45002.60416666666,
      "d": 216.14583333333576,
      "v": 41
    },
    {
      "midi": 64,
      "hit": false,
      "t": 45187.49999999999,
      "d": 104.16666666666424,
      "v": 45
    },
    {
      "midi": 60,
      "hit": false,
      "t": 45393.22916666666,
      "d": 226.5625,
      "v": 39
    },
    {
      "midi": 70,
      "hit": false,
      "t": 45578.12499999999,
      "d": 929.6875,
      "v": 68
    },
    {
      "midi": 67,
      "hit": false,
      "t": 45802.08333333332,
      "d": 130.20833333333576,
      "v": 39
    },
    {
      "midi": 61,
      "hit": false,
      "t": 45971.35416666666,
      "d": 153.64583333333576,
      "v": 48
    },
    {
      "midi": 60,
      "hit": false,
      "t": 46195.31249999999,
      "d": 213.54166666666424,
      "v": 42
    },
    {
      "midi": 67,
      "hit": false,
      "t": 46369.79166666666,
      "d": 1247.395833333343,
      "v": 79
    },
    {
      "midi": 64,
      "hit": false,
      "t": 46606.77083333333,
      "d": 226.5625,
      "v": 38
    },
    {
      "midi": 58,
      "hit": false,
      "t": 46783.854166666664,
      "d": 260.41666666666424,
      "v": 34
    },
    {
      "midi": 60,
      "hit": false,
      "t": 46981.77083333333,
      "d": 278.64583333333576,
      "v": 50
    },
    {
      "midi": 70,
      "hit": false,
      "t": 47260.416666666664,
      "d": 1364.5833333333358,
      "v": 77
    },
    {
      "midi": 65,
      "hit": false,
      "t": 47541.666666666664,
      "d": 513.0208333333358,
      "v": 49
    },
    {
      "midi": 60,
      "hit": false,
      "t": 47752.604166666664,
      "d": 364.58333333333576,
      "v": 55
    },
    {
      "midi": 53,
      "hit": false,
      "t": 47929.6875,
      "d": 226.5625,
      "v": 91
    },
    {
      "midi": 48,
      "hit": false,
      "t": 48156.25,
      "d": 229.16666666666424,
      "v": 68
    },
    {
      "midi": 44,
      "hit": false,
      "t": 48354.166666666664,
      "d": 161.45833333333576,
      "v": 74
    },
    {
      "midi": 68,
      "hit": false,
      "t": 48585.9375,
      "d": 341.14583333333576,
      "v": 88
    },
    {
      "midi": 41,
      "hit": false,
      "t": 48604.166666666664,
      "d": 229.16666666667152,
      "v": 80
    },
    {
      "midi": 80,
      "hit": false,
      "t": 48854.16666666667,
      "d": 463.54166666666424,
      "v": 92
    },
    {
      "midi": 36,
      "hit": false,
      "t": 48877.60416666667,
      "d": 190.10416666666424,
      "v": 72
    },
    {
      "midi": 32,
      "hit": false,
      "t": 49192.708333333336,
      "d": 421.875,
      "v": 79
    },
    {
      "midi": 78,
      "hit": false,
      "t": 49192.708333333336,
      "d": 588.5416666666642,
      "v": 90
    },
    {
      "midi": 72,
      "hit": false,
      "t": 49494.79166666667,
      "d": 312.4999999999927,
      "v": 73
    },
    {
      "midi": 44,
      "hit": false,
      "t": 49549.47916666667,
      "d": 179.68749999999272,
      "v": 65
    },
    {
      "midi": 66,
      "hit": false,
      "t": 49734.375,
      "d": 223.95833333332848,
      "v": 67
    },
    {
      "midi": 78,
      "hit": false,
      "t": 49979.166666666664,
      "d": 356.77083333333576,
      "v": 81
    },
    {
      "midi": 77,
      "hit": false,
      "t": 50247.39583333333,
      "d": 760.416666666657,
      "v": 85
    },
    {
      "midi": 37,
      "hit": false,
      "t": 50252.604166666664,
      "d": 648.4374999999927,
      "v": 50
    },
    {
      "midi": 71,
      "hit": false,
      "t": 50523.4375,
      "d": 249.99999999999272,
      "v": 51
    },
    {
      "midi": 65,
      "hit": false,
      "t": 50755.20833333333,
      "d": 91.14583333332848,
      "v": 49
    },
    {
      "midi": 75,
      "hit": false,
      "t": 50958.33333333332,
      "d": 276.04166666666424,
      "v": 68
    },
    {
      "midi": 73,
      "hit": false,
      "t": 51161.45833333332,
      "d": 1184.8958333333358,
      "v": 67
    },
    {
      "midi": 49,
      "hit": false,
      "t": 51177.08333333332,
      "d": 281.25,
      "v": 41
    },
    {
      "midi": 71,
      "hit": false,
      "t": 51374.999999999985,
      "d": 187.5,
      "v": 51
    },
    {
      "midi": 65,
      "hit": false,
      "t": 51575.52083333332,
      "d": 111.97916666666424,
      "v": 36
    },
    {
      "midi": 55,
      "hit": false,
      "t": 51794.27083333332,
      "d": 184.89583333333576,
      "v": 41
    },
    {
      "midi": 56,
      "hit": false,
      "t": 51984.37499999999,
      "d": 338.54166666666424,
      "v": 44
    },
    {
      "midi": 59,
      "hit": false,
      "t": 52229.16666666666,
      "d": 65.10416666666424,
      "v": 40
    },
    {
      "midi": 68,
      "hit": false,
      "t": 52460.93749999999,
      "d": 62.5,
      "v": 45
    },
    {
      "midi": 74,
      "hit": false,
      "t": 52726.56249999999,
      "d": 403.6458333333285,
      "v": 66
    },
    {
      "midi": 73,
      "hit": false,
      "t": 53041.66666666666,
      "d": 588.5416666666642,
      "v": 51
    },
    {
      "midi": 37,
      "hit": false,
      "t": 53052.08333333332,
      "d": 1148.4375,
      "v": 22
    },
    {
      "midi": 68,
      "hit": false,
      "t": 53291.66666666666,
      "d": 242.1875,
      "v": 33
    },
    {
      "midi": 65,
      "hit": false,
      "t": 53544.27083333332,
      "d": 132.8125,
      "v": 21
    },
    {
      "midi": 72,
      "hit": false,
      "t": 53781.249999999985,
      "d": 250,
      "v": 38
    },
    {
      "midi": 71,
      "hit": false,
      "t": 54015.624999999985,
      "d": 1205.7291666666642,
      "v": 46
    },
    {
      "midi": 49,
      "hit": false,
      "t": 54036.45833333332,
      "d": 286.45833333333576,
      "v": 24
    },
    {
      "midi": 68,
      "hit": false,
      "t": 54229.16666666666,
      "d": 541.6666666666642,
      "v": 26
    },
    {
      "midi": 62,
      "hit": false,
      "t": 54499.99999999999,
      "d": 135.41666666666424,
      "v": 38
    },
    {
      "midi": 52,
      "hit": false,
      "t": 54674.47916666666,
      "d": 229.16666666666424,
      "v": 33
    },
    {
      "midi": 53,
      "hit": false,
      "t": 54921.874999999985,
      "d": 270.8333333333285,
      "v": 50
    },
    {
      "midi": 56,
      "hit": false,
      "t": 55127.60416666665,
      "d": 166.66666666667152,
      "v": 35
    },
    {
      "midi": 65,
      "hit": false,
      "t": 55398.437499999985,
      "d": 164.0625,
      "v": 34
    },
    {
      "midi": 73,
      "hit": false,
      "t": 55653.64583333332,
      "d": 143.22916666666424,
      "v": 54
    },
    {
      "midi": 71,
      "hit": false,
      "t": 55979.16666666665,
      "d": 1062.5,
      "v": 88
    },
    {
      "midi": 68,
      "hit": false,
      "t": 56226.562499999985,
      "d": 325.52083333333576,
      "v": 35
    },
    {
      "midi": 62,
      "hit": false,
      "t": 56458.33333333332,
      "d": 291.66666666666424,
      "v": 38
    },
    {
      "midi": 30,
      "hit": false,
      "t": 56638.02083333332,
      "d": 377.60416666666424,
      "v": 21
    },
    {
      "midi": 69,
      "hit": false,
      "t": 56942.70833333332,
      "d": 1005.2083333333285,
      "v": 54
    },
    {
      "midi": 66,
      "hit": false,
      "t": 57208.333333333314,
      "d": 356.77083333333576,
      "v": 16
    },
    {
      "midi": 61,
      "hit": false,
      "t": 57374.999999999985,
      "d": 273.4375,
      "v": 42
    },
    {
      "midi": 30,
      "hit": false,
      "t": 57583.333333333314,
      "d": 260.4166666666715,
      "v": 21
    },
    {
      "midi": 68,
      "hit": false,
      "t": 57833.33333333332,
      "d": 1333.3333333333358,
      "v": 50
    },
    {
      "midi": 65,
      "hit": false,
      "t": 58093.749999999985,
      "d": 403.64583333333576,
      "v": 26
    },
    {
      "midi": 59,
      "hit": false,
      "t": 58348.95833333332,
      "d": 348.95833333333576,
      "v": 28
    },
    {
      "midi": 30,
      "hit": false,
      "t": 58619.79166666666,
      "d": 739.5833333333358,
      "v": 18
    },
    {
      "midi": 66,
      "hit": false,
      "t": 58989.58333333332,
      "d": 5291.6666666666715,
      "v": 39
    },
    {
      "midi": 62,
      "hit": false,
      "t": 59343.74999999999,
      "d": 2270.8333333333358,
      "v": 33
    },
    {
      "midi": 57,
      "hit": false,
      "t": 59677.08333333333,
      "d": 4507.8125,
      "v": 37
    },
    {
      "midi": 54,
      "hit": false,
      "t": 59950.52083333333,
      "d": 187.5,
      "v": 45
    },
    {
      "midi": 50,
      "hit": false,
      "t": 60218.74999999999,
      "d": 223.95833333333576,
      "v": 36
    },
    {
      "midi": 45,
      "hit": false,
      "t": 60466.14583333333,
      "d": 210.9375,
      "v": 30
    },
    {
      "midi": 42,
      "hit": false,
      "t": 60710.93749999999,
      "d": 98.95833333333576,
      "v": 36
    },
    {
      "midi": 38,
      "hit": false,
      "t": 60955.729166666664,
      "d": 208.33333333333576,
      "v": 40
    },
    {
      "midi": 33,
      "hit": false,
      "t": 61289.0625,
      "d": 304.6875,
      "v": 28
    },
    {
      "midi": 61,
      "hit": false,
      "t": 61317.708333333336,
      "d": 3067.708333333321,
      "v": 50
    },
    {
      "midi": 30,
      "hit": false,
      "t": 61604.166666666664,
      "d": 229.16666666666424,
      "v": 31
    },
    {
      "midi": 33,
      "hit": false,
      "t": 61880.20833333333,
      "d": 192.70833333333576,
      "v": 40
    },
    {
      "midi": 38,
      "hit": false,
      "t": 62179.6875,
      "d": 296.875,
      "v": 26
    },
    {
      "midi": 42,
      "hit": false,
      "t": 62520.833333333336,
      "d": 408.85416666666424,
      "v": 29
    },
    {
      "midi": 45,
      "hit": false,
      "t": 62927.083333333336,
      "d": 395.8333333333285,
      "v": 22
    },
    {
      "midi": 50,
      "hit": false,
      "t": 63372.39583333333,
      "d": 536.4583333333358,
      "v": 13
    },
    {
      "midi": 54,
      "hit": false,
      "t": 63979.166666666664,
      "d": 304.6874999999927,
      "v": 21
    },
    {
      "midi": 65,
      "hit": false,
      "t": 65406.24999999999,
      "d": 786.4583333333503,
      "v": 40
    },
    {
      "midi": 32,
      "hit": false,
      "t": 65414.06249999999,
      "d": 1307.2916666666788,
      "v": 9
    },
    {
      "midi": 56,
      "hit": false,
      "t": 65416.66666666666,
      "d": 466.14583333334303,
      "v": 21
    },
    {
      "midi": 60,
      "hit": false,
      "t": 65434.89583333332,
      "d": 286.45833333333576,
      "v": 20
    },
    {
      "midi": 63,
      "hit": false,
      "t": 66156.25,
      "d": 427.08333333334303,
      "v": 39
    },
    {
      "midi": 54,
      "hit": false,
      "t": 66182.29166666667,
      "d": 393.2291666666715,
      "v": 29
    },
    {
      "midi": 60,
      "hit": false,
      "t": 66250.00000000001,
      "d": 257.8125,
      "v": 8
    },
    {
      "midi": 54,
      "hit": false,
      "t": 66760.41666666667,
      "d": 494.79166666665697,
      "v": 42
    },
    {
      "midi": 63,
      "hit": false,
      "t": 66765.625,
      "d": 828.1249999999854,
      "v": 69
    },
    {
      "midi": 37,
      "hit": false,
      "t": 66773.4375,
      "d": 1736.979166666657,
      "v": 26
    },
    {
      "midi": 60,
      "hit": false,
      "t": 66812.5,
      "d": 239.58333333332848,
      "v": 10
    },
    {
      "midi": 61,
      "hit": false,
      "t": 67333.33333333333,
      "d": 1510.416666666657,
      "v": 62
    },
    {
      "midi": 53,
      "hit": false,
      "t": 67348.95833333333,
      "d": 1377.604166666657,
      "v": 66
    },
    {
      "midi": 43,
      "hit": false,
      "t": 68026.04166666664,
      "d": 554.6875000000146,
      "v": 46
    },
    {
      "midi": 44,
      "hit": false,
      "t": 68539.06249999999,
      "d": 1653.6458333333721,
      "v": 55
    },
    {
      "midi": 73,
      "hit": false,
      "t": 69208.33333333331,
      "d": 549.4791666666861,
      "v": 77
    },
    {
      "midi": 56,
      "hit": false,
      "t": 69229.16666666664,
      "d": 3257.8125000000437,
      "v": 38
    },
    {
      "midi": 65,
      "hit": false,
      "t": 69231.77083333331,
      "d": 320.31250000001455,
      "v": 48
    },
    {
      "midi": 75,
      "hit": false,
      "t": 69690.10416666666,
      "d": 325.5208333333576,
      "v": 79
    },
    {
      "midi": 66,
      "hit": false,
      "t": 69697.91666666666,
      "d": 320.3125000000291,
      "v": 48
    },
    {
      "midi": 72,
      "hit": false,
      "t": 69723.95833333333,
      "d": 85.93750000001455,
      "v": 39
    },
    {
      "midi": 72,
      "hit": false,
      "t": 69916.66666666667,
      "d": 104.16666666668607,
      "v": 2
    },
    {
      "midi": 75,
      "hit": false,
      "t": 70166.66666666669,
      "d": 458.33333333334303,
      "v": 75
    },
    {
      "midi": 66,
      "hit": false,
      "t": 70177.08333333336,
      "d": 304.6875,
      "v": 41
    },
    {
      "midi": 49,
      "hit": false,
      "t": 70177.08333333336,
      "d": 2278.6458333333285,
      "v": 40
    },
    {
      "midi": 72,
      "hit": false,
      "t": 70179.68750000003,
      "d": 270.8333333333285,
      "v": 46
    },
    {
      "midi": 65,
      "hit": false,
      "t": 70481.77083333336,
      "d": 65.10416666667152,
      "v": 55
    },
    {
      "midi": 77,
      "hit": false,
      "t": 70614.58333333336,
      "d": 1575.5208333333285,
      "v": 71
    },
    {
      "midi": 80,
      "hit": false,
      "t": 70828.12500000003,
      "d": 1666.666666666657,
      "v": 73
    },
    {
      "midi": 60,
      "hit": false,
      "t": 71406.25000000003,
      "d": 596.354166666657,
      "v": 48
    },
    {
      "midi": 61,
      "hit": false,
      "t": 71916.66666666669,
      "d": 2640.6249999999854,
      "v": 28
    },
    {
      "midi": 77,
      "hit": false,
      "t": 72460.93750000001,
      "d": 481.77083333334303,
      "v": 84
    },
    {
      "midi": 73,
      "hit": false,
      "t": 72479.16666666669,
      "d": 799.4791666666715,
      "v": 47
    },
    {
      "midi": 66,
      "hit": false,
      "t": 72721.35416666669,
      "d": 70.3125,
      "v": 57
    },
    {
      "midi": 78,
      "hit": false,
      "t": 72861.97916666669,
      "d": 463.5416666666715,
      "v": 70
    },
    {
      "midi": 56,
      "hit": false,
      "t": 72966.14583333336,
      "d": 1398.4374999999854,
      "v": 29
    },
    {
      "midi": 49,
      "hit": false,
      "t": 72966.14583333336,
      "d": 2841.145833333314,
      "v": 25
    },
    {
      "midi": 82,
      "hit": false,
      "t": 73028.64583333336,
      "d": 294.2708333333285,
      "v": 62
    },
    {
      "midi": 75,
      "hit": false,
      "t": 73442.70833333336,
      "d": 421.875,
      "v": 69
    },
    {
      "midi": 72,
      "hit": false,
      "t": 73466.14583333336,
      "d": 450.5208333333285,
      "v": 32
    },
    {
      "midi": 65,
      "hit": false,
      "t": 73697.91666666669,
      "d": 62.5,
      "v": 30
    },
    {
      "midi": 77,
      "hit": false,
      "t": 73841.14583333336,
      "d": 945.3124999999854,
      "v": 52
    },
    {
      "midi": 80,
      "hit": false,
      "t": 73953.12500000001,
      "d": 822.916666666657,
      "v": 64
    },
    {
      "midi": 55,
      "hit": false,
      "t": 74408.85416666667,
      "d": 486.9791666666715,
      "v": 34
    },
    {
      "midi": 56,
      "hit": false,
      "t": 74893.22916666667,
      "d": 968.7499999999854,
      "v": 38
    },
    {
      "midi": 61,
      "hit": false,
      "t": 75080.72916666667,
      "d": 57.29166666667152,
      "v": 46
    },
    {
      "midi": 73,
      "hit": false,
      "t": 75200.52083333334,
      "d": 414.0625,
      "v": 43
    },
    {
      "midi": 77,
      "hit": false,
      "t": 75330.72916666667,
      "d": 252.60416666667152,
      "v": 79
    },
    {
      "midi": 46,
      "hit": false,
      "t": 75736.97916666667,
      "d": 770.8333333332994,
      "v": 29
    },
    {
      "midi": 53,
      "hit": false,
      "t": 75770.83333333334,
      "d": 346.3541666666424,
      "v": 51
    },
    {
      "midi": 72,
      "hit": false,
      "t": 75812.5,
      "d": 143.22916666665697,
      "v": 72
    },
    {
      "midi": 68,
      "hit": false,
      "t": 75833.33333333333,
      "d": 67.70833333332848,
      "v": 31
    },
    {
      "midi": 58,
      "hit": false,
      "t": 76096.35416666666,
      "d": 111.97916666665697,
      "v": 55
    },
    {
      "midi": 70,
      "hit": false,
      "t": 76231.77083333331,
      "d": 255.20833333332848,
      "v": 47
    },
    {
      "midi": 73,
      "hit": false,
      "t": 76315.10416666664,
      "d": 239.58333333332848,
      "v": 72
    },
    {
      "midi": 39,
      "hit": false,
      "t": 76739.5833333333,
      "d": 507.8125,
      "v": 22
    },
    {
      "midi": 68,
      "hit": false,
      "t": 76749.99999999997,
      "d": 1593.75,
      "v": 56
    },
    {
      "midi": 65,
      "hit": false,
      "t": 76757.81249999997,
      "d": 1335.9374999999854,
      "v": 44
    },
    {
      "midi": 46,
      "hit": false,
      "t": 77205.72916666663,
      "d": 385.4166666666715,
      "v": 26
    },
    {
      "midi": 51,
      "hit": false,
      "t": 77721.35416666663,
      "d": 591.145833333343,
      "v": 29
    },
    {
      "midi": 66,
      "hit": false,
      "t": 78260.41666666663,
      "d": 434.89583333334303,
      "v": 25
    },
    {
      "midi": 63,
      "hit": false,
      "t": 78270.8333333333,
      "d": 393.2291666666715,
      "v": 25
    },
    {
      "midi": 58,
      "hit": false,
      "t": 78278.6458333333,
      "d": 544.270833333343,
      "v": 13
    },
    {
      "midi": 66,
      "hit": false,
      "t": 78953.12499999997,
      "d": 924.479166666657,
      "v": 23
    },
    {
      "midi": 63,
      "hit": false,
      "t": 78984.37499999997,
      "d": 747.3958333333285,
      "v": 12
    },
    {
      "midi": 58,
      "hit": false,
      "t": 79562.49999999997,
      "d": 421.87499999998545,
      "v": 16
    },
    {
      "midi": 46,
      "hit": false,
      "t": 79598.9583333333,
      "d": 322.91666666665697,
      "v": 13
    },
    {
      "midi": 68,
      "hit": false,
      "t": 80096.35416666663,
      "d": 760.4166666666861,
      "v": 37
    },
    {
      "midi": 38,
      "hit": false,
      "t": 80143.22916666663,
      "d": 658.8541666666861,
      "v": 28
    },
    {
      "midi": 47,
      "hit": false,
      "t": 80145.8333333333,
      "d": 408.8541666666715,
      "v": 26
    },
    {
      "midi": 65,
      "hit": false,
      "t": 80148.43749999997,
      "d": 677.083333333343,
      "v": 21
    },
    {
      "midi": 59,
      "hit": false,
      "t": 80177.0833333333,
      "d": 411.45833333334303,
      "v": 22
    },
    {
      "midi": 58,
      "hit": false,
      "t": 80604.16666666664,
      "d": 497.39583333334303,
      "v": 34
    },
    {
      "midi": 46,
      "hit": false,
      "t": 80638.02083333331,
      "d": 317.7083333333285,
      "v": 21
    },
    {
      "midi": 57,
      "hit": false,
      "t": 81080.72916666664,
      "d": 500,
      "v": 43
    },
    {
      "midi": 45,
      "hit": false,
      "t": 81091.14583333331,
      "d": 429.6875,
      "v": 39
    },
    {
      "midi": 39,
      "hit": false,
      "t": 81093.74999999999,
      "d": 601.5624999999854,
      "v": 36
    },
    {
      "midi": 66,
      "hit": false,
      "t": 81093.74999999999,
      "d": 643.229166666657,
      "v": 42
    },
    {
      "midi": 63,
      "hit": false,
      "t": 81098.95833333331,
      "d": 598.9583333333285,
      "v": 37
    },
    {
      "midi": 46,
      "hit": false,
      "t": 81526.04166666664,
      "d": 473.9583333333285,
      "v": 44
    },
    {
      "midi": 58,
      "hit": false,
      "t": 81531.24999999997,
      "d": 492.1875,
      "v": 52
    },
    {
      "midi": 59,
      "hit": false,
      "t": 81968.74999999997,
      "d": 463.5416666666715,
      "v": 60
    },
    {
      "midi": 66,
      "hit": false,
      "t": 81968.74999999997,
      "d": 606.770833333343,
      "v": 54
    },
    {
      "midi": 47,
      "hit": false,
      "t": 81976.56249999997,
      "d": 429.6875,
      "v": 56
    },
    {
      "midi": 63,
      "hit": false,
      "t": 81976.56249999997,
      "d": 559.895833333343,
      "v": 57
    },
    {
      "midi": 39,
      "hit": false,
      "t": 81979.16666666664,
      "d": 721.3541666666715,
      "v": 43
    },
    {
      "midi": 60,
      "hit": false,
      "t": 82416.66666666664,
      "d": 585.9375,
      "v": 68
    },
    {
      "midi": 48,
      "hit": false,
      "t": 82421.87499999997,
      "d": 544.270833333343,
      "v": 48
    },
    {
      "midi": 56,
      "hit": false,
      "t": 82919.27083333331,
      "d": 789.0624999999854,
      "v": 59
    },
    {
      "midi": 66,
      "hit": false,
      "t": 82927.08333333331,
      "d": 752.604166666657,
      "v": 53
    },
    {
      "midi": 51,
      "hit": false,
      "t": 82932.29166666664,
      "d": 625,
      "v": 49
    },
    {
      "midi": 63,
      "hit": false,
      "t": 82932.29166666664,
      "d": 877.604166666657,
      "v": 56
    },
    {
      "midi": 41,
      "hit": false,
      "t": 82950.52083333331,
      "d": 627.604166666657,
      "v": 41
    },
    {
      "midi": 61,
      "hit": false,
      "t": 83429.68749999997,
      "d": 552.083333333343,
      "v": 70
    },
    {
      "midi": 49,
      "hit": false,
      "t": 83447.91666666664,
      "d": 489.5833333333285,
      "v": 54
    },
    {
      "midi": 48,
      "hit": false,
      "t": 83914.06249999997,
      "d": 513.0208333333576,
      "v": 41
    },
    {
      "midi": 60,
      "hit": false,
      "t": 83919.2708333333,
      "d": 544.2708333333721,
      "v": 59
    },
    {
      "midi": 65,
      "hit": false,
      "t": 83919.2708333333,
      "d": 671.8750000000437,
      "v": 59
    },
    {
      "midi": 56,
      "hit": false,
      "t": 83919.2708333333,
      "d": 729.1666666667152,
      "v": 49
    },
    {
      "midi": 41,
      "hit": false,
      "t": 83940.10416666664,
      "d": 731.7708333333721,
      "v": 45
    },
    {
      "midi": 61,
      "hit": false,
      "t": 84416.66666666666,
      "d": 445.31250000001455,
      "v": 67
    },
    {
      "midi": 49,
      "hit": false,
      "t": 84424.47916666666,
      "d": 315.10416666668607,
      "v": 53
    },
    {
      "midi": 48,
      "hit": false,
      "t": 84854.16666666667,
      "d": 427.08333333334303,
      "v": 44
    },
    {
      "midi": 60,
      "hit": false,
      "t": 84854.16666666667,
      "d": 549.4791666666861,
      "v": 67
    },
    {
      "midi": 65,
      "hit": false,
      "t": 84854.16666666667,
      "d": 640.6250000000146,
      "v": 60
    },
    {
      "midi": 37,
      "hit": false,
      "t": 84864.58333333334,
      "d": 1145.8333333333576,
      "v": 51
    },
    {
      "midi": 53,
      "hit": false,
      "t": 84867.18750000001,
      "d": 684.895833333343,
      "v": 67
    },
    {
      "midi": 58,
      "hit": false,
      "t": 85304.68750000001,
      "d": 291.6666666666715,
      "v": 62
    },
    {
      "midi": 46,
      "hit": false,
      "t": 85315.10416666669,
      "d": 437.5,
      "v": 53
    },
    {
      "midi": 57,
      "hit": false,
      "t": 85739.58333333336,
      "d": 583.3333333333139,
      "v": 63
    },
    {
      "midi": 65,
      "hit": false,
      "t": 85742.18750000003,
      "d": 523.4374999999854,
      "v": 69
    },
    {
      "midi": 45,
      "hit": false,
      "t": 85747.39583333336,
      "d": 502.60416666665697,
      "v": 52
    },
    {
      "midi": 53,
      "hit": false,
      "t": 85755.20833333336,
      "d": 486.97916666665697,
      "v": 71
    },
    {
      "midi": 42,
      "hit": false,
      "t": 85765.62500000003,
      "d": 552.0833333333139,
      "v": 32
    },
    {
      "midi": 58,
      "hit": false,
      "t": 86192.70833333336,
      "d": 546.875,
      "v": 69
    },
    {
      "midi": 46,
      "hit": false,
      "t": 86197.91666666669,
      "d": 523.4375,
      "v": 55
    },
    {
      "midi": 42,
      "hit": false,
      "t": 86528.64583333334,
      "d": 736.9791666666715,
      "v": 19
    },
    {
      "midi": 61,
      "hit": false,
      "t": 86645.83333333334,
      "d": 401.04166666668607,
      "v": 57
    },
    {
      "midi": 49,
      "hit": false,
      "t": 86645.83333333334,
      "d": 494.79166666668607,
      "v": 35
    },
    {
      "midi": 63,
      "hit": false,
      "t": 86645.83333333334,
      "d": 791.6666666666715,
      "v": 62
    },
    {
      "midi": 51,
      "hit": false,
      "t": 86656.25000000001,
      "d": 765.625,
      "v": 46
    },
    {
      "midi": 48,
      "hit": false,
      "t": 87145.83333333336,
      "d": 557.2916666666715,
      "v": 39
    },
    {
      "midi": 60,
      "hit": false,
      "t": 87151.04166666669,
      "d": 651.0416666666715,
      "v": 62
    },
    {
      "midi": 64,
      "hit": false,
      "t": 87682.29166666669,
      "d": 921.8750000000291,
      "v": 57
    },
    {
      "midi": 52,
      "hit": false,
      "t": 87687.50000000001,
      "d": 893.2291666667006,
      "v": 41
    },
    {
      "midi": 58,
      "hit": false,
      "t": 87690.10416666669,
      "d": 643.2291666666861,
      "v": 33
    },
    {
      "midi": 42,
      "hit": false,
      "t": 87700.52083333336,
      "d": 919.2708333333576,
      "v": 26
    },
    {
      "midi": 46,
      "hit": false,
      "t": 87710.93750000003,
      "d": 632.8125000000146,
      "v": 24
    },
    {
      "midi": 60,
      "hit": false,
      "t": 88281.25000000003,
      "d": 367.18750000001455,
      "v": 47
    },
    {
      "midi": 48,
      "hit": false,
      "t": 88291.6666666667,
      "d": 265.62500000001455,
      "v": 25
    },
    {
      "midi": 65,
      "hit": false,
      "t": 88992.18750000004,
      "d": 2140.6249999999854,
      "v": 36
    },
    {
      "midi": 58,
      "hit": false,
      "t": 89007.81250000004,
      "d": 1723.9583333333285,
      "v": 28
    },
    {
      "midi": 53,
      "hit": false,
      "t": 89013.02083333337,
      "d": 2005.2083333333285,
      "v": 38
    },
    {
      "midi": 48,
      "hit": false,
      "t": 89036.45833333337,
      "d": 2080.729166666657,
      "v": 11
    },
    {
      "midi": 41,
      "hit": false,
      "t": 89049.4791666667,
      "d": 2067.7083333333285,
      "v": 15
    },
    {
      "midi": 57,
      "hit": false,
      "t": 90645.83333333337,
      "d": 546.8749999999854,
      "v": 19
    },
    {
      "midi": 32,
      "hit": false,
      "t": 91825.52083333336,
      "d": 1341.1458333333285,
      "v": 19
    },
    {
      "midi": 65,
      "hit": false,
      "t": 91828.12500000003,
      "d": 755.2083333333139,
      "v": 42
    },
    {
      "midi": 56,
      "hit": false,
      "t": 91848.95833333336,
      "d": 395.8333333333285,
      "v": 15
    },
    {
      "midi": 60,
      "hit": false,
      "t": 91914.06250000003,
      "d": 281.25,
      "v": 18
    },
    {
      "midi": 63,
      "hit": false,
      "t": 92531.25000000001,
      "d": 351.5625,
      "v": 54
    },
    {
      "midi": 54,
      "hit": false,
      "t": 92562.50000000001,
      "d": 294.2708333333285,
      "v": 23
    },
    {
      "midi": 60,
      "hit": false,
      "t": 92611.97916666667,
      "d": 270.83333333334303,
      "v": 16
    },
    {
      "midi": 63,
      "hit": false,
      "t": 93083.33333333334,
      "d": 664.0625000000146,
      "v": 50
    },
    {
      "midi": 37,
      "hit": false,
      "t": 93101.56250000001,
      "d": 1122.3958333333576,
      "v": 32
    },
    {
      "midi": 54,
      "hit": false,
      "t": 93104.16666666669,
      "d": 377.6041666666715,
      "v": 34
    },
    {
      "midi": 60,
      "hit": false,
      "t": 93166.66666666669,
      "d": 442.70833333334303,
      "v": 3
    },
    {
      "midi": 61,
      "hit": false,
      "t": 93570.31250000003,
      "d": 1226.5624999999854,
      "v": 52
    },
    {
      "midi": 53,
      "hit": false,
      "t": 93598.95833333336,
      "d": 1059.8958333333285,
      "v": 50
    },
    {
      "midi": 43,
      "hit": false,
      "t": 94041.6666666667,
      "d": 479.16666666665697,
      "v": 38
    },
    {
      "midi": 44,
      "hit": false,
      "t": 94507.81250000003,
      "d": 1549.479166666657,
      "v": 46
    },
    {
      "midi": 73,
      "hit": false,
      "t": 95135.41666666669,
      "d": 507.8125,
      "v": 60
    },
    {
      "midi": 56,
      "hit": false,
      "t": 95151.04166666669,
      "d": 3122.395833333343,
      "v": 25
    },
    {
      "midi": 65,
      "hit": false,
      "t": 95177.08333333336,
      "d": 255.20833333332848,
      "v": 26
    },
    {
      "midi": 75,
      "hit": false,
      "t": 95604.16666666669,
      "d": 294.2708333333285,
      "v": 72
    },
    {
      "midi": 66,
      "hit": false,
      "t": 95625.00000000001,
      "d": 270.8333333333285,
      "v": 29
    },
    {
      "midi": 72,
      "hit": false,
      "t": 95632.81250000001,
      "d": 75.52083333332848,
      "v": 41
    },
    {
      "midi": 75,
      "hit": false,
      "t": 96054.68750000001,
      "d": 466.1458333333576,
      "v": 72
    },
    {
      "midi": 66,
      "hit": false,
      "t": 96062.50000000001,
      "d": 252.60416666667152,
      "v": 35
    },
    {
      "midi": 72,
      "hit": false,
      "t": 96062.50000000001,
      "d": 294.27083333334303,
      "v": 45
    },
    {
      "midi": 49,
      "hit": false,
      "t": 96062.50000000001,
      "d": 2153.645833333343,
      "v": 38
    },
    {
      "midi": 65,
      "hit": false,
      "t": 96367.18750000003,
      "d": 62.5,
      "v": 47
    },
    {
      "midi": 77,
      "hit": false,
      "t": 96502.6041666667,
      "d": 1445.3125,
      "v": 64
    },
    {
      "midi": 80,
      "hit": false,
      "t": 96708.33333333337,
      "d": 1585.9374999999854,
      "v": 72
    },
    {
      "midi": 58,
      "hit": false,
      "t": 97354.1666666667,
      "d": 513.0208333333285,
      "v": 41
    },
    {
      "midi": 59,
      "hit": false,
      "t": 97843.75000000003,
      "d": 2515.6249999999854,
      "v": 59
    },
    {
      "midi": 77,
      "hit": false,
      "t": 98281.25000000003,
      "d": 447.91666666665697,
      "v": 84
    },
    {
      "midi": 73,
      "hit": false,
      "t": 98299.47916666669,
      "d": 609.375,
      "v": 43
    },
    {
      "midi": 66,
      "hit": false,
      "t": 98489.58333333336,
      "d": 106.77083333332848,
      "v": 47
    },
    {
      "midi": 78,
      "hit": false,
      "t": 98645.83333333336,
      "d": 677.0833333333285,
      "v": 73
    },
    {
      "midi": 56,
      "hit": false,
      "t": 98875.00000000001,
      "d": 2677.083333333343,
      "v": 21
    },
    {
      "midi": 49,
      "hit": false,
      "t": 98885.41666666669,
      "d": 2541.6666666666715,
      "v": 26
    },
    {
      "midi": 82,
      "hit": false,
      "t": 98921.87500000001,
      "d": 348.95833333334303,
      "v": 62
    },
    {
      "midi": 75,
      "hit": false,
      "t": 99440.10416666669,
      "d": 171.875,
      "v": 57
    },
    {
      "midi": 71,
      "hit": false,
      "t": 99442.70833333336,
      "d": 343.75,
      "v": 32
    },
    {
      "midi": 65,
      "hit": false,
      "t": 99648.43750000001,
      "d": 62.5,
      "v": 31
    },
    {
      "midi": 77,
      "hit": false,
      "t": 99776.04166666669,
      "d": 291.6666666666715,
      "v": 64
    },
    {
      "midi": 80,
      "hit": false,
      "t": 99869.79166666669,
      "d": 250,
      "v": 65
    },
    {
      "midi": 58,
      "hit": false,
      "t": 100375.00000000001,
      "d": 635.4166666666715,
      "v": 23
    },
    {
      "midi": 59,
      "hit": false,
      "t": 100986.97916666669,
      "d": 1075.5208333333285,
      "v": 38
    },
    {
      "midi": 61,
      "hit": false,
      "t": 101278.64583333336,
      "d": 46.875,
      "v": 55
    },
    {
      "midi": 73,
      "hit": false,
      "t": 101385.41666666669,
      "d": 453.125,
      "v": 41
    },
    {
      "midi": 77,
      "hit": false,
      "t": 101515.62500000003,
      "d": 216.14583333332848,
      "v": 69
    },
    {
      "midi": 49,
      "hit": false,
      "t": 101838.54166666669,
      "d": 598.9583333333285,
      "v": 25
    },
    {
      "midi": 53,
      "hit": false,
      "t": 101877.60416666669,
      "d": 401.04166666665697,
      "v": 35
    },
    {
      "midi": 71,
      "hit": false,
      "t": 101963.54166666669,
      "d": 49.479166666656965,
      "v": 74
    },
    {
      "midi": 68,
      "hit": false,
      "t": 101976.56250000001,
      "d": 46.875,
      "v": 52
    },
    {
      "midi": 58,
      "hit": false,
      "t": 102239.58333333334,
      "d": 78.125,
      "v": 44
    },
    {
      "midi": 70,
      "hit": false,
      "t": 102390.62500000001,
      "d": 151.04166666665697,
      "v": 50
    },
    {
      "midi": 73,
      "hit": false,
      "t": 102497.39583333334,
      "d": 617.1875,
      "v": 67
    },
    {
      "midi": 69,
      "hit": false,
      "t": 103026.04166666667,
      "d": 1411.458333333343,
      "v": 47
    },
    {
      "midi": 42,
      "hit": false,
      "t": 103041.66666666667,
      "d": 1072.9166666666715,
      "v": 26
    },
    {
      "midi": 65,
      "hit": false,
      "t": 103041.66666666667,
      "d": 1312.5000000000146,
      "v": 27
    },
    {
      "midi": 49,
      "hit": false,
      "t": 103523.43750000001,
      "d": 450.5208333333285,
      "v": 33
    },
    {
      "midi": 54,
      "hit": false,
      "t": 104000.00000000001,
      "d": 250,
      "v": 32
    },
    {
      "midi": 70,
      "hit": false,
      "t": 104479.16666666669,
      "d": 171.875,
      "v": 33
    },
    {
      "midi": 61,
      "hit": false,
      "t": 104497.39583333336,
      "d": 59.89583333332848,
      "v": 15
    },
    {
      "midi": 66,
      "hit": false,
      "t": 104505.20833333336,
      "d": 161.45833333332848,
      "v": 12
    },
    {
      "midi": 70,
      "hit": false,
      "t": 105145.83333333336,
      "d": 742.1875,
      "v": 17
    },
    {
      "midi": 66,
      "hit": false,
      "t": 105195.31250000003,
      "d": 867.1875,
      "v": 11
    },
    {
      "midi": 49,
      "hit": false,
      "t": 105953.12500000003,
      "d": 367.1875,
      "v": 36
    },
    {
      "midi": 61,
      "hit": false,
      "t": 105955.7291666667,
      "d": 578.125,
      "v": 48
    },
    {
      "midi": 69,
      "hit": false,
      "t": 106484.37500000003,
      "d": 593.7499999999854,
      "v": 36
    },
    {
      "midi": 62,
      "hit": false,
      "t": 106486.9791666667,
      "d": 554.6874999999854,
      "v": 35
    },
    {
      "midi": 50,
      "hit": false,
      "t": 106500.00000000003,
      "d": 447.9166666666715,
      "v": 40
    },
    {
      "midi": 66,
      "hit": false,
      "t": 106502.6041666667,
      "d": 606.7708333333139,
      "v": 27
    },
    {
      "midi": 42,
      "hit": false,
      "t": 106505.20833333337,
      "d": 523.4374999999854,
      "v": 21
    },
    {
      "midi": 61,
      "hit": false,
      "t": 106955.7291666667,
      "d": 499.99999999998545,
      "v": 62
    },
    {
      "midi": 49,
      "hit": false,
      "t": 106960.93750000003,
      "d": 466.1458333333285,
      "v": 38
    },
    {
      "midi": 70,
      "hit": false,
      "t": 107403.64583333334,
      "d": 611.9791666666861,
      "v": 49
    },
    {
      "midi": 48,
      "hit": false,
      "t": 107414.06250000001,
      "d": 468.75,
      "v": 38
    },
    {
      "midi": 60,
      "hit": false,
      "t": 107416.66666666669,
      "d": 575.520833333343,
      "v": 46
    },
    {
      "midi": 66,
      "hit": false,
      "t": 107424.47916666669,
      "d": 622.395833333343,
      "v": 39
    },
    {
      "midi": 42,
      "hit": false,
      "t": 107427.08333333336,
      "d": 507.8125,
      "v": 31
    },
    {
      "midi": 49,
      "hit": false,
      "t": 107838.54166666669,
      "d": 471.35416666668607,
      "v": 54
    },
    {
      "midi": 61,
      "hit": false,
      "t": 107838.54166666669,
      "d": 494.79166666668607,
      "v": 62
    },
    {
      "midi": 70,
      "hit": false,
      "t": 108283.8541666667,
      "d": 677.083333333343,
      "v": 69
    },
    {
      "midi": 62,
      "hit": false,
      "t": 108289.06250000003,
      "d": 445.31250000001455,
      "v": 64
    },
    {
      "midi": 50,
      "hit": false,
      "t": 108291.6666666667,
      "d": 458.33333333334303,
      "v": 58
    },
    {
      "midi": 66,
      "hit": false,
      "t": 108294.27083333337,
      "d": 585.9375,
      "v": 48
    },
    {
      "midi": 42,
      "hit": false,
      "t": 108312.50000000004,
      "d": 671.875,
      "v": 34
    },
    {
      "midi": 61,
      "hit": false,
      "t": 108742.18750000004,
      "d": 192.70833333332848,
      "v": 73
    },
    {
      "midi": 49,
      "hit": false,
      "t": 108755.20833333337,
      "d": 244.79166666667152,
      "v": 62
    },
    {
      "midi": 71,
      "hit": false,
      "t": 109281.25000000004,
      "d": 750.0000000000146,
      "v": 84
    },
    {
      "midi": 63,
      "hit": false,
      "t": 109289.06250000004,
      "d": 1000.0000000000146,
      "v": 57
    },
    {
      "midi": 68,
      "hit": false,
      "t": 109291.66666666672,
      "d": 791.6666666666715,
      "v": 53
    },
    {
      "midi": 51,
      "hit": false,
      "t": 109294.27083333339,
      "d": 536.4583333333285,
      "v": 54
    },
    {
      "midi": 41,
      "hit": false,
      "t": 109299.47916666672,
      "d": 783.8541666666715,
      "v": 59
    },
    {
      "midi": 61,
      "hit": false,
      "t": 109799.47916666672,
      "d": 375,
      "v": 68
    },
    {
      "midi": 49,
      "hit": false,
      "t": 109830.72916666672,
      "d": 361.9791666666715,
      "v": 59
    },
    {
      "midi": 70,
      "hit": false,
      "t": 110239.58333333339,
      "d": 536.458333333343,
      "v": 67
    },
    {
      "midi": 60,
      "hit": false,
      "t": 110250.00000000006,
      "d": 598.958333333343,
      "v": 64
    },
    {
      "midi": 66,
      "hit": false,
      "t": 110252.60416666673,
      "d": 572.9166666666715,
      "v": 49
    },
    {
      "midi": 42,
      "hit": false,
      "t": 110252.60416666673,
      "d": 950.5208333333576,
      "v": 42
    },
    {
      "midi": 48,
      "hit": false,
      "t": 110260.41666666673,
      "d": 419.2708333333285,
      "v": 41
    },
    {
      "midi": 61,
      "hit": false,
      "t": 110666.66666666673,
      "d": 497.3958333333576,
      "v": 69
    },
    {
      "midi": 49,
      "hit": false,
      "t": 110671.87500000006,
      "d": 395.83333333334303,
      "v": 57
    },
    {
      "midi": 51,
      "hit": false,
      "t": 111070.31250000007,
      "d": 458.3333333333576,
      "v": 66
    },
    {
      "midi": 63,
      "hit": false,
      "t": 111080.72916666674,
      "d": 557.2916666666861,
      "v": 67
    },
    {
      "midi": 67,
      "hit": false,
      "t": 111083.33333333342,
      "d": 638.020833333343,
      "v": 79
    },
    {
      "midi": 46,
      "hit": false,
      "t": 111085.93750000009,
      "d": 729.1666666666715,
      "v": 44
    },
    {
      "midi": 55,
      "hit": false,
      "t": 111088.54166666676,
      "d": 414.0625,
      "v": 65
    },
    {
      "midi": 61,
      "hit": false,
      "t": 111500.00000000009,
      "d": 539.0625000000291,
      "v": 76
    },
    {
      "midi": 49,
      "hit": false,
      "t": 111513.02083333343,
      "d": 786.4583333333576,
      "v": 57
    },
    {
      "midi": 68,
      "hit": false,
      "t": 111958.33333333343,
      "d": 661.458333333343,
      "v": 75
    },
    {
      "midi": 56,
      "hit": false,
      "t": 111968.7500000001,
      "d": 648.4375,
      "v": 38
    },
    {
      "midi": 65,
      "hit": false,
      "t": 111971.35416666677,
      "d": 632.8125,
      "v": 63
    },
    {
      "midi": 44,
      "hit": false,
      "t": 111997.39583333344,
      "d": 562.5,
      "v": 43
    },
    {
      "midi": 61,
      "hit": false,
      "t": 112500.00000000012,
      "d": 325.5208333333285,
      "v": 69
    },
    {
      "midi": 53,
      "hit": false,
      "t": 112531.25000000012,
      "d": 507.8125,
      "v": 72
    },
    {
      "midi": 60,
      "hit": false,
      "t": 113049.47916666679,
      "d": 609.3750000000146,
      "v": 61
    },
    {
      "midi": 66,
      "hit": false,
      "t": 113049.47916666679,
      "d": 2098.958333333372,
      "v": 54
    },
    {
      "midi": 54,
      "hit": false,
      "t": 113052.08333333346,
      "d": 851.5625000000146,
      "v": 48
    },
    {
      "midi": 51,
      "hit": false,
      "t": 113093.75000000013,
      "d": 541.6666666666715,
      "v": 41
    },
    {
      "midi": 44,
      "hit": false,
      "t": 113098.95833333346,
      "d": 1309.8958333333721,
      "v": 37
    },
    {
      "midi": 58,
      "hit": false,
      "t": 113609.37500000013,
      "d": 669.2708333333576,
      "v": 43
    },
    {
      "midi": 49,
      "hit": false,
      "t": 113632.81250000013,
      "d": 471.35416666668607,
      "v": 35
    },
    {
      "midi": 56,
      "hit": false,
      "t": 114101.56250000015,
      "d": 742.1875000000146,
      "v": 48
    },
    {
      "midi": 48,
      "hit": false,
      "t": 114135.41666666682,
      "d": 562.5000000000146,
      "v": 22
    },
    {
      "midi": 60,
      "hit": false,
      "t": 114710.93750000016,
      "d": 1023.4374999999854,
      "v": 46
    },
    {
      "midi": 44,
      "hit": false,
      "t": 114744.79166666683,
      "d": 3018.229166666628,
      "v": 28
    },
    {
      "midi": 63,
      "hit": false,
      "t": 115549.47916666683,
      "d": 1846.3541666666279,
      "v": 37
    },
    {
      "midi": 65,
      "hit": false,
      "t": 115570.31250000016,
      "d": 2263.0208333332994,
      "v": 29
    },
    {
      "midi": 53,
      "hit": false,
      "t": 115591.14583333349,
      "d": 2124.999999999971,
      "v": 35
    },
    {
      "midi": 37,
      "hit": false,
      "t": 115619.79166666682,
      "d": 2122.395833333314,
      "v": 20
    },
    {
      "midi": 61,
      "hit": false,
      "t": 117312.50000000013,
      "d": 617.1875,
      "v": 14
    },
    {
      "midi": 73,
      "hit": false,
      "t": 118812.50000000013,
      "d": 291.66666666665697,
      "v": 15
    },
    {
      "midi": 61,
      "hit": false,
      "t": 118825.52083333346,
      "d": 179.6875,
      "v": 14
    },
    {
      "midi": 49,
      "hit": false,
      "t": 118833.33333333346,
      "d": 270.8333333333285,
      "v": 11
    },
    {
      "midi": 72,
      "hit": false,
      "t": 119138.02083333346,
      "d": 270.8333333333285,
      "v": 31
    },
    {
      "midi": 60,
      "hit": false,
      "t": 119145.83333333346,
      "d": 265.625,
      "v": 23
    },
    {
      "midi": 48,
      "hit": false,
      "t": 119161.45833333346,
      "d": 294.2708333333285,
      "v": 15
    },
    {
      "midi": 72,
      "hit": false,
      "t": 119828.12500000012,
      "d": 101.5625,
      "v": 39
    },
    {
      "midi": 48,
      "hit": false,
      "t": 119859.37500000012,
      "d": 244.79166666665697,
      "v": 21
    },
    {
      "midi": 60,
      "hit": false,
      "t": 119864.58333333344,
      "d": 78.125,
      "v": 7
    },
    {
      "midi": 70,
      "hit": false,
      "t": 120125.0000000001,
      "d": 960.9375000000146,
      "v": 36
    },
    {
      "midi": 58,
      "hit": false,
      "t": 120127.60416666677,
      "d": 992.1875000000146,
      "v": 20
    },
    {
      "midi": 46,
      "hit": false,
      "t": 120140.6250000001,
      "d": 786.4583333333285,
      "v": 23
    },
    {
      "midi": 40,
      "hit": false,
      "t": 120776.04166666676,
      "d": 200.52083333334303,
      "v": 42
    },
    {
      "midi": 41,
      "hit": false,
      "t": 121010.41666666677,
      "d": 335.93750000001455,
      "v": 46
    },
    {
      "midi": 65,
      "hit": false,
      "t": 121020.83333333344,
      "d": 934.895833333343,
      "v": 27
    },
    {
      "midi": 45,
      "hit": false,
      "t": 121216.14583333346,
      "d": 190.10416666665697,
      "v": 41
    },
    {
      "midi": 53,
      "hit": false,
      "t": 121479.16666666679,
      "d": 166.66666666667152,
      "v": 31
    },
    {
      "midi": 41,
      "hit": false,
      "t": 121682.29166666679,
      "d": 203.125,
      "v": 31
    },
    {
      "midi": 42,
      "hit": false,
      "t": 121893.22916666679,
      "d": 333.3333333333285,
      "v": 41
    },
    {
      "midi": 46,
      "hit": false,
      "t": 122101.56250000012,
      "d": 286.4583333333285,
      "v": 36
    },
    {
      "midi": 54,
      "hit": false,
      "t": 122333.33333333344,
      "d": 205.72916666667152,
      "v": 41
    },
    {
      "midi": 77,
      "hit": false,
      "t": 122541.66666666679,
      "d": 299.47916666665697,
      "v": 63
    },
    {
      "midi": 76,
      "hit": false,
      "t": 122773.43750000012,
      "d": 348.9583333333285,
      "v": 59
    },
    {
      "midi": 73,
      "hit": false,
      "t": 123000.00000000012,
      "d": 255.20833333332848,
      "v": 33
    },
    {
      "midi": 64,
      "hit": false,
      "t": 123265.62500000012,
      "d": 130.20833333332848,
      "v": 39
    },
    {
      "midi": 76,
      "hit": false,
      "t": 123468.75000000012,
      "d": 242.1875,
      "v": 45
    },
    {
      "midi": 54,
      "hit": false,
      "t": 123484.37500000012,
      "d": 179.6875,
      "v": 36
    },
    {
      "midi": 75,
      "hit": false,
      "t": 123684.89583333344,
      "d": 312.5,
      "v": 56
    },
    {
      "midi": 55,
      "hit": false,
      "t": 123710.93750000012,
      "d": 218.75,
      "v": 30
    },
    {
      "midi": 73,
      "hit": false,
      "t": 123890.62500000012,
      "d": 473.95833333331393,
      "v": 48
    },
    {
      "midi": 58,
      "hit": false,
      "t": 123898.43750000012,
      "d": 114.58333333332848,
      "v": 29
    },
    {
      "midi": 67,
      "hit": false,
      "t": 124093.75000000012,
      "d": 166.66666666665697,
      "v": 35
    },
    {
      "midi": 63,
      "hit": false,
      "t": 124098.95833333344,
      "d": 130.20833333332848,
      "v": 48
    },
    {
      "midi": 55,
      "hit": false,
      "t": 124312.5000000001,
      "d": 187.49999999998545,
      "v": 53
    },
    {
      "midi": 56,
      "hit": false,
      "t": 124505.20833333342,
      "d": 411.45833333334303,
      "v": 50
    },
    {
      "midi": 60,
      "hit": false,
      "t": 124726.56250000009,
      "d": 221.35416666667152,
      "v": 46
    },
    {
      "midi": 68,
      "hit": false,
      "t": 124942.70833333343,
      "d": 213.54166666665697,
      "v": 33
    },
    {
      "midi": 80,
      "hit": false,
      "t": 125171.87500000009,
      "d": 367.1875,
      "v": 50
    },
    {
      "midi": 78,
      "hit": false,
      "t": 125437.50000000009,
      "d": 382.8125,
      "v": 53
    },
    {
      "midi": 75,
      "hit": false,
      "t": 125679.68750000009,
      "d": 276.04166666665697,
      "v": 47
    },
    {
      "midi": 66,
      "hit": false,
      "t": 125895.83333333342,
      "d": 158.85416666665697,
      "v": 42
    },
    {
      "midi": 44,
      "hit": false,
      "t": 126114.5833333334,
      "d": 263.0208333333285,
      "v": 41
    },
    {
      "midi": 78,
      "hit": false,
      "t": 126130.2083333334,
      "d": 312.5,
      "v": 58
    },
    {
      "midi": 45,
      "hit": false,
      "t": 126372.3958333334,
      "d": 333.33333333334303,
      "v": 43
    },
    {
      "midi": 77,
      "hit": false,
      "t": 126377.60416666673,
      "d": 643.2291666666715,
      "v": 65
    },
    {
      "midi": 75,
      "hit": false,
      "t": 126598.9583333334,
      "d": 239.58333333334303,
      "v": 59
    },
    {
      "midi": 48,
      "hit": false,
      "t": 126601.56250000007,
      "d": 127.60416666667152,
      "v": 40
    },
    {
      "midi": 57,
      "hit": false,
      "t": 126807.29166666674,
      "d": 177.08333333332848,
      "v": 36
    },
    {
      "midi": 65,
      "hit": false,
      "t": 126812.50000000007,
      "d": 156.25,
      "v": 51
    },
    {
      "midi": 45,
      "hit": false,
      "t": 127007.81250000007,
      "d": 210.93749999998545,
      "v": 57
    },
    {
      "midi": 46,
      "hit": false,
      "t": 127213.54166666673,
      "d": 466.1458333333285,
      "v": 52
    },
    {
      "midi": 50,
      "hit": false,
      "t": 127432.29166666673,
      "d": 257.8125,
      "v": 64
    },
    {
      "midi": 58,
      "hit": false,
      "t": 127661.4583333334,
      "d": 208.33333333332848,
      "v": 59
    },
    {
      "midi": 82,
      "hit": false,
      "t": 127872.3958333334,
      "d": 401.0416666666715,
      "v": 69
    },
    {
      "midi": 80,
      "hit": false,
      "t": 128117.18750000007,
      "d": 434.8958333333285,
      "v": 84
    },
    {
      "midi": 58,
      "hit": false,
      "t": 128351.56250000007,
      "d": 234.37499999998545,
      "v": 56
    },
    {
      "midi": 77,
      "hit": false,
      "t": 128356.7708333334,
      "d": 374.99999999998545,
      "v": 76
    },
    {
      "midi": 59,
      "hit": false,
      "t": 128572.91666666673,
      "d": 257.81249999998545,
      "v": 71
    },
    {
      "midi": 68,
      "hit": false,
      "t": 128578.12500000006,
      "d": 252.60416666665697,
      "v": 67
    },
    {
      "midi": 62,
      "hit": false,
      "t": 128794.27083333339,
      "d": 109.37499999998545,
      "v": 76
    },
    {
      "midi": 71,
      "hit": false,
      "t": 129013.02083333337,
      "d": 195.3125,
      "v": 87
    },
    {
      "midi": 82,
      "hit": false,
      "t": 129216.14583333337,
      "d": 343.75000000001455,
      "v": 87
    },
    {
      "midi": 59,
      "hit": false,
      "t": 129234.37500000004,
      "d": 234.37500000001455,
      "v": 65
    },
    {
      "midi": 60,
      "hit": false,
      "t": 129434.89583333339,
      "d": 260.4166666666715,
      "v": 71
    },
    {
      "midi": 80,
      "hit": false,
      "t": 129437.50000000006,
      "d": 286.4583333333285,
      "v": 89
    },
    {
      "midi": 65,
      "hit": false,
      "t": 129656.25000000006,
      "d": 156.25,
      "v": 71
    },
    {
      "midi": 77,
      "hit": false,
      "t": 129666.66666666673,
      "d": 187.5,
      "v": 89
    },
    {
      "midi": 72,
      "hit": false,
      "t": 129885.41666666673,
      "d": 265.625,
      "v": 69
    },
    {
      "midi": 68,
      "hit": false,
      "t": 129901.04166666673,
      "d": 148.4375,
      "v": 69
    },
    {
      "midi": 60,
      "hit": false,
      "t": 130117.18750000006,
      "d": 242.1875,
      "v": 68
    },
    {
      "midi": 61,
      "hit": false,
      "t": 130343.75000000006,
      "d": 307.29166666665697,
      "v": 61
    },
    {
      "midi": 82,
      "hit": false,
      "t": 130622.39583333339,
      "d": 364.5833333333285,
      "v": 58
    },
    {
      "midi": 65,
      "hit": false,
      "t": 130677.08333333339,
      "d": 260.41666666665697,
      "v": 30
    },
    {
      "midi": 80,
      "hit": false,
      "t": 130932.29166666672,
      "d": 304.6875,
      "v": 57
    },
    {
      "midi": 73,
      "hit": false,
      "t": 131013.02083333339,
      "d": 333.3333333333285,
      "v": 9
    },
    {
      "midi": 77,
      "hit": false,
      "t": 131192.70833333337,
      "d": 263.02083333334303,
      "v": 50
    },
    {
      "midi": 71,
      "hit": false,
      "t": 131421.87500000006,
      "d": 148.4375,
      "v": 51
    },
    {
      "midi": 70,
      "hit": false,
      "t": 131614.5833333334,
      "d": 234.375,
      "v": 36
    },
    {
      "midi": 68,
      "hit": false,
      "t": 131854.16666666674,
      "d": 263.02083333334303,
      "v": 39
    },
    {
      "midi": 65,
      "hit": false,
      "t": 132080.72916666674,
      "d": 221.35416666668607,
      "v": 36
    },
    {
      "midi": 59,
      "hit": false,
      "t": 132312.5000000001,
      "d": 208.33333333334303,
      "v": 43
    },
    {
      "midi": 58,
      "hit": false,
      "t": 132497.39583333343,
      "d": 250,
      "v": 44
    },
    {
      "midi": 56,
      "hit": false,
      "t": 132708.33333333343,
      "d": 244.79166666665697,
      "v": 55
    },
    {
      "midi": 53,
      "hit": false,
      "t": 132927.08333333343,
      "d": 231.77083333331393,
      "v": 78
    },
    {
      "midi": 47,
      "hit": false,
      "t": 133117.1875000001,
      "d": 234.375,
      "v": 62
    },
    {
      "midi": 36,
      "hit": false,
      "t": 133317.7083333334,
      "d": 286.45833333337214,
      "v": 68
    },
    {
      "midi": 37,
      "hit": false,
      "t": 133536.45833333343,
      "d": 497.39583333337214,
      "v": 63
    },
    {
      "midi": 44,
      "hit": false,
      "t": 133760.41666666677,
      "d": 244.79166666668607,
      "v": 64
    },
    {
      "midi": 47,
      "hit": false,
      "t": 133968.75000000012,
      "d": 216.14583333337214,
      "v": 60
    },
    {
      "midi": 48,
      "hit": false,
      "t": 134156.25000000015,
      "d": 276.04166666668607,
      "v": 68
    },
    {
      "midi": 49,
      "hit": false,
      "t": 134364.5833333335,
      "d": 257.8125,
      "v": 70
    },
    {
      "midi": 56,
      "hit": false,
      "t": 134572.91666666683,
      "d": 270.83333333331393,
      "v": 68
    },
    {
      "midi": 59,
      "hit": false,
      "t": 134781.25000000015,
      "d": 257.8125,
      "v": 65
    },
    {
      "midi": 60,
      "hit": false,
      "t": 134984.37500000015,
      "d": 239.58333333334303,
      "v": 62
    },
    {
      "midi": 61,
      "hit": false,
      "t": 135203.12500000015,
      "d": 458.33333333334303,
      "v": 59
    },
    {
      "midi": 68,
      "hit": false,
      "t": 135468.75000000017,
      "d": 210.9374999999709,
      "v": 31
    },
    {
      "midi": 71,
      "hit": false,
      "t": 135635.41666666683,
      "d": 302.08333333331393,
      "v": 58
    },
    {
      "midi": 80,
      "hit": false,
      "t": 135880.2083333335,
      "d": 348.95833333334303,
      "v": 62
    },
    {
      "midi": 79,
      "hit": false,
      "t": 136151.04166666683,
      "d": 302.08333333331393,
      "v": 58
    },
    {
      "midi": 76,
      "hit": false,
      "t": 136395.8333333335,
      "d": 268.22916666665697,
      "v": 42
    },
    {
      "midi": 70,
      "hit": false,
      "t": 136617.18750000015,
      "d": 239.58333333334303,
      "v": 33
    },
    {
      "midi": 68,
      "hit": false,
      "t": 136841.1458333335,
      "d": 210.9375,
      "v": 31
    },
    {
      "midi": 67,
      "hit": false,
      "t": 137072.91666666683,
      "d": 210.9375,
      "v": 34
    },
    {
      "midi": 64,
      "hit": false,
      "t": 137304.68750000017,
      "d": 190.10416666665697,
      "v": 40
    },
    {
      "midi": 58,
      "hit": false,
      "t": 137520.8333333335,
      "d": 263.02083333334303,
      "v": 29
    },
    {
      "midi": 56,
      "hit": false,
      "t": 137697.91666666683,
      "d": 213.54166666665697,
      "v": 41
    },
    {
      "midi": 55,
      "hit": false,
      "t": 137937.50000000015,
      "d": 226.5625,
      "v": 42
    },
    {
      "midi": 52,
      "hit": false,
      "t": 138145.8333333335,
      "d": 330.72916666665697,
      "v": 56
    },
    {
      "midi": 46,
      "hit": false,
      "t": 138364.5833333335,
      "d": 242.1875,
      "v": 35
    },
    {
      "midi": 35,
      "hit": false,
      "t": 138591.1458333335,
      "d": 304.6875,
      "v": 56
    },
    {
      "midi": 36,
      "hit": false,
      "t": 138833.3333333335,
      "d": 315.10416666665697,
      "v": 49
    },
    {
      "midi": 43,
      "hit": false,
      "t": 139085.93750000015,
      "d": 234.375,
      "v": 52
    },
    {
      "midi": 46,
      "hit": false,
      "t": 139335.93750000015,
      "d": 125,
      "v": 58
    },
    {
      "midi": 47,
      "hit": false,
      "t": 139541.6666666668,
      "d": 145.83333333334303,
      "v": 64
    },
    {
      "midi": 48,
      "hit": false,
      "t": 139760.4166666668,
      "d": 156.25,
      "v": 70
    },
    {
      "midi": 55,
      "hit": false,
      "t": 139973.95833333346,
      "d": 239.58333333331393,
      "v": 78
    },
    {
      "midi": 58,
      "hit": false,
      "t": 140187.50000000012,
      "d": 135.41666666665697,
      "v": 64
    },
    {
      "midi": 59,
      "hit": false,
      "t": 140403.64583333343,
      "d": 403.64583333334303,
      "v": 73
    },
    {
      "midi": 60,
      "hit": false,
      "t": 140627.60416666677,
      "d": 283.85416666668607,
      "v": 76
    },
    {
      "midi": 67,
      "hit": false,
      "t": 140867.18750000012,
      "d": 320.3125,
      "v": 79
    },
    {
      "midi": 85,
      "hit": false,
      "t": 141187.50000000012,
      "d": 572.916666666657,
      "v": 92
    },
    {
      "midi": 82,
      "hit": false,
      "t": 141210.93750000012,
      "d": 809.8958333333139,
      "v": 51
    },
    {
      "midi": 76,
      "hit": false,
      "t": 141210.93750000012,
      "d": 872.3958333333139,
      "v": 51
    },
    {
      "midi": 79,
      "hit": false,
      "t": 141210.93750000012,
      "d": 947.916666666657,
      "v": 59
    },
    {
      "midi": 70,
      "hit": false,
      "t": 141231.77083333346,
      "d": 312.4999999999709,
      "v": 32
    },
    {
      "midi": 84,
      "hit": false,
      "t": 141677.08333333343,
      "d": 411.45833333334303,
      "v": 92
    },
    {
      "midi": 67,
      "hit": false,
      "t": 142117.18750000012,
      "d": 703.125,
      "v": 59
    },
    {
      "midi": 59,
      "hit": false,
      "t": 142125.00000000012,
      "d": 484.375,
      "v": 67
    },
    {
      "midi": 64,
      "hit": false,
      "t": 142127.60416666677,
      "d": 843.75,
      "v": 52
    },
    {
      "midi": 60,
      "hit": false,
      "t": 142562.50000000012,
      "d": 390.625,
      "v": 73
    },
    {
      "midi": 73,
      "hit": false,
      "t": 143000.00000000012,
      "d": 627.604166666657,
      "v": 76
    },
    {
      "midi": 70,
      "hit": false,
      "t": 143007.81250000012,
      "d": 1015.625,
      "v": 52
    },
    {
      "midi": 63,
      "hit": false,
      "t": 143018.22916666677,
      "d": 1023.4375,
      "v": 56
    },
    {
      "midi": 66,
      "hit": false,
      "t": 143023.43750000012,
      "d": 1070.312499999971,
      "v": 39
    },
    {
      "midi": 72,
      "hit": false,
      "t": 143549.47916666677,
      "d": 419.27083333334303,
      "v": 56
    },
    {
      "midi": 47,
      "hit": false,
      "t": 144044.27083333343,
      "d": 497.39583333334303,
      "v": 43
    },
    {
      "midi": 54,
      "hit": false,
      "t": 144052.08333333343,
      "d": 705.7291666666861,
      "v": 47
    },
    {
      "midi": 51,
      "hit": false,
      "t": 144067.70833333343,
      "d": 755.208333333343,
      "v": 37
    },
    {
      "midi": 48,
      "hit": false,
      "t": 144541.66666666677,
      "d": 395.83333333334303,
      "v": 45
    },
    {
      "midi": 61,
      "hit": false,
      "t": 145140.62500000012,
      "d": 674.4791666666861,
      "v": 42
    },
    {
      "midi": 57,
      "hit": false,
      "t": 145153.64583333346,
      "d": 3354.166666666686,
      "v": 30
    },
    {
      "midi": 51,
      "hit": false,
      "t": 145164.06250000012,
      "d": 3351.562500000029,
      "v": 24
    },
    {
      "midi": 53,
      "hit": false,
      "t": 145177.08333333346,
      "d": 2804.687500000029,
      "v": 34
    },
    {
      "midi": 60,
      "hit": false,
      "t": 145906.25000000015,
      "d": 2578.125,
      "v": 38
    },
    {
      "midi": 28,
      "hit": false,
      "t": 146515.62500000015,
      "d": 770.833333333343,
      "v": 23
    },
    {
      "midi": 29,
      "hit": false,
      "t": 147315.10416666683,
      "d": 994.791666666657,
      "v": 32
    },
    {
      "midi": 41,
      "hit": false,
      "t": 148453.12500000015,
      "d": 91.14583333334303,
      "v": 36
    },
    {
      "midi": 45,
      "hit": false,
      "t": 149041.66666666683,
      "d": 359.375,
      "v": 23
    },
    {
      "midi": 48,
      "hit": false,
      "t": 149416.66666666683,
      "d": 208.33333333334303,
      "v": 19
    },
    {
      "midi": 51,
      "hit": false,
      "t": 149765.62500000017,
      "d": 226.5625,
      "v": 21
    },
    {
      "midi": 85,
      "hit": false,
      "t": 149765.62500000017,
      "d": 325.52083333331393,
      "v": 34
    },
    {
      "midi": 75,
      "hit": false,
      "t": 150080.72916666683,
      "d": 132.8124999999709,
      "v": 29
    },
    {
      "midi": 54,
      "hit": false,
      "t": 150109.37500000015,
      "d": 138.02083333331393,
      "v": 22
    },
    {
      "midi": 84,
      "hit": false,
      "t": 150354.1666666668,
      "d": 257.8125,
      "v": 65
    },
    {
      "midi": 57,
      "hit": false,
      "t": 150369.7916666668,
      "d": 80.72916666665697,
      "v": 22
    },
    {
      "midi": 78,
      "hit": false,
      "t": 150614.58333333346,
      "d": 312.4999999999709,
      "v": 40
    },
    {
      "midi": 60,
      "hit": false,
      "t": 150648.43750000012,
      "d": 111.97916666665697,
      "v": 15
    },
    {
      "midi": 66,
      "hit": false,
      "t": 150854.16666666677,
      "d": 192.70833333331393,
      "v": 17
    },
    {
      "midi": 82,
      "hit": false,
      "t": 150854.16666666677,
      "d": 244.79166666665697,
      "v": 60
    },
    {
      "midi": 63,
      "hit": false,
      "t": 151093.7500000001,
      "d": 65.10416666665697,
      "v": 39
    },
    {
      "midi": 72,
      "hit": false,
      "t": 151109.3750000001,
      "d": 197.91666666665697,
      "v": 33
    },
    {
      "midi": 54,
      "hit": false,
      "t": 151302.0833333334,
      "d": 161.45833333334303,
      "v": 41
    },
    {
      "midi": 81,
      "hit": false,
      "t": 151307.29166666674,
      "d": 375,
      "v": 61
    },
    {
      "midi": 75,
      "hit": false,
      "t": 151510.41666666674,
      "d": 346.35416666665697,
      "v": 47
    },
    {
      "midi": 57,
      "hit": false,
      "t": 151554.6875000001,
      "d": 93.75,
      "v": 15
    },
    {
      "midi": 80,
      "hit": false,
      "t": 151708.3333333334,
      "d": 182.29166666665697,
      "v": 68
    },
    {
      "midi": 63,
      "hit": false,
      "t": 151718.75000000006,
      "d": 427.08333333334303,
      "v": 29
    },
    {
      "midi": 69,
      "hit": false,
      "t": 151934.8958333334,
      "d": 244.79166666665697,
      "v": 40
    },
    {
      "midi": 60,
      "hit": false,
      "t": 151942.7083333334,
      "d": 78.125,
      "v": 21
    },
    {
      "midi": 78,
      "hit": false,
      "t": 152130.2083333334,
      "d": 234.375,
      "v": 59
    },
    {
      "midi": 51,
      "hit": false,
      "t": 152135.41666666674,
      "d": 260.41666666665697,
      "v": 43
    },
    {
      "midi": 54,
      "hit": false,
      "t": 152328.12500000006,
      "d": 70.3125,
      "v": 53
    },
    {
      "midi": 72,
      "hit": false,
      "t": 152356.7708333334,
      "d": 236.97916666665697,
      "v": 37
    },
    {
      "midi": 77,
      "hit": false,
      "t": 152536.4583333334,
      "d": 518.229166666657,
      "v": 63
    },
    {
      "midi": 60,
      "hit": false,
      "t": 152539.06250000006,
      "d": 205.72916666665697,
      "v": 39
    },
    {
      "midi": 66,
      "hit": false,
      "t": 152736.97916666672,
      "d": 169.27083333334303,
      "v": 40
    },
    {
      "midi": 57,
      "hit": false,
      "t": 152757.81250000006,
      "d": 65.10416666665697,
      "v": 30
    },
    {
      "midi": 75,
      "hit": false,
      "t": 152966.1458333334,
      "d": 434.89583333331393,
      "v": 52
    },
    {
      "midi": 48,
      "hit": false,
      "t": 152984.37500000006,
      "d": 630.2083333333139,
      "v": 28
    },
    {
      "midi": 51,
      "hit": false,
      "t": 153166.66666666672,
      "d": 221.35416666665697,
      "v": 36
    },
    {
      "midi": 69,
      "hit": false,
      "t": 153205.72916666672,
      "d": 197.91666666665697,
      "v": 37
    },
    {
      "midi": 57,
      "hit": false,
      "t": 153406.25000000003,
      "d": 192.70833333334303,
      "v": 32
    },
    {
      "midi": 54,
      "hit": false,
      "t": 153630.20833333337,
      "d": 213.54166666665697,
      "v": 51
    },
    {
      "midi": 51,
      "hit": false,
      "t": 153854.1666666667,
      "d": 192.70833333334303,
      "v": 51
    },
    {
      "midi": 48,
      "hit": false,
      "t": 154093.75000000003,
      "d": 216.14583333334303,
      "v": 42
    },
    {
      "midi": 73,
      "hit": false,
      "t": 154343.75000000006,
      "d": 447.9166666667152,
      "v": 40
    },
    {
      "midi": 45,
      "hit": false,
      "t": 154348.9583333334,
      "d": 236.97916666665697,
      "v": 32
    },
    {
      "midi": 42,
      "hit": false,
      "t": 154598.9583333334,
      "d": 276.0416666667152,
      "v": 35
    },
    {
      "midi": 63,
      "hit": false,
      "t": 154617.1875000001,
      "d": 278.64583333337214,
      "v": 30
    },
    {
      "midi": 72,
      "hit": false,
      "t": 154947.9166666668,
      "d": 385.41666666665697,
      "v": 27
    },
    {
      "midi": 39,
      "hit": false,
      "t": 154958.33333333346,
      "d": 450.52083333334303,
      "v": 18
    },
    {
      "midi": 45,
      "hit": false,
      "t": 155307.2916666668,
      "d": 437.5,
      "v": 20
    },
    {
      "midi": 66,
      "hit": false,
      "t": 155315.1041666668,
      "d": 911.458333333343,
      "v": 10
    },
    {
      "midi": 54,
      "hit": false,
      "t": 155846.3541666668,
      "d": 424.47916666668607,
      "v": 18
    },
    {
      "midi": 73,
      "hit": false,
      "t": 157414.06250000015,
      "d": 424.47916666668607,
      "v": 52
    },
    {
      "midi": 39,
      "hit": false,
      "t": 157421.87500000015,
      "d": 447.91666666668607,
      "v": 19
    },
    {
      "midi": 44,
      "hit": false,
      "t": 157822.91666666683,
      "d": 911.458333333343,
      "v": 20
    },
    {
      "midi": 65,
      "hit": false,
      "t": 157841.1458333335,
      "d": 437.5,
      "v": 28
    },
    {
      "midi": 71,
      "hit": false,
      "t": 158325.5208333335,
      "d": 479.16666666668607,
      "v": 53
    },
    {
      "midi": 53,
      "hit": false,
      "t": 158377.60416666683,
      "d": 359.375,
      "v": 33
    },
    {
      "midi": 68,
      "hit": false,
      "t": 158752.60416666683,
      "d": 216.14583333334303,
      "v": 30
    },
    {
      "midi": 59,
      "hit": false,
      "t": 159023.43750000017,
      "d": 80.72916666665697,
      "v": 31
    },
    {
      "midi": 71,
      "hit": false,
      "t": 159270.8333333335,
      "d": 333.33333333331393,
      "v": 54
    },
    {
      "midi": 70,
      "hit": false,
      "t": 159601.56250000015,
      "d": 1158.854166666657,
      "v": 44
    },
    {
      "midi": 38,
      "hit": false,
      "t": 159635.4166666668,
      "d": 322.91666666665697,
      "v": 23
    },
    {
      "midi": 68,
      "hit": false,
      "t": 159893.2291666668,
      "d": 567.7083333333139,
      "v": 32
    },
    {
      "midi": 58,
      "hit": false,
      "t": 160104.1666666668,
      "d": 135.41666666665697,
      "v": 31
    },
    {
      "midi": 52,
      "hit": false,
      "t": 160364.58333333346,
      "d": 158.85416666665697,
      "v": 37
    },
    {
      "midi": 53,
      "hit": false,
      "t": 160575.52083333346,
      "d": 177.08333333334303,
      "v": 58
    },
    {
      "midi": 56,
      "hit": false,
      "t": 160781.25000000015,
      "d": 72.91666666665697,
      "v": 41
    },
    {
      "midi": 65,
      "hit": false,
      "t": 161015.62500000015,
      "d": 59.895833333343035,
      "v": 54
    },
    {
      "midi": 70,
      "hit": false,
      "t": 161218.75000000015,
      "d": 341.14583333334303,
      "v": 62
    },
    {
      "midi": 71,
      "hit": false,
      "t": 161458.3333333335,
      "d": 536.458333333343,
      "v": 78
    },
    {
      "midi": 39,
      "hit": false,
      "t": 161460.93750000015,
      "d": 453.1250000000291,
      "v": 25
    },
    {
      "midi": 68,
      "hit": false,
      "t": 161666.66666666683,
      "d": 260.41666666668607,
      "v": 49
    },
    {
      "midi": 59,
      "hit": false,
      "t": 161901.04166666683,
      "d": 44.270833333343035,
      "v": 54
    },
    {
      "midi": 71,
      "hit": false,
      "t": 162085.93750000017,
      "d": 289.0625,
      "v": 74
    },
    {
      "midi": 77,
      "hit": false,
      "t": 162325.52083333352,
      "d": 1252.604166666686,
      "v": 67
    },
    {
      "midi": 38,
      "hit": false,
      "t": 162343.75000000017,
      "d": 221.35416666665697,
      "v": 33
    },
    {
      "midi": 68,
      "hit": false,
      "t": 162531.25000000017,
      "d": 236.97916666665697,
      "v": 32
    },
    {
      "midi": 65,
      "hit": false,
      "t": 162731.7708333335,
      "d": 98.95833333334303,
      "v": 47
    },
    {
      "midi": 57,
      "hit": false,
      "t": 162968.75000000017,
      "d": 145.83333333334303,
      "v": 60
    },
    {
      "midi": 58,
      "hit": false,
      "t": 163166.66666666686,
      "d": 450.52083333331393,
      "v": 43
    },
    {
      "midi": 65,
      "hit": false,
      "t": 163385.41666666686,
      "d": 203.125,
      "v": 59
    },
    {
      "midi": 70,
      "hit": false,
      "t": 163598.95833333352,
      "d": 109.375,
      "v": 67
    },
    {
      "midi": 77,
      "hit": false,
      "t": 163828.12500000017,
      "d": 367.1875,
      "v": 93
    },
    {
      "midi": 80,
      "hit": false,
      "t": 164101.56250000017,
      "d": 466.14583333334303,
      "v": 82
    },
    {
      "midi": 34,
      "hit": false,
      "t": 164119.79166666683,
      "d": 523.4375,
      "v": 52
    },
    {
      "midi": 74,
      "hit": false,
      "t": 164375.00000000017,
      "d": 273.4375,
      "v": 55
    },
    {
      "midi": 68,
      "hit": false,
      "t": 164593.75000000017,
      "d": 197.91666666665697,
      "v": 44
    },
    {
      "midi": 80,
      "hit": false,
      "t": 164807.29166666683,
      "d": 307.29166666668607,
      "v": 76
    },
    {
      "midi": 78,
      "hit": false,
      "t": 165039.06250000017,
      "d": 1505.208333333314,
      "v": 70
    },
    {
      "midi": 39,
      "hit": false,
      "t": 165049.47916666683,
      "d": 317.70833333334303,
      "v": 35
    },
    {
      "midi": 75,
      "hit": false,
      "t": 165273.43750000017,
      "d": 265.625,
      "v": 41
    },
    {
      "midi": 66,
      "hit": false,
      "t": 165528.64583333352,
      "d": 130.20833333331393,
      "v": 29
    },
    {
      "midi": 57,
      "hit": false,
      "t": 165760.41666666683,
      "d": 93.75,
      "v": 28
    },
    {
      "midi": 58,
      "hit": false,
      "t": 165997.3958333335,
      "d": 484.375,
      "v": 18
    },
    {
      "midi": 61,
      "hit": false,
      "t": 166208.3333333335,
      "d": 385.41666666665697,
      "v": 33
    },
    {
      "midi": 70,
      "hit": false,
      "t": 166460.93750000015,
      "d": 65.10416666668607,
      "v": 35
    },
    {
      "midi": 73,
      "hit": false,
      "t": 166729.1666666668,
      "d": 460.9375,
      "v": 55
    },
    {
      "midi": 78,
      "hit": false,
      "t": 167106.77083333346,
      "d": 507.8125000000291,
      "v": 53
    },
    {
      "midi": 32,
      "hit": false,
      "t": 167114.58333333346,
      "d": 520.8333333333721,
      "v": 24
    },
    {
      "midi": 72,
      "hit": false,
      "t": 167416.6666666668,
      "d": 122.39583333334303,
      "v": 26
    },
    {
      "midi": 66,
      "hit": false,
      "t": 167658.85416666683,
      "d": 91.14583333334303,
      "v": 27
    },
    {
      "midi": 78,
      "hit": false,
      "t": 167908.85416666683,
      "d": 283.85416666665697,
      "v": 32
    },
    {
      "midi": 77,
      "hit": false,
      "t": 168195.31250000015,
      "d": 950.5208333333139,
      "v": 33
    },
    {
      "midi": 37,
      "hit": false,
      "t": 168205.7291666668,
      "d": 304.6874999999709,
      "v": 20
    },
    {
      "midi": 72,
      "hit": false,
      "t": 168492.18750000012,
      "d": 367.1875,
      "v": 11
    },
    {
      "midi": 65,
      "hit": false,
      "t": 168692.70833333343,
      "d": 153.64583333334303,
      "v": 19
    },
    {
      "midi": 55,
      "hit": false,
      "t": 168934.89583333346,
      "d": 98.95833333334303,
      "v": 17
    },
    {
      "midi": 56,
      "hit": false,
      "t": 169114.58333333346,
      "d": 453.125,
      "v": 30
    },
    {
      "midi": 60,
      "hit": false,
      "t": 169377.6041666668,
      "d": 236.97916666665697,
      "v": 16
    },
    {
      "midi": 68,
      "hit": false,
      "t": 169596.3541666668,
      "d": 98.95833333331393,
      "v": 29
    },
    {
      "midi": 56,
      "hit": false,
      "t": 169726.56250000012,
      "d": 85.9375,
      "v": 15
    },
    {
      "midi": 72,
      "hit": false,
      "t": 169945.31250000012,
      "d": 398.4375,
      "v": 54
    },
    {
      "midi": 77,
      "hit": false,
      "t": 170270.83333333346,
      "d": 377.60416666665697,
      "v": 55
    },
    {
      "midi": 30,
      "hit": false,
      "t": 170278.64583333346,
      "d": 427.08333333331393,
      "v": 30
    },
    {
      "midi": 70,
      "hit": false,
      "t": 170518.22916666677,
      "d": 356.77083333331393,
      "v": 34
    },
    {
      "midi": 65,
      "hit": false,
      "t": 170739.58333333343,
      "d": 96.35416666665697,
      "v": 50
    },
    {
      "midi": 77,
      "hit": false,
      "t": 170950.52083333343,
      "d": 299.47916666665697,
      "v": 70
    },
    {
      "midi": 75,
      "hit": false,
      "t": 171203.1250000001,
      "d": 515.625,
      "v": 57
    },
    {
      "midi": 36,
      "hit": false,
      "t": 171226.5625000001,
      "d": 455.72916666668607,
      "v": 31
    },
    {
      "midi": 70,
      "hit": false,
      "t": 171442.70833333343,
      "d": 187.5,
      "v": 26
    },
    {
      "midi": 63,
      "hit": false,
      "t": 171622.39583333343,
      "d": 70.3125,
      "v": 43
    },
    {
      "midi": 73,
      "hit": false,
      "t": 171822.91666666674,
      "d": 226.5625,
      "v": 44
    },
    {
      "midi": 72,
      "hit": false,
      "t": 172033.85416666674,
      "d": 1268.229166666657,
      "v": 46
    },
    {
      "midi": 39,
      "hit": false,
      "t": 172049.47916666674,
      "d": 250.0000000000291,
      "v": 22
    },
    {
      "midi": 66,
      "hit": false,
      "t": 172255.20833333343,
      "d": 388.02083333334303,
      "v": 25
    },
    {
      "midi": 60,
      "hit": false,
      "t": 172447.91666666677,
      "d": 114.58333333334303,
      "v": 41
    },
    {
      "midi": 53,
      "hit": false,
      "t": 172682.29166666677,
      "d": 174.47916666665697,
      "v": 52
    },
    {
      "midi": 54,
      "hit": false,
      "t": 172890.6250000001,
      "d": 348.95833333331393,
      "v": 53
    },
    {
      "midi": 58,
      "hit": false,
      "t": 173111.97916666674,
      "d": 208.33333333331393,
      "v": 41
    },
    {
      "midi": 66,
      "hit": false,
      "t": 173364.5833333334,
      "d": 104.16666666665697,
      "v": 49
    },
    {
      "midi": 77,
      "hit": false,
      "t": 173638.0208333334,
      "d": 374.9999999999709,
      "v": 78
    },
    {
      "midi": 75,
      "hit": false,
      "t": 173953.12500000006,
      "d": 697.916666666657,
      "v": 72
    },
    {
      "midi": 29,
      "hit": false,
      "t": 173994.79166666672,
      "d": 1127.604166666657,
      "v": 40
    },
    {
      "midi": 69,
      "hit": false,
      "t": 174257.81250000006,
      "d": 231.77083333331393,
      "v": 29
    },
    {
      "midi": 63,
      "hit": false,
      "t": 174479.16666666672,
      "d": 85.9375,
      "v": 38
    },
    {
      "midi": 73,
      "hit": false,
      "t": 174705.72916666672,
      "d": 304.6875,
      "v": 41
    },
    {
      "midi": 72,
      "hit": false,
      "t": 174989.58333333337,
      "d": 744.791666666657,
      "v": 35
    },
    {
      "midi": 41,
      "hit": false,
      "t": 175028.64583333337,
      "d": 210.9375,
      "v": 26
    },
    {
      "midi": 69,
      "hit": false,
      "t": 175236.97916666672,
      "d": 257.8124999999709,
      "v": 15
    },
    {
      "midi": 63,
      "hit": false,
      "t": 175437.50000000003,
      "d": 88.54166666665697,
      "v": 30
    },
    {
      "midi": 52,
      "hit": false,
      "t": 175682.2916666667,
      "d": 229.16666666668607,
      "v": 19
    },
    {
      "midi": 53,
      "hit": false,
      "t": 175942.70833333337,
      "d": 234.375,
      "v": 52
    },
    {
      "midi": 57,
      "hit": false,
      "t": 176182.29166666672,
      "d": 151.04166666665697,
      "v": 41
    },
    {
      "midi": 65,
      "hit": false,
      "t": 176455.72916666672,
      "d": 49.479166666656965,
      "v": 48
    },
    {
      "midi": 78,
      "hit": false,
      "t": 176721.35416666672,
      "d": 307.29166666665697,
      "v": 81
    },
    {
      "midi": 77,
      "hit": false,
      "t": 177098.95833333337,
      "d": 575.5208333333139,
      "v": 87
    },
    {
      "midi": 72,
      "hit": false,
      "t": 177351.56250000003,
      "d": 203.125,
      "v": 47
    },
    {
      "midi": 69,
      "hit": false,
      "t": 177536.45833333337,
      "d": 229.16666666665697,
      "v": 39
    },
    {
      "midi": 65,
      "hit": false,
      "t": 177765.62500000003,
      "d": 65.10416666665697,
      "v": 41
    },
    {
      "midi": 76,
      "hit": false,
      "t": 177955.7291666667,
      "d": 651.041666666657,
      "v": 84
    },
    {
      "midi": 72,
      "hit": false,
      "t": 178177.08333333334,
      "d": 195.3125,
      "v": 48
    },
    {
      "midi": 69,
      "hit": false,
      "t": 178364.58333333334,
      "d": 166.66666666665697,
      "v": 37
    },
    {
      "midi": 65,
      "hit": false,
      "t": 178598.95833333334,
      "d": 67.70833333334303,
      "v": 36
    },
    {
      "midi": 75,
      "hit": false,
      "t": 178802.08333333334,
      "d": 674.479166666657,
      "v": 73
    },
    {
      "midi": 72,
      "hit": false,
      "t": 179039.0625,
      "d": 195.3125,
      "v": 48
    },
    {
      "midi": 69,
      "hit": false,
      "t": 179236.97916666666,
      "d": 125,
      "v": 33
    },
    {
      "midi": 65,
      "hit": false,
      "t": 179479.16666666666,
      "d": 83.33333333334303,
      "v": 39
    },
    {
      "midi": 73,
      "hit": false,
      "t": 179750,
      "d": 3132.812499999971,
      "v": 68
    },
    {
      "midi": 69,
      "hit": false,
      "t": 180031.25,
      "d": 2486.979166666657,
      "v": 29
    },
    {
      "midi": 66,
      "hit": false,
      "t": 180281.25,
      "d": 838.541666666657,
      "v": 25
    },
    {
      "midi": 61,
      "hit": false,
      "t": 180502.60416666666,
      "d": 1096.354166666657,
      "v": 40
    },
    {
      "midi": 57,
      "hit": false,
      "t": 180747.3958333333,
      "d": 203.125,
      "v": 29
    },
    {
      "midi": 54,
      "hit": false,
      "t": 180966.1458333333,
      "d": 148.4375,
      "v": 44
    },
    {
      "midi": 49,
      "hit": false,
      "t": 181177.0833333333,
      "d": 54.6875,
      "v": 39
    },
    {
      "midi": 45,
      "hit": false,
      "t": 181367.18749999997,
      "d": 117.1875,
      "v": 36
    },
    {
      "midi": 42,
      "hit": false,
      "t": 181604.16666666666,
      "d": 166.66666666665697,
      "v": 36
    },
    {
      "midi": 37,
      "hit": false,
      "t": 181822.91666666666,
      "d": 46.875,
      "v": 47
    },
    {
      "midi": 33,
      "hit": false,
      "t": 182052.0833333333,
      "d": 125,
      "v": 39
    },
    {
      "midi": 30,
      "hit": false,
      "t": 182335.93749999997,
      "d": 145.83333333334303,
      "v": 41
    },
    {
      "midi": 27,
      "hit": false,
      "t": 182721.35416666666,
      "d": 580.7291666666279,
      "v": 46
    },
    {
      "midi": 85,
      "hit": false,
      "t": 183119.79166666663,
      "d": 174.47916666665697,
      "v": 39
    },
    {
      "midi": 39,
      "hit": false,
      "t": 183479.16666666663,
      "d": 231.77083333334303,
      "v": 27
    },
    {
      "midi": 83,
      "hit": false,
      "t": 183494.79166666663,
      "d": 98.95833333334303,
      "v": 72
    },
    {
      "midi": 81,
      "hit": false,
      "t": 183812.49999999997,
      "d": 309.89583333334303,
      "v": 54
    },
    {
      "midi": 42,
      "hit": false,
      "t": 183835.93749999997,
      "d": 153.64583333334303,
      "v": 22
    },
    {
      "midi": 80,
      "hit": false,
      "t": 184085.93749999997,
      "d": 289.0625,
      "v": 53
    },
    {
      "midi": 45,
      "hit": false,
      "t": 184114.5833333333,
      "d": 140.625,
      "v": 25
    },
    {
      "midi": 78,
      "hit": false,
      "t": 184312.49999999997,
      "d": 239.58333333331393,
      "v": 58
    },
    {
      "midi": 51,
      "hit": false,
      "t": 184335.93749999997,
      "d": 111.97916666665697,
      "v": 31
    },
    {
      "midi": 54,
      "hit": false,
      "t": 184554.68749999994,
      "d": 72.91666666665697,
      "v": 46
    },
    {
      "midi": 75,
      "hit": false,
      "t": 184562.49999999994,
      "d": 169.27083333331393,
      "v": 48
    },
    {
      "midi": 73,
      "hit": false,
      "t": 184843.7499999999,
      "d": 338.54166666665697,
      "v": 54
    },
    {
      "midi": 57,
      "hit": false,
      "t": 184859.3749999999,
      "d": 57.291666666656965,
      "v": 40
    },
    {
      "midi": 72,
      "hit": false,
      "t": 185229.16666666657,
      "d": 419.27083333331393,
      "v": 57
    },
    {
      "midi": 39,
      "hit": false,
      "t": 185239.58333333323,
      "d": 645.833333333343,
      "v": 30
    },
    {
      "midi": 66,
      "hit": false,
      "t": 185539.06249999988,
      "d": 471.35416666668607,
      "v": 27
    },
    {
      "midi": 60,
      "hit": false,
      "t": 185763.02083333323,
      "d": 143.22916666668607,
      "v": 34
    },
    {
      "midi": 72,
      "hit": false,
      "t": 185960.9374999999,
      "d": 257.8125,
      "v": 46
    },
    {
      "midi": 37,
      "hit": false,
      "t": 186203.1249999999,
      "d": 257.8125,
      "v": 24
    },
    {
      "midi": 70,
      "hit": false,
      "t": 186208.33333333326,
      "d": 1218.749999999971,
      "v": 41
    },
    {
      "midi": 65,
      "hit": false,
      "t": 186471.35416666657,
      "d": 151.04166666665697,
      "v": 22
    },
    {
      "midi": 58,
      "hit": false,
      "t": 186661.45833333323,
      "d": 98.95833333334303,
      "v": 20
    },
    {
      "midi": 52,
      "hit": false,
      "t": 186927.08333333323,
      "d": 164.0625,
      "v": 36
    },
    {
      "midi": 53,
      "hit": false,
      "t": 187138.02083333323,
      "d": 190.10416666665697,
      "v": 56
    },
    {
      "midi": 58,
      "hit": false,
      "t": 187325.52083333323,
      "d": 132.8125,
      "v": 44
    },
    {
      "midi": 65,
      "hit": false,
      "t": 187499.99999999988,
      "d": 132.8125,
      "v": 37
    },
    {
      "midi": 70,
      "hit": false,
      "t": 187760.41666666654,
      "d": 315.10416666665697,
      "v": 60
    },
    {
      "midi": 73,
      "hit": false,
      "t": 188013.0208333332,
      "d": 322.91666666665697,
      "v": 62
    },
    {
      "midi": 40,
      "hit": false,
      "t": 188020.8333333332,
      "d": 416.66666666665697,
      "v": 54
    },
    {
      "midi": 66,
      "hit": false,
      "t": 188294.2708333332,
      "d": 226.5625,
      "v": 21
    },
    {
      "midi": 58,
      "hit": false,
      "t": 188466.1458333332,
      "d": 59.895833333343035,
      "v": 48
    },
    {
      "midi": 73,
      "hit": false,
      "t": 188664.06249999988,
      "d": 276.04166666668607,
      "v": 66
    },
    {
      "midi": 39,
      "hit": false,
      "t": 188880.20833333323,
      "d": 265.625,
      "v": 41
    },
    {
      "midi": 78,
      "hit": false,
      "t": 188880.20833333323,
      "d": 992.1875000000582,
      "v": 67
    },
    {
      "midi": 71,
      "hit": false,
      "t": 189104.16666666657,
      "d": 138.02083333334303,
      "v": 55
    },
    {
      "midi": 66,
      "hit": false,
      "t": 189294.27083333326,
      "d": 132.8125,
      "v": 37
    },
    {
      "midi": 53,
      "hit": false,
      "t": 189505.20833333326,
      "d": 98.95833333334303,
      "v": 64
    },
    {
      "midi": 54,
      "hit": false,
      "t": 189703.12499999994,
      "d": 255.20833333334303,
      "v": 52
    },
    {
      "midi": 59,
      "hit": false,
      "t": 189924.47916666663,
      "d": 143.22916666665697,
      "v": 51
    },
    {
      "midi": 66,
      "hit": false,
      "t": 190140.62499999994,
      "d": 57.291666666656965,
      "v": 55
    },
    {
      "midi": 75,
      "hit": false,
      "t": 190333.33333333326,
      "d": 278.64583333331393,
      "v": 72
    },
    {
      "midi": 40,
      "hit": false,
      "t": 190559.89583333326,
      "d": 304.6875,
      "v": 59
    },
    {
      "midi": 73,
      "hit": false,
      "t": 190562.4999999999,
      "d": 239.58333333334303,
      "v": 69
    },
    {
      "midi": 67,
      "hit": false,
      "t": 190794.27083333326,
      "d": 49.479166666656965,
      "v": 55
    },
    {
      "midi": 58,
      "hit": false,
      "t": 190953.1249999999,
      "d": 62.5,
      "v": 59
    },
    {
      "midi": 73,
      "hit": false,
      "t": 191117.1874999999,
      "d": 127.60416666665697,
      "v": 80
    },
    {
      "midi": 39,
      "hit": false,
      "t": 191333.33333333323,
      "d": 210.9374999999709,
      "v": 53
    },
    {
      "midi": 71,
      "hit": false,
      "t": 191341.14583333323,
      "d": 1065.1041666666279,
      "v": 91
    },
    {
      "midi": 66,
      "hit": false,
      "t": 191526.04166666654,
      "d": 382.8125,
      "v": 53
    },
    {
      "midi": 59,
      "hit": false,
      "t": 191736.97916666654,
      "d": 106.77083333334303,
      "v": 64
    },
    {
      "midi": 68,
      "hit": false,
      "t": 191768.22916666654,
      "d": 140.625,
      "v": 11
    },
    {
      "midi": 53,
      "hit": false,
      "t": 191924.47916666654,
      "d": 174.47916666665697,
      "v": 78
    },
    {
      "midi": 54,
      "hit": false,
      "t": 192124.99999999985,
      "d": 250,
      "v": 66
    },
    {
      "midi": 59,
      "hit": false,
      "t": 192335.93749999985,
      "d": 143.22916666665697,
      "v": 55
    },
    {
      "midi": 66,
      "hit": false,
      "t": 192520.83333333317,
      "d": 111.97916666665697,
      "v": 68
    },
    {
      "midi": 71,
      "hit": false,
      "t": 192703.12499999983,
      "d": 348.9583333332848,
      "v": 100
    },
    {
      "midi": 42,
      "hit": false,
      "t": 192947.91666666648,
      "d": 450.5208333332848,
      "v": 56
    },
    {
      "midi": 75,
      "hit": false,
      "t": 192992.1874999998,
      "d": 333.33333333331393,
      "v": 86
    },
    {
      "midi": 72,
      "hit": false,
      "t": 193002.60416666645,
      "d": 343.75,
      "v": 63
    },
    {
      "midi": 68,
      "hit": false,
      "t": 193270.8333333331,
      "d": 117.1875,
      "v": 66
    },
    {
      "midi": 60,
      "hit": false,
      "t": 193484.37499999977,
      "d": 67.70833333334303,
      "v": 75
    },
    {
      "midi": 75,
      "hit": false,
      "t": 193703.12499999977,
      "d": 309.89583333334303,
      "v": 83
    },
    {
      "midi": 80,
      "hit": false,
      "t": 193940.10416666642,
      "d": 1015.6250000000291,
      "v": 82
    },
    {
      "midi": 41,
      "hit": false,
      "t": 193947.91666666642,
      "d": 263.02083333337214,
      "v": 67
    },
    {
      "midi": 73,
      "hit": false,
      "t": 194166.66666666645,
      "d": 226.5625000000291,
      "v": 52
    },
    {
      "midi": 68,
      "hit": false,
      "t": 194354.16666666648,
      "d": 125,
      "v": 55
    },
    {
      "midi": 55,
      "hit": false,
      "t": 194528.64583333314,
      "d": 221.35416666665697,
      "v": 66
    },
    {
      "midi": 56,
      "hit": false,
      "t": 194726.5624999998,
      "d": 291.66666666665697,
      "v": 72
    },
    {
      "midi": 61,
      "hit": false,
      "t": 194937.4999999998,
      "d": 148.4375,
      "v": 81
    },
    {
      "midi": 68,
      "hit": false,
      "t": 195166.66666666645,
      "d": 104.16666666665697,
      "v": 84
    },
    {
      "midi": 73,
      "hit": false,
      "t": 195388.0208333331,
      "d": 385.41666666668607,
      "v": 87
    },
    {
      "midi": 80,
      "hit": false,
      "t": 195690.10416666645,
      "d": 453.1250000000291,
      "v": 87
    },
    {
      "midi": 40,
      "hit": false,
      "t": 195708.3333333331,
      "d": 390.6250000000291,
      "v": 88
    },
    {
      "midi": 73,
      "hit": false,
      "t": 195937.4999999998,
      "d": 255.20833333334303,
      "v": 70
    },
    {
      "midi": 68,
      "hit": false,
      "t": 196143.22916666648,
      "d": 65.10416666665697,
      "v": 73
    },
    {
      "midi": 80,
      "hit": false,
      "t": 196354.16666666648,
      "d": 375,
      "v": 93
    },
    {
      "midi": 85,
      "hit": false,
      "t": 196638.02083333314,
      "d": 973.958333333343,
      "v": 90
    },
    {
      "midi": 39,
      "hit": false,
      "t": 196643.22916666648,
      "d": 317.70833333334303,
      "v": 86
    },
    {
      "midi": 79,
      "hit": false,
      "t": 196898.43749999983,
      "d": 294.27083333334303,
      "v": 77
    },
    {
      "midi": 73,
      "hit": false,
      "t": 197093.74999999983,
      "d": 221.35416666668607,
      "v": 65
    },
    {
      "midi": 57,
      "hit": false,
      "t": 197307.2916666665,
      "d": 247.39583333331393,
      "v": 72
    },
    {
      "midi": 58,
      "hit": false,
      "t": 197520.83333333317,
      "d": 270.83333333331393,
      "v": 68
    },
    {
      "midi": 61,
      "hit": false,
      "t": 197736.97916666648,
      "d": 117.1875,
      "v": 78
    },
    {
      "midi": 70,
      "hit": false,
      "t": 197950.52083333314,
      "d": 70.3125,
      "v": 75
    },
    {
      "midi": 73,
      "hit": false,
      "t": 198145.83333333314,
      "d": 343.75,
      "v": 88
    },
    {
      "midi": 78,
      "hit": false,
      "t": 198348.95833333314,
      "d": 432.29166666662786,
      "v": 86
    },
    {
      "midi": 38,
      "hit": false,
      "t": 198348.95833333314,
      "d": 450.5208333332848,
      "v": 91
    },
    {
      "midi": 72,
      "hit": false,
      "t": 198570.3124999998,
      "d": 263.0208333332848,
      "v": 71
    },
    {
      "midi": 66,
      "hit": false,
      "t": 198770.8333333331,
      "d": 114.58333333331393,
      "v": 65
    },
    {
      "midi": 78,
      "hit": false,
      "t": 198955.72916666642,
      "d": 270.83333333331393,
      "v": 89
    },
    {
      "midi": 83,
      "hit": false,
      "t": 199166.66666666642,
      "d": 447.91666666659876,
      "v": 113
    },
    {
      "midi": 37,
      "hit": false,
      "t": 199174.47916666642,
      "d": 273.4374999999709,
      "v": 86
    },
    {
      "midi": 77,
      "hit": false,
      "t": 199408.8541666664,
      "d": 169.27083333331393,
      "v": 66
    },
    {
      "midi": 71,
      "hit": false,
      "t": 199588.54166666637,
      "d": 106.77083333331393,
      "v": 84
    },
    {
      "midi": 55,
      "hit": false,
      "t": 199755.20833333302,
      "d": 177.08333333334303,
      "v": 85
    },
    {
      "midi": 56,
      "hit": false,
      "t": 199932.29166666637,
      "d": 247.39583333334303,
      "v": 69
    },
    {
      "midi": 59,
      "hit": false,
      "t": 200104.16666666637,
      "d": 184.89583333334303,
      "v": 84
    },
    {
      "midi": 68,
      "hit": false,
      "t": 200322.91666666637,
      "d": 104.16666666665697,
      "v": 84
    },
    {
      "midi": 71,
      "hit": false,
      "t": 200520.83333333302,
      "d": 369.79166666668607,
      "v": 103
    },
    {
      "midi": 76,
      "hit": false,
      "t": 200760.41666666637,
      "d": 388.02083333334303,
      "v": 87
    },
    {
      "midi": 36,
      "hit": false,
      "t": 200765.6249999997,
      "d": 330.72916666665697,
      "v": 92
    },
    {
      "midi": 70,
      "hit": false,
      "t": 200955.72916666637,
      "d": 291.66666666665697,
      "v": 75
    },
    {
      "midi": 64,
      "hit": false,
      "t": 201156.2499999997,
      "d": 65.10416666665697,
      "v": 90
    },
    {
      "midi": 76,
      "hit": false,
      "t": 201351.56249999968,
      "d": 281.25,
      "v": 100
    },
    {
      "midi": 81,
      "hit": false,
      "t": 201562.49999999968,
      "d": 1010.4166666666279,
      "v": 108
    },
    {
      "midi": 35,
      "hit": false,
      "t": 201570.31249999968,
      "d": 440.10416666665697,
      "v": 104
    },
    {
      "midi": 75,
      "hit": false,
      "t": 201791.66666666634,
      "d": 325.52083333331393,
      "v": 63
    },
    {
      "midi": 69,
      "hit": false,
      "t": 202013.020833333,
      "d": 145.83333333331393,
      "v": 72
    },
    {
      "midi": 59,
      "hit": false,
      "t": 202255.20833333296,
      "d": 382.8125,
      "v": 83
    },
    {
      "midi": 78,
      "hit": false,
      "t": 202473.95833333296,
      "d": 846.3541666666861,
      "v": 95
    },
    {
      "midi": 75,
      "hit": false,
      "t": 202687.49999999962,
      "d": 200.52083333334303,
      "v": 65
    },
    {
      "midi": 69,
      "hit": false,
      "t": 202874.99999999962,
      "d": 197.91666666668607,
      "v": 61
    },
    {
      "midi": 47,
      "hit": false,
      "t": 203052.08333333296,
      "d": 122.39583333334303,
      "v": 79
    },
    {
      "midi": 75,
      "hit": false,
      "t": 203244.7916666663,
      "d": 411.45833333331393,
      "v": 92
    },
    {
      "midi": 69,
      "hit": false,
      "t": 203455.7291666663,
      "d": 263.02083333331393,
      "v": 60
    },
    {
      "midi": 66,
      "hit": false,
      "t": 203645.83333333296,
      "d": 135.41666666665697,
      "v": 69
    },
    {
      "midi": 35,
      "hit": false,
      "t": 203807.29166666628,
      "d": 88.54166666665697,
      "v": 96
    },
    {
      "midi": 69,
      "hit": false,
      "t": 204002.60416666628,
      "d": 596.354166666657,
      "v": 91
    },
    {
      "midi": 63,
      "hit": false,
      "t": 204203.12499999962,
      "d": 213.54166666665697,
      "v": 68
    },
    {
      "midi": 57,
      "hit": false,
      "t": 204382.81249999962,
      "d": 153.64583333331393,
      "v": 65
    },
    {
      "midi": 47,
      "hit": false,
      "t": 204570.3124999996,
      "d": 161.45833333334303,
      "v": 90
    },
    {
      "midi": 68,
      "hit": false,
      "t": 204770.83333333294,
      "d": 687.5,
      "v": 99
    },
    {
      "midi": 63,
      "hit": false,
      "t": 204979.16666666628,
      "d": 229.16666666665697,
      "v": 79
    },
    {
      "midi": 57,
      "hit": false,
      "t": 205166.66666666628,
      "d": 135.41666666665697,
      "v": 79
    },
    {
      "midi": 35,
      "hit": false,
      "t": 205325.52083333294,
      "d": 101.5625,
      "v": 105
    },
    {
      "midi": 66,
      "hit": false,
      "t": 205554.6874999996,
      "d": 622.3958333333139,
      "v": 95
    },
    {
      "midi": 63,
      "hit": false,
      "t": 205778.64583333294,
      "d": 361.97916666665697,
      "v": 84
    },
    {
      "midi": 57,
      "hit": false,
      "t": 205968.7499999996,
      "d": 229.16666666665697,
      "v": 80
    },
    {
      "midi": 47,
      "hit": false,
      "t": 206151.04166666625,
      "d": 153.64583333334303,
      "v": 84
    },
    {
      "midi": 65,
      "hit": false,
      "t": 206416.66666666628,
      "d": 210.9375,
      "v": 100
    },
    {
      "midi": 57,
      "hit": false,
      "t": 206429.68749999962,
      "d": 140.625,
      "v": 83
    },
    {
      "midi": 41,
      "hit": false,
      "t": 206429.68749999962,
      "d": 174.47916666665697,
      "v": 95
    },
    {
      "midi": 48,
      "hit": false,
      "t": 206429.68749999962,
      "d": 184.89583333331393,
      "v": 95
    },
    {
      "midi": 63,
      "hit": false,
      "t": 206437.49999999962,
      "d": 171.875,
      "v": 80
    },
    {
      "midi": 36,
      "hit": false,
      "t": 206440.10416666628,
      "d": 200.52083333334303,
      "v": 90
    },
    {
      "midi": 87,
      "hit": false,
      "t": 206856.77083333296,
      "d": 679.6875,
      "v": 101
    },
    {
      "midi": 81,
      "hit": false,
      "t": 207236.9791666663,
      "d": 346.35416666665697,
      "v": 62
    },
    {
      "midi": 75,
      "hit": false,
      "t": 207486.9791666663,
      "d": 317.70833333334303,
      "v": 77
    },
    {
      "midi": 65,
      "hit": false,
      "t": 207708.33333333296,
      "d": 218.7500000000291,
      "v": 81
    },
    {
      "midi": 60,
      "hit": false,
      "t": 207713.5416666663,
      "d": 302.08333333334303,
      "v": 78
    },
    {
      "midi": 81,
      "hit": false,
      "t": 207942.708333333,
      "d": 380.20833333334303,
      "v": 96
    },
    {
      "midi": 75,
      "hit": false,
      "t": 208169.270833333,
      "d": 226.5625,
      "v": 62
    },
    {
      "midi": 69,
      "hit": false,
      "t": 208364.583333333,
      "d": 195.3125,
      "v": 51
    },
    {
      "midi": 60,
      "hit": false,
      "t": 208544.270833333,
      "d": 187.5,
      "v": 63
    },
    {
      "midi": 53,
      "hit": false,
      "t": 208552.083333333,
      "d": 153.64583333334303,
      "v": 80
    },
    {
      "midi": 75,
      "hit": false,
      "t": 208739.583333333,
      "d": 296.875,
      "v": 88
    },
    {
      "midi": 69,
      "hit": false,
      "t": 208947.91666666634,
      "d": 169.27083333331393,
      "v": 54
    },
    {
      "midi": 63,
      "hit": false,
      "t": 209130.208333333,
      "d": 143.22916666665697,
      "v": 73
    },
    {
      "midi": 53,
      "hit": false,
      "t": 209289.06249999965,
      "d": 171.875,
      "v": 79
    },
    {
      "midi": 48,
      "hit": false,
      "t": 209291.6666666663,
      "d": 247.39583333334303,
      "v": 54
    },
    {
      "midi": 69,
      "hit": false,
      "t": 209502.6041666663,
      "d": 895.833333333343,
      "v": 87
    },
    {
      "midi": 63,
      "hit": false,
      "t": 209703.12499999965,
      "d": 174.47916666665697,
      "v": 60
    },
    {
      "midi": 57,
      "hit": false,
      "t": 209903.64583333296,
      "d": 85.9375,
      "v": 57
    },
    {
      "midi": 48,
      "hit": false,
      "t": 210096.3541666663,
      "d": 140.625,
      "v": 51
    },
    {
      "midi": 41,
      "hit": false,
      "t": 210111.9791666663,
      "d": 257.8125,
      "v": 46
    },
    {
      "midi": 68,
      "hit": false,
      "t": 210307.2916666663,
      "d": 1026.041666666657,
      "v": 80
    },
    {
      "midi": 63,
      "hit": false,
      "t": 210533.8541666663,
      "d": 187.5,
      "v": 53
    },
    {
      "midi": 57,
      "hit": false,
      "t": 210749.99999999965,
      "d": 174.47916666665697,
      "v": 46
    },
    {
      "midi": 29,
      "hit": false,
      "t": 210947.9166666663,
      "d": 315.10416666665697,
      "v": 55
    },
    {
      "midi": 66,
      "hit": false,
      "t": 211205.7291666663,
      "d": 1072.916666666657,
      "v": 69
    },
    {
      "midi": 63,
      "hit": false,
      "t": 211437.49999999962,
      "d": 153.64583333334303,
      "v": 53
    },
    {
      "midi": 57,
      "hit": false,
      "t": 211674.4791666663,
      "d": 242.1875,
      "v": 36
    },
    {
      "midi": 48,
      "hit": false,
      "t": 211877.6041666663,
      "d": 520.8333333333139,
      "v": 31
    },
    {
      "midi": 41,
      "hit": false,
      "t": 211893.2291666663,
      "d": 557.291666666657,
      "v": 34
    },
    {
      "midi": 65,
      "hit": false,
      "t": 212161.45833333296,
      "d": 1145.833333333343,
      "v": 57
    },
    {
      "midi": 60,
      "hit": false,
      "t": 212406.24999999962,
      "d": 252.60416666668607,
      "v": 35
    },
    {
      "midi": 57,
      "hit": false,
      "t": 212661.45833333296,
      "d": 140.625,
      "v": 34
    },
    {
      "midi": 29,
      "hit": false,
      "t": 212903.64583333296,
      "d": 536.458333333343,
      "v": 32
    },
    {
      "midi": 64,
      "hit": false,
      "t": 213200.52083333296,
      "d": 1471.354166666686,
      "v": 48
    },
    {
      "midi": 60,
      "hit": false,
      "t": 213505.208333333,
      "d": 125,
      "v": 33
    },
    {
      "midi": 57,
      "hit": false,
      "t": 213815.10416666634,
      "d": 151.04166666665697,
      "v": 23
    },
    {
      "midi": 48,
      "hit": false,
      "t": 214093.74999999965,
      "d": 1210.937500000029,
      "v": 19
    },
    {
      "midi": 41,
      "hit": false,
      "t": 214093.74999999965,
      "d": 1354.166666666686,
      "v": 19
    },
    {
      "midi": 63,
      "hit": false,
      "t": 214539.06249999965,
      "d": 4143.229166666657,
      "v": 31
    },
    {
      "midi": 60,
      "hit": false,
      "t": 215031.24999999968,
      "d": 2921.874999999971,
      "v": 9
    },
    {
      "midi": 57,
      "hit": false,
      "t": 215671.87499999968,
      "d": 2005.208333333314,
      "v": 9
    },
    {
      "midi": 29,
      "hit": false,
      "t": 216651.04166666634,
      "d": 1528.645833333314,
      "v": 13
    },
    {
      "midi": 62,
      "hit": false,
      "t": 219002.6041666663,
      "d": 815.1041666666861,
      "v": 33
    },
    {
      "midi": 57,
      "hit": false,
      "t": 219041.6666666663,
      "d": 960.9375000000291,
      "v": 13
    },
    {
      "midi": 41,
      "hit": false,
      "t": 219067.70833333296,
      "d": 942.7083333333721,
      "v": 22
    },
    {
      "midi": 53,
      "hit": false,
      "t": 219072.9166666663,
      "d": 986.9791666666861,
      "v": 23
    },
    {
      "midi": 60,
      "hit": false,
      "t": 219749.99999999965,
      "d": 335.9375,
      "v": 32
    },
    {
      "midi": 51,
      "hit": false,
      "t": 219781.24999999965,
      "d": 270.83333333334303,
      "v": 18
    },
    {
      "midi": 60,
      "hit": false,
      "t": 220341.145833333,
      "d": 669.2708333333139,
      "v": 43
    },
    {
      "midi": 53,
      "hit": false,
      "t": 220364.583333333,
      "d": 1867.187499999971,
      "v": 33
    },
    {
      "midi": 51,
      "hit": false,
      "t": 220369.79166666634,
      "d": 304.6875,
      "v": 18
    },
    {
      "midi": 57,
      "hit": false,
      "t": 220398.43749999968,
      "d": 643.2291666666279,
      "v": 7
    },
    {
      "midi": 41,
      "hit": false,
      "t": 220463.54166666634,
      "d": 906.2499999999709,
      "v": 5
    },
    {
      "midi": 58,
      "hit": false,
      "t": 220872.395833333,
      "d": 1473.9583333332848,
      "v": 26
    },
    {
      "midi": 50,
      "hit": false,
      "t": 220906.24999999965,
      "d": 4351.562499999942,
      "v": 35
    },
    {
      "midi": 40,
      "hit": false,
      "t": 221390.62499999965,
      "d": 619.791666666657,
      "v": 53
    },
    {
      "midi": 41,
      "hit": false,
      "t": 222007.81249999965,
      "d": 3010.416666666628,
      "v": 44
    },
    {
      "midi": 76,
      "hit": false,
      "t": 222739.58333333294,
      "d": 580.729166666657,
      "v": 50
    },
    {
      "midi": 77,
      "hit": false,
      "t": 223247.39583333294,
      "d": 596.354166666657,
      "v": 54
    },
    {
      "midi": 74,
      "hit": false,
      "t": 223697.91666666625,
      "d": 437.5000000000291,
      "v": 45
    },
    {
      "midi": 70,
      "hit": false,
      "t": 224130.20833333294,
      "d": 486.97916666668607,
      "v": 29
    },
    {
      "midi": 65,
      "hit": false,
      "t": 224627.60416666628,
      "d": 518.229166666657,
      "v": 14
    },
    {
      "midi": 62,
      "hit": false,
      "t": 225208.33333333294,
      "d": 179.6875,
      "v": 11
    },
    {
      "midi": 56,
      "hit": false,
      "t": 226054.6874999996,
      "d": 578.1250000000291,
      "v": 45
    },
    {
      "midi": 65,
      "hit": false,
      "t": 226062.4999999996,
      "d": 723.9583333333721,
      "v": 60
    },
    {
      "midi": 61,
      "hit": false,
      "t": 226067.70833333294,
      "d": 713.5416666666861,
      "v": 44
    },
    {
      "midi": 41,
      "hit": false,
      "t": 226096.35416666628,
      "d": 851.5625000000291,
      "v": 37
    },
    {
      "midi": 63,
      "hit": false,
      "t": 226661.45833333296,
      "d": 317.70833333334303,
      "v": 72
    },
    {
      "midi": 60,
      "hit": false,
      "t": 226677.08333333296,
      "d": 338.54166666668607,
      "v": 36
    },
    {
      "midi": 57,
      "hit": false,
      "t": 226690.1041666663,
      "d": 281.25,
      "v": 36
    },
    {
      "midi": 54,
      "hit": false,
      "t": 226692.70833333296,
      "d": 291.66666666668607,
      "v": 48
    },
    {
      "midi": 63,
      "hit": false,
      "t": 227179.68749999965,
      "d": 674.4791666666279,
      "v": 78
    },
    {
      "midi": 54,
      "hit": false,
      "t": 227190.1041666663,
      "d": 372.39583333331393,
      "v": 44
    },
    {
      "midi": 60,
      "hit": false,
      "t": 227205.7291666663,
      "d": 252.60416666665697,
      "v": 47
    },
    {
      "midi": 57,
      "hit": false,
      "t": 227205.7291666663,
      "d": 565.1041666666279,
      "v": 52
    },
    {
      "midi": 41,
      "hit": false,
      "t": 227239.58333333296,
      "d": 968.75,
      "v": 31
    },
    {
      "midi": 61,
      "hit": false,
      "t": 227690.10416666628,
      "d": 1401.041666666657,
      "v": 68
    },
    {
      "midi": 56,
      "hit": false,
      "t": 227700.52083333294,
      "d": 1328.125,
      "v": 48
    },
    {
      "midi": 53,
      "hit": false,
      "t": 227731.77083333294,
      "d": 4963.541666666715,
      "v": 67
    },
    {
      "midi": 40,
      "hit": false,
      "t": 228218.74999999962,
      "d": 523.4375,
      "v": 67
    },
    {
      "midi": 41,
      "hit": false,
      "t": 228760.41666666628,
      "d": 3481.770833333372,
      "v": 59
    },
    {
      "midi": 79,
      "hit": false,
      "t": 229520.83333333294,
      "d": 729.1666666666861,
      "v": 69
    },
    {
      "midi": 80,
      "hit": false,
      "t": 230143.22916666628,
      "d": 588.5416666666861,
      "v": 68
    },
    {
      "midi": 77,
      "hit": false,
      "t": 230661.45833333296,
      "d": 473.95833333334303,
      "v": 73
    },
    {
      "midi": 73,
      "hit": false,
      "t": 231083.33333333296,
      "d": 583.333333333343,
      "v": 68
    },
    {
      "midi": 68,
      "hit": false,
      "t": 231536.45833333296,
      "d": 619.7916666666861,
      "v": 59
    },
    {
      "midi": 65,
      "hit": false,
      "t": 232088.5416666663,
      "d": 346.35416666668607,
      "v": 55
    },
    {
      "midi": 73,
      "hit": false,
      "t": 232739.583333333,
      "d": 531.25,
      "v": 84
    },
    {
      "midi": 41,
      "hit": false,
      "t": 232763.020833333,
      "d": 723.958333333343,
      "v": 66
    },
    {
      "midi": 72,
      "hit": false,
      "t": 233281.24999999965,
      "d": 328.1250000000291,
      "v": 87
    },
    {
      "midi": 57,
      "hit": false,
      "t": 233286.458333333,
      "d": 359.3750000000291,
      "v": 60
    },
    {
      "midi": 51,
      "hit": false,
      "t": 233286.458333333,
      "d": 541.6666666666861,
      "v": 49
    },
    {
      "midi": 66,
      "hit": false,
      "t": 233294.270833333,
      "d": 518.2291666666861,
      "v": 49
    },
    {
      "midi": 60,
      "hit": false,
      "t": 233302.083333333,
      "d": 338.54166666668607,
      "v": 55
    },
    {
      "midi": 70,
      "hit": false,
      "t": 233333.333333333,
      "d": 75.52083333334303,
      "v": 25
    },
    {
      "midi": 72,
      "hit": false,
      "t": 233778.64583333302,
      "d": 281.25,
      "v": 88
    },
    {
      "midi": 41,
      "hit": false,
      "t": 233796.87499999968,
      "d": 723.9583333333139,
      "v": 44
    },
    {
      "midi": 50,
      "hit": false,
      "t": 234249.99999999968,
      "d": 1703.124999999971,
      "v": 37
    },
    {
      "midi": 53,
      "hit": false,
      "t": 234260.41666666634,
      "d": 1622.395833333314,
      "v": 73
    },
    {
      "midi": 70,
      "hit": false,
      "t": 234265.62499999968,
      "d": 1416.666666666657,
      "v": 62
    },
    {
      "midi": 58,
      "hit": false,
      "t": 234273.43749999968,
      "d": 1914.062499999971,
      "v": 45
    },
    {
      "midi": 65,
      "hit": false,
      "t": 234307.29166666634,
      "d": 1716.145833333314,
      "v": 36
    },
    {
      "midi": 40,
      "hit": false,
      "t": 234901.04166666634,
      "d": 296.875,
      "v": 81
    },
    {
      "midi": 41,
      "hit": false,
      "t": 235424.47916666634,
      "d": 2294.270833333372,
      "v": 68
    },
    {
      "midi": 70,
      "hit": false,
      "t": 235906.24999999965,
      "d": 419.27083333334303,
      "v": 79
    },
    {
      "midi": 49,
      "hit": false,
      "t": 236401.04166666634,
      "d": 765.6250000000291,
      "v": 51
    },
    {
      "midi": 71,
      "hit": false,
      "t": 236408.85416666634,
      "d": 494.79166666668607,
      "v": 91
    },
    {
      "midi": 59,
      "hit": false,
      "t": 236437.49999999968,
      "d": 630.208333333343,
      "v": 43
    },
    {
      "midi": 65,
      "hit": false,
      "t": 236437.49999999968,
      "d": 734.3750000000291,
      "v": 46
    },
    {
      "midi": 53,
      "hit": false,
      "t": 236455.72916666634,
      "d": 458.33333333334303,
      "v": 36
    },
    {
      "midi": 71,
      "hit": false,
      "t": 236989.58333333302,
      "d": 330.72916666668607,
      "v": 66
    },
    {
      "midi": 72,
      "hit": false,
      "t": 237460.9374999997,
      "d": 1434.895833333314,
      "v": 53
    },
    {
      "midi": 55,
      "hit": false,
      "t": 237481.77083333305,
      "d": 1455.7291666666279,
      "v": 32
    },
    {
      "midi": 64,
      "hit": false,
      "t": 237481.77083333305,
      "d": 1486.9791666666279,
      "v": 42
    },
    {
      "midi": 60,
      "hit": false,
      "t": 237484.3749999997,
      "d": 1460.937499999971,
      "v": 29
    },
    {
      "midi": 48,
      "hit": false,
      "t": 237484.3749999997,
      "d": 1565.1041666666279,
      "v": 30
    },
    {
      "midi": 40,
      "hit": false,
      "t": 237981.77083333305,
      "d": 268.22916666665697,
      "v": 44
    },
    {
      "midi": 41,
      "hit": false,
      "t": 238507.8124999997,
      "d": 2648.437499999971,
      "v": 33
    },
    {
      "midi": 72,
      "hit": false,
      "t": 239143.22916666634,
      "d": 296.875,
      "v": 64
    },
    {
      "midi": 70,
      "hit": false,
      "t": 239635.41666666634,
      "d": 328.125,
      "v": 57
    },
    {
      "midi": 58,
      "hit": false,
      "t": 239656.24999999968,
      "d": 497.39583333331393,
      "v": 29
    },
    {
      "midi": 64,
      "hit": false,
      "t": 239666.66666666634,
      "d": 710.9375,
      "v": 44
    },
    {
      "midi": 48,
      "hit": false,
      "t": 239674.47916666634,
      "d": 630.2083333333139,
      "v": 27
    },
    {
      "midi": 55,
      "hit": false,
      "t": 239677.083333333,
      "d": 468.75,
      "v": 18
    },
    {
      "midi": 70,
      "hit": false,
      "t": 240143.22916666634,
      "d": 221.35416666665697,
      "v": 64
    },
    {
      "midi": 68,
      "hit": false,
      "t": 240817.708333333,
      "d": 1658.854166666686,
      "v": 45
    },
    {
      "midi": 56,
      "hit": false,
      "t": 240833.333333333,
      "d": 2010.416666666686,
      "v": 21
    },
    {
      "midi": 49,
      "hit": false,
      "t": 240841.145833333,
      "d": 1885.416666666686,
      "v": 17
    },
    {
      "midi": 65,
      "hit": false,
      "t": 240843.74999999965,
      "d": 2479.166666666657,
      "v": 33
    },
    {
      "midi": 53,
      "hit": false,
      "t": 240856.770833333,
      "d": 1770.833333333343,
      "v": 42
    },
    {
      "midi": 40,
      "hit": false,
      "t": 241518.22916666634,
      "d": 286.45833333334303,
      "v": 40
    },
    {
      "midi": 41,
      "hit": false,
      "t": 242151.04166666634,
      "d": 2953.124999999942,
      "v": 41
    },
    {
      "midi": 68,
      "hit": false,
      "t": 242682.29166666634,
      "d": 281.25,
      "v": 47
    },
    {
      "midi": 63,
      "hit": false,
      "t": 243234.37499999965,
      "d": 401.04166666665697,
      "v": 40
    },
    {
      "midi": 57,
      "hit": false,
      "t": 243236.9791666663,
      "d": 312.5,
      "v": 29
    },
    {
      "midi": 69,
      "hit": false,
      "t": 243249.99999999965,
      "d": 395.83333333331393,
      "v": 41
    },
    {
      "midi": 47,
      "hit": false,
      "t": 243260.4166666663,
      "d": 669.270833333343,
      "v": 23
    },
    {
      "midi": 53,
      "hit": false,
      "t": 243270.83333333296,
      "d": 520.833333333343,
      "v": 34
    },
    {
      "midi": 69,
      "hit": false,
      "t": 243776.0416666663,
      "d": 195.3125,
      "v": 31
    },
    {
      "midi": 70,
      "hit": false,
      "t": 244385.4166666663,
      "d": 2867.187499999942,
      "v": 25
    },
    {
      "midi": 46,
      "hit": false,
      "t": 244403.64583333296,
      "d": 2223.958333333285,
      "v": 14
    },
    {
      "midi": 58,
      "hit": false,
      "t": 244411.45833333296,
      "d": 1835.9374999999418,
      "v": 8
    },
    {
      "midi": 62,
      "hit": false,
      "t": 244434.89583333296,
      "d": 1848.9583333332848,
      "v": 18
    },
    {
      "midi": 53,
      "hit": false,
      "t": 244437.49999999962,
      "d": 684.8958333333139,
      "v": 44
    },
    {
      "midi": 40,
      "hit": false,
      "t": 245218.7499999996,
      "d": 593.75,
      "v": 61
    },
    {
      "midi": 41,
      "hit": false,
      "t": 245864.5833333329,
      "d": 3351.562499999971,
      "v": 46
    },
    {
      "midi": 58,
      "hit": false,
      "t": 246539.0624999996,
      "d": 1346.354166666657,
      "v": 40
    },
    {
      "midi": 61,
      "hit": false,
      "t": 247205.72916666625,
      "d": 424.47916666665697,
      "v": 55
    },
    {
      "midi": 46,
      "hit": false,
      "t": 247210.9374999996,
      "d": 1221.3541666666279,
      "v": 21
    },
    {
      "midi": 53,
      "hit": false,
      "t": 247239.58333333294,
      "d": 692.7083333333139,
      "v": 33
    },
    {
      "midi": 61,
      "hit": false,
      "t": 247770.8333333329,
      "d": 346.35416666668607,
      "v": 65
    },
    {
      "midi": 65,
      "hit": false,
      "t": 248369.79166666625,
      "d": 2838.541666666657,
      "v": 40
    },
    {
      "midi": 53,
      "hit": false,
      "t": 248372.3958333329,
      "d": 2031.25,
      "v": 50
    },
    {
      "midi": 60,
      "hit": false,
      "t": 248374.99999999956,
      "d": 2062.5,
      "v": 38
    },
    {
      "midi": 58,
      "hit": false,
      "t": 248377.60416666622,
      "d": 3838.541666666715,
      "v": 28
    },
    {
      "midi": 48,
      "hit": false,
      "t": 248388.02083333288,
      "d": 3638.020833333372,
      "v": 22
    },
    {
      "midi": 40,
      "hit": false,
      "t": 249200.52083333288,
      "d": 726.5625000000291,
      "v": 40
    },
    {
      "midi": 41,
      "hit": false,
      "t": 249947.91666666625,
      "d": 3070.3125,
      "v": 25
    },
    {
      "midi": 53,
      "hit": false,
      "t": 250812.49999999956,
      "d": 807.2916666666861,
      "v": 78
    },
    {
      "midi": 60,
      "hit": false,
      "t": 251479.16666666625,
      "d": 390.625,
      "v": 70
    },
    {
      "midi": 53,
      "hit": false,
      "t": 251895.8333333329,
      "d": 226.5625000000291,
      "v": 2
    },
    {
      "midi": 60,
      "hit": false,
      "t": 252070.3124999996,
      "d": 502.60416666668607,
      "v": 83
    },
    {
      "midi": 63,
      "hit": false,
      "t": 252927.08333333294,
      "d": 2148.4375,
      "v": 71
    },
    {
      "midi": 54,
      "hit": false,
      "t": 252942.70833333294,
      "d": 1346.354166666657,
      "v": 50
    },
    {
      "midi": 57,
      "hit": false,
      "t": 252953.1249999996,
      "d": 1049.479166666657,
      "v": 34
    },
    {
      "midi": 29,
      "hit": false,
      "t": 252986.97916666625,
      "d": 4929.6875,
      "v": 33
    },
    {
      "midi": 61,
      "hit": false,
      "t": 254825.52083333294,
      "d": 2356.770833333314,
      "v": 43
    },
    {
      "midi": 57,
      "hit": false,
      "t": 254859.3749999996,
      "d": 828.1250000000291,
      "v": 22
    },
    {
      "midi": 53,
      "hit": false,
      "t": 254864.58333333294,
      "d": 979.1666666666861,
      "v": 30
    },
    {
      "midi": 60,
      "hit": false,
      "t": 256963.54166666628,
      "d": 4755.208333333285,
      "v": 35
    },
    {
      "midi": 57,
      "hit": false,
      "t": 256989.58333333294,
      "d": 4072.916666666657,
      "v": 15
    },
    {
      "midi": 51,
      "hit": false,
      "t": 256999.9999999996,
      "d": 3968.75,
      "v": 15
    },
    {
      "midi": 22,
      "hit": false,
      "t": 259114.5833333329,
      "d": 856.770833333343,
      "v": 41
    },
    {
      "midi": 34,
      "hit": false,
      "t": 260005.2083333329,
      "d": 195.3125,
      "v": 28
    },
    {
      "midi": 41,
      "hit": false,
      "t": 260645.8333333329,
      "d": 239.58333333334303,
      "v": 28
    },
    {
      "midi": 46,
      "hit": false,
      "t": 261205.72916666625,
      "d": 221.35416666665697,
      "v": 16
    },
    {
      "midi": 58,
      "hit": false,
      "t": 261739.5833333329,
      "d": 572.9166666666279,
      "v": 20
    },
    {
      "midi": 49,
      "hit": false,
      "t": 261742.18749999956,
      "d": 195.3125,
      "v": 22
    },
    {
      "midi": 53,
      "hit": false,
      "t": 262343.74999999953,
      "d": 127.60416666668607,
      "v": 42
    },
    {
      "midi": 58,
      "hit": false,
      "t": 262968.74999999953,
      "d": 1526.041666666686,
      "v": 22
    },
    {
      "midi": 49,
      "hit": false,
      "t": 262994.7916666662,
      "d": 1809.895833333314,
      "v": 28
    },
    {
      "midi": 46,
      "hit": false,
      "t": 263005.2083333329,
      "d": 1942.708333333314,
      "v": 11
    },
    {
      "midi": 61,
      "hit": false,
      "t": 263593.7499999996,
      "d": 161.45833333331393,
      "v": 38
    },
    {
      "midi": 65,
      "hit": false,
      "t": 264223.9583333329,
      "d": 122.39583333331393,
      "v": 28
    },
    {
      "midi": 70,
      "hit": false,
      "t": 264893.2291666662,
      "d": 210.9375,
      "v": 30
    },
    {
      "midi": 34,
      "hit": false,
      "t": 265638.0208333329,
      "d": 1289.0625000000582,
      "v": 20
    },
    {
      "midi": 73,
      "hit": false,
      "t": 265645.8333333329,
      "d": 143.22916666668607,
      "v": 36
    },
    {
      "midi": 89,
      "hit": false,
      "t": 266593.7499999996,
      "d": 174.47916666668607,
      "v": 30
    },
    {
      "midi": 77,
      "hit": false,
      "t": 266604.1666666663,
      "d": 75.52083333331393,
      "v": 24
    },
    {
      "midi": 94,
      "hit": false,
      "t": 268499.99999999965,
      "d": 421.8750000000582,
      "v": 26
    },
    {
      "midi": 82,
      "hit": false,
      "t": 268510.41666666634,
      "d": 247.39583333337214,
      "v": 19
    },
    {
      "midi": 49,
      "hit": false,
      "t": 268520.833333333,
      "d": 283.85416666668607,
      "v": 12
    },
    {
      "midi": 34,
      "hit": false,
      "t": 268544.270833333,
      "d": 359.375,
      "v": 4
    },
    {
      "midi": 41,
      "hit": false,
      "t": 268552.083333333,
      "d": 135.41666666668607,
      "v": 24
    }
  ]
}